<?xml version="1.0" encoding="UTF-8" standalone="no"?>
<svg
   xmlns:dc="http://purl.org/dc/elements/1.1/"
   xmlns:cc="http://creativecommons.org/ns#"
   xmlns:rdf="http://www.w3.org/1999/02/22-rdf-syntax-ns#"
   xmlns:svg="http://www.w3.org/2000/svg"
   xmlns="http://www.w3.org/2000/svg"
   xmlns:sodipodi="http://sodipodi.sourceforge.net/DTD/sodipodi-0.dtd"
   xmlns:inkscape="http://www.inkscape.org/namespaces/inkscape"
   width="1280"
   height="1280"
   viewBox="0 0 1024 1024"
   version="1.1"
   id="svg2"
   inkscape:version="0.48.1 "
   sodipodi:docname="achieve_progress1.svg">
  <metadata
     id="metadata42">
    <rdf:RDF>
      <cc:Work
         rdf:about="">
        <dc:format>image/svg+xml</dc:format>
        <dc:type
           rdf:resource="http://purl.org/dc/dcmitype/StillImage" />
      </cc:Work>
    </rdf:RDF>
  </metadata>
  <defs
     id="defs40" />
  <sodipodi:namedview
     pagecolor="#ffffff"
     bordercolor="#666666"
     borderopacity="1"
     objecttolerance="10"
     gridtolerance="10"
     guidetolerance="10"
     inkscape:pageopacity="0"
     inkscape:pageshadow="2"
     inkscape:window-width="1920"
     inkscape:window-height="1018"
     id="namedview38"
     showgrid="false"
     fit-margin-top="0"
     fit-margin-left="0"
     fit-margin-right="0"
     fit-margin-bottom="0"
     inkscape:zoom="0.6609375"
     inkscape:cx="466.00473"
     inkscape:cy="640"
     inkscape:window-x="-8"
     inkscape:window-y="-8"
     inkscape:window-maximized="1"
     inkscape:current-layer="layer1"
     inkscape:snap-page="true" />
  <g
     inkscape:groupmode="layer"
     id="layer1"
     inkscape:label="background">
    <rect
       style="fill:#3e3e3e;fill-opacity:1;fill-rule:nonzero;stroke:none"
       id="rect3014"
       width="1280"
       height="1280"
       x="0"
       y="0"
       transform="scale(0.8,0.8)" />
  </g>
  <g
     inkscape:groupmode="layer"
     id="layer2"
     inkscape:label="foreground">
    <path
       d="m 482.06,103.66 c 27.3,-8.7 58.92,2.42 75.46,25.66 -11.24,0.18 -22.26,-2.7 -33.5,-2.28 -28.08,-0.74 -56.06,3.6 -83.28,10.34 9.06,-15.82 23.6,-28.72 41.32,-33.72 z"
       id="path6"
       inkscape:connector-curvature="0"
       style="fill:#f4722b" />
    <path
       d="m 577.9,131.86 c 15.2,-10.22 34.06,-15.38 52.26,-11.9 17.46,3.34 33.94,13.18 43.98,28.02 7.96,11.02 12.04,24.46 12.86,37.96 -4.38,-1.44 -7.56,-4.86 -11.08,-7.64 -28.84,-20.88 -61.82,-35.96 -96.44,-44.18 -0.4,-0.56 -1.18,-1.7 -1.58,-2.26 z"
       id="path8"
       inkscape:connector-curvature="0"
       style="fill:#f4722b" />
    <path
       d="m 319.04,200.18 c -0.42,-34.2 28.76,-65.34 62.9,-67.16 13.98,-1.24 27.96,2.34 40.24,8.98 -4.78,2.6 -10.04,3.96 -15.12,5.76 -28.76,10.76 -55.96,26.02 -79.46,45.86 -2.78,2.28 -5.66,4.44 -8.56,6.56 z"
       id="path10"
       inkscape:connector-curvature="0"
       style="fill:#f4722b" />
    <path
       style="fill:#f4722b"
       d="M 629.625 178.375 C 618.63437 178.425 607.65625 178.8875 596.78125 180.4375 C 558.33125 185.0875 520.69375 196.4375 486.21875 214.0625 C 426.91875 244.0125 377.375 292.63125 345.75 351.03125 C 321.275 396.68125 307.34375 448.13125 306.21875 499.90625 C 303.81875 579.25625 331.11875 659.30625 382.21875 720.15625 C 422.11875 768.60625 476.43125 805.0125 536.28125 823.8125 C 630.18125 854.0625 737.3625 839.55 819.4375 784.625 C 877.9875 745.8 924.025 688.0875 947.625 621.8125 C 961.15 584.5125 967.95 544.7375 966.875 505.0625 C 967.625 403.9375 916.79375 304.6375 835.84375 244.4375 C 786.01875 206.4375 724.8875 184 662.5625 178.875 C 651.6 178.7 640.61563 178.325 629.625 178.375 z M 631.3125 249.5 C 705.39822 248.55762 779.48203 283.04688 826.3125 340.59375 C 858.1625 379.24375 877.85625 427.5625 882.40625 477.4375 C 887.53125 532.6375 873.575 589.54375 843.375 636.09375 C 818.725 675.04375 782.6 706.425 741 726.125 C 708.05 742.25 671.4375 749.8375 634.9375 750.9375 C 578.5875 750.9125 522.075 732.29375 477.875 697.09375 C 421.1 653.44375 385.98125 583.88125 382.53125 512.53125 C 379.75625 457.08125 395.9375 400.575 428.1875 355.25 C 469.1625 296.45 536.96875 257.0875 608.34375 250.9375 C 615.97734 250.06797 623.64846 249.59749 631.3125 249.5 z "
       id="path12"
       transform="scale(0.8,0.8)" />
    <path
       d="m 714.98,213.04 c -3.6,-4.68 -10.3,-7.68 -10.76,-14.14 20.86,-1.18 42.22,6.8 56.08,22.66 19.66,20.46 22.7,53 10.34,78 -0.72,-0.24 -2.14,-0.74 -2.84,-0.98 -11.22,-31.8 -30.28,-60.6 -52.82,-85.54 z"
       id="path16"
       inkscape:connector-curvature="0"
       style="fill:#f4722b" />
    <path
       d="m 236.14,252.4 c 11.7,-26.26 41.34,-42.94 69.88,-39.04 -29.2,30.4 -50.78,67.7 -63.74,107.76 -13.56,-19.86 -16.08,-46.84 -6.14,-68.72 z"
       id="path18"
       inkscape:connector-curvature="0"
       style="fill:#f4722b" />
    <path
       d="m 459.7,225.68 c 8,-1.86 16.1,-3.34 24.24,-4.58 17.56,-1.5 35.18,0.12 52.74,-0.42 -11.96,1.54 -23.96,3.56 -35.04,8.5 -9.98,2.1 -16.14,10.8 -23.04,17.52 -10.5,9.54 -9.34,27.1 -0.64,37.42 10.98,8.14 24.62,12 38.2,12.56 21.24,3.7 44.5,3.38 62.86,16.2 12.72,8.42 21,23.52 18.86,39 -19.18,-21.9 -45.3,-37.94 -73.94,-43.68 -30.24,-7.14 -62.62,-2.32 -90.42,11.12 -31.04,16.08 -56.24,44 -67.28,77.34 -11.7,32.88 -9.38,70.12 5.02,101.78 16.26,35.04 48.16,62.7 85.38,73.32 23.74,6.86 49.48,7.52 73.32,0.7 37.94,-9.2 70.2,-36.9 87.5,-71.6 16.5,-34.42 18.1,-75.54 3.72,-110.96 13.9,-13.28 17.56,-33.82 15.78,-52.24 -1.44,-17.6 -10.56,-33.5 -21.8,-46.68 -15.58,-12.7 -33.46,-23.38 -53.32,-27.58 13.06,-5.44 14.24,-22.94 6.4,-33.26 6,3.3 12.48,5.52 18.58,8.62 41.98,20.6 75.3,58.16 90.52,102.4 18.64,52.66 11.56,113.92 -19.56,160.46 -20.2,30.38 -49.5,54.94 -83.52,68.44 -37.86,15.36 -81.02,17.46 -120.16,5.68 -29.18,-8.4 -56.18,-24.52 -77.28,-46.4 -28.34,-27.66 -45.96,-65.4 -51.2,-104.5 -2.98,-29.86 -0.5,-60.62 10.74,-88.68 20.14,-53.9 67.7,-96.1 123.34,-110.48 z"
       id="path20"
       inkscape:connector-curvature="0"
       style="fill:#f5e5c1" />
    <path
       d="m 498.62,246.36 c 16.16,-9.98 35.9,-12.48 54.48,-9.38 4.96,1.32 7.94,7.12 5.64,11.82 -2.48,4 -7.34,1.56 -10.96,1.22 -7.26,-1.84 -14.62,0.28 -21.88,0.94 -10.92,1.4 -22.7,4.16 -29.24,13.88 4.64,3.14 10.26,3.34 15.62,4.16 19.12,4.02 39.12,4.12 57.6,11.1 13.54,5.28 26.26,13.02 36.74,23.14 5.54,7.52 11.6,15.14 14,24.36 6.28,19.58 2.72,43.58 -13.72,57.26 -18.64,13.74 -38.08,26.4 -57.94,38.34 -2.9,1.7 -7.92,0.36 -8.22,-3.42 -1.18,-5.08 4.78,-6.62 7.86,-9.12 14.12,-10.02 28.42,-19.8 42.7,-29.56 8.4,-3.68 15.18,-10.68 18.56,-19.18 3.1,-12.22 3.28,-25.82 -2.56,-37.28 -8.44,-17.28 -25.3,-29.04 -43.36,-34.56 -13.84,-3.2 -27.94,-4.82 -42.02,-6.52 -10.78,-2.68 -22.88,-2.46 -32.18,-9.28 -5.02,-3.14 -6.64,-10.56 -3.06,-15.36 3.46,-4.64 7.72,-8.62 11.94,-12.56 z"
       id="path22"
       inkscape:connector-curvature="0"
       style="fill:#f4722b" />
    <path
       d="m 776.44,318.48 c 17.9,6.8 33.98,19.82 41.52,37.76 6.06,12.36 6.12,26.42 4.9,39.84 -3.46,21.04 -17.82,38.94 -36.12,49.3 4.66,-39.62 2.38,-80.28 -9.08,-118.64 -0.7,-2.7 -0.9,-5.5 -1.22,-8.26 z"
       id="path24"
       inkscape:connector-curvature="0"
       style="fill:#f4722b" />
    <path
       d="m 436.08,334 c 18.82,-10.36 40.42,-15.7 61.92,-15.04 37.7,0.6 74.3,20.12 96.14,50.78 -11.32,7.66 -22.7,15.22 -34.1,22.74 -6.4,-9.04 -19.56,-14.32 -29.68,-8.28 -11.32,8.42 -15.16,24.56 -10.22,37.56 2.72,7.68 6.12,16.66 14.18,20.1 8.8,2.52 19.96,-0.94 23.68,-9.9 2.9,-8.14 11.86,-10.82 18.14,-15.72 10.28,-7.7 22.16,-12.94 32.14,-21.02 10.34,25.96 11.76,55.42 3.32,82.1 -9.7,31.74 -33.02,59.02 -62.9,73.46 -29.14,14.46 -64.14,16.44 -94.72,5.4 -29.78,-10.44 -55.08,-32.98 -68.78,-61.4 -13.72,-27.7 -16.22,-60.68 -6.9,-90.16 9.2,-29.82 30.38,-55.7 57.78,-70.62 z"
       id="path26"
       inkscape:connector-curvature="0"
       style="fill:#f4722b" />
    <path
       d="m 210.48,360.34 c 7.14,-9.28 16.06,-17.72 27.04,-22.16 -7.4,31.46 -10.68,63.96 -7.98,96.24 1.3,8.32 1.84,16.74 2.28,25.14 -11.26,-7.6 -21.62,-17.3 -27.22,-29.9 -10.76,-21.9 -8.48,-49.54 5.88,-69.32 z"
       id="path28"
       inkscape:connector-curvature="0"
       style="fill:#f4722b" />
    <path
       d="m 783.84,459.9 c 11.96,13.58 18.38,31.96 17.06,50.06 -1.66,33.4 -31.42,63.1 -65.08,63.3 21.66,-34.98 40.82,-72.44 48.02,-113.36 z"
       id="path30"
       inkscape:connector-curvature="0"
       style="fill:#f4722b" />
    <path
       d="m 240.1,553.88 c -15.4,-21.26 -16.84,-51.46 -3.24,-73.96 7.24,22.18 14.78,44.5 26.98,64.56 7.28,13.68 16.66,26.02 25.98,38.32 -19.58,-2.34 -38.52,-12.44 -49.72,-28.92 z"
       id="path32"
       inkscape:connector-curvature="0"
       style="fill:#f4722b" />
    <path
       d="m 546.22,686.68 c 51.3,-7.06 100.94,-28.5 140.08,-62.6 49.02,88.18 97.06,176.96 145.66,265.38 -40.1,-9.54 -80.04,-19.88 -120.1,-29.74 -23.36,-5.56 -46.46,-12.3 -70,-17.14 -16.22,41.14 -33.62,81.82 -49.8,122.96 -0.52,-0.22 -1.56,-0.66 -2.08,-0.88 -15.28,-34.06 -29.38,-68.6 -42.76,-103.44 -20.7,-53.26 -41.54,-106.46 -62.28,-159.7 -1.94,-4.74 -4.1,-9.46 -4.56,-14.62 21.7,4.12 44.02,1.94 65.84,-0.22 z"
       id="path34"
       inkscape:connector-curvature="0"
       style="fill:#f4722b" />
    <path
       d="m 336.12,629.92 c 0.48,-0.28 1.42,-0.84 1.9,-1.12 35.74,29.24 79.32,48.32 124.68,56.44 15.32,38.28 29.1,77.18 43.98,115.64 1.88,4.98 -0.5,10.16 -1.68,15.04 -13,51.48 -25.46,103.1 -38.84,154.48 -28.78,-39.74 -57.32,-79.66 -86.12,-119.38 -38.92,20.66 -78,40.96 -116.96,61.5 -7.78,3.62 -14.92,8.62 -23.06,11.48 20.14,-63.34 41.58,-126.32 62.2,-189.52 11.06,-34.92 23.58,-69.42 33.9,-104.56 z"
       id="path36"
       inkscape:connector-curvature="0"
       style="fill:#f4722b" />
  </g>
</svg>
