<?xml version="1.0" encoding="UTF-8" standalone="no"?>
<svg
   xmlns:dc="http://purl.org/dc/elements/1.1/"
   xmlns:cc="http://creativecommons.org/ns#"
   xmlns:rdf="http://www.w3.org/1999/02/22-rdf-syntax-ns#"
   xmlns:svg="http://www.w3.org/2000/svg"
   xmlns="http://www.w3.org/2000/svg"
   xmlns:sodipodi="http://sodipodi.sourceforge.net/DTD/sodipodi-0.dtd"
   xmlns:inkscape="http://www.inkscape.org/namespaces/inkscape"
   width="1280"
   height="1280"
   viewBox="0 0 1024 1024"
   version="1.1"
   id="svg2"
   inkscape:version="0.48.1 "
   sodipodi:docname="achieve_progress3.svg">
  <metadata
     id="metadata234">
    <rdf:RDF>
      <cc:Work
         rdf:about="">
        <dc:format>image/svg+xml</dc:format>
        <dc:type
           rdf:resource="http://purl.org/dc/dcmitype/StillImage" />
      </cc:Work>
    </rdf:RDF>
  </metadata>
  <defs
     id="defs232" />
  <sodipodi:namedview
     pagecolor="#ffffff"
     bordercolor="#666666"
     borderopacity="1"
     objecttolerance="10"
     gridtolerance="10"
     guidetolerance="10"
     inkscape:pageopacity="0"
     inkscape:pageshadow="2"
     inkscape:window-width="1920"
     inkscape:window-height="1018"
     id="namedview230"
     showgrid="false"
     fit-margin-top="0"
     fit-margin-left="0"
     fit-margin-right="0"
     fit-margin-bottom="0"
     inkscape:zoom="0.6609375"
     inkscape:cx="640"
     inkscape:cy="640"
     inkscape:window-x="-8"
     inkscape:window-y="-8"
     inkscape:window-maximized="1"
     inkscape:current-layer="svg2" />
  <path
     d="M 0,0 0.04,0 C 0.04,0.04 0.02,0.14 0,0.2 L 0,0 z"
     id="path4"
     inkscape:connector-curvature="0"
     style="fill:#f3722b" />
  <path
     d="M 0.04,0 1024,0 1024,1024 0,1024 0,0.2 C 0.02,0.14 0.04,0.04 0.04,0 z"
     id="path6"
     inkscape:connector-curvature="0"
     style="fill:#3e3e3e" />
  <path
     d="m 137.54,45.64 c 3.86,-1 8.36,-4.52 12,-1.22 4.72,3.68 10.42,5.62 15.44,8.76 13.12,12.3 24.24,26.58 34.54,41.28 33.74,45.46 66.8,91.72 94.06,141.42 4.38,-1.6 8.62,-3.6 13.08,-5 6.9,-1.48 13.8,0.94 20.5,2.3 2.68,8.9 7.18,17.14 9.58,26.14 3.08,0.28 6.16,0.58 9.24,0.92 -2.56,0.46 -5.12,0.92 -7.66,1.34 4.86,21.88 14.08,42.64 17.58,64.88 -0.86,0.5 -2.62,1.48 -3.48,1.98 -0.44,2.92 -0.86,5.86 -1.24,8.78 -0.94,-0.06 -2.86,-0.2 -3.82,-0.28 -3.52,-26.42 -12.54,-51.62 -21.94,-76.44 -3.18,-7.26 -6.12,-14.88 -11.26,-21.04 -3.66,-3.12 -8.4,0.88 -12.3,1.58 -2.44,-1.04 -4.88,-2.1 -7.3,-3.14 9.92,17.16 14.06,36.9 23.34,54.36 7.86,15.86 13.88,32.52 20.78,48.78 1.98,5.38 4.44,10.82 4.62,16.64 -0.5,5.72 -6.16,8.36 -10.94,9.92 0.22,3.82 0.54,7.64 0.9,11.46 -6.2,0.76 -10.78,-3.62 -15.38,-6.98 -14.98,-11.4 -31.6,-20.32 -47,-31.1 -23.98,-14.08 -48.1,-27.9 -72.64,-40.98 -14.4,-7.92 -30.02,-13.68 -46.24,-16.48 1.56,21.26 6.62,42.12 11.76,62.76 1.78,7.18 0.82,14.98 4.36,21.72 3.96,7.24 3.66,15.62 4.36,23.62 13.32,-3.84 27.18,-4.92 40.86,-6.86 3.56,-0.4 7.3,-3.26 7.06,-7.14 0.42,-8.62 0.06,-17.26 0.96,-25.84 -0.24,-6.46 -0.68,-12.92 -0.98,-19.36 3.44,-0.28 6.9,0.02 10.24,0.96 0.66,16.08 -2.1,31.96 -2.2,48 24.5,-1.38 49.02,-1.3 73.54,-1.34 17.46,-2.3 34.64,2.62 51.96,3.52 -1.84,0.98 -3.68,1.98 -5.52,2.98 -3.8,0.02 -7.6,0.06 -11.42,0.1 -0.1,1.54 -0.32,4.6 -0.44,6.14 -23.5,0.54 -47.06,-0.3 -70.5,1.6 -12.7,0.5 -25.76,-2.56 -38.18,1.38 -1.8,7.18 -1.32,14.66 -1.68,21.98 21.1,-6.06 42.48,-11.3 64.18,-14.62 16.04,-1.12 32.3,-1.48 48.28,0.58 -5.82,5.18 -13.88,3.38 -20.94,4.3 -31.4,3.64 -62.9,8.66 -92.88,18.9 -1.22,11.54 -2.32,23.12 -2.3,34.76 19.7,-12.68 41.14,-22.32 61.66,-33.58 12.64,-6.26 24.9,-13.58 38.26,-18.22 3.04,-0.98 10.34,-1.38 9.2,3.54 -1.08,3.38 -5.34,4.58 -7.9,6.82 -0.36,0.96 -1.1,2.88 -1.46,3.84 -18.64,9.44 -37.38,18.68 -56.04,28.08 -14.1,7.02 -28.46,13.74 -41.44,22.74 -6.78,3.88 -5.68,12.62 -6.82,19.24 -1.7,25.44 -6.42,50.7 -6.5,76.22 4.74,-5.1 7.7,-11.5 11.68,-17.18 10.48,-15.06 20.56,-30.4 29.94,-46.18 5.1,-8.66 13.14,-14.88 19.52,-22.5 15.2,-18.02 29.84,-36.58 47.04,-52.76 8.04,-7.36 14.8,-16.72 24.92,-21.4 3.5,-2.18 6.52,1.22 9.5,2.68 -13.68,10.6 -24.94,23.8 -36.12,36.9 -17.18,20.16 -36.36,38.82 -50.62,61.28 -4.96,8.3 -13.18,13.98 -17.94,22.42 -11.86,19.42 -23.4,39.04 -34.54,58.88 -2.04,1.94 -4.14,3.86 -6.3,5.7 -4.04,1.36 -9.34,2.92 -12.22,-1.34 1.44,-1.98 2.86,-3.96 4.28,-5.94 -1.66,-0.1 -5,-0.3 -6.66,-0.42 -3.02,-19.34 -4.22,-38.88 -5.28,-58.4 0.22,-4.32 -2.58,-7.6 -5.82,-10.02 -0.24,-3.18 -0.46,-6.34 -0.66,-9.5 -4.12,1.58 -7.34,4.5 -8.92,8.68 3.26,12.84 4.18,26.12 7.12,39.04 1.94,8.02 0.9,16.28 1.28,24.4 2.3,4.56 5.84,8.3 8.88,12.34 -4.2,-1.74 -8.48,-3.32 -12.76,-4.84 -7.28,-2.28 -12.54,-8.52 -19.9,-10.58 -4.78,-2.04 -9.18,1.54 -13.52,3.08 -1.64,-1.46 -3.3,-2.92 -4.94,-4.36 8,-11.64 23.58,-6.88 33.64,-0.86 -2.5,-6.32 -3.94,-12.96 -5.22,-19.6 -1.9,-9.82 -5.88,-19.06 -8.9,-28.54 -4.04,3.12 -7.92,10.36 -13.92,7.02 -2.94,-2.34 -5.1,-5.46 -7.5,-8.32 4.88,-4.68 10.38,-8.72 14.98,-13.68 1.62,-1.88 0.32,-4.5 0.04,-6.6 C 148.14,493.2 142.5,477 138.3,460.4 c -7.72,-0.68 -14.32,3.9 -21.04,6.98 -10.52,5.4 -21.46,10.08 -31.58,16.24 15.4,19.2 26.14,41.4 37.84,62.9 -2.96,-0.92 -5.56,-2.54 -7.74,-4.7 -2.04,-1.12 -4.08,-2.2 -6.12,-3.26 -7.8,-18.6 -20.86,-34.46 -33.1,-50.28 -2.64,5.5 -9.68,4.58 -13.72,8.54 -4.48,3.76 -9.96,6.9 -15.68,3.56 9.34,-5.24 15.86,-13.9 24.52,-20.02 -11.42,-15.02 -22.96,-29.98 -36.24,-43.42 5.12,-0.66 9.98,1.18 14.74,2.82 8.58,10.68 17.8,20.84 26.4,31.52 3.4,5.12 9.76,1.4 13.92,-0.56 13.38,-7.18 27.58,-12.54 41.34,-18.86 3.62,-1.38 0.72,-5.48 0.16,-7.92 -5.36,-11.68 -9.5,-24.06 -17,-34.64 -5.24,-12.32 -9.84,-24.92 -14.8,-37.38 -6.48,-0.78 -9.46,-6.44 -11.76,-11.82 -9.52,-19.42 -20.48,-38.12 -32.52,-56.08 -8.64,-12.78 -14.28,-27.64 -25.54,-38.54 5.8,-2.26 12.16,-3.72 18.36,-2.5 20.22,23.56 36.24,50.36 51.26,77.46 2.7,4.48 6.3,8.4 8.54,13.18 7.48,16.3 14.68,32.74 21.42,49.36 9.18,-2.74 18.5,-4.92 27.72,-7.48 0.1,-5.92 0.06,-11.88 -0.9,-17.74 -2.94,-17.42 -4.98,-34.96 -7.84,-52.4 -2.34,-15.36 -3.36,-31.08 -8.24,-45.92 -6.6,-1.98 -14.3,-2.16 -19.4,-7.38 6.1,-0.88 12.26,-0.94 18.4,-0.92 -2.28,-6.48 -4.84,-12.98 -5.2,-19.92 3.74,1.22 7.44,2.64 11.06,4.22 -0.74,6.4 -0.1,13.66 4.02,18.84 5.06,2.58 10.64,4.22 16.32,4.54 9.5,0.16 17.06,6.8 25.64,10.02 20.56,10.78 42.56,18.78 62.16,31.36 8.02,4.8 16.14,9.5 24,14.6 -0.38,-6.5 -0.5,-14.04 -6,-18.54 -12.62,-11.44 -24.86,-23.28 -37.52,-34.68 -23.2,-23.02 -50.08,-41.86 -75.2,-62.66 -24.46,-18.3 -49.5,-35.88 -74.2,-53.84 -20.18,-13.36 -41.02,-25.7 -61.18,-39.04 -4.64,-1.8 -0.04,-5.58 1.62,-7.88 19.52,12.54 40.06,23.38 60.28,34.72 2.78,-0.88 5.56,-1.76 8.36,-2.6 32.24,25.64 64.54,51.26 96.72,76.98 0.22,-1.04 0.64,-3.12 0.86,-4.16 1.62,0.02 4.86,0.02 6.48,0.02 6.86,7.5 15.46,13.04 22.92,19.86 21.8,17.98 41.68,38.12 63.14,56.48 -25.46,-35.36 -52.02,-69.96 -80.06,-103.3 -8.52,-10.66 -20.04,-18.12 -29.7,-27.58 4.2,-2.04 8.52,-3.82 12.94,-5.36 19.32,14.44 33.96,33.98 48.94,52.64 5.56,8.5 14.54,13.7 20.92,21.46 0.1,1.18 0.26,3.52 0.34,4.7 12.34,14.9 25.6,28.98 38.28,43.56 -3.66,-8.42 -4.58,-17.84 -9.46,-25.74 -5.5,-12.26 -10.94,-24.56 -17.94,-36.06 C 246.32,187.28 224.32,150.8 200.1,115.76 188.16,98.12 175.04,81.2 160.28,65.84 c -6.2,-6 -11.88,-13.18 -20.44,-15.86 -0.58,-1.08 -1.72,-3.26 -2.3,-4.34 z"
     id="path8"
     inkscape:connector-curvature="0"
     style="fill:#f3722b" />
  <path
     d="m 669.76,51.86 c 6.22,-1.54 11.1,-5.86 16.36,-9.24 2.12,2.18 5.58,3.94 5,7.54 0.7,3.6 -2.88,5.62 -5.06,7.78 -21.04,16.66 -40.14,35.58 -58.72,54.88 7.12,10.26 11.94,21.8 16.84,33.24 8.74,-6.66 17.08,-13.94 26.82,-19.12 -0.1,2.22 0.14,4.78 -1.9,6.3 -6.64,6.74 -14.8,11.88 -21.1,18.98 2.14,9.44 7.72,17.66 11.18,26.66 2.06,3.82 2.74,8.94 6.74,11.3 20.64,-18.74 38.74,-40.66 62.1,-56.26 3.66,-3.44 6.02,1.76 7.82,4.24 -10.62,8.6 -21.58,16.8 -31.76,25.9 -11.9,11.82 -24.18,23.28 -35.12,36.02 11.18,24.46 21.8,49.24 33.78,73.3 8.54,1 17.16,0.14 25.74,0.36 -4.92,-18.66 -12.16,-36.82 -22.84,-52.96 0.9,-2.66 1.8,-5.34 2.72,-8 10.8,9.1 14.9,23.38 21.26,35.54 0.8,0.64 2.4,1.9 3.2,2.54 -7.96,-23.1 -9.32,-48 -18.54,-70.72 -1.42,-2.82 -1.66,-5.92 -0.84,-8.96 4.06,4.6 7.68,9.82 13.28,12.74 4.86,28.82 16.64,55.82 22.04,84.5 2.7,18.14 6.74,36.06 9.12,54.24 3.52,10 2.48,21.88 9.02,30.6 7.8,2.18 16.56,-0.28 24.72,0.24 -0.18,-8.1 -0.16,-16.2 -0.28,-24.28 0.42,-0.08 1.26,-0.24 1.68,-0.3 1.34,-33.74 4.66,-67.4 7.16,-101.08 0.42,-15.44 4.9,-30.72 2.86,-46.22 -3.42,-16.48 -11.96,-31.78 -12.52,-48.86 1.96,0.16 3.96,0.34 5.94,0.5 4.32,12.32 0.48,27.34 9.68,37.74 1.58,-8.62 2.4,-17.36 3.16,-26.08 2,-0.04 3.98,-0.08 5.98,-0.12 0.96,18.56 -5.42,36.98 -1.92,55.5 3.44,14.32 9.24,28.06 11.32,42.72 2.98,19.74 6.64,39.44 8.52,59.34 0.56,4.04 1.18,8.06 1.76,12.1 -1.88,0.3 -3.72,0.62 -5.56,0.92 -0.1,-7.84 -2.28,-15.56 -1.6,-23.42 -4.72,-22.26 -4.32,-45.48 -11.68,-67.18 -1.12,-4.16 -2.14,-8.34 -3.2,-12.5 -0.58,0.06 -1.7,0.18 -2.28,0.24 -2.76,29.18 -2.06,58.5 -4.3,87.7 -1.46,12.54 1.4,25.14 -0.5,37.68 -0.7,17.36 -3.4,34.68 -1.72,52.06 0.38,17.46 -1.64,34.88 -1.32,52.36 -2.5,20.38 0.4,40.88 -2.48,61.26 -2.44,-2.88 -4.9,-5.74 -7.38,-8.56 -0.12,-14.02 0.9,-28.08 -1.08,-42.04 -0.78,-32.36 -0.3,-64.76 -0.36,-97.14 -7.78,4.32 -17.54,2.24 -25,6.7 3.18,16.54 5.92,33.18 10.1,49.52 0.72,14 3.04,27.82 4.74,41.7 -0.7,18.54 7.9,36.18 5.22,54.82 -0.64,0.6 -1.94,1.82 -2.58,2.42 -3.02,-14.48 -10.6,-27.62 -11.98,-42.54 -0.68,-11.5 -3.18,-22.76 -4.14,-34.22 -1.1,-10.06 -2.5,-20.06 -4.08,-30.04 -2.08,-13.74 -2.98,-27.76 -7.5,-41 -4.56,0.8 -9.14,1.56 -13.72,2.28 0.1,8.76 4.86,16.46 7.34,24.66 2.68,8.72 6.26,17.16 8.66,25.96 1.02,16.76 2.7,33.52 5.34,50.12 -5.44,-13.38 -8.72,-27.48 -13.02,-41.22 -5.38,-18.82 -11.48,-37.46 -16.48,-56.38 -7.8,0.06 -15.3,2.3 -22.68,4.54 8.98,7.22 10.12,19.46 16.2,28.7 4.66,12.02 11.78,23.02 14.88,35.64 7.54,24.6 21.66,46.76 27.32,71.98 1.58,5.94 6.4,11.44 5.28,17.84 -5.96,0.34 -11.32,-2.82 -17.18,-3.32 -20.84,-21.3 -40.16,-44.02 -59.52,-66.66 -13.82,-16.36 -30.08,-30.36 -45.42,-45.22 -0.2,-1.08 -0.6,-3.24 -0.8,-4.32 -10.22,-7.06 -20.78,-13.86 -29.4,-22.9 -6.84,-6.96 -16.66,-9.66 -23.76,-16.28 -6,-5.38 -12.62,-9.98 -19.08,-14.76 -4.34,-3.14 -8.38,-7.5 -14.1,-7.72 -9.8,-11.2 -21.98,-19.92 -34.9,-27.16 -4.16,-1.26 -5.92,4.04 -7.24,6.96 -7.1,18.9 -12.78,38.48 -15.44,58.54 -2.16,10.02 -3.78,20.16 -3.78,30.44 6.68,-0.3 13.52,1.44 20.06,0.22 11.6,-20.14 16.16,-43.64 28.7,-63.38 2.1,2.08 5.28,3.44 6.48,6.26 -0.4,2.04 -1.08,4 -2,5.86 -8.48,17.24 -17.12,34.5 -23.66,52.6 4.62,2.4 9.76,3.1 14.92,3.24 9.9,-9.58 18.96,-20.02 29.54,-28.9 5.48,-4.4 10.2,-11.12 17.96,-11.02 -1,3.68 -3.54,6.46 -6.56,8.64 -12.44,9.68 -23.78,20.68 -34.32,32.38 5.32,1.66 11.7,6.24 16.92,2.04 14.06,-10.02 28.96,-18.68 43.72,-27.62 3.68,2.22 7.36,4.44 11.04,6.68 -0.6,0.6 -1.8,1.8 -2.4,2.4 -16.48,3.68 -28.28,16.82 -42.92,24.34 7.32,4.22 15.76,4.98 23.76,7.06 25.32,12.64 52.76,21.52 75.82,38.34 21.52,15.1 45.28,28.14 62.84,48.04 -3.62,0.16 -7.72,0.9 -10.56,-1.96 -13.58,-11.38 -27.58,-22.42 -42.92,-31.4 -22.22,-14.4 -44.5,-29.3 -69.6,-38.26 -15.2,-6.88 -31.08,-12.66 -47.46,-15.74 -11.1,4.78 -17.98,16.84 -30.56,18.62 -1.12,1.98 -2.24,3.96 -3.34,5.96 -3.46,-0.64 -6.86,-1.52 -10.16,-2.7 9.02,-9.84 20.26,-17.2 30.56,-25.56 -9.7,-1.7 -18.96,-5.56 -28.76,-6.26 -2.12,5.7 -4.1,11.46 -5.22,17.46 -2.98,3.12 -6.4,5.72 -10.98,4.6 -2.88,2.18 -5.74,4.86 -9.66,3.66 8.04,-7.3 14.2,-16.6 15.56,-27.6 -5.6,-0.08 -11.2,-0.02 -16.78,0.12 0.74,4.62 1.58,9.34 0.36,13.96 -2.02,-0.1 -4.04,-0.2 -6.06,-0.3 -0.9,-0.78 -2.7,-2.32 -3.6,-3.08 -0.14,-3.66 -0.28,-7.32 -0.4,-10.96 -11.68,-0.32 -23.36,0.06 -35.04,0.16 8.84,10.32 17.76,20.58 25.84,31.52 2.08,2.68 2.58,6.12 3.74,9.24 4.4,10.32 10.8,19.62 16.22,29.44 2.72,6.56 10.9,6.08 16.3,9.26 1.96,-1.34 3.54,-3.22 5.74,-4.2 8.76,7.2 16.74,15.3 25.22,22.82 -7.16,1.9 -14.26,4.04 -21.5,5.56 -6.56,-4.02 -11.12,-10.68 -17.22,-15.4 2.72,5.5 5.68,10.88 8.9,16.12 -3.48,2.14 -7.1,4.06 -10.8,5.8 -3.2,-5.28 -7.22,-10.02 -10.34,-15.32 -0.96,-3.68 3.32,-4.16 5.66,-5.56 -2.66,-3.42 -5.44,-6.72 -7.94,-10.26 -0.46,-0.96 -1.38,-2.9 -1.84,-3.86 -0.98,-2.3 -1.94,-4.6 -2.88,-6.9 -5.18,-10.48 -11.36,-20.46 -17.36,-30.5 -16.18,-26.38 -37.94,-49.4 -63.38,-67.04 -5.48,-3.94 -11.96,-6.24 -18.64,-6.92 -2.88,-2.7 -5.68,-5.5 -8.36,-8.4 18.48,-1.86 34.12,9.82 47.72,20.72 8.54,6 15.36,13.96 22.64,21.36 7.86,-4.06 16.78,-3.46 25.34,-3.4 -3.7,-26.06 -4.66,-52.8 1.5,-78.58 -23.24,6.32 -44.7,17.46 -66.3,27.78 -8.78,4.84 -17.96,13.44 -28.64,8.1 2.62,-2.2 5.28,-4.34 7.9,-6.54 9.38,-8.88 22.56,-12.64 32.44,-21.08 -2.08,-2.9 -4.14,-5.82 -6.22,-8.72 -8.68,6.58 -17.06,13.72 -23.86,22.3 -3.4,5.56 -10.46,2.58 -15.68,2.54 1.14,-4.46 1.54,-9.06 0.1,-13.5 7.86,-10.22 17.84,-18.76 24.92,-29.6 0.26,-3.96 -4.86,-12.22 -9.16,-7.56 -9.8,14.04 -14.68,30.74 -22.54,45.82 -1.26,4.14 -7.96,4.26 -10.24,1.06 -1.24,-24.38 0.82,-48.82 5.54,-72.78 0.66,-5.2 3.54,-11.52 -1.14,-15.7 -20.22,-22.52 -41.38,-44.44 -65.62,-62.68 -2.42,-1.76 -4.5,-3.94 -6.48,-6.16 3.76,0.16 8.46,-1.86 11.34,1.58 22.46,18.02 43.54,37.76 62.54,59.42 1.12,1.52 3.02,1.98 4.66,2.72 2.1,-15.58 7.44,-30.46 10.92,-45.74 5.44,-24.14 14.66,-47.24 24.94,-69.7 2.9,-6.14 6.22,-12.12 10.14,-17.68 8.16,-11.7 12.9,-25.44 21.32,-36.96 4.26,-2.64 8,2.88 11.64,4.56 -8.5,15.92 -17.54,31.58 -25.38,47.84 -18.34,41.46 -31.14,85.08 -43.96,128.48 0.2,6 6.48,10.2 9.8,14.96 10.08,-19.34 20.04,-38.9 26.94,-59.64 6.38,-24.82 20.36,-46.48 31.58,-69.24 8.12,-14.52 16.16,-29.1 24.48,-43.52 13.64,-19.88 26.42,-40.34 40.76,-59.74 3.1,-0.52 6.2,-1.08 9.3,-1.64 3.28,-3.62 6.66,-7.14 10.28,-10.4 0,1 0.02,3.02 0.04,4.02 -5.14,7.4 -12.1,13.32 -17.44,20.56 -12.12,16.04 -24.88,31.84 -34.1,49.8 -10.32,19.4 -21.76,38.44 -29.1,59.22 -9.16,15.14 -14.48,32.16 -21.58,48.28 13.96,-17.9 29.22,-34.72 44.22,-51.72 8.54,-8.84 15.6,-19.2 25.56,-26.58 6.14,-4.48 10.82,-10.54 16.64,-15.36 11.02,-9.04 22.04,-18.14 33.78,-26.24 2.68,-2.18 6.58,-2.72 9.62,-0.98 -0.4,2.76 -3.62,3.7 -5.36,5.54 -6.94,5.62 -13.38,11.82 -20.58,17.12 -29.86,24.34 -52.58,55.76 -76.58,85.54 -13.8,17.06 -26.16,35.22 -38.76,53.18 -7.34,10 -14.74,20.1 -20.36,31.18 0.4,5 5.06,8.64 7.5,12.84 15.76,-18.5 30.38,-38.16 48.26,-54.74 5.88,-5.36 11.58,-10.94 17,-16.78 11.48,-13.76 24.38,-26.24 37.34,-38.6 -1.7,-2.56 -2.64,-5.44 -2.84,-8.5 3.96,0.34 9.04,3.76 12.5,0.24 22.88,-20.54 43.06,-43.94 66.82,-63.52 6.88,-5.28 15.74,-8.86 19.58,-17.2 -3.64,-6.22 -8.3,-11.74 -12.2,-17.78 7.84,-0.14 16.86,0.34 21.44,7.8 15.52,-17.7 31.12,-35.36 47.42,-52.36 z"
     id="path10"
     inkscape:connector-curvature="0"
     style="fill:#f3722b" />
  <path
     d="m 917.48,70.56 c 3.68,1.06 7.4,2.1 11.12,3.12 -8.24,29.14 -13.06,59.08 -21.2,88.24 -7.06,31.46 -15.9,62.46 -24.2,93.6 -3.4,14.6 -7.34,29.06 -11.96,43.32 11.22,-16.56 20.44,-34.36 30.26,-51.76 2.36,-0.66 4.72,-1.32 7.12,-1.96 3.06,-6.44 7.66,-12.34 9.14,-19.42 0.84,-3.02 -1.86,-5.2 -3.16,-7.56 17.74,-26.46 34.96,-53.28 52.6,-79.82 2.74,1.14 5.5,2.28 8.28,3.38 -0.06,2.78 0.56,5.82 -1.34,8.18 -15.06,23.04 -30.32,46 -45.18,69.2 -6.08,8.2 -12.08,16.66 -15.56,26.34 -1.7,14.46 -12.74,25.2 -17.52,38.6 7.7,-7.68 16.48,-14.22 24.08,-22.02 3.36,-3.4 7.16,-6.32 11.14,-8.94 14.54,-9.42 28.3,-19.98 43.16,-28.92 10.38,-6.32 21.38,-15.2 34.36,-12.82 -7.16,4.7 -15.1,8.12 -22.2,12.9 -24.62,17.9 -49.9,35.1 -72.08,56.04 -9.86,8.16 -20.3,16.12 -26.76,27.46 -7.58,12.9 -17.7,24.22 -23.9,37.94 -8.44,17.4 -17.3,34.58 -25.92,51.9 -7.2,16.78 -12.74,34.3 -16.34,52.2 -0.82,4.28 -2.32,8.38 -3.9,12.42 0.3,1.5 0.92,4.5 1.22,6.02 -2.38,0.3 -5.26,2.28 -6.98,-0.42 0.68,-9.96 2.82,-19.72 4.5,-29.52 2.04,-19.8 7.3,-39.2 14.4,-57.74 0.5,-2.24 2.58,-5.02 0.48,-7.08 -4.78,-7.26 -11.04,-13.36 -17.46,-19.16 -1.98,-1.56 -2.92,-3.88 -3.7,-6.18 10.26,4.62 17.18,14.06 24.22,22.44 3.6,-8.42 8.42,-16.24 12.32,-24.48 1.08,-21.82 0.26,-43.72 1.44,-65.54 2,-14.14 1.24,-28.44 -0.42,-42.56 -0.3,-30 -3.52,-59.86 -3.26,-89.86 -2.28,-20.04 -2,-40.24 -4.26,-60.26 -0.28,-3.06 0.14,-6.12 0.38,-9.16 4.02,-0.52 8.1,-0.74 12.18,-0.48 1.9,34.46 2.72,68.98 4.96,103.44 2.28,17.02 0.42,34.28 2.62,51.3 1.64,14.38 -0.16,29 2.44,43.26 15.72,-57.82 30.5,-115.88 45.94,-173.76 3.04,-10.6 4.84,-21.6 8.94,-31.88 z"
     id="path12"
     inkscape:connector-curvature="0"
     style="fill:#f3722b" />
  <path
     d="m 749.94,111.26 c 3.84,0.24 9.22,-0.92 11.32,3.34 3.44,7.12 4.24,15.12 6.06,22.72 2.14,10.88 6.72,21.22 7.68,32.34 1.9,18.8 7.6,37.26 6.62,56.32 -1.1,-0.3 -3.3,-0.86 -4.4,-1.16 -2.68,-13.1 -3.04,-26.7 -6.84,-39.54 -7.04,-14.7 -9.28,-31.02 -14.9,-46.24 -3.42,-8.88 -5.8,-18.18 -5.54,-27.78 z"
     id="path14"
     inkscape:connector-curvature="0"
     style="fill:#f3722b" />
  <path
     d="m 593.86,155.98 c 7.78,-11.56 15.4,-23.2 24.4,-33.86 7.1,9.12 14.8,18.24 18.7,29.28 -19.76,18.12 -37.26,38.48 -54.68,58.8 -6.48,7.54 -11.9,15.96 -19.06,22.92 -4.96,-4.88 -9.8,-9.88 -14.52,-14.98 1.96,-3.82 3.92,-7.66 6.38,-11.18 12.36,-17.42 24.82,-34.8 38.78,-50.98 z"
     id="path16"
     inkscape:connector-curvature="0"
     style="fill:#3e3e3e" />
  <path
     d="m 726.98,151.7 c 2.38,-0.7 4.76,-1.42 7.16,-2.12 7.56,9.56 12.06,21.22 16.08,32.62 -2.06,7.7 1.7,15.2 0.28,22.88 -2.24,-3.26 -4.14,-6.76 -5.48,-10.48 -4.54,-12.04 -10.28,-23.58 -16.16,-35 -1.4,-2.42 -1.72,-5.18 -1.88,-7.9 z"
     id="path18"
     inkscape:connector-curvature="0"
     style="fill:#f3722b" />
  <path
     d="m 576.44,230.2 c 19.8,-24.82 38.22,-51.44 64.02,-70.62 6.08,11 10.3,22.92 15.86,34.2 3.62,5.74 -2.08,10.88 -5.24,15.22 -12.02,-0.42 -23.04,5 -34.54,7.62 -2.56,-2.62 -5.1,-5.24 -7.62,-7.9 -2.7,0.38 -6.46,-0.92 -7.72,2.38 2.5,3.12 5.32,5.98 8.1,8.86 -11.42,1.74 -22.36,5.52 -32.86,10.24 z"
     id="path20"
     inkscape:connector-curvature="0"
     style="fill:#3e3e3e" />
  <path
     d="m 531.8,203.56 c 4.42,-6.2 10.2,-11.28 16.48,-15.58 -2.82,6.82 -7.02,12.92 -10.82,19.2 -1.88,-1.2 -3.78,-2.4 -5.66,-3.62 z"
     id="path22"
     inkscape:connector-curvature="0"
     style="fill:#3e3e3e" />
  <path
     d="m 524.66,208.9 c 2.24,2.18 4.46,4.38 6.7,6.58 -6.48,14.1 -11.4,28.9 -19.1,42.46 -7.68,4.86 -15.84,8.8 -24.38,11.86 -22.58,15.1 -42.76,33.52 -65.64,48.26 5.46,-5.22 10.84,-10.56 15.22,-16.72 15.16,-18.12 32.86,-33.84 48.62,-51.38 11.1,-10.92 21.4,-22.64 32.96,-33.1 2.42,-2.24 3.98,-5.16 5.62,-7.96 z"
     id="path24"
     inkscape:connector-curvature="0"
     style="fill:#3e3e3e" />
  <path
     d="m 634.86,238.92 c 8.06,-11.38 17.8,-21.42 27.18,-31.72 10.32,22.06 21.14,43.96 30.2,66.56 -11.66,0.3 -23.46,1.7 -34.98,-0.82 -8.52,-10.72 -12.16,-24.62 -22.4,-34.02 z"
     id="path26"
     inkscape:connector-curvature="0"
     style="fill:#3e3e3e" />
  <path
     d="m 622.54,222.9 c 7.42,-3.56 15.34,-5.88 23.14,-8.44 -4.94,6.18 -10.26,12.04 -15.6,17.9 -2.52,-3.16 -5.04,-6.3 -7.54,-9.46 z"
     id="path28"
     inkscape:connector-curvature="0"
     style="fill:#3e3e3e" />
  <path
     d="m 542.04,226.5 c 4.08,3.8 8.18,7.76 10.52,12.94 -7.3,3.32 -14.48,6.88 -21.76,10.26 3.26,-7.96 7.34,-15.54 11.24,-23.2 z"
     id="path30"
     inkscape:connector-curvature="0"
     style="fill:#3e3e3e" />
  <path
     d="m 573.68,241.88 c 13.52,-4.94 26.4,-11.8 40.4,-15.36 4.64,2.5 7.24,7.66 10.64,11.56 -7.8,11.66 -15.58,23.34 -24.36,34.28 -6.84,-11.96 -19.82,-18.62 -26.68,-30.48 z"
     id="path32"
     inkscape:connector-curvature="0"
     style="fill:#3e3e3e" />
  <path
     d="m 627.2,247.06 c 0.68,-0.26 2.04,-0.76 2.72,-1.02 6.02,8.62 11.66,17.56 17.38,26.4 -6.42,1.38 -12.96,1.98 -19.52,1.98 -7.84,-0.08 -15.22,2.76 -22.78,4.42 8.2,-10.04 13.84,-21.9 22.2,-31.78 z"
     id="path34"
     inkscape:connector-curvature="0"
     style="fill:#3e3e3e" />
  <path
     d="m 536.52,297.74 c 8.5,-15.76 16.84,-31.76 27.34,-46.32 3.52,5.84 6.58,12.08 11.32,17.06 2.08,-1.48 4.16,-2.94 6.26,-4.4 5.12,5.04 10.42,9.9 15.58,14.88 -6.44,4.72 -14.64,5.24 -22.06,7.5 -9.08,2.12 -17.56,6.96 -27.1,6.76 -4.34,-0.3 -7.82,2.48 -11.34,4.52 z"
     id="path36"
     inkscape:connector-curvature="0"
     style="fill:#3e3e3e" />
  <path
     d="m 522.88,269.14 c 7.48,-5.52 16.52,-8.46 24.76,-12.68 -7.94,14.8 -13.82,30.6 -21.8,45.38 -3.66,6.92 -10.7,-0.4 -15.56,-2 3.54,-10.46 7.22,-21.04 12.6,-30.7 z"
     id="path38"
     inkscape:connector-curvature="0"
     style="fill:#3e3e3e" />
  <path
     d="m 662.84,281.74 c 10.02,-0.44 20.24,0.38 30.04,-2.16 8.42,6.5 9.96,18.26 15.08,27.16 -8.82,3.46 -17.42,7.46 -26.3,10.8 -4.18,-13.02 -13.28,-23.42 -18.82,-35.8 z"
     id="path40"
     inkscape:connector-curvature="0"
     style="fill:#3e3e3e" />
  <path
     d="m 705.78,280.52 c 8.48,0.06 16.96,-0.52 25.26,-2.26 2.56,6.12 4.86,12.34 7.06,18.58 -6.78,2.36 -13.58,4.72 -20.5,6.56 -6.22,-5.86 -7.84,-15.42 -11.82,-22.88 z"
     id="path42"
     inkscape:connector-curvature="0"
     style="fill:#3e3e3e" />
  <path
     d="m 963.62,307.6 c 8.38,-9.46 17.48,-18.84 29.06,-24.28 1.04,0.04 3.1,0.12 4.12,0.16 -11.86,9.8 -26.24,17.92 -33.48,32.1 7.52,-4.2 13.4,-10.84 21.3,-14.4 8.4,-3.82 16.7,-7.88 25.2,-11.5 1.38,0.74 4.16,2.24 5.54,2.98 -15.94,7.34 -29.78,18.32 -43.8,28.74 -30.64,18.56 -53.34,46.82 -77.68,72.5 -15.54,15.56 -27.72,34.06 -39.2,52.68 -9.84,12.52 -16.04,27.28 -23.38,41.28 31.28,-24.94 64.84,-46.82 98.86,-67.8 2.14,-1.64 4.8,-1.64 7.34,-1.08 -2.98,2.4 -6.26,4.62 -8.08,8.1 10.64,-2.58 20.08,-12.28 31.56,-9.48 -8.72,5.34 -18.14,9.38 -27.12,14.26 -14.12,6.48 -26.58,15.86 -39.84,23.84 -1.78,2.8 -3.58,5.74 -6.6,7.36 -16.78,10.18 -32.28,22.44 -46.44,36 -7.66,8.46 -18.08,13.66 -25.76,22.12 -2,2.9 -5.54,2.02 -8.52,2.14 -0.54,-16.34 7.5,-31.34 15.44,-45.1 5.22,-10.02 12.22,-18.96 17.32,-29.04 5.56,-10.56 12.86,-20.06 19.04,-30.24 2.02,-3.4 4.74,-6.28 7.56,-9.02 -0.58,-1.72 -1.14,-3.46 -1.7,-5.18 4.06,-2.8 7.74,-6.14 10.88,-9.96 25.96,-36.7 59.14,-67.3 88.5,-101.12 2.34,-2.38 4.88,-6.24 8.78,-4.5 -15.52,18.78 -32.6,36.18 -49.18,53.98 -12.22,14.2 -25.9,27.14 -36.38,42.76 2.66,-1.56 5.06,-3.52 7.2,-5.76 13.58,-13.74 26.08,-28.46 39.8,-42.06 10.22,-9.84 18.98,-21.12 29.66,-30.48 z"
     id="path44"
     inkscape:connector-curvature="0"
     style="fill:#f3722b" />
  <path
     d="m 429.64,333.62 c 21.3,-18.42 45.18,-33.54 67.62,-50.46 -4.42,8.28 -6.18,17.52 -7.42,26.74 -1,3.12 -0.58,8.08 -4.44,9.22 -17.72,5.48 -32.76,16.76 -49.44,24.54 -2.08,-3.36 -4.2,-6.72 -6.32,-10.04 z"
     id="path46"
     inkscape:connector-curvature="0"
     style="fill:#3e3e3e" />
  <path
     d="m 617.52,291.54 c 11.74,-3.62 24.04,-5.66 36.22,-7.16 5.48,4.72 8.12,11.84 12.26,17.66 12.82,18.98 25.02,38.42 34.72,59.22 6,10.46 8.78,22.22 12.28,33.64 11.8,24.48 23.58,49.06 33.98,74.16 0.34,7.54 4.22,14.32 4.42,21.84 -3.66,-3.4 -7.2,-6.94 -10.02,-11.06 -0.78,0.72 -2.32,2.18 -3.1,2.9 -13.8,-15.82 -27.06,-32.16 -43.02,-45.92 -13.46,-14.02 -28.94,-25.76 -43.56,-38.48 -11.04,-11.24 -24.66,-19.42 -36.52,-29.72 -5.1,-4.34 -11.52,-6.74 -16.72,-10.96 -14.46,-11.3 -30.48,-20.28 -46.04,-29.9 -2.84,-1.46 -3.98,-4.52 -5.48,-7.1 -1.78,-1.16 -3.54,-2.3 -5.32,-3.42 0.54,-0.82 1.58,-2.5 2.12,-3.32 12.72,-4.66 25.86,-8.12 38.54,-12.92 -4.42,6.96 -8.46,14.16 -12.58,21.3 2.28,1.92 4.56,3.82 6.86,5.74 7.82,-9.24 10.86,-21.62 19,-30.58 4.6,-1.86 11.76,-5.9 15.18,-0.16 11.32,14.02 23.36,27.48 33.68,42.26 16,16.14 30.8,33.62 43.54,52.48 3.54,4.56 4.06,10.48 6.56,15.52 14.76,23.42 29.04,47.16 43.08,71.02 2.34,-1.12 3.9,-4.18 2.28,-6.62 -1.4,-5.8 -5.58,-10.4 -7.34,-16.06 -2.86,-9.66 -10.1,-16.98 -14.82,-25.68 -5.42,-10.26 -13.62,-18.68 -18.92,-29.02 -3.96,-7.96 -10.24,-14.58 -13.44,-22.96 -1.88,-4.96 -6.2,-8.22 -9.7,-11.96 -8.22,-8.66 -14.44,-18.94 -21.52,-28.5 -14.02,-13.9 -24.42,-30.82 -36.62,-46.24 z"
     id="path48"
     inkscape:connector-curvature="0"
     style="fill:#3e3e3e" />
  <path
     d="m 384.12,286.44 c 3.04,2.86 6.26,5.58 8.66,9.02 1.38,3.24 -0.86,6.36 -2.14,9.22 -4.94,8.92 -9,18.3 -14.12,27.14 0.46,-8.02 1.32,-16.06 3.52,-23.8 1.48,-1.58 3.48,-2.52 5.28,-3.68 -0.6,-1 -1.82,-2.98 -2.44,-3.96 0.38,-4.66 0.76,-9.3 1.24,-13.94 z"
     id="path50"
     inkscape:connector-curvature="0"
     style="fill:#3e3e3e" />
  <path
     d="m 718.78,309.76 c 6.8,-3.4 13.78,-6.44 20.98,-8.9 2.08,8.62 6.84,16.28 8.84,24.9 2.16,8.4 4.22,16.8 6.42,25.2 -6.2,0.66 -12.44,0.88 -18.66,0.78 -4.94,-14.36 -11.08,-28.26 -17.58,-41.98 z"
     id="path52"
     inkscape:connector-curvature="0"
     style="fill:#3e3e3e" />
  <path
     d="m 506.8,310.92 c -2.54,-2.56 1.82,-6.7 4.24,-3.96 2.52,2.56 -1.86,6.4 -4.24,3.96 z"
     id="path54"
     inkscape:connector-curvature="0"
     style="fill:#3e3e3e" />
  <path
     d="m 701.44,317.36 c 3.52,-1.36 9.48,-6.04 11.38,-0.2 5.66,12.48 11.42,24.92 16.96,37.46 -8.34,2.16 -16.72,4.26 -25.3,5.26 -5.74,-11.34 -11.7,-22.56 -17.78,-33.72 3.24,-4.76 9.96,-5.76 14.74,-8.8 z"
     id="path56"
     inkscape:connector-curvature="0"
     style="fill:#3e3e3e" />
  <path
     d="m 501.08,333.38 c 1.34,-7.6 11.06,-7.16 16.64,-9.9 -7.04,5.4 -7.38,14.72 -9.98,22.48 -4.8,15.94 -8.66,32.12 -11.44,48.5 l -2.6,3.56 c -2.04,-9.9 -0.4,-19.88 1.04,-29.72 0.58,-11.88 3.74,-23.38 6.34,-34.92 z"
     id="path58"
     inkscape:connector-curvature="0"
     style="fill:#3e3e3e" />
  <path
     d="m 661.46,328.18 c 3.14,-1.38 6.32,-2.72 9.52,-3.98 1.48,2 2.98,4 4.48,6 -2.64,1.74 -5.28,3.48 -7.9,5.24 -2.08,-2.4 -4.12,-4.8 -6.1,-7.26 z"
     id="path60"
     inkscape:connector-curvature="0"
     style="fill:#f3722b" />
  <path
     d="m 895.44,331.36 c 1.06,-2.54 3.84,-2.36 6.14,-2.72 -5.66,10.08 -12.6,19.44 -17.22,30.1 -0.62,2.46 -3.02,2.4 -5,2.14 3.56,-10.72 10.08,-20.06 16.08,-29.52 z"
     id="path62"
     inkscape:connector-curvature="0"
     style="fill:#f3722b" />
  <path
     d="m 619.66,359.94 c 1.38,-7.82 10.12,-11.78 17.12,-13.54 0.3,1.28 0.88,3.84 1.18,5.12 -5.34,4.3 -10.84,9.54 -18.3,8.42 z"
     id="path64"
     inkscape:connector-curvature="0"
     style="fill:#f3722b" />
  <path
     d="m 440,361.68 c 2,-0.9 4.02,-1.74 6.08,-2.52 2.36,1.06 3.28,3.76 4.8,5.7 8.16,12.3 15.98,24.88 22.7,38.06 -1.96,0.02 -5.88,0.06 -7.84,0.08 -7.96,-14.14 -16.18,-28.18 -25.74,-41.32 z"
     id="path66"
     inkscape:connector-curvature="0"
     style="fill:#f3722b" />
  <path
     d="m 698.92,376.86 c -2.6,-3.68 -10.56,-8.52 -6.88,-13.22 3.9,3.34 6.26,8.16 6.88,13.22 z"
     id="path68"
     inkscape:connector-curvature="0"
     style="fill:#f3722b" />
  <path
     d="m 354.68,376.94 c 1.02,0.06 3.04,0.16 4.04,0.2 1.54,1.2 3.1,2.42 4.66,3.62 2.24,0.24 4.5,0.48 6.76,0.72 2.46,0.78 4.94,1.54 7.44,2.26 -0.14,6.02 -7.3,8.32 -9,13.94 1.8,16.06 8.08,32.28 3.38,48.46 -3.62,9.66 8.68,14.78 8.92,23.76 1.14,7.16 -0.24,14.3 -2.5,21.08 -3.34,1.06 -6.68,2.16 -9.98,3.32 0.1,-4.94 0.02,-10.1 2.66,-14.48 -0.78,-4.58 -1.74,-9.12 -2.72,-13.64 -7.78,-5 -11.48,-14.18 -11.22,-23.18 1.8,-1.9 3.9,-3.54 5.92,-5.22 0.04,-0.9 0.14,-2.68 0.18,-3.58 0.14,-3.16 0.26,-6.32 0.26,-9.46 -1,-0.1 -2.98,-0.28 -3.96,-0.36 -0.7,-13.36 -5.98,-25.7 -11.12,-37.84 1.84,-1 3.68,-2 5.52,-2.98 l 1.54,-0.82 c -0.2,-1.44 -0.58,-4.34 -0.78,-5.8 z"
     id="path70"
     inkscape:connector-curvature="0"
     style="fill:#f4e4c0" />
  <path
     d="m 648.52,379.58 c 4.08,-1.2 8.14,-3.5 12.54,-3.06 2.58,2.46 4.74,5.32 7.02,8.06 -2.68,1.76 -5.42,3.46 -8.18,5.1 -3.84,-3.34 -7.64,-6.68 -11.38,-10.1 z"
     id="path72"
     inkscape:connector-curvature="0"
     style="fill:#f3722b" />
  <path
     d="m 848.54,405.28 c 3.16,-8.74 5.62,-17.74 9.86,-26.06 0.3,7.48 0.22,14.98 -0.06,22.46 l 3.52,0.04 c -3.7,3.18 -8.6,3.78 -13.32,3.56 z"
     id="path74"
     inkscape:connector-curvature="0"
     style="fill:#f3722b" />
  <path
     d="m 336.98,386.64 c 3.82,-0.04 7.62,-0.08 11.42,-0.1 5.14,12.14 10.42,24.48 11.12,37.84 -1.04,0.1 -3.1,0.32 -4.14,0.44 -7.1,11.48 -16.5,21.26 -24.52,32.08 -8.54,11.44 -16.9,23.02 -25.38,34.5 -10.46,13.96 -18.68,29.38 -28.06,44.02 -6,10.38 -18.4,13.68 -26.88,21.46 6.12,2.36 12.26,0.2 18.06,-1.98 -10.12,12.38 -23.94,20.9 -34.46,32.9 2.16,-5.82 4.16,-11.68 6.08,-17.56 -8.62,7.2 -16.7,15.04 -25.36,22.24 11.14,-19.84 22.68,-39.46 34.54,-58.88 4.76,-8.44 12.98,-14.12 17.94,-22.42 14.26,-22.46 33.44,-41.12 50.62,-61.28 11.18,-13.1 22.44,-26.3 36.12,-36.9 -2.98,-1.46 -6,-4.86 -9.5,-2.68 -10.12,4.68 -16.88,14.04 -24.92,21.4 -17.2,16.18 -31.84,34.74 -47.04,52.76 -6.38,7.62 -14.42,13.84 -19.52,22.5 -9.38,15.78 -19.46,31.12 -29.94,46.18 -3.98,5.68 -6.94,12.08 -11.68,17.18 0.08,-25.52 4.8,-50.78 6.5,-76.22 1.14,-6.62 0.04,-15.36 6.82,-19.24 12.98,-9 27.34,-15.72 41.44,-22.74 18.66,-9.4 37.4,-18.64 56.04,-28.08 0.36,-0.96 1.1,-2.88 1.46,-3.84 2.56,-2.24 6.82,-3.44 7.9,-6.82 1.14,-4.92 -6.16,-4.52 -9.2,-3.54 -13.36,4.64 -25.62,11.96 -38.26,18.22 -20.52,11.26 -41.96,20.9 -61.66,33.58 -0.02,-11.64 1.08,-23.22 2.3,-34.76 29.98,-10.24 61.48,-15.26 92.88,-18.9 7.06,-0.92 15.12,0.88 20.94,-4.3 -15.98,-2.06 -32.24,-1.7 -48.28,-0.58 -21.7,3.32 -43.08,8.56 -64.18,14.62 0.36,-7.32 -0.12,-14.8 1.68,-21.98 12.42,-3.94 25.48,-0.88 38.18,-1.38 23.44,-1.9 47,-1.06 70.5,-1.6 0.12,-1.54 0.34,-4.6 0.44,-6.14 z"
     id="path76"
     inkscape:connector-curvature="0"
     style="fill:#3e3e3e" />
  <path
     d="m 392.56,390.04 c 9.96,1.1 17.88,7.82 24.9,14.42 20.46,19.84 37.22,43.68 48.14,70.06 3.44,11.74 10.66,21.82 14.7,33.34 0.86,3.36 5.42,7.64 2.26,10.78 -1.14,0.2 -3.42,0.62 -4.58,0.82 -15.4,19.86 -30.08,40.52 -41.04,63.22 -2.28,2.34 -5.18,3.96 -7.88,5.78 5.56,4.22 12.08,6.74 19.16,6.3 7.32,-19.66 16.08,-38.76 25.22,-57.62 2.46,-0.32 4.94,-0.64 7.4,-0.96 0.02,5.82 -1.24,11.54 -3.3,16.94 -3.18,3.64 -6.52,7.28 -8.5,11.74 -6.7,14.34 -11.96,29.26 -17.62,44.02 5.66,1.48 13.06,5.28 16.9,-1.32 5.44,-4.9 12.1,-8.18 18.64,-11.4 11.98,-4.84 22.74,-12.42 35.28,-15.88 5.86,-1.58 10.96,-5.06 16.78,-6.76 6.08,-1.1 12.4,-1.62 17.96,-4.6 11.62,-5.88 24.58,-7.76 37.1,-10.7 31.7,-10.78 65.36,-13.34 97.88,-20.6 -12.92,-4.2 -26.82,-3.46 -40.1,-5.9 -18.66,-0.66 -37.36,-0.22 -56,-0.62 -29.08,4.26 -58.18,9.42 -86.28,18.22 -4.34,1.46 -8.72,-0.52 -11.72,-3.64 22.9,-12.16 48.52,-17.1 73.64,-22.44 16.1,-1.56 32.24,-2.84 48.4,-3.58 23.52,1.12 47.06,2.28 70.3,6.36 8.62,1.8 17,4.88 25.82,5.74 -5.96,-6.08 -12.36,-12.18 -20.48,-15.18 -26,-10.08 -51.86,-20.48 -77.92,-30.38 -17,-7.58 -35.72,-9.34 -53.6,-13.92 -5.86,-2.12 -13.76,0.5 -18.06,-4.9 6.02,-2.62 12.3,-0.16 18.42,0.54 22.54,2.48 44.9,6.32 67.08,10.96 28.64,7.38 55.32,20.58 81.34,34.36 10.92,5.36 20.82,12.44 31.14,18.82 5.92,3.92 14.96,7.62 12.96,16.38 -16.5,0.14 -33.06,-0.5 -49.46,1.5 -9.98,1.42 -20.18,0.3 -30.04,2.62 -27.84,4.06 -55.58,8.88 -82.56,17 0.76,1.3 2.3,3.9 3.06,5.2 -4.4,1.82 -8.72,4.4 -13.6,4.58 -2.2,-1.56 -4.22,-3.36 -6.24,-5.14 0.84,2.5 1.66,5 2.46,7.52 -3.94,1.26 -7.9,2.42 -11.9,3.42 -1.36,-2.06 -2.72,-4.1 -4.08,-6.12 -4.58,1.88 -9.7,2.82 -13.7,5.78 -0.32,2.38 -0.28,4.8 -0.62,7.18 -3.3,1.7 -6.86,2.74 -10.34,3.92 -0.72,-1.88 -1.48,-3.72 -2.3,-5.54 -5.7,0.1 -10.76,3.28 -16.06,5.04 -7.04,3.14 -14.98,1.78 -22.3,3.64 -4.88,1.7 -9.26,4.5 -14.02,6.48 -6.22,2.46 -12.34,5.26 -17.98,8.9 5.76,0.64 11.56,0.92 17.34,1.44 9.9,1.04 19.72,3.5 29.74,3.26 11.26,-5.16 22.1,-11.36 32.66,-17.8 17.78,-4.08 33.86,-13.2 51.26,-18.44 13.64,-1.94 26.5,-7.08 39.7,-10.82 14.96,-5.38 30.56,-8.68 46.2,-11.44 10.7,-1.62 21.02,-5.76 32,-5.36 8.84,0.18 19.76,-4.4 26.34,3.94 -8.18,4.46 -17.6,3.24 -26.52,3.82 -19.68,1.16 -37.96,10.56 -57.74,10.92 -10.98,2.18 -21.6,6.02 -32.8,7.24 -17.3,4.64 -33.46,12.94 -50.86,17.3 -10.86,3 -19.74,10.56 -30.64,13.46 -6.98,2.14 -13.12,6.26 -19.1,10.36 8.02,1.56 16.1,2.92 24.28,3.42 -0.14,-1.56 -0.44,-4.64 -0.58,-6.18 3.3,-1.3 6.68,-2.46 10.1,-3.4 1.86,4.7 0.8,12.06 6.44,14.2 5.56,2.66 11.08,5.42 16.46,8.46 -5.5,0.74 -11,-0.12 -16.42,-0.9 1.7,8.24 3.92,16.46 9.22,23.18 2.9,9.04 3.78,18.76 8.96,26.98 -3.26,6.88 -10.82,10.78 -15.6,16.68 -4.26,-21.98 -9.48,-43.76 -15.32,-65.38 -23.44,-5.16 -47.36,-7.96 -71.08,-11.52 -5.18,-1.08 -10.38,-2.04 -15.6,-2.8 -6.5,-0.96 -13.06,-1.4 -19.6,-1.62 -2.84,12.26 -6.42,24.34 -8.16,36.82 -0.16,4.76 -6.14,4.06 -9.24,5.58 -2.2,-15.16 7.44,-28.34 8.78,-43.04 -12.54,-3.86 -25.76,-4.08 -38.76,-3.88 -4,-0.06 -7.98,-0.14 -11.98,-0.36 -8.1,-0.68 -16.26,-1.6 -24.38,-0.58 -16.2,1.96 -32.68,-0.14 -48.78,2.88 -18.38,1.7 -36.86,-1.5 -55.24,0.32 2.26,-3.84 2.54,-10.12 7.6,-11.34 14.18,-3.7 28.36,-7.4 42.64,-10.74 8.42,-2.1 17.18,-1.8 25.66,-3.62 0.84,-0.14 2.56,-0.44 3.4,-0.6 9.82,-0.48 19.72,-0.38 29.36,-2.66 l 1.32,-0.24 c 3.54,-0.64 7.14,-1 10.72,-1.42 4.36,-0.56 8.72,-1.2 13.06,-1.86 11.84,-1.96 23.86,-2.74 35.66,-4.9 1.3,-5.8 1.86,-11.88 4.82,-17.14 10.04,-18.14 23.12,-34.32 34.14,-51.84 1.6,-2.6 4.1,-4.4 6.4,-6.32 -8.18,-4.98 -9.66,-15.16 -15.2,-22.34 -5.06,-6.68 -7.4,-14.9 -12.14,-21.78 -7.56,-11.72 -13.66,-24.44 -22.6,-35.24 -8.2,-12.04 -16.02,-26.78 -30.74,-31.68 0.04,-2.46 0.1,-4.94 0.16,-7.4 z"
     id="path78"
     inkscape:connector-curvature="0"
     style="fill:#f3722b" />
  <path
     d="m 861.86,401.72 c 4,-3.1 8.3,-6 13.38,-6.94 -3.14,3.82 -6.82,7.16 -10.88,9.96 -6.62,2.76 -8.92,12.14 -16.42,12.5 -6.06,-2.92 -10.5,-8.66 -12.04,-15.18 3.42,0.36 7,0.7 9.64,3.18 0.76,0.02 2.26,0.04 3,0.04 4.72,0.22 9.62,-0.38 13.32,-3.56 z"
     id="path80"
     inkscape:connector-curvature="0"
     style="fill:#f4e4c0" />
  <path
     d="m 173.72,401.3 c 14.36,-3.6 29.16,-6.4 44.02,-6.58 -0.44,8.82 0.16,17.8 -2.14,26.42 -11.84,4.34 -24.1,7.32 -36.28,10.56 -2,-10.12 -3.36,-20.34 -5.6,-30.4 z"
     id="path82"
     inkscape:connector-curvature="0"
     style="fill:#3e3e3e" />
  <path
     d="m 132.58,408.56 c 7.48,-5.16 17.32,-1.68 25.58,-4.66 2.84,-1.7 4.56,2.2 4.48,4.4 0.76,9.5 3.66,18.8 3.88,28.34 -6.28,3.74 -13.28,7.2 -20.78,6.96 -3.36,-12.06 -9.66,-23.06 -13.16,-35.04 z"
     id="path84"
     inkscape:connector-curvature="0"
     style="fill:#3e3e3e" />
  <path
     d="m 382,415.84 c 0.88,-0.92 2.66,-2.74 3.54,-3.64 12.28,1.14 18.46,12.86 24.88,21.78 4.78,5.48 1.64,12.94 2.48,19.44 -3.08,-0.14 -6.18,-0.28 -9.26,-0.42 -3.88,-14 -10.76,-27.34 -21.64,-37.16 z"
     id="path86"
     inkscape:connector-curvature="0"
     style="fill:#f3722b" />
  <path
     d="m 355.38,424.82 c 1.04,-0.12 3.1,-0.34 4.14,-0.44 0.98,0.08 2.96,0.26 3.96,0.36 0,3.14 -0.12,6.3 -0.26,9.46 -5.56,2.42 -10.52,6.06 -13.96,11.14 -21.02,27.24 -42.44,54.44 -59.28,84.54 18.12,-9.88 36.18,-20.1 55.58,-27.36 0.1,-7.16 0.1,-14.32 0.02,-21.48 0.98,-0.18 2.94,-0.52 3.94,-0.68 0.56,6.78 1.16,13.56 1.88,20.34 5.42,-1.94 10.8,-4.04 16.18,-6.12 0.22,-0.06 0.62,-0.22 0.82,-0.28 3.3,-1.16 6.64,-2.26 9.98,-3.32 18.92,-6.46 38.12,-12.54 58.16,-14.36 1.26,2.74 2.52,5.46 3.8,8.2 -20.16,6.34 -41.48,9.36 -60.78,18.46 -2.9,0.98 -5.78,1.98 -8.68,2.96 -6.66,2.12 -13.2,4.56 -19.7,7.1 -1.22,7.54 -1.34,15.18 -1.6,22.8 -0.74,-0.02 -2.24,-0.06 -2.98,-0.06 -0.34,-6.82 0.26,-13.74 -1.42,-20.42 -11.5,4.42 -21.18,13.24 -33.44,15.48 -0.8,0.42 -2.42,1.22 -3.22,1.64 l -0.04,1.64 c -4.62,1.32 -9.04,3.26 -13.34,5.38 l -1.72,-0.1 c -0.48,0.62 -1.42,1.88 -1.9,2.5 -6.58,2.92 -12.52,7.14 -17.7,12.1 5.78,-4.18 11.66,-8.28 17.7,-12.1 l 0.96,0.62 c 0.66,-0.76 2,-2.26 2.66,-3.02 4.36,-1.98 8.78,-3.9 13.34,-5.38 0.82,-0.82 2.46,-2.46 3.26,-3.28 4.62,-1 9.36,-0.6 13.92,0.5 -10.06,7.16 -22.74,9.8 -31.98,18.18 -10.28,8.28 -25.52,13.66 -27.66,28.48 -1,0.56 -3,1.66 -4,2.22 -2.1,-0.7 -4.18,-1.38 -6.28,-2.06 -8.32,6.84 -16.38,13.98 -25.04,20.4 1,-3.74 2.06,-7.46 3.44,-11.06 10.52,-12 24.34,-20.52 34.46,-32.9 -5.8,2.18 -11.94,4.34 -18.06,1.98 8.48,-7.78 20.88,-11.08 26.88,-21.46 9.38,-14.64 17.6,-30.06 28.06,-44.02 8.48,-11.48 16.84,-23.06 25.38,-34.5 8.02,-10.82 17.42,-20.6 24.52,-32.08 z"
     id="path88"
     inkscape:connector-curvature="0"
     style="fill:#f3722b" />
  <path
     d="m 181.18,440.1 c 11.6,-2.64 22.42,-7.98 34.18,-10.08 -0.3,9.86 -2.32,19.52 -2.9,29.36 -0.6,4.28 -0.68,9.76 -5.26,11.86 -6.54,3.72 -12.44,8.82 -19.78,10.96 -1.86,-14.06 -5.42,-27.92 -6.24,-42.1 z"
     id="path90"
     inkscape:connector-curvature="0"
     style="fill:#3e3e3e" />
  <path
     d="m 349.26,445.34 c 3.44,-5.08 8.4,-8.72 13.96,-11.14 -0.04,0.9 -0.14,2.68 -0.18,3.58 -2.02,1.68 -4.12,3.32 -5.92,5.22 -0.26,9 3.44,18.18 11.22,23.18 0.98,4.52 1.94,9.06 2.72,13.64 -2.64,4.38 -2.56,9.54 -2.66,14.48 -0.2,0.06 -0.6,0.22 -0.82,0.28 -5.38,2.08 -10.76,4.18 -16.18,6.12 -0.72,-6.78 -1.32,-13.56 -1.88,-20.34 -1,0.16 -2.96,0.5 -3.94,0.68 0.08,7.16 0.08,14.32 -0.02,21.48 -19.4,7.26 -37.46,17.48 -55.58,27.36 16.84,-30.1 38.26,-57.3 59.28,-84.54 z"
     id="path92"
     inkscape:connector-curvature="0"
     style="fill:#3e3e3e" />
  <path
     d="m 149.98,453.1 c 5.88,-1.92 11.62,-4.26 16.96,-7.4 4.92,15 6.44,30.86 9.94,46.22 1.34,4.36 -4.22,6.2 -6.78,8.56 -1.88,-9.86 -4.84,-19.46 -7.42,-29.16 -2.34,-0.8 -4.68,-1.62 -7.02,-2.44 -1.58,-5.38 -3.5,-10.64 -5.68,-15.78 z"
     id="path94"
     inkscape:connector-curvature="0"
     style="fill:#3e3e3e" />
  <path
     d="m 977.84,456.86 c 10.46,-1.22 20.3,-5.32 30.52,-7.7 0.04,0.78 0.08,2.36 0.12,3.16 -25.76,9.92 -52.72,16.86 -77.58,29.06 -5.14,1.92 -10.44,3.48 -15.22,6.24 14.52,-7.12 32.98,-7.44 46.26,2.56 5.26,4.74 11.94,8.02 15.76,14.2 3.18,5.92 10.8,5.56 16.32,7.86 -3.06,1.06 -6.08,2.14 -9.12,3.18 4.12,6.68 6.78,14.28 3.8,22 -3.62,-0.34 -5.54,-2.92 -6.14,-6.28 -1.6,-0.98 -3.2,-1.96 -4.78,-2.9 -2.34,-4.44 -4.8,-8.8 -7.36,-13.1 -26.22,-0.36 -52.54,3.16 -77.94,9.62 -15.14,4.8 -30.56,8.76 -45.36,14.52 -10.78,3.98 -20.66,10.38 -32.12,12.4 -0.22,-2.2 -0.44,-4.4 -0.64,-6.6 6.68,-3.68 13.36,-7.46 20.44,-10.34 23.98,-9.38 47.62,-20.22 72.96,-25.44 8.38,-2.02 16.96,-0.08 25.4,-0.72 10.96,-2.64 22.24,-0.94 33.38,-1.84 -6.3,-6.7 -13.6,-13.98 -23.04,-15.46 -30.36,1.66 -59.7,11.76 -86.9,25.04 -13.66,5.76 -26,14.12 -38.36,22.22 -5.3,3.7 -12.06,3.84 -18.26,4.38 3.18,-4.92 7.7,-8.66 12.4,-12.04 -0.38,-3.68 -0.3,-7.66 3.84,-9.16 29.68,-17.6 58.1,-37.78 90.22,-50.86 15.2,-5.02 29.9,-12.02 45.84,-14.48 3.06,-0.64 7.26,1.84 6.98,5 -10.56,4.44 -21.7,7.38 -32.2,11.96 -9,4 -19.72,4.9 -27.02,12.1 20.78,-11.44 44.2,-16.18 66.08,-24.78 -1.66,-0.28 -4.98,-0.84 -6.62,-1.12 5.02,-5.12 12.12,-3.08 18.34,-2.68 z"
     id="path96"
     inkscape:connector-curvature="0"
     style="fill:#f3722b" />
  <path
     d="m 509.32,452.88 c 2.26,-0.24 4.52,-0.44 6.8,-0.64 -0.96,2.68 -1.94,5.34 -2.96,8 0.62,1.08 1.88,3.22 2.52,4.3 3.86,1.76 7.72,3.5 11.64,5.14 0.02,0.9 0.06,2.72 0.1,3.62 -6.22,5.52 -13.24,10.18 -21.04,13.14 2.46,1.92 4.9,3.84 7.34,5.8 -1.96,0.18 -5.9,0.58 -7.86,0.78 -5.42,-9.82 -11.82,-19.12 -16.22,-29.44 0.76,-6.02 7.04,-5.46 10.96,-2.52 2.96,-2.68 5.86,-5.42 8.72,-8.18 z"
     id="path98"
     inkscape:connector-curvature="0"
     style="fill:#f4e4c0" />
  <path
     d="m 470.82,460.96 c 1.76,-0.1 5.24,-0.28 6.98,-0.38 6,10.04 12.18,20.02 17.36,30.5 0,0.96 0.02,2.9 0.02,3.86 -5.08,0.18 -10.18,0.42 -15.26,0.42 2.42,-2.8 4.96,-5.46 7.6,-8.06 -0.2,-0.84 -0.58,-2.52 -0.78,-3.36 -4.96,-2.28 -9.84,-4.7 -14.84,-6.86 1.86,-1.68 3.72,-3.34 5.58,-5 -2.92,-2.66 -5.84,-5.3 -8.8,-7.9 0.54,-0.82 1.62,-2.42 2.14,-3.22 z"
     id="path100"
     inkscape:connector-curvature="0"
     style="fill:#f4e4c0" />
  <path
     d="m 198.16,496.26 c 1.16,-5.16 5.7,-7.96 10.06,-10.22 -1.2,19.3 -4.3,38.5 -4.2,57.88 -0.66,3.9 -0.6,8.66 -3.94,11.42 0.8,-17 -6.2,-32.86 -7.72,-49.54 -0.84,-4.28 3.64,-6.52 5.8,-9.54 z"
     id="path102"
     inkscape:connector-curvature="0"
     style="fill:#3e3e3e" />
  <path
     d="m 538.2,489.86 c 4.28,-2.2 10.18,-4.16 14.22,-0.42 9.12,7.24 16.1,16.94 21.56,27.14 -1.66,0.66 -5,2 -6.66,2.68 -7.08,-4.54 -10.7,-12.46 -16.74,-18.06 -4.1,-3.8 -8.48,-7.32 -12.38,-11.34 z"
     id="path104"
     inkscape:connector-curvature="0"
     style="fill:#f3722b" />
  <path
     d="m 485.52,510.14 c 0.34,-6.82 3.78,-17.12 12.52,-12.16 0.46,0.96 1.38,2.9 1.84,3.86 0.42,0.92 1.28,2.78 1.7,3.72 -4.26,8.9 -3.8,19.06 -5.62,28.6 -2.4,20.74 -5.78,41.36 -9,62 -6.54,3.22 -13.2,6.5 -18.64,11.4 2.42,-18.24 5.84,-36.34 9.22,-54.44 2.06,-5.4 3.32,-11.12 3.3,-16.94 -0.7,-9.12 4.54,-17.04 4.68,-26.04 z"
     id="path106"
     inkscape:connector-curvature="0"
     style="fill:#f4e4c0" />
  <path
     d="m 451.66,501.32 c 4.34,-3.3 10.08,-1.42 14.64,0.26 -26.16,15.94 -47.36,38.34 -67.86,60.78 -2.02,2.24 -2.76,5.22 -3.76,7.98 -4.52,0.22 -9.06,0.36 -13.58,0.1 -2.94,-1.12 -3.1,-2.66 -0.54,-4.62 3,-3.5 6.14,-6.9 9.06,-10.46 18.82,-20.02 40.16,-37.5 62.04,-54.04 z"
     id="path108"
     inkscape:connector-curvature="0"
     style="fill:#f3722b" />
  <path
     d="m 609.14,501.68 c 13.46,-1.4 27.1,0.28 40.22,3.42 4.68,0.86 8.1,4.42 11.62,7.32 -11.14,-0.48 -22.04,-3.16 -33.12,-4.38 -6.36,-1.4 -14.48,-0.34 -18.72,-6.36 z"
     id="path110"
     inkscape:connector-curvature="0"
     style="fill:#f3722b" />
  <path
     d="m 370.88,506.24 c 2.9,-0.98 5.78,-1.98 8.68,-2.96 7.42,-1.98 7.86,7.6 7.82,12.66 1.9,7.94 -4.02,15.26 -1.48,23.08 0.86,4.86 3.04,9.32 5.82,13.36 -0.52,0.76 -1.56,2.24 -2.1,2.98 -2.92,3.56 -6.06,6.96 -9.06,10.46 -3.36,-5.26 -8.44,-9.3 -11.36,-14.78 -1.44,-12.3 3.6,-24.06 7.6,-35.4 -1.96,-3.16 -3.92,-6.3 -5.92,-9.4 z"
     id="path112"
     inkscape:connector-curvature="0"
     style="fill:#f4e4c0" />
  <path
     d="m 13.82,519.72 c 6.04,-0.34 12.18,-1.5 18.2,-0.4 4.78,2.32 9.52,4.78 14.72,6.08 4.12,4.58 8.78,8.66 14.16,11.7 20.92,14.28 42.56,27.64 62.52,43.3 15.5,14.04 32.22,27.02 45.52,43.28 -11.56,-0.5 -23.72,1.98 -34.88,-1.38 -23.16,-13.68 -49.7,-19.04 -75.08,-27 -14.12,-3.96 -28.64,-6.9 -43.38,-6.52 -0.7,-1.36 -2.1,-4.08 -2.78,-5.44 2.82,-0.98 5.72,-1.96 8.72,-1.1 9.76,1.52 19.5,3.26 29.04,5.84 4.34,0.92 8.26,4.06 12.88,3.28 -1.68,-1.08 -3.26,-2.56 -5.28,-2.86 -10.34,-0.84 -20.26,-4.06 -30.42,-5.94 -4.3,-0.44 0.54,-4.2 1.7,-5.4 20.08,6.4 41.48,8.26 61,16.48 8.8,3.4 17.54,6.92 25.94,11.22 8.22,-2.14 14.8,3.28 21.36,7.22 -2.82,-3.1 -5.7,-6.16 -8.98,-8.76 C 105.88,585.96 82.74,568.88 58.74,553.06 45.38,539.84 26.72,533.5 13.82,519.72 z"
     id="path114"
     inkscape:connector-curvature="0"
     style="fill:#f3722b" />
  <path
     d="m 308.52,532.78 c 0.8,-0.42 2.42,-1.22 3.22,-1.64 -0.8,0.82 -2.44,2.46 -3.26,3.28 l 0.04,-1.64 z"
     id="path116"
     inkscape:connector-curvature="0"
     style="fill:#3e3e3e" />
  <path
     d="m 295.14,539.8 c 4.3,-2.12 8.72,-4.06 13.34,-5.38 -4.56,1.48 -8.98,3.4 -13.34,5.38 z"
     id="path118"
     inkscape:connector-curvature="0"
     style="fill:#3e3e3e" />
  <path
     d="m 770.2,532.94 c 6.04,0.1 10.54,4.3 15.44,7.22 1.4,-1.96 2.82,-3.92 4.24,-5.86 3.96,1.4 7.02,4.26 9.88,7.22 -1.16,4.82 -3.12,9.38 -5.44,13.72 -7.44,0.28 -16.06,-2.58 -20.28,-8.88 2.48,-0.54 4.98,-1 7.5,-1.4 -4.2,-3.56 -9.18,-6.7 -11.34,-12.02 z"
     id="path120"
     inkscape:connector-curvature="0"
     style="fill:#f4e4c0" />
  <path
     d="m 890.08,538.24 c 13.1,-0.76 26.36,-3.48 39.4,-0.42 12.38,1.04 24.64,3.68 35.96,8.94 3.1,1.08 5.04,3.76 7.12,6.16 -10.48,1.64 -18.66,-7.18 -28.8,-8.68 9.74,3.6 19.5,7.7 27.36,14.7 7.9,6.72 20.4,11.94 19.04,24.46 -5.3,-1.14 -8.4,-5.76 -12.16,-9.18 -10.2,-9.42 -22.64,-16.06 -35.64,-20.72 -21.3,-9.68 -45.22,-10.44 -68.16,-9.16 -12.9,3 -26.32,1.74 -39.1,5.24 l -0.64,-3.22 c 18.22,-4.54 36.86,-7.38 55.62,-8.12 z"
     id="path122"
     inkscape:connector-curvature="0"
     style="fill:#f3722b" />
  <path
     d="m 291.52,542.2 c 0.48,-0.62 1.42,-1.88 1.9,-2.5 l 1.72,0.1 c -0.66,0.76 -2,2.26 -2.66,3.02 l -0.96,-0.62 z"
     id="path124"
     inkscape:connector-curvature="0"
     style="fill:#3e3e3e" />
  <path
     d="m 582.76,541.66 c 2.78,-0.28 5.58,-0.54 8.38,-0.8 1.5,1.72 3.02,3.44 4.54,5.2 -1.84,1.9 -3.68,3.82 -5.52,5.74 -2.48,-3.38 -4.94,-6.76 -7.4,-10.14 z"
     id="path126"
     inkscape:connector-curvature="0"
     style="fill:#f3722b" />
  <path
     d="m 273.82,554.3 c 5.18,-4.96 11.12,-9.18 17.7,-12.1 -6.04,3.82 -11.92,7.92 -17.7,12.1 z"
     id="path128"
     inkscape:connector-curvature="0"
     style="fill:#3e3e3e" />
  <path
     d="m 548.02,551.18 c 8.68,-4.46 18.76,-4.88 28.14,-7.1 -0.02,4 2.16,7.24 4.68,10.16 -8.94,2.1 -17.56,5.38 -26.66,6.84 -2,-3.34 -4.08,-6.62 -6.16,-9.9 z"
     id="path130"
     inkscape:connector-curvature="0"
     style="fill:#f3722b" />
  <path
     d="m 338.84,547.98 c 1.36,0.36 4.06,1.06 5.42,1.42 1.54,8.22 2.44,16.56 2.86,24.92 3.3,0.74 6.44,3 9.9,2.66 4.18,-2.44 8.16,-5.34 12.8,-6.84 -0.06,6.64 -7,9.22 -11.24,13.1 0.24,0.72 0.74,2.18 0.98,2.92 3.68,1.32 7.32,2.72 10.96,4.2 l -2.24,1.6 -1.32,0.24 c -5.96,0.42 -11.74,-1.16 -17.44,-2.6 -3.7,2.3 -7.62,4.36 -11.92,5.26 -0.84,0.16 -2.56,0.46 -3.4,0.6 -0.26,-3.82 3.38,-4.38 6.18,-5.44 -9.48,-0.18 -18.8,-1.9 -28.14,-3.18 -6.74,-1.16 -14.12,-1.94 -18.94,-7.4 14.68,-1.74 31.22,9.46 44.52,-0.7 -7.34,-8.52 -15.72,-16.14 -21.98,-25.54 2.6,-0.04 5.96,-1.54 7.92,0.92 6.1,6.64 11.72,13.74 17.76,20.48 0.2,-8.96 -1.04,-17.84 -2.68,-26.62 z"
     id="path132"
     inkscape:connector-curvature="0"
     style="fill:#f4e4c0" />
  <path
     d="m 841.42,552.94 c 12.66,0.56 24.78,4.98 36.5,9.48 8.44,3.74 17.48,7.06 24.02,13.84 2.16,1.86 1.94,4.7 -0.44,6.28 -8.86,-2.32 -16.44,-7.78 -25.02,-10.88 -9,-3.3 -18.22,-6.06 -27.58,-8.1 -6.38,-1.32 -13.76,0.88 -19.06,-3.86 3.2,-0.86 6.42,-1.62 9.66,-2.36 0.48,-1.1 1.44,-3.3 1.92,-4.4 z"
     id="path134"
     inkscape:connector-curvature="0"
     style="fill:#f3722b" />
  <path
     d="m 351.02,554.94 c 1.06,-0.04 3.22,-0.1 4.3,-0.14 0.68,4.88 -0.08,9.76 -0.84,14.58 -0.96,0 -2.9,0.02 -3.86,0.04 -0.02,-4.84 0.14,-9.66 0.4,-14.48 z"
     id="path136"
     inkscape:connector-curvature="0"
     style="fill:#f4e4c0" />
  <path
     d="m 469.04,564.86 c 1.98,-4.46 5.32,-8.1 8.5,-11.74 -3.38,18.1 -6.8,36.2 -9.22,54.44 -3.84,6.6 -11.24,2.8 -16.9,1.32 5.66,-14.76 10.92,-29.68 17.62,-44.02 z"
     id="path138"
     inkscape:connector-curvature="0"
     style="fill:#3e3e3e" />
  <path
     d="m 523.82,555.74 c 3.68,-0.58 7.38,-1.14 11.06,-1.66 1.8,3.58 3.58,7.16 5.38,10.74 -3.58,1.72 -7.46,3.46 -11.54,2.54 -2.48,-3.46 -3.54,-7.66 -4.9,-11.62 z"
     id="path140"
     inkscape:connector-curvature="0"
     style="fill:#f3722b" />
  <path
     d="m 193.78,555.76 c 7.62,7.32 1.7,18.94 6.52,27.5 -0.8,-0.04 -2.36,-0.12 -3.14,-0.16 -0.94,-4.96 -2.6,-10.14 -0.64,-15.1 -1.12,-4.04 -2.08,-8.1 -2.74,-12.24 z"
     id="path142"
     inkscape:connector-curvature="0"
     style="fill:#3e3e3e" />
  <path
     d="m 749.02,564.62 c 4.68,-1.06 8.98,1.24 13.34,2.56 6.22,0.96 12.52,-0.36 18.54,-2 2.68,5.88 -3.66,9.06 -6.62,13.14 -8.56,11.02 -15.46,23.22 -22.94,35.02 -12.14,19.2 -21.46,39.96 -31.84,60.14 -15.6,30.94 -30.92,61.98 -46.26,93.04 -0.94,-6.02 -1.42,-12.34 1.62,-17.86 6.92,-14.76 10.56,-30.9 18.88,-45 14.74,-28.46 28.58,-57.42 44.2,-85.42 -15,14.28 -28.26,30.28 -42.68,45.14 -15.34,21.66 -27.66,45.34 -42.58,67.32 -3.72,5.28 -5.28,11.7 -8.76,17.12 -11.54,15.68 -18.1,34.66 -30.48,49.7 -1.42,0.12 -4.26,0.36 -5.68,0.48 2.94,-24.86 20.16,-44.1 29.52,-66.5 2.7,-5.76 7.12,-10.44 10.5,-15.76 10.32,-16.98 20.36,-34.16 30.76,-51.12 14.74,-20.4 29.98,-40.48 44.96,-60.72 -11.54,6.98 -24.9,11.16 -34.8,20.6 -19.82,17.58 -39.92,34.86 -59.62,52.58 -6.42,7.68 -15.3,12.6 -22.16,19.82 -16.96,16.34 -37.7,29.64 -49.54,50.58 -15.28,21.3 -31.02,42.26 -46.04,63.74 -1.12,-0.72 -3.38,-2.2 -4.5,-2.94 11.56,-19.1 22,-38.9 33.72,-57.88 12.34,-15.58 24.52,-31.38 38.36,-45.62 16.1,-14.48 30.72,-30.5 46.92,-44.86 11.32,-11.42 22.46,-23.22 35.84,-32.3 16.82,-12.8 34.26,-24.78 50.7,-38.02 -15.94,3.48 -32.04,7.18 -46.94,14 -5.42,1.86 -11.34,2.54 -16.14,5.92 -16.58,10.54 -31.72,23.12 -47.72,34.5 -1.08,-0.36 -3.26,-1.06 -4.34,-1.42 6.92,-7.76 16.46,-12.5 23.2,-20.4 3.9,-3.44 9.02,-5.32 12.36,-9.46 4.18,-4.78 10.04,-7.5 15.56,-10.4 14,-7.98 28.96,-14.12 43.96,-19.96 19.04,-5.46 36.92,-15.04 56.7,-17.76 z"
     id="path144"
     inkscape:connector-curvature="0"
     style="fill:#f3722b" />
  <path
     d="m 811.64,565.58 c 4.82,-0.42 9.88,-1.92 14.7,-0.56 13.36,5.98 26.56,12.4 39.14,19.9 18.32,13.34 34.92,29.88 44.98,50.44 1.22,5.78 -0.02,11.96 2.1,17.68 -8.8,1.92 -9.92,-8.06 -14.5,-13.04 -21.84,-26.24 -46.22,-51.56 -77.12,-67.02 -3.74,-1.6 -6.94,-4.12 -9.3,-7.4 z"
     id="path146"
     inkscape:connector-curvature="0"
     style="fill:#f3722b" />
  <path
     d="m 214.86,592.48 c 8.66,-7.2 16.74,-15.04 25.36,-22.24 -1.92,5.88 -3.92,11.74 -6.08,17.56 -1.38,3.6 -2.44,7.32 -3.44,11.06 l -0.88,3.24 c 12.78,-2.88 25.32,-6.76 38.04,-9.82 -14.52,10.36 -29.54,20.02 -44.2,30.16 5.78,3.06 12.34,3.7 18.68,4.78 -13.7,10.42 -28.8,18.86 -42.7,29.02 -2.72,-5.78 -5.36,-11.6 -8.12,-17.34 -8.02,-2.28 -16.16,-4.04 -24.22,-6.1 -1.68,-1.22 -3.36,-2.4 -5.06,-3.56 6.8,1.72 14.66,2.82 21.2,-0.12 -0.84,-5.48 -5.82,-9.12 -8.22,-13.94 -3.64,-7.44 -8.02,-14.8 -9.16,-23.14 11.24,4 21.88,9.56 32.56,14.82 3.34,-2.86 6.6,-5.82 9.94,-8.68 2.16,-1.84 4.26,-3.76 6.3,-5.7 z"
     id="path148"
     inkscape:connector-curvature="0"
     style="fill:#f4e4c0" />
  <path
     d="m 381.1,570.44 c 4.52,0.26 9.06,0.12 13.58,-0.1 0.98,6.28 0.6,12.74 -2.62,18.34 -4.34,0.66 -8.7,1.3 -13.06,1.86 2.52,-6.42 4.36,-13.32 2.1,-20.1 z"
     id="path150"
     inkscape:connector-curvature="0"
     style="fill:#f4e4c0" />
  <path
     d="m 800.16,575.64 c 0.98,-0.68 2.98,-2.06 3.96,-2.74 10.46,4.56 16.6,14.82 25.04,22.06 9.7,8.02 12.78,20.68 18.82,31.24 6.18,13.22 14.2,25.74 17.9,40 7.14,22.28 12.26,45.14 18.48,67.68 1.62,6.76 4.06,13.42 4.56,20.4 -0.2,5.66 -6.02,7 -10.42,8.2 -3.96,-15.92 -5.1,-32.52 -10.76,-47.98 -5.72,-16.92 -12.14,-33.58 -17.62,-50.58 -2.42,-8.02 -8.2,-14.32 -13.1,-20.9 3.04,24.92 11.4,48.92 16.76,73.4 2.38,18.4 2.9,37 3.64,55.52 2.18,17.42 1.96,35 2.2,52.52 -4.86,5.02 -9.78,10.9 -17.32,11.3 0.16,-6.58 0.46,-13.14 0.7,-19.7 -1.32,-0.42 -3.98,-1.24 -5.32,-1.64 1.56,-1.5 3.12,-3 4.7,-4.48 -0.46,-21.96 1.42,-44.1 -2.12,-65.92 -2.94,-16.34 -4.98,-32.9 -9.72,-48.86 -8.84,-33.58 -17.46,-67.4 -31.54,-99.24 2.18,-1.78 4.64,-3.28 6.42,-5.48 0.44,-5.54 -2.64,-10.24 -5.26,-14.8 z"
     id="path152"
     inkscape:connector-curvature="0"
     style="fill:#f3722b" />
  <path
     d="m 773.92,587.84 c 3.04,-4.26 7.9,-2.06 11.54,-0.08 -0.5,1.06 -1.46,3.18 -1.96,4.24 -0.24,1.08 -0.7,3.24 -0.94,4.32 -2.78,6.28 -5.72,12.76 -5.66,19.78 -0.08,4.46 -0.38,8.98 -2.6,12.98 -3.38,5.92 -0.46,12.74 -1.06,19.14 0.34,6.9 -5.58,11.64 -8.08,17.56 2,9.62 2.94,20.04 -0.96,29.34 -3.58,7.76 -0.36,16.4 -1.64,24.5 -2.54,8.7 -8.2,16 -11.56,24.32 -0.44,7.44 1.74,14.74 1.7,22.2 -1.3,7.76 -4.62,14.86 -7.66,22.02 -1.48,12.66 2.36,26.12 -3.58,38.08 -1.3,9.1 -2.58,18.18 -3.86,27.28 -0.58,2.18 -1.16,4.36 -1.74,6.56 -0.58,3.34 -1.18,6.7 -2.08,9.98 -1.88,13.3 -4.92,26.46 -5.24,39.92 -2.48,17.96 -4.66,35.96 -6.48,54 -1.16,6.28 -3.42,12.28 -5.68,18.24 -0.52,1.22 -1.56,3.66 -2.08,4.88 -2.08,0.04 -4.16,0.1 -6.22,0.16 1.44,-1.76 2.88,-3.5 4.32,-5.22 7.02,-15.16 6.04,-32 8.46,-48.1 2.24,-7.18 1.4,-14.86 3.62,-22 0.06,-10.66 1.26,-21.24 3.46,-31.66 2.4,-13.48 6.72,-26.66 7.2,-40.42 0.26,-2.5 0.74,-4.92 1.48,-7.32 0.12,-2.06 0.24,-4.14 0.34,-6.18 -2.92,-2 -1.84,-5.42 -1.84,-8.26 0.78,-8.06 0.26,-16.12 0.14,-24.18 -0.22,-8.82 7.76,-15.24 7.92,-23.98 1.22,-9.22 -0.88,-18.46 -0.36,-27.7 2.02,-5.94 7.42,-10.46 8.24,-16.88 0.72,-6.36 0.14,-12.8 -0.52,-19.12 -4.32,-6.24 1.98,-12.02 3.42,-18 2.78,-7.76 0.82,-15.98 0.96,-23.96 2.44,-5.28 6.4,-9.66 10,-14.16 0.5,-6.78 -1,-13.4 -1.98,-20.04 2.8,-3.5 5.46,-7.46 5.62,-12.1 -0.4,-3.92 -3.24,-8.12 -0.64,-11.8 3.3,-5.64 4.26,-12.14 6,-18.34 z"
     id="path154"
     inkscape:connector-curvature="0"
     style="fill:#f4e4c0" />
  <path
     d="m 337.6,594.86 c 4.3,-0.9 8.22,-2.96 11.92,-5.26 5.7,1.44 11.48,3.02 17.44,2.6 -9.64,2.28 -19.54,2.18 -29.36,2.66 z"
     id="path156"
     inkscape:connector-curvature="0"
     style="fill:#3e3e3e" />
  <path
     d="m 600,599.6 c 3.44,-1.56 6.9,-3.06 10.4,-4.54 2.94,4.58 6.2,9.02 8.36,14.06 2.32,3.86 -2.88,7.18 -6.32,6.64 -4.68,-4.96 -8.32,-10.78 -12.44,-16.16 z"
     id="path158"
     inkscape:connector-curvature="0"
     style="fill:#f3722b" />
  <path
     d="m 424.56,598 c 7.58,-1.78 15.4,-0.96 23.1,-0.62 -1.54,3.88 -3.1,7.76 -4.7,11.64 -7.02,-0.04 -14.04,0.34 -21.02,1.1 -9,0.94 -17.98,-0.96 -26.98,-0.32 -1.02,-2.32 -2.02,-4.64 -3,-6.94 10.8,-2.08 21.88,-2.28 32.6,-4.86 z"
     id="path160"
     inkscape:connector-curvature="0"
     style="fill:#3e3e3e" />
  <path
     d="m 378.52,605.66 c 4.02,-2.58 8.84,-2.7 13.44,-2.8 0.98,2.3 1.98,4.62 3,6.94 -5.92,1.08 -11.98,-0.52 -16.88,-3.9 l 0.44,-0.24 z"
     id="path162"
     inkscape:connector-curvature="0"
     style="fill:#f4e4c0" />
  <path
     d="m 583.48,606.06 c 4.26,-2.24 10.56,-5.66 14.16,-0.64 -3.2,6.26 0.32,12.16 3.3,17.62 2.74,4.52 -2.86,7.22 -5.34,10.02 -3.12,-9.42 -8.42,-17.88 -12.12,-27 z"
     id="path164"
     inkscape:connector-curvature="0"
     style="fill:#f3722b" />
  <path
     d="m 14.32,604.6 c 19.24,-1.08 38.7,-0.74 57.82,2.08 8.04,0.62 15.94,2.32 23.48,5.24 7.88,2.98 16.4,3.36 24.4,5.84 12.56,5.6 24.9,11.78 38,16.02 6.42,2.6 13.74,3.54 19.04,8.34 -14.12,2.46 -27.92,6.5 -42,9.14 -19.76,6.9 -39.72,13.28 -59.36,20.54 -12,4.64 -22.84,11.66 -34.14,17.7 -9.98,5.02 -16.52,14.94 -27.08,19.02 0.02,-5.72 0.1,-11.42 0.18,-17.12 12.18,-7 24.72,-13.42 37.6,-19.06 12.3,-5.92 24.36,-12.38 37.08,-17.32 11.08,-4.7 23.34,-4.92 34.68,-8.8 -8.68,-1.08 -17.3,1.34 -25.9,2.2 -19.94,3.84 -39.94,7.48 -59.66,12.4 -7.96,2.66 -16.1,4.76 -24.44,5.9 0.44,-1.66 1.32,-4.96 1.74,-6.62 20.28,-7.36 41.58,-11.42 61.98,-18.44 9.96,-2.52 20.1,-4.38 30.24,-6.02 11.94,-0.84 23.94,-0.16 35.9,-0.62 -17.32,-4.94 -34,-12.7 -52.12,-14.36 -26.02,-4.22 -52.28,-6.78 -78.38,-10.24 0.24,-1.46 0.7,-4.38 0.94,-5.82 z"
     id="path166"
     inkscape:connector-curvature="0"
     style="fill:#f3722b" />
  <path
     d="m 367.98,606.54 c -3.28,-2.02 3.6,-2.54 4.66,-2.32 1.48,0.36 4.42,1.08 5.88,1.44 l -0.44,0.24 c -3.24,1.02 -6.78,1.72 -10.1,0.64 z"
     id="path168"
     inkscape:connector-curvature="0"
     style="fill:#3e3e3e" />
  <path
     d="m 467.22,614.42 c 5.64,-3.64 11.76,-6.44 17.98,-8.9 -0.22,3.44 -0.44,6.88 -0.64,10.34 -5.78,-0.52 -11.58,-0.8 -17.34,-1.44 z"
     id="path170"
     inkscape:connector-curvature="0"
     style="fill:#f4e4c0" />
  <path
     d="m 386.7,618.54 c 4,0.22 7.98,0.3 11.98,0.36 0.32,1.84 0.62,3.7 0.94,5.58 2.14,1 4.28,2.04 6.44,3.06 -6.16,6.76 -10.92,14.92 -11.46,24.24 -3.08,-1.02 -6.18,-2.02 -9.28,-3.02 3,-9.8 1.7,-20.16 1.38,-30.22 z"
     id="path172"
     inkscape:connector-curvature="0"
     style="fill:#f4e4c0" />
  <path
     d="m 398.68,618.9 c 13,-0.2 26.22,0.02 38.76,3.88 -1.34,14.7 -10.98,27.88 -8.78,43.04 3.1,-1.52 9.08,-0.82 9.24,-5.58 1.74,-12.48 5.32,-24.56 8.16,-36.82 6.54,0.22 13.1,0.66 19.6,1.62 -1.08,8.24 -2.46,16.42 -3.2,24.72 1.32,0.36 3.98,1.12 5.3,1.5 -1.06,10.14 -0.3,20.46 -2.62,30.46 -2.2,11.08 -3.92,22.28 -4.54,33.56 -4.4,4.92 -9.42,9.22 -15,12.72 4.1,-7.88 11.28,-13.72 14.68,-22.02 -9.24,1.26 -13.56,10.66 -20.26,16.08 -2.8,-2.48 -5.58,-4.94 -8.38,-7.4 -0.78,-2.84 -1.58,-5.66 -2.36,-8.46 -1.8,0.26 -3.6,0.54 -5.4,0.82 -2.48,8.3 -4.06,16.86 -2.9,25.54 -5.78,-5.84 -11.72,-11.52 -17.98,-16.84 -0.18,-14.76 -3.1,-29.34 -2.44,-44.14 10.16,5.72 21.84,7.42 32.72,11.24 5,1.96 9.16,-2.6 13.3,-4.64 -8.04,-5.02 -15.7,-10.84 -24.62,-14.24 -9.28,-3.72 -17.74,-9.28 -27.36,-12.16 0.54,-9.32 5.3,-17.48 11.46,-24.24 -2.16,-1.02 -4.3,-2.06 -6.44,-3.06 -0.32,-1.88 -0.62,-3.74 -0.94,-5.58 z"
     id="path174"
     inkscape:connector-curvature="0"
     style="fill:#3e3e3e" />
  <path
     d="m 465.66,625.04 c 5.22,0.76 10.42,1.72 15.6,2.8 0.54,12.78 -3.1,25.22 -3.1,38.02 0.66,5.28 1.3,10.74 -0.5,15.88 -2.8,8.64 -2.96,17.72 -3.22,26.72 5.26,-3.74 10.74,-8.84 17.78,-7.16 -7.24,5.16 -16.3,8.28 -21.06,16.28 -0.04,2.74 -0.08,5.5 -0.14,8.28 10.48,-0.82 20.4,-5.04 30.94,-5.3 11.46,-0.84 23.44,-3.42 34.48,1.14 -4.4,2.22 -9.46,1.32 -14.18,1.7 -1.94,0.96 -3.98,1.54 -6.1,1.76 -15.32,1.18 -30.24,5 -45.24,8.16 0.28,6.86 0.36,13.78 -1.04,20.56 -2.4,12.22 0.82,25.02 -3.44,36.94 -3.6,0.04 -7.2,0.04 -10.8,0.04 -0.92,-1.66 -1.84,-3.3 -2.76,-4.92 2.52,-15.88 4.88,-31.96 3.82,-48.06 -6.18,2.66 -12.36,5.34 -18.56,7.94 -1.42,2.1 -2.76,4.28 -4.38,6.24 -3.42,2.06 -6.78,-0.64 -9.66,-2.3 -4.54,-3 -9.34,-5.54 -14.24,-7.9 2.72,-1.8 5.44,-3.6 8.16,-5.4 -5.2,-4.1 -10,-8.66 -15.06,-12.92 -0.02,10.16 0.48,20.32 -0.14,30.48 -2.6,-2.12 -5.18,-4.2 -7.78,-6.3 -0.22,-9.1 0.28,-18.22 -0.54,-27.28 -0.28,-5.16 -5.16,-7.98 -9.02,-10.42 -7.66,-4.54 -15.36,-8.94 -22.92,-13.62 0.08,-1.02 0.22,-3.1 0.3,-4.14 10.16,5.76 19.76,12.46 30.2,17.74 0.16,-7.56 -0.3,-15.1 -0.12,-22.66 0.64,-0.72 1.94,-2.2 2.6,-2.92 -1.06,-0.6 -3.14,-1.8 -4.18,-2.4 -0.22,-5.14 -0.48,-10.28 -0.74,-15.42 3.36,1.56 6.64,3.28 9.94,4.98 -0.66,14.8 2.26,29.38 2.44,44.14 6.26,5.32 12.2,11 17.98,16.84 -1.16,-8.68 0.42,-17.24 2.9,-25.54 1.8,-0.28 3.6,-0.56 5.4,-0.82 0.78,2.8 1.58,5.62 2.36,8.46 2.8,2.46 5.58,4.92 8.38,7.4 6.7,-5.42 11.02,-14.82 20.26,-16.08 -3.4,8.3 -10.58,14.14 -14.68,22.02 5.58,-3.5 10.6,-7.8 15,-12.72 0.62,-11.28 2.34,-22.48 4.54,-33.56 2.32,-10 1.56,-20.32 2.62,-30.46 -1.32,-0.38 -3.98,-1.14 -5.3,-1.5 0.74,-8.3 2.12,-16.48 3.2,-24.72 z"
     id="path176"
     inkscape:connector-curvature="0"
     style="fill:#f4e4c0" />
  <path
     d="m 235.06,644.04 c 7.64,-4.42 14.62,-10.36 22.96,-13.4 17.9,-1.06 35.92,-0.36 53.82,0.62 25.08,2.82 49.68,9.24 73.48,17.5 3.1,1 6.2,2 9.28,3.02 9.62,2.88 18.08,8.44 27.36,12.16 8.92,3.4 16.58,9.22 24.62,14.24 -4.14,2.04 -8.3,6.6 -13.3,4.64 -10.88,-3.82 -22.56,-5.52 -32.72,-11.24 -3.3,-1.7 -6.58,-3.42 -9.94,-4.98 -15.9,-7.88 -33.64,-10.56 -49.96,-17.32 -14.46,-5.12 -29.96,-5.58 -45,-7.64 -5.7,-0.84 -11.46,-0.48 -17.12,0.28 4.42,0.46 8.88,0.7 13.32,0.84 10.52,-0.6 19.24,6.74 29.6,7.46 13.08,0.78 24.52,7.48 36.58,11.8 12.44,4.28 21.6,14.3 33.32,20 1.04,0.6 3.12,1.8 4.18,2.4 -0.66,0.72 -1.96,2.2 -2.6,2.92 -5.3,-0.06 -10.8,-0.18 -15.58,-2.72 -11.36,-5.58 -23.22,-10.02 -34.62,-15.52 -8,-3.86 -16.38,-6.94 -25.02,-9 -16.7,-4.02 -33.4,-8.96 -50.68,-9.62 10.72,8.22 15.4,21.06 22.04,32.32 16.3,6.06 30,17.08 45.38,24.94 20.8,12.36 41.5,25.06 60.58,39.98 2.6,2.1 5.18,4.18 7.78,6.3 11.52,10.44 24.34,19.34 35.58,30.1 -1.18,0.8 -3.52,2.36 -4.68,3.14 -8.06,-11.46 -20.28,-18.62 -30.6,-27.74 -2.88,-2.34 -5.82,-4.64 -8.66,-7.02 -9.74,-9.2 -21.32,-16.06 -32.64,-23.06 10.36,10.62 22.82,18.98 33,29.82 2.34,3.74 5.04,7.24 8.04,10.48 7.62,8.28 13.36,18.06 20.84,26.46 4.42,5.04 8.72,10.22 12.32,15.9 -1.3,-0.28 -3.88,-0.82 -5.18,-1.1 -9.6,-10.68 -17.58,-22.76 -27.42,-33.24 -2.62,-3.84 -5.44,-7.54 -8.54,-11 -10.02,-13.84 -23.78,-24.12 -37.16,-34.48 -7.22,-5.42 -13.66,-11.86 -21.44,-16.52 -23.34,-14.08 -46.06,-30.12 -72.52,-37.88 -2.88,-0.8 -5.9,-1.56 -7.78,-4.16 6.14,-2.48 12.38,0.32 18.4,1.6 -4.6,-9.6 -13.64,-15.62 -21.94,-21.72 -5.38,-3.9 -11.32,-6.92 -17.38,-9.56 z"
     id="path178"
     inkscape:connector-curvature="0"
     style="fill:#f3722b" />
  <path
     d="m 630.6,633.12 c 1.18,0.02 3.52,0.08 4.7,0.12 1.1,4.66 -3.5,11.16 -8,6.58 0.98,-2.3 2.14,-4.5 3.3,-6.7 z"
     id="path180"
     inkscape:connector-curvature="0"
     style="fill:#f3722b" />
  <path
     d="m 278.54,641.92 c 5.66,-0.76 11.42,-1.12 17.12,-0.28 15.04,2.06 30.54,2.52 45,7.64 16.32,6.76 34.06,9.44 49.96,17.32 0.26,5.14 0.52,10.28 0.74,15.42 -11.72,-5.7 -20.88,-15.72 -33.32,-20 -12.06,-4.32 -23.5,-11.02 -36.58,-11.8 -10.36,-0.72 -19.08,-8.06 -29.6,-7.46 -4.44,-0.14 -8.9,-0.38 -13.32,-0.84 z"
     id="path182"
     inkscape:connector-curvature="0"
     style="fill:#3e3e3e" />
  <path
     d="m 267.04,650.48 c 17.28,0.66 33.98,5.6 50.68,9.62 8.64,2.06 17.02,5.14 25.02,9 11.4,5.5 23.26,9.94 34.62,15.52 4.78,2.54 10.28,2.66 15.58,2.72 -0.18,7.56 0.28,15.1 0.12,22.66 -10.44,-5.28 -20.04,-11.98 -30.2,-17.74 -0.08,1.04 -0.22,3.12 -0.3,4.14 7.56,4.68 15.26,9.08 22.92,13.62 3.86,2.44 8.74,5.26 9.02,10.42 0.82,9.06 0.32,18.18 0.54,27.28 -19.08,-14.92 -39.78,-27.62 -60.58,-39.98 -15.38,-7.86 -29.08,-18.88 -45.38,-24.94 -6.64,-11.26 -11.32,-24.1 -22.04,-32.32 z"
     id="path184"
     inkscape:connector-curvature="0"
     style="fill:#3e3e3e" />
  <path
     d="m 607.26,652.6 c 1.9,-0.14 3.82,-0.28 5.76,-0.4 0.42,1.34 1.28,4.04 1.7,5.38 -2.18,1.84 -4.34,3.7 -6.5,5.56 -0.72,-1.4 -2.14,-4.18 -2.86,-5.58 0.48,-1.24 1.42,-3.72 1.9,-4.96 z"
     id="path186"
     inkscape:connector-curvature="0"
     style="fill:#f3722b" />
  <path
     d="m 160.38,658.36 c 6.24,-4.52 14.3,-4.18 21.58,-3.18 -10.62,8.2 -23.14,14.52 -31.02,25.78 -2.88,4.42 -7.26,7.44 -11.52,10.42 -7.8,5.42 -13.42,13.24 -20.42,19.58 -14.68,13.72 -25.58,30.72 -37.62,46.64 -4.92,6.32 -8.08,13.76 -12.98,20.08 -1.04,-0.74 -3.14,-2.24 -4.2,-3 14.7,-25.62 32.8,-49.36 53.48,-70.44 -5.8,-1.64 -11.42,2.22 -15.76,5.72 -10.42,8.78 -21.64,16.78 -30.74,27.02 -11.38,12.74 -22.52,25.74 -32.66,39.52 -4.46,5.88 -7.86,13.14 -14.6,16.84 -3.12,-0.88 -6.08,-2.22 -9.12,-3.32 -1.18,-6.96 4.36,-12 7.86,-17.3 10.42,-14.1 19.44,-29.48 32.3,-41.58 10.14,0.12 16.6,-8.38 23.84,-14.14 9.58,-9.32 21.76,-15.38 30.92,-25.18 16.32,-11.96 33.6,-22.58 50.66,-33.46 z"
     id="path188"
     inkscape:connector-curvature="0"
     style="fill:#f3722b" />
  <path
     d="m 214.54,657.44 c 3.62,-5.58 9.92,-0.36 13.62,2.38 11.68,10.88 19.88,24.92 26.6,39.28 10.32,18.78 17.34,39.04 25.62,58.74 2.84,8.06 6.58,15.86 8.32,24.28 1.62,9.82 6.78,18.8 6.98,28.9 -2.58,1.22 -5.16,2.52 -7.4,4.3 -1.78,0.14 -3.56,0.28 -5.32,0.44 -2.32,-18.3 -9.38,-35.5 -13.74,-53.32 -7.04,-18.12 -13,-36.74 -21.68,-54.16 -10.16,-17.46 -18.72,-36.24 -33,-50.84 z"
     id="path190"
     inkscape:connector-curvature="0"
     style="fill:#f3722b" />
  <path
     d="m 136.4,710.38 c 13.18,-15.3 25.88,-30.98 39.12,-46.2 3.82,0.28 7.62,0.6 11.44,0.96 -0.28,18.02 -10.46,33.48 -15.6,50.28 -6.18,15.9 -10,32.56 -15.7,48.62 -2.04,9.86 -3.66,19.82 -6.3,29.56 -6.42,26.56 -10.64,53.6 -15.4,80.5 -2.34,24.18 -6.34,48.12 -9.84,72.14 -0.92,12.3 -3.84,24.3 -5.72,36.48 -2.98,-1.9 -6.88,-2.84 -9.06,-5.72 -1.82,-25.36 -3.68,-50.78 -3.18,-76.26 2.34,-0.54 4.68,-1.06 7,-1.56 5.46,-23.1 9.7,-46.44 14.06,-69.74 1.28,-7.36 3.48,-14.62 3.28,-22.16 -9.54,29.46 -22.42,57.86 -29.9,87.98 -2.32,-0.1 -4.62,-0.16 -6.94,-0.22 -3.3,6.86 -7.52,13.3 -9.9,20.58 -8.46,26.6 -14.72,53.88 -23.5,80.36 -2.68,-3.48 -8.64,-6.3 -7.3,-11.48 5.94,-28.52 12.72,-56.88 18.82,-85.36 2.44,-12.38 7.64,-23.94 11.78,-35.8 9.58,-25.14 18,-50.72 28.14,-75.64 -3.96,-5.42 -8.06,-10.7 -12.24,-15.94 8.86,-15.86 18,-31.54 26.84,-47.4 2.8,-5.06 6.34,-9.62 10.1,-13.98 z"
     id="path192"
     inkscape:connector-curvature="0"
     style="fill:#f3722b" />
  <path
     d="m 198.8,670.86 c 6,1.48 11.96,3.12 17.94,4.66 13,29.76 24.68,60.08 34.82,90.94 7.04,21.72 16.46,42.78 20.56,65.36 3.02,13.6 5.86,27.26 9.4,40.76 5.94,24 7.76,48.7 11.34,73.1 0.68,5.18 0.96,10.4 1.14,15.62 -2.82,-0.64 -6.5,-0.26 -7.7,-3.56 -3.16,-5.68 -5.32,-11.88 -7.62,-17.94 -5.12,-14.9 -1.82,-32.5 -11.46,-45.7 -0.12,-21.58 -6.94,-42.32 -11.72,-63.2 -9.02,-38.44 -19.52,-76.86 -36.4,-112.66 0.42,11.26 0.32,22.56 0.24,33.86 -0.14,16.1 3.64,31.9 4.06,47.98 0.56,10 3.24,19.88 2.52,29.94 -1.48,16.68 3.88,33.2 1.68,49.86 -2.32,22.48 -1.86,45.16 -4.86,67.58 -3.74,-3.46 -8.76,-6.02 -11.32,-10.5 -4.1,-16.58 -2.72,-33.88 -3.52,-50.78 -2.04,-17.34 -1.2,-34.82 -1.78,-52.22 -1.54,-29.34 1.5,-58.68 0.36,-88.02 -1.9,-13.8 0.64,-27.7 -1.22,-41.5 -1.24,-11.36 -5.5,-22.16 -6.46,-33.58 z"
     id="path194"
     inkscape:connector-curvature="0"
     style="fill:#f3722b" />
  <path
     d="m 913.44,680.26 c 2.8,-4.72 8.9,-3.48 11.44,0.78 5.8,10.5 6.96,22.8 6.84,34.6 -4.22,1.34 -11.08,1.9 -11.92,-3.86 -0.42,-10.84 -4.56,-20.96 -6.36,-31.52 z"
     id="path196"
     inkscape:connector-curvature="0"
     style="fill:#f3722b" />
  <path
     d="m 624.18,700.18 c -0.24,-3.86 3.66,-5.08 6.5,-6.28 2.2,5.62 4.84,11.08 6.5,16.9 1.36,4.12 -2.14,7.5 -3.94,10.84 -1.06,-0.14 -3.2,-0.4 -4.26,-0.52 -1.74,-6.94 -4.5,-13.74 -4.8,-20.94 z"
     id="path198"
     inkscape:connector-curvature="0"
     style="fill:#f3722b" />
  <path
     d="m 573.76,747.54 c 5.66,-8.38 13.58,-14.88 20.48,-22.2 1.04,3.98 2.18,7.96 3.32,11.92 -1.76,-0.2 -5.32,-0.62 -7.08,-0.82 -0.06,6.9 -0.04,13.82 0.22,20.74 -2,1.36 -3.98,2.7 -5.98,4.06 -0.08,6.64 -0.02,13.3 0.2,19.94 -2.46,0 -4.92,0 -7.36,0.02 -2.56,-11.02 -6.14,-22.24 -3.8,-33.66 z"
     id="path200"
     inkscape:connector-curvature="0"
     style="fill:#f3722b" />
  <path
     d="m 394.82,759.26 c -10.18,-10.84 -22.64,-19.2 -33,-29.82 11.32,7 22.9,13.86 32.64,23.06 0.1,1.68 0.26,5.06 0.36,6.76 z"
     id="path202"
     inkscape:connector-curvature="0"
     style="fill:#3e3e3e" />
  <path
     d="m 646.88,766.56 c -1.74,-6.94 3.36,-12.82 5.34,-19.08 0.32,5.14 1.32,10.22 3.24,15.02 3.94,10.16 5.14,21.06 8.12,31.5 1.1,3.8 1.48,7.76 1.64,11.72 -4.2,-0.56 -8.24,-1.8 -12.16,-3.32 1.48,-12.38 -3.82,-23.96 -6.18,-35.84 z"
     id="path204"
     inkscape:connector-curvature="0"
     style="fill:#f3722b" />
  <path
     d="m 394.46,752.5 c 2.84,2.38 5.78,4.68 8.66,7.02 -0.06,3.4 -0.14,6.82 -0.26,10.22 -3,-3.24 -5.7,-6.74 -8.04,-10.48 -0.1,-1.7 -0.26,-5.08 -0.36,-6.76 z"
     id="path206"
     inkscape:connector-curvature="0"
     style="fill:#f4e4c0" />
  <path
     d="m 394.88,766.76 c 3.1,3.46 5.92,7.16 8.54,11 -0.08,16.06 2.72,32.18 -0.02,48.2 0.96,8.64 1.36,17.3 1.4,26 4.24,15.8 1.54,32.32 2.8,48.44 0.9,2.02 2,3.96 3.34,5.78 -2.2,15.88 -1.44,31.94 -1.86,47.92 1.02,8.22 -2.96,15.9 -2.32,24.14 -6.82,2.1 -4.82,11.16 -5.98,16.6 -2.98,0.12 -5.94,0.2 -8.9,0.3 0.86,-2.16 1.74,-4.32 2.66,-6.46 0.08,-8.3 2.2,-16.4 2.16,-24.68 -0.22,-38.78 1.58,-77.68 -1.22,-116.36 -0.16,-26.96 -1.24,-53.92 -0.6,-80.88 z"
     id="path208"
     inkscape:connector-curvature="0"
     style="fill:#f4e4c0" />
  <path
     d="m 451.12,804.86 c 4.42,-2.38 9.42,-1.96 14.26,-1.7 -0.04,4.9 -0.26,9.78 -0.54,14.7 -4.88,-2.4 -9.56,-5.16 -13.82,-8.5 0.02,-1.14 0.08,-3.38 0.1,-4.5 z"
     id="path210"
     inkscape:connector-curvature="0"
     style="fill:#f4e4c0" />
  <path
     d="m 891.06,803 c 1.9,0.56 6.98,-0.72 5.52,2.98 0.42,6.28 -12.48,0.64 -5.52,-2.98 z"
     id="path212"
     inkscape:connector-curvature="0"
     style="fill:#f3722b" />
  <path
     d="m 448.92,821.58 c 4.86,1.8 8.9,5.06 12.72,8.48 -0.84,0.28 -2.52,0.86 -3.36,1.16 -2.74,2.54 -6.04,4.02 -9.8,4.2 0.02,-4.62 0.18,-9.24 0.44,-13.84 z"
     id="path214"
     inkscape:connector-curvature="0"
     style="fill:#f4e4c0" />
  <path
     d="m 590.74,834.5 c 2.22,-0.02 4.44,0.04 6.68,0.22 -0.08,12.64 -5.64,24.18 -11.54,35.04 -8.1,-11 -1.26,-25.04 4.86,-35.26 z"
     id="path216"
     inkscape:connector-curvature="0"
     style="fill:#f3722b" />
  <path
     d="m 446.68,856.02 c 4.58,-4.34 9.62,-8.16 14.48,-12.18 0.26,9.5 -1,19.1 1.66,28.38 -1.6,6.04 -2.4,12.2 -1.96,18.46 -4.2,-0.74 -11.78,2.7 -13,-3.18 0.04,-8.54 -6.1,-18.12 0.78,-25.48 -0.98,-1.92 -1.64,-3.92 -1.96,-6 z"
     id="path218"
     inkscape:connector-curvature="0"
     style="fill:#f4e4c0" />
  <path
     d="m 311,879.06 c 4.12,-4.46 10.98,-1.76 12.88,3.48 6.78,12.8 8.28,28.04 7.52,42.34 -2.44,0.64 -4.9,1.22 -7.36,1.7 -2.1,-2.26 -2.5,-5.44 -2.76,-8.36 -0.94,-13.5 -3.32,-27.34 -10.28,-39.16 z"
     id="path220"
     inkscape:connector-curvature="0"
     style="fill:#f3722b" />
  <path
     d="m 828.06,914.04 c 1.26,-5.58 0.58,-11.84 3.92,-16.78 0.88,0.1 2.64,0.26 3.5,0.34 2.74,18.94 -7.84,36.14 -9.24,54.62 -1.32,0.68 -3.94,2.02 -5.26,2.7 -3.86,-14.28 5.08,-27.14 7.08,-40.88 z"
     id="path222"
     inkscape:connector-curvature="0"
     style="fill:#f3722b" />
  <path
     d="m 855.16,943.92 c -0.36,-8.22 5.24,-15.28 6.72,-23.24 2.26,1.42 3.96,3.76 2.68,6.52 -1.94,6.12 -4.4,12.44 -9.4,16.72 z"
     id="path224"
     inkscape:connector-curvature="0"
     style="fill:#f3722b" />
  <path
     d="m 197.02,942.6 c -2.16,-1.78 -0.74,-6.58 2.4,-5.32 2.32,1.36 2.86,3.22 1.64,5.54 -1.02,-0.06 -3.02,-0.16 -4.04,-0.22 z"
     id="path226"
     inkscape:connector-curvature="0"
     style="fill:#f3722b" />
  <path
     d="m 246.32,944.78 c 3.44,-1.04 6.96,-1.12 10.3,0.32 -0.02,7.14 2.34,13.92 6.04,19.96 -1.7,1.94 -3.48,4.12 -6.4,3.4 -5.26,-6.9 -8.36,-15.22 -9.94,-23.68 z"
     id="path228"
     inkscape:connector-curvature="0"
     style="fill:#f3722b" />
</svg>
