<?xml version="1.0" encoding="UTF-8" standalone="no"?>
<svg
   xmlns:dc="http://purl.org/dc/elements/1.1/"
   xmlns:cc="http://creativecommons.org/ns#"
   xmlns:rdf="http://www.w3.org/1999/02/22-rdf-syntax-ns#"
   xmlns:svg="http://www.w3.org/2000/svg"
   xmlns="http://www.w3.org/2000/svg"
   xmlns:sodipodi="http://sodipodi.sourceforge.net/DTD/sodipodi-0.dtd"
   xmlns:inkscape="http://www.inkscape.org/namespaces/inkscape"
   width="1280"
   height="1280"
   viewBox="0 0 1024 1024"
   version="1.1"
   id="svg2"
   inkscape:version="0.48.1 "
   sodipodi:docname="destroy_stickies.svg">
  <metadata
     id="metadata52">
    <rdf:RDF>
      <cc:Work
         rdf:about="">
        <dc:format>image/svg+xml</dc:format>
        <dc:type
           rdf:resource="http://purl.org/dc/dcmitype/StillImage" />
        <dc:title></dc:title>
      </cc:Work>
    </rdf:RDF>
  </metadata>
  <defs
     id="defs50" />
  <sodipodi:namedview
     pagecolor="#ffffff"
     bordercolor="#666666"
     borderopacity="1"
     objecttolerance="10"
     gridtolerance="10"
     guidetolerance="10"
     inkscape:pageopacity="0"
     inkscape:pageshadow="2"
     inkscape:window-width="1920"
     inkscape:window-height="1018"
     id="namedview48"
     showgrid="false"
     fit-margin-top="0"
     fit-margin-left="0"
     fit-margin-right="0"
     fit-margin-bottom="0"
     inkscape:zoom="0.6609375"
     inkscape:cx="640"
     inkscape:cy="640"
     inkscape:window-x="-8"
     inkscape:window-y="-8"
     inkscape:window-maximized="1"
     inkscape:current-layer="svg2" />
  <path
     d="m 0,0 1024,0 0,1024 L 0,1024 0,0 z"
     id="path4"
     style="fill:#3e3e3e"
     inkscape:connector-curvature="0" />
  <path
     style="fill:#f5e5c1"
     d="M 367.21875 68.75 C 364.44492 68.864844 362.00625 70.48125 359.8125 72.375 C 336.7625 90.525 313.1125 107.9875 290.1875 126.3125 C 263.9875 126.3625 237.58125 130.60625 213.28125 140.65625 C 209.25625 141.98125 205.28125 144.43125 200.90625 144.03125 C 174.13125 138.80625 148.3375 127.89375 121.0625 125.59375 C 119.7625 154.71875 121.31875 183.9125 121.09375 213.0625 C 105.16875 236.6625 93.65625 263.2625 88.40625 291.3125 C 67.43125 307.5625 48.9375 326.6625 29.0625 344.1875 C 24.7125 346.6375 25.75 353.125 30.125 354.875 C 50.775 368.5 71.89375 381.3875 92.59375 394.9375 C 97.84375 397.8125 99.2625 403.8875 101.5625 408.9375 C 113.0375 436.6125 131.35625 461.2625 153.78125 481.0625 C 159.53125 485.7125 163.5125 492.09375 165.4375 499.21875 C 171.6625 521.21875 181.41875 541.9375 189.96875 563.0625 C 193.26875 570.6625 195.80625 578.6625 200.28125 585.6875 C 201.48125 585.7875 203.8625 585.9875 205.0625 586.0625 C 229.5375 568.6625 252.4375 549.1625 276.5625 531.3125 C 287.6875 531.5125 298.8125 531.4 309.9375 530.875 C 300.7625 516.1 289.8 502.5625 280.625 487.8125 C 293.575 476.6625 306.64375 465.66875 319.84375 454.84375 C 323.41875 451.56875 327.64375 448.75 330.09375 444.5 C 328.24375 437.825 324.76875 431.8375 321.96875 425.5625 C 307.06875 394.3875 292.5375 363.04375 277.4375 331.96875 C 273.9375 324.79375 270.60625 317.55625 267.90625 310.03125 C 301.10625 301.65625 333.59375 290.58125 366.84375 282.40625 C 360.59375 258.70625 350.88125 236.05 343.65625 212.625 C 365.45625 204.95 386.95625 196.4875 408.53125 188.1875 C 409.68125 182.1875 410.925 176.18125 411.875 170.15625 C 408.45 164.70625 405.2625 159.0375 403.5625 152.8125 C 397.8375 132.8125 388.8625 113.9125 381.3125 94.5625 C 377.7125 86.0375 374.89375 77.1375 370.09375 69.1875 C 369.09375 68.84375 368.14336 68.711719 367.21875 68.75 z M 365.59375 89.3125 C 376.84375 117.8875 388.4125 146.35625 399.0625 175.15625 C 398.2125 176.70625 396.46875 179.85625 395.59375 181.40625 C 377.39375 184.55625 358.79375 180.71875 341.34375 175.46875 C 324.71875 170.09375 307.95625 163.78125 294.03125 153.03125 C 289.83125 150.98125 291.325 146.0375 290.75 142.3125 C 315.95 125.0125 340.11875 106.2375 365.59375 89.3125 z M 136.4375 140.46875 C 166.1125 148.16875 195.45 157.1125 225.125 164.8125 L 228.875 172.6875 C 217.525 192.9625 198.53125 207.24375 179.53125 219.84375 C 168.05625 227.01875 155.8875 233.90625 142.4375 236.40625 C 134.7625 237.90625 134.1125 227.73125 134.3125 222.40625 C 136.0375 195.13125 136.2125 167.79375 136.4375 140.46875 z M 252.6875 157.53125 C 268.2875 166.78125 282.875 177.5875 298.25 187.1875 C 310.75 196.8125 322.25 210.93125 321.75 227.53125 C 322.25 244.78125 312.175 261.16875 298 270.46875 C 279.15 283.21875 253.1 285.3875 233 274.3125 C 208.325 262.5625 199.81875 228.01875 215.71875 205.96875 C 227.39375 189.34375 240.8875 174.08125 252.6875 157.53125 z M 120.40625 286.09375 C 130.35625 304.91875 133.96875 326.4375 134.34375 347.5625 C 134.49375 364.0875 134.40625 381.09375 128.28125 396.71875 C 124.63125 396.34375 120.5375 397.31875 117.3125 395.09375 C 93.8625 379.21875 70.96875 362.43125 46.96875 347.40625 C 46.86875 346.78125 46.7 345.53125 46.625 344.90625 C 67.7 326.58125 88.4625 307.88125 109.1875 289.15625 C 112.0875 285.93125 116.55625 286.66875 120.40625 286.09375 z M 216.03125 331.28125 C 220.10703 331.29609 224.15625 331.86875 228.0625 333 C 260.4375 340.825 280.70625 378.7375 270.78125 410.1875 C 265.60625 429.2125 247.1625 443.58125 227.4375 443.78125 C 214.5125 444.78125 202.7125 438.50625 191.1875 433.65625 C 178.6625 427.85625 165.1375 424.05625 153.6875 416.15625 C 163.9875 392.78125 166.31875 365.425 183.46875 345.5 C 191.5125 336.14375 203.80391 331.23672 216.03125 331.28125 z M 186.125 472.78125 C 198.52344 472.75547 210.90625 474.08125 222.8125 477.71875 C 241.5125 483.31875 260.61875 489.7375 276.34375 501.6875 C 281.39375 504.9125 279.8875 512.6125 274.9375 515.1875 C 251.6125 532.1875 228.31875 549.29375 204.59375 565.71875 C 193.89375 538.79375 183.1625 511.8875 172.5625 484.9375 C 170.3375 481.0125 172.575 476.99375 173.75 473.21875 C 177.86875 472.94375 181.99219 472.78984 186.125 472.78125 z "
     transform="scale(0.8,0.8)"
     id="path6" />
  <path
     d="M 648.32,256.78 C 699.56,203.34 751.04,150.12 802,96.4 777.32,166.28 752.24,236 727.56,305.88 c -26.5,-16.22 -52.88,-32.64 -79.24,-49.1 z"
     id="path10"
     inkscape:connector-curvature="0"
     style="fill:#f5722c" />
  <path
     d="m 460.4,195.26 c 27.46,-8.8 58.18,-2.94 81.7,13.36 -26.7,-6.72 -55.42,-7.78 -81.54,1.84 -18.04,6.52 -35.24,18.32 -43.92,35.88 -6.34,12.06 -7.34,26.46 -3.78,39.52 -13.12,-9 -28.94,-15.32 -45.1,-13.26 -15.32,1.32 -28.7,12.88 -32.9,27.56 -6,18.88 0.42,38.54 8.68,55.6 -5.12,6.44 -10.9,13.36 -10.64,22.12 -1.46,14.12 5.58,27.06 13.46,38.18 -12.46,5.02 -25.06,10.3 -35.82,18.5 -17.64,15.34 -29.46,37.82 -29.8,61.44 -1.18,20.84 3.24,42.04 12.58,60.7 -4.46,-6.18 -10.12,-11.42 -14.26,-17.84 -12.44,-18.86 -17.14,-42.9 -11.88,-64.94 6.74,-30.12 30.5,-56.2 60.42,-64.4 -3.4,-6.88 -9.88,-12.04 -11.3,-19.88 -4.38,-13.66 3.52,-27.14 13.5,-35.92 -5.82,-8.6 -12.8,-16.88 -14.6,-27.46 -7.54,-27.92 11.08,-58.4 38.02,-67.24 14.54,-5.7 30.56,-4.24 45.1,0.62 7.3,-30.58 31.98,-55.7 62.08,-64.38 z"
     id="path16"
     inkscape:connector-curvature="0"
     style="fill:#f5e5c1" />
  <path
     d="m 527.56,297.56 c 2.84,-0.7 5.66,-1.38 8.52,-2.1 15.06,-1.6 29.52,4.9 40.32,15.06 -18.24,-3.88 -38.6,-2.88 -54.76,7.24 -5.28,3.14 -9.04,8.14 -13.74,12 -11.36,-1.14 -22.52,-4.42 -34.02,-4.32 -18.76,0.72 -38.2,5.16 -53.14,17.12 -12.16,9.28 -20.24,24.48 -19.08,39.98 1.9,18.14 13.86,33.68 28.72,43.5 -14.62,4.7 -28.56,15.9 -30.92,31.88 -2.64,17.8 10.06,33.72 24.66,42.24 -14.58,-5.04 -27.92,-15.32 -33.3,-30.18 -6.08,-18 -1.64,-39.32 12.86,-52.14 -7.54,-10.08 -13.82,-21.46 -15.44,-34.12 -3.72,-22.86 6.6,-46.92 24.6,-61.2 14.18,-11.68 32.94,-17.24 51.2,-15.76 13.3,0.44 25.5,6.38 36.7,13.08 5.9,-10.46 15.48,-18.38 26.82,-22.28 z"
     id="path22"
     inkscape:connector-curvature="0"
     style="fill:#f5e5c1" />
  <path
     d="m 666.26,440.48 c 6.56,1.6 13.56,2.34 19.34,6.14 20.18,12.42 26.6,42.22 13.26,61.8 21.48,9.14 37.48,27.96 45.6,49.58 5.36,16.08 7.72,33.12 5.98,50.02 -1.54,8.84 -3.4,17.64 -5.96,26.24 -5.52,15.16 -13.44,29.7 -25.12,41 -14.82,12.98 -21.78,32.02 -28.76,49.88 -9.04,22.24 -31.76,35.28 -54.5,39.44 -20.22,2.04 -41.86,-1.64 -58.14,-14.48 -2.3,-1.36 -5.28,-5.22 -7.86,-2.24 -33.08,29.62 -90.5,18.8 -113.46,-18.2 -9.56,-13.72 -9.12,-31.06 -6.76,-46.88 6.86,24.14 18.26,49.28 40.6,62.76 12.02,8.24 27.5,9.68 41.46,6.56 17.8,-5.56 31.4,-20.88 38.28,-37.82 8.74,13.46 19.7,26.4 34.82,32.82 17.56,8.2 39.54,4.64 53.94,-8.24 19.04,-16.72 26.92,-42.58 28.24,-67.18 17.34,-4.84 30.7,-18.94 37.2,-35.42 10.72,-26.6 9.06,-57.68 -3.12,-83.52 -8,-16.12 -20.44,-31.64 -38.38,-36.88 0.18,-0.48 0.54,-1.46 0.72,-1.96 10.28,-12.02 11.86,-29 8.36,-43.92 -3.46,-13.06 -12.2,-25.64 -25.74,-29.5 z"
     id="path26"
     inkscape:connector-curvature="0"
     style="fill:#f5e5c1" />
  <path
     d="m 545.28,450.28 c 8.22,-1.14 16.32,-3.58 24.7,-3.32 22.1,0.34 43.5,13.68 53.46,33.46 11.02,21.02 7.48,50.4 -11.16,66 13.76,4.08 26.88,12.44 33.9,25.32 6.54,11.14 7.14,25.88 0.52,37.12 -6.7,12 -19.94,19.16 -33.24,21.06 -10.08,2.1 -20.16,-0.96 -29.88,-3.38 -2.92,29.92 -37.88,49.74 -65.48,39.52 -11.46,-4.94 -19.78,-15.42 -21.48,-27.84 5.72,10.38 15.52,18.68 27.1,21.64 9.7,2.8 20.32,-0.2 28.24,-6.1 12.5,-9.68 19.56,-25.32 20.1,-40.96 13.1,0.16 24.78,8.38 38,8.12 8.84,-1.1 15.06,-9.06 17.64,-17.04 4.6,-15.12 0.98,-33.58 -11.78,-43.68 -9.22,-5.7 -20.18,-7.48 -30.24,-11.18 14.08,-13.18 26.8,-30.7 25.78,-50.92 0.38,-16.94 -11.32,-32.08 -25.98,-39.48 -12.32,-6.62 -26.52,-7.62 -40.2,-8.34 z"
     id="path28"
     inkscape:connector-curvature="0"
     style="fill:#f5e5c1" />
  <path
     d="m 808.04,479.4 c 30.74,-4.1 61.48,-8.4 92.28,-11.98 -39.24,22.98 -79.64,43.92 -119.16,66.38 -5.66,-11 -10.36,-22.44 -15.14,-33.84 -1.9,-4 -1.52,-8.48 -1.44,-12.78 13.98,-4.9 29,-5 43.46,-7.78 z"
     id="path30"
     inkscape:connector-curvature="0"
     style="fill:#f5722c" />
  <path
     d="m 67.24,549.9 c 41.14,-10.86 82.48,-20.96 123.72,-31.48 2.36,15.9 5.42,31.72 7.12,47.72 -43.68,-4.76 -87.3,-10.38 -130.84,-16.24 z"
     id="path32"
     inkscape:connector-curvature="0"
     style="fill:#f5722c" />
  <path
     style="fill:#f5e5c1"
     d="M 1154.75 712.1875 C 1151.65 717.6875 1148.5875 723.225 1145.5625 728.75 C 1122.5125 731.275 1099.375 732.775 1076.25 734.125 C 1076.675 758.35 1078.9 782.525 1079.375 806.75 C 1044.725 806.5 1010.025 806.4 975.375 806.125 C 983.25 855.1 989.9 904.275 998.375 953.125 C 978 961.75 957.7 970.7125 937.5 979.6875 C 941.875 996.3875 947.9625 1012.55 953.5625 1028.875 C 987.1375 1034.825 1022.0125 1031.925 1054.4375 1021.625 C 1070.0625 1027.225 1085.025 1035.1125 1101.25 1039.4375 C 1117.825 1044.0625 1133.4125 1053.1875 1150.8125 1054.0625 C 1154.9375 1016.1875 1155.7 978 1158.75 940 C 1168.05 926.975 1174.65 912.25 1180.125 897.25 C 1184.15 885.575 1195.725 879.4625 1204.625 871.9375 C 1223.95 854.8625 1242.45 836.725 1261.875 819.75 C 1261.5 816.175 1261.55 811.925 1257.625 810.25 C 1233.525 794.775 1208.625 780.55 1184.5 765.125 C 1179.275 762.3 1178.25 755.9375 1175.875 751.0625 C 1170.575 737.2125 1162.825 724.5375 1154.75 712.1875 z M 1158.9375 770.6875 C 1163.2125 770.8125 1167.9375 770.15625 1171.5625 773.03125 C 1195.3125 788.55625 1218.6625 804.7 1242.5625 820 C 1221.1625 839.6 1199.525 858.9 1178.25 878.625 C 1175.375 881.95 1170.8062 881.4 1166.9062 882 C 1153.8562 859.525 1152.5187 832.725 1152.8438 807.375 C 1152.8687 794.9 1154.4125 782.3875 1158.9375 770.6875 z M 1072.125 821.28125 C 1093.6436 821.48988 1112.157 839.34844 1116.25 860.03125 C 1120.05 879.18125 1123.3625 898.4375 1126.6875 917.6875 C 1101.8625 922.1125 1078.1125 934.05 1052.4375 931.875 C 1034.4875 931.375 1019.6375 916.38125 1014.5625 899.90625 C 1002.8625 864.33125 1032.1063 821.5875 1070.0312 821.3125 C 1070.7314 821.28203 1071.4309 821.27452 1072.125 821.28125 z M 1140.625 941 C 1142.85 945.275 1145.125 949.8125 1144.125 954.8125 C 1141.45 982.4625 1138.95 1010.125 1136.125 1037.75 C 1107.175 1028.4 1078.875 1017.175 1050 1007.625 C 1048.725 1004.95 1047.4375 1002.275 1046.1875 999.625 C 1054.6625 987.125 1065.9125 976.8875 1078.4375 968.5625 C 1097.3875 956.0125 1117.825 944.375 1140.625 941 z "
     transform="scale(0.8,0.8)"
     id="path34" />
  <path
     d="m 287.36,651.34 c 3.26,-2.84 6.94,-5.14 10.62,-7.4 14.92,24.24 30.3,48.2 44.52,72.86 -83.78,37.16 -167.58,74.32 -251.4,111.4 65.12,-59.28 130.66,-118.12 196.26,-176.86 z"
     id="path38"
     inkscape:connector-curvature="0"
     style="fill:#f5722c" />
  <path
     d="m 650.24,790.16 c 16.16,-9.06 32.6,-17.66 48.94,-26.42 9.14,44.74 18.2,89.52 26.48,134.42 -23.9,-33.88 -50.32,-65.94 -74.28,-99.76 -1.4,-2.24 -4.68,-6.42 -1.14,-8.24 z"
     id="path44"
     inkscape:connector-curvature="0"
     style="fill:#f5722c" />
  <path
     d="m 496,811.38 c 27.48,-5.06 54.96,-10.24 82.52,-14.86 -1.54,36.5 -1.48,73.06 -2.26,109.58 -1.16,23.64 -1.02,47.3 -1.7,70.96 C 548.32,921.84 522.08,866.64 496,811.38 z"
     id="path46"
     inkscape:connector-curvature="0"
     style="fill:#f5722c" />
</svg>
