<?xml version="1.0" encoding="UTF-8" standalone="no"?>
<svg
   xmlns:dc="http://purl.org/dc/elements/1.1/"
   xmlns:cc="http://creativecommons.org/ns#"
   xmlns:rdf="http://www.w3.org/1999/02/22-rdf-syntax-ns#"
   xmlns:svg="http://www.w3.org/2000/svg"
   xmlns="http://www.w3.org/2000/svg"
   xmlns:sodipodi="http://sodipodi.sourceforge.net/DTD/sodipodi-0.dtd"
   xmlns:inkscape="http://www.inkscape.org/namespaces/inkscape"
   width="1280"
   height="1280"
   viewBox="0 0 1024 1024"
   version="1.1"
   id="svg2"
   inkscape:version="0.48.1 "
   sodipodi:docname="charge_kill.svg">
  <metadata
     id="metadata70">
    <rdf:RDF>
      <cc:Work
         rdf:about="">
        <dc:format>image/svg+xml</dc:format>
        <dc:type
           rdf:resource="http://purl.org/dc/dcmitype/StillImage" />
      </cc:Work>
    </rdf:RDF>
  </metadata>
  <defs
     id="defs68" />
  <sodipodi:namedview
     pagecolor="#ffffff"
     bordercolor="#666666"
     borderopacity="1"
     objecttolerance="10"
     gridtolerance="10"
     guidetolerance="10"
     inkscape:pageopacity="0"
     inkscape:pageshadow="2"
     inkscape:window-width="1920"
     inkscape:window-height="1018"
     id="namedview66"
     showgrid="false"
     fit-margin-top="0"
     fit-margin-left="0"
     fit-margin-right="0"
     fit-margin-bottom="0"
     inkscape:zoom="0.6609375"
     inkscape:cx="466.00473"
     inkscape:cy="640"
     inkscape:window-x="-8"
     inkscape:window-y="-8"
     inkscape:window-maximized="1"
     inkscape:current-layer="layer1"
     inkscape:snap-page="true" />
  <g
     inkscape:groupmode="layer"
     id="layer1"
     inkscape:label="background"
     style="display:inline">
    <rect
       style="fill:#3e3e3e;fill-opacity:1;fill-rule:nonzero;stroke:none"
       id="rect3017"
       width="1280"
       height="1280"
       x="0"
       y="0"
       transform="scale(0.8,0.8)" />
  </g>
  <g
     inkscape:groupmode="layer"
     id="layer3"
     inkscape:label="foreground">
    <path
       style="fill:#f5e5c1"
       d="m 479.55,38.75 c -0.4975,-0.014 -1.03,0.015 -1.55,0.1 -17.34,1.62 -34.63,3.74 -51.95,5.6 -24.42,1.82 -48.16,8.12 -72.2,12.4 -9.74,1.98 -19.89,3.14 -28.75,8 -18.5,9.64 -37.48,18.35 -55.8,28.25 -17.42,11.78 -33.84,25.02 -50.9,37.3 -7.6,5.62 -15.64,10.9 -21.8,18.2 -11.6,13.72 -24.93,25.79 -37.55,38.55 -5.9,5.9 -9.13,13.69 -12.75,21.05 -9.44,19.14 -18.94,38.23 -28.4,57.35 -4.08,8.34 -8.77,16.48 -11.55,25.4 -10.84,36.38 -21.69,72.74 -32.65,109.1 -1.38,4.98 -3.62,10.05 -2.9,15.35 3.48,1.82 7.42,2.78 10.8,4.8 6.92,5.6 10.93,14.19 18.45,19.15 12.46,-0.5 24.65,-4.01 36.85,-6.45 8.64,17.46 16.06,35.48 24.4,53.1 2.2,5.62 8.86,6.64 13.6,9.3 15,6.7 29.78,13.99 44.8,20.65 -8.48,17.36 -9.16,36.99 -14.5,55.25 -8.46,5.6 -20.29,6.95 -25.85,16.25 -2.46,4.42 1.96,7.75 4.4,10.85 5.58,6.96 12.33,12.99 17.25,20.45 0.66,7.4 -1.71,14.68 -2.45,22 -7.48,2.28 -16.29,5.05 -19.15,13.25 0.64,7.24 3.25,14.13 4.65,21.25 8.26,-11.94 20.27,-20.27 30.55,-30.15 0.74,-11.58 0.22,-23.3 0.3,-34.9 -2.66,-5.5 -7.1,-9.89 -10.3,-15.05 -0.8,-1.76 -3.12,-3.53 -1.7,-5.55 6.8,-3.74 16.05,-4.98 19.75,-12.7 0.98,-4.26 -2.25,-8.56 -0.95,-12.9 2.26,-11.84 4.69,-23.65 7.25,-35.45 20.62,9.14 40.69,19.65 61.85,27.55 4.96,-11.88 8.28,-27.37 22.6,-31.25 -4.9,19.06 -14.28,36.57 -21.2,54.95 17.18,-15.32 35.3,-29.54 51.9,-45.5 7.04,-6.88 15.85,-12.59 19.85,-21.95 6.34,-11.64 10.11,-25.15 20.15,-34.35 5.08,-4.78 9.33,-11.51 16.85,-12.45 11.52,-1.94 23.49,-7.79 35.15,-3.35 10.98,4.16 24.02,4.4 32.8,13 8.26,7.66 16.51,15.39 25.55,22.15 3.48,12.36 12.77,21.73 18.45,32.95 1.78,9.14 -0.33,18.51 -0.15,27.75 -0.58,7.04 1.4,15.31 -4,20.95 -6.48,7.72 -10.55,17.09 -16.65,25.05 -8.3,4.9 -17.99,6.94 -26.85,10.7 -12.06,5.28 -25.86,-1.45 -37.8,4.35 -14.8,5.7 -30.49,8.64 -45.05,15 10.6,0.48 20.98,3.23 31.6,3.15 12.52,-0.04 25.48,4.09 37.7,-0.25 12.1,-3.86 24.37,-7.08 36.45,-11 11.42,-3.7 16.96,-15.22 24.1,-23.9 6.14,-8.96 14.43,-16.72 18.55,-26.9 1.4,-13.62 1.76,-27.45 2.2,-41.15 -5,-18.14 -17.09,-33.79 -20.25,-52.55 -9.2,-8.22 -18.41,-16.46 -27.65,-24.6 -5.06,-4.38 -9.66,-10.06 -16.6,-11.3 -10.14,-2.1 -20.19,-4.87 -30.45,-6.35 -9.56,0.46 -18.73,3.81 -28.15,5.35 -6.86,1.52 -14.48,2.23 -19.8,7.35 -9.6,9.1 -18.6,18.85 -28,28.15 -3.86,4.14 -8.4,8.21 -9.8,13.95 -3.78,14.82 -9.37,29.13 -14.95,43.35 -4.46,0.08 -8.91,0.14 -13.35,0.2 -1.44,-2.46 -2.9,-4.88 -4.4,-7.3 -1.84,-16.82 -4.3,-33.58 -6.2,-50.4 -0.84,-4.64 2.03,-8.65 4.05,-12.55 8.06,-14.08 15.59,-28.45 23.45,-42.65 1.56,-2.92 3.67,-5.59 6.65,-7.15 9.72,-5.66 19.64,-11.03 29.4,-16.65 6.78,-3.78 13.45,-8.21 21.25,-9.55 10.7,-1.88 21.39,-3.73 32.05,-5.85 12.46,-2.84 24.14,3.67 36,6.35 12.82,4.34 27.09,5.59 38.25,13.85 13.66,9.04 27.4,17.98 41.2,26.8 3.6,2.18 6.8,5.12 8.4,9.1 11.26,24.14 22.5,48.27 33.9,72.35 1.36,3.18 2.64,6.55 2.7,10.05 0.6,20.64 0.29,41.28 0.55,61.9 -0.1,4.64 0.43,9.54 -1.55,13.9 -4.32,10.32 -9.04,20.43 -13.3,30.75 -6.46,17.6 -24.41,26.35 -37.35,38.55 -8.2,8.56 -20.44,9.69 -31.2,13.05 -8.68,2.22 -17.07,5.56 -25.95,6.9 -9.76,-0.52 -19.17,-3.7 -28.75,-5.4 -9.68,-2.32 -20.09,-2.97 -28.75,-8.35 -16.44,-9.56 -32.94,-19.09 -49.5,-28.45 -4,-2.22 -7.66,-4.98 -11.1,-8 -9.32,2.96 -18.73,5.57 -27.95,8.85 15.34,10.08 30.21,20.86 45.35,31.2 7.42,5.02 14.34,11.23 23.1,13.85 13.18,4.12 26.36,8.2 39.5,12.5 9.08,3.28 18.82,1.38 28.2,0.9 12.22,-1.5 24.74,-0.15 36.8,-3.05 2.88,-1.06 5.74,0.09 8.3,1.45 20.64,11.04 41.04,22.53 61.8,33.35 -1.56,3.92 -2.24,8.05 -2.6,12.25 28.8,10.58 57.24,22.03 85.9,32.95 23.06,9.22 46.64,17.33 69.4,27.25 l 0.2,1.55 c -5.66,9.32 -13.16,17.43 -19.4,26.35 -3.7,5.78 -9.63,9.36 -15.65,12.3 -19.36,9.84 -38.44,20.13 -57.7,30.15 -7.02,3.84 -15.36,2.34 -23,3.6 -15.36,0.66 -30.67,2.54 -46.05,3 -26.16,1.46 -50.82,-8.7 -75.8,-14.8 -23.44,-7 -47.64,-11.82 -70.6,-20.2 -42.04,-26.32 -83.16,-54.09 -124.8,-81.05 -2.54,-1.7 -5.54,-2.58 -8.6,-2 -9.48,1 -18.94,2.15 -28.5,2.15 -4.76,-9.06 -5.83,-22.22 -16.65,-26.3 -16.38,-7.64 -32.73,-15.41 -49.15,-22.95 3.66,-8.36 9.8,-15.47 12.7,-24.15 -0.3,-3.7 -1.37,-7.28 -2.15,-10.9 -5.34,1.7 -10.7,3.3 -16.1,4.7 -1.22,-1.52 -2.42,-3.03 -3.6,-4.55 0.92,-2 1.86,-4.02 2.8,-6 -1.44,0.06 -2.91,0.15 -4.35,0.25 0.86,4 0.38,8.52 3.1,11.9 1.46,4.94 4.39,10.71 0.35,15.25 -3.8,8.46 -14.65,4.38 -21.25,8.7 -7.12,4.9 -11.38,12.71 -16.8,19.25 -2.88,3.42 -6.26,8.98 -2.5,13 31.36,36.02 62.6,72.12 93.7,108.4 3.06,2.84 5.46,7.97 10.3,7.65 12.92,-0.34 25.58,-3.52 38.4,-4.9 3.84,11.6 4.3,24.35 9.4,35.45 12.26,11.76 26.02,21.85 38.9,32.95 8.44,6.5 15.7,15.35 26.4,18.15 27.58,9 54.87,18.87 82.55,27.55 31.86,4.72 64.04,7.61 96,11.75 8.08,0.6 16.18,2.85 24.3,1.35 35.94,-5.2 71.89,-10.21 107.85,-15.25 5.86,-0.78 11.15,-3.55 16.25,-6.35 27.6,-15.26 55.36,-30.27 83,-45.45 6.64,-3.7 12.04,-9.12 17.5,-14.3 23.74,-22.9 46.96,-46.34 71.1,-68.8 10.7,-9.36 15.91,-22.92 22.95,-34.9 14.62,-26.86 30.52,-53.04 44,-80.5 -0.64,-3.5 -1.82,-7.17 -0.5,-10.65 13.74,-47.38 27.22,-94.87 41,-142.25 0.8,-3.14 1.92,-6.58 0.4,-9.7 -6.28,-16.76 -14.03,-32.93 -19.85,-49.85 -1.78,-26.08 2.1,-52.21 1.1,-78.35 -7.7,-2.88 -17.74,-2.2 -23.6,-8.4 -9.56,-27.04 -16.85,-54.94 -26.35,-82 -9.8,-21.34 -19.19,-42.84 -30.35,-63.5 -14.8,-24.52 -30.53,-48.52 -45.55,-72.9 -2.42,-4.04 -5.5,-7.58 -9.1,-10.6 -12.3,-10.38 -24.17,-21.32 -36.45,-31.7 -15.78,-12.28 -31.73,-24.2 -47.55,-36.4 -7.14,-5.44 -14.03,-11.36 -22.15,-15.3 C 678.29,94.16 644.98,77.15 611.5,60.55 c -3.98,-1.94 -7.56,-4.5 -10.9,-7.4 -9.34,-1.78 -18.98,-3.42 -28.5,-2.3 C 561.98,54.77 553.84,62.46 544,67 534.8,65.7 526.24,61.68 517.3,59.2 506.54,56.4 497.89,49.08 488.85,43 c -2.87,-1.8375 -5.8175,-4.15238 -9.3,-4.25 z m -19.25,21.7 c 1.16003,-0.0107 2.34,-0.035 3.5,0 15.06,6.28 27.36,18.66 43.7,22.1 9.56,2.14 18.71,6.32 28.55,7 10.34,-2.48 17.78,-11.57 28.1,-14.25 3.32,-0.76 6.69,-1.33 10.05,-1.95 0.94,0.5 2.83,1.5 3.75,2 1.98,2.24 4.04,4.48 6.6,6.1 29.88,18.74 60.07,37.07 89.75,56.15 31.22,24.76 61.93,50.15 93.05,75.05 3.7,2.9 7.17,6.13 9.85,10.05 22.98,32.34 46.18,64.53 69.2,96.85 4.6,6.62 10.05,12.81 13.15,20.35 12.68,31.84 24.59,64.05 37.85,95.65 -29.7,7.42 -59.9,12.7 -89.7,19.8 -11.34,-29.7 -22.95,-59.3 -34.35,-89 -2.9,-7.46 -5.29,-15.26 -9.75,-22 -10.98,-16.64 -21.99,-33.23 -32.85,-49.95 3.32,-17.02 7.39,-33.94 9.95,-51.1 -14.68,1.78 -22.94,15.09 -34.6,22.15 -25.9,-20.56 -51.38,-41.73 -77.1,-62.55 -5.82,-4.78 -13.17,-6.68 -20.05,-9.4 -23.08,-8.82 -46.21,-17.63 -69.25,-26.55 -4.44,-1.7 -9.02,-3.14 -13.7,-4 -29.1,-5.2 -58.22,-10.23 -87.3,-15.65 -8.32,-1.54 -16.62,1.05 -24.8,2.15 -25.38,4.34 -50.97,7.57 -76.25,12.35 -18.38,8.18 -35.38,19.16 -53.2,28.5 -12.06,7.16 -25.81,12.15 -35.55,22.65 -12.92,13.04 -26.05,25.89 -39.05,38.85 -7.18,6.92 -10.26,16.64 -14.7,25.3 -7.64,16.32 -16.45,32.14 -22.45,49.2 -5.72,15.52 -11.55,31.02 -17.35,46.5 -4.08,11.04 -5.92,22.75 -8.7,34.15 -11.48,3.9 -22.99,7.67 -34.75,10.65 -0.98,-4.1 -2.08,-8.14 -3.2,-12.2 -3.7,-1.12 -7.43,-2.21 -11.15,-3.25 -2.06,-5.8 -4.61,-12.08 -2.15,-18.2 7.22,-23.28 14.35,-46.59 21.65,-69.85 2.88,-8.26 5.33,-16.96 10.55,-24.1 9.96,5.92 18.66,13.71 28.6,19.65 3.94,1.86 9.64,3.47 12.9,-0.45 5.26,-6.14 9.52,-13.36 12.2,-21 0.24,-7.72 -1.67,-15.55 -4.35,-22.75 -6.16,-5.3 -13.54,-9.14 -20.9,-12.5 -5.42,0.76 -10.37,3.25 -15.45,5.15 4.84,-10.88 10.19,-21.49 15.85,-31.95 6.06,-11.04 10.68,-23.01 19,-32.65 11,-13.08 21.42,-26.71 32.6,-39.65 18.56,-17.2 39.79,-31.12 61.15,-44.6 13.4,-9.7 29.1,-15.25 43.8,-22.55 18.32,-9.9 39.37,-11.94 59.15,-17.6 20.7,-6.32 42.52,-5.08 63.8,-7.4 8.1375,-0.1575 16.22973,-1.1748 24.35,-1.25 z m 172.1,34.1 c 1.88626,-0.15656 3.73,0.78 5.2,2.1 7.36,6.24 17.16,7.91 25.2,13.05 13.54,8.18 27.91,15.15 40.35,25.05 19.24,14.74 39.65,28.04 57.25,44.8 11.28,10.7 24.79,19.43 33.15,32.85 19.7,27.16 39.46,54.28 57.8,82.4 6.14,9.68 13.43,18.66 18.65,28.9 14.48,34.34 29.31,68.67 38.95,104.75 -14.14,-32.34 -25.99,-65.68 -39.25,-98.4 -1.34,-3.1 -3.18,-5.94 -5.1,-8.7 -25.84,-36.08 -51.72,-72.18 -77.5,-108.3 -3.06,-4.28 -7,-7.79 -11.1,-11.05 -30.76,-24.66 -61.12,-49.83 -92,-74.35 -14.54,-9.7 -29.56,-18.7 -44.5,-27.8 -3.38,-0.76 -6.12,-2.95 -9,-4.75 0.63,-0.325 1.27125,-0.49781 1.9,-0.55 z M 404.7,176.2 c 3.69843,-0.0181 7.39499,0.23499 11.1,0.9 20.66,3.46 41.4,6.51 62,10.25 29.44,7.3 58.73,15.13 88.15,22.55 9.88,2.14 17.85,8.75 26.55,13.55 12.72,7.96 26.33,14.57 38.05,24.05 17.92,14.06 35.89,28.06 53.85,42.1 3.02,2.9 7.85,2.54 10.85,-0.2 7.16,-5.7 13.26,-12.63 20.6,-18.15 -3.1,12.84 -9.45,24.75 -11.15,37.95 -8.3,-3.7 -16.7,-7.4 -25.4,-10 -19.86,-1.96 -39.85,-1.86 -59.75,-3 -3.22,2.44 -5.51,5.7 -5.35,9.9 5.9,1.48 11.68,3.25 17.4,5.35 28.44,10.46 57.11,20.44 85.55,30.9 5.5,1.38 7.25,7.1 9.25,11.7 3.74,9.26 8,18.34 11.5,27.7 C 623.26,341.83 508.78,301.46 394.2,261.3 c -8.32,-3.16 -16.44,-6.98 -23.9,-11.8 -3.94,-2.72 -3.86,-9.12 -8.6,-10.8 -25.26,-9.56 -50.76,-18.62 -75.9,-28.5 11.12,-8.62 25.16,-11.34 38.1,-16.1 7.04,-1.82 14.27,-6.85 21.65,-3.75 24.16,8.08 48.66,15.23 72.6,23.95 5.78,2.06 12.38,5.4 18.4,2.3 3.28,-1.48 4.1,-5.07 4.7,-8.25 -4.8,-0.76 -9.64,-1.39 -14.2,-3.15 -18.66,-7.16 -36.8,-15.69 -55.2,-23.45 10.71,-2.80499 21.75469,-5.49563 32.85,-5.55 z m -116.6,40.05 c 15,5.18 29.25,12.29 44.05,17.95 9.64,3.9 19.6,6.96 29,11.4 -8.16,-1.26 -15.48,-5.31 -23.1,-8.25 -16.8,-6.64 -33.09,-14.54 -49.95,-21.1 z m -19.85,6.8 c 25.56,9.88 51.15,19.7 76.55,30 10.4,4.34 21.37,7.39 31.15,13.15 11.94,7.26 25.67,10.58 38.65,15.5 109.24,38.84 218.6,77.25 327.8,116.15 -7.54,3.82 -14.76,8.18 -22,12.5 -4,2.88 -8.78,0.27 -12.8,-1.15 -51.26,-21.06 -103.21,-40.46 -154.15,-62.3 -2.76,2.7 -6.49,4.96 -7.35,9 1.3,2.22 3.77,3.11 5.95,4.25 23.66,10.9 46.68,23.09 70.2,34.25 -8.82,2.96 -24.82,-0.27 -25.9,12.45 26.4,9.08 51.49,21.45 77.35,31.95 12.04,5.62 25.2,9.24 35.9,17.4 23.98,15.42 48.36,30.24 72.4,45.6 4.86,3.18 9.76,6.44 15,9 3.04,20.98 5.04,42.09 7.5,63.15 -1.52,23.3 -4.09,46.52 -5.85,69.8 -2.46,-1.56 -4.81,-3.3 -7.45,-4.5 -4.68,-0.64 -9.8,0.89 -14.1,-1.65 -44.2,-21.56 -88.52,-42.75 -132.8,-64.15 -9.1,-4.1 -17.7,-9.66 -27.6,-11.7 -2.14,-11.12 -1.58,-22.55 -3.1,-33.75 -1.28,-10.52 0.22,-21.55 -4,-31.55 -6.7,-15.28 -13.49,-30.56 -20.05,-45.9 -4.62,-11.82 -12.62,-21.95 -20.7,-31.55 -8.26,-7.18 -17.5,-13.09 -26.1,-19.85 -7.5,-5.4 -14.42,-11.9 -23.1,-15.4 -12.96,-5.48 -26.11,-10.57 -39.05,-16.15 -5.28,-2.12 -10.64,-4.86 -16.5,-4.6 -13.4,0.02 -26.75,0.44 -40.15,0.4 -4.76,0.08 -9.73,-0.21 -14.15,1.85 -13.68,6.06 -26.58,13.89 -40.3,19.85 -25.62,-9.38 -50.84,-19.9 -76.6,-29 0.14,-2.28 0.24,-4.54 0.4,-6.8 -13.22,-10.34 -26.37,-20.74 -39.65,-31 -3.82,-2.84 -6.92,-6.46 -9.8,-10.2 -5.64,2.34 -12.54,6.53 -11.7,13.65 9.02,7.52 18.65,14.32 27.65,21.9 -6.36,-3 -12.78,-6.08 -19.7,-7.6 -12.46,-2.34 -23.97,-7.84 -35.85,-12 -2.58,-1.34 -6.11,-1.91 -7.65,-4.55 -0.28,-4.18 1.94,-7.99 3.2,-11.85 3.12,-7.34 4.97,-15.45 10.25,-21.65 13.96,-16 28.18,-31.81 42.2,-47.75 3.68,-6.64 9.58,-11.34 16,-15.2 z m 391.95,83.9 c 6.81523,-0.0979 13.6375,0.2875 19.9,3.3 9.9,4.16 20.15,7.42 29.95,11.8 3.78,1.56 4.53,5.99 6.25,9.25 -22.68,-8.26 -45.2,-17.06 -68.3,-24.1 4.0125,0.045 8.11086,-0.1913 12.2,-0.25 z m -467.1,19.4 c 11.52,4.38 23.05,8.73 34.65,12.85 -0.28,1.36 -0.82,4.09 -1.1,5.45 35.78,19.36 70.95,39.9 107.15,58.5 2.24,-3 6.82,-5.64 5.4,-10 -17.74,-9.26 -35.05,-19.29 -52.85,-28.45 6.92,3.18 13.88,6.34 21.1,8.8 16.78,5.94 33.01,13.29 50.05,18.55 -9.92,7.84 -22.68,12.84 -29.2,24.3 -8.48,14.2 -19.62,27.05 -24.9,42.95 -3.3,8.76 -6.38,17.62 -10.2,26.2 -28.6,-13.86 -57.73,-26.64 -86.35,-40.5 -6.8,-2.92 -12.49,-10.47 -20.65,-8.25 -5.76,2.44 -9.93,7.89 -10.45,14.15 15.08,6.36 27.44,17.28 40.4,27 -2.34,1.88 -4.58,3.86 -7.1,5.5 -9.54,-6.46 -18.88,-13.42 -27.8,-20.7 -10.24,-12.7 -19,-26.62 -26.5,-41.1 1.8,-4.3 4.93,-7.94 6.65,-12.3 10.56,-27.64 20.84,-55.41 31.7,-82.95 z m 707.8,118.7 c 6.84,4.76 12.95,11.18 16.25,18.9 9.18,33.2 18.07,66.49 26.65,99.85 1.14,5.28 3.94,10.69 2.1,16.15 -10.32,41.42 -20.52,82.86 -30.7,124.3 -1.9,7.92 -3.41,16.07 -7.25,23.35 -13,24.64 -25.82,49.35 -38.7,74.05 -4.32,7.98 -7.62,16.77 -14.2,23.25 -22.82,22.56 -45.81,44.98 -68.75,67.4 -6.14,5.8 -11.59,12.58 -19.15,16.6 -6.4,3.54 -13.07,6.61 -19.35,10.35 5.9,-5.1 12.63,-10.07 15.75,-17.45 1.3,-6.42 1.23,-13.19 0.25,-19.65 -2.42,-5.9 -7.75,-10 -11.55,-15 -8.72,-1.64 -17.52,-3.58 -26.4,-3.7 -8.64,4.22 -15.62,11.6 -20.3,19.9 -1.8,4.5 -4.92,10.14 -1.6,14.7 3.68,5.48 6.98,11.5 12.1,15.8 6.82,4.2 14.33,7.08 21.75,10.1 -15.34,8.78 -31.19,16.57 -46.75,24.95 -6.12,3.44 -13.27,3.67 -20.05,4.65 -31.76,4.46 -63.49,8.96 -95.25,13.5 -7.3,1.24 -14.7,0.23 -22,-0.55 6.16,-7.82 7.16,-19.25 1.8,-27.75 -4.4,-10.22 -15.91,-13.81 -25.55,-17.25 -8.38,-0.22 -16.27,4.91 -21.45,11.25 -4.08,4.8 -3.93,11.46 -5.25,17.3 1.32,3.7 2.56,7.43 3.9,11.15 -14.96,-1.96 -30.25,-2.24 -44.95,-5.8 -27.34,-9.66 -54.5,-19.87 -81.9,-29.45 -10.9,-3.62 -19.25,-11.87 -28.15,-18.75 4.18,-6.94 14.3,-10.44 14.9,-19.3 -2.36,-8.7 -5.35,-17.42 -9.75,-25.3 -8.32,-6.7 -19.51,-11.33 -30.35,-9.05 -3.22,1.78 -5.95,4.52 -7.65,7.8 -1.28,6.72 -0.18,13.63 -0.6,20.45 -9.6,-8.04 -11.39,-21.08 -16.05,-32 -2.38,-3.56 -7.12,-2.14 -10.7,-2.6 -9.78,0.18 -19.39,-1.87 -29.15,-2.35 -24.3,-28.28 -51.02,-54.47 -73.2,-84.55 -6.02,-8.52 -14.12,-15.76 -18.1,-25.6 10.28,-2.14 19,4.18 27.9,8.1 0.7,6.92 1,13.86 1.5,20.8 6.78,-1.66 11.54,-6.8 12.8,-13.7 5.46,3.96 11.47,7.36 16.05,12.4 6.18,8.24 9.92,18.08 16.4,26.1 10.38,2.74 22.48,-0.97 31.7,5.65 36.76,23.64 74.16,46.18 111.6,68.7 13.44,9.2 28.14,16.2 42.7,23.4 3.72,1.76 7.88,2.03 11.9,2.65 12.46,1.42 23.47,8.25 35.75,10.45 24.8,4.56 49.66,8.72 74.4,13.6 11.88,1.74 23.25,-3.03 34.75,-5.15 16.4,-4.12 33.25,-6.51 49.35,-11.65 24.42,-11.82 48.18,-25.07 72.4,-37.35 11.46,-5.42 17.57,-17.1 25.95,-26 14.68,-16.04 30.56,-30.95 45.8,-46.45 3.14,-3.2 4.46,-7.6 6,-11.7 5.32,-15.52 11,-30.95 16.4,-46.45 3.54,-10.42 8.88,-20.69 7.9,-32.05 2.5,-34.7 6.01,-69.32 8.75,-104 0.58,-8.7 2.42,-17.41 1.3,-26.15 -4.06,-33.64 -8,-67.34 -11.9,-101 29.88,-7.02 60.17,-12.43 89.95,-19.85 z M 231.6,476.7 c 11.26,5.48 22.75,10.52 34.05,15.9 8.74,3.94 17.21,8.93 26.85,10.35 0.34,8.44 3.47,16.95 1.05,25.35 0.1,-2.76 0.31,-5.49 0.25,-8.25 -4.9,-2.58 -11.08,3.99 -16,0.05 -10.68,-6.58 -21.08,-13.54 -31.7,-20.2 -8.02,-4.94 -15.46,-11.26 -24.9,-13.3 3.52,-3.26 6.96,-6.56 10.4,-9.9 z M 613.3,576 c 26.54,12.48 53.06,25.11 79.3,38.25 5.42,2.84 11.71,3.95 16.85,7.25 -32.12,-11.72 -64.48,-22.8 -96.8,-34 0.18,-3.84 0.39,-7.68 0.65,-11.5 z m -3.5,26.3 c 7.6,3.84 15.72,6.4 23.9,8.7 -6.56,-1.28 -12.89,-4.39 -19.65,-4.15 -4.4,2.02 -8.01,5.35 -11.65,8.45 2.7,-4.2 5.1,-8.58 7.4,-13 z m 65.7,30.25 c 6.72629,0.12059 12.5575,4.45 18.7,6.9 -7.06,-2.8 -14.63,-3.77 -21.65,-6.65 1,-0.1725 1.9891,-0.26723 2.95,-0.25 z m -94,16.25 c 57.38,25.08 115.26,49.05 172.8,73.75 8.76,3.74 14.44,12 19.6,19.6 -4.4,13.92 -9.62,28.09 -18.5,39.85 -75.8,-30.34 -151.78,-60.3 -227.3,-91.3 10.48,-7.02 21.42,-13.39 31.4,-21.15 8.84,-5.18 16.52,-12.03 22,-20.75 z m 173,29.2 c 1.36406,0.0675 1.72501,1.18501 1.05,3.3 -2.78,0.8 -3.71,-0.2 -2.75,-3 0.68,-0.20499 1.24531,-0.3225 1.7,-0.3 z m -161.4,56.55 c 5.4,0.28 10.18,3.28 15.2,5.1 42.78,17.22 85.61,34.35 128.45,51.45 3.38,1.4 6.51,3.2 9.65,5.1 -3.42,0.86 -6.66,0.65 -9.8,-0.65 -48.82,-19.14 -97.84,-37.74 -146.7,-56.8 1.02,-1.42 2.1,-2.84 3.2,-4.2 z"
       id="path6"
       inkscape:connector-curvature="0" />
    <path
       d="m 554.4,122.52 c 5.62,-9.54 17.22,-14 27.9,-13.56 9.48,4.6 17.22,12.16 26.9,16.44 1.04,6.4 3.32,13.22 1.3,19.56 -5.36,8.26 -12.46,15.26 -19.22,22.36 -5.32,6.3 -14.2,3.86 -21.26,3.04 -9.4,-0.54 -14.7,-9.22 -20.62,-15.38 -2.06,-10.76 -2.06,-23.32 5,-32.46 z"
       id="path12"
       inkscape:connector-curvature="0"
       style="fill:#f5e5c1" />
    <path
       d="m 287.18,113.86 c 3.32,-1.3 6.72,0.52 9.94,1.26 5.74,2.04 11.96,3.14 17.22,6.34 4.32,6.12 6.24,13.58 8.38,20.68 -0.44,5.78 -4.36,10.56 -6.7,15.72 -2.88,5.08 -4.02,11.78 -9.6,14.78 -5.64,2.96 -12.06,5.24 -18.5,4.7 -4.84,-1.24 -9.22,-3.8 -13.64,-6.04 -8.26,-3.76 -9.66,-13.8 -12.74,-21.38 -0.94,-7.56 0.22,-15.86 3.8,-22.64 5.62,-6.58 14.06,-10.06 21.84,-13.42 z"
       id="path14"
       inkscape:connector-curvature="0"
       style="fill:#f5e5c1" />
    <path
       d="m 465.08,209.96 c 12.62,1.58 24.54,6.16 36.84,9.08 16.84,4.22 33.64,8.56 50.56,12.44 10.42,2.34 19.12,8.8 28.3,13.9 13.32,8.42 28.3,14.72 39.36,26.28 -7.56,2.86 -15.86,4.94 -21.8,10.82 -5.74,5.48 -7.32,13.56 -9.54,20.84 -17.8,-7.64 -36.62,-12.46 -54.58,-19.72 -26.32,-8.76 -52.24,-18.6 -78.66,-27.08 -22.5,-9.08 -46.46,-14.64 -67.92,-26.16 18.18,3.98 36.46,16.42 55.38,9.02 13.08,-3.64 21.18,-16.3 22.06,-29.42 z"
       id="path18"
       inkscape:connector-curvature="0"
       style="fill:#f4722b" />
    <path
       d="m 272.3,251.78 c 26.82,10.74 54.14,20.3 80.94,31.1 11.44,5.16 21.52,13.22 33.96,16.08 45.74,15.92 91.38,32.1 136.94,48.54 -0.92,3.4 -1.82,6.82 -2.7,10.24 -13.36,-4.84 -26.14,-11.1 -39.42,-16.08 -12.88,-4.4 -26.7,-2.06 -40,-2.44 -14.1,0.7 -28.96,-1.74 -42.26,4.2 -10.02,4.6 -19.94,9.46 -29.42,15.12 -16.14,-6.22 -32.24,-12.52 -48.48,-18.48 -9.04,-2.68 -13.48,-11.72 -20.94,-16.76 -13.46,-9.82 -26.58,-20.14 -38.8,-31.48 -5.02,-5.08 -12.54,-5.38 -19.14,-6.66 9.46,-11.4 19.94,-21.9 29.32,-33.38 z"
       id="path24"
       inkscape:connector-curvature="0"
       style="fill:#f4722b" />
    <path
       d="m 206.14,359.82 c 11.28,10.88 26.46,16.04 39.4,24.54 18.54,9.58 36.62,20 54.96,29.9 -6.46,12.6 -16.54,23.44 -19.46,37.66 -19.8,-9.06 -39.22,-18.88 -59.16,-27.6 -7.28,-3.4 -13.58,-9 -21.58,-10.72 -4.76,-1.04 -9.68,-1.08 -14.52,-1.44 6.72,-17.46 13.06,-35.1 20.36,-52.34 z"
       id="path30"
       inkscape:connector-curvature="0"
       style="fill:#f4722b" />
    <path
       d="m 612.38,440.3 c 14.88,6.16 29.88,12.04 44.5,18.84 12.36,5.4 25.54,9.32 36.72,17.12 14.5,9.7 29.88,18.02 44.3,27.86 11.3,7.38 23.48,13.48 34.22,21.74 3.12,2.28 3,6.56 3.56,10 0.72,9.52 1.9,18.98 3.26,28.44 2.6,15.16 -0.16,30.48 -1.6,45.6 -46.06,-22.38 -92.3,-44.34 -138.24,-66.94 -3.28,-19.66 -0.14,-40.48 -8,-59.24 -6.18,-14.5 -12.3,-29.02 -18.72,-43.42 z"
       id="path32"
       inkscape:connector-curvature="0"
       style="fill:#f4722b" />
    <path
       d="m 432.68,499.3 c 3.82,-8.68 11.6,-14.46 19.7,-18.86 6.84,3.92 13.18,8.68 19.42,13.5 -2.64,12.62 -15.98,17.12 -26.4,21.62 -4.46,-5.24 -8.56,-10.78 -12.72,-16.26 z"
       id="path38"
       inkscape:connector-curvature="0"
       style="fill:#f5e5c1" />
    <path
       d="m 858.82,482.92 c 5.72,-1.38 11.42,1.08 17.12,1.58 5.54,1.02 12.88,-0.64 15.88,5.5 4.16,7.32 12.64,15.08 8.2,24.18 -3.44,13.58 -14.04,24.8 -26.24,30.86 -10.48,-1.86 -20.34,-6.22 -30.72,-8.56 -2.94,-8.66 -5.88,-17.34 -8.06,-26.22 -2.02,-7.72 1.64,-16.74 8.84,-20.42 4.78,-2.7 9.72,-5.26 14.98,-6.92 z"
       id="path40"
       inkscape:connector-curvature="0"
       style="fill:#f5e5c1" />
    <path
       d="m 357.68,539.66 c 16.74,-14.66 34.34,-28.38 50.42,-43.8 3.46,14.74 8.2,29.14 12,43.78 2.98,14.1 17.64,20.5 24.88,32 -5.2,10.42 -5.64,22.42 -10.44,32.98 -3.42,2.24 -7.5,3.12 -11.34,4.38 -71.2,21.36 -142.1,43.8 -213.38,64.92 10.54,-12.8 22.96,-23.8 35.08,-35.04 35.74,-35.14 74.78,-66.6 112.78,-99.22 z"
       id="path42"
       inkscape:connector-curvature="0"
       style="fill:#f5e5c1" />
    <path
       d="m 459.4,533.4 c 9.38,-5.2 18.92,-10.16 28.48,-15.06 4.62,6.42 9.14,13 12.92,19.96 1.62,6.66 0.4,13.64 0.26,20.4 -15.84,3.46 -31.46,8.06 -47.58,10.06 -1.66,-6.6 -3.18,-13.24 -4.06,-19.98 -1.64,-6.94 4.92,-11.98 9.98,-15.38 z"
       id="path44"
       inkscape:connector-curvature="0"
       style="fill:#f5e5c1" />
    <path
       d="m 247.54,564.86 c 7.28,3.2 14.42,6.68 21.4,10.46 -0.52,3.3 -1.02,6.64 -1.52,9.96 -9.46,8.58 -18.54,17.56 -28.46,25.6 -0.94,-4.16 -1.88,-8.3 -2.82,-12.46 3.8,-4.42 8.34,-8.56 10.16,-14.26 2.2,-6.2 1.6,-12.88 1.24,-19.3 z"
       id="path46"
       inkscape:connector-curvature="0"
       style="fill:#f4722b" />
    <path
       d="m 860.76,580.7 c 6.04,-3.3 12.8,-0.58 19.08,0.4 6.08,1.1 12.72,3.4 15.88,9.18 4.76,9.12 11.72,18.58 9.28,29.5 -3.18,8.6 -11.6,14.06 -19.9,17.08 -8.76,3.44 -18.28,1.34 -27.22,0.02 -5.96,-2.44 -10.54,-7.32 -14.74,-12.04 -4.36,-4.3 -4.06,-10.8 -6.24,-16.14 -0.7,-2.48 -3.52,-5.02 -1.46,-7.64 6.62,-8.66 14.64,-17 25.32,-20.36 z"
       id="path50"
       inkscape:connector-curvature="0"
       style="fill:#f5e5c1" />
    <path
       d="m 278.08,678.48 c 14,-3.54 27.36,-9.72 41.66,-11.9 16.16,11.06 32.14,22.46 48.38,33.46 6.34,4.42 12.14,9.94 19.64,12.42 18.66,6.4 37.48,12.28 56.36,18 9.08,3.06 18.56,-0.54 27.84,-0.12 10.74,0.42 21.36,-1.16 32.02,-1.98 5.5,-0.86 10.02,2.8 14.58,5.24 9.24,5.7 19.48,9.52 28.7,15.26 6.86,2.96 6.28,11.88 11.3,16.68 7.96,9.82 21,11.7 32.08,16.16 34.36,14.24 69.56,26.36 103.82,40.88 -5.96,5.92 -13.76,9.16 -21.18,12.78 -14.1,8.04 -28.68,15.16 -42.88,22.92 -9.3,1.68 -18.88,1.9 -28.3,2.76 -12.14,-0.04 -24.1,2.54 -36.22,2.3 -13.74,0 -27.24,-3.02 -40.26,-7.12 -27.16,-7.5 -54.34,-14.82 -81.48,-22.34 -11.66,-2.94 -20.58,-11.34 -30.62,-17.4 -24.36,-14.74 -47.38,-31.56 -71.54,-46.58 -11.42,-7.04 -22.2,-15.08 -33.62,-22.1 -9.24,-5.76 -20.26,-2.18 -30.26,-1.42 -2.58,-7.4 -6.36,-14.94 -13.58,-18.74 -11.04,-6.14 -22.44,-11.72 -34.28,-16.12 1.12,-6.38 2.04,-12.8 2.66,-19.24 15.16,-4.28 29.9,-9.92 45.18,-13.8 z"
       id="path58"
       inkscape:connector-curvature="0"
       style="fill:#f4722b" />
    <path
       d="m 588.08,678.22 c 36.56,16.34 73.78,31.14 110.46,47.22 15.7,7.42 32.28,12.86 47.74,20.76 -0.94,1.8 -1.46,3.76 -1.58,5.86 -29.06,-13.24 -59.2,-23.96 -88.7,-36.1 -25.12,-10.34 -50.38,-20.26 -75.52,-30.48 2.52,-2.44 5.06,-4.84 7.6,-7.26 z"
       id="path60"
       inkscape:connector-curvature="0"
       style="fill:#f4722b" />
  </g>
</svg>
