<?xml version="1.0" encoding="UTF-8" standalone="no"?>
<svg
   xmlns:dc="http://purl.org/dc/elements/1.1/"
   xmlns:cc="http://creativecommons.org/ns#"
   xmlns:rdf="http://www.w3.org/1999/02/22-rdf-syntax-ns#"
   xmlns:svg="http://www.w3.org/2000/svg"
   xmlns="http://www.w3.org/2000/svg"
   xmlns:sodipodi="http://sodipodi.sourceforge.net/DTD/sodipodi-0.dtd"
   xmlns:inkscape="http://www.inkscape.org/namespaces/inkscape"
   width="1280"
   height="1280"
   viewBox="0 0 1024 1024"
   version="1.1"
   id="svg2"
   inkscape:version="0.48.1 "
   sodipodi:docname="crit_sword_kill.svg">
  <metadata
     id="metadata34">
    <rdf:RDF>
      <cc:Work
         rdf:about="">
        <dc:format>image/svg+xml</dc:format>
        <dc:type
           rdf:resource="http://purl.org/dc/dcmitype/StillImage" />
      </cc:Work>
    </rdf:RDF>
  </metadata>
  <defs
     id="defs32" />
  <sodipodi:namedview
     pagecolor="#ffffff"
     bordercolor="#666666"
     borderopacity="1"
     objecttolerance="10"
     gridtolerance="10"
     guidetolerance="10"
     inkscape:pageopacity="0"
     inkscape:pageshadow="2"
     inkscape:window-width="1920"
     inkscape:window-height="1018"
     id="namedview30"
     showgrid="false"
     fit-margin-top="0"
     fit-margin-left="0"
     fit-margin-right="0"
     fit-margin-bottom="0"
     inkscape:zoom="0.6609375"
     inkscape:cx="466.00473"
     inkscape:cy="640"
     inkscape:window-x="-8"
     inkscape:window-y="-8"
     inkscape:window-maximized="1"
     inkscape:current-layer="layer1"
     inkscape:snap-page="true" />
  <g
     inkscape:groupmode="layer"
     id="layer1"
     inkscape:label="background">
    <rect
       style="fill:#3e3e3e;fill-opacity:1;fill-rule:nonzero;stroke:none"
       id="rect3002"
       width="1280"
       height="1280"
       x="0"
       y="0"
       transform="scale(0.8,0.8)" />
  </g>
  <g
     inkscape:groupmode="layer"
     id="layer2"
     inkscape:label="foreground">
    <path
       d="m 547.94,86.96 c 87.9,-5.36 176.24,-3.34 263.86,5.5 33.1,3.3 66.14,7.46 98.86,13.54 C 798.42,208.34 685.52,309.98 572.98,412 539.16,371.38 499.72,335.28 455.28,306.54 402.38,271.52 342.44,247.56 280.36,234.76 198.14,217.88 112.26,219.3 30.52,238.32 c 48.1,-31.22 100.2,-55.78 153.46,-76.8 116.24,-44.46 240,-66.96 363.96,-74.56 z"
       id="path6"
       inkscape:connector-curvature="0"
       style="fill:#f4722b" />
    <path
       style="fill:#f5e5c1"
       d="M 1241.8438 117.34375 C 1241.2914 117.36089 1240.7406 117.4 1240.1875 117.46875 C 1221.8125 120.06875 1203.9313 126.1375 1187.6562 135.0625 C 1179.0813 140.4625 1172.0875 147.95625 1164.4375 154.53125 C 947.8875 353.85625 731.2375 553.075 514.6875 752.375 C 509.7125 756.2 502.9875 755.825 497.1875 757.5 C 490.9125 758.275 486.775 763.30625 482.5 767.40625 C 468.375 781.58125 454.0625 795.60625 439.9375 809.78125 C 434.3875 815.95625 425.975 817.54375 419.125 821.71875 C 414.3 827.01875 412.8375 834.3875 410.0625 840.8125 C 402.8625 843.3875 395.66875 845.99375 388.71875 849.21875 C 388.34375 853.11875 388.21875 857.0625 387.59375 860.9375 C 385.04375 864.7375 380.9625 867.1125 377.4375 869.9375 C 363.7875 879.6875 350.85 890.44375 336.75 899.59375 C 322.125 883.59375 309.525 865.85625 294.875 849.90625 C 288.075 844.23125 280.3375 853.00625 275.6875 857.65625 C 275.5875 861.53125 277.48125 865.00625 279.28125 868.28125 C 293.20625 892.58125 307.0375 916.9375 320.8125 941.3125 C 324.5875 948.1125 329.39375 954.25625 334.71875 959.90625 C 370.09375 998.78125 403.2875 1039.7 439.8125 1077.5 C 444.4625 1071.95 456.99375 1066.625 451.84375 1058 C 436.69375 1035.5 419.3875 1014.4313 404.8125 991.53125 C 421.4125 974.25625 436.8125 955.8375 453.8125 938.9375 C 460.2125 939.1375 466.81875 940.2375 473.09375 938.4375 C 478.69375 932.9875 479.0875 924.55625 482.9375 918.03125 C 488.7125 915.25625 495.85 915.1375 500.875 910.9375 C 504.025 905.2625 504.2125 898.31875 507.5625 892.84375 C 530.1375 873.29375 554.075 855.38125 576.625 835.78125 C 576.65 824.63125 575.1 813.4625 575.75 802.3125 C 581.175 794.8875 588.7875 789.39375 595.3125 782.96875 C 622.8625 757.99375 649.4375 731.95 677.5625 707.625 C 685.2875 699.35 694.975 693.23125 702.375 684.65625 C 713.9 672.00625 727.825 661.88125 740 649.90625 C 758.45 631.78125 778.9875 615.8125 796.3125 596.5625 C 866.0625 531.8625 935.875 467.23125 1005.5 402.40625 C 1001.6 392.73125 997.2875 383.23125 992.9375 373.78125 C 1004.4375 369.50625 1016.225 377.19375 1027.375 379.96875 C 1053.225 355.79375 1078.675 331.2125 1105.125 307.6875 C 1136.6 275.8375 1170.7812 246.75625 1202.5312 215.15625 C 1219.4563 197.90625 1240.275 183.89375 1252.875 162.84375 C 1260.075 149.19375 1255.9437 133.19375 1253.3438 118.84375 C 1249.5374 118.25313 1245.7097 117.22378 1241.8438 117.34375 z M 1231.6875 134.9375 C 1220.9625 142.3125 1210.9938 150.6875 1201.8438 159.9375 C 1201.6437 161.5875 1201.225 164.95 1201 166.625 C 986.5 364.425 771.7375 561.9125 557.3125 759.8125 C 549.5375 766.8375 542.31875 774.6 533.71875 780.625 C 527.04375 784.625 521.90625 776.5375 517.78125 772.5625 C 523.48125 764.9375 530.575 758.6125 537.625 752.3125 C 751.075 554.9875 964.65625 357.7875 1178.6562 161.0625 C 1193.4313 147.5625 1211.9375 138.2625 1231.6875 134.9375 z M 507.1875 772.25 C 517.2125 783.275 527.3375 794.41875 539.5625 803.09375 C 546.8875 808.09375 551.975 815.43125 556.875 822.65625 C 552.275 832.35625 543.28125 838.5 535.65625 845.625 C 522.50625 857.525 509.68125 869.775 496.28125 881.375 C 491.75625 884.875 489.8625 890.3375 487.8125 895.4375 C 474.8625 898.8375 466.0875 909.79375 459.8125 920.96875 C 442.3375 923.91875 432.3875 939.23125 420.1875 950.28125 C 409.9875 960.10625 399.79375 969.95 389.71875 979.875 C 387.04375 978.65 384.44375 977.3875 381.84375 976.0625 C 375.76875 979.7875 370.61875 984.75 365.96875 990.125 C 365.14375 987.65 363.5125 982.725 362.6875 980.25 C 367.6125 976.975 372.49375 973.65625 377.34375 970.28125 C 375.29375 960.05625 364.4875 950.73125 369.1875 939.90625 C 373.7875 926.85625 387.49375 920.9625 395.96875 910.9375 C 396.59375 908.1875 397.1375 905.43125 397.5625 902.65625 C 394.7625 902.88125 391.96875 903.25 389.21875 903.75 C 377.89375 910.775 369.3125 921.6125 357.4375 927.8125 C 350.4375 929.8125 344.7375 923.73125 338.0625 923.03125 C 333.5625 925.23125 329.9875 928.925 326.1875 932.125 C 325.0125 928.025 323.8375 923.975 322.6875 919.875 C 326.0125 917.475 329.29375 915.08125 332.59375 912.65625 C 336.54375 914.28125 340.94375 918.80625 345.34375 915.78125 C 358.89375 905.98125 371.4125 894.83125 384.6875 884.65625 C 393.2875 877.30625 405.4625 871.69375 406.5625 858.96875 C 419.2375 855.46875 432.59375 846.525 434.71875 832.625 C 439.21875 830.5 444.1 828.8 447.75 825.25 C 463.875 809.675 480.36875 794.475 496.21875 778.625 C 499.09375 775.3 503.0375 773.4 507.1875 772.25 z "
       id="path8"
       transform="scale(0.8,0.8)" />
    <path
       d="m 418.88,672.1 c -1.42,-8.76 8.02,-13.62 10.62,-21.24 2.02,0.2 6.06,0.6 8.08,0.8 -3.04,9.06 -12.08,14.14 -18.7,20.44 z"
       id="path14"
       inkscape:connector-curvature="0"
       style="fill:#f5e5c1" />
    <path
       d="m 392.12,665.3 c 1.02,-0.06 3.04,-0.2 4.04,-0.26 4.36,4.64 9.16,8.98 15.32,11.06 -0.12,1.4 -0.22,2.84 -0.32,4.28 -3.86,1.5 -7.56,3.4 -11.38,5.06 -3.1,-6.5 -5.9,-13.14 -7.66,-20.14 z"
       id="path16"
       inkscape:connector-curvature="0"
       style="fill:#f5e5c1" />
    <path
       d="m 353,687.38 c 2.26,-1.28 3.9,-5.9 7.06,-3.66 7.1,5.24 11.94,12.98 18.92,18.44 -0.04,1.56 -0.06,3.14 -0.06,4.72 -1.26,0.18 -3.76,0.52 -5.02,0.7 -6.96,-6.76 -13.76,-13.64 -20.9,-20.2 z"
       id="path18"
       inkscape:connector-curvature="0"
       style="fill:#f5e5c1" />
    <path
       d="m 349.34,715.1 c 4.48,3.2 9.14,6.88 10.54,12.5 -5.52,3.72 -10.36,8.96 -17.16,10.26 2.2,-7.58 4.46,-15.16 6.62,-22.76 z"
       id="path20"
       inkscape:connector-curvature="0"
       style="fill:#f5e5c1" />
    <path
       style="fill:#f5e5c1"
       d="M 320 955.15625 C 296.25 973.85625 272.0375 991.975 248.0625 1010.375 C 235.2625 1020.825 223.375 1032.2937 211.125 1043.3438 C 208.55 1046.2438 203.25625 1049.2562 205.90625 1053.7812 C 214.80625 1075.3812 234.84375 1088.6875 250.71875 1104.6875 C 257.89375 1103.2625 262.9375 1097.75 268.3125 1093.25 C 279.3375 1083.45 291.23125 1074.5375 301.15625 1063.5625 C 320.20625 1043.2125 339.275 1022.8875 358.875 1003.0625 C 358.75 1001.1375 358.65625 999.24375 358.53125 997.34375 C 355.75625 995.06875 353 992.80625 350.25 990.53125 C 345.4 994.45625 341.625 1000.7875 335.25 1002.3125 C 332.6 1000.1625 330.3 997.63125 327.875 995.28125 C 332.5 990.50625 340.19375 987.5 342.09375 980.75 C 335.16875 971.85 327 963.98125 320 955.15625 z M 324.6875 1000.0312 C 327.2375 1002.2063 329.6125 1004.575 332.0625 1006.875 C 308.8375 1035.825 280.24375 1059.8375 254.84375 1086.8125 C 250.24375 1080.7875 245.325 1075.075 240.375 1069.375 C 264.625 1048.075 289.76875 1027.8188 314.09375 1006.5938 C 317.34375 1004.0188 320.4375 1000.8062 324.6875 1000.0312 z "
       id="path22"
       transform="scale(0.8,0.8)" />
    <path
       d="m 100.26,904.24 c 18.2,-18.32 34.46,-38.56 53.64,-55.9 4.58,9.46 11.3,17.58 18.1,25.52 -20.74,20.34 -41.22,40.96 -62.24,61.02 2.34,3.7 4.74,7.36 7.14,11.02 21.84,-19.28 43.68,-38.56 65.44,-57.9 2.46,-3.1 6.16,-0.18 9.04,0.56 -0.44,3.42 1.14,8.02 -2.24,10.4 -19.12,16.98 -38.72,33.44 -57.96,50.28 -4.1,4 -7.86,8.4 -12.72,11.52 -12.52,-11.34 -23.36,-25.5 -25.92,-42.66 -1.62,-6.06 4.46,-9.78 7.72,-13.86 z"
       id="path26"
       inkscape:connector-curvature="0"
       style="fill:#f5e5c1" />
    <path
       d="m 62.12,930.5 c 6.56,-2.2 12.92,-4.96 18.72,-8.76 2.58,10.72 7.62,20.5 12.78,30.14 -6.14,7.42 -13.3,14.06 -20.92,19.96 -0.22,6.02 0.06,12.06 0.12,18.1 4.46,0.8 8.92,1.7 13.36,2.68 11.36,-5 15.2,-17.1 20.2,-27.38 3.04,1.02 6.1,1.98 9.2,2.92 -0.48,7.86 -2.66,15.8 -6.7,22.58 -8.18,6.6 -17.18,15.22 -28.62,13.3 -12.8,0.32 -23.14,-8.38 -30.5,-17.98 -9.5,-8.42 -11.46,-22.5 -8.44,-34.32 2.24,-10.28 11.14,-17.96 20.8,-21.24 z"
       id="path28"
       inkscape:connector-curvature="0"
       style="fill:#f5e5c1" />
  </g>
</svg>
