<?xml version="1.0" encoding="UTF-8" standalone="no"?>
<svg
   xmlns:dc="http://purl.org/dc/elements/1.1/"
   xmlns:cc="http://creativecommons.org/ns#"
   xmlns:rdf="http://www.w3.org/1999/02/22-rdf-syntax-ns#"
   xmlns:svg="http://www.w3.org/2000/svg"
   xmlns="http://www.w3.org/2000/svg"
   xmlns:sodipodi="http://sodipodi.sourceforge.net/DTD/sodipodi-0.dtd"
   xmlns:inkscape="http://www.inkscape.org/namespaces/inkscape"
   width="1280"
   height="1280"
   viewBox="0 0 1024 1024"
   version="1.1"
   id="svg2"
   inkscape:version="0.48.1 "
   sodipodi:docname="decapitate_players_fast.svg">
  <metadata
     id="metadata48">
    <rdf:RDF>
      <cc:Work
         rdf:about="">
        <dc:format>image/svg+xml</dc:format>
        <dc:type
           rdf:resource="http://purl.org/dc/dcmitype/StillImage" />
      </cc:Work>
    </rdf:RDF>
  </metadata>
  <defs
     id="defs46" />
  <sodipodi:namedview
     pagecolor="#ffffff"
     bordercolor="#666666"
     borderopacity="1"
     objecttolerance="10"
     gridtolerance="10"
     guidetolerance="10"
     inkscape:pageopacity="0"
     inkscape:pageshadow="2"
     inkscape:window-width="1920"
     inkscape:window-height="1018"
     id="namedview44"
     showgrid="false"
     fit-margin-top="0"
     fit-margin-left="0"
     fit-margin-right="0"
     fit-margin-bottom="0"
     inkscape:zoom="0.6609375"
     inkscape:cx="640"
     inkscape:cy="640"
     inkscape:window-x="-8"
     inkscape:window-y="-8"
     inkscape:window-maximized="1"
     inkscape:current-layer="svg2" />
  <path
     d="m 0,0 1024,0 0,1024 L 0,1024 0,0 z"
     id="path4"
     inkscape:connector-curvature="0"
     style="fill:#3e3e3e" />
  <path
     d="m 507.52,37.52 c 20.16,-14.4 46.62,-19.64 70.72,-13.88 26.18,5.44 49.18,23.54 61.16,47.36 17.22,33.12 11.3,77.2 -15.7,103.36 -2.34,-9.44 -6.28,-18.5 -7.92,-28.08 4.92,-10.84 9.72,-22.18 9.18,-34.38 0.32,-28.22 -19.46,-55.16 -46.56,-63.14 -29.2,-9.86 -63.84,4.76 -77.84,32.06 -13.2,23.74 -9.16,55.42 9.3,75.26 6.72,7.8 15.66,13.1 24.74,17.7 0.56,2.02 1.14,4.04 1.74,6.04 2,6.72 4.06,13.4 5.78,20.2 -41.02,-5.6 -73.42,-45.02 -73.46,-86.04 -1.4,-29.96 14.2,-59.66 38.86,-76.46 z"
     id="path6"
     inkscape:connector-curvature="0"
     style="fill:#f5e5c1" />
  <path
     d="m 267.5,61.36 c 5.92,-9.28 19.68,-5.8 25.2,2.1 8.6,11.7 6.48,27.2 4.08,40.58 -5.66,29.18 -22.8,54.54 -43.96,74.86 -9.92,8.46 -15.88,20.5 -19.16,32.92 -0.08,16.32 4.32,33 14.38,46.08 -9.98,-10.04 -21.3,-19.74 -26.76,-33.16 -6.28,-17.56 0.28,-36.7 9.5,-51.94 8.52,-17.42 13.76,-36.46 14.2,-55.9 2.64,10.3 4.46,20.78 5.26,31.38 7.22,-10.94 9.82,-23.92 13.62,-36.24 4.62,-16.6 -5.34,-34.94 3.64,-50.68 z"
     id="path8"
     inkscape:connector-curvature="0"
     style="fill:#f4722b" />
  <path
     d="m 186.9,79.4 c 7.28,-4.66 16.96,0.3 20.06,7.7 7.88,17.46 -0.3,36.8 4.64,54.82 -11.04,-12.98 -23,-25.68 -29.88,-41.52 -2.3,-7.1 -2.06,-16.8 5.18,-21 z"
     id="path10"
     inkscape:connector-curvature="0"
     style="fill:#f4722b" />
  <path
     d="m 516.66,99.96 c 24.78,-6.14 48.84,-14.98 73.58,-21.34 0.92,3.84 1.94,7.68 2.94,11.54 -24.78,6.66 -49.04,15.2 -73.88,21.6 -1.02,-3.9 -2,-7.82 -2.64,-11.8 z"
     id="path12"
     inkscape:connector-curvature="0"
     style="fill:#f5e5c1" />
  <path
     d="m 585.84,98.24 c 3.06,-0.94 6.2,-1.82 9.44,-1.62 4.4,13.26 7.78,26.86 12.28,40.1 -24.46,7.96 -49.24,14.94 -73.84,22.44 -3.54,-14.02 -9.22,-27.46 -11.62,-41.76 21.3,-6.22 42.54,-12.62 63.74,-19.16 z"
     id="path14"
     inkscape:connector-curvature="0"
     style="fill:#f5e5c1" />
  <path
     d="m 548.48,165.84 c 16.84,-4.76 33.66,-9.7 50.28,-15.16 5.98,18.42 11.56,36.98 16.82,55.6 -17.24,3.32 -34.2,8.28 -50.38,15.06 -5.96,-18.36 -11.4,-36.92 -16.72,-55.5 z"
     id="path16"
     inkscape:connector-curvature="0"
     style="fill:#f5e5c1" />
  <path
     d="m 506.94,265.04 c 46.32,-29.82 100.18,-47.5 155.04,-51.94 15.94,-0.68 31.94,-0.58 47.9,-0.04 64.14,4.42 126.84,28.08 177.78,67.32 67.1,50.9 112.84,128.52 125.74,211.66 7.2,46.42 5,94.54 -7.78,139.82 -19.04,70.28 -62.38,133.58 -120.84,176.94 -71.88,54.1 -166.32,76.7 -254.92,61.42 -91.64,-15.68 -176.24,-71.64 -224.32,-151.48 -0.74,-8.96 4.18,-17.62 5.04,-26.6 1.52,-17.16 11.52,-32.7 10.34,-50.2 -0.26,-5.42 1.38,-10.64 2.76,-15.82 11.42,39.88 33.62,76.3 61.64,106.68 49.4,52.68 120.26,84.88 192.54,86.42 74.88,2.58 150.36,-27.08 203.24,-80.24 48.56,-48.04 78.24,-114.74 80.78,-183.06 3.7,-80.52 -29.66,-162.22 -89.68,-216.26 -43.18,-39.78 -99.62,-64.86 -158,-70.6 -39.3,-4.44 -79.4,0.92 -116.8,13.48 -60.38,20.14 -113.04,62.22 -146.2,116.54 -20.9,34.2 -34.98,72.96 -38.78,112.96 -4.38,-7.04 -10.52,-13.22 -12.64,-21.44 -6.3,-23.2 -11.5,-46.68 -17.6,-69.92 -0.78,-3.06 -1.24,-6.38 0.26,-9.28 25.66,-59.76 69.82,-111.26 124.5,-146.36 z"
     id="path18"
     inkscape:connector-curvature="0"
     style="fill:#f5e5c1" />
  <path
     d="m 208.68,255.84 c 4.24,1.56 7.88,4.24 11.24,7.2 1.46,-0.12 4.36,-0.36 5.8,-0.48 5.98,6.58 15.14,10.22 23.98,8.3 5.7,-3.1 10.3,-8.48 17.2,-8.98 0.02,6.04 0.08,12.08 0.22,18.12 5.3,1.4 13.44,9.6 17.38,2.26 10.88,3.22 20.74,9.3 30.42,15.14 -0.06,1.28 -0.14,3.88 -0.2,5.18 8.58,4.56 17.54,8.32 26.14,12.82 5.98,3.06 7.68,10.1 10.66,15.58 9.4,17.02 9.36,37.22 16.78,54.98 0.78,2.6 2.52,5.08 2.2,7.9 -1.94,4 -6.8,7.34 -4.96,12.34 4.5,22.98 7.16,46.4 13.46,69 4.12,10.02 10.46,18.88 15.44,28.44 2.64,7.1 2.32,14.8 3.5,22.18 3.84,26.62 5.46,53.56 10.84,79.94 1.4,13.14 5.94,26.18 4.58,39.44 -3.78,4.78 -8.32,8.9 -12.14,13.68 -0.08,2.58 -0.16,5.18 -0.22,7.8 -5.2,4.38 -11.52,7.96 -14.42,14.42 -2.16,4.88 -5.66,8.9 -10.48,11.28 -1.78,-0.64 -3.56,-1.26 -5.34,-1.86 -1.36,-7.52 3.32,-13.56 5.76,-20.18 -0.1,-7.88 -3.22,-15.4 -6.36,-22.5 -2.44,6.3 -5.72,12.24 -10.1,17.4 -1.4,0.04 -4.2,0.14 -5.6,0.18 1.86,-6.32 3.4,-12.82 2.34,-19.42 -1.46,-6.68 2.74,-12.3 5.28,-18.08 4.52,-9.22 5.9,-20.04 13.22,-27.74 -0.24,-10.94 -3.7,-21.44 -4.94,-32.26 -5.1,-14.64 -14.5,-28.08 -15.16,-43.98 -1.46,-14.68 -2.76,-29.38 -4.7,-44 -8.78,-18.82 -13.94,-39.02 -20.16,-58.76 -1.26,-0.02 -3.8,-0.06 -5.06,-0.1 -1.8,-4.64 -3.42,-9.34 -4.88,-14.08 -0.74,-0.08 -2.24,-0.22 -2.98,-0.3 -2.48,7.88 -4.68,15.88 -8.2,23.36 -1.06,7.3 -0.62,14.7 0.44,21.98 2.06,9.76 2.3,19.78 3.9,29.62 0.94,4.86 6.98,7.38 7.2,12.38 -1.78,3.36 -4.06,6.42 -5.68,9.84 -0.72,7.6 0.56,15.22 2.16,22.64 0.58,0.9 1.76,2.7 2.34,3.6 1.08,17.34 2.64,34.72 4.78,51.94 0.4,4.86 0.54,9.76 0.64,14.66 1.9,1.68 3.78,3.4 5.68,5.1 0.44,12.06 0,24.18 1.62,36.16 1.1,9.98 0.26,20.08 1.8,30.04 1.46,9.96 -0.06,20.16 2.18,30.02 0.78,12.64 1.08,25.3 1.22,37.96 0.26,9.76 -3.74,18.86 -6.38,28.08 4.16,7.38 8.78,14.58 12.08,22.4 0.58,6.44 -3.74,12.02 -6.48,17.52 1.12,4.5 4.56,8.42 4.42,13.18 -2.96,1.76 -6.1,3.16 -9.24,4.58 -0.72,0.84 -2.14,2.56 -2.86,3.4 -0.6,16.94 0.42,33.96 -1.64,50.82 -0.12,13.3 -1.56,26.78 1.14,39.92 1.26,6.54 0.7,13.22 0.46,19.84 4.92,8.7 12.12,15.98 16.78,24.9 7.62,2.8 15.3,5.56 23.3,7.2 0.84,9.72 -0.62,19.42 -0.4,29.16 -16.28,0.3 -32.56,0.28 -48.84,0 -2.04,-3.88 -4.08,-7.76 -5.96,-11.7 -6.92,-0.84 -13.9,-0.82 -20.86,-0.5 -0.84,-14.18 2.02,-28.64 -1.68,-42.54 -0.46,-2.18 -0.68,-4.38 -0.9,-6.56 1.14,-0.88 3.44,-2.68 4.6,-3.58 -0.88,-26.14 0.34,-52.76 -6.72,-78.18 -3.06,-11.18 -4.84,-22.68 -8.38,-33.7 -5.2,-4.5 -11.76,-7.12 -17.2,-11.38 4.04,-12.14 5.92,-24.88 10.1,-37 -2.8,-5.38 -6.06,-10.6 -7.96,-16.4 0.58,-5.82 4.08,-11.32 2.4,-17.38 -4.46,-24.22 -10.2,-48.22 -14.92,-72.4 -8.22,-5.96 -19.3,-2.84 -24.92,5.1 -0.42,7.16 -1.98,14.18 -3.36,21.2 -0.82,3.98 -1.34,8 -1.92,12.02 -0.82,3.96 -1.54,7.96 -2.4,11.94 -0.46,8.9 -3.18,17.42 -4.76,26.14 -1.42,5.14 3.04,9.12 3.8,13.96 -2.22,5.64 -5.82,10.66 -7.76,16.42 1.4,13.34 8.16,25.82 8.12,39.4 -5.32,2.52 -10.42,5.44 -15.6,8.26 -5.3,19.78 -10.12,39.76 -13.82,59.92 -1.32,16.62 -0.38,33.36 -1.12,50.04 -0.54,3.56 2.72,5.68 4.64,8.16 -1.1,6.66 -4.12,12.96 -4.06,19.8 -0.44,9.04 1.66,17.94 1.86,26.96 -6.74,0.1 -13.48,0.1 -20.22,0.16 -2.52,3.84 -4.82,7.8 -6.9,11.88 -16.38,0.58 -32.76,0.18 -49.14,0.24 0.64,-9.28 -2.12,-18.3 -1.9,-27.56 8.54,-2.7 17.4,-4.7 25.36,-8.9 4.36,-8.84 10.88,-16.34 16.74,-24.18 -0.06,-0.62 -0.18,-1.88 -0.26,-2.5 -3.72,-5.56 -0.22,-12.18 0.18,-18.16 2.3,-11.7 1.96,-23.66 0.6,-35.44 -0.6,-17.86 -0.72,-35.76 -0.76,-53.62 -3.24,-4.2 -7.86,-6.78 -12.66,-8.82 1.64,-4.94 4.58,-9.3 6.76,-14 0.1,-4.04 -2.44,-7.5 -3.96,-11.04 -4.32,-8.02 -6.08,-17.06 -9.8,-25.34 4.44,-6.36 11.2,-13.16 9.04,-21.66 -3.84,-25.32 0.76,-50.74 1.52,-76.1 2.32,-24.5 3.86,-49.12 5.7,-73.7 3.62,-3.44 6.66,-7.4 9.24,-11.66 0.1,-12.86 -0.12,-25.8 1.9,-38.52 0.84,-6.7 -4.1,-13.92 0.24,-20.06 0.4,-7.68 0.42,-15.36 0.46,-23.04 -4.04,-3.38 -8.28,-6.54 -12.78,-9.26 0.46,-1.88 0.44,-3.96 1.62,-5.56 5.06,-7.62 10.56,-14.92 16.22,-22.1 3.74,-4.58 2.16,-11.02 3.6,-16.4 2.96,-15.18 -4.94,-29.18 -9,-43.3 -0.8,0.22 -2.38,0.7 -3.18,0.94 -1.26,4.74 -2.82,9.4 -4.7,13.96 -1.26,-0.02 -3.78,-0.06 -5.04,-0.08 -6.2,19.82 -11.64,39.92 -19.86,59.04 -3.26,17.54 -3.7,35.52 -5.96,53.2 -3.12,9.86 -7.9,19.1 -11.96,28.6 -3.66,12.52 -6.76,25.44 -7.14,38.54 3.36,3.9 6.66,8.06 7.82,13.22 2.64,9.82 7.8,18.64 11.72,27.96 -2.34,8.16 -1.24,16.4 1.14,24.44 -5.96,-0.4 -9.18,-5.42 -12.1,-9.88 -0.98,-3.06 -2.22,-6.02 -3.56,-8.9 -4.48,9.6 -8.38,21.58 -2.6,31.48 2.32,3.82 1.78,8.38 1.86,12.66 -1.9,-0.16 -5.72,-0.5 -7.62,-0.66 -4.88,-2.06 -6.34,-7.74 -9.08,-11.82 -2.64,-5.06 -8.2,-7.42 -11.76,-11.66 -1.74,-3.94 -2.26,-8.36 -4.44,-12.12 -2.6,-3.76 -6.34,-6.48 -9.9,-9.28 -1,-10.14 1.76,-20.04 3.3,-29.98 2.56,-13.26 4.66,-26.6 6.48,-39.96 1.86,-16.02 3.6,-32.08 5.98,-48 1.1,-9.06 0.4,-18.8 5.02,-27 4.96,-8.9 10.86,-17.38 14.42,-26.98 1.82,-6.58 2.8,-13.36 4.68,-19.94 2.88,-17.44 6.32,-34.8 8.8,-52.3 -5.22,-4.78 -5.3,-11.66 -3.1,-17.9 4.36,-15.28 6.88,-31.38 14.16,-45.6 6.16,-8.76 9.96,-20.36 20.28,-25.16 20.32,-10.64 40.6,-21.36 60.72,-32.36 2.18,-8.18 1.22,-16.64 1.44,-24.98 z"
     id="path20"
     inkscape:connector-curvature="0"
     style="fill:#f5e5c1" />
  <path
     d="m 648.4,291.98 c 6.56,-0.66 13.16,-1.04 19.76,-1.14 6,36.5 13.12,72.82 19.58,109.22 0.94,6.58 3.88,13.36 1.32,19.94 -8.7,27.98 -17.46,55.94 -25.94,84 -1.04,3.22 -2.38,6.36 -3.74,9.46 -2.76,-56.5 -6.5,-112.96 -9.16,-169.46 -1.62,-17.28 -1.98,-34.68 -1.82,-52.02 z"
     id="path22"
     inkscape:connector-curvature="0"
     style="fill:#f4722b" />
  <path
     d="m 602.74,298.14 c 6.18,-1.18 12.24,-3 18.14,-5.22 4,10.34 6.46,21.18 10.04,31.66 0.6,2.36 1.82,4.74 1.42,7.24 -6.08,2.24 -12.36,3.9 -18.58,5.72 -3.3,-13.24 -8.28,-26.02 -11.02,-39.4 z"
     id="path24"
     inkscape:connector-curvature="0"
     style="fill:#f5e5c1" />
  <path
     d="m 735.7,294.2 c 6.7,0.62 13.28,2.14 19.86,3.52 -5.96,42.28 -14.26,84.22 -21,126.4 -7.42,43.14 -14.78,86.3 -22.06,129.46 -16.76,-3.66 -33.3,-8.28 -50.16,-11.38 0.28,-8.5 3.84,-16.32 6.04,-24.42 22.34,-74.56 45.44,-148.9 67.32,-223.58 z"
     id="path26"
     inkscape:connector-curvature="0"
     style="fill:#f5e5c1" />
  <path
     d="m 782.38,344.7 c 6.52,-11.2 12.18,-22.88 18.86,-33.96 5.38,3.5 11.04,6.54 16.86,9.28 -5.62,11.5 -12.1,22.54 -17.94,33.92 -5.94,-3.08 -11.82,-6.22 -17.78,-9.24 z"
     id="path28"
     inkscape:connector-curvature="0"
     style="fill:#f5e5c1" />
  <path
     d="m 454.04,430.12 c 2.6,-6.24 5.84,-12.2 9.42,-17.92 12.08,7.04 24.48,13.56 36.96,19.92 -2.8,5.84 -5.8,11.6 -8.56,17.5 -13.1,-5.48 -24.94,-13.52 -37.82,-19.5 z"
     id="path30"
     inkscape:connector-curvature="0"
     style="fill:#f5e5c1" />
  <path
     d="m 896.66,469.9 c 12.16,-3.44 24.36,-6.88 36.3,-11.04 2.42,6.34 4.36,12.84 6.16,19.38 -12.52,3.12 -24.68,7.48 -37.14,10.78 -1.42,-6.48 -3.38,-12.8 -5.32,-19.12 z"
     id="path32"
     inkscape:connector-curvature="0"
     style="fill:#f5e5c1" />
  <path
     d="m 607.1,559.94 c -7.64,-32.44 7.52,-69.84 37.06,-85.98 0.62,8.04 1.16,16.1 2.66,24.04 -12.4,11.88 -20.3,28.76 -19.54,46.1 1.02,14.48 6.88,28.94 17.5,39.02 13.02,13.36 32.96,19.58 51.26,16.02 18.24,-2.94 34.44,-15.58 42.34,-32.22 9.6,-20.06 6.32,-45 -7.28,-62.44 2.42,-8.12 4.18,-16.38 6.3,-24.56 18.6,15.7 29.88,39.72 29.46,64.1 -0.64,20.5 -8.94,40.9 -23.7,55.3 -16.18,16.8 -40.1,25.46 -63.3,23.66 -34.62,-2.04 -65.68,-29.12 -72.76,-63.04 z"
     id="path34"
     inkscape:connector-curvature="0"
     style="fill:#f5e5c1" />
  <path
     d="m 437.94,607.76 c 13,-3.44 25.78,-7.7 38.72,-11.4 1.96,6.5 4.2,12.96 4.9,19.76 -12.98,2.84 -25.58,7.14 -38.26,11.08 -2.1,-6.4 -4.08,-12.82 -5.36,-19.44 z"
     id="path36"
     inkscape:connector-curvature="0"
     style="fill:#f5e5c1" />
  <path
     d="m 886.8,640.26 c 10.98,5.56 21.66,11.66 32.56,17.42 -3.36,5.76 -6.58,11.6 -9.8,17.42 -10.34,-6.04 -20.92,-11.7 -31.7,-16.96 2.42,-6.24 5.74,-12.04 8.94,-17.88 z"
     id="path38"
     inkscape:connector-curvature="0"
     style="fill:#f5e5c1" />
  <path
     d="m 560.82,756.92 c 5.06,-8.72 9.28,-17.88 14.58,-26.46 5.32,3.58 10.92,6.72 16.72,9.48 C 586.8,752 579.42,763 573.98,775 c -0.78,0.12 -2.34,0.36 -3.12,0.46 -4.7,-2.82 -9.54,-5.42 -14.58,-7.6 0.8,-3.92 2.52,-7.54 4.54,-10.94 z"
     id="path40"
     inkscape:connector-curvature="0"
     style="fill:#f5e5c1" />
  <path
     d="m 740.22,757.22 c 6.5,-1.92 13,-4.06 19.78,-4.72 2.2,12.72 8.42,24.5 9.4,37.42 -6.1,1.08 -12.08,2.82 -17.86,5.06 -3.8,-12.58 -7.72,-25.12 -11.32,-37.76 z"
     id="path42"
     inkscape:connector-curvature="0"
     style="fill:#f5e5c1" />
</svg>
