<?xml version="1.0" encoding="UTF-8" standalone="no"?>
<svg
   xmlns:dc="http://purl.org/dc/elements/1.1/"
   xmlns:cc="http://creativecommons.org/ns#"
   xmlns:rdf="http://www.w3.org/1999/02/22-rdf-syntax-ns#"
   xmlns:svg="http://www.w3.org/2000/svg"
   xmlns="http://www.w3.org/2000/svg"
   xmlns:sodipodi="http://sodipodi.sourceforge.net/DTD/sodipodi-0.dtd"
   xmlns:inkscape="http://www.inkscape.org/namespaces/inkscape"
   width="1280"
   height="1280"
   viewBox="0 0 1024 1024"
   version="1.1"
   id="svg2"
   inkscape:version="0.48.1 "
   sodipodi:docname="decapitate_cloaked_spy.svg"
   style="display:inline">
  <metadata
     id="metadata18">
    <rdf:RDF>
      <cc:Work
         rdf:about="">
        <dc:format>image/svg+xml</dc:format>
        <dc:type
           rdf:resource="http://purl.org/dc/dcmitype/StillImage" />
      </cc:Work>
    </rdf:RDF>
  </metadata>
  <defs
     id="defs16" />
  <sodipodi:namedview
     pagecolor="#ffffff"
     bordercolor="#666666"
     borderopacity="1"
     objecttolerance="10"
     gridtolerance="10"
     guidetolerance="10"
     inkscape:pageopacity="0"
     inkscape:pageshadow="2"
     inkscape:window-width="1920"
     inkscape:window-height="1018"
     id="namedview14"
     showgrid="false"
     fit-margin-top="0"
     fit-margin-left="0"
     fit-margin-right="0"
     fit-margin-bottom="0"
     inkscape:zoom="0.6609375"
     inkscape:cx="466.00473"
     inkscape:cy="640"
     inkscape:window-x="-8"
     inkscape:window-y="-8"
     inkscape:window-maximized="1"
     inkscape:current-layer="layer2"
     inkscape:snap-page="true" />
  <g
     inkscape:groupmode="layer"
     id="layer1"
     inkscape:label="background"
     style="display:inline">
    <rect
       style="fill:#3e3e3e;fill-opacity:1;fill-rule:nonzero;stroke:none"
       id="rect2987"
       width="1280"
       height="1280"
       x="0"
       y="0"
       transform="scale(0.8,0.8)" />
  </g>
  <g
     inkscape:groupmode="layer"
     id="layer2"
     inkscape:label="foreground">
    <path
       style="display:inline;fill:#f1e1be"
       d="m 260.8125,28.65625 c -5.11179,0.07524 -10.01719,1.290625 -14.25,4.59375 -3.15,8.8 -7.40625,19.34375 -2.28125,28.21875 20.875,43.8 41.55625,87.71875 62.28125,131.59375 2.125,4.35 3.95,8.88125 6.875,12.78125 3.375,1.2 6.85,2.19375 10.375,2.96875 -2.725,3.875 -4.35,8.625 -2.5,13.25 5.3,17.7 14.8125,34.3125 18.1875,52.4375 -12.45,16.525 -27.90625,30.71875 -39.90625,47.59375 0.175,10.7 5.4125,20.94375 7.4375,31.46875 1.875,11.45 10.86875,19.29375 16.71875,28.71875 -0.175,7.2 -2.7375,14.05 -4.8125,20.875 3.575,4.725 9.975,8.025 10.375,14.5 0.375,10.975 11.475,15.51875 18.25,22.34375 24.775,20.2 47.51875,43.0375 74.46875,60.4375 24.85,17.2 49.6875,34.3375 74.3125,51.8125 -5.475,64.325 -11.825,128.55 -17.625,192.875 1.175,0.85 3.54375,2.525 4.71875,3.375 6.875,1 13.69375,2.25 20.59375,3.25 -0.1,38.575 -0.1625,77.1125 -0.9375,115.6875 -1.575,17.525 -1.55625,35.18125 -1.28125,52.78125 0.4,9.725 6.96875,19.21875 3.34375,28.96875 -4.2,11.575 -8.2625,23.38125 -9.0625,35.78125 -5.55,41.75005 -11.19375,83.46875 -16.84375,125.21875 -0.1,3 0.8125,5.8 2.6875,8.375 8.4,0.15 16.925,0.2125 25.125,2.3125 -0.55,6.375 -0.15,12.9875 -2,19.1875 -3.2,5.125 -9.51875,6.8437 -14.46875,9.8437 -11.725,5.3251 -19.0375,16.2875 -27.6875,25.3126 -9.85,11.3499 -23.08125,18.8437 -34.53125,28.3437 -3.975,2.05 -2.64375,6.7187 -2.84375,10.3437 18.15,0.55 36.2875,-0.1875 54.4375,-0.062 4.625,-0.3501 9.8125,0.6187 13.9375,-2.0313 12.1,-7.8 22.6375,-17.925 35.0625,-25.25 11.35,-0.975 22.7875,-1.575 34.0625,-3.5 4.875,-21.025 2.70625,-42.75 3.65625,-64.125 6.65,-0.825 13.275,-1.925 19.875,-3.125 0.95,-20.2 -0.05,-40.45 -0.875,-60.625 -2.4,-21.75 -0.85,-43.6625 -2.875,-65.4375 -1.525,-13.275 -0.8625,-26.6125 -1.4375,-39.9375 -0.1,-10.55 -1.81875,-21.25 0.78125,-31.625 11.5,-47.675 22.23125,-95.525 34.03125,-143.125 2.15,0.675 4.2875,1.3625 6.4375,2.0625 22.3,68.45 45.19375,136.7375 67.84375,205.0625 2.975,9.55 10.3875,17.43125 11.1875,27.6563 4.775,40.2249 9.00625,80.5624 13.78125,120.8124 0.875,7.975 1.40625,16.0313 3.65625,23.7813 12.3,0.825 24.38125,-1.775 36.53125,-3.125 0.4,14.525 -0.825,29.0875 0.625,43.5625 3.3,12.6 8.15625,24.7812 11.90625,37.2812 1.4,6.125 7.23125,9.375 11.65625,13.25 10.1,7.725 19.175,16.7751 30,23.5 1.375,-0.95 4.09375,-2.8624 5.46875,-3.8124 2.3,-13.425 4.98125,-26.7375 7.78125,-40.0626 -2.375,-11.275 -3.7,-22.7312 -5.875,-34.0312 -1.875,-10.825 -12.86875,-16.3063 -17.21875,-25.7812 -1.85,-7.3001 -2.09375,-15.0251 -1.59375,-22.5 2.55,-3.8751 7.025,-5.9751 10.125,-9.375 2.05,-7.375 -2.175,-14.4625 -4.25,-21.3126 -15.725,-46.2999 -31.6,-92.5687 -47.375,-138.8437 -1.45,-4.275 -2.6625,-8.6625 -2.5625,-13.1875 -0.175,-62 0.35,-123.99375 -0.25,-185.96875 10.075,-5.175 21.375,-7.01875 32,-10.71875 1.15,-3.625 2.20625,-7.3875 1.28125,-11.1875 -8.675,-58.525 -17.05,-117.06875 -25.5,-175.59375 1.975,7 3.8625,14.04375 5.1875,21.21875 1.575,4.75 2,9.76875 2.625,14.71875 6.6,34.125 12.0125,68.49375 17.9375,102.71875 1.5,7.55 0.58125,15.6 3.90625,22.75 3.6,0.875 7.0125,2.325 10.3125,4 -4,8.275 -11.4125,15.76875 -10.4375,25.59375 0.7,16.175 -0.83125,32.45 -4.90625,48.125 2.5,3.975 5.95,7.45 8,11.75 -1.15,3.75 -4.625,7.23125 -3.25,11.40625 3.675,4.8 8.63125,8.48125 12.90625,12.78125 7.625,0.975 13.0125,-4.98125 18.5625,-9.15625 11.975,-9.7 24.65,-18.575 36.125,-28.875 -0.2,-26.2 0.21875,-52.4375 -1.90625,-78.5625 -0.225,-42.45 -0.49375,-84.89375 -1.21875,-127.34375 -0.775,-9.9 -0.4875,-20.24375 -4.3125,-29.59375 -8.725,-22.8 -17.11875,-45.725 -25.59375,-68.625 -21.25,-64.75 -41.54375,-129.79375 -62.96875,-194.46875 -14.025,-6.675 -27.7875,-14.00625 -42.3125,-19.53125 -18.275,-4.3 -36.71875,-8.00625 -55.09375,-11.90625 2.8,-13.425 -4.5625,-27.21875 -13.5625,-36.84375 -0.225,-1.475 -0.68125,-4.4375 -0.90625,-5.9375 -11.7,-0.725 -23.25625,1.5875 -34.78125,3.0625 -3.1,-2.6 -5.69375,-5.7 -8.46875,-8.625 -4.2,5.275 -10.075,7.625 -16.75,6 1.35,4.775 2.63125,9.525 3.65625,14.375 -8,2.75 -16.18125,5.65625 -22.78125,11.15625 -5.475,4.6 -1.3,13.66875 -7.125,18.21875 -16.575,14.425 -34.29375,27.725 -53.59375,38.375 -7.775,4.7 -16.7,8.15 -22.375,15.625 0.175,12.9 0.41875,25.8125 -0.0312,38.6875 -1.925,17.5 -7.18125,34.5 -8.40625,52.125 -22.825,-23.25 -44.54375,-47.65625 -67.09375,-71.15625 -0.55,-4.975 1.4625,-10.075 -0.3125,-14.875 -1.2,-4.55 -3.9125,-8.83125 -3.8125,-13.65625 0.925,-5.2 2.75,-10.19375 4.375,-15.21875 -15.175,-33.55 -32.5,-66.0875 -48.375,-99.3125 -4.075,-7.125 -5.9625,-16.41875 -13.8125,-20.46875 0.475,-5 1.4875,-10.375 -1.1875,-15 -18.925,-40.45 -37.6375,-81.00625 -56.6875,-121.40625 -4.175,-9 -7.875,-18.225 -13,-26.75 -6.10313,-1.560938 -12.9902,-3.346735 -19.5625,-3.25 z M 261.875,39 c 4.67505,-0.09131 9.29688,0.421875 12.75,3.53125 19.175,41.55 38.8125,82.93125 57.9375,124.53125 2.975,6.8 7.15625,13.15 9.03125,20.375 -1.15,6.075 -3.475,12.0125 -2.75,18.3125 3.375,0.25 6.71875,0.5 10.09375,0.75 17.225,34.3 33.8,68.93125 51.125,103.15625 3.7,5.85 -0.14375,12.33125 -1.09375,18.40625 -1.575,6.85 2.675,12.98125 4.25,19.40625 -0.45,5.3 -4.33125,10.91875 -1.53125,16.09375 4.925,4.1 10.18125,7.85 14.40625,12.75 18.925,21.025 38.8,41.225 57.625,62.375 2.9,4.125 7.41875,5.7625 12.34375,5.6875 5.475,-16.025 6.49375,-33.15 10.21875,-49.625 4.45,-17.2 2.58125,-35.0125 3.03125,-52.5625 12,-7.025 23.54375,-15.425 37.59375,-17.75 8.8,-6.325 16.75625,-13.825 26.15625,-19.375 1.925,3.3 4.03125,6.5125 6.53125,9.4375 1.475,-1.125 4.49375,-3.375 5.96875,-4.5 1.2,-11.7 3.25625,-23.3125 3.53125,-35.0625 9.1,-2.725 17.39375,-8.825 27.21875,-8.375 -3.05,0.675 -6.16875,1.2625 -9.21875,1.8125 -1.55,0.9 -4.6,2.6625 -6.125,3.5625 0.05,2.375 0.16875,7.125 0.21875,9.5 9.675,1.225 17.11875,-5.75 24.96875,-10.125 9.025,-5.175 18.63125,-9.4 26.78125,-16 2.575,3.325 5.1375,6.65625 7.6875,10.03125 0.175,7.9 0.24375,16.2125 3.59375,23.5625 2.65,3.1 6.94375,3.90625 10.71875,4.90625 15.225,3.225 30.43125,6.53125 45.65625,9.78125 11.575,2.225 21.74375,8.50625 32.46875,13.03125 4.975,2.65 11.90625,4.2625 13.15625,10.6875 17.45,54.275 34.925,108.55625 52.5,162.78125 10.025,32.85 23.3625,64.61875 34.8125,96.96875 3.575,10.575 1.65625,21.91875 2.15625,32.84375 0.65,41.7 -0.2,83.46875 2.5,125.09375 -0.1,21.525 0.43125,43.0375 0.15625,64.5625 -12.975,9.8 -25.78125,19.80625 -38.53125,29.90625 -1.425,-0.175 -4.325,-0.48125 -5.75,-0.65625 -0.125,-1 -0.375,-3.03125 -0.5,-4.03125 7.175,-5.875 14.75,-11.61875 19.75,-19.59375 -2.75,-6.725 0.275,-21.26875 -11.125,-18.59375 -3.925,5.3 -5.28125,11.90625 -7.40625,18.03125 -2.475,-16.5 0.13125,-33.3125 -3.46875,-49.6875 3.325,-9.45 11.95625,-17.0875 10.40625,-27.9375 7.825,-2.4 21.8125,-1.8875 20.6875,-13.4375 -10.475,-4.125 -21,2 -31.5,3.125 -1.15,-3.7 -2.24375,-7.41875 -2.96875,-11.21875 -6.9,-40.15 -13.775,-80.31875 -20.625,-120.46875 -6.825,-26.025 -16.7125,-51.1125 -24.1875,-76.9375 -3,0.2 -6.03125,0.44375 -9.03125,0.71875 2.525,24.65 7.70625,48.9625 9.65625,73.6875 5.775,40.925 11.9625,81.81875 17.8125,122.71875 1.75,13.475 4.79375,26.775 5.21875,40.375 -11.05,3.55 -22.94375,5.25625 -33.09375,11.15625 2.075,62.75 -0.0875,125.60625 1.0625,188.40625 -1.875,15.925 6.0875,30.3625 10.4375,45.1875 14.9,42.4 28.85625,85.1625 43.78125,127.5625 -4.775,4.475 -13.35625,8.6562 -11.53125,16.5312 2.425,10.425 -1.3625,22.9938 6.6875,31.4688 4.525,6.1 11.95625,10.75 13.28125,18.75 1.65,9.225 3.5125,18.4625 4.4375,27.8125 0.225,10.875 -3.04375,21.4 -5.59375,31.875 -7.375,-7.2 -15.725,-13.2687 -23.625,-19.8437 -5.175,-3.6751 -6.13125,-10.3563 -8.15625,-15.9063 -3.125,-11.075 -7.93125,-21.725 -9.78125,-33.125 -1.025,-14.775 0.7125,-29.6188 -1.0625,-44.3437 -12.35,-0.125 -24.4375,3.1312 -36.8125,3.1562 -4.275,-44.925 -9.9,-89.7188 -14.75,-134.5938 -0.9,-12.54995 -9.4375,-22.4187 -13.0625,-34.0937 -22.15,-66.975 -44.2375,-133.99375 -66.6875,-200.84375 -2.8,-9.475 -14.75,-10.45 -23,-11.375 -4.575,10.9 -6.1875,22.68125 -9.1875,34.03125 -8.475,36.2 -17.13125,72.33125 -25.53125,108.53125 -6.75,21.3 -2.80625,43.81875 -3.03125,65.71875 3.45,25.175 0.5375,50.7 3.9375,75.875 1.675,19.525 -1.16875,39.475 2.90625,58.75 -6.25,1.825 -12.76875,2.2687 -19.21875,2.7188 -5.2,21.0999 -2.5375,43.1937 -3.6875,64.7187 -13.4,2.125 -29.1875,-0.7187 -39.9375,9.2813 -9,6.875 -18.075,13.6687 -27.25,20.3437 -15.1,0.1 -30.18125,0.825 -45.28125,0.25 17.225,-7.875 29.01875,-23.1875 41.46875,-36.8125 8.475,-8.025 19.88125,-11.7625 29.40625,-18.3125 1.25,-12.2 6.86875,-25.1688 2.09375,-37.0937 -8.6,-0.75 -17.175,-1.8813 -25.75,-2.7813 4.775,-43.85 11.69375,-87.4125 17.21875,-131.1875 1.2,-12.05 8.5875,-22.64375 9.1875,-34.71875 -1.525,-11.725 -6.06875,-23.1875 -3.84375,-35.1875 -0.1,-54.45 1.85,-108.8875 1.25,-163.3125 -8,-3.325 -16.81875,-3.25 -25.09375,-5.5 4.35,-32.25 6.05,-64.8375 9.625,-97.1875 2.35,-31.475 6.71875,-62.81875 7.96875,-94.34375 C 474.8875,524 442.2375,502.25625 410.1875,479.65625 387.7375,461.43125 366.275,442.0375 344,423.5625 c -5,-3.75 -4.79375,-10.6 -6.09375,-16.125 -2.25,-2.075 -4.56875,-4.1 -6.59375,-6.375 -0.475,-7.525 4.3625,-14.8375 2.4375,-22.4375 -4.75,-8.95 -13.66875,-15.5125 -16.21875,-25.6875 -2.325,-9.2 -5.7875,-18.15 -6.8125,-27.625 11.55,-17.25 27.6625,-31.2 39.9375,-48 0.05,-1.225 0.1375,-3.71875 0.1875,-4.96875 -5.775,-17.25 -12.90625,-34.03125 -19.03125,-51.15625 -2.3,-6.375 4.925,-12.4125 1.5,-18.8125 -2.175,-6.125 -9.7375,-4.75 -14.8125,-6 -22.5,-45.9 -44.44375,-92.0375 -66.96875,-137.9375 -4.125,-6.075 0.875,-12.8625 2.125,-19.0625 2.5875,-0.04687 5.41372,-0.320215 8.21875,-0.375 z"
       id="path6"
       inkscape:connector-curvature="0"
       transform="scale(0.8,0.8)" />
    <path
       d="m 411.18,67.98 c 0.14,-10.96 13.58,-17.62 23.26,-14.72 4.66,3.42 8.14,8.1 11.92,12.42 9.16,10.8 19.8,20.5 27.3,32.62 8.68,15.12 10.42,33.28 8.98,50.36 -1.1,-6.08 -2.5,-12.26 -5.94,-17.5 C 466.26,113.72 454.9,94.94 435.76,86 426.92,81.18 413.94,79.38 411.18,67.98 z"
       id="path10"
       inkscape:connector-curvature="0"
       style="display:inline;fill:#f3722b" />
    <path
       d="m 412.2,134.52 c 1.38,-3.62 4.96,-8.6 9.38,-6.54 13.26,3.7 24.1,12.92 33.8,22.32 8.1,8.42 16.08,17.06 22.7,26.74 -16.06,-14.22 -37.82,-18.8 -58.1,-23.48 -7.56,-2.24 -10.96,-12.08 -7.78,-19.04 z"
       id="path12"
       inkscape:connector-curvature="0"
       style="display:inline;fill:#f3722b" />
  </g>
</svg>
