<?xml version="1.0" encoding="UTF-8" standalone="no"?>
<svg
   xmlns:dc="http://purl.org/dc/elements/1.1/"
   xmlns:cc="http://creativecommons.org/ns#"
   xmlns:rdf="http://www.w3.org/1999/02/22-rdf-syntax-ns#"
   xmlns:svg="http://www.w3.org/2000/svg"
   xmlns="http://www.w3.org/2000/svg"
   xmlns:sodipodi="http://sodipodi.sourceforge.net/DTD/sodipodi-0.dtd"
   xmlns:inkscape="http://www.inkscape.org/namespaces/inkscape"
   width="1280"
   height="1280"
   viewBox="0 0 1024 1024"
   version="1.1"
   id="svg2"
   inkscape:version="0.48.1 "
   sodipodi:docname="decapitate_players.svg">
  <metadata
     id="metadata36">
    <rdf:RDF>
      <cc:Work
         rdf:about="">
        <dc:format>image/svg+xml</dc:format>
        <dc:type
           rdf:resource="http://purl.org/dc/dcmitype/StillImage" />
      </cc:Work>
    </rdf:RDF>
  </metadata>
  <defs
     id="defs34" />
  <sodipodi:namedview
     pagecolor="#ffffff"
     bordercolor="#666666"
     borderopacity="1"
     objecttolerance="10"
     gridtolerance="10"
     guidetolerance="10"
     inkscape:pageopacity="0"
     inkscape:pageshadow="2"
     inkscape:window-width="1920"
     inkscape:window-height="1018"
     id="namedview32"
     showgrid="false"
     fit-margin-top="0"
     fit-margin-left="0"
     fit-margin-right="0"
     fit-margin-bottom="0"
     inkscape:zoom="0.6609375"
     inkscape:cx="466.00473"
     inkscape:cy="640"
     inkscape:window-x="-8"
     inkscape:window-y="-8"
     inkscape:window-maximized="1"
     inkscape:current-layer="layer1"
     inkscape:snap-page="true" />
  <g
     inkscape:groupmode="layer"
     id="layer1"
     inkscape:label="background">
    <rect
       style="fill:#3e3e3e;fill-opacity:1;fill-rule:nonzero;stroke:none"
       id="rect3008"
       width="1280"
       height="1280"
       x="0"
       y="0"
       transform="scale(0.8,0.8)" />
  </g>
  <g
     inkscape:groupmode="layer"
     id="layer2"
     inkscape:label="foreground">
    <path
       d="M 0,0 0.12,0 C 0.1,0.04 0.04,0.1 0,0.12 L 0,0 z"
       id="path4"
       inkscape:connector-curvature="0"
       style="fill:#f5e5c1" />
    <path
       style="fill:#f4722b"
       d="M 819.1875 32.21875 C 810.58594 32.252734 801.98125 32.8875 793.46875 34.09375 C 752.61875 40.24375 714.74375 61.46875 686.46875 91.34375 C 629.74375 150.49375 612.78125 242.71875 641.28125 319.09375 C 659.33125 369.04375 697.1375 412.09375 745.6875 434.21875 C 783.9375 451.81875 828.53125 454.95 869.03125 443.625 C 907.85625 432.8 941.9375 408.1375 966.8125 376.6875 C 1015.2625 315.6125 1025.4 228.1625 995.625 156.5625 C 976.7 109.7375 940.2375 69.65625 894.1875 48.40625 C 870.7875 37.38125 844.99219 32.116797 819.1875 32.21875 z M 820.5 157.9375 C 834.63047 158.01484 848.7125 161.675 860.9375 168.875 C 886.9125 183.575 903.8875 211.18125 909.1875 240.15625 C 914.2375 267.28125 912.2625 296.59375 899.0625 321.21875 C 885.8125 346.79375 861.65 367.4125 833.125 373.3125 C 812.95 377.3125 791.9625 371.2875 775.1875 359.9375 C 750.0125 343.0875 733.925 314.34375 730.5 284.46875 C 726.725 253.21875 732.56875 219.75625 751.46875 194.03125 C 764.46875 175.98125 784.3875 162.8375 806.4375 159.0625 C 811.0875 158.2875 815.78984 157.91172 820.5 157.9375 z "
       id="path8"
       transform="scale(0.8,0.8)" />
    <path
       d="m 238,27.5 c 80.34,0 160.68,-0.02 241,0.02 0,32.32 0.02,64.64 0,96.98 -54.84,0.02 -109.66,0 -164.48,0 -0.02,17 -0.02,34 -0.02,50.98 26.94,-0.2 54.44,1.42 80.08,10.34 15.76,5.54 31.12,15.08 39.24,30.14 10.08,19.26 12.34,42.28 6.94,63.28 -6.36,23.94 -23.14,44.32 -44.02,57.24 -27.04,16.86 -59.04,23.84 -90.52,25.72 -3.28,-18.74 -6.64,-37.46 -9.9,-56.22 19.04,-1.62 38.62,-4.56 55.56,-13.96 8.48,-4.8 16.38,-12.3 18.34,-22.2 1.76,-7.66 0.1,-16.6 -6.02,-21.92 -8.98,-8.02 -21.44,-10.06 -32.98,-11.26 -31.06,-2.64 -62.16,1.02 -93.22,1.44 0,-70.18 0,-140.38 0,-210.58 z"
       id="path10"
       inkscape:connector-curvature="0"
       style="fill:#f4722b" />
    <path
       d="m 857.64,310 c 7.62,-5.34 17.76,-6.56 26.66,-4.36 9.56,5.42 18.16,14.76 18.24,26.36 -0.62,5.26 -2.4,12.08 -8.36,13.42 -11.5,3.46 -23.9,4.12 -34.54,10.2 -17.32,7 -29.92,22.88 -34.1,40.92 -2.14,-4.06 -4.96,-8.04 -5.06,-12.8 -0.88,-14.14 1.42,-28.66 7.66,-41.46 7.64,-12.48 17.26,-24.08 29.5,-32.28 z"
       id="path14"
       inkscape:connector-curvature="0"
       style="fill:#f4722b" />
    <path
       d="m 96.96,333.58 c 3.48,-2.76 7.32,-5 11.34,-6.9 12.96,7.22 16.16,23.68 14.02,37.26 -0.54,4.04 -3.68,6.76 -6.54,9.32 -3.12,-7.3 -2.18,-16.66 -8.88,-22.06 -5.4,-4.52 -7.94,-11.08 -9.94,-17.62 z"
       id="path16"
       inkscape:connector-curvature="0"
       style="fill:#f4722b" />
    <path
       d="m 428.34,376.36 c 2.48,-4.5 7.28,-6.68 11.88,-8.32 -3.88,12.52 -11.64,23.54 -14.16,36.52 -0.32,-9.36 -3.06,-19.72 2.28,-28.2 z"
       id="path18"
       inkscape:connector-curvature="0"
       style="fill:#f4722b" />
    <path
       d="m 789.92,376.34 c 3.44,0.4 9.12,-0.94 9.98,3.84 0.72,4.68 -1.28,9.3 -2,13.9 -4.1,-5.18 -6.9,-11.22 -7.98,-17.74 z"
       id="path20"
       inkscape:connector-curvature="0"
       style="fill:#f4722b" />
    <path
       d="m 123.48,422.02 c -0.84,-6.54 0.66,-15.6 7.94,-17.8 6.72,3.88 11.16,12.08 9.26,19.86 -0.78,6.38 -4.44,12.78 -2.34,19.24 1.84,6.74 7.96,10.98 11.02,17.04 -0.4,5.04 -2.14,9.86 -3.9,14.56 -4.14,4.9 -10.92,4.06 -16.64,4.82 -0.04,-2.14 -0.06,-4.28 -0.06,-6.42 0.06,-2.92 0.44,-5.8 0.78,-8.7 -8.4,-0.42 -19.08,-4.86 -18.68,-14.8 -1.22,-4.96 3.48,-6.94 6.88,-9.12 2.4,2.88 4.8,5.74 7.22,8.62 0.76,-9.14 -0.24,-18.26 -1.48,-27.3 z"
       id="path22"
       inkscape:connector-curvature="0"
       style="fill:#f4722b" />
    <path
       d="m 445.36,420.08 c 0.86,-4.88 3.1,-11.46 9.1,-11.48 9.02,-1.6 15.96,7.7 16.42,15.9 1.66,11.1 -5.62,20.56 -10.8,29.64 -3.14,5.72 -8.56,9.62 -14.86,11.16 2.14,-8.84 5.62,-18.12 2.94,-27.24 -1.34,-5.9 -4.4,-11.8 -2.8,-17.98 z"
       id="path24"
       inkscape:connector-curvature="0"
       style="fill:#f4722b" />
    <path
       d="m 807.76,419.66 c 4.3,-1.28 8.54,-2.78 12.76,-4.36 0.86,5.64 1.8,11.28 2.68,16.94 7.52,-1.88 15.4,-4.7 23.02,-1.66 0.58,3.06 1.2,6.12 1.92,9.18 1.16,3.52 2.28,7.06 3.34,10.64 0.74,2.1 1.48,4.2 2.22,6.32 3.3,1.5 6.62,3 9.94,4.5 2.78,-0.64 5.82,-3.88 8.68,-1.72 13.38,8 25.74,17.76 39.82,24.6 -0.62,2.96 -1.36,5.92 -1.54,8.96 6.7,7.5 16.12,12 22.62,19.66 6.82,10.26 12.66,21.18 19.74,31.3 -2.06,1.82 -4.08,3.64 -6.12,5.46 0.74,4.04 1.7,8.14 3.86,11.72 7.7,13.96 13.22,28.98 17.78,44.24 6.62,13.86 15.38,26.78 21.28,41 3.1,20.7 6.18,41.42 8.68,62.2 3.44,15.92 7.84,31.6 12.16,47.3 1.42,4.68 -1.78,8.96 -3.8,12.9 -6.2,10.38 -12.16,20.9 -18.32,31.32 -8.74,2.82 -12.36,12.64 -20.76,15.74 -4.92,1.48 -5.36,-4.52 -5.46,-7.86 -0.26,-8.26 11.06,-10.76 11.72,-18.78 -2,0.62 -6.02,1.88 -8.02,2.5 -3.5,-0.36 -4.96,-4.02 -7.28,-6.1 4.24,-8.86 13.82,-12.7 20.48,-19.34 -1.96,-3.76 -2.36,-9.2 -6.84,-10.86 -3.98,-0.84 -8.28,0.74 -10.6,4.08 -4.64,6.54 -6.58,14.44 -9.04,21.94 -3.92,-0.08 -7.84,-0.18 -11.74,-0.32 1.16,-9.24 -3.52,-18.72 0.62,-27.54 1.96,-5.46 1.28,-11.44 2.92,-16.96 2.5,-4.48 6.14,-8.2 9.3,-12.2 -1.28,-8 -4.02,-15.6 -7.56,-22.84 -6.54,-13.58 -9.46,-28.44 -13.54,-42.84 -3.62,-12.04 -0.76,-25.36 -6.48,-36.88 -4.96,-10.54 -10.68,-20.72 -16.38,-30.88 -9.56,12.04 -8.26,27.9 -9.42,42.28 -2.14,16.66 -1.44,33.52 -3.24,50.2 -1.76,7.78 -8.14,14.16 -8.1,22.44 -0.2,7.12 0.02,14.26 0.08,21.4 -0.66,0.64 -2,1.94 -2.66,2.58 0.86,18.02 1.26,36.04 2.14,54.04 1.16,16.6 -7.9,33.28 -2.06,49.6 6.22,17.62 12.86,35.4 14.94,54.08 -1.82,4.86 -5.92,8.48 -9.06,12.52 3.54,5.92 6.56,12.12 9.06,18.54 -6.64,2.58 -13.4,4.86 -20.24,6.9 -5.26,13.42 -8.52,30.12 0.06,42.88 2.16,4.1 4.22,8.26 6.34,12.38 5.84,1.4 14.42,-0.5 17.36,6.16 1.36,2.84 2.06,5.96 2.88,9.02 1.42,2.96 2.8,5.92 4.18,8.92 -15.4,-0.08 -30.82,0.06 -46.2,-0.06 -4.12,0.08 -7.7,-2.14 -11.38,-3.64 0.04,-2.44 0.08,-4.88 0.12,-7.28 -5.04,-2.6 -10.28,-4.76 -15.58,-6.72 -0.58,-12.14 6.48,-22.78 6.02,-34.82 3.08,-8.68 4.36,-17.72 3.5,-26.92 -4.8,-3.26 -9.78,-6.3 -14.08,-10.24 0.34,-10.08 5.2,-19.24 6.7,-29.12 0.36,-6.04 -0.86,-12.06 -0.52,-18.12 0.12,-7.48 2.16,-15.16 -0.24,-22.5 -6.16,-19.8 -14.48,-38.84 -22.1,-58.1 -5.54,0 -11.08,-0.08 -16.62,-0.16 -7.36,19.48 -15.8,38.6 -21.96,58.52 -2.8,7.24 0.14,14.8 0.82,22.14 0.98,7.3 -3.1,14.64 -0.5,21.82 2.36,8.16 4.44,16.38 6.46,24.6 -4.96,3.9 -10.06,7.6 -15.14,11.32 -0.02,6.96 -0.96,14.24 2.12,20.78 3.28,6.92 0.52,15.08 4.36,21.86 3,6 2.84,12.78 3.04,19.32 -4.98,1.86 -9.84,3.98 -14.54,6.44 0.1,1.62 0.3,4.88 0.4,6.5 -3.42,1.72 -6.68,4.5 -10.72,4.38 -15.96,0 -31.9,-0.06 -47.86,0 2.76,-5.78 4.4,-12 7,-17.84 2.96,-6.66 11.24,-5.02 17.14,-6.12 3.56,-7.28 7.94,-14.2 10.8,-21.8 1.24,-10.82 0.96,-22.42 -4,-32.36 -6.56,-3.34 -14.02,-4.62 -20.38,-8.44 2.66,-6.28 7.38,-11.88 8.48,-18.7 -2.24,-4.36 -5.6,-7.98 -8.68,-11.72 4.68,-19.9 10.42,-39.56 16.5,-59.06 0.92,-2.9 1.54,-5.94 0.96,-8.96 -1.62,-12.44 -3.88,-24.8 -4.7,-37.32 -6.58,0.24 -13.14,0.54 -19.7,0.92 -4.48,-12.36 -8.6,-25.02 -9.38,-38.24 -1.58,-0.92 -3.16,-1.82 -4.72,-2.72 -1.4,-9.94 -1.26,-20.3 3.56,-29.36 8.76,-1.94 17.58,-3.7 26.18,-6.26 0.04,-9.44 -1.72,-18.72 -2.74,-28.06 -1.62,-0.48 -3.22,-0.96 -4.82,-1.44 -3.22,-17.1 -7.76,-33.9 -11,-51 2.68,-2.8 5.34,-5.62 8.02,-8.42 -1.2,-8.46 -0.78,-17.7 -6.72,-24.56 -6.14,9.72 -11.42,19.96 -16.16,30.44 -4.82,9.76 -2.12,21 -4.78,31.28 -2.58,9.96 -5.5,19.86 -8.08,29.84 -3.62,13.46 -12.08,25.22 -13.96,39.2 3.28,4.32 7.58,8.16 9.42,13.36 0.7,7.4 0.42,15.14 4.4,21.76 1.68,8.4 0.02,17.22 0.56,25.8 -4.06,-0.04 -8.12,-0.06 -12.18,-0.06 -3.66,-6.56 -7.14,-13.32 -8.36,-20.8 -0.38,-5.46 -5.42,-9.8 -10.78,-9.78 -5.5,0.28 -7.8,6.64 -8.04,11.34 4.56,5.7 11.08,9.34 16.68,13.92 0,3.24 0,6.48 0,9.72 -4.36,-0.32 -8.74,-0.62 -13.12,-0.7 3.54,5.22 7.44,10.2 11.84,14.74 -0.22,4.4 -0.24,8.86 -1.38,13.16 -6.82,2.08 -9.5,-5.68 -13.5,-9.44 -3.78,-4.88 -10.7,-6.44 -13.38,-12.3 -6.4,-12.44 -15.12,-23.68 -20,-36.84 3.66,-13.38 7.32,-26.76 10.64,-40.22 5.36,-20.52 5.58,-41.98 10.36,-62.58 6.92,-17.7 15.42,-34.78 22.62,-52.36 4.9,-16.36 10.9,-32.62 20,-47.12 1.1,-5.18 -1.48,-9.26 -5.12,-12.62 7.34,-10.64 13.56,-22.06 21,-32.6 9.76,-9.66 21.5,-17.06 31.42,-26.54 5.02,-5.72 11.12,-10.56 18.22,-13.44 12.04,-4.7 22.76,-12.06 34.22,-17.96 1.68,-6.5 3.28,-13.02 4.94,-19.52 9.4,-2.88 19.4,-4.98 29.14,-2.36 0.36,-3.72 0.76,-7.44 1.16,-11.16 z"
       id="path26"
       inkscape:connector-curvature="0"
       style="fill:#f5e5c1" />
    <path
       d="m 111.5,471.18 c 1.7,-0.02 5.12,-0.08 6.82,-0.1 0.38,1.1 1.12,3.32 1.5,4.42 2.98,-0.7 5.96,-1.44 8.94,-2.18 0,2.14 0.02,4.28 0.06,6.42 5.72,-0.76 12.5,0.08 16.64,-4.82 2.94,-0.14 5.88,-0.22 8.84,-0.28 0.1,4.52 0.18,9.04 0.26,13.58 3.2,1.48 6.38,2.98 9.56,4.5 0.84,-0.96 2.48,-2.86 3.3,-3.82 6.52,3.62 13.12,7.06 19.78,10.38 0.58,1.8 1.16,3.58 1.72,5.4 8.22,5.02 20.26,6.32 24.08,16.34 8.46,14.76 8.5,32.36 15.44,47.7 -1.8,3.34 -4.76,6.7 -3.54,10.78 2.8,15.6 4.92,31.36 8.98,46.68 2.58,9.4 10.18,16.52 12.52,25.96 3.46,24.8 5.26,49.84 10.08,74.46 0.98,7.48 3.34,14.94 2.88,22.56 -4.62,5 -9.4,10.02 -10.62,17.04 -5.1,3.22 -8.54,8.12 -11.48,13.26 -1.58,3.32 -5.64,3.28 -8.68,4.2 -0.68,-5.64 1.7,-10.7 3.68,-15.76 0.44,-5.84 -2.42,-11.3 -4.04,-16.78 -2.46,5.78 -5.16,11.94 -11.24,14.74 1.1,-6.06 2.72,-12.26 0.66,-18.32 4.76,-10.46 8.82,-21.26 13.76,-31.62 -0.76,-12.4 -3.7,-24.76 -9.36,-35.88 -8.72,-17.18 -3.08,-37.72 -10.86,-55.16 -4.32,-10.1 -6.88,-20.82 -10.46,-31.18 -0.52,-2.84 -2.62,-4.64 -5.22,-5.6 -1.38,-3.62 -2.66,-7.26 -3.94,-10.92 -3.14,7.38 -6.34,14.82 -8.08,22.7 0.48,10 2.72,19.86 3.62,29.86 0,4.38 3.36,7.48 5.74,10.78 -5.66,6.78 -4.28,15.48 -3.44,23.58 0.7,0.74 2.1,2.2 2.8,2.94 -0.2,15.92 3.06,31.62 3.22,47.54 0.92,0.8 2.76,2.36 3.68,3.16 1.92,25.46 2.94,50.98 4.72,76.48 0.68,7.24 1.42,14.54 1.1,21.84 -0.42,6.76 -4.34,12.98 -4.06,19.76 2.36,5.54 5.96,10.46 8.18,16.06 -1.24,4.22 -3.34,8.14 -4.46,12.42 0.24,2.94 2.14,5.44 3.22,8.14 -2.98,1.66 -5.94,3.32 -8.9,5 -1.12,18.16 -1.68,36.34 -1.9,54.52 -0.18,8.76 3.22,17.36 1.46,26.12 4.38,5.94 8.02,12.5 13.06,17.9 5.14,2.44 10.7,3.76 16.12,5.42 -0.28,6.82 -0.68,13.64 -0.92,20.46 -11.38,0.22 -22.9,1.22 -34.18,-0.3 -2.26,-2.64 -3.9,-5.7 -5.74,-8.6 -4.72,-0.12 -9.44,-0.12 -14.16,-0.06 -0.1,-11 1.82,-22.32 -1.98,-32.92 1.6,-3.08 4.26,-6.08 3.32,-9.8 -1.42,-14.62 0.66,-29.54 -3.04,-43.9 -2.2,-9.08 -4.14,-18.22 -6.48,-27.24 -1.16,-6.64 -8.8,-8.32 -13.48,-11.94 2.14,-7.86 4.48,-15.68 6.14,-23.66 2,-6.44 -6.28,-11.6 -3.76,-17.98 1.36,-3.54 1.88,-7.24 0.78,-10.9 -3.58,-15.56 -6.42,-31.26 -10,-46.82 -0.32,-4.02 -4.86,-4.84 -7.62,-6.82 -3.16,1.6 -6.34,3.16 -9.5,4.74 -4.4,17.2 -6.04,34.92 -9.9,52.22 -1.44,3.86 1.02,7.32 2.46,10.76 -1.8,4.38 -4.84,8.5 -5.24,13.32 1.16,8.92 4.2,17.46 6.32,26.18 -4.66,3.44 -12.36,4.96 -13.42,11.54 -2.72,11.52 -5.68,23.02 -7.86,34.64 -1.28,11.9 -0.8,23.9 -1.8,35.82 -0.84,3.86 1.38,7.08 3.44,10.1 -3.48,10.72 -2.08,22.02 -1.68,33.06 -4.7,-0.02 -9.38,-0.04 -14.08,-0.02 -1.84,2.98 -3.68,5.96 -5.52,8.96 -11.58,0.08 -23.14,0.04 -34.72,0.06 -0.18,-6.58 -1.02,-13.16 -0.66,-19.72 5.3,-2.62 11.06,-4 16.62,-5.84 3.88,-6.3 8.32,-12.2 12.48,-18.28 -1.96,-8.18 1.14,-16.28 1.24,-24.46 0.3,-14.04 -1.42,-28 -1.28,-42.04 -0.2,-4.68 0.16,-9.48 -1.1,-14.04 -2.54,-1.66 -5.26,-3 -7.94,-4.38 1.68,-3.64 4.24,-7.04 4.78,-11.08 -2.5,-8.34 -7.68,-15.82 -8.74,-24.58 0.92,-4.22 4.9,-7.28 5.2,-11.66 0.28,-8.74 -1.28,-17.44 -0.74,-26.16 2,-28.38 4.16,-56.74 6.32,-85.08 2.18,-2.96 5.8,-5.42 5.9,-9.4 0.54,-12.52 2.82,-25.08 1.08,-37.58 1.2,-6.72 2.28,-13.78 0.74,-20.5 -2.78,-2.84 -6.08,-5.08 -9.24,-7.46 4.7,-6.84 9.44,-13.66 14.74,-20.04 0.62,-6.86 2.82,-13.8 1.28,-20.68 -1.3,-7.82 -4.5,-15.14 -7.48,-22.42 -1.36,3.94 -2.68,7.9 -3.98,11.88 -1.04,0.16 -3.1,0.48 -4.14,0.66 -4.04,12.18 -7.06,24.72 -12.08,36.58 -7.16,17.1 -1.64,37.02 -10.32,53.68 -5.56,11.68 -9.86,24.68 -8.9,37.7 4.64,9.46 8.56,19.28 12.44,29.06 -0.06,6.52 -0.04,13.06 1.44,19.48 -5.98,-2.88 -8.84,-8.82 -11.1,-14.68 -2.02,5.4 -4.88,10.98 -4.1,16.92 1.88,4.96 4.18,9.86 3.82,15.32 -4.5,-0.22 -8.84,-1.9 -10.46,-6.46 -2.66,-6.54 -10.42,-9.2 -11.96,-16.32 -1.5,-4.68 -5.7,-7.64 -8.5,-11.48 -0.04,-11.94 3.44,-23.6 4.98,-35.4 2.8,-19.2 4.88,-38.48 7.26,-57.72 0.76,-11.84 11.04,-20.04 13.58,-31.36 3.7,-16.12 6.38,-32.44 8.9,-48.76 -2.4,-3.88 -3.7,-8.32 -2.18,-12.8 3.48,-13.18 5.7,-27.22 13.46,-38.74 2.88,-4.32 5.2,-9.5 10.06,-11.94 14.96,-8.1 30.14,-15.78 45,-24.08 0.1,-5.76 0.1,-11.5 0.06,-17.26 z"
       id="path28"
       inkscape:connector-curvature="0"
       style="fill:#f5e5c1" />
    <path
       d="m 430.5,483.74 c 6.3,-0.28 12.62,-0.28 18.92,0.04 -0.6,4.48 -1.28,8.94 -2.1,13.4 3.72,0.26 7.44,0.5 11.14,0.78 1.4,5.42 2.72,11.08 6.04,15.7 7.3,6.92 17.14,9.82 26.2,13.58 6.06,6.28 13.38,10.88 20.52,15.78 4,11.06 6.66,22.74 13,32.84 6.14,9.7 9.06,22.42 19.9,28.22 -0.34,1.36 -0.66,2.74 -0.98,4.12 2.5,0.58 6.88,-0.78 7.3,3 2.66,7.04 6.14,13.74 10.52,19.86 -1.1,1.74 -5.68,2.88 -3.96,5.62 3.94,8.1 7.96,16.18 10.92,24.72 6.42,0.1 12.82,-0.04 19.24,-0.4 2.06,18.64 2.54,37.7 8.28,55.7 3.44,8.44 7.7,16.54 11.28,24.92 -3.8,12.04 -10.54,22.8 -14.22,34.88 -4.38,6.98 -12.44,10.58 -18.64,15.78 -1.64,-3.64 -3.28,-7.28 -4.96,-10.88 4.06,-5.24 7.74,-10.72 10.84,-16.58 -3.06,0.74 -6.06,1.58 -9.1,2.34 -0.24,-2.48 -1.36,-5.04 -0.7,-7.48 3.12,-4.54 7.56,-7.96 11.5,-11.76 -1.42,-4.04 -3.56,-7.74 -7.46,-9.8 -2.22,2.4 -5.58,4.3 -5.84,7.94 -1.28,7.88 -3.76,15.48 -7.26,22.64 -1.94,-0.06 -5.82,-0.2 -7.76,-0.26 -1.46,-6.08 -2.8,-12.2 -3.64,-18.38 -1.52,-7.54 3.84,-14.3 3.7,-21.68 C 546.6,714.9 539,701.9 530.76,689.36 c 2.5,-3.24 5.02,-6.48 7.56,-9.68 -5,-7.44 -10.02,-14.86 -14.02,-22.9 -2.1,-0.08 -4.2,-0.16 -6.3,-0.22 -1.36,-7.34 -4.26,-14.28 -8.36,-20.5 4.68,-6.64 -1.78,-12.66 -5.32,-17.98 -7.86,18.8 -11.18,41.32 -1.78,60.16 -2.92,2.62 -5.84,5.24 -8.74,7.88 0.82,0.82 2.46,2.46 3.28,3.28 -0.02,6.4 -0.08,12.8 -0.24,19.22 6.48,5.66 13.6,10.48 20.22,15.98 0.28,8.14 6.12,15.28 4.18,23.58 -2.32,19.56 -5.04,39.1 -7.7,58.64 -4.58,0.9 -10.64,-1.14 -14,2.82 -0.96,8.24 -1.02,16.58 -2.44,24.78 3.28,2.54 6.6,5.06 9.94,7.58 -0.86,2.68 -1.68,5.38 -2.5,8.08 -1.52,-0.72 -4.56,-2.18 -6.08,-2.9 2.56,11.22 6,22.22 8.38,33.46 1.2,8.76 0.12,17.64 1.16,26.42 0.82,7.12 1.06,14.4 -0.56,21.46 2.8,4.12 7.64,8.16 5.6,13.72 -2.74,11.14 -1.62,23.58 -7.56,33.68 5.36,8.94 9.12,18.7 10.28,29.12 -16.04,-0.38 -32.14,0.7 -48.16,-0.52 -1.14,-2.9 -2.2,-5.8 -3.36,-8.68 -1.9,-1.5 -3.88,-2.9 -5.62,-4.56 -0.54,-4 0.02,-8.02 0.22,-12 -2.56,-2.7 -6.56,-4.72 -7,-8.78 -1.64,-12.06 -3.64,-24.1 -5.22,-36.16 1.12,-1.08 3.36,-3.24 4.48,-4.32 0.76,-10.88 -1.8,-21.64 -1.64,-32.5 1.84,-14.56 4.52,-29 7.02,-43.46 0.88,-4.96 1,-10.3 -1.82,-14.66 -6.7,-11.98 -10.02,-25.36 -14.54,-38.22 -4.58,-0.02 -9.2,-0.22 -13.76,0.32 -4.18,8.08 -5.58,17.24 -9.14,25.58 -3.1,8.18 -8.08,16.08 -7.46,25.16 1.2,15.42 5.14,30.48 6.84,45.84 0.42,11.34 -1.74,22.6 -1.24,33.94 1.06,0.54 3.16,1.6 4.22,2.14 -1.72,11.92 -3.6,23.84 -5.3,35.76 -0.16,4.44 -4.28,6.8 -7.06,9.64 0.02,4.26 0.06,8.54 0.06,12.8 -1.72,1.2 -3.42,2.4 -5.14,3.62 -1.16,2.8 -1.84,5.9 -3.7,8.38 -15.84,1.52 -31.82,0.24 -47.7,0.6 0.8,-9.82 3.72,-19.12 8.54,-27.68 -2.58,-12.24 -5.22,-24.66 -6.48,-37.18 -0.46,-4.74 3.74,-8 6.04,-11.64 -3.46,-11.98 0.76,-24.3 -0.08,-36.46 -1.08,-15.6 6.3,-29.88 8.7,-44.98 -3.4,1.94 -6.74,4.02 -10.02,6.16 -1.02,-2.78 -2.02,-5.54 -3.02,-8.3 4.68,-3.36 10.44,-5.84 13.84,-10.6 -0.28,-5.86 -0.96,-11.68 -1.18,-17.52 -2.32,-2 -4.64,-3.96 -6.98,-5.92 1.08,-4.52 2.28,-9 3.16,-13.56 -10.78,8.28 -18.16,21.34 -31.68,25.7 -0.34,-2.48 -0.64,-4.94 -0.94,-7.4 -1.84,-0.94 -3.68,-1.88 -5.52,-2.8 -0.42,-1.16 -1.24,-3.5 -1.64,-4.66 2.76,-22.04 14.16,-41.4 23.74,-61 3.56,-7.46 9.44,-13.74 11.66,-21.82 2.6,-7.7 1.76,-15.9 1.74,-23.84 -5,0.92 -10.14,1.32 -15.06,-0.38 1.54,-3.96 0.14,-7.26 -3.02,-9.82 1.64,-0.12 4.92,-0.36 6.56,-0.48 -1,-2.14 -1.98,-4.26 -2.98,-6.38 0.96,0.76 2.86,2.26 3.8,3.02 1.7,-1.46 3.4,-2.88 5.1,-4.32 2.4,2.58 4.74,5.22 7.02,7.92 1.16,-2.24 2.46,-4.4 3.42,-6.74 -1.18,-2.36 -3.2,-4.18 -4.82,-6.2 2.46,-6.48 4.9,-13.16 4.4,-20.22 -0.5,-5.2 3.1,-9.9 2.02,-15.08 -1.3,-7.06 -3.32,-13.96 -4.86,-20.94 -2.44,2.58 -4.84,5.22 -7.22,7.86 3.52,5 -0.44,10.14 -2.28,14.88 -2.56,4.84 -3.78,11.66 -10.08,12.84 -11.34,20.32 -26.1,38.42 -37.68,58.6 5.68,15.84 9,32.8 7.76,49.68 -2.84,-0.46 -6.02,-0.02 -8.58,-1.4 -5.2,-7.6 -2.44,-19.48 -12.14,-23.8 -2.5,2.8 -4.5,5.98 -6,9.42 3.74,3.6 7.46,7.22 11.12,10.9 -0.16,2.32 -0.32,4.64 -0.46,6.98 -2.96,-0.52 -5.92,-1 -8.86,-1.46 2.2,4.12 4.68,8.08 7.44,11.86 -1.04,3.52 1.56,13.04 -4.86,10.1 -3.84,-5.14 -7.14,-10.78 -12.4,-14.66 -3.48,-8.5 -7.44,-16.78 -10.76,-25.32 -1.38,-3.38 -1.3,-7.2 -0.04,-10.6 3.76,-11.16 10.96,-20.78 14.42,-32.06 2.92,-9.82 8.8,-18.42 11.82,-28.2 4.34,-13.54 8.88,-27.08 15.4,-39.74 -5.98,-7.16 2.64,-13.28 5.14,-19.8 2.58,-4.08 2.36,-11.04 8.3,-11.78 3.4,-7.46 10.38,-12.54 13.54,-20.12 5.92,-13.52 12.42,-26.78 17.88,-40.48 2.18,-5.74 8.96,-7.12 13.58,-10.3 5.26,-2.56 7.9,-8.82 13.84,-10.2 9.22,-2.58 18.1,-6.62 25.98,-12.06 5.64,-7.58 4.94,-17.7 6.02,-26.64 4.64,-0.44 7.22,2.6 9.02,6.4 3.54,0.96 7.08,1.92 10.64,2.84 -0.8,-3.94 -1.54,-7.9 -2.24,-11.84 z"
       id="path30"
       inkscape:connector-curvature="0"
       style="fill:#f5e5c1" />
  </g>
</svg>
