<?xml version="1.0" encoding="UTF-8" standalone="no"?>
<svg
   xmlns:dc="http://purl.org/dc/elements/1.1/"
   xmlns:cc="http://creativecommons.org/ns#"
   xmlns:rdf="http://www.w3.org/1999/02/22-rdf-syntax-ns#"
   xmlns:svg="http://www.w3.org/2000/svg"
   xmlns="http://www.w3.org/2000/svg"
   xmlns:sodipodi="http://sodipodi.sourceforge.net/DTD/sodipodi-0.dtd"
   xmlns:inkscape="http://www.inkscape.org/namespaces/inkscape"
   width="1280"
   height="1280"
   viewBox="0 0 1024 1024"
   version="1.1"
   id="svg2"
   inkscape:version="0.48.1 "
   sodipodi:docname="decapitate_equalizer.svg">
  <metadata
     id="metadata64">
    <rdf:RDF>
      <cc:Work
         rdf:about="">
        <dc:format>image/svg+xml</dc:format>
        <dc:type
           rdf:resource="http://purl.org/dc/dcmitype/StillImage" />
      </cc:Work>
    </rdf:RDF>
  </metadata>
  <defs
     id="defs62" />
  <sodipodi:namedview
     pagecolor="#ffffff"
     bordercolor="#666666"
     borderopacity="1"
     objecttolerance="10"
     gridtolerance="10"
     guidetolerance="10"
     inkscape:pageopacity="0"
     inkscape:pageshadow="2"
     inkscape:window-width="1920"
     inkscape:window-height="1018"
     id="namedview60"
     showgrid="false"
     inkscape:snap-page="true"
     fit-margin-top="0"
     fit-margin-left="0"
     fit-margin-right="0"
     fit-margin-bottom="0"
     inkscape:zoom="0.6609375"
     inkscape:cx="466.00473"
     inkscape:cy="640"
     inkscape:window-x="-8"
     inkscape:window-y="-8"
     inkscape:window-maximized="1"
     inkscape:current-layer="layer1" />
  <g
     inkscape:groupmode="layer"
     id="layer1"
     inkscape:label="background">
    <rect
       style="fill:#3e3e3e;fill-opacity:1;fill-rule:nonzero;stroke:none"
       id="rect3041"
       width="1024"
       height="1024"
       x="0"
       y="0" />
  </g>
  <g
     inkscape:groupmode="layer"
     id="layer2"
     inkscape:label="foreground">
    <path
       style="fill:#f4722b"
       d="M 0 0 L 0 25.8125 C 25.25 51.9875 51.675 76.9875 76.25 103.8125 C 136.375 164.5125 197.08125 224.675 256.53125 286 C 342.98125 372.95 429.66875 459.7125 515.59375 547.1875 C 522.46875 554.3625 521.1 564.99375 522.125 574.09375 C 512 583.41875 503.3625 597.2625 487.8125 596.6875 C 423.8125 531.6875 359.29375 467.2125 295.21875 402.3125 C 196.86875 302.2625 98 202.6875 0 102.3125 L 0 151.28125 C 95.2 243.98125 191 336.075 286.375 428.625 C 352.55 492.75 419.175 556.4375 484.125 621.8125 C 483.85 625.9625 483.5625 630.1375 483.3125 634.3125 C 528.5375 679.0625 573.775 723.8125 619.625 767.9375 C 652.025 799.5875 683.6625 832.0375 716.9375 862.8125 C 715.2625 869.2125 712.33125 875.2875 707.28125 879.6875 C 665.80625 919.9625 626.5 962.525 583 1000.625 C 585.85 1011.075 595.6625 1018.1375 605.0625 1022.4375 C 615.6125 1017.0125 623.5125 1007.625 632.9375 1000.5 C 683.6375 957.6 734.6625 915.0625 786.1875 873.1875 C 792.1625 880.7375 798.2125 888.24375 804.4375 895.59375 C 806.9625 895.76875 809.50625 895.9875 812.03125 896.1875 C 814.10625 900.4625 816.025 904.8875 819.125 908.5625 C 850.15 943.2375 881.6375 977.5375 912.5625 1012.3125 C 916.9625 1017.4625 924.0125 1018.1875 930.1875 1019.8125 C 934.6875 1024.2375 939.825 1028.2625 943 1033.8125 C 947.075 1042.2125 948.7375 1052.25 956.3125 1058.5 C 989.4375 1087.875 1022.2625 1117.6875 1055.1875 1147.3125 C 1063.6625 1155.4875 1072.8184 1162.9 1082.5938 1169.5 C 1084.9435 1182.975 1097.3375 1189.8875 1105.0625 1199.9375 C 1112.1375 1212.8125 1112.2625 1228.3185 1119.0625 1241.3438 C 1123.8375 1247.1185 1130.1685 1251.3875 1136.0938 1255.9375 C 1145.3184 1263.6625 1158.5065 1264.1875 1169.9062 1262.6875 C 1183.9565 1258.0625 1198.6064 1252.6875 1208.9062 1241.5625 C 1215.9062 1234.2375 1224.975 1227.675 1227.375 1217.25 C 1230.475 1204.375 1230.2686 1190.7686 1228.4688 1177.7188 C 1222.7434 1162.7686 1213.0566 1149.25 1200.6562 1139.125 C 1189.6816 1130.025 1174 1130.5815 1162.625 1122.1562 C 1151.475 1114.3815 1141.375 1105.0875 1134 1093.5625 C 1120.225 1076.5625 1103.6375 1062.15 1089.1875 1045.75 C 1072.8125 1027.1 1054.4566 1010.3313 1038.4062 991.40625 C 1033.1816 984.55625 1024.475 982.44375 1017.75 977.59375 C 1017.1 973.19375 1017.0625 968.74375 1016.9375 964.34375 C 1013.8375 960.49375 1010.975 956.3125 1007 953.3125 C 1003.125 952.2875 999.11875 952.1 995.21875 951.625 C 974.09375 926.4 948.30625 905.64375 925.03125 882.46875 C 910.18125 867.59375 894.8375 853.1625 879.4375 838.8125 L 873.5625 840.9375 C 872.0125 825.9875 856.1375 819.8375 850.4375 807.5625 C 855.8625 796.2875 864.18125 786.6875 871.78125 776.8125 C 912.38125 728.9875 952.64375 680.84375 993.34375 633.09375 C 995.29375 630.21875 998.93125 627.1375 996.53125 623.4375 C 992.08125 615.7875 984.59375 610.31875 977.21875 605.71875 C 972.66875 606.86875 969.5375 610.725 966.1875 613.75 C 921.9375 658.4 876.95 702.31875 831.5 745.71875 C 815.075 728.89375 798.3 712.4 780.875 696.625 C 770 685.85 758.125 675.89375 749.375 663.21875 C 743.625 654.21875 731.19375 653.525 725.09375 644.75 C 716.81875 637.075 713.3 626.3375 708.375 616.5625 C 702.05 612.2125 692.95625 613.31875 687.53125 607.34375 C 677.93125 597.79375 669.75 586.8625 659.625 577.8125 C 640.85 560.7375 624.625 541.2 607.375 522.625 C 600.2 513.925 587.6 513.21875 580.125 504.84375 C 477.075 402.06875 373.8875 299.4125 270.5625 196.9375 C 241.0125 168.1875 210.675 140.2875 180.875 111.8125 C 141.4 75.4625 103.3125 37.65 65.0625 0 L 0 0 z M 584.90625 529 C 594.65625 530.15 601.3 538.0375 607.25 545.0625 C 615.5 555.1625 624.5875 564.5625 632.6875 574.8125 C 620.1375 588.8875 601.83125 597.8375 593.40625 615.4375 C 611.25625 610.1125 627.85625 601.5 645.15625 594.75 C 648.48125 593.85 652.625 591.11875 655.5 594.46875 C 663.75 601.84375 670.6875 610.60625 679.0625 617.90625 C 674.7625 625.60625 670.51875 633.4375 667.96875 641.9375 C 677.81875 639.9125 686.81875 635.3125 695.71875 630.8125 C 704.24375 642.1375 712.75625 653.4625 721.40625 664.6875 C 691.93125 694.6875 662.3375 724.6125 633.0625 754.8125 C 624.5625 743.7875 614.0875 734.55 604.3125 724.75 C 607.9625 716.725 611.44375 708.58125 616.21875 701.15625 C 629.21875 681.40625 651.2875 669.33125 663.1875 648.78125 C 650.9375 651.13125 643.8 662.375 634.75 669.875 C 619.55 682.9 605.4875 697.1625 590.0625 709.9375 C 562.9375 682.8625 535.8125 655.7875 508.5625 628.8125 C 506.3375 626.4875 503.35625 623.6375 505.15625 620.0625 C 507.23125 611.5375 509.325 602.3125 515.75 595.9375 C 534.975 575.8875 555.35625 556.975 574.53125 536.875 C 577.75625 534.025 580.53125 530.05 584.90625 529 z M 727.03125 675.875 C 735.65625 680.125 745.05 683.58125 751.875 690.65625 C 769.4 708.15625 787.15 725.425 804.75 742.875 C 811.9 749.7 819.0375 756.6625 825.0625 764.5625 C 830.8875 760.0875 834.8625 752.06875 842.5625 750.84375 C 849.7125 756.64375 856.3625 763.26875 861.4375 770.96875 C 863.1375 774.54375 859.71875 777.6375 858.09375 780.4375 C 850.59375 790.4125 843.44375 800.6125 835.59375 810.3125 C 841.16875 824.2875 854.85625 832.01875 864.53125 842.84375 C 852.13125 856.06875 838.35 867.9 824.75 879.875 C 821.45 882.925 816.69375 883.0625 812.59375 884.3125 C 805.11875 877.6875 797.6875 870.9125 792.0625 862.5625 C 776.1125 869.1625 765.5625 884.0875 750.0625 891.4375 C 746.1625 892.2375 744.1125 888.14375 741.6875 885.96875 C 736.2875 879.79375 731.6875 872.98125 728.0625 865.65625 C 736.7875 856.78125 744.45625 846.95625 752.40625 837.40625 C 761.40625 828.28125 758.6125 813.9125 756.6875 802.5625 C 746.7625 786.4875 732.28125 773.75 721.90625 758 C 718.40625 753.175 721.1875 747.39375 724.0625 743.09375 C 739.9625 759.14375 753.34375 777.4375 766.71875 795.5625 C 769.69375 805.7375 768.8875 816.85625 768.6875 827.40625 C 760.8625 840.98125 747.65 850.34375 738.5 862.84375 C 738.375 869.51875 745.625 874.55625 749 880.15625 C 760.1 872.78125 769.2625 863.0625 779.5625 854.6875 C 794.2375 840.9875 810.9625 829.2 822.9375 812.875 C 832.6625 799.475 842.9875 786.51875 852.3125 772.84375 C 848.2125 768.41875 844.1375 763.9875 840.0625 759.5625 C 832.6625 766.9625 825.3625 775.65625 814.6875 778.15625 C 806.4625 780.00625 798.41875 782.6625 790.09375 784.0625 C 772.36875 773.4125 758.7375 757.6125 743.9375 743.4375 C 738.1625 737.0875 728.49375 737.78125 720.71875 738.40625 C 713.14375 742.20625 715.1125 752.76875 713.5625 759.84375 C 724.4875 773.04375 733.9625 787.35625 744.4375 800.90625 C 751.9125 809.60625 748.55625 821.89375 749.53125 832.34375 C 743.63125 839.49375 737.5375 846.53125 731.1875 853.28125 C 705.9625 825.45625 678.9625 799.2875 652.5625 772.5625 C 657.7375 760.9625 662.9125 749.40625 667.6875 737.65625 C 670.8625 729.75625 677.70625 724.4125 683.53125 718.5625 C 698.15625 704.4875 711.70625 689.225 727.03125 675.875 z M 874.5625 850.5 C 909.6875 885.35 946.0875 918.93125 980.8125 954.15625 C 982.4875 955.95625 984.03125 957.8625 985.40625 959.9375 C 979.58125 971.9125 969.20625 980.7125 960.15625 990.1875 C 953.03125 997.8375 943.7375 1002.8063 935.0625 1008.4062 C 919.0125 1005.6313 911.0875 990 900.5625 979.375 C 885.3375 963.725 871.45625 946.85 856.15625 931.25 C 845.98125 919.025 833.95 908.4375 824.375 895.6875 C 836.2 886.2875 846.925 875.6375 856.75 864.1875 C 861.55 858.2875 867.8875 854.025 874.5625 850.5 z M 1005.0625 981.59375 C 1005.7875 983.91875 1006.5312 986.24375 1007.2812 988.59375 C 999.08125 995.14375 992.28125 1003.25 986.90625 1012.25 C 998.78125 1021.35 1007.9938 1033.2375 1018.2188 1044.0625 C 1039.4188 1066.6375 1059.8625 1089.9313 1081.3125 1112.2812 C 1078.0375 1116.0062 1075.1 1120.025 1072.5 1124.25 C 1079.65 1134.9 1085.6375 1146.3063 1092.3125 1157.2812 C 1095.1875 1154.4062 1098.7938 1151.9625 1100.5938 1148.1875 C 1103.3187 1143.9375 1098.9688 1139.7875 1097.7188 1135.8125 C 1102.7687 1133.0875 1107.775 1130.2812 1112.75 1127.4062 C 1115.325 1129.8812 1117.9 1132.3125 1120.5 1134.8125 C 1124.125 1131.2125 1129.275 1128.0125 1129.75 1122.4375 C 1131.025 1115.7875 1125.2375 1111.3875 1121.4375 1106.9375 C 1090.6625 1074.9625 1059.1875 1043.6875 1028.6875 1011.4375 C 1021.8125 1004.2625 1014.2875 997.56875 1008.8125 989.21875 C 1016.5125 992.51875 1021.5188 999.41875 1027.0938 1005.3438 C 1060.6688 1040.3438 1093.075 1076.4813 1127.125 1111.0312 C 1129.85 1113.7813 1132.0875 1116.9375 1134.4375 1120.0625 C 1137.0375 1118.0875 1139.6187 1116.1313 1142.2188 1114.1562 C 1149.4937 1120.6313 1156.6937 1127.2625 1164.7188 1132.8125 C 1175.4437 1139.9125 1189.675 1139.5312 1199.625 1148.0312 C 1206.425 1153.2812 1212.4625 1159.5312 1216.9375 1166.9062 C 1216.0875 1168.8063 1214.3813 1172.6313 1213.5312 1174.5312 C 1222.5563 1187.9563 1219.2125 1206.6312 1210.5625 1219.4062 C 1206.2875 1215.9313 1203.175 1209.6562 1197.375 1208.9062 C 1194.85 1211.1813 1192.9062 1213.9875 1190.9062 1216.6875 C 1193.8312 1220.3875 1196.7625 1224.125 1199.6875 1227.875 C 1202.3625 1226.4 1205.0875 1224.9563 1207.8125 1223.5312 C 1200.5625 1234.3063 1188.2625 1239.3063 1176.9375 1244.5312 C 1161.7125 1250.4563 1143.7125 1246.6875 1131.6875 1235.8125 C 1120.9125 1223.3625 1120 1205.9937 1113.25 1191.5938 C 1105.875 1181.2438 1092.1625 1174.9313 1091.0625 1160.9062 C 1066.9375 1144.8313 1046.55 1123.9938 1025.75 1103.9688 C 1007.475 1085.6438 987.7 1068.9313 969.625 1050.4062 C 963.275 1043.6813 954.4125 1038.1313 952.9375 1028.2812 C 973.2125 1016.4312 988.7625 998.19375 1005.0625 981.59375 z "
       id="path4"
       transform="scale(0.8,0.8)" />
    <path
       style="fill:#f5e5c1"
       d="M 1010.7188 0 C 1006.4185 3.75 1002.0375 7.63125 999.1875 12.65625 C 998.2125 17.60625 999.26875 22.64375 999.84375 27.59375 C 1002.8188 47.19375 1004.7688 67.1 1010.7188 86.125 C 1022.7935 129.475 1035.7375 172.5875 1046.8125 216.1875 C 1049.6375 245.6625 1050.4625 275.3625 1051.9375 304.9375 C 1052.6125 314.1125 1054.2375 323.33125 1053.1875 332.53125 C 1048.5375 343.15625 1040.7125 352.08125 1034.3125 361.65625 C 1024.3375 376.78125 1000.8625 376.8125 995.0625 395.5625 C 953.3875 406.2375 911.5 416 869.875 426.75 C 857.75 430.475 845.3625 425.975 833.1875 425 C 830.3625 432.325 829.94375 442.73125 821.34375 445.78125 C 807.96875 450.00625 793.86875 451.1375 780.21875 454.1875 C 765.04375 457.6125 749.525 458.9375 734 458.9375 C 741.375 463.0125 749.2625 466.2875 756.0625 471.3125 C 760.4375 481.6125 746.8375 487.23125 742.1875 494.78125 C 734.2625 508.68125 740.08125 527.16875 730.53125 540.59375 C 725.43125 548.21875 719.9375 555.6125 714.9375 563.3125 C 733.1625 565.4625 751.46875 567.99375 769.84375 568.59375 C 790.99375 566.29375 811.7 560.85625 832.625 557.03125 C 841 554.93125 847.38125 562.55625 855.03125 564.53125 C 867.18125 562.60625 877.14375 554.0625 889.46875 552.5625 C 930.39375 546.2625 971.3875 540.26875 1012.3125 533.96875 C 1018.5375 532.31875 1024.1816 535.5875 1029.6562 538.0625 C 1041.7819 544.3375 1057.2375 537.76875 1068.5625 546.46875 C 1074.8625 554.01875 1078.9125 563.1375 1084.3125 571.3125 C 1089.4625 579.5375 1095.0875 587.85625 1096.5625 597.65625 C 1107.3375 652.53125 1119.3438 707.15 1129.5938 762.125 L 1130.3125 760.59375 C 1133.6875 783.86875 1139.4182 806.75 1143.7188 829.875 C 1149.8936 857.25 1152.1625 886.9 1169.4375 910.25 C 1177.5875 903.45 1187.7812 896.43125 1188.9062 884.90625 C 1191.9316 865.03125 1197.1682 845.3125 1196.5938 825.0625 C 1195.8184 779.9875 1195.7932 734.8625 1191.7188 689.9375 C 1188.6436 653.7875 1185.6319 617.6125 1182.6562 581.4375 C 1180.6319 561.7875 1180.4931 542.0375 1180.9688 522.3125 C 1188.6934 521.5125 1199.6181 522.30625 1202.7188 513.15625 C 1204.0432 502.90625 1201.3 492.63125 1200.625 482.40625 C 1196.975 454.95625 1195.0875 427.2625 1190.6875 399.9375 C 1185.0375 380.6125 1177.3875 361.8875 1170.5625 342.9375 C 1162.4875 344.8875 1154.45 346.91875 1146.375 348.71875 C 1140.175 317.91875 1140.3625 286.3625 1137.5625 255.1875 C 1136.1375 241.8625 1137.1181 228.11875 1132.8438 215.21875 C 1118.9688 171.16875 1105.7431 126.9 1092.5938 82.625 C 1083.0186 54.975 1072.6436 27.625 1062.9688 0 L 1010.7188 0 z M 1046.3125 49.5625 C 1057.9875 94.5875 1074.0625 138.38125 1087.0625 183.03125 C 1091.5375 197.43125 1091.0375 212.68125 1092.8125 227.53125 C 1093.5625 241.73125 1095.8185 255.8375 1095.8438 270.0625 C 1094.6185 280.4625 1091.7375 290.55625 1089.5625 300.78125 C 1086.8125 268.00625 1083.6 235.28125 1080.75 202.53125 C 1071.025 170.23125 1062.5875 137.525 1053.1875 105.125 C 1047.8125 87.15 1046.1125 68.2625 1046.3125 49.5625 z M 1034.3438 73.5 C 1034.6436 73.474377 1034.9709 73.492188 1035.2812 73.53125 C 1036.6318 83.25625 1036.2625 93.2125 1039.1875 102.6875 C 1048.2125 135.2625 1057.5875 167.7625 1066.6875 200.3125 C 1069.8625 211.5625 1070.9375 223.2875 1071.4375 234.9375 C 1075.2625 274.8875 1078.3375 314.875 1081.6875 354.875 C 1086.6125 354.075 1092.2125 352.1375 1093.5625 346.6875 C 1098.4125 327.6625 1102.1562 308.4 1107.0312 289.375 C 1112.7568 268.95 1106.9 247.86875 1105.75 227.21875 C 1103.7 212.21875 1103.3438 196.99375 1100.4688 182.09375 C 1094.3682 161.31875 1086.9625 140.9125 1081.1875 120.0625 C 1079.4875 115.4125 1085.0566 113.61875 1087.6562 110.96875 C 1088.4062 114.81875 1089.1625 118.675 1090.0625 122.5 C 1094.6625 135.725 1098.3875 149.21875 1102.9375 162.46875 C 1103.2625 163.81875 1103.9875 166.49375 1104.3125 167.84375 C 1108.2625 179.29375 1111.5068 190.9625 1115.4062 202.4375 L 1116.8125 207.84375 C 1125.5625 228.29375 1125.4688 250.83125 1126.5938 272.65625 C 1128.5431 293.40625 1129.5 314.19375 1131.125 334.96875 C 1130.525 352.29375 1136.5186 368.7375 1140.5938 385.3125 C 1143.2188 395.6375 1145.7125 405.9875 1148.8125 416.1875 C 1113.9125 424.4125 1078.5684 430.68125 1043.5938 438.65625 C 1043.5684 448.60625 1044.3625 458.5625 1044.1875 468.5625 C 1045.9125 471.1875 1047.6562 473.7875 1049.4062 476.4375 C 1085.7068 468.8125 1122.0125 461.175 1158.3125 453.5 C 1160.8875 486.1 1164.7068 518.59375 1166.7812 551.21875 C 1154.4316 555.01875 1141.5312 556.025 1128.9062 558.375 C 1126.9569 553.9 1128.0186 546.75625 1122.5938 544.78125 C 1102.6934 538.03125 1082.8875 530.84375 1062.4375 525.96875 C 1051.2125 523.94375 1041.2875 517.23125 1034.4375 508.28125 C 1033.2125 476.40625 1033.8066 443.8125 1024.5312 412.9375 C 1022.8569 406.4125 1020.825 399.8375 1020.75 393.0625 C 1029.325 386.6375 1041.2569 384.3125 1046.9062 374.4375 C 1052.6064 365.3875 1061.1181 357.8875 1064.7188 347.6875 C 1066.7686 330.2875 1065.6125 312.65 1065.8125 295.125 C 1062.8625 272.525 1060.55 249.7875 1060.5 226.9375 C 1060.125 226.7375 1059.375 226.2875 1059 226.0625 C 1059.6 215.5375 1058.5875 204.9625 1054.8125 195.0625 C 1044.7875 158.3375 1033.6875 121.85625 1024.0625 85.03125 C 1026.5234 81.210938 1029.836 73.884338 1034.3438 73.5 z M 1157.6875 359.9375 C 1160.7875 367.3625 1164.8684 374.55 1166.5938 382.5 C 1167.3684 388.05 1160.5125 389.7375 1157.1875 392.5625 C 1154.0125 385.2125 1150.1625 378.05 1148.3125 370.25 C 1148.9875 365.15 1154.1875 362.8875 1157.6875 359.9375 z M 1005.875 401.75 C 1012.9 417.975 1016.1875 435.5 1019.6875 452.75 C 1022.5625 473.95 1021.8687 495.425 1021.5938 516.75 C 1016.1187 516.025 1010.575 515.78125 1005.125 516.65625 C 965.025 522.88125 924.90625 528.8875 884.78125 534.9375 C 873.83125 536.8625 864.36875 543.1625 854.21875 547.3125 C 853.66875 528.5375 854.74375 509.6875 853.59375 490.9375 C 849.64375 474.6375 843.59375 458.94375 838.46875 442.96875 C 848.21875 442.89375 857.7375 446.7375 867.4375 445.6875 C 911.7375 434.7125 956.14365 424.0125 1000.4688 413.0625 C 1002.2686 409.2875 1004.075 405.5 1005.875 401.75 z M 1178.125 430.46875 C 1182.275 451.71875 1183.0684 473.48125 1185.9688 494.90625 C 1187.2433 501.10625 1180.4625 504.30625 1176.6875 507.65625 C 1172.2125 494.78125 1172.9625 480.85625 1170.8125 467.53125 C 1169.9375 457.55625 1167.6 447.5875 1168.375 437.5625 C 1169.7 433.3625 1174.875 432.64375 1178.125 430.46875 z M 1093 548.75 C 1099.65 551.35 1107.1188 552.60625 1112.9688 556.90625 C 1115.8688 562.53125 1117.1875 568.8625 1118.3125 575.0625 C 1130.1125 652.5625 1143.5812 729.80625 1155.6562 807.28125 C 1156.4562 813.50625 1156.5812 819.825 1156.4062 826.125 C 1144.8812 771.675 1135.9625 716.6375 1124.3125 662.1875 C 1118.1375 636.7875 1113.8625 611.03125 1108.9375 585.40625 C 1106.9625 571.93125 1098.7 560.775 1093 548.75 z M 1159.5 649.0625 C 1164.9531 649.0375 1170.3937 649.0375 1175.8438 649.0625 C 1178.6687 691.9375 1184.3186 734.6625 1183.8438 777.6875 C 1184.0186 797.2125 1184.45 816.725 1184.5 836.25 C 1179.375 836.425 1174.2563 836.64375 1169.1562 836.84375 C 1168.7814 823.69375 1169.125 810.46875 1167 797.46875 C 1159.275 747.99375 1150.6562 698.6875 1143.1562 649.1875 C 1148.5939 649.1375 1154.0469 649.0875 1159.5 649.0625 z "
       id="path8"
       transform="scale(0.8,0.8)" />
    <path
       d="m 500.18,305.66 c 9.88,-2.58 20.44,-0.86 29.82,2.84 -2.52,6.94 -9.08,12.08 -9.5,19.82 -6.32,1.76 -12.9,1.58 -19.3,0.46 -0.36,-7.7 -0.64,-15.42 -1.02,-23.12 z"
       id="path18"
       inkscape:connector-curvature="0"
       style="fill:#f5e5c1" />
    <path
       d="m 703.8,373.68 c 33.46,-6.02 67.02,-11.44 100.5,-17.26 2.28,9.1 5.64,18.18 4.62,27.72 -38.72,7.46 -77.36,15.42 -116.04,23.08 -2.48,-8.86 -4.52,-18.1 -4,-27.36 3.4,-4.62 9.82,-4.84 14.92,-6.18 z"
       id="path24"
       inkscape:connector-curvature="0"
       style="fill:#f5e5c1" />
    <path
       d="m 526.64,396.52 c 12.3,-6.06 23.9,-13.4 36.04,-19.74 0.98,3.5 1.78,7.08 2.66,10.62 0.84,1.14 1.66,2.28 2.48,3.42 -9.92,2.9 -19.32,7.36 -29.4,9.7 -8.54,2.16 -16.6,7.1 -25.7,6.06 3,-5.26 8.92,-7.28 13.92,-10.06 z"
       id="path26"
       inkscape:connector-curvature="0"
       style="fill:#f5e5c1" />
    <path
       style="fill:#f5e5c1"
       d="M 335.96875 543.625 C 323.36875 580.875 305.55625 616.01875 290.28125 652.21875 C 247.13125 749.91875 203.98125 847.6875 160.90625 945.4375 C 156.85625 958.4125 137.6875 955.29375 133.1875 968.09375 C 129.2625 980.99375 129.85625 994.9435 125.28125 1007.7188 C 120.15625 1019.3187 114 1030.4568 109.125 1042.1562 C 107.125 1046.9567 109.25625 1052.1625 109.15625 1057.1875 C 102.93125 1061.6875 93.24375 1061.2933 89.09375 1068.7188 C 84.04375 1077.8936 81.2875 1088.1125 78.1875 1098.0625 C 80.4875 1099.7125 82.7625 1101.3875 85.0625 1103.0625 C 78.0625 1114.9375 65.10625 1121.2375 56.40625 1131.5625 C 53.55625 1137.2625 54.3375 1143.9125 53.5625 1150.0625 C 53.1875 1159.7125 50.3625 1169.325 51.3125 1179 C 56.8125 1188.675 62.925 1198.475 71.25 1206 C 85.95 1214.875 101.525 1222.5312 117.875 1227.9062 C 131.475 1230.1317 145.3375 1229.0125 159.0625 1229.1875 C 168.8375 1216.5375 181.00625 1206.0938 192.40625 1194.9688 C 194.25625 1192.8936 197.1375 1190.875 196.4375 1187.625 C 196.4625 1175.425 194.30625 1163.3683 193.40625 1151.2188 C 205.98125 1152.0938 211.5375 1139.2432 218.3125 1131.0938 C 223.1125 1123.5938 230.55625 1117.8375 234.15625 1109.6875 C 233.03125 1103.5875 228.4125 1098.6 227.8125 1092.375 C 230.4125 1085.425 232.75 1078.1875 236.625 1071.8125 C 244.575 1065.7625 255.8375 1063.175 259.6875 1052.875 C 254.4875 1046.375 248.56875 1039.4375 250.84375 1030.4375 C 255.16875 1031.3375 259.5125 1032.3564 263.8125 1033.5312 C 275.2375 1028.7567 276.66875 1015.4812 280.59375 1005.2812 C 307.71875 927.5565 334.33125 849.63125 362.15625 772.15625 C 365.10625 762.43125 366.64375 752.275 370.96875 743 C 382.29375 717 391.58125 690.0625 404.53125 664.8125 C 416.88125 645.7125 427.78125 625.725 439.53125 606.25 C 425.83125 603.725 413.5125 612.71875 399.9375 611.59375 C 394.3875 611.36875 388.8625 610.9625 383.3125 610.6875 C 386.0625 600.6625 388.91875 590.64375 391.96875 580.71875 C 379.71875 578.51875 372.24375 589.90625 362.46875 594.90625 C 355.54375 579.45625 349.45 563.4875 345.75 546.9375 C 342.475 545.8375 339.21875 544.75 335.96875 543.625 z M 373.0625 627.875 C 380.9125 630.75 388.65625 633.775 396.40625 636.875 C 387.68125 656.65 379.26875 676.575 370.84375 696.5 C 367.29375 704.925 360.775 711.74375 357.75 720.46875 C 321.425 812.89375 285.0125 905.29375 248.6875 997.71875 C 246.3125 1003.8187 243 1012.8875 234.625 1010.9375 C 229.4 1008.0375 224.9125 1003.7125 221.6875 998.6875 C 218.4375 992.0875 221.5625 984.81875 223.8125 978.46875 C 255.1875 899.14375 285.8625 819.54375 317.1875 740.21875 C 324.1125 721.71875 330.6375 702.8875 340.9375 685.9375 C 351.4125 666.4375 362.6125 647.375 373.0625 627.875 z M 159.46875 972.625 C 185.26875 990.775 209.49375 1011.1 235.84375 1028.5 C 218.96875 1028.375 201.1125 1030.225 185.3125 1023 C 172.7125 1017.6 160.1 1012.2125 147.25 1007.4375 C 150.45 995.5375 155.69375 984.325 159.46875 972.625 z M 140.875 1017.9062 C 152.825 1024.2063 165.4875 1029.0375 177.9375 1034.3125 C 194.6625 1041.9625 213.60625 1039.8625 231.28125 1043.4375 C 231.48125 1045.1375 231.86875 1048.4814 232.09375 1050.1562 C 227.94375 1054.4565 223.8375 1058.7625 219.8125 1063.1875 C 205.9875 1064.1375 191.9375 1062.1934 179.6875 1055.4688 C 162.0375 1048.8685 151.3 1032.5813 140.875 1017.9062 z M 133.0625 1032.875 C 144.1875 1043.675 151.5375 1059.6 167.1875 1064.625 C 174.3625 1067.45 181.1375 1071.2625 188.5625 1073.3125 C 197.7875 1074.4375 207.09375 1073.9814 216.34375 1074.5312 C 212.86875 1080.2314 209.3125 1085.9 205.6875 1091.5 C 189.7625 1091.6 174.0375 1089.05 158.1875 1088 C 147.6625 1075.025 136.5 1062.5814 125.625 1049.9062 C 128.1 1044.2314 130.6125 1038.55 133.0625 1032.875 z M 114.9375 1075.6562 C 124.4125 1083.4563 132.9375 1092.2625 141.9375 1100.5625 C 144.9625 1103.0125 147.8125 1106.725 152.1875 1106.25 C 168.3625 1106.925 184.66875 1105.9125 200.71875 1108.4375 C 196.64375 1114.9375 194.4875 1123.425 187.9375 1128 C 176.9875 1129.4 165.5375 1129.0186 155.0625 1125.2188 C 142.2875 1120.6686 130.35 1113.8125 117 1110.9375 C 114.075 1106.6875 110.91875 1102.5186 108.96875 1097.7188 C 110.14375 1090.1686 112.8625 1082.9814 114.9375 1075.6562 z M 116.28125 1131.0625 C 128.38125 1134.3125 139.5125 1142.1375 152.4375 1141.0625 C 159.6875 1140.9875 166.9625 1140.4938 174.1875 1141.0938 C 179.2625 1153.9938 178.28125 1168.1438 179.40625 1181.7188 C 168.58125 1191.1688 159.11875 1202.0688 149.09375 1212.3438 C 148.09375 1211.9688 146.0625 1211.2188 145.0625 1210.8438 C 133.1125 1198.7688 115.40625 1190.1375 111.03125 1172.4375 C 111.35625 1158.5375 113.55625 1144.6875 116.28125 1131.0625 z "
       id="path30"
       transform="scale(0.8,0.8)" />
    <path
       d="m 650.68,674.04 c 4.74,-5.54 9.94,-10.66 15.38,-15.5 5.28,4.5 11.08,8.56 15.52,13.96 0.76,2.46 -2.16,3.94 -3.36,5.68 -4.18,4.12 -8.52,8.08 -12.62,12.28 -5.14,-5.34 -10.04,-10.86 -14.92,-16.42 z"
       id="path40"
       inkscape:connector-curvature="0"
       style="fill:#f4722b" />
    <path
       d="m 696.76,685.18 c 7.88,6.1 14.32,13.72 21.56,20.52 20.94,20.48 42.16,40.74 63.3,61 -3.1,7.66 -10.22,12.62 -15.9,18.3 -28.8,-26.66 -56.26,-54.74 -84.96,-81.5 5.02,-6.38 10.54,-12.32 16,-18.32 z"
       id="path44"
       inkscape:connector-curvature="0"
       style="fill:#f4722b" />
    <path
       d="m 893.62,919.02 c 4.32,-8.28 9.9,-16.38 17.74,-21.66 11.36,9.2 23.48,17.36 34.88,26.5 5.14,4.28 11.7,6.04 18.04,7.76 6.12,7.76 6.72,18.68 2.66,27.46 -1.78,3.68 -5.68,1.42 -8.44,0.56 -3.14,-1.38 -6.62,-0.86 -9.94,-0.86 0.44,6.64 2.72,14.04 -2.72,19.36 -9.28,-8.96 -14.96,-20.8 -23.86,-30.08 -9.48,-9.66 -17.56,-20.74 -28.36,-29.04 z"
       id="path56"
       inkscape:connector-curvature="0"
       style="fill:#f4722b" />
  </g>
</svg>
