<?xml version="1.0" encoding="UTF-8" standalone="no"?>
<svg
   xmlns:dc="http://purl.org/dc/elements/1.1/"
   xmlns:cc="http://creativecommons.org/ns#"
   xmlns:rdf="http://www.w3.org/1999/02/22-rdf-syntax-ns#"
   xmlns:svg="http://www.w3.org/2000/svg"
   xmlns="http://www.w3.org/2000/svg"
   xmlns:sodipodi="http://sodipodi.sourceforge.net/DTD/sodipodi-0.dtd"
   xmlns:inkscape="http://www.inkscape.org/namespaces/inkscape"
   width="1280"
   height="1280"
   viewBox="0 0 1024 1024"
   version="1.1"
   id="svg2"
   inkscape:version="0.48.1 "
   sodipodi:docname="destroy_buildings_being_built.svg">
  <metadata
     id="metadata52">
    <rdf:RDF>
      <cc:Work
         rdf:about="">
        <dc:format>image/svg+xml</dc:format>
        <dc:type
           rdf:resource="http://purl.org/dc/dcmitype/StillImage" />
      </cc:Work>
    </rdf:RDF>
  </metadata>
  <defs
     id="defs50" />
  <sodipodi:namedview
     pagecolor="#ffffff"
     bordercolor="#666666"
     borderopacity="1"
     objecttolerance="10"
     gridtolerance="10"
     guidetolerance="10"
     inkscape:pageopacity="0"
     inkscape:pageshadow="2"
     inkscape:window-width="1920"
     inkscape:window-height="1018"
     id="namedview48"
     showgrid="false"
     fit-margin-top="0"
     fit-margin-left="0"
     fit-margin-right="0"
     fit-margin-bottom="0"
     inkscape:zoom="0.34029514"
     inkscape:cx="148.57606"
     inkscape:cy="363.49072"
     inkscape:window-x="-8"
     inkscape:window-y="-8"
     inkscape:window-maximized="1"
     inkscape:current-layer="layer1"
     inkscape:snap-page="true" />
  <g
     inkscape:groupmode="layer"
     id="layer1"
     inkscape:label="background">
    <rect
       style="fill:#3e3e3e;fill-opacity:1;fill-rule:nonzero;stroke:none"
       id="rect3008"
       width="1280"
       height="1280"
       x="0"
       y="0"
       transform="scale(0.8,0.8)" />
  </g>
  <g
     inkscape:groupmode="layer"
     id="layer2"
     inkscape:label="foreground">
    <path
       d="m 606.02,9.84 c 21.26,7.72 37.92,26.34 43.6,48.18 6.28,23.22 1.92,47.82 -5.9,70.1 -6.6,19.18 -16.86,37.96 -33.24,50.48 -14.52,13.12 -29.24,28.32 -33.02,48.28 -4.18,21.78 -0.62,43.98 0.5,65.86 -19.3,-29 -27.88,-65.32 -22.26,-99.82 2.88,-17.28 9.28,-33.86 18.24,-48.88 11.54,-19.88 28.84,-35.6 40.64,-55.3 8.3,-13.32 16.58,-29.16 11.94,-45.26 -2.36,-13.44 -11.64,-23.9 -20.5,-33.64 z"
       id="path6"
       inkscape:connector-curvature="0"
       style="fill:#f5e5c1" />
    <path
       d="m 585.95,303.55 c -6.8,8.34 -13.35,16.9 -20.05,25.3 -5.3,-7.96 -9.18,-16.99 -15.7,-24.05 -1.1,0.16 -3.27,0.52 -4.35,0.7 -3.38,11.2 -0.62,23.38 -4.1,34.6 -2,6.7 -4.34,13.25 -6.4,19.95 -5.54,-4.3 -10.81,-8.88 -16.05,-13.5 -3.42,34.7 -6.6,69.45 -10,104.15 14.74,9.48 31.08,17.73 48.7,19.85 21.62,1.02 43.56,0.99 64.8,-3.75 5,-47.92 10.1,-95.78 14.9,-143.7 -12.66,7.32 -25.46,14.33 -38.1,21.65 -4.58,-13.7 -9.19,-27.44 -13.65,-41.2 z m -6.45,24.8 c 2.7,9.44 5.01,19.01 8.05,28.35 1.32,4.44 6.32,6.1 10.5,6.2 10.16,1.68 15.46,-8.79 22.4,-14.15 -3.8,32.84 -7.37,65.7 -10.45,98.6 -15.98,1.86 -32.08,1.93 -48.1,3.35 -10.84,1.74 -19.92,-5.54 -29.7,-8.8 -1.02,-20.84 -0.17,-41.77 -0.85,-62.65 4.2,2.52 10.82,5.85 14.4,0.55 11.26,-17.14 22.03,-34.61 33.75,-51.45 z"
       id="path8"
       style="fill:#f5e5c1"
       inkscape:connector-curvature="0" />
    <path
       d="m 436.18,442.26 c 19.18,-10.32 41.24,-12.68 62.46,-15.7 1.68,2.24 5.32,4.02 4.56,7.36 -0.62,8.22 -2.4,16.3 -3.78,24.42 8.36,7.4 19.4,10.12 29.42,14.44 7.56,2.68 14.8,7.48 23.16,6.58 26.38,-1.34 53.12,1.26 79.18,-4.1 1.38,-10.78 2.78,-21.56 4.38,-32.32 0.24,-3.8 3.84,-5.76 6.38,-8.02 20.46,5.1 41.58,10 59.54,21.54 7.26,4.78 14.72,12.12 13.6,21.62 -1.78,17.5 -4.54,34.88 -6.7,52.34 -28.7,6.24 -56.74,16.5 -86.24,18.22 -1.8,-4.28 -3.64,-8.54 -5.48,-12.8 24.18,-1.46 48.2,-5.26 71.66,-11.4 1,-9 2.38,-17.96 3.46,-26.94 -24.84,9.1 -51.48,11.32 -77.68,12.64 -36.04,1.02 -72.22,-1.42 -107.72,-7.8 -21.5,-3.94 -42.9,-9.4 -62.72,-18.8 0.06,8.46 0.08,16.92 -0.1,25.38 25.9,11.56 53.78,18.08 81.66,22.84 0.72,4.04 1.42,8.1 2.12,12.16 -18.78,-3.78 -38.08,-5.76 -56.1,-12.58 -15.98,-5.74 -32.06,-11.2 -47.96,-17.14 -0.5,-18.1 0.42,-36.22 -0.66,-54.32 -0.24,-8.2 7.1,-13.94 13.56,-17.62 z"
       id="path12"
       inkscape:connector-curvature="0"
       style="fill:#f5e5c1" />
    <path
       style="fill:#f5e5c1"
       d="m 554.25,522.85 c -5.94493,0.11157 -11.84499,0.63 -17.65,2.1 11.56,74.28 22.88,148.62 34.3,222.9 1.14,4.72 4.08,8.69 6.3,12.95 24.38,44.36 48.71,88.77 73.05,133.15 2.18,5.28 7.83,6.68 12.95,7.4 -1.96,7.28 -1.37,14.73 0.05,22.05 8.7,9.16 21.51,16.45 34.45,13.25 4.36,-1.18 9.43,-0.84 13.05,-3.9 8.06,-6.28 16.4,-14.07 17.7,-24.75 -0.22,-11.76 -6.7,-22.76 -16.1,-29.6 2.98,-2.62 5.96,-5.96 4.1,-10.2 C 705.09,817.28 693.6,766.39 682.3,715.45 681,709.33 678.08,703.76 675.6,698.1 651.14,641.34 626.58,584.68 602,528 c -2.84,-7.02 -12.05,-4.4 -17.95,-5 -9.87499,0.6 -19.89179,-0.33594 -29.8,-0.15 z m 11.35,11.7 c 3.33499,-0.02 6.78,0.47 10,0.25 20.3,61.06 39.6,122.41 59.6,183.55 14.76,44.1 29.64,88.15 44.4,132.25 2.52,7.7 5.43,15.24 8.35,22.8 -7,3.58 -14.04,7.11 -21.1,10.55 -22.08,-40.18 -44.11,-80.37 -66.15,-120.55 -4.52,-9.58 -11.96,-18.11 -13.2,-28.95 -10.18,-65.78 -21.53,-131.39 -31.25,-197.25 2.78,-2.12 6.01501,-2.63 9.35,-2.65 z m 144.1,359.3 c 3.2,5.44 6.42,11.63 4.4,18.15 -2.34,11.74 -16.7,18.83 -27.4,13.25 -7.5,-3.3 -10.88,-11.35 -11.7,-19.05 3.04,3.44 6.04,7.38 10.8,8.4 8.86,1.72 18.74,-2.6 23.1,-10.6 0.66,-3.36 0.6,-6.77 0.8,-10.15 z"
       id="path14"
       inkscape:connector-curvature="0" />
    <path
       d="m 434.28,542.36 c 5.14,-1.28 7.66,-9.42 13.5,-6.74 14.76,5.08 29.46,10.4 44.2,15.6 -1.26,3.3 -1.86,7.42 -5.2,9.34 -4.56,2.52 -9.68,3.7 -14.58,5.36 -87.5,28.48 -175.02,56.96 -262.5,85.52 -7.18,1.88 -14.08,6.3 -21.68,5.62 -6.9,-3.16 -12.94,-8.08 -20.12,-10.74 -7.42,-2.8 -14.06,-8.22 -21.88,-9.44 -24.76,15.4 -48.92,31.84 -73.44,47.66 -2.64,1.96 -5.9,2.36 -9,2.98 -0.3,3.54 -0.58,7.1 -0.88,10.68 5.14,7.12 13.76,8.82 21.74,10.8 18.32,-11.04 36.4,-22.5 54.58,-33.78 4.54,-2.38 9.06,-7.12 14.6,-5.3 24.96,6.42 49.9,13.04 74.84,19.58 2.8,0.92 5.74,0.74 8.58,0.08 99.66,-23.5 199.46,-46.68 299.08,-70.26 5.02,3.32 6.22,9.36 6.96,14.92 -10.76,2.56 -21.48,5.3 -32.28,7.72 -1.8,29.86 -2.98,59.78 -4.2,89.68 15.18,5.98 31.86,6.68 47.92,4.78 0.4,3.44 0.84,6.86 1.28,10.3 -19.66,2.02 -40.94,1.66 -58.56,-8.26 -1.38,-3.28 -0.94,-6.92 -0.96,-10.36 0.98,-27.82 2.64,-55.62 3.64,-83.44 -85.78,20.62 -171.56,41.26 -257.32,61.92 -6.42,1.32 -13.12,4.34 -19.68,2.06 -23.62,-7.9 -46.98,-16.7 -70.72,-24.18 -21.74,11.68 -42.1,26.02 -63.68,38.1 -11.58,3.26 -26.22,0.88 -33.66,-9.44 -6.5,-8.9 -6.56,-20.66 -5.04,-31.12 0.9,-5.42 1.8,-11.88 7.24,-14.66 25.6,-16.46 51.32,-32.76 76.9,-49.26 3.14,-1.82 6.82,-4.96 10.62,-2.7 12.42,6.14 24.28,13.42 36.7,19.58 2.8,1.66 5.88,-0.08 8.68,-0.78 37.3,-12.68 75.34,-23.34 111.76,-38.52 44.16,-17.84 88.36,-35.58 132.56,-53.3 z"
       id="path18"
       inkscape:connector-curvature="0"
       style="fill:#f5e5c1" />
    <path
       d="m 717.7,538.55 c -0.27824,0.0396 -0.56,0.12 -0.85,0.25 -6.06,1.72 -12.11,3.44 -18.25,4.8 24.76,17.22 50.24,33.41 74.6,51.15 24.44,25.86 48.29,52.36 72.35,78.6 -9.08,8.52 -17.85,17.33 -26.85,25.95 -29.6,-24.44 -59.35,-48.68 -89.05,-73 -4.82,-3.9 -8.34,-8.98 -12,-13.9 -15.28,-20.68 -31.02,-41.03 -46.1,-61.85 -6.68,1.32 -13.29,2.92 -19.85,4.7 18.72,24.4 36.71,49.37 55.55,73.65 9.96,9.46 21.21,17.51 31.65,26.45 23.82,19.4 47.43,39.07 71.35,58.35 4.78,4.12 11.36,3.3 16.9,1.4 -1.5,4.08 -3.59,8.56 -1.25,12.8 2.4,5.42 3.63,13.25 10.25,15.05 12,4.16 26.02,2.78 36.3,-5 1.8,-4.52 4.27,-8.93 4.65,-13.85 -1.34,-6.66 -4.85,-12.8 -9.25,-17.9 -6.48,-6.66 -16.28,-7.32 -25,-6.6 6.82,-6.06 13.34,-12.46 19.9,-18.8 2.14,-2.46 5.55,-4.88 4.85,-8.6 -1.5,-2.98 -3.84,-5.39 -6,-7.85 -20.28,-21.76 -40.18,-43.83 -60.4,-65.65 -5.1,-5.58 -9.85,-11.59 -16.25,-15.75 -20.66,-14 -41.37,-27.93 -61.95,-42.05 -1.6625,-0.87501 -3.3523,-2.62726 -5.3,-2.35 z M 860.85,712.8 c 5.7,3.6 10.72,9.92 7.7,17 -5.6,11.44 -23.77,12.51 -32.25,3.85 -4.84,-5.26 -2.74,-12.91 1.1,-18.05 0.18,7.4 6.64,14.83 14.5,12.65 6.96,-1.62 9.25,-9.11 8.95,-15.45 z"
       id="path20"
       style="fill:#f5e5c1"
       inkscape:connector-curvature="0" />
    <path
       d="m 885.6,725.2 c -1.9,6.02 -3.32,12.31 -6.8,17.65 -13.54,12.66 -34.9,13.33 -51,5.45 -6.28,-5.98 -8.22,-15.06 -11.3,-22.9 -2.32,1.36 -4.63,2.67 -6.95,4.05 -0.34,16.08 -2.17,32.1 -2.45,48.2 27.96,13.44 60.35,21.37 91.05,13.45 5.52,-1.64 11.71,-2.79 16.05,-6.85 3.18,-13.5 4.42,-27.42 7.4,-41 -9.44,-10.14 -23.16,-14.19 -36,-18.05 z m -61.05,36.3 c 23.08,9.5 48.61,12.26 73.35,9.6 -1.32,2.54 -1.37,6.81 -4.95,7.25 -22.96,6.42 -47.41,0.73 -68.65,-8.85 0.1,-2.66 0.19,-5.36 0.25,-8 z"
       id="path24"
       style="fill:#f5e5c1"
       inkscape:connector-curvature="0" />
    <path
       d="m 278.8,792.7 c -2.01368,0.16243 -4.10157,1.23594 -5.6,2.45 -19,13.72 -38.13,27.28 -57.05,41.1 -1.86,1.26 -3.7,2.69 -5.9,3.35 -11.7,-5.54 -22.29,-13.17 -34.05,-18.65 -24.42,9.06 -48.23,19.72 -72.45,29.3 -7.28,3.44 -16.16,4.87 -21.2,11.75 1.9,3.12 4.06,6.24 7.5,7.8 12.94,7.04 25.83,14.21 38.75,21.25 5,2.76 10.46,5.19 14,9.85 13.64,17.08 27.16,34.22 40.8,51.3 2.3,2.48 4.6,6.28 8.6,5.5 3,0.12 4.56,-2.95 6.5,-4.75 15.24,-18.6 31.03,-36.74 46.05,-55.5 1.36,4.4 2.08,9.18 4.5,13.2 2.58,3.62 7.21,1.42 10.75,1 31.24,-7.06 62.53,-13.63 93.75,-20.75 5.92,-0.46 7.67,-8.29 3.15,-11.75 -14.32,-13.06 -29.29,-25.43 -43.45,-38.65 -11.08,-14.58 -19.32,-31.18 -30.2,-45.9 -0.97499,-1.27501 -2.24144,-1.82488 -3.6,-1.9 -0.28304,-0.0156 -0.56234,-0.0232 -0.85,0 z m -1.35,14 c 7.42,11.82 14.91,23.6 22.35,35.4 4.66,7.84 12.31,13.03 18.95,19.05 7.6,6.96 15.61,13.46 23.05,20.6 -28.3,5.48 -56.25,12.57 -84.55,18.05 0.6,-10.58 1.21,-21.43 -0.95,-31.85 -9.9,-9.22 -23.28,-13.81 -34.4,-21.45 18.66,-13.06 36.93,-26.7 55.55,-39.8 z m -102.1,27.65 c 1.08563,-0.0199 2.16,0.25499 3.15,1.05 22.3,12.72 44.48,25.62 66.8,38.3 0.08,1.9 0.15,3.81 0.25,5.75 -18.92,20.42 -36,42.45 -54,63.65 -13.42,-16.84 -26.89,-33.62 -40.25,-50.5 -2.9,-3.86 -6.86,-6.6 -11.1,-8.8 -12.48,-6.68 -24.72,-13.8 -37.3,-20.3 22.3,-9.36 44.69,-18.45 67.05,-27.65 1.7,-0.62501 3.59062,-1.4668 5.4,-1.5 z"
       id="path28"
       style="fill:#f5e5c1"
       inkscape:connector-curvature="0" />
    <path
       d="m 525.95,862.2 c -0.87003,0.0865 -1.8275,0.3625 -2.85,0.85 -7.54,14.22 -10.74,30.41 -17,45.25 -0.7,2.84 -3.84,3.18 -6.1,4.2 -16.84,5.74 -33.72,11.37 -50.5,17.35 -6.88,2.86 -14.44,0.69 -21.6,1.85 -33.7,4.16 -67.34,9.3 -101.3,11 -6.56,3.66 -5.77,13.08 -7.65,19.6 -2.02,5.52 3.57,10.23 8.85,9.25 56,-0.6 112.07,-0.86 168.05,-2.3 4.68,-0.12 7.09,-4.77 9.55,-8.05 12.74,-19.68 26.37,-38.71 39.15,-58.35 4.54,-10.18 -3.55,-19.29 -7.35,-28.15 -2.55499,-4.76 -5.15973,-13.10512 -11.25,-12.5 z m 1.9,20.05 c 2.26,4.58 4.45,9.22 6.75,13.8 -13.28,20.66 -27.38,40.78 -40.9,61.3 -43.84,1.84 -87.76,0.64 -131.6,3.2 -10.48,-0.46 -21.65,3.14 -31.55,-1.5 1.18,-3.84 1.97,-9.37 7.15,-9.25 30.76,-1.76 61.65,-2.24 92.25,-6.3 25.16,-0.86 48.29,-11.73 71.95,-19.15 5.32,-2.1 12.7,-3.1 14.5,-9.5 3.98,-10.8 7.61,-21.76 11.45,-32.6 z"
       id="path34"
       style="fill:#f5e5c1"
       inkscape:connector-curvature="0" />
    <path
       d="m 653.15,911.4 c -13.9,2.82 -29.63,5.06 -39.25,16.7 1.2,21.54 2.58,43.12 4.5,64.6 13.76,3.92 27.78,6.89 41.9,9.15 32.52,4.74 67.54,6.88 98.1,-7.3 3.2,-18.22 6.48,-36.43 9.7,-54.65 1.44,-4.42 -1,-8.86 -4.3,-11.7 -8,-6.88 -18.46,-9.58 -28.3,-12.7 -5.08,11.38 -14.08,20.54 -24.7,26.8 -6.92,1.28 -13.79,3.02 -20.75,3.9 -13.04,-2.12 -25.34,-8.26 -33.8,-18.6 -1.76,-5.24 -2.06,-10.82 -3.1,-16.2 z m -20.45,39.55 c 24.64,8.9 51.18,10.97 77.2,10.15 12.34,-0.24 24.6,-2.21 36.6,-5.05 -1.56,9.7 -1.95,19.54 -3.85,29.2 -11.84,5.94 -25.6,6.53 -38.6,7.25 -23.74,-0.28 -47.36,-3.85 -70.3,-9.85 -0.16,-10.58 -0.71,-21.16 -1.05,-31.7 z"
       id="path40"
       style="fill:#f5e5c1"
       inkscape:connector-curvature="0" />
    <path
       d="m 907.4,914.15 c -0.39222,0.0318 -0.75499,0.1075 -1.15,0.2 -11.4,3.94 -18.87,16.07 -31.45,17.15 -6.38,0.3 -6.01,10.62 -0.15,11.7 19.3,7.46 38.69,14.72 57.75,22.8 4,2.42 6.44,-2.44 8.8,-4.8 6.86,-0.38 13.78,0.01 20.6,-0.95 3,-0.78 3.9,-4.23 5.7,-6.35 -2.38,-2.76 -4.72,-5.54 -7.8,-7.5 -14.94,-9.82 -29.76,-19.76 -44.6,-29.7 -2.2575,-1.5575 -4.95442,-2.77258 -7.7,-2.55 z m 0.7,12.15 c 11.5,7.56 22.82,15.37 34.4,22.75 -7.94,0.1 -16.34,1.74 -23.9,-1.5 -8.72,-3.46 -17.4,-7.07 -26.3,-10.05 5.2,-3.84 10.48,-7.54 15.8,-11.2 z"
       id="path42"
       style="fill:#f5e5c1"
       inkscape:connector-curvature="0" />
  </g>
</svg>
