<?xml version="1.0" encoding="UTF-8" standalone="no"?>
<svg
   xmlns:dc="http://purl.org/dc/elements/1.1/"
   xmlns:cc="http://creativecommons.org/ns#"
   xmlns:rdf="http://www.w3.org/1999/02/22-rdf-syntax-ns#"
   xmlns:svg="http://www.w3.org/2000/svg"
   xmlns="http://www.w3.org/2000/svg"
   xmlns:sodipodi="http://sodipodi.sourceforge.net/DTD/sodipodi-0.dtd"
   xmlns:inkscape="http://www.inkscape.org/namespaces/inkscape"
   width="1280"
   height="1280"
   viewBox="0 0 1024 1024"
   version="1.1"
   id="svg2"
   inkscape:version="0.48.1 "
   sodipodi:docname="dominate_three_engineers.svg">
  <metadata
     id="metadata26">
    <rdf:RDF>
      <cc:Work
         rdf:about="">
        <dc:format>image/svg+xml</dc:format>
        <dc:type
           rdf:resource="http://purl.org/dc/dcmitype/StillImage" />
      </cc:Work>
    </rdf:RDF>
  </metadata>
  <defs
     id="defs24" />
  <sodipodi:namedview
     pagecolor="#ffffff"
     bordercolor="#666666"
     borderopacity="1"
     objecttolerance="10"
     gridtolerance="10"
     guidetolerance="10"
     inkscape:pageopacity="0"
     inkscape:pageshadow="2"
     inkscape:window-width="1920"
     inkscape:window-height="1018"
     id="namedview22"
     showgrid="false"
     fit-margin-top="0"
     fit-margin-left="0"
     fit-margin-right="0"
     fit-margin-bottom="0"
     inkscape:zoom="0.6609375"
     inkscape:cx="640"
     inkscape:cy="640"
     inkscape:window-x="-8"
     inkscape:window-y="-8"
     inkscape:window-maximized="1"
     inkscape:current-layer="svg2" />
  <path
     d="m 0,0 1024,0 0,1024 L 0,1024 0,0 z"
     id="path4"
     inkscape:connector-curvature="0"
     style="fill:#3e3e3e" />
  <path
     d="m 313.78,77.86 c 56.08,-37.54 122.68,-59.14 190.14,-61.52 63.6,-2.54 127.8,11.78 184.2,41.34 51.24,26.62 95.96,65.58 129.46,112.6 35.6,49.86 58.58,108.72 65.7,169.58 4.44,35.5 3.16,71.56 -2.52,106.84 -5.3,-3.86 -10.62,-8 -16.94,-10.04 -12.54,-2.32 -26.56,0.02 -36.06,9.04 -8.4,6.64 -12.24,16.9 -18.9,24.96 -4.12,6.36 -0.22,14.18 6.34,16.82 -0.86,6.06 -1.96,12.62 1.24,18.24 2.86,5.22 4,11.04 4.76,16.9 -7.4,14.02 -26.42,11.22 -36.46,22 -6.2,7.24 -17.8,8.7 -21.5,18.2 -5.48,14.8 -12.64,28.92 -19.3,43.2 -4.52,8.58 -14.86,12.92 -17.08,22.74 -2.92,10.04 -14.34,17.76 -9.92,29.32 -7.08,14.68 -9.98,31.1 -17.56,45.5 -7.14,5.44 -15.58,8.92 -23.68,12.68 -2.32,-11.38 -2.76,-23 -3.94,-34.52 -0.36,-4.86 -2.84,-10.4 -7.92,-11.74 -4.78,-1.2 -9.74,-0.66 -14.6,-0.6 -1.74,-4.1 -3.42,-8.2 -5.02,-12.32 1.12,-3.54 2.76,-7.36 1.18,-11.04 -2.44,-4.3 -5.72,-8.06 -8.28,-12.28 53.02,-25.24 97.74,-67.64 125.02,-119.72 28.22,-52.82 38.06,-115.1 27.96,-174.1 C 780.86,283.9 753.32,231.12 713.02,191.16 668.58,146.94 608.6,118.5 546.1,112.88 c -57.92,-5.86 -117.58,7.66 -167.42,37.72 -53.44,31.9 -95.38,82.58 -116.5,141.14 -20.02,54.2 -21.92,114.8 -5.86,170.26 19.54,68.28 66.76,128.18 128.9,162.66 3.22,1.2 4.56,3.82 2.28,6.76 -2,5.02 -5.72,9.06 -8.4,13.7 -2.16,3.94 -0.86,8.5 -0.32,12.68 -8.94,18.3 -12.24,38.82 -22.72,56.44 -8.4,-4.14 -17.28,-7.8 -24.58,-13.72 -1.78,-7.94 -0.06,-16.72 -3.84,-24.16 -4.06,-7.12 -13.5,-5.18 -20.32,-5.16 -1.58,-4.04 -3.24,-8.04 -4.98,-12.02 0.9,-3.58 2.66,-7.36 1.14,-11.02 -1.62,-3.38 -4.24,-6.12 -6.16,-9.3 -3.04,-4.72 -3.8,-10.52 -6.9,-15.18 -3.74,-4.36 -9.28,-6.74 -13.06,-11.04 -3.48,-5.46 -5.82,-11.52 -9.2,-17.02 -6.74,-10.46 -9.2,-22.88 -13.64,-34.32 -5.02,-5.82 -12.98,-8.08 -17.88,-14.06 -6.1,-7.08 -15.86,-7.9 -23.56,-12.28 -5.14,-2.5 -7.56,-7.88 -10.48,-12.46 3.48,-6.36 5.04,-13.4 5.56,-20.58 3.34,-2.42 8.58,-3.36 9.64,-7.96 1.64,-4.6 -0.62,-9.18 -3.26,-12.86 -1.86,-12.86 -6.34,-26.38 -16.9,-34.72 -4.44,-3.1 -8.98,-6.18 -13.94,-8.44 -9.78,-2.58 -20.08,0.02 -29.14,4 C 143.24,370.28 153.3,295.28 184.02,229.5 212.18,168.26 257.68,115.18 313.78,77.86 z"
     id="path6"
     inkscape:connector-curvature="0"
     style="fill:#f5e5c1" />
  <path
     d="m 390,198.1 c 42.34,-28.84 94.74,-42.68 145.78,-37.9 53.04,4.3 104.06,28.66 141.18,66.74 40.14,40.92 63.76,97.66 63.94,155.02 0.76,52 -17.66,103.94 -50.62,144.14 -22.04,27.34 -50.88,48.84 -82.76,63.36 -5.32,-9.38 -7.02,-20.16 -11.08,-30 -5.06,-5.86 -13.08,-8.1 -18.02,-14.14 -8.58,-10.04 -25.9,-7.76 -31.54,-21.02 30.88,-6.5 59.44,-23.72 79.28,-48.3 20.28,-24.5 31.58,-56.22 31.6,-88 0.18,-29.06 -9.1,-58.1 -26.04,-81.72 -20.54,-28.98 -52.6,-49.62 -87.56,-56 -33.42,-6.4 -69.18,-0.24 -98.26,17.52 -28.74,17.12 -50.8,45.02 -60.92,76.88 -9.64,29.46 -8.9,62.08 1.84,91.14 15.18,42.12 51.9,75.74 95.36,86.74 -6.62,14.72 -26.94,11.24 -36.64,22.86 -5.62,6.62 -16.4,7.4 -19.88,15.96 -3.28,7.86 -6.72,15.68 -9.9,23.6 C 367.54,561.1 328.64,519.22 308.4,469.38 287.3,418.62 286.04,360.02 304.64,308.34 320.48,263.8 350.78,224.54 390,198.1 z"
     id="path8"
     inkscape:connector-curvature="0"
     style="fill:#f5e5c1" />
  <path
     d="m 460.14,302.22 c 13.02,-8.9 28.06,-14.92 43.72,-17.04 9.36,-0.5 18.78,-0.5 28.14,-0.02 28.28,3.88 54.9,20.14 70.46,44.18 8.88,13.32 14.8,28.76 16.28,44.72 0.14,8.64 0.4,17.32 -0.2,25.94 -3.82,27.74 -19.62,53.9 -43,69.48 -5.94,4.1 -12.42,7.34 -18.86,10.6 -1.94,-15.5 -8.54,-32.12 -23.24,-39.58 -7.86,-5.76 -18.12,-5.16 -27.22,-3.62 -12.8,2.82 -22.92,12.8 -29,24.04 -2.32,5 -7.32,8.02 -9.7,12.98 -27.62,-15.32 -46.86,-44.58 -50.24,-75.94 -0.22,-8.64 -0.38,-17.32 0.14,-25.96 3.6,-27.84 19.46,-54 42.72,-69.78 z"
     id="path10"
     inkscape:connector-curvature="0"
     style="fill:#f4722b" />
  <path
     d="m 506.64,446.86 c 7.32,-1.26 15.8,-2.34 22.2,2.32 10.96,6.08 16.8,18.78 16.76,31 -0.24,3.98 3.44,6.42 5.54,9.32 -3.96,-0.06 -7.9,-0.08 -11.84,-0.08 0.08,6.36 0.82,12.76 0.08,19.12 -6.28,2.46 -2.76,10.58 -5.74,15.5 4.14,3.52 6.46,8.46 9.4,12.92 5.96,4.52 12.64,8.36 19.94,10.22 6.02,1.14 8.88,7.06 13.66,10.2 3.92,2.58 7.98,5 11.8,7.76 3.46,18.86 13.9,35.14 22.82,51.76 2.32,4.2 9.72,5.06 8.32,11 1.16,-0.12 3.48,-0.36 4.64,-0.48 3.14,8.1 6.52,16.18 12.16,22.94 -1.68,1.34 -3.36,2.68 -5.04,4.02 4.5,8.12 8.04,16.72 11.56,25.3 6.24,-0.26 12.48,-0.4 18.74,-0.48 1.22,17 2.76,34.06 6.7,50.68 2.48,9.86 9.1,18.18 11.54,28.02 -1.52,6.56 -4.12,12.84 -7.38,18.74 -3.1,5.28 -3.76,11.6 -6.88,16.84 -5.18,5.58 -11.86,9.48 -17.78,14.2 -1.68,-3.94 -3.32,-7.88 -4.96,-11.82 3.7,-4.74 7.14,-9.68 10.02,-14.94 -3,0.56 -6,1.12 -8.98,1.7 -2.6,-8.76 5.32,-13.62 10.76,-18.76 -1.02,-3.68 -2.88,-7.02 -6.32,-8.88 -2.06,2.16 -5.44,3.72 -5.48,7.12 -1.04,7.72 -3.8,14.98 -6.72,22.14 -3.1,-0.28 -6.18,-0.54 -9.26,-0.8 -0.84,-7.24 -2.92,-14.32 -3.14,-21.62 0.74,-5.54 2.82,-10.78 4.4,-16.12 -5.92,-10.6 -11.36,-21.5 -18.02,-31.68 -1.4,-2.52 -3.42,-4.86 -3.92,-7.74 1.98,-3.14 4.52,-5.9 6.92,-8.72 -4.94,-6.9 -9.64,-13.98 -13.44,-21.56 -2.18,-0.26 -4.36,-0.52 -6.52,-0.76 -1.28,-7.1 -3.86,-13.92 -8.18,-19.74 0.84,-1.9 1.68,-3.8 2.54,-5.7 -2.14,-3.76 -4.36,-7.46 -6.7,-11.08 -7.46,18.04 -9.94,39.58 -1.5,57.7 -2.76,2.52 -5.52,5 -8.28,7.52 0.82,0.98 2.46,2.94 3.28,3.92 0.06,5.86 -1.12,11.86 -0.04,17.66 5.38,6.14 13.12,9.58 18.76,15.42 1.28,5.74 3.1,11.32 4.94,16.9 -1.7,21.14 -5.82,42.02 -7.62,63.16 -4.58,0.6 -9.16,1.18 -13.72,1.72 -1.02,8.48 -1.68,17 -2.12,25.54 3.04,2.12 6.06,4.28 9.12,6.4 -0.82,2.96 -1.66,5.92 -2.46,8.9 -2.02,-0.84 -4.04,-1.68 -6.04,-2.52 4.28,14.68 9.5,29.54 8.92,45.04 -0.06,11.04 2.52,22.18 0.04,33.14 2.14,3.34 6.44,6.22 5.62,10.7 -1.06,10.5 -3.44,20.84 -4.68,31.32 -0.82,0.8 -2.44,2.4 -3.24,3.2 5.46,8.9 9.52,18.66 10.26,29.18 -15.86,-0.28 -31.8,1.18 -47.58,-0.58 -1.06,-2.84 -2.1,-5.68 -3.16,-8.5 -1.98,-1.4 -3.94,-2.78 -5.9,-4.16 0.14,-4.02 0.26,-8.02 0.38,-12.02 -2.54,-2.52 -6.28,-4.56 -6.62,-8.48 -1.74,-11.86 -3.82,-23.68 -5.18,-35.58 1.6,-1.26 3.22,-2.48 4.84,-3.7 -0.16,-13.56 -3.82,-27.22 -0.82,-40.66 1.74,-12.72 4.74,-25.22 6.2,-37.96 0.76,-5.04 -2.44,-9.28 -4.5,-13.56 -5.48,-10.22 -7.7,-21.74 -11.92,-32.48 -3.98,-0.06 -7.98,-0.26 -11.94,0.16 -4.2,5.22 -4.76,12.44 -7.18,18.6 -2.2,8.04 -6.7,15.22 -8.82,23.26 -1.8,18.9 6.14,37.06 6.12,55.88 -0.54,9.38 -0.76,18.78 -1.28,28.18 0.98,0.54 2.98,1.62 3.98,2.16 -0.92,11.36 -3.4,22.54 -4.7,33.86 0.16,4.92 -3.88,7.86 -7.14,10.76 0.06,3.98 0.16,8 0.14,12.02 -4.62,2.54 -6.82,7.24 -8.04,12.16 -16.06,1.12 -32.34,1.44 -48.36,-0.1 1.28,-9.72 4.08,-19.02 9.38,-27.3 -4.56,-10.64 -4.66,-22.44 -6.94,-33.66 -2.16,-6.26 6.38,-9.58 5.2,-15.6 -1.14,-10.76 0.74,-21.54 0.44,-32.32 -0.72,-14.94 5.84,-28.78 8.62,-43.16 -3.22,1.76 -6.36,3.66 -9.46,5.62 -1.16,-2.82 -2.3,-5.64 -3.46,-8.44 4.7,-3.16 9.3,-6.44 13.84,-9.82 -0.76,-5.88 -1.18,-11.8 -1.32,-17.72 -2.28,-1.72 -4.56,-3.44 -6.82,-5.12 0.96,-4.48 2.02,-8.94 3.08,-13.38 -7.3,7.72 -14.52,15.62 -23,22.06 -2.18,1.96 -5.24,1.58 -7.92,2 -0.3,-2.08 -0.62,-4.16 -0.92,-6.22 -2.96,-1.8 -7.06,-3.62 -6.42,-7.84 3.1,-27.56 19.72,-50.68 31.96,-74.76 3.12,-8.4 5.5,-17.06 8.34,-25.54 1.02,-14.54 -1.1,-29.12 -0.24,-43.68 -0.94,-5.92 3.42,-11.26 1.78,-17.1 -1.26,-6.24 -2.92,-12.38 -4.38,-18.56 -2.16,2.46 -4.3,4.96 -6.44,7.44 0.58,1.04 1.74,3.14 2.32,4.2 -3.26,7.02 -6.38,14.12 -9.58,21.18 -1.12,0.14 -3.32,0.46 -4.44,0.62 -10.3,19.98 -25.74,36.78 -35.84,56.86 -0.14,4.62 2.4,8.82 3.44,13.26 2.34,11.7 4.64,23.48 3.34,35.5 -3.04,-0.24 -6.34,0.34 -9.14,-1.1 -3.34,-5.24 -3.82,-11.56 -5.42,-17.42 -0.64,-2.92 -3.88,-4.24 -6.58,-4.28 -2.86,1.2 -3.22,4.68 -4.64,7.1 3.52,3.36 7,6.78 10.48,10.18 -0.08,1.98 -0.26,5.94 -0.34,7.9 -2.14,-0.46 -6.42,-1.4 -8.56,-1.88 2.36,4.02 5.16,7.82 7.02,12.12 0.04,3.26 -0.4,6.5 -0.72,9.76 -2.5,-0.12 -5.34,0.14 -6.36,-2.72 -3.62,-6.8 -10.84,-10.98 -13.22,-18.48 -2.78,-8.12 -7.94,-15.58 -9.08,-24.16 2.42,-9.86 7.92,-18.54 12.32,-27.6 2.72,-5.6 3.8,-11.84 6.6,-17.4 9.64,-18.16 13.38,-38.7 22.74,-56.98 -5.64,-6.38 2.04,-11.86 4.62,-17.56 2.74,-4.48 2.7,-11.12 8.08,-13.52 5.02,-6.62 11.22,-12.62 14.36,-20.46 5.46,-12.4 11.54,-24.52 16.34,-37.18 1.7,-5.56 7.92,-7.1 12.32,-9.88 5.92,-2.34 8.5,-9.38 14.92,-10.78 8.48,-1.92 16.16,-6.18 23.6,-10.52 3.6,-3.54 6.14,-8.02 9.6,-11.68 -1.36,-4.54 -2.36,-9.18 -2.46,-13.92 -2.86,-6.18 -8.78,-13.38 -3.78,-20.08 -0.48,-0.76 -1.42,-2.3 -1.9,-3.06 0.64,-1.04 1.94,-3.14 2.58,-4.18 -2.74,-3.76 -6.96,-5.7 -11.18,-7.3 1.42,-0.88 4.26,-2.62 5.68,-3.5 3.62,-11.38 12.12,-21.94 23.6,-25.96 z"
     id="path12"
     inkscape:connector-curvature="0"
     style="fill:#f4722b" />
  <path
     d="m 843.42,447.4 c 8.04,-2.14 17.68,-2.98 24.72,2.34 10.38,6.12 15.8,18.44 15.94,30.18 -0.28,4 3.2,6.64 5.18,9.7 -3.92,-0.08 -7.82,-0.16 -11.72,-0.22 -0.56,7 4.1,17.36 -3.44,21.74 -0.3,4.42 -0.9,8.82 -1.76,13.18 3.4,3.18 5.76,7.18 8.04,11.18 7.2,8.64 19.3,9.72 28.36,15.52 4.1,6.74 12.04,9.3 18.04,13.94 3.56,18.64 13.62,34.82 22.5,51.26 2.26,4.52 9.3,5.52 8.88,11.48 1.12,-0.06 3.38,-0.2 4.5,-0.26 3.22,8.04 6.42,16.2 12.1,22.92 -1.7,1.34 -3.4,2.7 -5.1,4.06 4.6,8.04 8.2,16.58 11.62,25.18 6.12,-0.08 12.26,-0.28 18.4,-0.56 2.08,17.9 2.8,36.14 7.92,53.56 3.36,8.56 7.5,16.78 11.42,25.12 -2.78,6.42 -4.88,13.12 -8.26,19.26 -3,5.32 -3.6,11.68 -6.92,16.82 -5.32,5.3 -11.6,9.56 -17.92,13.58 -1.48,-3.86 -3.02,-7.7 -4.56,-11.52 3.64,-4.7 7,-9.64 9.98,-14.8 -3.02,0.46 -6.04,0.94 -9.02,1.42 -0.08,-2.7 -0.14,-5.42 -0.2,-8.1 3.5,-3.42 7.26,-6.6 10.32,-10.44 0.7,-3.74 -2.5,-6.32 -4.52,-8.94 -2.6,1.9 -6.68,3.16 -6.52,7.12 -0.98,7.54 -3.86,14.58 -6.42,21.68 -2.96,0.02 -5.94,0.1 -8.88,-0.2 -4.62,-12.04 -5.02,-25.82 0.4,-37.8 -6.9,-13.48 -14.58,-26.5 -22.42,-39.46 2.5,-2.88 4.98,-5.76 7.48,-8.64 -4.96,-7 -9.64,-14.22 -13.52,-21.88 -1.52,-0.04 -4.58,-0.14 -6.1,-0.2 -1.76,-7.12 -4.08,-14.16 -8.42,-20.16 0.82,-1.9 1.66,-3.8 2.5,-5.7 -2.16,-3.7 -4.38,-7.4 -6.62,-11.04 -3.9,9.96 -7.6,20.36 -6.56,31.24 -1.44,9.12 1.18,18.16 4.98,26.4 -2.82,2.56 -5.64,5.1 -8.46,7.64 0.8,0.88 2.36,2.64 3.14,3.52 0,5.96 -0.04,11.92 -0.26,17.88 6.36,5.82 13.68,10.46 20.12,16.2 -0.28,5.72 2.42,10.78 4.1,16.08 -1.66,21.18 -5.78,42.1 -7.58,63.28 -4.52,0.66 -9.06,1.18 -13.6,1.62 -1.3,8.5 -1.84,17.1 -2.28,25.7 2.96,2.1 5.94,4.2 8.94,6.3 -0.72,2.94 -1.46,5.88 -2.18,8.84 -1.56,-0.58 -4.68,-1.76 -6.26,-2.36 4.9,15.18 9.66,30.88 9.04,47 0.18,10.36 2.2,20.84 -0.04,31.14 2.12,2.78 4.24,5.58 6.36,8.38 -2.04,11.3 -3.92,22.62 -5.52,33.98 -0.78,0.72 -2.34,2.16 -3.12,2.88 5.4,8.8 8.98,18.42 10.94,28.54 -16.02,1.32 -32.28,1.22 -48.32,0.04 -1.08,-2.94 -2.18,-5.86 -3.24,-8.76 -1.82,-1.06 -3.6,-2.12 -5.4,-3.14 -0.08,-4.26 -0.06,-8.5 0.06,-12.72 -8.2,-4.4 -7.2,-14.14 -8.66,-22 -1.12,-7.34 -2.22,-14.68 -3.32,-22.02 1.68,-1.26 3.36,-2.52 5.04,-3.78 -0.42,-14.2 -3.92,-28.54 -0.56,-42.62 1.52,-12.08 4.64,-23.92 5.74,-36.04 0.76,-5.12 -2.4,-9.44 -4.52,-13.8 -5.36,-10.26 -7.42,-21.78 -11.98,-32.36 -3.94,0.06 -7.9,-0.08 -11.82,0.4 -3.72,4.46 -4.14,10.8 -6.2,16.12 -2.38,8.88 -7.24,16.82 -9.84,25.58 -1.68,18.3 5.66,35.94 6.3,54.14 -0.54,10.1 -0.78,20.22 -1.38,30.32 1.1,0.42 3.3,1.28 4.42,1.72 -2.14,13.06 -3.88,26.18 -6.1,39.24 -2.02,1.72 -4.06,3.46 -6.06,5.22 0,5.82 2.08,13.54 -4.88,16.24 -1.14,2.74 -2.2,5.5 -3.26,8.3 -15.96,0.84 -32.22,1.62 -48.1,-0.34 1.74,-9.48 3.78,-18.86 9.22,-27 -4.54,-10.72 -4.58,-22.58 -6.82,-33.84 -1.44,-5.08 2.9,-8.7 5.48,-12.38 -1.78,-11.8 0.26,-23.68 0.1,-35.52 -0.46,-14.86 5.26,-28.9 9.12,-43 -3.48,1.68 -6.88,3.48 -10.26,5.32 -1.02,-2.78 -2.04,-5.54 -3.04,-8.3 4.6,-3.18 9.2,-6.42 13.76,-9.72 -0.76,-5.92 -1.12,-11.88 -1.38,-17.84 -2.4,-1.94 -4.76,-3.86 -7.14,-5.8 1.34,-4.24 2.6,-8.48 3.74,-12.74 -7.62,7.64 -14.78,15.86 -23.52,22.28 -2.18,1.8 -5.14,1.5 -7.76,1.92 -0.18,-1.54 -0.52,-4.64 -0.7,-6.18 -3.18,-1.86 -7.44,-3.86 -6.58,-8.34 2.1,-20.4 12.94,-38.34 21.68,-56.46 3.76,-8.7 10.98,-15.78 12.8,-25.3 2.68,-12.68 2.98,-25.74 6.06,-38.36 -1.62,-1.72 -3.22,-3.44 -4.82,-5.16 3.42,-7.6 4.9,-15.74 4.72,-24.04 4.42,-9.84 -1.28,-19.94 -2.76,-29.78 -2.24,2.4 -4.46,4.82 -6.68,7.26 0.64,1.02 1.9,3.1 2.54,4.14 -3.38,6.96 -6.56,14.04 -9.74,21.1 -1.12,0.26 -3.38,0.76 -4.5,1.02 -10.36,19.66 -25.44,36.34 -35.52,56.14 -1.16,4.62 2.34,9.08 3.16,13.62 2.28,11.82 4.56,23.76 3.1,35.86 -2.26,-0.12 -4.5,-0.3 -6.74,-0.56 -9.26,-3.86 -2.16,-22.44 -14.62,-22.42 -2.28,1.66 -2.94,4.56 -4.26,6.92 3.54,3.5 7.08,7 10.66,10.48 -0.18,2.58 -0.34,5.18 -0.48,7.78 -2.16,-0.48 -6.46,-1.46 -8.6,-1.94 2.42,4.02 4.96,8.02 7.58,11.94 -0.52,3.48 -1.06,6.96 -1.6,10.44 -5.1,0.18 -6.78,-4.86 -9.44,-8.2 -2.7,-3.86 -7.06,-6.48 -8.7,-11.04 -3.26,-8.4 -7.42,-16.44 -10.12,-25.02 1.94,-13.02 11.08,-23.62 14.94,-36.08 2.5,-9 7.82,-16.86 10.8,-25.68 4.9,-14.22 9.44,-28.62 16.16,-42.12 -0.82,-1.16 -2.44,-3.46 -3.24,-4.6 4.62,-7.6 9.24,-15.18 12.38,-23.52 6.1,-4.54 9.92,-11.38 14.74,-17.16 6.68,-14.06 13.36,-28.16 19.12,-42.64 1.64,-6.2 8.58,-7.74 13.34,-10.86 5.6,-2.74 8.5,-9.54 15.06,-10.56 8.08,-1.84 15.3,-6.1 22.44,-10.14 3.94,-3.58 6.42,-8.46 9.96,-12.42 -1.58,-4.06 -2.58,-8.32 -2.36,-12.7 -2.94,-6.38 -9.08,-13.46 -4.46,-20.58 -0.36,-0.78 -1.1,-2.36 -1.46,-3.16 0.6,-1.02 1.82,-3.08 2.42,-4.12 -2.6,-3.92 -6.98,-5.7 -11.14,-7.4 1.38,-0.8 4.12,-2.4 5.5,-3.18 3.5,-11.02 11.54,-21 22.2,-25.68 z"
     id="path14"
     inkscape:connector-curvature="0"
     style="fill:#f4722b" />
  <path
     d="m 149.48,459.52 c 7.12,-9.5 19.12,-13.56 30.7,-12.66 5.3,3.6 11.44,6.3 15.46,11.46 5.74,7.36 8.7,16.84 7.84,26.16 1.94,2.14 3.88,4.26 5.82,6.42 -4.04,0.38 -8.08,0.48 -12.14,0.42 -0.84,6.86 4.34,17.38 -3.28,21.46 -0.18,4.5 -0.72,8.98 -2.18,13.24 4.3,3.36 6.46,8.38 9.44,12.76 5.98,4.5 12.62,8.4 19.94,10.22 6.02,1.12 8.86,7.04 13.62,10.16 3.94,2.58 7.98,5.02 11.82,7.8 3.24,18.4 13.5,34.16 21.98,50.42 1.76,3.8 5.62,5.68 8.94,7.84 0,1.22 -0.02,3.66 -0.02,4.88 1.22,-0.34 3.66,-1.06 4.88,-1.4 2.7,8.46 6.58,16.54 12.16,23.5 -1.72,1.3 -3.42,2.6 -5.12,3.9 4.56,8.14 8.1,16.8 11.64,25.44 6.22,-0.36 12.46,-0.56 18.7,-0.62 1.2,17.06 2.74,34.18 6.76,50.86 2.56,9.32 8.16,17.44 11.34,26.54 -0.56,7.7 -4.54,14.74 -7.98,21.54 -2.56,4.96 -3.22,10.76 -6.22,15.52 -5.2,5.48 -11.76,9.4 -17.68,14.04 -1.68,-3.9 -3.32,-7.8 -4.98,-11.7 3.68,-4.78 7.12,-9.74 10.02,-15.04 -2.92,0.54 -5.84,1.08 -8.74,1.64 -0.16,-2.72 -0.32,-5.46 -0.46,-8.18 3.46,-3.4 7.24,-6.52 10.22,-10.38 1.16,-4.06 -2.72,-7.1 -5.78,-8.9 -2.04,2.02 -5,3.64 -5.14,6.88 -1.22,7.72 -3.84,15.08 -6.84,22.28 -3.12,-0.26 -6.22,-0.5 -9.32,-0.76 -0.6,-9.44 -5.26,-19.04 -1.54,-28.34 0.74,-3.34 2.62,-6.66 2.26,-10.12 -6.48,-13.26 -14.2,-25.88 -21.86,-38.48 2.48,-2.98 4.96,-5.98 7.44,-8.94 -4.88,-6.9 -9.64,-13.9 -13.34,-21.52 -2.18,-0.26 -4.38,-0.5 -6.56,-0.74 -1.36,-7.44 -4.36,-14.4 -8.4,-20.74 0.7,-1.14 2.14,-3.42 2.84,-4.56 -2.16,-3.86 -4.44,-7.66 -6.86,-11.34 -7.44,18.08 -9.94,39.6 -1.48,57.76 -2.72,2.44 -5.48,4.88 -8.22,7.32 0.8,1.06 2.4,3.18 3.2,4.24 0.28,5.86 -1.38,12.06 0.22,17.7 5.38,6.08 13.02,9.52 18.66,15.34 1.06,5.78 3.06,11.3 4.82,16.88 -1.8,21.1 -5.76,42 -7.66,63.1 -4.6,0.56 -9.18,1.12 -13.76,1.72 -0.9,8.5 -1.68,17.04 -1.98,25.6 3.02,2.08 6.04,4.2 9.06,6.32 -0.86,2.94 -1.7,5.86 -2.54,8.82 -1.5,-0.5 -4.48,-1.48 -5.98,-1.98 4.56,14.5 9.44,29.38 8.92,44.76 -0.02,11.02 2.48,22.12 0.04,33.04 2.16,2.78 4.28,5.58 6.4,8.4 -2.18,11.18 -3.86,22.42 -5.5,33.7 -0.8,0.74 -2.42,2.24 -3.24,3 5.54,8.96 9.5,18.78 10.5,29.36 -15.88,-0.32 -31.84,0.96 -47.66,-0.68 -1.1,-2.84 -2.2,-5.7 -3.28,-8.52 -1.96,-1.38 -3.92,-2.74 -5.88,-4.08 0.16,-4.02 0.3,-8 0.46,-11.98 -2.5,-2.58 -6.34,-4.62 -6.7,-8.56 -1.78,-11.92 -3.76,-23.8 -5.26,-35.74 1.6,-1.14 3.2,-2.26 4.8,-3.38 0.04,-13.62 -3.68,-27.3 -0.74,-40.8 1.74,-12.66 4.74,-25.14 6.18,-37.82 0.9,-5.1 -2.28,-9.38 -4.4,-13.68 -5.52,-10.26 -7.76,-21.8 -11.96,-32.58 -4.28,0.36 -9.1,-0.98 -13,1.02 -3.82,8.06 -5.36,17 -8.8,25.24 -2.36,6.62 -6.78,12.78 -6.52,20.08 -0.14,12.46 3.38,24.54 5.08,36.8 3.16,14.2 -0.22,28.68 0.4,43 0.98,0.54 2.94,1.62 3.92,2.16 -1.84,12.04 -3.42,24.12 -5.38,36.12 -0.3,3.94 -4.26,5.82 -6.72,8.36 0.12,3.92 0.24,7.86 0.3,11.8 -4.48,2.78 -6.92,7.36 -8.18,12.36 -15.98,1.5 -32.26,1.44 -48.26,0.12 1.14,-9.74 3.86,-19.08 9.32,-27.3 -4.64,-10.6 -4.58,-22.48 -6.94,-33.66 -1.46,-5.24 3.22,-9.06 5.64,-13.12 -2.2,-11.5 0.4,-23.14 -0.04,-34.72 -0.7,-14.98 5.74,-28.92 8.68,-43.32 -3.24,1.76 -6.44,3.62 -9.62,5.52 -1.1,-2.8 -2.2,-5.58 -3.32,-8.34 4.68,-3.22 9.28,-6.48 13.8,-9.9 -0.8,-5.46 -0.82,-11.02 -1.4,-16.5 -1.34,-3.12 -4.6,-4.86 -6.94,-7.16 1.28,-4.16 2.4,-8.38 3.42,-12.6 -7.46,7.72 -14.72,15.78 -23.34,22.3 -2.1,1.68 -4.94,1.52 -7.44,2.02 -0.4,-2.18 -0.8,-4.34 -1.22,-6.5 -2.82,-1.8 -6.9,-3.28 -6.4,-7.4 2.52,-23.66 15.48,-44.36 25.98,-65.18 12.14,-16.02 13.22,-36.7 14.64,-55.98 -1.66,-1.56 -3.32,-3.14 -4.96,-4.7 3.36,-7.64 5.1,-15.76 4.68,-24.12 4.46,-9.92 -1.18,-20.1 -2.8,-29.98 -2.1,2.22 -4.18,4.48 -6.28,6.72 0.64,1.7 1.3,3.4 1.94,5.1 -3.18,6.98 -6.26,14 -9.46,20.98 -1.12,0.16 -3.34,0.5 -4.46,0.66 -10.24,19.98 -25.74,36.7 -35.74,56.8 -0.18,4.7 2.44,8.96 3.46,13.48 2.26,11.72 4.74,23.5 3.12,35.52 -3.1,-0.3 -6.18,-0.62 -9.26,-0.96 -2.46,-5.7 -3.8,-11.76 -5.16,-17.78 -0.58,-2.84 -3.7,-4.28 -6.36,-4.22 -3.14,0.82 -3.44,4.56 -4.84,6.98 3.56,3.42 7.06,6.9 10.58,10.4 -0.22,2.62 -0.42,5.26 -0.62,7.88 -2.1,-0.52 -6.3,-1.56 -8.4,-2.08 4.36,6.38 10.5,14.7 5.04,22.36 -5.9,-0.36 -6.86,-7.88 -11.04,-11.06 -6.68,-5.52 -8.34,-14.34 -12,-21.76 -1.58,-4.22 -4.16,-8.28 -4.36,-12.86 3,-12.98 11.86,-23.58 15.56,-36.3 2.52,-8.84 7.86,-16.52 10.7,-25.24 4.7,-13.72 9,-27.64 15.56,-40.64 -1.02,-1.98 -2.02,-3.94 -3.02,-5.9 5.38,-7.08 9.8,-14.86 12.18,-23.46 0.92,-0.2 2.74,-0.58 3.66,-0.78 3.42,-7.26 10.34,-12.18 13.36,-19.68 5.64,-12.96 12.1,-25.58 17.08,-38.84 1.9,-5.84 8.6,-7.32 13.2,-10.36 5.32,-2.54 7.94,-8.92 13.96,-10.18 8.48,-1.9 16.06,-6.28 23.52,-10.54 3.8,-3.68 6.82,-8.16 9.74,-12.54 -1.16,-4.3 -2.52,-8.58 -2.44,-13.06 -2.78,-6.2 -8.46,-13 -4.14,-19.86 -1.02,-2.8 -0.32,-5.68 -0.02,-8.52 -1.8,-3.82 -6.62,-4.38 -10.04,-6.06 7.98,-3.5 7.84,-13.46 14,-18.84 z"
     id="path16"
     inkscape:connector-curvature="0"
     style="fill:#f4722b" />
  <path
     d="m 583.48,678.7 c 2.7,3.14 6.12,5.5 9.98,7.06 2.4,3.64 4.76,7.34 7.14,11.02 -2.66,4.14 -5.86,9.3 -3.32,14.3 4.92,9.74 11.12,18.78 16.32,28.38 -3,0.74 -6,1.46 -9,2.2 -2.28,-10.14 -13.18,-13.86 -20.32,-20.02 -0.08,-5.28 -0.12,-10.56 -0.06,-15.82 8.58,-7.56 2.14,-18.48 -0.74,-27.12 z"
     id="path18"
     inkscape:connector-curvature="0"
     style="fill:#f5e5c1" />
  <path
     d="m 413.16,711.1 c 7.52,-9.62 12.1,-21.2 20.12,-30.48 -1.58,20.08 0.98,40.84 -5.28,60.32 -9.52,-2.46 -18.9,-5.34 -28.22,-8.42 4.08,-7.36 8.2,-14.74 13.38,-21.42 z"
     id="path20"
     inkscape:connector-curvature="0"
     style="fill:#f5e5c1" />
</svg>
