<?xml version="1.0" encoding="UTF-8" standalone="no"?>
<svg
   xmlns:dc="http://purl.org/dc/elements/1.1/"
   xmlns:cc="http://creativecommons.org/ns#"
   xmlns:rdf="http://www.w3.org/1999/02/22-rdf-syntax-ns#"
   xmlns:svg="http://www.w3.org/2000/svg"
   xmlns="http://www.w3.org/2000/svg"
   xmlns:sodipodi="http://sodipodi.sourceforge.net/DTD/sodipodi-0.dtd"
   xmlns:inkscape="http://www.inkscape.org/namespaces/inkscape"
   width="1280"
   height="1280"
   viewBox="0 0 1024 1024"
   version="1.1"
   id="svg2"
   inkscape:version="0.48.1 "
   sodipodi:docname="duo_demoman_kills.svg">
  <metadata
     id="metadata26">
    <rdf:RDF>
      <cc:Work
         rdf:about="">
        <dc:format>image/svg+xml</dc:format>
        <dc:type
           rdf:resource="http://purl.org/dc/dcmitype/StillImage" />
      </cc:Work>
    </rdf:RDF>
  </metadata>
  <defs
     id="defs24" />
  <sodipodi:namedview
     pagecolor="#ffffff"
     bordercolor="#666666"
     borderopacity="1"
     objecttolerance="10"
     gridtolerance="10"
     guidetolerance="10"
     inkscape:pageopacity="0"
     inkscape:pageshadow="2"
     inkscape:window-width="1920"
     inkscape:window-height="1018"
     id="namedview22"
     showgrid="false"
     inkscape:snap-page="true"
     fit-margin-top="0"
     fit-margin-left="0"
     fit-margin-right="0"
     fit-margin-bottom="0"
     inkscape:zoom="0.6609375"
     inkscape:cx="640"
     inkscape:cy="640"
     inkscape:window-x="-8"
     inkscape:window-y="-8"
     inkscape:window-maximized="1"
     inkscape:current-layer="svg2" />
  <rect
     style="fill:#3e3e3e;fill-opacity:1;fill-rule:nonzero;stroke:none"
     id="rect3003"
     width="1024"
     height="1024"
     x="0"
     y="0" />
  <path
     d="m 616.02,0 97.18,0 c 5.06,0.22 9.68,2.92 14.8,2.74 10.34,-0.22 20.4,3.14 30,6.7 10.76,3.62 21.66,6.88 32.46,10.46 16.7,6.1 32.6,14.42 47.34,24.34 16.9,12.68 33.74,25.68 52.5,35.54 11.46,9.58 26.1,17.26 31.88,31.86 10.36,22.98 18.66,46.82 26.66,70.72 1.62,4.3 1.72,9.94 6.18,12.46 9.7,6.5 20.32,11.56 29.44,18.9 2.18,12.5 4.2,25.04 6.4,37.54 -5.46,3.7 -13.6,4.12 -16.86,10.86 -2.78,7.04 -5.58,14.26 -6.66,21.78 1.3,16.1 6.06,31.9 5.86,48.14 -1.04,14.42 -14.6,23.16 -19.6,35.8 -0.92,22.6 2.64,45.28 1.1,67.86 -6.52,23.6 -13.96,46.98 -20.74,70.52 -2.9,11.12 -9,21.96 -7,33.8 2.62,15.34 6.34,30.56 8.3,45.98 -3.58,20.7 -12.84,40.6 -12.38,61.94 -0.22,36.76 -2,73.5 -1.08,110.26 -2.4,2.82 -4.34,6.56 -8.22,7.54 -19.74,6.24 -39.74,11.68 -59.56,17.76 -3.88,1.3 -7.92,1.94 -11.96,2.42 0.88,-10.58 4.48,-20.66 7.34,-30.82 16.46,-2.62 33.08,-4.28 49.6,-6.64 2.92,-0.46 2.9,-4.14 2.68,-6.38 -1.36,-14.64 -0.48,-29.44 1.08,-44.02 1.2,-23.36 1.88,-46.76 4.42,-70 -0.02,-2.26 -0.36,-4.44 -1,-6.6 -3.42,-0.68 -7,-1.16 -10.2,0.56 -18.02,7.02 -36.54,12.56 -54.86,18.72 -9.42,3.46 -19.66,1.92 -29.38,0.86 -6.7,-0.2 -11.54,-5.2 -16.6,-8.86 -7.98,-6.26 -16.58,-11.78 -23.64,-19.12 8.12,-6.36 18.54,-6.78 28.32,-8.06 20.7,0.06 41.42,-0.3 62.08,-1.54 9.2,-2.14 16.98,-8.08 26,-10.8 7.04,-1.04 13.42,3.26 20.34,3.86 0.48,-3.78 1.24,-7.52 2.4,-11.16 -1.6,-6.5 -2.44,-13.14 -4.06,-19.62 -15.82,5.66 -31.2,12.48 -46.9,18.46 -9.8,2.32 -19.88,-0.24 -29.72,-1.12 -10.18,-1.54 -20,2.28 -29.88,3.98 -9.46,1.64 -18.7,4.52 -28.24,5.52 -6.06,0.38 -9.54,-8.28 -4.68,-12.1 8.28,-5.98 17.82,-10.02 26.48,-15.46 5.64,-3.12 11.4,-7.92 18.3,-6.34 14.02,2.32 28,5.08 42.08,7.04 6.86,1.1 13.18,-2.28 19.46,-4.48 10.2,-4.12 20.58,-7.76 30.7,-12.1 -6.12,-3.54 -13.44,-4.72 -18.82,-9.54 2.24,-9.22 2.22,-18.86 5.32,-27.88 3.2,-8.52 1.1,-17.64 1.96,-26.46 0.54,-9.04 4.18,-18.34 0.86,-27.24 -9.06,-25.1 -18.56,-50.06 -27.3,-75.28 -1.86,-4.72 -8,-4.32 -12.14,-5.36 0.72,8.42 2.98,16.56 4.7,24.8 6.16,28.36 12.16,56.74 18.5,85.06 3.04,11.88 -0.86,24.44 -6.58,34.92 -3.96,5.82 -11.66,3.98 -17.58,3.58 -9.78,-1.44 -19.74,-0.48 -29.5,-1.98 -9.7,-3.28 -7.42,-15.2 -8.8,-23.18 -11.6,-3.46 -23.56,-5.5 -35.16,-8.92 -9.86,-3.7 -6.72,-16.1 -8.32,-24.2 -2.78,4.3 -6.58,7.74 -10,11.48 -2.96,6.52 -5.48,13.36 -6.62,20.46 8.66,11.32 12.02,25.68 18.48,38.26 -6.2,6.72 -12.04,13.76 -18.26,20.46 -15.48,5.28 -32.78,4.7 -48.4,0.26 -12.76,-27 -25.22,-54.18 -38.38,-80.98 -7.62,-8.38 -16.9,-15.06 -25.16,-22.78 -4.98,-4.98 -12.56,-8.4 -13.74,-16.1 -4.6,-18.26 -11.46,-35.98 -15.14,-54.46 15.26,-1.8 30.68,-1.28 46.04,-1.8 1.84,10.14 2.7,20.48 4.96,30.56 0.72,3.66 4.94,4.66 7.92,5.84 16.88,4.56 33.82,8.96 50.7,13.5 4.74,1.22 9.58,3.04 14.56,2.1 6.12,-3.9 10.02,-10.24 14.94,-15.42 10.28,-11.1 19.92,-22.8 30.34,-33.78 2.38,-3.06 6.46,-2.78 9.92,-3.14 -0.18,8.62 -2.28,17.1 -2.3,25.7 1.8,7.1 9.84,8.1 15.28,11.24 3.8,1.96 6.72,6.42 11.52,5.64 3.94,0.44 5.16,-4.18 6.74,-6.82 -2.74,-14.14 -4.92,-28.36 -7.48,-42.52 -2.14,-7.82 3.52,-14.46 5.94,-21.44 5.26,0.54 10.44,1.62 15.5,3.2 21.8,6.6 43.7,12.92 65.42,19.78 2.88,1.06 6.14,1.5 8.92,-0.16 8.2,-4.16 15.84,-9.34 23.76,-13.98 10.12,-4.56 9.04,-17.34 12.46,-26.26 1.62,-8.8 7.98,-19.38 0.9,-27.32 -7.38,-0.32 -14.9,-0.86 -22.14,0.72 -11.94,4.82 -23.08,11.44 -34.8,16.78 -10.02,4.7 -20.5,8.84 -29.14,15.96 -7.5,-1.3 -14.94,-2.9 -22.4,-4.44 8.1,-4.74 12.86,-13.04 19.14,-19.7 9.1,-10.92 18.44,-21.62 27.38,-32.66 4.1,-5.3 11.22,-6.76 17.5,-7.7 11.38,-0.9 22.78,-1.88 34.22,-2.06 5.22,0.02 10.4,-1.1 15.02,-3.6 0.42,-2.98 4.76,-8.58 -0.78,-9.08 -22.16,-6.04 -45.72,2.26 -68,-3.46 -30.9,-7.16 -61.92,-13.94 -92.68,-21.62 -1.36,-5.66 -2.42,-11.4 -2.48,-17.24 4.78,-2 9.48,-4.92 14.86,-4.72 28.72,0.14 57.42,0.36 86.12,0.54 4.26,-0.18 9.12,0.22 12.56,-2.82 1.86,-2.52 1.76,-6.28 -0.12,-8.78 -4.78,-3.32 -10.84,-2.72 -16.32,-2.9 -30.7,-0.12 -61.36,-0.7 -92.02,-1.42 -6.2,-1.3 -10.98,-6 -16.28,-9.2 4.68,-8.54 15.16,-16.6 10.92,-27.42 -12.58,-27.66 -25.6,-55.12 -38,-82.84 4.4,-5.78 9.54,-10.94 13.76,-16.86 1.66,-3.68 1.9,-9.02 -2.02,-11.38 C 753.22,44.8 742.82,34.84 730.8,27.1 713.58,19.68 695.52,14.38 677.82,8.26 674,6.94 670.4,4.64 666.28,4.48 658.64,3.84 652,8.24 645.42,11.42 613.7,28 581.72,44.1 549.66,60 c -6.96,2.8 -10.04,10.04 -13.52,16.12 -13.26,26.04 -26.36,52.16 -39.72,78.14 -2.14,4.24 -2.92,8.96 -3.5,13.64 -1.72,14.08 -3.7,28.14 -5.68,42.2 -0.84,4.96 0.2,11 5,13.6 23,14.84 45.12,30.98 67.66,46.48 2.96,2.14 6.46,3.32 10.04,3.9 35.3,5.76 70.64,11.24 105.94,17.02 5.06,0.64 10.32,1.08 15.34,-0.12 16.96,-4.8 33.34,-11.98 50.72,-15.12 45.72,-0.56 91.42,1.94 137.12,2.92 -12.5,13.7 -22.76,29.32 -34.5,43.7 -4.14,4.58 -6.7,11.02 -12.18,14.12 -25.32,-4.84 -50.66,-9.86 -75.4,-17.16 -6.24,-1.72 -12.72,-0.22 -19.02,0.38 -24.02,2.32 -48.08,4.3 -72.1,6.76 -6.92,0.3 -13.88,1.78 -20.78,0.54 -0.22,-7.98 -2.32,-15.76 -2.8,-23.72 -7.78,-2.72 -16.14,-1.94 -24.18,-3.28 -24.72,-2.46 -49.44,-5.14 -74.18,-7.46 -5.32,-0.62 -10.06,-3.38 -14.92,-5.38 -10.32,-4.88 -21.6,-8.32 -30.28,-16.04 -15.32,-12.84 -30.8,-25.52 -46.04,-38.46 3.44,-7.1 3.98,-15.04 5.66,-22.64 4.9,-23.42 9.5,-46.94 15.26,-70.16 9.08,-25.04 20.52,-49.14 30.84,-73.68 1.88,-4.32 3.44,-9.48 8.24,-11.4 C 547.1,36.62 581.7,18.16 616.02,0 z"
     id="path6"
     inkscape:connector-curvature="0"
     style="fill:#f4722b" />
  <path
     d="m 223.72,195.82 c 5.44,-3.64 12.12,-2.72 18.3,-2.78 29.32,0.08 58.64,0.12 87.94,0.16 3.56,0 7.22,0.3 10.46,1.92 17.22,7.92 33.96,17.14 52.14,22.7 13.72,4.4 26.74,10.78 39.18,17.98 16.08,8.04 28.84,21 44.08,30.34 9.02,7.4 20.46,11.02 29.14,18.88 7.94,6.48 16.74,12.5 22.32,21.32 13,27.66 22.54,56.82 32.46,85.64 9.8,8.58 23,12.74 32.08,22.02 1.74,12.6 5.68,25.3 5.12,38.1 -4.24,0.82 -8.72,1.76 -11.98,4.78 -5.14,4.14 -5.76,11.14 -8.08,16.88 -2.14,5.22 -2.52,10.98 -1.6,16.52 2.38,12.52 3.98,25.18 5.62,37.8 -0.1,15.22 -13.04,25.18 -19.66,37.64 -0.8,10.74 0.14,21.52 0.04,32.26 -0.38,12.32 3.08,24.66 0.88,36.94 -8.86,30.4 -17.88,60.76 -27.18,91.02 -2.48,20.36 5.42,40.1 7.5,60.16 -3.64,20.08 -12.32,39.2 -12.94,59.9 -0.76,37.32 -0.48,74.68 -0.4,112 -5.04,1.76 -9.94,4.12 -15.28,4.86 -17.56,2.8 -34.72,7.6 -51.54,13.32 -2.6,1 -5.4,1.02 -8.14,1.24 0.82,-6.92 2.54,-13.66 4.72,-20.26 13.5,-5.1 27.28,-9.42 40.88,-14.18 2.34,-0.74 5.14,-2.3 4.7,-5.18 1.9,-39.68 4.9,-79.28 6.74,-118.94 -7.96,-2.96 -12.92,4.42 -20,6 -14.42,4.32 -28.44,10.04 -43.02,13.78 -11.3,0.74 -22.74,1.28 -34.04,0.46 -11.76,-8.08 -23.12,-17 -33.9,-26.38 22.36,-11.06 47.74,-7.14 71.76,-7.48 7,-0.7 14.3,3.5 20.96,0.14 11.66,-4.86 24.8,-12.88 37.42,-6.14 0.28,2.28 0.58,4.58 0.9,6.88 0.82,-0.34 2.44,-1.04 3.26,-1.38 2.02,-8.52 6.44,-17.16 3.86,-26.04 -1.54,-5.06 -1.78,-10.34 -2.12,-15.56 -15.7,5.18 -31.18,10.92 -46.72,16.56 -12.7,4.8 -26.28,1.06 -39.36,1.38 -12.8,2.14 -25.46,5.1 -38.14,7.78 -5.88,1.02 -11.42,-1.42 -16.92,-2.98 8.84,-7.02 18.84,-12.4 28.14,-18.76 7.2,-5 16.22,-6.84 24.84,-5.36 9.88,1.86 19.92,2.58 29.82,4.3 19.5,3.74 36.18,-12.98 55.7,-8.8 -0.38,-3.16 -0.76,-6.34 -1.14,-9.48 -6.36,-1.56 -12.48,-3.98 -17.98,-7.56 1.32,-9.66 1.88,-19.56 4.96,-28.86 3.3,-8.82 0.28,-18.38 1.9,-27.46 1.6,-8.44 2.94,-17.3 1.02,-25.78 -9.04,-24.68 -18.3,-49.3 -27.02,-74.08 -2.38,-6.06 -3.24,-13.04 -7.62,-18.08 -5.32,-4.24 -14.74,0.86 -12.36,7.98 10.06,38.48 19.06,77.26 28.32,115.96 2.38,8.2 0.38,16.62 -1.62,24.66 -16.22,2.6 -33.44,1.1 -48.24,-6.4 -3.38,-2.68 -4.94,-7.08 -8.44,-9.62 -14.3,-4.86 -29.28,-8.54 -42.56,-15.96 -0.04,-6.02 -0.12,-12.04 -0.42,-18.04 -6.06,7.52 -12.18,15.14 -16.72,23.7 -2.12,2.94 0.46,6.14 1.62,8.88 5.36,10.58 10.5,21.26 15.82,31.86 1.82,3.14 2.32,7.24 0.22,10.38 -3.72,6.06 -9.36,10.6 -13.64,16.24 -3.7,3.98 -7.32,9.82 -13.48,9.54 -11.44,0.2 -22.86,-0.78 -34.2,-2.02 -4.96,-0.52 -8.44,-5 -10,-9.4 -10.42,-25.42 -22.56,-50.1 -33.82,-75.12 -7.34,-8.96 -17.06,-15.56 -25.72,-23.14 -5.34,-4.76 -13.38,-7.78 -15.12,-15.46 -4.28,-15.14 -8.12,-30.4 -12.64,-45.48 -1.6,-4.98 -6.26,-10.84 -2.18,-15.82 4.34,-7.52 14.24,-5.02 21.38,-6.34 7.92,-0.3 18.92,-5.04 24.14,3.46 5.72,9.92 10.5,20.38 15.74,30.56 20.74,6.6 41.64,12.72 62.52,18.82 2.6,1.1 3.92,-1.92 5.36,-3.4 7.86,-10.02 16.58,-19.32 24.92,-28.96 3.98,-4.6 7.26,-10.76 13.56,-12.46 6,-1.54 13.14,-2.8 18.46,1.24 3.52,8.98 -4.9,17.42 -2.82,26.14 5.1,6.68 13.4,10.2 19.7,15.72 -0.46,-10.52 -0.42,-21.04 -0.98,-31.54 -1.4,-7.9 -2.28,-15.98 -1.38,-23.96 1.98,-5.62 4.62,-10.98 6.34,-16.68 9.54,-5.26 19.42,0.66 28.34,4.22 16.9,6.7 33.78,13.44 50.6,20.28 3.38,1.14 7.36,3.42 10.74,1.06 8.6,-5.2 16.9,-10.88 25.6,-15.92 1.9,-1.42 4.68,-2.16 5.7,-4.5 2.02,-9.3 5.5,-18.18 8.04,-27.32 0.9,-6.58 0.4,-13.26 0.58,-19.86 -7.6,0.34 -15.28,-0.54 -22.84,0.46 -17.12,7.62 -33.88,16.06 -50.98,23.72 -5.4,2.12 -9.66,6.08 -14.26,9.44 -7.54,4.44 -16.72,3.18 -24.48,0.04 -0.36,-5.78 7.66,-5.86 10.44,-9.92 13.36,-15.26 26.32,-30.88 39.4,-46.38 4.72,-6.92 13.88,-7.68 21.44,-9.08 8.88,-0.04 17.34,-2.98 26.24,-2.94 6.8,-2.32 14.34,-0.7 20.92,-3.52 0.06,-1.72 0.16,-5.18 0.22,-6.9 -12.44,0.78 -24.9,1.02 -37.34,1.4 -10.6,0.48 -21.52,2.98 -31.9,-0.3 -25.82,-6.88 -51.64,-13.92 -78.02,-18.2 -5.22,-0.66 -10.06,-2.8 -14.92,-4.64 -2,-6.96 -2.38,-14.22 -3,-21.4 3.8,-1.78 7.58,-4.26 11.96,-4.12 30.68,-0.06 61.36,0.34 92.04,0.24 5.32,0.56 12.16,-3.38 10.74,-9.52 -2.02,-5.04 -7.96,-5.68 -12.64,-6.1 -31.42,-0.46 -62.84,-0.66 -94.28,-0.86 -7.8,0.44 -13.22,-6.16 -19.76,-9.3 3.14,-7.92 14.94,-12.62 10.84,-22.66 -11.34,-27.54 -24.3,-54.38 -35.28,-82.06 -1.26,-3.44 -4.16,-6.9 -2.5,-10.72 4.14,-6.08 9.1,-11.52 13.82,-17.1 0.04,-0.6 0.1,-1.82 0.12,-2.42 -5.86,-5.32 -12.06,-10.28 -18.2,-15.3 -14.82,-12.46 -32.74,-20.98 -51.24,-26.3 -14.6,-0.44 -29.16,-2.32 -43.78,-1.7 -34.26,16.48 -68.24,33.68 -102.38,50.42 -6.06,4.24 -13.9,7.4 -16.84,14.72 -11.72,23.6 -23.46,47.2 -35.24,70.78 -2.9,5.24 -5.24,10.86 -5.98,16.86 -1.08,18.28 -4.18,36.38 -4.88,54.7 20.98,13.4 42.2,26.4 63.36,39.5 6.38,3.98 13.1,7.64 20.36,9.8 45.28,9.06 91.62,11.34 137.74,11.16 14.18,-0.76 27.58,-7.3 41.9,-6.14 32.62,0.5 65.36,-1.02 97.86,2.06 6.54,1.24 11.92,-3.56 18.24,-3.8 3.4,0.64 6.7,1.66 10.08,2.42 -0.8,1.92 -1.62,3.86 -2.96,5.48 -14.36,18.36 -28.26,37.06 -42.78,55.3 -8.32,4.04 -17.5,2.64 -25.98,-0.06 -16.22,-4.44 -32.62,-8.26 -48.84,-12.74 -13.94,-3.06 -27.82,1.48 -41.72,2 -16.46,2.82 -33.16,3.86 -49.66,6.48 -6.58,1.08 -13.12,-0.5 -19.3,-2.66 -0.12,-1.34 -0.36,-4 -0.48,-5.32 -2.86,-9.7 -1.14,-21.22 -9.06,-28.86 -13.82,-3.34 -28.14,-0.72 -42.04,-3.22 -11.82,-1.94 -23.9,0.02 -35.7,-2.1 -9.1,-1.76 -18.64,0.04 -27.52,-2.96 C 113.26,476.86 87.68,463.4 60.98,453.12 45.22,461.94 29.3,470.7 14.08,480.42 9.04,486.94 4.3,493.76 0,500.8 l 0,-24.84 c 15.96,-9.38 32.06,-18.52 48.1,-27.78 7.98,-16.72 16.16,-33.66 19.76,-51.96 6.66,-24.32 10.5,-49.5 19.76,-73.06 8.24,-20.98 15.2,-42.46 24,-63.22 24.6,-13.46 49.58,-26.24 73.68,-40.6 12.76,-7.92 25.6,-15.72 38.42,-23.52 z"
     id="path8"
     inkscape:connector-curvature="0"
     style="fill:#f5e5c1" />
  <path
     d="m 968.4,412.62 c 5.82,0.92 11.5,3.12 15.84,7.24 13.16,11.3 26.74,22.1 39.76,33.58 l 0,44.5 c -12.08,-13.9 -25.04,-27 -37.18,-40.84 -5.82,-6.72 -12.84,-12.44 -17.88,-19.76 -1.06,-8.18 -0.46,-16.5 -0.54,-24.72 z"
     id="path10"
     inkscape:connector-curvature="0"
     style="fill:#f4722b" />
  <path
     d="m 588.52,501.88 c 8.4,5.94 15.92,13.02 23.68,19.76 77.32,64.2 154.6,128.4 231.8,192.76 2.44,1.4 1.24,4.38 0.92,6.58 -7.94,30.52 -16.28,60.94 -23.74,91.56 -1.14,-14.26 1.1,-28.42 1.62,-42.58 -2.7,-9.78 -0.36,-20.48 -5.48,-29.62 C 813.14,729 800.92,724.92 792.7,717.28 771.04,698.24 749.08,679.56 726.58,661.52 684.42,627.66 642.22,593.88 600,560.1 c -1.82,-1.56 -3.66,-3.08 -5.22,-4.88 0.16,-7.74 1.5,-15.58 -0.22,-23.26 -2.8,-9.82 -6.16,-19.74 -6.04,-30.08 z"
     id="path12"
     inkscape:connector-curvature="0"
     style="fill:#f4722b" />
  <path
     d="m 45.22,583.3 c 3.62,-1.18 7.24,-2.38 11.06,-2.64 0.68,2.7 0.94,5.9 3.62,7.48 30.9,24.98 60.9,51.06 91.74,76.1 100.04,84.22 201.04,167.3 301.28,251.3 -7.52,36.2 -17.9,71.7 -26.54,107.62 l 1.5,0.84 -35.64,0 c 5.14,-20.7 14.92,-39.98 21.34,-60.32 3.06,-9.52 8.72,-18.3 9.78,-28.34 C 389.92,906.52 356.68,877.4 322,850.04 225.78,772.6 129,695.82 33,618.1 c 5.38,-11.08 8.1,-23.24 12.22,-34.8 z"
     id="path14"
     inkscape:connector-curvature="0"
     style="fill:#f5e5c1" />
  <path
     d="m 576.86,612.32 c 3.62,1.16 7.62,1.7 10.78,3.94 69.28,58.02 138.64,115.92 207.86,173.96 7.26,5.4 13.22,12.98 22.14,15.74 -2.88,1.6 -6.3,2.8 -7.82,5.96 C 797.4,831.96 785.04,852 772.6,872 c -10.96,17.74 -14.48,38.6 -20.48,58.26 -4.18,13.12 -7.98,26.38 -11.24,39.76 -0.66,3.84 -1.2,8.36 1.48,11.62 10.04,13.94 19.28,28.4 29.26,42.36 l -58.1,0 c -2.78,-2.56 -4.62,-5.88 -6.48,-9.1 -11.26,-18.16 -22.36,-36.44 -33.52,-54.68 -2.04,-4.02 -6.4,-5.74 -10.04,-7.88 -35.9,-19.26 -71.62,-38.84 -107.52,-58.08 -4.2,-2.6 -9.96,-3.64 -12.4,-8.34 6.48,-2.06 13.42,-4.54 20.18,-2.02 46.68,17.7 94.52,32.08 141.68,48.44 2.12,0.94 4.44,0.76 6.72,0.64 1.36,-4.8 4.68,-8.62 7.16,-12.84 10.18,-16.6 20.66,-33.02 30.52,-49.78 2.44,-5 7.04,-10.22 4.26,-16.04 -1.42,-10.74 -0.34,-21.82 -3.64,-32.32 -7.16,-2.3 -10.72,-9.58 -15.8,-14.56 -52.66,-56.84 -104.78,-114.16 -157.5,-170.92 -0.14,-8.06 -0.26,-16.14 -0.28,-24.2 z"
     id="path16"
     inkscape:connector-curvature="0"
     style="fill:#f5e5c1" />
  <path
     d="m 934,687.7 c 7.68,-5.1 17.78,-5.72 26.2,-2.04 20.92,8.36 42.44,15.06 63.8,22.2 l 0,28.88 C 994.22,720 963.84,704.32 934,687.7 z"
     id="path18"
     inkscape:connector-curvature="0"
     style="fill:#f4722b" />
  <path
     d="m 81.38,817.32 c 4.2,-1.46 8.48,-5.74 13.1,-3.22 7.32,3.76 9.84,12.5 15.72,17.88 32.66,33.22 65.62,66.1 97.98,99.6 18.76,18.68 36.78,38.12 56.18,56.1 -5.56,2.44 -10.84,5.4 -15.74,8.94 -5.56,4.04 -12.8,1.96 -18.88,4.38 -20.44,7.58 -40.86,15.2 -61.2,23 l -43.36,0 C 116.34,1005.22 107.84,986.26 99.2,967.38 79.36,924.66 61.12,881.14 38.04,840.02 c 13.98,-8.36 27.7,-17.7 43.34,-22.7 z"
     id="path20"
     inkscape:connector-curvature="0"
     style="fill:#f5e5c1" />
</svg>
