<?xml version="1.0" encoding="UTF-8" standalone="no"?>
<svg
   xmlns:dc="http://purl.org/dc/elements/1.1/"
   xmlns:cc="http://creativecommons.org/ns#"
   xmlns:rdf="http://www.w3.org/1999/02/22-rdf-syntax-ns#"
   xmlns:svg="http://www.w3.org/2000/svg"
   xmlns="http://www.w3.org/2000/svg"
   xmlns:sodipodi="http://sodipodi.sourceforge.net/DTD/sodipodi-0.dtd"
   xmlns:inkscape="http://www.inkscape.org/namespaces/inkscape"
   width="1280"
   height="1280"
   viewBox="0 0 1024 1024"
   version="1.1"
   id="svg2"
   inkscape:version="0.48.1 "
   sodipodi:docname="freezecam_rump.svg">
  <metadata
     id="metadata94">
    <rdf:RDF>
      <cc:Work
         rdf:about="">
        <dc:format>image/svg+xml</dc:format>
        <dc:type
           rdf:resource="http://purl.org/dc/dcmitype/StillImage" />
      </cc:Work>
    </rdf:RDF>
  </metadata>
  <defs
     id="defs92" />
  <sodipodi:namedview
     pagecolor="#ffffff"
     bordercolor="#666666"
     borderopacity="1"
     objecttolerance="10"
     gridtolerance="10"
     guidetolerance="10"
     inkscape:pageopacity="0"
     inkscape:pageshadow="2"
     inkscape:window-width="1920"
     inkscape:window-height="1018"
     id="namedview90"
     showgrid="false"
     fit-margin-top="0"
     fit-margin-left="0"
     fit-margin-right="0"
     fit-margin-bottom="0"
     inkscape:snap-page="true"
     inkscape:zoom="0.6609375"
     inkscape:cx="640"
     inkscape:cy="640"
     inkscape:window-x="-8"
     inkscape:window-y="-8"
     inkscape:window-maximized="1"
     inkscape:current-layer="svg2" />
  <rect
     style="fill:#3e3e3e;fill-opacity:1;fill-rule:nonzero;stroke:none"
     id="rect3098"
     width="1280"
     height="1280"
     x="0"
     y="0"
     transform="scale(0.8,0.8)" />
  <path
     style="fill:#f5e5c1"
     d="M 813.03125 0 C 803.90625 7.75 795.1 15.825 786.25 23.875 C 775.575 33.55 767.3625 45.5 758.6875 56.875 C 741.5625 54.125 724.8125 49.3625 707.5625 47.5625 C 689.2375 45.4375 670.9875 43.23125 652.6875 41.03125 C 646.4375 39.98125 640.19375 41.65625 634.84375 44.90625 C 606.14375 61.18125 577.30625 77.2125 548.65625 93.5625 C 540.73125 98.8625 531 94.8625 522.25 96.0625 C 517.625 98.2125 513.8875 101.8625 510.1875 105.3125 C 492.4625 122.5625 474.88125 139.9375 456.78125 156.8125 C 444.18125 168.5625 446.5375 188.0375 436.5625 201.4375 C 406.3875 240.5625 376.6125 280.025 346.6875 319.375 C 339.2625 329.075 327.78125 334.05 317.90625 340.75 C 310.18125 345.725 306.9125 354.775 301.8125 362 C 295.8875 373 283.7375 383.3875 287.3125 397.0625 C 292.0875 419.6125 296.5125 442.28125 300.9375 464.90625 C 302.7375 473.73125 303.5625 483.40625 309.6875 490.53125 C 324.9625 509.43125 339.3125 529.0125 354.6875 547.8125 C 350.2375 551.4875 345.2625 554.79375 341.9375 559.59375 C 338.3875 566.19375 342.85625 573.16875 345.65625 579.09375 C 354.10625 595.24375 360.5125 612.425 369.8125 628.125 C 359.0875 640.45 346.65 651.3875 337.875 665.3125 C 324.3 686.6125 307.875 706.28125 297.625 729.53125 C 278.55 769.70625 258.15 809.2375 240 849.8125 C 258.75 868.7375 277.44375 887.725 296.34375 906.5 C 299.79375 936.75 297.30625 967.2625 299.90625 997.5625 C 300.78125 1007.1125 300.7625 1016.7125 300.8125 1026.3125 C 296.8875 1031.3625 292.66875 1036.2375 289.46875 1041.8125 C 285.91875 1048.1375 286.7 1055.6562 286.375 1062.6562 C 286.6 1079.4814 283.80625 1096.175 283.90625 1113 C 265.08125 1116.075 258.4375 1135.6 249.0625 1149.5 C 236.7875 1165.475 241.9625 1186.65 241.8125 1205.25 C 248.6875 1219.3 263.4875 1226.5566 277.3125 1232.1562 C 286.5625 1236.6336 295.5875 1228.6125 304.8125 1227.6875 C 313.4625 1235.4125 316.53125 1247.275 323.90625 1256 C 329.20625 1259.725 336.21875 1259.0125 342.34375 1260.3125 C 354.14375 1261.4125 365.825 1264.7839 377.75 1264.0312 C 387.925 1262.1816 397.525 1258.1 407.375 1255.125 C 415.05 1252.85 423.10625 1248.125 425.53125 1240 C 426.78125 1230.85 426.98125 1221.4588 425.78125 1212.2812 C 421.90625 1204.0312 415.35625 1197.2125 412.53125 1188.4375 C 407.55625 1174.0875 403.0875 1159.5938 397.9375 1145.3438 C 395.5125 1137.8184 391.88125 1130.1125 393.40625 1122.0625 C 397.20625 1099.9125 395.15625 1077.375 397.65625 1055.125 C 398.25625 1045.35 401.4375 1032.8438 390.6875 1027.3438 C 391.0375 1014.8161 390.6375 1002.2875 391.5625 989.8125 C 394.0875 975.6875 402.9 963.625 406.25 949.75 C 407.5 939.7 406.5875 929.575 406.5625 919.5 C 421.8125 908.7 440.3625 901.76875 451.9375 886.46875 C 454.8125 883.31875 452.9125 878.69375 452.9375 874.96875 C 448.5625 840.76875 443.1125 806.69375 440.1875 772.34375 C 461.6875 756.64375 483.4625 740.775 508.0625 730.25 C 525.4375 722.075 542.45625 713.175 559.78125 704.875 C 570.75625 699.825 578.9 690.61875 586.75 681.71875 C 600.475 665.89375 614.59375 650.41875 628.34375 634.59375 C 633.46875 675.74375 641.91875 716.46875 648.09375 757.46875 C 648.24375 764.51875 647.50625 771.575 647.90625 778.625 C 656.03125 783.55 664.76875 787.30625 673.84375 790.15625 C 664.76875 830.38125 656.04375 870.6625 646.21875 910.6875 C 663.44375 926.1125 680.9625 941.26875 698.3125 956.59375 C 705.2875 980.71875 711.45 1005.0839 718.25 1029.2812 C 721.675 1037.9316 711.16875 1043.6336 710.84375 1052.0312 C 708.11875 1074.0312 705.01875 1096.0566 702.96875 1118.1562 C 701.36875 1126.7088 711.5375 1129.725 716.6875 1134.375 C 712.8875 1147.825 709.11875 1161.2625 705.21875 1174.6875 C 698.14375 1196.4875 703.1625 1219.8375 698.9375 1242.0625 C 697.7875 1247.0125 692.3375 1251.4125 695.0625 1256.6875 C 698.6625 1263.9875 698.8125 1272.075 697.9375 1280 L 730.25 1280 C 728.04309 1277.9427 725.51335 1275.9983 723.1875 1273.9062 C 723.18181 1273.9016 723.16193 1273.9119 723.15625 1273.9062 C 721.60244 1272.5083 720.15225 1271.0239 718.9375 1269.4062 C 718.02644 1268.1939 717.25364 1266.9159 716.6875 1265.5 C 716.6839 1265.491 716.69108 1265.4773 716.6875 1265.4688 C 716.12755 1264.0598 715.776 1262.5204 715.6875 1260.8438 C 716.71094 1260.7979 717.72823 1260.7631 718.75 1260.75 C 720.79336 1260.7235 722.8375 1260.7649 724.875 1260.8438 C 725.89399 1260.8827 726.88838 1260.9406 727.90625 1261 C 727.91661 1261.0006 727.92714 1260.9994 727.9375 1261 C 729.96289 1261.1185 732.00919 1261.263 734.03125 1261.4375 C 741.14199 1262.0514 748.23301 1262.9181 755.34375 1263.3438 C 758.39193 1263.5253 761.44375 1263.6264 764.5 1263.5938 C 766.59375 1262.9651 768.64736 1262.2697 770.6875 1261.5 C 771.7074 1261.115 772.74068 1260.6948 773.75 1260.2812 C 775.76912 1259.4562 777.76135 1258.5953 779.75 1257.6875 C 786.70792 1254.5077 793.521 1250.9399 800.53125 1247.8438 C 803.53564 1246.5161 806.58615 1245.2764 809.6875 1244.1875 C 810.72128 1243.8245 811.76406 1243.4832 812.8125 1243.1562 C 813.4875 1247.9316 814.18125 1252.7625 814.90625 1257.5625 C 814.28125 1258.1875 813.67227 1258.8203 813.0625 1259.4688 C 811.84263 1260.7631 810.62651 1262.1014 809.40625 1263.4062 C 806.35742 1266.676 803.1875 1269.7964 799.25 1271.9688 C 797.31875 1272.8184 795.35625 1273.5902 793.375 1274.3125 C 792.38437 1274.6739 791.37461 1275.0371 790.375 1275.375 C 787.3853 1276.3839 784.34053 1277.2897 781.3125 1278.1875 C 779.2875 1278.7886 777.26875 1279.3937 775.25 1280 L 804.46875 1280 C 815.76875 1269.525 826.21875 1258.1436 835.84375 1246.0938 C 844.06875 1245.3936 853.5375 1246.4125 859.9375 1240.0625 C 872.4875 1229.3375 885.99375 1219.1 895.71875 1205.625 C 897.54375 1196.8 896.4 1187.6375 896.625 1178.6875 L 888.8125 1179.1875 C 887.8875 1171.7875 886.91875 1164.4375 886.21875 1157.0625 C 875.04375 1148.5375 864.0375 1139.7875 853.0625 1131.0625 C 846.9875 1131.1625 840.95625 1131.2586 834.90625 1131.2812 C 832.03125 1119.1336 825.14375 1107.8375 825.71875 1095.0625 C 826.01875 1069.8125 826.26875 1044.5312 826.34375 1019.2812 C 822.01875 1016.7065 817.73125 1014.1125 813.40625 1011.5625 C 817.33125 985.3625 819.3625 958.89375 824.0625 932.84375 C 833.7875 913.91875 850.26875 899.475 862.21875 882 C 865.86875 878.1 862.06875 873.3 860.59375 869.375 C 841.26875 830.15 823.69375 790.09375 804.21875 750.96875 C 798.54375 739.76875 802.175 726.7875 800.25 714.8125 C 797.525 695.0375 799.61875 674.9625 797.21875 655.1875 C 795.26875 638.4625 796.8125 621.60625 794.9375 604.90625 C 793.0375 589.03125 794.2125 572.9375 791.3125 557.1875 C 787.5625 536.9125 787.45625 515.875 780.53125 496.25 C 775.68125 480.925 771.0375 465.54375 766.1875 450.21875 C 761.8625 436.34375 754.88125 423.5125 748.90625 410.3125 C 753.83125 399.1875 753.46875 386.6 758.46875 375.5 C 762.34375 366.225 765.3375 356.6625 768.3125 347.0625 C 807.8375 371.9875 845.90625 399.2125 885.15625 424.5625 C 896.98125 431.4375 901.76875 445.2875 906.59375 457.3125 C 904.54375 463.9625 900.36875 470.1875 900.96875 477.4375 C 901.59375 495.3625 907.4 512.55 909.75 530.25 C 918.375 546.45 928.55 564.9625 947.625 570.0625 C 969.55 572.3875 992.7625 567.9125 1011.8125 556.5625 C 1029.7375 545.4625 1037.7625 524.8 1042.0625 505.125 C 1047.3875 504.575 1052.7375 504.05 1058.0625 503.5 C 1064.5625 495.975 1070.7586 488.00625 1074.1562 478.53125 C 1078.6562 467.03125 1087.0684 457.09375 1089.4688 444.84375 C 1088.2912 434.69375 1081.0312 426.4875 1076.7812 417.4375 C 1082.8564 404.7625 1075.5125 391.95 1071.9375 379.75 C 1067.7375 368.575 1069.8836 356.275 1066.0312 345 C 1040.4316 333.075 1015.2437 320.1 990.34375 306.75 C 962.56875 285.375 935.9625 262.40625 908.6875 240.40625 C 910.0125 235.40625 912.55 230.28125 910.75 225.03125 C 905.775 204.90625 900.81875 184.75625 895.71875 164.65625 C 903.01875 155.53125 910.3 146.31875 916.625 136.46875 C 924.4 124.29375 928.6375 110.3375 935.5625 97.6875 C 938.3375 92.2125 942.1875 86.63125 941.1875 80.15625 C 938.7125 57.70625 937.2875 34.1375 925.9375 14.0625 C 919.6375 7.9125 911.58125 3.875 903.78125 0 L 813.03125 0 z M 853.78125 7.96875 C 873.3507 7.9240791 892.6125 15.344531 908.5625 26.46875 C 913.6375 29.01875 913.71875 34.95 914.84375 39.75 C 898.46875 34.1 882.625 27.1375 866.25 21.5625 C 860.875 20.1875 855.26875 21.05625 849.84375 21.40625 C 833.59375 23.40625 817.25 24.45625 801 26.28125 C 812.775 13.45625 830.4625 7.31875 847.6875 8.21875 C 849.71484 8.05 851.75682 7.9733711 853.78125 7.96875 z M 854.625 28.375 C 858.22251 28.36167 861.825 28.5375 865.40625 29.0625 C 880.83125 36.1125 897.05625 41.2375 912.90625 47.3125 C 917.30625 48.6875 919.925 52.6125 922.5 56.1875 C 913.175 58.0875 905.8375 50.3125 897.4375 47.6875 C 884.5875 43.3625 870.8375 42.21875 857.4375 40.59375 C 832.2125 40.16875 807.28125 44.5625 782.15625 46.0625 C 785.85625 41.7125 789.15625 36.4125 794.65625 34.1875 C 808.55625 31.7625 822.7375 31.64375 836.6875 29.59375 C 842.64062 28.984375 848.62915 28.397217 854.625 28.375 z M 842.84375 57.84375 C 853.64375 57.81875 864.20625 60.6 874.90625 61.875 C 886.33125 63.075 895.9625 69.8125 906.3125 74.1875 C 915.7875 78.1875 923.8125 89.7375 920.5625 100.0625 C 914.9375 94.6625 910.21875 88.14375 903.09375 84.59375 C 893.04375 79.14375 884.5625 71.0625 874.1875 66.3125 C 863.1125 65.7125 845.8 62.23125 843.25 77.40625 C 849.375 80.13125 855.2125 83.39375 860.9375 86.84375 C 871.9625 93.46875 884.93125 95.9375 897.40625 97.8125 C 900.73125 111.3375 897.60625 126.3 898.90625 140.375 C 896.65625 143.7 894.3875 147.025 892.1875 150.375 C 884.2875 146.025 878.8625 138.6375 872.1875 132.8125 C 848.9125 111.9375 827.2875 89.3375 803.9375 68.5625 C 799.0625 64.0625 792.21875 63.66875 786.09375 62.34375 C 805.06875 61.46875 823.86875 58.69375 842.84375 57.84375 z M 637.6875 58.78125 C 656.8875 58.58125 675.8 63.4125 695 64.3125 C 716.95 67.0125 738.36875 72.8125 760.09375 76.8125 C 773.04375 79.5875 786.3625 81.4625 798.6875 86.5625 C 806.7125 91.4875 813.0875 98.63125 820.0625 104.90625 C 838.5875 121.38125 857.01875 137.91875 875.34375 154.59375 C 882.01875 160.24375 885.525 169.09375 886.5 177.59375 C 887.225 184.71875 877.20625 186.31875 873.03125 182.09375 C 841.63125 156.84375 809.85625 132 778.53125 106.625 C 774.60625 103.5 770.2625 100.5875 765.1875 99.8125 C 738.4625 94.7375 711.7875 89.53125 685.0625 84.40625 C 671.5375 81.08125 658.26875 87.2125 645.46875 90.8125 C 634.91875 93.6625 623.95 102.925 626.375 115 C 629.725 137.35 627.90625 160.1125 631.53125 182.4375 C 631.45625 198.4125 635.35 214.2125 633.75 230.1875 C 603.65 232.2625 573.80625 237.25 543.90625 241.375 C 534.30625 228.025 530.2375 211.73125 522.4375 197.40625 C 521.1625 195.03125 519.3125 193.3125 516.8125 192.1875 C 516.2625 187.4125 515.3375 182.6125 515.9375 177.8125 C 527.8625 148.7875 550.8125 126.8125 569.4375 102.1875 C 573.3875 96.8375 578.0125 91.8125 584.0625 88.8125 C 601.9625 78.8875 619.5375 68.25625 637.6875 58.78125 z M 522.59375 114.0625 C 527.4209 114.12764 532.47812 115.98906 537.3125 116.375 C 528.2375 129.3 517.99375 141.625 511.71875 156.25 C 505.31875 170.55 498.3125 184.55625 492.0625 198.90625 C 489.6875 204.03125 490.4 209.84375 492.625 214.84375 C 497.425 226.61875 501.1 238.8625 506.125 250.5625 C 496.1 254.1375 485.94375 257.35625 476.21875 261.65625 C 476.16875 260.00625 476.08125 256.70625 476.03125 255.03125 C 471.08125 252.20625 464.93125 249.825 463.28125 243.75 C 458.75625 231.875 453.35625 220.33125 449.65625 208.15625 C 455.55625 193.83125 455.0625 175.93125 467.4375 164.90625 C 484.8875 148.20625 501.4625 130.56875 519.3125 114.34375 C 520.39531 114.12812 521.47979 114.04747 522.59375 114.0625 z M 738.71875 169 C 740.80059 168.96609 742.9125 169.14531 745.03125 169.5625 C 757.38125 171.4625 769.99375 173.05 782.46875 171.25 C 793.69375 169.675 804.6 173.68125 815.25 176.65625 C 821.45 186.45625 825.1625 198.1625 833.9375 206.0625 C 876.1625 240.4125 918.14375 275.125 960.34375 309.5 C 967.44375 315.1 973.85 321.74375 982 325.84375 C 1005.225 337.64375 1028.65 349.09375 1051.625 361.34375 C 1051.875 368.39375 1052.1562 375.50625 1051.2812 382.53125 C 1027.9589 384.93125 1021.4562 412.5375 1001.4062 420.9375 C 992.68255 424.7375 985.0875 432.55625 974.9375 431.65625 C 959.5625 431.50625 944.1875 431.54375 928.8125 431.09375 C 919.9125 424.14375 911.2625 416.875 903.1875 409 C 892.5125 393.925 884.125 377.03125 871 363.78125 C 850.4 339.83125 845.56875 307.7125 838.21875 278.0625 C 831.61875 277.4625 827.2875 282.15625 823.5625 286.90625 C 823.7125 295.80625 823.7625 304.73125 823.5625 313.65625 C 809.7125 311.88125 798.29375 303.2 787.21875 295.375 C 778.79375 287.975 769.0375 281.2875 763.3125 271.4375 C 758.4625 258.9375 753.84375 246.3375 750.21875 233.4375 C 744.31875 232.7125 738.90625 235.88125 736.53125 241.28125 C 733.65625 248.68125 732.2875 256.5125 730.4375 264.1875 C 729.5625 264.0375 727.8125 263.7375 726.9375 263.5625 C 714.3625 253.6875 701.23125 244.575 688.15625 235.375 C 693.90625 224.45 691.38125 211.79375 692.03125 199.96875 C 692.55625 193.34375 690.49375 185.3375 695.46875 179.9375 C 700.36875 176.5875 706.525 176.1125 712.125 174.5625 C 720.98125 172.87656 729.69746 169.14695 738.71875 169 z M 435.5 223.09375 C 436.025 239.79375 436.3875 256.8125 442.1875 272.6875 C 416.1875 285.7875 390.95625 300.48125 365.65625 314.90625 C 388.50625 284.00625 411.725 253.31875 435.5 223.09375 z M 645.75 238.90625 C 647.20625 238.84727 648.6625 239.075 650.125 239.75 C 657.725 242.85 665.8875 245.075 672.8125 249.625 C 688.8625 261.05 704.6375 272.78125 720.8125 284.03125 C 725.2125 287.10625 729.3625 290.66875 732.3125 295.21875 C 741.7875 309.19375 751.4375 323.06875 760.3125 337.46875 C 747.5875 325.94375 737.76875 311.6875 725.96875 299.3125 C 723.71875 297.2625 720.60625 296.74375 717.78125 296.09375 C 698.48125 292.34375 679.1875 288.56875 659.9375 284.59375 C 640.8625 280.44375 621.46875 285.16875 602.34375 286.21875 C 579.01875 288.54375 555.66875 290.65 532.34375 293 C 517.34375 293.475 504.30625 301.8125 490.40625 306.4375 C 468.63125 314.2625 447.73125 324.6625 425.28125 330.4375 C 415.73125 334.4625 405.98125 338.45625 398.03125 345.28125 C 376.45625 359.15625 353.1875 370.3625 331.5625 384.1875 C 323.1875 393.1875 316.9375 404.04375 309.3125 413.71875 C 307.6375 403.36875 304.3 393.2875 303.75 382.8125 C 309.05 373.0375 314.6625 363.01875 322.3125 354.84375 C 349.7375 332.49375 382.10625 317.5875 412.65625 300.1875 C 423.78125 294.2625 434.3375 287.0875 446.4375 283.1875 C 469.0875 275.4375 491.68125 267.48125 514.28125 259.53125 C 520.85625 257.10625 527.7375 255.65 534.6875 254.75 C 567.3375 250.575 599.96875 246.325 632.59375 241.875 C 637.01875 241.74375 641.38125 239.0832 645.75 238.90625 z M 634.90625 301.53125 C 640.95298 301.35933 646.825 303.50625 652.6875 304.90625 C 669.4125 309.13125 686.19375 313.1375 702.96875 317.1875 C 705.81875 318.1625 709.40625 318.4625 711.15625 321.3125 C 720.88125 334.1625 729.975 347.475 739.625 360.375 C 744.7 365.975 740.71875 376.33125 735.09375 379.53125 C 724.64375 373.70625 715.8875 365.23125 705.1875 359.78125 C 693.7375 353.95625 682.21875 348.09375 669.84375 344.46875 C 659.24375 341.24375 648.975 335.89375 637.625 336.34375 C 616 336.39375 594.4125 335.50625 572.8125 335.90625 C 554.3125 337.85625 535.94375 341.2 517.59375 344.125 C 501.36875 346.625 486.225 353.11875 471.125 359.21875 C 451.825 367.16875 432.5625 375.2375 413.6875 384.1875 C 399.4375 391.7125 386.95625 402.11875 373.53125 410.96875 C 361.65625 418.19375 355.06875 430.8625 346.34375 441.1875 C 337.59375 451.5625 330.20625 462.9875 321.15625 473.0625 C 319.08125 464.2375 317.55 455.3 316 446.375 C 321.325 439.725 326.01875 432.6 330.34375 425.25 C 338.89375 410.125 353.73125 400.33125 366.03125 388.53125 C 377.23125 379.68125 387.2125 368.54375 400.9375 363.59375 C 430.6875 350.86875 460.4125 338.01875 490.1875 325.34375 C 499.1125 321.66875 507.69375 316.6375 517.46875 315.6875 C 555.74375 311.1375 594.0375 306.425 632.3125 301.75 C 633.18438 301.62187 634.04243 301.55581 634.90625 301.53125 z M 556.15625 356.09375 C 588.14468 355.98096 620.08125 358.09375 652.0625 358.53125 C 675.9875 377.90625 701.375 395.5125 725 415.1875 C 732.225 428.3125 738.05 442.275 744.375 455.875 C 753.5 482.9 761.19375 510.4125 770.09375 537.5625 C 775.31875 551.0875 772.6125 565.9125 773.9375 580.0625 C 775.9875 602.8625 776.6125 625.81875 776.0625 648.71875 C 776.9625 645.26875 775.2625 636.5 781.3125 639.125 L 777.75 640.5625 C 778.725 661.9625 777.7375 683.48125 780.3125 704.78125 C 781.2125 718.78125 780.74375 732.8125 781.71875 746.8125 C 769.61875 749.1125 757.15625 748.70625 745.15625 751.65625 C 751.78125 749.10625 755.7125 742.975 754.5625 735.75 C 735.9125 739.9 717.3625 745.84375 700.9375 755.84375 C 696.8375 758.64375 691.875 758.66875 687.125 758.84375 C 678.975 752.94375 674.43125 743.55 666.40625 737.625 C 660.80625 707 655.6375 676.24375 650.9375 645.46875 C 655.3875 650.66875 661.7125 653.58125 666.9375 657.90625 C 679.9125 670.58125 694.68125 681.275 707.03125 694.625 C 713.10625 692.2 721.85 686.60625 718.375 678.90625 C 701.325 661.45625 683.18125 644.70625 670.40625 623.65625 C 695.48125 627.35625 720.1625 633.8125 745.3125 636.6875 C 750.1375 631.9625 754.9625 627.25625 759.6875 622.40625 C 759.3875 621.13125 758.7375 618.55 758.4375 617.25 C 727.8375 608.775 697.95625 597.99375 667.78125 588.09375 C 669.95625 582.86875 672.625 577.83125 674.25 572.40625 C 674.975 567.00625 672.225 562.075 670.25 557.25 C 663.325 541.025 656.53125 524.7625 650.15625 508.3125 C 645.83125 511.0375 639.8875 513.84375 640.4375 519.96875 C 641.4375 534.19375 648.1375 548.05 645.1875 562.5 C 643.0625 573.225 644.325 584.3 642.5 595 C 636.225 605.225 623.4625 607.4875 614.9375 615.1875 C 598.7875 628.4125 579.475 637.28125 559.125 641.78125 C 559.05 640.03125 558.88125 636.49375 558.78125 634.71875 C 548.68125 638.61875 543.0375 648.54375 534.1875 654.34375 C 526.0625 659.91875 518.60625 666.6375 509.78125 671.0625 C 494.25625 674.5125 478.16875 673.75 462.46875 676 C 456.59375 675.55 453.78125 681.4875 450.28125 685.0625 C 452.48125 687.5375 454.6875 690.03125 456.9375 692.53125 C 441.1125 697.10625 426.49375 706.65 409.59375 706.875 C 402.06875 706.325 396.59375 713.8625 396.34375 720.8125 C 415.91875 723.1875 435.66875 721.7 455.21875 719.875 C 447.81875 723.625 439.94375 726.1625 432.09375 728.8125 C 424.84375 731.3875 423.24375 740.20625 417.46875 744.53125 C 395.21875 750.65625 373.43125 742.09375 352.15625 736.34375 C 345.80625 733.31875 336.45625 740.19375 339.40625 747.09375 C 363.48125 761.36875 386.4625 777.425 410.0625 792.5 C 413.3125 794.9 417.625 793.79375 421.375 794.34375 C 423.725 807.09375 424.64375 820.0375 426.84375 832.8125 C 417.14375 824.9625 404.225 824.65625 392.375 824.15625 C 364.675 831.23125 336.5 841.6875 307.5 837.1875 C 295.425 835.7625 282.26875 839.2 271.09375 833.25 C 268.31875 832.05 265.46875 830.9625 262.59375 830.0625 C 281.01875 789.1125 301.75625 749.1875 320.90625 708.5625 C 331.95625 689.9875 344.7875 672.53125 356.9375 654.65625 C 376.9875 630.53125 400.1875 609.2125 421.4375 586.1875 C 423.7125 583.5625 424.375 580.03125 425.625 576.90625 C 418.275 576.48125 416.8125 568.68125 413.6875 563.53125 C 407.5625 550.03125 397.7 537.975 395.375 523 C 392.1 506.475 388.2375 490.075 384.5625 473.625 C 383.8125 469.325 382.5 464.43125 385.25 460.53125 C 392.275 448.20625 399.725 436.10625 406.75 423.78125 C 409.875 417.98125 415.55 414.3125 421 410.9375 C 437.05 401.1875 452.91875 391.1625 468.84375 381.1875 C 478.86875 374.4625 491.04375 372.51875 502.21875 368.46875 C 515.66875 364.56875 528.7625 359.30625 542.4375 356.28125 C 547.00937 356.1625 551.58647 356.10986 556.15625 356.09375 z M 1059.5625 429.9375 C 1065.6625 437.7875 1073.3625 447.41875 1070.9375 457.96875 C 1051.7625 462.29375 1032.1937 466.425 1012.4688 463.125 C 1018.0188 461.5 1023.4663 459.35 1027.9688 455.625 C 1038.6436 447.25 1049.2125 438.7125 1059.5625 429.9375 z M 939.78125 476.375 C 946.43125 479.025 953.40625 480.71875 960.28125 482.71875 C 961.75625 485.44375 963.125 488.21875 964.375 491.09375 C 956.875 495.59375 946.3875 499.0375 938.6875 493.1875 C 932.4375 489.2875 939.25625 481.65 939.78125 476.375 z M 970.8125 501.75 C 973.3875 503.875 975.725 506.23125 977.875 508.78125 C 994.325 510.58125 1010.5414 505.94375 1026.9688 505.59375 C 1022.9164 520.59375 1019.9062 540.24375 1003.0312 546.09375 C 987.00745 551.44375 968.825 556.2625 952.25 550.8125 C 945.375 545.1875 938.7875 539.2625 932.9375 532.5625 C 940.4375 537.0875 948.4875 541.58125 957.4375 541.90625 C 965.3375 540.75625 971.0875 532.6125 971.0625 524.8125 C 962.6375 522.7125 954.4375 519.6625 947.1875 514.8125 C 956.0875 512.5625 965.2125 509.575 970.8125 501.75 z M 785.21875 764.03125 C 786.91875 768.53125 788.6625 773.0375 790.3125 777.5625 C 774.5125 782.4875 756.8125 787.35 741.1875 779.125 C 738.8625 777.1 736.89375 774.7125 734.84375 772.4375 C 751.51875 768.8375 768.06875 764.63125 785.21875 764.03125 z M 697.75 796.375 C 705.35 798.475 712.9625 800.7625 720.0625 804.3125 C 715.4875 811.6125 709.73125 818.1625 705.65625 825.8125 C 699.63125 839.9375 685.0625 848.375 680.8125 863.625 C 685.6625 863.975 690.5 864.2125 695.375 864.4375 C 695.85 865.3125 696.80625 867.0625 697.28125 867.9375 C 687.50625 872.2875 678.1125 877.475 668.9375 883 C 674.8375 856.825 680.56875 830.59375 686.84375 804.46875 C 690.49375 801.79375 694.125 799.1 697.75 796.375 z M 798.9375 798.6875 C 800.06318 798.68169 801.19375 798.76562 802.34375 798.96875 C 808.14375 816.14375 817.225 831.95625 824.75 848.40625 C 811.325 854.70625 795.31875 855.2 782.34375 847.5 C 774.44375 841.55 764.15625 844.33125 755.03125 843.65625 C 743.15625 842.80625 730.96875 844.2625 719.46875 840.5625 C 735.01875 823.8875 757.7375 818.1375 776.8125 806.8125 C 783.76875 803.44375 791.05771 798.72817 798.9375 798.6875 z M 428.78125 850.03125 C 429.48125 856.38125 430.49375 862.675 431.46875 869 C 424.21875 867.7 416.9875 866.45625 409.6875 865.65625 L 407.78125 864.375 C 403.68125 863.85 399.6125 863.325 395.5625 862.75 C 406.4625 858.075 418.18125 855.50625 428.78125 850.03125 z M 316.40625 896.65625 C 333.13125 899.30625 350.13125 897.80625 366.90625 899.53125 C 379.03125 902.25625 391.46875 904.0625 402.84375 909.3125 C 397.89375 914.3125 391.6125 918.5125 388.4375 924.9375 C 387.2875 936.9875 389.76875 949.15625 388.09375 961.15625 C 383.26875 975.03125 376.01875 988.0125 372.09375 1002.1875 C 371.29375 1009.2375 371.60625 1016.3375 371.40625 1023.4375 C 354.08125 1023.4625 336.7625 1024.7314 319.4375 1024.1562 C 318.2625 995.6567 319.625 967.0875 316.875 938.6875 C 316.55 924.6875 315.83125 910.65625 316.40625 896.65625 z M 754.375 909.84375 C 757.08951 909.75041 759.81016 910.09063 762.59375 911.03125 C 777.09375 913.95625 791.5375 917.3125 806.1875 919.5625 C 803.6125 931.1375 803.13125 942.9625 803.40625 954.8125 C 800.90625 975.1625 798.3375 995.58165 795.5625 1015.9062 C 776.9875 1017.1064 758.4875 1019.7187 739.8125 1018.9688 C 737.1875 998.21835 730.51875 978.21875 727.96875 957.46875 C 726.09375 944.14375 725.55625 930.6375 725.65625 917.1875 C 735.32422 915.78125 744.68033 910.17712 754.375 909.84375 z M 797.78125 1033.3438 C 800.70625 1036.0938 803.65 1038.875 806.625 1041.625 C 807.15 1064.725 806.075 1087.8438 806.125 1110.9688 C 795.8 1113.6681 785.4 1116.15 775 1118.5 C 760.475 1121.8 746.3375 1115.5 732.1875 1113.25 C 728.4875 1111.55 724.8375 1109.85 721.1875 1108.125 C 723.9625 1084.875 727.4125 1061.7069 729.4375 1038.4062 C 752.0625 1035.5819 774.98125 1034.4688 797.78125 1033.3438 z M 367.1875 1041.7188 C 372.3353 1041.5883 377.1875 1043.6529 381.5625 1046.3438 C 381.2125 1070.1436 378.94375 1093.8564 378.21875 1117.6562 C 374.46875 1118.7064 370.75625 1119.7436 367.03125 1120.8438 C 345.73125 1110.2686 323.3625 1101.9814 301.5625 1092.5312 C 300.7625 1076.1314 303.3875 1059.9125 303.8125 1043.5625 C 324.1875 1042.8375 344.6375 1044.0125 364.9375 1041.9375 C 365.68437 1041.825 366.4521 1041.7372 367.1875 1041.7188 z M 319.03125 1117.5625 C 328.15625 1120.5625 335.51875 1126.9062 343.46875 1132.0312 C 343.54375 1135.1815 343.61875 1138.3315 343.71875 1141.5312 C 354.46875 1141.4814 364.90625 1138.225 375.65625 1138.125 C 382.00625 1158.85 389.40625 1179.2188 396.03125 1199.8438 C 397.58125 1205.3685 401.0125 1209.9935 403.6875 1214.9688 C 404.6375 1219.6935 398.03125 1220.2686 395.03125 1222.0938 C 372.13125 1231.4434 347.2 1224.3125 324.5 1218.0625 C 320.625 1213.7125 317.3625 1208.5065 312.0625 1205.7812 C 294.2875 1196.3315 276.50625 1186.9375 258.53125 1177.9375 C 258.35625 1171.4625 257.5125 1164.9375 258.6875 1158.5625 C 261.8125 1151.8625 266.2125 1145.7935 269.8125 1139.3438 C 276.3375 1137.1436 283.15 1136.2314 290 1136.7812 C 293.9 1146.9316 299.96875 1156.3875 301.46875 1167.3125 C 301.99375 1170.7625 303 1174.0815 304.5 1177.2812 C 307.575 1174.4814 311.38125 1172.2125 313.53125 1168.5625 C 314.70625 1164.1125 314.2125 1159.4566 314.3125 1154.9062 C 313.8875 1142.2565 317.50625 1130.0125 319.03125 1117.5625 z M 806.4375 1123.3125 C 802.0875 1135.3125 799.51875 1149.4 804.21875 1161.625 C 816.44375 1163.15 825.90625 1153.4316 837.28125 1150.7812 C 848.70625 1157.1562 858.4125 1166.3375 868.5625 1174.5625 C 868.7375 1180.7125 868.9125 1186.8875 869.1875 1193.0625 C 865.0875 1197.6875 861.16875 1202.5432 856.34375 1206.4688 C 846.91875 1213.7432 834.41875 1215.2931 824.84375 1222.2188 C 819.36875 1226.9182 814.075 1232.0069 807.25 1234.6562 C 794.625 1239.9316 782.60625 1246.6125 769.78125 1251.3125 C 753.48125 1252.3125 737.34375 1248.6934 721.09375 1248.2188 C 717.34375 1248.6436 715.3875 1245.3564 713.1875 1243.0312 C 721.2125 1234.7314 718.44375 1222.7125 719.21875 1212.3125 C 719.96875 1199.1875 720.1625 1186.0125 721.3125 1172.9375 C 725.2375 1157.7375 729.68125 1142.6681 734.03125 1127.5938 C 743.55625 1128.1934 752.73125 1131.5312 762.28125 1131.6562 C 777.20625 1130.1064 791.3125 1123.7375 806.4375 1123.3125 z M 257.75 1193.0312 C 271.225 1198.6562 283.24375 1207.2063 296.96875 1212.2812 C 296.54375 1213.2313 295.675 1215.15 295.25 1216.125 C 280.7 1213.275 265.625 1206.2313 257.75 1193.0312 z M 878.3125 1198 C 878.1375 1202.75 878.5375 1207.6184 877.5625 1212.3438 C 874.1125 1217.8684 868.78125 1222.0312 863.53125 1225.7812 C 857.68125 1227.5312 851.3375 1226.575 845.3125 1227 C 858.0375 1219.5 869.1625 1209.55 878.3125 1198 z M 411.03125 1227.4062 C 410.48125 1231.2063 409.8875 1235.0187 409.3125 1238.8438 C 400.3875 1241.2436 391.8875 1245.3814 382.6875 1246.5312 C 367.4875 1245.4314 352.425 1242.7125 337.375 1240.4375 C 336.025 1238.1625 334.6625 1235.9375 333.3125 1233.6875 C 341.8375 1236.7375 351.05 1236.6375 359.875 1238.3125 C 377.7 1241.0625 394.73125 1233.4814 411.03125 1227.4062 z "
     transform="scale(0.8,0.8)"
     id="path6" />
  <path
     d="m 782.2,51.48 c 59.1,-0.62 118.2,-0.78 177.3,-1.18 1.5,16.18 1.4,32.48 1.86,48.72 -13.76,0.26 -27.52,0.16 -41.24,0.68 -30,2.22 -60.14,0.48 -90.12,2.82 -19.98,0.42 -39.98,0.54 -59.98,0.9 3.22,-9.44 9.56,-17.66 11.28,-27.64 2.08,-7.94 1.34,-16.2 0.9,-24.3 z"
     id="path18"
     inkscape:connector-curvature="0"
     style="fill:#f4722b" />
  <path
     d="m 172.04,55.6 c 74.94,0.12 149.86,-0.62 224.8,-1.2 -12.32,9.78 -22.06,22.4 -34.56,32 -8.54,10.16 -19.9,17.56 -27.58,28.52 -56.22,1.4 -112.46,2.88 -168.68,4.6 -28.74,0.04 -57.4,2.4 -86.14,2.16 -14.38,0.92 -28.76,0.9 -43.16,1.14 C 34.6,112.02 35.9,101 35.56,90.08 35.82,79.1 34.36,67.9 37.3,57.14 c 44.92,-0.68 89.86,0.1 134.74,-1.54 z"
     id="path20"
     inkscape:connector-curvature="0"
     style="fill:#f4722b" />
  <path
     d="m 36.48,170.24 c 78.56,1.36 157.04,5.7 235.56,7.52 8.76,0.8 17.56,1.12 26.34,1.34 -11,11.1 -18.08,25.24 -28.5,36.8 -8.06,9.78 -13.74,22.5 -25.82,28.1 -9.76,4.86 -18.86,12.1 -23.5,22.22 -5.44,12.06 -16.2,21.26 -19.46,34.4 -4.76,15.1 0.62,30.62 3.16,45.58 5.32,17 7.14,34.82 12,51.94 2.16,8.14 8.26,14.32 13.72,20.4 -64.4,3.36 -128.72,9.64 -193.14,13.04 0.22,-87.1 -0.56,-174.22 -0.36,-261.34 z"
     id="path26"
     inkscape:connector-curvature="0"
     style="fill:#f4722b" />
  <path
     d="m 780.52,196.42 c 35.84,0.28 71.62,2.82 107.48,3.1 15.3,1.18 30.64,1.6 45.98,1.74 10.16,0.16 20.42,-0.4 30.4,1.96 0.38,24.26 0.86,48.52 1.06,72.8 2.32,29.64 1.12,59.42 2.4,89.12 -23,2.9 -46.32,2.64 -69.3,5.68 4.42,-14.24 2.3,-29.9 -4.92,-42.86 0.18,-10.48 -3,-20.44 -6.72,-30.1 -1.92,-11.98 -2.2,-24.48 -6.92,-35.84 -8.26,-15.74 -27.88,-17.16 -41.16,-26.76 -10.7,-8.1 -25,-10.02 -34.76,-19.54 -7.4,-6.96 -16.36,-12.06 -23.54,-19.3 z"
     id="path32"
     inkscape:connector-curvature="0"
     style="fill:#f4722b" />
  <path
     d="m 634.1,327.98 c 6.94,3.44 13.82,7.18 19.78,12.2 11.7,10.14 26.66,15.68 38,26.28 -1.34,6.18 -1.94,12.48 -2.1,18.8 -11.84,0.38 -23.62,2.76 -35.5,1.98 -4.86,-14.88 -8.46,-30.18 -13.2,-45.12 -2.14,-4.8 -5.24,-9.16 -6.98,-14.14 z"
     id="path38"
     inkscape:connector-curvature="0"
     style="fill:#f4722b" />
  <path
     d="m 851.1,444.74 c 9.06,-0.14 18.16,0 27.22,-0.92 14.5,-1.42 29.1,-0.64 43.64,-1.6 16.1,-1.72 32.34,-1.24 48.52,-1.7 0,18.38 0.62,36.76 0.64,55.12 -2.66,1.54 -6.18,0.52 -9.14,0.88 -97.9,-0.08 -195.76,2.12 -293.64,2.28 -3.6,-15.12 -0.5,-30.86 -4.26,-45.9 14.56,-1 29.18,-1.56 43.78,-1.7 6.88,13.46 19.04,23.18 31.66,30.98 8.48,3.08 17.64,3.58 26.54,4.8 18.04,-1.06 36.3,-4.24 52.84,-11.78 12.8,-7.62 22.96,-18.94 32.2,-30.46 z"
     id="path46"
     inkscape:connector-curvature="0"
     style="fill:#f4722b" />
  <path
     d="m 36.92,479.2 c 69.4,-3.22 138.84,-6.06 208.26,-8.78 5.84,8.84 10.5,18.34 14.6,28.08 -2.32,1.64 -4.42,4.3 -7.6,3.96 -38.08,0.36 -76.16,0.72 -114.24,1.16 -33.58,-0.08 -67.16,0.04 -100.74,0.9 -0.46,-8.44 -0.36,-16.88 -0.28,-25.32 z"
     id="path48"
     inkscape:connector-curvature="0"
     style="fill:#f4722b" />
  <path
     d="m 37,565.1 c 17.02,0.22 33.98,1.82 51,1.38 41.26,1.32 82.5,2.52 123.78,3.46 -9.36,14.28 -14.2,30.78 -22.18,45.8 -6.96,11.26 -12.04,23.56 -17.32,35.66 -22.08,0.14 -44.18,-0.34 -66.2,-1.82 C 83.12,649.6 60.2,648.64 37.28,647.5 36.72,620.02 37.08,592.56 37,565.1 z"
     id="path50"
     inkscape:connector-curvature="0"
     style="fill:#f4722b" />
  <path
     d="m 464.72,588.8 c 6.48,-3.14 11.7,-8.26 17.62,-12.26 2.02,10.5 3.48,21.1 5.88,31.54 0.72,8.22 -0.24,16.7 2.32,24.72 1.6,7.58 7.44,13.06 12.98,18 -1,3.9 -2,7.8 -3,11.72 -26.08,-2.58 -52.34,-0.92 -78.44,-3.1 -10.92,-0.42 -21.86,-0.54 -32.78,-0.66 -2.82,-8.82 -3.38,-18.08 -5.46,-27.06 12.22,-7.16 23.18,-16.64 36.82,-21.14 15.44,-5.78 28.88,-15.42 44.06,-21.76 z"
     id="path52"
     inkscape:connector-curvature="0"
     style="fill:#f4722b" />
  <path
     d="m 671.16,582.98 c 8.28,0.1 16.58,0.1 24.86,0.44 28.5,2.5 57.2,0.44 85.7,2.98 23.42,0.5 46.86,0.2 70.22,1.94 24.02,0.24 48.06,0.58 72.06,2.02 16.76,-0.04 33.5,0.5 50.24,1.08 -0.12,28.58 1.72,57.14 1.88,85.7 -18.04,-0.34 -36,-2.32 -54.04,-1.86 -70.26,-2.34 -140.52,-4.48 -210.8,-6.54 -3,-6.36 -5.22,-13.1 -8.9,-19.14 -8.8,-14.5 -13.82,-30.88 -21.9,-45.76 -4.1,-6.48 -7.16,-13.52 -9.32,-20.86 z"
     id="path54"
     inkscape:connector-curvature="0"
     style="fill:#f4722b" />
  <path
     d="m 37.26,801.72 c 7.62,-4.4 16.4,-1.88 24.6,-1.3 49.28,3.32 98.48,7.74 147.76,10.8 -7.9,10.42 -11.32,23.62 -10.46,36.62 -0.66,10.16 0.72,22.32 -7.5,29.94 -10.04,11.22 -17.3,24.52 -24.06,37.88 -3.94,10.26 -4.78,21.38 -4.32,32.28 0,13.22 -0.34,28.14 8.46,38.98 C 126.98,986.74 82.2,987.3 37.46,986.7 37.18,925.04 37.14,863.38 37.26,801.72 z"
     id="path68"
     inkscape:connector-curvature="0"
     style="fill:#f4722b" />
  <path
     d="m 348.68,822.28 c 57.84,3.7 115.58,8.58 173.38,12.78 5.74,0.02 11.54,0.28 17.14,1.78 -3.38,18.94 -4.12,38.2 -6.98,57.22 -1.62,9.04 0.64,18.74 6.28,26.02 -2.7,11.2 -5.94,22.36 -7.12,33.88 -0.56,10.34 -0.46,20.72 -0.78,31.08 -53.22,0.72 -106.44,0.2 -159.66,0.54 0.1,-7.86 0.62,-15.84 -1.2,-23.56 -1.48,-10.2 -10.46,-16.9 -13.34,-26.58 -3.44,-10.82 -7.16,-21.64 -9.72,-32.7 0.12,-11.6 0.08,-23.22 0.36,-34.82 2.76,-15.06 1.46,-30.42 1.64,-45.64 z"
     id="path70"
     inkscape:connector-curvature="0"
     style="fill:#f4722b" />
  <path
     d="m 690.56,848.28 c 97.04,6.1 193.86,14.62 290.86,21.4 0.18,38.36 2.68,76.68 2.24,115.06 -81.86,0.54 -163.72,0.26 -245.58,0.4 5.38,-6.5 8.32,-14.6 9.02,-22.96 0.54,-13.72 1.92,-28.96 -6.7,-40.68 -3.02,-7.26 -4.58,-15.58 -11.34,-20.62 -11.84,-9.18 -22.74,-21.1 -37.6,-25.14 -1.66,-9.06 -0.82,-18.32 -0.9,-27.46 z"
     id="path76"
     inkscape:connector-curvature="0"
     style="fill:#f4722b" />
</svg>
