<?xml version="1.0" encoding="UTF-8" standalone="no"?>
<svg
   xmlns:dc="http://purl.org/dc/elements/1.1/"
   xmlns:cc="http://creativecommons.org/ns#"
   xmlns:rdf="http://www.w3.org/1999/02/22-rdf-syntax-ns#"
   xmlns:svg="http://www.w3.org/2000/svg"
   xmlns="http://www.w3.org/2000/svg"
   xmlns:sodipodi="http://sodipodi.sourceforge.net/DTD/sodipodi-0.dtd"
   xmlns:inkscape="http://www.inkscape.org/namespaces/inkscape"
   width="1280"
   height="1280"
   viewBox="0 0 1024 1024"
   version="1.1"
   id="svg2"
   inkscape:version="0.48.1 "
   sodipodi:docname="kill_building_direct_hit.svg">
  <metadata
     id="metadata70">
    <rdf:RDF>
      <cc:Work
         rdf:about="">
        <dc:format>image/svg+xml</dc:format>
        <dc:type
           rdf:resource="http://purl.org/dc/dcmitype/StillImage" />
      </cc:Work>
    </rdf:RDF>
  </metadata>
  <defs
     id="defs68" />
  <sodipodi:namedview
     pagecolor="#ffffff"
     bordercolor="#666666"
     borderopacity="1"
     objecttolerance="10"
     gridtolerance="10"
     guidetolerance="10"
     inkscape:pageopacity="0"
     inkscape:pageshadow="2"
     inkscape:window-width="1920"
     inkscape:window-height="1018"
     id="namedview66"
     showgrid="false"
     fit-margin-top="0"
     fit-margin-left="0"
     fit-margin-right="0"
     fit-margin-bottom="0"
     inkscape:zoom="0.6609375"
     inkscape:cx="466.00473"
     inkscape:cy="640"
     inkscape:window-x="-8"
     inkscape:window-y="-8"
     inkscape:window-maximized="1"
     inkscape:current-layer="layer1"
     inkscape:snap-page="true" />
  <g
     inkscape:groupmode="layer"
     id="layer1"
     inkscape:label="background">
    <rect
       style="fill:#3e3e3e;fill-opacity:1;fill-rule:nonzero;stroke:none"
       id="rect3036"
       width="1280"
       height="1280"
       x="0"
       y="0"
       transform="scale(0.8,0.8)" />
  </g>
  <g
     inkscape:groupmode="layer"
     id="layer2"
     inkscape:label="foreground">
    <path
       d="M 0,0 0.12,0 C 0.1,0.04 0.04,0.1 0,0.12 L 0,0 z"
       id="path4"
       inkscape:connector-curvature="0"
       style="fill:#f4722b" />
    <path
       style="fill:#f5e5c1"
       d="m 818,40.65 c -6.40688,0.15281 -12.91501,1.055 -17.55,5.75 -7.58,7.28 -17.14,12.07 -24.8,19.25 -7.38,6.82 -16.62,11.22 -24,18 -4.4,5.38 -5.27,12.57 -7.15,19.05 -4.22,1.22 -8.63,1.81 -12.95,0.75 -11.72,8.96 -24.35,16.83 -35.05,27.05 -7.66,6.44 -16.32,11.58 -23.4,18.7 -9.04,7.58 -19.1,13.91 -27.5,22.25 -14.02,9.82 -26.29,21.84 -40.35,31.6 -14.18,13.94 -33.19,22.97 -44.15,40.05 -6.56,9.46 -15.44,17.45 -19.7,28.35 -7.28,17.78 -16.95,35.15 -18.95,54.55 0.72,13.8 -0.83,28.71 6.15,41.25 3.76,6.7 6.52,14.61 13.3,18.95 7.16,4.72 13.84,10.21 21.4,14.35 10.86,5.08 22.4,8.38 33.5,12.9 12.28,5.62 26.14,3.04 39.1,5.3 10.24,1.76 19.96,-1.9 29.4,-5.3 53.26,-19.44 106.57,-38.73 159.85,-58.15 10.5,-4.3 21.76,-7 31.7,-12.6 6.58,-6.16 11.29,-13.98 17.35,-20.6 9.14,-7.28 21.23,-4.21 31.95,-4.55 11.06,0.32 20.66,-5.97 31.1,-8.65 6.08,-2.14 12.54,-3.88 17.8,-7.7 5.86,-7.06 10.12,-15.27 15.4,-22.75 9.58,-12.1 10.81,-28.03 14.55,-42.45 -1.92,-15.62 -5.82,-30.94 -8.7,-46.4 -4.56,-11.1 -8.13,-22.59 -12.25,-33.85 -2.18,-9.82 -8.53,-17.82 -13.55,-26.3 -7.3,-10.58 -12.42,-23.1 -22.8,-31.2 C 919.4,91.27 911.45,83.9 903.15,76.9 890.35,64.2 873.52,57.03 858.6,47.25 c -9.98,-7.04 -22.78,-5.4 -34.3,-6.6 -2.03501,-0.01 -4.16437,-0.0509 -6.3,0 z m 0.35,12.05 c 7.88238,5.5e-4 15.7925,0.88 23.65,1.65 7.3,0.2 12.86,5.5 19,8.8 10.52,6.66 22.13,11.87 31.25,20.55 10.86,9.78 22.31,18.93 32.85,29.05 6.82,9.46 12.41,19.73 18.85,29.45 8.58,12.86 11.32,28.4 17.4,42.4 6.02,15.92 7.25,32.98 11.35,49.4 -2.9,21.54 -13.58,41.16 -26.2,58.6 -11.92,3.98 -23.75,8.24 -35.65,12.3 -11.52,1.64 -23.56,-2.37 -34.7,1.95 -12.28,-2.76 -23.32,-9.41 -35,-13.95 -9.08,-4.7 -20.49,-6.44 -26.75,-15.3 -13.22,-15.98 -27.67,-30.95 -40.85,-46.95 -5.5,-12.64 -13.03,-24.38 -18.25,-37.1 -0.46,-13.04 -4.45,-25.64 -4.55,-38.7 -0.62,-9.94 -4.33,-20.35 0.05,-29.95 3.98,-9.9 6.66,-20.24 9.5,-30.5 6.48,-8.88 16.83,-13.8 25.25,-20.6 9.02,-8 18.99,-15.05 29.45,-21.05 1.12499,-0.04 2.22395,-0.0501 3.35,-0.05 z M 742,115.35 c 0.6929,-0.0437 1.38374,-0.0225 2.1,0 -5.38,4.9 -10.4,10.11 -15.1,15.65 -4.8,5.64 -12.36,9.68 -13.9,17.5 -3.46,14.5 -6.09,29.18 -10.25,43.5 4.16,16.82 10.53,33.21 14.95,50.05 1.54,5.26 4.41,9.99 7.85,14.25 9.58,11.82 18.76,23.96 28.2,35.9 7.14,11.48 20.96,15.19 31.8,22.15 8.5,3.96 16.31,11.77 26.35,10.35 15.3,-1.92 30.58,-4.04 45.9,-5.7 -4,5.38 -6.9,13.21 -14.4,14.35 -45.02,16.2 -90,32.69 -135,49.05 -22.28,7.52 -44.04,16.84 -66.6,23.4 -15.16,-5.3 -29.42,-13.32 -44.4,-19.3 -9.76,-3.44 -15.65,-12.46 -23.15,-19 -8.96,-7.22 -12.2,-18.76 -17.3,-28.6 -2.9,-13.18 -5.3,-27.02 -2.2,-40.4 1.94,-9.38 2.66,-19.05 5.4,-28.25 4.04,-9.1 8.93,-17.77 13.75,-26.45 13.68,-13.66 30.31,-24.07 44.55,-37.15 6.34,-5.04 13.3,-9.32 19.1,-15 7.52,-7.32 16.94,-12.29 24.5,-19.55 7.4,-7.38 16.74,-12.38 24.3,-19.6 8.52,-8.28 19.23,-13.88 27.65,-22.3 7.66875,-6.3375 15.50664,-14.19463 25.9,-14.85 z"
       id="path8"
       inkscape:connector-curvature="0" />
    <path
       d="m 443.36,59.78 c 1.16,-5.9 8.4,-10.2 13.92,-7.24 3.46,1.22 5.34,4.56 6.88,7.66 18.6,40.48 36.76,81.14 55.1,121.74 19.02,-35.24 37.68,-70.68 56.52,-106.02 1.68,-2.98 3.66,-6.18 7.06,-7.36 5.52,-2.82 12.68,1.54 13.82,7.4 0.56,3.98 0.3,8.02 0.06,12.02 -2.34,23.32 -3.52,46.72 -5.74,70.04 -0.7,7.98 0.14,16.44 -2.96,23.98 -6.26,7.94 -13.7,14.88 -20.46,22.38 2.78,-14.22 5.4,-28.46 8.4,-42.64 0.74,-4.26 1.98,-9.16 -0.7,-13.02 -2.5,-5.12 -9.3,-5.32 -13.98,-3.54 -4.58,3.08 -6.34,8.66 -8.92,13.28 -14.7,28.14 -29.46,56.24 -44.32,84.3 -9.76,-36.36 -19.76,-72.66 -29.52,-109.04 -1.08,-3.84 -2.4,-8.04 -5.88,-10.42 -4.64,-1.8 -11.54,-1.82 -14.04,3.34 -4.04,8.5 -2.76,18.32 -3.56,27.46 -3.62,43.64 -6.16,87.34 -9.94,130.98 -18.9,0.12 -37.84,0.66 -56.68,2.16 -8.62,1.02 -10.72,12.14 -6,18.28 15.84,22.38 32,44.54 47.94,66.86 -26.54,20.92 -54.36,40.18 -81.24,60.66 -5.2,3.26 -6.52,10.42 -3.72,15.68 2.98,3.82 8.16,4.66 12.72,4.16 31.62,-3.46 63.26,-6.94 94.88,-10.36 -0.1,54.56 1.42,109.06 1.78,163.6 -0.46,5.84 2.28,13.86 9.32,13.64 6.9,1.4 10.94,-4.88 13.64,-10.1 19.18,-35.06 39.26,-69.62 58.22,-104.78 44.16,6.26 87.96,15.18 132.04,21.92 4.94,0.72 10.48,-2.06 11.94,-7.04 2.2,-5.4 -2.04,-10.46 -5.68,-14 -16.9,-16.12 -33.26,-32.8 -50.38,-48.7 13.6,-10.38 28.5,-18.9 42.66,-28.5 8.62,-5.64 17.12,-11.84 27.12,-14.82 29.5,-8.96 58.82,-18.56 88.4,-27.24 -1.88,3.2 -4.26,6.16 -7.62,7.88 -35.1,19.88 -69.54,40.9 -104.58,60.88 6.64,7.64 14.92,13.58 22.08,20.7 27.7,24.96 55.18,50.22 82.98,75.08 5.18,4.06 10.76,11.4 6.06,17.9 -3.42,6 -11.12,4.8 -16.84,4.04 -69.42,-10.76 -138.86,-21.36 -208.3,-32.1 -6.24,-0.88 -12.52,-0.1 -18.78,0.24 -1.78,2.24 -3.74,4.42 -4.9,7.06 -26.9,69.08 -53.7,138.2 -80.54,207.3 -1.56,4.22 -3.38,8.34 -5.32,12.4 -3.9,-3.58 -7.46,-8.1 -6.84,-13.74 0.1,-49.44 -0.2,-98.88 -0.98,-148.3 -2.04,-31.34 -0.4,-62.82 -2.76,-94.14 -0.5,-14.24 -0.4,-28.48 -0.68,-42.7 -40.08,-0.72 -80.24,0.48 -120.26,-2.24 -8.42,-0.76 -12.36,-12.12 -5.92,-17.82 18.22,-18.46 37.36,-35.98 56.04,-53.98 12.44,-11.78 24.28,-24.22 37.56,-35.1 -24.76,-30.66 -50.38,-60.64 -75.5,-91 -4.12,-5.42 -9.94,-10.1 -11.62,-16.92 -1.66,-7.72 7.08,-14.78 14.32,-11.64 20.98,6.42 42.24,11.92 63.1,18.74 11,3.02 21.76,7 32.96,9.22 5.16,-58.9 9.6,-117.88 14.52,-176.8 1.44,-10.52 0.56,-21.32 3.12,-31.68 z"
       id="path10"
       inkscape:connector-curvature="0"
       style="fill:#f4722b" />
    <path
       d="m 847.75,89.1 c -2.32688,-0.12375 -4.61,0.685 -6.65,1.9 -7.1,4.76 -17.16,7.51 -19.7,16.65 -2.82,7.92 -7.78,15.66 -6.7,24.4 1.06,10.58 0.87,21.76 5.75,31.5 3.38,7.4 5.11,15.52 9.65,22.4 6.68,11.06 11.36,23.83 21.7,32.15 7.18,7.86 16.98,12.36 25.2,18.9 7.46,6.56 17.98,6.83 27.1,9.55 7,-0.14 14.19,-1.4 20.75,-3.9 5.92,-3.9 9.72,-10.16 14.1,-15.6 4.4,-5.38 3.24,-12.73 3.8,-19.15 -0.02,-5.74 1.61,-11.57 0.45,-17.25 -5.8,-13.64 -8.43,-28.39 -13.45,-42.25 -12.2,-13.8 -22.18,-30.08 -37.8,-40.4 -6.6,-4.62 -12.45,-10.38 -19.75,-13.9 -7.18,-2.3 -14.76,-2.99 -22.1,-4.55 -0.78,-0.255 -1.57437,-0.40875 -2.35,-0.45 z M 871,130.45 c 5.12203,-0.32184 10.39875,1.16 14.4,4.35 8.04,6.1 12.65,15.41 18.15,23.65 4.74,6.86 7.52,15.11 7.9,23.45 0.52,6.9 -4.98,11.8 -8.7,16.9 -7.78,1.84 -17.08,4.24 -23.8,-1.6 -8.78,-8.96 -17.7,-18.87 -20.8,-31.35 -1.22,-4.2 -2.43,-8.4 -3.55,-12.6 -3.42,-8.22 3.17,-16.73 9.65,-21.25 2.1125,-0.8875 4.42181,-1.40371 6.75,-1.55 z"
       id="path14"
       style="fill:#f5e5c1"
       inkscape:connector-curvature="0" />
    <path
       d="m 759.08,144.18 c 6.52,-2.18 12.6,-5.44 19.02,-7.86 3.82,0.4 6.38,4.18 4.68,7.84 -7.02,4.68 -14.98,7.78 -22.34,11.9 -0.58,-3.96 -1.04,-7.92 -1.36,-11.88 z"
       id="path20"
       inkscape:connector-curvature="0"
       style="fill:#f5e5c1" />
    <path
       d="m 761.26,161.12 c 7.06,-2.54 13.96,-8.2 21.86,-6.28 6.12,10.58 7.18,23.12 11.88,34.3 1.72,4.72 4.16,10.18 1.52,15.04 -6.08,4.32 -13.3,6.74 -20.1,9.66 -2.62,-5.5 -6.04,-10.58 -8.46,-16.18 -4.08,-11.78 -5.38,-24.22 -6.7,-36.54 z"
       id="path22"
       inkscape:connector-curvature="0"
       style="fill:#f5e5c1" />
    <path
       d="m 472.56,189.68 c 6.5,26.86 14.24,53.4 21.38,80.08 0.98,6.02 5.84,9.72 11.26,11.64 -2.66,10.08 -4.7,20.3 -7.16,30.42 -4.04,15.2 -0.6,30.96 0.94,46.28 0.32,7.56 5.86,13.18 10.16,18.84 5.68,6.92 10.44,14.7 17.44,20.42 6.3,5.08 10.5,12.8 18.52,15.56 14,5.82 27.36,13.26 41.74,18.06 10.02,1.1 19.52,5.3 29.7,5 -6.52,6.1 -19.4,8.98 -18.38,19.98 -0.32,4.78 3.5,8.08 6.52,11.18 11.86,11.38 23.54,22.96 35.34,34.42 -32.72,-6.54 -65.76,-11.34 -98.56,-17.36 -7.42,-2 -17.1,-1.62 -20.84,6.32 -15.64,27.16 -30.48,54.78 -46.06,81.96 0.48,-19.5 0.26,-39.04 -0.64,-58.54 -0.12,-25.34 -0.28,-50.66 -0.7,-75.98 -0.2,-4.7 0.04,-10.18 -3.74,-13.64 -3.54,-3.6 -8.94,-3.42 -13.58,-3.04 -21.44,2.34 -42.86,4.98 -64.36,6.86 18.7,-15.74 39.42,-28.96 58.48,-44.26 5.62,-4.46 4.82,-13.42 0.74,-18.66 -14.04,-19.42 -27.84,-39.02 -42.04,-58.32 14.48,-0.14 28.92,-1.26 43.38,-1.74 5.52,0.08 11.4,-3.12 12.52,-8.88 2.96,-12.62 1.64,-25.74 3.62,-38.5 0.9,-22.74 4.04,-45.36 4.32,-68.1 z"
       id="path24"
       inkscape:connector-curvature="0"
       style="fill:#f4722b" />
    <path
       d="m 685.22,197.02 c 4.48,-2.08 6.98,3.64 5.82,7.3 -13.02,11.56 -28.26,20.2 -41.56,31.4 -5.76,4.2 -12.08,7.58 -17.44,12.32 -7.52,6.76 -16.82,11.1 -24.42,17.76 -6.08,5.42 -13.28,9.34 -19.76,14.24 -6.84,5.48 -13.6,11.34 -21.66,14.98 -5.16,1.98 -7.52,-5.8 -3.72,-8.4 9.04,-9.4 21.12,-14.84 30.84,-23.38 6.54,-5.62 14.4,-9.4 20.88,-15.08 8.18,-7.34 18.26,-12.12 26.5,-19.4 6.16,-5.42 13.6,-9.12 19.92,-14.32 7.68,-6.5 16.1,-12.08 24.6,-17.42 z"
       id="path26"
       inkscape:connector-curvature="0"
       style="fill:#f5e5c1" />
    <path
       d="m 543.62,218.22 c 0.38,-1.66 2.02,-1.32 3.28,-1.26 -4.94,0.72 -3.64,6.04 -4.94,9.34 -1.28,8.56 -8.94,13.78 -13.54,20.54 6.32,-8.82 11.02,-18.66 15.2,-28.62 z"
       id="path28"
       inkscape:connector-curvature="0"
       style="fill:#f4722b" />
    <path
       d="m 669.3,231.1 c 6.26,-3.96 12.22,-11.78 20.46,-9.56 5.86,6.96 9.42,15.94 11.6,24.72 -9.98,8.76 -22.2,14.3 -32.4,22.76 -5.66,4.46 -12.28,7.48 -17.9,12.02 -8.82,7.56 -19.66,12.22 -28.42,19.88 -16.38,10.6 -31.84,22.54 -48.74,32.36 -2.58,-2.26 -6.8,-3.78 -7,-7.74 -1.3,-7.36 -3.22,-14.58 -4.2,-21.98 14.08,-11.88 30.52,-20.64 45.16,-31.8 20.94,-12.86 40.56,-27.72 61.44,-40.66 z"
       id="path30"
       inkscape:connector-curvature="0"
       style="fill:#f5e5c1" />
    <path
       d="m 274.5,412.7 c 17.9,-0.08 35.78,-1.26 53.68,-0.86 -8,8.12 -15.62,16.76 -24.84,23.56 -7.58,6.52 -11.34,16.76 -9.44,26.66 0.46,10.5 11.06,16.5 20.44,17.66 10.22,0.82 20.5,0.3 30.76,0.5 -2.8,23.6 -6.08,47.16 -8.52,70.82 -6.64,0.3 -13.28,0.18 -19.9,-0.18 -3.02,-3.68 -6.24,-7.38 -7.7,-11.98 -7.2,-20.86 -13.8,-41.94 -21.26,-62.7 -2.02,-5.88 -6.88,-10.4 -13.44,-8.98 0.3,-18.16 0.1,-36.34 0.22,-54.5 z"
       id="path32"
       inkscape:connector-curvature="0"
       style="fill:#f5e5c1" />
    <path
       d="m 161.46,433.74 c 3.9,-4.46 8,-8.72 12.22,-12.86 28.9,0.28 57.82,0 86.7,0.68 0.56,0.5 1.7,1.48 2.28,1.98 -0.4,15.12 -2.12,30.2 -2.42,45.34 -10.44,2.44 -21.2,2.42 -31.76,4.02 -4.7,22.16 -9.62,44.28 -14.82,66.32 -15.54,-0.04 -31.08,-0.04 -46.6,0 -4.4,-3.8 -5.5,-9.54 -5.44,-15.1 -0.2,-30.12 0.12,-60.26 -0.16,-90.38 z"
       id="path34"
       inkscape:connector-curvature="0"
       style="fill:#f5e5c1" />
    <path
       d="m 104.38,462.86 c 15.58,-0.36 31.18,-0.3 46.76,-0.12 -0.28,19.38 -0.1,38.76 -0.1,58.16 -23.16,-0.02 -46.3,-0.08 -69.46,0.02 -2.66,-2.32 -5.32,-4.66 -7.98,-7 0.06,-14.02 -0.02,-28.04 0.08,-42.04 -0.56,-4 3.38,-6.04 5.7,-8.5 3.28,0.12 6.56,0.2 9.84,0.26 0,11.78 -0.04,23.58 -0.02,35.36 4.72,0.48 9.48,0.58 14.22,0.4 1.76,-12.1 0.72,-24.36 0.96,-36.54 z"
       id="path36"
       inkscape:connector-curvature="0"
       style="fill:#f5e5c1" />
    <path
       d="m 256.3,478.5 c -6.96,0.04 -13.89,0.11 -20.85,0.25 -7.38,38.58 -16.26,76.86 -23.3,115.5 30.42,0.14 60.86,-0.09 91.3,0.05 -1.08,-12.4 -5.5,-24.14 -7.5,-36.4 -6.12,-26.5 -11.21,-53.26 -18.75,-79.4 -6.96,-0.04 -13.94,-0.04 -20.9,0 z m -2.7,30.35 c 4.2525,-0.0625 8.61,0.28 12.7,0.1 4.8,-0.64 7.15,4.01 9.55,7.25 3.9,5.94 8.53,11.35 12.05,17.55 -2.1,9.46 -7.3,18.02 -11.7,26.6 -10.52,3.86 -22.14,1.55 -33.1,2.35 -6.06,-7.94 -9.63,-17.36 -12.55,-26.8 2.24,-8.68 6.54,-16.88 10.9,-24.7 3.74,-1.83 7.8975,-2.2875 12.15,-2.35 z"
       id="path38"
       style="fill:#f5e5c1"
       inkscape:connector-curvature="0" />
    <path
       d="m 357,480.38 c 22.12,0.1 44.24,0.64 66.36,0.32 -0.14,17.12 0.32,34.24 0.58,51.36 0.92,9.7 1.46,19.42 1.3,29.18 -22.32,0.22 -44.66,-0.38 -66.96,0.32 -3.4,-4.66 -7.1,-9.18 -9.7,-14.36 -0.64,-4.4 0.38,-8.82 0.86,-13.18 2.78,-17.84 4.82,-35.78 7.56,-53.64 z"
       id="path40"
       inkscape:connector-curvature="0"
       style="fill:#f5e5c1" />
    <path
       d="m 241.38,537.46 c 3.94,-8.18 7.88,-16.38 12.56,-24.18 3.24,0.04 6.48,0.08 9.74,0.16 3.78,7.46 9.48,14.14 12.02,22.12 -2.86,4.76 -6.46,8.98 -9.72,13.46 -6.76,-0.2 -13.5,-0.34 -20.26,-0.38 -1.44,-3.74 -2.86,-7.48 -4.34,-11.18 z"
       id="path44"
       inkscape:connector-curvature="0"
       style="fill:#f5e5c1" />
    <path
       d="m 406.7,571.4 c 6.22,-0.3 12.46,-0.48 18.68,-0.62 0.06,7.38 0.16,14.76 0.32,22.14 -5,-1.84 -10.24,-3.12 -15.02,-5.52 -2.66,-4.86 -4.48,-10.4 -3.98,-16 z"
       id="path46"
       inkscape:connector-curvature="0"
       style="fill:#f5e5c1" />
    <path
       d="m 317.58,594.68 c 15.18,10.02 30.4,19.98 45.6,29.96 6.32,4.22 12.98,8.04 18.56,13.26 -3.24,4.7 -7.02,9.04 -9.84,14.02 -3.3,6.04 0.62,13.7 -3.5,19.44 -18.18,-14.34 -35.86,-29.28 -53.78,-43.9 -1.88,-1.92 -5.36,-3.9 -4.12,-7.1 2.1,-8.64 5.04,-17.04 7.08,-25.68 z"
       id="path48"
       inkscape:connector-curvature="0"
       style="fill:#f5e5c1" />
    <path
       d="m 418.24,597.82 c 2.44,0.86 5.16,1.2 7.3,2.74 0.82,13.84 1.9,27.74 1.12,41.62 -1.38,1.98 -2.86,3.88 -4.46,5.7 -5.16,-6.9 -12.84,-10.92 -21.12,-12.82 5.98,-12.28 11.7,-24.72 17.16,-37.24 z"
       id="path50"
       inkscape:connector-curvature="0"
       style="fill:#f5e5c1" />
    <path
       d="m 262.9,607.04 c 12.08,-0.58 24.22,-0.1 36.32,-0.38 -0.6,12.4 -0.1,24.82 -0.24,37.24 -7.5,4.84 -16,9.08 -25.12,9.1 -11.86,-1.22 -24.36,-3.98 -34.04,-11.08 -0.7,-7.68 -0.64,-16.82 5.64,-22.34 5.22,-4.88 10.68,-9.98 17.44,-12.54 z"
       id="path52"
       inkscape:connector-curvature="0"
       style="fill:#f5e5c1" />
    <path
       d="m 388.88,644.76 c 12.54,-6.5 32.48,3.98 30.66,19.14 0.32,13.82 -15.84,24.82 -28.54,19.26 -13.38,-3.7 -19.04,-23.4 -9.02,-33.3 2,-2.06 4.34,-3.8 6.9,-5.1 z"
       id="path54"
       inkscape:connector-curvature="0"
       style="fill:#f5e5c1" />
    <path
       d="m 220.04,659.84 c 6.58,-2.34 12.88,-5.86 19.82,-6.88 25.44,10.6 50.42,22.36 75.78,33.2 10.18,4.28 21.22,10.5 24.06,22.04 5.24,15.04 -7.3,28.6 -5.88,43.52 3.4,9.34 7.92,18.56 14.48,26.1 40.52,33.36 80.22,67.74 120.4,101.52 18.48,15.94 37.84,30.98 54.78,48.64 -2.24,4.86 -4.6,9.68 -7.12,14.44 -6.54,-1.4 -13.5,-1.84 -19.4,-5.32 -67,-36.96 -133.94,-74.06 -200.96,-111.02 -11.74,-5.76 -22.52,-15.34 -26.84,-27.98 2.24,-9.42 7.04,-18.04 13.88,-24.88 4.44,-5.28 11.04,-7.84 16.18,-12.28 8.86,-8.36 13.38,-21.18 11.54,-33.24 -2.08,-22.56 -32.76,-34.94 -50.46,-21.26 -10.66,6.96 -16.28,19.74 -14.56,32.34 -13.68,9.68 -27.8,18.72 -41.6,28.22 -5.48,-6.56 -11.1,-13.7 -12.36,-22.42 -0.86,-6.18 -1.76,-12.36 -2.42,-18.54 -0.82,-7.38 2.56,-14.28 6.02,-20.56 8.64,-14.98 16.44,-30.42 24.66,-45.64 z"
       id="path56"
       inkscape:connector-curvature="0"
       style="fill:#f5e5c1" />
    <path
       d="m 273.06,711.22 c 9.06,-2.14 19.3,1.38 24.58,9.18 7.74,10.62 4.18,27.52 -7.62,33.66 -11.44,7.08 -28.06,1.2 -32.84,-11.3 -6.02,-12.5 2.6,-28.56 15.88,-31.54 z"
       id="path58"
       inkscape:connector-curvature="0"
       style="fill:#f5e5c1" />
    <path
       d="m 248.7,752.18 c 0.18,-1.16 0.5,-3.48 0.68,-4.64 4.28,8.42 11.78,14.46 20.26,18.32 -0.88,5.22 -1.14,10.9 -4.58,15.24 -24.28,35.08 -47.44,70.94 -72.66,105.38 -2.5,3.34 -4.6,7.14 -7.98,9.7 -22.14,15.2 -43.66,31.28 -65.58,46.76 -8.18,3.48 -17.04,5.18 -25.52,7.8 -10.94,1.26 -22.04,0.4 -33.04,0.44 3.4,-10.38 6.14,-20.94 9.28,-31.38 0.6,-2.44 2.04,-4.52 3.9,-6.14 58.38,-53.88 117,-107.48 175.24,-161.48 z"
       id="path60"
       inkscape:connector-curvature="0"
       style="fill:#f5e5c1" />
    <path
       d="m 524.2,952 c 2.62,-7.76 7.74,-14.38 11.44,-21.64 24.32,16.54 49.02,32.52 73.46,48.9 -1.54,10.64 -2.14,21.4 -4.02,31.98 -12.3,2.1 -24.92,1.56 -37.36,1.46 -7.84,-7.76 -13.1,-17.82 -19.92,-26.48 C 540.14,974.68 530.84,964.1 524.2,952 z"
       id="path62"
       inkscape:connector-curvature="0"
       style="fill:#f5e5c1" />
    <path
       d="m 25.34,985.72 c 7.82,-6.24 15,-13.3 23.14,-19.12 20.42,-0.04 40.94,0.38 61.28,2.64 6.2,4.8 12.54,9.44 18.68,14.3 -0.02,6 -0.02,11.98 0.04,17.98 -34.38,0.16 -68.74,-0.06 -103.1,0.02 -0.02,-5.28 -0.02,-10.56 -0.04,-15.82 z"
       id="path64"
       inkscape:connector-curvature="0"
       style="fill:#f5e5c1" />
  </g>
</svg>
