<?xml version="1.0" encoding="UTF-8" standalone="no"?>
<svg
   xmlns:dc="http://purl.org/dc/elements/1.1/"
   xmlns:cc="http://creativecommons.org/ns#"
   xmlns:rdf="http://www.w3.org/1999/02/22-rdf-syntax-ns#"
   xmlns:svg="http://www.w3.org/2000/svg"
   xmlns="http://www.w3.org/2000/svg"
   xmlns:sodipodi="http://sodipodi.sourceforge.net/DTD/sodipodi-0.dtd"
   xmlns:inkscape="http://www.inkscape.org/namespaces/inkscape"
   width="1280"
   height="1280"
   viewBox="0 0 1024 1024"
   version="1.1"
   id="svg2"
   inkscape:version="0.48.1 "
   sodipodi:docname="kill_player_after_tp.svg">
  <metadata
     id="metadata66">
    <rdf:RDF>
      <cc:Work
         rdf:about="">
        <dc:format>image/svg+xml</dc:format>
        <dc:type
           rdf:resource="http://purl.org/dc/dcmitype/StillImage" />
      </cc:Work>
    </rdf:RDF>
  </metadata>
  <defs
     id="defs64" />
  <sodipodi:namedview
     pagecolor="#ffffff"
     bordercolor="#666666"
     borderopacity="1"
     objecttolerance="10"
     gridtolerance="10"
     guidetolerance="10"
     inkscape:pageopacity="0"
     inkscape:pageshadow="2"
     inkscape:window-width="1920"
     inkscape:window-height="1018"
     id="namedview62"
     showgrid="false"
     inkscape:snap-page="true"
     fit-margin-top="0"
     fit-margin-left="0"
     fit-margin-right="0"
     fit-margin-bottom="0"
     inkscape:zoom="0.6609375"
     inkscape:cx="466.00473"
     inkscape:cy="640"
     inkscape:window-x="-8"
     inkscape:window-y="-8"
     inkscape:window-maximized="1"
     inkscape:current-layer="layer1" />
  <g
     inkscape:groupmode="layer"
     id="layer1"
     inkscape:label="background"
     style="display:inline">
    <rect
       style="fill:#3e3e3e;fill-opacity:1;fill-rule:nonzero;stroke:none"
       id="rect3053"
       width="1024"
       height="1024"
       x="0"
       y="0" />
  </g>
  <g
     inkscape:groupmode="layer"
     id="layer2"
     inkscape:label="foreground">
    <path
       d="m 0,0 0,6.25 c 100.28,190.02 199.74,380.47 299.9,570.55 148.06,-9.54 296.14,-18.93 444.2,-28.35 3.6,0.48 5.78,-2.25 7.2,-5.15 C 842.14,365.42 932.94,187.51 1024,9.75 L 1024,0 0,0 z m 404,11.4 c 11.94,2.16 20.97,10.96 31.75,15.8 2.7,-0.22 5.36,-0.69 8,-1.35 41.7,-10.56 86.14,-10.11 127.7,0.95 8.9,2.36 18.81,1.82 26.75,7.1 6.76,4.24 13.92,7.82 21.4,10.7 13.42,-3.82 26.53,-9.12 40.35,-11.4 5.32,-0.42 14.46,-0.95 14.6,6.55 1,13.28 -0.28,26.65 0.4,39.95 -0.22,3.08 2.37,5.03 4.25,7.05 35.3,33.06 60.11,77.28 69.35,124.8 1.26,5.46 1.09,12.13 6.15,15.75 11.32,9.68 24.99,17.27 32.85,30.45 -11.32,15.7 -24.68,29.82 -36.8,44.9 -4.38,5.34 -5.22,12.4 -7.2,18.8 -8.36,28.66 -22.47,55.58 -40.95,79 -3.26,4.18 -7.14,7.92 -10,12.4 -3.44,22.9 -5.55,46.01 -6.75,69.15 -0.82,8.44 0.22,18.62 -7.1,24.6 -4.54,3.96 -4.07,11.82 -10.15,14.2 -6.88,2.84 -14,-1.01 -20.6,-2.85 -26.14,-8.1 -52.29,-16.24 -78.65,-23.6 -2.98,-1.22 -4.93,-3.95 -7.25,-6.05 -43.34,9.66 -89.25,8.18 -131.65,-5.2 -5.42,-1.5 -11.32,-4.7 -16.8,-1.6 -22.06,9.42 -44.26,18.51 -66.3,27.95 -4.42,1.82 -9.45,3.53 -14.15,1.65 -2.44,-3.4 -2.72,-7.72 -3.4,-11.7 -2.72,-23.12 -5.68,-46.2 -8.4,-69.3 -1.04,-7.32 -0.39,-15.79 -5.85,-21.55 -9.48,-10.8 -17.45,-22.71 -25.25,-34.75 -6.94,-8.14 -9.26,-18.76 -13.8,-28.2 -12.84,-30.02 -18.99,-62.86 -17.95,-95.5 -0.2,-3.1 0.37,-6.55 -1.25,-9.35 -6.54,-10.8 -15.37,-20.11 -21.35,-31.25 -1.8,-2.84 0.58,-6.61 3.2,-8.05 9.16,-5.48 19.73,-8.19 28.85,-13.75 1.5,-2 2.25,-4.42 3.15,-6.7 18.68,-55.04 59.03,-101.99 109.75,-130.15 2.22,-1.58 5.26,-2.67 6.4,-5.35 4.18,-9.74 5.59,-20.42 10.15,-30 1,-2.72 3.87,-3.86 6.55,-4.1 z"
       id="path4"
       style="fill:#f4722b"
       inkscape:connector-curvature="0" />
    <path
       style="fill:#f5e5c1"
       d="m 411.35,28.55 c -2.05765,0.2487 -4.09938,1.79688 -5.95,2.65 -4.7,22.18 -12.61,43.52 -18.75,65.3 -2.18,6.2 -2.5,13.78 -8.4,17.8 -20.24,16.64 -37.2,37.18 -49.7,60.2 -25.5,11.88 -51.09,23.62 -76.85,35 3.26,7.78 8.89,14.15 13.85,20.85 11.18,14.76 23.17,28.85 35.15,42.95 1.98,2.48 4.37,5.05 4.25,8.45 1.92,30.6 10.68,60.85 26,87.45 3.04,5.44 7.25,10.53 7.95,16.95 1.3,9.92 0.03,19.96 0.85,29.9 1.7,21.4 3.89,42.72 5.65,64.1 0.22,3.3 1.09,7.07 4.45,8.55 2.96,0.12 5.69,-1.12 8.45,-2 22.8,-8.64 45.72,-17.03 68.5,-25.75 3.9,-1.42 8.06,-3.43 12.2,-1.55 22.7,7.96 46.81,11.9 70.85,11.3 17.72,0.1 34.99,-3.98 52.25,-7.2 22.26,6.98 43.91,15.84 65.95,23.5 10.9,3.62 21.37,8.98 32.95,10.2 2.98,-8.76 2.8,-18.1 3.4,-27.2 0.88,-24.76 3.2,-49.48 4.7,-74.2 0.36,-6.06 1.93,-12.16 5.45,-17.2 7.94,-12.06 14.33,-25.06 19.35,-38.6 4.16,-12.3 16.68,-18.3 26,-26.2 20.24,-15.84 35.91,-36.38 52.25,-56 -22.12,-20.1 -49.11,-33.59 -73.65,-50.35 -2.58,-1.68 -3.29,-4.86 -4.45,-7.5 -5.5,-14.9 -12.61,-29.28 -21.85,-42.2 -4.92,-6.14 -4.43,-14.45 -4.75,-21.85 -0.06,-15.46 -3.29,-30.67 -4.25,-46.05 -0.2,-14.4 -0.49,-28.8 -0.55,-43.2 -10.94,-0.3 -20.95,4.66 -30.95,8.4 -21.16,8 -42.5,15.63 -63.7,23.55 -27.06,-8.78 -55.8,-11.46 -84.1,-9.2 -5.6,-0.1 -10.22,-4.14 -15.2,-6.3 -18.26,-10.82 -36.13,-22.36 -54.15,-33.6 -0.76499,-0.615 -1.51813,-0.89063 -2.3,-0.95 -0.2932,-0.0223 -0.60605,-0.0355 -0.9,0 z m 7.55,17.9 c 15.62,10.58 31.95,20.12 47.15,31.3 9.12,6.36 19.46,10.94 28.1,18 2.52,2.74 3.51,7.9 0.05,10.4 -11.52,11.04 -26.65,17.23 -41.35,22.85 -18.16,6.24 -37.29,11.53 -56.65,10.25 -3.78,0.24 -5.62,-4.04 -5.9,-7.2 0.52,-4.12 2.03,-8.03 3.35,-11.95 8.62,-24.48 16.61,-49.17 25.25,-73.65 z m 231.8,19.3 c 2.12,30.18 4.33,60.32 6.45,90.5 -1.76,1.98 -3.49,3.97 -5.25,5.95 -16.48,-1.94 -31.24,-10.22 -45.1,-18.8 -15.1,-9.9 -29.61,-21.23 -40.85,-35.45 -2.02,-3.16 -5.81,-7.11 -2.85,-10.85 1.66,-3.88 6.25,-4.55 9.75,-5.95 26,-8.3 51.77,-17.4 77.85,-25.4 z M 523.9,97 c 11.76,14.72 23.99,29.02 35.55,43.9 6.3,11.22 12.99,24 10.15,37.3 -2.86,19.34 -19.16,34.57 -37.6,39.45 -26.84,8 -59.78,-4.03 -71.6,-30.25 -9.24,-19.16 -2.11,-43.7 14.75,-56.2 15.98,-11.76 32.69,-22.52 48.75,-34.2 z m -170.75,80.95 c 4.11938,0.0694 8.19501,3.51 8,7.95 2.44,22.36 -2.21,44.88 -9.05,66.1 -3.88,10.86 -7.82,22.02 -15,31.2 -3.04,4.8 -10.07,2.28 -12.55,-1.8 -17.62,-22.42 -35.28,-44.83 -52.8,-67.35 25.86,-11.56 51.59,-23.39 77.45,-34.95 1.23499,-0.82 2.57688,-1.17312 3.95,-1.15 z M 680.4,213.2 c 2.60608,0.13093 4.96032,1.81062 7.15,3.25 22.14,15.26 44.37,30.4 66.55,45.6 -0.86,7.28 -7.69,10.98 -12.55,15.5 -16.62,14.72 -33.26,29.45 -49.9,44.15 -2.88,3.24 -7.2,2.3 -11,1.9 -8.14,-14.52 -10.91,-31.27 -12.15,-47.65 -1.8,-17.6 -0.86,-35.56 3.1,-52.8 1.36,-3.48 1.69,-9.03 6.35,-9.55 0.45,-0.16 0.86347,-0.29352 1.3,-0.35 0.38195,-0.0494 0.7777,-0.0687 1.15,-0.05 z m -256.65,35.5 c 13.33472,0.0569 26.32,6.33499 35.35,16.1 20.48,21.4 22.77,58.57 3.15,81.25 -10.6,12.66 -28.38,19.44 -44.6,15.2 -11.72,-1.78 -21.03,-9.59 -29.65,-17.15 -11.66,-10.24 -24.18,-19.56 -35,-30.7 10.6,-14.88 21.24,-29.75 32.1,-44.45 9.02,-9.12 19.52,-18.64 32.9,-19.9 1.9075,-0.25501 3.84504,-0.35813 5.75,-0.35 z M 586,262.85 c 21.42,-0.38 40.64,16.69 44.8,37.35 3.74,19.46 6.58,39.1 10.1,58.6 -17.76,4.36 -35.44,8.92 -53.2,13.2 -13.28,1.7 -28.16,1.88 -39.5,-6.3 -16.52,-11.04 -23.68,-32.77 -19.7,-51.85 4.6,-27.28 29.1,-51.26 57.5,-51 z m -230.2,110.3 c 12.36,1.1 23.82,6.7 34.6,12.5 18.2,10.28 35.33,22.87 49.15,38.65 2.62,4.02 8.41,8.89 4.75,13.95 -1.4,2.86 -4.7,3.65 -7.4,4.75 -26.62,8.88 -53.29,17.72 -79.85,26.8 -2.14,-28.62 -4.48,-57.23 -6.5,-85.85 -0.94,-4.52 1.25,-8.66 5.25,-10.8 z m 298.8,9.95 c 0.16,11.66 -1.49,23.24 -1.25,34.9 0.26,21.44 -2.35,42.73 -2.15,64.15 -30.22,-10.68 -60.38,-21.63 -90.4,-32.85 -0.04,-3.64 -0.06,-7.28 -0.2,-10.9 12.38,-17.72 30.94,-29.81 49.5,-40.25 13.98,-7.1 28.54,-14.37 44.5,-15.05 z"
       id="path10"
       inkscape:connector-curvature="0" />
    <path
       d="m 310.26,596.98 c 143.7,-12.16 287.5,-23.26 431.24,-34.92 -7.74,14.62 -14.24,30.04 -23.08,44 -128.72,11.24 -257.6,21.3 -386.36,32.1 -7.34,-13.68 -14.4,-27.52 -21.8,-41.18 z"
       id="path30"
       inkscape:connector-curvature="0"
       style="fill:#f4722b" />
    <path
       d="M 340.78,655.06 C 463.58,644.5 586.5,634.96 709.36,625 c -4.2,8.58 -8.64,17.06 -12.96,25.6 -115.48,7.44 -231.04,13.98 -346.54,21.46 -3.06,-5.66 -6.06,-11.32 -9.08,-17 z"
       id="path32"
       inkscape:connector-curvature="0"
       style="fill:#f4722b" />
    <path
       d="m 663.9,676.74 c 89.46,-9.38 178.9,-18.88 268.36,-28.3 2.82,3.08 5.6,6.2 8.42,9.28 -7.16,49.28 -13.32,98.7 -19.96,148.04 -1.3,6.38 -0.12,14.38 -5.88,18.86 -8.28,7.22 -16.64,14.4 -25.3,21.2 -15.1,-3.76 -30.1,-7.92 -45.2,-11.66 5.72,-16.66 12.34,-33 18.02,-49.68 -6.28,-1.68 -12.56,-3.38 -18.82,-5.14 -6.56,16.68 -12.7,33.54 -19.2,50.24 -5.3,-1.68 -10.64,-3.26 -15.96,-4.88 6.76,-15.8 12.08,-32.16 17.08,-48.58 -5.64,-1.14 -11.22,-2.48 -16.88,-3.5 -4.98,16.36 -10.72,32.48 -16.06,48.74 -5.26,-1.72 -10.52,-3.4 -15.8,-5 4.1,-16.22 8.44,-32.38 12.54,-48.6 -6.06,-1.3 -12.1,-2.68 -18.16,-3.9 -4.38,15.84 -8.94,31.62 -13.16,47.5 -32.06,-7.5 -63.68,-17.18 -95.9,-23.84 -39.62,2.88 -79.28,5.54 -118.84,9.02 -0.56,-4.96 -1.12,-9.92 -1.76,-14.86 23.22,-11.62 46.54,-23.02 69.82,-34.48 2.1,-1.14 4.26,-2.24 6.02,-3.9 4.6,-11.38 5.24,-24.18 10.94,-35.12 6.52,-8.06 14.62,-14.68 21.68,-22.3 4.02,-3.82 7.86,-9.12 14,-9.14 z"
       id="path34"
       inkscape:connector-curvature="0"
       style="fill:#f5e5c1" />
    <path
       d="m 86.62,686.64 c 4.36,-0.78 8.82,-0.5 13.24,-0.46 84.1,1.8 168.16,4.52 252.26,6.54 6.24,-0.3 11.34,3.74 16.56,6.56 8.82,5.28 18.04,9.86 26.74,15.32 2.46,1.22 3.02,4.1 3.94,6.44 2.84,8.98 5.82,17.94 8.52,27 20.58,14 43.3,24.62 64.2,38.08 2.68,4.82 3.38,10.54 3.88,15.98 -1.5,2.96 -4.54,4.92 -7.86,4.88 -40.76,2.82 -81.56,5.3 -122.32,8.14 -6.78,0.42 -13.14,3.02 -19.48,5.26 -21.52,7.64 -43.12,15.08 -64.62,22.82 -5.26,-17.32 -10.68,-34.58 -15.84,-51.92 -6.56,2.14 -13.04,4.46 -19.46,6.92 5.4,17.36 10.64,34.78 16.2,52.1 -5,1.62 -10.02,3.2 -15.02,4.86 -5.7,-16.9 -12.6,-33.34 -18.76,-50.04 -5,2.34 -10,4.66 -15,6.96 5.04,16.56 11.1,32.84 14.78,49.78 -5.16,1.82 -10.3,3.66 -15.46,5.54 -5.78,-16.64 -10.82,-33.5 -16.46,-50.18 -7.94,2.86 -15.92,5.58 -23.88,8.34 6.24,16.4 12.1,32.96 18.4,49.36 -9.96,3.4 -19.76,7.36 -29.82,10.44 -2.94,1.02 -5.5,-1.54 -8,-2.64 -10.16,-6.3 -20.4,-12.5 -30.44,-18.98 C 96.52,809.08 89.7,754.46 83.14,699.8 c -0.2,-4.58 -1.88,-10.88 3.48,-13.16 z"
       id="path36"
       inkscape:connector-curvature="0"
       style="fill:#f5e5c1" />
    <path
       d="m 473.98,744.3 c 33.98,-2.14 68.06,-2.68 102,-5.44 0.44,5.14 0.86,10.28 1.38,15.42 -14.76,6.58 -28.88,14.8 -44.48,19.32 -3.08,1.32 -3.46,5.36 -3.16,8.32 0.58,8.52 1.18,17.04 1.8,25.56 13,-0.4 25.94,-1.72 38.94,-2.38 -0.22,6.94 -0.66,13.86 -1.3,20.76 -46.32,3.6 -92.56,8.1 -138.88,11.86 0.9,-6.68 -1.98,-17.52 6.72,-19.84 13.68,-1.06 27.44,-1.16 41.14,-1.6 2.32,-1.58 4.66,-3.14 7,-4.7 1.48,-11.88 2.56,-23.8 3.78,-35.7 -17.66,-9.22 -35.5,-18.1 -53.26,-27.12 1.34,-1.36 2.7,-2.68 4.08,-4 11.4,1.16 22.84,-0.14 34.24,-0.46 z"
       id="path38"
       inkscape:connector-curvature="0"
       style="fill:#f5e5c1" />
    <path
       d="m 380.92,848.9 c 84.3,-7.18 168.62,-14.58 253,-20.96 -0.06,3.34 -0.04,6.72 -0.34,10.08 -84.02,7.42 -168.16,13.94 -252.22,21.06 -0.14,-3.4 -0.3,-6.8 -0.44,-10.18 z"
       id="path40"
       inkscape:connector-curvature="0"
       style="fill:#f5e5c1" />
    <path
       d="m 656.48,839.62 c 38.42,15.38 76.48,31.66 114.8,47.3 7.74,3.2 15.72,6.44 22.14,11.98 3.64,5.76 6.56,12.32 7.78,19.04 -0.94,11.08 -2.94,22.08 -4.6,33.1 -45.64,-7.86 -91.26,-15.72 -136.9,-23.56 -5.9,-1.1 -12,-1.58 -17.72,-3.44 -7.1,-5.52 -12.48,-12.96 -18.76,-19.36 1.54,-10.22 1.58,-20.62 3.32,-30.82 0.42,-3.32 3.18,-5.54 5.18,-7.98 8.24,-8.76 16.52,-17.48 24.76,-26.26 z"
       id="path42"
       inkscape:connector-curvature="0"
       style="fill:#f5e5c1" />
    <path
       d="m 385.9,865.18 c 83.14,-6.7 166.22,-14.08 249.38,-20.38 -3.12,12.62 -15.14,20.24 -20.18,31.88 -1.64,8.98 -1.56,18.18 -2.36,27.26 -0.22,5.3 -1.36,11.02 1.2,15.98 7.36,15.8 15.16,31.38 22.16,47.32 -22.98,-0.08 -45.94,-0.3 -68.92,-0.26 -4.62,-6.58 -9.68,-13.06 -16.12,-17.96 -6.66,-3.34 -13.84,-5.7 -21.1,-7.38 -9.36,-0.94 -18.7,0.78 -28.06,0.9 -13.2,0.38 -26.74,2.42 -38.38,9.02 -5.88,4.1 -8.2,11.26 -10.72,17.62 -21.78,3.24 -43.54,6.48 -65.34,9.64 -1.24,-17.66 11.98,-31.94 15.06,-48.74 0.38,-14.68 -0.14,-29.4 -0.78,-44.08 0.54,-9.82 -10.54,-14.02 -15.84,-20.82 z"
       id="path44"
       inkscape:connector-curvature="0"
       style="fill:#f5e5c1" />
    <path
       d="m 245.66,905.16 c 39.1,-13.96 78.2,-27.9 117.08,-42.38 10.14,7.52 20.08,15.32 30.08,23.04 -0.18,11.3 0.54,22.74 -1.42,33.94 -5.98,10.04 -14.24,18.52 -22.04,27.16 -48.8,5.48 -97.56,11.38 -146.36,16.8 0.72,-11.88 0.48,-23.88 2.18,-35.66 5.14,-8.72 9.82,-19.94 20.48,-22.9 z"
       id="path46"
       inkscape:connector-curvature="0"
       style="fill:#f5e5c1" />
    <path
       d="m 740.78,948.48 c 10.58,1.8 21.14,3.92 31.8,5.4 0.4,3.14 0.8,6.28 1.2,9.44 -9.98,0.18 -19.94,0.46 -29.92,0.48 -1,-5.12 -2.04,-10.24 -3.08,-15.32 z"
       id="path48"
       inkscape:connector-curvature="0"
       style="fill:#f5e5c1" />
    <path
       d="m 290.26,964.46 c 9.18,-1.32 17.3,4.1 24.84,8.52 -23.66,2.2 -47.4,3.58 -71.08,5.72 -8.54,0.92 -17.48,-0.06 -25.6,3.34 4.26,-5.54 11.52,-8.4 17.8,-11.16 17.94,-2.64 36.04,-4.18 54.04,-6.42 z"
       id="path50"
       inkscape:connector-curvature="0"
       style="fill:#f5e5c1" />
    <path
       d="m 718.18,971.54 c 26.6,-0.34 53.22,-0.44 79.82,-0.96 5.16,-0.84 8.94,3.16 12.82,5.82 -34.42,2.72 -68.9,4.48 -103.36,6.64 3.52,-3.88 7.14,-7.66 10.72,-11.5 z"
       id="path52"
       inkscape:connector-curvature="0"
       style="fill:#f5e5c1" />
    <path
       d="m 387.5,987.7 c 21.3,-3.12 42.6,-6.26 63.9,-9.48 0.28,8.98 0.68,17.98 0.76,26.98 -20.84,1.58 -41.64,3.36 -62.5,4.58 -0.64,-7.38 -1.34,-14.74 -2.16,-22.08 z"
       id="path54"
       inkscape:connector-curvature="0"
       style="fill:#f5e5c1" />
    <path
       d="m 569.34,978.36 c 22.14,0.02 44.26,-1.02 66.4,-0.84 0.9,9.18 1.68,18.4 2.24,27.62 -22.84,-0.1 -45.68,-0.04 -68.52,-0.04 0.04,-8.92 0.08,-17.84 -0.12,-26.74 z"
       id="path56"
       inkscape:connector-curvature="0"
       style="fill:#f5e5c1" />
    <path
       d="m 212.6,986.38 c 38.4,-2.92 76.88,-4.98 115.32,-7.26 1.66,9.76 3.58,19.46 5.42,29.18 -40.52,1.12 -81.04,2.02 -121.56,3.04 -0.08,-8.32 -0.1,-16.68 0.82,-24.96 z"
       id="path58"
       inkscape:connector-curvature="0"
       style="fill:#f5e5c1" />
    <path
       d="m 702.52,991.72 c 36.76,-2.64 73.5,-5.32 110.22,-8.32 2.02,7.16 3.94,14.36 5.92,21.54 -39,1.26 -78.04,1.96 -117.06,2.5 0.12,-5.26 0.4,-10.5 0.92,-15.72 z"
       id="path60"
       inkscape:connector-curvature="0"
       style="fill:#f5e5c1" />
  </g>
</svg>
