<?xml version="1.0" encoding="UTF-8" standalone="no"?>
<svg
   xmlns:dc="http://purl.org/dc/elements/1.1/"
   xmlns:cc="http://creativecommons.org/ns#"
   xmlns:rdf="http://www.w3.org/1999/02/22-rdf-syntax-ns#"
   xmlns:svg="http://www.w3.org/2000/svg"
   xmlns="http://www.w3.org/2000/svg"
   xmlns:sodipodi="http://sodipodi.sourceforge.net/DTD/sodipodi-0.dtd"
   xmlns:inkscape="http://www.inkscape.org/namespaces/inkscape"
   width="1280"
   height="1280"
   viewBox="0 0 1024 1024"
   version="1.1"
   id="svg2"
   inkscape:version="0.48.1 "
   sodipodi:docname="kill_engi_sentry_dispenser.svg">
  <metadata
     id="metadata74">
    <rdf:RDF>
      <cc:Work
         rdf:about="">
        <dc:format>image/svg+xml</dc:format>
        <dc:type
           rdf:resource="http://purl.org/dc/dcmitype/StillImage" />
      </cc:Work>
    </rdf:RDF>
  </metadata>
  <defs
     id="defs72" />
  <sodipodi:namedview
     pagecolor="#ffffff"
     bordercolor="#666666"
     borderopacity="1"
     objecttolerance="10"
     gridtolerance="10"
     guidetolerance="10"
     inkscape:pageopacity="0"
     inkscape:pageshadow="2"
     inkscape:window-width="1920"
     inkscape:window-height="1018"
     id="namedview70"
     showgrid="false"
     inkscape:snap-page="true"
     fit-margin-top="0"
     fit-margin-left="0"
     fit-margin-right="0"
     fit-margin-bottom="0"
     inkscape:zoom="0.6609375"
     inkscape:cx="640"
     inkscape:cy="640"
     inkscape:window-x="-8"
     inkscape:window-y="-8"
     inkscape:window-maximized="1"
     inkscape:current-layer="svg2" />
  <rect
     style="fill:#3e3e3e;fill-opacity:1;fill-rule:nonzero;stroke:none"
     id="rect3052"
     width="1024"
     height="1024"
     x="0"
     y="0" />
  <path
     d="M 28.16,0 51.8,0 C 41.68,10.6 34.18,23.74 30.56,37.96 c -4.84,20.4 -1.58,42.42 8.58,60.74 16.18,30 45.26,51.04 76.28,63.78 41.74,16.74 89.24,20.3 132.54,7.46 21.48,-6.2 41.22,-17.54 57.72,-32.56 9.6,6.46 19.22,12.9 28.82,19.36 -31.8,47.18 -87.94,75.98 -144.58,76.64 -37.84,1.06 -76,-10.5 -106.74,-32.64 C 48.62,176.1 23.82,137.94 16.58,96 10.4,63.8 14.98,29.92 28.16,0 z"
     id="path6"
     inkscape:connector-curvature="0"
     style="fill:#f4722b" />
  <path
     d="m 755.06,0 58.08,0 c 14.72,26.14 17.66,58.32 9.28,87 -7.1,24.84 -22.7,46.84 -43,62.68 -8.18,6.28 -17.02,12.54 -27.46,14.14 -9.92,1.58 -19.92,2.6 -29.92,3.5 -10.74,1.02 -20.58,-4.16 -30.62,-7.06 -14.66,-4.34 -27.86,-12.22 -41.16,-19.56 34.3,3.04 70.88,-2.3 99.32,-22.86 18.98,-13.64 33.48,-35.68 32.16,-59.8 C 782.56,35.62 770.1,15.56 755.06,0 z"
     id="path8"
     inkscape:connector-curvature="0"
     style="fill:#f4722b" />
  <path
     d="M 983.94,69.88 C 998.04,54.3 1011.8,38.3 1024,21.16 l 0,89.34 c -11.98,9.32 -25.66,16.16 -39.58,22.04 0.92,19.62 2.74,39.68 -2.14,58.96 -9.32,40.34 -37.1,75.48 -73.44,95.02 -36.24,19.8 -80.48,24.36 -119.96,12.3 -7.1,-2 -13.36,-6.08 -18.76,-10.98 -13.46,-12.12 -27.32,-23.76 -40.78,-35.9 47.44,17.26 101.98,18.76 148.38,-2.58 26.82,-12.18 50.74,-34.26 58.88,-63.28 6.46,-22.12 1.8,-45.92 -8.8,-65.98 21.18,-13.78 39.68,-31.12 56.14,-50.22 z"
     id="path10"
     inkscape:connector-curvature="0"
     style="fill:#f4722b" />
  <path
     d="m 449.24,55.9 c 1.68,10.64 2.8,21.48 1.56,32.24 -3.92,20.62 -16.92,39.6 -35.76,49.3 -25.78,14.04 -59.54,10.18 -81.64,-9.12 30.4,3.4 63.5,0.8 88.96,-17.8 17.54,-12.08 28.82,-33.1 26.88,-54.62 z"
     id="path12"
     inkscape:connector-curvature="0"
     style="fill:#f4722b" />
  <path
     d="m 413.94,153.5 c 15.66,-5.06 29.22,-14.66 44.14,-21.38 1.54,18.14 12.14,34.36 26.24,45.4 27.74,21.92 65.6,28.68 99.84,21.58 24.02,-5.14 47.46,-20.62 55.28,-44.9 14.42,8.76 28.54,18.04 43.24,26.34 -30.72,50.98 -94.58,77.94 -152.82,68.3 C 477.76,241.36 430.3,204 413.94,153.5 z"
     id="path14"
     inkscape:connector-curvature="0"
     style="fill:#f4722b" />
  <path
     d="m 0,213.26 c 8.08,11.88 18.52,21.88 29.22,31.38 5.92,4.9 8,12.56 11.24,19.2 6.86,14.78 18.64,26.42 30.22,37.58 29.2,28.96 73.16,39.74 113.18,33.6 24.6,-2.7 49.44,-8.96 70.18,-22.98 21.54,-14.8 38.8,-35.3 52.62,-57.32 35.16,34.58 91.28,44.88 136.98,27.12 4.56,-2 9.54,-1.22 14.02,0.6 40.06,15.08 83.72,20.06 126.22,15.38 42.7,-5.08 85.52,-20.94 116.58,-51.52 10.66,8.96 21.12,18.18 31.52,27.46 -24.44,27.86 -58.94,46.58 -95.72,51.42 -39.32,5.9 -77.88,-6.92 -116.52,-11.96 -13.76,-1.72 -27.72,-5.74 -41.56,-2.44 -14.76,3.06 -29.42,6.68 -44.26,9.3 -16.6,2.92 -32.9,8.42 -49.9,8.52 -20.48,-0.8 -41,-5.78 -58.88,-16.02 -8.38,-4.94 -17.34,-8.78 -26.66,-11.58 -26.18,46.8 -78.84,77.5 -132.54,76.48 -39.92,1.4 -80.04,-14.9 -108,-43.38 C 37.04,313.42 23.74,285.86 18.74,257.02 12.48,253.1 6.04,249.46 0,245.2 l 0,-31.94 z"
     id="path16"
     inkscape:connector-curvature="0"
     style="fill:#f4722b" />
  <path
     d="m 487.04,326.32 c 8.24,-0.2 16.42,0.78 24.46,2.46 10.38,1.6 20.86,2.58 31.16,4.7 -1.76,53.68 -1.42,107.4 -1.82,161.12 -7.62,4.3 -14.74,9.42 -22.12,14.12 -13.92,-2.44 -27.9,-5.26 -42.08,-5.7 3.74,-58.9 5.66,-117.88 10.4,-176.7 z"
     id="path18"
     inkscape:connector-curvature="0"
     style="fill:#f4722b" />
  <path
     d="m 456.6,333.12 c 8.82,-2.04 17.66,-3.96 26.58,-5.42 -2.28,17.36 -1.48,34.92 -3.5,52.3 -1.68,41.5 -4.5,82.9 -6.8,124.36 -7.14,2.76 -14.26,5.54 -21.54,7.94 1.7,-24.08 1.06,-48.24 2.14,-72.34 1.66,-25.96 0.82,-52.02 2.46,-77.98 0.7,-9.62 0.56,-19.24 0.66,-28.86 z"
     id="path20"
     inkscape:connector-curvature="0"
     style="fill:#f4722b" />
  <path
     d="m 431.54,338.98 c 4.44,-1.2 8.92,-2.34 13.4,-3.4 -1.46,36.1 -1.48,72.26 -3.38,108.36 -0.14,24.54 -0.74,49.08 -2.24,73.58 -5.46,-0.04 -10.92,-0.1 -16.38,-0.18 2.06,-38.42 3.74,-76.86 6.06,-115.26 0.36,-21.06 2.86,-42.02 2.54,-63.1 z"
     id="path22"
     inkscape:connector-curvature="0"
     style="fill:#f4722b" />
  <path
     d="m 568.9,338.48 c 6.02,1.12 12.04,2.32 17.9,4.14 -2.28,15.06 -1.2,30.32 -1.68,45.5 -0.7,33.54 0.38,67.12 -1.96,100.6 -6.26,0.84 -12.48,1.78 -18.74,2.64 0.5,-19.14 0.36,-38.28 1.16,-57.42 2.02,-22.96 0.76,-46.06 2.2,-69.04 0.78,-8.78 0.92,-17.6 1.12,-26.42 z"
     id="path24"
     inkscape:connector-curvature="0"
     style="fill:#f4722b" />
  <path
     d="m 539.56,523.48 c 5.46,-4.12 11.04,-9.86 18.48,-8.94 43.96,0.26 87.94,-0.2 131.88,0.24 7.06,3.18 14.82,9.14 16.04,17.4 6.86,31.96 15.34,63.62 21.64,95.68 -2.92,5.22 -6.22,13.3 -13.52,12.36 -61.28,0 -122.58,-0.1 -183.88,0.06 -2.78,-5.06 -8.58,-9.72 -7.06,-16.06 4.46,-30.82 8.42,-61.7 12.58,-92.54 0.46,-3.06 0.84,-6.52 3.84,-8.2 z"
     id="path26"
     inkscape:connector-curvature="0"
     style="fill:#f5e5c1" />
  <path
     d="m 466.88,526.78 c 20,0.26 40,0.16 60,0.28 -4.58,35.18 -8.4,70.46 -13.26,105.6 -4.6,-0.14 -9.2,0.06 -13.74,-0.68 -4.32,-2.38 -6.16,-7.36 -7.74,-11.74 -4.42,-13.18 -8.78,-26.38 -13.2,-39.56 -1.36,-4.36 -3.72,-8.28 -6.24,-12.04 -1.48,0.14 -4.44,0.38 -5.92,0.5 0.16,-14.12 0.14,-28.24 0.1,-42.36 z"
     id="path28"
     inkscape:connector-curvature="0"
     style="fill:#f5e5c1" />
  <path
     d="m 381.42,543.32 c 4.22,-4.06 7.84,-10.92 14.72,-9.76 20.58,0.4 41.2,-0.46 61.76,0.94 -0.38,12.04 -0.8,24.1 -2.2,36.08 -7.7,0.74 -15.48,1.2 -23.08,2.68 -4.72,16.46 -7.32,33.5 -11.7,50.08 -11.8,-0.46 -23.66,0.66 -35.4,-0.5 -4.26,-2.78 -3.74,-8.36 -4,-12.76 -0.06,-22.26 0.2,-44.5 -0.1,-66.76 z"
     id="path30"
     inkscape:connector-curvature="0"
     style="fill:#f5e5c1" />
  <path
     d="m 338.28,565.34 c 11.74,-0.2 23.48,-0.1 35.24,-0.14 -0.04,14.72 -0.08,29.44 0.02,44.16 -17.58,-0.04 -35.14,0.02 -52.7,-0.04 -1.94,-1.7 -3.9,-3.38 -5.84,-5.06 0.06,-11.48 0.1,-22.94 0.06,-34.4 0.88,-0.88 2.66,-2.68 3.56,-3.56 2.72,-0.06 5.46,-0.12 8.18,-0.14 0,9.06 -0.12,18.1 0.14,27.16 3.58,-0.1 7.18,-0.24 10.78,-0.42 0.56,-9.18 0.6,-18.38 0.56,-27.56 z"
     id="path32"
     inkscape:connector-curvature="0"
     style="fill:#f5e5c1" />
  <path
     style="fill:#f5e5c1"
     d="m 469,577.1 c -10.48,0.02 -20.94,0.08 -31.4,0.2 -6.04,29.18 -11.85,58.41 -18.15,87.55 23.34,0.02 46.69,0.06 70.05,-0.1 -7.14,-29.14 -12.34,-58.77 -20.5,-87.65 z m -15.7,23.05 c 3.7675,-0.13501 7.51,0.21 11.05,1.2 4.94,5.62 9.28,11.83 13,18.35 -2.38,6.98 -5.46,13.86 -9.6,20 -8.1,1.92 -16.54,1.01 -24.8,1.35 -4.16,-6.44 -7.03,-13.57 -9.65,-20.75 2.9,-6.2 5.26,-12.73 8.9,-18.55 3.55,-0.87 7.3325,-1.46499 11.1,-1.6 z"
     id="path34"
     inkscape:connector-curvature="0" />
  <path
     d="m 442.02,621.84 c 2.94,-6.16 6.02,-12.26 9.46,-18.16 1.76,-0.02 5.3,-0.02 7.08,-0.04 3.4,5.44 6.66,10.98 9.88,16.52 -2.64,3.54 -5.3,7.08 -7.96,10.62 -5.06,-0.18 -10.14,-0.26 -15.2,-0.32 -1.12,-2.88 -2.18,-5.76 -3.26,-8.62 z"
     id="path38"
     inkscape:connector-curvature="0"
     style="fill:#f5e5c1" />
  <path
     d="m 499.56,641.74 c 8.06,-0.44 16.12,-0.86 24.18,-1.06 3.6,5.12 9.36,6.62 15.28,6.84 -0.04,10.52 -0.12,21.06 -0.14,31.6 -13.9,-8.3 -28,-16.24 -41.88,-24.58 0.86,-4.28 1.72,-8.54 2.56,-12.8 z"
     id="path40"
     inkscape:connector-curvature="0"
     style="fill:#f4722b" />
  <path
     d="m 566.48,647.72 c 26.54,-1.02 53.12,-1.24 79.66,-2.14 -0.88,4.84 0.56,11.14 -4.06,14.4 -5.26,4.24 -10.46,10.54 -17.96,9.52 -9.7,-0.38 -19.44,-0.28 -29.1,-1.3 -8.68,-2 -16.82,-5.78 -25.36,-8.22 -1.06,-4.1 -2.24,-8.16 -3.18,-12.26 z"
     id="path42"
     inkscape:connector-curvature="0"
     style="fill:#f5e5c1" />
  <path
     d="m 493.62,686.44 c 2.16,-7 4.18,-14.02 6.12,-21.08 14.26,9.36 28.5,18.74 42.78,28.06 1.7,1.44 4.24,2.36 5.06,4.6 -1.88,4.34 -5.48,7.7 -7.24,12.12 -1.16,4.4 -1,9.02 -1.58,13.54 -15.34,-12.04 -30.58,-24.28 -45.14,-37.24 z"
     id="path44"
     inkscape:connector-curvature="0"
     style="fill:#f5e5c1" />
  <path
     d="m 563.08,695.84 c 4.38,-9.42 8.7,-18.9 12.98,-28.38 10.94,4.82 22.66,7.36 34.64,7.08 -10.72,10.04 -21.3,20.24 -31.76,30.58 -4.28,-4.62 -9.84,-7.62 -15.86,-9.28 z"
     id="path46"
     inkscape:connector-curvature="0"
     style="fill:#f5e5c1" />
  <path
     d="m 458.32,674.78 c 9.04,-0.76 18.16,-0.06 27.22,-0.5 -0.38,9.52 0.68,19.1 -0.5,28.58 -13.08,10.62 -30.92,6.08 -44.44,-1.16 0.48,-5.34 -0.84,-11.58 3.06,-15.94 4.1,-4.5 8.84,-8.92 14.66,-10.98 z"
     id="path48"
     inkscape:connector-curvature="0"
     style="fill:#f5e5c1" />
  <path
     d="m 413.28,712.5 c -0.42,-9.8 0.44,-19.56 1.76,-29.24 3.34,-0.24 6.7,-0.48 10.08,-0.7 -0.44,11.12 -5,21.32 -11.84,29.94 z"
     id="path50"
     inkscape:connector-curvature="0"
     style="fill:#f4722b" />
  <path
     d="m 554.64,702.76 c 10.24,-4.34 25.34,5.22 22.12,17.18 -1.6,10.6 -14.76,16.9 -24.04,11.34 -11.28,-5.74 -10.58,-24.52 1.92,-28.52 z"
     id="path52"
     inkscape:connector-curvature="0"
     style="fill:#f5e5c1" />
  <path
     d="m 424.04,718.06 c 3.08,-5.98 10.7,-6.34 16.16,-9.02 19.72,8.58 39.34,17.42 59.06,26.02 7.44,3.18 15.22,8.06 17.3,16.48 3.5,11.26 -5.5,21.44 -4.5,32.54 2.48,7.82 6.42,15.52 12.44,21.2 30.34,25.06 60.12,50.78 90.22,76.12 13.82,11.94 28.36,23.12 40.92,36.44 -1.82,3.66 -3.62,7.32 -5.42,11 -5.52,-1.18 -11.2,-2.12 -16.16,-5 -51.52,-28.46 -103.02,-56.96 -154.56,-85.4 -6.82,-4.36 -13.58,-10.28 -16.06,-18.24 0.78,-11.82 10.12,-21.02 19.62,-27.06 13.76,-8.98 16.76,-32.9 2.06,-42.4 -10.22,-8.24 -26.34,-6.26 -34.28,4.22 -5.2,5.1 -5.72,12.7 -5.64,19.58 -10.46,7.22 -21.08,14.18 -31.58,21.36 -9.12,-9.52 -11.42,-23.08 -10.8,-35.78 0.9,-5.44 3.98,-10.14 6.52,-14.9 5.2,-8.9 9.6,-18.22 14.7,-27.16 z"
     id="path54"
     inkscape:connector-curvature="0"
     style="fill:#f5e5c1" />
  <path
     d="m 487.62,715.9 c 2.22,-2.34 4.4,-4.7 6.82,-6.84 7.28,2.08 13.22,7.26 19.9,10.68 7.62,4.78 16.26,8.22 22.98,14.24 0.78,20.12 -0.12,40.32 -0.52,60.46 -2.76,-2.32 -5.5,-4.66 -8.24,-6.96 0,-11.2 0.66,-22.38 1.92,-33.5 1.24,-7.1 -2.32,-14.32 -7.86,-18.68 -10.42,-8.52 -23.26,-13.1 -35,-19.4 z"
     id="path56"
     inkscape:connector-curvature="0"
     style="fill:#f4722b" />
  <path
     d="m 556.72,741.44 c 7.7,-0.52 15.24,-2.16 22.56,-4.54 -0.34,29.58 -0.6,59.16 -0.72,88.74 23.84,-4.22 48.3,-1.3 71.52,4.84 18.1,6.9 35.6,16.56 49.14,30.62 14.48,-7.28 31.36,-10.7 47.24,-6.16 9.26,2.02 16.52,8.62 25.36,11.56 8.3,-1.38 16.2,-4.48 24.14,-7.16 6.42,-2.02 10.4,-7.84 14.94,-12.4 28.54,-31.06 77.3,-40.6 115.66,-23.22 29.26,12.62 51.8,40.44 56.4,72.2 3.4,19.08 -0.3,38.92 -8.52,56.32 17.24,-4.04 36.24,-0.72 49.56,11.42 l 0,60.34 -1024,0 0,-46.96 c 3,-8.12 5.94,-16.62 11.78,-23.2 7.24,-8.6 18.28,-12.54 29.16,-13.9 -0.44,-11.2 -1,-22.48 0.5,-33.62 3.84,-26.12 16.98,-50.58 36.04,-68.76 23.86,-23.06 57.14,-36.46 90.42,-35.24 29.3,-0.94 58.62,9.92 80.76,29.02 2.6,1.7 5.26,4.98 8.76,3.68 8.22,-2.22 16.12,-5.8 24.66,-6.86 22.2,-3.14 45.08,5.78 60.52,21.8 6.92,-3.98 13.82,-7.96 20.72,-11.96 -10,7.7 -17.82,17.94 -28.1,25.24 -5.38,0.52 -10.54,-1.74 -15.74,-2.78 -14.2,-3.66 -29.32,-3.78 -43.44,0.32 -5.32,1.4 -10.38,3.8 -15.9,4.36 -8.4,-0.84 -16.14,-4.68 -24.42,-6.26 -36.02,-7.92 -75.52,-5.12 -108.12,13.04 -18.08,10.06 -34.08,26 -40.02,46.22 -1.88,11.92 -0.3,24.12 1.46,35.98 1.6,11.12 7.24,21 11.56,31.22 1.06,0.16 3.18,0.5 4.24,0.68 3.44,-13.92 7.44,-27.92 14.86,-40.3 18.34,-32.26 51.72,-55.08 88.2,-61.36 30.12,-5.4 61.8,0.1 88.34,15.36 -7.66,7.82 -15.68,15.3 -23.92,22.48 -7.3,6.54 -14.86,13.92 -17.3,23.74 -2.8,13.02 3.04,26.12 10.74,36.32 5.32,6.76 14.48,7.16 22.34,7.96 19.94,1.3 39.82,3.26 59.74,4.92 6.5,0.16 14.34,1.22 19.28,-4.08 5.5,-6.28 7.42,-14.98 7.92,-23.1 0.56,-9.48 -5.7,-17.14 -11.22,-24.14 20.6,-13 40.86,-26.56 61.76,-39.1 5.86,3.66 11.32,8.38 18.02,10.44 7.12,-3.06 13.08,-8.18 19.9,-11.78 17.48,-9.58 35.8,-17.82 55.02,-23.22 4.42,-1.72 8.8,0.26 12.68,2.38 30.74,17.36 61.64,34.48 92.44,51.76 6.68,3.94 14.08,6.84 20.02,11.9 4.72,7.62 6.14,16.72 9.2,25.06 2.36,6.54 4.36,14.68 11.48,17.64 12.14,5.36 24.9,9.1 37.28,13.86 8.36,3.02 17.52,6.8 26.46,3.74 8.78,-3.14 11.9,-12.7 15.92,-20.2 3.94,-8.62 9.9,-16.74 10.82,-26.38 -1.98,-11.96 -11.06,-21.86 -21.56,-27.38 -13.86,-7.4 -27.08,-16.32 -42.16,-21.06 -11.72,-4.34 -25.18,-5.38 -35.04,-13.72 -9.96,-8.44 -19.7,-17.14 -29.76,-25.44 47.2,5.36 91.7,26.3 128.48,55.98 12.64,-16.22 29.3,-29.54 48.9,-36.2 31.34,-10.88 68.22,-6.74 95.04,13.34 22.16,16.06 36.28,41.74 38.76,68.94 4.92,-3.98 10.6,-7.48 13.7,-13.2 8.1,-14.86 8.46,-33.38 2.12,-48.94 -5.46,-13.8 -16,-25.02 -27.92,-33.58 -26.44,-18.32 -60.44,-23.88 -91.74,-17.92 -21.2,4.22 -41.16,16.02 -52.62,34.68 C 753.94,863.54 702.4,855.58 667.42,878.92 654.08,866.8 637.9,857.54 620.12,853.96 611.86,852 602.34,852.4 595.88,846 582.3,834.04 568.46,822.4 555.12,810.18 c 0.5,-22.92 0.8,-45.82 1.6,-68.74 z"
     id="path58"
     inkscape:connector-curvature="0"
     style="fill:#f4722b" />
  <path
     d="m 367.86,775.66 c 4.82,-10.26 13.5,-17.78 21.7,-25.28 -4.74,9 -2.96,19.54 -0.24,28.86 2.68,8.98 5.34,17.98 7.66,27.06 -9.68,8.74 -19.16,17.68 -28.42,26.84 -0.68,-0.08 -2.06,-0.22 -2.76,-0.3 -6.96,-18.28 -7.56,-39.72 2.06,-57.18 z"
     id="path60"
     inkscape:connector-curvature="0"
     style="fill:#f4722b" />
  <path
     d="m 462.74,754.68 c 10.64,-5.62 25.12,3.2 24.88,15.22 1.06,10.56 -9.38,19.9 -19.7,18.3 -7.94,-1.12 -14.98,-7.94 -15.24,-16.12 -0.82,-7.2 3.52,-14.42 10.06,-17.4 z"
     id="path62"
     inkscape:connector-curvature="0"
     style="fill:#f5e5c1" />
  <path
     d="m 448.52,782.48 c 3.84,5.54 9.34,9.4 14.82,13.14 -0.42,4.68 -2.06,9.18 -4.86,12.98 -18.28,26.4 -35.78,53.36 -54.74,79.32 -2.18,3.06 -4.84,5.78 -7.98,7.88 -14.9,10.32 -29.5,21.04 -44.2,31.62 -14.1,8.22 -30.84,8.64 -46.7,7.96 3.58,-9.32 4.08,-20.16 9.9,-28.4 42.6,-39.46 85.46,-78.68 128.16,-118.04 2,-2.04 3.86,-4.2 5.6,-6.46 z"
     id="path64"
     inkscape:connector-curvature="0"
     style="fill:#f5e5c1" />
  <path
     d="m 664.7,919.68 c 18.66,12.14 37.12,24.58 55.72,36.82 -1.06,8.24 -1.76,16.52 -3.24,24.7 -9.08,0.18 -18.16,1.02 -27.22,0.68 -4.68,-2.48 -6.88,-7.92 -10.14,-11.9 -7.66,-11.54 -16.82,-22.14 -23.68,-34.16 2.14,-5.74 5.64,-10.82 8.56,-16.14 z"
     id="path66"
     inkscape:connector-curvature="0"
     style="fill:#f5e5c1" />
  <path
     d="m 278.96,961.18 c 5.26,-5.28 11.4,-9.6 16.94,-14.54 15.14,0.8 30.44,0.1 45.44,2.46 5.62,2.56 10.1,7.02 15.06,10.64 -0.02,4.58 -0.02,9.16 0,13.76 -26.04,0 -52.08,-0.04 -78.1,-0.06 0.16,-4.08 -0.26,-8.28 0.66,-12.26 z"
     id="path68"
     inkscape:connector-curvature="0"
     style="fill:#f5e5c1" />
</svg>
