<?xml version="1.0" encoding="UTF-8" standalone="no"?>
<svg
   xmlns:dc="http://purl.org/dc/elements/1.1/"
   xmlns:cc="http://creativecommons.org/ns#"
   xmlns:rdf="http://www.w3.org/1999/02/22-rdf-syntax-ns#"
   xmlns:svg="http://www.w3.org/2000/svg"
   xmlns="http://www.w3.org/2000/svg"
   xmlns:sodipodi="http://sodipodi.sourceforge.net/DTD/sodipodi-0.dtd"
   xmlns:inkscape="http://www.inkscape.org/namespaces/inkscape"
   width="1280"
   height="1280"
   viewBox="0 0 1024 1024"
   version="1.1"
   id="svg2"
   inkscape:version="0.48.1 "
   sodipodi:docname="kill_two_during_stickyjump.svg">
  <metadata
     id="metadata48">
    <rdf:RDF>
      <cc:Work
         rdf:about="">
        <dc:format>image/svg+xml</dc:format>
        <dc:type
           rdf:resource="http://purl.org/dc/dcmitype/StillImage" />
      </cc:Work>
    </rdf:RDF>
  </metadata>
  <defs
     id="defs46" />
  <sodipodi:namedview
     pagecolor="#ffffff"
     bordercolor="#666666"
     borderopacity="1"
     objecttolerance="10"
     gridtolerance="10"
     guidetolerance="10"
     inkscape:pageopacity="0"
     inkscape:pageshadow="2"
     inkscape:window-width="1920"
     inkscape:window-height="1018"
     id="namedview44"
     showgrid="false"
     inkscape:snap-page="true"
     fit-margin-top="0"
     fit-margin-left="0"
     fit-margin-right="0"
     fit-margin-bottom="0"
     inkscape:zoom="0.6609375"
     inkscape:cx="466.00473"
     inkscape:cy="640"
     inkscape:window-x="-8"
     inkscape:window-y="-8"
     inkscape:window-maximized="1"
     inkscape:current-layer="layer2" />
  <g
     inkscape:groupmode="layer"
     id="layer1"
     inkscape:label="background">
    <rect
       style="fill:#3e3e3e;fill-opacity:1;fill-rule:nonzero;stroke:none"
       id="rect3034"
       width="1024"
       height="1024"
       x="0"
       y="0" />
  </g>
  <g
     inkscape:groupmode="layer"
     id="layer2"
     inkscape:label="foreground">
    <path
       style="fill:#f5e5c1"
       d="m 705.95,3 c -1.7349,0.14537 -3.2975,1.1475 -4.05,3.3 -10.98,21.1 -20.9,42.73 -31.5,64.05 -1.52,3.74 -5.3,5.59 -8.5,7.65 -20.12,11.78 -37.64,27.8 -51.9,46.2 -21.16,4.14 -41.5,11.42 -62.3,16.9 -3.74,1.08 -7.64,1.88 -11,3.9 -3.9,1.66 -1.18,5.92 0.1,8.4 11.82,20.9 25.8,40.82 36,62.5 -2.98,31.62 1.23,64.25 13.85,93.55 3,6.62 1.73,14.01 0.45,20.85 -4.18,21.64 -3.86,43.74 -6.1,65.6 0.16,5.52 -1.9,11.65 0.9,16.75 3.18,1.78 6.87,0.55 10.25,0.15 23.2,-4.66 46.41,-9.51 69.65,-13.95 5.38,-1.66 9.81,2.57 14.45,4.55 31.88,15.58 68.41,21.96 103.65,17.4 3.92,-0.58 8.12,-0.45 11.3,2.25 20.54,14.96 43.82,25.42 65.7,38.2 3.62,2.08 10,5.76 12.2,0.1 7.36,-29.46 14.54,-58.95 21.8,-88.45 1.1,-3.98 1.09,-8.66 4.45,-11.6 9.1,-9.86 17,-20.8 23.6,-32.5 5.88,-11.16 18.87,-14.8 28.95,-21 18.42,-11.52 36.63,-23.48 54.85,-35.3 3.4,-1.74 5.23,-6.19 1.95,-9.05 -16.48,-15.68 -34.42,-29.72 -51.1,-45.2 -4.9,-4.98 -12.84,-8.35 -13.7,-16.05 -2.96,-15.16 -7.62,-29.99 -14.2,-43.95 -4.34,-8.4 -0.36,-17.88 0.7,-26.6 2.82,-23.36 3.67,-46.88 5.65,-70.3 0.22,-2.66 -2.24,-4.38 -3.5,-6.4 -15.48,3.42 -31.17,5.41 -46.65,8.75 -13.28,2.2 -26.42,6.08 -39.8,7.2 -17.72,-8.34 -36.34,-15.02 -55.8,-17.8 -7.84,-1.04 -16.08,-0.36 -23.6,-3 C 745.32,36.04 729.26,20.34 712.2,5.9 710.84,4.27 708.72499,3.1025 706.7,3 706.44688,2.9872 706.19784,2.9792 705.95,3 z m 5.35,17.05 c 20,18.26 40.2,36.27 60.1,54.65 3.02,2.14 2.12,6.14 2.6,9.3 -12.94,9.36 -28.69,13.54 -44.15,16.5 -15.58,3.06 -31.6,3.85 -47.4,2.25 -3.58,-0.76 -9.09,-1.05 -9.55,-5.65 -1.2,-2.92 0.58,-5.74 1.8,-8.3 12.32,-22.86 24.46,-45.81 36.6,-68.75 z M 919.7,71.5 c -1.6,26.96 -4.52,53.8 -6.8,80.7 0.16,4.36 -4.78,8.69 -9,6.95 -13.18,-4.48 -24.25,-13.49 -34.75,-22.35 -14.22,-13.32 -28.64,-27.76 -35.7,-46.3 1.32,-1.78 2.61,-3.57 3.95,-5.35 27.32,-5.16 54.96,-8.59 82.3,-13.65 z M 799.85,81.8 c 8.56,15.44 17.97,30.42 26.25,46 3.22,9.52 6.76,19.62 4.7,29.8 -2.54,13.48 -12.42,24.91 -24.7,30.65 -17.76,8.4 -39.69,6.27 -55.95,-4.55 -13.9,-8.92 -23.9,-24.88 -23.2,-41.7 0.18,-11.7 6.45,-22.5 14.75,-30.4 6.64,-5.68 14.75,-9.04 22.55,-12.8 11.86,-5.7 23.7,-11.4 35.6,-17 z m -169.6,48.45 c 0.26898,-0.0236 0.53581,-0.008 0.8,0 4.57926,0.14377 8.3725,4.90625 7.3,9.7 -2.3,25.76 -12.7,50.34 -26.5,72 -3.42,5.14 -7.1,10.35 -12.3,13.85 -3.6,0.64 -7.01,-1.5 -8.55,-4.7 -13.1,-23.06 -25.51,-46.55 -38.75,-69.55 25.16,-6.94 50.33,-13.82 75.55,-20.6 0.81843,-0.38812 1.64309,-0.62908 2.45,-0.7 z m 47.5,74.6 c 0.74277,-0.0164 1.49499,0.007 2.25,0.05 17.76,0.02 33.61,12.56 40.45,28.5 11.58,24.68 3.37,58.23 -21.15,71.75 -14.1,8.26 -32.21,6 -45.35,-3 -7.52,-5.88 -13.31,-13.54 -19.55,-20.7 -7.56,-9.12 -15.83,-17.69 -22.45,-27.55 12.1,-11.9 23.89,-24.08 36.05,-35.9 8.8125,-6.2625 18.6084,-12.90362 29.75,-13.15 z m 242.2,6.15 c 3.06,0.24 6.75,-0.8 9.15,1.8 19.98,18.12 38.85,37.48 58.95,55.5 -22.92,14.44 -45.69,29.01 -68.65,43.35 -2.94,2.52 -7.24,1.55 -9.9,-0.85 -5.86,-13.42 -4.81,-28.57 -4.35,-42.85 1.78,-19.54 4.9,-39.67 14.8,-56.95 z m -95.9,30.45 c 8.81976,0.008 17.64,2.63125 24.9,7.65 10.96,8.04 18.39,21.16 18.45,34.9 0.1,18.08 0.64,36.22 0,54.3 -24.14,-0.14 -48.77,7.72 -72.45,0.1 -15.66,-5.74 -25.77,-22.12 -26.05,-38.5 -0.88,-25.88 18.2,-50.71 43.3,-56.85 3.8625,-1.1 7.84101,-1.60363 11.85,-1.6 z m -218.45,67.1 c 18.88,6.52 34.46,19.72 48.4,33.6 10.06,10.8 20.16,22.23 25.4,36.25 -2.5,2.7 -4.96,5.98 -9,6.1 -25.92,4.26 -51.92,8.4 -77.8,12.9 2.16,-27.06 4.55,-54.09 6.75,-81.15 -0.02,-3.74 4.01,-5.34 6.25,-7.7 z m 267.45,52.85 c 3.91443,0.16443 6.59374,5.0375 5.75,8.6 -6.58,25.84 -14.76,51.32 -20.8,77.3 -0.82,0.02 -2.43,0.06 -3.25,0.1 -22.26,-13.34 -45.13,-25.67 -67.55,-38.75 -3.6,-1.44 -4.19,-5.41 -5.25,-8.65 12.02,-13.74 28.97,-21.57 45.55,-28.35 14.34,-5.26 29.33,-10.12 44.75,-10.2 0.27125,-0.0325 0.53904,-0.061 0.8,-0.05 z"
       id="path6"
       inkscape:connector-curvature="0" />
    <path
       d="m 566.4,96.4 c 4.86,-1.62 11.04,-3.84 15.6,-0.36 4.92,5.84 6.58,13.66 8.08,20.98 -20.02,5.74 -39.98,11.66 -60.02,17.26 -4.72,1.44 -10.46,2.84 -12.42,7.98 -2.16,4.02 0.6,8.28 2.5,11.78 12.04,19.94 24.28,39.8 35.54,60.18 1.92,10.82 -1.26,22.14 -5.48,32.18 -14.46,0.44 -29.24,-1.28 -43.3,3.02 -25.8,6.74 -52.2,11.46 -77.4,20.32 -10.64,3.98 -19.64,11.2 -30.02,15.76 -14.62,8.96 -28.78,19.04 -40.64,31.52 -6.34,6.28 -12.92,12.32 -19.5,18.34 -10.44,9.5 -17.88,21.84 -23.18,34.8 -7.3,17.62 -17.78,34.12 -21.54,53.04 -7.44,26.98 -14.96,53.94 -22.48,80.9 -1.76,6.56 -4.24,13.14 -3.88,20.06 0.18,5.34 5.6,8.1 9.56,10.6 6.3,0.94 11.32,-4.46 17.12,-6.14 33.7,-12.74 69.3,-20.1 105.04,-24.18 13.28,-1.96 26.78,-1.14 40.1,-3.04 86.3,-1.7 172.52,17.78 250.92,53.64 20.38,8.86 39.46,20.26 59.14,30.52 37.56,21.78 73.46,46.54 106.94,74.22 -12.2,27.56 -24.02,55.3 -36.06,82.92 -1.74,4.92 -6.92,6.82 -11,9.38 -20.48,11.46 -40.72,23.34 -61.08,35.06 -6.14,33.14 -11.44,66.44 -17.8,99.54 -6.48,1.64 -13.02,3.1 -19.56,4.48 -29.02,-61.08 -62.94,-120.22 -105.84,-172.68 -42.9,-51.3 -94.64,-97.4 -157.12,-123.1 -56.82,-24.64 -121.4,-30.52 -181.98,-18.42 0.76,-14.26 2.14,-28.98 -2.18,-42.86 -4.14,-15.4 -12.2,-29.68 -23.36,-41.08 -7.92,-9.96 -24.38,-9.3 -30.36,-21.04 2.38,-17.98 2.16,-36.32 7,-53.92 2.44,-20.82 10.52,-40.32 15.88,-60.46 3.28,-17.42 14.96,-31.3 23.58,-46.28 5.86,-10.1 13.26,-19.2 19.1,-29.32 12.68,-17.58 28.26,-32.82 43.86,-47.78 15.02,-11.74 30.18,-23.32 45.96,-34.04 10.82,-8.04 21.5,-16.36 33.34,-22.9 24.32,-20.26 53.24,-33.76 80.78,-48.92 28.12,-12.18 57.36,-21.58 86.16,-31.96 z"
       id="path14"
       inkscape:connector-curvature="0"
       style="fill:#f4722b" />
    <path
       d="m 114.02,353.78 c 1.78,9 -0.68,17.98 -0.98,26.98 -0.12,16.44 -2.52,32.74 -2.56,49.2 -2.12,15.88 -0.94,32 -3.5,47.84 0.82,-0.26 2.44,-0.8 3.24,-1.08 10.06,-20.44 21.36,-40.26 31.7,-60.56 -1.86,23.56 -3.86,47.14 -6.18,70.66 -10.26,2.7 -21.94,0.18 -31.16,6.1 -6.76,-2.86 -13.72,-5.16 -20.84,-6.88 -0.18,-0.48 -0.56,-1.44 -0.74,-1.92 5.02,-3.74 4.32,-10.92 6.08,-16.36 7.8,-34.54 14.74,-69.34 23.26,-103.66 0.64,-3.44 1.16,-6.88 1.68,-10.32 z"
       id="path26"
       inkscape:connector-curvature="0"
       style="fill:#f5e5c1" />
    <path
       d="m 0,441.5 c 11.72,22.22 23.92,44.18 35.64,66.4 14.44,-10.62 34,-14.4 50.9,-7.7 7.42,2.26 12.94,7.96 19.66,11.52 10.36,-5.14 20.12,-11.88 31.8,-13.82 16.24,-2.68 33.6,-2.78 49.08,3.5 23.18,8.9 41.76,28.78 49.04,52.52 6.92,22.52 4.12,47.7 -7.62,68.14 19.5,20.04 26.34,51.42 15.98,77.54 -4.94,14.08 -15.4,25.18 -26.88,34.32 19.64,28.52 39.54,56.9 58.66,85.78 -31.22,-17.98 -62.26,-36.3 -93.46,-54.36 -4.24,-2.32 -7.74,-5.76 -10.22,-9.92 -16.46,-26.18 -33.46,-52.02 -49.84,-78.24 -2.1,-2.28 2.1,-3.68 3.42,-4.82 25.24,-13.04 50.72,-25.64 75.9,-38.78 -20.72,-0.92 -41.38,2.06 -62.12,1.72 11.14,-30.48 22.14,-61.02 33.48,-91.44 -38.72,23.54 -76.6,48.5 -114.88,72.76 -0.56,-27.9 -1.66,-55.8 -2.3,-83.7 -13.92,21.3 -27.36,42.94 -42.2,63.62 C 12.04,592.4 9.76,588.26 9.3,583.6 6.34,554.7 3.72,525.74 0,496.9 l 0,-55.4 z"
       id="path30"
       inkscape:connector-curvature="0"
       style="fill:#f5e5c1" />
    <path
       d="m 824.28,527.98 c 31.2,38.3 61.86,77.04 92.98,115.4 -9.88,6.82 -19.24,14.32 -29.2,21 -21.08,-45.54 -43.04,-90.68 -63.78,-136.4 z"
       id="path32"
       inkscape:connector-curvature="0"
       style="fill:#f5e5c1" />
    <path
       d="m 988.06,537.72 c 10.9,35.72 19.68,72.12 29.82,108.08 -21.22,-2.86 -42.48,-5.36 -63.62,-8.64 11.76,-32.98 22.7,-66.24 33.8,-99.44 z"
       id="path34"
       inkscape:connector-curvature="0"
       style="fill:#f5e5c1" />
    <path
       d="m 254.54,641.18 c 6.04,-2.84 12.88,-1.42 19.32,-1.68 23.44,0.36 46.9,-0.74 70.3,0.56 -26.28,10.02 -52.6,20.04 -78.5,30.98 -4,-9.86 -6.94,-20.08 -11.12,-29.86 z"
       id="path36"
       inkscape:connector-curvature="0"
       style="fill:#f5e5c1" />
    <path
       d="m 865.18,709.56 c 17.08,-30.2 49.98,-50.8 84.7,-52.42 26.68,-1.7 53.8,7.36 74.12,24.72 l 0,109.6 c -15.72,-18.72 -31.88,-37.06 -47.66,-55.72 -8.38,-9.42 -15.96,-19.6 -25.2,-28.24 3.6,51.26 7.82,102.46 11.96,153.68 -35.72,-6.4 -70.88,-15.66 -106.38,-23.2 19.1,37.32 38.88,74.34 57.14,112.06 -44.22,5.66 -88.16,13.28 -132.26,19.78 19.36,17.86 38.18,36.32 57.54,54.18 l -198.26,0 c -2.02,-23.82 10.68,-48.02 31.62,-59.58 18.14,-10.56 41.66,-10.52 60.16,-0.84 -3.24,-13.66 -2.58,-28.46 3.34,-41.32 5.36,-12.74 15.66,-22.44 27.04,-29.84 -6.58,-30.74 -0.8,-64.22 16.96,-90.32 15.6,-23.08 41.12,-38.32 68.26,-43.62 5.18,-16.46 7.72,-34 16.92,-48.92 z"
       id="path38"
       inkscape:connector-curvature="0"
       style="fill:#f5e5c1" />
    <path
       d="m 501.8,840.5 c 48.96,31.04 97.44,62.88 146.24,94.16 -1.92,-19.12 -3.74,-38.3 -4.34,-57.5 19.4,20.08 38.56,40.38 58.34,60.1 -22.62,-3.92 -47.12,2.82 -63.36,19.32 -17.36,16.54 -24.26,42.7 -17.76,65.72 -47.96,-14.46 -95.6,-30.04 -143.8,-43.66 47.16,-1.54 94.38,0.1 141.56,-0.84 C 579.34,932.36 540.94,886.12 501.8,840.5 z"
       id="path42"
       inkscape:connector-curvature="0"
       style="fill:#f5e5c1" />
  </g>
</svg>
