<?xml version="1.0" encoding="UTF-8" standalone="no"?>
<svg
   xmlns:dc="http://purl.org/dc/elements/1.1/"
   xmlns:cc="http://creativecommons.org/ns#"
   xmlns:rdf="http://www.w3.org/1999/02/22-rdf-syntax-ns#"
   xmlns:svg="http://www.w3.org/2000/svg"
   xmlns="http://www.w3.org/2000/svg"
   xmlns:sodipodi="http://sodipodi.sourceforge.net/DTD/sodipodi-0.dtd"
   xmlns:inkscape="http://www.inkscape.org/namespaces/inkscape"
   width="1280"
   height="1280"
   viewBox="0 0 1024 1024"
   version="1.1"
   id="svg2"
   inkscape:version="0.48.1 "
   sodipodi:docname="melee_kill_while_stickyjumping.svg">
  <metadata
     id="metadata26">
    <rdf:RDF>
      <cc:Work
         rdf:about="">
        <dc:format>image/svg+xml</dc:format>
        <dc:type
           rdf:resource="http://purl.org/dc/dcmitype/StillImage" />
      </cc:Work>
    </rdf:RDF>
  </metadata>
  <defs
     id="defs24" />
  <sodipodi:namedview
     pagecolor="#ffffff"
     bordercolor="#666666"
     borderopacity="1"
     objecttolerance="10"
     gridtolerance="10"
     guidetolerance="10"
     inkscape:pageopacity="0"
     inkscape:pageshadow="2"
     inkscape:window-width="1920"
     inkscape:window-height="1018"
     id="namedview22"
     showgrid="false"
     inkscape:snap-page="true"
     fit-margin-top="0"
     fit-margin-left="0"
     fit-margin-right="0"
     fit-margin-bottom="0"
     inkscape:zoom="0.6609375"
     inkscape:cx="640"
     inkscape:cy="640"
     inkscape:window-x="-8"
     inkscape:window-y="-8"
     inkscape:window-maximized="1"
     inkscape:current-layer="svg2" />
  <rect
     style="fill:#3e3e3e;fill-opacity:1;fill-rule:nonzero;stroke:none"
     id="rect3004"
     width="1024"
     height="1024"
     x="0"
     y="0" />
  <path
     d="m 481.35,31.8 c -25.74,1.32 -50.76,9.85 -73.3,22.15 -10.7,7.84 -19.59,17.85 -29.75,26.35 -5.6,4.54 -10.28,10.18 -13.2,16.8 -4.5,9.6 -10.28,18.62 -13.7,28.7 -5.9,18.28 -11.06,36.89 -13,56.05 -2.68,12.12 -0.34,24.41 0.8,36.55 0.74,6.68 6.05,11.41 9.85,16.55 60.66,77.34 121.37,154.67 182.35,231.75 4.22,5.42 10.88,7.84 16.7,11.1 13.08,7.76 28.21,10.69 42.65,14.85 17,1.94 34.6,4.13 51.3,-0.75 16.22,-4.28 33.72,-4.77 48.7,-12.95 5.62,-2.6 12.71,-7.29 18.45,-2.35 38.12,30.58 76.06,61.4 114.1,92.1 6.54,4.88 6.48,14.26 12.6,19.5 5.42,5.24 11.04,10.3 16.7,15.3 6.7,6.94 17.38,4.62 25.5,8.6 4.5,2.52 8.32,5.99 12.6,8.85 6.52,4.92 15.39,5.51 23.15,4.05 12.34,-5.26 22.95,-13.75 33.85,-21.45 5.16,-3.94 10.75,-7.55 14.85,-12.65 12.14,-17.48 22.58,-36.46 28.4,-57 0.34,-13.64 2.24,-29.09 -6.4,-40.75 -4.9,-7.62 -13.41,-11.65 -19.45,-18.15 -4,-5.66 -4.88,-13.26 -10.1,-18.1 -6.12,-6.32 -14.55,-9.28 -21.65,-14.2 -44.54,-32.78 -87.78,-67.24 -130.7,-102.1 1.98,-13.48 5.41,-26.88 4.65,-40.6 -0.68,-15.72 1.78,-31.77 -2.5,-47.15 -3,-11.28 -3.74,-23.4 -9.9,-33.6 C 788.02,207.45 783.52,194.06 774,184 768.4,178.2 764.22,170.82 757.2,166.6 679.16,124.1 601.24,81.45 523.2,38.95 509.84,34.19 495.23,34.46 481.35,31.8 z m -122.5,134.5 c 4.41282,0.1622 8.7,1.84 11.4,5.65 53.88,60.56 107.41,121.49 161.45,181.95 -0.36,-13.72 5.3,-26.36 9.2,-39.2 2.24,-7.06 5.07,-14 9.65,-19.9 10,-13.38 18.3,-28.17 30.2,-40.05 15.44,-17.98 32.94,-34.27 52.3,-47.95 9.22,-7.36 20.34,-11.59 31.2,-15.85 27.72,-9.66 58.48,-11.29 86.6,-2.35 16.64,7.72 23.8,25.38 32.6,40.2 6.14,10.48 6.52,22.97 9.7,34.45 4.3,14.56 2.33,29.89 2.65,44.85 0.18,8.52 -2.8,17.57 -11.2,21.15 -8.2,-6.36 -15.59,-15.29 -26.55,-16.55 -12.48,-3.94 -24.95,1.93 -36.15,7.05 -13.48,7.98 -27.53,16.39 -36.25,29.85 -4.22,6.92 -9.01,13.98 -10.05,22.2 -0.68,6.68 -0.26,13.37 -0.1,20.05 4.86,2.4 9.48,5.25 13.7,8.65 6.74,5.44 14.5,9.47 20.8,15.45 11.64,11.36 25.48,19.97 38.1,30.15 28.64,22.76 57.26,45.59 86.3,67.85 12.22,-19.82 22.8,-41.54 41.6,-56.1 10.6,-6.94 21.6,-13.9 33.8,-17.6 4.4,1.8 7.88,5.09 11.7,7.85 -16.08,3.98 -30.95,11.67 -44.65,20.85 -6.4,4.14 -10.86,10.47 -15.9,16.05 -5.2,6.02 -10.45,12.63 -11.95,20.65 -1.38,7.5 -2.94,15.01 -3.4,22.65 0.24,7.64 1.71,15.25 3.15,22.75 10.04,-11.04 12.1,-26.98 21.7,-38.4 8.68,-10.1 15.41,-21.87 25.85,-30.35 15.46,-15.38 41.06,-22.77 61.2,-12.55 -0.36,3.4 -0.78,6.8 -1.2,10.2 -14.2,-6.34 -31.06,-5.31 -44.7,1.95 -9.48,4.54 -16.84,12.35 -24,19.85 -10.02,12.62 -19.71,26.38 -22.85,42.5 5.16,3.24 10.33,6.42 15.55,9.6 0.74,1.3 2.26,3.9 3,5.2 3.22,-5.32 6.21,-10.74 9.55,-16 10.62,-12.72 22.94,-23.9 35.4,-34.8 5.1,-4.76 12.51,-4.82 18.75,-7.3 7.52,-2.9 15.54,-4.18 23.6,-4.2 5.88,5.16 11.45,11.19 13.75,18.85 0.64,6.04 0.88,12.19 0.4,18.25 -4.68,16.5 -14.09,31.14 -23.65,45.2 -7.2,7.42 -14.8,14.73 -23.3,20.65 -10.74,4.6 -21.99,9.19 -33.85,9.15 l -3.85,2.5 c -6,-1.84 -11.56,-4.84 -16.5,-8.7 -6.2,-5 -14.22,-6.31 -21.7,-8.25 -7.4,-6.7 -14.91,-13.32 -21.95,-20.4 -4.4,-4.46 -6.08,-10.98 -11,-15 -35.48,-28.48 -70.81,-57.13 -106.25,-85.65 -5.72,-4.38 -10.84,-9.55 -17.1,-13.15 -15.78,4.02 -29.02,15.32 -45.4,17.6 -19.7,4.46 -40.28,7 -60.3,3.5 -16.18,-5.48 -33.33,-8.65 -48.25,-17.35 -6.16,-3.56 -13.53,-5.6 -18.25,-11.2 C 474.3,379.11 415.06,305.58 355.9,232 c -5.62,-6.52 -4.8,-15.68 -6.6,-23.6 -2.36,-11.16 -3.07,-22.73 -0.75,-33.95 1.32,-3 3.34,-5.79 5.9,-7.85 1.455,-0.25499 2.92906,-0.35406 4.4,-0.3 z"
     id="path6"
     style="fill:#f5e5c1"
     inkscape:connector-curvature="0" />
  <path
     d="m 643.94,211.88 c 10.48,-4.58 20.78,-10.08 32.24,-11.8 13.96,36.46 28.88,72.58 43.48,108.8 -7.52,5.34 -15.18,10.52 -23.06,15.3 -12.94,-20.64 -26,-41.22 -38.9,-61.9 -8.82,-13.58 -19.82,-25.86 -27.52,-40.1 3.52,-4.66 8.42,-8.02 13.76,-10.3 z"
     id="path10"
     inkscape:connector-curvature="0"
     style="fill:#f5e5c1" />
  <path
     d="m 292.6,312.68 c 13.98,-20.56 29.94,-39.76 47.64,-57.22 39.84,55.62 78.84,111.86 118.38,167.72 7.22,10.56 15.08,20.72 21.78,31.66 -55.32,36.88 -99.02,89.5 -129.34,148.38 -36.68,71.14 -56.42,150.22 -63.3,229.74 -4.02,1.38 -8,2.88 -11.94,4.46 -9.46,-36.94 -19.58,-73.74 -29.74,-110.48 -5.78,3.74 -11.18,7.96 -16,12.88 -22.58,20.1 -45.24,40.14 -67.76,60.32 -0.08,-4.06 -0.1,-8.1 0,-12.14 7.2,-93.26 20.04,-186.42 44.58,-276.8 19.32,-69.58 45.22,-138.3 85.7,-198.52 z"
     id="path12"
     inkscape:connector-curvature="0"
     style="fill:#f4722b" />
  <path
     d="m 896.1,565.22 c 9.8,6.06 18.96,13.06 27.54,20.74 -0.8,7.12 -4.24,14.32 -11.44,16.8 -5.16,0.42 -9.84,-2.52 -14.58,-4.12 -4.62,-10.6 -6.9,-22.6 -1.52,-33.42 z"
     id="path14"
     inkscape:connector-curvature="0"
     style="fill:#f5e5c1" />
  <path
     d="m 932.02,588.1 c 4.32,-3.74 10.32,-4.84 15.46,-7.14 1.56,9.76 -8.46,15.34 -16.96,14.74 0.36,-1.9 1.12,-5.7 1.5,-7.6 z"
     id="path16"
     inkscape:connector-curvature="0"
     style="fill:#f5e5c1" />
  <path
     d="m 0,782.14 c 14.76,-30.62 28.68,-61.64 43.48,-92.26 23.74,54.14 48.28,107.96 72.52,161.88 4.1,9.62 9.06,18.88 15.44,27.2 28.68,-31.88 57.2,-63.9 85.68,-95.98 6.6,-7.6 14.3,-14.08 21.64,-20.94 9.54,33.62 17.46,67.7 26.4,101.48 17.64,-5.34 35.22,-10.94 52.84,-16.38 48.16,-14.78 95.52,-31.98 143.06,-48.66 -0.36,13.1 -2.32,26.16 -5.92,38.76 -7.34,24.56 -15.08,49 -22.32,73.58 43.42,7.66 86.7,16.14 130.32,22.56 -1.46,13 -3.48,25.98 -6.96,38.62 -32.6,16.54 -63.98,35.4 -96.52,52 l -59.18,0 c 1.66,-2.18 2.82,-5.04 5.56,-6.12 27.96,-14.38 55.14,-30.24 82.82,-45.12 4.64,-1.96 7.14,-6.22 8.76,-10.74 -30.66,-4.64 -61.08,-10.76 -91.68,-15.74 1.12,-33.68 15.72,-64.62 24.66,-96.6 -62.1,18.46 -123.92,37.94 -185.76,57.26 -8.82,-30.32 -15.08,-61.36 -23.9,-91.68 -31.62,35 -63.52,69.76 -95.36,104.58 C 91.68,875.82 58.7,831.08 24.68,787.16 16.44,799.74 7.94,812.16 0,824.92 l 0,-42.78 z"
     id="path18"
     inkscape:connector-curvature="0"
     style="fill:#f5e5c1" />
</svg>
