<?xml version="1.0" encoding="UTF-8" standalone="no"?>
<svg
   xmlns:dc="http://purl.org/dc/elements/1.1/"
   xmlns:cc="http://creativecommons.org/ns#"
   xmlns:rdf="http://www.w3.org/1999/02/22-rdf-syntax-ns#"
   xmlns:svg="http://www.w3.org/2000/svg"
   xmlns="http://www.w3.org/2000/svg"
   xmlns:sodipodi="http://sodipodi.sourceforge.net/DTD/sodipodi-0.dtd"
   xmlns:inkscape="http://www.inkscape.org/namespaces/inkscape"
   width="1280"
   height="1280"
   viewBox="0 0 1024 1024"
   version="1.1"
   id="svg2"
   inkscape:version="0.48.1 "
   sodipodi:docname="taunt_kill.svg">
  <metadata
     id="metadata28">
    <rdf:RDF>
      <cc:Work
         rdf:about="">
        <dc:format>image/svg+xml</dc:format>
        <dc:type
           rdf:resource="http://purl.org/dc/dcmitype/StillImage" />
      </cc:Work>
    </rdf:RDF>
  </metadata>
  <defs
     id="defs26" />
  <sodipodi:namedview
     pagecolor="#ffffff"
     bordercolor="#666666"
     borderopacity="1"
     objecttolerance="10"
     gridtolerance="10"
     guidetolerance="10"
     inkscape:pageopacity="0"
     inkscape:pageshadow="2"
     inkscape:window-width="1920"
     inkscape:window-height="1018"
     id="namedview24"
     showgrid="false"
     inkscape:snap-page="true"
     fit-margin-top="0"
     fit-margin-left="0"
     fit-margin-right="0"
     fit-margin-bottom="0"
     inkscape:zoom="0.6609375"
     inkscape:cx="466.00473"
     inkscape:cy="640"
     inkscape:window-x="-8"
     inkscape:window-y="-8"
     inkscape:window-maximized="1"
     inkscape:current-layer="layer2" />
  <g
     inkscape:groupmode="layer"
     id="layer1"
     inkscape:label="background"
     style="display:inline">
    <rect
       style="fill:#3e3e3e;fill-opacity:1;fill-rule:nonzero;stroke:none"
       id="rect3010"
       width="1024"
       height="1024"
       x="0"
       y="0" />
  </g>
  <g
     inkscape:groupmode="layer"
     id="layer2"
     inkscape:label="foreground">
    <path
       d="m 406.96,0 29.62,0 c 0.08,23.5 0.18,47.02 0.18,70.52 -9.28,0.06 -18.56,0.06 -27.84,0.1 -1.78,-23.5 -1.9,-47.06 -1.96,-70.62 z"
       id="path6"
       inkscape:connector-curvature="0"
       style="fill:#f4e5c1" />
    <path
       d="m 510.32,0 96.52,0 c 1.7,22.46 2.62,44.96 4.32,67.44 -33.78,1.48 -67.6,2 -101.4,2.14 0.34,-23.2 0.62,-46.38 0.56,-69.58 z"
       id="path8"
       inkscape:connector-curvature="0"
       style="fill:#f4e5c1" />
    <path
       d="m 603,79.3 c -14.9516,-0.0523 -30.0275,1.33125 -44.9,1.05 -40.02,-0.48 -79.96,2.54 -120,2.2 -14.06,-0.46 -28.17,-0.27 -42.25,-0.25 -5.78,-0.3 -10.77,2.88 -15.65,5.5 0.88,10.72 2.43,21.38 4.15,32 1.82,14.7 3.85,29.38 6.15,44 1.18,10.7 2.41,21.36 3.95,32 0.32,4.76 0.5,9.54 0.8,14.3 3.46,28.88 0.59,58.13 3.45,87.05 0.94,12.3 -0.38,24.73 1.6,36.95 0.7,13.74 0.57,27.54 0.75,41.3 8.74,0.32 17.46,0.25 26.2,0.05 0.34,-29.22 2.04,-58.38 1.3,-87.6 12.46,-0.14 24.89,-0.33 37.35,-0.75 29.34,-1.16 58.73,0.08 88.05,-1.6 16.1,0.44 32.36,-1.62 48.3,1.4 -1.62,4.9 -3.77,9.77 -3.55,15.05 0.16,22.54 1.13,45.11 0.95,67.65 8.52,0.2 17,0.15 25.5,-0.05 -1.88,-21.18 -3.81,-42.39 -4.65,-63.65 -0.8,-7.56 4.85,-13.36 8.45,-19.4 0.04,-0.92 0.11,-2.81 0.15,-3.75 -4.66,-3 -9.36,-6.01 -14.1,-8.85 0.02,-8.08 -0.45,-16.34 2.15,-24.1 4.92,-4.74 9.48,-9.88 14,-15 -4.08,-4.36 -8.13,-8.7 -12.35,-12.9 0.04,-5.86 0.64,-11.73 2,-17.45 0.3,-2.16 0.58,-4.29 0.9,-6.45 4.92,-31.86 9.78,-63.78 14.4,-95.7 1.06,-6.24 1.33,-12.58 1.45,-18.9 C 626.21,80.2325 614.62902,79.34064 603,79.3 z m -94.05,12.9 c 18.33501,0.05 36.67,0.32 55,0.1 5.7,0.18 11.55,-0.58 17.15,0.8 6.24,3.4 12.81,7.09 17.25,12.75 0.78,15.16 0.03,30.39 0.35,45.55 -26.3,0.14 -52.6,0.82 -78.9,1.2 -6.26,-0.44 -11.07,5.38 -11.35,11.3 30,9.64 59.43,20.98 89.15,31.4 -0.18,6.06 -0.52,12.09 -0.8,18.15 -9.96,3.26 -20.43,4.1 -30.55,6.7 -5.24,1 -7.37,6.39 -9.15,10.75 14.58,1.1 28.14,6.92 42.2,10.4 -1.44,8.16 -2.06,16.39 -2.2,24.65 -3.98,2.8 -7.69,7.08 -12.95,6.9 -15.34,0.9 -30.74,0.69 -46.1,0.95 -37.04,1.78 -74.11,1.51 -111.15,2.95 0.1,-10.36 0.14,-21.89 8.2,-29.65 32.72,-4.94 65.76,-7.98 98.6,-12.1 5.16,-0.38 8.49,-4.67 11.85,-8.05 -0.18,-0.96 -0.57,-2.89 -0.75,-3.85 -21.6,-0.68 -43.26,0.62 -64.8,-1.6 -17.02,-0.6 -34.03,-0.89 -51.05,-1.05 -0.58,-28.78 -0.28,-57.57 -0.5,-86.35 0.08,-9.34 -1.81,-18.66 -0.65,-28 1.36,-3.66 4.47,-6.3 7.25,-8.9 4.88,-5.18 12.65,-3.1 18.95,-3.8 18.31,-1.08 36.61499,-1.25 54.95,-1.2 z"
       id="path10"
       style="fill:#f5e5c1"
       inkscape:connector-curvature="0" />
    <path
       style="fill:#f5e5c1"
       d="m 522,310.3 c -9.22,3.36 -17.12,9.18 -25.4,14.3 -4.46,2.7 -8.65,6.63 -9.45,12.05 -2.22,13.06 -4.57,26.16 -5.45,39.4 -0.2,4.82 -4.86,8.87 -9.5,9.25 -31.36,1.48 -62.76,0.82 -94.1,2.7 -10.02,0.94 -20,-1 -30,-0.9 -83.36,-0.14 -166.74,-0.44 -250.1,-0.5 -6.74,-0.5 -13.37,6.32 -11.35,13.1 2.1,15.04 4.14,30.14 6.8,45.1 116.28,13.78 232.65,26.79 348.95,40.35 5.16,0.64 9.28,3.91 13.5,6.65 -5.22,5.48 -11.01,10.35 -16.85,15.15 -0.06,8.28 0.04,16.64 -1.6,24.8 -0.86,11.28 0.21,22.69 -2.05,33.85 -0.88,11.32 0.31,22.84 -2.05,34 -0.44,11.42 -0.95,22.86 -0.65,34.3 8.4,7.6 16.87,15.27 24.05,24.05 l -0.1,2.05 c -7.88,9.92 -17.35,18.5 -25.85,27.9 0.04,8.72 -0.06,17.49 1.1,26.15 1.74,12.6 0.2,25.38 1.9,38 1.9,13.4 0.36,27.03 2,40.45 2.3,15.74 -0.21,31.83 3.25,47.45 4.74,4.22 9.55,8.42 14.85,12 -4.08,5.16 -7.92,10.59 -12.7,15.15 -0.58,8.6 3.18,19.28 -4.3,25.8 -9,9.2 -17,19.38 -26.1,28.5 0.26,2.78 0.58,5.55 0.9,8.35 0.86,3.38 1.5,6.81 2.2,10.25 0.78,5.46 1.77,10.92 3.05,16.3 11.2,11.16 19.11,25.42 31.95,34.9 6,4.68 13.78,5.66 20.9,7.7 7.94,2.24 15.98,4.01 24.2,4.85 -2.34,0.66 -7.01,1.99 -9.35,2.65 15.36,1.7 30.91,1.51 46.25,-0.25 -3.8,-0.56 -11.37,-1.69 -15.15,-2.25 19.66,-1.18 39.66,-6.37 55.6,-18.35 11.08,-9.12 23.65,-16.15 35.85,-23.65 0.66,-18.72 2.79,-37.42 1.95,-56.2 -5.98,-5.7 -13.07,-10.02 -19.55,-15.1 -5.7,-4.48 -12.59,-8.38 -15.75,-15.2 -0.8,-8.34 -0.06,-16.76 -0.5,-25.1 3.02,-2.78 6.2,-5.41 9.4,-7.95 0.66,-12.78 -0.38,-25.69 1.6,-38.35 0.76,-18.02 0.51,-36.05 1.15,-54.05 2.16,-19.28 1.42,-38.74 1.9,-58.1 -5.82,-3.54 -11.51,-7.29 -17.05,-11.25 4.28,-3.58 8.42,-7.36 12.3,-11.4 0.1,-4.64 0.3,-9.28 0.5,-13.9 -2.96,-1.78 -5.91,-3.54 -8.85,-5.3 5.68,-4.76 11.26,-9.62 16.8,-14.6 -0.16,-9.16 -0.02,-18.34 -0.7,-27.5 -2.9,-17.14 0.09,-34.74 -2.75,-51.9 -1.24,-15.56 0.19,-31.26 -2.45,-46.7 -4.18,-4.84 -8.08,-9.9 -11.5,-15.3 3.92,-2.28 7.84,-4.58 11.8,-6.8 -0.76,-3.88 -1.72,-7.68 -2.7,-11.5 109.68,-8.78 219.39,-17.62 329.05,-26.4 6.14,-0.04 11.29,-5.18 12.15,-11.1 0.42,-19.74 0.9,-39.66 -0.3,-59.4 -17.94,-0.38 -35.88,0.22 -53.8,0.4 -35.94,0.86 -71.88,-0.17 -107.8,1.15 -49.32,-0.16 -98.65,2.2 -147.95,0.9 -19.8,0.16 -39.57,1.33 -59.35,1.15 0.48,4.14 0.99,8.31 1.55,12.45 11.74,4.36 22.57,12.06 35.45,12.6 9.04,1 18.13,1.81 27.25,1.65 0.82,9.96 0.18,19.92 0,29.9 -4.14,3.8 -9.7,4.78 -15.1,5.2 -27.28,2.36 -54.54,7.2 -82,5.3 -6.4,-0.94 -13.98,1.69 -15.7,8.55 -1.3,8.48 -0.39,17.11 -0.65,25.65 -11.44,-0.14 -22.9,0.35 -34.3,-0.85 -0.7,-9.9 -0.91,-19.87 0.05,-29.75 -21.32,-4.72 -43.83,-2.06 -64.85,-8.4 -0.36,-10.52 1.8,-20.88 4.9,-30.9 1,-0.62 3.03,-1.85 4.05,-2.45 14.84,0.4 29.66,-0.7 44.5,-1 14.46,0.3 23.94,-12.3 34.9,-19.8 3.2,-18.34 4.88,-36.91 8.6,-55.15 3.84,-2.5 7.78,-4.88 11.6,-7.4 -1.26,3.4 -2.45,6.9 -2.95,10.5 -2.38,17.78 -4.78,35.54 -7.3,53.3 -0.8,6.26 -5.43,11.03 -9.75,15.25 -5.72,4.84 -11.61,10.84 -19.55,11.3 -16.58,0.94 -33.24,0.39 -49.8,1.25 -4.64,4.14 -3.43,11.53 -5.05,17.15 19.14,1.3 38.27,2.38 57.45,2.8 24.5,1.42 49.26,3.48 73.7,0.1 17.78,-1.64 35.46,-4.08 53.3,-5.1 0.8,-4.52 1.48,-9.04 2,-13.6 -13.24,-1.42 -27.28,-0.43 -39.5,-6.55 -7.54,-3.4 -15.04,-6.86 -22.6,-10.2 -2.76,-26.36 -3.42,-52.94 -6.1,-79.3 -4.82,-5.72 -11.22,-9.82 -16.9,-14.6 z m 366.1,84.55 c 6.0275,-0.0175 12.07,0.04 18.1,0.35 0.74,13.04 0.24,26.21 2.4,39.15 -99.66,7.84 -199.18,16.91 -298.8,25.35 -10.32,1.32 -20.8,1.14 -31,3.2 -2.48,-2.52 -3.58,-5.79 -3.8,-9.25 25.6,-3.42 51.28,-5.97 77.1,-6.85 57.34,-3.46 114.64,-7.34 172,-10.5 14.22,-2.1 28.8,-0.39 42.9,-3.55 1.44,-1.38 2.11,-3.03 2.05,-5.05 0.32,-7.58 -0.48,-15.18 -2.5,-22.5 -47.54,-0.48 -95.09,-0.4 -142.65,-0.6 -15.28,-0.28 -30.61,0.5 -45.85,-0.9 -16.9,-0.68 -33.85,0.1 -50.75,-0.7 -0.06,-1.9 -0.22,-5.65 -0.3,-7.55 81,-0.26 162,-0.33 243,-0.55 6.02,0.04 12.0725,-0.0325 18.1,-0.05 z m -756.25,3.55 c 26.69156,0.0609 53.35,1.11501 80.05,1.1 30,1.04 60.03,1.86 90.05,2.1 34.02,2.3 68.17,0.53 102.15,3.55 -4.22,2.8 -9.12,4.19 -14.2,3.85 -63.44,-0.14 -126.88,0.18 -190.3,-0.3 -12.1,-0.72 -24.13,-1.67 -36.25,-1.95 -5.08,8.92 -1.44,18.93 0.1,28.25 11.24,3.22 23.11,1.21 34.55,3.05 58.7,3.64 117.4,7.35 176.1,11.15 25.42,2.96 51.09,3.16 76.45,6.5 0.32,4.62 -2.09,8.76 -3.55,13 -93.02,-9.76 -186.14,-18.53 -279.2,-28.15 -19.5,-2.48 -39.28,-3.36 -58.6,-7 -0.66,-11.64 -1.61,-23.38 -4.05,-34.8 8.895,-0.28 17.80281,-0.37032 26.7,-0.35 z m 353.55,96.75 c 8.16933,-0.10918 16.3875,0.55 24.55,0.6 14.16,1.06 28.42,0.18 42.6,1.1 -2.84,2.76 -4.91,7.42 -9.45,7.5 -10.06,0.86 -20.19,0.73 -30.25,1.45 0.76,26.74 -0.27,53.54 1.85,80.2 0.3,17 0.47,33.98 0.65,51 18.88,0.66 37.77,-0.58 56.65,-0.3 -0.52,6.24 -4.04,11.41 -7.9,16.05 -25.52,0.32 -51.05,0.16 -76.55,0.3 -8,-7.66 -16.27,-15.11 -23.55,-23.45 -1.64,-7.06 0.3,-14.33 0.6,-21.45 1.46,-29.46 3.33,-58.91 5.15,-88.35 0.9,-7.78 -0.51,-15.58 1.05,-23.3 4.84501,-0.9075 9.6984,-1.2845 14.6,-1.35 z M 467.65,668.8 c 8.68,1.64 17.32,3.77 26.2,3.95 16.56,0.44 33.16,3.71 49.7,1.15 7,-1.14 14.12,-1.36 21.2,-0.8 0.18,1.22 0.55,3.68 0.75,4.9 -1.94,2.9 -3.84,5.78 -5.7,8.7 -4.42,1.44 -8.99,2.38 -13.65,2.3 -9.8,-0.02 -19.49,1.8 -29.25,2.3 -3.78,26.68 -2.71,53.8 -5.35,80.6 -0.7,25.78 -2.18,51.6 -0.7,77.4 16.72,2.84 33.72,0.64 50.6,1.3 0.64,5.34 0.51,10.74 -0.75,16 -13.6,-0.38 -27.19,-1.37 -40.75,-2.25 -5.76,-0.96 -11.75,3.6 -12.15,9.5 -1,14.34 0.64,28.82 -1.3,43.1 -3.38,11.48 -7.28,22.9 -12,33.9 -5.32,5.28 -12.16,9.56 -19.1,12.4 -9.06,-1.12 -16.16,-8.25 -23.3,-13.45 -5.92,-7.96 -12.38,-18.2 -8.7,-28.5 4.14,-10.42 11.01,-19.46 17.75,-28.3 7.68,-8.56 3.14,-20.85 4.7,-31.15 -0.22,-5 4.37,-7.89 7.25,-11.25 -1.34,-8.28 -4.56,-16.14 -5.4,-24.5 -2,-30.7 -2.41,-61.46 -3.25,-92.2 -1.36,-16.58 -1.03,-33.18 -1.45,-49.8 -0.56,-5.58 2.31,-10.5 4.65,-15.3 z"
       id="path14"
       inkscape:connector-curvature="0" />
  </g>
</svg>
