<?xml version="1.0" encoding="UTF-8" standalone="no"?>
<svg
   xmlns:dc="http://purl.org/dc/elements/1.1/"
   xmlns:cc="http://creativecommons.org/ns#"
   xmlns:rdf="http://www.w3.org/1999/02/22-rdf-syntax-ns#"
   xmlns:svg="http://www.w3.org/2000/svg"
   xmlns="http://www.w3.org/2000/svg"
   xmlns:sodipodi="http://sodipodi.sourceforge.net/DTD/sodipodi-0.dtd"
   xmlns:inkscape="http://www.inkscape.org/namespaces/inkscape"
   width="1280"
   height="1024"
   viewBox="0 0 1024 819.2"
   version="1.1"
   id="svg2"
   inkscape:version="0.47 r22583"
   sodipodi:docname="assist_capturer.svg">
  <metadata
     id="metadata38">
    <rdf:RDF>
      <cc:Work
         rdf:about="">
        <dc:format>image/svg+xml</dc:format>
        <dc:type
           rdf:resource="http://purl.org/dc/dcmitype/StillImage" />
        <dc:title></dc:title>
      </cc:Work>
    </rdf:RDF>
  </metadata>
  <defs
     id="defs36">
    <inkscape:perspective
       sodipodi:type="inkscape:persp3d"
       inkscape:vp_x="0 : 263.75 : 1"
       inkscape:vp_y="0 : 1000 : 0"
       inkscape:vp_z="527.5 : 263.75 : 1"
       inkscape:persp3d-origin="263.75 : 175.83333 : 1"
       id="perspective40" />
  </defs>
  <sodipodi:namedview
     pagecolor="#ffffff"
     bordercolor="#666666"
     borderopacity="1"
     objecttolerance="10"
     gridtolerance="10"
     guidetolerance="10"
     inkscape:pageopacity="0"
     inkscape:pageshadow="2"
     inkscape:window-width="1280"
     inkscape:window-height="738"
     id="namedview34"
     showgrid="false"
     inkscape:snap-global="true"
     inkscape:snap-page="true"
     inkscape:zoom="0.47584683"
     inkscape:cx="640.00002"
     inkscape:cy="512"
     inkscape:window-x="-8"
     inkscape:window-y="-8"
     inkscape:window-maximized="1"
     inkscape:current-layer="svg2" />
  <path
     d="m 0,0 1024,0 0,819.2 L 0,819.2 0,0 z"
     id="path4"
     style="fill:#3e3e3e" />
  <path
     d="m 422.52701,104.83544 c 3.59614,-1.0604 7.42278,-0.59935 11.11112,-0.70694 55.86301,0.10759 111.72601,-0.0307 167.58902,0.0614 4.18011,-0.70693 7.6533,3.08898 7.62257,7.10006 0.19977,28.15433 0.0461,56.30867 0.0768,84.44764 -12.47889,9.89705 -20.19367,23.91275 -28.86127,36.92952 -9.97389,-6.80807 -20.48566,-12.75551 -31.19722,-18.30339 -18.19582,-8.69834 -37.86698,-13.47782 -57.13855,-19.08717 -10.46566,-3.10435 -20.82376,-6.51607 -31.24333,-9.74337 -11.97173,-3.16582 -21.53068,-11.57217 -30.58249,-19.59431 -4.79485,-3.99571 -8.39098,-9.32843 -10.77303,-15.06073 -0.64546,-12.63257 -0.0614,-25.32661 -0.26127,-37.98991 -0.32273,-3.15046 1.02967,-6.23945 3.65761,-8.05287 z"
     id="path6"
     style="fill:#f4722b" />
  <path
     d="m 394.55709,115.77752 c 2.96603,2.39741 3.38098,6.5007 5.05609,9.75874 2.75089,5.68618 4.82558,11.66437 7.49964,17.3813 6.14723,11.21871 13.57002,21.80731 22.48351,31.02817 12.35595,11.91027 29.03031,17.10468 44.78261,22.80625 9.52822,3.47318 19.73262,4.56432 29.29158,7.96067 16.78195,5.80913 33.74832,11.23406 49.7926,18.91811 6.48534,3.59613 12.92457,7.31521 19.4099,10.92671 1.24481,5.50178 -2.28984,10.31199 -4.44138,15.06073 -5.83988,10.05073 -13.57002,19.01032 -22.56036,26.38701 -4.70263,4.19548 -9.80483,8.12971 -15.66007,10.5425 -4.01108,1.16798 -8.25266,0.30736 -12.21763,-0.59935 -23.94348,-6.0704 -48.05602,-11.41849 -72.19929,-16.67438 -7.97603,-1.19871 -12.80162,-8.28339 -17.79624,-13.84664 -4.44138,-4.3338 -7.83773,-9.58969 -10.6962,-15.06073 -5.37882,-10.8806 -12.67866,-20.90059 -16.12112,-32.67256 -5.05609,-12.66331 -9.66652,-25.71081 -11.04965,-39.35767 -0.26126,-8.65223 -0.4764,-17.33521 0.78378,-25.9106 0.53787,-8.99033 3.67296,-17.61183 3.64223,-26.64826 z"
     id="path8"
     style="fill:#f5e5c1" />
  <path
     d="m 664.02115,175.55938 c 13.44707,-4.48749 27.70866,-2.90457 41.63216,-3.10435 12.06394,1.47534 24.02031,4.27232 35.56175,8.06824 9.66653,5.25589 17.6272,13.03214 26.20259,19.82484 4.59505,3.45781 6.96175,10.05073 13.10898,11.18796 6.27018,0.35347 12.9092,-1.01429 18.6876,2.18228 -7.43817,8.48319 -18.18045,12.77088 -26.52532,20.14756 -8.37561,10.21978 -16.36702,20.83912 -23.29802,32.11931 -14.16939,23.55927 -18.28803,51.17573 -25.12683,77.37832 -2.87383,18.58002 -7.79162,36.88341 -15.38345,54.11104 -13.37024,34.48599 -32.25762,66.66676 -54.69503,96.01982 -11.0804,15.81376 -25.80303,28.4617 -39.37305,42.01634 -16.2748,14.24623 -33.74832,27.12468 -52.03634,38.68148 -7.37669,3.96497 -15.06074,7.33059 -22.60646,10.97283 -15.95208,7.68404 -33.56391,11.32627 -51.145,12.61719 -19.62505,-0.35346 -37.52888,-10.26588 -53.15821,-21.31553 -11.20334,-8.2834 -20.10147,-19.24085 -27.60109,-30.88987 -12.525,-16.90488 -23.6976,-34.76261 -34.36305,-52.89695 -10.12758,-21.45385 -24.38917,-40.77154 -40.95596,-57.66107 -5.93209,-6.54681 -15.4142,-8.17582 -23.85127,-7.5611 -15.62935,3.58077 -28.26191,14.47674 -43.5378,18.93348 -9.28232,-20.62398 -19.82483,-40.6947 -28.27728,-61.70287 -6.91563,-21.83806 -10.94208,-44.52135 -12.87845,-67.32759 0.50715,-21.85342 -1.72123,-43.86054 1.07577,-65.62174 5.22514,-0.96819 9.28232,2.85846 13.53928,5.16368 11.72585,7.25373 23.89738,13.83127 35.40808,21.43848 13.03213,11.00355 25.52638,22.6833 38.91198,33.28728 6.93102,4.68726 14.18476,9.49748 22.56037,11.04965 4.90242,0.98356 9.69726,2.5511 14.66115,3.2273 6.03966,0.86062 12.38668,-0.50715 18.11898,2.07468 10.78839,14.47675 20.28587,30.01388 32.53424,43.35339 9.80484,9.26696 19.01032,19.71725 31.22796,25.87986 0.32272,-1.84417 0.66082,-3.70371 0.99893,-5.53251 -10.21978,-5.3481 -17.73478,-14.30769 -25.40346,-22.65256 -6.82343,-6.57754 -12.03322,-14.53821 -18.07286,-21.79195 -11.12651,-13.49319 -22.00712,-27.66256 -28.26192,-44.15252 -10.75767,-19.77873 -19.21012,-40.75617 -25.95671,-62.22539 -4.02644,-11.38776 -4.30306,-23.68222 -4.59506,-35.63859 0.59936,-10.58862 -0.13831,-21.34629 2.18227,-31.78121 3.73445,7.59183 5.60936,16.05965 10.40421,23.12897 8.88275,16.5668 23.77442,28.52317 36.7912,41.66288 9.00569,9.88169 21.25406,15.7523 31.99636,23.4517 8.16045,5.94746 18.50317,6.88491 27.50887,10.9882 12.21763,5.88597 26.21795,5.05609 38.97347,9.11327 12.92457,4.36453 26.60216,5.99355 39.37305,10.86523 15.82913,4.42602 32.44204,9.6358 44.3062,21.6229 7.59184,9.3438 13.78517,20.22441 15.92133,32.21151 0.79915,8.51393 3.05825,16.84343 3.39635,25.41883 0.90672,-0.0154 2.70479,-0.0461 3.6115,-0.0614 -0.16904,-20.76229 -3.05825,-43.50706 -18.14971,-59.10567 -9.78948,-9.75874 -22.36057,-16.50533 -35.56176,-20.48566 17.41205,-9.83558 32.13468,-24.5121 42.64645,-41.52457 6.43923,-9.02107 13.17045,-17.85772 18.59539,-27.55499 17.12005,-23.34413 41.66289,-42.87697 70.87762,-47.61034 z"
     id="path10"
     style="fill:#f5e5c1" />
  <path
     d="m 716.48781,203.26804 c 6.48533,-1.62901 12.63256,6.70049 8.95959,12.40205 -2.19764,4.57969 -8.94422,5.83987 -12.50962,2.19764 -4.74875,-4.10328 -2.65869,-13.09362 3.55003,-14.59969 z"
     id="path12"
     style="fill:#3e3e3e" />
  <path
     d="m 209.01815,321.97116 c -0.66082,-4.93315 4.14939,-7.10006 8.00679,-8.28339 1.76733,11.9871 3.44244,23.98957 4.91778,36.00742 2.58184,12.60183 5.96281,25.04998 9.94316,37.25224 10.08146,22.72941 20.67008,45.24366 30.67469,67.98843 2.1208,0.0154 4.33381,0.0154 6.22408,-1.06039 10.94209,-5.42494 21.85343,-10.86524 32.81087,-16.22871 8.3756,-4.21086 19.42527,-4.44138 26.89415,1.76733 4.36455,3.87276 8.22193,8.3295 11.57217,13.12435 11.20334,17.22763 22.32984,34.50136 33.62538,51.66751 -51.79045,0.13832 -103.58091,0 -155.37137,0.0614 -3.76518,0.29199 -8.39098,-1.4446 -9.08254,-5.60934 -0.50715,-4.05719 -0.24589,-8.16046 -0.27663,-12.233 0.0768,-54.81798 -0.0461,-109.63595 0.0614,-164.45392 z"
     id="path14"
     style="fill:#f4722b" />
  <path
     d="m 327.67517,314.42543 c 10.84986,-0.46105 21.69974,-0.13832 32.54961,-0.23053 0.46104,2.52037 0.92208,5.02537 1.38313,7.56111 -11.75659,0.21515 -23.17508,-2.75089 -33.93274,-7.33058 z"
     id="path16"
     style="fill:#f4722b" />
  <path
     d="m 736.83516,314.93258 c 2.65867,-1.27556 5.7784,-0.59935 8.65223,-0.78378 21.03891,0.12294 42.09318,0.0307 63.13211,0.0307 3.21193,-0.0154 7.08469,0.3842 9.03643,3.33487 3.08899,4.48748 2.15154,10.1583 2.28985,15.29125 -0.0614,53.28117 -0.0461,106.56232 0,159.85886 0.15369,4.42601 -1.85954,9.54359 -6.27019,11.18797 -3.68834,0.72229 -7.48425,0.36883 -11.20334,0.4303 -49.60819,-0.10757 -99.21637,0.0614 -148.82456,-0.0768 15.50641,-19.94777 30.65934,-40.32586 42.46203,-62.73254 12.09468,-21.96099 22.42204,-45.02849 29.13789,-69.21787 4.10328,-19.04105 7.42279,-38.29727 11.58755,-57.32296 z"
     id="path18"
     style="fill:#f4722b" />
  <path
     d="m 503.25558,386.94743 c 10.77303,-2.88919 22.83697,-0.90672 31.88878,5.71693 11.60291,8.06826 17.94993,23.0214 15.49104,36.97562 -2.61257,17.65794 -19.10254,32.19616 -37.08321,31.689 -20.33197,0.96819 -39.29619,-17.50424 -38.05138,-37.98991 -0.76841,-16.72048 11.78732,-32.25762 27.75477,-36.39164 z"
     id="path20"
     style="fill:#3e3e3e" />
  <path
     d="m 704.13186,520.2656 c 4.21086,3.79593 7.71478,8.46782 12.47889,11.61828 15.64472,7.02321 33.87126,3.41171 49.37766,10.95744 3.65762,1.61366 4.94854,5.94746 4.77948,9.65117 0.61472,6.73122 -5.13294,11.69512 -10.28125,14.93778 -10.91133,4.91778 -24.91167,2.8892 -33.53317,-5.62472 -12.89382,-9.95852 -20.54714,-25.61861 -22.82161,-41.53995 z"
     id="path22"
     style="fill:#f4722b" />
  <path
     d="m 303.79316,530.17802 c 3.44245,-2.68941 4.68727,-7.83772 9.57432,-8.51391 -0.55325,8.32949 -4.84095,15.6447 -9.05181,22.62181 -4.28769,8.20657 -11.49532,14.55359 -19.2562,19.42527 -8.68298,5.45567 -20.00926,6.30092 -29.55285,2.67405 -5.56324,-2.98141 -11.38775,-8.54465 -10.41956,-15.4603 -0.10757,-5.96282 5.99356,-10.63471 11.67974,-10.46567 10.88061,0 21.89953,-0.0768 32.59573,-2.41278 5.51714,-1.04504 10.17366,-4.39528 14.43063,-7.86847 z"
     id="path24"
     style="fill:#f4722b" />
  <path
     d="m 561.07032,582.84446 c 16.78196,-10.32735 33.82517,-20.63934 47.93308,-34.5321 -0.18443,52.65109 0.0461,105.31752 -0.10758,157.98396 0.58399,5.17904 -4.34918,8.88275 -9.19011,8.48318 -56.93878,0.0923 -113.87755,0.0307 -170.81631,0.0307 -3.79592,0.15368 -8.00678,-1.27556 -9.60506,-4.99464 -0.47641,-2.19763 -0.41494,-4.45674 -0.44566,-6.65437 0.15367,-44.87482 -0.10759,-89.73428 0.12293,-134.59372 5.83988,6.03966 10.48103,13.3395 17.61183,18.02676 17.31984,13.37024 39.57283,21.46923 61.61067,18.42635 10.4503,-1.79807 21.36164,-2.62795 31.01281,-7.33058 10.74229,-4.70264 21.43848,-9.51285 31.8734,-14.84558 z"
     id="path26"
     style="fill:#f4722b" />
  <path
     d="m 369.96815,603.76043 c 0.78376,-0.0154 2.35132,-0.0307 3.13509,-0.0307 0.63009,8.12972 0.46104,16.35164 -1.55218,24.29695 -2.52036,15.56787 -9.78947,31.7812 -24.14326,39.74187 -5.45567,3.81129 -12.95531,3.33487 -18.67224,0.35346 -4.36453,-2.82772 -6.02429,-8.08361 -7.96067,-12.64792 1.22945,-4.5797 2.48963,-9.5897 6.65439,-12.44816 7.63794,-5.67083 17.2891,-7.807 24.95777,-13.53929 9.14402,-5.51714 16.35166,-14.95315 17.5811,-25.72618 z"
     id="path28"
     style="fill:#f4722b" />
  <path
     d="m 643.21277,604.85156 3.45781,0.55325 c 1.92101,6.1626 2.22837,12.98604 6.03966,18.42635 3.38098,6.23943 10.63472,8.16045 16.45922,11.31091 7.97603,4.39527 17.78087,5.8245 24.09716,12.84772 5.85525,7.11543 1.96712,19.05643 -6.79269,21.669 -6.53145,1.49071 -13.93886,1.0143 -19.31769,-3.36561 -6.05503,-5.34809 -11.941,-11.28018 -15.15293,-18.82591 -6.14725,-13.26265 -8.63687,-28.06213 -8.79054,-42.61571 z"
     id="path30"
     style="fill:#f4722b" />
  <path
     d="m 497.60013,634.26608 2.98139,-0.1383 c 0.52252,3.98033 1.07578,7.97603 1.01431,12.00247 -0.32273,11.69512 4.47212,22.66793 6.5468,33.99421 0.50715,7.37668 -0.50714,16.64365 -7.49962,20.82376 -3.1812,2.56647 -7.16154,0.39958 -10.48104,-0.63009 -1.32166,-3.53466 -2.64332,-7.1769 -2.44353,-11.00355 0.90672,-18.76444 10.75765,-36.08428 9.88169,-55.0485 z"
     id="path32"
     style="fill:#3e3e3e" />
</svg>
