<?xml version="1.0" encoding="UTF-8" standalone="no"?>
<svg
   xmlns:dc="http://purl.org/dc/elements/1.1/"
   xmlns:cc="http://creativecommons.org/ns#"
   xmlns:rdf="http://www.w3.org/1999/02/22-rdf-syntax-ns#"
   xmlns:svg="http://www.w3.org/2000/svg"
   xmlns="http://www.w3.org/2000/svg"
   xmlns:sodipodi="http://sodipodi.sourceforge.net/DTD/sodipodi-0.dtd"
   xmlns:inkscape="http://www.inkscape.org/namespaces/inkscape"
   width="1280"
   height="1280"
   viewBox="0 0 1024 1024"
   version="1.1"
   id="svg2"
   inkscape:version="0.48.1 "
   sodipodi:docname="bow_kill_whiledead.svg">
  <metadata
     id="metadata22">
    <rdf:RDF>
      <cc:Work
         rdf:about="">
        <dc:format>image/svg+xml</dc:format>
        <dc:type
           rdf:resource="http://purl.org/dc/dcmitype/StillImage" />
      </cc:Work>
    </rdf:RDF>
  </metadata>
  <defs
     id="defs20" />
  <sodipodi:namedview
     pagecolor="#ffffff"
     bordercolor="#666666"
     borderopacity="1"
     objecttolerance="10"
     gridtolerance="10"
     guidetolerance="10"
     inkscape:pageopacity="0"
     inkscape:pageshadow="2"
     inkscape:window-width="1920"
     inkscape:window-height="1018"
     id="namedview18"
     showgrid="false"
     inkscape:snap-page="true"
     fit-margin-top="0"
     fit-margin-left="0"
     fit-margin-right="0"
     fit-margin-bottom="0"
     inkscape:zoom="0.6609375"
     inkscape:cx="640"
     inkscape:cy="640"
     inkscape:window-x="-8"
     inkscape:window-y="-8"
     inkscape:window-maximized="1"
     inkscape:current-layer="svg2" />
  <rect
     style="fill:#3e3e3e;fill-opacity:1;fill-rule:nonzero;stroke:none"
     id="rect3000"
     width="1024"
     height="1024"
     x="0"
     y="0" />
  <path
     d="m 665.34,62.98 c 36.34,-8.74 71.36,-21.84 106.64,-33.92 13.84,35.84 26.14,72.3 41,107.74 36.82,79.78 74.06,159.36 111.04,239.06 33.44,71.34 66,143.1 99.98,214.16 l 0,87.92 c -78.92,32.4 -157.92,64.62 -236.8,97.08 -18.02,9.12 -38.32,11.3 -57.62,16.4 -32.5,7.62 -64.96,15.38 -97.36,23.38 -11.14,3.22 -23.48,5.2 -34.72,1.56 -39.08,-18.52 -77.96,-37.52 -118.14,-53.6 -75.78,-31.6 -151.58,-63.14 -227.34,-94.76 32,-122 63.92,-244 96.02,-365.96 116.08,22.94 232.14,45.94 348.22,68.9 12.24,2.46 24.64,4.52 36.5,8.56 -8.24,15.5 -16.52,30.96 -24.7,46.48 7.54,1.02 15.1,2 22.66,3 -24.38,15.32 -49.16,29.94 -73.66,45.02 -6.76,-16.62 -13.38,-33.32 -20.04,-49.98 8.08,0.04 16.2,0.04 24.3,-0.26 6.58,-14.7 13.82,-29.1 20.64,-43.7 -109.66,-8.76 -219.32,-17.42 -329,-26 -16.2,97.02 -32.76,194 -48.9,291.04 101.24,50.46 202.08,101.76 303.5,151.88 C 719.86,746.28 832.56,696.42 944.98,646 885.34,451.68 825.72,257.36 765.98,63.08 548.3,134.96 330.68,207.04 113.04,279 97.36,355.28 81.92,431.6 66.2,507.86 c -2.28,7.64 1.74,14.96 3.7,22.18 35.38,115.3 70.74,230.6 106.06,345.9 170.28,49.46 340.62,98.64 510.9,148.06 l -347.48,0 C 271.54,981.38 203.74,938.7 136,895.94 96.66,744.66 57.34,593.36 18,442.08 53.3,364.04 88.64,286.02 124.04,208.02 304.46,159.62 484.92,111.34 665.34,62.98 z"
     id="path6"
     inkscape:connector-curvature="0"
     style="fill:#f4722b" />
  <path
     d="m 433.95,452.3 c -3.5,4.18 -6.47,10.7 -12.55,11.1 -8.14,8.86 -14.15,19.32 -20.45,29.5 -3.76,6.28 -9.54,11.42 -11.5,18.7 4.98,4.22 6.91,10.81 11.95,15.05 8.16,9.16 21.69,9.36 30.85,17.2 6.62,3.72 11.55,9.26 16.35,15 3.62,-1.48 7.06,-5.07 11.2,-4.15 6.92,4.82 13.25,10.46 20.25,15.2 -0.4,1.7 -1.2,5.05 -1.6,6.75 3.12,3.36 8.07,7.03 11.65,1.85 3.04,0.96 5.44,3.02 7.8,5.1 -0.3,1.7 -0.88,5.12 -1.2,6.8 2.48,1.66 4.89,3.38 7.25,5.2 2.18,-1.7 5.33,-4.39 7.95,-1.65 9.12,7 18.34,13.89 27.5,20.85 -0.2,2.06 -0.42,4.12 -0.6,6.2 -7.3,9.7 -13.25,20.33 -19.95,30.45 0.22,4.26 0.51,8.49 0.75,12.75 10.36,7.82 22.58,12.87 33,20.55 4.78,11.04 1.68,23.49 3.1,35.15 2.04,13.76 1.03,27.71 2.15,41.55 16.54,7.9 32.92,16.2 49.2,24.6 58.84,-26.1 117.53,-52.54 176.35,-78.7 1.8,-0.78 3.16,-2.01 4.1,-3.75 4.98,-3.16 7.58,-8.62 11,-13.2 0.28,-2.86 0.14,-5.92 1.8,-8.4 6.62,-13.14 10.82,-27.36 13.5,-41.8 -0.26,-6.08 -2.04,-12.04 -1.6,-18.2 -3.1,-6.54 -7.68,-12.31 -11.8,-18.25 -10.68,-6.6 -15.52,-19.18 -25.3,-26.9 -2.56,-2.86 -10.33,-7.85 -3.85,-11.05 -0.7,-1.22 -2.07,-3.63 -2.75,-4.85 -8.26,-7.08 -16.76,-13.93 -24.9,-21.15 -4.4,-1.1 -8.41,-3.2 -12.45,-5.2 -2.76,-2.58 -5.49,-5.19 -8.25,-7.75 -0.02,-1.38 -0.08,-4.12 -0.1,-5.5 -18.76,-3 -37.63,-5.89 -56.65,-6.05 -4.38,-2.52 -6,-8.66 -9.1,-12.7 -0.02,-1.4 -0.05,-4.15 -0.05,-5.55 -4.32,-3.8 -7.08,-8.92 -10.8,-13.2 -7.02,-6.32 -17.86,-6.88 -26.6,-4.8 -8.62,4.72 -10.72,14.19 -12.8,22.95 4.12,1.54 1.93,6.72 3.45,9.9 2.92,7.2 3.03,14.97 3.15,22.65 -7.22,-0.52 -3.18,7.42 -3.6,11.7 -11.6,5.14 -22.8,11.17 -34.1,16.95 -3.6,0.96 -3.93,4.82 -4.85,7.8 -1.2,0.2 -3.57,0.6 -4.75,0.8 -8.28,-6.7 -16.36,-13.8 -25.3,-19.6 0.1,-2.88 0.28,-5.74 0.4,-8.6 -2.18,-1 -3.92,-2.46 -5.2,-4.5 -4.42,2.98 -9.31,2.18 -13.55,-0.6 0.48,-2.84 1.06,-5.65 1.7,-8.45 -1.96,-1.78 -3.89,-3.59 -6.05,-5.15 -3,0.94 -6.81,4.04 -9.65,1 -5.98,-4.58 -11.56,-9.7 -17.9,-13.8 0.1,-4.36 2.32,-9.12 0,-13.2 -2.2,-2.88 -6.33,-2.81 -9.45,-4.05 C 465.82,480.17 449.19,467 433.95,452.3 z M 747.7,610.75 c 5.28,6.94 11.1,13.49 17.6,19.35 -2.38,6.44 -5,12.77 -7.3,19.25 -5.86,-1.4 -11.38,0.48 -16.8,2.5 -1.88,-11.78 -4.89,-23.41 -8.85,-34.65 5.84,-0.26 11.87,-1.17 15.35,-6.45 z"
     id="path10"
     style="fill:#f5e5c1"
     inkscape:connector-curvature="0" />
  <path
     d="m 662.96,817.68 c 35.58,-9 71.32,-17.54 107.18,-25.28 -11.4,15.68 -23.66,30.74 -35.88,45.8 -4.82,6.56 -0.38,14.96 1.82,21.7 2.74,6.12 -1.32,13.28 2.4,19.12 2.44,4.02 2.88,8.68 2.98,13.3 -4.12,1.66 -8.22,3.38 -12.36,4.98 -0.04,9.46 -1.76,19.16 1,28.44 1.74,8.28 5.76,15.76 8.9,23.54 2.54,0.74 5.1,1.44 7.7,2.08 4.48,6.72 9.7,14.6 7.94,23.02 -9.98,0.24 -20.06,0.02 -29.96,1.48 -4.9,-0.96 -9.26,-3.48 -13.84,-5.34 -0.52,-3.1 -1,-6.2 -1.44,-9.26 -4.26,-0.42 -8.4,-1.42 -12.5,-2.52 -3.06,-10.64 4.56,-20.24 5.04,-30.68 1.76,-8.34 2.02,-16.9 -0.72,-25.06 -1.94,-0.74 -3.88,-1.48 -5.8,-2.2 -3.48,-4.84 -6.86,-9.76 -10.34,-14.58 -0.22,-10.62 6.52,-23.26 -2.18,-32.18 0.08,-7.28 2.42,-15 -2.1,-21.5 -4.42,-4.34 -9.62,-7.8 -15.18,-10.46 -0.66,-1.1 -2,-3.3 -2.66,-4.4 z"
     id="path14"
     inkscape:connector-curvature="0"
     style="fill:#f5e5c1" />
  <path
     d="m 567.8,813.3 c 12.96,4.84 24.52,14.54 38.8,14.92 0.2,2.92 0.4,5.82 0.6,8.78 1.28,0.92 2.56,1.86 3.86,2.8 -0.2,14.88 7.36,28.4 10.52,42.72 -3.34,3.58 -7.7,5.78 -12.26,7.4 -0.04,8.16 -0.42,16.32 0.04,24.48 1.16,5.98 2.14,12 1.8,18.14 4.52,4.88 3.64,12.18 7.3,17.3 0.26,1.8 0.74,5.42 0.98,7.24 -10.62,3.92 -22.88,6.38 -33.64,1.68 -3.38,0.28 -5.76,3.3 -8.84,4.5 -12.5,4.22 -25.72,5.92 -38.88,5.64 -4.06,-0.32 -7.54,-2.74 -11.16,-4.38 0.12,-3.7 0.1,-7.38 -0.12,-11.04 1.64,-1.84 2.76,-4.44 5.28,-5.24 7.88,-2.04 15.74,-4.74 24,-4.8 7.32,-4.94 14.52,-10.24 20.8,-16.52 3.08,-9.32 2.34,-18.92 0.26,-28.36 -5.34,-1.56 -10.68,-3.26 -16.24,-3.86 0.18,-5.48 1.86,-11.58 -1.58,-16.44 2.2,-11.3 2.02,-22.86 3.58,-34.24 -0.66,-10.52 1.42,-20.84 4.9,-30.72 z"
     id="path16"
     inkscape:connector-curvature="0"
     style="fill:#f5e5c1" />
</svg>
