<?xml version="1.0" encoding="UTF-8" standalone="no"?>
<svg
   xmlns:dc="http://purl.org/dc/elements/1.1/"
   xmlns:cc="http://creativecommons.org/ns#"
   xmlns:rdf="http://www.w3.org/1999/02/22-rdf-syntax-ns#"
   xmlns:svg="http://www.w3.org/2000/svg"
   xmlns="http://www.w3.org/2000/svg"
   xmlns:sodipodi="http://sodipodi.sourceforge.net/DTD/sodipodi-0.dtd"
   xmlns:inkscape="http://www.inkscape.org/namespaces/inkscape"
   width="1280"
   height="1280"
   viewBox="0 0 1024 1024"
   version="1.1"
   id="svg2"
   inkscape:version="0.48.1 "
   sodipodi:docname="bow_kill_medic_pair.svg">
  <metadata
     id="metadata100">
    <rdf:RDF>
      <cc:Work
         rdf:about="">
        <dc:format>image/svg+xml</dc:format>
        <dc:type
           rdf:resource="http://purl.org/dc/dcmitype/StillImage" />
      </cc:Work>
    </rdf:RDF>
  </metadata>
  <defs
     id="defs98" />
  <sodipodi:namedview
     pagecolor="#ffffff"
     bordercolor="#666666"
     borderopacity="1"
     objecttolerance="10"
     gridtolerance="10"
     guidetolerance="10"
     inkscape:pageopacity="0"
     inkscape:pageshadow="2"
     inkscape:window-width="1920"
     inkscape:window-height="1018"
     id="namedview96"
     showgrid="false"
     fit-margin-top="0"
     fit-margin-left="0"
     fit-margin-right="0"
     fit-margin-bottom="0"
     inkscape:zoom="0.6609375"
     inkscape:cx="466.00473"
     inkscape:cy="640"
     inkscape:window-x="-8"
     inkscape:window-y="-8"
     inkscape:window-maximized="1"
     inkscape:current-layer="layer1"
     inkscape:snap-page="true" />
  <g
     inkscape:groupmode="layer"
     id="layer1"
     inkscape:label="background">
    <rect
       style="fill:#3e3e3e;fill-opacity:1;fill-rule:nonzero;stroke:none"
       id="rect3066"
       width="1280"
       height="1280"
       x="0"
       y="0"
       transform="scale(0.8,0.8)" />
  </g>
  <g
     inkscape:groupmode="layer"
     id="layer2"
     inkscape:label="foreground">
    <path
       d="m 457.86,73.96 c 12.04,-4.1 24.14,-8.08 36.22,-12.12 1.38,8 2.72,16 4.02,24.02 9.3,-2.68 18.6,-5.34 27.92,-7.98 -0.44,14.72 -1.08,29.42 -2.02,44.12 -6.66,0 -13.3,0 -19.94,0 0.8,7.34 1.5,14.72 2.02,22.08 -12.04,2.1 -24.1,4.06 -36.14,6.08 -2.04,-8 -4.06,-16 -6.04,-24 -6,1.34 -11.96,2.68 -17.94,4 -1.48,-10.72 -2.78,-21.48 -4.08,-32.22 7.3,-2.04 14.6,-4.04 21.92,-6.02 -1.98,-6 -3.98,-11.98 -5.94,-17.96 z"
       id="path6"
       inkscape:connector-curvature="0"
       style="fill:#d3c6a8" />
    <path
       d="m 88.3,130.08 c 0.16,-20.72 -0.1,-41.46 0.46,-62.18 14.36,10.8 29.46,20.6 44.74,30.06 -2.06,10.76 -4.68,21.42 -6.1,32.32 3.8,-9.58 7.8,-19.04 11.82,-28.52 3.3,1.68 6.78,3.04 9.98,4.94 14.82,9.48 30.8,17.42 44.02,29.22 -0.48,20.08 -2.1,40.12 -2.64,60.2 -0.32,10.56 -0.98,21.22 -4.28,31.34 -33,-28.4 -66.78,-55.92 -99.92,-84.14 0.94,-4.36 1.86,-8.76 1.92,-13.24 z"
       id="path8"
       inkscape:connector-curvature="0"
       style="fill:#f5e5c1" />
    <path
       d="m 707.86,107.46 c 3.84,-5.98 8.86,-11.02 14.04,-15.84 4.74,4.6 10.18,8.34 15.84,11.76 0.46,0.78 1.42,2.36 1.9,3.14 3.82,-4.1 7.7,-8.18 11.62,-12.22 9.28,8.54 19.26,16.28 28.38,25 -2.24,6.16 -4.4,12.36 -6.54,18.56 7.78,3.74 15.6,7.36 23.42,10.98 -4.28,8.4 -9.18,16.48 -13.78,24.72 -8.76,-3.24 -17.54,-6.36 -26.18,-9.88 -4.34,6.18 -8.78,12.28 -13.38,18.24 -15.56,-12.36 -31.98,-23.64 -47.5,-36.06 6.98,-3.3 13.62,-7.26 20.16,-11.36 -5.46,-3.54 -10.88,-7.12 -16.2,-10.88 3.58,-4.92 7.78,-9.8 8.22,-16.16 z"
       id="path10"
       inkscape:connector-curvature="0"
       style="fill:#d3c6a8" />
    <path
       d="m 66.06,93.06 c 5.04,3.68 11.54,6.06 15.42,10.96 0.14,13.38 -0.68,26.8 -1.44,40.18 C 74.98,127.26 70.6,110.14 66.06,93.06 z"
       id="path12"
       inkscape:connector-curvature="0"
       style="fill:#f5e5c1" />
    <path
       d="m 76.2,157.68 c 3.08,-4.64 6.02,-9.38 9.22,-13.96 34.76,33.4 70.32,65.96 105.26,99.18 1.06,-5.58 2.04,-11.14 2.84,-16.76 55.08,48.18 110.38,96.12 165.72,144.02 -3.52,7.92 -6.66,16 -10.08,23.96 -5.86,-4.54 -11.64,-9.18 -17.06,-14.24 C 246.76,305.84 161.62,231.6 76.2,157.68 z"
       id="path14"
       inkscape:connector-curvature="0"
       style="fill:#f5e5c1" />
    <path
       d="m 26.66,182.08 c 2.08,-8.5 4.32,-16.96 6.42,-25.44 9.5,2.16 19.16,3.54 28.68,5.6 5.52,0.84 9.52,4.94 13.72,8.24 32.06,26 64.5,51.54 96.5,77.62 -24.74,0.58 -49.4,-3.14 -74.14,-3.66 -5.28,-0.46 -11.7,0.1 -15.44,-4.44 -8,-8.16 -15.46,-16.82 -23.48,-24.96 C 48,204.22 38.74,191.74 26.66,182.08 z"
       id="path16"
       inkscape:connector-curvature="0"
       style="fill:#f5e5c1" />
    <path
       d="m 315.62,166.52 c 3.48,5.46 5.84,11.54 8.36,17.48 4.02,-2.64 8.02,-5.32 12.04,-7.96 5.34,5.96 10.66,11.94 15.92,17.98 -5.3,3.34 -10.62,6.68 -15.92,10 4,7.32 7.98,14.66 11.96,21.98 -7.98,4.7 -15.96,9.36 -23.96,14 -3.34,-7.34 -6.7,-14.64 -10.04,-21.96 C 308,222.02 302,226 296.02,230 c -4.7,-6.64 -9.36,-13.32 -14.02,-19.98 6,-3.34 12,-6.68 17.98,-10.02 -2.24,-4.48 -4.48,-8.96 -6.72,-13.44 7.64,-6.46 14.64,-13.66 22.36,-20.04 z"
       id="path18"
       inkscape:connector-curvature="0"
       style="fill:#a69d88" />
    <path
       d="m 556,176.04 c 6.66,2.64 13.34,5.28 20,7.96 -2,4.68 -4,9.34 -5.98,14 7.32,2.68 14.64,5.36 21.98,8.02 -2.64,6 -5.32,12 -8.02,17.98 -7.4,-2.68 -14.82,-5.36 -22.2,-8.1 -3.8,6.42 -7.1,13.12 -9.78,20.08 -7.26,-3.2 -14.44,-6.54 -21.62,-9.88 3.26,-4.66 6.46,-9.34 9.64,-14.06 -3.34,-3.34 -6.68,-6.68 -10,-10.04 2.64,-5.32 5.32,-10.66 7.98,-15.98 4,2.66 8,5.32 12,7.98 2,-6 4,-11.98 6,-17.96 z"
       id="path20"
       inkscape:connector-curvature="0"
       style="fill:#a69d88" />
    <path
       d="m 279.46,286.76 c 50.9,-13.38 101.68,-27.18 152.52,-40.74 8.72,41.32 17.32,82.68 26.04,124 C 498,363.98 538,358.04 578,352 c 7.94,33.56 15.8,67.16 23.82,100.72 -9.92,0.96 -19.6,3.42 -29.46,4.76 -6.24,-23.16 -12.08,-46.44 -18.26,-69.62 -46.16,5.76 -92.28,11.76 -138.44,17.46 -0.94,-0.98 -2.78,-2.98 -3.7,-3.96 -1.28,-39.18 -2.26,-78.36 -3.98,-117.52 -33.98,9 -67.86,18.34 -101.88,27.1 -8.62,-8.36 -18.48,-15.34 -26.64,-24.18 z"
       id="path22"
       inkscape:connector-curvature="0"
       style="fill:#f5e5c1" />
    <path
       d="m 816.02,256 c 5.98,1.34 11.96,2.68 17.96,4.02 -0.66,3.32 -1.3,6.64 -1.96,9.96 5.32,0.68 10.64,1.38 15.98,2.06 -0.68,5.98 -1.34,11.96 -2,17.94 -4.66,-1.3 -9.32,-2.62 -13.98,-3.94 -1.36,6 -2.7,11.98 -4.06,17.96 -4.66,-2 -9.32,-4.02 -13.96,-6.02 0.66,-3.32 1.34,-6.66 2.02,-9.98 -5.34,0.68 -10.7,1.34 -16.04,2.02 0.66,-4.66 1.34,-9.32 2.02,-13.96 4.66,-1.38 9.32,-2.72 13.98,-4.08 0.02,-5.34 0.02,-10.66 0.04,-15.98 z"
       id="path24"
       inkscape:connector-curvature="0"
       style="fill:#a69d88" />
    <path
       d="m 478,257.98 c 87.34,8.76 174.68,17.32 262.02,26.06 -2.3,50.94 -4.56,101.88 -6.8,152.82 -4.84,0.94 -9.68,1.94 -14.5,2.88 2.3,-46.56 4.86,-93.14 7.3,-139.7 -76,-7.42 -152.02,-14.62 -228,-22.06 -2.34,23.62 -4.58,47.24 -6.98,70.84 -4.98,0.56 -9.96,1.1 -14.94,1.66 0.66,-30.84 1.26,-61.66 1.9,-92.5 z"
       id="path26"
       inkscape:connector-curvature="0"
       style="fill:#f5e5c1" />
    <path
       d="m 506.02,284 c 67.98,10.7 136,21.32 203.98,32.02 -1.52,42 -2.34,84 -4.28,125.98 -26.86,4.74 -53.8,10.68 -81.24,8.9 -11.42,-37.66 -23.04,-75.26 -34.46,-112.92 -28.56,3.18 -57.1,6.26 -85.66,9.4 0.5,-21.12 1.08,-42.26 1.66,-63.38 z"
       id="path28"
       inkscape:connector-curvature="0"
       style="fill:#f5e5c1" />
    <path
       d="m 192.62,312.42 c 11.44,-2.84 21.66,-9.28 33.38,-11.2 9.04,8.02 18.54,15.5 27.14,24 -15.76,4.28 -31.56,8.4 -47.32,12.7 7.16,38.68 14.48,77.32 21.58,116 -29.16,5.4 -58.38,10.56 -87.54,16 9.28,81.42 18.6,162.86 28.06,244.26 36.72,-7.3 73.42,-14.64 110.12,-22.02 -1.06,36.66 -1.7,73.34 -2.02,110.02 62.88,-9.54 125.82,-18.78 188.68,-28.5 5.16,10.8 8.72,22.28 11.22,33.98 C 403.3,813.92 330.64,819.84 258,826.04 254,792.02 250,758 246,724 c -32,4.7 -64,9.32 -95.98,14.02 -15.36,-95.34 -30.68,-190.68 -46.02,-286 28,-8.02 56,-16 84,-24.02 -4.66,-36.66 -9.34,-73.32 -14,-109.98 6.2,-1.88 12.4,-3.82 18.62,-5.6 z"
       id="path30"
       inkscape:connector-curvature="0"
       style="fill:#f5e5c1" />
    <path
       d="m 324.72,326.68 c 21.34,-6.18 42.96,-11.26 64.26,-17.54 0.62,25.82 1.32,51.66 2.62,77.48 -3.12,-5.06 -7.74,-8.74 -12.94,-11.46 -3.04,-3.5 -5.86,-7.24 -9.4,-10.26 -15.06,-12.48 -29.92,-25.22 -44.54,-38.22 z"
       id="path32"
       inkscape:connector-curvature="0"
       style="fill:#f4722b" />
    <path
       style="fill:#f4722b"
       d="m 271.8,340.8 c -14.42,3.56 -28.7,7.69 -43.1,11.35 5.88,32.26 11.98,64.51 18,96.75 2.34,10.94 -5.32,23.19 -16.7,24.65 -22.66,4.46 -45.45,8.25 -68.15,12.55 7.72,68.2 15.79,136.38 23.35,204.6 28.88,-6.06 57.9,-11.61 86.8,-17.55 8.18,-1.96 17.81,1.2 22.25,8.6 3.6,6.06 3.71,13.39 3.65,20.25 -0.62,25.68 -0.96,51.32 -1.5,77 53.06,-8.2 106.19,-15.95 159.25,-24.05 -2.8,-9.18 -8.08,-17.1 -14.2,-24.4 -7.48,-13.42 -15.7,-26.48 -23.4,-39.8 -6.28,-0.02 -13.47,0.45 -18.25,-4.45 -7,-5.48 -8.92,-16.49 -3,-23.45 5.62,-8.26 16.54,-7.75 25.3,-9.45 5.18,-1.62 8.78,4.04 8.7,8.6 1.6,7.88 -1.34,15.62 -4.5,22.7 5.18,13.68 14.22,25.26 21,38.1 3.78,6.8 10.66,11.88 12.3,19.8 1.08,3.92 -0.05,7.97 -0.25,11.95 6.2,-1.08 12.44,-2.04 18.7,-2.9 -8.34,-33.66 -16.34,-67.42 -24.6,-101.1 -2.3,-7.84 0.43,-17.01 7.05,-21.95 5.44,-4.14 12.55,-4.49 19.05,-5.65 -2.18,-2.78 -4.34,-5.59 -6.5,-8.35 -7.64,-1.46 -15.83,-2.51 -22.15,-7.45 -8.66,-6.78 -14.7,-18.19 -12,-29.35 2.58,-11.9 16.98,-19.52 28.2,-14.6 6.4,3.22 12.07,7.63 17.95,11.65 5.6,3.7 8.96,10.43 8.4,17.15 0.32,7 -4.21,12.61 -8.35,17.75 3.06,3.74 6.14,7.52 9.2,11.3 29.32,-3.08 58.44,-7.67 87.8,-10.45 -14.76,-1.26 -30.3,-12.5 -29.5,-28.6 -0.48,-14.66 14.45,-21.26 23.25,-30.3 -0.14,-1.54 -0.41,-4.64 -0.55,-6.2 -6.2,4.34 -13.51,9.21 -21.45,7.05 -6.04,-1.18 -9.74,-6.37 -13.6,-10.65 -6.52,6.28 -15.21,8.84 -24.15,7.3 -2.68,1.68 -5.34,3.38 -8,5.1 -3.54,5.62 -8.5,11.84 -16,10.9 -6.46,0.72 -9.86,-7.4 -16.3,-6.3 -4.24,-0.18 -9.15,1.19 -12.65,-1.95 -7.84,-5.1 -8.69,-17.46 -2.25,-24 2.84,-3.38 7.35,-4.3 11.25,-5.9 -23.54,-24.14 -47.33,-47.99 -70.85,-72.15 -6.3,-7.78 -14.43,-13.71 -21.75,-20.45 -5.84,-5.42 -13.14,-9.74 -16.5,-17.3 -6.64,-1.36 -11.64,-5.84 -13.9,-12.2 -8,-1.64 -12.9,-8.46 -18.9,-13.3 -19.7,-16.7 -38.99,-33.87 -58.45,-50.85 z m 169.25,180.55 c 6.69621,-0.29968 14.2125,5.07 12.55,12.35 -0.98,5.06 -7.38,5.71 -11.6,5.75 -4.62,0 -10.95,-0.39 -12.95,-5.35 -1.8,-6.02 4.03,-10.9 9.25,-12.3 0.89499,-0.28501 1.79339,-0.40718 2.75,-0.45 z m -19.15,17 c 8.87094,-0.015 15.5125,9.06875 15.1,17.6 0.56,4.78 -3.17,8.22 -5.65,11.8 -1.14,2.7 -1.91,5.58 -3.65,8 -3.28,2.92 -8.13,1.32 -12.05,1.6 2.02,-2.94 3.88,-5.98 5.6,-9.1 -15.14,-1.16 -29.25,7.26 -44.35,4.6 0.08,-2.6 0,-5.22 0.1,-7.8 3.92,-2.54 8.84,-1.8 13.3,-2.4 3.98,-5.32 9.56,-8.71 16.1,-9.85 1.26,-6.82 5.7,-14.75 13.7,-14.35 0.61,-0.085 1.20861,-0.099 1.8,-0.1 z m 101.45,14.15 c 9.05437,0.36094 17.81499,7.71 17.65,17.4 1.02,11.92 -11.07,22.72 -22.85,19.2 -15.24,-3.78 -17.99,-27.63 -3.65,-34.45 2.76499,-1.60501 5.83187,-2.27032 8.85,-2.15 z M 392.6,600.15 c 4.09406,-0.10125 8.46499,1.64501 8.9,6.1 1.58,7.08 -5.92,13.49 -12.7,11.05 -7.54,-2.06 -7.15,-14.03 -0.05,-16.45 1.16,-0.40501 2.48531,-0.66626 3.85,-0.7 z"
       id="path34"
       inkscape:connector-curvature="0" />
    <path
       d="m 360.2,387.9 c 1.94,-4.36 2.64,-10.98 8.24,-12.04 -1.86,4.58 -4.84,8.52 -8.24,12.04 z"
       id="path36"
       inkscape:connector-curvature="0"
       style="fill:#d3c6a8" />
    <path
       d="m 359.7,403.84 c 6.18,-5.44 11.88,-11.4 16.4,-18.3 1.22,0.74 3.66,2.24 4.9,2.98 -4.34,7.44 -10.86,13.1 -17.22,18.76 -1.02,-0.86 -3.06,-2.58 -4.08,-3.44 z"
       id="path38"
       inkscape:connector-curvature="0"
       style="fill:#f5e5c1" />
    <path
       d="m 380.64,422.06 c 5.44,-6.36 10.16,-13.26 15.06,-20.02 12.14,10.6 24.56,20.86 36.36,31.84 23.86,24.46 47.26,49.38 71.06,73.92 -1.66,1.24 -3.3,2.5 -4.94,3.76 -7.56,-0.8 -15,1.16 -20.7,6.26 -24.04,-24.36 -48.08,-48.74 -71.88,-73.32 -7.84,-8 -16.54,-15.06 -24.96,-22.44 z"
       id="path40"
       inkscape:connector-curvature="0"
       style="fill:#f5e5c1" />
    <path
       d="m 374.16,415.44 c 1.08,-4.4 6.18,-5.06 9.44,-7.12 -1.84,3.94 -3.9,7.76 -6.22,11.44 -0.8,-1.08 -2.42,-3.24 -3.22,-4.32 z"
       id="path42"
       inkscape:connector-curvature="0"
       style="fill:#f5e5c1" />
    <path
       d="m 435.28,423.02 c 34.76,-4.24 69.46,-8.86 104.22,-13.12 3.88,15 7.76,29.98 11.78,44.94 -8.6,1.12 -17.24,4.52 -20.96,12.96 -11.28,-5.64 -24.82,-8.94 -37,-4.32 -5.86,2.58 -6.88,9.58 -4.76,15.06 -17.4,-18.84 -34.84,-37.68 -53.28,-55.52 z"
       id="path44"
       inkscape:connector-curvature="0"
       style="fill:#f4722b" />
    <path
       d="m 718.28,447.04 c 4.86,-0.9 9.72,-1.86 14.6,-2.78 -0.14,2.86 -0.26,5.74 -0.4,8.6 -4.84,0 -9.68,0 -14.52,0.02 0.1,-1.96 0.2,-3.9 0.32,-5.84 z"
       id="path46"
       inkscape:connector-curvature="0"
       style="fill:#f5e5c1" />
    <path
       d="m 625.82,455.18 c 26.8,0.64 53.7,-1.32 80.04,-6.48 -0.2,2.1 -0.42,4.2 -0.6,6.3 -7.58,-1.42 -15.34,-2.86 -23.02,-1.42 -18.04,2.82 -35.96,6.36 -53.9,9.8 -0.86,-2.74 -1.68,-5.46 -2.52,-8.2 z"
       id="path48"
       inkscape:connector-curvature="0"
       style="fill:#f5e5c1" />
    <path
       d="m 573.28,461.46 c 9.82,-1.48 19.62,-3.22 29.48,-4.62 0.72,3.2 1.46,6.4 2.18,9.62 -2.98,0.38 -5.96,0.78 -8.94,1.18 -4.44,0.96 -8.86,1.92 -13.28,2.9 7.78,0.58 15.58,0.8 23.38,0.68 8.34,35.6 17.14,71.12 25.02,106.82 -2.88,4.76 -5.56,10.4 -3.24,16.02 1.8,6.44 9.8,8.78 10.94,15.54 2.54,10.08 4.7,20.28 7.18,30.4 -39.78,6.3 -79.6,12.32 -119.34,18.74 -3.5,-6.72 -6.88,-13.52 -10.38,-20.24 33.34,-3.9 66.64,-8.16 99.94,-12.44 -2,-8.04 -4.74,-15.96 -5.74,-24.2 3.94,-5.2 10.72,-7.6 13.92,-13.44 5,-8.42 2.82,-19.94 -4.04,-26.7 -6.44,-6.54 -15.48,-9.32 -23.94,-12.12 -7.98,-29.3 -15.32,-58.78 -23.14,-88.14 z"
       id="path50"
       inkscape:connector-curvature="0"
       style="fill:#f5e5c1" />
    <path
       d="m 715.98,489.94 c 0.6,-10.9 1.16,-21.8 1.78,-32.7 4.84,0 9.68,0 14.54,0.02 -0.08,1.68 -0.22,5.04 -0.3,6.72 58,4.76 116,9.32 174,14.06 -1.56,31.64 -3.12,63.3 -4.68,94.94 -4.42,0 -8.82,0 -13.2,0.02 1.94,-24.98 3.9,-49.96 5.9,-74.92 -59.34,-2.86 -118.7,-5.28 -178.04,-8.14 z"
       id="path52"
       inkscape:connector-curvature="0"
       style="fill:#f5e5c1" />
    <path
       d="m 705.35,459.2 c -25.1,2.9 -49.58,9.86 -74.9,11.2 7.5,24.1 14.54,48.3 22.3,72.3 36.92,13.86 70.91,34.23 107.65,48.45 11.4,1.88 23.24,-0.97 34.8,-0.25 9.28,3.98 17.82,11.48 19.6,21.9 15.4,6.68 31.12,12.73 46.8,18.75 2.44,-1.82 4.88,-3.66 7.3,-5.5 0.76,3.52 1.49,7.03 2.25,10.55 -0.54,-18.94 0.39,-37.89 0.15,-56.85 -17.5,-2.26 -35.06,-3.57 -52.6,-5.15 -5.56,-0.62 -7.92,-6.31 -10.1,-10.65 2.26,-4.46 5.15,-10.71 11.35,-9.25 6.34,-0.18 8.08,6.91 8.2,11.95 14.44,1.48 29,2.13 43.3,4.75 0.22,-20.46 0.31,-40.86 0.55,-61.3 -56,-2.18 -111.98,-3.97 -168,-6.15 0.48,-14.94 1.01,-29.83 1.35,-44.75 z m 146.75,57.5 c 5.95781,0.24282 11.88501,4.89501 11.45,11.3 0.82,11.14 -16.36,15.11 -22.1,6.45 -2.96,-5.7 -0.99,-13.48 4.95,-16.4 1.76,-1 3.71406,-1.43094 5.7,-1.35 z"
       id="path54"
       style="fill:#f5e5c1"
       inkscape:connector-curvature="0" />
    <path
       d="m 530.78,488 c 9.34,-1.58 18.8,-2.52 28.26,-3.04 2.68,10.26 5.34,20.52 8.04,30.78 -3.78,-0.38 -7.58,-0.74 -11.36,-1.12 -1.38,-5.92 -2.76,-12.52 -7.94,-16.42 -5.16,-4.68 -12.42,-4.94 -19,-5.02 0.66,-1.72 1.32,-3.46 2,-5.18 z"
       id="path56"
       inkscape:connector-curvature="0"
       style="fill:#f4722b" />
    <path
       d="m 655.7,552.88 c 34.42,14.48 66.86,33.34 101.82,46.58 -3.24,7.2 -4.14,15.66 -0.58,22.92 2.42,7.12 9.34,12.72 17.1,11.84 8.12,-1.8 15.74,-5.42 24.04,-6.58 5.18,-0.54 9.64,-3.32 13.72,-6.38 19.48,8.42 39.5,15.62 59.06,23.88 -0.34,32.3 -0.54,64.58 -0.88,96.88 -23.34,-0.26 -46.66,-0.52 -70,-0.82 -6.82,-0.24 -13.8,0.8 -20.5,-0.76 -11.38,-4.44 -21.54,-11.36 -31.1,-18.84 -15.08,-10.28 -31,-19.34 -45.32,-30.72 -7.48,-6 -16.02,-10.48 -23.6,-16.32 -8.22,-6.4 -17.98,-10.26 -27.24,-14.8 11.24,-2.62 22.5,-5.16 33.74,-7.76 -10.02,-33.06 -20.2,-66.06 -30.26,-99.12 z"
       id="path64"
       inkscape:connector-curvature="0"
       style="fill:#f5e5c1" />
    <path
       d="m 882.8,640.54 c 1.54,-19.76 3.04,-39.54 4.7,-59.3 4.44,0 8.9,0 13.38,0 -1.02,21.58 -2.06,43.14 -3.2,64.7 -4.98,-1.76 -9.94,-3.58 -14.88,-5.4 z"
       id="path68"
       inkscape:connector-curvature="0"
       style="fill:#f5e5c1" />
    <path
       d="m 472.16,644.14 c 9.5,-1.16 18.98,-2.42 28.5,-3.4 4.6,6.08 7.94,12.9 11.1,19.8 2.96,6.64 8.82,11.96 9.92,19.4 7.38,40.68 14.88,81.36 22.32,122.04 -18.96,1.66 -37.94,3.2 -56.9,4.8 -3,-11.88 -6.06,-23.9 -12.18,-34.64 9.1,-1.2 18.2,-2.58 27.26,-4.06 -10,-41.32 -19.94,-82.66 -30.02,-123.94 z"
       id="path72"
       inkscape:connector-curvature="0"
       style="fill:#f5e5c1" />
    <path
       d="m 882.16,649.78 c 5.04,1.82 10.06,3.66 15.08,5.52 -1.72,35.56 -3.48,71.1 -5.24,106.66 -20.7,0.84 -41.42,2.36 -62.12,2.62 -10.82,-2.66 -21.1,-7.42 -31.4,-11.6 25.16,-0.46 50.34,-0.6 75.52,-1.02 2.78,-34.06 5.2,-68.14 8.16,-102.18 z"
       id="path74"
       inkscape:connector-curvature="0"
       style="fill:#f5e5c1" />
    <path
       d="m 596.06,672.84 c 14,-3.18 27.86,-7.7 42.16,-9.02 11.5,2.48 21.86,8.7 32.36,13.84 10.38,7.08 22,12.12 31.98,19.8 11.58,8.58 23.74,16.36 35.92,24.06 10.14,6.24 18.56,15.28 29.98,19.38 -25.48,-0.34 -50.98,-0.54 -76.46,-0.94 -2.16,32.08 -4.94,64.12 -6.74,96.22 -6.5,-17.42 -15.46,-33.76 -22.6,-50.88 -8.14,-12.32 -14.62,-25.6 -20.8,-39 -3.06,-7.74 -3.94,-16.4 -8.62,-23.48 -4.1,-6.5 -10.38,-11.18 -14.9,-17.34 -8.02,-10.48 -13.62,-22.62 -22.28,-32.64 z"
       id="path76"
       inkscape:connector-curvature="0"
       style="fill:#f5e5c1" />
    <path
       d="m 546.02,684.02 c 13.7,-3.18 27.44,-6.24 41.14,-9.46 1.04,5.12 1.34,11.08 6.26,14.16 11.4,8.5 20.88,19.12 29.52,30.34 10.34,11.12 12.08,26.82 15.52,40.96 2.74,15.54 14.8,26.96 19.58,41.72 7.48,15.34 12.86,31.76 21.8,46.36 7.16,8.42 1.74,20.02 2.14,29.96 -59.92,-1.1 -119.86,-1.8 -179.78,-2.96 -3.76,-16.38 -5.88,-33.12 -10.54,-49.3 28.1,-4.68 56.22,-9.14 84.32,-13.8 -9.96,-42.66 -20,-85.32 -29.96,-127.98 z"
       id="path78"
       inkscape:connector-curvature="0"
       style="fill:#f5e5c1" />
    <path
       d="m 700.02,754.02 c 26.66,-0.2 53.32,-0.82 80,-0.84 12.42,-0.6 21.42,9.52 32.96,12.34 -31.66,1.72 -63.32,2.92 -94.96,4.54 -4.72,48.66 -9.32,97.32 -14.04,145.98 -65.92,-5.86 -131.86,-11.56 -197.8,-17.42 -0.76,-5.48 -1.64,-10.92 -2.58,-16.36 61.48,3.08 122.92,6.48 184.38,9.8 1.22,-12.1 1.66,-24.3 3.74,-36.3 1.7,-33.98 5.66,-67.82 8.3,-101.74 z"
       id="path80"
       inkscape:connector-curvature="0"
       style="fill:#f5e5c1" />
    <path
       d="m 733.92,794.08 c 7.02,-1.62 14.08,-5.68 21.2,-5.36 10.04,9.2 18.9,19.62 28.22,29.56 -2.58,2.98 -5.08,6.02 -7.5,9.12 5.48,-0.3 11.96,-4.9 16.44,0.26 -5.48,4.68 -11,9.3 -16.36,14.1 -13.98,-14.1 -27.7,-28.48 -41.74,-42.56 -0.06,-1.28 -0.2,-3.84 -0.26,-5.12 z"
       id="path82"
       inkscape:connector-curvature="0"
       style="fill:#f5e5c1" />
    <path
       d="m 431.36,835.6 c 16.52,-2.72 33.06,-5.38 49.58,-8.1 4.92,15.46 7,31.56 10.6,47.34 -21.18,-0.02 -42.38,-0.46 -63.56,-0.92 1.16,-12.76 2.24,-25.54 3.38,-38.32 z"
       id="path84"
       inkscape:connector-curvature="0"
       style="fill:#f5e5c1" />
    <path
       d="m 403.32,840.24 c 5.86,-1.02 11.72,-2 17.6,-2.96 1.68,13.56 3.38,27.12 5.08,40.68 22.3,1.4 44.64,2.2 66.92,3.8 0.88,5.3 1.86,10.6 2.64,15.92 -27.18,-2.36 -54.38,-4.72 -81.56,-7.18 -4.06,-0.52 -8.1,0.24 -12.06,1.08 0.58,-17.12 0.94,-34.22 1.38,-51.34 z"
       id="path86"
       inkscape:connector-curvature="0"
       style="fill:#f5e5c1" />
    <path
       d="m 783.56,849.72 c 7.08,-2.68 13.52,-6.66 19.54,-11.22 -5.1,5 -10.16,10.04 -15.56,14.76 -1.34,-1.2 -2.66,-2.36 -3.98,-3.54 z"
       id="path88"
       inkscape:connector-curvature="0"
       style="fill:#f5e5c1" />
    <path
       d="m 798.9,886.16 c 19.3,-5.26 32.64,-23.46 37.46,-42.2 7.68,26.46 18.32,52.02 27.14,78.12 -26.3,-12.18 -53.32,-22.8 -79.42,-35.4 5.26,-1.7 10.5,-3.48 15.74,-5.22 l -0.92,4.7 z"
       id="path90"
       inkscape:connector-curvature="0"
       style="fill:#f5e5c1" />
    <path
       d="m 792.18,859.88 c 3.06,-2.76 6.06,-5.58 9.08,-8.4 -0.94,3.54 -1.96,7.04 -2.96,10.56 -2.04,-0.72 -4.08,-1.46 -6.12,-2.16 z"
       id="path92"
       inkscape:connector-curvature="0"
       style="fill:#f5e5c1" />
    <path
       d="m 804.42,871.18 c 0.28,-7.18 6.86,-11.6 11.2,-16.52 1.84,1.98 3.7,3.96 5.58,5.96 -3.42,4.16 -6.64,8.56 -10.84,11.96 -1.82,2.14 -4.68,0.38 -5.94,-1.4 z"
       id="path94"
       inkscape:connector-curvature="0"
       style="fill:#f5e5c1" />
  </g>
</svg>
