<?xml version="1.0" encoding="UTF-8" standalone="no"?>
<svg
   xmlns:dc="http://purl.org/dc/elements/1.1/"
   xmlns:cc="http://creativecommons.org/ns#"
   xmlns:rdf="http://www.w3.org/1999/02/22-rdf-syntax-ns#"
   xmlns:svg="http://www.w3.org/2000/svg"
   xmlns="http://www.w3.org/2000/svg"
   xmlns:sodipodi="http://sodipodi.sourceforge.net/DTD/sodipodi-0.dtd"
   xmlns:inkscape="http://www.inkscape.org/namespaces/inkscape"
   width="1280"
   height="1280"
   viewBox="0 0 1024 1024"
   version="1.1"
   id="svg2"
   inkscape:version="0.48.1 "
   sodipodi:docname="bow_pin_heavy.svg">
  <metadata
     id="metadata112">
    <rdf:RDF>
      <cc:Work
         rdf:about="">
        <dc:format>image/svg+xml</dc:format>
        <dc:type
           rdf:resource="http://purl.org/dc/dcmitype/StillImage" />
      </cc:Work>
    </rdf:RDF>
  </metadata>
  <defs
     id="defs110" />
  <sodipodi:namedview
     pagecolor="#ffffff"
     bordercolor="#666666"
     borderopacity="1"
     objecttolerance="10"
     gridtolerance="10"
     guidetolerance="10"
     inkscape:pageopacity="0"
     inkscape:pageshadow="2"
     inkscape:window-width="1920"
     inkscape:window-height="1018"
     id="namedview108"
     showgrid="false"
     inkscape:snap-page="true"
     fit-margin-top="0"
     fit-margin-left="0"
     fit-margin-right="0"
     fit-margin-bottom="0"
     inkscape:zoom="0.6609375"
     inkscape:cx="466.00473"
     inkscape:cy="640"
     inkscape:window-x="-8"
     inkscape:window-y="-8"
     inkscape:window-maximized="1"
     inkscape:current-layer="layer1"
     inkscape:object-nodes="true" />
  <g
     inkscape:groupmode="layer"
     id="layer1"
     inkscape:label="background">
    <rect
       style="fill:#3e3e3e;fill-opacity:1;fill-rule:nonzero;stroke:none"
       id="rect3090"
       width="1024"
       height="1024"
       x="1.0658141e-013"
       y="2.2737368e-013" />
  </g>
  <g
     inkscape:groupmode="layer"
     id="layer2"
     inkscape:label="foreground">
    <path
       style="fill:#b5a98e"
       d="M 768.9375 916.75 C 767.8625 961.75 770.0625 1006.8125 767.5625 1051.8125 C 791.9625 1051.4125 816.3375 1050.125 840.6875 1048.5 L 880.78125 1049.3125 C 897.65625 1048.7625 914.5375 1047.95 931.4375 1048.25 L 981.59375 1048.4375 C 982.29482 1049.6419 982.98856 1050.8568 983.6875 1052.0625 L 981.75 1048.4375 C 999.45 1045.8125 1017.4125 1046.625 1035.1875 1044.875 C 1043.7125 1044.05 1052.2686 1043.9875 1060.8438 1044.0625 C 1064.1186 1074.3125 1063.6875 1104.7625 1066.1875 1135.0625 C 1066.1875 1160.7625 1069.5625 1186.3375 1069.4375 1212.0625 C 1069.4375 1216.4875 1067.5312 1220.5686 1066.1562 1224.7188 L 1035.6562 1223.8125 C 1001.8564 1225.7875 968.0125 1227.2 934.1875 1229 L 888.25 1230.8438 L 887.75 1231.5625 C 884.47925 1233.1819 881.01949 1234.096 877.40625 1234.3438 C 859.13125 1235.8936 840.79375 1236.4814 822.46875 1236.9062 C 805.54375 1238.3065 788.5625 1239.2125 771.5625 1239.3125 C 771.5375 1246.5625 771.58125 1253.8125 771.65625 1261.0625 C 794.38125 1263.6875 817.26875 1259.05 839.96875 1262.375 C 859.99375 1263.425 880.4625 1257.9435 900.1875 1263.5938 L 943.25 1261.7188 C 943.56862 1262.726 943.86554 1263.7436 944.1875 1264.75 L 943.34375 1261.7188 C 978.11875 1255.9937 1012.025 1246.0875 1047 1241.6875 C 1057.2685 1240.1816 1066.5498 1240.2338 1071.1875 1238.8438 C 1101.5625 1233.8438 1131.975 1229.0063 1162.625 1226.0312 C 1190.825 1222.0563 1219.05 1217.9313 1247.5 1215.9062 C 1220 1216.7812 1192.5813 1220.8937 1165.0312 1219.2188 C 1140.3313 1217.3438 1115.7625 1221.8875 1091.0625 1221.4375 C 1090.7625 1201.2375 1089.7375 1180.9937 1086.0625 1161.0938 C 1082.3625 1141.0186 1084.9686 1120.5375 1083.2188 1100.3125 C 1081.2686 1081.2125 1084.4187 1062.0938 1082.9688 1042.9688 L 1088.9062 1043.0625 C 1088.6562 1046.9125 1088.375 1050.75 1088.125 1054.625 C 1097.725 1043.075 1112.3563 1038.8125 1125.9062 1033.8125 C 1095.4563 1030.9875 1065.0625 1027.5938 1034.6875 1024.2188 C 1014.6719 1022.2499 994.70254 1019.1046 974.5625 1018.9375 C 971.68535 1018.9136 968.82187 1018.9531 965.9375 1019.0625 L 920.375 1021.2188 C 919.53464 1019.1412 918.6894 1017.0562 917.875 1014.9688 C 918.475 1016.5188 919.7125 1019.6438 920.3125 1021.2188 C 904.1375 1021.3438 887.975 1022.375 871.875 1023.875 L 832.875 1010.4062 L 825.75 1015.9375 C 825.125 1018.4375 824.46875 1020.9438 823.84375 1023.4688 C 809.01875 1023.6685 794.20625 1024.3375 779.40625 1024.1875 C 778.83125 1006.1125 779.00625 988 777.28125 970 C 776.10625 956.65 775.84375 943.23125 777.34375 929.90625 C 776.16875 934.70625 774.64375 939.425 773.09375 944.125 C 771.14375 935.1 769.5625 925.95 768.9375 916.75 z "
       id="path70"
       transform="scale(0.8,0.8)" />
    <path
       d="m 584.76,0 41.82,0 c -13.32,0.46 -26.64,0.74 -39.96,1.12 5.44,19.82 3.38,40.54 5.56,60.76 1.2,22.04 0.74,44.3 4.86,66.06 1.66,9.26 1.54,18.7 1.46,28.06 4.32,0.44 8.66,0.9 12.94,1.78 13.32,3.2 27.02,0.34 40.48,-0.2 22.74,-0.46 45.4,-2.56 68.16,-2.94 19.2,-2.2 38.7,-0.52 57.78,-3.82 17.64,-5.22 36.14,-6.12 54.22,-9.06 35.06,-5.3 70.62,-4.5 105.9,-6.72 14.92,-0.4 29.84,-1.58 44.76,-1.1 -8.7,5.02 -18.96,4.74 -28.58,6.32 -39.18,5.56 -78.4,10.84 -117.56,16.54 -0.28,17.72 0.28,35.48 1.96,53.12 1.04,10.8 -2.58,21.4 -1.34,32.18 1.8,18.78 2.12,37.66 2.04,56.52 -19.88,3.22 -39.72,6.76 -59.32,11.46 -21.82,4.92 -42.94,13.28 -65.5,14.38 -37.14,5.32 -74.52,9.72 -112.12,9.02 -0.58,-5.36 -1.2,-10.72 -1.84,-16.08 6.72,-3.86 13.58,-7.92 21.38,-9.12 59.42,-10.68 118.74,-21.92 178.18,-32.56 4.9,-1.12 10.52,-1.52 14.4,-5.06 4.42,-4.5 2.18,-11.2 1.32,-16.6 -5.76,-25.42 -11.14,-50.9 -16.66,-76.34 -1.06,-5.82 -3.98,-13.16 -11.1,-12.88 -20.74,-0.98 -41.42,2.08 -62.16,2.12 -101.3,4.78 -202.62,9.16 -303.92,13.9 -11.28,0.12 -22.62,0.42 -33.7,2.74 -0.46,-1.72 -1.42,-5.16 -1.88,-6.88 60.62,-6.36 121.4,-11.24 182.04,-17.58 2.14,-12.54 7.9,-24.3 8.56,-37.12 3.02,-40.64 4.9,-81.38 7.82,-122.02 z"
       id="path6"
       inkscape:connector-curvature="0"
       style="fill:#b5a98e" />
    <path
       d="m 111.16,19.74 c 3.56,-0.6 7.04,-1.52 10.38,-2.88 2.08,13.6 1.78,27.4 3.3,41.08 1.88,19.18 -2.54,38.2 -1.62,57.4 -10.34,5.34 -18.46,13.8 -27,21.5 0.64,-19.86 6.14,-39.2 6.78,-59.08 3.16,-19.28 4.26,-38.86 8.16,-58.02 z"
       id="path8"
       inkscape:connector-curvature="0"
       style="fill:#b5a98e" />
    <path
       d="m 327.82,144.14 c 9.26,-30.98 19.12,-61.78 28.9,-92.6 1.48,9.44 2.04,19 2.2,28.54 0.3,20.76 3.6,41.28 5.82,61.88 0.7,15.84 6,30.94 9.76,46.24 3.62,17.66 13.46,33.08 20.4,49.52 -12.06,34.74 -24.94,69.2 -36.78,104 -20,-26.56 -39.28,-53.68 -60.08,-79.64 -1.16,-1.92 -3.42,-3.5 -3.26,-5.96 4.92,-28.18 15.28,-54.94 23.46,-82.24 2.72,-10.08 7.78,-19.4 9.58,-29.74 z"
       id="path10"
       inkscape:connector-curvature="0"
       style="fill:#f5e5c1" />
    <path
       d="m 120.54,134.56 c 8.78,-7.6 20.88,-8.64 30.96,-13.82 -0.04,2.92 -0.58,5.84 -2.68,8.04 -10.88,13.8 -21.76,27.7 -29.82,43.4 13.58,-15.46 28.24,-30.1 39.32,-47.6 9.04,10.78 16.36,22.88 25.6,33.5 2.32,2.68 5.36,6.82 2.38,10.16 -14.88,19 -31.54,36.54 -47.14,54.94 -1.9,1.64 -3.84,5.16 -6.82,3.76 -11.7,-5.44 -22.98,-11.8 -34.94,-16.66 -1.44,-2.3 -3.08,-4.52 -4.08,-7.06 -2.86,-15.9 1.14,-32.06 7.12,-46.76 3.76,-9.58 12.64,-15.4 20.1,-21.9 z"
       id="path12"
       inkscape:connector-curvature="0"
       style="fill:#f4722b" />
    <path
       d="m 216.2,156.26 c 14,1.04 27.78,4.28 41.86,4.2 10.44,0.02 20.84,0.76 31.26,1.36 -0.6,2.88 -1.24,5.76 -1.9,8.64 -16.58,1.18 -33.1,3.02 -49.64,4.54 -7.46,-5.98 -13.24,-13.94 -21.58,-18.74 z"
       id="path14"
       inkscape:connector-curvature="0"
       style="fill:#b5a98e" />
    <path
       d="m 201.7,161.8 c -10.94,11.1 -20.83,23.17 -30.15,35.65 -12.1,16.18 -27.08,30.22 -37.7,47.5 7.46,6.24 14.38,13.1 22.2,18.9 34.74,26.86 69.01,54.36 103.95,81 5.68,-2.28 13.61,-7.79 18.85,-1.85 16.44,16.24 32.74,32.64 49.3,48.8 2.12,2.4 5.19,4.66 5.55,8.1 -1.14,4.2 -3.27,8.04 -5.05,12 28.4,22.76 56.83,45.48 85.05,68.5 8.98,8.32 17.55,17.1 25.95,26 4.04,5.48 13.51,3.71 17.15,-1.45 3.64,-4.8 0.82,-10.87 0.2,-16.15 -12.98,-15 -26.73,-29.5 -37.55,-46.2 -19.14,-28.2 -39.98,-55.34 -56.9,-85 -6.76,-12.76 -18.03,-22.11 -26.45,-33.65 -16.52,-21.46 -34.97,-41.44 -50.25,-63.8 -2.32,-11.2 -2.57,-24.13 -10.85,-33.05 -24.3,-21.9 -49.34,-43.02 -73.3,-65.3 z m 3.75,16.75 c 0.48,3.62 1.56,7.39 0.1,10.95 -3,8.5 -5.98,17.27 -11.3,24.65 -8.62,10.28 -19.47,18.78 -32.05,23.6 20.28,-13.54 32.9,-35.77 38.8,-59.05 1.1,-0.04 3.35,-0.11 4.45,-0.15 z"
       id="path16"
       style="fill:#f4722b"
       inkscape:connector-curvature="0" />
    <path
       d="m 35.56,270.98 c 5.56,0.02 11.08,0.56 16.54,1.5 31.26,4.26 62.54,8.2 93.8,12.38 7.34,1 15.42,0.82 21.58,5.54 24.58,16.8 49,33.84 73.68,50.46 -2.72,11.52 -8.48,22.26 -11,33.92 -3.94,-0.04 -7.9,-0.08 -11.86,-0.1 -8.22,-6.7 -17.14,-12.48 -25.02,-19.58 10.44,0.52 20.88,2.38 31.36,1.36 -17.82,-6.7 -38.62,-5.16 -54.44,-16.78 -22.08,-14.42 -45.48,-26.62 -68.66,-39.12 -21.92,-10.02 -44,-19.68 -65.98,-29.58 z"
       id="path20"
       inkscape:connector-curvature="0"
       style="fill:#f5e5c1" />
    <path
       d="m 552.92,357.92 c 3.68,-22.88 10.54,-46.1 25.14,-64.48 3.24,20.34 9.72,40.06 12,60.56 0.3,13.92 2.04,28.4 -2.66,41.82 -2.78,8.94 -7.54,17.14 -13.02,24.68 0.28,0.92 0.82,2.76 1.1,3.68 -3.98,0.52 -9.4,2.7 -11.86,-1.88 -11.12,-19.38 -12.42,-42.58 -10.7,-64.38 z"
       id="path22"
       inkscape:connector-curvature="0"
       style="fill:#f4722b" />
    <path
       d="m 520.32,324.26 c 8.52,-1 17.18,-1.12 25.56,-3.14 -1.48,5.08 -2.92,10.18 -4.28,15.3 -54.64,5.74 -109.02,13.88 -163.74,18.74 -1.74,-2.64 -3.68,-5.18 -5.06,-8.04 -0.74,-3.42 1.44,-6.58 2.42,-9.72 11.72,0.3 23.3,-1.58 34.94,-2.52 36.72,-3.52 73.44,-7.14 110.16,-10.62 z"
       id="path24"
       inkscape:connector-curvature="0"
       style="fill:#b5a98e" />
    <path
       d="m 257.38,357.2 c 2.92,-6.22 10.28,-7.68 16.32,-9.14 18.12,18.24 36.32,36.42 54.84,54.24 -7.76,21.64 -18.64,41.92 -28.04,62.84 -9.78,-2.94 -19.72,-5.36 -29.48,-8.38 5.24,-20.28 9.54,-40.78 14.2,-61.18 -21.52,17.6 -41.66,36.86 -62.76,54.96 -5.78,4.12 -12.94,5.58 -19.72,7.16 3.24,-4.46 6.44,-8.96 9.24,-13.7 15.62,-28.68 30.18,-57.92 45.4,-86.8 z"
       id="path26"
       inkscape:connector-curvature="0"
       style="fill:#f5e5c1" />
    <path
       d="m 137.94,350.14 c 6.6,-0.44 13.26,-1.7 19.84,-0.62 3.5,1.32 6.32,3.9 9.32,6.08 -8.04,0.94 -16.14,1.08 -24.2,1.1 -0.98,8.36 -2.62,16.78 -1.76,25.22 4.4,19.82 5.92,40.14 9.46,60.14 0.38,13.52 4.38,26.48 5.58,39.9 2.92,10.98 1.86,22.72 6.1,33.38 49.24,-1.98 98.4,-5.2 147.64,-6.78 14.34,-0.88 28.74,-2.48 43.1,-1.48 0.6,1.24 1.8,3.72 2.4,4.96 -15.3,0.26 -30.18,4.18 -45.4,5.12 -14.2,1 -28.06,4.68 -42.32,5 -12.04,0.14 -23.72,4.56 -35.8,2.98 -39.72,-4.3 -79.66,-5.64 -119.56,-7.12 1.54,-34.66 4.96,-69.22 7.08,-103.84 0.62,-11.98 2.86,-24 1.58,-36 -0.4,-4.22 -4.7,-7.54 -8.88,-6.38 -12.1,1.82 -24.1,-1.26 -36.22,-0.98 C 57.2,370.62 38.66,367.66 20,366.9 13.3,366.58 6.66,365.74 0,365.04 l 0,-8.28 c 45.98,-2.38 91.94,-4.78 137.94,-6.62 z"
       id="path28"
       inkscape:connector-curvature="0"
       style="fill:#b5a98e" />
    <path
       d="m 633.3,385.1 c 4.28,-3.16 9.46,-4.5 14.66,-5.1 0.98,3.16 3.32,7.2 -0.18,9.74 -16.12,14.92 -36.36,24.68 -51.98,40.24 -11.94,10.74 -22.28,23.2 -30.94,36.72 -3.62,5.48 -4.34,12.7 -8.96,17.5 -5.46,3.4 -11.92,-2.44 -10.08,-8.22 5.54,-22.02 22.58,-38.44 38.18,-53.88 14.22,-15.08 32.34,-25.44 49.3,-37 z"
       id="path30"
       inkscape:connector-curvature="0"
       style="fill:#f4722b" />
    <path
       d="m 1010.26,458.92 c 4.66,-0.6 9.24,-1.64 13.74,-2.98 l 0,30.32 c -25.34,0.78 -50.9,0.12 -75.94,4.58 -32.54,3.2 -65.26,3.28 -97.82,5.96 -0.08,25.16 2.36,50.18 2.88,75.32 1.84,23.08 1.94,46.24 3.7,69.34 13.76,0.06 27.44,-1.2 41.14,-2.02 21.48,-0.04 42.84,-2.36 64.3,-2.72 20.52,-2.24 41.42,-0.56 61.74,-4.18 l 0,27.68 c -38.04,0.38 -75.94,3.66 -113.94,4.72 -68.78,4.06 -137.68,5.84 -206.42,10.64 -0.02,2.62 -0.02,5.22 -0.04,7.84 -2.82,-5.84 -7.41721,-10.83235 -12.43721,-15.69235 -6.42,-8.7 -17.44,-11.04 -27.52,-12.36 -0.8,-1.88 4.19721,-6.30765 3.39721,-8.14765 27.8,-3.38 55.42,-8.24 83.16,-12.26 l 46.88,-5.98 c 3.76,-3.52 8.7,-6.64 9.2,-12.3 5.64,-32.92 11.02,-65.92 16.54,-98.9 1.26,-5.62 -0.04,-13.56 -6.84,-14.64 -26,-2.16 -51.98,2.9 -78,1.72 -12.06,-0.26 -24.02,1.82 -36.08,1.82 -13.46,0.16 -26.96,0.06 -40.34,1.76 -1.16,-0.46 -3.5,-1.38 -4.66,-1.84 -0.24,-5.02 -0.52,-10.02 -0.76,-15.04 13.96,-0.22 27.96,0.46 41.92,-0.62 104.06,-10.68 208.14,-21.34 312.2,-32.02 z"
       id="path38"
       inkscape:connector-curvature="0"
       style="fill:#b5a98e"
       sodipodi:nodetypes="ccccccccccccccccccccccccccccc" />
    <path
       d="m 460.78,394.96 c 20.56,-5.66 42.02,-6.9 63.24,-6.5 6.12,0.12 12.04,1.74 17.96,3.18 1.16,3.56 2.3,7.12 3.68,10.6 4.12,11.28 13.44,19.86 16.32,31.7 2.88,-4.22 5.96,-9.04 12.02,-6.84 -9.34,12.1 -19.26,23.9 -25.9,37.82 -8,-13.28 -16.3,-26.8 -28.02,-37.16 -4.96,-4.56 -11.66,-6.2 -18.02,-7.82 6.38,4.86 12.8,9.9 17.3,16.64 14.94,21.38 22.22,47.48 23.3,73.36 0.68,13.88 -3.52,27.22 -5.64,40.76 9.86,-11.9 7.86,-28.2 13.56,-41.8 0.52,-6.26 0.76,-12.52 0.82,-18.78 14.34,1.18 26.5,9.16 39.34,14.78 4.82,2.82 10.6,-1.6 8.14,-7 -5.1,-8.74 -15.02,-12.74 -23.42,-17.58 9.68,-12.66 19.64,-25.32 32.08,-35.44 7.64,3.62 15.78,6.3 22.96,10.84 4.78,3.1 5.88,9.14 7.22,14.28 2.8,13.76 5.76,27.8 4.54,41.92 -1.56,20.36 -2.54,41.64 -12.28,60.08 -8.14,15.38 -16.6,30.84 -28.3,43.84 -7.78,9.18 -16.96,17.04 -24.66,26.26 16.64,-6.96 33,-16.04 45.3,-29.48 7.56,1.18 15.38,2.72 21.48,7.66 9.38,7.3 18.62,15.72 23.24,26.94 0.8,1.84 1.58,3.7 2.38,5.58 10.08,1.32 21.1,3.66 27.52,12.36 5.02,4.86 3.84,12.42 6.66,18.26 9.1,9.8 14.84,22.02 20.8,33.84 -0.76,-11.72 12.08,-21.06 22.88,-16.34 6.84,2.22 9.52,9.28 11.88,15.36 7.12,2.22 14.84,7.12 14.34,15.62 1.6,11.24 -11.24,20.48 -21.52,16.14 -6.32,-1.98 -8.58,-8.74 -11.32,-14.04 -2.82,-0.96 -5.62,-1.9 -8.42,-2.84 5.52,10.16 9.94,20.86 15.6,30.96 9.74,17.02 16.24,35.6 24.9,53.14 4.02,9.16 9.18,17.74 14.2,26.4 15.78,30.98 29.6,62.96 46.12,93.62 7.56,14.38 13.26,29.66 19.86,44.5 1.42,3.72 2.72,7.5 4.02,11.3 3.84,10.66 6.04,21.8 8.18,32.92 l -11.32,0 c -5.96,-9.92 -10.46,-20.6 -16.2,-30.64 -3.28,-5.82 -7.18,-11.26 -10.56,-17.02 -16.52,-30.26 -33.12,-60.5 -48.16,-91.56 -5.54,-11.02 -10.52,-22.36 -16.62,-33.1 3.38,8.68 7.08,17.24 10.16,26.04 3.76,11.2 11.1,20.7 15.22,31.74 -11.12,-8.02 -18.92,-19.88 -24.42,-32.26 -5.42,-13.16 -13.76,-24.96 -18.08,-38.6 -3.52,-8.92 -7.36,-17.7 -10.84,-26.62 -3.72,-9.6 -8.88,-18.56 -12.16,-28.32 -5.2,-13.68 -6.8,-28.62 -14.18,-41.46 2.4,2 4.8,3.96 7.26,5.94 -5.56,-14.42 -12.2,-28.42 -16.32,-43.36 -3.5,3.8 -7.06,7.5 -10.7,11.16 7.5,4.72 12.64,11.98 15.74,20.18 -5.3,-6.2 -9.4,-13.52 -15.82,-18.66 -7.16,0.74 -14.24,2.12 -21.42,2.4 0.24,7.84 0.62,17.28 -6.26,22.66 -6.22,5.78 -16.26,5.02 -22.36,-0.52 -11.08,-9.56 -14.02,-25.92 -8.5,-39.22 -2.04,-0.06 -4.06,-0.12 -6.06,-0.16 -0.62,13.76 -0.52,27.56 -1.64,41.3 -0.94,3.84 -2.16,7.62 -3.4,11.38 -1.56,-7.22 -2.82,-14.54 -3.32,-21.9 0.06,-13.4 -0.12,-26.84 -1.72,-40.16 -2.48,14.74 -3.02,29.7 -4.32,44.56 -2.1,30.16 -4.96,60.26 -7.28,90.4 -2.04,22.54 -5.26,45.34 -1.82,67.92 1.5,10.58 0.78,21.28 0.9,31.94 0,8.68 2.36,17.14 2.26,25.84 -0.08,23.36 -0.02,46.74 0.04,70.1 l -18.8,0 c -0.06,-21.98 0.18,-43.96 0.24,-65.96 0.18,-9.58 -4.06,-18.54 -3.92,-28.12 -0.06,-11.3 0.12,-22.66 -1.68,-33.84 -2.14,-13.28 -1.86,-26.74 -1.72,-40.12 0.18,-14.08 3.18,-27.96 3.32,-42.06 0.28,-31.72 -0.48,-63.46 0.54,-95.18 -4.18,-1.42 -9.48,-1.5 -12.24,-5.48 -4,-5.08 -3.34,-11.96 -4.04,-18 -10.14,-5.5 -14.32,-16.54 -20.26,-25.68 2.66,-6.56 7.96,-11.28 13.22,-15.72 -15.4,1.94 -30.3,6.78 -45.82,7.94 -8.14,1.28 -16.58,-0.06 -24.58,2.06 -1.64,4.18 -0.2,8.94 4.54,9.94 10.94,1.58 21.98,-1.38 32.98,-0.88 -0.2,6.82 -0.6,13.64 -0.4,20.48 0.8,-6.2 0.7,-12.48 0.66,-18.72 4.64,-0.16 9.26,-0.32 13.9,-0.48 0.16,4.94 0.32,9.88 0.58,14.84 6.62,3.24 13.7,7.56 15.68,15.2 4.1,9.82 -4.96,18.1 -5.08,27.72 -1.32,19.36 -0.96,38.82 -3.16,58.14 -0.86,16.72 -1.74,33.48 -1.74,50.24 0.02,0.64 0.04,1.92 0.06,2.56 0.68,11.12 2.06,22.36 -0.5,33.36 -4.74,24.12 -0.06,48.88 -4.36,73.02 -6.34,-18.78 -5.18,-39 -5.08,-58.52 -6.06,5.66 -13.84,8.42 -21.52,11 -5.98,1.98 -9.98,12.88 -16.9,7.16 -4.32,-5.24 -5.22,-12.86 -11.04,-17.02 -17.18,-14.4 -18.98,-44.48 -1.68,-59.44 8.74,-7.88 21.28,-9.94 32.56,-7.62 -1.68,-8.06 -3.8,-16.74 -0.84,-24.76 1.72,-4.4 6.86,-5.42 10.6,-7.46 3.82,-19.06 3.26,-38.58 1.9,-57.84 -0.16,-8.42 -9.78,-11.82 -12.22,-19.26 -0.78,-2.72 -1.2,-5.52 -1.68,-8.28 -3.44,4.2 -7.2,8.94 -12.9,9.9 -7.7,1.88 -15.1,-1.66 -22.1,-4.36 -2.38,10.08 -5.98,20.22 -5.12,30.76 1.1,16.82 0.38,33.7 0.58,50.56 -0.12,11.26 0.7,22.6 -1.26,33.76 -2.22,11.9 -0.32,24.12 -2.48,36.04 -3.9,19.18 -1.66,38.82 -2.24,58.22 0.04,33.96 -0.06,67.94 0.06,101.9 l -20.28,0 c 0,-41.34 0,-82.68 0,-124.02 0.04,-11.98 -0.66,-24.06 1.4,-35.94 2.02,-12.52 -0.14,-25.36 2.78,-37.78 2.52,-11.26 1.82,-22.82 1.8,-34.24 -0.3,-15.18 1.12,-30.48 -1.7,-45.52 -2.04,-9.66 2.52,-18.92 2.7,-28.52 0.42,-14.6 0.4,-29.22 -0.64,-43.8 0.96,-2.7 1.86,-5.44 2.76,-8.16 1.16,-0.38 3.5,-1.14 4.66,-1.5 0.26,-1 0.76,-2.96 1.02,-3.94 -5.64,-2.36 -11.28,-4.78 -16.58,-7.84 -13.92,-8.24 -29.62,-13.38 -42.42,-23.54 -9.58,-7.56 -21.96,-14.38 -24.88,-27.24 -5.18,-21.04 -8.12,-42.54 -10.48,-64.06 -1.88,-17.38 0.74,-34.76 1.6,-52.12 0.16,-5.98 2.66,-11.46 5.06,-16.8 7.34,5.6 14.5,11.44 21.88,17.02 12.52,9.32 22.56,21.42 33.68,32.26 13.18,13.66 40.7,2.74 40.84,-16.34 0.12,-7.14 0.46,-15.68 -5.26,-20.94 -7.44,-6.9 -12.48,-15.76 -18.72,-23.64 -11.54,-13.4 -21.08,-28.3 -30.98,-42.92 13.4,-8.52 28.12,-14.76 43.26,-19.46 z"
       id="path32"
       inkscape:connector-curvature="0"
       style="fill:#f4722b" />
    <path
       d="m 474.42,426.98 c 11.58,-2.5 21.8,5.92 30.94,11.8 5.04,4.22 4.92,11.74 2.88,17.44 -2.46,5.6 -9.3,5.86 -14.36,7.48 -5.34,-9.88 -9.12,-20.68 -16.04,-29.64 -1.52,-2.14 -3.28,-4.32 -3.42,-7.08 z"
       id="path34"
       inkscape:connector-curvature="0"
       style="fill:#f5e5c1" />
    <path
       d="m 456.52,432.66 c 2.58,-2.92 7.9,-2.4 10.58,0.24 8.52,7.34 15.64,17.68 16.2,29.22 0.5,4.16 -2.84,7.84 -7.04,7.72 -7.76,-10.8 -14.44,-22.42 -21.38,-33.74 0.42,-0.86 1.22,-2.58 1.64,-3.44 z"
       id="path36"
       inkscape:connector-curvature="0"
       style="fill:#f5e5c1" />
    <path
       d="m 658.8,527.64 c 7.36,4.02 14.22,9.54 17.82,17.32 4.24,9.7 4.94,20.5 4.58,30.96 9.1,0.38 17.64,6.76 19.16,15.98 2.92,13.32 -6.94,31.54 -22.32,29.18 -13,-2.08 -18.54,-17.08 -16.86,-28.8 -8.4,4.76 -17.82,7.48 -27.52,7.12 6.24,-10.82 13.42,-21.24 17.12,-33.32 5.38,-12.18 4.86,-25.7 8.02,-38.44 z"
       id="path42"
       inkscape:connector-curvature="0"
       style="fill:#f4722b" />
    <path
       d="m 751.14,599.14 c 10.1,-12.18 31.1,-11.7 40.78,0.76 7.16,7.9 7.24,19.2 5.16,29.08 -3.68,4.32 -7.58,8.46 -11.74,12.3 2.32,1.62 4.64,3.2 6.98,4.84 -2.14,2.08 -2.42,7.38 -6.14,7.08 -5.6,1.6 -5.62,-5.14 -7.62,-8.52 -10.5,1.26 -21.44,-1.24 -28.36,-9.72 -7.3,-10.54 -7.86,-25.96 0.94,-35.82 z"
       id="path44"
       inkscape:connector-curvature="0"
       style="fill:#f4722b" />
    <path
       style="fill:#b5a98e"
       d="M 455.96875 749.96875 C 456.81875 776.24375 460.3125 802.45 458.8125 828.75 C 453.8875 829 448.9625 829.225 444.0625 829.25 L 393.4375 833 C 378.9375 833.575 364.3875 833.20625 349.9375 834.65625 C 332.2875 836.45625 314.4875 835.45 296.8125 837.125 C 286.2625 838.2 275.6625 838.425 265.0625 838.5 C 249.0625 838.3 233.625 843.6625 217.625 843.6875 C 200.925 843.7875 184.29375 845.83125 167.96875 849.28125 C 135.34375 853.53125 102.5125 855.9 69.9375 860.625 C 46.6125 863.225 23.5 868 0 868.75 L 0 871.9375 C 30 870.3625 59.975 868.6125 90 867.8125 C 113.325 864.8375 137.16875 868.1125 160.09375 862.1875 C 165.29375 860.4875 170.56875 865.0125 171.21875 870.0625 C 172.61875 879.1125 172.04375 888.3125 172.09375 897.4375 C 171.24375 944.0875 171.48125 990.7875 169.28125 1037.4375 C 169.40625 1044.3375 166.175 1050.4875 162.25 1055.9375 C 130.575 1055.4375 99.03125 1058.4 67.40625 1059.5 C 44.95625 1061.775 22.2 1060.4 0 1064.875 L 0 1086.8438 C 25 1091.0684 50.15 1085.8184 75.25 1085.7188 C 100.95 1083.1183 126.83125 1084.3 152.53125 1081.875 C 227.58125 1078.8 302.5125 1073.6625 377.5625 1070.9375 C 406.0375 1068.2375 434.70625 1069.3936 463.15625 1066.3438 L 472.3125 1065.1875 C 482.0625 1072.8375 474.75 1085.4187 475.375 1095.5938 C 475.05 1100.8438 474.8125 1106.1 474.4375 1111.375 C 473.1375 1126.75 471.25625 1142.1125 470.90625 1157.5625 C 470.15625 1170.3875 477.66875 1181.4437 480.84375 1193.4688 C 488.89375 1221.8187 492.40625 1251.2 498.40625 1280 L 543.3125 1280 C 543.4125 1263.475 547.8375 1244.0063 534.9375 1230.9062 C 533.4125 1217.3313 532.1125 1203.55 527.4375 1190.625 C 522.0125 1201.45 525.20625 1213.5563 525.78125 1225.0312 C 526.38125 1235.0063 529.51875 1244.5312 531.96875 1254.1562 C 526.76875 1254.0064 521.4875 1254.5 516.4375 1253.125 C 511.0625 1248.225 507.88125 1241.4625 503.78125 1235.5625 C 506.28125 1224.4625 509.08125 1213.4375 511.90625 1202.4375 C 507.53125 1191.8375 508.475 1180.1875 506.875 1169.0625 C 503.2 1153.3125 502.05 1137.15 499.25 1121.25 L 493.875 1094.5625 C 493.4 1084.7375 493.15 1074.8875 493 1065.0625 C 499.4 1063.2625 505.85625 1061.825 512.40625 1060.625 C 513.10625 1053.25 513.7375 1045.8375 513.4375 1038.4375 C 499.5625 1038.5125 485.6875 1039.0437 471.8125 1039.3438 L 463.0625 1040.6875 C 385.3625 1043.5625 307.7125 1047.8125 230.0625 1051.4375 C 222.0875 1051.5625 214.15625 1052.3625 206.28125 1053.5625 C 202.78125 1046.8625 199.83125 1039.7875 199.15625 1032.1875 C 195.38125 987.2875 189.9875 942.49375 186.0625 897.59375 C 185.9625 889.86875 184.3 879.2625 192.125 874.5625 C 218 873.0625 243.925 871.11875 269.875 870.84375 C 287.4 869.96875 304.8875 868.2125 322.4375 868.4375 C 334.3875 868.7875 345.50625 863.425 357.40625 863.375 C 363.73125 863.125 370.0875 863.1125 376.4375 862.9375 L 465.8125 859.5 L 473.03125 858.1875 C 485.58125 855.7375 494.7875 844.7625 508.1875 845.1875 C 513.7125 830.4375 507.1125 814.09375 496.9375 803.09375 C 487.7625 795.59375 476.35625 790.7375 468.90625 781.1875 C 461.18125 772.5375 458.01875 761.11875 455.96875 749.96875 z "
       id="path46"
       transform="scale(0.8,0.8)" />
    <path
       d="m 412.24,650.58 c 3.16,1.38 6.32,2.76 9.5,4.14 0.48,27.16 0.08,54.32 0.04,81.48 0.42,11.38 -8.08,24.12 -0.06,34.34 5.76,8.84 6.3,20.48 3.54,30.44 -2.32,7.82 -13.12,10.28 -18.8,4.54 -10.1,-8.12 -7.54,-22.24 -7.14,-33.58 0.38,-5.52 5.74,-7.78 10.18,-9.42 0.2,-11.58 3.04,-22.94 2.82,-34.54 -0.16,-25.8 -0.14,-51.6 -0.08,-77.4 z"
       id="path48"
       inkscape:connector-curvature="0"
       style="fill:#f4722b" />
    <path
       d="m 314.76,666.4 c 6.76,-3.12 13.66,-6.58 21.26,-6.78 6.6,-0.02 12.94,2.06 19.24,3.78 7.66,5.34 12.86,13.26 16.26,21.86 -0.16,11.58 -0.58,24.42 -8.68,33.58 -9.72,12.5 -28.46,16.36 -42.36,8.84 -13.76,-6.64 -20.92,-22.46 -19.34,-37.32 2.14,-9.14 7.26,-17.18 13.62,-23.96 z"
       id="path52"
       inkscape:connector-curvature="0"
       style="fill:#f4722b" />
    <path
       d="m 436.36,687.36 c 0.74,-7.92 -4.06,-19.6 4.98,-24.02 -1.92,8.12 0.1,16.28 0.72,24.42 -1.42,-0.1 -4.28,-0.3 -5.7,-0.4 z"
       id="path56"
       inkscape:connector-curvature="0"
       style="fill:#b5a98e" />
    <path
       d="m 372.66,687.6 c 0.7,-6.42 1.84,-13.04 5.84,-18.32 0.34,5.74 0.44,11.54 -0.08,17.28 -1.46,16.84 -3.02,33.68 -4.1,50.56 3.7,2.94 8.98,5.52 9.38,10.88 1.56,5.88 -2.78,10.5 -6.2,14.64 1.82,22.9 1.36,45.92 -0.04,68.84 -0.06,6.88 0.32,13.76 0.4,20.66 -0.36,8.16 -1.06,16.66 2.44,24.34 -0.26,4.2 -0.46,8.4 -0.76,12.62 -4.34,2.04 -9.14,5.74 -14.16,3.48 -6.56,-3.36 -7.34,-12.24 -5.22,-18.54 1.1,-4.68 6.4,-5.62 10.02,-7.6 0.16,-4.46 0.28,-8.92 0.34,-13.36 0.04,-6.84 -0.1,-13.7 -0.08,-20.54 1.1,-23.5 2.06,-47.06 -0.12,-70.54 -1.76,6.78 -3.28,13.62 -4,20.6 -0.7,0.4 -1.5,0.5 -2.28,0.56 1.86,-9 1.28,-18.2 -0.22,-27.18 -1.98,-8.5 3.5,-16.12 4.42,-24.38 1.7,-14.64 3.2,-29.3 4.42,-44 z"
       id="path60"
       inkscape:connector-curvature="0"
       style="fill:#f4722b" />
    <path
       d="m 646.8,768.08 c -0.24,-5.9 1.22,-16.22 9.22,-15.24 6.8,2.2 10.8,8.68 15.28,13.82 12.88,15.1 18.48,34.54 26.2,52.44 2.88,6.58 5.42,13.34 7.12,20.34 3.98,16.26 8.58,32.42 13.92,48.3 7.64,19.56 13.14,39.86 17.84,60.32 2.62,12.02 8.08,23.18 10.96,35.14 2.14,9.68 5,19.16 8.02,28.6 1.12,4.06 2.14,8.16 3.34,12.2 l -32.84,0 c -2.14,-4.28 -3.94,-8.7 -5.72,-13.12 -3.6,-8.58 -6.28,-17.5 -9.54,-26.2 -10.14,-23.62 -13.78,-49.4 -16.82,-74.72 -0.82,-19.14 -4.5,-38.2 -11.66,-56 -2.18,-5.64 -6.02,-10.36 -9.58,-15.16 -5.3,-7.5 -10.96,-15.68 -10.42,-25.34 -0.38,-0.18 -1.14,-0.52 -1.52,-0.7 -6.06,-14.34 -12.06,-29.1 -13.8,-44.68 z"
       id="path72"
       inkscape:connector-curvature="0"
       style="fill:#f4722b" />
    <path
       d="m 322.78,793.04 c 8.38,-2.84 18.06,2.1 20.48,10.6 3.88,9 -3.44,20.62 -13.22,21 -11.18,-0.2 -20.32,-13.66 -15.26,-23.96 1.64,-3.34 4.34,-6.5 8,-7.64 z"
       id="path74"
       inkscape:connector-curvature="0"
       style="fill:#f4722b" />
    <path
       d="m 409.22,821.96 c 1.32,-4.24 6.22,-2.96 9.56,-3.74 0.56,4.46 1.12,8.9 1.72,13.36 0.68,5.08 1.06,10.2 1.12,15.34 -0.64,16.48 0,32.98 -1.38,49.44 -2.02,19.58 4.12,39.46 -0.62,58.86 -1.16,4.52 -6.56,4.96 -10.1,6.74 -3.5,-8.48 -2.74,-17.8 -4.02,-26.7 0.08,-28.98 3.04,-57.84 4.42,-86.76 0.56,-5.9 1.06,-11.82 0.82,-17.74 -0.44,-2.96 -1.18,-5.86 -1.52,-8.8 z"
       id="path80"
       inkscape:connector-curvature="0"
       style="fill:#f4722b" />
    <path
       d="m 555.14,827.52 c 3.58,-0.48 7,1.38 10.4,2.28 -0.84,4.22 -1.68,8.42 -2.5,12.66 -5.86,0.1 -11.7,0.24 -17.54,0.42 -0.02,-0.64 -0.04,-1.92 -0.06,-2.56 3.2,-4.24 5.28,-9.66 9.7,-12.8 z"
       id="path82"
       inkscape:connector-curvature="0"
       style="fill:#b5a98e" />
    <path
       d="m 420.5,831.58 c 5.7,-0.1 11.42,-0.18 17.12,-0.26 -0.08,4.62 -0.14,9.24 -0.2,13.88 -5.26,0.56 -10.52,1.16 -15.8,1.72 -0.06,-5.14 -0.44,-10.26 -1.12,-15.34 z"
       id="path86"
       inkscape:connector-curvature="0"
       style="fill:#b5a98e" />
    <path
       d="m 380.22,887.96 c 2.82,-6.38 7.72,-11.36 14.88,-12.3 2.6,2.54 5.74,4.78 7.44,8.12 1.06,4.64 -1.72,8.94 -3.14,13.22 -4.1,0.06 -8.34,0.94 -12.36,-0.12 -2.94,-2.4 -4.66,-5.9 -6.82,-8.92 z"
       id="path98"
       inkscape:connector-curvature="0"
       style="fill:#f4722b" />
    <path
       d="m 540.04,997.96 c 9.64,-3.34 19.82,-3.46 29.9,-3.48 -0.08,4.76 -0.18,9.5 -0.36,14.28 -15.86,-0.36 -31.74,2.24 -47.52,-0.06 -12.72,0.02 -25.44,0.9 -38.18,0.84 0.14,-2.98 0.28,-5.92 0.42,-8.86 18.5,-2.38 37.24,-0.78 55.74,-2.72 z"
       id="path104"
       inkscape:connector-curvature="0"
       style="fill:#b5a98e" />
  </g>
</svg>
