<?xml version="1.0" encoding="UTF-8" standalone="no"?>
<svg
   xmlns:dc="http://purl.org/dc/elements/1.1/"
   xmlns:cc="http://creativecommons.org/ns#"
   xmlns:rdf="http://www.w3.org/1999/02/22-rdf-syntax-ns#"
   xmlns:svg="http://www.w3.org/2000/svg"
   xmlns="http://www.w3.org/2000/svg"
   xmlns:sodipodi="http://sodipodi.sourceforge.net/DTD/sodipodi-0.dtd"
   xmlns:inkscape="http://www.inkscape.org/namespaces/inkscape"
   width="1280"
   height="1280"
   viewBox="0 0 1024 1024"
   version="1.1"
   id="svg2"
   inkscape:version="0.48.1 "
   sodipodi:docname="capture_flag.svg">
  <metadata
     id="metadata86">
    <rdf:RDF>
      <cc:Work
         rdf:about="">
        <dc:format>image/svg+xml</dc:format>
        <dc:type
           rdf:resource="http://purl.org/dc/dcmitype/StillImage" />
      </cc:Work>
    </rdf:RDF>
  </metadata>
  <defs
     id="defs84" />
  <sodipodi:namedview
     pagecolor="#ffffff"
     bordercolor="#666666"
     borderopacity="1"
     objecttolerance="10"
     gridtolerance="10"
     guidetolerance="10"
     inkscape:pageopacity="0"
     inkscape:pageshadow="2"
     inkscape:window-width="1920"
     inkscape:window-height="1018"
     id="namedview82"
     showgrid="false"
     inkscape:snap-page="true"
     fit-margin-top="0"
     fit-margin-left="0"
     fit-margin-right="0"
     fit-margin-bottom="0"
     inkscape:zoom="0.6609375"
     inkscape:cx="466.00473"
     inkscape:cy="640"
     inkscape:window-x="-8"
     inkscape:window-y="-8"
     inkscape:window-maximized="1"
     inkscape:current-layer="layer2" />
  <g
     inkscape:groupmode="layer"
     id="layer1"
     inkscape:label="background"
     style="display:inline">
    <rect
       style="fill:#3e3e3e;fill-opacity:1;fill-rule:nonzero;stroke:none"
       id="rect3071"
       width="1024"
       height="1024"
       x="0"
       y="0" />
  </g>
  <g
     inkscape:groupmode="layer"
     id="layer2"
     inkscape:label="foreground">
    <path
       style="fill:#f5e5c1"
       d="m 945.9,61.4 c -19.97269,0.0596 -39.9175,1.5025 -59.85,2.5 -21.96,1.98 -44.05,2.44 -65.95,5.2 -13.42,1.9 -26.6,-1.98 -40,-1.7 -32.76,0.72 -65.42,4.03 -98.2,4.05 -48,0.84 -95.83,6.26 -143.85,6 -29.32,1.62 -58.56,4.28 -87.9,5.4 -26.74,0.18 -53.41,2.95 -80.15,3.05 -42.02,2.76 -84.09,3.43 -126.15,5.25 -13.26,0.86 -26.59,1.63 -39.85,0.85 -11.96,-0.64 -24,-1.75 -35.9,0.05 -6.5,0.9 -11.34,5.7 -16.9,8.7 -5.46,2.96 -10.74,6.22 -15.8,9.8 41.06,2.5 82.17,4.8 123.25,7.3 -43.44,1.68 -86.91,2.17 -130.35,3.45 -5.04,-0.14 -8.02,4.54 -11.2,7.7 -12.06,13.98 -24.76,27.54 -35.5,42.6 -7.38,10.32 -15.62,19.93 -23.9,29.55 15.02,3.08 30.12,5.56 45.1,8.8 -19.06,3 -38.62,2.59 -57.4,7.25 42.32,2.28 84.81,-0.79 127.15,1.75 -44.16,2.38 -88.16,7.47 -132.2,11.35 -11.74,25.92 -18.75,53.76 -23.25,81.8 -5.04,21.62 -5.85,43.86 -7.45,65.9 -0.7,20.6 -1.97,41.25 -0.55,61.85 1.88,32 2.41,64.24 9.15,95.7 4.06,17.38 3.13,36.97 14.35,51.85 1.24,2.32 4.17,1.52 6.25,1.5 12.14,-1.46 24.37,-0.96 36.55,-0.5 -13.56,4.46 -28.88,4.95 -41,12.95 13.94,0.2 27.74,-2.19 41.6,-3.35 3.36,9.34 6.66,18.66 10,28 -13.1,4.7 -26.2,9.38 -39.3,14.1 6.86,25.82 12.04,52.23 22.2,77.05 5.44,14.74 10.62,29.55 16.2,44.25 19.5,-1.54 38.96,-3.82 58.5,-4.9 -18.8,5.14 -38.04,8.6 -56.6,14.5 5.86,3.66 12.78,1.16 19.1,0.6 45.16,-5.92 90.37,-11.75 135.55,-17.45 -42.64,20.92 -85.37,41.64 -128.05,62.5 5.7,10.14 10.18,21.11 17.5,30.25 7.66,8.32 15.87,16.23 25.15,22.75 12.76,9.16 21.88,22.36 34.2,32 1.96,-0.06 3.86,-0.43 5.7,-1.15 32.62,-12.78 65.04,-26.2 97.8,-38.6 -32.58,15.38 -65.27,30.54 -97.85,45.9 25.24,28.06 46.22,59.82 64.1,93 13.82,-4.74 27.53,-9.85 41.35,-14.55 -12.02,8.9 -24.27,17.56 -36.35,26.4 1.88,3.82 3.81,7.65 5.95,11.35 l 187.2,0 c -51.32,-19.76 -102.93,-38.78 -154.25,-58.5 -3.2,-0.28 -1.14,-3.86 0.4,-4.7 44.82,-37.24 90.36,-73.62 134.8,-111.3 -53.06,-9.36 -106.26,-17.76 -159.3,-27.1 -0.02,-8.14 -0.02,-16.28 0.1,-24.4 54.08,-60.38 107.36,-121.53 161.2,-182.15 36.88,27.38 72.46,56.53 109,84.35 3.98,-28.64 7.23,-57.39 11.05,-86.05 90.82,35.3 181.92,69.85 272.9,104.75 -22.64,26.6 -45.26,53.27 -68.3,79.55 40,23.08 80.34,45.52 120.5,68.3 -40.9,52.56 -82.21,104.81 -123.25,157.25 l 76.3,0 c 9.48,-2.62 18.76,-6 28.2,-8.8 7.16,-2.32 14.78,-3.91 20.9,-8.55 45.08,-33.74 90.28,-67.32 135.4,-101 l 0,-345.5 c -11.92,-13.74 -24.75,-26.77 -35.25,-41.65 -19.26,9.22 -38.29,18.85 -57.65,27.85 17.52,-11.72 35.64,-22.42 53.3,-33.9 -11.14,-17.76 -23.24,-34.88 -34.1,-52.8 -8.74,2.76 -17.46,5.55 -26.2,8.25 8.2,-5.6 16.92,-10.55 24.4,-17.15 -6.56,-0.18 -12.53,2.74 -18.45,5.1 4,-4.82 7.96,-9.67 11.9,-14.55 -1.68,-3.3 -3.37,-6.62 -5.05,-9.9 -7.6,2.94 -15.06,6.24 -22.7,9 -5.24,2.22 -10.86,0.36 -16.2,-0.3 10.32,-8.84 20.89,-17.38 31.25,-26.2 -5.06,-9.82 -12.29,-18.35 -16.85,-28.45 -4.86,-9.34 -8.21,-19.38 -10.65,-29.6 -22.86,4.72 -45.45,10.76 -68.25,15.7 21.74,-8.16 43.58,-16.1 65.4,-24.1 -0.22,-1.56 -0.6,-4.72 -0.8,-6.3 -31.46,4.5 -62.83,9.88 -94.25,14.5 29.04,-6.12 58.09,-12.14 87.15,-18.2 4,-0.16 5.86,-2.95 6.2,-6.75 -8.76,0.1 -17.54,0.76 -26.3,0.9 8.04,-1.74 16.1,-3.53 24.1,-5.45 -0.08,-1.68 -0.25,-5.05 -0.35,-6.75 -23.1,0.5 -46.23,2.31 -69.35,1.95 22.92,-2.62 45.66,-6.65 68.5,-9.95 -1.44,-19.14 -1.7,-38.42 -0.7,-57.6 2.26,-20.58 3.42,-41.47 9.3,-61.45 3.2,-11.42 5.92,-22.99 9.4,-34.35 -16.12,-0.08 -32.22,0.42 -48.3,-0.9 16.82,-0.9 33.53,-2.99 50.25,-5.05 1.44,-5 2.88,-10.03 4.3,-15.05 -10.36,-3.58 -20.78,-6.95 -31,-10.85 10.28,-2.66 20.8,-4.17 31.2,-6.35 2,-0.74 5.06,-0.49 5.8,-3.05 8.58,-19.24 19.62,-37.19 30.4,-55.25 -2.85499,-0.0525 -5.69675,-0.10852 -8.55,-0.1 z M 299.4,168.35 c 4.19262,0.0209 8.4,0.3625 12.6,1 7.86,1.7 17.08,-0.45 23.7,5.05 13.26,9.9 27.55,18.95 37.85,32.15 3.36,4.36 5.16,9.86 5,15.4 -0.06,13.46 -0.57,26.94 0.15,40.4 -7.16,5.6 -15.1,10.43 -21.1,17.35 -4.94,5.14 0.27,12.17 -0.15,18.25 -0.5,9.06 -2.6,18.03 -1.9,27.15 -18.4,6.36 -39.73,5.19 -56.25,16.45 -1.06,-14.98 -8.52,-28.69 -9,-43.75 -0.22,-5.32 -4.4,-11.44 -10.2,-11.2 -23.02,-0.56 -45.36,7.48 -68.4,6.8 -7.24,-13.94 -12.54,-29.5 -12.2,-45.4 0.78,-8.94 0.76,-18.53 5.8,-26.35 9.26,-17.3 23.93,-31.75 41.55,-40.45 16.44499,-7.60499 34.382,-12.94077 52.55,-12.85 z m 547.7,274 c 3.15469,-0.0394 6.34,0.05 9.25,1.4 12.22,5.34 24.61,10.73 35.55,18.45 4.04,2.78 6.98,6.88 8.3,11.6 2.88,9.56 6.14,19.02 9.3,28.5 -5.02,6.82 -16.78,14.12 -11.4,23.7 5.68,9.24 4.7,20.68 9,30.5 -15.62,8.42 -33.88,12.68 -47.1,25.1 -4.22,-13.96 -13.91,-25.49 -18.15,-39.45 -1.32,-4.76 -6.76,-8.08 -11.6,-7 -22.46,3.64 -43.17,14.75 -65.75,17.75 -2.2,-2.54 -4.42,-4.98 -6.7,-7.4 -0.4,-1.88 -0.82,-3.74 -1.2,-5.6 -10.62,-11.86 -10.91,-29.24 -9.25,-44.2 5.64,-12.84 14.07,-24.71 25.45,-33.05 12.04,-9.24 26.57,-14.39 41.05,-18.35 9.8,-2.76 20.06,-1.62 30.1,-1.9 1.03501,0.01 2.09843,-0.0369 3.15,-0.05 z"
       id="path6"
       inkscape:connector-curvature="0" />
    <path
       d="m 322.15,186.35 c -9.78893,-0.19712 -19.80125,2.38125 -29.55,2.45 -17.78,0.6 -35.48,6.9 -48.6,19.1 -7.82,7.62 -16.5,15.18 -20.6,25.6 -3.36,8.42 -7.75,17.16 -6.25,26.5 1.24,7.42 2.25,14.93 4.35,22.15 3.16,4.8 9.77,2.3 14.55,2.3 22.42,-3.96 45.07,-5.89 67.75,-7.35 -1.48,1.94 -2.94,3.89 -4.4,5.85 0.5,6.96 -1.94,13.97 -0.1,20.85 1.46,6.78 3.15,13.51 4.35,20.35 3.4,-0.98 6.77,-2.05 10.15,-3.15 -1.62,-5.64 -2.97,-11.34 -3.35,-17.2 8.06,0.4 6.29,10.94 8.85,16.4 l 3.1,-2.55 c -0.66,-5.88 -2.34,-11.67 -1.7,-17.65 8.42,0.9 8.05,10.48 8.45,16.8 2.12,-0.34 4.26,-0.66 6.4,-1 -1.58,-5.64 -2.69,-11.43 -3.25,-17.25 2.08,0.2 4.17,0.41 6.25,0.65 1.4,5.24 2.47,10.62 3.15,16 1.94,0.06 3.89,0.09 5.85,0.15 -0.42,-6.46 -0.43,-12.92 -0.55,-19.4 0.12,-6.36 -4.88,-11.58 -4.5,-18 -0.66,-4 3.94,-4.87 6.6,-6.35 8.68,-3.32 16.14,-8.94 24.1,-13.6 0.36,-5.96 1.42,-12.18 -0.9,-17.9 -4.18,-11.2 -7.64,-23.36 -16.4,-32 -6.64,-6.64 -11.3,-15.85 -20.6,-19.25 -4.29374,-1.71875 -8.7005,-2.4104 -13.15,-2.5 z m 20.05,24.05 c 2.05114,0.0591 4.1075,0.3875 6.05,0.95 7.1,3.34 11.71,10.79 12.15,18.55 0,11.7 -12,22.22 -23.7,19 -14.02,-5.16 -16.65,-28.27 -4.35,-36.45 3.02501,-1.4875 6.43144,-2.14843 9.85,-2.05 z m -56.7,6.3 c 3.82168,-0.0783 7.5875,0.5625 10.5,3.2 7.42,5.86 11.36,17.33 5.9,25.75 -3.88,5.34 -8.94,11.5 -16.1,11.7 -6.9,0.66 -14.85,0.21 -19.75,-5.35 -10.36,-11.4 -3.1,-33.14 12.7,-34.7 2.14501,-0.24 4.45699,-0.55301 6.75,-0.6 z m 36.85,39.8 c 3.12,3.12 6.25,6.26 9.35,9.4 -0.54,4.78 -1.94,10.65 4,12.65 -4.08,0.1 -8.17,0.09 -12.15,-0.95 -4.2,4.12 -9.69,3.67 -13.25,-1.05 0.78,-1.06 2.37,-3.14 3.15,-4.2 -1.92,-4.1 -4.61,-9.79 -0.25,-13.35 2.16,-2.86 6.07,-1.92 9.15,-2.5 z"
       id="path10"
       style="fill:#f5e5c1"
       inkscape:connector-curvature="0" />
    <path
       d="m 610.62,230.1 c 12.02,1.24 24.02,2.64 36.04,3.96 -1.08,9.94 -2.26,19.88 -3.28,29.84 -12.04,-1.26 -24.04,-2.62 -36.06,-3.98 1.1,-9.94 2.26,-19.86 3.3,-29.82 z"
       id="path16"
       inkscape:connector-curvature="0"
       style="fill:#f4722b" />
    <path
       d="m 797.62,265.02 c 2.94,-7.52 6.34,-14.88 9.8,-22.18 9.08,4.12 18.24,8.12 27.18,12.56 -3.36,7.24 -6.68,14.52 -10,21.78 -8.98,-4.06 -17.92,-8.22 -26.98,-12.16 z"
       id="path18"
       inkscape:connector-curvature="0"
       style="fill:#f4722b" />
    <path
       d="m 674.34,247.06 c 8.66,3.24 17.26,6.58 25.9,9.84 -3.28,9.44 -7.04,18.68 -10.54,28.02 -8.7,-3.16 -17.28,-6.54 -25.92,-9.8 3.28,-9.44 7.02,-18.7 10.56,-28.06 z"
       id="path20"
       inkscape:connector-curvature="0"
       style="fill:#f4722b" />
    <path
       d="m 570.12,261.34 c 8.58,5.06 17.12,10.22 25.7,15.26 -5.84,10.1 -11.96,20.04 -17.92,30.06 -8.58,-5.06 -17.1,-10.22 -25.7,-15.22 5.8,-10.14 11.92,-20.08 17.92,-30.1 z"
       id="path24"
       inkscape:connector-curvature="0"
       style="fill:#f4722b" />
    <path
       d="m 723.74,282.8 c 8,2.62 16,5.28 23.98,7.96 -3.12,9.5 -6.3,19 -9.48,28.48 -7.98,-2.64 -15.98,-5.3 -23.96,-7.98 3.1,-9.5 6.3,-18.98 9.46,-28.46 z"
       id="path26"
       inkscape:connector-curvature="0"
       style="fill:#f4722b" />
    <path
       d="m 764.96,303.88 c 7.32,-6.68 14.62,-13.4 22.06,-19.96 6.64,7.44 13.36,14.8 20,22.24 -7.28,6.68 -14.64,13.26 -21.88,19.98 -6.8,-7.36 -13.48,-14.82 -20.18,-22.26 z"
       id="path28"
       inkscape:connector-curvature="0"
       style="fill:#f4722b" />
    <path
       d="m 554.32,338.78 c 8.52,-5.14 16.96,-10.44 25.44,-15.62 5.34,8.68 10.72,17.32 15.96,26.06 -8.52,5.16 -16.98,10.46 -25.48,15.66 -5.32,-8.7 -10.76,-17.32 -15.92,-26.1 z"
       id="path30"
       inkscape:connector-curvature="0"
       style="fill:#f4722b" />
    <path
       d="m 596.68,383.26 c 5.7,-8.14 11.1,-16.5 16.66,-24.72 13.98,9.28 27.92,18.66 41.94,27.92 -5.48,8.38 -11.02,16.76 -16.66,25.04 -13.92,-9.5 -28.2,-18.48 -41.94,-28.24 z"
       id="path32"
       inkscape:connector-curvature="0"
       style="fill:#f4722b" />
    <path
       d="m 272.08,399.68 c 14,-7.32 27.96,-14.68 41.96,-21.98 4.66,8.86 9.28,17.74 13.88,26.6 -14,7.32 -27.96,14.7 -41.98,22 -4.66,-8.86 -9.26,-17.72 -13.86,-26.62 z"
       id="path34"
       inkscape:connector-curvature="0"
       style="fill:#f4722b" />
    <path
       d="m 361.78,378.28 c 10.66,1.98 21.32,3.98 31.98,6 -1.86,9.82 -3.66,19.66 -5.54,29.48 -10.66,-2 -21.32,-4 -31.98,-6 1.84,-9.84 3.66,-19.68 5.54,-29.48 z"
       id="path36"
       inkscape:connector-curvature="0"
       style="fill:#f4722b" />
    <path
       d="m 406.46,430.98 c 9.66,-2.72 19.36,-5.28 29.08,-7.8 2.62,9.94 5.24,19.9 8,29.82 -9.66,2.8 -19.38,5.36 -29.12,7.8 -2.58,-9.96 -5.22,-19.92 -7.96,-29.82 z"
       id="path38"
       inkscape:connector-curvature="0"
       style="fill:#f4722b" />
    <path
       d="m 644.06,423.62 c 9.92,0.96 19.88,1.84 29.8,2.76 -1.2,14.68 -2.62,29.34 -3.92,44.02 -9.94,-0.94 -19.88,-1.82 -29.82,-2.76 1.2,-14.68 2.64,-29.36 3.94,-44.02 z"
       id="path40"
       inkscape:connector-curvature="0"
       style="fill:#f4722b" />
    <path
       d="m 207.4,473.18 c 6.28,-15.54 13.24,-30.78 19.9,-46.16 9.1,3.98 18.18,8 27.34,11.86 -6.4,15.46 -13.2,30.78 -19.96,46.1 -9.08,-3.96 -18.14,-7.98 -27.28,-11.8 z"
       id="path42"
       inkscape:connector-curvature="0"
       style="fill:#f4722b" />
    <path
       style="fill:#f5e5c1"
       d="m 850.8,452.7 c -3.04158,0.0177 -6.07501,0.3875 -9,1.1 -11.88,2.82 -24.29,3.66 -35.75,8.1 -14.94,5.68 -26.91,17.51 -35.15,30.95 -4.26,9.82 -8.57,21.26 -4.05,31.8 2.76,5.96 3.08,14 8.8,18 7.02,-0.46 13.71,-2.72 20.35,-4.9 17.78,-5.18 35.54,-10.43 53.8,-13.75 -0.44,1.72 -0.86,3.46 -1.3,5.2 0.82,5.22 -0.14,10.88 2.4,15.7 3.28,6.9 6.96,13.62 10.3,20.5 2.62,-1.86 5.29,-3.71 7.95,-5.55 -2.94,-4.7 -5.63,-9.65 -6.95,-15.05 1.06,0 3.19,0.05 4.25,0.05 2.32,4.3 4.47,8.66 7.05,12.8 0.62,-0.44 1.85,-1.31 2.45,-1.75 -1.54,-5.36 -4.72,-10.14 -5.6,-15.7 7.36,0.06 9.68,7.53 11.4,13.35 1.3,-0.46 3.87,-1.39 5.15,-1.85 -2.46,-5.04 -5.24,-9.99 -6.7,-15.45 10.36,-1.08 7.51,14.41 17.15,14.25 -1.92,-6.64 -3.43,-13.46 -6.15,-19.8 -2.76,-4.54 -5.95,-8.78 -8.55,-13.4 7.36,-5.64 14.69,-11.32 21.45,-17.7 -0.42,-9.9 -7.72,-16.99 -13.4,-24.35 -5.7,-7.14 -13.92,-11.4 -21.1,-16.8 -5.43125,-4.0425 -12.10853,-5.78888 -18.8,-5.75 z m 20,15.1 c 9.22726,0.25054 18.58875,8.71499 16.85,18.4 -0.98,7.74 -10.37,13.12 -17.55,9.9 -8.64,-2.96 -13.68,-13.27 -11.3,-21.95 0.56,-2.82 3.38,-4.14 5.8,-5.1 1.98,-0.90374 4.07062,-1.30782 6.2,-1.25 z m -47.1,10.05 c 10.24563,-0.3255 20.97875,7.18499 19.5,18.3 -2.54,16.34 -27.88,20.71 -36.1,6.65 -5.68,-8.64 -0.34,-21.24 9.7,-23.4 2.15626,-0.96 4.53563,-1.47488 6.9,-1.55 z m 36.75,27 c 4.2516,0.22246 8.91626,4.05626 12.45,6.05 -0.2,4.02 0.93,7.93 5.05,9.55 -3.42,0.34 -6.85,0.71 -10.25,1.05 -3.02,2.82 -6.83,4 -10.45,1.5 1.26,-5.64 -4.94,-10.24 -2.2,-15.7 1.6375,-1.89374 3.46746,-2.55112 5.4,-2.45 z"
       id="path46"
       inkscape:connector-curvature="0" />
    <path
       d="m 416.26,473.76 c 9.82,-1.92 19.66,-3.62 29.48,-5.46 1.34,7.3 2.68,14.62 4,21.96 -9.82,1.9 -19.66,3.6 -29.46,5.46 -1.36,-7.32 -2.7,-14.64 -4.02,-21.96 z"
       id="path48"
       inkscape:connector-curvature="0"
       style="fill:#f4722b" />
    <path
       d="m 602.08,512.74 c 10.68,-11.3 21.3,-22.66 31.98,-33.96 7.3,6.84 14.68,13.6 21.84,20.6 -10.72,11.22 -21.28,22.6 -31.96,33.86 -7.3,-6.82 -14.62,-13.62 -21.86,-20.5 z"
       id="path54"
       inkscape:connector-curvature="0"
       style="fill:#f4722b" />
    <path
       d="m 196.26,523.58 c 9.8,-1.74 19.64,-3.4 29.44,-5.18 2.76,15.3 5.34,30.64 8.06,45.96 -9.8,1.84 -19.64,3.48 -29.46,5.22 -2.76,-15.32 -5.36,-30.66 -8.04,-46 z"
       id="path58"
       inkscape:connector-curvature="0"
       style="fill:#f4722b" />
    <path
       d="m 423.02,528.38 c 9.36,-3.56 18.64,-7.3 28.08,-10.62 3.26,8.64 6.6,17.26 9.88,25.88 -9.36,3.56 -18.64,7.32 -28.1,10.6 -3.24,-8.64 -6.58,-17.24 -9.86,-25.86 z"
       id="path60"
       inkscape:connector-curvature="0"
       style="fill:#f4722b" />
    <path
       d="m 556.14,544.98 c 9.92,-7.46 19.98,-14.74 30,-22.06 5.92,8.08 11.92,16.14 17.68,24.36 -10.06,7.16 -19.94,14.58 -29.92,21.84 -5.96,-8.02 -11.8,-16.14 -17.76,-24.14 z"
       id="path62"
       inkscape:connector-curvature="0"
       style="fill:#f4722b" />
    <path
       d="m 466.32,549.9 c 6,3.3 11.98,6.64 17.96,10 -4.84,8.76 -9.72,17.48 -14.6,26.22 -6.02,-3.3 -12,-6.64 -17.96,-10.02 4.84,-8.74 9.72,-17.48 14.6,-26.2 z"
       id="path64"
       inkscape:connector-curvature="0"
       style="fill:#f4722b" />
    <path
       d="m 522.32,561.56 c 5.3,-2.66 10.6,-5.32 15.92,-7.96 4.58,8.88 8.98,17.88 13.44,26.84 -5.28,2.66 -10.58,5.3 -15.88,7.96 -4.66,-8.86 -9.02,-17.88 -13.48,-26.84 z"
       id="path66"
       inkscape:connector-curvature="0"
       style="fill:#f4722b" />
    <path
       d="m 488.16,562.08 c 8.04,0.64 16.06,1.28 24.08,2.02 -0.8,9.94 -1.68,19.86 -2.4,29.82 -8.04,-0.64 -16.06,-1.3 -24.08,-2.02 0.82,-9.94 1.7,-19.86 2.4,-29.82 z"
       id="path68"
       inkscape:connector-curvature="0"
       style="fill:#f4722b" />
    <path
       d="m 222.44,613.32 c 8.24,-5.62 16.66,-10.9 24.9,-16.48 9.04,13.1 17.42,26.66 26.2,39.92 -8.36,5.52 -16.7,11.1 -25.26,16.34 -8.48,-13.34 -17.16,-26.56 -25.84,-39.78 z"
       id="path70"
       inkscape:connector-curvature="0"
       style="fill:#f4722b" />
    <path
       d="m 596.32,639.82 c 69.86,28 139.58,56.34 209.38,84.46 -40.6,27.12 -81.12,54.36 -121.64,81.6 59.4,23.06 119.02,45.54 178.24,69.02 -40.18,45.54 -79.96,91.44 -120.1,137.02 C 705.54,987.9 668.78,963.98 632,940.1 c -18.34,28.1 -37.36,55.76 -55.64,83.9 l -67.9,0 c -37.32,-15.48 -74.84,-30.52 -112.14,-46.08 -17.06,-7.2 -34.56,-13.42 -51.3,-21.38 45.58,-33.38 91.06,-66.92 136.48,-100.52 -57.3,-19.94 -114.9,-39.04 -171.98,-59.6 50.4,-47.3 99.8,-95.68 150.12,-143.06 32.08,31.72 64.04,63.56 96.34,95.06 13.5,-36.18 27.32,-72.24 40.34,-108.6 z"
       id="path74"
       inkscape:connector-curvature="0"
       style="fill:#f4722b" />
    <path
       d="m 280.2,675.18 c 5.82,-8.12 11.72,-16.2 17.6,-24.26 19.36,13.92 38.62,27.98 57.98,41.9 -5.78,8.16 -11.7,16.22 -17.6,24.28 -19.36,-13.92 -38.62,-28 -57.98,-41.92 z"
       id="path76"
       inkscape:connector-curvature="0"
       style="fill:#f4722b" />
    <path
       d="m 605.8,1024 c 10.12,-22.34 19.22,-45.14 29.66,-67.32 27.44,22.8 55.44,44.96 83.24,67.32 l -112.9,0 z"
       id="path80"
       inkscape:connector-curvature="0"
       style="fill:#f5e5c1" />
  </g>
</svg>
