<?xml version="1.0" encoding="UTF-8" standalone="no"?>
<svg
   xmlns:dc="http://purl.org/dc/elements/1.1/"
   xmlns:cc="http://creativecommons.org/ns#"
   xmlns:rdf="http://www.w3.org/1999/02/22-rdf-syntax-ns#"
   xmlns:svg="http://www.w3.org/2000/svg"
   xmlns="http://www.w3.org/2000/svg"
   xmlns:xlink="http://www.w3.org/1999/xlink"
   xmlns:sodipodi="http://sodipodi.sourceforge.net/DTD/sodipodi-0.dtd"
   xmlns:inkscape="http://www.inkscape.org/namespaces/inkscape"
   width="1280"
   height="1280"
   viewBox="0 0 1024 1024"
   version="1.1"
   id="svg2"
   inkscape:version="0.48.1 "
   sodipodi:docname="dominate_sniper.svg">
  <metadata
     id="metadata64">
    <rdf:RDF>
      <cc:Work
         rdf:about="">
        <dc:format>image/svg+xml</dc:format>
        <dc:type
           rdf:resource="http://purl.org/dc/dcmitype/StillImage" />
      </cc:Work>
    </rdf:RDF>
  </metadata>
  <defs
     id="defs62" />
  <sodipodi:namedview
     pagecolor="#ffffff"
     bordercolor="#666666"
     borderopacity="1"
     objecttolerance="10"
     gridtolerance="10"
     guidetolerance="10"
     inkscape:pageopacity="0"
     inkscape:pageshadow="2"
     inkscape:window-width="1920"
     inkscape:window-height="1018"
     id="namedview60"
     showgrid="false"
     inkscape:object-nodes="true"
     inkscape:object-paths="true"
     inkscape:snap-page="true"
     fit-margin-top="0"
     fit-margin-left="0"
     fit-margin-right="0"
     fit-margin-bottom="0"
     inkscape:zoom="0.6609375"
     inkscape:cx="640"
     inkscape:cy="640"
     inkscape:window-x="-8"
     inkscape:window-y="-8"
     inkscape:window-maximized="1"
     inkscape:current-layer="layer2" />
  <g
     inkscape:groupmode="layer"
     id="layer1"
     inkscape:label="background"
     style="display:inline">
    <path
       d="m 0,0 1024,0 0,1024 L 0,1024 0,0 z"
       id="path4"
       inkscape:connector-curvature="0"
       style="fill:#3e3e3e" />
  </g>
  <g
     inkscape:groupmode="layer"
     id="layer2"
     inkscape:label="foreground"
     style="display:inline">
    <use
       x="0"
       y="0"
       inkscape:tiled-clone-of="#path3065"
       xlink:href="#path3065"
       transform="translate(0,327.25)"
       id="use4115"
       width="512"
       height="512" />
    <use
       x="0"
       y="0"
       inkscape:tiled-clone-of="#path3065"
       xlink:href="#path3065"
       transform="translate(0,261.8)"
       id="use4113"
       width="512"
       height="512" />
    <path
       inkscape:tile-y0="6.15625"
       inkscape:tile-x0="61.5625"
       inkscape:connector-curvature="0"
       style="opacity:0.48999999;fill:#f4722b"
       d="m 718,206.2 c -6.16,9.84 -13.05,19.2 -19.55,28.8 -1.1,1.9 -3.33,4.12 -1.75,6.4 4.04,4.56 9.58,7.68 13.2,12.6 0.68,3.78 0.41,7.68 0.55,11.5 -0.64,0.02 -1.91,0 -2.55,0 -1.3,-3.34 -2.59,-6.66 -3.85,-10 -4.62,-1.1 -8.51,0.34 -11.35,4.1 0.18,25.84 2.04,51.53 2.3,77.35 -6.4,8.6 -12.92,17.1 -19.2,25.8 -6.46,1.5 -12.84,3.46 -19.4,4.4 -4.1,-1.52 -7.52,-4.35 -11.2,-6.65 0.02,-3.38 0.19,-6.77 0.25,-10.15 -7.78,-3.48 -15.59,-6.97 -23.65,-9.75 -2.38,-2.54 -4.44,-5.32 -5.9,-8.5 -18.08,-9.88 -35.94,-20.13 -54.1,-29.85 3.56,-9.66 9.04,-18.41 13.1,-27.85 -2.34,-1.54 -4.68,-3.06 -7,-4.6 5.4,-1.76 10.86,-3.4 16.3,-5 3.76,-5.96 7.7,-11.87 10.3,-18.45 -4.92,-2.8 -9.67,-5.96 -15.05,-7.8 -2.06,1.94 -4.09,3.9 -6.15,5.8 -1.62,-2.58 -3.28,-5.15 -4.9,-7.75 -5.42,4.64 -10,12.57 -18.3,11.05 -3.06,-2.7 -4.97,-6.55 -7.95,-9.35 l -4.35,3.15 c -2.8,-2.7 -5.53,-5.47 -8.25,-8.25 -4.96,1.08 -9.81,2.57 -14.55,4.35 -0.34,-2.58 -0.68,-5.22 -1,-7.8 -8.84,0.48 -14.98,-5.92 -20.3,-12 -5.24,-0.1 -10.46,-0.12 -15.7,-0.1 0.48,1.14 1.47,3.44 1.95,4.6 2.38,6.22 11.22,0.7 14.6,5.6 0.54,5.14 0.45,10.29 0.55,15.45 -11.72,-0.54 -23.48,-0.4 -35.2,-0.5 -1.06,4.16 -2.14,8.34 -3.2,12.5 -3.52,-0.72 -7.01,-1.49 -10.55,-2.05 -6.12,12.96 -14.59,24.73 -20.15,37.95 3.86,3.6 8.06,6.96 11.3,11.2 0.3,4.72 -0.36,9.42 -0.9,14.1 -3.3,-3.42 -5.5,-7.91 -9.2,-10.85 -7.14,-0.9 -14.39,-0.45 -21.55,-0.25 -0.36,2.46 -0.72,4.91 -1.1,7.35 -5.26,-2.24 -3.91,-9.53 -8.25,-12.75 -7.9,-5.34 -16.68,-9.24 -24.4,-14.9 -7.04,0.54 -13.91,2.45 -20.95,3.05 -0.12,0.9 -0.41,2.65 -0.55,3.55 0.74,1.4 2.26,4.25 3,5.65 -5.94,0.22 -11.86,0.19 -17.8,0.05 -2.06,4.8 -3.89,9.72 -5.15,14.8 2.48,0.78 3.39,2.27 2.75,4.45 -4.26,2.1 -8.67,3.81 -13.05,5.65 0.24,8.6 2.4,16.98 3.4,25.5 -8.34,1.84 -15.25,-3.55 -22.25,-7.05 -0.08,8.74 0.11,17.51 -0.15,26.25 -6.12,-4.94 -11.21,-10.96 -17.05,-16.2 -2.52,8.36 -5.94,16.37 -8.7,24.65 -2.66,8.26 3.6,18.16 -3,25.3 -4.42,5.64 -7.13,12.79 -12.65,17.45 -29.72,15.06 -60.09,28.91 -89.75,44.15 -16.48,11.48 -32.7,23.37 -48.9,35.25 0.06,3.68 0.13,7.4 0.15,11.1 -6.28,-1.98 -12.15,-4.96 -17.95,-8 -0.98,13.28 -2.98,26.45 -4.8,39.65 4.66,6.98 8.27,14.58 12.35,21.9 5.82,11.06 11.87,22.01 17.35,33.25 -4.2,-1.76 -8.39,-3.53 -12.65,-5.15 2.44,4.62 5.09,9.16 7.85,13.6 -8.08,-1.2 -16.21,-2.23 -24.35,-2.85 0.66,0.22 1.99,0.68 2.65,0.9 13.7,3.34 23.1,14.65 32,24.75 7.02,15.36 12.81,31.27 19.15,46.95 4.58,12.4 13.08,22.73 20,33.85 2.6306,4.31652 6.03202,8.45388 8,13.15 -0.4362,-0.2555 -0.8734,-0.52364 -1.3,-0.8 3.48,14.34 4.25,29.14 6.25,43.7 -3.02,1.98 -6.05,3.95 -9.05,5.95 0.1592,0.39804 0.34074,0.80058 0.5,1.2 -0.1432,0.1244 -0.3082,0.22404 -0.45,0.35 0.51372,0.81146 1.04358,1.6298 1.55,2.45 0.63458,1.59612 1.25678,3.1974 1.9,4.8 0.3998,0.1072 0.80052,0.1916 1.2,0.3 0.1746,0.29634 0.32676,0.60358 0.5,0.9 l 0.45,-0.35 c 2.26756,0.51546 4.54706,1.02758 6.8,1.6 0.1838,0.0466 0.36632,0.103 0.55,0.15 13.37044,3.86778 26.631,8.23562 40.05,11.9 3.51726,1.0742 7.06698,2.13796 10.6,3.15 3.28,-3.72 6.54,-7.46 9.8,-11.2 -0.0656,-0.1674 -0.1346,-0.33256 -0.2,-0.5 4.04858,-4.6493 7.90588,-9.52134 12.15,-13.95 5.42,-5.46 9.84,-14.77 18.9,-13.55 17.8,0 35.58,0.24 53.4,0 5.34,-12.02 9.52,-24.53 15.3,-36.35 18.82,-4.9 37.76,-9.35 56.7,-13.75 10.16,-2.34 19.52,-7.06 29.3,-10.5 9.02,-3.18 18.76,-2.14 28,-4.1 2.36,-1.54 4.05,-3.9 5.95,-5.9 5.84,0.24 11.67,0.57 17.45,1.55 6.8,0.58 10.59,7.02 15.55,10.9 4.8,-2.08 9.64,-4.03 14.5,-5.95 4.46,5.34 8.64,10.89 12.7,16.55 3.76,-1.76 7.46,-3.62 11.1,-5.6 11.28,17.86 21.16,36.57 32.1,54.65 12.62,-15.1 22.66,-32.17 34.4,-47.95 3.26,3.26 6.19,6.9 8.55,10.9 -6.4,12.16 -17.77,22.57 -17.55,37.25 -2.62,1.56 -5.22,3.11 -7.8,4.75 5.2,0.32 10.4,0.13 15.6,-0.45 3.06,-4.62 6.28,-9.16 9.6,-13.6 3.4,4.78 5.09,10.42 6.75,16 -3.2,2.6 -6.38,5.25 -9.5,7.95 7.48,-1.42 14.86,-3.38 22.2,-5.4 3.84,14.16 5.2,28.87 8.6,43.15 1.14,5.9 6.6,9.31 10.8,13.05 6.5,4.94 12.05,10.98 18.65,15.8 3.46,0.72 6.69,-1.66 9.95,-2.5 9.92,5.64 17.64,14.62 27.7,19.9 8.02,-5.86 12.48,-15.77 20.4,-22.05 -0.7,4.76 -1.49,9.49 -2.35,14.25 5.72,-0.38 11.67,-2.1 17.35,-0.9 4.24102,2.74116 7.85026,6.2746 11.65,9.6 0.94758,0.94484 1.89918,1.86128 2.9,2.65 0.97012,-3.88048 1.89504,-7.7582 2.55,-11.7 0.2102,-0.45992 0.46054,-0.90286 0.7,-1.35 8.5027,-4.40958 16.71876,-9.6573 25.9,-12.6 13.4,-1.08 26.91,-0.02 40.35,-0.4 2.3877,-16.31596 4.0993,-32.73322 6.5,-49.05 1.56894,-0.33672 3.12646,-0.68022 4.7,-1 4.18624,-0.6635 8.39824,-1.3102 12.6,-1.85 13.14,-20.04 25.87,-40.32 38.95,-60.4 -1.6,-4.9 -3.22,-9.8 -4.8,-14.7 7.16,-0.08 14.34,-0.05 21.5,0.05 3.46,-12.14 6.53,-24.39 9.55,-36.65 3.42,-12.88 6.99,-25.76 10.45,-38.6 -3.06,-5.64 -6.7722,-10.87876 -10.15,-16.35 -0.008,-0.012 0.008,-0.0378 0,-0.05 -0.1754,-0.82122 -0.29948,-1.66508 -0.25,-2.55 1.28,-11.78 5.99,-22.83 8.85,-34.25 1.86,-5.92 -3.86,-10.36 -7.5,-14.1 0.40754,0.99868 0.85992,1.99972 1.3,3 -3.89608,-7.43838 -8.24076,-14.68874 -11.8,-22.3 -5.74,-12.88 -18.86,-19.86 -27.8,-30.1 0.48,-8.66 2.96,-17.07 3.4,-25.75 -7.76,-0.56 -15.57,-1.16 -23.25,-2.4 0.08,-5.7 0.1,-11.37 0,-17.05 -6.34,-5.52 -12.38,-11.39 -19,-16.55 3.42,-5.8 8.79,-10.1 12.25,-15.9 -10.34,-4.22 -20.98,-7.77 -31.1,-12.45 -1.02,-4.04 -0.33,-8.25 -0.35,-12.35 -7.08,-2.5 -14.53,-3.51 -21.85,-5.05 -3.58,-18.44 -5.18,-37.27 -9,-55.65 -3.62,-3.78 -8.72,-5.67 -12.5,-9.25 -0.36,-11.42 -2.23,-22.76 -2.35,-34.2 -7.06,-7.78 -14.03,-15.61 -21.15,-23.35 -2.84,6.46 -4.6,13.29 -5.6,20.25 -0.82,-1.3 -1.64,-2.64 -2.5,-3.9 -4.02,-17.96 -8.65,-35.75 -12.85,-53.65 -0.58,-5.76 -7.28,-6.03 -11.4,-8.05 -3.06,-11.3 -3.61,-23.13 -7.35,-34.25 z"
       id="use4111" />
    <path
       inkscape:tile-y0="6.15625"
       inkscape:tile-x0="61.5625"
       inkscape:connector-curvature="0"
       style="fill:#f4722b"
       d="m 718,75.3 c -6.16,9.84 -13.05,19.2 -19.55,28.8 -1.1,1.9 -3.33,4.12 -1.75,6.4 4.04,4.56 9.58,7.68 13.2,12.6 0.68,3.78 0.41,7.68 0.55,11.5 -0.64,0.02 -1.91,0 -2.55,0 -1.3,-3.34 -2.59,-6.66 -3.85,-10 -4.62,-1.1 -8.51,0.34 -11.35,4.1 0.18,25.84 2.04,51.53 2.3,77.35 -6.4,8.6 -12.92,17.1 -19.2,25.8 -6.46,1.5 -12.84,3.46 -19.4,4.4 -4.1,-1.52 -7.52,-4.35 -11.2,-6.65 0.02,-3.38 0.19,-6.77 0.25,-10.15 -7.78,-3.48 -15.59,-6.97 -23.65,-9.75 -2.38,-2.54 -4.44,-5.32 -5.9,-8.5 -18.08,-9.88 -35.94,-20.13 -54.1,-29.85 3.56,-9.66 9.04,-18.41 13.1,-27.85 -2.34,-1.54 -4.68,-3.06 -7,-4.6 5.4,-1.76 10.86,-3.4 16.3,-5 3.76,-5.96 7.7,-11.87 10.3,-18.45 -4.92,-2.8 -9.67,-5.96 -15.05,-7.8 -2.06,1.94 -4.09,3.9 -6.15,5.8 -1.62,-2.58 -3.28,-5.15 -4.9,-7.75 -5.42,4.64 -10,12.57 -18.3,11.05 -3.06,-2.7 -4.97,-6.55 -7.95,-9.35 l -4.35,3.15 c -2.8,-2.7 -5.53,-5.47 -8.25,-8.25 -4.96,1.08 -9.81,2.57 -14.55,4.35 -0.34,-2.58 -0.68,-5.22 -1,-7.8 -8.84,0.48 -14.98,-5.92 -20.3,-12 -5.24,-0.1 -10.46,-0.12 -15.7,-0.1 0.48,1.14 1.47,3.44 1.95,4.6 2.38,6.22 11.22,0.7 14.6,5.6 0.54,5.14 0.45,10.29 0.55,15.45 -11.72,-0.54 -23.48,-0.4 -35.2,-0.5 -1.06,4.16 -2.14,8.34 -3.2,12.5 -3.52,-0.72 -7.01,-1.49 -10.55,-2.05 -6.12,12.96 -14.59,24.73 -20.15,37.95 3.86,3.6 8.06,6.96 11.3,11.2 0.3,4.72 -0.36,9.42 -0.9,14.1 -3.3,-3.42 -5.5,-7.91 -9.2,-10.85 -7.14,-0.9 -14.39,-0.45 -21.55,-0.25 -0.36,2.46 -0.72,4.91 -1.1,7.35 -5.26,-2.24 -3.91,-9.53 -8.25,-12.75 -7.9,-5.34 -16.68,-9.24 -24.4,-14.9 -7.04,0.54 -13.91,2.45 -20.95,3.05 -0.12,0.9 -0.41,2.65 -0.55,3.55 0.74,1.4 2.26,4.25 3,5.65 -5.94,0.22 -11.86,0.19 -17.8,0.05 -2.06,4.8 -3.89,9.72 -5.15,14.8 2.48,0.78 3.39,2.27 2.75,4.45 -4.26,2.1 -8.67,3.81 -13.05,5.65 0.24,8.6 2.4,16.98 3.4,25.5 -8.34,1.84 -15.25,-3.55 -22.25,-7.05 -0.08,8.74 0.11,17.51 -0.15,26.25 -6.12,-4.94 -11.21,-10.96 -17.05,-16.2 -2.52,8.36 -5.94,16.37 -8.7,24.65 -2.66,8.26 3.6,18.16 -3,25.3 -4.42,5.64 -7.13,12.79 -12.65,17.45 -29.72,15.06 -60.09,28.91 -89.75,44.15 -16.48,11.48 -32.7,23.37 -48.9,35.25 0.06,3.68 0.13,7.4 0.15,11.1 -6.28,-1.98 -12.15,-4.96 -17.95,-8 -0.98,13.28 -2.98,26.45 -4.8,39.65 4.66,6.98 8.27,14.58 12.35,21.9 5.82,11.06 11.87,22.01 17.35,33.25 -4.2,-1.76 -8.39,-3.53 -12.65,-5.15 2.44,4.62 5.09,9.16 7.85,13.6 -8.08,-1.2 -16.21,-2.23 -24.35,-2.85 0.66,0.22 1.99,0.68 2.65,0.9 13.7,3.34 23.1,14.65 32,24.75 7.02,15.36 12.81,31.27 19.15,46.95 4.58,12.4 13.08,22.73 20,33.85 2.6306,4.31652 6.03202,8.45388 8,13.15 -0.4362,-0.2555 -0.8734,-0.52364 -1.3,-0.8 3.48,14.34 4.25,29.14 6.25,43.7 -3.02,1.98 -6.05,3.95 -9.05,5.95 0.1592,0.39804 0.34074,0.80058 0.5,1.2 -0.1432,0.1244 -0.3082,0.22404 -0.45,0.35 0.51372,0.81146 1.04358,1.6298 1.55,2.45 0.63458,1.59612 1.25678,3.1974 1.9,4.8 0.3998,0.1072 0.80052,0.1916 1.2,0.3 0.1746,0.29634 0.32676,0.60358 0.5,0.9 l 0.45,-0.35 c 2.26756,0.51546 4.54706,1.02758 6.8,1.6 0.1838,0.0466 0.36632,0.103 0.55,0.15 13.37044,3.86778 26.631,8.23562 40.05,11.9 3.51726,1.0742 7.06698,2.13796 10.6,3.15 3.28,-3.72 6.54,-7.46 9.8,-11.2 -0.0656,-0.1674 -0.1346,-0.33256 -0.2,-0.5 4.04858,-4.6493 7.90588,-9.52134 12.15,-13.95 5.42,-5.46 9.84,-14.77 18.9,-13.55 17.8,0 35.58,0.24 53.4,0 5.34,-12.02 9.52,-24.53 15.3,-36.35 18.82,-4.9 37.76,-9.35 56.7,-13.75 10.16,-2.34 19.52,-7.06 29.3,-10.5 9.02,-3.18 18.76,-2.14 28,-4.1 2.36,-1.54 4.05,-3.9 5.95,-5.9 5.84,0.24 11.67,0.57 17.45,1.55 6.8,0.58 10.59,7.02 15.55,10.9 4.8,-2.08 9.64,-4.03 14.5,-5.95 4.46,5.34 8.64,10.89 12.7,16.55 3.76,-1.76 7.46,-3.62 11.1,-5.6 11.28,17.86 21.16,36.57 32.1,54.65 12.62,-15.1 22.66,-32.17 34.4,-47.95 3.26,3.26 6.19,6.9 8.55,10.9 -6.4,12.16 -17.77,22.57 -17.55,37.25 -2.62,1.56 -5.22,3.11 -7.8,4.75 5.2,0.32 10.4,0.13 15.6,-0.45 3.06,-4.62 6.28,-9.16 9.6,-13.6 3.4,4.78 5.09,10.42 6.75,16 -3.2,2.6 -6.38,5.25 -9.5,7.95 7.48,-1.42 14.86,-3.38 22.2,-5.4 3.84,14.16 5.2,28.87 8.6,43.15 1.14,5.9 6.6,9.31 10.8,13.05 6.5,4.94 12.05,10.98 18.65,15.8 3.46,0.72 6.69,-1.66 9.95,-2.5 9.92,5.64 17.64,14.62 27.7,19.9 8.02,-5.86 12.48,-15.77 20.4,-22.05 -0.7,4.76 -1.49,9.49 -2.35,14.25 5.72,-0.38 11.67,-2.1 17.35,-0.9 4.24102,2.74116 7.85026,6.2746 11.65,9.6 0.94758,0.94484 1.89918,1.86128 2.9,2.65 0.97012,-3.88048 1.89504,-7.7582 2.55,-11.7 0.2102,-0.45992 0.46054,-0.90286 0.7,-1.35 8.5027,-4.40958 16.71876,-9.6573 25.9,-12.6 13.4,-1.08 26.91,-0.02 40.35,-0.4 2.3877,-16.31596 4.0993,-32.73322 6.5,-49.05 1.56894,-0.33672 3.12646,-0.68022 4.7,-1 4.18624,-0.6635 8.39824,-1.3102 12.6,-1.85 13.14,-20.04 25.87,-40.32 38.95,-60.4 -1.6,-4.9 -3.22,-9.8 -4.8,-14.7 7.16,-0.08 14.34,-0.05 21.5,0.05 3.46,-12.14 6.53,-24.39 9.55,-36.65 3.42,-12.88 6.99,-25.76 10.45,-38.6 -3.06,-5.64 -6.7722,-10.87876 -10.15,-16.35 -0.008,-0.012 0.008,-0.0378 0,-0.05 -0.1754,-0.82122 -0.29948,-1.66508 -0.25,-2.55 1.28,-11.78 5.99,-22.83 8.85,-34.25 1.86,-5.92 -3.86,-10.36 -7.5,-14.1 0.40754,0.99868 0.85992,1.99972 1.3,3 -3.89608,-7.43838 -8.24076,-14.68874 -11.8,-22.3 -5.74,-12.88 -18.86,-19.86 -27.8,-30.1 0.48,-8.66 2.96,-17.07 3.4,-25.75 -7.76,-0.56 -15.57,-1.16 -23.25,-2.4 0.08,-5.7 0.1,-11.37 0,-17.05 -6.34,-5.52 -12.38,-11.39 -19,-16.55 3.42,-5.8 8.79,-10.1 12.25,-15.9 -10.34,-4.22 -20.98,-7.77 -31.1,-12.45 -1.02,-4.04 -0.33,-8.25 -0.35,-12.35 -7.08,-2.5 -14.53,-3.51 -21.85,-5.05 -3.58,-18.44 -5.18,-37.27 -9,-55.65 -3.62,-3.78 -8.72,-5.67 -12.5,-9.25 -0.36,-11.42 -2.23,-22.76 -2.35,-34.2 -7.06,-7.78 -14.03,-15.61 -21.15,-23.35 -2.84,6.46 -4.6,13.29 -5.6,20.25 -0.82,-1.3 -1.64,-2.64 -2.5,-3.9 -4.02,-17.96 -8.65,-35.75 -12.85,-53.65 -0.58,-5.76 -7.28,-6.03 -11.4,-8.05 C 722.29,98.25 721.74,86.42 718,75.3 z"
       id="use4107" />
    <path
       id="path3837"
       d="m 344.6,78.2 449.1,0 0,78.05 -449.1,0 0,-78.05 z"
       inkscape:connector-curvature="0"
       style="fill:#3e3e3e" />
    <path
       inkscape:tile-y0="6.15625"
       inkscape:tile-x0="61.5625"
       inkscape:connector-curvature="0"
       style="opacity:0.46000001;fill:#f4722b"
       d="m 718,140.75 c -6.16,9.84 -13.05,19.2 -19.55,28.8 -1.1,1.9 -3.33,4.12 -1.75,6.4 4.04,4.56 9.58,7.68 13.2,12.6 0.68,3.78 0.41,7.68 0.55,11.5 -0.64,0.02 -1.91,0 -2.55,0 -1.3,-3.34 -2.59,-6.66 -3.85,-10 -4.62,-1.1 -8.51,0.34 -11.35,4.1 0.18,25.84 2.04,51.53 2.3,77.35 -6.4,8.6 -12.92,17.1 -19.2,25.8 -6.46,1.5 -12.84,3.46 -19.4,4.4 -4.1,-1.52 -7.52,-4.35 -11.2,-6.65 0.02,-3.38 0.19,-6.77 0.25,-10.15 -7.78,-3.48 -15.59,-6.97 -23.65,-9.75 -2.38,-2.54 -4.44,-5.32 -5.9,-8.5 -18.08,-9.88 -35.94,-20.13 -54.1,-29.85 3.56,-9.66 9.04,-18.41 13.1,-27.85 -2.34,-1.54 -4.68,-3.06 -7,-4.6 5.4,-1.76 10.86,-3.4 16.3,-5 3.76,-5.96 7.7,-11.87 10.3,-18.45 -4.92,-2.8 -9.67,-5.96 -15.05,-7.8 -2.06,1.94 -4.09,3.9 -6.15,5.8 -1.62,-2.58 -3.28,-5.15 -4.9,-7.75 -5.42,4.64 -10,12.57 -18.3,11.05 -3.06,-2.7 -4.97,-6.55 -7.95,-9.35 L 537.8,176 c -2.8,-2.7 -5.53,-5.47 -8.25,-8.25 -4.96,1.08 -9.81,2.57 -14.55,4.35 -0.34,-2.58 -0.68,-5.22 -1,-7.8 -8.84,0.48 -14.98,-5.92 -20.3,-12 -5.24,-0.1 -10.46,-0.12 -15.7,-0.1 0.48,1.14 1.47,3.44 1.95,4.6 2.38,6.22 11.22,0.7 14.6,5.6 0.54,5.14 0.45,10.29 0.55,15.45 -11.72,-0.54 -23.48,-0.4 -35.2,-0.5 -1.06,4.16 -2.14,8.34 -3.2,12.5 -3.52,-0.72 -7.01,-1.49 -10.55,-2.05 -6.12,12.96 -14.59,24.73 -20.15,37.95 3.86,3.6 8.06,6.96 11.3,11.2 0.3,4.72 -0.36,9.42 -0.9,14.1 -3.3,-3.42 -5.5,-7.91 -9.2,-10.85 -7.14,-0.9 -14.39,-0.45 -21.55,-0.25 -0.36,2.46 -0.72,4.91 -1.1,7.35 -5.26,-2.24 -3.91,-9.53 -8.25,-12.75 -7.9,-5.34 -16.68,-9.24 -24.4,-14.9 -7.04,0.54 -13.91,2.45 -20.95,3.05 -0.12,0.9 -0.41,2.65 -0.55,3.55 0.74,1.4 2.26,4.25 3,5.65 -5.94,0.22 -11.86,0.19 -17.8,0.05 -2.06,4.8 -3.89,9.72 -5.15,14.8 2.48,0.78 3.39,2.27 2.75,4.45 -4.26,2.1 -8.67,3.81 -13.05,5.65 0.24,8.6 2.4,16.98 3.4,25.5 -8.34,1.84 -15.25,-3.55 -22.25,-7.05 -0.08,8.74 0.11,17.51 -0.15,26.25 -6.12,-4.94 -11.21,-10.96 -17.05,-16.2 -2.52,8.36 -5.94,16.37 -8.7,24.65 -2.66,8.26 3.6,18.16 -3,25.3 -4.42,5.64 -7.13,12.79 -12.65,17.45 -29.72,15.06 -60.09,28.91 -89.75,44.15 -16.48,11.48 -32.7,23.37 -48.9,35.25 0.06,3.68 0.13,7.4 0.15,11.1 -6.28,-1.98 -12.15,-4.96 -17.95,-8 -0.98,13.28 -2.98,26.45 -4.8,39.65 4.66,6.98 8.27,14.58 12.35,21.9 5.82,11.06 11.87,22.01 17.35,33.25 -4.2,-1.76 -8.39,-3.53 -12.65,-5.15 2.44,4.62 5.09,9.16 7.85,13.6 -8.08,-1.2 -16.21,-2.23 -24.35,-2.85 0.66,0.22 1.99,0.68 2.65,0.9 13.7,3.34 23.1,14.65 32,24.75 7.02,15.36 12.81,31.27 19.15,46.95 4.58,12.4 13.08,22.73 20,33.85 2.6306,4.31652 6.03202,8.45388 8,13.15 -0.4362,-0.2555 -0.8734,-0.52364 -1.3,-0.8 3.48,14.34 4.25,29.14 6.25,43.7 -3.02,1.98 -6.05,3.95 -9.05,5.95 0.1592,0.39804 0.34074,0.80058 0.5,1.2 -0.1432,0.1244 -0.3082,0.22404 -0.45,0.35 0.51372,0.81146 1.04358,1.6298 1.55,2.45 0.63458,1.59612 1.25678,3.1974 1.9,4.8 0.3998,0.1072 0.80052,0.1916 1.2,0.3 0.1746,0.29634 0.32676,0.60358 0.5,0.9 l 0.45,-0.35 c 2.26756,0.51546 4.54706,1.02758 6.8,1.6 0.1838,0.0466 0.36632,0.103 0.55,0.15 13.37044,3.86778 26.631,8.23562 40.05,11.9 3.51726,1.0742 7.06698,2.13796 10.6,3.15 3.28,-3.72 6.54,-7.46 9.8,-11.2 -0.0656,-0.1674 -0.1346,-0.33256 -0.2,-0.5 4.04858,-4.6493 7.90588,-9.52134 12.15,-13.95 5.42,-5.46 9.84,-14.77 18.9,-13.55 17.8,0 35.58,0.24 53.4,0 5.34,-12.02 9.52,-24.53 15.3,-36.35 18.82,-4.9 37.76,-9.35 56.7,-13.75 10.16,-2.34 19.52,-7.06 29.3,-10.5 9.02,-3.18 18.76,-2.14 28,-4.1 2.36,-1.54 4.05,-3.9 5.95,-5.9 5.84,0.24 11.67,0.57 17.45,1.55 6.8,0.58 10.59,7.02 15.55,10.9 4.8,-2.08 9.64,-4.03 14.5,-5.95 4.46,5.34 8.64,10.89 12.7,16.55 3.76,-1.76 7.46,-3.62 11.1,-5.6 11.28,17.86 21.16,36.57 32.1,54.65 12.62,-15.1 22.66,-32.17 34.4,-47.95 3.26,3.26 6.19,6.9 8.55,10.9 -6.4,12.16 -17.77,22.57 -17.55,37.25 -2.62,1.56 -5.22,3.11 -7.8,4.75 5.2,0.32 10.4,0.13 15.6,-0.45 3.06,-4.62 6.28,-9.16 9.6,-13.6 3.4,4.78 5.09,10.42 6.75,16 -3.2,2.6 -6.38,5.25 -9.5,7.95 7.48,-1.42 14.86,-3.38 22.2,-5.4 3.84,14.16 5.2,28.87 8.6,43.15 1.14,5.9 6.6,9.31 10.8,13.05 6.5,4.94 12.05,10.98 18.65,15.8 3.46,0.72 6.69,-1.66 9.95,-2.5 9.92,5.64 17.64,14.62 27.7,19.9 8.02,-5.86 12.48,-15.77 20.4,-22.05 -0.7,4.76 -1.49,9.49 -2.35,14.25 5.72,-0.38 11.67,-2.1 17.35,-0.9 4.24102,2.74116 7.85026,6.2746 11.65,9.6 0.94758,0.94484 1.89918,1.86128 2.9,2.65 0.97012,-3.88048 1.89504,-7.7582 2.55,-11.7 0.2102,-0.45992 0.46054,-0.90286 0.7,-1.35 8.5027,-4.40958 16.71876,-9.6573 25.9,-12.6 13.4,-1.08 26.91,-0.02 40.35,-0.4 2.3877,-16.31596 4.0993,-32.73322 6.5,-49.05 1.56894,-0.33672 3.12646,-0.68022 4.7,-1 4.18624,-0.6635 8.39824,-1.3102 12.6,-1.85 13.14,-20.04 25.87,-40.32 38.95,-60.4 -1.6,-4.9 -3.22,-9.8 -4.8,-14.7 7.16,-0.08 14.34,-0.05 21.5,0.05 3.46,-12.14 6.53,-24.39 9.55,-36.65 3.42,-12.88 6.99,-25.76 10.45,-38.6 -3.06,-5.64 -6.7722,-10.87876 -10.15,-16.35 -0.008,-0.012 0.008,-0.0378 0,-0.05 -0.1754,-0.82122 -0.29948,-1.66508 -0.25,-2.55 1.28,-11.78 5.99,-22.83 8.85,-34.25 1.86,-5.92 -3.86,-10.36 -7.5,-14.1 0.40754,0.99868 0.85992,1.99972 1.3,3 -3.89608,-7.43838 -8.24076,-14.68874 -11.8,-22.3 -5.74,-12.88 -18.86,-19.86 -27.8,-30.1 0.48,-8.66 2.96,-17.07 3.4,-25.75 -7.76,-0.56 -15.57,-1.16 -23.25,-2.4 0.08,-5.7 0.1,-11.37 0,-17.05 -6.34,-5.52 -12.38,-11.39 -19,-16.55 3.42,-5.8 8.79,-10.1 12.25,-15.9 -10.34,-4.22 -20.98,-7.77 -31.1,-12.45 -1.02,-4.04 -0.33,-8.25 -0.35,-12.35 -7.08,-2.5 -14.53,-3.51 -21.85,-5.05 -3.58,-18.44 -5.18,-37.27 -9,-55.65 -3.62,-3.78 -8.72,-5.67 -12.5,-9.25 -0.36,-11.42 -2.23,-22.76 -2.35,-34.2 -7.06,-7.78 -14.03,-15.61 -21.15,-23.35 -2.84,6.46 -4.6,13.29 -5.6,20.25 -0.82,-1.3 -1.64,-2.64 -2.5,-3.9 -4.02,-17.96 -8.65,-35.75 -12.85,-53.65 -0.58,-5.76 -7.28,-6.03 -11.4,-8.05 -3.06,-11.3 -3.61,-23.13 -7.35,-34.25 z"
       id="use4109" />
    <path
       id="path3065"
       d="m 718,9.85 c -6.16,9.84 -13.05,19.2 -19.55,28.8 -1.1,1.9 -3.33,4.12 -1.75,6.4 4.04,4.56 9.58,7.68 13.2,12.6 0.68,3.78 0.41,7.68 0.55,11.5 -0.64,0.02 -1.91,0 -2.55,0 -1.3,-3.34 -2.59,-6.66 -3.85,-10 -4.62,-1.1 -8.51,0.34 -11.35,4.1 0.18,25.84 2.04,51.53 2.3,77.35 -6.4,8.6 -12.92,17.1 -19.2,25.8 -6.46,1.5 -12.84,3.46 -19.4,4.4 -4.1,-1.52 -7.52,-4.35 -11.2,-6.65 0.02,-3.38 0.19,-6.77 0.25,-10.15 -7.78,-3.48 -15.59,-6.97 -23.65,-9.75 -2.38,-2.54 -4.44,-5.32 -5.9,-8.5 -18.08,-9.88 -35.94,-20.13 -54.1,-29.85 3.56,-9.66 9.04,-18.41 13.1,-27.85 -2.34,-1.54 -4.68,-3.06 -7,-4.6 5.4,-1.76 10.86,-3.4 16.3,-5 3.76,-5.96 7.7,-11.87 10.3,-18.45 -4.92,-2.8 -9.67,-5.96 -15.05,-7.8 -2.06,1.94 -4.09,3.9 -6.15,5.8 -1.62,-2.58 -3.28,-5.15 -4.9,-7.75 -5.42,4.64 -10,12.57 -18.3,11.05 -3.06,-2.7 -4.97,-6.55 -7.95,-9.35 l -4.35,3.15 c -2.8,-2.7 -5.53,-5.47 -8.25,-8.25 -4.96,1.08 -9.81,2.57 -14.55,4.35 -0.34,-2.58 -0.68,-5.22 -1,-7.8 -8.84,0.48 -14.98,-5.92 -20.3,-12 -5.24,-0.1 -10.46,-0.12 -15.7,-0.1 0.48,1.14 1.47,3.44 1.95,4.6 2.38,6.22 11.22,0.7 14.6,5.6 0.54,5.14 0.45,10.29 0.55,15.45 -11.72,-0.54 -23.48,-0.4 -35.2,-0.5 -1.06,4.16 -2.14,8.34 -3.2,12.5 -3.52,-0.72 -7.01,-1.49 -10.55,-2.05 -6.12,12.96 -14.59,24.73 -20.15,37.95 3.86,3.6 8.06,6.96 11.3,11.2 0.3,4.72 -0.36,9.42 -0.9,14.1 -3.3,-3.42 -5.5,-7.91 -9.2,-10.85 -7.14,-0.9 -14.39,-0.45 -21.55,-0.25 -0.36,2.46 -0.72,4.91 -1.1,7.35 -5.26,-2.24 -3.91,-9.53 -8.25,-12.75 -7.9,-5.34 -16.68,-9.24 -24.4,-14.9 -7.04,0.54 -13.91,2.45 -20.95,3.05 -0.12,0.9 -0.41,2.65 -0.55,3.55 0.74,1.4 2.26,4.25 3,5.65 -5.94,0.22 -11.86,0.19 -17.8,0.05 -2.06,4.8 -3.89,9.72 -5.15,14.8 2.48,0.78 3.39,2.27 2.75,4.45 -4.26,2.1 -8.67,3.81 -13.05,5.65 0.24,8.6 2.4,16.98 3.4,25.5 -8.34,1.84 -15.25,-3.55 -22.25,-7.05 -0.08,8.74 0.11,17.51 -0.15,26.25 -6.12,-4.94 -11.21,-10.96 -17.05,-16.2 -2.52,8.36 -5.94,16.37 -8.7,24.65 -2.66,8.26 3.6,18.16 -3,25.3 -4.42,5.64 -7.13,12.79 -12.65,17.45 -29.72,15.06 -60.09,28.91 -89.75,44.15 -16.48,11.48 -32.7,23.37 -48.9,35.25 0.06,3.68 0.13,7.4 0.15,11.1 -6.28,-1.98 -12.15,-4.96 -17.95,-8 -0.98,13.28 -2.98,26.45 -4.8,39.65 4.66,6.98 8.27,14.58 12.35,21.9 5.82,11.06 11.87,22.01 17.35,33.25 -4.2,-1.76 -8.39,-3.53 -12.65,-5.15 2.44,4.62 5.09,9.16 7.85,13.6 -8.08,-1.2 -16.21,-2.23 -24.35,-2.85 0.66,0.22 1.99,0.68 2.65,0.9 13.7,3.34 23.1,14.65 32,24.75 7.02,15.36 12.81,31.27 19.15,46.95 4.58,12.4 13.08,22.73 20,33.85 2.6306,4.31652 6.03202,8.45388 8,13.15 -0.4362,-0.2555 -0.8734,-0.52364 -1.3,-0.8 3.48,14.34 4.25,29.14 6.25,43.7 -3.02,1.98 -6.05,3.95 -9.05,5.95 0.1592,0.39804 0.34074,0.80058 0.5,1.2 -0.1432,0.1244 -0.3082,0.22404 -0.45,0.35 0.51372,0.81146 1.04358,1.6298 1.55,2.45 0.63458,1.59612 1.25678,3.1974 1.9,4.8 0.3998,0.1072 0.80052,0.1916 1.2,0.3 0.1746,0.29634 0.32676,0.60358 0.5,0.9 l 0.45,-0.35 c 2.26756,0.51546 4.54706,1.02758 6.8,1.6 0.1838,0.0466 0.36632,0.103 0.55,0.15 13.37044,3.86778 26.631,8.23562 40.05,11.9 3.51726,1.0742 7.06698,2.13796 10.6,3.15 3.28,-3.72 6.54,-7.46 9.8,-11.2 -0.0656,-0.1674 -0.1346,-0.33256 -0.2,-0.5 4.04858,-4.6493 7.90588,-9.52134 12.15,-13.95 5.42,-5.46 9.84,-14.77 18.9,-13.55 17.8,0 35.58,0.24 53.4,0 5.34,-12.02 9.52,-24.53 15.3,-36.35 18.82,-4.9 37.76,-9.35 56.7,-13.75 10.16,-2.34 19.52,-7.06 29.3,-10.5 9.02,-3.18 18.76,-2.14 28,-4.1 2.36,-1.54 4.05,-3.9 5.95,-5.9 5.84,0.24 11.67,0.57 17.45,1.55 6.8,0.58 10.59,7.02 15.55,10.9 4.8,-2.08 9.64,-4.03 14.5,-5.95 4.46,5.34 8.64,10.89 12.7,16.55 3.76,-1.76 7.46,-3.62 11.1,-5.6 11.28,17.86 21.16,36.57 32.1,54.65 12.62,-15.1 22.66,-32.17 34.4,-47.95 3.26,3.26 6.19,6.9 8.55,10.9 -6.4,12.16 -17.77,22.57 -17.55,37.25 -2.62,1.56 -5.22,3.11 -7.8,4.75 5.2,0.32 10.4,0.13 15.6,-0.45 3.06,-4.62 6.28,-9.16 9.6,-13.6 3.4,4.78 5.09,10.42 6.75,16 -3.2,2.6 -6.38,5.25 -9.5,7.95 7.48,-1.42 14.86,-3.38 22.2,-5.4 3.84,14.16 5.2,28.87 8.6,43.15 1.14,5.9 6.6,9.31 10.8,13.05 6.5,4.94 12.05,10.98 18.65,15.8 3.46,0.72 6.69,-1.66 9.95,-2.5 9.92,5.64 17.64,14.62 27.7,19.9 8.02,-5.86 12.48,-15.77 20.4,-22.05 -0.7,4.76 -1.49,9.49 -2.35,14.25 5.72,-0.38 11.67,-2.1 17.35,-0.9 4.24102,2.74116 7.85026,6.2746 11.65,9.6 0.94758,0.94484 1.89918,1.86128 2.9,2.65 0.97012,-3.88048 1.89504,-7.7582 2.55,-11.7 0.2102,-0.45992 0.46054,-0.90286 0.7,-1.35 8.5027,-4.40958 16.71876,-9.6573 25.9,-12.6 13.4,-1.08 26.91,-0.02 40.35,-0.4 2.3877,-16.31596 4.0993,-32.73322 6.5,-49.05 1.56894,-0.33672 3.12646,-0.68022 4.7,-1 4.18624,-0.6635 8.39824,-1.3102 12.6,-1.85 13.14,-20.04 25.87,-40.32 38.95,-60.4 -1.6,-4.9 -3.22,-9.8 -4.8,-14.7 7.16,-0.08 14.34,-0.05 21.5,0.05 3.46,-12.14 6.53,-24.39 9.55,-36.65 3.42,-12.88 6.99,-25.76 10.45,-38.6 -3.06,-5.64 -6.7722,-10.87876 -10.15,-16.35 -0.008,-0.012 0.008,-0.0378 0,-0.05 -0.1754,-0.82122 -0.29948,-1.66508 -0.25,-2.55 1.28,-11.78 5.99,-22.83 8.85,-34.25 1.86,-5.92 -3.86,-10.36 -7.5,-14.1 0.40754,0.99868 0.85992,1.99972 1.3,3 -3.89608,-7.43838 -8.24076,-14.68874 -11.8,-22.3 -5.74,-12.88 -18.86,-19.86 -27.8,-30.1 0.48,-8.66 2.96,-17.07 3.4,-25.75 -7.76,-0.56 -15.57,-1.16 -23.25,-2.4 0.08,-5.7 0.1,-11.37 0,-17.05 -6.34,-5.52 -12.38,-11.39 -19,-16.55 3.42,-5.8 8.79,-10.1 12.25,-15.9 -10.34,-4.22 -20.98,-7.77 -31.1,-12.45 -1.02,-4.04 -0.33,-8.25 -0.35,-12.35 -7.08,-2.5 -14.53,-3.51 -21.85,-5.05 -3.58,-18.44 -5.18,-37.27 -9,-55.65 -3.62,-3.78 -8.72,-5.67 -12.5,-9.25 -0.36,-11.42 -2.23,-22.76 -2.35,-34.2 -7.06,-7.78 -14.03,-15.61 -21.15,-23.35 -2.84,6.46 -4.6,13.29 -5.6,20.25 -0.82,-1.3 -1.64,-2.64 -2.5,-3.9 -4.02,-17.96 -8.65,-35.75 -12.85,-53.65 -0.58,-5.76 -7.28,-6.03 -11.4,-8.05 C 722.29,32.8 721.74,20.97 718,9.85 z"
       style="opacity:0.27999998;fill:#f4722b"
       inkscape:connector-curvature="0"
       inkscape:tile-cx="321.39063"
       inkscape:tile-cy="210.6875"
       inkscape:tile-w="519.65625"
       inkscape:tile-h="409.0625"
       inkscape:tile-x0="61.5625"
       inkscape:tile-y0="6.15625" />
    <path
       style="fill:#f5e5c1"
       d="m 718,9.85 c -6.16,9.84 -13.05,19.2 -19.55,28.8 -1.1,1.9 -3.33,4.12 -1.75,6.4 4.04,4.56 9.58,7.68 13.2,12.6 0.68,3.78 0.41,7.68 0.55,11.5 -0.64,0.02 -1.91,0 -2.55,0 -1.3,-3.34 -2.59,-6.66 -3.85,-10 -4.62,-1.1 -8.51,0.34 -11.35,4.1 0.18,25.84 2.04,51.53 2.3,77.35 -6.4,8.6 -12.92,17.1 -19.2,25.8 -6.46,1.5 -12.84,3.46 -19.4,4.4 -4.1,-1.52 -7.52,-4.35 -11.2,-6.65 0.02,-3.38 0.19,-6.77 0.25,-10.15 -7.78,-3.48 -15.59,-6.97 -23.65,-9.75 -2.38,-2.54 -4.44,-5.32 -5.9,-8.5 -18.08,-9.88 -35.94,-20.13 -54.1,-29.85 3.56,-9.66 9.04,-18.41 13.1,-27.85 -2.34,-1.54 -4.68,-3.06 -7,-4.6 5.4,-1.76 10.86,-3.4 16.3,-5 3.76,-5.96 7.7,-11.87 10.3,-18.45 -4.92,-2.8 -9.67,-5.96 -15.05,-7.8 -2.06,1.94 -4.09,3.9 -6.15,5.8 -1.62,-2.58 -3.28,-5.15 -4.9,-7.75 -5.42,4.64 -10,12.57 -18.3,11.05 -3.06,-2.7 -4.97,-6.55 -7.95,-9.35 l -4.35,3.15 c -2.8,-2.7 -5.53,-5.47 -8.25,-8.25 -4.96,1.08 -9.81,2.57 -14.55,4.35 -0.34,-2.58 -0.68,-5.22 -1,-7.8 -8.84,0.48 -14.98,-5.92 -20.3,-12 -5.24,-0.1 -10.46,-0.12 -15.7,-0.1 0.48,1.14 1.47,3.44 1.95,4.6 2.38,6.22 11.22,0.7 14.6,5.6 0.54,5.14 0.45,10.29 0.55,15.45 -11.72,-0.54 -23.48,-0.4 -35.2,-0.5 -1.06,4.16 -2.14,8.34 -3.2,12.5 -3.52,-0.72 -7.01,-1.49 -10.55,-2.05 -6.12,12.96 -14.59,24.73 -20.15,37.95 3.86,3.6 8.06,6.96 11.3,11.2 0.3,4.72 -0.36,9.42 -0.9,14.1 -3.3,-3.42 -5.5,-7.91 -9.2,-10.85 -7.14,-0.9 -14.39,-0.45 -21.55,-0.25 -0.36,2.46 -0.72,4.91 -1.1,7.35 -5.26,-2.24 -3.91,-9.53 -8.25,-12.75 -7.9,-5.34 -16.68,-9.24 -24.4,-14.9 -7.04,0.54 -13.91,2.45 -20.95,3.05 -0.12,0.9 -0.41,2.65 -0.55,3.55 0.74,1.4 2.26,4.25 3,5.65 -5.94,0.22 -11.86,0.19 -17.8,0.05 -2.06,4.8 -3.89,9.72 -5.15,14.8 2.48,0.78 3.39,2.27 2.75,4.45 -4.26,2.1 -8.67,3.81 -13.05,5.65 0.24,8.6 2.4,16.98 3.4,25.5 -8.34,1.84 -15.25,-3.55 -22.25,-7.05 -0.08,8.74 0.11,17.51 -0.15,26.25 -6.12,-4.94 -11.21,-10.96 -17.05,-16.2 -2.52,8.36 -5.94,16.37 -8.7,24.65 -2.66,8.26 3.6,18.16 -3,25.3 -4.42,5.64 -7.13,12.79 -12.65,17.45 -29.72,15.06 -60.09,28.91 -89.75,44.15 -16.48,11.48 -32.7,23.37 -48.9,35.25 0.06,3.68 0.13,7.4 0.15,11.1 -6.28,-1.98 -12.15,-4.96 -17.95,-8 -0.98,13.28 -2.98,26.45 -4.8,39.65 4.66,6.98 8.27,14.58 12.35,21.9 5.82,11.06 11.87,22.01 17.35,33.25 -4.2,-1.76 -8.39,-3.53 -12.65,-5.15 2.44,4.62 5.09,9.16 7.85,13.6 -8.08,-1.2 -16.21,-2.23 -24.35,-2.85 0.66,0.22 1.99,0.68 2.65,0.9 13.7,3.34 23.1,14.65 32,24.75 7.02,15.36 12.81,31.27 19.15,46.95 4.58,12.4 13.08,22.73 20,33.85 2.63061,4.31652 6.03202,8.45388 8,13.15 -0.43619,-0.2555 -0.87341,-0.52364 -1.3,-0.8 3.48,14.34 4.25,29.14 6.25,43.7 -3.02,1.98 -6.05,3.95 -9.05,5.95 0.15922,0.39804 0.34074,0.80058 0.5,1.2 -0.14318,0.1244 -0.30819,0.22404 -0.45,0.35 0.51373,0.81146 1.04358,1.6298 1.55,2.45 0.63458,1.59612 1.25678,3.1974 1.9,4.8 0.39979,0.1072 0.80051,0.1916 1.2,0.3 0.17454,0.29634 0.32675,0.60358 0.5,0.9 l 0.45,-0.35 c 2.26755,0.51546 4.54706,1.02758 6.8,1.6 0.18376,0.0466 0.36632,0.103 0.55,0.15 13.37044,3.86778 26.631,8.23562 40.05,11.9 3.51726,1.0742 7.06698,2.13796 10.6,3.15 3.28,-3.72 6.54,-7.46 9.8,-11.2 -0.0656,-0.1674 -0.1346,-0.33256 -0.2,-0.5 4.04858,-4.6493 7.90588,-9.52134 12.15,-13.95 5.42,-5.46 9.84,-14.77 18.9,-13.55 17.8,0 35.58,0.24 53.4,0 5.34,-12.02 9.52,-24.53 15.3,-36.35 18.82,-4.9 37.76,-9.35 56.7,-13.75 10.16,-2.34 19.52,-7.06 29.3,-10.5 9.02,-3.18 18.76,-2.14 28,-4.1 2.36,-1.54 4.05,-3.9 5.95,-5.9 5.84,0.24 11.67,0.57 17.45,1.55 6.8,0.58 10.59,7.02 15.55,10.9 4.8,-2.08 9.64,-4.03 14.5,-5.95 4.46,5.34 8.64,10.89 12.7,16.55 3.76,-1.76 7.46,-3.62 11.1,-5.6 11.28,17.86 21.16,36.57 32.1,54.65 12.62,-15.1 22.66,-32.17 34.4,-47.95 3.26,3.26 6.19,6.9 8.55,10.9 -6.4,12.16 -17.77,22.57 -17.55,37.25 -2.62,1.56 -5.22,3.11 -7.8,4.75 5.2,0.32 10.4,0.13 15.6,-0.45 3.06,-4.62 6.28,-9.16 9.6,-13.6 3.4,4.78 5.09,10.42 6.75,16 -3.2,2.6 -6.38,5.25 -9.5,7.95 7.48,-1.42 14.86,-3.38 22.2,-5.4 3.84,14.16 5.2,28.87 8.6,43.15 1.14,5.9 6.6,9.31 10.8,13.05 6.5,4.94 12.05,10.98 18.65,15.8 3.46,0.72 6.69,-1.66 9.95,-2.5 9.92,5.64 17.64,14.62 27.7,19.9 8.02,-5.86 12.48,-15.77 20.4,-22.05 -0.7,4.76 -1.49,9.49 -2.35,14.25 5.72,-0.38 11.67,-2.1 17.35,-0.9 4.24102,2.74116 7.85026,6.2746 11.65,9.6 0.94758,0.94484 1.89918,1.86128 2.9,2.65 0.97012,-3.88048 1.89504,-7.7582 2.55,-11.7 0.2102,-0.45992 0.46054,-0.90286 0.7,-1.35 8.5027,-4.40958 16.71876,-9.6573 25.9,-12.6 13.4,-1.08 26.91,-0.02 40.35,-0.4 2.3877,-16.31596 4.0993,-32.73322 6.5,-49.05 1.56894,-0.33672 3.12646,-0.68022 4.7,-1 4.18624,-0.6635 8.39824,-1.3102 12.6,-1.85 13.14,-20.04 25.87,-40.32 38.95,-60.4 -1.6,-4.9 -3.22,-9.8 -4.8,-14.7 7.16,-0.08 14.34,-0.05 21.5,0.05 3.46,-12.14 6.53,-24.39 9.55,-36.65 3.42,-12.88 6.99,-25.76 10.45,-38.6 -3.06,-5.64 -6.7722,-10.87876 -10.15,-16.35 -0.008,-0.012 0.008,-0.0378 0,-0.05 -0.1754,-0.82122 -0.29948,-1.66508 -0.25,-2.55 1.28,-11.78 5.99,-22.83 8.85,-34.25 1.86,-5.92 -3.86,-10.36 -7.5,-14.1 0.40754,0.99868 0.85992,1.99972 1.3,3 -3.89608,-7.43838 -8.24076,-14.68874 -11.8,-22.3 -5.74,-12.88 -18.86,-19.86 -27.8,-30.1 0.48,-8.66 2.96,-17.07 3.4,-25.75 -7.76,-0.56 -15.57,-1.16 -23.25,-2.4 0.08,-5.7 0.1,-11.37 0,-17.05 -6.34,-5.52 -12.38,-11.39 -19,-16.55 3.42,-5.8 8.79,-10.1 12.25,-15.9 -10.34,-4.22 -20.98,-7.77 -31.1,-12.45 -1.02,-4.04 -0.33,-8.25 -0.35,-12.35 -7.08,-2.5 -14.53,-3.51 -21.85,-5.05 -3.58,-18.44 -5.18,-37.27 -9,-55.65 -3.62,-3.78 -8.72,-5.67 -12.5,-9.25 -0.36,-11.42 -2.23,-22.76 -2.35,-34.2 -7.06,-7.78 -14.03,-15.61 -21.15,-23.35 -2.84,6.46 -4.6,13.29 -5.6,20.25 -0.82,-1.3 -1.64,-2.64 -2.5,-3.9 -4.02,-17.96 -8.65,-35.75 -12.85,-53.65 -0.58,-5.76 -7.28,-6.03 -11.4,-8.05 C 722.29,32.8 721.74,20.97 718,9.85 z"
       id="path3063"
       inkscape:connector-curvature="0" />
    <path
       d="m 475.74,194.8 c 49.02,-7.5 99.44,0.56 145.5,18.14 63.66,25.24 117.22,74.62 147.92,135.8 12.94,25.16 20.96,52.56 26.24,80.26 4.5,23.42 5.62,47.44 3.66,71.18 -5.04,54.24 -23.84,107.66 -57.34,150.96 -14.56,19.3 -31.76,36.64 -50.7,51.64 -15.14,11.56 -31.1,22.16 -48.2,30.6 -13.24,6.8 -27.18,12.18 -41.38,16.64 -34.34,10.12 -70.22,16.26 -106.08,13.34 -8.98,-0.88 -17.94,-1.98 -26.86,-3.4 -37.32,-6.38 -73.98,-18.78 -105.94,-39.38 -14.66,-9.24 -28.78,-19.44 -41.48,-31.26 -20.36,-18.64 -37.92,-40.18 -52.2,-63.82 -7.14,-11.84 -13.36,-24.26 -18.68,-37.04 -15.94,-40.68 -24.7,-84.76 -21.56,-128.56 1.32,-20.92 5.62,-41.54 11.14,-61.72 20.52,-74.96 74.46,-139.48 143.56,-174.64 28.8,-14.94 60.46,-23.68 92.4,-28.74 z"
       id="path8"
       inkscape:connector-curvature="0"
       style="fill:#3e3e3e" />
    <path
       d="m 485.02,219.58 c 55.06,-6.2 112,5.68 159.8,33.74 48.16,27.78 86.74,71.62 108.38,122.82 22.28,51.84 26.82,111.06 12.84,165.72 -12.52,49.74 -40.2,95.6 -78.46,129.76 -34.66,31.06 -77.72,52.6 -123.4,61.5 -52.54,10.4 -108.24,4.06 -157.02,-18.08 -57.4,-25.6 -104.66,-72.88 -130.24,-130.3 -20.94,-46.2 -27.76,-98.6 -19.52,-148.62 9.98,-62.28 43.58,-120.5 92.76,-160.02 38.32,-31.22 85.74,-51.02 134.86,-56.52 z"
       id="path10"
       inkscape:connector-curvature="0"
       style="fill:#f5e5c1" />
    <path
       d="m 479.22,281.82 c 20.8,-2.76 41.94,-2.14 62.84,-0.92 42.86,5.72 83.34,26.6 113.78,57.2 29.08,29.7 48.8,68.54 55.04,109.66 6.64,27.92 2.08,56.9 -5.12,84.2 -12.94,45.44 -42.16,86.18 -81.8,112.04 -29.52,19.86 -64.52,30.56 -99.76,33.8 -20.38,1.5 -40.52,-2.22 -60.26,-6.94 C 417.88,658.7 376.2,629.94 349.58,590.3 327.36,557.48 313.94,517.92 315.98,478 c -2.08,-40.9 12.04,-81.46 35.3,-114.76 29.64,-42.66 76.88,-72.34 127.94,-81.42 z"
       id="path12"
       inkscape:connector-curvature="0"
       style="fill:#3e3e3e" />
    <path
       d="m 489.2,315.82 c 33.1,-4.78 67.68,0.14 97.64,15.26 35.46,17.36 64.02,48.12 78.9,84.68 16.04,38.78 16.28,83.84 0.68,122.8 -14.36,36.38 -42.16,67.24 -77,85.06 -25.54,13.32 -54.64,19.62 -83.42,18.1 -40.74,-1.6 -80.38,-19.64 -108.92,-48.66 -29.34,-29.8 -46.88,-71.12 -46.96,-113.02 -0.82,-37.98 12.56,-75.92 36.5,-105.34 25.26,-31.52 62.7,-52.76 102.58,-58.88 z"
       id="path14"
       inkscape:connector-curvature="0"
       style="fill:#f5e5c1" />
    <path
       d="m 491.32,376.04 c 22.9,-4 47.62,-2.94 68.66,7.84 28.4,13.38 49.86,40.32 56.76,70.92 7.56,28.02 0.54,58.7 -15.36,82.56 -20.04,30.42 -57,48.26 -93.22,46.32 C 490.28,582 472.56,576.56 457.48,566.64 432,550.28 414,522.34 410.52,492.16 c -0.82,-15.22 -1.2,-30.92 3.92,-45.52 10.74,-34.98 41.12,-62.84 76.88,-70.6 z"
       id="path18"
       inkscape:connector-curvature="0"
       style="fill:#3e3e3e" />
    <path
       d="m 504.22,404.42 c 32.2,-4 65.06,16.16 76.6,46.34 8.7,21.78 6.26,47.66 -6.6,67.32 -9.06,13.66 -22.44,24.64 -38.06,29.88 -22.5,7.86 -48.74,4.04 -67.86,-10.24 -28.08,-19.84 -38.44,-60.08 -23.38,-91.02 10.72,-23.04 33.88,-39.94 59.3,-42.28 z"
       id="path20"
       inkscape:connector-curvature="0"
       style="fill:#f4722b" />
  </g>
</svg>
