<?xml version="1.0" encoding="UTF-8" standalone="no"?>
<svg
   xmlns:dc="http://purl.org/dc/elements/1.1/"
   xmlns:cc="http://creativecommons.org/ns#"
   xmlns:rdf="http://www.w3.org/1999/02/22-rdf-syntax-ns#"
   xmlns:svg="http://www.w3.org/2000/svg"
   xmlns="http://www.w3.org/2000/svg"
   xmlns:sodipodi="http://sodipodi.sourceforge.net/DTD/sodipodi-0.dtd"
   xmlns:inkscape="http://www.inkscape.org/namespaces/inkscape"
   width="1280"
   height="1280"
   viewBox="0 0 1024 1024"
   version="1.1"
   id="svg2"
   inkscape:version="0.48.1 "
   sodipodi:docname="freezecam_wave.svg">
  <metadata
     id="metadata70">
    <rdf:RDF>
      <cc:Work
         rdf:about="">
        <dc:format>image/svg+xml</dc:format>
        <dc:type
           rdf:resource="http://purl.org/dc/dcmitype/StillImage" />
      </cc:Work>
    </rdf:RDF>
  </metadata>
  <defs
     id="defs68" />
  <sodipodi:namedview
     pagecolor="#ffffff"
     bordercolor="#666666"
     borderopacity="1"
     objecttolerance="10"
     gridtolerance="10"
     guidetolerance="10"
     inkscape:pageopacity="0"
     inkscape:pageshadow="2"
     inkscape:window-width="1920"
     inkscape:window-height="1018"
     id="namedview66"
     showgrid="false"
     inkscape:snap-page="true"
     inkscape:zoom="0.6609375"
     inkscape:cx="466.00473"
     inkscape:cy="640"
     inkscape:window-x="-8"
     inkscape:window-y="-8"
     inkscape:window-maximized="1"
     inkscape:current-layer="layer1"
     fit-margin-top="0"
     fit-margin-left="0"
     fit-margin-right="0"
     fit-margin-bottom="0" />
  <g
     inkscape:groupmode="layer"
     id="layer1"
     inkscape:label="background">
    <rect
       style="fill:#3e3e3e;fill-opacity:1;fill-rule:nonzero;stroke:none"
       id="rect3049"
       width="1024"
       height="1024"
       x="0"
       y="0" />
  </g>
  <g
     inkscape:groupmode="layer"
     id="layer2"
     inkscape:label="foreground">
    <path
       style="fill:#f5e5c1"
       d="M 1061.5625,0 C 985.7375,11.875 909.575,21.775 833.625,32.875 555.725,72.425 277.875,111.925 0,151.5 l 0,718.9375 c 18.275,46.15 39.25,91.1625 59.875,136.3125 14.025,-3.1 31.9625,4.6 32.0625,20.75 1.9,10 -4.9625,17.7875 -11.9375,23.8125 5.925,14.25 12.35,28.25 18.875,42.25 8.7,-2.55 18.175,-4.2875 27,-1.3125 11.625,4.4 20.425,15.5 21.875,27.875 1.475,9 -2.95,17.4625 -7,25.1875 7.4,5.4 16.675,11.675 16,22.125 2.075,12.2 -11.7875,16.45 -15.5625,26.375 6.3,0.85 14.3375,-1.9 19.1875,3.5 4.325,4.725 6.7,11.5125 5.75,17.9375 -1.3,5 -6.8,6.65 -10.5,9.5 3.15,7.95 6.25,15.925 9.375,23.875 21.05,-6.725 41.95,-13.7625 63,-20.4375 -19.075,11.45 -38.725,21.8125 -58.125,32.6875 2.475,6.375 4.9375,12.75 7.4375,19.125 l 456.3125,0 c 164.475,-39.85 329.1625,-78.8375 493.6875,-118.4375 0.9,-9.525 4.675,-19.975 14.75,-23.125 11.7,-5.475 23.1875,3.3625 29.9375,12.4375 36,-8.575 72,-17.225 108,-25.875 l 0,-367.5625 c -7.825,-12.25 -15.375,-24.675 -22.875,-37.125 -6.875,-11.05 -9.975,-23.775 -14.375,-35.875 -10.1,-29.625 -20.95,-59.025 -30.625,-88.75 -20.15,-76.975 -39.675,-154.125 -59.75,-231.125 -4.05,-15.275 -3.475,-31.2375 -5.25,-46.8125 -12.35,-4.725 -25.5,-11.625 -30.25,-24.875 -8.25,-18.225 3.025,-42.0625 22.875,-46.1875 -11.425,-4.5 -22.325,-13.0625 -24.625,-25.8125 -3.775,-16.025 7.425,-31.4 21.875,-37.375 -1.375,-34.4 -6.35,-68.4875 -9.875,-102.6875 C 1097.95,77.1625 1068.6625,74.1 1039.5625,70 c 28.4,-3.625 56.95,-6.175 85.375,-9.625 -2.275,-20.125 -4.4,-40.25 -6.625,-60.375 z m -54.125,119.9375 c 14.1844,0.0125 28.3875,0.2 42.5625,0.0625 4.9,77 9.7125,154 14.5625,231 0.775,10.65 3.65,20.975 5.875,31.375 12.7,57.875 25.45,115.725 38.125,173.625 1.225,5.375 2.7625,10.6875 4.5625,15.9375 19.7,57.85 39.05,115.8125 58.75,173.6875 12.975,32.625 26.9,64.9 40,97.5 5.025,12.1 8.75,24.75 14.625,36.5 -103,25 -206.45,48.1 -309.625,72.375 -68.05,15.725 -136.075,31.625 -204.125,47.25 -8.85,2.35 -15.275,-6.1 -23.375,-7.625 -2.275,5.7 4.7625,8.15 8.0625,11.25 -13.25,3.125 -26.525,6.1875 -39.75,9.3125 1.3,-27.45 0.9875,-55 3.4375,-82.375 0.9,-28.85 0.975,-57.7125 0.25,-86.5625 -0.95,-8.675 -0.3875,-20.4875 -10.3125,-24.0625 -1.475,28.475 0.9125,57.025 -1.3125,85.5 -1.45,36.375 -3.775,72.7625 -3.625,109.1875 -1.125,0.6 -3.4375,1.8125 -4.5625,2.4375 -33.775,6.9 -67.19375,15.45 -100.84375,23 7.325,-61.125 5.84375,-122.7625 5.09375,-184.1875 -0.5,-11.35 -1.90625,-22.65625 -1.90625,-34.03125 -0.0562,-6.09375 -0.0671,-12.18223 -0.1875,-18.28125 0.11162,6.10122 0.1,12.21875 0.15625,18.3125 -1.55,-10.25 -2.15,-20.6125 -2.625,-30.9375 -0.275,-16.95 -6.675,-33.0625 -7.625,-49.9375 -2.025,-12.6 -1.8375,-28.0375 -14.0625,-35.5625 -1.275,3.3 -2.4625,6.6375 -3.6875,9.9375 -33.625,-6.85 -71.1,-7.4375 -101.875,9.6875 0.2,-16.45 -0.15,-32.925 -1.125,-49.375 -0.45,-4.225 -1.45,-12.0125 -7.5,-7.9375 -4.325,27.525 4.325,55.9 -3,83.125 -3.475,14.75 -3.275,29.9875 -5.25,44.9375 -1.95,20.025 -5.6,39.8875 -10.875,59.3125 2.35,-0.775 5.8125,-0.05 6.9375,-2.875 10.925,-23.1 9.875,-49.3125 16,-73.6875 3.675,-15.15 4.2125,-30.775 4.9375,-46.25 15.975,-7.425 33.675,-9.8875 51,-11.9375 17.275,-2.025 34.3125,1.95 51.4375,3.5 2.225,16.5 1.75,33.3125 6.375,49.4375 4.925,39.75 7.0875,79.825 6.4375,119.875 -0.425,15.05 2.275,30.0125 1.5,45.0625 -2.45,35.2 -1.575,70.65 -7,105.625 -11.3,2.8 -22.6,5.4625 -34,7.8125 5.475,-13.6 14.125,-26.55 14.625,-41.625 -2.75,1.175 -5.7875,2.3125 -6.8125,5.4375 -7.675,12.6 -12.8,26.775 -21,39 -14.925,4.5 -30.3375,7.35 -45.5625,10.75 -13.45,-6.8 -28.975,-7 -43.375,-10.625 -0.8,-18.1 5.4125,-35.475 5.3125,-53.5 -14.75,16.075 -14.15,40.1 -11.375,60.375 10.6,4.125 21.65,6.95 33,8 -41.65,9.275 -83.1375,19.1375 -124.6875,28.8125 -2.25,-3.25 -4.4875,-6.5375 -6.6875,-9.8125 14.35,-25.45 23.175,-53.6875 27.875,-82.4375 1.575,-14.675 0.7375,-30.8375 -8.1875,-43.1875 -9.5,-10.55 -24.8,-12.5 -38.125,-13.75 -12.45,1.55 -26.6125,0.5375 -36.6875,9.3125 -5.875,4.15 -6.6125,11.9125 -8.9375,18.1875 C 209.375,958.525 200.1,940.8 191.875,922.625 165.9,836.15 140.35,749.55 114.5,663 107.925,639.9 100.2125,617.075 94.3125,593.75 82.3125,528.4 70.3875,463 58.4375,397.625 c -2.225,-16.5 -2.3625,-33.2625 -0.5625,-49.8125 4.075,-37.575 8.075,-75.175 12.125,-112.75 196.8,-31.975 393.6125,-63.825 590.4375,-95.75 16.275,-2.35 32.3875,-6 48.8125,-7.125 85.225,-3.725 170.4,-7.5375 255.625,-11.3125 14.1625,-0.8125 28.37813,-0.95 42.5625,-0.9375 z M 171.15625,1176.375 c 0.22153,-0.01 0.43365,-0.011 0.65625,0 1.64382,0.079 3.32812,0.6719 4.875,1.9375 6.8,3.9 3.7125,12.0375 1.3125,17.6875 -5.275,0.2 -12.5,2.3625 -15.125,-3.9375 -4.78169,-6.474 1.41388,-15.4427 8.28125,-15.6875 z"
       id="path6"
       inkscape:connector-curvature="0"
       sodipodi:nodetypes="ccccccccccccccccccccccccccccccccccccccccsccccccccccccccccccccccccccccccccccccccccccccccccccccccccccccccccccccscccccc"
       transform="scale(0.8,0.8)" />
    <path
       d="m 740.96,127.16 c 5.18,-1.58 13.36,-1.86 15.44,4.48 2.52,9.24 2.56,18.98 2.22,28.5 -0.6,8.18 2.74,16 2.58,24.18 -1.68,-4.6 -1.1,-10.84 -5.84,-13.66 -5.18,-1.06 -9.96,1.42 -14.68,3.04 0.1,-9.38 -0.48,-18.74 -2.26,-27.96 -0.76,-6.08 -2.52,-13.86 2.54,-18.58 z"
       id="path12"
       inkscape:connector-curvature="0"
       style="fill:#f5e5c1" />
    <path
       d="m 721.16,139.28 c 4.16,-2.3 9.76,-0.24 11.12,4.42 3.4,9.4 3.62,19.74 2.62,29.6 -5,2.3 -11.62,-0.26 -15.84,3.86 -0.18,1.66 -0.28,3.32 -0.32,5 16.52,10.46 23.34,30.6 39.1,41.94 7.08,7.4 10.7,17.9 11.46,28.04 -2.68,-9.18 -6.94,-17.74 -11.32,-26.2 -9.44,-5.6 -15.26,-15.22 -21.84,-23.68 -5.46,6.08 -12.24,10.66 -19.62,14.1 1.58,21.42 3.34,42.94 1,64.38 11.84,-2.4 24.14,-1.24 35.56,2.5 5.9,1.96 10.94,5.94 16.9,7.68 5.56,0.4 11.14,0.72 16.56,2.2 6.98,-16.66 13.04,-33.7 18.1,-51.02 -0.02,-14.42 -4.96,-28.6 -3.64,-43.08 3.7,13.94 3.88,28.68 5.88,42.96 -1.92,19.62 -10.56,37.66 -16.54,56.24 -2.3,0.62 -4.62,1.14 -6.96,1.56 -2.92,8.8 -1.06,20.06 -8.2,26.92 -0.04,-9.76 2.2,-19.34 2.5,-29.08 -12.06,-4.28 -22.66,-12.4 -35.5,-14.38 -7.56,-1.04 -15.28,-2.86 -22.8,-0.66 -1.8,7.52 -4.38,14.8 -6.78,22.14 11.34,0.14 21.76,5.58 33.1,6.02 8.42,1.4 19.38,0.96 24.88,8.7 2.9,21.64 -1.38,43.48 -6.36,64.52 -3.06,12.38 -3.88,25.22 -6.8,37.6 -1.04,4.54 -6.18,3.38 -9.48,2.66 -6.2,-5.16 -11.26,-11.6 -17.9,-16.24 -11.52,-8.78 -25.26,-14.16 -39.42,-16.8 -1.36,-13.24 5.62,-25.1 8.78,-37.56 3.66,-14.34 8.82,-28.22 13.52,-42.24 -2.1,-1.98 -4.94,-3.96 -3.16,-7.22 1.28,-6.06 3.88,-11.7 6.28,-17.36 -1.4,0 -4.2,-0.02 -5.6,-0.02 1.8,-3.36 4.42,-6.62 4.34,-10.64 0.38,-12.72 2.74,-25.46 1.1,-38.18 -1.02,-8.22 -2.06,-16.48 -3.36,-24.66 -4.52,-8.34 -13.5,-12.78 -21.62,-16.92 -1.42,-4.06 -2.8,-9.04 1,-12.3 6.36,-5 15.54,-5.78 23.1,-3.12 3.42,-9.6 1.02,-19.42 -0.26,-29.12 -1.04,-5.22 2.44,-9.7 6.42,-12.56 z"
       id="path14"
       inkscape:connector-curvature="0"
       style="fill:#f5e5c1" />
    <path
       d="m 774.24,146.18 c 0.32,-3.86 3.5,-8 7.74,-7.4 4.1,-0.3 6.9,3.74 7.3,7.4 1.46,10.56 -0.9,21.16 -0.52,31.74 0.92,-6.02 -0.34,-12.78 3.16,-18.12 5.08,-3.62 13.06,-0.48 12.84,6.14 0.04,9.3 -0.46,19.52 -6.02,27.36 -3.58,-1.64 -7.18,-3.2 -10.8,-4.7 -0.22,-2.78 -0.42,-5.54 -0.6,-8.32 -0.62,0.7 -1.86,2.08 -2.48,2.78 -4.74,-1.9 -9.78,-2.84 -14.88,-2.4 -1.1,4.14 -3.14,8.36 -7.7,9.28 10.98,-11.8 9.8,-28.86 11.96,-43.76 z"
       id="path16"
       inkscape:connector-curvature="0"
       style="fill:#f5e5c1" />
    <path
       d="m 397.92,377.64 c 10.56,-7.4 20.7,-16.82 33.9,-18.96 10.94,-2.02 23.68,-0.42 31.9,7.72 3.92,3.58 7.14,7.84 10.28,12.12 -13.92,1.56 -28.38,2.36 -41.42,7.88 -2.08,4.24 5.42,1.52 7.48,1.76 22.86,-4.58 46.42,-6.34 69.6,-3.04 6.72,1.7 12.86,-4.48 19.44,-2.04 3.82,3.4 1.82,9.08 2.1,13.54 -10.6,3.1 -18.42,10.98 -26.88,17.56 -5.86,4.46 -12.8,-1.6 -15.54,-6.82 -2.06,-5.38 -9.06,-3.7 -13.46,-5.26 -8.94,-2.18 -18.28,-1.24 -26.8,2.12 -7.04,1.64 -13.86,4.24 -19.84,8.36 -10.78,6.92 -21.98,13.52 -31.2,22.5 -3.4,2.78 -2.82,7.42 -1.86,11.18 0.7,3.16 1.64,6.28 2.62,9.38 1.54,6.04 4.28,12.26 2.84,18.6 -5.3,2.76 -11.62,0.78 -17.16,-0.26 -9.46,-2.44 -18.96,-6.86 -24.7,-15.1 -2.12,-2.94 -2.36,-7.26 0.18,-10.02 13.4,-13.82 26.88,-27.76 42.52,-39.1 5.34,-4.3 10.4,-8.96 15.6,-13.44 -11.12,6.3 -20.94,14.52 -31.66,21.46 0.08,-9.64 -0.16,-19.36 1.54,-28.86 0.9,-5.6 6.6,-8.04 10.52,-11.28 z"
       id="path18"
       inkscape:connector-curvature="0"
       style="fill:#f4722b" />
    <path
       d="m 670.94,411.72 c -0.96,-10.7 7.6,-24.08 19.68,-20.54 14.16,2.64 27.9,8.02 39.42,16.8 6.64,4.64 11.7,11.08 17.9,16.24 2.96,2.66 7.44,3.08 10.14,6.08 3.92,5.92 1.04,13.1 -0.34,19.36 -2.22,7.78 -3.4,15.86 -6.34,23.42 -1.5,3.88 -5.9,5.04 -9.04,7.2 -5.36,2.42 -4.08,9.96 -8.32,13.54 -8.5,6.8 -19.86,7.88 -29.28,12.84 -30.3,23.38 -58.14,50.48 -79.34,82.52 -4.26,6.98 -10.12,12.78 -14.46,19.68 -6.48,10.86 -12.22,22.14 -17.48,33.66 -5.8,-4.5 -4.42,-12.04 -4.14,-18.44 -0.3,-25.98 -8.8,-50.82 -12.98,-76.28 -1.56,-11.9 -10.66,-20.64 -14.46,-31.64 -2.02,-5.16 1.84,-9.84 6.06,-12.28 9.66,-6.22 11.82,-18.6 19.86,-26.28 13.36,-12.9 29.18,-22.78 43.98,-33.86 9.54,-9.1 19.74,-17.56 28.5,-27.44 2.52,-3.38 6.84,-3.72 10.64,-4.58 z"
       id="path20"
       inkscape:connector-curvature="0"
       style="fill:#f4722b" />
    <path
       d="m 448.52,404.22 c 8.52,-3.36 17.86,-4.3 26.8,-2.12 4.74,1.64 9.96,3.18 12.92,7.6 -6.84,4.4 -14.18,-1.2 -20.04,-4.66 -9.9,-0.42 -19.42,2.32 -28.26,6.54 0.82,-4.3 5.1,-5.74 8.58,-7.36 z"
       id="path22"
       inkscape:connector-curvature="0"
       style="fill:#f5e5c1" />
    <path
       d="m 454.86,409.32 c 6.92,-2.3 19.64,-1.54 18.84,8.48 2.48,14.64 -22.62,18.82 -26.88,5.68 -2.06,-6.26 1.48,-12.92 8.04,-14.16 z"
       id="path24"
       inkscape:connector-curvature="0"
       style="fill:#f5e5c1" />
    <path
       d="m 423.06,431.3 c -2.42,-7.12 5.22,-12.26 10.98,-14.18 8.2,-2.22 7.14,9.24 12.18,12.9 5.34,6.94 14.82,6.38 22.48,4.58 6.84,-3.2 8.28,-11.44 13.26,-16.52 5.1,5.04 9.28,10.88 13.78,16.44 -8.72,4.02 -14.56,11.76 -19.7,19.56 6.2,1.14 12.74,-0.64 18.74,1.2 0.54,2.08 2.14,5.58 -1.38,5.78 -6.88,1.4 -13.8,2.86 -19.88,6.52 -2.56,-0.56 -5.12,-1.1 -7.66,-1.6 -0.2,3.22 -0.66,6.54 0.48,9.68 10.02,-5.36 20.7,-9.62 32.18,-10.6 1.72,8.92 2.36,18.02 4.02,26.96 -1.9,9.18 -8.48,17.18 -17.82,19.42 7.3,8.18 4.86,19.48 3.48,29.3 -1.88,7.68 -4.48,15.16 -6.6,22.78 -2.92,6 -3.86,14.34 -9.56,18.08 -12.1,-3.66 -17.92,-16.46 -20.26,-27.92 -5.02,-14.74 -13.7,-27.94 -19.84,-42.24 -2.86,-0.26 -5.7,-0.5 -8.54,-0.76 -2.38,-10.96 -10.32,-19.68 -12.14,-30.84 -1.02,-9.72 -10.64,-15 -13.02,-24.2 -0.98,-3.1 -1.92,-6.22 -2.62,-9.38 -0.64,-4.02 0.68,-8.5 4.1,-10.88 4.26,-1.02 8.66,-0.8 13,-0.56 1.18,10.24 1.4,20.56 2.76,30.78 9.4,-5.28 18.62,-10.88 28.26,-15.74 -7.96,-4.66 -18.06,-8.72 -20.68,-18.56 z"
       id="path26"
       inkscape:connector-curvature="0"
       style="fill:#f5e5c1" />
    <path
       d="m 490.18,417.72 c 6.04,-0.18 7.66,5.84 8.86,10.6 -1.88,3.12 -3.96,3.32 -6.2,0.62 -3.34,-2.62 -2.08,-7.56 -2.66,-11.22 z"
       id="path28"
       inkscape:connector-curvature="0"
       style="fill:#f5e5c1" />
    <path
       d="m 423.4,510.68 c 2.84,0.26 5.68,0.5 8.54,0.76 6.14,14.3 14.82,27.5 19.84,42.24 1.3,5.64 2.34,11.34 3.4,17.04 -8.28,-5.62 -16.56,-11.3 -24.26,-17.68 -4.3,-3.08 -4.68,-8.68 -6.2,-13.3 -2.26,-9.6 -6.28,-19.32 -4.04,-29.3 l 2.72,0.24 z"
       id="path30"
       inkscape:connector-curvature="0"
       style="fill:#f4722b" />
    <path
       d="m 493.36,516.96 c 1.52,-3.8 7.84,-3.54 9.82,-0.18 6.1,7.2 2.08,16.88 3,25.34 0.8,9.94 1.7,19.88 1.54,29.88 -0.38,16.48 6.08,32.08 6.3,48.5 -13.86,-11.86 -28.9,-22.96 -39.56,-37.98 3.6,-5.82 5.7,-12.36 7.14,-19 2.12,-7.62 4.72,-15.1 6.6,-22.78 2.46,-7.78 2.16,-16.18 5.16,-23.78 z"
       id="path32"
       inkscape:connector-curvature="0"
       style="fill:#f4722b" />
    <path
       d="m 512.88,558.06 c -2.22,-14.6 -3.18,-29.62 -0.74,-44.28 6.72,24.8 4.16,50.92 9.12,76 1.74,12.76 3.54,25.54 4.18,38.42 -1.08,-0.32 -3.2,-0.94 -4.28,-1.26 -4.56,-12.48 -4.22,-26.06 -6.18,-39.06 -1.56,-9.88 -1.02,-19.9 -2.1,-29.82 z"
       id="path34"
       inkscape:connector-curvature="0"
       style="fill:#f5e5c1" />
    <path
       d="m 410.2,522.14 c -0.94,-3.54 1.4,-6.08 3.88,-8.18 3.64,7.4 4.96,15.64 5.24,23.82 -7.98,-0.22 -8.38,-9.6 -9.12,-15.64 z"
       id="path36"
       inkscape:connector-curvature="0"
       style="fill:#f5e5c1" />
    <path
       d="m 552,556.32 c 7.42,-4.18 12.12,-12.8 20.8,-14.54 7.24,24.28 10.42,49.46 14.38,74.42 1.06,13.78 3.24,27.58 2.44,41.46 -0.48,3.06 0.18,7.28 -3.66,8.52 -1.96,-11.36 -2.72,-22.9 -3.44,-34.4 -1.7,-27.82 -10.04,-54.7 -13.1,-82.32 -12.6,10.24 -25.36,20.76 -40.4,27.2 -2.8,1.66 -5.96,0.42 -8.9,0 10.58,-6.88 22.2,-12.08 31.88,-20.34 z"
       id="path38"
       inkscape:connector-curvature="0"
       style="fill:#f5e5c1" />
    <path
       d="m 307.66,563.9 c 3.68,-5.82 5.42,-15.74 14.42,-14.52 0.26,13.54 2.7,27.08 0.48,40.6 -3.44,24.38 -8.08,48.62 -11.1,73.04 -8.98,22.7 -17.34,45.7 -25.26,68.82 -2.48,7.88 -11.16,11 -15.58,17.6 5.7,7.64 2.28,17.24 -1.74,24.76 -3.2,5.6 -5.24,13.98 -13,14.42 -7.22,-2.12 -2.16,-11.36 -6.86,-15.58 -10.22,-11.3 -26.04,-16.54 -41.04,-14.8 -5.76,0.8 -11.62,1.14 -17.14,-0.96 -4.26,3.52 -10.92,11.32 -16.08,4.92 2.26,-9.72 7.16,-18.54 10.04,-28.04 1.7,-4.8 2.44,-9.96 4.74,-14.52 2.74,-2.3 6.54,-2.02 9.86,-2.74 -1.66,-3.76 -4.1,-7.94 -2.26,-12.1 14.52,-14.7 30.1,-28.4 44.08,-43.66 11.92,-12.56 19.7,-28.22 29.4,-42.42 11.9,-18.58 25.96,-35.7 37.04,-54.82 z"
       id="path40"
       inkscape:connector-curvature="0"
       style="fill:#f4722b" />
    <path
       d="m 427.24,573.02 c 5.86,3.18 11.48,6.78 16.74,10.88 13.12,10.22 27.48,18.98 39.14,30.98 8.52,8.8 16.54,18.08 25.18,26.76 2.06,2.42 5.04,4.68 5.14,8.16 1,16.02 -0.66,32.06 -0.06,48.1 0.64,24.7 -0.78,49.42 0.02,74.12 0.36,13.68 -0.18,27.34 -0.16,41.02 -27.02,5.52 -53.74,12.36 -80.66,18.4 5.86,-48.9 4.66,-98.2 4.06,-147.34 -0.4,-9.08 -1.52,-18.12 -1.52,-27.22 -0.12,-13 0.02,-26.06 -1.94,-38.94 -1.52,-15.04 -6.94,-29.64 -5.94,-44.92 z"
       id="path42"
       inkscape:connector-curvature="0"
       style="fill:#f4722b" />
    <path
       d="m 373.58,593.4 c 1.24,-2.94 -0.12,-8.86 4.4,-8.82 4.56,-0.56 3.14,6.02 4.04,8.82 -2.82,0 -5.64,0 -8.44,0 z"
       id="path44"
       inkscape:connector-curvature="0"
       style="fill:#f4722b" />
    <path
       d="m 388.32,593 c 0.08,-4.48 1,-8.82 6.34,-8.54 0.8,3.5 1.6,7 2.4,10.52 -2.92,-0.66 -5.84,-1.32 -8.74,-1.98 z"
       id="path46"
       inkscape:connector-curvature="0"
       style="fill:#f4722b" />
    <path
       d="m 344.92,586.58 c 2.22,0.96 4.44,1.94 6.66,2.94 l -0.48,1.26 c -0.84,2.2 -1.66,4.4 -2.46,6.62 -2.5,-0.1 -4.98,-0.22 -7.46,-0.32 1.2,-3.52 2.46,-7.02 3.74,-10.5 z"
       id="path48"
       inkscape:connector-curvature="0"
       style="fill:#f4722b" />
    <path
       d="m 357.9,597.42 c -0.2,-5.12 1.2,-10.64 7.16,-10.98 0.24,2.96 0.46,5.94 0.66,8.92 -2.62,0.68 -5.22,1.38 -7.82,2.06 z"
       id="path50"
       inkscape:connector-curvature="0"
       style="fill:#f4722b" />
    <path
       d="m 351.1,590.78 0.1,-0.26 c -1.44,9.12 -0.76,19.22 -4.92,27.62 -1.84,0.36 -5.5,1.06 -7.34,1.42 0.9,-7.48 1.8,-14.96 2.14,-22.48 l 0.1,0 c 2.48,0.1 4.96,0.22 7.46,0.32 0.8,-2.22 1.62,-4.42 2.46,-6.62 z"
       id="path52"
       inkscape:connector-curvature="0"
       style="fill:#f5e5c1" />
    <path
       d="m 372.7,615.44 c -0.42,-7.36 0,-14.72 0.88,-22.04 2.8,0 5.62,0 8.44,0 -0.62,6.2 0.08,12.7 -1.9,18.72 -2.02,1.9 -4.94,2.26 -7.42,3.32 z"
       id="path54"
       inkscape:connector-curvature="0"
       style="fill:#f5e5c1" />
    <path
       d="m 388.32,593 c 2.9,0.66 5.82,1.32 8.74,1.98 0.44,5.52 0.94,11.22 -0.84,16.58 -3.08,0.84 -6.18,1.42 -9.34,1.76 1.02,-6.74 1.88,-13.52 1.44,-20.32 z"
       id="path56"
       inkscape:connector-curvature="0"
       style="fill:#f5e5c1" />
    <path
       d="m 357.9,597.42 c 2.6,-0.68 5.2,-1.38 7.82,-2.06 -0.68,6.96 0.44,14.84 -3.6,20.96 -1.82,0.2 -5.5,0.62 -7.34,0.82 0.94,-6.54 2.04,-13.06 2.8,-19.62 l 0.32,-0.1 z"
       id="path58"
       inkscape:connector-curvature="0"
       style="fill:#f5e5c1" />
  </g>
</svg>
