<?xml version="1.0" encoding="UTF-8" standalone="no"?>
<svg
   xmlns:dc="http://purl.org/dc/elements/1.1/"
   xmlns:cc="http://creativecommons.org/ns#"
   xmlns:rdf="http://www.w3.org/1999/02/22-rdf-syntax-ns#"
   xmlns:svg="http://www.w3.org/2000/svg"
   xmlns="http://www.w3.org/2000/svg"
   xmlns:sodipodi="http://sodipodi.sourceforge.net/DTD/sodipodi-0.dtd"
   xmlns:inkscape="http://www.inkscape.org/namespaces/inkscape"
   width="1280"
   height="1280"
   viewBox="0 0 1024 1024"
   version="1.1"
   id="svg2"
   inkscape:version="0.48.1 "
   sodipodi:docname="headshot_post_invuln.svg">
  <metadata
     id="metadata72">
    <rdf:RDF>
      <cc:Work
         rdf:about="">
        <dc:format>image/svg+xml</dc:format>
        <dc:type
           rdf:resource="http://purl.org/dc/dcmitype/StillImage" />
      </cc:Work>
    </rdf:RDF>
  </metadata>
  <defs
     id="defs70" />
  <sodipodi:namedview
     pagecolor="#ffffff"
     bordercolor="#666666"
     borderopacity="1"
     objecttolerance="10"
     gridtolerance="10"
     guidetolerance="10"
     inkscape:pageopacity="0"
     inkscape:pageshadow="2"
     inkscape:window-width="1920"
     inkscape:window-height="1018"
     id="namedview68"
     showgrid="false"
     inkscape:snap-page="true"
     fit-margin-top="0"
     fit-margin-left="0"
     fit-margin-right="0"
     fit-margin-bottom="0"
     inkscape:object-paths="true"
     inkscape:zoom="0.6609375"
     inkscape:cx="466.00473"
     inkscape:cy="640"
     inkscape:window-x="-8"
     inkscape:window-y="-8"
     inkscape:window-maximized="1"
     inkscape:current-layer="layer1" />
  <g
     inkscape:groupmode="layer"
     id="layer1"
     inkscape:label="background">
    <rect
       style="fill:#3e3e3e;fill-opacity:1;fill-rule:nonzero;stroke:none"
       id="rect3049"
       width="1024"
       height="1024"
       x="0"
       y="0" />
  </g>
  <g
     inkscape:groupmode="layer"
     id="layer2"
     inkscape:label="foreground">
    <path
       d="M 0,0 0.12,0 C 0.1,0.04 0.04,0.1 0,0.12 L 0,0 z"
       id="path4"
       inkscape:connector-curvature="0"
       style="fill:#794f38" />
    <path
       d="m 710.02,86 c 9.98,2.02 19.98,4 29.98,6.02 -2.84,45.28 -5.12,90.6 -8.32,135.84 -2.9,-2.08 -2.3,-6.06 -3.04,-9.14 C 722.54,174.48 716.18,130.26 710.02,86 z"
       id="path8"
       inkscape:connector-curvature="0"
       style="fill:#f5e5c1" />
    <path
       d="m 812.02,127.96 c 13.32,0.82 26.68,1.24 40,2.16 -12.24,32.46 -24.26,65 -36.42,97.5 -2.68,6.9 -4.76,14.02 -8.26,20.56 -4.92,-4.28 -2.66,-10.72 -2.52,-16.26 2.44,-34.66 4.76,-69.3 7.2,-103.96 z"
       id="path10"
       inkscape:connector-curvature="0"
       style="fill:#f5e5c1" />
    <path
       d="m 842,280.22 c 25.8,-27.58 52,-54.78 78.02,-82.18 4,7.32 8,14.64 11.96,22 -30.06,19.94 -59.56,40.78 -89.98,60.18 z"
       id="path12"
       inkscape:connector-curvature="0"
       style="fill:#f5e5c1" />
    <path
       sodipodi:type="arc"
       style="fill:#794f38;fill-opacity:1;fill-rule:nonzero;stroke:none"
       id="path3059"
       sodipodi:cx="222.16692"
       sodipodi:cy="408.78049"
       sodipodi:rx="99.446045"
       sodipodi:ry="99.446045"
       d="m 321.61296,408.78049 a 99.446045,99.446045 0 1 1 -198.89209,0 99.446045,99.446045 0 1 1 198.89209,0 z"
       transform="matrix(0.8,0,0,0.8,275.88152,0)" />
    <path
       d="m 311.74,406.72 53.72,-18.28 85.88,61.86 c 0,0 -8.14,2.96 -12.2,4.48 -3.74,-6.06 -6.3,-13.12 -11.6,-18.02 -5.92,-4.3 -12.06,-8.4 -18.62,-11.6 -9.56,-1.82 -19.86,-1.36 -28.96,2.32 -23.08,8.18 -46.24,16.06 -69.46,23.84 -6.24,-6.48 -21.04,-16.6 -21.04,-16.6 z"
       id="path38"
       inkscape:connector-curvature="0"
       style="fill:#794f38"
       sodipodi:nodetypes="cccccccccc" />
    <path
       transform="matrix(0.8,0,0,0.8,137.00575,0)"
       d="m 321.61296,408.78049 a 99.446045,99.446045 0 1 1 -198.89209,0 99.446045,99.446045 0 1 1 198.89209,0 z"
       sodipodi:ry="99.446045"
       sodipodi:rx="99.446045"
       sodipodi:cy="408.78049"
       sodipodi:cx="222.16692"
       id="path3057"
       style="fill:#955735;fill-opacity:1;fill-rule:nonzero;stroke:none"
       sodipodi:type="arc" />
    <path
       d="m 662.2,310.48 c 6.68,-30.68 32.4,-56.62 63.64,-61.58 14.94,-1 30.74,-1.9 44.72,4.52 23.44,9.3 41.1,30.44 47.26,54.78 -5.28,-5.98 -10.8,-12.68 -18.78,-14.96 -6.66,-1.4 -13.6,-1.36 -20.28,-0.28 -14.32,3.64 -24.24,18.4 -23.7,32.92 0.8,17.32 16.96,32.86 34.58,31.4 13.34,0.06 24.42,-9.82 30.38,-21.06 -2.46,10.1 -4.84,20.52 -10.16,29.58 -11.12,20.36 -31.72,35.2 -54.52,39.38 -22.52,4.74 -46.86,-1.6 -64.74,-15.9 -17.24,-13.48 -27.82,-34.44 -29.92,-56.08 -42.28,-0.1 -84.56,-0.02 -126.84,-0.06 -46.3,0 -92.58,0 -138.88,0.02 -14.06,0 -28.12,-0.06 -42.2,0.06 -0.26,-7.88 -0.1,-15.76 0.24,-23.64 13.22,0.12 26.44,0.06 39.68,0.06 46.74,0.28 93.52,-0.72 140.24,0.96 43.06,-1.44 86.22,-1.28 129.28,-0.12 z"
       id="path20"
       inkscape:connector-curvature="0"
       style="fill:#f5e5c1" />
    <path
       d="m 201.86,373.38 30.96,19.72 c 18.68,14.12 38.12,27.26 56.64,41.62 7.32,5.12 14.8,10.12 21.04,16.6 -26.42,9.54 -53.18,18.14 -79.62,27.64 -4.04,1.26 -8.14,2.94 -12.46,2.82 -5.7,-2.7 -10.46,-6.98 -15.56,-10.62 -16.72,-12.16 -33.4,-24.34 -50.16,-36.44 7.26,-8.54 13.98,-17.52 20.5,-26.62 z"
       id="path36"
       inkscape:connector-curvature="0"
       style="fill:#955735"
       sodipodi:nodetypes="cccccccccc" />
    <path
       sodipodi:type="arc"
       style="fill:#f4722b;fill-opacity:1;fill-rule:nonzero;stroke:none"
       id="path3055"
       sodipodi:cx="222.16692"
       sodipodi:cy="408.78049"
       sodipodi:rx="99.446045"
       sodipodi:ry="99.446045"
       d="m 321.61296,408.78049 a 99.446045,99.446045 0 1 1 -198.89209,0 99.446045,99.446045 0 1 1 198.89209,0 z"
       transform="scale(0.8,0.8)" />
    <path
       d="m 256.96,310.6 c 21.96,-1.66 43.98,-0.62 65.98,-1.04 0.46,7.88 0.68,15.76 0.32,23.66 -21.8,-0.16 -43.58,-0.04 -65.38,-0.06 -10.56,-0.54 -21.4,1.18 -31.76,-1.16 -6.68,-2.02 -7.76,-9.02 -7.44,-15 2.4,-1.94 4.72,-3.96 7.36,-5.52 10.2,-1.84 20.62,-0.52 30.92,-0.88 z"
       id="path22"
       inkscape:connector-curvature="0"
       style="fill:#f5e5c1" />
    <path
       d="m 781.24,310.72 c 3.6,-0.46 7.14,-1.38 10.82,-1.28 19.96,0.22 39.94,-0.46 59.9,0.74 57.34,-0.02 114.7,-0.02 172.04,0 l 0,24 c -65.36,0.02 -130.72,-0.02 -196.08,0.02 -15.7,-0.92 -31.4,-0.68 -47.1,-0.88 -2.36,-7.46 -1.32,-15.16 0.42,-22.6 z"
       id="path24"
       inkscape:connector-curvature="0"
       style="fill:#f5e5c1" />
    <path
       d="m 845.34,347.82 c 31.56,10.06 63.12,20.1 94.68,30.22 -10.7,11.96 -21.36,23.96 -32,36 -16.4,-16.98 -32.8,-33.94 -49.22,-50.9 -4.86,-4.78 -9.38,-9.88 -13.46,-15.32 z"
       id="path28"
       inkscape:connector-curvature="0"
       style="fill:#f5e5c1" />
    <path
       d="m 411.72,653.74 c 72.08,-94.18 143.5,-188.9 215.8,-282.92 51.36,37.48 102.84,74.78 154.22,112.22 55.8,-19.56 111.78,-38.58 167.7,-57.78 14.96,-4.56 28.6,4.78 39.62,13.76 6.94,5.52 10.52,13.88 14.22,21.68 2.72,10.24 0.24,20.72 -1.98,30.78 -1.62,8.08 -7.52,14.5 -15.64,16.36 -69.86,26.84 -139.36,54.7 -209.3,81.32 -23.28,-16.36 -46.34,-33.18 -68.96,-50.48 -4.46,5.26 -9.1,10.36 -13.54,15.66 22.68,14.26 46.6,26.52 69.68,40.14 4.5,2.44 8.92,5.88 14.32,5.78 42.2,1.06 84.46,0.06 126.6,2.42 12.62,-0.22 25.22,0.14 37.82,0.24 10.82,6.24 17.4,17.2 22.16,28.4 4.72,12.24 3.3,26.54 -3.42,37.78 -4.22,6.54 -10.74,11.04 -16.5,16.12 -25.64,-0.1 -51.2,2.38 -76.86,2.16 -27.22,1.62 -54.56,0.58 -81.72,3.06 -11.36,0.14 -22.7,0.16 -34.02,0.24 -35.4,-25.76 -71.56,-50.46 -107.02,-76.12 -0.76,0.04 -2.26,0.14 -3.02,0.18 -18.82,24.36 -37.96,48.5 -57.04,72.68 -2.8,26.68 -3.34,53.56 -6.34,80.24 13.86,34.52 28.36,68.8 42.46,103.24 14.6,36.72 31.3,72.56 47.32,108.68 7.72,14.18 13,29.42 18.84,44.42 l -110.08,0 c -16.34,-33.82 -27.76,-69.72 -43.26,-103.9 -4.32,-11.28 -10.66,-21.64 -15.3,-32.74 -5.18,-18.12 -16.08,-33.92 -21.66,-51.9 1.46,24.16 3.36,48.28 2.7,72.52 1.44,38.68 3.68,77.34 5.34,116.02 l -107.08,0 c -2.86,-46.84 -7.04,-93.64 -7.1,-140.6 -3.4,-33.74 -2.74,-67.68 -3.98,-101.52 2.58,-38.36 5.8,-76.94 14.92,-114.42 1.4,-5.78 6.62,-9.26 10.1,-13.72 z"
       id="path32"
       inkscape:connector-curvature="0"
       style="fill:#f5e5c1" />
    <path
       d="m 0,456.04 c 21.3,-28.54 43.06,-56.76 64.66,-85.08 29.62,20.86 58.7,42.5 88.04,63.76 16.76,12.1 33.44,24.28 50.16,36.44 5.1,3.64 9.86,7.92 15.56,10.62 4.32,0.12 8.42,-1.56 12.46,-2.82 26.44,-9.5 53.2,-18.1 79.62,-27.64 23.22,-7.78 46.38,-15.66 69.46,-23.84 9.1,-3.68 19.4,-4.14 28.96,-2.32 6.56,3.2 12.7,7.3 18.62,11.6 5.3,4.9 7.86,11.96 11.6,18.02 5.34,9.4 6.34,20.36 6.78,30.96 -4.68,5.52 -8.38,11.8 -13.26,17.14 -4.22,3.62 -9.84,4.9 -14.86,6.98 -39.12,15 -77.98,30.66 -117.18,45.48 -5.54,2.26 -11.08,4.52 -16.66,6.62 -22.44,8.82 -44.88,17.58 -67.28,26.4 -3.12,1.82 -5.82,-1.3 -8.36,-2.72 -16.42,-12.28 -33.12,-24.22 -49.6,-36.4 -4.6,-3.32 -8.88,-7.32 -14.32,-9.2 -5.5,3.84 -9.02,9.6 -12.7,15.06 24.46,14.02 49.1,27.7 73.5,41.82 7.4,4.66 16.5,3.22 24.8,3.66 37.32,0.6 74.68,-0.06 111.94,2.08 7.82,0.12 15.66,-0.16 23.5,-0.24 4.42,0.26 8.86,0.3 13.28,-0.04 6.74,5.02 14.68,8.42 20.88,14.16 4.82,8.82 6.76,18.84 9.34,28.46 -2,3.18 -3.98,6.48 -6.86,8.96 -7.52,5.48 -8.36,15.5 -10.38,23.86 -4.24,2.92 -8.2,7.36 -13.68,7.44 -8.7,0.22 -17.38,0.28 -26.04,1 -18.9,1.54 -37.88,-0.86 -56.74,1.38 -15.16,0.34 -30.32,1.24 -45.48,1.28 -19.86,1.72 -39.86,2.16 -59.74,1.4 -7.84,-4.04 -14.46,-10.06 -21.82,-14.88 -29.32,-20.48 -58.18,-41.62 -87.76,-61.72 -18.6,23.04 -36.52,46.66 -55.1,69.72 -3.2,3.48 -4.02,8.2 -4.06,12.78 -0.28,12.58 -2.24,25.08 -2.32,37.68 -0.02,13.58 -4.78,27.58 0.46,40.78 6.28,16.58 11.28,33.62 17.72,50.14 14.78,35.3 27.34,71.54 44.04,106.04 15.32,31.48 29.64,63.7 48.76,93.14 L 0,1024 0,456.04 z"
       id="path34"
       inkscape:connector-curvature="0"
       style="fill:#f4722b" />
    <path
       d="m 805.92,401.66 c 2.72,0.18 5.36,1.06 7.24,3.16 12.88,11.78 25.88,23.44 38.8,35.18 -5.96,2.68 -11.94,5.34 -17.94,8 -9.4,-15.42 -18.92,-30.8 -28.1,-46.34 z"
       id="path40"
       inkscape:connector-curvature="0"
       style="fill:#f5e5c1" />
    <path
       d="m 519.9,426.52 c 8.18,-2.74 17.1,-2.9 25.56,-1.56 7.92,3.28 14.58,8.88 21.84,13.32 -24.62,31.66 -48.56,63.8 -73.2,95.44 -19.4,7.18 -38.54,15.02 -57.9,22.26 -5.12,2.02 -10.18,4.14 -15.34,6.04 -20.38,8.12 -40.96,15.66 -61.3,23.88 -3.9,1.02 -8.48,3.78 -12.24,1 -7.36,-4.46 -13.64,-10.42 -20.8,-15.2 -8.5,-5.66 -15.7,-13.68 -25.9,-16.36 39.2,-14.82 78.06,-30.48 117.18,-45.48 5.02,-2.08 10.64,-3.36 14.86,-6.98 4.88,-5.34 8.58,-11.62 13.26,-17.14 -0.44,-10.6 -1.44,-21.56 -6.78,-30.96 4.06,-1.52 8.12,-3.02 12.2,-4.48 22.8,-8.08 45.76,-15.7 68.56,-23.78 z"
       id="path42"
       inkscape:connector-curvature="0"
       style="fill:#955735" />
    <path
       d="m 1003.28,460.7 c 4.12,8.2 3.32,17.56 3.9,26.46 -1.96,1.42 -3.94,2.86 -5.88,4.32 2.22,-10.06 4.7,-20.54 1.98,-30.78 z"
       id="path44"
       inkscape:connector-curvature="0"
       style="fill:#794f38" />
    <path
       d="m 436.2,555.98 c 19.36,-7.24 38.5,-15.08 57.9,-22.26 -9.38,12.82 -18.76,25.64 -28.6,38.1 -9.9,-5.02 -17.24,-16.44 -29.3,-15.84 z"
       id="path46"
       inkscape:connector-curvature="0"
       style="fill:#794f38" />
    <path
       d="m 131.7,555.1 c 3.68,-5.46 7.2,-11.22 12.7,-15.06 5.44,1.88 9.72,5.88 14.32,9.2 16.48,12.18 33.18,24.12 49.6,36.4 2.54,1.42 5.24,4.54 8.36,2.72 22.4,-8.82 44.84,-17.58 67.28,-26.4 1.94,2.82 4.5,5.12 7.62,6.58 16.08,8.34 31.4,18.02 47.34,26.6 8.06,4.86 17.88,3.98 26.52,7.28 -7.84,0.08 -15.68,0.36 -23.5,0.24 -37.26,-2.14 -74.62,-1.48 -111.94,-2.08 -8.3,-0.44 -17.4,1 -24.8,-3.66 -24.4,-14.12 -49.04,-27.8 -73.5,-41.82 z"
       id="path48"
       inkscape:connector-curvature="0"
       style="fill:#955735" />
    <path
       d="m 300.62,555.34 c 10.2,2.68 17.4,10.7 25.9,16.36 7.16,4.78 13.44,10.74 20.8,15.2 3.76,2.78 8.34,0.02 12.24,-1 20.34,-8.22 40.92,-15.76 61.3,-23.88 11.44,7.9 24.26,13.54 35.72,21.44 -4.7,6.9 -9.66,13.6 -14.92,20.1 -6.44,-1.5 -13.02,-2.5 -19.64,-2.26 -14.44,0.5 -28.94,-0.9 -43.3,1.08 -4.42,0.34 -8.86,0.3 -13.28,0.04 -8.64,-3.3 -18.46,-2.42 -26.52,-7.28 -15.94,-8.58 -31.26,-18.26 -47.34,-26.6 -3.12,-1.46 -5.68,-3.76 -7.62,-6.58 5.58,-2.1 11.12,-4.36 16.66,-6.62 z"
       id="path50"
       inkscape:connector-curvature="0"
       style="fill:#794f38" />
    <path
       d="m 378.72,602.38 c 14.36,-1.98 28.86,-0.58 43.3,-1.08 6.62,-0.24 13.2,0.76 19.64,2.26 -7.92,9.44 -14.42,19.94 -22.52,29.22 -3.36,4.1 -7.32,7.72 -10.2,12.22 -2.58,-9.62 -4.52,-19.64 -9.34,-28.46 -6.2,-5.74 -14.14,-9.14 -20.88,-14.16 z"
       id="path52"
       inkscape:connector-curvature="0"
       style="fill:#955735" />
    <path
       d="m 80.44,613.72 c 29.58,20.1 58.44,41.24 87.76,61.72 -4,5.66 -9.22,11.18 -9.66,18.5 -2.04,16.12 -2.06,32.42 -3,48.64 0.14,8.38 -0.84,16.88 0.56,25.2 2.38,6.06 6.26,11.38 8.86,17.34 9,20.56 20.06,40.14 29.28,60.6 5.92,13.42 13.9,25.78 19.78,39.2 3.96,9.46 11.5,17.24 13.66,27.46 0.92,3.6 1.6,7.34 3.06,10.8 10.16,19.84 22.34,38.66 30.68,59.42 6.84,13.94 12.64,28.52 21.44,41.4 l -101.32,0 C 166.72,996.6 156.58,967.02 142.86,939.12 121.3,901.4 103.88,861.52 84.72,822.56 c -1.88,15.62 -0.72,31.36 -1.94,47 -1.96,20.36 -1.72,40.86 -1.6,61.3 C 64.48,896.36 51.92,860.12 37.14,824.82 30.7,808.3 25.7,791.26 19.42,774.68 c -5.24,-13.2 -0.48,-27.2 -0.46,-40.78 0.08,-12.6 2.04,-25.1 2.32,-37.68 0.04,-4.58 0.86,-9.3 4.06,-12.78 18.58,-23.06 36.5,-46.68 55.1,-69.72 z"
       id="path54"
       inkscape:connector-curvature="0"
       style="fill:#955735" />
    <path
       d="m 644.52,622.16 c 12.14,10.06 25.84,18.14 38.14,27.94 0.26,5.56 -0.18,11.28 -1.96,16.56 -3.78,4.28 -8.76,7.24 -13.14,10.84 -4.72,3.5 -9.12,8.6 -15.58,8.18 -19,0.9 -38.04,1.14 -57.06,1.28 14.62,-23.04 34.24,-42.32 49.6,-64.8 z"
       id="path56"
       inkscape:connector-curvature="0"
       style="fill:#794f38" />
    <path
       d="m 158.54,693.94 c 0.44,-7.32 5.66,-12.84 9.66,-18.5 7.36,4.82 13.98,10.84 21.82,14.88 19.88,0.76 39.88,0.32 59.74,-1.4 15.16,-0.04 30.32,-0.94 45.48,-1.28 l 2.46,0.14 c -0.58,13.46 -2.82,26.78 -2.9,40.26 -0.12,10.52 -0.24,21.08 -2.2,31.46 -0.5,3.9 -1.96,8.1 -0.22,11.92 5.44,12.78 13.18,24.4 19.32,36.86 17.12,38.64 32.16,78.18 49.04,116.92 2.28,6 2.16,12.82 5.68,18.38 7.82,12.98 16.96,25.5 21.9,39.96 2.64,13.34 0.72,27.24 4.34,40.46 l -84.58,0 c -6.06,-12.06 -11.04,-24.66 -17.4,-36.58 -12.9,-24.62 -24.8,-50.16 -30.48,-77.52 -2.22,-10.08 -7.24,-19.18 -11.82,-28.34 -7.46,-14.42 -13.92,-29.34 -21.26,-43.84 -2.3,2.9 -5.12,5.64 -5.82,9.44 -2.78,12.5 -4.8,25.18 -7.28,37.76 -5.88,-13.42 -13.86,-25.78 -19.78,-39.2 -9.22,-20.46 -20.28,-40.04 -29.28,-60.6 -2.6,-5.96 -6.48,-11.28 -8.86,-17.34 -1.4,-8.32 -0.42,-16.82 -0.56,-25.2 0.94,-16.22 0.96,-32.52 3,-48.64 z"
       id="path58"
       inkscape:connector-curvature="0"
       style="fill:#794f38" />
    <path
       d="m 378.02,685.26 c 5.48,-0.08 9.44,-4.52 13.68,-7.44 -0.8,3.7 -1.62,7.38 -2.42,11.08 -23.68,1.02 -47.68,3.86 -71.2,-0.42 -6.78,-0.4 -13.6,-0.02 -20.38,-0.7 l -2.46,-0.14 c 18.86,-2.24 37.84,0.16 56.74,-1.38 8.66,-0.72 17.34,-0.78 26.04,-1 z"
       id="path60"
       inkscape:connector-curvature="0"
       style="fill:#955735" />
  </g>
</svg>
