<?xml version="1.0" encoding="UTF-8" standalone="no"?>
<svg
   xmlns:dc="http://purl.org/dc/elements/1.1/"
   xmlns:cc="http://creativecommons.org/ns#"
   xmlns:rdf="http://www.w3.org/1999/02/22-rdf-syntax-ns#"
   xmlns:svg="http://www.w3.org/2000/svg"
   xmlns="http://www.w3.org/2000/svg"
   xmlns:sodipodi="http://sodipodi.sourceforge.net/DTD/sodipodi-0.dtd"
   xmlns:inkscape="http://www.inkscape.org/namespaces/inkscape"
   width="1280"
   height="1280"
   viewBox="0 0 1024 1024"
   version="1.1"
   id="svg2"
   inkscape:version="0.48.1 "
   sodipodi:docname="jarate_group.svg">
  <metadata
     id="metadata58">
    <rdf:RDF>
      <cc:Work
         rdf:about="">
        <dc:format>image/svg+xml</dc:format>
        <dc:type
           rdf:resource="http://purl.org/dc/dcmitype/StillImage" />
      </cc:Work>
    </rdf:RDF>
  </metadata>
  <defs
     id="defs56" />
  <sodipodi:namedview
     pagecolor="#ffffff"
     bordercolor="#666666"
     borderopacity="1"
     objecttolerance="10"
     gridtolerance="10"
     guidetolerance="10"
     inkscape:pageopacity="0"
     inkscape:pageshadow="2"
     inkscape:window-width="1920"
     inkscape:window-height="1018"
     id="namedview54"
     showgrid="false"
     inkscape:snap-page="true"
     fit-margin-top="0"
     fit-margin-left="0"
     fit-margin-right="0"
     fit-margin-bottom="0"
     inkscape:zoom="0.6609375"
     inkscape:cx="640"
     inkscape:cy="640"
     inkscape:window-x="-8"
     inkscape:window-y="-8"
     inkscape:window-maximized="1"
     inkscape:current-layer="svg2" />
  <rect
     style="fill:#3e3e3e;fill-opacity:1;fill-rule:nonzero;stroke:none"
     id="rect3046"
     width="1024"
     height="1024"
     x="0"
     y="0" />
  <path
     d="m 415.65,20.7 c -26.1,6.98 -50.37,19.52 -75.85,28.4 -12.82,4.14 -24.93,10.14 -37.35,15.3 -35.28,13 -69.92,27.59 -104.9,41.35 -2.9,6.24 -6.61,12.18 -8.85,18.7 0.68,4.48 2.92,8.54 4.6,12.7 6.98,15.58 13.16,31.48 20.1,47.1 14.1,29.76 25.7,60.66 39.2,90.7 14.98,32.52 27.8,65.96 42.5,98.6 7.14,14.26 12.47,29.37 18.95,43.95 2.98,6.42 4.93,13.5 9.55,19 4.24,3.14 9.48,4.32 14.4,6 12.36,4.16 24.82,8.21 37.2,12.35 0.68,3.22 1.35,6.43 2.05,9.65 3.34,2.26 6.66,4.56 10.1,6.7 6.4,0.78 12.78,-0.43 19.1,-1.35 2.36,-0.32 4.72,-0.57 7.1,-0.75 2.68,-0.26 5.4,-0.56 8.1,-0.9 l 1.55,-0.3 c 3.8,-1.12 7.56,-2.3 11.4,-3.3 0.28,-0.08 0.87,-0.22 1.15,-0.3 5.1,-1.3 10.17,-2.59 15.25,-4.05 l 2.85,-0.8 c 11.44,-3.72 22.83,-7.64 33.75,-12.7 0.28,-0.14 0.87,-0.41 1.15,-0.55 8.52,-5.82 16.96,-11.75 25.7,-17.25 6,-3.74 12.07,-7.49 17.15,-12.45 4.18,-4.16 8.29,-8.64 10.55,-14.2 l 1.25,-6.25 c -1.52,-3.88 -4.87,-7.65 -3.75,-12.05 2.76,-13.42 7.07,-26.54 9.05,-40.1 -1.76,-10.52 -6.6,-20.19 -10.2,-30.15 -32.4,-89.4 -65.15,-178.66 -97.65,-268 -1.68,-4.16 -2.95,-8.92 -6.85,-11.6 -6.08,-4.54 -11.87,-9.47 -18.35,-13.45 z m -6.45,9.5 c 6.92,6.64 14.28,12.78 21.4,19.2 7.16,18.32 12.77,37.17 20.35,55.35 3.72,13.62 9.73,26.44 14.25,39.8 3.66,12.84 9.42,24.98 13.7,37.6 3.16,11.34 8.04,22.06 12,33.1 4.16,15.36 11.27,29.71 16.35,44.75 9.68,26.66 18.69,53.56 29.25,79.9 -3.2,16.02 -7.55,31.84 -10.15,48 1.74,2.88 3.49,5.72 5.25,8.6 -1.52,1.96 -3.47,3.35 -5.75,4.15 l -1.55,-0.25 -133.55,57.2 c -7.7,0.7 -8.27,-9.73 -14.95,-11.55 -14.58,-5.54 -29.53,-10.18 -44.15,-15.7 -22.44,-53.52 -46.48,-106.32 -68.1,-160.2 -2.44,-6.98 -6.48,-13.18 -9.7,-19.8 -8.44,-20.88 -17.25,-41.6 -25.85,-62.4 -10.76,-19.16 -17.12,-40.4 -26.8,-60.1 3.86,-5.04 6.4,-10.89 8.2,-16.95 44.78,-18.48 90,-35.8 134.7,-54.5 14.36,-4.02 28.32,-9.75 41.5,-16.75 8.3,-2.06 15.56,-6.61 23.6,-9.45 z"
     id="path6"
     style="fill:#f5e5c1"
     inkscape:connector-curvature="0" />
  <path
     d="m 472.2,207.15 c -2.08,20.54 -2.37,41.19 -4.35,61.75 -10.66,-14.98 -19.49,-31.18 -29.75,-46.4 -0.92,32 -1.43,64.03 -2.05,96.05 -9.66,2.42 -18.92,-2.43 -28.2,-4.35 C 396.27,312.22 390.3,301.06 382,294 c -4,3.98 -8,7.98 -12,12 -0.02,10.98 0.29,22.02 -0.45,33 -4.6,-9.6 -8.93,-19.32 -13.55,-28.9 -3.96,1.1 -7.94,2.17 -11.9,3.25 0.0292,0.0685 0.0708,0.13155 0.1,0.2 l -29.9,-3.2 c -0.0195,-0.0489 -0.0305,-0.1011 -0.05,-0.15 -11.52,-14.48 -22.41,-29.47 -34.65,-43.35 9.82,24.9 21.36,49.13 31.4,73.95 8.58,23 16.93,46.08 25.45,69.1 2.02,6.12 8.73,8.4 13.55,11.9 11.16,7.6 23.86,12.47 36,18.25 1.62,5.86 3.21,11.67 4.75,17.55 11.88,-1.12 23.96,-1.04 35.7,-3.3 11.16,-4.1 22.11,-8.69 33.35,-12.55 14.98,-5.58 31.11,-9.97 43.15,-21.05 7.12,-6.34 16.41,-11.21 21.75,-18.95 l -0.4,-1.35 c -2.78,-2.8 -5.54,-5.6 -8.3,-8.4 2.94,-16.62 6.34,-33.18 9.2,-49.8 1.06,-4.48 -1,-8.73 -2.6,-12.75 -17.08,-40.66 -33.16,-81.72 -50.4,-122.3 z"
     id="path12"
     style="fill:#f4722b"
     inkscape:connector-curvature="0" />
  <path
     d="m 411.85,37.6 c -33.22,16.66 -65.96,34.31 -99.1,51.15 -10.04,4.88 -19.49,11.6 -30.75,13.3 -19.06,3.42 -37.84,8.19 -56.8,12.05 4.94,2.74 9.94,5.3 15,7.8 0.74,2.54 1.51,5.1 2.35,7.6 23.72,60.3 47.76,120.48 71.7,180.7 9.24,23.22 18.29,46.5 27.55,69.7 6.32,17.76 16.61,33.67 24.85,50.55 12.38,-5.16 23.39,-13.13 33.15,-22.25 -4.58,1.14 -9.11,2.34 -13.65,3.6 -13.96,-32.84 -28.03,-65.63 -42.05,-98.45 -27.22,-64.7 -54.93,-129.19 -82.25,-193.85 3.24,-1.98 6.5,-3.9 9.9,-5.6 44.88,-21.7 89.79,-43.43 134.65,-65.15 4.8,-1.46 4.03,-7.39 5.45,-11.15 z"
     id="path10"
     style="fill:#f5e5c1"
     inkscape:connector-curvature="0" />
  <path
     d="M 542.14,402.3 C 702.66,496.16 863.3,589.84 1024,683.4 l 0,60.9 C 860.02,634.78 695.78,525.68 531.58,416.48 c 4.18,-4.16 8.3,-8.62 10.56,-14.18 z"
     id="path14"
     inkscape:connector-curvature="0"
     style="fill:#f4722b" />
  <path
     d="m 417.1,431.98 c 8.4,-3.7 16.48,-8.1 25.14,-11.2 3.92,6.26 7.72,12.58 10.96,19.22 -9.66,1.52 -18.48,6.1 -28.1,7.82 -2.58,-5.32 -5.28,-10.58 -8,-15.84 z"
     id="path18"
     inkscape:connector-curvature="0"
     style="fill:#f5e5c1" />
  <path
     d="m 488.74,446.22 c 8.52,-5.82 16.96,-11.78 25.7,-17.28 65.74,50.56 131.52,101.04 197.28,151.58 30.94,24.08 62.52,47.38 93.08,71.98 -11.66,-4.5 -22.7,-10.36 -34.04,-15.52 -44.38,-20.8 -88.56,-42.02 -133.08,-62.52 6.76,6.56 14.04,12.54 21.16,18.72 121.7,105.3 243.52,210.48 365.16,315.84 l 0,114.98 -90.2,0 C 835.34,897.14 737.48,769.82 639.12,642.88 c -1.98,-2.54 -3.64,-5.46 -3.54,-8.78 -1.56,-28.04 0.5,-56.14 -1.38,-84.16 -0.16,-4.58 -2.06,-9.72 -6.84,-11.2 -10.48,-3.64 -21.76,-0.5 -32.52,-2.14 -5.56,-2.42 -9.62,-7.3 -14.28,-11.06 -30.6,-26.44 -61.1,-53.02 -91.82,-79.32 z"
     id="path20"
     inkscape:connector-curvature="0"
     style="fill:#f4722b" />
  <path
     d="m 453.86,459.46 c 11.44,-3.72 22.84,-7.64 33.76,-12.7 22.94,29.64 45.92,59.26 68.72,89.02 -25.06,-11.32 -49.64,-23.68 -74.76,-34.84 10.36,16.68 21.36,32.94 32.1,49.36 -9.2,11.68 -18.76,23.08 -28.54,34.28 -8.64,-31.44 -17.48,-62.82 -25.92,-94.3 -5.7,-2.58 -11.34,-5.36 -16.5,-8.94 -0.98,-0.52 -2.94,-1.58 -3.94,-2.1 -1.02,-4.98 -2.04,-9.96 -3.04,-14.94 5.1,-1.3 10.2,-2.58 15.28,-4.04 2.1,8.08 4.1,16.2 6.38,24.22 0.84,2.28 1.16,5.22 3.68,6.34 6.2,3.68 12.98,6.22 19.52,9.22 -8.84,-13.58 -17.38,-27.36 -26.74,-40.58 z"
     id="path24"
     inkscape:connector-curvature="0"
     style="fill:#f4722b" />
  <path
     d="m 423.18,467.9 c 3.8,-1.12 7.58,-2.3 11.42,-3.3 0.56,4.86 1.12,9.74 1.68,14.62 -4.1,-1.86 -8.2,-3.72 -12.28,-5.58 -0.26,56.12 -0.4,112.24 -0.54,168.36 -0.4,7.24 1.84,15.84 -3.9,21.56 -20.14,23.54 -39.38,47.86 -59.86,71.1 2.54,-13.62 6.12,-27 9.14,-40.5 17.44,-74.22 34.5,-148.5 52.16,-222.66 -2.48,-0.84 -4.96,-1.64 -7.44,-2.4 2.68,-0.26 5.38,-0.54 8.08,-0.88 -2.3,4.72 4.9,3.5 1.54,-0.32 z"
     id="path28"
     inkscape:connector-curvature="0"
     style="fill:#f4722b" />
  <path
     d="m 387.36,471.2 c 6.4,0.78 12.78,-0.42 19.1,-1.34 C 372.4,554.08 338.42,638.34 304.38,722.58 263.96,823.08 222.92,923.34 182.9,1024 l -97.48,0 c 97.76,-179.82 194.84,-360.04 292.46,-539.96 2.74,-4.58 6.14,-8.7 9.48,-12.84 z"
     id="path32"
     inkscape:connector-curvature="0"
     style="fill:#f4722b" />
  <path
     d="m 437.08,479.9 c 4.52,3.98 4.34,10.4 5.6,15.82 7.7,37.34 15.46,74.68 23.28,112.02 -5.78,6.98 -11.5,14.04 -17.54,20.8 -3.04,-42.88 -6.7,-85.7 -10.48,-128.5 -0.54,-6.7 -1.62,-13.4 -0.86,-20.14 z"
     id="path34"
     inkscape:connector-curvature="0"
     style="fill:#f4722b" />
  <path
     d="m 553.25,549 c -7.69,0.0312 -15.36,0.09 -23.05,0.2 -64.98,78.58 -130.58,156.65 -195.9,234.95 -1.64,1.58 -2.42,3.52 -2.3,5.8 -0.44,20.3 0.5,40.57 0.4,60.85 67.14,0.32 134.26,0.26 201.4,0.1 0.46,39.56 0,79.09 0.3,118.65 29.4,-0.08 58.8,-0.11 88.2,0.05 0.5,-40.2 0.03,-80.43 0.25,-120.65 22.16,0.06 44.31,0.03 66.45,0.05 -0.1,-24.22 0.2,-48.4 -0.2,-72.6 -21.46,0.22 -42.86,0.11 -64.3,0.05 -0.78,-75.8 -1.01,-151.65 -2.05,-227.45 -23.07,0.06 -46.13,-0.0937 -69.2,0 z m -9.45,128.55 c -0.94,35.18 -2.61,70.35 -3.35,105.55 -26.44,-1.58 -53.01,0.47 -79.45,-1.25 27.62,-34.74 55.08,-69.66 82.8,-104.3 z"
     id="path36"
     style="fill:#f5e5c1"
     inkscape:connector-curvature="0" />
  <path
     d="m 809.94,655.88 c 32.6,14.32 64.5,30.22 96.82,45.18 39.04,18.52 78.3,36.66 117.24,55.4 l 0,64.12 C 952.84,765.44 881.18,710.92 809.94,655.88 z"
     id="path38"
     inkscape:connector-curvature="0"
     style="fill:#f4722b" />
  <path
     d="m 523.24,723.52 c 2,-3.46 4.4,-6.66 7.12,-9.58 0.08,10.16 -0.2,20.34 -1.16,30.46 -1.98,-6.98 -3.7,-14 -5.96,-20.88 z"
     id="path42"
     inkscape:connector-curvature="0"
     style="fill:#f4722b" />
  <path
     d="m 636.1,738.08 c 6.2,8.5 11.86,17.4 17.36,26.36 -5.62,0.06 -11.22,0.08 -16.82,0.14 -0.1,-8.84 -0.7,-17.66 -0.54,-26.5 z"
     id="path44"
     inkscape:connector-curvature="0"
     style="fill:#f4722b" />
  <path
     d="m 485.52,770.38 c 3.54,-4.98 7.42,-9.7 11.5,-14.26 0.84,4.76 1.74,9.52 2.76,14.28 -4.76,0.06 -9.52,0.06 -14.26,-0.02 z"
     id="path46"
     inkscape:connector-curvature="0"
     style="fill:#f4722b" />
  <path
     d="m 700.94,836.26 c 40.44,62.82 81.84,125.04 122.48,187.74 l -216.92,0 c -4.26,-14.08 -7.92,-28.34 -11.8,-42.52 10.32,-0.5 20.98,1.42 31.1,-1.22 6.36,-1.66 8.96,-8.34 8.66,-14.36 0.12,-35 0.02,-70 0.02,-105.02 15.82,0.18 31.66,0.12 47.5,0.16 5.48,-0.34 12.26,-0.16 16.02,-4.9 3.76,-5.88 2.82,-13.24 2.94,-19.88 z"
     id="path48"
     inkscape:connector-curvature="0"
     style="fill:#f4722b" />
  <path
     d="m 329.58,862.48 c 31.04,1.28 62.12,-0.02 93.18,0.7 -0.24,53.6 -0.36,107.2 -0.54,160.82 l -130.56,0 c 12.94,-53.76 25.16,-107.7 37.92,-161.52 z"
     id="path50"
     inkscape:connector-curvature="0"
     style="fill:#f4722b" />
  <path
     d="m 466.56,863 c 17.6,0.12 35.22,-0.28 52.8,0.24 1.52,7.5 2.8,15.08 2.7,22.76 -0.16,24.64 0,49.28 -0.14,73.92 0.18,6.04 -0.04,12.94 4.18,17.82 4.68,4.5 11.74,3.4 17.68,4.14 3.1,14.02 5.64,28.14 8.94,42.12 l -73.86,0 c -4.1,-53.66 -8.28,-107.34 -12.3,-161 z"
     id="path52"
     inkscape:connector-curvature="0"
     style="fill:#f4722b" />
</svg>
