<?xml version="1.0" encoding="UTF-8" standalone="no"?>
<svg
   xmlns:dc="http://purl.org/dc/elements/1.1/"
   xmlns:cc="http://creativecommons.org/ns#"
   xmlns:rdf="http://www.w3.org/1999/02/22-rdf-syntax-ns#"
   xmlns:svg="http://www.w3.org/2000/svg"
   xmlns="http://www.w3.org/2000/svg"
   xmlns:sodipodi="http://sodipodi.sourceforge.net/DTD/sodipodi-0.dtd"
   xmlns:inkscape="http://www.inkscape.org/namespaces/inkscape"
   width="1280"
   height="1280"
   viewBox="0 0 1024 1024"
   version="1.1"
   id="svg2"
   inkscape:version="0.48.1 "
   sodipodi:docname="jarate_kill_melee.svg">
  <metadata
     id="metadata74">
    <rdf:RDF>
      <cc:Work
         rdf:about="">
        <dc:format>image/svg+xml</dc:format>
        <dc:type
           rdf:resource="http://purl.org/dc/dcmitype/StillImage" />
      </cc:Work>
    </rdf:RDF>
  </metadata>
  <defs
     id="defs72" />
  <sodipodi:namedview
     pagecolor="#ffffff"
     bordercolor="#666666"
     borderopacity="1"
     objecttolerance="10"
     gridtolerance="10"
     guidetolerance="10"
     inkscape:pageopacity="0"
     inkscape:pageshadow="2"
     inkscape:window-width="1920"
     inkscape:window-height="1018"
     id="namedview70"
     showgrid="false"
     inkscape:snap-page="true"
     fit-margin-top="0"
     fit-margin-left="0"
     fit-margin-right="0"
     fit-margin-bottom="0"
     inkscape:zoom="0.6609375"
     inkscape:cx="640"
     inkscape:cy="640"
     inkscape:window-x="-8"
     inkscape:window-y="-8"
     inkscape:window-maximized="1"
     inkscape:current-layer="layer2"
     inkscape:object-nodes="true" />
  <g
     inkscape:groupmode="layer"
     id="layer1"
     inkscape:label="background"
     style="display:inline">
    <rect
       style="fill:#3e3e3e;fill-opacity:1;fill-rule:nonzero;stroke:none"
       id="rect3051"
       width="1024"
       height="1024"
       x="0"
       y="2.2737368e-013" />
  </g>
  <g
     inkscape:groupmode="layer"
     id="layer2"
     inkscape:label="foreground"
     style="display:inline">
    <path
       d="m 144.74,0 108.92,0 c 42.78,108.68 85.04,217.58 127.66,326.34 -4.4,5.32 -8.96,10.56 -12.58,16.48 -12.06,-11.62 -24.34,-22.98 -37.36,-33.48 -0.42,-6.38 -4.76,-11.38 -7.82,-16.68 C 263.92,195.12 204.36,97.54 144.74,0 z"
       id="path6"
       inkscape:connector-curvature="0"
       style="fill:#beb39a" />
    <path
       d="M 287.22,0 395,0 c 12.26,101 24.76,201.98 36.84,303 -13.54,4.1 -27.02,8.42 -40.54,12.6 C 358.12,215.7 324.96,115.82 291.78,15.94 290.02,10.7 287.86,5.54 287.22,0 z"
       id="path8"
       inkscape:connector-curvature="0"
       style="fill:#beb39a" />
    <path
       d="M 450.74,0 556,0 c -19.4,85.26 -38.26,170.64 -57.5,255.94 -8.84,-0.22 -17.68,-0.12 -26.52,0.12 -6.04,13.34 -12,26.7 -18.06,40 -2.72,0.82 -5.44,1.66 -8.16,2.48 1.6,-99.52 3.48,-199.02 4.98,-298.54 z"
       id="path10"
       inkscape:connector-curvature="0"
       style="fill:#beb39a" />
    <path
       d="m 648.06,0 91.48,0 C 683.98,91.32 628.58,182.76 573.2,274.22 c -14.1,-4.36 -28.08,-9.1 -42,-13.96 C 570.16,173.5 608.9,86.66 648.06,0 z"
       id="path12"
       inkscape:connector-curvature="0"
       style="fill:#beb39a" />
    <path
       d="m 766.02,0 27.44,0 C 727.06,94.44 661,189.1 594.72,283.62 590.34,280.4 585.36,278.16 580.18,276.58 642.2,184.44 703.86,92.04 766.02,0 z"
       id="path14"
       inkscape:connector-curvature="0"
       style="fill:#beb39a" />
    <path
       d="m 889.5,0 76.86,0 C 853.82,105.18 741.5,210.6 629.1,315.96 623,310.46 616.98,304.86 610.92,299.32 666.5,239.44 722.34,179.8 778,120.02 815.1,79.94 852.8,40.42 889.5,0 z"
       id="path16"
       inkscape:connector-curvature="0"
       style="fill:#beb39a" />
    <path
       d="M 646.3,331.32 C 772.3,244.56 898.04,157.42 1024,70.6 l 0,253.26 c -108.92,24.06 -218.04,47.3 -326.94,71.42 -9.18,-12.96 -18.06,-26.14 -26.94,-39.32 -6.3,-9.68 -16.06,-16.26 -23.82,-24.64 z"
       id="path18"
       inkscape:connector-curvature="0"
       style="fill:#beb39a" />
    <path
       d="m 30.34,192.24 c 19.34,1.64 38.66,3.94 57.84,6.88 1.18,12.94 4.24,25.58 9.88,37.3 4.56,14.52 15.02,25.8 23.46,38.12 10.82,16.2 25.24,29.46 38.26,43.82 9.5,11.2 22.24,18.88 33.36,28.3 11.82,8.94 22.96,18.82 35.56,26.7 27.3,17.82 54.22,36.24 82.2,53.02 -13.54,14.4 -24.74,30.86 -38.34,45.16 -25.92,-13.22 -51.58,-26.98 -77.5,-40.18 -9.96,-4.9 -17.46,-13.28 -26.28,-19.82 -13.92,-11.78 -28.16,-23.16 -42.04,-34.98 2.58,-4.28 4.82,-8.86 4.88,-13.98 -6.18,1.32 -12.3,2.84 -18.36,4.64 -6.94,-6.7 -12.7,-14.46 -18.74,-21.92 C 86.78,335.66 78.56,326.4 71.4,316.32 63.02,302.52 55.5,288.2 47.26,274.3 c -1.96,-3.48 -4.16,-6.9 -5.3,-10.76 -3.78,-20.2 -6.82,-40.56 -10.92,-60.7 -0.26,-3.54 -0.48,-7.06 -0.7,-10.6 z"
       id="path22"
       inkscape:connector-curvature="0"
       style="fill:#f5e5c1" />
    <path
       d="m 92.96,200.32 c 30.6,1.18 60.74,7.96 91.34,9.3 15.24,2.28 30.56,4.04 45.88,5.78 22.62,20.86 45.48,41.46 67.92,62.54 11.62,9.88 22.72,20.4 33.28,31.4 13.02,10.5 25.3,21.86 37.36,33.48 2.28,1.82 4.58,3.58 6.92,5.32 -20.54,24.72 -41.46,49.12 -61.52,74.24 -26.74,-15.68 -52.46,-33 -78.18,-50.3 C 216.08,359.78 198.5,344.32 179.98,330.16 165.42,319.44 154.42,304.88 141.7,292.2 132.06,282.94 125.36,271.26 117.28,260.74 103.52,243.52 96,221.98 92.96,200.32 z"
       id="path24"
       inkscape:connector-curvature="0"
       style="fill:#f5e5c1" />
    <path
       d="m 480.56,274.6 c 3.38,-3.78 6.64,-9.4 12.56,-8.26 10.84,-1.12 20.94,3.3 31.22,5.88 21.7,4.52 41.46,15.54 59.6,27.94 17.02,10.4 30.46,25.42 45.34,38.5 10.54,8.68 20.96,17.84 28.06,29.66 8.1,8.98 8.3,21.74 13.88,32.04 1.6,3.22 3.3,7.12 1.4,10.62 -3.92,8.2 -10.9,14.32 -15.9,21.78 -2.18,3.28 -4.62,6.4 -7.7,8.88 -1.82,-7.6 5.12,-15.7 -0.22,-22.52 -6.7,-11.28 -11.88,-23.56 -20.38,-33.66 -10.36,-14.1 -21.8,-27.38 -33.66,-40.2 -11.66,-7.02 -23.04,-14.5 -34.82,-21.34 -11.42,-5.86 -22.88,-11.68 -34.4,-17.36 -13,-6.46 -25.7,-13.84 -39.72,-17.86 -4.42,-1.36 -8.92,0.58 -12.9,2.38 -0.94,-6.58 3.82,-11.76 7.64,-16.48 z"
       id="path26"
       inkscape:connector-curvature="0"
       style="fill:#f5e5c1" />
    <path
       style="fill:#6c685f;fill-opacity:1"
       d="m 394.55,363.95 c -18.87045,23.75654 -38.89746,46.5456 -58.2,69.95 l 22.75,20 133.1,102.25 46.4,55.7 3.4,4.1 c 0.0165,0.0166 0.0334,0.0333 0.0499,0.0499 2.78418,2.80325 5.62675,5.59664 8.45,8.4 5.34,-6.14 9.75,-12.93 13.95,-19.85 11.1,-12.28 19.65,-26.49 29.75,-39.55 -10.77475,-7.16344 -24.3172,-7.50738 -35.3,-13.95 -5.73946,-4.44293 -29.98,-15.97376 -31.35,-16.15 -0.0357,-0.0128 -0.0643,-0.0378 -0.1,-0.0499 l -0.0499,0 c -20.53397,-7.05549 -33.89717,-24.8356 -49,-39.3 -8.84,-9.2 -18.76,-17.49 -25.9,-28.15 -14.44,-20.84 -29.56,-41.19 -43.8,-62.15 -6.2,-13.18 -9.03,-27.7 -14.15,-41.3 z m -61.5,73.95 c -7.05906,8.62827 -14.01738,17.34539 -20.75,26.25 -6.02,5.6 -11.27,11.93 -16.15,18.55 4.38,1.3 8.74,3.02 11.6,6.8 65.42925,40.93021 147.60834,98.92966 214,153.4 2.87792,3.05376 5.36314,6.47627 7.25,10.25 6.08,-8.38 12.41,-16.57 18.65,-24.85 -2.76,-2.96 -5.54,-5.94 -8.3,-8.9 l -2.5,-2.7 C 526.25499,604.76147 488.1,559.4 488.1,559.4 L 358.5,458.6 z"
       id="path3057"
       inkscape:connector-curvature="0"
       sodipodi:nodetypes="cccccccccccccccccccccccccccccc" />
    <path
       d="m 478.55,299.05 c -4.54467,0.15646 -8.8925,2.55374 -13.15,4 -1.92,3.22 -3.92,6.37 -5.9,9.55 -17.48,5.78 -35.39,10.12 -52.65,16.5 -10.52,8.76 -17.79,20.67 -27.05,30.65 -24.82,29.22 -49.04,58.99 -73.6,88.45 -13.76,15.06 -25.07,32.16 -38.85,47.2 -11.32,13.4 -21.92,27.35 -33.6,40.45 -10.96,12.98 -20.94,26.77 -32.6,39.15 -10.62,12.78 -20.44,26.26 -31.8,38.4 -7.92,10.02 -16.67,19.52 -23.65,30.2 -0.98,10.82 -3.06,21.57 -3.3,32.45 27.12,25.28 58.94,46.01 86.9,70.65 12.9,10.5 27.26,19.07 39.6,30.25 33.68,27.18 68.29,53.26 102.25,80.1 8.6,-1.14 17.22,-1.99 25.9,-1.95 20.2,-27.18 41.21,-53.78 60.25,-81.8 24.9,-33.74 50.79,-66.81 74.75,-101.25 20.26,-26.36 40.26,-52.87 60.1,-79.55 6.28,-6.24 8.71,-15.03 14.45,-21.65 12.74,-16.72 25.49,-33.47 37.75,-50.55 6.62,-8.42 1.79,-19.31 -0.05,-28.55 -2.14,-15.54 -7.05,-30.51 -9.15,-46.05 3.4,-2.68 7.51,-5.08 9.35,-9.2 0.34,-4.98 0.16,-9.99 0.7,-14.95 -5.22,-8.82 -12.57,-16.11 -18.45,-24.45 -6.76,-9.76 -15.84,-17.55 -23.9,-26.15 -13.62,-14.48 -29.19,-26.91 -44.75,-39.15 -16.1,-8.18 -32.56,-15.65 -48.5,-24.15 -8.64,-4.6 -18.42,-6.3 -27.9,-8.3 -1.0725,-0.24 -2.10123,-0.33611 -3.15,-0.3 z m -5,15.5 c 20.14,5.1 39.13,14.01 58.55,21.35 24.18,16.26 45.19,36.67 68.55,54.05 4.4,2.94 6.67,7.92 9.85,12 6.56,10.14 13.89,19.79 20.25,30.05 -1.38,6.72 -7.45,12.7 -5.45,20 1.58,6.6 1.02,13.62 4.1,19.8 1.5,12.7 5.18,25.09 6.2,37.85 -14.2,18.14 -27.62,36.89 -41.4,55.35 -10.1,13.06 -18.65,27.27 -29.75,39.55 -4.2,6.92 -8.61,13.71 -13.95,19.85 -0.72,0.96 -2.13,2.92 -2.85,3.9 -6.24,8.28 -12.57,16.47 -18.65,24.85 -9.76,12.22 -18.84,24.98 -28.6,37.2 -3.3,3.7 -4.3,8.76 -7.4,12.6 -18.08,23.36 -35.54,47.25 -53.7,70.55 -2.88,3.34 -3.95,7.74 -6.45,11.3 -13.72,18.02 -27.55,35.95 -40.75,54.35 -7.54,-0.46 -15.52,-1.11 -22.6,2.05 -4.84,-3.3 -9.64,-6.72 -14.2,-10.4 -18.38,-15.88 -38.8,-29.12 -57.2,-45 -25.02,-19.48 -50.31,-38.66 -75.45,-58 -8.04,-9.64 -19.2,-15.79 -28.7,-23.85 -4.4,-4.08 -10.47,-5.49 -14.95,-9.45 -1.46,-2.3 -2.81,-4.9 -5.45,-6 -6.28,-2.88 -11.04,-8 -17,-11.4 3.08,-11.46 4.33,-23.28 7.05,-34.8 5.24,-7.52 11.6,-14.17 16.9,-21.65 12.3,-11.96 22.08,-26.25 33,-39.45 9.38,-8.66 16.48,-19.48 24.7,-29.2 4.76,-7.72 12.55,-12.7 17.35,-20.4 9.4,-10.64 17.06,-22.8 27.4,-32.6 4.32,-5.52 8.82,-10.84 13.2,-16.3 4.88,-6.62 10.13,-12.95 16.15,-18.55 26.1,-34.52 55.37,-66.36 82.25,-100.2 4.74,-6.36 10.83,-11.55 15.15,-18.25 7.38,-4.36 16.18,-5.15 24.1,-8.25 10.98,-3.78 22.02,-7.36 33.1,-10.8 2.72,-3.74 5.07,-7.76 6.65,-12.1 z"
       id="path28"
       style="fill:#f5e5c1"
       inkscape:connector-curvature="0" />
    <path
       d="M 704.6,404.22 C 811.02,387.76 917.58,372.18 1024,355.8 l 0,39.48 c -116.84,15.32 -233.66,30.66 -350.5,45.94 9.9,-12.74 21.86,-23.78 31.1,-37 z"
       id="path32"
       inkscape:connector-curvature="0"
       style="fill:#beb39a" />
    <path
       d="m 654.02,458.18 c 123.32,6.46 246.66,13.02 369.98,19.6 l 0,101.78 C 903.52,549.92 782.94,520.64 662.42,491.18 c -2.98,-10.94 -5.58,-22 -8.4,-33 z"
       id="path42"
       inkscape:connector-curvature="0"
       style="fill:#beb39a" />
    <path
       d="m 664.24,498.62 c 119.9,39.98 239.92,79.54 359.76,119.64 l 0,109.26 C 900.8,661.68 777.44,596.18 654.18,530.46 c 3.88,-8.2 7.94,-16.3 11.78,-24.5 -0.42,-1.84 -1.28,-5.5 -1.72,-7.34 z"
       id="path46"
       inkscape:connector-curvature="0"
       style="fill:#beb39a" />
    <path
       d="m 644.28,550.74 c 2.4,-4.96 4.84,-9.92 7.3,-14.84 C 775.7,614.26 900,692.34 1024,770.86 l 0,45.72 C 897.58,727.76 770.78,639.44 644.28,550.74 z"
       id="path48"
       inkscape:connector-curvature="0"
       style="fill:#beb39a" />
    <path
       d="m 566.82,643.86 c 14.58,-19.12 28.52,-38.72 43.38,-57.64 23.38,27.74 47.18,55.08 70.78,82.6 7.78,7.7 13.24,17.72 22.32,24.06 -0.1,0.82 -0.32,2.46 -0.42,3.28 -21.18,14.76 -40.2,32.48 -61.14,47.58 -2.04,-4.84 -5.52,-8.8 -8.6,-12.96 -15.82,-21.5 -31.6,-43.04 -47.32,-64.6 -5.48,-8.14 -12.28,-15.22 -19,-22.32 z"
       id="path54"
       inkscape:connector-curvature="0"
       style="fill:#f5e5c1" />
    <path
       d="m 563.08,648.14 c 2.24,0.38 4.52,0.92 5.7,3.14 23.92,28.5 44.38,59.7 67.1,89.16 1.76,2.18 3.1,5.58 0.56,7.78 -5.7,5.72 -12.9,9.7 -18.52,15.52 -1.02,-0.24 -3.02,-0.74 -4.04,-0.98 -13.78,-23.3 -30.44,-44.84 -45.6,-67.28 -5.92,-9.46 -14.12,-17.12 -21.82,-25.08 5.48,-7.48 11.6,-14.48 16.62,-22.26 z"
       id="path60"
       inkscape:connector-curvature="0"
       style="fill:#f5e5c1" />
    <path
       d="m 715.16,694.98 c 0.7,-0.08 2.1,-0.28 2.82,-0.38 6.24,7.72 11.56,16.14 18.02,23.72 2.26,1.84 1.8,5.6 -0.82,6.92 -13.44,10.02 -26.38,20.64 -39.72,30.78 -10.82,7.42 -20.36,16.72 -31.56,23.48 -10,0 -20,-0.7 -30,-1.14 -5.62,-2.04 -11.74,-1.04 -17.58,-1.46 1.86,-4.58 4.24,-9.24 8.52,-12 30.34,-22.98 59.12,-48.2 90.32,-69.92 z"
       id="path62"
       inkscape:connector-curvature="0"
       style="fill:#f5e5c1" />
    <path
       d="m 738.6,731.05 c -7.08304,0.50962 -12.35,7.0875 -17.45,11.55 -1.4,0.02 -4.25,0.05 -5.65,0.05 -12.34,8.62 -22.84,19.69 -36,27.05 -3.16,2.24 -3.28,6.96 -6.7,8.9 -2.26,2 -7.47,3.41 -5.65,7.45 15.46,19.66 29.63,40.36 44.75,60.3 33.18,46.04 66.88,91.69 100.3,137.55 9.14,6.7 18.63,13.77 30.05,15.85 7.32,3.22 14.89,0.18 22.25,-1.1 10.62,-8.7 21.26,-17.4 31.1,-27 6.82,-6.94 15.27,-12.03 21.85,-19.25 -2.96,-11.54 -13.74,-18.37 -19.9,-28.05 -45.66,-55.82 -89.91,-112.76 -134.75,-169.2 -7.82,-7.74 -12.01,-19.76 -22.75,-24.1 -0.48875,-0.0225 -0.97779,-0.034 -1.45,0 z m -4.85,30.05 c 12.75203,-0.45035 25.1075,11.8775 23.55,24.95 0.74,8.2 -5.9,14.6 -12.2,18.7 -12.44,6.76 -29.4,-1.29 -32.5,-14.95 -4.26,-11.5 4.3,-24.7 15.7,-27.7 1.7975,-0.62 3.62829,-0.93566 5.45,-1 z M 856.9,926.8 c 6.05021,-0.0526 12.0625,3.70125 14.4,9.6 4.58,7.98 -1.15,18.43 -9.45,20.95 -11.14,5.24 -24.08,-8.4 -19.9,-19.4 1.44,-3.46 3.73,-6.69 7.05,-8.55 2.4,-1.77501 5.1499,-2.5761 7.9,-2.6 z"
       id="path64"
       style="fill:#f4722b"
       inkscape:connector-curvature="0" />
    <path
       style="fill:#f4722b"
       d="M 433.90625 551.96875 C 441.53125 564.69375 448.70625 577.9125 457.78125 589.6875 C 491.03125 618.0875 523.10625 647.94375 556.90625 675.71875 C 579.13125 689.36875 601.4625 702.89375 623.9375 716.09375 L 660 736.90625 C 670.25 741.65625 680.9375 750.31875 692.6875 747.96875 L 693.90625 744.65625 C 687.55625 736.20625 679.3125 729.4375 671.8125 722.0625 L 644.5 688.53125 C 635.625 678.78125 628.5125 667.3875 618.4375 658.8125 C 581.9375 632.0375 545.2 605.51875 508.5 578.96875 C 499.775 573.16875 489.3875 571.03125 479.6875 567.40625 C 464.3875 562.35625 449.45625 556.16875 433.90625 551.96875 z "
       id="path3059"
       transform="scale(0.8,0.8)" />
    <path
       style="fill:#f4722b"
       d="M 429.40625 558 C 413.90625 575.475 399.7125 594.025 384.6875 611.875 C 351.3625 651.15 318.89375 691.16875 285.71875 730.59375 C 268.89375 752.56875 248.925 772.2625 233.5 795.1875 C 233.2 813.4875 235.73125 831.81875 237.40625 849.96875 C 292.15625 895.36875 347.95625 939.59375 403.15625 984.46875 C 417.45625 995.84375 431.175 1008.025 445.875 1018.875 C 461 1019.25 475.84375 1014.875 490.84375 1013.25 C 544.86875 943.55 598.14375 873.2625 651.84375 803.3125 C 659.29375 793.6375 666.6625 783.875 674.1875 774.25 C 675.0375 773.175 676.68125 771.0125 677.53125 769.9375 C 680.60625 765.8625 683.5625 761.6625 686.4375 757.4375 C 675.0625 754.1625 663.025 752.425 652.875 745.875 L 617.625 724.5 C 597.225 712.9 578.3875 698.8875 558.6875 686.1875 C 548.1125 678.5875 536.4125 672.2875 527.4375 662.6875 C 505.3625 639.7125 481.86875 618.1 460.59375 594.375 C 450.71875 581.75 436.83125 572.525 429.40625 558 z "
       id="path3061"
       transform="scale(0.8,0.8)" />
    <path
       d="m 556.84,393.82 c 4.54,-7.22 8.36,-14.82 13,-21.96 8.02,8.92 17.7,16.06 26.26,24.42 -3.8,6.78 -8.56,13.02 -11.76,20.08 -0.08,2.92 1.8,5.34 3.22,7.72 6.2,9.3 11.86,18.94 18.08,28.26 1.9,2.92 3.86,6 3.98,9.66 -4.96,-3.2 -9.9,-6.4 -14.98,-9.4 6,6.36 12.56,12.16 18.78,18.3 -7.14,13.86 -16.46,26.74 -24.34,40.3 -9.8,13.5 -20.3,26.5 -30.62,39.62 -6.94,9 -13.94,17.94 -21.02,26.84 -3.16,3.94 -6.3,7.9 -9.44,11.86 -1.92,2.38 -3.84,4.78 -5.7,7.18 -51.88,66.72 -104.16,133.12 -156.26,199.62 -3.3,4.12 -9.1,4.14 -13.78,5.52 -9.18,-7.38 -18.56,-14.5 -28.1,-21.38 7,-2.14 14.42,-1.52 21.64,-2.08 19.26,-26.2 38.78,-52.18 58.38,-78.12 30.14,-40.1 59.54,-80.74 89.92,-120.66 1.68,-2.24 3.36,-4.48 5.04,-6.72 5.5,-7.34 11.02,-14.68 16.46,-22.06 3.94,-5.36 8,-10.62 11.96,-15.94 17.74,-24.8 36.62,-48.78 54.3,-73.62 -18.22,-16.82 -36.82,-33.2 -55.02,-50.04 -4.2,-3.82 -8.86,-7.58 -10.92,-13.06 18.78,9.04 37.06,19.16 55.52,28.88 -4.2,-11.36 -10.14,-21.96 -14.6,-33.22 z"
       id="path36"
       inkscape:connector-curvature="0"
       style="fill:#f5e5c1" />
  </g>
</svg>
