<?xml version="1.0" encoding="UTF-8" standalone="no"?>
<svg
   xmlns:dc="http://purl.org/dc/elements/1.1/"
   xmlns:cc="http://creativecommons.org/ns#"
   xmlns:rdf="http://www.w3.org/1999/02/22-rdf-syntax-ns#"
   xmlns:svg="http://www.w3.org/2000/svg"
   xmlns="http://www.w3.org/2000/svg"
   xmlns:sodipodi="http://sodipodi.sourceforge.net/DTD/sodipodi-0.dtd"
   xmlns:inkscape="http://www.inkscape.org/namespaces/inkscape"
   width="1280"
   height="1280"
   viewBox="0 0 1024 1024"
   version="1.1"
   id="svg2"
   inkscape:version="0.48.1 "
   sodipodi:docname="jarate_dominated.svg">
  <metadata
     id="metadata32">
    <rdf:RDF>
      <cc:Work
         rdf:about="">
        <dc:format>image/svg+xml</dc:format>
        <dc:type
           rdf:resource="http://purl.org/dc/dcmitype/StillImage" />
      </cc:Work>
    </rdf:RDF>
  </metadata>
  <defs
     id="defs30" />
  <sodipodi:namedview
     pagecolor="#ffffff"
     bordercolor="#666666"
     borderopacity="1"
     objecttolerance="10"
     gridtolerance="10"
     guidetolerance="10"
     inkscape:pageopacity="0"
     inkscape:pageshadow="2"
     inkscape:window-width="1920"
     inkscape:window-height="1018"
     id="namedview28"
     showgrid="false"
     fit-margin-top="0"
     fit-margin-left="0"
     fit-margin-right="0"
     fit-margin-bottom="0"
     inkscape:zoom="0.6609375"
     inkscape:cx="466.00473"
     inkscape:cy="640"
     inkscape:window-x="-8"
     inkscape:window-y="-8"
     inkscape:window-maximized="1"
     inkscape:current-layer="layer1"
     inkscape:snap-page="true" />
  <g
     inkscape:groupmode="layer"
     id="layer1"
     inkscape:label="background">
    <rect
       style="fill:#3e3e3e;fill-opacity:1;fill-rule:nonzero;stroke:none"
       id="rect3000"
       width="1280"
       height="1280"
       x="0"
       y="0"
       transform="scale(0.8,0.8)" />
  </g>
  <g
     inkscape:groupmode="layer"
     id="layer2"
     inkscape:label="foreground">
    <path
       d="m 467.16,38.62 c 56.4,-8.2 115.38,2.88 164.92,31.12 49.02,27.5 88.46,71.5 110.6,123.16 19.22,44.18 25.6,93.76 18.5,141.4 -8.68,59.36 -38.78,115.32 -83.54,155.28 -7.82,6.32 -15,13.72 -24.06,18.36 -4.26,-5.76 -9.46,-10.7 -14.06,-16.16 -0.5,-3.38 0.94,-6.68 1.46,-9.96 3.14,-13.62 3.9,-27.64 4.34,-41.56 -0.34,-4.04 2.96,-6.78 5.32,-9.56 26.58,-28.86 44.34,-65.76 50.26,-104.54 3.74,-15.14 3.42,-30.86 2.5,-46.32 -3.04,-17.9 -5.92,-36.02 -12.68,-52.98 -17.1,-46.7 -52.4,-86.36 -96.9,-108.58 C 575,109 554.9,102 534.06,99.1 519.44,97.56 504.7,98 490.04,98.1 c -23.92,0.06 -47.22,7.16 -68.9,16.86 -42.66,19.26 -77.9,54.26 -97.52,96.74 -10.38,22.66 -17.7,47.2 -17.56,72.3 0.06,17.4 -0.96,35.04 2.84,52.14 8.66,43.14 32.64,82.36 65.32,111.54 -2.64,1.5 -5.26,3 -7.9,4.5 -0.48,21.44 0.88,42.86 0.2,64.3 -35.26,-21.34 -64.66,-51.92 -85.8,-87.24 -26.04,-43.48 -38.92,-94.7 -36.42,-145.32 2.48,-58.38 25.62,-115.58 64.26,-159.4 40.3,-46.36 97.76,-77.36 158.6,-85.9 z"
       id="path6"
       inkscape:connector-curvature="0"
       style="fill:#f5e5c1" />
    <path
       d="m 501.65,132.1 c -23.88627,0.34531 -47.6725,5.74 -69.15,16.3 -32.54,15.64 -59.55,42.43 -75.45,74.85 -17.78,35.42 -21.69,77.4 -11.35,115.6 9.06,33.56 29,64.19 56.4,85.65 4.76,-3.34 8.6,-7.99 13.8,-10.65 7.3,-0.84 14.8,0.07 22.1,-1.25 19.26,-2.7 38.73,-2.72 58.15,-2.5 27.26,2.9 54.75,2.3 82.05,4.3 8.36,3.26 14.9,10.1 23.2,13.7 41.24,-30.36 67.12,-80.66 66.5,-132 0.48,-42.6 -17.11,-84.85 -46.95,-115.15 -23.36,-23.76 -54.12,-40.12 -86.9,-46.2 -10.68125,-1.94375 -21.54261,-2.80696 -32.4,-2.65 z m 4.75,59.8 c 14.09786,0.11992 28.15,2.67501 40.95,8.75 30.12,13.2 52.99,41.44 59.75,73.6 6.32,24.28 1.2,50.47 -10.4,72.35 -14.58,27.48 -42.19,47.44 -72.75,53.1 -20.84,4.9 -42.88,1.09 -62.3,-7.35 -31.54,-13.82 -55.11,-44.17 -60.65,-78.15 -2.5,-21.64 -1.04,-44.4 9.2,-64 13.58,-28.2 40.46,-49.37 71,-56.15 8.2425,-1.42501 16.7413,-2.22195 25.2,-2.15 z"
       id="path8"
       style="fill:#f5e5c1"
       inkscape:connector-curvature="0" />
    <path
       d="m 494.26,222.42 c 31.7,-3.92 64.08,15.56 76.04,45.04 9.3,22.04 7.04,48.58 -6.08,68.62 -8.74,13.16 -21.46,23.86 -36.4,29.28 -22.4,8.44 -48.84,5.14 -68.34,-8.8 -10.52,-7.68 -19.42,-17.8 -24.78,-29.74 -8.96,-19.4 -8.88,-42.72 0.2,-62.06 10.72,-23.08 33.9,-40 59.36,-42.34 z"
       id="path12"
       inkscape:connector-curvature="0"
       style="fill:#f4722b" />
    <path
       d="m 447.84,428.94 c 17.8,-4.3 36.12,-4.32 54.24,-6.16 18.97622,0.40627 38.51592,1.79301 58.06,4.68 9.78,1.3 19.28,4.58 28.64,7.66 10.28,5.7 19.48,13.2 30.14,18.3 2.94,12.88 1.06,26.12 2.08,39.16 -0.82,0.4 -2.46,1.24 -3.28,1.64 -3.08,-5.8 -4.48,-14.24 -11.76,-16.22 -8.84,-3.46 -17.36,-7.68 -26.28,-10.94 -18.94,-5.88 -38.48,-9.44 -57.82,-13.64 -35.78,1.28 -70.66,10.1 -105.72,16.68 -6.06,1.52 -12,3.46 -17.96,5.3 -4.52,1.08 -6.6,5.68 -9.2,9.04 -0.84,-0.58 -2.5,-1.74 -3.34,-2.32 -1.76,-8.5 -1.46,-17.54 0.26,-26 5.12,-4.64 10.78,-8.84 17.36,-11.12 14.88,-5.34 28.58,-14.18 44.58,-16.06 z"
       id="path14"
       inkscape:connector-curvature="0"
       style="fill:#f5e5c1"
       sodipodi:nodetypes="ccccccccccccccccc" />
    <path
       d="m 487.9,465.25 c -2.61826,0.0168 -5.2325,0.0813 -7.85,0.15 -17.36,3.36 -34.51,7.65 -51.95,10.55 -9.24,1.54 -17.6,6.12 -26,10 -5.16,2.08 -8.28,6.93 -10.9,11.55 -1.54,4.86 0.57,10.18 -0.75,15 -10.2,14.48 -20.62,28.82 -30.4,43.6 -2.78,12.34 -0.94,25.37 -2.1,37.95 -1.54,27.3 -0.39,54.66 -2.65,81.9 -0.26,18.62 0.08,37.27 -1.5,55.85 -0.32,24.7 -1.29,49.4 -1.55,74.1 -2,21.3 -0.73,42.71 -1.85,64.05 -1.52,10.92 -0.71,21.97 -1.05,32.95 -0.16,14.38 -1.05,28.7 -1.15,43.1 0.02,7.18 -2.48,15.22 1.8,21.7 5.16,8.52 10.68,16.87 15.6,25.55 12.84,-0.9 25.51,1.91 38.35,1.15 18.58,0.32 37.17,-0.57 55.75,-0.75 14.72,1.96 29.57,0.97 44.35,0.75 8.58,-1.12 17.22,-1.36 25.8,0 40,0.52 80.03,-0.35 120.05,0.05 2.88,-0.36 6.41,0.7 8.75,-1.6 6.12,-5.38 11.83,-11.29 18.25,-16.35 -0.92,-36.86 -1.11,-73.79 -3.55,-110.55 -0.28,-47.34 -2.2,-94.67 -3.9,-141.95 -0.16,-50.72 -3.34,-101.27 -4.1,-151.95 -0.28,-6.18 0.27,-12.54 -1.55,-18.5 -3.9,-7.74 -12.26,-11.34 -18.1,-17.3 -11.08,-9.56 -22.62,-18.55 -33.6,-28.25 0.56,-4.4 2,-8.88 1.1,-13.3 -2.66,-4.56 -6.25,-8.49 -9.05,-12.95 -37.66875,-11.15626 -76.97614,-16.75195 -116.25,-16.5 z m 0.35,18.25 c 5.26899,-0.0274 10.5,0.17 15.75,0.8 17.3,1.28 34.72,-0.34 52,1.1 14.86,4.42 29.67,9.14 44.35,14.2 1.22,5.2 1.88,10.71 4.5,15.45 4.08,4.72 9.09,8.54 12.95,13.5 0.88,0.24 2.72,0.71 3.6,0.95 9.28,9.68 19.95,17.86 29.75,27 0.04,9.86 -0.02,19.71 1,29.55 0.8,24.58 0.18,49.23 2.3,73.75 0.4,6.1 0.25,12.26 -0.75,18.3 0.72,3.22 1.46,6.41 1.5,9.75 0.32,21.4 0.02,42.87 1.2,64.25 0.62,15.32 -0.97,30.76 2.05,45.9 0.4,28.82 0.93,57.66 1.05,86.5 0.2,6.56 2.36,12.95 2.1,19.55 -0.26,21.22 1.53,42.38 1.15,63.6 -7.1,3.16 -12.07,9.24 -16.75,15.2 -60,0.38 -120,0.04 -180,0.8 -20.02,-1.28 -40.23,-1.68 -60.15,1 -9.04,-3.42 -18.87,1.44 -28.35,0 -4.6,-11.12 -11.1,-21.33 -15.9,-32.35 -0.04,-12.2 -0.57,-24.53 1.25,-36.65 0.84,-17.2 -0.7,-34.52 1.8,-51.6 -0.52,-29.38 1.61,-58.71 1.85,-88.05 1.94,-17.86 -0.34,-35.94 2.4,-53.7 0.32,-20.8 -0.06,-41.6 0.7,-62.4 2.38,-28.5 1.08,-57.18 3.1,-85.7 0.02,-3.86 -0.54,-8.11 2.2,-11.25 9.5,-13.9 19.25,-27.64 28.35,-41.8 4.38,-5.34 0.49,-12.37 1.75,-18.45 18.72,-6.66 37.75,-12.55 56.95,-17.75 8.72501,-0.7 17.51835,-1.4043 26.3,-1.45 z"
       id="path16"
       style="fill:#f5e5c1"
       inkscape:connector-curvature="0" />
    <path
       d="m 616.44,695.38 c 9.74,-0.1 17.94,-5.56 26.62,-9.2 1.16,80.6 2.02,161.18 2.7,241.78 -0.2,6.74 2.48,15.24 -3.6,20.2 -7.74,6.98 -13.5,16.22 -22.18,22.04 -37.3,-1.46 -74.68,-1.08 -112.02,-1.58 -34.1,-1.64 -68.26,-1.14 -102.4,-1.9 -9.5,-11.34 -20.84,-21.14 -29.6,-33.08 -1.1,-6.5 -0.3,-13.18 -0.16,-19.72 2,-26.58 0.52,-53.28 2.78,-79.82 -0.04,-39.4 2.58,-78.72 2.88,-118.1 0.22,-9.32 1.4,-18.6 1.2,-27.94 8.8,3.4 18.18,4.58 27.5,5.64 31.1,5.36 62.52,8.8 93.84,12.58 26.44,-1.74 52.84,-3.64 79.22,-6.1 z"
       id="path26"
       inkscape:connector-curvature="0"
       style="fill:#f4722b"
       sodipodi:nodetypes="cccccccccccccccc" />
    <path
       style="fill:#f4722b"
       d="M 687.5625 822.0625 C 665.3125 824.4625 642.8875 823.4625 620.5625 824.6875 C 606.2875 826.1375 591.95625 826.0625 577.65625 826.5625 C 565.18125 827.0375 552.24375 825.93125 540.34375 830.40625 C 519.29375 837.83125 497.93125 844.2875 477.15625 852.4375 C 496.13125 858.6375 514.44375 868.8375 534.96875 868.1875 C 555.86875 868.2625 576.63125 871.2 597.53125 871.5 C 619.23125 871.825 641.0375 875.86875 662.6875 872.59375 C 684.6875 869.54375 706.8375 867.6125 728.8125 864.1875 C 734.49052 863.38155 768.8601 858.4762 770.53125 858.1875 C 770.70799 858.16331 770.88581 858.14967 771.0625 858.125 L 771.0625 858.09375 C 781.6566 856.61424 792.17461 854.29436 801.8125 849.5 C 801.8125 847.95 801.78125 844.8625 801.78125 843.3125 C 791.5185 841.25001 781.08848 840.6764 770.75 839.34375 C 770.40726 839.23079 752.08499 833.20184 728.28125 829.59375 C 728.28107 829.58335 728.28143 829.5729 728.28125 829.5625 C 714.55625 827.8875 701.3875 822.4875 687.5625 822.0625 z "
       id="path22"
       transform="scale(0.8,0.8)" />
    <path
       d="m 514.72,490.18 c 12.02,1.24 24.2,0.64 36.14,2.82 0.22,7.92 1.76,15.72 2.38,23.62 16.74,6.44 33.7,12.32 50.7,18.04 -6.18,1.42 -12.42,2.48 -18.7,3.4 8.48,1.42 17.12,1.16 25.62,2.5 1.3,18.52 4.48,36.9 5.44,55.44 0.1,25.16 0.24,50.32 0.14,75.46 -0.02,5.04 -0.02,10.06 -0.02,15.1 0,2.94 0,5.86 0.02,8.82 -0.52,84.26 0.5,168.54 -0.28,252.8 0.14,5.84 -4.42,10.04 -7.66,14.36 -12.02,-0.1 -24.02,0 -36.04,0.18 5.5,-5.06 10.98,-10.16 16.52,-15.18 -1.54,-82.46 -3.98,-164.9 -5.76,-247.36 -0.08,-2.96 -0.16,-5.9 -0.18,-8.84 -0.16,-9.24 -0.26,-18.48 -0.42,-27.7 -2.12,-36.9 -1.5,-73.9 -3.06,-110.84 -20.4,-2.36 -40.92,-3 -61.36,-4.64 -10.22,-1.54 -20.88,-0.18 -30.64,-4.22 9.88,-3.08 20.26,-4 30.36,-6.1 10.82,-1.78 21.48,-4.44 32.4,-5.62 -9.72,-6.06 -20.3,-10.58 -30.26,-16.16 -2.3,-1.26 -2.5,-3.98 -2.76,-6.26 -0.72,-6.56 -1.82,-13.06 -2.58,-19.62 z"
       id="path20"
       inkscape:connector-curvature="0"
       style="fill:#f5e5c1" />
  </g>
</svg>
