<?xml version="1.0" encoding="UTF-8" standalone="no"?>
<svg
   xmlns:dc="http://purl.org/dc/elements/1.1/"
   xmlns:cc="http://creativecommons.org/ns#"
   xmlns:rdf="http://www.w3.org/1999/02/22-rdf-syntax-ns#"
   xmlns:svg="http://www.w3.org/2000/svg"
   xmlns="http://www.w3.org/2000/svg"
   xmlns:sodipodi="http://sodipodi.sourceforge.net/DTD/sodipodi-0.dtd"
   xmlns:inkscape="http://www.inkscape.org/namespaces/inkscape"
   width="1280"
   height="1280"
   viewBox="0 0 1024 1024"
   version="1.1"
   id="svg2"
   inkscape:version="0.48.1 "
   sodipodi:docname="jarate_medic_pair.svg">
  <metadata
     id="metadata154">
    <rdf:RDF>
      <cc:Work
         rdf:about="">
        <dc:format>image/svg+xml</dc:format>
        <dc:type
           rdf:resource="http://purl.org/dc/dcmitype/StillImage" />
      </cc:Work>
    </rdf:RDF>
  </metadata>
  <defs
     id="defs152" />
  <sodipodi:namedview
     pagecolor="#ffffff"
     bordercolor="#666666"
     borderopacity="1"
     objecttolerance="10"
     gridtolerance="10"
     guidetolerance="10"
     inkscape:pageopacity="0"
     inkscape:pageshadow="2"
     inkscape:window-width="1920"
     inkscape:window-height="1018"
     id="namedview150"
     showgrid="false"
     inkscape:snap-page="true"
     inkscape:zoom="0.6609375"
     inkscape:cx="640"
     inkscape:cy="640"
     inkscape:window-x="-8"
     inkscape:window-y="-8"
     inkscape:window-maximized="1"
     inkscape:current-layer="svg2"
     fit-margin-top="0"
     fit-margin-left="0"
     fit-margin-right="0"
     fit-margin-bottom="0" />
  <rect
     style="fill:#3e3e3e;fill-opacity:1;fill-rule:nonzero;stroke:none"
     id="rect3160"
     width="1024"
     height="1024"
     x="0"
     y="0" />
  <path
     d="M 0,0 0.24,0 C 0.18,0 0.06,0.02 0,0.02 L 0,0 z"
     id="path4"
     inkscape:connector-curvature="0"
     style="fill:#3e3e3e" />
  <path
     d="m 0.24,0 18.04,0 c 5.8,15.46 12.1,30.8 21.16,44.7 11.34,20.38 27.4,37.84 37,59.24 13.32,27.8 30.1,53.68 45.28,80.46 10.16,16.32 20.14,32.76 31.82,48.04 6.32,8.12 10.9,17.34 15.78,26.32 7.68,14.34 21.38,24.84 26.28,40.76 -12.6,-4.5 -18.72,-16.8 -26.2,-26.86 C 119.42,204.66 79.28,130.2 31.38,60.8 20.22,43.9 10.4,26.18 0,8.82 L 0,0.02 C 0.06,0.02 0.18,0 0.24,0 z"
     id="path6"
     inkscape:connector-curvature="0"
     style="fill:#f5e5c1" />
  <path
     d="m 237.56,0 8.42,0 c 26.34,37.88 47.2,79.14 72.48,117.7 15.04,22.9 30.26,46.76 34.52,74.36 -6.94,-4.46 -10.12,-12.28 -13.94,-19.2 C 327.44,150.5 312.26,130.3 299.4,108.7 277.12,73.42 258.7,35.94 237.56,0 z"
     id="path14"
     inkscape:connector-curvature="0"
     style="fill:#f5e5c1" />
  <path
     d="m 326.24,0 8.96,0 c 12.36,19.7 25.94,38.62 38.78,58.02 19.5,31.76 38.9,63.6 58.28,95.44 11.74,21.76 22.76,43.92 34.5,65.7 12.24,21.06 24.52,42.1 36.84,63.1 13.78,22.24 27.88,44.28 41.66,66.52 17.68,29.66 33.74,60.28 52.72,89.16 9.8,16.14 20.58,31.74 29.66,48.32 -15.84,-22.74 -32.32,-45.04 -47.92,-67.94 -9.44,-15.3 -18.7,-30.7 -28.02,-46.08 -21.22,-35.76 -45.46,-69.64 -66.34,-105.6 -8.48,-14.18 -17.04,-28.3 -25.42,-42.54 -15.64,-27.84 -29,-56.98 -46.1,-84 C 396.98,112.84 380.82,85.16 363.92,57.9 351.02,38.84 338.34,19.6 326.24,0 z"
     id="path16"
     inkscape:connector-curvature="0"
     style="fill:#f5e5c1" />
  <path
     style="fill:#f5e5c1"
     d="m 571.9,0 c 32.98,52.86 67.27,104.89 100.75,157.45 32.26,50.4 64.69,100.75 96.65,151.35 12.56,20.78 24.67,41.82 37.05,62.7 35.12,56.4 72.35,111.51 105.25,169.25 10.16,18.02 22.18,34.91 33.3,52.35 11.22,17.82 24.75,34.03 36.15,51.75 15.14,20.86 27.09,43.84 42.95,64.2 l 0,-92.15 c -14.36,3.06 -28.2,8.48 -40.5,16.5 -21.56,-28.62 -40.82,-58.87 -59.6,-89.35 -18.34,-32.58 -37.51,-64.68 -57.75,-96.1 -5.4,-9.94 -14.05,-18.45 -16.05,-29.95 -1.38,-9.08 -7.64,-16.1 -12.8,-23.3 -4.8,-6.4 -8.46,-13.85 -14.8,-18.95 3.8325,6.58 8.02472,12.94821 11.35,19.8 0.47504,0.97883 0.91499,2 1.35,3 -8.28,-11.96 -14.7,-25.19 -24,-36.45 0.74,0.32 2.26,0.98 3,1.3 2.7,4.16 5.54,8.23 8.3,12.35 -1.26,-8.64 -0.76,-18.46 -7,-25.4 -6.1,-5.86 -14.1,-9.54 -19.4,-16.3 -6.9,-8.84 -11.6,-19.11 -17.6,-28.55 C 713.88,203.16 647.94,101.66 582.3,0 l -10.4,0 z"
     id="path18"
     inkscape:connector-curvature="0" />
  <path
     d="m 825.02,0 19.28,0 c 7.96,12.6 15.38,25.54 23.48,38.04 25.2,36.62 52.96,71.38 78.54,107.72 11.58,17.72 23.04,35.5 35.16,52.86 14.3,21.46 27.42,43.7 42.52,64.62 l 0,23.68 c -16.96,-22.16 -33.7,-44.52 -48.54,-68.18 -14.6,-21.48 -29.22,-42.92 -43.4,-64.66 -25.7,-35.58 -53,-70 -77.9,-106.14 C 844.04,32.2 834.4,16.18 825.02,0 z"
     id="path22"
     inkscape:connector-curvature="0"
     style="fill:#f5e5c1" />
  <path
     d="m 816.84,145.88 c 4.06,3.02 7.76,6.5 10.88,10.48 25.58,30.7 43.04,67.04 67.3,98.68 18.28,23.66 31.2,50.9 49.3,74.7 29.32,39.1 53.66,81.58 79.68,122.86 l 0,19.96 c -7.08,-12.34 -15.12,-24.1 -22.46,-36.28 -21.02,-32.8 -40.52,-66.66 -64.1,-97.74 -18.38,-23.6 -31.24,-50.9 -49.24,-74.74 -6.96,-9.78 -14.38,-19.24 -20.62,-29.5 -12.36,-20.32 -25.18,-40.4 -36.3,-61.44 -4.82,-9 -10.8,-17.4 -14.44,-26.98 z"
     id="path26"
     inkscape:connector-curvature="0"
     style="fill:#f5e5c1" />
  <path
     style="fill:#f5e5c1"
     d="m 574.3,200.15 c 4.08,8.68 10.94,15.59 15.9,23.75 16.14,25.14 32.38,50.21 49.3,74.85 15.2,24.24 35.68,44.49 52,67.95 24.38,31.9 46.2,65.66 70,98 28.1,39.16 56.93,77.85 84.15,117.65 5.14,6.3 11.06,12.17 13.8,20.05 -0.7,4.82 -0.64,9.71 -0.2,14.55 8.22,0.2 16.48,0.55 24.7,-0.05 16.08,-2.04 33.08,-1.7 47.4,-10.4 1,-5.86 2.29,-12.76 -2.45,-17.4 -4.98,-6.44 -13.79,-5.29 -20.95,-5.85 -16.9,-1.8 -33.84,0.38 -50.6,2.4 -0.02,1.8 -0.08,5.38 -0.1,7.2 -4.38,-4.54 -8.77,-10.21 -8.45,-16.85 0.24,-11.32 0.51,-22.63 0.55,-33.95 l -3.55,1.9 c -2.78,6.74 -5.22,13.65 -7.3,20.65 -0.08,-8.98 3.37,-18.14 9.75,-24.5 0.56,-3.66 1.38,-7.26 2.8,-10.7 5.32,-14.72 4.19,-30.64 3.75,-46 -1.24,-1.72 -2.48,-3.4 -3.7,-5.1 -8,14.3 -30.03,22.16 -42.75,9.4 -9.22,-6.88 -8,-19.04 -8,-29.2 -11.34,-3.6 -23,-0.52 -34.5,-0.6 -3.8,-5.96 -7.7,-11.86 -11.7,-17.7 2.0325,1.78499 3.90317,3.73347 5.55,5.85 0.54894,0.70434 1.05187,1.41062 1.55,2.15 0.5123,0.75872 0.9953,1.50522 1.45,2.3 0.44333,0.77371 0.81547,1.54266 1.2,2.35 0.78171,1.63504 1.43365,3.28325 1.95,5.05 8.72,-8.38 22.02,-4.52 32.9,-4.9 0.4,1.38 1.2,4.12 1.6,5.5 1.48,-5.88 5.63,-10.29 9.35,-14.85 -3.5,2.74 -6.49,6.03 -9.75,9.05 0.76,-5.38 2.68,-12.42 9.1,-13.2 10.98,-0.82 22.59,-2.35 33.05,2.05 1.64,1.8 3.44,3.42 5.4,4.9 -4.88,-8.74 -8.55,-18.6 -16.45,-25.2 -7.8,-6.16 -18.22,-3.99 -27.2,-6.85 -4.48,-1.46 -11.42,-0.98 -13,-6.6 0.58,-3.18 1.73,-6.17 2.65,-9.25 10.32,1.64 21.4,3.04 30.4,8.7 -9.3,-16.84 -19.21,-33.51 -30.25,-49.25 -9.54,-5.74 -21.27,-2.8 -31.75,-2.5 -8.92,0.42 -17.22,-3.2 -25.9,-4.5 -5.32,-1.42 -8.82,3.74 -13.7,4.7 -7.16,2.06 -13.41,6.57 -20.75,7.95 8.06,-5.28 17.24,-8.7 26.6,-10.9 0.74,-0.98 2.21,-2.95 2.95,-3.95 4.26,0.26 8.57,0.55 12.75,1.55 15.04,3.66 30.76,3.93 46.1,2.15 -4.2,-7.14 -8.07,-14.75 -13.95,-20.65 -17.68,0.02 -35.16,4.6 -51.6,10.8 -9.38,5.24 -18.03,11.77 -25.45,19.55 -12.88,-19.18 -28.82,-36.01 -42.8,-54.35 -21.18,-29.52 -41.28,-59.79 -63.2,-88.75 -5.86,-6.58 -10.63,-14.81 -18.65,-18.95 z m 187.25,198.1 c 3.34578,-0.0421 5.5675,3.1725 7.65,5.5 -3.3,9.8 -12.44,18.07 -23.3,16.95 -8.24,0.6 -10.58,-9.14 -15.1,-14.2 9.7,-2.78 19.17,-6.75 29.25,-8.05 0.5275,-0.1525 1.02203,-0.19398 1.5,-0.2 z m 28.85,72.95 c 1.34,1.48 2.39,3.16 3.15,5 5.08,12.8 12.95,24.23 20.95,35.35 1.24,4.68 1.72,9.61 -2.5,12.85 -1.28,-1.86 -2.55,-3.72 -3.75,-5.6 1.78,-2.52 3.91,-5.63 1.25,-8.45 -7.1,-12.52 -18.14,-24.15 -19.1,-39.15 z m 131.3,121.7 c 0.86875,-0.0309 1.72499,-0.0275 2.6,0 -20.24,6.36 -41.72,4.92 -62.6,4 13.98,-0.8 28.05,0.53 41.95,-1.55 6.02,-0.73501 11.96875,-2.23371 18.05,-2.45 z"
     id="path28"
     inkscape:connector-curvature="0" />
  <path
     d="m 50.72,207.04 c 11.5,-0.34 17.68,10.82 23.46,18.98 22.2,28.56 39.44,60.48 59.26,90.68 18.08,27.62 33.88,56.6 51.12,84.76 18.76,31.38 37.7,62.66 56.62,93.96 1.32,2.2 2.66,4.4 4,6.62 8.4,13.86 16.9,27.7 25.14,41.68 1.76,3.02 4.28,5.46 6.58,8.06 10.98,22.56 26.72,42.44 39.24,64.16 15.3,26.24 32.04,51.6 49.12,76.74 13.12,18.92 25.62,38.28 38.52,57.36 2.64,4 6.14,8.02 4.9,13.22 -2.24,-1.78 -4.5,-3.58 -6,-6.06 -7.94,-11.96 -15,-24.56 -24.22,-35.62 -22.04,-27.08 -42.9,-55.24 -60.9,-85.18 -18.8,-32.06 -40.34,-62.4 -59.22,-94.38 -19.72,-32.36 -39.24,-64.84 -58.92,-97.22 -18.08,-28.86 -36,-57.8 -53.18,-87.22 -13.78,-23.92 -29.58,-46.6 -43.6,-70.36 -10.88,-18.24 -22,-36.34 -33.94,-53.9 -5.48,-9.12 -10.52,-18.58 -17.98,-26.28 z"
     id="path30"
     inkscape:connector-curvature="0"
     style="fill:#f5e5c1" />
  <path
     d="m 0,352.6 c 25.54,49.54 49.1,100.04 73.06,150.34 25.7,57.72 53.42,114.5 80.42,171.62 8.94,17.44 18.9,34.34 28.32,51.54 0.48,0.9 1.46,2.68 1.94,3.58 18.48,35.64 37.68,70.9 58.42,105.3 8.36,14.64 16.32,29.6 25.94,43.5 3.78,4.96 7.26,10.14 10.28,15.6 0.6,0.34 1.76,1 2.34,1.32 -0.62,1.38 -1.86,4.12 -2.46,5.5 C 266.3,882.5 254.88,863.72 241.54,846.26 229.1,830.36 219.28,812.68 208.44,795.7 201.02,784.08 194.98,771.68 188.36,759.62 170.28,725.16 149.54,692.1 133.56,656.56 117,621.18 99.74,586.12 83.58,550.54 66.12,510.44 47.32,470.94 28.84,431.3 19.48,410.98 10.2,390.6 0,370.68 L 0,352.6 z"
     id="path32"
     inkscape:connector-curvature="0"
     style="fill:#f5e5c1" />
  <path
     d="m 680.15,370.95 c -0.67398,0.0185 -1.39626,0.22501 -2.15,0.6 -12.78,4.58 -18.77,17.71 -27.45,27.15 -4.94,5.6 -12.49,10.67 -11.75,19.15 0.06,21.02 6.69,41.51 6.05,62.65 -6.32,-0.18 -12.18,1.97 -17.2,5.75 -1.96,7.76 -4.09,15.89 -1.75,23.85 4,15.32 4.24,31.8 11.9,46 3.4,6.68 13.5,6.64 15.7,14.2 4.92,12.06 8.57,24.67 9.25,37.75 3.6,17.1 8.33,34.2 8.75,51.8 1.58,12.66 1.42,25.43 2,38.15 0.68,14.32 9.5,26.11 16.1,38.25 3.5,5.7 5.91,12.53 11.65,16.45 7.06,4.9 15.3,7.72 23.5,10.1 4.3,1.16 8.66,3.16 13.2,2 14.68,-2.66 28.96,-7.71 41.9,-15.15 6.6,-3.84 10.53,-10.63 15.55,-16.15 15.24,-16.88 29.7,-34.59 41.7,-53.95 -8.3,5.54 -15.51,13.3 -25.25,16.3 -15.84,2.34 -31.88,3.73 -47.9,3.35 -8.4,0.88 -15.09,-5.04 -22.35,-8.2 -12.28,-7.58 -23.04,-17.28 -34.8,-25.6 -11.84,-8.34 -20.38,-20.26 -28.7,-31.9 -1.1,-0.2 -3.3,-0.63 -4.4,-0.85 -5.96,-14.68 -6.27,-30.67 -9.75,-45.95 -2.26,-11.46 -0.42,-23.23 -2.3,-34.75 -1.26,-20.34 0.17,-41.28 -5.95,-61 -1.58,-5.92 -5.66,-10.52 -10.2,-14.4 2.98,-4.7 6.1,-9.39 9.7,-13.65 -0.18,2.26 -0.57,6.79 -0.75,9.05 6.08,-1.24 12.16,-2.55 18.3,-3.55 3.44,-6.98 3.41,-14.86 4.25,-22.4 0.68,-6.9 4.46,-13.01 5.8,-19.75 3.36,-16.76 1.75,-34 4.85,-50.8 -2.3075,-1.75499 -4.57938,-4.58024 -7.5,-4.5 z m -42.3,119.8 c 5.05531,-0.15613 10.0375,2.0875 12.75,6.55 0.92,11.48 -0.58,23.1 1.6,34.5 0.9,8.72 0.32,17.54 0.4,26.3 -2.38,-7.82 -0.7,-16.1 -1.7,-24.1 -1.48,-11.32 -2.55,-22.73 -4.75,-33.95 -1.1,-3.6 -5.29,-4.17 -8.15,-5.75 -0.7,1.24 -2.13,3.74 -2.85,5 -0.02,4.3 -0.17,8.6 -0.45,12.9 -7.3,-5.34 -0.52,-14.61 1,-21.25 0.7175,-0.12 1.42781,-0.1777 2.15,-0.2 z"
     id="path36"
     style="fill:#f5e5c1"
     inkscape:connector-curvature="0" />
  <path
     d="m 687.1,418.16 c -0.44,-13.34 -1.5,-27.02 1.8,-40.1 9.74,12.14 19.82,24.18 27.6,37.72 -10.32,9.12 -21.1,20.12 -22,34.66 3.9,-1.7 4.72,-6.2 6.82,-9.5 3.56,-6.08 7.96,-11.74 13.12,-16.56 1.92,-2.56 5.18,-1.42 7.88,-1.48 3.7,5.32 7.66,10.46 11.72,15.52 -11.36,3.56 -20.42,12.66 -23.48,24.22 -6.76,-0.04 -13.66,-0.78 -20.3,0.66 -4.94,1.7 -9.94,3.3 -15.16,3.8 3.32,-9.4 1.24,-19.8 4.98,-29.14 1.88,-6.78 7.2,-12.5 7.02,-19.8 z"
     id="path38"
     inkscape:connector-curvature="0"
     style="fill:#f5e5c1" />
  <path
     d="m 727.82,445.46 c 3.04,-0.94 6.06,-2.46 9.34,-2.36 2.98,2.5 4.7,6.08 6.6,9.4 -2.86,0.04 -5.68,0.1 -8.52,0.14 -2.5,-2.36 -4.98,-4.74 -7.42,-7.18 z"
     id="path44"
     inkscape:connector-curvature="0"
     style="fill:#f5e5c1" />
  <path
     d="m 835,453.24 c -3.52,-3.64 -7.7,-7.22 -8.62,-12.48 9.14,0.68 17.74,6.06 20.76,15 8.5,16.32 -10.06,36.88 -27.22,32.3 -6.26,-2.44 -12.22,-7.34 -13.66,-14.2 -1.54,-5.04 -0.36,-10.32 0.34,-15.38 9.92,0.26 19.88,0.78 29.8,0.24 3.04,-1.3 -0.2,-4.26 -1.4,-5.48 z"
     id="path46"
     inkscape:connector-curvature="0"
     style="fill:#f5e5c1" />
  <path
     d="m 815.78,445.76 c 1.1,-0.8 3.28,-2.36 4.38,-3.14 2.64,3.6 5.4,7.1 8.16,10.6 -2.38,-0.02 -4.76,-0.04 -7.12,-0.04 -1.78,-2.52 -3.6,-4.98 -5.42,-7.42 z"
     id="path48"
     inkscape:connector-curvature="0"
     style="fill:#f5e5c1" />
  <path
     d="m 333.34,454.9 c 13.9,-3.72 28.38,-2.54 42.58,-2.74 7.02,0.12 14.14,-0.6 21.06,0.82 1.8,2.06 3.24,4.4 4.76,6.68 -14.4,-2.92 -29.06,-5.28 -43.8,-3.78 -21.02,2.18 -42.02,6.38 -61.62,14.46 -19.46,5.66 -37.74,16.38 -51.14,31.7 -1.34,-2.22 -2.68,-4.42 -4,-6.62 6.4,-6.5 13.6,-12.18 21.32,-17.06 9.54,-6.74 21.8,-6.74 32.06,-11.96 12.26,-5.84 25.54,-8.82 38.78,-11.5 z"
     id="path50"
     inkscape:connector-curvature="0"
     style="fill:#f4722b" />
  <path
     d="m 715.66,471.98 c -0.9,-5.12 0.8,-10.22 1.5,-15.26 10.18,1.86 20.48,-0.02 30.72,0.4 3.74,5.82 8.48,10.96 11.82,17.04 0.18,4.58 -3.58,7.84 -6.88,10.38 -6.98,4.28 -15.8,8.44 -23.72,3.98 -5.98,-3.9 -11.5,-9.5 -13.44,-16.54 z"
     id="path54"
     inkscape:connector-curvature="0"
     style="fill:#f5e5c1" />
  <path
     d="m 424.06,461.1 c 14.58,11.96 32.2,19.88 45.4,33.58 10.82,9.18 16.54,22.44 22.5,34.96 4.22,8.76 5.66,18.48 9.3,27.46 3.7,9.58 6.92,20.26 3.1,30.36 -1.54,-3.3 -3.06,-6.6 -3.92,-10.14 -4.36,-19.44 -13,-37.62 -22.84,-54.84 -4.74,-8.06 -5.9,-18.5 -13.68,-24.5 -10.9,-9.22 -23.1,-16.74 -33.98,-25.96 -2.04,-3.6 -3.9,-7.3 -5.88,-10.92 z"
     id="path56"
     inkscape:connector-curvature="0"
     style="fill:#f4722b" />
  <path
     style="fill:#f5e5c1"
     d="m 697.75,467.75 c -8.33987,0.18803 -16.59563,1.75062 -24.3,5.15 -0.54,8.7 -4.2,16.69 -5.9,25.15 -0.8,8.28 2.11,16.58 6.35,23.6 6,9.06 20.1,7.14 25.6,16.7 7.2,16 0.93,33.44 0.45,50 1.44,-3.04 2.45,-6.22 3.45,-9.4 6.7,-7.82 16.63,-11 24.75,-16.8 11.84,-12.26 24.91,-24.92 41.65,-29.9 -14.36,5.36 -27.06,14.93 -37.3,26.25 -7.5,9.1 -20.47,10.77 -27.85,20.15 -0.7,4.46 -1.9,8.82 -3.6,13 -1.16,7.6 -0.4,15.39 -2.1,22.95 0.48,-12.2 -0.46,-24.44 0.6,-36.6 2.3,-12.04 3.35,-24.73 -0.05,-36.65 -3.56,-11.38 -18.43,-9.42 -25.25,-17.6 -7.26,-9.76 -9.61,-22.82 -6.15,-34.5 1.74,-5.54 3.38,-11.12 4.5,-16.8 -7.26,1.14 -14.46,2.82 -21.5,4.9 1.96,2.08 3.95,4.19 5.95,6.25 5.4,21.72 6.11,44.22 6.35,66.5 2.04,20.3 4.95,40.55 7.85,60.75 1.68,11.38 7.03,22.36 15.75,30 12.68,11.5 24.57,24.06 38.95,33.5 7.22,4.82 14.61,9.28 21.85,14.1 9.34,6.26 21.27,7.13 32.15,5.55 10.3,-1.68 21.06,1 31.1,-2.4 12.7,-5.18 21.53,-16.32 29.45,-27 5.46,-7.6 7.22,-16.98 10.4,-25.6 2.22,6.12 4,12.46 4.4,19 0.68,9.14 3.02,18.34 1.6,27.5 -0.74,0.68 -2.21,2.04 -2.95,2.7 -2.8,19.06 -15.49,34.26 -22.35,51.8 -4.8,11.48 -12.31,21.56 -17.25,33 -9.3,21.3 -23.46,39.94 -34.3,60.4 16.56,5.78 33.04,11.81 49.7,17.35 3.32,10.94 6.2,21.99 9.1,33.05 36.72,17.88 73.65,35.35 110.45,53.05 -0.76,-9.62 -1.89,-19.19 -1.95,-28.85 0.62,-8.96 -7.15,-14.94 -11.85,-21.6 -12.08,-13.64 -21.58,-29.25 -32.1,-44.05 -4.3,-6.58 -10,-12.76 -10.9,-20.9 3.78,2.84 7.03,6.31 9.95,10.05 41.5,51 83.11,102.02 121.55,155.4 l 0,-138.6 c -5.92,-9.04 -12.96,-17.25 -19.2,-26.05 -1.02,2.56 -2.02,5.14 -3,7.7 -14.84,-1.42 -29.06,-7.2 -44,-7.2 -7.96,-0.68 -12.68,7.49 -14.7,14.05 0.08,7.68 2.94,15 3.9,22.6 2.68,-1.64 5.34,-4.2 8.7,-2.6 13.58,3.5 27.2,6.88 40.8,10.3 -0.56,15.84 5.73,31.08 3.85,46.9 -0.14,6.54 0.11,13.09 0.05,19.65 -17.8,-21.78 -34.85,-44.18 -52.35,-66.2 -3.72,-4.42 -6.12,-9.8 -6.9,-15.5 -4.44,-24.12 -10.92,-47.78 -16.2,-71.7 -5.06,-20.52 -14.17,-39.7 -20.25,-59.9 -5.5,-16 -14.32,-30.58 -21.2,-46 -6.58,-14.82 -20.59,-23.9 -30.45,-36.3 -0.98,-14.1 -3.81,-27.97 -4.85,-42.05 0.1,-5.32 -3.66,-9.25 -6.8,-13.05 -0.42,5.18 -0.44,10.38 -0.3,15.6 -1.28,-6.68 -1.43,-13.73 -4.05,-20.05 -3.72,-6 -9.2,-10.66 -13.5,-16.2 -8.16,-10.26 -16.09,-20.72 -23.55,-31.5 -9.26,2.02 -19.23,3.71 -28.35,0.35 -10.42,-1.04 -20.74,-3.02 -31.1,-4.5 0.78,-8.12 4.22,-15.55 7.4,-22.95 3.62,-0.02 7.21,-0.05 10.85,-0.05 -0.64,-4.64 0.92,-8.71 4.4,-11.75 -0.56,1.92 -1.14,3.88 -1.7,5.8 -0.34,2.2 -0.72,4.39 -1.2,6.55 -3.64,0.5 -7.36,0.4 -11,0.5 -2.34,6.82 -4.37,13.75 -5.25,20.95 8.24,-1.12 15.6,-5.3 23.6,-7.1 6.28,1.06 7.59,8.62 11.25,12.9 5.74,-1.16 11.49,-2.33 17.25,-3.45 -1.5,-3.74 -3.18,-7.45 -5.5,-10.75 -8.9,-12.76 -17.45,-25.74 -26.65,-38.3 -6.44,8.94 -16.68,15.67 -27.9,15.85 -8.62,-0.18 -14.92,-6.69 -20.9,-12.05 -4.4,-3.42 -3.83,-9.36 -4.35,-14.3 -3.15,-0.42 -6.32032,-0.67531 -9.5,-0.75 -1.19238,-0.028 -2.40859,-0.0269 -3.6,0 z m 80.7,105.05 c 2.52949,-0.0789 5.02501,0.41875 7.45,1.85 10.42,-0.16 21.1,0.5 30.9,4.2 5.76,4.88 10.54,10.85 15.9,16.15 2.04,2 4.98,7.29 0.6,8.45 -6.68,-2.5 -13.77,-3.01 -20.75,-4.15 -10.04,-1.38 -20.25,-2.46 -30.35,-1 -12.04,2.02 -24.48,-1.16 -36.3,2.5 -7.04,2.54 -15.23,2.91 -21.05,7.95 -1.14,0.16 -3.38,0.46 -4.5,0.6 4.3,-5.96 10.26,-10.42 15.5,-15.5 7.94,-6.56 15.33,-15.02 25.95,-17 5.39,-1.04499 11.08512,-3.87646 16.65,-4.05 z m 23.95,51.85 c -6.4,2.38 -12.96,4.38 -19.4,6.6 -0.84,-1.26 -1.66,-2.51 -2.5,-3.75 7.3,-1.04 14.5,-2.75 21.9,-2.85 z"
     id="path58"
     inkscape:connector-curvature="0" />
  <path
     d="m 856.9,478.6 c 5.9,-0.34 11.78,3.28 12.94,9.28 2.08,17.52 -1.38,35.08 -5.76,52 -2.58,9.08 -1.88,20.78 -10.96,26.4 0.44,-10.76 -1.24,-21.64 0.36,-32.32 3.08,-6.94 6.16,-14.16 4.78,-21.94 0.28,-3.96 0.48,-7.92 0.52,-11.86 0.92,1 2.76,3.04 3.66,4.06 2.24,-5.1 0.72,-10.46 -3.48,-13.94 -0.72,-3.9 -1.44,-7.78 -2.06,-11.68 z"
     id="path62"
     inkscape:connector-curvature="0"
     style="fill:#f5e5c1" />
  <path
     style="fill:#f4722b"
     d="m 231.15,514.55 c -4.02,9.82 -10.62,18.34 -14.2,28.4 -11.18,23.66 -14.5,50.4 -12.1,76.3 1.36,0.18 4.09,0.52 5.45,0.7 -0.5,4.6 -1.1,9.23 -1.6,13.85 -1.94,12.98 4.24,25.28 4.9,38.1 -0.8,9.44 -4.15,18.6 -3.65,28.2 0.3,8.12 -0.79,16.56 1.35,24.5 4.88,8.72 12.24,15.8 17.3,24.4 2.76,8.12 4.04,16.69 5.9,25.05 5.46,-4.5 12.16,-6.79 18.9,-8.55 -2.66,-6.36 -14.74,-6.81 -12.1,-15.05 1.7,-7.8 4.66,-15.29 6.1,-23.15 3.94,-3.36 7.88,-6.73 11.7,-10.25 0.04,-13.66 7.09,-25.81 9.25,-39.05 -1.3,0.2 -3.9,0.62 -5.2,0.8 -7.14,9.28 -17.19,16.14 -22.95,26.4 5.58,-12.28 15.04,-23.39 27.6,-28.85 3.16,-1.44 3.16,-5.45 4.4,-8.25 -9.48,0.04 -18.68,3.04 -28.2,2.2 -5.4,-0.3 -10.82,-0.05 -16.2,0.45 5.02,-8.16 10.78,-15.86 18.6,-21.5 7.16,1.36 13.78,4.42 19.9,8.3 1.28,2.72 2.6,5.4 3.9,8.1 2.98,-2.16 5.38,-5.02 5.3,-8.9 0.98,-16.2 -3.72,-32.49 -0.8,-48.65 5.7,8.82 3.95,19.96 5.25,29.9 1.52,15.22 -5.6,28.99 -8.8,43.45 -3.26,12.14 -9.61,23.68 -8.75,36.6 -10.96,7.9 -17.38,21.78 -15.8,35.2 4.64,3.72 10.41,5.47 15.45,8.55 5.52,3.06 9.85,7.74 14.95,11.4 5.64,2.22 13,1.04 15.2,-5.3 6.7,-3.42 12.92,-8.09 20.3,-9.95 6.58,-1.72 12.96,1.47 19.5,1.65 4.64,0.22 9.24,-0.72 13.7,-1.9 0.12,-5.16 0.42,-10.31 0.1,-15.45 -0.3,-5.56 -3.04,-10.73 -2.5,-16.35 7.06,8.04 8.82,19.69 6.8,29.95 -0.84,3.76 -5.03,5.74 -5.75,9.5 9.3,4.68 21.38,3.53 29.4,11.05 2.9,2.68 6.67,4.04 10.05,6 13.64,14.44 19.31,34.32 21.35,53.7 0.6,-21.66 3.89,-43.73 1.65,-65.15 -20.54,-26.76 -40.64,-53.89 -61.2,-80.65 -3.72,-4.44 -9.81,-5.78 -13.85,-9.9 -5.62,-4.62 -7.42,-11.88 -10.3,-18.2 -5.02,-12.08 -13.89,-21.9 -20.25,-33.2 -16.7,-23.44 -30.25,-48.92 -46.15,-72.9 -6.6,2.24 -13.19,4.6 -19.65,7.2 -5.78,1.76 -8.77,7.34 -12.55,11.6 -7.68,7.94 -7.19,19.76 -9.95,29.8 l -1.2,0.05 c 0.14,-26.74 7.45,-53.33 20.85,-76.45 3.04,-4.4 -0.16,-9.35 -1.4,-13.75 z m 38.65,70.7 c 0.86,2.84 2.84,4.29 5.9,4.45 -0.82,3.54 -1.84,7.06 -3.1,10.5 -4.86,0 -8.86,2.74 -12.7,5.4 -1.94,-0.44 -3.92,-0.78 -5.9,-1 -5.52,4.06 -12.07,6.13 -17.85,9.75 -9.34,0.56 -14.73,9.77 -23.45,12.25 0.62,-7.18 7.16,-11.5 12.3,-15.6 13.8,-10.54 30.22,-16.49 44.8,-25.75 z m -36.2,42.05 c 4.99024,-0.0924 10.1,2.0625 14.1,5.1 4.12,3.44 11.94,3.88 11.5,10.7 -6.52,-1.68 -11.84,-5.79 -17.6,-9.05 -5.04,-2.88 -11.04,-2.86 -16.6,-3.9 2.62499,-1.95 5.60586,-2.79458 8.6,-2.85 z m 0.35,8.1 c 1.35501,0.0337 2.67499,0.42 3.95,1.15 -2.54,-0.04 -5.08,-0.13 -7.6,-0.25 -4.46,8.24 -5.48,17.54 -8,26.4 -0.7,0.64 -2.13,1.96 -2.85,2.6 0.18,-7.98 2.11,-15.83 4.95,-23.25 1.45501,-3.96 5.48499,-6.75125 9.55,-6.65 z m 103.1,87.15 c 2.07867,-0.0284 3.66501,3.3125 1.95,4.8 -2.42,1.16 -4.95,-2.87 -2.85,-4.55 0.31,-0.1575 0.60304,-0.24594 0.9,-0.25 z"
     id="path66"
     inkscape:connector-curvature="0" />
  <path
     d="m 413.24,522.2 c 10.5,-0.92 18.28,7.22 26.74,12.02 6.12,3.42 9.46,9.8 12.08,16.02 -7.4,-4.56 -13.34,-10.96 -20.24,-16.16 -5.82,-4.54 -12.6,-7.58 -18.58,-11.88 z"
     id="path68"
     inkscape:connector-curvature="0"
     style="fill:#f4722b" />
  <path
     d="m 289.5,545.9 c 14.06,-1.82 28.52,-5.58 42.56,-1.66 11.66,1.98 23.36,4.22 34.14,9.3 11.46,5.18 24.52,7.58 34.16,16.12 20.6,16.18 41.22,32.4 62.36,47.84 0.64,12.52 0.22,25.2 2.62,37.6 -10.44,-0.44 -20.86,1.4 -31.28,0.56 -3.98,0.1 -5.26,-4.12 -6.74,-6.98 -2.92,-7.32 -9.58,-12.02 -14.92,-17.46 -3.18,0.04 -6.14,-1.04 -9.12,-1.94 -3.22,-9.36 -14.42,-12.02 -22.9,-14.72 -15.54,-5.92 -32.36,-2.46 -48.36,-0.86 -4.94,-0.06 -6.9,4.9 -9.46,8.2 0.08,-1.32 0.24,-3.96 0.32,-5.26 -6.16,-4.04 -8.38,-11.46 -11.92,-17.54 -7.9,-17.36 -19.68,-33.68 -21.46,-53.2 z"
     id="path70"
     inkscape:connector-curvature="0"
     style="fill:#f4722b" />
  <path
     d="m 489.24,573.62 c 9.18,8.44 19.66,16.32 25.18,27.84 3.24,8.78 2.7,18.38 3.2,27.6 -1.62,-2.74 -3.22,-5.46 -4.78,-8.22 1.36,-9.28 -1.96,-18.7 -8.34,-25.48 -6.08,-6.5 -11.74,-13.48 -15.26,-21.74 z"
     id="path74"
     inkscape:connector-curvature="0"
     style="fill:#f4722b" />
  <path
     d="m 771.28,578.62 c 11.52,-3.16 23.82,-1.94 35.24,1.06 -6.08,1.08 -12.28,0.6 -18.4,0.7 -5.64,-0.08 -11.58,0.78 -16.84,-1.76 z"
     id="path76"
     inkscape:connector-curvature="0"
     style="fill:#f5e5c1" />
  <path
     d="m 761.56,587.5 c 15.46,0.32 30.84,-2.08 46.32,-1.76 5.24,-0.1 10.22,1.68 15,3.64 0.16,2.14 0.44,6.38 0.58,8.5 -21.12,-1.86 -42.32,-1.4 -63.48,-0.78 -5.76,0.36 -11.36,1.8 -17.02,2.64 0.02,-1.62 0.06,-4.84 0.08,-6.46 4.4,-1.8 9,-3.32 13.84,-2.82 1.56,-0.98 3.12,-1.96 4.68,-2.96 z"
     id="path82"
     inkscape:connector-curvature="0"
     style="fill:#f5e5c1" />
  <path
     d="m 908.04,618.36 c 8.6,-1.64 17.42,-2.16 25.72,-5.24 10.08,-3.88 17.7,10.76 11.76,18.44 -5.04,6.68 -13.9,7.42 -21.6,7.18 -17.92,2.8 -36.08,3.7 -54.2,4.48 -2.9,-3.26 -6.36,-6.1 -8.6,-9.84 -1.16,-4.12 -1.5,-8.42 -2.08,-12.62 10.36,-0.16 20.74,0.46 31.08,-0.34 5.88,-1.34 11.92,-1.44 17.92,-2.06 z"
     id="path86"
     inkscape:connector-curvature="0"
     style="fill:#f5e5c1" />
  <path
     d="m 510.48,626.92 c 2.12,3.18 4.42,6.22 6.6,9.38 0,4.12 -0.86,8.18 -1.96,12.16 3.4,1.3 6.8,2.6 10.22,3.9 1.46,6.48 4.16,13.12 2.44,19.82 -3.8,17.94 -9.28,35.56 -11.36,53.82 -1.1,9 -2.24,18.02 -3.44,27.02 -6.96,5.64 -13.96,11.2 -20.8,16.98 -0.3,1.7 -0.92,5.12 -1.24,6.82 -2.44,-6.68 -3.44,-13.78 -3.08,-20.88 0.76,-19.6 -0.84,-39.3 1.78,-58.78 2.36,-15.58 3.82,-31.32 6.68,-46.8 3.94,-2.52 8.48,-3.78 12.88,-5.26 0.46,-6.06 1.08,-12.12 1.28,-18.18 z"
     id="path92"
     inkscape:connector-curvature="0"
     style="fill:#f4722b" />
  <path
     d="m 495.2,640.1 c 2.48,1.78 4.94,3.58 7.42,5.42 -2.46,0 -4.94,0 -7.38,0 -0.02,-1.36 -0.04,-4.06 -0.04,-5.42 z"
     id="path96"
     inkscape:connector-curvature="0"
     style="fill:#f4722b" />
  <path
     d="m 600.6,640.55 c -0.34,6.2 3.75,11.15 6.95,16.05 10.3,14.4 22.01,27.91 30.35,43.65 6.5,10.02 13.31,19.92 18.55,30.7 1.02,0.08 3.03,0.22 4.05,0.3 4.12,7.72 5.02,16.85 10.2,24.05 4.46,6.64 8.47,13.64 12.75,20.4 -5.58,-8.08 -9.99,-17.01 -16.95,-24.05 1.76,20.18 9.86,38.95 15,58.35 3.36,-2.34 6.48,-5.02 9.4,-7.9 7.92,2.6 15.76,5.41 23.6,8.25 2.38,-7.54 4.61,-15.09 7.95,-22.25 2.74,-5.66 4.21,-12.38 9.55,-16.3 2.48,2.8 5.38,5.44 6.6,9.1 4.78,13.88 10.4,27.63 12.6,42.25 8.1,2.82 16.01,6.27 24.35,8.25 8.22,-13.08 16.32,-26.32 24.1,-39.7 7.4,-11.1 11.49,-23.96 18.45,-35.3 8.96,-14.44 14.63,-30.58 23.25,-45.2 4.8,-7.94 6.89,-17.14 11.85,-25 0.44,-8.94 -0.54,-17.9 -1.2,-26.8 -3.52,3.64 -3.58,8.96 -5.5,13.4 -16.44,28.44 -38.37,53.1 -60.05,77.6 -3.7,4.32 -9.51,5.44 -14.35,7.9 -11.84,5.94 -24.8,9.68 -38,10.7 -11.86,-1.42 -22.92,-6.22 -33.7,-11.1 -4.58,-1.36 -6.28,-6.22 -8.7,-9.8 -3.48,-6.7 -8.96,-12.02 -13,-18.3 -4.3,-7.8 -7.95,-16.13 -8.95,-25.05 -1.12,-8.88 -3.47,-17.8 -2.25,-26.8 0.68,-6.16 -0.1,-12.36 -0.5,-18.5 -1.96,1.18 -3.88,2.52 -4.8,4.7 -5.38,9.9 -13.98,17.41 -20.8,26.25 -8.96,-11.16 -16.48,-23.42 -25.7,-34.4 -4.78,-5.3 -7.62,-13.41 -15.1,-15.45 z m 65.7,36.9 c -2.48,16.14 -4.24,32.35 -3.4,48.75 -6.44,-10.14 -3.99,-22.56 -3.05,-33.8 1.6,-5.08 1.49,-11.77 6.45,-14.95 z"
     id="path98"
     style="fill:#f5e5c1"
     inkscape:connector-curvature="0" />
  <path
     d="m 904.62,645.08 c 10.68,0.42 21.1,-2.72 31.78,-2.32 0.98,3.26 4.02,5.02 6.2,7.42 1.68,3.1 0.6,6.78 0.72,10.12 -5.76,3.82 -12.88,3.72 -19.36,5.38 -11.16,2.68 -22.64,4.06 -34.12,3.26 -1.94,-3.28 -3.88,-6.54 -5.8,-9.82 15.58,0.58 30.72,-4.88 46.22,-3.96 2.66,-1.68 4.98,-3.78 5.92,-6.88 -7.6,3.48 -15.68,5.88 -24.06,6.32 -9.48,0.4 -18.84,3.3 -28.36,1.92 -4.44,-1.78 -6.96,-6.26 -10.1,-9.62 10.34,-0.46 20.6,-2.02 30.96,-1.82 z"
     id="path100"
     inkscape:connector-curvature="0"
     style="fill:#f5e5c1" />
  <path
     d="m 971.52,649.4 c 12.24,14.36 21.68,30.84 33.54,45.52 6.12,7.94 13.28,15.08 18.94,23.4 l 0,43.06 c -4.8,-3.08 -9.8,-5.8 -14.74,-8.66 -1.24,-6.56 -2.64,-13.1 -3.96,-19.66 -10.92,-5.42 -21.36,-11.76 -31.96,-17.78 0.82,-22.02 -3.92,-43.88 -1.82,-65.88 z"
     id="path102"
     inkscape:connector-curvature="0"
     style="fill:#f5e5c1" />
  <path
     d="m 235.6,665.16 c 1.48,-5.58 6.98,-7.76 11.72,-9.88 -0.1,3.5 -0.16,7 -0.16,10.52 -3.86,-0.22 -7.72,-0.42 -11.56,-0.64 z"
     id="path104"
     inkscape:connector-curvature="0"
     style="fill:#f4722b" />
  <path
     d="m 424.98,672.84 c 12.16,-9.48 28.5,-4.86 42.46,-9.08 2.64,5.8 5.98,11.66 5.62,18.28 0.28,13.76 2.26,27.98 -1.7,41.4 -9.44,3.94 -11.04,15.32 -18.98,21 -9.06,7.02 -19.44,12.18 -28.14,19.74 -2.26,1.24 -4.66,4.9 -7.52,3.18 -4.6,-5.56 -8.1,-11.94 -12.94,-17.32 -12.9,-19.08 -25.4,-38.44 -38.52,-57.36 12.64,0.2 25.5,-1.72 37.14,-6.76 7.62,-4.18 15.18,-8.52 22.58,-13.08 z"
     id="path106"
     inkscape:connector-curvature="0"
     style="fill:#f4722b" />
  <path
     d="m 894.36,672.38 c 2.36,1.6 4.62,3.36 7.2,4.62 9.9,-0.48 19.88,-1.2 29.5,-3.76 3.18,-1.04 6.34,0.52 9.44,1.12 -5.64,6.48 -14.6,7.76 -22.58,9.22 -8.08,-3.22 -17.14,-4.88 -23.56,-11.2 z"
     id="path108"
     inkscape:connector-curvature="0"
     style="fill:#f5e5c1" />
  <path
     d="m 941.88,684.16 c 1.9,-2.68 3.36,-5.84 6.06,-7.82 6.28,-1.22 12.72,-0.48 19.04,-0.1 -0.4,12.38 0.98,24.7 2.18,37.02 -9.24,-8.4 -21.24,-12.34 -31.76,-18.68 -4.72,-3.16 -11.86,-2.52 -14.86,-8.04 3.64,0.2 6.7,2.52 9.94,4.04 2.3,-3.22 5.96,-4.74 9.4,-6.42 z"
     id="path110"
     inkscape:connector-curvature="0"
     style="fill:#f5e5c1" />
  <path
     d="m 529.7,688.06 65.3,18.88 c 4.02,12.78 9.96,25.46 9.02,39.18 0.22,6.84 -5.16,11.8 -8.68,17.08 -10.96,14.18 -21.56,28.72 -33.8,41.86 -8.06,-6.6 -16.06,-17.58 -27.92,-14.3 1.94,2.32 3.92,4.7 6,6.96 -1.94,-0.28 -5.82,-0.86 -7.76,-1.14 2.52,9.06 10.54,14.4 16,21.5 -5.08,7.92 -11.62,14.96 -18.54,21.32 -3,3.34 -7.5,1.56 -11.18,0.8 -9.6,-2.14 -18.6,-6.52 -28.36,-7.96 -3.24,-0.96 -5.44,2.24 -7.8,3.72 13.18,3.22 26.68,5.16 39.62,9.42 -3.08,25.2 -7.82,50.16 -13.18,74.96 -7.1,34.16 -6.72,69.24 -12.06,103.66 l -259.58,0 c -7.28,-19.14 -7.62,-39.88 -10.92,-59.88 -1.58,-14.68 -3.08,-29.36 -4.76,-44.02 -0.48,-12.4 -4.16,-25.16 0.1,-37.26 3.46,-10.42 7.16,-20.8 11.84,-30.7 5.6,0.36 7.7,7.44 9.46,11.94 3.26,22.6 -3.96,45.6 1.22,68.1 2.08,8.08 0.62,18.36 7.88,24.08 4.72,4.4 10.2,8.24 16.6,9.74 11.1,2.84 22.12,6.88 33.74,6.88 12.06,0.02 24.02,1.78 36.08,1.74 11.66,0.12 22.28,-6.46 30.38,-14.36 13.84,-14.06 27.84,-28.02 42.22,-41.5 16.54,-10.88 35.66,-17.28 52.44,-27.74 7.44,-11.58 14.3,-24.8 14.12,-38.98 -5.64,9.72 -8.6,20.96 -15.14,30.1 -14.18,8.8 -29.14,16.4 -43.92,24.2 8.22,-9.36 15.34,-19.58 22.86,-29.48 10.18,-14.02 23.66,-25.88 29.78,-42.52 9.98,-14.7 15.8,-31.54 20.5,-48.56 -0.64,13.8 -0.08,27.74 -2.74,41.36 2.86,-2.2 5.74,-4.38 8.62,-6.58 -0.82,-13.36 -2.62,-26.88 -0.98,-40.22 4.28,-12.22 17.14,-18.2 25.02,-27.84 -1.34,-10.8 -1.3,-21.68 -1.02,-32.54 -0.02,-11.36 5.54,-21.58 9.54,-31.9 z"
     id="path114"
     inkscape:connector-curvature="0"
     style="fill:#f4722b"
     sodipodi:nodetypes="cccccccccccccccccccccccccccccccccccccccccc" />
  <path
     d="m 631.68,702.56 c 8.64,12 15.28,25.38 24.84,36.72 5.46,6.26 5.04,15.12 7.16,22.76 3.06,17.76 9.96,34.48 14.56,51.84 -4.78,4.36 -9.48,8.78 -14.26,13.12 -15.94,-5.86 -31.74,-12.1 -47.76,-17.74 -0.72,-27.1 -1.02,-54.22 -1.04,-81.32 5.36,-8.56 10.1,-17.5 16.5,-25.38 z"
     id="path116"
     inkscape:connector-curvature="0"
     style="fill:#f5e5c1" />
  <path
     d="m 25.56,704.44 c 2.52,0.54 5.78,-0.06 7.3,2.54 17.02,22.02 27.58,48.18 43.84,70.7 2.14,3.14 4.26,6.28 6.38,9.42 9.62,14.38 19.84,28.42 28.16,43.62 8.34,14.96 15.7,30.5 25.18,44.82 10.3,15.6 21.54,30.56 31.48,46.42 21.46,34.58 43.72,68.66 67,102.04 l -21.14,0 C 182.9,980.48 156.62,933.94 125.72,890.44 111.88,870.74 102.4,848.48 89.98,827.96 79.26,810.84 67.58,794.36 56.56,777.46 49.22,766.14 44.22,753.56 38.3,741.5 33.46,731 26.86,721.36 23.32,710.28 c 0.56,-1.46 1.68,-4.38 2.24,-5.84 z"
     id="path118"
     inkscape:connector-curvature="0"
     style="fill:#f5e5c1" />
  <path
     d="m 181.8,726.1 c 3.32,-1.28 6.64,-2.56 9.98,-3.82 -2.66,2.48 -5.34,4.94 -8.04,7.4 -0.48,-0.9 -1.46,-2.68 -1.94,-3.58 z"
     id="path120"
     inkscape:connector-curvature="0"
     style="fill:#f4722b" />
  <path
     d="m 107.32,759.38 c 18.76,-10.24 37.44,-21.76 58.78,-25.76 -4.94,7.02 -13.62,9.32 -20.42,13.98 -21.5,12.16 -39.8,29.62 -62.6,39.5 -2.12,-3.14 -4.24,-6.28 -6.38,-9.42 9.84,-6.7 20.24,-12.48 30.62,-18.3 z"
     id="path124"
     inkscape:connector-curvature="0"
     style="fill:#f4722b" />
  <path
     d="m 970.48,753.42 c 2.58,2.1 5.04,4.4 7.04,7.12 9.92,13.84 20.74,27.04 29.78,41.5 0.06,-13.92 -0.5,-27.82 -0.7,-41.72 5.6,3.7 11.58,6.84 17.4,10.24 l 0,67.12 c -2.58,-4.5 -5.62,-8.7 -8.7,-12.82 -8.36,-10.72 -14.06,-23.16 -21.94,-34.2 -7.78,-12.3 -19.32,-22.66 -22.88,-37.24 z"
     id="path126"
     inkscape:connector-curvature="0"
     style="fill:#f5e5c1" />
  <path
     d="m 533.62,790.76 c 11.86,-3.28 19.86,7.7 27.92,14.3 17.22,14.44 29.76,33.2 42.56,51.42 20.54,26.3 38.86,54.22 57.04,82.18 18.42,29.4 40.82,56.06 59.44,85.34 l -21.22,0 c -12.96,-18.78 -26.52,-37.14 -39.76,-55.72 -22.12,-33.12 -42.82,-67.22 -66.82,-99.06 -4.92,-6.62 -9.38,-13.56 -13.72,-20.56 -11.42,-18.24 -24.6,-35.38 -39.44,-50.94 -2.08,-2.26 -4.06,-4.64 -6,-6.96 z"
     id="path128"
     inkscape:connector-curvature="0"
     style="fill:#f5e5c1" />
  <path
     d="m 19.5,817.36 c 11.12,-8.18 22.28,-16.64 34.36,-23.28 4.02,2.2 5.12,7.28 6.54,11.3 -3.4,2.36 -6.54,5.2 -10.38,6.82 -5.18,1.48 -10.66,1.06 -15.92,2.08 -4.9,0.84 -9.56,3.04 -14.6,3.08 z"
     id="path130"
     inkscape:connector-curvature="0"
     style="fill:#f4722b" />
  <path
     style="fill:#f4722b"
     d="m 284.65,798.4 c -4.68,2.28 -9.21,5.44 -14.55,5.8 -11.6,0.84 -23.35,0.58 -34.85,-1.2 0.62,10.98 5.54,21.12 6.9,32 8.36,14.64 16.33,29.6 25.95,43.5 2.56,-0.92 5.17,-1.88 7.75,-2.8 9.9,2.3 22.48,-1.04 29.7,7.8 -4.82,1.82 -9.68,3.55 -14.5,5.35 -0.94,2.72 -1.88,5.46 -2.8,8.2 -2.52,-0.52 -5.05,-1.07 -7.55,-1.65 -0.62,1.38 -1.85,4.12 -2.45,5.5 5.84,9.66 13.12,18.58 17.2,29.2 -6.12,-4.46 -11.56,-9.82 -15.8,-16.1 -10.78,-15.62 -23.32,-30 -33.1,-46.3 2.56,14 0.09,28.2 0.85,42.3 0.74,10.3 0.4,20.71 1.9,30.95 3.06,5.76 8.65,9.84 13.15,14.5 4.56,5.16 11.88,4.86 18.1,6.2 13.06,1.82 25.98,6.05 39.3,4.75 8.72,-0.8 17.53,-1.15 26.25,-2.15 4.84,-0.06 8.02,-3.99 11.4,-6.85 9.94,-9.42 20.57,-18.12 30.45,-27.6 4.84,-5.52 11.27,-11.84 9.45,-19.9 -2.6,-18.52 -3.71,-37.2 -3.55,-55.9 0.76,-10.86 -5.63,-20.24 -10.65,-29.3 -6.64,-11.98 -20.15,-17.28 -32.35,-21.7 -11.52,-1.88 -23.33,-0.6 -34.95,-1.1 -10.52,-0.48 -22.77,5.4 -31.25,-3.5 z m 19.15,17.25 c 10.3072,-0.17989 20.63125,2.69 30.95,1 10.5,-2.68 21.64,1.07 30.6,6.45 l 2.95,-2.3 c 6.34,4.66 8.75,12.32 10.95,19.5 -10.02,3.46 -21.13,2.34 -30.75,-1.8 6.98,-1.76 14.07,-2.9 21.25,-3.6 -0.7,-1.48 -2.1,-4.5 -2.8,-6 -7.5,-0.88 -15.28,-1.51 -22.6,0.85 -5.66,1.4 -10.69,5.36 -16.75,4.8 -7.56,-0.38 -15.16,0.09 -22.7,-0.65 l -0.4,-1.4 c 12.64,-4 26.51,-2.38 38.85,-7.2 0,-1.18 0,-3.57 0,-4.75 -22.72,1.32 -45.48,0.01 -68.2,-0.15 l 0.05,-2.75 c 7.18,0.08 14.37,-0.02 21.45,-1.3 2.37374,-0.4575 4.77142,-0.65848 7.15,-0.7 z M 248,818.9 c 10.12,2.04 15.86,11 17.2,20.7 15.26,4.02 31.04,4.08 46.7,4.1 12.36,0.44 23.37,-6.7 35.65,-7.1 -17.72,6.4 -36.51,13.12 -55.65,9.7 -15.02,-2.08 -35.57,-0.62 -43.25,-16.8 3.1,-0.24 6.2,-0.44 9.3,-0.6 -3.14,-2.96 -12.37,-4.5 -9.95,-10 z"
     id="path132"
     inkscape:connector-curvature="0" />
  <path
     d="m 604.84,801.98 c 0.36,5.56 0.52,11.14 0.62,16.74 20.02,6.76 40.22,12.98 60.28,19.66 2.16,0.38 4.88,2.02 6.76,0.06 7.16,-5.72 13.52,-12.34 20.4,-18.38 40.8,12.66 81.68,25.1 122.34,38.26 2.12,8.5 3.64,17.18 6.4,25.52 0.56,2.66 3.62,3.36 5.62,4.68 37.82,17.58 75.66,35.18 113.4,52.94 21.74,11.5 43.06,23.76 64.7,35.42 7.3,3.84 13.34,9.6 18.64,15.84 l 0,31.28 -303.42,0 c -18.62,-29.28 -41.02,-55.94 -59.44,-85.34 -18.18,-27.96 -36.5,-55.88 -57.04,-82.18 3.94,-17.9 0.12,-36.36 0.74,-54.5 z"
     id="path136"
     inkscape:connector-curvature="0"
     style="fill:#f4722b" />
  <path
     d="m 14.8,825.3 c 8.94,-4.7 18.88,-6.92 28.88,-7.72 0.72,13.24 8.98,24.12 12.28,36.66 6.44,22.84 11,46.24 18.76,68.7 7.7,20.2 16.76,39.82 24.92,59.82 6.04,13.64 10.68,27.88 17.34,41.24 L 0,1024 0,901.36 c 5.62,-8.94 11.08,-17.98 16.1,-27.26 2.44,-5 7.06,-8.2 11.1,-11.78 -4.56,-12.2 -8.24,-24.68 -12.4,-37.02 z"
     id="path140"
     inkscape:connector-curvature="0"
     style="fill:#f4722b" />
  <path
     d="m 278.82,882.02 c 2.14,-2.24 6.22,1.22 4.48,3.76 -2.12,2.3 -6.2,-1.3 -4.48,-3.76 z"
     id="path146"
     inkscape:connector-curvature="0"
     style="fill:#f4722b" />
  <path
     d="m 571.84,969.68 c 9.74,-26.76 21.88,-52.58 29.88,-79.94 21.14,31.82 41.3,64.3 62.8,95.86 8.56,12.18 14.74,25.8 22.62,38.4 l -139.88,0 c 8.28,-18.08 18.86,-35.18 24.58,-54.32 z"
     id="path148"
     inkscape:connector-curvature="0"
     style="fill:#f4722b" />
  <path
     d="m 153.64,0 5.2,0 c 13.9,19.4 26.42,39.76 39.22,59.9 30.28,51.36 59.4,103.42 88.34,155.56 32.14,59.46 66.7,117.58 99.86,176.5 12.7,22.98 25,46.2 37.8,69.14 1.98,3.62 3.84,7.32 5.88,10.92 15.88,29.3 32.08,58.42 48.8,87.26 11.84,20.26 22.4,41.22 34.1,61.56 1.56,2.76 3.16,5.48 4.78,8.22 10.96,18.06 21.76,36.22 33.2,53.98 7.97724,10.98761 14.07808,21.58791 19.52,31.24 -5.24,-6.18 -9.3,-13.2 -13.8,-19.9 -11.62,-20.38 -26.08,-38.86 -39.46,-58.08 -2.18,-3.16 -4.48,-6.2 -6.6,-9.38 C 501.14,610.5 491.92,594.02 482.2,577.84 475.4,568.3 470.02,557.88 464.62,547.5 426.48,483 392.52,416.14 354.94,351.34 334.12,314.66 312.82,278.28 292.68,241.24 264,189.32 235.6,137.24 206.3,85.68 190.1,56.3 171.36,28.46 153.64,0 z"
     id="path10"
     inkscape:connector-curvature="0"
     style="fill:#f5e5c1"
     sodipodi:nodetypes="ccccccccccccccccccccc" />
</svg>
