<?xml version="1.0" encoding="UTF-8" standalone="no"?>
<svg
   xmlns:dc="http://purl.org/dc/elements/1.1/"
   xmlns:cc="http://creativecommons.org/ns#"
   xmlns:rdf="http://www.w3.org/1999/02/22-rdf-syntax-ns#"
   xmlns:svg="http://www.w3.org/2000/svg"
   xmlns="http://www.w3.org/2000/svg"
   xmlns:sodipodi="http://sodipodi.sourceforge.net/DTD/sodipodi-0.dtd"
   xmlns:inkscape="http://www.inkscape.org/namespaces/inkscape"
   width="1280"
   height="1280"
   viewBox="0 0 1024 1024"
   version="1.1"
   id="svg2"
   inkscape:version="0.48.1 "
   sodipodi:docname="kill_spies_melee.svg">
  <metadata
     id="metadata68">
    <rdf:RDF>
      <cc:Work
         rdf:about="">
        <dc:format>image/svg+xml</dc:format>
        <dc:type
           rdf:resource="http://purl.org/dc/dcmitype/StillImage" />
      </cc:Work>
    </rdf:RDF>
  </metadata>
  <defs
     id="defs66" />
  <sodipodi:namedview
     pagecolor="#ffffff"
     bordercolor="#666666"
     borderopacity="1"
     objecttolerance="10"
     gridtolerance="10"
     guidetolerance="10"
     inkscape:pageopacity="0"
     inkscape:pageshadow="2"
     inkscape:window-width="1920"
     inkscape:window-height="1018"
     id="namedview64"
     showgrid="false"
     inkscape:snap-page="true"
     fit-margin-top="0"
     fit-margin-left="0"
     fit-margin-right="0"
     fit-margin-bottom="0"
     inkscape:zoom="0.6609375"
     inkscape:cx="640"
     inkscape:cy="640"
     inkscape:window-x="-8"
     inkscape:window-y="-8"
     inkscape:window-maximized="1"
     inkscape:current-layer="layer1" />
  <g
     inkscape:groupmode="layer"
     id="layer1"
     inkscape:label="background"
     style="display:inline">
    <rect
       style="fill:#3e3e3e;fill-opacity:1;fill-rule:nonzero;stroke:none"
       id="rect3054"
       width="1024"
       height="1024"
       x="0"
       y="0" />
  </g>
  <g
     inkscape:groupmode="layer"
     id="layer2"
     inkscape:label="foreground">
    <path
       d="m 514.8,46.75 c -6.74293,-3.1e-4 -13.67501,1.3875 -20.2,1.95 -17.98,1.34 -35.59,5.58 -53.05,9.8 -15.24,3.96 -30.21,10.2 -41.85,21.1 -11.62,9.5 -18.98,22.71 -27.4,34.85 -9.06,13.64 -12.6,29.96 -16.6,45.6 -3.4,12.36 -1.43,25.27 -3.15,37.85 -1.2,7.62 -0.07,15.36 -1.15,23 14.16,1.64 28.35,-0.58 42.55,-0.2 3.8,-0.22 7.19,3.32 6.95,7.1 0.96,17.98 6.77,35.15 9.45,52.85 0.1,0.62 0.35,1.83 0.45,2.45 2.6,11.6 -3.14,22.69 -6.1,33.65 2.06,2.6 4.22,5.18 6.4,7.7 -3.16,4.66 -6.58,9.6 -6.4,15.5 -0.34,25.36 -2.05,50.66 -3.05,76 1.94,59.24 11.66,118.17 8.3,177.55 -3.64,-10.6 -6.08,-22.04 -3.5,-33.2 2.82,-9.26 -1.66,-18.76 0.7,-28.1 1.24,-5.26 0.68,-10.61 -0.2,-15.85 -1.64,-10.28 1.39,-20.89 -1.75,-30.95 -2.44,-7.94 -2.09,-16.34 -3.75,-24.4 -5.16,-16.46 -9.8,-33.55 -9,-50.95 0.34,-7.54 -1.11,-15.79 3.05,-22.55 6.22,-10.22 2.08,-22.53 0,-33.35 -3.3,1.14 -6.6,2.31 -9.9,3.45 -0.3,33.46 0.09,66.94 -0.15,100.4 0.14,7.02 -4.59,13.02 -4.25,20.1 -0.1,10.74 0.64,21.53 -0.4,32.25 -0.08,-12.82 0.51,-25.69 -3.05,-38.15 -1.7,-36.78 -0.12,-73.68 -0.9,-110.5 -2.9,2.8 -7.51,5.35 -7.25,10.05 -1.68,54.12 -4.11,108.23 -5.95,162.35 -0.1,4.14 -0.32,8.54 -3.1,11.9 l -2.8,-8.85 -1.3,-1.55 c 4.3,-6.26 3.54,-14.94 -1.9,-20.3 -4.86,-3.62 -8.19,2.97 -11.75,5.35 -20.92,16.22 -42.23,32.37 -59.55,52.55 -10.36,15.78 -16.83,33.62 -22.85,51.4 -13.88,38.72 -24.34,78.79 -30.1,119.55 -4.22,30.56 -10.12,60.97 -11.5,91.85 -0.26,20.16 -3.27,40.13 -5.35,60.15 -0.64,6.18 -0.04,12.53 -1.8,18.55 -3.76,-13.38 -1.53,-27.23 -0.85,-40.85 1.44,-21.98 0.01,-44.01 2.45,-65.95 6.74,-55.92 13.83,-112.34 32.45,-165.8 6.9,-18.94 12.84,-38.34 21.9,-56.4 -18.92,7.5 -35.21,20.29 -51.65,32.05 -25.16,17.14 -48.8,36.39 -72.6,55.35 -2.12,8.1 -8.23,14.52 -9.55,22.9 -2.32,11.58 -2.78,23.53 -6.8,34.75 -12.48,39.92 -23.95,80.23 -39.05,119.25 -11.2,34.28 -20.41,69.16 -30.05,103.9 -6.26,23.28 -13.05,46.46 -17.85,70.1 l 217.6,0 31.85,0 113.4,0 25.15,0 574.75,0 c -0.58,-26.04 -0.87,-52.08 -2.25,-78.1 -1.06,-28.6 -4.39,-57.05 -6.75,-85.55 -5.38,-67.04 -16.49,-133.46 -23.65,-200.3 -2.42,-6.24 -9.81,-8.89 -14.35,-13.55 -1.34,0.68 -4.06,2.02 -5.4,2.7 -14.72,-8.08 -26.96,-19.76 -41.5,-28.1 -18.06,-12.38 -38.51,-20.46 -58.05,-30.1 -35.22,-15.56 -71.46,-29.02 -108.9,-38.2 -8.2,-1.68 -16.48,-3 -24.2,-6.3 -12.94,-2.36 -28.49,-1.58 -37.95,-12.4 2.34,12.66 5.9,25.08 7.9,37.8 6.28,49.04 9.64,98.65 6.1,148.05 -0.72,18.12 -3.96,35.99 -5.5,54.05 18.86,-32.58 50.9,-57.85 87.8,-66.35 27.98,-7.44 58.08,-3.54 84.4,8 33.02,14.96 59.21,43.27 73.05,76.65 12.46,30.72 16.79,65.28 8.65,97.7 -7.26,34.9 -27.36,66.98 -56,88.3 -19.62,15.14 -43.78,23.8 -68.3,26.4 -33.48,2.82 -67.79,-7.6 -94.15,-28.4 -23.12,-18.1 -40.68,-43.43 -49.2,-71.55 -0.92,25.84 -2.15,51.68 -3.25,77.5 -0.64,6.48 -0.94,14.19 -6.4,18.65 -5.34,3.94 -12.42,4.24 -18.8,4 -18.06,-1.06 -36.17,-1.96 -54.25,-2.9 -5.7,-0.26 -11.83,-1.44 -15.95,-5.7 -4.5,-4.1 -4.97,-10.64 -4.85,-16.3 1.88,-47.8 3.65,-95.63 5.35,-143.45 -4.58,-1.16 -9.79,-1.93 -12.85,-5.95 -10.16,-11.94 -20.03,-24.12 -30.15,-36.1 -5.64,-6.66 -6.66,-17.19 -1,-24.15 6.38,-7.64 14,-14.06 21.3,-20.8 12.86,-12.4 24.99,-25.65 38.35,-37.55 5.26,-4.96 13.01,-5.2 19.85,-4.8 16.08,1.18 32.2,2.18 48.3,3.2 6.16,0.38 12.95,1.36 17.55,5.9 4.04,4.1 4.68,10.2 4.5,15.7 -0.44,12.12 -1.47,24.21 -1.65,36.35 6.26,-46.76 8.06,-94.12 4.8,-141.2 -2.4,-24.44 -3.26,-49.23 -9.3,-73.15 -2.66,-12.48 -5.16,-24.96 -7.5,-37.5 -5.46,0.84 -8.75,4.99 -10.55,9.95 -10.58,2.24 -19.54,8.93 -30.2,10.85 -8,1.86 -16.35,1.64 -24.25,4 -24.48,4.56 -49.23,7.64 -73.85,11.4 -9.2,1.34 -18.1,4.35 -27.4,4.85 0.3,-1.98 0.75,-3.96 1.25,-5.9 9.84,-6.8 21.2,-10.71 32,-15.65 13.14,-7.12 25.8,-15.26 39.5,-21.3 18.56,-8.24 35.95,-18.73 54.35,-27.25 10.74,-5.62 22,-10.15 32.7,-15.85 -3.64,-8.32 -7.75,-16.39 -11.25,-24.75 -3.82,-10.52 -18.15,-11.49 -26.85,-6.95 -12.7,6.58 -26.33,11.54 -38.15,19.7 -15.38,9.88 -33.89,12.44 -51.35,16.5 -5.32,-8.84 -11.46,-17.24 -16.5,-26.2 -3.2,-19.4 1.88,-38.9 4.8,-58 3.08,-19.42 8.62,-38.26 13.7,-57.2 12.18,-3.76 24.5,-7.3 37.3,-8.1 20.08,-1.34 40.29,-3.72 59.55,-9.9 -0.14,3.54 -2.85,5.84 -4.85,8.4 3.58,3.4 7.04,6.9 10.4,10.5 6.02,-7.92 7.02,-18.02 11,-26.9 -0.76,-5.44 -1.57,-10.88 -2.35,-16.3 -0.16,-1.02 -0.44,-3.05 -0.6,-4.05 -2.64,-19.88 -5.76,-39.7 -9,-59.5 -1.34,-4.44 -0.27,-8.47 3.55,-11.15 -1.44,-2.32 -2.87,-4.61 -4.25,-6.95 1.44,7.36 -2.84,14.26 -1.7,21.6 0.98,13.52 8.94,25.74 7.6,39.6 -0.72,8.9 2.51,21.42 -7.05,26.6 -4.84,-13.2 -10.15,-26.22 -15.85,-39.1 -3.82,-11.78 -9.68,-24.39 -21,-30.55 -15.44,-3.3 -26.02,11.14 -37.4,18.9 -13.76,13.72 -29.27,26.94 -37.25,45.1 -4.56,4.66 -8.91,9.64 -13.75,14 -10.38,3.06 -23.23,3.49 -31.85,-4.15 -12.14,-10.04 -24.35,-22.41 -27.15,-38.55 -2.1,-9.98 -3.24,-20.23 -1.5,-30.35 1.42,-6.12 -3.7,-12.23 -0.7,-18.15 6.7,-13.72 20.5,-22.32 34.5,-27.2 13.1,-5.66 27.22,-8.35 41,-11.85 13.52,-2.76 27.37,-2.9 41.05,-4.4 11.46,-1.16 23.43,-3.26 34.65,0.5 6.78,2.18 13.83,3.36 20.55,5.7 6.24,2.26 7.59,11.61 14.85,11.55 -4.34,-17.62 -5.42,-36 -11.5,-53.2 -10.46,-22.62 -28.34,-40.69 -47.7,-55.95 -14.06,-12.58 -30.91,-21.34 -47.25,-30.5 -4.69875,-2.75625 -9.8055,-3.59976 -15.05,-3.6 z"
       id="path6"
       style="fill:#f4722b"
       inkscape:connector-curvature="0" />
    <path
       d="m 307.9,221.72 c 14.48,-0.16 28.98,-1.48 43.48,-0.84 14.16,1.64 28.38,-0.58 42.58,-0.2 3.8,-0.22 7.18,3.36 6.94,7.14 0.96,17.98 6.78,35.12 9.46,52.82 -14.96,0.38 -29.64,3.56 -44.56,4.6 -62.22,13.52 -124.08,30.76 -187.78,35.74 -20.88,-0.22 -41.9,-0.84 -62.42,-5.02 -17.54,-1.48 -33.32,-10.22 -47.7,-19.8 27.92,-23.04 56.86,-44.82 85.24,-67.3 21,-0.94 42,-2.46 63.04,-2.44 11.86,-1.78 23.84,-1.24 35.78,-1.62 18.56,-2.32 37.34,-0.96 55.94,-3.08 z"
       id="path8"
       inkscape:connector-curvature="0"
       style="fill:#f5e5c1" />
    <path
       d="m 683.6,224.6 c 9.5,-1.3 18.42,3.5 27.86,2.28 0.34,15.14 -3.78,29.98 -4.6,45.06 -2.4,9.82 -1.2,20.38 -5.02,29.86 -8.54,8.08 -18.46,14.8 -26.3,23.58 -4.94,-6.24 -1.7,-14.3 -1.2,-21.4 2.66,-26.5 6.42,-52.9 9.26,-79.38 z"
       id="path10"
       inkscape:connector-curvature="0"
       style="fill:#f5e5c1" />
    <path
       d="m 638,228.86 c 13.04,1.74 26.26,2.34 39.42,2.48 0.08,10.38 -2.2,20.54 -3.1,30.84 -1.6,10.28 -1.46,20.74 -3.72,30.92 -7.84,-1.68 -15.78,-2.92 -23.6,-4.74 -2.64,-19.88 -5.76,-39.7 -9,-59.5 z"
       id="path12"
       inkscape:connector-curvature="0"
       style="fill:#f5e5c1" />
    <path
       d="m 724,230.55 c -3.82949,0.0361 -8.3725,1.1575 -8.95,5.55 -0.68,10.96 -6.48,20.81 -6.2,31.95 0.48,8 -3.5,15.55 -2.3,23.55 0.38,3.68 0.09,7.36 -0.45,11 7.4,-0.32 14.48,2.1 21.8,2.6 54.76,8.38 109.49,16.8 164.15,25.6 12.8,1.46 25.61,-3.22 35.75,-10.9 8.66,-9.96 7.24,-23.79 7.7,-36.05 -0.28,-9.28 2.78,-18.49 1.4,-27.75 -1.08,-1.16 -2.37,-1.96 -3.85,-2.4 -48.94,-4.56 -97.93,-10.48 -146.85,-15.9 -9.4,-1.32 -18.73,-3.04 -28.25,-3.2 -10.76,-1.48 -21.49,-3.48 -32.35,-4 -0.50501,-0.0325 -1.05293,-0.0552 -1.6,-0.05 z m 20.2,16.1 c 5.59968,0.0263 11.24,1.65 14.75,6.3 7.28,10.28 0.89,28.75 -13.05,28.35 -7.92,1.76 -15.17,-3.5 -18.75,-10.2 -2.98,-9.52 1.43,-21.1 11.55,-24 1.77501,-0.29 3.63344,-0.45875 5.5,-0.45 z m 155.95,24.4 c 6.8,2.26 13.76,9.35 9.9,16.95 -1.16,5.74 -7.33,7.1 -11.95,9 -4.68,-2.42 -10.48,-5.12 -11.3,-11 -1.18,-4.8 1.98,-8.89 4.7,-12.45 2.9,-0.78 5.75,-1.64 8.65,-2.5 z"
       id="path14"
       style="fill:#f4722b"
       inkscape:connector-curvature="0" />
    <path
       d="m 365.5,288.24 c 15.08,-1.76 30.2,-3.24 45.28,-5.14 2.6,11.6 -3.1,22.68 -6.06,33.64 -12.66,1.28 -24.16,6.92 -36.08,10.9 -19.18,7.08 -38.5,13.74 -57.66,20.9 -19.04,6.26 -38.3,11.78 -57.28,18.2 -7.76,3.1 -16.2,2.18 -24.28,3.5 -14.64,2.02 -29.52,2.02 -44.06,4.8 -1.2,-3.16 -2.36,-6.32 -3.54,-9.46 -0.54,-0.26 -1.66,-0.76 -2.2,-1 -2.54,4.12 -5.06,8.24 -7.56,12.38 -15.3,-0.68 -30.44,-3.24 -45.7,-4.36 -14.04,-1.86 -27.14,-7.78 -41.02,-10.42 -8.22,-1.52 -14.36,-7.68 -21.46,-11.64 -12.42,-7.2 -22.58,-17.66 -35.26,-24.46 12.3,-8.76 23.6,-18.84 35.88,-27.6 6.84,0.04 10.38,7.92 16.62,9.98 6.38,1.96 12.42,4.7 18.34,7.68 11.62,2.44 23.52,3.44 35.12,6.1 13.04,1.64 26.28,0.04 39.3,2.3 18.04,-1.48 35.98,-4.34 53.98,-6.36 46.16,-8.64 91.9,-19.34 137.64,-29.94 z"
       id="path20"
       inkscape:connector-curvature="0"
       style="fill:#f5e5c1" />
    <path
       d="m 647.62,292.4 c 7.32,0.36 14.6,1.36 21.82,2.7 1.62,7.92 -0.78,15.78 -1.14,23.7 -2.9,-0.2 -5.78,-0.4 -8.66,-0.58 -0.12,-3.1 -0.26,-6.2 -0.4,-9.3 -3.1,-0.08 -6.22,-0.16 -9.3,-0.22 -0.76,-5.44 -1.54,-10.88 -2.32,-16.3 z"
       id="path22"
       inkscape:connector-curvature="0"
       style="fill:#f5e5c1" />
    <path
       d="m 588.46,388.18 c 14.1,-4.72 29.18,-5.72 43.74,-8.46 4.82,-0.54 10.62,-1.78 14.16,2.6 -14.44,4.96 -29.8,6.22 -44.3,10.96 -6.86,2.36 -15.26,2.74 -20.02,8.92 -3.8,10.88 -13.32,18.06 -20.1,27 -3.58,0.36 -10.02,-2.74 -6.24,-6.9 11.36,-10.92 21.06,-23.52 32.76,-34.12 z"
       id="path24"
       inkscape:connector-curvature="0"
       style="fill:#f4722b" />
    <path
       d="m 360.95,535.35 c -1.14,0.06 -3.38,0.19 -4.5,0.25 -7.44,9.7 -15.33,19.38 -19.55,31 -5.87331,16.07224 -6.3099,33.31666 -8.25,50.15 -0.0133,0.0479 -0.034,0.3075 -0.05,0.4 -0.48,2.76763 -2.1033,24.63158 -1.9,28.4 0.02,2.5 0,5.03 0,7.55 -0.1,0.68 -0.25,2.02 -0.35,2.7 -2.2,4.48 -4.33,9.33 -2.95,14.45 2.16,4.3 2.57,9.11 1.95,13.85 -2.26,29.92 0.71,59.95 -1.85,89.85 0.36,18.68 1.76,37.32 1.6,56 -0.52,12.28 -3.87,24.2 -6.25,36.2 -3.28,14.32 -4.85,28.94 -7.35,43.4 -6.94,38.22 -14.34,76.37 -22,114.45 l 6,0 5.6,0 95.65,0 2.65,0 3.5,0 c 3.66,-19.22 12.53,-36.96 16.05,-56.2 2.86,-13.28 6.08,-26.52 9,-39.8 3.84,-19.56 12.87,-37.51 19.35,-56.25 7.04,-20.62 15.12,-40.83 23.5,-60.95 3.92,-9.48 9.16,-18.4 15,-26.8 12.86,-18.82 23.77,-38.82 36.05,-58 13.06,-23.04 25.2,-46.59 38.6,-69.45 6.54,-10.94 10.82,-22.98 15.7,-34.7 6.7,-16.78 15.07,-32.86 21.15,-49.9 -7,3.08 -12.13,8.83 -18.05,13.45 -14.72,11.76 -27.67,25.59 -42.55,37.15 -17.1,12.1 -32.36,26.63 -49.9,38.15 -9.18,6.16 -17.9,12.97 -27.2,18.95 -5.78,4.18 -13.1,0.9 -19.6,1.3 -4.82,2.58 -8.72,6.59 -13.3,9.55 l 0,0.05 -9.85,2.75 -4.75,-3.95 c -0.36,-1.02 -1.04,-3.08 -1.4,-4.1 -14.06,-4.64 -24.78,-15.59 -33.7,-26.95 -1.7,2.32 -4.02,3.56 -7,3.7 0.04,-2.86 1.25,-4.98 3.65,-6.4 0.2,-3.72 -1.24,-7.58 -4.9,-9.1 -1.62,-4.5 -2.94,-9.08 -4.5,-13.6 -4.76,-2.54 -6.39,-6.95 -3.95,-11.85 -0.5,-2.52 -0.97,-5.03 -1.45,-7.55 -0.0107,0.0466 -0.0397,0.10251 -0.05,0.15 -0.0217,-2.10229 -4.94224,-24.61104 -6.2,-30.3 0.27728,-12.71222 -0.51376,-26.84462 7.95,-37.35 0.86,-3.5 0.72,-7.11 0.4,-10.65 z"
       id="path28"
       style="fill:#f5e5c1"
       inkscape:connector-curvature="0" />
    <path
       d="m 342.28,599.98 c -2.76,-5.86 -3.06,-13.52 3.2,-17.2 1.78,0.24 5.32,0.7 7.1,0.92 5.02,3.04 10.44,6.58 12.62,12.32 2.46,5.44 -0.2,11.36 -0.74,16.92 -1.4,0.14 -4.2,0.42 -5.6,0.54 -1,4.36 -0.28,12.46 -6.88,11.7 -5.08,0.48 -6.72,-5.56 -8.1,-9.26 -5.04,10.2 -9.98,20.76 -17.2,29.64 -3.78,-1.3 -9.96,-2.18 -7.86,-7.7 2.06,-7.3 1.4,-17.52 9.78,-20.7 5.38,-5.04 8.52,-11.94 13.68,-17.18 z"
       id="path32"
       inkscape:connector-curvature="0"
       style="fill:#3e3e3e" />
    <path
       d="m 360.32,621.04 c 6.06,-1.12 12.18,-2.66 18.38,-1.74 0.08,2.5 1.38,5.18 0.38,7.62 -3.92,3.98 -9.7,4.6 -14.84,5.96 -4.76,-2.54 -6.36,-6.94 -3.92,-11.84 z"
       id="path36"
       inkscape:connector-curvature="0"
       style="fill:#3e3e3e" />
    <path
       d="m 368.9,632.94 c 4.44,-1.76 9.6,-3.1 14.32,-2.02 4.74,4.3 -0.58,11.26 -5.52,12.62 -1.78,-1.84 -3.52,-3.66 -5.3,-5.48 -0.46,1.36 -1.36,4.08 -1.82,5.46 -3.24,-2.56 -5.56,-7.36 -1.68,-10.58 z"
       id="path38"
       inkscape:connector-curvature="0"
       style="fill:#3e3e3e" />
    <path
       d="m 330.5,649.4 c -0.42,-8.02 9.1,-10.48 15.48,-10.68 -4.56,4.26 -7.9,12.52 -15.48,10.68 z"
       id="path40"
       inkscape:connector-curvature="0"
       style="fill:#3e3e3e" />
    <path
       d="m 315.1,652.64 c 3.88,0.1 7.74,0.26 11.6,0.46 -0.1,0.68 -0.26,2.04 -0.36,2.72 -2.2,4.48 -4.32,9.32 -2.94,14.44 -3.9,0.84 -7.88,1 -11.86,0.72 -0.56,-1.22 -1.66,-3.68 -2.22,-4.9 1.76,-4.56 3.7,-9.04 5.78,-13.44 z"
       id="path42"
       inkscape:connector-curvature="0"
       style="fill:#3e3e3e" />
    <path
       d="m 284.88,654.76 c 8.52,-0.56 6.62,9.7 6.18,15.2 -5.82,-2.86 -5.98,-9.58 -6.18,-15.2 z"
       id="path44"
       inkscape:connector-curvature="0"
       style="fill:#3e3e3e" />
    <path
       d="m 370,662.02 c 0.04,-2.86 1.26,-5 3.66,-6.42 1.14,0.88 2.26,1.78 3.36,2.72 -1.7,2.32 -4.04,3.56 -7.02,3.7 z"
       id="path46"
       inkscape:connector-curvature="0"
       style="fill:#3e3e3e" />
    <path
       d="m 282.8,682.42 c 2.46,-0.02 4.82,0.38 7.12,1.24 -1.66,2.72 -4.42,3.72 -7.4,4.04 0.06,-1.32 0.2,-3.96 0.28,-5.28 z"
       id="path48"
       inkscape:connector-curvature="0"
       style="fill:#3e3e3e" />
    <path
       d="m 393.24,701.18 c 4.76,-3.84 3.9,-12.3 10.62,-13.86 2.86,0.08 5.52,1.26 8.24,2.02 4.72,1.5 9.72,1.18 14.6,1.18 0,1.4 0.02,4.16 0.02,5.56 2.84,3.5 5.66,7.3 5.84,12.04 2.24,17.24 6.46,34.56 15.36,49.68 4.96,8.06 9.06,16.7 14.92,24.22 -10.1,-8.76 -14.46,-21.54 -20,-33.26 -6.26,8.48 -12.02,17.32 -17.94,26.04 -4.7,7.2 -9.82,14.48 -11.9,22.96 -3.94,36.04 -7.76,72.12 -9.22,108.38 0.04,13.6 -6.08,26.32 -6.14,39.96 -0.76,25.96 0.02,51.94 -0.88,77.9 l -95.68,0 c 1.92,-14.52 9.28,-27.56 11.16,-42.06 5.44,-33.52 17.18,-65.52 25.38,-98.38 6.28,-24.22 15.78,-47.44 23.16,-71.32 1.06,-5.98 8.1,-8.46 8.74,-14.54 2.74,-16.54 -0.26,-33.6 -4.1,-49.74 -5.84,9.02 -13.44,16.6 -21.62,23.48 12.76,-12.48 20.64,-28.68 29.82,-43.72 4.24,-10.4 11.74,-18.78 19.62,-26.54 z"
       id="path50"
       inkscape:connector-curvature="0"
       style="fill:#3e3e3e" />
    <path
       d="m 276.98,697.18 c 1.42,-0.62 4.28,-1.86 5.7,-2.5 1.24,6.42 0.78,13.3 -2.52,19.08 -5.18,-3.82 -4.6,-11.06 -3.18,-16.58 z"
       id="path52"
       inkscape:connector-curvature="0"
       style="fill:#3e3e3e" />
    <path
       d="m 805.6,719.8 c -6.22094,0.0306 -12.41,0.56 -18.55,1.55 -21.86,3.76 -42.39,14.1 -58.95,28.8 -43.6,38.12 -57.26,104.44 -35.9,157.7 12.24,31.48 36.9,58.31 68,71.85 26.56,11.64 57.58,12.6 84.9,3 33.36,-11.84 60.31,-39.03 73.95,-71.45 14.54,-34.06 15.02,-73.78 1.7,-108.3 -11.2,-29.68 -33.09,-55.4 -61.25,-70.2 -16.54499,-8.79 -35.23718,-13.04187 -53.9,-12.95 z m 1.35,82 c 13.83938,0.25688 27.47,6.02 37.4,15.8 20.34,19.86 25.59,51.81 17.25,78.35 -6.38,18.7 -21,34.95 -39.9,41.45 -13.78,5.2 -29.59,2.62 -41.95,-5 -17.7,-10.46 -29.08,-29.86 -31.3,-50.1 -1.56,-15.8 -0.09,-32.31 7.15,-46.65 7.1,-15.46 20.93,-27.94 37.55,-32.2 4.52,-1.19 9.18688,-1.73563 13.8,-1.65 z"
       id="path54"
       style="fill:#f5e5c1"
       inkscape:connector-curvature="0" />
    <path
       d="m 570.88,754.86 c 10.84,-10.7 21.34,-21.78 32.68,-31.98 20.96,1.14 41.94,2.48 62.86,4.12 -4.06,87.34 -7.4,174.72 -11.54,262.06 -22.66,-0.6 -45.28,-2.5 -67.94,-3.14 2.02,-60.72 4.84,-121.42 6.54,-182.14 -5.82,5.7 -11.54,11.48 -17.04,17.5 -10.9,-13.14 -21.78,-26.3 -32.8,-39.32 8.46,-9.64 18.36,-17.86 27.24,-27.1 z"
       id="path56"
       inkscape:connector-curvature="0"
       style="fill:#f5e5c1" />
    <path
       d="m 269.46,745.22 c 2.62,-0.54 5.3,-0.64 7.98,-0.62 -0.14,1.12 -0.42,3.34 -0.56,4.44 -2.66,0.1 -5.32,0.18 -7.96,0.26 0.14,-1.02 0.4,-3.06 0.54,-4.08 z"
       id="path58"
       inkscape:connector-curvature="0"
       style="fill:#3e3e3e" />
    <path
       d="m 796.56,818.84 c 9.62,-1.92 20.18,-1.44 28.64,4.02 17.44,10.34 25.46,31.62 24.1,51.24 0.38,18.82 -10.92,36.88 -27.22,45.9 -10.12,5.9 -23.4,5.52 -33.3,-0.66 -13.58,-8.4 -23.54,-23.14 -24.56,-39.26 -0.72,-12.36 -0.72,-25.42 5.2,-36.64 5.06,-11.56 14.94,-21.04 27.14,-24.6 z"
       id="path62"
       inkscape:connector-curvature="0"
       style="fill:#f4722b" />
  </g>
</svg>
