<?xml version="1.0" encoding="UTF-8" standalone="no"?>
<svg
   xmlns:dc="http://purl.org/dc/elements/1.1/"
   xmlns:cc="http://creativecommons.org/ns#"
   xmlns:rdf="http://www.w3.org/1999/02/22-rdf-syntax-ns#"
   xmlns:svg="http://www.w3.org/2000/svg"
   xmlns="http://www.w3.org/2000/svg"
   xmlns:sodipodi="http://sodipodi.sourceforge.net/DTD/sodipodi-0.dtd"
   xmlns:inkscape="http://www.inkscape.org/namespaces/inkscape"
   width="1280"
   height="1280"
   viewBox="0 0 1024 1024"
   version="1.1"
   id="svg2"
   inkscape:version="0.48.1 "
   sodipodi:docname="kill_objectives.svg">
  <metadata
     id="metadata56">
    <rdf:RDF>
      <cc:Work
         rdf:about="">
        <dc:format>image/svg+xml</dc:format>
        <dc:type
           rdf:resource="http://purl.org/dc/dcmitype/StillImage" />
      </cc:Work>
    </rdf:RDF>
  </metadata>
  <defs
     id="defs54" />
  <sodipodi:namedview
     pagecolor="#ffffff"
     bordercolor="#666666"
     borderopacity="1"
     objecttolerance="10"
     gridtolerance="10"
     guidetolerance="10"
     inkscape:pageopacity="0"
     inkscape:pageshadow="2"
     inkscape:window-width="1920"
     inkscape:window-height="1018"
     id="namedview52"
     showgrid="false"
     fit-margin-top="0"
     fit-margin-left="0"
     fit-margin-right="0"
     fit-margin-bottom="0"
     inkscape:zoom="0.6609375"
     inkscape:cx="466.00473"
     inkscape:cy="640"
     inkscape:window-x="-8"
     inkscape:window-y="-8"
     inkscape:window-maximized="1"
     inkscape:current-layer="layer1"
     inkscape:snap-page="true" />
  <g
     inkscape:groupmode="layer"
     id="layer1"
     inkscape:label="background">
    <rect
       style="fill:#3e3e3e;fill-opacity:1;fill-rule:nonzero;stroke:none"
       id="rect3028"
       width="1280"
       height="1280"
       x="0"
       y="0"
       transform="scale(0.8,0.8)" />
  </g>
  <g
     inkscape:groupmode="layer"
     id="layer2"
     inkscape:label="foreground">
    <path
       style="fill:#f4722b"
       d="m 589.5,120.7 c -3.20298,0.0974 -6.4075,0.36 -9.55,0.45 -11.32,0.78 -22.61,1.12 -33.95,1.4 -9.62,-0.1 -18.86,5.54 -24,13.5 -14.24,20.94 -25.88,43.45 -38.7,65.25 -4.46,6.1 -2.49,13.84 -2.25,20.8 0.06,9.32 6.82,16.48 9.7,24.9 1.08,5.52 -0.3,11.31 1.2,16.75 16.24,5.68 33.22,9.07 49.7,14.05 -0.72,21.48 -2.75,42.86 -4.35,64.3 -0.5,15.02 8.99,27.55 18.75,37.95 13.12,7.26 27.38,12.28 40.6,19.4 7.16,4.62 12.93,10.98 19.55,16.3 4.48,4.18 10.58,7.67 11.9,14.15 2.88,10.74 6.72,21.28 8.9,32.2 0.44,14.66 -0.58,29.29 -0.2,43.95 0.62,10.2 -4.5,19.42 -8.6,28.4 -5.92,8.78 -14.38,15.49 -21.1,23.65 4.88,11.28 13.2,21.04 15.7,33.3 4.32,19 9.84,37.71 15.5,56.35 3.52,-3.78 4.7,-8.8 5.7,-13.7 4.2,-2.7 8.63,-5.11 12.45,-8.35 1.5,-4.4 -0.86,-9.2 -1.2,-13.7 5.44,-5.44 10.2,-11.68 16.3,-16.4 8.92,-4.8 18.71,-7.72 27.95,-11.8 5.9,-2.18 11.81,-6.16 18.35,-4.3 10.54,2.44 22.66,1.62 31.4,9 2.22,1.92 5.93,3.73 4.75,7.35 -1.08,11.12 -3.29,22.12 -3.55,33.3 4.06,0.28 8.09,0.53 12.15,0.75 3.02,11.62 7.16,22.9 10.6,34.4 1.38,5.54 8.59,7.47 8.65,13.65 0.28,13.26 -3.84,26.25 -3.7,39.55 8.74,0.7 18.53,-1.4 26.05,4.3 13.2,9.32 30.14,11.26 45.7,8.1 2.3,-1.02 6.54,-0.51 7.1,-3.65 -1.42,-6.6 -3.47,-13.17 -6.65,-19.15 -6.66,-3.56 -15.68,-0.28 -21.4,-5.9 -9.04,-8.78 -20.03,-16.3 -24.95,-28.4 1.96,-2.2 4.31,-4.16 5.75,-6.8 1.06,-12.06 -2.88,-24.28 0.4,-36.2 1.82,-7.1 2.44,-14.64 -0.6,-21.5 2.94,-4.84 6.33,-9.44 8.85,-14.5 -2.44,-6.2 -8.88,-10.18 -13,-15.4 -0.24,-9.32 2.25,-19.02 0.55,-28.1 -14.08,-16 -33.77,-26.96 -44.55,-45.8 -8.68,-11.66 -6.86,-27.15 -11.4,-40.35 -2.64,-6.1 -9.14,-10.75 -8.2,-18.05 0.38,-11.26 -0.92,-22.66 0.8,-33.8 3.12,-9.52 4.58,-20.36 12,-27.7 15.28,-16.76 29.12,-34.86 45.7,-50.4 3.1,-3.08 6.48,-6.29 7.4,-10.75 4.52,-13.88 -2.26,-27.78 -4.1,-41.5 -3.7,-13.96 -3.33,-29.65 -12.35,-41.65 12.14,-2.56 24.08,-5.92 36.2,-8.6 21.52,-3.96 40.61,-15.2 60.55,-23.6 1.18,1.66 2.37,3.32 3.55,5 5.52,0.44 11.21,0.82 16.55,-1 13.28,-4.3 26.64,-8.37 40,-12.35 3.04,-1.26 7.52,-1.72 8.5,-5.5 4.2,-13.78 -0.69,-28.38 -9.95,-38.9 -5.26,-1.64 -11.08,-0.95 -15.9,1.65 -15.52,7.78 -30.89,15.88 -46.55,23.4 -0.02,3.26 0.01,6.54 0.05,9.8 -12.62,4.08 -25.33,7.92 -37.85,12.3 -1.32,-1.8 -2.62,-3.62 -3.9,-5.4 -11.24,-1.68 -21.9,2.81 -32.6,5.35 -19.28,4.7 -38.44,9.87 -57.7,14.65 2.08,-5.3 5.36,-9.98 10.7,-12.4 5.04,-2.06 2.76,-11.08 9.1,-11.1 14.36,-1.3 28.78,-2 43.2,-2.7 1.62,-4.7 3.55,-9.68 1.95,-14.7 -2.34,-8.44 -5.29,-18.05 -13.25,-22.85 -17.96,4.38 -34.68,15.11 -53.7,15.15 -1.3,-2.44 -2.57,-4.86 -3.85,-7.3 -7.92,-2.36 -16.49,-4.2 -24.55,-1.5 -17.98,5.26 -36.47,8.44 -54.45,13.7 -3.02,6.24 -4.92,12.92 -4.5,19.9 l -5.85,0.65 c -1.36,-9.08 -0.1,-19.14 -5.5,-27.1 -6.98,-11.48 -15.46,-22.03 -24.8,-31.65 -5.76,-6.18 -14.24,-8.35 -21.6,-11.95 -4.9125,-2.3875 -10.26171,-2.7123 -15.6,-2.55 z m 8.8,10.1 c 6.06,2.36 11.66,6.01 16.4,10.45 9.42,10.26 17.51,21.72 24.05,34 2.58,6.62 1.16,13.98 1.5,20.9 -2.76,1.42 -8.04,1.31 -7.3,5.75 -0.22,8.86 1.17,17.64 1.25,26.5 -21.74,5.4 -42.55,-6.68 -64.25,-6.3 -2.2,0.1 -5.68,0.05 -6.3,2.75 -2.66,10.68 -3.83,21.69 -6.65,32.35 -16.6,-3.78 -33.25,-7.67 -50.15,-9.95 -3.08,-6.7 -7.09,-13.05 -9.45,-20.05 -1.26,-6.3 -1.91,-12.8 -1.35,-19.2 1.88,-5.6 5.43,-10.46 8.25,-15.6 6.28,-10.46 11.65,-21.42 18.65,-31.4 6.94,-9.64 12.47,-20.48 21.75,-28.2 17.86,-0.42 35.74,-2.1 53.6,-2 z m 151.2,119.55 c 6.98,12.1 4.18,26.32 5.1,39.6 -0.16,7.8 1.21,15.73 -0.05,23.45 -8.62,11.6 -18.51,22.26 -27.35,33.7 -7.92,1.64 -16.62,1.72 -23.5,6.5 -3.5,2.26 -6.87,4.78 -10.25,7.2 -2.36,-8.2 -1.03,-16.54 0.15,-24.8 -0.86,-6.32 -2.01,-12.88 2.65,-18.1 -3.66,-3.52 -6.94,-7.62 -11.3,-10.3 -7,-0.82 -14.11,-0.74 -21.15,-0.9 -5.84,-0.12 -9.35,5.52 -13.45,8.8 0.68,1.56 2.07,4.64 2.75,6.2 -2.02,2.76 -4.06,5.54 -6.1,8.3 0.9,7.36 -2.88,18.25 6.1,21.55 2.7,5.34 4.89,11.07 4.85,17.15 -7.74,0.26 -15.55,1.44 -23.25,0.3 -11,-4.74 -21.22,-11.43 -29.3,-20.35 -4.44,-5.56 -12.08,-4.61 -18.3,-6.25 1.58,-16.72 3.02,-33.45 5.6,-50.05 3.22,-2.62 6.48,-5.25 9.7,-7.85 10.48,2.36 20.59,7.22 31.55,6.7 6.62,-0.26 13.54,0.76 19.9,-1.4 5.78,-4.22 2.67,-14.88 8.95,-18.4 28.9,-7 57.84,-13.89 86.7,-21.05 z"
       id="path6"
       inkscape:connector-curvature="0" />
    <path
       d="m 47.18,159.28 c 6.48,-4.02 10.84,-10.4 16.38,-15.48 18.58,16.32 37.24,32.58 55.64,49.12 2.12,2.34 5.44,2.26 8.3,2.94 2.08,2.1 4.14,4.22 6.2,6.36 -0.98,3.82 -1.94,7.64 -2.92,11.46 8.24,6.48 16.34,13.16 24.86,19.28 2.14,-1.4 4.28,-2.8 6.44,-4.2 3,2.36 6.02,4.7 9.06,7 -0.7,2.74 -1.42,5.48 -2.16,8.22 2.32,1.82 4.62,3.62 6.92,5.46 2.62,-1.18 5.24,-2.32 7.88,-3.46 2.6,2.06 5.22,4.14 7.86,6.18 -0.3,3.08 -0.6,6.16 -0.92,9.24 10.32,7.94 20.7,15.84 30.42,24.5 4.96,-2.26 4.54,-9.08 9.66,-11.04 13.4,-7.46 27.32,-14 41.02,-20.92 -0.9,-3.3 -1.76,-6.6 -2.64,-9.9 2.1,-1.5 4.2,-3 6.28,-4.5 -1.34,-8.02 -0.68,-16.58 -4.66,-23.92 -0.08,-2.76 -0.12,-5.52 -0.16,-8.3 -1.18,-1.62 -2.36,-3.24 -3.54,-4.86 2.4,-7.02 2.66,-15.32 8.24,-20.8 3.94,-4.02 8.76,-8.44 14.8,-8.18 9.12,0.32 19.54,1.04 26.1,8.28 4.1,5.34 7.78,11 12.14,16.16 0.18,8 5.56,14.2 9.5,20.72 22.78,-0.1 45.4,2.82 67.86,6.38 0.18,2.18 0.36,4.38 0.54,6.56 5.14,5 10.28,10.36 17.2,12.88 6.92,2.58 12.96,6.92 18.28,11.98 7.42,7 16.8,12.24 21.96,21.36 -0.86,1.34 -2.56,4.02 -3.4,5.36 18.08,16.32 31.84,36.6 46.76,55.68 5,5.58 4.32,13.42 5.96,20.26 2.2,9 -1.64,17.94 -2.92,26.8 -7.8,-9.92 -11.5,-22.6 -20.18,-31.84 -11.76,-5.12 -25.5,-5.14 -37.84,-2.06 -6.46,-6.2 -12.4,-12.92 -18.08,-19.84 -1.38,2.04 -2.74,4.1 -4.1,6.16 -4.18,0.5 -8.36,1.06 -12.54,1.58 3.7,13.04 10.04,26.36 7.46,40.18 -0.1,2.34 0.1,4.66 0.64,6.98 2.86,9.66 -4.56,19.06 -1.28,28.82 0.68,5.5 6.26,7.34 10.7,8.96 5,12.5 12.64,23.72 20.52,34.56 -3.2,6.18 -6.46,12.32 -9.8,18.44 -7.6,-1.8 -15.3,-5.36 -23.26,-3.5 -7.48,1.62 -15.52,2.16 -22.36,5.8 -4.84,4.84 -9.56,10.86 -10.26,17.9 0.86,7.68 3.58,15.42 9.14,21.02 4.64,4.24 4.24,11.24 8.18,15.9 7.46,8.88 12.16,19.68 19.36,28.74 4.5,4.54 10.6,6.96 15.94,10.36 -8.48,10.76 -16.7,21.74 -25.76,32.02 0.56,8.58 4.66,16.26 6.64,24.5 1.26,5.16 -1.8,10.7 0.58,15.68 2.76,5.96 4.64,12.28 5.96,18.72 -5.14,2.48 -10.32,4.84 -15.56,7.06 -0.62,7.64 -1.98,15.3 -1.08,22.96 1.72,12.68 6.48,24.74 12.08,36.16 2.78,2.4 6.98,2.52 10.4,3.72 7.18,8.98 -5.04,18.3 -0.96,28.18 -7.88,0.42 -15.76,0.82 -23.6,1.74 -8.02,1.64 -14.76,-4 -21.66,-7.02 0.12,-3.06 0.24,-6.12 0.36,-9.18 -5.68,-1.02 -11.28,-2.52 -16.74,-4.42 -0.88,-18.48 9.92,-35.22 8.38,-53.74 -0.54,-3.9 -1.46,-7.72 -2.28,-11.54 -9.46,-2.4 -13.54,-12.18 -18.5,-19.6 -1.4,-9.46 2.28,-18.9 2.16,-28.38 -1.6,-4.54 -4.52,-8.5 -5.92,-13.12 -0.3,-4.82 1.5,-9.44 2.54,-14.08 -4.3,-10.84 -14.34,-17 -24.2,-22.14 -0.12,-4.64 -0.2,-9.26 -0.28,-13.88 -7.76,-4.94 -14.64,-11.08 -21.5,-17.18 -3.14,1.02 -6.76,1.32 -9.2,3.78 -11.72,11.62 -24.06,22.6 -35.72,34.28 -0.18,7.84 5.68,13.92 5.82,21.66 1.98,14.4 9.16,27.5 11.44,41.82 -0.32,6.82 -8.3,8.42 -13.32,10.86 -1.66,16.44 0.26,32.84 2.1,49.16 2.56,5.86 6.04,11.52 5.56,18.22 0.74,0.36 2.18,1.06 2.92,1.42 0.2,3.72 0.44,7.46 0.74,11.2 -12.62,4.4 -27.98,8.5 -40.3,1.52 -16.86,11.48 -37.92,10.84 -57.34,13.06 -4.64,-1.88 -9.18,-3.94 -13.68,-6.14 0.3,-6.94 -1.1,-14.64 4.12,-20.2 10.1,-2.32 19.96,-6.36 30.52,-5.88 8.44,-6.14 17.78,-11.62 24.24,-20 4.98,-10.16 2.84,-21.8 0.74,-32.4 -6.52,-1.2 -13.02,-2.68 -19.5,-4.1 1.18,-6.82 1.12,-13.7 -0.82,-20.36 0.1,-10.9 1.96,-21.7 2.58,-32.58 1.08,-11.38 -0.26,-23.12 3.56,-34.1 5.2,-14.98 9.32,-30.26 13.94,-45.42 -6.74,-4.76 -13.82,-9.02 -20.9,-13.24 -3.72,-17.8 -1.52,-36.18 -3.4,-54.18 -1.58,-14.42 -0.42,-29.04 -2.3,-43.4 -0.32,-5.08 -5.22,-7.36 -8.98,-9.7 -10.52,-6.12 -20.96,-12.4 -31.46,-18.56 -0.78,-5.76 -2.28,-11.6 -1.38,-17.44 6.48,-15.08 19.4,-26.66 24.5,-42.4 -10.94,-7.34 -21.2,-15.64 -31.7,-23.62 -3.16,-3.32 -7.3,-0.12 -10.58,1.18 -3.06,-2.2 -6.1,-4.44 -9.12,-6.7 0.64,-2.62 1.28,-5.24 1.94,-7.86 -2.26,-1.72 -4.54,-3.44 -6.8,-5.14 -4.14,2.12 -9.12,4.12 -12.8,0 -4.42,-2.3 -2.16,-7.18 -1.7,-10.96 -8.48,-6.14 -16.92,-12.36 -25.08,-18.92 -3.3,2.1 -6.64,4.2 -9.98,6.26 -2.26,-1.5 -4.5,-3 -6.74,-4.52 -5.92,-11.04 -19.1,-14.84 -28.08,-22.88 -1.04,-0.12 -3.1,-0.38 -4.12,-0.52 -11.7,-4.92 -22.54,-13 -27.92,-24.82 -4.02,-1.28 -3.62,-5.72 -4.38,-9.08 8.22,-11.54 15.98,-23.4 23.48,-35.44 3.62,-5.52 7.18,-11.42 12.86,-15.1 z"
       id="path10"
       inkscape:connector-curvature="0"
       style="fill:#f4722b" />
    <path
       d="m 440.32,372.46 c 6.66,-3.2 12.8,-7.48 19.74,-10.04 7.5,-1.32 15.12,0.12 22.6,0.88 4.1,7.04 8.3,14 12.5,20.98 -0.26,0.92 -0.76,2.76 -1,3.68 3.36,2.66 7.3,4.8 9.86,8.32 2.14,4.2 3.24,8.82 4.66,13.32 -3.48,7.32 -9.76,13.86 -10.48,22.14 8.56,0.08 15.28,-7.36 22.04,-12 4.9,5.4 12.34,4.08 18.76,5.58 6.4,3.2 11.36,8.66 17.74,11.94 5.76,1.82 12.14,0.24 17.86,2.24 5.48,3.1 10.66,6.82 15.34,11.06 1.28,2.9 0.6,6.26 0.84,9.36 -0.3,14.74 0.32,29.46 0.48,44.18 0.28,6.86 -4.3,12.5 -7.28,18.3 4.26,6.12 8.7,12.14 13.22,18.1 -2.82,2.08 -5.76,4.06 -8.16,6.66 4.9,14.68 13.98,27.36 20.48,41.28 4.54,13.52 6.72,27.72 11.16,41.28 5.42,16.74 8.86,34 13.32,50.98 5.16,1.46 9.6,4.48 13.64,7.92 5.34,0.16 11.48,-2.02 16.16,1.54 3.12,2.06 6.32,4.2 8.72,7.14 2.22,5.54 2.16,11.86 5,17.16 5.78,7.18 12.82,13.24 18.98,20.1 5.68,-3.18 11.88,-5.96 18.5,-3.88 2.68,6.22 5.02,12.6 6.58,19.2 2.08,11.86 12.54,20.14 14.06,32.26 0.66,9.36 -0.86,21.72 -11.38,24.86 -13.1,-13.7 -16.5,-33.4 -25.94,-49.38 -9.48,-7.6 -20.34,-13.4 -30.36,-20.3 -7.74,1.56 -15.48,3.16 -23.26,4.6 -3.8,-3.74 -7.58,-7.7 -12.48,-10.02 -7.46,-4.5 -16.2,-0.48 -24.14,0.14 -5.26,-5.48 -11.14,-10.7 -14.22,-17.82 -9.38,-20.12 -19.06,-40.08 -28.5,-60.16 -12.16,2.88 -26.26,2.48 -36.06,11.26 -11.22,14.72 -21.42,30.2 -32.5,45.04 2.72,9.58 2.3,19.46 -0.72,28.92 1.22,2.2 2.42,4.4 3.64,6.62 -0.54,5.76 0.68,11.4 2.76,16.74 -5.7,2.3 -11.42,4.52 -17.16,6.68 -1.1,10.28 -3.66,20.34 -8.46,29.54 -4.82,8.98 -5.56,19.24 -7.02,29.14 -2.5,11.24 3.02,22.38 0.26,33.64 -11.38,1.74 -22.88,-0.24 -34.3,1.02 -14.76,2.22 -28.02,-6.98 -38.48,-16.32 1.1,-2.34 2.18,-4.7 3.28,-7.02 7.78,-0.2 15.54,-0.1 23.32,-0.04 10.14,0.98 18.28,-6.08 26.88,-10.24 2,-20.36 4.36,-40.7 6.52,-61.06 -3.98,-3.52 -7.96,-7.04 -11.98,-10.5 2.08,-5.22 4.62,-10.28 6.1,-15.7 2,-13.18 -0.8,-26.48 -0.32,-39.7 13.92,-25.36 29.64,-49.74 44.08,-74.84 5.22,-10.12 14.4,-17.14 22.1,-25.22 -0.84,-6.06 -1.7,-12.12 -2.24,-18.2 0.92,-3.78 1.46,-7.62 1.76,-11.48 -2.48,-0.92 -4.96,-1.84 -7.42,-2.76 0.4,-2.54 0.8,-5.06 1.22,-7.58 -5.48,-0.02 -10.94,-0.02 -16.4,0.04 -3.64,4.9 -7.74,9.44 -12.22,13.6 -4.36,-2.06 -8.64,-4.32 -12.86,-6.64 -8,-4.78 -18.26,-2.74 -26.04,-8.12 -10.6,-4.82 -14.46,-16.48 -20.92,-25.26 0.06,-1.26 0.16,-3.8 0.2,-5.08 -2.38,-1.12 -4.74,-2.24 -7.12,-3.38 -0.84,-3.86 -1.72,-7.7 -2.62,-11.54 -5.9,-4.3 -9.8,-10.46 -11.44,-17.54 2.06,-2.92 4.12,-5.84 6.16,-8.76 9.18,-1.38 18.62,-5.46 27.88,-2.26 11.26,3.5 20,11.96 30.22,17.58 0.14,-3.58 0.44,-7.16 0.2,-10.74 -1.84,-5.06 -5.4,-9.28 -8.28,-13.78 1.04,-0.68 3.12,-2.04 4.16,-2.72 0.3,-9.58 8.78,-15.56 11.2,-24.38 -2.38,0 -4.78,0 -7.16,0.02 -9.72,-13.36 -19.96,-27.34 -22.16,-44.2 -2.72,1.44 -5.42,2.88 -8.12,4.34 0.24,-3.7 0.48,-7.38 0.72,-11.06 1.32,-1.42 2.66,-2.84 4,-4.26 -1.16,-4.6 -2.4,-9.18 -3.26,-13.84 -1.14,-4.22 2.14,-7.84 3.56,-11.56 z"
       id="path14"
       inkscape:connector-curvature="0"
       style="fill:#f4722b" />
    <path
       d="m 435.66,663.62 c 8.12,-0.08 16.26,-0.26 24.38,-0.36 -2,2.64 -2.92,6.56 -6,8.06 -8.8,1.18 -17.7,1.28 -26.56,1.64 2.7,-3.14 5.42,-6.26 8.18,-9.34 z"
       id="path16"
       inkscape:connector-curvature="0"
       style="fill:#f5e5c1" />
    <path
       d="m 540.68,671.32 c 6,-2 12.24,-3.08 18.46,-4.16 0.12,1.12 0.38,3.36 0.5,4.5 -6.32,0.1 -12.66,0.14 -18.96,-0.34 z"
       id="path18"
       inkscape:connector-curvature="0"
       style="fill:#f5e5c1" />
    <path
       d="m 647.08,667.08 c 22.32,2 44.74,3.18 66.96,6.1 13.54,1.46 27.04,3.64 40.66,4.2 2.74,3.32 5.78,6.76 6,11.34 -26.16,-3.82 -52.42,-6.66 -78.64,-9.74 -10.9,-0.48 -21.54,-3.62 -32.5,-2.88 -0.88,-3 -1.7,-6.02 -2.48,-9.02 z"
       id="path20"
       inkscape:connector-curvature="0"
       style="fill:#f5e5c1" />
    <path
       d="m 286.94,676.3 c 17.64,-3.12 35.48,-5.5 53.4,-5.9 0.64,0.58 1.92,1.74 2.58,2.3 3.92,0.94 7.82,2.08 11.62,3.48 -22.8,2.7 -45.76,3.66 -68.48,6.96 0.22,-1.72 0.66,-5.14 0.88,-6.84 z"
       id="path22"
       inkscape:connector-curvature="0"
       style="fill:#f5e5c1" />
    <path
       d="m 421.78,680.44 c 9.66,0.42 19.3,-0.44 28.94,-1.16 -2.06,2.26 -3.06,6.56 -6.78,6.54 -9.38,0.7 -18.8,0.28 -28.16,1.24 1.98,-2.24 3.98,-4.42 6,-6.62 z"
       id="path24"
       inkscape:connector-curvature="0"
       style="fill:#f5e5c1" />
    <path
       d="m 529.18,685.06 c 1.62,-1.88 3.24,-3.76 4.88,-5.62 7.7,-0.04 15.4,-0.04 23.1,-0.04 -0.34,1.44 -1.04,4.32 -1.38,5.76 -8.86,-0.08 -17.74,-0.04 -26.6,-0.1 z"
       id="path26"
       inkscape:connector-curvature="0"
       style="fill:#f5e5c1" />
    <path
       d="m 287.24,691.36 c 24.12,-2.46 48.26,-6.02 72.52,-6.58 0.34,1.5 1.06,4.5 1.42,5.98 -24.52,2.88 -49.08,5.44 -73.36,9.92 -0.2,-3.12 -0.4,-6.22 -0.58,-9.32 z"
       id="path28"
       inkscape:connector-curvature="0"
       style="fill:#f5e5c1" />
    <path
       d="m 679.04,686.56 c 18.72,3.62 37.98,3.08 56.72,6.66 7.68,1.28 15.36,2.72 23.04,4.12 -0.5,3.52 -1.02,7.06 -1.52,10.6 -23.98,-4.82 -48.12,-8.82 -72.3,-12.54 -1.7,-3.14 -3.66,-6.12 -5.94,-8.84 z"
       id="path30"
       inkscape:connector-curvature="0"
       style="fill:#f5e5c1" />
    <path
       d="m 66.14,734.06 c 36.62,-21.3 78.24,-31.68 119.12,-41.36 -4.28,4.1 -8.18,9.32 -14.4,10.46 -19.06,4.98 -38.14,10.72 -55.5,20.2 -7.76,4.48 -15.76,9.88 -19.74,18.22 -2.7,6.32 -0.68,13.74 3.92,18.64 9.2,10.22 22.2,15.84 34.68,20.92 26.92,10.38 55.28,16.4 83.56,21.76 71.8,12.84 144.7,17.72 217.46,20.98 -9.3,6.14 -20.82,2.18 -31.18,3.34 -13.06,-1.26 -22.38,16.1 -15.94,26.66 12.84,12.94 31.06,23.4 49.86,20.6 12.46,-1.4 25.68,2.44 37.54,-3 7.06,-3.62 6.98,-12.76 7.5,-19.6 -1.12,-8.84 -3.04,-17.7 -0.9,-26.58 76.12,0.78 152.18,-3.82 227.92,-11.12 5.7,-0.94 10.16,4.06 15.7,4.04 7.54,-1.16 13.04,-7.54 20.58,-8.7 40.72,-5.78 81.6,-12.78 120.52,-26.42 14.64,-5.6 30.12,-11.68 40.62,-23.84 6.46,-7 5.22,-18.7 -1.8,-24.86 -14.48,-14.24 -34.56,-20.02 -53.16,-26.7 -6.2,-3.48 -10.1,-10.14 -14,-15.9 9,4.18 19.04,5.02 28.46,7.9 33.94,9.18 68.4,19.54 97.88,39.26 11.62,8.3 24.34,19.7 24.26,35.16 0.7,14.42 -10.68,25.4 -21.14,33.62 -25.24,18.28 -55.28,28.16 -84.8,37.08 -72.04,20.46 -146.7,29.66 -221.14,35.9 -121.86,9 -244.64,7.62 -366.06,-6.46 -57.16,-6.74 -114.26,-16.42 -169.3,-33.58 -26,-8.46 -52.3,-18.22 -74.1,-35.18 -11.2,-8.68 -21.2,-22.2 -17.8,-37.18 4.08,-15.74 18.26,-26.08 31.38,-34.26 z"
       id="path32"
       inkscape:connector-curvature="0"
       style="fill:#f5e5c1" />
    <path
       d="m 521.18,696.5 c 1.64,-1.2 2.74,-3.64 5,-3.66 10.12,-0.42 20.28,-0.3 30.38,0.46 4.38,6.9 14.2,2.24 19.32,8.22 -18.2,-1.9 -36.34,-4.7 -54.7,-5.02 z"
       id="path34"
       inkscape:connector-curvature="0"
       style="fill:#f5e5c1" />
    <path
       d="m 417.62,694.8 c 7.98,-0.24 15.94,-1.08 23.92,-1.46 -0.98,3.02 -1.94,6.04 -2.88,9.08 -5.2,1.22 -10.4,2.48 -15.64,3.54 -1.78,-3.74 -3.58,-7.46 -5.4,-11.16 z"
       id="path36"
       inkscape:connector-curvature="0"
       style="fill:#f5e5c1" />
    <path
       d="m 289.48,709.8 c 23.3,-4.32 46.8,-7.36 70.28,-10.52 -2.9,22.18 -8.2,43.94 -11.54,66.04 22.78,-1.7 45.96,5.06 64.12,18.88 11.22,-2.6 21.62,-7.96 32.5,-11.7 -1.6,14.46 -3.12,28.92 -4.72,43.38 -52.24,-1.6 -104.5,-6.68 -155.8,-16.92 -26.76,-5.92 -54.52,-11.82 -77.84,-26.92 11.48,-3.66 23.32,-6 35.32,-7.16 16.56,-2.78 32.94,-6.98 49.76,-7.98 1.48,-8.12 5.3,-16.52 2.38,-24.76 -1.92,-7.36 -3.28,-14.84 -4.46,-22.34 z"
       id="path38"
       inkscape:connector-curvature="0"
       style="fill:#f5e5c1" />
    <path
       d="m 516.12,704.2 c 21,0.84 42.58,0.94 62.84,6.88 4.12,7.34 6.86,15.52 12.9,21.64 -26.14,8.02 -53.68,9.72 -80.86,10.28 -1.42,-3.54 -2.68,-7.24 -1.28,-11 1.84,-6.12 0.96,-12.46 -0.42,-18.56 2.26,-3.1 4.54,-6.18 6.82,-9.24 z"
       id="path40"
       inkscape:connector-curvature="0"
       style="fill:#f4722b" />
    <path
       d="m 685.58,705 c 26.42,3.74 53.08,8.2 78.14,17.66 13.2,3.2 26.06,8.52 37.08,16.56 5.66,4.38 11.66,11.06 9.8,18.8 -2.18,7.2 -8.44,12.08 -14.52,16 -14.96,9.18 -31.98,14.08 -48.68,19.06 2.22,-13.96 -3.88,-27.48 -11.58,-38.74 -5.08,-10.1 -4.94,-22.74 -12.66,-31.52 -6.86,-4.92 -16.24,-6.38 -24.1,-3.06 -4.54,-4.88 -9.28,-9.58 -13.48,-14.76 z"
       id="path42"
       inkscape:connector-curvature="0"
       style="fill:#f5e5c1" />
    <path
       d="m 425.94,713.2 c 4.4,-1.22 8.84,-2.3 13.32,-3.3 0.42,6.78 0.7,13.58 0.78,20.38 -5.26,-5.22 -10.18,-10.78 -14.1,-17.08 z"
       id="path44"
       inkscape:connector-curvature="0"
       style="fill:#f4722b" />
    <path
       d="m 128.52,736.62 c 8.7,-8.96 20.64,-13.5 31.84,-18.44 -4.94,7.18 -10.42,14.3 -13.32,22.6 -0.96,9.1 -0.18,18.28 -0.34,27.4 10.76,1.98 23.54,-1.24 32.44,6.52 10.38,7.66 22.54,12.5 34.82,16.2 2.1,0.12 3.4,1.82 3.42,3.8 -2.72,-5.22 -9.16,-3.04 -13.76,-4.6 -20.84,-5.16 -41.92,-10.7 -61.06,-20.7 -7.44,-4.2 -15.4,-9.28 -18.78,-17.5 -2.26,-5.52 0.92,-11.36 4.74,-15.28 z"
       id="path46"
       inkscape:connector-curvature="0"
       style="fill:#f5e5c1" />
    <path
       d="m 863.7,726.14 c 7.6,5.02 17.1,10.08 19.18,19.78 1.18,8.86 -6.54,15.34 -13.14,19.82 -17.56,11 -37.78,16.64 -57.62,21.96 -8.58,2.34 -17.22,4.52 -26.12,5.1 13.04,-3.2 25.46,-8.82 37,-15.66 7.92,-5.24 17.2,-12.64 16.5,-23.2 -0.68,-10.02 -9.64,-16.58 -17.42,-21.52 15.58,0.66 31.18,0.98 46.78,1.12 -1.72,-2.48 -3.44,-4.94 -5.16,-7.4 z"
       id="path48"
       inkscape:connector-curvature="0"
       style="fill:#f5e5c1" />
    <path
       d="m 590.22,749.02 c 11.58,-1.64 22.58,-6.28 34.26,-7.24 8.1,1.9 11.78,12.46 20.84,11.84 6.82,-0.68 13.46,-2.56 20.2,-3.8 7.82,5.22 15.66,10.42 23.6,15.44 5.58,12.28 10.78,24.72 16.62,36.88 -41.58,6.64 -83.48,11.78 -125.58,13.08 -32.34,1.32 -64.7,2.04 -97.08,1.54 3.38,-13.3 11.66,-25 12.98,-38.9 5.1,-2.02 10.68,-3.42 15,-6.94 4.16,-4.3 2.94,-10.7 1.96,-15.94 25.82,0.02 51.68,-1.9 77.2,-5.96 z"
       id="path50"
       inkscape:connector-curvature="0"
       style="fill:#f5e5c1" />
  </g>
</svg>
