<?xml version="1.0" encoding="UTF-8" standalone="no"?>
<svg
   xmlns:dc="http://purl.org/dc/elements/1.1/"
   xmlns:cc="http://creativecommons.org/ns#"
   xmlns:rdf="http://www.w3.org/1999/02/22-rdf-syntax-ns#"
   xmlns:svg="http://www.w3.org/2000/svg"
   xmlns="http://www.w3.org/2000/svg"
   xmlns:sodipodi="http://sodipodi.sourceforge.net/DTD/sodipodi-0.dtd"
   xmlns:inkscape="http://www.inkscape.org/namespaces/inkscape"
   width="1280.0001"
   height="1280"
   viewBox="0 0 1024.0001 1024"
   version="1.1"
   id="svg2"
   inkscape:version="0.48.1 "
   sodipodi:docname="kill_rjer.svg">
  <metadata
     id="metadata84">
    <rdf:RDF>
      <cc:Work
         rdf:about="">
        <dc:format>image/svg+xml</dc:format>
        <dc:type
           rdf:resource="http://purl.org/dc/dcmitype/StillImage" />
      </cc:Work>
    </rdf:RDF>
  </metadata>
  <defs
     id="defs82" />
  <sodipodi:namedview
     pagecolor="#ffffff"
     bordercolor="#666666"
     borderopacity="1"
     objecttolerance="10"
     gridtolerance="10"
     guidetolerance="10"
     inkscape:pageopacity="0"
     inkscape:pageshadow="2"
     inkscape:window-width="1920"
     inkscape:window-height="1018"
     id="namedview80"
     showgrid="false"
     inkscape:snap-page="true"
     fit-margin-top="0"
     fit-margin-left="0"
     fit-margin-right="0"
     fit-margin-bottom="0"
     inkscape:zoom="0.6609375"
     inkscape:cx="640.00006"
     inkscape:cy="640"
     inkscape:window-x="-8"
     inkscape:window-y="-8"
     inkscape:window-maximized="1"
     inkscape:current-layer="svg2" />
  <rect
     style="fill:#3e3e3e;fill-opacity:1;fill-rule:nonzero;stroke:none"
     id="rect3078"
     width="1024"
     height="1024"
     x="0"
     y="2.2737368e-013" />
  <path
     d="M 0,0 0.04,0 C 0.04,0.04 0.02,0.14 0,0.2 L 0,0 z"
     id="path4"
     inkscape:connector-curvature="0"
     style="fill:#f4722b" />
  <path
     style="fill:#f4722b"
     d="m 74.65,20.1 c -3.839317,0.0472 -6.70875,3.03375 -9,6.3 -1.3,0.16 -3.93,0.44 -5.25,0.6 -2.22,10.52 -2.3,21.36 -3.8,32 2.4,0.04 4.83,0.08 7.25,0.1 4.56,9.78 8.06,21.14 17.4,27.5 12.46,9.16 26.1,16.52 38.9,25.2 2.32,-3 5.61,-4.86 8.65,-7 1.8,-5.56 -1.1,-11.48 -2.7,-16.8 -1.8,-6.78 -9.47,-8.04 -14.65,-11.3 C 104.05,73.36 98.68,66.16 90.3,65 86.58,59.22 82.86,53.42 78.9,47.8 c 1.38,-2.7 2.77,-5.4 4.15,-8.1 -2.58,-1.18 -5.16,-2.34 -7.8,-3.4 1.5,-5.1 2.34,-10.36 2.2,-15.7 -0.99375,-0.33 -1.914003,-0.51088 -2.8,-0.5 z m -5.15,7.65 c 1.56,6.26 0.96,14.13 -4.5,18.35 0.4,-6.22 -0.98,-13.91 4.5,-18.35 z"
     id="path12"
     inkscape:connector-curvature="0" />
  <path
     style="fill:#f4722b"
     d="M 66,81.65 C 53.94,81.51 42.84,92.14 42.4,104.2 c -0.26,7.16 1.37,15.3 7.25,20 6.84,3.92 14.48,6.39 20.8,11.25 9.7,7.14 20.67,12.56 29.75,20.5 1.92,6.3 0.87,13.04 2.45,19.4 2.62,5.92 10.4,7.05 13.8,12.25 0.14,12.18 0.46,24.84 6,36 7.8,12.04 19.09,21.23 30.95,29.05 2.72,1.7 6.25,1.04 9.05,-0.1 5.8,-4.24 3.56,-12.12 3.7,-18.2 4.92,-2.1 9.81,-4.19 14.75,-6.25 2.2,11.86 -0.38,24.36 4.1,35.8 -2.46,11.8 -2.73,24.02 -0.85,35.9 1.1,7.94 9.5,15.94 17.8,12.6 7.72,-6.04 13.33,-14.22 19.55,-21.7 -0.6,10.3 -9.73,16.76 -13.55,25.8 -5.94,2.1 -12.69,3.48 -18.35,-0.2 -8.46,-4.22 -10.7,-14.14 -11.7,-22.7 -2.68,10.28 -3.32,20.99 -6.5,31.15 -3.64,11.94 2.82,23.51 7.4,34.15 3.24,8 7.09,17.03 15.85,20.25 8.64,3.08 14.7,14.33 25,10.85 11.88,-5.54 21.75,-14.27 31.55,-22.75 14.6,-10.6 28.24,-22.38 42.9,-32.9 -10.72,-19.02 -17.05,-39.94 -23.75,-60.6 -11.28,6.5 -20.37,15.98 -30.35,24.2 -2.88,2.04 -5.25,5.77 -9.15,5.65 -0.86,-4.28 2.2,-7.8 3.8,-11.5 -3.72,-12.06 -8.53,-25.89 -2.65,-38.05 2.46,-5.42 5.21,-10.67 7.75,-16.05 -15.02,-0.18 -29.67,-3.44 -44.45,-5.8 -0.84,2.16 -1.71,4.34 -2.55,6.5 -3.84,-8.44 -4.56,-17.83 -5.4,-26.95 -0.64,-13.46 -1.53,-26.89 -2.05,-40.35 -9.52,-2.16 -19.18,-3.61 -28.6,-6.25 -6.08,-1.6 -12.52,-3.38 -18.8,-1.9 -9.86,4.56 -17.59,12.69 -27.55,17.15 5.56,-8.5 15.09,-13.32 23.35,-18.8 11.86,-3.98 24.36,0.43 36.1,2.85 9.4,1.72 18.7,4.07 27.6,7.65 -2.86,0.36 -5.69,0.74 -8.55,1.1 1.52,18.54 1.29,37.22 4.45,55.6 32.34,8.04 65.84,4.59 98.7,2.85 12.54,-0.68 25.79,1.38 37.55,-4.1 10.46,-4.72 22.57,-6.65 30.95,-15.05 5.04,-5.58 13.1,-3.13 19.7,-4.25 10.96,-0.26 18.64,-9.72 29.3,-11.1 -6.6,5.92 -14.73,9.89 -22.85,13.25 -7.2,1.38 -14.63,1.1 -21.85,2.3 -9.68,10.82 -24.68,13 -37.3,18.8 -11.56,4.96 -24.34,1.95 -36.4,3.85 -3.08,1.36 -5.01,4.53 -7.45,6.75 1.78,5.24 4.17,10.3 7.95,14.4 0.76,-2.58 1.48,-5.22 2.2,-7.8 5.5,0.44 10.99,1.04 16.45,1.8 -5,3.6 -10.11,7.06 -15.15,10.6 -0.66,9.38 -6.12,17.72 -6,27.2 -0.1,3.38 -0.01,6.75 0.05,10.15 l -5.05,5.3 c 3.7,8.8 7.43,17.64 12.25,25.9 7.06,12.02 12.13,25.09 19.15,37.15 8.68,-5.24 17.12,-11.16 26.8,-14.4 4.1,1.62 7.52,5.29 12.1,5.45 4.2,-1.2 7.65,-4.08 11.35,-6.3 11.42,-7.48 23.81,-13.23 35.35,-20.55 10.52,-6.86 23.67,-5.13 35.55,-6.85 9.06,-0.56 19.18,-3.55 27.4,1.75 11.48,7.02 19.48,18.17 29.3,27.15 l 12.4,14.15 c 4.62,4.6 8.88,10.7 5.2,17.3 -4.36347,-4.32362 -8.42968,-8.93218 -12,-13.95 -5.8e-4,-0.008 -0.0477,-0.0404 -0.05,-0.05 -0.24928,-1.0313 -10.426,-13.4137 -11.75,-14.35 -0.008,-0.01 0.008,-0.0403 0,-0.05 -0.0157,-0.0106 -0.0872,-0.0431 -0.1,-0.05 -4.26773,-4.98571 -8.3983,-10.05755 -12.35,-15.3 -18.42,-2.48 -36.53,-6.76 -54.95,-9.3 -0.52,-0.14499 -0.99258,-0.22152 -1.45,-0.2 -3.20195,0.15067 -4.98,4.0075 -6.8,6.3 -3.72,6.16 -8.31,11.99 -10.85,18.75 0.24,4.74 1.89,9.21 3.15,13.75 3.94,12.4 5.86,25.54 12.3,37 9.6e-4,0.004 0.049,-0.004 0.05,0 0.48669,1.91877 10.04685,14.92349 10.25,15.2 0.002,0.003 0.1,0.15 0.1,0.15 6.29699,10.80062 19.46126,12.82384 29.95,17.7 4.42,12.2 8.17,24.64 12.15,37 3.8,10.1 -5.28,20.78 1.3,30.5 6.88,-7.06 12.34,-15.4 19.7,-22 5,-5.44 11.77,-8.99 16.45,-14.65 0.46,-11.6 0.62,-23.24 1.8,-34.8 3,-3.18 6.78,-6.31 7,-11.05 2.06,-16.42 5.55,-33.15 2.15,-49.65 -3.64,-2.68 -7.26,-5.38 -10.8,-8.2 -0.22341,-0.18397 -11.18293,-14.54405 -11.5,-14.8 -0.0156,-0.0176 -0.0343,-0.0324 -0.05,-0.05 -9.58936,-10.79758 -20.70656,-20.13677 -30.85,-30.4 -6.7,-5.9 -12.75,-13.05 -20.95,-16.85 -25.02,-0.16 -50.3,2.92 -75.2,-0.7 -1.66,4.28 -3.29,8.53 -4.85,12.85 -9.88,1 -19.72,-0.38 -29.6,-0.4 -2.64,-8.36 -6.03,-17.34 -3.05,-26.1 -0.84,0.12 -1.68,0.29 -2.5,0.45 0.3,5.7 -1.7,10.93 -5.6,15.05 -1.38,3.52 -1.14,9.26 -5.9,10 -7.12,0.66 -14.28,0.35 -21.4,1.05 -3.34,-6.62 -4.77,-13.97 -4.55,-21.35 0.06,-8.68 -0.53,-19.02 6.05,-25.7 9.06,-4.08 19.71,-3 27.65,3 -1.2,2.66 -0.55,7.48 -4.45,8 -8,2.26 -16.32,0 -24.3,-1.2 -0.3,3.52 -3.17,7.55 -0.45,10.65 8.76,0.7 17.52,0.11 26.3,0.55 0.06,-1.98 0.12,-3.94 0.2,-5.9 0.84,-0.34 2.56,-1.03 3.4,-1.35 3.02,-11.24 6.15,-22.6 12.35,-32.6 5.24,-0.34 10.45,-0.85 15.65,-1.65 -6.46,2.94 -12.19,7.16 -17.25,12.1 0.16,2.5 0.34,5 0.5,7.5 9.6,-1.3 19.51,-1.38 28.75,1.9 l 2.7,5.9 c 25.66,-6.8 51.45,5.14 77.35,3.4 0.64,1.42 1.91,4.26 2.55,5.7 -3.28,1.94 -6.52,4 -9.7,6.1 9.1,6.92 17.87,14.35 25.75,22.65 4.84,5.36 12.16,6.73 18.7,8.95 15.06,4.62 29.21,11.82 44.65,15.3 8.84,-2.94 17.81,-5.5 26.85,-7.8 -14.32,-15.48 -31.65,-28.95 -51.45,-36.55 -2.02,-2.84 -3.74,-6.34 -7.2,-7.7 -13.18,-5.96 -27.82,-7.12 -42,-8.9 -2.26,-11.04 -3.92,-22.33 -8.4,-32.75 -5.28,-11.86 -5.43,-25.02 -8.35,-37.5 -4.54,-21.06 -12,-41.34 -18.3,-61.9 -1.82,-7.18 -6,-14.49 -13.5,-16.85 -7.34,-0.12 -14.79,0.73 -21.75,3.15 -6.58,3.36 -12.43,8.04 -19.35,10.8 -11.7,4.88 -22.63,12.11 -35.15,14.75 -20.52,1.72 -41.05,2.84 -61.55,4.8 -12.88,1.08 -25.44,4.79 -38.4,5.05 -7.6,0.12 -14.94,2.18 -21.9,5.1 -26.06,-16.96 -51.9,-34.18 -77.9,-51.2 C 114.69,110.1 98.33,102.48 83.65,92.4 77.93,88.62 73.5,81.79 66,81.65 z m -6.55,3.45 c 1.842773,-0.043 3.575,0.9125 3.45,3.1 2.32,9.88 -3.57,20.89 -12.85,24.75 -3.88,1 -6.08,-3.63 -5.4,-6.85 0,-8.18 4.13,-16.42 11.75,-19.9 0.787501,-0.6825 1.944336,-1.07422 3.05,-1.1 z M 318.1,252.6 c -1.5,4.02 -2.41,8.79 -6.05,11.55 -4.44,1.84 -9.29,1.62 -13.95,2.3 3.82,-7.48 12.68,-10.67 20,-13.85 z m 42.45,0.35 c 0.60234,-0.003 1.19626,0.0463 1.8,0.1 -3.4,3.86 -6.28,8.19 -6.2,13.55 -6.04,-1.48 -12.12,-0.52 -18.2,0.1 4.78125,-7.36875 13.56485,-13.70034 22.6,-13.75 z m -128.45,53.3 c 6.5,13.18 10.06,28.45 8.3,43.15 -0.68,-1.12 -2.1,-3.38 -2.8,-4.5 -2.36,-12.98 -2.05,-27.64 -10.55,-38.5 1.26,-0.04 3.79,-0.11 5.05,-0.15 z"
     id="path16"
     inkscape:connector-curvature="0" />
  <path
     d="m 260.26,146.1 c -0.32,-17.84 16.08,-33.2 33.7,-32.82 15.92,0.6 32.34,7.84 40.98,21.74 2.92,5.12 8.82,11.02 5.28,17.2 -2.46,-5.18 -4.02,-12.1 -10.2,-14.1 -9,-2.14 -17.92,-6.62 -27.4,-5.02 -5.86,0.92 -11.68,2.28 -17.64,2.28 -7.34,7.12 -18.34,13.72 -18.14,25.18 -7.38,-0.74 -6.16,-9.12 -6.58,-14.46 z"
     id="path20"
     inkscape:connector-curvature="0"
     style="fill:#f4722b" />
  <path
     d="m 293.2,136.52 c 9.08,-2.78 18.54,-1.42 27.64,0.44 5.42,4.88 9.86,10.72 13.36,17.1 -20.54,2.22 -41.24,3.46 -61.86,5.28 1,-11.18 9.76,-20.94 20.86,-22.82 z"
     id="path22"
     inkscape:connector-curvature="0"
     style="fill:#f4722b" />
  <path
     d="m 240,247.44 c 1.18,-3 -0.04,-8.64 4.48,-8.74 12.6,-2.2 25.36,-0.3 38.02,-0.18 -4.26,5.74 -10.08,10.12 -14.08,16.04 -0.52,2.88 -0.14,5.8 -0.06,8.7 4.88,3.5 7.08,9.46 11.68,13.24 3.6,1 4.4,-4.36 6.42,-6.42 -3.56,7.54 -3.26,15.9 -3.96,24 -0.52,0.54 -1.56,1.62 -2.08,2.16 -1.4,-9.14 -7.78,-17.18 -7.1,-26.58 -1.78,-2.1 -3.62,-4.12 -5.48,-6.12 -10.62,-2.4 -18.32,-11.2 -27.84,-16.1 z"
     id="path24"
     inkscape:connector-curvature="0"
     style="fill:#f4722b" />
  <path
     d="m 332.92,290.9 c 0.12,-4.34 0.26,-8.68 0.34,-13.02 8.2,6.2 19.14,2.2 28.54,4.62 4.94,0.26 2.24,6.72 3.2,9.86 -1.14,0.36 -3.4,1.12 -4.54,1.48 -9.2,-0.88 -18.26,-3.1 -27.54,-2.94 z"
     id="path32"
     inkscape:connector-curvature="0"
     style="fill:#f4722b" />
  <path
     d="m 293.14,295.28 c 8.34,-0.28 16.72,-0.72 25.02,0.38 3.78,2.08 0.44,6.58 0.54,9.76 -7.8,-0.08 -15.9,-1.08 -23.36,1.84 -0.7,-4 -1.46,-8 -2.2,-11.98 z"
     id="path34"
     inkscape:connector-curvature="0"
     style="fill:#f4722b" />
  <path
     d="m 332.74,294.94 c 10.44,-0.82 20.48,3.28 30.94,2.34 -0.3,3.4 -0.6,6.8 -0.9,10.22 -9.28,-2.3 -18.82,-3.7 -28.36,-2.5 -0.58,-3.36 -1.14,-6.72 -1.68,-10.06 z"
     id="path36"
     inkscape:connector-curvature="0"
     style="fill:#f4722b" />
  <path
     d="m 334.96,359.08 c 10.12,-3.88 19.02,4.22 27.42,8.64 -17.44,27.38 -34.88,54.74 -53.12,81.6 -4.16,5.86 -7.24,12.56 -12.24,17.8 -3.4,1.86 -7.54,1.32 -11.18,2.58 -2.72,1.98 -4.1,5.16 -5.98,7.86 3.26,3.58 6.54,7.14 9.9,10.64 -4.36,-3.1 -10.28,-5.02 -12.64,-10.18 -1.04,-4.88 2.24,-8.88 4.84,-12.58 -5.34,-3.36 -10.18,-7.6 -12.44,-13.7 5.34,-10.76 9.76,-22 15.84,-32.38 3.8,-6.52 5.76,-13.92 9.86,-20.26 5.08,-8.66 11.86,-16.08 17.7,-24.2 5.14,-7.78 14.06,-11.66 22.04,-15.82 z"
     id="path46"
     inkscape:connector-curvature="0"
     style="fill:#f4722b" />
  <path
     style="fill:#f4722b"
     d="m 398.6,361.55 c -10.26,6.08 -22.09,7.25 -33.45,9.85 -4.14,16.66 -5.97,33.74 -9.05,50.6 -2.02,12.6 -12.27,21.4 -17.45,32.6 -5.12,12.64 -20.53,13.93 -29.95,22.05 -4.32,7.64 -4.44,16.72 -7.2,24.9 -5.48,16.56 -10.89,33.27 -13.55,50.55 -1.92,7.28 5.67,11.56 8.75,17.2 7.5256,12.74786 16.39819,24.62325 25.9,35.95 0.0686,0.0819 0.1312,0.16819 0.2,0.25 2.67384,3.70582 16.6,17.7 16.6,17.7 l 47.65,19.4 c 16.06016,10.98096 30.48115,24.39374 43.8,38.55 4.34,4.22 4.65,10.57 5.85,16.15 1.94,11.58 6.38,22.83 5.8,34.75 -0.7,16.14 -8.24,30.84 -12,46.3 -1.18,5.98 4.39,9.44 8.45,12.5 -1.98,3.9 -5.64,8.49 -2.9,12.95 3.06,6.28 11.59,6.44 16.75,2.7 7.44,-4.96 13.78,-11.61 18.7,-19.05 3.34,-8.14 6.17,-16.55 11.25,-23.85 1.71883,-1.63757 6.01696,-19.11677 6.4,-21.65 0.003,-0.016 -0.003,-0.0339 0,-0.0499 2.32851,-10.48482 2.0808,-21.25629 2.6,-31.9 2.32,-5.44 7.35,-9.33 9.45,-14.95 4.08,-9.52 8.63,-18.94 11.25,-29 1.48,-5.12 0.75,-11.66 -3.85,-14.9 -5.52,-2.6 -11.46,-0.29 -16.4,2.45 -8.29779,-3.99008 -16.61019,-7.89981 -25.3,-10.95 l -36.95,-27 c -0.008,-0.0112 0.008,-0.0386 0,-0.0499 -7.75093,-11.36941 -14.88755,-23.14157 -22.4,-34.65 1.4,-4.76 4.94,-12.53 -1,-15.55 -11.38,-6.36 -24.85,-6.02 -37.45,-7.6 17.24,-19.06 36.72,-35.99 57,-51.75 6.58,-5.36 14.82,-7.71 22.3,-11.45 6.46,-3.2 12.63,-6.96 18.85,-10.6 -3.3,-13.92 -8.65,-27.18 -12.55,-40.9 -10.28835,-6.05315 -24.84566,-7.03877 -30.3,-19.1 -3.63149,-4.62286 -7.26571,-9.72256 -10.6,-15.35 -8.21714,-14.45032 -10.27747,-31.40326 -15.2,-47.1 z"
     id="path48"
     inkscape:connector-curvature="0"
     sodipodi:nodetypes="cccccccccccccccccccccccccccccccccccccccccc" />
  <path
     d="m 477.62,529.68 c 8.14,-12.16 17.52,-23.5 28.34,-33.38 0.66,5.46 0.24,11.48 3.5,16.26 10.16,16.16 17.18,34.06 27.4,50.2 10.44,1.28 15.58,12.72 14.24,22.2 -2.72,7.4 -10.44,11.18 -16.36,15.76 -11.94,8.24 -25.52,17.76 -40.76,15.72 -7.8,-2.08 -5.16,-10.9 -3.82,-16.54 1.88,-5.88 -1.9,-11.6 -1.26,-17.52 0.38,-5.26 2.16,-10.58 0.7,-15.8 -3.12,-12.58 -8.4,-24.48 -11.98,-36.9 z"
     id="path62"
     inkscape:connector-curvature="0"
     style="fill:#f4722b" />
  <path
     style="fill:#f5e5c1"
     d="m 615.75,0 c -0.04,28.56 -0.0301,57.14 -0.0499,85.7 -27.98,0.16 -55.96,-0.24 -83.9,0.2 -6.66,-0.22 -14.14,4.86 -13,12.2 0.46,7.34 8.65,10.49 15.05,10.15 27.28,0.1 54.57,0.01 81.85,0.05 -0.02,71.32 0.04,142.58 0,213.9 -21,0.94 -41.85,4.26 -62.25,9.3 -9.04,2.3 -18.01,4.86 -26.85,7.8 -10.9,3.76 -21.5,8.23 -31.9,13.15 -0.32,0.16 -1.01,0.46 -1.35,0.6 -2.08,1 -4.16,2.02 -6.2,3.1 -25.86,13.6 -49.97,30.62 -71.05,50.9 -0.5,0.52 -1.48,1.58 -2,2.1 -32.3,31.38 -57.47,70.1 -72.95,112.4 -9.66,27.04 -15.89,55.33 -18.35,83.95 -0.32,4.72 -0.5,9.48 -0.7,14.2 -53.94,0 -107.86,0.04 -161.8,0 -0.14,-27.92 0.22992,-55.85 -0.14992,-83.75 0.26,-6.64 -4.81,-14.21 -12.15,-13.15 -7.44,0.36 -10.59,8.66 -10.25,15.1 -0.14,27.28 0.01,54.54 -0.05,81.8 -45.92,0.02 -91.8,0.02 -137.7,0 l 0,22.6 c 45.9,0.02 91.8,-0.04 137.7,0 0.1,31.28 -0.07,62.55 0.05,93.85 -0.28,5.98 3.78,12.69 10.2,13.05 7.26,1.02 12.74,-6.33 12.3,-13.05 0.08,-31.3 -0.01,-62.57 0.0499,-93.85 54,0.02 108,-0.04 162,0 2.88,48.02 15.91,95.78 39.95,137.6 25.92,45.52 63.78,84.12 108.8,110.9 43.58,26.22 93.97,40.34 144.65,43 0.02,30.08 -0.02,60.12 0,90.2 l 22.6,0 c 0,-30.04 -0.04,-60.11 0,-90.15 51.28,-2.32 102.36,-16.47 146.5,-42.95 58.58,-34.76 104.93,-89.72 128.95,-153.5 11.24,-30.5 18.15,-62.62 19.95,-95.1 l 90.30002,0 0,-22.6 c -30.02002,-0.02 -60.06002,0.02 -90.10002,0 -2,-51.5 -15.97,-102.86 -42.35,-147.3 -21.74,-36.88 -51.26,-69.16 -86.2,-93.9 -48.48,-34.86 -107.59,-53.75 -167.05,-56.35 0,-71.28 0.02,-142.57 0,-213.85 29.28,-0.06 58.57,0.05 87.85,-0.05 6.38,0.32 14.52,-2.76 15,-10.1 1.2,-7.36 -6.34,-12.54 -13,-12.3 C 698.18992,85.47 668.24,85.84 638.3,85.7 l 0,-85.7 z m 22.55,340.2 c 65.8,2.2 130.61,27.84 179.85,71.6 59.6,51.7 95.79,129.06 97.75,207.9 -29.94,0.02 -59.88,0.02 -89.8,0 -2.08,-56.3 -29.28,-111.33 -73.7,-146.15 -31.9,-26.54 -72.86,-41.12 -114.1,-43.6 z m -22.55,0.1 c -0.1,29.9 -0.0301,59.8 -0.0499,89.7 -28.08,2.2 -55.93,9.46 -80.85,22.7 -10.16,5.14 -19.28,12.07 -28.8,18.25 -4.68016,5.66 -11.45008,9.21 -16.45008,14.65 -7.36,6.6 -12.82,14.94 -19.7,22 -23.38,31.26 -37.25,69.13 -39.95,108.05 0.02,1.02 0.0301,3.05 0.0499,4.05 l -89.9,0 c 1.56,-58.46 21.6,-116.23 56.5,-163.15 8.42,-11.6 18.08,-22.12 27.8,-32.6 0.48,-0.42 1.5,-1.28 2,-1.7 21.4,-20.76 45.84,-38.39 72.5,-51.75 1.72,-0.82 5.13,-2.46 6.85,-3.3 l 0.45,0.0499 C 540.32,350.83008 577.97,341.88 615.75,340.3 z m 22.55,108.4 c 43.58,2.42 85.96,21.33 116.7,52.35 31.5,31.18 50.37,74.41 52.45,118.65 -56.4,-0.02 -112.75,0.02 -169.15,0 0,-57 0.02,-114 0,-171 z m -22.6,0.2 c -0.02,56.94 0,113.86 0,170.8 -55.72,0.02 -111.43,-0.02 -167.15,0 1.6,-31.9 11.63,-63.22 29.05,-90 8.14,-12.16 17.53,-23.52 28.35,-33.4 29.7,-27.78 69.17,-44.76 109.75,-47.4 z M 457.9,642.2 c 2.9325,-0.0226 5.88,0.04 8.8,0.4 12.41499,-0.17501 24.83094,-0.30469 37.25,-0.35 9.3143,-0.0339 18.63795,-0.0602 27.95,-0.0499 27.93616,0.0301 55.85499,0.2125 83.8,0.1 l 0,164.8 c -48.8,-3.04 -95.65,-27.29 -126.55,-65.15 -23.04,-28.12 -37.47,-63.35 -40.05,-99.65 2.93,0.0301 5.8675,-0.0774 8.8,-0.1 z m -117.5,0.0499 c 15.5,0.28 31.02,-0.39 46.5,0.25 14.38,-0.5 28.74,-0.1 43.1,-0.2 3.5,39.88 17.77,79.2 43.55,110.1 3.16,3.64 6.18,7.42 9.2,11.2 19.76,20.28 43.24,37.26 69.6,47.9 20.26,7.88 41.65,12.96 63.35,14.5 0.06,29.9 -0.01,59.8 0.0499,89.7 C 555.81008,913.34008 496.86,891.48 449.8,854.3 385.02,803.8 343.9,724.35 340.4,642.25 z m 297.9,0.0499 c 56.24,-0.02 112.46,-0.02 168.7,0 -3.2,42.14 -22,82.87 -52,112.65 -30.72,31.02 -73.15,49.93 -116.75,52.35 0.04,-55 0.0301,-110 0.0499,-165 z m 187.65,0 c 29.9,0 59.8,0.02 89.7,0 -3.48,76.76 -39.39,151.5 -97.45,201.9 -49.24,43.78 -114.08,69.4 -179.9,71.6 0,-29.92 0.02,-59.83 0,-89.75 42.72,-2.54 85.08,-18.15 117.5,-46.45 13.78,-10.7 25.06,-24.33 35.2,-38.45 20.62,-28.88 31.83,-63.67 34.95,-98.85 z"
     id="path8"
     inkscape:connector-curvature="0"
     sodipodi:nodetypes="ccccccccccccccccccccccccccccccccccccccccccccccccccccccccccccccccccccccccccccccccccccccscssccccsccccccccccccccccccccccc" />
</svg>
