<?xml version="1.0" encoding="UTF-8" standalone="no"?>
<svg
   xmlns:dc="http://purl.org/dc/elements/1.1/"
   xmlns:cc="http://creativecommons.org/ns#"
   xmlns:rdf="http://www.w3.org/1999/02/22-rdf-syntax-ns#"
   xmlns:svg="http://www.w3.org/2000/svg"
   xmlns="http://www.w3.org/2000/svg"
   xmlns:sodipodi="http://sodipodi.sourceforge.net/DTD/sodipodi-0.dtd"
   xmlns:inkscape="http://www.inkscape.org/namespaces/inkscape"
   width="1280"
   height="1280"
   viewBox="0 0 1024 1024"
   version="1.1"
   id="svg2"
   inkscape:version="0.48.1 "
   sodipodi:docname="kill_weapons.svg">
  <metadata
     id="metadata38">
    <rdf:RDF>
      <cc:Work
         rdf:about="">
        <dc:format>image/svg+xml</dc:format>
        <dc:type
           rdf:resource="http://purl.org/dc/dcmitype/StillImage" />
      </cc:Work>
    </rdf:RDF>
  </metadata>
  <defs
     id="defs36" />
  <sodipodi:namedview
     pagecolor="#ffffff"
     bordercolor="#666666"
     borderopacity="1"
     objecttolerance="10"
     gridtolerance="10"
     guidetolerance="10"
     inkscape:pageopacity="0"
     inkscape:pageshadow="2"
     inkscape:window-width="1920"
     inkscape:window-height="1018"
     id="namedview34"
     showgrid="false"
     fit-margin-top="0"
     fit-margin-left="0"
     fit-margin-right="0"
     fit-margin-bottom="0"
     inkscape:zoom="0.6609375"
     inkscape:cx="466.00473"
     inkscape:cy="640"
     inkscape:window-x="-8"
     inkscape:window-y="-8"
     inkscape:window-maximized="1"
     inkscape:current-layer="layer1"
     inkscape:snap-page="true" />
  <g
     inkscape:groupmode="layer"
     id="layer1"
     inkscape:label="background">
    <rect
       style="fill:#3e3e3e;fill-opacity:1;fill-rule:nonzero;stroke:none"
       id="rect2992"
       width="1280"
       height="1280"
       x="0"
       y="0"
       transform="scale(0.8,0.8)" />
  </g>
  <g
     inkscape:groupmode="layer"
     id="layer2"
     inkscape:label="foreground">
    <path
       style="fill:#f4722b;fill-opacity:1;fill-rule:nonzero;stroke:none"
       d="M 736.6875 350.625 C 736.18156 371.75408 742.36486 395.05082 730.875 414.25 C 824.45 438.75 906.7625 501.55 956.0625 584.625 C 988.2875 639.425 1006.975 702.4125 1008.375 766.0625 C 974.375 766.0625 940.375 765.95 906.375 766.125 C 905.625 753.375 908.6875 739.8375 904.4375 727.5625 C 900.9875 718.6875 890.65 720.35 883 720.5 C 871.525 733 877.275 750.8375 876.125 766.0625 C 854.775 765.9625 833.475 766.0625 812.125 766.0625 C 809.25 731.4125 796.8 697.4 774.875 670.25 C 745.55 632.275 699.0375 609.025 651.4375 605.375 C 651.3625 573.2 651.525 541.05 651.375 508.875 C 666.625 507.675 684.6125 513.55 697.0625 501.875 C 696.9375 496.625 697.6875 491.2 696.1875 486.125 C 693.2125 481.625 687.9375 478.7875 682.5625 478.6875 C 672.1625 478.1375 661.75 478.6 651.375 478.625 C 651.475 458.85 651.5125 439.125 651.3125 419.375 C 641.2625 419.425 631.2375 419.4125 621.1875 419.3125 C 620.9125 439.0875 621.075 458.85 621.125 478.625 C 605.925 479.8 588.0125 474 575.5625 485.5 C 575.5125 491 575.55 496.5375 575.625 502.0625 C 588.15 513.4125 605.925 507.7 621.125 508.875 C 620.975 541.15 621 573.45 621.125 605.75 C 600.75 608.575 580.475 613.375 562 622.625 C 545.225 630.5 530.4875 641.925 516.6875 654.125 C 486.9875 683.825 468.5 724.1 465.375 766 C 441.525 766.05 417.7 765.95 393.875 766.125 C 392.7 750.925 398.475 733.0375 387 720.5625 C 381.5 720.5125 375.975 720.5125 370.5 720.5625 C 358.975 733.0125 364.825 750.8875 363.625 766.0625 C 328.775 765.9625 293.95 766.0375 259.125 766.0625 C 261.2 680.2625 293.925 595.25 350.625 530.75 C 394.85 479.225 453.525 440.5 518.125 419.625 C 510.125 417.35 500.55 413.9375 498.375 404.8125 C 495.44244 391.06923 497.08538 376.82073 497.375 362.875 C 324.2472 421.69784 199.6875 585.60798 199.6875 778.625 C 199.6875 1021.078 396.23449 1217.625 638.6875 1217.625 C 881.14051 1217.625 1077.6875 1021.078 1077.6875 778.625 C 1077.6875 689.468 1051.1027 606.50098 1005.4375 537.25 C 1005.4022 537.20935 1005.3788 537.16561 1005.3438 537.125 C 1004.8703 536.57647 1004.4233 536.04046 1004 535.5 C 989.85 526.025 972.7375 519.3 962.9375 504.625 C 958.28765 497.71046 960.3157 489.43025 962.28125 481.96875 C 903.14061 417.48634 824.98022 370.76061 736.6875 350.625 z M 651.3125 630.5625 C 688.5875 634.9625 724.4125 652.9 748.8125 681.625 C 768.8875 705.3 781.55 735.175 784.25 766.125 C 773.425 766 762.575 765.9875 751.75 766.0625 C 748.075 749.3875 744.025 732.325 734.25 718 C 716.4 689.125 684.825 670.15 651.25 666.25 C 651.5 654.325 651.4625 642.4625 651.3125 630.5625 z M 621.125 630.625 C 620.975 642.8 621 654.9875 621 667.1875 C 588.7 671.9375 559.1625 691.55 542.3125 719.5 C 533.2375 733.5 528.9 749.8625 526.25 766.1875 C 513.875 765.9375 501.4625 766 489.0625 766 C 491.5125 748.65 495.175 731.3 503 715.5 C 512.275 693.825 528.9625 676.6 546.4375 661.25 C 567.8125 644.225 594.125 634.025 621.125 630.625 z M 651.375 683.375 C 670.85 687.7 690.25 695.7375 703.875 710.8125 C 719.925 725.0125 728.6375 745.375 732.1875 766.125 C 705.2375 765.925 678.325 766.05 651.375 766.125 C 651.55 738.55 651.4 710.95 651.375 683.375 z M 621.0625 683.8125 C 621.0625 711.2375 621.025 738.6375 621.125 766.0625 C 594.775 765.9375 568.45 766.025 542.125 766 C 546.55 750.4 550.6375 734.05 561.3125 721.375 C 570.1375 711.175 579.725 701.1375 591.75 694.6875 C 600.85 689.4625 611.0125 686.6375 621.0625 683.8125 z M 363.625 796.375 C 363.65 808.45 363.1375 820.5875 363.6875 832.6875 C 363.6875 838.2375 367.7 842.5125 370.5 846.9375 C 375.975 846.9625 381.4625 846.9875 386.9375 846.9375 C 389.8625 842.4625 393.95 838.075 393.875 832.375 C 394.4 820.4 393.8 808.35 393.875 796.375 C 417.825 796.475 441.8 796.475 465.75 796.375 C 469.425 825.725 478.975 854.6625 496.375 878.8125 C 524.275 920.2375 571.7625 946.35 621.0625 951.75 C 621.0125 985.7 621 1019.65 621.125 1053.625 C 605.95 1054.775 587.9875 1048.975 575.5625 1060.5 C 575.4875 1065.95 575.475 1071.4 575.5 1076.875 C 587.925 1088.525 605.9 1082.6125 621.125 1083.8125 C 620.95 1106.1625 621.0625 1128.4875 621.0625 1150.8125 C 516.5125 1147.7625 414.1125 1098.4375 347.3125 1017.8125 C 294.5375 956.4625 264.0875 877.075 259.3125 796.5 C 294.0875 796.425 328.85 796.525 363.625 796.375 z M 490.3125 796.375 C 502.6125 796.5 514.85 796.525 527.125 796.5 C 533.625 843.85 573.55 883.7375 620.875 890.3125 C 621.025 901.7375 621.025 913.2 621.125 924.625 C 580.275 920.575 541.65 898.1375 517.75 864.8125 C 502.525 845.0875 493.7375 820.925 490.3125 796.375 z M 651.375 796.375 C 678.075 796.5 704.775 796.4125 731.5 796.4375 C 725.075 820.0625 712.15 842.9 691.25 856.5 C 679.5 865.075 665.475 869.55 651.375 872.375 C 651.5 847.05 651.425 821.675 651.375 796.375 z M 876.125 796.375 C 876.175 809.25 875.6 822.15 876.125 835 C 876.075 840.7 880.2375 845.125 883.1875 849.625 C 891.4625 850.175 902.525 850.625 905.25 840.625 C 908.05 826.125 905.8 811.1375 906.375 796.4375 C 940.3 796.5375 974.2625 796.45 1008.1875 796.5 C 1002.7125 897.275 955.2125 995.3 877.9375 1060.5 C 815.5375 1115.075 734.0625 1146.6 651.4375 1150.75 C 651.3875 1128.45 651.525 1106.175 651.375 1083.875 C 661.9 1083.575 672.775 1085.2 683.125 1082.75 C 695.85 1079.2 695.75 1058.1625 683 1054.6875 C 672.675 1052.2625 661.875 1053.9 651.375 1053.625 C 651.525 1019.775 651.3625 985.975 651.4375 952.125 C 687.8375 949.1 723.675 935.45 751.375 911.375 C 785.95 883.3 806.725 840.3875 811.75 796.4375 C 833.2 796.4625 854.675 796.475 876.125 796.375 z M 543.5 796.4375 C 569.375 796.4375 595.25 796.5125 621.125 796.4375 C 621.025 821.6875 620.975 846.9375 621.125 872.1875 C 598.45 867.2875 576.6625 855.6125 562.6875 836.6875 C 553.3125 824.9125 547.675 810.7375 543.5 796.4375 z M 767.0625 796.4375 C 772.63126 796.41875 778.175 796.425 783.75 796.4375 C 777.8 835.9625 756.65 873.075 724.125 896.625 C 703.15 912.875 677.3875 921.3 651.4375 925.25 C 651.4125 914.075 651.425 902.9 651.375 891.75 C 667.425 888.175 683.925 884.425 697.875 875.25 C 725.85 858.425 745.4875 828.9 750.3125 796.625 C 755.8875 796.5375 761.49374 796.45624 767.0625 796.4375 z "
       id="path3025"
       transform="scale(0.8,0.8)" />
    <path
       d="m 379.46,96.24 c 24.36,-24.68 58.16,-38.84 92.22,-43.46 28.52,-2.4 59.52,-1.04 84.08,15.38 24.5,16.72 36.18,46.96 37.54,75.72 0.02,24.3 -10.98,47.12 -24.62,66.66 -15.88,22.94 -35.56,43.06 -56.88,60.98 20.56,-0.02 41.14,-0.06 61.72,0.02 -0.24,15.98 0.86,31.96 0.46,47.96 -53.48,-0.02 -106.98,0 -160.48,0 -0.02,-14.76 0,-29.52 0,-44.3 17.64,-2.96 33.82,-11.32 48.7,-20.98 20.54,-13.6 39.54,-30.38 52.46,-51.56 6.64,-10.94 11.2,-23.84 9.54,-36.78 -1.28,-11.48 -8.16,-21.86 -17.34,-28.62 -8.8,-6.34 -20.42,-6.1 -30.62,-4.28 -19.62,3.92 -36.6,15.52 -51.36,28.52 -15,-21.84 -30.54,-43.32 -45.42,-65.26 z"
       id="path6"
       inkscape:connector-curvature="0"
       style="fill:#f5e5c1" />
    <path
       d="m 753.54,198.22 c 27.34,-21.52 59.18,-39.22 94.14,-43.68 31.5,-2.5 65.2,1.8 91.82,20 28.92,19.92 41.36,62.76 22.88,93.62 -13.18,21.66 -35.58,35.84 -58.66,45.08 14.04,5.6 27.8,14.32 35,28.06 8.2,15.44 5.18,34.92 -4.42,49.02 -10.36,14.58 -26.5,24.16 -43.52,28.96 -36.78,10.38 -79.06,2.34 -107.64,-23.64 7.44,-12.78 14.82,-25.58 22.3,-38.32 15.78,9.8 33.42,18.34 52.38,18.4 9.8,-0.14 20.7,-2.82 26.94,-10.98 3.98,-4.78 1.88,-11.48 -1.28,-16.08 -4.62,-6.76 -12.44,-10.38 -20.14,-12.42 -15.66,-4.1 -31.96,-3.2 -47.98,-3.24 -0.7,-13.8 -0.24,-27.6 -0.34,-41.4 21.72,0.06 44.46,-2.08 63.82,-12.74 9.7,-5.22 18.24,-16.58 13.9,-27.98 -3.5,-12.22 -16.5,-18.74 -28.62,-17.88 -25.82,1.46 -49.34,14.56 -69.78,29.56 -13.62,-21.44 -27.26,-42.86 -40.8,-64.34 z"
       id="path8"
       inkscape:connector-curvature="0"
       style="fill:#f5e5c1" />
    <path
       d="m 90.84,194.9 c 8.32,-7.92 15.78,-16.86 25.04,-23.72 20.82,0.32 41.62,2.62 62.46,3.66 -3.82,87.44 -7.42,174.86 -11.44,262.28 -22.68,-0.78 -45.34,-2.44 -68.02,-3.28 2.22,-60.7 4.72,-121.4 6.72,-182.1 -5.88,5.66 -11.64,11.48 -17.1,17.54 -10.98,-13.18 -22,-26.34 -32.92,-39.56 11.5,-11.86 23.78,-22.94 35.26,-34.82 z"
       id="path10"
       inkscape:connector-curvature="0"
       style="fill:#f5e5c1" />
  </g>
</svg>
