<?xml version="1.0" encoding="UTF-8" standalone="no"?>
<svg
   xmlns:dc="http://purl.org/dc/elements/1.1/"
   xmlns:cc="http://creativecommons.org/ns#"
   xmlns:rdf="http://www.w3.org/1999/02/22-rdf-syntax-ns#"
   xmlns:svg="http://www.w3.org/2000/svg"
   xmlns="http://www.w3.org/2000/svg"
   xmlns:sodipodi="http://sodipodi.sourceforge.net/DTD/sodipodi-0.dtd"
   xmlns:inkscape="http://www.inkscape.org/namespaces/inkscape"
   width="1280"
   height="1280"
   viewBox="0 0 1024 1024"
   version="1.1"
   id="svg2"
   inkscape:version="0.48.1 "
   sodipodi:docname="kill_midair_scout.svg">
  <metadata
     id="metadata42">
    <rdf:RDF>
      <cc:Work
         rdf:about="">
        <dc:format>image/svg+xml</dc:format>
        <dc:type
           rdf:resource="http://purl.org/dc/dcmitype/StillImage" />
      </cc:Work>
    </rdf:RDF>
  </metadata>
  <defs
     id="defs40" />
  <sodipodi:namedview
     pagecolor="#ffffff"
     bordercolor="#666666"
     borderopacity="1"
     objecttolerance="10"
     gridtolerance="10"
     guidetolerance="10"
     inkscape:pageopacity="0"
     inkscape:pageshadow="2"
     inkscape:window-width="1920"
     inkscape:window-height="1018"
     id="namedview38"
     showgrid="false"
     fit-margin-top="0"
     fit-margin-left="0"
     fit-margin-right="0"
     fit-margin-bottom="0"
     inkscape:zoom="0.6609375"
     inkscape:cx="466.00473"
     inkscape:cy="640"
     inkscape:window-x="-8"
     inkscape:window-y="-8"
     inkscape:window-maximized="1"
     inkscape:current-layer="layer1"
     inkscape:snap-page="true" />
  <g
     inkscape:groupmode="layer"
     id="layer1"
     inkscape:label="background">
    <rect
       style="fill:#3e3e3e;fill-opacity:1;fill-rule:nonzero;stroke:none"
       id="rect2998"
       width="1280"
       height="1280"
       x="0"
       y="0"
       transform="scale(0.8,0.8)" />
  </g>
  <g
     inkscape:groupmode="layer"
     id="layer2"
     inkscape:label="foreground">
    <path
       d="m 579.22,36.6 c 21.9,59.3 44.18,118.48 66.6,177.6 4.84,12.3 8.12,25.14 11.6,37.86 -1.06,3.54 -3.56,6.42 -5.54,9.48 -12.94,18.06 -25.1,36.66 -37.28,55.24 -6.42,9.9 -13.54,19.34 -19.26,29.68 -15.72,-36 -30.62,-72.38 -45.8,-108.62 5,-12.46 10.26,-24.82 15.04,-37.36 3.44,-11.3 4.92,-23.06 7.54,-34.54 4.52,-18.26 3.82,-37.2 5.48,-55.84 2.22,-24.44 0.32,-49.02 1.62,-73.5 z"
       id="path6"
       inkscape:connector-curvature="0"
       style="fill:#f5e5c1" />
    <path
       d="m 799.62,100.54 c 11.28,1.12 22.6,4.06 32.66,9.32 10.14,7.46 22.14,14.22 27.04,26.5 6.42,14.9 12.06,31.3 9.16,47.72 -1.14,6.46 -7.58,9.06 -12.68,11.86 -9.06,4.76 -17.8,10.06 -26.82,14.86 -2.76,1.92 -5.26,-0.92 -7.18,-2.6 -18.82,-19.52 -38.42,-38.28 -56.4,-58.62 2.76,-8.44 9.04,-14.92 13.68,-22.3 4.98,-7.82 10.1,-15.56 15.04,-23.4 7.3,7.4 13.2,16.04 20.58,23.38 8.18,8.26 16.76,16.16 25.04,24.34 -11.72,-18.3 -26.38,-34.34 -40.12,-51.06 z"
       id="path8"
       inkscape:connector-curvature="0"
       style="fill:#f4722b" />
    <path
       d="m 751.3,145.7 c -24.06,23.8 -48.21,47.53 -72.25,71.35 -8.96,8.36 -10.37,21.36 -11.25,32.9 0.14,5.86 -3.6,10.65 -6.7,15.25 -17.34,24.6 -35.11,48.84 -52.75,73.2 -13.92,15.22 -21.57,34.59 -31.75,52.25 -14.24,23.6 -28.96,46.89 -43.3,70.45 -9.38,16.18 -21.8,30.33 -33,45.25 -3.42,4.46 -3.3,10.56 -2.9,15.9 2.22,7.6 10.96,9.28 17.8,7.9 6.32,-8.58 13.72,-16.26 20.8,-24.2 11.46,-13.22 25.48,-23.81 38,-35.95 18.8,-17.2 38.29,-33.67 56.65,-51.35 -2.38,-3.76 -4.79,-7.47 -7.25,-11.15 4.3,-8.6 11.67,-15.02 17.85,-22.2 9.64,-10.4 18.96,-21.05 28.6,-31.45 4.7,-5.44 9.41,-11.01 15.45,-15.05 5.6,1.3 12.61,7.73 17.75,2.45 28.26,-24.44 56.27,-49.19 84.35,-73.85 14.16,-11.96 28.13,-24.13 40.85,-37.65 -7.34,-8.66 -14.88,-17.18 -22.5,-25.6 C 786.71,185.47 770.7,164.02 751.3,145.7 z m -1.4,15.65 c 2.94,4.32 5.39,8.96 7.15,13.9 7.36,20.62 22.53,38.07 41.05,49.55 -18.14,-6.66 -36.27,-18.15 -44.15,-36.55 -4.04,-8.28 -10.05,-17.96 -4.05,-26.9 z"
       id="path10"
       style="fill:#f4722b"
       inkscape:connector-curvature="0" />
    <path
       style="fill:#f4722b"
       d="m 224.5,213.65 c -6.16,24.54 -12.66,49.12 -14.9,74.4 -0.62,10.66 -7.38,19.61 -8.5,30.15 -2,14.54 -0.94,29.25 -1.7,43.85 -0.64,14.34 1.74,28.69 6,42.35 4.66,15.02 15.3,27.13 25.8,38.45 13.52,12.7 29.78,22.2 46.7,29.6 7.78,3.02 7.32,12.88 9.8,19.6 7.44,0.26 14.91,-0.15 22.35,-0.05 10.32,-0.46 17.88,7.55 26.7,11.55 -10.7,-2.92 -21.78,-4.81 -32.9,-4.05 -8.94,0.24 -17.01,5.7 -26.05,5 -18.48,-6.42 -37.62,-10.73 -55.7,-18.35 -12.46,-4.3 -23.69,-12.43 -37.05,-13.75 -0.72,-0.62 -2.15,-1.88 -2.85,-2.5 -14.42,-3.58 -29.16,-5.49 -43.8,-7.85 -1.5,3.98 -3.16,7.92 -4,12.1 -4.72,29.92 5.55,59.03 13.75,87.35 4,12.24 13.09,21.83 18.35,33.45 11.3,24.66 24.9,48.19 39.3,71.15 14.72,22.2 32.1,42.48 49.6,62.5 15.76,20.72 32.02,41.2 50.6,59.5 9.84,10.08 20.86,18.9 31,28.7 17.88,17.16 39.22,30.13 58.3,45.85 29.06,23.7 59.16,46.11 87.6,70.55 6.62,5.74 15.4,7.3 23.9,7.5 -7.28,-16.54 -18.07,-31.42 -24.15,-48.5 -15.06,-12.52 -30.47,-24.71 -44.45,-38.45 -21.9,-21.4 -43.52,-43.08 -65.3,-64.6 -8.86,-8.58 -16.39,-18.37 -24.25,-27.85 -11,-13.22 -22,-26.47 -31.9,-40.55 8.74,10.08 17.84,19.8 27.4,29.1 12.12,13.36 26.97,23.82 39.15,37.1 34.86,34.82 68.5,70.93 105.3,103.75 3.88,-13.12 -3.75,-25.06 -8.85,-36.6 -2.98,-5.88 -5.22,-12.79 -11.2,-16.35 -16.92,-11.5 -33.52,-23.66 -47.6,-38.6 -17.64,-18.42 -39.31,-33.29 -53.05,-55.15 -8.5,-11.36 -18.2,-21.76 -26.6,-33.2 15.32,11.92 28.09,26.64 42.15,39.9 15.8,14.82 31.51,29.72 46.65,45.2 13.66,14.5 29.81,26.29 45.85,37.95 -1.76,-18.04 -8.94,-36.65 -23.9,-47.75 -12.22,-10.46 -26.05,-19.34 -35.65,-32.5 -14.58,-16.64 -30.33,-32.24 -45.85,-48 -9.58,-10.02 -21.28,-17.54 -31.7,-26.6 9.54,4.68 17.32,11.99 25,19.15 8.26,7.82 18.09,13.79 26.15,21.85 13.78,13.54 28.31,26.3 41.75,40.2 2.54,2.6 5.33,5.01 8.55,6.75 8.32,4.42 15.24,10.87 23.2,15.85 0.7,-8.26 -1.36,-16.28 -4.6,-23.8 -12.8,-1.08 -20.54,-12.86 -30.8,-19.2 -13.12,-7.82 -19.06,-22.34 -27.8,-34.1 -7.9,-11.94 -19.87,-20.21 -29.05,-31.05 9.68,7.62 17.81,16.95 27.25,24.85 19.14,16.84 38.38,33.57 57.5,50.45 -4.36,-9.74 -8.41,-20.25 -5.65,-31.05 -15.56,-11.08 -37.46,-14.72 -46.7,-33.2 -11.6,-5.02 -21.51,-12.84 -30.95,-21.1 -1.42,1.8 -2.89,3.53 -4.45,5.25 -6.84,-4.28 -13.84,-8.27 -21.4,-11.15 -10.38,-4.06 -17.88,-13.42 -28.9,-16 -10.58,-2.92 -20.21,-8.61 -28.55,-15.65 8.86,1.3 15.33,9.75 24.95,7.55 7.24,6.72 14.69,13.59 23.95,17.45 9.6,3.94 20.2,8.36 30.6,4.7 4.12,4.74 8.28,9.59 13.6,13.05 9.56,6.44 21.28,7.76 31.9,11.7 0.24,1.28 0.71,3.87 0.95,5.15 4.88,3.2 9.8,6.36 14.8,9.4 0.96,-0.42 2.92,-1.23 3.9,-1.65 8.46,5.3 18.05,8.38 26.85,13 5.62,6.18 11.27,12.42 18.45,16.9 -0.38,-6.92 0.25,-14.18 -2.55,-20.7 -5.74,-13.88 -14.08,-26.44 -20.3,-40.1 -7.44,-16.88 -21.46,-30.74 -24.2,-49.6 7.18,1.74 12.7,7.03 17.4,12.45 11.5,13.9 19.22,30.31 28.2,45.85 12.42,21.5 20.83,44.97 29.45,68.15 1.52,4.9 6.15,7.53 10.05,10.35 15.16,10.4 30.36,20.88 46.7,29.4 8.28,4.56 18.28,5.9 25.4,12.5 9.64,8.32 21.28,13.67 32.5,19.45 22.1,11.08 42.98,24.42 63.1,38.7 17.54,11.92 35.54,23.16 53.2,34.9 34.64,21.36 64.09,50.18 99.25,70.8 10.5,5.6 20.95,11.33 31.85,16.15 14.66,5.9 25,19.71 40.7,23.45 -10.28,-10.74 -23.58,-17.74 -35.1,-27 -30.26,-23.1 -61.42,-45.02 -91,-69 -25.64,-20.12 -49.02,-42.84 -73.6,-64.2 -12.34,-10.98 -25.68,-21.39 -34.6,-35.55 -4.44,-7.08 -10.24,-13.1 -16.2,-18.9 6.82,-8.44 15.17,-15.54 21.75,-24.2 3.44,-4.46 7.82,-8.04 12.3,-11.4 8.88,6.16 18.92,10.4 27.5,17 8.7,6.7 17.39,13.5 26.25,20 14.92,10.9 28.27,23.76 43.75,33.9 13.56,9.76 28.23,17.84 43.35,24.9 12.82,5.64 22.4,16.15 33.5,24.35 11.02,8.56 24.28,13.9 34.7,23.3 9.78,9.06 20.01,17.55 30.75,25.45 8.64,6.24 17.14,14.52 28.6,14.2 -23.14,-21.42 -48.26,-40.59 -73.8,-59.05 -41,-32.08 -80.19,-66.35 -119.05,-100.95 -17.46,-16.58 -34.78,-33.38 -53.1,-49 -6.54,-6.78 -15.37,-12.15 -18.75,-21.35 -5.14,-14.3 -10.15,-28.69 -15.15,-43.05 -3.7,-9.92 -0.94,-20.45 0.8,-30.45 6.58,11.78 16.44,21.23 23.3,32.85 3.84,6.5 7.82,13.01 12.8,18.75 -4.22,-14.48 -3.32,-29.82 -0.2,-44.4 2.64,-13.1 8.66,-27 21.3,-33.2 -3.48,-4.54 -10.59,-6.15 -14.65,-1.45 -6.96,8.84 -8.78,20.41 -12.9,30.65 -5.94,-7.28 -10.89,-15.26 -15.55,-23.4 -3.9,-6.6 -8.85,-14.02 -17.05,-15.3 -6.18,-0.8 -10.44,4.21 -14.2,8.25 -4.7,-13.8 -12.43,-26.24 -17.95,-39.7 6.42,-2.22 13.1,-4.61 20,-3.75 6,3.14 10.62,8.53 17,11.05 8.16,3.66 17.87,1.48 25.65,6.2 7.3,4.3 15.59,6.32 24.05,5.4 10.44,10.98 24.59,18.67 39.65,20.75 C 756.63,575.39 737.76,554.1 719.7,532.1 706.9,517.16 696,500.43 688.4,482.25 c -5.2,1.5 -10.4,3.01 -15.6,4.45 10,13.54 18.56,28.16 29.4,41.1 11.42,14.02 23.26,28.56 28,46.4 -11.68,-13.18 -22.67,-27 -34.45,-40.1 -11.5,-13.14 -20.73,-28.01 -29.15,-43.25 -6.8,-2.24 -15.09,-4.23 -17.85,-11.75 -5.86,-13.4 -13.74,-25.76 -20.3,-38.8 -8.86,8.52 -18.78,15.84 -27.4,24.6 -9.02,9.74 -19.7,17.7 -29.5,26.6 -16.58,13.42 -30.35,29.82 -44.35,45.8 -2.94,3.04 -3.84,7.22 -5.1,11.1 10.12,1.16 15.02,11.42 24.6,13.6 4.4,-3.84 9.04,-8.23 15.2,-8.75 13.5,-2.26 26.13,7.47 31.55,19.25 4.06,8.84 0.37,20.19 -7.95,25.15 -7.52,4.64 -16.74,3.61 -25,2.15 1.1,7.4 -0.25,17.2 -8.75,19.4 -10.08,3.3 -19.93,-7.06 -17.15,-17 0.82,-8.1 9.81,-9.61 15.95,-12.15 -6.64,1.86 -13.62,5.16 -20.6,3 -5.8,-1.62 -8.42,-7.45 -11.3,-12.15 -2.5,0.08 -4.97,0.18 -7.45,0.3 -3.14,-3.18 -5.7,-6.88 -7.2,-11.1 -1.54,5.64 -4.2,11.35 -9.5,14.35 -4.82,3.5 -11.04,2.51 -16.6,2.65 -0.66,4.06 -1.48,8.06 -2.7,12 -4.1,0.04 -8.44,1.13 -12.4,-0.25 -4.9,-2.52 -5.56,-8.96 -3.7,-13.6 2.32,-3.2 6.8,-3.2 10.2,-4.5 -1.74,-2.04 -3.48,-4.11 -5.2,-6.15 -5.48,4.42 -10.94,9.16 -17.5,11.9 -7.34,3.22 -15.49,3.42 -23.35,4.1 0.08,8.24 -0.57,16.72 -5.05,23.9 -7.92,-6.84 -7.73,-17.38 -7.35,-26.9 -21.28,-9.14 -35.52,-30.74 -38.1,-53.4 -2.02,-17.2 6.08,-35.3 20.9,-44.5 11.18,-7.42 25.53,-9.04 38.35,-5.6 9.3,2.32 16.31,10.13 26.15,10.85 6.66,0.86 9.37,9.03 15.85,10.15 3.4,-0.56 6.68,-1.6 10,-2.5 30.2,-32.12 50.86,-71.44 73.8,-108.7 8.96,-13.16 15.78,-27.6 23.5,-41.5 -2.56,-6.84 -4.48,-14.54 -10.7,-19.1 -23.28,-19.3 -49.16,-36.02 -77.6,-46.6 -13.9,-5.06 -29.16,-7.45 -43.7,-3.75 -7.56,27.7 -14.06,56.54 -10.6,85.4 1.32,9.96 -0.17,20.45 2.95,30.05 12.6,19.54 37.16,24.51 54.6,38.35 -12.06,-2.4 -23.39,-7.47 -34.45,-12.65 -12.2,-5.68 -25.52,-8.35 -37.6,-14.35 -7.24,-3.7 -15.37,-4.67 -23.05,-6.95 -7.1,-4.34 -8.63,-13.43 -10.15,-20.95 -1.88,-10.6 -7.21,-20.06 -11.05,-30 -3.88,-9.22 -6.44,-19.17 -12.6,-27.25 -6.62,-8.66 -13.92,-16.77 -20.4,-25.55 -5.8,-8.94 -15.71,-13.81 -25.65,-16.65 -14.9,-5.22 -31.13,-0.28 -45.95,-5.7 -12.5,-4.02 -23.26,-12.7 -30.5,-23.6 -8.28,-12.32 -14.11,-26.05 -20.35,-39.45 z M 400.25,432.5 c 12.66371,0.14848 24.81501,13.29 20.3,26.1 -4.42,12.68 -22.18,14.98 -31.3,6 -10.8,-8.32 -7.76,-27.5 5.6,-31.3 1.7825,-0.5475 3.5909,-0.82122 5.4,-0.8 z m 207.2,34.9 c 1.06,0.12 3.19,0.38 4.25,0.5 10.12,8.74 13.99,21.92 19.55,33.6 5.1,2.2 4.99,8.21 6.85,12.65 4,10.44 8.16,20.89 10.5,31.85 -0.46,2.92 -1.14,5.81 -2,8.65 -10.58,-8.82 -8.66,-24.39 -15.6,-35.45 -5.82,-9.32 -10.67,-19.1 -14.95,-29.2 -2.96,-7.44 -10.18,-14.04 -8.6,-22.6 z m 16.6,7.9 c 6.64,4.84 11.43,11.58 16.55,17.9 10.92,13.9 23.02,27.14 31.1,43 4.08,8.12 11.28,14.2 14.9,22.6 -8.1,-4.96 -12.78,-13.55 -19.1,-20.35 -12.82,-15.88 -27.28,-30.51 -38,-47.95 -2.98,-4.58 -4.61,-9.84 -5.45,-15.2 z M 343,508.1 c 6.28,5.02 12.5,10.2 18.2,15.9 -6.3,-3.5 -12.31,-7.4 -18.35,-11.3 0.06,-1.14 0.11,-3.46 0.15,-4.6 z m -15.4,26.25 c 4.91835,0.0969 9.8,1.3 13.9,4.1 18.36,11.62 21.01,41.41 4.65,55.85 -8.42,7.66 -22.66,5.84 -29.7,-2.8 -7.5,-9.06 -16.92,-18.87 -16.1,-31.55 -0.34,-11.18 8,-21.48 18.5,-24.7 2.83501,-0.64501 5.79899,-0.95813 8.75,-0.9 z m -91.4,0.7 c 5.6917,0.1721 11.31,3.43875 12.85,9.2 3.58,13.88 -13.91,24.29 -25.85,20.55 -11.04,-7.16 -5.14,-23.8 5.6,-28 2.24374,-1.25626 4.81286,-1.82822 7.4,-1.75 z m 273.5,82.6 c 7.12962,-0.0399 11.83,9.94 11.2,16.45 -4.26,6.24 -15.61,4.41 -18.35,-2.55 -2.74,-4.44 -0.91,-11.17 3.95,-13.25 1.11,-0.45501 2.18149,-0.6443 3.2,-0.65 z m 33.7,56.5 c 3.25845,-0.22582 6.70125,1.02626 8.6,3.8 3.86,5.54 1.18,13.21 5.1,18.85 8.14,14.26 14.38,29.46 22,44 4.24,8.74 12.43,14.47 18.25,22.05 9.26,12.18 18.13,26.06 17.85,42 -16.94,-5.12 -23.72,-23.3 -34.1,-35.9 -6.84,-7.7 -7.1,-18.25 -8.8,-27.85 -5.48,-13.98 -17.96,-23.64 -24.4,-37.1 -3.18,-8.16 -15,-11.9 -12.7,-22 0.09,-4.8375 4.01056,-7.55965 8.2,-7.85 z"
       id="path14"
       inkscape:connector-curvature="0" />
    <path
       d="m 917.5,254.76 c 6,-1.24 12.44,-1.22 17.84,-4.46 -0.84,1 -2.56,2.98 -3.42,3.98 -0.78,0.16 -2.32,0.48 -3.1,0.64 -20.2,10.5 -40.42,20.9 -60.66,31.32 -12.66,7.14 -24.74,15.28 -37.2,22.76 -16.48,9.82 -31.68,21.6 -47.7,32.12 -15.12,4.22 -30.24,8.42 -45.38,12.6 -0.08,0.34 -0.26,1 -0.34,1.32 11.22,-1.42 22.54,-2.1 33.7,-4.08 -7.96,7.98 -16.92,14.8 -25.46,22.1 -4.2,0.26 -8.4,0.7 -12.52,1.5 -4.52,-11.88 -8.64,-23.94 -14.72,-35.14 25.54,-19.34 50.68,-39.18 76.18,-58.58 5.2,-4.6 12.16,-5.46 18.74,-6.5 34.68,-6.56 69.38,-13 104.04,-19.58 z"
       id="path16"
       inkscape:connector-curvature="0"
       style="fill:#f5e5c1" />
    <path
       d="m 629.88,409.72 c 18.68,-20.6 37.32,-41.24 56.04,-61.82 4.8,1.66 10.12,2.56 14.28,5.64 4.46,5.2 7.32,11.52 10.94,17.28 17.68,29.18 34.04,59.2 53.08,87.56 0.94,0.56 2.84,1.7 3.8,2.28 -1.68,0.04 -3.36,0.08 -5.02,0.14 -7.12,-2.4 -14.92,-3.68 -20.7,-8.82 -21.88,-17.86 -44.46,-34.84 -66.18,-52.88 4.74,22.04 12.26,43.4 17.96,65.2 -10.4,3.18 -20.52,7.32 -31.18,9.62 -10.82,-21.5 -23.36,-42.12 -33.02,-64.2 z"
       id="path18"
       inkscape:connector-curvature="0"
       style="fill:#f5e5c1" />
    <path
       d="m 708.74,457.86 c 14.24,18.3 29.7,35.7 42.6,55 3.92,5.28 9.16,9.36 13.78,14.02 7.8,7.68 13.84,16.88 20.34,25.62 8.08,11.18 17.62,21.26 25,32.96 10.08,15.7 22.38,29.92 31.34,46.36 -12.14,-2.6 -22.62,-9.82 -31.78,-17.9 -5.7,-5.28 -15.34,-3.08 -19.98,-9.9 -22.72,-29.72 -47.74,-57.58 -71.32,-86.6 -9.82,-12.68 -17.68,-27.1 -30.58,-37.06 1.84,0.1 5.54,0.3 7.4,0.4 10.96,19.02 26.82,34.4 39.62,52.1 6.46,8.14 14.66,14.66 21.4,22.56 5.88,6.9 11.3,14.22 17.86,20.5 4.52,-5.16 -1.44,-9.8 -4.38,-13.8 -17.26,-19.16 -29.48,-42.24 -47,-61.16 -6.94,-8.3 -13.32,-17.22 -22.12,-23.74 4.94,-5.34 7.38,-12.16 7.82,-19.36 z"
       id="path22"
       inkscape:connector-curvature="0"
       style="fill:#f4722b" />
  </g>
</svg>
