<?xml version="1.0" encoding="UTF-8" standalone="no"?>
<svg
   xmlns:dc="http://purl.org/dc/elements/1.1/"
   xmlns:cc="http://creativecommons.org/ns#"
   xmlns:rdf="http://www.w3.org/1999/02/22-rdf-syntax-ns#"
   xmlns:svg="http://www.w3.org/2000/svg"
   xmlns="http://www.w3.org/2000/svg"
   xmlns:sodipodi="http://sodipodi.sourceforge.net/DTD/sodipodi-0.dtd"
   xmlns:inkscape="http://www.inkscape.org/namespaces/inkscape"
   width="1280"
   height="1280"
   viewBox="0 0 1024 1024"
   version="1.1"
   id="svg2"
   inkscape:version="0.48.1 "
   sodipodi:docname="kill_at_roundstart.svg">
  <metadata
     id="metadata102">
    <rdf:RDF>
      <cc:Work
         rdf:about="">
        <dc:format>image/svg+xml</dc:format>
        <dc:type
           rdf:resource="http://purl.org/dc/dcmitype/StillImage" />
      </cc:Work>
    </rdf:RDF>
  </metadata>
  <defs
     id="defs100" />
  <sodipodi:namedview
     pagecolor="#ffffff"
     bordercolor="#666666"
     borderopacity="1"
     objecttolerance="10"
     gridtolerance="10"
     guidetolerance="10"
     inkscape:pageopacity="0"
     inkscape:pageshadow="2"
     inkscape:window-width="1920"
     inkscape:window-height="1018"
     id="namedview98"
     showgrid="false"
     inkscape:snap-page="true"
     fit-margin-top="0"
     fit-margin-left="0"
     fit-margin-right="0"
     fit-margin-bottom="0"
     inkscape:zoom="0.6609375"
     inkscape:cx="640"
     inkscape:cy="640"
     inkscape:window-x="-8"
     inkscape:window-y="-8"
     inkscape:window-maximized="1"
     inkscape:current-layer="svg2" />
  <rect
     style="fill:#3e3e3e;fill-opacity:1;fill-rule:nonzero;stroke:none"
     id="rect3086"
     width="1024"
     height="1024"
     x="0"
     y="0" />
  <path
     d="m 105.36,0 152.42,0 c 18.14,26.54 35.46,53.64 53.3,80.38 -23.24,16.18 -44.46,35.12 -63.54,56.04 C 199.94,91.16 153.02,45.16 105.36,0 z"
     id="path6"
     inkscape:connector-curvature="0"
     style="fill:#c6ba9f" />
  <path
     d="M 371.96,0 481.9,0 c 0.38,5.86 0.76,11.72 1.14,17.58 -32.9,3.26 -65.24,11.1 -96.18,22.68 C 381.8,26.88 377.36,13.24 371.96,0 z"
     id="path8"
     inkscape:connector-curvature="0"
     style="fill:#c6ba9f" />
  <path
     d="m 548.1,0 30.4,0 c -0.92,6.84 -1.84,13.7 -2.74,20.54 C 566.2,19.12 556.6,18.02 546.98,17.02 547.36,11.34 547.72,5.68 548.1,0 z"
     id="path10"
     inkscape:connector-curvature="0"
     style="fill:#c6ba9f" />
  <path
     d="m 592.2,0 65.84,0 C 652.86,12.6 648.7,25.6 643.82,38.32 625.52,31.76 606.8,26.54 587.78,22.62 589.18,15.08 590.36,7.46 592.2,0 z"
     id="path12"
     inkscape:connector-curvature="0"
     style="fill:#c6ba9f" />
  <path
     d="m 772.22,0 99.4,0 C 836.38,37.82 801.92,76.4 766.66,114.24 752.48,100.74 736.98,88.7 720.8,77.66 737.88,51.74 754.72,25.64 772.22,0 z"
     id="path14"
     inkscape:connector-curvature="0"
     style="fill:#c6ba9f" />
  <path
     d="m 906.38,0 18.26,0 c -46.58,44.2 -92.56,89.04 -138.96,133.46 -1.56,-1.66 -3.12,-3.32 -4.66,-4.98 C 822.86,85.7 864.32,42.54 906.38,0 z"
     id="path16"
     inkscape:connector-curvature="0"
     style="fill:#c6ba9f" />
  <path
     d="m 0,23.1 c 72.2,50.92 145.08,100.88 217.36,151.72 -10.22,14.9 -19.24,30.58 -27.16,46.8 C 126.84,186.78 63.18,152.44 0,117.28 L 0,23.1 z"
     id="path18"
     inkscape:connector-curvature="0"
     style="fill:#c6ba9f" />
  <path
     d="m 816.7,171.92 c 69,-48.38 138.46,-96.1 207.3,-144.68 l 0,93.36 c -59.7,33.06 -119.64,65.76 -179.6,98.34 -7.96,-16.4 -17.36,-32.04 -27.7,-47.02 z"
     id="path20"
     inkscape:connector-curvature="0"
     style="fill:#c6ba9f" />
  <path
     style="fill:#f4722b"
     d="m 518,29.9 c -10.1825,0 -20.34,0.17 -30.5,0.5 -6.08,2.34 -12.79,0.98 -18.95,3 -4.66,0.44 -9.36,0.76 -13.9,1.9 -1.8,0.44 -3.57,0.86 -5.35,1.3 -4.16,0.96 -8.37,1.76 -12.55,2.7 -2.66,0.68 -5.34,1.35 -8,2.05 -2.66,0.62 -5.31,1.19 -7.95,1.85 -2,0.8 -4,1.63 -6,2.45 -0.9,0.18 -2.75,0.52 -3.65,0.7 -2.78,1.12 -5.54,2.18 -8.3,3.3 -0.9,0.2 -2.75,0.6 -3.65,0.8 -2.04,0.68 -4.06,1.34 -6.1,2 -2.08,1.12 -4.17,2.21 -6.25,3.35 -0.94,0.08 -2.81,0.22 -3.75,0.3 -2.06,1.24 -4.14,2.51 -6.2,3.75 -0.94,0.1 -2.78,0.3 -3.7,0.4 -15.72,8.24 -31.4,16.54 -46.3,26.2 -13.1,7.26 -23.92,17.76 -36,26.5 -6.76,5.88 -12.92,12.43 -19.9,18.05 -5.46,7.18 -12.56,12.9 -18.1,20 -10.1,12.62 -21.01,24.78 -29.05,38.9 -9.48,14.56 -17.52,29.94 -25.6,45.3 -0.1,0.92 -0.3,2.78 -0.4,3.7 -1.24,2.08 -2.51,4.12 -3.75,6.2 -0.08,0.94 -0.19,2.81 -0.25,3.75 -1.16,2.08 -2.31,4.17 -3.45,6.25 -0.54,2.04 -1.12,4.06 -1.7,6.1 -0.76,2 -1.52,4 -2.3,6 -0.22,0.9 -0.63,2.7 -0.85,3.6 -0.72,2.02 -1.42,4.06 -2.1,6.1 -1.04,2.76 -2.04,5.52 -3.1,8.3 -0.26,1.84 -0.49,3.69 -0.75,5.55 -1.08,3.48 -2.09,7 -3.15,10.5 -0.36,1.8 -0.71,3.63 -1.05,5.45 -0.82,3.3 -1.47,6.63 -2.15,9.95 -0.86,4.96 -1.51,9.94 -2.85,14.8 -0.42,6.02 0.2,12.26 -2,18 -0.66,20.34 -0.64,40.76 0,61.1 2.74,6.68 0.58,14.12 3,20.9 0.46,4.64 0.8,9.32 1.8,13.9 0.74,3.32 1.42,6.63 2.2,9.95 0.4,1.8 0.75,3.58 1.15,5.4 0.74,2.66 1.44,5.4 2.1,8.1 0.96,3.48 1.85,6.97 2.85,10.45 0.22,0.9 0.63,2.7 0.85,3.6 1.1,2.76 2.18,5.54 3.3,8.3 0.18,0.92 0.57,2.73 0.75,3.65 0.76,2 1.51,3.98 2.25,6 0.68,2 1.34,4 2,6 0.6,2 1.17,4.03 1.75,6.05 1.78,3.46 3.53,6.91 5.35,10.35 0.12,0.9 0.36,2.7 0.5,3.6 8.2,15.7 16.54,31.42 26.2,46.3 7.28,13.1 17.77,23.94 26.55,36 12.6,14 25.92,27.3 39.9,39.9 10.76,8.7 22.12,16.66 32.9,25.3 9.16,-14.74 19.93,-28.52 32.45,-40.6 -27.88,-17.18 -52.59,-39.3 -73.45,-64.5 -40.4,-48.86 -64.05,-111.01 -67.45,-174.25 27.96,-0.2 55.89,0.07 83.85,-0.15 0.3,11.12 -1.12,22.42 0.8,33.4 2.62,10.4 19.62,10.24 22.1,-0.2 1.78,-10.96 0.41,-22.16 0.75,-33.2 19.36,0.1 38.69,0.1 58.05,0 1.32,11.6 3.82,23.1 7.8,34.1 9.94,28.2 30.14,51.74 54.3,68.9 2.28,-6.58 5.1,-13.03 6.5,-19.85 -1.54,-1.76 -3.42,-3.19 -5.2,-4.65 -24.6,-18.72 -40.67,-47.88 -44.25,-78.5 9.92,0.1 19.83,0.11 29.75,0.05 3.96,23.92 17.43,46.33 37.55,60.05 4.08,-2.88 8.16,-5.72 12.3,-8.5 -19.42,-10.48 -32.21,-30.37 -37.05,-51.55 20.86,0.04 41.74,0.05 62.6,-0.05 -0.16,14.18 0,28.4 -0.1,42.6 7.92,-0.8 15.9,-0.67 23.8,0.45 -0.04,-14.34 -0.02,-28.71 -0.1,-43.05 21.52,0.12 43.06,0.07 64.6,0.05 -4.96,22.18 -18.95,42.09 -39.05,53.05 4.36,3.24 8.74,6.48 13.2,9.6 21.24,-14.32 36.66,-37.02 40.6,-62.5 9,-0.16 18,-0.15 27,-0.15 -4.52,34.04 -23.89,65.66 -52.75,84.4 2.08,7.48 4.34,14.89 6.8,22.25 9.14,-6.86 18.87,-13.07 26.85,-21.35 23.28,-22.4 37.85,-53.22 41.05,-85.3 17.36,0.06 34.74,0.06 52.1,0 0.34,11.74 -1.17,23.66 0.75,35.3 2.58,10.32 19.41,10.33 22.05,0.05 2,-11.64 0.44,-23.59 0.8,-35.35 27.28,0.1 54.57,-0.03 81.85,0.05 -2.58,48.52 -17.12,96.32 -41.9,138.1 -24.54,40.84 -58.83,75.87 -99.35,100.95 12.22,13.64 24.31,27.61 33.35,43.65 16.02,-7.3 28.44,-20.26 42.7,-30.3 12.78,-12.46 25.71,-24.85 37.55,-38.25 3.1,-4.22 6.46,-8.29 10.1,-12.05 15.82,-20.64 28.45,-43.36 40.75,-66.2 0.04,-1 0.11,-3.02 0.15,-4 1,-0.9 3.02,-2.7 4,-3.6 0.04,-1 0.08,-3 0.1,-4 1.16,-2.1 2.34,-4.2 3.5,-6.3 0.62,-2.06 1.22,-4.08 1.9,-6.1 0.22,-0.9 0.73,-2.7 0.95,-3.6 0.72,-2.02 1.45,-4.03 2.15,-6.05 0.94,-2.78 1.86,-5.54 2.8,-8.3 0.72,-2.04 1.44,-4.03 2.2,-6.05 0.18,-0.9 0.57,-2.7 0.75,-3.6 0.84,-2 1.71,-4 2.55,-6 0.62,-3.28 1.14,-6.6 1.7,-9.9 0.98,-4.18 1.8,-8.42 2.8,-12.6 0.42,-1.8 0.84,-3.59 1.3,-5.35 1.2,-5.58 1.22,-11.37 2.9,-16.85 0.48,-6.02 -0.22,-12.23 2,-17.95 0.66,-19.68 0.64,-39.42 0,-59.1 -2.48,-6.38 -1.44,-13.34 -2,-20 -1.36,-4.86 -1.97,-9.86 -2.85,-14.8 -0.66,-3.34 -1.35,-6.65 -2.15,-9.95 -0.4,-1.8 -0.77,-3.62 -1.15,-5.4 -0.76,-2.68 -1.41,-5.4 -2.05,-8.1 -0.98,-3.48 -1.92,-6.97 -2.9,-10.45 -0.24,-0.9 -0.66,-2.65 -0.9,-3.55 -1.04,-2.78 -2.05,-5.59 -3.05,-8.35 -0.7,-2.04 -1.4,-4.03 -2.1,-6.05 -0.22,-0.9 -0.65,-2.7 -0.85,-3.6 -0.78,-2 -1.56,-4 -2.3,-6 -0.58,-2.04 -1.16,-4.08 -1.7,-6.1 -1.78,-3.44 -3.55,-6.88 -5.35,-10.3 -0.12,-0.9 -0.38,-2.7 -0.5,-3.6 -15.86,-31.72 -34.8,-62 -58.2,-88.7 C 770.03,135.36 759.22,123.47 747.1,112.95 739,107.05 731.5,100.34 723.2,94.7 704.86,81.38 684.82,70.77 664.8,60.25 c -0.92,-0.1 -2.78,-0.3 -3.7,-0.4 -2.08,-1.24 -4.12,-2.51 -6.2,-3.75 -0.92,-0.08 -2.81,-0.19 -3.75,-0.25 -2.08,-1.16 -4.17,-2.31 -6.25,-3.45 -2.04,-0.58 -4.03,-1.15 -6.05,-1.75 -2.02,-0.66 -4.05,-1.32 -6.05,-2 -2,-0.72 -4,-1.49 -6,-2.25 -0.9,-0.18 -2.68,-0.6 -3.6,-0.8 -1.98,-0.82 -4,-1.6 -6,-2.4 -2.64,-0.64 -5.31,-1.23 -7.95,-1.85 -2.68,-0.7 -5.34,-1.39 -8,-2.05 -4.18,-0.96 -8.39,-1.72 -12.55,-2.7 -1.8,-0.42 -3.59,-0.86 -5.35,-1.3 -4.56,-1.1 -9.26,-1.46 -13.9,-1.9 -6.78,-2.42 -14.22,-0.26 -20.9,-3 C 538.38,30.09 528.1825,29.9 518,29.9 z m -12.9,49.2 c 0.02,20.7 -0.03,41.4 0.05,62.1 -9.74,0.2 -19.63,-1.05 -29.25,0.75 -7.58,1.94 -9.82,11.6 -6.1,17.8 2.38,3.1 6.28,4.92 10.2,5 8.38,0.48 16.8,0.03 25.2,0.05 -0.12,26.04 -0.12,52.06 0,78.1 -31.6,3.22 -62.11,17.27 -84.35,40.05 -23.62,23.16 -37.95,55.21 -40.25,88.15 -19.28,0.08 -38.54,-0.1 -57.8,0.1 -0.24,-9.8 1.12,-19.79 -0.8,-29.45 -2.6,-10.26 -19.4,-10.21 -22,0.05 -1.84,9.64 -0.52,19.59 -0.8,29.35 -28.06,-0.12 -56.09,-0.01 -84.15,-0.05 1.78,-68.86 27.79,-137.08 73.35,-188.9 C 342.08,119.54 422.7,81.5 505.1,79.1 z m 23.75,0.15 c 66.74,3.06 132.47,28.83 182.75,72.95 63.3,54.12 101.5,135.72 103.4,218.9 -27.4,0.02 -54.82,-0.1 -82.2,0.1 -0.3,-9.82 1.17,-19.84 -0.85,-29.5 -2,-7.44 -11.73,-9.6 -17.75,-5.8 -3.1,2.34 -4.87,6.14 -4.95,10 -0.5,8.42 -0.03,16.83 -0.05,25.25 -17.26,-0.1 -34.54,-0.03 -51.8,-0.05 -2.32,-32.96 -16.63,-64.92 -40.25,-88.1 -23.18,-23.72 -55.25,-38.08 -88.25,-40.4 -0.08,-25.94 0.04,-51.86 -0.1,-77.8 9.74,-0.24 19.64,1.05 29.3,-0.75 7.54,-1.94 9.86,-11.66 6,-17.8 -2.34,-3.12 -6.19,-4.9 -10.05,-5 -8.4,-0.5 -16.83,-0.05 -25.25,-0.05 0.16,-20.64 0.01,-41.31 0.05,-61.95 z M 528.8,262.2 c 29,3.24 56.96,16.5 76.4,38.5 17.78,19.16 28.04,44.62 30.5,70.5 -8.82,-0.08 -17.68,-0.11 -26.5,-0.05 -3.16,-17.06 -9.1,-33.86 -20.4,-47.3 -14.7,-18.28 -36.94,-29.77 -60.1,-32.65 0.24,-9.68 0.22,-19.34 0.1,-29 z m -23.6,0.05 c -0.14,9.84 -0.09,19.71 -0.05,29.55 -24.42,4.1 -47.37,18.02 -60.95,38.9 -8.36,12.02 -12.94,26.2 -15,40.6 -10.02,-0.26 -20.06,-0.16 -30.1,-0.2 2.98,-32.24 18.71,-63.54 44.45,-83.5 17.58,-14.2 39.33,-22.55 61.65,-25.35 z m 23.6,42.25 c 18.72,3.48 36.69,12.74 48.55,27.9 9.22,10.98 14.33,24.78 16.65,38.8 -21.74,-0.18 -43.46,-0.08 -65.2,0 0.14,-22.22 0.04,-44.48 0,-66.7 z m -23.6,0.4 c -0.1,22.1 -0.08,44.17 0,66.25 -21.16,-0.1 -42.34,-0.04 -63.5,0 3.46,-18.94 12.26,-37.43 27.6,-49.55 10.18,-8.74 22.9,-13.8 35.9,-16.7 z"
     id="path22"
     inkscape:connector-curvature="0" />
  <path
     d="m 0,232.58 c 55.5,17.52 111.28,34.24 166.88,51.46 -0.82,3.1 -1.66,6.18 -2.46,9.28 C 109.62,279.84 54.7,266.9 0,253.04 l 0,-20.46 z"
     id="path28"
     inkscape:connector-curvature="0"
     style="fill:#c6ba9f" />
  <path
     d="M 868.74,282.34 C 920.46,266.24 972.4,250.82 1024,234.36 l 0,81.8 c -48.2,6.38 -96.52,11.96 -144.76,18.02 -2.44,-17.48 -5.88,-34.82 -10.5,-51.84 z"
     id="path30"
     inkscape:connector-curvature="0"
     style="fill:#c6ba9f" />
  <path
     d="m 0,266.26 c 54.04,12.26 108.28,23.68 162.38,35.68 -5.56,25.76 -8.32,52.1 -8.48,78.46 -51.3,0 -102.6,0 -153.9,0 L 0,266.26 z"
     id="path36"
     inkscape:connector-curvature="0"
     style="fill:#c6ba9f" />
  <path
     d="m 881.7,364.22 c 47.44,-1.56 94.88,-3 142.3,-4.74 l 0,20.92 c -47.32,0 -94.62,0 -141.94,0 -0.12,-5.4 -0.24,-10.8 -0.36,-16.18 z"
     id="path42"
     inkscape:connector-curvature="0"
     style="fill:#c6ba9f" />
  <path
     d="m 0,462.74 c 52.78,-8.62 105.68,-16.64 158.52,-24.98 2.54,14.94 5.88,29.74 10.02,44.32 C 112.4,497.22 56.06,511.64 0,527.08 l 0,-64.34 z"
     id="path44"
     inkscape:connector-curvature="0"
     style="fill:#c6ba9f" />
  <path
     d="m 877.36,438.66 c 48.86,7.82 97.84,15.04 146.64,23.2 l 0,103.62 C 969.5,544.92 914.7,525.1 860.08,504.86 c 7.56,-21.56 13.46,-43.68 17.28,-66.2 z"
     id="path46"
     inkscape:connector-curvature="0"
     style="fill:#c6ba9f" />
  <path
     d="m 458.86,509.9 c -0.64,-26.2 19.32,-50.82 45,-55.84 28.08,-6.82 58.96,11.92 66.42,39.72 7.78,24.88 -4.44,53.08 -26.76,65.92 -0.08,-6.18 -0.08,-12.36 -0.12,-18.54 5.54,-6.1 10.76,-12.92 12.52,-21.14 4.36,-16.12 -2.2,-34.4 -15.88,-44 -15.36,-11.52 -38.8,-10.14 -52.62,3.22 -11.68,10.5 -16.08,27.86 -11.42,42.78 2.28,8.1 7.78,14.7 13.68,20.48 0,6.02 0,12.08 -0.12,18.12 -18.14,-10.12 -31.02,-29.64 -30.7,-50.72 z"
     id="path48"
     inkscape:connector-curvature="0"
     style="fill:#f5e5c1" />
  <path
     d="m 0,539.56 c 56.86,-16.86 113.9,-33.16 170.88,-49.68 1.48,4.3 2.98,8.6 4.48,12.92 C 116.96,524.58 58.3,545.68 0,567.72 l 0,-28.16 z"
     id="path50"
     inkscape:connector-curvature="0"
     style="fill:#c6ba9f" />
  <path
     d="m 491.84,495.2 c 16.2,-0.12 32.42,-0.02 48.64,-0.06 0,1.88 0,5.64 0,7.54 -16.14,-0.04 -32.28,0 -48.4,-0.04 -0.06,-1.86 -0.18,-5.58 -0.24,-7.44 z"
     id="path52"
     inkscape:connector-curvature="0"
     style="fill:#f5e5c1" />
  <path
     d="m 492.14,506.52 c 16.1,-0.04 32.22,0 48.32,-0.04 0,9.06 0,18.1 0,27.16 -16.1,-0.06 -32.2,0 -48.3,-0.02 0.04,-9.04 0.04,-18.08 -0.02,-27.1 z"
     id="path54"
     inkscape:connector-curvature="0"
     style="fill:#f5e5c1" />
  <path
     d="m 499.64,540.48 c 11.08,0.16 22.18,0.06 33.28,0.1 -0.08,12.06 -0.06,24.14 -0.02,36.2 -11.1,-0.76 -22.24,-0.78 -33.36,-0.12 0.06,-12.06 -0.06,-24.12 0.1,-36.18 z"
     id="path56"
     inkscape:connector-curvature="0"
     style="fill:#f5e5c1" />
  <path
     d="m 0,678.7 c 67.12,-39.68 134.6,-78.78 201.96,-118.04 5.34,9.24 11.06,18.24 17.06,27.06 C 146.1,637.72 72.76,687.14 0,737.34 L 0,678.7 z"
     id="path58"
     inkscape:connector-curvature="0"
     style="fill:#c6ba9f" />
  <path
     d="m 803.4,606.66 c 10.08,-14.22 20.5,-28.22 29.12,-43.42 63.86,37.28 127.88,74.28 191.48,111.96 l 0,113.64 C 950.7,727.84 876.98,667.32 803.4,606.66 z"
     id="path60"
     inkscape:connector-curvature="0"
     style="fill:#c6ba9f" />
  <path
     d="m 511.1,584.55 c -6.00523,0.084 -11.9725,0.4425 -17.95,1.05 -26.62,2.74 -52.74,10.51 -76.4,23.05 -45.52,23.78 -81.37,65.27 -98.55,113.65 -8.02,21.66 -11.32,44.71 -12.9,67.65 -0.4,8.72 1.17,17.34 1.95,26 5.48,52.04 31.65,101.54 71.55,135.4 40.2,34.7 94.12,52.72 147.1,49.6 63.22,-3.06 124.08,-36.92 159.7,-89.3 23.34,-33.16 35.64,-73.31 37.4,-113.65 0.64,-16.74 -1.91,-33.44 -5.15,-49.8 C 706.71,696.16 674.61,649 630.25,619.6 595.3375,596.08 553.13664,583.96238 511.1,584.55 z m 3.9,34.8 c 28.17282,0.12656 56.31,7.08501 81.15,20.45 33.08,17.56 60.15,46.14 75.75,80.2 16.3,35.3 20.12,76.14 11,113.9 -7.18,30.2 -22.71,58.39 -44.55,80.45 -27.48,28.28 -64.96,46.66 -104.2,50.9 -34.94,4.12 -71.12,-2.71 -102.1,-19.45 -31.66,-16.98 -57.87,-44.04 -73.55,-76.4 -16.86,-34.18 -21.82,-74 -14.2,-111.3 6.64,-33.28 23.4,-64.5 47.6,-88.3 25.52,-25.58 59.28,-42.74 95,-48.3 9.27501,-1.48 18.70906,-2.19219 28.1,-2.15 z"
     id="path62"
     style="fill:#f5e5c1"
     inkscape:connector-curvature="0" />
  <path
     d="m 0,765.8 c 75.36,-56.08 151.16,-111.58 226.72,-167.4 9.1,11.88 18.66,23.42 29.2,34.04 C 170.8,711.78 85.02,790.42 0,869.86 L 0,765.8 z"
     id="path64"
     inkscape:connector-curvature="0"
     style="fill:#c6ba9f" />
  <path
     d="m 508.14,630.34 c 4.12,-0.06 8.26,-0.08 12.42,-0.1 0,8.46 0,16.92 0,25.38 -4.14,0 -8.28,0.02 -12.42,0.06 0.04,-8.46 0.04,-16.9 0,-25.34 z"
     id="path68"
     inkscape:connector-curvature="0"
     style="fill:#f5e5c1" />
  <path
     d="m 536.08,634.72 c 4.32,0.7 8.66,1.44 13,2.2 -3.04,25 -5.58,50.06 -8.48,75.06 -0.34,4.84 -3.42,8.78 -6,12.66 -10.46,15 -20.28,30.46 -30.84,45.4 10.36,-45.2 21.78,-90.16 32.32,-135.32 z"
     id="path70"
     inkscape:connector-curvature="0"
     style="fill:#f4722b" />
  <path
     d="m 758.44,653.46 c 6.62,-6.24 13.2,-12.52 19.66,-18.92 82.04,65.2 164.18,130.28 245.9,195.86 l 0,171.34 C 935.74,885.46 846.9,769.6 758.44,653.46 z"
     id="path72"
     inkscape:connector-curvature="0"
     style="fill:#c6ba9f" />
  <path
     d="M 0,895.64 C 87.18,809.98 174.98,724.92 262.32,639.4 c 3.96,3.52 7.88,7.08 11.8,10.66 C 182.84,769.98 91.12,889.56 0,1009.6 L 0,895.64 z"
     id="path74"
     inkscape:connector-curvature="0"
     style="fill:#c6ba9f" />
  <path
     d="m 499.56,787.08 c 30.1,-45.28 60.1,-90.64 90.2,-135.9 3.68,2.18 7.38,4.36 11.08,6.54 -24.34,48.6 -48.38,97.36 -72.62,146 -9.52,-5.6 -19.12,-11.06 -28.66,-16.64 z"
     id="path76"
     inkscape:connector-curvature="0"
     style="fill:#f5e5c1" />
  <path
     d="m 394.7,682.18 c 2.98,-2.94 5.94,-5.88 8.9,-8.82 6.24,6.38 12.58,12.64 18.98,18.88 -2.96,3 -5.88,6 -8.78,9.02 -6.34,-6.38 -12.7,-12.76 -19.1,-19.08 z"
     id="path78"
     inkscape:connector-curvature="0"
     style="fill:#f5e5c1" />
  <path
     d="m 625.36,673.44 c 2.96,2.94 5.92,5.88 8.9,8.8 -5.72,5.6 -11.42,11.26 -17,17 -3,-2.96 -6.02,-5.9 -9.04,-8.82 5.8,-5.54 11.5,-11.24 17.14,-16.98 z"
     id="path80"
     inkscape:connector-curvature="0"
     style="fill:#f5e5c1" />
  <path
     d="m 473.64,761.74 c 6.7,-9.38 16.98,-15.38 27.72,-19.06 -0.86,5.16 -1.78,10.34 -2.72,15.48 -8.46,4.84 -15.96,11.98 -19,21.5 -6.28,16.68 2.04,36.96 18,44.74 14.88,8 34.82,3.68 45.2,-9.58 8.5,-10.22 10.16,-24.7 5.66,-37.02 2.64,-4.72 5.36,-9.4 8.12,-14.06 9.02,14 11.26,32.3 4.68,47.76 -7.04,17.56 -24.6,30.28 -43.52,31.38 -19.44,1.56 -39.14,-9.3 -48.18,-26.58 -9.44,-16.94 -7.74,-39.2 4.04,-54.56 z"
     id="path82"
     inkscape:connector-curvature="0"
     style="fill:#f5e5c1" />
  <path
     d="m 352.7,786.7 c 8.58,0.08 17.16,0.08 25.74,-0.08 0,4.2 0.02,8.38 0.04,12.6 -8.58,-0.02 -17.18,-0.02 -25.76,0 0,-4.18 0,-8.36 -0.02,-12.52 z"
     id="path84"
     inkscape:connector-curvature="0"
     style="fill:#f5e5c1" />
  <path
     d="m 654.32,786.74 c 8.1,0 16.2,0 24.28,0.02 -0.02,4.14 -0.02,8.3 -0.02,12.46 -8.08,-0.02 -16.16,-0.02 -24.24,-0.04 0.02,-4.16 0,-8.3 -0.02,-12.44 z"
     id="path86"
     inkscape:connector-curvature="0"
     style="fill:#f5e5c1" />
  <path
     d="m 738.86,785.92 c 5.04,12.42 11.06,24.4 16.62,36.6 31.36,67.12 62.16,134.52 93.88,201.48 l -93.6,0 c -14.1,-38.88 -27.16,-78.16 -41.18,-117.08 -1.02,-3.52 -3.04,-7.4 -0.96,-10.92 17.04,-33.92 26.62,-72.02 25.24,-110.08 z"
     id="path88"
     inkscape:connector-curvature="0"
     style="fill:#c6ba9f" />
  <path
     d="m 180.7,1024 c 36.44,-77.76 72.74,-155.62 108.54,-233.7 0.38,33.3 7.66,66.64 21.52,96.94 2.58,6.22 7.98,12.72 4.56,19.72 -13.84,38.96 -27.02,78.16 -41.1,117.04 l -93.52,0 z"
     id="path90"
     inkscape:connector-curvature="0"
     style="fill:#c6ba9f" />
  <path
     d="m 413.12,885.52 c 3.02,2.88 6.02,5.8 9.06,8.7 -6.06,6.18 -12.28,12.2 -18.34,18.38 -2.96,-2.94 -5.92,-5.88 -8.9,-8.78 6.14,-6.02 12.22,-12.1 18.18,-18.3 z"
     id="path92"
     inkscape:connector-curvature="0"
     style="fill:#f5e5c1" />
  <path
     d="m 608.68,896.2 c 3.02,-2.92 6.04,-5.84 9.04,-8.76 5.38,5.5 10.84,10.96 16.32,16.36 -2.98,2.9 -5.96,5.82 -8.94,8.76 -5.42,-5.52 -10.9,-10.96 -16.42,-16.36 z"
     id="path94"
     inkscape:connector-curvature="0"
     style="fill:#f5e5c1" />
  <path
     d="m 508.12,931.38 c 4.14,0.06 8.28,0.12 12.44,0.18 0,8.2 0.02,16.4 -0.02,24.6 -4.1,0 -8.2,0 -12.3,0 -0.1,-8.26 -0.06,-16.52 -0.12,-24.78 z"
     id="path96"
     inkscape:connector-curvature="0"
     style="fill:#f5e5c1" />
</svg>
