<?xml version="1.0" encoding="UTF-8" standalone="no"?>
<svg
   xmlns:dc="http://purl.org/dc/elements/1.1/"
   xmlns:cc="http://creativecommons.org/ns#"
   xmlns:rdf="http://www.w3.org/1999/02/22-rdf-syntax-ns#"
   xmlns:svg="http://www.w3.org/2000/svg"
   xmlns="http://www.w3.org/2000/svg"
   xmlns:sodipodi="http://sodipodi.sourceforge.net/DTD/sodipodi-0.dtd"
   xmlns:inkscape="http://www.inkscape.org/namespaces/inkscape"
   width="1280"
   height="1280"
   viewBox="0 0 1024 1024"
   version="1.1"
   id="svg2"
   inkscape:version="0.48.1 "
   sodipodi:docname="rifle_no_missing.svg">
  <metadata
     id="metadata66">
    <rdf:RDF>
      <cc:Work
         rdf:about="">
        <dc:format>image/svg+xml</dc:format>
        <dc:type
           rdf:resource="http://purl.org/dc/dcmitype/StillImage" />
      </cc:Work>
    </rdf:RDF>
  </metadata>
  <defs
     id="defs64" />
  <sodipodi:namedview
     pagecolor="#ffffff"
     bordercolor="#666666"
     borderopacity="1"
     objecttolerance="10"
     gridtolerance="10"
     guidetolerance="10"
     inkscape:pageopacity="0"
     inkscape:pageshadow="2"
     inkscape:window-width="1920"
     inkscape:window-height="1018"
     id="namedview62"
     showgrid="false"
     fit-margin-top="0"
     fit-margin-left="0"
     fit-margin-right="0"
     fit-margin-bottom="0"
     inkscape:zoom="0.6609375"
     inkscape:cx="640"
     inkscape:cy="640"
     inkscape:window-x="-8"
     inkscape:window-y="-8"
     inkscape:window-maximized="1"
     inkscape:current-layer="svg2" />
  <path
     d="m 0,0 1024,0 0,1024 L 0,1024 0,0 z"
     id="path4"
     style="fill:#3e3e3e"
     inkscape:connector-curvature="0" />
  <path
     d="m 493.9,53.96 c 3.96,-8.44 18.36,-8.84 22.4,-0.32 13.44,24.02 28.9,48.2 31.94,76.2 0.54,20.7 0.22,41.42 0.16,62.14 -4.2,2.62 -8.44,5.2 -12.7,7.72 -0.04,-23.26 -0.18,-46.52 0.12,-69.78 0.4,-7.9 -3.94,-14.8 -5.9,-22.22 -2.5,-9.12 -5.44,-18.12 -8.54,-27.04 -2.82,-7.88 -3.84,-17.26 -11.1,-22.54 2.22,22.26 11.86,43.2 12.68,65.72 0.48,26.86 -0.24,53.76 0.36,80.62 -3.36,0.34 -6.72,0.68 -10.06,1 0.18,-19.16 0.08,-38.32 0.06,-57.48 1.5,-28.5 -1.7,-57.02 -6.22,-85.14 -0.96,-0.08 -2.88,-0.24 -3.82,-0.34 1.36,19.86 1.76,39.78 3.52,59.62 0.44,23.92 0.08,47.86 0.2,71.8 -0.16,4.46 0.48,10.56 -4.6,12.6 -15.42,-0.78 -30.38,-5.92 -43.16,-14.56 -0.14,-17.32 -0.74,-34.64 -0.78,-51.98 -0.14,-15.36 3.52,-30.86 11.22,-44.22 7.98,-13.98 15.64,-28.18 24.22,-41.8 z"
     id="path6"
     inkscape:connector-curvature="0"
     style="fill:#f4722b" />
  <path
     d="m 157.42,84.9 c 2.46,-6 10.34,-6.86 15.92,-6.12 8.1,4.94 13.1,13.54 19.7,20.18 10.82,13.28 24.06,25.18 30.56,41.38 6.34,13.74 7.82,29 10.56,43.7 1.32,8.84 3.5,17.54 4.54,26.44 -6.78,10.26 -18.48,16.02 -29.52,20.66 -4.3,2.04 -9.06,2.42 -13.74,2.26 -5.66,-21.58 -9.08,-43.64 -13.54,-65.48 -5.22,-25.3 -6.34,-51.28 -11.8,-76.54 -4.56,6.82 -2.06,15.12 -1.76,22.68 0.72,15.44 3.26,30.68 4.96,46.02 5.46,24.98 10.7,50.04 14.82,75.3 -3.14,0.2 -6.26,0.38 -9.4,0.56 -4.1,-22.06 -8.56,-44.04 -12.9,-66.04 -5.98,-25.78 -2.22,-52.38 -1.56,-78.5 -3.22,1.18 -5.02,3.4 -5.38,6.68 -3.04,19.26 -4.42,38.74 -7.3,58.02 -1.02,6.02 0.9,11.98 2.02,17.84 4.14,19.96 7.96,40 11.74,60.04 -4.58,-1.78 -9.14,-3.56 -13.66,-5.42 -4,-20.98 -8.48,-41.88 -12.12,-62.9 -0.22,-16 1.52,-32.26 6.86,-47.42 3.82,-11.06 6.4,-22.56 11,-33.34 z"
     id="path8"
     inkscape:connector-curvature="0"
     style="fill:#f4722b" />
  <path
     d="m 824.44,82.26 c 4.54,-5.88 12.82,-3.9 18.44,-0.94 6.04,9.24 7.56,20.6 11.34,30.86 6.14,17.18 9.5,35.52 8.6,53.78 -3.42,21.06 -8.02,41.9 -12.1,62.84 -4.52,1.76 -9.1,3.38 -13.62,5.08 4.74,-23.92 9.46,-47.86 14,-71.8 -2.08,-23 -4.68,-46.12 -8.34,-68.98 -1.06,-0.3 -3.18,-0.92 -4.24,-1.24 0.22,11.2 0.28,22.42 1.42,33.56 1.74,17.28 -0.9,34.64 -4.62,51.48 -3.76,19.64 -8.04,39.16 -11.2,58.9 -3.34,-0.12 -6.66,-0.26 -9.96,-0.4 4.88,-25.82 9.66,-51.68 15.48,-77.32 2.02,-19.36 4.96,-38.68 5.46,-58.18 0.16,-2.88 -0.8,-5.38 -2.9,-7.48 -3.04,13.86 -4.22,28.02 -6.48,42.02 -2.6,25.62 -8.64,50.7 -13.38,75.98 -1.68,7.52 -2.18,15.52 -5.92,22.4 -5.44,2.44 -11.02,-1.18 -16.1,-2.96 -10.4,-4.06 -19.44,-10.78 -27.06,-18.86 7.2,-28.26 6.2,-59.64 23.22,-84.54 11.98,-15.28 24.9,-29.84 37.96,-44.2 z"
     id="path10"
     inkscape:connector-curvature="0"
     style="fill:#f4722b" />
  <path
     d="m 457.22,204.1 c 11.98,11 28.9,11.2 44.1,13.22 0.92,24.34 2.12,48.72 0.12,73.04 -11.64,0.32 -23.06,-3.22 -34.52,-3.14 -0.24,3.42 1.46,6.08 4.82,6.92 9.46,3.2 19.52,4.44 29.5,4.68 1.54,4.68 3.1,9.36 4.2,14.18 6.02,27.28 11.3,54.72 17.72,81.92 -27.72,1.68 -56.84,-0.16 -82.26,-12.2 -3.3,5.3 0.4,10.7 5.6,12.66 24.92,9.06 52,13.92 78.44,9.58 0.08,102.38 0,204.74 0.04,307.12 0.64,3.66 -1.32,6.68 -4.4,8.46 -19.18,13.22 -33.96,32.08 -44.18,52.88 -10.5,-21.5 -26.12,-40.5 -45.72,-54.3 -0.26,-105.08 0.16,-210.16 -0.22,-315.24 0.32,-8.66 -0.16,-17.34 0.44,-26 2.08,-12.94 7.1,-25.14 11.7,-37.34 6.1,-17.76 10.82,-36.06 14.06,-54.56 0.68,-27.28 -0.4,-54.6 0.56,-81.88 z"
     id="path12"
     inkscape:connector-curvature="0"
     style="fill:#f5e5c1" />
  <path
     d="m 539.06,210.28 c 3.22,-1.96 6.42,-4 9.6,-6.06 1.24,26.58 -0.3,53.26 0.78,79.84 6.22,25.36 14.84,50.08 21,75.46 1.34,7.74 7.02,14.34 6.34,22.44 -0.84,105.1 -0.18,210.2 -0.42,315.32 -5.04,1.12 -10.08,2.3 -15.1,3.5 0.2,-51.66 0.28,-103.32 0.4,-154.98 1.34,-35.86 0.5,-71.8 0.78,-107.7 -0.3,-13.62 0.92,-27.36 -1,-40.9 4.2,-3.4 8.92,-6.42 11.78,-11.14 -3.4,-5.62 -9.46,-0.26 -14.08,0.88 -7.06,-31.36 -14.94,-62.58 -21.02,-94.14 1.28,-0.6 3.84,-1.8 5.12,-2.4 -0.06,-1.72 -0.1,-3.42 -0.14,-5.12 -1.54,-0.18 -4.6,-0.52 -6.14,-0.7 0.44,-24.78 1.44,-49.52 2.1,-74.3 z"
     id="path14"
     inkscape:connector-curvature="0"
     style="fill:#f5e5c1" />
  <path
     d="m 513.06,217.72 c 1.44,-0.58 4.36,-1.78 5.8,-2.38 -0.66,24.3 0.42,48.62 -0.08,72.94 -1.52,0.12 -4.54,0.34 -6.04,0.46 -1.02,-23.68 0.54,-47.34 0.32,-71.02 z"
     id="path16"
     inkscape:connector-curvature="0"
     style="fill:#f5e5c1" />
  <path
     d="m 243.34,223.72 c 4.52,17.08 6.94,34.64 10.76,51.9 2.86,12.28 3.26,25.34 9.1,36.74 4.72,10.06 8.88,20.38 14.14,30.16 8.14,15.92 19.7,30.08 25.6,47.1 6.64,27.92 11.04,56.28 16.76,84.4 14.66,73.9 28.66,147.94 43.58,221.8 -32.74,-0.86 -65.64,10.84 -90.1,32.72 -18.5,-94.84 -37.04,-189.68 -55.6,-284.5 -0.66,-3.54 -1.14,-7.12 -1.62,-10.68 27.12,-1.28 53.28,-11.12 76.04,-25.56 4.34,-2.56 3.36,-7.96 3.44,-12.16 -11.74,6.2 -23.26,13.04 -35.9,17.34 -14.36,4.8 -29.12,8.54 -44.18,10.18 -0.06,-17.72 1.56,-35.4 1.24,-53.12 0.66,-15.2 -0.92,-30.58 2.02,-45.6 10.66,-2.34 21.32,-5.82 30.44,-11.9 -0.06,-1.76 2.34,-7.62 -1.44,-5.86 -10.44,3.48 -20.68,8.04 -31.76,9.4 -4.38,-23.9 -10.26,-47.6 -13.08,-71.74 14.6,-4.32 30.3,-8.48 40.56,-20.62 z"
     id="path18"
     inkscape:connector-curvature="0"
     style="fill:#f5e5c1" />
  <path
     d="m 759.24,223.62 c 4.18,4.22 8.5,8.44 13.84,11.18 8.24,4.66 17.86,5.9 26.32,10.06 0.08,2.3 -0.02,4.58 -0.34,6.86 -3.78,21.54 -7.92,43.02 -12.56,64.4 -11.62,-1.72 -22.46,-6.28 -33.44,-10.18 -0.1,2.18 -0.18,4.34 -0.24,6.5 9.88,5.64 20.5,9.9 31.64,12.34 1.9,32.76 2.06,65.6 2.58,98.42 -24.92,-3.1 -49.6,-10.2 -71.32,-22.98 -2.86,-1.78 -5.88,-3.24 -9.04,-4.32 -0.14,4.64 0.1,10.04 4.76,12.54 22.8,14 48.66,23.88 75.62,24.96 -18.98,96.92 -37.9,193.84 -56.86,290.76 -0.36,4.9 -5.06,7.06 -8.4,9.78 -8.04,5.68 -13.04,14.42 -17.6,22.92 -15.76,-24.14 -39.12,-43.1 -66.06,-53.38 15.22,-79.86 31.12,-159.6 46.62,-239.4 4.44,-21.22 7.58,-42.68 12.46,-63.82 1.98,-15.12 10.46,-28.18 18.24,-40.9 10,-15.42 17.3,-32.34 24.8,-49.06 1.76,-3.9 3.18,-7.96 3.98,-12.16 4.94,-24.86 8.96,-49.9 15,-74.52 z"
     id="path20"
     inkscape:connector-curvature="0"
     style="fill:#f5e5c1" />
  <path
     d="m 153.96,240.7 c 3.48,1.58 6.98,3.08 10.48,4.6 5.94,23.7 10.02,47.82 16.22,71.46 -2.02,1 -4.02,2 -6.02,3 0.22,1.2 0.66,3.6 0.9,4.8 1.44,0.26 4.32,0.78 5.76,1.04 -0.1,31.98 -2.36,63.86 -2.54,95.82 -4.86,-0.26 -9.7,-0.48 -14.56,-0.32 1.78,6.76 8.78,8.62 14.06,11.82 0.38,4.44 0.76,8.92 1.62,13.3 17.2,85.6 33.66,171.36 51.32,256.86 -5.24,-0.68 -10.5,-1.14 -15.76,-1.62 -18.36,-93.48 -36.28,-187.06 -55.1,-280.44 -2.56,-8.42 2.18,-16.58 2.06,-25.06 0.64,-22.8 3.98,-45.38 5.32,-68.12 2.08,-10.8 -2.2,-21.28 -3.7,-31.86 -2.98,-18.5 -8.18,-36.62 -10.06,-55.28 z"
     id="path22"
     inkscape:connector-curvature="0"
     style="fill:#f5e5c1" />
  <path
     d="m 837.98,245.38 c 3.68,-1.58 7.36,-3.16 11.02,-4.82 -4.22,25.16 -9.6,50.12 -14.3,75.18 -0.82,21.5 3.74,42.74 4.52,64.2 1.04,10.4 0.84,21 3.38,31.22 0.62,2.44 0.54,5 0.1,7.5 -20.46,101.52 -39.98,203.26 -59.88,304.92 -4.84,-1.18 -9.7,-2.32 -14.56,-3.4 18.72,-96.08 38.74,-191.92 56.76,-288.12 5.1,-2.58 12.16,-4.24 12.98,-11.02 -4.82,-0.08 -9.64,0.08 -14.44,0.32 -0.08,-31.94 -1.84,-63.82 -2.48,-95.74 1.46,-0.24 4.38,-0.74 5.84,-1 0.24,-1.74 0.5,-3.46 0.76,-5.18 -1.38,-0.52 -4.12,-1.56 -5.5,-2.08 5.22,-24 10.32,-48.04 15.8,-71.98 z"
     id="path24"
     inkscape:connector-curvature="0"
     style="fill:#f5e5c1" />
  <path
     d="m 184.86,246.78 c 2.12,-0.08 4.26,-0.16 6.38,-0.22 3.92,23.58 10.9,46.52 14.1,70.26 -2.06,0.26 -4.08,0.5 -6.12,0.76 -5.4,-23.48 -8.28,-47.5 -14.36,-70.8 z"
     id="path26"
     inkscape:connector-curvature="0"
     style="fill:#f5e5c1" />
  <path
     d="m 811.14,246.7 c 2.12,-0.02 4.24,-0.02 6.38,-0.04 -6.04,23.22 -8.18,47.32 -14.48,70.46 -1.5,0.04 -4.46,0.12 -5.94,0.16 2.6,-14.54 4.94,-29.18 8.5,-43.52 2.8,-8.82 4.1,-17.96 5.54,-27.06 z"
     id="path28"
     inkscape:connector-curvature="0"
     style="fill:#f5e5c1" />
  <path
     d="m 513.54,298.42 c 1.32,-0.56 3.94,-1.68 5.24,-2.26 7.92,32.04 14.74,64.32 22.3,96.44 -2.56,0.42 -5.12,0.84 -7.68,1.26 -6.48,-31.84 -14.12,-63.48 -19.86,-95.44 z"
     id="path30"
     inkscape:connector-curvature="0"
     style="fill:#f5e5c1" />
  <path
     d="m 199.94,335.86 c 1,-3.68 -1.3,-10.18 4.24,-10.72 0.58,0.62 1.72,1.86 2.28,2.5 0.62,10.76 -0.06,21.58 -0.12,32.36 -1.44,21.62 -0.62,43.32 -1.46,64.98 -2.56,-0.6 -5.14,-1.06 -7.72,-1.38 1.38,-29.22 1.86,-58.48 2.78,-87.74 z"
     id="path32"
     inkscape:connector-curvature="0"
     style="fill:#f5e5c1" />
  <path
     d="m 796.72,325.06 c 1.44,0.48 4.34,1.42 5.78,1.88 0.06,32.54 2.34,65 2.6,97.54 -1.94,0 -5.8,0 -7.72,0 -0.16,-33.14 -1.42,-66.3 -0.66,-99.42 z"
     id="path34"
     inkscape:connector-curvature="0"
     style="fill:#f5e5c1" />
  <path
     d="m 535.42,404.92 c 2.52,-0.92 5.06,-1.8 7.64,-2.64 0.3,101.6 0.1,203.2 0.08,304.78 -2.56,1.32 -5.12,2.62 -7.66,3.96 0,-102.04 0.12,-204.06 -0.06,-306.1 z"
     id="path36"
     inkscape:connector-curvature="0"
     style="fill:#f5e5c1" />
  <path
     d="m 196.92,434.64 c 2.64,0.02 5.26,0.04 7.9,0.1 19.64,100.86 39.64,201.66 59.02,302.58 -2.12,2.52 -4.22,5.06 -6.3,7.62 -19.86,-103.5 -40.18,-206.92 -60.62,-310.3 z"
     id="path38"
     inkscape:connector-curvature="0"
     style="fill:#f5e5c1" />
  <path
     d="m 797.6,434.74 c 2.64,0.06 5.3,0.04 7.96,-0.08 -19.06,95.52 -37.1,191.26 -56.4,286.74 -2.7,0.58 -5.38,1.16 -8.06,1.76 19.24,-96.06 37.82,-192.26 56.5,-288.42 z"
     id="path40"
     inkscape:connector-curvature="0"
     style="fill:#f5e5c1" />
  <path
     d="m 357.5,715.8 c -4.36083,0.008 -8.71875,0.2675 -13.05,0.8 -34.8,4.32 -65.71,27.18 -82.95,57.3 -18.9,32.58 -22.63,73.4 -10.45,109 9.98,29.88 31.87,55.8 60.25,69.7 23.66,11.62 51.69,13.83 76.95,6.35 29.6,-8.88 54.55,-30.83 68.65,-58.15 15.62,-29.64 18.79,-65.36 9.65,-97.5 -8.34,-30.04 -28.07,-57.01 -55.05,-72.85 -16.2175,-9.81501 -35.10309,-14.68453 -54,-14.65 z m 0.55,75.05 c 11.42234,0.0766 22.8275,4.2025 31.6,11.6 19.86,16.48 26.05,44.97 20.55,69.45 -4.96,21.02 -21.26,39.86 -42.6,45.1 -14.58,3.78 -30.04,-1.8 -41.2,-11.3 -21.9,-18.38 -26.67,-50.94 -17.55,-77 5.52,-15.9 17.61,-30.02 33.85,-35.4 4.95626,-1.70626 10.15803,-2.48483 15.35,-2.45 z"
     id="path42"
     style="fill:#f4722b"
     inkscape:connector-curvature="0" />
  <path
     d="m 593.05,715.85 c -5.41094,0.0916 -10.81499,0.55 -16.15,1.4 -36.66,6.36 -68.02,32.99 -83.4,66.45 -16.64,35.5 -16.56,78.47 0.7,113.75 12.14,25.22 33.16,46.31 59,57.35 26.28,11.38 57.22,11.32 83.5,0 23.06,-9.88 42.28,-27.78 54.8,-49.4 19.38,-33.5 22.43,-75.71 8.95,-111.85 -10.5,-29.08 -32.27,-54.19 -60.25,-67.55 -14.61,-7.21499 -30.91718,-10.42469 -47.15,-10.15 z m 2.9,75 c 11.30669,0.24637 22.51499,4.48875 31.15,11.9 19.28,16.08 25.18,43.57 20.6,67.45 -4.36,21.1 -20.02,40.14 -41,46.3 -12.02,3.76 -25.27,0.94 -35.85,-5.5 -16.3,-9.94 -26.88,-28.02 -28.7,-46.9 -1.72,-16.46 0.97,-33.83 9.85,-48.05 6.46,-10.72 16.7,-19.24 28.7,-23 4.9375,-1.6125 10.11059,-2.31198 15.25,-2.2 z"
     id="path44"
     style="fill:#f4722b"
     inkscape:connector-curvature="0" />
  <path
     d="m 116.34,772.86 c 18.9,-17.44 36.06,-36.8 55.5,-53.6 19.22,0.06 38.4,2.34 57.6,3.34 -3.62,80.2 -7,160.4 -10.46,240.62 -20.86,-0.96 -41.72,-2.02 -62.58,-3.26 1.9,-55.5 4.24,-110.98 6.1,-166.48 -5.38,5.12 -10.64,10.38 -15.98,15.56 -9.96,-12.14 -20,-24.24 -30.18,-36.18 z"
     id="path46"
     inkscape:connector-curvature="0"
     style="fill:#f4722b" />
  <path
     d="m 726.76,932.08 c 47.08,-67.24 94.38,-134.34 141.56,-201.5 9.24,6.64 18.44,13.38 27.66,20.08 -45.94,67.94 -91.82,135.92 -137.86,203.78 -10.5,-7.4 -20.92,-14.9 -31.36,-22.36 z"
     id="path48"
     inkscape:connector-curvature="0"
     style="fill:#f4722b" />
  <path
     d="m 761.85,739.8 c -4.40106,-0.0635 -8.81875,0.50626 -13.05,1.65 -17.34,5.06 -30.35,22.3 -29.45,40.5 -0.46,20.88 18.05,39.61 38.75,40.25 18.8,1.78 38.1,-10.1 43.8,-28.3 5.24,-15.72 -0.07,-34.38 -13.25,-44.6 -7.5075,-6.22875 -17.1177,-9.36024 -26.8,-9.5 z m -1.5,27.95 c 8.50453,-0.32315 17.42875,5.18374 17.9,14.3 1.7,13.98 -17.56,22.63 -27.6,13.45 -9.1,-6.82 -7.07,-22.93 3.95,-26.55 1.8075,-0.72 3.78742,-1.12542 5.75,-1.2 z"
     id="path50"
     style="fill:#f4722b"
     inkscape:connector-curvature="0" />
  <path
     d="m 866.95,862.8 c -4.85162,-0.0441 -9.69374,0.6625 -14.3,2.1 -15.6,5.04 -27.19,20.65 -26.75,37.15 -0.6,15.46 8.82,30.57 22.7,37.25 17.5,8.6 40.61,2.98 51.95,-13 11.84,-15.28 9.96,-39.22 -4.5,-52.2 -7.79626,-7.46626 -18.42645,-11.20306 -29.1,-11.3 z m -0.3,23.4 c 8.33098,0.1 16.59125,6.83 15.6,15.8 -1.12,12.3 -18.59,17.03 -26.65,8.25 -6.86,-6.86 -3.7,-19.8 5.4,-23 1.81499,-0.73125 3.72747,-1.07307 5.65,-1.05 z"
     id="path58"
     style="fill:#f4722b"
     inkscape:connector-curvature="0" />
</svg>
