<?xml version="1.0" encoding="UTF-8" ?>
<!DOCTYPE svg PUBLIC "-//W3C//DTD SVG 1.1//EN" "http://www.w3.org/Graphics/SVG/1.1/DTD/svg11.dtd">
<svg width="512pt" height="512pt" viewBox="0 0 512 512" version="1.1" xmlns="http://www.w3.org/2000/svg">
<path fill="#3e3e3e" opacity="1.00" d=" M 0.00 0.00 L 236.52 0.00 C 229.96 3.55 223.83 7.84 217.26 11.37 C 210.70 14.92 204.49 19.10 198.75 23.86 C 196.30 25.99 191.83 26.45 191.25 30.17 C 189.21 41.02 188.02 52.02 186.86 62.99 C 186.53 65.04 187.15 67.03 187.87 68.92 C 189.91 64.73 190.04 59.69 193.09 56.00 C 198.29 48.95 203.21 41.62 209.46 35.43 C 218.54 25.89 227.24 15.92 237.19 7.25 C 240.57 4.52 243.83 1.32 248.07 0.00 L 253.08 0.00 C 247.47 3.65 242.16 7.77 237.03 12.07 C 233.54 15.29 229.23 17.90 227.19 22.38 C 230.92 23.57 234.12 20.82 237.37 19.45 C 253.89 11.51 271.23 5.37 288.73 0.00 L 512.00 0.00 L 512.00 512.00 L 0.00 512.00 L 0.00 0.00 Z" />
<path fill="#f5e5c1" opacity="1.00" d=" M 236.52 0.00 L 248.07 0.00 C 243.83 1.32 240.57 4.52 237.19 7.25 C 227.24 15.92 218.54 25.89 209.46 35.43 C 203.21 41.62 198.29 48.95 193.09 56.00 C 190.04 59.69 189.91 64.73 187.87 68.92 C 187.15 67.03 186.53 65.04 186.86 62.99 C 188.02 52.02 189.21 41.02 191.25 30.17 C 191.83 26.45 196.30 25.99 198.75 23.86 C 204.49 19.10 210.70 14.92 217.26 11.37 C 223.83 7.84 229.96 3.55 236.52 0.00 Z" />
<path fill="#f5e5c1" opacity="1.00" d=" M 253.08 0.00 L 288.73 0.00 C 271.23 5.37 253.89 11.51 237.37 19.45 C 234.12 20.82 230.92 23.57 227.19 22.38 C 229.23 17.90 233.54 15.29 237.03 12.07 C 242.16 7.77 247.47 3.65 253.08 0.00 Z" />
<path fill="#f5e5c1" opacity="1.00" d=" M 448.25 39.03 C 455.87 34.25 463.40 29.31 470.67 24.00 C 470.83 35.35 470.73 46.70 471.16 58.04 C 471.28 59.26 471.57 60.46 471.84 61.66 C 455.23 75.63 438.60 89.57 421.94 103.48 C 419.40 96.99 419.91 89.91 419.52 83.09 C 419.25 74.72 418.54 66.37 418.40 57.99 C 424.01 52.91 430.69 49.27 437.14 45.39 C 439.86 43.82 442.39 41.76 445.51 41.02 C 447.35 45.68 449.35 50.26 451.29 54.88 C 450.67 49.52 449.16 44.34 448.25 39.03 Z" />
<path fill="#f5e5c1" opacity="1.00" d=" M 474.49 41.43 C 476.79 39.61 479.42 38.24 481.89 36.67 C 479.80 45.07 477.43 53.40 475.15 61.76 C 474.25 57.23 474.73 52.57 474.33 47.99 C 474.38 45.83 473.78 43.51 474.49 41.43 Z" />
<path fill="#f5e5c1" opacity="1.00" d=" M 68.94 47.90 C 91.34 52.96 113.59 58.71 135.95 63.97 C 138.35 69.29 140.65 74.65 142.99 79.99 C 120.66 75.02 98.34 70.00 76.01 65.01 C 75.23 61.05 74.92 57.00 73.87 53.11 C 72.44 51.18 70.58 49.64 68.94 47.90 Z" />
<path fill="#f5e5c1" opacity="1.00" d=" M 51.61 64.93 C 53.95 58.71 59.05 54.20 63.00 49.03 C 65.31 50.75 67.90 52.16 69.93 54.23 C 71.37 58.63 72.20 63.20 73.40 67.67 C 89.57 71.25 105.81 74.52 122.00 78.02 C 121.29 83.31 119.54 88.63 120.62 94.00 C 121.90 101.97 123.55 109.97 126.43 117.53 C 129.91 122.91 134.02 127.93 138.63 132.39 C 140.91 134.78 143.76 136.90 144.63 140.25 C 146.52 141.29 148.35 142.45 150.01 143.83 C 121.67 142.20 93.34 139.96 65.02 137.96 C 62.23 134.30 56.67 133.73 55.04 129.10 C 51.15 122.73 47.45 116.19 45.13 109.06 C 43.73 104.17 44.29 99.03 44.21 94.02 C 44.11 83.87 47.58 74.11 51.61 64.93 Z" />
<path fill="#f5e5c1" opacity="1.00" d=" M 419.65 111.23 C 437.34 94.96 454.82 78.46 472.25 61.91 C 473.93 64.14 475.45 66.48 476.87 68.89 C 434.50 105.52 392.30 142.34 350.00 179.03 C 346.82 181.73 343.84 184.68 340.38 187.02 C 338.84 182.97 336.91 179.08 335.44 175.01 C 363.12 151.11 390.71 127.11 418.27 103.06 C 418.58 105.81 419.05 108.53 419.65 111.23 Z" />
<path fill="#f5e5c1" opacity="1.00" d=" M 481.23 72.14 C 486.66 69.96 492.77 69.89 498.42 68.29 C 499.51 72.54 500.64 76.79 501.66 81.06 C 495.25 86.17 490.42 92.85 484.57 98.53 C 480.39 102.70 476.72 107.37 472.32 111.30 C 469.32 112.38 466.06 112.12 462.93 112.34 C 456.95 112.44 451.01 113.31 445.03 113.44 C 439.68 113.52 434.37 114.71 429.02 114.01 C 446.37 100.00 463.79 86.06 481.23 72.14 Z" />
<path fill="#f4722b" opacity="1.00" d=" M 192.02 162.81 C 192.96 162.16 194.08 162.04 195.11 162.55 C 222.07 171.88 248.98 181.37 276.00 190.53 C 275.21 193.10 274.18 195.59 273.09 198.05 C 266.29 214.04 259.59 230.07 252.75 246.05 C 253.63 245.79 255.39 245.26 256.27 244.99 C 255.66 245.79 254.43 247.40 253.82 248.20 C 253.10 247.95 252.39 247.71 251.68 247.47 C 250.77 250.74 246.62 251.13 244.23 253.03 C 246.38 254.18 250.45 253.89 250.28 257.19 C 255.83 258.87 261.43 260.40 267.00 262.00 C 297.20 248.14 327.40 234.26 357.60 220.40 C 359.65 219.19 361.91 220.51 363.94 221.10 C 388.24 229.61 412.58 237.99 436.89 246.44 C 439.24 247.34 441.18 249.22 442.44 251.37 C 443.02 255.47 444.18 259.70 443.58 263.85 C 430.56 306.77 417.48 349.68 404.45 392.59 C 401.56 402.60 397.51 412.23 394.20 422.10 C 392.50 427.27 391.70 432.70 389.89 437.83 C 387.53 439.93 384.67 441.36 382.09 443.17 C 378.32 445.84 373.54 446.45 369.06 446.81 C 363.90 446.18 359.48 443.22 354.83 441.16 C 346.51 437.06 338.01 433.29 329.79 429.00 L 329.50 428.36 C 332.12 418.65 335.37 409.12 337.93 399.39 C 329.60 395.71 321.48 391.61 313.17 387.91 C 311.88 389.79 310.39 391.60 309.66 393.80 C 307.35 401.28 305.75 408.97 303.15 416.36 C 284.75 407.50 266.34 398.66 247.92 389.84 C 247.93 387.24 247.96 384.64 248.01 382.05 C 249.18 381.86 250.34 381.67 251.51 381.49 C 253.32 379.29 256.09 377.46 256.34 374.39 C 256.97 370.72 257.46 367.03 257.94 363.34 C 257.39 362.91 256.30 362.04 255.76 361.61 C 254.78 362.04 253.80 362.49 252.83 362.94 C 247.92 360.61 242.97 358.37 238.09 356.00 C 238.01 355.34 237.86 354.00 237.79 353.33 C 237.03 353.12 235.50 352.68 234.73 352.46 C 232.27 355.03 229.42 357.34 227.56 360.40 C 226.79 364.22 226.69 368.14 226.48 372.02 C 228.77 372.50 231.06 372.96 233.35 373.41 C 232.59 376.10 231.71 378.76 230.80 381.40 C 204.12 368.95 177.60 356.09 151.12 343.22 C 151.44 340.52 151.73 337.82 151.97 335.11 C 154.29 333.70 156.64 332.33 159.00 330.98 C 159.00 327.01 159.00 323.05 159.00 319.09 C 157.93 318.24 156.85 317.39 155.79 316.55 C 154.50 317.17 153.21 317.80 151.92 318.43 C 148.76 316.48 145.63 314.50 142.51 312.48 C 142.34 311.33 142.18 310.19 142.01 309.05 C 141.01 308.53 140.00 308.03 139.00 307.52 C 136.32 310.01 133.64 312.50 130.99 315.03 C 131.17 318.63 131.33 322.23 131.41 325.83 C 132.59 326.06 133.77 326.28 134.96 326.51 C 134.59 329.34 134.20 332.16 133.80 334.99 C 120.29 328.45 106.63 322.21 93.28 315.38 C 94.11 313.33 95.18 311.24 94.92 308.95 C 94.59 302.09 94.39 295.22 93.90 288.37 C 87.61 285.24 81.61 281.55 75.26 278.54 C 73.70 279.89 72.12 281.22 70.53 282.53 C 70.36 286.18 69.24 289.94 70.41 293.53 C 71.57 297.72 72.70 301.91 73.84 306.10 C 66.03 302.36 57.89 299.14 50.59 294.45 C 45.60 291.48 45.99 284.06 50.23 280.56 C 49.30 272.68 48.11 264.82 47.02 256.96 C 46.11 252.41 47.45 247.83 48.52 243.44 C 50.05 241.01 52.57 239.37 54.98 237.91 C 100.67 212.89 146.35 187.86 192.02 162.81 Z" />
<path fill="#f5e5c1" opacity="1.00" d=" M 180.38 178.62 C 182.08 176.19 183.52 173.04 186.89 172.72 C 191.33 171.78 198.72 173.63 198.09 179.41 C 194.25 184.75 185.16 183.29 181.75 178.11 C 181.43 178.23 180.77 178.48 180.45 178.60 L 180.38 178.62 Z" />
<path fill="#f5e5c1" opacity="1.00" d=" M 334.58 183.13 C 332.90 181.75 329.83 179.08 332.65 177.26 C 333.11 179.27 333.36 181.39 334.58 183.13 Z" />
<path fill="#3e3e3e" opacity="1.00" d=" M 103.34 221.82 C 129.03 207.39 154.81 193.11 180.45 178.60 C 180.77 178.48 181.43 178.23 181.75 178.11 C 185.16 183.29 194.25 184.75 198.09 179.41 C 204.14 181.27 209.97 183.76 215.90 185.96 C 215.54 186.20 214.81 186.68 214.45 186.93 C 214.34 188.40 214.27 189.88 214.22 191.37 C 218.51 194.99 226.33 196.59 230.10 191.47 C 235.62 193.21 240.93 195.51 246.39 197.43 C 221.75 215.99 196.78 234.11 172.01 252.50 C 149.46 243.19 126.99 233.70 104.43 224.45 C 104.16 223.79 103.61 222.48 103.34 221.82 Z" />
<path fill="#f5e5c1" opacity="1.00" d=" M 324.61 184.00 C 325.21 183.76 326.40 183.30 327.00 183.07 C 329.41 186.14 331.83 189.22 335.00 191.57 C 334.40 192.30 333.80 193.02 333.21 193.74 C 330.15 190.68 326.25 188.17 324.61 184.00 Z" />
<path fill="#f5e5c1" opacity="1.00" d=" M 215.90 185.96 C 220.06 183.37 225.95 184.30 229.39 187.68 C 230.00 188.84 230.03 190.19 230.10 191.47 C 226.33 196.59 218.51 194.99 214.22 191.37 C 214.27 189.88 214.34 188.40 214.45 186.93 C 214.81 186.68 215.54 186.20 215.90 185.96 Z" />
<path fill="#f5e5c1" opacity="1.00" d=" M 163.13 194.32 C 166.19 192.66 168.63 190.16 171.01 187.66 C 173.89 189.03 176.76 190.41 179.62 191.83 C 179.39 192.51 178.94 193.87 178.72 194.55 C 175.70 196.51 172.39 197.96 169.22 199.66 C 167.36 198.84 165.48 198.05 163.60 197.28 C 163.44 196.29 163.29 195.30 163.13 194.32 Z" />
<path fill="#f5e5c1" opacity="1.00" d=" M 322.01 189.90 C 320.77 189.11 320.73 188.35 321.90 187.61 C 323.10 188.42 323.14 189.18 322.01 189.90 Z" />
<path fill="#f5e5c1" opacity="1.00" d=" M 180.80 191.67 C 183.67 192.70 186.55 193.70 189.44 194.68 C 189.93 195.62 190.42 196.57 190.90 197.51 C 187.63 199.60 184.49 201.91 181.22 204.01 C 178.72 202.82 176.22 201.66 173.74 200.45 C 174.30 197.54 177.22 196.69 179.47 195.45 C 179.91 194.19 180.35 192.92 180.80 191.67 Z" />
<path fill="#f4722b" opacity="1.00" d=" M 278.31 191.64 C 280.88 192.27 283.38 193.12 285.84 194.08 C 278.26 207.08 270.62 220.06 263.14 233.12 C 263.96 229.03 265.80 225.26 267.20 221.35 C 270.88 211.44 274.81 201.62 278.31 191.64 Z" />
<path fill="#f5e5c1" opacity="1.00" d=" M 305.68 200.94 C 309.48 197.63 313.29 194.34 317.10 191.05 C 319.78 194.26 321.78 198.00 324.73 200.99 C 322.91 202.55 321.08 204.12 319.28 205.70 C 313.61 210.52 308.48 215.94 303.50 221.45 C 297.39 227.29 291.53 233.39 285.66 239.47 C 284.68 240.46 283.74 241.49 282.79 242.51 C 281.12 244.06 279.50 245.66 277.94 247.31 C 277.06 248.19 276.21 249.10 275.36 250.01 C 273.23 252.15 271.04 254.23 268.97 256.41 C 265.35 254.10 261.82 251.66 258.26 249.27 C 265.57 241.60 273.01 234.06 280.26 226.32 C 288.74 217.87 296.46 208.61 305.68 200.94 Z" />
<path fill="#f4722b" opacity="1.00" d=" M 288.37 194.82 C 289.28 195.32 290.62 195.38 291.06 196.49 C 287.41 201.77 283.82 207.12 279.91 212.21 C 282.29 206.21 285.64 200.67 288.37 194.82 Z" />
<path fill="#f5e5c1" opacity="1.00" d=" M 323.28 194.81 C 324.14 195.00 325.84 195.39 326.70 195.58 C 328.07 196.96 327.97 198.77 326.20 199.80 C 325.28 198.10 324.31 196.43 323.28 194.81 Z" />
<path fill="#f5e5c1" opacity="1.00" d=" M 62.98 203.03 C 82.59 201.35 102.19 199.64 121.80 198.07 C 104.24 206.76 86.62 215.34 69.03 223.99 C 66.96 217.02 65.04 210.00 62.98 203.03 Z" />
<path fill="#f4722b" opacity="1.00" d=" M 296.35 197.78 C 299.49 198.74 302.59 199.82 305.68 200.94 C 296.46 208.61 288.74 217.87 280.26 226.32 C 285.47 216.73 291.10 207.36 296.35 197.78 Z" />
<path fill="#f5e5c1" opacity="1.00" d=" M 203.11 199.71 C 206.45 201.24 209.84 202.67 213.20 204.17 C 210.75 207.60 207.04 209.79 204.01 212.64 C 200.98 211.26 197.60 210.46 195.03 208.25 C 197.96 205.64 201.60 203.54 203.11 199.71 Z" />
<path fill="#f4722b" opacity="1.00" d=" M 303.50 221.45 C 308.48 215.94 313.61 210.52 319.28 205.70 C 322.25 206.68 325.23 207.65 328.18 208.73 C 323.46 212.08 318.00 214.19 312.98 217.03 C 309.86 218.57 306.93 220.61 303.50 221.45 Z" />
<path fill="#f4722b" opacity="1.00" d=" M 324.94 214.89 C 327.56 213.44 329.87 211.12 332.83 210.45 C 336.86 211.67 340.85 213.06 344.80 214.54 C 344.83 214.77 344.89 215.25 344.92 215.48 C 325.56 225.31 306.09 234.92 286.69 244.66 C 282.92 246.45 279.31 248.63 275.36 250.01 C 276.21 249.10 277.06 248.19 277.94 247.31 C 295.06 237.35 311.92 226.95 328.96 216.86 C 331.17 215.56 333.35 214.20 335.44 212.72 C 317.62 222.15 300.58 233.02 282.79 242.51 C 283.74 241.49 284.68 240.46 285.66 239.47 C 299.04 231.75 311.80 223.01 324.94 214.89 Z" />
<path fill="#3e3e3e" opacity="1.00" d=" M 282.79 242.51 C 300.58 233.02 317.62 222.15 335.44 212.72 C 333.35 214.20 331.17 215.56 328.96 216.86 C 311.92 226.95 295.06 237.35 277.94 247.31 C 279.50 245.66 281.12 244.06 282.79 242.51 Z" />
<path fill="#f5e5c1" opacity="1.00" d=" M 127.43 223.01 C 130.28 220.02 133.35 217.25 136.30 214.36 C 139.40 215.60 142.48 216.89 145.56 218.19 C 143.12 221.32 140.68 224.45 138.23 227.57 C 134.82 225.62 131.00 224.62 127.43 223.01 Z" />
<path fill="#f4722b" opacity="1.00" d=" M 277.85 253.87 C 301.26 241.18 324.48 228.16 347.96 215.60 C 351.08 216.65 354.21 217.67 357.23 219.01 C 335.15 229.18 312.78 238.74 290.58 248.67 C 286.34 250.40 282.32 252.73 277.85 253.87 Z" />
<path fill="#f5e5c1" opacity="1.00" d=" M 141.00 228.26 C 143.50 225.26 146.09 222.35 148.73 219.49 C 151.83 220.78 154.94 222.07 158.06 223.33 C 155.59 226.17 153.13 229.02 150.64 231.84 C 147.43 230.64 144.22 229.44 141.00 228.26 Z" />
<path fill="#f5e5c1" opacity="1.00" d=" M 153.58 232.95 C 155.64 229.97 157.72 227.01 159.85 224.09 C 163.77 225.74 167.71 227.34 171.62 229.01 C 169.24 231.66 166.81 234.26 164.49 236.96 C 160.81 235.73 157.20 234.32 153.58 232.95 Z" />
<path fill="#f4722b" opacity="1.00" d=" M 260.92 236.78 C 260.36 239.59 259.83 243.01 256.87 244.28 C 258.01 241.67 259.41 239.19 260.92 236.78 Z" />
<path fill="#f4722b" opacity="1.00" d=" M 53.66 300.77 C 79.34 312.96 104.95 325.28 130.64 337.43 C 131.50 338.07 133.55 338.35 133.03 339.85 C 132.10 347.06 130.94 354.23 129.93 361.43 C 108.36 350.59 86.88 339.58 65.32 328.72 C 59.87 326.54 55.77 320.94 55.40 315.08 C 54.87 310.30 54.18 305.55 53.66 300.77 Z" />
<path fill="#f5e5c1" opacity="1.00" d=" M 433.99 305.01 C 442.33 310.33 450.66 315.67 458.99 321.00 C 438.95 355.00 419.05 389.09 398.91 423.02 C 398.31 422.78 397.12 422.29 396.53 422.04 C 398.73 420.38 399.00 417.51 399.85 415.09 C 411.21 378.39 422.63 341.71 433.99 305.01 Z" />
<path fill="#3e3e3e" opacity="1.00" d=" M 191.15 308.05 C 194.85 309.13 198.34 310.79 201.90 312.26 C 261.26 336.99 320.61 361.76 379.98 386.49 C 386.33 378.98 392.63 371.43 398.91 363.87 C 399.98 362.48 401.59 361.74 403.06 360.88 C 401.44 363.48 400.28 366.31 399.20 369.17 C 395.15 379.27 391.09 389.37 387.01 399.46 C 321.69 369.05 256.39 338.61 191.15 308.05 Z" />
<path fill="#3e3e3e" opacity="1.00" d=" M 168.55 318.27 C 168.89 318.11 169.58 317.79 169.92 317.62 C 187.72 325.51 205.33 333.89 223.01 342.05 C 222.44 349.86 222.11 357.68 221.43 365.48 C 203.65 357.22 185.96 348.77 168.11 340.66 C 168.10 333.20 168.23 325.72 168.55 318.27 Z" />
<path fill="#f5e5c1" opacity="1.00" d=" M 173.65 321.36 C 177.84 323.30 182.01 325.27 186.19 327.23 C 185.02 332.34 183.74 337.43 182.60 342.55 C 178.34 340.40 173.93 338.53 169.88 336.00 C 171.19 331.13 172.39 326.24 173.65 321.36 Z" />
<path fill="#f5e5c1" opacity="1.00" d=" M 188.15 328.16 C 192.48 330.17 196.81 332.22 201.14 334.25 C 199.96 339.51 198.75 344.75 197.59 350.01 C 193.23 347.81 188.79 345.77 184.51 343.41 C 185.80 338.35 186.94 333.24 188.15 328.16 Z" />
<path fill="#f5e5c1" opacity="1.00" d=" M 199.48 350.96 C 200.98 345.80 202.21 340.57 203.56 335.38 C 208.26 337.60 212.96 339.80 217.67 342.01 C 216.10 347.18 214.52 352.36 213.08 357.57 C 208.46 355.55 204.03 353.14 199.48 350.96 Z" />
<path fill="#f5e5c1" opacity="1.00" d=" M 408.03 412.00 C 421.66 389.99 435.33 368.01 449.00 346.02 C 456.67 357.68 464.34 369.34 472.00 381.01 C 451.65 391.67 431.32 402.37 410.96 413.01 C 409.98 412.67 409.00 412.33 408.03 412.00 Z" />
<path fill="#f4722b" opacity="1.00" d=" M 151.64 348.54 C 177.57 360.39 203.23 372.86 229.00 385.06 C 227.66 390.74 226.26 396.41 225.02 402.12 C 223.66 402.58 222.16 403.20 220.87 402.21 C 200.35 392.03 179.87 381.80 159.32 371.69 C 155.86 370.17 153.97 366.69 151.54 363.99 C 151.58 358.83 151.48 353.68 151.64 348.54 Z" />
<path fill="#f5e5c1" opacity="1.00" d=" M 90.31 386.15 C 98.64 377.06 107.19 368.19 115.76 359.33 C 119.27 361.16 122.84 362.88 126.27 364.87 C 115.51 375.86 104.84 386.94 94.03 397.88 C 91.43 395.52 88.72 393.27 86.03 391.01 C 86.79 389.68 88.11 388.90 89.55 389.75 C 92.21 390.41 94.94 390.93 97.13 392.71 C 94.43 391.01 92.28 388.63 90.31 386.15 Z" />
<path fill="#f4722b" opacity="1.00" d=" M 247.85 393.44 C 286.87 411.87 325.65 430.81 364.75 449.03 C 369.05 450.03 373.61 451.65 377.96 449.97 C 376.32 453.73 375.23 457.72 373.37 461.39 C 370.36 464.43 366.81 466.88 363.60 469.71 C 361.85 471.49 359.20 471.12 356.93 471.34 C 352.73 471.37 348.28 471.45 344.37 469.69 C 312.83 453.57 281.27 437.48 249.70 421.40 C 249.19 421.04 248.17 420.32 247.66 419.96 C 247.40 411.12 247.86 402.28 247.85 393.44 Z" />
<path fill="#f5e5c1" opacity="1.00" d=" M 88.15 403.48 C 85.65 401.24 82.98 399.12 80.96 396.41 C 83.56 398.88 86.80 400.42 90.08 401.77 C 89.49 402.39 88.99 403.16 88.15 403.48 Z" />
<path fill="#f5e5c1" opacity="1.00" d=" M 63.67 398.98 C 65.09 403.07 66.62 407.22 69.36 410.63 C 72.57 415.21 77.45 418.24 82.40 420.63 C 82.37 419.98 82.32 418.68 82.29 418.03 C 84.86 418.64 87.45 419.31 89.76 420.64 C 76.61 426.48 63.38 432.13 50.25 438.01 C 54.01 427.53 57.75 417.04 61.50 406.55 C 62.39 404.08 63.50 401.63 63.67 398.98 Z" />
<path fill="#f5e5c1" opacity="1.00" d=" M 77.49 403.62 C 74.99 404.95 74.77 399.75 77.36 401.51 C 77.39 402.03 77.45 403.09 77.49 403.62 Z" />
<path fill="#f5e5c1" opacity="1.00" d=" M 81.33 402.95 C 82.97 404.06 84.42 405.41 85.76 406.86 C 84.82 407.27 83.88 407.67 82.94 408.08 C 82.38 406.38 81.81 404.67 81.33 402.95 Z" />
<path fill="#f5e5c1" opacity="1.00" d=" M 71.42 407.24 C 72.34 406.28 73.26 405.32 74.18 404.36 C 76.52 406.75 79.43 409.06 79.93 412.60 C 79.42 412.98 78.41 413.74 77.91 414.12 C 75.36 412.21 73.29 409.79 71.42 407.24 Z" />
</svg>
