<?xml version="1.0" encoding="UTF-8" standalone="no"?>
<svg
   xmlns:dc="http://purl.org/dc/elements/1.1/"
   xmlns:cc="http://creativecommons.org/ns#"
   xmlns:rdf="http://www.w3.org/1999/02/22-rdf-syntax-ns#"
   xmlns:svg="http://www.w3.org/2000/svg"
   xmlns="http://www.w3.org/2000/svg"
   xmlns:sodipodi="http://sodipodi.sourceforge.net/DTD/sodipodi-0.dtd"
   xmlns:inkscape="http://www.inkscape.org/namespaces/inkscape"
   width="1280"
   height="1280"
   viewBox="0 0 1024 1024"
   version="1.1"
   id="svg2"
   inkscape:version="0.48.1 "
   sodipodi:docname="bow_pincushion.svg">
  <metadata
     id="metadata164">
    <rdf:RDF>
      <cc:Work
         rdf:about="">
        <dc:format>image/svg+xml</dc:format>
        <dc:type
           rdf:resource="http://purl.org/dc/dcmitype/StillImage" />
      </cc:Work>
    </rdf:RDF>
  </metadata>
  <defs
     id="defs162" />
  <sodipodi:namedview
     pagecolor="#ffffff"
     bordercolor="#666666"
     borderopacity="1"
     objecttolerance="10"
     gridtolerance="10"
     guidetolerance="10"
     inkscape:pageopacity="0"
     inkscape:pageshadow="2"
     inkscape:window-width="1920"
     inkscape:window-height="1018"
     id="namedview160"
     showgrid="false"
     fit-margin-top="0"
     fit-margin-left="0"
     fit-margin-right="0"
     fit-margin-bottom="0"
     inkscape:zoom="0.6609375"
     inkscape:cx="640"
     inkscape:cy="640"
     inkscape:window-x="-8"
     inkscape:window-y="-8"
     inkscape:window-maximized="1"
     inkscape:current-layer="svg2" />
  <path
     d="M 0,0 0.12,0 C 0.1,0.04 0.04,0.1 0,0.12 L 0,0 z"
     id="path4"
     inkscape:connector-curvature="0"
     style="fill:#b0521f" />
  <path
     d="M 0.12,0 1024,0 1024,1024 0,1024 0,0.12 C 0.04,0.1 0.1,0.04 0.12,0 z"
     id="path6"
     style="fill:#3e3e3e"
     inkscape:connector-curvature="0" />
  <path
     d="m 347.66,18.92 c 8.92,0.14 17.7,1.78 26.58,2.34 8.32,20.94 20.22,40.18 29.9,60.48 2.8,6.88 9.44,13.64 6.38,21.52 -7.98,25.52 -13.8,51.72 -22.86,76.86 -15.08,-41.94 -29.42,-84.18 -43.84,-126.36 -0.76,-11.66 3.78,-23.1 3.84,-34.84 z"
     id="path8"
     inkscape:connector-curvature="0"
     style="fill:#f5e5c1" />
  <path
     d="m 277.08,28.26 c 13.76,9.26 26.92,19.42 41.24,27.82 0.24,0.58 0.72,1.74 0.96,2.32 -12.6,-3.94 -25.36,-7.44 -37.84,-11.76 -1.5,-6.12 -3,-12.24 -4.36,-18.38 z"
     id="path10"
     inkscape:connector-curvature="0"
     style="fill:#f5e5c1" />
  <path
     d="m 247.12,40.92 c 13.12,5.84 27.04,9.5 40.42,14.68 10.16,3.84 20.56,7.08 30.98,10.06 14.1,40.72 29.88,80.88 44.72,121.36 -15.76,-0.32 -30,-7.52 -45.16,-10.72 -14.2,-25.26 -27.2,-51.2 -40.42,-77 4.62,0.18 9.28,0.58 13.88,-0.16 C 286.5,96.32 280.3,97.04 274.96,95 266.02,76.78 256.16,59.06 247.12,40.92 z"
     id="path12"
     inkscape:connector-curvature="0"
     style="fill:#f5e5c1" />
  <path
     d="m 537.52,51.9 c 15.42,14.88 31.54,29.04 46.7,44.22 2.52,2.72 5.94,4.24 9.22,5.82 -2.58,43.46 -5.36,86.9 -8.3,130.34 -7.8,-3.34 -14.82,-8.24 -20.88,-14.16 -6.84,-6.74 -14.96,-12.12 -21.5,-19.14 -2.36,-6.02 -1.42,-12.74 -2.42,-19.04 0,-5.9 -5.96,-8.94 -9.34,-12.98 -4.46,-5.06 -10.78,-9.04 -13.72,-15.12 2.58,-13.22 6.22,-26.24 8.58,-39.52 10.14,2.72 19.88,6.74 29.52,10.9 -8.18,-6.88 -17.42,-12.24 -26.84,-17.18 2.7,-18.1 6.66,-35.98 8.98,-54.14 z"
     id="path14"
     inkscape:connector-curvature="0"
     style="fill:#f5e5c1" />
  <path
     d="m 567.3,70.8 c 1.56,-6.06 2.84,-12.18 4.2,-18.28 8.36,15.56 17.78,30.54 27.5,45.28 -11.52,-7.76 -21.56,-17.56 -31.7,-27 z"
     id="path16"
     inkscape:connector-curvature="0"
     style="fill:#f5e5c1" />
  <path
     d="m 318.6,63.44 c 5.32,-0.96 10.56,-2.36 15.64,-4.24 30.6,77.74 60.74,155.66 91.32,233.4 13.1,34.76 27.56,69 40.1,103.96 -8.7,0.24 -17.4,0.56 -26.1,0.84 -20.6,-52.64 -41.2,-105.24 -61.66,-157.92 -5.74,-15.62 -12.98,-30.7 -17.6,-46.72 5.06,1.74 10.36,2.58 15.68,3.04 -16.5,-38.7 -33.42,-77.22 -50.36,-115.72 -2.32,-5.56 -4.68,-11.1 -7.02,-16.64 z"
     id="path18"
     inkscape:connector-curvature="0"
     style="fill:#f5e5c1" />
  <path
     d="m 639.94,72.9 c 7.4,4.64 15.22,8.58 22.82,12.92 -0.34,14.02 0,28.08 1.54,42.04 0.24,4.28 1.22,9.14 -1.56,12.86 -7.42,11.2 -15.2,22.16 -22.7,33.3 8.94,-3.16 17.8,-6.62 26.92,-9.32 -0.92,3.5 -1.14,7.5 -3.82,10.22 -14.06,16.64 -28.06,33.34 -42,50.08 -3.36,4.1 -7.04,7.96 -11.26,11.24 4.06,-39.96 6.9,-80.04 10.64,-120.02 0.74,-6.04 -0.22,-12.72 3.34,-18.02 5.2,-8.54 10.98,-16.7 16.08,-25.3 z"
     id="path20"
     inkscape:connector-curvature="0"
     style="fill:#f5e5c1" />
  <path
     d="m 594.66,102.24 c 5.46,0.64 10.86,1.56 16.22,2.8 -3.56,71.58 -6.48,143.2 -10.22,214.76 -8.36,7.66 -18.24,13.76 -26.1,22.08 1.96,-35.04 3.5,-70.1 4.98,-105.16 4.4,3.46 8.98,6.68 13.7,9.66 0.78,-29.38 -0.2,-58.78 1.16,-88.14 -0.04,-18.68 0.46,-37.34 0.26,-56 z"
     id="path22"
     inkscape:connector-curvature="0"
     style="fill:#f5e5c1" />
  <path
     d="m 172.46,165.96 c 11.08,14.46 21.6,29.36 32.7,43.82 -6.04,8.74 -11.98,17.62 -16.42,27.3 6.84,-7.82 13.78,-15.56 21.16,-22.88 2.96,3.7 5.88,7.44 8.64,11.3 -5.04,14.76 -9.72,29.62 -14.5,44.46 9.36,-9.54 18.46,-19.34 27.82,-28.88 5.54,7.48 11.98,14.58 15.74,23.18 -0.06,5.66 -3.38,10.56 -5.34,15.7 -5,12.2 -9.84,24.44 -15.1,36.52 -4.84,10.9 -7.72,23.26 -16.68,31.74 -14.72,-26.64 -30.66,-52.6 -45.74,-79.04 -6.6,-11.1 -12.76,-22.46 -19.84,-33.26 2.18,-2.94 4.46,-5.9 5.64,-9.42 7.18,-20.22 14.82,-40.28 21.92,-60.54 z"
     id="path24"
     inkscape:connector-curvature="0"
     style="fill:#f5e5c1" />
  <path
     d="m 143.26,181.4 c 3.68,5.18 7.56,10.24 11.38,15.34 -5.08,12.52 -9.88,25.18 -15.8,37.32 1.46,-17.56 2.94,-35.12 4.42,-52.66 z"
     id="path26"
     inkscape:connector-curvature="0"
     style="fill:#f5e5c1" />
  <path
     d="m 76.56,251.96 c 3.88,-7.56 9.7,-13.94 13.64,-21.48 8.82,4.76 17.38,9.94 25.96,15.1 5.68,3.18 7.84,9.74 11.34,14.86 21.22,34.26 41.8,68.92 63.42,102.94 -24.22,-8 -46.98,-19.9 -70.62,-29.44 -4.06,-1.84 -9.36,-2.96 -10.92,-7.76 C 98.04,301.62 88.2,276.34 76.56,251.96 z"
     id="path28"
     inkscape:connector-curvature="0"
     style="fill:#f5e5c1" />
  <path
     d="m 130.92,245.84 c 4.26,-3.06 8.34,-6.34 12.32,-9.74 4.64,5.98 7.38,13.1 10.92,19.74 18.78,36.3 37.14,72.82 55.84,109.18 2.7,-5 5.4,-10 8,-15.06 35.68,64.1 71.86,127.92 107.34,192.1 -5.98,6.26 -12.1,12.42 -17.68,19.04 C 248.48,456.18 189.92,350.88 130.92,245.84 z"
     id="path30"
     inkscape:connector-curvature="0"
     style="fill:#f5e5c1" />
  <path
     style="fill:#f4722b"
     d="m 726.2,292.35 c -22.20878,0.33222 -44.3375,4.2125 -65.1,12.2 -17.18,7.4 -33.46,16.84 -48.4,28.1 -21.22,12.84 -37.88,31.65 -53.2,50.85 -8.96,10.78 -18.23,21.71 -23.35,34.95 -1.66,3.26 -2.67,7.76 -6.45,9.2 -9.38,2.2 -20.12,1.79 -28.1,7.85 -7.18,11.48 -13.07,23.99 -16.45,37.15 -1.9,3.44 -3.27,7.42 -2.95,11.4 -2.7,9.6 -1.96,19.7 -0.2,29.4 1.24,5.42 2.58,10.85 2.9,16.45 l -1.65,3 c -0.04,0.06 -0.13016,0.22 -0.15,0.3 -9.02,16.64 -19.04,32.71 -28.6,49.05 -6.64,10.7 -10.99,22.91 -20.05,31.95 -4.76,10.96 -10.82,21.3 -16.7,31.7 -8.66,8.8 -14.71,19.78 -23.55,28.4 50.96,60.16 102.58,119.76 153.8,179.7 -5.2,48 -10.39,96 -15.65,144 83.14,0.02 166.31,-0.02 249.45,0 5.52,-19.32 10.68,-38.78 15.5,-58.3 4.9,-14.18 6.47,-29.2 10.95,-43.5 2.92,-10.9 7.57,-21.24 9.95,-32.3 3.79992,-18.3 11.96,-35.42 15.4,-53.8 -2.5,-9.84 -7.09,-19.02 -10.65,-28.5 -0.36,-0.82 -1.07,-2.46 -1.45,-3.3 -15.94,5.06 -31.76,10.48 -47.7,15.6 -7.3,2.14 -14.54,6.5 -22.4,4.5 30.54,-10.56 60.6,-22.52 90.6,-34.5 1.26,-36.82 3.22,-73.64 2.9,-110.5 1.26,-0.58 3.79,-1.72 5.05,-2.3 -0.28,-22.24 3.07,-44.28 7.75,-66 5.66,-19.38 13.9,-37.93 20.4,-57.05 2.54,-7.02 0.68,-14.52 -0.5,-21.6 -0.14,-0.86 -0.28,-1.6925 -0.4,-2.55 -0.0739,-0.52827 -0.13984,-1.07115 -0.2,-1.6 -0.0128,-0.11568 -0.038,-0.23424 -0.05,-0.35 -0.0229,-0.21379 -0.0302,-0.43594 -0.05,-0.65 -0.0242,-0.35134 -0.0287,-0.69906 -0.05,-1.05 -10e-4,-0.0333 9.9e-4,-0.0667 0,-0.1 -0.42802,-14.3487 7.23811,-27.76101 7.5,-42.2 0.14416,-2.20554 0.22312,-4.43982 0.25,-6.65 0.006,-0.1328 -0.006,-0.26715 0,-0.4 3e-4,-0.0333 -2.7e-4,-0.0667 0,-0.1 0.38933,-8.74334 0.42038,-17.54686 -1.45,-26.05 -4.02,-3.84 -5.75,-9.09 -7.35,-14.25 -2.34,-7.64 -7.92,-13.6 -11.7,-20.5 -7.98024,-15.86 -12.98,-33.43 -24.1,-47.55 -8.84,-11.74 -18.26,-23.37 -30,-32.35 -12.64,-9.76 -29.13,-10.73 -44.05,-14.65 -13.09501,-2.20501 -26.42472,-3.29933 -39.75,-3.1 z m -213.55,196.8 c 0.008,-0.01 0.0414,0.01 0.05,0 -0.22822,0.24328 -0.45875,0.52501 -0.65,0.8 0.19125,-0.27499 0.37178,-0.55672 0.6,-0.8 z"
     id="path32"
     inkscape:connector-curvature="0" />
  <path
     style="fill:#4c230d;fill-opacity:1"
     d="m 808.4,362.1 c -14.8,10.26 -33.11,11.63 -49.85,16.95 -16.04,3.08 -31.73,8.89 -45.25,18.15 -10.18,8.52 -20.52,17.13 -28.6,27.75 -2.02,2.44 -2.03,5.74 -2.65,8.7 7.22,-1.02 14.41,-2.22 21.65,-3.1 5.54,-0.6 11.14,-0.6 16.7,-0.2 1.72,0.5 3.5,1.11 5.2,1.75 7.12,3.8 15.19,3.08 22.95,2.8 5.18,4.54 11.73,7.3 18.45,4.4 13.78,-1.8 17.87,-16.94 28.05,-24.1 5.84,-2.94 12.43,-3.81 18.55,-6.05 7.04,-7.2 20.58,-5.23 24.6,4.15 2.48,14.5 -0.8,30.6 8,43.5 0.56,1.32 1.69,3.98 2.25,5.3 0.82,4.56 1.7,9.14 3,13.6 2.6,3.36 5.39,6.54 8.25,9.7 l 1.55,-2.25 c 0.48,2.94 1.03,5.88 1.65,8.8 4.32,-0.42 8.65,-0.89 12.95,-1.45 l 0.45,0.4 c 0.25173,3.11069 0.35998,6.22478 0.55,9.35 -0.46675,-14.38637 7.2375,-27.8275 7.5,-42.3 0.62,-9.48 0.19,-19.03 -1.65,-28.35 -8.08,-11.08 -14.89,-23.04 -21.75,-34.9 -3.96,-5.34 -7.41,-11.12 -8.45,-17.8 -1.08,-0.06 -3.22,-0.14 -4.3,-0.2 -1.56,7.24 -2,14.67 -1.6,22.05 -7.78,-2.54 -16.18,-3.64 -23.2,-8.1 -4.38,-2.9 -9.52,-3.94 -14.6,-4.7 1.54,-4.66 3.46,-9.22 4.1,-14.1 -0.36,-3.64 -2.96,-6.57 -4.5,-9.75 z M 877,502.3 c 0.047,0.53486 0.128,1.06218 0.2,1.6 -0.0709,-0.52674 -0.14176,-1.0721 -0.2,-1.6 z"
     id="path34"
     inkscape:connector-curvature="0" />
  <path
     d="m 443.08,404.78 c 3.72,0.26 7.44,0.54 11.16,0.84 -3.64,1.02 -7.28,2.06 -10.88,3.2 -0.08,-1 -0.22,-3.02 -0.28,-4.04 z"
     id="path36"
     inkscape:connector-curvature="0"
     style="fill:#f5e5c1" />
  <path
     d="m 720.42,430.36 c -0.16,-13.6 13.52,-21.8 25.48,-23.56 9.34,-1.76 16.02,6.02 22.84,10.94 2.62,7.26 1.32,14.66 -1.72,21.56 -6.72,2.9 -13.28,0.16 -18.46,-4.38 0.7,-6.58 -2.76,-12.1 -7.38,-16.42 -7.82,0.5 -13.82,6.02 -15.6,13.58 -1.7,-0.64 -3.44,-1.22 -5.16,-1.72 z"
     id="path40"
     inkscape:connector-curvature="0"
     style="fill:#f5e5c1" />
  <path
     d="m 448.64,417.94 c 8.48,-0.68 15.8,-5.3 23.34,-8.8 0.3,1.74 0.62,3.48 0.94,5.22 -7.48,4.04 -14.98,8.26 -23.34,10.22 -0.32,-2.22 -0.64,-4.42 -0.94,-6.64 z"
     id="path42"
     inkscape:connector-curvature="0"
     style="fill:#f5e5c1" />
  <path
     style="fill:#b0521f;fill-opacity:1"
     d="m 813.6,409.15 c -6.12,2.24 -12.71,3.11 -18.55,6.05 -10.18,7.16 -14.27,22.3 -28.05,24.1 -6.72,2.9 -13.27,0.14 -18.45,-4.4 -7.76,0.28 -15.83,1 -22.95,-2.8 -1.7,-0.64 -3.48,-1.25 -5.2,-1.75 -5.56,-0.4 -11.16,-0.4 -16.7,0.2 -1.04,1.98 -2.06,3.92 -3.1,5.9 8.5,2.3 16.8,5.61 23.6,11.35 -6.54,8.46 -14.22,15.89 -22.4,22.75 -5.72,-1.02 -12.07,-3.64 -17.55,-0.4 -9.04,4.74 -17.88,10.26 -28.1,12.1 -18.3,3.62 -37.04,9.28 -55.8,6.1 -7.16,-1.18 -7.41,-9.19 -7.45,-14.95 0.2,-16.04 7.67,-30.63 13.35,-45.25 -14.78,-0.96 -29.36,3.52 -42.6,9.6 -8.86,11.04 -14.64,24.24 -21.4,36.6 -8,14.2 -9.34,30.88 -16.1,45.6 -4.12,11.26 -12.12,21.52 -11.9,34 -0.3,14.16 -3,28.1 -4,42.2 -1.58,15.92 -1.84,31.93 -3.5,47.85 -1.08,10.64 -2.29,21.36 -2.35,32.1 -0.94,9.08 7.29,14.82 12.05,21.4 14.6,19.38 30.82,37.57 44.2,57.85 10.14,15.56 26.41,25.63 37.55,40.35 34.02,52.32 67.48,105.06 98.8,159.1 18.18,-9.36 32.03,-25.08 47.35,-38.3 11.94,-10.2 24.03,-20.2 36.65,-29.5 4.66,-3.42 8.8,-7.75 10.6,-13.35 6.88,-19.18 12.96,-38.65 17.4,-58.55 2.14,-9.84 2.8,-19.98 5.9,-29.6 -2.39,0.95501 -4.82374,1.70531 -7.3,2.35 2.47531,-0.64469 4.91,-1.39499 7.3,-2.35 2.7,-1.22 5.37,-2.58 8.05,-3.9 -0.36,-0.82 -1.07,-2.46 -1.45,-3.3 -15.94,5.06 -31.76,10.48 -47.7,15.6 -7.3,2.14 -14.54,6.5 -22.4,4.5 30.54,-10.56 60.6,-22.52 90.6,-34.5 1.26,-36.82 3.22,-73.64 2.9,-110.5 1.26,-0.58 3.79,-1.72 5.05,-2.3 -0.28,-22.24 3.07,-44.28 7.75,-66 5.66,-19.38 13.9,-37.93 20.4,-57.05 2.54,-7.02 0.68,-14.52 -0.5,-21.6 -0.28,-1.72 -0.54,-3.43 -0.7,-5.15 -7.24,-3 -14.02,-6.86 -20.5,-11.2 1.08,-1.58 2.18,-3.14 3.3,-4.7 -2.86,-3.16 -5.65,-6.34 -8.25,-9.7 5.04,21.34 5.22,43.43 9.9,64.85 3.24,13.92 -4.09,27.15 -5.85,40.75 -9.02,-1.06 -14.18,-9.18 -19.3,-15.7 -3.12,-3.58 -1.18,-8.52 -0.5,-12.6 3.26,-4.12 7.12,-7.71 11,-11.25 5.82,-4.6 9.96,-11.17 9.2,-18.85 -7.4,-0.26 -15.1,0.21 -22,-2.85 -6.58,-2.84 -13.41,-5.18 -20.55,-6 -6.8,-11.14 -11.61,-23.82 -21.55,-32.7 -1.98,6.58 -3.22,13.56 -6.7,19.6 -3.76,5.04 -10.91,6.47 -14.05,12.15 -2.36,4.12 -4.55,8.77 -4.05,13.65 5.76,5.78 12.82,9.95 19,15.25 -15.7,2.34 -31.73,2.99 -47.15,6.95 -15.42,5.3 -30.61,11.43 -45.15,18.85 -15.1,9.2 -31.2,16.76 -47.8,22.8 -3.16,-1.58 -5.13,-4.72 -7.35,-7.3 -7.08,-9.62 -16.1,-18.13 -20.1,-29.65 14.36,4.52 30.32,9.5 45.1,4.1 17.14,-12.96 27.07,-32.95 42.95,-47.25 4.92,-4.42 9.29,-9.42 13.95,-14.1 6.28,-6.5 16.15,-7.15 22.85,-13.05 10.48,-8.94 16.9,-21.68 27.9,-30.1 2.38,-1.52 4.97,-4.95 7.95,-2.55 2.52,5.12 0.2,10.91 -0.3,16.25 11.14,0.4 22.05,2.96 31.95,8.2 -4.08,-4.62 -9.12,-8.17 -14.1,-11.75 4.66,-4.68 9.4,-9.34 12.6,-15.2 -4.34,-7.86 -8.17,-16.73 -7.15,-25.85 2.54,-5.34 7.25,-9.2 11.45,-13.2 z m -13.5,380.4 c -2.5075,0.53374 -5.01626,1.07781 -7.5,1.7 2.48282,-0.62219 4.99374,-1.16626 7.5,-1.7 z m -14.85,3.95 c -3.45,1.27501 -6.94374,2.40781 -10.45,3.5 3.50718,-1.09312 7,-2.22499 10.45,-3.5 z m -37.1,5.65 c -2.16648,0.51734 -4.31914,1.1039 -6.45,1.75 2.12734,-0.65078 4.28515,-1.23046 6.45,-1.75 z m -4.75,8.1 c -1.34499,0.59 -2.70406,0.94094 -4.1,1.15 1.39688,-0.20813 2.75501,-0.56 4.1,-1.15 z m -10.5,1.25 c 1.42547,0.12797 2.83702,0.16453 4.25,0.1 -1.39568,0.062 -2.84226,0.0253 -4.25,-0.1 z"
     id="path44"
     inkscape:connector-curvature="0" />
  <path
     d="m 467.78,433.12 c 2.74,-3.52 6.24,-6.56 10.96,-6.58 0.08,1.92 0.16,3.84 0.26,5.78 -3.74,0.3 -7.48,0.58 -11.22,0.8 z"
     id="path48"
     inkscape:connector-curvature="0"
     style="fill:#f5e5c1" />
  <path
     d="m 453.16,431.12 c 1,-0.06 3,-0.18 4,-0.24 0.02,1 0.04,2.98 0.06,3.96 -1.02,0.08 -3.04,0.22 -4.06,0.28 0,-1 0,-3 0,-4 z"
     id="path50"
     inkscape:connector-curvature="0"
     style="fill:#f5e5c1" />
  <path
     d="m 457.16,443.36 c 7.94,-3.64 16.7,-4.72 24.68,-8.24 -5.6,11.62 -10.02,23.74 -13.74,36.08 -3.3,-9.42 -6.92,-18.72 -10.94,-27.84 z"
     id="path52"
     inkscape:connector-curvature="0"
     style="fill:#f5e5c1" />
  <path
     d="m 496.82,452.8 c 6.76,-6.62 15.6,-10.54 24.08,-14.5 2.34,7.22 4.92,14.38 7.18,21.64 2.42,6.56 -0.18,13.6 -2.74,19.7 -2.1,5.88 -10.24,5.9 -13.3,10.3 1.5,8.9 1.08,18.26 -4.24,25.94 -7.66,-1.34 -16.46,-0.82 -22.32,-6.84 1.38,-1.78 2.74,-3.54 4.12,-5.3 -1.58,-1.06 -3.14,-2.1 -4.7,-3.14 -0.8,-5.54 -1.76,-11.06 -2.68,-16.56 -0.32,-3.98 1.04,-7.94 2.94,-11.38 4.26,-6.4 7.22,-13.6 11.66,-19.86 z"
     id="path54"
     inkscape:connector-curvature="0"
     style="fill:#b0521f" />
  <path
     d="m 488.66,481.74 c 2.4,-15.1 14.12,-26.4 27.52,-32.52 0.64,3.44 1.3,6.92 2,10.38 -4.48,7.7 -12.48,12.54 -16.52,20.56 -4.32,0.6 -8.66,1.12 -13,1.58 z"
     id="path56"
     inkscape:connector-curvature="0"
     style="fill:#dd6727" />
  <path
     d="m 846.22,456.8 c 8.94,-0.22 21.22,-1.72 26.28,7.64 2.14,7.24 -0.42,14.74 -1.82,21.9 1.28,1.04 3.86,3.1 5.16,4.14 -4.3,0.56 -8.6,1.04 -12.92,1.46 -0.62,-2.92 -1.18,-5.84 -1.66,-8.78 2.52,-4.02 5.18,-8.56 3.66,-13.5 -3.64,-5.46 -10.24,-7.46 -16.48,-7.56 -0.56,-1.32 -1.66,-3.98 -2.22,-5.3 z"
     id="path58"
     inkscape:connector-curvature="0"
     style="fill:#f5e5c1" />
  <path
     d="m 495.86,481.64 c 3.68,2.24 7.78,4.3 9.84,8.32 -3.8,0.28 -7.56,0.5 -11.34,0.7 -0.28,6.52 1.3,12.82 3.96,18.74 -6.2,0.08 -7.44,-6.88 -8.92,-11.54 -1.72,-6.24 3.74,-11.18 6.46,-16.22 z"
     id="path62"
     inkscape:connector-curvature="0"
     style="fill:#dd6727" />
  <path
     d="m 482,513.44 c 2.16,1.06 4.36,2.16 6.54,3.26 2.52,9.52 10.6,15.46 16.62,22.68 -3.98,0.12 -7.94,0.2 -11.92,0.28 -1.02,-3.6 -2.04,-7.2 -3.04,-10.8 -1.32,0.26 -3.96,0.78 -5.28,1.06 -0.32,-5.6 -1.68,-11.06 -2.92,-16.48 z"
     id="path66"
     inkscape:connector-curvature="0"
     style="fill:#b0521f" />
  <path
     d="m 790.88,526.74 c 9.98,-2.42 21.4,-2.02 29.94,4.32 6.56,4.78 13.9,9.08 22.4,8.06 0.86,0.66 2.6,1.98 3.46,2.64 -3.88,3.54 -7.72,7.12 -10.98,11.24 -4.94,0.4 -10.22,1.12 -14.68,-1.58 -11.36,-5.82 -21.92,-14.28 -35.08,-15.42 0.34,-3.52 0.72,-8.3 4.94,-9.26 z"
     id="path68"
     inkscape:connector-curvature="0"
     style="fill:#7f3b16" />
  <path
     d="m 483.1,533.18 c 0.02,-0.08 0.1,-0.22 0.14,-0.28 -0.04,0.06 -0.12,0.2 -0.14,0.28 z"
     id="path70"
     inkscape:connector-curvature="0"
     style="fill:#b0521f" />
  <path
     d="m 322.72,556.06 c 1.56,-2.56 4.02,-6.52 7.58,-5.48 1.96,3.1 -5.7,7.82 -7.58,5.48 z"
     id="path72"
     inkscape:connector-curvature="0"
     style="fill:#f5e5c1" />
  <path
     d="m 314.1,573.62 c 7.78,-3.22 15.34,-6.94 22.2,-11.84 0.8,1.18 2.4,3.58 3.2,4.76 -6.88,4.76 -14.58,9.7 -23.02,10.52 -0.6,-0.86 -1.78,-2.58 -2.38,-3.44 z"
     id="path74"
     inkscape:connector-curvature="0"
     style="fill:#f5e5c1" />
  <path
     d="m 340.64,576.08 c 1.58,-2.38 3.1,-2.36 4.54,0.02 -1.58,2.36 -3.1,2.36 -4.54,-0.02 z"
     id="path76"
     inkscape:connector-curvature="0"
     style="fill:#f5e5c1" />
  <path
     d="m 774,581.14 c 6.7,-0.4 13.48,0.12 20.14,-1.12 6.94,-1.44 13.68,1.38 20.42,2.62 4.18,1.04 9.52,1.06 11.04,6.08 -6.68,-0.7 -13.1,-2.7 -19.7,-3.76 -8.46,-0.92 -16.98,-0.34 -25.48,-0.44 0.68,2.04 1.38,4.08 2.1,6.14 -3.76,-0.4 -7.56,-1.5 -11.34,-0.76 -9.02,2.26 -18.56,1.56 -27.26,5.28 -0.7,-1.2 -2.08,-3.58 -2.78,-4.78 11.24,-1.96 21.52,-7.64 32.86,-9.26 z"
     id="path78"
     inkscape:connector-curvature="0"
     style="fill:#c95e23" />
  <path
     d="m 828.88,589.6 c 2.88,-2.16 5.78,-4.32 8.68,-6.46 4.9,5.04 11.56,9 13.64,16.12 -7.08,-4.14 -13.64,-9.7 -22.32,-9.66 z"
     id="path80"
     inkscape:connector-curvature="0"
     style="fill:#c95e23" />
  <path
     d="m 323.18,589.28 c 3.7,-2.58 8.2,-2.86 12.56,-3.18 -3.26,2.66 -6.54,5.26 -9.84,7.86 -0.68,-1.18 -2.04,-3.5 -2.72,-4.68 z"
     id="path82"
     inkscape:connector-curvature="0"
     style="fill:#f5e5c1" />
  <path
     d="m 328,597.76 c 7.24,-3.98 13.76,-9.06 20.54,-13.7 6.26,9.2 11.02,19.3 16.68,28.84 -8.96,0.76 -18.3,3.74 -22.56,12.42 -3.92,-9.66 -9.74,-18.38 -14.66,-27.56 z"
     id="path84"
     inkscape:connector-curvature="0"
     style="fill:#f5e5c1" />
  <path
     d="m 789.06,588.28 c 2.28,-1.86 3.6,-1.38 3.94,1.48 -2.32,1.86 -3.62,1.36 -3.94,-1.48 z"
     id="path86"
     inkscape:connector-curvature="0"
     style="fill:#c95e23" />
  <path
     d="m 748.02,602.04 c 19.88,-3.7 40.26,-3.9 60.34,-2.02 0.52,1.12 1.54,3.34 2.04,4.44 0.12,-1 0.32,-3.02 0.44,-4.04 8.32,0.14 16.76,1.06 24.24,5.08 -0.44,5.86 -0.78,11.8 -2.38,17.5 -0.6,1.82 -1.22,3.66 -1.88,5.48 -6.06,-2 -12.3,-3.44 -18.66,-3.84 l -0.76,-1.1 c -0.34,-0.46 -0.98,-1.36 -1.3,-1.82 -8.98,-3.4 -18.5,-5.06 -27.74,-7.62 -13.84,-3.5 -29.44,-0.76 -41.84,-8.94 2.42,-1.2 4.8,-2.6 7.5,-3.12 z"
     id="path88"
     inkscape:connector-curvature="0"
     style="fill:#f5e5c1" />
  <path
     d="m 729.16,607.22 c 3.6,-1.04 7.6,-4.22 11.36,-2.06 12.4,8.18 28,5.44 41.84,8.94 9.24,2.56 18.76,4.22 27.74,7.62 0.32,0.46 0.96,1.36 1.3,1.82 -11.94,-0.8 -23.84,-2.02 -35.78,-2.44 -10.64,-0.3 -20.92,-3.82 -31.6,-3.34 -14.6,-0.42 -28.78,4.5 -43.4,3.14 7.46,-8.16 19.02,-9.12 28.54,-13.68 z"
     id="path90"
     inkscape:connector-curvature="0"
     style="fill:#3e3e3e" />
  <path
     d="m 835.08,605.5 0.08,-1.2 c 4.88,5.2 6.16,12.26 3.8,18.94 -1.56,-0.06 -4.7,-0.18 -6.26,-0.24 1.6,-5.7 1.94,-11.64 2.38,-17.5 z"
     id="path92"
     inkscape:connector-curvature="0"
     style="fill:#3e3e3e" />
  <path
     id="path96"
     style="fill:#4c230d;fill-opacity:1"
     d="m 523.9,997.75008 c 1.92,-7.82 1.84,-15.9 2.1,-23.9 2.88,-36.62 4.57,-73.3 7.65,-109.9 1.7,-8.26 -6.79,-12.77 -11.25,-18.25 -30.72,-33.94 -61.52,-67.86 -92,-102 -15.18,-19.32 -31.6,-37.66 -47.7,-56.2 0.7,-4.86 0.23,-9.72 0.14992,-14.6 9.68,-17.76 22.76,-33.67 31.5,-51.95 0.48,-0.12 1.47,-0.35 1.95,-0.45 0.58,-1.1 1.72,-3.35 2.3,-4.45 l 8e-5,-8e-5 c -15.68,3.98 -31.19,8.57 -47.05,11.85 -3.3,1 -6.65,1.94 -9.95,2.9 -1.06,0.08 -3.19,0.25 -4.25,0.35 -2.28,10.02 -2.44,21.99 -11.1,29.05 -5.86,6.44 -15.13,3.77 -22.75,4.35 -11.64,-5.7 -23.31,-11.64 -35.65,-15.7 -6.08,0.2 -11.88,2.25 -17.8,3.45 -46.14,10.68 -91.99,22.63 -138.15,33.25 -36.54,8.84 -72.9,18.54 -109.6,26.7 -0.08,3.24 -0.1,6.49 -0.1,9.75 0.08,1.2 0.22,3.57 0.3,4.75 -0.3,0.56 -0.9,1.69 -1.2,2.25 0.24,1.28 0.73,3.82 0.95,5.1 L 22.2,997.7 z"
     inkscape:connector-curvature="0"
     sodipodi:nodetypes="cccccccccccccccccccccccccc" />
  <path
     d="m 418.6,616.05 c -15.68,3.98 -31.19,8.57 -47.05,11.85 -3.3,1 -6.65,1.94 -9.95,2.9 -1.58,4.84 -3.12,9.68 -4.7,14.5 8.12,-0.18 16.31,-0.06 24.25,1.9 1.08,-3.96 2.19,-7.9 3.05,-11.9 0.26,-2.3 0.5,-4.62 0.7,-6.9 9.5,-3.7 19.63,-4.91 29.45,-7.45 0.48,-0.12 1.47,-0.35 1.95,-0.45 0.58,-1.1 1.72,-3.35 2.3,-4.45 z"
     id="path94"
     style="fill:#f4722b"
     inkscape:connector-curvature="0" />
  <path
     d="m 361.62,630.8 c 3.3,-0.96 6.62,-1.92 9.92,-2.92 4.58,1.78 8.86,4.24 12.64,7.4 -0.86,4 -1.94,7.96 -3.02,11.92 -7.94,-1.96 -16.16,-2.1 -24.28,-1.92 1.58,-4.82 3.16,-9.64 4.74,-14.48 z"
     id="path98"
     inkscape:connector-curvature="0"
     style="fill:#b0521f" />
  <path
     d="m 834.32,630.06 c 4.12,0.66 9.9,-1.14 12.72,2.96 1.34,3.16 1.38,6.7 2.02,10.06 -5.4,-3.74 -10.72,-7.76 -14.74,-13.02 z"
     id="path100"
     inkscape:connector-curvature="0"
     style="fill:#dd6727" />
  <path
     style="fill:#f4722b"
     d="m 287.85,648.85 c -6.08,0.2 -11.88,2.25 -17.8,3.45 -46.14,10.68 -91.99,22.63 -138.15,33.25 -36.54,8.84 -72.9,18.54 -109.6,26.7 -0.08,3.24 -0.1,6.49 -0.1,9.75 0.08,1.2 0.22,3.57 0.3,4.75 -0.3,0.56 -0.9,1.69 -1.2,2.25 0.24,1.28 0.73,3.82 0.95,5.1 8.74,-3.28 17.07,1.2 25.65,2.3 10.52,-1.36 20.69,-4.71 30.85,-7.65 10.24,-2.68 16.14,-12.93 26.3,-15.75 7.48,-2.34 15.45,-3.52 22.25,-7.6 8.48,-5.02 17.38,-9.77 27.3,-11.05 0.42,5.48 0.71,11.22 3.35,16.2 2.9,4.84 7.78,8.38 9.6,13.9 0.98,4.8 1.86,9.62 2.9,14.4 8.7,-3.4 17.32,-7.04 25.9,-10.7 5.5,-2.06 5.15,-12.74 12.85,-9.7 4.98,4.84 4.22,12.28 4.9,18.6 3.56,-0.74 7.15,-1.47 10.65,-2.45 14.28,-6.44 30.06,-3.95 45.2,-4.25 10.62,0.28 21.15,-1.37 31.75,-0.75 8.28,1.18 16.67,2.09 25.05,1.65 5.32,-13.22 8.41,-27.15 11.25,-41.05 -2.32,4.72 -3.47,10.29 -7.05,14.25 -8.78,2.36 -18.04,3.85 -27.1,2.15 8.88,-6.86 18.52,-12.6 28.1,-18.4 0.8,-0.48 2.45,-1.45 3.25,-1.95 -5.32,-2.36 -10.68,-4.54 -16,-6.9 2.02,-1.58 4.02,-3.17 6.1,-4.65 3.78,-1.06 7.66,-1.83 11.5,-2.65 -4.46,-2.44 -8.88,-5 -13.3,-7.5 -11.64,-5.7 -23.31,-11.64 -35.65,-15.7 z"
     id="path102"
     inkscape:connector-curvature="0" />
  <path
     d="m 298.3,669.04 c 9.44,-1.5 19.1,0.14 27.02,5.68 -2.08,1.48 -4.1,3.04 -6.12,4.62 -7.08,-3.22 -14.02,-6.7 -20.9,-10.3 z"
     id="path104"
     inkscape:connector-curvature="0"
     style="fill:#b0521f" />
  <path
     d="m 293.06,682.1 c 6.8,0.06 13.9,-0.44 20.3,2.38 5.9,2.4 12.04,5.24 18.6,3.74 -9.58,5.8 -19.24,11.54 -28.12,18.4 -9.56,4.9 -20.24,6.88 -30.12,10.94 -6.36,2.62 -12.9,4.7 -19.58,6.32 0.28,-1.1 0.84,-3.32 1.12,-4.42 2.62,-0.88 5.26,-1.76 7.88,-2.62 0.92,-2.32 1.84,-4.62 2.78,-6.9 12.36,-3.14 22.4,-11.56 34.52,-15.42 -2.48,-4.14 -4.94,-8.28 -7.38,-12.42 z"
     id="path106"
     inkscape:connector-curvature="0"
     style="fill:#b0521f" />
  <path
     d="m 128.06,697.96 c 9.66,-7.96 22.5,-9.58 34.3,-12.32 -2.62,1.84 -5.28,3.66 -7.92,5.48 0.04,0.8 0.12,2.42 0.16,3.22 -9.92,1.28 -18.84,6.04 -27.32,11.06 -6.8,4.08 -14.74,5.28 -22.22,7.62 -10.16,2.82 -16.06,13.06 -26.3,15.74 -10.16,2.94 -20.34,6.26 -30.86,7.62 -8.58,-1.1 -16.9,-5.54 -25.64,-2.26 -0.22,-1.28 -0.7,-3.86 -0.94,-5.14 9.42,0.32 19.18,2.68 28.26,-1.12 16.7,-6.12 35.9,-6.84 50.18,-18.38 8.4,-6.26 20.12,-4.86 28.3,-11.52 z"
     id="path108"
     inkscape:connector-curvature="0"
     style="fill:#c95e23" />
  <path
     style="fill:#4c230d;fill-opacity:1"
     d="m 850.75,699.7 c -0.94,9.42 -0.76,18.89 -0.6,28.35 0.38,11.98 -2.03,23.77 -2.15,35.75 -5.86,5.72 -12.06,11.14 -17.6,17.2 3.78,9.72 8.8,19.09 11.3,29.25 -0.82,6.92 -3.6,13.42 -5.4,20.1 -13.48,45.82 -26.99,91.63 -40.45,137.45 -2.86,9.9 -6.35,19.67 -8.15,29.85 70.02,0.2 140.06,-0.01 210.1,0.05 0.04,-35.56 0.27,-71.14 -0.15,-106.7 0.28,-5.68 0.37,-11.34 0.25,-17 -13.8,-6.86 -25.43,-17.16 -38.15,-25.7 -12.04,-8.32 -23.71,-17.12 -35.75,-25.4 -3.36,-6.2 -9.84,-9.43 -15.3,-13.45 -8.22,-5.7 -15.35,-12.75 -23.25,-18.85 -5.42,-4.14 -10.27,-9.45 -12.05,-16.15 -3.54,-12.88 -4.86,-26.25 -8.3,-39.15 l -1.45,-0.7 c -0.14,-5.02 -0.04,-10.11 -0.9,-15.05 -1.38,-3.88 -5.31,-5.79 -8.35,-8.15 0.68,-4.26 -2.13,-7.98 -3.65,-11.7 z m 51.45,107.7 c 5.40374,3.93563 10.76258,7.92864 16.25,11.75 -5.48802,-3.81902 -10.84813,-7.80688 -16.25,-11.75 z"
     id="path112"
     inkscape:connector-curvature="0" />
  <path
     d="m 194.36,714.26 c 5.02,-2.96 10.98,-5.1 16.8,-3.32 7.02,5.48 5.52,15.62 6.38,23.5 1.8,0.04 5.4,0.12 7.2,0.16 -3.5,0.98 -7.08,1.72 -10.64,2.46 -0.68,-6.32 0.06,-13.76 -4.92,-18.6 -7.7,-3.04 -7.34,7.62 -12.84,9.68 -8.58,3.66 -17.18,7.3 -25.88,10.7 -1.04,-4.78 -1.94,-9.58 -2.92,-14.38 9.24,-2.56 18.5,-5.36 26.82,-10.2 z"
     id="path114"
     inkscape:connector-curvature="0"
     style="fill:#b0521f" />
  <path
     d="m 22.18,722 c 14.28,-3.28 28.38,-9.74 43.28,-8.7 -13.58,6.68 -28.9,8.12 -42.96,13.44 -0.08,-1.18 -0.24,-3.54 -0.32,-4.74 z"
     id="path116"
     inkscape:connector-curvature="0"
     style="fill:#c95e23" />
  <path
     d="m 854.38,711.38 c 3.04,2.36 6.98,4.3 8.36,8.18 0.86,4.94 0.76,10 0.9,15.02 -3.3,-1.9 -8,-2.98 -9.1,-7.16 -1.78,-5.18 -0.48,-10.74 -0.16,-16.04 z"
     id="path118"
     inkscape:connector-curvature="0"
     style="fill:#b0521f" />
  <path
     d="m 602.8,717.38 c 10.14,-1 18.82,4.84 28.28,7.26 39.88,12.18 81.5,17.24 122.9,20.98 15.68,2.14 31.66,1.62 47.18,5.2 8.98,2.28 18.6,1.8 27.3,5.18 1.5,3.34 -3.94,4.76 -6.34,4.32 -12.02,-1.94 -24.22,-1.56 -36.26,-3.32 -9.26,-1.14 -18.6,0.08 -27.86,-0.84 -17.9,-2.06 -36.08,-2.4 -53.68,-6.62 -19.34,-5.38 -38.48,-11.64 -58.24,-15.42 -13.94,-3.82 -28.22,-7.06 -41.54,-12.66 -0.44,-1.02 -1.3,-3.06 -1.74,-4.08 z"
     id="path120"
     inkscape:connector-curvature="0"
     style="fill:#c95e23" />
  <path
     style="fill:#dd6727;fill-opacity:1"
     d="m 301.7,729.6 c -0.14,1.34 -0.41,4.03 -0.55,5.35 -10.88,1.88 -21.99,2.07 -32.65,5.15 -17.62,2.2 -35.12,5.24 -52.6,8.4 -40.58,12.02 -81.3,23.53 -122,35.15 -24,6.12 -47.42,14.29 -71.5,20.15 -0.1,1.6 -0.3,4.75 -0.4,6.35 24.5,-6.38 48.78,-13.61 73,-20.95 21.18,-6.98 42.65,-13.03 63.95,-19.65 2.82,15.36 9.37,29.85 10.95,45.45 1.98,5.24 4.77,10.13 7.45,15.05 6.42,-15.88 27.02,-13.75 37.4,-25.45 2.06,-2.96 6.73,-3.32 8.85,-0.2 5.04,8.94 6.26,19.48 6.3,29.6 -10.24,4.98 -21.26,7.94 -32,11.6 -38.42,14.12 -77.25,27.12 -115.75,41 -20.04,7.06 -40.23,13.71 -59.75,22.15 -0.12,2.28 -0.28,4.58 -0.4,6.9 11.46,-6.06 24.01,-9.14 36.55,-12 21.88,-8.44 44.81,-14.11 65.85,-24.65 10.58,-4.98 22.02,-7.72 32.9,-12 10.32,-4.04 20.82,-7.77 31.6,-10.35 -2.22,11.22 -1.42,22.66 1.7,33.6 1.86,12.46 12.71,22.23 25.35,22.45 11.94,-4.36 22.66,-11.2 34,-16.8 3.78,7.12 7.45,14.29 10.75,21.65 -13.1,6.52 -27.04,11.03 -40.5,16.75 -23.66,8.76 -46.78,18.9 -70.3,28 -28.64,9.72 -55.28,24.14 -83.4,35.1 8.82,0.74 17.73,1 26.55,0.1 1.36,-1.88 2.24,-4.36 4.6,-5.2 15.86,-7.2 32.02,-13.7 48.2,-20.1 20.34,-7.86 39.97,-17.6 60.75,-24.3 1.92,0.1 5.76,0.3 7.7,0.4 -0.44,3.16 -0.89,6.32 -1.35,9.5 -2.46,13.78 6.18,26.32 7.2,39.9 13.98,0.66 27.97,0.16 41.95,0.3 9.06,0 18.11,0.12 27.15,-0.2 10.36,0.36 20.74,0.14 31.1,0.2 6.5,0 12.95,0.04 19.45,0 19.1,0.02 38.22,0.0299 57.3,-0.0499 l 10.15,-0.1 c 11,0.18 21.99,0.62 32.95,-0.6 -13.16,-3.58 -25.93,-8.42 -38.75,-13 -1.7025,-0.67499 -3.42754,-0.96274 -5.2,-1 -2.9541,-0.0621 -5.97499,0.55 -8.85,1.15 -10.7,2.42 -21.37,5.11 -31.85,8.35 -1.6,-0.56 -4.8,-1.67 -6.4,-2.25 13.78,-7.94 33.36,-11.18 39.7,-27.7 6.52,-15.88 13.8,-31.43 21.1,-46.95 0.46,-1 1.39,-3 1.85,-4 -14.82,-5.98 -30.29,-10.09 -45.55,-14.75 -18.92,-6.42 -37.55,4.39 -56.05,7.45 -2.8,-0.22 -5.56,-0.63 -8.3,-1.25 15.36,-8.32 30.54,-17.04 45.7,-25.7 6.88,-3.82 10.34,-11.18 14.6,-17.4 6.7,-10.78 13.96,-21.16 20.7,-31.9 -10.66,-3.72 -21.2,-7.85 -32.2,-10.45 -7.36125,-1.80374 -14.77798,-4.896 -22.4,-4.9 -1.75893,-9.3e-4 -3.51875,0.1675 -5.3,0.55 -20.2,3.32 -39.9,9.16 -60.1,12.4 -2.06,-0.12 -6.19,-0.38 -8.25,-0.5 7.84,-5.84 17.31,-8.61 25.95,-12.95 9.44,-4.64 19.1,-8.91 28.6,-13.45 6.08,-2.94 12.84,-5.29 17.1,-10.85 9.42,-12.08 18.62,-24.37 27.5,-36.85 -9.68,-3.06 -19.1,-6.88 -28.3,-11.2 0.16,-1.84 0.54,-5.56 0.7,-7.4 0.14,-0.38 0.41,-1.09 0.55,-1.45 -8.38,0.44 -16.77,-0.47 -25.05,-1.65 z"
     id="path122"
     inkscape:connector-curvature="0"
     sodipodi:nodetypes="ccccccccccccccccccccccccccccccccccccccccccccscccccccccccccsccccccccccc" />
  <path
     d="m 322.22,742.52 c 1.24,-3.3 2.58,-6.56 3.96,-9.8 -0.16,1.84 -0.5,5.56 -0.66,7.4 9.2,4.32 18.62,8.12 28.3,11.18 -8.88,12.48 -18.08,24.76 -27.5,36.84 -4.26,5.56 -11.06,7.94 -17.14,10.88 -9.5,4.54 -19.16,8.78 -28.6,13.42 -8.64,4.34 -18.1,7.12 -25.94,12.96 2.06,0.12 6.2,0.4 8.26,0.52 -11.3,1.48 -22.94,2.06 -33,8.1 -0.04,-10.12 -1.24,-20.68 -6.28,-29.62 -2.12,-3.12 -6.8,-2.74 -8.86,0.22 -10.38,11.7 -31,9.54 -37.42,25.42 -2.68,-4.92 -5.48,-9.82 -7.46,-15.06 4.4,0.48 9.2,2.78 13.42,0.46 5.6,-2.94 10.78,-6.62 16.14,-10 7.32,-4.2 9.46,-13.14 15.38,-18.72 2.56,-2.48 6.4,-1.94 9.62,-2.52 1.42,10.52 4.48,20.68 8.24,30.58 7.26,-0.54 14.44,-1.84 21.3,-4.32 2.3,-4.3 3.56,-10.12 8.6,-12.06 6.84,-2.62 14.46,-1.98 21.3,-4.6 3,-2.74 4.14,-6.9 6.02,-10.4 7.3,-2.56 14.68,-4.88 22.06,-7.24 2.34,-6.56 5.78,-12.8 7.28,-19.62 -1.12,-5.66 -4.34,-10.58 -6.88,-15.64 3.28,0.54 6.58,1.08 9.86,1.62 z"
     id="path124"
     inkscape:connector-curvature="0"
     style="fill:#b0521f" />
  <path
     d="m 773.78,793.9 c 15.94,-5.12 31.78,-10.54 47.72,-15.6 0.38,0.84 1.1,2.48 1.46,3.3 -2.68,1.32 -5.36,2.66 -8.06,3.88 -9.56,3.82 -20.02,4.36 -29.64,8 -13.8,5.1 -28.24,8.18 -41.86,13.76 -5.38,2.36 -11.28,1.16 -16.86,0.44 7.5,-4.9 16.2,-7.36 24.88,-9.26 7.86,2 15.06,-2.38 22.36,-4.52 z"
     id="path128"
     inkscape:connector-curvature="0"
     style="fill:#4c230d" />
  <path
     d="m 21.98,810.16 c 24.5,-6.38 48.78,-13.62 73,-20.96 2.4,1.5 4.82,2.96 7.24,4.46 -1.84,4.66 -3.3,9.84 -7.28,13.2 -5.42,4.96 -13.22,5.3 -19.4,8.86 -5.68,3.4 -2.68,11 -3.22,16.4 -7.76,2.12 -15.7,3.42 -23.7,4.16 -7.56,-7.68 -16.56,-13.82 -26.5,-17.96 -0.06,-2.74 -0.1,-5.44 -0.14,-8.16 z"
     id="path130"
     inkscape:connector-curvature="0"
     style="fill:#b0521f" />
  <path
     style="fill:#f4722b"
     d="m 880.15,792.3 c -0.42,7.82 -1.86,15.55 -2.5,23.35 -0.04,6.5 0.59,12.97 1.15,19.45 4.32,0.84 8.77,2.34 13.25,1.4 2.76,-4.46 0.44,-9.93 1.3,-14.85 9.08,4.86 16.5,12.12 24.4,18.6 7.58,6.38 15.88,11.91 23.1,18.75 9.94,9.3 22.51,14.86 33.95,22 6.22,3.92 13.07,6.62 20.05,8.9 l 2.8,1.1 c 0.28,-5.68 0.37,-11.34 0.25,-17 -13.8,-6.86 -25.43,-17.16 -38.15,-25.7 -12.04,-8.32 -23.71,-17.12 -35.75,-25.4 -14.86,-9.84 -28.63,-21.3 -43.85,-30.6 z"
     id="path132"
     inkscape:connector-curvature="0" />
  <path
     d="m 877.66,815.66 c 1.48,2.16 3.04,4.34 4.9,6.26 3.4,-1.08 6.58,-2.74 9.82,-4.24 12.18,7.64 23.68,16.32 35.54,24.42 21.28,17.36 44.86,31.56 66.94,47.8 -6.98,-2.28 -13.84,-4.98 -20.06,-8.9 -11.44,-7.14 -24.02,-12.68 -33.96,-21.98 -7.22,-6.84 -15.5,-12.38 -23.08,-18.76 -7.9,-6.48 -15.32,-13.74 -24.4,-18.6 -0.86,4.92 1.44,10.4 -1.32,14.86 -4.48,0.94 -8.9,-0.56 -13.22,-1.4 -0.56,-6.48 -1.2,-12.96 -1.16,-19.46 z"
     id="path136"
     inkscape:connector-curvature="0"
     style="fill:#b0521f" />
  <path
     d="m 331.5,819.18 c 6.44,-0.3 13.2,2.3 19.22,-1.32 11,2.6 21.54,6.7 32.2,10.42 -6.74,10.74 -14.04,21.14 -20.74,31.92 -4.26,6.22 -7.72,13.6 -14.6,17.42 -15.16,8.66 -30.3,17.34 -45.66,25.66 2.74,0.62 5.5,1.06 8.3,1.28 -9.66,1.8 -19.32,3.66 -29.04,5.2 4.84,-7.16 8.32,-15.02 11.58,-22.96 6.64,-4.88 15.16,-6.12 22.48,-9.74 7.86,-3.82 16.46,-5.76 24.32,-9.5 5.44,-6.46 7.7,-15.38 7.54,-23.7 -1.12,-7.7 -5.94,-14.44 -11.24,-19.9 -4.84,-1.24 -9.92,-0.44 -14.84,-0.58 3.44,-1.5 6.76,-3.42 10.48,-4.2 z"
     id="path138"
     inkscape:connector-curvature="0"
     style="fill:#b0521f" />
  <path
     d="m 230.42,892.34 c 3.8,-3.62 7.92,-8.24 13.72,-7.78 5.96,0.68 11.9,2.94 16.76,6.5 3.48,5.2 4.62,11.56 6.56,17.44 2.12,0.82 4.26,1.68 6.4,2.52 -4.42,2.1 -8.8,4.28 -13.16,6.52 -3.3,-7.36 -6.98,-14.54 -10.76,-21.66 -11.34,5.6 -22.04,12.44 -33.98,16.8 -12.64,-0.22 -23.52,-9.96 -25.38,-22.42 3.8,5.56 8.42,10.48 13.12,15.3 9.16,-3.72 19.74,-5.62 26.72,-13.22 z"
     id="path142"
     inkscape:connector-curvature="0"
     style="fill:#b0521f" />
  <path
     d="m 94,897.28 c 7.38,-2.08 14.2,-6.14 22.02,-6.52 0.7,2.94 1.38,5.9 2.06,8.86 -5.4,5.52 -7.64,13.84 -14.76,17.62 -7.7,4.86 -15.96,10.02 -25.34,10.2 -9.46,0.26 -19.16,-0.18 -28.18,-3.22 -2.18,-3.02 -3.46,-6.58 -4.98,-9.94 16.16,-6.28 32.52,-12.1 49.18,-17 z"
     id="path144"
     inkscape:connector-curvature="0"
     style="fill:#b0521f" />
  <path
     d="m 352.42,904.42 c 11.22,-4.3 22.54,1.82 33.74,2.96 8.52,0.88 16.54,4 23.8,8.48 -7.3,15.52 -14.6,31.04 -21.12,46.92 -6.34,16.52 -25.9,19.76 -39.68,27.7 1.6,0.58 4.8,1.7 6.4,2.26 -3.74,0.86 -7.6,1 -11.4,1.26 -1.08,1 -3.26,2.98 -4.34,3.98 -6.5,0.04 -12.98,0.02 -19.48,0.02 0.12,-3.06 0.26,-6.12 0.4,-9.16 4.44,-1.6 8.96,-3.02 13.18,-5.18 5.08,-2.68 8.72,-7.62 14.28,-9.5 8.58,-3.2 18.38,-4.38 25.48,-10.62 3.06,-8.8 4.3,-18.26 6.36,-27.38 -1.5,-10.32 -8.4,-20.44 -18.04,-24.76 -10.02,0.68 -19.16,5.54 -28.92,7.58 -18,4.18 -35.9,8.72 -53.84,13.1 0.7,-2.16 1.48,-4.26 2.38,-6.32 6.58,-2.92 13.88,-3.6 20.76,-5.54 16.84,-4.74 33.54,-10.02 50.04,-15.8 z"
     id="path146"
     inkscape:connector-curvature="0"
     style="fill:#b0521f" />
  <path
     d="m 252.06,930.12 c 7.16,-2.86 15,-1.92 22.5,-1.54 -1.1,2.66 -1,6.3 -3.62,8.1 -11.46,7.58 -25.26,10.68 -38.82,11.58 -7.52,0.22 -13.8,4.7 -19.18,9.54 0.46,-3.18 0.9,-6.34 1.34,-9.5 -1.94,-0.1 -5.78,-0.32 -7.7,-0.42 5.1,-3.2 11.14,-2.9 16.86,-2.38 8.08,-7.48 18.6,-11.3 28.62,-15.38 z"
     id="path148"
     inkscape:connector-curvature="0"
     style="fill:#c95e23" />
  <path
     d="m 261.18,993.48 c 4.7,-1.7 9.32,-4.2 14.4,-4.46 5.66,0.7 9.66,5.22 13.68,8.8 -9.04,0.32 -18.1,0.18 -27.16,0.18 -0.3,-1.52 -0.62,-3.02 -0.92,-4.52 z"
     id="path154"
     inkscape:connector-curvature="0"
     style="fill:#b0521f" />
  <path
     d="m 125.22,996.48 c 3.68,-2.24 8.02,-2.3 11.68,0.04 -3.22,2.5 -8.52,2.58 -11.68,-0.04 z"
     id="path156"
     inkscape:connector-curvature="0"
     style="fill:#dd6727" />
  <path
     d="m 397.1,997.96 c 2.12,-1.64 4.22,-3.26 6.34,-4.86 0.96,1.18 2.86,3.56 3.8,4.74 -3.38,0.04 -6.76,0.08 -10.14,0.12 z"
     id="path158"
     inkscape:connector-curvature="0"
     style="fill:#b0521f" />
</svg>
