<?xml version="1.0" encoding="UTF-8" ?>
<!DOCTYPE svg PUBLIC "-//W3C//DTD SVG 1.1//EN" "http://www.w3.org/Graphics/SVG/1.1/DTD/svg11.dtd">
<svg width="512pt" height="512pt" viewBox="0 0 512 512" version="1.1" xmlns="http://www.w3.org/2000/svg">
<path fill="#3e3e3e" opacity="1.00" d=" M 0.00 0.00 L 292.38 0.00 C 290.92 20.32 289.98 40.69 288.47 61.01 C 288.14 67.42 285.26 73.30 284.19 79.57 C 253.87 82.74 223.48 85.18 193.17 88.36 C 193.40 89.22 193.88 90.94 194.11 91.80 C 199.65 90.64 205.32 90.49 210.96 90.43 C 261.61 88.06 312.27 85.87 362.92 83.48 C 373.29 83.46 383.63 81.93 394.00 82.42 C 397.56 82.28 399.02 85.95 399.55 88.86 C 402.31 101.58 405.00 114.32 407.88 127.03 C 408.31 129.73 409.43 133.08 407.22 135.33 C 405.28 137.10 402.47 137.30 400.02 137.86 C 370.30 143.18 340.64 148.80 310.93 154.14 C 307.03 154.74 303.60 156.77 300.24 158.70 C 300.56 161.38 300.87 164.06 301.16 166.74 C 319.96 167.09 338.65 164.89 357.22 162.23 C 368.50 161.68 379.06 157.50 389.97 155.04 C 399.77 152.69 409.69 150.92 419.63 149.31 C 419.67 139.88 419.51 130.44 418.61 121.05 C 417.99 115.66 419.80 110.36 419.28 104.96 C 418.44 96.14 418.16 87.26 418.30 78.40 C 437.88 75.55 457.49 72.91 477.08 70.13 C 481.89 69.34 487.02 69.48 491.37 66.97 C 483.91 66.73 476.45 67.32 468.99 67.52 C 451.35 68.63 433.57 68.23 416.04 70.88 C 407.00 72.35 397.75 72.80 388.93 75.41 C 379.39 77.06 369.64 76.22 360.04 77.32 C 348.66 77.51 337.33 78.56 325.96 78.79 C 319.23 79.06 312.38 80.49 305.72 78.89 C 303.58 78.45 301.41 78.22 299.25 78.00 C 299.29 73.32 299.35 68.60 298.52 63.97 C 296.46 53.09 296.69 41.96 296.09 30.94 C 295.00 20.83 296.03 10.47 293.31 0.56 C 299.97 0.37 306.63 0.23 313.29 0.00 L 512.00 0.00 L 512.00 227.97 C 509.75 228.64 507.46 229.16 505.13 229.46 C 453.10 234.80 401.06 240.13 349.03 245.47 C 342.05 246.01 335.05 245.67 328.07 245.78 C 328.19 248.29 328.33 250.79 328.45 253.30 C 329.03 253.53 330.20 253.99 330.78 254.22 C 337.47 253.37 344.22 253.42 350.95 253.34 C 356.98 253.34 362.96 252.30 368.99 252.43 C 382.00 253.02 394.99 250.49 407.99 251.57 C 411.39 252.11 412.04 256.08 411.41 258.89 C 408.65 275.38 405.96 291.88 403.14 308.34 C 402.89 311.17 400.42 312.73 398.54 314.49 C 399.58 309.55 399.54 303.90 395.96 299.95 C 391.12 293.72 380.62 293.48 375.57 299.57 C 371.17 304.50 371.45 312.21 375.10 317.48 C 361.23 319.49 347.42 321.92 333.52 323.61 C 331.21 318.00 326.59 313.79 321.90 310.14 C 318.85 307.67 314.94 306.90 311.16 306.31 C 305.01 313.03 296.83 317.57 288.51 321.05 C 292.36 316.44 296.95 312.51 300.84 307.92 C 306.69 301.42 310.92 293.69 314.99 286.00 C 319.86 276.78 320.35 266.14 321.13 255.96 C 321.74 248.90 320.26 241.88 318.86 235.00 C 318.19 232.43 317.64 229.41 315.25 227.86 C 311.66 225.59 307.59 224.25 303.77 222.44 C 297.55 227.50 292.57 233.83 287.73 240.16 C 291.93 242.58 296.89 244.58 299.44 248.95 C 300.67 251.65 297.78 253.86 295.37 252.45 C 288.95 249.64 282.87 245.65 275.70 245.06 C 275.67 248.19 275.55 251.32 275.29 254.45 C 272.44 261.25 273.44 269.40 268.51 275.35 C 269.57 268.58 271.67 261.91 271.33 254.97 C 270.79 242.03 267.15 228.98 259.68 218.29 C 257.43 214.92 254.22 212.40 251.03 209.97 C 254.21 210.78 257.56 211.60 260.04 213.88 C 265.90 219.06 270.05 225.82 274.05 232.46 C 277.37 225.50 282.33 219.60 287.00 213.55 C 283.97 212.45 282.43 214.86 280.99 216.97 C 279.55 211.05 274.89 206.76 272.83 201.12 C 272.14 199.38 271.57 197.60 270.99 195.82 C 268.03 195.10 265.07 194.29 262.01 194.23 C 251.40 194.03 240.67 194.65 230.39 197.48 C 222.82 199.83 215.46 202.95 208.76 207.21 C 213.71 214.52 218.48 221.97 224.25 228.67 C 227.37 232.61 229.89 237.04 233.61 240.49 C 236.47 243.12 236.30 247.39 236.24 250.96 C 236.17 260.50 222.41 265.96 215.82 259.13 C 210.26 253.71 205.24 247.66 198.98 243.00 C 195.29 240.21 191.71 237.29 188.04 234.49 C 186.84 237.16 185.59 239.90 185.51 242.89 C 185.08 251.57 183.77 260.26 184.71 268.95 C 185.89 279.71 187.36 290.46 189.95 300.98 C 191.41 307.41 197.60 310.82 202.39 314.60 C 208.79 319.68 216.64 322.25 223.60 326.37 C 226.25 327.90 229.07 329.11 231.89 330.29 C 231.76 330.78 231.51 331.76 231.38 332.26 C 230.80 332.44 229.63 332.82 229.05 333.01 C 228.60 334.37 228.15 335.74 227.67 337.09 C 228.19 344.38 228.20 351.69 227.99 358.99 C 227.90 363.79 225.62 368.42 226.64 373.25 C 228.05 380.77 227.34 388.42 227.49 396.01 C 227.50 401.72 227.85 407.50 226.59 413.13 C 225.13 419.34 226.21 425.76 225.20 432.02 C 224.17 437.96 224.52 444.00 224.50 449.99 C 224.50 470.66 224.50 491.33 224.50 512.00 L 217.32 512.00 C 217.36 505.39 219.13 497.60 213.97 492.36 C 213.36 486.93 212.84 481.42 210.97 476.25 C 208.80 480.58 210.08 485.42 210.31 490.01 C 210.55 494.00 211.81 497.81 212.79 501.66 C 210.71 501.60 208.59 501.80 206.57 501.25 C 204.42 499.29 203.15 496.59 201.51 494.23 C 202.51 489.79 203.63 485.38 204.76 480.98 C 206.53 480.09 209.23 479.87 209.81 477.61 C 212.18 467.91 209.11 457.97 210.12 448.18 C 210.81 439.95 210.49 431.70 210.81 423.46 C 213.45 423.18 216.08 422.88 218.71 422.60 C 218.74 420.28 218.77 417.97 218.81 415.66 C 215.96 415.70 213.10 415.74 210.25 415.79 C 209.95 413.56 209.67 411.34 209.39 409.11 C 207.72 409.50 205.27 408.86 204.61 410.98 C 204.78 412.45 205.15 413.90 205.37 415.38 C 199.82 415.41 194.28 415.62 188.73 415.74 C 189.43 404.28 189.66 392.77 188.75 381.32 C 190.46 379.25 192.63 376.94 191.85 374.00 C 191.65 371.32 189.01 370.03 187.16 368.56 C 187.70 360.12 188.48 351.70 189.21 343.28 C 194.23 342.30 197.92 337.90 203.28 338.07 C 205.49 332.17 202.84 325.64 198.77 321.24 C 195.10 318.24 190.54 316.30 187.56 312.48 C 184.47 309.02 183.21 304.45 182.39 299.99 C 182.73 310.50 184.13 320.98 183.53 331.50 C 181.56 331.60 179.59 331.69 177.63 331.70 C 174.48 330.84 171.31 329.80 168.01 329.81 C 164.21 329.91 160.76 331.64 157.38 333.20 C 151.58 333.43 145.76 333.28 139.98 333.86 C 132.92 334.58 125.80 334.18 118.73 334.85 C 114.51 335.28 110.26 335.37 106.02 335.40 C 99.62 335.32 93.45 337.47 87.05 337.48 C 80.37 337.52 73.72 338.33 67.19 339.71 C 54.14 341.41 41.00 342.36 27.97 344.25 C 18.64 345.29 9.40 347.20 0.00 347.50 L 0.00 182.52 C 3.33 182.87 6.65 183.29 10.00 183.45 C 19.33 183.83 28.60 185.31 37.95 185.41 C 44.01 185.27 50.01 186.81 56.06 185.90 C 58.15 185.32 60.30 186.98 60.50 189.09 C 61.14 195.09 60.02 201.10 59.71 207.09 C 58.65 224.40 56.94 241.68 56.17 259.01 C 76.12 259.75 96.09 260.42 115.95 262.57 C 121.99 263.36 127.83 261.15 133.85 261.08 C 140.98 260.92 147.91 259.08 155.01 258.58 C 162.62 258.11 170.06 256.15 177.71 256.02 C 177.41 255.40 176.81 254.16 176.51 253.54 C 169.33 253.04 162.13 253.84 154.96 254.28 C 130.34 255.07 105.76 256.68 81.14 257.67 C 79.02 252.34 79.55 246.47 78.09 240.98 C 77.49 234.27 75.49 227.79 75.30 221.03 C 73.53 211.03 72.77 200.87 70.57 190.96 C 70.14 186.74 70.96 182.53 71.45 178.35 C 75.48 178.34 79.53 178.27 83.55 177.80 C 82.05 176.71 80.64 175.42 78.89 174.76 C 75.60 174.22 72.27 174.85 68.97 175.07 C 45.97 175.99 22.99 177.19 0.00 178.38 L 0.00 0.00 Z" />
<path fill="#b5a98e" opacity="1.00" d=" M 292.38 0.00 L 313.29 0.00 C 306.63 0.23 299.97 0.37 293.31 0.56 C 296.03 10.47 295.00 20.83 296.09 30.94 C 296.69 41.96 296.46 53.09 298.52 63.97 C 299.35 68.60 299.29 73.32 299.25 78.00 C 301.41 78.22 303.58 78.45 305.72 78.89 C 312.38 80.49 319.23 79.06 325.96 78.79 C 337.33 78.56 348.66 77.51 360.04 77.32 C 369.64 76.22 379.39 77.06 388.93 75.41 C 397.75 72.80 407.00 72.35 416.04 70.88 C 433.57 68.23 451.35 68.63 468.99 67.52 C 476.45 67.32 483.91 66.73 491.37 66.97 C 487.02 69.48 481.89 69.34 477.08 70.13 C 457.49 72.91 437.88 75.55 418.30 78.40 C 418.16 87.26 418.44 96.14 419.28 104.96 C 419.80 110.36 417.99 115.66 418.61 121.05 C 419.51 130.44 419.67 139.88 419.63 149.31 C 409.69 150.92 399.77 152.69 389.97 155.04 C 379.06 157.50 368.50 161.68 357.22 162.23 C 338.65 164.89 319.96 167.09 301.16 166.74 C 300.87 164.06 300.56 161.38 300.24 158.70 C 303.60 156.77 307.03 154.74 310.93 154.14 C 340.64 148.80 370.30 143.18 400.02 137.86 C 402.47 137.30 405.28 137.10 407.22 135.33 C 409.43 133.08 408.31 129.73 407.88 127.03 C 405.00 114.32 402.31 101.58 399.55 88.86 C 399.02 85.95 397.56 82.28 394.00 82.42 C 383.63 81.93 373.29 83.46 362.92 83.48 C 312.27 85.87 261.61 88.06 210.96 90.43 C 205.32 90.49 199.65 90.64 194.11 91.80 C 193.88 90.94 193.40 89.22 193.17 88.36 C 223.48 85.18 253.87 82.74 284.19 79.57 C 285.26 73.30 288.14 67.42 288.47 61.01 C 289.98 40.69 290.92 20.32 292.38 0.00 Z" />
<path fill="#b5a98e" opacity="1.00" d=" M 55.58 9.87 C 57.36 9.57 59.10 9.11 60.77 8.43 C 61.81 15.23 61.66 22.13 62.42 28.97 C 63.36 38.56 61.15 48.07 61.61 57.67 C 56.44 60.34 52.38 64.57 48.11 68.42 C 48.43 58.49 51.18 48.82 51.50 38.88 C 53.08 29.24 53.63 19.45 55.58 9.87 Z" />
<path fill="#f5e5c1" opacity="1.00" d=" M 163.91 72.07 C 168.54 56.58 173.47 41.18 178.36 25.77 C 179.10 30.49 179.38 35.27 179.46 40.04 C 179.61 50.42 181.26 60.68 182.37 70.98 C 182.72 78.90 185.37 86.45 187.25 94.10 C 189.06 102.93 193.98 110.64 197.45 118.86 C 191.42 136.23 184.98 153.46 179.06 170.86 C 169.06 157.58 159.42 144.02 149.02 131.04 C 148.44 130.08 147.31 129.29 147.39 128.06 C 149.85 113.97 155.03 100.59 159.12 86.94 C 160.48 81.90 163.01 77.24 163.91 72.07 Z" />
<path fill="#f4722b" opacity="1.00" d=" M 60.27 67.28 C 64.66 63.48 70.71 62.96 75.75 60.37 C 75.73 61.83 75.46 63.29 74.41 64.39 C 68.97 71.29 63.53 78.24 59.50 86.09 C 66.29 78.36 73.62 71.04 79.16 62.29 C 83.68 67.68 87.34 73.73 91.96 79.04 C 93.12 80.38 94.64 82.45 93.15 84.12 C 85.71 93.62 77.38 102.39 69.58 111.59 C 68.63 112.41 67.66 114.17 66.17 113.47 C 60.32 110.75 54.68 107.57 48.70 105.14 C 47.98 103.99 47.16 102.88 46.66 101.61 C 45.23 93.66 47.23 85.58 50.22 78.23 C 52.10 73.44 56.54 70.53 60.27 67.28 Z" />
<path fill="#b5a98e" opacity="1.00" d=" M 108.10 78.13 C 115.10 78.65 121.99 80.27 129.03 80.23 C 134.25 80.24 139.45 80.61 144.66 80.91 C 144.36 82.35 144.04 83.79 143.71 85.23 C 135.42 85.82 127.16 86.74 118.89 87.50 C 115.16 84.51 112.27 80.53 108.10 78.13 Z" />
<path fill="#f4722b" opacity="1.00" d=" M 85.77 98.73 C 90.43 92.49 95.39 86.46 100.86 80.91 C 112.84 92.05 125.36 102.59 137.51 113.54 C 141.65 118.00 141.76 124.47 142.92 130.07 C 150.56 141.25 159.80 151.24 168.06 161.97 C 172.27 167.74 177.90 172.42 181.28 178.80 C 189.74 193.63 200.15 207.20 209.72 221.30 C 215.13 229.65 222.00 236.89 228.49 244.39 C 228.80 247.03 230.23 250.07 228.41 252.47 C 226.59 255.05 221.84 255.94 219.82 253.20 C 215.62 248.75 211.35 244.35 206.86 240.19 C 192.75 228.68 178.52 217.32 164.32 205.94 C 165.21 203.96 166.27 202.04 166.84 199.94 C 166.66 198.22 165.14 197.11 164.08 195.91 C 155.80 187.83 147.65 179.62 139.43 171.50 C 136.81 168.53 132.83 171.28 129.99 172.42 C 112.52 159.10 95.39 145.36 78.02 131.93 C 74.11 129.03 70.66 125.59 66.93 122.47 C 72.24 113.83 79.72 106.82 85.77 98.73 Z" />
<path fill="#3e3e3e" opacity="1.00" d=" M 100.51 89.34 C 101.06 89.32 102.17 89.29 102.72 89.27 C 102.96 91.08 103.51 92.97 102.78 94.75 C 101.28 99.00 99.79 103.38 97.13 107.07 C 92.82 112.21 87.39 116.47 81.10 118.88 C 91.24 112.11 97.56 100.98 100.51 89.34 Z" />
<path fill="#f5e5c1" opacity="1.00" d=" M 17.78 135.49 C 20.56 135.50 23.32 135.77 26.05 136.24 C 41.68 138.37 57.32 140.34 72.95 142.43 C 76.62 142.93 80.66 142.84 83.74 145.20 C 96.03 153.60 108.24 162.12 120.58 170.43 C 119.22 176.19 116.34 181.56 115.08 187.39 C 113.11 187.37 111.13 187.35 109.15 187.34 C 105.04 183.99 100.58 181.10 96.64 177.55 C 101.86 177.81 107.08 178.74 112.32 178.23 C 103.41 174.88 93.01 175.65 85.10 169.84 C 74.06 162.63 62.36 156.53 50.77 150.28 C 39.81 145.27 28.77 140.44 17.78 135.49 Z" />
<path fill="#f4722b" opacity="1.00" d=" M 276.46 178.96 C 278.30 167.52 281.73 155.91 289.03 146.72 C 290.65 156.89 293.89 166.75 295.03 177.00 C 295.18 183.96 296.05 191.20 293.70 197.91 C 292.31 202.38 289.93 206.48 287.19 210.25 C 287.33 210.71 287.60 211.63 287.74 212.09 C 285.75 212.35 283.04 213.44 281.81 211.15 C 276.25 201.46 275.60 189.86 276.46 178.96 Z" />
<path fill="#b5a98e" opacity="1.00" d=" M 260.16 162.13 C 264.42 161.63 268.75 161.57 272.94 160.56 C 272.20 163.10 271.48 165.65 270.80 168.21 C 243.48 171.08 216.29 175.15 188.93 177.58 C 188.06 176.26 187.09 174.99 186.40 173.56 C 186.03 171.85 187.12 170.27 187.61 168.70 C 193.47 168.85 199.26 167.91 205.08 167.44 C 223.44 165.68 241.80 163.87 260.16 162.13 Z" />
<path fill="#f5e5c1" opacity="1.00" d=" M 128.69 178.60 C 130.15 175.49 133.83 174.76 136.85 174.03 C 145.91 183.15 155.01 192.24 164.27 201.15 C 160.39 211.97 154.95 222.11 150.25 232.57 C 145.36 231.10 140.39 229.89 135.51 228.38 C 138.13 218.24 140.28 207.99 142.61 197.79 C 131.85 206.59 121.78 216.22 111.23 225.27 C 108.34 227.33 104.76 228.06 101.37 228.85 C 102.99 226.62 104.59 224.37 105.99 222.00 C 113.80 207.66 121.08 193.04 128.69 178.60 Z" />
<path fill="#b5a98e" opacity="1.00" d=" M 68.97 175.07 C 72.27 174.85 75.60 174.22 78.89 174.76 C 80.64 175.42 82.05 176.71 83.55 177.80 C 79.53 178.27 75.48 178.34 71.45 178.35 C 70.96 182.53 70.14 186.74 70.57 190.96 C 72.77 200.87 73.53 211.03 75.30 221.03 C 75.49 227.79 77.49 234.27 78.09 240.98 C 79.55 246.47 79.02 252.34 81.14 257.67 C 105.76 256.68 130.34 255.07 154.96 254.28 C 162.13 253.84 169.33 253.04 176.51 253.54 C 176.81 254.16 177.41 255.40 177.71 256.02 C 170.06 256.15 162.62 258.11 155.01 258.58 C 147.91 259.08 140.98 260.92 133.85 261.08 C 127.83 261.15 121.99 263.36 115.95 262.57 C 96.09 260.42 76.12 259.75 56.17 259.01 C 56.94 241.68 58.65 224.40 59.71 207.09 C 60.02 201.10 61.14 195.09 60.50 189.09 C 60.30 186.98 58.15 185.32 56.06 185.90 C 50.01 186.81 44.01 185.27 37.95 185.41 C 28.60 185.31 19.33 183.83 10.00 183.45 C 6.65 183.29 3.33 182.87 0.00 182.52 L 0.00 178.38 C 22.99 177.19 45.97 175.99 68.97 175.07 Z" />
<path fill="#f4722b" opacity="1.00" d=" M 316.65 192.55 C 318.79 190.97 321.38 190.30 323.98 190.00 C 324.47 191.58 325.64 193.60 323.89 194.87 C 315.83 202.33 305.71 207.21 297.90 214.99 C 291.93 220.36 286.76 226.59 282.43 233.35 C 280.62 236.09 280.26 239.70 277.95 242.10 C 275.22 243.80 271.99 240.88 272.91 237.99 C 275.68 226.98 284.20 218.77 292.00 211.05 C 299.11 203.51 308.17 198.33 316.65 192.55 Z" />
<path fill="#f4722b" opacity="1.00" d=" M 230.39 197.48 C 240.67 194.65 251.40 194.03 262.01 194.23 C 265.07 194.29 268.03 195.10 270.99 195.82 C 271.57 197.60 272.14 199.38 272.83 201.12 C 274.89 206.76 279.55 211.05 280.99 216.97 C 282.43 214.86 283.97 212.45 287.00 213.55 C 282.33 219.60 277.37 225.50 274.05 232.46 C 270.05 225.82 265.90 219.06 260.04 213.88 C 257.56 211.60 254.21 210.78 251.03 209.97 C 254.22 212.40 257.43 214.92 259.68 218.29 C 267.15 228.98 270.79 242.03 271.33 254.97 C 271.67 261.91 269.57 268.58 268.51 275.35 C 273.44 269.40 272.44 261.25 275.29 254.45 C 275.55 251.32 275.67 248.19 275.70 245.06 C 282.87 245.65 288.95 249.64 295.37 252.45 C 297.78 253.86 300.67 251.65 299.44 248.95 C 296.89 244.58 291.93 242.58 287.73 240.16 C 292.57 233.83 297.55 227.50 303.77 222.44 C 307.59 224.25 311.66 225.59 315.25 227.86 C 317.64 229.41 318.19 232.43 318.86 235.00 C 320.26 241.88 321.74 248.90 321.13 255.96 C 320.35 266.14 319.86 276.78 314.99 286.00 C 310.92 293.69 306.69 301.42 300.84 307.92 C 296.95 312.51 292.36 316.44 288.51 321.05 C 296.83 317.57 305.01 313.03 311.16 306.31 C 314.94 306.90 318.85 307.67 321.90 310.14 C 326.59 313.79 331.21 318.00 333.52 323.61 C 333.92 324.53 334.31 325.46 334.71 326.40 C 339.75 327.06 345.26 328.23 348.47 332.58 C 350.98 335.01 350.39 338.79 351.80 341.71 C 356.35 346.61 359.22 352.72 362.20 358.63 C 361.82 352.77 368.24 348.10 373.64 350.46 C 377.06 351.57 378.40 355.10 379.58 358.14 C 383.14 359.25 387.00 361.70 386.75 365.95 C 387.55 371.57 381.13 376.19 375.99 374.02 C 372.83 373.03 371.70 369.65 370.33 367.00 C 368.92 366.52 367.52 366.05 366.12 365.58 C 368.88 370.66 371.09 376.01 373.92 381.06 C 378.79 389.57 382.04 398.86 386.37 407.63 C 388.38 412.21 390.96 416.50 393.47 420.83 C 401.36 436.32 408.27 452.31 416.53 467.64 C 420.31 474.83 423.16 482.47 426.46 489.89 C 427.17 491.75 427.82 493.64 428.47 495.54 C 430.39 500.87 431.49 506.44 432.56 512.00 L 426.90 512.00 C 423.92 507.04 421.67 501.70 418.80 496.68 C 417.16 493.77 415.21 491.05 413.52 488.17 C 405.26 473.04 396.96 457.92 389.44 442.39 C 386.67 436.88 384.18 431.21 381.13 425.84 C 382.82 430.18 384.67 434.46 386.21 438.86 C 388.09 444.46 391.76 449.21 393.82 454.73 C 388.26 450.72 384.36 444.79 381.61 438.60 C 378.90 432.02 374.73 426.12 372.57 419.30 C 370.81 414.84 368.89 410.45 367.15 405.99 C 365.29 401.19 362.71 396.71 361.07 391.83 C 358.47 384.99 357.67 377.52 353.98 371.10 C 355.18 372.10 356.38 373.08 357.61 374.07 C 354.83 366.86 351.51 359.86 349.45 352.39 C 347.70 354.29 345.92 356.14 344.10 357.97 C 347.85 360.33 350.42 363.96 351.97 368.06 C 349.32 364.96 347.27 361.30 344.06 358.73 C 340.48 359.10 336.94 359.79 333.35 359.93 C 333.47 363.85 333.66 368.57 330.22 371.26 C 327.11 374.15 322.09 373.77 319.04 371.00 C 313.50 366.22 312.03 358.04 314.79 351.39 C 313.77 351.36 312.76 351.33 311.76 351.31 C 311.45 358.19 311.50 365.09 310.94 371.96 C 310.47 373.88 309.86 375.77 309.24 377.65 C 308.46 374.04 307.83 370.38 307.58 366.70 C 307.61 360.00 307.52 353.28 306.72 346.62 C 305.48 353.99 305.21 361.47 304.56 368.90 C 303.51 383.98 302.08 399.03 300.92 414.10 C 299.90 425.37 298.29 436.77 300.01 448.06 C 300.76 453.35 300.40 458.70 300.46 464.03 C 300.46 468.37 301.64 472.60 301.59 476.95 C 301.55 488.63 301.58 500.32 301.61 512.00 L 292.21 512.00 C 292.18 501.01 292.30 490.02 292.33 479.02 C 292.42 474.23 290.30 469.75 290.37 464.96 C 290.34 459.31 290.43 453.63 289.53 448.04 C 288.46 441.40 288.60 434.67 288.67 427.98 C 288.76 420.94 290.26 414.00 290.33 406.95 C 290.47 391.09 290.09 375.22 290.60 359.36 C 288.51 358.65 285.86 358.61 284.48 356.62 C 282.48 354.08 282.81 350.64 282.46 347.62 C 277.39 344.87 275.30 339.35 272.33 334.78 C 273.66 331.50 276.31 329.14 278.94 326.92 C 271.24 327.89 263.79 330.31 256.03 330.89 C 251.96 331.53 247.74 330.86 243.74 331.92 C 242.92 334.01 243.64 336.39 246.01 336.89 C 251.48 337.68 257.00 336.20 262.50 336.45 C 262.40 339.86 262.20 343.27 262.30 346.69 C 262.70 343.59 262.65 340.45 262.63 337.33 C 264.95 337.25 267.26 337.17 269.58 337.09 C 269.66 339.56 269.74 342.03 269.87 344.51 C 273.18 346.13 276.72 348.29 277.71 352.11 C 279.76 357.02 275.23 361.16 275.17 365.97 C 274.51 375.65 274.69 385.38 273.59 395.04 C 273.16 403.40 272.72 411.78 272.72 420.16 C 272.73 420.48 272.74 421.12 272.75 421.44 C 273.09 427.00 273.78 432.62 272.50 438.12 C 270.13 450.18 272.47 462.56 270.32 474.63 C 267.15 465.24 267.73 455.13 267.78 445.37 C 264.75 448.20 260.86 449.58 257.02 450.87 C 254.03 451.86 252.03 457.31 248.57 454.45 C 246.41 451.83 245.96 448.02 243.05 445.94 C 234.46 438.74 233.56 423.70 242.21 416.22 C 246.58 412.28 252.85 411.25 258.49 412.41 C 257.65 408.38 256.59 404.04 258.07 400.03 C 258.93 397.83 261.50 397.32 263.37 396.30 C 265.28 386.77 265.00 377.01 264.32 367.38 C 264.24 363.17 259.43 361.47 258.21 357.75 C 257.82 356.39 257.61 354.99 257.37 353.61 C 255.65 355.71 253.77 358.08 250.92 358.56 C 247.07 359.50 243.37 357.73 239.87 356.38 C 238.68 361.42 236.88 366.49 237.31 371.76 C 237.86 380.17 237.50 388.61 237.60 397.04 C 237.54 402.67 237.95 408.34 236.97 413.92 C 235.86 419.87 236.81 425.98 235.73 431.94 C 233.78 441.53 234.90 451.35 234.61 461.05 C 234.63 478.03 234.58 495.02 234.64 512.00 L 224.50 512.00 C 224.50 491.33 224.50 470.66 224.50 449.99 C 224.52 444.00 224.17 437.96 225.20 432.02 C 226.21 425.76 225.13 419.34 226.59 413.13 C 227.85 407.50 227.50 401.72 227.49 396.01 C 227.34 388.42 228.05 380.77 226.64 373.25 C 225.62 368.42 227.90 363.79 227.99 358.99 C 228.20 351.69 228.19 344.38 227.67 337.09 C 228.15 335.74 228.60 334.37 229.05 333.01 C 229.63 332.82 230.80 332.44 231.38 332.26 C 231.51 331.76 231.76 330.78 231.89 330.29 C 229.07 329.11 226.25 327.90 223.60 326.37 C 216.64 322.25 208.79 319.68 202.39 314.60 C 197.60 310.82 191.41 307.41 189.95 300.98 C 187.36 290.46 185.89 279.71 184.71 268.95 C 183.77 260.26 185.08 251.57 185.51 242.89 C 185.59 239.90 186.84 237.16 188.04 234.49 C 191.71 237.29 195.29 240.21 198.98 243.00 C 205.24 247.66 210.26 253.71 215.82 259.13 C 222.41 265.96 236.17 260.50 236.24 250.96 C 236.30 247.39 236.47 243.12 233.61 240.49 C 229.89 237.04 227.37 232.61 224.25 228.67 C 218.48 221.97 213.71 214.52 208.76 207.21 C 215.46 202.95 222.82 199.83 230.39 197.48 Z" />
<path fill="#f5e5c1" opacity="1.00" d=" M 237.21 213.49 C 243.00 212.24 248.11 216.45 252.68 219.39 C 255.20 221.50 255.14 225.26 254.12 228.11 C 252.89 230.91 249.47 231.04 246.94 231.85 C 244.27 226.91 242.38 221.51 238.92 217.03 C 238.16 215.96 237.28 214.87 237.21 213.49 Z" />
<path fill="#f5e5c1" opacity="1.00" d=" M 228.26 216.33 C 229.55 214.87 232.21 215.13 233.55 216.45 C 237.81 220.12 241.37 225.29 241.65 231.06 C 241.90 233.14 240.23 234.98 238.13 234.92 C 234.25 229.52 230.91 223.71 227.44 218.05 C 227.65 217.62 228.05 216.76 228.26 216.33 Z" />
<path fill="#b5a98e" opacity="1.00" d=" M 505.13 229.46 C 507.46 229.16 509.75 228.64 512.00 227.97 L 512.00 243.13 C 499.33 243.52 486.55 243.19 474.03 245.42 C 457.76 247.02 441.40 247.06 425.12 248.40 C 425.08 260.98 426.30 273.49 426.56 286.06 C 427.48 297.60 427.53 309.18 428.41 320.73 C 435.29 320.76 442.13 320.13 448.98 319.72 C 459.72 319.70 470.40 318.54 481.13 318.36 C 491.39 317.24 501.84 318.08 512.00 316.27 L 512.00 330.11 C 492.98 330.30 474.03 331.94 455.03 332.47 C 420.64 334.50 386.19 335.39 351.82 337.79 C 351.81 339.10 351.81 340.40 351.80 341.71 C 350.39 338.79 350.98 335.01 348.47 332.58 C 345.26 328.23 339.75 327.06 334.71 326.40 C 334.31 325.46 333.92 324.53 333.52 323.61 C 347.42 321.92 361.23 319.49 375.10 317.48 C 378.56 321.72 384.03 322.97 389.28 322.34 C 390.28 324.03 390.29 327.40 393.09 326.60 C 394.95 326.75 395.09 324.10 396.16 323.06 C 394.99 322.24 393.83 321.45 392.67 320.64 C 394.75 318.72 396.70 316.65 398.54 314.49 C 400.42 312.73 402.89 311.17 403.14 308.34 C 405.96 291.88 408.65 275.38 411.41 258.89 C 412.04 256.08 411.39 252.11 407.99 251.57 C 394.99 250.49 382.00 253.02 368.99 252.43 C 362.96 252.30 356.98 253.34 350.95 253.34 C 344.22 253.42 337.47 253.37 330.78 254.22 C 330.20 253.99 329.03 253.53 328.45 253.30 C 328.33 250.79 328.19 248.29 328.07 245.78 C 335.05 245.67 342.05 246.01 349.03 245.47 C 401.06 240.13 453.10 234.80 505.13 229.46 Z" />
<path fill="#3e3e3e" opacity="1.00" d=" M 474.03 245.42 C 486.55 243.19 499.33 243.52 512.00 243.13 L 512.00 316.27 C 501.84 318.08 491.39 317.24 481.13 318.36 C 470.40 318.54 459.72 319.70 448.98 319.72 C 442.13 320.13 435.29 320.76 428.41 320.73 C 427.53 309.18 427.48 297.60 426.56 286.06 C 426.30 273.49 425.08 260.98 425.12 248.40 C 441.40 247.06 457.76 247.02 474.03 245.42 Z" />
<path fill="#f4722b" opacity="1.00" d=" M 329.40 263.82 C 333.08 265.83 336.51 268.59 338.31 272.48 C 340.43 277.33 340.78 282.73 340.60 287.96 C 345.15 288.15 349.42 291.34 350.18 295.95 C 351.64 302.61 346.71 311.72 339.02 310.54 C 332.52 309.50 329.75 302.00 330.59 296.14 C 326.39 298.52 321.68 299.88 316.83 299.70 C 319.95 294.29 323.54 289.08 325.39 283.04 C 328.08 276.95 327.82 270.19 329.40 263.82 Z" />
<path fill="#f4722b" opacity="1.00" d=" M 375.57 299.57 C 380.62 293.48 391.12 293.72 395.96 299.95 C 399.54 303.90 399.58 309.55 398.54 314.49 C 396.70 316.65 394.75 318.72 392.67 320.64 C 393.83 321.45 394.99 322.24 396.16 323.06 C 395.09 324.10 394.95 326.75 393.09 326.60 C 390.29 327.40 390.28 324.03 389.28 322.34 C 384.03 322.97 378.56 321.72 375.10 317.48 C 371.45 312.21 371.17 304.50 375.57 299.57 Z" />
<path fill="#b5a98e" opacity="1.00" d=" M 183.53 331.50 C 184.13 320.98 182.73 310.50 182.39 299.99 C 183.21 304.45 184.47 309.02 187.56 312.48 C 190.54 316.30 195.10 318.24 198.77 321.24 C 202.84 325.64 205.49 332.17 203.28 338.07 C 197.92 337.90 194.23 342.30 189.21 343.28 C 189.47 340.41 189.42 337.51 189.25 334.64 C 187.25 337.28 186.68 340.59 186.33 343.80 C 186.18 343.51 185.90 342.93 185.76 342.63 C 184.06 338.33 181.46 334.37 177.63 331.70 C 179.59 331.69 181.56 331.60 183.53 331.50 Z" />
<path fill="#f4722b" opacity="1.00" d=" M 206.12 325.29 C 207.70 325.98 209.28 326.67 210.87 327.36 C 211.11 340.94 210.91 354.52 210.89 368.10 C 211.10 373.79 206.85 380.16 210.86 385.27 C 213.74 389.69 214.01 395.51 212.63 400.49 C 211.47 404.40 206.07 405.63 203.23 402.76 C 198.18 398.70 199.46 391.64 199.66 385.97 C 199.85 383.21 202.53 382.08 204.75 381.26 C 204.85 375.47 206.27 369.79 206.16 363.99 C 206.08 351.09 206.09 338.19 206.12 325.29 Z" />
<path fill="#3e3e3e" opacity="1.00" d=" M 256.03 330.89 C 263.79 330.31 271.24 327.89 278.94 326.92 C 276.31 329.14 273.66 331.50 272.33 334.78 C 275.30 339.35 277.39 344.87 282.46 347.62 C 282.81 350.64 282.48 354.08 284.48 356.62 C 285.86 358.61 288.51 358.65 290.60 359.36 C 290.09 375.22 290.47 391.09 290.33 406.95 C 290.26 414.00 288.76 420.94 288.67 427.98 C 288.60 434.67 288.46 441.40 289.53 448.04 C 290.43 453.63 290.34 459.31 290.37 464.96 C 290.30 469.75 292.42 474.23 292.33 479.02 C 292.30 490.02 292.18 501.01 292.21 512.00 L 234.64 512.00 C 234.58 495.02 234.63 478.03 234.61 461.05 C 234.90 451.35 233.78 441.53 235.73 431.94 C 236.81 425.98 235.86 419.87 236.97 413.92 C 237.95 408.34 237.54 402.67 237.60 397.04 C 237.50 388.61 237.86 380.17 237.31 371.76 C 236.88 366.49 238.68 361.42 239.87 356.38 C 243.37 357.73 247.07 359.50 250.92 358.56 C 253.77 358.08 255.65 355.71 257.37 353.61 C 257.61 354.99 257.82 356.39 258.21 357.75 C 259.43 361.47 264.24 363.17 264.32 367.38 C 265.00 377.01 265.28 386.77 263.37 396.30 C 261.50 397.32 258.93 397.83 258.07 400.03 C 256.59 404.04 257.65 408.38 258.49 412.41 C 252.85 411.25 246.58 412.28 242.21 416.22 C 233.56 423.70 234.46 438.74 243.05 445.94 C 245.96 448.02 246.41 451.83 248.57 454.45 C 252.03 457.31 254.03 451.86 257.02 450.87 C 260.86 449.58 264.75 448.20 267.78 445.37 C 267.73 455.13 267.15 465.24 270.32 474.63 C 272.47 462.56 270.13 450.18 272.50 438.12 C 273.78 432.62 273.09 427.00 272.75 421.44 C 275.67 421.35 278.59 421.28 281.52 421.23 C 281.93 419.11 282.35 417.01 282.77 414.90 C 281.07 414.45 279.36 413.52 277.57 413.76 C 275.36 415.33 274.32 418.04 272.72 420.16 C 272.72 411.78 273.16 403.40 273.59 395.04 C 274.69 385.38 274.51 375.65 275.17 365.97 C 275.23 361.16 279.76 357.02 277.71 352.11 C 276.72 348.29 273.18 346.13 269.87 344.51 C 269.74 342.03 269.66 339.56 269.58 337.09 C 267.26 337.17 264.95 337.25 262.63 337.33 C 262.65 340.45 262.70 343.59 262.30 346.69 C 262.20 343.27 262.40 339.86 262.50 336.45 C 257.00 336.20 251.48 337.68 246.01 336.89 C 243.64 336.39 242.92 334.01 243.74 331.92 C 247.74 330.86 251.96 331.53 256.03 330.89 Z" />
<path fill="#f4722b" opacity="1.00" d=" M 157.38 333.20 C 160.76 331.64 164.21 329.91 168.01 329.81 C 171.31 329.80 174.48 330.84 177.63 331.70 C 181.46 334.37 184.06 338.33 185.76 342.63 C 185.68 348.42 185.47 354.84 181.42 359.42 C 176.56 365.67 167.19 367.60 160.24 363.84 C 153.36 360.52 149.78 352.61 150.57 345.18 C 151.64 340.61 154.20 336.59 157.38 333.20 Z" />
<path fill="#3e3e3e" opacity="1.00" d=" M 455.03 332.47 C 474.03 331.94 492.98 330.30 512.00 330.11 L 512.00 512.00 L 432.56 512.00 C 431.49 506.44 430.39 500.87 428.47 495.54 C 440.62 493.54 452.79 491.60 465.05 490.41 C 476.33 488.82 487.62 487.17 499.00 486.36 C 488.00 486.71 477.03 488.36 466.01 487.69 C 456.13 486.94 446.31 488.76 436.43 488.58 C 436.31 480.50 435.89 472.40 434.42 464.44 C 432.94 456.41 433.99 448.22 433.29 440.13 C 432.51 432.49 433.77 424.84 433.19 417.19 L 435.56 417.22 C 435.46 418.76 435.35 420.30 435.25 421.85 C 439.09 417.23 444.94 415.53 450.36 413.53 C 438.18 412.40 426.03 411.04 413.88 409.69 C 404.73 408.79 395.60 407.28 386.37 407.63 C 382.04 398.86 378.79 389.57 373.92 381.06 C 371.09 376.01 368.88 370.66 366.12 365.58 C 367.52 366.05 368.92 366.52 370.33 367.00 C 371.70 369.65 372.83 373.03 375.99 374.02 C 381.13 376.19 387.55 371.57 386.75 365.95 C 387.00 361.70 383.14 359.25 379.58 358.14 C 378.40 355.10 377.06 351.57 373.64 350.46 C 368.24 348.10 361.82 352.77 362.20 358.63 C 359.22 352.72 356.35 346.61 351.80 341.71 C 351.81 340.40 351.81 339.10 351.82 337.79 C 386.19 335.39 420.64 334.50 455.03 332.47 Z" />
<path fill="#b5a98e" opacity="1.00" d=" M 218.18 343.68 C 218.55 339.72 216.15 333.88 220.67 331.67 C 219.71 335.73 220.72 339.81 221.03 343.88 C 220.32 343.83 218.89 343.73 218.18 343.68 Z" />
<path fill="#b5a98e" opacity="1.00" d=" M 139.98 333.86 C 145.76 333.28 151.58 333.43 157.38 333.20 C 154.20 336.59 151.64 340.61 150.57 345.18 C 148.03 345.25 145.49 345.25 142.96 345.35 C 138.20 345.37 133.75 347.51 128.97 347.37 C 121.95 347.28 114.96 347.99 107.95 348.34 C 97.57 348.45 87.20 349.23 76.85 349.83 C 73.72 351.71 74.39 355.95 74.43 359.04 C 76.00 377.00 78.15 394.91 79.66 412.87 C 79.93 415.91 81.11 418.75 82.51 421.43 C 85.66 420.95 88.84 420.63 92.03 420.58 C 123.09 419.13 154.14 417.42 185.22 416.27 C 185.21 419.69 185.28 423.12 185.26 426.54 C 173.88 427.76 162.41 427.29 151.02 428.37 C 121.00 429.46 91.03 431.52 61.01 432.75 C 50.73 433.72 40.38 433.25 30.10 434.29 C 20.06 434.33 10.00 436.43 0.00 434.74 L 0.00 425.95 C 8.88 424.16 17.98 424.71 26.96 423.80 C 39.61 423.36 52.23 422.17 64.90 422.37 C 66.47 420.19 67.76 417.74 67.71 414.98 C 68.59 396.32 68.50 377.64 68.84 358.98 C 68.82 355.33 69.05 351.65 68.49 348.03 C 68.23 346.01 66.12 344.19 64.04 344.87 C 54.87 347.24 45.33 345.94 36.00 347.13 C 23.99 347.45 12.00 348.15 0.00 348.78 L 0.00 347.50 C 9.40 347.20 18.64 345.29 27.97 344.25 C 41.00 342.36 54.14 341.41 67.19 339.71 C 73.72 338.33 80.37 337.52 87.05 337.48 C 93.45 337.47 99.62 335.32 106.02 335.40 C 110.26 335.37 114.51 335.28 118.73 334.85 C 125.80 334.18 132.92 334.58 139.98 333.86 Z" />
<path fill="#f4722b" opacity="1.00" d=" M 186.33 343.80 C 186.68 340.59 187.25 337.28 189.25 334.64 C 189.42 337.51 189.47 340.41 189.21 343.28 C 188.48 351.70 187.70 360.12 187.16 368.56 C 189.01 370.03 191.65 371.32 191.85 374.00 C 192.63 376.94 190.46 379.25 188.75 381.32 C 189.66 392.77 189.43 404.28 188.73 415.74 C 188.70 419.18 188.89 422.62 188.93 426.07 C 188.75 430.15 188.40 434.40 190.15 438.24 C 190.02 440.34 189.92 442.44 189.77 444.55 C 187.60 445.57 185.20 447.42 182.69 446.29 C 179.41 444.61 179.02 440.17 180.08 437.02 C 180.63 434.68 183.28 434.21 185.09 433.22 C 185.17 430.99 185.23 428.76 185.26 426.54 C 185.28 423.12 185.21 419.69 185.22 416.27 C 185.77 404.52 186.25 392.74 185.16 381.00 C 184.28 384.39 183.52 387.81 183.16 391.30 C 182.81 391.50 182.41 391.55 182.02 391.58 C 182.95 387.08 182.66 382.48 181.91 377.99 C 180.92 373.74 183.66 369.93 184.12 365.80 C 184.97 358.48 185.72 351.15 186.33 343.80 Z" />
<path fill="#3e3e3e" opacity="1.00" d=" M 185.76 342.63 C 185.90 342.93 186.18 343.51 186.33 343.80 C 185.72 351.15 184.97 358.48 184.12 365.80 C 183.66 369.93 180.92 373.74 181.91 377.99 C 182.66 382.48 182.95 387.08 182.02 391.58 C 182.41 391.55 182.81 391.50 183.16 391.30 C 183.52 387.81 184.28 384.39 185.16 381.00 C 186.25 392.74 185.77 404.52 185.22 416.27 C 154.14 417.42 123.09 419.13 92.03 420.58 C 88.84 420.63 85.66 420.95 82.51 421.43 C 81.11 418.75 79.93 415.91 79.66 412.87 C 78.15 394.91 76.00 377.00 74.43 359.04 C 74.39 355.95 73.72 351.71 76.85 349.83 C 87.20 349.23 97.57 348.45 107.95 348.34 C 114.96 347.99 121.95 347.28 128.97 347.37 C 133.75 347.51 138.20 345.37 142.96 345.35 C 145.49 345.25 148.03 345.25 150.57 345.18 C 149.78 352.61 153.36 360.52 160.24 363.84 C 167.19 367.60 176.56 365.67 181.42 359.42 C 185.47 354.84 185.68 348.42 185.76 342.63 Z" />
<path fill="#3e3e3e" opacity="1.00" d=" M 36.00 347.13 C 45.33 345.94 54.87 347.24 64.04 344.87 C 66.12 344.19 68.23 346.01 68.49 348.03 C 69.05 351.65 68.82 355.33 68.84 358.98 C 68.50 377.64 68.59 396.32 67.71 414.98 C 67.76 417.74 66.47 420.19 64.90 422.37 C 52.23 422.17 39.61 423.36 26.96 423.80 C 17.98 424.71 8.88 424.16 0.00 425.95 L 0.00 348.78 C 12.00 348.15 23.99 347.45 36.00 347.13 Z" />
<path fill="#3e3e3e" opacity="1.00" d=" M 304.56 368.90 C 305.21 361.47 305.48 353.99 306.72 346.62 C 307.52 353.28 307.61 360.00 307.58 366.70 C 307.15 384.70 308.02 402.73 307.02 420.73 C 316.78 420.57 326.53 420.05 336.27 419.40 C 338.05 421.80 339.97 424.16 341.06 426.98 C 344.64 435.88 346.48 445.41 346.89 454.98 C 348.41 467.64 350.23 480.53 355.30 492.34 L 355.14 492.60 C 353.82 493.26 352.42 493.64 350.96 493.74 C 343.65 494.36 336.32 494.59 328.99 494.76 C 322.22 495.32 315.43 495.69 308.63 495.73 C 308.62 498.63 308.63 501.53 308.66 504.43 C 317.75 505.48 326.91 503.62 335.99 504.95 C 344.00 505.37 352.18 503.18 360.07 505.44 C 360.96 507.65 361.86 509.86 362.93 512.00 L 301.61 512.00 C 301.58 500.32 301.55 488.63 301.59 476.95 C 301.64 472.60 300.46 468.37 300.46 464.03 C 300.40 458.70 300.76 453.35 300.01 448.06 C 298.29 436.77 299.90 425.37 300.92 414.10 C 302.08 399.03 303.51 383.98 304.56 368.90 Z" />
<path fill="#3e3e3e" opacity="1.00" d=" M 311.76 351.31 C 312.76 351.33 313.77 351.36 314.79 351.39 C 312.03 358.04 313.50 366.22 319.04 371.00 C 322.09 373.77 327.11 374.15 330.22 371.26 C 333.66 368.57 333.47 363.85 333.35 359.93 C 336.94 359.79 340.48 359.10 344.06 358.73 C 347.27 361.30 349.32 364.96 351.97 368.06 C 350.42 363.96 347.85 360.33 344.10 357.97 C 345.92 356.14 347.70 354.29 349.45 352.39 C 351.51 359.86 354.83 366.86 357.61 374.07 C 356.38 373.08 355.18 372.10 353.98 371.10 C 357.67 377.52 358.47 384.99 361.07 391.83 C 362.71 396.71 365.29 401.19 367.15 405.99 C 367.39 406.61 367.88 407.86 368.12 408.49 C 361.65 408.54 355.19 408.95 348.75 409.55 C 344.89 400.60 342.09 390.88 335.65 383.33 C 333.41 380.76 331.41 377.52 328.01 376.42 C 324.01 375.93 323.28 381.09 323.40 384.04 C 324.27 391.83 327.27 399.21 330.30 406.38 C 330.05 407.38 329.79 408.38 329.54 409.39 C 323.61 409.47 317.68 409.73 311.76 409.67 C 311.53 402.44 311.60 395.20 310.91 388.00 C 310.44 382.66 310.34 377.29 310.94 371.96 C 311.50 365.09 311.45 358.19 311.76 351.31 Z" />
<path fill="#b5a98e" opacity="1.00" d=" M 307.58 366.70 C 307.83 370.38 308.46 374.04 309.24 377.65 C 309.86 375.77 310.47 373.88 310.94 371.96 C 310.34 377.29 310.44 382.66 310.91 388.00 C 311.60 395.20 311.53 402.44 311.76 409.67 C 317.68 409.73 323.61 409.47 329.54 409.39 C 329.79 408.38 330.05 407.38 330.30 406.38 C 330.49 406.47 330.87 406.64 331.06 406.73 C 330.79 411.56 333.62 415.65 336.27 419.40 C 326.53 420.05 316.78 420.57 307.02 420.73 C 308.02 402.73 307.15 384.70 307.58 366.70 Z" />
<path fill="#f4722b" opacity="1.00" d=" M 323.40 384.04 C 323.28 381.09 324.01 375.93 328.01 376.42 C 331.41 377.52 333.41 380.76 335.65 383.33 C 342.09 390.88 344.89 400.60 348.75 409.55 C 350.19 412.84 351.46 416.22 352.31 419.72 C 354.30 427.85 356.60 435.93 359.27 443.87 C 363.09 453.65 365.84 463.80 368.19 474.03 C 369.50 480.04 372.23 485.62 373.67 491.60 C 374.74 496.44 376.17 501.18 377.68 505.90 C 378.24 507.93 378.75 509.98 379.35 512.00 L 362.93 512.00 C 361.86 509.86 360.96 507.65 360.07 505.44 C 358.27 501.15 356.93 496.69 355.30 492.34 C 350.23 480.53 348.41 467.64 346.89 454.98 C 346.48 445.41 344.64 435.88 341.06 426.98 C 339.97 424.16 338.05 421.80 336.27 419.40 C 333.62 415.65 330.79 411.56 331.06 406.73 C 330.87 406.64 330.49 406.47 330.30 406.38 C 327.27 399.21 324.27 391.83 323.40 384.04 Z" />
<path fill="#f4722b" opacity="1.00" d=" M 161.39 396.52 C 165.58 395.10 170.42 397.57 171.63 401.82 C 173.57 406.32 169.91 412.13 165.02 412.32 C 159.43 412.22 154.86 405.49 157.39 400.34 C 158.21 398.67 159.56 397.09 161.39 396.52 Z" />
<path fill="#b5a98e" opacity="1.00" d=" M 367.15 405.99 C 368.89 410.45 370.81 414.84 372.57 419.30 C 365.81 419.18 359.06 419.50 352.31 419.72 C 351.46 416.22 350.19 412.84 348.75 409.55 C 355.19 408.95 361.65 408.54 368.12 408.49 C 367.88 407.86 367.39 406.61 367.15 405.99 Z" />
<path fill="#b5a98e" opacity="1.00" d=" M 386.37 407.63 C 395.60 407.28 404.73 408.79 413.88 409.69 C 426.03 411.04 438.18 412.40 450.36 413.53 C 444.94 415.53 439.09 417.23 435.25 421.85 C 435.35 420.30 435.46 418.76 435.56 417.22 L 433.19 417.19 C 433.77 424.84 432.51 432.49 433.29 440.13 C 433.99 448.22 432.94 456.41 434.42 464.44 C 435.89 472.40 436.31 480.50 436.43 488.58 C 446.31 488.76 456.13 486.94 466.01 487.69 C 477.03 488.36 488.00 486.71 499.00 486.36 C 487.62 487.17 476.33 488.82 465.05 490.41 C 452.79 491.60 440.62 493.54 428.47 495.54 C 427.82 493.64 427.17 491.75 426.46 489.89 C 427.01 488.23 427.77 486.59 427.77 484.82 C 427.82 474.53 426.48 464.30 426.48 454.02 C 425.48 441.90 425.65 429.72 424.34 417.62 C 420.91 417.59 417.48 417.62 414.07 417.95 C 406.96 418.65 399.78 418.33 392.70 419.38 L 393.47 420.83 C 390.96 416.50 388.38 412.21 386.37 407.63 Z" />
<path fill="#f4722b" opacity="1.00" d=" M 204.61 410.98 C 205.27 408.86 207.72 409.50 209.39 409.11 C 209.67 411.34 209.95 413.56 210.25 415.79 C 210.59 418.33 210.78 420.89 210.81 423.46 C 210.49 431.70 210.81 439.95 210.12 448.18 C 209.11 457.97 212.18 467.91 209.81 477.61 C 209.23 479.87 206.53 480.09 204.76 480.98 C 203.01 476.74 203.39 472.08 202.75 467.63 C 202.79 453.14 204.27 438.71 204.96 424.25 C 205.24 421.30 205.49 418.34 205.37 415.38 C 205.15 413.90 204.78 412.45 204.61 410.98 Z" />
<path fill="#b5a98e" opacity="1.00" d=" M 277.57 413.76 C 279.36 413.52 281.07 414.45 282.77 414.90 C 282.35 417.01 281.93 419.11 281.52 421.23 C 278.59 421.28 275.67 421.35 272.75 421.44 C 272.74 421.12 272.73 420.48 272.72 420.16 C 274.32 418.04 275.36 415.33 277.57 413.76 Z" />
<path fill="#b5a98e" opacity="1.00" d=" M 188.73 415.74 C 194.28 415.62 199.82 415.41 205.37 415.38 C 205.49 418.34 205.24 421.30 204.96 424.25 C 202.34 424.73 199.76 425.31 197.20 426.03 C 197.26 429.96 197.36 433.90 197.55 437.83 C 193.97 438.30 191.52 440.79 190.11 443.98 C 191.19 445.49 192.05 447.24 193.52 448.44 C 195.53 448.97 197.65 448.53 199.70 448.50 C 200.82 454.86 201.28 461.33 202.75 467.63 C 203.39 472.08 203.01 476.74 204.76 480.98 C 203.63 485.38 202.51 489.79 201.51 494.23 C 203.15 496.59 204.42 499.29 206.57 501.25 C 208.59 501.80 210.71 501.60 212.79 501.66 C 211.81 497.81 210.55 494.00 210.31 490.01 C 210.08 485.42 208.80 480.58 210.97 476.25 C 212.84 481.42 213.36 486.93 213.97 492.36 C 219.13 497.60 217.36 505.39 217.32 512.00 L 199.36 512.00 C 196.96 500.48 195.56 488.73 192.34 477.39 C 191.07 472.58 188.06 468.15 188.36 463.02 C 188.50 456.84 189.25 450.70 189.77 444.55 C 189.92 442.44 190.02 440.34 190.15 438.24 C 189.90 434.17 192.83 429.13 188.93 426.07 C 188.89 422.62 188.70 419.18 188.73 415.74 Z" />
<path fill="#b5a98e" opacity="1.00" d=" M 210.25 415.79 C 213.10 415.74 215.96 415.70 218.81 415.66 C 218.77 417.97 218.74 420.28 218.71 422.60 C 216.08 422.88 213.45 423.18 210.81 423.46 C 210.78 420.89 210.59 418.33 210.25 415.79 Z" />
<path fill="#3e3e3e" opacity="1.00" d=" M 414.07 417.95 C 417.48 417.62 420.91 417.59 424.34 417.62 C 425.65 429.72 425.48 441.90 426.48 454.02 C 426.48 464.30 427.82 474.53 427.77 484.82 C 427.77 486.59 427.01 488.23 426.46 489.89 C 423.16 482.47 420.31 474.83 416.53 467.64 C 408.27 452.31 401.36 436.32 393.47 420.83 L 392.70 419.38 C 399.78 418.33 406.96 418.65 414.07 417.95 Z" />
<path fill="#3e3e3e" opacity="1.00" d=" M 352.31 419.72 C 359.06 419.50 365.81 419.18 372.57 419.30 C 374.73 426.12 378.90 432.02 381.61 438.60 C 384.36 444.79 388.26 450.72 393.82 454.73 C 391.76 449.21 388.09 444.46 386.21 438.86 C 384.67 434.46 382.82 430.18 381.13 425.84 C 384.18 431.21 386.67 436.88 389.44 442.39 C 396.96 457.92 405.26 473.04 413.52 488.17 L 414.26 489.52 C 400.74 490.31 387.20 490.88 373.67 491.60 C 372.23 485.62 369.50 480.04 368.19 474.03 C 365.84 463.80 363.09 453.65 359.27 443.87 C 356.60 435.93 354.30 427.85 352.31 419.72 Z" />
<path fill="#3e3e3e" opacity="1.00" d=" M 197.20 426.03 C 199.76 425.31 202.34 424.73 204.96 424.25 C 204.27 438.71 202.79 453.14 202.75 467.63 C 201.28 461.33 200.82 454.86 199.70 448.50 C 200.41 446.36 201.80 444.21 201.27 441.89 C 200.42 440.22 198.85 439.10 197.55 437.83 C 197.36 433.90 197.26 429.96 197.20 426.03 Z" />
<path fill="#3e3e3e" opacity="1.00" d=" M 151.02 428.37 C 162.41 427.29 173.88 427.76 185.26 426.54 C 185.23 428.76 185.17 430.99 185.09 433.22 C 183.28 434.21 180.63 434.68 180.08 437.02 C 179.02 440.17 179.41 444.61 182.69 446.29 C 185.20 447.42 187.60 445.57 189.77 444.55 C 189.25 450.70 188.50 456.84 188.36 463.02 C 188.06 468.15 191.07 472.58 192.34 477.39 C 195.56 488.73 196.96 500.48 199.36 512.00 L 0.00 512.00 L 0.00 434.74 C 10.00 436.43 20.06 434.33 30.10 434.29 C 40.38 433.25 50.73 433.72 61.01 432.75 C 91.03 431.52 121.00 429.46 151.02 428.37 Z" />
<path fill="#3e3e3e" opacity="1.00" d=" M 188.93 426.07 C 192.83 429.13 189.90 434.17 190.15 438.24 C 188.40 434.40 188.75 430.15 188.93 426.07 Z" />
<path fill="#f4722b" opacity="1.00" d=" M 190.11 443.98 C 191.52 440.79 193.97 438.30 197.55 437.83 C 198.85 439.10 200.42 440.22 201.27 441.89 C 201.80 444.21 200.41 446.36 199.70 448.50 C 197.65 448.53 195.53 448.97 193.52 448.44 C 192.05 447.24 191.19 445.49 190.11 443.98 Z" />
<path fill="#b5a98e" opacity="1.00" d=" M 413.52 488.17 C 415.21 491.05 417.16 493.77 418.80 496.68 C 404.81 498.44 391.25 502.40 377.34 504.69 L 377.68 505.90 C 376.17 501.18 374.74 496.44 373.67 491.60 C 387.20 490.88 400.74 490.31 414.26 489.52 L 413.52 488.17 Z" />
<path fill="#b5a98e" opacity="1.00" d=" M 355.30 492.34 C 356.93 496.69 358.27 501.15 360.07 505.44 C 352.18 503.18 344.00 505.37 335.99 504.95 C 326.91 503.62 317.75 505.48 308.66 504.43 C 308.63 501.53 308.62 498.63 308.63 495.73 C 315.43 495.69 322.22 495.32 328.99 494.76 C 336.32 494.59 343.65 494.36 350.96 493.74 C 352.42 493.64 353.82 493.26 355.14 492.60 L 355.30 492.34 Z" />
<path fill="#b5a98e" opacity="1.00" d=" M 270.02 498.98 C 274.84 497.31 279.93 497.25 284.97 497.24 C 284.93 499.62 284.88 501.99 284.79 504.38 C 276.86 504.20 268.92 505.50 261.03 504.35 C 254.67 504.36 248.31 504.80 241.94 504.77 C 242.01 503.28 242.08 501.81 242.15 500.34 C 251.40 499.15 260.77 499.95 270.02 498.98 Z" />
<path fill="#3e3e3e" opacity="1.00" d=" M 377.34 504.69 C 391.25 502.40 404.81 498.44 418.80 496.68 C 421.67 501.70 423.92 507.04 426.90 512.00 L 379.35 512.00 C 378.75 509.98 378.24 507.93 377.68 505.90 L 377.34 504.69 Z" />
</svg>
