<?xml version="1.0" encoding="UTF-8" ?>
<!DOCTYPE svg PUBLIC "-//W3C//DTD SVG 1.1//EN" "http://www.w3.org/Graphics/SVG/1.1/DTD/svg11.dtd">
<svg width="512pt" height="512pt" viewBox="0 0 512 512" version="1.1" xmlns="http://www.w3.org/2000/svg">
<path fill="#3e3e3e" opacity="1.00" d=" M 0.00 0.00 L 512.00 0.00 L 512.00 512.00 L 0.00 512.00 L 0.00 0.00 Z" />
<path fill="#d3c6a8" opacity="1.00" d=" M 228.93 36.98 C 234.95 34.93 241.00 32.94 247.04 30.92 C 247.73 34.92 248.40 38.92 249.05 42.93 C 253.70 41.59 258.35 40.26 263.01 38.94 C 262.79 46.30 262.47 53.65 262.00 61.00 C 258.67 61.00 255.35 61.00 252.03 61.00 C 252.43 64.67 252.78 68.36 253.04 72.04 C 247.02 73.09 240.99 74.07 234.97 75.08 C 233.95 71.08 232.94 67.08 231.95 63.08 C 228.95 63.75 225.97 64.42 222.98 65.08 C 222.24 59.72 221.59 54.34 220.94 48.97 C 224.59 47.95 228.24 46.95 231.90 45.96 C 230.91 42.96 229.91 39.97 228.93 36.98 Z" />
<path fill="#f5e5c1" opacity="1.00" d=" M 44.15 65.04 C 44.23 54.68 44.10 44.31 44.38 33.95 C 51.56 39.35 59.11 44.25 66.75 48.98 C 65.72 54.36 64.41 59.69 63.70 65.14 C 65.60 60.35 67.60 55.62 69.61 50.88 C 71.26 51.72 73.00 52.40 74.60 53.35 C 82.01 58.09 90.00 62.06 96.61 67.96 C 96.37 78.00 95.56 88.02 95.29 98.06 C 95.13 103.34 94.80 108.67 93.15 113.73 C 76.65 99.53 59.76 85.77 43.19 71.66 C 43.66 69.48 44.12 67.28 44.15 65.04 Z" />
<path fill="#d3c6a8" opacity="1.00" d=" M 353.93 53.73 C 355.85 50.74 358.36 48.22 360.95 45.81 C 363.32 48.11 366.04 49.98 368.87 51.69 C 369.10 52.08 369.58 52.87 369.82 53.26 C 371.73 51.21 373.67 49.17 375.63 47.15 C 380.27 51.42 385.26 55.29 389.82 59.65 C 388.70 62.73 387.62 65.83 386.55 68.93 C 390.44 70.80 394.35 72.61 398.26 74.42 C 396.12 78.62 393.67 82.66 391.37 86.78 C 386.99 85.16 382.60 83.60 378.28 81.84 C 376.11 84.93 373.89 87.98 371.59 90.96 C 363.81 84.78 355.60 79.14 347.84 72.93 C 351.33 71.28 354.65 69.30 357.92 67.25 C 355.19 65.48 352.48 63.69 349.82 61.81 C 351.61 59.35 353.71 56.91 353.93 53.73 Z" />
<path fill="#f5e5c1" opacity="1.00" d=" M 33.03 46.53 C 35.55 48.37 38.80 49.56 40.74 52.01 C 40.81 58.70 40.40 65.41 40.02 72.10 C 37.49 63.63 35.30 55.07 33.03 46.53 Z" />
<path fill="#f5e5c1" opacity="1.00" d=" M 38.10 78.84 C 39.64 76.52 41.11 74.15 42.71 71.86 C 60.09 88.56 77.87 104.84 95.34 121.45 C 95.87 118.66 96.36 115.88 96.76 113.07 C 124.30 137.16 151.95 161.13 179.62 185.08 C 177.86 189.04 176.29 193.08 174.58 197.06 C 171.65 194.79 168.76 192.47 166.05 189.94 C 123.38 152.92 80.81 115.80 38.10 78.84 Z" />
<path fill="#f5e5c1" opacity="1.00" d=" M 13.33 91.04 C 14.37 86.79 15.49 82.56 16.54 78.32 C 21.29 79.40 26.12 80.09 30.88 81.12 C 33.64 81.54 35.64 83.59 37.74 85.24 C 53.77 98.24 69.99 111.01 85.99 124.05 C 73.62 124.34 61.29 122.48 48.92 122.22 C 46.28 121.99 43.07 122.27 41.20 120.00 C 37.20 115.92 33.47 111.59 29.46 107.52 C 24.00 102.11 19.37 95.87 13.33 91.04 Z" />
<path fill="#a69d88" opacity="1.00" d=" M 157.81 83.26 C 159.55 85.99 160.73 89.03 161.99 92.00 C 164.00 90.68 166.00 89.34 168.01 88.02 C 170.68 91.00 173.34 93.99 175.97 97.01 C 173.32 98.68 170.66 100.35 168.01 102.01 C 170.01 105.67 172.00 109.34 173.99 113.00 C 170.00 115.35 166.01 117.68 162.01 120.00 C 160.34 116.33 158.66 112.68 156.99 109.02 C 154.00 111.01 151.00 113.00 148.01 115.00 C 145.66 111.68 143.33 108.34 141.00 105.01 C 144.00 103.34 147.00 101.67 149.99 100.00 C 148.87 97.76 147.75 95.52 146.63 93.28 C 150.45 90.05 153.95 86.45 157.81 83.26 Z" />
<path fill="#a69d88" opacity="1.00" d=" M 278.00 88.02 C 281.33 89.34 284.67 90.66 288.00 92.00 C 287.00 94.34 286.00 96.67 285.01 99.00 C 288.67 100.34 292.33 101.68 296.00 103.01 C 294.68 106.01 293.34 109.01 291.99 112.00 C 288.29 110.66 284.58 109.32 280.89 107.95 C 278.99 111.16 277.34 114.51 276.00 117.99 C 272.37 116.39 268.78 114.72 265.19 113.05 C 266.82 110.72 268.42 108.38 270.01 106.02 C 268.34 104.35 266.67 102.68 265.01 101.00 C 266.33 98.34 267.67 95.67 269.00 93.01 C 271.00 94.34 273.00 95.67 275.00 97.00 C 276.00 94.00 277.00 91.01 278.00 88.02 Z" />
<path fill="#f5e5c1" opacity="1.00" d=" M 139.73 143.38 C 165.18 136.69 190.57 129.79 215.99 123.01 C 220.35 143.67 224.65 164.35 229.01 185.01 C 249.00 181.99 269.00 179.02 289.00 176.00 C 292.97 192.78 296.90 209.58 300.91 226.36 C 295.95 226.84 291.11 228.07 286.18 228.74 C 283.06 217.16 280.14 205.52 277.05 193.93 C 253.97 196.81 230.91 199.81 207.83 202.66 C 207.36 202.17 206.44 201.17 205.98 200.68 C 205.34 181.09 204.85 161.50 203.99 141.92 C 187.00 146.42 170.06 151.09 153.05 155.47 C 148.74 151.29 143.81 147.80 139.73 143.38 Z" />
<path fill="#a69d88" opacity="1.00" d=" M 408.01 128.00 C 411.00 128.67 413.99 129.34 416.99 130.01 C 416.66 131.67 416.34 133.33 416.01 134.99 C 418.67 135.33 421.33 135.68 424.00 136.02 C 423.66 139.01 423.33 142.00 423.00 144.99 C 420.67 144.34 418.34 143.68 416.01 143.02 C 415.33 146.02 414.66 149.01 413.98 152.00 C 411.65 151.00 409.32 149.99 407.00 148.99 C 407.33 147.33 407.67 145.66 408.01 144.00 C 405.34 144.34 402.66 144.67 399.99 145.01 C 400.32 142.68 400.66 140.35 401.00 138.03 C 403.33 137.34 405.66 136.67 407.99 135.99 C 408.00 133.32 408.00 130.66 408.01 128.00 Z" />
<path fill="#f5e5c1" opacity="1.00" d=" M 239.00 128.99 C 282.67 133.37 326.34 137.65 370.01 142.02 C 368.86 167.49 367.73 192.96 366.61 218.43 C 364.19 218.90 361.77 219.40 359.36 219.87 C 360.51 196.59 361.79 173.30 363.01 150.02 C 325.01 146.31 287.00 142.71 249.01 138.99 C 247.84 150.80 246.72 162.61 245.52 174.41 C 243.03 174.69 240.54 174.96 238.05 175.24 C 238.38 159.82 238.68 144.41 239.00 128.99 Z" />
<path fill="#f5e5c1" opacity="1.00" d=" M 253.01 142.00 C 287.00 147.35 321.01 152.66 355.00 158.01 C 354.24 179.01 353.83 200.01 352.86 221.00 C 339.43 223.37 325.96 226.34 312.24 225.45 C 306.53 206.62 300.72 187.82 295.01 168.99 C 280.73 170.58 266.46 172.12 252.18 173.69 C 252.43 163.13 252.72 152.56 253.01 142.00 Z" />
<path fill="#f5e5c1" opacity="1.00" d=" M 96.31 156.21 C 102.03 154.79 107.14 151.57 113.00 150.61 C 117.52 154.62 122.27 158.36 126.57 162.61 C 118.69 164.75 110.79 166.81 102.91 168.96 C 106.49 188.30 110.15 207.62 113.70 226.96 C 99.12 229.66 84.51 232.24 69.93 234.96 C 74.57 275.67 79.23 316.39 83.96 357.09 C 102.32 353.44 120.67 349.77 139.02 346.08 C 138.49 364.41 138.17 382.75 138.01 401.09 C 169.45 396.32 200.92 391.70 232.35 386.84 C 234.93 392.24 236.71 397.98 237.96 403.83 C 201.65 406.96 165.32 409.92 129.00 413.02 C 127.00 396.01 125.00 379.00 123.00 362.00 C 107.00 364.35 91.00 366.66 75.01 369.01 C 67.33 321.34 59.67 273.67 52.00 226.01 C 66.00 222.00 80.00 218.01 94.00 214.00 C 91.67 195.67 89.33 177.34 87.00 159.01 C 90.10 158.07 93.20 157.10 96.31 156.21 Z" />
<path fill="#f4722b" opacity="1.00" d=" M 162.36 163.34 C 173.03 160.25 183.84 157.71 194.49 154.57 C 194.80 167.48 195.15 180.40 195.80 193.31 C 194.24 190.78 191.93 188.94 189.33 187.58 C 187.81 185.83 186.40 183.96 184.63 182.45 C 177.10 176.21 169.67 169.84 162.36 163.34 Z" />
<path fill="#f4722b" opacity="1.00" d=" M 114.35 176.07 C 121.55 174.24 128.68 172.19 135.89 170.41 C 145.62 178.90 155.27 187.48 165.12 195.83 C 168.12 198.25 170.58 201.65 174.58 202.47 C 175.71 205.65 178.21 207.90 181.53 208.58 C 183.21 212.36 186.85 214.51 189.77 217.22 C 193.43 220.59 197.49 223.56 200.64 227.45 C 212.40 239.53 224.30 251.46 236.07 263.53 C 234.12 264.33 231.86 264.78 230.44 266.47 C 227.22 269.74 227.65 275.93 231.57 278.48 C 233.32 280.05 235.77 279.37 237.89 279.46 C 241.11 278.91 242.83 282.95 246.06 282.59 C 249.81 283.06 252.29 279.96 254.06 277.15 C 255.39 276.29 256.72 275.44 258.06 274.60 C 262.53 275.37 266.87 274.09 270.13 270.95 C 272.06 273.09 273.91 275.68 276.93 276.27 C 280.90 277.35 284.54 274.93 287.64 272.76 C 287.71 273.54 287.85 275.08 287.92 275.85 C 283.52 280.37 276.07 283.67 276.31 291.00 C 275.91 299.05 283.67 304.66 291.05 305.29 C 276.37 306.68 261.80 308.99 247.14 310.53 C 245.61 308.64 244.08 306.75 242.55 304.88 C 244.62 302.31 246.89 299.49 246.73 295.99 C 247.01 292.63 245.33 289.28 242.53 287.43 C 239.59 285.42 236.75 283.20 233.55 281.59 C 227.94 279.13 220.74 282.94 219.45 288.89 C 218.10 294.47 221.11 300.19 225.44 303.58 C 228.60 306.05 232.70 306.58 236.52 307.31 C 237.60 308.69 238.68 310.09 239.77 311.48 C 236.52 312.06 232.96 312.23 230.24 314.30 C 226.93 316.77 225.58 321.36 226.73 325.28 C 230.86 342.12 234.86 359.00 239.03 375.83 C 235.90 376.26 232.78 376.73 229.68 377.27 C 229.78 375.28 230.33 373.25 229.79 371.29 C 228.97 367.33 225.53 364.80 223.64 361.40 C 220.25 354.98 215.73 349.18 213.14 342.34 C 214.72 338.80 216.20 334.94 215.40 331.00 C 215.44 328.72 213.64 325.90 211.05 326.71 C 206.67 327.56 201.21 327.30 198.40 331.43 C 195.44 334.91 196.40 340.42 199.90 343.16 C 202.29 345.61 205.89 345.37 209.03 345.38 C 212.88 352.04 216.98 358.56 220.72 365.27 C 223.78 368.92 226.43 372.88 227.83 377.47 C 201.30 381.52 174.73 385.41 148.20 389.51 C 148.47 376.67 148.64 363.83 148.95 350.99 C 148.98 347.56 148.92 343.90 147.12 340.87 C 144.90 337.17 140.08 335.60 135.99 336.58 C 121.54 339.55 107.05 342.31 92.61 345.34 C 88.83 311.23 84.79 277.14 80.93 243.04 C 92.28 240.89 103.67 239.00 115.00 236.77 C 120.69 236.04 124.53 229.91 123.36 224.44 C 120.35 208.32 117.29 192.20 114.35 176.07 Z" />
<path fill="#d3c6a8" opacity="1.00" d=" M 180.10 193.95 C 181.07 191.77 181.42 188.46 184.22 187.93 C 183.29 190.22 181.80 192.19 180.10 193.95 Z" />
<path fill="#f5e5c1" opacity="1.00" d=" M 179.85 201.92 C 182.94 199.20 185.79 196.22 188.05 192.77 C 188.66 193.14 189.88 193.89 190.50 194.26 C 188.33 197.98 185.07 200.81 181.89 203.64 C 181.38 203.21 180.36 202.35 179.85 201.92 Z" />
<path fill="#f5e5c1" opacity="1.00" d=" M 190.32 211.03 C 193.04 207.85 195.40 204.40 197.85 201.02 C 203.92 206.32 210.13 211.45 216.03 216.94 C 227.96 229.17 239.66 241.63 251.56 253.90 C 250.73 254.52 249.91 255.15 249.09 255.78 C 245.31 255.38 241.59 256.36 238.74 258.91 C 226.72 246.73 214.70 234.54 202.80 222.25 C 198.88 218.25 194.53 214.72 190.32 211.03 Z" />
<path fill="#f5e5c1" opacity="1.00" d=" M 187.08 207.72 C 187.62 205.52 190.17 205.19 191.80 204.16 C 190.88 206.13 189.85 208.04 188.69 209.88 C 188.29 209.34 187.48 208.26 187.08 207.72 Z" />
<path fill="#f4722b" opacity="1.00" d=" M 217.64 211.51 C 235.02 209.39 252.37 207.08 269.75 204.95 C 271.69 212.45 273.63 219.94 275.64 227.42 C 271.34 227.98 267.02 229.68 265.16 233.90 C 259.52 231.08 252.75 229.43 246.66 231.74 C 243.73 233.03 243.22 236.53 244.28 239.27 C 235.58 229.85 226.86 220.43 217.64 211.51 Z" />
<path fill="#f5e5c1" opacity="1.00" d=" M 359.14 223.52 C 361.57 223.07 364.00 222.59 366.44 222.13 C 366.37 223.56 366.31 225.00 366.24 226.43 C 363.82 226.43 361.40 226.43 358.98 226.44 C 359.03 225.46 359.08 224.49 359.14 223.52 Z" />
<path fill="#f5e5c1" opacity="1.00" d=" M 312.91 227.59 C 326.31 227.91 339.76 226.93 352.93 224.35 C 352.83 225.40 352.72 226.45 352.63 227.50 C 348.84 226.79 344.96 226.07 341.12 226.79 C 332.10 228.20 323.14 229.97 314.17 231.69 C 313.74 230.32 313.33 228.96 312.91 227.59 Z" />
<path fill="#f5e5c1" opacity="1.00" d=" M 286.64 230.73 C 291.55 229.99 296.45 229.12 301.38 228.42 C 301.74 230.02 302.11 231.62 302.47 233.23 C 300.98 233.42 299.49 233.62 298.00 233.82 C 295.78 234.30 293.57 234.78 291.36 235.27 C 295.25 235.56 299.15 235.67 303.05 235.61 C 307.22 253.41 311.62 271.17 315.56 289.02 C 314.12 291.40 312.78 294.22 313.94 297.03 C 314.84 300.25 318.84 301.42 319.41 304.80 C 320.68 309.84 321.76 314.94 323.00 320.00 C 303.11 323.15 283.20 326.16 263.33 329.37 C 261.58 326.01 259.89 322.61 258.14 319.25 C 274.81 317.30 291.46 315.17 308.11 313.03 C 307.11 309.01 305.74 305.05 305.24 300.93 C 307.21 298.33 310.60 297.13 312.20 294.21 C 314.70 290.00 313.61 284.24 310.18 280.86 C 306.96 277.59 302.44 276.20 298.21 274.80 C 294.22 260.15 290.55 245.41 286.64 230.73 Z" />
<path fill="#f5e5c1" opacity="1.00" d=" M 357.99 244.97 C 358.29 239.52 358.57 234.07 358.88 228.62 C 361.30 228.62 363.72 228.62 366.15 228.63 C 366.11 229.47 366.04 231.15 366.00 231.99 C 395.00 234.37 424.00 236.65 453.00 239.02 C 452.22 254.84 451.44 270.67 450.66 286.49 C 448.45 286.49 446.25 286.49 444.06 286.50 C 445.03 274.01 446.01 261.52 447.01 249.04 C 417.34 247.61 387.66 246.40 357.99 244.97 Z" />
<path fill="#f5e5c1" opacity="1.00" d=" M 315.23 235.19 C 327.89 234.52 340.13 231.04 352.68 229.59 C 352.51 237.05 352.23 244.51 351.99 251.98 C 380.00 253.07 408.01 253.95 436.01 255.04 C 435.89 265.26 435.84 275.48 435.73 285.71 C 428.58 284.40 421.30 284.07 414.08 283.33 C 414.02 280.81 413.15 277.26 409.98 277.35 C 406.88 276.62 405.43 279.75 404.30 281.98 C 405.39 284.15 406.57 286.98 409.35 287.29 C 418.12 288.08 426.91 288.74 435.66 289.87 C 435.78 299.35 435.30 308.84 435.57 318.31 C 435.19 316.55 434.82 314.79 434.44 313.03 C 433.23 313.95 432.02 314.86 430.80 315.77 C 422.96 312.76 415.11 309.75 407.41 306.41 C 406.52 301.20 402.24 297.43 397.60 295.44 C 391.82 295.08 385.91 296.51 380.21 295.57 C 361.84 288.46 344.84 278.28 326.38 271.35 C 322.50 259.35 318.98 247.24 315.23 235.19 Z" />
<path fill="#f4722b" opacity="1.00" d=" M 265.39 244.00 C 270.06 243.21 274.79 242.74 279.52 242.48 C 280.86 247.61 282.19 252.74 283.54 257.87 C 281.65 257.68 279.75 257.50 277.86 257.31 C 277.17 254.35 276.48 251.05 273.89 249.10 C 271.31 246.76 267.68 246.63 264.39 246.59 C 264.72 245.73 265.05 244.86 265.39 244.00 Z" />
<path fill="#3e3e3e" opacity="1.00" d=" M 423.19 259.02 C 426.71 257.02 432.07 259.74 431.78 264.01 C 432.19 269.58 423.59 271.56 420.72 267.23 C 419.24 264.38 420.22 260.48 423.19 259.02 Z" />
<path fill="#3e3e3e" opacity="1.00" d=" M 219.14 260.91 C 222.72 259.77 227.75 262.68 226.80 266.84 C 226.31 269.37 223.12 269.70 221.01 269.72 C 218.70 269.72 215.52 269.54 214.52 267.06 C 213.62 264.05 216.53 261.61 219.14 260.91 Z" />
<path fill="#3e3e3e" opacity="1.00" d=" M 203.21 276.39 C 203.84 272.98 206.05 269.03 210.05 269.23 C 214.93 268.55 218.71 273.43 218.49 277.98 C 218.77 280.37 216.92 282.08 215.68 283.87 C 215.11 285.22 214.71 286.67 213.84 287.88 C 212.20 289.34 209.79 288.53 207.83 288.67 C 208.84 287.20 209.77 285.69 210.63 284.13 C 203.06 283.55 196.00 287.75 188.45 286.42 C 188.49 285.12 188.46 283.82 188.51 282.53 C 190.47 281.26 192.93 281.63 195.16 281.33 C 197.15 278.67 199.94 276.96 203.21 276.39 Z" />
<path fill="#f5e5c1" opacity="1.00" d=" M 327.85 276.44 C 345.06 283.68 361.28 293.11 378.76 299.73 C 377.14 303.33 376.69 307.56 378.47 311.19 C 379.68 314.75 383.14 317.55 387.02 317.11 C 391.08 316.21 394.89 314.40 399.04 313.82 C 401.63 313.55 403.86 312.16 405.90 310.63 C 415.64 314.84 425.65 318.44 435.43 322.57 C 435.26 338.72 435.16 354.86 434.99 371.01 C 423.32 370.88 411.66 370.75 399.99 370.60 C 396.58 370.48 393.09 371.00 389.74 370.22 C 384.05 368.00 378.97 364.54 374.19 360.80 C 366.65 355.66 358.69 351.13 351.53 345.44 C 347.79 342.44 343.52 340.20 339.73 337.28 C 335.62 334.08 330.74 332.15 326.11 329.88 C 331.73 328.57 337.36 327.30 342.98 326.00 C 337.97 309.47 332.88 292.97 327.85 276.44 Z" />
<path fill="#3e3e3e" opacity="1.00" d=" M 257.25 277.33 C 262.78 274.12 270.60 278.50 270.49 284.96 C 271.00 290.92 264.96 296.31 259.07 294.55 C 251.45 292.66 250.08 280.74 257.25 277.33 Z" />
<path fill="#f5e5c1" opacity="1.00" d=" M 441.40 320.27 C 442.17 310.39 442.92 300.50 443.75 290.62 C 445.97 290.62 448.20 290.62 450.44 290.62 C 449.93 301.41 449.41 312.19 448.84 322.97 C 446.35 322.09 443.87 321.18 441.40 320.27 Z" />
<path fill="#3e3e3e" opacity="1.00" d=" M 194.38 300.42 C 196.70 299.61 200.45 300.15 200.74 303.12 C 201.53 306.66 197.78 309.87 194.39 308.65 C 190.62 307.62 190.83 301.63 194.38 300.42 Z" />
<path fill="#f5e5c1" opacity="1.00" d=" M 236.08 322.07 C 240.83 321.49 245.57 320.86 250.33 320.37 C 252.63 323.41 254.30 326.82 255.88 330.27 C 257.36 333.59 260.29 336.25 260.84 339.97 C 264.53 360.31 268.28 380.65 272.00 400.99 C 262.52 401.82 253.03 402.59 243.55 403.39 C 242.05 397.45 240.52 391.44 237.46 386.07 C 242.01 385.47 246.56 384.78 251.09 384.04 C 246.09 363.38 241.12 342.71 236.08 322.07 Z" />
<path fill="#f5e5c1" opacity="1.00" d=" M 441.08 324.89 C 443.60 325.80 446.11 326.72 448.62 327.65 C 447.76 345.43 446.88 363.20 446.00 380.98 C 435.65 381.40 425.29 382.16 414.94 382.29 C 409.53 380.96 404.39 378.58 399.24 376.49 C 411.82 376.26 424.41 376.19 437.00 375.98 C 438.39 358.95 439.60 341.91 441.08 324.89 Z" />
<path fill="#f5e5c1" opacity="1.00" d=" M 298.03 336.42 C 305.03 334.83 311.96 332.57 319.11 331.91 C 324.86 333.15 330.04 336.26 335.29 338.83 C 340.48 342.37 346.29 344.89 351.28 348.73 C 357.07 353.02 363.15 356.91 369.24 360.76 C 374.31 363.88 378.52 368.40 384.23 370.45 C 371.49 370.28 358.74 370.18 346.00 369.98 C 344.92 386.02 343.53 402.04 342.63 418.09 C 339.38 409.38 334.90 401.21 331.33 392.65 C 327.26 386.49 324.02 379.85 320.93 373.15 C 319.40 369.28 318.96 364.95 316.62 361.41 C 314.57 358.16 311.43 355.82 309.17 352.74 C 305.16 347.50 302.36 341.43 298.03 336.42 Z" />
<path fill="#f5e5c1" opacity="1.00" d=" M 273.01 342.01 C 279.86 340.42 286.73 338.89 293.58 337.28 C 294.10 339.84 294.25 342.82 296.71 344.36 C 302.41 348.61 307.15 353.92 311.47 359.53 C 316.64 365.09 317.51 372.94 319.23 380.01 C 320.60 387.78 326.63 393.49 329.02 400.87 C 332.76 408.54 335.45 416.75 339.92 424.05 C 343.50 428.26 340.79 434.06 340.99 439.03 C 311.03 438.48 281.06 438.13 251.10 437.55 C 249.22 429.36 248.16 420.99 245.83 412.90 C 259.88 410.56 273.94 408.33 287.99 406.00 C 283.01 384.67 277.99 363.34 273.01 342.01 Z" />
<path fill="#f5e5c1" opacity="1.00" d=" M 350.01 377.01 C 363.34 376.91 376.67 376.60 390.01 376.59 C 396.22 376.29 400.72 381.35 406.49 382.76 C 390.66 383.62 374.83 384.22 359.01 385.03 C 356.65 409.36 354.35 433.69 351.99 458.02 C 319.03 455.09 286.06 452.24 253.09 449.31 C 252.71 446.57 252.27 443.85 251.80 441.13 C 282.54 442.67 313.26 444.37 343.99 446.03 C 344.60 439.98 344.82 433.88 345.86 427.88 C 346.71 410.89 348.69 393.97 350.01 377.01 Z" />
<path fill="#f5e5c1" opacity="1.00" d=" M 366.96 397.04 C 370.47 396.23 374.00 394.20 377.56 394.36 C 382.58 398.96 387.01 404.17 391.67 409.14 C 390.38 410.63 389.13 412.15 387.92 413.70 C 390.66 413.55 393.90 411.25 396.14 413.83 C 393.40 416.17 390.64 418.48 387.96 420.88 C 380.97 413.83 374.11 406.64 367.09 399.60 C 367.06 398.96 366.99 397.68 366.96 397.04 Z" />
<path fill="#f5e5c1" opacity="1.00" d=" M 215.68 417.80 C 223.94 416.44 232.21 415.11 240.47 413.75 C 242.93 421.48 243.97 429.53 245.77 437.42 C 235.18 437.41 224.58 437.19 213.99 436.96 C 214.57 430.58 215.11 424.19 215.68 417.80 Z" />
<path fill="#f5e5c1" opacity="1.00" d=" M 201.66 420.12 C 204.59 419.61 207.52 419.12 210.46 418.64 C 211.30 425.42 212.15 432.20 213.00 438.98 C 224.15 439.68 235.32 440.08 246.46 440.88 C 246.90 443.53 247.39 446.18 247.78 448.84 C 234.19 447.66 220.59 446.48 207.00 445.25 C 204.97 444.99 202.95 445.37 200.97 445.79 C 201.26 437.23 201.44 428.68 201.66 420.12 Z" />
<path fill="#f5e5c1" opacity="1.00" d=" M 391.78 424.86 C 395.32 423.52 398.54 421.53 401.55 419.25 C 399.00 421.75 396.47 424.27 393.77 426.63 C 393.10 426.03 392.44 425.45 391.78 424.86 Z" />
<path fill="#f5e5c1" opacity="1.00" d=" M 399.45 443.08 C 409.10 440.45 415.77 431.35 418.18 421.98 C 422.02 435.21 427.34 447.99 431.75 461.04 C 418.60 454.95 405.09 449.64 392.04 443.34 C 394.67 442.49 397.29 441.60 399.91 440.73 L 399.45 443.08 Z" />
<path fill="#f5e5c1" opacity="1.00" d=" M 396.09 429.94 C 397.62 428.56 399.12 427.15 400.63 425.74 C 400.16 427.51 399.65 429.26 399.15 431.02 C 398.13 430.66 397.11 430.29 396.09 429.94 Z" />
<path fill="#f5e5c1" opacity="1.00" d=" M 402.21 435.59 C 402.35 432.00 405.64 429.79 407.81 427.33 C 408.73 428.32 409.66 429.31 410.60 430.31 C 408.89 432.39 407.28 434.59 405.18 436.29 C 404.27 437.36 402.84 436.48 402.21 435.59 Z" />
</svg>
