<?xml version="1.0" encoding="UTF-8" ?>
<!DOCTYPE svg PUBLIC "-//W3C//DTD SVG 1.1//EN" "http://www.w3.org/Graphics/SVG/1.1/DTD/svg11.dtd">
<svg width="512pt" height="512pt" viewBox="0 0 512 512" version="1.1" xmlns="http://www.w3.org/2000/svg">
<path fill="#3e3e3e" opacity="1.00" d=" M 0.00 0.00 L 512.00 0.00 L 512.00 280.08 C 506.04 273.21 499.63 266.70 494.38 259.26 C 484.75 263.87 475.22 268.68 465.54 273.18 C 474.30 267.32 483.38 261.97 492.21 256.23 C 486.64 247.35 480.59 238.79 475.16 229.83 C 470.79 231.21 466.43 232.61 462.06 233.96 C 466.16 231.16 470.50 228.67 474.24 225.37 C 470.96 225.28 467.99 226.75 465.03 227.93 C 467.03 225.52 469.01 223.08 470.98 220.64 C 470.14 218.99 469.30 217.34 468.46 215.70 C 464.66 217.17 460.93 218.82 457.11 220.20 C 454.49 221.31 451.67 220.39 449.00 220.06 C 454.16 215.64 459.44 211.36 464.62 206.95 C 462.09 202.04 458.47 197.77 456.19 192.72 C 453.76 188.05 452.09 183.04 450.87 177.93 C 439.44 180.29 428.16 183.30 416.76 185.77 C 427.63 181.69 438.55 177.73 449.46 173.73 C 449.35 172.95 449.14 171.37 449.04 170.58 C 433.31 172.83 417.64 175.51 401.93 177.82 C 416.45 174.76 430.98 171.75 445.51 168.72 C 447.51 168.64 448.42 167.26 448.59 165.36 C 444.21 165.41 439.84 165.72 435.46 165.79 C 439.48 164.92 443.50 164.04 447.50 163.08 C 447.46 162.24 447.37 160.55 447.32 159.70 C 435.77 159.95 424.22 160.86 412.66 160.68 C 424.12 159.37 435.47 157.35 446.89 155.70 C 446.17 146.13 446.05 136.50 446.55 126.91 C 447.68 116.62 448.27 106.16 451.21 96.17 C 452.81 90.46 454.17 84.68 455.91 79.00 C 447.85 78.96 439.78 79.20 431.74 78.54 C 440.15 78.09 448.51 77.05 456.87 76.02 C 457.59 73.52 458.31 71.02 459.02 68.51 C 453.84 66.72 448.63 65.03 443.52 63.08 C 448.66 61.75 453.92 60.98 459.12 59.89 C 460.12 59.52 461.66 59.66 462.03 58.38 C 466.32 48.76 471.84 39.77 477.23 30.74 C 465.81 30.53 454.42 31.38 443.03 31.95 C 432.05 32.94 421.01 33.16 410.06 34.54 C 403.35 35.49 396.74 33.56 390.04 33.70 C 373.66 34.06 357.33 35.72 340.94 35.73 C 316.94 36.15 293.03 38.85 269.02 38.72 C 254.36 39.53 239.74 40.87 225.07 41.43 C 211.70 41.52 198.38 42.89 185.01 42.94 C 164.00 44.32 142.95 44.66 121.92 45.57 C 115.29 46.00 108.64 46.38 102.01 45.99 C 96.03 45.67 90.00 45.12 84.05 46.02 C 80.80 46.47 78.39 48.88 75.61 50.38 C 72.88 51.86 70.24 53.48 67.71 55.27 C 88.24 56.52 108.78 57.67 129.32 58.92 C 107.60 59.76 85.86 60.02 64.14 60.66 C 61.62 60.59 60.13 62.92 58.54 64.50 C 52.51 71.49 46.18 78.26 40.81 85.79 C 37.12 90.95 32.98 95.77 28.84 100.58 C 36.35 102.12 43.92 103.36 51.41 104.98 C 41.88 106.48 32.08 106.28 22.69 108.61 C 43.85 109.75 65.10 108.21 86.27 109.48 C 64.19 110.67 42.20 113.20 20.18 115.14 C 14.31 128.10 10.80 142.03 8.55 156.05 C 6.03 166.86 5.63 177.98 4.83 189.00 C 4.48 199.30 3.83 209.62 4.54 219.92 C 5.48 235.92 5.75 252.05 9.12 267.78 C 11.15 276.47 10.69 286.26 16.30 293.70 C 16.92 294.86 18.39 294.45 19.43 294.44 C 25.50 293.71 31.62 293.96 37.71 294.19 C 30.93 296.42 23.25 296.67 17.19 300.67 C 24.16 300.77 31.06 299.57 37.99 298.99 C 39.67 303.66 41.33 308.33 43.00 313.00 C 36.45 315.35 29.89 317.68 23.34 320.04 C 26.77 332.95 29.38 346.16 34.46 358.57 C 37.18 365.94 39.76 373.36 42.55 380.71 C 52.30 379.94 62.02 378.80 71.79 378.26 C 62.39 380.83 52.77 382.56 43.49 385.51 C 46.42 387.34 49.90 386.08 53.06 385.80 C 75.64 382.84 98.23 379.92 120.82 377.07 C 99.50 387.53 78.13 397.90 56.79 408.33 C 59.64 413.40 61.88 418.89 65.54 423.46 C 69.37 427.62 73.49 431.57 78.13 434.83 C 84.51 439.41 89.07 446.00 95.23 450.82 C 96.21 450.79 97.16 450.60 98.08 450.24 C 114.39 443.85 130.59 437.14 146.97 430.94 C 130.68 438.63 114.34 446.22 98.05 453.90 C 110.67 467.93 121.16 483.80 130.10 500.39 C 137.01 498.02 143.86 495.48 150.77 493.13 C 144.76 497.58 138.65 501.91 132.61 506.33 C 133.55 508.24 134.50 510.15 135.57 512.00 L 0.00 512.00 L 0.00 0.00 Z" />
<path fill="#f5e5c1" opacity="1.00" d=" M 443.03 31.95 C 454.42 31.38 465.81 30.53 477.23 30.74 C 471.84 39.77 466.32 48.76 462.03 58.38 C 461.66 59.66 460.12 59.52 459.12 59.89 C 453.92 60.98 448.66 61.75 443.52 63.08 C 448.63 65.03 453.84 66.72 459.02 68.51 C 458.31 71.02 457.59 73.52 456.87 76.02 C 448.51 77.05 440.15 78.09 431.74 78.54 C 439.78 79.20 447.85 78.96 455.91 79.00 C 454.17 84.68 452.81 90.46 451.21 96.17 C 448.27 106.16 447.68 116.62 446.55 126.91 C 446.05 136.50 446.17 146.13 446.89 155.70 C 435.47 157.35 424.12 159.37 412.66 160.68 C 424.22 160.86 435.77 159.95 447.32 159.70 C 447.37 160.55 447.46 162.24 447.50 163.08 C 443.50 164.04 439.48 164.92 435.46 165.79 C 439.84 165.72 444.21 165.41 448.59 165.36 C 448.42 167.26 447.51 168.64 445.51 168.72 C 430.98 171.75 416.45 174.76 401.93 177.82 C 417.64 175.51 433.31 172.83 449.04 170.58 C 449.14 171.37 449.35 172.95 449.46 173.73 C 438.55 177.73 427.63 181.69 416.76 185.77 C 428.16 183.30 439.44 180.29 450.87 177.93 C 452.09 183.04 453.76 188.05 456.19 192.72 C 458.47 197.77 462.09 202.04 464.62 206.95 C 459.44 211.36 454.16 215.64 449.00 220.06 C 451.67 220.39 454.49 221.31 457.11 220.20 C 460.93 218.82 464.66 217.17 468.46 215.70 C 469.30 217.34 470.14 218.99 470.98 220.64 C 469.01 223.08 467.03 225.52 465.03 227.93 C 467.99 226.75 470.96 225.28 474.24 225.37 C 470.50 228.67 466.16 231.16 462.06 233.96 C 466.43 232.61 470.79 231.21 475.16 229.83 C 480.59 238.79 486.64 247.35 492.21 256.23 C 483.38 261.97 474.30 267.32 465.54 273.18 C 475.22 268.68 484.75 263.87 494.38 259.26 C 499.63 266.70 506.04 273.21 512.00 280.08 L 512.00 452.82 C 489.44 469.66 466.84 486.45 444.30 503.32 C 441.24 505.64 437.42 506.45 433.84 507.61 C 429.12 509.01 424.49 510.69 419.75 512.00 L 381.61 512.00 C 402.13 485.78 422.78 459.65 443.23 433.37 C 423.15 421.98 402.98 410.77 382.98 399.23 C 394.50 386.09 405.81 372.76 417.13 359.46 C 371.64 342.01 326.08 324.73 280.67 307.08 C 278.76 321.41 277.13 335.77 275.14 350.09 C 256.87 336.18 239.08 321.61 220.64 307.92 C 193.72 338.23 167.09 368.81 140.05 399.00 C 139.99 403.06 139.99 407.12 140.00 411.19 C 166.52 415.86 193.12 420.08 219.65 424.76 C 197.43 443.60 174.65 461.77 152.24 480.39 C 151.47 480.81 150.44 482.62 152.04 482.76 C 177.70 492.62 203.51 502.12 229.17 512.00 L 135.57 512.00 C 134.50 510.15 133.55 508.24 132.61 506.33 C 138.65 501.91 144.76 497.58 150.77 493.13 C 143.86 495.48 137.01 498.02 130.10 500.39 C 121.16 483.80 110.67 467.93 98.05 453.90 C 114.34 446.22 130.68 438.63 146.97 430.94 C 130.59 437.14 114.39 443.85 98.08 450.24 C 97.16 450.60 96.21 450.79 95.23 450.82 C 89.07 446.00 84.51 439.41 78.13 434.83 C 73.49 431.57 69.37 427.62 65.54 423.46 C 61.88 418.89 59.64 413.40 56.79 408.33 C 78.13 397.90 99.50 387.53 120.82 377.07 C 98.23 379.92 75.64 382.84 53.06 385.80 C 49.90 386.08 46.42 387.34 43.49 385.51 C 52.77 382.56 62.39 380.83 71.79 378.26 C 62.02 378.80 52.30 379.94 42.55 380.71 C 39.76 373.36 37.18 365.94 34.46 358.57 C 29.38 346.16 26.77 332.95 23.34 320.04 C 29.89 317.68 36.45 315.35 43.00 313.00 C 41.33 308.33 39.67 303.66 37.99 298.99 C 31.06 299.57 24.16 300.77 17.19 300.67 C 23.25 296.67 30.93 296.42 37.71 294.19 C 31.62 293.96 25.50 293.71 19.43 294.44 C 18.39 294.45 16.92 294.86 16.30 293.70 C 10.69 286.26 11.15 276.47 9.12 267.78 C 5.75 252.05 5.48 235.92 4.54 219.92 C 3.83 209.62 4.48 199.30 4.83 189.00 C 5.63 177.98 6.03 166.86 8.55 156.05 C 10.80 142.03 14.31 128.10 20.18 115.14 C 42.20 113.20 64.19 110.67 86.27 109.48 C 65.10 108.21 43.85 109.75 22.69 108.61 C 32.08 106.28 41.88 106.48 51.41 104.98 C 43.92 103.36 36.35 102.12 28.84 100.58 C 32.98 95.77 37.12 90.95 40.81 85.79 C 46.18 78.26 52.51 71.49 58.54 64.50 C 60.13 62.92 61.62 60.59 64.14 60.66 C 85.86 60.02 107.60 59.76 129.32 58.92 C 108.78 57.67 88.24 56.52 67.71 55.27 C 70.24 53.48 72.88 51.86 75.61 50.38 C 78.39 48.88 80.80 46.47 84.05 46.02 C 90.00 45.12 96.03 45.67 102.01 45.99 C 108.64 46.38 115.29 46.00 121.92 45.57 C 142.95 44.66 164.00 44.32 185.01 42.94 C 198.38 42.89 211.70 41.52 225.07 41.43 C 239.74 40.87 254.36 39.53 269.02 38.72 C 293.03 38.85 316.94 36.15 340.94 35.73 C 357.33 35.72 373.66 34.06 390.04 33.70 C 396.74 33.56 403.35 35.49 410.06 34.54 C 421.01 33.16 432.05 32.94 443.03 31.95 Z" />
<path fill="#3e3e3e" opacity="1.00" d=" M 123.43 90.61 C 133.55 85.93 144.81 82.97 156.01 84.67 C 159.94 85.52 164.53 84.44 167.84 87.19 C 174.47 92.14 181.62 96.68 186.77 103.28 C 188.45 105.46 189.36 108.21 189.28 110.98 C 189.25 117.71 188.99 124.45 189.35 131.18 C 185.77 133.98 181.81 136.40 178.81 139.86 C 176.34 142.43 178.94 145.94 178.73 148.98 C 178.48 153.51 177.43 157.99 177.78 162.55 C 168.58 165.73 157.92 165.14 149.66 170.77 C 149.13 163.28 145.39 156.43 145.15 148.90 C 145.04 146.24 142.96 143.18 140.06 143.30 C 128.55 143.02 117.37 147.04 105.85 146.70 C 102.23 139.73 99.58 131.95 99.75 124.00 C 100.14 119.53 100.13 114.73 102.65 110.82 C 107.28 102.17 114.62 94.96 123.43 90.61 Z" />
<path fill="#f5e5c1" opacity="1.00" d=" M 146.29 94.40 C 153.38 94.35 160.78 91.67 167.65 94.42 C 172.30 96.12 174.62 100.74 177.94 104.06 C 182.32 108.38 184.05 114.44 186.14 120.04 C 187.30 122.90 186.78 126.02 186.60 129.00 C 182.62 131.33 178.90 134.13 174.56 135.79 C 173.23 136.53 170.92 136.98 171.25 138.98 C 171.06 142.19 173.57 144.79 173.51 147.97 C 173.57 151.21 173.56 154.45 173.77 157.68 C 172.79 157.65 171.81 157.62 170.84 157.59 C 170.50 154.90 169.98 152.23 169.28 149.61 C 168.24 149.49 167.20 149.38 166.16 149.28 C 166.44 152.19 166.98 155.07 167.77 157.89 C 166.70 158.06 165.63 158.23 164.57 158.40 C 164.37 155.24 164.57 150.45 160.36 150.00 C 160.04 152.99 160.87 155.89 161.20 158.83 L 159.65 160.09 C 158.37 157.36 159.26 152.09 155.23 151.89 C 155.42 154.82 156.09 157.69 156.90 160.51 C 155.21 161.06 153.52 161.59 151.82 162.08 C 151.22 158.66 150.37 155.30 149.64 151.91 C 148.72 148.47 149.94 144.96 149.69 141.48 C 150.42 140.50 151.15 139.53 151.89 138.56 C 140.55 139.29 129.24 140.24 118.03 142.22 C 115.64 142.22 112.32 143.47 110.74 141.07 C 109.69 137.46 109.20 133.70 108.58 129.99 C 107.83 125.32 110.03 120.95 111.71 116.74 C 113.76 111.53 118.08 107.75 121.99 103.94 C 128.55 97.84 137.40 94.70 146.29 94.40 Z" />
<path fill="#3e3e3e" opacity="1.00" d=" M 166.17 106.22 C 168.59 105.03 171.54 104.93 174.13 105.68 C 177.68 107.35 179.99 111.08 180.21 114.96 C 180.21 120.81 174.19 126.07 168.34 124.46 C 161.33 121.88 160.02 110.31 166.17 106.22 Z" />
<path fill="#3e3e3e" opacity="1.00" d=" M 139.38 108.65 C 142.24 108.33 145.68 107.83 148.01 109.94 C 151.72 112.87 153.67 118.61 150.94 122.82 C 149.00 125.49 146.49 128.57 142.91 128.67 C 139.46 129.00 135.48 128.79 133.03 126.01 C 127.85 120.31 131.48 109.43 139.38 108.65 Z" />
<path fill="#f4722b" opacity="1.00" d=" M 305.31 115.05 C 311.32 115.67 317.32 116.37 323.33 117.03 C 322.79 122.00 322.20 126.97 321.69 131.95 C 315.67 131.32 309.67 130.64 303.66 129.96 C 304.21 124.99 304.79 120.03 305.31 115.05 Z" />
<path fill="#f4722b" opacity="1.00" d=" M 398.81 132.51 C 400.28 128.75 401.98 125.07 403.71 121.42 C 408.25 123.48 412.83 125.48 417.30 127.70 C 415.62 131.32 413.96 134.96 412.30 138.59 C 407.81 136.56 403.34 134.48 398.81 132.51 Z" />
<path fill="#f4722b" opacity="1.00" d=" M 337.17 123.53 C 341.50 125.15 345.80 126.82 350.12 128.45 C 348.48 133.17 346.60 137.79 344.85 142.46 C 340.50 140.88 336.21 139.19 331.89 137.56 C 333.53 132.84 335.40 128.21 337.17 123.53 Z" />
<path fill="#3e3e3e" opacity="1.00" d=" M 156.60 129.50 C 157.68 128.07 159.63 128.55 161.17 128.26 C 162.73 129.82 164.29 131.38 165.84 132.95 C 165.57 135.34 164.88 138.28 167.85 139.28 C 165.81 139.33 163.76 139.31 161.77 138.79 C 159.67 140.85 156.92 140.64 155.14 138.28 C 155.53 137.75 156.33 136.70 156.72 136.17 C 155.76 134.12 154.42 131.28 156.60 129.50 Z" />
<path fill="#f4722b" opacity="1.00" d=" M 285.06 130.67 C 289.35 133.20 293.62 135.78 297.91 138.30 C 294.99 143.35 291.93 148.32 288.95 153.33 C 284.66 150.80 280.40 148.22 276.10 145.72 C 279.00 140.65 282.06 135.68 285.06 130.67 Z" />
<path fill="#f4722b" opacity="1.00" d=" M 361.87 141.40 C 365.87 142.71 369.87 144.04 373.86 145.38 C 372.30 150.13 370.71 154.88 369.12 159.62 C 365.13 158.30 361.13 156.97 357.14 155.63 C 358.69 150.88 360.29 146.14 361.87 141.40 Z" />
<path fill="#f4722b" opacity="1.00" d=" M 382.48 151.94 C 386.14 148.60 389.79 145.24 393.51 141.96 C 396.83 145.68 400.19 149.36 403.51 153.08 C 399.87 156.42 396.19 159.71 392.57 163.07 C 389.17 159.39 385.83 155.66 382.48 151.94 Z" />
<path fill="#f4722b" opacity="1.00" d=" M 277.16 169.39 C 281.42 166.82 285.64 164.17 289.88 161.58 C 292.55 165.92 295.24 170.24 297.86 174.61 C 293.60 177.19 289.37 179.84 285.12 182.44 C 282.46 178.09 279.74 173.78 277.16 169.39 Z" />
<path fill="#f4722b" opacity="1.00" d=" M 298.34 191.63 C 301.19 187.56 303.89 183.38 306.67 179.27 C 313.66 183.91 320.63 188.60 327.64 193.23 C 324.90 197.42 322.13 201.61 319.31 205.75 C 312.35 201.00 305.21 196.51 298.34 191.63 Z" />
<path fill="#f4722b" opacity="1.00" d=" M 136.04 199.84 C 143.04 196.18 150.02 192.50 157.02 188.85 C 159.35 193.28 161.66 197.72 163.96 202.15 C 156.96 205.81 149.98 209.50 142.97 213.15 C 140.64 208.72 138.34 204.29 136.04 199.84 Z" />
<path fill="#f4722b" opacity="1.00" d=" M 180.89 189.14 C 186.22 190.13 191.55 191.13 196.88 192.14 C 195.95 197.05 195.05 201.97 194.11 206.88 C 188.78 205.88 183.45 204.88 178.12 203.88 C 179.04 198.96 179.95 194.04 180.89 189.14 Z" />
<path fill="#f4722b" opacity="1.00" d=" M 203.23 215.49 C 208.06 214.13 212.91 212.85 217.77 211.59 C 219.08 216.56 220.39 221.54 221.77 226.50 C 216.94 227.90 212.08 229.18 207.21 230.40 C 205.92 225.42 204.60 220.44 203.23 215.49 Z" />
<path fill="#f4722b" opacity="1.00" d=" M 322.03 211.81 C 326.99 212.29 331.97 212.73 336.93 213.19 C 336.33 220.53 335.62 227.86 334.97 235.20 C 330.00 234.73 325.03 234.29 320.06 233.82 C 320.66 226.48 321.38 219.14 322.03 211.81 Z" />
<path fill="#f4722b" opacity="1.00" d=" M 103.70 236.59 C 106.84 228.82 110.32 221.20 113.65 213.51 C 118.20 215.50 122.74 217.51 127.32 219.44 C 124.12 227.17 120.72 234.83 117.34 242.49 C 112.80 240.51 108.27 238.50 103.70 236.59 Z" />
<path fill="#3e3e3e" opacity="1.00" d=" M 406.93 222.16 C 411.83 220.78 416.96 221.34 421.98 221.20 C 424.05 221.22 426.23 220.97 428.17 221.87 C 434.28 224.54 440.47 227.23 445.94 231.09 C 447.96 232.48 449.44 234.55 450.10 236.91 C 451.54 241.69 453.18 246.40 454.76 251.14 C 452.25 254.55 446.35 258.22 449.04 263.01 C 451.88 267.63 451.40 273.33 453.55 278.24 C 445.74 282.45 436.61 284.58 430.00 290.79 C 427.89 283.81 423.04 278.06 420.92 271.08 C 420.26 268.70 417.54 267.03 415.12 267.57 C 403.89 269.39 393.54 274.95 382.25 276.45 C 381.15 275.18 380.03 273.95 378.89 272.74 C 378.69 271.80 378.50 270.88 378.31 269.95 C 373.00 264.02 372.85 255.34 373.68 247.86 C 376.50 241.44 380.72 235.50 386.41 231.33 C 392.43 226.71 399.69 224.14 406.93 222.16 Z" />
<path fill="#f5e5c1" opacity="1.00" d=" M 420.89 226.90 C 425.57 225.76 430.85 226.28 434.80 229.22 C 438.39 231.92 442.51 234.05 445.36 237.62 C 448.20 241.30 451.84 244.85 452.05 249.80 C 448.67 252.99 445.00 255.83 441.32 258.65 C 442.62 260.96 444.21 263.08 445.59 265.35 C 446.95 268.52 447.71 271.92 448.67 275.24 C 443.85 275.32 445.29 267.59 440.11 268.13 C 440.84 270.86 442.22 273.33 443.45 275.85 C 442.81 276.08 441.53 276.55 440.88 276.78 C 440.02 273.87 438.85 270.14 435.17 270.11 C 435.61 272.89 437.21 275.27 437.98 277.95 C 437.68 278.17 437.06 278.61 436.75 278.83 C 435.46 276.76 434.38 274.57 433.22 272.42 C 432.69 272.42 431.64 272.41 431.11 272.41 C 431.77 275.11 433.10 277.57 434.57 279.92 C 433.24 280.84 431.91 281.77 430.60 282.70 C 428.93 279.26 427.10 275.90 425.46 272.45 C 424.19 270.04 424.66 267.22 424.25 264.61 C 424.47 263.74 424.69 262.86 424.91 262.00 C 415.78 263.66 406.90 266.28 398.01 268.87 C 394.69 269.96 391.33 271.10 387.82 271.33 C 384.96 269.33 384.80 265.31 383.42 262.33 C 381.16 257.06 383.33 251.33 385.46 246.42 C 389.58 239.70 395.55 233.80 403.02 230.96 C 408.75 228.74 414.95 228.31 420.89 226.90 Z" />
<path fill="#f4722b" opacity="1.00" d=" M 208.13 236.88 C 213.04 235.92 217.96 235.07 222.87 234.15 C 223.54 237.80 224.21 241.46 224.87 245.13 C 219.96 246.08 215.04 246.93 210.14 247.86 C 209.46 244.20 208.79 240.54 208.13 236.88 Z" />
<path fill="#3e3e3e" opacity="1.00" d=" M 432.29 234.52 C 437.57 232.11 444.89 237.15 443.82 243.11 C 443.33 246.98 438.63 249.65 435.04 248.04 C 430.72 246.56 428.20 241.42 429.39 237.08 C 429.67 235.67 431.08 235.00 432.29 234.52 Z" />
<path fill="#3e3e3e" opacity="1.00" d=" M 408.41 239.70 C 414.16 237.14 422.50 241.24 421.59 248.08 C 420.32 256.25 407.66 258.44 403.55 251.41 C 400.71 247.09 403.39 240.78 408.41 239.70 Z" />
<path fill="#f4722b" opacity="1.00" d=" M 301.04 256.37 C 306.38 250.72 311.69 245.04 317.03 239.39 C 320.68 242.81 324.37 246.19 327.95 249.69 C 322.59 255.30 317.31 260.99 311.97 266.62 C 308.32 263.21 304.66 259.81 301.04 256.37 Z" />
<path fill="#3e3e3e" opacity="1.00" d=" M 427.52 253.65 C 430.14 250.62 433.87 254.00 436.44 255.45 C 436.34 257.46 436.91 259.42 438.97 260.23 C 437.26 260.40 435.55 260.58 433.85 260.75 C 432.34 262.16 430.43 262.74 428.62 261.49 C 429.25 258.67 426.15 256.38 427.52 253.65 Z" />
<path fill="#f4722b" opacity="1.00" d=" M 98.13 261.79 C 103.03 260.92 107.95 260.09 112.85 259.20 C 114.23 266.85 115.52 274.52 116.88 282.18 C 111.98 283.10 107.06 283.92 102.15 284.79 C 100.77 277.13 99.47 269.46 98.13 261.79 Z" />
<path fill="#f4722b" opacity="1.00" d=" M 211.51 264.19 C 216.19 262.41 220.83 260.54 225.55 258.88 C 227.18 263.20 228.85 267.51 230.49 271.82 C 225.81 273.60 221.17 275.48 216.44 277.12 C 214.82 272.80 213.15 268.50 211.51 264.19 Z" />
<path fill="#f4722b" opacity="1.00" d=" M 278.07 272.49 C 283.03 268.76 288.06 265.12 293.07 261.46 C 296.03 265.50 299.03 269.53 301.91 273.64 C 296.88 277.22 291.94 280.93 286.95 284.56 C 283.97 280.55 281.05 276.49 278.07 272.49 Z" />
<path fill="#f4722b" opacity="1.00" d=" M 233.16 274.95 C 236.16 276.60 239.15 278.27 242.14 279.95 C 239.72 284.33 237.28 288.69 234.84 293.06 C 231.83 291.41 228.84 289.74 225.86 288.05 C 228.28 283.68 230.72 279.31 233.16 274.95 Z" />
<path fill="#f4722b" opacity="1.00" d=" M 261.16 280.78 C 263.81 279.45 266.46 278.12 269.12 276.80 C 271.41 281.24 273.61 285.74 275.84 290.22 C 273.20 291.55 270.55 292.87 267.90 294.20 C 265.57 289.77 263.39 285.26 261.16 280.78 Z" />
<path fill="#f4722b" opacity="1.00" d=" M 244.08 281.04 C 248.10 281.36 252.11 281.68 256.12 282.05 C 255.72 287.02 255.28 291.98 254.92 296.96 C 250.90 296.64 246.89 296.31 242.88 295.95 C 243.29 290.98 243.73 286.02 244.08 281.04 Z" />
<path fill="#f4722b" opacity="1.00" d=" M 111.22 306.66 C 115.34 303.85 119.55 301.21 123.67 298.42 C 128.19 304.97 132.38 311.75 136.77 318.38 C 132.59 321.14 128.42 323.93 124.14 326.55 C 119.90 319.88 115.56 313.27 111.22 306.66 Z" />
<path fill="#3e3e3e" opacity="1.00" d=" M 280.67 307.08 C 326.08 324.73 371.64 342.01 417.13 359.46 C 405.81 372.76 394.50 386.09 382.98 399.23 C 402.98 410.77 423.15 421.98 443.23 433.37 C 422.78 459.65 402.13 485.78 381.61 512.00 L 359.35 512.00 C 345.45 500.82 331.45 489.74 317.73 478.34 C 312.51 489.43 307.96 500.83 302.90 512.00 L 288.18 512.00 C 297.32 497.93 306.83 484.10 316.00 470.05 C 334.39 481.99 352.77 493.95 371.10 505.96 C 391.17 483.17 411.06 460.22 431.15 437.45 C 401.54 425.71 371.73 414.47 342.03 402.94 C 362.29 389.32 382.55 375.70 402.85 362.14 C 367.95 348.08 333.09 333.91 298.16 319.91 C 291.65 338.09 284.74 356.12 277.99 374.21 C 261.84 358.46 245.86 342.54 229.82 326.68 C 204.66 350.37 179.96 374.56 154.76 398.21 C 183.30 408.49 212.10 418.04 240.75 428.01 C 218.04 444.81 195.30 461.58 172.51 478.27 C 180.88 482.25 189.63 485.36 198.16 488.96 C 216.81 496.74 235.57 504.26 254.23 512.00 L 229.17 512.00 C 203.51 502.12 177.70 492.62 152.04 482.76 C 150.44 482.62 151.47 480.81 152.24 480.39 C 174.65 461.77 197.43 443.60 219.65 424.76 C 193.12 420.08 166.52 415.86 140.00 411.19 C 139.99 407.12 139.99 403.06 140.05 399.00 C 167.09 368.81 193.72 338.23 220.64 307.92 C 239.08 321.61 256.87 336.18 275.14 350.09 C 277.13 335.77 278.76 321.41 280.67 307.08 Z" />
<path fill="#f4722b" opacity="1.00" d=" M 298.16 319.91 C 333.09 333.91 367.95 348.08 402.85 362.14 C 382.55 375.70 362.29 389.32 342.03 402.94 C 371.73 414.47 401.54 425.71 431.15 437.45 C 411.06 460.22 391.17 483.17 371.10 505.96 C 352.77 493.95 334.39 481.99 316.00 470.05 C 306.83 484.10 297.32 497.93 288.18 512.00 L 254.23 512.00 C 235.57 504.26 216.81 496.74 198.16 488.96 C 189.63 485.36 180.88 482.25 172.51 478.27 C 195.30 461.58 218.04 444.81 240.75 428.01 C 212.10 418.04 183.30 408.49 154.76 398.21 C 179.96 374.56 204.66 350.37 229.82 326.68 C 245.86 342.54 261.84 358.46 277.99 374.21 C 284.74 356.12 291.65 338.09 298.16 319.91 Z" />
<path fill="#f4722b" opacity="1.00" d=" M 140.10 337.59 C 143.01 333.53 145.96 329.49 148.90 325.46 C 158.58 332.42 168.21 339.45 177.89 346.41 C 175.00 350.49 172.04 354.52 169.09 358.55 C 159.41 351.59 149.78 344.55 140.10 337.59 Z" />
<path fill="#3e3e3e" opacity="1.00" d=" M 444.30 503.32 C 466.84 486.45 489.44 469.66 512.00 452.82 L 512.00 512.00 L 419.75 512.00 C 424.49 510.69 429.12 509.01 433.84 507.61 C 437.42 506.45 441.24 505.64 444.30 503.32 Z" />
<path fill="#f5e5c1" opacity="1.00" d=" M 302.90 512.00 C 307.96 500.83 312.51 489.43 317.73 478.34 C 331.45 489.74 345.45 500.82 359.35 512.00 L 302.90 512.00 Z" />
</svg>
