<?xml version="1.0" encoding="UTF-8" ?>
<!DOCTYPE svg PUBLIC "-//W3C//DTD SVG 1.1//EN" "http://www.w3.org/Graphics/SVG/1.1/DTD/svg11.dtd">
<svg width="512pt" height="512pt" viewBox="0 0 512 512" version="1.1" xmlns="http://www.w3.org/2000/svg">
<path fill="#3e3e3e" opacity="1.00" d=" M 0.00 0.00 L 512.00 0.00 L 512.00 512.00 L 0.00 512.00 L 0.00 0.00 Z" />
<path fill="#f5e5c1" opacity="1.00" d=" M 359.00 4.92 C 360.87 10.48 361.14 16.41 362.67 22.06 C 364.73 23.07 368.08 23.19 368.37 26.07 C 370.47 35.02 372.79 43.93 374.80 52.91 C 375.23 53.54 375.65 54.19 376.06 54.84 C 376.56 51.36 377.43 47.95 378.85 44.72 C 382.41 48.59 385.90 52.52 389.43 56.41 C 389.49 62.13 390.41 67.80 390.59 73.51 C 392.48 75.30 395.03 76.24 396.84 78.13 C 398.75 87.32 399.55 96.73 401.34 105.95 C 405.00 106.72 408.73 107.22 412.27 108.47 C 412.28 110.52 411.95 112.63 412.46 114.65 C 417.52 116.99 422.84 118.77 428.01 120.88 C 426.28 123.78 423.59 125.93 421.88 128.83 C 425.19 131.41 428.21 134.34 431.38 137.10 C 431.43 139.94 431.42 142.78 431.38 145.63 C 435.22 146.25 439.11 146.55 442.99 146.83 C 442.77 151.17 441.55 155.38 441.31 159.71 C 445.78 164.83 452.34 168.31 455.21 174.75 C 457.81 180.31 461.24 185.48 463.60 191.13 C 462.02 196.51 460.13 201.80 458.29 207.09 C 460.32 210.87 462.94 214.30 464.98 218.06 C 463.25 224.48 461.45 230.91 459.74 237.35 C 458.23 243.48 456.71 249.60 454.98 255.67 C 451.40 255.62 447.81 255.61 444.23 255.65 C 445.02 258.10 445.82 260.56 446.62 263.01 C 440.08 273.05 433.71 283.19 427.14 293.21 C 424.26 293.58 421.38 294.03 418.52 294.50 C 417.31 302.70 416.44 310.94 415.24 319.14 C 408.52 319.33 401.77 318.80 395.07 319.34 C 390.39 320.84 386.21 323.55 381.87 325.78 C 381.54 327.94 381.04 330.06 380.51 332.18 C 377.49 329.80 375.18 325.47 370.86 325.57 C 387.61 303.92 397.01 277.21 399.53 250.09 C 400.51 238.22 399.95 226.21 397.70 214.50 C 395.06 200.65 391.05 186.95 384.58 174.37 C 369.23 143.78 342.45 119.09 310.62 106.47 C 287.59 97.68 262.38 93.65 237.87 97.40 C 221.90 99.93 206.07 104.30 191.67 111.77 C 157.12 129.35 130.15 161.61 119.89 199.09 C 117.13 209.18 114.98 219.49 114.32 229.95 C 112.75 251.85 117.13 273.89 125.10 294.23 C 123.47 296.10 121.83 297.96 120.19 299.82 C 110.52 297.05 101.01 293.65 91.20 291.42 L 90.98 291.60 C 90.15 290.18 89.29 288.76 88.41 287.37 C 89.93 286.02 91.61 284.86 93.34 283.80 C 92.50 277.53 91.86 271.24 91.17 264.96 C 90.78 261.36 88.23 258.57 86.42 255.60 C 82.96 250.04 78.72 244.87 76.43 238.67 C 73.26 230.83 70.35 222.87 66.84 215.19 C 62.39 210.14 57.69 204.49 50.84 202.82 C 50.51 202.71 49.86 202.49 49.53 202.38 C 53.60 202.69 57.66 203.20 61.70 203.80 C 60.32 201.58 59.00 199.32 57.78 197.01 C 59.91 197.82 62.01 198.69 64.11 199.57 C 61.37 193.95 58.34 188.49 55.43 182.96 C 53.39 179.30 51.58 175.50 49.25 172.01 C 50.16 165.41 51.16 158.82 51.65 152.18 C 54.55 153.70 57.49 155.18 60.63 156.17 C 60.62 154.32 60.59 152.47 60.56 150.63 C 68.66 144.69 76.77 138.75 85.01 133.01 C 99.84 125.39 115.02 118.46 129.88 110.93 C 132.64 108.60 134.00 105.02 136.21 102.20 C 139.51 98.63 136.37 93.69 137.70 89.56 C 139.08 85.42 140.79 81.40 142.05 77.22 C 144.97 79.84 147.52 82.85 150.58 85.32 C 150.71 80.95 150.61 76.58 150.65 72.21 C 154.15 73.96 157.60 76.64 161.77 75.72 C 161.27 71.46 160.19 67.27 160.07 62.97 C 162.26 62.05 164.48 61.20 166.61 60.15 C 166.93 59.06 166.47 58.32 165.23 57.93 C 165.86 55.39 166.76 52.93 167.79 50.53 C 170.76 50.60 173.72 50.60 176.69 50.49 C 176.32 49.79 175.58 48.38 175.21 47.68 C 175.28 47.23 175.42 46.34 175.48 45.89 C 179.00 45.59 182.43 44.65 185.95 44.38 C 189.81 47.21 194.21 49.15 198.16 51.82 C 200.33 53.43 199.64 57.09 202.27 58.21 C 202.46 56.99 202.65 55.76 202.83 54.53 C 206.41 54.43 210.02 54.20 213.59 54.65 C 215.44 56.12 216.55 58.37 218.20 60.08 C 218.47 57.74 218.81 55.38 218.66 53.02 C 217.04 50.90 214.94 49.22 213.01 47.42 C 215.79 40.81 220.02 34.93 223.08 28.45 C 224.85 28.73 226.60 29.11 228.36 29.47 C 228.89 27.39 229.43 25.31 229.96 23.23 C 235.82 23.28 241.69 23.21 247.55 23.48 C 247.50 20.90 247.54 18.32 247.27 15.75 C 245.58 13.30 241.16 16.06 239.97 12.95 C 239.73 12.37 239.23 11.22 238.99 10.65 C 241.61 10.64 244.24 10.66 246.86 10.71 C 249.52 13.75 252.57 16.95 256.99 16.71 C 257.15 18.00 257.32 19.30 257.49 20.59 C 259.86 19.70 262.29 18.97 264.77 18.43 C 266.13 19.82 267.51 21.19 268.91 22.54 C 269.45 22.15 270.53 21.37 271.07 20.98 C 272.56 22.38 273.51 24.29 275.04 25.64 C 279.19 26.40 281.50 22.44 284.21 20.12 C 285.02 21.42 285.84 22.71 286.65 24.00 C 287.68 23.05 288.69 22.08 289.72 21.11 C 292.41 22.03 294.80 23.61 297.26 25.01 C 295.96 28.30 293.97 31.24 292.09 34.22 C 289.37 35.02 286.65 35.84 283.95 36.72 C 285.11 37.49 286.29 38.26 287.46 39.03 C 285.43 43.75 282.67 48.13 280.89 52.96 C 289.97 57.82 298.91 62.93 307.95 67.87 C 308.68 69.46 309.72 70.86 310.91 72.13 C 314.94 73.52 318.84 75.25 322.73 76.99 C 322.70 78.68 322.61 80.38 322.60 82.07 C 324.44 83.22 326.15 84.65 328.20 85.41 C 331.48 84.94 334.67 83.96 337.90 83.21 C 341.04 78.86 344.30 74.61 347.50 70.31 C 347.37 57.40 346.43 44.54 346.34 31.62 C 347.76 29.74 349.72 29.03 352.03 29.58 C 352.66 31.25 353.30 32.91 353.95 34.58 C 354.27 34.58 354.90 34.58 355.22 34.57 C 355.15 32.66 355.29 30.72 354.95 28.83 C 353.14 26.37 350.38 24.81 348.36 22.53 C 347.57 21.39 348.68 20.27 349.23 19.32 C 352.48 14.52 355.92 9.84 359.00 4.92 Z" />
<path fill="#3e3e3e" opacity="1.00" d=" M 237.87 97.40 C 262.38 93.65 287.59 97.68 310.62 106.47 C 342.45 119.09 369.23 143.78 384.58 174.37 C 391.05 186.95 395.06 200.65 397.70 214.50 C 399.95 226.21 400.51 238.22 399.53 250.09 C 397.01 277.21 387.61 303.92 370.86 325.57 C 363.58 335.22 354.98 343.89 345.51 351.39 C 337.94 357.17 329.96 362.47 321.41 366.69 C 314.79 370.09 307.82 372.78 300.72 375.01 C 283.55 380.07 265.61 383.14 247.68 381.68 C 243.19 381.24 238.71 380.69 234.25 379.98 C 215.59 376.79 197.26 370.59 181.28 360.29 C 173.95 355.67 166.89 350.57 160.54 344.66 C 150.36 335.34 141.58 324.57 134.44 312.75 C 130.87 306.83 127.76 300.62 125.10 294.23 C 117.13 273.89 112.75 251.85 114.32 229.95 C 114.98 219.49 117.13 209.18 119.89 199.09 C 130.15 161.61 157.12 129.35 191.67 111.77 C 206.07 104.30 221.90 99.93 237.87 97.40 Z" />
<path fill="#f5e5c1" opacity="1.00" d=" M 242.51 109.79 C 270.04 106.69 298.51 112.63 322.41 126.66 C 346.49 140.55 365.78 162.47 376.60 188.07 C 387.74 213.99 390.01 243.60 383.02 270.93 C 376.76 295.80 362.92 318.73 343.79 335.81 C 326.46 351.34 304.93 362.11 282.09 366.56 C 255.82 371.76 227.97 368.59 203.58 357.52 C 174.88 344.72 151.25 321.08 138.46 292.37 C 127.99 269.27 124.58 243.07 128.70 218.06 C 133.69 186.92 150.49 157.81 175.08 138.05 C 194.24 122.44 217.95 112.54 242.51 109.79 Z" />
<path fill="#3e3e3e" opacity="1.00" d=" M 239.61 140.91 C 250.01 139.53 260.58 139.84 271.03 140.45 C 292.46 143.31 312.70 153.75 327.92 169.05 C 342.46 183.90 352.32 203.32 355.44 223.88 C 358.76 237.84 356.48 252.33 352.88 265.98 C 346.41 288.70 331.80 309.07 311.98 322.00 C 297.22 331.93 279.72 337.28 262.10 338.90 C 251.91 339.65 241.84 337.79 231.97 335.43 C 208.94 329.35 188.10 314.97 174.79 295.15 C 163.68 278.74 156.97 258.96 157.99 239.00 C 156.95 218.55 164.01 198.27 175.64 181.62 C 190.46 160.29 214.08 145.45 239.61 140.91 Z" />
<path fill="#f5e5c1" opacity="1.00" d=" M 244.60 157.91 C 261.15 155.52 278.44 157.98 293.42 165.54 C 311.15 174.22 325.43 189.60 332.87 207.88 C 340.89 227.27 341.01 249.80 333.21 269.28 C 326.03 287.47 312.13 302.90 294.71 311.81 C 281.94 318.47 267.39 321.62 253.00 320.86 C 232.63 320.06 212.81 311.04 198.54 296.53 C 183.87 281.63 175.10 260.97 175.06 240.02 C 174.65 221.03 181.34 202.06 193.31 187.35 C 205.94 171.59 224.66 160.97 244.60 157.91 Z" />
<path fill="#f4722b" opacity="1.00" d=" M 51.66 181.30 C 52.91 181.85 54.17 182.41 55.43 182.96 C 58.34 188.49 61.37 193.95 64.11 199.57 C 62.01 198.69 59.91 197.82 57.78 197.01 C 59.00 199.32 60.32 201.58 61.70 203.80 C 57.66 203.20 53.60 202.69 49.53 202.38 C 49.45 195.30 51.42 188.37 51.66 181.30 Z" />
<path fill="#3e3e3e" opacity="1.00" d=" M 245.66 188.02 C 257.11 186.02 269.47 186.55 279.99 191.94 C 294.19 198.63 304.92 212.10 308.37 227.40 C 312.15 241.41 308.64 256.75 300.69 268.68 C 290.67 283.89 272.19 292.81 254.08 291.84 C 245.14 291.00 236.28 288.28 228.74 283.32 C 216.00 275.14 207.00 261.17 205.26 246.08 C 204.85 238.47 204.66 230.62 207.22 223.32 C 212.59 205.83 227.78 191.90 245.66 188.02 Z" />
<path fill="#f4722b" opacity="1.00" d=" M 252.11 202.21 C 268.21 200.21 284.64 210.29 290.41 225.38 C 294.76 236.27 293.54 249.21 287.11 259.04 C 282.58 265.87 275.89 271.36 268.08 273.98 C 256.83 277.91 243.71 276.00 234.15 268.86 C 220.11 258.94 214.93 238.82 222.46 223.35 C 227.82 211.83 239.40 203.38 252.11 202.21 Z" />
<path fill="#f4722b" opacity="1.00" d=" M 50.84 202.82 C 57.69 204.49 62.39 210.14 66.84 215.19 C 70.35 222.87 73.26 230.83 76.43 238.67 C 78.72 244.87 82.96 250.04 86.42 255.60 C 88.23 258.57 90.78 261.36 91.17 264.96 C 91.86 271.24 92.50 277.53 93.34 283.80 C 91.61 284.86 89.93 286.02 88.41 287.37 C 84.87 282.42 81.39 277.42 78.42 272.11 C 74.51 263.21 71.00 254.14 67.47 245.09 C 63.42 239.83 58.50 235.10 52.60 231.98 C 55.64 232.25 58.68 232.52 61.72 232.83 C 60.38 230.66 59.06 228.48 57.74 226.30 C 59.79 226.90 61.84 227.50 63.89 228.10 C 62.50 225.26 61.08 222.44 59.56 219.68 C 56.66 214.05 53.16 208.72 50.84 202.82 Z" />
<path fill="#955735" opacity="1.00" d=" M 51.60 217.05 C 54.17 218.14 56.71 219.51 59.56 219.68 C 61.08 222.44 62.50 225.26 63.89 228.10 C 61.84 227.50 59.79 226.90 57.74 226.30 C 59.06 228.48 60.38 230.66 61.72 232.83 C 58.68 232.52 55.64 232.25 52.60 231.98 C 58.50 235.10 63.42 239.83 67.47 245.09 C 65.24 247.11 62.97 249.09 60.64 250.99 C 60.25 255.54 61.63 259.91 63.77 263.88 C 61.88 263.23 59.98 262.58 58.09 261.95 C 59.11 264.00 60.12 266.07 61.13 268.13 C 58.31 267.89 55.49 267.66 52.66 267.42 C 58.28 270.82 63.76 274.98 67.11 280.74 C 65.14 282.20 63.00 283.49 61.40 285.37 C 60.43 287.83 60.72 290.56 60.79 293.15 C 60.29 292.18 59.76 291.24 59.24 290.29 C 55.96 284.17 52.76 277.99 49.26 271.99 C 50.11 265.65 51.12 259.32 51.59 252.94 C 54.40 253.56 56.88 255.18 59.73 255.68 C 56.43 249.05 52.47 242.74 49.40 236.01 C 49.90 229.67 51.37 223.43 51.60 217.05 Z" />
<path fill="#f4722b" opacity="1.00" d=" M 454.98 255.67 C 456.71 249.60 458.23 243.48 459.74 237.35 C 460.48 241.08 463.32 243.79 464.96 247.09 C 463.21 255.19 461.22 263.23 458.59 271.10 C 457.88 273.51 457.42 275.98 456.83 278.42 C 456.28 280.52 455.57 282.57 454.86 284.62 C 451.34 284.63 447.83 284.73 444.32 284.90 C 445.03 287.30 445.74 289.69 446.47 292.09 C 445.46 293.72 444.43 295.34 443.40 296.96 C 438.30 304.42 433.88 312.32 428.80 319.79 C 426.79 323.46 422.08 322.83 418.57 323.63 C 417.13 331.70 416.69 339.92 415.03 347.96 C 409.69 348.28 404.34 348.09 398.99 348.08 C 393.58 347.85 388.89 350.95 384.36 353.48 C 381.66 354.84 381.40 358.15 380.47 360.69 C 378.06 358.69 375.80 356.36 372.90 355.06 C 370.30 354.85 367.72 355.36 365.16 355.69 C 365.42 353.38 365.67 351.07 365.90 348.76 C 362.35 352.27 359.42 356.34 355.83 359.81 C 352.13 357.34 348.68 354.51 345.51 351.39 C 354.98 343.89 363.58 335.22 370.86 325.57 C 375.18 325.47 377.49 329.80 380.51 332.18 C 381.04 330.06 381.54 327.94 381.87 325.78 C 386.21 323.55 390.39 320.84 395.07 319.34 C 401.77 318.80 408.52 319.33 415.24 319.14 C 416.44 310.94 417.31 302.70 418.52 294.50 C 421.38 294.03 424.26 293.58 427.14 293.21 C 433.71 283.19 440.08 273.05 446.62 263.01 C 445.82 260.56 445.02 258.10 444.23 255.65 C 447.81 255.61 451.40 255.62 454.98 255.67 Z" />
<path fill="#c26430" opacity="1.00" d=" M 67.47 245.09 C 71.00 254.14 74.51 263.21 78.42 272.11 C 75.09 275.64 70.59 277.85 67.58 281.70 C 67.46 281.46 67.22 280.98 67.11 280.74 C 63.76 274.98 58.28 270.82 52.66 267.42 C 55.49 267.66 58.31 267.89 61.13 268.13 C 60.12 266.07 59.11 264.00 58.09 261.95 C 59.98 262.58 61.88 263.23 63.77 263.88 C 61.63 259.91 60.25 255.54 60.64 250.99 C 62.97 249.09 65.24 247.11 67.47 245.09 Z" />
<path fill="#945635" opacity="1.00" d=" M 456.83 278.42 C 457.42 275.98 457.88 273.51 458.59 271.10 C 459.86 275.21 462.70 278.50 464.70 282.24 C 464.88 284.90 463.45 287.47 463.07 290.11 C 461.15 286.13 459.12 282.21 456.83 278.42 Z" />
<path fill="#d0682f" opacity="1.00" d=" M 78.42 272.11 C 81.39 277.42 84.87 282.42 88.41 287.37 C 89.29 288.76 90.15 290.18 90.98 291.60 C 86.64 296.35 79.73 298.09 76.45 303.91 C 76.35 303.65 76.15 303.13 76.05 302.87 C 73.65 295.65 70.70 288.63 67.58 281.70 C 70.59 277.85 75.09 275.64 78.42 272.11 Z" />
<path fill="#c26430" opacity="1.00" d=" M 454.86 284.62 C 455.57 282.57 456.28 280.52 456.83 278.42 C 459.12 282.21 461.15 286.13 463.07 290.11 L 463.53 291.06 C 461.78 296.03 460.48 301.15 458.60 306.09 C 457.94 308.61 457.57 311.19 457.03 313.74 C 456.84 314.36 456.48 315.60 456.30 316.22 C 455.92 311.77 454.47 307.14 451.05 304.08 C 448.45 301.76 445.78 299.52 443.40 296.96 C 444.43 295.34 445.46 293.72 446.47 292.09 C 445.74 289.69 445.03 287.30 444.32 284.90 C 447.83 284.73 451.34 284.63 454.86 284.62 Z" />
<path fill="#af5e32" opacity="1.00" d=" M 61.40 285.37 C 63.00 283.49 65.14 282.20 67.11 280.74 C 67.22 280.98 67.46 281.46 67.58 281.70 C 70.70 288.63 73.65 295.65 76.05 302.87 C 71.91 305.75 67.78 308.64 63.68 311.58 L 62.86 310.78 C 59.43 307.26 55.27 304.63 50.91 302.41 C 54.35 302.86 57.78 303.28 61.23 303.66 C 60.15 301.54 59.06 299.44 57.95 297.35 C 59.82 297.93 61.70 298.51 63.58 299.07 C 62.68 297.08 61.76 295.10 60.79 293.15 C 60.72 290.56 60.43 287.83 61.40 285.37 Z" />
<path fill="#714c39" opacity="1.00" d=" M 51.87 287.92 C 54.30 288.77 56.76 289.59 59.24 290.29 C 59.76 291.24 60.29 292.18 60.79 293.15 C 61.76 295.10 62.68 297.08 63.58 299.07 C 61.70 298.51 59.82 297.93 57.95 297.35 C 59.06 299.44 60.15 301.54 61.23 303.66 C 57.78 303.28 54.35 302.86 50.91 302.41 C 55.27 304.63 59.43 307.26 62.86 310.78 C 61.63 313.43 60.77 316.23 60.09 319.07 C 58.66 318.78 57.22 318.50 55.79 318.22 C 57.97 323.60 61.25 328.46 63.24 333.93 C 61.50 333.43 59.77 332.91 58.04 332.39 C 59.11 334.47 60.13 336.59 61.11 338.72 C 58.39 338.53 55.67 338.30 52.95 338.06 C 58.46 341.70 63.84 346.01 67.37 351.66 C 70.89 359.32 73.84 367.24 76.92 375.09 C 80.26 383.19 86.69 389.55 90.36 397.46 C 92.18 404.47 92.23 411.80 93.23 418.96 C 91.64 420.01 90.04 421.04 88.46 422.09 C 84.90 416.78 81.34 411.46 78.18 405.91 C 75.40 399.82 73.15 393.50 70.53 387.33 C 69.03 383.93 68.20 380.12 65.80 377.19 C 61.94 373.01 57.82 368.99 52.76 366.27 C 55.57 366.40 58.36 366.62 61.15 366.89 C 60.18 364.85 59.14 362.84 58.04 360.87 C 59.83 361.25 61.62 361.62 63.41 361.98 C 60.07 354.70 56.23 347.67 52.30 340.70 C 51.13 338.40 48.97 336.20 49.51 333.41 C 50.30 327.89 50.97 322.34 51.67 316.80 C 52.21 316.48 53.31 315.85 53.85 315.53 C 52.52 312.58 50.64 309.90 49.43 306.90 C 49.93 300.56 51.01 294.23 51.87 287.92 Z" />
<path fill="#da6a2e" opacity="1.00" d=" M 90.98 291.60 L 91.20 291.42 C 91.18 298.62 92.85 305.67 93.15 312.85 C 91.69 313.99 90.19 315.08 88.72 316.22 C 89.78 320.88 94.85 321.29 98.66 322.46 C 105.77 324.30 112.65 326.91 119.79 328.66 C 125.18 323.84 129.65 318.14 134.44 312.75 C 141.58 324.57 150.36 335.34 160.54 344.66 C 153.38 345.43 146.17 344.61 139.01 345.08 C 136.65 345.12 135.29 347.29 133.87 348.85 C 130.63 352.94 126.91 356.60 123.63 360.66 C 122.26 362.10 120.74 364.45 118.42 363.61 C 108.97 361.27 99.72 358.16 90.30 355.68 C 89.88 354.24 89.47 352.81 89.05 351.37 C 90.41 350.20 91.81 349.08 93.16 347.91 C 92.14 340.84 92.19 333.56 90.30 326.65 C 86.36 318.69 80.00 312.11 76.45 303.91 C 79.73 298.09 86.64 296.35 90.98 291.60 Z" />
<path fill="#f4722b" opacity="1.00" d=" M 91.20 291.42 C 101.01 293.65 110.52 297.05 120.19 299.82 C 121.83 297.96 123.47 296.10 125.10 294.23 C 127.76 300.62 130.87 306.83 134.44 312.75 C 129.65 318.14 125.18 323.84 119.79 328.66 C 112.65 326.91 105.77 324.30 98.66 322.46 C 94.85 321.29 89.78 320.88 88.72 316.22 C 90.19 315.08 91.69 313.99 93.15 312.85 C 92.85 305.67 91.18 298.62 91.20 291.42 Z" />
<path fill="#da6a2e" opacity="1.00" d=" M 428.80 319.79 C 433.88 312.32 438.30 304.42 443.40 296.96 C 445.78 299.52 448.45 301.76 451.05 304.08 C 454.47 307.14 455.92 311.77 456.30 316.22 C 455.90 317.41 455.44 318.59 454.99 319.77 C 451.47 319.83 447.96 319.94 444.44 320.08 C 444.93 322.10 445.46 324.11 446.01 326.12 C 445.44 330.42 442.52 333.80 440.32 337.36 C 436.42 343.17 432.90 349.22 429.04 355.05 C 426.92 358.81 422.05 358.39 418.42 359.36 C 417.05 367.47 416.82 375.76 414.91 383.77 C 409.28 383.97 403.65 383.70 398.02 383.81 C 393.11 383.83 388.79 386.44 384.64 388.74 C 381.76 390.13 381.28 393.57 380.12 396.22 C 377.95 394.29 375.95 392.12 373.46 390.59 C 370.63 390.22 367.79 390.82 364.97 391.04 C 365.49 388.56 366.01 386.08 366.51 383.60 C 362.66 387.15 359.69 391.49 356.12 395.29 C 351.16 392.31 347.06 388.17 342.14 385.14 C 340.70 385.71 339.27 386.27 337.84 386.84 C 333.23 383.22 328.78 379.39 324.41 375.49 C 321.79 373.36 322.05 369.68 321.41 366.69 C 329.96 362.47 337.94 357.17 345.51 351.39 C 348.68 354.51 352.13 357.34 355.83 359.81 C 359.42 356.34 362.35 352.27 365.90 348.76 C 365.67 351.07 365.42 353.38 365.16 355.69 C 367.72 355.36 370.30 354.85 372.90 355.06 C 375.80 356.36 378.06 358.69 380.47 360.69 C 381.40 358.15 381.66 354.84 384.36 353.48 C 388.89 350.95 393.58 347.85 398.99 348.08 C 404.34 348.09 409.69 348.28 415.03 347.96 C 416.69 339.92 417.13 331.70 418.57 323.63 C 422.08 322.83 426.79 323.46 428.80 319.79 Z" />
<path fill="#c36430" opacity="1.00" d=" M 63.68 311.58 C 67.78 308.64 71.91 305.75 76.05 302.87 C 76.15 303.13 76.35 303.65 76.45 303.91 C 80.00 312.11 86.36 318.69 90.30 326.65 C 92.19 333.56 92.14 340.84 93.16 347.91 C 91.81 349.08 90.41 350.20 89.05 351.37 C 89.47 352.81 89.88 354.24 90.30 355.68 C 99.72 358.16 108.97 361.27 118.42 363.61 C 120.74 364.45 122.26 362.10 123.63 360.66 C 126.91 356.60 130.63 352.94 133.87 348.85 C 135.29 347.29 136.65 345.12 139.01 345.08 C 146.17 344.61 153.38 345.43 160.54 344.66 C 166.89 350.57 173.95 355.67 181.28 360.29 C 178.86 361.37 175.44 361.56 174.30 364.34 C 171.47 369.40 170.86 375.79 167.01 380.17 C 157.26 381.10 147.36 379.63 137.64 380.74 C 131.54 386.30 126.87 393.31 120.84 398.97 C 119.81 400.11 118.25 399.13 117.02 399.00 C 109.03 396.60 101.07 394.09 93.01 391.92 C 91.24 391.60 89.63 390.47 89.35 388.59 C 88.46 386.02 91.81 385.17 93.24 383.80 C 92.31 376.65 92.12 369.34 90.34 362.35 C 86.58 354.54 80.30 348.16 77.00 340.08 C 74.13 332.91 71.30 325.73 68.29 318.62 C 67.18 316.02 65.70 313.57 63.68 311.58 Z" />
<path fill="#955735" opacity="1.00" d=" M 457.03 313.74 C 457.57 311.19 457.94 308.61 458.60 306.09 C 459.48 310.67 462.70 314.21 465.08 318.06 C 463.65 321.71 463.70 325.73 462.25 329.36 C 463.09 323.54 460.04 318.41 457.03 313.74 Z" />
<path fill="#955735" opacity="1.00" d=" M 62.86 310.78 L 63.68 311.58 C 65.70 313.57 67.18 316.02 68.29 318.62 C 71.30 325.73 74.13 332.91 77.00 340.08 C 80.30 348.16 86.58 354.54 90.34 362.35 C 92.12 369.34 92.31 376.65 93.24 383.80 C 91.81 385.17 88.46 386.02 89.35 388.59 C 89.63 390.47 91.24 391.60 93.01 391.92 C 101.07 394.09 109.03 396.60 117.02 399.00 C 118.25 399.13 119.81 400.11 120.84 398.97 C 126.87 393.31 131.54 386.30 137.64 380.74 C 147.36 379.63 157.26 381.10 167.01 380.17 C 170.86 375.79 171.47 369.40 174.30 364.34 C 175.44 361.56 178.86 361.37 181.28 360.29 C 197.26 370.59 215.59 376.79 234.25 379.98 C 234.06 380.70 233.68 382.14 233.49 382.86 C 229.99 383.48 226.46 383.77 222.94 384.15 C 217.14 384.72 212.14 388.01 206.61 389.54 C 197.01 392.20 187.24 394.17 177.60 396.63 C 174.85 397.03 174.07 399.91 173.09 402.07 C 171.31 406.59 169.60 411.14 167.61 415.57 C 158.40 415.80 149.18 415.36 139.98 415.65 C 136.96 415.57 135.08 418.29 133.19 420.23 C 129.05 425.17 124.66 429.89 120.46 434.76 C 113.57 433.23 106.91 430.87 100.12 428.97 C 96.72 428.01 93.21 427.14 90.20 425.19 C 89.58 424.17 89.00 423.14 88.46 422.09 C 90.04 421.04 91.64 420.01 93.23 418.96 C 92.23 411.80 92.18 404.47 90.36 397.46 C 86.69 389.55 80.26 383.19 76.92 375.09 C 73.84 367.24 70.89 359.32 67.37 351.66 C 63.84 346.01 58.46 341.70 52.95 338.06 C 55.67 338.30 58.39 338.53 61.11 338.72 C 60.13 336.59 59.11 334.47 58.04 332.39 C 59.77 332.91 61.50 333.43 63.24 333.93 C 61.25 328.46 57.97 323.60 55.79 318.22 C 57.22 318.50 58.66 318.78 60.09 319.07 C 60.77 316.23 61.63 313.43 62.86 310.78 Z" />
<path fill="#af5e32" opacity="1.00" d=" M 457.03 313.74 C 460.04 318.41 463.09 323.54 462.25 329.36 C 461.39 333.02 460.20 336.59 458.91 340.11 C 458.56 341.15 458.24 342.21 457.96 343.27 C 455.70 339.50 454.18 335.16 450.85 332.15 C 448.97 330.36 447.26 328.40 446.01 326.12 C 445.46 324.11 444.93 322.10 444.44 320.08 C 447.96 319.94 451.47 319.83 454.99 319.77 C 455.44 318.59 455.90 317.41 456.30 316.22 C 456.48 315.60 456.84 314.36 457.03 313.74 Z" />
<path fill="#c36430" opacity="1.00" d=" M 446.01 326.12 C 447.26 328.40 448.97 330.36 450.85 332.15 C 454.18 335.16 455.70 339.50 457.96 343.27 C 457.20 347.46 456.44 351.66 454.94 355.66 C 451.40 355.70 447.86 355.79 444.33 355.95 C 445.02 358.31 445.71 360.67 446.42 363.03 C 442.43 370.06 437.75 376.66 433.56 383.57 C 431.40 386.71 429.74 390.27 426.97 392.93 C 424.30 393.99 421.38 394.17 418.58 394.67 C 417.16 402.77 416.69 411.02 415.07 419.10 C 409.71 419.42 404.34 419.25 398.98 419.20 C 393.58 418.91 388.93 422.06 384.38 424.50 C 381.51 425.77 381.43 429.26 380.57 431.85 C 378.12 429.77 375.61 427.75 373.06 425.80 C 370.41 426.13 367.76 426.46 365.11 426.77 C 365.42 424.42 365.71 422.07 365.98 419.73 C 362.37 423.18 359.44 427.26 356.08 430.94 C 351.90 428.17 348.16 424.80 344.06 421.92 C 341.70 419.91 338.35 422.89 336.02 420.96 C 333.15 418.88 330.66 416.34 327.91 414.13 C 325.61 412.12 322.79 410.14 322.25 406.91 C 320.65 400.00 320.00 392.90 318.18 386.04 C 314.74 386.85 311.27 387.59 307.78 388.19 C 309.11 386.93 310.47 385.72 311.81 384.48 C 310.90 381.85 309.90 379.26 308.82 376.70 C 306.93 378.86 305.29 381.24 303.20 383.22 C 300.83 384.18 298.14 383.57 295.66 383.63 C 296.95 382.82 298.25 382.03 299.56 381.26 C 299.95 379.17 300.33 377.09 300.72 375.01 C 307.82 372.78 314.79 370.09 321.41 366.69 C 322.05 369.68 321.79 373.36 324.41 375.49 C 328.78 379.39 333.23 383.22 337.84 386.84 C 339.27 386.27 340.70 385.71 342.14 385.14 C 347.06 388.17 351.16 392.31 356.12 395.29 C 359.69 391.49 362.66 387.15 366.51 383.60 C 366.01 386.08 365.49 388.56 364.97 391.04 C 367.79 390.82 370.63 390.22 373.46 390.59 C 375.95 392.12 377.95 394.29 380.12 396.22 C 381.28 393.57 381.76 390.13 384.64 388.74 C 388.79 386.44 393.11 383.83 398.02 383.81 C 403.65 383.70 409.28 383.97 414.91 383.77 C 416.82 375.76 417.05 367.47 418.42 359.36 C 422.05 358.39 426.92 358.81 429.04 355.05 C 432.90 349.22 436.42 343.17 440.32 337.36 C 442.52 333.80 445.44 330.42 446.01 326.12 Z" />
<path fill="#955735" opacity="1.00" d=" M 457.96 343.27 C 458.24 342.21 458.56 341.15 458.91 340.11 C 458.41 342.89 459.68 345.40 460.88 347.81 C 461.79 350.04 463.00 352.25 463.28 354.69 C 462.57 360.26 459.08 365.20 459.15 370.94 C 459.12 377.76 456.81 384.25 454.92 390.72 C 451.54 390.77 448.17 390.85 444.80 390.93 C 445.27 393.29 445.90 395.64 445.97 398.07 C 445.37 400.50 443.79 402.53 442.49 404.64 C 437.67 411.83 433.25 419.28 428.43 426.46 C 426.39 429.73 421.88 428.80 418.63 429.62 C 417.11 437.72 416.72 445.99 415.04 454.07 C 408.17 454.73 401.20 453.58 394.38 454.65 C 390.31 456.27 386.38 458.39 382.78 460.87 C 381.65 462.67 381.18 464.79 380.50 466.78 C 378.05 464.75 375.57 462.77 373.04 460.84 C 370.42 461.15 367.80 461.45 365.18 461.75 C 365.42 459.42 365.64 457.10 365.85 454.78 C 362.32 458.28 359.39 462.31 356.03 465.97 C 351.85 463.18 348.11 459.81 344.05 456.88 C 341.66 454.91 338.24 458.12 335.92 456.05 C 332.94 453.74 330.30 451.02 327.35 448.68 C 325.25 446.83 322.64 445.00 322.21 442.02 C 320.71 435.07 319.95 427.98 318.13 421.09 C 314.73 421.89 311.31 422.60 307.86 423.17 C 309.10 421.95 310.38 420.78 311.64 419.59 C 310.97 416.85 309.90 414.23 308.50 411.79 C 306.78 413.96 305.31 416.37 303.21 418.21 C 300.81 419.42 298.00 418.51 295.45 418.40 C 296.82 417.73 298.20 417.06 299.59 416.41 C 299.68 408.85 305.57 403.57 308.46 397.05 C 307.11 395.38 305.75 393.71 304.40 392.04 C 298.25 399.86 293.40 408.61 287.05 416.28 C 283.48 410.64 280.39 404.72 276.93 399.02 C 274.93 395.82 273.58 392.13 270.90 389.41 C 269.09 389.86 267.38 390.63 265.66 391.31 C 263.33 388.70 261.10 386.01 258.94 383.27 C 256.53 384.31 254.13 385.35 251.74 386.43 C 250.35 384.88 248.99 383.29 247.68 381.68 C 265.61 383.14 283.55 380.07 300.72 375.01 C 300.33 377.09 299.95 379.17 299.56 381.26 C 298.25 382.03 296.95 382.82 295.66 383.63 C 298.14 383.57 300.83 384.18 303.20 383.22 C 305.29 381.24 306.93 378.86 308.82 376.70 C 309.90 379.26 310.90 381.85 311.81 384.48 C 310.47 385.72 309.11 386.93 307.78 388.19 C 311.27 387.59 314.74 386.85 318.18 386.04 C 320.00 392.90 320.65 400.00 322.25 406.91 C 322.79 410.14 325.61 412.12 327.91 414.13 C 330.66 416.34 333.15 418.88 336.02 420.96 C 338.35 422.89 341.70 419.91 344.06 421.92 C 348.16 424.80 351.90 428.17 356.08 430.94 C 359.44 427.26 362.37 423.18 365.98 419.73 C 365.71 422.07 365.42 424.42 365.11 426.77 C 367.76 426.46 370.41 426.13 373.06 425.80 C 375.61 427.75 378.12 429.77 380.57 431.85 C 381.43 429.26 381.51 425.77 384.38 424.50 C 388.93 422.06 393.58 418.91 398.98 419.20 C 404.34 419.25 409.71 419.42 415.07 419.10 C 416.69 411.02 417.16 402.77 418.58 394.67 C 421.38 394.17 424.30 393.99 426.97 392.93 C 429.74 390.27 431.40 386.71 433.56 383.57 C 437.75 376.66 442.43 370.06 446.42 363.03 C 445.71 360.67 445.02 358.31 444.33 355.95 C 447.86 355.79 451.40 355.70 454.94 355.66 C 456.44 351.66 457.20 347.46 457.96 343.27 Z" />
<path fill="#714c39" opacity="1.00" d=" M 460.88 347.81 C 462.70 349.68 465.56 351.91 464.63 354.87 C 463.20 360.58 460.85 366.10 460.21 371.99 C 459.96 376.46 466.16 379.12 464.45 383.70 C 460.88 395.28 458.41 407.18 454.99 418.81 C 451.54 418.82 448.09 418.90 444.66 419.06 C 444.77 422.15 447.30 425.48 445.31 428.37 C 439.31 437.70 433.28 447.02 427.34 456.39 C 424.37 456.91 421.40 457.49 418.45 458.13 C 417.31 466.18 416.55 474.29 415.10 482.30 C 410.09 482.52 405.07 482.45 400.05 482.39 C 397.55 482.42 394.86 482.15 392.64 483.53 C 389.36 485.35 385.84 486.77 382.68 488.79 C 381.57 490.73 381.12 492.96 380.40 495.06 C 378.15 493.19 376.11 491.05 373.65 489.46 C 370.81 488.86 367.85 489.72 364.99 489.91 C 365.42 487.53 365.81 485.16 366.16 482.78 C 362.20 485.92 359.96 490.87 355.95 493.80 C 350.92 491.16 347.07 486.69 342.11 483.87 C 340.48 484.29 338.86 485.48 337.13 485.12 C 333.83 482.71 331.06 479.67 327.81 477.20 C 325.71 475.33 322.98 473.64 322.41 470.69 C 320.71 463.55 320.02 456.20 318.10 449.12 C 314.43 450.13 310.74 451.09 307.00 451.80 C 308.56 450.45 310.15 449.13 311.75 447.83 C 310.92 445.04 310.07 442.22 308.37 439.83 C 306.71 442.05 305.12 444.33 303.59 446.64 C 300.99 446.93 298.38 447.03 295.78 446.87 C 297.07 446.05 298.38 445.26 299.69 444.48 C 299.58 437.14 305.25 431.93 308.45 425.85 C 307.27 423.85 305.81 422.03 304.18 420.40 C 298.31 428.29 293.30 436.84 286.99 444.39 C 281.52 435.35 276.58 425.98 270.94 417.05 C 269.12 418.04 267.27 418.97 265.39 419.85 C 263.36 417.02 261.26 414.25 259.03 411.58 C 256.60 412.54 254.18 413.53 251.78 414.57 C 249.30 412.63 247.41 409.39 244.01 409.10 C 241.12 408.61 238.19 408.45 235.27 408.33 C 234.32 409.33 233.49 410.51 232.31 411.28 C 227.69 412.26 222.81 411.74 218.30 413.33 C 213.41 415.05 208.73 417.41 203.65 418.58 C 194.18 420.78 184.71 423.00 175.30 425.45 C 172.41 431.36 170.33 437.62 167.66 443.63 C 158.75 443.75 149.85 443.64 140.95 443.64 C 136.42 443.03 134.22 447.69 131.51 450.42 C 127.60 454.50 124.32 459.31 119.96 462.85 C 110.06 460.42 100.40 457.04 90.55 454.40 C 89.96 452.93 89.38 451.46 88.80 450.01 C 90.30 449.01 91.81 448.02 93.32 447.03 C 92.32 439.75 91.94 432.36 90.20 425.19 C 93.21 427.14 96.72 428.01 100.12 428.97 C 106.91 430.87 113.57 433.23 120.46 434.76 C 124.66 429.89 129.05 425.17 133.19 420.23 C 135.08 418.29 136.96 415.57 139.98 415.65 C 149.18 415.36 158.40 415.80 167.61 415.57 C 169.60 411.14 171.31 406.59 173.09 402.07 C 174.07 399.91 174.85 397.03 177.60 396.63 C 187.24 394.17 197.01 392.20 206.61 389.54 C 212.14 388.01 217.14 384.72 222.94 384.15 C 226.46 383.77 229.99 383.48 233.49 382.86 C 233.68 382.14 234.06 380.70 234.25 379.98 C 238.71 380.69 243.19 381.24 247.68 381.68 C 248.99 383.29 250.35 384.88 251.74 386.43 C 254.13 385.35 256.53 384.31 258.94 383.27 C 261.10 386.01 263.33 388.70 265.66 391.31 C 267.38 390.63 269.09 389.86 270.90 389.41 C 273.58 392.13 274.93 395.82 276.93 399.02 C 280.39 404.72 283.48 410.64 287.05 416.28 C 293.40 408.61 298.25 399.86 304.40 392.04 C 305.75 393.71 307.11 395.38 308.46 397.05 C 305.57 403.57 299.68 408.85 299.59 416.41 C 298.20 417.06 296.82 417.73 295.45 418.40 C 298.00 418.51 300.81 419.42 303.21 418.21 C 305.31 416.37 306.78 413.96 308.50 411.79 C 309.90 414.23 310.97 416.85 311.64 419.59 C 310.38 420.78 309.10 421.95 307.86 423.17 C 311.31 422.60 314.73 421.89 318.13 421.09 C 319.95 427.98 320.71 435.07 322.21 442.02 C 322.64 445.00 325.25 446.83 327.35 448.68 C 330.30 451.02 332.94 453.74 335.92 456.05 C 338.24 458.12 341.66 454.91 344.05 456.88 C 348.11 459.81 351.85 463.18 356.03 465.97 C 359.39 462.31 362.32 458.28 365.85 454.78 C 365.64 457.10 365.42 459.42 365.18 461.75 C 367.80 461.45 370.42 461.15 373.04 460.84 C 375.57 462.77 378.05 464.75 380.50 466.78 C 381.18 464.79 381.65 462.67 382.78 460.87 C 386.38 458.39 390.31 456.27 394.38 454.65 C 401.20 453.58 408.17 454.73 415.04 454.07 C 416.72 445.99 417.11 437.72 418.63 429.62 C 421.88 428.80 426.39 429.73 428.43 426.46 C 433.25 419.28 437.67 411.83 442.49 404.64 C 443.79 402.53 445.37 400.50 445.97 398.07 C 445.90 395.64 445.27 393.29 444.80 390.93 C 448.17 390.85 451.54 390.77 454.92 390.72 C 456.81 384.25 459.12 377.76 459.15 370.94 C 459.08 365.20 462.57 360.26 463.28 354.69 C 463.00 352.25 461.79 350.04 460.88 347.81 Z" />
</svg>
