<?xml version="1.0" encoding="UTF-8" ?>
<!DOCTYPE svg PUBLIC "-//W3C//DTD SVG 1.1//EN" "http://www.w3.org/Graphics/SVG/1.1/DTD/svg11.dtd">
<svg width="512pt" height="512pt" viewBox="0 0 512 512" version="1.1" xmlns="http://www.w3.org/2000/svg">
<path fill="#3e3e3e" opacity="1.00" d=" M 0.00 0.00 L 64.53 0.00 C 63.97 8.08 62.85 16.10 62.02 24.15 C 73.40 25.54 84.83 26.53 96.20 28.02 C 84.54 29.60 72.84 30.88 61.16 32.33 C 59.74 45.97 57.83 59.57 57.17 73.28 C 61.00 75.35 64.86 78.30 65.78 82.82 C 67.76 89.54 62.90 96.52 56.38 98.29 C 59.78 100.00 63.33 102.12 64.91 105.77 C 67.81 111.50 66.00 119.02 60.97 122.95 C 58.64 124.78 55.78 125.72 53.34 127.36 C 52.13 133.15 52.79 139.20 51.26 144.96 C 43.18 176.05 35.27 207.18 27.15 238.26 C 22.70 251.90 17.72 265.36 13.14 278.95 C 10.49 287.92 4.32 295.17 0.00 303.33 L 0.00 0.00 Z" />
<path fill="#f5e5c1" opacity="1.00" d=" M 64.53 0.00 L 86.54 0.00 C 201.52 16.53 316.55 32.75 431.55 49.16 C 458.37 52.89 485.15 56.95 512.00 60.48 L 512.00 347.86 C 504.96 366.50 496.23 384.44 488.13 402.63 C 483.92 402.25 478.97 402.74 476.54 406.71 C 473.46 411.45 475.69 417.49 479.99 420.61 C 477.62 426.24 475.05 431.80 472.51 437.36 C 468.97 436.46 465.16 435.70 461.61 436.92 C 456.35 438.89 452.63 444.35 452.77 449.98 C 452.99 452.89 454.35 455.54 455.64 458.11 C 452.72 460.32 449.02 462.84 449.30 467.01 C 448.70 471.71 453.70 473.79 455.66 477.40 C 453.48 477.57 451.26 477.44 449.12 477.93 C 446.70 479.39 445.50 482.33 445.44 485.06 C 445.26 487.65 448.05 488.65 449.76 489.96 C 448.49 493.11 447.24 496.28 445.99 499.44 C 437.55 496.75 429.16 493.91 420.70 491.28 C 428.40 495.79 436.25 500.01 444.05 504.33 C 443.06 506.89 442.09 509.44 441.09 512.00 L 258.68 512.00 C 192.82 496.05 126.84 480.55 61.00 464.51 C 60.69 460.68 59.02 456.42 54.96 455.29 C 50.27 453.21 45.91 456.85 43.17 460.32 C 28.77 456.92 14.39 453.45 0.00 450.00 L 0.00 303.33 C 4.32 295.17 10.49 287.92 13.14 278.95 C 17.72 265.36 22.70 251.90 27.15 238.26 C 35.27 207.18 43.18 176.05 51.26 144.96 C 52.79 139.20 52.13 133.15 53.34 127.36 C 55.78 125.72 58.64 124.78 60.97 122.95 C 66.00 119.02 67.81 111.50 64.91 105.77 C 63.33 102.12 59.78 100.00 56.38 98.29 C 62.90 96.52 67.76 89.54 65.78 82.82 C 64.86 78.30 61.00 75.35 57.17 73.28 C 57.83 59.57 59.74 45.97 61.16 32.33 C 72.84 30.88 84.54 29.60 96.20 28.02 C 84.83 26.53 73.40 25.54 62.02 24.15 C 62.85 16.10 63.97 8.08 64.53 0.00 Z" />
<path fill="#3e3e3e" opacity="1.00" d=" M 86.54 0.00 L 512.00 0.00 L 512.00 60.48 C 485.15 56.95 458.37 52.89 431.55 49.16 C 316.55 32.75 201.52 16.53 86.54 0.00 Z" />
<path fill="#3e3e3e" opacity="1.00" d=" M 92.01 48.00 C 103.36 48.10 114.72 47.71 126.06 48.36 C 160.01 49.87 193.97 51.37 227.92 52.86 C 232.62 53.07 237.24 54.04 241.88 54.77 C 322.58 67.86 403.29 80.92 484.00 94.01 C 485.61 109.01 487.21 124.00 488.83 138.99 C 489.56 145.66 489.52 152.43 488.62 159.08 C 483.94 184.79 479.20 210.48 474.53 236.19 C 473.86 239.83 472.69 243.34 471.66 246.88 C 459.76 286.92 447.78 326.92 435.94 366.97 C 434.67 371.32 432.27 375.21 430.26 379.23 C 423.80 391.81 417.32 404.38 410.88 416.96 C 406.97 424.98 401.08 431.76 395.98 439.01 C 330.17 423.69 264.34 408.46 198.52 393.14 C 198.66 376.49 203.08 360.33 205.78 344.00 C 206.28 342.35 206.74 340.68 207.23 339.03 C 208.16 335.01 209.12 331.00 210.13 327.00 C 213.21 315.83 216.24 304.59 221.06 294.02 C 223.46 288.31 226.72 282.70 226.94 276.35 C 224.98 277.65 224.49 279.94 224.17 282.10 C 220.99 290.49 216.50 298.33 213.79 306.91 C 211.75 313.55 209.79 320.22 207.98 326.93 C 202.77 348.56 196.37 370.15 195.61 392.55 C 182.13 389.26 168.58 386.25 155.07 383.05 C 155.36 381.06 155.65 379.07 155.95 377.08 C 166.79 376.77 177.64 376.62 188.48 376.58 C 190.81 366.59 193.13 356.59 195.46 346.59 C 196.85 340.67 198.00 334.66 200.10 328.94 C 205.98 312.61 211.68 296.21 217.60 279.90 C 218.60 276.91 220.18 273.85 219.59 270.60 C 217.28 258.56 214.07 246.69 212.26 234.56 C 211.19 227.35 210.44 220.07 208.13 213.14 C 206.61 202.51 204.52 191.97 202.20 181.49 C 200.16 171.05 195.13 160.54 197.75 149.75 C 198.73 149.20 199.71 148.65 200.70 148.11 C 200.66 147.11 200.62 146.11 200.58 145.11 C 198.00 146.14 195.30 147.32 193.57 149.60 C 192.50 151.33 192.93 153.45 192.80 155.38 C 185.72 153.42 178.35 154.69 171.15 154.13 C 166.31 153.32 161.40 153.40 156.51 153.47 C 155.57 156.24 154.67 159.08 154.64 162.04 C 155.62 160.28 156.45 158.44 157.27 156.61 C 159.36 158.93 158.12 162.16 158.43 164.94 C 158.92 174.03 157.30 183.02 157.14 192.08 C 156.62 197.71 156.76 203.49 154.98 208.91 C 152.03 215.99 148.39 222.79 144.11 229.15 C 140.14 234.60 137.26 240.74 132.79 245.84 C 133.36 245.70 134.52 245.41 135.10 245.27 C 144.99 235.05 153.39 223.26 158.83 210.07 C 166.12 213.39 173.68 216.04 181.11 219.02 C 188.47 222.12 194.39 227.80 201.97 230.47 C 199.46 237.69 196.44 244.72 193.94 251.94 C 190.66 258.14 188.08 264.67 185.38 271.13 C 180.49 281.48 176.77 292.32 173.13 303.15 C 169.43 314.36 164.19 325.05 161.29 336.53 C 160.47 337.34 159.65 338.15 158.84 338.96 C 155.79 353.24 153.76 367.70 151.32 382.08 C 121.93 375.52 92.64 368.49 63.29 361.76 C 70.11 350.58 77.81 339.96 84.97 329.00 C 90.74 319.80 98.51 312.13 104.87 303.38 C 106.57 304.09 108.28 304.79 109.98 305.50 C 113.98 296.67 118.95 288.21 121.63 278.84 C 126.81 262.12 132.24 245.48 137.37 228.74 C 138.54 228.69 139.71 228.64 140.88 228.60 C 145.19 220.98 149.30 213.26 153.58 205.62 C 155.80 201.81 156.14 197.31 156.35 193.00 C 156.65 183.67 157.72 174.37 157.90 165.03 C 155.75 165.64 153.51 166.37 152.29 168.39 C 136.88 189.23 121.26 209.92 105.84 230.75 C 99.96 239.63 90.19 244.62 82.46 251.65 C 82.77 253.01 83.09 254.37 83.40 255.74 C 81.33 257.57 79.18 259.45 78.03 262.04 C 75.47 267.34 73.06 272.72 70.49 278.02 C 73.12 282.04 75.69 286.10 77.98 290.32 C 75.75 287.52 73.80 284.51 71.69 281.61 C 65.95 291.47 58.53 300.30 53.53 310.60 C 46.02 324.87 38.59 339.18 31.00 353.40 C 31.82 353.75 33.46 354.45 34.28 354.80 C 29.95 354.15 25.72 353.02 21.45 352.03 C 28.31 334.23 35.77 316.66 42.96 298.99 C 50.98 275.61 58.78 252.16 66.75 228.76 C 68.39 224.11 69.25 219.25 70.31 214.45 C 74.83 193.95 79.32 173.43 83.83 152.92 C 84.76 148.60 85.94 144.30 86.21 139.87 C 88.12 109.24 90.07 78.62 92.01 48.00 Z" />
<path fill="#f5e5c1" opacity="1.00" d=" M 277.40 91.49 C 284.51 91.83 291.64 90.64 298.71 91.79 C 298.64 92.17 298.49 92.93 298.42 93.31 C 291.45 94.45 284.37 93.93 277.40 94.68 C 272.66 97.30 268.71 101.15 264.29 104.25 C 260.31 106.84 259.95 111.94 257.84 115.81 C 255.89 119.43 255.24 123.50 254.59 127.50 C 254.81 127.55 255.25 127.65 255.47 127.69 C 255.45 127.07 255.43 126.44 255.42 125.82 C 257.57 123.90 259.80 122.08 262.12 120.35 C 267.23 122.44 266.97 128.87 266.61 133.48 C 261.50 137.91 256.54 142.50 251.50 147.01 C 255.28 151.62 259.26 156.07 262.82 160.86 C 260.53 165.32 261.11 170.61 258.82 175.02 C 254.99 176.98 253.68 181.71 252.19 185.48 C 253.97 185.28 255.77 185.06 257.54 184.74 C 255.95 184.63 254.37 184.54 252.79 184.42 C 254.32 181.01 255.99 177.56 258.82 175.02 C 259.58 174.93 261.10 174.75 261.86 174.66 L 260.03 174.62 C 261.32 170.00 260.65 164.52 263.97 160.67 C 264.46 156.78 263.70 152.47 266.19 149.11 C 268.50 145.79 269.66 141.12 273.82 139.63 C 276.17 144.71 278.99 149.57 281.03 154.80 C 277.70 157.36 274.04 160.47 273.57 164.94 C 272.90 169.18 276.41 173.03 280.12 174.41 C 285.51 174.45 290.20 171.23 295.20 169.62 C 289.97 175.43 287.64 183.05 283.83 189.74 C 282.18 189.63 280.50 189.68 278.88 189.32 C 276.23 186.59 274.98 182.86 273.59 179.40 C 272.61 177.59 274.95 176.42 275.78 175.08 C 269.20 176.53 262.25 177.71 256.56 181.53 C 261.35 181.75 265.75 179.57 270.25 178.25 C 270.75 179.58 271.29 180.90 271.82 182.23 C 272.49 182.35 273.84 182.60 274.51 182.72 C 274.62 184.43 274.74 186.15 274.83 187.87 C 271.15 189.53 268.88 193.13 265.28 194.85 C 263.45 191.83 260.86 189.43 258.13 187.25 C 256.49 187.43 254.85 187.60 253.21 187.74 C 253.20 187.91 253.17 188.24 253.15 188.40 C 258.46 188.57 261.34 193.42 264.82 196.67 C 264.58 197.05 264.08 197.82 263.84 198.20 C 262.02 200.96 260.39 203.84 258.80 206.74 C 256.63 206.88 254.43 207.39 252.27 207.05 C 250.51 206.17 249.04 204.86 247.56 203.59 C 244.20 200.81 242.72 196.56 241.25 192.60 C 239.21 186.72 237.43 180.33 239.06 174.12 C 240.94 167.50 243.69 161.13 247.26 155.25 C 250.03 151.14 247.60 146.11 248.51 141.61 C 249.42 137.61 251.22 133.90 252.80 130.14 C 249.77 132.46 246.59 135.34 242.42 134.59 C 244.28 132.15 247.02 130.74 249.97 130.09 C 250.69 129.46 251.42 128.82 252.14 128.19 C 252.28 121.66 254.36 115.40 256.24 109.21 C 257.17 105.56 260.84 103.85 263.50 101.61 C 268.21 98.34 272.41 94.31 277.40 91.49 Z" />
<path fill="#f5e5c1" opacity="1.00" d=" M 305.19 95.72 C 309.42 104.21 314.26 112.46 317.72 121.30 C 314.69 117.75 312.89 113.38 310.60 109.36 C 308.31 105.05 305.25 100.80 305.19 95.72 Z" />
<path fill="#f5e5c1" opacity="1.00" d=" M 192.96 112.00 C 194.07 109.90 194.92 107.69 195.78 105.48 C 201.94 107.04 209.18 105.30 214.55 109.27 C 211.70 109.21 208.87 108.74 206.16 107.87 C 206.29 108.28 206.55 109.12 206.68 109.54 C 209.40 109.48 212.14 109.47 214.84 109.85 C 216.40 110.38 217.97 110.89 219.51 111.49 C 215.39 111.73 211.25 111.67 207.17 111.15 C 203.69 110.47 200.56 108.59 197.01 108.20 C 196.09 111.44 195.07 114.65 194.13 117.88 C 192.84 121.98 191.83 126.19 189.82 130.02 C 188.91 132.89 188.34 135.98 186.54 138.48 C 186.01 133.84 188.06 129.57 189.15 125.18 C 190.27 120.75 190.83 116.11 192.96 112.00 Z" />
<path fill="#f4722b" opacity="1.00" d=" M 398.31 109.31 C 400.11 107.75 402.61 107.86 404.85 107.67 C 412.51 107.33 420.16 106.69 427.83 106.42 C 432.23 111.58 436.78 116.63 441.27 121.73 C 444.08 124.98 447.39 128.00 448.94 132.13 C 451.50 138.70 454.30 145.22 456.03 152.08 C 458.33 162.06 461.26 171.90 463.01 182.01 C 464.72 192.63 469.19 203.05 467.87 213.96 C 464.41 224.27 459.70 234.11 454.61 243.70 C 453.01 246.35 450.32 248.04 448.04 250.03 C 440.29 256.55 432.47 262.98 424.83 269.62 C 422.63 269.10 420.46 268.53 418.28 267.98 C 413.28 260.60 408.20 253.26 403.08 245.95 C 402.33 244.76 401.40 243.56 401.37 242.10 C 400.72 235.03 401.36 227.86 400.29 220.84 C 398.37 213.33 396.35 205.84 394.15 198.41 C 396.68 192.65 398.82 186.73 400.58 180.69 C 399.16 178.90 397.73 177.11 396.30 175.33 C 393.82 176.26 391.31 177.14 388.96 178.38 C 384.17 161.46 379.60 144.48 375.10 127.48 C 382.94 121.56 390.56 115.35 398.31 109.31 Z" />
<path fill="#f5e5c1" opacity="1.00" d=" M 200.33 113.42 C 202.75 113.52 205.18 113.58 207.61 113.63 C 207.63 114.06 207.65 114.91 207.67 115.34 C 205.46 115.41 203.26 115.48 201.06 115.58 C 198.65 121.55 196.38 127.62 195.32 134.00 C 194.62 138.18 193.19 142.43 190.27 145.61 C 190.21 142.90 190.18 140.05 191.55 137.62 C 193.43 133.92 194.70 129.97 195.61 125.94 C 196.57 121.56 198.66 117.56 200.33 113.42 Z" />
<path fill="#3e3e3e" opacity="1.00" d=" M 255.53 128.39 C 256.14 127.66 257.37 126.22 257.99 125.50 C 262.88 126.72 263.57 133.94 260.15 137.06 C 259.81 136.52 259.14 135.45 258.80 134.92 C 257.18 135.87 255.59 136.89 254.01 137.92 C 254.26 136.93 254.51 135.95 254.76 134.97 C 256.38 134.23 258.04 133.59 259.58 132.67 C 259.69 131.24 259.60 129.82 259.57 128.39 C 258.56 128.39 256.54 128.39 255.53 128.39 Z" />
<path fill="#f5e5c1" opacity="1.00" d=" M 292.00 127.00 C 295.93 128.74 299.94 130.32 303.87 132.09 C 308.37 133.90 310.15 139.29 314.92 140.72 C 312.02 147.26 309.39 153.91 306.42 160.41 C 304.31 163.69 300.68 165.62 297.73 168.07 C 296.36 163.87 296.96 158.79 293.53 155.48 C 291.67 153.01 288.43 153.31 285.69 153.29 C 282.35 148.30 279.87 142.84 277.22 137.48 C 280.78 138.11 284.34 138.80 287.89 139.52 C 289.37 135.38 290.67 131.19 292.00 127.00 Z" />
<path fill="#f4722b" opacity="1.00" d=" M 449.54 129.11 C 452.20 128.74 454.86 128.39 457.54 128.10 C 460.73 131.70 464.76 134.48 467.82 138.19 C 471.29 144.91 471.16 152.70 472.53 159.98 C 472.97 164.26 474.67 168.72 473.04 172.95 C 471.30 178.04 469.59 183.14 467.70 188.18 C 466.26 182.39 463.96 176.84 462.88 170.96 C 461.79 165.25 460.24 159.64 458.88 153.99 C 456.83 145.34 452.90 137.30 449.54 129.11 Z" />
<path fill="#f5e5c1" opacity="1.00" d=" M 213.21 149.62 C 220.37 144.77 227.05 139.28 234.14 134.34 C 234.47 134.86 235.12 135.90 235.45 136.42 C 238.37 136.81 241.24 137.75 243.11 140.18 C 240.41 140.81 237.37 141.11 235.55 138.56 C 229.17 142.65 222.64 146.78 217.66 152.58 C 216.10 154.34 215.54 156.67 214.96 158.89 C 213.41 157.62 211.58 156.57 210.40 154.92 C 209.69 152.70 211.88 151.05 213.21 149.62 Z" />
<path fill="#f5e5c1" opacity="1.00" d=" M 229.07 152.35 C 235.45 146.96 242.39 142.12 247.82 135.72 C 245.66 140.63 246.37 145.88 247.68 150.88 C 242.14 160.85 235.76 171.50 236.40 183.37 L 237.84 183.31 C 239.05 190.30 240.44 197.75 245.08 203.38 C 244.91 203.95 244.56 205.09 244.38 205.66 C 244.24 205.98 243.94 206.64 243.79 206.96 C 239.37 207.73 234.93 208.37 230.49 208.97 C 230.64 208.14 230.95 206.50 231.10 205.68 C 232.52 199.95 234.27 193.83 231.66 188.14 C 230.44 183.85 228.82 179.55 228.98 175.02 C 229.03 167.47 228.93 159.91 229.07 152.35 Z" />
<path fill="#3e3e3e" opacity="1.00" d=" M 418.95 140.20 C 426.94 139.35 434.18 144.01 439.04 149.96 C 441.58 153.82 442.54 158.48 443.25 162.97 C 444.22 172.63 443.55 182.34 443.43 192.02 C 443.39 196.31 442.35 200.49 441.54 204.68 C 440.34 210.69 436.81 215.82 434.00 221.16 C 432.38 224.24 430.56 227.23 428.26 229.86 C 431.47 222.84 435.81 216.33 438.19 208.93 C 441.12 200.94 440.25 192.30 441.14 183.98 C 441.45 174.56 441.72 164.94 439.26 155.76 C 438.18 151.18 434.54 147.49 430.16 145.93 C 425.52 144.42 420.62 144.85 415.89 145.55 C 419.86 143.84 424.24 144.29 428.44 144.27 C 426.35 140.99 422.39 140.83 418.95 140.20 Z" />
<path fill="#f5e5c1" opacity="1.00" d=" M 284.41 156.58 C 286.17 155.95 288.05 155.27 289.96 155.66 C 293.14 157.48 294.93 161.43 294.05 165.02 C 293.34 168.35 290.03 170.15 287.21 171.51 C 282.74 174.02 276.43 169.96 276.55 164.92 C 277.33 160.94 280.69 157.90 284.41 156.58 Z" />
<path fill="#3e3e3e" opacity="1.00" d=" M 193.66 159.01 C 194.07 159.36 194.90 160.06 195.32 160.40 C 196.86 166.93 197.84 173.59 199.66 180.05 C 202.91 191.55 204.40 203.44 207.19 215.04 C 208.16 217.71 205.87 219.89 204.95 222.21 C 200.21 223.62 196.54 220.01 192.46 218.35 C 186.49 215.61 180.20 213.56 174.47 210.32 C 171.14 208.45 167.68 206.83 164.25 205.17 C 164.36 204.44 164.58 202.97 164.69 202.24 C 164.14 202.76 163.05 203.80 162.50 204.32 C 164.32 192.80 166.86 181.30 166.72 169.57 C 171.21 167.01 175.96 164.88 180.89 163.29 C 184.96 161.98 189.30 162.43 193.50 162.56 C 193.54 161.68 193.62 159.90 193.66 159.01 Z" />
<path fill="#f4722b" opacity="1.00" d=" M 152.29 168.39 C 153.51 166.37 155.75 165.64 157.90 165.03 C 157.72 174.37 156.65 183.67 156.35 193.00 C 156.14 197.31 155.80 201.81 153.58 205.62 C 149.30 213.26 145.19 220.98 140.88 228.60 C 139.71 228.64 138.54 228.69 137.37 228.74 C 132.24 245.48 126.81 262.12 121.63 278.84 C 118.95 288.21 113.98 296.67 109.98 305.50 C 108.28 304.79 106.57 304.09 104.87 303.38 C 97.57 300.34 90.41 296.97 83.12 293.89 C 81.26 292.97 78.95 292.34 77.98 290.32 C 75.69 286.10 73.12 282.04 70.49 278.02 C 73.06 272.72 75.47 267.34 78.03 262.04 C 79.18 259.45 81.33 257.57 83.40 255.74 C 83.09 254.37 82.77 253.01 82.46 251.65 C 90.19 244.62 99.96 239.63 105.84 230.75 C 121.26 209.92 136.88 189.23 152.29 168.39 Z" />
<path fill="#f5e5c1" opacity="1.00" d=" M 292.09 175.96 C 293.20 171.64 297.90 170.14 301.28 167.96 C 299.31 171.66 295.56 173.87 292.09 175.96 Z" />
<path fill="#3e3e3e" opacity="1.00" d=" M 252.19 185.48 C 253.68 181.71 254.99 176.98 258.82 175.02 C 255.99 177.56 254.32 181.01 252.79 184.42 C 254.37 184.54 255.95 184.63 257.54 184.74 C 255.77 185.06 253.97 185.28 252.19 185.48 Z" />
<path fill="#f5e5c1" opacity="1.00" d=" M 388.96 178.38 C 391.31 177.14 393.82 176.26 396.30 175.33 C 397.73 177.11 399.16 178.90 400.58 180.69 C 398.82 186.73 396.68 192.65 394.15 198.41 C 392.23 201.20 392.91 204.26 394.40 207.06 C 392.46 208.70 390.51 210.34 388.58 212.00 C 385.12 210.31 381.71 208.51 378.11 207.14 C 377.60 205.83 377.03 204.53 376.71 203.17 C 377.59 197.01 380.17 191.29 382.46 185.56 C 383.54 182.37 386.43 180.37 388.96 178.38 Z" />
<path fill="#f4722b" opacity="1.00" d=" M 215.93 205.03 C 221.24 199.46 226.15 193.51 231.66 188.14 C 234.27 193.83 232.52 199.95 231.10 205.68 C 227.87 216.80 225.63 228.18 222.57 239.35 C 220.02 227.98 217.99 216.49 215.93 205.03 Z" />
<path fill="#f4722b" opacity="1.00" d=" M 258.80 206.74 C 260.39 203.84 262.02 200.96 263.84 198.20 C 263.57 201.25 264.42 204.83 262.34 207.42 C 256.58 214.90 250.24 221.95 244.67 229.57 C 238.88 241.62 234.17 254.19 228.44 266.29 C 226.60 258.81 224.18 251.46 222.66 243.91 C 229.04 231.27 237.22 219.53 243.79 206.96 C 243.94 206.64 244.24 205.98 244.38 205.66 C 245.42 204.93 246.48 204.24 247.56 203.59 C 249.04 204.86 250.51 206.17 252.27 207.05 C 254.43 207.39 256.63 206.88 258.80 206.74 Z" />
<path fill="#f5e5c1" opacity="1.00" d=" M 278.36 199.04 C 281.18 199.08 281.29 202.18 281.79 204.15 C 282.72 207.75 281.69 211.41 281.52 215.02 C 281.26 219.86 280.16 224.66 278.20 229.09 C 276.01 232.82 274.76 237.35 271.32 240.18 C 268.27 241.13 265.09 241.55 261.97 242.18 C 256.17 242.63 250.36 243.30 244.68 244.56 C 240.04 253.89 236.38 263.68 230.98 272.63 C 230.50 272.62 229.54 272.62 229.06 272.62 C 230.22 268.06 233.20 264.32 234.84 259.96 C 240.20 246.76 246.87 234.13 252.26 220.95 C 253.40 222.19 253.62 223.56 252.92 225.08 C 251.18 230.89 248.33 236.26 246.06 241.85 C 251.76 241.63 257.37 240.60 263.04 240.02 C 266.47 239.48 270.56 238.95 272.47 235.61 C 278.45 224.55 280.45 211.43 278.36 199.04 Z" />
<path fill="#f4722b" opacity="1.00" d=" M 166.18 222.19 C 166.94 222.24 168.47 222.34 169.23 222.39 C 167.93 227.70 164.65 232.13 161.64 236.58 C 160.12 238.79 158.51 241.31 155.66 241.87 C 155.68 239.97 154.75 237.75 156.14 236.13 C 159.44 231.45 163.18 227.08 166.18 222.19 Z" />
<path fill="#f4722b" opacity="1.00" d=" M 280.99 224.47 C 283.45 226.12 286.64 227.39 287.54 230.52 C 293.10 244.65 298.86 258.71 304.39 272.85 C 305.65 273.23 306.93 273.60 308.20 273.98 C 307.47 275.47 306.74 276.97 306.01 278.46 C 304.94 280.47 303.91 282.64 304.25 284.98 C 305.37 297.29 306.48 309.61 307.52 321.93 C 309.64 322.11 311.76 322.31 313.90 322.36 C 313.43 324.08 312.96 325.81 312.50 327.54 C 309.82 329.05 307.21 331.12 303.98 331.13 C 294.64 331.61 285.30 332.08 275.96 332.45 C 276.16 330.51 276.36 328.57 276.57 326.63 C 272.13 324.51 267.64 322.51 263.09 320.64 C 262.99 313.73 263.45 306.83 263.43 299.93 C 263.53 298.45 262.92 297.11 262.14 295.91 C 256.35 287.02 250.24 278.32 244.70 269.27 C 251.50 263.56 257.04 256.59 262.82 249.90 C 265.61 246.63 267.97 242.94 271.32 240.18 C 274.76 237.35 276.01 232.82 278.20 229.09 C 279.05 227.50 280.04 225.99 280.99 224.47 Z" />
<path fill="#f4722b" opacity="1.00" d=" M 174.67 226.04 C 175.65 226.27 176.61 226.57 177.56 226.95 C 176.93 230.12 175.28 232.94 173.77 235.74 C 171.33 240.11 169.08 244.60 166.12 248.65 C 165.11 246.84 162.32 245.06 163.73 242.74 C 166.90 236.87 171.64 232.01 174.67 226.04 Z" />
<path fill="#f4722b" opacity="1.00" d=" M 208.79 228.83 C 209.24 228.61 210.14 228.15 210.58 227.92 C 211.09 230.14 211.83 232.31 212.26 234.56 C 214.07 246.69 217.28 258.56 219.59 270.60 C 220.18 273.85 218.60 276.91 217.60 279.90 C 211.68 296.21 205.98 312.61 200.10 328.94 C 198.00 334.66 196.85 340.67 195.46 346.59 C 193.13 356.59 190.81 366.59 188.48 376.58 C 177.64 376.62 166.79 376.77 155.95 377.08 C 156.98 366.15 158.56 355.11 162.50 344.80 C 167.01 329.96 172.80 315.56 178.56 301.17 C 182.77 292.83 185.36 283.80 189.54 275.44 C 193.06 268.43 194.78 260.69 198.00 253.56 C 201.36 247.09 204.61 240.55 207.09 233.68 C 207.67 232.07 208.21 230.45 208.79 228.83 Z" />
<path fill="#f4722b" opacity="1.00" d=" M 179.51 235.58 C 180.67 234.02 182.56 230.92 184.57 233.29 C 185.50 236.19 183.21 238.48 181.81 240.73 C 179.15 244.41 176.87 248.53 173.29 251.41 C 172.14 251.53 171.00 251.58 169.86 251.55 C 171.85 245.57 176.09 240.77 179.51 235.58 Z" />
<path fill="#3e3e3e" opacity="1.00" d=" M 198.00 253.56 C 199.80 246.46 203.12 239.81 207.09 233.68 C 204.61 240.55 201.36 247.09 198.00 253.56 Z" />
<path fill="#f4722b" opacity="1.00" d=" M 182.27 247.34 C 185.37 243.55 187.62 239.08 191.32 235.79 C 191.88 238.18 191.93 240.74 190.53 242.87 C 187.51 248.28 184.41 253.80 179.89 258.13 C 179.30 256.75 178.47 255.43 178.22 253.93 C 178.83 251.37 180.79 249.44 182.27 247.34 Z" />
<path fill="#f5e5c1" opacity="1.00" d=" M 311.00 273.01 C 326.01 265.70 341.00 258.34 356.00 251.01 C 356.64 255.55 356.07 260.48 358.34 264.65 C 362.04 271.72 365.81 278.77 369.38 285.91 C 371.92 286.15 374.47 286.33 377.03 286.50 C 361.03 296.33 345.02 306.16 329.05 316.05 C 324.44 319.05 319.15 320.84 313.90 322.36 C 311.76 322.31 309.64 322.11 307.52 321.93 C 306.48 309.61 305.37 297.29 304.25 284.98 C 303.91 282.64 304.94 280.47 306.01 278.46 C 307.40 276.44 308.60 274.02 311.00 273.01 Z" />
<path fill="#f5e5c1" opacity="1.00" d=" M 109.98 320.25 C 111.19 316.57 110.84 311.81 114.24 309.28 C 113.35 315.25 111.50 321.02 110.57 326.99 C 110.14 329.80 110.56 333.18 113.04 334.97 C 116.36 337.55 120.18 339.37 123.93 341.24 C 124.97 341.54 126.01 341.87 127.03 342.24 C 130.56 342.44 134.11 342.94 137.37 344.40 C 127.80 346.00 118.38 341.78 111.25 335.68 C 106.66 331.76 109.01 325.24 109.98 320.25 Z" />
<path fill="#f5e5c1" opacity="1.00" d=" M 145.17 333.03 C 147.69 329.12 150.43 325.29 153.88 322.12 C 155.18 323.35 156.49 324.58 157.77 325.83 C 156.19 325.70 154.61 325.55 153.03 325.40 C 150.17 329.44 146.95 333.25 144.68 337.68 C 143.24 340.39 142.31 343.49 139.98 345.64 C 140.39 341.00 142.78 336.91 145.17 333.03 Z" />
<path fill="#f5e5c1" opacity="1.00" d=" M 115.35 330.38 C 115.83 328.73 116.35 327.09 116.90 325.47 C 119.88 325.78 119.65 328.30 119.44 330.57 C 118.08 330.53 116.71 330.46 115.35 330.38 Z" />
<path fill="#f5e5c1" opacity="1.00" d=" M 213.18 344.03 C 213.87 338.30 212.71 332.18 215.27 326.80 C 216.20 333.92 214.74 341.02 214.38 348.13 C 218.47 346.00 222.58 343.73 225.72 340.26 C 225.60 341.61 225.49 342.96 225.38 344.31 C 220.80 346.30 216.83 349.45 212.16 351.25 C 212.33 348.82 212.65 346.40 213.18 344.03 Z" />
<path fill="#f5e5c1" opacity="1.00" d=" M 134.55 333.70 C 135.65 333.65 136.76 333.61 137.87 333.58 C 137.55 335.55 136.25 336.96 134.66 338.05 C 134.59 336.59 134.56 335.15 134.55 333.70 Z" />
<path fill="#3e3e3e" opacity="1.00" d=" M 488.13 402.63 C 496.23 384.44 504.96 366.50 512.00 347.86 L 512.00 512.00 L 441.09 512.00 C 442.09 509.44 443.06 506.89 444.05 504.33 C 436.25 500.01 428.40 495.79 420.70 491.28 C 429.16 493.91 437.55 496.75 445.99 499.44 C 447.24 496.28 448.49 493.11 449.76 489.96 C 448.05 488.65 445.26 487.65 445.44 485.06 C 445.50 482.33 446.70 479.39 449.12 477.93 C 451.26 477.44 453.48 477.57 455.66 477.40 C 453.70 473.79 448.70 471.71 449.30 467.01 C 449.02 462.84 452.72 460.32 455.64 458.11 C 454.35 455.54 452.99 452.89 452.77 449.98 C 452.63 444.35 456.35 438.89 461.61 436.92 C 465.16 435.70 468.97 436.46 472.51 437.36 C 475.05 431.80 477.62 426.24 479.99 420.61 C 475.69 417.49 473.46 411.45 476.54 406.71 C 478.97 402.74 483.92 402.25 488.13 402.63 Z" />
<path fill="#3e3e3e" opacity="1.00" d=" M 0.00 450.00 C 14.39 453.45 28.77 456.92 43.17 460.32 C 45.91 456.85 50.27 453.21 54.96 455.29 C 59.02 456.42 60.69 460.68 61.00 464.51 C 126.84 480.55 192.82 496.05 258.68 512.00 L 0.00 512.00 L 0.00 450.00 Z" />
<path fill="#3e3e3e" opacity="1.00" d=" M 440.72 471.81 C 442.79 469.34 446.85 470.93 447.44 473.88 C 447.30 475.46 446.68 476.94 446.22 478.45 C 444.41 478.50 442.60 478.50 440.79 478.46 C 440.12 476.31 438.64 473.66 440.72 471.81 Z" />
</svg>
