<?xml version="1.0" encoding="UTF-8" standalone="no"?>
<svg
   xmlns:dc="http://purl.org/dc/elements/1.1/"
   xmlns:cc="http://creativecommons.org/ns#"
   xmlns:rdf="http://www.w3.org/1999/02/22-rdf-syntax-ns#"
   xmlns:svg="http://www.w3.org/2000/svg"
   xmlns="http://www.w3.org/2000/svg"
   xmlns:sodipodi="http://sodipodi.sourceforge.net/DTD/sodipodi-0.dtd"
   xmlns:inkscape="http://www.inkscape.org/namespaces/inkscape"
   width="1280"
   height="1280"
   viewBox="0 0 1024 1024"
   version="1.1"
   id="svg2"
   inkscape:version="0.48.1 "
   sodipodi:docname="freezecam_hat.svg">
  <metadata
     id="metadata88">
    <rdf:RDF>
      <cc:Work
         rdf:about="">
        <dc:format>image/svg+xml</dc:format>
        <dc:type
           rdf:resource="http://purl.org/dc/dcmitype/StillImage" />
      </cc:Work>
    </rdf:RDF>
  </metadata>
  <defs
     id="defs86" />
  <sodipodi:namedview
     pagecolor="#ffffff"
     bordercolor="#666666"
     borderopacity="1"
     objecttolerance="10"
     gridtolerance="10"
     guidetolerance="10"
     inkscape:pageopacity="0"
     inkscape:pageshadow="2"
     inkscape:window-width="1920"
     inkscape:window-height="1018"
     id="namedview84"
     showgrid="false"
     inkscape:snap-page="true"
     inkscape:zoom="0.6609375"
     inkscape:cx="640"
     inkscape:cy="640"
     inkscape:window-x="-8"
     inkscape:window-y="-8"
     inkscape:window-maximized="1"
     inkscape:current-layer="svg2"
     fit-margin-top="0"
     fit-margin-left="0"
     fit-margin-right="0"
     fit-margin-bottom="0" />
  <rect
     style="fill:#3e3e3e;fill-opacity:1;fill-rule:nonzero;stroke:none"
     id="rect3065"
     width="1024"
     height="1024"
     x="0"
     y="2.2737368e-013" />
  <path
     style="fill:#f5e5c1"
     d="m 129.05,0 c -1.12,16.16 -3.34,32.2 -5,48.3 22.76,2.78 45.61,4.77 68.35,7.75 -23.32,3.16 -46.74,5.7 -70.1,8.6 -2.84,27.28 -6.63,54.48 -7.95,81.9 7.66,4.14 15.36,10.06 17.2,19.1 3.96,13.44 -5.76,27.41 -18.8,30.95 6.8,3.42 13.89,7.65 17.05,14.95 5.8,11.46 2.21,26.49 -7.85,34.35 -4.66,3.66 -10.37,5.52 -15.25,8.8 -2.42,11.58 -1.14,23.68 -4.2,35.2 -16.16,62.18 -31.96,124.44 -48.2,186.6 -8.9,27.28 -18.84,54.22 -28,81.4 C 21,575.84 8.64,590.33 0,606.65 L 0,900 c 28.78,6.9 57.55,13.85 86.35,20.65 5.48,-6.94 14.17,-14.21 23.55,-10.05 8.12,2.26 11.48,10.74 12.1,18.4 131.68,32.08 263.63,63.1 395.35,95 l 364.85,0 c 2,-5.12 3.92,-10.23 5.9,-15.35 -15.6,-8.64 -31.3,-17.08 -46.7,-26.1 16.92,5.26 33.72,10.97 50.6,16.35 2.5,-6.32 4.96,-12.7 7.5,-19 -3.42,-2.62 -8.96,-4.62 -8.6,-9.8 0.12,-5.46 2.51,-11.33 7.35,-14.25 4.28,-0.98 8.69,-0.71 13.05,-1.05 -3.92,-7.22 -13.9,-11.4 -12.7,-20.8 -0.56,-8.34 6.86,-13.38 12.7,-17.8 -2.58,-5.14 -5.31,-10.43 -5.75,-16.25 -0.28,-11.26 7.13,-22.16 17.65,-26.1 7.1,-2.44 14.72,-0.95 21.8,0.85 5.08,-11.12 10.26,-22.24 15,-33.5 -8.6,-6.24 -13.06,-18.32 -6.9,-27.8 4.86,-7.94 14.73,-8.91 23.15,-8.15 16.2,-36.38 33.67,-72.27 47.75,-109.55 l 0,-574.75 C 970.3,113.89 916.74,105.76 863.1,98.3 633.1,65.48 403.06,33.06 173.1,0 z m 89.05,95.95 c 11.3525,-0.008 22.66,0.1 34,0.75 67.9,3.02 135.85,6.02 203.75,9 9.4,0.42 18.62,2.39 27.9,3.85 161.4,26.18 322.83,52.27 484.25,78.45 3.22,30 6.41,60.02 9.65,90 1.46,13.34 1.4,26.85 -0.4,40.15 -9.36,51.42 -18.86,102.83 -28.2,154.25 -1.34,7.28 -3.69,14.27 -5.75,21.35 -23.8,80.08 -47.72,160.1 -71.4,240.2 -2.54,8.7 -7.38,16.46 -11.4,24.5 -12.92,25.16 -25.87,50.29 -38.75,75.45 -7.82,16.04 -19.6,29.6 -29.8,44.1 -131.62,-30.64 -263.26,-61.06 -394.9,-91.7 0.28,-33.3 9.1,-65.64 14.5,-98.3 1,-3.3 1.92,-6.65 2.9,-9.95 1.86,-8.04 3.78,-16.05 5.8,-24.05 6.16,-22.34 12.21,-44.81 21.85,-65.95 4.8,-11.42 11.36,-22.65 11.8,-35.35 -3.92,2.6 -4.91,7.18 -5.55,11.5 -6.36,16.78 -15.33,32.44 -20.75,49.6 -4.08,13.28 -8.03,26.63 -11.65,40.05 -10.42,43.26 -23.23,86.45 -24.75,131.25 -26.96,-6.58 -54.03,-12.6 -81.05,-19 0.58,-3.98 1.15,-7.97 1.75,-11.95 2.06,-21.86 5.22,-43.93 13.1,-64.55 9.02,-29.68 20.58,-58.47 32.1,-87.25 8.42,-16.68 13.64,-34.73 22,-51.45 7.04,-14.02 10.46,-29.54 16.9,-43.8 11.59941,-13.4457 19.86838,-31.55176 28.5,-38 -2.14,-14.42 -3.63,-28.94 -8.25,-42.8 -3.04,-21.26 -7.21,-42.34 -11.85,-63.3 -4.08,-20.88 -14.14,-41.92 -8.9,-63.5 1.96,-1.1 3.92,-2.22 5.9,-3.3 l -0.25,-6 c -5.16,2.06 -10.54,4.44 -14,9 -2.14,3.46 -1.29,7.69 -1.55,11.55 -14.16,-3.92 -28.9,-1.38 -43.3,-2.5 -9.68,-1.62 -19.52,-1.44 -29.3,-1.3 -1.88,5.54 -3.64,11.23 -3.7,17.15 1.96,-3.52 3.61,-7.24 5.25,-10.9 4.18,4.64 1.68,11.14 2.3,16.7 0.98,18.18 -2.23,36.13 -2.55,54.25 -1.04,11.26 -0.79,22.81 -4.35,33.65 -5.9,14.16 -13.19,27.78 -21.75,40.5 -7.94,10.9 -13.66,23.2 -22.6,33.4 1.14,-0.28 3.44,-0.87 4.6,-1.15 19.78,-20.44 36.57,-44.02 47.45,-70.4 14.58,6.64 29.69,11.94 44.55,17.9 14.72,6.2 26.59,17.56 41.75,22.9 -5.02,14.44 -11.05,28.51 -16.05,42.95 -6.56,12.4 -11.75,25.43 -17.15,38.35 -9.78,20.7 -17.22,42.39 -24.5,64.05 -7.4,22.42 -17.85,43.79 -23.65,66.75 -1.64,1.62 -3.28,3.23 -4.9,4.85 -6.1,28.56 -10.17,57.49 -15.05,86.25 C 243.87,751.03 185.3,736.96 126.6,723.5 c 13.64,-22.36 29.03,-43.58 43.35,-65.5 11.54,-18.4 27.08,-33.75 39.8,-51.25 -14.6,-6.08 -28.92,-12.79 -43.5,-18.95 -3.72,-1.84 -8.36,-3.11 -10.3,-7.15 -4.46,-5.6 -8.33,-11.65 -12.55,-17.45 -11.48,19.72 -26.35,37.4 -36.35,58 C 92.03,649.74 77.18,678.36 62,706.8 l 6.55,2.8 c -8.66,-1.3 -17.11,-3.57 -25.65,-5.55 13.72,-35.6 28.62,-70.71 43,-106.05 16.04,-46.76 31.66,-93.7 47.6,-140.5 3.28,-9.3 4.98,-19 7.1,-28.6 9.04,-41 18.03,-82.03 27.05,-123.05 1.86,-8.64 4.21,-17.24 4.75,-26.1 3.82,-61.26 7.72,-122.51 11.6,-183.75 11.35,0.1 22.7475,-0.0425 34.1,-0.05 z M 387.3,318 c 0.82,0.7 2.51,2.12 3.35,2.8 3.08,13.06 5.01,26.38 8.65,39.3 6.5,23 9.52,46.8 15.1,70 1.94,5.34 -2.66,9.66 -4.5,14.3 -9.48,2.82 -16.84,-4.38 -25,-7.7 -11.94,-5.48 -24.49,-9.57 -35.95,-16.05 -6.66,-3.74 -13.59,-6.98 -20.45,-10.3 0.22,-1.46 0.68,-4.39 0.9,-5.85 -1.1,1.04 -3.3,3.11 -4.4,4.15 3.64,-23.04 8.73,-46.04 8.45,-69.5 8.98,-5.12 18.49,-9.37 28.35,-12.55 8.14,-2.62 16.8,-1.76 25.2,-1.5 0.08,-1.76 0.22,-5.32 0.3,-7.1 z m 498.85,623.2 c 3.82325,-0.26974 7.93875,2.49374 8.75,6.55 -0.28,3.16 -1.53,6.13 -2.45,9.15 -3.62,0.1 -7.23,0.08 -10.85,0 -1.34,-4.3 -4.31008,-9.6 -0.14992,-13.3 1.29374,-1.54374 2.96216,-2.27739 4.7,-2.4 z"
     id="path6"
     inkscape:connector-curvature="0"
     sodipodi:nodetypes="ccccccccccccccccccccccccccccccccccccccccscccccccccccccccccccccccccccccccccccccccccccccccccccccccccccccccccccccccscccccccccccccccccccsc" />
  <path
     d="m 527.68,396.4 c -0.54,6.1 1.16,13.26 -3,18.44 -11.52,14.96 -24.2,29.06 -35.34,44.3 -11.58,24.1 -21,49.24 -32.46,73.44 -3.68,-14.96 -8.52,-29.66 -11.56,-44.76 12.76,-25.28 29.12,-48.76 42.26,-73.9 0.3,-0.64 0.9,-1.96 1.18,-2.6 2.08,-1.46 4.2,-2.84 6.36,-4.14 z"
     id="path48"
     inkscape:connector-curvature="0"
     style="fill:#f4722b"
     sodipodi:nodetypes="ccccccccc" />
  <path
     style="fill:#f5e5c1"
     d="m 581.45,182.55 c -8.87968,0.076 -17.7625,0.87499 -26.65,0.45 -9.98,5.64 -18.38,13.66 -27.8,20.2 -5.32,4.48 -12.64,7.9 -14.5,15.2 -3.76,12.38 -7.92,24.94 -8.2,38 -1.44,1.26 -2.91,2.54 -4.35,3.8 -5.9,1.3 -11.38,4.12 -15.1,9 8.34,1.5 14.69,-4.26 20.75,-8.9 -3.16,7.52 -6.78,14.9 -8.6,22.9 -1.82,9 3.04,19.08 -2.5,27.3 -7.14,11.76 -12.64,24.51 -16.4,37.75 -3.26,12.42 0.32,25.19 4.4,36.95 2.94,7.92 5.88,16.44 12.6,22 2.96,2.54 5.93,5.14 9.45,6.9 4.32,0.68 8.71,-0.32 13.05,-0.6 3.18,-5.8 6.46,-11.58 10.1,-17.1 0.48,-0.76 1.47,-2.29 1.95,-3.05 -6.96,-6.5 -12.73,-16.21 -23.35,-16.55 0.04,-0.32 0.08,-0.96 0.1,-1.3 3.28,-0.28 6.57,-0.64 9.85,-1 5.46,4.36 10.64,9.16 14.3,15.2 7.2,-3.44 11.74,-10.63 19.1,-13.95 -0.18,-3.44 -0.43,-6.88 -0.65,-10.3 -1.34,-0.24 -4.01,-0.76 -5.35,-1 -1.06,-2.66 -2.15,-5.29 -3.15,-7.95 -9,2.64 -17.82,6.99 -27.4,6.55 11.38,-7.64 25.29,-10 38.45,-12.9 -1.66,2.68 -6.31,5.03 -4.35,8.65 2.78,6.92 5.25,14.39 10.55,19.85 3.24,0.72 6.6,0.63 9.9,0.85 7.62,-13.38 12.29,-28.63 22.75,-40.25 -10,3.22 -19.37,9.63 -30.15,9.55 -7.42,-2.76 -14.44,-10.42 -13.1,-18.9 0.94,-8.94 8.24,-15.18 14.9,-20.3 -4.08,-10.46 -9.7,-20.19 -14.4,-30.35 -8.32,2.98 -10.63,12.31 -15.25,18.95 -4.98,6.72 -3.47,15.37 -4.45,23.15 -6.64,7.7 -5.32,18.66 -7.9,27.9 l 3.65,0.05 -6.05,0.75 c -0.69866,0.62707 -1.36821,1.32104 -2,2 -0.6387,0.68816 -1.27203,1.3661 -1.85,2.1 -0.57843,0.7339 -1.12414,1.47778 -1.65,2.25 -0.008,0.0111 0.008,0.0389 0,0.05 -1.0424,1.5339 -2.01744,3.15918 -2.9,4.8 -1.33206,2.47981 -2.5025,5.0425 -3.65,7.6 3.16,0.24 6.32,0.43 9.5,0.65 -1.77,0.32 -3.5625,0.56 -5.35,0.8 -1.7875,0.2325 -3.57,0.45 -5.35,0.65 0.74499,-1.88499 1.46563,-3.89157 2.25,-5.9 0.78437,-2.00843 1.6075,-4.00125 2.6,-5.9 0.24813,-0.47469 0.53227,-0.94128 0.8,-1.4 0.80317,-1.37618 1.67298,-2.68304 2.7,-3.85 1.36938,-1.55594 2.98501,-2.87 4.9,-3.85 4.58,-8.82 3.42,-19.43 8,-28.35 -7.12,-9.58 -15.09,-18.48 -22.65,-27.7 10.08,-9.02 19.98,-18.19 30.2,-27.05 0.72,-9.22 1.27,-22.07 -8.95,-26.25 -4.64,3.46 -9.1,7.11 -13.4,10.95 0.02,1.24 0.06,2.51 0.1,3.75 -0.44,-0.08 -1.31,-0.3 -1.75,-0.4 1.3,-8 2.6,-16.16 6.5,-23.4 4.22,-7.74 4.94,-17.92 12.9,-23.1 8.84,-6.2 16.72,-13.91 26.2,-19.15 13.94,-1.5 28.11,-0.47 42.05,-2.75 0.14,-0.76 0.41,-2.24 0.55,-3 -5.3025,-0.8625 -10.62219,-1.09558 -15.95,-1.05 z M 516,251 c 9.78,2.44 11.14,16.86 4.3,23.1 -0.68,-1.08 -2.02,-3.19 -2.7,-4.25 -3.24,1.9 -6.44,3.94 -9.6,6 0.5,-1.98 1,-3.94 1.5,-5.9 3.24,-1.48 6.57,-2.76 9.65,-4.6 0.22,-2.86 0.06,-5.69 0,-8.55 l -8.1,0 c 1.22,-1.46 3.71,-4.36 4.95,-5.8 z"
     id="path12"
     inkscape:connector-curvature="0" />
  <path
     d="m 610.38,191.44 c 8.46,16.98 18.14,33.48 25.06,51.16 -6.06,-7.1 -9.66,-15.84 -14.24,-23.88 -4.58,-8.62 -10.7,-17.12 -10.82,-27.28 z"
     id="path14"
     inkscape:connector-curvature="0"
     style="fill:#f5e5c1" />
  <path
     d="m 385.92,224 c 2.22,-4.2 3.92,-8.62 5.64,-13.04 12.32,3.12 26.8,-0.36 37.54,7.58 -5.7,-0.12 -11.36,-1.06 -16.78,-2.8 0.26,0.82 0.78,2.5 1.04,3.34 5.44,-0.12 10.92,-0.14 16.32,0.62 3.12,1.06 6.26,2.08 9.34,3.28 -8.24,0.48 -16.52,0.36 -24.68,-0.68 -6.96,-1.36 -13.22,-5.12 -20.32,-5.9 -1.84,6.48 -3.88,12.9 -5.76,19.36 -2.58,8.2 -4.6,16.62 -8.62,24.28 -1.82,5.74 -2.96,11.92 -6.56,16.92 -1.06,-9.28 3.04,-17.82 5.22,-26.6 2.24,-8.86 3.36,-18.14 7.62,-26.36 z"
     id="path16"
     inkscape:connector-curvature="0"
     style="fill:#f5e5c1" />
  <path
     d="m 855.65,212.85 c -15.34,0.54 -30.63,1.82 -45.95,2.5 -4.48,0.38 -9.5,0.13 -13.1,3.25 -15.5,12.08 -30.72,24.51 -46.4,36.35 9,34 18.12,67.96 27.7,101.8 4.7,-2.48 9.74,-4.24 14.7,-6.1 2.86,3.56 5.71,7.17 8.55,10.75 -3.52,12.08 -7.79,23.88 -12.85,35.4 4.4,14.86 8.46,29.88 12.3,44.9 2.14,14.04 0.85,28.36 2.15,42.5 0.06,2.92 1.9,5.32 3.4,7.7 10.24,14.62 20.4,29.29 30.4,44.05 4.36,1.1 8.7,2.26 13.1,3.3 15.28,-13.28 30.95,-26.16 46.45,-39.2 4.56,-3.98 9.9,-7.35 13.1,-12.65 10.18,-19.18 19.63,-38.88 26.55,-59.5 2.64,-21.82 -6.33,-42.66 -9.75,-63.9 -3.5,-20.22 -9.35,-39.89 -13.95,-59.85 -3.46,-13.72 -9.03,-26.76 -14.15,-39.9 -3.1,-8.26 -9.73,-14.3 -15.35,-20.8 -8.98,-10.2 -18.1,-20.28 -26.9,-30.6 z M 840.9,280.2 c 14.79354,-0.33325 28.0875,8.54374 37.2,19.7 5.08,7.72 6.98,17.07 8.4,26.05 1.94,19.32 0.59,38.74 0.35,58.1 -0.08,8.58 -2.13,16.92 -3.75,25.3 -2.4,12.02 -9.48,22.27 -15.1,32.95 -3.24,6.16 -6.9,12.14 -11.5,17.4 6.42,-14.04 15.14,-27.05 19.9,-41.85 5.86,-15.98 4.12,-33.26 5.9,-49.9 0.62,-18.84 1.12,-38.09 -3.8,-56.45 -2.16,-9.16 -9.44,-16.53 -18.2,-19.65 -9.28,-3.02 -19.04,-2.15 -28.5,-0.75 7.94,-3.42 16.7,-2.51 25.1,-2.55 -4.18,-6.56 -12.12,-6.89 -19,-8.15 0.99875,-0.10626 2.01376,-0.17778 3,-0.2 z"
     id="path18"
     style="fill:#f4722b"
     inkscape:connector-curvature="0" />
  <path
     d="m 400.66,226.84 c 4.84,0.2 9.7,0.32 14.56,0.42 0.04,0.86 0.08,2.56 0.12,3.42 -4.42,0.14 -8.82,0.28 -13.22,0.48 -4.82,11.94 -9.36,24.08 -11.48,36.84 -1.4,8.36 -4.26,16.86 -10.1,23.22 -0.12,-5.42 -0.18,-11.12 2.56,-15.98 3.76,-7.4 6.3,-15.3 8.12,-23.36 1.92,-8.76 6.1,-16.76 9.44,-25.04 z"
     id="path20"
     inkscape:connector-curvature="0"
     style="fill:#f5e5c1" />
  <path
     d="m 584,254 c 7.86,3.48 15.88,6.64 23.74,10.18 9,3.62 12.56,14.4 22.1,17.26 -5.8,13.08 -11.06,26.38 -17,39.38 -4.22,6.56 -11.48,10.42 -17.38,15.32 -2.74,-8.4 -1.54,-18.56 -8.4,-25.18 -3.72,-4.94 -10.2,-4.34 -15.68,-4.38 -6.68,-9.98 -11.64,-20.9 -16.94,-31.62 7.12,1.26 14.24,2.64 21.34,4.08 2.96,-8.28 5.56,-16.66 8.22,-25.04 z"
     id="path24"
     inkscape:connector-curvature="0"
     style="fill:#f5e5c1" />
  <path
     d="m 899.08,258.22 c 5.32,-0.74 10.64,-1.44 16,-2.02 6.38,7.2 14.44,12.76 20.56,20.18 6.94,13.44 6.68,29.02 9.42,43.58 0.88,8.56 4.28,17.48 1.02,25.94 -3.48,10.18 -6.9,20.38 -10.68,30.46 -2.88,-11.58 -7.48,-22.68 -9.64,-34.44 -2.18,-11.42 -5.28,-22.64 -8,-33.94 -4.1,-17.3 -11.96,-33.38 -18.68,-49.76 z"
     id="path26"
     inkscape:connector-curvature="0"
     style="fill:#f4722b" />
  <path
     d="m 426.42,299.24 c 14.32,-9.7 27.68,-20.68 41.86,-30.56 0.66,1.04 1.96,3.12 2.62,4.16 5.84,0.78 11.58,2.66 15.32,7.52 -5.4,1.26 -11.48,1.86 -15.12,-3.24 -12.76,8.18 -25.82,16.44 -35.78,28.04 -3.12,3.52 -4.24,8.18 -5.4,12.62 -3.1,-2.54 -6.76,-4.64 -9.12,-7.94 -1.42,-4.44 2.96,-7.74 5.62,-10.6 z"
     id="path28"
     inkscape:connector-curvature="0"
     style="fill:#f5e5c1" />
  <path
     d="m 458.14,304.7 c 12.76,-10.78 26.64,-20.46 37.5,-33.26 -4.32,9.82 -2.9,20.32 -0.28,30.32 -11.08,19.94 -23.84,41.24 -22.56,64.98 l 2.88,-0.12 c 2.42,13.98 5.2,28.88 14.48,40.14 -0.34,1.14 -1.04,3.42 -1.4,4.56 -0.28,0.64 -0.88,1.96 -1.18,2.6 -8.84,1.54 -17.72,2.82 -26.6,4.02 0.3,-1.66 0.92,-4.94 1.22,-6.58 2.84,-11.46 6.34,-23.7 1.12,-35.08 -2.44,-8.58 -5.68,-17.18 -5.36,-26.24 0.1,-15.1 -0.1,-30.22 0.18,-45.34 z"
     id="path30"
     inkscape:connector-curvature="0"
     style="fill:#f5e5c1" />
  <path
     d="m 568.82,313.16 c 3.52,-1.26 7.28,-2.62 11.1,-1.84 6.36,3.64 9.94,11.54 8.18,18.72 -1.42,6.66 -8.04,10.26 -13.68,12.98 -8.94,5.02 -21.56,-3.1 -21.32,-13.18 1.56,-7.96 8.28,-14.04 15.72,-16.68 z"
     id="path34"
     inkscape:connector-curvature="0"
     style="fill:#f5e5c1" />
  <path
     d="m 304.58,336.78 c 2.44,-4.04 6.92,-5.5 11.22,-6.72 -0.36,18.68 -2.5,37.28 -3.1,55.94 -0.42,8.62 -1.1,17.62 -5.54,25.24 -8.56,15.28 -16.78,30.72 -25.4,45.96 -2.34,0.08 -4.68,0.18 -7.02,0.28 -10.26,33.48 -21.12,66.76 -31.48,100.2 -5.36,18.74 -15.3,35.66 -23.3,53.32 -3.4,-1.42 -6.82,-2.82 -10.22,-4.24 -14.6,-6.08 -28.92,-12.82 -43.5,-18.98 -3.72,-1.84 -8.34,-3.1 -10.28,-7.14 -4.58,-8.44 -9.72,-16.56 -14.98,-24.6 5.14,-10.6 9.96,-21.36 15.08,-31.96 2.3,-5.18 6.6,-8.94 10.74,-12.6 -0.62,-2.74 -1.26,-5.46 -1.88,-8.18 15.46,-14.06 35,-24.04 46.76,-41.8 30.84,-41.66 62.08,-83.04 92.9,-124.72 z"
     id="path38"
     inkscape:connector-curvature="0"
     style="fill:#f4722b" />
  <path
     d="m 584.18,351.92 c 2.22,-8.64 11.62,-11.64 18.38,-16 -3.94,7.4 -11.44,11.82 -18.38,16 z"
     id="path40"
     inkscape:connector-curvature="0"
     style="fill:#f5e5c1" />
  <path
     d="m 777.92,356.76 c 4.7,-2.48 9.72,-4.24 14.68,-6.1 2.86,3.56 5.72,7.14 8.56,10.72 -3.52,12.08 -7.8,23.92 -12.86,35.44 -3.84,5.58 -2.48,11.7 0.5,17.3 -3.88,3.28 -7.78,6.56 -11.64,9.88 -6.92,-3.38 -13.74,-6.98 -20.94,-9.72 -1.02,-2.62 -2.16,-5.22 -2.8,-7.94 1.76,-12.32 6.92,-23.76 11.5,-35.22 2.16,-6.38 7.94,-10.38 13,-14.36 z"
     id="path44"
     inkscape:connector-curvature="0"
     style="fill:#f5e5c1" />
  <path
     d="m 431.86,410.06 c 10.62,-11.14 20.44,-23.04 31.46,-33.78 5.22,11.38 1.72,23.62 -1.12,35.08 -6.46,22.24 -10.94,45 -17.06,67.34 -5.1,-22.74 -9.16,-45.72 -13.28,-68.64 z"
     id="path46"
     inkscape:connector-curvature="0"
     style="fill:#f4722b" />
  <path
     d="m 556.72,398.08 c 5.64,0.08 5.86,6.28 6.86,10.22 1.86,7.2 -0.2,14.52 -0.54,21.74 -0.52,9.68 -2.72,19.28 -6.64,28.14 -4.38,7.46 -6.88,16.52 -13.76,22.18 -6.1,1.9 -12.46,2.74 -18.7,4 -11.6,0.9 -23.22,2.24 -34.58,4.76 -9.28,18.66 -16.6,38.24 -27.4,56.14 -0.96,-0.02 -2.88,-0.02 -3.84,-0.02 2.32,-9.12 8.28,-16.6 11.56,-25.32 10.72,-26.4 24.06,-51.66 34.84,-78.02 2.28,2.48 2.72,5.22 1.32,8.26 -3.48,11.62 -9.18,22.36 -13.72,33.54 11.4,-0.44 22.62,-2.5 33.96,-3.66 6.86,-1.08 15.04,-2.14 18.86,-8.82 11.96,-22.12 15.96,-48.36 11.78,-73.14 z"
     id="path50"
     inkscape:connector-curvature="0"
     style="fill:#f5e5c1" />
  <path
     d="m 332.36,444.38 c 1.52,0.1 4.58,0.3 6.1,0.4 -2.6,10.62 -9.16,19.48 -15.18,28.38 -3.04,4.42 -6.26,9.46 -11.96,10.58 0.04,-3.8 -1.82,-8.24 0.96,-11.48 6.6,-9.36 14.08,-18.1 20.08,-27.88 z"
     id="path52"
     inkscape:connector-curvature="0"
     style="fill:#f4722b" />
  <path
     d="m 561.98,448.94 c 4.92,3.3 11.3,5.84 13.1,12.1 11.12,28.26 22.64,56.38 33.7,84.66 2.52,0.76 5.08,1.5 7.62,2.26 -1.46,2.98 -2.92,5.98 -4.38,8.96 -2.14,4.02 -4.2,8.36 -3.52,13.04 2.24,24.62 4.46,49.26 6.54,73.9 4.24,0.36 8.48,0.76 12.76,0.86 -0.94,3.44 -1.88,6.9 -2.8,10.36 -5.36,3.02 -10.58,7.16 -17.04,7.18 -18.68,0.96 -37.36,1.9 -56.04,2.64 0.4,-3.88 0.8,-7.76 1.22,-11.64 -8.88,-4.24 -17.86,-8.24 -26.96,-11.98 -0.2,-13.82 0.72,-27.62 0.68,-41.42 0.2,-2.96 -1.02,-5.64 -2.58,-8.04 -11.58,-17.78 -23.8,-35.18 -34.88,-53.28 13.6,-11.42 24.68,-25.36 36.24,-38.74 5.58,-6.54 10.3,-13.92 17,-19.44 6.88,-5.66 9.38,-14.72 13.76,-22.18 1.7,-3.18 3.68,-6.2 5.58,-9.24 z"
     id="path54"
     inkscape:connector-curvature="0"
     style="fill:#f4722b" />
  <path
     d="m 349.34,452.08 c 1.96,0.46 3.88,1.06 5.78,1.82 -1.26,6.34 -4.56,11.98 -7.58,17.58 -4.88,8.74 -9.38,17.72 -15.3,25.82 -2.02,-3.62 -7.6,-7.18 -4.78,-11.82 6.34,-11.74 15.82,-21.46 21.88,-33.4 z"
     id="path56"
     inkscape:connector-curvature="0"
     style="fill:#f4722b" />
  <path
     d="m 417.58,457.66 c 0.9,-0.44 2.7,-1.36 3.58,-1.82 1.02,4.44 2.5,8.78 3.36,13.28 3.62,24.26 10.04,48 14.66,72.08 1.18,6.5 -1.98,12.62 -3.98,18.6 -11.84,32.62 -23.24,65.42 -35,98.08 -4.2,11.44 -6.5,23.46 -9.28,35.3 -4.66,20 -9.3,40 -13.96,59.98 -21.68,0.08 -43.38,0.38 -65.06,1 2.06,-21.86 5.22,-43.94 13.1,-64.56 9.02,-29.68 20.6,-58.48 32.12,-87.26 8.42,-16.68 13.6,-34.74 21.96,-51.46 7.04,-14.02 10.48,-29.5 16.92,-43.76 6.72,-12.94 13.22,-26.02 18.18,-39.76 1.16,-3.22 2.24,-6.46 3.4,-9.7 z"
     id="path58"
     inkscape:connector-curvature="0"
     style="fill:#f4722b" />
  <path
     d="m 359.02,471.16 c 2.32,-3.12 6.1,-9.32 10.12,-4.58 1.86,5.8 -2.72,10.38 -5.52,14.88 -5.32,7.36 -9.88,15.6 -17.04,21.36 -2.3,0.24 -4.58,0.34 -6.86,0.28 3.98,-11.96 12.46,-21.56 19.3,-31.94 z"
     id="path60"
     inkscape:connector-curvature="0"
     style="fill:#f4722b" />
  <path
     d="m 364.54,494.68 c 6.2,-7.58 10.7,-16.52 18.1,-23.1 1.12,4.78 1.22,9.9 -1.58,14.16 -6.04,10.82 -12.24,21.86 -21.28,30.52 -1.18,-2.76 -2.84,-5.4 -3.34,-8.4 1.22,-5.12 5.14,-8.98 8.1,-13.18 z"
     id="path64"
     inkscape:connector-curvature="0"
     style="fill:#f4722b" />
  <path
     d="m 622,546.02 c 30.02,-14.62 60,-29.34 90,-44 1.28,9.08 0.14,18.94 4.68,27.28 7.4,14.14 14.94,28.24 22.08,42.52 5.08,0.48 10.18,0.84 15.3,1.18 -32,19.66 -64.02,39.32 -95.96,59.1 -9.22,6 -19.8,9.58 -30.3,12.62 -4.28,-0.1 -8.52,-0.5 -12.76,-0.86 -2.08,-24.64 -4.3,-49.28 -6.54,-73.9 -0.68,-4.68 1.38,-9.02 3.52,-13.04 2.78,-4.04 5.18,-8.88 9.98,-10.9 z"
     id="path66"
     inkscape:connector-curvature="0"
     style="fill:#f5e5c1" />
  <path
     d="m 219.96,640.5 c 2.42,-7.36 1.72,-16.88 8.52,-21.94 -1.78,11.94 -5.48,23.48 -7.34,35.42 -0.86,5.62 -0.02,12.38 4.94,15.96 6.64,5.16 14.28,8.8 21.78,12.54 2.08,0.6 4.16,1.26 6.2,2 7.06,0.4 14.16,1.4 20.68,4.32 -19.14,3.2 -37.98,-5.24 -52.24,-17.44 -9.18,-7.84 -4.48,-20.88 -2.54,-30.86 z"
     id="path68"
     inkscape:connector-curvature="0"
     style="fill:#f5e5c1" />
  <path
     d="m 290.34,666.06 c 5.04,-7.82 10.52,-15.48 17.42,-21.82 2.6,2.46 5.22,4.92 7.78,7.42 -3.16,-0.26 -6.32,-0.56 -9.48,-0.86 -5.72,8.08 -12.16,15.7 -16.7,24.56 -2.88,5.42 -4.74,11.62 -9.4,15.92 0.82,-9.28 5.6,-17.46 10.38,-25.22 z"
     id="path70"
     inkscape:connector-curvature="0"
     style="fill:#f5e5c1" />
  <path
     d="m 230.7,660.76 c 0.96,-3.3 2,-6.58 3.1,-9.82 5.96,0.62 5.5,5.66 5.08,10.2 -2.72,-0.08 -5.46,-0.22 -8.18,-0.38 z"
     id="path72"
     inkscape:connector-curvature="0"
     style="fill:#f5e5c1" />
  <path
     d="m 426.36,688.06 c 1.38,-11.46 -0.94,-23.7 4.18,-34.46 1.86,14.24 -1.06,28.44 -1.78,42.66 8.18,-4.26 16.4,-8.8 22.68,-15.74 -0.24,2.7 -0.46,5.4 -0.68,8.1 -9.16,3.98 -17.1,10.28 -26.44,13.88 0.34,-4.86 0.98,-9.7 2.04,-14.44 z"
     id="path74"
     inkscape:connector-curvature="0"
     style="fill:#f5e5c1" />
  <path
     d="m 269.1,667.4 c 2.2,-0.1 4.42,-0.18 6.64,-0.24 -0.64,3.94 -3.24,6.76 -6.42,8.94 -0.14,-2.92 -0.2,-5.8 -0.22,-8.7 z"
     id="path76"
     inkscape:connector-curvature="0"
     style="fill:#f5e5c1" />
</svg>
