<?xml version="1.0" encoding="UTF-8" ?>
<!DOCTYPE svg PUBLIC "-//W3C//DTD SVG 1.1//EN" "http://www.w3.org/Graphics/SVG/1.1/DTD/svg11.dtd">
<svg width="512pt" height="512pt" viewBox="0 0 512 512" version="1.1" xmlns="http://www.w3.org/2000/svg">
<path fill="#3e3e3e" opacity="1.00" d=" M 0.00 0.00 L 512.00 0.00 L 512.00 512.00 L 0.00 512.00 L 0.00 0.00 Z" />
<path fill="#f5e5c1" opacity="1.00" d=" M 248.30 25.21 C 250.80 22.16 253.43 19.22 255.67 15.96 C 252.33 23.78 258.05 31.32 263.42 36.47 C 270.26 40.87 279.76 40.03 285.98 34.90 C 291.32 30.71 294.01 23.80 293.51 17.10 C 296.35 17.40 299.18 17.70 302.01 18.02 C 316.52 35.98 331.09 53.88 345.57 71.87 C 347.00 68.56 348.50 65.29 350.00 62.02 C 368.95 69.19 387.90 76.38 406.84 83.57 C 403.94 91.68 406.23 101.44 413.11 106.82 C 421.58 113.78 434.85 112.99 442.73 105.48 C 449.49 109.65 456.26 113.82 463.00 118.02 C 466.23 137.35 469.87 156.63 472.85 175.99 C 467.40 189.79 461.68 203.54 455.77 217.16 C 452.13 211.98 446.47 208.08 440.03 207.68 C 427.37 206.56 415.82 218.53 416.48 231.01 C 416.55 233.56 417.30 236.01 417.95 238.46 C 412.27 240.64 406.90 243.86 401.02 245.36 C 380.32 238.40 357.48 237.62 336.63 244.45 C 299.60 255.79 270.95 288.16 261.13 325.23 C 257.92 325.91 254.69 326.50 251.46 327.05 C 252.53 302.68 253.55 278.31 254.64 253.94 C 254.88 251.38 253.99 248.63 251.94 247.01 C 250.31 246.02 248.34 245.92 246.53 245.54 C 255.01 242.20 263.12 237.95 271.42 234.19 C 274.78 240.26 280.96 244.80 287.99 245.28 C 296.24 245.99 303.79 241.04 308.85 234.92 C 313.31 229.50 314.67 221.81 312.38 215.18 C 315.24 213.72 318.15 212.35 321.12 211.11 C 339.19 203.49 357.25 195.87 375.32 188.25 C 385.47 183.63 396.34 180.97 406.90 177.49 C 408.23 180.93 410.96 184.69 415.04 184.58 C 418.53 184.93 422.01 182.65 423.17 179.36 C 423.97 177.06 423.59 174.58 423.45 172.21 C 428.16 170.78 432.84 169.23 437.55 167.81 C 438.39 163.49 435.03 160.44 432.76 157.27 C 424.93 146.75 417.09 136.24 409.28 125.70 C 407.14 122.84 404.06 120.92 401.37 118.64 C 384.09 104.59 366.69 90.69 349.49 76.54 C 361.87 92.12 374.51 107.50 386.99 122.99 C 382.05 123.81 377.11 124.64 372.15 125.36 C 370.80 116.12 362.35 108.76 353.10 108.24 C 337.67 106.80 323.66 122.75 326.90 137.91 C 303.26 147.46 278.99 155.30 255.06 164.06 C 234.55 173.81 214.14 183.80 193.69 193.70 C 180.47 200.90 167.46 208.52 154.24 215.73 C 148.71 208.13 137.98 204.30 129.15 208.20 C 116.48 213.14 111.24 230.71 119.37 241.71 C 117.57 243.13 115.79 244.56 114.00 245.99 C 110.02 224.92 105.69 203.92 101.93 182.81 C 110.50 181.95 118.02 175.36 120.21 167.07 C 123.65 155.62 117.25 141.89 105.91 137.72 C 102.03 136.15 97.80 136.38 93.73 136.74 C 96.20 131.57 97.46 125.65 96.05 120.00 C 94.72 115.48 92.09 111.47 89.18 107.82 C 89.32 107.36 89.60 106.46 89.74 106.01 C 93.62 104.34 97.00 101.76 100.71 99.77 C 105.22 97.19 110.20 95.53 114.58 92.72 C 117.34 90.97 120.31 89.60 123.26 88.22 C 126.20 86.87 128.56 84.58 131.43 83.11 C 136.64 92.15 147.98 97.51 158.26 95.13 C 167.30 93.00 174.60 85.12 176.27 76.01 C 177.10 72.10 176.64 68.09 176.13 64.17 C 179.00 63.73 181.98 62.56 184.87 63.49 C 188.97 64.68 193.68 63.63 196.97 60.92 C 206.64 53.92 216.39 47.04 226.09 40.09 C 230.84 36.78 235.36 33.09 240.55 30.46 C 243.18 28.81 246.42 27.84 248.30 25.21 Z" />
<path fill="#3e3e3e" opacity="1.00" d=" M 291.74 46.02 C 298.99 43.87 307.42 50.25 306.84 57.92 C 307.43 65.62 299.02 72.00 291.74 69.90 C 286.50 68.57 282.21 63.49 282.43 57.99 C 282.17 52.46 286.40 47.27 291.74 46.02 Z" />
<path fill="#3e3e3e" opacity="1.00" d=" M 229.33 76.41 C 240.32 74.52 252.10 78.28 260.06 86.06 C 271.59 97.13 275.29 115.75 268.34 130.23 C 263.78 139.68 254.97 147.00 244.81 149.63 C 234.36 152.34 222.70 150.46 213.96 144.02 C 200.04 134.27 194.67 114.60 201.08 98.97 C 205.64 87.17 216.76 78.16 229.33 76.41 Z" />
<path fill="#f4722b" opacity="1.00" d=" M 338.60 139.49 C 338.46 139.85 338.20 140.58 338.06 140.95 C 343.02 140.21 348.00 139.62 352.97 139.02 C 347.32 143.02 341.67 147.02 336.00 150.99 C 342.68 150.36 349.36 149.64 356.05 149.03 C 351.00 152.62 346.03 156.32 341.04 159.99 C 347.69 160.01 354.33 159.98 360.98 160.01 C 357.02 163.35 353.01 166.64 349.05 169.98 C 354.03 170.37 359.02 170.65 364.00 171.03 C 361.32 173.99 358.66 176.99 356.04 180.00 C 360.95 181.64 365.96 182.98 370.84 184.69 C 370.84 184.89 370.83 185.27 370.82 185.46 C 359.77 190.61 348.50 195.27 337.46 200.45 C 336.68 195.69 334.25 190.52 329.67 188.35 C 325.00 185.95 319.44 185.56 314.35 186.58 C 309.47 188.07 305.93 192.00 302.44 195.51 C 296.78 201.13 294.41 210.50 297.66 217.90 C 278.52 226.79 259.18 235.23 239.99 244.02 C 237.48 245.41 234.56 244.97 231.82 244.80 C 220.53 244.01 209.24 243.30 197.95 242.55 C 194.86 242.26 191.86 243.54 189.74 245.75 C 184.44 250.81 179.37 256.11 174.15 261.25 C 164.16 270.54 154.88 280.57 144.93 289.89 C 143.84 290.64 142.72 291.35 141.56 292.00 C 137.17 293.54 133.20 295.99 129.03 297.99 C 124.65 282.65 120.43 267.27 116.08 251.92 C 118.68 249.97 121.28 248.02 123.93 246.13 C 131.66 251.21 142.45 251.47 150.01 245.92 C 157.55 240.66 160.41 230.43 157.49 221.83 C 165.06 216.66 172.44 211.17 180.27 206.42 C 217.10 189.09 253.79 171.40 291.08 155.08 C 304.87 150.98 318.80 147.36 332.62 143.36 C 334.95 142.66 336.84 141.10 338.60 139.49 Z" />
<path fill="#3e3e3e" opacity="1.00" d=" M 140.57 151.86 C 146.03 150.48 152.14 150.90 157.02 153.88 C 163.95 157.85 168.18 165.94 167.50 173.90 C 167.08 184.07 158.51 193.90 147.97 193.86 C 135.39 194.82 124.28 182.32 125.67 170.01 C 126.36 161.66 132.56 154.21 140.57 151.86 Z" />
<path fill="#f4722b" opacity="1.00" d=" M 356.19 246.26 C 376.09 244.02 396.63 248.02 414.12 257.83 C 437.41 270.75 455.39 292.55 464.42 317.55 C 476.82 350.76 474.00 389.45 456.18 420.19 C 447.25 435.68 434.59 449.06 419.43 458.58 C 401.41 470.05 379.51 475.31 358.24 473.27 C 339.41 471.69 321.26 464.19 306.35 452.67 C 289.38 439.66 276.53 421.54 269.35 401.44 C 259.39 373.95 259.88 342.85 270.50 315.62 C 279.64 291.73 296.96 270.90 319.32 258.33 C 330.66 251.95 343.25 247.73 356.19 246.26 Z" />
<path fill="#f4722b" opacity="1.00" d=" M 145.12 298.27 C 162.01 281.64 178.74 264.86 195.78 248.39 C 213.43 249.58 231.09 250.77 248.75 251.85 C 245.49 325.80 242.28 399.76 239.17 473.71 C 220.02 472.63 200.85 471.75 181.70 470.67 C 183.68 419.25 185.50 367.83 187.52 316.42 C 182.43 321.21 177.81 326.44 172.85 331.35 C 163.46 320.45 154.39 309.27 145.12 298.27 Z" />
<path fill="#f5e5c1" opacity="1.00" d=" M 141.56 292.00 C 142.72 291.35 143.84 290.64 144.93 289.89 C 142.97 292.10 140.31 294.00 139.67 297.08 C 138.96 299.09 139.93 301.27 141.16 302.87 C 149.99 313.41 158.79 323.97 167.57 334.55 C 169.21 336.61 172.20 337.78 174.69 336.60 C 177.32 335.72 179.10 333.49 180.99 331.59 C 180.76 334.34 180.71 337.10 180.69 339.86 C 173.55 341.69 166.17 342.34 159.04 344.15 C 152.16 347.66 145.63 351.86 138.85 355.57 C 133.92 349.57 124.97 347.35 118.00 350.98 C 110.81 354.43 107.33 363.06 109.13 370.68 C 79.43 381.82 49.71 392.89 20.00 404.01 C 18.00 399.67 16.00 395.33 13.99 391.00 C 15.19 387.39 15.51 383.14 18.51 380.46 C 24.93 374.15 31.06 367.53 38.15 361.95 C 44.27 367.11 51.88 370.72 59.99 370.82 C 78.15 371.76 95.21 357.26 98.15 339.49 C 99.34 332.93 98.66 326.13 96.52 319.84 C 111.46 310.44 126.26 300.81 141.56 292.00 Z" />
<path fill="#3e3e3e" opacity="1.00" d=" M 358.48 315.56 C 369.45 313.29 381.16 315.49 390.68 321.34 C 404.97 329.86 413.88 345.60 416.33 361.80 C 418.40 375.78 417.24 390.76 410.34 403.34 C 403.25 417.17 390.22 428.21 374.90 431.56 C 365.18 433.86 354.93 431.35 346.30 426.67 C 330.77 418.13 320.50 401.50 318.35 384.07 C 316.51 369.09 318.49 353.28 326.05 340.03 C 332.72 327.76 344.69 318.31 358.48 315.56 Z" />
</svg>
