<?xml version="1.0" encoding="UTF-8" ?>
<!DOCTYPE svg PUBLIC "-//W3C//DTD SVG 1.1//EN" "http://www.w3.org/Graphics/SVG/1.1/DTD/svg11.dtd">
<svg width="512pt" height="512pt" viewBox="0 0 512 512" version="1.1" xmlns="http://www.w3.org/2000/svg">
<path fill="#9a9280" opacity="1.00" d=" M 0.00 0.00 L 41.64 0.00 C 82.20 21.91 122.75 43.84 163.25 65.85 C 161.83 68.88 160.53 71.96 159.33 75.08 C 110.00 54.30 60.68 33.48 11.36 12.70 C 7.56 11.08 3.69 9.63 0.00 7.77 L 0.00 0.00 Z" />
<path fill="#3e3e3e" opacity="1.00" d=" M 41.64 0.00 L 512.00 0.00 L 512.00 13.90 C 461.46 34.09 410.73 53.81 360.11 73.81 C 360.97 76.46 361.84 79.10 362.72 81.75 C 412.48 64.26 462.32 46.97 512.00 29.27 L 512.00 40.86 C 462.76 56.11 413.35 70.82 364.05 85.88 C 364.88 89.28 365.72 92.67 366.51 96.07 C 415.01 87.75 463.54 79.60 512.00 71.07 L 512.00 89.86 C 463.82 94.53 415.63 99.16 367.44 103.83 C 367.91 109.84 367.85 115.87 367.81 121.89 C 415.88 125.98 463.94 130.07 512.00 134.21 L 512.00 145.82 C 463.80 139.44 415.59 133.08 367.39 126.67 C 367.00 129.49 366.60 132.32 366.20 135.14 C 414.79 143.66 463.44 151.88 512.00 160.57 L 512.00 512.00 L 0.00 512.00 L 0.00 179.02 C 51.61 166.11 103.33 153.58 154.99 140.84 C 154.50 138.99 154.02 137.14 153.53 135.29 C 102.38 146.23 51.12 156.69 0.00 167.72 L 0.00 158.02 C 50.96 149.00 102.01 140.42 153.00 131.57 C 152.54 127.09 152.14 122.59 151.91 118.09 C 101.27 120.11 50.63 122.13 0.00 124.22 L 0.00 99.42 C 50.63 102.24 101.24 105.37 151.86 108.27 C 152.04 106.69 152.23 105.10 152.42 103.52 C 101.61 98.81 50.81 94.01 0.00 89.32 L 0.00 61.27 C 51.24 72.17 102.55 82.74 153.84 93.38 C 154.97 88.64 156.29 83.95 157.86 79.34 C 112.10 62.43 66.38 45.43 20.63 28.49 C 13.78 25.83 6.77 23.57 0.00 20.71 L 0.00 7.77 C 3.69 9.63 7.56 11.08 11.36 12.70 C 60.68 33.48 110.00 54.30 159.33 75.08 C 160.53 71.96 161.83 68.88 163.25 65.85 C 122.75 43.84 82.20 21.91 41.64 0.00 Z" />
<path fill="#f5e5c1" opacity="1.00" d=" M 250.15 10.30 C 273.25 8.32 297.04 13.71 316.54 26.37 C 346.03 44.94 365.13 79.05 364.83 113.98 C 365.19 129.27 361.78 144.54 355.60 158.49 C 343.27 185.52 319.11 207.12 290.47 215.39 C 268.29 222.24 243.79 221.27 222.14 212.94 C 195.79 203.04 174.06 181.85 163.09 155.97 C 158.03 143.27 154.75 129.71 155.03 115.97 C 153.96 80.11 173.51 44.70 203.97 25.91 C 217.82 17.12 233.86 11.90 250.15 10.30 Z" />
<path fill="#9a9280" opacity="1.00" d=" M 360.11 73.81 C 410.73 53.81 461.46 34.09 512.00 13.90 L 512.00 29.27 C 462.32 46.97 412.48 64.26 362.72 81.75 C 361.84 79.10 360.97 76.46 360.11 73.81 Z" />
<path fill="#9a9280" opacity="1.00" d=" M 0.00 20.71 C 6.77 23.57 13.78 25.83 20.63 28.49 C 66.38 45.43 112.10 62.43 157.86 79.34 C 156.29 83.95 154.97 88.64 153.84 93.38 C 102.55 82.74 51.24 72.17 0.00 61.27 L 0.00 20.71 Z" />
<path fill="#3e3e3e" opacity="1.00" d=" M 196.28 50.30 C 211.91 34.71 233.58 25.82 255.54 24.72 C 255.54 30.85 255.56 36.98 255.53 43.12 C 252.70 43.12 249.86 42.89 247.05 43.28 C 243.62 43.81 243.55 49.66 246.99 50.33 C 249.84 50.70 252.71 50.50 255.58 50.50 C 255.54 58.10 255.52 65.71 255.59 73.31 C 243.79 74.75 232.53 80.91 225.77 90.80 C 221.21 96.84 219.33 104.30 218.13 111.64 C 212.58 111.91 207.02 111.64 201.47 111.74 C 201.47 108.88 201.70 105.99 201.29 103.15 C 200.56 99.78 194.88 99.78 194.26 103.18 C 193.66 105.98 193.93 108.88 193.91 111.73 C 185.65 111.72 177.40 111.75 169.15 111.71 C 170.01 88.79 179.67 66.21 196.28 50.30 Z" />
<path fill="#3e3e3e" opacity="1.00" d=" M 263.13 24.81 C 285.04 26.14 306.48 35.37 321.95 51.04 C 338.08 66.94 347.38 89.17 348.30 111.73 C 340.23 111.73 332.17 111.73 324.10 111.73 C 324.07 108.88 324.35 105.98 323.75 103.17 C 323.12 99.79 317.49 99.78 316.72 103.13 C 316.30 105.97 316.54 108.86 316.54 111.73 C 311.53 111.73 306.53 111.72 301.52 111.74 C 300.54 100.32 295.05 89.21 285.89 82.17 C 279.43 76.93 271.32 74.10 263.10 73.28 C 263.14 65.69 263.15 58.11 263.09 50.52 C 266.52 50.51 270.06 50.84 273.36 49.67 C 273.65 48.93 274.23 47.45 274.52 46.70 C 273.74 45.56 273.45 43.81 271.97 43.36 C 269.06 42.86 266.09 43.13 263.16 43.11 C 263.10 37.01 263.14 30.91 263.13 24.81 Z" />
<path fill="#9a9280" opacity="1.00" d=" M 364.05 85.88 C 413.35 70.82 462.76 56.11 512.00 40.86 L 512.00 71.07 C 463.54 79.60 415.01 87.75 366.51 96.07 C 365.72 92.67 364.88 89.28 364.05 85.88 Z" />
<path fill="#f4722b" opacity="1.00" d=" M 227.15 61.19 C 231.16 56.87 236.44 53.69 242.01 51.81 C 245.49 52.71 248.96 53.85 252.62 53.54 C 252.50 59.24 252.53 64.94 252.59 70.63 C 245.80 72.05 239.20 74.48 233.54 78.57 C 230.92 80.76 227.72 78.05 225.95 76.04 C 222.18 71.72 223.46 65.12 227.15 61.19 Z" />
<path fill="#f4722b" opacity="1.00" d=" M 266.12 53.60 C 269.36 53.67 272.61 53.28 275.58 51.90 C 281.41 54.38 287.75 58.26 289.04 64.99 C 290.20 69.69 287.32 74.15 283.47 76.60 C 278.09 73.58 272.18 71.66 266.12 70.56 C 266.13 64.91 266.13 59.25 266.12 53.60 Z" />
<path fill="#3e3e3e" opacity="1.00" d=" M 263.15 79.50 C 270.72 80.81 278.15 83.82 283.66 89.32 C 289.95 95.11 293.58 103.30 294.67 111.70 C 292.11 111.73 289.55 111.73 286.99 111.71 C 285.91 104.58 282.42 97.70 276.55 93.36 C 272.73 90.26 267.96 88.72 263.17 87.88 C 263.13 85.09 263.12 82.29 263.15 79.50 Z" />
<path fill="#3e3e3e" opacity="1.00" d=" M 234.76 89.80 C 240.25 84.08 247.82 80.84 255.54 79.50 C 255.55 82.34 255.55 85.18 255.53 88.02 C 248.58 89.38 241.85 93.00 237.83 98.96 C 235.03 102.68 233.67 107.20 232.83 111.71 C 229.95 111.73 227.07 111.73 224.20 111.73 C 225.27 103.54 228.67 95.52 234.76 89.80 Z" />
<path fill="#f4722b" opacity="1.00" d=" M 239.42 89.60 C 243.29 86.51 247.90 84.56 252.57 83.00 C 252.59 83.63 252.63 84.90 252.65 85.53 C 246.11 87.28 240.31 90.99 235.88 96.10 C 235.59 93.35 237.27 91.08 239.42 89.60 Z" />
<path fill="#f4722b" opacity="1.00" d=" M 265.94 83.18 C 271.02 84.68 277.13 86.12 279.68 91.33 C 275.45 88.82 271.06 86.48 266.23 85.36 C 266.16 84.81 266.01 83.73 265.94 83.18 Z" />
<path fill="#9a9280" opacity="1.00" d=" M 0.00 89.32 C 50.81 94.01 101.61 98.81 152.42 103.52 C 152.23 105.10 152.04 106.69 151.86 108.27 C 101.24 105.37 50.63 102.24 0.00 99.42 L 0.00 89.32 Z" />
<path fill="#9a9280" opacity="1.00" d=" M 367.44 103.83 C 415.63 99.16 463.82 94.53 512.00 89.86 L 512.00 134.21 C 463.94 130.07 415.88 125.98 367.81 121.89 C 367.85 115.87 367.91 109.84 367.44 103.83 Z" />
<path fill="#3e3e3e" opacity="1.00" d=" M 243.21 99.32 C 246.45 95.71 250.93 93.60 255.52 92.29 C 255.58 98.77 255.52 105.25 255.57 111.73 C 249.35 111.71 243.13 111.77 236.91 111.68 C 238.17 107.21 239.79 102.63 243.21 99.32 Z" />
<path fill="#3e3e3e" opacity="1.00" d=" M 263.14 92.20 C 267.86 93.47 272.53 95.49 275.89 99.17 C 279.36 102.50 280.97 107.14 282.26 111.65 C 275.86 111.79 269.46 111.74 263.07 111.70 C 263.19 105.20 263.09 98.70 263.14 92.20 Z" />
<path fill="#f4722b" opacity="1.00" d=" M 240.68 108.70 C 243.06 103.17 247.42 98.89 252.65 96.02 C 252.52 100.27 252.52 104.52 252.61 108.77 C 248.63 108.73 244.66 108.74 240.68 108.70 Z" />
<path fill="#f4722b" opacity="1.00" d=" M 266.10 96.00 C 271.60 98.58 276.15 102.97 278.37 108.69 C 274.28 108.74 270.20 108.73 266.11 108.77 C 266.14 104.51 266.13 100.25 266.10 96.00 Z" />
<path fill="#9a9280" opacity="1.00" d=" M 0.00 124.22 C 50.63 122.13 101.27 120.11 151.91 118.09 C 152.14 122.59 152.54 127.09 153.00 131.57 C 102.01 140.42 50.96 149.00 0.00 158.02 L 0.00 124.22 Z" />
<path fill="#3e3e3e" opacity="1.00" d=" M 169.23 119.27 C 177.52 119.28 185.81 119.24 194.10 119.30 C 194.12 122.53 193.88 125.77 194.29 128.99 C 194.77 132.38 200.68 132.44 201.30 129.01 C 201.71 125.78 201.46 122.51 201.46 119.27 C 207.08 119.26 212.70 119.29 218.32 119.25 C 219.73 130.33 225.16 141.04 234.17 147.83 C 240.29 152.76 247.90 155.35 255.60 156.51 C 255.51 164.51 255.54 172.50 255.58 180.50 C 252.71 180.50 249.83 180.30 246.98 180.67 C 244.05 181.36 243.72 185.39 245.71 187.25 C 248.84 188.36 252.29 187.77 255.55 188.07 C 255.54 193.32 255.55 198.58 255.54 203.84 C 233.20 202.86 211.21 193.54 195.48 177.54 C 179.89 162.24 170.70 140.99 169.23 119.27 Z" />
<path fill="#3e3e3e" opacity="1.00" d=" M 224.44 119.29 C 227.30 119.26 230.17 119.27 233.03 119.28 C 234.75 130.66 244.20 140.01 255.55 141.81 C 255.55 144.45 255.55 147.09 255.54 149.74 C 245.53 148.40 236.07 142.89 230.44 134.45 C 227.22 129.98 225.50 124.65 224.44 119.29 Z" />
<path fill="#3e3e3e" opacity="1.00" d=" M 237.18 119.29 C 243.31 119.25 249.44 119.28 255.57 119.27 C 255.52 125.24 255.58 131.21 255.52 137.18 C 251.33 135.89 247.11 134.22 244.00 131.02 C 240.58 127.89 238.65 123.60 237.18 119.29 Z" />
<path fill="#3e3e3e" opacity="1.00" d=" M 263.10 119.27 C 269.40 119.28 275.70 119.24 282.00 119.30 C 279.66 128.22 272.35 135.53 263.19 137.21 C 263.07 131.23 263.17 125.25 263.10 119.27 Z" />
<path fill="#3e3e3e" opacity="1.00" d=" M 286.77 119.30 C 289.34 119.28 291.92 119.27 294.51 119.27 C 292.82 128.12 288.46 136.67 281.21 142.20 C 276.04 146.39 269.65 148.78 263.12 149.77 C 263.11 147.17 263.13 144.58 263.16 141.98 C 274.92 140.54 285.02 131.08 286.77 119.30 Z" />
<path fill="#3e3e3e" opacity="1.00" d=" M 301.48 119.24 C 306.50 119.29 311.52 119.27 316.55 119.26 C 316.56 122.78 316.25 126.33 316.74 129.83 C 317.52 131.10 318.86 131.83 319.99 132.75 C 321.16 131.82 323.16 131.58 323.63 129.95 C 324.40 126.46 324.06 122.85 323.92 119.32 C 332.00 119.21 340.07 119.30 348.15 119.26 C 346.75 141.09 337.43 162.45 321.71 177.75 C 306.31 193.34 284.92 202.50 263.11 203.78 C 263.14 198.49 263.09 193.20 263.18 187.90 C 265.80 187.87 268.47 188.11 271.06 187.56 C 273.56 186.63 272.51 183.58 272.69 181.54 C 269.64 180.28 266.31 180.43 263.09 180.44 C 263.16 172.48 263.16 164.51 263.08 156.55 C 275.26 155.46 287.12 149.25 294.02 139.02 C 298.25 133.23 300.41 126.25 301.48 119.24 Z" />
<path fill="#f4722b" opacity="1.00" d=" M 241.38 122.33 C 245.12 122.26 248.87 122.26 252.61 122.23 C 252.55 125.93 252.55 129.63 252.50 133.34 C 247.83 130.79 243.95 127.00 241.38 122.33 Z" />
<path fill="#f4722b" opacity="1.00" d=" M 266.10 122.24 C 270.10 122.28 274.10 122.27 278.10 122.21 C 275.23 126.97 271.36 131.15 266.19 133.41 C 266.12 129.68 266.12 125.96 266.10 122.24 Z" />
<path fill="#9a9280" opacity="1.00" d=" M 367.39 126.67 C 415.59 133.08 463.80 139.44 512.00 145.82 L 512.00 160.57 C 463.44 151.88 414.79 143.66 366.20 135.14 C 366.60 132.32 367.00 129.49 367.39 126.67 Z" />
<path fill="#f4722b" opacity="1.00" d=" M 232.10 127.85 C 235.28 132.86 238.87 137.88 244.16 140.85 C 247.15 142.76 251.24 142.90 253.48 145.92 C 245.64 145.06 238.70 140.21 234.03 134.02 C 232.55 132.30 232.44 129.98 232.10 127.85 Z" />
<path fill="#f4722b" opacity="1.00" d=" M 273.06 142.05 C 278.18 139.93 282.08 135.88 285.49 131.65 C 284.98 133.00 284.63 134.46 283.71 135.61 C 279.01 141.04 272.50 145.01 265.35 146.10 C 267.10 143.52 270.48 143.37 273.06 142.05 Z" />
<path fill="#9a9280" opacity="1.00" d=" M 0.00 167.72 C 51.12 156.69 102.38 146.23 153.53 135.29 C 154.02 137.14 154.50 138.99 154.99 140.84 C 103.33 153.58 51.61 166.11 0.00 179.02 L 0.00 167.72 Z" />
<path fill="#f4722b" opacity="1.00" d=" M 230.54 149.11 C 236.97 154.18 244.54 157.53 252.57 159.12 C 252.55 165.24 252.50 171.36 252.62 177.48 C 249.09 177.44 244.91 177.24 242.37 180.17 C 241.26 182.92 241.03 186.52 243.07 188.91 C 245.58 191.38 249.33 191.04 252.57 191.20 C 252.54 194.38 252.56 197.56 252.63 200.73 C 237.50 199.40 222.81 194.26 210.14 185.89 C 215.64 182.95 218.99 177.50 222.26 172.42 C 224.30 169.05 226.66 165.85 228.19 162.21 C 229.77 158.03 230.04 153.51 230.54 149.11 Z" />
<path fill="#f4722b" opacity="1.00" d=" M 266.09 159.28 C 273.86 157.84 281.49 155.16 287.76 150.22 C 288.52 155.74 288.78 161.50 291.31 166.57 C 292.99 169.95 294.54 173.39 296.27 176.73 C 298.51 180.99 302.88 183.41 306.63 186.15 C 294.70 194.43 280.47 198.97 266.11 200.59 C 266.13 197.47 266.13 194.35 266.09 191.23 C 268.82 191.01 272.06 191.37 274.03 189.03 C 277.39 186.21 276.36 180.34 272.69 178.30 C 270.60 177.50 268.31 177.55 266.12 177.33 C 266.14 171.32 266.15 165.30 266.09 159.28 Z" />
<path fill="#f4722b" opacity="1.00" d=" M 169.80 205.78 C 175.95 202.54 182.03 199.15 188.32 196.17 C 205.57 210.86 227.19 220.56 249.83 222.49 C 263.98 223.52 278.46 222.68 291.96 218.03 C 305.87 214.09 318.55 206.62 329.77 197.61 C 337.38 201.78 345.92 204.58 352.23 210.78 C 358.22 216.46 366.11 220.55 369.92 228.19 C 373.09 233.88 377.60 239.24 378.09 246.01 C 383.82 320.01 389.37 394.03 395.12 468.04 C 396.32 477.76 390.07 489.62 379.44 490.25 C 360.77 493.27 341.84 491.41 323.04 492.18 C 268.69 492.09 214.35 492.56 160.00 492.39 C 152.79 491.98 145.53 492.29 138.35 491.48 C 129.77 488.61 121.04 480.90 121.93 471.04 C 128.24 392.37 134.62 313.70 140.92 235.03 C 141.45 229.10 144.13 223.36 147.86 218.78 C 154.65 213.65 162.28 209.74 169.80 205.78 Z" />
<path fill="#3e3e3e" opacity="1.00" d=" M 312.00 217.51 C 317.24 215.46 322.01 210.73 328.00 211.92 C 332.66 212.67 337.57 212.48 342.07 213.88 C 347.54 219.17 352.79 224.84 356.66 231.44 C 358.59 234.78 361.66 237.81 361.73 241.90 C 366.94 316.78 372.24 391.66 377.51 466.54 C 359.67 467.12 341.84 468.58 323.99 468.74 C 326.23 467.90 328.60 467.58 330.98 467.39 C 339.49 466.68 347.98 465.80 356.49 465.00 C 353.05 428.07 349.64 391.13 346.13 354.20 C 344.62 355.86 341.75 357.20 342.62 359.91 C 345.62 394.10 348.52 428.30 351.51 462.50 C 336.00 464.68 320.48 466.83 304.96 469.02 C 304.87 468.25 304.69 466.72 304.60 465.96 C 317.74 463.69 330.87 461.33 344.00 459.00 C 341.35 426.06 338.57 393.14 335.98 360.20 C 330.64 363.20 324.25 361.41 318.54 363.17 C 320.56 384.79 322.53 406.40 324.49 428.02 C 279.83 425.64 235.17 423.38 190.51 420.98 C 193.94 401.70 197.35 382.40 200.82 363.12 C 191.36 362.96 181.36 362.13 173.44 356.42 C 169.17 352.57 165.19 347.55 165.72 341.44 C 162.16 340.30 157.99 339.67 155.53 336.56 C 153.75 334.41 151.68 332.42 150.34 329.94 C 148.98 325.45 150.66 320.78 152.98 316.93 C 151.31 312.30 150.73 306.82 153.54 302.50 C 157.70 297.72 163.37 294.50 169.45 292.83 C 170.12 285.62 176.28 280.59 182.38 277.67 C 191.79 274.75 201.87 274.62 211.62 275.40 C 212.88 270.61 218.25 268.16 218.65 263.10 C 219.68 257.43 220.49 251.73 221.65 246.09 C 221.82 244.09 223.45 242.84 224.73 241.50 C 252.31 241.79 279.90 241.71 307.48 242.44 C 308.48 252.99 309.41 263.55 310.40 274.10 C 316.72 274.21 323.01 274.97 329.13 276.57 C 328.04 265.91 327.75 255.14 326.25 244.54 C 321.57 236.96 315.52 230.26 310.80 222.68 C 318.35 228.91 325.22 235.94 332.49 242.49 C 333.52 254.03 334.48 265.58 335.47 277.12 C 335.44 279.83 337.91 281.45 339.49 283.31 C 338.30 269.51 336.96 255.73 335.68 241.94 C 335.70 239.91 334.01 238.59 332.73 237.28 C 325.76 230.75 318.91 224.10 312.00 217.51 Z" />
<path fill="#f4722b" opacity="1.00" d=" M 226.50 247.60 C 251.83 247.60 277.16 247.60 302.49 247.60 C 303.36 256.55 304.31 265.49 305.02 274.46 C 303.45 274.58 301.88 274.72 300.31 274.86 C 292.65 258.87 268.76 254.96 255.69 266.53 C 251.48 263.82 247.04 261.12 241.94 260.63 C 235.82 259.25 229.63 261.01 223.75 262.64 C 224.73 257.63 225.58 252.61 226.50 247.60 Z" />
<path fill="#f5e5c1" opacity="1.00" d=" M 255.69 273.63 C 264.79 262.63 283.48 262.56 293.08 272.88 C 295.14 274.95 295.37 277.98 295.55 280.73 C 304.24 278.92 313.28 278.70 322.06 280.06 C 327.96 280.96 333.76 283.71 337.54 288.43 C 339.46 290.93 339.25 294.25 339.32 297.23 C 346.60 296.84 354.28 300.25 358.18 306.52 C 360.08 310.29 357.51 313.90 354.66 316.21 C 357.96 318.66 362.25 321.81 361.29 326.53 C 358.92 333.41 351.24 336.97 344.29 336.57 C 345.77 339.41 346.30 342.74 345.58 345.88 C 342.74 352.74 335.21 356.25 328.11 356.43 C 319.30 357.97 310.40 356.82 301.62 355.65 C 304.20 362.19 299.37 368.62 293.98 371.86 C 288.70 375.37 282.09 374.95 276.05 374.67 C 269.05 374.25 262.93 369.83 258.82 364.36 C 254.40 371.31 246.33 375.60 238.06 374.84 C 229.48 375.71 220.63 371.43 216.37 363.89 C 214.99 361.42 215.50 358.48 215.43 355.79 C 206.64 357.10 197.69 358.12 188.86 356.54 C 181.77 356.23 174.63 352.51 171.60 345.89 C 170.88 342.85 171.35 339.66 172.47 336.78 C 166.74 337.32 160.82 335.30 157.28 330.63 C 155.06 328.54 154.71 325.18 155.69 322.42 C 156.97 320.21 159.11 318.71 160.96 317.03 C 158.46 314.72 155.28 311.77 156.77 307.99 C 159.78 301.32 167.57 297.81 174.66 298.09 C 174.68 295.22 174.10 292.06 175.74 289.49 C 179.24 284.57 185.05 281.75 190.92 280.87 C 199.38 279.50 208.08 279.70 216.51 281.21 C 216.12 277.01 217.91 272.91 221.48 270.58 C 231.44 262.93 247.30 264.09 255.69 273.63 Z" />
<path fill="#3e3e3e" opacity="1.00" d=" M 192.09 288.34 C 205.73 288.58 219.40 288.35 233.01 289.33 C 242.82 289.60 252.64 289.56 262.45 289.89 C 258.94 292.74 254.83 294.67 250.96 296.94 C 242.32 301.97 233.59 306.86 225.00 312.00 C 222.87 313.28 220.64 314.39 218.33 315.30 C 231.98 324.98 245.01 335.52 258.62 345.27 C 250.70 345.63 242.83 344.50 234.92 344.53 C 220.18 344.39 205.47 343.47 190.74 343.23 C 190.04 339.41 189.37 335.58 188.60 331.78 C 183.22 329.79 177.83 327.81 172.37 326.05 C 173.82 318.62 175.48 311.23 177.01 303.82 C 181.47 301.73 185.90 299.56 190.32 297.38 C 191.05 294.39 191.68 291.38 192.09 288.34 Z" />
<path fill="#3e3e3e" opacity="1.00" d=" M 264.23 291.36 C 264.27 290.95 264.34 290.14 264.38 289.74 C 276.85 291.19 289.47 290.13 301.97 291.16 C 310.10 291.47 318.24 291.50 326.37 291.77 C 327.29 295.19 328.19 298.62 328.87 302.09 C 332.09 303.89 336.23 304.46 338.91 306.96 C 340.61 313.68 341.24 320.63 342.70 327.41 C 339.82 329.90 336.78 332.21 334.00 334.82 C 332.95 338.94 331.58 342.96 330.28 347.01 C 308.05 346.78 285.83 346.37 263.63 345.37 C 277.61 337.10 291.90 329.36 305.89 321.10 C 291.89 311.35 278.27 301.05 264.23 291.36 Z" />
<path fill="#3e3e3e" opacity="1.00" d=" M 249.92 310.01 C 251.53 309.06 253.03 307.86 254.84 307.31 C 257.20 308.79 258.94 311.05 260.96 312.95 C 262.90 311.23 264.60 309.12 266.99 308.00 C 268.18 308.52 269.30 309.19 270.45 309.83 C 268.23 311.83 266.06 313.89 263.94 316.00 C 267.02 318.93 270.14 321.84 273.14 324.86 C 271.35 326.16 269.59 327.49 267.85 328.86 C 265.35 326.44 263.15 323.72 260.58 321.38 C 260.28 321.37 259.68 321.35 259.38 321.34 C 256.70 323.35 254.40 325.80 251.92 328.05 C 250.53 326.66 249.15 325.26 247.77 323.87 C 250.63 321.39 253.62 319.03 256.36 316.40 C 254.20 314.28 252.07 312.14 249.92 310.01 Z" />
<path fill="#3e3e3e" opacity="1.00" d=" M 232.87 311.88 C 234.00 310.97 235.12 310.06 236.26 309.16 C 237.60 310.62 238.80 312.19 240.06 313.72 C 242.11 312.08 244.27 310.47 246.90 309.89 C 246.74 312.97 243.68 314.26 241.68 316.05 C 243.38 318.11 245.11 320.16 246.89 322.16 C 245.44 323.05 244.06 324.07 242.50 324.76 C 240.90 323.25 239.65 321.41 238.05 319.91 C 235.72 321.22 233.75 323.05 231.75 324.79 C 230.84 323.81 229.94 322.83 229.04 321.86 C 231.29 320.17 233.73 318.69 235.73 316.68 C 235.58 314.80 233.80 313.45 232.87 311.88 Z" />
<path fill="#3e3e3e" opacity="1.00" d=" M 273.39 311.98 C 274.58 311.12 275.77 310.25 276.97 309.40 C 278.89 311.05 280.84 312.65 282.82 314.23 C 283.89 312.93 284.97 311.65 286.02 310.34 C 286.87 310.51 288.58 310.84 289.44 311.00 C 288.32 313.01 287.10 314.96 285.83 316.88 C 288.62 318.92 291.33 321.06 294.12 323.10 C 292.82 323.92 291.81 325.54 290.16 325.66 C 287.67 324.07 285.52 322.02 283.14 320.28 C 281.56 322.22 279.90 324.09 278.18 325.92 C 276.89 324.86 275.61 323.80 274.33 322.75 C 276.14 320.81 278.00 318.93 279.85 317.04 C 277.69 315.36 275.55 313.65 273.39 311.98 Z" />
<path fill="#f4722b" opacity="1.00" d=" M 205.70 364.34 C 205.77 362.30 207.94 362.13 209.45 361.69 C 212.34 370.73 220.33 377.43 229.56 379.26 C 239.68 380.72 251.19 380.18 259.00 372.70 C 263.87 376.45 269.63 379.38 275.87 379.66 C 282.35 379.94 289.27 380.23 295.22 377.22 C 301.50 374.42 305.95 368.45 308.09 362.03 C 309.91 362.05 311.74 362.08 313.57 362.12 C 315.54 382.57 317.53 403.03 319.50 423.49 C 278.66 420.02 237.83 416.52 197.00 412.99 C 199.92 396.78 202.74 380.54 205.70 364.34 Z" />
</svg>
