<?xml version="1.0" encoding="UTF-8" ?>
<!DOCTYPE svg PUBLIC "-//W3C//DTD SVG 1.1//EN" "http://www.w3.org/Graphics/SVG/1.1/DTD/svg11.dtd">
<svg width="512pt" height="512pt" viewBox="0 0 512 512" version="1.1" xmlns="http://www.w3.org/2000/svg">
<path fill="#794f38" opacity="1.00" d=" M 0.00 0.00 L 0.06 0.00 C 0.05 0.02 0.02 0.05 0.00 0.06 L 0.00 0.00 Z" />
<path fill="#3e3e3e" opacity="1.00" d=" M 0.06 0.00 L 512.00 0.00 L 512.00 155.09 C 483.33 155.08 454.65 155.08 425.98 155.09 C 416.00 154.49 406.01 154.83 396.03 154.72 C 394.19 154.67 392.42 155.13 390.62 155.36 C 389.75 159.08 389.23 162.93 390.41 166.66 C 398.26 166.76 406.11 166.64 413.96 167.10 C 446.64 167.08 479.32 167.10 512.00 167.09 L 512.00 512.00 L 343.56 512.00 C 340.64 504.50 338.00 496.88 334.14 489.79 C 326.13 471.73 317.78 453.81 310.48 435.45 C 303.43 418.23 296.18 401.09 289.25 383.83 C 290.75 370.49 291.02 357.05 292.42 343.71 C 301.96 331.62 311.53 319.55 320.94 307.37 C 321.32 307.35 322.07 307.30 322.45 307.28 C 340.18 320.11 358.26 332.46 375.96 345.34 C 381.62 345.30 387.29 345.29 392.97 345.22 C 406.55 343.98 420.22 344.50 433.83 343.69 C 446.66 343.80 459.44 342.56 472.26 342.61 C 475.14 340.07 478.40 337.82 480.51 334.55 C 483.87 328.93 484.58 321.78 482.22 315.66 C 479.84 310.06 476.55 304.58 471.14 301.46 C 464.84 301.41 458.54 301.23 452.23 301.34 C 431.16 300.16 410.03 300.66 388.93 300.13 C 386.23 300.18 384.02 298.46 381.77 297.24 C 370.23 290.43 358.27 284.30 346.93 277.17 C 349.15 274.52 351.47 271.97 353.70 269.34 C 365.01 277.99 376.54 286.40 388.18 294.58 C 423.15 281.27 457.90 267.34 492.83 253.92 C 496.89 252.99 499.84 249.78 500.65 245.74 C 501.62 245.01 502.61 244.29 503.59 243.58 C 503.30 239.13 503.70 234.45 501.64 230.35 C 499.79 226.45 498.00 222.27 494.53 219.51 C 489.02 215.02 482.20 210.35 474.72 212.63 C 446.76 222.23 418.77 231.74 390.87 241.52 C 365.18 222.80 339.44 204.15 313.76 185.41 C 277.61 232.42 241.90 279.78 205.86 326.87 C 204.12 329.10 201.51 330.84 200.81 333.73 C 196.25 352.47 194.64 371.76 193.35 390.94 C 193.97 407.86 193.64 424.83 195.34 441.70 C 195.37 465.18 197.46 488.58 198.89 512.00 L 196.33 512.00 C 194.52 505.39 195.48 498.44 194.16 491.77 C 191.69 484.54 187.12 478.28 183.21 471.79 C 181.45 469.01 181.51 465.60 180.37 462.60 C 171.93 443.23 164.41 423.46 155.85 404.14 C 152.78 397.91 148.91 392.10 146.19 385.71 C 145.32 383.80 146.05 381.70 146.30 379.75 C 147.28 374.56 147.34 369.28 147.40 364.02 C 147.44 357.28 148.56 350.62 148.85 343.89 C 152.24 344.23 155.65 344.04 159.04 344.24 C 170.80 346.38 182.80 344.96 194.64 344.45 C 195.04 342.60 195.45 340.76 195.85 338.91 C 196.86 334.73 197.28 329.72 201.04 326.98 C 202.48 325.74 203.47 324.09 204.47 322.50 C 205.91 320.25 207.89 318.44 209.57 316.39 C 213.62 311.75 216.87 306.50 220.83 301.78 C 223.46 298.53 225.94 295.18 228.29 291.73 C 222.56 287.78 216.15 284.96 210.43 281.01 C 213.01 280.06 215.54 279.00 218.10 277.99 C 224.13 277.69 227.80 283.40 232.75 285.91 C 237.67 279.68 242.36 273.27 247.05 266.86 C 259.37 251.04 271.34 234.97 283.65 219.14 C 280.02 216.92 276.69 214.12 272.73 212.48 C 268.50 211.81 264.04 211.89 259.95 213.26 C 248.55 217.30 237.07 221.11 225.67 225.15 C 219.78 221.99 215.01 217.21 209.37 213.66 C 200.43 207.27 191.47 200.89 182.73 194.22 C 186.14 191.37 189.12 188.00 191.36 184.15 C 195.01 186.28 196.58 190.52 199.83 193.11 C 213.02 205.28 234.67 206.95 249.28 196.36 C 255.11 191.82 260.53 186.30 263.34 179.35 C 265.03 175.25 265.91 170.88 266.92 166.57 C 288.06 166.59 309.20 166.55 330.34 166.60 C 331.39 177.42 336.68 187.90 345.30 194.64 C 354.24 201.79 366.41 204.96 377.67 202.59 C 389.07 200.50 399.37 193.08 404.93 182.90 C 407.59 178.37 408.78 173.16 410.01 168.11 C 407.03 173.73 401.49 178.67 394.82 178.64 C 386.01 179.37 377.93 171.60 377.53 162.94 C 377.26 155.68 382.22 148.30 389.38 146.48 C 392.72 145.94 396.19 145.92 399.52 146.62 C 403.51 147.76 406.27 151.11 408.91 154.10 C 405.83 141.93 397.00 131.36 385.28 126.71 C 378.29 123.50 370.39 123.95 362.92 124.45 C 347.30 126.93 334.44 139.90 331.10 155.24 C 309.57 154.66 287.99 154.58 266.46 155.30 C 263.53 148.39 260.99 141.00 255.19 135.88 C 243.47 122.86 222.74 120.01 207.58 128.49 C 201.45 131.67 196.69 136.86 192.74 142.42 C 192.32 142.41 191.49 142.38 191.07 142.37 C 185.54 133.33 176.20 126.78 165.83 124.60 C 154.81 122.05 142.79 124.81 133.75 131.55 C 129.76 134.47 126.66 138.37 123.49 142.11 C 122.55 141.34 121.62 140.56 120.70 139.76 C 114.89 131.60 105.67 126.07 95.84 124.35 C 82.24 121.72 67.52 127.11 58.59 137.64 C 47.04 150.78 45.98 171.78 56.04 186.06 C 61.25 193.86 69.44 199.39 78.39 202.01 C 81.07 202.88 83.83 203.54 86.60 204.05 C 83.34 208.60 79.98 213.09 76.35 217.36 C 61.68 206.73 47.14 195.91 32.33 185.48 C 21.53 199.64 10.65 213.75 0.00 228.02 L 0.00 0.06 C 0.02 0.05 0.05 0.02 0.06 0.00 Z" />
<path fill="#f5e5c1" opacity="1.00" d=" M 355.01 43.00 C 360.00 44.01 365.00 45.00 370.00 46.01 C 368.58 68.65 367.44 91.31 365.84 113.93 C 364.39 112.89 364.69 110.90 364.32 109.36 C 361.27 87.24 358.09 65.13 355.01 43.00 Z" />
<path fill="#f5e5c1" opacity="1.00" d=" M 406.01 63.98 C 412.67 64.39 419.35 64.60 426.01 65.06 C 419.89 81.29 413.88 97.56 407.80 113.81 C 406.46 117.26 405.42 120.82 403.67 124.09 C 401.21 121.95 402.34 118.73 402.41 115.96 C 403.63 98.63 404.79 81.31 406.01 63.98 Z" />
<path fill="#f5e5c1" opacity="1.00" d=" M 421.00 140.11 C 433.90 126.32 447.00 112.72 460.01 99.02 C 462.01 102.68 464.01 106.34 465.99 110.02 C 450.96 119.99 436.21 130.41 421.00 140.11 Z" />
<path fill="#f4722b" opacity="1.00" d=" M 58.59 137.64 C 67.52 127.11 82.24 121.72 95.84 124.35 C 105.67 126.07 114.89 131.60 120.70 139.76 C 124.05 144.54 126.40 149.88 128.48 155.30 C 123.33 155.48 118.12 154.82 113.02 155.74 C 111.70 156.52 110.54 157.53 109.34 158.50 C 109.18 161.49 109.72 164.99 113.06 166.00 C 118.24 167.17 123.66 166.31 128.94 166.58 C 127.79 173.30 125.84 179.99 121.83 185.62 C 120.18 188.35 118.13 190.83 115.62 192.81 C 109.01 199.13 100.09 202.84 90.98 203.29 C 86.76 203.21 82.60 202.33 78.39 202.01 C 69.44 199.39 61.25 193.86 56.04 186.06 C 45.98 171.78 47.04 150.78 58.59 137.64 Z" />
<path fill="#955735" opacity="1.00" d=" M 133.75 131.55 C 142.79 124.81 154.81 122.05 165.83 124.60 C 176.20 126.78 185.54 133.33 191.07 142.37 C 193.51 146.19 195.07 150.49 196.34 154.82 C 189.72 154.82 183.11 154.85 176.50 154.79 C 176.33 158.73 176.25 162.67 176.38 166.61 C 183.42 166.55 190.45 166.58 197.48 166.58 C 196.28 172.68 194.70 178.82 191.36 184.15 C 189.12 188.00 186.14 191.37 182.73 194.22 C 175.24 200.37 165.51 203.47 155.87 203.36 C 143.02 202.96 131.13 195.76 123.89 185.30 C 123.37 185.38 122.34 185.54 121.83 185.62 C 125.84 179.99 127.79 173.30 128.94 166.58 C 139.84 166.59 150.73 166.53 161.63 166.61 C 161.81 162.66 161.70 158.72 161.47 154.78 C 150.47 154.99 139.46 154.47 128.48 155.30 C 126.40 149.88 124.05 144.54 120.70 139.76 C 121.62 140.56 122.55 141.34 123.49 142.11 C 126.66 138.37 129.76 134.47 133.75 131.55 Z" />
<path fill="#794f38" opacity="1.00" d=" M 207.58 128.49 C 222.74 120.01 243.47 122.86 255.19 135.88 C 260.99 141.00 263.53 148.39 266.46 155.30 C 243.10 154.46 219.71 154.96 196.34 154.82 C 195.07 150.49 193.51 146.19 191.07 142.37 C 191.49 142.38 192.32 142.41 192.74 142.42 C 196.69 136.86 201.45 131.67 207.58 128.49 Z" />
<path fill="#f5e5c1" opacity="1.00" d=" M 331.10 155.24 C 334.44 139.90 347.30 126.93 362.92 124.45 C 370.39 123.95 378.29 123.50 385.28 126.71 C 397.00 131.36 405.83 141.93 408.91 154.10 C 406.27 151.11 403.51 147.76 399.52 146.62 C 396.19 145.92 392.72 145.94 389.38 146.48 C 382.22 148.30 377.26 155.68 377.53 162.94 C 377.93 171.60 386.01 179.37 394.82 178.64 C 401.49 178.67 407.03 173.73 410.01 168.11 C 408.78 173.16 407.59 178.37 404.93 182.90 C 399.37 193.08 389.07 200.50 377.67 202.59 C 366.41 204.96 354.24 201.79 345.30 194.64 C 336.68 187.90 331.39 177.42 330.34 166.60 C 309.20 166.55 288.06 166.59 266.92 166.57 C 243.77 166.57 220.63 166.57 197.48 166.58 C 190.45 166.58 183.42 166.55 176.38 166.61 C 176.25 162.67 176.33 158.73 176.50 154.79 C 183.11 154.85 189.72 154.82 196.34 154.82 C 219.71 154.96 243.10 154.46 266.46 155.30 C 287.99 154.58 309.57 154.66 331.10 155.24 Z" />
<path fill="#f5e5c1" opacity="1.00" d=" M 128.48 155.30 C 139.46 154.47 150.47 154.99 161.47 154.78 C 161.70 158.72 161.81 162.66 161.63 166.61 C 150.73 166.53 139.84 166.59 128.94 166.58 C 123.66 166.31 118.24 167.17 113.06 166.00 C 109.72 164.99 109.18 161.49 109.34 158.50 C 110.54 157.53 111.70 156.52 113.02 155.74 C 118.12 154.82 123.33 155.48 128.48 155.30 Z" />
<path fill="#f5e5c1" opacity="1.00" d=" M 390.62 155.36 C 392.42 155.13 394.19 154.67 396.03 154.72 C 406.01 154.83 416.00 154.49 425.98 155.09 C 454.65 155.08 483.33 155.08 512.00 155.09 L 512.00 167.09 C 479.32 167.10 446.64 167.08 413.96 167.10 C 406.11 166.64 398.26 166.76 390.41 166.66 C 389.23 162.93 389.75 159.08 390.62 155.36 Z" />
<path fill="#794f38" opacity="1.00" d=" M 197.48 166.58 C 220.63 166.57 243.77 166.57 266.92 166.57 C 265.91 170.88 265.03 175.25 263.34 179.35 C 260.53 186.30 255.11 191.82 249.28 196.36 C 234.67 206.95 213.02 205.28 199.83 193.11 C 196.58 190.52 195.01 186.28 191.36 184.15 C 194.70 178.82 196.28 172.68 197.48 166.58 Z" />
<path fill="#f5e5c1" opacity="1.00" d=" M 422.67 173.91 C 438.45 178.94 454.23 183.96 470.01 189.02 C 464.66 195.00 459.33 201.00 454.01 207.02 C 445.81 198.53 437.61 190.05 429.40 181.57 C 426.97 179.18 424.71 176.63 422.67 173.91 Z" />
<path fill="#3e3e3e" opacity="1.00" d=" M 121.83 185.62 C 122.34 185.54 123.37 185.38 123.89 185.30 C 131.13 195.76 143.02 202.96 155.87 203.36 C 152.83 208.49 149.34 213.51 144.73 217.36 C 135.47 210.18 125.75 203.61 116.41 196.55 C 114.87 195.77 115.34 194.14 115.62 192.81 C 118.13 190.83 120.18 188.35 121.83 185.62 Z" />
<path fill="#f5e5c1" opacity="1.00" d=" M 205.86 326.87 C 241.90 279.78 277.61 232.42 313.76 185.41 C 339.44 204.15 365.18 222.80 390.87 241.52 C 418.77 231.74 446.76 222.23 474.72 212.63 C 482.20 210.35 489.02 215.02 494.53 219.51 C 498.00 222.27 499.79 226.45 501.64 230.35 C 503.00 235.47 501.76 240.71 500.65 245.74 C 499.84 249.78 496.89 252.99 492.83 253.92 C 457.90 267.34 423.15 281.27 388.18 294.58 C 376.54 286.40 365.01 277.99 353.70 269.34 C 351.47 271.97 349.15 274.52 346.93 277.17 C 358.27 284.30 370.23 290.43 381.77 297.24 C 384.02 298.46 386.23 300.18 388.93 300.13 C 410.03 300.66 431.16 300.16 452.23 301.34 C 458.54 301.23 464.84 301.41 471.14 301.46 C 476.55 304.58 479.84 310.06 482.22 315.66 C 484.58 321.78 483.87 328.93 480.51 334.55 C 478.40 337.82 475.14 340.07 472.26 342.61 C 459.44 342.56 446.66 343.80 433.83 343.69 C 420.22 344.50 406.55 343.98 392.97 345.22 C 387.29 345.29 381.62 345.30 375.96 345.34 C 358.26 332.46 340.18 320.11 322.45 307.28 C 322.07 307.30 321.32 307.35 320.94 307.37 C 311.53 319.55 301.96 331.62 292.42 343.71 C 291.02 357.05 290.75 370.49 289.25 383.83 C 296.18 401.09 303.43 418.23 310.48 435.45 C 317.78 453.81 326.13 471.73 334.14 489.79 C 338.00 496.88 340.64 504.50 343.56 512.00 L 288.52 512.00 C 280.35 495.09 274.64 477.14 266.89 460.05 C 264.73 454.41 261.56 449.23 259.24 443.68 C 256.65 434.62 251.20 426.72 248.41 417.73 C 249.14 429.81 250.09 441.87 249.76 453.99 C 250.48 473.33 251.60 492.66 252.43 512.00 L 198.89 512.00 C 197.46 488.58 195.37 465.18 195.34 441.70 C 193.64 424.83 193.97 407.86 193.35 390.94 C 194.64 371.76 196.25 352.47 200.81 333.73 C 201.51 330.84 204.12 329.10 205.86 326.87 Z" />
<path fill="#f4722b" opacity="1.00" d=" M 0.00 228.02 C 10.65 213.75 21.53 199.64 32.33 185.48 C 47.14 195.91 61.68 206.73 76.35 217.36 C 84.73 223.41 93.07 229.50 101.43 235.58 C 103.98 237.40 106.36 239.54 109.21 240.89 C 111.37 240.95 113.42 240.11 115.44 239.48 C 128.66 234.73 142.04 230.43 155.25 225.66 C 166.86 221.77 178.44 217.83 189.98 213.74 C 194.53 211.90 199.68 211.67 204.46 212.58 C 207.74 214.18 210.81 216.23 213.77 218.38 C 216.42 220.83 217.70 224.36 219.57 227.39 C 222.24 232.09 222.74 237.57 222.96 242.87 C 220.62 245.63 218.77 248.77 216.33 251.44 C 214.22 253.25 211.41 253.89 208.90 254.93 C 189.34 262.43 169.91 270.26 150.31 277.67 C 147.54 278.80 144.77 279.93 141.98 280.98 C 130.76 285.39 119.54 289.77 108.34 294.18 C 106.78 295.09 105.43 293.53 104.16 292.82 C 95.95 286.68 87.60 280.71 79.36 274.62 C 77.06 272.96 74.92 270.96 72.20 270.02 C 69.45 271.94 67.69 274.82 65.85 277.55 C 78.08 284.56 90.40 291.40 102.60 298.46 C 106.30 300.79 110.85 300.07 115.00 300.29 C 133.66 300.59 152.34 300.26 170.97 301.33 C 174.88 301.39 178.80 301.25 182.72 301.21 C 184.93 301.34 187.15 301.36 189.36 301.19 C 192.73 303.70 196.70 305.40 199.80 308.27 C 202.21 312.68 203.18 317.69 204.47 322.50 C 203.47 324.09 202.48 325.74 201.04 326.98 C 197.28 329.72 196.86 334.73 195.85 338.91 C 193.73 340.37 191.75 342.59 189.01 342.63 C 184.66 342.74 180.32 342.77 175.99 343.13 C 166.54 343.90 157.05 342.70 147.62 343.82 C 140.04 343.99 132.46 344.44 124.88 344.46 C 114.95 345.32 104.95 345.54 95.01 345.16 C 91.09 343.14 87.78 340.13 84.10 337.72 C 69.44 327.48 55.01 316.91 40.22 306.86 C 30.92 318.38 21.96 330.19 12.67 341.72 C 11.07 343.46 10.66 345.82 10.64 348.11 C 10.50 354.40 9.52 360.65 9.48 366.95 C 9.47 373.74 7.09 380.74 9.71 387.34 C 12.85 395.63 15.35 404.15 18.57 412.41 C 25.96 430.06 32.24 448.18 40.59 465.43 C 48.25 481.17 55.41 497.28 64.97 512.00 L 0.00 512.00 L 0.00 228.02 Z" />
<path fill="#955735" opacity="1.00" d=" M 90.98 203.29 C 100.09 202.84 109.01 199.13 115.62 192.81 C 115.34 194.14 114.87 195.77 116.41 196.55 C 125.75 203.61 135.47 210.18 144.73 217.36 C 148.39 219.92 152.13 222.42 155.25 225.66 C 142.04 230.43 128.66 234.73 115.44 239.48 C 113.42 240.11 111.37 240.95 109.21 240.89 C 106.36 239.54 103.98 237.40 101.43 235.58 C 93.07 229.50 84.73 223.41 76.35 217.36 C 79.98 213.09 83.34 208.60 86.60 204.05 C 83.83 203.54 81.07 202.88 78.39 202.01 C 82.60 202.33 86.76 203.21 90.98 203.29 Z" />
<path fill="#794f38" opacity="1.00" d=" M 155.87 203.36 C 165.51 203.47 175.24 200.37 182.73 194.22 C 191.47 200.89 200.43 207.27 209.37 213.66 C 215.01 217.21 219.78 221.99 225.67 225.15 C 223.63 225.88 221.60 226.63 219.57 227.39 C 217.70 224.36 216.42 220.83 213.77 218.38 C 210.81 216.23 207.74 214.18 204.46 212.58 C 199.68 211.67 194.53 211.90 189.98 213.74 C 178.44 217.83 166.86 221.77 155.25 225.66 C 152.13 222.42 148.39 219.92 144.73 217.36 C 149.34 213.51 152.83 208.49 155.87 203.36 Z" />
<path fill="#f5e5c1" opacity="1.00" d=" M 402.96 200.83 C 404.32 200.92 405.64 201.36 406.58 202.41 C 413.02 208.30 419.52 214.13 425.98 220.00 C 423.00 221.34 420.01 222.67 417.01 224.00 C 412.31 216.29 407.55 208.60 402.96 200.83 Z" />
<path fill="#955735" opacity="1.00" d=" M 259.95 213.26 C 264.04 211.89 268.50 211.81 272.73 212.48 C 276.69 214.12 280.02 216.92 283.65 219.14 C 271.34 234.97 259.37 251.04 247.05 266.86 C 237.35 270.45 227.78 274.37 218.10 277.99 C 215.54 279.00 213.01 280.06 210.43 281.01 C 200.24 285.07 189.95 288.84 179.78 292.95 C 177.83 293.46 175.54 294.84 173.66 293.45 C 169.98 291.22 166.84 288.24 163.26 285.85 C 159.01 283.02 155.41 279.01 150.31 277.67 C 169.91 270.26 189.34 262.43 208.90 254.93 C 211.41 253.89 214.22 253.25 216.33 251.44 C 218.77 248.77 220.62 245.63 222.96 242.87 C 222.74 237.57 222.24 232.09 219.57 227.39 C 221.60 226.63 223.63 225.88 225.67 225.15 C 237.07 221.11 248.55 217.30 259.95 213.26 Z" />
<path fill="#794f38" opacity="1.00" d=" M 501.64 230.35 C 503.70 234.45 503.30 239.13 503.59 243.58 C 502.61 244.29 501.62 245.01 500.65 245.74 C 501.76 240.71 503.00 235.47 501.64 230.35 Z" />
<path fill="#794f38" opacity="1.00" d=" M 218.10 277.99 C 227.78 274.37 237.35 270.45 247.05 266.86 C 242.36 273.27 237.67 279.68 232.75 285.91 C 227.80 283.40 224.13 277.69 218.10 277.99 Z" />
<path fill="#955735" opacity="1.00" d=" M 65.85 277.55 C 67.69 274.82 69.45 271.94 72.20 270.02 C 74.92 270.96 77.06 272.96 79.36 274.62 C 87.60 280.71 95.95 286.68 104.16 292.82 C 105.43 293.53 106.78 295.09 108.34 294.18 C 119.54 289.77 130.76 285.39 141.98 280.98 C 142.95 282.39 144.23 283.54 145.79 284.27 C 153.83 288.44 161.49 293.28 169.46 297.57 C 173.49 300.00 178.40 299.56 182.72 301.21 C 178.80 301.25 174.88 301.39 170.97 301.33 C 152.34 300.26 133.66 300.59 115.00 300.29 C 110.85 300.07 106.30 300.79 102.60 298.46 C 90.40 291.40 78.08 284.56 65.85 277.55 Z" />
<path fill="#794f38" opacity="1.00" d=" M 150.31 277.67 C 155.41 279.01 159.01 283.02 163.26 285.85 C 166.84 288.24 169.98 291.22 173.66 293.45 C 175.54 294.84 177.83 293.46 179.78 292.95 C 189.95 288.84 200.24 285.07 210.43 281.01 C 216.15 284.96 222.56 287.78 228.29 291.73 C 225.94 295.18 223.46 298.53 220.83 301.78 C 217.61 301.03 214.32 300.53 211.01 300.65 C 203.79 300.90 196.54 300.20 189.36 301.19 C 187.15 301.36 184.93 301.34 182.72 301.21 C 178.40 299.56 173.49 300.00 169.46 297.57 C 161.49 293.28 153.83 288.44 145.79 284.27 C 144.23 283.54 142.95 282.39 141.98 280.98 C 144.77 279.93 147.54 278.80 150.31 277.67 Z" />
<path fill="#955735" opacity="1.00" d=" M 189.36 301.19 C 196.54 300.20 203.79 300.90 211.01 300.65 C 214.32 300.53 217.61 301.03 220.83 301.78 C 216.87 306.50 213.62 311.75 209.57 316.39 C 207.89 318.44 205.91 320.25 204.47 322.50 C 203.18 317.69 202.21 312.68 199.80 308.27 C 196.70 305.40 192.73 303.70 189.36 301.19 Z" />
<path fill="#955735" opacity="1.00" d=" M 40.22 306.86 C 55.01 316.91 69.44 327.48 84.10 337.72 C 82.10 340.55 79.49 343.31 79.27 346.97 C 78.25 355.03 78.24 363.18 77.77 371.29 C 77.84 375.48 77.35 379.73 78.05 383.89 C 79.24 386.92 81.18 389.58 82.48 392.56 C 86.98 402.84 92.51 412.63 97.12 422.86 C 100.08 429.57 104.07 435.75 107.01 442.46 C 108.99 447.19 112.76 451.08 113.84 456.19 C 114.30 457.99 114.64 459.86 115.37 461.59 C 120.45 471.51 126.54 480.92 130.71 491.30 C 134.13 498.27 137.03 505.56 141.43 512.00 L 90.77 512.00 C 83.36 498.30 78.29 483.51 71.43 469.56 C 60.65 450.70 51.94 430.76 42.36 411.28 C 41.42 419.09 42.00 426.96 41.39 434.78 C 40.41 444.96 40.53 455.21 40.59 465.43 C 32.24 448.18 25.96 430.06 18.57 412.41 C 15.35 404.15 12.85 395.63 9.71 387.34 C 7.09 380.74 9.47 373.74 9.48 366.95 C 9.52 360.65 10.50 354.40 10.64 348.11 C 10.66 345.82 11.07 343.46 12.67 341.72 C 21.96 330.19 30.92 318.38 40.22 306.86 Z" />
<path fill="#794f38" opacity="1.00" d=" M 322.26 311.08 C 328.33 316.11 335.18 320.15 341.33 325.05 C 341.46 327.83 341.24 330.69 340.35 333.33 C 338.46 335.47 335.97 336.95 333.78 338.75 C 331.42 340.50 329.22 343.05 325.99 342.84 C 316.49 343.29 306.97 343.41 297.46 343.48 C 304.77 331.96 314.58 322.32 322.26 311.08 Z" />
<path fill="#794f38" opacity="1.00" d=" M 79.27 346.97 C 79.49 343.31 82.10 340.55 84.10 337.72 C 87.78 340.13 91.09 343.14 95.01 345.16 C 104.95 345.54 114.95 345.32 124.88 344.46 C 132.46 344.44 140.04 343.99 147.62 343.82 L 148.85 343.89 C 148.56 350.62 147.44 357.28 147.40 364.02 C 147.34 369.28 147.28 374.56 146.30 379.75 C 146.05 381.70 145.32 383.80 146.19 385.71 C 148.91 392.10 152.78 397.91 155.85 404.14 C 164.41 423.46 171.93 443.23 180.37 462.60 C 181.51 465.60 181.45 469.01 183.21 471.79 C 187.12 478.28 191.69 484.54 194.16 491.77 C 195.48 498.44 194.52 505.39 196.33 512.00 L 154.04 512.00 C 151.01 505.97 148.52 499.67 145.34 493.71 C 138.89 481.40 132.94 468.63 130.10 454.95 C 128.99 449.91 126.48 445.36 124.19 440.78 C 120.46 433.57 117.23 426.11 113.56 418.86 C 112.41 420.31 111.00 421.68 110.65 423.58 C 109.26 429.83 108.25 436.17 107.01 442.46 C 104.07 435.75 100.08 429.57 97.12 422.86 C 92.51 412.63 86.98 402.84 82.48 392.56 C 81.18 389.58 79.24 386.92 78.05 383.89 C 77.35 379.73 77.84 375.48 77.77 371.29 C 78.24 363.18 78.25 355.03 79.27 346.97 Z" />
<path fill="#955735" opacity="1.00" d=" M 189.01 342.63 C 191.75 342.59 193.73 340.37 195.85 338.91 C 195.45 340.76 195.04 342.60 194.64 344.45 C 182.80 344.96 170.80 346.38 159.04 344.24 C 155.65 344.04 152.24 344.23 148.85 343.89 L 147.62 343.82 C 157.05 342.70 166.54 343.90 175.99 343.13 C 180.32 342.77 184.66 342.74 189.01 342.63 Z" />
<path fill="#3e3e3e" opacity="1.00" d=" M 41.39 434.78 C 42.00 426.96 41.42 419.09 42.36 411.28 C 51.94 430.76 60.65 450.70 71.43 469.56 C 78.29 483.51 83.36 498.30 90.77 512.00 L 64.97 512.00 C 55.41 497.28 48.25 481.17 40.59 465.43 C 40.53 455.21 40.41 444.96 41.39 434.78 Z" />
<path fill="#3e3e3e" opacity="1.00" d=" M 248.41 417.73 C 251.20 426.72 256.65 434.62 259.24 443.68 C 261.56 449.23 264.73 454.41 266.89 460.05 C 274.64 477.14 280.35 495.09 288.52 512.00 L 252.43 512.00 C 251.60 492.66 250.48 473.33 249.76 453.99 C 250.09 441.87 249.14 429.81 248.41 417.73 Z" />
<path fill="#3e3e3e" opacity="1.00" d=" M 110.65 423.58 C 111.00 421.68 112.41 420.31 113.56 418.86 C 117.23 426.11 120.46 433.57 124.19 440.78 C 126.48 445.36 128.99 449.91 130.10 454.95 C 132.94 468.63 138.89 481.40 145.34 493.71 C 148.52 499.67 151.01 505.97 154.04 512.00 L 141.43 512.00 C 137.03 505.56 134.13 498.27 130.71 491.30 C 126.54 480.92 120.45 471.51 115.37 461.59 C 114.64 459.86 114.30 457.99 113.84 456.19 C 112.76 451.08 108.99 447.19 107.01 442.46 C 108.25 436.17 109.26 429.83 110.65 423.58 Z" />
</svg>
