<?xml version="1.0" encoding="UTF-8" standalone="no"?>
<svg
   xmlns:dc="http://purl.org/dc/elements/1.1/"
   xmlns:cc="http://creativecommons.org/ns#"
   xmlns:rdf="http://www.w3.org/1999/02/22-rdf-syntax-ns#"
   xmlns:svg="http://www.w3.org/2000/svg"
   xmlns="http://www.w3.org/2000/svg"
   xmlns:sodipodi="http://sodipodi.sourceforge.net/DTD/sodipodi-0.dtd"
   xmlns:inkscape="http://www.inkscape.org/namespaces/inkscape"
   width="1280"
   height="1280"
   viewBox="0 0 1024 1024"
   version="1.1"
   id="svg2"
   inkscape:version="0.48.1 "
   sodipodi:docname="jarate_assists.svg">
  <metadata
     id="metadata74">
    <rdf:RDF>
      <cc:Work
         rdf:about="">
        <dc:format>image/svg+xml</dc:format>
        <dc:type
           rdf:resource="http://purl.org/dc/dcmitype/StillImage" />
      </cc:Work>
    </rdf:RDF>
  </metadata>
  <defs
     id="defs72" />
  <sodipodi:namedview
     pagecolor="#ffffff"
     bordercolor="#666666"
     borderopacity="1"
     objecttolerance="10"
     gridtolerance="10"
     guidetolerance="10"
     inkscape:pageopacity="0"
     inkscape:pageshadow="2"
     inkscape:window-width="1920"
     inkscape:window-height="1018"
     id="namedview70"
     showgrid="false"
     fit-margin-top="0"
     fit-margin-left="0"
     fit-margin-right="0"
     fit-margin-bottom="0"
     inkscape:zoom="0.6609375"
     inkscape:cx="640"
     inkscape:cy="640"
     inkscape:window-x="-8"
     inkscape:window-y="-8"
     inkscape:window-maximized="1"
     inkscape:current-layer="svg2" />
  <path
     d="m 0,0 1024,0 0,1024 L 0,1024 0,0 z"
     id="path4"
     inkscape:connector-curvature="0"
     style="fill:#3e3e3e" />
  <path
     d="m 653.58,116.46 c 109.62,0.08 219.22,0.06 328.84,0 0.18,43.84 0.04,87.68 0.08,131.52 -74.84,0.04 -149.66,0 -224.5,0.02 0.02,23.16 -0.04,46.3 0.04,69.46 36.5,0.62 73.74,2.18 108.52,14.38 21.76,7.52 43.06,20.66 54.14,41.54 14.26,27.8 17.22,61.24 7.76,91.04 -9.98,31.64 -33.28,57.92 -61.56,74.68 -36.18,21.64 -78.58,30.72 -120.28,33.08 -4.14,-25.54 -9.1,-50.96 -13.36,-76.48 24.6,-1.82 49.52,-5.9 71.88,-16.8 10.92,-5.62 21.46,-13.58 26.5,-25.14 4.36,-10.1 4.74,-22.56 -1.3,-32.08 -5.42,-7.7 -13.96,-12.62 -22.78,-15.46 -15.92,-5.22 -32.82,-6.04 -49.44,-6.3 -34.9,-1.06 -69.72,3.14 -104.62,2.56 0.04,-95.34 -0.12,-190.68 0.08,-286.02 z"
     id="path6"
     inkscape:connector-curvature="0"
     style="fill:#f5e5c1" />
  <path
     d="m 231.8,262.1 c 136.56,-0.18 273.14,-0.12 409.72,-0.04 -0.06,7.3 -0.06,14.58 0,21.88 -114.46,0.16 -228.94,0.02 -343.4,0.06 -15.1,-0.16 -30.2,0.34 -45.28,-0.26 -4.42,-9.38 -13.94,-14.56 -21.04,-21.64 z"
     id="path8"
     inkscape:connector-curvature="0"
     style="fill:#c6ba9f" />
  <path
     d="m 770.02,262 c 75.98,0 151.98,0 227.98,0 0,7.34 0,14.66 0,22 -76,0 -152,0 -228,-0.02 0,-7.32 0,-14.64 0.02,-21.98 z"
     id="path10"
     inkscape:connector-curvature="0"
     style="fill:#c6ba9f" />
  <path
     d="m 172.52,268.52 c 7.48,-2.66 15.54,-1.38 23.3,-1.96 14.56,-1.42 27.66,7.06 42.12,7.2 6.14,9.84 8.16,21.36 12.48,31.94 1.24,2.7 1.62,5.66 0.98,8.58 -4.46,-3.26 -7.88,-7.64 -12.04,-11.2 -31.76,-6.48 -64.42,-2.18 -96.22,2.44 -12.1,4.78 -23.76,10.76 -35.66,16.1 -14.72,7.72 -28.86,16.5 -43.48,24.42 -11,5.98 -21.94,12.34 -31.32,20.7 -2.06,3.74 -3.22,7.88 -4.7,11.86 0.32,1.78 0.64,3.56 0.94,5.36 -0.74,-2.66 -1.38,-5.34 -2.02,-8 -6.42,-7.28 -7.62,-17.3 -9.82,-26.36 4.54,-5.64 8.06,-12.22 14.16,-16.44 10.28,-7.76 18.46,-18.06 29.68,-24.62 22.08,-13.28 45.9,-24.28 71.24,-29.52 13.46,-3.54 27.1,-6.26 40.36,-10.5 z"
     id="path12"
     inkscape:connector-curvature="0"
     style="fill:#f5e5c1" />
  <path
     d="m 259.36,296.04 c 127.38,-0.08 254.76,-0.06 382.14,0 0.06,26 -0.12,52 -0.16,78 0.02,2.16 -0.3,4.28 -0.94,6.36 -0.2,-8.7 0.14,-17.42 -0.42,-26.12 -40,-0.74 -80,-0.02 -120,-0.32 -8.2,-0.12 -16.4,0.18 -24.58,0.56 -5.68,-4.06 -12.88,-3.6 -18.6,0.12 -14.28,-1.04 -28.58,-0.5 -42.88,-0.68 -32.2,0.3 -64.42,-0.54 -96.62,0.44 -2.56,-6.06 -4.96,-12.16 -7.42,-18.24 -19.82,-6.9 -40,-12.92 -59.66,-20.2 -4.32,-6.22 -7.2,-13.3 -10.86,-19.92 z"
     id="path14"
     inkscape:connector-curvature="0"
     style="fill:#c6ba9f" />
  <path
     d="m 770,296 c 76,0 152,0 228,0 0,19.38 0.02,38.76 -0.02,58.14 -25.2,-0.24 -50.42,-0.32 -75.62,0.08 -12.88,-14.9 -29.96,-25.7 -48.42,-32.3 -33.24,-11.86 -68.8,-15.9 -103.94,-15.94 0,-3.34 0,-6.66 0,-9.98 z"
     id="path16"
     inkscape:connector-curvature="0"
     style="fill:#c6ba9f" />
  <path
     d="m 226.4,306.65 c -39.57253,0.45835 -78.75,9.5375 -116.1,22.25 -15.72,8.74 -30.94,18.43 -46.9,26.75 -8.46,4.34 -14.72,11.69 -21.6,18.05 -4.3,3.52 -5.39,9.14 -6.45,14.3 -0.18,5.62 5.93,10.43 3.45,16.25 -4.72,13.94 -8.41,28.22 -12.95,42.2 -3.56,9.88 1.45,19.88 3.95,29.4 8.4,25.24 15,51 23.2,76.3 5.36,21.54 13.32,42.29 18.6,63.85 8.88,27.42 16.22,55.33 25.1,82.75 4.24,18.08 11.06,35.43 15.8,53.35 4.26,18 11.48,35.13 15.7,53.15 2.64,10.54 6.49,20.74 9.45,31.2 1.26,3.66 2.02,7.95 5.4,10.35 7.94,6.02 15,13.11 23.1,18.95 31.44,-7.64 61.74,-19.29 92.5,-29.25 21.82,-4.52 41.78,-15.31 63.4,-20.45 40.48,-13.24 80.99,-26.51 121.25,-40.35 4.4,-7.22 8.7,-14.61 12.5,-22.15 -0.42,-5.84 -3.26,-11.19 -4.9,-16.75 -9.74,-26.1 -17.88,-52.75 -28.7,-78.45 -8.72,-24.22 -17.19,-48.57 -25.75,-72.85 -9.1,-26.08 -19.89,-51.54 -28.45,-77.8 -7.8,-23.44 -16.97,-46.37 -24.65,-69.85 -9.02,-19.16 -14.4,-39.75 -21.9,-59.55 -3.28,-8.28 -5.26,-17.32 -10.8,-24.5 -15.68,-7.74 -32.4,-13.2 -48.5,-20.1 -4.56,-2.04 -9.92,-2.69 -13.7,-6.15 -1.1,-3.44 -0.87,-7.17 -1.75,-10.65 -3.12,-4.48 -8.56,-6.49 -12.4,-10.25 -2.64125,-0.0475 -5.26182,-0.0306 -7.9,0 z m -3.1,16.65 c 4.3016,0.0647 8.5675,0.61 12.7,2.05 2.32,4.4 4.4,9.24 8.4,12.4 5.36,3.16 11.32,5.08 16.5,8.6 7.44,0.18 13.66,4.87 20.4,7.45 6.4,3.14 13.74,4.59 19.5,8.85 10.1,26.38 18.96,53.29 28.9,79.75 4.26,10.94 8.74,21.86 11.5,33.3 1.06,3.72 3.66,6.75 4.8,10.45 10.42,30.82 21.4,61.46 31.7,92.3 1.2,3.76 4.27,6.57 5.45,10.35 9.5,28.3 19.65,56.38 29.15,84.7 1.44,4.28 4.64,7.68 6,12 6.62,19.5 13.36,38.96 20.4,58.3 0.56,2.22 2.05,5.28 -0.25,7.1 -4.56,4.82 -7.04,11.09 -8.6,17.45 -11.38,4.82 -23.34,7.85 -35.1,11.55 -26.18,10 -53.27,17.4 -79.65,26.8 -20.54,6.84 -40.96,14.03 -61.5,20.85 -12.28,1.5 -23.46,6.93 -35.2,10.45 -7.06,1.74 -12.48,7.77 -20.1,7.45 -8.14,2.28 -15.7,6.69 -24,8.75 -7.46,-9.16 -16.95,-16.42 -24.65,-25.3 -3.08,-10.26 -6.91,-20.32 -9.55,-30.7 -2.94,-16.78 -11.31,-32.32 -13.75,-49.1 -5.12,-17 -11.72,-33.6 -15.1,-51 -3.4,-9.18 -5.85,-18.71 -9.05,-27.95 -1.66,-5.2 -4.14,-10.25 -3.9,-15.85 -5,-16.04 -11.11,-31.86 -14.25,-48.4 -14.04,-40.52 -24.49,-82.12 -37.35,-123 -3.16,-7.42 -3.3,-15.8 -7.5,-22.8 4.66,-20.16 12.32,-39.53 16.2,-59.85 -2,-3.92 -4.07,-7.77 -6.45,-11.45 14.22,-10.48 28.29,-21.18 43.05,-30.9 10.04,-8.36 23.2,-10.63 35.1,-15.25 18.38,-4.98 36.52,-10.79 54.6,-16.75 6.42,-2.36 13.34,-1.1 20,-1.4 7.1,-0.15 14.43067,-1.30781 21.6,-1.2 z"
     id="path18"
     style="fill:#f5e5c1"
     inkscape:connector-curvature="0" />
  <path
     d="m 333.92,487.98 c 27.62,81.42 55.7,162.66 83.22,244.1 -5.26,10.68 -10.14,21.52 -15.3,32.24 -68.7,21.42 -137.38,42.86 -206.08,64.28 -12.8,-7.46 -26,-14.22 -38.68,-21.9 -24,-78.54 -46.82,-157.44 -70.56,-236.08 13.26,2 26,-3.16 39.06,-4.3 19.88,-3.76 39.84,-7.2 59.64,-11.4 10.08,-2.24 20.6,-3.06 30.08,-7.46 21.98,-9.22 44.34,-17.6 65.86,-27.94 l 30.1796,-14.83288 C 319.08722,500.21194 328.76742,491.5137 333.92,487.98 z"
     id="path50"
     inkscape:connector-curvature="0"
     style="fill:#f4722b"
     sodipodi:nodetypes="cccccccccccc" />
  <path
     d="m 328.3,477.15 c -8.1209,1.73456 -16.40435,2.7561 -24.3,5.35 -0.9553,0.0648 -32.4336,2.18694 -34.9,2.9 -9.98,2.1 -20.36,1.2 -30.2,4.1 -35.04,12.56 -69.82,25.74 -104.7,38.7 -5.7,2.6 -10.24,7.1 -15.3,10.7 -11.48,8.9 -23.47,17.12 -34.55,26.5 8.58,0.24 17.17,0.82 25.75,1.2 12.88,0.46 24.64,-5.55 37.1,-7.75 14.94,-4.18 30.08,-7.61 44.9,-12.25 10.42,-3.22 21.33,-4.9 31.45,-9.1 18.3,-8.52 36.52,-17.27 54.9,-25.65 -0.0295,-0.0848 -0.0705,-0.16523 -0.1,-0.25 2.34688,-1.00974 27.81704,-13.60595 29.85,-14.85 0.0706,-0.0432 0.33846,-0.18542 0.35,-0.2 7.71078,-4.07334 15.68915,-8.00275 21.5,-14.7 -0.44,-1.18 -1.31,-3.54 -1.75,-4.7 z"
     id="path46"
     style="fill:#f4722b"
     inkscape:connector-curvature="0" />
  <path
     d="m 150.32,341.16 c 12.16,-1.44 23.56,-6.22 35.64,-8.04 2.34,7.62 6.34,14.54 9.48,21.82 17.96,0.46 35.92,0.96 53.88,1.96 -5.64,3.04 -11.46,5.68 -17.42,7.98 8.92,-0.32 17.22,-4.12 26.08,-4.82 5.9,15.5 13.8,30.18 20.2,45.46 8.7,25.62 17.08,51.36 25.46,77.08 1.5,4.72 3.12,9.4 4.56,14.16 1.08,3.8 1.82,7.7 3.36,11.38 25.38,74.04 49.22,148.64 73.8,222.98 3.22,9.38 8.88,20.4 1.66,29.44 -10.84,4.38 -22.12,7.68 -33.2,11.4 3.06,-6.4 6.48,-12.64 10.14,-18.74 -27.06,-78.08 -55.44,-155.72 -82.8,-233.7 -0.92,-2.56 -1.82,-5.1 -2.72,-7.66 -3.08,-8.84 -6.18,-17.66 -9.32,-26.46 -12.62,-34.82 -25.18,-69.64 -37.42,-104.6 -18.68,4.52 -37.32,9.16 -55.94,13.94 -11.36,1.98 -22.12,7.4 -33.88,6.5 17.58,-11.44 37,-19.88 54.8,-31 -11.68,-2.08 -23.42,-3.88 -35.16,-5.78 -3.48,-7.88 -7.8,-15.38 -11.2,-23.3 z"
     id="path22"
     inkscape:connector-curvature="0"
     style="fill:#f5e5c1" />
  <path
     d="m 337.3,354.4 c 32.2,-0.98 64.42,-0.14 96.62,-0.44 14.3,0.18 28.6,-0.36 42.88,0.68 -8.88,8.5 -18.06,16.76 -27.4,24.74 -0.8,0.16 -2.42,0.44 -3.24,0.58 -32.8,0.16 -65.62,-0.08 -98.42,0.1 -3.68,-8.48 -6.94,-17.12 -10.44,-25.66 z"
     id="path24"
     inkscape:connector-curvature="0"
     style="fill:#aea48e" />
  <path
     d="m 495.4,354.52 c 8.18,-0.38 16.38,-0.68 24.58,-0.56 40,0.3 80,-0.42 120,0.32 0.56,8.7 0.22,17.42 0.42,26.12 -4.68,-0.34 -9.36,-0.5 -14.04,-0.6 -5.94,-5.5 -11.58,-11.36 -17.62,-16.74 -4.92,-4.34 -13.06,-5.54 -18,-0.6 -5.5,5.46 -10.48,11.42 -15.52,17.3 -19.54,0.48 -39.1,0.22 -58.66,0.14 -6.9,-8.58 -14.42,-16.66 -21.16,-25.38 z"
     id="path26"
     inkscape:connector-curvature="0"
     style="fill:#aea48e" />
  <path
     d="m 922.36,354.22 c 25.2,-0.4 50.42,-0.32 75.62,-0.08 0.02,8.62 0.04,17.24 0,25.86 -20.5,-0.18 -41,0.38 -61.48,-0.3 -3.4,-9.16 -8.22,-17.72 -14.14,-25.48 z"
     id="path28"
     inkscape:connector-curvature="0"
     style="fill:#aea48e" />
  <path
     d="m 443.18,400.88 c 14.62,-12.48 28.66,-25.6 43.1,-38.28 19.68,23.16 39.38,46.32 59.1,69.44 18.02,-20.42 35.76,-41.1 53.76,-61.56 10.14,9.42 20.2,18.94 30.48,28.22 -19.14,22.24 -39.04,43.8 -57.96,66.22 24.5,26.76 48.68,53.8 72.86,80.84 -14.7,12.18 -29.56,24.2 -44.26,36.38 -20.06,-23.52 -40.44,-46.74 -60.5,-70.24 -20.82,22.56 -41.42,45.34 -62,68.12 -12.58,-12.38 -24.88,-25.06 -37.2,-37.7 22.06,-23.44 44.1,-46.9 66.42,-70.08 -21.08,-23.94 -43.1,-47.08 -63.8,-71.36 z"
     id="path30"
     inkscape:connector-curvature="0"
     style="fill:#f5e5c1" />
  <path
     d="m 358.9,408 c 24.9,0.04 49.8,-0.08 74.7,0.08 7.18,9.58 16.16,17.6 23.62,26.94 -10.32,1.7 -20.8,0.86 -31.22,0.98 -18.56,0.06 -37.14,-0.18 -55.72,0.14 -3.96,-9.3 -7.66,-18.72 -11.38,-28.14 z"
     id="path32"
     inkscape:connector-curvature="0"
     style="fill:#aea48e" />
  <path
     d="m 540.66,407.96 c 3.26,0.02 6.54,0.08 9.82,0.14 -1.82,1.88 -3.6,3.8 -5.38,5.7 -1.5,-1.94 -2.98,-3.9 -4.44,-5.84 z"
     id="path34"
     inkscape:connector-curvature="0"
     style="fill:#aea48e" />
  <path
     d="m 612.84,435.9 c 8.62,-9.04 15.94,-19.36 25.2,-27.78 5.22,-1.86 7.44,4.68 12.1,5.42 7.84,1.72 15.94,0.86 23.9,0.9 32.7,-1.24 65.44,-3.84 98.18,-2.08 13.28,0.84 27.08,1.98 39.08,8.3 6,3.12 10.9,8.5 11.96,15.36 -70.14,-0.08 -140.28,0.1 -210.42,-0.12 z"
     id="path36"
     inkscape:connector-curvature="0"
     style="fill:#aea48e" />
  <path
     d="m 944.22,408.08 c 17.92,-0.18 35.84,-0.04 53.76,-0.08 0.02,9.38 0.04,18.74 -0.02,28.12 -17.38,-0.24 -34.76,-0.1 -52.14,-0.1 0.52,-9.34 -0.14,-18.7 -1.6,-27.94 z"
     id="path38"
     inkscape:connector-curvature="0"
     style="fill:#aea48e" />
  <path
     d="m 457.22,435.02 c 10.66,11.36 20.9,23.1 31.4,34.58 2.88,2.4 -0.76,4.92 -2.2,6.82 -16.12,17.28 -32.72,34.1 -48.72,51.52 -10.3,0.04 -20.6,0.36 -30.88,-0.28 -11.82,-30.64 -24.48,-60.96 -36.54,-91.52 18.58,-0.32 37.16,-0.08 55.72,-0.14 10.42,-0.12 20.9,0.72 31.22,-0.98 z"
     id="path40"
     inkscape:connector-curvature="0"
     style="fill:#7e786c" />
  <path
     d="m 587.82,465.16 c 7.48,-10.46 16.82,-19.38 25.02,-29.26 70.14,0.22 140.28,0.04 210.42,0.12 0.24,10.8 -5.5,20.72 -14.36,26.66 -22.46,15.58 -50.5,18.64 -76.96,21.42 -7.04,0.24 -10.9,7.48 -10.18,13.88 1.14,10.08 3.7,19.94 5,30 -27.46,-0.04 -54.9,0.18 -82.36,-0.1 -18.68,-21.08 -37.38,-42.12 -56.58,-62.72 z"
     id="path42"
     inkscape:connector-curvature="0"
     style="fill:#7e786c" />
  <path
     d="m 945.82,436.02 c 17.38,0 34.76,-0.14 52.14,0.1 0.08,30.6 0.02,61.22 0.04,91.82 -31.98,0.02 -63.98,0.26 -95.96,-0.12 12.04,-12.32 22.98,-26.04 30.48,-41.64 7.62,-15.66 11.76,-32.86 13.3,-50.16 z"
     id="path44"
     inkscape:connector-curvature="0"
     style="fill:#7e786c" />
  <path
     d="m 413.7,544.06 c 5.14,-0.12 10.26,-0.1 15.4,0.12 1.3,2.82 2.44,5.82 4.7,8.04 7.5,7.88 14.84,15.94 22.7,23.48 6.14,5.78 11.26,13.32 19.78,15.8 -14.52,0.9 -29.1,0.56 -43.64,0.26 -6.08,-15.98 -12.76,-31.74 -18.94,-47.7 z"
     id="path52"
     inkscape:connector-curvature="0"
     style="fill:#7e786c" />
  <path
     d="m 526.26,544.08 c 8.48,-0.14 16.96,-0.14 25.46,-0.04 14.02,15.84 27.08,32.58 41.94,47.64 -32.56,0.76 -65.14,0.08 -97.7,0.34 -6.16,0.12 -12.3,-0.04 -18.44,-0.54 9.66,-1.5 14.82,-10.24 21.12,-16.66 8.9,-10.52 18.82,-20.12 27.62,-30.74 z"
     id="path54"
     inkscape:connector-curvature="0"
     style="fill:#7e786c" />
  <path
     d="m 656.62,544.12 c 24.38,-0.24 48.78,-0.14 73.18,-0.04 2.12,10.64 3.16,21.54 6.06,32 2.06,6.8 9.74,8.98 16.1,7.94 40.16,-3.38 80.72,-12.16 116.22,-31.84 5.82,-2.82 10.72,-8.58 17.64,-8.2 37.4,0.06 74.78,-0.04 112.16,0.06 0.04,15.96 0.02,31.94 0,47.92 -130.12,-0.04 -260.24,0.28 -390.36,-0.16 13.88,-12.24 28.7,-23.36 42.66,-35.48 3.76,-3.02 4.9,-7.86 6.34,-12.2 z"
     id="path56"
     inkscape:connector-curvature="0"
     style="fill:#7e786c" />
  <path
     d="m 436.22,600.06 c 187.24,-0.12 374.48,-0.04 561.74,-0.06 0.08,14 0.06,27.98 0.02,41.98 -116.02,0.06 -232.02,0 -348.04,0.02 -65.74,-0.2 -131.5,0.38 -197.24,-0.28 -5.22,-14 -11.2,-27.7 -16.48,-41.66 z"
     id="path58"
     inkscape:connector-curvature="0"
     style="fill:#7e786c" />
  <path
     d="m 457.16,652.04 c 180.28,-0.08 360.56,-0.06 540.82,0 0.04,11.28 0.04,22.58 -0.02,33.86 -165.98,0.24 -331.96,0.02 -497.94,0.1 -9.72,0.04 -19.48,-0.62 -29.12,0.98 -4.34,-11.74 -9.36,-23.22 -13.74,-34.94 z"
     id="path60"
     inkscape:connector-curvature="0"
     style="fill:#7e786c" />
  <path
     d="m 470.9,686.98 c 9.64,-1.6 19.4,-0.94 29.12,-0.98 165.98,-0.08 331.96,0.14 497.94,-0.1 0.06,9.36 0.04,18.72 0.04,28.08 -172.04,0.04 -344.06,0 -516.1,0.04 -3.76,-8.98 -7.24,-18.08 -11,-27.04 z"
     id="path62"
     inkscape:connector-curvature="0"
     style="fill:#aea48e" />
  <path
     d="m 486.7,726 c 170.42,0 340.86,-0.02 511.3,0.02 0,9.3 0,18.6 -0.02,27.9 -166.68,0.18 -333.34,0.04 -500.02,0.04 C 494.1,744.68 490.4,735.34 486.7,726 z"
     id="path64"
     inkscape:connector-curvature="0"
     style="fill:#aea48e" />
  <path
     d="m 497.96,753.96 c 166.68,0 333.34,0.14 500.02,-0.04 C 998,768.6 998,783.3 998,798 c -176.02,0 -352.04,0 -528.06,0 -12.1,-0.24 -24.28,0.66 -36.34,-0.76 10.36,-2.22 20.5,-5.4 30.68,-8.28 3.66,-0.68 6.02,-3.66 8.36,-6.26 8.36,-9.66 16.8,-19.22 25.32,-28.74 z"
     id="path66"
     inkscape:connector-curvature="0"
     style="fill:#c6ba9f" />
  <path
     d="m 331.02,827.22 c 2.92,-0.84 5.94,-1.24 9,-1.24 219.32,0.06 438.64,0 657.98,0.02 0,14 0,28 0,42 -231.36,0 -462.7,0 -694.04,0 -37.56,-0.28 -75.16,0.58 -112.7,-0.44 46.56,-13.58 93.2,-26.8 139.76,-40.34 z"
     id="path68"
     inkscape:connector-curvature="0"
     style="fill:#c6ba9f" />
</svg>
