<?xml version="1.0" encoding="UTF-8" ?>
<!DOCTYPE svg PUBLIC "-//W3C//DTD SVG 1.1//EN" "http://www.w3.org/Graphics/SVG/1.1/DTD/svg11.dtd">
<svg width="512pt" height="512pt" viewBox="0 0 512 512" version="1.1" xmlns="http://www.w3.org/2000/svg">
<path fill="#3e3e3e" opacity="1.00" d=" M 0.00 0.00 L 512.00 0.00 L 512.00 512.00 L 0.00 512.00 L 0.00 0.00 Z" />
<path fill="#f5e5c1" opacity="1.00" d=" M 326.79 58.23 C 381.60 58.27 436.40 58.26 491.21 58.23 C 491.30 80.15 491.23 102.07 491.25 123.99 C 453.83 124.01 416.42 123.99 379.00 124.00 C 379.01 135.58 378.98 147.15 379.02 158.73 C 397.27 159.04 415.89 159.82 433.28 165.92 C 444.16 169.68 454.81 176.25 460.35 186.69 C 467.48 200.59 468.96 217.31 464.23 232.21 C 459.24 248.03 447.59 261.17 433.45 269.55 C 415.36 280.37 394.16 284.91 373.31 286.09 C 371.24 273.32 368.76 260.61 366.63 247.85 C 378.93 246.94 391.39 244.90 402.57 239.45 C 408.03 236.64 413.30 232.66 415.82 226.88 C 418.00 221.83 418.19 215.60 415.17 210.84 C 412.46 206.99 408.19 204.53 403.78 203.11 C 395.82 200.50 387.37 200.09 379.06 199.96 C 361.61 199.43 344.20 201.53 326.75 201.24 C 326.77 153.57 326.69 105.90 326.79 58.23 Z" />
<path fill="#c6ba9f" opacity="1.00" d=" M 115.90 131.05 C 184.18 130.96 252.47 130.99 320.76 131.03 C 320.73 134.68 320.73 138.32 320.76 141.97 C 263.53 142.05 206.29 141.98 149.06 142.00 C 141.51 141.92 133.96 142.17 126.42 141.87 C 124.21 137.18 119.45 134.59 115.90 131.05 Z" />
<path fill="#c6ba9f" opacity="1.00" d=" M 385.01 131.00 C 423.00 131.00 461.00 131.00 499.00 131.00 C 499.00 134.67 499.00 138.33 499.00 142.00 C 461.00 142.00 423.00 142.00 385.00 141.99 C 385.00 138.33 385.00 134.67 385.01 131.00 Z" />
<path fill="#f5e5c1" opacity="1.00" d=" M 86.26 134.26 C 90.00 132.93 94.03 133.57 97.91 133.28 C 105.19 132.57 111.74 136.81 118.97 136.88 C 122.04 141.80 123.05 147.56 125.21 152.85 C 125.83 154.20 126.02 155.68 125.70 157.14 C 123.47 155.51 121.76 153.32 119.68 151.54 C 103.80 148.30 87.47 150.45 71.57 152.76 C 65.52 155.15 59.69 158.14 53.74 160.81 C 46.38 164.67 39.31 169.06 32.00 173.02 C 26.50 176.01 21.03 179.19 16.34 183.37 C 15.31 185.24 14.73 187.31 13.99 189.30 C 14.15 190.19 14.31 191.08 14.46 191.98 C 14.09 190.65 13.77 189.31 13.45 187.98 C 10.24 184.34 9.64 179.33 8.54 174.80 C 10.81 171.98 12.57 168.69 15.62 166.58 C 20.76 162.70 24.85 157.55 30.46 154.27 C 41.50 147.63 53.41 142.13 66.08 139.51 C 72.81 137.74 79.63 136.38 86.26 134.26 Z" />
<path fill="#c6ba9f" opacity="1.00" d=" M 129.68 148.02 C 193.37 147.98 257.06 147.99 320.75 148.02 C 320.78 161.02 320.69 174.02 320.67 187.02 C 320.68 188.10 320.52 189.16 320.20 190.20 C 320.10 185.85 320.27 181.49 319.99 177.14 C 299.99 176.77 279.99 177.13 259.99 176.98 C 255.89 176.92 251.79 177.07 247.70 177.26 C 244.86 175.23 241.26 175.46 238.40 177.32 C 231.26 176.80 224.11 177.07 216.96 176.98 C 200.86 177.13 184.75 176.71 168.65 177.20 C 167.37 174.17 166.17 171.12 164.94 168.08 C 155.03 164.63 144.94 161.62 135.11 157.98 C 132.95 154.87 131.51 151.33 129.68 148.02 Z" />
<path fill="#c6ba9f" opacity="1.00" d=" M 385.00 148.00 C 423.00 148.00 461.00 148.00 499.00 148.00 C 499.00 157.69 499.01 167.38 498.99 177.07 C 486.39 176.95 473.78 176.91 461.18 177.11 C 454.74 169.66 446.20 164.26 436.97 160.96 C 420.35 155.03 402.57 153.01 385.00 152.99 C 385.00 151.32 385.00 149.66 385.00 148.00 Z" />
<path fill="#f5e5c1" opacity="1.00" d=" M 55.14 164.44 C 75.06 157.66 96.02 152.95 117.15 153.33 C 119.07 155.21 121.78 156.22 123.34 158.46 C 123.78 160.20 123.67 162.05 124.22 163.77 C 126.11 165.50 128.80 165.84 131.08 166.86 C 139.13 170.31 147.48 173.02 155.32 176.89 C 158.09 180.48 159.08 185.00 160.72 189.14 C 164.47 199.04 167.17 209.35 171.68 218.93 C 175.52 230.67 180.11 242.14 184.01 253.86 C 188.29 266.99 193.68 279.71 198.23 292.75 C 202.51 304.89 206.73 317.06 211.09 329.17 C 216.50 342.02 220.59 355.36 225.46 368.41 C 226.28 371.19 227.69 373.86 227.90 376.78 C 226.00 380.55 223.84 384.24 221.64 387.85 C 201.51 394.77 181.26 401.40 161.02 408.02 C 150.21 410.59 140.24 415.99 129.33 418.25 C 113.95 423.23 98.80 429.05 83.08 432.87 C 79.03 429.95 75.50 426.40 71.53 423.39 C 69.84 422.19 69.45 420.06 68.82 418.23 C 67.34 413.00 65.41 407.90 64.09 402.63 C 61.98 393.62 58.38 385.04 56.25 376.04 C 53.88 367.08 50.46 358.42 48.34 349.38 C 43.90 335.67 40.24 321.72 35.80 308.01 C 33.16 297.23 29.17 286.85 26.49 276.08 C 22.39 263.43 19.10 250.55 14.90 237.93 C 13.65 233.17 11.14 228.16 12.92 223.22 C 15.19 216.23 17.03 209.10 19.39 202.13 C 20.63 199.22 17.58 196.81 17.67 194.00 C 18.20 191.42 18.75 188.60 20.90 186.84 C 24.34 183.66 27.47 179.99 31.70 177.82 C 39.68 173.66 47.28 168.81 55.14 164.44 Z" />
<path fill="#3e3e3e" opacity="1.00" d=" M 90.85 162.95 C 94.06 161.77 97.53 162.40 100.86 162.25 C 106.54 162.13 112.48 160.75 117.99 162.67 C 119.15 164.87 120.19 167.29 122.19 168.87 C 124.87 170.45 127.87 171.41 130.46 173.17 C 134.18 173.26 137.27 175.61 140.64 176.90 C 143.84 178.47 147.53 179.20 150.41 181.33 C 155.46 194.52 159.87 207.97 164.84 221.20 C 166.97 226.67 169.21 232.12 170.59 237.84 C 171.12 239.70 172.43 241.23 173.00 243.08 C 178.21 258.49 183.71 273.80 188.86 289.22 C 189.46 291.10 190.98 292.50 191.57 294.39 C 196.32 308.54 201.41 322.58 206.16 336.74 C 206.88 338.88 208.46 340.59 209.14 342.75 C 212.45 352.50 215.83 362.23 219.35 371.90 C 219.63 373.01 220.38 374.53 219.23 375.44 C 216.95 377.85 215.71 380.99 214.93 384.17 C 209.24 386.58 203.25 388.10 197.37 389.95 C 184.28 394.95 170.75 398.66 157.56 403.36 C 147.29 406.78 137.08 410.37 126.81 413.78 C 120.67 414.53 115.06 417.25 109.19 419.01 C 105.66 419.88 102.95 422.88 99.14 422.72 C 95.07 423.86 91.31 426.07 87.16 427.10 C 83.43 422.52 78.68 418.88 74.83 414.44 C 73.29 409.31 71.38 404.29 70.06 399.10 C 68.59 390.71 64.40 382.94 63.18 374.55 C 60.62 366.05 57.31 357.74 55.62 349.04 C 53.92 344.45 52.71 339.70 51.11 335.08 C 50.28 332.48 49.04 329.94 49.16 327.14 C 46.66 319.12 43.59 311.22 42.02 302.95 C 35.00 282.69 29.77 261.90 23.34 241.46 C 21.76 237.75 21.70 233.55 19.60 230.05 C 21.93 219.97 25.77 210.29 27.71 200.13 C 26.71 198.17 25.66 196.23 24.47 194.39 C 31.58 189.15 38.61 183.80 45.99 178.94 C 51.01 174.76 57.61 173.64 63.56 171.33 C 72.75 168.84 81.81 165.93 90.85 162.95 Z" />
<path fill="#f5e5c1" opacity="1.00" d=" M 75.16 170.58 C 81.24 169.86 86.94 167.47 92.98 166.56 C 94.15 170.37 96.15 173.83 97.72 177.47 C 106.70 177.70 115.68 177.95 124.66 178.45 C 121.84 179.97 118.93 181.29 115.95 182.44 C 120.41 182.28 124.56 180.38 128.99 180.03 C 131.94 187.78 135.89 195.12 139.09 202.76 C 143.44 215.57 147.63 228.44 151.82 241.30 C 152.57 243.66 153.38 246.00 154.10 248.38 C 154.64 250.28 155.01 252.23 155.78 254.07 C 168.47 291.09 180.39 328.39 192.68 365.56 C 194.29 370.25 197.12 375.76 193.51 380.28 C 188.09 382.47 182.45 384.12 176.91 385.98 C 178.44 382.78 180.15 379.66 181.98 376.61 C 168.45 337.57 154.26 298.75 140.58 259.76 C 140.12 258.48 139.67 257.21 139.22 255.93 C 137.68 251.51 136.13 247.10 134.56 242.70 C 128.25 225.29 121.97 207.88 115.85 190.40 C 106.51 192.66 97.19 194.98 87.88 197.37 C 82.20 198.36 76.82 201.07 70.94 200.62 C 79.73 194.90 89.44 190.68 98.34 185.12 C 92.50 184.08 86.63 183.18 80.76 182.23 C 79.02 178.29 76.86 174.54 75.16 170.58 Z" />
<path fill="#aea48e" opacity="1.00" d=" M 168.65 177.20 C 184.75 176.71 200.86 177.13 216.96 176.98 C 224.11 177.07 231.26 176.80 238.40 177.32 C 233.96 181.57 229.37 185.70 224.70 189.69 C 224.30 189.77 223.49 189.91 223.08 189.98 C 206.68 190.06 190.27 189.94 173.87 190.03 C 172.03 185.79 170.40 181.47 168.65 177.20 Z" />
<path fill="#aea48e" opacity="1.00" d=" M 247.70 177.26 C 251.79 177.07 255.89 176.92 259.99 176.98 C 279.99 177.13 299.99 176.77 319.99 177.14 C 320.27 181.49 320.10 185.85 320.20 190.20 C 317.86 190.03 315.52 189.95 313.18 189.90 C 310.21 187.15 307.39 184.22 304.37 181.53 C 301.91 179.36 297.84 178.76 295.37 181.23 C 292.62 183.96 290.13 186.94 287.61 189.88 C 277.84 190.12 268.06 189.99 258.28 189.95 C 254.83 185.66 251.07 181.62 247.70 177.26 Z" />
<path fill="#aea48e" opacity="1.00" d=" M 461.18 177.11 C 473.78 176.91 486.39 176.95 498.99 177.07 C 499.00 181.38 499.01 185.69 498.99 190.00 C 488.74 189.91 478.49 190.19 468.25 189.85 C 466.55 185.27 464.14 180.99 461.18 177.11 Z" />
<path fill="#f5e5c1" opacity="1.00" d=" M 221.59 200.44 C 228.90 194.20 235.92 187.64 243.14 181.30 C 252.98 192.88 262.83 204.46 272.69 216.02 C 281.70 205.81 290.57 195.47 299.57 185.24 C 304.64 189.95 309.67 194.71 314.81 199.35 C 305.24 210.47 295.29 221.25 285.83 232.46 C 298.08 245.84 310.17 259.36 322.26 272.88 C 314.91 278.97 307.48 284.98 300.13 291.07 C 290.10 279.31 279.91 267.70 269.88 255.95 C 259.47 267.23 249.17 278.62 238.88 290.01 C 232.59 283.82 226.44 277.48 220.28 271.16 C 231.31 259.44 242.33 247.71 253.49 236.12 C 242.95 224.15 231.94 212.58 221.59 200.44 Z" />
<path fill="#aea48e" opacity="1.00" d=" M 179.45 204.00 C 191.90 204.02 204.35 203.96 216.80 204.04 C 220.39 208.83 224.88 212.84 228.61 217.51 C 223.45 218.36 218.21 217.94 213.00 218.00 C 203.72 218.03 194.43 217.91 185.14 218.07 C 183.16 213.42 181.31 208.71 179.45 204.00 Z" />
<path fill="#aea48e" opacity="1.00" d=" M 270.33 203.98 C 271.96 203.99 273.60 204.02 275.24 204.05 C 274.33 204.99 273.44 205.95 272.55 206.90 C 271.80 205.93 271.06 204.95 270.33 203.98 Z" />
<path fill="#aea48e" opacity="1.00" d=" M 306.42 217.95 C 310.73 213.43 314.39 208.27 319.02 204.06 C 321.63 203.13 322.74 206.40 325.07 206.77 C 328.99 207.63 333.04 207.20 337.02 207.22 C 353.37 206.60 369.74 205.30 386.11 206.18 C 392.75 206.60 399.65 207.17 405.65 210.33 C 408.65 211.89 411.10 214.58 411.63 218.01 C 376.56 217.97 341.49 218.06 306.42 217.95 Z" />
<path fill="#aea48e" opacity="1.00" d=" M 472.11 204.04 C 481.07 203.95 490.03 204.02 498.99 204.00 C 499.00 208.69 499.01 213.37 498.98 218.06 C 490.29 217.94 481.60 218.01 472.91 218.01 C 473.17 213.34 472.84 208.66 472.11 204.04 Z" />
<path fill="#7e786c" opacity="1.00" d=" M 228.61 217.51 C 233.94 223.19 239.06 229.06 244.31 234.80 C 245.75 236.00 243.93 237.26 243.21 238.21 C 235.15 246.85 226.85 255.26 218.85 263.97 C 213.70 263.99 208.55 264.15 203.41 263.83 C 197.50 248.51 191.17 233.35 185.14 218.07 C 194.43 217.91 203.72 218.03 213.00 218.00 C 218.21 217.94 223.45 218.36 228.61 217.51 Z" />
<path fill="#7e786c" opacity="1.00" d=" M 293.91 232.58 C 297.65 227.35 302.32 222.89 306.42 217.95 C 341.49 218.06 376.56 217.97 411.63 218.01 C 411.75 223.41 408.88 228.37 404.45 231.34 C 393.22 239.13 379.20 240.66 365.97 242.05 C 362.45 242.17 360.52 245.79 360.88 248.99 C 361.45 254.03 362.73 258.96 363.38 263.99 C 349.65 263.97 335.93 264.08 322.20 263.94 C 312.86 253.40 303.51 242.88 293.91 232.58 Z" />
<path fill="#7e786c" opacity="1.00" d=" M 472.91 218.01 C 481.60 218.01 490.29 217.94 498.98 218.06 C 499.02 233.36 498.99 248.67 499.00 263.97 C 483.01 263.98 467.01 264.10 451.02 263.91 C 457.04 257.75 462.51 250.89 466.26 243.09 C 470.07 235.26 472.14 226.66 472.91 218.01 Z" />
<path fill="#f4722b" opacity="1.00" d=" M 151.82 241.30 C 155.82 239.96 160.02 239.46 164.14 238.58 C 164.36 239.16 164.81 240.33 165.03 240.92 C 162.08 244.32 158.01 246.31 154.10 248.38 C 153.38 246.00 152.57 243.66 151.82 241.30 Z" />
<path fill="#f4722b" opacity="1.00" d=" M 119.45 244.74 C 124.37 243.29 129.57 243.75 134.56 242.70 C 136.13 247.10 137.68 251.51 139.22 255.93 C 130.03 260.12 120.93 264.49 111.78 268.75 C 106.72 270.85 101.27 271.69 96.06 273.30 C 88.65 275.62 81.07 277.33 73.60 279.42 C 67.37 280.52 61.49 283.54 55.05 283.31 C 50.76 283.12 46.46 282.83 42.17 282.71 C 47.71 278.02 53.71 273.91 59.45 269.46 C 61.98 267.66 64.24 265.40 67.09 264.10 C 84.53 257.62 101.93 251.02 119.45 244.74 Z" />
<path fill="#f4722b" opacity="1.00" d=" M 156.19 251.42 C 160.93 251.35 163.33 246.36 166.96 243.99 C 180.77 284.70 194.81 325.32 208.57 366.04 C 205.94 371.38 203.50 376.80 200.92 382.16 C 166.57 392.87 132.23 403.59 97.88 414.30 C 91.48 410.57 84.88 407.19 78.54 403.35 C 66.54 364.08 55.13 324.63 43.26 285.31 C 49.89 286.31 56.26 283.73 62.79 283.16 C 72.73 281.28 82.71 279.56 92.61 277.46 C 97.65 276.34 102.91 275.93 107.65 273.73 C 118.64 269.12 129.82 264.93 140.58 259.76 C 154.26 298.75 168.45 337.57 181.98 376.61 C 180.15 379.66 178.44 382.78 176.91 385.98 C 182.45 384.12 188.09 382.47 193.51 380.28 C 197.12 375.76 194.29 370.25 192.68 365.56 C 180.39 328.39 168.47 291.09 155.78 254.07 C 155.88 253.40 156.09 252.08 156.19 251.42 Z" />
<path fill="#7e786c" opacity="1.00" d=" M 206.85 272.03 C 209.42 271.97 211.98 271.98 214.55 272.09 C 215.20 273.50 215.77 275.00 216.90 276.11 C 220.65 280.05 224.32 284.08 228.25 287.85 C 231.32 290.74 233.88 294.51 238.14 295.75 C 230.88 296.20 223.59 296.03 216.32 295.88 C 213.28 287.89 209.94 280.01 206.85 272.03 Z" />
<path fill="#7e786c" opacity="1.00" d=" M 263.13 272.04 C 267.37 271.97 271.61 271.97 275.86 272.02 C 282.87 279.94 289.40 288.31 296.83 295.84 C 280.55 296.22 264.26 295.88 247.98 296.01 C 244.90 296.07 241.83 295.99 238.76 295.74 C 243.59 294.99 246.17 290.62 249.32 287.41 C 253.77 282.15 258.73 277.35 263.13 272.04 Z" />
<path fill="#7e786c" opacity="1.00" d=" M 328.31 272.06 C 340.50 271.94 352.70 271.99 364.90 272.04 C 365.96 277.36 366.48 282.81 367.93 288.04 C 368.96 291.44 372.80 292.53 375.98 292.01 C 396.06 290.32 416.34 285.93 434.09 276.09 C 437.00 274.68 439.45 271.80 442.91 271.99 C 461.61 272.02 480.30 271.97 498.99 272.02 C 499.01 280.00 499.00 287.99 498.99 295.98 C 433.93 295.96 368.87 296.12 303.81 295.90 C 310.75 289.78 318.16 284.22 325.14 278.16 C 327.02 276.65 327.59 274.23 328.31 272.06 Z" />
<path fill="#7e786c" opacity="1.00" d=" M 218.11 300.03 C 311.73 299.97 405.35 300.01 498.98 300.00 C 499.02 307.00 499.01 313.99 498.99 320.99 C 440.98 321.02 382.98 320.99 324.97 321.00 C 292.10 320.90 259.22 321.19 226.35 320.86 C 223.74 313.86 220.75 307.01 218.11 300.03 Z" />
<path fill="#7e786c" opacity="1.00" d=" M 228.58 326.02 C 318.72 325.98 408.86 325.99 498.99 326.02 C 499.01 331.66 499.01 337.31 498.98 342.95 C 415.99 343.07 333.00 342.96 250.01 343.00 C 245.15 343.02 240.27 342.69 235.45 343.49 C 233.28 337.62 230.77 331.88 228.58 326.02 Z" />
<path fill="#aea48e" opacity="1.00" d=" M 235.45 343.49 C 240.27 342.69 245.15 343.02 250.01 343.00 C 333.00 342.96 415.99 343.07 498.98 342.95 C 499.01 347.63 499.00 352.31 499.00 356.99 C 412.98 357.01 326.97 356.99 240.95 357.01 C 239.07 352.52 237.33 347.97 235.45 343.49 Z" />
<path fill="#aea48e" opacity="1.00" d=" M 243.35 363.00 C 328.56 363.00 413.78 362.99 499.00 363.01 C 499.00 367.66 499.00 372.31 498.99 376.96 C 415.65 377.05 332.32 376.98 248.98 376.98 C 247.05 372.34 245.20 367.67 243.35 363.00 Z" />
<path fill="#c6ba9f" opacity="1.00" d=" M 248.98 376.98 C 332.32 376.98 415.65 377.05 498.99 376.96 C 499.00 384.30 499.00 391.65 499.00 399.00 C 410.99 399.00 322.98 399.00 234.97 399.00 C 228.92 398.88 222.83 399.33 216.80 398.62 C 221.98 397.51 227.05 395.92 232.14 394.48 C 233.97 394.14 235.15 392.65 236.32 391.35 C 240.50 386.52 244.72 381.74 248.98 376.98 Z" />
<path fill="#c6ba9f" opacity="1.00" d=" M 165.51 413.61 C 166.97 413.19 168.48 412.99 170.01 412.99 C 279.67 413.02 389.33 412.99 499.00 413.00 C 499.00 420.00 499.00 427.00 499.00 434.00 C 383.32 434.00 267.65 434.00 151.98 434.00 C 133.20 433.86 114.40 434.29 95.63 433.78 C 118.91 426.99 142.23 420.38 165.51 413.61 Z" />
</svg>
