<?xml version="1.0" encoding="UTF-8" ?>
<!DOCTYPE svg PUBLIC "-//W3C//DTD SVG 1.1//EN" "http://www.w3.org/Graphics/SVG/1.1/DTD/svg11.dtd">
<svg width="512pt" height="512pt" viewBox="0 0 512 512" version="1.1" xmlns="http://www.w3.org/2000/svg">
<path fill="#3e3e3e" opacity="1.00" d=" M 0.00 0.00 L 512.00 0.00 L 512.00 341.70 C 431.65 294.92 351.33 248.08 271.07 201.15 C 271.23 200.37 271.55 198.81 271.71 198.03 C 270.95 196.09 269.26 194.20 269.82 192.00 C 271.20 185.29 273.37 178.73 274.36 171.95 C 273.48 166.69 271.04 161.86 269.24 156.88 C 253.04 112.18 236.67 67.55 220.42 22.88 C 219.58 20.80 218.96 18.42 217.01 17.08 C 213.97 14.81 211.06 12.34 207.82 10.35 C 194.77 13.84 182.63 20.12 169.89 24.56 C 163.48 26.63 157.43 29.61 151.22 32.19 C 133.58 38.69 116.26 46.00 98.77 52.88 C 97.32 56.00 95.48 58.96 94.36 62.22 C 94.70 64.46 95.80 66.49 96.64 68.57 C 100.13 76.36 103.22 84.32 106.69 92.13 C 113.74 107.01 119.55 122.45 126.30 137.47 C 133.79 153.73 140.21 170.46 147.56 186.78 C 151.13 193.91 153.79 201.45 157.03 208.74 C 158.52 211.95 159.48 215.51 161.79 218.26 C 163.91 219.83 166.55 220.42 169.01 221.26 C 175.19 223.34 181.40 225.36 187.59 227.43 C 187.93 229.04 188.27 230.64 188.62 232.25 C 190.29 233.38 191.96 234.53 193.68 235.60 C 192.01 237.67 190.31 239.73 188.94 242.02 C 140.13 331.98 91.59 422.09 42.71 512.00 L 0.00 512.00 L 0.00 0.00 Z" />
<path fill="#f5e5c1" opacity="1.00" d=" M 169.89 24.56 C 182.63 20.12 194.77 13.84 207.82 10.35 C 211.06 12.34 213.97 14.81 217.01 17.08 C 218.96 18.42 219.58 20.80 220.42 22.88 C 236.67 67.55 253.04 112.18 269.24 156.88 C 271.04 161.86 273.48 166.69 274.36 171.95 C 273.37 178.73 271.20 185.29 269.82 192.00 C 269.26 194.20 270.95 196.09 271.71 198.03 C 271.55 198.81 271.23 200.37 271.07 201.15 C 269.94 203.93 267.88 206.16 265.79 208.24 C 263.25 210.72 260.22 212.60 257.22 214.47 C 252.85 217.22 248.63 220.20 244.37 223.11 C 244.23 223.18 243.95 223.31 243.81 223.38 C 238.35 225.91 232.65 227.87 226.93 229.73 L 225.51 230.13 C 222.97 230.86 220.42 231.50 217.87 232.15 C 217.73 232.19 217.44 232.26 217.30 232.30 C 215.38 232.80 213.49 233.39 211.59 233.95 L 210.82 234.11 C 209.47 234.28 208.12 234.42 206.78 234.55 C 205.59 234.64 204.41 234.77 203.23 234.93 C 200.07 235.39 196.88 235.99 193.68 235.60 C 191.96 234.53 190.29 233.38 188.62 232.25 C 188.27 230.64 187.93 229.04 187.59 227.43 C 181.40 225.36 175.19 223.34 169.01 221.26 C 166.55 220.42 163.91 219.83 161.79 218.26 C 159.48 215.51 158.52 211.95 157.03 208.74 C 153.79 201.45 151.13 193.91 147.56 186.78 C 140.21 170.46 133.79 153.73 126.30 137.47 C 119.55 122.45 113.74 107.01 106.69 92.13 C 103.22 84.32 100.13 76.36 96.64 68.57 C 95.80 66.49 94.70 64.46 94.36 62.22 C 95.48 58.96 97.32 56.00 98.77 52.88 C 116.26 46.00 133.58 38.69 151.22 32.19 C 157.43 29.61 163.48 26.63 169.89 24.56 Z" />
<path fill="#3e3e3e" opacity="1.00" d=" M 192.79 19.83 C 196.94 18.80 200.59 16.51 204.61 15.09 C 208.07 18.41 211.73 21.50 215.29 24.71 C 218.87 33.87 221.68 43.29 225.47 52.38 C 227.33 59.19 230.35 65.60 232.61 72.28 C 234.44 78.70 237.32 84.76 239.46 91.07 C 241.04 96.74 243.48 102.11 245.46 107.63 C 247.54 115.31 251.08 122.47 253.62 129.99 C 258.46 143.32 262.98 156.78 268.26 169.95 C 266.66 177.96 264.48 185.86 263.18 193.94 C 264.05 195.38 264.91 196.82 265.79 198.26 C 265.03 199.24 264.07 199.93 262.93 200.33 L 262.16 200.20 C 260.77 198.80 259.39 197.39 258.01 195.99 C 259.48 187.68 261.17 179.40 262.60 171.09 C 263.13 168.85 262.11 166.73 261.31 164.72 C 252.77 144.39 244.73 123.86 236.11 103.57 C 235.07 113.84 234.91 124.17 233.92 134.45 C 228.59 126.96 224.19 118.87 219.06 111.26 C 218.60 127.26 218.33 143.27 218.02 159.28 C 213.19 160.49 208.57 158.07 203.93 157.11 C 198.14 156.12 195.15 150.54 191.00 147.01 C 189.00 149.00 187.00 151.00 185.00 153.01 C 184.99 158.50 185.14 164.00 184.77 169.49 C 182.47 164.69 180.30 159.83 177.99 155.04 C 176.01 155.59 174.03 156.13 172.05 156.67 C 158.44 124.32 144.58 92.08 130.92 59.75 C 132.54 58.76 134.18 57.79 135.88 56.94 C 158.32 46.09 180.76 35.23 203.19 24.37 C 205.59 23.64 205.22 20.68 205.93 18.80 C 189.32 27.13 172.95 35.96 156.38 44.38 C 151.36 46.82 146.63 50.17 141.00 51.02 C 131.47 52.73 122.08 55.12 112.60 57.05 C 115.07 58.42 117.58 59.71 120.11 60.96 C 120.48 62.23 120.86 63.49 121.28 64.74 C 133.14 94.89 145.16 124.99 157.13 155.10 C 151.37 147.86 145.91 140.37 139.79 133.43 C 144.70 145.88 150.48 157.98 155.50 170.39 C 159.79 181.89 163.97 193.43 168.23 204.94 C 169.24 208.00 172.60 209.14 175.01 210.89 C 180.59 214.69 186.92 217.13 192.99 220.02 C 193.80 222.95 194.61 225.87 195.38 228.81 C 191.53 229.16 191.25 223.93 187.91 223.02 C 180.62 220.25 173.14 217.94 165.83 215.18 C 154.61 188.42 142.58 162.02 131.77 135.08 C 130.55 131.59 128.53 128.48 126.92 125.17 C 122.70 114.73 118.29 104.37 113.99 93.97 C 108.61 84.39 105.43 73.78 100.59 63.93 C 102.52 61.41 103.79 58.48 104.69 55.45 C 127.08 46.21 149.71 37.54 172.06 28.19 C 179.24 26.18 186.20 23.33 192.79 19.83 Z" />
<path fill="#f5e5c1" opacity="1.00" d=" M 156.38 44.38 C 172.95 35.96 189.32 27.13 205.93 18.80 C 205.22 20.68 205.59 23.64 203.19 24.37 C 180.76 35.23 158.32 46.09 135.88 56.94 C 134.18 57.79 132.54 58.76 130.92 59.75 C 144.58 92.08 158.44 124.32 172.05 156.67 C 179.06 173.08 186.09 189.49 193.07 205.91 C 195.34 205.28 197.61 204.66 199.90 204.09 C 195.02 208.65 189.51 212.65 183.32 215.23 C 179.20 206.79 174.07 198.83 170.91 189.95 C 166.28 178.35 161.75 166.71 157.13 155.10 C 145.16 124.99 133.14 94.89 121.28 64.74 C 120.86 63.49 120.48 62.23 120.11 60.96 C 117.58 59.71 115.07 58.42 112.60 57.05 C 122.08 55.12 131.47 52.73 141.00 51.02 C 146.63 50.17 151.36 46.82 156.38 44.38 Z" />
<path fill="#f4722b" opacity="1.00" d=" M 236.11 103.57 C 244.73 123.86 252.77 144.39 261.31 164.72 C 262.11 166.73 263.13 168.85 262.60 171.09 C 261.17 179.40 259.48 187.68 258.01 195.99 C 259.39 197.39 260.77 198.80 262.16 200.20 L 262.35 200.88 C 259.68 204.75 255.04 207.18 251.48 210.35 C 245.46 215.89 237.39 218.08 229.90 220.87 C 224.28 222.80 218.80 225.10 213.22 227.15 C 207.35 228.28 201.32 228.25 195.38 228.81 C 194.61 225.87 193.80 222.95 192.99 220.02 C 186.92 217.13 180.59 214.69 175.01 210.89 C 172.60 209.14 169.24 208.00 168.23 204.94 C 163.97 193.43 159.79 181.89 155.50 170.39 C 150.48 157.98 144.70 145.88 139.79 133.43 C 145.91 140.37 151.37 147.86 157.13 155.10 C 161.75 166.71 166.28 178.35 170.91 189.95 C 174.07 198.83 179.20 206.79 183.32 215.23 C 189.51 212.65 195.02 208.65 199.90 204.09 C 197.61 204.66 195.34 205.28 193.07 205.91 C 186.09 189.49 179.06 173.08 172.05 156.67 C 174.03 156.13 176.01 155.59 177.99 155.04 C 180.30 159.83 182.47 164.69 184.77 169.49 C 185.14 164.00 184.99 158.50 185.00 153.01 C 187.00 151.00 189.00 149.00 191.00 147.01 C 195.15 150.54 198.14 156.12 203.93 157.11 C 208.57 158.07 213.19 160.49 218.02 159.28 C 218.33 143.27 218.60 127.26 219.06 111.26 C 224.19 118.87 228.59 126.96 233.92 134.45 C 234.91 124.17 235.07 113.84 236.11 103.57 Z" />
<path fill="#f4722b" opacity="1.00" d=" M 271.07 201.15 C 351.33 248.08 431.65 294.92 512.00 341.70 L 512.00 372.15 C 430.01 317.39 347.89 262.84 265.79 208.24 C 267.88 206.16 269.94 203.93 271.07 201.15 Z" />
<path fill="#3e3e3e" opacity="1.00" d=" M 257.22 214.47 C 260.22 212.60 263.25 210.72 265.79 208.24 C 347.89 262.84 430.01 317.39 512.00 372.15 L 512.00 378.23 C 492.53 368.86 472.90 359.79 453.38 350.53 C 437.22 343.05 421.27 335.10 404.97 327.94 C 440.59 355.46 476.42 382.72 512.00 410.29 L 512.00 454.51 C 451.18 401.83 390.27 349.24 329.42 296.59 C 325.86 293.50 322.22 290.51 318.84 287.23 C 341.10 297.48 363.19 308.09 385.38 318.49 C 391.05 321.07 396.57 324.00 402.40 326.25 C 387.12 313.95 371.33 302.30 355.86 290.26 C 322.98 264.99 290.09 239.75 257.22 214.47 Z" />
<path fill="#f5e5c1" opacity="1.00" d=" M 208.55 215.99 C 212.75 214.14 216.79 211.94 221.12 210.39 C 223.08 213.52 224.98 216.68 226.60 220.00 C 221.77 220.76 217.36 223.05 212.55 223.91 C 211.26 221.25 209.91 218.62 208.55 215.99 Z" />
<path fill="#f4722b" opacity="1.00" d=" M 244.37 223.11 C 248.63 220.20 252.85 217.22 257.22 214.47 C 290.09 239.75 322.98 264.99 355.86 290.26 C 371.33 302.30 387.12 313.95 402.40 326.25 C 396.57 324.00 391.05 321.07 385.38 318.49 C 363.19 308.09 341.10 297.48 318.84 287.23 C 322.22 290.51 325.86 293.50 329.42 296.59 C 390.27 349.24 451.18 401.83 512.00 454.51 L 512.00 512.00 L 466.90 512.00 C 417.67 448.57 368.74 384.91 319.56 321.44 C 318.57 320.17 317.74 318.71 317.79 317.05 C 317.01 303.03 318.04 288.98 317.10 274.97 C 317.02 272.68 316.07 270.11 313.68 269.37 C 308.44 267.55 302.80 269.12 297.42 268.30 C 294.64 267.09 292.61 264.65 290.28 262.77 C 274.98 249.55 259.73 236.26 244.37 223.11 Z" />
<path fill="#3e3e3e" opacity="1.00" d=" M 243.81 223.38 C 243.95 223.31 244.23 223.18 244.37 223.11 C 259.73 236.26 274.98 249.55 290.28 262.77 C 292.61 264.65 294.64 267.09 297.42 268.30 C 302.80 269.12 308.44 267.55 313.68 269.37 C 316.07 270.11 317.02 272.68 317.10 274.97 C 318.04 288.98 317.01 303.03 317.79 317.05 C 317.74 318.71 318.57 320.17 319.56 321.44 C 368.74 384.91 417.67 448.57 466.90 512.00 L 411.71 512.00 C 391.39 480.65 370.69 449.54 350.47 418.13 C 350.41 421.45 350.88 425.13 349.00 428.07 C 347.12 430.44 343.73 430.35 340.99 430.52 C 333.07 430.50 325.15 430.53 317.24 430.44 C 317.24 447.95 317.29 465.45 317.23 482.95 C 317.38 485.96 316.08 489.30 312.90 490.13 C 307.84 491.45 302.51 490.49 297.35 490.74 C 299.29 497.83 301.12 504.96 303.25 512.00 L 276.36 512.00 C 274.71 505.01 273.44 497.95 271.89 490.94 C 268.92 490.57 265.39 491.12 263.05 488.87 C 260.94 486.43 261.05 482.98 260.96 479.96 C 261.03 467.64 260.95 455.32 261.03 443.00 C 261.08 439.16 260.44 435.37 259.68 431.62 C 250.89 431.36 242.08 431.56 233.28 431.50 C 235.29 458.33 237.38 485.17 239.43 512.00 L 211.11 512.00 C 211.20 485.19 211.26 458.39 211.38 431.59 C 195.85 431.23 180.31 431.88 164.79 431.24 C 158.41 458.15 152.30 485.12 145.83 512.00 L 91.45 512.00 C 111.46 461.67 131.98 411.54 152.19 361.29 C 169.21 319.17 186.20 277.04 203.23 234.93 C 204.41 234.77 205.59 234.64 206.78 234.55 C 208.02 234.93 209.26 235.33 210.50 235.75 C 201.67 272.83 193.14 309.97 184.42 347.08 C 182.91 353.83 181.12 360.52 179.85 367.33 C 190.09 355.71 199.71 343.55 209.78 331.78 C 212.65 328.92 211.53 324.62 211.73 321.00 C 211.80 292.94 211.87 264.88 212.00 236.82 C 214.04 237.75 216.09 238.68 218.14 239.61 C 217.86 237.17 217.58 234.73 217.30 232.30 C 217.44 232.26 217.73 232.19 217.87 232.15 C 218.37 234.64 218.88 237.13 219.39 239.62 C 219.89 239.88 220.87 240.41 221.36 240.67 C 223.94 242.46 226.76 243.85 229.61 245.14 C 233.83 260.88 238.25 276.57 242.57 292.29 C 247.46 286.69 252.24 280.99 256.84 275.15 C 251.47 266.94 245.97 258.81 240.79 250.47 C 253.35 256.05 265.64 262.23 278.17 267.89 C 266.77 253.01 255.28 238.20 243.81 223.38 Z" />
<path fill="#f4722b" opacity="1.00" d=" M 226.93 229.73 C 232.65 227.87 238.35 225.91 243.81 223.38 C 255.28 238.20 266.77 253.01 278.17 267.89 C 265.64 262.23 253.35 256.05 240.79 250.47 C 245.97 258.81 251.47 266.94 256.84 275.15 C 252.24 280.99 247.46 286.69 242.57 292.29 C 238.25 276.57 233.83 260.88 229.61 245.14 C 226.76 243.85 223.94 242.46 221.36 240.67 C 220.87 240.41 219.89 239.88 219.39 239.62 C 218.88 237.13 218.37 234.64 217.87 232.15 C 220.42 231.50 222.97 230.86 225.51 230.13 C 226.56 234.17 227.56 238.23 228.70 242.24 C 229.12 243.38 229.28 244.85 230.54 245.41 C 233.64 247.25 237.03 248.52 240.30 250.02 C 235.88 243.23 231.61 236.34 226.93 229.73 Z" />
<path fill="#3e3e3e" opacity="1.00" d=" M 225.51 230.13 L 226.93 229.73 C 231.61 236.34 235.88 243.23 240.30 250.02 C 237.03 248.52 233.64 247.25 230.54 245.41 C 229.28 244.85 229.12 243.38 228.70 242.24 C 227.56 238.23 226.56 234.17 225.51 230.13 Z" />
<path fill="#f4722b" opacity="1.00" d=" M 211.59 233.95 C 213.49 233.39 215.38 232.80 217.30 232.30 C 217.58 234.73 217.86 237.17 218.14 239.61 C 216.09 238.68 214.04 237.75 212.00 236.82 C 211.87 264.88 211.80 292.94 211.73 321.00 C 211.53 324.62 212.65 328.92 209.78 331.78 C 199.71 343.55 190.09 355.71 179.85 367.33 C 181.12 360.52 182.91 353.83 184.42 347.08 C 193.14 309.97 201.67 272.83 210.50 235.75 C 209.26 235.33 208.02 234.93 206.78 234.55 C 208.12 234.42 209.47 234.28 210.82 234.11 C 209.67 236.47 213.27 235.86 211.59 233.95 Z" />
<path fill="#3e3e3e" opacity="1.00" d=" M 210.82 234.11 L 211.59 233.95 C 213.27 235.86 209.67 236.47 210.82 234.11 Z" />
<path fill="#f4722b" opacity="1.00" d=" M 193.68 235.60 C 196.88 235.99 200.07 235.39 203.23 234.93 C 186.20 277.04 169.21 319.17 152.19 361.29 C 131.98 411.54 111.46 461.67 91.45 512.00 L 42.71 512.00 C 91.59 422.09 140.13 331.98 188.94 242.02 C 190.31 239.73 192.01 237.67 193.68 235.60 Z" />
<path fill="#f4722b" opacity="1.00" d=" M 218.54 239.95 C 220.80 241.94 220.71 245.15 221.34 247.86 C 225.19 266.53 229.07 285.20 232.98 303.87 C 230.09 307.36 227.23 310.89 224.21 314.27 C 222.69 292.83 220.86 271.42 218.97 250.02 C 218.70 246.67 218.16 243.32 218.54 239.95 Z" />
<path fill="#f5e5c1" opacity="1.00" d=" M 167.15 392.08 C 199.81 352.93 232.60 313.89 265.09 274.60 C 280.47 274.38 295.85 274.55 311.23 274.51 C 311.75 312.41 311.85 350.32 312.24 388.22 C 322.96 388.25 333.68 388.30 344.41 388.19 C 344.61 400.29 344.44 412.39 344.49 424.50 C 333.42 424.49 322.35 424.51 311.27 424.48 C 311.16 444.59 311.40 464.69 311.15 484.79 C 296.45 484.71 281.74 484.74 267.04 484.78 C 266.89 465.00 267.14 445.22 266.91 425.44 C 233.34 425.52 199.77 425.57 166.20 425.41 C 166.25 415.27 165.79 405.13 166.01 394.98 C 165.95 393.84 166.33 392.87 167.15 392.08 Z" />
<path fill="#f4722b" opacity="1.00" d=" M 404.97 327.94 C 421.27 335.10 437.22 343.05 453.38 350.53 C 472.90 359.79 492.53 368.86 512.00 378.23 L 512.00 410.29 C 476.42 382.72 440.59 355.46 404.97 327.94 Z" />
<path fill="#3e3e3e" opacity="1.00" d=" M 230.51 390.92 C 244.32 373.55 258.04 356.10 271.90 338.78 C 271.43 356.37 270.59 373.95 270.22 391.55 C 257.00 390.76 243.73 391.78 230.51 390.92 Z" />
<path fill="#f4722b" opacity="1.00" d=" M 261.62 361.76 C 262.62 360.03 263.82 358.43 265.18 356.97 C 265.22 362.05 265.08 367.14 264.60 372.20 C 263.61 368.71 262.75 365.20 261.62 361.76 Z" />
<path fill="#f4722b" opacity="1.00" d=" M 318.05 369.04 C 321.15 373.29 323.98 377.74 326.73 382.22 C 323.92 382.25 321.12 382.26 318.32 382.29 C 318.27 377.87 317.97 373.46 318.05 369.04 Z" />
<path fill="#f4722b" opacity="1.00" d=" M 242.76 385.19 C 244.53 382.70 246.47 380.34 248.51 378.06 C 248.93 380.44 249.38 382.82 249.89 385.20 C 247.51 385.23 245.13 385.23 242.76 385.19 Z" />
<path fill="#f4722b" opacity="1.00" d=" M 350.47 418.13 C 370.69 449.54 391.39 480.65 411.71 512.00 L 303.25 512.00 C 301.12 504.96 299.29 497.83 297.35 490.74 C 302.51 490.49 307.84 491.45 312.90 490.13 C 316.08 489.30 317.38 485.96 317.23 482.95 C 317.29 465.45 317.24 447.95 317.24 430.44 C 325.15 430.53 333.07 430.50 340.99 430.52 C 343.73 430.35 347.12 430.44 349.00 428.07 C 350.88 425.13 350.41 421.45 350.47 418.13 Z" />
<path fill="#f4722b" opacity="1.00" d=" M 164.79 431.24 C 180.31 431.88 195.85 431.23 211.38 431.59 C 211.26 458.39 211.20 485.19 211.11 512.00 L 145.83 512.00 C 152.30 485.12 158.41 458.15 164.79 431.24 Z" />
<path fill="#f4722b" opacity="1.00" d=" M 233.28 431.50 C 242.08 431.56 250.89 431.36 259.68 431.62 C 260.44 435.37 261.08 439.16 261.03 443.00 C 260.95 455.32 261.03 467.64 260.96 479.96 C 261.05 482.98 260.94 486.43 263.05 488.87 C 265.39 491.12 268.92 490.57 271.89 490.94 C 273.44 497.95 274.71 505.01 276.36 512.00 L 239.43 512.00 C 237.38 485.17 235.29 458.33 233.28 431.50 Z" />
</svg>
