<?xml version="1.0" encoding="UTF-8" ?>
<!DOCTYPE svg PUBLIC "-//W3C//DTD SVG 1.1//EN" "http://www.w3.org/Graphics/SVG/1.1/DTD/svg11.dtd">
<svg width="512pt" height="512pt" viewBox="0 0 512 512" version="1.1" xmlns="http://www.w3.org/2000/svg">
<path fill="#3e3e3e" opacity="1.00" d=" M 0.00 0.00 L 72.37 0.00 C 102.18 48.77 131.96 97.56 161.78 146.33 C 163.31 148.98 165.48 151.48 165.69 154.67 C 160.41 149.17 154.86 143.91 149.05 138.97 C 137.83 128.43 126.40 118.13 115.09 107.70 C 107.43 106.83 99.77 105.95 92.15 104.81 C 87.26 103.20 82.11 102.94 77.04 102.31 C 66.53 101.17 56.09 98.95 45.49 99.08 C 35.08 96.71 24.39 95.61 13.76 94.79 C 13.92 97.09 14.57 99.32 15.52 101.42 C 17.57 111.49 19.09 121.67 20.98 131.77 C 21.55 133.70 22.65 135.41 23.63 137.15 C 27.75 144.10 31.51 151.26 35.70 158.16 C 39.28 163.20 43.39 167.83 47.26 172.65 C 50.28 176.38 53.16 180.26 56.63 183.61 C 59.66 182.71 62.72 181.95 65.81 181.29 C 65.78 183.85 64.66 186.14 63.37 188.28 C 70.31 194.19 77.43 199.88 84.39 205.77 C 88.80 209.04 92.55 213.23 97.53 215.68 C 110.49 222.28 123.32 229.16 136.28 235.77 C 143.08 228.62 148.68 220.39 155.45 213.19 C 156.00 212.53 156.54 211.87 157.07 211.19 C 167.10 198.63 177.56 186.43 187.83 174.07 C 186.66 173.20 185.51 172.32 184.37 171.41 C 186.18 168.45 188.46 165.83 190.66 163.17 C 169.35 108.79 148.22 54.34 126.83 0.00 L 143.61 0.00 C 143.93 2.77 145.01 5.35 145.89 7.97 C 162.48 57.91 179.06 107.85 195.65 157.80 C 202.41 155.71 209.15 153.55 215.92 151.50 C 209.88 100.99 203.63 50.50 197.50 0.00 L 225.37 0.00 C 224.62 49.76 223.68 99.51 222.88 149.27 C 224.24 148.86 225.60 148.44 226.96 148.03 C 229.99 141.38 232.97 134.70 235.99 128.03 C 240.41 127.91 244.83 127.86 249.25 127.97 C 258.87 85.32 268.30 42.63 278.00 0.00 L 324.03 0.00 C 304.45 43.33 285.08 86.75 265.60 130.13 C 272.56 132.56 279.55 134.93 286.60 137.11 C 314.29 91.38 341.99 45.66 369.77 0.00 L 383.01 0.00 C 351.93 46.02 321.10 92.22 290.09 138.29 C 292.68 139.08 295.17 140.20 297.36 141.81 C 330.50 94.55 363.53 47.22 396.73 0.00 L 444.75 0.00 C 426.40 20.21 407.55 39.97 389.00 60.01 C 361.17 89.90 333.25 119.72 305.46 149.66 C 308.49 152.43 311.50 155.23 314.55 157.98 C 370.75 105.30 426.91 52.59 483.18 0.00 L 512.00 0.00 L 512.00 35.30 C 449.02 78.71 386.15 122.28 323.15 165.66 C 327.03 169.85 331.91 173.14 335.06 177.98 C 339.50 184.57 343.94 191.16 348.53 197.64 C 402.98 185.58 457.54 173.96 512.00 161.93 L 512.00 177.90 C 458.79 186.09 405.51 193.88 352.30 202.11 C 347.68 208.72 341.70 214.24 336.75 220.61 C 395.17 212.97 453.58 205.30 512.00 197.64 L 512.00 238.89 C 450.34 235.60 388.67 232.32 327.01 229.09 C 328.42 234.59 329.72 240.12 331.21 245.59 C 391.47 260.32 451.76 274.96 512.00 289.78 L 512.00 309.13 C 452.08 289.08 392.07 269.30 332.12 249.31 C 332.34 250.23 332.77 252.06 332.98 252.98 C 331.06 257.08 329.03 261.13 327.09 265.23 C 388.72 298.09 450.40 330.84 512.00 363.76 L 512.00 385.43 C 450.00 346.17 387.85 307.13 325.79 267.95 C 324.56 270.41 323.34 272.89 322.14 275.37 C 385.39 319.72 448.79 363.88 512.00 408.29 L 512.00 512.00 L 0.00 512.00 L 0.00 0.00 Z" />
<path fill="#beb39a" opacity="1.00" d=" M 72.37 0.00 L 126.83 0.00 C 148.22 54.34 169.35 108.79 190.66 163.17 C 188.46 165.83 186.18 168.45 184.37 171.41 C 178.34 165.60 172.20 159.92 165.69 154.67 C 165.48 151.48 163.31 148.98 161.78 146.33 C 131.96 97.56 102.18 48.77 72.37 0.00 Z" />
<path fill="#beb39a" opacity="1.00" d=" M 143.61 0.00 L 197.50 0.00 C 203.63 50.50 209.88 100.99 215.92 151.50 C 209.15 153.55 202.41 155.71 195.65 157.80 C 179.06 107.85 162.48 57.91 145.89 7.97 C 145.01 5.35 143.93 2.77 143.61 0.00 Z" />
<path fill="#beb39a" opacity="1.00" d=" M 225.37 0.00 L 278.00 0.00 C 268.30 42.63 258.87 85.32 249.25 127.97 C 244.83 127.86 240.41 127.91 235.99 128.03 C 232.97 134.70 229.99 141.38 226.96 148.03 C 225.60 148.44 224.24 148.86 222.88 149.27 C 223.68 99.51 224.62 49.76 225.37 0.00 Z" />
<path fill="#beb39a" opacity="1.00" d=" M 324.03 0.00 L 369.77 0.00 C 341.99 45.66 314.29 91.38 286.60 137.11 C 279.55 134.93 272.56 132.56 265.60 130.13 C 285.08 86.75 304.45 43.33 324.03 0.00 Z" />
<path fill="#beb39a" opacity="1.00" d=" M 383.01 0.00 L 396.73 0.00 C 363.53 47.22 330.50 94.55 297.36 141.81 C 295.17 140.20 292.68 139.08 290.09 138.29 C 321.10 92.22 351.93 46.02 383.01 0.00 Z" />
<path fill="#beb39a" opacity="1.00" d=" M 444.75 0.00 L 483.18 0.00 C 426.91 52.59 370.75 105.30 314.55 157.98 C 311.50 155.23 308.49 152.43 305.46 149.66 C 333.25 119.72 361.17 89.90 389.00 60.01 C 407.55 39.97 426.40 20.21 444.75 0.00 Z" />
<path fill="#beb39a" opacity="1.00" d=" M 323.15 165.66 C 386.15 122.28 449.02 78.71 512.00 35.30 L 512.00 161.93 C 457.54 173.96 402.98 185.58 348.53 197.64 C 343.94 191.16 339.50 184.57 335.06 177.98 C 331.91 173.14 327.03 169.85 323.15 165.66 Z" />
<path fill="#6c685f" opacity="1.00" d=" M 13.76 94.79 C 24.39 95.61 35.08 96.71 45.49 99.08 C 56.09 98.95 66.53 101.17 77.04 102.31 C 82.11 102.94 87.26 103.20 92.15 104.81 C 76.85 104.14 61.78 100.75 46.48 100.16 C 48.00 110.99 51.76 121.76 58.64 130.37 C 62.68 135.63 66.03 141.47 70.85 146.10 C 77.21 152.44 82.71 159.72 89.99 165.08 C 99.25 172.16 108.04 179.89 117.98 186.04 C 130.84 194.69 143.70 203.35 157.07 211.19 C 156.54 211.87 156.00 212.53 155.45 213.19 C 141.46 204.80 128.00 195.59 114.35 186.68 C 108.05 182.74 102.48 177.80 96.57 173.33 C 91.01 168.62 84.64 164.78 79.89 159.18 C 73.38 152.00 66.17 145.37 60.76 137.27 C 56.54 131.11 51.31 125.47 49.03 118.21 C 46.21 112.35 44.68 106.03 44.09 99.56 C 34.50 98.09 24.84 96.94 15.17 96.12 C 15.28 97.89 15.39 99.65 15.52 101.42 C 14.57 99.32 13.92 97.09 13.76 94.79 Z" />
<path fill="#f5e5c1" opacity="1.00" d=" M 15.17 96.12 C 24.84 96.94 34.50 98.09 44.09 99.56 C 44.68 106.03 46.21 112.35 49.03 118.21 C 51.31 125.47 56.54 131.11 60.76 137.27 C 66.17 145.37 73.38 152.00 79.89 159.18 C 84.64 164.78 91.01 168.62 96.57 173.33 C 102.48 177.80 108.05 182.74 114.35 186.68 C 128.00 195.59 141.46 204.80 155.45 213.19 C 148.68 220.39 143.08 228.62 136.28 235.77 C 123.32 229.16 110.49 222.28 97.53 215.68 C 92.55 213.23 88.80 209.04 84.39 205.77 C 77.43 199.88 70.31 194.19 63.37 188.28 C 64.66 186.14 65.78 183.85 65.81 181.29 C 62.72 181.95 59.66 182.71 56.63 183.61 C 53.16 180.26 50.28 176.38 47.26 172.65 C 43.39 167.83 39.28 163.20 35.70 158.16 C 31.51 151.26 27.75 144.10 23.63 137.15 C 22.65 135.41 21.55 133.70 20.98 131.77 C 19.09 121.67 17.57 111.49 15.52 101.42 C 15.39 99.65 15.28 97.89 15.17 96.12 Z" />
<path fill="#f5e5c1" opacity="1.00" d=" M 46.48 100.16 C 61.78 100.75 76.85 104.14 92.15 104.81 C 99.77 105.95 107.43 106.83 115.09 107.70 C 126.40 118.13 137.83 128.43 149.05 138.97 C 154.86 143.91 160.41 149.17 165.69 154.67 C 172.20 159.92 178.34 165.60 184.37 171.41 C 185.51 172.32 186.66 173.20 187.83 174.07 C 177.56 186.43 167.10 198.63 157.07 211.19 C 143.70 203.35 130.84 194.69 117.98 186.04 C 108.04 179.89 99.25 172.16 89.99 165.08 C 82.71 159.72 77.21 152.44 70.85 146.10 C 66.03 141.47 62.68 135.63 58.64 130.37 C 51.76 121.76 48.00 110.99 46.48 100.16 Z" />
<path fill="#f5e5c1" opacity="1.00" d=" M 240.28 137.30 C 241.97 135.41 243.60 132.60 246.56 133.17 C 251.98 132.61 257.03 134.82 262.17 136.11 C 273.02 138.37 282.90 143.88 291.97 150.08 C 300.48 155.28 307.20 162.79 314.64 169.33 C 319.91 173.67 325.12 178.25 328.67 184.16 C 332.72 188.65 332.82 195.03 335.61 200.18 C 336.41 201.79 337.26 203.74 336.31 205.49 C 334.35 209.59 330.86 212.65 328.36 216.38 C 327.27 218.02 326.05 219.58 324.51 220.82 C 323.60 217.02 327.07 212.97 324.40 209.56 C 321.05 203.92 318.46 197.78 314.21 192.73 C 309.03 185.68 303.31 179.04 297.38 172.63 C 291.55 169.12 285.86 165.38 279.97 161.96 C 274.26 159.03 268.53 156.12 262.77 153.28 C 256.27 150.05 249.92 146.36 242.91 144.35 C 240.70 143.67 238.45 144.64 236.46 145.54 C 235.99 142.25 238.37 139.66 240.28 137.30 Z" />
<path fill="#f5e5c1" opacity="1.00" d=" M 232.70 151.53 C 235.32 150.64 238.00 149.04 240.86 149.68 C 245.60 150.68 250.48 151.52 254.80 153.82 C 262.77 158.07 270.99 161.81 279.04 165.90 C 286.82 172.02 294.62 178.23 301.43 185.47 C 305.46 189.77 309.99 193.66 313.37 198.54 C 316.31 202.71 319.98 206.36 322.59 210.77 C 322.32 213.25 322.42 215.75 322.25 218.24 C 321.33 220.30 319.28 221.50 317.58 222.84 C 318.63 230.61 321.08 238.11 322.15 245.88 C 323.07 250.50 325.49 255.95 322.18 260.16 C 316.05 268.70 309.67 277.06 303.30 285.42 C 300.43 288.73 299.21 293.12 296.07 296.24 C 286.15 309.58 276.15 322.84 266.02 336.02 C 254.04 353.24 241.10 369.77 228.65 386.64 C 219.13 400.65 208.63 413.96 198.53 427.55 C 194.19 427.53 189.87 427.96 185.57 428.53 C 168.59 415.11 151.30 402.07 134.46 388.48 C 128.29 382.89 121.09 378.60 114.64 373.35 C 100.66 361.03 84.77 350.67 71.21 338.03 C 71.33 332.59 72.36 327.21 72.85 321.80 C 76.34 316.46 80.71 311.71 84.67 306.70 C 90.35 300.63 95.27 293.90 100.58 287.51 C 106.41 281.32 111.39 274.42 116.87 267.93 C 122.71 261.38 128.02 254.40 133.68 247.70 C 140.57 240.18 146.21 231.62 153.09 224.09 C 165.37 209.36 177.49 194.49 189.90 179.88 C 194.53 174.89 198.16 168.94 203.42 164.56 C 212.05 161.37 221.02 159.20 229.76 156.31 C 230.75 154.72 231.74 153.14 232.70 151.53 Z" />
<path fill="#3e3e3e" opacity="1.00" d=" M 236.78 157.28 C 246.85 159.83 256.35 164.28 266.06 167.95 C 278.15 176.08 288.65 186.28 300.33 194.97 C 302.53 196.44 303.66 198.94 305.25 200.98 C 308.53 206.05 312.19 210.87 315.37 216.00 C 314.68 219.36 311.64 222.36 312.64 226.01 C 313.43 229.31 313.16 232.81 314.70 235.90 C 315.45 242.25 317.29 248.44 317.80 254.82 C 310.70 263.89 303.99 273.26 297.10 282.49 C 291.64 278.86 284.76 278.76 279.23 275.41 C 284.39 268.85 289.64 262.35 294.54 255.60 C 298.48 248.82 303.14 242.38 306.71 235.45 C 303.60 232.38 300.32 229.48 297.32 226.30 C 299.86 227.80 302.33 229.40 304.81 231.00 C 304.75 229.17 303.77 227.63 302.82 226.17 C 299.71 221.51 296.88 216.69 293.78 212.04 C 293.07 210.85 292.13 209.64 292.17 208.18 C 293.77 204.65 296.15 201.53 298.05 198.14 C 293.77 193.96 288.93 190.39 284.92 185.93 C 282.60 189.50 280.69 193.30 278.42 196.91 C 280.65 202.54 283.62 207.84 285.72 213.52 C 276.49 208.66 267.35 203.60 257.96 199.08 C 258.99 201.82 261.32 203.70 263.42 205.61 C 272.52 214.03 281.82 222.22 290.93 230.63 C 282.09 243.05 272.65 255.04 263.78 267.44 C 253.47 263.93 246.78 255.03 239.21 247.78 C 234.79 243.18 229.81 239.04 226.24 233.71 C 219.02 223.29 211.47 213.10 204.35 202.62 C 201.25 196.03 199.84 188.78 197.28 181.98 C 199.65 178.80 202.68 176.20 204.84 172.85 C 208.53 170.67 212.95 170.28 216.91 168.73 C 222.40 166.84 227.92 165.04 233.46 163.32 C 234.82 161.45 235.99 159.45 236.78 157.28 Z" />
<path fill="#beb39a" opacity="1.00" d=" M 352.30 202.11 C 405.51 193.88 458.79 186.09 512.00 177.90 L 512.00 197.64 C 453.58 205.30 395.17 212.97 336.75 220.61 C 341.70 214.24 347.68 208.72 352.30 202.11 Z" />
<path fill="#6c685f" opacity="1.00" d=" M 156.16 232.08 C 169.21 214.82 183.84 198.90 197.28 181.98 C 199.84 188.78 201.25 196.03 204.35 202.62 C 211.47 213.10 219.02 223.29 226.24 233.71 C 229.81 239.04 234.79 243.18 239.21 247.78 C 246.78 255.03 253.47 263.93 263.78 267.44 C 261.80 270.10 259.77 272.73 257.80 275.41 C 254.25 271.51 251.41 266.95 247.38 263.52 C 232.78 252.81 218.08 242.21 203.40 231.59 C 199.91 229.27 195.75 228.41 191.87 226.96 C 185.75 224.94 179.78 222.47 173.56 220.79 C 176.61 225.88 179.48 231.16 183.11 235.87 C 196.41 247.23 209.24 259.18 222.76 270.29 C 231.65 275.75 240.58 281.16 249.57 286.44 C 248.73 287.56 247.89 288.68 247.05 289.80 C 238.89 285.16 231.35 279.55 223.47 274.47 C 219.24 271.43 214.56 268.91 210.97 265.07 C 202.14 255.88 192.75 247.24 184.24 237.75 C 180.29 232.70 174.73 229.01 171.76 223.20 C 165.56 230.19 159.89 237.61 153.88 244.75 C 152.45 242.86 150.27 241.99 148.08 241.34 C 150.52 238.03 153.15 234.88 156.16 232.08 Z" />
<path fill="#f5e5c1" opacity="1.00" d=" M 278.42 196.91 C 280.69 193.30 282.60 189.50 284.92 185.93 C 288.93 190.39 293.77 193.96 298.05 198.14 C 296.15 201.53 293.77 204.65 292.17 208.18 C 292.13 209.64 293.07 210.85 293.78 212.04 C 296.88 216.69 299.71 221.51 302.82 226.17 C 303.77 227.63 304.75 229.17 304.81 231.00 C 302.33 229.40 299.86 227.80 297.32 226.30 C 300.32 229.48 303.60 232.38 306.71 235.45 C 303.14 242.38 298.48 248.82 294.54 255.60 C 289.64 262.35 284.39 268.85 279.23 275.41 C 275.76 279.91 272.26 284.38 268.72 288.83 C 267.14 290.80 265.57 292.78 264.00 294.76 C 263.04 295.95 262.08 297.15 261.15 298.35 C 235.21 331.71 209.07 364.91 183.02 398.16 C 181.37 400.22 178.47 400.23 176.13 400.92 C 171.54 397.23 166.85 393.67 162.08 390.23 C 165.58 389.16 169.29 389.47 172.90 389.19 C 182.53 376.09 192.29 363.10 202.09 350.13 C 217.16 330.08 231.86 309.76 247.05 289.80 C 247.89 288.68 248.73 287.56 249.57 286.44 C 252.32 282.77 255.08 279.10 257.80 275.41 C 259.77 272.73 261.80 270.10 263.78 267.44 C 272.65 255.04 282.09 243.05 290.93 230.63 C 281.82 222.22 272.52 214.03 263.42 205.61 C 261.32 203.70 258.99 201.82 257.96 199.08 C 267.35 203.60 276.49 208.66 285.72 213.52 C 283.62 207.84 280.65 202.54 278.42 196.91 Z" />
<path fill="#f4722b" opacity="1.00" d=" M 173.56 220.79 C 179.78 222.47 185.75 224.94 191.87 226.96 C 195.75 228.41 199.91 229.27 203.40 231.59 C 218.08 242.21 232.78 252.81 247.38 263.52 C 251.41 266.95 254.25 271.51 257.80 275.41 C 255.08 279.10 252.32 282.77 249.57 286.44 C 240.58 281.16 231.65 275.75 222.76 270.29 C 209.24 259.18 196.41 247.23 183.11 235.87 C 179.48 231.16 176.61 225.88 173.56 220.79 Z" />
<path fill="#f4722b" opacity="1.00" d=" M 153.88 244.75 C 159.89 237.61 165.56 230.19 171.76 223.20 C 174.73 229.01 180.29 232.70 184.24 237.75 C 192.75 247.24 202.14 255.88 210.97 265.07 C 214.56 268.91 219.24 271.43 223.47 274.47 C 231.35 279.55 238.89 285.16 247.05 289.80 C 231.86 309.76 217.16 330.08 202.09 350.13 C 192.29 363.10 182.53 376.09 172.90 389.19 C 169.29 389.47 165.58 389.16 162.08 390.23 C 166.85 393.67 171.54 397.23 176.13 400.92 C 178.47 400.23 181.37 400.22 183.02 398.16 C 209.07 364.91 235.21 331.71 261.15 298.35 C 265.21 300.97 270.02 301.66 274.57 302.97 C 273.42 304.66 272.24 306.34 271.01 307.97 C 270.67 308.40 270.01 309.27 269.67 309.70 C 266.66 313.55 263.72 317.46 260.74 321.33 C 239.26 349.31 217.95 377.42 196.34 405.30 C 190.34 405.95 184.40 407.70 178.35 407.55 C 172.47 403.21 166.98 398.34 161.26 393.79 C 139.18 375.84 116.86 358.15 94.96 339.99 C 94.29 332.73 93.28 325.39 93.40 318.07 C 99.57 308.90 107.56 301.03 114.29 292.24 C 127.56 276.47 140.55 260.46 153.88 244.75 Z" />
<path fill="#beb39a" opacity="1.00" d=" M 327.01 229.09 C 388.67 232.32 450.34 235.60 512.00 238.89 L 512.00 289.78 C 451.76 274.96 391.47 260.32 331.21 245.59 C 329.72 240.12 328.42 234.59 327.01 229.09 Z" />
<path fill="#3e3e3e" opacity="1.00" d=" M 141.47 249.51 C 143.63 246.75 145.89 244.07 148.08 241.34 C 150.27 241.99 152.45 242.86 153.88 244.75 C 140.55 260.46 127.56 276.47 114.29 292.24 C 107.56 301.03 99.57 308.90 93.40 318.07 C 93.28 325.39 94.29 332.73 94.96 339.99 C 116.86 358.15 139.18 375.84 161.26 393.79 C 166.98 398.34 172.47 403.21 178.35 407.55 C 184.40 407.70 190.34 405.95 196.34 405.30 C 217.95 377.42 239.26 349.31 260.74 321.33 C 262.23 322.89 263.53 324.63 264.50 326.57 C 259.62 332.68 255.09 339.07 250.21 345.18 C 248.56 347.03 248.04 349.56 246.49 351.48 C 237.45 363.16 228.73 375.09 219.65 386.74 C 218.21 388.41 217.68 390.62 216.43 392.40 C 209.57 401.41 202.65 410.37 196.05 419.57 C 192.28 419.34 188.29 419.02 184.75 420.60 C 182.33 418.95 179.94 417.25 177.66 415.41 C 168.47 407.47 158.24 400.84 149.04 392.90 C 136.53 383.16 123.90 373.57 111.33 363.90 C 107.31 359.08 101.73 356.00 96.98 351.97 C 94.78 349.93 91.74 349.22 89.50 347.24 C 88.77 346.09 88.10 344.80 86.78 344.25 C 83.64 342.81 81.25 340.26 78.27 338.56 C 79.81 332.83 80.45 326.92 81.81 321.16 C 84.43 317.40 87.61 314.06 90.26 310.32 C 96.41 304.34 101.28 297.19 106.74 290.59 C 111.43 286.26 114.98 280.86 119.09 276.00 C 121.47 272.14 125.37 269.66 127.77 265.81 C 132.47 260.49 136.30 254.41 141.47 249.51 Z" />
<path fill="#beb39a" opacity="1.00" d=" M 332.12 249.31 C 392.07 269.30 452.08 289.08 512.00 309.13 L 512.00 363.76 C 450.40 330.84 388.72 298.09 327.09 265.23 C 329.03 261.13 331.06 257.08 332.98 252.98 C 332.77 252.06 332.34 250.23 332.12 249.31 Z" />
<path fill="#beb39a" opacity="1.00" d=" M 322.14 275.37 C 323.34 272.89 324.56 270.41 325.79 267.95 C 387.85 307.13 450.00 346.17 512.00 385.43 L 512.00 408.29 C 448.79 363.88 385.39 319.72 322.14 275.37 Z" />
<path fill="#6c685f" opacity="1.00" d=" M 268.72 288.83 C 272.26 284.38 275.76 279.91 279.23 275.41 C 284.76 278.76 291.64 278.86 297.10 282.49 C 292.05 289.02 287.77 296.13 282.22 302.27 C 280.12 305.73 277.91 309.13 275.24 312.20 C 273.82 310.79 272.41 309.38 271.01 307.97 C 272.24 306.34 273.42 304.66 274.57 302.97 C 270.02 301.66 265.21 300.97 261.15 298.35 C 262.08 297.15 263.04 295.95 264.00 294.76 C 268.10 296.66 272.38 300.13 277.08 299.19 L 277.56 297.86 C 275.02 294.48 271.72 291.78 268.72 288.83 Z" />
<path fill="#f4722b" opacity="1.00" d=" M 264.00 294.76 C 265.57 292.78 267.14 290.80 268.72 288.83 C 271.72 291.78 275.02 294.48 277.56 297.86 L 277.08 299.19 C 272.38 300.13 268.10 296.66 264.00 294.76 Z" />
<path fill="#f5e5c1" opacity="1.00" d=" M 283.41 321.93 C 290.70 312.37 297.67 302.57 305.10 293.11 C 316.79 306.98 328.69 320.65 340.49 334.41 C 344.38 338.26 347.11 343.27 351.65 346.44 C 351.60 346.85 351.49 347.67 351.44 348.08 C 340.85 355.46 331.34 364.32 320.87 371.87 C 319.85 369.45 318.11 367.47 316.57 365.39 C 308.66 354.64 300.77 343.87 292.91 333.09 C 290.17 329.02 286.77 325.48 283.41 321.93 Z" />
<path fill="#3e3e3e" opacity="1.00" d=" M 269.67 309.70 C 270.01 309.27 270.67 308.40 271.01 307.97 C 272.41 309.38 273.82 310.79 275.24 312.20 C 274.88 312.68 274.18 313.65 273.82 314.14 C 272.44 312.66 271.05 311.18 269.67 309.70 Z" />
<path fill="#6c685f" opacity="1.00" d=" M 260.74 321.33 C 263.72 317.46 266.66 313.55 269.67 309.70 C 271.05 311.18 272.44 312.66 273.82 314.14 C 270.70 318.28 267.54 322.38 264.50 326.57 C 263.53 324.63 262.23 322.89 260.74 321.33 Z" />
<path fill="#f5e5c1" opacity="1.00" d=" M 281.54 324.07 C 282.66 324.26 283.80 324.53 284.39 325.64 C 296.35 339.89 306.58 355.49 317.94 370.22 C 318.82 371.31 319.49 373.01 318.22 374.11 C 315.37 376.97 311.77 378.96 308.96 381.87 C 308.45 381.75 307.45 381.50 306.94 381.38 C 300.05 369.73 291.72 358.96 284.14 347.74 C 281.18 343.01 277.08 339.18 273.23 335.20 C 275.97 331.46 279.03 327.96 281.54 324.07 Z" />
<path fill="#f5e5c1" opacity="1.00" d=" M 357.58 347.49 C 357.93 347.45 358.63 347.35 358.99 347.30 C 362.11 351.16 364.77 355.37 368.00 359.16 C 369.13 360.08 368.90 361.96 367.59 362.62 C 360.87 367.63 354.40 372.94 347.73 378.01 C 342.32 381.72 337.55 386.37 331.95 389.75 C 326.95 389.75 321.95 389.40 316.95 389.18 C 314.14 388.16 311.08 388.66 308.16 388.45 C 309.09 386.16 310.28 383.83 312.42 382.45 C 327.59 370.96 341.98 358.35 357.58 347.49 Z" />
<path fill="#f4722b" opacity="1.00" d=" M 360.57 371.31 C 363.29 368.93 366.11 365.34 370.02 365.52 C 375.39 367.69 377.50 373.71 381.41 377.58 C 403.83 405.80 425.94 434.27 448.77 462.18 C 451.85 467.02 457.25 470.44 458.73 476.21 C 455.44 479.82 451.20 482.35 447.79 485.82 C 442.87 490.62 437.57 494.98 432.26 499.33 C 428.58 499.97 424.79 501.49 421.13 499.88 C 415.42 498.84 410.66 495.30 406.09 491.95 C 389.38 469.02 372.53 446.20 355.94 423.18 C 348.38 413.21 341.30 402.86 333.57 393.03 C 332.66 391.01 335.27 390.30 336.40 389.30 C 338.11 388.33 338.17 385.98 339.75 384.86 C 346.33 381.18 351.59 375.64 357.76 371.33 C 358.46 371.33 359.87 371.32 360.57 371.31 Z" />
<path fill="#3e3e3e" opacity="1.00" d=" M 364.15 381.06 C 371.34 378.58 379.55 385.55 378.66 393.02 C 379.03 397.12 375.71 400.32 372.56 402.37 C 366.34 405.75 357.86 401.73 356.31 394.90 C 354.18 389.15 358.45 382.56 364.15 381.06 Z" />
<path fill="#3e3e3e" opacity="1.00" d=" M 424.49 464.70 C 428.33 461.86 433.96 463.92 435.66 468.21 C 437.95 472.20 435.07 477.42 430.92 478.68 C 425.35 481.30 418.88 474.47 420.97 468.97 C 421.69 467.24 422.83 465.63 424.49 464.70 Z" />
</svg>
