<?xml version="1.0" encoding="UTF-8" ?>
<!DOCTYPE svg PUBLIC "-//W3C//DTD SVG 1.1//EN" "http://www.w3.org/Graphics/SVG/1.1/DTD/svg11.dtd">
<svg width="512pt" height="512pt" viewBox="0 0 512 512" version="1.1" xmlns="http://www.w3.org/2000/svg">
<path fill="#3e3e3e" opacity="1.00" d=" M 0.00 0.00 L 512.00 0.00 L 512.00 512.00 L 0.00 512.00 L 0.00 0.00 Z" />
<path fill="#f5e5c1" opacity="1.00" d=" M 99.88 77.88 C 141.57 34.34 201.69 9.03 261.99 10.00 C 326.09 9.75 389.39 39.41 430.68 88.35 C 464.64 127.91 484.11 179.79 484.00 231.96 C 484.66 273.94 472.64 315.92 450.52 351.55 C 440.72 367.48 428.72 381.97 415.35 395.02 C 415.62 389.66 415.60 384.28 416.15 378.94 C 417.04 370.80 416.23 362.60 416.69 354.45 C 419.77 351.47 421.79 347.65 424.07 344.07 C 432.70 330.06 439.45 314.91 444.26 299.18 C 448.55 285.14 450.87 270.60 452.55 256.05 C 453.06 244.04 453.39 231.88 451.11 220.02 C 446.99 187.57 434.73 156.11 415.20 129.82 C 398.20 106.51 375.74 87.26 350.26 73.75 C 328.52 62.21 304.51 55.09 280.07 52.41 C 267.70 51.82 255.29 51.79 242.92 52.33 C 202.66 55.88 163.73 72.70 133.50 99.52 C 99.82 129.00 77.17 170.66 70.63 214.92 C 68.46 227.50 69.06 240.32 69.05 253.03 C 69.04 270.09 73.26 286.74 77.65 303.11 C 71.49 309.45 65.55 316.01 59.16 322.13 C 58.16 323.14 57.31 324.29 56.65 325.54 C 37.29 283.08 32.09 234.49 41.34 188.80 C 49.77 147.28 70.22 108.17 99.88 77.88 Z" />
<path fill="#c7bba0" opacity="1.00" d=" M 133.50 99.52 C 163.73 72.70 202.66 55.88 242.92 52.33 C 255.29 51.79 267.70 51.82 280.07 52.41 C 304.51 55.09 328.52 62.21 350.26 73.75 C 375.74 87.26 398.20 106.51 415.20 129.82 C 434.73 156.11 446.99 187.57 451.11 220.02 C 453.39 231.88 453.06 244.04 452.55 256.05 C 450.87 270.60 448.55 285.14 444.26 299.18 C 439.45 314.91 432.70 330.06 424.07 344.07 C 421.79 347.65 419.77 351.47 416.69 354.45 C 416.01 347.32 417.68 340.39 419.53 333.58 C 420.19 331.50 420.64 329.37 421.07 327.24 C 421.99 322.13 423.99 317.23 424.45 312.06 C 422.53 303.62 417.96 296.16 415.10 288.05 C 410.91 277.59 407.63 266.80 403.69 256.25 C 397.38 241.66 390.19 227.46 384.30 212.69 C 383.55 211.13 383.14 209.32 381.90 208.07 C 372.20 201.74 360.44 199.82 350.59 193.76 C 347.80 192.00 344.47 191.66 341.41 190.61 C 329.83 186.64 318.05 183.29 306.03 181.00 C 305.98 177.34 306.00 173.69 305.99 170.04 C 303.75 167.92 301.15 166.18 299.12 163.85 C 297.88 157.96 296.87 151.98 296.16 146.00 C 297.65 140.51 300.40 135.43 301.84 129.94 C 300.39 122.56 298.72 115.19 296.28 108.07 C 295.90 99.64 293.53 91.21 288.75 84.19 C 286.75 81.36 285.52 77.76 282.57 75.76 C 277.52 73.39 272.79 69.69 266.96 69.70 C 258.23 69.92 249.84 73.09 242.29 77.32 C 239.88 78.71 237.95 80.74 236.07 82.74 C 231.65 87.22 230.02 93.58 229.18 99.63 C 228.29 107.36 226.83 115.25 229.05 122.90 C 227.75 124.31 226.38 125.66 225.03 127.03 C 225.12 134.28 226.19 142.23 230.81 148.10 C 233.91 152.64 238.46 155.90 241.88 160.15 C 242.55 163.34 242.60 166.62 243.02 169.85 C 242.05 169.85 240.10 169.85 239.13 169.85 C 240.14 171.21 241.30 172.48 242.93 173.10 C 242.58 175.16 242.11 177.21 241.31 179.14 C 241.44 177.33 241.51 175.51 241.60 173.70 C 240.18 172.27 238.86 170.71 237.20 169.55 C 230.90 167.04 223.97 167.32 217.34 167.83 C 207.53 167.42 197.86 165.38 188.05 164.99 C 181.44 165.44 174.92 166.89 168.48 168.39 C 165.32 183.32 158.79 197.24 151.97 210.79 C 150.44 213.80 148.33 216.43 146.24 219.06 C 140.75 225.85 137.14 233.92 131.73 240.77 C 125.43 248.79 119.85 257.35 113.25 265.12 C 107.94 271.52 103.03 278.34 96.78 283.89 C 89.95 289.83 83.93 296.62 77.65 303.11 C 73.26 286.74 69.04 270.09 69.05 253.03 C 69.06 240.32 68.46 227.50 70.63 214.92 C 77.17 170.66 99.82 129.00 133.50 99.52 Z" />
<path fill="#f4722b" opacity="1.00" d=" M 242.29 77.32 C 249.84 73.09 258.23 69.92 266.96 69.70 C 272.79 69.69 277.52 73.39 282.57 75.76 C 285.52 77.76 286.75 81.36 288.75 84.19 C 293.53 91.21 295.90 99.64 296.28 108.07 C 298.72 115.19 300.39 122.56 301.84 129.94 C 300.40 135.43 297.65 140.51 296.16 146.00 C 296.87 151.98 297.88 157.96 299.12 163.85 C 301.15 166.18 303.75 167.92 305.99 170.04 C 306.00 173.69 305.98 177.34 306.03 181.00 C 318.05 183.29 329.83 186.64 341.41 190.61 C 344.47 191.66 347.80 192.00 350.59 193.76 C 344.67 194.10 338.20 192.74 332.76 195.73 C 329.77 197.68 331.12 201.49 332.66 203.94 C 324.71 207.59 316.61 210.94 308.75 214.80 C 303.00 218.18 296.04 220.32 292.19 226.14 C 290.41 228.97 288.12 231.44 285.44 233.44 C 277.18 239.96 270.90 248.63 262.67 255.14 C 267.76 245.55 274.89 237.19 281.92 228.98 C 285.86 224.22 290.35 219.83 293.35 214.38 C 294.23 213.14 294.01 211.62 294.00 210.20 C 292.69 210.06 291.37 209.99 290.06 210.00 C 283.41 213.35 278.59 219.17 273.50 224.42 C 269.29 227.57 265.00 230.61 260.89 233.90 C 260.44 233.52 259.54 232.78 259.09 232.41 C 259.58 228.78 262.48 226.22 264.09 223.07 C 269.18 215.59 274.74 208.43 279.96 201.04 C 276.05 199.52 271.94 198.58 268.11 196.89 C 266.23 195.29 264.70 193.35 263.02 191.56 C 261.68 190.05 260.34 188.53 258.98 187.05 C 255.66 187.36 252.34 187.66 249.03 188.01 C 248.51 187.19 247.99 186.36 247.49 185.53 C 245.07 181.76 243.96 177.40 242.93 173.10 C 241.30 172.48 240.14 171.21 239.13 169.85 C 240.10 169.85 242.05 169.85 243.02 169.85 C 242.60 166.62 242.55 163.34 241.88 160.15 C 238.46 155.90 233.91 152.64 230.81 148.10 C 233.01 148.39 235.41 149.45 237.57 148.47 C 240.55 145.91 244.26 143.23 243.92 138.79 C 245.26 141.03 246.73 143.50 249.37 144.36 C 254.11 146.07 259.47 145.68 264.24 144.20 C 265.54 144.01 265.79 142.52 266.30 141.55 C 267.78 137.81 269.58 134.16 271.94 130.89 C 273.27 129.16 275.74 129.06 277.70 129.47 C 281.47 130.75 283.56 134.27 285.95 137.17 C 289.40 138.27 291.89 135.24 293.86 132.94 C 297.16 129.39 295.78 124.17 297.58 119.98 C 298.69 113.66 292.60 109.60 288.10 106.50 C 283.48 106.59 278.79 106.05 274.26 107.24 C 266.84 109.01 259.79 112.01 252.71 114.79 C 249.22 116.11 246.06 118.53 244.60 122.06 C 244.45 119.82 244.43 117.50 243.61 115.38 C 242.87 113.68 240.81 113.37 239.36 112.51 C 240.21 110.68 241.16 108.88 241.78 106.95 C 241.06 104.03 237.00 104.59 235.41 106.44 C 233.03 108.66 233.82 112.11 233.98 114.98 C 232.08 117.45 230.56 120.18 229.05 122.90 C 226.83 115.25 228.29 107.36 229.18 99.63 C 231.53 102.46 235.10 104.90 238.95 103.82 C 241.90 103.12 243.31 100.21 244.99 97.98 C 248.33 98.28 252.78 97.11 252.92 93.05 C 253.66 89.30 250.26 87.23 247.93 85.06 C 249.95 83.09 253.48 81.65 252.94 78.27 C 248.51 76.76 244.59 79.50 241.97 82.83 C 240.00 82.66 238.03 82.60 236.07 82.74 C 237.95 80.74 239.88 78.71 242.29 77.32 Z" />
<path fill="#c26430" opacity="1.00" d=" M 241.97 82.83 C 244.59 79.50 248.51 76.76 252.94 78.27 C 253.48 81.65 249.95 83.09 247.93 85.06 C 250.26 87.23 253.66 89.30 252.92 93.05 C 252.78 97.11 248.33 98.28 244.99 97.98 C 243.31 100.21 241.90 103.12 238.95 103.82 C 235.10 104.90 231.53 102.46 229.18 99.63 C 230.02 93.58 231.65 87.22 236.07 82.74 C 238.03 82.60 240.00 82.66 241.97 82.83 Z" />
<path fill="#c26430" opacity="1.00" d=" M 261.46 86.66 C 261.99 83.70 263.49 80.12 267.00 79.98 C 269.88 80.56 272.79 80.67 275.72 80.35 C 277.36 81.43 278.07 83.39 278.99 85.04 C 281.20 89.66 284.44 93.80 285.73 98.84 C 282.77 99.56 280.39 97.79 278.70 95.57 C 274.80 93.86 270.50 94.12 266.38 93.55 C 264.89 95.72 262.64 98.36 259.68 97.49 C 256.63 96.92 255.20 93.30 256.57 90.64 C 257.27 88.41 259.65 87.73 261.46 86.66 Z" />
<path fill="#c26430" opacity="1.00" d=" M 235.41 106.44 C 237.00 104.59 241.06 104.03 241.78 106.95 C 241.16 108.88 240.21 110.68 239.36 112.51 C 240.81 113.37 242.87 113.68 243.61 115.38 C 244.43 117.50 244.45 119.82 244.60 122.06 C 243.28 127.46 240.61 133.54 243.92 138.79 C 244.26 143.23 240.55 145.91 237.57 148.47 C 235.41 149.45 233.01 148.39 230.81 148.10 C 226.19 142.23 225.12 134.28 225.03 127.03 C 226.38 125.66 227.75 124.31 229.05 122.90 C 230.56 120.18 232.08 117.45 233.98 114.98 C 233.82 112.11 233.03 108.66 235.41 106.44 Z" />
<path fill="#f5e5c1" opacity="1.00" d=" M 274.26 107.24 C 278.79 106.05 283.48 106.59 288.10 106.50 C 292.60 109.60 298.69 113.66 297.58 119.98 C 295.78 124.17 297.16 129.39 293.86 132.94 C 291.89 135.24 289.40 138.27 285.95 137.17 C 283.56 134.27 281.47 130.75 277.70 129.47 C 275.74 129.06 273.27 129.16 271.94 130.89 C 269.58 134.16 267.78 137.81 266.30 141.55 C 265.79 142.52 265.54 144.01 264.24 144.20 C 259.47 145.68 254.11 146.07 249.37 144.36 C 246.73 143.50 245.26 141.03 243.92 138.79 C 240.61 133.54 243.28 127.46 244.60 122.06 C 246.06 118.53 249.22 116.11 252.71 114.79 C 259.79 112.01 266.84 109.01 274.26 107.24 Z" />
<path fill="#3e3e3e" opacity="1.00" d=" M 276.67 116.08 C 276.11 114.18 278.40 113.51 279.80 113.42 C 283.17 112.61 286.31 114.54 289.34 115.71 C 290.77 117.82 293.27 119.86 292.64 122.66 C 291.88 122.64 290.35 122.59 289.58 122.56 C 289.36 123.06 288.93 124.05 288.71 124.55 C 286.28 124.59 283.84 124.66 281.41 124.61 C 280.54 122.14 284.00 121.48 283.58 119.54 C 281.39 118.16 278.21 118.39 276.67 116.08 Z" />
<path fill="#3e3e3e" opacity="1.00" d=" M 252.40 124.54 C 256.64 121.75 260.07 117.66 265.03 116.06 C 268.08 114.50 272.11 118.17 270.36 121.34 C 268.26 122.11 266.05 122.01 264.08 120.96 C 263.02 121.52 262.01 122.14 261.03 122.82 C 262.07 124.25 263.57 124.88 265.28 124.92 C 265.32 129.12 259.06 129.78 255.86 130.33 C 255.52 129.76 254.84 128.60 254.50 128.03 C 252.43 128.69 250.56 130.69 248.26 129.42 C 248.36 127.00 250.83 125.94 252.40 124.54 Z" />
<path fill="#f5e5c1" opacity="1.00" d=" M 284.20 153.26 C 286.80 151.90 291.22 152.58 292.22 155.72 C 293.97 162.65 294.26 169.91 293.33 176.97 C 292.46 181.35 288.22 183.67 284.51 185.36 C 278.81 186.90 271.89 188.15 266.89 184.14 C 263.30 178.69 259.92 172.66 259.53 166.00 C 259.20 163.47 257.92 160.75 259.57 158.39 C 261.04 157.21 263.19 157.65 264.95 157.33 C 269.66 157.42 274.30 156.58 278.96 156.02 C 281.04 155.85 282.48 154.23 284.20 153.26 Z" />
<path fill="#3e3e3e" opacity="1.00" d=" M 272.09 165.09 C 275.00 162.05 278.27 157.73 283.03 158.61 C 286.91 162.07 289.06 167.28 288.80 172.47 C 284.90 172.62 281.95 176.34 277.91 175.57 C 274.32 174.81 270.63 174.67 267.08 173.75 C 267.04 170.15 270.26 167.86 272.09 165.09 Z" />
<path fill="#c26430" opacity="1.00" d=" M 168.48 168.39 C 174.92 166.89 181.44 165.44 188.05 164.99 C 197.86 165.38 207.53 167.42 217.34 167.83 C 212.56 171.15 207.99 174.78 203.80 178.83 C 202.18 180.54 200.28 182.45 200.29 184.98 C 199.78 188.32 202.60 190.63 204.32 193.10 C 202.98 196.28 199.23 198.26 199.16 201.94 C 198.91 203.30 200.02 204.23 200.81 205.15 C 206.72 211.24 209.86 219.32 215.03 225.97 C 216.86 228.75 219.80 231.36 219.60 234.97 C 219.31 238.77 221.21 242.27 221.24 246.05 C 221.69 250.42 219.98 254.73 220.83 259.08 C 221.83 265.15 220.09 271.47 222.12 277.40 C 222.46 289.95 223.57 302.46 224.31 315.00 C 224.50 319.32 225.65 323.51 226.67 327.69 C 228.33 334.89 231.78 343.70 225.99 349.99 C 228.32 349.49 230.96 348.32 233.19 349.77 C 238.83 352.71 239.66 361.71 234.73 365.65 C 230.92 367.36 226.85 365.60 224.61 362.34 C 223.68 362.96 222.75 363.58 221.83 364.22 C 219.02 363.32 218.08 360.37 217.05 357.93 C 215.64 354.63 215.00 351.09 214.14 347.62 C 211.94 349.72 210.08 353.73 206.39 352.62 C 203.09 351.18 203.16 345.83 206.30 344.22 C 208.46 342.59 211.21 343.00 213.70 343.43 C 213.71 341.74 213.73 340.06 213.75 338.38 C 210.45 338.03 206.48 337.67 204.68 334.40 C 201.71 330.15 203.72 324.93 204.12 320.26 C 201.04 322.33 197.11 322.51 193.60 321.64 C 190.34 317.60 186.69 313.27 186.14 307.90 C 186.40 303.89 190.75 301.32 190.10 297.11 C 186.84 298.27 183.88 296.61 181.10 295.09 C 180.02 295.50 178.94 295.92 177.86 296.34 C 175.85 293.86 174.19 291.04 173.22 288.01 C 172.73 282.78 173.59 277.49 172.60 272.30 C 171.77 268.33 171.92 264.11 173.35 260.30 C 174.40 259.11 176.14 258.91 177.52 258.24 C 177.64 255.59 177.31 252.94 177.36 250.29 C 177.74 248.11 180.08 247.52 181.71 246.55 C 180.76 244.77 179.71 243.04 178.59 241.36 C 175.85 241.62 173.16 242.32 170.90 243.96 C 168.39 245.89 165.17 245.33 162.26 245.11 C 160.07 249.17 157.16 252.70 153.42 255.40 C 151.87 259.07 149.90 262.54 148.24 266.14 C 147.73 273.20 147.75 280.31 147.43 287.39 C 145.76 292.92 141.39 296.96 138.21 301.62 C 137.53 294.34 139.93 287.17 138.92 279.86 C 136.65 280.86 134.07 281.48 132.21 283.19 C 131.44 288.91 132.37 294.72 131.56 300.45 C 130.93 304.66 131.06 308.93 131.04 313.18 C 129.28 317.19 127.41 321.14 125.32 324.99 C 126.90 336.91 126.50 348.98 126.45 360.98 C 126.48 365.03 125.74 369.03 125.52 373.07 C 125.05 371.26 124.63 369.43 124.63 367.56 C 124.45 355.72 124.52 343.87 124.51 332.02 C 124.39 330.33 124.79 328.39 123.59 326.99 C 124.25 321.33 123.96 315.62 124.03 309.94 C 123.88 307.90 124.36 305.40 122.48 304.04 C 120.84 307.98 118.13 311.44 116.58 315.36 C 117.36 321.48 116.26 327.82 118.03 333.80 C 116.81 335.16 114.86 336.14 114.43 338.02 C 114.25 342.18 114.93 346.31 115.38 350.43 C 115.95 356.59 115.48 362.79 115.82 368.96 C 116.49 369.82 117.15 370.72 117.69 371.68 C 116.13 371.54 115.22 372.22 114.97 373.71 C 114.84 371.50 114.57 369.30 113.92 367.19 C 113.35 357.78 112.64 348.39 112.35 338.97 C 111.20 332.91 112.35 326.77 111.87 320.68 C 109.50 320.28 106.56 319.71 105.93 316.96 C 107.09 312.17 110.36 308.18 113.80 304.77 C 115.21 303.46 115.72 301.55 116.38 299.82 C 113.94 299.37 111.46 299.13 108.99 298.96 C 105.23 302.35 101.87 306.71 96.40 307.16 C 95.70 311.83 94.20 317.57 88.88 318.77 C 84.00 318.89 79.42 320.70 75.39 323.37 C 70.32 327.36 66.04 332.66 59.87 335.04 C 57.57 336.05 55.62 333.92 53.77 332.89 C 54.66 330.40 56.07 328.13 56.65 325.54 C 57.31 324.29 58.16 323.14 59.16 322.13 C 65.55 316.01 71.49 309.45 77.65 303.11 C 83.93 296.62 89.95 289.83 96.78 283.89 C 103.03 278.34 107.94 271.52 113.25 265.12 C 119.85 257.35 125.43 248.79 131.73 240.77 C 137.14 233.92 140.75 225.85 146.24 219.06 C 148.33 216.43 150.44 213.80 151.97 210.79 C 158.79 197.24 165.32 183.32 168.48 168.39 Z" />
<path fill="#f4722b" opacity="1.00" d=" M 217.34 167.83 C 223.97 167.32 230.90 167.04 237.20 169.55 C 238.86 170.71 240.18 172.27 241.60 173.70 C 241.51 175.51 241.44 177.33 241.31 179.14 C 240.10 181.84 237.09 183.72 237.49 187.01 C 236.56 191.38 238.97 195.65 237.84 199.97 C 236.53 206.79 235.53 213.73 233.22 220.32 C 232.09 223.50 229.27 225.61 227.54 228.42 C 226.60 230.94 226.33 233.67 225.51 236.20 C 226.23 237.07 226.90 237.99 227.52 238.94 C 227.93 241.56 224.53 242.49 224.55 244.96 C 224.15 248.66 224.39 252.40 223.99 256.10 C 222.98 263.15 222.59 270.29 222.12 277.40 C 220.09 271.47 221.83 265.15 220.83 259.08 C 219.98 254.73 221.69 250.42 221.24 246.05 C 221.21 242.27 219.31 238.77 219.60 234.97 C 219.80 231.36 216.86 228.75 215.03 225.97 C 209.86 219.32 206.72 211.24 200.81 205.15 C 200.02 204.23 198.91 203.30 199.16 201.94 C 199.23 198.26 202.98 196.28 204.32 193.10 C 202.60 190.63 199.78 188.32 200.29 184.98 C 200.28 182.45 202.18 180.54 203.80 178.83 C 207.99 174.78 212.56 171.15 217.34 167.83 Z" />
<path fill="#f5e5c1" opacity="1.00" d=" M 241.31 179.14 C 242.11 177.21 242.58 175.16 242.93 173.10 C 243.96 177.40 245.07 181.76 247.49 185.53 C 246.14 187.86 244.87 190.35 244.70 193.09 C 244.97 195.37 245.82 197.55 245.91 199.86 C 243.63 202.07 243.57 205.39 242.39 208.17 C 239.07 215.74 235.07 223.03 232.45 230.89 C 229.55 239.27 226.26 247.52 223.99 256.10 C 224.39 252.40 224.15 248.66 224.55 244.96 C 224.53 242.49 227.93 241.56 227.52 238.94 C 226.90 237.99 226.23 237.07 225.51 236.20 C 226.33 233.67 226.60 230.94 227.54 228.42 C 229.27 225.61 232.09 223.50 233.22 220.32 C 235.53 213.73 236.53 206.79 237.84 199.97 C 238.97 195.65 236.56 191.38 237.49 187.01 C 237.09 183.72 240.10 181.84 241.31 179.14 Z" />
<path fill="#3e3e3e" opacity="1.00" d=" M 247.49 185.53 C 247.99 186.36 248.51 187.19 249.03 188.01 C 252.34 187.66 255.66 187.36 258.98 187.05 C 260.34 188.53 261.68 190.05 263.02 191.56 C 261.28 196.47 257.14 199.97 254.00 203.96 C 252.68 207.63 251.39 211.34 250.44 215.12 C 251.32 222.10 249.91 229.07 249.71 236.05 C 249.29 242.15 249.75 248.30 248.84 254.36 C 246.15 259.68 243.33 264.96 241.22 270.54 C 237.77 278.79 235.48 287.46 233.63 296.20 C 232.57 300.74 233.06 305.50 231.61 309.97 C 229.86 315.84 229.02 322.01 226.67 327.69 C 225.65 323.51 224.50 319.32 224.31 315.00 C 223.57 302.46 222.46 289.95 222.12 277.40 C 222.59 270.29 222.98 263.15 223.99 256.10 C 226.26 247.52 229.55 239.27 232.45 230.89 C 235.07 223.03 239.07 215.74 242.39 208.17 C 243.57 205.39 243.63 202.07 245.91 199.86 C 245.82 197.55 244.97 195.37 244.70 193.09 C 244.87 190.35 246.14 187.86 247.49 185.53 Z" />
<path fill="#f5e5c1" opacity="1.00" d=" M 263.02 191.56 C 264.70 193.35 266.23 195.29 268.11 196.89 C 271.94 198.58 276.05 199.52 279.96 201.04 C 274.74 208.43 269.18 215.59 264.09 223.07 C 262.48 226.22 259.58 228.78 259.09 232.41 C 259.54 232.78 260.44 233.52 260.89 233.90 C 257.95 236.56 256.22 240.23 254.18 243.56 C 253.05 247.47 250.35 250.61 248.84 254.36 C 249.75 248.30 249.29 242.15 249.71 236.05 C 249.91 229.07 251.32 222.10 250.44 215.12 C 251.39 211.34 252.68 207.63 254.00 203.96 C 257.14 199.97 261.28 196.47 263.02 191.56 Z" />
<path fill="#c26430" opacity="1.00" d=" M 332.76 195.73 C 338.20 192.74 344.67 194.10 350.59 193.76 C 360.44 199.82 372.20 201.74 381.90 208.07 C 383.14 209.32 383.55 211.13 384.30 212.69 C 390.19 227.46 397.38 241.66 403.69 256.25 C 407.63 266.80 410.91 277.59 415.10 288.05 C 417.96 296.16 422.53 303.62 424.45 312.06 C 423.99 317.23 421.99 322.13 421.07 327.24 C 416.28 327.13 412.66 323.42 407.97 322.90 C 402.74 322.00 397.51 320.45 392.15 321.10 C 390.90 322.90 389.90 325.98 387.10 325.20 C 383.10 324.67 377.53 324.38 376.01 319.84 C 376.23 318.07 377.78 316.93 378.82 315.61 C 376.62 311.50 373.92 307.63 372.61 303.11 C 369.81 302.91 367.11 304.51 364.36 303.86 C 362.73 302.27 361.30 300.50 359.78 298.82 C 358.43 296.32 357.13 293.81 356.08 291.17 C 355.29 287.78 354.70 284.24 352.80 281.24 C 351.40 278.74 349.35 276.13 350.15 273.08 C 350.27 271.45 352.31 270.34 353.70 271.35 C 358.04 273.17 361.58 277.09 366.55 277.14 C 366.29 275.45 366.11 273.75 365.99 272.06 C 367.06 271.89 368.21 271.13 369.31 271.64 C 371.96 272.30 370.98 276.80 373.84 276.94 C 376.16 276.19 378.38 274.37 380.95 275.10 C 384.59 276.05 386.39 279.85 389.78 281.30 C 391.97 282.13 393.13 284.19 394.30 286.08 C 395.11 285.31 395.92 284.54 396.75 283.77 C 394.39 277.83 392.38 271.76 390.35 265.71 C 388.18 262.62 384.52 260.79 382.46 257.54 C 380.28 254.05 375.95 253.35 372.35 252.15 C 371.54 253.17 370.73 254.19 369.93 255.21 C 368.16 253.57 366.51 251.82 364.77 250.16 C 362.84 248.18 360.04 247.60 357.70 246.29 C 356.74 243.68 356.99 240.45 354.52 238.61 C 349.09 233.13 338.53 239.75 340.75 247.01 C 341.32 248.70 339.74 249.73 338.78 250.80 C 336.36 250.38 333.12 248.84 331.30 251.29 C 329.28 256.81 335.60 260.82 336.05 265.96 C 335.55 269.72 334.53 273.38 333.71 277.08 C 332.00 276.54 330.30 275.98 328.60 275.41 C 327.97 277.23 327.39 279.07 326.88 280.93 C 329.01 283.75 332.17 288.57 328.22 291.28 C 324.49 292.95 319.72 294.60 315.98 292.07 C 313.51 290.22 313.57 286.93 313.33 284.17 C 312.66 282.46 310.95 281.41 309.75 280.09 C 306.68 281.95 304.99 285.16 303.14 288.11 C 300.40 292.43 295.23 294.26 292.22 298.33 C 289.68 301.42 287.74 305.06 284.64 307.66 C 282.84 309.19 280.32 308.90 278.13 309.20 C 275.72 312.78 273.96 316.87 273.26 321.14 C 272.56 325.18 277.62 325.42 279.62 327.88 C 284.04 323.40 285.70 315.10 292.95 314.09 C 298.15 314.32 304.58 313.29 308.43 317.67 C 310.99 320.01 312.14 323.54 312.02 326.95 C 311.75 332.89 313.16 339.43 309.51 344.63 C 311.04 347.72 311.78 351.34 310.56 354.67 C 309.13 357.20 305.56 358.61 302.91 357.10 C 299.48 355.98 297.71 352.38 297.35 349.01 C 297.36 346.99 298.67 345.29 299.54 343.56 C 298.31 340.83 297.30 338.00 296.01 335.29 C 293.07 336.53 292.29 340.06 289.68 341.67 C 286.81 342.67 283.04 342.62 281.02 340.02 C 279.02 338.07 279.08 335.12 278.49 332.61 C 275.83 333.06 273.24 332.41 270.89 331.18 C 267.06 334.18 262.95 337.20 260.61 341.58 C 259.66 345.22 258.94 348.97 258.57 352.71 C 259.65 357.06 264.84 358.67 266.21 362.89 C 267.69 367.07 268.86 372.21 266.03 376.11 C 264.40 378.91 260.22 378.87 257.80 377.17 C 255.47 374.61 255.51 370.60 252.76 368.33 C 250.11 366.03 248.59 362.85 247.41 359.62 C 246.32 355.82 241.93 353.30 242.97 348.92 C 243.22 344.68 247.24 342.63 250.88 341.76 C 247.63 336.79 242.22 333.23 240.61 327.31 C 239.24 329.04 237.95 330.90 236.16 332.22 C 233.36 334.10 228.44 332.75 228.11 329.05 C 228.36 326.43 231.52 325.57 232.18 323.12 C 232.94 320.87 234.42 317.78 237.32 318.59 C 240.32 319.18 239.88 322.73 240.37 325.01 C 241.27 322.54 242.21 319.98 244.18 318.16 C 247.42 315.08 249.43 310.38 253.98 308.97 C 256.10 308.05 258.90 308.17 260.31 306.07 C 258.42 303.82 255.87 301.79 255.34 298.74 C 254.95 296.37 254.91 293.96 254.72 291.57 C 252.73 290.63 250.17 290.21 249.12 288.04 C 247.75 285.75 246.12 283.63 244.46 281.55 C 241.97 278.42 242.14 274.24 241.22 270.54 C 243.33 264.96 246.15 259.68 248.84 254.36 C 250.35 250.61 253.05 247.47 254.18 243.56 C 256.22 240.23 257.95 236.56 260.89 233.90 C 265.00 230.61 269.29 227.57 273.50 224.42 C 278.59 219.17 283.41 213.35 290.06 210.00 C 291.37 209.99 292.69 210.06 294.00 210.20 C 294.01 211.62 294.23 213.14 293.35 214.38 C 290.35 219.83 285.86 224.22 281.92 228.98 C 274.89 237.19 267.76 245.55 262.67 255.14 C 270.90 248.63 277.18 239.96 285.44 233.44 C 288.12 231.44 290.41 228.97 292.19 226.14 C 296.04 220.32 303.00 218.18 308.75 214.80 C 316.61 210.94 324.71 207.59 332.66 203.94 C 331.12 201.49 329.77 197.68 332.76 195.73 Z" />
<path fill="#f4722b" opacity="1.00" d=" M 340.75 247.01 C 338.53 239.75 349.09 233.13 354.52 238.61 C 356.99 240.45 356.74 243.68 357.70 246.29 C 360.04 247.60 362.84 248.18 364.77 250.16 C 366.51 251.82 368.16 253.57 369.93 255.21 C 370.73 254.19 371.54 253.17 372.35 252.15 C 375.95 253.35 380.28 254.05 382.46 257.54 C 384.52 260.79 388.18 262.62 390.35 265.71 C 392.38 271.76 394.39 277.83 396.75 283.77 C 395.92 284.54 395.11 285.31 394.30 286.08 C 393.13 284.19 391.97 282.13 389.78 281.30 C 386.39 279.85 384.59 276.05 380.95 275.10 C 378.38 274.37 376.16 276.19 373.84 276.94 C 370.98 276.80 371.96 272.30 369.31 271.64 C 368.21 271.13 367.06 271.89 365.99 272.06 C 366.11 273.75 366.29 275.45 366.55 277.14 C 361.58 277.09 358.04 273.17 353.70 271.35 C 352.31 270.34 350.27 271.45 350.15 273.08 C 349.35 276.13 351.40 278.74 352.80 281.24 C 354.70 284.24 355.29 287.78 356.08 291.17 C 355.47 289.99 354.74 288.89 353.90 287.86 C 347.02 312.54 340.74 337.39 334.00 362.11 C 332.54 366.63 333.26 371.48 331.98 376.05 C 330.67 380.34 332.80 384.53 332.93 388.83 C 331.14 388.24 328.89 387.77 327.69 389.68 C 326.09 393.05 326.40 396.96 325.94 400.60 C 322.99 401.47 320.09 402.49 317.24 403.64 C 315.71 402.18 314.28 400.61 312.61 399.32 C 310.57 398.91 308.48 398.96 306.41 398.83 C 304.01 394.30 300.25 390.64 298.01 386.02 C 298.86 383.80 302.06 383.31 303.03 381.00 C 305.61 375.33 302.74 369.21 302.87 363.34 C 304.84 363.57 307.31 364.79 308.85 362.90 C 310.11 362.03 309.92 360.45 310.12 359.13 C 307.23 358.10 304.66 359.23 302.83 361.52 C 301.19 359.72 297.67 358.68 296.36 361.36 C 294.88 366.79 297.78 372.19 296.89 377.67 C 294.00 379.96 290.88 381.91 287.70 383.77 C 284.62 385.51 284.39 389.62 285.44 392.62 C 287.22 395.02 289.36 397.60 292.31 398.53 C 293.94 398.42 295.45 397.70 297.00 397.23 C 298.65 399.25 300.84 401.81 299.59 404.60 C 298.32 408.09 296.96 412.28 299.28 415.66 C 300.48 417.71 303.12 416.18 304.95 416.15 C 304.74 418.52 304.66 421.13 303.12 423.09 C 301.74 424.12 299.93 424.61 298.84 425.98 C 298.50 427.20 298.54 428.49 298.49 429.75 C 297.67 430.50 296.85 431.25 295.99 431.96 C 292.57 433.48 288.74 433.86 285.07 434.36 C 280.02 434.23 275.14 435.82 270.09 435.75 C 260.04 435.99 249.87 436.35 239.93 434.53 C 217.86 432.01 196.17 425.90 176.21 416.10 C 176.59 414.43 177.03 412.74 176.76 411.03 C 175.87 403.69 174.88 396.37 174.02 389.04 C 176.91 385.30 180.05 381.76 182.95 378.03 C 181.08 374.28 178.92 370.70 177.03 366.97 C 178.78 361.75 180.73 356.62 182.50 351.41 C 183.07 349.94 182.79 348.37 182.62 346.87 C 181.28 337.20 180.04 327.53 178.76 317.86 C 177.72 306.68 173.19 296.17 172.09 285.00 C 170.22 279.45 170.85 273.52 169.44 267.89 C 168.83 265.25 168.69 262.54 168.59 259.85 C 165.31 262.83 162.24 266.06 159.38 269.44 C 156.22 273.12 155.50 278.52 151.38 281.40 C 149.34 282.83 148.35 285.17 147.43 287.39 C 147.75 280.31 147.73 273.20 148.24 266.14 C 149.90 262.54 151.87 259.07 153.42 255.40 C 157.16 252.70 160.07 249.17 162.26 245.11 C 165.17 245.33 168.39 245.89 170.90 243.96 C 173.16 242.32 175.85 241.62 178.59 241.36 C 179.71 243.04 180.76 244.77 181.71 246.55 C 180.08 247.52 177.74 248.11 177.36 250.29 C 177.31 252.94 177.64 255.59 177.52 258.24 C 176.14 258.91 174.40 259.11 173.35 260.30 C 171.92 264.11 171.77 268.33 172.60 272.30 C 173.59 277.49 172.73 282.78 173.22 288.01 C 174.19 291.04 175.85 293.86 177.86 296.34 C 178.94 295.92 180.02 295.50 181.10 295.09 C 183.88 296.61 186.84 298.27 190.10 297.11 C 190.75 301.32 186.40 303.89 186.14 307.90 C 186.69 313.27 190.34 317.60 193.60 321.64 C 197.11 322.51 201.04 322.33 204.12 320.26 C 203.72 324.93 201.71 330.15 204.68 334.40 C 206.48 337.67 210.45 338.03 213.75 338.38 C 213.73 340.06 213.71 341.74 213.70 343.43 C 211.21 343.00 208.46 342.59 206.30 344.22 C 203.16 345.83 203.09 351.18 206.39 352.62 C 210.08 353.73 211.94 349.72 214.14 347.62 C 215.00 351.09 215.64 354.63 217.05 357.93 C 218.08 360.37 219.02 363.32 221.83 364.22 C 222.75 363.58 223.68 362.96 224.61 362.34 C 226.85 365.60 230.92 367.36 234.73 365.65 C 239.66 361.71 238.83 352.71 233.19 349.77 C 230.96 348.32 228.32 349.49 225.99 349.99 C 231.78 343.70 228.33 334.89 226.67 327.69 C 229.02 322.01 229.86 315.84 231.61 309.97 C 233.06 305.50 232.57 300.74 233.63 296.20 C 235.48 287.46 237.77 278.79 241.22 270.54 C 242.14 274.24 241.97 278.42 244.46 281.55 C 246.12 283.63 247.75 285.75 249.12 288.04 C 250.17 290.21 252.73 290.63 254.72 291.57 C 254.91 293.96 254.95 296.37 255.34 298.74 C 255.87 301.79 258.42 303.82 260.31 306.07 C 258.90 308.17 256.10 308.05 253.98 308.97 C 249.43 310.38 247.42 315.08 244.18 318.16 C 242.21 319.98 241.27 322.54 240.37 325.01 C 239.88 322.73 240.32 319.18 237.32 318.59 C 234.42 317.78 232.94 320.87 232.18 323.12 C 231.52 325.57 228.36 326.43 228.11 329.05 C 228.44 332.75 233.36 334.10 236.16 332.22 C 237.95 330.90 239.24 329.04 240.61 327.31 C 242.22 333.23 247.63 336.79 250.88 341.76 C 247.24 342.63 243.22 344.68 242.97 348.92 C 241.93 353.30 246.32 355.82 247.41 359.62 C 248.59 362.85 250.11 366.03 252.76 368.33 C 255.51 370.60 255.47 374.61 257.80 377.17 C 260.22 378.87 264.40 378.91 266.03 376.11 C 268.86 372.21 267.69 367.07 266.21 362.89 C 264.84 358.67 259.65 357.06 258.57 352.71 C 258.94 348.97 259.66 345.22 260.61 341.58 C 262.95 337.20 267.06 334.18 270.89 331.18 C 273.24 332.41 275.83 333.06 278.49 332.61 C 279.08 335.12 279.02 338.07 281.02 340.02 C 283.04 342.62 286.81 342.67 289.68 341.67 C 292.29 340.06 293.07 336.53 296.01 335.29 C 297.30 338.00 298.31 340.83 299.54 343.56 C 298.67 345.29 297.36 346.99 297.35 349.01 C 297.71 352.38 299.48 355.98 302.91 357.10 C 305.56 358.61 309.13 357.20 310.56 354.67 C 311.78 351.34 311.04 347.72 309.51 344.63 C 313.16 339.43 311.75 332.89 312.02 326.95 C 312.14 323.54 310.99 320.01 308.43 317.67 C 304.58 313.29 298.15 314.32 292.95 314.09 C 285.70 315.10 284.04 323.40 279.62 327.88 C 277.62 325.42 272.56 325.18 273.26 321.14 C 273.96 316.87 275.72 312.78 278.13 309.20 C 280.32 308.90 282.84 309.19 284.64 307.66 C 287.74 305.06 289.68 301.42 292.22 298.33 C 295.23 294.26 300.40 292.43 303.14 288.11 C 304.99 285.16 306.68 281.95 309.75 280.09 C 310.95 281.41 312.66 282.46 313.33 284.17 C 313.57 286.93 313.51 290.22 315.98 292.07 C 319.72 294.60 324.49 292.95 328.22 291.28 C 332.17 288.57 329.01 283.75 326.88 280.93 C 327.39 279.07 327.97 277.23 328.60 275.41 C 330.30 275.98 332.00 276.54 333.71 277.08 C 334.53 273.38 335.55 269.72 336.05 265.96 C 335.60 260.82 329.28 256.81 331.30 251.29 C 333.12 248.84 336.36 250.38 338.78 250.80 C 339.74 249.73 341.32 248.70 340.75 247.01 Z" />
<path fill="#c7bba0" opacity="1.00" d=" M 159.38 269.44 C 162.24 266.06 165.31 262.83 168.59 259.85 C 168.69 262.54 168.83 265.25 169.44 267.89 C 170.85 273.52 170.22 279.45 172.09 285.00 C 173.19 296.17 177.72 306.68 178.76 317.86 C 180.04 327.53 181.28 337.20 182.62 346.87 C 182.79 348.37 183.07 349.94 182.50 351.41 C 180.73 356.62 178.78 361.75 177.03 366.97 C 178.92 370.70 181.08 374.28 182.95 378.03 C 180.05 381.76 176.91 385.30 174.02 389.04 C 174.88 396.37 175.87 403.69 176.76 411.03 C 177.03 412.74 176.59 414.43 176.21 416.10 C 164.92 410.37 153.95 403.90 144.01 396.02 C 142.34 394.65 140.52 393.47 138.60 392.49 C 138.17 397.42 138.67 402.36 138.27 407.29 C 137.54 399.53 137.36 391.76 137.40 383.98 C 135.59 365.05 137.11 345.99 136.09 327.02 C 135.53 322.93 135.76 318.81 135.66 314.70 C 134.99 318.07 134.68 321.51 134.67 324.95 C 134.55 339.97 134.47 354.99 134.55 370.01 C 134.37 376.42 135.83 382.74 135.51 389.16 C 132.82 386.98 130.31 384.58 127.69 382.31 C 126.77 382.29 125.85 382.23 124.94 382.24 C 124.28 377.71 120.41 374.98 117.69 371.68 C 117.15 370.72 116.49 369.82 115.82 368.96 C 115.48 362.79 115.95 356.59 115.38 350.43 C 114.93 346.31 114.25 342.18 114.43 338.02 C 114.86 336.14 116.81 335.16 118.03 333.80 C 120.26 331.87 121.99 329.45 123.59 326.99 C 124.79 328.39 124.39 330.33 124.51 332.02 C 124.52 343.87 124.45 355.72 124.63 367.56 C 124.63 369.43 125.05 371.26 125.52 373.07 C 125.74 369.03 126.48 365.03 126.45 360.98 C 126.50 348.98 126.90 336.91 125.32 324.99 C 127.41 321.14 129.28 317.19 131.04 313.18 C 133.48 309.36 135.78 305.45 138.21 301.62 C 141.39 296.96 145.76 292.92 147.43 287.39 C 148.35 285.17 149.34 282.83 151.38 281.40 C 155.50 278.52 156.22 273.12 159.38 269.44 Z" />
<path fill="#f4722b" opacity="1.00" d=" M 132.21 283.19 C 134.07 281.48 136.65 280.86 138.92 279.86 C 139.93 287.17 137.53 294.34 138.21 301.62 C 135.78 305.45 133.48 309.36 131.04 313.18 C 131.06 308.93 130.93 304.66 131.56 300.45 C 132.37 294.72 131.44 288.91 132.21 283.19 Z" />
<path fill="#c7bba0" opacity="1.00" d=" M 353.90 287.86 C 354.74 288.89 355.47 289.99 356.08 291.17 C 357.13 293.81 358.43 296.32 359.78 298.82 C 363.47 307.06 368.17 314.81 371.97 323.00 C 369.14 326.80 365.77 330.18 363.12 334.10 C 360.10 340.62 358.95 347.96 355.13 354.13 C 351.74 359.84 349.42 366.15 345.34 371.45 C 343.59 373.50 344.58 376.32 345.36 378.58 C 348.63 378.55 351.94 378.74 355.18 378.14 C 356.77 377.01 357.69 375.20 358.79 373.64 C 357.88 383.77 359.02 393.89 359.71 403.98 L 361.24 404.57 C 361.75 399.02 360.54 393.51 360.65 387.96 C 360.46 382.84 361.35 377.77 361.62 372.68 C 363.17 372.74 364.72 372.81 366.27 372.89 C 365.46 383.46 365.62 394.08 365.62 404.68 C 353.81 410.99 342.42 418.42 329.51 422.38 C 329.55 421.89 329.61 420.90 329.64 420.41 C 331.63 419.81 333.61 419.17 335.51 418.32 C 334.56 414.48 334.52 410.50 333.93 406.61 C 333.41 400.69 334.08 394.69 332.93 388.83 C 332.80 384.53 330.67 380.34 331.98 376.05 C 333.26 371.48 332.54 366.63 334.00 362.11 C 340.74 337.39 347.02 312.54 353.90 287.86 Z" />
<path fill="#f4722b" opacity="1.00" d=" M 122.38 291.35 C 124.06 291.58 122.84 295.34 121.22 294.67 C 120.60 293.53 121.47 292.06 122.38 291.35 Z" />
<path fill="#c26430" opacity="1.00" d=" M 149.94 291.51 L 151.70 290.76 C 149.68 312.83 152.15 335.09 149.49 357.11 C 147.75 346.18 148.67 335.04 148.03 324.04 C 147.17 317.70 148.43 311.37 148.34 305.03 C 148.23 300.45 149.50 296.03 149.94 291.51 Z" />
<path fill="#f4722b" opacity="1.00" d=" M 96.40 307.16 C 101.87 306.71 105.23 302.35 108.99 298.96 C 111.46 299.13 113.94 299.37 116.38 299.82 C 115.72 301.55 115.21 303.46 113.80 304.77 C 110.36 308.18 107.09 312.17 105.93 316.96 C 106.56 319.71 109.50 320.28 111.87 320.68 C 112.35 326.77 111.20 332.91 112.35 338.97 C 108.72 343.05 105.45 347.41 101.16 350.83 C 101.00 351.02 100.69 351.40 100.53 351.59 C 99.64 352.69 98.46 353.68 98.15 355.14 C 96.10 361.77 96.62 368.83 97.60 375.59 C 97.25 378.88 96.50 382.12 95.93 385.38 C 94.72 390.78 97.41 396.17 96.42 401.56 C 96.02 403.57 93.74 404.20 91.99 403.63 C 85.95 400.82 83.06 394.33 81.69 388.15 C 81.02 390.28 79.03 391.80 78.89 394.14 C 78.71 398.96 78.31 403.97 76.36 408.41 C 73.36 410.25 69.71 408.74 66.54 408.27 C 61.29 405.54 60.28 399.21 57.44 394.56 C 54.62 390.11 53.53 384.90 52.23 379.87 C 51.82 377.58 49.75 376.13 49.08 373.96 C 47.89 368.04 49.32 362.02 49.33 356.07 C 49.55 352.28 49.06 348.09 51.69 344.99 C 51.56 343.03 51.30 341.07 51.25 339.11 C 52.36 337.12 54.10 335.37 53.77 332.89 C 55.62 333.92 57.57 336.05 59.87 335.04 C 66.04 332.66 70.32 327.36 75.39 323.37 C 79.42 320.70 84.00 318.89 88.88 318.77 C 94.20 317.57 95.70 311.83 96.40 307.16 Z" />
<path fill="#f4722b" opacity="1.00" d=" M 359.78 298.82 C 361.30 300.50 362.73 302.27 364.36 303.86 C 367.11 304.51 369.81 302.91 372.61 303.11 C 373.92 307.63 376.62 311.50 378.82 315.61 C 377.78 316.93 376.23 318.07 376.01 319.84 C 377.53 324.38 383.10 324.67 387.10 325.20 C 389.90 325.98 390.90 322.90 392.15 321.10 C 397.51 320.45 402.74 322.00 407.97 322.90 C 412.66 323.42 416.28 327.13 421.07 327.24 C 420.64 329.37 420.19 331.50 419.53 333.58 C 418.37 334.62 417.26 335.70 416.22 336.85 C 413.88 333.83 410.03 333.29 406.55 332.48 C 405.41 332.05 404.35 332.69 403.32 333.07 C 403.13 334.62 402.94 336.18 402.75 337.75 C 398.68 339.13 394.43 339.72 390.21 340.41 C 388.38 340.62 387.08 342.08 386.88 343.88 C 393.34 346.62 400.08 343.17 406.31 341.39 C 409.12 341.03 411.91 342.07 414.69 342.39 C 414.11 349.92 412.49 357.36 412.62 364.94 C 412.68 368.97 412.40 373.00 411.74 376.98 C 408.46 380.64 405.07 384.21 401.51 387.60 C 395.42 392.16 389.51 396.97 383.19 401.22 C 380.07 404.11 374.64 402.93 372.23 399.64 C 370.73 394.26 368.93 388.72 370.07 383.08 C 370.18 380.07 371.99 376.42 369.57 373.93 C 371.97 371.30 375.06 369.50 378.34 368.17 C 380.54 367.50 381.06 365.09 382.06 363.30 C 383.73 364.55 385.80 364.57 387.80 364.47 C 388.34 362.43 388.84 360.39 389.32 358.34 C 391.30 357.83 393.97 357.80 394.43 355.27 C 396.07 352.82 393.68 350.05 391.11 349.98 C 385.34 349.64 380.10 352.54 375.19 355.19 C 373.57 354.31 372.03 352.61 370.01 353.03 C 366.75 353.62 363.46 354.00 360.16 354.34 C 357.70 354.76 357.60 357.96 358.10 359.88 C 360.01 363.68 363.07 366.74 365.57 370.14 C 365.66 370.32 365.84 370.66 365.94 370.83 C 366.02 371.35 366.19 372.37 366.27 372.89 C 364.72 372.81 363.17 372.74 361.62 372.68 C 361.54 370.37 361.22 368.07 360.82 365.80 C 359.13 368.01 359.51 371.06 358.79 373.64 C 357.69 375.20 356.77 377.01 355.18 378.14 C 351.94 378.74 348.63 378.55 345.36 378.58 C 344.58 376.32 343.59 373.50 345.34 371.45 C 349.42 366.15 351.74 359.84 355.13 354.13 C 358.95 347.96 360.10 340.62 363.12 334.10 C 365.77 330.18 369.14 326.80 371.97 323.00 C 368.17 314.81 363.47 307.06 359.78 298.82 Z" />
<path fill="#f4722b" opacity="1.00" d=" M 122.48 304.04 C 124.36 305.40 123.88 307.90 124.03 309.94 C 123.96 315.62 124.25 321.33 123.59 326.99 C 121.99 329.45 120.26 331.87 118.03 333.80 C 116.26 327.82 117.36 321.48 116.58 315.36 C 118.13 311.44 120.84 307.98 122.48 304.04 Z" />
<path fill="#c26430" opacity="1.00" d=" M 134.67 324.95 C 134.68 321.51 134.99 318.07 135.66 314.70 C 135.76 318.81 135.53 322.93 136.09 327.02 C 137.11 345.99 135.59 365.05 137.40 383.98 C 137.36 391.76 137.54 399.53 138.27 407.29 C 138.39 411.54 138.22 415.82 138.70 420.06 C 138.74 421.26 140.04 421.75 140.80 422.48 L 139.06 422.16 C 139.45 433.74 138.94 445.35 139.62 456.93 C 138.54 451.37 139.27 445.61 137.89 440.11 C 137.51 433.53 137.86 426.92 137.47 420.34 C 136.51 414.27 136.64 408.15 136.44 402.03 C 135.74 397.77 135.44 393.48 135.51 389.16 C 135.83 382.74 134.37 376.42 134.55 370.01 C 134.47 354.99 134.55 339.97 134.67 324.95 Z" />
<path fill="#c26430" opacity="1.00" d=" M 403.32 333.07 C 404.35 332.69 405.41 332.05 406.55 332.48 C 410.03 333.29 413.88 333.83 416.22 336.85 C 417.26 335.70 418.37 334.62 419.53 333.58 C 417.68 340.39 416.01 347.32 416.69 354.45 C 416.23 362.60 417.04 370.80 416.15 378.94 C 415.60 384.28 415.62 389.66 415.35 395.02 C 415.17 399.02 414.77 403.01 414.82 407.02 C 414.95 418.40 413.20 429.69 412.83 441.05 C 412.65 447.37 412.07 453.69 411.90 460.02 C 411.80 467.34 412.08 474.68 411.58 482.00 C 411.58 485.57 408.70 488.36 409.34 492.05 C 408.18 493.87 407.26 497.83 404.35 496.58 C 402.65 494.26 400.29 491.11 402.08 488.23 C 403.48 485.81 406.40 486.64 408.68 486.77 C 406.96 483.42 407.63 479.58 407.13 475.97 C 405.89 464.29 407.71 452.62 407.73 440.93 C 408.75 426.91 410.33 412.95 410.49 398.88 C 410.43 391.55 411.44 384.29 411.74 376.98 C 412.40 373.00 412.68 368.97 412.62 364.94 C 412.49 357.36 414.11 349.92 414.69 342.39 C 411.91 342.07 409.12 341.03 406.31 341.39 C 400.08 343.17 393.34 346.62 386.88 343.88 C 387.08 342.08 388.38 340.62 390.21 340.41 C 394.43 339.72 398.68 339.13 402.75 337.75 C 402.94 336.18 403.13 334.62 403.32 333.07 Z" />
<path fill="#c26430" opacity="1.00" d=" M 74.73 335.72 C 79.36 333.04 83.78 337.93 87.95 339.04 C 91.06 335.77 95.41 337.77 99.06 338.85 C 102.53 340.69 103.44 346.68 99.73 348.79 C 97.85 349.46 95.96 348.43 94.15 348.02 C 92.53 348.48 90.86 350.09 89.12 349.17 C 85.04 346.34 81.63 341.39 76.20 341.39 C 73.10 341.48 71.82 337.12 74.73 335.72 Z" />
<path fill="#c26430" opacity="1.00" d=" M 231.59 336.56 C 234.48 334.09 240.12 339.22 236.80 341.86 C 234.82 342.41 232.89 341.66 231.13 340.81 C 230.96 339.38 230.26 337.68 231.59 336.56 Z" />
<path fill="#c7bba0" opacity="1.00" d=" M 112.35 338.97 C 112.64 348.39 113.35 357.78 113.92 367.19 C 109.08 362.22 105.29 356.37 101.16 350.83 C 105.45 347.41 108.72 343.05 112.35 338.97 Z" />
<path fill="#c26430" opacity="1.00" d=" M 315.60 340.61 C 318.34 338.87 320.83 341.82 322.06 343.99 C 322.17 346.58 319.63 347.94 317.49 348.51 C 316.68 350.51 315.64 352.47 313.12 352.01 C 312.81 351.53 312.18 350.56 311.86 350.07 C 312.50 348.99 313.15 347.91 313.79 346.82 C 313.15 344.63 312.97 341.54 315.60 340.61 Z" />
<path fill="#f4722b" opacity="1.00" d=" M 253.93 343.03 C 254.88 342.65 255.85 342.32 256.83 342.01 C 257.02 343.32 257.00 344.62 256.76 345.92 C 255.73 345.04 254.79 344.07 253.93 343.03 Z" />
<path fill="#c26430" opacity="1.00" d=" M 375.19 355.19 C 380.10 352.54 385.34 349.64 391.11 349.98 C 393.68 350.05 396.07 352.82 394.43 355.27 C 393.97 357.80 391.30 357.83 389.32 358.34 C 388.84 360.39 388.34 362.43 387.80 364.47 C 385.80 364.57 383.73 364.55 382.06 363.30 C 381.06 365.09 380.54 367.50 378.34 368.17 C 375.06 369.50 371.97 371.30 369.57 373.93 C 369.37 374.14 368.97 374.57 368.78 374.79 C 369.07 383.83 369.62 392.87 369.42 401.93 C 369.70 411.27 368.43 420.54 367.75 429.84 C 367.26 437.87 366.54 445.90 365.36 453.85 C 366.02 446.28 365.50 438.67 365.35 431.09 C 364.92 422.28 365.73 413.49 365.62 404.68 C 365.62 394.08 365.46 383.46 366.27 372.89 C 366.19 372.37 366.02 371.35 365.94 370.83 L 365.87 370.43 L 365.57 370.14 C 363.07 366.74 360.01 363.68 358.10 359.88 C 357.60 357.96 357.70 354.76 360.16 354.34 C 363.46 354.00 366.75 353.62 370.01 353.03 C 372.03 352.61 373.57 354.31 375.19 355.19 Z" />
<path fill="#f5e5c1" opacity="1.00" d=" M 100.53 351.59 C 100.69 351.40 101.00 351.02 101.16 350.83 C 105.29 356.37 109.08 362.22 113.92 367.19 C 114.57 369.30 114.84 371.50 114.97 373.71 C 115.22 372.22 116.13 371.54 117.69 371.68 C 120.41 374.98 124.28 377.71 124.94 382.24 C 125.85 382.23 126.77 382.29 127.69 382.31 C 130.31 384.58 132.82 386.98 135.51 389.16 C 135.44 393.48 135.74 397.77 136.44 402.03 C 136.64 408.15 136.51 414.27 137.47 420.34 C 124.39 411.69 112.13 401.76 101.23 390.47 C 101.47 381.97 100.75 373.49 100.22 365.02 C 99.91 360.53 100.69 356.07 100.53 351.59 Z" />
<path fill="#c26430" opacity="1.00" d=" M 98.15 355.14 C 98.46 353.68 99.64 352.69 100.53 351.59 C 100.69 356.07 99.91 360.53 100.22 365.02 C 100.75 373.49 101.47 381.97 101.23 390.47 C 100.89 394.94 100.82 399.43 100.35 403.88 C 99.33 403.34 99.29 402.00 98.94 401.05 C 98.05 396.47 97.29 391.82 97.69 387.13 C 97.79 383.28 98.02 379.42 97.60 375.59 C 96.62 368.83 96.10 361.77 98.15 355.14 Z" />
<path fill="#c26430" opacity="1.00" d=" M 302.83 361.52 C 304.66 359.23 307.23 358.10 310.12 359.13 C 309.92 360.45 310.11 362.03 308.85 362.90 C 307.31 364.79 304.84 363.57 302.87 363.34 C 302.74 369.21 305.61 375.33 303.03 381.00 C 302.06 383.31 298.86 383.80 298.01 386.02 C 300.25 390.64 304.01 394.30 306.41 398.83 C 308.48 398.96 310.57 398.91 312.61 399.32 C 314.28 400.61 315.71 402.18 317.24 403.64 C 320.09 402.49 322.99 401.47 325.94 400.60 C 326.40 396.96 326.09 393.05 327.69 389.68 C 328.89 387.77 331.14 388.24 332.93 388.83 C 334.08 394.69 333.41 400.69 333.93 406.61 C 332.05 411.05 330.47 415.65 329.64 420.41 C 329.61 420.90 329.55 421.89 329.51 422.38 C 329.69 430.21 330.71 438.00 330.88 445.84 C 330.92 456.21 330.84 466.58 330.83 476.95 C 330.71 481.34 330.87 485.80 329.86 490.11 C 329.57 489.87 329.01 489.39 328.73 489.15 C 327.40 475.07 327.85 460.93 327.65 446.81 C 327.73 438.90 326.27 431.09 326.52 423.17 C 323.35 424.71 320.08 426.06 316.71 427.11 C 316.60 434.73 316.81 442.35 316.70 449.98 C 317.05 459.01 314.17 467.82 315.42 476.87 C 313.93 473.42 315.53 469.49 314.15 466.01 C 312.37 461.21 312.54 456.05 312.42 451.01 C 312.34 443.51 312.37 436.00 312.50 428.50 C 310.01 429.29 307.52 430.10 305.04 430.92 C 305.45 438.12 305.73 445.32 305.79 452.53 C 305.42 462.38 307.03 472.15 306.71 482.00 C 306.49 486.12 308.14 490.27 307.27 494.33 L 305.92 494.42 C 303.78 490.24 305.10 485.36 303.76 480.97 C 301.52 471.95 301.33 462.66 301.37 453.43 C 301.24 445.84 301.95 438.26 301.51 430.68 C 299.49 430.12 297.67 430.92 295.99 431.96 C 296.85 431.25 297.67 430.50 298.49 429.75 C 298.54 428.49 298.50 427.20 298.84 425.98 C 299.93 424.61 301.74 424.12 303.12 423.09 C 304.66 421.13 304.74 418.52 304.95 416.15 C 303.12 416.18 300.48 417.71 299.28 415.66 C 296.96 412.28 298.32 408.09 299.59 404.60 C 300.84 401.81 298.65 399.25 297.00 397.23 C 295.45 397.70 293.94 398.42 292.31 398.53 C 289.36 397.60 287.22 395.02 285.44 392.62 C 284.39 389.62 284.62 385.51 287.70 383.77 C 290.88 381.91 294.00 379.96 296.89 377.67 C 297.78 372.19 294.88 366.79 296.36 361.36 C 297.67 358.68 301.19 359.72 302.83 361.52 Z" />
<path fill="#c26430" opacity="1.00" d=" M 274.50 371.68 C 273.55 368.36 272.97 363.41 277.06 362.05 C 282.35 362.30 282.18 370.08 278.27 372.33 C 278.99 374.54 280.26 377.33 278.15 379.21 C 275.33 380.91 270.28 378.73 270.88 374.97 C 270.98 372.92 272.86 372.23 274.50 371.68 Z" />
<path fill="#c26430" opacity="1.00" d=" M 200.38 364.43 C 205.11 362.03 208.58 368.46 207.46 372.40 C 205.63 376.64 199.22 373.84 198.77 370.08 C 198.54 368.20 198.55 365.48 200.38 364.43 Z" />
<path fill="#c26430" opacity="1.00" d=" M 314.24 364.29 C 316.42 363.06 320.51 363.81 320.07 366.98 C 320.70 370.95 313.85 371.48 313.03 367.98 C 312.75 366.62 312.98 365.07 314.24 364.29 Z" />
<path fill="#c26430" opacity="1.00" d=" M 358.79 373.64 C 359.51 371.06 359.13 368.01 360.82 365.80 C 361.22 368.07 361.54 370.37 361.62 372.68 C 361.35 377.77 360.46 382.84 360.65 387.96 C 360.54 393.51 361.75 399.02 361.24 404.57 L 359.71 403.98 C 359.02 393.89 357.88 383.77 358.79 373.64 Z" />
<path fill="#c7bba0" opacity="1.00" d=" M 365.57 370.14 L 365.87 370.43 L 365.94 370.83 C 365.84 370.66 365.66 370.32 365.57 370.14 Z" />
<path fill="#c7bba0" opacity="1.00" d=" M 368.78 374.79 C 368.97 374.57 369.37 374.14 369.57 373.93 C 371.99 376.42 370.18 380.07 370.07 383.08 C 368.93 388.72 370.73 394.26 372.23 399.64 C 371.28 400.39 370.35 401.16 369.42 401.93 C 369.62 392.87 369.07 383.83 368.78 374.79 Z" />
<path fill="#c7bba0" opacity="1.00" d=" M 97.60 375.59 C 98.02 379.42 97.79 383.28 97.69 387.13 C 97.25 386.69 96.37 385.82 95.93 385.38 C 96.50 382.12 97.25 378.88 97.60 375.59 Z" />
<path fill="#f5e5c1" opacity="1.00" d=" M 401.51 387.60 C 405.07 384.21 408.46 380.64 411.74 376.98 C 411.44 384.29 410.43 391.55 410.49 398.88 C 410.23 399.99 409.16 400.66 408.39 401.42 C 403.92 405.00 399.78 409.03 394.93 412.10 C 394.82 406.40 394.24 400.72 394.14 395.03 C 392.22 401.34 392.07 408.04 391.66 414.58 C 384.17 420.37 375.98 425.20 367.75 429.84 C 368.43 420.54 369.70 411.27 369.42 401.93 C 370.35 401.16 371.28 400.39 372.23 399.64 C 374.64 402.93 380.07 404.11 383.19 401.22 C 389.51 396.97 395.42 392.16 401.51 387.60 Z" />
<path fill="#c26430" opacity="1.00" d=" M 216.37 380.47 C 219.65 378.50 221.32 384.52 217.84 384.76 C 215.24 385.58 214.24 381.29 216.37 380.47 Z" />
<path fill="#f5e5c1" opacity="1.00" d=" M 138.60 392.49 C 140.52 393.47 142.34 394.65 144.01 396.02 C 153.95 403.90 164.92 410.37 176.21 416.10 C 196.17 425.90 217.86 432.01 239.93 434.53 C 249.87 436.35 260.04 435.99 270.09 435.75 C 275.14 435.82 280.02 434.23 285.07 434.36 C 288.74 433.86 292.57 433.48 295.99 431.96 C 297.67 430.92 299.49 430.12 301.51 430.68 C 301.95 438.26 301.24 445.84 301.37 453.43 C 256.59 461.61 209.32 456.12 167.89 437.11 C 158.54 432.87 149.48 427.98 140.80 422.48 C 140.04 421.75 138.74 421.26 138.70 420.06 C 138.22 415.82 138.39 411.54 138.27 407.29 C 138.67 402.36 138.17 397.42 138.60 392.49 Z" />
<path fill="#c26430" opacity="1.00" d=" M 391.66 414.58 C 392.07 408.04 392.22 401.34 394.14 395.03 C 394.24 400.72 394.82 406.40 394.93 412.10 C 394.47 430.79 394.00 449.62 390.58 468.06 C 390.35 469.37 390.15 470.69 390.10 472.03 C 390.31 474.10 392.07 475.84 391.52 478.03 C 390.20 479.82 388.58 482.27 386.00 481.85 C 382.01 481.87 379.05 476.61 381.50 473.32 C 382.63 471.12 385.55 471.50 387.18 470.04 C 387.72 461.66 389.83 453.43 389.80 445.00 C 391.30 437.60 389.98 429.99 391.32 422.59 C 391.67 419.93 391.62 417.25 391.66 414.58 Z" />
<path fill="#f5e5c1" opacity="1.00" d=" M 329.51 422.38 C 342.42 418.42 353.81 410.99 365.62 404.68 C 365.73 413.49 364.92 422.28 365.35 431.09 C 354.31 436.98 342.74 441.86 330.88 445.84 C 330.71 438.00 329.69 430.21 329.51 422.38 Z" />
<path fill="#c26430" opacity="1.00" d=" M 92.39 429.00 C 91.39 421.34 91.15 413.56 91.48 405.84 C 94.65 418.62 95.45 431.86 94.48 444.97 C 93.13 439.79 92.47 434.38 92.39 429.00 Z" />
<path fill="#f4722b" opacity="1.00" d=" M 329.64 420.41 C 330.47 415.65 332.05 411.05 333.93 406.61 C 334.52 410.50 334.56 414.48 335.51 418.32 C 333.61 419.17 331.63 419.81 329.64 420.41 Z" />
<path fill="#c26430" opacity="1.00" d=" M 63.40 417.42 C 66.53 415.18 69.78 417.97 71.65 420.42 C 74.91 423.57 75.00 429.45 71.24 432.25 C 66.59 435.21 59.48 431.58 59.15 426.08 C 58.62 422.62 60.70 419.37 63.40 417.42 Z" />
<path fill="#f5e5c1" opacity="1.00" d=" M 316.71 427.11 C 320.08 426.06 323.35 424.71 326.52 423.17 C 326.27 431.09 327.73 438.90 327.65 446.81 C 324.06 448.04 320.39 449.04 316.70 449.98 C 316.81 442.35 316.60 434.73 316.71 427.11 Z" />
<path fill="#f5e5c1" opacity="1.00" d=" M 305.04 430.92 C 307.52 430.10 310.01 429.29 312.50 428.50 C 312.37 436.00 312.34 443.51 312.42 451.01 C 310.23 451.62 308.01 452.08 305.79 452.53 C 305.73 445.32 305.45 438.12 305.04 430.92 Z" />
<path fill="#c26430" opacity="1.00" d=" M 80.34 432.40 C 84.05 429.85 90.10 433.27 88.72 437.93 C 87.86 440.41 86.25 443.94 83.13 443.77 C 78.21 442.89 75.51 435.17 80.34 432.40 Z" />
<path fill="#c26430" opacity="1.00" d=" M 419.37 439.50 C 421.51 438.70 423.69 439.81 424.38 441.98 C 424.59 444.26 423.93 446.71 422.51 448.52 C 420.14 450.24 415.87 448.16 416.25 445.02 C 415.96 442.72 417.36 440.51 419.37 439.50 Z" />
<path fill="#c26430" opacity="1.00" d=" M 88.25 458.26 C 90.92 455.94 95.81 458.31 95.51 461.92 C 95.74 464.84 92.51 466.42 90.00 465.71 C 86.56 465.30 85.31 460.23 88.25 458.26 Z" />
<path fill="#c26430" opacity="1.00" d=" M 54.36 468.48 C 57.98 467.78 63.08 468.57 64.69 472.43 C 66.27 475.09 64.40 479.59 61.08 479.61 C 57.10 480.37 55.84 475.81 53.62 473.54 C 52.10 472.06 52.61 469.43 54.36 468.48 Z" />
<path fill="#c26430" opacity="1.00" d=" M 371.32 489.38 C 375.08 486.87 380.63 490.47 379.87 494.93 C 379.36 498.84 374.08 499.72 371.28 497.71 C 368.37 496.04 368.39 490.99 371.32 489.38 Z" />
</svg>
