<?xml version="1.0" encoding="UTF-8" standalone="no"?>
<svg
   xmlns:dc="http://purl.org/dc/elements/1.1/"
   xmlns:cc="http://creativecommons.org/ns#"
   xmlns:rdf="http://www.w3.org/1999/02/22-rdf-syntax-ns#"
   xmlns:svg="http://www.w3.org/2000/svg"
   xmlns="http://www.w3.org/2000/svg"
   xmlns:sodipodi="http://sodipodi.sourceforge.net/DTD/sodipodi-0.dtd"
   xmlns:inkscape="http://www.inkscape.org/namespaces/inkscape"
   width="1280"
   height="1280"
   viewBox="0 0 1024 1024"
   version="1.1"
   id="svg2"
   inkscape:version="0.48.1 "
   sodipodi:docname="kill_failed_spy.svg">
  <metadata
     id="metadata52">
    <rdf:RDF>
      <cc:Work
         rdf:about="">
        <dc:format>image/svg+xml</dc:format>
        <dc:type
           rdf:resource="http://purl.org/dc/dcmitype/StillImage" />
      </cc:Work>
    </rdf:RDF>
  </metadata>
  <defs
     id="defs50" />
  <sodipodi:namedview
     pagecolor="#ffffff"
     bordercolor="#666666"
     borderopacity="1"
     objecttolerance="10"
     gridtolerance="10"
     guidetolerance="10"
     inkscape:pageopacity="0"
     inkscape:pageshadow="2"
     inkscape:window-width="1920"
     inkscape:window-height="1018"
     id="namedview48"
     showgrid="false"
     fit-margin-top="0"
     fit-margin-left="0"
     fit-margin-right="0"
     fit-margin-bottom="0"
     inkscape:zoom="0.6609375"
     inkscape:cx="640"
     inkscape:cy="640"
     inkscape:window-x="-8"
     inkscape:window-y="-8"
     inkscape:window-maximized="1"
     inkscape:current-layer="svg2" />
  <path
     d="m 0,0 1024,0 0,1024 L 0,1024 0,0 z"
     id="path4"
     inkscape:connector-curvature="0"
     style="fill:#3e3e3e" />
  <path
     d="m 951.22,47.34 c 11.44,-5.06 22.5,-11.08 34.4,-15.14 -29.26,20.52 -58.44,41.1 -87.62,61.74 -5.52,3.56 -10.74,7.56 -15.6,12 13.46,0.94 26.88,2.12 40.3,3.58 -38.34,26.2 -77.28,51.54 -115.92,77.3 -24.94,16.12 -49.06,33.5 -74.34,49.1 34.28,-28.9 68.6,-57.74 102.96,-86.58 4.98,-4.26 10.34,-8.2 14.56,-13.3 -3.38,-12.58 -9.86,-24.06 -13.98,-36.4 38.4,-17.48 76.8,-34.92 115.24,-52.3 z"
     id="path6"
     inkscape:connector-curvature="0"
     style="fill:#f5e5c1" />
  <path
     d="m 324.08,253.28 c 33.68,-60.2 65.62,-121.38 99.34,-181.56 -26.38,85.42 -52.9,170.8 -79.42,256.18 -9.4,-11.82 -18.5,-23.88 -27.94,-35.66 -12.38,59.1 -23.64,118.42 -36.26,177.46 -8.22,-10.76 -16.12,-21.76 -24.52,-32.38 -7.5,37.02 -15.68,73.92 -22.58,111.06 -0.3,-4.82 -0.44,-9.64 -0.36,-14.46 1.16,-51.32 2.32,-102.66 3.42,-153.98 -0.02,-5.22 1.44,-10.22 2.36,-15.3 8.28,13.38 15.48,27.4 23.8,40.78 17.28,-65.88 32.62,-132.28 50.16,-198.08 4.5,15.18 7.5,30.76 12,45.94 z"
     id="path8"
     inkscape:connector-curvature="0"
     style="fill:#f5e5c1" />
  <path
     d="m 465.9,199.66 c 79.98,-31 159.74,-62.52 239.78,-93.36 -55.16,39.16 -110.34,78.26 -165.36,117.6 14.36,0.98 28.76,1.22 43.12,2.24 -37.24,21.94 -74.86,43.24 -112.24,64.94 -12.36,6.92 -24.34,14.54 -36.98,20.92 26.52,-24.72 53.2,-49.28 79.76,-73.98 -16.76,-11.34 -33.74,-22.34 -50.46,-33.74 -3.84,-1.4 0.46,-4.32 2.38,-4.62 z"
     id="path10"
     inkscape:connector-curvature="0"
     style="fill:#f5e5c1" />
  <path
     d="m 102.76,187.58 c 8.76,19.02 16.2,38.64 24.16,58.02 10.16,-11.34 18.78,-23.92 29,-35.18 -0.6,55.54 0.94,111.1 -0.02,166.62 -9.26,-37.16 -17.56,-74.56 -26.84,-111.72 -4.62,11.4 -7.9,23.26 -12.14,34.78 -4.16,-37.56 -9.44,-75.02 -14.16,-112.52 z"
     id="path12"
     inkscape:connector-curvature="0"
     style="fill:#f5e5c1" />
  <path
     d="m 727.8,309.76 c 6.06,-4.12 12.04,-8.36 18.36,-12.08 C 670.38,378 594.1,457.86 518.04,537.9 c -0.78,-21.94 -1.3,-43.88 -2.08,-65.8 -41.34,36.58 -82.64,73.24 -123.92,109.92 1.22,-18.68 2.7,-37.32 3.9,-56 -28.4,22.88 -56.8,45.76 -85.3,68.54 -7.8,5.88 -15.2,12.84 -24.74,15.8 45.78,-57.6 92.08,-114.78 137.98,-172.28 -2.4,22.68 -5.36,45.28 -7.82,67.96 47.22,-42.06 94.58,-83.98 141.88,-125.96 -3.18,17.34 -6.72,34.58 -9.86,51.92 59.9,-40.76 119.82,-81.48 179.72,-122.24 z"
     id="path14"
     inkscape:connector-curvature="0"
     style="fill:#f5e5c1" />
  <path
     d="m 162.14,326.68 c 11.12,0.02 21.36,4.5 31.92,7.36 25.36,5.86 47.78,20.1 73.06,26.3 -2.12,9.96 -4.56,19.86 -7.34,29.68 -5.64,-9.12 -10.38,-18.78 -16.1,-27.82 -2.14,-4.06 -7.2,-2.86 -10.52,-1.18 -3.94,9.14 -3.34,19.32 -3.64,29.06 -1,47.96 -2.08,95.94 -3.2,143.9 -0.1,6.4 0.3,13 2.86,18.96 3.02,2.22 8.46,1.5 8.58,-2.94 7.42,-32.74 13.52,-65.78 20.68,-98.58 5.84,6.94 10.56,14.8 16.66,21.5 2.48,3.28 6.72,1.4 9.7,-0.04 0.94,-2.24 1.54,-4.58 2.08,-6.94 5.68,-28.48 11.44,-56.94 17.28,-85.4 31.12,27 62.14,54.14 93.04,81.42 -34.96,43.46 -69.88,86.96 -104.8,130.48 -3.94,5.08 -8.62,9.72 -11.5,15.56 -1,5.56 5.76,8.68 10.34,7.06 8.78,-2.94 15.2,-9.98 22.5,-15.34 25.26,-20.34 50.9,-40.28 75.64,-61.24 -1.3,12.42 -2.12,24.88 -2.96,37.34 -0.24,4.26 0.46,10.34 5.64,11.16 2.96,0.8 5.1,-2.08 7.36,-3.46 20.04,-17.7 39.86,-35.68 60.06,-53.18 18.12,23.28 39.2,44.4 54.2,69.98 16.48,25.84 33.08,51.58 49.42,77.48 -43.08,11.18 -86.18,22.28 -129.26,33.5 -4.08,1.54 -10.96,2.94 -10.08,8.72 1.22,5.2 7.66,5.44 11.96,4.96 49.34,-5.04 98.66,-10.42 148.02,-15.14 3.84,6.24 8.46,12.12 10.96,19.08 11.98,42.72 21.82,86.7 20.58,131.36 -25.86,-5.58 -51.54,-11.94 -77.32,-17.8 -3.76,-0.56 -8.62,-1.64 -11.4,1.7 -2.28,4.2 1.62,8.28 5.56,9.28 27.86,9.66 54.96,21.34 82.78,31.06 0.92,14.86 0.08,30.72 -8.34,43.54 -6.94,10.3 -15.56,19.44 -24.72,27.78 -18,13.4 -39.26,23.52 -61.86,25.16 -24.32,-2.94 -49.3,-3.92 -72.56,-12.38 -17.3,-6.78 -36.58,-6.96 -53.28,-15.56 -12.98,-6.72 -27.28,-11.08 -39.02,-20.06 -11.6,-8.92 -25.78,-13.58 -37.3,-22.64 -27.74,-16.8 -51.72,-38.84 -75.22,-61 C 229.62,836.34 216,823.84 204.54,809.4 187.08,787.4 168.98,765.78 153.92,742.02 134.74,712.8 119.08,681.46 104.24,649.88 92.56,624.78 79.48,600.22 70.86,573.8 62.38,553.5 57.74,531.82 55.68,509.96 52.04,475.56 49.9,440.2 58.32,406.28 c 3.46,-23.88 21.96,-41.8 40.64,-55.24 12.98,-7 26.3,-13.52 39.8,-19.5 2.14,10.88 5.48,21.5 7.44,32.42 1.2,5.74 2.22,11.68 5.02,16.92 4.78,3.86 11.1,-1.54 10.9,-6.82 0.48,-15.78 -0.14,-31.58 0.02,-47.38 z"
     id="path16"
     inkscape:connector-curvature="0"
     style="fill:#f4722b" />
  <path
     d="m 838.4,450.38 c 43.06,-27.86 84.44,-58.3 127.56,-86.04 -22.74,27.04 -46.7,53.08 -69.42,80.14 -29.66,33.38 -58.4,67.54 -88.12,100.86 -5.1,-27.04 -9.4,-54.22 -14.4,-81.28 -22.48,9.82 -44.2,21.2 -66.26,31.88 -30.52,13.56 -59.74,29.82 -90.4,43 76.2,-57.02 152.1,-114.48 228.4,-171.38 -8.82,27.7 -18.5,55.12 -27.36,82.82 z"
     id="path18"
     inkscape:connector-curvature="0"
     style="fill:#f5e5c1" />
  <path
     d="m 424.42,488.52 c 1.14,0.92 1.14,0.92 0,0 z"
     id="path20"
     inkscape:connector-curvature="0"
     style="fill:#f4722b" />
  <path
     d="m 272.3,548.14 c 6.82,-2.34 15.12,-4.76 21.54,-0.12 3.22,1.9 2.16,5.88 1.96,8.94 -8.62,-0.14 -17.56,0.92 -24.94,5.74 -14.02,7.9 -19.36,26.24 -14.76,41.16 2.42,8.24 4.92,18.72 13.98,21.96 15.9,5.82 33.14,0.04 49.36,4.48 -1.58,3.52 -3.34,7 -5.5,10.22 -13.34,-0.2 -26.72,0.2 -40.06,-0.32 -11.88,-0.26 -22.66,-8.38 -27.14,-19.24 -5.58,-13.24 -9.1,-28.48 -4.4,-42.52 4.38,-14.18 16.06,-25.48 29.96,-30.3 z"
     id="path22"
     inkscape:connector-curvature="0"
     style="fill:#f5e5c1" />
  <path
     d="m 319.44,630.3 c 2.22,-5.96 4.08,-12.4 10.06,-15.68 12.76,5.14 24.5,13.48 38.72,14.02 -3.9,9.32 -6.64,19.14 -11.52,28.06 -2.48,4.42 -5.06,8.76 -7.7,13.08 -2.18,6 -9.42,7.5 -14.06,3.22 -7.42,-6.48 -19.8,-4.06 -25.42,-12.84 -1.08,-6.82 2.48,-13.28 4.42,-19.64 2.16,-3.22 3.92,-6.7 5.5,-10.22 z"
     id="path24"
     inkscape:connector-curvature="0"
     style="fill:#3e3e3e" />
  <path
     d="m 430.16,718.24 c 123.9,-31.9 247.68,-64.32 371.64,-96.02 -32.56,24.52 -65.12,49.06 -97.58,73.7 67.24,3.44 134.52,6.46 201.8,9.7 1.88,0.06 3.72,0.7 5.48,1.42 -32.54,1.42 -64.9,5.86 -97.38,8.54 -64.06,6.1 -128.12,12.38 -192.2,18.36 12.16,-12.44 23.86,-25.34 36.1,-37.72 -75.92,7.38 -151.78,15.52 -227.66,23.34 l -0.2,-1.32 z"
     id="path26"
     inkscape:connector-curvature="0"
     style="fill:#f5e5c1" />
  <path
     d="m 356.7,656.7 c -2.48,4.42 -5.06,8.78 -7.7,13.1 2.08,7.96 4.19,15.96 4.75,24.2 1.2,11.84 -1.93,23.88 0.95,35.6 -8.28,6.22 -19.51,10.08 -24.45,19.7 -1.84,0.54 -3.66,1.03 -5.5,1.55 -4.72,4.32 -8.66,9.49 -8.5,16.25 3.16,-0.32 6.63,0.38 9.55,-1.2 28.24,-16.44 50.92,-40.47 77.4,-59.35 2.74,-2 6.66,-4.65 5.4,-8.65 -2.6,-4.86 -8.2,-1.16 -12,0.1 -8.72,4.56 -16.08,11.23 -23,18.15 -3.16,1.76 -6.08,3.89 -9,6.05 5.62,-21.88 1.64,-45.3 -7.9,-65.5 z"
     id="path28"
     style="fill:#f5e5c1"
     inkscape:connector-curvature="0" />
  <path
     d="m 281.52,667.66 c 13.18,-3.86 31.08,0.02 36.34,14.1 9.48,19.24 19.4,40.54 13.8,62.52 -2.44,1.82 -4.8,3.7 -7.2,5.58 -7.9,-3.86 -3.4,-13.06 -4.54,-19.82 -2.1,-14.32 -3.32,-29.78 -12.26,-41.8 -1.88,-3.36 -6.08,-3.54 -9.34,-4.66 -6.64,-1.5 -13.56,-3.42 -20.36,-2.06 -16.76,5.82 -24.98,25.46 -42.54,29.58 -0.1,-0.74 -0.32,-2.24 -0.42,-3 0.4,-0.76 1.22,-2.32 1.64,-3.08 9.84,-17.08 24.32,-34.1 44.88,-37.36 z"
     id="path30"
     inkscape:connector-curvature="0"
     style="fill:#f5e5c1" />
  <path
     d="m 146.22,672.16 c 1.84,-2.36 4.1,-4.36 6.22,-6.44 1.64,6.76 3.14,13.62 5.56,20.16 3.76,7.5 12.46,10.62 20.08,12.58 8.52,1.16 17.03307,2.37386 24.93306,3.46256 -0.48,1.56 -1.33306,6.97744 -1.83306,8.53744 -13.12,0.96 -27.04,1.26 -38.9,-5.38 -5.68,-3.86 -13.62,0.38 -18.56,-4.9 -4.86,-4.48 -12.56,-11.54 -6.54,-18.24 2.76,2.02 5.5,4.08 8.24,6.14 0.1,-5.28 -0.88,-10.82 0.8,-15.92 z"
     id="path32"
     inkscape:connector-curvature="0"
     style="fill:#f5e5c1"
     sodipodi:nodetypes="ccccccccccc" />
  <path
     d="m 214.4,668.46 c 7.72,-2.24 17.22,1.26 19.74,9.3 1.08,9.06 -0.22,18.38 2.5,27.26 -0.42,0.76 -1.24,2.32 -1.64,3.08 0.1,0.76 0.32,2.26 0.42,3 0.88,5.62 1.78,11.24 2.48,16.88 -11.62,4.4 -24.12,3.76 -36.32,3.64 -1.01008,-13.08908 -1.91975,-21.83654 -2.16,-34.24 0.16,-7.56 -0.6,-15.34 1.62,-22.66 1.48,-5.78 8.74,-4.94 13.36,-6.26 z"
     id="path34"
     inkscape:connector-curvature="0"
     style="fill:#3e3e3e"
     sodipodi:nodetypes="cccccccccc" />
  <path
     d="m 325.82,765.88 c 28.24,-16.44 50.9,-40.46 77.38,-59.34 2.1,0.7 4.22,1.38 6.32,2.08 1.04,3.2 2.08,6.4 3.12,9.62 -4.52,2.02 -9.08,4.12 -12.86,7.4 -12.36,10.44 -26.14,19.1 -38.3,29.82 -8.9,8.02 -18.56,15.58 -24.78,26 0.8,1.48 2.42,4.44 3.22,5.94 14.86,-1.22 27.5,-10.44 42.02,-12.98 12.3,2.96 19.6,14.94 27.8,23.7 -7.56,10.46 -18.3,18.04 -30.02,23.22 1.54,9.22 7.26,16.98 12.8,24.24 6.84,3.2 12.32,-4.06 17.24,-7.7 -3.24,3.76 -6.9,7.36 -8.98,11.98 -0.58,4.14 1.42,8.14 2.26,12.14 4.78,-0.82 9.6,-2.32 13,-5.98 11.8,-11.68 25.78,-20.78 38.36,-31.52 9.14,-7.96 20.22,-13.22 29.32,-21.18 -4.48,9.7 -10.74,18.64 -18.46,26.04 -21.16,17.54 -42.5,34.9 -63.18,52.98 -0.98,-0.4 -2.92,-1.18 -3.88,-1.58 -2.36,3.12 -5.28,8.4 -9.96,5.54 -8.4,-6.68 -14.28,-15.9 -21.52,-23.74 -1.42,1.88 -2.82,3.78 -4.22,5.68 -12.92,4.42 -21.4,15.44 -31.86,23.46 -10.4,-7.62 -17.52,-18.62 -26.58,-27.62 -4.2,-3.94 -7.06,-8.96 -9.64,-14.04 7.96,-3.12 17.88,-5.24 21.92,-13.72 3.32,-6.38 8.08,-11.9 11.34,-18.3 -3.18,-7.26 -13.12,-10.9 -12.7,-19.74 0.06,-10.34 -2.34,-21.18 1.26,-31.16 3.16,-0.32 6.66,0.34 9.58,-1.24 z"
     id="path38"
     inkscape:connector-curvature="0"
     style="fill:#3e3e3e" />
  <path
     d="m 412.64,718.24 0.82,-0.36 c 4.52,6.68 9.38,13.14 14.26,19.58 -4.8,3.38 -9.42,7.14 -13.26,11.62 1.74,12.02 6.38,23.44 9.18,35.24 10.82,-5.66 21.66,-11.36 33.08,-15.74 2.32,10.36 11.32,16.26 20.66,19.7 6.38,-3.04 9.32,3.26 12.3,7.5 -1.96,2.52 -3.78,5.18 -5.96,7.54 -9.1,7.96 -20.18,13.22 -29.32,21.18 -12.58,10.74 -26.56,19.84 -38.36,31.52 -3.4,3.66 -8.22,5.16 -13,5.98 -0.84,-4 -2.84,-8 -2.26,-12.14 2.08,-4.62 5.74,-8.22 8.98,-11.98 -4.92,3.64 -10.4,10.9 -17.24,7.7 -5.54,-7.26 -11.26,-15.02 -12.8,-24.24 11.72,-5.18 22.46,-12.76 30.02,-23.22 -8.2,-8.76 -15.5,-20.74 -27.8,-23.7 -14.52,2.54 -27.16,11.76 -42.02,12.98 -0.8,-1.5 -2.42,-4.46 -3.22,-5.94 6.22,-10.42 15.88,-17.98 24.78,-26 12.16,-10.72 25.94,-19.38 38.3,-29.82 3.78,-3.28 8.34,-5.38 12.86,-7.4 z"
     id="path40"
     inkscape:connector-curvature="0"
     style="fill:#f5e5c1" />
  <path
     d="m 414.46,749.08 c 3.84,-4.48 8.46,-8.24 13.26,-11.62 3.54,-0.08 8.1,-1.2 10.54,2.18 7.62,8.5 16.38,17.22 18.46,28.94 -11.42,4.38 -22.26,10.08 -33.08,15.74 -2.8,-11.8 -7.44,-23.22 -9.18,-35.24 z"
     id="path42"
     inkscape:connector-curvature="0"
     style="fill:#3e3e3e" />
  <path
     d="m 456.54,754.72 c 6.84,-2.74 13.66,-7.6 21.28,-6.78 6.12,7.16 14.32,14.58 13.96,24.78 -8.36,2.92 -16.96,8.62 -26.14,5.7 -6.56,-6.04 -3.32,-16.8 -9.1,-23.7 z"
     id="path44"
     inkscape:connector-curvature="0"
     style="fill:#3e3e3e" />
  <path
     d="m 644.1,873 c 0.54,-10.08 1.72,-20.1 2.98,-30.1 71.78,33.54 143.82,66.6 215.36,100.62 -64.2,-19.54 -128.02,-40.38 -192.34,-59.6 7.62,8.12 15.62,15.9 22.88,24.36 C 640.62,888.44 588.46,868.1 536.06,848.4 572.2,856 607.96,865.38 644.1,873 z"
     id="path46"
     inkscape:connector-curvature="0"
     style="fill:#f5e5c1" />
</svg>
