<?xml version="1.0" encoding="UTF-8" ?>
<!DOCTYPE svg PUBLIC "-//W3C//DTD SVG 1.1//EN" "http://www.w3.org/Graphics/SVG/1.1/DTD/svg11.dtd">
<svg width="512pt" height="512pt" viewBox="0 0 512 512" version="1.1" xmlns="http://www.w3.org/2000/svg">
<path fill="#3e3e3e" opacity="1.00" d=" M 0.00 0.00 L 512.00 0.00 L 512.00 512.00 L 0.00 512.00 L 0.00 0.00 Z" />
<path fill="#f4722b" opacity="1.00" d=" M 230.04 15.01 C 233.88 13.68 238.05 13.36 242.04 14.22 C 247.87 15.37 254.23 16.07 258.94 20.09 C 263.10 23.66 267.10 28.20 267.68 33.89 C 268.51 41.68 266.92 50.39 261.10 56.05 C 255.83 62.23 247.98 65.00 240.99 68.69 C 244.22 72.48 246.07 77.12 248.66 81.31 C 252.61 84.82 257.50 87.09 261.72 90.26 C 265.28 93.03 269.64 94.83 272.51 98.41 C 276.57 103.20 278.72 109.24 280.74 115.09 C 280.25 110.29 277.88 106.03 275.84 101.76 C 282.12 105.14 288.02 109.60 295.10 111.19 C 296.88 111.66 298.15 113.10 299.60 114.15 C 299.36 108.07 300.05 101.97 302.10 96.22 C 303.30 91.62 306.82 88.25 309.99 84.93 C 313.74 81.31 318.70 78.39 324.05 78.46 C 327.22 78.15 329.47 82.28 327.67 84.85 C 323.86 92.30 319.42 99.55 313.91 105.87 C 308.45 111.24 302.82 116.72 295.82 120.03 C 292.25 121.46 288.41 120.22 284.78 119.68 C 286.83 120.63 288.99 121.34 291.24 121.67 C 291.66 121.91 292.52 122.38 292.94 122.62 C 296.83 120.74 300.56 118.54 304.54 116.83 C 305.11 124.50 311.99 129.41 314.43 136.36 C 315.39 143.27 313.97 152.38 306.68 155.30 C 308.58 152.04 310.03 148.52 310.85 144.82 C 308.14 143.78 305.52 142.47 303.33 140.54 C 301.11 146.34 295.57 149.53 290.84 153.04 C 288.46 154.86 285.70 156.09 282.85 156.98 C 284.54 156.77 286.32 156.66 287.64 157.96 C 285.93 164.66 286.31 171.71 286.61 178.56 C 287.47 175.90 287.52 173.07 287.65 170.31 C 289.49 171.44 291.32 172.57 293.16 173.71 C 293.57 173.31 294.39 172.50 294.81 172.10 C 295.69 172.52 296.58 172.94 297.47 173.37 C 297.52 176.76 297.64 180.14 297.76 183.53 C 292.33 183.51 286.91 183.57 281.48 183.63 C 280.60 182.78 279.71 181.94 278.83 181.09 C 278.48 181.58 277.78 182.56 277.43 183.05 C 269.96 178.95 261.82 176.03 254.79 171.14 C 250.50 172.66 246.02 174.56 241.40 173.41 C 232.23 171.34 223.10 169.10 213.92 167.12 C 209.38 166.35 205.70 163.42 202.00 160.93 C 196.31 156.78 195.30 147.98 199.57 142.48 C 202.39 138.44 207.36 136.55 212.16 136.65 C 214.59 136.04 216.23 138.17 218.07 139.32 C 212.09 131.73 204.75 124.13 203.80 114.00 C 201.46 98.36 212.98 82.41 228.47 79.49 C 225.28 76.91 225.98 72.64 225.63 69.02 C 219.65 66.22 213.72 62.64 210.09 56.93 C 205.20 48.62 203.70 37.57 209.11 29.12 C 213.46 21.37 222.05 17.77 230.04 15.01 Z" />
<path fill="#3e3e3e" opacity="1.00" d=" M 227.92 20.26 C 234.93 17.72 243.40 15.39 250.21 19.70 C 242.12 15.62 232.79 18.34 225.06 21.94 C 213.48 26.75 207.48 42.91 215.30 53.40 C 220.04 58.42 227.37 59.91 234.04 59.38 C 241.98 59.60 249.99 56.03 255.05 49.90 C 257.99 45.44 261.44 40.61 261.10 35.00 C 260.19 29.35 256.96 24.36 253.12 20.22 C 257.16 23.08 258.81 27.82 261.48 31.75 C 261.53 35.02 262.19 38.56 260.60 41.59 C 257.73 47.03 254.46 52.74 248.78 55.66 C 242.67 59.76 235.04 60.05 227.94 59.60 C 223.99 59.38 220.53 57.26 216.85 56.04 C 212.59 51.56 210.36 45.16 211.51 39.02 C 213.07 30.43 219.70 23.08 227.92 20.26 Z" />
<path fill="#3e3e3e" opacity="1.00" d=" M 311.53 88.53 C 314.99 84.98 319.62 82.14 324.73 82.20 C 324.67 85.08 323.97 87.94 322.36 90.36 C 319.23 96.08 312.70 98.82 309.45 104.44 C 307.92 107.06 306.48 109.99 303.50 111.21 C 303.49 103.07 305.81 94.54 311.53 88.53 Z" />
<path fill="#f4722b" opacity="1.00" d=" M 326.79 91.82 C 333.53 87.75 342.10 89.63 348.51 93.47 C 351.47 96.42 353.23 100.40 354.73 104.25 C 351.81 107.18 347.42 108.02 343.86 110.01 C 333.24 115.48 321.88 119.93 312.91 128.05 C 311.21 126.02 309.32 124.12 307.99 121.81 C 307.16 119.29 307.31 116.52 307.72 113.93 C 309.84 110.08 313.65 107.56 316.84 104.65 C 321.08 101.15 323.35 95.99 326.79 91.82 Z" />
<path fill="#f4722b" opacity="1.00" d=" M 352.26 95.22 C 358.26 95.12 362.70 99.47 367.13 102.87 C 370.23 105.40 374.82 105.33 377.52 108.48 C 380.64 112.08 383.21 116.12 386.47 119.61 C 388.97 123.01 391.49 127.31 390.56 131.67 C 388.27 135.72 384.30 138.55 380.25 140.67 C 380.42 147.05 379.66 153.43 378.34 159.67 C 377.96 161.82 376.37 163.41 374.99 165.00 C 374.50 167.75 373.53 170.47 371.25 172.25 C 363.56 179.23 356.48 187.79 346.31 191.16 C 347.22 193.30 348.16 195.42 349.09 197.55 C 343.29 201.32 335.45 198.90 331.60 193.50 C 328.98 189.79 326.93 185.31 327.07 180.69 C 329.05 175.36 327.96 167.98 333.58 164.61 C 337.33 162.58 342.25 159.78 346.29 162.62 C 351.47 165.94 353.65 172.76 359.62 175.00 C 360.46 168.32 357.45 161.92 358.21 155.28 C 359.26 151.65 362.64 149.23 365.78 147.44 C 364.81 150.56 362.54 152.94 360.67 155.53 C 364.59 155.86 368.50 156.23 372.43 156.59 C 372.58 150.09 371.76 143.63 370.21 137.33 C 372.06 137.42 373.91 137.49 375.77 137.55 C 374.92 131.68 370.48 127.48 366.68 123.31 C 364.22 120.99 361.66 117.82 357.88 118.37 C 357.09 117.85 356.32 117.34 355.55 116.82 C 352.73 116.45 349.80 115.01 347.01 116.23 C 335.92 120.36 325.43 126.15 316.07 133.40 C 315.38 131.56 314.68 129.72 314.01 127.88 C 327.88 117.81 344.32 112.27 359.14 103.84 C 354.98 102.98 354.02 98.43 352.26 95.22 Z" />
<path fill="#f4722b" opacity="1.00" d=" M 341.53 120.36 C 346.14 117.91 351.48 118.40 356.51 118.52 C 356.55 121.20 356.57 123.89 356.58 126.57 C 358.87 128.20 361.07 129.94 363.18 131.80 C 362.17 131.45 361.18 131.10 360.18 130.74 C 355.75 132.00 351.45 129.55 346.99 129.65 C 343.00 129.21 339.25 130.80 335.76 132.50 C 335.31 133.75 334.85 135.00 334.40 136.25 C 331.56 136.28 328.85 137.09 326.09 137.55 C 322.95 136.78 319.77 136.54 316.58 137.22 C 315.93 135.25 318.21 134.35 319.27 133.15 C 326.04 127.88 333.82 124.05 341.53 120.36 Z" />
<path fill="#3e3e3e" opacity="1.00" d=" M 281.85 131.25 C 287.38 132.86 292.70 135.11 297.71 137.96 C 295.92 141.27 294.43 144.95 291.41 147.36 C 288.03 150.13 284.26 152.38 280.49 154.58 C 280.25 160.52 279.52 166.44 278.65 172.33 C 278.63 168.99 278.82 165.67 278.94 162.34 C 272.98 161.73 267.00 161.20 261.09 160.19 C 260.73 163.86 260.51 167.57 259.66 171.18 C 259.65 167.89 259.70 164.61 259.72 161.32 C 259.15 161.35 258.02 161.40 257.45 161.42 C 257.46 160.59 257.47 159.76 257.49 158.93 C 264.76 160.33 272.14 161.33 279.51 162.09 C 279.61 159.43 279.73 156.78 279.78 154.12 C 286.69 150.54 293.77 146.12 296.92 138.64 C 292.55 134.94 286.75 133.99 281.85 131.25 Z" />
<path fill="#3e3e3e" opacity="1.00" d=" M 279.34 132.30 C 280.48 133.09 279.61 135.54 279.85 136.92 C 275.81 140.87 271.79 145.41 266.03 146.72 C 259.62 149.24 252.44 149.39 245.91 147.23 C 245.33 146.24 244.76 145.26 244.17 144.28 C 246.99 147.90 251.79 148.09 256.00 148.13 C 260.31 147.97 264.61 147.16 268.67 145.67 C 272.93 143.93 276.11 140.44 279.16 137.14 C 279.19 135.53 278.91 133.87 279.34 132.30 Z" />
<path fill="#f4722b" opacity="1.00" d=" M 45.96 134.05 C 52.44 132.41 59.16 133.76 65.50 135.37 C 110.10 145.47 154.72 155.50 199.33 165.56 C 211.37 169.17 223.76 171.36 235.95 174.38 C 239.70 175.24 243.43 176.24 247.25 176.69 C 249.09 178.63 251.28 180.49 252.02 183.18 C 253.15 187.87 252.83 192.84 251.57 197.48 C 246.14 200.30 239.85 199.14 233.98 199.47 C 226.40 198.85 218.72 198.25 211.34 196.30 L 211.52 197.85 C 160.29 192.60 109.07 187.26 57.84 181.99 C 51.07 180.73 43.63 180.39 37.95 176.05 C 31.67 171.52 27.87 163.74 28.35 155.99 C 28.55 145.86 36.18 136.52 45.96 134.05 Z" />
<path fill="#f4722b" opacity="1.00" d=" M 357.26 133.21 C 359.65 133.34 362.03 133.67 364.29 134.48 C 364.64 138.02 365.80 141.52 365.43 145.09 C 363.50 148.71 359.28 150.60 357.74 154.48 C 356.23 161.17 359.40 167.66 359.20 174.35 C 354.06 169.35 349.73 162.93 342.64 160.52 C 342.45 159.50 342.28 158.50 342.11 157.49 C 341.19 158.08 340.28 158.66 339.37 159.25 C 335.75 159.99 332.21 161.07 328.69 162.16 C 329.59 163.27 330.50 164.38 331.43 165.48 C 328.56 169.03 328.86 173.87 326.81 177.79 C 326.50 177.88 325.89 178.07 325.58 178.16 C 323.49 172.34 322.24 166.19 319.09 160.78 C 318.58 160.61 317.55 160.27 317.03 160.10 C 319.80 165.61 322.24 171.32 323.74 177.31 C 320.58 175.57 319.00 172.35 317.63 169.20 C 310.80 169.81 304.04 168.25 297.49 166.46 C 297.42 167.37 297.27 169.20 297.19 170.11 C 296.79 168.16 296.13 166.02 297.18 164.15 C 298.01 162.05 300.37 161.31 302.18 160.28 C 306.06 158.51 309.94 156.61 313.08 153.66 C 313.99 155.37 314.91 157.08 315.83 158.79 C 318.89 158.05 322.41 157.31 324.29 154.54 C 326.49 149.94 326.96 144.74 326.50 139.71 C 328.71 139.09 330.94 138.42 333.25 138.26 C 334.41 144.07 339.25 148.70 345.18 149.32 C 349.03 150.39 352.52 147.72 354.85 144.96 C 357.45 141.63 357.36 137.21 357.26 133.21 Z" />
<path fill="#3e3e3e" opacity="1.00" d=" M 219.79 138.76 C 223.68 135.43 228.93 138.14 233.03 139.66 C 229.85 139.12 226.47 136.89 223.30 138.21 C 223.18 138.62 222.94 139.43 222.82 139.83 C 225.05 141.29 227.19 142.89 229.16 144.69 C 226.74 143.20 224.45 141.51 222.31 139.65 C 221.47 139.35 220.63 139.06 219.79 138.76 Z" />
<path fill="#3e3e3e" opacity="1.00" d=" M 43.34 138.48 C 53.00 135.24 64.22 142.07 66.10 151.99 C 68.57 161.62 61.86 172.36 52.06 174.18 C 42.51 176.45 31.95 169.63 30.39 159.89 C 28.45 150.76 34.40 141.00 43.34 138.48 Z" />
<path fill="#f4722b" opacity="1.00" d=" M 337.81 143.94 C 340.30 141.73 343.00 139.63 346.09 138.33 C 347.03 138.58 347.97 138.88 348.89 139.23 C 350.77 138.55 352.64 137.86 354.53 137.19 C 354.17 139.63 354.79 142.80 352.53 144.49 C 350.32 146.10 347.67 147.33 344.90 147.36 C 342.28 146.90 340.00 145.37 337.81 143.94 Z" />
<path fill="#3e3e3e" opacity="1.00" d=" M 234.09 138.95 C 238.94 140.06 241.39 144.73 243.02 149.00 C 244.28 152.61 246.84 155.50 249.36 158.29 L 247.71 158.93 C 247.60 158.27 247.39 156.94 247.29 156.28 C 243.80 153.30 242.45 148.87 240.38 144.96 C 239.03 142.28 236.42 140.67 234.09 138.95 Z" />
<path fill="#3e3e3e" opacity="1.00" d=" M 373.27 141.53 C 374.53 141.56 375.80 141.59 377.07 141.62 C 377.46 142.21 378.24 143.41 378.63 144.00 C 378.30 144.49 377.64 145.45 377.31 145.94 C 376.45 144.81 375.52 143.75 374.52 142.76 C 374.18 149.83 375.64 157.12 373.62 164.04 C 373.42 156.54 373.81 149.03 373.27 141.53 Z" />
<path fill="#f4722b" opacity="1.00" d=" M 287.16 156.34 C 293.03 152.11 299.55 148.42 303.75 142.33 C 305.71 143.23 307.69 144.12 309.68 144.97 C 309.58 145.67 309.36 147.07 309.26 147.77 C 306.06 151.03 303.91 155.36 299.92 157.81 C 297.77 159.32 295.11 160.29 293.54 162.49 C 293.27 165.15 293.53 167.82 293.61 170.48 C 292.59 170.48 290.55 170.49 289.53 170.50 C 285.84 167.38 288.84 162.28 288.39 158.20 C 288.08 157.74 287.47 156.81 287.16 156.34 Z" />
<path fill="#f4722b" opacity="1.00" d=" M 313.75 152.05 C 318.58 150.26 320.77 144.96 325.55 142.95 C 324.70 147.89 324.29 154.11 318.99 156.41 C 316.05 157.40 314.92 154.00 313.75 152.05 Z" />
<path fill="#3e3e3e" opacity="1.00" d=" M 206.64 145.70 C 208.32 145.59 209.99 145.49 211.67 145.39 C 212.60 146.43 213.59 147.44 214.41 148.59 C 214.22 150.50 212.62 151.89 211.66 153.46 C 210.38 153.52 209.10 153.58 207.82 153.65 C 205.88 151.38 206.33 148.43 206.64 145.70 Z" />
<path fill="#f4722b" opacity="1.00" d=" M 207.44 146.19 C 209.85 146.19 212.09 146.86 213.80 148.60 C 213.39 149.35 212.57 150.83 212.16 151.57 C 210.63 151.55 209.10 151.52 207.57 151.49 C 207.52 149.72 207.48 147.96 207.44 146.19 Z" />
<path fill="#f4722b" opacity="1.00" d=" M 376.62 164.04 C 378.71 163.14 380.69 161.71 383.02 161.53 C 385.24 163.07 386.72 165.40 388.51 167.39 C 390.55 167.21 392.86 165.88 394.83 166.93 C 396.82 169.39 398.03 172.36 399.54 175.11 C 398.31 175.63 397.11 176.15 395.89 176.68 C 392.21 183.76 386.85 189.76 382.06 196.09 C 376.97 203.16 371.12 209.73 366.80 217.32 C 374.30 208.24 381.23 198.70 388.41 189.36 C 391.06 186.00 392.98 182.08 395.95 178.98 C 398.61 176.35 402.48 176.44 405.95 176.44 C 411.10 176.53 416.61 174.91 421.40 177.56 C 428.64 181.23 436.01 184.78 442.74 189.35 C 446.86 192.81 451.95 195.59 454.44 200.58 C 456.53 204.57 457.70 208.97 458.36 213.41 C 460.16 226.36 465.59 238.76 465.32 251.99 C 465.36 257.80 465.63 263.61 465.48 269.42 C 472.03 274.90 472.06 284.23 471.19 292.01 C 469.81 299.47 468.72 307.08 465.92 314.18 C 465.38 316.09 465.69 318.16 465.03 320.04 C 463.40 323.08 460.13 324.62 457.27 326.25 C 452.78 328.52 448.29 331.56 443.05 331.38 C 433.57 331.35 424.20 329.69 414.86 328.28 C 410.30 327.61 408.81 322.49 407.00 318.95 C 408.27 318.18 409.54 317.42 410.81 316.63 C 416.26 316.45 421.82 316.81 427.09 315.14 C 426.60 314.64 425.60 313.64 425.11 313.15 C 432.04 304.32 437.41 293.29 436.61 281.80 C 436.30 275.08 432.83 269.08 429.62 263.35 C 422.51 253.36 412.60 245.62 401.71 240.10 C 400.50 227.87 399.59 215.48 396.32 203.58 C 404.14 197.33 412.82 191.37 422.81 189.46 C 429.85 192.76 436.76 196.44 443.38 200.53 C 446.97 202.57 449.44 206.13 450.99 209.88 C 455.31 221.07 457.49 232.99 458.35 244.92 C 458.42 250.09 458.57 255.27 459.45 260.38 C 457.01 259.35 454.74 257.99 452.60 256.45 C 452.08 255.59 451.57 254.74 451.07 253.89 C 444.06 252.46 435.82 251.38 429.69 255.92 C 428.15 254.39 426.87 252.65 425.93 250.71 C 423.87 249.70 421.60 249.35 419.32 249.49 C 420.98 249.99 422.66 250.37 424.35 250.74 C 427.13 256.18 432.68 259.08 438.15 261.16 C 437.44 260.51 436.02 259.20 435.31 258.54 C 440.54 257.21 446.00 257.35 451.23 258.64 C 454.36 260.25 457.60 261.63 460.74 263.24 C 461.10 244.00 459.74 224.13 451.67 206.38 C 446.72 197.87 436.93 194.60 428.82 189.99 C 426.26 188.83 423.56 186.61 420.61 187.66 C 415.55 189.28 410.55 191.25 406.03 194.07 C 401.71 196.68 397.94 200.06 393.69 202.75 C 397.57 214.38 397.91 226.76 399.55 238.81 C 387.85 232.32 375.99 226.02 363.56 221.04 C 363.42 221.57 363.15 222.63 363.02 223.16 C 370.30 224.93 376.48 229.49 383.22 232.60 C 390.29 235.73 396.74 240.01 403.58 243.57 C 412.19 248.16 419.61 254.72 426.04 261.99 C 430.99 269.29 435.56 277.82 434.50 286.94 C 433.35 297.23 427.89 306.41 421.60 314.41 C 414.45 313.83 406.73 317.09 400.17 313.04 C 384.66 306.03 370.57 296.36 357.34 285.73 C 353.32 282.24 348.31 280.13 344.47 276.41 C 341.73 273.83 338.85 271.40 335.89 269.07 C 342.68 260.65 347.11 250.69 350.81 240.61 C 355.27 239.41 359.45 236.86 360.94 232.23 C 357.39 234.52 354.19 237.79 349.70 237.91 C 347.24 244.21 344.57 250.43 341.65 256.53 C 338.86 262.16 334.43 266.70 331.07 271.95 C 324.49 270.91 318.27 268.39 312.47 265.19 C 312.97 261.71 313.45 258.22 313.72 254.71 C 307.85 252.35 301.85 254.74 296.19 256.49 C 293.27 257.40 291.11 259.97 288.01 260.37 C 285.40 260.88 282.79 261.51 280.40 262.71 C 285.14 262.34 289.89 261.37 294.19 259.28 C 299.70 256.69 305.78 255.83 311.80 255.49 C 311.32 259.15 310.74 262.80 310.32 266.46 C 314.30 268.18 318.19 270.08 322.13 271.89 C 323.49 276.32 325.58 280.54 326.39 285.12 C 327.39 298.09 325.68 311.04 325.38 324.00 C 324.51 331.56 324.04 339.18 322.66 346.68 C 313.96 342.93 304.54 340.70 295.04 340.90 C 297.14 333.65 299.29 326.39 300.45 318.91 C 300.93 315.56 299.59 312.31 299.55 308.97 C 299.43 302.65 299.69 296.32 300.21 290.02 C 300.45 281.85 300.35 273.67 300.35 265.50 C 301.89 265.57 303.43 265.66 304.97 265.75 C 306.56 263.28 308.00 260.60 307.93 257.56 C 307.70 257.40 307.22 257.08 306.99 256.92 C 305.05 258.76 305.31 262.21 303.33 264.28 C 295.28 267.13 287.62 270.97 279.59 273.89 C 274.94 275.20 271.12 278.23 268.29 282.09 C 271.57 280.07 273.83 276.55 277.66 275.44 C 284.88 272.84 291.82 269.51 299.04 266.91 C 297.68 272.69 294.84 278.01 293.82 283.91 C 292.06 290.31 288.50 296.19 283.82 300.87 C 279.34 303.92 274.08 305.58 269.10 307.64 C 264.52 306.33 259.78 303.85 256.94 299.91 C 252.47 286.47 253.84 272.14 253.31 258.21 C 261.84 260.57 270.67 262.09 279.51 262.52 C 271.39 260.27 262.78 260.28 254.76 257.68 C 248.17 254.35 241.56 250.50 234.09 249.63 C 231.37 249.22 228.43 249.38 225.96 248.03 C 223.08 246.36 222.67 242.79 221.09 240.15 C 218.69 237.86 214.91 236.53 214.30 232.84 C 213.13 227.38 214.45 221.71 213.39 216.20 C 213.64 216.22 214.12 216.25 214.37 216.26 C 216.40 222.19 219.38 228.55 224.93 231.93 C 224.05 234.65 222.91 237.29 222.27 240.09 C 223.66 242.69 225.42 245.07 226.87 247.65 C 227.38 247.60 228.38 247.51 228.88 247.46 C 227.72 245.07 226.17 242.89 224.38 240.92 C 225.11 238.50 225.89 236.10 226.69 233.70 C 227.65 233.07 228.62 232.43 229.59 231.79 C 228.10 230.59 226.35 229.79 224.56 229.16 C 221.24 224.46 218.36 219.46 216.01 214.22 C 213.71 209.19 214.82 203.50 215.32 198.21 C 219.13 198.86 223.02 199.12 226.76 200.07 C 230.64 205.25 235.48 209.56 241.04 212.87 C 239.17 216.28 237.18 219.64 234.83 222.75 C 232.93 225.39 230.46 227.90 230.16 231.32 C 235.59 226.01 240.02 219.44 242.75 212.33 C 250.38 212.40 258.02 212.50 265.65 212.54 C 268.63 212.71 268.79 208.89 269.77 206.86 C 274.59 205.71 279.11 203.64 283.39 201.19 C 281.72 198.43 284.23 195.82 284.48 193.05 C 284.63 190.41 283.77 187.87 283.15 185.34 C 287.67 185.46 292.19 185.48 296.71 185.52 C 301.60 192.14 306.58 198.71 311.22 205.50 C 314.33 205.80 317.42 206.21 320.51 206.72 C 319.06 207.09 317.62 207.46 316.18 207.83 C 319.93 209.21 323.97 208.68 327.85 208.42 C 326.35 213.45 325.83 218.78 326.59 223.98 C 327.07 226.77 328.49 229.27 329.25 231.98 C 328.63 236.63 326.61 241.11 323.90 244.92 C 321.54 248.40 317.64 251.60 317.67 256.07 C 320.27 255.11 321.82 252.67 323.35 250.50 C 327.17 244.16 330.96 237.40 331.11 229.78 C 336.08 231.75 340.32 236.15 346.04 235.57 C 339.95 233.72 334.28 230.53 329.27 226.66 C 327.01 221.38 327.74 215.31 328.81 209.82 C 330.63 206.94 333.94 205.40 336.81 203.74 C 341.11 201.09 345.84 204.36 350.28 204.96 C 348.69 203.98 347.08 203.04 345.49 202.07 C 347.50 201.72 349.52 201.42 351.55 201.14 C 352.93 204.73 354.65 208.33 357.99 210.52 C 356.25 203.82 351.38 198.58 349.00 192.13 C 356.18 188.68 362.21 183.40 367.97 178.00 C 371.11 175.23 374.18 172.37 376.76 169.05 C 376.70 167.38 376.66 165.71 376.62 164.04 Z" />
<path fill="#3e3e3e" opacity="1.00" d=" M 337.99 175.37 C 343.21 174.48 348.27 172.60 353.61 172.48 C 353.63 173.57 353.62 174.66 353.59 175.76 C 351.71 176.17 350.44 174.60 349.13 173.58 C 343.76 175.19 338.21 176.07 332.82 177.58 C 331.90 178.72 330.99 179.86 330.04 180.97 C 329.75 176.47 334.69 176.08 337.99 175.37 Z" />
<path fill="#f4722b" opacity="1.00" d=" M 250.20 173.45 C 252.32 173.56 254.59 173.23 256.56 174.23 C 263.98 177.63 270.91 182.87 279.30 183.52 C 281.67 187.12 284.07 192.13 281.28 196.15 C 278.81 199.30 276.13 202.75 272.32 204.30 C 267.76 206.00 263.60 202.37 260.45 199.53 C 257.61 195.90 254.92 191.82 254.30 187.15 C 253.58 182.38 250.33 178.36 250.20 173.45 Z" />
<path fill="#3e3e3e" opacity="1.00" d=" M 336.48 181.92 C 338.12 181.47 338.66 182.05 338.09 183.65 C 336.44 184.09 335.90 183.51 336.48 181.92 Z" />
<path fill="#f4722b" opacity="1.00" d=" M 254.26 192.58 C 255.55 194.71 256.69 196.93 258.15 198.95 C 260.30 201.84 263.70 203.32 266.33 205.67 C 267.52 207.05 266.99 208.93 267.06 210.58 C 257.86 211.85 248.52 211.29 239.26 211.22 C 236.26 207.19 231.79 204.57 228.81 200.49 C 236.62 200.05 244.98 202.01 252.19 198.06 C 252.88 196.23 253.57 194.41 254.26 192.58 Z" />
<path fill="#f4722b" opacity="1.00" d=" M 333.41 198.29 C 336.02 198.20 338.27 199.77 340.55 200.81 C 336.04 202.36 331.87 204.78 328.50 208.18 C 326.71 207.77 324.91 207.40 323.12 207.05 C 326.63 204.23 329.66 200.81 333.41 198.29 Z" />
<path fill="#3e3e3e" opacity="1.00" d=" M 339.80 207.47 C 348.43 203.86 357.25 211.19 359.73 219.17 C 359.93 221.30 358.88 223.26 358.22 225.23 C 352.67 227.84 344.71 227.57 340.97 222.09 C 338.05 217.77 338.68 212.28 339.80 207.47 Z" />
<path fill="#f4722b" opacity="1.00" d=" M 340.53 207.49 C 343.44 207.58 346.69 206.90 349.27 208.63 C 354.18 211.45 357.75 216.42 358.50 222.08 C 357.09 226.85 351.52 226.53 347.67 225.48 C 345.27 223.48 341.89 222.07 340.92 218.85 C 340.01 215.13 340.46 211.27 340.53 207.49 Z" />
<path fill="#3e3e3e" opacity="1.00" d=" M 309.01 228.96 C 309.90 228.02 310.69 226.55 312.16 226.56 C 313.65 234.06 312.38 243.02 305.75 247.75 C 301.57 250.32 298.08 254.66 292.82 254.80 C 294.56 250.43 297.56 246.76 299.98 242.76 C 302.83 238.06 305.66 233.33 309.01 228.96 Z" />
<path fill="#f4722b" opacity="1.00" d=" M 304.35 239.34 C 306.43 236.19 308.06 232.49 311.42 230.47 C 311.21 232.73 310.88 234.98 310.49 237.22 C 306.25 242.66 302.56 249.10 296.05 252.13 C 298.91 247.93 301.77 243.72 304.35 239.34 Z" />
<path fill="#f4722b" opacity="1.00" d=" M 435.95 254.72 C 440.87 254.20 445.89 254.15 450.73 255.29 C 445.81 255.48 440.79 255.86 435.95 254.72 Z" />
<path fill="#f4722b" opacity="1.00" d=" M 432.77 256.34 C 433.68 255.51 435.34 255.28 436.31 256.16 C 437.00 258.08 431.95 258.30 432.77 256.34 Z" />
<path fill="#3e3e3e" opacity="1.00" d=" M 451.68 264.91 C 457.14 266.02 462.25 269.64 465.28 274.29 C 460.54 271.46 456.39 267.78 451.68 264.91 Z" />
<path fill="#f4722b" opacity="1.00" d=" M 331.85 273.64 C 332.33 272.23 333.96 270.45 335.54 271.46 C 339.96 274.26 343.02 278.72 347.48 281.49 C 352.62 284.60 357.37 288.29 362.04 292.06 C 363.77 293.33 363.90 295.65 364.48 297.55 C 366.57 306.25 365.16 315.21 364.57 324.00 C 363.82 343.85 360.66 363.50 357.68 383.12 C 353.90 374.78 348.75 367.08 342.39 360.50 C 337.14 355.31 330.98 351.17 324.66 347.40 C 327.83 328.13 328.67 308.54 328.73 289.03 C 329.01 283.45 326.66 278.31 324.84 273.19 C 327.17 273.34 329.51 273.51 331.85 273.64 Z" />
<path fill="#f4722b" opacity="1.00" d=" M 251.68 279.02 C 253.58 287.16 254.11 295.57 256.51 303.59 C 257.11 303.58 258.30 303.55 258.90 303.54 C 261.82 305.50 264.74 307.75 268.24 308.55 C 270.56 308.58 272.68 307.39 274.83 306.66 C 280.10 304.47 286.05 302.46 289.25 297.37 C 293.79 291.72 295.37 284.55 298.17 278.03 C 298.98 286.71 297.60 295.36 297.67 304.03 C 297.52 305.47 297.91 307.43 296.34 308.24 C 292.03 311.50 286.80 313.20 282.43 316.35 C 280.26 317.90 277.80 319.48 275.00 319.15 C 269.70 318.69 265.56 315.01 260.79 313.07 C 257.22 311.64 253.47 309.14 252.79 305.06 C 251.66 296.44 251.33 287.70 251.68 279.02 Z" />
<path fill="#f4722b" opacity="1.00" d=" M 365.30 294.73 C 372.98 299.79 380.35 305.36 388.53 309.62 C 394.01 312.42 399.52 315.19 405.19 317.62 C 406.84 323.42 409.92 328.74 414.07 333.10 C 414.21 332.33 414.49 330.78 414.64 330.00 C 424.73 331.74 434.83 333.66 445.12 333.69 C 451.22 334.86 455.03 326.38 461.21 329.17 C 463.82 327.16 465.50 324.20 467.63 321.73 C 468.44 326.74 470.04 331.87 469.19 336.97 C 467.82 341.18 462.24 340.27 460.16 337.17 C 461.14 342.47 461.74 347.82 462.69 353.12 C 451.20 345.01 437.11 340.39 423.00 340.98 C 404.72 341.52 387.14 350.54 375.37 364.42 C 368.42 372.46 363.33 382.03 360.40 392.24 C 359.88 389.35 359.21 386.39 359.72 383.45 C 362.45 366.71 364.89 349.90 366.29 332.99 C 366.55 322.37 368.42 311.78 367.30 301.15 C 366.93 298.93 366.05 296.84 365.30 294.73 Z" />
<path fill="#f5e5c1" opacity="1.00" d=" M 157.49 347.67 C 169.99 345.65 183.15 347.59 194.31 353.68 C 207.90 361.01 218.52 373.43 224.11 387.78 C 231.04 405.19 230.89 425.33 223.54 442.58 C 216.73 458.80 203.26 472.40 186.58 478.33 C 177.11 481.77 166.75 482.31 156.86 480.73 C 137.41 477.31 120.67 463.40 112.22 445.76 C 99.93 420.73 103.84 388.43 122.56 367.59 C 131.57 357.35 144.00 350.01 157.49 347.67 Z" />
<path fill="#f5e5c1" opacity="1.00" d=" M 285.48 347.85 C 298.04 345.60 311.33 347.34 322.64 353.33 C 336.32 360.49 347.07 372.81 352.81 387.10 C 360.01 404.66 359.97 425.10 352.52 442.58 C 345.71 458.80 332.25 472.39 315.57 478.33 C 306.46 481.65 296.53 482.25 286.98 480.92 C 267.56 477.90 250.60 464.45 241.84 447.06 C 228.90 422.04 232.43 389.30 251.12 368.07 C 259.96 357.84 272.16 350.40 285.48 347.85 Z" />
<path fill="#f5e5c1" opacity="1.00" d=" M 414.57 347.82 C 426.87 345.67 439.87 347.27 451.01 353.03 C 464.74 360.02 475.63 372.18 481.51 386.38 C 489.53 405.46 489.00 428.10 479.63 446.61 C 472.75 460.39 460.93 471.83 446.58 477.57 C 436.57 481.64 425.41 482.46 414.80 480.73 C 395.35 477.25 378.58 463.38 370.14 445.70 C 357.86 420.61 361.86 388.33 380.61 367.47 C 389.43 357.52 401.48 350.34 414.57 347.82 Z" />
<path fill="#f5e5c1" opacity="1.00" d=" M 61.44 352.44 C 63.42 350.89 65.06 347.98 67.94 348.52 C 77.69 349.12 87.44 349.77 97.18 350.47 C 95.23 394.16 93.47 437.87 91.45 481.56 C 80.11 481.17 68.79 480.33 57.45 479.93 C 58.55 449.57 59.80 419.23 60.80 388.87 C 57.85 391.70 54.98 394.61 52.23 397.64 C 46.76 391.04 41.25 384.48 35.79 377.87 C 44.31 369.36 52.99 361.02 61.44 352.44 Z" />
<path fill="#3e3e3e" opacity="1.00" d=" M 160.51 388.74 C 168.85 386.55 178.05 388.79 184.57 394.37 C 195.28 403.31 198.62 418.72 195.65 431.94 C 192.87 443.84 183.28 454.34 171.07 456.72 C 160.28 458.63 149.46 452.31 143.71 443.40 C 137.76 434.54 136.83 423.18 138.93 412.94 C 141.26 401.89 149.25 391.56 160.51 388.74 Z" />
<path fill="#3e3e3e" opacity="1.00" d=" M 289.50 388.74 C 298.33 386.39 308.06 389.11 314.67 395.33 C 325.08 404.95 327.79 420.76 324.07 434.04 C 320.63 445.34 310.99 455.09 299.07 456.87 C 287.30 458.38 276.02 450.52 270.87 440.29 C 266.72 432.56 266.32 423.44 267.50 414.91 C 269.40 403.12 277.51 391.74 289.50 388.74 Z" />
<path fill="#3e3e3e" opacity="1.00" d=" M 420.18 388.34 C 427.14 387.09 434.55 388.60 440.33 392.70 C 448.40 398.14 453.19 407.54 454.27 417.07 C 454.98 424.25 454.61 431.82 451.33 438.39 C 447.11 447.75 438.34 455.32 428.04 456.87 C 416.75 458.32 405.83 451.12 400.50 441.47 C 395.18 432.14 394.75 420.62 397.56 410.43 C 400.50 399.78 409.07 390.40 420.18 388.34 Z" />
</svg>
