<?xml version="1.0" encoding="UTF-8" ?>
<!DOCTYPE svg PUBLIC "-//W3C//DTD SVG 1.1//EN" "http://www.w3.org/Graphics/SVG/1.1/DTD/svg11.dtd">
<svg width="512pt" height="512pt" viewBox="0 0 512 512" version="1.1" xmlns="http://www.w3.org/2000/svg">
<path fill="#3e3e3e" opacity="1.00" d=" M 0.00 0.00 L 512.00 0.00 L 512.00 512.00 L 0.00 512.00 L 0.00 0.00 Z" />
<path fill="#f5e5c1" opacity="1.00" d=" M 189.73 48.12 C 201.91 35.78 218.81 28.70 235.84 26.39 C 250.10 25.19 265.60 25.87 277.88 34.08 C 290.13 42.44 295.97 57.56 296.65 71.94 C 296.66 84.09 291.16 95.50 284.34 105.27 C 276.40 116.74 266.56 126.80 255.90 135.76 C 266.18 135.75 276.47 135.73 286.76 135.77 C 286.64 143.76 287.19 151.75 286.99 159.75 C 260.25 159.74 233.50 159.75 206.75 159.75 C 206.74 152.37 206.75 144.99 206.75 137.60 C 215.57 136.12 223.66 131.94 231.10 127.11 C 241.37 120.31 250.87 111.92 257.33 101.33 C 260.65 95.86 262.93 89.41 262.10 82.94 C 261.46 77.20 258.02 72.01 253.43 68.63 C 249.03 65.46 243.22 65.58 238.12 66.49 C 228.31 68.45 219.82 74.25 212.44 80.75 C 204.94 69.83 197.17 59.09 189.73 48.12 Z" />
<path fill="#f5e5c1" opacity="1.00" d=" M 376.77 99.11 C 390.44 88.35 406.36 79.50 423.84 77.27 C 439.59 76.02 456.44 78.17 469.75 87.27 C 484.21 97.23 490.43 118.65 481.19 134.08 C 474.60 144.91 463.40 152.00 451.86 156.62 C 458.88 159.42 465.76 163.78 469.36 170.65 C 473.46 178.37 471.95 188.11 467.15 195.16 C 461.97 202.45 453.90 207.24 445.39 209.64 C 427.00 214.83 405.86 210.81 391.57 197.82 C 395.29 191.43 398.98 185.03 402.72 178.66 C 410.61 183.56 419.43 187.83 428.91 187.86 C 433.81 187.79 439.26 186.45 442.38 182.37 C 444.37 179.98 443.32 176.63 441.74 174.33 C 439.43 170.95 435.52 169.14 431.67 168.12 C 423.84 166.07 415.69 166.52 407.68 166.50 C 407.33 159.60 407.56 152.70 407.51 145.80 C 418.37 145.83 429.74 144.76 439.42 139.43 C 444.27 136.82 448.54 131.14 446.37 125.44 C 444.62 119.33 438.12 116.07 432.06 116.50 C 419.15 117.23 407.39 123.78 397.17 131.28 C 390.36 120.56 383.54 109.85 376.77 99.11 Z" />
<path fill="#f5e5c1" opacity="1.00" d=" M 45.42 97.45 C 49.58 93.49 53.31 89.02 57.94 85.59 C 68.35 85.75 78.75 86.90 89.17 87.42 C 87.26 131.14 85.46 174.85 83.45 218.56 C 72.11 218.17 60.78 217.34 49.44 216.92 C 50.55 186.57 51.80 156.22 52.80 125.87 C 49.86 128.70 46.98 131.61 44.25 134.64 C 38.76 128.05 33.25 121.47 27.79 114.86 C 33.54 108.93 39.68 103.39 45.42 97.45 Z" />
<path fill="#f4722b" opacity="1.00" d=" M 294.67 139.96 C 296.63 140.59 298.62 141.14 300.61 141.72 C 301.95 142.03 303.30 142.35 304.65 142.70 C 305.09 142.83 305.96 143.08 306.39 143.21 C 307.79 143.72 309.19 144.22 310.59 144.73 C 311.60 145.07 312.61 145.42 313.62 145.78 C 314.06 145.89 314.94 146.12 315.38 146.24 C 316.40 146.57 317.42 146.90 318.46 147.22 C 319.50 147.78 320.54 148.34 321.58 148.91 C 322.04 148.95 322.97 149.02 323.44 149.06 C 324.47 149.68 325.51 150.31 326.55 150.93 C 327.01 150.98 327.93 151.07 328.39 151.12 C 338.41 156.37 348.44 161.70 357.62 168.35 C 361.76 171.18 365.51 174.52 369.54 177.49 C 374.99 182.17 379.85 187.48 385.01 192.46 C 384.20 195.53 383.24 198.97 385.17 201.84 C 389.09 207.71 395.94 210.42 401.60 214.21 C 407.42 221.64 411.33 230.37 415.87 238.60 C 415.94 239.05 416.06 239.94 416.12 240.39 C 417.02 242.10 417.90 243.82 418.78 245.55 C 419.10 246.57 419.43 247.59 419.77 248.62 C 419.88 249.06 420.10 249.94 420.21 250.39 C 420.58 251.39 420.95 252.39 421.32 253.41 C 421.65 254.40 421.98 255.40 422.30 256.41 C 422.63 257.40 422.97 258.40 423.30 259.41 C 423.64 260.41 423.99 261.41 424.33 262.41 C 424.79 264.15 425.21 265.89 425.68 267.62 C 425.99 268.96 426.30 270.29 426.66 271.62 C 426.98 272.97 427.30 274.31 427.66 275.65 C 427.99 277.34 428.31 279.03 428.72 280.71 C 428.91 282.22 429.09 283.74 429.31 285.26 C 430.21 288.51 430.00 291.90 430.21 295.22 C 431.43 298.67 430.96 302.38 431.01 305.96 C 430.88 312.72 431.25 319.49 430.79 326.24 C 429.80 329.14 429.97 332.23 429.76 335.24 C 429.08 338.01 428.86 340.86 428.37 343.67 C 428.13 344.55 427.89 345.44 427.66 346.33 C 427.28 347.99 426.97 349.66 426.65 351.34 C 426.18 353.42 425.84 355.52 425.40 357.61 C 424.99 358.61 424.58 359.60 424.18 360.60 C 424.09 361.05 423.93 361.95 423.84 362.40 C 423.27 363.79 422.72 365.20 422.16 366.60 C 422.07 367.04 421.89 367.94 421.80 368.39 C 421.42 369.39 421.04 370.39 420.68 371.40 C 420.34 372.40 420.00 373.40 419.68 374.40 C 419.37 375.42 419.08 376.44 418.80 377.47 C 418.22 378.51 417.64 379.56 417.06 380.61 C 417.04 381.10 417.01 382.10 416.99 382.60 C 416.50 383.05 415.51 383.95 415.01 384.40 C 414.99 384.90 414.95 385.89 414.93 386.39 C 408.75 397.80 402.47 409.21 394.52 419.51 C 392.73 421.41 391.06 423.43 389.49 425.53 C 383.57 432.25 377.09 438.45 370.68 444.69 C 364.25 449.32 358.47 454.85 351.56 458.78 C 343.47 463.99 334.95 468.49 326.39 472.88 C 325.94 472.93 325.02 473.02 324.56 473.07 C 323.52 473.68 322.48 474.30 321.45 474.92 C 320.99 474.98 320.07 475.11 319.62 475.17 C 318.22 475.70 316.81 476.22 315.41 476.75 C 314.41 477.05 313.41 477.37 312.41 477.69 C 311.40 478.01 310.40 478.34 309.40 478.68 C 308.39 479.04 307.38 479.41 306.38 479.79 C 305.94 479.90 305.06 480.13 304.62 480.24 C 302.87 480.76 301.11 481.24 299.37 481.78 C 298.46 481.92 297.55 482.08 296.65 482.24 C 295.31 482.64 293.97 483.01 292.63 483.39 C 290.98 483.74 289.33 484.05 287.67 484.38 C 285.70 484.76 283.70 485.04 281.72 485.38 C 277.96 486.40 273.94 485.48 270.24 486.79 C 263.48 487.25 256.70 486.88 249.93 487.01 C 246.36 486.97 242.68 487.41 239.24 486.23 C 236.41 486.02 233.57 485.96 230.74 485.80 C 229.06 485.34 227.36 484.97 225.67 484.60 C 223.24 484.16 220.78 483.85 218.35 483.40 C 217.02 483.04 215.70 482.69 214.38 482.32 C 213.04 482.00 211.70 481.68 210.37 481.34 C 209.04 481.01 207.72 480.69 206.40 480.36 C 205.40 480.01 204.40 479.66 203.40 479.31 C 202.39 478.94 201.39 478.57 200.39 478.20 C 199.95 478.10 199.06 477.90 198.61 477.80 C 197.61 477.41 196.60 477.03 195.60 476.66 C 194.59 476.36 193.57 476.06 192.56 475.78 C 191.52 475.26 190.48 474.75 189.44 474.25 C 188.40 473.90 187.38 473.54 186.35 473.18 C 185.86 473.12 184.88 473.01 184.39 472.96 C 183.94 472.47 183.04 471.50 182.59 471.01 C 182.10 470.99 181.11 470.95 180.62 470.93 C 169.44 464.86 158.17 458.78 148.22 450.78 C 146.00 448.98 143.73 447.24 141.46 445.51 C 134.82 439.49 128.37 433.22 122.43 426.51 C 111.27 413.92 102.75 399.36 95.14 384.43 C 95.07 383.97 94.94 383.06 94.88 382.61 C 93.97 380.89 93.09 379.17 92.21 377.45 C 91.92 376.43 91.62 375.41 91.32 374.40 C 90.99 373.40 90.65 372.40 90.32 371.40 C 89.95 370.39 89.58 369.39 89.20 368.39 C 89.10 367.94 88.90 367.06 88.79 366.61 C 88.42 365.61 88.05 364.60 87.68 363.60 C 87.34 362.59 87.00 361.59 86.67 360.58 C 86.21 358.85 85.79 357.11 85.33 355.38 C 84.99 354.03 84.65 352.68 84.28 351.34 C 84.08 350.45 83.89 349.55 83.70 348.67 C 83.29 347.01 82.95 345.34 82.60 343.68 C 82.13 340.86 81.93 338.01 81.24 335.24 C 81.05 332.74 80.95 330.25 80.76 327.76 C 79.21 322.31 80.30 316.57 80.01 311.00 C 80.30 305.42 79.21 299.69 80.76 294.24 C 80.96 291.75 81.05 289.24 81.24 286.75 C 81.79 284.76 82.05 282.71 82.31 280.68 C 82.80 278.57 83.19 276.44 83.72 274.34 C 83.91 273.44 84.09 272.55 84.27 271.65 C 84.65 270.31 84.98 268.96 85.32 267.61 C 85.80 265.87 86.25 264.11 86.75 262.37 C 86.85 261.93 87.07 261.04 87.17 260.60 C 87.73 259.20 88.28 257.79 88.84 256.40 C 88.93 255.95 89.10 255.06 89.19 254.61 C 89.58 253.61 89.97 252.61 90.35 251.60 C 90.64 250.58 90.92 249.56 91.19 248.53 C 91.76 247.49 92.34 246.44 92.93 245.40 C 92.96 244.94 93.02 244.02 93.06 243.56 C 93.68 242.52 94.31 241.48 94.94 240.44 C 94.98 239.99 95.07 239.07 95.11 238.61 C 100.11 228.95 105.41 219.45 111.43 210.39 C 114.65 205.98 118.25 201.86 121.48 197.46 C 124.69 193.68 128.40 190.37 131.52 186.52 C 134.98 183.68 138.09 180.43 141.46 177.48 C 145.86 174.25 149.97 170.65 154.38 167.44 C 163.44 161.41 172.95 156.11 182.62 151.11 C 183.07 151.07 183.99 150.98 184.44 150.94 C 185.48 150.31 186.52 149.68 187.57 149.05 C 188.04 149.02 188.97 148.97 189.44 148.95 C 190.48 148.32 191.52 147.69 192.56 147.06 C 193.02 147.01 193.94 146.91 194.40 146.86 C 195.91 146.25 197.43 145.67 198.94 145.06 C 198.83 150.67 198.17 156.39 199.35 161.92 C 200.22 165.57 204.06 166.95 207.26 167.86 C 181.42 176.21 157.93 191.70 140.24 212.31 C 117.56 238.11 104.49 272.10 103.66 306.42 C 117.59 306.41 131.52 306.39 145.46 306.43 C 145.94 300.36 143.60 293.20 148.21 288.22 C 150.40 288.20 152.60 288.20 154.80 288.22 C 159.39 293.21 157.08 300.36 157.55 306.44 C 167.08 306.37 176.62 306.43 186.16 306.41 C 187.41 289.65 194.79 273.52 206.67 261.64 C 212.19 256.76 218.08 252.20 224.79 249.05 C 232.18 245.35 240.30 243.42 248.45 242.29 C 248.40 229.37 248.39 216.46 248.45 203.55 C 242.37 203.08 235.25 205.37 230.24 200.83 C 230.21 198.62 230.20 196.41 230.22 194.21 C 235.20 189.61 242.36 191.92 248.44 191.45 C 248.42 183.54 248.36 175.63 248.47 167.72 C 252.49 167.76 256.51 167.76 260.53 167.74 C 260.61 175.64 260.59 183.54 260.55 191.45 C 264.70 191.44 268.87 191.25 273.03 191.47 C 275.18 191.51 277.28 192.65 278.47 194.45 C 279.07 196.48 278.78 198.65 278.83 200.75 C 273.85 205.42 266.65 203.07 260.55 203.55 C 260.61 216.42 260.55 229.29 260.58 242.16 C 279.62 243.62 298.21 252.90 309.94 268.09 C 318.71 278.95 323.69 292.56 324.84 306.42 C 333.38 306.42 341.91 306.39 350.45 306.43 C 350.91 300.34 348.62 293.19 353.21 288.19 C 356.27 288.13 360.40 287.48 361.78 291.03 C 363.48 295.94 362.25 301.34 362.55 306.44 C 376.15 306.37 389.75 306.42 403.35 306.42 C 402.79 280.96 395.31 255.78 382.42 233.86 C 362.70 200.63 329.78 175.50 292.35 165.70 C 297.00 157.93 294.40 148.49 294.67 139.96 Z" />
<path fill="#3e3e3e" opacity="1.00" d=" M 218.58 264.49 C 227.13 257.68 237.66 253.61 248.46 252.25 C 248.40 257.12 248.41 261.99 248.41 266.87 C 235.49 268.77 223.66 276.63 216.92 287.81 C 213.29 293.41 211.56 299.95 210.50 306.48 C 205.55 306.38 200.59 306.41 195.63 306.41 C 196.61 299.47 198.08 292.53 201.21 286.21 C 204.92 277.54 211.59 270.63 218.58 264.49 Z" />
<path fill="#3e3e3e" opacity="1.00" d=" M 260.53 252.22 C 275.44 253.98 289.76 261.16 299.52 272.65 C 307.55 282.12 312.62 294.07 313.70 306.45 C 309.37 306.40 305.04 306.40 300.71 306.43 C 299.24 299.76 297.61 292.94 293.70 287.21 C 286.56 275.66 273.94 268.07 260.51 266.51 C 260.61 261.74 260.59 256.98 260.53 252.22 Z" />
<path fill="#3e3e3e" opacity="1.00" d=" M 236.70 277.88 C 240.34 275.79 244.40 274.65 248.42 273.52 C 248.42 284.49 248.40 295.46 248.44 306.43 C 237.90 306.38 227.37 306.42 216.84 306.41 C 218.61 300.17 220.26 293.63 224.53 288.56 C 228.06 284.48 231.89 280.46 236.70 277.88 Z" />
<path fill="#3e3e3e" opacity="1.00" d=" M 260.56 273.35 C 268.35 275.08 276.11 278.29 281.56 284.32 C 287.98 290.00 291.45 298.15 292.87 306.45 C 282.09 306.37 271.32 306.41 260.54 306.44 C 260.61 295.41 260.57 284.38 260.56 273.35 Z" />
<path fill="#3e3e3e" opacity="1.00" d=" M 103.72 318.59 C 117.63 318.56 131.55 318.62 145.46 318.56 C 145.47 323.39 145.26 328.24 145.48 333.08 C 145.48 335.30 147.09 337.01 148.21 338.78 C 150.40 338.79 152.59 338.80 154.78 338.78 C 155.95 336.99 157.57 335.22 157.54 332.94 C 157.75 328.15 157.53 323.35 157.56 318.56 C 167.14 318.60 176.71 318.60 186.29 318.56 C 187.76 330.30 191.59 341.87 198.55 351.53 C 209.71 368.10 228.71 378.55 248.43 380.71 C 248.41 394.29 248.39 407.87 248.44 421.46 C 242.37 421.92 235.20 419.60 230.23 424.21 C 230.20 426.39 230.20 428.57 230.21 430.76 C 235.18 435.42 242.36 433.05 248.45 433.53 C 248.38 442.47 248.42 451.40 248.42 460.33 C 206.60 459.11 165.64 439.37 138.92 407.12 C 117.81 382.58 105.63 350.82 103.72 318.59 Z" />
<path fill="#3e3e3e" opacity="1.00" d=" M 196.12 318.54 C 201.04 318.59 205.95 318.60 210.86 318.59 C 213.46 337.53 229.43 353.50 248.36 356.13 C 248.42 360.70 248.42 365.27 248.46 369.84 C 232.12 368.22 216.67 359.25 207.11 345.92 C 201.02 338.03 197.49 328.36 196.12 318.54 Z" />
<path fill="#3e3e3e" opacity="1.00" d=" M 217.39 318.58 C 227.74 318.58 238.09 318.60 248.44 318.57 C 248.40 328.67 248.39 338.77 248.45 348.87 C 239.38 346.91 230.66 342.24 225.07 334.67 C 221.32 329.96 219.06 324.30 217.39 318.58 Z" />
<path fill="#3e3e3e" opacity="1.00" d=" M 260.56 318.56 C 271.24 318.61 281.92 318.57 292.61 318.58 C 290.04 328.03 284.86 337.17 276.50 342.61 C 271.80 346.04 266.19 347.81 260.55 348.94 C 260.60 338.81 260.58 328.68 260.56 318.56 Z" />
<path fill="#3e3e3e" opacity="1.00" d=" M 300.13 318.64 C 304.59 318.57 309.04 318.57 313.50 318.58 C 311.12 334.39 302.67 349.23 289.66 358.65 C 281.27 365.15 270.96 368.52 260.58 370.10 C 260.57 365.63 260.58 361.17 260.56 356.71 C 266.98 355.28 273.56 353.78 279.14 350.11 C 290.33 343.38 298.20 331.55 300.13 318.64 Z" />
<path fill="#3e3e3e" opacity="1.00" d=" M 324.71 318.57 C 333.29 318.58 341.86 318.60 350.44 318.56 C 350.46 323.71 350.25 328.86 350.46 334.00 C 350.44 336.28 352.09 338.04 353.27 339.84 C 356.58 340.06 361.01 340.26 362.10 336.26 C 363.22 330.46 362.33 324.45 362.56 318.57 C 376.13 318.61 389.71 318.57 403.28 318.59 C 401.09 358.90 382.09 398.11 351.18 424.19 C 326.22 446.02 293.63 458.65 260.58 460.31 C 260.56 451.39 260.61 442.46 260.55 433.54 C 264.76 433.42 269.10 434.09 273.24 433.11 C 278.33 431.69 278.31 423.26 273.21 421.87 C 269.08 420.90 264.75 421.57 260.55 421.46 C 260.61 407.92 260.55 394.38 260.58 380.84 C 275.14 379.63 289.46 374.19 300.54 364.56 C 314.37 353.33 322.70 336.15 324.71 318.57 Z" />
</svg>
