<?xml version="1.0" encoding="UTF-8" ?>
<!DOCTYPE svg PUBLIC "-//W3C//DTD SVG 1.1//EN" "http://www.w3.org/Graphics/SVG/1.1/DTD/svg11.dtd">
<svg width="512pt" height="512pt" viewBox="0 0 512 512" version="1.1" xmlns="http://www.w3.org/2000/svg">
<path fill="#3e3e3e" opacity="1.00" d=" M 0.00 0.00 L 256.67 0.00 C 257.76 5.59 258.23 11.89 254.93 16.86 C 250.03 23.35 242.70 27.19 235.48 30.52 C 229.60 35.12 222.32 37.30 215.03 38.36 C 217.72 40.52 220.40 42.80 222.27 45.75 C 223.65 47.73 224.66 50.22 227.12 51.10 C 225.94 48.60 224.27 46.38 222.52 44.25 C 228.02 43.12 233.75 41.86 238.23 38.26 C 241.35 35.72 244.81 33.36 246.89 29.82 C 249.46 25.52 252.58 21.59 255.17 17.31 C 257.25 13.95 258.40 10.03 261.05 7.03 C 263.09 4.73 265.06 2.38 267.00 0.00 L 334.73 0.00 C 333.59 1.63 332.32 3.17 330.93 4.59 C 333.05 2.96 335.21 1.39 337.48 0.00 L 512.00 0.00 L 512.00 365.21 C 507.50 363.73 502.60 362.98 497.94 364.11 C 495.41 364.73 493.87 366.99 492.16 368.76 C 481.83 366.89 471.31 364.41 462.42 358.58 C 456.01 354.94 450.95 348.43 449.89 341.05 C 449.42 336.88 453.21 334.40 455.27 331.31 C 452.57 332.70 449.76 333.85 446.85 334.71 C 444.51 341.29 440.33 346.95 437.23 353.17 C 435.97 355.90 433.17 358.26 430.00 357.84 C 426.60 356.68 423.38 355.04 419.98 353.90 C 416.52 352.93 414.67 349.58 413.40 346.50 C 411.92 342.78 410.49 338.99 409.91 335.02 C 409.33 331.30 410.70 327.68 411.81 324.20 C 409.14 323.82 406.72 324.73 404.88 326.68 C 404.55 326.43 403.88 325.92 403.55 325.67 C 409.76 305.49 415.74 285.24 421.90 265.05 C 419.84 263.59 417.32 263.02 415.01 262.07 C 395.32 254.70 375.68 247.19 355.99 239.79 C 358.69 231.62 362.64 223.92 365.05 215.65 C 359.13 216.55 353.04 216.67 347.27 218.39 C 343.26 228.24 340.33 238.54 336.46 248.46 C 353.92 254.93 371.57 260.91 389.10 267.21 C 393.93 269.04 398.98 270.30 403.57 272.72 C 400.16 286.22 396.06 299.53 392.47 312.98 C 391.23 317.76 389.54 322.44 388.89 327.36 C 388.03 324.92 386.84 321.81 383.90 321.45 C 381.54 320.92 379.48 322.36 377.59 323.52 C 378.19 319.22 379.60 315.11 380.87 310.98 C 384.02 299.91 387.21 288.87 390.51 277.85 C 380.85 274.24 370.99 271.13 361.15 268.06 C 359.22 268.84 357.23 270.06 355.07 269.57 C 352.70 269.19 352.06 266.53 351.00 264.77 C 341.06 260.91 330.71 258.25 320.73 254.52 C 319.72 251.70 317.75 249.44 315.32 247.74 C 314.55 249.99 313.79 252.25 313.04 254.51 C 315.36 255.21 317.93 255.56 319.88 257.13 C 321.23 258.41 321.95 260.18 322.87 261.78 C 327.06 260.79 333.18 262.82 332.70 268.02 C 333.30 272.82 327.15 276.13 323.19 273.75 C 320.62 272.63 320.14 269.68 319.44 267.29 C 313.91 266.60 308.47 265.34 303.11 263.86 C 294.32 261.70 289.48 250.98 291.72 242.67 C 295.87 235.38 305.28 235.62 312.58 235.82 C 313.23 234.44 313.32 232.64 314.52 231.60 C 317.56 230.01 321.12 232.09 322.46 234.96 C 322.51 236.91 320.50 237.63 319.24 238.64 C 319.29 239.92 319.35 241.20 319.42 242.48 C 321.20 242.95 323.00 243.42 324.79 243.89 C 326.41 241.13 326.93 237.94 328.08 235.01 C 331.79 230.53 333.96 225.12 336.44 219.92 C 334.44 220.12 332.43 220.40 330.42 220.21 C 334.67 217.02 339.91 217.58 344.89 217.47 C 352.17 215.49 359.74 215.14 367.19 214.00 C 376.17 213.54 385.04 211.68 394.06 211.77 C 399.41 211.70 404.72 212.64 410.07 212.63 C 406.91 207.15 399.96 207.09 395.09 203.94 C 388.44 199.77 381.85 195.38 376.36 189.72 C 376.39 188.65 376.45 187.58 376.53 186.52 C 374.91 186.04 373.30 185.57 371.71 185.04 C 368.51 181.69 364.89 178.71 362.23 174.88 C 366.92 170.84 372.06 167.32 377.65 164.65 C 384.39 161.46 389.63 156.01 394.74 150.74 C 396.36 148.99 398.31 151.29 399.70 152.20 C 403.92 155.15 406.16 159.89 409.01 164.02 C 412.17 168.83 415.86 173.36 418.12 178.72 C 422.79 188.38 425.29 198.86 429.16 208.83 C 431.30 214.24 432.04 220.06 433.64 225.63 C 433.80 225.66 434.11 225.73 434.27 225.77 C 437.29 218.09 441.52 210.98 445.83 203.97 C 451.29 195.17 458.39 187.57 464.41 179.17 C 463.48 177.21 462.17 175.27 462.25 173.01 C 462.19 167.68 461.16 162.37 461.67 157.03 C 462.18 149.39 465.43 142.32 468.39 135.37 C 472.34 127.77 476.42 119.49 483.80 114.66 C 485.25 122.11 483.81 129.69 484.48 137.19 C 485.05 128.03 487.39 119.01 486.51 109.77 C 481.42 112.72 476.49 116.08 472.50 120.45 C 467.40 125.98 463.71 132.61 460.23 139.24 C 456.72 135.77 451.98 133.56 449.42 129.19 C 450.63 131.31 451.82 133.54 451.96 136.03 C 452.41 141.75 452.90 147.60 451.42 153.22 C 448.43 149.40 446.93 144.71 444.87 140.37 C 446.19 140.02 447.50 139.66 448.83 139.31 C 448.32 134.97 443.66 133.69 440.83 131.20 C 438.25 126.42 436.97 121.04 434.62 116.14 C 430.07 106.48 426.91 96.24 424.08 85.97 C 422.66 81.64 421.42 77.07 418.46 73.49 C 415.38 70.25 416.40 65.30 417.47 61.41 C 418.89 56.36 423.51 53.41 427.27 50.19 C 431.18 47.00 437.28 46.73 439.84 41.91 C 442.11 37.92 444.52 33.99 446.73 29.96 C 445.78 27.46 444.24 24.04 441.10 24.06 C 431.63 24.00 423.14 28.82 415.11 33.29 C 415.44 31.91 415.77 30.53 416.10 29.14 C 412.05 32.59 408.78 36.85 405.94 41.31 C 409.79 42.53 413.29 40.26 416.65 38.72 C 420.04 37.13 423.30 35.30 426.67 33.68 C 431.08 31.55 435.89 30.50 440.55 29.06 C 441.69 31.63 442.26 34.96 440.24 37.28 C 436.18 42.23 428.81 41.17 423.97 44.95 C 417.35 50.04 414.33 58.82 415.16 66.99 C 414.63 66.88 413.55 66.65 413.02 66.53 C 416.16 81.48 425.04 94.38 428.71 109.13 C 429.77 112.59 428.45 116.45 430.22 119.73 C 435.99 131.90 443.04 143.71 445.93 157.02 C 447.51 164.31 449.61 171.53 450.43 178.97 C 450.84 182.10 448.18 184.45 445.30 184.91 C 445.27 187.58 445.68 190.34 444.99 192.95 C 444.30 195.25 441.85 195.92 439.88 196.69 C 436.09 184.96 432.60 172.82 425.44 162.60 C 422.12 157.81 419.11 152.83 415.87 147.99 C 413.92 145.05 411.05 142.85 409.17 139.87 C 408.05 136.94 407.53 133.81 406.54 130.83 C 402.86 131.67 401.47 135.53 399.22 138.11 C 391.19 149.05 380.76 157.97 369.70 165.71 C 362.44 170.09 355.14 175.93 346.17 175.45 C 346.44 176.28 346.73 177.11 347.04 177.94 C 323.93 171.42 300.91 164.62 277.79 158.12 C 275.13 154.29 271.43 151.33 267.26 149.27 C 268.56 137.43 272.57 125.14 268.61 113.40 C 266.50 108.78 268.03 101.99 273.22 100.20 C 277.35 98.86 281.78 99.76 286.04 99.56 C 296.49 99.18 306.78 101.25 317.12 102.41 C 329.64 103.62 341.50 108.34 352.71 113.83 C 350.52 104.72 343.92 97.32 341.95 88.10 C 340.60 81.92 335.66 77.50 333.13 71.87 C 334.11 68.49 336.38 65.67 337.76 62.44 C 341.07 56.02 341.79 48.74 344.18 41.99 C 345.49 39.33 343.23 37.12 341.87 35.07 C 342.60 30.10 342.57 25.04 343.52 20.11 C 344.65 17.21 347.78 14.32 345.91 11.03 C 344.30 7.71 339.69 7.83 337.58 10.56 C 334.61 13.78 330.44 10.45 327.96 8.27 C 325.75 10.26 323.47 12.17 321.15 14.03 C 324.48 17.64 328.87 20.12 333.74 20.91 C 333.24 32.00 332.20 43.68 326.36 53.41 C 324.34 56.41 325.27 60.31 323.43 63.37 C 321.56 66.84 320.33 70.58 319.23 74.35 C 311.82 77.34 303.85 78.43 296.07 79.98 C 292.90 80.72 288.69 79.85 287.39 76.53 C 286.13 73.44 283.35 71.10 279.97 70.80 C 272.38 70.15 264.71 71.20 257.15 70.06 C 251.09 69.47 244.68 67.30 238.76 69.63 C 236.17 70.50 235.63 73.29 235.46 75.68 C 231.88 75.67 228.35 76.21 224.88 77.03 C 226.28 71.03 228.78 65.21 228.75 58.96 C 228.00 66.39 223.06 72.90 224.26 80.59 C 228.73 78.19 234.39 76.39 239.20 78.90 C 241.65 80.56 243.94 78.11 246.35 77.60 C 252.96 76.15 259.36 73.80 266.04 72.66 C 270.32 71.74 273.99 74.64 277.89 75.86 C 282.56 77.80 288.87 78.10 290.93 83.56 C 299.29 82.70 307.55 80.88 315.96 80.47 C 319.98 80.13 323.82 81.94 327.83 81.47 C 328.88 83.91 329.95 86.34 331.05 88.76 C 324.77 89.26 318.08 87.21 312.19 90.08 C 307.66 91.77 302.81 92.30 298.06 92.97 C 288.33 93.99 278.61 95.10 268.99 96.88 C 265.84 97.49 260.78 96.63 260.08 100.93 C 258.01 112.21 255.84 123.55 255.33 135.04 C 255.23 137.52 255.51 140.84 258.12 141.97 C 259.84 146.56 262.91 150.45 265.59 154.51 C 260.06 153.07 254.66 151.09 249.04 150.08 C 247.57 149.42 246.80 151.15 245.97 151.97 C 239.42 160.73 232.87 169.51 226.28 178.24 C 223.94 181.35 221.35 184.41 220.19 188.20 C 218.47 193.38 215.99 198.24 213.76 203.20 C 216.85 205.69 221.58 205.19 225.22 206.74 C 235.83 191.98 246.24 177.07 256.82 162.29 C 262.06 164.06 267.35 165.73 272.67 167.25 C 272.40 170.22 274.01 172.80 275.15 175.40 C 269.91 174.87 265.06 172.70 260.06 171.22 C 249.58 186.17 239.72 201.55 229.10 216.40 C 224.57 215.03 220.10 213.48 215.47 212.46 C 218.30 219.26 222.45 225.36 226.43 231.51 C 231.34 240.76 237.27 249.42 242.67 258.38 C 245.81 263.76 249.87 268.51 253.46 273.60 C 255.41 276.58 258.74 278.07 261.74 279.77 C 261.10 273.82 262.53 267.26 267.53 263.48 C 273.92 257.58 283.90 259.96 290.21 264.74 C 294.25 267.44 294.97 273.39 292.37 277.32 C 290.78 279.72 291.46 282.71 291.40 285.42 C 294.39 286.65 297.22 288.30 299.52 290.60 C 299.04 287.06 300.29 283.78 302.28 280.92 C 302.35 279.13 302.42 277.35 302.49 275.57 C 303.88 275.45 305.27 275.34 306.67 275.24 C 308.58 279.63 314.44 279.37 316.53 283.56 C 318.96 287.78 317.57 293.82 313.26 296.28 C 310.01 298.57 305.97 297.16 302.54 296.16 C 303.26 299.38 303.11 302.69 302.31 305.89 C 303.38 305.76 304.46 305.63 305.55 305.50 C 308.13 302.63 311.80 299.58 315.94 301.02 C 320.25 301.93 322.29 306.02 325.01 308.97 C 330.03 311.24 335.31 312.96 340.03 315.86 C 343.56 318.14 348.02 317.41 351.77 319.13 C 355.43 320.75 359.69 322.49 361.54 326.29 C 362.40 330.46 363.09 334.67 364.60 338.68 C 366.42 338.97 368.24 339.28 370.08 339.49 C 375.10 339.45 380.14 339.74 385.13 339.08 C 380.32 356.75 375.30 374.36 370.39 392.01 C 355.80 386.85 341.30 381.42 326.76 376.11 C 325.60 375.62 324.40 375.47 323.17 375.67 C 326.40 373.82 329.44 371.62 331.99 368.90 C 341.52 372.67 351.07 376.38 360.70 379.91 C 364.00 368.93 367.20 357.91 370.34 346.89 C 371.27 344.87 369.77 343.00 368.32 341.73 C 366.06 339.92 363.05 339.97 360.37 339.33 C 358.79 338.16 358.03 335.88 356.01 335.38 C 350.95 334.11 345.74 332.74 341.52 329.52 C 336.03 325.16 329.73 321.73 322.98 319.80 C 323.03 324.13 325.19 327.93 327.27 331.59 C 329.86 332.03 333.20 331.65 334.86 334.17 C 336.44 336.68 337.21 340.04 336.08 342.88 C 334.86 345.68 331.46 345.68 328.92 346.28 C 327.96 345.44 326.95 344.67 325.95 343.91 C 323.92 341.03 324.02 337.49 324.70 334.20 C 322.55 331.62 320.75 328.77 319.39 325.70 C 310.80 324.61 303.74 318.32 299.46 311.09 C 295.99 313.46 292.28 315.81 287.98 316.14 C 281.94 316.70 275.78 316.86 269.81 315.71 C 268.83 316.84 267.86 317.98 266.89 319.12 C 269.55 320.69 272.25 322.47 273.64 325.34 C 274.17 326.59 275.72 328.08 274.37 329.34 C 270.96 331.38 266.88 332.35 262.92 331.78 C 259.05 331.46 255.66 329.36 251.94 328.47 C 248.29 328.06 244.57 328.79 240.94 328.08 C 237.52 327.42 234.55 325.19 231.00 325.11 C 226.54 324.83 221.75 324.81 217.92 322.17 C 214.70 320.33 212.93 316.97 211.30 313.79 C 207.11 312.68 202.50 309.93 202.35 305.08 C 201.31 299.83 205.79 294.62 211.03 294.45 C 213.90 294.26 216.31 296.14 218.93 296.99 C 220.66 292.48 222.19 287.83 225.18 283.94 C 217.59 276.42 208.76 270.23 201.45 262.42 C 197.45 258.63 193.22 255.09 188.95 251.62 C 185.03 257.70 181.66 264.13 178.58 270.67 C 177.20 273.99 173.46 275.88 170.00 275.84 C 166.25 274.84 162.75 273.12 159.06 271.94 C 155.66 270.66 151.50 269.63 149.93 265.95 C 147.56 261.18 151.06 256.25 151.36 251.40 C 146.22 254.85 141.47 258.81 136.62 262.64 C 133.66 265.09 129.44 265.94 127.31 269.33 C 124.52 273.42 121.61 277.44 119.05 281.68 C 142.58 290.14 166.28 298.15 189.76 306.75 C 182.20 319.09 173.97 331.03 166.79 343.58 C 162.94 343.40 159.09 343.53 155.28 344.15 C 161.62 335.04 167.42 325.57 173.75 316.46 C 149.11 308.09 124.25 300.35 99.57 292.09 C 103.99 285.93 108.29 279.67 112.79 273.56 C 110.86 272.03 108.64 270.82 107.00 268.96 C 105.91 266.80 106.00 264.26 105.63 261.91 C 97.73 273.82 89.23 285.34 80.93 296.98 C 97.62 306.61 114.18 316.45 130.83 326.14 C 132.91 327.38 135.17 328.39 136.99 330.03 C 135.36 333.78 132.35 336.76 130.15 340.19 C 130.28 341.40 130.40 342.60 130.54 343.82 C 125.73 343.03 120.74 343.81 116.01 342.90 C 109.96 337.77 103.21 333.59 96.45 329.47 C 92.94 327.59 91.49 323.72 89.40 320.58 C 81.47 309.95 71.88 300.75 62.96 290.98 C 68.04 286.59 70.74 280.20 75.76 275.76 C 81.24 270.68 86.73 265.61 92.43 260.78 C 89.66 258.36 86.49 256.46 83.27 254.72 C 77.60 251.75 73.16 246.68 66.94 244.73 C 62.26 244.18 57.72 246.69 53.02 246.09 C 48.81 242.41 45.60 237.71 41.43 233.96 C 44.91 227.65 47.60 220.96 50.66 214.46 C 52.41 210.86 50.65 207.14 49.44 203.71 C 49.39 200.44 50.17 197.17 49.64 193.89 C 48.77 188.63 51.53 183.39 49.91 178.20 C 49.31 176.46 48.96 174.11 46.97 173.44 C 43.77 172.70 40.32 172.97 37.36 174.47 C 32.65 176.76 27.53 177.98 22.40 178.93 C 21.94 175.02 22.43 170.88 24.38 167.41 C 26.69 166.02 29.16 164.90 31.24 163.17 C 29.23 159.90 27.96 155.66 29.98 152.08 C 31.36 149.57 34.41 149.24 36.88 148.54 C 37.21 142.65 32.93 138.16 30.97 132.95 C 30.16 131.24 31.30 129.49 31.77 127.86 C 34.54 121.41 32.94 113.79 36.67 107.66 C 38.15 104.84 41.27 103.68 43.42 101.51 C 45.05 99.86 43.50 97.65 43.26 95.76 C 44.71 94.37 46.12 92.88 47.85 91.83 C 50.25 90.38 53.48 92.71 55.66 90.80 C 60.59 86.73 65.26 82.28 70.63 78.76 C 76.50 75.07 81.70 70.46 86.88 65.90 C 90.02 62.86 93.38 58.69 92.09 54.02 C 89.69 42.36 87.52 30.65 84.55 19.12 C 84.32 17.97 83.69 16.95 82.72 16.28 C 79.59 13.73 76.15 11.58 72.60 9.67 C 72.93 12.33 73.33 14.98 73.85 17.61 C 72.59 16.80 71.45 15.61 69.90 15.42 C 67.39 15.03 65.34 16.90 63.06 17.57 C 55.47 15.84 48.48 12.20 41.84 8.24 C 42.61 10.01 43.18 11.95 44.48 13.42 C 47.30 14.60 50.45 14.70 53.30 15.81 C 62.74 19.86 71.98 24.55 80.15 30.84 C 81.91 32.31 82.73 34.73 82.14 36.97 C 80.50 45.55 82.14 54.31 81.35 62.95 C 81.13 66.08 79.15 69.22 76.07 70.18 C 73.80 70.92 71.71 69.49 69.69 68.69 C 65.17 72.70 58.73 74.09 55.11 79.14 C 50.77 84.79 45.51 89.61 40.65 94.79 C 38.30 94.73 36.54 91.67 34.02 92.86 C 31.61 93.77 31.34 96.56 30.59 98.66 C 29.50 102.74 26.54 106.05 25.65 110.20 C 24.75 114.40 25.71 118.71 25.20 122.94 C 24.47 127.08 21.81 130.46 19.43 133.78 C 20.86 137.36 21.43 141.20 21.40 145.04 C 22.84 145.20 24.28 145.36 25.72 145.52 C 25.78 148.88 25.59 152.25 24.95 155.56 C 23.74 155.68 22.54 155.80 21.34 155.92 C 20.41 165.90 19.00 175.89 19.38 185.93 C 26.95 187.48 34.28 183.91 41.19 181.30 C 42.57 186.83 43.74 192.61 42.47 198.29 C 40.37 199.45 37.28 200.14 36.84 202.94 C 36.58 205.07 38.04 206.95 38.72 208.89 C 36.65 214.45 33.58 219.56 31.19 224.98 C 38.28 233.24 46.19 240.94 51.71 250.41 C 54.01 253.90 51.59 258.98 55.06 261.96 C 60.03 266.47 67.23 263.73 73.00 262.63 C 75.35 261.66 77.15 263.80 79.06 264.79 C 71.71 271.29 64.49 277.93 57.34 284.64 C 54.32 283.57 50.54 282.44 47.87 284.93 C 43.86 287.67 45.98 292.92 45.34 296.91 C 44.46 301.51 44.57 306.55 42.07 310.67 C 37.64 302.53 31.33 295.43 23.30 290.73 C 21.43 289.67 19.27 289.44 17.20 289.06 C 23.34 295.59 29.81 302.09 33.86 310.20 C 37.08 315.76 39.55 321.71 41.25 327.91 C 44.69 327.97 48.21 327.16 50.81 324.80 C 55.77 320.29 57.57 313.47 58.42 307.05 C 65.20 313.49 71.21 320.66 76.90 328.07 C 78.43 330.26 78.94 332.95 79.70 335.47 C 72.52 334.22 65.21 333.69 57.93 333.53 C 49.65 333.39 43.78 340.10 38.18 345.25 C 36.04 345.26 33.90 345.30 31.76 345.36 C 30.50 343.32 29.02 341.40 27.16 339.86 C 24.24 337.36 22.97 333.47 20.00 331.00 C 17.38 328.85 14.68 325.98 11.02 326.04 C 9.00 325.84 7.61 327.57 6.08 328.58 C 4.04 328.33 2.01 328.07 0.00 327.71 L 0.00 0.00 Z" />
<path fill="#f4722b" opacity="1.00" d=" M 256.67 0.00 L 267.00 0.00 C 265.06 2.38 263.09 4.73 261.05 7.03 C 258.40 10.03 257.25 13.95 255.17 17.31 C 252.58 21.59 249.46 25.52 246.89 29.82 C 244.81 33.36 241.35 35.72 238.23 38.26 C 233.75 41.86 228.02 43.12 222.52 44.25 C 224.27 46.38 225.94 48.60 227.12 51.10 C 224.66 50.22 223.65 47.73 222.27 45.75 C 220.40 42.80 217.72 40.52 215.03 38.36 C 222.32 37.30 229.60 35.12 235.48 30.52 C 242.70 27.19 250.03 23.35 254.93 16.86 C 258.23 11.89 257.76 5.59 256.67 0.00 Z" />
<path fill="#f4722b" opacity="1.00" d=" M 334.73 0.00 L 337.48 0.00 C 335.21 1.39 333.05 2.96 330.93 4.59 C 332.32 3.17 333.59 1.63 334.73 0.00 Z" />
<path fill="#f4722b" opacity="1.00" d=" M 41.84 8.24 C 48.48 12.20 55.47 15.84 63.06 17.57 C 65.34 16.90 67.39 15.03 69.90 15.42 C 71.45 15.61 72.59 16.80 73.85 17.61 C 73.33 14.98 72.93 12.33 72.60 9.67 C 76.15 11.58 79.59 13.73 82.72 16.28 C 83.69 16.95 84.32 17.97 84.55 19.12 C 87.52 30.65 89.69 42.36 92.09 54.02 C 93.38 58.69 90.02 62.86 86.88 65.90 C 81.70 70.46 76.50 75.07 70.63 78.76 C 65.26 82.28 60.59 86.73 55.66 90.80 C 53.48 92.71 50.25 90.38 47.85 91.83 C 46.12 92.88 44.71 94.37 43.26 95.76 C 43.50 97.65 45.05 99.86 43.42 101.51 C 41.27 103.68 38.15 104.84 36.67 107.66 C 32.94 113.79 34.54 121.41 31.77 127.86 C 31.30 129.49 30.16 131.24 30.97 132.95 C 32.93 138.16 37.21 142.65 36.88 148.54 C 34.41 149.24 31.36 149.57 29.98 152.08 C 27.96 155.66 29.23 159.90 31.24 163.17 C 29.16 164.90 26.69 166.02 24.38 167.41 C 22.43 170.88 21.94 175.02 22.40 178.93 C 27.53 177.98 32.65 176.76 37.36 174.47 C 40.32 172.97 43.77 172.70 46.97 173.44 C 48.96 174.11 49.31 176.46 49.91 178.20 C 51.53 183.39 48.77 188.63 49.64 193.89 C 50.17 197.17 49.39 200.44 49.44 203.71 C 50.65 207.14 52.41 210.86 50.66 214.46 C 47.60 220.96 44.91 227.65 41.43 233.96 C 45.60 237.71 48.81 242.41 53.02 246.09 C 57.72 246.69 62.26 244.18 66.94 244.73 C 73.16 246.68 77.60 251.75 83.27 254.72 C 86.49 256.46 89.66 258.36 92.43 260.78 C 86.73 265.61 81.24 270.68 75.76 275.76 C 70.74 280.20 68.04 286.59 62.96 290.98 C 71.88 300.75 81.47 309.95 89.40 320.58 C 91.49 323.72 92.94 327.59 96.45 329.47 C 103.21 333.59 109.96 337.77 116.01 342.90 C 120.74 343.81 125.73 343.03 130.54 343.82 C 138.73 344.77 147.07 344.97 155.28 344.15 C 159.09 343.53 162.94 343.40 166.79 343.58 C 167.87 346.05 169.31 349.02 167.56 351.58 C 165.03 355.50 159.82 354.93 155.82 355.89 C 153.02 356.28 150.19 356.48 147.36 356.45 C 142.59 356.38 137.83 356.54 133.06 356.42 C 128.38 356.33 123.74 355.45 119.06 355.73 C 115.62 355.94 111.68 357.64 108.59 355.36 C 103.66 351.83 99.19 347.02 92.97 345.89 C 89.52 345.72 88.10 342.13 85.23 340.81 C 77.10 336.68 67.96 335.06 58.96 334.22 C 56.47 334.17 53.46 333.65 51.46 335.50 C 49.99 337.77 49.83 340.82 47.58 342.58 C 41.80 347.47 40.02 355.34 34.53 360.48 C 32.26 362.46 31.53 365.38 31.41 368.28 C 29.07 366.86 26.75 365.42 24.44 363.96 C 26.44 360.86 29.81 358.03 29.60 354.04 C 29.63 352.03 28.03 350.64 26.85 349.23 C 21.57 343.69 18.16 336.35 11.45 332.24 C 8.36 335.17 4.08 335.74 0.00 335.29 L 0.00 327.71 C 2.01 328.07 4.04 328.33 6.08 328.58 C 7.61 327.57 9.00 325.84 11.02 326.04 C 14.68 325.98 17.38 328.85 20.00 331.00 C 22.97 333.47 24.24 337.36 27.16 339.86 C 29.02 341.40 30.50 343.32 31.76 345.36 C 33.90 345.30 36.04 345.26 38.18 345.25 C 43.78 340.10 49.65 333.39 57.93 333.53 C 65.21 333.69 72.52 334.22 79.70 335.47 C 78.94 332.95 78.43 330.26 76.90 328.07 C 71.21 320.66 65.20 313.49 58.42 307.05 C 57.57 313.47 55.77 320.29 50.81 324.80 C 48.21 327.16 44.69 327.97 41.25 327.91 C 39.55 321.71 37.08 315.76 33.86 310.20 C 29.81 302.09 23.34 295.59 17.20 289.06 C 19.27 289.44 21.43 289.67 23.30 290.73 C 31.33 295.43 37.64 302.53 42.07 310.67 C 44.57 306.55 44.46 301.51 45.34 296.91 C 45.98 292.92 43.86 287.67 47.87 284.93 C 50.54 282.44 54.32 283.57 57.34 284.64 C 64.49 277.93 71.71 271.29 79.06 264.79 C 77.15 263.80 75.35 261.66 73.00 262.63 C 67.23 263.73 60.03 266.47 55.06 261.96 C 51.59 258.98 54.01 253.90 51.71 250.41 C 46.19 240.94 38.28 233.24 31.19 224.98 C 33.58 219.56 36.65 214.45 38.72 208.89 C 38.04 206.95 36.58 205.07 36.84 202.94 C 37.28 200.14 40.37 199.45 42.47 198.29 C 43.74 192.61 42.57 186.83 41.19 181.30 C 34.28 183.91 26.95 187.48 19.38 185.93 C 19.00 175.89 20.41 165.90 21.34 155.92 C 22.54 155.80 23.74 155.68 24.95 155.56 C 25.59 152.25 25.78 148.88 25.72 145.52 C 24.28 145.36 22.84 145.20 21.40 145.04 C 21.43 141.20 20.86 137.36 19.43 133.78 C 21.81 130.46 24.47 127.08 25.20 122.94 C 25.71 118.71 24.75 114.40 25.65 110.20 C 26.54 106.05 29.50 102.74 30.59 98.66 C 31.34 96.56 31.61 93.77 34.02 92.86 C 36.54 91.67 38.30 94.73 40.65 94.79 C 45.51 89.61 50.77 84.79 55.11 79.14 C 58.73 74.09 65.17 72.70 69.69 68.69 C 71.71 69.49 73.80 70.92 76.07 70.18 C 79.15 69.22 81.13 66.08 81.35 62.95 C 82.14 54.31 80.50 45.55 82.14 36.97 C 82.73 34.73 81.91 32.31 80.15 30.84 C 71.98 24.55 62.74 19.86 53.30 15.81 C 50.45 14.70 47.30 14.60 44.48 13.42 C 43.18 11.95 42.61 10.01 41.84 8.24 Z" />
<path fill="#f4722b" opacity="1.00" d=" M 321.15 14.03 C 323.47 12.17 325.75 10.26 327.96 8.27 C 330.44 10.45 334.61 13.78 337.58 10.56 C 339.69 7.83 344.30 7.71 345.91 11.03 C 347.78 14.32 344.65 17.21 343.52 20.11 C 342.57 25.04 342.60 30.10 341.87 35.07 C 343.23 37.12 345.49 39.33 344.18 41.99 C 341.79 48.74 341.07 56.02 337.76 62.44 C 336.38 65.67 334.11 68.49 333.13 71.87 C 335.66 77.50 340.60 81.92 341.95 88.10 C 343.92 97.32 350.52 104.72 352.71 113.83 C 341.50 108.34 329.64 103.62 317.12 102.41 C 306.78 101.25 296.49 99.18 286.04 99.56 C 281.78 99.76 277.35 98.86 273.22 100.20 C 268.03 101.99 266.50 108.78 268.61 113.40 C 272.57 125.14 268.56 137.43 267.26 149.27 C 271.43 151.33 275.13 154.29 277.79 158.12 C 280.31 162.34 282.71 166.64 284.86 171.06 C 285.85 173.28 286.64 175.59 287.32 177.93 C 287.16 180.18 287.62 183.08 285.62 184.66 C 283.23 186.62 279.92 185.65 277.11 185.80 C 275.26 188.17 273.45 191.36 270.02 191.37 C 266.07 191.86 262.55 187.79 263.88 183.97 C 265.31 178.97 270.82 177.14 275.15 175.40 C 274.01 172.80 272.40 170.22 272.67 167.25 C 272.50 162.22 268.15 158.56 265.59 154.51 C 262.91 150.45 259.84 146.56 258.12 141.97 C 255.51 140.84 255.23 137.52 255.33 135.04 C 255.84 123.55 258.01 112.21 260.08 100.93 C 260.78 96.63 265.84 97.49 268.99 96.88 C 278.61 95.10 288.33 93.99 298.06 92.97 C 302.81 92.30 307.66 91.77 312.19 90.08 C 318.08 87.21 324.77 89.26 331.05 88.76 C 329.95 86.34 328.88 83.91 327.83 81.47 C 323.82 81.94 319.98 80.13 315.96 80.47 C 307.55 80.88 299.29 82.70 290.93 83.56 C 288.87 78.10 282.56 77.80 277.89 75.86 C 273.99 74.64 270.32 71.74 266.04 72.66 C 259.36 73.80 252.96 76.15 246.35 77.60 C 243.94 78.11 241.65 80.56 239.20 78.90 C 234.39 76.39 228.73 78.19 224.26 80.59 C 223.06 72.90 228.00 66.39 228.75 58.96 C 228.78 65.21 226.28 71.03 224.88 77.03 C 228.35 76.21 231.88 75.67 235.46 75.68 C 235.63 73.29 236.17 70.50 238.76 69.63 C 244.68 67.30 251.09 69.47 257.15 70.06 C 264.71 71.20 272.38 70.15 279.97 70.80 C 283.35 71.10 286.13 73.44 287.39 76.53 C 288.69 79.85 292.90 80.72 296.07 79.98 C 303.85 78.43 311.82 77.34 319.23 74.35 C 320.33 70.58 321.56 66.84 323.43 63.37 C 325.27 60.31 324.34 56.41 326.36 53.41 C 332.20 43.68 333.24 32.00 333.74 20.91 C 328.87 20.12 324.48 17.64 321.15 14.03 Z" />
<path fill="#f4722b" opacity="1.00" d=" M 415.11 33.29 C 423.14 28.82 431.63 24.00 441.10 24.06 C 444.24 24.04 445.78 27.46 446.73 29.96 C 444.52 33.99 442.11 37.92 439.84 41.91 C 437.28 46.73 431.18 47.00 427.27 50.19 C 423.51 53.41 418.89 56.36 417.47 61.41 C 416.40 65.30 415.38 70.25 418.46 73.49 C 421.42 77.07 422.66 81.64 424.08 85.97 C 426.91 96.24 430.07 106.48 434.62 116.14 C 436.97 121.04 438.25 126.42 440.83 131.20 C 443.66 133.69 448.32 134.97 448.83 139.31 C 447.50 139.66 446.19 140.02 444.87 140.37 C 446.93 144.71 448.43 149.40 451.42 153.22 C 452.90 147.60 452.41 141.75 451.96 136.03 C 451.82 133.54 450.63 131.31 449.42 129.19 C 451.98 133.56 456.72 135.77 460.23 139.24 C 463.71 132.61 467.40 125.98 472.50 120.45 C 476.49 116.08 481.42 112.72 486.51 109.77 C 487.39 119.01 485.05 128.03 484.48 137.19 C 483.81 129.69 485.25 122.11 483.80 114.66 C 476.42 119.49 472.34 127.77 468.39 135.37 C 465.43 142.32 462.18 149.39 461.67 157.03 C 461.16 162.37 462.19 167.68 462.25 173.01 C 462.17 175.27 463.48 177.21 464.41 179.17 C 458.39 187.57 451.29 195.17 445.83 203.97 C 441.52 210.98 437.29 218.09 434.27 225.77 C 434.11 225.73 433.80 225.66 433.64 225.63 C 432.04 220.06 431.30 214.24 429.16 208.83 C 425.29 198.86 422.79 188.38 418.12 178.72 C 415.86 173.36 412.17 168.83 409.01 164.02 C 406.16 159.89 403.92 155.15 399.70 152.20 C 398.31 151.29 396.36 148.99 394.74 150.74 C 389.63 156.01 384.39 161.46 377.65 164.65 C 372.06 167.32 366.92 170.84 362.23 174.88 C 364.89 178.71 368.51 181.69 371.71 185.04 C 373.21 186.64 374.76 188.21 376.36 189.72 C 381.85 195.38 388.44 199.77 395.09 203.94 C 399.96 207.09 406.91 207.15 410.07 212.63 C 404.72 212.64 399.41 211.70 394.06 211.77 C 385.04 211.68 376.17 213.54 367.19 214.00 C 359.74 215.14 352.17 215.49 344.89 217.47 C 339.91 217.58 334.67 217.02 330.42 220.21 C 327.63 219.77 324.83 219.50 322.05 219.03 C 318.28 218.70 316.29 213.45 318.75 210.65 C 321.41 207.21 325.60 205.56 329.07 203.10 C 334.01 199.60 340.77 200.08 346.05 202.56 C 347.92 203.44 349.74 204.44 351.61 205.33 C 357.45 206.05 363.36 205.50 369.23 205.66 C 370.50 205.66 371.78 205.66 373.06 205.67 C 372.15 204.81 371.23 203.95 370.33 203.10 C 362.14 195.15 353.36 187.53 347.04 177.94 C 346.73 177.11 346.44 176.28 346.17 175.45 C 355.14 175.93 362.44 170.09 369.70 165.71 C 380.76 157.97 391.19 149.05 399.22 138.11 C 401.47 135.53 402.86 131.67 406.54 130.83 C 407.53 133.81 408.05 136.94 409.17 139.87 C 411.05 142.85 413.92 145.05 415.87 147.99 C 419.11 152.83 422.12 157.81 425.44 162.60 C 432.60 172.82 436.09 184.96 439.88 196.69 C 441.85 195.92 444.30 195.25 444.99 192.95 C 445.68 190.34 445.27 187.58 445.30 184.91 C 448.18 184.45 450.84 182.10 450.43 178.97 C 449.61 171.53 447.51 164.31 445.93 157.02 C 443.04 143.71 435.99 131.90 430.22 119.73 C 428.45 116.45 429.77 112.59 428.71 109.13 C 425.04 94.38 416.16 81.48 413.02 66.53 C 413.55 66.65 414.63 66.88 415.16 66.99 C 414.33 58.82 417.35 50.04 423.97 44.95 C 428.81 41.17 436.18 42.23 440.24 37.28 C 442.26 34.96 441.69 31.63 440.55 29.06 C 435.89 30.50 431.08 31.55 426.67 33.68 C 423.30 35.30 420.04 37.13 416.65 38.72 C 413.29 40.26 409.79 42.53 405.94 41.31 C 408.78 36.85 412.05 32.59 416.10 29.14 C 415.77 30.53 415.44 31.91 415.11 33.29 Z" />
<path fill="#f5e5c1" opacity="1.00" d=" M 209.37 60.11 C 210.78 56.72 211.72 53.13 213.44 49.88 C 213.92 59.63 213.35 69.40 213.77 79.16 C 214.27 86.80 214.74 94.43 215.19 102.08 C 215.46 109.18 217.56 116.02 218.77 122.99 C 220.15 132.50 224.94 140.99 228.22 149.92 C 220.76 167.99 213.11 185.98 205.56 204.01 C 196.03 190.27 187.23 176.02 177.53 162.39 C 176.38 160.64 174.92 159.03 174.17 157.04 C 176.09 151.45 177.15 145.60 179.34 140.09 C 189.41 113.46 199.50 86.82 209.37 60.11 Z" />
<path fill="#f4722b" opacity="1.00" d=" M 82.41 89.21 C 87.95 84.10 95.70 82.11 102.99 81.36 C 96.47 89.83 88.81 97.46 83.37 106.75 C 90.10 99.69 97.80 93.48 103.45 85.44 C 104.14 84.40 104.95 83.39 106.28 83.27 C 109.00 87.99 112.13 92.45 115.05 97.05 C 116.81 99.97 119.85 102.33 120.07 105.96 C 111.24 116.13 101.41 125.36 92.12 135.10 C 91.27 135.89 90.36 137.07 89.02 136.72 C 82.93 133.20 76.71 129.91 70.60 126.42 C 67.59 123.05 68.38 118.20 68.66 114.07 C 69.71 108.21 71.63 102.47 74.35 97.18 C 76.05 93.66 79.35 91.45 82.41 89.21 Z" />
<path fill="#f4722b" opacity="1.00" d=" M 127.30 103.91 C 138.25 114.54 149.09 125.31 159.94 136.06 C 162.51 138.84 166.01 141.11 167.04 144.96 C 168.65 149.14 169.13 153.61 169.22 158.06 C 171.84 163.70 176.18 168.31 179.45 173.58 C 187.83 184.58 195.39 196.18 204.08 206.95 C 208.69 214.44 212.21 222.56 216.89 230.01 C 224.45 242.19 231.93 254.41 239.47 266.59 C 243.98 272.97 248.94 279.03 253.65 285.26 C 254.38 287.42 254.45 289.77 254.37 292.04 C 253.21 295.82 248.69 297.12 245.23 295.87 C 241.12 290.35 236.25 285.46 231.68 280.33 C 217.35 266.95 202.50 254.13 188.09 240.85 C 188.24 238.57 190.04 236.80 191.13 234.88 C 190.64 233.47 190.07 232.04 188.99 230.97 C 181.66 222.94 174.42 214.82 167.05 206.83 C 164.91 204.54 163.16 201.68 160.12 200.48 C 157.86 201.38 155.62 202.46 153.20 202.85 C 144.82 196.31 137.16 188.86 128.98 182.06 C 118.60 172.74 108.01 163.67 97.52 154.48 C 94.68 151.69 91.74 148.98 89.14 145.96 C 91.86 141.60 95.94 138.18 99.13 134.13 C 108.98 124.48 117.31 113.43 127.30 103.91 Z" />
<path fill="#3e3e3e" opacity="1.00" d=" M 124.29 119.24 C 125.34 116.78 125.83 113.90 127.98 112.09 C 130.39 114.65 129.33 118.26 127.95 121.03 C 126.01 124.95 124.42 129.18 121.42 132.44 C 116.44 137.14 110.76 141.28 104.19 143.42 C 113.03 137.56 120.54 129.28 124.29 119.24 Z" />
<path fill="#f5e5c1" opacity="1.00" d=" M 245.97 151.97 C 246.80 151.15 247.57 149.42 249.04 150.08 C 254.66 151.09 260.06 153.07 265.59 154.51 C 268.15 158.56 272.50 162.22 272.67 167.25 C 267.35 165.73 262.06 164.06 256.82 162.29 C 246.24 177.07 235.83 191.98 225.22 206.74 C 221.58 205.19 216.85 205.69 213.76 203.20 C 215.99 198.24 218.47 193.38 220.19 188.20 C 221.35 184.41 223.94 181.35 226.28 178.24 C 232.87 169.51 239.42 160.73 245.97 151.97 Z" />
<path fill="#f5e5c1" opacity="1.00" d=" M 35.79 156.22 C 36.15 156.50 36.86 157.04 37.22 157.31 C 55.59 160.22 73.82 164.09 92.13 167.40 C 96.63 168.71 101.91 168.07 105.60 171.41 C 118.36 181.15 131.03 191.00 143.74 200.79 C 140.45 206.27 138.92 212.55 136.17 218.25 C 134.19 217.98 132.24 217.50 130.23 217.65 C 126.12 213.83 121.15 210.84 117.71 206.38 C 122.98 207.75 128.47 207.61 133.81 208.54 C 133.85 208.33 133.92 207.93 133.96 207.73 C 126.38 205.88 118.91 203.58 111.37 201.57 C 104.52 197.08 98.00 192.11 91.09 187.71 C 83.66 183.23 76.42 178.45 68.92 174.09 C 58.83 169.02 48.87 163.69 38.76 158.64 C 37.35 158.41 36.41 157.47 35.79 156.22 Z" />
<path fill="#f5e5c1" opacity="1.00" d=" M 277.79 158.12 C 300.91 164.62 323.93 171.42 347.04 177.94 C 353.36 187.53 362.14 195.15 370.33 203.10 C 369.96 203.95 369.59 204.80 369.23 205.66 C 363.36 205.50 357.45 206.05 351.61 205.33 C 353.03 201.25 354.46 197.18 355.88 193.10 C 332.27 185.56 308.53 178.42 284.86 171.06 C 282.71 166.64 280.31 162.34 277.79 158.12 Z" />
<path fill="#ab5d33" opacity="1.00" d=" M 260.06 171.22 C 265.06 172.70 269.91 174.87 275.15 175.40 C 270.82 177.14 265.31 178.97 263.88 183.97 C 262.55 187.79 266.07 191.86 270.02 191.37 C 273.45 191.36 275.26 188.17 277.11 185.80 C 279.92 185.65 283.23 186.62 285.62 184.66 C 287.62 183.08 287.16 180.18 287.32 177.93 C 287.61 179.39 288.57 180.42 290.05 180.72 C 308.88 186.66 327.75 192.48 346.56 198.53 C 346.38 199.87 346.21 201.21 346.05 202.56 C 340.77 200.08 334.01 199.60 329.07 203.10 C 325.60 205.56 321.41 207.21 318.75 210.65 C 316.29 213.45 318.28 218.70 322.05 219.03 C 324.83 219.50 327.63 219.77 330.42 220.21 C 332.43 220.40 334.44 220.12 336.44 219.92 C 333.96 225.12 331.79 230.53 328.08 235.01 C 326.93 237.94 326.41 241.13 324.79 243.89 C 323.00 243.42 321.20 242.95 319.42 242.48 C 319.35 241.20 319.29 239.92 319.24 238.64 C 320.50 237.63 322.51 236.91 322.46 234.96 C 321.12 232.09 317.56 230.01 314.52 231.60 C 313.32 232.64 313.23 234.44 312.58 235.82 C 305.28 235.62 295.87 235.38 291.72 242.67 C 289.48 250.98 294.32 261.70 303.11 263.86 C 308.47 265.34 313.91 266.60 319.44 267.29 C 320.14 269.68 320.62 272.63 323.19 273.75 C 327.15 276.13 333.30 272.82 332.70 268.02 C 333.18 262.82 327.06 260.79 322.87 261.78 C 321.95 260.18 321.23 258.41 319.88 257.13 C 317.93 255.56 315.36 255.21 313.04 254.51 C 313.79 252.25 314.55 249.99 315.32 247.74 C 317.75 249.44 319.72 251.70 320.73 254.52 C 330.71 258.25 341.06 260.91 351.00 264.77 C 352.06 266.53 352.70 269.19 355.07 269.57 C 357.23 270.06 359.22 268.84 361.15 268.06 C 370.99 271.13 380.85 274.24 390.51 277.85 C 387.21 288.87 384.02 299.91 380.87 310.98 C 379.60 315.11 378.19 319.22 377.59 323.52 C 374.33 325.65 370.64 327.14 367.67 329.71 C 365.99 331.07 365.41 333.65 366.38 335.59 C 367.41 337.07 368.79 338.24 370.08 339.49 C 368.24 339.28 366.42 338.97 364.60 338.68 C 363.09 334.67 362.40 330.46 361.54 326.29 C 359.69 322.49 355.43 320.75 351.77 319.13 C 348.02 317.41 343.56 318.14 340.03 315.86 C 335.31 312.96 330.03 311.24 325.01 308.97 C 322.29 306.02 320.25 301.93 315.94 301.02 C 311.80 299.58 308.13 302.63 305.55 305.50 C 304.46 305.63 303.38 305.76 302.31 305.89 C 303.11 302.69 303.26 299.38 302.54 296.16 C 305.97 297.16 310.01 298.57 313.26 296.28 C 317.57 293.82 318.96 287.78 316.53 283.56 C 314.44 279.37 308.58 279.63 306.67 275.24 C 305.27 275.34 303.88 275.45 302.49 275.57 C 302.42 277.35 302.35 279.13 302.28 280.92 C 300.29 283.78 299.04 287.06 299.52 290.60 C 297.22 288.30 294.39 286.65 291.40 285.42 C 291.46 282.71 290.78 279.72 292.37 277.32 C 294.97 273.39 294.25 267.44 290.21 264.74 C 283.90 259.96 273.92 257.58 267.53 263.48 C 262.53 267.26 261.10 273.82 261.74 279.77 C 258.74 278.07 255.41 276.58 253.46 273.60 C 249.87 268.51 245.81 263.76 242.67 258.38 C 237.27 249.42 231.34 240.76 226.43 231.51 C 222.45 225.36 218.30 219.26 215.47 212.46 C 220.10 213.48 224.57 215.03 229.10 216.40 C 239.72 201.55 249.58 186.17 260.06 171.22 Z" />
<path fill="#3e3e3e" opacity="1.00" d=" M 284.86 171.06 C 308.53 178.42 332.27 185.56 355.88 193.10 C 354.46 197.18 353.03 201.25 351.61 205.33 C 349.74 204.44 347.92 203.44 346.05 202.56 C 346.21 201.21 346.38 199.87 346.56 198.53 C 327.75 192.48 308.88 186.66 290.05 180.72 C 288.57 180.42 287.61 179.39 287.32 177.93 C 286.64 175.59 285.85 173.28 284.86 171.06 Z" />
<path fill="#ab5d33" opacity="1.00" d=" M 41.33 180.04 C 42.18 179.22 43.07 178.43 43.98 177.69 C 44.61 179.58 44.99 181.55 45.23 183.53 C 43.15 183.48 42.37 181.45 41.33 180.04 Z" />
<path fill="#f5e5c1" opacity="1.00" d=" M 371.71 185.04 C 373.30 185.57 374.91 186.04 376.53 186.52 C 376.45 187.58 376.39 188.65 376.36 189.72 C 374.76 188.21 373.21 186.64 371.71 185.04 Z" />
<path fill="#3e3e3e" opacity="1.00" d=" M 370.33 203.10 C 371.23 203.95 372.15 204.81 373.06 205.67 C 371.78 205.66 370.50 205.66 369.23 205.66 C 369.59 204.80 369.96 203.95 370.33 203.10 Z" />
<path fill="#f5e5c1" opacity="1.00" d=" M 151.49 209.59 C 153.08 206.49 156.91 205.79 160.02 205.16 C 169.60 215.16 178.71 225.66 188.06 235.91 C 183.25 246.89 176.94 257.11 171.66 267.86 C 166.19 267.23 161.26 264.53 155.96 263.18 C 158.74 252.35 162.57 241.76 164.83 230.82 C 153.08 240.03 141.46 249.41 129.69 258.58 C 126.39 260.03 122.81 261.01 119.26 261.67 C 125.26 254.87 129.25 246.59 134.13 238.99 C 139.80 229.12 145.67 219.37 151.49 209.59 Z" />
<path fill="#f5e5c1" opacity="1.00" d=" M 347.27 218.39 C 353.04 216.67 359.13 216.55 365.05 215.65 C 362.64 223.92 358.69 231.62 355.99 239.79 C 375.68 247.19 395.32 254.70 415.01 262.07 C 417.32 263.02 419.84 263.59 421.90 265.05 C 415.74 285.24 409.76 305.49 403.55 325.67 C 398.58 324.43 393.62 325.94 388.89 327.36 C 389.54 322.44 391.23 317.76 392.47 312.98 C 396.06 299.53 400.16 286.22 403.57 272.72 C 398.98 270.30 393.93 269.04 389.10 267.21 C 371.57 260.91 353.92 254.93 336.46 248.46 C 340.33 238.54 343.26 228.24 347.27 218.39 Z" />
<path fill="#ab5d33" opacity="1.00" d=" M 136.62 262.64 C 141.47 258.81 146.22 254.85 151.36 251.40 C 151.06 256.25 147.56 261.18 149.93 265.95 C 151.50 269.63 155.66 270.66 159.06 271.94 C 162.75 273.12 166.25 274.84 170.00 275.84 C 173.46 275.88 177.20 273.99 178.58 270.67 C 181.66 264.13 185.03 257.70 188.95 251.62 C 193.22 255.09 197.45 258.63 201.45 262.42 C 208.76 270.23 217.59 276.42 225.18 283.94 C 222.19 287.83 220.66 292.48 218.93 296.99 C 216.31 296.14 213.90 294.26 211.03 294.45 C 205.79 294.62 201.31 299.83 202.35 305.08 C 202.50 309.93 207.11 312.68 211.30 313.79 C 212.93 316.97 214.70 320.33 217.92 322.17 C 221.75 324.81 226.54 324.83 231.00 325.11 C 234.55 325.19 237.52 327.42 240.94 328.08 C 244.57 328.79 248.29 328.06 251.94 328.47 C 255.66 329.36 259.05 331.46 262.92 331.78 C 266.88 332.35 270.96 331.38 274.37 329.34 C 275.72 328.08 274.17 326.59 273.64 325.34 C 272.25 322.47 269.55 320.69 266.89 319.12 C 267.86 317.98 268.83 316.84 269.81 315.71 C 275.78 316.86 281.94 316.70 287.98 316.14 C 292.28 315.81 295.99 313.46 299.46 311.09 C 303.74 318.32 310.80 324.61 319.39 325.70 C 320.75 328.77 322.55 331.62 324.70 334.20 C 324.02 337.49 323.92 341.03 325.95 343.91 C 323.89 343.23 321.79 342.75 319.69 342.27 C 319.25 343.53 318.81 344.79 318.39 346.06 C 318.17 344.03 318.70 341.48 316.85 340.05 C 314.58 338.11 310.09 339.69 310.58 343.02 C 310.54 345.37 312.98 346.32 314.56 347.53 C 315.85 352.27 319.53 355.70 323.61 358.15 C 322.28 360.40 320.64 362.49 318.42 363.92 C 315.78 362.87 313.18 361.74 310.62 360.50 C 313.63 356.53 315.52 350.44 311.56 346.43 C 306.91 343.46 301.83 340.11 296.02 340.88 C 290.50 340.73 285.57 345.02 284.47 350.34 C 283.47 354.65 281.39 358.57 279.51 362.55 C 270.94 380.98 262.08 399.27 253.70 417.79 C 236.25 410.23 219.11 401.97 201.73 394.22 C 197.57 392.28 193.29 390.55 189.40 388.09 C 194.42 386.15 200.04 385.93 204.72 383.13 C 207.80 384.03 211.63 384.59 214.13 382.08 C 217.74 378.76 216.72 373.43 216.56 369.07 C 216.47 366.31 213.73 364.01 211.00 364.40 C 206.60 364.89 201.02 365.41 198.93 370.01 C 196.72 374.37 199.36 378.95 202.04 382.38 C 194.88 383.12 187.76 384.21 180.60 384.98 C 177.51 383.04 174.20 381.51 170.87 380.05 C 170.91 376.29 171.85 371.92 169.24 368.76 C 166.60 365.87 162.20 364.56 158.43 365.65 C 155.66 366.84 154.11 369.61 152.27 371.85 C 151.43 371.25 150.60 370.65 149.77 370.06 C 152.54 365.33 155.80 360.89 158.33 356.01 C 157.70 355.98 156.45 355.92 155.82 355.89 C 159.82 354.93 165.03 355.50 167.56 351.58 C 169.31 349.02 167.87 346.05 166.79 343.58 C 173.97 331.03 182.20 319.09 189.76 306.75 C 166.28 298.15 142.58 290.14 119.05 281.68 C 121.61 277.44 124.52 273.42 127.31 269.33 C 129.44 265.94 133.66 265.09 136.62 262.64 Z" />
<path fill="#f5e5c1" opacity="1.00" d=" M 80.93 296.98 C 89.23 285.34 97.73 273.82 105.63 261.91 C 106.00 264.26 105.91 266.80 107.00 268.96 C 108.64 270.82 110.86 272.03 112.79 273.56 C 108.29 279.67 103.99 285.93 99.57 292.09 C 124.25 300.35 149.11 308.09 173.75 316.46 C 167.42 325.57 161.62 335.04 155.28 344.15 C 147.07 344.97 138.73 344.77 130.54 343.82 C 130.40 342.60 130.28 341.40 130.15 340.19 C 132.35 336.76 135.36 333.78 136.99 330.03 C 135.17 328.39 132.91 327.38 130.83 326.14 C 114.18 316.45 97.62 306.61 80.93 296.98 Z" />
<path fill="#3e3e3e" opacity="1.00" d=" M 341.02 270.25 C 344.83 270.37 349.08 267.90 352.55 270.40 C 356.48 272.96 356.86 278.76 354.32 282.42 C 351.63 287.25 346.70 290.26 344.15 295.18 C 342.55 298.15 338.92 299.56 335.93 297.65 C 333.30 301.57 328.34 304.66 323.62 302.37 C 316.83 299.79 316.49 289.18 322.91 285.97 C 326.99 283.07 331.95 285.33 335.25 288.28 C 335.78 287.16 336.35 286.05 336.80 284.89 C 334.97 283.39 332.47 282.41 331.69 279.97 C 330.13 274.59 335.94 269.76 341.02 270.25 Z" />
<path fill="#f4722b" opacity="1.00" d=" M 332.23 302.87 C 334.19 301.40 336.59 300.86 339.01 301.31 C 347.33 302.37 355.81 300.96 364.06 302.77 C 367.41 303.58 371.00 303.56 374.22 304.81 C 376.13 307.97 375.08 312.75 370.84 312.94 C 363.48 312.54 356.46 309.94 349.11 309.39 C 344.46 309.16 340.03 307.76 335.84 305.81 C 334.31 305.27 332.92 304.40 332.23 302.87 Z" />
<path fill="#3e3e3e" opacity="1.00" d=" M 335.84 305.81 C 340.03 307.76 344.46 309.16 349.11 309.39 C 356.46 309.94 363.48 312.54 370.84 312.94 C 371.31 313.00 372.24 313.13 372.71 313.20 C 372.65 314.98 372.77 316.79 372.41 318.55 C 370.76 322.21 366.07 324.32 362.31 322.66 C 355.96 320.33 349.05 317.79 345.03 312.02 C 342.77 308.70 336.50 310.60 335.84 305.81 Z" />
<path fill="#ab5d33" opacity="1.00" d=" M 322.98 319.80 C 329.73 321.73 336.03 325.16 341.52 329.52 C 345.74 332.74 350.95 334.11 356.01 335.38 C 358.03 335.88 358.79 338.16 360.37 339.33 C 363.05 339.97 366.06 339.92 368.32 341.73 C 369.77 343.00 371.27 344.87 370.34 346.89 C 367.20 357.91 364.00 368.93 360.70 379.91 C 351.07 376.38 341.52 372.67 331.99 368.90 C 334.39 366.11 337.08 362.94 336.88 359.02 C 337.17 353.49 332.24 349.96 328.92 346.28 C 331.46 345.68 334.86 345.68 336.08 342.88 C 337.21 340.04 336.44 336.68 334.86 334.17 C 333.20 331.65 329.86 332.03 327.27 331.59 C 325.19 327.93 323.03 324.13 322.98 319.80 Z" />
<path fill="#f4722b" opacity="1.00" d=" M 377.59 323.52 C 379.48 322.36 381.54 320.92 383.90 321.45 C 386.84 321.81 388.03 324.92 388.89 327.36 C 393.62 325.94 398.58 324.43 403.55 325.67 C 403.88 325.92 404.55 326.43 404.88 326.68 C 406.72 324.73 409.14 323.82 411.81 324.20 C 410.70 327.68 409.33 331.30 409.91 335.02 C 410.49 338.99 411.92 342.78 413.40 346.50 C 414.67 349.58 416.52 352.93 419.98 353.90 C 423.38 355.04 426.60 356.68 430.00 357.84 C 433.17 358.26 435.97 355.90 437.23 353.17 C 440.33 346.95 444.51 341.29 446.85 334.71 C 449.76 333.85 452.57 332.70 455.27 331.31 C 453.21 334.40 449.42 336.88 449.89 341.05 C 450.95 348.43 456.01 354.94 462.42 358.58 C 471.31 364.41 481.83 366.89 492.16 368.76 C 493.87 366.99 495.41 364.73 497.94 364.11 C 502.60 362.98 507.50 363.73 512.00 365.21 L 512.00 381.47 C 507.27 378.52 500.76 375.21 495.86 379.71 C 499.37 383.91 504.43 388.05 503.77 394.13 C 501.48 389.18 499.30 384.01 495.34 380.11 C 491.77 383.35 487.67 386.15 484.96 390.22 C 488.13 390.41 491.68 389.67 494.47 391.62 C 499.81 395.12 505.23 398.79 509.25 403.83 C 511.78 406.44 509.65 410.06 509.44 413.13 C 509.00 419.37 507.96 425.53 507.18 431.74 C 506.11 424.03 506.64 415.83 503.60 408.48 C 501.89 404.96 503.35 400.49 500.45 397.46 C 494.89 390.82 484.91 389.48 476.87 391.40 C 475.53 396.49 469.98 397.17 465.89 398.99 C 460.20 401.50 454.09 402.83 447.96 403.66 C 446.51 404.78 445.07 405.92 443.63 407.06 C 443.56 408.29 443.49 409.53 443.43 410.78 C 439.82 410.36 436.26 409.41 432.92 407.98 C 430.42 406.16 429.66 402.65 426.86 401.15 C 425.64 400.13 423.26 399.81 423.44 397.81 C 423.12 393.29 426.60 389.59 426.67 385.11 C 426.97 382.60 426.13 380.18 425.16 377.92 C 423.10 375.93 421.66 373.27 419.11 371.84 C 413.88 368.76 408.49 365.91 403.51 362.43 C 401.99 361.47 402.07 359.47 401.60 357.96 C 401.00 354.56 399.36 351.49 397.45 348.67 L 396.68 348.67 C 394.40 348.60 391.41 349.39 389.96 347.07 C 387.54 344.48 389.07 340.91 389.86 338.00 C 388.28 338.37 386.72 338.76 385.13 339.08 C 380.14 339.74 375.10 339.45 370.08 339.49 C 368.79 338.24 367.41 337.07 366.38 335.59 C 365.41 333.65 365.99 331.07 367.67 329.71 C 370.64 327.14 374.33 325.65 377.59 323.52 Z" />
<path fill="#3e3e3e" opacity="1.00" d=" M 11.45 332.24 C 18.16 336.35 21.57 343.69 26.85 349.23 C 28.03 350.64 29.63 352.03 29.60 354.04 C 29.81 358.03 26.44 360.86 24.44 363.96 C 26.75 365.42 29.07 366.86 31.41 368.28 C 31.53 365.38 32.26 362.46 34.53 360.48 C 40.02 355.34 41.80 347.47 47.58 342.58 C 49.83 340.82 49.99 337.77 51.46 335.50 C 53.46 333.65 56.47 334.17 58.96 334.22 C 67.96 335.06 77.10 336.68 85.23 340.81 C 88.10 342.13 89.52 345.72 92.97 345.89 C 99.19 347.02 103.66 351.83 108.59 355.36 C 111.68 357.64 115.62 355.94 119.06 355.73 C 112.29 365.15 105.45 374.52 98.83 384.04 C 109.79 388.42 120.71 392.91 131.71 397.20 C 135.77 397.80 140.30 397.07 143.63 400.09 C 144.61 401.32 145.60 402.57 146.23 404.03 C 146.34 408.68 144.77 413.32 145.68 417.98 C 146.26 420.21 149.19 421.45 148.64 424.02 C 148.00 430.51 147.27 437.28 143.94 443.03 C 142.05 446.49 141.61 450.77 138.57 453.55 C 135.39 456.70 132.44 460.11 128.96 462.93 C 124.03 463.76 118.93 464.50 113.90 463.78 C 110.20 465.13 107.05 467.91 102.97 468.20 C 94.66 469.30 86.42 471.61 77.99 471.26 C 75.19 471.46 73.72 468.72 71.85 467.13 C 70.19 465.26 67.78 463.74 67.17 461.18 C 69.06 458.40 71.82 456.11 72.64 452.71 C 74.41 445.86 76.99 439.17 77.52 432.05 C 77.92 426.62 78.53 421.21 79.30 415.82 C 83.42 415.62 88.19 417.82 91.81 415.12 C 89.47 411.25 84.26 411.15 80.23 411.03 C 79.47 409.42 78.85 407.72 77.77 406.30 C 75.66 403.96 72.29 403.18 70.28 400.75 C 68.54 397.99 69.57 392.66 65.01 392.73 C 61.57 393.72 59.79 397.16 58.21 400.08 C 55.55 406.06 52.55 411.87 49.76 417.78 C 46.10 421.84 39.91 420.95 34.97 421.23 C 31.91 421.60 29.21 419.68 26.34 419.41 C 24.44 421.05 22.84 423.04 21.40 425.09 C 21.60 427.39 24.50 426.89 25.67 425.72 C 27.82 423.88 30.67 423.61 33.34 423.17 C 33.63 424.59 33.93 426.02 34.23 427.46 C 35.97 427.79 37.88 427.76 39.45 428.69 C 41.76 432.12 42.56 436.29 43.79 440.18 C 45.92 441.25 49.63 442.08 49.57 445.00 C 46.91 450.78 42.15 455.52 40.73 461.90 C 35.21 464.29 30.89 468.63 26.70 472.81 C 28.67 472.70 31.08 473.25 32.57 471.59 C 35.04 469.17 36.30 465.14 40.11 464.47 C 42.12 464.41 44.02 465.20 45.96 465.62 C 46.91 462.83 49.17 461.05 51.32 459.23 C 51.73 457.63 51.35 455.95 51.52 454.33 C 52.48 451.14 55.36 448.53 54.98 444.98 C 55.23 441.70 52.04 440.07 49.89 438.29 C 50.13 433.06 47.41 428.51 45.01 424.10 C 47.58 422.77 51.26 426.25 52.87 423.04 C 56.91 415.51 60.43 407.72 64.17 400.05 C 65.06 401.70 65.79 403.48 67.00 404.94 C 69.02 407.03 71.88 408.02 74.03 409.95 C 75.31 411.69 74.38 413.96 74.30 415.92 C 72.99 423.44 73.36 431.19 71.35 438.59 C 70.41 441.78 69.21 444.88 68.30 448.08 C 67.58 450.19 67.09 452.69 65.10 454.02 C 63.10 455.64 59.88 456.82 60.14 459.95 C 59.52 463.77 62.11 466.88 64.06 469.85 C 63.22 470.61 62.39 471.37 61.55 472.13 C 68.40 472.88 75.05 474.86 81.91 475.50 C 85.65 475.86 89.34 476.51 93.03 477.19 C 97.04 478.21 100.38 475.09 104.07 474.12 C 107.00 476.98 111.01 478.17 114.15 480.75 C 118.34 484.09 123.45 486.72 128.96 486.38 C 132.69 486.63 137.09 485.03 140.13 487.95 C 133.60 488.05 126.99 488.23 120.83 490.68 C 130.56 490.97 140.01 487.32 149.78 488.49 C 144.45 485.29 140.84 478.52 133.92 478.76 C 129.68 478.17 123.90 480.00 121.45 475.33 C 120.74 475.36 120.03 475.39 119.33 475.43 C 119.06 475.25 118.53 474.88 118.26 474.70 C 122.20 472.55 126.49 471.18 131.03 471.49 C 133.80 471.82 136.08 470.25 137.78 468.22 C 137.26 467.03 136.86 465.83 136.36 464.66 C 141.03 460.60 146.55 456.93 149.20 451.13 C 150.68 448.26 153.33 446.08 154.34 442.97 C 155.16 437.96 153.33 433.03 153.45 428.04 C 153.34 426.31 154.74 425.20 155.71 424.01 C 163.56 431.41 171.68 438.53 179.47 445.99 C 173.02 444.99 166.55 445.97 160.10 446.47 C 156.60 447.59 152.92 449.84 152.36 453.82 C 156.06 452.42 160.08 452.23 163.30 454.83 C 163.85 454.15 164.40 453.47 164.95 452.79 C 173.79 452.09 182.61 453.94 191.07 456.35 C 193.29 456.97 196.42 457.10 197.56 454.62 C 198.45 452.45 196.26 451.11 195.03 449.74 C 194.79 444.03 189.97 440.28 185.69 437.26 C 178.58 431.44 172.23 424.75 165.20 418.83 C 161.28 415.98 162.15 408.39 155.99 408.40 C 156.12 407.02 156.27 405.64 156.53 404.29 C 156.90 405.53 157.37 406.75 157.90 407.95 C 188.38 419.66 218.52 432.24 248.91 444.20 C 255.89 446.86 262.64 450.21 269.86 452.21 C 279.70 431.51 289.68 410.87 299.69 390.25 C 301.08 396.61 299.50 403.93 303.60 409.45 C 305.21 412.06 304.73 415.65 307.29 417.72 C 312.45 422.70 319.78 424.68 326.73 425.52 C 323.32 431.93 319.97 438.48 318.52 445.66 C 312.38 445.92 306.27 446.56 300.12 446.55 C 297.90 446.21 297.95 448.90 298.53 450.32 C 300.02 454.55 301.77 458.68 303.39 462.86 C 303.96 464.58 305.54 465.55 306.89 466.61 C 310.37 465.43 314.06 466.28 317.13 468.14 C 314.64 468.22 312.14 468.21 309.65 468.22 C 311.50 469.76 313.26 472.05 315.98 471.58 C 321.08 471.30 326.00 472.78 331.03 473.30 C 333.74 472.12 332.06 468.91 330.16 467.84 C 322.99 462.58 313.67 460.42 304.87 461.26 C 303.05 457.90 303.21 454.10 303.94 450.47 C 311.16 450.90 318.37 451.48 325.61 451.58 C 329.24 454.56 334.63 455.66 336.77 460.22 C 338.89 464.56 337.12 469.44 336.46 473.90 C 343.42 474.17 348.84 478.93 354.50 482.36 C 357.76 484.09 360.88 486.05 364.02 487.99 C 360.66 479.32 351.42 475.35 343.28 472.42 C 339.85 471.52 338.82 467.06 340.22 464.13 C 341.34 461.25 342.59 457.52 345.98 456.73 C 350.00 456.09 354.08 456.90 358.10 457.18 C 362.03 457.19 364.31 461.13 368.00 461.93 C 374.63 463.34 381.33 461.48 387.98 461.30 C 392.58 461.50 397.02 458.84 401.55 460.72 C 401.61 465.05 399.43 469.65 401.16 473.79 C 402.42 476.62 405.69 475.76 407.88 474.71 C 416.36 475.59 424.09 479.23 432.14 481.72 C 436.99 483.19 441.04 486.43 445.87 487.95 C 438.01 482.65 429.99 477.61 421.32 473.72 C 417.06 470.71 411.78 472.01 406.97 471.23 C 406.73 467.90 405.26 464.25 407.21 461.18 C 409.28 457.71 409.89 453.70 409.86 449.73 C 405.27 451.31 402.26 455.50 397.93 457.62 C 395.84 453.74 391.43 455.94 388.01 455.74 C 381.35 455.65 374.65 457.95 368.05 456.27 C 360.99 454.63 353.89 453.16 346.99 450.97 C 343.20 449.77 338.68 451.29 335.44 448.49 C 331.87 446.10 330.46 441.35 332.41 437.47 C 334.87 436.40 337.65 435.50 339.22 433.17 C 343.12 427.81 343.96 421.03 346.35 414.98 C 345.11 412.48 344.46 409.78 343.97 407.05 C 343.84 405.00 341.66 404.39 340.19 403.54 C 334.76 405.78 328.80 406.19 323.00 406.45 C 318.62 407.09 315.99 402.94 312.22 401.58 C 310.79 394.87 306.09 389.65 303.01 383.70 C 303.65 383.51 304.93 383.14 305.57 382.95 C 309.35 384.47 313.40 385.21 317.10 386.94 C 329.23 392.69 341.41 398.35 353.17 404.83 C 355.98 406.28 357.04 409.85 360.17 410.81 C 365.47 412.87 370.76 414.99 376.07 417.04 C 382.89 394.23 389.80 371.45 396.68 348.67 L 397.45 348.67 C 399.36 351.49 401.00 354.56 401.60 357.96 C 402.07 359.47 401.99 361.47 403.51 362.43 C 408.49 365.91 413.88 368.76 419.11 371.84 C 421.66 373.27 423.10 375.93 425.16 377.92 C 426.13 380.18 426.97 382.60 426.67 385.11 C 426.60 389.59 423.12 393.29 423.44 397.81 C 423.26 399.81 425.64 400.13 426.86 401.15 C 429.66 402.65 430.42 406.16 432.92 407.98 C 436.26 409.41 439.82 410.36 443.43 410.78 C 443.49 409.53 443.56 408.29 443.63 407.06 C 445.07 405.92 446.51 404.78 447.96 403.66 C 454.09 402.83 460.20 401.50 465.89 398.99 C 469.98 397.17 475.53 396.49 476.87 391.40 C 484.91 389.48 494.89 390.82 500.45 397.46 C 503.35 400.49 501.89 404.96 503.60 408.48 C 506.64 415.83 506.11 424.03 507.18 431.74 C 507.96 425.53 509.00 419.37 509.44 413.13 C 509.65 410.06 511.78 406.44 509.25 403.83 C 505.23 398.79 499.81 395.12 494.47 391.62 C 491.68 389.67 488.13 390.41 484.96 390.22 C 487.67 386.15 491.77 383.35 495.34 380.11 C 499.30 384.01 501.48 389.18 503.77 394.13 C 504.43 388.05 499.37 383.91 495.86 379.71 C 500.76 375.21 507.27 378.52 512.00 381.47 L 512.00 512.00 L 156.46 512.00 L 156.57 511.75 C 156.45 511.81 156.22 511.94 156.11 512.00 L 0.00 512.00 L 0.00 335.29 C 4.08 335.74 8.36 335.17 11.45 332.24 Z" />
<path fill="#f5e5c1" opacity="1.00" d=" M 385.13 339.08 C 386.72 338.76 388.28 338.37 389.86 338.00 C 389.07 340.91 387.54 344.48 389.96 347.07 C 391.41 349.39 394.40 348.60 396.68 348.67 C 389.80 371.45 382.89 394.23 376.07 417.04 C 370.76 414.99 365.47 412.87 360.17 410.81 C 357.04 409.85 355.98 406.28 353.17 404.83 C 341.41 398.35 329.23 392.69 317.10 386.94 C 313.40 385.21 309.35 384.47 305.57 382.95 C 311.63 381.02 317.93 379.46 323.17 375.67 C 324.40 375.47 325.60 375.62 326.76 376.11 C 341.30 381.42 355.80 386.85 370.39 392.01 C 375.30 374.36 380.32 356.75 385.13 339.08 Z" />
<path fill="#3e3e3e" opacity="1.00" d=" M 310.58 343.02 C 310.09 339.69 314.58 338.11 316.85 340.05 C 318.70 341.48 318.17 344.03 318.39 346.06 C 317.11 346.54 315.83 347.03 314.56 347.53 C 312.98 346.32 310.54 345.37 310.58 343.02 Z" />
<path fill="#3e3e3e" opacity="1.00" d=" M 284.47 350.34 C 285.57 345.02 290.50 340.73 296.02 340.88 C 301.83 340.11 306.91 343.46 311.56 346.43 C 315.52 350.44 313.63 356.53 310.62 360.50 C 313.18 361.74 315.78 362.87 318.42 363.92 C 315.25 366.09 311.91 368.07 308.20 369.15 C 303.70 367.84 299.35 365.55 294.52 366.14 C 283.83 387.52 272.49 408.58 261.67 429.90 C 230.23 417.38 199.06 404.19 167.62 391.68 C 175.05 391.53 182.08 389.01 189.40 388.09 C 193.29 390.55 197.57 392.28 201.73 394.22 C 219.11 401.97 236.25 410.23 253.70 417.79 C 262.08 399.27 270.94 380.98 279.51 362.55 C 281.39 358.57 283.47 354.65 284.47 350.34 Z" />
<path fill="#f4722b" opacity="1.00" d=" M 319.69 342.27 C 321.79 342.75 323.89 343.23 325.95 343.91 C 326.95 344.67 327.96 345.44 328.92 346.28 C 332.24 349.96 337.17 353.49 336.88 359.02 C 337.08 362.94 334.39 366.11 331.99 368.90 C 329.44 371.62 326.40 373.82 323.17 375.67 C 317.93 379.46 311.63 381.02 305.57 382.95 C 304.93 383.14 303.65 383.51 303.01 383.70 C 306.09 389.65 310.79 394.87 312.22 401.58 C 315.99 402.94 318.62 407.09 323.00 406.45 C 328.80 406.19 334.76 405.78 340.19 403.54 C 341.66 404.39 343.84 405.00 343.97 407.05 C 344.46 409.78 345.11 412.48 346.35 414.98 C 343.96 421.03 343.12 427.81 339.22 433.17 C 337.65 435.50 334.87 436.40 332.41 437.47 C 330.46 441.35 331.87 446.10 335.44 448.49 C 338.68 451.29 343.20 449.77 346.99 450.97 C 353.89 453.16 360.99 454.63 368.05 456.27 C 374.65 457.95 381.35 455.65 388.01 455.74 C 391.43 455.94 395.84 453.74 397.93 457.62 C 402.26 455.50 405.27 451.31 409.86 449.73 C 409.89 453.70 409.28 457.71 407.21 461.18 C 405.26 464.25 406.73 467.90 406.97 471.23 C 411.78 472.01 417.06 470.71 421.32 473.72 C 429.99 477.61 438.01 482.65 445.87 487.95 C 441.04 486.43 436.99 483.19 432.14 481.72 C 424.09 479.23 416.36 475.59 407.88 474.71 C 405.69 475.76 402.42 476.62 401.16 473.79 C 399.43 469.65 401.61 465.05 401.55 460.72 C 397.02 458.84 392.58 461.50 387.98 461.30 C 381.33 461.48 374.63 463.34 368.00 461.93 C 364.31 461.13 362.03 457.19 358.10 457.18 C 354.08 456.90 350.00 456.09 345.98 456.73 C 342.59 457.52 341.34 461.25 340.22 464.13 C 338.82 467.06 339.85 471.52 343.28 472.42 C 351.42 475.35 360.66 479.32 364.02 487.99 C 360.88 486.05 357.76 484.09 354.50 482.36 C 348.84 478.93 343.42 474.17 336.46 473.90 C 337.12 469.44 338.89 464.56 336.77 460.22 C 334.63 455.66 329.24 454.56 325.61 451.58 C 318.37 451.48 311.16 450.90 303.94 450.47 C 303.21 454.10 303.05 457.90 304.87 461.26 C 313.67 460.42 322.99 462.58 330.16 467.84 C 332.06 468.91 333.74 472.12 331.03 473.30 C 326.00 472.78 321.08 471.30 315.98 471.58 C 313.26 472.05 311.50 469.76 309.65 468.22 C 312.14 468.21 314.64 468.22 317.13 468.14 C 314.06 466.28 310.37 465.43 306.89 466.61 C 305.54 465.55 303.96 464.58 303.39 462.86 C 301.77 458.68 300.02 454.55 298.53 450.32 C 297.95 448.90 297.90 446.21 300.12 446.55 C 306.27 446.56 312.38 445.92 318.52 445.66 C 319.97 438.48 323.32 431.93 326.73 425.52 C 319.78 424.68 312.45 422.70 307.29 417.72 C 304.73 415.65 305.21 412.06 303.60 409.45 C 299.50 403.93 301.08 396.61 299.69 390.25 C 299.05 383.94 297.78 377.73 296.54 371.52 C 300.42 370.69 304.50 370.76 308.20 369.15 C 311.91 368.07 315.25 366.09 318.42 363.92 C 320.64 362.49 322.28 360.40 323.61 358.15 C 319.53 355.70 315.85 352.27 314.56 347.53 C 315.83 347.03 317.11 346.54 318.39 346.06 C 318.81 344.79 319.25 343.53 319.69 342.27 Z" />
<path fill="#f5e5c1" opacity="1.00" d=" M 119.06 355.73 C 123.74 355.45 128.38 356.33 133.06 356.42 C 137.83 356.54 142.59 356.38 147.36 356.45 C 142.61 363.38 138.22 370.56 133.37 377.42 C 141.57 381.09 150.00 384.20 158.19 387.88 C 152.87 388.36 147.55 388.84 142.27 389.72 C 143.21 391.83 144.24 393.90 145.39 395.90 C 144.81 397.29 144.22 398.69 143.63 400.09 C 140.30 397.07 135.77 397.80 131.71 397.20 C 120.71 392.91 109.79 388.42 98.83 384.04 C 105.45 374.52 112.29 365.15 119.06 355.73 Z" />
<path fill="#3e3e3e" opacity="1.00" d=" M 147.36 356.45 C 150.19 356.48 153.02 356.28 155.82 355.89 C 156.45 355.92 157.70 355.98 158.33 356.01 C 155.80 360.89 152.54 365.33 149.77 370.06 C 150.60 370.65 151.43 371.25 152.27 371.85 C 154.11 369.61 155.66 366.84 158.43 365.65 C 162.20 364.56 166.60 365.87 169.24 368.76 C 171.85 371.92 170.91 376.29 170.87 380.05 C 174.20 381.51 177.51 383.04 180.60 384.98 C 173.09 385.64 165.71 387.33 158.19 387.88 C 150.00 384.20 141.57 381.09 133.37 377.42 C 138.22 370.56 142.61 363.38 147.36 356.45 Z" />
<path fill="#3e3e3e" opacity="1.00" d=" M 441.04 363.85 C 444.14 361.81 445.61 357.03 449.91 357.17 C 454.82 356.48 457.81 360.91 461.02 363.77 C 463.55 364.61 466.76 363.94 468.59 366.34 C 473.06 370.60 470.96 377.31 468.02 381.81 C 469.64 382.29 471.27 382.76 472.90 383.24 C 471.85 385.05 470.97 386.96 469.80 388.71 C 465.16 390.27 459.56 389.36 455.62 392.64 C 453.78 393.87 454.39 396.20 454.40 398.05 C 450.17 400.78 445.89 403.69 442.72 407.66 C 441.85 409.71 438.58 409.07 439.32 406.64 C 437.13 406.36 434.38 407.10 432.75 405.26 C 430.95 403.20 428.97 400.91 428.71 398.08 C 430.04 393.77 432.44 389.66 432.41 385.02 C 432.47 380.70 429.84 377.05 428.49 373.10 C 432.92 370.36 436.74 366.78 441.04 363.85 Z" />
<path fill="#3e3e3e" opacity="1.00" d=" M 198.93 370.01 C 201.02 365.41 206.60 364.89 211.00 364.40 C 213.73 364.01 216.47 366.31 216.56 369.07 C 216.72 373.43 217.74 378.76 214.13 382.08 C 211.63 384.59 207.80 384.03 204.72 383.13 C 204.05 382.94 202.71 382.57 202.04 382.38 C 199.36 378.95 196.72 374.37 198.93 370.01 Z" />
<path fill="#f5e5c1" opacity="1.00" d=" M 294.52 366.14 C 299.35 365.55 303.70 367.84 308.20 369.15 C 304.50 370.76 300.42 370.69 296.54 371.52 C 297.78 377.73 299.05 383.94 299.69 390.25 C 289.68 410.87 279.70 431.51 269.86 452.21 C 262.64 450.21 255.89 446.86 248.91 444.20 C 218.52 432.24 188.38 419.66 157.90 407.95 C 157.37 406.75 156.90 405.53 156.53 404.29 C 157.29 401.40 157.25 397.80 159.87 395.84 C 162.12 393.97 164.62 392.01 167.62 391.68 C 199.06 404.19 230.23 417.38 261.67 429.90 C 272.49 408.58 283.83 387.52 294.52 366.14 Z" />
<path fill="#3e3e3e" opacity="1.00" d=" M 184.23 374.30 C 186.56 373.39 189.30 375.33 188.79 377.90 C 188.88 380.19 186.01 382.28 183.98 380.99 C 181.20 379.98 181.56 375.28 184.23 374.30 Z" />
<path fill="#f4722b" opacity="1.00" d=" M 180.60 384.98 C 187.76 384.21 194.88 383.12 202.04 382.38 C 202.71 382.57 204.05 382.94 204.72 383.13 C 200.04 385.93 194.42 386.15 189.40 388.09 C 182.08 389.01 175.05 391.53 167.62 391.68 C 164.62 392.01 162.12 393.97 159.87 395.84 C 157.25 397.80 157.29 401.40 156.53 404.29 C 156.27 405.64 156.12 407.02 155.99 408.40 C 162.15 408.39 161.28 415.98 165.20 418.83 C 172.23 424.75 178.58 431.44 185.69 437.26 C 189.97 440.28 194.79 444.03 195.03 449.74 C 196.26 451.11 198.45 452.45 197.56 454.62 C 196.42 457.10 193.29 456.97 191.07 456.35 C 182.61 453.94 173.79 452.09 164.95 452.79 C 164.40 453.47 163.85 454.15 163.30 454.83 C 160.08 452.23 156.06 452.42 152.36 453.82 C 152.92 449.84 156.60 447.59 160.10 446.47 C 166.55 445.97 173.02 444.99 179.47 445.99 C 171.68 438.53 163.56 431.41 155.71 424.01 C 154.74 425.20 153.34 426.31 153.45 428.04 C 153.33 433.03 155.16 437.96 154.34 442.97 C 153.33 446.08 150.68 448.26 149.20 451.13 C 146.55 456.93 141.03 460.60 136.36 464.66 C 136.86 465.83 137.26 467.03 137.78 468.22 C 136.08 470.25 133.80 471.82 131.03 471.49 C 126.49 471.18 122.20 472.55 118.26 474.70 C 118.53 474.88 119.06 475.25 119.33 475.43 C 120.03 475.39 120.74 475.36 121.45 475.33 C 123.90 480.00 129.68 478.17 133.92 478.76 C 140.84 478.52 144.45 485.29 149.78 488.49 C 140.01 487.32 130.56 490.97 120.83 490.68 C 126.99 488.23 133.60 488.05 140.13 487.95 C 137.09 485.03 132.69 486.63 128.96 486.38 C 123.45 486.72 118.34 484.09 114.15 480.75 C 111.01 478.17 107.00 476.98 104.07 474.12 C 100.38 475.09 97.04 478.21 93.03 477.19 C 89.34 476.51 85.65 475.86 81.91 475.50 C 75.05 474.86 68.40 472.88 61.55 472.13 C 62.39 471.37 63.22 470.61 64.06 469.85 C 62.11 466.88 59.52 463.77 60.14 459.95 C 59.88 456.82 63.10 455.64 65.10 454.02 C 67.09 452.69 67.58 450.19 68.30 448.08 C 69.21 444.88 70.41 441.78 71.35 438.59 C 73.36 431.19 72.99 423.44 74.30 415.92 C 74.38 413.96 75.31 411.69 74.03 409.95 C 71.88 408.02 69.02 407.03 67.00 404.94 C 65.79 403.48 65.06 401.70 64.17 400.05 C 60.43 407.72 56.91 415.51 52.87 423.04 C 51.26 426.25 47.58 422.77 45.01 424.10 C 47.41 428.51 50.13 433.06 49.89 438.29 C 52.04 440.07 55.23 441.70 54.98 444.98 C 55.36 448.53 52.48 451.14 51.52 454.33 C 51.35 455.95 51.73 457.63 51.32 459.23 C 49.17 461.05 46.91 462.83 45.96 465.62 C 44.02 465.20 42.12 464.41 40.11 464.47 C 36.30 465.14 35.04 469.17 32.57 471.59 C 31.08 473.25 28.67 472.70 26.70 472.81 C 30.89 468.63 35.21 464.29 40.73 461.90 C 42.15 455.52 46.91 450.78 49.57 445.00 C 49.63 442.08 45.92 441.25 43.79 440.18 C 42.56 436.29 41.76 432.12 39.45 428.69 C 37.88 427.76 35.97 427.79 34.23 427.46 C 33.93 426.02 33.63 424.59 33.34 423.17 C 30.67 423.61 27.82 423.88 25.67 425.72 C 24.50 426.89 21.60 427.39 21.40 425.09 C 22.84 423.04 24.44 421.05 26.34 419.41 C 29.21 419.68 31.91 421.60 34.97 421.23 C 39.91 420.95 46.10 421.84 49.76 417.78 C 52.55 411.87 55.55 406.06 58.21 400.08 C 59.79 397.16 61.57 393.72 65.01 392.73 C 69.57 392.66 68.54 397.99 70.28 400.75 C 72.29 403.18 75.66 403.96 77.77 406.30 C 78.85 407.72 79.47 409.42 80.23 411.03 C 84.26 411.15 89.47 411.25 91.81 415.12 C 88.19 417.82 83.42 415.62 79.30 415.82 C 78.53 421.21 77.92 426.62 77.52 432.05 C 76.99 439.17 74.41 445.86 72.64 452.71 C 71.82 456.11 69.06 458.40 67.17 461.18 C 67.78 463.74 70.19 465.26 71.85 467.13 C 73.72 468.72 75.19 471.46 77.99 471.26 C 86.42 471.61 94.66 469.30 102.97 468.20 C 107.05 467.91 110.20 465.13 113.90 463.78 C 118.93 464.50 124.03 463.76 128.96 462.93 C 132.44 460.11 135.39 456.70 138.57 453.55 C 141.61 450.77 142.05 446.49 143.94 443.03 C 147.27 437.28 148.00 430.51 148.64 424.02 C 149.19 421.45 146.26 420.21 145.68 417.98 C 144.77 413.32 146.34 408.68 146.23 404.03 C 145.60 402.57 144.61 401.32 143.63 400.09 C 144.22 398.69 144.81 397.29 145.39 395.90 C 144.24 393.90 143.21 391.83 142.27 389.72 C 147.55 388.84 152.87 388.36 158.19 387.88 C 165.71 387.33 173.09 385.64 180.60 384.98 Z" />
<path fill="#f4722b" opacity="1.00" d=" M 93.29 404.36 C 96.55 401.97 100.59 404.61 102.79 407.23 C 106.79 412.04 111.21 417.46 111.26 424.04 C 109.61 422.93 107.92 421.88 106.44 420.55 C 103.32 416.03 101.01 410.42 96.07 407.54 C 92.24 407.89 96.61 413.53 92.82 414.26 C 92.38 411.02 90.32 407.00 93.29 404.36 Z" />
<path fill="#f4722b" opacity="1.00" d=" M 367.57 498.08 C 367.59 500.95 367.40 504.09 365.29 506.28 C 363.58 508.51 360.44 508.06 358.18 507.04 C 362.31 505.28 365.23 501.79 367.57 498.08 Z" />
<path fill="#ab5d33" opacity="1.00" d=" M 156.11 512.00 C 156.22 511.94 156.45 511.81 156.57 511.75 L 156.46 512.00 L 156.11 512.00 Z" />
</svg>
