<?xml version="1.0" encoding="UTF-8" ?>
<!DOCTYPE svg PUBLIC "-//W3C//DTD SVG 1.1//EN" "http://www.w3.org/Graphics/SVG/1.1/DTD/svg11.dtd">
<svg width="512pt" height="512pt" viewBox="0 0 512 512" version="1.1" xmlns="http://www.w3.org/2000/svg">
<path fill="#3e3e3e" opacity="1.00" d=" M 0.00 0.00 L 512.00 0.00 L 512.00 512.00 L 0.00 512.00 L 0.00 0.00 Z" />
<path fill="#f5e5c1" opacity="1.00" d=" M 289.61 18.30 C 300.56 47.95 311.70 77.54 322.91 107.10 C 325.33 113.25 326.97 119.67 328.71 126.03 C 328.18 127.80 326.93 129.24 325.94 130.77 C 319.47 139.80 313.39 149.10 307.30 158.39 C 304.09 163.34 300.53 168.06 297.67 173.23 C 289.81 155.23 282.36 137.04 274.77 118.92 C 277.27 112.69 279.90 106.51 282.29 100.24 C 284.01 94.59 284.75 88.71 286.06 82.97 C 288.32 73.84 287.97 64.37 288.80 55.05 C 289.91 42.83 288.96 30.54 289.61 18.30 Z" />
<path fill="#f4722b" opacity="1.00" d=" M 399.81 50.27 C 405.45 50.83 411.11 52.30 416.14 54.93 C 421.21 58.66 427.21 62.04 429.66 68.18 C 432.87 75.63 435.69 83.83 434.24 92.04 C 433.67 95.27 430.45 96.57 427.90 97.97 C 423.37 100.35 419.00 103.00 414.49 105.40 C 413.11 106.36 411.86 104.94 410.90 104.10 C 401.49 94.34 391.69 84.96 382.70 74.79 C 384.08 70.57 387.22 67.33 389.54 63.64 C 392.03 59.73 394.59 55.86 397.06 51.94 C 400.71 55.64 403.66 59.96 407.35 63.63 C 411.44 67.76 415.73 71.71 419.87 75.80 C 414.01 66.65 406.68 58.63 399.81 50.27 Z" />
<path fill="#f4722b" opacity="1.00" d=" M 339.53 108.52 C 351.55 96.61 363.62 84.76 375.65 72.86 C 385.35 82.02 393.36 92.74 402.88 102.08 C 406.69 106.29 410.45 110.54 414.12 114.87 C 407.76 121.63 400.78 127.73 393.70 133.71 C 379.66 146.04 365.66 158.40 351.53 170.62 C 348.96 173.26 345.44 170.06 342.64 169.41 C 339.62 171.43 337.28 174.21 334.93 176.93 C 330.11 182.13 325.44 187.46 320.62 192.66 C 317.53 196.25 313.86 199.44 311.71 203.74 C 312.94 205.58 314.14 207.45 315.33 209.33 C 306.15 218.17 296.40 226.40 287.00 235.00 C 280.74 241.07 273.72 246.36 267.99 252.97 C 264.45 256.94 260.75 260.79 257.59 265.08 C 254.17 265.77 249.80 264.92 248.69 261.12 C 248.49 258.45 248.45 255.40 250.16 253.17 C 255.76 245.71 261.97 238.65 266.66 230.56 C 273.83 218.78 281.19 207.13 288.31 195.33 C 293.40 186.50 297.22 176.82 304.18 169.21 C 313.00 157.03 321.89 144.89 330.56 132.59 C 332.11 130.29 333.96 127.91 333.89 124.98 C 334.33 119.21 335.05 112.70 339.53 108.52 Z" />
<path fill="#3e3e3e" opacity="1.00" d=" M 376.98 94.13 C 374.96 89.99 371.96 85.15 374.96 80.68 C 376.43 82.84 377.64 85.16 378.52 87.63 C 382.20 97.94 389.80 106.66 399.06 112.40 C 389.99 109.07 380.92 103.33 376.98 94.13 Z" />
<path fill="#f4722b" opacity="1.00" d=" M 112.24 106.83 C 115.36 113.53 118.28 120.39 122.42 126.55 C 126.04 132.00 131.42 136.33 137.67 138.34 C 145.08 141.05 153.21 138.60 160.66 141.21 C 165.63 142.63 170.57 145.05 173.47 149.52 C 176.71 153.91 180.36 157.97 183.67 162.30 C 186.75 166.34 188.04 171.32 189.98 175.93 C 191.90 180.90 194.57 185.63 195.51 190.93 C 196.27 194.69 197.03 199.22 200.58 201.39 C 204.42 202.53 208.48 203.02 212.10 204.87 C 218.14 207.87 224.81 209.22 230.91 212.06 C 236.44 214.65 242.09 217.18 248.12 218.38 C 239.40 211.46 227.12 208.97 220.82 199.20 C 219.26 194.40 220.01 189.15 219.35 184.17 C 217.62 169.74 220.86 155.33 224.64 141.48 C 231.91 139.63 239.56 140.81 246.51 143.34 C 260.73 148.63 273.65 157.00 285.29 166.65 C 288.40 168.93 289.38 172.77 290.66 176.19 C 286.80 183.14 283.38 190.36 278.90 196.94 C 267.43 215.57 257.10 235.24 242.00 251.30 C 240.34 251.75 238.69 252.27 236.99 252.55 C 233.75 251.99 232.41 247.90 229.08 247.47 C 224.16 247.11 220.66 243.22 216.01 242.06 C 209.60 240.34 202.42 241.13 196.83 244.84 C 189.42 249.44 185.36 258.50 186.37 267.10 C 187.66 278.43 194.78 289.22 205.42 293.79 C 205.23 298.55 205.15 303.82 209.11 307.24 C 211.35 303.65 211.66 299.42 211.62 295.30 C 215.55 294.96 219.62 294.86 223.29 293.25 C 226.57 291.88 229.30 289.52 232.04 287.31 C 232.90 288.33 233.77 289.36 234.64 290.38 C 232.94 291.03 230.72 291.02 229.56 292.62 C 228.63 294.94 228.94 298.17 231.39 299.43 C 233.37 300.12 235.54 299.57 237.59 299.55 C 238.20 297.58 238.63 295.57 238.96 293.54 C 241.74 293.47 244.84 293.97 247.25 292.22 C 249.90 290.72 251.23 287.87 252.00 285.05 C 252.75 287.16 254.02 289.01 255.59 290.60 C 256.83 290.54 258.08 290.50 259.33 290.46 C 260.77 292.81 262.08 295.71 264.98 296.52 C 268.47 297.60 271.95 295.95 275.27 295.02 C 272.20 296.29 267.72 297.04 267.31 301.09 C 265.92 306.06 270.84 311.24 275.88 309.59 C 280.13 308.49 280.81 303.60 280.26 299.90 C 284.39 300.63 289.00 301.14 292.76 298.82 C 296.92 296.34 298.75 290.68 296.72 286.26 C 294.01 280.37 287.69 275.50 280.94 276.63 C 277.86 276.89 275.55 279.08 273.35 281.00 C 268.56 279.91 266.10 274.79 261.04 274.21 C 261.67 272.27 262.12 270.16 263.59 268.64 C 270.59 260.65 277.48 252.46 285.77 245.75 C 290.67 241.30 296.01 237.32 300.52 232.45 C 304.83 228.07 309.79 224.40 314.22 220.14 C 317.50 226.66 321.44 232.84 324.37 239.54 C 325.75 243.30 329.90 244.30 333.30 245.42 C 337.51 253.04 342.13 260.49 347.88 267.06 C 353.77 273.61 359.27 280.50 365.11 287.09 C 362.74 278.17 356.82 270.90 351.11 263.89 C 345.69 257.42 341.40 250.13 336.40 243.36 C 339.00 242.64 341.59 241.88 344.19 241.13 C 347.99 250.22 353.45 258.57 359.85 266.04 C 368.88 277.04 378.32 287.70 387.13 298.88 C 379.60 297.84 372.53 294.00 367.31 288.51 C 363.08 288.97 358.92 287.94 355.27 285.79 C 351.38 283.43 346.54 284.52 342.46 282.69 C 339.27 281.43 336.96 278.74 333.96 277.17 C 330.51 276.74 327.15 277.95 323.94 279.06 C 326.70 285.79 330.57 292.01 332.92 298.91 C 334.80 296.89 336.94 294.37 340.03 294.77 C 344.13 295.41 346.59 299.12 348.54 302.42 C 350.87 306.49 353.36 310.48 356.33 314.12 C 358.39 309.00 359.30 303.23 362.78 298.81 C 364.81 296.46 368.35 297.26 370.09 299.53 C 363.77 302.63 360.77 309.58 359.45 316.13 C 357.89 323.42 357.43 331.08 359.54 338.32 C 357.05 335.45 355.06 332.21 353.14 328.96 C 349.71 323.15 344.78 318.41 341.49 312.52 C 340.62 317.52 339.26 322.79 341.11 327.75 C 343.61 334.93 346.11 342.12 348.68 349.27 C 350.37 353.87 354.79 356.55 358.06 359.94 C 367.22 367.75 375.86 376.15 384.59 384.44 C 404.02 401.74 423.63 418.88 444.13 434.92 C 456.90 444.15 469.46 453.73 481.03 464.44 C 475.30 464.60 471.05 460.47 466.73 457.35 C 461.36 453.40 456.23 449.15 451.34 444.62 C 446.13 439.92 439.52 437.25 434.01 432.97 C 428.46 428.87 423.67 423.62 417.26 420.80 C 409.70 417.27 402.35 413.24 395.57 408.36 C 387.83 403.29 381.15 396.84 373.69 391.39 C 369.26 388.14 364.93 384.75 360.58 381.40 C 356.29 378.10 351.26 375.97 346.82 372.89 C 344.58 374.57 342.40 376.37 340.68 378.60 C 337.39 382.93 333.21 386.47 329.80 390.69 C 332.78 393.59 335.67 396.62 337.89 400.16 C 342.35 407.24 349.02 412.43 355.19 417.92 C 367.48 428.60 379.17 439.97 391.99 450.03 C 406.78 462.02 422.37 472.97 437.50 484.52 C 443.26 489.15 449.92 492.65 455.06 498.02 C 447.21 496.15 442.04 489.24 434.71 486.29 C 429.26 483.88 424.03 481.02 418.78 478.22 C 401.20 467.91 386.48 453.51 369.16 442.83 C 360.33 436.96 351.33 431.34 342.56 425.38 C 332.50 418.24 322.06 411.56 311.01 406.02 C 305.40 403.13 299.58 400.46 294.76 396.30 C 291.20 393.00 286.20 392.32 282.06 390.04 C 273.89 385.78 266.27 380.56 258.69 375.36 C 256.74 373.95 254.43 372.63 253.67 370.18 C 249.36 358.59 245.16 346.85 238.95 336.10 C 234.46 328.33 230.59 320.13 224.84 313.18 C 222.49 310.47 219.75 307.83 216.16 306.96 C 217.53 316.39 224.54 323.30 228.26 331.74 C 231.37 338.57 235.53 344.87 238.40 351.81 C 239.80 355.07 239.48 358.69 239.67 362.15 C 236.08 359.91 233.25 356.79 230.44 353.70 C 226.04 351.39 221.26 349.85 217.03 347.20 C 216.54 347.41 215.56 347.82 215.08 348.03 C 212.58 346.51 210.12 344.93 207.68 343.33 C 207.56 342.69 207.32 341.40 207.20 340.76 C 201.89 338.79 196.02 338.11 191.24 334.89 C 188.58 333.16 186.50 330.75 184.44 328.38 C 179.24 330.21 173.95 327.99 169.15 326.02 C 164.52 324.09 160.79 320.65 157.17 317.29 C 152.36 318.39 149.13 314.18 144.70 313.53 C 148.87 317.05 153.68 319.90 158.97 321.36 C 164.48 322.65 168.23 327.33 173.42 329.36 C 177.20 330.80 180.71 332.79 184.13 334.93 C 184.91 334.07 185.65 333.19 186.36 332.29 C 191.08 336.42 196.03 340.34 201.83 342.85 C 206.45 352.09 217.40 353.91 225.18 359.45 C 223.80 364.85 225.81 370.10 227.99 374.97 C 218.43 366.53 208.82 358.17 199.25 349.75 C 194.53 345.80 190.46 341.14 185.62 337.33 C 190.21 342.75 196.21 346.88 200.16 352.85 C 204.53 358.73 207.48 366.00 214.04 369.91 C 219.17 373.08 223.06 378.95 229.46 379.49 C 231.08 383.25 232.11 387.27 231.76 391.40 C 227.78 388.91 224.31 385.68 220.15 383.47 C 218.54 382.60 217.14 381.39 215.87 380.09 C 209.15 373.14 201.89 366.76 195.00 359.99 C 190.97 355.96 186.06 352.99 181.93 349.08 C 178.09 345.50 174.20 341.85 169.43 339.51 C 174.64 344.04 180.49 347.80 185.28 352.81 C 193.04 360.69 200.91 368.48 208.20 376.80 C 213.00 383.38 219.91 387.82 226.02 393.05 C 233.50 398.60 237.10 407.90 237.98 416.92 C 229.96 411.09 221.88 405.21 215.05 397.96 C 207.48 390.22 199.62 382.77 191.72 375.36 C 184.69 368.73 178.30 361.37 170.64 355.41 C 174.84 361.13 179.71 366.32 183.96 372.00 C 190.83 382.93 201.66 390.37 210.48 399.58 C 217.52 407.05 225.81 413.12 234.27 418.87 C 237.26 420.65 238.39 424.10 239.88 427.04 C 242.43 432.81 246.24 438.80 244.30 445.36 C 225.90 428.95 209.08 410.88 191.65 393.47 C 185.56 386.83 178.14 381.61 172.08 374.93 C 167.30 370.28 162.74 365.42 158.37 360.38 C 163.32 367.42 168.82 374.05 174.32 380.66 C 178.25 385.40 182.02 390.29 186.45 394.58 C 197.34 405.34 208.16 416.18 219.11 426.88 C 226.10 433.75 233.79 439.85 241.32 446.11 C 244.36 454.65 249.77 462.07 253.41 470.34 C 249.16 470.24 244.75 469.46 241.44 466.59 C 227.22 454.37 212.17 443.17 197.64 431.32 C 188.10 423.46 177.43 416.99 168.49 408.41 C 163.42 403.51 157.91 399.09 152.99 394.05 C 143.70 384.90 135.57 374.66 127.69 364.30 C 118.94 354.29 110.26 344.16 102.90 333.06 C 95.70 321.58 88.90 309.81 83.25 297.48 C 80.62 291.67 76.08 286.88 74.08 280.76 C 69.98 266.60 64.84 252.03 67.20 237.07 C 67.62 234.98 68.46 233.01 69.21 231.02 C 76.53 232.20 83.90 233.15 91.11 234.94 C 91.46 235.25 92.17 235.88 92.53 236.19 C 99.21 236.85 104.81 240.93 111.04 243.08 C 120.08 246.89 129.67 249.04 138.91 252.25 C 143.43 252.60 147.46 249.88 151.93 249.76 C 157.49 249.38 163.03 250.31 168.38 251.77 C 163.97 249.77 160.19 245.77 155.03 246.00 C 151.31 245.95 147.58 246.16 143.86 246.03 C 142.62 242.67 142.84 237.73 138.95 236.22 C 130.49 232.52 122.36 227.78 115.60 221.43 C 110.35 215.77 105.03 209.72 102.70 202.21 C 100.57 195.38 99.37 188.20 99.69 181.03 C 100.07 173.73 99.55 166.38 100.55 159.11 C 101.11 153.84 104.49 149.35 104.80 144.02 C 105.92 131.38 109.16 119.10 112.24 106.83 Z" />
<path fill="#f5e5c1" opacity="1.00" d=" M 458.75 127.38 C 461.75 126.76 464.97 126.77 467.67 125.15 C 467.25 125.65 466.39 126.64 465.96 127.14 C 465.57 127.22 464.80 127.38 464.41 127.46 C 454.31 132.71 444.20 137.91 434.08 143.12 C 427.75 146.69 421.71 150.76 415.48 154.50 C 407.24 159.41 399.64 165.30 391.63 170.56 C 384.07 172.67 376.51 174.77 368.94 176.86 C 368.90 177.03 368.81 177.36 368.77 177.52 C 374.38 176.81 380.04 176.47 385.62 175.48 C 381.64 179.47 377.16 182.88 372.89 186.53 C 370.79 186.66 368.69 186.88 366.63 187.28 C 364.37 181.34 362.31 175.31 359.27 169.71 C 372.04 160.04 384.61 150.12 397.36 140.42 C 399.96 138.12 403.44 137.69 406.73 137.17 C 424.07 133.89 441.42 130.67 458.75 127.38 Z" />
<path fill="#f5e5c1" opacity="1.00" d=" M 314.94 204.86 C 324.28 194.56 333.60 184.24 342.96 173.95 C 345.36 174.78 348.02 175.23 350.10 176.77 C 352.33 179.37 353.76 182.53 355.57 185.41 C 364.41 200.00 372.59 215.01 382.11 229.19 C 382.58 229.47 383.53 230.04 384.01 230.33 C 383.17 230.35 382.33 230.37 381.50 230.40 C 377.94 229.20 374.04 228.56 371.15 225.99 C 360.21 217.06 348.92 208.57 338.06 199.55 C 340.43 210.57 344.19 221.25 347.04 232.15 C 341.84 233.74 336.78 235.81 331.45 236.96 C 326.04 226.21 319.77 215.90 314.94 204.86 Z" />
<path fill="#3e3e3e" opacity="1.00" d=" M 197.42 216.64 C 204.55 214.45 212.86 221.98 210.28 229.30 C 208.07 235.64 199.18 236.80 194.62 232.31 C 189.22 228.15 190.74 218.54 197.42 216.64 Z" />
<path fill="#f4722b" opacity="1.00" d=" M 354.37 228.93 C 361.49 238.08 369.22 246.78 375.67 256.43 C 377.63 259.07 380.25 261.11 382.56 263.44 C 386.46 267.28 389.48 271.88 392.73 276.25 C 396.77 281.84 401.54 286.88 405.23 292.73 C 410.27 300.58 416.42 307.69 420.90 315.91 C 414.83 314.61 409.59 311.00 405.01 306.96 C 402.16 304.32 397.34 305.42 395.02 302.01 C 383.66 287.15 371.15 273.22 359.36 258.71 C 354.45 252.37 350.52 245.16 344.07 240.18 C 344.99 240.23 346.84 240.33 347.77 240.38 C 353.25 249.89 361.18 257.58 367.58 266.43 C 370.81 270.50 374.91 273.76 378.28 277.71 C 381.22 281.16 383.93 284.82 387.21 287.96 C 389.47 285.38 386.49 283.06 385.02 281.06 C 376.39 271.48 370.28 259.94 361.52 250.48 C 358.05 246.33 354.86 241.87 350.46 238.61 C 352.93 235.94 354.15 232.53 354.37 228.93 Z" />
<path fill="#3e3e3e" opacity="1.00" d=" M 303.73 233.71 C 304.26 233.77 305.33 233.88 305.86 233.94 C 310.92 238.31 312.85 244.92 315.63 250.76 C 318.18 251.86 318.11 254.85 319.04 257.07 C 321.04 262.29 323.12 267.53 324.29 273.01 C 324.06 274.47 323.73 275.90 323.30 277.32 C 318.01 272.91 318.97 265.14 315.50 259.61 C 312.59 254.95 310.16 250.04 308.02 244.99 C 306.54 241.27 302.94 237.99 303.73 233.71 Z" />
<path fill="#3e3e3e" opacity="1.00" d=" M 312.02 237.66 C 315.34 240.08 317.73 243.45 320.29 246.61 C 325.75 253.56 331.80 260.18 335.84 268.11 C 337.88 272.17 341.49 275.20 343.30 279.40 C 339.25 276.92 336.92 272.63 333.76 269.23 C 327.35 261.29 320.10 253.98 314.74 245.26 C 313.25 242.97 312.44 240.34 312.02 237.66 Z" />
<path fill="#3e3e3e" opacity="1.00" d=" M 171.51 254.06 C 174.65 256.57 177.75 259.16 180.60 262.01 C 177.45 260.26 174.44 258.29 171.42 256.34 C 171.45 255.77 171.49 254.63 171.51 254.06 Z" />
<path fill="#3e3e3e" opacity="1.00" d=" M 159.42 267.63 C 163.20 266.77 167.46 266.98 170.74 269.22 C 179.92 275.03 181.25 289.94 173.07 297.16 C 168.86 300.99 161.75 300.07 158.23 295.75 C 154.48 291.22 149.76 286.32 150.17 279.98 C 150.00 274.39 154.17 269.24 159.42 267.63 Z" />
<path fill="#3e3e3e" opacity="1.00" d=" M 114.39 268.40 C 117.98 266.39 123.41 267.94 124.53 272.13 C 126.32 279.07 117.57 284.28 111.60 282.41 C 106.08 278.83 109.02 270.50 114.39 268.40 Z" />
<path fill="#3e3e3e" opacity="1.00" d=" M 253.25 309.15 C 257.69 307.33 260.80 313.33 260.44 317.05 C 258.31 320.17 252.64 319.26 251.27 315.78 C 249.90 313.56 250.82 310.19 253.25 309.15 Z" />
<path fill="#3e3e3e" opacity="1.00" d=" M 267.61 340.99 C 267.69 336.69 273.83 335.80 276.00 338.97 C 277.93 341.74 276.59 345.58 278.55 348.40 C 282.62 355.53 285.74 363.13 289.55 370.40 C 291.67 374.77 295.76 377.63 298.67 381.42 C 303.30 387.51 307.73 394.45 307.59 402.42 C 299.12 399.86 295.73 390.77 290.54 384.47 C 287.12 380.62 287.01 375.34 286.16 370.54 C 283.42 363.55 277.16 358.74 273.94 352.01 C 272.35 347.93 266.46 346.04 267.61 340.99 Z" />
</svg>
