<?xml version="1.0" encoding="UTF-8" ?>
<!DOCTYPE svg PUBLIC "-//W3C//DTD SVG 1.1//EN" "http://www.w3.org/Graphics/SVG/1.1/DTD/svg11.dtd">
<svg width="512pt" height="512pt" viewBox="0 0 512 512" version="1.1" xmlns="http://www.w3.org/2000/svg">
<path fill="#3e3e3e" opacity="1.00" d=" M 0.00 0.00 L 52.68 0.00 C 76.51 22.58 99.97 45.58 123.77 68.21 C 133.31 57.75 143.92 48.28 155.54 40.19 C 146.62 26.82 137.96 13.27 128.89 0.00 L 185.98 0.00 C 188.68 6.62 190.90 13.44 193.43 20.13 C 208.90 14.34 225.07 10.42 241.52 8.79 C 241.33 5.86 241.14 2.93 240.95 0.00 L 274.05 0.00 C 273.86 2.84 273.68 5.67 273.49 8.51 C 278.30 9.01 283.10 9.56 287.88 10.27 C 288.33 6.85 288.79 3.42 289.25 0.00 L 296.10 0.00 C 295.18 3.73 294.59 7.54 293.89 11.31 C 303.40 13.27 312.76 15.88 321.91 19.16 C 324.35 12.80 326.43 6.30 329.02 0.00 L 386.11 0.00 C 377.36 12.82 368.94 25.87 360.40 38.83 C 368.49 44.35 376.24 50.37 383.33 57.12 C 400.96 38.20 418.19 18.91 435.81 0.00 L 453.19 0.00 C 432.16 21.27 411.43 42.85 390.51 64.24 C 391.28 65.07 392.06 65.90 392.84 66.73 C 416.04 44.52 439.03 22.10 462.32 0.00 L 512.00 0.00 L 512.00 13.62 C 477.58 37.91 442.85 61.77 408.35 85.96 C 413.52 93.45 418.22 101.27 422.20 109.47 C 452.18 93.18 482.15 76.83 512.00 60.30 L 512.00 117.18 C 486.20 125.41 460.23 133.12 434.37 141.17 C 436.68 149.68 438.40 158.35 439.62 167.09 C 463.74 164.06 487.90 161.27 512.00 158.08 L 512.00 179.74 C 488.29 180.61 464.57 181.33 440.85 182.11 C 440.91 184.80 440.97 187.50 441.03 190.20 C 464.69 190.20 488.34 190.20 512.00 190.20 L 512.00 230.93 C 487.60 226.85 463.11 223.24 438.68 219.33 C 436.77 230.59 433.82 241.65 430.04 252.43 C 457.35 262.55 484.75 272.46 512.00 282.74 L 512.00 337.60 C 480.20 318.76 448.19 300.26 416.26 281.62 C 411.95 289.22 406.74 296.22 401.70 303.33 C 438.49 333.66 475.35 363.92 512.00 394.42 L 512.00 415.20 C 471.14 382.41 430.07 349.87 389.05 317.27 C 385.82 320.47 382.53 323.61 379.22 326.73 C 423.45 384.80 467.87 442.73 512.00 500.87 L 512.00 512.00 L 424.68 512.00 C 408.82 478.52 393.42 444.82 377.74 411.26 C 374.96 405.16 371.95 399.17 369.43 392.96 C 370.12 411.99 365.33 431.04 356.81 448.00 C 355.77 449.76 356.78 451.70 357.29 453.46 C 364.30 472.92 370.83 492.56 377.88 512.00 L 137.11 512.00 C 144.15 492.56 150.74 472.96 157.66 453.48 C 159.37 449.98 156.67 446.73 155.38 443.62 C 148.45 428.47 144.81 411.80 144.62 395.15 C 126.72 434.19 108.57 473.12 90.35 512.00 L 0.00 512.00 L 0.00 504.80 C 45.56 444.78 91.42 384.99 137.06 325.03 C 135.10 323.24 133.14 321.46 131.16 319.70 C 87.49 362.46 43.59 404.99 0.00 447.82 L 0.00 434.93 C 42.51 395.21 85.40 355.89 127.96 316.22 C 122.69 310.91 117.91 305.14 113.36 299.20 C 75.58 327.11 37.68 354.86 0.00 382.90 L 0.00 368.67 C 36.38 343.57 73.05 318.86 109.51 293.86 C 106.51 289.45 103.65 284.95 100.98 280.33 C 67.30 299.96 33.56 319.51 0.00 339.35 L 0.00 283.86 C 29.15 272.84 58.48 262.29 87.68 251.40 C 86.93 249.24 86.18 247.09 85.44 244.94 C 56.95 253.20 28.43 261.35 0.00 269.78 L 0.00 263.54 C 28.03 255.82 56.20 248.61 84.27 241.04 C 82.20 233.75 80.53 226.35 79.26 218.88 C 52.84 223.05 26.39 227.06 0.00 231.37 L 0.00 190.20 C 25.65 190.20 51.30 190.20 76.95 190.20 C 77.03 177.02 78.41 163.85 81.19 150.97 C 54.14 144.97 27.02 139.26 0.00 133.13 L 0.00 126.52 C 27.35 133.45 54.81 139.92 82.21 146.66 C 82.61 145.11 83.03 143.57 83.44 142.02 C 55.64 133.41 27.75 125.05 0.00 116.29 L 0.00 58.64 C 31.59 76.22 63.42 93.39 95.10 110.81 C 99.06 102.70 103.57 94.86 108.68 87.41 C 72.54 61.99 36.10 37.01 0.00 11.55 L 0.00 0.00 Z" />
<path fill="#c6ba9f" opacity="1.00" d=" M 52.68 0.00 L 128.89 0.00 C 137.96 13.27 146.62 26.82 155.54 40.19 C 143.92 48.28 133.31 57.75 123.77 68.21 C 99.97 45.58 76.51 22.58 52.68 0.00 Z" />
<path fill="#c6ba9f" opacity="1.00" d=" M 185.98 0.00 L 240.95 0.00 C 241.14 2.93 241.33 5.86 241.52 8.79 C 225.07 10.42 208.90 14.34 193.43 20.13 C 190.90 13.44 188.68 6.62 185.98 0.00 Z" />
<path fill="#c6ba9f" opacity="1.00" d=" M 274.05 0.00 L 289.25 0.00 C 288.79 3.42 288.33 6.85 287.88 10.27 C 283.10 9.56 278.30 9.01 273.49 8.51 C 273.68 5.67 273.86 2.84 274.05 0.00 Z" />
<path fill="#c6ba9f" opacity="1.00" d=" M 296.10 0.00 L 329.02 0.00 C 326.43 6.30 324.35 12.80 321.91 19.16 C 312.76 15.88 303.40 13.27 293.89 11.31 C 294.59 7.54 295.18 3.73 296.10 0.00 Z" />
<path fill="#c6ba9f" opacity="1.00" d=" M 386.11 0.00 L 435.81 0.00 C 418.19 18.91 400.96 38.20 383.33 57.12 C 376.24 50.37 368.49 44.35 360.40 38.83 C 368.94 25.87 377.36 12.82 386.11 0.00 Z" />
<path fill="#c6ba9f" opacity="1.00" d=" M 453.19 0.00 L 462.32 0.00 C 439.03 22.10 416.04 44.52 392.84 66.73 C 392.06 65.90 391.28 65.07 390.51 64.24 C 411.43 42.85 432.16 21.27 453.19 0.00 Z" />
<path fill="#c6ba9f" opacity="1.00" d=" M 0.00 11.55 C 36.10 37.01 72.54 61.99 108.68 87.41 C 103.57 94.86 99.06 102.70 95.10 110.81 C 63.42 93.39 31.59 76.22 0.00 58.64 L 0.00 11.55 Z" />
<path fill="#c6ba9f" opacity="1.00" d=" M 408.35 85.96 C 442.85 61.77 477.58 37.91 512.00 13.62 L 512.00 60.30 C 482.15 76.83 452.18 93.18 422.20 109.47 C 418.22 101.27 413.52 93.45 408.35 85.96 Z" />
<path fill="#f4722b" opacity="1.00" d=" M 243.74 15.20 C 253.90 14.87 264.10 14.88 274.27 15.19 C 277.61 16.56 281.34 15.50 284.73 16.71 C 287.05 16.93 289.40 17.09 291.68 17.64 C 292.56 17.86 293.45 18.09 294.35 18.30 C 296.43 18.79 298.54 19.18 300.63 19.66 C 301.96 19.99 303.29 20.32 304.63 20.67 C 305.95 20.98 307.28 21.29 308.60 21.61 C 309.60 22.01 310.60 22.40 311.59 22.81 C 312.05 22.91 312.95 23.11 313.40 23.20 C 314.40 23.58 315.40 23.96 316.40 24.32 C 317.40 24.66 318.41 24.99 319.42 25.32 C 320.43 25.62 321.44 25.91 322.46 26.20 C 323.50 26.77 324.54 27.34 325.58 27.92 C 326.05 27.95 326.98 28.02 327.44 28.06 C 328.48 28.68 329.52 29.31 330.56 29.93 C 331.02 29.98 331.94 30.07 332.40 30.12 C 342.41 35.38 352.44 40.69 361.61 47.35 C 365.76 50.17 369.49 53.53 373.54 56.48 C 379.60 61.74 385.02 67.67 390.78 73.24 C 402.48 86.59 411.94 101.74 419.87 117.60 C 419.93 118.05 420.06 118.95 420.12 119.40 C 421.02 121.11 421.91 122.84 422.80 124.56 C 423.07 125.57 423.36 126.58 423.65 127.60 C 424.02 128.60 424.41 129.60 424.80 130.60 C 424.90 131.05 425.11 131.94 425.22 132.39 C 425.57 133.40 425.93 134.41 426.28 135.43 C 426.78 136.81 427.27 138.20 427.79 139.59 C 427.91 140.04 428.14 140.93 428.26 141.38 C 428.75 143.12 429.20 144.87 429.69 146.61 C 430.01 147.96 430.34 149.31 430.72 150.65 C 430.91 151.54 431.11 152.44 431.31 153.34 C 431.71 154.99 432.04 156.66 432.37 158.33 C 432.81 160.80 433.13 163.30 433.81 165.73 C 434.09 169.06 433.57 172.54 434.81 175.73 C 435.13 185.57 435.13 195.43 434.80 205.27 C 433.69 208.13 434.03 211.25 433.79 214.26 C 432.95 217.00 432.96 219.89 432.36 222.68 C 432.13 223.56 431.91 224.45 431.70 225.35 C 431.20 227.44 430.80 229.56 430.31 231.65 C 430.03 233.30 429.75 234.96 429.44 236.60 C 429.02 237.60 428.59 238.59 428.17 239.59 C 428.08 240.04 427.89 240.94 427.80 241.39 C 427.42 242.40 427.05 243.41 426.69 244.43 C 426.22 245.81 425.77 247.19 425.30 248.58 C 424.95 249.59 424.58 250.59 424.22 251.60 C 424.11 252.05 423.87 252.94 423.76 253.39 C 423.42 254.40 423.10 255.42 422.79 256.45 C 422.21 257.50 421.64 258.56 421.06 259.61 C 421.05 260.11 421.01 261.10 420.99 261.60 C 420.50 262.05 419.51 262.95 419.01 263.40 C 418.99 263.89 418.94 264.89 418.92 265.39 C 412.77 276.81 406.45 288.19 398.54 298.51 C 396.72 300.39 395.05 302.42 393.50 304.53 C 387.58 311.23 381.11 317.43 374.72 323.66 C 367.59 328.68 361.39 335.14 353.38 338.79 C 348.86 330.77 342.81 323.80 336.70 316.98 C 356.96 304.44 374.10 286.92 386.37 266.50 C 398.76 245.61 406.04 221.71 407.33 197.45 C 393.69 197.41 380.05 197.47 366.41 197.42 C 366.23 203.30 367.00 209.29 366.00 215.11 C 364.68 220.25 356.27 220.24 354.98 215.08 C 354.02 209.26 354.76 203.29 354.59 197.42 C 345.91 197.45 337.22 197.45 328.54 197.42 C 326.94 213.46 319.66 228.88 308.02 240.08 C 304.03 244.22 299.16 247.33 294.59 250.76 C 293.36 247.08 292.23 243.36 291.19 239.62 C 305.62 230.25 315.32 214.45 317.58 197.43 C 313.08 197.43 308.57 197.42 304.07 197.50 C 302.10 210.24 294.39 221.59 283.77 228.75 C 281.54 227.19 279.35 225.58 277.17 223.96 C 287.22 218.48 294.22 208.52 296.70 197.43 C 285.93 197.44 275.17 197.47 264.41 197.41 C 264.45 204.58 264.42 211.76 264.44 218.93 C 260.49 218.37 256.50 218.29 252.54 218.69 C 252.59 211.59 252.51 204.50 252.59 197.41 C 242.16 197.46 231.73 197.44 221.30 197.42 C 223.72 208.01 230.11 217.95 239.82 223.19 C 237.75 224.58 235.71 226.01 233.67 227.45 C 223.61 220.59 216.88 209.39 214.90 197.43 C 209.94 197.46 204.98 197.45 200.02 197.40 C 201.81 212.71 209.85 227.29 222.15 236.65 C 223.04 237.38 223.97 238.09 224.74 238.97 C 224.04 242.38 222.65 245.60 221.51 248.89 C 209.43 240.31 199.33 228.56 194.36 214.46 C 192.37 208.96 191.12 203.21 190.46 197.41 C 180.78 197.46 171.10 197.46 161.42 197.41 C 161.25 202.93 161.94 208.53 161.05 214.01 C 159.81 219.23 151.31 219.29 150.00 214.09 C 149.04 208.60 149.76 202.96 149.61 197.40 C 135.63 197.51 121.65 197.37 107.67 197.47 C 109.37 229.09 121.19 260.17 141.39 284.60 C 151.82 297.20 164.18 308.27 178.12 316.86 C 171.86 322.90 166.47 329.78 161.89 337.15 C 156.50 332.83 150.84 328.86 145.46 324.51 C 138.47 318.21 131.79 311.54 125.49 304.54 C 121.10 298.51 115.86 293.09 112.22 286.54 C 107.39 279.10 103.23 271.25 99.13 263.40 C 99.06 262.95 98.94 262.05 98.88 261.60 C 97.97 259.88 97.09 258.16 96.20 256.43 C 95.91 255.42 95.62 254.41 95.32 253.41 C 94.99 252.41 94.66 251.41 94.32 250.41 C 93.95 249.40 93.58 248.40 93.20 247.40 C 93.11 246.94 92.92 246.03 92.83 245.57 C 92.27 244.19 91.73 242.80 91.18 241.42 C 91.07 240.97 90.86 240.07 90.75 239.62 C 90.25 237.88 89.80 236.13 89.32 234.39 C 88.99 233.04 88.65 231.69 88.28 230.36 C 88.08 229.45 87.89 228.56 87.69 227.66 C 87.30 226.00 86.96 224.34 86.59 222.68 C 86.09 220.39 85.94 218.05 85.71 215.73 C 84.50 212.34 85.56 208.61 84.19 205.27 C 83.87 195.10 83.87 184.90 84.20 174.73 C 85.30 171.86 84.99 168.74 85.20 165.73 C 85.87 163.30 86.19 160.80 86.62 158.32 C 86.96 156.66 87.30 154.99 87.71 153.34 C 87.88 152.43 88.05 151.52 88.23 150.62 C 88.76 148.87 89.25 147.12 89.79 145.38 C 89.92 144.45 90.05 143.52 90.18 142.60 C 90.71 141.21 91.21 139.82 91.73 138.44 C 92.07 137.42 92.42 136.40 92.78 135.39 C 92.89 134.94 93.09 134.05 93.20 133.60 C 93.59 132.60 93.97 131.60 94.35 130.60 C 94.64 129.58 94.92 128.56 95.19 127.54 C 95.76 126.50 96.34 125.46 96.92 124.42 C 96.95 123.95 97.02 123.03 97.06 122.56 C 97.68 121.52 98.31 120.48 98.93 119.44 C 98.98 118.98 99.07 118.07 99.12 117.61 C 103.16 109.93 107.18 102.23 111.92 94.95 C 115.94 87.89 121.39 81.80 126.44 75.49 C 129.21 71.94 132.78 69.10 135.51 65.51 C 139.00 62.70 142.07 59.42 145.45 56.48 C 151.49 52.11 156.90 46.85 163.45 43.22 C 170.90 38.39 178.75 34.24 186.61 30.12 C 187.07 30.07 187.99 29.98 188.46 29.93 C 189.49 29.31 190.52 28.68 191.55 28.06 C 192.02 28.02 192.95 27.95 193.42 27.91 C 194.46 27.34 195.50 26.78 196.54 26.22 C 197.56 25.89 198.59 25.56 199.61 25.22 C 200.06 25.12 200.97 24.93 201.42 24.83 C 202.80 24.27 204.19 23.73 205.58 23.17 C 206.03 23.08 206.95 22.91 207.40 22.82 C 208.40 22.41 209.40 22.01 210.40 21.61 C 211.72 21.28 213.04 20.98 214.37 20.67 C 215.70 20.32 217.04 19.99 218.37 19.65 C 220.46 19.18 222.57 18.79 224.65 18.31 C 225.54 18.09 226.43 17.87 227.33 17.65 C 229.60 17.08 231.94 16.93 234.27 16.71 C 237.35 15.70 240.70 16.37 243.74 15.20 Z" />
<path fill="#3e3e3e" opacity="1.00" d=" M 144.19 91.11 C 171.03 59.78 211.36 40.75 252.56 39.55 C 252.57 49.90 252.54 60.25 252.58 70.60 C 247.71 70.70 242.76 70.08 237.95 70.98 C 234.16 71.95 233.05 76.77 234.91 79.87 C 236.10 81.42 238.03 82.33 239.99 82.37 C 244.18 82.61 248.39 82.39 252.59 82.40 C 252.53 95.42 252.54 108.43 252.60 121.45 C 236.80 123.06 221.55 130.09 210.43 141.48 C 198.62 153.06 191.46 169.08 190.31 185.55 C 180.67 185.59 171.03 185.50 161.40 185.60 C 161.28 180.70 161.95 175.71 160.99 170.88 C 159.69 165.75 151.29 165.77 149.99 170.90 C 149.07 175.72 149.74 180.70 149.60 185.58 C 135.57 185.52 121.55 185.57 107.52 185.55 C 108.41 151.12 121.41 117.02 144.19 91.11 Z" />
<path fill="#3e3e3e" opacity="1.00" d=" M 264.39 70.60 C 264.47 60.28 264.41 49.95 264.43 39.63 C 297.80 41.16 330.66 54.05 355.80 76.11 C 387.45 103.17 406.54 143.97 407.49 185.56 C 393.79 185.57 380.10 185.50 366.41 185.60 C 366.26 180.69 366.98 175.67 365.97 170.84 C 364.97 167.12 360.12 166.04 357.11 167.94 C 355.56 169.11 354.67 171.02 354.63 172.95 C 354.38 177.16 354.60 181.37 354.59 185.58 C 345.96 185.53 337.33 185.57 328.70 185.56 C 327.54 169.08 320.39 153.08 308.58 141.49 C 296.99 129.63 280.94 122.46 264.44 121.30 C 264.40 108.33 264.47 95.37 264.40 82.40 C 269.27 82.28 274.23 82.92 279.06 82.02 C 282.83 81.05 283.99 76.19 282.06 73.12 C 280.89 71.56 278.95 70.68 277.02 70.63 C 272.82 70.38 268.60 70.60 264.39 70.60 Z" />
<path fill="#c6ba9f" opacity="1.00" d=" M 0.00 116.29 C 27.75 125.05 55.64 133.41 83.44 142.02 C 83.03 143.57 82.61 145.11 82.21 146.66 C 54.81 139.92 27.35 133.45 0.00 126.52 L 0.00 116.29 Z" />
<path fill="#c6ba9f" opacity="1.00" d=" M 434.37 141.17 C 460.23 133.12 486.20 125.41 512.00 117.18 L 512.00 158.08 C 487.90 161.27 463.74 164.06 439.62 167.09 C 438.40 158.35 436.68 149.68 434.37 141.17 Z" />
<path fill="#3e3e3e" opacity="1.00" d=" M 221.77 143.80 C 230.56 136.70 241.45 132.52 252.61 131.12 C 252.54 136.04 252.55 140.97 252.57 145.89 C 240.36 147.94 228.90 154.90 222.11 165.34 C 217.93 171.35 215.63 178.44 214.60 185.64 C 209.59 185.51 204.58 185.56 199.56 185.54 C 201.05 169.42 208.90 153.78 221.77 143.80 Z" />
<path fill="#3e3e3e" opacity="1.00" d=" M 264.39 131.09 C 278.89 132.71 292.89 139.36 302.61 150.36 C 311.50 159.94 316.61 172.65 317.84 185.59 C 313.43 185.55 309.02 185.54 304.61 185.57 C 303.03 177.04 300.04 168.64 294.39 161.92 C 287.04 152.78 275.93 147.04 264.35 145.60 C 264.47 140.76 264.45 135.92 264.39 131.09 Z" />
<path fill="#c6ba9f" opacity="1.00" d=" M 0.00 133.13 C 27.02 139.26 54.14 144.97 81.19 150.97 C 78.41 163.85 77.03 177.02 76.95 190.20 C 51.30 190.20 25.65 190.20 0.00 190.20 L 0.00 133.13 Z" />
<path fill="#3e3e3e" opacity="1.00" d=" M 234.65 160.80 C 239.74 156.43 246.09 153.89 252.59 152.44 C 252.54 163.49 252.55 174.54 252.59 185.58 C 242.01 185.53 231.42 185.55 220.84 185.57 C 222.57 176.10 226.98 166.86 234.65 160.80 Z" />
<path fill="#3e3e3e" opacity="1.00" d=" M 264.41 152.26 C 273.77 154.00 282.75 158.62 288.68 166.20 C 293.29 171.69 295.83 178.59 296.99 185.60 C 286.12 185.51 275.26 185.55 264.39 185.59 C 264.46 174.48 264.43 163.37 264.41 152.26 Z" />
<path fill="#c6ba9f" opacity="1.00" d=" M 440.85 182.11 C 464.57 181.33 488.29 180.61 512.00 179.74 L 512.00 190.20 C 488.34 190.20 464.69 190.20 441.03 190.20 C 440.97 187.50 440.91 184.80 440.85 182.11 Z" />
<path fill="#c6ba9f" opacity="1.00" d=" M 0.00 231.37 C 26.39 227.06 52.84 223.05 79.26 218.88 C 80.53 226.35 82.20 233.75 84.27 241.04 C 56.20 248.61 28.03 255.82 0.00 263.54 L 0.00 231.37 Z" />
<path fill="#c6ba9f" opacity="1.00" d=" M 438.68 219.33 C 463.11 223.24 487.60 226.85 512.00 230.93 L 512.00 282.74 C 484.75 272.46 457.35 262.55 430.04 252.43 C 433.82 241.65 436.77 230.59 438.68 219.33 Z" />
<path fill="#f5e5c1" opacity="1.00" d=" M 229.43 254.95 C 229.11 241.85 239.09 229.54 251.93 227.03 C 265.97 223.62 281.41 232.99 285.14 246.89 C 289.03 259.33 282.92 273.43 271.76 279.85 C 271.72 276.76 271.72 273.67 271.70 270.58 C 274.47 267.53 277.08 264.12 277.96 260.01 C 280.14 251.95 276.86 242.81 270.02 238.01 C 262.34 232.25 250.62 232.94 243.71 239.62 C 237.87 244.87 235.67 253.55 238.00 261.01 C 239.14 265.06 241.89 268.36 244.84 271.25 C 244.84 274.26 244.84 277.29 244.78 280.31 C 235.71 275.25 229.27 265.49 229.43 254.95 Z" />
<path fill="#c6ba9f" opacity="1.00" d=" M 0.00 269.78 C 28.43 261.35 56.95 253.20 85.44 244.94 C 86.18 247.09 86.93 249.24 87.68 251.40 C 58.48 262.29 29.15 272.84 0.00 283.86 L 0.00 269.78 Z" />
<path fill="#f5e5c1" opacity="1.00" d=" M 245.92 247.60 C 254.02 247.54 262.13 247.59 270.24 247.57 C 270.24 248.51 270.24 250.39 270.24 251.34 C 262.17 251.32 254.10 251.34 246.04 251.32 C 246.01 250.39 245.95 248.53 245.92 247.60 Z" />
<path fill="#f5e5c1" opacity="1.00" d=" M 246.07 253.26 C 254.12 253.24 262.18 253.26 270.23 253.24 C 270.23 257.77 270.23 262.29 270.23 266.82 C 262.18 266.79 254.13 266.82 246.08 266.81 C 246.10 262.29 246.10 257.77 246.07 253.26 Z" />
<path fill="#f5e5c1" opacity="1.00" d=" M 249.82 270.24 C 255.36 270.32 260.91 270.27 266.46 270.29 C 266.42 276.32 266.43 282.36 266.45 288.39 C 260.90 288.01 255.33 288.00 249.77 288.33 C 249.80 282.30 249.74 276.27 249.82 270.24 Z" />
<path fill="#c6ba9f" opacity="1.00" d=" M 0.00 339.35 C 33.56 319.51 67.30 299.96 100.98 280.33 C 103.65 284.95 106.51 289.45 109.51 293.86 C 73.05 318.86 36.38 343.57 0.00 368.67 L 0.00 339.35 Z" />
<path fill="#c6ba9f" opacity="1.00" d=" M 401.70 303.33 C 406.74 296.22 411.95 289.22 416.26 281.62 C 448.19 300.26 480.20 318.76 512.00 337.60 L 512.00 394.42 C 475.35 363.92 438.49 333.66 401.70 303.33 Z" />
<path fill="#f5e5c1" opacity="1.00" d=" M 246.57 292.79 C 270.48 290.36 295.18 296.37 315.13 309.81 C 337.31 324.51 353.36 348.09 358.93 374.11 C 360.55 382.29 361.83 390.62 361.51 398.99 C 360.63 419.16 354.48 439.25 342.81 455.83 C 325.00 482.02 294.56 498.94 262.95 500.47 C 236.46 502.03 209.50 493.03 189.40 475.68 C 169.45 458.75 156.36 434.00 153.62 407.98 C 153.23 403.65 152.44 399.33 152.64 394.97 C 153.43 383.50 155.09 371.97 159.10 361.14 C 167.69 336.95 185.61 316.22 208.37 304.33 C 220.20 298.06 233.26 294.16 246.57 292.79 Z" />
<path fill="#c6ba9f" opacity="1.00" d=" M 0.00 382.90 C 37.68 354.86 75.58 327.11 113.36 299.20 C 117.91 305.14 122.69 310.91 127.96 316.22 C 85.40 355.89 42.51 395.21 0.00 434.93 L 0.00 382.90 Z" />
<path fill="#3e3e3e" opacity="1.00" d=" M 243.46 310.76 C 262.01 307.80 281.51 310.98 298.07 319.89 C 314.61 328.67 328.16 342.98 335.96 360.01 C 344.11 377.66 346.02 398.07 341.46 416.95 C 337.87 432.05 330.09 446.14 319.17 457.17 C 305.43 471.31 286.70 480.51 267.08 482.63 C 249.61 484.69 231.51 481.26 216.02 472.89 C 200.19 464.40 187.08 450.89 179.24 434.71 C 170.81 417.62 168.35 397.71 172.16 379.06 C 175.48 362.42 183.84 346.81 195.94 334.91 C 208.70 322.12 225.60 313.54 243.46 310.76 Z" />
<path fill="#f5e5c1" opacity="1.00" d=" M 254.07 315.17 C 256.13 315.14 258.20 315.13 260.28 315.12 C 260.28 319.35 260.28 323.58 260.28 327.81 C 258.21 327.81 256.14 327.82 254.07 327.84 C 254.09 323.61 254.09 319.39 254.07 315.17 Z" />
<path fill="#f4722b" opacity="1.00" d=" M 268.04 317.36 C 270.20 317.71 272.37 318.08 274.54 318.46 C 273.02 330.96 271.75 343.49 270.30 355.99 C 270.13 358.41 268.59 360.38 267.30 362.32 C 262.07 369.82 257.16 377.55 251.88 385.02 C 257.06 362.42 262.77 339.94 268.04 317.36 Z" />
<path fill="#c6ba9f" opacity="1.00" d=" M 379.22 326.73 C 382.53 323.61 385.82 320.47 389.05 317.27 C 430.07 349.87 471.14 382.41 512.00 415.20 L 512.00 500.87 C 467.87 442.73 423.45 384.80 379.22 326.73 Z" />
<path fill="#c6ba9f" opacity="1.00" d=" M 0.00 447.82 C 43.59 404.99 87.49 362.46 131.16 319.70 C 133.14 321.46 135.10 323.24 137.06 325.03 C 91.42 384.99 45.56 444.78 0.00 504.80 L 0.00 447.82 Z" />
<path fill="#f5e5c1" opacity="1.00" d=" M 249.78 393.54 C 264.83 370.90 279.83 348.22 294.88 325.59 C 296.72 326.68 298.57 327.77 300.42 328.86 C 288.25 353.16 276.23 377.54 264.11 401.86 C 259.35 399.06 254.55 396.33 249.78 393.54 Z" />
<path fill="#f5e5c1" opacity="1.00" d=" M 197.35 341.09 C 198.84 339.62 200.32 338.15 201.80 336.68 C 204.92 339.87 208.09 343.00 211.29 346.12 C 209.81 347.62 208.35 349.12 206.90 350.63 C 203.73 347.44 200.55 344.25 197.35 341.09 Z" />
<path fill="#f5e5c1" opacity="1.00" d=" M 312.68 336.72 C 314.16 338.19 315.64 339.66 317.13 341.12 C 314.27 343.92 311.42 346.75 308.63 349.62 C 307.13 348.14 305.62 346.67 304.11 345.21 C 307.01 342.44 309.86 339.59 312.68 336.72 Z" />
<path fill="#f5e5c1" opacity="1.00" d=" M 236.82 380.87 C 240.17 376.18 245.31 373.18 250.68 371.34 C 250.25 373.92 249.79 376.51 249.32 379.08 C 245.09 381.50 241.34 385.07 239.82 389.83 C 236.68 398.17 240.84 408.31 248.82 412.20 C 256.26 416.20 266.23 414.04 271.42 407.41 C 275.67 402.30 276.50 395.06 274.25 388.90 C 275.57 386.54 276.93 384.20 278.31 381.87 C 282.82 388.87 283.94 398.02 280.65 405.75 C 277.13 414.53 268.35 420.89 258.89 421.44 C 249.17 422.22 239.32 416.79 234.80 408.15 C 230.08 399.68 230.93 388.55 236.82 380.87 Z" />
<path fill="#f5e5c1" opacity="1.00" d=" M 176.35 393.35 C 180.64 393.39 184.93 393.39 189.22 393.31 C 189.22 395.41 189.23 397.50 189.24 399.61 C 184.95 399.60 180.65 399.60 176.36 399.61 C 176.36 397.52 176.36 395.43 176.35 393.35 Z" />
<path fill="#f5e5c1" opacity="1.00" d=" M 327.16 393.37 C 331.21 393.37 335.26 393.37 339.30 393.38 C 339.29 395.45 339.29 397.53 339.29 399.61 C 335.25 399.60 331.21 399.60 327.17 399.59 C 327.18 397.51 327.17 395.44 327.16 393.37 Z" />
<path fill="#c6ba9f" opacity="1.00" d=" M 369.43 392.96 C 371.95 399.17 374.96 405.16 377.74 411.26 C 393.42 444.82 408.82 478.52 424.68 512.00 L 377.88 512.00 C 370.83 492.56 364.30 472.92 357.29 453.46 C 356.78 451.70 355.77 449.76 356.81 448.00 C 365.33 431.04 370.12 411.99 369.43 392.96 Z" />
<path fill="#c6ba9f" opacity="1.00" d=" M 90.35 512.00 C 108.57 473.12 126.72 434.19 144.62 395.15 C 144.81 411.80 148.45 428.47 155.38 443.62 C 156.67 446.73 159.37 449.98 157.66 453.48 C 150.74 472.96 144.15 492.56 137.11 512.00 L 90.35 512.00 Z" />
<path fill="#f5e5c1" opacity="1.00" d=" M 206.56 442.76 C 208.07 444.20 209.57 445.66 211.09 447.11 C 208.06 450.20 204.95 453.21 201.92 456.30 C 200.44 454.83 198.96 453.36 197.47 451.91 C 200.54 448.90 203.58 445.86 206.56 442.76 Z" />
<path fill="#f5e5c1" opacity="1.00" d=" M 304.34 448.10 C 305.85 446.64 307.36 445.18 308.86 443.72 C 311.55 446.47 314.28 449.20 317.02 451.90 C 315.53 453.35 314.04 454.81 312.55 456.28 C 309.84 453.52 307.10 450.80 304.34 448.10 Z" />
<path fill="#f5e5c1" opacity="1.00" d=" M 254.06 465.69 C 256.13 465.72 258.20 465.75 260.28 465.78 C 260.28 469.88 260.29 473.98 260.27 478.08 C 258.22 478.08 256.17 478.08 254.12 478.08 C 254.07 473.95 254.09 469.82 254.06 465.69 Z" />
</svg>
