<?xml version="1.0" encoding="UTF-8" standalone="no"?>
<svg
   xmlns:dc="http://purl.org/dc/elements/1.1/"
   xmlns:cc="http://creativecommons.org/ns#"
   xmlns:rdf="http://www.w3.org/1999/02/22-rdf-syntax-ns#"
   xmlns:svg="http://www.w3.org/2000/svg"
   xmlns="http://www.w3.org/2000/svg"
   xmlns:sodipodi="http://sodipodi.sourceforge.net/DTD/sodipodi-0.dtd"
   xmlns:inkscape="http://www.inkscape.org/namespaces/inkscape"
   width="1280"
   height="1280"
   viewBox="0 0 1024 1024"
   version="1.1"
   id="svg2"
   inkscape:version="0.48.1 "
   sodipodi:docname="kill_grind.svg">
  <metadata
     id="metadata94">
    <rdf:RDF>
      <cc:Work
         rdf:about="">
        <dc:format>image/svg+xml</dc:format>
        <dc:type
           rdf:resource="http://purl.org/dc/dcmitype/StillImage" />
      </cc:Work>
    </rdf:RDF>
  </metadata>
  <defs
     id="defs92" />
  <sodipodi:namedview
     pagecolor="#ffffff"
     bordercolor="#666666"
     borderopacity="1"
     objecttolerance="10"
     gridtolerance="10"
     guidetolerance="10"
     inkscape:pageopacity="0"
     inkscape:pageshadow="2"
     inkscape:window-width="1920"
     inkscape:window-height="1018"
     id="namedview90"
     showgrid="false"
     fit-margin-top="0"
     fit-margin-left="0"
     fit-margin-right="0"
     fit-margin-bottom="0"
     inkscape:zoom="0.6609375"
     inkscape:cx="640"
     inkscape:cy="640"
     inkscape:window-x="-8"
     inkscape:window-y="-8"
     inkscape:window-maximized="1"
     inkscape:current-layer="svg2" />
  <path
     d="m 0,0 1024,0 0,1024 L 0,1024 0,0 z"
     id="path4"
     style="fill:#3e3e3e"
     inkscape:connector-curvature="0" />
  <path
     style="fill:#f4722b"
     d="m 475,27.5 c -5.06661,0.001 -10.1,0.8375 -14.9,2.5 -15.98,5.52 -33.2,12.75 -41.9,28.25 -10.82,16.9 -7.78,38.98 2,55.6 7.26,11.42 19.09,18.6 31.05,24.2 0.7,7.24 -0.68,15.79 5.7,20.95 -30.98,5.84 -54.03,37.72 -49.35,69 1.9,20.26 16.59,35.47 28.55,50.65 -3.68,-2.3 -6.99,-6.57 -11.85,-5.35 -9.6,-0.2 -19.51,3.57 -25.15,11.65 -8.54,11 -6.53,28.6 4.85,36.9 7.4,4.98 14.77,10.86 23.85,12.4 18.36,3.96 36.61,8.41 54.95,12.55 9.24,2.3 18.22,-1.46 26.8,-4.5 14.06,9.78 30.31,15.6 45.25,23.8 l 2.8,-3.9 c 1.76,1.7 3.54,3.35 5.3,5.05 10.86,-0.12 21.69,-0.24 32.55,-0.2 -0.24,-6.78 -0.45,-13.52 -0.55,-20.3 -1.78,-0.86 -3.59,-1.71 -5.35,-2.55 -0.84,0.8 -2.48,2.4 -3.3,3.2 -3.68,-2.28 -7.32,-4.54 -11,-6.8 -0.26,5.52 -0.38,11.18 -2.1,16.5 -0.6,-13.7 -1.32,-27.8 2.1,-41.2 -2.64,-2.6 -6.22,-2.37 -9.6,-1.95 5.7,-1.78 11.24,-4.21 16,-7.85 9.46,-7.02 20.51,-13.4 24.95,-25 4.38,3.86 9.63,6.47 15.05,8.55 -1.64,7.4 -4.55,14.43 -8.35,20.95 14.58,-5.84 17.42,-24.08 15.5,-37.9 -4.88,-13.9 -18.61,-23.71 -19.75,-39.05 -7.96,3.42 -15.42,7.84 -23.2,11.6 -0.84,-0.48 -2.56,-1.42 -3.4,-1.9 -4.5,-0.66 -8.85,-2.1 -12.95,-4 7.26,1.08 14.96,3.56 22.1,0.7 14,-6.62 25.23,-17.56 36.15,-28.3 11.02,-12.64 19.93,-27.15 27.55,-42.05 3.6,-5.14 -0.91,-13.42 -7.25,-12.8 -10.7,-0.14 -20.6,5.71 -28.1,12.95 -6.34,6.64 -13.4,13.4 -15.8,22.6 -4.1,11.5 -5.48,23.69 -5,35.85 -2.9,-2.1 -5.44,-4.96 -9,-5.9 -14.16,-3.18 -25.94,-12.14 -38.5,-18.9 4.08,8.54 8.82,17.1 9.8,26.7 -4.04,-11.7 -8.38,-23.82 -16.5,-33.4 -5.74,-7.16 -14.43,-10.76 -21.55,-16.3 -8.44,-6.34 -18.25,-10.88 -26.15,-17.9 -5.18,-8.38 -8.84,-17.62 -15.3,-25.2 13.98,-7.38 29.66,-12.94 40.2,-25.3 11.64,-11.32 14.81,-28.72 13.15,-44.3 -1.16,-11.38 -9.13,-20.46 -17.45,-27.6 -9.42,-8.04 -22.14,-9.45 -33.8,-11.75 -2.9925,-0.645 -6.06003,-0.95082 -9.1,-0.95 z m 6.15,7.15 c 6.70715,-0.2356 13.29125,0.97875 19.25,4.75 -16.18,-8.16 -34.84,-2.7 -50.3,4.5 -23.16,9.62 -35.14,41.92 -19.5,62.9 9.48,10.04 24.16,13.01 37.5,11.95 15.88,0.44 31.88,-6.69 42,-18.95 5.88,-8.92 12.78,-18.58 12.1,-29.8 -1.82,-11.3 -8.27,-21.27 -15.95,-29.55 8.08,5.72 11.36,15.19 16.7,23.05 0.1,6.54 1.43,13.64 -1.75,19.7 -5.74,10.88 -12.29,22.26 -23.65,28.1 -12.22,8.2 -27.45,8.8 -41.65,7.9 -7.9,-0.44 -14.84,-4.66 -22.2,-7.1 -8.52,-8.96 -13,-21.77 -10.7,-34.05 3.12,-17.18 16.41,-31.91 32.85,-37.55 7.88626,-2.8575 16.67653,-5.54708 25.3,-5.85 z m 168.3,129.75 c -0.12,5.76 -1.53,11.46 -4.75,16.3 -6.26,11.44 -19.3,16.96 -25.8,28.2 -3.06,5.24 -5.94,11.06 -11.9,13.5 -0.02,-16.28 4.61,-33.33 16.05,-45.35 6.92,-7.1 16.18,-12.77 26.4,-12.65 z m -85.75,98.1 c 11.06,3.22 21.68,7.7 31.7,13.4 -3.58,6.62 -6.56,13.98 -12.6,18.8 -6.76,5.54 -14.26,10.05 -21.8,14.45 -0.48,11.88 -1.96,23.72 -3.7,35.5 -0.04,-6.68 0.36,-13.29 0.6,-19.95 -11.92,-1.22 -23.88,-2.28 -35.7,-4.3 -0.72,7.34 -1.2,14.73 -2.9,21.95 -0.02,-6.58 0.11,-13.12 0.15,-19.7 -1.14,0.06 -3.41,0.16 -4.55,0.2 0.02,-1.66 0.06,-3.34 0.1,-5 14.54,2.8 29.26,4.83 44,6.35 0.2,-5.32 0.45,-10.63 0.55,-15.95 13.82,-7.16 28,-15.99 34.3,-30.95 -8.74,-7.4 -20.35,-9.32 -30.15,-14.8 z m -5,2.1 c 2.28,1.58 0.52,6.49 1,9.25 -8.08,7.9 -16.13,16.98 -27.65,19.6 -12.82,5.04 -27.19,5.32 -40.25,1 -1.16,-1.98 -2.27,-3.94 -3.45,-5.9 5.64,7.24 15.23,7.62 23.65,7.7 8.62,-0.32 17.23,-1.92 25.35,-4.9 8.52,-3.48 14.85,-10.45 20.95,-17.05 0.06,-3.22 -0.46,-6.56 0.4,-9.7 z m -111.2,9.75 c 6.18046,-0.35894 12.9125,2.86 18.55,4.95 -6.36,-1.08 -13.11,-5.54 -19.45,-2.9 -0.24,0.82 -0.71,2.45 -0.95,3.25 4.46,2.92 8.71,6.15 12.65,9.75 -4.84,-2.98 -9.42,-6.38 -13.7,-10.1 -1.68,-0.6 -3.32,-1.2 -5,-1.8 2.43125,-2.08125 5.0907,-2.98685 7.9,-3.15 z m 20.7,3.55 c 9.7,2.22 14.59,11.56 17.85,20.1 2.52,7.22 7.61,13.02 12.65,18.6 l -3.3,1.25 c -0.22,-1.32 -0.6,-3.98 -0.8,-5.3 -6.98,-5.96 -9.71,-14.83 -13.85,-22.65 -2.7,-5.36 -7.89,-8.56 -12.55,-12 z m -44.85,12.9 c 1.86,2.08 3.81,4.1 5.45,6.4 -0.38,3.82 -3.58,6.56 -5.5,9.7 -2.56,0.12 -5.09,0.26 -7.65,0.4 -3.88,-4.54 -2.97,-10.44 -2.35,-15.9 3.36,-0.22 6.69,-0.4 10.05,-0.6 z"
     id="path6"
     inkscape:connector-curvature="0" />
  <path
     d="m 653.58,183.64 c 13.48,-8.14 30.62,-4.38 43.44,3.3 5.92,5.9 9.44,13.86 12.44,21.56 -5.84,5.86 -14.62,7.54 -21.74,11.52 -21.24,10.94 -43.96,19.84 -61.9,36.08 -3.4,-4.06 -7.18,-7.86 -9.84,-12.48 -1.66,-5.04 -1.36,-10.58 -0.54,-15.76 4.24,-7.7 11.86,-12.74 18.24,-18.56 8.48,-7 13.02,-17.32 19.9,-25.66 z"
     id="path12"
     inkscape:connector-curvature="0"
     style="fill:#f4722b" />
  <path
     style="fill:#f4722b"
     d="m 704.5,190.45 c 3.52,6.42 5.48,15.53 13.8,17.25 -29.64,16.86 -62.56,27.91 -90.3,48.05 1.34,3.68 2.77,7.37 4.15,11.05 18.72,-14.5 39.67,-26.09 61.85,-34.35 5.58,-2.44 11.46,0.46 17.1,1.2 1.54,1.04 3.07,2.06 4.65,3.1 7.56,-1.1 12.68,5.21 17.6,9.85 7.6,8.34 16.5,16.76 18.2,28.5 -3.72,-0.12 -7.45,-0.27 -11.15,-0.45 3.1,12.6 4.75,25.55 4.45,38.55 -7.86,-0.72 -15.66,-1.49 -23.5,-2.15 3.74,-5.18 8.26,-9.91 10.2,-16.15 -6.28,3.58 -13.05,8.39 -15.15,15.65 -1.52,13.28 4.53,26.09 2.85,39.45 -11.94,-4.48 -16.29,-18.11 -26.65,-24.75 -8.08,-5.68 -17.95,-0.11 -25.45,3.95 -11.24,6.74 -9.04,21.54 -13,32.2 -0.28,9.24 3.81,18.18 9.05,25.6 7.7,10.8 23.4,15.64 35,8.1 -1.86,-4.26 -3.78,-8.52 -5.6,-12.8 20.34,-6.74 34.52,-23.84 49.9,-37.8 4.56,-3.56 6.52,-9 7.5,-14.5 2.76,-3.18 5.94,-6.35 6.7,-10.65 2.64,-12.48 4.14,-25.24 3.8,-38 8.1,-4.24 16.02,-9.9 20.6,-18 1.86,-8.72 -3.15,-17.35 -8.15,-24.15 -6.52,-6.98 -11.66,-15.05 -17.9,-22.25 -5.4,-6.3 -14.6,-6.14 -20.8,-11.2 -8.86,-6.8 -17.75,-15.5 -29.75,-15.3 z m 42.05,92.6 c 2.52,0.06 5.06,0.14 7.6,0.2 0.78,1.18 2.32,3.57 3.1,4.75 -0.66,0.98 -1.99,2.92 -2.65,3.9 -1.72,-2.26 -3.55,-4.42 -5.55,-6.4 -0.68,14.14 2.24,28.76 -1.8,42.6 -0.4,-15 0.38,-30.05 -0.7,-45.05 z m -39.35,61.9 c 0.04,2.18 0.06,4.35 0,6.55 -3.76,0.82 -6.33,-2.31 -8.95,-4.35 -10.74,3.22 -21.82,4.98 -32.6,8 -1.84,2.28 -3.65,4.58 -5.55,6.8 -0.58,-9 9.3,-9.78 15.9,-11.2 10.44,-1.78 20.52,-5.56 31.2,-5.8 z m -32.2,18.6 c 1.63406,0.0966 2.05501,1.35 1.2,3.75 -3.3,0.88 -4.41,-0.27 -3.25,-3.45 0.82,-0.22501 1.50531,-0.33219 2.05,-0.3 z"
     id="path14"
     inkscape:connector-curvature="0" />
  <path
     d="m 683.06,240.72 c 9.22,-4.9 19.9,-3.92 29.96,-3.68 0.08,5.36 0.12,10.74 0.14,16.1 4.58,3.26 8.98,6.74 13.2,10.46 -2.02,-0.7 -4,-1.4 -6,-2.12 -8.86,2.52 -17.46,-2.38 -26.38,-2.18 -7.98,-0.88 -15.48,2.3 -22.46,5.7 -0.9,2.5 -1.82,5 -2.72,7.5 -5.68,0.06 -11.1,1.68 -16.62,2.6 -6.28,-1.54 -12.64,-2.02 -19.02,-0.66 -1.3,-3.94 3.26,-5.74 5.38,-8.14 13.54,-10.54 29.1,-18.2 44.52,-25.58 z"
     id="path16"
     inkscape:connector-curvature="0"
     style="fill:#f4722b" />
  <path
     d="m 104.15,266.6 c -4.10591,0.0237 -8.2,0.47501 -12.25,1.5 -19.56,4.94 -34.8,23.64 -35.2,43.9 -0.96,15.5 6.64,31.04 19.2,40.1 11.36,8.68 26.26,9.38 39.8,11.9 102.46,10.54 204.89,21.2 307.35,31.7 l -0.35,-3.1 c 14.76,3.9 30.09,5.11 45.25,6.35 11.74,-0.66 24.34,1.64 35.2,-4 2.52,-9.28 3.16,-19.22 0.9,-28.6 -1.48,-5.38 -5.87,-9.07 -9.55,-12.95 -7.64,-0.9 -15.1,-2.93 -22.6,-4.65 C 447.52,342.71 422.73,338.32 398.65,331.1 309.43,310.98 220.2,290.95 131,270.75 c -8.7175,-2.21374 -17.817,-4.20205 -26.85,-4.15 z m -8.25,8.75 c 16.67484,-0.44472 33.1275,11.91 36.3,28.65 4.94,19.26 -8.5,40.71 -28.1,44.35 -19.1,4.54 -40.18,-9.07 -43.3,-28.55 -3.88,-18.26 8.02,-37.81 25.9,-42.85 3.01875,-1.0125 6.112067,-1.51765 9.2,-1.6 z"
     id="path22"
     style="fill:#f4722b"
     inkscape:connector-curvature="0" />
  <path
     d="m 714.52,266.42 c 4.78,0.26 9.54,0.92 14.06,2.54 0.7,7.08 3.02,14.08 2.28,21.22 -3.86,7.24 -12.3,11.02 -15.38,18.78 -3.02,13.38 3.32,26.36 2.92,39.74 -10.28,-10 -18.94,-22.84 -33.12,-27.66 -0.38,-2.04 -0.72,-4.04 -1.06,-6.06 -1.84,1.18 -3.66,2.34 -5.48,3.52 -7.24,1.48 -14.32,3.64 -21.36,5.82 1.8,2.22 3.62,4.44 5.48,6.64 -5.74,7.1 -5.14,16.78 -9.24,24.62 -0.62,0.18 -1.84,0.56 -2.46,0.74 -4.18,-11.64 -6.68,-23.94 -12.98,-34.76 -1.02,-0.34 -3.08,-1.02 -4.12,-1.36 5.54,11.02 10.42,22.44 13.42,34.42 -6.32,-3.48 -9.48,-9.92 -12.22,-16.22 -13.66,1.22 -27.18,-1.9 -40.28,-5.48 -0.14,1.82 -0.44,5.48 -0.6,7.3 -0.8,-3.9 -2.12,-8.18 -0.02,-11.92 1.66,-4.2 6.38,-5.68 10,-7.74 7.76,-3.54 15.52,-7.34 21.8,-13.24 1.82,3.42 3.66,6.84 5.5,10.26 6.12,-1.48 13.16,-2.96 16.92,-8.5 4.4,-9.2 5.34,-19.6 4.42,-29.66 4.42,-1.24 8.88,-2.58 13.5,-2.9 2.32,11.62 12,20.88 23.86,22.12 7.7,2.14 14.68,-3.2 19.34,-8.72 5.2,-6.66 5.02,-15.5 4.82,-23.5 z"
     id="path24"
     inkscape:connector-curvature="0"
     style="fill:#f4722b" />
  <path
     d="m 675.62,287.88 c 4.98,-4.42 10.38,-8.62 16.56,-11.22 1.88,0.5 3.76,1.1 5.6,1.8 3.76,-1.36 7.5,-2.74 11.28,-4.08 -0.72,4.88 0.52,11.22 -4,14.6 -4.42,3.22 -9.72,5.68 -15.26,5.74 -5.24,-0.92 -9.8,-3.98 -14.18,-6.84 z"
     id="path30"
     inkscape:connector-curvature="0"
     style="fill:#f4722b" />
  <path
     d="m 574.32,312.68 c 11.74,-8.46 24.78,-15.84 33.18,-28.02 3.92,1.8 7.88,3.58 11.86,5.28 -0.2,1.4 -0.64,4.2 -0.84,5.6 -6.4,6.52 -10.7,15.18 -18.68,20.08 -4.3,3.02 -9.62,4.96 -12.76,9.36 -0.54,5.32 -0.02,10.66 0.14,15.98 -2.04,0 -6.12,0.02 -8.16,0.04 -7.38,-6.24 -1.38,-16.44 -2.28,-24.6 -0.62,-0.92 -1.84,-2.78 -2.46,-3.72 z"
     id="path36"
     inkscape:connector-curvature="0"
     style="fill:#f4722b" />
  <path
     d="m 627.5,304.1 c 9.66,-3.58 14.04,-14.18 23.6,-18.2 -1.7,9.88 -2.52,22.32 -13.12,26.92 -5.88,1.98 -8.14,-4.82 -10.48,-8.72 z"
     id="path38"
     inkscape:connector-curvature="0"
     style="fill:#f4722b" />
  <path
     d="m 414.88,292.38 c 4.82,0 9.3,1.34 12.72,4.82 -0.82,1.5 -2.46,4.46 -3.28,5.94 -3.06,-0.04 -6.12,-0.1 -9.18,-0.16 -0.1,-3.54 -0.18,-7.06 -0.26,-10.6 z"
     id="path42"
     inkscape:connector-curvature="0"
     style="fill:#f4722b" />
  <path
     style="fill:#f4722b"
     d="m 766.05,323.05 c -4.66,0.36 -8.62,3.25 -12.8,5.05 0.08,3.34 0.13,6.66 0.25,10 -5.16,6.64 -11.27,12.36 -17.55,17.9 -11.52,10.8 -23.59,21.35 -37.95,28.25 4.76,12.9 14.52,23.4 18,36.8 -6.68,-4.38 -10.14,-11.57 -12.9,-18.75 -4.06,0.56 -8.08,1.15 -12.1,1.85 3.18,1.94 6.37,3.79 9.55,5.75 -8.88,-1.2 -18.35,-7.7 -26.95,-2.4 -5.74,3.32 -12.36,6.39 -16,12.15 -2.14,10.98 -3.57,23.09 0.95,33.65 10.02,7.74 21.37,14.15 33.55,17.85 -11.44,1.16 -19.96,-7.66 -29.9,-11.6 -0.3,15.24 -7.86,28.77 -15.5,41.45 -3.06,4.34 -6.15,9.23 -11.35,11.15 -0.06,-8.94 7.73,-15.34 12.45,-22.3 5.42,-7.62 9.46,-16.6 10.7,-25.9 -1.52,-5.42 -4.34,-10.42 -5.3,-16 -1.52,-10.4 -0.5,-21.04 2.5,-31.1 -7.76,0.52 -15.85,1.56 -23.35,-1.2 2.88,-0.74 5.75,-1.46 8.65,-2.2 -6.18,-1.02 -12.33,-1.85 -18.55,-2.45 -9.28,-13.58 -19.27,-26.71 -29.05,-39.95 -9.04,-0.08 -18.06,-0.11 -27.1,-0.35 1.24,5.06 2.95,10.12 2.65,15.4 -0.5,5.54 -5.49,10.78 -2.15,16.3 -8.56,4.9 -17.61,9 -27.25,11.3 -1.96,4.06 -2.29,11.74 -8.25,11.4 -15.26,-0.08 -30.54,-0.31 -45.8,-0.45 -5.46,14.22 -14.34,27.38 -25.2,38 0.6,-6.84 5.55,-11.87 9.35,-17.15 4.7,-6.22 8.71,-12.93 12.45,-19.75 -11.12,-6.62 -20.84,-15.24 -28.6,-25.6 -7.48,-1.9 -15.23,-2.45 -22.85,-3.75 -1,10.58 -3.25,21.99 1.35,32.05 4.7,10.48 10.46,20.45 17.1,29.85 3.58,1.26 7.12,2.9 10.1,5.3 -1.94,1.28 -3.88,2.54 -5.8,3.8 -1.6,4.8 -3.19,9.61 -4.65,14.45 3.58,3.94 6.68,8.27 9,13.05 -1,0.1 -2.98,0.3 -4,0.4 -2.9,-5.16 -6.42,-9.9 -9.2,-15.1 1.28,-5.6 3.54,-10.91 5.3,-16.35 -11.1,-6.76 -17.04,-19.49 -21.1,-31.35 -0.5,-0.02 -1.45,-0.06 -1.95,-0.1 2.12,11.02 -0.54,22.38 1.8,33.3 1.22,7.38 8.8,10.02 13.6,14.6 3.16,5.28 3.94,12.41 9.7,15.75 4.94,2.7 10.86,2.38 16.3,3.2 14.94,1.74 28.12,9.44 41.3,16.1 16.04,5.2 33.26,5.2 49.5,9.7 -17.68,-0.86 -35.34,-3.93 -52.4,-8.65 1.06,27.86 -1.64,56.52 7.3,83.4 5.68,7.88 15.14,12.88 24.3,15.5 9.96,-4.12 20.49,-7.45 29.45,-13.55 9.36,-9.36 16.48,-21.15 20,-33.95 2.04,-11.8 7.73,-22.44 10.45,-34 -14.44,5.2 -28.36,11.9 -42.8,17.1 -7.66,2.22 -12.14,9.26 -18.7,13.3 5.66,-7.72 13.3,-13.78 22.6,-16.4 16.06,-5.84 31.35,-13.55 47.45,-19.25 3.96,-4.14 3.47,-11.02 7.35,-14.7 0.46,0.32 1.39,0.93 1.85,1.25 0.14,6.08 -2.72,11.46 -5.9,16.4 -3.08,-0.18 -6.17,-0.36 -9.25,-0.5 0,16.34 0.18,32.71 -0.3,49.05 -1.04,12.6 -1.54,25.26 -1.3,37.9 0.08,6.68 2.76,13.15 1.8,19.85 -2.32,14.96 -6.6,29.5 -10.8,44 19,-0.4 37.8,4.05 55.2,11.55 2.76,-15 3.71,-30.23 5.45,-45.35 0.6,-25.92 4.05,-51.81 2.05,-77.75 -1.62,-9.16 -5.83,-17.59 -8.55,-26.45 -7.88,-3.62 -15.64,-7.46 -23.6,-10.9 0.84,-7.32 1.99,-14.58 2.95,-21.9 -12.04,0.68 -24.18,2.37 -35.2,7.55 -8.6,4.18 -18.12,6.11 -27.6,6.85 4.78,-2.4 9.98,-3.63 15.2,-4.65 6.2,-0.8 10.56,-5.93 16.4,-7.75 11.32,-3.5 23.31,-8.32 35.05,-3.6 -0.54,7.02 -1.5,14.04 -2.5,21 11.6,6.4 24.04,11.42 37.2,13.5 6.72,-10.5 15.57,-19.59 21.15,-30.85 5.84,-12.2 11.18,-24.65 16.1,-37.25 8.98,-0.24 15.4,-6.77 22.5,-11.35 -2.98,9.26 -11.38,14.35 -20.3,16.75 -7.4,20.16 -16.22,40.11 -29.8,56.95 5.92,4.66 11.67,9.49 17.15,14.65 7.68,7.44 17.71,11.67 25.75,18.65 26.46,21.26 54.63,40.63 85.65,54.65 13.12,8.1 28.55,1.54 42.85,2.7 12.58,-16 23.5,-34.32 25.8,-54.9 2.12,-18.24 -7,-35.3 -16.9,-49.9 -12.86,-14.54 -27.73,-27.67 -44.95,-36.85 -13.68,-7.12 -26.56,-15.69 -40.7,-21.95 -13.48,-6.22 -25.84,-15.36 -40.4,-18.9 0.26,-1.06 0.77,-3.14 1.05,-4.2 24.86,9.96 48.6,22.52 72,35.5 -3.28,-24.1 -3.94,-48.84 -11.7,-72.1 8.5,-5.38 16.01,-12.13 24.65,-17.35 9.04,-5.64 19.03,-9.61 29.15,-12.85 5.9,-2.1 11.33,2.38 16.45,4.7 16.22,9.22 35.8,15.73 45.7,32.75 16.14,35.5 18.87,75.27 18.15,113.75 -6.28,-3.22 -12.79,-5.98 -19.05,-9.2 -10.46,-2.58 -21.39,-2.86 -31.85,-0.2 1.42,1.32 4.28,3.9 5.7,5.2 -10.94,-4.16 -22.04,-9.92 -27.6,-20.8 -3.38,-0.74 -6.73,-1.5 -10.05,-2.5 4.56,-0.28 9.08,0.38 13.2,2.4 1.88,3.88 4.47,7.39 7.55,10.45 12.26,-9.08 28.73,-6.91 42.75,-4.05 1,1.7 2.01,3.38 3.05,5.1 4.28,3.08 8.82,5.79 13.7,7.85 -1.76,-10.22 -2.06,-20.56 -2.2,-30.9 -1.72,-23.86 -6.06,-47.72 -14.7,-70.1 -3.1,-7.5 -8.07,-14.62 -15.25,-18.7 -13.24,-8.18 -27.07,-15.55 -41.15,-22.15 -19.98,3.82 -37.31,15.75 -52.95,28.25 6.54,23.8 8.33,48.59 10.75,73.05 21.78,11.04 41.63,26.52 55.85,46.5 6.42,11.46 13.33,23.46 13.95,36.9 1.6,22.98 -9.14,45.04 -23,62.7 0.98,0.98 3.02,3 4,4 -10.54,3.34 -21.7,2.59 -32.6,2.95 -2.54,1.58 -5.06,3.11 -7.6,4.65 3.62,7.08 6.58,17.31 15.7,18.65 18.68,2.82 37.44,6.14 56.4,6.2 10.48,0.36 19.47,-5.71 28.45,-10.25 5.72,-3.26 12.24,-6.32 15.5,-12.4 1.32,-3.76 0.72,-7.93 1.8,-11.75 5.6,-14.2 7.79,-29.43 10.55,-44.35 1.74,-15.56 1.65,-34.19 -11.45,-45.15 0.3,-11.62 -0.22,-23.23 -0.3,-34.85 0.54,-26.46 -10.35,-51.3 -13.95,-77.2 -1.32,-8.88 -3.62,-17.67 -7.8,-25.65 -4.98,-9.98 -15.16,-15.53 -23.4,-22.45 -13.46,-9.14 -28.22,-16.26 -42.7,-23.6 -9.58,-5.3 -20.6,-2.02 -30.9,-2.2 -6.94,0 -14.68,-0.21 -20,5.05 -5.94,6.2 -9.8,14.03 -15.1,20.75 -14.36,18.68 -28.2,37.79 -43.2,55.95 8.64,-15.18 20.32,-28.31 30.5,-42.45 9.58,-12.66 20.34,-24.69 27.7,-38.85 2.44,-1.06 4.84,-2.11 7.3,-3.15 -3.02,-5.5 -5.47,-11.43 -9.45,-16.35 -3.94,-2.1 -8.57,0.59 -12.65,0.95 -3.58,-3.98 -6.51,-8.67 -10.95,-11.75 z m -76.8,90 c 13.76648,0.21246 26.17,12.3325 30.2,25.3 0.4,4.26 -1.68,8.16 -3,12.1 -11.1,5.22 -27.02,4.71 -34.5,-6.25 -5.84,-8.64 -4.59,-19.63 -2.35,-29.25 3.23626,-1.35374 6.47312,-1.94902 9.65,-1.9 z M 624.3,453.1 c 2.98,15 0.46,32.94 -12.8,42.4 -8.36,5.14 -15.33,13.82 -25.85,14.1 3.48,-8.74 9.46,-16.1 14.3,-24.1 5.7,-9.4 11.35,-18.86 18.05,-27.6 1.78,-1.88 3.36,-4.82 6.3,-4.8 z m 279.05,76.7 c 10.92,2.22 21.14,9.5 27.2,18.8 -9.48,-5.66 -17.78,-13.06 -27.2,-18.8 z"
     id="path44"
     inkscape:connector-curvature="0" />
  <path
     d="m 500.4,346.9 c 4.24,0.22 8.78,-0.44 12.72,1.56 14.84,6.8 28.7,17.28 45.48,18.58 4.74,7.2 9.54,17.22 3.96,25.26 -4.94,6.3 -10.3,13.2 -17.92,16.3 -9.12,3.4 -17.44,-3.86 -23.74,-9.54 -5.68,-7.26 -11.06,-15.42 -12.3,-24.76 -1.44,-9.54 -7.94,-17.58 -8.2,-27.4 z"
     id="path48"
     inkscape:connector-curvature="0"
     style="fill:#f4722b" />
  <path
     d="m 508.52,385.16 c 2.58,4.26 4.86,8.7 7.78,12.74 4.3,5.78 11.1,8.74 16.36,13.44 2.38,2.76 1.32,6.52 1.46,9.82 -18.4,2.54 -37.08,1.42 -55.6,1.28 -6,-8.06 -14.94,-13.3 -20.9,-21.46 15.62,-0.88 32.34,3.04 46.76,-4.86 1.38,-3.66 2.76,-7.3 4.14,-10.96 z"
     id="path52"
     inkscape:connector-curvature="0"
     style="fill:#f4722b" />
  <path
     d="m 666.82,396.58 c 5.22,-0.18 9.72,2.96 14.28,5.04 -9.02,3.1 -17.36,7.94 -24.1,14.74 -3.58,-0.82 -7.18,-1.56 -10.76,-2.26 7.02,-5.64 13.08,-12.48 20.58,-17.52 z"
     id="path54"
     inkscape:connector-curvature="0"
     style="fill:#f4722b" />
  <path
     d="m 681.06,414.98 c 5.82,0.18 12.32,-1.18 17.48,2.28 9.82,5.64 16.96,15.58 18.46,26.9 -2.82,9.54 -13.96,8.9 -21.66,6.8 -4.8,-4 -11.56,-6.82 -13.5,-13.26 -1.82,-7.44 -0.92,-15.16 -0.78,-22.72 z"
     id="path58"
     inkscape:connector-curvature="0"
     style="fill:#f4722b" />
  <path
     d="m 608.7,478.68 c 4.16,-6.3 7.42,-13.7 14.14,-17.74 -0.42,4.52 -1.08,9.02 -1.86,13.5 -8.48,10.88 -15.86,23.76 -28.88,29.82 5.72,-8.4 11.44,-16.82 16.6,-25.58 z"
     id="path62"
     inkscape:connector-curvature="0"
     style="fill:#f4722b" />
  <path
     d="m 871.9,509.44 c 9.84,-1.04 19.88,-1.14 29.56,1.14 -9.84,0.38 -19.88,1.14 -29.56,-1.14 z"
     id="path64"
     inkscape:connector-curvature="0"
     style="fill:#f4722b" />
  <path
     d="m 865.54,512.68 c 1.82,-1.66 5.14,-2.12 7.08,-0.36 1.38,3.84 -8.72,4.28 -7.08,0.36 z"
     id="path66"
     inkscape:connector-curvature="0"
     style="fill:#f4722b" />
  <path
     d="m 663.7,547.28 c 0.96,-2.82 4.22,-6.38 7.38,-4.36 8.84,5.6 14.96,14.52 23.88,20.06 10.28,6.22 19.78,13.6 29.12,21.14 3.46,2.54 3.72,7.18 4.88,10.98 4.18,17.4 1.36,35.32 0.18,52.9 -1.5,39.7 -7.82,79 -13.78,118.24 -7.56,-16.68 -17.86,-32.08 -30.58,-45.24 -10.5,-10.38 -22.82,-18.66 -35.46,-26.2 6.34,-38.54 8.02,-77.72 8.14,-116.74 0.56,-11.16 -4.14,-21.44 -7.78,-31.68 4.66,0.3 9.34,0.64 14.02,0.9 z"
     id="path70"
     inkscape:connector-curvature="0"
     style="fill:#f4722b" />
  <path
     d="m 503.36,558.04 c 3.8,16.28 4.86,33.1 9.66,49.14 1.2,-0.02 3.58,-0.08 4.78,-0.1 5.84,3.92 11.68,8.42 18.68,10.02 4.64,0.06 8.88,-2.32 13.18,-3.78 10.54,-4.38 22.44,-8.4 28.84,-18.58 9.08,-11.3 12.24,-25.64 17.84,-38.68 1.62,17.36 -1.14,34.66 -1,52 -0.3,2.88 0.48,6.8 -2.66,8.42 -8.62,6.52 -19.08,9.92 -27.82,16.22 -4.34,3.1 -9.26,6.26 -14.86,5.6 -10.6,-0.92 -18.88,-8.28 -28.42,-12.16 -7.14,-2.86 -14.64,-7.86 -16,-16.02 -2.26,-17.24 -2.92,-34.72 -2.22,-52.08 z"
     id="path72"
     inkscape:connector-curvature="0"
     style="fill:#f4722b" />
  <path
     d="m 730.6,589.46 c 15.36,10.12 30.1,21.26 46.46,29.78 10.96,5.6 21.98,11.14 33.32,16 3.3,11.6 9.46,22.24 17.76,30.96 0.28,-1.54 0.84,-4.64 1.14,-6.2 20.18,3.48 40.38,7.32 60.96,7.38 12.2,2.34 19.82,-14.62 32.18,-9.04 5.22,-4.02 8.58,-9.94 12.84,-14.88 1.62,10.02 4.82,20.28 3.12,30.48 -2.74,8.42 -13.9,6.6 -18.06,0.4 1.96,10.6 3.16,21.3 5.06,31.9 -22.98,-16.22 -51.16,-25.46 -79.38,-24.28 -36.56,1.08 -71.72,19.12 -95.26,46.88 -13.9,16.08 -24.08,35.22 -29.94,55.64 -1.04,-5.78 -2.38,-11.7 -1.36,-17.58 5.46,-33.48 10.34,-67.1 13.14,-100.92 0.52,-21.24 4.26,-42.42 2.02,-63.68 -0.74,-4.44 -2.5,-8.62 -4,-12.84 z"
     id="path74"
     inkscape:connector-curvature="0"
     style="fill:#f4722b" />
  <path
     d="m 333.9,693.8 c -6.33187,0.0141 -12.65,0.54 -18.9,1.55 -26.98,4.68 -51.88,19.37 -69.9,39.85 -37.44,41.68 -45.23,106.24 -20.65,156.3 16.9,35.28 50.35,63.11 89.25,69.95 19.78,3.16 40.51,2.08 59.45,-4.8 33.36,-11.86 60.33,-39.06 73.95,-71.5 14.7,-34.5 14.96,-74.78 1.1,-109.6 -11.18,-28.7 -32.42,-53.54 -59.6,-68.2 -16.74,-9.13501 -35.70437,-13.59219 -54.7,-13.55 z m -0.15,82 c 12.82312,-0.0647 25.62,4.58 35.4,12.95 21.42,17.88 28.09,48.71 22.15,75.15 -5.56,23.8 -24.73,44.79 -49.15,49.55 -21.58,3.82 -43.25,-8.83 -54.75,-26.65 -11.9,-17.72 -13.75,-40.42 -9.55,-60.9 4.66,-22.1 20.63,-42.76 43.15,-48.4 4.17,-1.09499 8.47563,-1.67843 12.75,-1.7 z"
     id="path76"
     style="fill:#f5e5c1"
     inkscape:connector-curvature="0" />
  <path
     d="m 590,693.85 c -6.37781,0.11938 -12.77,0.72501 -19.05,1.85 -26.64,5.1 -51.02,19.99 -68.7,40.45 -37.38,42.46 -44.43,107.91 -18.55,157.95 17.52,34.78 51.41,61.71 90.25,67.75 19.1,2.66 38.98,1.44 57.2,-5.2 33.36,-11.88 60.28,-39.06 73.9,-71.5 14.9,-34.96 14.95,-75.83 0.55,-110.95 -11.48,-28.58 -32.94,-53.23 -60.3,-67.55 -16.96499,-8.98501 -36.16656,-13.15813 -55.3,-12.8 z m 2.45,81.95 c 13.54312,0.13032 26.98499,5.52 36.9,14.85 20.82,19.24 26.24,50.89 18.8,77.45 -6.88,22.6 -26.16,42.09 -50,45.65 -23.54,3.02 -46.1,-12.69 -56.4,-33.15 -8.3,-15.46 -9.11,-33.74 -6.75,-50.8 3.8,-23.58 20.02,-46.3 44,-52.3 4.41499,-1.17501 8.93563,-1.74344 13.45,-1.7 z"
     id="path78"
     style="fill:#f5e5c1"
     inkscape:connector-curvature="0" />
  <path
     d="m 847.75,693.85 c -6.24501,0.12469 -12.45,0.72501 -18.6,1.8 -26.18,5.04 -50.31,19.4 -67.95,39.3 -37.5,41.72 -45.46,106.27 -20.9,156.45 16.88,35.36 50.4,63.09 89.3,70.05 21.22,3.46 43.53,1.84 63.55,-6.3 28.7,-11.48 52.34,-34.39 66.1,-61.95 18.74,-37.02 19.79,-82.29 3.75,-120.45 -11.76,-28.4 -33.54,-52.72 -61,-66.7 -16.71,-8.64 -35.51499,-12.57406 -54.25,-12.2 z m 0.5,82 c 11.46539,-0.35909 23.0075,2.8875 32.4,9.55 16.14,10.88 25.74,29.69 27.9,48.75 1.42,14.36 0.66,29.51 -5.9,42.65 -8.44,18.72 -25.95,33.85 -46.55,36.95 -22.58,2.9 -44.44,-11.5 -55.1,-30.8 -10.64,-18.66 -11.52,-41.72 -5.9,-62.1 5.88,-21.3 23.03,-40.03 45.25,-44.15 2.61,-0.46875 5.25414,-0.76714 7.9,-0.85 z"
     id="path80"
     style="fill:#f5e5c1"
     inkscape:connector-curvature="0" />
  <path
     d="m 122.88,704.88 c 3.96,-3.1 7.24,-8.92 13,-7.84 19.5,1.2 39,2.5 58.48,3.9 -3.9,87.38 -7.42,174.8 -11.46,262.18 -22.68,-0.78 -45.32,-2.46 -68,-3.26 2.2,-60.72 4.7,-121.4 6.7,-182.12 -5.9,5.66 -11.64,11.48 -17.14,17.54 -10.94,-13.2 -21.96,-26.32 -32.88,-39.54 17.04,-17.02 34.4,-33.7 51.3,-50.86 z"
     id="path82"
     inkscape:connector-curvature="0"
     style="fill:#f5e5c1" />
</svg>
