<?xml version="1.0" encoding="UTF-8" ?>
<!DOCTYPE svg PUBLIC "-//W3C//DTD SVG 1.1//EN" "http://www.w3.org/Graphics/SVG/1.1/DTD/svg11.dtd">
<svg width="512pt" height="512pt" viewBox="0 0 512 512" version="1.1" xmlns="http://www.w3.org/2000/svg">
<path fill="#3e3e3e" opacity="1.00" d=" M 0.00 0.00 L 512.00 0.00 L 512.00 512.00 L 0.00 512.00 L 0.00 0.00 Z" />
<path fill="#f5e5c1" opacity="1.00" d=" M 250.12 72.99 C 255.12 68.41 261.80 66.53 268.29 65.21 C 275.93 65.13 285.07 62.82 291.18 68.79 C 299.55 73.55 304.88 81.89 309.73 89.87 C 309.33 87.44 308.52 84.98 309.39 82.54 C 310.49 77.28 316.01 75.07 320.52 73.46 C 325.87 71.44 331.65 72.20 337.16 71.11 C 340.70 70.49 344.80 71.07 347.56 73.53 C 350.55 77.00 350.77 82.50 348.41 86.38 C 345.92 90.25 341.03 91.10 337.03 92.65 C 330.06 94.01 322.97 97.65 315.80 95.39 C 313.35 94.86 311.93 92.72 310.24 91.13 C 310.94 95.14 311.96 99.08 313.00 103.01 C 318.92 105.32 325.68 106.05 330.53 110.54 C 332.93 112.24 333.33 115.26 334.29 117.82 C 338.40 124.03 344.53 128.70 351.46 131.37 C 354.32 132.30 356.59 134.35 359.22 135.74 C 364.99 138.08 370.00 141.82 375.70 144.32 C 380.48 148.45 387.17 147.23 392.79 149.13 C 400.00 150.87 407.44 151.38 414.78 152.32 C 422.70 155.07 431.20 155.16 439.40 156.47 C 443.68 158.20 448.83 158.04 452.06 161.80 C 456.88 160.55 461.95 158.91 466.91 160.49 C 471.01 161.26 473.63 164.88 477.41 166.33 C 481.40 167.70 484.99 170.83 486.38 174.87 C 487.55 179.12 492.12 180.97 494.31 184.59 C 496.41 188.27 499.07 192.60 497.43 196.97 C 496.36 199.80 495.15 202.77 493.02 204.97 C 489.39 207.30 484.64 208.07 480.53 206.64 C 475.32 204.99 471.66 200.66 467.89 196.95 C 465.04 197.15 462.22 197.55 459.41 197.98 C 456.30 200.33 452.73 202.40 448.80 202.85 C 446.27 202.69 443.77 202.26 441.25 202.06 C 437.99 204.96 433.51 205.04 429.44 205.75 C 427.11 206.24 424.98 204.87 422.84 204.24 C 414.71 201.81 406.42 200.03 398.23 197.84 C 386.97 195.60 376.08 191.72 364.84 189.33 C 361.37 187.57 357.81 186.05 354.05 185.01 C 349.90 182.47 345.15 181.32 340.83 179.15 C 334.47 177.13 328.65 173.61 322.19 171.92 C 319.99 179.40 318.79 187.16 316.64 194.66 C 313.75 207.63 310.65 220.55 307.60 233.48 C 304.93 241.57 302.90 249.86 300.07 257.91 C 298.79 261.39 298.21 265.54 295.04 267.91 C 292.88 269.60 290.73 271.53 290.81 274.51 C 289.65 279.77 288.07 284.95 286.46 290.09 C 285.78 295.14 283.20 299.59 282.15 304.55 C 279.94 309.14 281.10 314.27 280.72 319.15 C 280.62 326.49 280.83 333.79 280.69 341.14 C 280.48 344.08 281.29 347.04 280.53 349.96 C 279.21 360.59 277.56 371.22 277.73 381.95 C 278.07 385.67 276.97 389.32 276.91 393.04 C 276.49 399.50 273.90 405.55 273.40 411.99 C 273.39 414.95 274.68 417.70 275.49 420.50 C 278.24 433.51 282.06 446.49 281.95 459.91 C 282.10 465.97 280.72 472.79 275.59 476.64 C 272.58 479.77 267.97 480.59 263.87 479.56 C 256.07 478.87 247.77 474.55 245.25 466.68 C 239.27 453.82 238.65 439.46 236.28 425.71 C 234.68 422.26 232.59 418.96 232.85 414.97 C 230.48 412.66 228.26 410.18 225.55 408.27 C 222.48 406.34 221.96 402.36 221.89 399.05 C 221.64 393.49 225.39 388.80 225.30 383.26 C 227.33 377.70 229.18 372.05 230.33 366.22 C 234.45 354.46 236.77 342.15 239.94 330.12 C 241.23 327.25 242.41 324.20 242.00 320.98 C 241.13 309.90 239.96 298.83 237.86 287.91 C 236.63 281.46 236.38 274.84 234.78 268.47 C 230.18 265.98 225.27 264.21 220.40 262.37 C 213.75 266.90 206.23 269.96 199.68 274.65 C 197.92 275.61 196.05 276.38 194.34 277.45 C 188.00 282.07 180.70 285.38 174.92 290.78 C 168.47 295.89 162.68 302.31 154.67 304.98 C 151.28 306.26 148.95 309.11 146.13 311.23 C 141.80 314.21 139.48 319.12 135.54 322.54 C 132.68 326.35 128.71 329.42 127.09 334.03 C 125.85 336.94 122.94 338.56 121.21 341.11 C 120.13 343.91 120.08 347.02 118.80 349.76 C 116.16 354.04 111.69 356.93 106.97 358.44 C 101.41 359.66 95.72 360.13 90.17 361.38 C 86.95 362.93 84.49 365.68 81.59 367.74 C 76.87 371.92 71.02 374.44 65.60 377.55 C 60.11 381.14 53.89 383.33 48.14 386.42 C 43.81 387.27 39.20 387.42 34.88 386.42 C 29.88 384.51 26.44 379.28 25.99 374.02 C 26.17 370.82 26.86 367.67 27.46 364.54 C 28.33 360.37 31.37 357.15 34.53 354.52 C 38.84 351.04 43.15 347.44 48.12 344.94 C 56.94 342.59 65.19 337.70 71.08 330.68 C 72.27 327.33 70.61 323.66 71.76 320.20 C 71.57 314.20 74.53 308.71 78.48 304.39 C 86.20 297.53 96.24 294.47 105.54 290.53 C 112.85 285.27 121.14 281.63 128.61 276.61 C 132.12 274.11 136.81 272.90 138.74 268.65 C 146.96 258.80 155.43 249.17 163.93 239.57 C 168.34 234.38 173.17 229.54 177.80 224.54 C 176.59 219.37 177.80 213.83 180.28 209.23 C 184.10 204.12 188.99 199.87 194.03 195.98 C 198.71 192.34 202.08 187.31 206.83 183.75 C 211.29 180.37 214.77 175.94 218.78 172.07 C 218.34 170.08 217.90 168.09 217.45 166.11 C 209.90 169.05 203.00 173.40 195.42 176.27 C 189.03 179.40 182.53 182.37 175.90 184.97 C 172.29 185.89 168.44 187.93 164.71 186.33 C 156.50 182.32 148.20 178.36 140.81 172.92 C 135.54 167.27 130.53 161.34 125.39 155.58 C 119.36 151.13 114.43 145.08 111.61 138.12 C 110.36 134.92 111.08 131.47 112.01 128.31 C 109.07 126.17 105.29 124.56 103.88 120.96 C 102.24 116.42 102.41 110.65 105.95 107.04 C 108.28 104.78 108.53 101.20 110.92 98.99 C 113.36 96.45 117.17 95.50 120.51 96.63 C 123.27 97.68 126.10 96.17 128.89 96.80 C 132.29 97.78 135.78 95.80 139.13 97.27 C 142.57 97.86 145.03 100.60 146.55 103.56 C 150.73 104.84 154.64 108.32 154.93 112.91 C 155.31 115.44 154.44 118.51 156.62 120.45 C 159.53 123.20 161.44 126.91 164.77 129.22 C 168.28 131.77 171.15 135.06 174.19 138.14 C 178.60 135.05 183.20 132.12 188.28 130.27 C 197.28 125.64 206.89 122.37 216.01 118.02 C 218.89 112.68 219.11 105.18 225.31 102.18 C 230.73 100.32 236.61 100.16 242.28 99.47 C 241.90 94.65 241.60 89.66 242.59 84.89 C 244.51 80.60 247.54 76.90 250.12 72.99 Z" />
<path fill="#3e3e3e" opacity="1.00" d=" M 262.54 76.22 C 268.72 74.51 275.22 73.25 281.65 73.96 C 285.98 76.15 290.41 78.70 293.27 82.74 C 296.43 86.93 300.43 90.82 301.78 96.06 C 302.54 99.22 303.27 102.41 304.63 105.38 C 301.05 107.51 297.09 108.91 293.48 110.95 L 292.87 112.36 C 303.34 112.58 315.42 110.66 324.20 117.71 C 324.04 119.16 324.17 120.66 325.33 121.68 C 330.16 127.13 334.69 133.28 341.36 136.62 C 353.61 142.99 365.63 149.82 377.97 155.99 C 399.23 159.69 420.58 163.10 441.88 166.69 C 445.49 167.01 447.66 170.44 446.66 173.90 C 451.85 172.54 456.62 169.79 461.95 168.95 C 466.75 168.19 468.79 173.90 473.18 174.63 C 476.36 175.00 478.20 177.81 477.97 180.88 C 481.18 184.79 485.86 187.56 487.95 192.31 C 489.27 194.97 487.25 199.31 483.92 198.50 C 479.60 195.44 475.91 191.59 471.65 188.46 C 470.30 187.34 468.52 187.84 466.95 187.89 C 462.72 188.35 458.35 188.08 454.34 189.68 C 450.43 195.68 442.59 193.32 437.17 191.15 C 435.47 193.92 432.97 197.38 429.20 196.18 C 409.77 191.23 390.34 186.28 370.92 181.30 C 365.79 179.95 361.05 177.49 356.13 175.56 C 343.72 170.52 331.47 165.07 318.97 160.26 C 314.93 165.51 311.88 171.56 311.13 178.22 C 304.44 205.41 299.00 233.00 289.74 259.48 C 289.01 261.83 286.59 261.64 284.60 261.58 C 281.45 272.81 278.98 284.23 275.28 295.31 C 273.69 301.45 270.55 307.42 271.47 313.95 C 271.07 330.65 272.32 347.45 269.75 364.03 C 267.93 375.10 268.84 386.41 266.93 397.45 C 265.34 401.61 266.10 406.48 263.23 410.14 C 264.05 415.83 266.07 421.25 267.36 426.84 C 270.18 439.98 274.51 453.37 272.05 466.93 C 271.42 468.64 269.87 469.93 268.13 470.41 C 263.64 471.35 259.08 469.27 255.67 466.49 C 248.48 455.17 248.30 441.33 246.23 428.50 C 245.70 421.94 241.19 416.42 241.55 409.68 C 237.74 407.19 234.43 404.05 231.55 400.54 C 230.41 397.36 232.53 394.24 233.35 391.23 C 238.11 372.09 244.38 353.35 248.62 334.07 C 249.28 330.68 250.99 327.54 251.35 324.08 C 250.33 312.51 250.00 300.82 247.76 289.38 C 246.33 280.22 245.01 271.05 243.15 261.97 C 235.78 258.61 228.33 255.44 220.80 252.46 C 219.34 252.25 218.13 253.48 216.85 254.00 C 204.18 261.22 191.30 268.11 179.14 276.19 C 171.27 280.66 164.94 287.21 157.95 292.86 C 155.59 294.90 152.64 295.84 149.68 296.62 C 137.75 303.44 130.34 315.42 120.99 325.06 C 119.72 326.86 119.14 329.04 117.97 330.90 C 116.33 332.92 113.92 334.08 111.51 334.90 C 109.14 338.57 113.37 343.54 109.66 346.54 C 108.06 348.19 105.92 349.24 103.68 349.68 C 97.83 350.88 91.87 351.46 85.99 352.48 C 79.88 357.18 74.06 362.42 67.30 366.23 C 60.93 369.10 55.40 373.49 48.79 375.88 C 45.47 377.92 41.46 378.05 37.74 377.23 C 34.25 375.86 35.65 371.73 35.87 368.91 C 36.39 363.74 41.37 360.94 44.95 357.88 C 50.53 353.13 58.11 352.12 64.20 348.24 C 70.17 344.37 75.73 339.81 80.50 334.54 C 80.76 328.76 81.02 322.97 81.59 317.23 C 83.47 309.66 91.35 306.36 97.94 303.88 C 104.11 301.22 110.41 298.69 115.96 294.84 C 120.53 291.62 125.72 289.45 130.35 286.33 C 134.01 283.89 137.86 281.75 141.75 279.68 C 144.43 278.35 145.28 275.22 147.14 273.08 C 154.22 264.56 161.62 256.32 168.92 247.99 C 175.42 240.07 182.82 232.96 190.06 225.73 C 188.39 223.40 185.98 220.98 186.66 217.84 C 187.95 213.33 191.73 210.14 195.04 207.05 C 200.61 202.67 205.89 197.93 210.82 192.85 C 216.75 187.56 222.36 181.88 227.70 176.03 C 228.93 167.77 224.33 160.20 224.42 151.98 C 209.34 159.98 193.64 166.74 178.24 174.09 C 175.27 175.32 172.36 176.93 169.13 177.36 C 165.71 177.91 163.58 174.51 160.56 173.56 C 154.49 171.61 149.16 167.82 144.56 163.48 C 140.60 159.07 136.79 154.54 132.80 150.16 C 128.69 145.61 123.49 141.85 120.94 136.08 C 118.84 132.46 123.61 128.45 120.93 125.00 C 119.28 121.36 115.34 119.83 112.60 117.19 C 112.45 116.64 112.16 115.56 112.01 115.02 C 112.24 114.41 112.71 113.21 112.94 112.60 C 116.19 111.96 118.44 114.47 120.93 116.06 C 120.16 112.96 116.36 111.37 116.46 107.99 C 116.28 106.06 118.36 104.78 120.09 105.45 C 122.70 107.31 124.58 109.95 126.63 112.38 C 125.87 110.89 125.10 109.40 124.33 107.93 C 125.19 106.54 126.11 104.89 128.06 105.44 C 129.71 106.28 130.95 107.71 132.33 108.92 C 132.94 107.84 133.50 106.74 134.03 105.63 C 137.85 104.79 140.08 109.30 139.49 112.54 C 141.50 112.15 143.56 112.06 145.58 112.46 C 145.96 114.50 145.81 116.57 144.24 118.08 C 148.09 125.70 153.85 132.23 160.49 137.56 C 164.68 141.50 168.95 145.43 172.50 149.98 C 175.52 148.67 177.98 146.44 180.77 144.74 C 185.80 141.62 191.25 139.27 196.54 136.64 C 204.67 132.57 213.46 129.94 221.39 125.46 C 226.48 122.22 226.44 115.65 228.75 110.68 C 237.11 109.18 245.53 108.27 254.05 108.45 C 252.80 105.83 252.64 102.94 252.32 100.11 C 250.65 94.14 250.80 86.89 255.07 81.99 C 257.06 79.53 259.34 77.01 262.54 76.22 Z" />
<path fill="#3e3e3e" opacity="1.00" d=" M 319.21 84.16 C 326.16 81.08 333.92 79.87 341.46 80.77 C 336.77 83.30 331.54 84.32 326.43 85.60 C 324.09 86.04 321.60 88.03 319.29 86.60 C 319.27 85.99 319.23 84.77 319.21 84.16 Z" />
<path fill="#f4722b" opacity="1.00" d=" M 262.24 141.08 C 270.26 139.37 279.14 141.15 285.45 146.52 C 289.34 149.83 292.07 154.82 291.75 160.03 C 292.18 167.24 287.08 173.63 280.92 176.77 C 270.78 181.98 256.82 180.73 248.95 172.02 C 244.41 167.27 243.01 159.81 245.66 153.78 C 248.57 147.08 255.24 142.56 262.24 141.08 Z" />
<path fill="#f4722b" opacity="1.00" d=" M 195.42 176.27 C 203.00 173.40 209.90 169.05 217.45 166.11 C 217.90 168.09 218.34 170.08 218.78 172.07 C 214.77 175.94 211.29 180.37 206.83 183.75 C 202.08 187.31 198.71 192.34 194.03 195.98 C 188.99 199.87 184.10 204.12 180.28 209.23 C 177.80 213.83 176.59 219.37 177.80 224.54 C 173.17 229.54 168.34 234.38 163.93 239.57 C 157.69 237.07 152.69 231.39 152.19 224.51 C 143.23 223.77 134.45 221.79 125.53 220.74 C 114.69 219.64 103.82 218.60 92.92 218.47 C 85.61 218.52 78.51 216.07 71.18 216.61 C 71.18 216.32 71.17 215.74 71.17 215.46 C 78.51 215.90 85.67 213.88 92.97 213.63 C 98.31 213.50 103.69 213.33 109.01 213.97 C 119.30 215.01 129.74 215.47 139.76 218.23 C 144.05 219.33 148.36 220.44 152.78 220.93 C 152.79 220.39 152.81 219.30 152.82 218.76 C 149.75 218.09 146.66 216.98 144.55 214.54 C 142.24 211.68 138.15 212.38 134.93 211.60 C 125.51 210.68 116.32 208.26 106.91 207.33 C 105.31 207.21 104.43 206.29 104.28 204.59 C 110.38 204.16 116.40 206.10 122.48 204.53 C 119.54 200.25 119.15 194.87 120.63 189.98 C 117.17 188.93 113.84 185.93 114.24 182.01 C 113.97 177.73 118.97 174.29 122.90 175.89 C 125.28 176.80 126.73 179.00 128.32 180.85 C 131.39 176.84 135.43 173.02 140.81 172.92 C 148.20 178.36 156.50 182.32 164.71 186.33 C 168.44 187.93 172.29 185.89 175.90 184.97 C 177.33 185.05 178.76 185.16 180.19 185.29 C 184.20 182.77 188.80 181.59 193.41 180.72 C 194.07 179.23 194.74 177.75 195.42 176.27 Z" />
<path fill="#3e3e3e" opacity="1.00" d=" M 175.90 184.97 C 182.53 182.37 189.03 179.40 195.42 176.27 C 194.74 177.75 194.07 179.23 193.41 180.72 C 188.80 181.59 184.20 182.77 180.19 185.29 C 178.76 185.16 177.33 185.05 175.90 184.97 Z" />
<path fill="#f4722b" opacity="1.00" d=" M 316.64 194.66 C 320.94 191.45 326.64 189.65 331.91 191.42 C 337.20 192.76 340.82 197.30 342.95 202.08 C 349.97 204.36 356.94 206.80 364.01 208.91 C 366.81 210.50 369.44 212.44 372.58 213.36 C 368.84 211.93 364.76 213.00 360.96 211.88 C 354.94 210.32 349.24 207.76 343.29 205.97 C 343.31 207.01 343.33 208.06 343.36 209.10 C 351.11 210.58 356.14 218.86 354.22 226.46 C 359.72 225.47 364.72 227.89 369.31 230.55 C 375.41 231.56 381.10 234.59 384.57 239.83 C 385.89 235.58 387.54 230.77 391.90 228.76 C 395.69 226.80 399.89 228.19 403.82 228.79 C 406.77 226.50 409.90 223.85 413.93 224.20 C 418.09 223.67 421.83 225.74 424.84 228.40 C 429.91 228.73 435.01 228.57 440.08 228.97 C 445.50 229.61 449.63 235.59 447.98 240.86 C 447.43 243.08 445.40 244.34 443.74 245.68 C 442.64 251.63 438.56 256.93 432.79 258.96 C 427.72 260.77 422.42 262.17 417.05 262.61 C 408.00 263.15 400.24 254.69 400.54 245.83 C 398.78 252.02 393.07 255.46 388.87 259.84 C 390.69 261.75 393.17 264.08 392.20 267.03 C 390.49 272.41 385.29 275.82 380.04 277.16 C 376.51 278.02 372.46 276.35 370.80 273.07 C 369.65 271.09 369.76 268.73 369.61 266.53 C 361.82 265.85 354.71 270.36 346.96 270.10 C 343.76 269.92 340.84 268.53 338.01 267.17 C 336.12 269.60 333.64 271.48 330.57 272.06 C 334.25 274.48 337.88 276.99 341.58 279.37 C 344.49 281.23 347.05 284.00 347.64 287.52 C 339.59 286.25 333.11 280.81 326.46 276.50 C 322.29 273.88 318.61 270.55 314.39 268.02 C 311.87 273.55 306.17 277.49 300.03 277.45 C 296.71 277.55 293.61 276.16 290.81 274.51 C 290.73 271.53 292.88 269.60 295.04 267.91 C 298.21 265.54 298.79 261.39 300.07 257.91 C 302.90 249.86 304.93 241.57 307.60 233.48 C 310.65 220.55 313.75 207.63 316.64 194.66 Z" />
<path fill="#f4722b" opacity="1.00" d=" M 360.25 204.58 C 362.49 204.40 364.73 204.26 366.99 204.29 C 366.83 205.31 366.55 206.30 366.14 207.24 C 364.12 207.29 362.15 206.76 360.19 206.37 C 360.20 205.92 360.24 205.03 360.25 204.58 Z" />
<path fill="#3e3e3e" opacity="1.00" d=" M 331.76 245.79 C 331.13 248.25 330.82 250.78 330.63 253.31 C 328.78 253.37 326.94 253.46 325.10 253.60 C 327.82 251.46 330.06 248.79 331.76 245.79 Z" />
<path fill="#3e3e3e" opacity="1.00" d=" M 316.53 257.96 C 318.08 257.36 319.68 256.86 321.25 256.31 C 319.27 258.39 318.79 261.21 318.54 263.96 C 317.60 263.33 316.67 262.70 315.74 262.08 C 316.06 260.80 315.09 258.68 316.53 257.96 Z" />
<path fill="#f5e5c1" opacity="1.00" d=" M 408.22 279.30 C 414.00 275.54 421.61 276.58 427.45 279.66 C 429.47 280.80 430.09 283.18 430.94 285.18 C 437.48 284.34 443.80 286.67 450.01 288.33 C 454.40 289.45 458.52 291.44 462.41 293.72 C 466.05 296.03 467.91 300.11 471.01 302.98 C 474.93 306.44 476.02 311.78 477.56 316.54 C 478.56 319.49 477.25 322.51 476.59 325.39 C 475.81 329.15 472.46 331.42 470.02 334.09 C 465.71 338.83 458.84 338.87 452.98 339.93 C 449.84 339.62 446.67 338.63 443.99 336.96 C 440.55 333.92 441.44 328.63 438.70 325.09 C 436.54 325.70 434.30 326.00 432.07 325.64 C 429.17 329.84 424.20 331.73 419.55 333.28 C 416.63 333.96 413.64 335.31 410.60 334.60 C 408.13 334.13 405.68 333.53 403.23 332.98 C 392.39 341.65 380.91 349.49 370.14 358.24 C 368.06 360.18 366.88 363.24 363.90 364.05 C 360.43 365.15 357.07 367.63 353.27 366.78 C 347.00 364.77 341.09 361.36 337.13 355.96 C 333.38 350.66 328.74 344.86 329.94 337.90 C 330.22 330.59 338.27 326.49 344.85 326.90 C 366.18 311.33 386.90 294.91 408.22 279.30 Z" />
<path fill="#f4722b" opacity="1.00" d=" M 356.39 279.32 C 359.40 277.09 364.43 279.13 364.58 283.00 C 365.26 287.23 359.64 290.00 356.41 287.58 C 353.42 285.91 353.37 280.97 356.39 279.32 Z" />
<path fill="#3e3e3e" opacity="1.00" d=" M 414.54 286.66 C 417.71 285.84 421.95 286.54 422.77 290.28 C 424.22 291.53 425.19 293.15 425.71 295.00 C 428.46 295.63 431.20 294.62 433.96 294.59 C 439.74 294.47 445.29 296.46 450.62 298.49 C 456.96 300.91 461.61 306.21 465.51 311.55 C 467.85 314.77 469.58 319.46 467.14 323.10 C 465.37 325.49 463.67 328.51 460.57 329.29 C 457.26 330.00 453.85 330.59 450.49 329.95 C 450.25 325.38 447.50 321.58 444.98 317.98 C 442.24 314.70 437.29 315.02 433.72 316.61 C 431.46 315.33 430.48 313.01 430.23 310.53 C 427.84 309.69 425.66 310.42 424.32 312.58 C 425.84 315.63 425.35 319.39 422.56 321.53 C 419.26 323.95 415.14 325.96 410.94 325.46 C 407.97 325.12 406.11 322.60 404.65 320.27 C 390.79 330.87 376.75 341.22 362.83 351.74 C 360.64 354.19 358.14 356.21 354.99 357.31 C 351.55 356.49 348.31 354.70 346.20 351.80 C 343.42 347.93 340.09 344.34 338.34 339.84 C 339.41 338.48 340.47 336.79 342.38 336.62 C 344.97 336.44 347.83 336.90 349.96 335.02 C 369.07 320.79 387.98 306.29 407.00 291.94 C 409.49 290.15 411.75 287.98 414.54 286.66 Z" />
</svg>
