<?xml version="1.0" encoding="UTF-8" ?>
<!DOCTYPE svg PUBLIC "-//W3C//DTD SVG 1.1//EN" "http://www.w3.org/Graphics/SVG/1.1/DTD/svg11.dtd">
<svg width="512pt" height="512pt" viewBox="0 0 512 512" version="1.1" xmlns="http://www.w3.org/2000/svg">
<path fill="#3e3e3e" opacity="1.00" d=" M 0.00 0.00 L 512.00 0.00 L 512.00 512.00 L 501.40 512.00 C 501.11 498.98 500.97 485.96 500.28 472.95 C 499.75 458.65 498.08 444.43 496.90 430.18 C 494.21 396.66 488.66 363.44 485.08 330.02 C 483.87 326.90 480.16 325.58 477.89 323.25 C 477.22 323.59 475.87 324.25 475.20 324.59 C 467.84 320.55 461.71 314.72 454.44 310.55 C 445.41 304.36 435.20 300.32 425.43 295.50 C 407.82 287.72 389.70 280.99 370.98 276.40 C 366.88 275.56 362.73 274.89 358.87 273.24 C 352.40 272.06 344.63 272.45 339.90 267.04 C 341.07 273.37 342.84 279.59 343.84 285.95 C 346.98 310.47 348.66 335.27 346.89 359.97 C 346.53 369.03 344.93 377.98 344.16 387.01 C 353.59 370.72 369.60 358.07 388.05 353.82 C 402.04 350.10 417.10 352.05 430.26 357.82 C 446.77 365.30 459.85 379.45 466.77 396.14 C 473.00 411.50 475.16 428.80 471.09 445.01 C 467.46 462.46 457.42 478.50 443.10 489.16 C 433.29 496.73 421.22 501.05 408.96 502.35 C 392.22 503.76 375.05 498.56 361.87 488.16 C 350.31 479.11 341.54 466.44 337.28 452.38 C 336.82 465.30 336.21 478.21 335.66 491.12 C 335.34 494.36 335.17 498.21 332.44 500.44 C 329.77 502.41 326.23 502.56 323.04 502.44 C 314.01 501.91 304.97 501.48 295.93 501.01 C 293.08 500.88 290.00 500.27 287.94 498.14 C 285.69 496.09 285.47 492.82 285.53 489.99 C 286.47 466.09 287.36 442.18 288.21 418.27 C 285.92 417.69 283.31 417.31 281.78 415.30 C 276.70 409.33 271.75 403.25 266.69 397.26 C 263.87 393.93 263.37 388.66 266.20 385.18 C 269.39 381.36 273.21 378.15 276.86 374.78 C 283.29 368.58 289.34 361.96 296.02 356.01 C 298.65 353.53 302.54 353.40 305.96 353.60 C 314.00 354.19 322.06 354.69 330.11 355.20 C 333.19 355.39 336.57 355.87 338.87 358.14 C 340.89 360.19 341.21 363.24 341.12 365.99 C 340.90 372.05 340.40 378.11 340.31 384.18 C 343.44 360.80 344.32 337.11 342.69 313.57 C 341.49 301.35 341.06 288.97 338.04 277.01 C 336.71 270.77 335.46 264.51 334.29 258.24 C 331.56 258.66 329.92 260.74 329.02 263.22 C 323.73 264.34 319.26 267.68 313.93 268.64 C 309.93 269.57 305.76 269.46 301.81 270.64 C 289.57 272.92 277.19 274.46 264.88 276.34 C 260.28 277.01 255.83 278.52 251.18 278.77 C 251.33 277.78 251.54 276.80 251.79 275.83 C 256.71 272.43 262.41 270.46 267.81 267.99 C 274.38 264.43 280.69 260.36 287.54 257.34 C 296.82 253.22 305.53 247.99 314.73 243.73 C 320.10 240.92 325.73 238.66 331.08 235.81 C 329.26 231.65 327.19 227.60 325.44 223.42 C 323.53 218.16 316.37 217.69 312.02 219.96 C 305.67 223.25 298.86 225.72 292.95 229.80 C 285.26 234.74 276.01 236.01 267.28 238.04 C 264.62 233.62 261.54 229.42 259.02 224.94 C 257.42 215.24 259.96 205.51 261.42 195.96 C 262.96 186.25 265.73 176.83 268.27 167.36 C 274.36 165.48 280.53 163.69 286.93 163.29 C 296.97 162.62 307.06 161.43 316.69 158.34 C 316.62 160.11 315.27 161.28 314.27 162.56 C 316.06 164.26 317.79 166.01 319.47 167.81 C 322.48 163.85 322.98 158.79 324.97 154.35 C 326.51 154.38 328.07 154.42 329.62 154.46 C 329.69 156.01 329.76 157.56 329.82 159.11 C 331.26 159.20 332.70 159.30 334.15 159.40 C 334.33 155.44 335.53 151.51 334.72 147.55 C 331.11 146.88 327.47 146.38 323.81 146.20 C 323.73 145.69 323.58 144.68 323.50 144.18 C 327.41 145.09 331.38 145.71 335.30 146.55 C 336.43 141.46 336.36 136.23 337.16 131.09 C 337.61 125.94 338.75 120.86 338.71 115.67 C 332.13 115.60 325.52 115.30 319.00 114.43 C 318.33 112.21 318.87 110.20 320.78 108.86 C 320.06 107.70 319.34 106.54 318.65 105.37 C 319.37 109.05 317.24 112.51 317.81 116.18 C 318.30 122.94 322.27 129.04 321.60 135.97 C 321.24 140.42 322.86 146.68 318.08 149.27 C 315.66 142.67 312.99 136.16 310.14 129.72 C 308.23 123.83 305.30 117.52 299.64 114.44 C 291.92 112.79 286.63 120.01 280.94 123.89 C 274.06 130.75 266.32 137.36 262.33 146.44 C 260.05 148.77 257.88 151.26 255.46 153.44 C 250.27 154.97 243.83 155.19 239.52 151.37 C 233.45 146.35 227.36 140.17 225.96 132.10 C 224.91 127.11 224.32 121.98 225.19 116.92 C 225.90 113.86 223.36 110.80 224.86 107.84 C 228.21 100.98 235.11 96.69 242.11 94.25 C 248.66 91.42 255.70 90.07 262.59 88.32 C 269.35 86.94 276.29 86.88 283.13 86.13 C 288.86 85.55 294.83 84.50 300.44 86.38 C 303.83 87.47 307.36 88.06 310.72 89.23 C 313.84 90.36 314.51 95.04 318.14 95.01 C 315.97 86.20 315.43 77.00 312.39 68.40 C 307.16 57.09 298.22 48.05 288.54 40.42 C 281.51 34.13 273.10 29.76 264.93 25.18 C 259.56 22.03 253.09 23.86 247.29 24.36 C 238.30 25.03 229.51 27.14 220.78 29.25 C 213.16 31.23 205.66 34.34 199.84 39.79 C 194.03 44.54 190.36 51.16 186.15 57.23 C 181.62 64.05 179.86 72.20 177.86 80.02 C 176.16 86.20 177.13 92.65 176.27 98.94 C 175.67 102.75 176.23 106.62 175.69 110.44 C 168.44 110.12 161.19 110.78 153.95 110.86 C 144.65 111.92 135.26 111.24 125.98 112.40 C 120.01 112.59 114.02 112.32 108.09 113.21 C 97.57 113.20 87.07 113.96 76.57 114.43 C 62.38 125.67 47.91 136.56 33.95 148.08 C 41.14 152.87 49.03 157.24 57.80 157.98 C 68.06 160.07 78.57 160.38 89.01 160.49 C 120.86 158.00 151.79 149.38 182.90 142.62 C 190.36 142.10 197.70 140.51 205.18 140.32 C 205.23 140.63 205.34 141.24 205.39 141.55 C 197.85 142.50 190.29 143.24 182.75 144.12 C 159.88 149.42 137.01 154.77 113.93 159.09 C 104.93 160.10 95.96 161.53 86.94 162.27 C 80.43 161.14 73.81 161.94 67.29 161.12 C 61.49 159.79 55.54 159.29 49.73 158.07 C 46.77 156.58 43.75 155.21 40.56 154.23 C 37.44 153.20 35.67 149.26 32.25 149.24 C 26.11 153.62 20.46 158.66 14.31 163.04 C 20.65 166.44 25.73 171.67 31.94 175.27 C 35.49 177.25 38.56 180.33 42.67 181.09 C 49.61 182.41 56.16 185.37 63.18 186.30 C 70.81 186.86 78.38 188.14 86.03 188.48 C 87.28 186.41 88.54 184.35 89.81 182.29 C 90.08 182.41 90.64 182.66 90.91 182.79 C 91.50 184.36 92.08 185.94 92.68 187.52 C 99.95 186.13 107.39 186.13 114.71 185.12 C 118.75 184.46 122.97 184.92 126.85 183.37 C 136.34 180.16 145.97 177.40 155.49 174.27 C 165.07 170.69 174.73 167.36 184.32 163.82 C 190.28 161.83 196.03 159.01 202.36 158.37 C 203.39 159.67 204.46 160.96 205.55 162.22 C 203.97 164.55 202.25 167.02 202.34 169.97 C 202.17 182.65 201.33 195.30 200.83 207.97 C 201.80 237.59 206.66 267.06 204.98 296.75 C 203.16 291.45 201.93 285.74 203.22 280.16 C 204.63 275.53 202.39 270.77 203.57 266.10 C 204.19 263.47 203.91 260.79 203.47 258.17 C 202.65 253.03 204.17 247.72 202.60 242.69 C 201.38 238.72 201.55 234.53 200.72 230.50 C 198.14 222.27 195.83 213.72 196.23 205.02 C 196.40 201.25 195.66 197.13 197.74 193.75 C 200.85 188.64 198.79 182.48 197.75 177.07 C 196.10 177.64 194.45 178.22 192.80 178.79 C 192.65 195.52 192.85 212.26 192.73 228.99 C 192.80 232.50 190.42 235.52 190.59 239.06 C 190.54 244.43 190.93 249.81 190.41 255.17 C 190.37 248.76 190.65 242.32 188.87 236.09 C 188.02 217.70 188.82 199.26 188.43 180.85 C 186.98 182.25 184.66 183.52 184.79 185.87 C 183.95 212.93 182.75 239.98 181.83 267.04 C 181.78 269.11 181.66 271.31 180.27 272.99 C 180.70 271.24 180.64 269.44 180.48 267.67 C 179.91 267.70 178.78 267.76 178.22 267.79 C 180.37 264.66 179.99 260.34 177.27 257.66 C 174.84 255.85 173.18 259.14 171.40 260.33 C 160.94 268.44 150.28 276.50 141.62 286.59 C 136.44 294.48 133.22 303.42 130.21 312.31 C 123.27 331.67 118.04 351.69 115.16 372.07 C 113.05 387.35 110.08 402.55 109.39 417.99 C 109.26 428.07 107.77 438.07 106.73 448.08 C 106.41 451.17 106.71 454.35 105.83 457.36 C 103.95 450.67 105.05 443.74 105.39 436.93 C 106.11 425.94 105.41 414.91 106.63 403.94 C 110.00 375.98 113.55 347.78 122.86 321.05 C 126.31 311.58 129.26 301.89 133.79 292.86 C 124.33 296.61 116.20 302.99 107.98 308.87 C 95.40 317.44 83.58 327.06 71.68 336.54 C 70.62 340.59 67.55 343.80 66.89 347.99 C 65.73 353.78 65.50 359.77 63.49 365.38 C 57.25 385.34 51.53 405.49 43.98 425.00 C 38.38 442.14 33.78 459.58 28.96 476.95 C 25.83 488.59 22.42 500.18 20.02 512.00 L 0.00 512.00 L 0.00 0.00 Z" />
<path fill="#f4722b" opacity="1.00" d=" M 247.29 24.36 C 253.09 23.86 259.56 22.03 264.93 25.18 C 273.10 29.76 281.51 34.13 288.54 40.42 C 298.22 48.05 307.16 57.09 312.39 68.40 C 315.43 77.00 315.97 86.20 318.14 95.01 C 314.51 95.04 313.84 90.36 310.72 89.23 C 307.36 88.06 303.83 87.47 300.44 86.38 C 294.83 84.50 288.86 85.55 283.13 86.13 C 276.29 86.88 269.35 86.94 262.59 88.32 C 255.70 90.07 248.66 91.42 242.11 94.25 C 235.11 96.69 228.21 100.98 224.86 107.84 C 223.36 110.80 225.90 113.86 225.19 116.92 C 224.32 121.98 224.91 127.11 225.96 132.10 C 227.36 140.17 233.45 146.35 239.52 151.37 C 243.83 155.19 250.27 154.97 255.46 153.44 C 257.88 151.26 260.05 148.77 262.33 146.44 C 266.32 137.36 274.06 130.75 280.94 123.89 C 286.63 120.01 291.92 112.79 299.64 114.44 C 305.30 117.52 308.23 123.83 310.14 129.72 C 312.99 136.16 315.66 142.67 318.08 149.27 C 322.86 146.68 321.24 140.42 321.60 135.97 C 322.27 129.04 318.30 122.94 317.81 116.18 C 317.24 112.51 319.37 109.05 318.65 105.37 C 319.34 106.54 320.06 107.70 320.78 108.86 C 318.87 110.20 318.33 112.21 319.00 114.43 C 320.62 124.33 322.18 134.24 323.50 144.18 C 323.58 144.68 323.73 145.69 323.81 146.20 C 324.20 148.91 324.59 151.63 324.97 154.35 C 322.98 158.79 322.48 163.85 319.47 167.81 C 317.79 166.01 316.06 164.26 314.27 162.56 C 315.27 161.28 316.62 160.11 316.69 158.34 C 307.06 161.43 296.97 162.62 286.93 163.29 C 280.53 163.69 274.36 165.48 268.27 167.36 C 265.73 176.83 262.96 186.25 261.42 195.96 C 259.96 205.51 257.42 215.24 259.02 224.94 C 261.54 229.42 264.62 233.62 267.28 238.04 C 276.01 236.01 285.26 234.74 292.95 229.80 C 298.86 225.72 305.67 223.25 312.02 219.96 C 316.37 217.69 323.53 218.16 325.44 223.42 C 327.19 227.60 329.26 231.65 331.08 235.81 C 325.73 238.66 320.10 240.92 314.73 243.73 C 305.53 247.99 296.82 253.22 287.54 257.34 C 280.69 260.36 274.38 264.43 267.81 267.99 C 262.41 270.46 256.71 272.43 251.79 275.83 C 251.54 276.80 251.33 277.78 251.18 278.77 C 255.83 278.52 260.28 277.01 264.88 276.34 C 277.19 274.46 289.57 272.92 301.81 270.64 C 305.76 269.46 309.93 269.57 313.93 268.64 C 319.26 267.68 323.73 264.34 329.02 263.22 C 329.92 260.74 331.56 258.66 334.29 258.24 C 335.46 264.51 336.71 270.77 338.04 277.01 C 341.06 288.97 341.49 301.35 342.69 313.57 C 344.32 337.11 343.44 360.80 340.31 384.18 C 340.40 378.11 340.90 372.05 341.12 365.99 C 341.21 363.24 340.89 360.19 338.87 358.14 C 336.57 355.87 333.19 355.39 330.11 355.20 C 322.06 354.69 314.00 354.19 305.96 353.60 C 302.54 353.40 298.65 353.53 296.02 356.01 C 289.34 361.96 283.29 368.58 276.86 374.78 C 273.21 378.15 269.39 381.36 266.20 385.18 C 263.37 388.66 263.87 393.93 266.69 397.26 C 271.75 403.25 276.70 409.33 281.78 415.30 C 283.31 417.31 285.92 417.69 288.21 418.27 C 287.36 442.18 286.47 466.09 285.53 489.99 C 285.47 492.82 285.69 496.09 287.94 498.14 C 290.00 500.27 293.08 500.88 295.93 501.01 C 304.97 501.48 314.01 501.91 323.04 502.44 C 326.23 502.56 329.77 502.41 332.44 500.44 C 335.17 498.21 335.34 494.36 335.66 491.12 C 336.21 478.21 336.82 465.30 337.28 452.38 C 341.54 466.44 350.31 479.11 361.87 488.16 C 375.05 498.56 392.22 503.76 408.96 502.35 C 421.22 501.05 433.29 496.73 443.10 489.16 C 457.42 478.50 467.46 462.46 471.09 445.01 C 475.16 428.80 473.00 411.50 466.77 396.14 C 459.85 379.45 446.77 365.30 430.26 357.82 C 417.10 352.05 402.04 350.10 388.05 353.82 C 369.60 358.07 353.59 370.72 344.16 387.01 C 344.93 377.98 346.53 369.03 346.89 359.97 C 348.66 335.27 346.98 310.47 343.84 285.95 C 342.84 279.59 341.07 273.37 339.90 267.04 C 344.63 272.45 352.40 272.06 358.87 273.24 C 362.73 274.89 366.88 275.56 370.98 276.40 C 389.70 280.99 407.82 287.72 425.43 295.50 C 435.20 300.32 445.41 304.36 454.44 310.55 C 461.71 314.72 467.84 320.55 475.20 324.59 C 475.87 324.25 477.22 323.59 477.89 323.25 C 480.16 325.58 483.87 326.90 485.08 330.02 C 488.66 363.44 494.21 396.66 496.90 430.18 C 498.08 444.43 499.75 458.65 500.28 472.95 C 500.97 485.96 501.11 498.98 501.40 512.00 L 201.45 512.00 C 203.28 502.39 207.71 493.51 209.47 483.89 C 210.90 477.25 212.51 470.65 213.97 464.01 C 215.89 454.23 220.40 445.25 223.64 435.88 C 227.16 425.57 231.21 415.45 235.40 405.39 C 237.36 400.65 239.98 396.21 242.90 392.01 C 249.33 382.60 254.78 372.59 260.92 363.00 C 267.45 351.48 273.53 339.70 280.23 328.27 C 283.50 322.80 285.63 316.78 288.07 310.92 C 291.42 302.53 295.61 294.49 298.65 285.97 C 295.15 287.51 292.58 290.40 289.62 292.71 C 282.26 298.59 275.78 305.49 268.34 311.27 C 259.79 317.32 252.17 324.58 243.40 330.34 C 238.81 333.42 234.45 336.83 229.80 339.82 C 226.91 341.91 223.24 340.27 219.99 340.47 C 217.58 341.76 215.64 343.78 213.35 345.26 C 210.91 345.26 208.41 345.42 206.05 344.67 C 205.87 344.16 205.52 343.14 205.34 342.63 C 198.31 340.31 192.97 334.84 188.51 329.16 C 187.96 328.69 187.40 328.24 186.83 327.80 C 186.93 325.94 186.21 324.00 184.38 323.24 C 183.57 320.99 182.90 318.70 182.12 316.44 C 184.69 315.76 187.58 315.45 189.54 313.46 C 190.04 312.24 189.39 310.90 189.35 309.65 C 186.25 309.19 183.19 309.96 180.16 310.52 C 179.91 309.26 179.67 308.00 179.43 306.74 C 180.13 306.68 181.53 306.54 182.23 306.47 C 182.50 303.69 183.83 300.73 182.60 298.01 C 181.51 295.14 178.80 293.37 176.29 291.85 C 176.44 285.45 176.00 278.29 180.27 272.99 C 181.66 271.31 181.78 269.11 181.83 267.04 C 182.75 239.98 183.95 212.93 184.79 185.87 C 184.66 183.52 186.98 182.25 188.43 180.85 C 188.82 199.26 188.02 217.70 188.87 236.09 C 190.65 242.32 190.37 248.76 190.41 255.17 C 190.93 249.81 190.54 244.43 190.59 239.06 C 190.42 235.52 192.80 232.50 192.73 228.99 C 192.85 212.26 192.65 195.52 192.80 178.79 C 194.45 178.22 196.10 177.64 197.75 177.07 C 198.79 182.48 200.85 188.64 197.74 193.75 C 195.66 197.13 196.40 201.25 196.23 205.02 C 195.83 213.72 198.14 222.27 200.72 230.50 C 201.55 234.53 201.38 238.72 202.60 242.69 C 204.17 247.72 202.65 253.03 203.47 258.17 C 203.91 260.79 204.19 263.47 203.57 266.10 C 202.39 270.77 204.63 275.53 203.22 280.16 C 201.93 285.74 203.16 291.45 204.98 296.75 C 206.66 267.06 201.80 237.59 200.83 207.97 C 201.33 195.30 202.17 182.65 202.34 169.97 C 202.25 167.02 203.97 164.55 205.55 162.22 C 204.46 160.96 203.39 159.67 202.36 158.37 C 203.84 152.89 206.69 147.35 205.39 141.55 C 205.34 141.24 205.23 140.63 205.18 140.32 C 203.84 131.47 200.93 122.90 200.45 113.91 C 200.57 112.02 198.88 110.23 196.98 110.34 C 189.88 110.15 182.77 111.26 175.69 110.44 C 176.23 106.62 175.67 102.75 176.27 98.94 C 177.13 92.65 176.16 86.20 177.86 80.02 C 179.86 72.20 181.62 64.05 186.15 57.23 C 190.36 51.16 194.03 44.54 199.84 39.79 C 205.66 34.34 213.16 31.23 220.78 29.25 C 229.51 27.14 238.30 25.03 247.29 24.36 Z" />
<path fill="#f5e5c1" opacity="1.00" d=" M 153.95 110.86 C 161.19 110.78 168.44 110.12 175.69 110.44 C 182.77 111.26 189.88 110.15 196.98 110.34 C 198.88 110.23 200.57 112.02 200.45 113.91 C 200.93 122.90 203.84 131.47 205.18 140.32 C 197.70 140.51 190.36 142.10 182.90 142.62 C 151.79 149.38 120.86 158.00 89.01 160.49 C 78.57 160.38 68.06 160.07 57.80 157.98 C 49.03 157.24 41.14 152.87 33.95 148.08 C 47.91 136.56 62.38 125.67 76.57 114.43 C 87.07 113.96 97.57 113.20 108.09 113.21 C 114.02 112.32 120.01 112.59 125.98 112.40 C 135.26 111.24 144.65 111.92 153.95 110.86 Z" />
<path fill="#f5e5c1" opacity="1.00" d=" M 341.80 112.30 C 346.55 111.65 351.01 114.05 355.73 113.44 C 355.90 121.01 353.84 128.43 353.43 135.97 C 352.23 140.88 352.83 146.16 350.92 150.90 C 346.65 154.94 341.69 158.30 337.77 162.69 C 335.30 159.57 336.92 155.54 337.17 151.99 C 338.50 138.74 340.38 125.54 341.80 112.30 Z" />
<path fill="#f5e5c1" opacity="1.00" d=" M 319.00 114.43 C 325.52 115.30 332.13 115.60 338.71 115.67 C 338.75 120.86 337.61 125.94 337.16 131.09 C 336.36 136.23 336.43 141.46 335.30 146.55 C 331.38 145.71 327.41 145.09 323.50 144.18 C 322.18 134.24 320.62 124.33 319.00 114.43 Z" />
<path fill="#f4722b" opacity="1.00" d=" M 357.53 118.05 C 357.86 115.54 360.77 115.17 362.79 115.30 C 368.22 115.56 373.59 116.55 378.97 117.29 C 383.73 117.37 388.41 118.25 393.11 118.91 C 417.57 121.62 442.05 124.58 466.52 126.86 C 467.26 127.08 467.90 127.48 468.44 128.06 C 469.13 132.69 467.60 137.28 467.74 141.92 C 467.51 148.05 468.23 154.98 463.90 159.96 C 458.83 163.80 452.42 166.13 446.02 165.40 C 418.69 161.00 391.32 156.78 363.94 152.59 C 360.28 152.34 356.74 151.13 353.04 151.29 C 353.31 149.47 353.47 147.64 353.28 145.80 C 352.68 141.80 354.67 138.02 354.43 134.02 C 354.29 128.45 357.19 123.53 357.53 118.05 Z" />
<path fill="#3e3e3e" opacity="1.00" d=" M 369.35 123.56 C 372.90 122.98 377.14 123.38 379.48 126.48 C 383.12 131.62 379.92 140.86 372.95 140.66 C 368.99 141.54 365.37 138.91 363.58 135.56 C 362.09 130.80 364.29 125.01 369.35 123.56 Z" />
<path fill="#3e3e3e" opacity="1.00" d=" M 445.74 136.77 C 447.19 136.38 448.62 135.96 450.07 135.53 C 453.47 136.66 456.95 140.19 455.02 143.99 C 454.44 146.86 451.35 147.54 449.04 148.49 C 446.70 147.28 443.81 145.93 443.40 142.99 C 442.81 140.59 444.38 138.55 445.74 136.77 Z" />
<path fill="#f5e5c1" opacity="1.00" d=" M 182.75 144.12 C 190.29 143.24 197.85 142.50 205.39 141.55 C 206.69 147.35 203.84 152.89 202.36 158.37 C 196.03 159.01 190.28 161.83 184.32 163.82 C 174.73 167.36 165.07 170.69 155.49 174.27 C 145.97 177.40 136.34 180.16 126.85 183.37 C 122.97 184.92 118.75 184.46 114.71 185.12 C 107.39 186.13 99.95 186.13 92.68 187.52 C 92.08 185.94 91.50 184.36 90.91 182.79 C 90.64 182.66 90.08 182.41 89.81 182.29 C 88.54 184.35 87.28 186.41 86.03 188.48 C 78.38 188.14 70.81 186.86 63.18 186.30 C 56.16 185.37 49.61 182.41 42.67 181.09 C 38.56 180.33 35.49 177.25 31.94 175.27 C 25.73 171.67 20.65 166.44 14.31 163.04 C 20.46 158.66 26.11 153.62 32.25 149.24 C 35.67 149.26 37.44 153.20 40.56 154.23 C 43.75 155.21 46.77 156.58 49.73 158.07 C 55.54 159.29 61.49 159.79 67.29 161.12 C 73.81 161.94 80.43 161.14 86.94 162.27 C 95.96 161.53 104.93 160.10 113.93 159.09 C 137.01 154.77 159.88 149.42 182.75 144.12 Z" />
<path fill="#f5e5c1" opacity="1.00" d=" M 323.81 146.20 C 327.47 146.38 331.11 146.88 334.72 147.55 C 335.53 151.51 334.33 155.44 334.15 159.40 C 332.70 159.30 331.26 159.20 329.82 159.11 C 329.76 157.56 329.69 156.01 329.62 154.46 C 328.07 154.42 326.51 154.38 324.97 154.35 C 324.59 151.63 324.20 148.91 323.81 146.20 Z" />
<path fill="#f4722b" opacity="1.00" d=" M 294.23 194.09 C 301.28 191.73 308.82 191.23 316.10 189.86 C 318.51 189.59 321.41 188.97 323.18 191.16 C 315.96 193.64 308.28 194.27 301.03 196.64 C 297.60 197.82 293.40 198.01 291.02 201.10 C 289.12 206.54 284.36 210.13 280.97 214.60 C 279.18 214.78 275.96 213.23 277.85 211.15 C 283.53 205.69 288.38 199.39 294.23 194.09 Z" />
<path fill="#f4722b" opacity="1.00" d=" M 171.40 260.33 C 173.18 259.14 174.84 255.85 177.27 257.66 C 179.99 260.34 180.37 264.66 178.22 267.79 C 174.50 272.64 170.56 277.48 168.45 283.29 C 165.49 291.39 165.29 300.10 164.30 308.58 C 160.11 310.17 160.44 315.28 159.41 318.93 C 158.36 321.69 161.45 322.13 163.34 322.78 C 163.35 324.03 163.35 325.29 163.35 326.55 C 161.42 326.45 159.49 326.37 157.55 326.32 C 156.51 328.52 155.54 330.76 154.66 333.04 C 154.94 333.65 155.49 334.88 155.77 335.49 C 157.76 335.63 159.75 335.55 161.70 335.13 C 162.78 337.28 162.98 339.67 162.67 342.04 C 161.54 357.00 163.03 372.02 161.75 386.97 C 161.93 396.31 162.62 405.64 162.54 414.98 C 162.28 421.12 160.61 427.08 159.42 433.08 C 157.78 440.24 157.01 447.54 155.76 454.77 C 152.29 473.88 148.59 492.96 144.76 512.00 L 20.02 512.00 C 22.42 500.18 25.83 488.59 28.96 476.95 C 33.78 459.58 38.38 442.14 43.98 425.00 C 51.53 405.49 57.25 385.34 63.49 365.38 C 65.50 359.77 65.73 353.78 66.89 347.99 C 67.55 343.80 70.62 340.59 71.68 336.54 C 83.58 327.06 95.40 317.44 107.98 308.87 C 116.20 302.99 124.33 296.61 133.79 292.86 C 129.26 301.89 126.31 311.58 122.86 321.05 C 113.55 347.78 110.00 375.98 106.63 403.94 C 105.41 414.91 106.11 425.94 105.39 436.93 C 105.05 443.74 103.95 450.67 105.83 457.36 C 106.71 454.35 106.41 451.17 106.73 448.08 C 107.77 438.07 109.26 428.07 109.39 417.99 C 110.08 402.55 113.05 387.35 115.16 372.07 C 118.04 351.69 123.27 331.67 130.21 312.31 C 133.22 303.42 136.44 294.48 141.62 286.59 C 150.28 276.50 160.94 268.44 171.40 260.33 Z" />
<path fill="#f5e5c1" opacity="1.00" d=" M 178.22 267.79 C 178.78 267.76 179.91 267.70 180.48 267.67 C 180.64 269.44 180.70 271.24 180.27 272.99 C 176.00 278.29 176.44 285.45 176.29 291.85 C 175.40 291.74 173.63 291.51 172.74 291.39 C 169.61 293.23 169.76 297.06 171.14 299.99 C 168.56 302.61 166.99 306.06 164.30 308.58 C 165.29 300.10 165.49 291.39 168.45 283.29 C 170.56 277.48 174.50 272.64 178.22 267.79 Z" />
<path fill="#f5e5c1" opacity="1.00" d=" M 289.62 292.71 C 292.58 290.40 295.15 287.51 298.65 285.97 C 295.61 294.49 291.42 302.53 288.07 310.92 C 285.63 316.78 283.50 322.80 280.23 328.27 C 273.53 339.70 267.45 351.48 260.92 363.00 C 254.78 372.59 249.33 382.60 242.90 392.01 C 239.98 396.21 237.36 400.65 235.40 405.39 C 231.21 415.45 227.16 425.57 223.64 435.88 C 220.40 445.25 215.89 454.23 213.97 464.01 C 212.51 470.65 210.90 477.25 209.47 483.89 C 207.71 493.51 203.28 502.39 201.45 512.00 L 198.38 512.00 C 198.83 499.02 198.44 486.03 198.82 473.05 C 198.85 466.23 201.91 459.87 201.89 453.07 C 202.62 434.94 204.53 416.90 206.50 398.88 C 207.54 394.64 210.10 391.00 212.45 387.40 C 215.41 383.04 218.29 378.62 221.42 374.38 C 224.19 380.24 226.37 386.63 231.42 391.01 C 228.49 387.25 226.44 382.93 223.96 378.90 C 219.51 371.34 217.40 362.68 216.28 354.06 C 216.19 351.69 214.78 349.79 213.36 348.04 C 213.36 347.34 213.35 345.96 213.35 345.26 C 215.64 343.78 217.58 341.76 219.99 340.47 C 223.24 340.27 226.91 341.91 229.80 339.82 C 234.45 336.83 238.81 333.42 243.40 330.34 C 252.17 324.58 259.79 317.32 268.34 311.27 C 275.78 305.49 282.26 298.59 289.62 292.71 Z" />
<path fill="#3e3e3e" opacity="1.00" d=" M 171.14 299.99 C 169.76 297.06 169.61 293.23 172.74 291.39 C 173.63 291.51 175.40 291.74 176.29 291.85 C 178.80 293.37 181.51 295.14 182.60 298.01 C 183.83 300.73 182.50 303.69 182.23 306.47 C 181.53 306.54 180.13 306.68 179.43 306.74 C 178.93 308.92 179.29 312.97 175.99 312.59 C 173.45 312.83 172.63 309.81 171.94 307.96 C 169.42 313.06 166.95 318.34 163.34 322.78 C 161.45 322.13 158.36 321.69 159.41 318.93 C 160.44 315.28 160.11 310.17 164.30 308.58 C 166.99 306.06 168.56 302.61 171.14 299.99 Z" />
<path fill="#f5e5c1" opacity="1.00" d=" M 175.99 312.59 C 179.29 312.97 178.93 308.92 179.43 306.74 C 179.67 308.00 179.91 309.26 180.16 310.52 C 178.94 312.97 179.74 315.17 182.12 316.44 C 182.90 318.70 183.57 320.99 184.38 323.24 C 186.21 324.00 186.93 325.94 186.83 327.80 C 185.63 328.51 185.02 329.58 185.00 331.01 C 186.49 330.94 187.66 330.32 188.51 329.16 C 192.97 334.84 198.31 340.31 205.34 342.63 C 205.52 343.14 205.87 344.16 206.05 344.67 C 204.69 344.29 203.36 343.70 201.93 343.66 C 198.57 344.44 199.00 348.67 196.62 350.59 C 192.68 354.47 188.93 358.66 186.81 363.86 C 182.22 371.38 178.28 379.48 171.90 385.72 C 175.99 382.28 179.79 378.49 182.71 373.98 C 184.63 382.05 186.13 390.58 184.76 398.85 C 184.44 401.89 180.92 403.13 180.39 406.12 C 176.70 418.06 171.95 429.67 168.81 441.78 C 164.71 458.21 158.84 474.21 156.12 490.97 C 155.18 498.22 151.50 504.74 150.54 512.00 L 144.76 512.00 C 148.59 492.96 152.29 473.88 155.76 454.77 C 157.01 447.54 157.78 440.24 159.42 433.08 C 160.61 427.08 162.28 421.12 162.54 414.98 C 162.62 405.64 161.93 396.31 161.75 386.97 C 163.03 372.02 161.54 357.00 162.67 342.04 C 162.98 339.67 162.78 337.28 161.70 335.13 C 161.01 332.57 162.07 330.15 163.17 327.91 C 163.22 327.57 163.30 326.89 163.35 326.55 C 163.35 325.29 163.35 324.03 163.34 322.78 C 166.95 318.34 169.42 313.06 171.94 307.96 C 172.63 309.81 173.45 312.83 175.99 312.59 Z" />
<path fill="#3e3e3e" opacity="1.00" d=" M 180.16 310.52 C 183.19 309.96 186.25 309.19 189.35 309.65 C 189.39 310.90 190.04 312.24 189.54 313.46 C 187.58 315.45 184.69 315.76 182.12 316.44 C 179.74 315.17 178.94 312.97 180.16 310.52 Z" />
<path fill="#3e3e3e" opacity="1.00" d=" M 184.45 316.47 C 186.67 315.59 189.25 314.92 191.61 315.46 C 193.98 317.61 191.32 321.09 188.85 321.77 C 187.96 320.85 187.09 319.94 186.20 319.03 C 185.97 319.71 185.52 321.07 185.29 321.76 C 183.67 320.48 182.51 318.08 184.45 316.47 Z" />
<path fill="#3e3e3e" opacity="1.00" d=" M 165.25 324.70 C 165.04 320.69 169.80 319.46 172.99 319.36 C 170.71 321.49 169.04 325.62 165.25 324.70 Z" />
<path fill="#3e3e3e" opacity="1.00" d=" M 157.55 326.32 C 159.49 326.37 161.42 326.45 163.35 326.55 C 163.30 326.89 163.22 327.57 163.17 327.91 C 162.07 330.15 161.01 332.57 161.70 335.13 C 159.75 335.55 157.76 335.63 155.77 335.49 C 155.49 334.88 154.94 333.65 154.66 333.04 C 155.54 330.76 156.51 328.52 157.55 326.32 Z" />
<path fill="#3e3e3e" opacity="1.00" d=" M 142.44 327.38 C 146.70 327.10 145.75 332.23 145.53 334.98 C 142.62 333.55 142.54 330.19 142.44 327.38 Z" />
<path fill="#3e3e3e" opacity="1.00" d=" M 185.00 331.01 C 185.02 329.58 185.63 328.51 186.83 327.80 C 187.40 328.24 187.96 328.69 188.51 329.16 C 187.66 330.32 186.49 330.94 185.00 331.01 Z" />
<path fill="#3e3e3e" opacity="1.00" d=" M 141.40 341.21 C 142.63 341.20 143.81 341.40 144.96 341.83 C 144.13 343.19 142.75 343.69 141.26 343.85 C 141.29 343.19 141.36 341.87 141.40 341.21 Z" />
<path fill="#3e3e3e" opacity="1.00" d=" M 196.62 350.59 C 199.00 348.67 198.57 344.44 201.93 343.66 C 203.36 343.70 204.69 344.29 206.05 344.67 C 208.41 345.42 210.91 345.26 213.35 345.26 C 213.35 345.96 213.36 347.34 213.36 348.04 C 214.78 349.79 216.19 351.69 216.28 354.06 C 217.40 362.68 219.51 371.34 223.96 378.90 C 226.44 382.93 228.49 387.25 231.42 391.01 C 226.37 386.63 224.19 380.24 221.42 374.38 C 218.29 378.62 215.41 383.04 212.45 387.40 C 210.10 391.00 207.54 394.64 206.50 398.88 C 204.53 416.90 202.62 434.94 201.89 453.07 C 201.91 459.87 198.85 466.23 198.82 473.05 C 198.44 486.03 198.83 499.02 198.38 512.00 L 150.54 512.00 C 151.50 504.74 155.18 498.22 156.12 490.97 C 158.84 474.21 164.71 458.21 168.81 441.78 C 171.95 429.67 176.70 418.06 180.39 406.12 C 180.92 403.13 184.44 401.89 184.76 398.85 C 186.13 390.58 184.63 382.05 182.71 373.98 C 179.79 378.49 175.99 382.28 171.90 385.72 C 178.28 379.48 182.22 371.38 186.81 363.86 C 188.93 358.66 192.68 354.47 196.62 350.59 Z" />
<path fill="#3e3e3e" opacity="1.00" d=" M 138.49 348.59 C 139.20 348.28 140.63 347.66 141.34 347.34 C 141.96 350.55 141.73 353.99 140.08 356.88 C 137.49 354.97 137.78 351.35 138.49 348.59 Z" />
<path fill="#f5e5c1" opacity="1.00" d=" M 393.52 360.67 C 405.80 358.69 418.72 360.52 429.75 366.38 C 443.83 373.78 454.78 386.64 460.38 401.48 C 467.04 418.74 466.79 438.60 459.52 455.63 C 452.70 471.84 439.23 485.42 422.55 491.34 C 408.89 496.14 393.37 495.67 380.09 489.85 C 364.54 483.08 352.22 469.67 346.10 453.93 C 335.42 427.30 342.25 394.14 364.05 375.08 C 372.33 367.73 382.59 362.55 393.52 360.67 Z" />
<path fill="#f5e5c1" opacity="1.00" d=" M 285.44 377.43 C 290.86 372.08 296.11 366.54 301.78 361.44 C 312.26 362.01 322.75 362.68 333.21 363.50 C 331.18 407.17 329.51 450.86 327.44 494.53 C 316.11 494.23 304.80 493.28 293.47 492.96 C 294.48 462.60 295.89 432.25 296.74 401.89 C 293.83 404.74 290.97 407.63 288.22 410.64 C 282.77 404.07 277.33 397.49 271.82 390.98 C 276.05 386.16 281.00 382.05 285.44 377.43 Z" />
<path fill="#3e3e3e" opacity="1.00" d=" M 134.73 372.61 C 136.04 372.34 137.38 372.29 138.72 372.30 C 138.65 372.86 138.51 373.97 138.44 374.52 C 137.11 374.57 135.78 374.61 134.46 374.65 C 134.53 374.14 134.66 373.12 134.73 372.61 Z" />
<path fill="#3e3e3e" opacity="1.00" d=" M 396.58 401.72 C 405.62 399.34 415.56 402.28 422.18 408.80 C 432.35 418.73 434.96 434.70 430.79 447.97 C 427.60 457.32 420.31 465.44 410.86 468.69 C 403.97 471.29 396.06 470.02 389.88 466.21 C 381.03 460.98 375.33 451.26 374.22 441.14 C 373.44 433.24 374.17 424.99 377.79 417.82 C 381.34 410.09 388.27 403.85 396.58 401.72 Z" />
<path fill="#f4722b" opacity="1.00" d=" M 398.28 409.42 C 403.09 408.46 408.37 408.70 412.60 411.43 C 421.32 416.60 425.33 427.24 424.65 437.05 C 424.84 446.46 419.19 455.49 411.04 460.00 C 405.98 462.95 399.34 462.76 394.39 459.67 C 387.60 455.47 382.62 448.10 382.11 440.04 C 381.75 433.86 381.75 427.33 384.71 421.72 C 387.24 415.94 392.18 411.20 398.28 409.42 Z" />
</svg>
