<?xml version="1.0" encoding="UTF-8" ?>
<!DOCTYPE svg PUBLIC "-//W3C//DTD SVG 1.1//EN" "http://www.w3.org/Graphics/SVG/1.1/DTD/svg11.dtd">
<svg width="512pt" height="512pt" viewBox="0 0 512 512" version="1.1" xmlns="http://www.w3.org/2000/svg">
<path fill="#3e3e3e" opacity="1.00" d=" M 0.00 0.00 L 512.00 0.00 L 512.00 512.00 L 0.00 512.00 L 0.00 0.00 Z" />
<path fill="#f4722b" opacity="1.00" d=" M 246.95 26.98 C 248.93 22.76 256.13 22.56 258.15 26.82 C 264.87 38.83 272.60 50.92 274.12 64.92 C 274.39 75.27 274.23 85.63 274.20 95.99 C 272.10 97.30 269.98 98.59 267.85 99.85 C 267.83 88.22 267.76 76.59 267.91 64.96 C 268.11 61.01 265.94 57.56 264.96 53.85 C 263.71 49.29 262.24 44.79 260.69 40.33 C 259.28 36.39 258.77 31.70 255.14 29.06 C 256.25 40.19 261.07 50.66 261.48 61.92 C 261.72 75.35 261.36 88.80 261.66 102.23 C 259.98 102.40 258.30 102.57 256.63 102.73 C 256.72 93.15 256.67 83.57 256.66 73.99 C 257.41 59.74 255.81 45.48 253.55 31.42 C 253.07 31.38 252.11 31.30 251.64 31.25 C 252.32 41.18 252.52 51.14 253.40 61.06 C 253.62 73.02 253.44 84.99 253.50 96.96 C 253.42 99.19 253.74 102.24 251.20 103.26 C 243.49 102.87 236.01 100.30 229.62 95.98 C 229.55 87.32 229.25 78.66 229.23 69.99 C 229.16 62.31 230.99 54.56 234.84 47.88 C 238.83 40.89 242.66 33.79 246.95 26.98 Z" />
<path fill="#f4722b" opacity="1.00" d=" M 78.71 42.45 C 79.94 39.45 83.88 39.02 86.67 39.39 C 90.72 41.86 93.22 46.16 96.52 49.48 C 101.93 56.12 108.55 62.07 111.80 70.17 C 114.97 77.04 115.71 84.67 117.08 92.02 C 117.74 96.44 118.83 100.79 119.35 105.24 C 115.96 110.37 110.11 113.25 104.59 115.57 C 102.44 116.59 100.06 116.78 97.72 116.70 C 94.89 105.91 93.18 94.88 90.95 83.96 C 88.34 71.31 87.78 58.32 85.05 45.69 C 82.77 49.10 84.02 53.25 84.17 57.03 C 84.53 64.75 85.80 72.37 86.65 80.04 C 89.38 92.53 92.00 105.06 94.06 117.69 C 92.49 117.79 90.93 117.88 89.36 117.97 C 87.31 106.94 85.08 95.95 82.91 84.95 C 79.92 72.06 81.80 58.76 82.13 45.70 C 80.52 46.29 79.62 47.40 79.44 49.04 C 77.92 58.67 77.23 68.41 75.79 78.05 C 75.28 81.06 76.24 84.04 76.80 86.97 C 78.87 96.95 80.78 106.97 82.67 116.99 C 80.38 116.10 78.10 115.21 75.84 114.28 C 73.84 103.79 71.60 93.34 69.78 82.83 C 69.67 74.83 70.54 66.70 73.21 59.12 C 75.12 53.59 76.41 47.84 78.71 42.45 Z" />
<path fill="#f4722b" opacity="1.00" d=" M 412.22 41.13 C 414.49 38.19 418.63 39.18 421.44 40.66 C 424.46 45.28 425.22 50.96 427.11 56.09 C 430.18 64.68 431.86 73.85 431.41 82.98 C 429.70 93.51 427.40 103.93 425.36 114.40 C 423.10 115.28 420.81 116.09 418.55 116.94 C 420.92 104.98 423.28 93.01 425.55 81.04 C 424.51 69.54 423.21 57.98 421.38 46.55 C 420.85 46.40 419.79 46.09 419.26 45.93 C 419.37 51.53 419.40 57.14 419.97 62.71 C 420.84 71.35 419.52 80.03 417.66 88.45 C 415.78 98.27 413.64 108.03 412.06 117.90 C 410.39 117.84 408.73 117.77 407.08 117.70 C 409.52 104.79 411.91 91.86 414.82 79.04 C 415.83 69.36 417.30 59.70 417.55 49.95 C 417.63 48.51 417.15 47.26 416.10 46.21 C 414.58 53.14 413.99 60.22 412.86 67.22 C 411.56 80.03 408.54 92.57 406.17 105.21 C 405.33 108.97 405.08 112.97 403.21 116.41 C 400.49 117.63 397.70 115.82 395.16 114.93 C 389.96 112.90 385.44 109.54 381.63 105.50 C 385.23 91.37 384.73 75.68 393.24 63.23 C 399.23 55.59 405.69 48.31 412.22 41.13 Z" />
<path fill="#f5e5c1" opacity="1.00" d=" M 228.61 102.05 C 234.60 107.55 243.06 107.65 250.66 108.66 C 251.12 120.83 251.72 133.02 250.72 145.18 C 244.90 145.34 239.19 143.57 233.46 143.61 C 233.34 145.32 234.19 146.65 235.87 147.07 C 240.60 148.67 245.63 149.29 250.62 149.41 C 251.39 151.75 252.17 154.09 252.72 156.50 C 255.73 170.14 258.37 183.86 261.58 197.46 C 247.72 198.30 233.16 197.38 220.45 191.36 C 218.80 194.01 220.65 196.71 223.25 197.69 C 235.71 202.22 249.25 204.65 262.47 202.48 C 262.51 253.67 262.47 304.85 262.49 356.04 C 262.81 357.87 261.83 359.38 260.29 360.27 C 250.70 366.88 243.31 376.31 238.20 386.71 C 232.95 375.96 225.14 366.46 215.34 359.56 C 215.21 307.02 215.42 254.48 215.23 201.94 C 215.39 197.61 215.15 193.27 215.45 188.94 C 216.49 182.47 219.00 176.37 221.30 170.27 C 224.35 161.39 226.71 152.24 228.33 142.99 C 228.67 129.35 228.13 115.69 228.61 102.05 Z" />
<path fill="#f5e5c1" opacity="1.00" d=" M 269.53 105.14 C 271.14 104.16 272.74 103.14 274.33 102.11 C 274.95 115.40 274.18 128.74 274.72 142.03 C 277.83 154.71 282.14 167.07 285.22 179.76 C 285.89 183.63 288.73 186.93 288.39 190.98 C 287.97 243.53 288.30 296.08 288.18 348.64 C 285.66 349.20 283.14 349.79 280.63 350.39 C 280.73 324.56 280.77 298.73 280.83 272.90 C 281.50 254.97 281.08 237.00 281.22 219.05 C 281.07 212.24 281.68 205.37 280.72 198.60 C 282.82 196.90 285.18 195.39 286.61 193.03 C 284.91 190.22 281.88 192.90 279.57 193.47 C 276.04 177.79 272.10 162.18 269.06 146.40 C 269.70 146.10 270.98 145.50 271.62 145.20 C 271.59 144.34 271.57 143.49 271.55 142.64 C 270.78 142.55 269.25 142.38 268.48 142.29 C 268.70 129.90 269.20 117.53 269.53 105.14 Z" />
<path fill="#f5e5c1" opacity="1.00" d=" M 256.53 108.86 C 257.25 108.57 258.71 107.97 259.43 107.67 C 259.10 119.82 259.64 131.98 259.39 144.14 C 258.63 144.20 257.12 144.31 256.37 144.37 C 255.86 132.53 256.64 120.70 256.53 108.86 Z" />
<path fill="#f5e5c1" opacity="1.00" d=" M 121.67 111.86 C 123.93 120.40 125.14 129.18 127.05 137.81 C 128.48 143.95 128.68 150.48 131.60 156.18 C 133.96 161.21 136.04 166.37 138.67 171.26 C 142.74 179.22 148.52 186.30 151.47 194.81 C 154.79 208.77 156.99 222.95 159.85 237.01 C 167.18 273.96 174.18 310.98 181.64 347.91 C 165.27 347.48 148.82 353.33 136.59 364.27 C 127.34 316.85 118.07 269.43 108.79 222.02 C 108.46 220.25 108.22 218.46 107.98 216.68 C 121.54 216.04 134.62 211.12 146.00 203.90 C 148.17 202.62 147.68 199.92 147.72 197.82 C 141.85 200.92 136.09 204.34 129.77 206.49 C 122.59 208.89 115.21 210.76 107.68 211.58 C 107.65 202.72 108.46 193.88 108.30 185.02 C 108.63 177.42 107.84 169.73 109.31 162.22 C 114.64 161.05 119.97 159.31 124.53 156.27 C 124.50 155.39 125.70 152.46 123.81 153.34 C 118.59 155.08 113.47 157.36 107.93 158.04 C 105.74 146.09 102.80 134.24 101.39 122.17 C 108.69 120.01 116.54 117.93 121.67 111.86 Z" />
<path fill="#f5e5c1" opacity="1.00" d=" M 379.62 111.81 C 381.71 113.92 383.87 116.03 386.54 117.40 C 390.66 119.73 395.47 120.35 399.70 122.43 C 399.74 123.58 399.69 124.72 399.53 125.86 C 397.64 136.63 395.57 147.37 393.25 158.06 C 387.44 157.20 382.02 154.92 376.53 152.97 C 376.48 154.06 376.44 155.14 376.41 156.22 C 381.35 159.04 386.66 161.17 392.23 162.39 C 393.18 178.77 393.26 195.19 393.52 211.60 C 381.06 210.05 368.72 206.50 357.86 200.11 C 356.43 199.22 354.92 198.49 353.34 197.95 C 353.27 200.27 353.39 202.97 355.72 204.22 C 367.12 211.22 380.05 216.16 393.53 216.70 C 384.04 265.16 374.58 313.62 365.10 362.08 C 364.92 364.53 362.57 365.61 360.90 366.97 C 356.88 369.81 354.38 374.18 352.10 378.43 C 344.22 366.36 332.54 356.88 319.07 351.74 C 326.68 311.81 334.63 271.94 342.38 232.04 C 344.60 221.43 346.17 210.70 348.61 200.13 C 349.60 192.57 353.84 186.04 357.73 179.68 C 362.73 171.97 366.38 163.51 370.13 155.15 C 371.01 153.20 371.72 151.17 372.12 149.07 C 374.59 136.64 376.60 124.12 379.62 111.81 Z" />
<path fill="#f5e5c1" opacity="1.00" d=" M 76.98 120.35 C 78.72 121.14 80.47 121.89 82.22 122.65 C 85.19 134.50 87.23 146.56 90.33 158.38 C 89.32 158.88 88.32 159.38 87.32 159.88 C 87.43 160.48 87.65 161.68 87.77 162.28 C 88.49 162.41 89.93 162.67 90.65 162.80 C 90.60 178.79 89.47 194.73 89.38 210.71 C 86.95 210.58 84.53 210.47 82.10 210.55 C 82.99 213.93 86.49 214.86 89.13 216.46 C 89.32 218.68 89.51 220.92 89.94 223.11 C 98.54 265.91 106.77 308.79 115.60 351.54 C 112.98 351.20 110.35 350.97 107.72 350.73 C 98.54 303.99 89.58 257.20 80.17 210.51 C 78.89 206.30 81.26 202.22 81.20 197.98 C 81.52 186.58 83.19 175.29 83.86 163.92 C 84.90 158.52 82.76 153.28 82.01 147.99 C 80.52 138.74 77.92 129.68 76.98 120.35 Z" />
<path fill="#f5e5c1" opacity="1.00" d=" M 418.99 122.69 C 420.83 121.90 422.67 121.11 424.50 120.28 C 422.39 132.86 419.70 145.34 417.35 157.87 C 416.94 168.62 419.22 179.24 419.61 189.97 C 420.13 195.17 420.03 200.47 421.30 205.58 C 421.61 206.80 421.57 208.08 421.35 209.33 C 411.12 260.09 401.36 310.96 391.41 361.79 C 388.99 361.20 386.56 360.63 384.13 360.09 C 393.49 312.05 403.50 264.13 412.51 216.03 C 415.06 214.74 418.59 213.91 419.00 210.52 C 416.59 210.48 414.18 210.56 411.78 210.68 C 411.74 194.71 410.86 178.77 410.54 162.81 C 411.27 162.69 412.73 162.44 413.46 162.31 C 413.58 161.44 413.71 160.58 413.84 159.72 C 413.15 159.46 411.78 158.94 411.09 158.68 C 413.70 146.68 416.25 134.66 418.99 122.69 Z" />
<path fill="#f5e5c1" opacity="1.00" d=" M 92.43 123.39 C 93.49 123.35 94.56 123.31 95.62 123.28 C 97.58 135.07 101.07 146.54 102.67 158.41 C 101.64 158.54 100.63 158.66 99.61 158.79 C 96.91 147.05 95.47 135.04 92.43 123.39 Z" />
<path fill="#f5e5c1" opacity="1.00" d=" M 405.57 123.35 C 406.63 123.34 407.69 123.34 408.76 123.33 C 405.74 134.94 404.67 146.99 401.52 158.56 C 400.77 158.58 399.29 158.62 398.55 158.64 C 399.85 151.37 401.02 144.05 402.80 136.88 C 404.20 132.47 404.85 127.90 405.57 123.35 Z" />
<path fill="#f5e5c1" opacity="1.00" d=" M 256.77 149.21 C 257.43 148.93 258.74 148.37 259.39 148.08 C 263.35 164.10 266.76 180.24 270.54 196.30 C 269.26 196.51 267.98 196.72 266.70 196.93 C 263.46 181.01 259.64 165.19 256.77 149.21 Z" />
<path fill="#f5e5c1" opacity="1.00" d=" M 99.97 167.93 C 100.47 166.09 99.32 162.84 102.09 162.57 C 102.38 162.88 102.95 163.50 103.23 163.82 C 103.54 169.20 103.20 174.61 103.17 180.00 C 102.45 190.81 102.86 201.66 102.44 212.49 C 101.16 212.19 99.87 211.96 98.58 211.80 C 99.27 197.19 99.51 182.56 99.97 167.93 Z" />
<path fill="#f5e5c1" opacity="1.00" d=" M 398.36 162.53 C 399.08 162.77 400.53 163.24 401.25 163.47 C 401.28 179.74 402.42 195.97 402.55 212.24 C 401.58 212.24 399.65 212.24 398.69 212.24 C 398.61 195.67 397.98 179.09 398.36 162.53 Z" />
<path fill="#f5e5c1" opacity="1.00" d=" M 267.71 202.46 C 268.97 202.00 270.24 201.56 271.53 201.14 C 271.68 251.94 271.58 302.74 271.57 353.53 C 270.29 354.19 269.01 354.84 267.74 355.51 C 267.74 304.49 267.80 253.48 267.71 202.46 Z" />
<path fill="#f5e5c1" opacity="1.00" d=" M 98.46 217.32 C 99.78 217.33 101.09 217.34 102.41 217.37 C 112.23 267.80 122.23 318.20 131.92 368.66 C 130.86 369.92 129.81 371.19 128.77 372.47 C 118.84 320.72 108.68 269.01 98.46 217.32 Z" />
<path fill="#f5e5c1" opacity="1.00" d=" M 398.80 217.37 C 400.12 217.40 401.45 217.39 402.78 217.33 C 393.25 265.09 384.23 312.96 374.58 360.70 C 373.23 360.99 371.89 361.28 370.55 361.58 C 380.17 313.55 389.46 265.45 398.80 217.37 Z" />
<path fill="#f4722b" opacity="1.00" d=" M 172.22 358.30 C 183.77 356.88 195.76 359.19 205.74 365.23 C 219.23 373.15 229.10 386.63 233.27 401.65 C 237.84 417.72 236.26 435.58 228.45 450.40 C 221.40 464.06 208.93 475.03 194.13 479.47 C 181.50 483.21 167.49 482.11 155.66 476.30 C 141.47 469.35 130.52 456.38 125.53 441.44 C 119.44 423.64 121.31 403.25 130.76 386.96 C 139.38 371.90 154.82 360.46 172.22 358.30 Z" />
<path fill="#f4722b" opacity="1.00" d=" M 288.45 358.63 C 299.12 356.93 310.35 358.19 320.09 363.00 C 334.08 369.68 344.97 382.24 350.22 396.78 C 356.96 414.85 355.45 435.94 345.76 452.69 C 339.50 463.50 329.89 472.47 318.36 477.41 C 305.22 483.07 289.75 483.08 276.61 477.39 C 263.69 471.87 253.16 461.33 247.09 448.72 C 238.46 431.08 238.44 409.60 246.76 391.85 C 254.45 375.12 270.12 361.81 288.45 358.63 Z" />
<path fill="#f4722b" opacity="1.00" d=" M 58.17 386.43 C 67.62 377.71 76.20 368.03 85.92 359.63 C 95.53 359.66 105.12 360.80 114.72 361.30 C 112.91 401.40 111.22 441.50 109.49 481.61 C 99.06 481.13 88.63 480.60 78.20 479.98 C 79.15 452.23 80.32 424.49 81.25 396.74 C 78.56 399.30 75.93 401.93 73.26 404.52 C 68.28 398.45 63.26 392.40 58.17 386.43 Z" />
<path fill="#f4722b" opacity="1.00" d=" M 363.38 466.04 C 386.92 432.42 410.57 398.87 434.16 365.29 C 438.78 368.61 443.38 371.98 447.99 375.33 C 425.02 409.30 402.08 443.29 379.06 477.22 C 373.81 473.52 368.60 469.77 363.38 466.04 Z" />
<path fill="#f4722b" opacity="1.00" d=" M 374.40 370.72 C 381.17 368.89 388.87 370.11 394.33 374.64 C 400.92 379.75 403.56 389.09 400.94 396.95 C 398.09 406.05 388.44 411.99 379.04 411.10 C 368.69 410.78 359.45 401.42 359.68 390.98 C 359.23 381.88 365.73 373.25 374.40 370.72 Z" />
<path fill="#3e3e3e" opacity="1.00" d=" M 377.31 384.47 C 382.13 382.55 388.83 385.41 389.12 391.02 C 389.97 398.01 380.35 402.33 375.33 397.74 C 370.78 394.33 371.80 386.28 377.31 384.47 Z" />
<path fill="#3e3e3e" opacity="1.00" d=" M 171.35 396.66 C 179.28 393.93 188.44 395.84 194.82 401.22 C 204.75 409.46 207.86 423.72 205.11 435.96 C 202.63 446.47 194.48 455.89 183.81 458.51 C 176.52 460.40 168.79 457.61 163.21 452.86 C 152.26 443.67 149.86 427.37 154.42 414.34 C 157.18 406.39 163.23 399.35 171.35 396.66 Z" />
<path fill="#3e3e3e" opacity="1.00" d=" M 290.35 396.53 C 298.25 393.95 307.27 395.98 313.55 401.37 C 323.19 409.41 326.15 423.17 323.86 435.11 C 321.68 445.66 313.84 455.18 303.35 458.26 C 297.34 460.14 290.71 458.73 285.42 455.51 C 277.27 450.54 271.99 441.49 271.08 432.05 C 270.22 423.82 271.55 415.14 275.99 408.03 C 279.22 402.67 284.35 398.41 290.35 396.53 Z" />
<path fill="#f4722b" opacity="1.00" d=" M 426.32 432.45 C 433.69 430.15 442.36 431.61 448.03 437.04 C 455.26 443.53 456.19 455.51 450.27 463.15 C 444.60 471.14 433.05 473.96 424.30 469.66 C 417.36 466.32 412.64 458.75 412.94 451.02 C 412.72 442.77 418.52 434.97 426.32 432.45 Z" />
<path fill="#3e3e3e" opacity="1.00" d=" M 430.49 443.63 C 435.33 441.68 441.74 445.47 441.13 450.99 C 440.57 457.14 431.82 459.51 427.79 455.12 C 424.36 451.69 425.94 445.23 430.49 443.63 Z" />
</svg>
