<?xml version="1.0" encoding="UTF-8" standalone="no"?>
<svg
   xmlns:dc="http://purl.org/dc/elements/1.1/"
   xmlns:cc="http://creativecommons.org/ns#"
   xmlns:rdf="http://www.w3.org/1999/02/22-rdf-syntax-ns#"
   xmlns:svg="http://www.w3.org/2000/svg"
   xmlns="http://www.w3.org/2000/svg"
   xmlns:sodipodi="http://sodipodi.sourceforge.net/DTD/sodipodi-0.dtd"
   xmlns:inkscape="http://www.inkscape.org/namespaces/inkscape"
   width="1280"
   height="1280"
   viewBox="0 0 1024 1024"
   version="1.1"
   id="svg2"
   inkscape:version="0.48.1 "
   sodipodi:docname="taunt_kill.svg">
  <metadata
     id="metadata64">
    <rdf:RDF>
      <cc:Work
         rdf:about="">
        <dc:format>image/svg+xml</dc:format>
        <dc:type
           rdf:resource="http://purl.org/dc/dcmitype/StillImage" />
      </cc:Work>
    </rdf:RDF>
  </metadata>
  <defs
     id="defs62" />
  <sodipodi:namedview
     pagecolor="#ffffff"
     bordercolor="#666666"
     borderopacity="1"
     objecttolerance="10"
     gridtolerance="10"
     guidetolerance="10"
     inkscape:pageopacity="0"
     inkscape:pageshadow="2"
     inkscape:window-width="1920"
     inkscape:window-height="1018"
     id="namedview60"
     showgrid="false"
     inkscape:snap-page="true"
     fit-margin-top="0"
     fit-margin-left="0"
     fit-margin-right="0"
     fit-margin-bottom="0"
     inkscape:zoom="0.6609375"
     inkscape:cx="640"
     inkscape:cy="640"
     inkscape:window-x="-8"
     inkscape:window-y="-8"
     inkscape:window-maximized="1"
     inkscape:current-layer="svg2" />
  <rect
     style="fill:#3e3e3e;fill-opacity:1;fill-rule:nonzero;stroke:none"
     id="rect3042"
     width="1024"
     height="1024"
     x="0"
     y="0" />
  <path
     d="m 327.94,89.72 c 6.1,-4.54 13.08,-7.6 20.16,-10.24 17.54,61.5 42.62,121.14 77.68,174.78 11.4,16.48 22.74,33.06 35.58,48.46 11.46,13.8 21.66,28.84 35.34,40.64 8.9,7.72 16.1,17.4 26.14,23.8 11.02,7.42 21.42,15.94 33.4,21.8 -14.34,3.54 -29.4,3 -43.4,8.06 -10.6,2.9 -19.86,9.82 -30.84,11.28 -14.56,-1.44 -29.42,-0.88 -43.62,-4.94 -1.94,-0.14 -5.06,-1.96 -6.04,0.76 -9.84,17.8 -19.98,36.84 -18.82,57.86 0.76,7.5 -0.32,17.06 6.54,22.08 3.74,2.98 5.68,7.72 9.72,10.38 4.58,0.94 9.6,-3.18 13.8,-0.1 5.64,5.6 7.78,13.68 9.58,21.18 4.1,-0.34 8.74,-1.78 12.38,1 9.22,6.38 19.18,11.64 28.16,18.38 -4.48,2.62 -8.38,7.44 -13.44,8.42 -9.98,-6.36 -20.28,-12.46 -28.74,-20.88 -9.18,-6.98 -16.02,-16.34 -24.2,-24.36 -20.9,-21.9 -35.86,-48.48 -50.28,-74.88 -18.48,-29.42 -30.84,-62.04 -44.32,-93.92 -2.72,-6.98 -6.12,-13.8 -7.2,-21.28 -1.26,-10.52 -6.92,-19.72 -9.8,-29.78 -7.94,-25.36 -16.96,-50.42 -23.4,-76.22 -7.22,-27.82 -17.34,-54.98 -22.06,-83.4 12.2,-5.76 23.94,-12.4 35.98,-18.48 7.2,-3.54 13.62,-8.88 21.7,-10.4 z"
     id="path6"
     inkscape:connector-curvature="0"
     style="fill:#f5e5c1" />
  <path
     d="m 917.6,173.92 c 26.18,-11.14 52.3,-22.46 78.38,-33.84 -6.84,23.66 -16.48,46.5 -24.52,69.8 -0.6,2.56 -0.94,5.18 -1,7.82 -2.04,-4.68 -4.22,-9.3 -6.1,-14.04 -9.34,-1.04 -18.68,-2.64 -27.8,-4.76 -0.4,-4.7 0.62,-9.24 3.18,-13.24 -3.6,-2.46 -7.6,-4.1 -11.72,-5.4 -3.14,-2.64 -6.72,-4.66 -10.42,-6.34 z"
     id="path8"
     inkscape:connector-curvature="0"
     style="fill:#f5e5c1" />
  <path
     d="m 906.66,192.82 c 5.54,-3.32 11.06,0.22 15.9,3.02 -0.28,2.32 -0.58,4.66 -0.84,7 -5.94,-0.16 -3.66,5.46 -2.32,8.84 -6.5,-4.56 -10.72,-11.26 -12.74,-18.86 z"
     id="path10"
     inkscape:connector-curvature="0"
     style="fill:#f5e5c1" />
  <path
     d="m 932.26,202.14 c 1.74,2.22 3.5,4.46 5.26,6.7 -1.3,0.3 -3.9,0.9 -5.2,1.2 -0.02,-2.64 -0.04,-5.28 -0.06,-7.9 z"
     id="path12"
     inkscape:connector-curvature="0"
     style="fill:#f5e5c1" />
  <path
     d="m 945.16,213.7 c 5.02,4.28 6.1,11.1 6.06,17.36 -5.04,-0.12 -13.32,-0.42 -14.68,-6.34 2.56,-3.9 5.68,-7.38 8.62,-11.02 z"
     id="path14"
     inkscape:connector-curvature="0"
     style="fill:#f5e5c1" />
  <path
     d="m 894.7,222.3 c 3.72,-0.46 5.26,3.48 7.24,5.86 3.74,6 7.66,11.88 11.22,18 0.86,2.54 -1.52,4.36 -2.88,6.08 -24.92,25.78 -50.28,51.14 -75.34,76.78 -4.32,4.36 -9.32,7.92 -14.2,11.62 -27.62,21.06 -55.08,42.36 -82.76,63.36 -7.68,5.88 -15.4,11.74 -22.6,18.2 -6.36,-6.78 -11.52,-14.52 -16.96,-22 18.12,-15.18 36.58,-29.92 54.6,-45.2 40.38,-37.62 80.64,-75.4 121,-113.08 5.28,-4.84 10.14,-10.22 16.3,-14 3.7,6 8.2,11.56 13.7,16.04 -3.16,-5.84 -8.46,-10.24 -11.34,-16.22 -0.88,-2.32 -0.22,-4.14 2.02,-5.44 z"
     id="path16"
     inkscape:connector-curvature="0"
     style="fill:#f4722b" />
  <path
     d="m 925.22,223.64 c 3.38,1.4 7.1,2.76 8.98,6.16 -4.56,1.04 -6.86,-3.02 -8.98,-6.16 z"
     id="path18"
     inkscape:connector-curvature="0"
     style="fill:#f4722b" />
  <path
     d="m 132.8,249.88 c 3.46,7.68 5.96,15.82 10.52,23 12.18,20.32 22.7,41.66 36.12,61.22 16.62,21.52 30.86,44.88 49.18,65.08 11.84,14.3 26.78,25.46 40.76,37.52 6.44,5.6 13.36,10.64 20.58,15.2 13.84,8.6 26.52,18.86 40.06,27.88 14.4,9.3 26.42,21.66 39.92,32.16 5.96,4.7 12.2,9.08 17.9,14.12 8.88,7.9 15.44,17.94 23.8,26.34 10.52,10.36 21.94,19.94 31.02,31.62 -2.08,1.36 -4.18,2.74 -6.28,4.12 -4.98,-5.2 -9.66,-10.66 -14.04,-16.38 -4.16,-6.06 -12.02,-6.86 -18.28,-9.66 -1.92,-3.44 -3.74,-6.96 -6.26,-10 C 356.18,507 304.24,473.58 256.6,435.46 238.36,422.24 226.76,402.5 213.24,384.94 c -16.9,-23.12 -34.28,-45.92 -50.06,-69.84 -6.72,-10.96 -11.86,-22.78 -18.26,-33.92 -5.82,-9.66 -8.88,-20.6 -12.12,-31.3 z"
     id="path20"
     inkscape:connector-curvature="0"
     style="fill:#f5e5c1" />
  <path
     d="m 47.42,355.38 c 25.82,-24.3 50.66,-49.6 76.68,-73.68 2.96,5.06 5.92,10.12 8.9,15.16 -44.06,40.48 -88.66,80.4 -133,120.56 l 0,-15.7 c 15.66,-15.6 31.54,-30.98 47.42,-46.34 z"
     id="path22"
     inkscape:connector-curvature="0"
     style="fill:#bcb198" />
  <path
     d="m 0,528.54 c 53.68,-63.16 108.04,-125.72 162.18,-188.5 2.54,5.94 5.06,11.88 7.56,17.84 C 112.98,418.9 56.68,480.38 0,541.5 l 0,-12.96 z"
     id="path24"
     inkscape:connector-curvature="0"
     style="fill:#bcb198" />
  <path
     d="m 643.9,388.5 c 5.4,-1.96 10.48,-4.84 16.12,-6.24 11.74,13.36 16.98,31.3 30.52,43.16 8.8,9.78 21.6,18.14 22.6,32.5 -1.96,7.3 -4.68,14.42 -5.34,22.02 -0.58,7.18 -5.02,13.12 -7.38,19.76 -7.32,4.06 -14.48,9.88 -16.42,18.44 -0.88,4.82 -3.9,8.6 -7.38,11.86 -5.32,-10.7 -12.04,-20.58 -19.24,-30.06 0.62,-12.48 2.92,-25.18 6.22,-37.32 6.36,2.02 12.8,4.1 19.56,4.22 -0.28,-6.1 -6.28,-8.38 -10.3,-11.72 -15.48,-11.16 -28.46,-25.86 -36.6,-43.16 -7.24,7.58 -1.82,17.66 -0.3,26.28 -6.7,2.32 -13.44,4.56 -20.14,6.84 -3.72,1.7 -7.3,-0.82 -10.7,-2.06 -16.02,-7.02 -33.68,-10.54 -51.16,-8.78 -17.4,1.6 -34.74,4.88 -51.22,10.76 -8.8,3.16 -17.86,6.36 -24.96,12.68 5.6,-10.14 12.72,-19.28 18.86,-29.06 2.8,-4.66 8.04,-6.88 12.52,-9.52 13.72,-7.14 27.44,-15.26 43,-17.54 30.1,-7.16 61.08,-9.36 91.74,-13.06 z"
     id="path26"
     inkscape:connector-curvature="0"
     style="fill:#f5e5c1" />
  <path
     d="m 0,630.04 c 70.48,-70.88 141.04,-141.7 211.92,-212.18 4.14,3.94 8.24,7.9 12.32,11.88 C 149.72,500 74.48,569.5 0,639.78 l 0,-9.74 z"
     id="path28"
     inkscape:connector-curvature="0"
     style="fill:#bcb198" />
  <path
     d="m 104.48,666.52 c 58.44,-60.72 116.6,-121.7 175.3,-182.16 3.84,4.08 7.72,8.14 11.64,12.16 C 213.9,572.64 135.44,647.8 57.8,723.8 38.48,742.42 18.82,760.7 0,779.82 l 0,-3.7 c 34.26,-37.06 69.62,-73.1 104.48,-109.6 z"
     id="path30"
     inkscape:connector-curvature="0"
     style="fill:#bcb198" />
  <path
     d="m 718.68,503.96 c 4.26,11.66 4.82,24.14 7.76,36.12 1.28,6.02 3.32,11.86 4.48,17.92 -2.9,7.46 -8.76,13.3 -12.84,20.12 -3.16,4.2 -5.12,9.74 -9.92,12.4 -5.3,-0.08 -11.04,-1.94 -13.04,-7.32 -10.9,0.68 -23.72,-3.28 -29.52,-13.2 -6.74,-9.42 -14.08,-18.4 -21.5,-27.3 6.26,-1.1 13.28,-3.34 19.22,0.16 5.4,3.04 11.36,4.62 17.18,6.64 7.62,7.14 13.96,20.04 26.48,17.28 0.88,-11.08 -11.12,-16 -14.74,-25.06 6.78,-13.82 16.88,-25.78 26.44,-37.76 z"
     id="path32"
     inkscape:connector-curvature="0"
     style="fill:#f5e5c1" />
  <path
     d="m 522.9,540.66 c 3.54,-2.8 7.08,-5.68 11.1,-7.78 9.94,1.3 19.16,6.02 28.22,10.2 -10.06,-1.82 -19.94,1.26 -29.46,4.18 -5.22,2.1 -9.82,6 -12.76,10.78 -2.46,6.06 -0.94,12.82 -0.32,19.1 -8.6,-2.9 -19.94,-5.48 -27.3,1.42 -6.1,4.84 -12.32,9.56 -17.96,14.94 3.44,9.9 3.14,20.32 2.82,30.66 -6.04,5.18 -10.8,12.72 -19.04,14.58 -3.16,0.9 -5.88,2.82 -8.58,4.62 -7.38,-7.32 -13.86,-15.48 -21.16,-22.88 7.74,-6.2 14.46,-13.5 21.8,-20.16 23.54,-20.66 48.08,-40.2 72.64,-59.66 z"
     id="path34"
     inkscape:connector-curvature="0"
     style="fill:#f4722b" />
  <path
     d="m 365.44,559.42 c 1.74,-2.28 4.36,-0.38 5.94,0.92 2.98,2.32 5.88,4.82 8.3,7.74 0.12,2.54 -2.76,3.66 -4.18,5.38 C 258,677.02 141.12,781.32 22.74,883.82 c 13.2,-11.84 25.94,-24.16 39.24,-35.9 25.66,-26.38 53,-51.02 79.36,-76.66 74.86,-70.46 149.26,-141.4 224.1,-211.84 z"
     id="path36"
     inkscape:connector-curvature="0"
     style="fill:#bcb198" />
  <path
     d="m 599.78,566.36 c 5.5,-0.9 11.44,-3.52 16.82,-0.74 5.64,2.56 11.74,3.9 17.46,6.24 4.94,4.62 8.46,11.68 16,12.36 4.06,5.16 9.18,9.72 11.96,15.76 2.1,6.98 3.72,14.14 7.12,20.66 -4.9,6.56 -14.38,10.78 -22.1,6.68 -4.58,-2.16 -10.44,-2.5 -14.12,-6.1 -11.18,-18.2 -23.4,-35.8 -33.14,-54.86 z"
     id="path38"
     inkscape:connector-curvature="0"
     style="fill:#f5e5c1" />
  <path
     d="m 546.74,585.92 c 7.86,-0.72 15.68,-1.64 23.54,-2.32 4.4,7.52 8.7,15.12 13.56,22.38 6,8.62 10.36,18.44 17.86,25.98 -1.04,6.42 -0.7,13.06 -2.74,19.28 -8.38,-3.4 -16.94,-6.38 -25.62,-8.9 -6.18,-20 -19.98,-36.58 -26.6,-56.42 z"
     id="path40"
     inkscape:connector-curvature="0"
     style="fill:#f5e5c1" />
  <path
     d="m 502.82,610.56 c 4.76,1.56 9.94,2.06 14.46,4.32 7.2,9.9 10.18,22.44 18.72,31.46 -0.7,3.84 -1.82,7.6 -3.34,11.2 -8.7,-6.16 -15.28,-14.72 -21.46,-23.26 -3.2,-7.76 -5.26,-15.94 -8.38,-23.72 z"
     id="path42"
     inkscape:connector-curvature="0"
     style="fill:#f5e5c1" />
  <path
     d="m 415.24,634.98 c -2.24,-2.18 1.54,-3.86 2.64,-5.42 7.54,7.74 17.64,12.7 24.22,21.36 -1.98,1.5 -3.98,3.02 -5.96,4.54 -6.74,-7.06 -14.56,-13.06 -20.9,-20.48 z"
     id="path44"
     inkscape:connector-curvature="0"
     style="fill:#f4722b" />
  <path
     d="m 139.56,870.36 c 88.9,-76.94 177.86,-153.78 266.74,-230.72 8.46,6.54 17.88,12.44 24.22,21.22 -57.7,49.44 -114.92,99.44 -172.44,149.08 -1.14,-5.78 -1.82,-11.64 -2.36,-17.5 -34.32,31.26 -69.22,61.92 -102.64,94.14 l -1.78,1.54 c -1.72,-1.64 -3.42,-3.3 -5.1,-4.96 -3.54,-3.46 -5.2,-8.22 -6.64,-12.8 z"
     id="path46"
     inkscape:connector-curvature="0"
     style="fill:#f4722b" />
  <path
     d="m 280.8,846.84 c 68.48,-66.24 137.22,-132.18 205.72,-198.38 3.64,4.32 9.44,7.52 11.28,13 -72.98,66.48 -146.66,132.22 -220.16,198.14 0.22,-4.38 -0.98,-9.82 3.16,-12.76 z"
     id="path48"
     inkscape:connector-curvature="0"
     style="fill:#bcb198" />
  <path
     d="m 450.38,788.48 c 37.22,-35.66 73.84,-71.94 111.36,-107.3 6.1,1.52 12.2,3.22 18.1,5.46 -53.4,48.36 -106.82,96.66 -160.36,144.86 -49,44.32 -97.82,88.86 -147.48,132.42 -9.86,10.08 -21.1,18.6 -31.46,28.16 9.16,-9.42 19.74,-17.32 28.6,-27.06 59.7,-59.56 120.92,-117.58 181.24,-176.54 z"
     id="path50"
     inkscape:connector-curvature="0"
     style="fill:#bcb198" />
  <path
     d="m 150.06,789.32 c 13.32,-1.32 26.64,-2.52 40.02,-2.64 15.3,-1.48 30.7,-2.44 46.08,-1.9 -34.7,28.42 -70.18,55.88 -105.14,84 -11.1,2.6 -22.36,4.44 -33.54,6.6 -1.9,-8.52 -4.3,-16.92 -6.34,-25.4 8.16,-6.86 15.66,-14.48 22.66,-22.52 11.6,-13.18 24.4,-25.22 36.26,-38.14 z"
     id="path52"
     inkscape:connector-curvature="0"
     style="fill:#f5e5c1" />
  <path
     d="m 249.9,806.6 c -32.68,26.14 -63.92,54.08 -96.8,80 l -1.8,1.5 c -1.72,-1.64 -3.42,-3.29 -5.1,-4.95 3.22,4.38 6.59,9.14 6.35,14.9 0.3,21.94 -0.38,43.89 0.4,65.85 7.02,-4.62 13.46,-10.25 21.3,-13.45 7.52086,-5.00726 14.76166,-10.46906 22.4,-15.3 -1.3511,-8.28069 -4.32741,-24.04514 -3.7,-31.65 2.28288,7.95072 8.86795,19.31504 11.5,27.3 5.8,-3.06 11.41,-6.42 16.75,-10.2 -3.06,-8.04 -4.99,-16.42 -6.75,-24.8 -1.18,-5.88 -3.33,-11.74 -2.45,-17.8 0.28,1.58 0.87,4.69 1.15,6.25 1.52,1.76 3.15,3.55 3.65,5.95 2.62,9.28 5.35,18.56 6.85,28.1 4.46,-1.2 8.5,-3.42 12.3,-6 -1.34,-10.16 -4.41,-20.12 -4.55,-30.4 4.06,8.7 6.78,17.96 8.6,27.4 6.46,-3.34 12.18,-7.83 17.5,-12.75 -1.64,-12.76 0.52,-25.63 -1.5,-38.35 -2.24,-17.12 1.41,-35.14 -4.85,-51.6 l -1.25,0 z"
     id="path54"
     style="fill:#f5e5c1"
     inkscape:connector-curvature="0" />
  <path
     d="m 143.86,889.38 c 2.76,12.28 -0.02,25.16 3.02,37.46 -4.32,5.16 -10.12,9.12 -16.58,11.08 4.86,-16.08 8.8,-32.42 13.56,-48.54 z"
     id="path56"
     inkscape:connector-curvature="0"
     style="fill:#f5e5c1" />
</svg>
