<?xml version="1.0" encoding="UTF-8" standalone="no"?>
<svg
   xmlns:dc="http://purl.org/dc/elements/1.1/"
   xmlns:cc="http://creativecommons.org/ns#"
   xmlns:rdf="http://www.w3.org/1999/02/22-rdf-syntax-ns#"
   xmlns:svg="http://www.w3.org/2000/svg"
   xmlns="http://www.w3.org/2000/svg"
   xmlns:sodipodi="http://sodipodi.sourceforge.net/DTD/sodipodi-0.dtd"
   xmlns:inkscape="http://www.inkscape.org/namespaces/inkscape"
   width="1280"
   height="1280"
   viewBox="0 0 1024 1024"
   version="1.1"
   id="svg2"
   inkscape:version="0.48.1 "
   sodipodi:docname="top_scoreboard_grind.svg">
  <metadata
     id="metadata72">
    <rdf:RDF>
      <cc:Work
         rdf:about="">
        <dc:format>image/svg+xml</dc:format>
        <dc:type
           rdf:resource="http://purl.org/dc/dcmitype/StillImage" />
      </cc:Work>
    </rdf:RDF>
  </metadata>
  <defs
     id="defs70" />
  <sodipodi:namedview
     pagecolor="#ffffff"
     bordercolor="#666666"
     borderopacity="1"
     objecttolerance="10"
     gridtolerance="10"
     guidetolerance="10"
     inkscape:pageopacity="0"
     inkscape:pageshadow="2"
     inkscape:window-width="1920"
     inkscape:window-height="1018"
     id="namedview68"
     showgrid="false"
     fit-margin-top="0"
     fit-margin-left="0"
     fit-margin-right="0"
     fit-margin-bottom="0"
     inkscape:zoom="0.6609375"
     inkscape:cx="640"
     inkscape:cy="640"
     inkscape:window-x="-8"
     inkscape:window-y="-8"
     inkscape:window-maximized="1"
     inkscape:current-layer="svg2" />
  <path
     d="M 0,0 0.2,0 C 0.14,0.06 0.04,0.16 0,0.22 L 0,0 z"
     id="path4"
     inkscape:connector-curvature="0"
     style="fill:#f4722b" />
  <path
     d="M 0.2,0 1024,0 1024,1024 0,1024 0,0.22 C 0.04,0.16 0.14,0.06 0.2,0 z"
     id="path6"
     inkscape:connector-curvature="0"
     style="fill:#3e3e3e" />
  <path
     d="m 533.94,97.92 c 16.32,-15.1 31.18,-31.82 47.84,-46.5 70.54,4.46 141.04,9.48 211.58,13.68 0,0 -22.5684,593.71472 -38.6,888.62 -60.2,-3.88 -120.56,-6.42 -180.82,-9.72 -16.22,-1.24 -32.6,-1 -48.7,-3.04 l 23.24,-618.12 c -19.66,20.12 -39.62,39.98 -58.86,60.48 -36.64,-44 -73.4,-87.92 -110.04,-131.94 l -0.06,-1.34 c 10.48,-8.92 19.62,-19.32 29.56,-28.84 41.7,-41 83.32,-82.1 124.86,-123.28 z"
     id="path8"
     inkscape:connector-curvature="0"
     style="fill:#f5e5c1"
     sodipodi:nodetypes="cccccccccccc" />
  <path
     d="m 625.06,91.02 c 18.2,-12.74 42.22,-15.9 63.42,-9.84 13.34,3.88 25.76,10.72 36.38,19.6 5.34,-0.04 12.3,0.42 13.8,6.82 -1,1.92 -1.72,3.94 -2.16,6.04 13.8,18.5 16.4,43.9 8.36,65.32 -6,21.34 -19.6,41.08 -39.68,51.28 -1.1,12.46 0.16,25.18 0.08,37.72 -0.38,6.94 1.28,14.02 5.4,19.68 1.7,6.02 0.5,12.3 -1.04,18.22 0.58,7.3 -0.46,16.94 -7.94,20.44 -7.06,2.66 -13,-5.68 -11.22,-12.16 1.94,-5.04 -2.66,-9.32 -1.6,-14.32 -0.62,-4.34 5.96,-5.44 4.84,-9.8 -2.16,-18.28 -0.5,-36.68 -0.72,-55.06 -6.38,2.3 -13.28,1.96 -19.76,3.62 0.08,11.28 -3.14,22.24 -2.64,33.54 -2.46,23.28 -3.54,46.62 -4.14,70.02 -1.9,14.56 -0.28,29.34 -2.1,43.9 -2.14,14 -0.14,28.22 -2.04,42.24 -2.42,13.82 0.48,28.04 -2.44,41.82 -1.58,10.22 0.28,20.64 -1.14,30.86 -1.9,7.54 -1.08,15.46 -3.18,23 -0.06,15.78 0.02,31.58 1.4,47.32 2.46,1.82 6.14,1 7.8,4.04 3.5,3.76 1.62,9.42 4.42,13.52 6.08,9.06 4.24,20.42 3.94,30.7 -2.06,9.94 -3.64,21.02 -11.12,28.56 -3.68,4.64 -11.4,5.1 -16.14,2.08 -9.18,-9.64 -7.18,-24 -7,-36.16 1.82,-11.4 4.3,-22.64 7.66,-33.78 -1.46,-5.28 -1.66,-10.8 -0.92,-16.22 2.02,-16.62 -1,-33.66 2.9,-50.06 0.14,-4.7 0.72,-9.36 1.88,-13.9 1.2,-10.1 -0.46,-20.34 1.16,-30.4 2.58,-12.68 0.18,-25.7 2.04,-38.46 2.18,-12.94 0.48,-26.1 1.72,-39.1 2.32,-16.58 1.18,-33.42 3.08,-50.06 0.9,-27.38 2.94,-54.7 3.2,-82.12 -0.36,-7.46 1.78,-14.72 1.86,-22.16 -6.74,-0.58 -13.3,-2.2 -19.9,-3.62 -0.98,7.8 -3.04,15.36 -2.56,23.32 -2.26,11.48 -3.08,23.28 -6.5,34.54 -2.14,15.52 -1.1,31.28 -1.8,46.92 -5.18,14.94 2.64,30.58 -1.06,45.66 -0.8,13.96 -4.64,27.52 -4.46,41.58 0.5,4.98 -2.78,9.18 -2.78,14.08 -0.86,4.44 3.66,7.4 3.36,11.78 0.24,9.88 -0.14,19.88 -2.42,29.54 -0.34,2.72 -2.64,4.38 -4.26,6.36 2.34,4.76 3.84,10.9 0.84,15.74 -4.38,8.5 -3.32,19.18 -9.5,26.78 -5.06,5.18 -14.12,0.48 -13.9,-6.36 0.1,-16.04 0.04,-32.06 0.08,-48.1 -0.18,-6.54 2.46,-12.64 4.1,-18.84 3.86,-7.54 0.58,-16.16 2.54,-24.12 1.06,-3.98 2.12,-7.98 3.48,-11.9 2.68,-7.82 0.52,-16.52 4.26,-24.08 1.3,-17.62 0.9,-35.28 1.54,-52.94 4.22,-13.62 1.44,-28.1 2.42,-42.12 -0.16,-11.08 5.66,-21.08 6.36,-32 2.52,-14.84 6.34,-30.32 1.56,-45.06 -4.76,-5.82 -10.94,-10.36 -15.16,-16.64 -11.88,-16.84 -19.34,-37.52 -17.44,-58.34 2.06,-22.94 13.38,-45.9 32.84,-58.92 z"
     id="path10"
     inkscape:connector-curvature="0"
     style="fill:#f4722b" />
  <path
     d="m 656.62,90.38 c 7.26,-0.4 14.74,-0.76 21.84,1.14 18.08,7.48 35.34,20.5 42.38,39.38 3.18,7.3 2.84,15.5 5.48,22.96 2.7,15.28 -2.7,31.64 -14.08,42.22 -14.74,14.92 -37.22,19.52 -57.46,16.82 -20.18,-4.14 -37.4,-19.56 -44.58,-38.78 -6.12,-17.58 -3.4,-37.76 6.66,-53.36 8.94,-14.38 22.34,-27.82 39.76,-30.38 z"
     id="path12"
     inkscape:connector-curvature="0"
     style="fill:#3e3e3e" />
  <path
     d="m 751.38,101.18 c 5.18,-2.14 10.34,2.94 7.82,8.14 -2.66,1 -5.5,0.54 -8.12,-0.22 -1.48,-2.54 -1.02,-5.44 0.3,-7.92 z"
     id="path14"
     inkscape:connector-curvature="0"
     style="fill:#f4722b" />
  <path
     d="m 545.16,119.54 c 2.14,-1.64 4.62,-3.08 7.4,-2.08 2.12,4.42 -2.52,9.8 -7.14,7.18 -0.42,-1.7 -0.5,-3.38 -0.26,-5.1 z"
     id="path16"
     inkscape:connector-curvature="0"
     style="fill:#f4722b" />
  <path
     d="m 556.8,162.7 c 8,-3.26 10.86,8.06 5.52,12.64 -5.62,-0.1 -7.02,-8.24 -5.52,-12.64 z"
     id="path18"
     inkscape:connector-curvature="0"
     style="fill:#f4722b" />
  <path
     d="m 481.08,190.9 c 6.92,-3.08 14.6,2.38 13.76,9.96 6.84,-1 8.64,7.14 5.96,12.02 -3,0.98 -6.28,1.28 -9.24,0 -0.68,-1.12 -2.08,-3.36 -2.76,-4.46 -5.12,3.24 -10.38,7.82 -16.92,6.44 -4.7,-1.62 -6.1,-6.76 -4.88,-11.2 3.26,-5.68 10.02,-7.74 14.08,-12.76 z"
     id="path20"
     inkscape:connector-curvature="0"
     style="fill:#f4722b" />
  <path
     d="m 445.1,197.72 c 2.02,-4.4 7.76,-4.34 11.5,-2.32 3.62,6.38 -0.44,13.26 -6.66,15.82 -5.44,-1.74 -5.44,-8.82 -4.84,-13.5 z"
     id="path22"
     inkscape:connector-curvature="0"
     style="fill:#f4722b" />
  <path
     d="m 578.7,198.5 c 11,-7.06 21,14.92 8.8,18.7 -10.66,3.8 -18.22,-13.08 -8.8,-18.7 z"
     id="path24"
     inkscape:connector-curvature="0"
     style="fill:#f4722b" />
  <path
     d="m 201.44,362.48 c 24.28,0.04 48.58,0.02 72.86,0 l 0.34,86.58 c 28.74,-0.1 57.48,-0.06 86.22,-0.02 1.86,-24.36 4.58,-48.66 6.18,-73.02 22.5,1.54 44.96,4.34 67.42,6.62 -2.02,22.14 -5.1,44.24 -6.34,66.4 15.28,-0.04 30.58,-0.1 45.86,0.02 0.02,20.14 0.06,40.28 -0.02,60.42 -17.52,0 -35.04,0.06 -52.56,-0.04 -2.86,19.7 -4.5,39.6 -7.04,59.36 13.42,-1.88 26.68,-4.84 40.1,-6.5 1.18,12.48 6.3665,67.16472 6.3665,67.16472 -17.4239,0.31246 -36.88066,0.0574 -52.9865,0.0752 -2.52,19.82 -4,39.96 -7.14,59.6 -17.74,-2.14 -35.7,-3.94 -53.26,-6.72 0.12,-15.46 0.04,-30.92 0.04,-46.38 -24.32,-0.08 -48.64,-0.06 -72.96,0 -0.06,19.98 0.02,39.96 -0.04,59.94 -22.32,0.04 -44.64,0.04 -66.96,0 -0.2,-17.82 0.3,-35.66 -0.26,-53.46 l -52.72,-0.06 c -2.28,-17.38 -4.7,-34.78 -6.56,-52.2 l 0.72,-1.44 c 19.62,-1.98 39.16,-4.54 58.78,-6.5 0.02,-22.08 0.02,-44.18 0,-66.28 -24.32,-0.12 -48.64,0.04 -72.96,-0.08 -0.02,-20.14 -0.02,-40.26 0,-60.38 24.36,-0.26 48.74,0.1 73.12,-0.18 -2.24,-30.88 -4.94,-62.34 -6.2,-92.92 z"
     id="path26"
     inkscape:connector-curvature="0"
     style="fill:#f5e5c1"
     sodipodi:nodetypes="ccccccccccccccccccccccccccccccc" />
  <path
     d="m 247.06,379.02 c 4.72,-2.08 12.12,0.82 10.18,6.92 -3.16,8.68 -19.26,-0.28 -10.18,-6.92 z"
     id="path28"
     inkscape:connector-curvature="0"
     style="fill:#f4722b" />
  <path
     d="m 259.52,393.6 c 4.48,-5.06 11,-1.66 15.08,1.96 l 0.76,0.66 c 0.08,5.22 1.28,10.98 -0.8,15.88 -3.28,1.92 -6.86,3.62 -10.76,2.78 -8.18,-3.26 -9,-14.92 -4.28,-21.28 z"
     id="path30"
     inkscape:connector-curvature="0"
     style="fill:#f4722b" />
  <path
     d="m 231.2,430.24 c 4.54,-3.2 -0.66,7.8 0,0 z"
     id="path32"
     inkscape:connector-curvature="0"
     style="fill:#f4722b" />
  <path
     d="m 226.64,452.3 c 3.44,-2.44 8.14,-2.88 11.94,-0.98 5.54,6.7 0.18,15.48 -5.5,20.14 -9.04,0.94 -15.8,-14.94 -6.44,-19.16 z"
     id="path34"
     inkscape:connector-curvature="0"
     style="fill:#f4722b" />
  <path
     d="m 322.86,510.6 c -3.72,-9.62 8.02,-13.5 15.32,-13.46 4.7,2.28 3.34,8.24 3.34,12.5 -5.72,2.32 -12.52,0.32 -18.66,0.96 z"
     id="path36"
     inkscape:connector-curvature="0"
     style="fill:#f4722b" />
  <path
     d="m 368.8,501.92 1.32,-1.04 c 0.3,0.84 0.88,2.5 1.18,3.32 l -1.3,1.04 c -0.3,-0.82 -0.9,-2.48 -1.2,-3.32 z"
     id="path38"
     inkscape:connector-curvature="0"
     style="fill:#f4722b" />
  <path
     d="m 221.36,509.12 c 4.66,-1.92 11.74,0.16 10.3,6.38 -3.52,0.72 -7.12,-0.04 -10.62,-0.54 -0.8,-2.04 -0.68,-3.98 0.32,-5.84 z"
     id="path40"
     inkscape:connector-curvature="0"
     style="fill:#f4722b" />
  <path
     d="m 274.46,516.14 c 28.7,-1.8 57.4,-4.52 86.08,-6.08 -1.82,19.26 -4.24,38.52 -6.42,57.78 l -0.82,1.32 c -26.26,1.9 -52.62,4.52 -78.78,6.18 -0.08,-19.74 0.06,-39.48 -0.06,-59.2 z"
     id="path42"
     inkscape:connector-curvature="0"
     style="fill:#3e3e3e" />
  <path
     d="m 538.26,593.46 c 0.86,-0.68 2.56,-2.04 3.4,-2.74 5.18,3.34 10.98,8.58 9.12,15.44 -3.16,4.58 -11.14,3.42 -12.72,-2.08 0.04,-3.54 0.08,-7.08 0.2,-10.62 z"
     id="path44"
     inkscape:connector-curvature="0"
     style="fill:#f4722b" />
  <path
     d="m 420.16,598.4 c 5.86,-1.62 1.12,5.92 -1.08,1.26 l 1.08,-1.26 z"
     id="path46"
     inkscape:connector-curvature="0"
     style="fill:#f4722b" />
  <path
     d="m 433.72,605.8 c 5.42,-7.76 15.98,-9.48 24.38,-6.08 1.98,8.52 4.24,17.08 4.76,25.86 0.28,4.64 -5.22,5.34 -8.7,4.76 -7.96,-0.9 -15.92,0.96 -23.84,0.04 l -0.76,-0.68 c -9.8,-6.46 -1.06,-17.54 4.16,-23.9 z"
     id="path48"
     inkscape:connector-curvature="0"
     style="fill:#f4722b" />
  <path
     d="m 384.76,604.56 c 2.72,-0.62 5.64,-0.58 8.26,0.5 0.76,2.68 1.26,5.56 0.22,8.26 -2.62,0.8 -5.26,0.1 -7.74,-0.74 -1.22,-2.54 -1.86,-5.34 -0.74,-8.02 z"
     id="path50"
     inkscape:connector-curvature="0"
     style="fill:#f4722b" />
  <path
     d="m 541.06,622.76 c 7.98,-2.26 13.32,7.26 9.64,13.88 -3.06,1 -6.36,1.26 -9.46,0.38 -1.08,-1.44 -3.2,-4.32 -4.26,-5.76 l 0,0 c 0.14,-0.96 0.42,-2.9 0.56,-3.88 0.88,-1.16 2.64,-3.46 3.52,-4.62 z"
     id="path52"
     inkscape:connector-curvature="0"
     style="fill:#f4722b" />
  <path
     d="m 180.62,642.66 c 2.04,-9.8 14.52,-13.96 23.02,-10.68 4.22,1.94 3.82,6.7 3.62,10.54 -8.8,0.96 -17.8,0.66 -26.64,0.14 z"
     id="path54"
     inkscape:connector-curvature="0"
     style="fill:#f4722b" />
  <path
     d="m 210.82,639.74 c 2.6,-2.36 6.62,0.78 3.96,3.68 -2.34,3.64 -5.54,-1.16 -3.96,-3.68 z"
     id="path56"
     inkscape:connector-curvature="0"
     style="fill:#f4722b" />
  <path
     d="m 536.16,659.26 c 0.42,3.86 0.3,7.98 2.82,11.24 1.18,6.5 2.22,13.1 5.66,18.88 6.8,1.16 12.64,9 8.76,15.46 -4.66,3.44 -8.44,9.04 -5.7,14.94 5.18,0.9 10.22,4.52 9.72,10.34 1.22,7.82 -7.54,13.62 -14.62,11.32 -3.66,-0.54 -3.64,-4.92 -4.4,-7.68 -0.88,-0.84 -2.62,-2.52 -3.48,-3.36 -0.28,-3.2 -0.42,-6.38 -0.78,-9.54 -1.08,-20.56 1.76,-41.06 2.02,-61.6 z"
     id="path58"
     inkscape:connector-curvature="0"
     style="fill:#f4722b" />
  <path
     d="m 818.44,718.32 c 3.18,-2.66 7.34,-0.1 8.28,3.5 -1.06,3.02 -3.88,4.84 -7,5.04 -3.82,-0.78 -4.8,-6.86 -1.28,-8.54 z"
     id="path60"
     inkscape:connector-curvature="0"
     style="fill:#f4722b" />
  <path
     d="m 737.38,739.3 c 6.1,-8.78 18,-11.16 27.3,-6.04 5.72,3.98 5.38,11.78 9.84,16.78 -0.96,6.34 -6.8,10.26 -10.68,14.9 l -0.68,0.1 c -3.14,0.32 -6.28,0.3 -9.4,-0.04 -4.24,2.9 -10.78,4.08 -14.6,-0.14 -2.8,-3.16 -8.06,-2.88 -9.82,-7.1 -2.72,-7.5 4.48,-12.84 8.04,-18.46 z"
     id="path62"
     inkscape:connector-curvature="0"
     style="fill:#f4722b" />
  <path
     d="m 735.54,809.44 c 6.24,-4.32 15.32,3.46 14,10.06 -6.74,2.44 -18.32,-1.12 -14,-10.06 z"
     id="path64"
     inkscape:connector-curvature="0"
     style="fill:#f4722b" />
  <path
     d="m 713.3,899.18 c 3.26,-1.28 8.68,-1.72 9.6,2.78 1.32,5.94 -5.56,8.88 -10.4,7.62 -0.8,-3.48 -0.6,-7.12 0.8,-10.4 z"
     id="path66"
     inkscape:connector-curvature="0"
     style="fill:#f4722b" />
</svg>
