<?xml version="1.0" encoding="UTF-8" ?>
<!DOCTYPE svg PUBLIC "-//W3C//DTD SVG 1.1//EN" "http://www.w3.org/Graphics/SVG/1.1/DTD/svg11.dtd">
<svg width="512pt" height="512pt" viewBox="0 0 512 512" version="1.1" xmlns="http://www.w3.org/2000/svg">
<path fill="#f4722b" opacity="1.00" d=" M 0.00 0.00 L 0.10 0.00 C 0.07 0.03 0.02 0.08 0.00 0.11 L 0.00 0.00 Z" />
<path fill="#3e3e3e" opacity="1.00" d=" M 0.10 0.00 L 512.00 0.00 L 512.00 512.00 L 0.00 512.00 L 0.00 0.11 C 0.02 0.08 0.07 0.03 0.10 0.00 Z" />
<path fill="#f5e5c1" opacity="1.00" d=" M 266.97 48.96 C 275.13 41.41 282.56 33.05 290.89 25.71 C 326.16 27.94 361.41 30.45 396.68 32.55 C 392.08 143.90 387.06 255.27 382.34 366.63 C 377.69 364.07 371.74 365.26 368.69 369.65 C 366.91 372.46 363.31 375.13 364.67 378.88 C 365.55 380.99 368.18 380.85 369.58 382.43 C 371.49 384.54 374.76 383.95 376.88 382.50 C 378.44 382.67 380.01 382.68 381.58 382.52 C 380.24 413.98 379.11 445.44 377.38 476.86 C 347.28 474.92 317.10 473.65 286.97 472.00 C 278.86 471.38 270.67 471.50 262.62 470.48 C 264.54 433.84 265.22 397.07 267.07 360.43 C 267.25 362.01 267.32 363.60 267.46 365.20 C 267.89 365.62 268.76 366.46 269.20 366.88 C 269.58 368.26 269.57 370.45 271.40 370.72 C 274.94 371.87 279.32 368.97 278.71 365.06 C 278.96 362.15 276.44 360.34 273.85 359.89 C 272.48 356.94 274.37 354.14 276.70 352.42 C 278.64 349.19 275.72 345.27 272.32 344.69 C 270.60 341.80 270.08 338.50 269.49 335.25 C 268.23 333.62 268.29 331.56 268.08 329.63 C 268.23 324.97 268.53 320.30 268.49 315.63 C 269.02 316.35 270.08 317.79 270.62 318.51 C 272.17 318.95 273.82 318.82 275.35 318.32 C 277.19 315.01 274.52 310.25 270.53 311.38 C 270.09 311.96 269.21 313.11 268.77 313.69 C 268.53 309.79 269.25 305.93 269.03 302.04 C 269.82 304.79 273.81 305.37 275.39 303.08 C 276.32 299.65 273.42 297.03 270.83 295.36 C 270.41 295.71 269.56 296.39 269.13 296.73 C 271.14 251.65 272.73 206.55 274.24 161.42 C 264.41 171.48 254.43 181.41 244.81 191.66 C 226.49 169.66 208.11 147.70 189.79 125.69 L 189.76 125.02 C 195.00 120.56 199.57 115.36 204.54 110.60 C 225.39 90.10 246.20 69.55 266.97 48.96 Z" />
<path fill="#f4722b" opacity="1.00" d=" M 312.53 45.51 C 321.63 39.14 333.64 37.56 344.24 40.59 C 350.91 42.53 357.12 45.95 362.43 50.39 C 365.10 50.37 368.58 50.60 369.33 53.80 C 368.83 54.76 368.47 55.77 368.25 56.82 C 375.15 66.07 376.45 78.77 372.43 89.48 C 369.43 100.15 362.63 110.02 352.59 115.12 C 352.04 121.35 352.67 127.71 352.63 133.98 C 352.44 137.45 353.27 140.99 355.33 143.82 C 356.18 146.83 355.58 149.97 354.81 152.93 C 355.10 156.58 354.58 161.40 350.84 163.15 C 347.31 164.48 344.34 160.31 345.23 157.07 C 346.20 154.55 343.90 152.41 344.43 149.91 C 344.12 147.74 347.41 147.19 346.85 145.01 C 345.77 135.87 346.60 126.67 346.49 117.48 C 343.30 118.63 339.85 118.46 336.61 119.29 C 336.65 124.93 335.04 130.41 335.29 136.06 C 334.06 147.70 333.52 159.37 333.22 171.07 C 332.27 178.35 333.08 185.74 332.17 193.02 C 331.10 200.02 332.10 207.13 331.15 214.14 C 329.94 221.05 331.39 228.16 329.93 235.05 C 329.14 240.16 330.07 245.37 329.36 250.48 C 328.41 254.25 328.82 258.21 327.77 261.98 C 327.74 269.87 327.78 277.77 328.47 285.64 C 329.70 286.55 331.54 286.14 332.37 287.66 C 334.12 289.54 333.18 292.37 334.58 294.42 C 337.62 298.95 336.70 304.63 336.55 309.77 C 335.52 314.74 334.73 320.28 330.99 324.05 C 329.15 326.37 325.29 326.60 322.92 325.09 C 318.33 320.27 319.33 313.09 319.42 307.01 C 320.33 301.31 321.57 295.69 323.25 290.12 C 322.52 287.48 322.42 284.72 322.79 282.01 C 323.80 273.70 322.29 265.18 324.24 256.98 C 324.31 254.63 324.60 252.30 325.18 250.03 C 325.78 244.98 324.95 239.86 325.76 234.83 C 327.05 228.49 325.85 221.98 326.78 215.60 C 327.87 209.13 327.02 202.55 327.64 196.05 C 328.80 187.76 328.23 179.34 329.18 171.02 C 329.63 157.33 330.65 143.67 330.78 129.96 C 330.60 126.23 331.67 122.60 331.71 118.88 C 328.34 118.59 325.06 117.78 321.76 117.07 C 321.27 120.97 320.24 124.75 320.48 128.73 C 319.35 134.47 318.94 140.37 317.23 146.00 C 316.16 153.76 316.68 161.64 316.33 169.46 C 313.74 176.93 317.65 184.75 315.80 192.29 C 315.40 199.27 313.48 206.05 313.57 213.08 C 313.82 215.57 312.18 217.67 312.18 220.12 C 311.75 222.34 314.01 223.82 313.86 226.01 C 313.98 230.95 313.79 235.95 312.65 240.78 C 312.48 242.14 311.33 242.97 310.52 243.96 C 311.69 246.34 312.44 249.41 310.94 251.83 C 308.75 256.08 309.28 261.42 306.19 265.22 C 303.66 267.81 299.13 265.46 299.24 262.04 C 299.29 254.02 299.26 246.01 299.28 237.99 C 299.19 234.72 300.51 231.67 301.33 228.57 C 303.26 224.80 301.62 220.49 302.60 216.51 C 303.13 214.52 303.66 212.52 304.34 210.56 C 305.68 206.65 304.60 202.30 306.47 198.52 C 307.12 189.71 306.92 180.88 307.24 172.05 C 309.35 165.24 307.96 158.00 308.45 150.99 C 308.37 145.45 311.28 140.45 311.63 134.99 C 312.89 127.57 314.80 119.83 312.41 112.46 C 310.03 109.55 306.94 107.28 304.83 104.14 C 298.89 95.72 295.16 85.38 296.11 74.97 C 297.14 63.50 302.80 52.02 312.53 45.51 Z" />
<path fill="#3e3e3e" opacity="1.00" d=" M 328.31 45.19 C 331.94 44.99 335.68 44.81 339.23 45.76 C 348.27 49.50 356.90 56.01 360.42 65.45 C 362.01 69.10 361.84 73.20 363.16 76.93 C 364.51 84.57 361.81 92.75 356.12 98.04 C 348.75 105.50 337.51 107.80 327.39 106.45 C 317.30 104.38 308.69 96.67 305.10 87.06 C 302.04 78.27 303.40 68.18 308.43 60.38 C 312.90 53.19 319.60 46.47 328.31 45.19 Z" />
<path fill="#f4722b" opacity="1.00" d=" M 375.69 50.59 C 378.28 49.52 380.86 52.06 379.60 54.66 C 378.27 55.16 376.85 54.93 375.54 54.55 C 374.80 53.28 375.03 51.83 375.69 50.59 Z" />
<path fill="#f4722b" opacity="1.00" d=" M 272.58 59.77 C 273.65 58.95 274.89 58.23 276.28 58.73 C 277.34 60.94 275.02 63.63 272.71 62.32 C 272.50 61.47 272.46 60.63 272.58 59.77 Z" />
<path fill="#f4722b" opacity="1.00" d=" M 278.40 81.35 C 282.40 79.72 283.83 85.38 281.16 87.67 C 278.35 87.62 277.65 83.55 278.40 81.35 Z" />
<path fill="#f4722b" opacity="1.00" d=" M 240.54 95.45 C 244.00 93.91 247.84 96.64 247.42 100.43 C 250.84 99.93 251.74 104.00 250.40 106.44 C 248.90 106.93 247.26 107.08 245.78 106.44 C 245.44 105.88 244.74 104.76 244.40 104.21 C 241.84 105.83 239.21 108.12 235.94 107.43 C 233.59 106.62 232.89 104.05 233.50 101.83 C 235.13 98.99 238.51 97.96 240.54 95.45 Z" />
<path fill="#f4722b" opacity="1.00" d=" M 222.55 98.86 C 223.56 96.66 226.43 96.69 228.30 97.70 C 230.11 100.89 228.08 104.33 224.97 105.61 C 222.25 104.74 222.25 101.20 222.55 98.86 Z" />
<path fill="#f4722b" opacity="1.00" d=" M 289.35 99.25 C 294.85 95.72 299.85 106.71 293.75 108.60 C 288.42 110.50 284.64 102.06 289.35 99.25 Z" />
<path fill="#f5e5c1" opacity="1.00" d=" M 100.72 181.24 C 112.86 181.26 125.01 181.25 137.15 181.24 C 137.42 186.74 137.12 192.27 137.30 197.78 C 135.26 195.97 132.00 194.27 129.76 196.80 C 127.40 199.98 127.81 205.81 131.90 207.44 C 133.85 207.86 135.64 207.01 137.28 206.05 C 137.26 212.21 137.17 218.37 137.32 224.53 C 151.69 224.48 166.06 224.50 180.43 224.52 C 181.36 212.34 182.72 200.19 183.52 188.01 C 194.77 188.78 206.00 190.18 217.23 191.32 C 216.22 202.39 214.68 213.44 214.06 224.52 C 221.70 224.50 229.35 224.47 236.99 224.53 C 237.00 234.60 237.02 244.67 236.98 254.74 C 228.22 254.74 219.46 254.77 210.70 254.72 C 209.27 264.57 208.45 274.52 207.18 284.40 C 213.89 283.46 220.52 281.98 227.23 281.15 C 227.82 287.39 228.44 293.63 229.05 299.86 C 224.85 298.16 219.57 299.02 216.86 302.90 C 214.25 306.08 209.88 311.62 214.78 314.85 C 211.17 314.65 207.54 314.77 203.92 314.77 C 202.66 324.68 201.92 334.75 200.35 344.57 C 191.48 343.50 182.50 342.60 173.72 341.21 C 173.78 333.48 173.74 325.75 173.74 318.02 C 161.58 317.98 149.42 317.99 137.26 318.02 C 137.23 328.01 137.27 338.00 137.24 347.99 C 126.08 348.01 114.92 348.01 103.76 347.99 C 103.66 339.08 103.91 330.16 103.63 321.26 C 103.73 319.34 103.93 316.96 101.82 315.99 C 97.57 314.35 91.33 316.43 90.31 321.33 C 85.97 321.13 81.61 321.33 77.27 321.23 C 76.13 312.54 74.92 303.84 73.99 295.13 L 74.35 294.41 C 84.16 293.42 93.93 292.14 103.74 291.16 C 103.75 280.12 103.75 269.07 103.74 258.02 C 91.58 257.96 79.42 258.04 67.26 257.98 C 67.25 247.91 67.25 237.85 67.26 227.79 C 79.44 227.66 91.63 227.84 103.82 227.70 C 102.70 212.26 101.35 196.53 100.72 181.24 Z" />
<path fill="#f4722b" opacity="1.00" d=" M 123.53 189.51 C 125.89 188.47 129.59 189.92 128.62 192.97 C 127.04 197.31 118.99 192.83 123.53 189.51 Z" />
<path fill="#f4722b" opacity="1.00" d=" M 129.76 196.80 C 132.00 194.27 135.26 195.97 137.30 197.78 L 137.68 198.11 C 137.72 200.72 138.32 203.60 137.28 206.05 C 135.64 207.01 133.85 207.86 131.90 207.44 C 127.81 205.81 127.40 199.98 129.76 196.80 Z" />
<path fill="#f4722b" opacity="1.00" d=" M 115.60 215.12 C 117.87 213.52 115.27 219.02 115.60 215.12 Z" />
<path fill="#f4722b" opacity="1.00" d=" M 113.32 226.15 C 115.04 224.93 117.39 224.71 119.29 225.66 C 122.06 229.01 119.38 233.40 116.54 235.73 C 112.02 236.20 108.64 228.26 113.32 226.15 Z" />
<path fill="#f4722b" opacity="1.00" d=" M 161.43 255.30 C 159.57 250.49 165.44 248.55 169.09 248.57 C 171.44 249.71 170.76 252.69 170.76 254.82 C 167.90 255.98 164.50 254.98 161.43 255.30 Z" />
<path fill="#f4722b" opacity="1.00" d=" M 184.40 250.96 L 185.06 250.44 C 185.21 250.86 185.50 251.69 185.65 252.10 L 185.00 252.62 C 184.85 252.21 184.55 251.38 184.40 250.96 Z" />
<path fill="#f4722b" opacity="1.00" d=" M 110.68 254.56 C 113.01 253.60 116.55 254.64 115.83 257.75 C 114.07 258.11 112.27 257.73 110.52 257.48 C 110.12 256.46 110.18 255.49 110.68 254.56 Z" />
<path fill="#3e3e3e" opacity="1.00" d=" M 137.23 258.07 C 151.58 257.17 165.93 255.81 180.27 255.03 C 179.36 264.66 178.15 274.29 177.06 283.92 L 176.65 284.58 C 163.52 285.53 150.34 286.84 137.26 287.67 C 137.22 277.80 137.29 267.93 137.23 258.07 Z" />
<path fill="#f4722b" opacity="1.00" d=" M 269.13 296.73 C 269.56 296.39 270.41 295.71 270.83 295.36 C 273.42 297.03 276.32 299.65 275.39 303.08 C 273.81 305.37 269.82 304.79 269.03 302.04 C 269.05 300.27 269.07 298.50 269.13 296.73 Z" />
<path fill="#f4722b" opacity="1.00" d=" M 210.08 299.20 C 213.01 298.39 210.64 302.16 209.54 299.83 L 210.08 299.20 Z" />
<path fill="#f4722b" opacity="1.00" d=" M 216.86 302.90 C 219.57 299.02 224.85 298.16 229.05 299.86 C 230.04 304.12 231.17 308.40 231.43 312.79 C 231.57 315.11 228.82 315.46 227.08 315.17 C 223.10 314.72 219.12 315.65 215.16 315.19 L 214.78 314.85 C 209.88 311.62 214.25 306.08 216.86 302.90 Z" />
<path fill="#f4722b" opacity="1.00" d=" M 192.38 302.28 C 193.74 301.97 195.20 301.99 196.51 302.53 C 196.89 303.87 197.14 305.31 196.62 306.66 C 195.31 307.06 193.99 306.71 192.75 306.29 C 192.14 305.02 191.82 303.62 192.38 302.28 Z" />
<path fill="#f4722b" opacity="1.00" d=" M 270.53 311.38 C 274.52 310.25 277.19 315.01 275.35 318.32 C 273.82 318.82 272.17 318.95 270.62 318.51 C 270.08 317.79 269.02 316.35 268.49 315.63 L 268.49 315.63 C 268.56 315.15 268.70 314.18 268.77 313.69 C 269.21 313.11 270.09 311.96 270.53 311.38 Z" />
<path fill="#f4722b" opacity="1.00" d=" M 90.31 321.33 C 91.33 316.43 97.57 314.35 101.82 315.99 C 103.93 316.96 103.73 319.34 103.63 321.26 C 99.23 321.74 94.73 321.59 90.31 321.33 Z" />
<path fill="#f4722b" opacity="1.00" d=" M 105.41 319.87 C 106.71 318.69 108.72 320.26 107.39 321.71 C 106.22 323.53 104.62 321.13 105.41 319.87 Z" />
<path fill="#f4722b" opacity="1.00" d=" M 268.08 329.63 C 268.29 331.56 268.23 333.62 269.49 335.25 C 270.08 338.50 270.60 341.80 272.32 344.69 C 275.72 345.27 278.64 349.19 276.70 352.42 C 274.37 354.14 272.48 356.94 273.85 359.89 C 276.44 360.34 278.96 362.15 278.71 365.06 C 279.32 368.97 274.94 371.87 271.40 370.72 C 269.57 370.45 269.58 368.26 269.20 366.88 C 268.76 366.46 267.89 365.62 267.46 365.20 C 267.32 363.60 267.25 362.01 267.07 360.43 C 266.53 350.15 267.95 339.90 268.08 329.63 Z" />
<path fill="#f4722b" opacity="1.00" d=" M 409.22 359.16 C 410.81 357.83 412.89 359.11 413.36 360.91 C 412.83 362.42 411.42 363.33 409.86 363.43 C 407.95 363.04 407.46 360.00 409.22 359.16 Z" />
<path fill="#f4722b" opacity="1.00" d=" M 368.69 369.65 C 371.74 365.26 377.69 364.07 382.34 366.63 C 385.20 368.62 385.03 372.52 387.26 375.02 C 386.78 378.19 383.86 380.15 381.92 382.47 L 381.58 382.52 C 380.01 382.68 378.44 382.67 376.88 382.50 C 374.76 383.95 371.49 384.54 369.58 382.43 C 368.18 380.85 365.55 380.99 364.67 378.88 C 363.31 375.13 366.91 372.46 368.69 369.65 Z" />
<path fill="#f4722b" opacity="1.00" d=" M 367.77 404.72 C 370.89 402.56 375.43 406.45 374.77 409.75 C 371.40 410.97 365.61 409.19 367.77 404.72 Z" />
<path fill="#f4722b" opacity="1.00" d=" M 356.65 449.59 C 358.28 448.95 360.99 448.73 361.45 450.98 C 362.11 453.95 358.67 455.42 356.25 454.79 C 355.85 453.05 355.95 451.23 356.65 449.59 Z" />
</svg>
