<?xml version="1.0" encoding="UTF-8" ?>
<!DOCTYPE svg PUBLIC "-//W3C//DTD SVG 1.1//EN" "http://www.w3.org/Graphics/SVG/1.1/DTD/svg11.dtd">
<svg width="512pt" height="512pt" viewBox="0 0 512 512" version="1.1" xmlns="http://www.w3.org/2000/svg">
<path fill="#b65622" opacity="1.00" d=" M 0.00 0.00 L 0.02 0.00 C 0.01 0.02 0.00 0.07 0.00 0.09 L 0.00 0.00 Z" />
<path fill="#3e3e3e" opacity="1.00" d=" M 0.02 0.00 L 512.00 0.00 L 512.00 512.00 L 0.00 512.00 L 0.00 0.09 C 0.00 0.07 0.01 0.02 0.02 0.00 Z" />
<path fill="#f3722b" opacity="1.00" d=" M 36.41 48.34 C 39.43 47.81 42.07 49.80 44.94 50.34 C 50.73 51.32 56.17 53.59 61.78 55.25 C 69.95 58.31 78.49 60.21 86.65 63.27 C 90.79 64.77 95.22 65.15 99.39 66.56 C 105.34 68.01 110.85 70.78 116.83 72.13 C 132.81 78.24 147.86 86.54 163.67 93.05 C 178.42 97.28 191.76 105.36 206.54 109.49 C 210.19 110.67 213.64 112.33 217.11 113.94 C 220.17 115.46 223.95 114.96 226.72 117.13 C 231.20 120.49 236.85 121.33 242.11 122.82 C 245.94 123.93 249.92 124.36 253.78 125.34 C 269.75 129.95 285.75 134.60 301.98 138.29 C 314.74 141.12 327.27 144.89 339.98 148.00 C 347.91 149.80 355.70 153.21 363.98 152.60 C 369.40 152.56 374.66 154.32 380.05 154.50 C 382.60 154.54 384.38 152.44 385.64 150.49 C 385.35 155.24 387.55 159.51 390.09 163.35 C 388.79 163.64 387.49 163.93 386.20 164.22 C 382.06 163.08 377.92 161.68 373.57 161.72 C 374.58 164.30 376.91 165.67 379.43 166.48 C 376.46 171.22 379.33 176.86 377.97 181.85 C 375.75 183.45 372.54 182.75 370.31 184.31 C 368.64 185.98 370.27 188.17 370.86 189.93 C 373.06 195.28 374.51 200.90 377.01 206.13 C 380.55 206.28 384.23 206.14 387.62 207.37 C 389.64 208.40 391.44 209.81 393.38 211.00 C 391.28 206.24 387.92 202.21 385.32 197.74 C 383.87 195.27 382.11 192.99 380.12 190.94 C 383.17 192.69 386.84 193.84 388.84 196.96 C 392.42 201.95 396.00 206.94 399.77 211.79 C 397.36 212.55 395.03 213.54 392.92 214.92 C 394.35 215.17 395.78 215.42 397.23 215.66 C 398.66 217.85 399.93 220.14 401.03 222.52 C 400.36 222.87 399.04 223.57 398.38 223.92 C 395.75 225.02 392.95 225.88 390.81 227.86 C 385.41 232.97 377.55 232.74 371.18 235.87 C 367.50 237.86 363.24 238.40 359.61 240.47 C 354.79 242.90 349.51 244.27 344.17 244.90 C 338.36 247.37 332.29 249.13 326.47 251.58 C 323.18 252.93 319.18 252.88 316.56 255.54 C 312.21 257.45 307.83 259.45 303.00 259.67 C 294.41 263.28 285.44 266.03 277.04 270.10 C 274.81 271.09 272.35 271.23 269.96 271.26 C 236.94 271.22 203.92 271.28 170.90 271.23 C 166.59 271.28 161.46 272.04 159.08 276.11 C 156.82 280.37 157.26 285.36 157.24 290.01 C 157.21 298.26 157.35 306.51 157.17 314.76 C 153.64 315.77 150.35 317.50 146.77 318.32 C 142.64 318.75 138.40 319.32 134.27 318.61 C 129.58 316.60 125.09 314.06 120.97 311.02 C 115.07 307.83 109.14 304.52 104.11 300.02 C 100.34 296.34 96.64 292.52 92.29 289.51 C 89.22 287.37 87.15 284.15 84.34 281.71 C 77.36 276.03 71.81 268.86 65.28 262.68 C 61.41 259.13 58.60 254.63 54.91 250.91 C 48.73 245.09 43.51 238.38 38.23 231.76 C 32.95 224.29 28.43 216.31 23.14 208.85 C 20.63 204.55 17.53 200.54 15.88 195.79 C 12.84 187.17 9.80 178.44 8.89 169.30 C 7.52 160.28 6.05 151.03 7.89 141.97 C 8.58 137.97 7.43 133.78 8.91 129.90 C 10.81 124.90 9.32 119.37 11.25 114.37 C 13.05 106.15 13.00 97.64 15.02 89.45 C 18.88 82.48 19.44 74.26 23.47 67.35 C 23.92 70.08 23.80 72.84 23.13 75.52 C 23.43 75.52 24.04 75.50 24.34 75.49 C 25.82 73.61 27.62 71.87 28.50 69.61 C 29.32 66.33 29.55 62.90 30.85 59.74 C 32.65 55.92 34.35 52.00 36.41 48.34 Z" />
<path fill="#7e3b16" opacity="1.00" d=" M 27.31 58.80 C 28.48 59.12 29.67 59.41 30.85 59.74 C 29.55 62.90 29.32 66.33 28.50 69.61 C 27.62 71.87 25.82 73.61 24.34 75.49 C 24.04 75.50 23.43 75.52 23.13 75.52 C 23.80 72.84 23.92 70.08 23.47 67.35 C 24.01 64.28 26.13 61.67 27.31 58.80 Z" />
<path fill="#7e3b16" opacity="1.00" d=" M 40.82 89.58 C 45.25 88.22 48.72 91.79 52.29 93.75 C 53.65 96.06 55.17 98.26 56.76 100.41 C 52.68 102.55 48.06 102.14 43.65 102.60 C 34.77 110.06 28.20 120.62 26.25 132.16 C 25.19 137.72 24.94 143.40 25.10 149.06 C 25.34 156.35 24.48 163.76 26.27 170.92 C 27.46 175.80 29.11 180.56 30.80 185.29 C 33.45 192.39 40.35 196.36 44.74 202.21 C 46.45 205.10 50.09 205.44 53.11 205.60 C 55.68 205.28 58.02 201.23 60.56 203.80 C 59.75 204.97 58.86 206.08 57.92 207.14 C 53.53 209.41 49.33 212.04 44.84 214.13 C 39.06 212.19 33.45 209.78 27.80 207.48 C 25.27 202.49 20.55 199.03 18.04 194.00 C 13.58 184.88 10.85 175.04 8.88 165.12 C 8.38 153.84 8.99 142.53 9.25 131.27 C 11.83 124.09 12.26 116.07 16.42 109.49 C 19.10 105.50 21.00 100.90 24.58 97.57 C 28.95 93.30 34.41 89.25 40.82 89.58 Z" />
<path fill="#b65622" opacity="1.00" d=" M 56.76 100.41 L 57.28 100.21 C 60.44 104.52 63.14 109.20 65.29 114.10 C 60.66 110.81 57.71 103.71 51.16 104.39 C 45.08 105.16 38.09 107.29 35.36 113.35 C 31.88 120.62 27.49 127.79 26.75 136.00 C 25.52 145.15 25.53 154.48 26.29 163.65 C 28.36 171.06 29.01 179.11 33.35 185.67 C 35.16 188.75 36.68 192.16 39.61 194.38 C 43.83 197.90 48.45 202.69 54.50 201.61 C 59.86 201.46 63.18 196.93 66.78 193.63 C 66.53 197.85 63.47 201.03 61.46 204.53 C 60.77 205.97 59.44 206.78 57.92 207.14 C 58.86 206.08 59.75 204.97 60.56 203.80 C 58.02 201.23 55.68 205.28 53.11 205.60 C 50.09 205.44 46.45 205.10 44.74 202.21 C 40.35 196.36 33.45 192.39 30.80 185.29 C 29.11 180.56 27.46 175.80 26.27 170.92 C 24.48 163.76 25.34 156.35 25.10 149.06 C 24.94 143.40 25.19 137.72 26.25 132.16 C 28.20 120.62 34.77 110.06 43.65 102.60 C 48.06 102.14 52.68 102.55 56.76 100.41 Z" />
<path fill="#7e3b16" opacity="1.00" d=" M 51.16 104.39 C 57.71 103.71 60.66 110.81 65.29 114.10 C 68.91 118.79 69.62 124.91 71.59 130.36 C 72.65 136.53 73.85 142.72 74.24 148.99 C 74.40 159.23 74.81 169.60 72.56 179.67 C 71.15 184.52 70.77 190.02 66.78 193.63 C 63.18 196.93 59.86 201.46 54.50 201.61 C 48.45 202.69 43.83 197.90 39.61 194.38 C 36.68 192.16 35.16 188.75 33.35 185.67 C 29.01 179.11 28.36 171.06 26.29 163.65 C 25.53 154.48 25.52 145.15 26.75 136.00 C 27.49 127.79 31.88 120.62 35.36 113.35 C 38.09 107.29 45.08 105.16 51.16 104.39 Z" />
<path fill="#7e3b16" opacity="1.00" d=" M 385.64 150.49 C 388.18 152.62 387.94 156.41 389.95 158.98 C 391.70 161.06 390.23 164.83 392.83 166.16 C 395.99 167.00 399.95 165.45 402.47 168.15 C 401.61 168.15 399.91 168.15 399.06 168.15 C 403.35 171.88 405.40 177.26 408.02 182.15 C 410.99 186.96 413.98 191.83 415.93 197.17 C 416.74 200.64 414.71 204.11 415.36 207.61 C 416.45 208.06 417.58 208.41 418.70 208.78 C 418.55 209.10 418.23 209.74 418.07 210.06 C 416.78 211.71 417.15 213.70 417.58 215.59 C 419.86 214.38 422.12 213.12 424.35 211.81 C 424.20 212.55 423.89 214.03 423.73 214.77 C 423.51 215.85 423.28 216.93 423.07 218.01 C 423.90 219.16 424.79 220.28 425.64 221.43 C 419.95 223.00 413.97 224.50 409.11 227.95 C 409.89 230.58 411.37 232.93 412.70 235.32 C 411.11 236.17 409.52 237.02 407.96 237.91 C 407.01 239.52 406.00 241.09 404.86 242.57 C 404.90 240.83 404.65 239.03 405.17 237.34 C 406.44 235.86 408.05 234.73 409.55 233.49 C 405.96 233.24 402.36 233.34 398.78 233.05 C 399.36 231.90 400.02 230.79 400.48 229.59 C 400.23 227.57 399.11 225.78 398.38 223.92 C 399.04 223.57 400.36 222.87 401.03 222.52 C 399.93 220.14 398.66 217.85 397.23 215.66 C 395.78 215.42 394.35 215.17 392.92 214.92 C 395.03 213.54 397.36 212.55 399.77 211.79 C 396.00 206.94 392.42 201.95 388.84 196.96 C 386.84 193.84 383.17 192.69 380.12 190.94 C 382.11 192.99 383.87 195.27 385.32 197.74 C 387.92 202.21 391.28 206.24 393.38 211.00 C 391.44 209.81 389.64 208.40 387.62 207.37 C 384.23 206.14 380.55 206.28 377.01 206.13 C 374.51 200.90 373.06 195.28 370.86 189.93 C 370.91 188.40 371.00 186.88 371.12 185.36 C 373.52 185.46 377.00 187.18 378.37 184.27 C 381.06 179.31 378.26 173.37 379.86 168.13 C 381.32 166.01 383.90 165.13 386.20 164.22 C 387.49 163.93 388.79 163.64 390.09 163.35 C 387.55 159.51 385.35 155.24 385.64 150.49 Z" />
<path fill="#b65622" opacity="1.00" d=" M 373.57 161.72 C 377.92 161.68 382.06 163.08 386.20 164.22 C 383.90 165.13 381.32 166.01 379.86 168.13 C 378.26 173.37 381.06 179.31 378.37 184.27 C 377.00 187.18 373.52 185.46 371.12 185.36 C 371.00 186.88 370.91 188.40 370.86 189.93 C 370.27 188.17 368.64 185.98 370.31 184.31 C 372.54 182.75 375.75 183.45 377.97 181.85 C 379.33 176.86 376.46 171.22 379.43 166.48 C 376.91 165.67 374.58 164.30 373.57 161.72 Z" />
<path fill="#f3722b" opacity="1.00" d=" M 399.06 168.15 C 399.91 168.15 401.61 168.15 402.47 168.15 C 410.07 168.50 417.34 171.88 422.51 177.47 C 424.08 179.53 425.79 181.47 427.52 183.40 C 428.17 186.10 429.94 188.49 429.85 191.35 C 429.69 196.20 430.24 201.42 427.87 205.85 C 425.87 209.04 422.10 210.32 418.95 212.04 C 418.73 211.54 418.29 210.56 418.07 210.06 C 418.23 209.74 418.55 209.10 418.70 208.78 C 417.58 208.41 416.45 208.06 415.36 207.61 C 414.71 204.11 416.74 200.64 415.93 197.17 C 413.98 191.83 410.99 186.96 408.02 182.15 C 405.40 177.26 403.35 171.88 399.06 168.15 Z" />
<path fill="#b65622" opacity="1.00" d=" M 429.85 191.35 C 431.31 192.46 430.77 194.40 430.88 195.95 C 430.95 199.92 430.23 203.85 428.69 207.51 C 428.22 209.10 427.39 210.95 428.58 212.46 C 431.41 217.11 434.59 221.79 435.49 227.28 C 435.80 230.19 435.39 233.11 435.09 236.01 C 432.94 233.04 430.80 229.80 430.78 225.98 C 430.71 221.33 428.69 217.11 426.50 213.12 C 425.58 213.67 424.65 214.21 423.73 214.77 C 423.89 214.03 424.20 212.55 424.35 211.81 C 422.12 213.12 419.86 214.38 417.58 215.59 C 417.15 213.70 416.78 211.71 418.07 210.06 C 418.29 210.56 418.73 211.54 418.95 212.04 C 422.10 210.32 425.87 209.04 427.87 205.85 C 430.24 201.42 429.69 196.20 429.85 191.35 Z" />
<path fill="#f3722b" opacity="1.00" d=" M 428.58 212.46 C 427.39 210.95 428.22 209.10 428.69 207.51 C 432.26 211.22 436.30 214.52 439.33 218.71 C 441.65 222.00 445.22 224.21 447.16 227.80 C 455.79 238.77 465.71 248.66 474.32 259.65 C 478.57 266.76 482.38 274.14 486.73 281.20 C 489.10 284.72 490.09 288.98 492.64 292.42 C 495.22 297.18 498.05 301.86 500.02 306.93 C 501.98 311.73 501.20 316.98 501.21 322.02 C 501.11 324.56 501.31 327.15 500.74 329.65 C 497.69 332.45 493.30 332.35 489.62 333.76 C 485.93 335.09 481.37 335.56 478.08 333.04 C 472.46 328.95 471.13 321.69 467.99 315.89 C 462.58 306.48 456.35 297.58 450.62 288.38 C 446.65 283.03 441.21 278.98 437.06 273.77 C 432.67 273.25 426.60 275.72 423.78 271.10 C 417.61 263.18 411.18 255.46 405.16 247.43 C 401.47 247.32 397.80 248.07 394.12 247.83 C 391.76 247.66 390.43 245.46 389.16 243.76 C 387.81 241.74 385.85 240.22 384.56 238.17 C 384.64 237.44 384.81 235.97 384.90 235.24 C 385.28 235.18 386.05 235.08 386.44 235.02 C 387.29 235.89 388.13 236.77 388.96 237.67 C 392.74 238.41 394.29 234.70 396.04 232.14 C 396.95 232.45 397.86 232.75 398.78 233.05 C 402.36 233.34 405.96 233.24 409.55 233.49 C 408.05 234.73 406.44 235.86 405.17 237.34 C 404.65 239.03 404.90 240.83 404.86 242.57 C 406.00 241.09 407.01 239.52 407.96 237.91 C 409.52 237.02 411.11 236.17 412.70 235.32 C 411.37 232.93 409.89 230.58 409.11 227.95 C 413.97 224.50 419.95 223.00 425.64 221.43 C 424.79 220.28 423.90 219.16 423.07 218.01 C 423.28 216.93 423.51 215.85 423.73 214.77 C 424.65 214.21 425.58 213.67 426.50 213.12 C 428.69 217.11 430.71 221.33 430.78 225.98 C 430.80 229.80 432.94 233.04 435.09 236.01 C 435.39 233.11 435.80 230.19 435.49 227.28 C 434.59 221.79 431.41 217.11 428.58 212.46 Z" />
<path fill="#b65622" opacity="1.00" d=" M 390.81 227.86 C 392.95 225.88 395.75 225.02 398.38 223.92 C 399.11 225.78 400.23 227.57 400.48 229.59 C 400.02 230.79 399.36 231.90 398.78 233.05 C 397.86 232.75 396.95 232.45 396.04 232.14 C 394.29 234.70 392.74 238.41 388.96 237.67 C 388.13 236.77 387.29 235.89 386.44 235.02 C 388.77 234.66 391.19 234.40 393.36 233.37 C 394.59 231.33 394.91 228.92 395.51 226.65 C 393.94 227.03 392.36 227.40 390.81 227.86 Z" />
<path fill="#7e3b16" opacity="1.00" d=" M 390.81 227.86 C 392.36 227.40 393.94 227.03 395.51 226.65 C 394.91 228.92 394.59 231.33 393.36 233.37 C 391.19 234.40 388.77 234.66 386.44 235.02 C 386.05 235.08 385.28 235.18 384.90 235.24 C 384.81 235.97 384.64 237.44 384.56 238.17 C 383.90 236.78 383.26 235.38 382.63 233.99 C 378.63 233.55 375.12 235.99 371.18 235.87 C 377.55 232.74 385.41 232.97 390.81 227.86 Z" />
<path fill="#7e3b16" opacity="1.00" d=" M 417.73 233.68 C 419.25 231.40 421.51 229.73 424.07 228.80 C 427.47 229.60 429.79 232.52 432.02 235.01 C 435.08 239.20 438.25 243.36 440.68 247.96 C 442.74 252.91 446.67 256.95 447.99 262.22 C 448.75 264.46 446.30 265.83 445.20 267.44 C 442.89 265.93 440.11 264.97 438.22 262.92 C 432.06 252.73 425.08 243.02 417.73 233.68 Z" />
<path fill="#b65622" opacity="1.00" d=" M 424.17 235.69 C 427.35 236.22 428.34 239.64 430.08 241.90 C 432.19 245.56 435.79 248.66 436.00 253.14 C 432.82 246.79 427.43 241.98 424.17 235.69 Z" />
<path fill="#b65622" opacity="1.00" d=" M 440.68 247.96 C 444.27 248.96 444.88 253.20 447.55 255.36 C 451.72 258.63 455.82 262.11 460.69 264.34 C 463.56 265.26 462.62 269.30 460.81 270.85 C 456.17 274.59 449.98 275.20 444.82 277.98 C 441.63 279.17 439.76 274.72 441.15 272.29 C 442.30 270.52 443.82 269.03 445.20 267.44 C 446.30 265.83 448.75 264.46 447.99 262.22 C 446.67 256.95 442.74 252.91 440.68 247.96 Z" />
<path fill="#f5e5c1" opacity="1.00" d=" M 167.25 281.25 C 207.36 281.32 247.47 281.12 287.57 281.35 C 287.40 297.40 287.55 313.45 287.49 329.49 C 260.16 329.50 232.83 329.49 205.50 329.50 C 205.47 337.98 205.53 346.47 205.47 354.95 C 219.48 355.09 233.85 355.80 247.08 360.87 C 254.47 363.75 261.57 368.59 265.20 375.86 C 270.36 386.20 271.23 398.63 267.53 409.59 C 263.88 420.40 256.00 429.47 246.35 435.43 C 233.00 443.94 217.09 447.01 201.54 448.41 C 199.49 439.04 198.12 429.54 196.38 420.12 C 205.92 419.43 215.68 417.82 224.16 413.15 C 229.00 410.53 233.25 405.86 233.51 400.11 C 234.00 395.71 231.58 391.36 227.71 389.30 C 220.21 385.13 211.30 385.36 202.98 385.00 C 191.05 385.15 179.15 386.00 167.23 386.25 C 167.29 351.25 167.23 316.25 167.25 281.25 Z" />
<path fill="#f5e5c1" opacity="1.00" d=" M 357.37 281.65 C 373.38 278.66 390.36 281.44 404.59 289.37 C 421.72 298.91 434.97 314.99 441.51 333.43 C 452.58 363.43 446.39 399.69 424.12 423.03 C 413.69 434.27 399.91 442.50 384.82 445.56 C 367.34 449.20 348.54 446.03 333.27 436.76 C 316.58 426.78 303.98 410.43 298.02 391.97 C 287.97 361.92 295.17 326.26 317.57 303.53 C 328.18 292.40 342.23 284.51 357.37 281.65 Z" />
<path fill="#3e3e3e" opacity="1.00" d=" M 364.47 331.54 C 373.65 329.76 383.44 332.43 390.78 338.13 C 406.19 350.02 410.25 372.40 404.22 390.22 C 399.82 402.39 389.66 412.69 376.95 415.89 C 369.40 417.96 361.28 416.09 354.57 412.34 C 343.47 406.06 336.15 394.10 334.57 381.56 C 333.30 371.27 334.49 360.45 339.28 351.16 C 344.16 341.27 353.51 333.50 364.47 331.54 Z" />
</svg>
