<?xml version="1.0" encoding="UTF-8" ?>
<!DOCTYPE svg PUBLIC "-//W3C//DTD SVG 1.1//EN" "http://www.w3.org/Graphics/SVG/1.1/DTD/svg11.dtd">
<svg width="512pt" height="512pt" viewBox="0 0 512 512" version="1.1" xmlns="http://www.w3.org/2000/svg">
<path fill="#3e3e3e" opacity="1.00" d=" M 0.00 0.00 L 512.00 0.00 L 512.00 512.00 L 0.00 512.00 L 0.00 0.00 Z" />
<path fill="#f5e5c1" opacity="1.00" d=" M 404.53 17.47 C 411.27 15.84 418.26 15.25 425.04 17.06 C 428.92 19.95 431.92 23.87 435.27 27.33 C 435.95 31.23 437.47 34.97 437.68 38.94 C 436.98 42.65 435.61 46.21 434.70 49.87 C 432.56 55.02 428.52 59.30 423.66 62.01 C 423.27 60.63 422.89 59.26 422.54 57.88 C 422.63 59.91 422.91 61.98 422.52 64.00 C 420.61 65.51 418.44 66.60 416.36 67.82 C 416.35 69.90 416.69 72.03 416.18 74.07 C 414.52 77.32 411.87 79.90 409.47 82.58 C 409.20 85.00 409.72 87.48 409.16 89.88 C 407.94 93.93 404.80 97.01 401.50 99.47 C 401.84 102.97 403.07 106.47 402.51 110.00 C 400.47 114.52 395.72 116.72 391.45 118.62 C 386.64 136.51 383.10 154.74 378.82 172.77 C 375.53 187.41 372.23 202.05 368.97 216.70 C 367.29 225.51 363.00 233.46 360.09 241.88 C 357.40 242.52 354.69 243.11 351.99 243.67 C 355.00 235.74 358.93 228.15 361.44 220.04 C 366.40 202.52 369.75 184.61 374.25 166.97 C 377.76 151.46 381.85 136.08 385.29 120.56 C 385.94 117.46 387.50 114.68 388.67 111.77 C 387.44 110.18 385.92 108.85 384.46 107.48 C 384.05 107.47 383.22 107.45 382.81 107.44 C 381.65 111.37 380.03 115.19 377.18 118.19 C 365.91 134.00 355.12 150.15 344.24 166.24 C 342.02 169.35 339.75 172.43 338.00 175.84 C 336.11 179.49 332.64 182.08 331.00 185.89 C 327.75 193.86 324.28 201.78 322.17 210.16 L 321.84 210.87 C 320.88 215.30 319.16 219.51 317.80 223.82 C 316.73 227.80 315.99 231.86 314.69 235.78 C 311.39 231.34 306.59 228.41 301.19 227.27 C 308.67 214.34 315.33 200.94 321.78 187.48 C 325.12 183.55 328.74 179.82 331.20 175.21 C 343.02 160.22 353.69 144.37 365.24 129.18 C 369.17 123.46 374.19 118.39 376.88 111.91 C 377.72 109.74 378.63 107.59 379.57 105.46 C 378.43 105.44 377.29 105.43 376.16 105.43 C 374.56 109.48 372.31 113.23 369.55 116.58 C 352.65 139.04 335.94 161.65 318.89 184.00 C 316.34 188.27 313.35 192.22 310.39 196.19 C 302.79 209.92 295.30 223.72 288.07 237.65 C 292.67 236.22 297.50 236.06 302.27 236.53 C 307.36 240.54 310.45 246.24 312.84 252.14 C 310.84 252.57 308.84 252.99 306.84 253.42 C 304.84 250.05 303.36 245.98 299.85 243.87 C 294.08 242.89 287.12 243.37 282.90 247.93 C 280.67 250.17 279.58 253.20 278.24 256.00 C 276.67 254.23 275.08 252.47 273.50 250.71 C 283.23 233.09 293.20 215.62 302.98 198.04 C 304.73 194.90 306.71 191.88 307.98 188.50 C 311.99 184.21 315.48 179.49 318.76 174.64 C 333.75 154.67 348.58 134.58 363.57 114.62 C 364.96 112.85 366.00 110.86 366.92 108.82 C 366.10 108.72 364.46 108.51 363.64 108.41 C 361.39 104.25 361.41 99.54 361.68 94.95 C 362.82 91.14 364.23 87.09 367.56 84.61 C 369.81 82.91 371.75 80.85 373.20 78.42 C 374.12 72.52 377.03 66.98 380.61 62.26 C 381.36 62.30 382.87 62.39 383.63 62.44 C 383.28 61.06 382.16 59.71 382.61 58.25 C 383.96 56.79 385.69 55.78 387.37 54.76 C 387.51 49.89 389.78 45.44 393.47 42.31 C 394.05 37.36 393.98 32.19 395.81 27.49 C 398.26 23.79 401.70 20.88 404.53 17.47 Z" />
<path fill="#3e3e3e" opacity="1.00" d=" M 403.52 25.59 C 405.25 23.30 408.18 22.56 410.85 22.03 C 409.78 26.06 408.51 30.03 407.35 34.03 C 406.77 34.16 405.62 34.42 405.04 34.55 C 403.99 36.28 402.33 37.37 400.50 38.11 C 399.94 33.72 400.96 29.22 403.52 25.59 Z" />
<path fill="#3e3e3e" opacity="1.00" d=" M 413.05 35.02 C 413.73 30.24 415.90 25.87 418.92 22.15 C 425.98 24.68 432.89 30.97 432.68 39.00 C 432.93 43.37 429.99 47.11 427.22 50.18 C 425.74 51.95 423.33 51.30 421.35 51.30 C 421.79 52.54 422.23 53.79 422.67 55.04 C 421.21 56.19 419.76 57.36 418.31 58.53 C 418.40 59.36 418.56 61.03 418.64 61.86 C 417.82 62.10 417.02 62.36 416.18 62.50 C 414.48 57.52 413.42 52.07 410.19 47.80 C 406.80 45.44 403.05 43.66 399.19 42.23 C 399.27 41.85 399.43 41.08 399.51 40.70 C 403.68 39.45 408.04 38.05 412.43 38.73 C 415.53 40.74 417.78 43.79 420.14 46.58 C 421.93 46.63 423.73 46.65 425.53 46.62 C 425.08 45.07 424.64 43.53 424.22 41.98 C 421.24 38.62 417.38 36.20 413.05 35.02 Z" />
<path fill="#3e3e3e" opacity="1.00" d=" M 391.66 46.72 C 392.63 45.26 394.46 45.65 395.96 45.67 C 402.50 46.02 408.39 50.75 410.45 56.92 C 404.24 55.06 397.88 53.66 391.39 53.28 C 391.47 51.09 391.48 48.90 391.66 46.72 Z" />
<path fill="#3e3e3e" opacity="1.00" d=" M 385.62 60.48 C 391.85 55.46 401.65 54.72 407.97 59.94 C 411.37 62.52 411.98 67.03 412.74 70.93 C 411.26 72.77 409.87 74.68 408.50 76.60 C 408.11 76.56 407.32 76.49 406.92 76.46 C 404.24 72.63 399.43 70.48 397.96 65.84 C 394.48 63.82 390.47 63.34 386.52 63.42 C 386.21 62.44 385.86 61.48 385.62 60.48 Z" />
<path fill="#3e3e3e" opacity="1.00" d=" M 381.17 69.11 C 382.35 66.99 385.03 67.60 387.03 67.44 C 393.39 67.31 399.59 70.90 402.42 76.63 C 405.89 80.95 406.31 86.74 404.24 91.77 C 402.87 93.23 401.45 94.65 400.01 96.05 C 397.83 89.78 394.21 84.10 389.95 79.06 C 387.69 76.43 384.02 76.57 380.95 75.81 C 378.25 74.50 379.58 70.80 381.17 69.11 Z" />
<path fill="#3e3e3e" opacity="1.00" d=" M 369.67 88.78 C 373.29 86.46 375.60 82.31 379.90 81.06 C 382.36 79.90 385.03 81.05 387.51 81.50 C 392.15 87.58 398.06 93.42 399.22 101.32 C 399.79 104.53 398.60 107.62 397.47 110.56 C 397.09 110.83 396.31 111.38 395.93 111.66 C 395.56 110.87 395.20 110.09 394.84 109.31 C 395.33 104.68 391.26 101.64 387.85 99.37 C 381.12 95.30 372.94 97.66 366.34 100.75 C 365.15 96.70 365.70 91.11 369.67 88.78 Z" />
<path fill="#f4722b" opacity="1.00" d=" M 126.44 98.37 C 128.05 97.07 130.31 97.75 132.21 97.48 C 159.70 132.08 187.40 166.52 214.84 201.16 C 215.92 202.51 217.02 203.85 217.91 205.34 C 217.07 207.60 214.76 208.87 213.15 210.55 C 212.39 210.50 210.86 210.41 210.09 210.36 C 182.66 180.21 155.40 149.90 127.96 119.75 C 125.46 117.00 123.04 114.19 120.48 111.50 C 119.17 110.10 117.94 108.62 116.71 107.15 C 119.95 104.22 122.97 101.04 126.44 98.37 Z" />
<path fill="#3e3e3e" opacity="1.00" d=" M 126.35 103.46 C 129.81 102.13 133.05 106.19 131.34 109.34 C 130.31 112.32 125.63 112.46 124.13 109.85 C 122.61 107.76 123.68 103.91 126.35 103.46 Z" />
<path fill="#f5e5c1" opacity="1.00" d=" M 124.34 106.38 C 125.92 105.61 127.54 104.93 129.16 104.26 C 129.36 104.85 129.76 106.02 129.96 106.61 C 128.08 106.58 126.20 106.54 124.34 106.38 Z" />
<path fill="#f5e5c1" opacity="1.00" d=" M 124.77 110.09 C 126.35 108.72 128.38 108.37 130.39 108.18 C 130.00 111.33 126.89 110.08 124.77 110.09 Z" />
<path fill="#f4722b" opacity="1.00" d=" M 105.88 116.92 C 108.87 113.96 112.14 111.29 115.18 108.37 C 116.16 109.51 117.15 110.65 118.15 111.79 C 120.89 114.92 123.70 117.99 126.49 121.08 C 152.71 150.01 178.83 179.04 205.07 207.95 C 206.60 209.83 209.07 212.00 208.07 214.71 C 206.58 216.65 204.67 218.21 202.91 219.90 C 192.32 210.22 182.23 200.03 171.91 190.07 C 155.68 175.00 140.31 159.04 124.23 143.81 C 121.13 140.77 117.79 137.95 115.01 134.61 C 111.74 130.43 108.01 126.66 104.48 122.72 C 103.92 120.76 104.15 118.26 105.88 116.92 Z" />
<path fill="#f5e5c1" opacity="1.00" d=" M 120.48 111.50 C 123.04 114.19 125.46 117.00 127.96 119.75 C 127.59 120.08 126.86 120.75 126.49 121.08 C 123.70 117.99 120.89 114.92 118.15 111.79 C 118.73 111.72 119.90 111.58 120.48 111.50 Z" />
<path fill="#3e3e3e" opacity="1.00" d=" M 108.89 119.07 C 109.47 116.52 112.12 115.56 114.06 114.27 C 115.84 115.32 118.11 115.91 119.21 117.81 C 120.69 120.96 118.76 125.85 114.88 125.76 C 111.18 126.56 107.76 122.62 108.89 119.07 Z" />
<path fill="#f5e5c1" opacity="1.00" d=" M 110.37 121.71 C 109.63 119.80 111.18 118.15 111.94 116.54 C 112.51 119.12 113.06 121.72 113.52 124.33 C 112.35 123.65 110.65 123.27 110.37 121.71 Z" />
<path fill="#f5e5c1" opacity="1.00" d=" M 114.58 115.92 C 115.88 116.82 117.46 117.52 118.32 118.93 C 118.30 120.53 117.90 122.08 117.60 123.64 C 117.14 123.63 116.21 123.61 115.75 123.60 C 115.35 121.04 114.91 118.48 114.58 115.92 Z" />
<path fill="#f5e5c1" opacity="1.00" d=" M 104.40 128.85 C 104.06 126.82 104.36 124.75 104.48 122.72 C 108.01 126.66 111.74 130.43 115.01 134.61 C 113.05 134.56 111.10 134.48 109.14 134.38 C 107.52 132.57 105.70 130.91 104.40 128.85 Z" />
<path fill="#f5e5c1" opacity="1.00" d=" M 216.64 199.93 C 217.27 199.53 218.52 198.74 219.15 198.34 C 220.75 199.84 222.45 201.28 223.73 203.08 C 223.24 205.56 222.20 207.89 221.57 210.34 C 223.05 212.50 225.16 214.12 227.03 215.93 C 236.66 224.98 246.13 234.21 255.59 243.45 C 262.51 250.17 269.94 256.39 276.19 263.77 C 282.40 270.49 288.83 277.75 291.17 286.82 C 292.19 292.79 292.32 298.90 292.05 304.96 C 284.26 300.54 276.84 295.49 269.19 290.83 C 265.78 288.64 262.00 286.81 259.35 283.65 C 247.74 269.90 236.00 256.27 224.42 242.50 C 218.52 236.41 213.67 229.40 207.85 223.24 C 205.21 223.37 202.82 224.73 200.19 224.92 C 198.55 224.55 197.32 223.22 196.29 221.97 C 196.58 220.46 197.16 219.02 197.64 217.56 C 199.22 219.24 200.77 220.93 202.32 222.65 C 205.45 219.84 210.41 217.64 210.04 212.68 C 215.17 212.84 218.26 208.44 221.61 205.29 C 219.96 203.50 218.31 201.70 216.64 199.93 Z" />
<path fill="#3e3e3e" opacity="1.00" d=" M 211.52 203.51 C 212.43 203.52 213.33 203.63 214.22 203.84 C 214.98 205.84 213.64 207.01 211.96 207.76 C 210.59 206.79 209.82 204.59 211.52 203.51 Z" />
<path fill="#3e3e3e" opacity="1.00" d=" M 200.71 214.00 C 201.30 212.06 203.43 212.45 204.99 212.19 C 204.52 213.79 203.90 215.34 203.19 216.86 C 202.32 215.94 201.49 214.98 200.71 214.00 Z" />
<path fill="#f4722b" opacity="1.00" d=" M 303.49 260.63 C 336.69 254.60 369.79 248.01 402.96 241.85 C 390.44 254.58 377.58 266.98 365.34 279.97 C 385.45 293.06 405.43 306.35 425.50 319.50 C 431.76 324.01 438.52 327.67 445.36 331.20 C 421.74 337.84 397.93 343.78 374.27 350.29 C 368.43 351.57 362.73 354.17 356.63 353.66 C 357.50 355.99 358.04 358.44 357.91 360.95 C 357.64 382.45 357.71 403.96 357.45 425.47 C 343.09 412.54 328.97 399.33 314.66 386.35 C 311.16 383.09 307.67 379.82 303.89 376.90 C 297.57 385.62 291.34 394.40 285.00 403.12 C 278.31 388.84 271.55 374.59 264.67 360.40 C 260.90 365.33 257.07 370.23 253.30 375.18 C 251.96 362.71 250.89 350.22 249.54 337.75 C 248.87 332.18 249.73 326.56 248.93 321.00 C 248.59 316.35 247.26 311.48 249.09 306.99 C 251.05 301.72 252.42 296.13 255.67 291.46 C 269.73 299.13 283.82 306.76 297.87 314.45 C 297.56 307.60 298.81 300.81 298.79 293.99 C 297.82 288.34 296.56 282.68 294.82 277.22 C 291.89 272.59 287.77 268.84 284.47 264.47 C 290.56 262.15 297.14 261.85 303.49 260.63 Z" />
<path fill="#f5e5c1" opacity="1.00" d=" M 224.19 279.32 C 229.93 277.18 235.51 274.60 241.41 272.90 C 243.13 274.61 244.87 276.31 246.61 278.01 C 210.49 292.56 174.46 307.32 138.36 321.92 C 138.19 326.23 138.97 330.72 141.94 334.05 C 146.16 339.33 152.60 342.29 159.04 343.87 L 159.83 344.23 C 166.78 345.93 173.80 347.82 181.02 347.72 C 194.36 347.72 207.25 343.51 219.46 338.49 C 227.46 335.35 234.46 330.31 241.96 326.23 C 242.12 328.55 242.27 330.87 242.42 333.20 C 230.99 340.19 218.68 345.56 206.15 350.21 C 198.57 352.18 190.94 354.62 183.02 354.41 C 173.69 354.78 164.61 352.24 155.57 350.33 C 148.98 348.92 143.21 345.17 138.20 340.78 C 133.56 337.01 130.16 331.47 130.10 325.35 C 110.28 332.94 90.77 341.31 71.03 349.12 C 65.78 350.99 61.70 354.89 57.69 358.61 C 56.93 362.80 55.51 366.83 54.59 370.97 C 54.27 375.32 55.37 379.60 55.45 383.94 C 55.39 388.13 57.67 391.76 59.23 395.49 C 61.52 400.34 63.30 405.44 65.91 410.13 C 71.15 417.49 77.29 424.13 83.93 430.24 C 86.81 431.15 89.71 432.02 92.67 432.67 C 101.74 427.83 111.06 423.39 119.71 417.81 C 161.01 395.83 202.34 373.92 243.67 352.00 C 243.90 354.85 244.11 357.71 244.33 360.57 C 196.04 387.46 147.37 413.66 99.07 440.53 C 93.33 440.55 87.61 439.47 82.19 437.64 C 73.62 432.43 67.71 424.08 61.37 416.51 C 57.35 411.94 55.90 405.88 53.44 400.46 C 49.83 392.74 48.33 384.30 46.54 376.04 C 46.77 367.97 46.86 359.24 51.01 352.06 C 55.29 347.91 59.02 342.50 65.09 340.92 C 118.18 320.55 171.16 299.87 224.19 279.32 Z" />
<path fill="#f5e5c1" opacity="1.00" d=" M 119.90 339.87 C 121.62 339.06 123.41 340.16 125.10 340.53 C 131.82 347.54 139.43 353.94 148.27 358.08 C 134.39 364.15 120.74 370.74 106.83 376.76 C 104.10 378.00 100.68 379.58 100.25 382.95 C 98.58 394.23 98.54 405.89 94.71 416.76 C 94.15 411.68 94.53 406.52 93.21 401.54 C 89.77 387.50 81.95 374.88 72.53 364.07 C 72.54 362.22 72.54 360.37 72.52 358.54 C 88.50 352.80 104.04 345.92 119.90 339.87 Z" />
</svg>
