<?xml version="1.0" encoding="UTF-8" standalone="no"?>
<svg
   xmlns:dc="http://purl.org/dc/elements/1.1/"
   xmlns:cc="http://creativecommons.org/ns#"
   xmlns:rdf="http://www.w3.org/1999/02/22-rdf-syntax-ns#"
   xmlns:svg="http://www.w3.org/2000/svg"
   xmlns="http://www.w3.org/2000/svg"
   xmlns:sodipodi="http://sodipodi.sourceforge.net/DTD/sodipodi-0.dtd"
   xmlns:inkscape="http://www.inkscape.org/namespaces/inkscape"
   width="1280"
   height="1280"
   viewBox="0 0 1024 1024"
   version="1.1"
   id="svg2"
   inkscape:version="0.48.1 "
   sodipodi:docname="ambassador_scout_grind.svg">
  <metadata
     id="metadata56">
    <rdf:RDF>
      <cc:Work
         rdf:about="">
        <dc:format>image/svg+xml</dc:format>
        <dc:type
           rdf:resource="http://purl.org/dc/dcmitype/StillImage" />
      </cc:Work>
    </rdf:RDF>
  </metadata>
  <defs
     id="defs54" />
  <sodipodi:namedview
     pagecolor="#ffffff"
     bordercolor="#666666"
     borderopacity="1"
     objecttolerance="10"
     gridtolerance="10"
     guidetolerance="10"
     inkscape:pageopacity="0"
     inkscape:pageshadow="2"
     inkscape:window-width="1920"
     inkscape:window-height="1018"
     id="namedview52"
     showgrid="false"
     fit-margin-top="0"
     fit-margin-left="0"
     fit-margin-right="0"
     fit-margin-bottom="0"
     inkscape:zoom="0.6609375"
     inkscape:cx="640"
     inkscape:cy="640"
     inkscape:window-x="-8"
     inkscape:window-y="-8"
     inkscape:window-maximized="1"
     inkscape:current-layer="svg2" />
  <path
     d="m 0,0 1024,0 0,1024 L 0,1024 0,0 z"
     id="path4"
     style="fill:#3e3e3e"
     inkscape:connector-curvature="0" />
  <path
     style="fill:#f5e5c1"
     d="m 832.1,31.9 c -7.73517,0.0334 -15.4675,1.21625 -23.05,3.05 -5.66,6.82 -12.55,12.65 -17.45,20.05 -3.66,9.4 -3.49,19.7 -4.65,29.6 -7.38,6.26 -11.92,15.16 -12.2,24.9 -3.36,2.04 -6.85,4.08 -9.55,7 -0.9,2.92 1.35,5.64 2.05,8.4 -1.52,-0.1 -4.55,-0.32 -6.05,-0.4 -7.16,9.44 -12.96,20.55 -14.8,32.35 -2.9,4.86 -6.8,8.95 -11.3,12.35 -6.66,4.96 -9.47,13.08 -11.75,20.7 -0.54,9.18 -0.55,18.58 3.95,26.9 1.64,0.2 4.91,0.65 6.55,0.85 -1.84,4.08 -3.92,8.06 -6.7,11.6 -29.98,39.92 -59.67,80.11 -89.65,120.05 -6.56,9.7 -13.53,19.12 -21.55,27.7 -2.54,6.76 -6.5,12.82 -10,19.1 -19.56,35.16 -39.49,70.06 -58.95,105.3 3.16,3.52 6.36,7.06 9.5,10.6 2.68,-5.6 4.84,-11.67 9.3,-16.15 8.44,-9.12 22.36,-10.06 33.9,-8.1 7.02,4.22 10,12.36 14,19.1 4,-0.86 8,-1.69 12,-2.55 -4.78,-11.8 -10.97,-23.23 -21.15,-31.25 -9.54,-0.94 -19.2,-0.61 -28.4,2.25 14.46,-27.86 29.45,-55.44 44.65,-82.9 5.92,-7.94 11.9,-15.86 17,-24.4 34.1,-44.7 67.5,-89.93 101.3,-134.85 5.52,-6.7 10,-14.2 13.2,-22.3 2.26,0 4.57,0.01 6.85,0.05 -1.88,4.26 -3.72,8.56 -5.4,12.9 -5.38,12.96 -15.39,23.11 -23.25,34.55 -23.1,30.38 -44.46,62.07 -68.1,92.05 -4.92,9.22 -12.17,16.69 -18.85,24.55 -12.9,26.92 -26.19,53.74 -41.15,79.6 10.8,2.28 20.4,8.12 27,17 2.6,-7.84 4.06,-15.94 6.2,-23.9 2.72,-8.62 6.18,-17.04 8.1,-25.9 l 0.65,-1.45 c 4.22,-16.76 11.15,-32.56 17.65,-48.5 3.28,-7.62 10.22,-12.8 14,-20.1 3.5,-6.82 8.06,-12.98 12.5,-19.2 21.76,-32.18 43.31,-64.48 65.85,-96.1 5.7,-6 8.93,-13.64 11.25,-21.5 0.82,0.02 2.48,0.03 3.3,0.05 2.92,2.74 5.99,5.42 8.45,8.6 -2.34,5.82 -5.45,11.35 -6.75,17.55 -6.88,31.04 -15.08,61.83 -22.1,92.85 -9,35.28 -15.68,71.11 -25.6,106.15 -5.02,16.22 -12.88,31.39 -18.9,47.25 5.4,-1.12 10.82,-2.32 16.2,-3.6 5.82,-16.84 14.39,-32.73 17.75,-50.35 6.52,-29.3 13.12,-58.57 19.7,-87.85 8.56,-36.06 15.63,-72.52 25.25,-108.3 8.54,-3.8 18.02,-8.21 22.1,-17.25 1.12,-7.06 -1.32,-14.05 -2,-21.05 6.6,-4.92 12.86,-11.1 15.3,-19.2 1.12,-4.8 0.11,-9.76 0.65,-14.6 4.8,-5.36 10.08,-10.5 13.4,-17 1.02,-4.08 0.33,-8.34 0.35,-12.5 4.16,-2.44 8.53,-4.63 12.35,-7.65 0.78,-4.04 0.23,-8.19 0.05,-12.25 0.7,2.76 1.42,5.49 2.2,8.25 9.72,-5.42 17.82,-13.95 22.1,-24.25 1.82,-7.32 4.55,-14.43 5.95,-21.85 -0.42,-7.94 -3.44,-15.45 -4.8,-23.25 -6.7,-6.92 -12.69,-14.77 -20.45,-20.55 -5.9325,-1.58375 -11.98376,-2.22598 -18,-2.2 z m -10.4,12.15 c -2.14,8.06 -4.68,16 -7,24 -1.16,0.26 -3.44,0.79 -4.6,1.05 -2.1,3.46 -5.44,5.62 -9.1,7.1 -1.12,-8.78 0.93,-17.74 6.05,-25 3.46,-4.58 9.31,-6.09 14.65,-7.15 z m 16.15,0.25 c 14.12,5.06 27.92,17.64 27.5,33.7 0.5,8.74 -5.36,16.21 -10.9,22.35 -2.96,3.54 -7.79,2.25 -11.75,2.25 0.88,2.48 1.77,5 2.65,7.5 -2.92,2.3 -5.85,4.61 -8.75,6.95 0.18,1.66 0.54,4.99 0.7,6.65 -1.64,0.48 -3.27,1.02 -4.95,1.3 -3.4,-9.96 -5.49,-20.86 -11.95,-29.4 -6.78,-4.72 -14.28,-8.29 -22,-11.15 0.16,-0.76 0.44,-2.29 0.6,-3.05 8.34,-2.5 17.07,-5.31 25.85,-3.95 6.2,4.02 10.73,10.12 15.45,15.7 3.58,0.1 7.15,0.16 10.75,0.1 -0.9,-3.1 -1.76,-6.2 -2.6,-9.3 -5.96,-6.72 -13.69,-11.54 -22.35,-13.9 1.36,-9.56 5.71,-18.31 11.75,-25.75 z M 788.4,91.2 c 1.18512,-0.011 2.37501,0.135 3.5,0.15 13.08,0.7 24.88,10.16 29,22.5 -12.42,-3.72 -25.12,-6.54 -38.1,-7.3 0.16,-4.38 0.14,-8.74 0.5,-13.1 1.2125,-1.825 3.1248,-2.23164 5.1,-2.25 z m 5.1,21.55 c 8.0375,-0.32 16.13,1.93 22.45,7.15 6.8,5.16 8.03,14.15 9.55,21.95 -2.96,3.68 -5.76,7.51 -8.5,11.35 -0.78,-0.08 -2.35,-0.24 -3.15,-0.3 -5.36,-7.66 -15.01,-11.92 -17.95,-21.2 -6.96,-4.04 -14.95,-5.01 -22.85,-4.85 -0.62,-1.96 -1.32,-3.9 -1.8,-5.9 6.23,-5.02 14.2125,-7.88 22.25,-8.2 z m -19.45,22.15 c 12.72,-0.26 25.14,6.89 30.8,18.35 6.94,8.64 7.79,20.24 3.65,30.3 -2.74,2.92 -5.62,5.75 -8.5,8.55 -4.36,-12.54 -11.58,-23.92 -20.1,-34 -4.52,-5.26 -11.86,-4.98 -18,-6.5 -5.4,-2.62 -2.73,-10.02 0.45,-13.4 2.36,-4.24 7.7,-2.98 11.7,-3.3 z M 765,161.1 c 3.35357,0.0955 6.74499,1.30936 10,1.9 9.28,12.16 21.13,23.85 23.45,39.65 1.14,6.42 -1.24,12.57 -3.5,18.45 -0.76,0.54 -2.34,1.64 -3.1,2.2 -0.74,-1.58 -1.43,-3.14 -2.15,-4.7 0.98,-9.26 -7.18,-15.31 -14,-19.85 -13.46,-8.14 -29.8,-3.43 -43,2.75 -2.38,-8.1 -1.29,-19.29 6.65,-23.95 7.24,-4.64 11.85,-12.95 20.45,-15.45 1.23,-0.58 2.48,-0.85344 3.75,-0.95 0.47626,-0.0362 0.97091,-0.0636 1.45,-0.05 z"
     id="path6"
     inkscape:connector-curvature="0" />
  <path
     d="m 264.4,194.95 c -3.8,0.54 -8.28,-0.8 -11.5,1.8 -6.94,5.34 -13.02,11.69 -19.5,17.55 2.46,2.94 4.93,5.9 7.55,8.7 5.12,5.38 9.95,11 14.95,16.5 54.88,60.3 109.44,120.9 164.3,181.2 1.54,0.1 4.58,0.3 6.1,0.4 3.22,-3.36 7.82,-5.88 9.5,-10.4 -1.78,-2.98 -3.94,-5.7 -6.1,-8.4 C 374.82,333.02 319.38,264.15 264.4,194.95 z m -9.15,11.45 c 5.82941,-0.14165 10.4425,6.7875 7.45,12.3 -2.06,5.96 -11.45,6.22 -14.45,1 -3.04,-4.18 -0.89,-11.9 4.45,-12.8 0.86501,-0.3325 1.71723,-0.47976 2.55,-0.5 z M 423.05,407 c 1.82,0.02 3.62,0.28 5.4,0.7 1.52,4 -1.19,6.3 -4.55,7.8 -2.74,-1.94 -4.25,-6.34 -0.85,-8.5 z"
     id="path20"
     style="fill:#f4722b"
     inkscape:connector-curvature="0" />
  <path
     d="m 248.68,212.76 c 3.16,-1.54 6.4,-2.9 9.64,-4.24 0.4,1.18 1.2,3.52 1.6,4.7 -3.76,-0.06 -7.52,-0.14 -11.24,-0.46 z"
     id="path24"
     inkscape:connector-curvature="0"
     style="fill:#f5e5c1" />
  <path
     d="m 249.54,220.18 c 3.16,-2.74 7.22,-3.44 11.24,-3.82 -0.78,6.3 -7,3.8 -11.24,3.82 z"
     id="path26"
     inkscape:connector-curvature="0"
     style="fill:#f5e5c1" />
  <path
     style="fill:#f4722b"
     d="m 230.35,216.75 c -6.08,5.84 -12.62,11.18 -18.6,17.1 -3.46,2.68 -3.92,7.68 -2.8,11.6 7.06,7.88 14.51,15.39 21.05,23.75 5.56,6.68 12.25,12.32 18.45,18.4 32.16,30.46 62.89,62.41 95.35,92.55 20.64,19.92 40.82,40.29 62,59.65 3.52,-3.38 7.37,-6.52 10.35,-10.4 2,-5.42 -2.94,-9.74 -6,-13.5 C 357.67,358.08 305.44,300.01 253,242.15 c -5.58,-6.18 -11.22,-12.29 -16.7,-18.55 -2,-2.28 -3.99,-4.57 -5.95,-6.85 z m -2.25,11.8 c 3.56,2.1 8.1,3.25 10.3,7.05 2.96,6.3 -0.89,16.08 -8.65,15.9 -7.4,1.6 -14.21,-6.25 -11.95,-13.35 1.16,-5.1 6.42,-7.02 10.3,-9.6 z M 410,424.4 c -0.94,3.2 -2.18,6.26 -3.6,9.3 -1.74,-1.84 -3.44,-3.74 -5,-5.7 1.18,-3.88 5.48,-3.08 8.6,-3.6 z"
     id="path28"
     inkscape:connector-curvature="0" />
  <path
     d="m 240.96,223 c 5.12,5.38 9.96,11 14.96,16.5 -0.74,0.66 -2.2,2 -2.94,2.66 -5.58,-6.18 -11.2,-12.32 -16.68,-18.58 1.16,-0.14 3.5,-0.42 4.66,-0.58 z"
     id="path30"
     inkscape:connector-curvature="0"
     style="fill:#f5e5c1" />
  <path
     d="m 220.74,243.42 c -1.48,-3.82 1.62,-7.12 3.14,-10.34 1.14,5.16 2.24,10.36 3.16,15.58 -2.34,-1.36 -5.74,-2.12 -6.3,-5.24 z"
     id="path34"
     inkscape:connector-curvature="0"
     style="fill:#f5e5c1" />
  <path
     d="m 229.16,231.84 c 2.6,1.8 5.76,3.2 7.48,6.02 -0.04,3.2 -0.84,6.3 -1.44,9.42 -0.92,-0.02 -2.78,-0.06 -3.7,-0.08 -0.8,-5.12 -1.68,-10.24 -2.34,-15.36 z"
     id="path36"
     inkscape:connector-curvature="0"
     style="fill:#f5e5c1" />
  <path
     d="m 208.8,257.7 c -0.68,-4.06 -0.08,-8.2 0.16,-12.26 7.06,7.88 14.52,15.42 21.06,23.78 -3.92,-0.1 -7.82,-0.26 -11.74,-0.46 -3.24,-3.62 -6.88,-6.94 -9.48,-11.06 z"
     id="path38"
     inkscape:connector-curvature="0"
     style="fill:#f5e5c1" />
  <path
     d="m 433.28,399.86 c 1.26,-0.8 3.76,-2.38 5.02,-3.18 3.2,3 6.6,5.88 9.16,9.48 -0.98,4.96 -3.06,9.62 -4.32,14.52 2.96,4.32 7.18,7.56 10.92,11.18 19.26,18.1 38.2,36.56 57.12,55.04 13.84,13.44 28.7,25.88 41.2,40.64 12.42,13.44 25.28,27.96 29.96,46.1 2.04,11.94 2.3,24.16 1.76,36.28 -15.58,-8.84 -30.42,-18.94 -45.72,-28.26 C 531.56,577.28 524,573.62 518.7,567.3 495.48,539.8 472,512.54 448.84,485 c -11.8,-12.18 -21.5,-26.2 -33.14,-38.52 -5.28,0.26 -10.06,2.98 -15.32,3.36 -3.28,-0.74 -5.74,-3.4 -7.8,-5.9 0.58,-3.02 1.74,-5.9 2.7,-8.82 3.16,3.36 6.26,6.74 9.36,10.18 6.26,-5.62 16.18,-10.02 15.44,-19.94 10.26,0.32 16.44,-8.48 23.14,-14.78 -3.3,-3.58 -6.6,-7.18 -9.94,-10.72 z"
     id="path40"
     inkscape:connector-curvature="0"
     style="fill:#f5e5c1" />
  <path
     d="m 606.98,521.26 c 66.4,-12.06 132.6,-25.24 198.94,-37.56 -25.04,25.46 -50.76,50.26 -75.24,76.24 40.22,26.18 80.18,52.76 120.32,79.06 12.52,9.02 26.04,16.34 39.72,23.4 -47.24,13.28 -94.86,25.16 -142.18,38.18 -11.68,2.56 -23.08,7.76 -35.28,6.74 1.74,4.66 2.82,9.56 2.56,14.58 -0.54,43 -0.4,86.02 -0.92,129.04 -28.72,-25.86 -56.96,-52.28 -85.58,-78.24 -7,-6.52 -13.98,-13.06 -21.54,-18.9 -12.64,17.44 -25.1,35 -37.78,52.44 -13.38,-28.56 -26.9,-57.06 -40.66,-85.44 -7.54,9.86 -15.2,19.66 -22.74,29.56 -2.68,-24.94 -4.82,-49.92 -7.52,-74.86 -1.34,-11.14 0.38,-22.38 -1.22,-33.5 -0.68,-9.3 -3.34,-19.04 0.32,-28.02 3.92,-10.54 6.66,-21.72 13.16,-31.06 28.12,15.34 56.3,30.6 84.4,45.98 -0.62,-13.7 1.88,-27.28 1.84,-40.92 -1.94,-11.3 -4.46,-22.62 -7.94,-33.54 -5.86,-9.26 -14.1,-16.76 -20.7,-25.5 12.18,-4.64 25.34,-5.24 38.04,-7.68 z"
     id="path46"
     inkscape:connector-curvature="0"
     style="fill:#f4722b" />
  <path
     d="m 448.38,558.64 c 11.48,-4.28 22.64,-9.44 34.44,-12.84 3.44,3.42 6.92,6.82 10.4,10.22 -72.24,29.1 -144.3,58.62 -216.5,87.82 -0.34,8.62 1.22,17.6 7.16,24.26 8.44,10.56 21.32,16.48 34.2,19.64 l 1.58,0.72 c 13.9,3.4 27.94,7.18 42.38,6.98 26.68,0 52.46,-8.42 76.88,-18.46 16,-6.28 30,-16.36 45,-24.52 0.32,4.64 0.62,9.28 0.92,13.94 -22.86,13.98 -47.48,24.72 -72.54,34.02 -15.16,3.94 -30.42,8.82 -46.26,8.4 -18.66,0.74 -36.82,-4.34 -54.9,-8.16 -13.18,-2.82 -24.72,-10.32 -34.74,-19.1 -9.28,-7.54 -16.08,-18.62 -16.2,-30.86 -39.64,15.18 -78.66,31.92 -118.14,47.54 -10.5,3.74 -18.66,11.54 -26.68,18.98 -1.52,8.38 -4.36,16.44 -6.2,24.72 -0.64,8.7 1.56,17.26 1.72,25.94 -0.12,8.38 4.44,15.64 7.56,23.1 4.58,9.7 8.14,19.9 13.36,29.28 10.48,14.72 22.76,28 36.04,40.22 5.76,1.82 11.56,3.56 17.48,4.86 18.14,-9.68 36.78,-18.56 54.08,-29.72 82.6,-43.96 165.26,-87.78 247.92,-131.62 0.46,5.7 0.88,11.42 1.32,17.14 -96.58,53.78 -193.92,106.18 -290.52,159.92 -11.48,0.04 -22.92,-2.12 -33.76,-5.78 -17.14,-10.42 -28.96,-27.12 -41.64,-42.26 -8.04,-9.14 -10.94,-21.26 -15.86,-32.1 -7.22,-15.44 -10.22,-32.32 -13.8,-48.84 0.46,-16.14 0.64,-33.6 8.94,-47.96 8.56,-8.3 16.02,-19.12 28.16,-22.28 106.18,-40.74 212.14,-82.1 318.2,-123.2 z"
     id="path48"
     inkscape:connector-curvature="0"
     style="fill:#f5e5c1" />
  <path
     d="m 239.8,679.74 c 3.44,-1.62 7.02,0.58 10.4,1.32 13.44,14.02 28.66,26.82 46.34,35.1 -27.76,12.14 -55.06,25.32 -82.88,37.36 -5.46,2.48 -12.3,5.64 -13.16,12.38 -3.34,22.56 -3.42,45.88 -11.08,67.62 -1.12,-10.16 -0.36,-20.48 -3,-30.44 -6.88,-28.08 -22.52,-53.32 -41.36,-74.94 0.02,-3.7 0.02,-7.4 -0.02,-11.06 31.96,-11.48 63.04,-25.24 94.76,-37.34 z"
     id="path50"
     inkscape:connector-curvature="0"
     style="fill:#f5e5c1" />
</svg>
