<?xml version="1.0" encoding="UTF-8" ?>
<!DOCTYPE svg PUBLIC "-//W3C//DTD SVG 1.1//EN" "http://www.w3.org/Graphics/SVG/1.1/DTD/svg11.dtd">
<svg width="512pt" height="512pt" viewBox="0 0 512 512" version="1.1" xmlns="http://www.w3.org/2000/svg">
<path fill="#3e3e3e" opacity="1.00" d=" M 0.00 0.00 L 512.00 0.00 L 512.00 512.00 L 0.00 512.00 L 0.00 0.00 Z" />
<path fill="#f5e5c1" opacity="1.00" d=" M 255.60 15.99 C 253.18 22.04 255.98 28.39 260.12 32.91 C 264.47 39.55 273.89 40.70 280.83 37.90 C 289.11 34.78 294.30 25.83 293.52 17.10 C 296.35 17.40 299.17 17.70 302.00 18.02 C 316.52 35.96 331.08 53.88 345.57 71.86 C 347.00 68.56 348.50 65.29 350.00 62.02 C 368.95 69.18 387.89 76.38 406.83 83.56 C 403.95 91.69 406.23 101.47 413.14 106.85 C 421.61 113.79 434.86 112.97 442.74 105.48 C 449.49 109.65 456.25 113.82 463.00 118.01 C 466.22 137.34 469.88 156.62 472.84 175.98 C 467.47 189.70 461.73 203.33 455.92 216.88 C 454.90 216.34 454.29 215.29 453.49 214.51 C 449.12 209.22 441.78 206.73 435.07 207.90 C 425.70 209.54 418.09 217.78 416.66 227.10 C 416.03 230.95 416.90 234.80 417.92 238.49 C 412.26 240.65 406.93 243.83 401.07 245.37 C 394.81 243.63 388.57 241.70 382.11 240.80 C 354.78 236.57 326.07 244.47 304.14 261.17 C 283.12 276.89 267.95 299.97 261.11 325.25 C 257.90 325.90 254.68 326.50 251.46 327.06 C 252.53 302.68 253.55 278.30 254.63 253.93 C 254.87 251.38 254.00 248.64 251.95 247.03 C 250.35 246.05 248.42 245.94 246.64 245.53 C 255.07 242.13 263.16 237.93 271.44 234.20 C 274.49 239.63 279.72 243.98 285.99 244.99 C 294.86 246.79 303.44 241.55 308.87 234.89 C 313.33 229.48 314.64 221.80 312.39 215.17 C 315.94 213.35 319.58 211.72 323.27 210.20 C 342.95 201.93 362.58 193.58 382.27 185.34 C 390.41 182.54 398.67 180.09 406.89 177.50 C 408.24 180.90 410.92 184.67 415.00 184.58 C 418.47 184.93 421.97 182.69 423.15 179.42 C 423.97 177.10 423.58 174.60 423.47 172.20 C 428.18 170.76 432.87 169.24 437.59 167.77 C 438.32 163.48 435.04 160.41 432.75 157.25 C 424.93 146.75 417.10 136.26 409.31 125.74 C 407.31 123.05 404.47 121.21 401.93 119.09 C 384.59 105.04 367.22 91.02 349.90 76.94 C 362.04 92.47 374.66 107.62 387.00 122.99 C 382.13 123.81 377.26 124.54 372.40 125.41 C 370.61 116.62 363.15 109.23 354.10 108.34 C 338.33 106.11 323.57 122.41 326.89 137.91 C 303.27 147.46 279.02 155.30 255.10 164.04 C 234.56 173.80 214.14 183.80 193.68 193.70 C 180.46 200.91 167.46 208.51 154.26 215.73 C 149.02 208.67 139.35 204.70 130.82 207.60 C 119.61 210.90 113.06 224.12 116.23 235.16 C 117.00 237.48 118.16 239.64 119.23 241.83 C 117.47 243.20 115.74 244.60 114.00 245.99 C 110.01 224.93 105.70 203.92 101.93 182.82 C 110.51 181.94 118.04 175.36 120.21 167.04 C 123.73 155.34 116.92 141.23 105.13 137.45 C 101.49 136.14 97.57 136.44 93.79 136.72 C 96.15 131.52 97.49 125.62 96.04 119.97 C 94.67 115.41 92.06 111.32 89.01 107.70 C 89.99 105.12 93.04 104.65 95.06 103.14 C 102.23 98.28 110.54 95.54 117.82 90.86 C 122.63 88.78 127.08 86.07 131.36 83.07 C 136.53 91.88 147.39 97.28 157.53 95.29 C 166.89 93.42 174.56 85.37 176.27 76.01 C 177.10 72.11 176.64 68.10 176.12 64.19 C 179.00 63.72 181.98 62.56 184.89 63.50 C 188.27 64.49 192.10 63.89 195.15 62.18 C 208.60 52.62 221.98 42.96 235.46 33.43 C 239.92 30.15 245.92 28.84 249.20 24.13 C 251.42 21.49 253.68 18.87 255.60 15.99 Z" />
<path fill="#3e3e3e" opacity="1.00" d=" M 291.73 46.01 C 299.03 43.86 307.47 50.31 306.84 58.02 C 307.35 65.65 299.06 71.93 291.84 69.93 C 286.55 68.63 282.20 63.52 282.42 57.98 C 282.19 52.45 286.40 47.27 291.73 46.01 Z" />
<path fill="#3e3e3e" opacity="1.00" d=" M 229.28 76.42 C 240.25 74.51 252.02 78.25 260.00 86.00 C 271.58 97.07 275.31 115.75 268.32 130.25 C 263.77 139.68 254.99 146.98 244.85 149.62 C 234.65 152.27 223.27 150.58 214.59 144.46 C 200.51 135.05 194.75 115.58 200.74 99.86 C 205.09 87.65 216.41 78.22 229.28 76.42 Z" />
<path fill="#f4722b" opacity="1.00" d=" M 338.69 139.40 C 338.56 139.78 338.30 140.56 338.16 140.94 C 342.91 140.25 347.68 139.60 352.46 139.15 C 347.22 143.39 341.49 146.97 336.08 150.98 C 342.74 150.38 349.38 149.60 356.04 149.07 C 350.99 152.62 346.03 156.29 341.09 159.98 C 347.71 160.03 354.32 159.97 360.94 160.02 C 357.04 163.38 353.01 166.59 349.11 169.97 C 354.07 170.39 359.04 170.64 364.00 171.03 C 361.32 173.99 358.66 176.97 356.07 180.01 C 360.97 181.65 365.97 182.98 370.85 184.69 C 370.83 184.89 370.79 185.28 370.77 185.48 C 359.75 190.60 348.54 195.31 337.50 200.39 C 336.57 195.63 334.24 190.44 329.58 188.30 C 324.94 185.95 319.44 185.56 314.38 186.57 C 309.49 188.05 305.94 191.99 302.44 195.50 C 296.66 201.15 294.70 210.32 297.47 217.88 C 297.10 218.12 296.34 218.58 295.96 218.81 C 278.68 226.52 261.44 234.34 244.17 242.11 C 241.22 243.33 238.35 245.37 235.00 244.98 C 222.34 244.22 209.69 243.23 197.03 242.55 C 192.34 242.32 189.24 246.24 186.20 249.18 C 172.43 262.93 158.52 276.54 144.67 290.21 L 144.67 290.21 C 144.66 290.09 144.65 289.86 144.64 289.74 C 143.60 290.54 142.54 291.30 141.45 292.03 C 137.12 293.61 133.16 295.98 129.02 297.99 C 124.64 282.67 120.47 267.29 116.07 251.98 C 118.65 249.98 121.27 248.02 123.94 246.14 C 129.02 249.28 135.18 250.86 141.11 249.66 C 149.17 248.37 156.18 242.00 158.03 234.02 C 159.10 230.00 158.53 225.79 157.50 221.82 C 165.09 216.64 172.48 211.12 180.36 206.38 C 214.19 190.47 247.88 174.24 282.05 159.06 C 285.98 157.32 289.81 155.26 293.99 154.15 C 306.35 150.76 318.69 147.24 331.06 143.86 C 333.98 143.14 336.61 141.56 338.69 139.40 Z" />
<path fill="#3e3e3e" opacity="1.00" d=" M 140.59 151.86 C 145.82 150.55 151.65 150.85 156.41 153.53 C 163.08 157.08 167.53 164.40 167.54 171.97 C 167.82 180.10 163.21 188.30 155.88 191.95 C 151.49 194.23 146.25 194.27 141.51 193.23 C 131.47 190.22 124.07 179.47 125.79 168.96 C 126.88 161.02 132.92 154.10 140.59 151.86 Z" />
<path fill="#f4722b" opacity="1.00" d=" M 356.15 246.27 C 374.86 244.17 394.15 247.52 410.92 256.13 C 435.76 268.78 455.00 291.44 464.43 317.58 C 477.26 351.93 473.76 392.16 454.29 423.35 C 444.75 438.73 431.44 451.79 415.73 460.82 C 398.65 470.61 378.55 475.08 358.93 473.33 C 338.88 471.79 319.56 463.55 304.05 450.84 C 287.21 437.22 274.77 418.45 268.14 397.89 C 258.64 368.86 260.60 336.26 273.50 308.58 C 288.31 275.82 319.98 250.27 356.15 246.27 Z" />
<path fill="#f4722b" opacity="1.00" d=" M 173.39 270.28 C 181.16 263.32 187.86 255.15 195.91 248.55 C 213.52 249.37 231.11 250.89 248.72 251.84 C 245.52 325.80 242.26 399.75 239.16 473.71 C 220.01 472.63 200.85 471.75 181.70 470.67 C 183.65 419.35 185.55 368.04 187.47 316.73 C 182.19 321.17 177.83 326.54 172.88 331.32 C 163.41 320.50 154.42 309.25 145.12 298.28 C 154.48 288.88 164.05 279.70 173.39 270.28 Z" />
<path fill="#f5e5c1" opacity="1.00" d=" M 144.64 289.74 C 144.65 289.86 144.66 290.09 144.67 290.21 C 143.41 292.33 140.58 293.44 139.99 296.08 C 138.71 298.61 139.87 301.50 141.62 303.46 C 149.38 312.64 157.04 321.90 164.74 331.14 C 166.77 333.55 168.66 336.77 172.14 337.10 C 175.91 337.07 178.59 334.16 180.97 331.63 C 180.74 334.35 180.73 337.09 180.71 339.82 C 173.61 341.71 166.24 342.31 159.14 344.13 C 152.21 347.60 145.67 351.86 138.85 355.57 C 135.75 352.26 131.70 349.51 127.03 349.32 C 119.71 348.47 112.32 353.17 109.82 360.06 C 108.38 363.44 108.73 367.18 108.98 370.75 C 79.32 381.84 49.66 392.91 20.00 404.01 C 18.00 399.68 16.02 395.35 14.00 391.03 C 15.17 387.42 15.50 383.18 18.49 380.49 C 24.92 374.32 30.79 367.49 38.03 362.24 C 42.22 364.55 46.05 368.09 50.94 369.26 C 67.60 374.85 86.60 365.64 94.43 350.36 C 99.39 341.06 99.99 329.74 96.52 319.84 C 111.42 310.44 126.23 300.89 141.45 292.03 C 142.54 291.30 143.60 290.54 144.64 289.74 Z" />
<path fill="#3e3e3e" opacity="1.00" d=" M 358.41 315.57 C 369.18 313.34 380.68 315.38 390.12 321.00 C 404.49 329.30 413.57 344.90 416.21 361.03 C 418.45 375.23 417.36 390.50 410.36 403.30 C 403.28 417.14 390.24 428.20 374.91 431.56 C 365.21 433.86 354.97 431.36 346.36 426.70 C 330.80 418.17 320.50 401.52 318.35 384.07 C 316.51 369.10 318.49 353.30 326.03 340.06 C 332.69 327.80 344.64 318.35 358.41 315.57 Z" />
</svg>
