<?xml version="1.0" encoding="UTF-8" ?>
<!DOCTYPE svg PUBLIC "-//W3C//DTD SVG 1.1//EN" "http://www.w3.org/Graphics/SVG/1.1/DTD/svg11.dtd">
<svg width="512pt" height="512pt" viewBox="0 0 512 512" version="1.1" xmlns="http://www.w3.org/2000/svg">
<path fill="#3e3e3e" opacity="1.00" d=" M 0.00 0.00 L 14.20 0.00 C 15.54 3.34 16.58 6.80 17.95 10.13 C 17.71 6.72 17.29 3.33 16.52 0.00 L 18.35 0.00 C 19.83 5.96 20.94 12.02 23.04 17.80 C 25.18 23.80 26.85 30.06 26.51 36.49 C 25.33 27.34 20.81 19.18 18.84 10.24 C 14.62 12.76 10.41 15.37 6.94 18.89 C 7.93 29.85 8.76 40.83 9.63 51.80 C 10.17 58.85 13.23 65.32 15.12 72.06 C 16.47 76.01 17.04 80.76 20.77 83.31 C 27.24 88.41 33.96 93.31 39.47 99.49 C 40.68 100.72 41.20 102.39 41.52 104.04 C 45.53 128.03 49.26 152.07 53.48 176.02 C 51.66 178.47 50.09 181.11 48.98 183.97 C 45.25 193.47 41.42 202.95 37.62 212.43 C 25.08 215.92 12.47 219.23 0.00 222.95 L 0.00 0.00 Z" />
<path fill="#f3722c" opacity="1.00" d=" M 14.20 0.00 L 16.52 0.00 C 17.29 3.33 17.71 6.72 17.95 10.13 C 16.58 6.80 15.54 3.34 14.20 0.00 Z" />
<path fill="#f3722c" opacity="1.00" d=" M 18.35 0.00 L 233.59 0.00 C 232.55 4.96 231.87 9.99 231.01 14.99 C 233.68 16.00 236.34 17.02 239.01 18.03 C 240.47 25.62 243.74 33.11 242.54 40.97 C 241.64 48.13 241.87 55.50 239.71 62.46 C 238.00 68.10 236.29 73.74 234.74 79.43 C 233.97 81.84 233.46 84.65 231.20 86.16 C 226.38 89.79 221.09 92.73 216.16 96.20 C 218.33 81.17 220.65 66.13 221.35 50.94 C 216.98 65.63 214.70 80.85 210.81 95.67 C 208.69 103.11 210.18 111.67 205.38 118.23 C 202.19 122.54 198.94 128.09 193.00 128.56 C 182.19 130.61 171.74 134.13 160.99 136.44 C 156.56 137.40 152.36 139.17 147.93 140.11 C 141.79 141.22 135.49 141.53 129.31 140.59 C 123.45 139.73 117.53 139.75 111.65 139.20 C 104.74 138.12 97.93 136.45 91.00 135.47 C 95.22 137.33 99.84 137.85 104.17 139.34 C 110.49 141.56 117.30 141.04 123.87 141.59 C 133.82 142.44 144.20 142.84 153.73 139.35 C 160.49 137.02 167.67 136.34 174.49 134.24 C 182.43 131.79 190.51 129.82 198.66 128.18 C 201.83 124.38 205.46 121.00 208.67 117.25 C 207.25 123.75 206.69 130.39 205.76 136.98 C 205.45 138.99 205.33 141.06 205.84 143.06 C 208.01 147.32 210.09 151.62 212.03 155.98 C 200.19 165.16 188.42 174.42 176.54 183.54 C 154.26 199.11 131.79 214.40 108.59 228.59 C 105.62 230.36 102.73 232.28 100.11 234.54 C 92.77 236.11 85.33 237.14 77.93 238.42 C 74.95 238.95 71.93 238.54 68.98 238.04 C 66.05 233.97 62.98 229.99 59.92 226.02 C 58.64 224.21 56.99 222.38 57.04 220.02 C 56.76 211.69 57.24 203.34 56.95 195.00 C 56.59 188.56 55.01 182.27 53.48 176.02 C 49.26 152.07 45.53 128.03 41.52 104.04 C 41.20 102.39 40.68 100.72 39.47 99.49 C 33.96 93.31 27.24 88.41 20.77 83.31 C 17.04 80.76 16.47 76.01 15.12 72.06 C 13.23 65.32 10.17 58.85 9.63 51.80 C 8.76 40.83 7.93 29.85 6.94 18.89 C 10.41 15.37 14.62 12.76 18.84 10.24 C 20.81 19.18 25.33 27.34 26.51 36.49 C 26.85 30.06 25.18 23.80 23.04 17.80 C 20.94 12.02 19.83 5.96 18.35 0.00 Z" />
<path fill="#3e3e3e" opacity="1.00" d=" M 233.59 0.00 L 512.00 0.00 L 512.00 221.87 C 504.75 211.18 497.32 200.62 489.98 190.00 C 411.66 184.00 333.34 178.02 255.02 172.00 C 254.01 169.33 253.00 166.67 251.99 164.00 C 248.99 164.34 246.00 164.67 243.00 165.02 C 240.20 162.80 237.54 160.41 234.64 158.32 C 231.90 156.25 228.24 156.62 225.02 156.20 C 221.61 151.84 218.28 147.42 214.98 142.98 C 211.93 143.00 208.89 143.02 205.84 143.06 C 205.33 141.06 205.45 138.99 205.76 136.98 C 206.69 130.39 207.25 123.75 208.67 117.25 C 205.46 121.00 201.83 124.38 198.66 128.18 C 190.51 129.82 182.43 131.79 174.49 134.24 C 167.67 136.34 160.49 137.02 153.73 139.35 C 144.20 142.84 133.82 142.44 123.87 141.59 C 117.30 141.04 110.49 141.56 104.17 139.34 C 99.84 137.85 95.22 137.33 91.00 135.47 C 97.93 136.45 104.74 138.12 111.65 139.20 C 117.53 139.75 123.45 139.73 129.31 140.59 C 135.49 141.53 141.79 141.22 147.93 140.11 C 152.36 139.17 156.56 137.40 160.99 136.44 C 171.74 134.13 182.19 130.61 193.00 128.56 C 198.94 128.09 202.19 122.54 205.38 118.23 C 210.18 111.67 208.69 103.11 210.81 95.67 C 214.70 80.85 216.98 65.63 221.35 50.94 C 220.65 66.13 218.33 81.17 216.16 96.20 C 221.09 92.73 226.38 89.79 231.20 86.16 C 233.46 84.65 233.97 81.84 234.74 79.43 C 236.29 73.74 238.00 68.10 239.71 62.46 C 241.87 55.50 241.64 48.13 242.54 40.97 C 243.74 33.11 240.47 25.62 239.01 18.03 C 236.34 17.02 233.68 16.00 231.01 14.99 C 231.87 9.99 232.55 4.96 233.59 0.00 Z" />
<path fill="#3e3e3e" opacity="1.00" d=" M 70.23 37.30 C 80.34 31.83 90.49 26.43 100.02 20.00 C 106.99 20.85 113.95 21.67 120.91 22.55 C 129.60 23.64 138.32 21.77 147.01 22.24 C 155.24 25.46 163.27 29.37 170.42 34.63 C 175.00 38.09 180.63 40.34 184.20 44.99 C 172.71 49.64 161.01 53.76 149.68 58.78 C 153.76 60.92 157.89 62.96 162.01 65.01 C 170.60 61.72 179.19 58.44 187.78 55.15 C 188.90 57.99 190.12 60.88 190.08 64.00 C 190.37 78.33 190.68 92.66 191.00 107.00 C 186.89 110.15 183.29 114.00 178.89 116.75 C 174.73 117.92 170.37 118.58 166.05 118.75 C 156.54 114.95 147.88 108.93 137.90 106.23 C 132.88 106.04 127.89 106.94 122.88 107.17 C 118.08 107.64 113.02 107.29 108.57 109.46 C 102.55 112.21 96.45 114.79 90.44 117.55 C 86.74 119.52 82.17 118.98 78.44 117.41 C 73.45 113.84 68.84 109.75 64.00 105.98 C 63.09 102.04 61.95 98.09 62.07 94.00 C 62.33 83.69 62.66 73.38 62.83 63.06 C 62.88 60.32 63.05 57.53 64.04 54.95 C 66.13 49.07 68.21 43.19 70.23 37.30 Z" />
<path fill="#f5e5c1" opacity="1.00" d=" M 184.20 44.99 C 197.80 39.68 211.39 34.34 224.99 29.01 C 226.67 32.33 228.34 35.66 229.99 39.00 C 215.93 44.40 201.85 49.76 187.78 55.15 C 179.19 58.44 170.60 61.72 162.01 65.01 C 157.89 62.96 153.76 60.92 149.68 58.78 C 161.01 53.76 172.71 49.64 184.20 44.99 Z" />
<path fill="#f5e5c1" opacity="1.00" d=" M 103.91 56.82 C 106.23 56.19 108.53 55.47 110.83 54.74 C 116.01 55.35 121.24 55.55 126.39 56.49 C 121.56 56.74 116.76 57.44 111.92 57.17 C 109.16 57.01 106.57 58.11 103.97 58.82 C 96.37 61.56 90.49 67.38 83.33 70.98 C 83.35 70.28 83.38 68.90 83.40 68.20 C 89.24 62.87 96.72 59.88 103.91 56.82 Z" />
<path fill="#f5e5c1" opacity="1.00" d=" M 130.47 57.68 C 136.59 56.52 143.08 55.65 149.06 57.97 C 146.58 61.63 142.59 58.30 139.60 57.26 C 136.56 57.54 133.52 57.78 130.47 57.68 Z" />
<path fill="#f5e5c1" opacity="1.00" d=" M 164.78 64.97 C 168.89 64.76 170.40 68.74 171.98 71.71 C 168.08 72.30 166.09 67.88 164.78 64.97 Z" />
<path fill="#f5e5c1" opacity="1.00" d=" M 205.84 143.06 C 208.89 143.02 211.93 143.00 214.98 142.98 C 218.28 147.42 221.61 151.84 225.02 156.20 C 228.08 160.18 228.58 165.69 226.49 170.22 C 223.36 177.57 221.35 185.41 217.52 192.44 C 209.52 205.43 201.51 218.41 193.52 231.41 C 190.72 235.99 187.68 240.45 185.46 245.36 C 178.10 261.69 170.68 278.00 163.30 294.32 C 161.02 299.39 158.48 304.37 156.82 309.69 C 151.63 326.18 146.46 342.68 141.17 359.14 C 139.53 364.25 139.74 369.68 139.51 374.98 C 138.24 406.98 136.93 438.98 135.65 470.98 C 135.57 475.84 135.20 480.69 134.58 485.51 C 126.81 455.32 118.92 425.16 111.10 394.98 C 109.86 389.97 108.18 385.03 107.75 379.86 C 105.52 349.92 103.26 319.97 100.99 290.03 C 107.32 281.00 113.67 272.01 120.01 262.99 C 118.86 257.93 117.69 252.88 116.76 247.78 C 120.07 250.62 123.05 253.83 125.63 257.36 C 130.32 263.67 135.81 269.37 140.16 275.95 C 144.62 282.69 149.28 289.30 153.93 295.92 C 146.19 282.94 137.56 270.52 128.40 258.51 C 124.65 252.73 119.18 248.46 114.33 243.66 C 110.25 239.71 105.08 237.18 100.11 234.54 C 102.73 232.28 105.62 230.36 108.59 228.59 C 131.79 214.40 154.26 199.11 176.54 183.54 C 188.42 174.42 200.19 165.16 212.03 155.98 C 210.09 151.62 208.01 147.32 205.84 143.06 Z" />
<path fill="#f3722c" opacity="1.00" d=" M 225.02 156.20 C 228.24 156.62 231.90 156.25 234.64 158.32 C 237.54 160.41 240.20 162.80 243.00 165.02 C 246.00 164.67 248.99 164.34 251.99 164.00 C 253.00 166.67 254.01 169.33 255.02 172.00 C 333.34 178.02 411.66 184.00 489.98 190.00 C 497.32 200.62 504.75 211.18 512.00 221.87 L 512.00 512.00 L 502.95 512.00 C 492.16 499.15 481.72 486.02 471.05 473.07 C 474.81 486.04 478.34 499.10 482.35 512.00 L 266.01 512.00 C 337.65 486.66 409.31 461.35 480.96 436.01 C 480.87 434.67 480.78 433.34 480.70 432.00 C 481.79 431.66 482.89 431.33 484.00 431.00 C 481.02 407.34 478.05 383.67 475.07 360.01 C 474.46 355.06 473.57 350.12 473.59 345.12 L 473.99 344.14 C 473.76 343.97 473.30 343.64 473.07 343.47 C 470.20 322.34 467.74 301.15 464.99 280.01 C 405.70 287.21 346.41 294.41 287.11 301.61 C 252.72 305.90 218.27 309.73 183.92 314.32 C 184.45 315.93 184.99 317.53 185.55 319.13 C 184.04 319.77 182.53 320.40 181.03 321.04 C 202.98 384.70 224.96 448.35 246.94 512.00 L 137.94 512.00 C 137.24 502.16 136.35 492.33 135.84 482.48 C 135.52 483.40 134.89 485.25 134.58 486.18 C 134.58 486.01 134.58 485.68 134.58 485.51 C 135.20 480.69 135.57 475.84 135.65 470.98 C 136.93 438.98 138.24 406.98 139.51 374.98 C 139.74 369.68 139.53 364.25 141.17 359.14 C 146.46 342.68 151.63 326.18 156.82 309.69 C 158.48 304.37 161.02 299.39 163.30 294.32 C 170.68 278.00 178.10 261.69 185.46 245.36 C 187.68 240.45 190.72 235.99 193.52 231.41 C 201.51 218.41 209.52 205.43 217.52 192.44 C 221.35 185.41 223.36 177.57 226.49 170.22 C 228.58 165.69 228.08 160.18 225.02 156.20 Z" />
<path fill="#f5e5c1" opacity="1.00" d=" M 48.98 183.97 C 50.09 181.11 51.66 178.47 53.48 176.02 C 55.01 182.27 56.59 188.56 56.95 195.00 C 57.24 203.34 56.76 211.69 57.04 220.02 C 56.99 222.38 58.64 224.21 59.92 226.02 C 62.98 229.99 66.05 233.97 68.98 238.04 C 66.27 239.57 63.01 240.75 61.48 243.68 C 58.62 248.73 54.42 253.05 52.64 258.67 C 47.28 273.06 39.18 286.30 34.90 301.09 C 32.44 309.39 28.22 317.51 28.49 326.34 C 30.77 321.11 32.08 315.53 34.05 310.19 C 39.51 295.10 45.60 280.19 53.10 265.98 C 56.90 273.56 58.62 281.91 61.17 289.94 C 62.04 292.29 61.68 294.80 61.04 297.16 C 55.91 317.38 51.07 337.68 45.97 357.92 C 45.03 361.54 44.80 365.29 44.68 369.01 C 43.29 406.53 41.38 444.03 40.16 481.55 C 37.44 472.81 35.51 463.87 33.19 455.03 C 27.58 432.82 22.00 410.60 16.36 388.39 C 14.89 382.38 12.63 376.39 13.13 370.09 C 15.44 341.06 17.69 312.03 19.99 282.99 C 20.46 277.33 20.53 271.59 22.00 266.07 C 25.36 253.36 28.67 240.64 31.96 227.91 C 33.34 222.57 35.60 217.53 37.62 212.43 C 41.42 202.95 45.25 193.47 48.98 183.97 Z" />
<path fill="#f3722c" opacity="1.00" d=" M 0.00 222.95 C 12.47 219.23 25.08 215.92 37.62 212.43 C 35.60 217.53 33.34 222.57 31.96 227.91 C 28.67 240.64 25.36 253.36 22.00 266.07 C 20.53 271.59 20.46 277.33 19.99 282.99 C 17.69 312.03 15.44 341.06 13.13 370.09 C 12.63 376.39 14.89 382.38 16.36 388.39 C 22.00 410.60 27.58 432.82 33.19 455.03 C 35.51 463.87 37.44 472.81 40.16 481.55 C 41.71 491.65 42.51 501.85 43.66 512.00 L 0.00 512.00 L 0.00 222.95 Z" />
<path fill="#3e3e3e" opacity="1.00" d=" M 77.93 238.42 C 85.33 237.14 92.77 236.11 100.11 234.54 C 105.08 237.18 110.25 239.71 114.33 243.66 C 119.18 248.46 124.65 252.73 128.40 258.51 C 137.56 270.52 146.19 282.94 153.93 295.92 C 149.28 289.30 144.62 282.69 140.16 275.95 C 135.81 269.37 130.32 263.67 125.63 257.36 C 123.05 253.83 120.07 250.62 116.76 247.78 C 117.69 252.88 118.86 257.93 120.01 262.99 C 113.67 272.01 107.32 281.00 100.99 290.03 C 103.26 319.97 105.52 349.92 107.75 379.86 C 108.18 385.03 109.86 389.97 111.10 394.98 C 118.92 425.16 126.81 455.32 134.58 485.51 C 134.58 485.68 134.58 486.01 134.58 486.18 C 134.89 485.25 135.52 483.40 135.84 482.48 C 136.35 492.33 137.24 502.16 137.94 512.00 L 43.66 512.00 C 42.51 501.85 41.71 491.65 40.16 481.55 C 41.38 444.03 43.29 406.53 44.68 369.01 C 44.80 365.29 45.03 361.54 45.97 357.92 C 51.07 337.68 55.91 317.38 61.04 297.16 C 61.68 294.80 62.04 292.29 61.17 289.94 C 58.62 281.91 56.90 273.56 53.10 265.98 C 45.60 280.19 39.51 295.10 34.05 310.19 C 32.08 315.53 30.77 321.11 28.49 326.34 C 28.22 317.51 32.44 309.39 34.90 301.09 C 39.18 286.30 47.28 273.06 52.64 258.67 C 54.42 253.05 58.62 248.73 61.48 243.68 C 63.01 240.75 66.27 239.57 68.98 238.04 C 71.93 238.54 74.95 238.95 77.93 238.42 Z" />
<path fill="#f5e5c1" opacity="1.00" d=" M 287.11 301.61 C 346.41 294.41 405.70 287.21 464.99 280.01 C 467.74 301.15 470.20 322.34 473.07 343.47 C 468.57 341.08 464.04 338.74 459.47 336.50 C 458.11 324.29 456.40 312.12 455.01 299.92 C 454.65 296.88 453.96 293.89 453.21 290.93 C 373.54 301.79 293.83 312.44 214.15 323.24 C 209.54 323.85 204.99 324.85 200.49 325.99 C 208.43 348.94 216.77 371.76 224.66 394.72 C 222.95 404.03 226.76 413.50 233.57 419.86 C 237.03 429.09 240.14 438.45 243.49 447.72 C 242.04 452.15 240.43 456.52 238.95 460.94 C 242.41 462.30 245.90 463.60 249.48 464.59 C 252.28 472.61 255.09 480.63 257.99 488.62 C 258.62 488.91 259.88 489.49 260.51 489.78 C 305.90 476.44 351.29 463.10 396.68 449.77 C 409.42 446.18 422.00 441.99 434.85 438.80 L 435.17 439.74 C 443.11 437.87 451.09 436.16 459.06 434.36 C 458.84 433.42 458.63 432.49 458.43 431.56 C 462.55 430.33 466.79 429.48 470.86 428.05 C 468.45 406.59 465.53 385.15 462.91 363.69 C 466.41 357.47 470.29 351.46 473.59 345.12 C 473.57 350.12 474.46 355.06 475.07 360.01 C 478.05 383.67 481.02 407.34 484.00 431.00 C 482.89 431.33 481.79 431.66 480.70 432.00 C 404.80 455.02 328.90 478.00 253.00 501.01 C 230.52 440.38 208.00 379.77 185.55 319.13 C 184.99 317.53 184.45 315.93 183.92 314.32 C 218.27 309.73 252.72 305.90 287.11 301.61 Z" />
<path fill="#f3722c" opacity="1.00" d=" M 214.15 323.24 C 293.83 312.44 373.54 301.79 453.21 290.93 C 453.96 293.89 454.65 296.88 455.01 299.92 C 456.40 312.12 458.11 324.29 459.47 336.50 C 458.99 336.30 458.02 335.90 457.53 335.70 C 457.23 336.22 456.61 337.25 456.31 337.77 C 456.27 334.69 455.88 331.63 455.55 328.58 C 417.54 337.15 379.63 346.16 341.58 354.49 C 327.08 355.10 313.12 359.34 298.96 362.13 C 299.06 362.66 299.27 363.73 299.37 364.26 C 294.29 365.45 289.24 367.03 283.99 367.17 C 274.16 365.48 264.07 366.41 254.40 368.59 C 246.94 370.37 240.08 374.12 234.22 379.02 C 230.66 380.17 226.98 380.88 223.34 381.71 C 224.32 384.55 225.31 387.39 226.29 390.24 C 225.68 391.71 225.15 393.20 224.66 394.72 C 216.77 371.76 208.43 348.94 200.49 325.99 C 204.99 324.85 209.54 323.85 214.15 323.24 Z" />
<path fill="#f5e5c1" opacity="1.00" d=" M 430.98 297.10 C 432.99 296.88 435.00 296.66 437.02 296.45 C 442.27 304.77 447.47 313.13 452.86 321.37 C 451.02 322.31 449.19 323.26 447.36 324.20 C 445.92 321.79 444.48 319.40 443.02 317.01 C 439.91 317.34 436.82 317.75 433.73 318.26 C 433.23 321.29 432.73 324.31 432.23 327.35 C 429.82 327.13 427.41 326.92 425.01 326.70 C 426.38 316.72 429.14 307.00 430.98 297.10 Z" />
<path fill="#f5e5c1" opacity="1.00" d=" M 399.22 303.36 C 401.06 302.93 402.91 302.52 404.76 302.11 C 406.66 311.46 407.98 320.93 410.05 330.25 C 407.79 330.67 405.54 331.12 403.30 331.59 C 402.40 326.65 401.58 321.69 400.93 316.72 C 398.94 322.24 398.00 328.05 396.71 333.75 C 395.63 333.73 394.57 333.71 393.51 333.70 C 390.74 329.56 388.07 325.34 385.01 321.41 C 385.66 325.95 386.69 330.42 387.68 334.89 C 385.16 335.34 382.61 335.66 380.07 336.00 C 378.14 326.21 376.43 316.38 374.72 306.55 C 376.85 306.21 378.97 305.84 381.10 305.48 C 385.46 312.13 389.91 318.72 394.33 325.32 C 396.09 318.03 397.66 310.69 399.22 303.36 Z" />
<path fill="#f5e5c1" opacity="1.00" d=" M 366.79 308.15 C 367.82 306.23 369.37 304.26 371.81 305.34 C 375.41 308.07 372.87 314.58 368.53 314.60 C 368.98 313.57 369.44 312.55 369.91 311.53 C 368.97 310.74 368.05 309.96 367.13 309.18 C 367.77 318.87 369.37 328.47 370.63 338.10 C 367.86 338.38 365.10 338.69 362.35 339.01 C 361.02 329.04 359.77 319.06 358.57 309.07 C 361.31 308.81 364.05 308.51 366.79 308.15 Z" />
<path fill="#f3722c" opacity="1.00" d=" M 435.78 305.89 C 437.41 308.40 439.04 310.90 440.73 313.38 C 438.58 313.81 436.42 314.24 434.28 314.66 C 434.73 311.73 435.25 308.80 435.78 305.89 Z" />
<path fill="#f5e5c1" opacity="1.00" d=" M 323.36 314.54 C 332.94 311.84 343.38 320.00 342.79 329.98 C 343.11 339.53 332.97 346.76 323.95 345.01 C 316.85 343.89 311.27 337.21 311.25 330.05 C 310.85 322.83 316.36 316.04 323.36 314.54 Z" />
<path fill="#3e3e3e" opacity="1.00" d=" M 181.03 321.04 C 182.53 320.40 184.04 319.77 185.55 319.13 C 208.00 379.77 230.52 440.38 253.00 501.01 C 328.90 478.00 404.80 455.02 480.70 432.00 C 480.78 433.34 480.87 434.67 480.96 436.01 C 409.31 461.35 337.65 486.66 266.01 512.00 L 246.94 512.00 C 224.96 448.35 202.98 384.70 181.03 321.04 Z" />
<path fill="#f5e5c1" opacity="1.00" d=" M 293.15 320.37 C 295.82 319.77 298.49 319.16 301.16 318.55 C 302.70 326.61 304.71 334.58 305.98 342.69 C 309.11 342.08 312.23 341.45 315.38 340.93 C 315.53 342.67 315.69 344.42 315.84 346.17 C 310.35 347.19 304.90 348.38 299.46 349.64 C 297.27 339.91 295.30 330.12 293.15 320.37 Z" />
<path fill="#f5e5c1" opacity="1.00" d=" M 274.24 323.55 C 276.94 323.00 279.66 322.46 282.38 321.99 C 284.01 329.67 285.55 337.37 287.10 345.06 C 287.31 345.25 287.73 345.63 287.94 345.83 C 290.75 345.47 293.44 344.54 296.17 343.83 C 296.57 345.60 296.97 347.36 297.39 349.14 C 291.79 350.41 286.18 351.69 280.55 352.90 C 278.38 343.13 276.58 333.28 274.24 323.55 Z" />
<path fill="#f3722c" opacity="1.00" d=" M 324.48 322.66 C 329.11 320.95 335.17 323.67 335.89 328.82 C 337.22 334.13 332.20 339.27 326.97 339.03 C 321.85 339.24 317.61 333.97 318.59 329.01 C 319.11 325.97 321.65 323.63 324.48 322.66 Z" />
<path fill="#f5e5c1" opacity="1.00" d=" M 248.90 327.77 C 256.87 326.24 264.89 325.04 272.87 323.56 C 273.32 325.85 273.76 328.14 274.22 330.44 C 268.77 331.57 263.28 332.44 257.81 333.39 C 258.36 336.69 258.98 339.97 259.65 343.25 C 262.54 342.70 265.44 342.16 268.33 341.60 C 268.74 342.88 269.16 344.17 269.58 345.46 C 266.53 346.09 263.47 346.67 260.40 347.20 C 260.50 347.99 260.70 349.57 260.79 350.37 C 265.30 349.54 269.79 348.63 274.25 347.58 C 274.65 349.47 275.07 351.36 275.49 353.25 C 268.42 354.53 261.39 356.04 254.29 357.15 C 252.40 347.37 250.90 337.53 248.90 327.77 Z" />
<path fill="#f5e5c1" opacity="1.00" d=" M 239.68 329.58 C 242.02 329.08 244.37 328.58 246.72 328.11 C 248.73 337.63 250.34 347.23 252.46 356.73 C 250.19 357.33 247.91 357.93 245.64 358.56 C 245.06 355.76 244.49 352.96 243.99 350.14 C 239.32 350.81 234.70 351.74 230.07 352.61 C 230.37 355.46 230.75 358.31 231.18 361.15 C 228.31 361.66 225.43 362.17 222.55 362.68 C 220.70 353.04 219.36 343.32 217.60 333.66 C 220.54 333.17 223.47 332.67 226.41 332.19 C 227.33 337.36 228.25 342.53 228.85 347.74 C 233.53 347.04 238.16 346.02 242.83 345.19 C 241.97 339.95 240.87 334.75 239.68 329.58 Z" />
<path fill="#f5e5c1" opacity="1.00" d=" M 341.58 354.49 C 379.63 346.16 417.54 337.15 455.55 328.58 C 455.88 331.63 456.27 334.69 456.31 337.77 C 449.39 350.58 442.38 363.35 435.51 376.19 C 421.89 365.68 408.31 355.14 394.73 344.58 C 389.62 350.50 384.53 356.44 379.56 362.48 C 392.55 371.82 405.58 381.11 418.60 390.42 C 421.27 392.45 425.05 394.04 425.38 397.86 C 428.21 410.47 431.13 423.07 433.98 435.68 C 376.13 452.64 318.30 469.67 260.46 486.66 C 257.74 479.62 255.74 472.31 252.66 465.42 C 261.51 467.41 271.10 468.04 279.71 464.68 C 285.63 462.45 290.80 457.58 292.31 451.29 C 293.97 443.24 291.36 434.32 285.21 428.77 C 277.13 421.06 265.34 419.33 256.86 412.24 C 252.67 408.86 250.12 403.08 251.87 397.77 C 253.36 393.03 258.31 390.39 263.01 389.97 C 272.04 388.93 280.96 392.30 288.46 397.11 C 291.61 388.77 294.86 380.47 298.01 372.13 C 293.54 369.96 288.90 368.06 283.99 367.17 C 289.24 367.03 294.29 365.45 299.37 364.26 C 305.45 395.65 311.50 427.04 317.63 458.42 C 326.02 456.56 334.40 454.64 342.82 452.87 C 340.77 440.58 338.68 428.29 336.71 415.99 C 347.05 414.24 357.61 412.11 366.80 406.81 C 374.50 402.51 380.34 394.06 379.90 385.02 C 379.61 380.16 379.06 375.22 377.23 370.68 C 373.43 361.83 364.45 355.63 354.93 354.74 C 350.49 354.31 346.02 354.48 341.58 354.49 Z" />
<path fill="#3e3e3e" opacity="1.00" d=" M 457.53 335.70 C 458.02 335.90 458.99 336.30 459.47 336.50 C 464.04 338.74 468.57 341.08 473.07 343.47 C 473.30 343.64 473.76 343.97 473.99 344.14 L 473.59 345.12 C 470.29 351.46 466.41 357.47 462.91 363.69 C 462.09 365.08 461.28 366.47 460.47 367.87 C 456.57 374.63 452.62 381.36 448.68 388.10 C 451.73 401.62 454.74 415.15 457.78 428.67 C 457.99 429.63 458.21 430.59 458.43 431.56 C 458.63 432.49 458.84 433.42 459.06 434.36 C 451.09 436.16 443.11 437.87 435.17 439.74 L 434.85 438.80 C 434.63 438.02 434.20 436.46 433.98 435.68 C 431.13 423.07 428.21 410.47 425.38 397.86 C 425.05 394.04 421.27 392.45 418.60 390.42 C 405.58 381.11 392.55 371.82 379.56 362.48 C 384.53 356.44 389.62 350.50 394.73 344.58 C 408.31 355.14 421.89 365.68 435.51 376.19 C 442.38 363.35 449.39 350.58 456.31 337.77 C 456.61 337.25 457.23 336.22 457.53 335.70 Z" />
<path fill="#3e3e3e" opacity="1.00" d=" M 298.96 362.13 C 313.12 359.34 327.08 355.10 341.58 354.49 C 346.02 354.48 350.49 354.31 354.93 354.74 C 364.45 355.63 373.43 361.83 377.23 370.68 C 379.06 375.22 379.61 380.16 379.90 385.02 C 380.34 394.06 374.50 402.51 366.80 406.81 C 357.61 412.11 347.05 414.24 336.71 415.99 C 338.68 428.29 340.77 440.58 342.82 452.87 C 334.40 454.64 326.02 456.56 317.63 458.42 C 311.50 427.04 305.45 395.65 299.37 364.26 C 299.27 363.73 299.06 362.66 298.96 362.13 Z" />
<path fill="#f3722c" opacity="1.00" d=" M 460.47 367.87 C 461.28 366.47 462.09 365.08 462.91 363.69 C 465.53 385.15 468.45 406.59 470.86 428.05 C 466.79 429.48 462.55 430.33 458.43 431.56 C 458.21 430.59 457.99 429.63 457.78 428.67 C 461.05 427.71 464.32 426.76 467.60 425.81 C 465.32 406.48 462.69 387.20 460.47 367.87 Z" />
<path fill="#3e3e3e" opacity="1.00" d=" M 254.40 368.59 C 264.07 366.41 274.16 365.48 283.99 367.17 C 288.90 368.06 293.54 369.96 298.01 372.13 C 294.86 380.47 291.61 388.77 288.46 397.11 C 280.96 392.30 272.04 388.93 263.01 389.97 C 258.31 390.39 253.36 393.03 251.87 397.77 C 250.12 403.08 252.67 408.86 256.86 412.24 C 265.34 419.33 277.13 421.06 285.21 428.77 C 291.36 434.32 293.97 443.24 292.31 451.29 C 290.80 457.58 285.63 462.45 279.71 464.68 C 271.10 468.04 261.51 467.41 252.66 465.42 C 251.87 465.21 250.28 464.79 249.48 464.59 C 245.90 463.60 242.41 462.30 238.95 460.94 C 240.43 456.52 242.04 452.15 243.49 447.72 C 244.11 445.80 244.63 443.84 244.96 441.85 C 250.68 444.75 256.42 448.44 263.00 448.77 C 266.27 448.95 270.42 447.56 271.27 444.03 C 270.71 440.74 267.54 438.82 264.96 437.14 C 256.17 432.06 246.29 428.97 237.94 423.09 C 236.44 422.06 234.98 420.98 233.57 419.86 C 226.76 413.50 222.95 404.03 224.66 394.72 C 225.15 393.20 225.68 391.71 226.29 390.24 C 228.12 386.00 230.95 382.26 234.22 379.02 C 240.08 374.12 246.94 370.37 254.40 368.59 Z" />
<path fill="#f5e5c1" opacity="1.00" d=" M 448.68 388.10 C 452.62 381.36 456.57 374.63 460.47 367.87 C 462.69 387.20 465.32 406.48 467.60 425.81 C 464.32 426.76 461.05 427.71 457.78 428.67 C 454.74 415.15 451.73 401.62 448.68 388.10 Z" />
<path fill="#f5e5c1" opacity="1.00" d=" M 328.90 377.78 C 335.54 376.36 342.57 374.62 349.26 376.68 C 356.99 378.86 360.44 390.50 354.00 395.88 C 348.37 400.67 340.55 401.22 333.53 402.19 C 331.95 394.06 330.47 385.91 328.90 377.78 Z" />
<path fill="#f5e5c1" opacity="1.00" d=" M 223.34 381.71 C 226.98 380.88 230.66 380.17 234.22 379.02 C 230.95 382.26 228.12 386.00 226.29 390.24 C 225.31 387.39 224.32 384.55 223.34 381.71 Z" />
<path fill="#f3722c" opacity="1.00" d=" M 233.57 419.86 C 234.98 420.98 236.44 422.06 237.94 423.09 C 240.29 429.34 242.10 435.80 244.96 441.85 C 244.63 443.84 244.11 445.80 243.49 447.72 C 240.14 438.45 237.03 429.09 233.57 419.86 Z" />
<path fill="#f5e5c1" opacity="1.00" d=" M 237.94 423.09 C 246.29 428.97 256.17 432.06 264.96 437.14 C 267.54 438.82 270.71 440.74 271.27 444.03 C 270.42 447.56 266.27 448.95 263.00 448.77 C 256.42 448.44 250.68 444.75 244.96 441.85 C 242.10 435.80 240.29 429.34 237.94 423.09 Z" />
<path fill="#f3722c" opacity="1.00" d=" M 260.46 486.66 C 318.30 469.67 376.13 452.64 433.98 435.68 C 434.20 436.46 434.63 438.02 434.85 438.80 C 422.00 441.99 409.42 446.18 396.68 449.77 C 351.29 463.10 305.90 476.44 260.51 489.78 C 259.88 489.49 258.62 488.91 257.99 488.62 C 255.09 480.63 252.28 472.61 249.48 464.59 C 250.28 464.79 251.87 465.21 252.66 465.42 C 255.74 472.31 257.74 479.62 260.46 486.66 Z" />
<path fill="#3e3e3e" opacity="1.00" d=" M 482.35 512.00 C 478.34 499.10 474.81 486.04 471.05 473.07 C 481.72 486.02 492.16 499.15 502.95 512.00 L 482.35 512.00 Z" />
</svg>
