<?xml version="1.0" encoding="UTF-8" ?>
<!DOCTYPE svg PUBLIC "-//W3C//DTD SVG 1.1//EN" "http://www.w3.org/Graphics/SVG/1.1/DTD/svg11.dtd">
<svg width="512pt" height="512pt" viewBox="0 0 512 512" version="1.1" xmlns="http://www.w3.org/2000/svg">
<path fill="#3e3e3e" opacity="1.00" d=" M 0.00 0.00 L 512.00 0.00 L 512.00 512.00 L 0.00 512.00 L 0.00 0.00 Z" />
<path fill="#f4722b" opacity="1.00" d=" M 166.18 53.04 C 169.41 52.55 173.24 50.35 176.08 52.95 C 178.07 58.73 183.88 62.38 185.79 68.30 C 187.04 72.63 189.45 76.46 191.77 80.27 C 193.52 83.09 193.68 86.48 194.73 89.55 C 195.67 92.94 198.16 95.91 197.79 99.58 C 195.51 101.42 193.19 103.86 190.03 103.79 C 187.27 103.63 184.53 103.27 181.77 103.37 C 179.76 100.06 176.30 98.01 174.28 94.71 C 168.88 86.85 162.10 80.01 157.01 71.94 C 155.68 68.33 153.85 63.36 157.19 60.27 C 160.09 57.77 162.75 54.78 166.18 53.04 Z" />
<path fill="#f4722b" opacity="1.00" d=" M 206.67 61.75 C 208.34 59.80 210.20 56.27 213.24 58.24 C 213.76 62.45 219.35 63.89 218.68 68.36 C 217.44 68.80 216.20 69.25 214.96 69.71 C 213.81 72.45 211.59 74.46 209.67 76.65 C 206.35 80.65 202.96 84.64 198.95 87.97 C 197.30 84.39 197.01 80.05 194.27 77.09 C 195.57 70.21 202.51 66.78 206.67 61.75 Z" />
<path fill="#f4722b" opacity="1.00" d=" M 186.10 62.99 C 189.49 64.40 192.52 66.48 195.74 68.23 C 194.17 69.87 192.52 71.42 190.97 73.07 C 189.52 72.18 189.55 70.35 188.87 68.98 C 187.93 66.97 185.98 65.40 186.10 62.99 Z" />
<path fill="#f4722b" opacity="1.00" d=" M 134.01 76.23 C 135.03 72.99 138.02 71.01 140.89 69.56 C 144.13 69.45 147.36 70.26 150.58 70.62 C 154.36 74.10 158.29 77.51 161.15 81.83 C 165.09 87.50 170.14 92.31 174.08 97.97 C 175.72 100.81 178.21 104.72 175.87 107.85 C 173.53 111.38 171.45 115.45 167.53 117.49 C 164.47 118.73 161.75 116.13 159.29 114.70 C 152.76 110.65 149.35 103.39 143.42 98.69 C 139.05 95.24 138.82 89.16 136.90 84.32 C 134.71 87.25 138.05 90.56 137.97 93.73 C 136.37 93.41 134.78 93.38 133.18 93.65 C 137.16 95.92 141.64 98.05 143.41 102.62 C 148.83 108.75 154.56 114.71 160.45 120.44 C 161.22 121.15 161.58 122.14 161.97 123.09 C 159.07 124.30 156.00 125.94 154.67 128.97 C 154.46 132.14 154.64 135.33 154.44 138.51 C 149.98 139.42 147.31 135.04 144.09 132.81 C 138.90 127.64 133.76 121.95 126.75 119.26 C 125.21 118.44 123.46 118.71 121.80 118.76 C 121.85 119.60 121.94 121.28 121.99 122.12 C 126.35 122.05 130.59 123.33 134.35 125.51 C 130.35 126.67 127.06 130.15 126.49 134.31 C 126.21 135.47 127.14 136.32 127.73 137.16 C 128.92 132.77 131.64 129.07 134.35 125.51 L 135.12 124.97 C 137.66 129.00 141.62 131.79 144.71 135.35 C 147.47 138.09 149.30 142.34 153.66 142.69 C 153.71 146.67 151.31 150.65 147.84 152.53 C 144.37 152.60 140.87 152.73 137.40 152.51 C 133.50 150.18 130.99 146.19 127.32 143.55 C 127.38 144.40 127.51 146.10 127.57 146.95 C 124.31 144.34 120.06 144.02 116.38 142.30 C 117.75 144.34 119.84 145.65 122.14 146.41 C 120.80 149.15 118.74 151.46 116.69 153.69 C 114.97 153.58 115.24 151.27 114.76 150.08 C 113.86 144.28 112.84 138.48 112.23 132.65 C 111.77 129.80 113.91 127.57 114.98 125.13 C 117.10 120.59 119.31 116.09 121.48 111.58 C 125.76 99.84 129.36 87.84 134.01 76.23 Z" />
<path fill="#f4722b" opacity="1.00" d=" M 221.90 72.95 C 224.27 70.73 227.47 73.02 229.76 74.23 C 231.71 75.63 234.47 77.17 234.71 79.78 C 232.25 84.99 227.31 88.31 223.82 92.75 C 220.71 96.66 216.97 99.98 213.29 103.32 C 208.98 103.50 204.67 103.53 200.36 103.55 C 200.47 101.20 200.55 98.85 200.61 96.51 C 203.63 92.92 206.45 89.15 209.87 85.93 C 214.14 81.85 217.68 77.07 221.90 72.95 Z" />
<path fill="#3e3e3e" opacity="1.00" d=" M 141.53 83.22 C 143.24 77.84 149.35 72.89 154.97 76.16 C 150.80 76.84 147.17 79.35 144.51 82.54 C 143.84 83.66 142.63 83.76 141.53 83.22 Z" />
<path fill="#f4722b" opacity="1.00" d=" M 215.53 106.43 C 218.30 104.36 220.79 101.93 223.22 99.47 C 227.88 103.93 229.28 110.59 231.25 116.53 C 231.84 119.31 231.52 122.18 231.62 125.00 C 231.58 132.38 233.29 139.60 233.84 146.93 C 235.91 158.80 236.64 171.30 242.79 181.98 C 241.98 184.22 240.14 185.87 238.53 187.56 C 232.43 193.47 226.39 199.45 220.40 205.47 C 214.32 211.52 207.39 216.65 200.15 221.24 C 197.09 223.08 193.95 224.99 190.38 225.68 C 190.31 223.05 190.31 220.42 190.42 217.79 C 187.84 216.24 184.46 215.97 182.49 213.50 C 179.86 210.59 177.48 207.47 174.83 204.58 C 179.43 204.25 183.98 203.47 188.59 203.28 C 188.49 202.96 188.30 202.32 188.20 202.00 C 184.00 200.97 179.57 201.61 175.32 200.82 C 169.52 200.44 164.16 197.92 158.36 197.69 C 154.65 195.99 151.88 192.82 148.93 190.09 C 153.38 184.53 158.40 179.44 162.77 173.81 C 167.01 168.19 172.19 163.40 176.62 157.95 C 176.84 165.87 174.76 174.70 179.33 181.77 C 183.22 185.88 187.94 189.09 192.53 192.36 C 193.35 193.01 194.35 193.30 195.35 193.49 C 192.93 190.28 188.46 189.12 186.80 185.22 C 182.62 175.10 179.43 163.92 181.83 152.96 C 184.08 148.23 188.47 145.05 191.77 141.09 C 191.21 140.18 190.65 139.27 190.09 138.35 C 190.67 138.37 191.82 138.41 192.40 138.42 C 192.74 138.75 193.43 139.40 193.78 139.72 C 195.50 139.20 197.24 138.43 199.09 138.62 C 204.52 139.80 207.91 146.23 213.91 145.43 C 211.51 142.33 208.66 139.61 206.32 136.47 C 202.49 136.82 198.63 137.10 194.80 136.61 C 197.98 134.50 200.96 131.67 205.05 131.78 C 207.00 131.21 203.68 130.83 203.17 131.24 C 197.95 132.83 192.64 134.11 187.50 135.96 C 188.96 131.98 189.05 127.60 187.60 123.61 C 187.97 128.87 186.31 134.01 183.43 138.37 C 179.42 140.28 175.67 143.42 171.00 143.31 C 167.45 143.43 163.36 142.91 161.14 139.76 C 157.92 136.47 156.81 129.96 160.97 126.97 C 165.61 124.07 170.81 121.65 174.31 117.29 C 176.56 114.38 178.35 110.61 182.16 109.49 C 189.37 108.40 196.71 109.96 203.91 108.69 C 205.68 108.30 207.47 108.63 209.14 109.27 C 211.22 108.21 213.47 107.52 215.53 106.43 Z" />
<path fill="#3e3e3e" opacity="1.00" d=" M 131.57 114.78 C 132.37 110.52 133.99 105.26 138.67 103.95 C 136.81 107.11 134.73 110.33 135.24 114.18 C 134.01 114.38 132.79 114.58 131.57 114.78 Z" />
<path fill="#3e3e3e" opacity="1.00" d=" M 126.49 134.31 C 127.06 130.15 130.35 126.67 134.35 125.51 C 131.64 129.07 128.92 132.77 127.73 137.16 C 127.14 136.32 126.21 135.47 126.49 134.31 Z" />
<path fill="#f4722b" opacity="1.00" d=" M 159.48 148.59 C 166.37 149.20 172.29 145.07 178.97 144.35 C 176.92 147.74 174.24 150.65 171.53 153.51 C 163.86 162.49 155.59 171.06 149.20 181.04 C 147.76 183.55 145.58 185.48 142.97 186.70 C 138.11 182.56 132.62 179.27 127.29 175.80 C 130.31 171.69 134.00 168.14 137.07 164.06 C 138.83 161.67 141.32 159.53 141.62 156.39 C 147.23 155.51 153.13 154.25 157.35 150.14 C 157.62 148.55 157.90 146.86 159.25 145.82 C 159.31 146.51 159.42 147.89 159.48 148.59 Z" />
<path fill="#f4722b" opacity="1.00" d=" M 123.10 149.97 C 124.16 148.98 125.88 148.91 127.11 149.62 C 130.45 151.44 133.72 153.38 137.01 155.28 C 133.78 156.90 131.86 160.04 129.48 162.60 C 126.83 165.55 124.55 168.81 122.16 171.96 C 118.92 169.79 115.28 168.28 112.03 166.17 C 109.46 163.54 114.06 161.39 114.98 159.06 C 113.54 157.66 111.28 156.47 111.54 154.14 C 113.11 155.27 114.64 156.46 116.16 157.67 C 118.39 155.03 120.47 152.23 123.10 149.97 Z" />
<path fill="#f5e5c1" opacity="1.00" d=" M 109.97 172.98 C 112.96 170.95 115.55 174.78 117.98 176.06 C 110.48 183.49 102.81 190.81 96.01 198.90 C 80.82 213.11 68.70 230.14 55.42 246.04 C 45.33 256.94 42.04 271.91 39.63 286.11 C 39.22 289.37 37.57 292.97 39.65 296.01 C 34.49 301.81 28.97 307.36 24.72 313.90 C 24.13 314.87 23.81 315.97 23.45 317.05 C 23.57 311.58 23.26 306.10 23.96 300.65 C 24.74 293.30 24.05 285.83 25.64 278.56 C 27.60 269.31 28.88 259.72 33.11 251.16 C 36.87 244.48 42.44 239.09 47.08 233.05 C 53.52 226.17 59.75 219.09 66.47 212.48 C 74.47 203.47 84.04 196.07 92.61 187.64 C 98.48 182.85 103.84 177.43 109.97 172.98 Z" />
<path fill="#f5e5c1" opacity="1.00" d=" M 95.93 200.01 C 102.30 191.14 111.19 184.59 118.95 177.05 C 124.56 180.30 130.12 183.63 135.85 186.69 C 125.74 195.98 116.44 206.16 107.89 216.89 C 102.01 224.70 96.49 232.77 90.65 240.61 C 82.60 250.78 75.19 261.53 69.41 273.16 C 68.47 274.95 66.59 275.90 64.97 276.96 C 55.97 282.31 47.18 288.16 39.85 295.70 C 37.78 292.75 39.68 289.21 40.00 286.04 C 42.72 272.68 44.95 258.10 54.60 247.73 C 59.30 241.46 64.64 235.72 69.83 229.86 C 78.22 219.65 86.48 209.28 95.93 200.01 Z" />
<path fill="#f4722b" opacity="1.00" d=" M 237.23 212.12 C 242.56 203.11 247.23 193.73 251.51 184.19 C 257.40 187.02 262.72 191.03 269.00 193.00 C 284.63 199.16 300.37 205.10 316.29 210.49 C 323.14 211.90 329.18 215.48 335.36 218.56 C 346.41 224.51 358.01 229.29 369.78 233.61 C 369.67 234.76 369.57 235.92 369.48 237.08 C 371.34 239.52 373.42 241.97 373.97 245.09 C 374.91 249.64 377.06 253.80 378.44 258.22 C 382.15 271.20 386.88 283.87 389.98 297.04 C 391.42 298.09 392.86 299.16 394.28 300.26 C 392.53 292.12 392.36 283.64 389.06 275.88 C 387.54 268.76 385.47 261.62 385.29 254.31 C 387.00 254.25 389.45 253.54 390.53 255.36 C 393.85 261.68 396.07 268.50 398.69 275.12 C 401.91 283.32 403.63 292.50 409.91 299.09 C 412.77 301.89 414.76 306.68 419.03 307.31 C 423.42 306.15 420.87 301.36 419.79 298.57 C 417.83 290.78 414.38 283.51 411.68 275.97 C 415.72 276.20 421.03 279.13 424.23 275.28 C 425.49 273.21 424.23 270.84 422.34 269.72 C 417.56 265.65 412.25 262.31 406.82 259.18 C 403.29 257.37 401.96 253.46 400.18 250.19 C 406.56 253.16 413.19 255.53 420.00 257.29 C 422.58 257.75 425.81 257.85 427.51 255.47 C 429.08 253.93 428.65 251.21 426.95 249.94 C 425.40 248.30 422.92 248.62 420.92 248.06 C 415.23 247.03 411.25 242.52 406.96 239.05 C 400.76 233.79 394.63 227.33 386.19 226.10 C 380.90 224.95 375.67 226.86 370.99 229.19 C 371.14 227.68 370.97 226.08 371.59 224.67 C 379.99 221.00 389.34 219.75 397.44 215.34 C 400.80 213.30 402.40 208.00 406.94 208.28 C 410.50 209.15 413.35 211.68 416.39 213.61 C 421.18 216.69 425.08 220.88 428.80 225.14 C 442.37 240.46 453.85 257.51 464.03 275.23 C 467.72 281.49 468.41 288.88 469.47 295.93 C 470.00 300.47 471.30 305.03 470.74 309.63 C 469.66 313.45 467.23 316.68 465.23 320.05 C 463.59 322.64 462.49 325.56 460.45 327.88 C 449.17 318.72 434.57 313.45 420.00 313.97 C 405.46 314.00 391.36 320.05 380.24 329.20 C 368.99 338.44 360.97 351.27 356.75 365.14 C 351.94 348.58 341.25 333.75 326.78 324.32 C 312.07 314.59 293.08 311.14 276.07 316.18 C 269.13 317.89 262.86 321.39 256.72 324.91 C 253.24 323.96 250.51 321.36 247.38 319.66 C 240.53 315.66 234.37 310.66 228.00 305.99 C 213.66 297.13 199.78 287.56 185.89 278.05 C 183.40 277.07 182.54 274.47 183.15 271.99 C 184.48 263.94 185.14 255.80 186.34 247.74 C 189.44 252.57 192.14 257.65 194.99 262.64 C 196.34 262.17 197.84 261.92 198.91 260.90 C 206.73 253.70 214.33 246.13 220.31 237.28 C 225.98 228.91 232.02 220.79 237.23 212.12 Z" />
<path fill="#f5e5c1" opacity="1.00" d=" M 238.28 194.50 C 238.58 194.53 239.17 194.58 239.46 194.60 C 237.08 195.23 237.58 197.98 236.53 199.65 C 231.37 210.20 226.42 220.96 219.29 230.37 C 213.18 240.00 206.40 249.30 197.99 257.06 C 195.16 251.35 191.03 246.42 188.13 240.75 C 186.14 237.97 183.11 236.10 181.26 233.17 C 182.59 229.21 184.45 225.38 184.86 221.17 C 185.50 221.46 186.14 221.77 186.77 222.11 C 186.74 224.57 186.29 227.00 186.07 229.46 C 187.49 230.22 189.22 230.59 190.72 229.77 C 197.46 226.62 204.70 224.36 210.80 219.97 C 215.20 216.65 220.21 214.12 224.08 210.12 C 229.06 205.16 234.25 200.30 238.28 194.50 Z" />
<path fill="#f4722b" opacity="1.00" d=" M 395.05 258.91 C 397.38 259.82 398.89 261.80 399.86 264.03 C 396.96 263.86 395.80 261.36 395.05 258.91 Z" />
<path fill="#f4722b" opacity="1.00" d=" M 400.99 270.92 C 402.00 271.46 403.22 271.88 403.66 273.07 C 406.00 277.47 407.55 282.22 408.97 286.98 C 406.40 281.58 402.64 276.72 400.99 270.92 Z" />
<path fill="#f5e5c1" opacity="1.00" d=" M 153.49 328.67 C 165.76 326.70 178.66 328.50 189.67 334.34 C 204.02 341.85 215.11 355.02 220.65 370.18 C 226.93 387.02 226.71 406.23 219.84 422.86 C 214.04 437.14 203.14 449.40 189.37 456.43 C 174.94 463.79 157.36 464.58 142.27 458.75 C 127.12 452.86 114.70 440.68 107.86 426.01 C 95.68 400.46 100.28 367.59 119.97 347.03 C 128.84 337.60 140.70 330.88 153.49 328.67 Z" />
<path fill="#f5e5c1" opacity="1.00" d=" M 282.53 328.66 C 296.72 326.32 311.74 329.30 323.74 337.31 C 335.87 345.23 345.09 357.31 349.91 370.94 C 355.89 387.61 355.59 406.52 348.80 422.91 C 342.15 439.23 328.81 452.98 312.18 459.12 C 297.43 464.50 280.43 463.67 266.38 456.59 C 253.23 450.08 242.62 438.77 236.57 425.43 C 229.01 409.07 228.16 389.82 233.74 372.74 C 240.65 350.84 259.58 332.52 282.53 328.66 Z" />
<path fill="#f5e5c1" opacity="1.00" d=" M 410.60 328.81 C 422.62 326.73 435.33 328.18 446.29 333.67 C 460.14 340.48 471.19 352.54 477.23 366.70 C 485.45 385.71 485.13 408.37 475.94 426.99 C 469.11 441.04 457.17 452.72 442.62 458.56 C 432.96 462.50 422.25 463.37 411.98 461.93 C 393.31 458.99 376.86 446.47 367.87 430.02 C 353.83 404.98 356.86 371.43 375.62 349.60 C 384.53 339.06 396.99 331.42 410.60 328.81 Z" />
<path fill="#f5e5c1" opacity="1.00" d=" M 57.44 333.45 C 59.45 331.86 61.10 328.85 64.06 329.51 C 73.79 330.19 83.52 330.70 93.24 331.50 C 91.16 375.17 89.52 418.87 87.45 462.54 C 76.11 462.22 64.80 461.28 53.46 460.95 C 54.52 430.60 55.83 400.25 56.78 369.89 C 53.84 372.71 50.97 375.60 48.26 378.65 C 42.76 372.09 37.32 365.48 31.80 358.94 C 40.23 350.33 48.99 342.05 57.44 333.45 Z" />
<path fill="#3e3e3e" opacity="1.00" d=" M 156.52 369.74 C 164.85 367.55 174.05 369.79 180.58 375.38 C 191.44 384.46 194.72 400.17 191.51 413.55 C 188.54 425.16 179.11 435.35 167.14 437.71 C 156.04 439.70 144.92 433.01 139.27 423.69 C 133.68 414.93 132.90 403.88 134.94 393.91 C 137.28 382.87 145.26 372.56 156.52 369.74 Z" />
<path fill="#3e3e3e" opacity="1.00" d=" M 285.45 369.76 C 294.28 367.38 304.03 370.09 310.65 376.32 C 320.87 385.73 323.65 401.12 320.31 414.22 C 317.00 426.19 306.68 436.66 294.01 437.98 C 280.12 439.03 267.81 427.82 264.32 414.89 C 260.81 401.29 263.56 385.03 274.55 375.51 C 277.71 372.84 281.44 370.82 285.45 369.76 Z" />
<path fill="#3e3e3e" opacity="1.00" d=" M 416.26 369.32 C 423.19 368.10 430.56 369.61 436.32 373.70 C 444.40 379.12 449.18 388.53 450.27 398.06 C 450.96 405.23 450.62 412.77 447.36 419.33 C 443.13 428.75 434.31 436.35 423.96 437.89 C 412.73 439.26 401.88 432.14 396.55 422.56 C 391.19 413.20 390.74 401.62 393.57 391.40 C 396.52 380.74 405.12 371.35 416.26 369.32 Z" />
</svg>
