<?xml version="1.0" encoding="UTF-8" ?>
<!DOCTYPE svg PUBLIC "-//W3C//DTD SVG 1.1//EN" "http://www.w3.org/Graphics/SVG/1.1/DTD/svg11.dtd">
<svg width="512pt" height="512pt" viewBox="0 0 512 512" version="1.1" xmlns="http://www.w3.org/2000/svg">
<path fill="#3e3e3e" opacity="1.00" d=" M 0.00 0.00 L 512.00 0.00 L 512.00 144.41 C 505.33 144.18 498.69 143.47 492.04 142.99 C 498.45 150.15 504.21 158.45 506.06 168.05 C 507.48 174.93 505.52 182.41 500.68 187.53 C 493.70 194.93 483.33 199.59 473.07 198.24 C 464.12 197.34 456.00 192.84 449.16 187.20 C 452.98 194.30 455.78 202.42 454.39 210.58 C 453.23 217.68 448.02 223.53 441.77 226.78 C 433.41 231.25 423.15 233.29 414.04 229.95 C 404.90 226.49 398.33 218.40 394.30 209.76 C 394.27 216.66 392.80 223.84 388.30 229.28 C 382.68 236.39 373.82 240.07 365.09 241.54 C 358.28 242.69 350.87 241.89 345.05 237.92 C 339.66 234.50 336.16 228.92 333.63 223.20 C 334.92 231.02 332.40 239.20 326.95 244.95 C 317.15 255.40 302.13 261.38 287.83 258.77 C 281.98 257.88 276.54 255.39 271.48 252.43 C 274.74 258.17 277.23 264.95 275.39 271.59 C 273.35 278.95 266.96 284.13 260.31 287.31 C 251.98 291.30 242.91 293.58 233.73 294.52 C 229.49 285.84 225.66 276.96 221.64 268.18 C 218.80 262.15 217.25 255.63 214.52 249.55 C 211.28 240.60 208.77 231.36 204.84 222.65 C 211.20 218.98 217.60 214.49 220.95 207.73 C 222.70 204.56 222.89 200.86 224.17 197.54 C 235.75 193.26 247.40 189.10 259.20 185.43 C 271.51 182.08 284.20 179.94 296.10 175.24 C 299.14 173.84 302.61 172.49 304.31 169.39 C 306.26 165.95 306.76 161.91 307.19 158.03 C 307.77 150.38 308.34 142.24 304.87 135.13 C 302.03 129.22 299.89 122.63 294.99 118.05 C 291.87 115.03 287.23 116.43 283.58 117.50 C 277.21 119.91 271.16 123.09 264.83 125.62 C 256.74 128.71 249.58 133.82 241.33 136.54 C 232.03 140.80 222.55 144.62 213.10 148.52 C 219.66 142.00 229.09 140.22 237.08 136.12 C 252.75 128.52 268.66 121.44 284.63 114.49 C 288.61 112.99 293.85 112.63 297.03 115.96 C 302.27 121.21 304.41 128.51 307.44 135.08 C 311.03 133.70 313.33 130.62 313.42 126.73 C 314.96 125.35 316.46 123.93 317.93 122.48 C 316.13 119.48 315.23 116.10 315.15 112.62 C 311.75 113.19 308.26 114.25 304.86 113.10 C 303.92 112.91 302.05 112.55 301.12 112.37 C 302.86 111.15 304.78 110.18 306.92 109.89 C 326.64 105.95 346.25 101.39 366.00 97.59 C 363.06 90.66 360.58 83.50 359.46 76.03 C 352.40 78.16 345.44 80.64 338.22 82.23 C 324.42 85.80 310.68 89.71 297.20 94.37 C 289.05 98.41 280.30 101.03 272.12 105.03 C 256.44 111.19 241.26 118.56 225.46 124.42 C 214.33 127.65 205.06 134.96 194.42 139.32 C 195.91 139.75 197.41 140.20 198.90 140.66 C 202.21 144.64 208.18 144.37 211.37 148.45 C 205.48 147.86 199.91 145.53 195.10 142.16 C 188.63 143.08 182.83 146.25 176.63 148.09 C 171.16 149.83 165.97 152.30 160.60 154.27 C 151.68 157.30 143.18 161.39 134.35 164.63 C 134.31 165.20 134.22 166.35 134.17 166.93 C 133.11 167.81 132.06 168.69 131.01 169.59 C 129.79 174.70 126.33 178.95 125.39 184.16 C 123.49 190.98 124.35 198.11 125.13 205.03 C 126.00 211.95 129.25 218.30 132.81 224.20 C 136.64 230.59 143.05 234.79 149.55 238.10 C 149.59 238.94 149.66 239.78 149.78 240.62 C 144.62 240.53 138.92 239.82 135.10 236.00 C 131.65 232.40 128.03 228.83 125.65 224.40 C 119.14 211.77 116.08 196.97 119.20 182.95 C 120.84 176.06 125.23 170.37 129.86 165.20 C 123.85 162.65 118.28 159.14 112.28 156.62 C 110.30 157.35 108.55 158.57 106.82 159.75 C 101.01 163.90 95.04 167.91 89.87 172.88 C 85.43 176.98 81.65 181.70 77.40 185.98 C 77.39 188.52 77.41 191.05 77.47 193.59 C 76.34 194.37 75.21 195.15 74.08 195.93 C 74.58 201.60 77.37 206.66 79.51 211.84 C 81.26 210.49 83.01 209.15 84.78 207.82 C 86.61 207.40 88.43 206.90 90.23 206.37 C 90.81 206.36 91.39 206.36 91.97 206.36 C 92.73 204.47 93.95 202.82 95.76 201.83 C 95.20 203.81 94.54 205.75 93.87 207.69 C 92.91 208.63 91.92 209.55 91.05 210.59 C 94.12 212.93 97.60 214.70 101.27 215.89 C 102.41 217.28 103.80 218.53 104.61 220.15 C 104.87 222.16 104.93 224.29 104.40 226.27 C 100.33 230.64 94.94 233.49 90.68 237.66 C 85.82 241.87 81.74 247.12 75.91 250.08 C 74.13 253.30 71.25 255.47 67.90 256.88 C 65.38 257.82 65.71 260.86 65.56 263.03 C 65.53 269.97 63.88 276.76 63.03 283.62 C 61.28 295.73 60.63 307.98 58.43 320.02 C 57.14 327.20 56.72 334.49 55.51 341.68 C 45.61 344.35 34.88 345.46 24.99 342.19 C 14.90 339.04 6.25 332.16 0.00 323.73 L 0.00 0.00 Z" />
<path fill="#f5e5c1" opacity="1.00" d=" M 130.44 35.68 C 131.33 30.07 134.99 24.73 140.05 22.11 C 148.58 20.01 158.91 24.50 161.98 33.02 C 167.55 32.64 170.07 38.31 170.89 42.91 C 170.98 47.01 170.27 52.08 165.86 53.74 C 164.17 52.08 162.48 50.42 160.74 48.83 C 161.16 50.16 161.98 52.82 162.39 54.15 C 162.16 56.26 162.06 58.39 161.50 60.44 C 155.06 62.13 146.79 65.65 147.06 73.60 C 149.05 70.80 150.14 67.03 153.41 65.40 C 156.60 63.77 159.96 62.19 163.62 62.10 C 164.20 63.13 164.79 64.16 165.38 65.19 C 161.69 65.69 157.81 66.59 155.01 69.21 C 152.73 71.30 151.88 74.39 151.20 77.30 C 147.00 80.88 141.31 83.35 139.17 88.78 C 135.31 84.19 131.40 79.63 128.50 74.35 C 131.24 74.83 134.03 75.81 136.85 75.32 C 139.74 74.86 141.94 72.77 144.30 71.21 C 145.00 65.31 145.07 58.79 140.91 54.04 C 138.09 49.80 132.36 49.85 128.08 51.57 C 128.50 46.22 129.17 40.89 130.44 35.68 Z" />
<path fill="#3e3e3e" opacity="1.00" d=" M 139.04 36.80 C 140.20 33.77 143.50 32.55 146.02 30.88 C 144.23 32.96 142.33 34.94 140.44 36.92 C 140.24 39.86 139.95 42.83 140.36 45.77 C 141.42 48.38 143.50 50.43 145.02 52.78 C 147.79 52.21 150.55 51.51 153.38 51.23 C 149.79 53.88 144.02 55.13 140.77 51.30 C 136.73 47.58 137.35 41.50 139.04 36.80 Z" />
<path fill="#3e3e3e" opacity="1.00" d=" M 147.44 33.52 C 153.56 30.99 157.64 39.18 155.84 44.15 C 154.49 49.16 146.03 51.82 143.31 46.69 C 140.58 42.20 142.24 35.33 147.44 33.52 Z" />
<path fill="#3e3e3e" opacity="1.00" d=" M 163.77 49.24 C 162.48 44.52 161.85 39.09 164.93 34.89 C 168.28 38.89 169.25 44.68 167.30 49.54 C 166.42 49.47 164.65 49.32 163.77 49.24 Z" />
<path fill="#f4722b" opacity="1.00" d=" M 482.42 53.66 C 484.57 48.15 485.26 42.23 486.91 36.57 C 487.97 38.96 488.85 41.43 489.51 43.96 C 491.11 50.20 493.65 56.39 493.14 62.97 C 492.46 72.66 492.22 82.37 491.56 92.06 C 491.53 96.51 486.33 97.68 482.88 98.47 C 479.18 99.07 474.54 100.39 471.50 97.52 C 468.82 94.28 466.89 90.21 466.59 85.99 C 467.10 82.83 469.08 80.17 470.56 77.40 C 475.15 69.83 479.20 61.92 482.42 53.66 Z" />
<path fill="#f5e5c1" opacity="1.00" d=" M 429.52 43.53 C 432.53 42.98 435.71 42.19 438.75 42.96 C 443.51 49.02 445.69 56.52 448.53 63.55 C 451.07 70.08 452.30 77.00 453.73 83.83 C 454.28 86.12 453.80 88.65 452.45 90.57 C 449.86 93.27 445.93 93.76 442.46 94.50 C 436.12 95.58 429.72 96.32 423.40 97.50 C 408.61 100.66 394.02 104.93 379.00 106.87 C 374.43 107.60 370.69 104.01 369.20 100.03 C 365.16 89.68 360.37 78.94 361.51 67.56 C 361.87 64.79 365.09 64.94 367.09 63.99 C 387.24 55.30 408.44 49.46 429.52 43.53 Z" />
<path fill="#f5e5c1" opacity="1.00" d=" M 126.21 65.50 C 124.59 61.03 126.20 56.29 128.56 52.43 C 132.47 52.47 137.51 52.28 139.86 56.06 C 141.94 60.38 143.23 65.62 141.20 70.21 C 139.48 73.47 135.69 75.16 132.09 74.58 C 129.83 71.75 127.07 69.15 126.21 65.50 Z" />
<path fill="#3e3e3e" opacity="1.00" d=" M 485.57 58.01 C 484.92 68.71 484.61 79.43 483.81 90.12 C 481.73 90.68 479.64 91.24 477.57 91.81 C 476.42 89.36 474.09 86.64 475.84 83.88 C 479.69 75.51 484.21 67.26 485.57 58.01 Z" />
<path fill="#f5e5c1" opacity="1.00" d=" M 118.20 83.54 C 118.76 76.39 120.78 69.52 123.35 62.86 C 123.84 66.52 124.98 70.06 127.09 73.11 C 128.77 79.22 132.86 84.34 137.39 88.63 C 136.80 92.39 136.44 96.20 136.60 100.01 C 140.29 98.50 139.36 94.03 140.68 90.99 C 142.08 85.41 147.41 82.43 151.79 79.39 C 152.28 79.78 153.26 80.56 153.75 80.95 C 153.31 78.12 152.64 74.93 154.39 72.38 C 156.64 68.68 161.05 67.30 165.02 66.33 C 166.89 68.85 169.46 71.62 168.27 75.05 C 166.92 80.84 160.64 83.07 155.31 83.15 C 153.29 89.06 153.58 95.30 154.71 101.35 C 153.08 102.91 151.46 104.49 149.87 106.10 C 150.40 106.48 151.48 107.24 152.02 107.63 C 157.54 118.61 166.26 127.41 173.75 137.02 C 178.93 133.38 186.68 131.60 188.94 125.06 C 183.84 120.26 181.27 113.54 177.46 107.80 C 175.80 104.81 173.31 102.27 172.11 99.05 C 173.31 92.25 177.65 85.98 183.80 82.71 C 185.82 85.43 187.78 88.19 189.77 90.94 C 191.92 93.85 192.61 97.48 194.35 100.60 C 197.51 106.36 201.45 111.67 204.32 117.60 C 205.42 119.52 206.12 121.85 207.94 123.24 C 211.30 124.18 214.82 124.45 218.16 125.51 C 210.56 129.44 203.02 133.48 195.65 137.83 C 192.26 139.82 188.67 141.48 184.86 142.49 C 179.02 144.05 173.83 147.33 168.00 148.92 C 171.14 146.46 174.58 144.13 176.32 140.38 C 174.90 140.45 173.48 140.51 172.06 140.58 C 168.61 134.10 163.47 128.76 159.27 122.79 C 156.18 118.34 152.40 114.44 148.81 110.41 C 143.63 114.24 138.94 118.68 134.30 123.12 L 134.17 123.88 C 138.56 131.80 144.04 139.13 150.45 145.53 C 152.83 147.93 155.02 150.51 157.08 153.19 C 155.64 153.76 154.21 154.33 152.78 154.91 C 151.28 149.50 147.09 145.59 144.26 140.92 C 140.85 135.41 136.97 130.20 132.74 125.30 C 132.38 125.34 131.65 125.40 131.29 125.43 C 127.04 130.13 122.26 134.31 117.20 138.13 C 118.70 144.68 123.73 149.38 127.56 154.60 C 129.75 157.58 133.01 159.75 134.44 163.26 C 128.65 162.48 123.85 158.94 118.56 156.78 C 116.07 155.55 112.33 154.41 112.30 151.03 C 112.05 143.67 113.44 136.37 113.64 129.02 C 114.88 118.49 115.34 107.88 116.80 97.38 C 113.06 97.54 109.32 97.51 105.59 97.23 C 104.28 111.14 103.13 125.07 102.50 139.03 C 102.09 146.37 102.59 153.92 100.43 161.04 C 100.52 160.24 100.70 158.63 100.80 157.82 C 98.47 157.53 95.85 157.66 93.99 155.95 C 90.34 153.58 89.97 148.90 87.49 145.64 C 87.60 142.65 87.01 139.76 85.77 137.05 C 85.49 142.68 83.55 148.23 84.68 153.90 C 85.30 159.06 88.05 163.71 91.97 167.07 C 86.45 172.14 81.35 177.65 76.59 183.42 C 75.39 186.55 75.68 189.96 75.52 193.24 C 75.07 193.62 74.18 194.36 73.73 194.74 C 73.26 195.83 72.78 196.92 72.29 198.01 C 67.76 199.63 62.57 202.28 60.91 207.09 C 64.86 204.33 68.53 201.12 72.93 199.07 C 75.41 205.35 77.04 212.04 80.35 217.94 C 80.45 219.32 80.56 220.70 80.69 222.08 C 83.90 219.36 86.77 216.28 89.74 213.31 C 91.04 213.98 92.36 214.65 93.68 215.31 C 87.73 222.45 82.58 230.43 75.19 236.21 C 72.29 238.65 69.60 241.31 66.98 244.03 C 68.14 240.78 69.74 237.73 71.51 234.78 C 71.76 233.54 70.37 233.10 69.66 232.42 C 67.13 230.69 64.64 228.82 61.80 227.61 C 60.11 227.07 60.03 229.76 59.04 230.37 C 57.66 229.78 55.78 229.02 55.82 227.20 C 56.01 226.13 56.19 225.05 56.36 223.98 C 55.51 225.26 53.38 226.25 53.97 228.05 L 54.19 228.76 C 54.51 229.19 55.14 230.04 55.46 230.46 C 51.46 232.51 47.40 234.50 43.71 237.07 C 42.40 237.21 41.10 237.34 39.80 237.48 C 39.77 238.11 39.72 239.36 39.69 239.99 C 28.38 248.33 20.73 260.33 12.34 271.37 C 9.34 275.13 7.33 280.31 2.39 281.92 C 2.33 277.24 5.27 273.39 7.53 269.55 C 16.31 256.92 25.15 244.24 35.74 233.04 C 35.42 226.89 40.89 222.86 44.71 218.83 C 41.79 214.78 42.41 209.69 41.48 205.06 C 39.73 191.09 40.08 176.98 38.81 162.97 C 38.60 160.73 38.42 157.98 40.65 156.65 C 47.45 151.43 56.40 148.31 64.99 149.73 C 70.53 150.79 73.94 156.51 79.63 156.79 C 79.63 156.29 79.64 155.29 79.65 154.79 C 76.34 152.79 72.27 151.87 69.69 148.83 C 59.09 145.34 47.00 148.96 38.68 156.05 C 38.55 153.67 38.44 151.28 38.35 148.90 C 42.90 144.92 48.06 141.45 54.07 140.16 C 59.76 138.48 65.52 140.56 71.08 141.77 C 74.15 142.76 77.27 143.74 80.52 143.90 C 78.20 141.61 75.12 140.50 72.02 139.74 C 67.68 138.88 63.42 137.36 58.95 137.47 C 52.38 137.39 46.26 140.36 40.91 143.91 C 41.12 142.20 40.92 140.36 41.79 138.81 C 44.29 133.92 46.79 129.04 49.15 124.08 C 51.28 119.16 56.34 116.61 60.11 113.11 C 61.86 115.04 64.19 116.80 66.96 116.52 C 71.54 116.54 75.27 113.37 77.83 109.86 C 82.37 105.26 81.90 96.83 76.97 92.66 C 79.31 89.18 81.79 85.81 84.28 82.44 C 88.13 76.86 94.72 74.35 100.64 71.64 C 104.23 69.85 108.78 69.45 111.20 65.89 C 109.38 72.39 107.97 79.02 107.19 85.73 C 108.86 85.40 110.52 85.05 112.19 84.75 C 114.22 84.66 117.79 86.56 118.20 83.54 Z" />
<path fill="#f5e5c1" opacity="1.00" d=" M 338.22 82.23 C 345.44 80.64 352.40 78.16 359.46 76.03 C 360.58 83.50 363.06 90.66 366.00 97.59 C 346.25 101.39 326.64 105.95 306.92 109.89 C 304.78 110.18 302.86 111.15 301.12 112.37 C 302.05 112.55 303.92 112.91 304.86 113.10 C 308.26 114.25 311.75 113.19 315.15 112.62 C 315.23 116.10 316.13 119.48 317.93 122.48 C 316.46 123.93 314.96 125.35 313.42 126.73 C 313.33 130.62 311.03 133.70 307.44 135.08 C 304.41 128.51 302.27 121.21 297.03 115.96 C 293.85 112.63 288.61 112.99 284.63 114.49 C 268.66 121.44 252.75 128.52 237.08 136.12 C 229.09 140.22 219.66 142.00 213.10 148.52 C 222.55 144.62 232.03 140.80 241.33 136.54 C 249.58 133.82 256.74 128.71 264.83 125.62 C 271.16 123.09 277.21 119.91 283.58 117.50 C 287.23 116.43 291.87 115.03 294.99 118.05 C 299.89 122.63 302.03 129.22 304.87 135.13 C 308.34 142.24 307.77 150.38 307.19 158.03 C 306.76 161.91 306.26 165.95 304.31 169.39 C 302.61 172.49 299.14 173.84 296.10 175.24 C 284.20 179.94 271.51 182.08 259.20 185.43 C 247.40 189.10 235.75 193.26 224.17 197.54 C 222.89 200.86 222.70 204.56 220.95 207.73 C 217.60 214.49 211.20 218.98 204.84 222.65 C 208.77 231.36 211.28 240.60 214.52 249.55 C 217.25 255.63 218.80 262.15 221.64 268.18 C 225.66 276.96 229.49 285.84 233.73 294.52 C 242.91 293.58 251.98 291.30 260.31 287.31 C 266.96 284.13 273.35 278.95 275.39 271.59 C 277.23 264.95 274.74 258.17 271.48 252.43 C 276.54 255.39 281.98 257.88 287.83 258.77 C 302.13 261.38 317.15 255.40 326.95 244.95 C 332.40 239.20 334.92 231.02 333.63 223.20 C 336.16 228.92 339.66 234.50 345.05 237.92 C 350.87 241.89 358.28 242.69 365.09 241.54 C 373.82 240.07 382.68 236.39 388.30 229.28 C 392.80 223.84 394.27 216.66 394.30 209.76 C 398.33 218.40 404.90 226.49 414.04 229.95 C 423.15 233.29 433.41 231.25 441.77 226.78 C 448.02 223.53 453.23 217.68 454.39 210.58 C 455.78 202.42 452.98 194.30 449.16 187.20 C 456.00 192.84 464.12 197.34 473.07 198.24 C 483.33 199.59 493.70 194.93 500.68 187.53 C 505.52 182.41 507.48 174.93 506.06 168.05 C 504.21 158.45 498.45 150.15 492.04 142.99 C 498.69 143.47 505.33 144.18 512.00 144.41 L 512.00 201.85 C 506.26 206.34 500.40 211.15 493.29 213.25 C 486.12 215.24 478.72 217.25 471.21 216.13 C 468.36 230.74 455.72 241.72 441.99 246.11 C 434.22 248.14 426.13 250.70 418.04 249.07 C 411.84 247.85 405.56 246.42 400.05 243.17 C 393.91 249.36 386.40 254.42 377.89 256.61 C 370.40 258.46 362.72 260.89 354.92 259.68 C 350.16 258.93 345.52 257.57 340.90 256.25 C 332.64 265.10 322.09 272.32 310.11 274.90 C 304.27 276.43 298.29 277.60 292.21 277.42 C 287.75 292.95 272.94 302.94 258.14 307.37 C 248.31 310.04 238.28 312.83 228.00 312.55 C 222.20 312.43 216.56 311.04 210.96 309.66 C 207.41 315.08 203.91 320.66 199.03 325.00 C 191.22 331.78 182.18 337.36 172.14 340.09 C 157.11 344.12 141.40 347.65 125.81 345.08 C 117.01 343.36 108.08 341.51 100.11 337.24 C 90.41 346.70 78.38 353.77 65.27 357.27 C 54.72 359.90 43.96 363.32 32.95 361.89 C 21.17 360.18 9.16 356.83 0.00 348.85 L 0.00 323.73 C 6.25 332.16 14.90 339.04 24.99 342.19 C 34.88 345.46 45.61 344.35 55.51 341.68 C 56.72 334.49 57.14 327.20 58.43 320.02 C 60.63 307.98 61.28 295.73 63.03 283.62 C 63.88 276.76 65.53 269.97 65.56 263.03 C 65.71 260.86 65.38 257.82 67.90 256.88 C 71.25 255.47 74.13 253.30 75.91 250.08 C 81.74 247.12 85.82 241.87 90.68 237.66 C 94.94 233.49 100.33 230.64 104.40 226.27 C 104.93 224.29 104.87 222.16 104.61 220.15 C 103.80 218.53 102.41 217.28 101.27 215.89 C 97.60 214.70 94.12 212.93 91.05 210.59 C 91.92 209.55 92.91 208.63 93.87 207.69 C 94.54 205.75 95.20 203.81 95.76 201.83 C 93.95 202.82 92.73 204.47 91.97 206.36 C 91.39 206.36 90.81 206.36 90.23 206.37 C 88.43 206.90 86.61 207.40 84.78 207.82 C 83.01 209.15 81.26 210.49 79.51 211.84 C 77.37 206.66 74.58 201.60 74.08 195.93 C 75.21 195.15 76.34 194.37 77.47 193.59 C 77.41 191.05 77.39 188.52 77.40 185.98 C 81.65 181.70 85.43 176.98 89.87 172.88 C 95.04 167.91 101.01 163.90 106.82 159.75 C 108.55 158.57 110.30 157.35 112.28 156.62 C 118.28 159.14 123.85 162.65 129.86 165.20 C 125.23 170.37 120.84 176.06 119.20 182.95 C 116.08 196.97 119.14 211.77 125.65 224.40 C 128.03 228.83 131.65 232.40 135.10 236.00 C 138.92 239.82 144.62 240.53 149.78 240.62 C 149.66 239.78 149.59 238.94 149.55 238.10 C 143.05 234.79 136.64 230.59 132.81 224.20 C 129.25 218.30 126.00 211.95 125.13 205.03 C 124.35 198.11 123.49 190.98 125.39 184.16 C 126.33 178.95 129.79 174.70 131.01 169.59 C 132.06 168.69 133.11 167.81 134.17 166.93 C 134.22 166.35 134.31 165.20 134.35 164.63 C 143.18 161.39 151.68 157.30 160.60 154.27 C 165.97 152.30 171.16 149.83 176.63 148.09 C 182.83 146.25 188.63 143.08 195.10 142.16 C 199.91 145.53 205.48 147.86 211.37 148.45 C 208.18 144.37 202.21 144.64 198.90 140.66 C 197.41 140.20 195.91 139.75 194.42 139.32 C 205.06 134.96 214.33 127.65 225.46 124.42 C 241.26 118.56 256.44 111.19 272.12 105.03 C 280.30 101.03 289.05 98.41 297.20 94.37 C 310.68 89.71 324.42 85.80 338.22 82.23 Z" />
<path fill="#3e3e3e" opacity="1.00" d=" M 104.91 90.12 C 108.11 89.49 111.43 88.90 114.68 89.46 C 115.92 89.54 116.55 90.53 116.76 91.64 C 114.40 93.73 111.05 93.75 108.08 93.57 C 106.11 93.73 105.79 91.38 104.91 90.12 Z" />
<path fill="#f5e5c1" opacity="1.00" d=" M 61.29 112.09 C 66.99 106.86 70.67 99.94 76.02 94.39 C 78.06 97.19 79.70 100.56 79.24 104.13 C 78.17 107.69 75.72 110.70 72.91 113.07 C 70.06 115.42 66.10 114.71 62.70 114.62 C 62.35 113.98 61.64 112.72 61.29 112.09 Z" />
<path fill="#f5e5c1" opacity="1.00" d=" M 153.41 105.61 C 157.26 102.04 161.32 98.66 165.26 95.18 C 167.86 97.78 170.14 100.68 172.15 103.76 C 167.51 107.25 163.93 112.17 158.19 114.05 C 156.76 111.25 153.10 108.89 153.41 105.61 Z" />
<path fill="#f5e5c1" opacity="1.00" d=" M 467.81 104.94 C 468.39 102.77 470.60 101.10 472.87 101.47 C 476.87 102.44 481.74 103.36 483.35 107.73 C 480.58 111.90 479.93 117.08 477.30 121.26 C 472.84 124.11 468.93 127.87 463.97 129.90 C 443.66 139.61 423.37 149.37 403.09 159.13 C 399.91 160.61 396.85 162.40 393.49 163.45 C 391.27 164.20 389.26 162.57 387.50 161.47 C 367.69 147.23 347.78 133.14 327.99 118.88 C 325.20 119.58 322.43 120.37 319.68 121.20 C 318.69 119.08 317.80 116.92 317.00 114.73 C 321.85 113.75 326.78 110.53 331.79 112.13 C 334.24 113.64 335.76 116.28 338.27 117.77 C 355.82 130.19 373.25 142.78 390.79 155.22 C 392.08 156.51 393.89 155.84 395.31 155.14 C 418.45 144.02 441.59 132.87 464.75 121.79 C 464.63 116.03 466.12 110.39 467.81 104.94 Z" />
<path fill="#f5e5c1" opacity="1.00" d=" M 136.28 123.89 C 140.49 120.56 144.17 116.63 148.40 113.33 C 151.53 116.38 154.30 119.77 157.01 123.19 C 151.71 125.59 147.65 129.88 142.88 133.10 C 140.44 130.20 138.58 126.89 136.28 123.89 Z" />
<path fill="#f5e5c1" opacity="1.00" d=" M 167.97 126.75 C 173.17 125.33 177.41 121.87 181.01 117.98 C 182.93 120.87 184.75 123.83 186.05 127.05 C 182.22 129.57 178.67 133.06 174.03 133.96 C 171.72 131.82 170.04 129.10 167.97 126.75 Z" />
<path fill="#3e3e3e" opacity="1.00" d=" M 268.74 127.45 C 269.86 125.77 271.64 124.69 273.20 123.47 C 273.82 128.66 272.98 133.87 273.45 139.06 C 273.84 144.19 275.24 149.16 276.52 154.12 C 275.37 156.37 272.75 156.92 270.45 156.52 C 268.47 154.17 267.94 151.01 267.39 148.09 C 266.00 141.26 266.22 133.98 268.74 127.45 Z" />
<path fill="#3e3e3e" opacity="1.00" d=" M 286.63 128.96 C 286.43 126.86 287.52 125.04 288.57 123.33 C 288.88 130.22 287.92 137.15 288.81 144.03 C 289.59 149.43 291.52 154.58 292.53 159.93 C 293.05 164.23 296.05 167.53 298.03 171.21 C 296.64 170.59 295.25 169.83 294.40 168.51 C 289.67 162.33 288.67 154.37 287.33 146.94 C 286.08 141.03 286.61 134.95 286.63 128.96 Z" />
<path fill="#f5e5c1" opacity="1.00" d=" M 119.42 139.00 C 123.85 135.59 128.14 132.01 132.05 128.03 C 134.76 131.12 137.19 134.44 139.64 137.74 C 136.58 138.71 135.23 141.85 132.58 143.39 C 130.06 144.87 127.67 146.54 125.17 148.02 C 122.72 145.39 121.04 142.18 119.42 139.00 Z" />
<path fill="#f5e5c1" opacity="1.00" d=" M 164.72 133.15 C 167.11 136.18 169.56 139.15 171.93 142.19 C 168.29 145.98 164.49 150.53 159.20 151.82 C 156.77 149.68 154.85 147.04 152.64 144.69 C 157.29 141.69 164.37 139.84 164.72 133.15 Z" />
<path fill="#3e3e3e" opacity="1.00" d=" M 240.44 155.26 C 239.15 151.95 239.62 147.47 242.85 145.45 C 246.46 144.56 249.79 148.94 248.30 152.26 C 247.38 154.47 245.06 155.43 243.14 156.55 C 242.47 156.23 241.12 155.58 240.44 155.26 Z" />
<path fill="#3e3e3e" opacity="1.00" d=" M 172.06 153.15 C 173.57 151.13 175.72 148.73 178.53 149.59 C 177.30 156.35 174.55 163.03 175.45 170.03 C 176.13 175.71 176.44 181.51 178.29 186.97 C 179.95 192.73 182.85 198.03 185.88 203.17 C 188.60 207.97 193.58 210.75 196.99 214.98 C 198.05 216.42 199.67 217.19 201.24 217.96 C 201.64 218.58 202.45 219.83 202.86 220.45 C 200.76 222.13 197.76 223.26 195.22 221.86 C 189.55 218.69 185.85 213.16 181.39 208.61 C 178.21 205.58 176.28 201.57 174.00 197.87 C 169.07 189.13 169.44 178.77 169.40 169.06 C 169.86 163.71 170.54 158.31 172.06 153.15 Z" />
<path fill="#f5e5c1" opacity="1.00" d=" M 141.81 157.58 C 144.59 156.30 146.52 153.84 148.66 151.76 C 149.38 153.17 150.10 154.59 150.81 156.02 C 145.99 157.47 141.68 160.43 136.61 161.03 C 138.13 159.58 139.88 158.41 141.81 157.58 Z" />
<path fill="#3e3e3e" opacity="1.00" d=" M 199.74 154.73 C 200.75 154.58 201.76 154.44 202.77 154.31 C 203.03 157.06 202.59 159.81 201.14 162.20 C 198.23 160.51 199.41 157.40 199.74 154.73 Z" />
<path fill="#3e3e3e" opacity="1.00" d=" M 219.42 164.58 C 218.27 161.21 218.98 157.75 220.62 154.68 C 222.21 154.61 223.81 154.52 225.41 154.43 C 226.42 155.62 227.71 156.69 228.19 158.23 C 228.14 160.51 226.80 162.51 226.13 164.64 C 223.91 165.30 221.64 165.17 219.42 164.58 Z" />
<path fill="#3e3e3e" opacity="1.00" d=" M 257.39 165.52 C 261.63 163.86 267.28 169.74 263.36 173.32 C 258.91 177.42 252.06 168.50 257.39 165.52 Z" />
<path fill="#3e3e3e" opacity="1.00" d=" M 199.39 172.11 C 199.18 170.31 200.66 169.42 202.13 168.94 C 203.24 172.83 204.37 176.89 203.34 180.94 C 199.37 179.94 199.62 175.36 199.39 172.11 Z" />
<path fill="#3e3e3e" opacity="1.00" d=" M 235.44 173.22 C 237.64 173.28 240.39 172.99 241.54 175.37 C 244.06 177.88 241.37 182.57 237.92 181.45 C 233.99 180.71 234.59 176.09 235.44 173.22 Z" />
<path fill="#3e3e3e" opacity="1.00" d=" M 207.47 189.74 C 207.85 189.37 208.60 188.63 208.98 188.27 C 211.32 190.34 213.14 192.91 214.86 195.51 C 211.27 196.78 207.74 193.10 207.47 189.74 Z" />
<path fill="#3e3e3e" opacity="1.00" d=" M 493.29 213.25 C 500.40 211.15 506.26 206.34 512.00 201.85 L 512.00 412.34 C 502.98 412.33 493.95 412.34 484.97 411.52 C 472.85 410.99 460.73 412.08 448.61 411.76 C 450.33 413.57 452.40 415.08 455.02 415.05 C 467.15 415.97 479.35 415.15 491.47 416.27 C 498.30 416.85 505.16 416.68 512.00 416.80 L 512.00 433.72 C 500.20 432.32 488.86 428.50 477.10 426.96 C 464.19 426.12 451.56 423.16 438.92 420.56 C 442.22 419.96 445.50 419.19 448.68 418.11 C 446.32 416.22 443.93 414.09 440.88 413.47 C 435.23 412.29 429.38 411.16 423.66 412.48 C 423.27 414.48 422.88 416.47 422.52 418.48 C 418.18 418.63 414.76 416.09 411.03 414.41 C 408.80 416.96 406.82 419.83 405.66 423.04 C 405.62 424.75 407.61 425.55 408.53 426.79 C 412.76 424.79 417.14 422.29 422.01 422.86 C 429.21 423.56 436.57 423.29 443.53 425.54 C 443.53 428.19 443.08 432.83 446.93 432.83 C 450.39 433.39 450.14 429.26 450.73 426.97 C 457.79 427.40 464.65 429.34 471.72 429.66 C 470.04 431.10 467.30 432.33 467.61 434.96 C 467.64 437.84 469.38 442.20 472.95 441.53 C 476.34 440.76 479.75 439.58 482.64 437.60 C 484.72 435.99 483.30 433.18 482.84 431.15 C 492.48 433.42 502.09 436.08 512.00 436.92 L 512.00 512.00 L 504.61 512.00 C 488.33 499.85 467.02 498.41 449.68 488.27 C 441.29 483.55 432.68 479.22 424.06 474.95 C 418.02 471.90 412.38 467.99 405.89 465.95 C 403.49 465.10 400.95 464.51 398.77 463.16 C 395.04 459.74 393.77 453.77 388.95 451.57 C 382.76 451.61 376.58 452.48 370.38 451.74 C 371.31 452.75 372.35 453.64 373.32 454.63 C 373.75 456.50 373.78 458.56 374.77 460.26 C 376.41 461.92 379.01 461.46 381.11 461.92 C 387.06 462.27 392.03 465.83 397.47 467.84 C 407.77 472.10 417.19 478.09 427.21 482.90 C 439.98 489.00 451.85 497.04 465.38 501.46 C 475.00 504.55 484.70 507.58 493.82 512.00 L 49.29 512.00 L 47.53 511.42 C 59.32 505.81 71.69 501.57 83.67 496.38 C 98.61 490.38 113.72 484.80 128.46 478.31 C 144.79 471.92 160.95 464.84 178.12 460.87 C 188.72 458.63 198.11 452.98 206.93 446.92 C 210.46 444.50 214.88 444.34 218.77 442.79 C 220.75 442.02 222.38 440.18 222.53 438.01 C 223.01 435.59 220.95 433.88 219.76 432.06 C 219.33 430.20 219.48 428.09 218.45 426.43 C 216.27 424.03 212.48 424.51 209.85 425.84 C 207.52 426.87 207.99 429.78 207.39 431.83 C 202.47 432.29 198.83 436.52 197.59 441.04 C 197.50 444.24 201.09 445.13 203.28 446.48 C 199.03 449.08 194.80 451.74 191.01 454.99 C 186.99 458.47 181.67 459.68 176.66 461.00 C 168.73 462.82 160.88 465.04 153.16 467.60 C 129.97 476.52 106.96 485.89 84.00 495.38 C 73.55 500.16 62.65 503.85 52.15 508.51 C 49.40 509.73 46.69 511.06 43.83 512.00 L 0.00 512.00 L 0.00 468.65 C 6.08 466.80 12.45 466.40 18.68 465.40 C 29.04 461.78 39.67 459.05 50.13 455.75 C 64.42 450.67 79.24 447.27 93.54 442.21 C 100.59 439.78 108.00 438.64 115.09 436.34 C 123.91 433.23 133.15 431.27 142.45 430.34 C 143.74 432.49 145.69 434.06 147.89 435.21 C 148.58 437.13 148.81 440.02 151.32 440.43 C 154.92 440.69 158.47 439.82 162.06 439.62 C 163.54 439.34 165.31 439.53 166.55 438.52 C 167.06 437.21 167.64 435.94 168.15 434.65 C 172.45 434.07 176.98 433.88 180.90 431.84 C 183.49 430.59 183.02 427.32 183.51 424.97 C 182.56 424.08 181.62 423.18 180.68 422.30 C 178.75 422.33 176.84 422.37 174.92 422.37 C 178.02 421.67 181.21 421.72 184.32 422.41 C 189.97 420.15 196.42 420.86 201.84 417.95 C 203.51 417.49 204.13 415.63 203.41 414.15 C 201.97 410.78 200.63 407.33 198.70 404.21 C 193.96 402.15 188.53 403.77 183.67 404.68 C 178.58 405.57 174.31 409.36 168.99 409.16 C 164.01 409.16 159.02 409.20 154.09 410.01 C 147.08 411.10 139.98 411.39 132.99 412.62 C 124.27 414.26 115.29 414.14 106.69 416.44 C 99.79 417.73 93.21 421.27 86.02 420.32 C 77.32 419.46 68.54 419.28 59.85 420.38 C 47.53 420.89 35.26 422.19 22.99 423.46 C 17.60 423.80 12.22 424.34 6.93 425.49 C 14.99 424.45 23.12 424.21 31.18 423.22 C 41.65 421.81 52.26 423.15 62.73 421.82 C 73.11 420.86 83.58 422.11 93.94 420.71 C 103.08 420.11 111.92 417.36 121.07 416.83 C 128.48 416.37 135.74 414.67 143.14 414.07 C 151.30 413.39 159.41 412.07 167.62 412.14 C 168.00 413.40 168.38 414.69 168.76 415.97 C 165.07 416.74 161.25 417.26 157.82 418.92 C 155.33 419.98 155.61 423.03 155.16 425.23 C 148.60 424.17 143.26 428.73 136.95 429.31 C 130.79 430.41 124.55 431.42 118.71 433.77 C 110.93 436.95 102.49 437.84 94.60 440.67 C 81.90 445.14 68.82 448.42 56.07 452.72 C 44.46 457.56 32.08 460.08 20.30 464.42 C 13.57 465.86 6.66 466.36 0.00 468.17 L 0.00 348.85 C 9.16 356.83 21.17 360.18 32.95 361.89 C 43.96 363.32 54.72 359.90 65.27 357.27 C 78.38 353.77 90.41 346.70 100.11 337.24 C 108.08 341.51 117.01 343.36 125.81 345.08 C 141.40 347.65 157.11 344.12 172.14 340.09 C 182.18 337.36 191.22 331.78 199.03 325.00 C 203.91 320.66 207.41 315.08 210.96 309.66 C 216.56 311.04 222.20 312.43 228.00 312.55 C 238.28 312.83 248.31 310.04 258.14 307.37 C 272.94 302.94 287.75 292.95 292.21 277.42 C 298.29 277.60 304.27 276.43 310.11 274.90 C 322.09 272.32 332.64 265.10 340.90 256.25 C 345.52 257.57 350.16 258.93 354.92 259.68 C 362.72 260.89 370.40 258.46 377.89 256.61 C 386.40 254.42 393.91 249.36 400.05 243.17 C 405.56 246.42 411.84 247.85 418.04 249.07 C 426.13 250.70 434.22 248.14 441.99 246.11 C 455.72 241.72 468.36 230.74 471.21 216.13 C 478.72 217.25 486.12 215.24 493.29 213.25 Z" />
<path fill="#3e3e3e" opacity="1.00" d=" M 54.16 218.41 C 54.16 214.03 57.50 210.55 61.22 208.71 C 59.51 212.37 56.90 215.49 54.16 218.41 Z" />
<path fill="#3e3e3e" opacity="1.00" d=" M 112.73 220.95 C 113.25 218.94 114.88 217.38 117.00 217.29 C 118.46 220.38 120.12 223.55 119.63 227.10 C 119.26 230.42 122.53 232.40 124.23 234.84 C 122.25 243.53 121.82 252.58 123.61 261.35 C 119.87 262.49 115.87 264.65 111.97 262.85 C 110.15 262.42 110.79 260.41 110.81 259.10 C 111.41 251.13 110.92 243.11 111.72 235.16 C 112.67 234.39 114.22 234.18 114.78 232.99 C 115.22 228.83 113.02 225.02 112.73 220.95 Z" />
<path fill="#f5e5c1" opacity="1.00" d=" M 359.62 278.86 C 367.35 276.48 376.23 281.88 378.43 289.48 C 379.24 293.41 379.33 298.18 376.35 301.27 C 371.22 305.94 363.72 309.12 356.89 306.30 C 352.46 305.36 348.51 301.93 348.44 297.15 C 346.86 289.24 352.07 281.24 359.62 278.86 Z" />
<path fill="#3e3e3e" opacity="1.00" d=" M 156.63 290.87 C 165.65 298.60 174.62 306.37 183.16 314.63 C 170.10 324.69 152.96 327.35 136.91 327.98 C 138.85 324.60 140.76 321.19 142.91 317.94 C 148.55 309.48 151.81 299.77 156.63 290.87 Z" />
<path fill="#f5e5c1" opacity="1.00" d=" M 398.30 292.48 C 403.81 289.99 410.85 293.26 412.51 299.05 C 413.85 304.75 411.22 311.32 406.20 314.38 C 399.49 318.00 389.93 312.67 389.61 305.00 C 389.45 299.53 393.38 294.54 398.30 292.48 Z" />
<path fill="#f4722b" opacity="1.00" d=" M 266.07 314.83 C 271.78 313.24 278.13 312.72 283.60 315.43 C 287.41 318.17 287.12 323.54 285.34 327.39 C 284.34 329.64 281.63 329.54 279.59 329.94 C 284.89 336.15 290.00 342.52 295.44 348.60 C 298.60 345.94 303.01 344.10 307.04 345.89 C 314.17 349.40 321.21 353.12 328.33 356.67 C 331.31 358.14 334.75 358.56 337.54 360.44 C 343.85 364.70 350.86 368.27 355.79 374.24 C 359.37 378.74 362.83 383.58 364.15 389.28 C 360.90 384.47 356.55 380.57 353.21 375.84 C 349.29 370.43 343.89 365.88 337.60 363.54 C 319.87 367.65 300.65 366.98 284.16 375.61 C 291.27 391.28 292.53 409.01 292.28 426.01 C 292.52 427.82 290.59 428.50 289.46 429.41 C 286.53 428.53 283.46 428.31 280.43 428.15 C 279.49 421.26 282.16 414.75 282.60 407.99 C 281.80 397.30 278.94 386.01 270.97 378.33 C 261.78 378.55 252.56 380.30 244.25 384.32 C 241.62 385.86 239.51 388.10 237.20 390.06 C 246.83 383.16 258.76 380.76 270.29 379.31 C 276.96 387.76 281.13 398.21 281.37 409.01 C 281.11 413.28 280.21 417.48 279.48 421.69 C 277.65 421.69 275.82 421.68 274.00 421.68 C 273.20 427.41 272.36 433.14 271.60 438.88 C 265.29 430.99 257.53 423.83 247.93 420.28 C 241.69 418.08 235.04 419.73 229.06 421.92 C 228.69 421.05 228.32 420.19 227.96 419.33 C 230.45 417.76 232.92 416.14 235.31 414.42 C 225.37 412.09 215.48 408.93 206.72 403.66 C 205.00 398.78 204.12 393.66 202.64 388.71 C 203.58 387.32 204.52 385.92 205.47 384.54 C 213.31 382.53 221.24 384.11 229.12 384.68 C 224.35 383.63 219.52 382.79 214.64 382.37 C 214.44 378.13 213.88 373.70 215.77 369.72 C 218.43 364.34 215.88 358.04 218.90 352.74 C 212.02 352.72 204.90 355.17 198.23 352.59 C 196.95 348.08 197.23 342.32 201.68 339.67 C 206.55 334.31 214.06 337.26 220.10 338.29 C 225.09 339.64 230.08 337.87 235.01 337.19 C 238.20 336.69 241.28 337.83 244.21 338.93 C 244.63 341.24 245.18 343.75 243.79 345.87 C 241.78 349.37 241.93 353.49 241.61 357.39 C 236.11 361.31 229.70 364.55 225.67 370.11 C 231.10 368.21 234.96 363.75 239.79 360.83 C 244.33 358.04 250.01 358.30 254.58 355.54 C 261.58 351.24 269.99 350.60 278.01 350.41 C 280.03 350.49 281.96 349.84 283.70 348.84 C 277.74 348.15 271.80 349.37 265.86 349.75 C 266.49 349.44 267.75 348.81 268.37 348.50 C 266.92 344.97 264.46 341.93 261.38 339.71 C 256.72 336.63 255.38 330.90 252.67 326.35 C 250.20 325.23 247.75 324.09 245.31 322.93 C 244.96 321.20 244.61 319.48 244.26 317.76 C 249.80 311.07 258.92 316.73 266.07 314.83 Z" />
<path fill="#f5e5c1" opacity="1.00" d=" M 418.41 317.56 C 421.74 316.47 425.54 316.45 428.81 317.80 C 433.42 320.08 435.11 326.42 432.99 330.95 C 430.09 335.95 423.67 339.18 417.98 337.41 C 414.07 335.65 411.13 331.29 411.92 326.91 C 412.59 323.11 414.72 319.15 418.41 317.56 Z" />
<path fill="#f5e5c1" opacity="1.00" d=" M 387.91 355.04 C 389.41 351.13 392.45 347.07 397.01 346.82 C 402.89 346.95 408.06 351.18 409.99 356.64 L 410.66 356.62 C 409.33 360.27 407.91 364.30 404.18 366.18 C 400.17 369.14 394.84 368.31 390.83 365.81 C 390.65 365.60 390.29 365.19 390.10 364.99 C 388.44 362.59 387.12 359.94 387.66 356.96 C 387.70 356.72 387.79 356.25 387.83 356.01 L 387.91 355.04 Z" />
<path fill="#3e3e3e" opacity="1.00" d=" M 278.95 356.04 C 286.15 353.49 293.35 349.81 301.21 350.38 C 290.57 352.99 280.07 356.39 270.18 361.16 C 262.63 365.29 254.95 369.21 247.24 373.04 C 257.55 366.93 267.63 360.19 278.95 356.04 Z" />
<path fill="#f4722b" opacity="1.00" d=" M 410.66 356.62 C 415.14 354.22 419.80 351.46 425.03 351.36 C 428.32 351.30 431.88 350.47 434.95 352.08 C 439.73 354.47 444.67 356.54 449.46 358.93 C 448.62 360.12 447.78 361.30 446.95 362.50 C 444.96 362.20 442.98 361.90 441.00 361.62 C 436.92 364.07 433.22 367.42 431.78 372.10 C 434.26 372.80 436.66 371.54 439.03 370.95 C 441.01 372.55 442.02 374.82 442.59 377.25 C 439.67 378.02 436.63 378.48 433.97 379.97 C 430.38 381.77 427.15 384.45 423.14 385.28 C 419.76 385.97 416.31 386.17 412.95 386.93 C 406.76 388.34 401.07 391.35 394.91 392.83 C 394.18 392.70 392.72 392.46 391.99 392.34 C 394.54 389.41 397.56 386.27 397.29 382.06 C 397.65 375.87 393.92 370.78 390.83 365.81 C 394.84 368.31 400.17 369.14 404.18 366.18 C 407.91 364.30 409.33 360.27 410.66 356.62 Z" />
<path fill="#f4722b" opacity="1.00" d=" M 386.26 358.44 C 386.59 357.46 387.11 356.65 387.83 356.01 C 387.79 356.25 387.70 356.72 387.66 356.96 C 387.12 359.94 388.44 362.59 390.10 364.99 C 388.02 363.78 385.94 362.56 383.94 361.23 C 384.68 360.27 385.48 359.36 386.26 358.44 Z" />
<path fill="#f4722b" opacity="1.00" d=" M 341.47 360.97 C 349.83 361.52 357.70 364.91 365.98 365.75 C 371.66 364.93 377.13 363.04 382.78 362.05 C 388.18 366.93 393.55 372.68 395.21 379.98 C 396.03 384.44 392.47 387.85 389.48 390.55 C 386.42 393.50 381.95 393.81 378.06 394.96 C 377.57 394.64 376.59 394.00 376.10 393.68 C 373.39 393.90 370.68 394.12 367.98 394.34 C 366.50 385.78 362.23 377.90 356.50 371.45 C 352.17 367.07 346.64 364.22 341.47 360.97 Z" />
<path fill="#f4722b" opacity="1.00" d=" M 327.08 367.37 C 330.99 366.88 334.98 365.74 338.92 366.45 C 344.22 368.96 348.52 373.16 352.04 377.78 C 339.21 374.56 325.66 379.51 315.94 387.98 C 311.54 391.59 307.68 396.21 306.33 401.85 C 304.88 407.49 306.58 413.25 308.05 418.70 C 303.43 419.77 298.80 420.84 294.10 421.50 C 296.95 413.47 294.68 405.06 293.74 396.92 C 292.75 389.41 290.29 382.17 287.04 375.35 C 300.07 371.26 313.59 369.24 327.08 367.37 Z" />
<path fill="#f5e5c1" opacity="1.00" d=" M 370.30 374.26 C 373.80 371.83 378.97 374.77 378.89 378.96 C 379.74 384.01 373.68 388.47 369.21 385.79 C 364.73 383.31 366.15 376.34 370.30 374.26 Z" />
<path fill="#f4722b" opacity="1.00" d=" M 336.92 378.66 C 342.55 377.93 348.84 377.81 353.69 381.22 C 361.21 385.93 364.85 394.56 367.62 402.61 C 368.47 406.10 372.75 406.86 374.00 410.14 C 371.24 411.56 367.73 412.35 366.25 415.39 C 363.63 419.82 359.88 423.38 356.00 426.69 C 359.60 426.98 363.87 427.68 365.81 431.14 C 365.57 432.58 364.17 433.41 363.35 434.51 C 364.44 435.60 365.56 436.67 366.48 437.93 C 367.15 440.09 365.87 441.97 364.58 443.57 C 364.22 444.87 363.88 446.19 363.54 447.51 C 361.32 447.59 359.10 447.80 356.89 447.74 C 354.60 447.36 352.46 445.97 350.09 446.49 C 343.21 447.32 335.79 448.81 329.21 445.82 C 326.65 444.85 325.46 442.26 324.28 440.00 C 325.38 437.31 327.16 434.97 329.67 433.46 C 321.91 431.94 314.21 427.68 310.57 420.39 C 306.04 412.55 305.52 401.84 311.34 394.51 C 317.77 386.57 327.03 381.06 336.92 378.66 Z" />
<path fill="#3e3e3e" opacity="1.00" d=" M 225.56 388.43 C 229.92 385.93 235.03 385.14 240.01 385.33 C 235.33 386.08 230.58 386.52 226.09 388.12 C 225.95 396.06 228.80 403.57 231.07 411.04 C 230.52 410.86 229.40 410.49 228.85 410.30 C 226.67 403.27 224.59 395.85 225.56 388.43 Z" />
<path fill="#f5e5c1" opacity="1.00" d=" M 347.16 387.12 C 350.47 385.04 355.07 388.59 353.39 392.30 C 351.29 393.85 347.82 395.61 345.64 393.32 C 343.57 391.43 344.98 388.21 347.16 387.12 Z" />
<path fill="#3e3e3e" opacity="1.00" d=" M 233.38 394.93 C 233.35 392.84 234.59 391.11 235.69 389.46 C 235.68 393.63 235.07 397.83 235.74 401.99 C 236.25 405.44 237.55 408.80 237.38 412.35 C 233.53 407.47 233.17 400.88 233.38 394.93 Z" />
<path fill="#f4722b" opacity="1.00" d=" M 183.67 404.68 C 188.53 403.77 193.96 402.15 198.70 404.21 C 200.63 407.33 201.97 410.78 203.41 414.15 C 204.13 415.63 203.51 417.49 201.84 417.95 C 196.42 420.86 189.97 420.15 184.32 422.41 C 181.21 421.72 178.02 421.67 174.92 422.37 C 176.84 422.37 178.75 422.33 180.68 422.30 C 181.62 423.18 182.56 424.08 183.51 424.97 C 183.02 427.32 183.49 430.59 180.90 431.84 C 176.98 433.88 172.45 434.07 168.15 434.65 C 167.64 435.94 167.06 437.21 166.55 438.52 C 165.31 439.53 163.54 439.34 162.06 439.62 C 158.47 439.82 154.92 440.69 151.32 440.43 C 148.81 440.02 148.58 437.13 147.89 435.21 C 145.69 434.06 143.74 432.49 142.45 430.34 C 133.15 431.27 123.91 433.23 115.09 436.34 C 108.00 438.64 100.59 439.78 93.54 442.21 C 79.24 447.27 64.42 450.67 50.13 455.75 C 39.67 459.05 29.04 461.78 18.68 465.40 C 12.45 466.40 6.08 466.80 0.00 468.65 L 0.00 468.17 C 6.66 466.36 13.57 465.86 20.30 464.42 C 32.08 460.08 44.46 457.56 56.07 452.72 C 68.82 448.42 81.90 445.14 94.60 440.67 C 102.49 437.84 110.93 436.95 118.71 433.77 C 124.55 431.42 130.79 430.41 136.95 429.31 C 143.26 428.73 148.60 424.17 155.16 425.23 C 155.61 423.03 155.33 419.98 157.82 418.92 C 161.25 417.26 165.07 416.74 168.76 415.97 C 168.38 414.69 168.00 413.40 167.62 412.14 C 159.41 412.07 151.30 413.39 143.14 414.07 C 135.74 414.67 128.48 416.37 121.07 416.83 C 111.92 417.36 103.08 420.11 93.94 420.71 C 83.58 422.11 73.11 420.86 62.73 421.82 C 52.26 423.15 41.65 421.81 31.18 423.22 C 23.12 424.21 14.99 424.45 6.93 425.49 C 12.22 424.34 17.60 423.80 22.99 423.46 C 35.26 422.19 47.53 420.89 59.85 420.38 C 68.54 419.28 77.32 419.46 86.02 420.32 C 93.21 421.27 99.79 417.73 106.69 416.44 C 115.29 414.14 124.27 414.26 132.99 412.62 C 139.98 411.39 147.08 411.10 154.09 410.01 C 159.02 409.20 164.01 409.16 168.99 409.16 C 174.31 409.36 178.58 405.57 183.67 404.68 Z" />
<path fill="#f4722b" opacity="1.00" d=" M 374.85 411.27 C 377.35 408.51 378.76 403.82 383.01 403.43 C 390.00 402.95 397.27 403.41 403.78 406.22 C 406.01 407.11 407.39 409.15 408.82 410.97 C 407.72 412.33 407.16 414.80 405.03 414.82 C 401.72 415.20 398.37 414.61 395.08 415.12 C 392.55 418.09 388.94 419.25 385.22 419.93 C 383.96 421.73 382.67 424.03 380.11 423.80 C 376.51 423.78 371.82 424.98 369.28 421.64 C 368.07 420.32 368.17 418.31 368.69 416.72 C 369.88 414.62 372.47 414.25 374.53 413.46 C 374.61 412.91 374.77 411.82 374.85 411.27 Z" />
<path fill="#f4722b" opacity="1.00" d=" M 432.57 410.13 C 431.68 407.71 435.32 406.45 436.76 408.18 C 438.31 409.17 437.37 411.12 437.54 412.60 C 436.00 411.85 432.64 412.55 432.57 410.13 Z" />
<path fill="#f4722b" opacity="1.00" d=" M 423.66 412.48 C 429.38 411.16 435.23 412.29 440.88 413.47 C 443.93 414.09 446.32 416.22 448.68 418.11 C 445.50 419.19 442.22 419.96 438.92 420.56 C 451.56 423.16 464.19 426.12 477.10 426.96 C 488.86 428.50 500.20 432.32 512.00 433.72 L 512.00 436.92 C 502.09 436.08 492.48 433.42 482.84 431.15 C 483.30 433.18 484.72 435.99 482.64 437.60 C 479.75 439.58 476.34 440.76 472.95 441.53 C 469.38 442.20 467.64 437.84 467.61 434.96 C 467.30 432.33 470.04 431.10 471.72 429.66 C 464.65 429.34 457.79 427.40 450.73 426.97 C 450.14 429.26 450.39 433.39 446.93 432.83 C 443.08 432.83 443.53 428.19 443.53 425.54 C 436.57 423.29 429.21 423.56 422.01 422.86 C 417.14 422.29 412.76 424.79 408.53 426.79 C 407.61 425.55 405.62 424.75 405.66 423.04 C 406.82 419.83 408.80 416.96 411.03 414.41 C 414.76 416.09 418.18 418.63 422.52 418.48 C 422.88 416.47 423.27 414.48 423.66 412.48 Z" />
<path fill="#f4722b" opacity="1.00" d=" M 448.61 411.76 C 460.73 412.08 472.85 410.99 484.97 411.52 C 493.95 412.34 502.98 412.33 512.00 412.34 L 512.00 416.80 C 505.16 416.68 498.30 416.85 491.47 416.27 C 479.35 415.15 467.15 415.97 455.02 415.05 C 452.40 415.08 450.33 413.57 448.61 411.76 Z" />
<path fill="#f4722b" opacity="1.00" d=" M 204.71 415.66 C 205.27 415.33 206.41 414.67 206.98 414.34 C 208.51 415.12 210.58 415.25 211.62 416.77 C 212.06 419.71 208.76 420.48 206.89 421.84 C 205.71 420.60 204.53 419.36 203.38 418.11 C 203.71 417.50 204.37 416.27 204.71 415.66 Z" />
<path fill="#f4722b" opacity="1.00" d=" M 128.40 425.85 C 131.06 422.31 135.44 419.82 139.96 420.48 C 142.18 420.67 144.59 423.60 142.24 425.34 C 138.62 427.70 134.23 428.58 129.96 428.68 C 129.57 427.97 128.79 426.56 128.40 425.85 Z" />
<path fill="#f4722b" opacity="1.00" d=" M 230.51 423.67 C 234.80 422.82 239.18 421.91 243.57 422.55 C 249.63 423.34 254.66 427.16 259.46 430.66 C 264.92 434.65 269.13 439.98 273.59 445.00 C 273.19 446.29 272.81 447.59 272.42 448.89 C 274.94 452.90 277.40 456.94 279.80 461.02 C 283.61 468.98 293.16 471.05 298.97 477.06 C 301.45 480.75 303.75 484.58 306.96 487.72 C 304.77 488.91 302.66 490.33 300.24 491.00 C 298.42 489.60 296.86 487.91 295.23 486.31 C 294.36 486.49 292.61 486.85 291.73 487.02 C 293.57 490.72 295.08 494.61 295.38 498.78 C 293.89 499.38 292.41 499.99 290.94 500.61 C 288.66 497.57 286.45 494.48 283.85 491.71 C 285.97 496.45 288.71 500.87 291.02 505.52 C 289.64 506.70 288.30 507.94 286.80 508.99 C 284.93 507.90 283.25 506.51 281.59 505.14 C 281.84 506.14 282.34 508.14 282.59 509.14 C 281.46 509.61 280.32 510.09 279.20 510.58 C 277.13 508.97 275.05 507.41 272.91 505.92 C 273.63 507.01 274.37 508.10 275.12 509.20 C 273.78 510.58 272.05 511.97 270.01 510.96 C 266.91 508.90 264.07 506.36 261.60 503.58 C 260.11 500.52 259.32 497.17 258.35 493.92 C 256.68 488.51 258.00 482.69 256.57 477.28 C 251.12 468.24 244.47 459.94 239.35 450.69 C 236.56 444.54 234.86 437.95 232.30 431.69 C 230.98 431.67 229.66 431.65 228.35 431.64 C 227.23 428.70 229.20 426.14 230.51 423.67 Z" />
<path fill="#f4722b" opacity="1.00" d=" M 209.85 425.84 C 212.48 424.51 216.27 424.03 218.45 426.43 C 219.48 428.09 219.33 430.20 219.76 432.06 C 220.95 433.88 223.01 435.59 222.53 438.01 C 222.38 440.18 220.75 442.02 218.77 442.79 C 214.88 444.34 210.46 444.50 206.93 446.92 C 198.11 452.98 188.72 458.63 178.12 460.87 C 160.95 464.84 144.79 471.92 128.46 478.31 C 113.72 484.80 98.61 490.38 83.67 496.38 C 71.69 501.57 59.32 505.81 47.53 511.42 L 49.29 512.00 L 43.83 512.00 C 46.69 511.06 49.40 509.73 52.15 508.51 C 62.65 503.85 73.55 500.16 84.00 495.38 C 106.96 485.89 129.97 476.52 153.16 467.60 C 160.88 465.04 168.73 462.82 176.66 461.00 C 181.67 459.68 186.99 458.47 191.01 454.99 C 194.80 451.74 199.03 449.08 203.28 446.48 C 201.09 445.13 197.50 444.24 197.59 441.04 C 198.83 436.52 202.47 432.29 207.39 431.83 C 207.99 429.78 207.52 426.87 209.85 425.84 Z" />
<path fill="#3e3e3e" opacity="1.00" d=" M 157.14 427.25 C 157.81 427.27 159.15 427.31 159.82 427.33 C 159.47 428.51 159.12 429.70 158.76 430.89 C 158.22 429.67 157.68 428.46 157.14 427.25 Z" />
<path fill="#f4722b" opacity="1.00" d=" M 383.41 433.65 C 388.17 432.57 393.25 430.94 398.07 432.69 C 398.43 433.61 398.80 434.54 399.17 435.48 C 402.71 435.34 406.39 436.56 408.69 439.35 C 410.56 441.67 408.53 445.25 405.78 445.60 C 400.38 446.41 394.13 447.29 389.65 443.39 C 387.27 443.39 384.43 444.35 382.52 442.47 C 379.97 440.17 379.65 434.90 383.41 433.65 Z" />
<path fill="#f4722b" opacity="1.00" d=" M 86.41 435.40 C 90.46 434.63 94.56 435.25 98.54 436.13 C 95.81 440.09 90.73 440.71 86.36 439.69 C 86.36 438.26 86.38 436.82 86.41 435.40 Z" />
<path fill="#f4722b" opacity="1.00" d=" M 175.82 442.77 C 177.65 442.06 179.91 442.03 181.55 443.23 C 181.62 444.30 181.65 445.38 181.65 446.47 C 179.53 446.53 177.42 446.56 175.30 446.55 C 175.54 445.32 174.96 443.79 175.82 442.77 Z" />
<path fill="#f4722b" opacity="1.00" d=" M 184.03 443.14 C 185.63 443.42 188.04 442.71 188.43 444.94 C 188.40 446.28 186.30 448.52 185.22 446.71 C 184.24 445.82 184.43 444.30 184.03 443.14 Z" />
<path fill="#f4722b" opacity="1.00" d=" M 116.21 446.20 C 118.23 445.68 120.78 444.95 122.47 446.64 C 124.75 448.57 123.71 452.96 120.70 453.51 C 117.65 454.25 114.45 455.02 111.31 454.54 C 109.31 453.95 109.20 451.60 109.49 449.89 C 111.11 447.77 113.78 446.97 116.21 446.20 Z" />
<path fill="#f4722b" opacity="1.00" d=" M 325.51 446.42 C 327.34 446.51 329.32 446.14 331.02 447.05 C 332.12 449.07 329.71 452.84 327.25 451.67 C 324.99 451.06 325.69 448.13 325.51 446.42 Z" />
<path fill="#f4722b" opacity="1.00" d=" M 343.13 448.09 C 344.00 448.17 345.73 448.31 346.60 448.39 C 346.57 449.04 346.50 450.36 346.47 451.01 C 344.82 450.69 343.74 449.64 343.13 448.09 Z" />
<path fill="#f4722b" opacity="1.00" d=" M 370.38 451.74 C 376.58 452.48 382.76 451.61 388.95 451.57 C 393.77 453.77 395.04 459.74 398.77 463.16 C 400.95 464.51 403.49 465.10 405.89 465.95 C 412.38 467.99 418.02 471.90 424.06 474.95 C 432.68 479.22 441.29 483.55 449.68 488.27 C 467.02 498.41 488.33 499.85 504.61 512.00 L 493.82 512.00 C 484.70 507.58 475.00 504.55 465.38 501.46 C 451.85 497.04 439.98 489.00 427.21 482.90 C 417.19 478.09 407.77 472.10 397.47 467.84 C 392.03 465.83 387.06 462.27 381.11 461.92 C 379.01 461.46 376.41 461.92 374.77 460.26 C 373.78 458.56 373.75 456.50 373.32 454.63 C 372.35 453.64 371.31 452.75 370.38 451.74 Z" />
<path fill="#f4722b" opacity="1.00" d=" M 203.32 455.49 C 208.98 453.86 214.28 458.89 215.41 464.04 C 213.99 466.77 210.54 466.81 207.91 467.34 C 203.71 468.20 199.57 466.72 195.71 465.21 C 192.62 464.38 192.33 459.49 195.04 458.05 C 197.59 456.65 200.49 456.05 203.32 455.49 Z" />
<path fill="#f4722b" opacity="1.00" d=" M 437.23 468.68 C 436.61 464.49 439.74 460.14 444.02 459.76 C 446.85 459.67 448.50 462.04 449.85 464.16 C 446.35 467.14 442.00 469.63 437.23 468.68 Z" />
<path fill="#f4722b" opacity="1.00" d=" M 351.84 468.17 C 349.21 465.93 351.41 460.49 354.96 461.46 C 359.27 462.39 363.50 463.65 367.80 464.64 C 367.55 466.18 368.08 468.64 365.90 468.86 C 361.46 470.03 355.48 472.07 351.84 468.17 Z" />
<path fill="#f4722b" opacity="1.00" d=" M 325.33 463.39 C 328.61 461.83 332.75 462.06 335.70 464.25 C 335.90 466.97 332.86 467.85 331.00 469.05 C 328.63 470.30 325.36 471.87 322.95 469.89 C 321.11 467.62 322.53 464.07 325.33 463.39 Z" />
</svg>
