<?xml version="1.0" encoding="UTF-8" standalone="no"?>
<svg
   xmlns:dc="http://purl.org/dc/elements/1.1/"
   xmlns:cc="http://creativecommons.org/ns#"
   xmlns:rdf="http://www.w3.org/1999/02/22-rdf-syntax-ns#"
   xmlns:svg="http://www.w3.org/2000/svg"
   xmlns="http://www.w3.org/2000/svg"
   xmlns:sodipodi="http://sodipodi.sourceforge.net/DTD/sodipodi-0.dtd"
   xmlns:inkscape="http://www.inkscape.org/namespaces/inkscape"
   width="1280"
   height="1280"
   viewBox="0 0 1024 1024"
   version="1.1"
   id="svg2"
   inkscape:version="0.48.1 "
   sodipodi:docname="backstab_disguise_target.svg.2011_08_13_12_17_11.0.svg"
   style="display:inline">
  <metadata
     id="metadata302">
    <rdf:RDF>
      <cc:Work
         rdf:about="">
        <dc:format>image/svg+xml</dc:format>
        <dc:type
           rdf:resource="http://purl.org/dc/dcmitype/StillImage" />
        <dc:title></dc:title>
      </cc:Work>
    </rdf:RDF>
  </metadata>
  <defs
     id="defs300" />
  <sodipodi:namedview
     pagecolor="#ffffff"
     bordercolor="#666666"
     borderopacity="1"
     objecttolerance="10"
     gridtolerance="10"
     guidetolerance="10"
     inkscape:pageopacity="0"
     inkscape:pageshadow="2"
     inkscape:window-width="1920"
     inkscape:window-height="1018"
     id="namedview298"
     showgrid="false"
     inkscape:object-paths="false"
     inkscape:snap-page="true"
     fit-margin-top="0"
     fit-margin-left="0"
     fit-margin-right="0"
     fit-margin-bottom="0"
     inkscape:zoom="0.46735339"
     inkscape:cx="476.2783"
     inkscape:cy="497.78054"
     inkscape:window-x="-8"
     inkscape:window-y="-8"
     inkscape:window-maximized="1"
     inkscape:current-layer="layer2" />
  <g
     inkscape:groupmode="layer"
     id="layer2"
     inkscape:label="Layer"
     style="display:inline"
     transform="translate(0,512)">
    <rect
       style="fill:#3e3e3e;fill-opacity:1;fill-rule:nonzero;stroke:none"
       id="rect4122"
       width="1024"
       height="1024"
       x="0"
       y="-512" />
    <path
       d="m 0,-512 0.14,0 c -0.04,0.08 -0.1,0.22 -0.14,0.3 l 0,-0.3 z"
       id="path4"
       inkscape:connector-curvature="0"
       style="fill:#f5e5c1" />
    <path
       d="m 709.08,-418.86 c 5.68,0.22 11.42,1.82 16.86,3.62 -11.18,7.62 -21.64,16.28 -33.28,23.22 0.4,-5.36 -0.84,-11.42 1.8,-16.26 4.52,-3.98 9.58,-7.3 14.62,-10.58 z"
       id="path8"
       inkscape:connector-curvature="0"
       style="fill:#f5e5c1" />
    <path
       style="fill:#f4722b"
       d="m 730.5,-416.3 c -1.55374,0.0775 -3.11,0.41 -4.55,1.05 -11.18,7.62 -21.66,16.31 -33.3,23.25 -6.38,3.62 -11.43,9.02 -17.25,13.4 -15.36,13.44 -31.84,25.52 -47.8,38.2 -8.92,7.06 -18.53,13.28 -26.55,21.4 -51.06,41.28 -99.7,85.45 -152,125.25 3.36,4.9 6.54,9.93 10.4,14.45 2.46,3.46 7.16,1.62 10.7,2.1 84.64,-60.3 168.78,-121.26 253.4,-181.6 8.4,-6.18 16.94,-12.19 25.3,-18.45 3.34,-2.48 6.87,-4.73 10.45,-6.85 -4.2,-9.48 -11.76,-17.04 -17.3,-25.8 -2.13,-4.38 -6.83875,-6.6325 -11.5,-6.4 z m -1.35,12.4 c 3.47344,0.0775 6.9,0.95 9.35,3.55 2.52,2.94 4.02,6.65 4.7,10.45 -2.26,7.58 -8.57,14.51 -17.15,13.25 -13.3,-0.98 -15.67,-22.83 -3.05,-26.75 1.93499,-0.3075 4.06594,-0.54652 6.15,-0.5 z M 462.9,-195.6 c 0.3816,-0.0362 0.76062,-0.0237 1.15,0 1.5575,0.095 3.17,0.61 4.65,0.95 0.06,1.74 0.15,3.46 0.25,5.2 -2.44,1.14 -4.77,4.12 -7.65,2.4 -2.44,-1.64 -2.5,-4.6 -1.6,-7.1 0.9525,-0.91499 2.0552,-1.34149 3.2,-1.45 z"
       id="path10"
       inkscape:connector-curvature="0" />
    <path
       d="m 718.76,-392.58 c 0.52,-9.4 16.28,-11 18.6,-2.54 -6.32,-0.26 -12.48,1.24 -18.6,2.54 z"
       id="path14"
       inkscape:connector-curvature="0"
       style="fill:#f5e5c1" />
    <path
       d="m 717.62,-386.52 c 7,-2.12 14.48,-0.48 21.7,-1.22 -0.76,4.56 -5.5,6.34 -9.06,8.36 -5.58,1.62 -9.38,-3.56 -12.64,-7.14 z"
       id="path16"
       inkscape:connector-curvature="0"
       style="fill:#f5e5c1" />
    <path
       style="fill:#f4722b"
       d="m 762.3,-381.3 c -4.1,3.28 -8.37,6.28 -12.65,9.3 -7.66,5.64 -15.4,11.19 -23.2,16.65 -81.7,58.98 -163.63,117.66 -245.45,176.5 -4,3.22 -9.77,5.41 -11.35,10.75 1.48,7.66 7.39,13.48 12.05,19.4 12.56,-9.04 26.16,-16.5 39.4,-24.5 29.98,-19.24 59.18,-39.79 90,-57.65 56.82,-36.82 116.21,-69.54 171.25,-109.1 0.22,-4.12 0.55,-8.2 0.95,-12.3 -6.96,-9.7 -13.76,-19.55 -21,-29.05 z m -4.3,19.1 c 5.76267,0 10.45,4.68733 10.45,10.45 0,4.79122 -3.24925,8.82507 -7.65,10.05 -0.0152,0.004 -0.0348,-0.004 -0.05,0 -0.87872,0.24027 -1.79506,0.4 -2.75,0.4 -5.76267,0 -10.45,-4.68733 -10.45,-10.45 0,-5.76267 4.68733,-10.45 10.45,-10.45 z M 487.05,-169 c 0.18,2.7 0.27,5.43 0.25,8.15 -2.82,0.1 -5.62,0.17008 -8.4,0.15 0.26,-2.48 -0.63,-5.34 0.95,-7.5 2.28,-0.9 4.8,-0.62 7.2,-0.8 z"
       id="path18"
       inkscape:connector-curvature="0" />
    <path
       d="m 723.56,-358.82 c 8.4,-6.18 16.94,-12.18 25.3,-18.44 0.2,1.32 0.6,3.96 0.8,5.28 -7.66,5.64 -15.4,11.16 -23.2,16.62 -0.72,-0.88 -2.18,-2.6 -2.9,-3.46 z"
       id="path20"
       inkscape:connector-curvature="0"
       style="fill:#f5e5c1" />
    <path
       d="m 754.64,-344.56 c -5.18,-3.58 -5.9,-11.2 0.18,-14.26 0.24,4.74 0.26,9.52 -0.18,14.26 z"
       id="path24"
       inkscape:connector-curvature="0"
       style="fill:#f5e5c1" />
    <path
       d="m 761.12,-342.58 c -0.74,-5.78 -3.18,-12.06 0.36,-17.4 3.06,3.98 4.62,8.9 2.34,13.64 -0.88,1.26 -1.78,2.52 -2.7,3.76 z"
       id="path26"
       inkscape:connector-curvature="0"
       style="fill:#f5e5c1" />
    <path
       style="fill:#f5e5c1"
       d="m 606.25,-350.1 c -142.74,1.06 -285.48,1.18 -428.2,2.1 -9.98,0.04 -19.99,-0.3 -29.95,0.6 -40.02,3.22 -80.08,6.19 -120.1,9.45 0.6,14.44 1.47,28.91 1.85,43.35 8.4,8.46 17.85,16 24.65,25.9 9.38,13.48 16.98,28.12 26.9,41.2 7.7,10.48 23.4,10.08 30,21.7 2.1,-38.74 6.18,-77.4 8.9,-116.1 0.56,-4.44 0.19,-9.32 2.55,-13.3 5.14,-3.56 11.53,-1.39 17.25,-1.15 8.38,1.16 16.99,0.89 25.25,2.85 3.94,0.82 4.84,5.35 4.4,8.75 -3.42,42.2 -6.91,84.43 -10.25,126.65 -0.28,3.14 -0.72,6.42 -2.7,9 -5.48,2.94 -11.97,0.74 -17.85,0.6 -0.7,5.68 -4.54,9.89 -8.7,13.45 9.62,-0.42 19.31,-1.16 28.85,0.5 -0.8,-7.58 1.55,-15.58 8.25,-19.9 1.22,-39.8 2.02,-79.6 3.1,-119.4 0.46,-5.68 -1.43,-12.37 2.75,-17.05 4.52,-2.34 9.96,-1.57 14.9,-2.05 28.28,-1.24 58.02,-1.45 84.2,10.85 12.32,5.74 22.72,15.22 29.5,27 1.74,-10.58 -1.52,-22.11 3.2,-32.05 4,-2.28 8.77,-1.61 13.15,-1.55 34.02,1.56 68.05,2.59 102.05,4.25 10.42,-0.26 20.91,-0.47 31.25,1.05 2.6,0.24 4.23,2.3 5.55,4.3 13.1,20.2 25.75,40.7 39.15,60.7 2.12,-2.12 5.44,-3.92 4.8,-7.5 0.34,-15.34 -0.11,-30.71 -0.45,-46.05 -0.68,-5.52 4.82,-8.25 9.6,-7.95 10.98,0.2 22.46,-1.66 33,2.4 7.74,1.4 15.89,1.65 23.65,0.35 4.46,-4.22 8.45,-9.03 13.85,-12.15 9.6,-5.64 15.63,-15.72 25.65,-20.8 z"
       id="path28"
       inkscape:connector-curvature="0" />
    <path
       style="fill:#f5e5c1"
       d="m 803,-337.3 c -2.2,6.5 -4.68,13.58 -10.9,17.3 -6.26,3.46 -12.66,6.8 -18.4,11.1 22.12,0.42 44.28,0.17 66.4,0.65 6.1,-0.58 6.16,5.89 6.5,10.25 5.5,-4.2 11.01,-12.19 18.85,-9.85 15.06,15.88 28.3,33.49 43.3,49.45 9.52,-12.06 19.78,-23.5 29.5,-35.4 3.02,-3.36 5.7,-7.37 9.9,-9.35 6.88,0.62 11.6,6.23 16.9,10.05 4.12,3.52 10.33,6.48 9.75,12.9 -6.42,10.24 -15.84,18.18 -23.5,27.5 -7.02,8.6 -15.42,16.04 -22,25 -1.12,17.2 0.51,34.46 0.25,51.7 -0.28,5.1 1.22,10.98 -2.1,15.4 -3.82,2.94 -8.99,1.85 -13.45,2.15 -8.42,-0.36 -16.87,0.42 -25.25,-0.1 -4.4,-0.7 -4.77,-5.81 -4.75,-9.35 -0.08,-19.1 -1.05,-38.22 -0.95,-57.3 -13.94,-14.54 -27.31,-29.56 -41.15,-44.2 -13.46,0.74 -26.94,0.27 -40.4,0.35 -0.7,27.66 -1.29,55.32 -1.95,83 -0.3,6.36 0.7,13.27 -2.3,19.15 -5.08,3.46 -11.51,2.21 -17.25,2.45 -7.68,-0.36 -15.46,0.78 -23,-0.9 -4.48,-1.34 -4.38,-6.84 -4.5,-10.6 0.9,-31.02 1.17,-62.06 2.15,-93.1 -13.04,-0.98 -26.81,2.54 -39.25,-2.5 -4.38,32.62 -5.4,65.66 -8.8,98.4 -0.14,4.34 -4.39,7.49 -8.55,7.05 -10.64,-0.7 -21.23,-1.85 -31.85,-2.85 -4,-0.24 -9.18,-2.15 -8.2,-7.15 1.26,-20.62 3.2,-41.22 4.9,-61.8 -7.18,2.4 -13.02,7.24 -19.2,11.4 -9.36,4.92 -18.2,10.72 -26.7,17 -0.98,10.92 0.48,22.05 -1.6,32.85 -0.82,4.36 -5.93,4.63 -9.45,4.65 -9.92,-0.14 -19.87,0.35 -29.75,-0.25 -4.38,0.02 -5.8,-4.37 -7.5,-7.55 -16.34,11.06 -32.09,23.3 -50.05,31.7 -0.82,6.96 -0.69,15.3 -6.45,20.3 -4.46,3.62 -9.04,7.09 -13.2,11.05 -4.46,4.36 -11.14,4.8 -17,4.1 -0.02,4.72 -0.09,9.41 -0.15,14.15 19.54,-2.98 38.84,-7.24 58.1,-11.7 2.30603,0.97386 4.71837,1.33048 7.15,1.5 l 0,24.85 c -22.20363,2.478624 -44.09813,7.25672 -66.35,9.25 -0.16,6.36 -0.34,12.74 -0.6,19.1 -7.84,-0.18 -15.68,0.06 -23.5,0.4 7.88,0.56 15.75,0.76 23.65,0.6 l -0.4,2.5 c 4.8,-4.88 10.82,-9.52 18.1,-9.1 6.5,-0.46 11.71,3.87 16.85,7.15 7.26448,-10.370784 20.25346,-12.64248 32.25,-11.45 l 0,43.7 c -11.02274,2.929952 -23.28922,-0.335584 -31.65,-8.25 -2.38,2.66 -4.77,5.31 -7.15,7.95 14.74,3.68 27.26,12.88 38.2,23.1 0.20072,0.00894 0.39912,0.040704 0.6,0.05 l 0,0.95 c -4.48261,-0.046368 -8.98342,0.345024 -13.45,1.35 -18.2,4.16 -36.85,1.07 -55.25,1.45 -0.54,12.64 -0.05,25.38 -1.35,38 6.4,0.92 12.44,3.39 17.2,7.85 -5.52,4.54 -13.38,2.56 -17.8,-2.5 1.16,6.74 0.35,13.62 0.05,20.4 7.92,3.06 15.14,7.62 23,10.8 4.36,0.86 8.85,1.14 13.15,2.4 -12.16,-0.56 -24.16,-2.9 -36.3,-3.8 -0.64,21.36 -1.33,42.69 -1.95,64.05 10.5,4.82 19.8,13.59 22,25.35 1.32,13.14 15.09,19.51 26.35,22.75 8.27085,3.06283 16.20504,6.99482 24.35,10.4 l 0,4.6 c -10.39454,-4.35067 -19.25952,-11.82614 -29.95,-15.55 -7.34,-2.54 -13.82,-7.33 -18.8,-13.25 -6.2,-8.52 -15.66,-13.68 -24.4,-19.2 -1.38,42.26 -2.59,84.49 -3.95,126.75 -67.34,0.94 -134.71,1.51 -202.05,2.45 -47.26,0.14 -94.51,1.63 -141.75,1.35 -5.48,-3.5 -10.08,-8.68 -14.1,-13.8 -5.82,-35.08 -7.46,-70.71 -8.6,-106.25 C 99.88,93.8 96.67,19.85 93.25,-54.05 91.63,-71.33 92.69,-88.76 90.75,-106 c -7.3,2.82 -15.87,4.03 -22.95,-0.05 -10.44,-4.94 -14.38,-20.12 -6.8,-29.1 4.02,-5.18 10.82,-6.62 16.6,-8.9 -10.6,-13.74 -26.92,-21.28 -42.1,-28.8 2.16,50.04 4.7,100.09 6.7,150.15 4.04,0.18 8.66,-0.4 11.9,2.6 4.78,4.44 6.96,12.28 4.1,18.3 -3.38,5.34 -9.91,2.95 -14.85,2.05 5.64,121.92 11.03,243.86 16.65,365.8 16.38,-5.02 33.59,-4.83 50.45,-6.55 85.22,-7.04 170.45,-14.16 255.65,-21.2 15.32,-1.2 30.66,-0.8 46,-0.6 22.64,0.6 45.28,0.49 67.9,1.45 44.68,2.06 89.23,6.25 133.85,9.25 107.38,7.9 214.77,15.71 322.15,23.65 8.22,-54.06 19.88,-107.47 30.6,-161.05 19.12,-94.52 38.36,-189.03 57.4,-283.55 l 0,-231.55 c -24.68,-6.54 -49.39,-13.09 -74.05,-19.65 -6.92,-1.82 -13.74,-4.06 -20.9,-4.6 -42.02,-2.96 -84.03,-5.77 -126.05,-8.95 z m -117.1,212.15 c 0.73101,0.0145 1.47,0.09 2.2,0.15 5.38882,0.41709 9.54701,6.13605 8.3,11.2 l -33.25,0 c 1.98013,-3.51384 3.61112,-7.55912 7.7,-8.9 4.83,-1.57499 9.9329,-2.55171 15.05,-2.45 z M 547.1,35.2 l 0,19.6 c -3.84149,-5.68376 -3.71533,-13.820784 0,-19.6 z"
       id="path32"
       inkscape:connector-curvature="0" />
    <path
       d="m 127.16,-331.58 c 12.28,1.26 24.58,2.3 36.86,3.52 -3.74,44.9 -7.22,89.8 -10.94,134.7 -5.04,-0.4 -10.08,-0.84 -15.12,-1.28 -3.94,-7.92 -12.48,-11.7 -21.1,-9.94 3.46,-42.32 6.84,-84.66 10.3,-127 z"
       id="path34"
       inkscape:connector-curvature="0"
       style="fill:#f5e5c1" />
    <path
       style="fill:#f5e5c1"
       d="m 208.15,-327.5 c -10.63282,0.0977 -21.25626,0.72499 -31.6,1.2 -0.62,43.14 -2.05,86.26 -3.15,129.4 5.08,-0.38 10.11,0.62 14.65,2.9 15.24,2.14 30.81,1.87 46.15,0.75 20.82,-2.3 42.12,-10.27 56.1,-26.45 23.86,-27.26 17.3,-75.84 -14.8,-93.9 -20.55626,-11.81125 -43.95781,-14.1149 -67.35,-13.9 z m 10.55,38.55 c 12.35813,-0.22312 24.90501,2.17 35.3,8.95 17.98,11.7 17.38,42.11 -0.6,53.55 -14.1,9.1 -31.99,9.57 -48.15,7.55 1.12,-22.98 1.11,-45.98 1.25,-69 3.99499,-0.58 8.08062,-0.97563 12.2,-1.05 z"
       id="path36"
       inkscape:connector-curvature="0" />
    <path
       d="m 308.98,-323.1 c 36.38,1.92 72.86,2.4 109.16,4.82 -0.84,10.46 -1,20.94 -1.36,31.42 -24.94,-0.52 -49.86,-2.04 -74.8,-2.66 0.08,14.82 -0.5,29.62 -1.06,44.44 13.7,0.48 27.4,1.02 41.08,1.64 0.08,6.02 -0.18,12.06 -0.7,18.06 -13.42,-0.72 -26.86,-1.16 -40.28,-1.7 -0.04,4.84 -0.04,9.7 -0.02,14.56 20.32,0 40.64,0.86 60.98,0.52 0.02,8.52 0.26,17.04 -0.58,25.52 -32.08,-0.42 -64.16,-1.16 -96.22,-2.08 1.38,-44.84 2.2,-89.7 3.8,-134.54 z"
       id="path38"
       inkscape:connector-curvature="0"
       style="fill:#f5e5c1" />
    <path
       d="m 418.78,-213.94 c 2.38,-34.96 2.8,-70.06 4.64,-105.06 9.18,0.42 18.38,0.64 27.56,1.24 13.26,21.46 27.36,42.38 40.62,63.84 -6.72,4.7 -12.8,10.2 -18.84,15.72 -6,-7.92 -10.18,-17.22 -17.08,-24.44 -0.1,10.88 -0.98,21.76 -0.6,32.66 -7.38,-1.92 -16.28,-3.08 -22.24,2.82 -4.52,4.64 -11.16,7.14 -14.06,13.22 z"
       id="path40"
       inkscape:connector-curvature="0"
       style="fill:#f5e5c1" />
    <path
       d="m 0,-314.42 c 10.64,5.44 21.18,11.46 29.84,19.8 8.4,8.46 17.86,16 24.66,25.9 9.38,13.48 17,28.16 26.92,41.24 7.7,10.48 23.38,10.04 29.98,21.66 l 1.24,2.02 c -0.48,1.12 -1.44,3.38 -1.9,4.5 -5.62,-4.36 -10.98,-9.24 -17.7,-11.88 -8.06,-3.12 -15.04,-8.72 -19.86,-15.92 -7.64,-11.8 -14.72,-23.96 -22.52,-35.66 -5.34,-8.28 -13.04,-14.54 -20.32,-21 C 21.4,-292.26 10.74,-298.5 0,-304.4 l 0,-10.02 z"
       id="path42"
       inkscape:connector-curvature="0"
       style="fill:#f4722b" />
    <path
       d="m 506.42,-313.94 c 10.36,-0.1 20.7,-0.1 31.06,-0.02 l -0.04,3.12 c 6.84,-0.26 13.68,0.2 20.5,0.46 -7.26,4.8 -12.72,12.06 -20.34,16.16 -9.32,9.78 -20.06,18.06 -30.62,26.42 0.16,-15.4 0,-30.78 -0.56,-46.14 z"
       id="path44"
       inkscape:connector-curvature="0"
       style="fill:#f5e5c1" />
    <path
       d="m 748.22,-291.78 c 7.48,-3.3 12.8,-11.78 21.7,-11.22 23.54,0.32 47.08,0.68 70.64,0.52 -0.44,5.58 -0.64,11.16 -0.6,16.74 7.44,-5.74 14.8,-11.58 22.24,-17.32 15.36,18 30.76,35.98 46.2,53.9 13.9,-16.02 27.18,-32.58 41.26,-48.44 6.6,5.24 13.2,10.5 19.84,15.7 -14.44,16.04 -28.78,32.14 -43.28,48.12 -1.9,2.18 -4.56,4.48 -3.44,7.8 0.36,20.48 0.66,40.94 0.98,61.44 -11.26,0.24 -22.54,-0.38 -33.78,0.42 0.18,-21.04 -1.14,-42.08 -0.94,-63.14 -16.12,-17.68 -32.54,-35.06 -48.66,-52.72 -0.14,1.26 -0.44,3.76 -0.6,5 -14.78,0.14 -29.6,-0.44 -44.38,0.3 -0.5,34.72 -1.26,69.46 -2.44,104.18 -11.5,0 -22.98,0 -34.46,0 0.44,-34.84 1.76,-69.66 1.98,-104.48 -12.84,-0.04 -25.66,-0.06 -38.5,0.02 3.9,-2.58 7.96,-4.9 12.22,-6.82 5.52,-2.1 8.66,-7.66 14.02,-10 z"
       id="path48"
       inkscape:connector-curvature="0"
       style="fill:#f5e5c1" />
    <path
       d="m 30.34,-283.76 c 7.28,6.46 14.98,12.72 20.32,21 7.8,11.7 14.88,23.86 22.52,35.66 4.82,7.2 11.8,12.8 19.86,15.92 6.72,2.64 12.08,7.52 17.7,11.88 l -0.64,2.06 c -3.54,9.18 2.72,17.98 10.86,21.8 -10.98,-0.18 -21.98,-0.38 -32.96,-0.62 0.04,6.86 0.2,13.72 0.34,20.58 -4.28,2.6 -8.04,5.96 -11.66,9.38 -10.98,-13.74 -26.02,-23.46 -41.44,-31.54 -1.58,-35.38 -3.04,-70.76 -4.9,-106.12 z"
       id="path52"
       inkscape:connector-curvature="0"
       style="fill:#f5e5c1" />
    <path
       d="m 212.64,-282.9 c 12.56,-0.36 26.04,0.24 37.02,7.1 15.36,9.06 15.4,34.52 0.68,44.24 -11.2,7.88 -25.64,7.72 -38.76,7.56 0.66,-19.62 0.6,-39.26 1.06,-58.9 z"
       id="path54"
       inkscape:connector-curvature="0"
       style="fill:#f5e5c1" />
    <path
       d="m 348.02,-283.38 c 22.54,0.72 45.06,2.08 67.62,2.42 -0.7,29.68 -2.34,59.34 -3.28,89.02 0.38,3.76 -2.96,6.06 -5.54,8.08 1.46,-9.24 1.48,-18.64 1,-27.96 -0.1,-4.12 -4.18,-6.44 -7.94,-6.14 -17.12,-0.16 -34.26,0.12 -51.38,-0.78 -0.88,-0.32 -2.64,-0.96 -3.54,-1.28 12.7,-2.08 25.86,1.68 38.64,-0.18 4.04,-2.38 3.88,-7.78 4.26,-11.86 0.14,-5.2 0.94,-11.06 -2.2,-15.58 -2.74,-2.24 -6.5,-1.78 -9.78,-2.14 -9.72,-0.28 -19.42,-0.88 -29.16,-0.9 1.34,-10.82 0.84,-21.8 1.3,-32.7 z"
       id="path56"
       inkscape:connector-curvature="0"
       style="fill:#f5e5c1" />
    <path
       d="m 680.3,-249.78 c 9.76,-4.18 17.72,-11.42 26.98,-16.52 0.34,1.92 0.5,3.82 0.5,5.76 -2.3,29.44 -4.96,58.86 -7,88.32 -12.28,-0.04 -24.46,-2.12 -36.72,-2.82 0.98,-22.12 3.52,-44.14 4.96,-66.22 3.62,-3 6.9,-6.6 11.28,-8.52 z"
       id="path58"
       inkscape:connector-curvature="0"
       style="fill:#f5e5c1" />
    <path
       d="m 460.58,-246.34 c 2.04,3.6 4.24,7.1 6.52,10.56 -2,2.1 -4,4.2 -5.98,6.32 -0.06,-5.64 -0.12,-11.26 -0.54,-16.88 z"
       id="path60"
       inkscape:connector-curvature="0"
       style="fill:#f5e5c1" />
    <path
       d="m 243.28,-188.6 c 22.04,-4.06 44.16,-14.76 56.74,-33.98 0.38,12.04 -1.64,24.22 -0.06,36.18 4.34,5.9 13.54,3.56 20.06,4.38 26.7,0.34 53.4,1.24 80.12,1.62 -6.16,3.94 -12.14,9.82 -20.08,8.86 -60.9,-1.02 -121.82,-1.72 -182.72,-2.9 -0.24,-4.4 -1.04,-8.76 -2.76,-12.84 16.2,1.14 32.66,1.66 48.7,-1.32 z"
       id="path62"
       inkscape:connector-curvature="0"
       style="fill:#f5e5c1" />
    <path
       d="m 436.12,-201.98 c 3.02,-3.42 6.78,-6.04 10.28,-8.92 3.08,2.02 7.94,2.66 9.22,6.54 -3.52,3.7 -10.1,5.16 -11.6,10.34 1.56,6.7 7.04,11.74 10.9,17.26 2.5,4.06 7.84,2.68 11.4,4.82 -0.12,3.84 -2.1,8.06 0.44,11.52 4.12,6.7 9.26,12.7 13.64,19.22 5.32,-3.76 10.6,-7.6 15.98,-11.28 0.84,2.74 1.66,5.48 2.5,8.22 -4.12,3.24 -8.22,6.5 -12.26,9.82 -6.42,-2.68 -12.96,-5.14 -18.9,-8.8 -17.96,15.74 -36.04,31.3 -54.6,46.32 -22.58,19.8 -47.28,37.02 -69.94,56.72 -12.08,-16.38 -25.84,-31.52 -37.24,-48.42 8.08,-4.38 13.66,-11.92 21.22,-17.02 20.06,-15.3 42.04,-27.86 62.52,-42.58 15.8,-11.94 33.44,-21.14 49.3,-33.02 1.86,-6.82 -2.64,-13.8 -2.86,-20.74 z"
       id="path64"
       inkscape:connector-curvature="0"
       style="fill:#f5e5c1" />
    <path
       d="m 110.1,-197.24 c 2.18,-2.52 4.48,-4.92 6.76,-7.34 8.62,-1.76 17.16,2.02 21.1,9.94 0.26,1.54 0.74,4.6 0.98,6.12 -0.7,5.68 -4.52,9.9 -8.68,13.46 -3.1,-0.02 -6.2,-0.2 -9.3,-0.38 -8.14,-3.82 -14.4,-12.62 -10.86,-21.8 z"
       id="path66"
       inkscape:connector-curvature="0"
       style="fill:#f4722b" />
    <path
       d="m 575.56,-184 c 11.68,-7.66 23.26,-15.48 35.5,-22.34 -1.08,9.42 -0.06,18.92 -1.14,28.34 -11.46,0 -22.94,0 -34.4,0 0.02,-1.5 0.04,-4.5 0.04,-6 z"
       id="path68"
       inkscape:connector-curvature="0"
       style="fill:#f5e5c1" />
    <path
       d="m 167.34,-194.44 c 1.98,-0.88 4.02,-1.68 6.08,-2.44 5.08,-0.38 10.1,0.62 14.64,2.9 2.3,2.1 4.44,4.36 6.52,6.7 1.72,4.08 2.52,8.44 2.76,12.84 -2.5,10.58 -14.66,17.86 -24.96,13.64 -6.54,-1.9 -10.96,-7.62 -13.28,-13.76 -0.8,-7.58 1.54,-15.56 8.24,-19.88 z"
       id="path70"
       inkscape:connector-curvature="0"
       style="fill:#f4722b" />
    <path
       d="m 0,-191.9 c 12.04,4 23.92,8.5 35.24,14.26 15.42,8.08 30.46,17.8 41.44,31.54 3.62,-3.42 7.38,-6.78 11.66,-9.38 5.26,-0.28 10.64,-0.68 15.8,0.66 12.44,5.86 17.2,24.38 7.66,34.74 -7.08,4.58 -14.46,8.74 -21.04,14.1 -7.3,2.82 -15.86,4 -22.94,-0.08 -10.44,-4.94 -14.38,-20.1 -6.8,-29.08 4.02,-5.18 10.78,-6.64 16.56,-8.92 C 66.98,-157.8 50.7,-165.32 35.52,-172.84 23.82,-177.74 12.5,-184.28 0,-186.76 l 0,-5.14 z"
       id="path74"
       inkscape:connector-curvature="0"
       style="fill:#f4722b" />
    <path
       d="m 790.72,-137.86 c 5.08,-4.08 13.5,1.48 11.52,7.86 -1.72,6.34 -11.62,4.72 -13.36,-0.7 -0.68,-2.38 -0.44,-5.7 1.84,-7.16 z"
       id="path80"
       inkscape:connector-curvature="0"
       style="fill:#f4722b" />
    <path
       d="m 263.16,-109.4 c 3.74,-12.68 20,-19.12 31.6,-13.18 8.94,4.76 20.44,0.52 28.76,7.04 3.1,2.34 3.04,6.44 3.64,9.9 -7.56,5.1 -13.14,12.64 -21.22,17.02 11.4,16.9 25.16,32.04 37.24,48.42 4.18,5.54 8.56,10.88 12.7,16.44 5.96,-4.74 11.82,-9.62 17.56,-14.62 6.86,-5.98 15.18,-10.08 21.76,-16.4 8.16,-7.96 17.88,-14.06 26.14,-21.88 5.52,-5.6 13.32,-7.46 20.58,-9.64 13.4,-3.78 26.18,-9.66 39.94,-12.18 19.54,-2.98 38.84,-7.28 58.1,-11.74 5.02,2.12 10.48,1.42 15.76,1.88 3.82,2.22 7.32,5.88 12.2,4.94 24.42,-1.04 48.8,-3.48 73,-7.02 6.92,-1.1 14,-0.26 20.92,-1.28 2.72,-3.82 4.06,-9.36 9,-10.98 5.52,-1.8 11.42,-2.82 17.26,-2.34 6.46,0.5 11.18,8.66 6.9,14.12 -4.68,7.52 -14.28,7.62 -21.86,9.9 -20.14,7.44 -41.64,11.26 -63.1,11.32 -20.16,-0.04 -40.02,3.62 -60.06,5.46 -23.2,2.36 -46.02,7.56 -69.24,9.64 -14.48,0.38 -28.86,2.48 -43.12,4.9 5.06,7.42 8.1,15.9 8.7,24.86 10.02,1.8 19.96,6.34 30.24,3.44 1.14,-3.52 2.28,-7.04 3.34,-10.6 4.8,-4.88 10.84,-9.56 18.12,-9.14 6.5,-0.46 11.68,3.88 16.82,7.16 8.84,-12.62 26.18,-13.26 39.86,-10.24 9.88,2.96 14.4,13.66 14.08,23.28 15.22,1 31.14,-3.94 45.64,2.54 -2.3,2.58 -4.66,5.12 -6.84,7.78 -12.54,-0.84 -25.1,-1.14 -37.64,-1.96 -7.26,-0.78 -11.56,6.14 -17.52,8.9 -12.2,5.84 -27.24,2.94 -36.98,-6.28 -2.38,2.66 -4.74,5.3 -7.12,7.94 14.74,3.68 27.22,12.86 38.16,23.08 9.42,0.42 19.02,1.2 28,4.32 C 561,3.32 547.26,0.38 533.66,3.44 515.46,7.6 496.82,4.54 478.42,4.92 453.5,5.12 428.36,-2.6 403.66,3.26 394.16,4.84 384.32,2.9 375.48,-0.7 c -5.74,8.04 -3.78,18.9 -9.88,26.74 -9.12,8.88 -24.6,5.92 -31.48,-4.22 -6.76,-8.4 -6.26,-19.68 -6.76,-29.84 -5,0.56 -9.32,3.24 -14.02,4.8 -13.64,2.98 -30.14,-3.18 -35.56,-16.74 -3.74,-8.08 -1.42,-17.1 -0.36,-25.5 -6.36,4.72 -14.72,9.14 -22.44,4.62 -13.32,-4.58 -18.4,-22.66 -9.36,-33.46 5.76,-8.44 16.68,-9.74 26.04,-8.24 -0.26,-1.92 -0.52,-3.82 -0.78,-5.72 -4.32,-0.76 -7.58,-3.46 -9.42,-7.38 0.84,-4.56 1.32,-9.16 1.7,-13.76 z"
       id="path82"
       inkscape:connector-curvature="0"
       style="fill:#f4722b" />
    <path
       d="m 196.78,-117.2 c 4.48,-5.32 11.3,-2.16 14.4,2.86 0.3,5.5 -3.1,11.76 -9.18,11.92 -7.8,0.98 -11.52,-10.4 -5.22,-14.78 z"
       id="path84"
       inkscape:connector-curvature="0"
       style="fill:#f4722b" />
    <path
       d="m 213.24,-116.62 c 7.54,-3.36 12.9,6.66 10.52,12.86 -6.92,1.78 -9.7,-7.56 -10.52,-12.86 z"
       id="path86"
       inkscape:connector-curvature="0"
       style="fill:#f4722b" />
    <path
       d="m 228.3,-107.08 c 2.7,-2.52 7.06,1.3 4.54,4.14 -2.5,2.8 -8.2,-1.52 -4.54,-4.14 z"
       id="path88"
       inkscape:connector-curvature="0"
       style="fill:#f4722b" />
    <path
       d="m 219.94,-60.88 c 7.96,-20.7 23.4,-38.44 43.22,-48.52 -0.38,4.6 -0.86,9.2 -1.7,13.76 1.84,3.92 5.1,6.62 9.42,7.38 0.26,1.9 0.52,3.8 0.78,5.72 -9.36,-1.5 -20.28,-0.2 -26.04,8.24 -9.04,10.8 -3.96,28.88 9.36,33.46 7.72,4.52 16.08,0.1 22.44,-4.62 -1.06,8.4 -3.38,17.42 0.36,25.5 5.42,13.56 21.92,19.72 35.56,16.74 4.7,-1.56 9.02,-4.24 14.02,-4.8 0.5,10.16 0,21.44 6.76,29.84 6.88,10.14 22.36,13.1 31.48,4.22 -2.72,4.44 -5.02,9.12 -7.3,13.8 -12.4,-1.22 -24.38,-5.84 -36.96,-4.98 0.08,1.24 0.26,3.72 0.34,4.96 11.44,-0.02 22.36,3.8 33.64,5.18 -3.16,4.2 -6.42,8.3 -9.84,12.28 -2.5,-2 -5.62,-3.48 -8.82,-2.12 -3.78,4.2 -0.14,9.7 2.92,13.12 6.18,7.76 15.7,11.24 24.3,15.48 8.82,4.18 15.96,10.98 24.04,16.28 19.14,11.94 39.96,21.9 56.26,37.82 5.2,14.74 6.88,30.48 7.66,46.02 1.76,12.42 2.38,25.26 -0.98,37.48 -1.94,8.28 -6.48,17.08 -14.98,20.08 -2.44,0.94 -4.84,1.96 -7.3,2.82 -5.78,0.84 -11.94,-0.44 -16.64,-3.96 -2.68,-2.78 -4.44,-6.28 -6.76,-9.34 5.74,-0.36 12.66,-0.24 16.36,-5.52 5.98,-6.82 3.64,-18.48 -4.36,-22.64 -4.98,-3.32 -11.24,-1.62 -16.16,0.86 -0.8,-7.9 -1.76,-15.78 -2.82,-23.64 -1.94,9.98 -0.6,20.22 -2.12,30.24 -0.52,3.44 -0.84,6.92 -1.06,10.4 0.04,7.62 -2.94,16.5 -10.16,20.1 -33.94,15.42 -71.82,23.24 -109.06,19.06 -25.48,-1.92 -50.44,-9.1 -73.5,-19.96 -7.38,-5.46 -8.64,-15.56 -9.5,-24.06 -0.62,-11.96 -0.54,-24 -2.54,-35.84 -3.16,18.76 0.3,39.38 -9.96,56.38 -3.46,6.98 -12.16,7.98 -19.1,7.48 -10.1,-0.02 -18.36,-8.32 -21.62,-17.34 -5.18,-14.98 -2.98,-31.08 -2.32,-46.56 1.32,-25.22 7.08,-51.38 23.1,-71.58 20.16,-25.18 50.3,-40.42 81.14,-48.16 -22.98,-23.08 -32.64,-57.02 -29.82,-89.02 5.22,-3 10.72,-6.96 12.18,-13.18 2.02,-6.48 0.2,-13.62 -3.92,-18.86 z"
       id="path90"
       inkscape:connector-curvature="0"
       style="fill:#f5e5c1" />
    <path
       d="m 95.28,-101.7 c 7.62,5.46 15.86,10.4 24.8,13.32 13.82,2.96 27.92,-0.4 41.84,-0.66 13.44,-1.08 28,-1.88 40.12,5.02 6.18,3.72 7.58,11.16 10.46,17.2 2.18,2.3 4.94,3.98 7.44,5.94 4.12,5.24 5.94,12.38 3.92,18.86 -1.46,6.22 -6.96,10.18 -12.18,13.18 -5.22,0.32 -10.82,1.02 -15.66,-1.46 -8.66,-4.16 -13.02,-15.52 -9.2,-24.38 2,-6.2 7.92,-9.56 13.16,-12.7 -2.78,-6.02 -8.94,-8.46 -15.14,-9.18 -20.22,-2.32 -40.66,-2.12 -60.9,-4.32 -12.5,-1.48 -21.54,-11.28 -28.66,-20.82 z"
       id="path92"
       inkscape:connector-curvature="0"
       style="fill:#f4722b" />
    <path
       d="m 984.7,-101.06 c 5.56,-2.26 12.38,3.24 10.32,9.16 -2.7,4.9 -11.54,6.96 -14.34,1.14 -2.68,-3.52 0.08,-9.24 4.02,-10.3 z"
       id="path94"
       inkscape:connector-curvature="0"
       style="fill:#f4722b" />
    <path
       d="m 622.86,-37.84 c 2.3,-1.04 4.46,-3.96 7.18,-3.18 l 0.78,0.62 c 1.04,4 -6.18,5.18 -7.96,2.56 z"
       id="path142"
       inkscape:connector-curvature="0"
       style="fill:#f4722b" />
    <path
       d="m 641.26,-40.82 2.62,-0.08 c 9.44,-0.64 18.84,0.6 28.16,2 -4.56,2.72 -9.16,5.4 -13.88,7.86 -5.66,0.46 -11.36,0.38 -17.04,0.36 -0.04,-3.38 0,-6.76 0.14,-10.14 z"
       id="path148"
       inkscape:connector-curvature="0"
       style="fill:#f4722b" />
    <path
       d="m 625.9,-30.08 c 3.32,-4.08 8.48,-5.66 13.1,-7.7 0.1,2.52 0.2,5.06 0.32,7.58 -4.46,-0.6 -8.98,-0.46 -13.42,0.12 z"
       id="path150"
       inkscape:connector-curvature="0"
       style="fill:#f4722b" />
    <path
       d="m 42.22,-22.72 c 4.04,0.18 8.64,-0.36 11.88,2.64 4.78,4.44 6.94,12.28 4.08,18.3 -3.38,5.34 -9.9,2.92 -14.84,2.02 -2.3,-3.9 -5.74,-7.54 -6.08,-12.22 -0.5,-4.28 2.96,-7.38 4.96,-10.74 z"
       id="path170"
       inkscape:connector-curvature="0"
       style="fill:#f4722b" />
    <path
       d="m 481.04,34.92 c -4.46,-3.76 -3.54,-13 3.12,-13.28 16.32,4 32.18,10.82 49.18,11.5 5.66,0.54 8.62,5.8 9.42,10.9 -6.32,10.32 -20.14,8.4 -29.98,5.28 -10.82,-4.02 -23.3,-5.94 -31.74,-14.4 z"
       id="path196"
       inkscape:connector-curvature="0"
       style="fill:#f4722b" />
    <path
       style="fill:#f4722b"
       d="m 597.2,23.4 c -0.55336,0.0064 -1.0679,0.02816 -1.65,0.04992 -2.21635,0.04864 -4.43875,0.08592 -6.65,0.14992 l -10.7,1.1 c -8.72,1 -18.04,1.16 -25.9,5.5 -9.64,5.5 -10.85,20.88 -2.25,27.8 5.5,5.04 13.48,5.2 20.4,6.8 L 582.4,66.35 c 10.32,-0.38 20.46,1.76 30.6,3.3 1.60502,0.460992 3.27235,0.759024 4.95,0.85 1.8577,-0.03792 15.16094,-0.219616 25.55,0.3 3.06571,0.309856 4.69056,0.371808 6.55,0.65 l 1.75,-0.1 c 4.2,-0.36 8.28,-1.42 12.2,-3 5.33301,-4.045248 7.33,-10.62 10.85,-16 -0.34,-13.82 -13.49,-21.56 -24.95,-25.8 l -5.55,-1.1 c -11.69038,-0.13936 -23.46811,0.765296 -35.1,-0.55 -2.98984,-1.015088 -6.93262,-1.565888 -12.05,-1.5 z"
       id="path198"
       inkscape:connector-curvature="0"
       sodipodi:nodetypes="ccccccccccccccccccc" />
    <path
       d="m 390.7,36 c 4.92,-7.28 14.86,-3.72 20.14,1.04 -6.68,1.58 -15.22,6.5 -20.14,-1.04 z"
       id="path208"
       inkscape:connector-curvature="0"
       style="fill:#f4722b" />
    <path
       d="m 321.34,34.86 c 12.58,-0.86 24.56,3.76 36.96,4.98 27.58,5.74 55.64,9.34 82.76,17.08 11.62,4.5 23.7,7.56 35.44,11.72 7.92,3.06 15.14,7.62 23,10.8 4.36,0.86 8.86,1.14 13.16,2.4 -12.16,-0.56 -24.18,-2.9 -36.32,-3.8 -11.12,-2.22 -22.76,-2.46 -33.26,-7.06 -12.68,-5.22 -26.28,-7.36 -39.52,-10.6 -8.56,-1.86 -15.38,-7.9 -23.8,-10.14 -8.04,-2.16 -16.3,-3.48 -24.44,-5.24 -11.28,-1.38 -22.2,-5.2 -33.64,-5.18 -0.08,-1.24 -0.26,-3.72 -0.34,-4.96 z"
       id="path210"
       inkscape:connector-curvature="0"
       style="fill:#f4722b" />
    <path
       d="m 476.14,46.08 c 0.22,-0.8 0.68,-2.4 0.9,-3.18 6.4,0.92 12.44,3.4 17.2,7.86 -5.52,4.54 -13.38,2.56 -17.8,-2.5 l -0.3,-2.18 z"
       id="path214"
       inkscape:connector-curvature="0"
       style="fill:#f4722b" />
    <path
       d="m 336.66,55.16 c 3.2,-1.36 6.32,0.12 8.82,2.12 1.38,1 2.76,1.98 4.14,2.98 9.68,7.06 21.98,9.2 31.58,16.48 15.1,11.46 31.7,20.68 47.4,31.26 7.38,5.74 15.22,10.94 22.06,17.36 6.9,6.88 14.78,12.78 23.74,16.76 10.5,4.82 19.82,13.58 22.02,25.34 1.32,13.14 15.06,19.5 26.32,22.74 13.88,5.14 26.82,12.8 41.38,16.14 10.5,1.76 17.32,10.48 26.14,15.56 10.14,6.18 17.42,15.88 26.88,22.84 8.58,3.28 13.02,11.68 16.76,19.48 3.96,8.48 -5,18.66 -13.92,16.34 -9.18,-2.1 -12.92,-11.6 -19.2,-17.52 -6.32,-5.3 -5.1,-15.04 -11.54,-20.2 -4.96,-5.22 -11.28,-8.9 -16.3,-14.04 -3.96,-4.18 -0.74,-9.72 0.9,-14.14 -7.4,-3.28 -15.18,-5.54 -22.84,-8.04 -12.14,-3.92 -21.86,-12.78 -33.86,-16.96 -7.34,-2.54 -13.82,-7.32 -18.8,-13.24 -6.2,-8.52 -15.66,-13.72 -24.4,-19.24 -10.58,-5.34 -21.34,-10.78 -29.76,-19.32 -16.3,-15.92 -37.12,-25.88 -56.26,-37.82 -8.08,-5.3 -15.22,-12.1 -24.04,-16.28 -8.6,-4.24 -18.12,-7.72 -24.3,-15.48 -3.06,-3.42 -6.7,-8.92 -2.92,-13.12 z"
       id="path220"
       inkscape:connector-curvature="0"
       style="fill:#f4722b" />
    <path
       d="M 349.62,60.26 C 379.38,69.1 408.62,83.5 428.6,108 412.9,97.42 396.3,88.2 381.2,76.74 371.6,69.46 359.3,67.32 349.62,60.26 z"
       id="path226"
       inkscape:connector-curvature="0"
       style="fill:#f5e5c1" />
    <path
       d="m 501.56,68.26 c 8.02,-0.38 15.84,1.74 22.62,6.02 0.28,1.02 0.82,3.04 1.1,4.06 -5.56,-2.04 -11.4,-1.44 -17.16,-1.3 -4.36,0.22 -9.26,-4.44 -6.56,-8.78 z"
       id="path232"
       inkscape:connector-curvature="0"
       style="fill:#f4722b" />
    <path
       d="m 595.84,118.9 c 7.2,-1.22 14.66,-1.9 21.64,0.84 1.04,0.72 2,1.6 2.84,2.62 1.14,5.44 3.5,11.38 0.86,16.78 -2.98,7.42 -12.68,11.52 -19.76,7.26 -7.56,-3.56 -9.74,-12.66 -8.66,-20.32 0.64,-2.36 1.32,-4.7 2.04,-7.04 l 1.04,-0.14 z"
       id="path254"
       inkscape:connector-curvature="0"
       style="fill:#f4722b" />
    <path
       d="m 570.98,155.92 c 0.56,-6.56 7.18,-9.82 12.92,-10.88 2.74,6.56 6.14,12.82 9.68,18.98 -2.86,2.32 -5.6,5.6 -9.66,5.36 -7.56,1.52 -14.72,-6 -12.94,-13.46 z"
       id="path266"
       inkscape:connector-curvature="0"
       style="fill:#f4722b" />
    <path
       d="m 401.02,203.66 c 4.92,-2.48 11.18,-4.18 16.16,-0.86 8,4.16 10.34,15.82 4.36,22.64 -3.7,5.28 -10.62,5.16 -16.36,5.52 -3.48,-3.34 -7,-6.66 -10.16,-10.3 0.22,-3.48 0.54,-6.96 1.06,-10.4 1.54,-2.28 3.2,-4.48 4.94,-6.6 z"
       id="path280"
       inkscape:connector-curvature="0"
       style="fill:#f4722b" />
    <path
       d="m 428.58,244.26 c 2.46,-0.86 4.86,-1.88 7.3,-2.82 8.86,-0.34 16.14,9.82 11.82,17.9 -3.58,7.66 -15.04,6.88 -19.12,0.14 -3.44,-4.54 -1.08,-10.34 0,-15.22 z"
       id="path288"
       inkscape:connector-curvature="0"
       style="fill:#f4722b" />
    <path
       d="m 460.26,316.56 c 3.14,-4.54 10.54,-4.98 14.54,-1.4 2.88,2.08 1.98,6.16 2.8,9.2 -4.38,2.7 -9.9,5.68 -14.96,2.84 -4.08,-1.62 -4.96,-7.38 -2.38,-10.64 z"
       id="path290"
       inkscape:connector-curvature="0"
       style="fill:#f4722b" />
    <path
       d="m 540.28,349.84 c 9.54,-5.76 20.12,9.36 10.92,15.82 -9.18,5.92 -20.18,-9.26 -10.92,-15.82 z"
       id="path292"
       inkscape:connector-curvature="0"
       style="fill:#f4722b" />
    <path
       d="m 861.18,382.9 c -4.94,-5.82 1.18,-16.16 8.76,-14.12 5.1,0.18 7.3,5.44 10.74,8.42 4.36,5.18 12,4.88 16.9,9.36 5.92,5.08 12.9,8.76 20.1,11.7 10.7,3.1 21.96,4.14 32.5,7.86 2.72,1.06 5.62,1.52 8.54,1.74 1.52,-5.08 4.94,-11.58 11.3,-10.56 6.56,0.64 6.9,9.76 13.18,11.36 -2.66,4.04 -4.6,8.44 -4.08,13.4 0.42,5.76 -5.68,10.04 -11.08,9.22 -6.54,-0.86 -12.22,-4.58 -18.4,-6.64 -11.86,-4.94 -24.82,-5.92 -37.1,-9.42 -10.02,-3.86 -19.34,-9.32 -27.8,-15.86 -9.22,-3.26 -16.78,-9.62 -23.56,-16.46 z"
       id="path294"
       inkscape:connector-curvature="0"
       style="fill:#f4722b" />
    <path
       d="m 610.72,421.22 c 8.64,-1.72 18.1,1.34 23.38,8.56 6.4,7.7 5.56,18.62 3.48,27.76 -3.26,13.66 -19.64,21.98 -32.64,17.04 -6.74,-2.34 -12.02,-7.44 -16.78,-12.54 -6.86,-7.44 -6.42,-20.04 0.58,-27.24 6.06,-6.16 13.38,-11.74 21.98,-13.58 z"
       id="path296"
       inkscape:connector-curvature="0"
       style="fill:#f4722b" />
    <path
       style="fill:none;stroke:#3e3e3e;stroke-width:3.20000005;stroke-linecap:round;stroke-miterlimit:4;stroke-opacity:1;stroke-dasharray:none;stroke-dashoffset:0"
       d="m 799.81526,-79.613392 c 0,0 -68.85203,136.616432 -90.75747,186.068642 -21.90544,49.45221 -44.05456,114.75864 -44.05456,114.75864"
       id="path3281"
       inkscape:connector-curvature="0"
       sodipodi:nodetypes="czc" />
    <path
       style="fill:none;stroke:#3e3e3e;stroke-width:3.20000005;stroke-linecap:round;stroke-miterlimit:4;stroke-opacity:1;stroke-dasharray:none;stroke-dashoffset:0"
       d="m 594.66117,146.42818 c 0,0 33.76654,41.94577 96.09256,65.61046 62.32601,23.66469 129.60984,10.4055 129.60984,10.4055"
       id="path3283"
       inkscape:connector-curvature="0"
       sodipodi:nodetypes="czc" />
    <path
       style="fill:none;stroke:#3e3e3e;stroke-width:3.20000005;stroke-linecap:round;stroke-miterlimit:4;stroke-opacity:1;stroke-dasharray:none;stroke-dashoffset:0"
       d="m 579.00301,60.459456 c 0,0 19.5447,68.960384 118.26006,108.513204 98.71536,39.55281 184.18208,0.25273 184.18208,0.25273"
       id="path3285"
       inkscape:connector-curvature="0"
       sodipodi:nodetypes="czc" />
    <path
       style="fill:none;stroke:#3e3e3e;stroke-width:3.20000005;stroke-linecap:round;stroke-miterlimit:4;stroke-opacity:1;stroke-dasharray:none;stroke-dashoffset:0"
       d="m 598.09726,-8.529232 c 0,0 -6.85588,68.458448 125.70834,122.906992 132.56422,54.44856 182.43989,-10.66795 182.43989,-10.66795"
       id="path3287"
       inkscape:connector-curvature="0"
       sodipodi:nodetypes="czc" />
    <path
       style="fill:none;stroke:#3e3e3e;stroke-width:3.20000005;stroke-linecap:round;stroke-miterlimit:4;stroke-opacity:1;stroke-dasharray:none;stroke-dashoffset:0"
       d="m 639.73878,-50.7468 c 0,0 -13.60022,58.983408 102.67575,110.006064 C 858.6905,110.28192 905.39054,40.056736 905.39054,40.056736"
       id="path3289"
       inkscape:connector-curvature="0"
       sodipodi:nodetypes="czc" />
    <path
       style="fill:none;stroke:#3e3e3e;stroke-width:3.20000005;stroke-linecap:round;stroke-miterlimit:4;stroke-opacity:1;stroke-dasharray:none;stroke-dashoffset:0"
       d="m 686.7568,-81.308512 c 0,0 9.24221,72.542112 103.69525,94.035488 94.45304,21.493376 90.84176,-29.97344 90.84176,-29.97344"
       id="path3291"
       inkscape:connector-curvature="0"
       sodipodi:nodetypes="czc" />
    <path
       style="fill:none;stroke:#3e3e3e;stroke-width:3.20000005;stroke-linecap:round;stroke-miterlimit:4;stroke-opacity:1;stroke-dasharray:none;stroke-dashoffset:0"
       d="m 737.59502,-90.124384 c 0,0 12.32098,55.535456 62.74181,62.265856 50.42082,6.730416 46.50376,-24.221088 46.50376,-24.221088"
       id="path3293"
       inkscape:connector-curvature="0"
       sodipodi:nodetypes="czc" />
    <path
       style="fill:none;stroke:#3e3e3e;stroke-width:3.20000005;stroke-linecap:round;stroke-miterlimit:4;stroke-opacity:1;stroke-dasharray:none;stroke-dashoffset:0"
       d="m 799.61784,-79.11498 c 0,0 26.97688,24.08384 50.82874,44.16446 23.85186,20.08062 49.0667,57.08164 49.0667,57.08164"
       id="path3295"
       inkscape:connector-curvature="0"
       sodipodi:nodetypes="czc" />
    <path
       style="fill:none;stroke:#3e3e3e;stroke-width:3.20000005;stroke-linecap:round;stroke-miterlimit:4;stroke-opacity:1;stroke-dasharray:none;stroke-dashoffset:0"
       d="m 883.49778,-12.98546 c 0,0 -27.63158,-24.55428 -40.76002,-34.25642 -13.12846,-9.70214 -40.8342,-30.52246 -40.8342,-30.52246"
       id="path3299"
       inkscape:connector-curvature="0"
       sodipodi:nodetypes="csc" />
    <path
       style="fill:none;stroke:#3e3e3e;stroke-width:3.20000005;stroke-linecap:round;stroke-miterlimit:4;stroke-opacity:1;stroke-dasharray:none;stroke-dashoffset:0"
       d="m 800.18774,-80.133056 c 0,0 44.84906,62.189392 67.32956,117.533504 22.48048,55.344112 16.12742,132.249682 16.12742,132.249682"
       id="path4071"
       inkscape:connector-curvature="0"
       sodipodi:nodetypes="czc" />
    <path
       style="fill:none;stroke:#3e3e3e;stroke-width:3.20000005;stroke-linecap:round;stroke-miterlimit:4;stroke-opacity:1;stroke-dasharray:none;stroke-dashoffset:0"
       d="m 799.60002,-80.426912 c 0,0 56.22499,118.010592 53.97204,189.272252 -2.25294,71.26167 -21.64715,109.58596 -21.64715,109.58596"
       id="path4073"
       inkscape:connector-curvature="0"
       sodipodi:nodetypes="czc" />
    <path
       style="fill:none;stroke:#3e3e3e;stroke-width:3.20000005;stroke-linecap:round;stroke-miterlimit:4;stroke-opacity:1;stroke-dasharray:none;stroke-dashoffset:0"
       d="m 798.8928,-79.254896 c 0,0 13.72733,82.864032 15.34248,149.959776 2.39843,99.63442 -36.50469,167.41022 -36.50469,167.41022"
       id="path4075"
       inkscape:connector-curvature="0"
       sodipodi:nodetypes="csc" />
    <path
       style="fill:none;stroke:#3e3e3e;stroke-width:3.20000005;stroke-linecap:round;stroke-miterlimit:4;stroke-opacity:1;stroke-dasharray:none;stroke-dashoffset:0"
       d="m 800.18774,-81.896224 c 0,0 -0.5187,39.115808 -19.63488,128.730864 -19.11617,89.61506 -63.06222,194.51794 -63.06222,194.51794"
       id="path4077"
       inkscape:connector-curvature="0"
       sodipodi:nodetypes="czc" />
    <path
       style="fill:none;stroke:#3e3e3e;stroke-width:3.20000005;stroke-linecap:round;stroke-miterlimit:4;stroke-opacity:1;stroke-dasharray:none;stroke-dashoffset:0"
       d="m 911.4104,90.188032 c 0,0 -12.93045,-40.173952 -30.4073,-68.9724 -28.56267,-47.065712 -78.17059,-99.58552 -78.17059,-99.58552"
       id="path4091"
       inkscape:connector-curvature="0"
       sodipodi:nodetypes="csc" />
    <path
       style="fill:none;stroke:#3e3e3e;stroke-width:3.20000005;stroke-linecap:round;stroke-miterlimit:4;stroke-opacity:1;stroke-dasharray:none;stroke-dashoffset:0"
       d="m 617.97403,187.63637 c 0,0 17.14386,-73.45066 62.3733,-141.606514 45.22944,-68.15584 123.80851,-125.40648 123.80851,-125.40648"
       id="path3278"
       inkscape:connector-curvature="0"
       sodipodi:nodetypes="czc" />
    <path
       style="fill:none;stroke:#3e3e3e;stroke-width:3.20000005;stroke-linecap:round;stroke-miterlimit:4;stroke-opacity:1;stroke-dasharray:none;stroke-dashoffset:0"
       d="m 807.09352,-77.635232 c 0,0 -53.31157,13.0524 -131.20963,76.5512 -77.89807,63.498816 -87.57104,142.229492 -87.57104,142.229492"
       id="path3280"
       inkscape:connector-curvature="0"
       sodipodi:nodetypes="czc" />
    <path
       style="fill:none;stroke:#3e3e3e;stroke-width:3.20000005;stroke-linecap:round;stroke-miterlimit:4;stroke-opacity:1;stroke-dasharray:none;stroke-dashoffset:0"
       d="m 574.5013,66.210496 c 0,0 30.64144,-63.294208 94.36064,-100.565776 63.7192,-37.271568 143.37417,-42.251424 143.37417,-42.251424"
       id="path3282"
       inkscape:connector-curvature="0"
       sodipodi:nodetypes="czc" />
    <path
       style="fill:none;stroke:#3e3e3e;stroke-width:3.20000005;stroke-linecap:round;stroke-miterlimit:4;stroke-opacity:1;stroke-dasharray:none;stroke-dashoffset:0"
       d="m 608.88322,-23.711456 c 0,0 62.72588,-39.082048 96.4711,-45.253152 33.74522,-6.17112 96.30274,-7.935968 96.30274,-7.935968"
       id="path3284"
       inkscape:connector-curvature="0"
       sodipodi:nodetypes="czc" />
    <path
       style="fill:none;stroke:#3e3e3e;stroke-width:3.20000005;stroke-linecap:round;stroke-miterlimit:4;stroke-opacity:1;stroke-dasharray:none;stroke-dashoffset:0"
       d="m 799.30616,-78.9576 c 0,0 -36.59474,-3.82272 -55.83323,-4.431168 -19.2385,-0.608448 -59.3609,1.198672 -59.3609,1.198672"
       id="path3286"
       inkscape:connector-curvature="0"
       sodipodi:nodetypes="czc" />
    <path
       style="fill:#3e3e3e"
       d="m 743.25,-96 c -48.46434,0.126624 -96.78437,21.039376 -128.85,57.6 -2.3,2.58 -4.62,5.14 -6.8,7.8 -12.96,16.5 -23.16,35.24 -29.4,55.3 -3.88,13.06 -6.67,26.5 -7.75,40.1 -1.9,27.32 2.89,55.03 13.45,80.25 2.74,6.56 6.16,12.79 9.7,18.95 10.52,18.78 25.54,34.48 41.6,48.6 6.9,9.26 18.38,12.42 27,19.6 16.1,4.78 31.41,12.49 48.15,15.05 14.44,1.8 29.04,3.65 43.6,2.35 15.62,-0.88 30.82,-4.74 45.8,-8.9 8.28,15.24 28.96,22.49 44.3,13.45 16.36,-8.46 20.78,-30.85 11.5,-46.15 50.48,-41.96 72.4,-114.47 53.9,-177.45 -10.48,-39.16 -35.9,-73.91 -69.4,-96.55 -26.98,-18.6 -59.46,-28.75 -92.1,-29.95 -1.56312,-0.03938 -3.13664,-0.05408 -4.7,-0.05 z m -0.65,9.9 c 90.02965,0 163,72.970352 163,163 0,90.02965 -72.97035,163 -163,163 -90.02965,0 -163.05,-72.97035 -163.05,-163 0,-90.029648 73.02035,-163 163.05,-163 z"
       id="path96"
       inkscape:connector-curvature="0" />
  </g>
</svg>
