<?xml version="1.0" encoding="UTF-8" ?>
<!DOCTYPE svg PUBLIC "-//W3C//DTD SVG 1.1//EN" "http://www.w3.org/Graphics/SVG/1.1/DTD/svg11.dtd">
<svg width="512pt" height="512pt" viewBox="0 0 512 512" version="1.1" xmlns="http://www.w3.org/2000/svg">
<path fill="#3e3e3e" opacity="1.00" d=" M 0.00 0.00 L 512.00 0.00 L 512.00 512.00 L 0.00 512.00 L 0.00 0.00 Z" />
<path fill="#f5e5c1" opacity="1.00" d=" M 102.97 35.94 C 110.76 25.84 123.01 18.53 136.04 18.98 C 147.05 18.69 157.61 23.99 165.13 31.81 C 171.81 38.54 176.35 47.16 178.99 56.21 C 162.79 60.47 149.84 72.85 142.49 87.58 C 135.35 102.44 133.57 119.73 136.71 135.86 C 137.60 144.19 141.41 151.78 145.25 159.10 C 139.41 161.87 133.50 164.56 127.97 167.91 C 117.00 175.01 107.29 184.52 101.48 196.34 C 97.00 204.78 95.43 214.35 93.85 223.67 C 89.66 221.64 83.92 220.98 81.94 216.11 C 77.75 206.55 80.50 195.83 78.27 185.87 C 76.35 197.11 78.71 209.85 71.45 219.55 C 65.68 224.79 55.73 222.69 51.64 216.34 C 47.81 210.38 47.38 202.93 47.52 196.04 C 48.65 183.55 48.66 170.60 53.71 158.87 C 59.36 144.00 72.11 133.06 86.01 126.06 C 92.71 122.65 99.86 120.23 107.09 118.23 C 86.10 96.63 84.55 59.58 102.97 35.94 Z" />
<path fill="#f5e5c1" opacity="1.00" d=" M 227.42 23.54 C 236.60 18.43 247.93 17.65 257.89 20.78 C 270.72 25.09 280.63 35.78 285.96 47.99 C 296.10 70.62 292.44 99.45 275.13 117.62 C 294.37 122.50 313.74 131.80 325.28 148.59 C 334.60 161.75 335.76 178.46 336.63 194.04 C 336.08 196.39 334.38 198.29 333.18 200.35 C 333.46 193.55 333.81 186.75 334.07 179.94 C 334.21 176.51 333.55 172.63 330.77 170.31 C 328.14 167.93 324.44 167.45 321.05 167.20 C 313.01 166.68 304.97 166.18 296.93 165.61 C 293.00 165.31 288.67 165.85 285.61 168.55 C 281.02 172.48 276.89 176.91 272.61 181.17 C 262.75 170.93 250.44 163.20 237.07 158.44 C 238.33 155.87 239.70 153.35 240.79 150.70 C 244.34 140.19 247.16 129.21 246.50 118.02 C 245.72 100.29 239.32 82.18 226.26 69.75 C 220.00 63.02 211.46 59.03 202.87 56.17 C 206.43 42.73 215.06 30.26 227.42 23.54 Z" />
<path fill="#f5e5c1" opacity="1.00" d=" M 158.46 81.42 C 166.26 71.62 178.31 64.72 191.05 65.00 C 204.26 64.83 216.54 72.38 224.31 82.74 C 242.05 106.29 240.40 142.32 220.16 163.89 C 236.97 167.88 253.58 175.49 265.30 188.50 C 261.95 191.45 258.63 194.46 255.74 197.88 C 252.21 202.06 252.76 208.66 256.29 212.67 C 261.34 218.66 266.28 224.74 271.38 230.69 C 272.83 232.51 275.11 233.19 277.21 233.99 C 276.64 244.32 276.62 254.69 275.86 265.01 C 271.53 268.22 265.64 269.90 260.54 267.42 C 256.97 266.13 255.97 262.10 254.28 259.12 C 256.03 256.12 257.94 253.20 259.31 250.00 C 260.18 248.52 259.14 246.98 258.18 245.90 C 254.19 241.39 248.74 238.62 244.24 234.71 C 240.09 231.37 236.21 227.24 230.99 225.67 C 227.10 226.71 224.34 229.86 221.57 232.58 C 217.99 228.94 212.90 227.31 209.40 223.58 C 207.06 221.37 205.47 218.54 203.99 215.72 C 202.13 215.06 200.07 213.93 198.11 214.90 C 192.10 217.55 187.70 222.69 183.96 227.92 C 182.85 229.33 182.42 231.09 182.01 232.81 C 177.19 230.27 171.69 232.55 167.84 235.78 C 163.28 239.34 160.01 244.45 158.69 250.08 C 157.13 257.22 154.42 264.03 152.27 271.00 C 148.55 269.72 144.88 268.29 141.30 266.67 C 138.12 265.38 136.55 262.00 135.68 258.89 C 133.58 250.83 134.93 242.42 133.59 234.25 C 133.40 234.24 133.01 234.20 132.82 234.18 C 132.73 239.14 132.02 244.07 131.80 249.02 C 131.60 255.04 129.93 261.35 126.03 266.04 C 119.46 271.29 108.91 268.03 105.49 260.59 C 101.72 252.28 102.14 242.82 103.24 233.98 C 103.68 219.02 106.90 203.37 116.48 191.44 C 127.83 177.25 144.86 168.93 162.11 164.31 C 140.86 142.60 139.53 105.00 158.46 81.42 Z" />
<path fill="#f4722b" opacity="1.00" d=" M 384.49 174.67 C 396.52 172.75 409.15 174.41 420.02 180.01 C 433.76 186.99 444.62 199.16 450.53 213.35 C 458.03 231.07 458.09 251.83 450.55 269.55 C 443.81 285.60 430.58 299.09 414.15 305.12 C 404.33 308.81 393.51 309.39 383.23 307.62 C 364.04 303.99 347.58 290.21 339.22 272.76 C 326.48 246.87 331.18 213.18 351.51 192.47 C 360.32 183.34 371.95 176.84 384.49 174.67 Z" />
<path fill="#f4722b" opacity="1.00" d=" M 269.37 198.30 C 277.39 190.86 284.71 182.69 292.87 175.39 C 303.31 176.08 313.76 176.67 324.19 177.49 C 322.22 221.18 320.47 264.88 318.45 308.57 C 307.11 308.17 295.79 307.34 284.45 306.93 C 285.54 276.58 286.80 246.24 287.80 215.89 C 284.85 218.72 281.99 221.63 279.21 224.62 C 273.90 218.00 268.15 211.72 263.03 204.96 C 264.82 202.45 267.16 200.42 269.37 198.30 Z" />
<path fill="#3e3e3e" opacity="1.00" d=" M 389.26 215.35 C 397.63 213.74 406.50 216.54 412.68 222.33 C 422.85 231.77 425.73 247.16 422.31 260.26 C 419.16 271.57 409.87 281.40 398.16 283.70 C 387.60 285.63 376.97 279.62 371.13 271.03 C 364.48 261.52 363.58 248.98 366.42 237.99 C 369.29 227.13 377.89 217.37 389.26 215.35 Z" />
<path fill="#f4722b" opacity="1.00" d=" M 195.84 228.86 C 198.32 227.90 202.08 226.16 203.95 228.99 C 207.17 233.01 210.80 236.91 212.54 241.86 C 214.20 246.36 217.49 250.13 218.50 254.90 C 219.28 258.34 221.23 261.43 221.73 264.93 C 219.17 269.58 213.40 268.88 208.97 268.33 C 203.17 262.59 198.77 255.68 193.50 249.48 C 190.47 245.93 187.62 241.77 187.70 236.91 C 189.42 233.44 192.74 231.04 195.84 228.86 Z" />
<path fill="#f4722b" opacity="1.00" d=" M 218.62 246.69 C 221.36 241.45 226.40 238.21 230.73 234.44 C 232.93 236.74 235.23 238.94 237.62 241.04 C 231.80 245.26 228.09 251.58 222.68 256.23 C 221.51 252.97 220.20 249.76 218.62 246.69 Z" />
<path fill="#f4722b" opacity="1.00" d=" M 212.08 236.88 C 214.89 237.85 217.56 239.19 219.84 241.11 C 218.52 242.21 217.22 243.34 215.92 244.47 C 214.81 241.85 213.50 239.34 212.08 236.88 Z" />
<path fill="#f4722b" opacity="1.00" d=" M 169.48 250.54 C 170.54 246.55 172.96 243.09 176.77 241.30 C 179.21 241.74 181.65 242.15 184.10 242.50 C 185.24 243.34 186.39 244.17 187.54 245.00 C 186.95 245.45 186.36 245.90 185.76 246.34 C 181.31 245.32 177.67 249.16 176.97 253.26 C 180.70 250.58 184.07 247.06 188.90 246.53 C 192.48 251.42 196.19 256.21 200.18 260.78 C 202.57 263.46 204.22 266.67 205.57 269.97 C 202.80 273.51 200.99 279.25 195.97 279.91 C 190.60 278.37 186.65 274.02 183.28 269.79 C 181.26 267.09 178.49 265.08 176.40 262.46 C 174.79 259.59 174.62 256.01 172.29 253.53 C 172.79 256.00 173.58 258.40 174.44 260.77 C 173.14 260.63 171.83 260.49 170.52 260.36 C 172.97 262.24 175.74 263.84 177.54 266.42 C 181.86 272.70 187.98 277.44 192.85 283.24 C 192.05 285.68 187.85 286.15 187.48 289.08 C 187.20 291.64 187.28 294.22 187.19 296.79 C 182.66 296.09 179.64 292.41 176.52 289.42 C 172.43 285.21 167.65 281.11 161.62 280.28 C 161.55 281.22 161.48 282.16 161.42 283.10 C 164.55 283.52 167.61 284.33 170.54 285.51 C 167.39 287.92 164.49 291.08 165.16 295.39 C 167.21 292.22 169.11 288.95 171.05 285.71 C 173.43 287.76 175.80 289.84 177.89 292.19 C 180.59 295.12 182.80 298.81 186.81 300.10 C 185.97 302.79 184.99 305.76 182.41 307.29 C 179.51 307.85 176.41 307.86 173.50 307.35 C 170.61 305.32 168.30 302.59 165.65 300.28 C 165.63 300.93 165.58 302.21 165.56 302.85 C 162.77 301.37 159.79 300.30 156.73 299.54 C 158.30 300.85 160.01 301.98 161.76 303.05 C 160.03 305.04 158.35 307.07 156.65 309.09 C 155.08 303.51 154.26 297.73 153.73 291.97 C 154.74 287.90 157.02 284.27 158.54 280.37 C 163.20 270.83 165.99 260.54 169.48 250.54 Z" />
<path fill="#f4722b" opacity="1.00" d=" M 241.20 243.72 C 244.47 245.78 247.66 247.96 250.83 250.18 C 245.75 256.71 240.09 262.86 233.93 268.40 C 230.42 268.52 226.91 268.58 223.40 268.59 C 223.70 265.87 223.58 262.82 225.67 260.74 C 230.67 254.91 236.13 249.49 241.20 243.72 Z" />
<path fill="#f4722b" opacity="1.00" d=" M 231.66 272.50 C 236.14 271.69 239.10 267.92 242.21 264.94 C 244.81 269.14 246.95 273.68 247.57 278.64 C 248.68 287.38 248.49 296.29 250.49 304.91 C 252.20 313.82 252.69 323.28 257.59 331.20 C 253.35 336.42 248.16 340.72 243.52 345.56 C 235.53 353.79 226.60 361.72 215.72 365.80 C 215.68 363.62 215.65 361.44 215.62 359.27 C 210.04 357.88 206.80 352.96 203.47 348.72 C 206.75 348.49 210.04 348.31 213.33 348.19 C 213.41 347.79 213.58 346.97 213.66 346.57 C 205.79 346.64 198.10 344.92 190.44 343.38 C 187.41 342.17 185.22 339.56 182.73 337.55 C 190.06 328.97 197.09 320.14 204.80 311.90 C 204.88 318.68 202.86 327.22 208.53 332.37 C 212.04 335.29 215.53 338.55 219.98 339.97 C 217.15 337.67 213.50 335.87 212.31 332.14 C 209.42 324.67 207.16 316.49 208.78 308.45 C 210.46 304.30 214.29 301.55 216.96 298.06 C 216.53 297.63 215.67 296.76 215.24 296.33 C 218.11 296.60 221.02 296.43 223.86 296.94 C 227.37 298.58 230.18 301.81 234.28 302.02 C 232.44 299.42 230.31 297.07 228.16 294.74 C 225.32 295.09 222.45 295.33 219.58 295.32 C 221.81 292.79 224.81 291.27 227.92 290.15 C 223.16 291.57 218.26 292.56 213.64 294.43 C 214.53 291.24 214.60 287.91 213.84 284.70 C 213.32 288.63 212.89 292.97 210.16 296.08 C 206.45 298.92 201.68 300.99 196.93 299.97 C 192.10 299.26 188.79 293.28 190.90 288.86 C 193.90 285.40 198.71 284.17 201.77 280.72 C 204.60 277.91 206.49 273.31 210.97 272.88 C 217.85 272.31 224.78 273.23 231.66 272.50 Z" />
<path fill="#3e3e3e" opacity="1.00" d=" M 169.02 277.50 C 169.62 273.84 171.32 270.46 174.65 268.58 C 173.16 271.37 171.94 274.29 171.21 277.37 C 170.66 277.40 169.57 277.47 169.02 277.50 Z" />
<path fill="#f4722b" opacity="1.00" d=" M 189.35 306.15 C 189.62 304.77 189.90 303.40 190.18 302.04 C 190.57 302.68 191.33 303.98 191.71 304.63 C 196.73 304.03 201.47 302.21 206.38 301.09 C 201.55 308.51 194.80 314.44 189.42 321.45 C 185.49 325.74 183.26 331.56 178.23 334.78 C 174.27 331.50 169.89 328.80 165.61 325.96 C 169.56 320.92 174.42 316.49 177.29 310.69 C 181.53 309.85 185.72 308.56 189.35 306.15 Z" />
<path fill="#f4722b" opacity="1.00" d=" M 156.90 311.42 C 159.02 308.85 161.31 306.43 163.82 304.25 C 166.84 306.04 169.89 307.76 173.00 309.37 C 168.78 313.46 165.28 318.19 161.52 322.68 C 158.11 321.36 155.14 319.17 152.05 317.28 C 153.26 315.88 154.48 314.50 155.70 313.12 C 154.73 311.74 153.77 310.37 152.82 308.99 C 154.18 309.79 155.54 310.60 156.90 311.42 Z" />
<path fill="#f5e5c1" opacity="1.00" d=" M 146.26 328.30 C 148.45 326.51 150.40 324.22 153.12 323.23 C 155.07 323.66 156.59 325.12 158.30 326.08 C 152.28 331.80 146.40 337.65 141.00 343.96 C 130.13 354.22 121.29 366.31 111.73 377.73 C 108.17 382.16 104.23 386.42 101.88 391.67 C 99.56 396.81 98.10 402.28 97.10 407.82 C 96.23 412.52 94.92 417.25 95.32 422.08 C 91.28 426.80 87.10 431.41 83.25 436.30 C 83.30 420.76 83.98 404.95 89.03 390.11 C 91.36 382.56 97.53 377.25 102.18 371.14 C 108.75 364.05 115.36 356.98 122.08 350.03 C 130.18 342.82 138.00 335.32 146.26 328.30 Z" />
<path fill="#f5e5c1" opacity="1.00" d=" M 141.43 344.36 C 146.31 337.61 153.02 332.62 159.08 327.03 C 163.43 329.63 167.76 332.26 172.30 334.53 C 168.42 338.58 164.41 342.49 160.53 346.53 C 151.66 355.86 144.48 366.58 136.91 376.95 C 130.65 384.86 124.82 393.18 120.23 402.19 C 119.51 403.74 118.29 404.99 116.83 405.88 C 109.91 410.31 102.61 414.43 97.04 420.60 C 96.48 419.97 95.92 419.34 95.38 418.72 C 97.83 406.71 98.95 393.40 107.29 383.72 C 112.00 377.71 117.27 372.16 122.17 366.30 C 128.22 358.67 134.64 351.34 141.43 344.36 Z" />
<path fill="#f4722b" opacity="1.00" d=" M 264.10 332.78 C 268.85 334.91 273.18 337.90 278.10 339.66 C 292.28 345.12 306.44 350.74 320.98 355.18 C 326.88 357.61 332.37 360.92 338.16 363.61 C 344.65 366.91 351.51 369.37 358.32 371.91 C 358.31 372.66 358.30 374.16 358.30 374.92 C 359.44 376.63 360.69 378.33 361.37 380.30 C 365.94 394.31 370.64 408.30 374.45 422.54 C 375.55 423.31 376.66 424.10 377.76 424.89 C 376.85 420.26 376.46 415.53 375.28 410.95 C 373.09 404.09 371.51 397.01 370.53 389.88 C 370.16 387.20 374.62 387.72 375.05 389.88 C 379.13 398.00 381.76 406.74 384.89 415.25 C 387.00 420.89 391.11 425.52 395.32 429.70 C 396.60 431.28 399.76 430.22 399.35 428.08 C 397.51 420.29 394.38 412.88 391.44 405.45 C 394.26 405.91 397.14 406.93 400.02 406.31 C 401.81 405.74 402.50 403.20 401.21 401.85 C 397.21 397.64 391.95 395.01 387.16 391.86 C 384.74 390.30 383.71 387.48 382.36 385.08 C 388.39 387.55 394.49 390.72 401.14 390.79 C 404.12 391.10 405.91 387.22 404.01 385.09 C 401.27 383.45 397.80 383.60 395.02 381.99 C 387.52 377.25 382.12 369.26 373.44 366.45 C 368.64 364.80 363.43 366.02 359.26 368.69 C 359.31 367.38 359.39 366.07 359.38 364.77 C 365.76 362.55 372.37 360.97 378.58 358.31 C 381.97 356.87 383.62 353.19 386.91 351.62 C 394.43 353.98 400.33 359.79 405.48 365.54 C 414.48 375.78 422.29 386.99 429.40 398.60 C 432.14 403.11 435.02 407.70 436.06 412.97 C 437.11 418.29 437.90 423.67 438.57 429.06 C 439.29 433.59 435.98 437.21 434.01 440.94 C 429.70 449.24 422.91 455.82 416.37 462.36 C 404.20 475.17 389.60 485.33 374.74 494.75 C 372.58 496.03 370.46 497.44 368.06 498.23 C 364.01 498.05 360.50 495.75 357.01 493.94 C 340.46 484.65 321.76 479.17 306.71 467.30 C 300.35 462.26 292.62 459.49 285.83 455.16 C 277.57 450.01 269.06 445.28 260.77 440.19 C 253.75 436.03 247.71 430.45 240.67 426.34 C 233.31 421.79 226.27 416.76 219.04 412.01 C 215.93 409.72 212.41 407.90 209.79 405.02 C 210.51 397.68 211.71 390.36 212.50 383.00 C 214.93 386.98 217.14 391.10 219.47 395.14 C 223.17 393.56 225.86 390.48 228.68 387.73 C 234.65 381.87 239.58 375.11 244.15 368.14 C 252.07 357.14 258.92 345.32 264.10 332.78 Z" />
<path fill="#f5e5c1" opacity="1.00" d=" M 236.17 358.24 C 243.19 353.79 248.51 347.28 253.93 341.09 C 249.68 351.29 244.69 361.26 238.15 370.21 C 233.57 377.65 228.04 384.47 221.90 390.69 C 217.93 383.90 213.89 377.11 208.42 371.40 C 209.70 368.38 210.73 365.26 211.59 362.09 C 211.96 362.29 212.69 362.68 213.06 362.88 C 212.71 364.89 212.43 366.91 212.22 368.95 C 216.07 369.69 219.42 367.26 222.86 365.96 C 227.66 364.05 231.95 361.17 236.17 358.24 Z" />
<path fill="#f4722b" opacity="1.00" d=" M 378.02 391.90 C 379.87 392.88 381.36 394.36 382.31 396.23 C 380.15 395.64 378.93 393.80 378.02 391.90 Z" />
<path fill="#f4722b" opacity="1.00" d=" M 382.94 401.45 C 387.33 404.50 387.71 410.38 389.78 414.92 C 387.38 410.50 384.62 406.23 382.94 401.45 Z" />
</svg>
