<?xml version="1.0" encoding="UTF-8" standalone="no"?>
<svg
   xmlns:dc="http://purl.org/dc/elements/1.1/"
   xmlns:cc="http://creativecommons.org/ns#"
   xmlns:rdf="http://www.w3.org/1999/02/22-rdf-syntax-ns#"
   xmlns:svg="http://www.w3.org/2000/svg"
   xmlns="http://www.w3.org/2000/svg"
   xmlns:sodipodi="http://sodipodi.sourceforge.net/DTD/sodipodi-0.dtd"
   xmlns:inkscape="http://www.inkscape.org/namespaces/inkscape"
   width="1280"
   height="1280"
   viewBox="0 0 1024 1024"
   version="1.1"
   id="svg2"
   inkscape:version="0.48.1 "
   sodipodi:docname="backstab_medic_healing_you.svg">
  <metadata
     id="metadata86">
    <rdf:RDF>
      <cc:Work
         rdf:about="">
        <dc:format>image/svg+xml</dc:format>
        <dc:type
           rdf:resource="http://purl.org/dc/dcmitype/StillImage" />
      </cc:Work>
    </rdf:RDF>
  </metadata>
  <defs
     id="defs84" />
  <sodipodi:namedview
     pagecolor="#ffffff"
     bordercolor="#666666"
     borderopacity="1"
     objecttolerance="10"
     gridtolerance="10"
     guidetolerance="10"
     inkscape:pageopacity="0"
     inkscape:pageshadow="2"
     inkscape:window-width="1920"
     inkscape:window-height="1018"
     id="namedview82"
     showgrid="false"
     inkscape:snap-page="true"
     inkscape:object-nodes="true"
     fit-margin-top="0"
     fit-margin-left="0"
     fit-margin-right="0"
     fit-margin-bottom="0"
     inkscape:zoom="0.48125"
     inkscape:cx="-179.11466"
     inkscape:cy="705.70957"
     inkscape:window-x="-8"
     inkscape:window-y="-8"
     inkscape:window-maximized="1"
     inkscape:current-layer="svg2" />
  <rect
     style="fill:#3e3e3e;fill-opacity:1;fill-rule:nonzero;stroke:none"
     id="rect3078"
     width="1024"
     height="1024"
     x="0"
     y="0" />
  <path
     d="m 28.4,0 4.64,0 C 34.58,6.66 35.42,13.44 35.9,20.26 33.16,13.6 31.08,6.68 28.4,0 z"
     id="path6"
     inkscape:connector-curvature="0"
     style="fill:#f3722c" />
  <path
     style="fill:#f4722b"
     d="m 36.7,0 c 2.96,11.92 5.2,24.04 9.4,35.6 4.28,12 7.58,24.54 6.9,37.4 C 50.64,54.7 41.64,38.38 37.7,20.5 29.26,25.54 20.84,30.76 13.9,37.8 c 1.98,21.92 3.61,43.86 5.35,65.8 1.08,14.1 7.22,27.02 11,40.5 2.7,7.9 3.84,17.4 11.3,22.5 12.94,10.2 26.38,20.04 37.4,32.4 2.42,2.46 3.46,5.8 4.1,9.1 8.02,47.98 15.46,96.05 23.9,143.95 -3.64,4.9 -6.78,10.18 -9,15.9 -7.46,19 -15.1,37.94 -22.7,56.9 C 50.17,431.83 24.94,438.46 0,445.9 l 0,578.1 87.3,0 188.6,0 89.8,0 128.2,0 38.1,0 134.6,0 298.1,0 c -8.02,-25.8 -15.08,-51.91 -22.6,-77.85 21.34,25.9 42.22,52.15 63.8,77.85 l 18.1,0 0,-580.25 C 1009.5,422.37 994.63,401.24 979.95,380 823.31,368 666.69,356.04 510.05,344 c -2.02,-5.34 -4.03,-10.66 -6.05,-16 -6,0.68 -12,1.35 -18,2.05 -5.6,-4.44 -10.9,-9.22 -16.7,-13.4 -5.48,-4.14 -12.81,-3.41 -19.25,-4.25 -6.82,-8.72 -13.5,-17.57 -20.1,-26.45 -6.1,0.04 -12.15,0.07 -18.25,0.15 -1.02,-4 -0.82,-8.13 -0.2,-12.15 1.86,-13.18 3.01,-26.45 5.85,-39.45 -6.42,7.5 -13.71,14.25 -20.05,21.85 -16.3,3.28 -32.42,7.25 -48.3,12.15 -13.64,4.2 -28.03,5.54 -41.55,10.2 -19.06,6.98 -39.8,6.2 -59.7,4.5 -13.14,-1.1 -26.76,-0.06 -39.4,-4.5 -8.66,-2.98 -17.91,-4.03 -26.35,-7.75 13.86,1.96 27.48,5.29 41.3,7.45 11.76,1.1 23.58,1.08 35.3,2.8 12.36,1.88 24.97,1.22 37.25,-1 8.86,-1.88 17.29,-5.38 26.15,-7.3 21.5,-4.62 42.38,-11.7 64,-15.8 11.88,-0.94 18.37,-12.03 24.75,-20.65 9.6,-13.12 6.61,-30.22 10.85,-45.1 7.78,-29.64 12.36,-60.07 21.1,-89.45 -1.4,30.38 -6.06,60.44 -10.4,90.5 9.86,-6.94 20.46,-12.84 30.1,-20.1 4.52,-3.02 5.56,-8.63 7.1,-13.45 3.1,-11.38 6.48,-22.67 9.9,-33.95 4.32,-13.92 3.9,-28.63 5.7,-42.95 2.4,-15.72 -4.18,-30.72 -7.1,-45.9 -5.34,-2.02 -10.66,-4.03 -16,-6.05 1.72,-10 3.12,-20.08 5.2,-30 L 36.7,0 z"
     id="path8"
     inkscape:connector-curvature="0" />
  <path
     d="m 200.05,40 c -19.06,12.86 -39.38,23.66 -59.6,34.6 -4.04,11.78 -8.17,23.54 -12.35,35.3 -1.98,5.16 -2.35,10.72 -2.45,16.2 -0.34,20.64 -0.98,41.28 -1.5,61.9 -0.24,8.18 2.03,16.07 3.85,23.95 9.68,7.54 18.92,15.71 28.9,22.85 7.46,3.14 16.6,4.24 24,0.3 12.02,-5.52 24.21,-10.7 36.25,-16.2 8.9,-4.34 19,-3.61 28.6,-4.55 10.02,-0.46 20.01,-2.28 30.05,-1.9 19.96,5.4 37.28,17.45 56.3,25.05 8.64,-0.34 17.38,-1.66 25.7,-4 8.8,-5.5 15.98,-13.2 24.2,-19.5 -0.64,-28.68 -1.27,-57.34 -1.85,-86 0.08,-6.24 -2.36,-12.02 -4.6,-17.7 L 368.4,90 C 361.26,80.7 350.01,76.17 340.85,69.25 326.55,58.73 310.46,50.94 294,44.5 276.62,43.56 259.18,47.28 241.8,45.1 227.88,43.34 213.99,41.7 200.05,40 z"
     id="path12"
     style="fill:#3e3e3e"
     inkscape:connector-curvature="0" />
  <path
     d="m 368.4,89.98 c 27.2,-10.62 54.38,-21.3 81.58,-31.96 3.36,6.64 6.7,13.3 10,19.98 -28.12,10.8 -56.28,21.52 -84.42,32.3 -17.18,6.58 -34.36,13.14 -51.54,19.72 -8.24,-4.1 -16.5,-8.18 -24.66,-12.46 22.66,-10.04 46.06,-18.28 69.04,-27.58 z"
     id="path14"
     inkscape:connector-curvature="0"
     style="fill:#f5e5c1" />
  <path
     d="m 207.82,113.64 c 4.64,-1.26 9.24,-2.7 13.84,-4.16 10.36,1.22 20.82,1.62 31.12,3.5 -9.66,0.5 -19.26,1.9 -28.94,1.36 -5.52,-0.32 -10.7,1.88 -15.9,3.3 -15.2,5.48 -26.96,17.12 -41.28,24.32 0.04,-1.4 0.1,-4.16 0.14,-5.56 11.68,-10.66 26.64,-16.64 41.02,-22.76 z"
     id="path16"
     inkscape:connector-curvature="0"
     style="fill:#f5e5c1" />
  <path
     d="m 260.94,115.36 c 12.24,-2.32 25.22,-4.06 37.18,0.58 -4.96,7.32 -12.94,0.66 -18.92,-1.42 -6.08,0.56 -12.16,1.04 -18.26,0.84 z"
     id="path18"
     inkscape:connector-curvature="0"
     style="fill:#f5e5c1" />
  <path
     d="m 329.56,129.94 c 8.22,-0.42 11.24,7.54 14.4,13.48 -7.8,1.18 -11.78,-7.66 -14.4,-13.48 z"
     id="path20"
     inkscape:connector-curvature="0"
     style="fill:#f5e5c1" />
  <path
     d="m 411.68,286.12 c 6.1,-0.08 12.18,-0.12 18.28,-0.16 6.6,8.88 13.26,17.72 20.08,26.44 6.12,7.96 7.12,18.98 2.94,28.04 -6.26,14.7 -10.28,30.38 -17.94,44.44 -16,25.98 -32.02,51.94 -48,77.94 -5.6,9.16 -11.68,18.08 -16.12,27.9 -14.72,32.66 -29.56,65.28 -44.32,97.92 -4.56,10.14 -9.64,20.1 -12.96,30.74 -10.38,32.98 -20.72,65.98 -31.3,98.9 -3.28,10.22 -2.86,21.08 -3.32,31.68 -2.54,64 -5.16,128 -7.72,192 -0.16,9.72 -0.9,19.42 -2.14,29.06 -15.54,-60.38 -31.32,-120.7 -46.96,-181.06 -2.48,-10.02 -5.84,-19.9 -6.7,-30.24 -4.46,-59.88 -8.98,-119.78 -13.52,-179.66 12.66,-18.06 25.36,-36.04 38.04,-54.08 -2.3,-10.12 -4.64,-20.22 -6.5,-30.42 6.62,5.68 12.58,12.1 17.74,19.16 9.38,12.62 20.36,24.02 29.06,37.18 8.92,13.48 18.24,26.7 27.54,39.94 -15.48,-25.96 -32.74,-50.8 -51.06,-74.82 -7.5,-11.56 -18.44,-20.1 -28.14,-29.7 -8.16,-7.9 -18.5,-12.96 -28.44,-18.24 5.24,-4.52 11.02,-8.36 16.96,-11.9 46.4,-28.38 91.34,-58.96 135.9,-90.1 23.76,-18.24 47.3,-36.76 70.98,-55.12 -3.88,-8.72 -8.04,-17.32 -12.38,-25.84 z"
     id="path22"
     inkscape:connector-curvature="0"
     style="fill:#f5e5c1" />
  <path
     d="m 97.96,367.94 c 2.22,-5.72 5.36,-11 9,-15.9 3.06,12.5 6.22,25.08 6.94,37.96 0.58,16.68 -0.38,33.38 0.18,50.04 -0.1,4.72 3.2,8.38 5.76,12 6.12,7.94 12.26,15.9 18.12,24.04 -5.42,3.06 -11.94,5.42 -15,11.28 -5.72,10.1 -14.12,18.74 -17.68,29.98 -10.72,28.78 -26.92,55.26 -35.48,84.84 -4.92,16.6 -13.36,32.84 -12.82,50.5 4.56,-10.46 7.18,-21.62 11.12,-32.3 10.92,-30.18 23.1,-60 38.1,-88.42 7.6,15.16 11.04,31.86 16.14,47.92 1.74,4.7 1.02,9.72 -0.26,14.44 -10.26,40.44 -19.94,81.04 -30.14,121.52 -1.88,7.24 -2.34,14.74 -2.58,22.18 -2.78,75.04 -6.6,150.04 -9.04,225.08 C 74.88,945.62 71.02,927.74 66.38,910.06 55.16,865.64 44,821.2 32.72,776.78 c -2.94,-12.02 -7.46,-24 -6.46,-36.6 4.62,-58.06 9.12,-116.12 13.72,-174.2 0.94,-11.32 1.08,-22.8 4.02,-33.84 6.72,-25.42 13.34,-50.86 19.92,-76.32 2.76,-10.68 7.28,-20.76 11.32,-30.96 7.6,-18.96 15.26,-37.92 22.72,-56.92 z"
     id="path26"
     inkscape:connector-curvature="0"
     style="fill:#f5e5c1" />
  <path
     d="m 155.86,476.84 c 14.8,-2.56 29.68,-4.62 44.36,-7.76 9.94,5.28 20.28,10.34 28.44,18.24 9.7,9.6 20.64,18.14 28.14,29.7 18.32,24.02 35.58,48.86 51.06,74.82 -9.3,-13.24 -18.62,-26.46 -27.54,-39.94 -8.7,-13.16 -19.68,-24.56 -29.06,-37.18 -5.16,-7.06 -11.12,-13.48 -17.74,-19.16 1.86,10.2 4.2,20.3 6.5,30.42 -12.68,18.04 -25.38,36.02 -38.04,54.08 4.54,59.88 9.06,119.78 13.52,179.66 0.86,10.34 4.22,20.22 6.7,30.24 15.64,60.36 31.42,120.68 46.96,181.06 0,0.34 0,1 0,1.34 0,0 6.19456,44.3223 6.72,51.64 l -188.56,0 c -2.3,-20.3 -3.9,-40.7 -7,-60.9 2.44,-75.04 6.26,-150.04 9.04,-225.08 0.24,-7.44 0.7,-14.94 2.58,-22.18 10.2,-40.48 19.88,-81.08 30.14,-121.52 1.28,-4.72 2,-9.74 0.26,-14.44 -5.1,-16.06 -8.54,-32.76 -16.14,-47.92 -15,28.42 -27.18,58.24 -38.1,88.42 -3.94,10.68 -6.56,21.84 -11.12,32.3 -0.54,-17.66 7.9,-33.9 12.82,-50.5 8.56,-29.58 24.76,-56.06 35.48,-84.84 3.56,-11.24 11.96,-19.88 17.68,-29.98 3.06,-5.86 9.58,-8.22 15,-11.28 5.9,1 11.94,1.82 17.9,0.76 z"
     id="path30"
     inkscape:connector-curvature="0"
     style="fill:#3e3e3e"
     sodipodi:nodetypes="ccccccccccccccccccccccccccccc" />
  <path
     style="fill:#f5e5c1"
     d="M 1162.4688 700.03125 C 1014.2438 718.03125 866.03125 736.03125 717.78125 754.03125 C 631.80625 764.75625 545.6875 774.3375 459.8125 785.8125 C 461.1375 789.8375 462.475 793.8125 463.875 797.8125 C 520 949.4125 576.3 1100.9562 632.5 1252.5312 C 822.25 1195.0062 1012 1137.55 1201.75 1080 C 1204.475 1079.15 1207.225 1078.325 1210 1077.5 C 1202.55 1018.35 1195.1375 959.18125 1187.6875 900.03125 C 1186.3531 889.20312 1184.4757 878.37583 1184.0625 867.46875 C 1184.0035 865.9106 1183.9625 864.375 1183.9688 862.8125 L 1182.6875 858.6875 C 1175.5125 805.8625 1169.3438 752.88125 1162.4688 700.03125 z "
     transform="scale(0.8,0.8)"
     id="path32" />
  <path
     style="fill:#f4722b"
     d="M 1133.0312 727.3125 C 933.8565 754.4625 734.575 781.09375 535.375 808.09375 C 523.85 809.61875 512.46875 812.11875 501.21875 814.96875 C 521.06875 872.34375 541.93125 929.4125 561.65625 986.8125 L 583.9375 1049.6562 C 592.5875 1072.7314 600.34375 1096.1375 608.71875 1119.3125 L 623.6875 1161.4688 C 630.6875 1181.5186 637.71875 1201.5875 644.96875 1221.5625 L 651.28125 1224.4375 C 764.75625 1191.0875 878.2125 1157.7625 991.6875 1124.4375 C 1023.5375 1115.4625 1055 1104.975 1087.125 1097 L 1146.0625 1078.9062 C 1156.3625 1075.8315 1166.9814 1073.7 1177.1562 1070.125 C 1171.1315 1016.475 1163.8315 962.86875 1157.2812 909.21875 L 1148.6875 841.25 C 1145.2875 810.725 1141.0067 780.3125 1137.5312 749.8125 C 1136.6317 742.2125 1134.9062 734.7125 1133.0312 727.3125 z M 1138.875 821.4375 C 1139.7 829.0625 1140.6816 836.7375 1140.7812 844.4375 L 1151.1875 919.6875 C 1156.7375 968.0125 1163.3 1016.2065 1169 1064.5312 C 1160.8 1066.9062 1152.6125 1069.2875 1144.4375 1071.6875 L 1084.9375 1089.1875 C 940.3125 1131.5875 795.75625 1174.1816 651.15625 1216.6562 C 644.35625 1199.0566 639.35625 1180.7875 631.65625 1163.5625 L 612.40625 1104.625 C 605.25625 1089.5 600.71875 1073.3438 594.84375 1057.7188 L 565.71875 975.59375 C 563.26875 968.46875 560.79375 961.38125 558.34375 954.28125 C 567.44375 952.20625 576.6625 950.4375 585.5625 947.5625 L 709.96875 917.9375 C 723.09375 917.5875 735.7375 913.63125 748.4375 910.65625 L 853.9375 886.21875 C 949.0625 865.39375 1043.85 842.8625 1138.875 821.4375 z "
     id="path34"
     transform="scale(0.8,0.8)" />
  <path
     style="fill:#f5e5c1"
     d="M 1092.5625 741.125 C 1087.5125 741.65 1082.4625 742.2 1077.4375 742.75 C 1072.8375 767.5 1065.9562 791.8 1062.5312 816.75 C 1068.5312 817.3 1074.5375 817.825 1080.5625 818.375 C 1081.8125 810.775 1083.0625 803.23125 1084.3125 795.65625 C 1092.0375 794.38125 1099.7875 793.35625 1107.5625 792.53125 C 1111.2125 798.50625 1114.8062 804.475 1118.4062 810.5 C 1122.9812 808.15 1127.5563 805.7875 1132.1562 803.4375 C 1118.6813 782.8375 1105.6875 761.925 1092.5625 741.125 z M 1089.4375 764.71875 C 1093.5125 770.99375 1097.5875 777.2375 1101.8125 783.4375 C 1096.4375 784.5125 1091.0375 785.60625 1085.6875 786.65625 C 1086.8125 779.33125 1088.1125 771.99375 1089.4375 764.71875 z "
     transform="scale(0.8,0.8)"
     id="path36" />
  <path
     d="m 798.44,606.72 c 3.68,-0.86 7.38,-1.68 11.08,-2.5 3.8,18.7 6.44,37.64 10.58,56.28 -4.52,0.84 -9.02,1.74 -13.5,2.68 -1.8,-9.88 -3.44,-19.8 -4.74,-29.74 -3.98,11.04 -5.86,22.66 -8.44,34.06 -2.16,-0.04 -4.28,-0.08 -6.4,-0.1 -5.54,-8.28 -10.88,-16.72 -17,-24.58 1.3,9.08 3.36,18.02 5.34,26.96 -5.04,0.9 -10.14,1.54 -15.22,2.22 -3.86,-19.58 -7.28,-39.24 -10.7,-58.9 4.26,-0.68 8.5,-1.42 12.76,-2.14 8.72,13.3 17.62,26.48 26.46,39.68 3.52,-14.58 6.66,-29.26 9.78,-43.92 z"
     id="path38"
     inkscape:connector-curvature="0"
     style="fill:#f5e5c1" />
  <path
     d="m 733.58,616.3 c 2.06,-3.84 5.16,-7.78 10.04,-5.62 7.2,5.46 2.12,18.48 -6.56,18.52 0.9,-2.06 1.82,-4.1 2.76,-6.14 -1.88,-1.58 -3.72,-3.14 -5.56,-4.7 1.28,19.38 4.48,38.58 7,57.84 -5.54,0.56 -11.06,1.18 -16.56,1.82 -2.66,-19.94 -5.16,-39.9 -7.56,-59.88 5.48,-0.52 10.96,-1.12 16.44,-1.84 z"
     id="path40"
     inkscape:connector-curvature="0"
     style="fill:#f5e5c1" />
  <path
     style="fill:#f5e5c1"
     d="M 817.4375 785.0625 C 814.43462 785.10195 811.4 785.5 808.40625 786.34375 C 790.90625 790.09375 777.125 807.075 778.125 825.125 C 778.175 843.025 792.125 859.73125 809.875 862.53125 C 832.425 866.90625 857.76875 848.8125 856.96875 824.9375 C 858.25937 803.10625 838.45767 784.78633 817.4375 785.0625 z M 817.96875 805.375 C 827.97924 805.13315 838.25625 811.60156 839.71875 822.0625 C 843.04375 835.3375 830.5125 848.1625 817.4375 847.5625 C 804.6375 848.0875 794.01875 834.93125 796.46875 822.53125 C 797.76875 814.93125 804.1125 809.08125 811.1875 806.65625 C 813.35781 805.85469 815.65864 805.43081 817.96875 805.375 z "
     transform="scale(0.8,0.8)"
     id="path44" />
  <path
     d="m 362.06,642.08 c 3,-1.28 6.02,-2.54 9.04,-3.82 C 416,759.54 461.04,880.76 506,1002.02 657.8,956 809.6,910.04 961.4,864 c 0.16,2.68 0.34,5.34 0.52,8.02 C 818.62,922.7 675.3,973.32 532.02,1024 l -38.14,0 C 449.92,896.7 405.96,769.4 362.06,642.08 z"
     id="path46"
     inkscape:connector-curvature="0"
     style="fill:#3e3e3e" />
  <path
     d="m 586.3,640.74 c 5.34,-1.2 10.68,-2.42 16.02,-3.64 3.08,16.12 7.1,32.06 9.64,48.28 6.26,-1.22 12.5,-2.48 18.8,-3.52 0.3,3.48 0.62,6.98 0.92,10.48 -10.98,2.04 -21.88,4.42 -32.76,6.94 -4.38,-19.46 -8.32,-39.04 -12.62,-58.54 z"
     id="path48"
     inkscape:connector-curvature="0"
     style="fill:#f5e5c1" />
  <path
     d="m 548.48,647.1 c 5.4,-1.1 10.84,-2.18 16.28,-3.12 3.26,15.36 6.34,30.76 9.44,46.14 0.42,0.38 1.26,1.14 1.68,1.54 5.62,-0.72 11,-2.58 16.46,-4 0.8,3.54 1.6,7.06 2.44,10.62 -11.2,2.54 -22.42,5.1 -33.68,7.52 -4.34,-19.54 -7.94,-39.24 -12.62,-58.7 z"
     id="path50"
     inkscape:connector-curvature="0"
     style="fill:#f5e5c1" />
  <path
     d="m 497.8,655.54 c 15.94,-3.06 31.98,-5.46 47.94,-8.42 0.9,4.58 1.78,9.16 2.7,13.76 -10.9,2.26 -21.88,4 -32.82,5.9 1.1,6.6 2.34,13.16 3.68,19.72 5.78,-1.1 11.58,-2.18 17.36,-3.3 0.82,2.56 1.66,5.14 2.5,7.72 -6.1,1.26 -12.22,2.42 -18.36,3.48 0.2,1.58 0.6,4.74 0.78,6.34 9.02,-1.66 18,-3.48 26.92,-5.58 0.8,3.78 1.64,7.56 2.48,11.34 -14.14,2.56 -28.2,5.58 -42.4,7.8 -3.78,-19.56 -6.78,-39.24 -10.78,-58.76 z"
     id="path54"
     inkscape:connector-curvature="0"
     style="fill:#f5e5c1" />
  <path
     d="m 479.36,659.16 c 4.68,-1 9.38,-2 14.08,-2.94 4.02,19.04 7.24,38.24 11.48,57.24 -4.54,1.2 -9.1,2.4 -13.64,3.66 -1.16,-5.6 -2.3,-11.2 -3.3,-16.84 -9.34,1.34 -18.58,3.2 -27.84,4.94 0.6,5.7 1.36,11.4 2.22,17.08 -5.74,1.02 -11.5,2.04 -17.26,3.06 -3.7,-19.28 -6.38,-38.72 -9.9,-58.04 5.88,-0.98 11.74,-1.98 17.62,-2.94 1.84,10.34 3.68,20.68 4.88,31.1 9.36,-1.4 18.62,-3.44 27.96,-5.1 -1.72,-10.48 -3.92,-20.88 -6.3,-31.22 z"
     id="path56"
     inkscape:connector-curvature="0"
     style="fill:#f5e5c1" />
  <path
     d="m 683.16,708.98 c 76.1,-16.66 151.92,-34.68 227.94,-51.82 0.66,6.1 1.44,12.22 1.52,18.38 -13.84,25.62 -27.86,51.16 -41.6,76.84 -27.24,-21.02 -54.4,-42.1 -81.56,-63.22 -10.22,11.84 -20.4,23.72 -30.34,35.8 25.98,18.68 52.04,37.26 78.08,55.88 5.34,4.06 12.9,7.24 13.56,14.88 5.66,25.22 11.5,50.42 17.2,75.64 -115.7,33.92 -231.36,67.98 -347.04,101.96 -5.44,-14.08 -9.44,-28.7 -15.6,-42.48 17.7,3.98 36.88,5.24 54.1,-1.48 11.84,-4.46 22.18,-14.2 25.2,-26.78 3.32,-16.1 -1.9,-33.94 -14.2,-45.04 -16.16,-15.42 -39.74,-18.88 -56.7,-33.06 -8.38,-6.76 -13.48,-18.32 -9.98,-28.94 2.98,-9.48 12.88,-14.76 22.28,-15.6 18.06,-2.08 35.9,4.66 50.9,14.28 6.3,-16.68 12.8,-33.28 19.1,-49.96 -8.94,-4.34 -18.22,-8.14 -28.04,-9.92 10.5,-0.28 20.6,-3.44 30.76,-5.82 12.16,62.78 24.26,125.56 36.52,188.32 16.78,-3.72 33.54,-7.56 50.38,-11.1 -4.1,-24.58 -8.28,-49.16 -12.22,-73.76 20.68,-3.5 41.8,-7.76 60.18,-18.36 15.4,-8.6 27.08,-25.5 26.2,-43.58 -0.58,-9.72 -1.68,-19.6 -5.34,-28.68 -7.6,-17.7 -25.56,-30.1 -44.6,-31.88 -8.88,-0.86 -17.82,-0.52 -26.7,-0.5 z"
     id="path58"
     inkscape:connector-curvature="0"
     style="fill:#f5e5c1" />
  <path
     d="m 915.06,671.4 c 0.98,0.4 2.92,1.2 3.88,1.6 9.14,4.48 18.2,9.16 27.2,13.94 0.46,0.34 1.38,1 1.84,1.34 l -0.8,1.96 c -6.6,12.68 -14.36,24.7 -21.36,37.14 -1.64,2.78 -3.26,5.56 -4.88,8.36 -7.8,13.52 -15.7,26.98 -23.58,40.46 6.1,27.04 12.12,54.1 18.2,81.14 0.42,1.92 0.86,3.84 1.3,5.78 0.4,1.86 0.82,3.72 1.26,5.6 -15.94,3.6 -31.9,7.02 -47.78,10.76 l -0.64,-1.88 c -0.44,-1.56 -1.3,-4.68 -1.74,-6.24 -5.7,-25.22 -11.54,-50.42 -17.2,-75.64 -0.66,-7.64 -8.22,-10.82 -13.56,-14.88 -26.04,-18.62 -52.1,-37.2 -78.08,-55.88 9.94,-12.08 20.12,-23.96 30.34,-35.8 27.16,21.12 54.32,42.2 81.56,63.22 13.74,-25.68 27.76,-51.22 41.6,-76.84 0.6,-1.04 1.84,-3.1 2.44,-4.14 z"
     id="path60"
     inkscape:connector-curvature="0"
     style="fill:#3e3e3e" />
  <path
     style="fill:#3e3e3e"
     d="M 870.625 886.125 C 865.05625 886.1 859.4875 886.20625 853.9375 886.21875 C 817.6875 887.74375 782.80625 898.3375 747.40625 905.3125 C 747.65625 906.6375 748.1875 909.33125 748.4375 910.65625 C 763.6375 989.13125 778.7375 1067.6125 794.0625 1146.0625 C 815.0375 1141.4125 836.0125 1136.6125 857.0625 1132.1875 C 851.9375 1101.4625 846.70625 1070.7188 841.78125 1039.9688 C 867.63125 1035.5938 894.025 1030.2812 917 1017.0312 C 936.25 1006.2812 950.85 985.1625 949.75 962.5625 C 949.025 950.4125 947.6375 938.0375 943.0625 926.6875 C 933.5625 904.5625 911.1125 889.06875 887.3125 886.84375 C 881.7625 886.30625 876.19375 886.15 870.625 886.125 z M 857.28125 939.34375 C 862.61813 939.41199 867.92969 940.07812 873.15625 941.6875 C 892.48125 947.1375 901.1 976.2375 885 989.6875 C 870.925 1001.6625 851.3625 1003.0437 833.8125 1005.4688 C 829.8625 985.14375 826.175 964.7625 822.25 944.4375 C 833.6625 941.99687 845.54011 939.19363 857.28125 939.34375 z "
     transform="scale(0.8,0.8)"
     id="path62" />
  <path
     d="m 508.8,737.18 c 19.34,-4.36 39.52,-6.22 59.18,-2.84 9.82,1.78 19.1,5.58 28.04,9.92 -6.3,16.68 -12.8,33.28 -19.1,49.96 -15,-9.62 -32.84,-16.36 -50.9,-14.28 -9.4,0.84 -19.3,6.12 -22.28,15.6 -3.5,10.62 1.6,22.18 9.98,28.94 16.96,14.18 40.54,17.64 56.7,33.06 12.3,11.1 17.52,28.94 14.2,45.04 -3.02,12.58 -13.36,22.32 -25.2,26.78 -17.22,6.72 -36.4,5.46 -54.1,1.48 -1.58,-0.42 -4.76,-1.26 -6.36,-1.66 -7.16,-1.98 -14.14,-4.58 -21.06,-7.3 2.96,-8.84 6.18,-17.58 9.08,-26.44 1.24,-3.84 2.28,-7.76 2.94,-11.74 11.44,5.8 22.92,13.18 36.08,13.84 6.54,0.36 14.84,-2.42 16.54,-9.48 -1.12,-6.58 -7.46,-10.42 -12.62,-13.78 -17.58,-10.16 -37.34,-16.34 -54.04,-28.1 -3,-2.06 -5.92,-4.22 -8.74,-6.46 -13.62,-12.72 -21.24,-31.66 -17.82,-50.28 0.98,-3.04 2.04,-6.02 3.26,-8.96 3.66,-8.48 9.32,-15.96 15.86,-22.44 11.72,-9.8 25.44,-17.3 40.36,-20.86 z"
     id="path66"
     inkscape:connector-curvature="0"
     style="fill:#3e3e3e" />
  <path
     d="m 897.36,776.2 c 7.88,-13.48 15.78,-26.94 23.58,-40.46 4.44,38.66 9.7,77.22 14.26,115.88 -6.56,1.9 -13.1,3.8 -19.64,5.72 -6.08,-27.04 -12.1,-54.1 -18.2,-81.14 z"
     id="path68"
     inkscape:connector-curvature="0"
     style="fill:#f5e5c1" />
  <path
     d="m 446.68,763.42 c 7.28,-1.66 14.64,-3.08 21.76,-5.38 -6.54,6.48 -12.2,13.96 -15.86,22.44 -1.96,-5.7 -3.94,-11.38 -5.9,-17.06 z"
     id="path72"
     inkscape:connector-curvature="0"
     style="fill:#f5e5c1" />
</svg>
