<?xml version="1.0" encoding="UTF-8" ?>
<!DOCTYPE svg PUBLIC "-//W3C//DTD SVG 1.1//EN" "http://www.w3.org/Graphics/SVG/1.1/DTD/svg11.dtd">
<svg width="512pt" height="512pt" viewBox="0 0 512 512" version="1.1" xmlns="http://www.w3.org/2000/svg">
<path fill="#3e3e3e" opacity="1.00" d=" M 0.00 0.00 L 512.00 0.00 L 512.00 512.00 L 0.00 512.00 L 0.00 0.00 Z" />
<path fill="#f4722b" opacity="1.00" d=" M 228.15 32.00 C 236.05 32.00 243.96 31.99 251.86 32.01 C 251.85 35.30 251.85 38.58 251.85 41.87 C 251.85 48.44 251.85 55.01 251.84 61.58 C 251.75 115.06 251.69 168.53 251.74 222.01 C 251.47 237.45 251.99 252.90 251.55 268.34 C 250.19 269.91 249.11 271.89 247.26 272.92 C 243.36 273.54 239.38 273.10 235.45 273.23 C 234.02 266.63 234.75 259.82 233.66 253.17 C 231.95 220.48 229.25 187.84 227.29 155.16 C 226.81 145.43 225.71 135.74 225.59 126.00 C 224.47 105.96 222.63 85.94 221.93 65.89 C 222.71 56.76 222.35 47.58 222.24 38.43 L 222.23 37.88 C 224.18 35.90 226.16 33.95 228.15 32.00 Z" />
<path fill="#f4722b" opacity="1.00" d=" M 255.13 32.01 C 263.04 32.00 270.94 31.98 278.84 32.02 C 281.19 34.33 283.58 36.61 286.02 38.84 C 285.77 43.17 285.58 47.50 285.01 51.80 C 284.23 57.54 284.84 63.37 284.03 69.11 C 283.18 74.71 283.79 80.41 282.99 86.02 C 282.09 92.29 282.71 98.68 281.72 104.95 C 280.61 125.64 278.73 146.31 277.93 167.03 C 276.36 189.70 275.34 212.40 273.57 235.04 C 273.34 247.61 271.38 260.09 271.38 272.67 C 267.23 272.72 263.07 273.07 258.94 272.63 C 256.74 271.70 254.76 269.59 255.15 267.03 C 255.15 198.55 255.14 130.07 255.16 61.58 C 255.15 55.01 255.14 48.44 255.15 41.86 C 255.15 38.58 255.14 35.30 255.13 32.01 Z" />
<path fill="#3e3e3e" opacity="1.00" d=" M 234.14 37.96 C 240.31 35.61 247.49 41.54 246.37 48.04 C 245.68 54.71 236.93 58.42 231.65 54.29 C 225.66 50.29 227.22 40.04 234.14 37.96 Z" />
<path fill="#f5e5c1" opacity="1.00" d=" M 214.97 49.01 C 214.21 44.03 219.36 41.54 222.24 38.43 C 222.35 47.58 222.71 56.76 221.93 65.89 C 219.66 63.61 217.14 61.49 215.36 58.78 C 214.65 55.59 215.05 52.26 214.97 49.01 Z" />
<path fill="#f5e5c1" opacity="1.00" d=" M 231.14 43.14 C 232.52 40.55 235.62 40.03 238.18 39.28 C 236.41 43.53 233.80 47.35 231.30 51.19 C 230.34 48.63 229.59 45.63 231.14 43.14 Z" />
<path fill="#3e3e3e" opacity="1.00" d=" M 265.33 39.52 C 269.76 36.61 276.34 40.68 275.85 45.92 C 275.95 51.35 268.90 54.92 264.63 51.48 C 260.41 48.71 260.83 41.79 265.33 39.52 Z" />
<path fill="#f5e5c1" opacity="1.00" d=" M 265.84 41.48 C 267.74 41.40 269.64 41.36 271.54 41.34 C 272.74 43.20 273.66 45.22 274.09 47.40 C 271.08 45.81 268.36 43.75 265.84 41.48 Z" />
<path fill="#f5e5c1" opacity="1.00" d=" M 242.36 41.67 C 243.95 44.25 245.45 47.62 243.32 50.38 C 241.85 53.63 238.10 54.03 234.97 53.70 C 237.42 49.68 239.94 45.71 242.36 41.67 Z" />
<path fill="#f5e5c1" opacity="1.00" d=" M 251.85 41.87 C 252.68 41.87 254.33 41.87 255.15 41.86 C 255.14 48.44 255.15 55.01 255.16 61.58 C 254.33 61.58 252.67 61.58 251.84 61.58 C 251.85 55.01 251.85 48.44 251.85 41.87 Z" />
<path fill="#f5e5c1" opacity="1.00" d=" M 263.49 44.57 C 266.52 46.12 269.36 48.10 271.55 50.73 C 269.87 50.66 268.16 50.77 266.51 50.40 C 264.31 49.30 264.08 46.66 263.49 44.57 Z" />
<path fill="#f5e5c1" opacity="1.00" d=" M 442.75 106.48 C 446.17 106.54 449.59 106.50 453.02 106.63 C 447.02 113.46 440.51 119.87 433.72 125.92 C 433.56 122.24 433.67 118.54 434.31 114.91 C 437.22 112.20 440.02 109.37 442.75 106.48 Z" />
<path fill="#f4722b" opacity="1.00" d=" M 453.16 106.47 C 456.24 106.35 459.32 106.37 462.41 106.44 C 467.74 112.16 473.51 117.44 478.83 123.16 C 476.56 125.37 474.32 127.61 472.09 129.86 C 467.37 134.56 462.68 139.28 457.97 143.99 C 411.26 190.63 364.52 237.24 317.91 283.97 C 314.63 287.14 310.88 291.26 305.82 290.39 C 302.78 287.65 298.81 284.99 297.28 281.18 C 300.76 276.12 305.51 272.07 309.17 267.13 C 323.51 251.11 337.69 234.93 351.68 218.59 C 363.97 204.59 376.35 190.68 388.50 176.57 C 404.03 160.10 418.19 142.38 433.72 125.92 C 440.51 119.87 447.02 113.46 453.02 106.63 L 453.16 106.47 Z" />
<path fill="#f4722b" opacity="1.00" d=" M 41.70 112.71 C 45.04 108.37 51.25 110.08 55.92 110.35 C 66.73 122.65 78.01 134.56 88.56 147.11 C 106.46 166.69 123.29 187.26 141.43 206.63 C 151.21 218.43 161.84 229.48 171.64 241.25 C 177.01 246.62 181.56 252.71 186.71 258.28 C 192.81 264.87 198.43 271.90 204.47 278.55 C 206.30 280.63 208.57 282.45 209.75 285.02 C 207.89 287.69 205.35 289.80 203.07 292.10 C 200.84 294.78 196.36 294.42 194.28 291.73 C 146.11 243.45 97.79 195.30 49.63 147.00 C 44.91 142.44 40.36 137.72 35.70 133.10 C 33.20 130.78 30.85 128.32 28.70 125.68 C 33.13 121.45 37.42 117.09 41.70 112.71 Z" />
<path fill="#3e3e3e" opacity="1.00" d=" M 455.16 114.00 C 460.90 112.09 467.34 117.01 467.34 122.99 C 467.47 128.67 461.56 133.83 455.96 132.14 C 451.41 131.23 448.18 126.49 448.67 121.95 C 449.18 118.37 451.85 115.32 455.16 114.00 Z" />
<path fill="#f5e5c1" opacity="1.00" d=" M 450.79 121.80 C 451.99 116.33 460.47 113.82 463.42 119.07 C 459.20 119.97 455.12 121.53 450.79 121.80 Z" />
<path fill="#3e3e3e" opacity="1.00" d=" M 40.60 125.95 C 40.61 121.75 44.45 119.42 48.00 118.31 C 50.34 119.63 53.70 120.39 54.49 123.35 C 55.06 126.12 55.02 129.59 52.46 131.40 C 48.17 135.07 40.32 131.85 40.60 125.95 Z" />
<path fill="#f5e5c1" opacity="1.00" d=" M 45.80 121.32 C 48.27 121.23 50.81 121.64 52.47 123.66 C 49.31 124.53 46.03 124.93 42.75 124.79 C 43.76 123.63 44.78 122.48 45.80 121.32 Z" />
<path fill="#f5e5c1" opacity="1.00" d=" M 452.43 125.85 C 456.84 125.65 460.91 123.79 465.26 123.27 C 464.68 125.88 463.54 128.73 460.78 129.69 C 457.92 131.33 455.00 129.39 452.37 128.27 C 452.38 127.47 452.41 126.66 452.43 125.85 Z" />
<path fill="#f4722b" opacity="1.00" d=" M 474.04 132.57 C 476.41 130.19 478.77 127.79 481.13 125.40 C 486.13 130.22 491.01 135.18 495.93 140.08 C 499.10 142.85 498.69 147.46 498.30 151.23 C 493.20 156.81 486.69 160.93 481.57 166.53 C 467.28 179.25 452.81 191.76 438.59 204.57 C 429.04 212.68 419.51 220.84 410.35 229.41 C 405.29 233.29 401.15 238.21 396.03 242.03 C 391.69 245.34 388.10 249.51 383.80 252.88 C 378.55 256.92 374.23 262.02 368.87 265.93 C 353.41 279.78 337.70 293.37 322.03 307.00 C 319.55 304.44 316.90 302.04 314.48 299.42 C 312.81 297.90 313.48 295.40 313.19 293.41 C 362.20 244.36 411.22 195.32 460.29 146.33 C 464.83 141.70 469.44 137.14 474.04 132.57 Z" />
<path fill="#f5e5c1" opacity="1.00" d=" M 44.02 128.44 C 47.09 127.90 50.17 127.41 53.30 127.32 C 52.07 128.65 51.12 130.75 49.06 130.84 C 47.63 130.84 46.22 130.62 44.81 130.45 C 44.61 129.94 44.22 128.94 44.02 128.44 Z" />
<path fill="#f4722b" opacity="1.00" d=" M 9.66 144.75 C 15.26 139.34 20.66 133.71 26.27 128.30 C 28.50 130.55 30.74 132.79 32.98 135.03 C 37.64 139.74 42.37 144.38 47.04 149.09 C 85.48 187.60 123.92 226.11 162.44 264.55 C 171.58 274.41 181.79 283.23 190.77 293.25 C 193.03 295.80 195.18 300.39 192.04 303.08 C 189.50 305.28 187.54 309.02 184.15 309.72 C 178.74 305.94 174.38 300.86 169.05 296.95 C 158.47 287.19 147.43 277.93 136.73 268.30 C 117.57 252.14 99.08 235.23 80.03 218.94 C 63.45 203.26 45.55 189.02 28.99 173.33 C 23.23 166.75 16.92 160.68 10.56 154.70 C 7.66 152.03 9.08 148.03 9.66 144.75 Z" />
<path fill="#f5e5c1" opacity="1.00" d=" M 457.97 143.99 C 462.68 139.28 467.37 134.56 472.09 129.86 C 472.74 130.76 473.39 131.66 474.04 132.57 C 469.44 137.14 464.83 141.70 460.29 146.33 C 459.51 145.55 458.74 144.77 457.97 143.99 Z" />
<path fill="#f5e5c1" opacity="1.00" d=" M 35.70 133.10 C 40.36 137.72 44.91 142.44 49.63 147.00 C 48.76 147.69 47.90 148.39 47.04 149.09 C 42.37 144.38 37.64 139.74 32.98 135.03 C 33.88 134.38 34.79 133.74 35.70 133.10 Z" />
<path fill="#3e3e3e" opacity="1.00" d=" M 477.47 138.54 C 481.08 136.05 486.21 138.16 487.73 142.08 C 490.01 146.83 485.22 152.99 479.97 151.64 C 473.70 151.10 472.07 141.53 477.47 138.54 Z" />
<path fill="#3e3e3e" opacity="1.00" d=" M 22.45 140.67 C 28.52 137.47 36.54 143.34 35.49 150.06 C 35.04 156.91 25.86 161.24 20.57 156.53 C 15.05 152.76 16.14 143.03 22.45 140.67 Z" />
<path fill="#f5e5c1" opacity="1.00" d=" M 482.32 139.54 C 483.50 140.93 485.67 141.90 485.73 143.95 C 486.13 146.08 484.71 147.83 483.80 149.60 C 482.64 146.37 482.04 142.97 482.32 139.54 Z" />
<path fill="#f5e5c1" opacity="1.00" d=" M 476.15 144.97 C 476.00 143.08 477.45 141.65 478.34 140.14 C 479.20 143.45 479.74 146.85 479.65 150.28 C 478.16 148.78 475.88 147.41 476.15 144.97 Z" />
<path fill="#f5e5c1" opacity="1.00" d=" M 26.32 142.00 C 31.46 141.88 35.25 148.02 32.52 152.46 C 32.05 154.15 30.53 154.76 28.93 154.94 C 28.68 150.51 27.23 146.31 26.32 142.00 Z" />
<path fill="#f5e5c1" opacity="1.00" d=" M 24.81 156.34 C 19.31 154.90 17.04 146.71 22.27 143.53 C 22.40 144.38 22.66 146.10 22.79 146.95 C 23.96 149.96 24.70 153.11 24.81 156.34 Z" />
<path fill="#f5e5c1" opacity="1.00" d=" M 9.67 153.86 L 10.56 154.70 C 16.92 160.68 23.23 166.75 28.99 173.33 C 25.64 173.37 22.25 173.61 18.93 173.04 C 15.39 170.59 12.69 167.15 9.55 164.25 C 9.62 160.78 9.59 157.32 9.67 153.86 Z" />
<path fill="#3e3e3e" opacity="1.00" d=" M 238.35 265.78 C 239.39 263.79 241.49 261.07 243.88 263.05 C 245.96 264.35 244.85 266.76 244.52 268.66 C 242.98 268.61 241.44 268.58 239.91 268.57 C 239.52 267.87 238.74 266.48 238.35 265.78 Z" />
<path fill="#3e3e3e" opacity="1.00" d=" M 261.46 268.70 C 260.36 266.31 260.40 262.22 264.00 262.51 C 267.43 262.31 266.81 266.30 266.58 268.54 C 264.87 268.59 263.17 268.64 261.46 268.70 Z" />
<path fill="#f5e5c1" opacity="1.00" d=" M 275.53 263.26 C 277.16 263.87 278.79 264.48 280.43 265.06 C 280.66 268.74 280.74 272.43 280.77 276.12 C 276.92 278.20 273.12 280.39 269.28 282.49 C 269.82 293.02 271.44 303.47 271.64 314.02 C 272.74 321.63 272.22 329.37 273.25 336.99 C 274.36 354.32 275.72 371.63 276.86 388.95 C 278.09 402.17 277.67 415.46 277.54 428.71 C 276.06 437.47 276.11 446.78 271.76 454.77 C 269.79 460.01 266.01 464.19 262.57 468.49 C 258.68 473.08 254.81 477.72 250.20 481.62 C 244.76 462.05 239.47 442.42 233.62 422.97 C 233.50 418.31 233.96 413.67 234.25 409.03 C 234.41 400.70 234.46 392.36 234.73 384.04 C 235.76 373.05 235.30 362.00 235.76 350.99 C 236.95 337.00 236.41 322.94 236.82 308.92 C 237.86 299.98 237.71 290.96 237.76 281.96 C 233.77 280.37 229.78 278.73 225.77 277.18 C 225.40 274.10 224.91 271.03 224.47 267.96 C 226.80 266.74 229.12 265.51 231.44 264.26 C 231.47 268.28 231.45 272.31 231.50 276.33 C 236.89 276.43 242.29 276.41 247.68 276.46 C 249.43 274.97 250.93 273.07 253.04 272.09 C 255.57 273.64 257.65 276.47 260.89 276.42 C 265.76 276.49 270.63 276.33 275.50 276.34 C 275.55 271.98 275.53 267.62 275.53 263.26 Z" />
<path fill="#f5e5c1" opacity="1.00" d=" M 292.78 270.36 C 295.22 271.25 297.68 272.11 300.15 272.93 C 297.57 275.50 294.99 278.08 292.36 280.59 C 292.38 280.99 292.42 281.78 292.45 282.17 C 295.72 285.38 298.76 288.82 302.15 291.92 C 304.31 294.00 307.48 293.12 310.18 293.39 C 310.42 296.28 310.10 299.53 312.20 301.85 C 315.21 305.15 318.41 308.29 321.73 311.27 C 322.69 312.26 324.04 311.48 324.78 310.65 C 327.37 308.20 329.71 305.51 332.22 303.00 C 332.70 304.90 334.16 306.84 333.58 308.85 C 331.78 311.41 329.39 313.47 327.34 315.83 C 322.88 315.31 318.71 313.55 314.38 312.54 C 307.02 319.84 301.14 328.50 293.93 335.96 C 289.08 342.05 283.37 347.40 278.58 353.55 C 277.46 337.61 276.05 321.70 275.19 305.76 C 281.24 301.29 285.95 295.36 291.86 290.74 C 291.14 286.22 288.84 282.19 287.14 277.99 C 288.97 275.41 290.90 272.91 292.78 270.36 Z" />
<path fill="#f5e5c1" opacity="1.00" d=" M 206.17 274.87 C 208.04 274.35 209.86 273.22 211.86 273.40 C 214.54 275.39 216.77 277.91 219.32 280.06 C 218.91 281.46 218.52 282.87 218.14 284.28 C 217.35 287.07 216.49 289.84 215.43 292.54 C 221.01 298.08 227.24 302.91 233.28 307.94 C 233.35 314.65 232.37 321.31 232.36 328.02 C 232.12 331.25 232.58 334.58 231.79 337.75 C 229.43 341.20 226.01 343.78 223.14 346.79 C 217.68 340.99 211.86 335.52 206.77 329.37 C 202.74 324.36 197.69 320.28 193.78 315.17 C 189.32 316.12 185.28 318.30 181.07 319.96 C 178.47 318.14 175.96 316.21 173.46 314.28 C 174.30 312.00 175.11 309.70 175.89 307.40 C 176.15 307.46 176.69 307.58 176.96 307.65 C 179.22 310.21 181.64 312.62 184.00 315.09 C 188.81 311.95 192.46 307.40 196.47 303.36 C 196.40 301.22 196.40 299.08 196.40 296.95 C 199.29 296.60 202.60 297.03 204.95 294.95 C 208.70 291.55 212.09 287.77 215.61 284.14 C 212.38 281.13 209.31 277.96 206.17 274.87 Z" />
<path fill="#3e3e3e" opacity="1.00" d=" M 304.52 278.18 C 305.87 278.31 307.24 278.38 308.59 278.65 C 310.67 280.20 310.06 284.72 307.04 284.59 C 305.29 284.88 304.04 283.60 303.42 282.11 C 303.75 280.79 304.11 279.48 304.52 278.18 Z" />
<path fill="#3e3e3e" opacity="1.00" d=" M 195.96 284.97 C 197.33 283.66 198.68 282.34 200.02 281.00 C 201.34 282.34 202.65 283.69 203.96 285.06 C 202.65 286.38 201.32 287.69 199.97 288.98 C 198.61 287.66 197.27 286.32 195.96 284.97 Z" />
<path fill="#3e3e3e" opacity="1.00" d=" M 319.63 294.81 C 320.86 294.10 322.15 293.48 323.47 292.95 C 324.56 294.98 326.46 297.39 324.25 299.41 C 322.65 299.69 321.01 299.64 319.40 299.69 C 319.47 298.07 319.02 296.34 319.63 294.81 Z" />
<path fill="#3e3e3e" opacity="1.00" d=" M 182.71 297.79 C 183.77 297.02 185.22 297.35 186.40 297.62 C 187.96 298.76 187.41 300.92 187.76 302.58 C 185.62 303.68 183.31 303.58 181.19 302.48 C 181.60 300.90 181.03 298.72 182.71 297.79 Z" />
<path fill="#f5e5c1" opacity="1.00" d=" M 199.46 377.48 C 209.88 367.03 221.10 357.42 231.52 346.98 C 230.78 366.64 229.71 386.28 229.04 405.94 C 228.86 407.33 229.18 408.99 228.20 410.16 C 222.44 416.51 216.17 422.45 209.07 427.29 C 204.63 430.64 200.25 434.29 194.79 435.84 C 193.54 436.33 192.28 436.83 191.04 437.36 C 180.81 439.40 170.30 440.12 159.90 439.71 C 169.54 422.66 179.05 405.55 188.63 388.47 C 191.11 383.82 195.93 381.22 199.46 377.48 Z" />
<path fill="#f5e5c1" opacity="1.00" d=" M 279.38 365.08 C 278.54 360.30 283.34 357.43 285.82 354.03 C 294.78 361.77 304.05 369.20 312.22 377.80 C 318.09 383.58 324.24 389.19 328.95 396.02 C 332.25 400.94 336.68 405.26 338.55 411.02 C 343.42 422.42 342.03 435.04 343.45 447.06 C 339.40 445.49 335.68 443.23 331.93 441.08 C 318.23 433.39 304.48 425.76 290.81 418.01 C 286.53 415.09 282.09 410.63 282.43 405.03 C 281.41 391.72 280.43 378.40 279.38 365.08 Z" />
</svg>
