<?xml version="1.0" encoding="UTF-8" standalone="no"?>
<svg
   xmlns:dc="http://purl.org/dc/elements/1.1/"
   xmlns:cc="http://creativecommons.org/ns#"
   xmlns:rdf="http://www.w3.org/1999/02/22-rdf-syntax-ns#"
   xmlns:svg="http://www.w3.org/2000/svg"
   xmlns="http://www.w3.org/2000/svg"
   xmlns:sodipodi="http://sodipodi.sourceforge.net/DTD/sodipodi-0.dtd"
   xmlns:inkscape="http://www.inkscape.org/namespaces/inkscape"
   width="1280"
   height="1280"
   viewBox="0 0 1024 1024"
   version="1.1"
   id="svg2"
   inkscape:version="0.48.1 "
   sodipodi:docname="backstab_dominating_enemy.svg">
  <metadata
     id="metadata86">
    <rdf:RDF>
      <cc:Work
         rdf:about="">
        <dc:format>image/svg+xml</dc:format>
        <dc:type
           rdf:resource="http://purl.org/dc/dcmitype/StillImage" />
      </cc:Work>
    </rdf:RDF>
  </metadata>
  <defs
     id="defs84" />
  <sodipodi:namedview
     pagecolor="#ffffff"
     bordercolor="#666666"
     borderopacity="1"
     objecttolerance="10"
     gridtolerance="10"
     guidetolerance="10"
     inkscape:pageopacity="0"
     inkscape:pageshadow="2"
     inkscape:window-width="1920"
     inkscape:window-height="1018"
     id="namedview82"
     showgrid="false"
     fit-margin-top="0"
     fit-margin-left="0"
     fit-margin-right="0"
     fit-margin-bottom="0"
     inkscape:zoom="0.6609375"
     inkscape:cx="640"
     inkscape:cy="640"
     inkscape:window-x="-8"
     inkscape:window-y="-8"
     inkscape:window-maximized="1"
     inkscape:current-layer="svg2" />
  <path
     d="m 0,0 1024,0 0,1024 L 0,1024 0,0 z"
     id="path4"
     style="fill:#3e3e3e"
     inkscape:connector-curvature="0" />
  <path
     d="m 743.14,33.3 c 5.74,-0.3 11.32,1.98 16.9,3.12 -10.92,8.22 -21.92,16.36 -33.46,23.68 0.2,-5 -0.14,-10.12 1.12,-15 4,-5.1 9.94,-8.5 15.44,-11.8 z"
     id="path6"
     inkscape:connector-curvature="0"
     style="fill:#f5e5c1" />
  <path
     style="fill:#f4722b"
     d="m 760.05,36.4 c -10.92,8.22 -21.91,16.38 -33.45,23.7 -11.6,7.68 -21.51,17.58 -32.45,26.1 -15.84,12.16 -31.33,24.75 -47.35,36.65 -22.3,19.02 -44.97,37.57 -67.45,56.35 -29.1,25 -58.35,49.87 -88.85,73.15 -2.2,2.2 -6.24,3.72 -6.2,7.3 2.58,5.08 5.98,9.86 10.2,13.7 9.28,3.7 17.2,-3.81 24.2,-8.75 79.9,-57.48 159.8,-114.97 239.9,-172.15 8.08,-6.04 16.32,-11.87 24.5,-17.75 3.16,-2.26 6.38,-4.45 9.3,-7.05 -0.98,-5.54 -5.18,-9.63 -8.2,-14.15 -4.26,-5.46 -7.58,-11.89 -12.9,-16.45 -3.72,-0.66 -7.51,-0.53 -11.25,-0.65 z m 1.75,10.85 c 7.68549,-0.1924 15.07,6.92 15.2,14.85 -1.58,8.96 -11.18,15.88 -20.1,12.5 -10.72,-4.04 -11.16,-21.67 -0.4,-25.95 1.7175,-0.90375 3.52643,-1.3556 5.3,-1.4 z M 498.1,253.9 c 2.04,2.7 4.1,5.37 6.2,8.05 -2.98,1.14 -7.58,5.7 -10.1,1.8 -3.2,-3.72 1.8,-7.25 3.9,-9.85 z"
     id="path8"
     inkscape:connector-curvature="0" />
  <path
     d="m 751.92,59.12 c 3.12,-8.84 14.82,-10.18 20.38,-2.9 -6.82,0.84 -13.58,2.02 -20.38,2.9 z"
     id="path12"
     inkscape:connector-curvature="0"
     style="fill:#f5e5c1" />
  <path
     d="m 751.46,64.86 c 7.7,-0.56 15.48,-0.74 23.18,0.22 -4.4,3.24 -8.68,8.98 -14.86,7.56 -3.62,-1.56 -5.88,-4.88 -8.32,-7.78 z"
     id="path14"
     inkscape:connector-curvature="0"
     style="fill:#f5e5c1" />
  <path
     style="fill:#f4722b"
     d="m 797.4,71.4 c -4.82,2.52 -9.6,5.26 -13.9,8.6 -7.92,6 -16.02,11.69 -24.1,17.45 -84.96,61.2 -170.04,122.29 -255.1,183.35 -1.06,8.88 5.87,15.14 10.35,21.9 33,-18.46 64.51,-39.4 95.85,-60.5 24.28,-14.82 48.53,-29.74 72.45,-45.1 44.34,-26.76 88.74,-53.52 131.1,-83.3 3.24,-3.8 2.41,-9.51 3.45,-14.15 -6.92,-9.26 -13.74,-18.59 -20.1,-28.25 z m -6.2,17.5 c 6.77078,-0.54939 13.01875,6.07125 11.8,13.4 -3.64,5.14 -11.57,11.8 -17.55,6.1 -6.44,-4.18 -5.43,-14.38 1.05,-17.9 1.53374,-0.9675 3.1375,-1.47322 4.7,-1.6 z M 516.45,283 c 2.65234,-0.14301 4.93499,2.1575 7.35,3.05 -2.56,3.56 -6.11,6.05 -10.25,7.45 0.38,-3.36 -2.47,-8.43 1.75,-10.25 0.39499,-0.13 0.77109,-0.22957 1.15,-0.25 z"
     id="path16"
     inkscape:connector-curvature="0" />
  <path
     d="m 758.62,92.46 c 8.08,-6.04 16.28,-11.88 24.46,-17.76 0.12,1.34 0.32,4 0.44,5.32 -7.92,6 -16.06,11.68 -24.14,17.44 -0.18,-1.24 -0.56,-3.76 -0.76,-5 z"
     id="path18"
     inkscape:connector-curvature="0"
     style="fill:#f5e5c1" />
  <path
     d="m 784.84,95.52 c 1.06,-0.32 3.16,-0.96 4.22,-1.3 -0.04,3.88 -0.04,7.76 0.02,11.66 -1.04,-0.28 -3.14,-0.82 -4.18,-1.1 -0.08,-3.08 -0.1,-6.16 -0.06,-9.26 z"
     id="path22"
     inkscape:connector-curvature="0"
     style="fill:#f5e5c1" />
  <path
     d="m 793.82,91.94 c 2.12,2.64 6.28,5.12 5.16,9.14 -1,2.56 -2.46,4.9 -3.8,7.28 -1.24,-5.38 -1.94,-10.9 -1.36,-16.42 z"
     id="path24"
     inkscape:connector-curvature="0"
     style="fill:#f5e5c1" />
  <path
     d="m 323.98,186.1 c 1.64,-2.02 3.24,-4.72 6.16,-4.74 15.9,-1.84 32,-1.58 47.96,-0.48 -8.08,12.4 -15.46,25.2 -23.96,37.32 -5.34,7.12 -6.96,16.5 -12.28,23.42 -17.04,1.04 -33.86,4.2 -50.08,9.62 5.52,-23.94 18.26,-45.26 32.2,-65.14 z"
     id="path26"
     inkscape:connector-curvature="0"
     style="fill:#f5e5c1" />
  <path
     d="m 322.8,182.25 c -55.28,6.6 -107.7,32.41 -147.8,70.85 -5.42,4.3 -0.54,12.16 -4.4,17.4 -3.42,5.94 -10.86,6.13 -16.9,6.05 -5.24,6.66 -10.3,13.45 -14.8,20.65 9.2,6.06 14.72,17.86 10.6,28.6 -2.18,8.06 -11.32,9.76 -17,14.6 -5.72,4.94 -12.78,7.71 -20.2,8.85 -20.46,54.82 -21.73,116.56 -3.25,172.1 19.52,59.86 61.62,111.98 116.2,143.4 48.4,28.42 106.07,40.03 161.75,33.55 C 374.72,678.9 362.4,659.5 350.1,640.1 307.18,637.2 264.5,622.42 231,595 193.42,565.04 167.74,520.78 159.6,473.5 c -2.26,-15.72 -1.54,-31.63 -1.5,-47.45 -0.02,-18.58 4.52,-36.8 10.7,-54.2 -6.98,-0.4 -14.36,-0.23 -20.6,-3.85 -7.78,-3.66 -13.13,-10.54 -18.35,-17.1 12.28,8.5 26.41,16.39 41.95,13.65 20.94,-52.54 65.66,-94.5 119.1,-112.8 2.34,-8.48 4.77,-17 8.25,-25.1 6.5,-15.5 16.15,-29.4 23.65,-44.4 z m -112.7,72.7 c 11.07723,-0.51206 22.1525,9.45 20.95,21.15 -0.62,13.24 -17.77,20.71 -28.45,13.35 -12.4,-6.12 -12.77,-26.39 -0.05,-32.35 2.40374,-1.33875 4.99371,-2.03182 7.55,-2.15 z"
     id="path28"
     style="fill:#f5e5c1"
     inkscape:connector-curvature="0" />
  <path
     d="m 370.94,215.18 c 7.18,-10.46 12.84,-21.82 19.26,-32.74 16.22,1.76 32.18,5.64 47.64,10.86 -11.68,14.68 -23.32,29.44 -33.36,45.32 -2.22,2.5 -4.06,7.54 -8.26,6.2 -13.16,-2.72 -26.64,-2.88 -40.04,-2.92 3.56,-9.6 8.84,-18.4 14.76,-26.72 z"
     id="path30"
     inkscape:connector-curvature="0"
     style="fill:#f5e5c1" />
  <path
     d="m 408.36,247.68 c 11.34,-18.02 24.74,-34.6 37.66,-51.48 17.9,6.76 35.82,14.54 51.08,26.24 -6.38,1.38 -12.44,-1.74 -18.72,-2.16 -8.92,0.26 -14.86,7.66 -21.5,12.56 -9.28,7.24 -5.96,20.14 -8.08,30.2 -13.36,-5.4 -26.48,-11.52 -40.44,-15.36 z"
     id="path32"
     inkscape:connector-curvature="0"
     style="fill:#f5e5c1" />
  <path
     d="m 470.18,249.98 c 2.98,-3.36 6.66,-6 10.08,-8.88 3.02,1.52 6.04,3.02 9.08,4.52 -0.06,0.64 -0.18,1.92 -0.24,2.56 -4.36,3.04 -8.64,6.18 -12.9,9.36 4.22,5.88 8.04,12.04 12.64,17.64 2.74,3.38 7.56,3.16 11.3,4.78 -3.68,12.62 8.48,20.88 14.1,30.62 5.56,-3.66 11.02,-7.48 16.54,-11.18 0.62,2.76 1.12,5.54 1.52,8.34 -3.48,3.7 -7.7,6.58 -11.6,9.8 -6.5,-2.56 -12.94,-5.34 -19.06,-8.74 -23.44,20.94 -47.9,40.68 -71.92,60.94 -21.06,16.42 -42.2,32.74 -62.26,50.4 -10.68,-14.02 -20.36,-28.74 -30.76,-42.94 -2.24,-3.24 -4.88,-6.34 -6.1,-10.12 13.82,-9.58 27.78,-19.04 41.52,-28.76 19.1,-13.06 38.8,-25.2 57.54,-38.8 14.24,-10.5 30.52,-18.26 43.96,-29.76 0,-6.76 -3,-13.06 -3.44,-19.78 z"
     id="path34"
     inkscape:connector-curvature="0"
     style="fill:#f5e5c1" />
  <path
     d="m 355.3,276.15 c -6.4675,0.0225 -12.91,0.35 -19.35,1.1 -2.86,3.64 -5.82,7.54 -10.5,8.8 -0.26,-1.78 -0.76,-5.37 -1,-7.15 -47.32,9.42 -90.24,40.24 -112.6,83.2 8.26,0.76 17.03,1.42 24.25,5.9 6,3.84 7.99,11.09 10.15,17.45 6.5,4.04 12.23,9.79 12.45,17.95 6.06,-18.64 18.87,-34.63 34.25,-46.55 6.38,-4.96 1.99,-14.83 7.35,-20.55 5.92,-7.68 16.3,-10.26 25.5,-8.4 5.02,1.12 7.47,5.97 10.15,9.85 4.6,-3.02 9.42,-5.69 14,-8.75 -0.12,-0.64 -0.38,-1.88 -0.5,-2.5 l -0.6,-1.1 c -0.14,-2 0.09,-3.86 0.75,-5.7 6.24,-15.4 16.5,-28.64 25.1,-42.7 -6.45,-0.58 -12.9325,-0.8725 -19.4,-0.85 z m -118.9,56.2 c 2.69846,-0.022 5.43875,1.25875 6.8,3.7 2.12,0.18 4.23,0.33 6.35,0.45 l 0,-3.05 c 2.4,1.72 5.75,2.71 7.15,5.55 1.84,3.44 0.21,7.38 -0.05,11 -3.36,-2.42 -6.57,-5.25 -8.05,-9.25 -0.82,-0.48 -2.43,-1.42 -3.25,-1.9 -0.56,5.54 -4.77,11.71 -11.05,10.65 -7.02,-0.38 -7.95,-10.6 -3.45,-14.6 1.36499,-1.70626 3.4512,-2.53291 5.55,-2.55 z m 26.35,12.35 c 0.94,0.08 2.86,0.25 3.8,0.35 0.08,0.96 0.24,2.94 0.3,3.9 -1.02,0.12 -3.13,0.33 -4.15,0.45 0,-1.18 0.03,-3.54 0.05,-4.7 z"
     id="path40"
     style="fill:#f5e5c1"
     inkscape:connector-curvature="0" />
  <path
     d="m 368.68,300.56 c 6.1,-6.64 10.3,-14.66 15.2,-22.14 9.94,1.7 19.72,4.26 29.12,7.92 -8.28,5.98 -17.52,10.42 -25.76,16.44 -11.6,7 -21.82,16.08 -33.78,22.46 l 0.02,-1.5 c 2.96,-8.88 9.58,-15.88 15.2,-23.18 z"
     id="path42"
     inkscape:connector-curvature="0"
     style="fill:#f5e5c1" />
  <path
     d="m 552.76,303.92 c 6.42,-2.86 12.44,-6.46 18.38,-10.18 11.4,17.2 20.98,35.56 28.38,54.84 -11.32,-0.1 -22.54,1.52 -33.76,2.86 3.88,-1.02 7.76,-2.02 11.68,-3 -0.1,-1.88 -0.28,-5.6 -0.36,-7.48 -14.3,3.7 -28.32,8.58 -43.16,9.64 -2,-3.8 -4.02,-7.56 -6.06,-11.32 6.16,-4.98 12.22,-10.08 18.36,-15.1 5.78,-5 5.5,-13.34 6.54,-20.26 z"
     id="path46"
     inkscape:connector-curvature="0"
     style="fill:#f5e5c1" />
  <path
     d="m 458.38,371.66 c 11.56,-7.48 21.44,-17.1 32.38,-25.4 2.5,4 4.98,8.02 7.38,12.1 -13.1,4.92 -26.7,8.3 -39.76,13.3 z"
     id="path52"
     inkscape:connector-curvature="0"
     style="fill:#f5e5c1" />
  <path
     d="m 543.86,373.66 c 20.2,-3.76 40.64,-5.94 61.04,-8.32 4.86,14.84 7.58,30.26 9.58,45.72 -3.88,0.02 -7.76,0.02 -11.62,0 0.14,-9.56 -4.24,-20.2 -14.08,-23.24 -13.16,-3.02 -28.5,-2.12 -38.68,7.8 -1.6,-7.46 -3.82,-14.74 -6.24,-21.96 z"
     id="path54"
     inkscape:connector-curvature="0"
     style="fill:#f5e5c1" />
  <path
     d="m 205.84,374.1 c 9.82,1.16 23.02,0.14 28.16,10.58 -5.28,3.1 -11.26,6.48 -13.2,12.74 -5.14,11.52 4.42,26.54 17.2,26.14 6.08,0.78 11.36,-2.38 15.74,-6.2 -2.04,12.86 -2.1,26 -0.98,38.94 4.64,33.18 26.64,63.16 56.6,78.02 20.48,9.98 44.3,14.56 66.76,9.34 8.18,-1.26 15.72,-4.9 23.74,-6.78 6.32,2.94 11.6,7.6 17.02,11.9 -24.52,12.66 -48.3,26.98 -69.92,44.24 -3.68,2.88 -6.7,6.5 -9.68,10.08 -31.76,-3.98 -62.44,-16.88 -86.9,-37.62 -29.34,-24.5 -49.46,-59.68 -55.98,-97.34 -5.28,-31.58 -1.64,-64.74 11.44,-94.04 z"
     id="path56"
     inkscape:connector-curvature="0"
     style="fill:#f5e5c1" />
  <path
     d="m 471.52,382.06 c 12.12,-1.62 24.2,-3.48 36.4,-4.44 2.18,6.22 4.3,12.44 6.2,18.74 -8.12,0.3 -16.26,0.52 -24.38,0.6 8.28,0.26 16.54,0.46 24.82,0.68 -1.2,4.32 -2.54,8.6 -3.88,12.9 -3.46,0.5 -6.94,1.04 -10.38,1.58 -6.78,-2.12 -13.72,-3.68 -20.64,-5.24 0.58,-9.14 -3.36,-17.36 -8.14,-24.82 z"
     id="path58"
     inkscape:connector-curvature="0"
     style="fill:#f5e5c1" />
  <path
     d="m 298,413.02 c 4.28,-0.78 8.04,-3.1 11.9,-4.94 -0.08,8.44 -1.38,17.48 2.5,25.36 5.76,12.04 20.5,17.78 33.22,15.58 5.34,-1.34 10.36,-3.66 15.58,-5.44 0.96,8.9 0.06,18.5 4.58,26.58 4.22,7.9 12.82,14.1 22.08,13.16 7.5,-0.44 14.26,-6.36 15.66,-13.76 1.3,-6 2.56,-12 5,-17.66 5.96,1.36 11.9,2.72 17.92,3.84 -3.58,14.04 -10.18,27.94 -21.44,37.4 -14.48,0.16 -28.6,-5.08 -43,-6.38 -3.2,-0.22 -5.98,0.82 -8.32,3.1 14.86,3.54 29.96,5.84 44.86,9.22 -5.6,4.02 -11.58,7.5 -18.02,9.98 -2.8,-0.92 -5.56,-2.1 -8.48,-2.62 -1.54,2.02 -2.86,4.2 -4.24,6.34 -14.66,2.42 -30.04,1.1 -43.64,-5.04 -20.54,-9.06 -36.64,-27.86 -41.94,-49.72 -4.04,-15.78 -2.36,-32.66 3.82,-47.64 3.94,1.02 7.84,2.6 11.96,2.64 z"
     id="path60"
     inkscape:connector-curvature="0"
     style="fill:#f3722b" />
  <path
     d="m 583.96,429.4 c 5.92,-2.06 9.98,-7.34 15.76,-9.62 5.06,-0.62 10.18,-0.22 15.28,-0.2 1.8,18.96 1.12,38.16 -1.64,57 -9.12,1.08 -18.88,1.1 -27.08,5.68 -9.52,5.52 -10.76,20.62 -2.36,27.66 5.44,5.04 13.3,5.22 20.22,6.6 -1.02,3.82 -2.1,7.62 -3.2,11.42 -20.44,-4.96 -41.38,-7.76 -62.42,-8.16 2.46,-6.16 4.84,-12.34 7.08,-18.58 8.22,2.06 17.74,4.38 25.68,0.3 6.72,-2.92 5.62,-13.64 -1.3,-15.56 -6.3,-1.74 -12.98,-1.64 -19.4,-2.9 1.46,-8.56 3,-17.1 4.88,-25.58 8.26,-1.32 16.56,-2.48 24.62,-4.78 9.36,1.8 18.74,3.88 28.32,3.98 -9.52,-2.12 -19.54,-2.08 -28.78,-5.32 -7.82,-5.26 -14.96,-11.56 -23.2,-16.24 -0.36,-2.72 -0.7,-5.46 -1.04,-8.18 8.74,4.52 19.22,5.86 28.58,2.48 z"
     id="path62"
     inkscape:connector-curvature="0"
     style="fill:#f5e5c1" />
  <path
     d="m 461.08,453 c 19.44,0.96 38.7,4.4 58.18,3.98 -0.72,5.3 -1.58,10.56 -2.66,15.8 -4.74,3.82 -3.92,9.62 -3.96,15.04 -2.72,10.28 -7.18,20.04 -11.98,29.52 -19.3,-5.8 -38.1,-13.64 -58.36,-15.56 9.46,-14.84 16.18,-31.32 18.78,-48.78 z"
     id="path64"
     inkscape:connector-curvature="0"
     style="fill:#f5e5c1" />
  <path
     d="m 414.46,528.12 c 7.04,-4.92 13.64,-10.48 19.7,-16.56 16.36,3.94 33.08,6.84 48.68,13.46 -16.56,4.44 -32.92,9.52 -48.92,15.6 -7.44,-1.88 -12.92,-8.58 -19.46,-12.5 z"
     id="path66"
     inkscape:connector-curvature="0"
     style="fill:#f5e5c1" />
  <path
     style="fill:#f4722b"
     d="m 532.65,539.5 c -26.87206,-0.19168 -53.67499,5.39 -78.7,15.05 9.74,6.64 19.73,13.04 28.55,20.9 5.68,5 11.01,10.54 17.65,14.3 7.54,4.36 15.99,7.55 22.05,14.05 6.7,6.62 8.45,16.28 10.85,25 6.18,5.16 12.61,10.31 20.55,12.45 12.56,3.68 23.72,10.94 36.3,14.6 6.92,2.4 14.56,3.45 20.5,8.05 11.22,8.64 23.6,15.92 33.2,26.5 5.16,6.38 14.19,8.2 18.45,15.4 2.54,3.86 5.05,7.81 6.45,12.25 2.24,8.22 -6.42,16.61 -14.6,14.45 -8.96,-2.2 -13.04,-11.38 -19.1,-17.4 -4.76,-4.64 -5.61,-11.49 -8.75,-17.05 -5.2,-6.88 -13.01,-11.03 -18.95,-17.15 -4.26,-4.16 -0.58,-9.84 0.6,-14.5 -7.38,-2.88 -14.95,-5.25 -22.45,-7.75 -12.18,-3.94 -22.03,-12.64 -34.05,-17 -6.96,-2.56 -13.3,-6.79 -18.1,-12.45 -10.04,-12.74 -25.05,-19.89 -39.05,-27.35 -10.12,-5.44 -17.44,-14.54 -26.6,-21.3 -6.96,-5.16 -14.33,-9.79 -21.65,-14.45 -3.82,-2.1 -8.04,-5.94 -12.5,-3.1 -27.6,13.26 -54.15,29.15 -77.75,48.75 22.1,34.46 43.73,69.22 65.95,103.6 20,-15.04 41.72,-27.9 65.1,-36.9 18.82,-7.26 39.1,-12.47 59.4,-9.95 10.32,1.2 20.6,5.86 27.2,14.1 8.46,10.16 12.48,24.94 6.8,37.4 -7.06,15.32 -22.82,24.09 -37.9,29.95 -27.72,10.42 -57.63,13.24 -87.05,13.1 -0.26,21.96 0.1,43.92 0.5,65.9 26.1,0.18 52.67,-0.5 78.15,6 13.04,3.3 26.15,9.89 33.35,21.75 4.1,7.06 6.83,16.72 1.45,23.9 -9.98,13.8 -28.27,18.26 -44.45,18.5 -30.54,-0.38 -59.27,-13.6 -84.55,-29.8 -11.1,18.52 -21.66,37.36 -32.7,55.9 -1.3,2.6 -4.32,6.32 -0.4,8.2 39.2,34.8 94.6,48.44 146,41.2 34.26,-4.66 68.46,-19.3 91.1,-46.2 -11.72,-4.38 -24.89,-12.82 -26.25,-26.4 -0.84,-12.64 10.57,-21.14 20.55,-26.4 7.84,-4.38 16.99,-2.58 25.05,0.1 -0.2,-13.28 -3.44,-26.68 -10.9,-37.8 -12.48,-19.44 -32.84,-32 -54,-40.1 30.1,-11.98 58.88,-28.82 80.7,-53.1 20.42,-22 32.13,-52.65 28.35,-82.75 -2.86,-34.6 -21.18,-67.45 -49.4,-87.75 -32.82,-23.36 -73.73,-32.61 -113.45,-34.25 -3.8375,-0.2675 -7.66114,-0.42262 -11.5,-0.45 z m 109.25,29.95 c 9.58798,0.25232 17.4,11.1125 13.8,20.3 -1.56,6.5 -8.22,9.04 -13.7,11.4 -4.54,-2.18 -9.98,-3.73 -12.7,-8.35 -3.58,-5.74 -2.98,-13.06 -1.8,-19.4 3.08,-3.4 8.3,-3.19 12.5,-3.85 0.6525,-0.0812 1.2608,-0.11682 1.9,-0.1 z m -24.65,27.95 c 7.02539,0.0857 13.84499,7.30374 11.7,14.6 -1.68,9.16 -14.77,12.91 -20.95,6.05 -6,-5.7 -3.19,-16.69 4.45,-19.45 1.53374,-0.82125 3.17875,-1.21978 4.8,-1.2 z M 444.3,652.8 c 8.24771,0.36867 16.13008,8.32499 14.5,17.1 -0.86,11.18 -15.84,17 -24,9.3 -8.04,-6.1 -6.98,-19.54 1.9,-24.3 1.8675,-1.23374 3.91774,-1.88504 5.95,-2.05 0.5504,-0.0447 1.10016,-0.0746 1.65,-0.05 z m 57.15,111.85 c 0.86054,-0.0462 1.6925,0.0475 2.55,0.3 6.06,0.3 7.05,6.92 8.05,11.6 -5.32,2.54 -12.88,6.33 -17.7,0.85 -4.3925,-5.39 1.07618,-12.42653 7.1,-12.75 z m 76.7,36.1 c 5.80715,-0.25874 11.4725,4.9925 10.4,11.2 -0.26,6.58 -8.87,8.98 -13.45,4.9 -5.16,-3.16 -5.82,-11.32 -0.9,-15 1.27125,-0.70501 2.60989,-1.04029 3.95,-1.1 z"
     id="path68"
     inkscape:connector-curvature="0" />
  <path
     d="m 796.92,654.14 c 0.54,-2.48 -1.38,-8.4 3.14,-7.58 21.84,-0.22 43.7,0 65.54,-0.04 -0.66,27.16 -1.42,54.36 -0.86,81.5 6.4,1.1 12.92,0.3 19.38,0.14 23.3,-0.4 46.6,-0.46 69.88,-1.24 -0.36,22.88 0.52,45.76 0.38,68.62 -30.28,-0.42 -60.52,0.82 -90.8,0.46 -0.9,32.82 -0.6,65.68 -1.56,98.5 -21.5,0.34 -43,-0.6 -64.5,-0.5 0.02,-32.68 0.14,-65.34 -0.56,-98 -27.14,0.24 -54.32,-0.54 -81.44,0.48 -0.34,-21.82 0.54,-43.64 0.58,-65.46 26.96,-0.98 53.98,-0.48 80.94,-1.7 -0.06,-25.06 0.1,-50.12 -0.12,-75.18 z"
     id="path74"
     inkscape:connector-curvature="0"
     style="fill:#f3722b" />
</svg>
