<?xml version="1.0" encoding="UTF-8" standalone="no"?>
<svg
   xmlns:dc="http://purl.org/dc/elements/1.1/"
   xmlns:cc="http://creativecommons.org/ns#"
   xmlns:rdf="http://www.w3.org/1999/02/22-rdf-syntax-ns#"
   xmlns:svg="http://www.w3.org/2000/svg"
   xmlns="http://www.w3.org/2000/svg"
   xmlns:sodipodi="http://sodipodi.sourceforge.net/DTD/sodipodi-0.dtd"
   xmlns:inkscape="http://www.inkscape.org/namespaces/inkscape"
   width="1280"
   height="1280"
   viewBox="0 0 1024 1024"
   version="1.1"
   id="svg2"
   inkscape:version="0.48.1 "
   sodipodi:docname="backstab_grind.svg">
  <metadata
     id="metadata58">
    <rdf:RDF>
      <cc:Work
         rdf:about="">
        <dc:format>image/svg+xml</dc:format>
        <dc:type
           rdf:resource="http://purl.org/dc/dcmitype/StillImage" />
      </cc:Work>
    </rdf:RDF>
  </metadata>
  <defs
     id="defs56" />
  <sodipodi:namedview
     pagecolor="#ffffff"
     bordercolor="#666666"
     borderopacity="1"
     objecttolerance="10"
     gridtolerance="10"
     guidetolerance="10"
     inkscape:pageopacity="0"
     inkscape:pageshadow="2"
     inkscape:window-width="1920"
     inkscape:window-height="1018"
     id="namedview54"
     showgrid="false"
     fit-margin-top="0"
     fit-margin-left="0"
     fit-margin-right="0"
     fit-margin-bottom="0"
     inkscape:zoom="0.6609375"
     inkscape:cx="640"
     inkscape:cy="640"
     inkscape:window-x="-8"
     inkscape:window-y="-8"
     inkscape:window-maximized="1"
     inkscape:current-layer="svg2" />
  <path
     d="m 0,0 1024,0 0,1024 L 0,1024 0,0 z"
     id="path4"
     style="fill:#3e3e3e"
     inkscape:connector-curvature="0" />
  <path
     d="m 332.36,106.08 c 6.46,-0.98 14.12,-5.38 19.8,-0.18 3.98,11.56 15.6,18.86 19.42,30.7 2.5,8.66 7.32,16.32 11.96,23.94 3.5,5.64 3.82,12.42 5.92,18.56 1.88,6.78 6.86,12.72 6.12,20.06 -4.56,3.68 -9.2,8.56 -15.52,8.42 -5.52,-0.32 -11,-1.04 -16.52,-0.84 -4.02,-6.62 -10.94,-10.72 -14.98,-17.32 -10.8,-15.72 -24.36,-29.4 -34.54,-45.54 -2.66,-7.22 -6.32,-17.16 0.36,-23.34 5.8,-5 11.12,-10.98 17.98,-14.46 z"
     id="path6"
     inkscape:connector-curvature="0"
     style="fill:#f4722b" />
  <path
     d="m 413.34,123.5 c 3.34,-3.9 7.06,-10.96 13.14,-7.02 1.04,8.42 12.22,11.3 10.88,20.24 -2.48,0.88 -4.96,1.78 -7.44,2.7 -2.3,5.48 -6.74,9.5 -10.58,13.88 -6.64,8 -13.42,15.98 -21.44,22.64 -3.3,-7.16 -3.88,-15.84 -9.36,-21.76 2.6,-13.76 16.48,-20.62 24.8,-30.68 z"
     id="path8"
     inkscape:connector-curvature="0"
     style="fill:#f4722b" />
  <path
     d="m 372.2,125.98 c 6.78,2.82 12.84,6.98 19.28,10.48 -3.14,3.28 -6.44,6.38 -9.54,9.68 -2.9,-1.78 -2.84,-5.44 -4.2,-8.18 -1.88,-4.02 -5.78,-7.16 -5.54,-11.98 z"
     id="path10"
     inkscape:connector-curvature="0"
     style="fill:#f4722b" />
  <path
     style="fill:#f4722b"
     d="m 281.8,139.1 c -5.74,2.9 -11.76,6.87 -13.8,13.35 -9.3,23.22 -16.49,47.22 -25.05,70.7 -4.34,9.02 -8.76,18.02 -13,27.1 -2.14,4.88 -6.42,9.35 -5.5,15.05 1.22,11.66 3.25,23.25 5.05,34.85 0.96,2.38 0.46,7.03 3.9,7.25 4.1,-4.46 8.22,-9.12 10.9,-14.6 -4.6,-1.52 -8.81,-4.12 -11.55,-8.2 7.36,3.44 15.88,4.08 22.4,9.3 -0.12,-1.7 -0.38,-5.1 -0.5,-6.8 7.34,5.28 12.35,13.24 20.15,17.9 6.94,0.44 13.96,0.19 20.9,0.05 6.94,-3.76 11.7,-11.69 11.6,-19.65 -8.72,-0.7 -12.38,-9.22 -17.9,-14.7 -6.18,-7.12 -14.07,-12.69 -19.15,-20.75 L 268.7,251 c -5.42,7.12 -10.87,14.52 -13.25,23.3 -1.18,-1.68 -3.01,-3.38 -2.45,-5.7 1.14,-8.32 7.7,-15.28 15.7,-17.6 -7.52,-4.36 -15.98,-6.89 -24.7,-6.75 -0.1,-1.68 -0.3,-5.07 -0.4,-6.75 3.32,-0.1 6.82,-0.64 9.9,1 14.02,5.38 24.32,16.76 34.7,27.1 6.44,4.46 11.78,13.22 20.7,11.4 0.4,-6.36 0.03,-12.71 0.45,-19.05 2.66,-6.06 8.8,-9.33 14.6,-11.75 -0.78,-1.9 -1.51,-3.88 -3.05,-5.3 -11.78,-11.46 -23.26,-23.39 -34.1,-35.65 -3.54,-9.14 -12.49,-13.41 -20.45,-17.95 3.2,-0.54 6.4,-0.49 9.6,0.15 0.16,-6.34 -6.53,-12.94 -2.15,-18.8 3.84,9.68 4.31,21.85 13.05,28.75 11.86,9.4 18.69,23.9 31.75,32 4.92,2.86 10.33,8.08 16.45,5.6 7.84,-4.08 12.02,-12.24 16.7,-19.3 4.68,-6.26 -0.32,-14.07 -3.6,-19.75 -7.88,-11.32 -17.97,-20.96 -25.85,-32.3 -5.72,-8.64 -13.59,-15.44 -21.15,-22.4 -6.44,-0.72 -12.87,-2.37 -19.35,-2.15 z m 19.7,11.15 c 2.77968,-0.17656 5.64,0.415 8.45,2.05 -8.34,1.36 -15.63,6.42 -20.95,12.8 -1.34,2.24 -3.75,2.43 -5.95,1.35 2.56501,-8.07 10.11094,-15.67031 18.45,-16.2 z m -24.15,57.65 c -3.72,6.32 -7.87,12.75 -6.85,20.45 -2.46,0.4 -4.91,0.8 -7.35,1.2 1.6,-8.52 4.84,-19.03 14.2,-21.65 z"
     id="path12"
     inkscape:connector-curvature="0" />
  <path
     d="m 443.8,145.9 c 4.74,-4.44 11.14,0.14 15.72,2.56 3.9,2.8 9.42,5.88 9.9,11.1 -4.92,10.42 -14.8,17.06 -21.78,25.94 -6.22,7.82 -13.7,14.46 -21.06,21.14 -8.62,0.36 -17.24,0.42 -25.86,0.46 0.22,-4.7 0.38,-9.4 0.5,-14.08 6.04,-7.18 11.68,-14.72 18.52,-21.16 8.54,-8.16 15.62,-17.72 24.06,-25.96 z"
     id="path14"
     inkscape:connector-curvature="0"
     style="fill:#f4722b" />
  <path
     d="m 431.06,212.86 c 5.54,-4.14 10.52,-9 15.38,-13.92 9.32,8.92 12.12,22.24 16.06,34.12 1.18,5.56 0.54,11.3 0.74,16.94 -0.08,14.76 3.34,29.2 4.44,43.86 4.14,23.74 5.6,48.74 17.9,70.1 -1.62,4.48 -5.3,7.78 -8.52,11.16 -12.2,11.82 -24.28,23.78 -36.26,35.82 -12.16,12.1 -26.02,22.36 -40.5,31.54 -6.12,3.68 -12.4,7.5 -19.54,8.88 -0.14,-5.26 -0.14,-10.52 0.08,-15.78 -5.16,-3.1 -11.92,-3.64 -15.86,-8.58 -5.26,-5.82 -10.02,-12.06 -15.32,-17.84 9.2,-0.66 18.3,-2.22 27.52,-2.6 -0.2,-0.64 -0.58,-1.92 -0.78,-2.56 -8.4,-2.06 -17.26,-0.78 -25.76,-2.36 -11.6,-0.76 -22.32,-5.8 -33.92,-6.26 -7.42,-3.4 -12.96,-9.74 -18.86,-15.2 8.9,-11.12 18.94,-21.3 27.68,-32.56 8.48,-11.24 18.84,-20.82 27.7,-31.72 0.44,15.84 -3.72,33.5 5.42,47.64 7.78,8.22 17.22,14.64 26.4,21.18 1.64,1.3 3.64,1.88 5.64,2.26 -4.84,-6.42 -13.78,-8.74 -17.1,-16.54 -8.36,-20.24 -14.74,-42.6 -9.94,-64.52 4.5,-9.46 13.28,-15.82 19.88,-23.74 -1.12,-1.82 -2.24,-3.64 -3.36,-5.48 1.16,0.04 3.46,0.12 4.62,0.14 0.68,0.66 2.06,1.96 2.76,2.6 3.44,-1.04 6.92,-2.58 10.62,-2.2 10.86,2.36 17.64,15.22 29.64,13.62 -4.8,-6.2 -10.5,-11.64 -15.18,-17.92 -7.66,0.7 -15.38,1.26 -23.04,0.28 6.36,-4.22 12.32,-9.88 20.5,-9.66 3.9,-1.14 -2.74,-1.9 -3.76,-1.08 -10.44,3.18 -21.06,5.74 -31.34,9.44 2.92,-7.96 3.1,-16.72 0.2,-24.7 0.74,10.52 -2.58,20.8 -8.34,29.52 -8.02,3.82 -15.52,10.1 -24.86,9.88 -7.1,0.24 -15.28,-0.8 -19.72,-7.1 -6.44,-6.58 -8.66,-19.6 -0.34,-25.58 9.28,-5.8 19.68,-10.64 26.68,-19.36 4.5,-5.82 8.08,-13.36 15.7,-15.6 14.42,-2.18 29.1,0.94 43.5,-1.6 3.54,-0.78 7.12,-0.12 10.46,1.16 4.16,-2.12 8.66,-3.5 12.78,-5.68 z"
     id="path18"
     inkscape:connector-curvature="0"
     style="fill:#f4722b" />
  <path
     d="m 318.96,297.18 c 13.78,1.22 25.62,-7.04 38.98,-8.48 -4.1,6.78 -9.46,12.6 -14.88,18.32 -15.34,17.96 -31.88,35.1 -44.66,55.06 -2.88,5.02 -7.24,8.88 -12.46,11.32 -9.72,-8.28 -20.7,-14.86 -31.36,-21.8 6.04,-8.22 13.42,-15.32 19.56,-23.48 3.52,-4.78 8.5,-9.06 9.1,-15.34 11.22,-1.76 23.02,-4.28 31.46,-12.5 0.54,-3.18 1.1,-6.56 3.8,-8.64 0.12,1.38 0.34,4.14 0.46,5.54 z"
     id="path24"
     inkscape:connector-curvature="0"
     style="fill:#f4722b" />
  <path
     d="m 246.2,299.94 c 2.12,-1.98 5.56,-2.12 8.02,-0.7 6.68,3.64 13.22,7.52 19.8,11.32 -6.46,3.24 -10.3,9.52 -15.06,14.64 -5.3,5.9 -9.86,12.42 -14.64,18.72 -6.48,-4.34 -13.76,-7.36 -20.26,-11.58 -5.14,-5.26 4.06,-9.56 5.9,-14.22 -2.88,-2.8 -7.4,-5.18 -6.88,-9.84 3.14,2.26 6.2,4.64 9.24,7.06 4.46,-5.28 8.62,-10.88 13.88,-15.4 z"
     id="path26"
     inkscape:connector-curvature="0"
     style="fill:#f4722b" />
  <path
     d="m 219.94,345.96 c 5.98,-4.06 11.16,3.6 16.02,6.16 -15,14.86 -30.34,29.5 -43.94,45.68 -30.38,28.42 -54.62,62.48 -81.18,94.28 -20.18,21.8 -26.76,51.74 -31.58,80.14 -0.82,6.52 -4.12,13.72 0.04,19.8 -10.32,11.6 -21.36,22.7 -29.86,35.78 -1.18,1.94 -1.82,4.14 -2.54,6.3 0.24,-10.94 -0.38,-21.9 1.02,-32.8 1.56,-14.7 0.18,-29.64 3.36,-44.18 3.92,-18.5 6.48,-37.68 14.94,-54.8 7.52,-13.36 18.66,-24.14 27.94,-36.22 12.88,-13.76 25.34,-27.92 38.78,-41.14 16,-18.02 35.14,-32.82 52.28,-49.68 11.74,-9.58 22.46,-20.42 34.72,-29.32 z"
     id="path28"
     inkscape:connector-curvature="0"
     style="fill:#f5e5c1" />
  <path
     d="m 191.86,400.02 c 12.74,-17.74 30.52,-30.84 46.04,-45.92 11.22,6.5 22.34,13.16 33.8,19.28 -20.22,18.58 -38.82,38.94 -55.92,60.4 -11.76,15.62 -22.8,31.76 -34.48,47.44 -16.1,20.34 -30.92,41.84 -42.48,65.1 -1.88,3.58 -5.64,5.48 -8.88,7.6 -18,10.7 -35.58,22.4 -50.24,37.48 -4.14,-5.9 -0.34,-12.98 0.3,-19.32 5.44,-26.72 9.9,-55.88 29.2,-76.62 9.4,-12.54 20.08,-24.02 30.46,-35.74 16.78,-20.42 33.3,-41.16 52.2,-59.7 z"
     id="path30"
     inkscape:connector-curvature="0"
     style="fill:#f5e5c1" />
  <path
     d="m 474.46,424.24 c 10.66,-18.02 20,-36.78 28.56,-55.86 11.78,5.66 22.42,13.68 34.98,17.62 31.26,12.32 62.74,24.2 94.58,34.98 13.7,2.82 25.78,9.98 38.14,16.14 22.1,11.9 45.3,21.46 68.84,30.1 -0.22,2.3 -0.42,4.62 -0.6,6.94 3.72,4.88 7.88,9.78 8.98,16.02 1.88,9.1 6.18,17.42 8.94,26.26 7.42,25.96 16.88,51.3 23.08,77.64 2.88,2.1 5.76,4.24 8.6,6.44 -3.5,-16.28 -3.84,-33.24 -10.44,-48.76 -3.04,-14.24 -7.18,-28.52 -7.54,-43.14 3.42,-0.12 8.32,-1.54 10.48,2.1 6.64,12.64 11.08,26.28 16.32,39.52 6.44,16.4 9.88,34.76 22.44,47.94 5.72,5.6 9.7,15.18 18.24,16.44 8.78,-2.32 3.68,-11.9 1.52,-17.48 -3.92,-15.58 -10.82,-30.12 -16.22,-45.2 8.08,0.46 18.7,6.32 25.1,-1.38 2.52,-4.14 0,-8.88 -3.78,-11.12 -9.56,-8.14 -20.18,-14.82 -31.04,-21.08 -7.06,-3.62 -9.72,-11.44 -13.28,-17.98 12.76,5.94 26.02,10.68 39.64,14.2 5.16,0.92 11.62,1.12 15.02,-3.64 3.14,-3.08 2.28,-8.52 -1.12,-11.06 -3.1,-3.28 -8.06,-2.64 -12.06,-3.76 -11.38,-2.06 -19.34,-11.08 -27.92,-18.02 -12.4,-10.52 -24.66,-23.44 -41.54,-25.9 -10.58,-2.3 -21.04,1.52 -30.4,6.18 0.3,-3.02 -0.04,-6.22 1.2,-9.04 16.8,-7.34 35.5,-9.84 51.7,-18.66 6.72,-4.08 9.92,-14.68 19,-14.12 7.12,1.74 12.82,6.8 18.9,10.66 9.58,6.16 17.38,14.54 24.82,23.06 27.14,30.64 50.1,64.74 70.46,100.18 7.38,12.52 8.76,27.3 10.88,41.4 1.06,9.08 3.66,18.2 2.54,27.4 -2.16,7.64 -7.02,14.1 -11.02,20.84 -3.28,5.18 -5.48,11.02 -9.56,15.66 -22.56,-18.32 -51.76,-28.86 -80.9,-27.82 -29.08,0.06 -57.28,12.16 -79.52,30.46 -22.5,18.48 -38.54,44.14 -46.98,71.88 -9.62,-33.12 -31,-62.78 -59.94,-81.64 -29.42,-19.46 -67.4,-26.36 -101.42,-16.28 -13.88,3.42 -26.42,10.42 -38.7,17.46 -6.96,-1.9 -12.42,-7.1 -18.68,-10.5 -13.7,-8 -26.02,-18 -38.76,-27.34 -28.68,-17.72 -56.44,-36.86 -84.22,-55.88 -4.98,-1.96 -6.7,-7.16 -5.48,-12.12 2.66,-16.1 3.98,-32.38 6.38,-48.5 6.2,9.66 11.6,19.82 17.3,29.8 2.7,-0.94 5.7,-1.44 7.84,-3.48 15.64,-14.4 30.84,-29.54 42.8,-47.24 11.34,-16.74 23.42,-32.98 33.84,-50.32 z"
     id="path32"
     inkscape:connector-curvature="0"
     style="fill:#f4722b" />
  <path
     d="m 476.56,389 c 0.6,0.06 1.78,0.16 2.36,0.2 -4.76,1.26 -3.76,6.76 -5.86,10.1 -10.32,21.1 -20.22,42.62 -34.48,61.44 -12.22,19.26 -25.78,37.86 -42.6,53.38 -5.66,-11.42 -13.92,-21.28 -19.72,-32.62 -3.98,-5.56 -10.04,-9.3 -13.74,-15.16 2.66,-7.92 6.38,-15.58 7.2,-24 1.28,0.58 2.56,1.2 3.82,1.88 -0.06,4.92 -0.96,9.78 -1.4,14.7 2.84,1.52 6.3,2.26 9.3,0.62 13.48,-6.3 27.96,-10.82 40.16,-19.6 8.8,-6.64 18.82,-11.7 26.56,-19.7 9.96,-9.92 20.34,-19.64 28.4,-31.24 z"
     id="path34"
     inkscape:connector-curvature="0"
     style="fill:#f5e5c1" />
  <path
     d="m 790.1,517.82 c 4.66,1.82 7.68,5.78 9.62,10.24 -5.8,-0.34 -8.12,-5.34 -9.62,-10.24 z"
     id="path36"
     inkscape:connector-curvature="0"
     style="fill:#f4722b" />
  <path
     d="m 801.98,541.84 c 2.02,1.08 4.46,1.92 5.34,4.3 4.68,8.8 7.78,18.3 10.62,27.82 -5.14,-10.8 -12.66,-20.52 -15.96,-32.12 z"
     id="path38"
     inkscape:connector-curvature="0"
     style="fill:#f4722b" />
  <path
     d="m 325.55,655.8 c -6.21374,0.0341 -12.41501,0.56499 -18.55,1.55 -25.58,4.42 -49.31,17.84 -67.05,36.7 -39.38,41.12 -48.61,106.85 -24.25,157.95 13.68,29.34 38.55,53.72 68.85,65.5 30.18,11.66 65.34,10.07 94.2,-4.65 27.54,-14.06 49.35,-38.59 60.95,-67.15 13.74,-33.26 14.16,-71.67 1.6,-105.35 -11.08,-30.32 -33.25,-56.63 -61.95,-71.65 -16.51499,-8.76 -35.15875,-13.00219 -53.8,-12.9 z m 0.2,82 c 12.81563,-0.0637 25.60499,4.56499 35.4,12.95 21.72,18.16 28.27,49.59 21.85,76.35 -5.94,23.22 -24.76,43.58 -48.7,48.3 -22.2,3.98 -44.45,-9.36 -55.75,-28 -11.18,-17.52 -12.73,-39.66 -8.65,-59.6 4.68,-22.08 20.63,-42.66 43.15,-48.3 4.16501,-1.09499 8.42813,-1.67875 12.7,-1.7 z"
     id="path40"
     style="fill:#f5e5c1"
     inkscape:connector-curvature="0" />
  <path
     d="m 581.15,655.8 c -5.38722,0.1332 -10.77875,0.6225 -16.1,1.5 -45.9,7.72 -83.73,44.4 -97.55,88.2 -11.16,34.16 -9.47,72.63 5.65,105.35 12.1,26.68 33.3,49.33 59.6,62.35 28.1,14.16 62.1,15.81 91.6,5.05 33.26,-12.28 59.95,-39.81 73.25,-72.45 13.58,-32.78 14.16,-70.56 2.2,-103.9 -9.64,-27.26 -28.04,-51.46 -52.3,-67.3 -19.5,-13.01626 -43.00541,-19.3772 -66.35,-18.8 z m 3.2,82 c 13.55531,0.10032 27.02,5.50499 36.95,14.85 20.44,18.82 25.98,49.6 19.3,75.8 -6.62,23.94 -27.26,44.86 -52.6,47.5 -27.78,2.1 -52.37,-20.29 -59.35,-46.15 -7.02,-27.2 -1.53,-59.76 20.45,-78.8 6.32,-5.34 13.78,-9.38 21.8,-11.5 4.41499,-1.19 8.93157,-1.73344 13.45,-1.7 z"
     id="path42"
     style="fill:#f5e5c1"
     inkscape:connector-curvature="0" />
  <path
     d="m 844,655.8 c -7.6331,-0.11003 -15.2875,0.5 -22.8,1.8 -27.22,5.22 -52.13,20.52 -69.95,41.6 -37.52,43.66 -43.58,110.77 -15.5,160.85 17.98,32.9 50.86,57.92 88.2,63.8 20.54,2.88 41.98,1.13 61.3,-6.75 29.1,-11.68 52.99,-35 66.65,-63.1 18.38,-37.24 18.99,-82.58 2.55,-120.6 C 942.37,705.08 920.3,680.97 892.6,667.35 877.53,659.80125 860.79283,656.04208 844,655.8 z m -3.6,82.05 c 11.41226,-0.32747 22.89,2.90374 32.25,9.55 16.16,10.84 25.72,29.64 27.9,48.7 1.38,14.34 0.67,29.43 -5.85,42.55 -8.46,18.84 -26.1,34.07 -46.8,37.15 -22.46,2.74 -44.14,-11.54 -54.8,-30.7 -10.72,-18.72 -11.61,-41.86 -5.95,-62.3 5.9,-21.32 23.07,-40.09 45.35,-44.15 2.59875,-0.4575 5.2664,-0.72443 7.9,-0.8 z"
     id="path44"
     style="fill:#f5e5c1"
     inkscape:connector-curvature="0" />
  <path
     d="m 114.88,666.9 c 4.02,-3.18 7.32,-9.2 13.24,-7.88 19.46,1.36 38.92,2.38 58.36,3.98 -4.16,87.34 -7.44,174.74 -11.58,262.08 -22.68,-0.64 -45.3,-2.52 -67.98,-3.18 2.12,-60.7 4.74,-121.4 6.64,-182.12 -5.88,5.64 -11.62,11.42 -17.04,17.52 -11,-13.12 -21.88,-26.34 -32.92,-39.42 16.86,-17.22 34.38,-33.78 51.28,-50.98 z"
     id="path46"
     inkscape:connector-curvature="0"
     style="fill:#f5e5c1" />
</svg>
