<?xml version="1.0" encoding="UTF-8" ?>
<!DOCTYPE svg PUBLIC "-//W3C//DTD SVG 1.1//EN" "http://www.w3.org/Graphics/SVG/1.1/DTD/svg11.dtd">
<svg width="512pt" height="512pt" viewBox="0 0 512 512" version="1.1" xmlns="http://www.w3.org/2000/svg">
<path fill="#3e3e3e" opacity="1.00" d=" M 0.00 0.00 L 244.88 0.00 C 248.54 4.19 252.55 8.27 254.80 13.45 C 257.35 18.91 261.20 23.58 264.36 28.67 C 269.81 37.25 279.23 42.82 289.23 44.23 C 287.62 46.52 286.07 48.86 284.88 51.40 C 289.40 47.53 291.79 41.68 296.92 38.37 C 290.66 37.28 284.21 35.86 278.94 32.12 C 274.32 28.83 268.69 27.33 264.26 23.75 C 260.89 21.05 257.19 18.23 255.64 14.03 C 253.91 9.54 254.39 4.58 255.46 0.00 L 512.00 0.00 L 512.00 327.92 C 510.01 328.11 508.02 328.29 506.03 328.45 C 503.95 327.14 501.67 325.26 499.05 326.28 C 494.56 327.94 491.04 331.57 488.38 335.45 C 485.96 339.01 482.65 341.83 480.12 345.30 C 478.03 345.28 475.93 345.26 473.84 345.26 C 468.43 340.33 462.93 333.97 455.08 333.58 C 447.42 333.46 439.76 334.32 432.19 335.44 C 433.14 332.50 433.97 329.42 435.92 326.96 C 441.39 319.96 447.13 313.17 453.60 307.07 C 454.50 313.67 456.33 320.83 461.74 325.24 C 464.21 327.38 467.55 327.70 470.67 328.04 C 472.98 319.66 476.84 311.80 481.50 304.50 C 485.38 298.86 490.24 293.99 494.81 288.93 C 488.25 289.71 483.24 294.31 478.64 298.64 C 474.93 302.13 472.54 306.68 469.73 310.86 C 467.01 303.96 466.48 296.48 466.51 289.14 C 466.12 283.72 458.81 281.76 454.85 284.87 C 450.71 288.05 447.96 292.64 444.22 296.26 C 437.05 303.45 430.21 310.97 423.85 318.89 C 421.06 322.40 419.57 327.07 415.54 329.47 C 408.78 333.74 401.74 337.70 395.86 343.20 C 392.00 343.28 388.14 343.29 384.29 343.56 C 381.01 339.07 377.80 334.54 374.57 330.02 C 393.41 319.02 412.18 307.90 431.07 296.99 C 423.15 285.96 415.19 274.95 407.56 263.72 C 415.70 261.97 424.35 264.96 432.13 261.43 C 439.78 262.01 447.73 266.42 455.27 263.25 C 460.58 260.66 457.90 253.90 460.68 249.73 C 466.20 240.55 473.93 233.03 480.83 224.92 C 478.32 219.62 475.46 214.48 473.33 209.00 C 474.07 206.61 476.08 203.93 474.58 201.45 C 473.24 199.87 471.18 199.18 469.45 198.16 C 468.50 192.50 469.36 186.79 470.77 181.30 C 477.70 184.08 484.98 187.09 492.62 186.17 C 493.01 176.05 491.58 165.98 490.69 155.91 C 489.44 155.79 488.19 155.67 486.95 155.55 C 486.54 152.23 486.30 148.89 486.19 145.55 C 487.62 145.38 489.06 145.21 490.51 145.04 C 490.69 141.19 491.28 137.37 492.46 133.70 C 489.82 129.90 486.66 125.92 486.69 121.05 C 486.63 115.82 487.39 110.20 484.51 105.52 C 482.24 101.83 481.46 97.46 479.33 93.74 C 476.89 91.29 474.05 94.12 471.45 94.72 C 466.31 89.78 461.31 84.65 456.85 79.07 C 453.13 74.28 447.04 72.52 442.40 68.85 C 440.58 69.42 438.79 70.26 436.87 70.35 C 433.32 69.90 430.89 66.42 430.68 63.01 C 429.87 54.68 431.37 46.27 430.01 37.97 C 429.52 35.47 429.61 32.54 431.86 30.89 C 439.56 24.80 448.39 20.36 457.33 16.39 C 460.56 14.99 464.14 14.69 467.41 13.40 C 468.71 11.88 469.45 9.98 470.34 8.21 C 464.12 11.74 457.78 15.26 450.83 17.11 C 447.78 18.07 445.18 15.20 442.15 15.41 C 440.70 15.85 439.44 16.71 438.15 17.45 C 438.64 14.83 439.07 12.20 439.46 9.56 C 434.93 12.76 427.98 14.79 426.93 21.01 C 424.30 31.96 422.11 43.02 419.92 54.07 C 418.60 59.26 422.62 63.64 426.15 66.85 C 435.17 75.36 446.22 81.28 455.18 89.87 C 457.79 93.06 462.44 90.00 465.27 92.66 C 466.46 93.56 467.55 94.59 468.66 95.59 C 468.58 97.49 467.00 99.85 468.67 101.45 C 470.97 103.81 474.23 105.29 475.75 108.37 C 477.98 112.72 478.01 117.74 478.77 122.47 C 479.29 125.72 480.81 128.72 481.26 131.99 C 480.01 136.64 476.53 140.37 475.41 145.07 C 475.06 148.42 476.29 151.67 476.85 154.93 C 467.08 152.50 457.50 148.30 447.20 149.30 C 445.59 145.65 442.94 142.25 438.84 141.39 C 428.68 138.98 416.73 140.72 409.15 148.39 C 408.57 148.55 407.43 148.87 406.85 149.02 C 406.68 146.57 406.50 144.11 406.29 141.66 C 407.01 141.56 408.45 141.35 409.17 141.24 C 408.89 140.24 409.38 138.15 407.87 138.12 C 401.65 136.45 396.81 141.92 390.74 141.80 C 390.28 136.83 390.31 131.75 391.96 126.98 C 390.25 132.31 385.06 135.56 383.81 141.11 C 386.15 142.68 388.49 144.25 390.84 145.80 C 393.34 144.41 395.85 143.03 398.40 141.73 C 398.13 144.50 397.78 147.26 397.36 150.01 C 392.93 153.04 388.37 155.88 384.14 159.20 C 380.31 162.56 374.73 162.50 370.85 165.81 C 365.31 170.30 359.41 174.34 353.93 178.91 C 352.43 180.27 350.37 181.69 350.84 184.02 C 349.40 181.97 348.19 179.35 345.96 178.15 C 342.61 178.67 339.35 179.86 336.35 181.42 C 334.36 185.93 333.69 190.90 332.27 195.59 C 335.57 194.71 338.89 193.86 342.20 192.97 C 343.29 194.47 344.37 195.97 345.44 197.48 C 344.28 201.66 344.58 206.02 344.59 210.31 C 342.08 207.00 339.72 203.59 337.37 200.18 C 330.22 202.57 322.90 204.42 315.72 206.72 C 308.69 229.52 301.86 252.39 294.71 275.16 C 295.96 276.73 297.21 278.30 298.43 279.90 C 298.91 279.86 299.88 279.76 300.36 279.72 C 301.82 277.57 303.20 274.66 306.14 274.40 C 309.72 273.61 313.46 275.91 314.67 279.30 C 315.77 282.81 316.14 286.50 316.72 290.13 C 321.98 293.53 323.44 300.15 328.13 304.08 C 329.56 304.35 330.94 303.51 332.31 303.18 C 352.48 295.81 372.82 288.92 393.03 281.65 C 390.77 278.01 387.91 274.73 386.05 270.86 C 386.77 267.51 390.43 266.21 393.20 264.94 C 399.63 273.99 406.00 283.07 412.45 292.11 C 387.75 300.14 363.11 308.37 338.34 316.17 C 344.26 325.62 350.47 334.88 356.69 344.14 C 352.93 343.62 349.14 343.43 345.35 343.60 C 345.08 343.19 344.54 342.37 344.27 341.96 C 342.84 342.14 341.41 342.25 339.99 342.29 C 338.96 341.36 338.08 340.28 337.17 339.25 C 338.16 337.87 339.17 336.49 340.17 335.12 C 336.39 329.13 332.62 323.13 328.84 317.13 C 327.27 314.09 323.40 314.08 321.01 312.00 C 317.02 308.97 315.61 303.97 313.17 299.81 C 311.54 299.25 309.91 298.69 308.29 298.12 C 309.34 301.23 310.47 304.78 308.90 307.93 C 307.72 310.84 304.71 312.19 302.13 313.58 C 301.56 324.04 299.40 334.29 297.32 344.52 C 296.73 348.12 295.71 352.03 297.42 355.49 C 299.03 359.01 300.94 362.43 301.82 366.24 C 304.61 376.21 302.87 386.68 304.63 396.80 C 309.28 394.87 313.64 392.21 318.48 390.76 C 327.15 389.43 335.85 391.56 344.54 391.54 C 313.11 404.24 281.82 417.27 250.37 429.92 C 239.27 408.28 227.91 386.78 216.87 365.11 C 212.53 366.20 208.32 367.67 204.13 369.24 C 200.45 368.10 196.74 366.56 194.01 363.75 C 200.05 361.03 206.38 359.01 212.55 356.60 C 215.75 355.29 219.44 354.43 221.71 351.61 C 224.49 348.60 226.13 343.68 231.00 343.76 C 233.48 338.99 236.71 334.67 240.03 330.45 C 239.21 330.18 237.59 329.63 236.77 329.36 C 237.99 326.10 239.33 322.43 242.61 320.74 C 245.77 319.14 249.17 318.08 252.32 316.44 C 250.52 314.64 248.80 312.74 246.81 311.14 C 244.27 312.94 242.37 316.16 238.99 316.35 C 230.55 316.85 221.53 317.12 214.05 312.53 C 209.13 316.43 204.64 320.92 199.21 324.15 C 195.71 326.22 192.30 328.51 189.53 331.51 C 186.93 334.43 183.16 335.73 180.07 337.98 C 168.68 346.75 157.67 356.02 147.25 365.93 C 148.52 370.62 149.87 375.29 151.27 379.94 C 160.89 376.65 170.15 372.26 179.87 369.35 C 182.97 371.32 185.73 373.78 188.87 375.71 C 186.89 375.91 184.91 376.23 183.03 376.91 C 169.23 381.97 155.46 387.11 141.61 392.02 C 136.69 374.36 131.70 356.72 126.84 339.05 C 133.69 339.63 140.68 340.16 147.47 338.75 C 148.93 334.52 149.44 330.05 150.72 325.79 C 154.06 320.77 160.38 318.62 166.09 317.66 C 171.22 317.16 175.27 313.63 179.99 311.91 C 183.04 310.45 186.92 309.96 188.82 306.83 C 191.20 303.12 195.35 299.82 200.02 300.87 C 203.01 301.92 205.26 304.33 208.02 305.84 C 210.16 306.81 211.00 309.14 212.69 310.63 C 211.84 308.18 209.83 306.29 209.18 303.75 C 208.41 300.76 209.25 297.68 209.70 294.70 C 205.73 294.80 202.11 293.21 199.39 290.36 C 197.52 290.74 195.65 291.14 193.79 291.54 C 193.72 295.03 193.45 299.09 190.27 301.27 C 186.05 304.50 179.08 303.06 176.71 298.20 C 174.73 295.10 176.03 291.37 176.57 288.06 C 166.92 290.91 157.79 295.33 147.95 297.59 C 141.53 299.06 135.20 300.93 128.90 302.85 C 130.71 309.74 132.81 316.55 134.82 323.38 C 132.49 322.46 130.04 320.80 127.43 321.59 C 124.91 322.36 124.11 325.14 123.06 327.24 C 119.22 308.89 112.74 291.16 108.64 272.87 C 109.67 272.08 110.83 271.48 112.04 271.01 C 133.21 263.55 154.41 256.14 175.52 248.52 C 173.38 242.85 171.52 237.07 169.46 231.37 C 163.78 231.81 158.07 231.55 152.46 230.54 C 153.75 233.59 154.95 236.68 156.02 239.82 C 133.96 248.11 111.90 256.39 89.91 264.85 C 96.36 285.03 102.15 305.42 108.43 325.65 C 108.14 325.86 107.57 326.27 107.28 326.48 C 105.14 325.14 102.81 324.16 100.39 323.47 C 101.43 328.27 103.07 333.30 101.46 338.18 C 99.95 343.03 98.64 348.31 95.10 352.12 C 91.63 354.55 87.40 355.59 83.54 357.27 C 80.32 358.91 76.66 356.80 75.18 353.82 C 71.78 347.49 67.78 341.46 65.11 334.76 C 62.25 333.76 59.43 332.64 56.67 331.36 C 58.91 334.25 62.44 336.92 62.09 340.98 C 61.05 349.22 54.90 355.98 47.73 359.71 C 39.28 364.77 29.53 366.97 19.95 368.74 C 18.15 367.05 16.58 364.84 14.10 364.14 C 9.43 362.94 4.48 363.71 0.00 365.32 L 0.00 0.00 Z" />
<path fill="#f4722b" opacity="1.00" d=" M 244.88 0.00 L 255.46 0.00 C 254.39 4.58 253.91 9.54 255.64 14.03 C 257.19 18.23 260.89 21.05 264.26 23.75 C 268.69 27.33 274.32 28.83 278.94 32.12 C 284.21 35.86 290.66 37.28 296.92 38.37 C 291.79 41.68 289.40 47.53 284.88 51.40 C 286.07 48.86 287.62 46.52 289.23 44.23 C 279.23 42.82 269.81 37.25 264.36 28.67 C 261.20 23.58 257.35 18.91 254.80 13.45 C 252.55 8.27 248.54 4.19 244.88 0.00 Z" />
<path fill="#f4722b" opacity="1.00" d=" M 176.03 11.78 C 179.24 12.51 181.77 10.07 184.07 8.27 C 186.26 10.27 188.54 12.19 190.88 14.03 C 187.51 17.61 183.13 20.13 178.24 20.91 C 178.78 31.97 179.77 43.63 185.59 53.34 C 187.63 56.37 186.75 60.31 188.60 63.41 C 190.50 66.79 191.39 70.59 192.90 74.12 C 197.93 76.95 203.93 77.43 209.48 78.75 C 214.05 79.45 219.36 81.74 223.43 78.43 C 225.28 75.38 226.96 71.53 230.97 70.99 C 238.94 69.91 247.07 71.33 255.03 70.04 C 260.61 69.45 266.31 67.73 271.90 69.11 C 273.91 69.56 275.23 71.25 276.57 72.67 C 276.49 73.42 276.32 74.94 276.23 75.70 C 279.93 75.54 283.59 76.17 287.12 77.25 C 285.83 71.15 283.17 65.30 283.28 58.97 C 283.96 66.42 288.96 72.92 287.75 80.63 C 284.53 78.69 280.81 77.68 277.06 77.63 C 274.86 77.88 272.91 79.01 270.79 79.56 C 268.49 78.96 266.45 77.59 264.08 77.18 C 257.97 75.88 252.08 73.63 245.89 72.65 C 241.57 71.78 237.89 74.71 233.96 75.91 C 229.34 77.84 223.08 78.11 221.11 83.56 C 209.71 82.80 198.09 78.40 186.76 81.78 C 185.92 81.59 185.08 81.40 184.24 81.22 C 183.21 83.76 182.09 86.27 180.93 88.76 C 184.99 88.73 189.05 88.70 193.10 88.56 C 197.01 88.19 200.31 90.79 204.08 91.35 C 215.61 93.71 227.46 93.99 239.03 96.21 C 242.41 96.95 245.90 97.09 249.30 97.72 C 251.17 98.30 251.91 100.29 252.20 102.05 C 255.23 118.29 257.49 134.73 257.41 151.28 C 256.64 150.88 255.89 150.47 255.13 150.06 C 254.86 148.04 254.63 146.01 254.39 143.99 C 254.40 146.72 254.52 149.46 254.47 152.20 C 254.36 154.64 254.47 157.65 252.25 159.25 C 250.07 160.30 247.48 160.14 245.33 161.23 C 243.55 162.78 242.34 164.84 241.11 166.83 C 239.46 169.66 238.03 172.61 236.68 175.59 C 241.72 174.58 247.07 173.55 251.16 170.22 C 253.61 168.28 254.30 165.05 255.42 162.29 C 255.65 162.68 256.10 163.45 256.32 163.84 C 256.97 167.20 255.94 170.65 253.24 172.82 C 261.12 184.97 269.56 196.74 277.48 208.86 C 270.30 226.24 263.23 243.67 256.00 261.03 C 253.63 259.54 250.98 257.71 248.04 258.71 C 240.16 260.15 231.85 266.16 231.78 274.83 C 230.33 274.77 228.88 274.71 227.43 274.65 C 225.36 270.38 222.49 266.04 217.98 264.11 C 214.65 262.72 211.01 263.47 207.88 264.96 C 205.02 266.43 201.92 263.77 199.01 264.94 C 196.95 265.64 194.59 267.44 195.42 269.93 C 196.48 273.00 200.06 273.90 202.74 275.05 C 202.57 277.06 201.28 278.61 200.14 280.18 C 198.90 281.86 198.69 284.01 197.91 285.90 C 196.02 286.68 193.97 287.07 191.93 287.05 C 189.56 286.45 187.47 285.00 185.04 284.61 C 181.72 284.33 179.17 287.09 175.96 287.41 C 172.51 287.86 169.08 288.56 165.87 289.92 C 153.65 294.81 140.68 297.27 127.99 300.57 C 126.05 292.81 123.67 285.17 121.31 277.53 C 122.79 277.32 124.31 276.46 125.82 276.94 C 130.81 278.50 136.10 277.50 141.23 277.53 C 139.68 274.47 136.14 273.96 133.12 273.39 C 135.82 272.80 138.49 272.08 141.10 271.18 C 158.16 265.45 175.32 260.04 192.32 254.17 C 188.44 246.10 184.41 238.11 180.49 230.06 C 181.58 228.47 183.43 227.06 183.41 224.97 C 183.44 221.80 180.80 219.29 177.95 218.39 C 173.95 216.96 169.64 218.12 165.56 217.17 C 158.86 215.34 151.86 215.14 145.02 214.06 C 135.66 213.53 126.40 211.52 117.00 211.78 C 111.91 211.85 106.89 212.77 101.81 212.86 C 104.74 207.43 111.42 207.14 116.26 204.30 C 123.39 200.01 130.29 195.23 136.11 189.24 C 137.54 187.88 138.94 186.50 140.31 185.08 C 143.48 181.70 147.06 178.69 149.79 174.92 C 145.10 170.84 139.93 167.32 134.32 164.63 C 127.02 161.14 121.47 155.09 115.93 149.38 C 113.63 151.29 111.15 152.98 109.07 155.12 C 106.86 157.67 105.28 160.68 103.37 163.45 C 100.40 168.06 96.85 172.33 94.53 177.34 C 91.80 183.04 89.51 188.94 87.63 194.97 C 84.90 203.98 80.88 212.60 79.33 221.95 C 78.76 223.13 79.15 225.28 77.77 225.84 C 74.51 217.63 69.95 210.03 65.27 202.56 C 59.94 194.36 53.31 187.12 47.60 179.20 C 48.34 177.52 49.43 175.94 49.66 174.09 C 50.18 165.00 51.62 155.54 48.17 146.81 C 43.80 134.98 38.59 122.39 28.26 114.54 C 26.74 122.04 28.14 129.68 27.57 137.25 C 26.88 128.07 24.65 119.00 25.47 109.74 C 37.46 115.98 46.16 127.00 51.53 139.21 C 55.29 135.96 59.94 133.57 62.57 129.19 C 61.41 131.30 60.20 133.48 60.04 135.94 C 59.59 141.70 59.10 147.61 60.61 153.27 C 63.50 149.36 65.10 144.72 67.15 140.36 C 65.78 139.99 64.42 139.63 63.06 139.27 C 63.85 135.01 68.30 133.67 71.19 131.16 C 73.94 125.97 75.32 120.16 77.93 114.88 C 83.06 104.17 85.81 92.57 89.46 81.33 C 90.50 77.42 93.04 74.28 95.19 70.95 C 96.08 66.58 95.23 61.84 92.96 58.01 C 90.84 54.85 87.62 52.68 84.77 50.23 C 80.84 47.00 74.69 46.73 72.13 41.87 C 69.86 37.89 67.47 33.97 65.27 29.95 C 66.24 27.47 67.73 24.05 70.86 24.07 C 80.46 23.85 88.80 29.13 97.12 33.14 C 96.06 31.11 94.97 29.11 93.93 27.07 C 98.59 31.27 102.80 36.02 106.08 41.39 C 104.32 41.50 102.45 41.94 100.78 41.16 C 95.69 39.10 90.87 36.44 85.96 33.98 C 81.36 31.66 76.30 30.54 71.40 29.07 C 70.40 31.68 69.70 34.98 71.77 37.29 C 75.82 42.22 83.17 41.18 88.01 44.92 C 94.90 50.18 97.71 59.30 96.86 67.71 C 97.40 67.36 98.49 66.66 99.03 66.31 C 97.07 74.90 93.53 83.01 90.06 91.07 C 87.05 97.08 84.56 103.38 83.13 109.95 C 82.37 113.17 83.40 116.71 81.78 119.73 C 76.01 131.88 68.99 143.67 66.09 156.95 C 64.50 164.28 62.38 171.54 61.57 179.02 C 61.15 182.18 63.88 184.41 66.72 184.92 C 66.29 189.21 66.00 196.37 72.06 196.36 C 75.91 185.77 78.77 174.61 84.95 165.04 C 88.30 160.02 91.65 155.00 94.85 149.89 C 97.18 146.10 100.47 143.04 103.21 139.57 C 103.75 136.57 104.57 133.64 105.52 130.75 C 109.10 131.83 110.59 135.51 112.82 138.16 C 120.84 149.07 131.24 157.96 142.27 165.69 C 149.58 170.14 156.96 175.94 166.01 175.50 C 165.60 176.31 165.17 177.11 164.73 177.90 C 158.58 187.58 149.87 195.19 141.69 203.09 C 140.77 203.95 139.86 204.81 138.95 205.67 C 140.22 205.67 141.49 205.66 142.76 205.66 C 148.63 205.54 154.53 206.01 160.38 205.33 C 162.49 204.36 164.53 203.24 166.59 202.16 C 166.09 200.96 165.59 199.78 165.10 198.59 C 184.79 192.44 204.45 186.19 224.13 180.02 C 224.96 176.97 225.86 173.94 227.15 171.05 C 229.28 166.63 231.65 162.30 234.26 158.14 C 236.80 154.22 240.60 151.35 244.73 149.28 C 243.65 139.23 240.64 129.23 242.07 119.05 C 242.16 114.90 245.22 111.18 244.06 106.97 C 243.68 102.88 240.00 99.68 235.94 99.58 C 230.29 99.42 224.63 99.59 218.97 99.61 C 210.96 100.11 203.04 101.48 195.07 102.40 C 182.47 103.58 170.50 108.28 159.26 113.88 C 161.59 104.48 168.39 96.82 170.28 87.25 C 171.86 81.46 176.45 77.23 178.89 71.86 C 177.73 68.30 175.41 65.27 173.95 61.84 C 170.85 55.53 170.11 48.44 167.79 41.86 C 166.53 39.23 168.83 37.09 170.18 35.08 C 169.44 30.41 169.36 25.66 168.67 20.98 C 168.20 18.09 165.32 16.03 165.55 12.96 C 165.46 10.84 167.57 9.65 168.75 8.19 C 171.68 8.22 173.87 10.04 176.03 11.78 Z" />
<path fill="#f4722b" opacity="1.00" d=" M 450.83 17.11 C 457.78 15.26 464.12 11.74 470.34 8.21 C 469.45 9.98 468.71 11.88 467.41 13.40 C 464.14 14.69 460.56 14.99 457.33 16.39 C 448.39 20.36 439.56 24.80 431.86 30.89 C 429.61 32.54 429.52 35.47 430.01 37.97 C 431.37 46.27 429.87 54.68 430.68 63.01 C 430.89 66.42 433.32 69.90 436.87 70.35 C 438.79 70.26 440.58 69.42 442.40 68.85 C 447.04 72.52 453.13 74.28 456.85 79.07 C 461.31 84.65 466.31 89.78 471.45 94.72 C 474.05 94.12 476.89 91.29 479.33 93.74 C 481.46 97.46 482.24 101.83 484.51 105.52 C 487.39 110.20 486.63 115.82 486.69 121.05 C 486.66 125.92 489.82 129.90 492.46 133.70 C 491.28 137.37 490.69 141.19 490.51 145.04 C 489.06 145.21 487.62 145.38 486.19 145.55 C 486.30 148.89 486.54 152.23 486.95 155.55 C 488.19 155.67 489.44 155.79 490.69 155.91 C 491.58 165.98 493.01 176.05 492.62 186.17 C 484.98 187.09 477.70 184.08 470.77 181.30 C 469.36 186.79 468.50 192.50 469.45 198.16 C 471.18 199.18 473.24 199.87 474.58 201.45 C 476.08 203.93 474.07 206.61 473.33 209.00 C 475.46 214.48 478.32 219.62 480.83 224.92 C 473.93 233.03 466.20 240.55 460.68 249.73 C 457.90 253.90 460.58 260.66 455.27 263.25 C 447.73 266.42 439.78 262.01 432.13 261.43 C 424.35 264.96 415.70 261.97 407.56 263.72 C 402.81 262.36 397.85 263.84 393.20 264.94 C 390.43 266.21 386.77 267.51 386.05 270.86 C 387.91 274.73 390.77 278.01 393.03 281.65 C 372.82 288.92 352.48 295.81 332.31 303.18 C 330.94 303.51 329.56 304.35 328.13 304.08 C 323.44 300.15 321.98 293.53 316.72 290.13 C 316.14 286.50 315.77 282.81 314.67 279.30 C 313.46 275.91 309.72 273.61 306.14 274.40 C 303.20 274.66 301.82 277.57 300.36 279.72 C 299.88 279.76 298.91 279.86 298.43 279.90 C 297.21 278.30 295.96 276.73 294.71 275.16 C 301.86 252.39 308.69 229.52 315.72 206.72 C 322.90 204.42 330.22 202.57 337.37 200.18 C 339.72 203.59 342.08 207.00 344.59 210.31 C 344.58 206.02 344.28 201.66 345.44 197.48 C 347.01 192.91 350.72 189.00 350.84 184.02 C 350.37 181.69 352.43 180.27 353.93 178.91 C 359.41 174.34 365.31 170.30 370.85 165.81 C 374.73 162.50 380.31 162.56 384.14 159.20 C 388.37 155.88 392.93 153.04 397.36 150.01 C 397.78 147.26 398.13 144.50 398.40 141.73 C 395.85 143.03 393.34 144.41 390.84 145.80 C 388.49 144.25 386.15 142.68 383.81 141.11 C 385.06 135.56 390.25 132.31 391.96 126.98 C 390.31 131.75 390.28 136.83 390.74 141.80 C 396.81 141.92 401.65 136.45 407.87 138.12 C 409.38 138.15 408.89 140.24 409.17 141.24 C 408.45 141.35 407.01 141.56 406.29 141.66 C 406.50 144.11 406.68 146.57 406.85 149.02 C 407.43 148.87 408.57 148.55 409.15 148.39 C 416.73 140.72 428.68 138.98 438.84 141.39 C 442.94 142.25 445.59 145.65 447.20 149.30 C 457.50 148.30 467.08 152.50 476.85 154.93 C 476.29 151.67 475.06 148.42 475.41 145.07 C 476.53 140.37 480.01 136.64 481.26 131.99 C 480.81 128.72 479.29 125.72 478.77 122.47 C 478.01 117.74 477.98 112.72 475.75 108.37 C 474.23 105.29 470.97 103.81 468.67 101.45 C 467.00 99.85 468.58 97.49 468.66 95.59 C 467.55 94.59 466.46 93.56 465.27 92.66 C 462.44 90.00 457.79 93.06 455.18 89.87 C 446.22 81.28 435.17 75.36 426.15 66.85 C 422.62 63.64 418.60 59.26 419.92 54.07 C 422.11 43.02 424.30 31.96 426.93 21.01 C 427.98 14.79 434.93 12.76 439.46 9.56 C 439.07 12.20 438.64 14.83 438.15 17.45 C 439.44 16.71 440.70 15.85 442.15 15.41 C 445.18 15.20 447.78 18.07 450.83 17.11 Z" />
<path fill="#f4722b" opacity="1.00" d=" M 347.58 13.11 C 349.81 11.89 352.20 9.42 354.91 10.91 C 360.03 12.79 365.11 14.80 370.14 16.94 C 369.28 19.16 368.41 21.39 367.55 23.61 C 365.76 28.24 363.96 32.86 362.16 37.48 C 343.65 84.90 325.29 132.39 306.76 179.80 C 306.01 182.58 303.76 184.31 301.24 185.46 C 298.31 184.17 295.31 183.04 292.29 182.01 C 294.43 174.48 297.08 167.10 299.72 159.73 C 301.02 156.13 301.42 152.29 301.58 148.49 C 302.05 148.21 302.98 147.67 303.45 147.39 C 310.27 124.64 317.22 101.93 324.18 79.22 C 327.46 70.59 330.18 61.76 333.31 53.07 C 335.72 46.20 337.27 39.04 340.03 32.30 C 342.92 26.17 345.34 19.82 347.48 13.40 L 347.58 13.11 Z" />
<path fill="#f5e5c1" opacity="1.00" d=" M 339.88 15.97 C 342.41 15.12 344.92 14.18 347.48 13.40 C 345.34 19.82 342.92 26.17 340.03 32.30 C 338.61 29.99 336.94 27.70 336.45 24.97 C 337.25 21.85 338.63 18.93 339.88 15.97 Z" />
<path fill="#3e3e3e" opacity="1.00" d=" M 352.55 16.71 C 356.79 14.80 363.13 17.84 362.41 22.95 C 362.51 27.91 356.31 32.55 351.94 29.09 C 347.36 26.28 347.36 18.84 352.55 16.71 Z" />
<path fill="#f5e5c1" opacity="1.00" d=" M 350.06 24.22 C 349.98 20.36 354.14 16.28 357.88 18.39 C 355.50 20.58 353.27 23.25 350.06 24.22 Z" />
<path fill="#f4722b" opacity="1.00" d=" M 372.16 17.87 C 377.91 19.54 383.36 22.04 388.98 24.10 C 389.93 26.01 390.98 27.89 391.62 29.94 C 390.58 34.14 388.38 37.93 386.78 41.93 C 379.00 60.98 369.77 79.37 361.03 97.99 C 364.41 97.53 367.75 96.75 371.15 96.47 C 377.39 102.63 384.94 107.35 391.32 113.33 C 391.81 117.23 392.20 121.15 392.80 125.04 C 391.80 121.25 391.54 117.11 389.24 113.80 C 385.51 108.23 379.42 104.37 373.05 102.56 C 368.01 103.11 363.14 105.57 357.98 104.38 C 352.50 116.35 346.93 128.27 341.20 140.12 C 337.22 149.79 332.90 159.31 328.74 168.91 C 325.21 176.50 321.19 183.89 318.05 191.67 C 314.50 190.16 309.51 189.97 307.59 186.10 C 307.51 183.26 309.16 180.70 310.05 178.07 C 328.13 131.63 346.11 85.16 364.18 38.72 C 365.97 34.03 367.81 29.35 369.67 24.68 C 370.54 22.43 371.35 20.15 372.16 17.87 Z" />
<path fill="#f5e5c1" opacity="1.00" d=" M 351.77 27.19 C 354.96 25.03 358.06 22.68 361.58 21.07 C 361.13 24.08 359.94 26.91 357.42 28.74 C 355.46 28.53 353.52 28.11 351.77 27.19 Z" />
<path fill="#f5e5c1" opacity="1.00" d=" M 362.16 37.48 C 363.96 32.86 365.76 28.24 367.55 23.61 C 368.08 23.88 369.14 24.41 369.67 24.68 C 367.81 29.35 365.97 34.03 364.18 38.72 C 363.68 38.41 362.66 37.79 362.16 37.48 Z" />
<path fill="#3e3e3e" opacity="1.00" d=" M 373.95 28.02 C 375.17 26.87 376.65 26.05 378.04 25.12 C 379.97 26.14 382.47 26.70 383.46 28.88 C 383.68 32.06 382.03 36.93 378.06 36.48 C 373.82 36.62 371.73 31.21 373.95 28.02 Z" />
<path fill="#f5e5c1" opacity="1.00" d=" M 376.33 28.52 C 377.16 27.98 378.02 27.50 378.88 27.00 C 381.11 28.46 382.45 30.70 381.86 33.44 C 380.09 31.72 378.48 29.79 376.33 28.52 Z" />
<path fill="#f5e5c1" opacity="1.00" d=" M 374.70 29.82 C 376.78 30.96 377.92 33.12 379.15 35.05 C 377.58 34.61 376.06 34.06 374.56 33.43 C 374.60 32.23 374.65 31.02 374.70 29.82 Z" />
<path fill="#3e3e3e" opacity="1.00" d=" M 409.25 150.20 C 416.79 145.76 424.95 141.48 433.95 141.65 C 441.14 142.53 446.78 147.97 449.80 154.29 C 451.75 157.18 451.75 161.09 454.21 163.65 C 456.76 162.90 459.42 162.72 462.08 162.78 C 465.54 163.11 468.55 160.60 472.06 161.35 C 475.01 161.87 478.74 160.41 480.94 163.06 C 482.82 164.98 485.30 166.03 487.57 167.37 C 489.63 170.83 489.95 174.98 489.67 178.92 C 484.76 178.02 479.85 176.93 475.32 174.77 C 471.92 173.08 467.67 172.28 464.13 173.90 C 461.23 177.52 461.20 182.63 462.10 186.99 C 463.09 191.47 461.70 196.02 462.41 200.52 C 463.58 205.13 458.96 209.23 461.12 213.85 C 464.16 220.60 467.01 227.46 470.59 233.95 C 467.22 237.17 464.17 240.69 461.10 244.17 C 460.18 244.95 459.40 246.32 458.03 246.20 C 452.28 246.30 445.94 242.40 440.90 246.79 C 432.93 244.83 425.27 241.54 417.00 240.90 C 408.19 239.41 399.21 240.17 390.42 238.67 C 389.55 237.74 388.67 236.83 387.83 235.89 C 377.61 222.13 367.97 207.94 357.94 194.05 C 361.88 188.42 366.30 183.08 371.07 178.14 C 376.69 173.34 382.08 168.21 388.32 164.21 C 395.24 159.46 402.56 155.29 409.25 150.20 Z" />
<path fill="#f5e5c1" opacity="1.00" d=" M 254.47 152.20 C 257.61 151.30 260.75 150.25 264.02 149.96 C 265.22 150.74 265.99 151.98 266.87 153.07 C 271.75 159.68 276.71 166.22 281.62 172.80 C 280.19 174.62 278.03 176.26 278.36 178.85 C 277.93 179.83 277.49 180.80 277.06 181.78 C 279.66 184.83 282.22 187.92 284.78 191.00 C 283.70 193.76 282.56 196.50 281.34 199.20 C 273.06 187.37 264.63 175.64 256.32 163.84 C 256.10 163.45 255.65 162.68 255.42 162.29 C 250.64 163.77 245.88 165.32 241.11 166.83 C 242.34 164.84 243.55 162.78 245.33 161.23 C 247.48 160.14 250.07 160.30 252.25 159.25 C 254.47 157.65 254.36 154.64 254.47 152.20 Z" />
<path fill="#f5e5c1" opacity="1.00" d=" M 164.73 177.90 C 187.98 171.60 211.03 164.51 234.26 158.14 C 231.65 162.30 229.28 166.63 227.15 171.05 C 203.47 178.38 179.77 185.63 156.12 193.04 C 157.52 197.14 158.96 201.23 160.38 205.33 C 154.53 206.01 148.63 205.54 142.76 205.66 C 142.40 204.80 142.04 203.94 141.69 203.09 C 149.87 195.19 158.58 187.58 164.73 177.90 Z" />
<path fill="#f4722b" opacity="1.00" d=" M 416.17 163.24 C 417.82 160.53 421.43 161.44 424.08 161.19 C 433.26 161.55 442.60 160.44 451.66 162.38 C 452.08 163.73 452.50 165.08 452.94 166.43 C 450.07 167.07 447.05 168.15 444.12 167.23 C 441.53 166.50 438.76 165.54 436.13 166.70 C 431.81 168.31 427.15 167.70 422.66 167.84 C 423.36 168.88 424.07 169.92 424.79 170.96 C 424.66 173.40 424.43 175.99 425.80 178.16 C 429.79 185.64 432.85 193.93 432.73 202.52 C 430.81 200.06 431.29 196.68 430.22 193.87 C 427.75 186.40 425.72 178.71 422.26 171.62 C 420.82 168.42 417.34 166.45 416.17 163.24 Z" />
<path fill="#3e3e3e" opacity="1.00" d=" M 241.11 166.83 C 245.88 165.32 250.64 163.77 255.42 162.29 C 254.30 165.05 253.61 168.28 251.16 170.22 C 247.07 173.55 241.72 174.58 236.68 175.59 C 238.03 172.61 239.46 169.66 241.11 166.83 Z" />
<path fill="#3e3e3e" opacity="1.00" d=" M 156.12 193.04 C 179.77 185.63 203.47 178.38 227.15 171.05 C 225.86 173.94 224.96 176.97 224.13 180.02 C 204.45 186.19 184.79 192.44 165.10 198.59 C 165.59 199.78 166.09 200.96 166.59 202.16 C 164.53 203.24 162.49 204.36 160.38 205.33 C 158.96 201.23 157.52 197.14 156.12 193.04 Z" />
<path fill="#f5e5c1" opacity="1.00" d=" M 286.45 175.40 C 288.26 175.15 290.08 174.90 291.90 174.66 C 291.24 177.61 290.23 180.46 289.11 183.26 C 292.68 184.73 296.19 186.42 299.92 187.49 C 301.73 187.54 303.34 186.53 305.07 186.14 C 306.32 186.84 306.28 188.37 306.70 189.57 C 310.68 192.24 315.35 193.64 319.93 194.92 C 320.93 192.00 321.99 189.10 323.03 186.20 C 324.20 187.08 325.36 187.98 326.53 188.88 C 325.65 191.36 324.84 193.85 324.11 196.38 C 320.68 197.02 317.25 197.61 313.77 197.80 C 309.48 213.30 304.62 228.61 299.91 243.98 C 295.58 256.20 291.55 268.51 287.86 280.93 C 277.71 277.68 268.01 273.07 257.98 269.42 C 265.60 248.92 274.98 229.14 283.00 208.80 C 286.11 202.30 289.02 195.70 291.67 189.00 C 289.32 186.55 286.84 184.23 284.18 182.12 C 284.91 179.87 285.66 177.63 286.45 175.40 Z" />
<path fill="#3e3e3e" opacity="1.00" d=" M 297.53 176.37 C 298.86 176.47 300.19 176.58 301.52 176.70 C 301.46 178.64 300.76 180.43 299.40 181.83 C 298.39 180.96 297.39 180.08 296.39 179.20 C 296.68 178.50 297.24 177.08 297.53 176.37 Z" />
<path fill="#f5e5c1" opacity="1.00" d=" M 336.35 181.42 C 339.35 179.86 342.61 178.67 345.96 178.15 C 348.19 179.35 349.40 181.97 350.84 184.02 C 350.72 189.00 347.01 192.91 345.44 197.48 C 344.37 195.97 343.29 194.47 342.20 192.97 C 338.89 193.86 335.57 194.71 332.27 195.59 C 333.69 190.90 334.36 185.93 336.35 181.42 Z" />
<path fill="#3e3e3e" opacity="1.00" d=" M 468.45 177.82 C 470.23 179.75 469.25 181.99 467.24 183.23 C 467.55 181.40 467.96 179.60 468.45 177.82 Z" />
<path fill="#3e3e3e" opacity="1.00" d=" M 312.59 182.45 C 313.82 182.50 315.06 182.53 316.29 182.69 C 316.49 183.96 316.56 185.24 316.66 186.52 C 315.24 186.59 313.83 186.65 312.42 186.71 C 312.46 185.28 312.52 183.87 312.59 182.45 Z" />
<path fill="#f5e5c1" opacity="1.00" d=" M 135.20 186.58 C 136.90 186.07 138.60 185.57 140.31 185.08 C 138.94 186.50 137.54 187.88 136.11 189.24 C 135.80 188.35 135.50 187.47 135.20 186.58 Z" />
<path fill="#f5e5c1" opacity="1.00" d=" M 354.58 210.00 C 355.43 204.60 354.91 198.88 357.94 194.05 C 367.97 207.94 377.61 222.13 387.83 235.89 C 388.56 236.94 389.27 238.01 389.95 239.10 C 386.40 241.52 384.19 245.25 381.63 248.60 C 372.69 235.68 363.26 223.09 354.58 210.00 Z" />
<path fill="#3e3e3e" opacity="1.00" d=" M 206.75 199.47 C 205.56 197.93 206.52 194.71 208.90 195.61 C 211.05 198.27 213.64 200.48 216.24 202.69 C 218.08 204.19 217.74 206.64 217.57 208.72 C 212.53 207.74 209.66 203.23 206.75 199.47 Z" />
<path fill="#3e3e3e" opacity="1.00" d=" M 186.48 204.60 C 184.37 202.19 186.88 198.04 189.94 198.44 C 192.94 198.98 195.59 200.63 198.36 201.83 C 199.03 204.27 199.38 206.80 198.63 209.28 C 197.95 209.59 196.60 210.21 195.92 210.52 C 192.40 209.25 189.05 207.35 186.48 204.60 Z" />
<path fill="#3e3e3e" opacity="1.00" d=" M 138.95 205.67 C 139.86 204.81 140.77 203.95 141.69 203.09 C 142.04 203.94 142.40 204.80 142.76 205.66 C 141.49 205.66 140.22 205.67 138.95 205.67 Z" />
<path fill="#3e3e3e" opacity="1.00" d=" M 358.02 229.96 C 355.76 223.61 353.90 216.82 354.58 210.00 C 363.26 223.09 372.69 235.68 381.63 248.60 C 379.79 251.07 378.23 253.77 376.04 255.95 C 374.45 254.94 373.63 253.12 372.55 251.65 C 367.84 244.33 362.50 237.42 358.02 229.96 Z" />
<path fill="#3e3e3e" opacity="1.00" d=" M 183.93 219.40 C 187.91 219.85 191.85 219.07 194.60 215.98 C 194.56 217.28 194.51 218.58 194.47 219.88 C 195.68 221.42 196.86 222.98 198.00 224.57 C 194.22 224.28 190.41 224.01 186.69 223.27 C 184.88 222.84 184.49 220.87 183.93 219.40 Z" />
<path fill="#3e3e3e" opacity="1.00" d=" M 206.12 224.00 C 209.78 221.68 214.58 226.02 213.19 229.97 C 212.39 233.00 208.34 233.61 206.05 231.97 C 203.46 230.22 203.33 225.62 206.12 224.00 Z" />
<path fill="#f5e5c1" opacity="1.00" d=" M 152.46 230.54 C 158.07 231.55 163.78 231.81 169.46 231.37 C 171.52 237.07 173.38 242.85 175.52 248.52 C 154.41 256.14 133.21 263.55 112.04 271.01 C 110.83 271.48 109.67 272.08 108.64 272.87 C 112.74 291.16 119.22 308.89 123.06 327.24 C 118.32 325.91 113.37 324.54 108.43 325.65 C 102.15 305.42 96.36 285.03 89.91 264.85 C 111.90 256.39 133.96 248.11 156.02 239.82 C 154.95 236.68 153.75 233.59 152.46 230.54 Z" />
<path fill="#3e3e3e" opacity="1.00" d=" M 351.43 253.73 C 356.39 251.25 362.84 254.05 364.90 259.07 C 366.84 263.23 364.88 267.89 362.53 271.42 C 358.70 275.83 350.92 275.11 347.74 270.28 C 343.44 265.22 345.02 256.25 351.43 253.73 Z" />
<path fill="#f5e5c1" opacity="1.00" d=" M 393.20 264.94 C 397.85 263.84 402.81 262.36 407.56 263.72 C 415.19 274.95 423.15 285.96 431.07 296.99 C 412.18 307.90 393.41 319.02 374.57 330.02 C 377.80 334.54 381.01 339.07 384.29 343.56 C 375.14 344.59 365.87 345.12 356.69 344.14 C 350.47 334.88 344.26 325.62 338.34 316.17 C 363.11 308.37 387.75 300.14 412.45 292.11 C 406.00 283.07 399.63 273.99 393.20 264.94 Z" />
<path fill="#3e3e3e" opacity="1.00" d=" M 173.66 266.39 C 174.97 263.19 181.37 263.12 180.97 267.31 C 178.52 268.46 176.02 269.61 173.28 269.82 C 173.34 268.67 173.47 267.53 173.66 266.39 Z" />
<path fill="#3e3e3e" opacity="1.00" d=" M 184.48 266.97 C 184.77 264.44 187.87 265.63 189.55 265.43 C 189.56 266.84 189.56 268.24 189.55 269.66 C 187.52 269.73 183.73 270.27 184.48 266.97 Z" />
<path fill="#3e3e3e" opacity="1.00" d=" M 177.03 274.86 C 182.97 273.38 189.20 273.09 195.27 273.77 C 193.83 275.91 191.49 277.06 188.95 277.22 C 183.17 277.75 177.31 278.81 171.54 277.62 C 172.78 275.78 175.04 275.41 177.03 274.86 Z" />
<path fill="#f4722b" opacity="1.00" d=" M 284.76 289.35 C 287.32 286.75 287.60 282.10 291.78 281.32 C 291.87 285.74 296.48 287.07 300.03 287.75 C 299.70 290.33 298.95 292.81 297.92 295.19 C 296.93 293.42 296.90 289.97 294.06 290.45 C 291.21 290.08 290.80 293.38 291.46 295.41 C 292.61 296.05 293.83 296.59 295.02 297.16 C 290.27 298.31 287.11 293.25 282.43 293.41 C 282.87 292.63 283.30 291.85 283.72 291.07 C 281.95 290.00 280.50 288.50 278.82 287.31 C 280.48 286.33 282.13 285.34 283.77 284.34 C 283.56 285.82 282.66 287.37 283.23 288.86 C 283.62 288.99 284.38 289.23 284.76 289.35 Z" />
<path fill="#f4722b" opacity="1.00" d=" M 454.85 284.87 C 458.81 281.76 466.12 283.72 466.51 289.14 C 466.48 296.48 467.01 303.96 469.73 310.86 C 472.54 306.68 474.93 302.13 478.64 298.64 C 483.24 294.31 488.25 289.71 494.81 288.93 C 490.24 293.99 485.38 298.86 481.50 304.50 C 476.84 311.80 472.98 319.66 470.67 328.04 C 467.55 327.70 464.21 327.38 461.74 325.24 C 456.33 320.83 454.50 313.67 453.60 307.07 C 447.13 313.17 441.39 319.96 435.92 326.96 C 433.97 329.42 433.14 332.50 432.19 335.44 C 439.76 334.32 447.42 333.46 455.08 333.58 C 462.93 333.97 468.43 340.33 473.84 345.26 C 475.93 345.26 478.03 345.28 480.12 345.30 C 482.65 341.83 485.96 339.01 488.38 335.45 C 491.04 331.57 494.56 327.94 499.05 326.28 C 501.67 325.26 503.95 327.14 506.03 328.45 C 508.02 328.29 510.01 328.11 512.00 327.92 L 512.00 335.39 C 507.86 335.69 503.68 334.95 500.37 332.30 C 493.89 336.56 490.34 343.62 485.18 349.17 C 483.82 350.85 482.02 352.64 482.39 355.01 C 482.94 358.49 485.57 361.12 487.48 363.94 C 485.23 365.35 482.99 366.79 480.76 368.24 C 480.60 361.79 474.52 358.38 471.95 353.03 C 469.86 348.96 467.22 345.24 463.99 342.01 C 461.59 339.75 461.84 334.93 458.06 334.34 C 452.02 333.73 445.98 335.02 440.08 336.17 C 434.22 337.68 427.93 339.14 423.42 343.46 C 421.40 345.63 418.34 345.90 415.73 346.95 C 410.99 348.74 407.51 352.58 403.37 355.33 C 400.29 357.55 396.39 355.93 392.97 355.79 C 383.53 355.90 374.10 356.83 364.65 356.45 C 360.80 356.47 356.98 356.12 353.18 355.61 C 356.25 360.50 359.29 365.40 362.45 370.23 C 356.75 373.03 350.94 375.61 345.13 378.19 C 347.42 379.16 349.68 380.22 352.01 381.13 C 355.88 382.62 360.11 382.54 364.14 383.34 C 366.60 384.79 369.17 386.87 369.25 390.00 C 369.24 393.13 366.49 395.13 364.57 397.22 C 364.86 399.26 365.19 401.30 365.49 403.34 C 365.91 409.60 368.81 417.43 363.30 422.29 C 363.79 429.13 364.46 436.21 367.71 442.38 C 369.63 446.09 370.46 450.44 373.42 453.53 C 376.02 456.28 378.67 459.00 381.43 461.60 C 383.61 463.90 387.07 463.39 389.93 463.86 C 393.82 464.38 398.09 462.99 401.56 465.40 C 406.46 468.42 412.33 468.70 417.86 469.64 C 423.19 470.45 428.55 471.68 433.98 471.25 C 436.44 471.31 438.00 469.19 439.66 467.72 C 441.55 465.74 443.78 463.90 444.83 461.30 C 442.98 458.45 440.32 456.05 439.37 452.70 C 438.00 448.02 436.63 443.34 435.48 438.61 C 434.01 431.09 433.96 423.39 432.72 415.83 C 428.58 415.74 423.69 417.75 420.09 415.04 C 422.69 411.33 427.60 411.25 431.66 410.92 C 432.84 408.78 433.75 406.29 435.92 404.94 C 438.26 403.08 441.83 402.03 442.47 398.72 C 443.37 396.63 443.20 393.31 446.03 392.82 C 449.52 392.68 451.54 396.16 453.10 398.79 C 456.26 405.06 459.00 411.55 462.31 417.74 C 465.00 421.21 469.99 420.88 473.94 421.24 C 477.95 421.65 481.78 420.32 485.63 419.44 C 487.63 421.28 490.20 423.36 490.50 426.21 C 488.58 427.34 486.76 425.81 485.08 425.04 C 483.09 423.97 480.87 423.54 478.70 423.04 C 478.39 424.45 478.09 425.87 477.79 427.30 C 476.04 427.71 474.24 428.01 472.58 428.71 C 470.23 432.07 469.47 436.21 468.21 440.04 C 466.07 441.20 463.44 442.02 462.26 444.34 C 464.72 450.46 469.66 455.35 471.38 461.86 C 476.83 464.48 481.25 468.69 485.44 472.96 C 483.82 472.81 482.18 472.81 480.61 472.41 C 477.80 470.55 476.58 467.06 473.80 465.18 C 471.45 463.73 468.68 465.11 466.22 465.44 C 464.72 463.07 462.70 461.13 460.87 459.03 C 460.32 456.83 460.68 454.43 459.57 452.38 C 458.41 449.74 456.48 447.11 457.09 444.07 C 457.44 441.35 460.18 439.99 461.97 438.26 C 462.03 433.05 464.74 428.59 466.81 424.00 C 464.10 423.61 460.05 425.73 458.75 422.38 C 454.96 415.03 451.30 407.60 447.98 400.02 C 446.32 404.18 442.86 406.95 439.09 409.14 C 436.47 410.46 437.53 413.66 437.69 415.97 C 439.08 424.18 438.62 432.71 441.30 440.69 C 442.41 443.99 443.37 447.35 444.57 450.63 C 445.59 453.97 449.24 455.16 451.34 457.65 C 453.25 462.09 450.40 466.40 447.94 469.92 C 448.81 470.64 449.68 471.36 450.56 472.09 C 439.38 474.00 428.22 475.98 416.96 477.34 C 413.79 477.04 411.11 475.02 408.03 474.33 C 402.15 477.67 396.83 481.98 390.79 485.03 C 384.51 488.17 376.81 484.00 370.99 488.34 C 368.26 488.38 365.53 488.36 362.81 488.33 C 365.99 485.65 368.90 482.62 372.33 480.26 C 377.92 476.70 386.15 481.25 390.67 475.55 C 391.76 475.32 392.87 475.10 393.98 474.88 C 389.99 472.58 385.54 471.31 380.92 471.47 C 378.35 471.70 376.24 470.24 374.41 468.64 C 374.77 467.40 375.09 466.14 375.36 464.88 C 371.65 460.57 366.31 457.71 363.57 452.57 C 361.91 449.54 359.63 446.88 358.03 443.82 C 355.70 437.32 361.21 429.75 356.56 423.85 C 348.52 431.17 340.51 438.53 332.52 445.90 C 338.96 445.29 345.45 445.65 351.85 446.55 C 355.64 447.29 358.50 450.18 359.98 453.64 C 356.05 452.57 351.92 452.49 348.39 454.77 C 348.07 454.26 347.43 453.23 347.11 452.71 C 338.60 452.24 330.12 453.73 321.97 456.08 C 319.61 456.62 316.50 457.46 314.75 455.23 C 313.29 453.07 315.65 451.27 316.73 449.62 C 317.53 445.73 319.65 442.24 322.87 439.89 C 331.28 433.70 338.38 425.98 346.34 419.26 C 348.75 417.39 349.65 414.43 350.93 411.80 C 351.93 409.67 354.21 408.66 356.04 407.36 C 355.71 406.27 355.36 405.19 355.04 404.10 C 354.48 400.14 354.43 396.13 354.62 392.14 C 351.27 391.72 347.91 391.43 344.54 391.54 C 335.85 391.56 327.15 389.43 318.48 390.76 C 313.64 392.21 309.28 394.87 304.63 396.80 C 302.87 386.68 304.61 376.21 301.82 366.24 C 300.94 362.43 299.03 359.01 297.42 355.49 C 295.71 352.03 296.73 348.12 297.32 344.52 C 299.40 334.29 301.56 324.04 302.13 313.58 C 304.71 312.19 307.72 310.84 308.90 307.93 C 310.47 304.78 309.34 301.23 308.29 298.12 C 309.91 298.69 311.54 299.25 313.17 299.81 C 315.61 303.97 317.02 308.97 321.01 312.00 C 323.40 314.08 327.27 314.09 328.84 317.13 C 332.62 323.13 336.39 329.13 340.17 335.12 C 339.17 336.49 338.16 337.87 337.17 339.25 C 338.08 340.28 338.96 341.36 339.99 342.29 C 341.41 342.25 342.84 342.14 344.27 341.96 C 344.54 342.37 345.08 343.19 345.35 343.60 C 349.14 343.43 352.93 343.62 356.69 344.14 C 365.87 345.12 375.14 344.59 384.29 343.56 C 388.14 343.29 392.00 343.28 395.86 343.20 C 401.74 337.70 408.78 333.74 415.54 329.47 C 419.57 327.07 421.06 322.40 423.85 318.89 C 430.21 310.97 437.05 303.45 444.22 296.26 C 447.96 292.64 450.71 288.05 454.85 284.87 Z" />
<path fill="#f4722b" opacity="1.00" d=" M 218.40 285.16 C 219.18 284.29 221.58 284.97 220.23 286.21 C 219.05 287.90 215.62 286.44 218.40 285.16 Z" />
<path fill="#3e3e3e" opacity="1.00" d=" M 331.18 285.07 C 334.54 282.90 339.83 285.88 338.72 290.07 C 338.13 295.35 329.10 294.96 328.30 289.96 C 327.92 287.86 329.47 286.04 331.18 285.07 Z" />
<path fill="#f4722b" opacity="1.00" d=" M 147.95 297.59 C 157.79 295.33 166.92 290.91 176.57 288.06 C 176.03 291.37 174.73 295.10 176.71 298.20 C 179.08 303.06 186.05 304.50 190.27 301.27 C 193.45 299.09 193.72 295.03 193.79 291.54 C 195.65 291.14 197.52 290.74 199.39 290.36 C 202.11 293.21 205.73 294.80 209.70 294.70 C 209.25 297.68 208.41 300.76 209.18 303.75 C 209.83 306.29 211.84 308.18 212.69 310.63 C 211.00 309.14 210.16 306.81 208.02 305.84 C 205.26 304.33 203.01 301.92 200.02 300.87 C 195.35 299.82 191.20 303.12 188.82 306.83 C 186.92 309.96 183.04 310.45 179.99 311.91 C 175.27 313.63 171.22 317.16 166.09 317.66 C 160.38 318.62 154.06 320.77 150.72 325.79 C 149.44 330.05 148.93 334.52 147.47 338.75 C 140.68 340.16 133.69 339.63 126.84 339.05 C 125.30 338.75 123.79 338.37 122.27 338.01 C 122.83 340.97 124.41 344.53 122.03 347.11 C 120.51 349.31 117.55 348.70 115.28 348.76 L 114.46 348.44 C 111.67 352.53 110.82 357.49 108.95 361.93 C 101.93 367.83 92.23 370.22 86.70 377.94 C 85.99 380.24 85.10 382.58 85.32 385.04 C 85.55 389.53 88.74 393.37 88.56 397.91 C 88.38 399.66 86.32 400.16 85.22 401.22 C 82.61 402.87 81.45 405.92 79.18 407.91 C 75.87 409.57 72.15 410.12 68.58 410.91 C 68.51 409.61 68.45 408.31 68.38 407.02 C 66.97 405.89 65.56 404.76 64.14 403.64 C 55.35 402.74 46.99 399.67 38.97 396.10 C 36.91 395.25 36.07 393.05 34.94 391.32 C 27.28 389.63 18.31 390.76 12.47 396.36 C 9.04 399.46 9.76 404.38 8.37 408.39 C 5.67 415.99 5.42 424.15 5.04 432.14 C 3.86 425.59 3.15 418.98 2.37 412.38 C 2.16 409.56 0.50 406.23 2.75 403.85 C 6.59 398.98 11.79 395.40 16.91 391.99 C 19.88 389.83 23.70 390.33 27.15 390.11 C 24.05 386.32 20.31 383.15 16.55 380.05 C 12.78 384.20 10.47 389.32 8.01 394.29 C 7.83 388.12 12.55 383.81 16.26 379.54 C 13.99 378.54 11.65 376.93 9.04 377.52 C 5.80 378.17 2.85 379.76 0.00 381.38 L 0.00 365.32 C 4.48 363.71 9.43 362.94 14.10 364.14 C 16.58 364.84 18.15 367.05 19.95 368.74 C 29.53 366.97 39.28 364.77 47.73 359.71 C 54.90 355.98 61.05 349.22 62.09 340.98 C 62.44 336.92 58.91 334.25 56.67 331.36 C 59.43 332.64 62.25 333.76 65.11 334.76 C 67.78 341.46 71.78 347.49 75.18 353.82 C 76.66 356.80 80.32 358.91 83.54 357.27 C 87.40 355.59 91.63 354.55 95.10 352.12 C 98.64 348.31 99.95 343.03 101.46 338.18 C 103.07 333.30 101.43 328.27 100.39 323.47 C 102.81 324.16 105.14 325.14 107.28 326.48 C 107.57 326.27 108.14 325.86 108.43 325.65 C 113.37 324.54 118.32 325.91 123.06 327.24 C 124.11 325.14 124.91 322.36 127.43 321.59 C 130.04 320.80 132.49 322.46 134.82 323.38 C 132.81 316.55 130.71 309.74 128.90 302.85 C 135.20 300.93 141.53 299.06 147.95 297.59 Z" />
<path fill="#f4722b" opacity="1.00" d=" M 248.27 293.61 C 251.16 292.69 254.06 291.75 257.03 291.10 C 254.52 292.74 251.92 294.26 249.31 295.74 C 248.96 295.02 248.61 294.31 248.27 293.61 Z" />
<path fill="#f4722b" opacity="1.00" d=" M 258.20 295.22 C 258.96 294.96 259.72 294.71 260.48 294.47 C 262.15 296.25 263.84 298.02 265.36 299.94 C 263.04 298.27 260.71 296.60 258.20 295.22 Z" />
<path fill="#f4722b" opacity="1.00" d=" M 269.62 301.65 C 270.70 299.62 272.89 298.77 274.85 297.83 C 273.91 302.84 271.61 307.78 272.44 312.98 C 273.63 319.65 280.21 324.75 286.95 324.39 C 290.33 324.38 293.30 322.62 296.15 321.01 C 293.19 335.56 291.31 350.30 288.33 364.85 C 286.57 373.29 288.06 381.95 286.63 390.43 C 285.74 395.50 285.63 400.68 284.65 405.73 C 283.71 406.56 282.35 406.67 281.24 407.15 C 281.65 402.32 282.89 397.62 283.41 392.82 L 282.87 392.12 C 282.60 392.20 282.07 392.35 281.81 392.42 C 279.74 397.57 280.48 403.50 278.39 408.53 C 272.04 412.14 265.06 414.58 258.54 417.90 C 249.53 399.00 240.76 380.00 231.78 361.09 C 230.74 358.82 229.42 356.62 229.03 354.12 C 229.80 351.91 231.29 350.06 232.58 348.14 C 232.50 347.50 232.36 346.23 232.28 345.60 C 237.25 342.52 240.66 337.72 244.46 333.42 C 245.44 332.07 247.25 332.03 248.68 331.47 C 246.86 339.09 246.48 346.91 246.44 354.71 C 246.89 354.62 247.81 354.43 248.27 354.34 C 250.33 346.70 249.74 338.36 253.17 331.15 C 256.36 329.42 260.31 328.78 262.69 325.81 C 265.04 322.86 268.17 319.94 267.89 315.83 C 267.00 315.21 266.11 314.59 265.22 313.97 C 267.41 310.10 266.77 305.20 269.62 301.65 Z" />
<path fill="#3e3e3e" opacity="1.00" d=" M 152.02 311.19 C 160.04 309.15 168.72 309.81 176.20 305.80 C 175.98 306.43 175.54 307.69 175.32 308.32 C 172.34 309.54 168.55 309.66 166.55 312.50 C 162.65 317.81 156.22 320.18 150.32 322.49 C 147.23 323.83 143.45 323.32 141.14 320.77 C 138.93 318.87 139.45 315.76 139.26 313.18 C 143.55 312.82 147.83 312.26 152.02 311.19 Z" />
<path fill="#3e3e3e" opacity="1.00" d=" M 311.26 309.31 C 314.61 307.12 317.83 310.85 318.31 313.99 C 319.94 317.93 314.36 321.09 311.26 318.85 C 307.79 316.88 307.63 311.19 311.26 309.31 Z" />
<path fill="#f4722b" opacity="1.00" d=" M 238.99 316.35 C 242.37 316.16 244.27 312.94 246.81 311.14 C 248.80 312.74 250.52 314.64 252.32 316.44 C 249.17 318.08 245.77 319.14 242.61 320.74 C 239.33 322.43 237.99 326.10 236.77 329.36 C 237.59 329.63 239.21 330.18 240.03 330.45 C 236.71 334.67 233.48 338.99 231.00 343.76 C 226.13 343.68 224.49 348.60 221.71 351.61 C 219.44 354.43 215.75 355.29 212.55 356.60 C 206.38 359.01 200.05 361.03 194.01 363.75 C 196.74 366.56 200.45 368.10 204.13 369.24 C 209.12 371.58 216.92 369.37 219.30 375.67 C 221.23 382.85 217.38 389.81 215.40 396.55 C 214.58 398.38 213.62 400.14 212.68 401.92 C 212.56 404.96 212.95 408.38 210.81 410.87 C 207.03 415.39 203.07 420.23 197.43 422.44 C 193.60 424.17 189.44 424.95 185.30 425.59 C 188.75 431.96 191.95 438.52 193.51 445.64 C 200.11 446.16 206.75 446.27 213.35 446.75 C 214.41 449.27 212.83 451.85 212.05 454.22 C 210.16 458.46 209.32 463.49 205.46 466.52 C 201.99 465.87 198.42 466.11 195.30 467.89 C 197.68 468.06 200.07 468.21 202.46 468.35 C 200.75 469.50 199.26 471.38 197.06 471.45 C 192.92 471.69 188.78 471.93 184.72 472.79 C 182.94 472.94 180.70 474.00 179.53 472.05 C 179.32 469.15 182.11 467.56 184.19 466.18 C 191.16 462.23 199.32 460.50 207.30 461.20 C 208.72 457.77 208.74 454.05 208.16 450.44 C 200.94 450.94 193.72 451.42 186.49 451.59 C 182.99 454.04 178.62 455.50 175.95 458.98 C 172.87 463.38 174.71 468.98 175.51 473.80 C 171.41 474.30 167.49 475.80 164.08 478.12 C 158.81 481.66 153.29 484.78 147.82 487.99 C 151.49 479.39 160.47 475.40 168.70 472.38 C 172.15 471.44 173.14 467.16 171.81 464.18 C 170.68 460.96 168.96 456.72 164.96 456.61 C 160.67 456.35 156.33 456.73 152.13 457.53 C 148.65 458.87 145.94 462.07 142.02 462.28 C 131.42 463.14 120.94 459.73 110.39 460.49 C 110.54 464.87 112.43 469.53 110.85 473.78 C 109.60 476.70 106.26 475.49 103.99 474.80 C 95.78 475.56 88.26 479.06 80.48 481.51 C 75.44 483.12 71.02 486.12 66.13 488.10 C 74.86 481.83 84.20 476.42 94.09 472.21 C 97.47 471.19 101.07 471.89 104.52 471.31 C 106.05 467.90 106.40 463.78 104.45 460.46 C 102.64 457.06 102.13 453.22 102.12 449.42 C 106.30 451.72 109.82 454.99 113.84 457.52 C 114.70 456.80 115.58 456.12 116.50 455.49 C 126.47 454.75 136.59 458.56 146.43 455.74 C 152.43 454.35 158.43 452.95 164.34 451.19 C 168.72 449.80 174.16 451.31 177.62 447.62 C 180.57 445.15 180.93 441.11 179.80 437.64 C 176.85 436.34 173.60 435.00 171.97 432.02 C 169.40 427.81 168.30 422.94 166.72 418.32 C 165.25 414.57 167.21 410.75 168.09 407.12 C 168.38 405.33 170.00 403.51 171.95 403.99 C 177.57 405.14 183.21 406.55 189.00 406.45 C 193.22 406.76 196.23 403.32 199.69 401.49 C 200.98 397.01 203.25 392.92 205.79 389.05 C 206.93 387.29 207.98 385.48 209.05 383.69 C 202.18 381.46 194.82 380.05 188.87 375.71 C 185.73 373.78 182.97 371.32 179.87 369.35 C 170.15 372.26 160.89 376.65 151.27 379.94 C 149.87 375.29 148.52 370.62 147.25 365.93 C 157.67 356.02 168.68 346.75 180.07 337.98 C 183.16 335.73 186.93 334.43 189.53 331.51 C 192.30 328.51 195.71 326.22 199.21 324.15 C 204.64 320.92 209.13 316.43 214.05 312.53 C 221.53 317.12 230.55 316.85 238.99 316.35 Z" />
<path fill="#f4722b" opacity="1.00" d=" M 171.01 329.13 C 176.30 324.83 182.55 321.84 188.98 319.69 C 188.93 324.67 186.63 329.62 182.65 332.65 C 172.76 340.40 162.82 348.08 153.43 356.44 C 151.14 358.70 148.84 360.98 146.19 362.84 C 144.92 357.44 143.01 352.23 141.61 346.87 C 140.24 342.98 145.05 341.23 147.62 339.55 C 149.00 339.72 150.36 339.70 151.72 339.49 C 152.89 338.35 153.72 336.91 154.64 335.57 C 160.43 334.51 166.31 332.79 171.01 329.13 Z" />
<path fill="#3e3e3e" opacity="1.00" d=" M 485.18 349.17 C 490.34 343.62 493.89 336.56 500.37 332.30 C 503.68 334.95 507.86 335.69 512.00 335.39 L 512.00 512.00 L 0.00 512.00 L 0.00 381.38 C 2.85 379.76 5.80 378.17 9.04 377.52 C 11.65 376.93 13.99 378.54 16.26 379.54 C 12.55 383.81 7.83 388.12 8.01 394.29 C 10.47 389.32 12.78 384.20 16.55 380.05 C 20.31 383.15 24.05 386.32 27.15 390.11 C 23.70 390.33 19.88 389.83 16.91 391.99 C 11.79 395.40 6.59 398.98 2.75 403.85 C 0.50 406.23 2.16 409.56 2.37 412.38 C 3.15 418.98 3.86 425.59 5.04 432.14 C 5.42 424.15 5.67 415.99 8.37 408.39 C 9.76 404.38 9.04 399.46 12.47 396.36 C 18.31 390.76 27.28 389.63 34.94 391.32 C 36.07 393.05 36.91 395.25 38.97 396.10 C 46.99 399.67 55.35 402.74 64.14 403.64 C 65.56 404.76 66.97 405.89 68.38 407.02 C 68.45 408.31 68.51 409.61 68.58 410.91 C 72.15 410.12 75.87 409.57 79.18 407.91 C 81.45 405.92 82.61 402.87 85.22 401.22 C 86.32 400.16 88.38 399.66 88.56 397.91 C 88.74 393.37 85.55 389.53 85.32 385.04 C 85.10 382.58 85.99 380.24 86.70 377.94 C 92.23 370.22 101.93 367.83 108.95 361.93 C 110.82 357.49 111.67 352.53 114.46 348.44 L 115.28 348.76 C 122.31 371.47 129.07 394.28 135.93 417.04 C 148.93 412.00 161.84 406.72 174.83 401.64 C 185.09 397.30 195.67 393.72 205.79 389.05 C 203.25 392.92 200.98 397.01 199.69 401.49 C 196.23 403.32 193.22 406.76 189.00 406.45 C 183.21 406.55 177.57 405.14 171.95 403.99 C 170.00 403.51 168.38 405.33 168.09 407.12 C 167.21 410.75 165.25 414.57 166.72 418.32 C 168.30 422.94 169.40 427.81 171.97 432.02 C 173.60 435.00 176.85 436.34 179.80 437.64 C 180.93 441.11 180.57 445.15 177.62 447.62 C 174.16 451.31 168.72 449.80 164.34 451.19 C 158.43 452.95 152.43 454.35 146.43 455.74 C 136.59 458.56 126.47 454.75 116.50 455.49 C 115.58 456.12 114.70 456.80 113.84 457.52 C 109.82 454.99 106.30 451.72 102.12 449.42 C 102.13 453.22 102.64 457.06 104.45 460.46 C 106.40 463.78 106.05 467.90 104.52 471.31 C 101.07 471.89 97.47 471.19 94.09 472.21 C 84.20 476.42 74.86 481.83 66.13 488.10 C 71.02 486.12 75.44 483.12 80.48 481.51 C 88.26 479.06 95.78 475.56 103.99 474.80 C 106.26 475.49 109.60 476.70 110.85 473.78 C 112.43 469.53 110.54 464.87 110.39 460.49 C 120.94 459.73 131.42 463.14 142.02 462.28 C 145.94 462.07 148.65 458.87 152.13 457.53 C 156.33 456.73 160.67 456.35 164.96 456.61 C 168.96 456.72 170.68 460.96 171.81 464.18 C 173.14 467.16 172.15 471.44 168.70 472.38 C 160.47 475.40 151.49 479.39 147.82 487.99 C 153.29 484.78 158.81 481.66 164.08 478.12 C 167.49 475.80 171.41 474.30 175.51 473.80 C 174.71 468.98 172.87 463.38 175.95 458.98 C 178.62 455.50 182.99 454.04 186.49 451.59 C 193.72 451.42 200.94 450.94 208.16 450.44 C 208.74 454.05 208.72 457.77 207.30 461.20 C 199.32 460.50 191.16 462.23 184.19 466.18 C 182.11 467.56 179.32 469.15 179.53 472.05 C 180.70 474.00 182.94 472.94 184.72 472.79 C 188.78 471.93 192.92 471.69 197.06 471.45 C 199.26 471.38 200.75 469.50 202.46 468.35 C 200.07 468.21 197.68 468.06 195.30 467.89 C 198.42 466.11 201.99 465.87 205.46 466.52 C 209.32 463.49 210.16 458.46 212.05 454.22 C 212.83 451.85 214.41 449.27 213.35 446.75 C 206.75 446.27 200.11 446.16 193.51 445.64 C 191.95 438.52 188.75 431.96 185.30 425.59 C 189.44 424.95 193.60 424.17 197.43 422.44 C 203.07 420.23 207.03 415.39 210.81 410.87 C 212.95 408.38 212.56 404.96 212.68 401.92 C 213.62 400.14 214.58 398.38 215.40 396.55 C 224.32 415.13 233.34 433.66 242.20 452.28 C 250.07 449.85 257.53 446.30 265.21 443.36 C 289.56 433.65 313.88 423.87 338.22 414.10 C 343.88 411.95 349.40 409.38 355.20 407.58 C 355.15 406.42 355.10 405.26 355.04 404.10 C 355.36 405.19 355.71 406.27 356.04 407.36 C 354.21 408.66 351.93 409.67 350.93 411.80 C 349.65 414.43 348.75 417.39 346.34 419.26 C 338.38 425.98 331.28 433.70 322.87 439.89 C 319.65 442.24 317.53 445.73 316.73 449.62 C 315.65 451.27 313.29 453.07 314.75 455.23 C 316.50 457.46 319.61 456.62 321.97 456.08 C 330.12 453.73 338.60 452.24 347.11 452.71 C 347.43 453.23 348.07 454.26 348.39 454.77 C 351.92 452.49 356.05 452.57 359.98 453.64 C 358.50 450.18 355.64 447.29 351.85 446.55 C 345.45 445.65 338.96 445.29 332.52 445.90 C 340.51 438.53 348.52 431.17 356.56 423.85 C 361.21 429.75 355.70 437.32 358.03 443.82 C 359.63 446.88 361.91 449.54 363.57 452.57 C 366.31 457.71 371.65 460.57 375.36 464.88 C 375.09 466.14 374.77 467.40 374.41 468.64 C 376.24 470.24 378.35 471.70 380.92 471.47 C 385.54 471.31 389.99 472.58 393.98 474.88 C 392.87 475.10 391.76 475.32 390.67 475.55 C 386.15 481.25 377.92 476.70 372.33 480.26 C 368.90 482.62 365.99 485.65 362.81 488.33 C 365.53 488.36 368.26 488.38 370.99 488.34 C 376.81 484.00 384.51 488.17 390.79 485.03 C 396.83 481.98 402.15 477.67 408.03 474.33 C 411.11 475.02 413.79 477.04 416.96 477.34 C 428.22 475.98 439.38 474.00 450.56 472.09 C 449.68 471.36 448.81 470.64 447.94 469.92 C 450.40 466.40 453.25 462.09 451.34 457.65 C 449.24 455.16 445.59 453.97 444.57 450.63 C 443.37 447.35 442.41 443.99 441.30 440.69 C 438.62 432.71 439.08 424.18 437.69 415.97 C 437.53 413.66 436.47 410.46 439.09 409.14 C 442.86 406.95 446.32 404.18 447.98 400.02 C 451.30 407.60 454.96 415.03 458.75 422.38 C 460.05 425.73 464.10 423.61 466.81 424.00 C 464.74 428.59 462.03 433.05 461.97 438.26 C 460.18 439.99 457.44 441.35 457.09 444.07 C 456.48 447.11 458.41 449.74 459.57 452.38 C 460.68 454.43 460.32 456.83 460.87 459.03 C 462.70 461.13 464.72 463.07 466.22 465.44 C 468.68 465.11 471.45 463.73 473.80 465.18 C 476.58 467.06 477.80 470.55 480.61 472.41 C 482.18 472.81 483.82 472.81 485.44 472.96 C 481.25 468.69 476.83 464.48 471.38 461.86 C 469.66 455.35 464.72 450.46 462.26 444.34 C 463.44 442.02 466.07 441.20 468.21 440.04 C 469.47 436.21 470.23 432.07 472.58 428.71 C 474.24 428.01 476.04 427.71 477.79 427.30 C 478.09 425.87 478.39 424.45 478.70 423.04 C 480.87 423.54 483.09 423.97 485.08 425.04 C 486.76 425.81 488.58 427.34 490.50 426.21 C 490.20 423.36 487.63 421.28 485.63 419.44 C 481.78 420.32 477.95 421.65 473.94 421.24 C 469.99 420.88 465.00 421.21 462.31 417.74 C 459.00 411.55 456.26 405.06 453.10 398.79 C 451.54 396.16 449.52 392.68 446.03 392.82 C 443.20 393.31 443.37 396.63 442.47 398.72 C 441.83 402.03 438.26 403.08 435.92 404.94 C 433.75 406.29 432.84 408.78 431.66 410.92 C 427.60 411.25 422.69 411.33 420.09 415.04 C 423.69 417.75 428.58 415.74 432.72 415.83 C 433.96 423.39 434.01 431.09 435.48 438.61 C 436.63 443.34 438.00 448.02 439.37 452.70 C 440.32 456.05 442.98 458.45 444.83 461.30 C 443.78 463.90 441.55 465.74 439.66 467.72 C 438.00 469.19 436.44 471.31 433.98 471.25 C 428.55 471.68 423.19 470.45 417.86 469.64 C 412.33 468.70 406.46 468.42 401.56 465.40 C 398.09 462.99 393.82 464.38 389.93 463.86 C 387.07 463.39 383.61 463.90 381.43 461.60 C 378.67 459.00 376.02 456.28 373.42 453.53 C 370.46 450.44 369.63 446.09 367.71 442.38 C 364.46 436.21 363.79 429.13 363.30 422.29 C 368.81 417.43 365.91 409.60 365.49 403.34 C 381.14 396.62 397.14 390.73 412.83 384.11 C 412.09 382.31 410.96 380.72 409.84 379.16 C 404.11 371.44 398.67 363.52 392.97 355.79 C 396.39 355.93 400.29 357.55 403.37 355.33 C 407.51 352.58 410.99 348.74 415.73 346.95 C 418.34 345.90 421.40 345.63 423.42 343.46 C 427.93 339.14 434.22 337.68 440.08 336.17 C 445.98 335.02 452.02 333.73 458.06 334.34 C 461.84 334.93 461.59 339.75 463.99 342.01 C 467.22 345.24 469.86 348.96 471.95 353.03 C 474.52 358.38 480.60 361.79 480.76 368.24 C 482.99 366.79 485.23 365.35 487.48 363.94 C 485.57 361.12 482.94 358.49 482.39 355.01 C 482.02 352.64 483.82 350.85 485.18 349.17 Z" />
<path fill="#f5e5c1" opacity="1.00" d=" M 122.27 338.01 C 123.79 338.37 125.30 338.75 126.84 339.05 C 131.70 356.72 136.69 374.36 141.61 392.02 C 155.46 387.11 169.23 381.97 183.03 376.91 C 184.91 376.23 186.89 375.91 188.87 375.71 C 194.82 380.05 202.18 381.46 209.05 383.69 C 207.98 385.48 206.93 387.29 205.79 389.05 C 195.67 393.72 185.09 397.30 174.83 401.64 C 161.84 406.72 148.93 412.00 135.93 417.04 C 129.07 394.28 122.31 371.47 115.28 348.76 C 117.55 348.70 120.51 349.31 122.03 347.11 C 124.41 344.53 122.83 340.97 122.27 338.01 Z" />
<path fill="#3e3e3e" opacity="1.00" d=" M 353.18 355.61 C 356.98 356.12 360.80 356.47 364.65 356.45 C 369.36 363.41 373.82 370.54 378.61 377.45 C 373.85 379.56 369.04 381.56 364.14 383.34 C 360.11 382.54 355.88 382.62 352.01 381.13 C 349.68 380.22 347.42 379.16 345.13 378.19 C 350.94 375.61 356.75 373.03 362.45 370.23 C 359.29 365.40 356.25 360.50 353.18 355.61 Z" />
<path fill="#f5e5c1" opacity="1.00" d=" M 364.65 356.45 C 374.10 356.83 383.53 355.90 392.97 355.79 C 398.67 363.52 404.11 371.44 409.84 379.16 C 410.96 380.72 412.09 382.31 412.83 384.11 C 397.14 390.73 381.14 396.62 365.49 403.34 C 365.19 401.30 364.86 399.26 364.57 397.22 C 366.49 395.13 369.24 393.13 369.25 390.00 C 369.17 386.87 366.60 384.79 364.14 383.34 C 369.04 381.56 373.85 379.56 378.61 377.45 C 373.82 370.54 369.36 363.41 364.65 356.45 Z" />
<path fill="#3e3e3e" opacity="1.00" d=" M 50.90 363.68 C 54.28 361.05 57.11 356.48 62.03 357.16 C 66.06 357.04 67.71 361.35 70.52 363.45 C 74.84 366.69 79.02 370.12 83.51 373.13 C 81.79 377.61 78.86 382.04 79.73 387.05 C 80.18 391.25 82.78 394.89 83.25 399.06 C 82.30 401.92 80.11 404.12 78.21 406.37 C 76.42 406.45 74.64 406.55 72.85 406.64 C 72.37 407.21 71.40 408.34 70.91 408.91 C 66.81 404.93 62.59 401.03 57.68 398.02 C 57.53 396.18 58.15 393.82 56.34 392.59 C 52.37 389.38 46.81 390.34 42.23 388.63 C 40.97 386.95 40.10 385.03 39.09 383.21 C 40.70 382.75 42.32 382.30 43.94 381.85 C 41.47 377.58 39.13 371.91 42.46 367.43 C 44.22 364.37 47.91 364.44 50.90 363.68 Z" />
<path fill="#f4722b" opacity="1.00" d=" M 295.50 355.84 C 299.37 362.95 299.40 371.18 300.34 379.02 C 300.74 385.32 301.88 391.59 301.69 397.92 C 297.92 400.13 293.80 401.64 289.87 403.53 C 290.18 395.98 291.97 388.58 292.08 381.01 C 292.34 372.53 293.45 364.07 295.50 355.84 Z" />
<path fill="#f5e5c1" opacity="1.00" d=" M 204.13 369.24 C 208.32 367.67 212.53 366.20 216.87 365.11 C 227.91 386.78 239.27 408.28 250.37 429.92 C 281.82 417.27 313.11 404.24 344.54 391.54 C 347.91 391.43 351.27 391.72 354.62 392.14 C 354.43 396.13 354.48 400.14 355.04 404.10 C 355.10 405.26 355.15 406.42 355.20 407.58 C 349.40 409.38 343.88 411.95 338.22 414.10 C 313.88 423.87 289.56 433.65 265.21 443.36 C 257.53 446.30 250.07 449.85 242.20 452.28 C 233.34 433.66 224.32 415.13 215.40 396.55 C 217.38 389.81 221.23 382.85 219.30 375.67 C 216.92 369.37 209.12 371.58 204.13 369.24 Z" />
<path fill="#f4722b" opacity="1.00" d=" M 410.20 406.22 C 412.40 403.87 416.60 402.07 419.19 404.82 C 421.39 407.67 419.51 411.31 419.32 414.48 L 417.71 414.73 C 417.03 412.46 418.97 408.41 416.02 407.49 C 409.02 411.29 408.03 420.85 400.58 424.14 C 401.08 417.09 405.55 411.19 410.20 406.22 Z" />
<path fill="#f4722b" opacity="1.00" d=" M 372.19 488.44 C 378.58 487.57 385.05 488.49 391.11 490.61 C 384.72 490.94 378.45 489.47 372.19 488.44 Z" />
<path fill="#f4722b" opacity="1.00" d=" M 144.28 498.09 C 146.80 501.76 149.79 505.17 153.85 507.19 C 151.69 507.60 149.09 508.59 147.27 506.84 C 144.71 504.69 144.50 501.17 144.28 498.09 Z" />
</svg>
