<?xml version="1.0" encoding="UTF-8" ?>
<!DOCTYPE svg PUBLIC "-//W3C//DTD SVG 1.1//EN" "http://www.w3.org/Graphics/SVG/1.1/DTD/svg11.dtd">
<svg width="512pt" height="512pt" viewBox="0 0 512 512" version="1.1" xmlns="http://www.w3.org/2000/svg">
<path fill="#3e3e3e" opacity="1.00" d=" M 0.00 0.00 L 512.00 0.00 L 512.00 302.82 C 502.91 301.48 493.71 301.35 484.56 300.66 C 446.66 298.28 408.76 295.96 370.86 293.53 C 378.92 270.54 386.15 247.27 392.76 223.83 C 396.21 223.51 399.64 222.98 403.06 222.41 C 403.82 219.92 404.64 217.46 405.53 215.02 C 404.39 214.04 403.22 213.08 402.03 212.16 C 401.00 215.07 399.93 217.97 398.96 220.90 C 394.35 219.73 389.74 218.21 385.74 215.58 C 385.29 214.41 385.25 212.95 384.13 212.17 C 382.40 212.56 380.77 213.45 378.98 213.47 C 375.20 212.48 371.69 210.72 368.10 209.24 C 369.23 206.45 370.20 203.59 370.93 200.67 C 369.09 200.91 367.27 201.15 365.44 201.39 C 364.67 203.62 363.91 205.85 363.18 208.09 C 365.81 210.23 368.30 212.54 370.67 214.98 C 367.82 222.48 364.29 229.69 361.06 237.03 C 355.82 250.92 349.28 264.27 343.88 278.10 C 341.72 283.43 339.59 288.77 337.26 294.03 C 331.03 295.49 324.79 296.97 318.56 298.44 C 316.71 298.94 314.80 298.74 313.01 298.13 C 300.03 294.01 287.00 290.04 273.99 286.00 C 272.02 287.67 270.08 289.36 268.07 290.96 L 267.95 290.93 C 267.79 279.96 267.29 269.00 267.07 258.03 C 266.93 255.81 267.99 253.82 268.92 251.89 C 271.58 246.52 274.11 241.09 276.75 235.72 C 278.39 232.75 278.00 229.28 278.03 226.03 C 277.92 220.69 278.06 215.35 278.03 210.01 C 278.14 205.59 275.91 201.64 274.52 197.58 C 273.27 194.44 272.48 191.08 270.79 188.14 C 268.85 185.76 266.28 184.01 263.98 182.01 C 260.66 182.00 257.33 181.99 254.01 181.99 C 252.56 178.53 251.08 175.07 249.21 171.81 C 243.14 161.21 237.14 150.58 231.09 139.97 C 228.78 136.00 226.86 131.70 223.57 128.40 C 218.32 123.00 213.17 117.50 207.95 112.07 C 215.36 134.80 223.06 157.43 230.56 180.13 C 235.87 194.90 238.72 210.38 242.68 225.54 C 245.15 236.37 248.52 247.02 249.93 258.07 C 250.73 263.43 251.57 268.78 252.42 274.13 C 253.83 281.75 252.37 289.49 251.13 297.03 C 250.59 301.36 247.45 304.59 245.09 308.03 C 241.16 313.73 236.31 318.69 231.84 323.95 C 228.87 327.27 226.17 330.94 222.41 333.43 C 217.99 336.35 213.53 339.21 209.14 342.19 C 204.43 345.59 198.39 345.65 192.95 347.08 C 187.63 348.02 182.42 349.79 177.02 350.14 C 171.53 349.02 166.32 346.84 160.92 345.35 C 162.90 348.92 164.94 352.46 166.98 356.00 C 142.67 373.70 118.31 391.33 94.00 409.02 C 94.28 425.35 94.76 441.68 94.94 458.01 C 94.12 476.02 92.99 494.00 92.06 512.00 L 0.00 512.00 L 0.00 0.00 Z" />
<path fill="#f4722b" opacity="1.00" d=" M 426.64 39.11 C 428.88 37.81 431.29 35.35 434.05 36.94 C 439.08 38.91 444.18 40.74 449.11 42.96 C 448.27 45.19 447.40 47.42 446.53 49.64 C 444.82 54.17 442.99 58.65 441.29 63.18 C 422.71 110.68 404.36 158.27 385.77 205.76 C 385.06 208.63 382.78 210.39 380.15 211.44 C 377.28 210.14 374.33 209.02 371.33 208.05 C 373.59 199.21 377.24 190.80 379.79 182.05 C 386.92 159.04 393.58 135.89 400.90 112.95 C 403.92 102.03 408.26 91.51 411.74 80.72 C 414.43 73.30 416.14 65.54 419.01 58.18 C 422.08 52.15 424.26 45.71 426.56 39.36 L 426.64 39.11 Z" />
<path fill="#f5e5c1" opacity="1.00" d=" M 418.90 41.96 C 421.46 41.12 423.96 40.10 426.56 39.36 C 424.26 45.71 422.08 52.15 419.01 58.18 C 417.54 55.95 415.96 53.69 415.43 51.02 C 416.25 47.89 417.62 44.93 418.90 41.96 Z" />
<path fill="#3e3e3e" opacity="1.00" d=" M 431.44 42.74 C 433.99 41.97 437.10 41.78 439.15 43.81 C 444.42 47.51 439.98 56.94 433.89 56.26 C 429.73 55.62 426.50 51.02 427.72 46.89 C 428.39 45.11 429.79 43.66 431.44 42.74 Z" />
<path fill="#f5e5c1" opacity="1.00" d=" M 429.59 50.56 C 427.88 46.65 433.97 41.60 436.83 44.98 C 433.92 46.17 432.40 49.44 429.59 50.56 Z" />
<path fill="#f4722b" opacity="1.00" d=" M 451.12 43.93 C 456.92 45.43 462.34 48.08 467.97 50.12 C 469.20 52.84 471.76 55.77 469.76 58.78 C 464.84 69.61 460.77 80.84 455.34 91.43 C 446.93 110.17 437.47 128.44 429.26 147.29 C 421.13 163.25 414.45 179.89 407.15 196.25 C 403.70 203.35 400.01 210.35 397.05 217.68 C 393.47 216.14 388.48 215.96 386.54 212.05 C 386.34 210.49 387.16 209.08 387.63 207.65 C 406.39 159.87 424.63 111.86 443.55 64.14 C 445.06 59.56 446.93 55.11 448.69 50.62 C 449.56 48.41 450.34 46.17 451.12 43.93 Z" />
<path fill="#f5e5c1" opacity="1.00" d=" M 430.88 53.04 C 434.16 51.21 436.93 48.38 440.56 47.22 C 440.05 50.19 438.99 53.16 436.22 54.73 C 434.36 54.44 432.35 54.37 430.88 53.04 Z" />
<path fill="#f5e5c1" opacity="1.00" d=" M 441.29 63.18 C 442.99 58.65 444.82 54.17 446.53 49.64 C 447.07 49.88 448.15 50.38 448.69 50.62 C 446.93 55.11 445.06 59.56 443.55 64.14 L 442.86 64.20 C 442.47 63.95 441.68 63.44 441.29 63.18 Z" />
<path fill="#3e3e3e" opacity="1.00" d=" M 452.62 54.46 C 453.66 52.90 455.52 52.22 457.02 51.21 C 459.05 52.08 461.55 52.68 462.49 54.95 C 462.56 57.70 461.59 60.84 459.13 62.36 C 456.64 63.00 454.38 61.81 452.54 60.26 C 452.44 58.34 451.72 56.28 452.62 54.46 Z" />
<path fill="#f5e5c1" opacity="1.00" d=" M 456.17 53.40 C 458.09 53.25 460.09 54.19 460.83 56.06 C 461.55 56.91 461.14 59.51 459.65 58.77 C 458.31 57.10 457.23 55.24 456.17 53.40 Z" />
<path fill="#f5e5c1" opacity="1.00" d=" M 453.63 56.06 C 456.07 56.44 456.73 59.26 458.05 60.99 C 456.44 60.76 454.95 60.12 453.58 59.26 C 453.59 58.19 453.61 57.13 453.63 56.06 Z" />
<path fill="#f4722b" opacity="1.00" d=" M 169.99 104.00 C 173.55 103.66 177.18 102.59 180.74 103.57 C 180.85 104.98 179.34 105.67 178.55 106.61 C 173.80 110.78 169.54 115.64 163.92 118.69 C 159.66 121.02 155.90 124.11 152.49 127.55 C 147.72 131.45 142.84 135.24 137.58 138.47 C 132.35 143.42 126.07 146.99 120.38 151.34 C 116.86 154.14 112.56 155.55 108.55 157.46 C 103.03 159.97 98.03 163.61 92.12 165.24 C 85.35 167.18 79.19 170.96 72.18 172.12 C 71.21 167.30 74.54 163.42 76.36 159.29 C 80.29 150.89 85.29 143.08 89.81 135.01 C 91.02 132.59 93.41 131.19 95.49 129.62 C 101.44 125.20 107.35 120.73 113.27 116.27 C 114.91 114.96 116.97 114.43 118.97 113.95 C 127.71 111.79 136.40 109.41 145.14 107.26 C 153.38 105.88 161.71 105.14 169.99 104.00 Z" />
<path fill="#f5e5c1" opacity="1.00" d=" M 182.77 112.81 C 186.23 109.48 188.96 105.31 192.85 102.50 C 193.38 102.50 194.43 102.50 194.96 102.50 C 211.13 133.55 222.07 167.03 230.74 200.87 C 236.66 224.32 241.47 248.05 245.19 271.95 C 245.60 277.65 246.93 283.40 245.85 289.10 C 245.01 294.18 243.43 299.23 240.33 303.41 C 229.81 319.39 216.40 334.99 197.83 341.51 C 178.63 348.41 156.51 340.72 143.11 326.04 C 105.84 280.80 72.61 232.39 40.73 183.25 C 40.01 182.08 39.01 180.87 39.42 179.40 C 43.02 179.20 46.45 180.68 50.00 181.04 C 72.42 184.07 94.76 176.80 114.38 166.42 C 140.03 152.61 162.53 133.61 182.77 112.81 Z" />
<path fill="#f4722b" opacity="1.00" d=" M 207.95 112.07 C 213.17 117.50 218.32 123.00 223.57 128.40 C 226.86 131.70 228.78 136.00 231.09 139.97 C 237.14 150.58 243.14 161.21 249.21 171.81 C 251.08 175.07 252.56 178.53 254.01 181.99 C 257.33 181.99 260.66 182.00 263.98 182.01 C 266.28 184.01 268.85 185.76 270.79 188.14 C 272.48 191.08 273.27 194.44 274.52 197.58 C 275.91 201.64 278.14 205.59 278.03 210.01 C 278.06 215.35 277.92 220.69 278.03 226.03 C 278.00 229.28 278.39 232.75 276.75 235.72 C 274.11 241.09 271.58 246.52 268.92 251.89 C 267.99 253.82 266.93 255.81 267.07 258.03 C 267.29 269.00 267.79 279.96 267.95 290.93 C 268.08 293.61 267.56 296.57 269.14 298.94 C 272.74 304.98 276.43 310.97 280.00 317.03 C 277.54 324.83 276.33 333.12 272.42 340.40 C 263.42 358.80 254.61 377.29 245.61 395.68 C 241.67 402.26 236.66 408.12 232.35 414.45 C 229.21 419.19 225.01 423.02 220.99 426.99 C 216.82 425.73 212.56 424.75 208.41 423.38 C 206.96 423.06 206.19 421.71 205.39 420.60 C 193.34 401.83 181.07 383.20 169.03 364.43 C 170.16 377.31 170.86 390.24 172.24 403.10 C 174.52 416.00 176.71 428.92 179.25 441.78 C 185.64 465.20 192.03 488.63 198.60 512.00 L 92.06 512.00 C 92.99 494.00 94.12 476.02 94.94 458.01 C 94.76 441.68 94.28 425.35 94.00 409.02 C 118.31 391.33 142.67 373.70 166.98 356.00 C 164.94 352.46 162.90 348.92 160.92 345.35 C 166.32 346.84 171.53 349.02 177.02 350.14 C 182.42 349.79 187.63 348.02 192.95 347.08 C 198.39 345.65 204.43 345.59 209.14 342.19 C 213.53 339.21 217.99 336.35 222.41 333.43 C 226.17 330.94 228.87 327.27 231.84 323.95 C 236.31 318.69 241.16 313.73 245.09 308.03 C 247.45 304.59 250.59 301.36 251.13 297.03 C 252.37 289.49 253.83 281.75 252.42 274.13 C 251.57 268.78 250.73 263.43 249.93 258.07 C 248.52 247.02 245.15 236.37 242.68 225.54 C 238.72 210.38 235.87 194.90 230.56 180.13 C 223.06 157.43 215.36 134.80 207.95 112.07 Z" />
<path fill="#3e3e3e" opacity="1.00" d=" M 136.57 188.03 C 136.17 176.15 147.02 166.72 158.15 165.24 C 150.73 168.50 144.37 174.80 142.85 182.99 C 140.08 196.98 145.65 210.78 151.90 223.03 C 144.30 212.80 136.99 201.13 136.57 188.03 Z" />
<path fill="#3e3e3e" opacity="1.00" d=" M 163.85 174.83 C 171.03 172.19 178.88 173.63 186.01 175.72 C 195.90 178.80 205.08 183.75 214.01 188.92 C 216.11 190.18 218.86 190.97 219.72 193.52 C 201.08 193.16 181.82 192.91 164.07 199.42 C 159.32 200.97 155.64 204.40 151.90 207.54 C 149.88 201.87 150.90 195.68 152.04 189.92 C 153.33 183.45 157.49 177.19 163.85 174.83 Z" />
<path fill="#3e3e3e" opacity="1.00" d=" M 94.09 196.01 C 101.74 192.49 110.22 195.76 117.04 199.62 C 110.31 197.96 103.02 196.53 96.43 199.57 C 88.93 202.26 84.21 208.88 79.39 214.78 C 82.49 207.49 86.09 198.98 94.09 196.01 Z" />
<path fill="#f5e5c1" opacity="1.00" d=" M 365.44 201.39 C 367.27 201.15 369.09 200.91 370.93 200.67 C 370.20 203.59 369.23 206.45 368.10 209.24 C 371.69 210.72 375.20 212.48 378.98 213.47 C 380.77 213.45 382.40 212.56 384.13 212.17 C 385.25 212.95 385.29 214.41 385.74 215.58 C 389.74 218.21 394.35 219.73 398.96 220.90 C 399.93 217.97 401.00 215.07 402.03 212.16 C 403.22 213.08 404.39 214.04 405.53 215.02 C 404.64 217.46 403.82 219.92 403.06 222.41 C 399.64 222.98 396.21 223.51 392.76 223.83 C 386.15 247.27 378.92 270.54 370.86 293.53 C 363.63 293.12 356.40 292.66 349.17 292.17 C 345.10 291.87 341.17 293.11 337.26 294.03 C 339.59 288.77 341.72 283.43 343.88 278.10 C 349.28 264.27 355.82 250.92 361.06 237.03 C 364.29 229.69 367.82 222.48 370.67 214.98 C 368.30 212.54 365.81 210.23 363.18 208.09 C 363.91 205.85 364.67 203.62 365.44 201.39 Z" />
<path fill="#3e3e3e" opacity="1.00" d=" M 376.48 202.40 C 377.78 202.48 379.09 202.57 380.39 202.68 C 380.25 204.07 380.09 205.45 379.90 206.83 C 378.17 206.98 376.51 206.68 375.32 205.32 C 375.61 204.59 376.19 203.13 376.48 202.40 Z" />
<path fill="#3e3e3e" opacity="1.00" d=" M 94.25 214.22 C 96.11 209.45 100.46 204.98 105.99 205.59 C 114.40 206.59 121.03 212.58 127.04 218.06 C 125.70 219.76 123.42 219.78 121.54 220.45 C 109.98 223.75 100.86 233.16 96.35 244.12 C 95.30 246.32 94.90 248.89 93.22 250.75 C 91.67 247.04 90.53 243.08 90.64 239.03 C 90.71 230.68 91.15 222.07 94.25 214.22 Z" />
<path fill="#3e3e3e" opacity="1.00" d=" M 391.63 208.61 C 392.92 208.57 394.22 208.54 395.52 208.54 C 395.52 209.88 395.51 211.22 395.50 212.57 C 394.10 212.59 392.71 212.61 391.33 212.61 C 391.40 211.27 391.52 209.94 391.63 208.61 Z" />
<path fill="#3e3e3e" opacity="1.00" d=" M 164.00 225.01 C 167.61 226.15 171.06 229.09 171.26 233.11 C 170.72 237.50 165.98 238.72 163.08 241.10 C 161.02 245.94 158.74 251.56 153.44 253.61 C 148.82 255.57 143.88 253.22 140.04 250.64 C 137.81 251.28 135.29 252.26 133.06 251.04 C 129.89 248.78 128.29 244.63 129.08 240.82 C 131.36 244.64 134.51 247.74 138.70 249.43 C 138.34 248.22 137.95 247.04 137.52 245.87 C 139.54 247.77 142.13 249.14 145.00 248.50 C 149.80 247.37 154.59 245.59 158.60 242.66 C 160.77 241.12 161.13 238.36 161.74 235.98 C 162.23 237.03 162.70 238.09 163.17 239.16 C 164.35 236.49 165.76 233.89 166.43 231.03 C 167.02 228.67 164.93 226.95 164.00 225.01 Z" />
<path fill="#3e3e3e" opacity="1.00" d=" M 184.99 231.71 C 204.40 237.37 219.26 252.53 230.14 268.97 C 233.29 274.12 237.00 279.07 238.84 284.88 C 226.99 267.21 211.23 252.49 194.68 239.27 C 191.56 236.60 187.83 234.69 184.99 231.71 Z" />
<path fill="#3e3e3e" opacity="1.00" d=" M 128.80 258.08 C 132.10 277.68 136.45 297.17 143.10 315.94 C 143.47 316.98 143.56 318.09 143.66 319.19 C 132.24 301.14 127.48 279.29 128.80 258.08 Z" />
<path fill="#f4722b" opacity="1.00" d=" M 90.27 266.04 C 92.93 270.05 94.75 274.56 97.67 278.40 C 106.17 288.84 112.53 300.80 120.81 311.40 C 119.15 310.76 117.35 310.31 116.00 309.11 C 107.63 301.77 99.56 294.07 92.34 285.59 C 90.33 283.61 90.68 280.56 90.19 278.01 C 89.94 274.03 88.10 269.79 90.27 266.04 Z" />
<path fill="#3e3e3e" opacity="1.00" d=" M 158.91 283.04 C 164.68 274.72 175.17 271.06 185.00 271.56 C 203.35 272.23 220.12 280.71 236.04 289.13 C 234.69 289.33 233.33 289.33 231.98 289.33 C 216.29 288.80 200.41 290.09 185.24 294.30 C 177.88 296.55 170.29 299.18 164.56 304.52 C 160.73 308.04 156.95 311.71 154.04 316.05 C 153.05 317.43 152.39 319.16 150.82 320.02 C 150.89 307.40 151.33 293.72 158.91 283.04 Z" />
<path fill="#f4722b" opacity="1.00" d=" M 268.07 290.96 C 270.08 289.36 272.02 287.67 273.99 286.00 C 287.00 290.04 300.03 294.01 313.01 298.13 C 314.80 298.74 316.71 298.94 318.56 298.44 C 324.79 296.97 331.03 295.49 337.26 294.03 C 341.17 293.11 345.10 291.87 349.17 292.17 C 356.40 292.66 363.63 293.12 370.86 293.53 C 408.76 295.96 446.66 298.28 484.56 300.66 C 493.71 301.35 502.91 301.48 512.00 302.82 L 512.00 512.00 L 279.27 512.00 C 278.69 498.32 279.16 484.63 278.98 470.94 C 278.76 463.29 279.88 455.71 280.57 448.11 C 283.04 422.37 285.85 396.66 287.84 370.88 C 289.71 346.93 292.31 323.04 292.99 299.02 C 284.69 296.31 276.35 293.74 268.07 290.96 Z" />
<path fill="#f5e5c1" opacity="1.00" d=" M 267.95 290.93 L 268.07 290.96 C 276.35 293.74 284.69 296.31 292.99 299.02 C 292.31 323.04 289.71 346.93 287.84 370.88 C 285.85 396.66 283.04 422.37 280.57 448.11 C 279.88 455.71 278.76 463.29 278.98 470.94 C 279.16 484.63 278.69 498.32 279.27 512.00 L 259.69 512.00 C 252.34 497.08 245.25 482.02 237.97 467.06 C 236.61 464.89 237.53 462.36 237.95 460.06 C 239.02 455.06 239.97 450.05 241.01 445.05 C 251.38 458.64 261.58 472.37 271.98 485.94 C 261.91 470.79 250.85 456.31 240.92 441.07 C 238.49 435.19 232.82 431.99 228.11 428.17 C 224.83 429.06 221.43 429.00 218.08 428.75 C 212.06 428.45 206.03 428.30 200.00 427.97 C 198.50 430.42 196.59 432.93 196.97 435.99 C 197.23 450.70 196.52 465.44 197.52 480.13 C 197.82 469.40 199.07 458.73 200.01 448.05 C 204.55 455.42 209.62 462.51 213.80 470.08 C 216.02 483.97 217.28 498.04 219.14 512.00 L 198.60 512.00 C 192.03 488.63 185.64 465.20 179.25 441.78 C 176.71 428.92 174.52 416.00 172.24 403.10 C 170.86 390.24 170.16 377.31 169.03 364.43 C 181.07 383.20 193.34 401.83 205.39 420.60 C 206.19 421.71 206.96 423.06 208.41 423.38 C 212.56 424.75 216.82 425.73 220.99 426.99 C 225.01 423.02 229.21 419.19 232.35 414.45 C 236.66 408.12 241.67 402.26 245.61 395.68 C 254.61 377.29 263.42 358.80 272.42 340.40 C 276.33 333.12 277.54 324.83 280.00 317.03 C 276.43 310.97 272.74 304.98 269.14 298.94 C 267.56 296.57 268.08 293.61 267.95 290.93 Z" />
<path fill="#3e3e3e" opacity="1.00" d=" M 200.00 427.97 C 206.03 428.30 212.06 428.45 218.08 428.75 C 221.43 429.00 224.83 429.06 228.11 428.17 C 232.82 431.99 238.49 435.19 240.92 441.07 C 250.85 456.31 261.91 470.79 271.98 485.94 C 261.58 472.37 251.38 458.64 241.01 445.05 C 239.97 450.05 239.02 455.06 237.95 460.06 C 237.53 462.36 236.61 464.89 237.97 467.06 C 245.25 482.02 252.34 497.08 259.69 512.00 L 219.14 512.00 C 217.28 498.04 216.02 483.97 213.80 470.08 C 209.62 462.51 204.55 455.42 200.01 448.05 C 199.07 458.73 197.82 469.40 197.52 480.13 C 196.52 465.44 197.23 450.70 196.97 435.99 C 196.59 432.93 198.50 430.42 200.00 427.97 Z" />
</svg>
