<?xml version="1.0" encoding="UTF-8" ?>
<!DOCTYPE svg PUBLIC "-//W3C//DTD SVG 1.1//EN" "http://www.w3.org/Graphics/SVG/1.1/DTD/svg11.dtd">
<svg width="512pt" height="512pt" viewBox="0 0 512 512" version="1.1" xmlns="http://www.w3.org/2000/svg">
<path fill="#f5e5c1" opacity="1.00" d=" M 0.00 0.00 L 0.07 0.00 C 0.05 0.04 0.02 0.11 0.00 0.15 L 0.00 0.00 Z" />
<path fill="#3e3e3e" opacity="1.00" d=" M 0.07 0.00 L 512.00 0.00 L 512.00 103.94 C 499.66 100.67 487.31 97.40 474.98 94.12 C 471.52 93.21 468.10 92.09 464.52 91.82 C 443.51 90.34 422.50 88.95 401.49 87.36 C 400.39 90.61 399.15 94.15 396.04 96.01 C 392.91 97.74 389.73 99.41 386.86 101.56 C 397.92 101.77 408.99 101.64 420.05 101.88 C 423.10 101.59 423.13 104.83 423.30 107.01 C 426.05 104.91 428.80 100.90 432.72 102.07 C 440.25 110.01 446.87 118.82 454.37 126.80 C 459.13 120.77 464.27 115.05 469.13 109.10 C 470.64 107.42 471.97 105.42 474.07 104.43 C 477.51 104.74 479.87 107.55 482.52 109.46 C 484.58 111.22 487.70 112.69 487.41 115.90 C 484.20 121.02 479.48 124.99 475.65 129.65 C 472.14 133.95 467.94 137.66 464.65 142.14 C 464.09 150.74 464.91 159.38 464.78 168.00 C 464.64 170.55 465.39 173.48 463.73 175.69 C 461.82 177.16 459.22 176.63 456.99 176.78 C 452.78 176.60 448.57 176.99 444.38 176.73 C 442.18 176.38 441.99 173.81 442.00 172.04 C 441.96 162.49 441.48 152.95 441.53 143.41 C 434.56 136.14 427.86 128.63 420.94 121.31 C 414.21 121.68 407.47 121.44 400.74 121.48 C 400.39 135.31 400.10 149.14 399.77 162.98 C 399.62 166.16 400.13 169.61 398.63 172.55 C 396.09 174.28 392.88 173.65 390.01 173.77 C 386.17 173.59 382.26 174.17 378.49 173.33 C 376.25 172.66 376.30 169.91 376.24 168.03 C 376.69 152.52 376.84 137.00 377.33 121.48 C 370.81 120.99 363.91 122.74 357.69 120.22 C 355.50 136.53 355.00 153.05 353.30 169.42 C 353.23 171.59 351.10 173.16 349.02 172.94 C 343.70 172.59 338.40 172.03 333.09 171.53 C 331.09 171.41 328.50 170.45 328.99 167.95 C 329.62 157.64 330.59 147.34 331.44 137.05 C 327.85 138.25 324.94 140.67 321.85 142.75 C 317.17 145.21 312.74 148.12 308.49 151.26 C 308.00 156.72 308.75 162.28 307.71 167.68 C 307.30 169.86 304.73 170.00 302.97 170.01 C 298.01 169.94 293.05 170.18 288.11 169.88 C 285.92 169.89 285.20 167.68 284.35 166.09 C 276.18 171.62 268.30 177.76 259.32 181.96 C 258.91 185.44 258.99 189.61 256.11 192.11 C 253.88 193.92 251.59 195.65 249.51 197.63 C 247.28 199.81 243.93 200.02 241.00 199.67 C 240.99 202.03 240.96 204.39 240.93 206.76 C 234.05 208.02 227.66 210.96 220.96 212.85 C 217.33 213.94 213.43 214.87 210.67 217.67 C 206.54 221.58 201.68 224.63 197.60 228.61 C 194.31 231.77 190.15 233.82 186.72 236.81 C 183.85 239.31 180.92 241.75 177.94 244.12 C 175.87 241.34 173.68 238.67 171.59 235.90 C 182.92 226.05 195.27 217.44 206.56 207.54 C 215.84 200.03 224.88 192.25 233.86 184.38 C 236.83 186.21 240.10 187.44 243.31 188.78 C 245.33 187.12 247.38 185.49 249.44 183.87 C 249.02 182.50 248.61 181.13 248.19 179.76 C 245.50 181.60 242.86 183.52 240.20 185.40 C 238.01 182.14 235.44 179.14 233.38 175.79 C 232.11 174.06 233.10 171.95 233.16 170.03 C 231.38 168.96 228.71 169.65 227.46 167.62 C 225.53 164.86 222.79 162.34 222.01 158.99 C 222.76 156.40 226.05 155.67 227.81 153.82 C 227.17 151.88 224.74 151.56 223.20 150.55 C 221.45 151.99 219.57 153.30 218.06 155.01 C 218.17 158.48 220.42 161.97 219.49 165.38 C 211.56 171.32 202.74 175.92 194.84 181.89 C 184.60 189.25 173.61 195.53 163.58 203.18 C 163.28 201.45 163.31 199.40 161.76 198.23 C 157.60 194.97 151.85 197.09 147.38 194.71 C 141.58 191.74 133.45 194.96 131.58 201.30 C 121.67 206.34 113.95 215.21 109.97 225.56 C 108.72 224.58 107.34 223.74 106.25 222.59 C 104.81 219.57 104.11 215.85 101.02 213.99 C 94.96 210.54 87.68 210.94 80.96 211.48 C 74.00 211.61 66.95 213.29 60.04 211.81 C 55.57 210.35 51.45 207.88 47.64 205.15 C 51.20 209.92 55.72 214.82 61.97 215.56 C 72.09 216.66 82.31 216.56 92.42 217.72 C 95.52 218.08 98.60 219.30 99.99 222.31 C 97.37 223.88 94.41 225.56 93.41 228.66 C 91.50 233.09 93.68 238.77 98.01 240.85 C 100.43 242.09 103.23 241.74 105.84 241.58 C 104.43 257.58 109.26 274.55 120.75 286.09 C 105.33 289.96 90.26 297.58 80.18 310.17 C 72.17 320.27 69.29 333.35 68.63 345.96 C 68.30 353.70 67.20 361.75 69.79 369.24 C 71.42 373.75 75.55 377.90 80.60 377.91 C 84.07 378.16 88.42 377.66 90.15 374.17 C 95.28 365.67 93.55 355.36 95.13 345.98 C 96.13 351.90 96.09 357.92 96.40 363.90 C 96.83 368.15 97.46 373.20 101.15 375.93 C 112.68 381.36 125.16 384.95 137.90 385.91 C 156.52 388.00 175.46 384.09 192.43 376.38 C 196.04 374.58 197.53 370.14 197.51 366.33 C 199.09 368.15 200.85 369.81 202.59 371.48 C 203.75 373.01 204.63 374.76 205.97 376.15 C 208.32 377.91 211.40 378.55 214.29 378.13 C 213.75 380.57 212.57 383.47 214.29 385.74 C 216.33 389.11 222.06 389.50 223.85 385.67 C 226.01 381.63 222.37 376.55 217.94 376.72 C 222.19 375.22 224.46 370.82 225.43 366.68 C 227.11 360.57 226.80 354.15 225.92 347.94 C 225.53 340.17 224.69 332.30 222.09 324.93 C 226.30 329.20 231.68 331.92 236.97 334.59 C 236.28 355.72 235.67 376.85 234.99 397.98 C 201.32 398.45 167.65 398.74 133.98 399.21 C 110.35 399.28 86.71 400.02 63.09 399.88 C 60.35 398.13 58.06 395.54 56.05 392.98 C 53.14 375.44 52.31 357.61 51.74 339.84 C 49.93 302.89 48.34 265.92 46.63 228.97 C 45.82 220.33 46.35 211.63 45.38 203.01 C 48.67 200.33 52.36 198.25 55.90 195.96 C 60.67 190.78 58.29 181.52 52.07 178.59 C 49.49 177.92 46.80 178.12 44.17 178.26 C 44.10 174.83 44.02 171.40 44.00 167.97 C 49.49 168.09 54.99 168.19 60.48 168.28 C 62.03 168.37 63.58 168.46 65.13 168.47 C 69.94 168.26 74.78 167.89 79.55 168.72 C 80.71 171.79 82.92 174.65 86.19 175.60 C 91.34 177.71 97.42 174.07 98.67 168.78 C 129.12 169.37 159.58 169.72 190.03 170.23 C 194.00 170.71 196.99 167.77 200.07 165.80 C 186.71 165.61 173.36 165.16 160.01 164.99 C 156.75 164.58 152.15 165.75 149.98 162.80 C 149.19 156.82 150.20 150.73 150.01 144.71 C 143.72 154.32 132.66 159.67 121.64 161.70 C 113.62 163.19 105.39 162.93 97.29 162.36 C 96.25 161.19 95.18 160.06 94.03 159.01 C 101.65 160.08 109.44 159.94 117.11 159.38 C 127.52 158.23 138.15 154.25 145.14 146.16 C 157.07 132.53 153.81 108.22 137.76 99.19 C 122.81 90.60 104.82 92.08 88.27 92.84 C 87.96 114.41 87.26 135.99 86.71 157.56 C 85.68 157.94 84.66 158.34 83.67 158.78 C 84.28 138.88 84.69 118.97 85.23 99.07 C 85.46 96.23 84.52 92.89 86.61 90.55 C 88.87 89.38 91.57 89.76 94.04 89.52 C 108.18 88.90 123.05 88.80 136.14 94.95 C 142.30 97.82 147.52 102.55 150.91 108.44 C 151.78 103.15 150.15 97.39 152.51 92.42 C 154.51 91.28 156.88 91.62 159.07 91.65 C 176.08 92.43 193.09 92.94 210.09 93.77 C 215.30 93.64 220.55 93.54 225.72 94.30 C 227.02 94.42 227.84 95.46 228.50 96.46 C 235.05 106.56 241.38 116.80 248.08 126.80 C 249.14 125.74 250.80 124.83 250.48 123.04 C 250.65 115.37 250.43 107.70 250.26 100.03 C 249.92 97.27 252.66 95.89 255.05 96.04 C 260.54 96.14 266.27 95.21 271.54 97.24 C 275.41 97.94 279.50 98.07 283.38 97.42 C 285.61 95.31 287.60 92.90 290.30 91.34 C 295.10 88.52 298.11 83.49 303.12 80.95 C 231.75 81.48 160.38 81.54 89.02 82.00 C 84.03 82.02 79.03 81.85 74.05 82.30 C 54.04 83.91 34.01 85.40 14.00 87.03 C 14.30 94.25 14.73 101.47 14.92 108.69 C 10.59 104.52 5.32 101.51 0.00 98.79 L 0.00 0.15 C 0.02 0.11 0.05 0.04 0.07 0.00 Z" />
<path fill="#f5e5c1" opacity="1.00" d=" M 354.54 46.57 C 357.38 46.68 360.25 47.48 362.97 48.38 C 357.38 52.19 352.15 56.52 346.33 59.99 C 346.53 57.31 345.91 54.28 347.23 51.86 C 349.49 49.87 352.02 48.21 354.54 46.57 Z" />
<path fill="#f4722b" opacity="1.00" d=" M 362.97 48.38 C 365.85 47.10 369.58 48.12 371.00 51.04 C 373.77 55.42 377.55 59.21 379.65 63.95 C 377.86 65.01 376.10 66.13 374.43 67.37 C 370.25 70.50 365.98 73.50 361.78 76.59 C 319.47 106.76 277.39 137.26 235.07 167.41 C 233.30 167.17 230.96 168.09 229.73 166.36 C 227.80 164.10 226.20 161.58 224.52 159.13 C 250.67 139.23 275.00 117.13 300.53 96.49 C 304.54 92.43 309.34 89.32 313.80 85.79 C 321.78 79.45 330.03 73.43 337.71 66.71 C 340.62 64.52 343.14 61.80 346.33 59.99 C 352.15 56.52 357.38 52.19 362.97 48.38 Z" />
<path fill="#3e3e3e" opacity="1.00" d=" M 361.51 54.30 C 364.09 53.89 367.28 53.74 369.24 55.82 C 370.50 57.29 371.26 59.16 371.60 61.06 C 370.47 64.85 367.31 68.30 363.02 67.67 C 356.37 67.18 355.20 56.26 361.51 54.30 Z" />
<path fill="#f5e5c1" opacity="1.00" d=" M 359.38 59.71 C 359.64 55.01 367.52 54.21 368.68 58.44 C 365.52 58.31 362.44 59.06 359.38 59.71 Z" />
<path fill="#f5e5c1" opacity="1.00" d=" M 358.81 62.74 C 362.31 61.68 366.05 62.50 369.66 62.13 C 369.28 64.41 366.91 65.30 365.13 66.31 C 362.34 67.12 360.44 64.53 358.81 62.74 Z" />
<path fill="#f4722b" opacity="1.00" d=" M 374.83 70.01 C 376.97 68.50 379.11 66.98 381.16 65.34 C 384.78 70.09 388.17 75.02 391.65 79.87 C 391.45 81.92 391.29 83.97 391.18 86.03 C 363.66 105.81 333.95 122.17 305.54 140.58 C 290.13 149.51 275.54 159.77 260.55 169.39 C 253.93 173.39 247.12 177.12 240.84 181.64 C 238.51 178.68 235.56 175.79 234.82 171.96 C 235.61 169.29 238.51 168.18 240.51 166.57 C 281.42 137.15 322.38 107.81 363.23 78.32 C 367.13 75.59 371.00 72.83 374.83 70.01 Z" />
<path fill="#f5e5c1" opacity="1.00" d=" M 361.78 76.59 C 365.98 73.50 370.25 70.50 374.43 67.37 C 374.53 68.03 374.73 69.35 374.83 70.01 C 371.00 72.83 367.13 75.59 363.23 78.32 C 362.87 77.88 362.14 77.02 361.78 76.59 Z" />
<path fill="#3e3e3e" opacity="1.00" d=" M 376.46 75.27 C 378.84 75.15 382.50 74.19 383.55 77.09 C 385.02 78.95 385.06 82.87 381.91 82.83 C 383.05 80.46 382.27 78.00 380.74 76.01 C 378.97 78.68 380.19 81.82 380.56 84.71 L 380.66 85.31 C 378.06 85.76 374.84 84.74 374.15 81.93 C 374.20 79.70 373.60 75.97 376.46 75.27 Z" />
<path fill="#f5e5c1" opacity="1.00" d=" M 377.32 83.72 C 374.73 81.93 374.37 78.12 377.41 76.59 C 377.53 78.96 377.54 81.35 377.32 83.72 Z" />
<path fill="#f5e5c1" opacity="1.00" d=" M 380.56 84.71 C 380.19 81.82 378.97 78.68 380.74 76.01 C 382.27 78.00 383.05 80.46 381.91 82.83 C 381.47 83.46 381.02 84.09 380.56 84.71 Z" />
<path fill="#f5e5c1" opacity="1.00" d=" M 89.02 82.00 C 160.38 81.54 231.75 81.48 303.12 80.95 C 298.11 83.49 295.10 88.52 290.30 91.34 C 287.60 92.90 285.61 95.31 283.38 97.42 C 279.50 98.07 275.41 97.94 271.54 97.24 C 266.27 95.21 260.54 96.14 255.05 96.04 C 252.66 95.89 249.92 97.27 250.26 100.03 C 250.43 107.70 250.65 115.37 250.48 123.04 C 250.80 124.83 249.14 125.74 248.08 126.80 C 241.38 116.80 235.05 106.56 228.50 96.46 C 227.84 95.46 227.02 94.42 225.72 94.30 C 220.55 93.54 215.30 93.64 210.09 93.77 C 193.09 92.94 176.08 92.43 159.07 91.65 C 156.88 91.62 154.51 91.28 152.51 92.42 C 150.15 97.39 151.78 103.15 150.91 108.44 C 147.52 102.55 142.30 97.82 136.14 94.95 C 123.05 88.80 108.18 88.90 94.04 89.52 C 91.57 89.76 88.87 89.38 86.61 90.55 C 84.52 92.89 85.46 96.23 85.23 99.07 C 84.69 118.97 84.28 138.88 83.67 158.78 C 80.32 160.94 79.15 164.93 79.55 168.72 C 74.78 167.89 69.94 168.26 65.13 168.47 C 67.21 166.69 69.12 164.58 69.47 161.74 C 72.41 161.81 75.65 162.93 78.39 161.46 C 79.38 160.17 79.62 158.52 79.76 156.95 C 81.43 135.84 83.16 114.73 84.87 93.63 C 85.09 91.93 84.64 89.66 82.67 89.25 C 78.54 88.27 74.25 88.40 70.06 87.82 C 67.20 87.70 64.00 86.61 61.43 88.39 C 60.25 90.38 60.43 92.84 60.15 95.06 C 58.79 114.41 56.75 133.72 55.70 153.09 C 52.40 147.28 44.56 147.50 40.71 142.26 C 35.75 135.72 31.94 128.38 27.25 121.64 C 23.85 116.69 19.12 112.92 14.92 108.69 C 14.73 101.47 14.30 94.25 14.00 87.03 C 34.01 85.40 54.04 83.91 74.05 82.30 C 79.03 81.85 84.03 82.02 89.02 82.00 Z" />
<path fill="#3e3e3e" opacity="1.00" d=" M 61.43 88.39 C 64.00 86.61 67.20 87.70 70.06 87.82 C 74.25 88.40 78.54 88.27 82.67 89.25 C 84.64 89.66 85.09 91.93 84.87 93.63 C 83.16 114.73 81.43 135.84 79.76 156.95 C 79.62 158.52 79.38 160.17 78.39 161.46 C 75.65 162.93 72.41 161.81 69.47 161.74 C 69.35 160.98 69.11 159.45 68.98 158.68 C 71.50 158.90 74.02 159.12 76.54 159.32 C 78.40 136.87 80.14 114.42 82.01 91.97 C 75.87 91.36 69.72 90.84 63.58 90.21 C 61.85 111.38 60.16 132.55 58.43 153.71 C 57.29 154.92 56.14 156.12 55.05 157.38 L 55.37 156.35 C 55.60 155.79 56.08 154.66 56.32 154.10 L 55.70 153.09 C 56.75 133.72 58.79 114.41 60.15 95.06 C 60.43 92.84 60.25 90.38 61.43 88.39 Z" />
<path fill="#f5e5c1" opacity="1.00" d=" M 396.04 96.01 C 399.15 94.15 400.39 90.61 401.49 87.36 C 422.50 88.95 443.51 90.34 464.52 91.82 C 468.10 92.09 471.52 93.21 474.98 94.12 C 487.31 97.40 499.66 100.67 512.00 103.94 L 512.00 219.73 C 502.48 266.99 492.86 314.23 483.30 361.49 C 477.94 388.28 472.10 414.99 467.99 442.02 C 414.30 438.05 360.61 434.14 306.92 430.19 C 284.61 428.69 262.34 426.61 240.00 425.58 C 228.69 425.10 217.38 425.15 206.06 424.85 C 198.39 424.75 190.70 424.56 183.04 425.16 C 140.44 428.68 97.84 432.22 55.23 435.74 C 46.80 436.60 38.20 436.51 30.01 439.02 C 27.20 378.05 24.49 317.08 21.67 256.12 C 24.14 256.57 27.40 257.78 29.09 255.11 C 30.52 252.10 29.44 248.18 27.05 245.96 C 25.43 244.46 23.13 244.73 21.11 244.64 C 20.11 219.61 18.84 194.60 17.76 169.58 C 25.35 173.34 33.49 177.10 38.79 183.97 C 35.90 185.11 32.52 185.84 30.51 188.43 C 26.72 192.92 28.69 200.50 33.91 202.97 C 37.45 205.01 41.73 204.42 45.38 203.01 C 46.35 211.63 45.82 220.33 46.63 228.97 C 48.34 265.92 49.93 302.89 51.74 339.84 C 52.31 357.61 53.14 375.44 56.05 392.98 C 58.06 395.54 60.35 398.13 63.09 399.88 C 86.71 400.02 110.35 399.28 133.98 399.21 C 167.65 398.74 201.32 398.45 234.99 397.98 C 235.67 376.85 236.28 355.72 236.97 334.59 C 241.34 337.35 246.07 339.95 249.17 344.21 C 251.66 347.17 254.90 349.56 258.57 350.83 C 264.57 352.92 269.43 357.35 275.50 359.31 C 279.33 360.56 283.22 361.69 286.92 363.33 C 286.10 365.54 284.49 368.31 286.47 370.40 C 288.98 372.97 292.14 374.81 294.62 377.42 C 297.84 380.00 297.23 384.87 300.39 387.52 C 303.53 390.48 305.40 395.23 309.99 396.28 C 314.45 397.44 318.93 392.35 316.95 388.11 C 315.08 384.21 312.86 380.01 308.57 378.37 C 303.84 374.89 300.20 370.04 295.13 366.95 C 290.72 364.41 287.31 360.05 282.06 359.17 C 274.78 357.50 268.31 353.67 261.37 351.10 C 255.74 349.48 248.87 346.30 248.21 339.73 C 247.11 333.85 242.45 329.47 237.20 327.06 C 237.51 316.38 237.85 305.70 238.17 295.02 C 244.24 295.47 250.25 296.64 256.33 296.92 C 254.18 296.29 251.93 296.15 249.75 295.72 C 245.82 294.13 242.21 291.85 238.25 290.32 C 238.40 286.93 238.80 283.50 238.22 280.13 C 240.43 282.66 244.36 283.65 247.12 281.38 C 244.74 279.15 241.72 277.91 238.52 277.45 C 239.17 271.14 238.94 264.78 239.21 258.46 C 248.41 258.27 257.73 259.80 266.83 257.72 C 273.63 256.19 280.50 257.66 287.24 258.70 C 282.75 257.14 277.95 256.75 273.24 256.54 C 267.77 251.43 261.53 246.84 254.16 245.00 C 255.35 243.68 256.53 242.36 257.72 241.03 C 262.59 245.64 270.11 247.09 276.21 244.17 C 279.19 242.79 281.34 239.33 284.97 239.72 C 291.24 240.13 297.52 240.28 303.79 240.70 C 297.31 248.95 292.22 258.32 289.10 268.35 C 284.74 268.85 280.08 268.93 276.15 271.10 C 271.33 273.85 270.72 281.54 275.02 285.00 C 277.77 287.52 281.76 287.59 285.22 288.39 C 284.27 302.05 286.67 315.91 291.95 328.52 C 289.08 329.05 285.77 330.68 285.49 333.96 C 284.60 337.69 288.18 341.45 291.96 340.69 C 293.99 340.81 295.36 339.17 296.79 338.01 C 302.05 347.40 309.57 355.24 317.60 362.30 C 321.05 366.93 326.80 368.50 331.11 372.09 C 339.16 374.48 346.81 378.34 355.18 379.62 C 362.40 380.52 369.69 381.46 376.97 380.81 C 384.78 380.37 392.38 378.42 399.87 376.34 C 404.01 383.96 414.35 387.59 422.02 383.07 C 430.20 378.84 432.42 367.66 427.78 360.01 C 453.02 339.03 463.98 302.77 454.73 271.28 C 449.49 251.70 436.78 234.33 420.03 223.01 C 406.54 213.71 390.30 208.63 373.98 208.03 C 348.97 207.40 323.76 217.94 307.21 236.81 C 299.96 233.57 292.00 236.04 284.39 235.54 C 284.55 230.73 282.29 225.38 277.35 223.90 C 270.51 222.39 261.84 222.71 257.42 229.02 C 254.85 227.38 252.26 225.21 249.01 225.44 C 245.37 225.23 242.35 227.57 239.95 230.01 L 240.16 228.76 C 236.21 228.84 232.26 228.73 228.32 228.45 C 232.23 228.28 236.15 228.16 240.07 228.25 C 240.20 225.07 240.29 221.89 240.37 218.71 C 251.98 217.67 263.39 215.07 274.99 213.89 C 285.01 212.97 294.94 211.14 305.02 211.16 C 315.75 211.13 326.50 209.22 336.57 205.50 C 340.36 204.36 345.16 204.31 347.50 200.55 C 349.64 197.82 347.28 193.74 344.05 193.49 C 341.13 193.25 338.18 193.76 335.42 194.66 C 332.95 195.47 332.28 198.24 330.92 200.15 C 327.46 200.66 323.92 200.24 320.46 200.79 C 308.36 202.56 296.17 203.78 283.96 204.30 C 281.52 204.77 279.77 202.94 277.86 201.83 C 275.22 201.60 272.49 201.95 269.98 200.89 C 260.35 203.12 250.70 205.27 240.93 206.76 C 240.96 204.39 240.99 202.03 241.00 199.67 C 243.93 200.02 247.28 199.81 249.51 197.63 C 251.59 195.65 253.88 193.92 256.11 192.11 C 258.99 189.61 258.91 185.44 259.32 181.96 C 268.30 177.76 276.18 171.62 284.35 166.09 C 285.20 167.68 285.92 169.89 288.11 169.88 C 293.05 170.18 298.01 169.94 302.97 170.01 C 304.73 170.00 307.30 169.86 307.71 167.68 C 308.75 162.28 308.00 156.72 308.49 151.26 C 312.74 148.12 317.17 145.21 321.85 142.75 C 324.94 140.67 327.85 138.25 331.44 137.05 C 330.59 147.34 329.62 157.64 328.99 167.95 C 328.50 170.45 331.09 171.41 333.09 171.53 C 338.40 172.03 343.70 172.59 349.02 172.94 C 351.10 173.16 353.23 171.59 353.30 169.42 C 355.00 153.05 355.50 136.53 357.69 120.22 C 363.91 122.74 370.81 120.99 377.33 121.48 C 376.84 137.00 376.69 152.52 376.24 168.03 C 376.30 169.91 376.25 172.66 378.49 173.33 C 382.26 174.17 386.17 173.59 390.01 173.77 C 392.88 173.65 396.09 174.28 398.63 172.55 C 400.13 169.61 399.62 166.16 399.77 162.98 C 400.10 149.14 400.39 135.31 400.74 121.48 C 407.47 121.44 414.21 121.68 420.94 121.31 C 427.86 128.63 434.56 136.14 441.53 143.41 C 441.48 152.95 441.96 162.49 442.00 172.04 C 441.99 173.81 442.18 176.38 444.38 176.73 C 448.57 176.99 452.78 176.60 456.99 176.78 C 459.22 176.63 461.82 177.16 463.73 175.69 C 465.39 173.48 464.64 170.55 464.78 168.00 C 464.91 159.38 464.09 150.74 464.65 142.14 C 467.94 137.66 472.14 133.95 475.65 129.65 C 479.48 124.99 484.20 121.02 487.41 115.90 C 487.70 112.69 484.58 111.22 482.52 109.46 C 479.87 107.55 477.51 104.74 474.07 104.43 C 471.97 105.42 470.64 107.42 469.13 109.10 C 464.27 115.05 459.13 120.77 454.37 126.80 C 446.87 118.82 440.25 110.01 432.72 102.07 C 428.80 100.90 426.05 104.91 423.30 107.01 C 423.13 104.83 423.10 101.59 420.05 101.88 C 408.99 101.64 397.92 101.77 386.86 101.56 C 389.73 99.41 392.91 97.74 396.04 96.01 Z" />
<path fill="#f5e5c1" opacity="1.00" d=" M 63.58 90.21 C 69.72 90.84 75.87 91.36 82.01 91.97 C 80.14 114.42 78.40 136.87 76.54 159.32 C 74.02 159.12 71.50 158.90 68.98 158.68 C 67.01 154.72 62.74 152.83 58.43 153.71 C 60.16 132.55 61.85 111.38 63.58 90.21 Z" />
<path fill="#f5e5c1" opacity="1.00" d=" M 88.27 92.84 C 104.82 92.08 122.81 90.60 137.76 99.19 C 153.81 108.22 157.07 132.53 145.14 146.16 C 138.15 154.25 127.52 158.23 117.11 159.38 C 109.44 159.94 101.65 160.08 94.03 159.01 C 91.76 157.87 89.25 157.37 86.71 157.56 C 87.26 135.99 87.96 114.41 88.27 92.84 Z" />
<path fill="#f5e5c1" opacity="1.00" d=" M 154.49 94.45 C 172.68 95.41 190.92 95.65 209.07 96.86 C 208.65 102.09 208.57 107.33 208.39 112.57 C 195.92 112.31 183.46 111.55 170.99 111.24 C 171.03 118.65 170.74 126.05 170.46 133.46 C 177.31 133.70 184.16 133.97 191.00 134.28 C 191.04 137.29 190.91 140.31 190.65 143.31 C 183.94 142.95 177.22 142.73 170.51 142.46 C 170.49 144.88 170.49 147.31 170.50 149.74 C 180.66 149.74 190.82 150.17 200.99 150.00 C 201.00 154.26 201.12 158.52 200.70 162.76 C 184.66 162.55 168.62 162.18 152.59 161.72 C 153.28 139.30 153.69 116.87 154.49 94.45 Z" />
<path fill="#f5e5c1" opacity="1.00" d=" M 209.39 149.03 C 210.58 131.55 210.79 114.00 211.71 96.50 C 216.30 96.71 220.90 96.82 225.49 97.12 C 232.12 107.85 239.17 118.31 245.80 129.04 C 242.44 131.39 239.40 134.14 236.38 136.90 C 233.38 132.94 231.29 128.29 227.84 124.68 C 227.79 130.12 227.35 135.56 227.54 141.01 C 223.85 140.05 219.40 139.47 216.42 142.42 C 214.16 144.74 210.84 145.99 209.39 149.03 Z" />
<path fill="#f4722b" opacity="1.00" d=" M 0.00 98.79 C 5.32 101.51 10.59 104.52 14.92 108.69 C 19.12 112.92 23.85 116.69 27.25 121.64 C 31.94 128.38 35.75 135.72 40.71 142.26 C 44.56 147.50 52.40 147.28 55.70 153.09 L 56.32 154.10 C 56.08 154.66 55.60 155.79 55.37 156.35 C 52.56 154.17 49.88 151.73 46.52 150.41 C 42.49 148.85 39.00 146.05 36.59 142.45 C 32.77 136.55 29.23 130.47 25.33 124.62 C 22.66 120.48 18.81 117.35 15.17 114.12 C 10.70 109.87 5.37 106.75 0.00 103.80 L 0.00 98.79 Z" />
<path fill="#f5e5c1" opacity="1.00" d=" M 253.21 99.03 C 258.39 98.98 263.56 98.98 268.74 99.02 L 268.72 100.58 C 272.14 100.45 275.56 100.68 278.97 100.81 C 275.34 103.21 272.61 106.84 268.80 108.89 C 264.14 113.78 258.77 117.92 253.49 122.10 C 253.57 114.40 253.49 106.71 253.21 99.03 Z" />
<path fill="#3e3e3e" opacity="1.00" d=" M 0.00 103.80 C 5.37 106.75 10.70 109.87 15.17 114.12 C 16.10 131.80 16.83 149.49 17.62 167.18 C 11.96 164.30 6.02 162.05 0.00 160.05 L 0.00 103.80 Z" />
<path fill="#f5e5c1" opacity="1.00" d=" M 374.11 110.11 C 377.85 108.46 380.51 104.22 384.96 104.50 C 396.73 104.66 408.50 104.84 420.28 104.76 C 420.06 107.55 419.96 110.34 419.98 113.13 C 423.70 110.26 427.38 107.34 431.10 104.47 C 438.78 113.47 446.48 122.46 454.20 131.42 C 461.15 123.41 467.79 115.13 474.83 107.20 C 478.13 109.82 481.43 112.45 484.75 115.05 C 477.53 123.07 470.36 131.12 463.11 139.11 C 462.16 140.20 460.83 141.35 461.39 143.01 C 461.57 153.25 461.72 163.48 461.88 173.73 C 456.25 173.85 450.61 173.54 444.99 173.94 C 445.08 163.42 444.42 152.90 444.52 142.37 C 436.46 133.53 428.25 124.84 420.19 116.01 C 420.12 116.64 419.97 117.89 419.89 118.51 C 412.50 118.58 405.09 118.29 397.70 118.66 C 397.45 136.02 397.07 153.39 396.48 170.75 C 390.73 170.75 384.99 170.75 379.25 170.75 C 379.47 153.33 380.13 135.92 380.24 118.51 C 373.82 118.49 367.41 118.48 360.99 118.52 C 362.94 117.23 364.97 116.07 367.10 115.11 C 369.86 114.06 371.43 111.28 374.11 110.11 Z" />
<path fill="#3e3e3e" opacity="1.00" d=" M 103.24 112.04 C 111.23 110.88 120.06 111.47 126.99 115.99 C 135.98 121.84 135.70 137.05 126.71 142.77 C 119.66 147.32 110.71 147.56 102.63 146.55 C 103.19 135.06 103.17 123.55 103.24 112.04 Z" />
<path fill="#f5e5c1" opacity="1.00" d=" M 15.17 114.12 C 18.81 117.35 22.66 120.48 25.33 124.62 C 29.23 130.47 32.77 136.55 36.59 142.45 C 39.00 146.05 42.49 148.85 46.52 150.41 C 49.88 151.73 52.56 154.17 55.37 156.35 L 55.05 157.38 C 53.28 161.97 56.41 166.37 60.48 168.28 C 54.99 168.19 49.49 168.09 44.00 167.97 C 44.02 171.40 44.10 174.83 44.17 178.26 C 42.03 179.56 40.15 181.24 38.34 182.95 C 32.85 176.08 25.33 171.22 17.62 167.18 C 16.83 149.49 16.10 131.80 15.17 114.12 Z" />
<path fill="#f5e5c1" opacity="1.00" d=" M 106.32 114.55 C 112.60 114.37 119.34 114.67 124.83 118.10 C 132.51 122.63 132.53 135.36 125.17 140.22 C 119.57 144.16 112.35 144.08 105.79 144.00 C 106.12 134.19 106.09 124.37 106.32 114.55 Z" />
<path fill="#f5e5c1" opacity="1.00" d=" M 174.01 114.31 C 185.28 114.67 196.54 115.35 207.82 115.52 C 207.47 130.36 206.65 145.19 206.18 160.03 C 206.37 161.91 204.70 163.06 203.41 164.07 C 204.14 159.45 204.15 154.75 203.91 150.09 C 203.86 148.03 201.82 146.87 199.94 147.02 C 191.38 146.94 182.81 147.08 174.25 146.63 C 173.81 146.47 172.93 146.15 172.48 145.99 C 178.83 144.95 185.41 146.83 191.80 145.90 C 193.82 144.71 193.74 142.01 193.93 139.97 C 194.00 137.37 194.40 134.44 192.83 132.18 C 191.46 131.06 189.58 131.29 187.94 131.11 C 183.08 130.97 178.23 130.67 173.36 130.66 C 174.03 125.25 173.78 119.76 174.01 114.31 Z" />
<path fill="#f5e5c1" opacity="1.00" d=" M 340.15 131.11 C 345.03 129.02 349.01 125.40 353.64 122.85 C 353.81 123.81 353.89 124.76 353.89 125.73 C 352.74 140.45 351.41 155.16 350.39 169.89 C 344.25 169.87 338.16 168.83 332.03 168.48 C 332.52 157.42 333.79 146.41 334.51 135.37 C 336.32 133.87 337.96 132.07 340.15 131.11 Z" />
<path fill="#f5e5c1" opacity="1.00" d=" M 230.29 132.83 C 231.31 134.63 232.41 136.38 233.55 138.11 C 232.55 139.16 231.55 140.21 230.56 141.27 C 230.53 138.45 230.50 135.64 230.29 132.83 Z" />
<path fill="#f5e5c1" opacity="1.00" d=" M 121.64 161.70 C 132.66 159.67 143.72 154.32 150.01 144.71 C 150.20 150.73 149.19 156.82 149.98 162.80 C 152.15 165.75 156.75 164.58 160.01 164.99 C 173.36 165.16 186.71 165.61 200.07 165.80 C 196.99 167.77 194.00 170.71 190.03 170.23 C 159.58 169.72 129.12 169.37 98.67 168.78 C 98.55 166.58 98.15 164.40 97.29 162.36 C 105.39 162.93 113.62 163.19 121.64 161.70 Z" />
<path fill="#f5e5c1" opacity="1.00" d=" M 218.06 155.01 C 219.57 153.30 221.45 151.99 223.20 150.55 C 224.74 151.56 227.17 151.88 227.81 153.82 C 226.05 155.67 222.76 156.40 222.01 158.99 C 222.79 162.34 225.53 164.86 227.46 167.62 C 228.71 169.65 231.38 168.96 233.16 170.03 C 233.10 171.95 232.11 174.06 233.38 175.79 C 235.44 179.14 238.01 182.14 240.20 185.40 C 242.86 183.52 245.50 181.60 248.19 179.76 C 248.61 181.13 249.02 182.50 249.44 183.87 C 247.38 185.49 245.33 187.12 243.31 188.78 C 240.10 187.44 236.83 186.21 233.86 184.38 C 224.88 192.25 215.84 200.03 206.56 207.54 C 195.27 217.44 182.92 226.05 171.59 235.90 C 165.55 227.71 158.67 220.14 152.97 211.69 C 157.01 209.50 159.80 205.73 163.58 203.18 C 173.61 195.53 184.60 189.25 194.84 181.89 C 202.74 175.92 211.56 171.32 219.49 165.38 C 220.42 161.97 218.17 158.48 218.06 155.01 Z" />
<path fill="#f4722b" opacity="1.00" d=" M 55.05 157.38 C 56.14 156.12 57.29 154.92 58.43 153.71 C 62.74 152.83 67.01 154.72 68.98 158.68 C 69.11 159.45 69.35 160.98 69.47 161.74 C 69.12 164.58 67.21 166.69 65.13 168.47 C 63.58 168.46 62.03 168.37 60.48 168.28 C 56.41 166.37 53.28 161.97 55.05 157.38 Z" />
<path fill="#f5e5c1" opacity="1.00" d=" M 287.78 164.00 C 293.62 160.17 299.41 156.26 305.53 152.83 C 304.99 157.54 305.50 162.29 304.96 167.00 C 299.23 167.00 293.49 167.00 287.76 167.00 C 287.77 166.25 287.78 164.75 287.78 164.00 Z" />
<path fill="#f4722b" opacity="1.00" d=" M 83.67 158.78 C 84.66 158.34 85.68 157.94 86.71 157.56 C 89.25 157.37 91.76 157.87 94.03 159.01 C 95.18 160.06 96.25 161.19 97.29 162.36 C 98.15 164.40 98.55 166.58 98.67 168.78 C 97.42 174.07 91.34 177.71 86.19 175.60 C 82.92 174.65 80.71 171.79 79.55 168.72 C 79.15 164.93 80.32 160.94 83.67 158.78 Z" />
<path fill="#3e3e3e" opacity="1.00" d=" M 229.86 158.92 C 231.13 157.70 232.87 158.33 234.35 158.67 C 234.38 159.54 234.42 160.41 234.47 161.28 C 233.25 161.85 232.09 163.34 230.65 162.48 C 229.43 161.66 229.41 160.17 229.86 158.92 Z" />
<path fill="#f4722b" opacity="1.00" d=" M 0.00 160.05 C 6.02 162.05 11.96 164.30 17.62 167.18 C 25.33 171.22 32.85 176.08 38.34 182.95 C 40.15 181.24 42.03 179.56 44.17 178.26 C 46.80 178.12 49.49 177.92 52.07 178.59 C 58.29 181.52 60.67 190.78 55.90 195.96 C 52.36 198.25 48.67 200.33 45.38 203.01 C 41.73 204.42 37.45 205.01 33.91 202.97 C 28.69 200.50 26.72 192.92 30.51 188.43 C 32.52 185.84 35.90 185.11 38.79 183.97 C 33.49 177.10 25.35 173.34 17.76 169.58 C 11.91 167.13 6.25 163.86 0.00 162.62 L 0.00 160.05 Z" />
<path fill="#3e3e3e" opacity="1.00" d=" M 0.00 162.62 C 6.25 163.86 11.91 167.13 17.76 169.58 C 18.84 194.60 20.11 219.61 21.11 244.64 C 20.11 246.32 18.38 247.87 18.63 250.01 C 18.80 252.35 20.52 254.17 21.67 256.12 C 24.49 317.08 27.20 378.05 30.01 439.02 C 38.20 436.51 46.80 436.60 55.23 435.74 C 97.84 432.22 140.44 428.68 183.04 425.16 C 190.70 424.56 198.39 424.75 206.06 424.85 C 217.38 425.15 228.69 425.10 240.00 425.58 C 262.34 426.61 284.61 428.69 306.92 430.19 C 360.61 434.14 414.30 438.05 467.99 442.02 C 472.10 414.99 477.94 388.28 483.30 361.49 C 492.86 314.23 502.48 266.99 512.00 219.73 L 512.00 512.00 L 0.00 512.00 L 0.00 162.62 Z" />
<path fill="#3e3e3e" opacity="1.00" d=" M 239.93 171.89 C 241.07 171.44 242.33 171.60 243.53 171.51 C 243.62 172.86 243.66 174.22 243.65 175.58 C 242.24 175.63 240.84 175.66 239.45 175.65 C 239.58 174.41 239.14 172.97 239.93 171.89 Z" />
<path fill="#f4722b" opacity="1.00" d=" M 395.36 187.07 C 397.90 185.03 402.11 187.81 401.12 191.00 C 400.26 194.17 395.31 193.36 394.44 190.65 C 394.10 189.46 394.22 187.80 395.36 187.07 Z" />
<path fill="#f4722b" opacity="1.00" d=" M 131.58 201.30 C 133.45 194.96 141.58 191.74 147.38 194.71 C 151.85 197.09 157.60 194.97 161.76 198.23 C 163.31 199.40 163.28 201.45 163.58 203.18 C 159.80 205.73 157.01 209.50 152.97 211.69 C 158.67 220.14 165.55 227.71 171.59 235.90 C 173.68 238.67 175.87 241.34 177.94 244.12 C 180.92 241.75 183.85 239.31 186.72 236.81 C 190.15 233.82 194.31 231.77 197.60 228.61 C 201.68 224.63 206.54 221.58 210.67 217.67 C 213.43 214.87 217.33 213.94 220.96 212.85 C 227.66 210.96 234.05 208.02 240.93 206.76 C 250.70 205.27 260.35 203.12 269.98 200.89 C 272.49 201.95 275.22 201.60 277.86 201.83 C 279.77 202.94 281.52 204.77 283.96 204.30 C 296.17 203.78 308.36 202.56 320.46 200.79 C 323.92 200.24 327.46 200.66 330.92 200.15 C 332.28 198.24 332.95 195.47 335.42 194.66 C 338.18 193.76 341.13 193.25 344.05 193.49 C 347.28 193.74 349.64 197.82 347.50 200.55 C 345.16 204.31 340.36 204.36 336.57 205.50 C 326.50 209.22 315.75 211.13 305.02 211.16 C 294.94 211.14 285.01 212.97 274.99 213.89 C 263.39 215.07 251.98 217.67 240.37 218.71 C 233.13 218.90 225.94 219.95 218.81 221.16 C 221.34 224.87 222.86 229.11 223.16 233.59 C 228.17 234.49 233.14 236.76 238.28 235.31 C 238.85 233.55 239.42 231.79 239.95 230.01 C 242.35 227.57 245.37 225.23 249.01 225.44 C 252.26 225.21 254.85 227.38 257.42 229.02 C 261.84 222.71 270.51 222.39 277.35 223.90 C 282.29 225.38 284.55 230.73 284.39 235.54 C 292.00 236.04 299.96 233.57 307.21 236.81 C 306.06 238.10 304.88 239.37 303.79 240.70 C 297.52 240.28 291.24 240.13 284.97 239.72 C 281.34 239.33 279.19 242.79 276.21 244.17 C 270.11 247.09 262.59 245.64 257.72 241.03 C 256.53 242.36 255.35 243.68 254.16 245.00 C 261.53 246.84 267.77 251.43 273.24 256.54 C 277.95 256.75 282.75 257.14 287.24 258.70 C 280.50 257.66 273.63 256.19 266.83 257.72 C 257.73 259.80 248.41 258.27 239.21 258.46 C 226.75 258.56 214.18 254.70 201.83 257.63 C 197.08 258.42 192.16 257.45 187.74 255.65 C 184.87 259.67 185.85 265.10 182.80 269.02 C 178.24 273.46 170.50 271.98 167.06 266.91 C 163.68 262.71 163.93 257.07 163.68 251.99 C 161.18 252.27 159.02 253.61 156.67 254.39 C 149.85 255.88 141.60 252.80 138.89 246.02 C 137.02 241.98 138.18 237.47 138.71 233.27 C 135.53 235.63 131.35 237.84 127.49 235.58 C 120.83 233.29 118.29 224.25 122.81 218.85 C 125.69 214.63 131.15 213.98 135.83 214.73 C 135.70 213.77 135.57 212.82 135.44 211.87 C 133.28 211.49 131.65 210.14 130.73 208.18 C 131.15 205.90 131.39 203.60 131.58 201.30 Z" />
<path fill="#f4722b" opacity="1.00" d=" M 98.39 197.40 C 100.63 194.74 104.04 196.32 105.59 198.83 C 105.74 201.58 104.04 204.71 101.00 204.79 C 97.10 205.28 95.24 199.59 98.39 197.40 Z" />
<path fill="#f4722b" opacity="1.00" d=" M 106.62 197.69 C 110.39 196.01 113.07 201.02 111.88 204.12 C 108.42 205.01 107.03 200.34 106.62 197.69 Z" />
<path fill="#f4722b" opacity="1.00" d=" M 114.15 202.46 C 115.50 201.20 117.68 203.11 116.42 204.53 C 115.17 205.93 112.32 203.77 114.15 202.46 Z" />
<path fill="#f5e5c1" opacity="1.00" d=" M 109.97 225.56 C 113.95 215.21 121.67 206.34 131.58 201.30 C 131.39 203.60 131.15 205.90 130.73 208.18 C 131.65 210.14 133.28 211.49 135.44 211.87 C 135.57 212.82 135.70 213.77 135.83 214.73 C 131.15 213.98 125.69 214.63 122.81 218.85 C 118.29 224.25 120.83 233.29 127.49 235.58 C 131.35 237.84 135.53 235.63 138.71 233.27 C 138.18 237.47 137.02 241.98 138.89 246.02 C 141.60 252.80 149.85 255.88 156.67 254.39 C 159.02 253.61 161.18 252.27 163.68 251.99 C 163.93 257.07 163.68 262.71 167.06 266.91 C 170.50 271.98 178.24 273.46 182.80 269.02 C 181.44 271.24 180.29 273.58 179.15 275.92 C 172.95 275.31 166.96 273.00 160.67 273.43 C 160.71 274.05 160.80 275.29 160.84 275.91 C 166.56 275.90 172.02 277.81 177.66 278.50 C 176.08 280.60 174.45 282.65 172.74 284.64 C 171.49 283.64 169.93 282.90 168.33 283.58 C 166.44 285.68 168.26 288.43 169.79 290.14 C 172.88 294.02 177.64 295.76 181.94 297.88 C 186.35 299.97 189.92 303.37 193.96 306.02 C 203.53 311.99 213.94 316.97 222.09 324.93 C 224.69 332.30 225.53 340.17 225.92 347.94 C 226.80 354.15 227.11 360.57 225.43 366.68 C 224.46 370.82 222.19 375.22 217.94 376.72 C 216.72 377.19 215.52 377.70 214.29 378.13 C 211.40 378.55 208.32 377.91 205.97 376.15 C 204.63 374.76 203.75 373.01 202.59 371.48 C 205.46 371.30 208.92 371.36 210.77 368.72 C 213.76 365.31 212.59 359.48 208.59 357.40 C 206.10 355.74 202.97 356.59 200.51 357.83 C 200.11 353.88 199.63 349.94 199.10 346.01 C 198.13 351.00 198.80 356.12 198.04 361.13 C 197.78 362.85 197.62 364.59 197.51 366.33 C 197.53 370.14 196.04 374.58 192.43 376.38 C 175.46 384.09 156.52 388.00 137.90 385.91 C 125.16 384.95 112.68 381.36 101.15 375.93 C 97.46 373.20 96.83 368.15 96.40 363.90 C 96.09 357.92 96.13 351.90 95.13 345.98 C 93.55 355.36 95.28 365.67 90.15 374.17 C 88.42 377.66 84.07 378.16 80.60 377.91 C 75.55 377.90 71.42 373.75 69.79 369.24 C 67.20 361.75 68.30 353.70 68.63 345.96 C 69.29 333.35 72.17 320.27 80.18 310.17 C 90.26 297.58 105.33 289.96 120.75 286.09 C 109.26 274.55 104.43 257.58 105.84 241.58 C 108.45 240.08 111.20 238.10 111.93 234.99 C 112.94 231.75 112.03 228.18 109.97 225.56 Z" />
<path fill="#f4722b" opacity="1.00" d=" M 47.64 205.15 C 51.45 207.88 55.57 210.35 60.04 211.81 C 66.95 213.29 74.00 211.61 80.96 211.48 C 87.68 210.94 94.96 210.54 101.02 213.99 C 104.11 215.85 104.81 219.57 106.25 222.59 C 107.34 223.74 108.72 224.58 109.97 225.56 C 112.03 228.18 112.94 231.75 111.93 234.99 C 111.20 238.10 108.45 240.08 105.84 241.58 C 103.23 241.74 100.43 242.09 98.01 240.85 C 93.68 238.77 91.50 233.09 93.41 228.66 C 94.41 225.56 97.37 223.88 99.99 222.31 C 98.60 219.30 95.52 218.08 92.42 217.72 C 82.31 216.56 72.09 216.66 61.97 215.56 C 55.72 214.82 51.20 209.92 47.64 205.15 Z" />
<path fill="#f4722b" opacity="1.00" d=" M 492.35 205.47 C 495.13 204.34 498.54 207.09 497.51 210.05 C 496.16 212.50 491.74 213.53 490.34 210.62 C 489.00 208.86 490.38 206.00 492.35 205.47 Z" />
<path fill="#3e3e3e" opacity="1.00" d=" M 307.21 236.81 C 323.76 217.94 348.97 207.40 373.98 208.03 C 390.30 208.63 406.54 213.71 420.03 223.01 C 436.78 234.33 449.49 251.70 454.73 271.28 C 463.98 302.77 453.02 339.03 427.78 360.01 C 432.42 367.66 430.20 378.84 422.02 383.07 C 414.35 387.59 404.01 383.96 399.87 376.34 C 392.38 378.42 384.78 380.37 376.97 380.81 C 369.69 381.46 362.40 380.52 355.18 379.62 C 346.81 378.34 339.16 374.48 331.11 372.09 C 326.80 368.50 321.05 366.93 317.60 362.30 C 309.57 355.24 302.05 347.40 296.79 338.01 C 295.02 334.93 293.32 331.80 291.95 328.52 C 286.67 315.91 284.27 302.05 285.22 288.39 C 285.76 281.59 287.16 274.88 289.10 268.35 C 292.22 258.32 297.31 248.95 303.79 240.70 C 304.88 239.37 306.06 238.10 307.21 236.81 Z" />
<path fill="#f5e5c1" opacity="1.00" d=" M 344.63 217.79 C 352.55 215.17 361.05 215.14 369.30 214.78 C 369.89 215.90 369.80 217.13 369.66 218.35 C 362.70 219.35 355.61 219.82 348.84 221.84 C 347.50 222.23 346.13 222.44 344.74 222.47 C 344.70 220.91 344.67 219.35 344.63 217.79 Z" />
<path fill="#f5e5c1" opacity="1.00" d=" M 370.44 215.53 C 372.65 215.49 374.86 215.60 377.07 215.73 C 380.97 215.73 384.95 215.66 388.76 216.58 C 385.80 217.20 382.74 215.99 379.83 216.98 C 376.71 217.81 373.45 217.55 370.26 217.52 L 370.44 215.53 Z" />
<path fill="#f5e5c1" opacity="1.00" d=" M 374.47 219.64 C 380.46 219.47 386.42 217.56 392.42 218.96 C 386.22 220.12 379.78 220.58 373.77 222.41 C 373.13 222.03 371.86 221.29 371.22 220.92 C 372.20 220.18 373.28 219.75 374.47 219.64 Z" />
<path fill="#3e3e3e" opacity="1.00" d=" M 218.81 221.16 C 225.94 219.95 233.13 218.90 240.37 218.71 C 240.29 221.89 240.20 225.07 240.07 228.25 C 236.15 228.16 232.23 228.28 228.32 228.45 C 232.26 228.73 236.21 228.84 240.16 228.76 L 239.95 230.01 C 239.42 231.79 238.85 233.55 238.28 235.31 C 233.14 236.76 228.17 234.49 223.16 233.59 C 222.86 229.11 221.34 224.87 218.81 221.16 Z" />
<path fill="#f5e5c1" opacity="1.00" d=" M 324.18 228.15 C 330.22 224.05 336.61 220.35 343.56 218.02 C 343.51 219.80 343.48 221.59 343.46 223.38 C 337.31 225.09 331.48 227.81 325.99 231.02 C 324.00 232.11 321.99 233.39 319.66 233.52 C 318.57 234.79 317.34 236.54 315.41 235.80 L 315.02 235.49 L 314.79 235.31 C 316.77 234.54 318.08 232.40 320.34 232.39 C 320.79 230.38 322.64 229.29 324.18 228.15 Z" />
<path fill="#f5e5c1" opacity="1.00" d=" M 400.13 220.02 C 401.20 220.83 401.30 222.18 401.55 223.41 C 405.35 228.20 406.89 234.24 408.81 239.92 C 406.86 239.73 401.46 240.72 403.19 237.12 C 401.29 231.57 401.60 225.65 400.13 220.02 Z" />
<path fill="#f5e5c1" opacity="1.00" d=" M 402.94 220.01 C 407.48 222.32 412.31 223.96 416.73 226.51 C 418.61 225.82 420.85 226.36 421.05 228.66 C 422.62 228.18 423.63 230.47 423.69 231.71 C 422.59 231.60 422.30 230.20 421.87 229.40 C 420.41 229.42 419.81 227.93 418.75 227.25 C 413.11 225.89 407.64 223.45 402.94 220.01 Z" />
<path fill="#f5e5c1" opacity="1.00" d=" M 347.47 224.36 C 354.09 222.18 361.19 221.93 368.00 220.54 C 369.59 220.24 370.88 220.77 371.88 222.16 C 369.91 222.86 367.89 223.45 365.83 223.82 C 362.31 224.87 358.94 226.36 355.54 227.71 C 353.32 228.65 351.05 230.41 348.51 229.61 C 347.33 228.27 346.57 226.01 347.47 224.36 Z" />
<path fill="#f5e5c1" opacity="1.00" d=" M 375.28 223.68 C 380.88 223.49 386.31 221.43 391.93 221.66 C 387.48 222.54 383.34 224.44 379.23 226.30 C 378.01 226.99 376.59 226.79 375.26 226.81 C 375.26 225.77 375.26 224.72 375.28 223.68 Z" />
<path fill="#f5e5c1" opacity="1.00" d=" M 393.18 225.06 C 393.49 224.54 394.12 223.51 394.43 223.00 C 394.97 228.17 390.50 232.16 389.28 237.02 C 386.91 236.62 384.76 235.57 382.86 234.14 C 385.25 230.14 389.08 227.17 393.18 225.06 Z" />
<path fill="#f5e5c1" opacity="1.00" d=" M 379.23 228.57 C 383.05 226.84 387.04 225.51 390.90 223.84 C 387.57 225.87 384.39 228.22 382.11 231.43 C 381.26 231.43 380.41 231.43 379.57 231.43 C 379.45 230.47 379.34 229.52 379.23 228.57 Z" />
<path fill="#f5e5c1" opacity="1.00" d=" M 405.39 223.42 L 406.33 223.49 C 405.62 225.94 406.46 228.06 408.41 229.59 C 410.65 233.61 414.00 237.11 415.01 241.73 C 414.22 241.67 412.65 241.54 411.87 241.48 C 410.26 238.49 409.23 235.25 407.76 232.20 C 407.52 230.39 406.69 228.78 405.74 227.26 C 405.83 225.95 405.71 224.67 405.39 223.42 Z" />
<path fill="#f5e5c1" opacity="1.00" d=" M 351.27 231.79 C 357.52 229.44 363.60 226.41 370.18 224.96 C 371.68 224.25 373.09 225.14 374.43 225.73 C 374.50 226.59 374.64 228.31 374.71 229.17 C 367.95 231.72 361.98 235.98 355.89 239.80 C 353.95 237.47 350.65 235.23 351.27 231.79 Z" />
<path fill="#f5e5c1" opacity="1.00" d=" M 395.87 224.33 L 397.48 222.97 C 397.25 226.33 398.24 230.07 396.63 233.21 L 397.11 233.84 C 396.59 235.69 396.38 237.60 396.19 239.51 C 394.48 239.18 392.79 238.78 391.11 238.36 C 391.02 233.18 395.24 229.37 395.87 224.33 Z" />
<path fill="#f5e5c1" opacity="1.00" d=" M 321.94 235.55 C 329.11 231.90 336.04 227.47 343.94 225.52 C 347.00 225.14 346.82 229.45 347.99 231.34 C 343.90 232.84 340.02 234.85 336.02 236.55 C 331.36 235.85 326.66 235.23 321.94 235.55 Z" />
<path fill="#f5e5c1" opacity="1.00" d=" M 408.10 226.68 C 408.41 226.60 409.03 226.44 409.34 226.36 C 408.78 228.18 410.90 228.27 411.83 229.14 C 414.63 231.11 415.98 234.46 418.45 236.79 C 419.63 238.36 418.49 240.09 416.97 240.87 C 413.98 236.16 411.30 231.24 408.10 226.68 Z" />
<path fill="#f5e5c1" opacity="1.00" d=" M 399.07 226.86 C 399.24 228.99 399.32 231.13 399.46 233.27 C 401.34 234.64 400.02 237.58 401.49 239.33 C 400.81 239.63 399.45 240.25 398.78 240.56 C 398.28 236.00 399.07 231.42 399.07 226.86 Z" />
<path fill="#f5e5c1" opacity="1.00" d=" M 412.49 228.27 C 412.52 227.88 412.57 227.11 412.60 226.72 C 413.54 228.01 414.75 229.06 415.94 230.12 C 417.14 232.72 419.12 235.05 421.66 236.43 C 421.21 236.46 420.29 236.52 419.83 236.55 C 418.67 234.26 415.84 232.92 415.58 230.22 C 414.65 229.41 413.68 228.64 412.49 228.27 Z" />
<path fill="#f5e5c1" opacity="1.00" d=" M 415.59 229.06 C 416.88 228.83 418.19 228.62 419.50 228.43 C 419.45 229.17 419.36 230.66 419.31 231.40 C 420.52 232.40 421.65 233.52 422.62 234.77 C 420.80 234.04 418.12 232.51 418.72 230.18 L 417.23 230.78 L 417.86 229.41 L 415.59 229.06 Z" />
<path fill="#f5e5c1" opacity="1.00" d=" M 371.09 233.08 C 373.35 231.90 375.64 230.57 378.22 230.28 C 378.79 231.20 379.36 232.11 379.95 233.02 C 375.24 237.31 370.19 241.24 365.95 246.02 C 365.19 247.20 363.70 246.66 362.57 246.66 C 361.36 245.28 360.00 244.05 358.40 243.15 C 358.38 242.12 357.84 240.72 359.17 240.24 C 362.98 237.58 367.12 235.47 371.09 233.08 Z" />
<path fill="#f5e5c1" opacity="1.00" d=" M 424.50 234.36 C 424.42 233.85 424.27 232.85 424.19 232.35 C 426.84 234.82 429.49 237.31 431.97 239.96 C 429.24 238.44 426.87 236.36 424.50 234.36 Z" />
<path fill="#f5e5c1" opacity="1.00" d=" M 340.62 236.82 C 343.46 235.56 346.44 233.72 349.66 234.17 C 351.80 235.69 352.99 238.32 354.95 240.12 C 352.41 243.31 348.45 244.74 345.53 247.49 C 341.95 250.99 337.87 253.90 334.07 257.15 C 333.21 258.23 331.96 257.64 330.86 257.43 C 328.77 253.75 322.92 251.36 324.42 246.43 C 329.24 242.99 334.32 238.86 340.44 238.42 C 340.49 238.02 340.58 237.22 340.62 236.82 Z" />
<path fill="#f4722b" opacity="1.00" d=" M 311.43 237.08 C 312.58 236.56 313.66 235.10 315.02 235.49 L 315.41 235.80 C 315.93 237.80 312.32 238.39 311.43 237.08 Z" />
<path fill="#f5e5c1" opacity="1.00" d=" M 369.90 244.91 C 373.51 241.58 377.03 238.10 381.02 235.22 C 381.59 235.27 382.73 235.36 383.30 235.40 C 384.55 236.55 385.87 237.77 387.70 237.74 C 387.89 239.44 387.77 241.23 386.56 242.56 C 383.53 246.62 381.39 251.24 379.27 255.82 C 375.82 256.05 373.07 253.70 370.49 251.76 C 369.32 251.04 368.16 250.32 367.01 249.60 C 367.01 247.57 368.54 246.20 369.90 244.91 Z" />
<path fill="#f5e5c1" opacity="1.00" d=" M 422.53 235.01 C 425.33 237.01 428.14 239.01 430.59 241.44 L 431.53 241.59 C 434.27 244.22 437.19 246.68 439.58 249.66 C 439.10 249.59 438.13 249.46 437.65 249.40 C 433.14 244.86 428.72 240.15 423.49 236.43 C 423.25 236.07 422.77 235.37 422.53 235.01 Z" />
<path fill="#f4722b" opacity="1.00" d=" M 320.63 235.59 L 321.94 235.55 C 326.66 235.23 331.36 235.85 336.02 236.55 C 333.74 237.91 331.44 239.25 329.08 240.48 C 326.25 240.71 323.40 240.67 320.56 240.66 C 320.54 238.97 320.56 237.28 320.63 235.59 Z" />
<path fill="#f4722b" opacity="1.00" d=" M 312.95 240.96 C 314.61 238.92 317.19 238.13 319.50 237.11 C 319.55 238.37 319.60 239.64 319.66 240.90 C 317.43 240.60 315.17 240.67 312.95 240.96 Z" />
<path fill="#f5e5c1" opacity="1.00" d=" M 424.45 241.59 C 423.49 240.68 423.25 239.42 423.41 238.16 C 428.31 243.20 433.62 247.83 438.35 253.06 C 437.77 254.78 437.09 256.46 436.12 258.00 C 432.22 252.53 428.47 246.96 424.45 241.59 Z" />
<path fill="#f5e5c1" opacity="1.00" d=" M 320.56 240.66 C 323.40 240.67 326.25 240.71 329.08 240.48 C 326.76 242.14 324.49 243.95 321.79 244.99 C 321.42 243.53 321.02 242.09 320.56 240.66 Z" />
<path fill="#f5e5c1" opacity="1.00" d=" M 380.17 257.27 C 382.76 250.94 386.53 245.24 389.90 239.32 C 391.70 239.83 393.51 240.34 395.37 240.66 C 395.51 241.02 395.80 241.73 395.95 242.09 C 395.72 248.10 394.47 253.99 394.19 259.98 C 393.70 260.36 392.73 261.11 392.24 261.48 C 388.46 259.51 384.42 257.85 380.17 257.27 Z" />
<path fill="#f5e5c1" opacity="1.00" d=" M 417.87 240.57 C 419.47 240.01 421.73 239.55 422.64 241.47 C 426.17 246.89 429.90 252.19 433.46 257.59 C 434.15 258.74 433.58 260.10 433.53 261.34 C 432.10 261.51 430.74 261.92 429.45 262.54 C 425.97 255.02 421.95 247.78 417.87 240.57 Z" />
<path fill="#f5e5c1" opacity="1.00" d=" M 301.27 253.17 C 304.17 248.34 307.36 242.99 312.95 240.96 C 315.17 240.67 317.43 240.60 319.66 240.90 C 320.74 242.43 320.45 244.43 320.81 246.19 C 315.85 251.49 310.35 256.24 305.33 261.46 C 304.15 261.66 302.98 261.86 301.82 262.07 C 301.12 259.22 299.38 255.93 301.27 253.17 Z" />
<path fill="#f5e5c1" opacity="1.00" d=" M 397.90 241.99 C 398.49 241.54 399.67 240.62 400.26 240.17 C 400.38 241.41 400.99 242.39 402.10 243.09 C 402.42 249.99 402.98 256.86 403.72 263.73 C 401.29 263.29 398.89 262.75 396.46 262.39 C 395.12 260.51 396.58 258.22 396.53 256.14 C 397.34 251.46 397.61 246.73 397.90 241.99 Z" />
<path fill="#f5e5c1" opacity="1.00" d=" M 403.63 242.54 C 405.58 242.10 407.58 242.13 409.57 242.31 C 412.45 249.47 416.15 256.69 416.69 264.46 C 413.32 264.43 409.95 264.48 406.58 264.57 C 403.93 257.48 405.49 249.71 403.63 242.54 Z" />
<path fill="#f5e5c1" opacity="1.00" d=" M 353.46 244.43 C 354.44 243.66 355.50 242.87 356.84 243.06 C 359.29 244.62 361.41 246.64 363.54 248.62 C 357.82 255.29 351.80 261.70 346.33 268.58 C 343.36 269.72 341.50 266.02 339.39 264.56 C 337.85 262.83 333.95 261.63 335.54 258.71 C 341.66 254.12 346.97 248.53 353.46 244.43 Z" />
<path fill="#f5e5c1" opacity="1.00" d=" M 412.01 242.32 C 413.71 242.33 415.42 242.40 417.12 242.53 C 420.46 249.15 424.24 255.57 427.02 262.46 C 424.77 263.71 422.15 263.47 419.68 263.68 C 417.86 259.50 416.87 255.04 415.18 250.82 C 414.13 247.98 412.64 245.30 412.01 242.32 Z" />
<path fill="#f4722b" opacity="1.00" d=" M 21.11 244.64 C 23.13 244.73 25.43 244.46 27.05 245.96 C 29.44 248.18 30.52 252.10 29.09 255.11 C 27.40 257.78 24.14 256.57 21.67 256.12 C 20.52 254.17 18.80 252.35 18.63 250.01 C 18.38 247.87 20.11 246.32 21.11 244.64 Z" />
<path fill="#f5e5c1" opacity="1.00" d=" M 317.00 253.09 C 318.95 251.55 320.41 248.28 323.36 249.31 C 324.01 251.12 324.82 252.87 325.73 254.57 C 328.37 254.15 330.39 257.53 330.75 259.72 C 328.19 262.76 325.14 265.39 322.76 268.60 L 322.17 268.73 C 316.30 268.66 310.40 269.13 304.56 268.46 C 304.28 268.37 303.71 268.19 303.42 268.11 C 306.50 261.96 312.38 257.98 317.00 253.09 Z" />
<path fill="#f5e5c1" opacity="1.00" d=" M 347.37 271.05 C 352.46 263.51 359.29 257.32 364.85 250.13 C 369.84 250.75 372.59 256.31 377.69 256.77 C 375.47 265.92 370.04 274.09 366.14 282.66 C 364.41 282.39 362.94 281.47 361.51 280.55 C 356.75 277.44 351.54 274.97 347.37 271.05 Z" />
<path fill="#f5e5c1" opacity="1.00" d=" M 445.77 261.33 C 444.89 257.40 440.52 255.04 440.43 251.01 C 442.23 254.44 444.65 257.58 445.77 261.33 Z" />
<path fill="#3e3e3e" opacity="1.00" d=" M 187.74 255.65 C 192.16 257.45 197.08 258.42 201.83 257.63 C 214.18 254.70 226.75 258.56 239.21 258.46 C 238.94 264.78 239.17 271.14 238.52 277.45 C 238.41 277.84 238.18 278.64 238.07 279.04 L 238.22 280.13 C 238.80 283.50 238.40 286.93 238.25 290.32 C 232.38 288.24 226.34 286.71 220.53 284.46 C 206.97 280.59 192.94 278.79 179.15 275.92 C 180.29 273.58 181.44 271.24 182.80 269.02 C 185.85 265.10 184.87 259.67 187.74 255.65 Z" />
<path fill="#f5e5c1" opacity="1.00" d=" M 439.00 255.79 C 441.94 256.85 442.78 260.16 444.66 262.37 C 447.88 266.30 450.03 271.07 450.81 276.10 C 450.94 277.55 449.87 278.67 449.06 279.74 C 444.86 273.30 442.05 265.93 437.10 260.00 C 437.33 258.42 438.07 257.05 439.00 255.79 Z" />
<path fill="#f5e5c1" opacity="1.00" d=" M 294.45 267.80 C 295.66 264.50 297.04 261.26 298.57 258.10 C 299.10 261.25 301.70 264.79 299.15 267.67 L 298.60 267.69 C 297.22 267.72 295.83 267.76 294.45 267.80 Z" />
<path fill="#f5e5c1" opacity="1.00" d=" M 378.74 259.36 C 383.72 258.41 387.95 261.93 392.67 262.75 C 392.33 267.22 390.84 271.53 389.82 275.89 C 388.99 280.36 386.84 284.45 386.17 288.94 C 382.66 289.16 379.35 288.01 376.00 287.20 C 373.41 286.21 370.92 284.95 368.23 284.26 C 368.03 281.52 369.73 279.29 370.91 276.98 C 373.62 271.14 376.47 265.38 378.74 259.36 Z" />
<path fill="#f5e5c1" opacity="1.00" d=" M 324.94 269.27 C 327.41 266.27 330.07 263.43 333.04 260.94 C 336.71 263.21 339.39 266.70 342.91 269.17 C 344.29 270.02 344.15 272.12 343.34 273.33 C 341.44 276.32 339.30 279.16 337.43 282.18 C 337.26 275.27 330.67 271.39 324.94 269.27 Z" />
<path fill="#f5e5c1" opacity="1.00" d=" M 429.97 262.75 C 431.79 262.31 433.58 261.74 435.27 260.91 C 439.62 265.80 442.10 272.00 445.48 277.54 C 446.41 279.09 447.84 281.50 446.04 282.99 C 443.82 284.67 441.50 286.55 438.64 286.87 C 437.20 282.68 436.22 278.35 434.51 274.27 C 433.16 270.36 431.00 266.77 429.97 262.75 Z" />
<path fill="#f5e5c1" opacity="1.00" d=" M 391.21 279.16 C 392.96 274.01 393.21 268.34 395.74 263.49 C 398.49 264.89 401.67 265.13 404.39 266.63 C 405.60 275.60 406.74 284.60 406.69 293.68 C 400.44 293.07 394.26 291.89 388.18 290.36 C 388.40 286.43 390.28 282.92 391.21 279.16 Z" />
<path fill="#f5e5c1" opacity="1.00" d=" M 420.17 264.60 C 422.86 264.37 425.56 264.24 428.27 264.35 C 431.47 272.48 435.38 280.55 436.67 289.25 C 433.20 290.63 429.51 292.50 425.68 291.48 C 424.57 282.39 421.70 273.63 420.17 264.60 Z" />
<path fill="#f5e5c1" opacity="1.00" d=" M 406.40 265.51 C 410.32 265.54 414.24 265.32 418.16 265.52 C 419.08 269.28 419.86 273.07 420.49 276.90 C 421.64 282.34 423.57 287.69 423.65 293.31 C 418.90 293.73 414.14 293.86 409.38 293.77 C 408.20 284.37 407.77 274.90 406.40 265.51 Z" />
<path fill="#f4722b" opacity="1.00" d=" M 240.52 273.46 C 238.29 271.58 238.75 266.96 242.08 266.82 C 250.24 268.82 258.17 272.23 266.67 272.57 C 269.50 272.84 270.98 275.47 271.38 278.02 C 268.22 283.18 261.31 282.22 256.39 280.66 C 250.98 278.65 244.74 277.69 240.52 273.46 Z" />
<path fill="#f4722b" opacity="1.00" d=" M 294.45 267.80 C 295.83 267.76 297.22 267.72 298.60 267.69 C 296.72 271.60 293.81 274.90 291.60 278.62 C 292.34 274.96 293.27 271.34 294.45 267.80 Z" />
<path fill="#f4722b" opacity="1.00" d=" M 276.15 271.10 C 280.08 268.93 284.74 268.85 289.10 268.35 C 287.16 274.88 285.76 281.59 285.22 288.39 C 281.76 287.59 277.77 287.52 275.02 285.00 C 270.72 281.54 271.33 273.85 276.15 271.10 Z" />
<path fill="#f4722b" opacity="1.00" d=" M 304.56 268.46 C 310.40 269.13 316.30 268.66 322.17 268.73 C 320.25 273.45 316.15 276.84 313.02 280.75 L 312.05 280.51 C 309.16 276.83 305.48 273.17 304.56 268.46 Z" />
<path fill="#f4722b" opacity="1.00" d=" M 290.48 289.16 C 291.12 281.01 298.14 275.77 302.15 269.25 C 304.34 274.06 307.48 278.43 311.35 282.04 L 311.65 282.99 C 309.52 285.32 307.68 287.88 306.50 290.83 C 301.43 290.06 296.37 288.98 291.21 289.17 L 290.48 289.16 Z" />
<path fill="#f4722b" opacity="1.00" d=" M 315.55 280.94 C 318.77 277.12 322.25 273.50 324.94 269.27 C 330.67 271.39 337.26 275.27 337.43 282.18 C 335.67 284.87 333.91 287.58 332.00 290.17 C 330.04 290.96 327.99 291.49 325.89 291.67 L 325.02 291.73 C 321.81 288.52 318.37 285.52 315.44 282.04 L 315.55 280.94 Z" />
<path fill="#f4722b" opacity="1.00" d=" M 195.35 274.00 C 197.81 270.36 202.78 272.14 205.42 274.52 C 202.08 275.31 197.81 277.77 195.35 274.00 Z" />
<path fill="#f4722b" opacity="1.00" d=" M 160.67 273.43 C 166.96 273.00 172.95 275.31 179.15 275.92 C 192.94 278.79 206.97 280.59 220.53 284.46 C 226.34 286.71 232.38 288.24 238.25 290.32 C 242.21 291.85 245.82 294.13 249.75 295.72 C 251.93 296.15 254.18 296.29 256.33 296.92 C 250.25 296.64 244.24 295.47 238.17 295.02 C 232.61 293.91 226.79 293.79 221.54 291.49 C 215.20 288.88 208.40 287.81 201.78 286.19 C 197.50 285.26 194.09 282.24 189.88 281.12 C 185.86 280.04 181.73 279.38 177.66 278.50 C 172.02 277.81 166.56 275.90 160.84 275.91 C 160.80 275.29 160.71 274.05 160.67 273.43 Z" />
<path fill="#f5e5c1" opacity="1.00" d=" M 345.83 273.29 C 348.55 272.85 350.41 275.23 352.53 276.51 C 356.66 279.01 360.68 281.70 364.99 283.91 C 362.21 291.02 358.93 297.95 355.70 304.87 C 355.60 305.54 355.40 306.88 355.31 307.55 C 352.23 308.53 349.58 306.30 346.92 305.13 C 342.01 302.72 337.80 298.98 332.62 297.16 C 332.39 295.99 331.72 294.66 332.55 293.56 C 336.71 286.63 341.50 280.11 345.83 273.29 Z" />
<path fill="#f4722b" opacity="1.00" d=" M 238.07 279.04 C 238.18 278.64 238.41 277.84 238.52 277.45 C 241.72 277.91 244.74 279.15 247.12 281.38 C 244.36 283.65 240.43 282.66 238.22 280.13 L 238.07 279.04 Z" />
<path fill="#3e3e3e" opacity="1.00" d=" M 177.66 278.50 C 181.73 279.38 185.86 280.04 189.88 281.12 C 194.09 282.24 197.50 285.26 201.78 286.19 C 208.40 287.81 215.20 288.88 221.54 291.49 C 226.79 293.79 232.61 293.91 238.17 295.02 C 237.85 305.70 237.51 316.38 237.20 327.06 C 232.72 325.07 228.78 322.12 225.33 318.68 C 221.91 315.47 217.99 312.87 214.30 310.00 C 204.31 297.75 189.69 290.55 174.81 286.13 C 174.12 285.63 173.43 285.14 172.74 284.64 C 174.45 282.65 176.08 280.60 177.66 278.50 Z" />
<path fill="#f5e5c1" opacity="1.00" d=" M 450.52 279.54 C 450.78 279.42 451.31 279.19 451.57 279.07 C 452.07 282.04 452.48 285.02 452.53 288.04 C 451.64 285.29 449.65 282.53 450.52 279.54 Z" />
<path fill="#f4722b" opacity="1.00" d=" M 168.33 283.58 C 169.93 282.90 171.49 283.64 172.74 284.64 C 173.43 285.14 174.12 285.63 174.81 286.13 C 179.65 289.66 185.80 290.73 190.60 294.37 C 198.15 300.10 206.45 304.71 214.30 310.00 C 217.99 312.87 221.91 315.47 225.33 318.68 C 228.78 322.12 232.72 325.07 237.20 327.06 C 242.45 329.47 247.11 333.85 248.21 339.73 C 248.87 346.30 255.74 349.48 261.37 351.10 C 268.31 353.67 274.78 357.50 282.06 359.17 C 287.31 360.05 290.72 364.41 295.13 366.95 C 300.20 370.04 303.84 374.89 308.57 378.37 C 312.86 380.01 315.08 384.21 316.95 388.11 C 318.93 392.35 314.45 397.44 309.99 396.28 C 305.40 395.23 303.53 390.48 300.39 387.52 C 297.23 384.87 297.84 380.00 294.62 377.42 C 292.14 374.81 288.98 372.97 286.47 370.40 C 284.49 368.31 286.10 365.54 286.92 363.33 C 283.22 361.69 279.33 360.56 275.50 359.31 C 269.43 357.35 264.57 352.92 258.57 350.83 C 254.90 349.56 251.66 347.17 249.17 344.21 C 246.07 339.95 241.34 337.35 236.97 334.59 C 231.68 331.92 226.30 329.20 222.09 324.93 C 213.94 316.97 203.53 311.99 193.96 306.02 C 189.92 303.37 186.35 299.97 181.94 297.88 C 177.64 295.76 172.88 294.02 169.79 290.14 C 168.26 288.43 166.44 285.68 168.33 283.58 Z" />
<path fill="#f4722b" opacity="1.00" d=" M 308.95 291.30 C 309.27 287.89 312.20 285.78 314.13 283.24 C 316.10 284.43 317.59 286.18 319.05 287.93 C 319.93 289.10 321.76 289.67 321.74 291.39 C 317.48 291.17 313.21 291.14 308.95 291.30 Z" />
<path fill="#f5e5c1" opacity="1.00" d=" M 439.44 288.76 C 442.23 286.62 445.32 284.79 448.33 282.94 C 452.49 291.03 453.54 300.43 451.59 309.30 C 448.94 311.98 446.18 314.58 442.54 315.86 C 442.55 306.75 441.89 297.55 439.44 288.76 Z" />
<path fill="#f5e5c1" opacity="1.00" d=" M 174.81 286.13 C 189.69 290.55 204.31 297.75 214.30 310.00 C 206.45 304.71 198.15 300.10 190.60 294.37 C 185.80 290.73 179.65 289.66 174.81 286.13 Z" />
<path fill="#f5e5c1" opacity="1.00" d=" M 356.26 309.41 C 359.58 301.27 363.08 293.18 366.84 285.23 C 369.18 285.53 371.36 286.42 373.45 287.49 C 377.34 289.40 381.84 289.65 385.71 291.58 C 385.08 293.68 384.47 295.78 383.79 297.87 C 382.94 301.61 381.83 305.30 381.20 309.09 C 379.97 311.82 380.21 315.24 378.38 317.61 C 374.74 317.10 371.09 316.50 367.54 315.54 C 364.59 312.27 360.06 311.34 356.26 309.41 Z" />
<path fill="#f5e5c1" opacity="1.00" d=" M 291.21 289.17 C 296.37 288.98 301.43 290.06 306.50 290.83 C 303.85 294.16 301.92 297.98 300.25 301.88 C 298.50 301.97 297.83 300.18 296.87 299.10 C 294.74 295.93 292.03 293.01 291.21 289.17 Z" />
<path fill="#f4722b" opacity="1.00" d=" M 250.78 290.13 C 254.79 289.94 258.70 291.00 262.09 293.14 C 262.23 293.65 262.50 294.66 262.64 295.17 C 259.86 294.15 256.94 294.45 254.06 294.52 C 251.88 294.63 249.43 292.30 250.78 290.13 Z" />
<path fill="#f5e5c1" opacity="1.00" d=" M 325.89 291.67 C 327.99 291.49 330.04 290.96 332.00 290.17 C 331.32 291.37 330.63 292.57 329.97 293.78 C 328.28 293.77 326.93 292.93 325.89 291.67 Z" />
<path fill="#f5e5c1" opacity="1.00" d=" M 308.35 291.32 L 308.95 291.30 C 313.21 291.14 317.48 291.17 321.74 291.39 C 324.07 291.75 325.72 293.76 327.76 294.80 C 328.16 298.31 325.09 300.81 324.03 303.93 C 322.04 309.37 319.49 314.57 317.49 320.00 C 316.27 319.85 315.05 319.69 313.83 319.51 C 312.52 317.11 310.03 315.77 308.21 313.83 C 305.61 311.53 304.56 307.87 301.49 306.05 C 301.60 300.47 305.70 295.99 308.35 291.32 Z" />
<path fill="#f5e5c1" opacity="1.00" d=" M 426.39 293.72 C 430.43 293.34 434.23 290.12 438.33 291.56 C 439.49 299.33 440.88 307.14 440.49 315.05 C 440.98 316.77 439.14 317.43 437.92 317.82 C 434.51 319.30 431.06 320.67 427.51 321.77 C 427.65 318.16 426.99 314.43 428.21 310.95 C 427.16 305.26 427.34 299.42 426.39 293.72 Z" />
<path fill="#f5e5c1" opacity="1.00" d=" M 290.16 291.83 C 293.62 294.79 294.86 299.74 298.53 302.64 C 299.58 308.76 294.77 313.93 295.01 320.04 C 294.16 319.49 293.61 318.73 293.38 317.76 C 290.93 309.37 289.66 300.57 290.16 291.83 Z" />
<path fill="#f5e5c1" opacity="1.00" d=" M 387.66 292.35 C 394.06 291.88 400.13 294.07 406.46 294.60 C 406.87 298.45 405.97 302.24 405.86 306.05 C 405.75 310.96 404.15 315.70 404.45 320.64 C 396.61 321.54 388.93 319.11 381.18 318.36 C 383.10 309.64 385.19 300.93 387.66 292.35 Z" />
<path fill="#f5e5c1" opacity="1.00" d=" M 408.63 294.70 C 413.89 294.71 419.15 294.63 424.40 294.32 C 424.49 296.54 425.29 298.75 424.80 300.98 C 425.87 303.87 425.24 307.05 426.11 310.00 C 425.04 314.02 425.66 318.21 425.45 322.32 C 424.19 322.34 423.05 322.68 422.03 323.36 C 416.87 322.36 411.61 323.10 406.44 322.30 C 406.68 313.07 408.87 303.97 408.63 294.70 Z" />
<path fill="#f5e5c1" opacity="1.00" d=" M 328.90 298.64 C 330.30 298.02 331.87 297.85 333.25 298.69 C 338.57 301.65 343.48 305.35 349.04 307.87 C 350.64 308.57 352.10 309.51 353.52 310.53 C 349.35 316.02 348.01 322.92 345.09 329.04 C 343.94 331.26 343.77 334.23 341.90 335.93 C 335.67 335.18 330.91 330.39 325.51 327.55 C 323.18 325.80 319.91 325.00 318.65 322.16 C 322.13 314.34 325.06 306.28 328.90 298.64 Z" />
<path fill="#f5e5c1" opacity="1.00" d=" M 299.78 308.25 C 300.93 308.25 302.07 308.32 303.21 308.49 C 304.21 311.51 306.55 313.68 308.74 315.87 C 305.25 314.50 301.52 314.84 297.92 315.45 C 298.37 313.00 299.33 310.69 299.78 308.25 Z" />
<path fill="#f5e5c1" opacity="1.00" d=" M 450.09 311.05 C 450.44 310.79 451.15 310.29 451.50 310.04 C 449.88 318.09 447.24 326.01 443.17 333.16 C 442.80 333.38 442.05 333.80 441.67 334.02 C 442.97 328.65 442.40 323.11 442.52 317.65 C 445.06 315.46 448.74 314.37 450.09 311.05 Z" />
<path fill="#f5e5c1" opacity="1.00" d=" M 349.85 322.76 C 351.15 318.82 352.96 315.09 354.96 311.47 C 358.33 311.37 361.17 313.53 364.23 314.67 C 368.48 316.99 373.36 317.37 377.94 318.73 C 376.80 326.00 374.24 333.02 371.80 339.96 C 371.65 340.50 371.35 341.60 371.20 342.15 C 370.82 343.14 370.44 344.13 370.08 345.14 C 369.57 345.34 368.56 345.75 368.05 345.95 C 365.37 345.35 362.71 344.70 360.00 344.24 C 357.29 343.13 354.58 342.03 351.77 341.23 L 351.06 340.85 C 348.64 340.28 346.36 339.30 344.08 338.35 C 345.12 332.87 348.16 328.04 349.85 322.76 Z" />
<path fill="#f4722b" opacity="1.00" d=" M 297.92 315.45 C 301.52 314.84 305.25 314.50 308.74 315.87 C 309.26 316.23 309.74 316.67 310.16 317.18 C 310.73 319.90 311.91 322.87 310.59 325.57 C 309.10 329.28 304.25 331.33 300.71 329.20 C 296.93 327.42 295.84 322.87 296.38 319.04 C 296.70 317.86 297.04 316.69 297.40 315.52 L 297.92 315.45 Z" />
<path fill="#f5e5c1" opacity="1.00" d=" M 310.16 317.18 C 312.14 319.53 315.39 320.91 316.52 323.88 C 313.87 328.69 313.05 334.29 311.23 339.45 C 310.06 339.89 308.75 340.06 307.64 339.40 C 303.23 335.73 299.74 331.10 296.62 326.33 C 295.10 324.12 295.43 321.38 296.38 319.04 C 295.84 322.87 296.93 327.42 300.71 329.20 C 304.25 331.33 309.10 329.28 310.59 325.57 C 311.91 322.87 310.73 319.90 310.16 317.18 Z" />
<path fill="#f5e5c1" opacity="1.00" d=" M 374.25 339.50 C 376.99 332.98 378.14 325.94 380.71 319.36 C 384.40 320.63 388.36 320.49 392.15 321.36 C 395.88 322.16 399.66 322.63 403.48 322.64 C 403.69 326.25 403.23 329.96 401.58 333.22 L 402.15 333.76 C 401.37 336.50 400.82 339.30 400.24 342.09 L 399.78 342.79 C 399.60 343.83 399.42 344.88 399.25 345.93 C 398.98 346.59 398.46 347.91 398.19 348.57 C 394.46 348.65 390.73 348.90 387.01 349.20 C 381.97 348.06 376.78 346.48 371.58 347.65 C 375.21 349.69 379.43 349.26 383.34 350.33 C 388.10 350.71 392.84 351.43 397.63 351.11 C 395.71 356.93 394.56 363.07 391.25 368.33 C 390.71 368.61 389.65 369.17 389.12 369.45 C 380.80 367.97 372.02 368.89 364.09 365.40 C 365.90 359.70 368.77 354.41 370.75 348.78 C 373.02 346.20 372.84 342.51 374.25 339.50 Z" />
<path fill="#f5e5c1" opacity="1.00" d=" M 434.72 321.65 C 433.55 318.41 438.78 319.75 440.51 319.09 C 440.86 325.49 439.90 331.78 439.37 338.13 C 435.63 342.50 429.82 343.48 424.72 345.43 C 424.39 345.14 423.73 344.58 423.40 344.29 C 426.27 337.81 426.28 330.40 427.50 323.47 C 429.84 322.61 432.30 322.19 434.72 321.65 Z" />
<path fill="#f5e5c1" opacity="1.00" d=" M 405.48 324.33 C 412.13 324.13 418.82 324.18 425.48 324.36 C 423.94 331.55 423.53 339.02 421.09 346.03 C 420.31 346.82 419.38 347.29 418.30 347.45 C 412.58 348.35 406.78 348.74 400.99 348.55 C 402.34 340.46 405.25 332.54 405.48 324.33 Z" />
<path fill="#f5e5c1" opacity="1.00" d=" M 317.66 325.14 C 318.81 325.20 320.05 325.18 320.97 326.02 C 323.96 328.05 327.18 329.71 330.12 331.81 C 333.70 334.53 338.34 335.49 341.54 338.76 C 338.96 344.08 337.49 349.95 335.62 355.49 C 332.36 356.55 329.68 352.96 326.55 352.33 C 324.22 349.92 321.12 348.55 318.44 346.62 C 316.53 345.31 314.73 343.70 312.40 343.20 C 312.22 339.62 314.51 336.57 315.22 333.15 C 315.99 330.47 316.80 327.79 317.66 325.14 Z" />
<path fill="#f4722b" opacity="1.00" d=" M 285.49 333.96 C 285.77 330.68 289.08 329.05 291.95 328.52 C 293.32 331.80 295.02 334.93 296.79 338.01 C 295.36 339.17 293.99 340.81 291.96 340.69 C 288.18 341.45 284.60 337.69 285.49 333.96 Z" />
<path fill="#f5e5c1" opacity="1.00" d=" M 300.96 334.40 C 304.06 336.90 306.79 339.82 309.68 342.55 C 309.47 343.74 309.26 344.93 309.04 346.13 C 305.45 343.00 302.71 338.80 300.96 334.40 Z" />
<path fill="#f5e5c1" opacity="1.00" d=" M 342.68 340.37 C 344.48 339.96 346.24 340.40 347.88 341.17 C 354.88 343.34 361.54 346.51 368.87 347.54 C 367.03 353.40 363.76 358.72 362.17 364.66 C 353.60 363.60 344.84 361.62 337.31 357.30 C 337.52 356.51 337.95 354.93 338.16 354.14 C 338.31 353.57 338.61 352.44 338.76 351.88 C 340.31 348.13 341.68 344.29 342.68 340.37 Z" />
<path fill="#f5e5c1" opacity="1.00" d=" M 310.67 344.55 C 311.82 344.35 313.03 344.08 314.05 344.88 C 321.00 348.67 326.81 354.82 334.68 356.73 C 334.32 359.45 333.05 361.92 332.18 364.50 C 331.85 364.62 331.19 364.85 330.85 364.96 C 323.51 361.09 317.09 355.59 311.48 349.51 C 309.89 348.26 310.60 346.23 310.67 344.55 Z" />
<path fill="#f5e5c1" opacity="1.00" d=" M 425.20 347.19 C 429.23 346.03 432.89 343.82 437.02 343.01 C 431.89 349.59 426.03 355.70 419.18 360.50 C 419.82 358.37 420.51 356.25 421.19 354.14 C 422.13 351.68 421.91 347.72 425.20 347.19 Z" />
<path fill="#3e3e3e" opacity="1.00" d=" M 198.04 361.13 C 198.80 356.12 198.13 351.00 199.10 346.01 C 199.63 349.94 200.11 353.88 200.51 357.83 C 199.64 358.89 198.81 359.99 198.04 361.13 Z" />
<path fill="#f5e5c1" opacity="1.00" d=" M 412.73 349.59 C 415.35 349.03 417.97 348.35 420.68 348.35 C 419.29 353.00 417.89 357.66 416.18 362.21 C 410.11 367.63 401.22 368.01 393.48 367.66 C 394.94 366.30 395.89 364.55 396.37 362.63 C 397.44 358.66 398.99 354.82 399.80 350.79 C 403.97 349.28 408.40 349.93 412.73 349.59 Z" />
<path fill="#f4722b" opacity="1.00" d=" M 200.51 357.83 C 202.97 356.59 206.10 355.74 208.59 357.40 C 212.59 359.48 213.76 365.31 210.77 368.72 C 208.92 371.36 205.46 371.30 202.59 371.48 C 200.85 369.81 199.09 368.15 197.51 366.33 C 197.62 364.59 197.78 362.85 198.04 361.13 C 198.81 359.99 199.64 358.89 200.51 357.83 Z" />
<path fill="#f5e5c1" opacity="1.00" d=" M 333.47 366.32 C 334.69 363.74 335.71 361.07 336.82 358.45 C 342.25 360.53 347.43 363.39 353.22 364.36 C 355.97 365.19 359.21 364.87 361.52 366.79 C 360.15 369.37 359.27 372.16 358.39 374.93 C 349.72 373.42 341.04 370.92 333.47 366.32 Z" />
<path fill="#f5e5c1" opacity="1.00" d=" M 362.73 368.37 C 366.89 367.72 371.04 368.72 375.15 369.28 C 380.09 369.86 385.18 368.63 390.01 370.06 C 389.56 372.21 388.23 374.62 385.77 374.75 C 377.45 376.17 368.90 376.51 360.55 375.18 C 361.38 372.94 362.21 370.70 362.73 368.37 Z" />
<path fill="#f5e5c1" opacity="1.00" d=" M 394.70 369.80 L 394.35 368.42 C 397.28 368.77 400.23 368.81 403.17 368.87 C 399.89 371.80 395.11 372.38 390.97 373.57 C 391.58 372.56 392.19 371.55 392.80 370.55 C 393.28 370.36 394.23 369.99 394.70 369.80 Z" />
<path fill="#f4722b" opacity="1.00" d=" M 214.29 378.13 C 215.52 377.70 216.72 377.19 217.94 376.72 C 222.37 376.55 226.01 381.63 223.85 385.67 C 222.06 389.50 216.33 389.11 214.29 385.74 C 212.57 383.47 213.75 380.57 214.29 378.13 Z" />
<path fill="#f4722b" opacity="1.00" d=" M 230.13 414.28 C 231.70 412.01 235.40 411.79 237.40 413.58 C 238.84 414.62 238.39 416.66 238.80 418.18 C 236.61 419.53 233.85 421.02 231.32 419.60 C 229.28 418.79 228.84 415.91 230.13 414.28 Z" />
<path fill="#f4722b" opacity="1.00" d=" M 270.14 430.92 C 274.91 428.04 280.20 435.60 275.60 438.83 C 271.01 441.79 265.51 434.20 270.14 430.92 Z" />
<path fill="#f4722b" opacity="1.00" d=" M 430.59 447.45 C 428.12 444.54 431.18 439.37 434.97 440.39 C 437.52 440.48 438.62 443.11 440.34 444.60 C 442.52 447.19 446.34 447.04 448.79 449.28 C 451.75 451.82 455.24 453.66 458.84 455.13 C 464.19 456.68 469.82 457.20 475.09 459.06 C 476.45 459.59 477.90 459.82 479.36 459.93 C 480.12 457.39 481.83 454.14 485.01 454.65 C 488.29 454.97 488.46 459.53 491.60 460.33 C 490.27 462.35 489.30 464.55 489.56 467.03 C 489.77 469.91 486.72 472.05 484.02 471.64 C 480.75 471.21 477.91 469.35 474.82 468.32 C 468.89 465.85 462.41 465.36 456.27 463.61 C 451.26 461.68 446.60 458.95 442.37 455.68 C 437.76 454.05 433.98 450.87 430.59 447.45 Z" />
<path fill="#f4722b" opacity="1.00" d=" M 305.36 466.61 C 309.68 465.75 314.41 467.28 317.05 470.89 C 320.25 474.74 319.83 480.20 318.79 484.77 C 317.16 491.60 308.97 495.76 302.47 493.29 C 299.10 492.12 296.46 489.57 294.08 487.02 C 290.65 483.30 290.87 477.00 294.37 473.40 C 297.40 470.32 301.06 467.53 305.36 466.61 Z" />
</svg>
