<?xml version="1.0" encoding="UTF-8" ?>
<!DOCTYPE svg PUBLIC "-//W3C//DTD SVG 1.1//EN" "http://www.w3.org/Graphics/SVG/1.1/DTD/svg11.dtd">
<svg width="512pt" height="512pt" viewBox="0 0 512 512" version="1.1" xmlns="http://www.w3.org/2000/svg">
<path fill="#3e3e3e" opacity="1.00" d=" M 0.00 0.00 L 512.00 0.00 L 512.00 512.00 L 0.00 512.00 L 0.00 0.00 Z" />
<path fill="#f5e5c1" opacity="1.00" d=" M 371.57 16.65 C 374.44 16.50 377.23 17.64 380.02 18.21 C 374.56 22.32 369.06 26.39 363.29 30.05 C 363.39 27.55 363.22 24.99 363.85 22.55 C 365.85 20.00 368.82 18.30 371.57 16.65 Z" />
<path fill="#f3722b" opacity="1.00" d=" M 380.02 18.21 C 381.89 18.27 383.80 18.20 385.66 18.53 C 388.32 20.81 389.96 24.01 392.09 26.74 C 393.60 29.00 395.71 31.05 396.20 33.82 C 394.74 35.12 393.12 36.22 391.54 37.35 C 387.45 40.29 383.35 43.21 379.31 46.23 C 339.26 74.82 299.30 103.57 259.35 132.31 C 255.85 134.78 251.88 138.53 247.24 136.68 C 245.13 134.76 243.45 132.36 242.16 129.82 C 242.14 128.03 244.15 127.28 245.25 126.18 C 260.50 114.54 275.13 102.11 289.68 89.61 C 300.92 80.22 312.25 70.93 323.40 61.42 C 331.41 55.47 339.16 49.19 347.08 43.11 C 352.55 38.85 357.49 33.89 363.29 30.05 C 369.06 26.39 374.56 22.32 380.02 18.21 Z" />
<path fill="#3e3e3e" opacity="1.00" d=" M 378.26 24.32 C 382.84 21.91 388.43 26.18 388.51 31.06 C 387.72 35.54 382.92 39.00 378.46 37.31 C 373.10 35.29 372.88 26.46 378.26 24.32 Z" />
<path fill="#f5e5c1" opacity="1.00" d=" M 375.96 29.56 C 377.52 25.14 383.37 24.47 386.15 28.11 C 382.74 28.53 379.36 29.12 375.96 29.56 Z" />
<path fill="#f5e5c1" opacity="1.00" d=" M 375.73 32.43 C 379.58 32.15 383.47 32.06 387.32 32.54 C 385.12 34.16 382.98 37.03 379.89 36.32 C 378.08 35.54 376.95 33.88 375.73 32.43 Z" />
<path fill="#f3722b" opacity="1.00" d=" M 391.76 40.01 C 393.91 38.34 396.28 36.97 398.69 35.71 C 401.87 40.54 405.29 45.20 408.75 49.83 C 408.23 52.15 408.64 55.01 407.02 56.91 C 385.84 71.80 363.64 85.18 341.47 98.56 C 329.51 106.24 317.40 113.70 305.26 121.11 C 289.59 131.66 273.82 142.12 257.32 151.35 C 255.08 147.97 251.63 144.84 252.16 140.40 C 294.69 109.87 337.21 79.33 379.69 48.73 C 383.73 45.85 387.80 43.01 391.76 40.01 Z" />
<path fill="#f5e5c1" opacity="1.00" d=" M 379.31 46.23 C 383.35 43.21 387.45 40.29 391.54 37.35 C 391.60 38.02 391.70 39.35 391.76 40.01 C 387.80 43.01 383.73 45.85 379.69 48.73 C 379.60 48.11 379.41 46.85 379.31 46.23 Z" />
<path fill="#3e3e3e" opacity="1.00" d=" M 393.25 45.25 C 397.34 42.67 402.24 46.63 401.49 51.14 C 399.67 53.71 395.71 57.05 392.72 54.20 C 389.50 52.11 390.01 47.01 393.25 45.25 Z" />
<path fill="#f5e5c1" opacity="1.00" d=" M 392.42 47.76 C 392.95 47.60 394.00 47.28 394.53 47.11 C 394.51 49.05 394.51 50.99 394.54 52.94 C 394.02 52.80 392.97 52.53 392.45 52.39 C 392.41 50.85 392.40 49.31 392.42 47.76 Z" />
<path fill="#f5e5c1" opacity="1.00" d=" M 396.91 45.97 C 397.97 47.29 400.05 48.53 399.49 50.54 C 398.99 51.82 398.26 52.99 397.59 54.18 C 396.97 51.49 396.62 48.73 396.91 45.97 Z" />
<path fill="#f5e5c1" opacity="1.00" d=" M 161.99 93.05 C 162.81 92.04 163.61 90.69 165.07 90.68 C 173.02 89.76 181.07 89.89 189.05 90.44 C 185.01 96.64 181.32 103.04 177.07 109.10 C 174.40 112.66 173.59 117.35 170.93 120.81 C 162.41 121.33 154.00 122.91 145.89 125.62 C 148.65 113.65 155.02 102.99 161.99 93.05 Z" />
<path fill="#f5e5c1" opacity="1.00" d=" M 87.51 126.55 C 107.56 107.33 133.76 94.43 161.40 91.13 C 157.65 98.63 152.82 105.57 149.57 113.32 C 147.83 117.37 146.63 121.63 145.46 125.87 C 118.74 135.02 96.38 156.01 85.91 182.28 C 78.14 183.65 71.07 179.70 64.93 175.45 C 67.54 178.73 70.21 182.18 74.10 184.01 C 77.22 185.82 80.92 185.73 84.41 185.93 C 81.32 194.63 79.04 203.73 79.05 213.02 C 79.03 220.93 78.68 228.89 79.81 236.75 C 83.88 260.39 96.71 282.52 115.50 297.50 C 132.25 311.21 153.58 318.60 175.04 320.05 C 181.19 329.75 187.36 339.44 193.50 349.14 C 165.66 352.38 136.82 346.58 112.62 332.37 C 85.33 316.66 64.28 290.60 54.52 260.67 C 45.28 232.90 45.92 202.03 56.15 174.62 C 59.86 174.05 63.38 172.68 66.24 170.21 C 69.08 167.79 73.67 166.92 74.76 162.89 C 76.82 157.52 74.05 151.62 69.45 148.59 C 71.70 144.99 74.24 141.60 76.86 138.27 C 79.88 138.31 83.59 138.23 85.30 135.26 C 87.23 132.64 84.80 128.70 87.51 126.55 Z" />
<path fill="#f5e5c1" opacity="1.00" d=" M 185.47 107.59 C 189.06 102.36 191.89 96.68 195.10 91.22 C 203.21 92.10 211.19 94.04 218.92 96.65 C 213.08 103.99 207.26 111.37 202.24 119.31 C 201.13 120.56 200.21 123.08 198.11 122.41 C 191.53 121.05 184.79 120.97 178.09 120.95 C 179.87 116.15 182.51 111.75 185.47 107.59 Z" />
<path fill="#f5e5c1" opacity="1.00" d=" M 204.18 123.84 C 209.85 114.83 216.55 106.54 223.01 98.10 C 231.96 101.48 240.92 105.37 248.55 111.22 C 245.36 111.91 242.33 110.35 239.19 110.14 C 234.73 110.27 231.76 113.97 228.44 116.42 C 223.80 120.04 225.46 126.49 224.40 131.52 C 217.72 128.82 211.16 125.76 204.18 123.84 Z" />
<path fill="#f5e5c1" opacity="1.00" d=" M 235.09 124.99 C 236.58 123.31 238.42 121.99 240.13 120.55 C 241.64 121.31 243.15 122.06 244.67 122.81 C 244.64 123.13 244.58 123.77 244.55 124.09 C 242.37 125.61 240.23 127.18 238.10 128.77 C 240.21 131.71 242.12 134.79 244.42 137.59 C 245.79 139.28 248.20 139.17 250.07 139.98 C 248.23 146.29 254.31 150.42 257.12 155.29 C 259.90 153.46 262.63 151.55 265.39 149.70 C 265.70 151.08 265.95 152.47 266.15 153.87 C 264.41 155.72 262.30 157.16 260.35 158.77 C 257.10 157.49 253.88 156.10 250.82 154.40 C 239.10 164.87 226.87 174.74 214.86 184.87 C 204.33 193.08 193.76 201.24 183.73 210.07 C 178.39 203.06 173.55 195.70 168.35 188.60 C 167.23 186.98 165.91 185.43 165.30 183.54 C 172.21 178.75 179.19 174.02 186.06 169.16 C 195.61 162.63 205.46 156.56 214.83 149.76 C 221.95 144.51 230.09 140.63 236.81 134.88 C 236.81 131.50 235.31 128.35 235.09 124.99 Z" />
<path fill="#3e3e3e" opacity="1.00" d=" M 101.28 128.54 C 107.69 124.97 116.26 130.84 115.52 138.04 C 115.21 144.66 106.65 148.41 101.31 144.73 C 95.11 141.67 94.92 131.52 101.28 128.54 Z" />
<path fill="#3e3e3e" opacity="1.00" d=" M 247.10 131.87 C 245.50 130.01 248.01 128.25 249.06 126.95 C 250.08 128.30 251.10 129.64 252.15 130.98 C 250.66 131.55 248.36 133.82 247.10 131.87 Z" />
<path fill="#f5e5c1" opacity="1.00" d=" M 167.97 138.63 C 174.41 137.88 180.90 137.92 187.35 138.50 C 183.05 145.53 177.93 152.14 174.81 159.84 C 174.48 160.76 174.35 161.71 174.42 162.71 L 174.73 163.24 C 174.79 163.55 174.91 164.17 174.97 164.49 C 172.68 166.02 170.27 167.37 167.97 168.88 C 166.63 166.94 165.42 164.50 162.91 163.94 C 158.31 163.01 153.11 164.30 150.15 168.14 C 147.47 171.00 149.66 175.94 146.47 178.42 C 138.78 184.38 132.38 192.38 129.35 201.70 C 129.24 197.62 126.38 194.74 123.13 192.72 C 122.05 189.54 121.04 185.93 118.04 184.01 C 114.43 181.77 110.06 181.44 105.93 181.06 C 117.11 159.58 138.57 144.16 162.23 139.45 C 162.35 140.34 162.59 142.13 162.72 143.02 C 165.06 142.39 166.54 140.45 167.97 138.63 Z" />
<path fill="#f5e5c1" opacity="1.00" d=" M 184.34 150.28 C 187.39 146.96 189.49 142.95 191.94 139.21 C 196.91 140.06 201.80 141.34 206.50 143.17 C 202.36 146.16 197.74 148.38 193.62 151.39 C 187.82 154.89 182.71 159.43 176.73 162.62 L 176.74 161.87 C 178.22 157.43 181.53 153.93 184.34 150.28 Z" />
<path fill="#3e3e3e" opacity="1.00" d=" M 257.64 141.62 C 259.22 141.10 260.52 142.51 261.90 143.02 C 260.62 144.80 258.85 146.05 256.78 146.75 C 256.97 145.07 255.53 142.53 257.64 141.62 Z" />
<path fill="#f5e5c1" opacity="1.00" d=" M 276.38 151.96 C 279.59 150.53 282.60 148.73 285.57 146.87 C 291.27 155.47 296.06 164.65 299.76 174.29 C 294.10 174.24 288.49 175.05 282.88 175.72 C 284.82 175.21 286.76 174.71 288.72 174.22 C 288.67 173.28 288.58 171.42 288.54 170.48 C 281.39 172.33 274.38 174.77 266.96 175.30 C 265.96 173.40 264.95 171.52 263.93 169.64 C 267.01 167.15 270.04 164.60 273.11 162.09 C 276.00 159.59 275.86 155.42 276.38 151.96 Z" />
<path fill="#3e3e3e" opacity="1.00" d=" M 115.43 167.44 C 116.99 165.49 120.39 165.86 121.60 168.03 C 122.66 168.12 123.71 168.19 124.77 168.25 L 124.78 166.73 C 125.98 167.59 127.64 168.08 128.34 169.50 C 129.26 171.22 128.45 173.18 128.32 174.99 C 126.64 173.78 125.04 172.38 124.30 170.38 C 123.89 170.14 123.08 169.66 122.67 169.42 C 122.39 172.19 120.30 175.29 117.16 174.76 C 113.65 174.57 113.18 169.44 115.43 167.44 Z" />
<path fill="#3e3e3e" opacity="1.00" d=" M 131.38 172.36 C 131.85 172.40 132.81 172.48 133.28 172.53 C 133.32 173.01 133.39 173.99 133.42 174.47 C 132.91 174.53 131.87 174.63 131.36 174.69 C 131.36 174.10 131.37 172.94 131.38 172.36 Z" />
<path fill="#f5e5c1" opacity="1.00" d=" M 229.19 185.83 C 234.97 182.09 239.91 177.28 245.38 173.13 C 246.63 175.13 247.87 177.14 249.07 179.18 C 242.52 181.64 235.72 183.33 229.19 185.83 Z" />
<path fill="#f5e5c1" opacity="1.00" d=" M 271.93 186.83 C 282.03 184.95 292.25 183.86 302.45 182.67 C 304.88 190.09 306.24 197.80 307.24 205.53 C 305.30 205.54 303.36 205.54 301.43 205.53 C 301.50 200.75 299.31 195.43 294.39 193.91 C 287.81 192.40 280.14 192.85 275.05 197.81 C 274.25 194.08 273.14 190.44 271.93 186.83 Z" />
<path fill="#f5e5c1" opacity="1.00" d=" M 102.92 187.05 C 107.83 187.63 114.43 187.12 117.00 192.34 C 114.36 193.89 111.37 195.58 110.40 198.71 C 107.83 204.47 112.61 211.98 119.00 211.78 C 122.04 212.17 124.68 210.59 126.87 208.68 C 125.85 215.11 125.82 221.68 126.38 228.15 C 128.70 244.74 139.70 259.73 154.68 267.16 C 164.92 272.15 176.83 274.44 188.06 271.83 C 192.15 271.20 195.92 269.38 199.93 268.44 C 203.09 269.91 205.73 272.24 208.44 274.39 C 196.18 280.72 184.29 287.88 173.48 296.51 C 171.64 297.95 170.13 299.76 168.64 301.55 C 152.76 299.56 137.42 293.11 125.19 282.74 C 110.52 270.49 100.46 252.90 97.20 234.07 C 94.56 218.28 96.38 201.70 102.92 187.05 Z" />
<path fill="#f5e5c1" opacity="1.00" d=" M 235.76 191.03 C 241.82 190.22 247.86 189.29 253.96 188.81 C 255.05 191.92 256.11 195.03 257.06 198.18 C 253.00 198.33 248.93 198.44 244.87 198.48 C 249.01 198.61 253.14 198.71 257.28 198.82 C 256.68 200.98 256.01 203.12 255.34 205.27 C 253.61 205.52 251.87 205.79 250.15 206.06 C 246.76 205.00 243.29 204.22 239.83 203.44 C 240.12 198.87 238.15 194.76 235.76 191.03 Z" />
<path fill="#f3722b" opacity="1.00" d=" M 149.00 206.51 C 151.14 206.12 153.02 204.96 154.95 204.04 C 154.91 208.26 154.26 212.78 156.20 216.72 C 159.08 222.74 166.45 225.61 172.81 224.51 C 175.48 223.84 177.99 222.68 180.60 221.79 C 181.08 226.24 180.63 231.04 182.89 235.08 C 185.00 239.03 189.30 242.13 193.93 241.66 C 197.68 241.44 201.06 238.48 201.76 234.78 C 202.41 231.78 203.04 228.78 204.26 225.95 C 207.24 226.63 210.21 227.31 213.22 227.87 C 211.43 234.89 208.13 241.84 202.50 246.57 C 195.26 246.65 188.20 244.03 181.00 243.38 C 179.40 243.27 178.01 243.79 176.84 244.93 C 184.27 246.70 191.82 247.85 199.27 249.54 C 196.47 251.55 193.48 253.29 190.26 254.53 C 188.86 254.07 187.48 253.48 186.02 253.22 C 185.25 254.23 184.59 255.32 183.90 256.39 C 176.57 257.60 168.88 256.94 162.08 253.87 C 151.81 249.34 143.76 239.94 141.11 229.01 C 139.09 221.12 139.93 212.68 143.02 205.19 C 144.99 205.70 146.94 206.49 149.00 206.51 Z" />
<path fill="#f5e5c1" opacity="1.00" d=" M 291.98 214.70 C 294.94 213.67 296.97 211.03 299.86 209.89 C 302.39 209.58 304.95 209.78 307.50 209.79 C 308.40 219.27 308.06 228.87 306.68 238.29 C 302.12 238.83 297.24 238.84 293.14 241.13 C 288.38 243.89 287.76 251.44 291.96 254.96 C 294.68 257.48 298.61 257.57 302.07 258.26 C 301.56 260.17 301.02 262.07 300.47 263.97 C 290.25 261.49 279.78 260.09 269.26 259.89 C 270.49 256.81 271.68 253.72 272.80 250.60 C 276.91 251.63 281.67 252.79 285.64 250.75 C 289.00 249.29 288.45 243.93 284.99 242.97 C 281.84 242.10 278.50 242.15 275.29 241.52 C 276.02 237.24 276.79 232.97 277.73 228.73 C 281.86 228.07 286.01 227.49 290.04 226.34 C 294.72 227.24 299.41 228.28 304.20 228.33 C 299.44 227.27 294.43 227.29 289.81 225.67 C 285.90 223.04 282.33 219.89 278.21 217.55 C 278.03 216.19 277.86 214.82 277.69 213.46 C 282.06 215.72 287.30 216.39 291.98 214.70 Z" />
<path fill="#f5e5c1" opacity="1.00" d=" M 230.54 226.50 C 240.26 226.98 249.89 228.70 259.63 228.49 C 259.27 231.14 258.84 233.77 258.30 236.39 C 255.93 238.30 256.34 241.20 256.32 243.91 C 254.96 249.05 252.73 253.93 250.33 258.67 C 240.68 255.77 231.28 251.85 221.15 250.89 C 225.88 243.47 229.24 235.23 230.54 226.50 Z" />
<path fill="#f5e5c1" opacity="1.00" d=" M 207.23 264.06 C 210.75 261.60 214.05 258.82 217.08 255.78 C 225.26 257.75 233.62 259.20 241.42 262.51 C 233.14 264.73 224.96 267.27 216.96 270.31 C 213.24 269.37 210.50 266.02 207.23 264.06 Z" />
<path fill="#f3722b" opacity="1.00" d=" M 226.98 277.28 C 241.28 271.76 256.73 268.91 272.08 269.98 C 291.94 270.80 312.38 275.41 328.79 287.09 C 342.90 297.24 352.07 313.67 353.50 330.97 C 355.39 346.02 349.53 361.35 339.32 372.35 C 328.41 384.49 314.02 392.91 298.97 398.90 C 309.55 402.95 319.74 409.24 325.98 418.96 C 329.71 424.52 331.32 431.21 331.42 437.85 C 327.39 436.51 322.82 435.60 318.90 437.79 C 313.91 440.42 308.21 444.69 308.63 451.01 C 309.31 457.80 315.89 462.02 321.75 464.21 C 310.43 477.66 293.34 484.96 276.21 487.29 C 250.51 490.91 222.81 484.09 203.21 466.69 C 201.25 465.75 202.76 463.90 203.41 462.60 C 208.93 453.33 214.20 443.91 219.75 434.65 C 232.39 442.75 246.75 449.36 262.02 449.55 C 270.11 449.43 279.26 447.20 284.25 440.30 C 286.94 436.71 285.58 431.87 283.53 428.34 C 279.93 422.41 273.36 419.12 266.84 417.47 C 254.10 414.22 240.82 414.57 227.77 414.48 C 227.57 403.49 227.40 392.50 227.53 381.52 C 242.24 381.59 257.20 380.18 271.06 374.97 C 278.60 372.04 286.47 367.66 290.00 360.00 C 292.84 353.77 290.82 346.38 286.59 341.30 C 283.29 337.18 278.17 334.86 273.01 334.26 C 262.86 333.00 252.72 335.59 243.31 339.22 C 231.62 343.72 220.75 350.15 210.75 357.67 C 199.64 340.48 188.82 323.11 177.77 305.88 C 189.57 296.08 202.84 288.12 216.64 281.49 C 218.87 280.07 221.00 282.01 222.91 283.06 C 226.57 285.39 230.25 287.69 233.73 290.27 C 238.31 293.65 241.97 298.21 247.03 300.93 C 254.03 304.66 261.54 308.22 266.56 314.59 C 268.96 317.42 272.11 319.54 275.59 320.82 C 281.60 323.00 286.53 327.36 292.62 329.33 C 296.37 330.58 300.15 331.76 303.84 333.20 C 303.25 335.53 301.42 338.38 303.55 340.46 C 306.52 343.52 310.43 345.59 313.03 349.03 C 314.60 351.81 315.03 355.24 317.41 357.56 C 320.44 360.57 322.48 365.16 326.96 366.26 C 331.05 367.34 335.36 363.14 334.24 359.03 C 333.54 356.81 332.30 354.82 331.03 352.89 C 328.90 349.29 324.37 348.39 321.79 345.20 C 316.99 339.91 310.82 336.26 305.21 331.94 C 302.24 329.64 298.41 329.12 294.95 327.92 C 288.66 326.09 283.09 322.47 276.81 320.63 C 272.84 319.56 269.61 316.97 266.52 314.39 C 265.32 310.03 264.46 305.20 261.11 301.89 C 258.08 298.64 253.84 297.05 250.07 294.87 C 246.75 292.99 244.08 290.22 241.24 287.72 C 236.83 283.79 231.85 280.60 226.98 277.28 Z" />
<path fill="#3e3e3e" opacity="1.00" d=" M 313.76 286.71 C 315.30 285.01 317.89 285.10 319.99 284.77 C 325.21 284.12 329.76 289.98 327.84 294.88 C 327.06 298.13 323.74 299.39 321.00 300.57 C 318.73 299.48 316.02 298.70 314.66 296.39 C 312.87 293.52 313.17 289.88 313.76 286.71 Z" />
<path fill="#3e3e3e" opacity="1.00" d=" M 306.22 299.29 C 310.31 297.10 315.79 301.50 314.47 305.99 C 313.63 310.57 307.09 312.45 304.00 309.02 C 301.00 306.17 302.40 300.67 306.22 299.29 Z" />
<path fill="#f3722b" opacity="1.00" d=" M 398.46 327.07 C 398.73 325.83 397.77 322.87 400.03 323.28 C 410.95 323.17 421.88 323.28 432.80 323.26 C 432.47 336.84 432.09 350.44 432.37 364.01 C 435.57 364.56 438.83 364.16 442.06 364.08 C 453.71 363.88 465.36 363.85 477.00 363.46 C 476.82 374.90 477.26 386.34 477.19 397.77 C 462.05 397.56 446.93 398.18 431.79 398.00 C 431.34 414.41 431.49 430.84 431.01 447.25 C 420.26 447.42 409.51 446.95 398.76 447.00 C 398.77 430.66 398.83 414.33 398.48 398.00 C 384.91 398.12 371.32 397.73 357.76 398.24 C 357.59 387.33 358.03 376.42 358.05 365.51 C 371.53 365.02 385.04 365.27 398.52 364.66 C 398.49 352.13 398.57 339.60 398.46 327.07 Z" />
<path fill="#3e3e3e" opacity="1.00" d=" M 218.36 327.46 C 223.34 324.17 230.46 329.19 229.39 334.95 C 228.96 340.54 221.47 343.45 217.39 339.60 C 213.37 336.55 213.92 329.84 218.36 327.46 Z" />
<path fill="#3e3e3e" opacity="1.00" d=" M 247.18 388.71 C 244.67 385.63 248.58 381.47 252.01 382.48 C 255.04 382.63 255.53 385.93 256.03 388.27 C 253.37 389.54 249.59 391.45 247.18 388.71 Z" />
<path fill="#3e3e3e" opacity="1.00" d=" M 287.09 400.93 C 290.48 399.05 294.94 402.16 294.28 405.98 C 294.15 409.27 289.84 410.46 287.55 408.42 C 284.97 406.84 284.63 402.77 287.09 400.93 Z" />
</svg>
