<?xml version="1.0" encoding="UTF-8" ?>
<!DOCTYPE svg PUBLIC "-//W3C//DTD SVG 1.1//EN" "http://www.w3.org/Graphics/SVG/1.1/DTD/svg11.dtd">
<svg width="512pt" height="512pt" viewBox="0 0 512 512" version="1.1" xmlns="http://www.w3.org/2000/svg">
<path fill="#3e3e3e" opacity="1.00" d=" M 0.00 0.00 L 512.00 0.00 L 512.00 512.00 L 258.91 512.00 C 263.75 510.02 268.91 509.19 273.93 507.81 C 282.91 505.04 291.86 502.15 300.98 499.83 C 314.76 495.79 328.19 490.67 341.59 485.54 C 351.69 480.71 362.17 476.64 371.80 470.88 C 380.78 465.46 389.76 460.05 398.91 454.94 C 412.68 447.21 425.21 437.52 437.16 427.25 C 448.49 416.54 460.25 406.22 470.66 394.59 C 476.10 387.93 481.29 381.03 485.70 373.63 C 491.12 364.96 496.94 356.45 500.83 346.94 C 503.38 341.11 504.69 334.85 507.16 328.99 C 509.64 323.31 508.54 316.98 508.73 310.98 C 508.43 302.75 509.52 294.36 507.51 286.27 C 506.07 279.72 505.29 272.87 502.08 266.87 C 500.11 263.12 498.88 259.04 497.84 254.95 C 495.47 245.93 490.14 238.15 486.07 229.86 C 481.79 222.80 476.27 216.53 472.49 209.15 C 484.27 203.72 496.64 199.72 508.45 194.34 C 508.49 193.83 508.58 192.80 508.63 192.29 C 494.07 192.01 479.51 192.45 464.96 192.06 C 455.62 191.13 446.24 191.20 436.89 190.48 C 429.92 190.71 422.96 190.07 416.04 189.75 C 408.09 196.99 402.34 206.25 395.10 214.14 C 383.85 225.86 372.12 237.13 361.24 249.20 C 360.31 250.49 358.62 251.79 359.38 253.57 C 362.08 253.73 364.19 251.81 366.49 250.72 C 376.11 245.59 386.38 241.83 396.22 237.15 C 399.53 241.66 402.84 246.35 404.31 251.84 C 405.94 257.78 407.27 263.89 407.48 270.07 C 406.89 278.86 403.12 286.94 400.12 295.09 C 397.77 301.50 393.86 307.24 388.98 311.99 C 385.55 315.29 382.99 319.33 379.94 322.95 C 373.37 330.07 365.97 336.33 358.46 342.41 C 350.06 350.23 339.09 354.25 329.74 360.72 C 322.97 365.64 315.12 368.65 307.89 372.78 C 292.97 379.71 277.95 386.59 262.21 391.50 C 256.18 393.41 250.02 394.91 244.04 396.99 C 234.52 400.22 224.55 401.72 214.75 403.78 C 207.48 405.24 200.26 406.89 192.95 408.08 C 188.33 409.10 183.66 407.46 179.03 408.41 C 165.68 408.96 152.30 409.94 138.95 408.73 C 122.78 408.79 106.84 405.87 90.88 403.66 C 72.92 401.43 55.55 396.08 38.38 390.54 C 25.39 385.38 12.21 380.47 0.00 373.58 L 0.00 0.00 Z" />
<path fill="#f4722b" opacity="1.00" d=" M 235.02 5.01 C 236.01 5.68 237.00 6.35 237.99 7.02 C 235.57 11.91 233.09 16.76 230.71 21.66 C 228.56 26.32 224.90 30.02 221.56 33.84 C 225.93 24.18 230.51 14.61 235.02 5.01 Z" />
<path fill="#f4722b" opacity="1.00" d=" M 248.21 32.96 C 261.76 26.23 275.40 19.65 289.00 13.02 C 290.34 15.00 291.67 17.00 292.99 19.00 C 285.54 22.84 277.92 26.36 270.56 30.39 C 269.15 31.20 267.49 31.24 265.91 31.41 C 260.00 31.86 254.11 32.50 248.21 32.96 Z" />
<path fill="#f4722b" opacity="1.00" d=" M 148.26 19.29 C 149.58 19.00 150.91 19.38 152.20 19.67 C 167.39 23.39 182.64 26.87 197.80 30.68 C 191.71 31.59 185.52 31.75 179.47 32.94 C 186.52 38.46 193.43 44.17 200.42 49.77 C 180.59 46.89 160.85 43.44 141.02 40.63 C 141.00 44.42 141.00 48.21 141.00 52.00 C 136.66 54.69 132.14 57.06 127.89 59.88 C 125.39 62.18 124.09 65.45 122.19 68.22 C 120.41 71.40 117.94 74.25 116.79 77.74 C 109.61 113.76 102.57 149.81 95.33 185.82 C 89.67 184.84 84.01 183.77 78.30 183.17 C 75.60 192.13 72.87 201.08 70.12 210.02 C 69.10 213.12 68.66 216.49 66.75 219.23 C 62.52 195.23 58.77 171.13 54.94 147.07 C 55.40 131.40 56.61 115.74 57.41 100.08 C 60.26 89.61 63.73 79.31 66.87 68.92 C 67.96 64.53 71.26 61.30 73.71 57.66 C 76.55 53.86 78.99 49.69 82.52 46.47 C 86.96 42.26 91.36 38.02 95.72 33.75 C 98.06 31.22 101.68 30.88 104.73 29.65 C 112.81 27.18 120.53 23.40 128.96 22.22 C 135.40 21.29 141.84 20.34 148.26 19.29 Z" />
<path fill="#f4722b" opacity="1.00" d=" M 428.98 24.20 C 432.54 32.33 435.64 41.02 435.20 50.03 C 429.20 53.33 423.27 56.77 417.35 60.21 C 414.38 61.85 411.37 63.59 408.01 64.28 C 401.34 64.47 394.68 63.85 388.04 63.26 C 378.59 62.90 370.04 58.33 360.71 57.22 C 368.34 53.09 377.40 52.80 385.25 49.11 C 388.06 43.66 387.79 37.11 391.12 31.89 C 396.94 31.31 402.89 31.70 408.66 30.48 C 411.24 29.94 413.86 29.64 416.49 29.43 C 416.69 34.65 420.26 38.87 420.48 44.03 C 420.82 47.07 421.59 50.04 422.36 52.99 C 423.66 52.41 424.95 51.83 426.26 51.25 C 427.78 46.30 428.92 41.21 429.30 36.04 C 429.24 32.09 428.19 28.16 428.98 24.20 Z" />
<path fill="#f4722b" opacity="1.00" d=" M 233.18 65.21 C 240.47 63.53 247.74 61.73 255.02 60.00 C 255.32 60.99 255.63 61.97 255.94 62.96 C 255.42 64.13 254.89 65.31 254.37 66.48 C 249.55 67.20 244.80 68.41 239.95 68.86 C 236.45 68.49 233.03 67.59 229.60 66.84 C 230.56 65.87 231.90 65.51 233.18 65.21 Z" />
<path fill="#f4722b" opacity="1.00" d=" M 404.42 68.59 C 410.50 66.25 416.19 70.81 420.88 74.15 C 425.93 81.73 426.62 91.38 425.56 100.21 C 428.08 100.90 432.25 99.60 433.21 102.85 C 432.88 105.86 431.33 108.53 430.30 111.33 C 436.77 113.55 443.65 114.90 449.57 118.48 C 452.55 120.34 456.13 121.21 458.63 123.78 C 457.31 127.51 452.94 132.61 456.93 136.04 C 460.69 139.61 462.76 144.45 465.14 148.96 C 467.63 154.23 470.29 159.49 471.76 165.16 C 473.25 169.79 473.58 174.67 474.69 179.39 C 467.45 179.23 460.20 179.71 452.97 179.06 C 443.03 178.28 433.04 179.44 423.10 178.48 C 418.77 178.27 414.29 178.08 410.10 179.39 C 402.14 185.64 396.03 193.86 388.93 201.02 C 383.14 206.85 377.38 212.72 371.98 218.93 C 370.20 220.63 368.56 223.75 365.65 222.58 C 366.38 206.97 363.08 191.56 362.10 176.04 C 361.82 171.95 359.69 167.65 361.66 163.71 C 362.53 160.93 364.72 157.98 363.19 155.03 C 362.37 152.12 359.83 149.56 360.35 146.38 C 362.12 143.85 364.48 141.80 366.68 139.65 C 373.21 133.48 378.69 126.18 386.13 121.04 C 384.80 117.69 382.23 115.14 380.28 112.19 C 382.44 109.60 384.78 106.91 388.30 106.30 C 388.92 105.04 390.31 103.78 389.70 102.24 C 388.24 96.91 385.45 91.66 386.33 85.96 C 387.05 81.61 388.14 76.63 392.16 74.12 C 395.94 71.70 400.20 70.10 404.42 68.59 Z" />
<path fill="#f4722b" opacity="1.00" d=" M 231.08 92.71 C 253.51 120.35 275.67 148.21 297.88 176.03 C 304.00 183.19 308.41 191.57 313.65 199.35 C 318.79 207.55 324.06 215.66 329.21 223.86 C 332.70 229.44 336.67 234.78 339.25 240.89 C 346.44 257.33 353.88 273.66 361.06 290.10 C 364.93 299.46 368.63 308.88 372.60 318.19 C 366.10 326.62 357.16 332.46 348.42 338.28 C 340.47 344.17 331.40 348.40 323.91 354.93 C 314.47 361.46 304.50 367.25 294.10 372.14 C 281.41 378.87 267.52 382.74 253.91 387.13 C 242.05 391.09 229.61 392.79 217.48 395.72 C 209.51 397.83 201.24 398.18 193.07 398.96 C 186.14 391.18 179.34 383.28 172.38 375.52 C 171.28 374.30 170.23 373.03 169.41 371.61 C 152.99 342.44 136.79 313.13 120.28 284.01 C 122.37 274.00 124.85 264.07 127.00 254.06 C 134.10 254.83 141.22 255.60 148.26 256.81 C 144.69 216.75 141.37 176.70 137.63 136.66 C 140.66 134.28 144.32 132.79 147.13 130.14 C 154.87 121.20 162.00 111.73 169.88 102.92 C 184.65 112.91 199.46 122.85 214.37 132.62 C 220.17 134.61 226.16 136.15 232.11 137.69 C 237.53 137.46 242.95 136.77 248.36 136.22 C 242.53 121.74 236.50 107.34 231.08 92.71 Z" />
<path fill="#f5e5c1" opacity="1.00" d=" M 395.10 214.14 C 402.34 206.25 408.09 196.99 416.04 189.75 C 422.96 190.07 429.92 190.71 436.89 190.48 C 446.24 191.20 455.62 191.13 464.96 192.06 C 479.51 192.45 494.07 192.01 508.63 192.29 C 508.58 192.80 508.49 193.83 508.45 194.34 C 496.64 199.72 484.27 203.72 472.49 209.15 C 476.27 216.53 481.79 222.80 486.07 229.86 C 490.14 238.15 495.47 245.93 497.84 254.95 C 498.88 259.04 500.11 263.12 502.08 266.87 C 505.29 272.87 506.07 279.72 507.51 286.27 C 509.52 294.36 508.43 302.75 508.73 310.98 C 508.54 316.98 509.64 323.31 507.16 328.99 C 504.69 334.85 503.38 341.11 500.83 346.94 C 496.94 356.45 491.12 364.96 485.70 373.63 C 481.29 381.03 476.10 387.93 470.66 394.59 C 460.25 406.22 448.49 416.54 437.16 427.25 C 425.21 437.52 412.68 447.21 398.91 454.94 C 389.76 460.05 380.78 465.46 371.80 470.88 C 362.17 476.64 351.69 480.71 341.59 485.54 C 328.19 490.67 314.76 495.79 300.98 499.83 C 291.86 502.15 282.91 505.04 273.93 507.81 C 268.91 509.19 263.75 510.02 258.91 512.00 L 0.00 512.00 L 0.00 373.58 C 12.21 380.47 25.39 385.38 38.38 390.54 C 55.55 396.08 72.92 401.43 90.88 403.66 C 106.84 405.87 122.78 408.79 138.95 408.73 C 152.30 409.94 165.68 408.96 179.03 408.41 C 183.66 407.46 188.33 409.10 192.95 408.08 C 200.26 406.89 207.48 405.24 214.75 403.78 C 224.55 401.72 234.52 400.22 244.04 396.99 C 250.02 394.91 256.18 393.41 262.21 391.50 C 277.95 386.59 292.97 379.71 307.89 372.78 C 315.12 368.65 322.97 365.64 329.74 360.72 C 339.09 354.25 350.06 350.23 358.46 342.41 C 365.97 336.33 373.37 330.07 379.94 322.95 C 382.99 319.33 385.55 315.29 388.98 311.99 C 393.86 307.24 397.77 301.50 400.12 295.09 C 403.12 286.94 406.89 278.86 407.48 270.07 C 407.27 263.89 405.94 257.78 404.31 251.84 C 402.84 246.35 399.53 241.66 396.22 237.15 C 386.38 241.83 376.11 245.59 366.49 250.72 C 364.19 251.81 362.08 253.73 359.38 253.57 C 358.62 251.79 360.31 250.49 361.24 249.20 C 372.12 237.13 383.85 225.86 395.10 214.14 Z" />
<path fill="#f4722b" opacity="1.00" d=" M 32.85 246.69 C 43.39 243.27 53.87 239.64 64.42 236.24 C 53.40 243.69 42.11 250.74 30.98 258.01 C 26.61 257.12 22.12 256.73 17.93 255.13 C 22.79 252.15 27.28 248.30 32.85 246.69 Z" />
<path fill="#f4722b" opacity="1.00" d=" M 41.03 295.95 C 52.06 278.33 62.94 260.61 74.05 243.04 C 75.82 247.61 73.81 252.31 73.20 256.90 C 71.56 265.05 70.55 273.34 68.49 281.40 C 65.76 288.30 65.23 295.74 63.99 302.98 C 60.00 303.36 56.01 303.66 52.01 304.02 C 48.79 300.75 46.28 295.87 41.03 295.95 Z" />
</svg>
