<?xml version="1.0" encoding="UTF-8" ?>
<!DOCTYPE svg PUBLIC "-//W3C//DTD SVG 1.1//EN" "http://www.w3.org/Graphics/SVG/1.1/DTD/svg11.dtd">
<svg width="512pt" height="512pt" viewBox="0 0 512 512" version="1.1" xmlns="http://www.w3.org/2000/svg">
<path fill="#f4722b" opacity="1.00" d=" M 0.00 0.00 L 0.04 0.00 C 0.03 0.02 0.01 0.06 0.00 0.08 L 0.00 0.00 Z" />
<path fill="#3e3e3e" opacity="1.00" d=" M 0.04 0.00 L 512.00 0.00 L 512.00 512.00 L 0.00 512.00 L 0.00 0.08 C 0.01 0.06 0.03 0.02 0.04 0.00 Z" />
<path fill="#f4722b" opacity="1.00" d=" M 139.42 17.28 C 145.32 16.69 151.18 18.82 156.00 22.13 C 160.72 27.15 161.68 34.13 162.74 40.64 C 163.61 40.53 165.35 40.30 166.22 40.18 C 166.51 43.35 166.77 46.52 167.22 49.66 C 165.87 51.49 164.31 53.21 163.31 55.27 C 162.89 57.59 163.12 59.96 163.13 62.30 C 158.66 65.73 153.84 68.66 148.98 71.49 C 146.53 71.83 144.11 72.29 141.67 72.62 C 140.31 72.66 138.97 72.61 137.62 72.60 C 136.15 68.61 134.70 64.61 133.28 60.60 C 132.00 59.88 130.72 59.16 129.45 58.44 C 128.42 54.37 125.50 50.32 127.08 46.03 C 128.25 40.97 124.89 36.05 125.87 30.95 C 126.33 28.94 126.39 26.55 128.06 25.10 C 131.34 21.85 135.25 19.25 139.42 17.28 Z" />
<path fill="#f4722b" opacity="1.00" d=" M 353.91 22.01 C 358.56 18.76 364.17 16.94 369.87 17.16 C 374.70 19.25 379.17 22.33 382.66 26.31 C 384.64 30.65 384.06 35.50 382.92 39.98 C 381.97 43.26 382.80 46.60 382.86 49.92 C 382.46 52.84 381.20 55.55 380.30 58.35 C 379.04 59.06 377.78 59.78 376.52 60.49 C 375.62 64.14 371.98 68.01 374.29 71.74 C 377.00 77.47 380.32 82.88 383.83 88.16 C 384.63 89.30 385.47 90.45 386.65 91.24 C 393.94 95.84 401.91 99.34 409.12 104.06 C 409.96 114.02 408.62 124.05 408.89 134.05 C 409.13 144.61 408.41 155.23 409.39 165.76 C 409.45 168.95 409.47 172.15 409.47 175.35 C 414.59 180.10 417.32 186.79 422.49 191.49 C 427.48 196.18 432.04 201.32 437.26 205.76 C 438.34 206.66 439.13 207.82 439.92 208.98 C 440.92 208.68 441.93 208.39 442.94 208.10 C 448.35 212.08 452.89 217.11 458.42 220.95 C 459.60 225.75 455.94 229.75 453.13 233.16 C 448.83 237.06 443.81 240.22 438.50 242.54 C 432.82 245.72 427.12 240.26 421.24 240.78 C 415.96 237.10 411.49 232.40 407.55 227.35 C 406.20 243.57 406.00 259.84 405.34 276.10 C 403.04 294.62 401.75 313.26 399.22 331.76 C 398.64 335.47 398.75 339.27 398.02 342.97 C 394.80 351.39 392.45 360.14 389.98 368.81 C 386.64 401.12 384.65 433.60 381.14 465.90 C 385.66 467.88 389.17 471.74 394.01 473.03 C 401.32 475.31 408.63 477.61 415.93 479.94 C 421.45 481.75 427.35 481.30 433.05 482.06 C 432.91 483.59 432.77 485.13 432.64 486.67 C 421.82 487.30 410.96 486.36 400.15 487.24 C 396.47 487.46 392.72 487.10 389.15 488.18 C 385.21 487.66 382.26 484.82 378.67 483.47 C 373.42 483.22 368.14 483.35 362.90 482.71 C 362.34 483.93 361.78 485.15 361.23 486.38 C 358.22 486.44 355.21 486.47 352.21 486.55 C 351.21 485.25 351.28 483.75 352.16 482.42 C 355.24 482.17 358.33 481.93 361.43 481.84 C 361.76 481.25 362.42 480.07 362.75 479.48 C 367.06 478.31 371.57 478.73 376.00 478.71 C 379.88 478.52 382.90 481.34 386.43 482.46 C 393.74 483.37 401.17 483.31 408.49 482.37 C 403.49 477.05 395.78 476.10 389.20 473.80 C 386.48 472.68 383.26 472.94 380.89 471.05 C 377.63 468.76 373.89 466.79 372.09 463.05 C 373.85 462.57 375.59 462.01 377.27 461.31 C 378.53 454.88 378.55 448.32 379.45 441.85 C 381.27 416.82 384.59 391.94 387.22 366.98 C 387.10 361.48 389.68 356.48 390.39 351.12 C 391.01 346.98 392.99 343.16 393.19 338.94 C 393.70 326.69 395.66 314.57 397.05 302.39 C 398.36 289.88 400.47 277.47 401.56 264.93 C 401.94 250.80 403.10 236.66 402.11 222.53 C 402.02 219.99 403.32 217.64 403.20 215.09 C 403.14 207.15 402.90 199.19 401.79 191.32 C 401.47 189.19 401.42 187.04 401.48 184.89 C 400.78 180.53 401.11 176.00 399.55 171.80 C 397.10 164.17 394.63 156.54 392.39 148.85 C 392.13 146.21 393.30 143.73 394.15 141.30 C 397.01 134.12 399.03 126.65 401.45 119.33 C 402.52 115.92 404.67 112.64 404.25 108.94 C 403.48 107.64 402.00 107.04 400.79 106.26 C 395.29 103.26 390.59 99.04 385.23 95.80 C 381.43 93.79 380.26 89.40 378.01 86.05 C 375.45 82.16 372.96 78.23 370.90 74.05 C 370.25 74.14 368.96 74.31 368.31 74.40 C 368.35 76.27 368.19 78.22 368.90 80.00 C 370.87 84.61 370.81 89.70 371.66 94.57 C 372.12 94.60 373.04 94.66 373.49 94.70 C 373.50 94.26 373.51 93.38 373.52 92.95 C 375.57 92.01 376.61 89.85 378.50 88.68 C 377.00 92.54 374.51 95.87 372.44 99.40 C 371.02 104.86 370.87 110.54 369.93 116.08 C 369.33 122.73 367.66 129.42 368.78 136.10 C 370.09 141.42 371.64 146.68 372.77 152.04 C 374.29 155.42 376.61 158.47 377.44 162.15 C 378.87 166.41 377.43 171.05 378.97 175.27 C 379.08 176.54 379.16 177.82 379.23 179.09 L 377.90 179.04 C 377.45 172.38 379.08 165.32 376.20 159.03 C 375.07 156.28 373.00 154.01 372.02 151.19 C 369.75 144.21 367.23 137.21 366.53 129.85 C 366.57 124.10 364.58 118.64 363.19 113.13 C 362.47 110.02 360.16 107.50 359.80 104.28 C 359.08 98.04 357.75 91.91 356.28 85.82 C 355.11 81.15 352.49 77.04 351.11 72.45 C 342.38 71.88 333.56 72.22 324.88 70.79 C 316.74 70.50 308.66 68.97 300.49 69.47 C 296.13 78.45 291.69 87.51 287.57 96.65 C 279.77 112.91 273.47 129.84 265.32 145.94 C 271.66 157.36 274.55 170.26 279.82 182.15 C 282.70 189.73 286.39 196.96 289.64 204.38 C 290.86 207.76 289.56 211.97 292.40 214.73 C 293.08 217.65 293.92 220.67 296.11 222.86 C 298.32 225.51 301.88 226.09 305.08 226.76 C 307.60 231.26 310.98 235.13 314.66 238.71 C 316.39 238.60 318.12 238.46 319.86 238.33 C 319.43 236.81 318.97 235.31 318.50 233.82 C 320.44 231.95 322.19 228.60 319.44 226.57 C 315.28 223.93 312.72 219.59 310.78 215.19 C 310.01 213.74 310.53 212.11 310.77 210.62 C 312.89 214.91 316.59 218.06 318.84 222.25 C 320.39 224.88 322.17 227.36 323.70 230.00 C 320.49 232.68 320.38 236.79 320.69 240.63 C 318.57 241.54 316.39 242.26 314.14 242.71 C 314.94 249.04 312.25 255.70 315.24 261.70 C 317.37 266.00 322.71 266.32 326.57 268.29 C 326.65 264.46 325.99 260.59 326.86 256.82 C 330.06 266.10 333.23 275.41 336.04 284.83 C 337.67 293.22 338.62 301.73 339.84 310.19 C 340.85 319.51 343.24 328.61 344.42 337.91 C 344.56 339.48 345.40 340.83 346.09 342.22 C 344.00 354.40 342.48 366.67 340.93 378.92 C 337.43 394.76 336.38 410.99 333.69 426.96 C 332.19 436.55 331.98 446.28 330.65 455.89 C 330.47 457.75 330.48 459.62 330.48 461.49 C 338.60 462.17 346.75 461.78 354.86 462.37 C 349.73 464.30 344.16 463.52 338.80 463.74 C 338.78 466.92 338.86 470.30 337.16 473.13 C 335.53 477.21 330.15 478.65 329.87 483.42 C 336.16 484.18 342.48 483.34 348.77 483.19 C 349.86 484.13 350.15 485.56 350.64 486.87 C 349.25 487.39 347.86 488.14 346.33 487.89 C 339.17 487.47 331.98 488.00 324.83 487.32 C 324.67 484.44 324.92 481.55 325.60 478.75 C 328.13 478.06 330.51 476.93 332.57 475.30 C 332.67 473.05 333.16 470.86 333.55 468.67 C 331.90 465.87 327.30 466.94 325.63 464.06 C 326.26 452.78 327.55 441.52 329.14 430.34 C 331.56 402.72 337.38 375.53 341.04 348.09 C 338.88 331.58 335.64 315.23 333.19 298.77 C 331.75 290.61 330.77 282.35 328.32 274.41 C 323.01 273.86 318.50 270.79 314.35 267.66 C 311.21 265.58 311.00 261.50 310.04 258.20 C 308.15 251.39 309.80 244.26 308.95 237.37 C 306.98 234.92 304.92 232.47 302.44 230.53 C 300.02 229.47 297.40 228.96 294.87 228.21 C 293.17 225.63 290.99 223.32 289.75 220.46 C 289.02 216.84 288.96 213.12 288.48 209.46 C 284.75 207.37 282.72 203.54 281.38 199.64 C 274.87 181.63 267.51 163.94 260.49 146.12 C 270.22 124.88 279.30 103.36 289.16 82.18 C 291.70 76.25 294.62 70.47 296.92 64.44 C 307.24 65.21 317.58 65.94 327.91 66.72 C 332.20 67.23 336.58 67.89 340.87 67.07 C 344.61 65.66 346.61 61.67 347.37 57.99 C 346.96 55.11 344.72 53.07 343.34 50.65 C 342.72 47.24 343.30 43.74 343.39 40.31 C 344.63 40.36 345.89 40.40 347.14 40.45 C 347.90 33.91 349.10 26.89 353.91 22.01 Z" />
<path fill="#3e3e3e" opacity="1.00" d=" M 137.15 30.27 C 142.45 29.50 147.97 28.27 153.26 29.66 C 157.19 30.95 158.58 35.88 157.34 39.51 C 155.97 41.01 153.48 40.80 151.58 41.26 C 147.49 42.20 144.84 38.39 141.76 36.48 C 139.57 38.21 137.29 40.20 137.18 43.22 C 134.75 44.90 130.13 45.38 129.02 41.95 C 126.54 36.45 131.86 30.85 137.15 30.27 Z" />
<path fill="#3e3e3e" opacity="1.00" d=" M 353.57 31.54 C 356.69 28.23 361.80 29.04 365.89 29.32 C 370.27 30.11 375.51 29.68 378.67 33.42 C 381.33 35.53 381.95 39.30 380.46 42.29 C 379.75 44.78 376.78 44.29 374.81 44.60 C 374.30 44.23 373.28 43.49 372.77 43.12 C 372.04 40.36 370.37 38.11 368.01 36.53 C 365.83 37.85 363.92 39.55 361.80 40.95 C 359.12 41.92 356.24 40.72 353.50 40.56 C 350.36 38.36 351.97 34.20 353.57 31.54 Z" />
<path fill="#3e3e3e" opacity="1.00" d=" M 145.07 49.25 C 147.89 49.39 150.65 47.28 153.42 48.42 C 156.35 51.39 157.88 57.33 154.17 60.35 C 151.34 62.16 147.80 60.83 144.72 61.68 C 142.87 62.34 141.23 63.46 139.57 64.47 C 135.05 62.21 134.83 56.33 135.97 52.04 C 137.58 48.61 142.01 49.53 145.07 49.25 Z" />
<path fill="#3e3e3e" opacity="1.00" d=" M 354.15 58.80 C 352.43 54.95 353.88 49.39 357.84 47.49 C 360.27 47.88 362.40 49.56 364.96 49.27 C 367.83 49.18 370.72 49.46 373.35 50.69 C 374.84 55.41 375.11 61.68 370.24 64.56 C 367.74 63.04 365.17 61.07 362.06 61.39 C 359.33 61.27 355.53 61.88 354.15 58.80 Z" />
<path fill="#f5e5c1" opacity="1.00" d=" M 163.13 62.30 C 163.64 62.37 164.65 62.49 165.15 62.56 C 165.62 63.41 166.09 64.27 166.58 65.12 L 166.01 66.18 C 163.79 70.43 160.25 73.82 158.13 78.14 C 155.54 82.42 154.43 87.38 151.83 91.65 C 150.13 87.87 149.55 83.72 149.52 79.61 C 150.45 78.24 152.13 76.91 151.37 75.06 C 150.67 73.80 149.79 72.66 148.98 71.49 C 153.84 68.66 158.66 65.73 163.13 62.30 Z" />
<path fill="#f4722b" opacity="1.00" d=" M 183.20 66.80 C 192.95 66.01 202.71 65.36 212.46 64.43 C 224.39 90.63 235.97 116.98 247.82 143.22 C 248.35 144.57 249.16 146.06 248.55 147.55 C 241.34 166.12 233.86 184.59 226.53 203.12 C 223.45 193.40 214.39 185.61 203.95 185.65 C 199.81 185.00 195.43 186.86 193.64 190.76 C 193.89 191.28 194.40 192.31 194.65 192.82 C 199.78 189.77 206.16 189.26 211.77 191.18 C 218.08 194.13 220.34 201.26 225.09 205.87 C 224.00 206.21 222.91 206.56 221.89 207.07 C 220.39 211.28 221.00 215.87 220.10 220.20 C 218.82 223.10 216.62 225.45 214.97 228.13 C 211.72 229.40 207.58 229.28 205.25 232.23 C 203.62 234.02 202.05 235.87 200.43 237.67 C 200.45 243.03 200.92 248.41 200.50 253.75 C 199.64 257.62 198.79 261.57 197.05 265.16 C 196.58 266.37 195.23 266.62 194.18 267.11 C 189.84 268.69 185.54 270.42 181.18 271.93 C 184.15 261.73 187.14 251.54 189.24 241.12 C 191.85 245.24 193.31 250.01 196.44 253.81 C 196.72 255.27 196.95 256.74 197.12 258.23 C 197.58 255.36 197.09 252.57 194.78 250.61 C 193.64 242.23 186.91 236.26 181.87 229.98 C 184.49 234.04 188.99 238.21 187.64 243.50 C 184.40 255.72 180.43 267.80 178.60 280.35 C 176.25 300.63 172.66 320.74 169.67 340.93 C 169.32 343.95 168.24 346.96 168.74 350.03 C 171.94 369.58 175.16 389.13 178.11 408.71 C 179.93 426.89 182.04 445.06 183.61 463.25 C 179.12 464.37 174.62 465.44 170.05 466.13 C 165.10 466.94 159.99 466.11 155.14 467.55 C 156.69 472.96 156.09 479.23 159.57 483.89 C 156.65 486.93 151.89 485.73 148.10 486.26 C 147.69 484.86 147.29 483.47 146.89 482.08 C 141.57 482.06 135.81 480.13 130.87 482.88 C 127.84 484.21 124.92 485.83 121.74 486.79 C 106.83 486.70 91.85 484.94 76.90 485.18 C 76.71 484.49 76.32 483.09 76.12 482.39 C 81.72 481.01 87.63 481.92 93.14 480.10 C 100.97 477.74 108.71 475.13 116.54 472.78 C 121.32 471.47 124.48 466.81 129.51 466.19 C 132.88 465.78 136.21 465.07 139.39 463.85 C 135.67 463.81 131.95 463.83 128.24 463.94 C 125.50 433.05 122.74 402.16 120.09 371.28 C 117.80 358.37 111.02 346.31 111.57 332.94 C 111.17 314.45 108.99 296.09 106.90 277.73 C 106.30 271.75 105.96 265.69 104.19 259.91 C 102.02 253.04 104.67 246.01 105.14 239.10 C 105.34 236.38 105.32 233.66 105.47 230.95 C 105.61 225.98 107.86 221.45 108.87 216.65 C 104.62 223.30 103.75 231.44 105.14 239.10 C 102.78 234.24 102.57 228.73 102.40 223.43 C 97.96 228.02 94.08 233.11 89.60 237.66 C 88.76 238.74 87.29 238.64 86.10 238.94 C 86.73 234.62 88.10 230.06 86.32 225.82 C 84.32 220.56 82.16 214.95 77.74 211.23 C 76.52 209.98 73.99 209.84 73.51 211.87 C 73.72 213.82 75.30 215.23 76.33 216.80 C 79.33 220.51 81.31 224.97 82.35 229.62 C 82.98 232.64 82.21 235.90 83.52 238.78 C 79.62 240.69 75.60 243.84 71.04 242.03 C 68.10 237.13 61.23 237.49 57.36 233.70 C 54.82 230.29 52.78 226.53 50.39 223.02 C 51.60 219.87 54.61 218.15 57.02 216.01 C 59.98 213.60 62.77 210.96 65.86 208.70 C 67.09 207.62 68.65 208.88 70.00 209.04 C 81.04 199.25 91.63 188.97 102.63 179.13 C 102.63 163.05 101.24 147.02 101.28 130.93 C 100.76 122.12 100.22 113.28 100.42 104.46 C 101.51 103.17 103.10 102.46 104.52 101.60 C 111.85 97.55 119.21 93.53 126.57 89.53 C 129.95 87.81 131.46 84.09 133.86 81.34 C 135.44 86.32 135.89 91.95 139.17 96.19 C 139.04 99.90 139.18 103.63 139.76 107.30 C 140.75 113.21 140.89 119.32 143.01 125.00 C 141.83 129.11 140.46 133.17 139.02 137.21 C 141.54 131.92 143.51 126.38 146.07 121.11 C 151.13 112.16 150.42 101.51 151.83 91.65 C 154.43 87.38 155.54 82.42 158.13 78.14 C 160.25 73.82 163.79 70.43 166.01 66.18 C 171.50 68.40 177.50 67.36 183.20 66.80 Z" />
<path fill="#f5e5c1" opacity="1.00" d=" M 133.78 81.01 C 134.70 78.25 133.40 72.70 137.62 72.60 C 138.97 72.61 140.31 72.66 141.67 72.62 C 141.27 74.03 140.88 75.44 140.50 76.86 C 141.49 78.39 143.45 79.85 142.45 81.90 C 141.05 86.59 139.35 91.24 139.17 96.19 C 135.89 91.95 135.44 86.32 133.86 81.34 L 133.78 81.01 Z" />
<path fill="#3e3e3e" opacity="1.00" d=" M 141.67 72.62 C 144.11 72.29 146.53 71.83 148.98 71.49 C 149.79 72.66 150.67 73.80 151.37 75.06 C 152.13 76.91 150.45 78.24 149.52 79.61 C 149.55 83.72 150.13 87.87 151.83 91.65 C 150.42 101.51 151.13 112.16 146.07 121.11 C 143.51 126.38 141.54 131.92 139.02 137.21 C 140.46 133.17 141.83 129.11 143.01 125.00 C 144.61 119.17 148.76 114.21 149.04 108.04 C 146.41 108.45 143.78 108.90 141.16 109.38 C 142.11 114.54 142.64 119.76 143.01 125.00 C 140.89 119.32 140.75 113.21 139.76 107.30 C 139.18 103.63 139.04 99.90 139.17 96.19 C 139.35 91.24 141.05 86.59 142.45 81.90 C 143.45 79.85 141.49 78.39 140.50 76.86 C 140.88 75.44 141.27 74.03 141.67 72.62 Z" />
<path fill="#3e3e3e" opacity="1.00" d=" M 353.90 73.78 C 356.12 74.06 358.36 74.34 360.59 74.58 C 360.27 80.10 361.09 85.80 359.19 91.12 C 358.11 85.13 354.98 79.77 353.90 73.78 Z" />
<path fill="#f4722b" opacity="1.00" d=" M 141.16 109.38 C 143.78 108.90 146.41 108.45 149.04 108.04 C 148.76 114.21 144.61 119.17 143.01 125.00 C 142.64 119.76 142.11 114.54 141.16 109.38 Z" />
<path fill="#3e3e3e" opacity="1.00" d=" M 364.16 110.33 C 365.76 110.35 367.36 110.38 368.96 110.40 C 368.08 114.66 369.73 119.80 366.81 123.33 C 365.68 119.05 364.85 114.70 364.16 110.33 Z" />
<path fill="#f4722b" opacity="1.00" d=" M 301.01 119.03 C 302.38 116.25 303.88 113.39 306.68 111.79 C 306.00 115.18 302.64 117.42 302.30 120.90 C 303.03 124.07 304.63 127.03 304.81 130.34 C 307.78 146.56 310.81 162.79 313.05 179.12 C 315.45 183.78 319.71 187.61 320.21 193.15 C 319.65 194.79 319.11 196.43 318.56 198.07 C 321.69 202.48 323.94 207.43 325.37 212.63 C 325.84 214.96 327.84 217.25 326.79 219.65 C 325.02 219.91 323.24 219.75 321.48 219.69 C 318.21 217.28 315.30 214.42 312.61 211.40 C 312.50 210.86 312.28 209.77 312.17 209.22 C 315.89 210.74 318.44 214.10 319.64 217.85 C 321.32 217.80 322.99 217.71 324.67 217.57 C 323.67 210.06 318.64 204.14 316.61 196.99 C 317.06 195.27 318.24 193.44 317.41 191.65 C 316.05 187.97 312.41 185.95 310.27 182.80 C 305.33 177.08 301.94 170.29 298.10 163.84 C 294.41 158.00 291.16 151.90 287.83 145.86 C 288.42 138.82 291.83 132.24 295.11 126.05 C 296.34 123.09 299.74 121.94 301.01 119.03 Z" />
<path fill="#3e3e3e" opacity="1.00" d=" M 203.34 114.37 C 206.41 118.24 209.28 122.36 210.74 127.14 C 212.61 133.04 215.62 138.45 218.18 144.07 C 215.00 149.52 211.40 154.71 208.18 160.13 C 206.58 163.21 205.47 166.56 203.34 169.35 C 202.66 169.40 201.98 169.46 201.30 169.52 C 202.33 167.56 203.21 165.51 203.50 163.30 C 205.39 152.19 207.10 141.04 208.84 129.90 C 210.08 124.01 206.28 119.04 203.34 114.37 Z" />
<path fill="#3e3e3e" opacity="1.00" d=" M 398.03 140.11 C 400.69 133.80 402.27 127.14 404.42 120.66 C 404.02 129.78 404.78 138.91 404.47 148.04 C 404.71 152.94 403.96 157.84 404.47 162.72 C 403.99 169.78 404.06 177.49 408.56 183.39 C 413.71 189.58 419.18 195.50 424.54 201.51 C 425.24 201.52 426.63 201.55 427.33 201.56 C 430.74 204.91 433.79 208.78 438.15 210.97 C 436.56 212.30 435.09 213.77 433.93 215.49 C 436.98 215.76 439.45 213.90 441.95 212.47 C 446.44 215.34 451.26 217.88 454.87 221.90 C 451.40 229.93 443.56 234.89 435.97 238.54 C 431.27 235.12 425.05 235.67 419.93 233.06 C 417.70 227.31 412.12 224.18 408.04 219.92 C 406.39 218.40 406.76 215.96 406.44 213.96 C 406.02 207.29 404.22 200.75 404.40 194.04 C 404.45 192.65 404.19 191.28 403.85 189.94 C 402.66 186.12 402.28 182.22 402.99 178.26 L 401.53 178.36 C 399.87 170.49 398.10 162.65 396.17 154.85 C 396.08 149.91 395.83 144.68 398.03 140.11 Z" />
<path fill="#3e3e3e" opacity="1.00" d=" M 293.95 140.98 C 295.73 136.89 298.09 133.09 300.23 129.18 C 302.58 142.82 304.75 156.47 307.49 170.03 C 304.18 165.89 302.36 160.84 299.56 156.37 C 297.59 153.00 295.20 149.86 293.52 146.33 C 292.66 144.60 293.23 142.63 293.95 140.98 Z" />
<path fill="#f5e5c1" opacity="1.00" d=" M 25.00 174.93 C 30.31 178.45 35.72 182.20 39.34 187.56 C 45.39 195.63 52.78 202.53 59.51 210.00 C 60.91 212.45 58.11 213.72 56.05 213.60 C 53.84 210.65 51.21 208.05 49.06 205.06 C 41.30 194.82 31.85 185.84 25.00 174.93 Z" />
<path fill="#f4722b" opacity="1.00" d=" M 476.21 180.09 C 477.21 179.08 478.67 179.42 479.95 179.35 C 475.33 187.09 469.42 193.96 464.38 201.44 C 461.81 204.89 459.54 208.58 456.70 211.82 C 454.94 212.22 453.71 210.56 452.32 209.83 C 456.84 204.12 460.64 197.87 465.35 192.31 C 468.76 188.06 471.62 183.23 476.21 180.09 Z" />
<path fill="#f4722b" opacity="1.00" d=" M 377.04 185.93 C 378.02 184.02 379.00 182.09 380.40 180.45 C 380.31 181.63 380.50 182.92 379.93 184.02 C 377.51 189.30 373.26 193.52 368.61 196.89 C 371.45 193.27 374.92 190.08 377.04 185.93 Z" />
<path fill="#f5e5c1" opacity="1.00" d=" M 193.64 190.76 C 195.43 186.86 199.81 185.00 203.95 185.65 C 214.39 185.61 223.45 193.40 226.53 203.12 C 226.17 203.81 225.45 205.18 225.09 205.87 C 220.34 201.26 218.08 194.13 211.77 191.18 C 206.16 189.26 199.78 189.77 194.65 192.82 C 194.40 192.31 193.89 191.28 193.64 190.76 Z" />
<path fill="#3e3e3e" opacity="1.00" d=" M 132.06 187.12 C 134.13 190.27 136.78 192.96 139.14 195.87 C 142.97 200.60 148.50 203.38 153.24 207.04 C 149.08 204.79 144.18 203.69 140.81 200.18 C 137.08 196.48 133.66 192.19 132.06 187.12 Z" />
<path fill="#f4722b" opacity="1.00" d=" M 388.90 203.14 C 385.42 198.60 378.73 194.88 379.49 188.37 C 382.37 193.66 386.32 198.26 390.13 202.88 C 394.51 206.39 397.11 211.36 400.16 215.95 C 395.75 212.28 392.16 207.83 388.90 203.14 Z" />
<path fill="#f4722b" opacity="1.00" d=" M 355.35 207.33 C 359.12 204.73 362.80 201.90 367.04 200.10 C 357.23 207.84 346.20 213.95 336.86 222.29 C 342.01 216.14 348.89 211.93 355.35 207.33 Z" />
<path fill="#f5e5c1" opacity="1.00" d=" M 232.38 205.95 C 234.25 205.93 236.11 205.92 237.98 205.89 C 241.23 210.81 244.46 215.74 247.55 220.76 C 247.84 221.31 248.12 221.87 248.39 222.44 C 250.34 224.95 252.12 227.58 253.77 230.30 C 267.20 251.21 280.74 272.06 294.13 292.99 C 296.01 295.34 294.86 298.26 293.34 300.44 C 277.97 324.57 262.99 348.94 247.53 373.01 L 247.36 373.50 C 244.40 378.23 241.37 382.93 238.49 387.72 C 236.45 387.72 234.41 387.72 232.37 387.74 C 232.36 327.14 232.33 266.55 232.38 205.95 Z" />
<path fill="#b3a992" opacity="1.00" d=" M 248.36 206.03 C 250.23 205.97 252.10 205.92 253.97 205.87 C 256.56 209.77 259.13 213.68 261.52 217.69 C 276.95 242.38 293.12 266.60 309.17 290.89 C 310.47 292.89 311.80 295.32 310.87 297.77 C 309.29 301.65 306.54 304.91 304.43 308.51 C 290.32 331.04 275.61 353.20 261.69 375.85 L 261.56 376.10 C 259.40 380.08 256.77 383.78 254.51 387.70 C 252.46 387.71 250.41 387.72 248.37 387.73 C 247.82 383.04 249.53 377.77 247.36 373.50 L 247.53 373.01 C 262.99 348.94 277.97 324.57 293.34 300.44 C 294.86 298.26 296.01 295.34 294.13 292.99 C 280.74 272.06 267.20 251.21 253.77 230.30 C 252.12 227.58 250.34 224.95 248.39 222.44 C 248.12 221.87 247.84 221.31 247.55 220.76 C 249.28 216.09 247.95 210.91 248.36 206.03 Z" />
<path fill="#8d8677" opacity="1.00" d=" M 261.99 205.80 C 264.21 205.79 266.43 205.83 268.66 205.93 C 286.07 233.56 304.00 260.87 321.62 288.38 C 323.47 291.42 326.93 294.87 324.78 298.66 C 306.18 328.49 287.30 358.16 268.72 388.01 C 266.47 388.00 264.23 388.00 261.99 388.01 C 262.03 384.03 262.10 380.05 261.56 376.10 L 261.69 375.85 C 275.61 353.20 290.32 331.04 304.43 308.51 C 306.54 304.91 309.29 301.65 310.87 297.77 C 311.80 295.32 310.47 292.89 309.17 290.89 C 293.12 266.60 276.95 242.38 261.52 217.69 C 262.25 213.77 261.96 209.77 261.99 205.80 Z" />
<path fill="#f5e5c1" opacity="1.00" d=" M 73.51 211.87 C 73.99 209.84 76.52 209.98 77.74 211.23 C 82.16 214.95 84.32 220.56 86.32 225.82 C 88.10 230.06 86.73 234.62 86.10 238.94 C 85.46 238.90 84.17 238.82 83.52 238.78 C 82.21 235.90 82.98 232.64 82.35 229.62 C 81.31 224.97 79.33 220.51 76.33 216.80 C 75.30 215.23 73.72 213.82 73.51 211.87 Z" />
<path fill="#3e3e3e" opacity="1.00" d=" M 108.87 216.65 C 107.86 221.45 105.61 225.98 105.47 230.95 C 105.32 233.66 105.34 236.38 105.14 239.10 C 103.75 231.44 104.62 223.30 108.87 216.65 Z" />
<path fill="#f4722b" opacity="1.00" d=" M 318.05 249.16 C 321.49 238.40 331.25 231.73 336.86 222.29 C 334.26 227.88 329.69 232.11 325.85 236.82 C 322.39 240.34 320.25 244.82 318.05 249.16 Z" />
<path fill="#f5e5c1" opacity="1.00" d=" M 209.88 240.01 C 213.57 237.03 217.44 233.06 222.66 234.22 C 222.88 277.23 222.61 320.25 222.80 363.27 C 208.33 363.69 193.83 362.97 179.34 363.35 C 177.91 355.67 178.11 347.73 178.60 339.97 C 183.49 318.41 190.10 297.29 195.99 276.01 C 198.70 272.93 203.94 272.67 205.76 268.75 C 207.80 259.28 208.52 249.57 209.88 240.01 Z" />
<path fill="#f4722b" opacity="1.00" d=" M 368.89 239.01 C 369.19 236.69 370.00 234.48 371.04 232.39 C 372.96 251.70 366.53 270.79 368.69 290.11 C 368.94 288.31 369.18 286.52 369.40 284.73 C 369.59 287.96 370.03 291.16 370.67 294.33 C 371.60 298.83 371.34 303.48 372.16 308.00 C 375.04 320.25 374.44 332.97 377.10 345.27 C 377.43 347.40 378.22 349.88 376.85 351.81 C 374.81 354.78 372.27 357.42 370.68 360.69 C 367.09 368.17 363.18 375.55 360.56 383.45 C 359.33 392.66 361.96 401.78 361.76 411.00 C 362.81 419.61 362.46 428.29 362.87 436.94 C 363.82 443.86 362.73 450.82 362.36 457.75 C 361.17 454.29 361.81 450.54 360.88 447.02 C 359.74 440.71 359.49 434.32 358.72 427.97 C 358.96 423.65 359.65 419.33 359.18 415.00 C 357.98 406.53 358.20 397.95 358.22 389.41 C 357.39 389.54 356.57 389.67 355.76 389.80 C 356.86 373.48 359.67 357.26 359.67 340.86 C 360.55 319.19 363.25 297.64 364.93 276.02 C 366.28 263.68 366.96 251.27 368.89 239.01 Z" />
<path fill="#3e3e3e" opacity="1.00" d=" M 137.97 244.86 C 137.77 243.42 137.89 241.97 137.93 240.53 C 138.08 245.42 139.64 250.17 139.36 255.09 C 138.98 260.18 140.88 265.04 140.67 270.13 C 142.06 277.13 141.10 284.30 142.52 291.29 C 143.65 311.69 145.67 332.03 148.00 352.33 C 148.81 362.02 149.19 371.73 149.95 381.41 C 146.94 374.93 146.35 367.59 144.25 360.78 C 143.48 356.79 139.72 354.54 137.89 351.12 C 137.04 343.98 136.94 336.71 138.16 329.60 C 139.37 318.74 140.48 307.86 141.90 297.03 C 140.95 287.94 139.59 278.87 139.45 269.71 C 137.91 261.48 139.71 253.05 137.97 244.86 Z" />
<path fill="#3e3e3e" opacity="1.00" d=" M 366.25 305.09 C 367.01 299.42 366.11 293.61 367.38 288.00 C 368.49 303.93 370.40 319.78 372.28 335.64 C 372.96 340.67 372.47 345.79 371.67 350.78 C 370.35 354.13 366.85 356.20 365.75 359.72 C 364.31 364.21 361.97 368.35 360.73 372.91 C 359.98 366.59 361.51 360.34 361.52 354.02 C 362.94 342.01 363.84 329.95 365.35 317.96 C 365.69 313.67 365.59 309.35 366.25 305.09 Z" />
<path fill="#f4722b" opacity="1.00" d=" M 159.71 483.09 C 159.91 477.85 157.83 472.81 158.35 467.57 C 162.93 467.82 167.51 467.64 172.08 467.73 C 174.37 467.52 174.58 470.19 175.30 471.71 C 176.22 475.77 180.47 477.36 183.36 479.81 C 184.10 482.25 184.52 484.76 184.66 487.30 C 176.89 487.43 169.11 487.56 161.34 487.57 C 159.43 487.02 160.03 484.58 159.71 483.09 Z" />
</svg>
