<?xml version="1.0" encoding="UTF-8" ?>
<!DOCTYPE svg PUBLIC "-//W3C//DTD SVG 1.1//EN" "http://www.w3.org/Graphics/SVG/1.1/DTD/svg11.dtd">
<svg width="512pt" height="512pt" viewBox="0 0 512 512" version="1.1" xmlns="http://www.w3.org/2000/svg">
<path fill="#3e3e3e" opacity="1.00" d=" M 0.00 0.00 L 512.00 0.00 L 512.00 512.00 L 447.35 512.00 C 451.57 507.02 455.98 502.21 460.76 497.77 C 466.02 492.90 470.56 487.26 476.36 482.98 C 476.11 478.01 476.00 472.92 477.56 468.12 C 483.34 449.36 482.22 429.38 480.38 410.09 C 479.89 402.74 477.71 395.69 476.20 388.52 C 478.21 387.25 481.09 385.87 480.54 382.97 C 480.53 379.62 476.84 378.57 474.40 377.32 C 475.30 373.18 476.24 369.04 476.66 364.82 C 480.04 363.06 483.37 360.64 484.69 356.90 C 487.03 350.93 484.22 344.74 482.91 338.89 C 481.34 333.29 481.71 327.38 480.36 321.74 C 478.41 311.44 473.66 302.00 469.49 292.47 C 466.13 284.70 468.18 275.25 462.84 268.23 C 459.87 263.94 454.50 262.45 449.53 262.60 C 447.08 247.32 444.84 232.00 441.43 216.90 C 439.13 204.92 436.96 192.92 434.60 180.95 C 431.74 165.32 429.46 149.59 426.38 134.00 C 425.19 128.64 425.19 123.00 423.22 117.82 C 420.23 110.56 416.84 103.43 414.57 95.90 C 414.51 100.58 414.77 105.27 414.41 109.94 C 413.03 122.34 411.57 134.81 408.12 146.84 C 407.20 150.00 405.30 152.76 404.30 155.88 C 403.96 159.31 404.94 162.69 405.40 166.07 C 409.76 194.93 412.44 224.00 416.54 252.89 C 416.82 257.29 417.54 261.65 418.49 265.95 C 412.99 273.89 410.02 283.18 406.11 291.93 C 403.22 299.15 398.95 305.73 396.25 313.04 C 397.03 313.92 397.82 314.81 398.61 315.70 C 394.20 320.85 389.33 326.20 387.73 332.98 C 386.67 337.23 388.47 341.40 390.69 344.94 C 390.41 348.81 389.73 353.23 392.49 356.45 C 395.33 360.55 400.49 361.93 405.25 361.66 C 406.33 366.34 410.14 370.08 409.63 375.18 C 403.20 376.08 396.62 376.56 390.38 378.46 C 388.18 380.26 386.90 382.92 385.19 385.16 C 382.14 389.72 378.24 393.63 375.08 398.11 C 369.43 405.99 362.34 412.64 355.91 419.86 C 347.03 428.00 338.43 436.46 330.11 445.19 C 327.56 448.06 324.98 450.93 321.94 453.31 C 296.13 420.35 270.76 387.03 245.11 353.94 C 242.40 350.62 240.23 346.71 236.60 344.27 C 216.67 330.26 196.82 316.14 176.91 302.09 C 157.78 288.37 137.99 275.48 120.28 259.90 C 122.95 255.08 125.29 250.00 128.73 245.68 C 132.09 243.51 137.06 241.24 140.51 244.48 C 145.48 248.88 150.85 252.79 155.83 257.17 C 158.63 259.75 162.63 260.11 165.66 262.30 C 169.52 264.94 173.51 267.79 175.58 272.14 C 178.24 278.90 188.74 279.25 192.83 273.78 C 194.37 272.00 196.27 270.57 197.77 268.76 C 199.59 265.72 199.88 261.92 202.13 259.11 C 205.36 255.77 209.79 254.06 213.84 251.94 C 222.88 246.40 230.75 237.68 232.78 227.03 C 229.14 232.22 225.61 237.92 219.75 240.87 C 215.57 243.73 210.45 244.18 205.56 244.57 C 203.91 239.54 206.00 233.99 203.98 229.05 C 200.99 223.92 194.10 224.20 188.95 224.40 C 184.06 224.25 179.95 228.16 175.00 227.15 C 167.80 226.24 160.44 224.72 154.18 220.89 C 150.02 218.45 145.37 216.61 142.05 212.99 C 136.99 207.59 131.32 202.21 129.00 194.98 C 127.14 189.01 126.52 182.13 129.52 176.42 C 131.55 172.48 133.53 167.66 138.14 166.21 C 142.86 164.63 147.82 163.11 152.84 163.32 C 159.51 166.07 166.12 169.08 172.37 172.71 C 175.26 174.33 178.63 174.84 181.48 176.53 C 187.36 180.44 193.77 183.45 199.69 187.29 C 205.72 191.18 213.19 191.84 219.17 195.81 C 225.61 199.94 232.84 202.59 240.14 204.74 C 245.50 207.61 251.69 207.73 257.41 209.50 C 267.48 212.33 277.99 215.35 288.52 213.25 C 291.23 212.16 292.39 208.79 290.84 206.28 C 285.94 196.19 275.11 191.36 265.78 186.26 C 264.58 181.30 265.72 176.13 265.63 171.09 C 265.51 160.40 266.07 149.67 264.87 139.02 C 264.29 126.68 263.44 114.36 263.05 102.02 C 262.09 90.01 262.61 77.90 264.16 65.98 C 264.20 63.84 262.86 62.00 261.48 60.50 C 255.19 54.20 246.92 50.63 239.12 46.61 C 233.41 43.43 227.01 41.98 220.84 40.00 C 211.17 35.78 200.39 34.74 189.94 35.38 C 180.60 35.65 171.80 39.39 163.66 43.69 C 155.13 48.17 149.22 55.98 142.87 62.95 C 138.39 67.78 136.26 74.13 132.51 79.45 C 130.56 82.29 128.86 85.29 127.34 88.39 C 124.14 95.19 118.74 100.61 115.22 107.23 C 114.11 108.60 113.37 111.23 111.16 110.85 C 105.89 110.22 101.02 107.96 95.95 106.56 C 93.03 106.05 90.53 109.22 91.41 112.00 C 92.80 118.10 93.56 124.69 97.09 130.00 C 100.91 131.68 105.06 132.50 109.20 132.92 C 109.19 133.76 109.18 135.44 109.17 136.28 C 102.15 135.71 94.71 136.55 88.96 140.93 C 87.37 142.47 86.30 144.44 85.39 146.42 C 81.80 154.95 79.37 164.06 79.50 173.38 C 79.01 172.06 78.51 170.75 78.02 169.44 C 76.14 169.94 74.31 170.64 72.69 171.73 C 59.94 179.61 47.41 187.86 34.46 195.41 C 23.22 203.20 11.44 210.16 0.00 217.65 L 0.00 0.00 Z" />
<path fill="#f3722b" opacity="1.00" d=" M 163.66 43.69 C 171.80 39.39 180.60 35.65 189.94 35.38 C 200.39 34.74 211.17 35.78 220.84 40.00 C 227.01 41.98 233.41 43.43 239.12 46.61 C 246.92 50.63 255.19 54.20 261.48 60.50 C 262.86 62.00 264.20 63.84 264.16 65.98 C 262.61 77.90 262.09 90.01 263.05 102.02 C 263.44 114.36 264.29 126.68 264.87 139.02 C 266.07 149.67 265.51 160.40 265.63 171.09 C 265.72 176.13 264.58 181.30 265.78 186.26 C 275.11 191.36 285.94 196.19 290.84 206.28 C 292.39 208.79 291.23 212.16 288.52 213.25 C 277.99 215.35 267.48 212.33 257.41 209.50 C 251.69 207.73 245.50 207.61 240.14 204.74 C 232.84 202.59 225.61 199.94 219.17 195.81 C 213.19 191.84 205.72 191.18 199.69 187.29 C 193.77 183.45 187.36 180.44 181.48 176.53 C 178.63 174.84 175.26 174.33 172.37 172.71 C 166.12 169.08 159.51 166.07 152.84 163.32 C 147.82 163.11 142.86 164.63 138.14 166.21 C 133.53 167.66 131.55 172.48 129.52 176.42 C 126.52 182.13 127.14 189.01 129.00 194.98 C 131.32 202.21 136.99 207.59 142.05 212.99 C 145.37 216.61 150.02 218.45 154.18 220.89 C 160.44 224.72 167.80 226.24 175.00 227.15 C 179.95 228.16 184.06 224.25 188.95 224.40 C 194.10 224.20 200.99 223.92 203.98 229.05 C 206.00 233.99 203.91 239.54 205.56 244.57 C 210.45 244.18 215.57 243.73 219.75 240.87 C 225.61 237.92 229.14 232.22 232.78 227.03 C 230.75 237.68 222.88 246.40 213.84 251.94 C 209.79 254.06 205.36 255.77 202.13 259.11 C 199.88 261.92 199.59 265.72 197.77 268.76 C 196.27 270.57 194.37 272.00 192.83 273.78 C 188.74 279.25 178.24 278.90 175.58 272.14 C 173.51 267.79 169.52 264.94 165.66 262.30 C 162.63 260.11 158.63 259.75 155.83 257.17 C 150.85 252.79 145.48 248.88 140.51 244.48 C 137.06 241.24 132.09 243.51 128.73 245.68 C 125.29 250.00 122.95 255.08 120.28 259.90 C 137.99 275.48 157.78 288.37 176.91 302.09 C 196.82 316.14 216.67 330.26 236.60 344.27 C 240.23 346.71 242.40 350.62 245.11 353.94 C 270.76 387.03 296.13 420.35 321.94 453.31 C 324.98 450.93 327.56 448.06 330.11 445.19 C 338.43 436.46 347.03 428.00 355.91 419.86 C 362.34 412.64 369.43 405.99 375.08 398.11 C 378.24 393.63 382.14 389.72 385.19 385.16 C 386.90 382.92 388.18 380.26 390.38 378.46 C 396.62 376.56 403.20 376.08 409.63 375.18 C 410.14 370.08 406.33 366.34 405.25 361.66 C 400.49 361.93 395.33 360.55 392.49 356.45 C 389.73 353.23 390.41 348.81 390.69 344.94 C 388.47 341.40 386.67 337.23 387.73 332.98 C 389.33 326.20 394.20 320.85 398.61 315.70 C 397.82 314.81 397.03 313.92 396.25 313.04 C 398.95 305.73 403.22 299.15 406.11 291.93 C 410.02 283.18 412.99 273.89 418.49 265.95 C 417.54 261.65 416.82 257.29 416.54 252.89 C 417.63 258.84 418.01 265.85 423.25 269.83 C 426.84 272.91 431.80 272.42 436.19 272.28 C 439.61 268.90 443.50 266.07 447.46 263.36 C 446.41 247.76 443.64 232.36 441.43 216.90 C 444.84 232.00 447.08 247.32 449.53 262.60 C 454.50 262.45 459.87 263.94 462.84 268.23 C 468.18 275.25 466.13 284.70 469.49 292.47 C 473.66 302.00 478.41 311.44 480.36 321.74 C 481.71 327.38 481.34 333.29 482.91 338.89 C 484.22 344.74 487.03 350.93 484.69 356.90 C 483.37 360.64 480.04 363.06 476.66 364.82 C 476.24 369.04 475.30 373.18 474.40 377.32 C 476.84 378.57 480.53 379.62 480.54 382.97 C 481.09 385.87 478.21 387.25 476.20 388.52 C 477.71 395.69 479.89 402.74 480.38 410.09 C 482.22 429.38 483.34 449.36 477.56 468.12 C 476.00 472.92 476.11 478.01 476.36 482.98 C 470.56 487.26 466.02 492.90 460.76 497.77 C 455.98 502.21 451.57 507.02 447.35 512.00 L 0.00 512.00 L 0.00 217.65 C 11.44 210.16 23.22 203.20 34.46 195.41 C 47.41 187.86 59.94 179.61 72.69 171.73 C 74.31 170.64 76.14 169.94 78.02 169.44 C 78.51 170.75 79.01 172.06 79.50 173.38 C 79.37 164.06 81.80 154.95 85.39 146.42 C 86.30 144.44 87.37 142.47 88.96 140.93 C 94.71 136.55 102.15 135.71 109.17 136.28 C 109.18 135.44 109.19 133.76 109.20 132.92 C 105.06 132.50 100.91 131.68 97.09 130.00 C 93.56 124.69 92.80 118.10 91.41 112.00 C 90.53 109.22 93.03 106.05 95.95 106.56 C 101.02 107.96 105.89 110.22 111.16 110.85 C 113.37 111.23 114.11 108.60 115.22 107.23 C 118.74 100.61 124.14 95.19 127.34 88.39 C 128.86 85.29 130.56 82.29 132.51 79.45 C 136.26 74.13 138.39 67.78 142.87 62.95 C 149.22 55.98 155.13 48.17 163.66 43.69 Z" />
<path fill="#f5e5c1" opacity="1.00" d=" M 414.57 95.90 C 416.84 103.43 420.23 110.56 423.22 117.82 C 425.19 123.00 425.19 128.64 426.38 134.00 C 429.46 149.59 431.74 165.32 434.60 180.95 C 436.96 192.92 439.13 204.92 441.43 216.90 C 443.64 232.36 446.41 247.76 447.46 263.36 C 443.50 266.07 439.61 268.90 436.19 272.28 C 431.80 272.42 426.84 272.91 423.25 269.83 C 418.01 265.85 417.63 258.84 416.54 252.89 C 412.44 224.00 409.76 194.93 405.40 166.07 C 404.94 162.69 403.96 159.31 404.30 155.88 C 405.30 152.76 407.20 150.00 408.12 146.84 C 411.57 134.81 413.03 122.34 414.41 109.94 C 414.77 105.27 414.51 100.58 414.57 95.90 Z" />
<path fill="#f5e5c1" opacity="1.00" d=" M 153.64 183.87 C 156.37 186.81 160.42 187.56 163.97 189.07 C 174.18 192.92 184.29 197.06 194.58 200.69 C 184.04 200.66 173.54 199.52 163.01 198.99 C 159.87 193.96 156.64 188.99 153.64 183.87 Z" />
<path fill="#f5e5c1" opacity="1.00" d=" M 219.05 213.26 C 224.05 214.96 229.40 214.84 234.49 216.13 C 232.06 217.85 229.54 219.44 227.00 221.00 C 224.36 218.42 221.85 215.69 219.05 213.26 Z" />
<path fill="#f5e5c1" opacity="1.00" d=" M 196.73 290.60 C 200.12 290.02 203.54 289.67 206.98 289.74 C 220.02 289.89 233.15 289.39 246.10 291.28 C 249.36 291.65 252.73 293.97 252.51 297.59 C 246.02 297.99 239.51 297.54 233.08 296.69 C 220.97 295.87 208.87 295.05 196.78 294.13 C 196.76 293.25 196.74 291.48 196.73 290.60 Z" />
</svg>
