<?xml version="1.0" encoding="UTF-8" ?>
<!DOCTYPE svg PUBLIC "-//W3C//DTD SVG 1.1//EN" "http://www.w3.org/Graphics/SVG/1.1/DTD/svg11.dtd">
<svg width="512pt" height="512pt" viewBox="0 0 512 512" version="1.1" xmlns="http://www.w3.org/2000/svg">
<path fill="#3e3e3e" opacity="1.00" d=" M 0.00 0.00 L 512.00 0.00 L 512.00 512.00 L 99.55 512.00 C 108.22 505.48 117.03 499.14 125.48 492.32 C 137.89 483.94 147.95 472.45 161.06 465.03 C 165.60 462.45 171.14 462.40 175.57 459.56 C 178.70 457.47 181.72 455.00 183.65 451.71 C 184.73 449.88 185.98 448.12 187.70 446.84 C 201.11 458.81 216.26 468.89 232.68 476.26 C 225.97 485.97 217.66 494.59 212.02 505.02 C 216.03 505.09 218.38 501.46 220.96 498.96 C 226.62 492.22 232.26 485.44 237.58 478.42 C 274.52 493.68 316.70 495.84 354.95 484.22 C 392.74 472.94 426.54 448.36 448.48 415.53 C 471.43 382.40 481.68 340.97 477.84 300.92 C 476.18 282.42 471.33 264.25 463.96 247.22 C 455.43 227.68 443.03 209.97 428.28 194.64 C 415.88 182.46 401.79 172.00 386.52 163.68 C 402.15 133.08 418.57 102.87 434.47 72.41 C 438.41 65.59 441.38 58.26 445.45 51.50 C 447.88 48.03 445.39 43.64 443.15 40.80 C 437.39 37.59 431.19 35.17 425.15 32.54 C 423.96 35.26 422.72 37.96 421.51 40.68 C 420.99 40.13 419.96 39.04 419.44 38.49 C 420.42 36.15 421.53 33.87 422.66 31.60 C 417.55 28.71 412.06 26.62 406.77 24.11 C 403.40 22.13 399.81 24.62 396.66 25.82 C 394.05 26.96 391.39 27.95 388.69 28.84 C 387.25 32.19 385.42 35.39 384.43 38.91 C 384.79 41.75 386.10 44.33 387.45 46.81 C 381.55 60.60 376.82 74.87 371.41 88.86 C 363.63 108.76 356.24 128.82 348.82 148.85 C 326.79 143.53 303.80 141.76 281.32 144.97 C 281.77 152.55 281.34 160.13 280.57 167.67 C 286.34 166.98 292.12 166.22 297.95 166.37 C 297.74 176.86 297.93 187.36 297.85 197.86 C 292.75 198.09 287.45 197.14 282.50 198.66 C 278.42 200.31 278.40 206.63 282.45 208.32 C 287.42 209.85 292.74 208.90 297.86 209.14 C 297.84 222.36 297.89 235.58 297.84 248.80 C 274.27 250.92 252.54 266.06 242.35 287.41 C 239.27 287.75 236.07 287.88 233.18 289.09 C 228.62 291.51 225.75 297.38 227.75 302.35 C 229.10 306.02 233.00 307.52 235.81 309.86 C 231.24 310.65 226.63 311.12 222.08 311.96 C 220.11 309.29 218.08 306.54 215.18 304.81 C 212.57 303.07 209.34 302.94 206.32 302.73 C 205.86 300.18 206.01 297.03 203.60 295.40 C 200.87 293.14 196.37 294.78 195.43 298.11 C 194.36 302.39 195.08 306.83 194.82 311.18 C 194.61 311.60 194.20 312.43 193.99 312.85 C 180.06 312.85 166.13 312.87 152.21 312.84 C 152.32 306.37 152.92 299.94 153.70 293.53 C 146.50 294.86 139.09 294.06 131.92 294.75 C 129.91 308.62 129.91 322.83 131.52 336.75 C 128.62 336.84 125.64 337.36 123.44 339.41 C 124.18 333.41 121.54 326.95 116.44 323.58 C 111.71 320.02 105.36 320.64 99.85 321.45 C 93.68 322.19 88.87 326.51 84.57 330.64 C 83.15 332.32 80.79 331.55 78.90 331.69 C 80.20 330.35 84.32 329.20 81.64 327.25 C 79.02 325.20 74.81 326.42 73.44 329.40 C 70.64 333.14 71.60 337.96 70.67 342.26 C 69.74 344.98 71.88 347.46 74.10 348.72 C 76.48 349.34 77.35 346.72 78.43 345.21 C 80.46 344.74 82.54 343.71 84.65 344.11 C 85.36 345.71 85.86 347.39 86.41 349.05 C 83.79 349.95 79.05 350.19 79.26 353.94 C 79.16 356.81 83.09 355.49 84.85 355.35 C 87.01 355.25 87.75 353.10 88.55 351.46 C 91.88 354.25 95.83 356.34 99.99 357.57 C 104.04 357.97 106.81 353.96 110.77 353.51 C 112.13 355.54 113.28 358.38 116.04 358.73 C 118.95 359.43 122.63 358.28 123.41 355.09 C 123.81 351.65 121.79 348.76 120.12 345.98 C 121.74 348.07 122.60 350.75 124.51 352.59 C 127.49 354.09 131.05 353.44 134.27 353.99 C 135.28 359.72 137.02 365.27 138.61 370.86 C 133.93 373.00 129.62 376.04 124.57 377.30 C 119.92 378.49 115.42 380.13 110.95 381.85 C 105.88 383.86 100.36 384.74 95.64 387.61 C 89.08 391.43 81.66 393.40 75.11 397.25 C 68.12 400.34 61.72 404.60 54.61 407.43 C 36.60 415.01 18.12 421.39 0.00 428.72 L 0.00 402.10 C 11.33 396.58 24.26 395.88 35.75 390.79 C 40.32 388.76 44.83 385.52 50.10 386.40 C 53.77 386.95 57.25 385.29 59.50 382.43 C 62.88 381.67 66.86 381.08 68.88 377.89 C 70.39 375.21 71.27 372.11 73.68 370.03 C 72.86 370.61 72.04 371.19 71.22 371.77 C 69.12 366.77 65.34 361.85 59.87 360.46 C 56.32 360.17 51.77 360.22 49.47 363.40 C 48.07 366.53 47.00 369.80 45.86 373.03 C 45.73 375.37 47.51 377.21 48.63 379.10 C 48.01 381.24 47.87 383.73 46.22 385.40 C 44.61 386.34 42.75 386.68 40.95 387.08 C 31.16 388.84 21.78 392.31 11.99 394.05 C 7.81 394.93 3.83 396.59 0.00 398.47 L 0.00 354.02 C 3.84 353.41 7.37 351.73 11.07 350.65 C 17.54 349.03 24.10 347.76 30.43 345.66 C 39.23 342.80 48.48 341.09 56.74 336.77 C 58.42 335.78 60.86 335.13 61.07 332.85 C 58.78 331.31 56.14 333.13 53.94 333.97 C 47.65 337.31 40.55 338.45 33.86 340.71 C 22.67 344.50 10.97 346.60 0.00 351.11 L 0.00 0.00 Z" />
<path fill="#f5e5c1" opacity="1.00" d=" M 126.58 23.78 C 154.07 20.70 182.48 26.64 206.35 40.62 C 230.25 54.40 249.45 76.07 260.33 101.41 C 269.79 123.18 273.05 147.56 269.74 171.05 C 265.57 201.37 250.25 230.03 227.28 250.25 C 205.28 269.85 176.44 281.62 146.99 282.85 C 120.48 284.16 93.66 277.00 71.29 262.74 C 49.21 248.82 31.61 228.01 21.42 203.99 C 11.33 180.50 8.48 153.99 13.26 128.88 C 18.79 99.18 35.08 71.56 58.54 52.50 C 77.80 36.60 101.77 26.55 126.58 23.78 Z" />
<path fill="#f4722b" opacity="1.00" d=" M 396.66 25.82 C 399.81 24.62 403.40 22.13 406.77 24.11 C 412.06 26.62 417.55 28.71 422.66 31.60 C 421.53 33.87 420.42 36.15 419.44 38.49 C 417.04 43.82 414.63 49.14 412.22 54.46 C 397.17 88.03 381.85 121.48 366.92 155.10 C 363.67 162.16 360.48 169.26 357.35 176.38 C 351.48 188.60 346.32 201.15 340.52 213.41 C 339.30 215.97 337.19 218.93 334.01 218.78 C 330.65 217.99 327.66 216.14 324.45 214.91 C 329.24 200.04 335.46 185.69 340.59 170.93 C 343.52 163.64 346.04 156.20 348.82 148.85 C 356.24 128.82 363.63 108.76 371.41 88.86 C 376.82 74.87 381.55 60.60 387.45 46.81 C 390.91 40.02 394.46 33.14 396.66 25.82 Z" />
<path fill="#f5e5c1" opacity="1.00" d=" M 388.69 28.84 C 391.39 27.95 394.05 26.96 396.66 25.82 C 394.46 33.14 390.91 40.02 387.45 46.81 C 386.10 44.33 384.79 41.75 384.43 38.91 C 385.42 35.39 387.25 32.19 388.69 28.84 Z" />
<path fill="#3e3e3e" opacity="1.00" d=" M 403.20 30.09 C 408.46 27.83 414.92 33.21 413.71 38.82 C 413.34 45.40 404.03 48.01 399.97 43.03 C 396.00 39.12 397.92 31.72 403.20 30.09 Z" />
<path fill="#f5e5c1" opacity="1.00" d=" M 400.42 38.74 C 397.63 34.58 406.01 28.65 408.95 33.15 C 405.74 34.45 403.45 37.18 400.42 38.74 Z" />
<path fill="#f4722b" opacity="1.00" d=" M 425.15 32.54 C 431.19 35.17 437.39 37.59 443.15 40.80 C 445.39 43.64 447.88 48.03 445.45 51.50 C 441.38 58.26 438.41 65.59 434.47 72.41 C 418.57 102.87 402.15 133.08 386.52 163.68 C 382.61 170.61 379.09 177.74 375.30 184.74 C 367.77 198.76 360.55 213.00 352.69 226.84 C 349.09 226.56 346.03 224.32 342.71 223.09 C 342.15 221.15 340.87 219.09 342.12 217.14 C 348.09 203.90 354.05 190.65 360.01 177.41 C 363.27 170.17 366.46 162.91 369.78 155.71 C 384.56 122.77 399.41 89.86 414.26 56.95 C 416.62 51.50 419.10 46.11 421.51 40.68 C 422.72 37.96 423.96 35.26 425.15 32.54 Z" />
<path fill="#f5e5c1" opacity="1.00" d=" M 402.26 41.68 C 405.85 40.36 408.15 36.83 411.94 35.96 C 411.82 38.12 412.13 40.75 410.07 42.14 C 408.23 44.35 405.17 43.52 402.69 43.43 C 402.58 42.99 402.37 42.12 402.26 41.68 Z" />
<path fill="#f5e5c1" opacity="1.00" d=" M 412.22 54.46 C 414.63 49.14 417.04 43.82 419.44 38.49 C 419.96 39.04 420.99 40.13 421.51 40.68 C 419.10 46.11 416.62 51.50 414.26 56.95 L 414.70 55.85 C 414.08 55.51 412.84 54.81 412.22 54.46 Z" />
<path fill="#3e3e3e" opacity="1.00" d=" M 425.16 48.02 C 424.48 43.40 430.55 40.15 434.20 42.71 C 437.46 44.44 438.23 49.13 435.93 51.94 C 434.70 53.44 432.69 53.80 431.02 54.54 C 428.11 53.62 424.73 51.57 425.16 48.02 Z" />
<path fill="#f5e5c1" opacity="1.00" d=" M 430.77 43.56 C 434.43 44.05 436.25 47.76 434.71 51.05 C 432.82 48.90 431.19 46.45 430.77 43.56 Z" />
<path fill="#f5e5c1" opacity="1.00" d=" M 431.70 52.53 C 428.38 53.15 424.69 48.02 428.06 45.97 C 429.49 48.03 430.62 50.28 431.70 52.53 Z" />
<path fill="#3e3e3e" opacity="1.00" d=" M 124.57 54.73 C 135.01 53.63 145.59 53.76 156.06 54.55 C 181.05 58.33 204.46 72.05 219.82 92.16 C 230.04 105.45 236.93 121.35 239.46 137.94 C 242.75 152.20 240.52 167.04 236.60 180.94 C 230.02 203.23 215.58 223.18 196.08 235.93 C 184.09 243.88 170.36 249.27 156.13 251.46 C 142.16 254.70 127.64 252.55 113.98 248.88 C 88.88 241.77 66.79 224.58 54.17 201.71 C 46.89 188.34 41.78 173.35 42.01 157.98 C 42.03 150.69 41.76 143.35 42.81 136.11 C 46.99 112.29 59.99 90.00 79.06 75.05 C 92.19 64.59 108.03 57.55 124.57 54.73 Z" />
<path fill="#3e3e3e" opacity="1.00" d=" M 412.22 54.46 C 412.84 54.81 414.08 55.51 414.70 55.85 L 414.26 56.95 C 399.41 89.86 384.56 122.77 369.78 155.71 C 369.07 155.56 367.64 155.25 366.92 155.10 C 381.85 121.48 397.17 88.03 412.22 54.46 Z" />
<path fill="#f5e5c1" opacity="1.00" d=" M 128.63 71.90 C 144.65 69.61 161.36 71.81 175.99 78.84 C 192.81 86.71 206.75 100.50 214.79 117.24 C 223.35 134.65 225.22 155.16 220.30 173.90 C 215.78 191.05 205.59 206.68 191.56 217.55 C 177.29 228.77 159.19 235.12 141.01 234.95 C 122.83 235.12 104.73 228.78 90.45 217.56 C 76.42 206.70 66.23 191.06 61.71 173.93 C 56.38 153.73 59.03 131.51 69.27 113.27 C 81.24 91.25 103.88 75.61 128.63 71.90 Z" />
<path fill="#3e3e3e" opacity="1.00" d=" M 129.67 101.97 C 135.71 100.72 141.96 100.97 148.09 101.26 C 165.91 103.27 182.02 115.49 189.18 131.87 C 193.21 141.30 195.23 151.94 193.02 162.09 C 190.54 176.23 182.16 189.34 170.04 197.13 C 158.35 204.69 143.53 208.00 129.90 204.51 C 106.88 199.77 88.34 177.75 89.05 154.02 C 88.23 139.97 94.27 126.07 104.04 116.13 C 111.06 109.17 120.03 104.20 129.67 101.97 Z" />
<path fill="#f4722b" opacity="1.00" d=" M 136.12 116.23 C 147.29 114.93 158.90 119.15 166.61 127.34 C 177.54 138.25 180.14 156.35 172.88 169.95 C 167.71 180.03 157.71 187.49 146.53 189.44 C 137.90 190.88 128.69 189.41 121.16 184.84 C 111.87 179.32 105.05 169.59 103.49 158.85 C 102.06 149.71 104.04 139.99 109.31 132.35 C 115.34 123.41 125.33 117.21 136.12 116.23 Z" />
<path fill="#f5e5c1" opacity="1.00" d=" M 281.32 144.97 C 303.80 141.76 326.79 143.53 348.82 148.85 C 346.04 156.20 343.52 163.64 340.59 170.93 C 330.28 168.37 319.73 166.60 309.09 166.36 C 309.19 176.86 309.11 187.36 309.13 197.87 C 313.79 197.97 318.49 197.47 323.11 198.23 C 325.73 198.66 327.98 201.24 327.59 203.96 C 327.59 206.03 325.65 207.19 324.44 208.58 C 322.21 210.52 321.38 213.45 320.40 216.13 C 324.00 217.61 327.47 219.39 331.02 221.00 C 333.49 222.39 336.12 220.61 338.66 220.38 C 340.02 222.33 340.67 224.96 342.88 226.19 C 346.74 228.32 350.92 229.80 355.06 231.28 C 356.55 228.00 358.00 224.70 359.28 221.33 C 360.46 222.48 361.63 223.66 362.79 224.85 C 361.56 227.64 360.41 230.46 359.30 233.30 C 355.45 233.55 351.63 234.04 347.80 234.35 C 344.81 242.15 342.23 250.10 339.42 257.96 C 358.92 269.17 371.92 290.42 373.38 312.83 C 382.21 312.88 391.03 312.85 399.86 312.85 C 400.11 307.72 399.11 302.37 400.71 297.40 C 402.42 293.41 408.60 293.44 410.30 297.42 C 411.88 302.39 410.89 307.73 411.14 312.86 C 425.02 312.84 438.90 312.87 452.79 312.84 C 452.22 284.39 443.34 256.08 427.36 232.51 C 414.22 212.66 396.07 196.30 375.30 184.74 C 379.09 177.74 382.61 170.61 386.52 163.68 C 401.79 172.00 415.88 182.46 428.28 194.64 C 443.03 209.97 455.43 227.68 463.96 247.22 C 471.33 264.25 476.18 282.42 477.84 300.92 C 481.68 340.97 471.43 382.40 448.48 415.53 C 426.54 448.36 392.74 472.94 354.95 484.22 C 316.70 495.84 274.52 493.68 237.58 478.42 C 242.70 471.76 247.55 464.88 253.21 458.67 C 267.62 463.48 282.72 466.59 297.95 466.64 C 297.75 457.46 297.91 448.29 297.86 439.12 C 292.73 438.88 287.39 439.87 282.43 438.30 C 278.26 436.56 278.48 429.97 282.80 428.56 C 287.68 427.20 292.85 428.08 297.85 427.87 C 297.87 419.26 297.84 410.66 297.87 402.05 C 301.84 399.88 305.80 397.64 309.13 394.53 C 309.16 405.65 309.11 416.76 309.15 427.88 C 313.60 428.02 318.23 427.25 322.53 428.68 C 326.58 430.34 326.58 436.64 322.54 438.32 C 318.23 439.73 313.59 438.98 309.13 439.14 C 309.17 448.33 309.08 457.53 309.19 466.73 C 343.76 465.34 377.69 451.53 403.31 428.27 C 432.71 401.96 451.10 363.52 452.54 324.05 C 438.74 324.26 424.95 324.08 411.15 324.15 C 410.95 329.82 411.60 335.54 410.76 341.17 C 410.25 344.88 405.32 347.09 402.38 344.58 C 400.25 343.12 399.96 340.35 399.87 337.99 C 399.74 333.38 399.91 328.76 399.85 324.15 C 390.98 324.14 382.10 324.13 373.23 324.15 C 371.48 341.35 363.25 357.84 350.21 369.23 C 343.74 374.87 336.29 379.38 328.22 382.32 C 328.38 378.51 328.93 374.74 329.27 370.94 C 342.51 364.74 353.26 353.43 358.78 339.89 C 360.65 335.46 361.73 330.75 362.82 326.08 C 364.21 321.48 362.42 316.78 360.02 312.88 C 360.78 312.86 362.32 312.82 363.09 312.79 C 361.90 294.39 351.61 276.61 335.78 267.01 C 334.18 271.86 331.74 276.47 331.00 281.57 C 339.55 287.69 345.49 297.03 348.03 307.19 C 345.83 307.39 343.66 307.86 341.57 308.58 C 339.79 300.24 334.89 292.89 328.54 287.29 C 325.04 295.69 322.18 304.33 318.94 312.82 C 324.47 312.97 330.01 312.57 335.51 313.19 C 333.38 316.44 332.28 320.25 332.35 324.14 C 330.97 324.14 329.59 324.13 328.21 324.14 C 325.92 320.24 322.19 317.43 317.85 316.21 C 316.04 320.78 314.21 325.35 312.70 330.04 C 301.25 325.32 290.26 319.52 278.94 314.50 C 282.00 306.60 286.39 299.30 289.91 291.61 C 291.79 287.66 293.78 283.75 295.27 279.63 C 289.08 281.12 283.32 284.07 278.48 288.19 C 276.00 287.86 273.52 287.67 271.03 287.63 C 278.16 280.18 287.51 274.82 297.78 273.31 C 297.91 268.14 297.86 262.97 297.84 257.80 C 288.79 258.68 280.08 261.78 272.25 266.35 C 266.76 265.49 261.44 267.32 256.46 269.42 C 253.76 270.90 250.92 273.63 251.40 276.99 C 251.60 279.31 253.65 280.76 255.12 282.34 C 252.54 286.40 250.05 290.54 248.31 295.05 C 248.02 295.24 247.44 295.61 247.14 295.80 C 247.75 293.99 249.04 292.22 248.70 290.24 C 247.32 288.13 244.59 287.91 242.35 287.41 C 252.54 266.06 274.27 250.92 297.84 248.80 C 297.89 235.58 297.84 222.36 297.86 209.14 C 292.74 208.90 287.42 209.85 282.45 208.32 C 278.40 206.63 278.42 200.31 282.50 198.66 C 287.45 197.14 292.75 198.09 297.85 197.86 C 297.93 187.36 297.74 176.86 297.95 166.37 C 292.12 166.22 286.34 166.98 280.57 167.67 C 281.34 160.13 281.77 152.55 281.32 144.97 Z" />
<path fill="#f5e5c1" opacity="1.00" d=" M 366.92 155.10 C 367.64 155.25 369.07 155.56 369.78 155.71 C 366.46 162.91 363.27 170.17 360.01 177.41 C 359.34 177.15 358.01 176.63 357.35 176.38 C 360.48 169.26 363.67 162.16 366.92 155.10 Z" />
<path fill="#3e3e3e" opacity="1.00" d=" M 309.09 166.36 C 319.73 166.60 330.28 168.37 340.59 170.93 C 335.46 185.69 329.24 200.04 324.45 214.91 C 327.66 216.14 330.65 217.99 334.01 218.78 C 337.19 218.93 339.30 215.97 340.52 213.41 C 346.32 201.15 351.48 188.60 357.35 176.38 C 358.01 176.63 359.34 177.15 360.01 177.41 C 354.05 190.65 348.09 203.90 342.12 217.14 C 340.87 219.09 342.15 221.15 342.71 223.09 C 346.03 224.32 349.09 226.56 352.69 226.84 C 360.55 213.00 367.77 198.76 375.30 184.74 C 396.07 196.30 414.22 212.66 427.36 232.51 C 443.34 256.08 452.22 284.39 452.79 312.84 C 438.90 312.87 425.02 312.84 411.14 312.86 C 410.89 307.73 411.88 302.39 410.30 297.42 C 408.60 293.44 402.42 293.41 400.71 297.40 C 399.11 302.37 400.11 307.72 399.86 312.85 C 391.03 312.85 382.21 312.88 373.38 312.83 C 371.92 290.42 358.92 269.17 339.42 257.96 C 342.23 250.10 344.81 242.15 347.80 234.35 C 351.63 234.04 355.45 233.55 359.30 233.30 C 360.41 230.46 361.56 227.64 362.79 224.85 C 361.63 223.66 360.46 222.48 359.28 221.33 C 358.00 224.70 356.55 228.00 355.06 231.28 C 350.92 229.80 346.74 228.32 342.88 226.19 C 340.67 224.96 340.02 222.33 338.66 220.38 C 336.12 220.61 333.49 222.39 331.02 221.00 C 327.47 219.39 324.00 217.61 320.40 216.13 C 321.38 213.45 322.21 210.52 324.44 208.58 C 325.65 207.19 327.59 206.03 327.59 203.96 C 327.98 201.24 325.73 198.66 323.11 198.23 C 318.49 197.47 313.79 197.97 309.13 197.87 C 309.11 187.36 309.19 176.86 309.09 166.36 Z" />
<path fill="#3e3e3e" opacity="1.00" d=" M 309.14 209.14 C 311.75 209.14 314.37 209.13 316.99 209.15 C 316.56 210.89 316.09 212.62 315.49 214.31 C 317.68 217.47 321.10 219.68 322.95 223.05 C 319.90 231.15 315.41 238.63 311.62 246.40 C 311.13 247.53 310.33 248.46 309.38 249.24 C 308.82 235.89 309.28 222.50 309.14 209.14 Z" />
<path fill="#3e3e3e" opacity="1.00" d=" M 329.58 212.05 C 328.99 210.30 331.04 209.34 331.87 208.15 C 333.65 208.89 336.10 210.55 334.73 212.79 C 333.85 215.25 329.80 214.45 329.58 212.05 Z" />
<path fill="#3e3e3e" opacity="1.00" d=" M 347.48 217.35 C 349.46 214.57 353.96 218.25 351.76 220.77 C 349.84 223.76 344.49 220.16 347.48 217.35 Z" />
<path fill="#3e3e3e" opacity="1.00" d=" M 272.25 266.35 C 280.08 261.78 288.79 258.68 297.84 257.80 C 297.86 262.97 297.91 268.14 297.78 273.31 C 287.51 274.82 278.16 280.18 271.03 287.63 C 262.92 287.83 254.91 290.27 248.31 295.05 C 250.05 290.54 252.54 286.40 255.12 282.34 C 259.95 282.00 265.15 285.62 269.61 282.55 C 272.74 280.26 275.67 277.04 276.20 273.05 C 275.93 270.34 273.80 268.40 272.25 266.35 Z" />
<path fill="#f4722b" opacity="1.00" d=" M 288.25 263.35 C 290.95 261.10 296.11 263.28 295.89 266.96 C 296.35 270.40 291.74 270.92 289.55 269.44 C 287.20 268.58 286.27 264.98 288.25 263.35 Z" />
<path fill="#f4722b" opacity="1.00" d=" M 256.46 269.42 C 261.44 267.32 266.76 265.49 272.25 266.35 C 273.80 268.40 275.93 270.34 276.20 273.05 C 275.67 277.04 272.74 280.26 269.61 282.55 C 265.15 285.62 259.95 282.00 255.12 282.34 C 253.65 280.76 251.60 279.31 251.40 276.99 C 250.92 273.63 253.76 270.90 256.46 269.42 Z" />
<path fill="#3e3e3e" opacity="1.00" d=" M 335.78 267.01 C 351.61 276.61 361.90 294.39 363.09 312.79 C 362.32 312.82 360.78 312.86 360.02 312.88 C 356.89 309.55 352.68 307.18 348.03 307.19 C 345.49 297.03 339.55 287.69 331.00 281.57 C 331.74 276.47 334.18 271.86 335.78 267.01 Z" />
<path fill="#3e3e3e" opacity="1.00" d=" M 278.48 288.19 C 283.32 284.07 289.08 281.12 295.27 279.63 C 293.78 283.75 291.79 287.66 289.91 291.61 C 286.22 290.11 282.41 288.87 278.48 288.19 Z" />
<path fill="#f4722b" opacity="1.00" d=" M 233.18 289.09 C 236.07 287.88 239.27 287.75 242.35 287.41 C 244.59 287.91 247.32 288.13 248.70 290.24 C 249.04 292.22 247.75 293.99 247.14 295.80 C 247.44 295.61 248.02 295.24 248.31 295.05 C 254.91 290.27 262.92 287.83 271.03 287.63 C 273.52 287.67 276.00 287.86 278.48 288.19 C 282.41 288.87 286.22 290.11 289.91 291.61 C 286.39 299.30 282.00 306.60 278.94 314.50 C 290.26 319.52 301.25 325.32 312.70 330.04 C 314.21 325.35 316.04 320.78 317.85 316.21 C 322.19 317.43 325.92 320.24 328.21 324.14 C 329.16 326.98 329.86 330.03 329.28 333.04 C 325.53 335.40 321.11 336.71 317.87 339.86 C 315.24 341.90 313.01 345.87 309.13 344.55 C 305.34 343.70 301.67 342.38 297.90 341.47 C 297.03 341.28 296.16 341.11 295.29 340.96 C 294.57 343.02 293.83 345.09 293.08 347.15 C 294.67 347.14 296.26 347.13 297.85 347.19 C 302.17 347.96 305.97 350.34 309.27 353.15 C 309.39 353.69 309.62 354.77 309.73 355.31 C 309.36 357.72 312.59 356.35 310.54 354.99 C 312.55 354.04 314.73 353.66 316.92 353.40 C 317.76 355.51 318.55 357.69 318.35 360.01 C 317.71 361.16 317.06 362.30 316.41 363.44 C 319.32 364.93 322.60 365.32 325.67 366.37 C 327.61 367.10 328.41 369.22 329.27 370.94 C 328.93 374.74 328.38 378.51 328.22 382.32 C 328.68 387.85 329.19 393.66 326.68 398.83 C 325.22 402.15 322.59 406.66 318.28 405.68 C 316.20 405.20 316.59 402.60 316.85 401.02 C 317.79 395.86 317.87 390.62 317.72 385.40 C 317.68 382.58 317.58 379.76 317.44 376.95 C 316.62 379.82 315.98 382.75 314.87 385.52 C 312.64 388.32 311.01 391.51 309.13 394.53 C 305.80 397.64 301.84 399.88 297.87 402.05 C 296.18 403.21 294.32 404.33 293.25 406.14 C 293.54 408.38 295.30 410.71 293.93 412.90 C 293.39 413.99 292.65 414.95 291.84 415.84 C 282.68 424.75 274.83 434.87 265.99 444.09 C 261.86 449.06 257.29 453.65 253.21 458.67 C 247.55 464.88 242.70 471.76 237.58 478.42 C 232.26 485.44 226.62 492.22 220.96 498.96 C 218.38 501.46 216.03 505.09 212.02 505.02 C 217.66 494.59 225.97 485.97 232.68 476.26 C 237.72 469.72 242.24 462.78 247.61 456.51 C 256.81 445.43 267.06 435.28 276.37 424.30 C 279.74 419.39 282.38 413.85 287.18 410.08 C 287.06 408.16 286.20 406.06 287.23 404.26 C 289.19 400.41 291.95 397.04 294.44 393.54 C 296.43 391.30 294.46 388.27 294.33 385.69 C 294.87 383.40 291.43 384.37 293.44 385.85 C 287.97 386.24 281.52 388.15 276.85 384.29 C 274.08 387.06 271.52 390.04 268.70 392.76 C 264.89 396.27 262.89 402.01 257.27 403.13 C 257.37 402.44 257.58 401.06 257.68 400.37 C 254.87 402.42 251.43 402.71 248.07 402.34 C 253.50 394.49 264.51 392.73 269.02 383.97 C 267.52 382.93 264.67 382.43 265.15 380.05 C 265.32 377.18 269.02 377.67 271.04 377.67 C 275.65 379.04 278.08 374.64 281.18 372.25 L 281.82 371.88 C 280.95 369.67 280.13 367.44 279.35 365.20 C 277.36 366.33 275.36 367.43 273.35 368.52 C 269.15 367.54 267.31 371.55 265.33 374.38 C 260.12 379.20 252.75 382.31 245.62 380.48 C 242.42 379.79 240.65 376.73 237.93 375.24 C 236.48 375.54 235.12 376.15 233.76 376.70 C 231.46 376.07 229.18 375.40 226.90 374.69 C 226.88 370.95 222.68 370.66 220.51 368.52 C 217.01 363.74 219.72 356.26 225.12 354.23 C 228.18 352.69 232.42 353.99 233.74 357.24 C 234.90 359.34 235.71 362.85 238.92 361.79 C 241.77 360.01 243.62 356.82 246.83 355.46 C 248.16 354.82 249.52 354.22 250.87 353.62 C 247.60 351.78 244.02 349.40 243.32 345.40 C 242.32 341.26 245.28 337.76 246.43 334.01 C 247.70 334.60 248.52 334.23 248.87 332.89 C 248.38 331.93 247.54 331.63 246.37 332.01 C 245.40 331.84 244.44 331.66 243.48 331.47 C 243.49 334.84 244.91 341.44 239.93 341.67 C 234.95 342.28 229.94 342.63 224.97 343.24 C 222.93 342.33 220.51 340.33 218.50 342.42 C 213.15 346.48 206.29 346.90 199.91 347.84 C 196.13 348.48 192.94 350.78 189.83 352.87 C 187.58 354.15 187.16 356.88 185.93 358.95 C 182.59 359.01 179.32 357.89 175.97 358.18 C 170.01 358.21 164.97 361.71 159.84 364.29 C 155.85 366.47 151.60 368.22 147.88 370.87 C 145.43 372.59 142.91 374.24 140.19 375.54 C 135.92 377.51 131.95 380.19 127.38 381.49 C 119.80 383.42 112.61 386.57 105.07 388.64 C 98.32 390.60 92.48 394.75 85.79 396.89 C 77.95 400.53 70.14 404.27 62.59 408.47 C 42.42 417.92 20.75 423.45 0.00 431.38 L 0.00 428.72 C 18.12 421.39 36.60 415.01 54.61 407.43 C 61.72 404.60 68.12 400.34 75.11 397.25 C 81.66 393.40 89.08 391.43 95.64 387.61 C 100.36 384.74 105.88 383.86 110.95 381.85 C 115.42 380.13 119.92 378.49 124.57 377.30 C 129.62 376.04 133.93 373.00 138.61 370.86 C 141.08 369.69 143.36 368.19 145.60 366.65 C 149.98 363.62 154.92 361.61 159.67 359.27 C 163.30 357.24 166.91 355.08 170.93 353.90 C 174.26 352.82 177.83 353.03 181.22 352.24 C 182.85 349.85 181.59 346.05 184.30 344.27 C 187.50 342.00 191.17 340.44 194.89 339.24 C 198.55 338.40 202.29 337.94 206.01 337.41 C 204.99 335.38 204.49 332.56 202.07 331.75 C 199.50 330.67 196.87 329.61 194.83 327.64 C 194.26 326.45 193.66 325.27 193.11 324.07 C 191.65 320.41 192.02 316.24 193.99 312.85 C 194.20 312.43 194.61 311.60 194.82 311.18 C 197.58 307.20 201.02 302.90 206.32 302.73 C 209.34 302.94 212.57 303.07 215.18 304.81 C 218.08 306.54 220.11 309.29 222.08 311.96 C 226.63 311.12 231.24 310.65 235.81 309.86 C 233.00 307.52 229.10 306.02 227.75 302.35 C 225.75 297.38 228.62 291.51 233.18 289.09 Z" />
<path fill="#3e3e3e" opacity="1.00" d=" M 318.94 312.82 C 322.18 304.33 325.04 295.69 328.54 287.29 C 334.89 292.89 339.79 300.24 341.57 308.58 C 339.38 309.88 337.32 311.40 335.51 313.19 C 330.01 312.57 324.47 312.97 318.94 312.82 Z" />
<path fill="#f5e5c1" opacity="1.00" d=" M 131.92 294.75 C 139.09 294.06 146.50 294.86 153.70 293.53 C 152.92 299.94 152.32 306.37 152.21 312.84 C 166.13 312.87 180.06 312.85 193.99 312.85 C 192.02 316.24 191.65 320.41 193.11 324.07 C 179.57 324.17 166.02 324.22 152.47 324.04 C 152.51 335.89 155.31 347.47 157.85 358.97 C 158.31 359.05 159.22 359.20 159.67 359.27 C 154.92 361.61 149.98 363.62 145.60 366.65 C 143.36 368.19 141.08 369.69 138.61 370.86 C 137.02 365.27 135.28 359.72 134.27 353.99 C 137.24 353.62 139.43 350.93 139.46 347.98 C 139.44 343.05 136.00 338.60 131.52 336.75 C 129.91 322.83 129.91 308.62 131.92 294.75 Z" />
<path fill="#f5e5c1" opacity="1.00" d=" M 195.43 298.11 C 196.37 294.78 200.87 293.14 203.60 295.40 C 206.01 297.03 205.86 300.18 206.32 302.73 C 201.02 302.90 197.58 307.20 194.82 311.18 C 195.08 306.83 194.36 302.39 195.43 298.11 Z" />
<path fill="#f4722b" opacity="1.00" d=" M 348.03 307.19 C 352.68 307.18 356.89 309.55 360.02 312.88 C 362.42 316.78 364.21 321.48 362.82 326.08 C 357.66 327.70 352.57 329.59 347.23 330.56 C 344.75 330.98 342.27 331.41 339.78 331.74 C 338.24 331.86 336.71 331.83 335.19 331.63 C 333.54 329.47 332.93 326.74 332.35 324.14 C 332.28 320.25 333.38 316.44 335.51 313.19 C 337.32 311.40 339.38 309.88 341.57 308.58 C 343.66 307.86 345.83 307.39 348.03 307.19 Z" />
<path fill="#f4722b" opacity="1.00" d=" M 80.27 321.35 C 83.25 318.59 88.16 323.44 85.45 326.47 C 83.72 328.96 81.03 326.69 79.20 325.63 C 79.44 324.20 78.84 322.30 80.27 321.35 Z" />
<path fill="#f4722b" opacity="1.00" d=" M 99.85 321.45 C 105.36 320.64 111.71 320.02 116.44 323.58 C 121.54 326.95 124.18 333.41 123.44 339.41 C 125.64 337.36 128.62 336.84 131.52 336.75 C 136.00 338.60 139.44 343.05 139.46 347.98 C 139.43 350.93 137.24 353.62 134.27 353.99 C 131.05 353.44 127.49 354.09 124.51 352.59 C 122.60 350.75 121.74 348.07 120.12 345.98 C 121.79 348.76 123.81 351.65 123.41 355.09 C 122.63 358.28 118.95 359.43 116.04 358.73 C 113.28 358.38 112.13 355.54 110.77 353.51 C 106.81 353.96 104.04 357.97 99.99 357.57 C 95.83 356.34 91.88 354.25 88.55 351.46 C 87.75 353.10 87.01 355.25 84.85 355.35 C 83.09 355.49 79.16 356.81 79.26 353.94 C 79.05 350.19 83.79 349.95 86.41 349.05 C 85.86 347.39 85.36 345.71 84.65 344.11 C 82.54 343.71 80.46 344.74 78.43 345.21 C 77.35 346.72 76.48 349.34 74.10 348.72 C 71.88 347.46 69.74 344.98 70.67 342.26 C 71.60 337.96 70.64 333.14 73.44 329.40 C 74.81 326.42 79.02 325.20 81.64 327.25 C 84.32 329.20 80.20 330.35 78.90 331.69 C 80.79 331.55 83.15 332.32 84.57 330.64 C 88.87 326.51 93.68 322.19 99.85 321.45 Z" />
<path fill="#3e3e3e" opacity="1.00" d=" M 152.47 324.04 C 166.02 324.22 179.57 324.17 193.11 324.07 C 193.66 325.27 194.26 326.45 194.83 327.64 C 194.94 331.50 194.83 335.37 194.89 339.24 C 191.17 340.44 187.50 342.00 184.30 344.27 C 181.59 346.05 182.85 349.85 181.22 352.24 C 177.83 353.03 174.26 352.82 170.93 353.90 C 166.91 355.08 163.30 357.24 159.67 359.27 C 159.22 359.20 158.31 359.05 157.85 358.97 C 155.31 347.47 152.51 335.89 152.47 324.04 Z" />
<path fill="#3e3e3e" opacity="1.00" d=" M 328.21 324.14 C 329.59 324.13 330.97 324.14 332.35 324.14 C 332.93 326.74 333.54 329.47 335.19 331.63 C 336.71 331.83 338.24 331.86 339.78 331.74 C 335.67 341.69 327.35 350.24 316.92 353.40 C 314.73 353.66 312.55 354.04 310.54 354.99 L 309.73 355.31 C 309.62 354.77 309.39 353.69 309.27 353.15 C 309.05 350.28 309.11 347.41 309.13 344.55 C 313.01 345.87 315.24 341.90 317.87 339.86 C 321.11 336.71 325.53 335.40 329.28 333.04 C 329.86 330.03 329.16 326.98 328.21 324.14 Z" />
<path fill="#3e3e3e" opacity="1.00" d=" M 373.23 324.15 C 382.10 324.13 390.98 324.14 399.85 324.15 C 399.91 328.76 399.74 333.38 399.87 337.99 C 399.96 340.35 400.25 343.12 402.38 344.58 C 405.32 347.09 410.25 344.88 410.76 341.17 C 411.60 335.54 410.95 329.82 411.15 324.15 C 424.95 324.08 438.74 324.26 452.54 324.05 C 451.10 363.52 432.71 401.96 403.31 428.27 C 377.69 451.53 343.76 465.34 309.19 466.73 C 309.08 457.53 309.17 448.33 309.13 439.14 C 313.59 438.98 318.23 439.73 322.54 438.32 C 326.58 436.64 326.58 430.34 322.53 428.68 C 318.23 427.25 313.60 428.02 309.15 427.88 C 309.11 416.76 309.16 405.65 309.13 394.53 C 311.01 391.51 312.64 388.32 314.87 385.52 C 315.59 385.49 317.01 385.43 317.72 385.40 C 317.87 390.62 317.79 395.86 316.85 401.02 C 316.59 402.60 316.20 405.20 318.28 405.68 C 322.59 406.66 325.22 402.15 326.68 398.83 C 329.19 393.66 328.68 387.85 328.22 382.32 C 336.29 379.38 343.74 374.87 350.21 369.23 C 363.25 357.84 371.48 341.35 373.23 324.15 Z" />
<path fill="#3e3e3e" opacity="1.00" d=" M 347.23 330.56 C 352.57 329.59 357.66 327.70 362.82 326.08 C 361.73 330.75 360.65 335.46 358.78 339.89 C 353.26 353.43 342.51 364.74 329.27 370.94 C 328.41 369.22 327.61 367.10 325.67 366.37 C 322.60 365.32 319.32 364.93 316.41 363.44 C 317.06 362.30 317.71 361.16 318.35 360.01 C 331.99 355.59 343.15 344.33 347.23 330.56 Z" />
<path fill="#f4722b" opacity="1.00" d=" M 64.41 328.53 C 66.83 327.79 70.97 328.81 70.55 332.02 C 69.26 333.94 68.08 336.20 65.99 337.36 C 61.22 337.59 59.86 330.05 64.41 328.53 Z" />
<path fill="#f5e5c1" opacity="1.00" d=" M 194.83 327.64 C 196.87 329.61 199.50 330.67 202.07 331.75 C 204.49 332.56 204.99 335.38 206.01 337.41 C 202.29 337.94 198.55 338.40 194.89 339.24 C 194.83 335.37 194.94 331.50 194.83 327.64 Z" />
<path fill="#3e3e3e" opacity="1.00" d=" M 253.67 327.97 C 254.55 329.06 254.63 330.47 254.92 331.79 C 254.48 331.81 253.61 331.86 253.18 331.88 C 253.32 330.57 253.48 329.27 253.67 327.97 Z" />
<path fill="#f5e5c1" opacity="1.00" d=" M 243.48 331.47 C 244.44 331.66 245.40 331.84 246.37 332.01 C 246.39 332.51 246.42 333.51 246.43 334.01 C 245.28 337.76 242.32 341.26 243.32 345.40 C 244.02 349.40 247.60 351.78 250.87 353.62 C 249.52 354.22 248.16 354.82 246.83 355.46 C 244.05 351.12 241.62 346.55 239.93 341.67 C 244.91 341.44 243.49 334.84 243.48 331.47 Z" />
<path fill="#f5e5c1" opacity="1.00" d=" M 339.78 331.74 C 342.27 331.41 344.75 330.98 347.23 330.56 C 343.15 344.33 331.99 355.59 318.35 360.01 C 318.55 357.69 317.76 355.51 316.92 353.40 C 327.35 350.24 335.67 341.69 339.78 331.74 Z" />
<path fill="#f4722b" opacity="1.00" d=" M 53.94 333.97 C 56.14 333.13 58.78 331.31 61.07 332.85 C 60.86 335.13 58.42 335.78 56.74 336.77 C 48.48 341.09 39.23 342.80 30.43 345.66 C 24.10 347.76 17.54 349.03 11.07 350.65 C 7.37 351.73 3.84 353.41 0.00 354.02 L 0.00 351.11 C 10.97 346.60 22.67 344.50 33.86 340.71 C 40.55 338.45 47.65 337.31 53.94 333.97 Z" />
<path fill="#3e3e3e" opacity="1.00" d=" M 246.37 332.01 C 247.54 331.63 248.38 331.93 248.87 332.89 C 248.52 334.23 247.70 334.60 246.43 334.01 C 246.42 333.51 246.39 332.51 246.37 332.01 Z" />
<path fill="#3e3e3e" opacity="1.00" d=" M 218.50 342.42 C 220.51 340.33 222.93 342.33 224.97 343.24 C 229.94 342.63 234.95 342.28 239.93 341.67 C 241.62 346.55 244.05 351.12 246.83 355.46 C 243.62 356.82 241.77 360.01 238.92 361.79 C 235.71 362.85 234.90 359.34 233.74 357.24 C 232.42 353.99 228.18 352.69 225.12 354.23 C 219.72 356.26 217.01 363.74 220.51 368.52 C 222.68 370.66 226.88 370.95 226.90 374.69 C 229.18 375.40 231.46 376.07 233.76 376.70 C 235.12 376.15 236.48 375.54 237.93 375.24 C 240.65 376.73 242.42 379.79 245.62 380.48 C 252.75 382.31 260.12 379.20 265.33 374.38 C 267.18 375.54 269.05 376.72 271.04 377.67 C 269.02 377.67 265.32 377.18 265.15 380.05 C 264.67 382.43 267.52 382.93 269.02 383.97 C 264.51 392.73 253.50 394.49 248.07 402.34 C 251.43 402.71 254.87 402.42 257.68 400.37 C 257.58 401.06 257.37 402.44 257.27 403.13 C 262.89 402.01 264.89 396.27 268.70 392.76 C 271.52 390.04 274.08 387.06 276.85 384.29 C 281.52 388.15 287.97 386.24 293.44 385.85 L 294.33 385.69 C 294.46 388.27 296.43 391.30 294.44 393.54 C 291.95 397.04 289.19 400.41 287.23 404.26 C 286.20 406.06 287.06 408.16 287.18 410.08 C 282.38 413.85 279.74 419.39 276.37 424.30 C 267.06 435.28 256.81 445.43 247.61 456.51 C 235.57 451.98 224.15 445.76 213.86 438.02 C 212.75 437.26 211.57 436.20 210.10 436.68 C 214.04 434.61 218.14 432.03 220.13 427.88 C 221.76 424.66 218.41 420.79 215.01 421.42 C 209.76 422.16 206.29 427.14 201.00 427.81 C 182.31 410.47 167.81 388.56 159.84 364.29 C 164.97 361.71 170.01 358.21 175.97 358.18 C 179.32 357.89 182.59 359.01 185.93 358.95 C 187.16 356.88 187.58 354.15 189.83 352.87 C 192.94 350.78 196.13 348.48 199.91 347.84 C 206.29 346.90 213.15 346.48 218.50 342.42 Z" />
<path fill="#3e3e3e" opacity="1.00" d=" M 295.29 340.96 C 296.16 341.11 297.03 341.28 297.90 341.47 C 297.87 343.37 297.86 345.28 297.85 347.19 C 296.26 347.13 294.67 347.14 293.08 347.15 C 293.83 345.09 294.57 343.02 295.29 340.96 Z" />
<path fill="#f5e5c1" opacity="1.00" d=" M 297.90 341.47 C 301.67 342.38 305.34 343.70 309.13 344.55 C 309.11 347.41 309.05 350.28 309.27 353.15 C 305.97 350.34 302.17 347.96 297.85 347.19 C 297.86 345.28 297.87 343.37 297.90 341.47 Z" />
<path fill="#3e3e3e" opacity="1.00" d=" M 262.49 347.61 C 264.04 347.78 264.25 351.58 262.08 351.14 C 260.51 350.56 261.82 348.45 262.49 347.61 Z" />
<path fill="#f4722b" opacity="1.00" d=" M 76.33 349.31 C 77.52 349.28 78.70 349.26 79.88 349.25 C 80.03 351.45 78.59 353.04 76.33 352.80 C 76.33 351.63 76.33 350.47 76.33 349.31 Z" />
<path fill="#f5e5c1" opacity="1.00" d=" M 309.73 355.31 L 310.54 354.99 C 312.59 356.35 309.36 357.72 309.73 355.31 Z" />
<path fill="#f4722b" opacity="1.00" d=" M 49.47 363.40 C 51.77 360.22 56.32 360.17 59.87 360.46 C 65.34 361.85 69.12 366.77 71.22 371.77 C 72.04 371.19 72.86 370.61 73.68 370.03 C 71.27 372.11 70.39 375.21 68.88 377.89 C 66.86 381.08 62.88 381.67 59.50 382.43 C 57.25 385.29 53.77 386.95 50.10 386.40 C 44.83 385.52 40.32 388.76 35.75 390.79 C 24.26 395.88 11.33 396.58 0.00 402.10 L 0.00 398.47 C 3.83 396.59 7.81 394.93 11.99 394.05 C 21.78 392.31 31.16 388.84 40.95 387.08 C 42.75 386.68 44.61 386.34 46.22 385.40 C 47.87 383.73 48.01 381.24 48.63 379.10 C 47.51 377.21 45.73 375.37 45.86 373.03 C 47.00 369.80 48.07 366.53 49.47 363.40 Z" />
<path fill="#f4722b" opacity="1.00" d=" M 69.22 365.91 C 69.55 362.80 73.50 363.34 75.51 364.42 C 75.51 364.96 75.50 366.05 75.50 366.59 C 73.42 367.26 70.66 368.19 69.22 365.91 Z" />
<path fill="#f5e5c1" opacity="1.00" d=" M 147.88 370.87 C 151.60 368.22 155.85 366.47 159.84 364.29 C 167.81 388.56 182.31 410.47 201.00 427.81 C 196.99 427.86 192.97 428.12 188.98 427.75 C 186.11 427.02 184.07 424.13 180.95 424.12 C 176.51 423.50 172.83 426.62 170.33 429.92 L 170.59 428.95 C 157.41 413.13 147.03 394.98 140.19 375.54 C 142.91 374.24 145.43 372.59 147.88 370.87 Z" />
<path fill="#3e3e3e" opacity="1.00" d=" M 273.35 368.52 C 275.36 367.43 277.36 366.33 279.35 365.20 C 280.13 367.44 280.95 369.67 281.82 371.88 L 281.18 372.25 C 278.48 371.19 275.93 369.81 273.35 368.52 Z" />
<path fill="#f5e5c1" opacity="1.00" d=" M 265.33 374.38 C 267.31 371.55 269.15 367.54 273.35 368.52 C 275.93 369.81 278.48 371.19 281.18 372.25 C 278.08 374.64 275.65 379.04 271.04 377.67 C 269.05 376.72 267.18 375.54 265.33 374.38 Z" />
<path fill="#f5e5c1" opacity="1.00" d=" M 297.52 376.62 C 299.71 375.23 302.19 374.39 304.51 373.24 C 303.93 375.33 304.08 377.47 304.56 379.57 C 302.30 378.46 299.82 378.10 297.32 378.37 C 297.37 377.93 297.47 377.06 297.52 376.62 Z" />
<path fill="#3e3e3e" opacity="1.00" d=" M 127.38 381.49 C 131.95 380.19 135.92 377.51 140.19 375.54 C 147.03 394.98 157.41 413.13 170.59 428.95 L 170.33 429.92 C 169.10 432.27 168.75 435.88 165.68 436.52 C 163.33 437.27 160.95 437.98 158.79 439.20 C 160.60 439.37 162.42 439.51 164.24 439.64 C 164.16 442.90 163.69 447.04 166.96 449.02 C 169.97 451.54 173.70 449.28 176.86 448.40 C 175.72 450.86 174.29 453.47 171.63 454.54 C 167.19 456.23 162.30 456.70 158.15 459.16 C 148.30 464.51 139.79 471.97 131.35 479.26 C 126.11 483.43 120.49 487.08 115.31 491.33 C 106.75 498.43 97.22 504.32 89.13 512.00 L 0.00 512.00 L 0.00 431.38 C 20.75 423.45 42.42 417.92 62.59 408.47 C 70.14 404.27 77.95 400.53 85.79 396.89 C 92.48 394.75 98.32 390.60 105.07 388.64 C 112.61 386.57 119.80 383.42 127.38 381.49 Z" />
<path fill="#f5e5c1" opacity="1.00" d=" M 317.44 376.95 C 317.58 379.76 317.68 382.58 317.72 385.40 C 317.01 385.43 315.59 385.49 314.87 385.52 C 315.98 382.75 316.62 379.82 317.44 376.95 Z" />
<path fill="#f4722b" opacity="1.00" d=" M 214.09 381.10 C 216.15 377.60 220.56 378.54 223.92 378.80 C 226.38 379.13 229.73 378.78 230.46 381.83 C 228.66 384.20 229.29 387.46 227.94 389.91 C 224.95 392.30 221.62 395.91 217.38 394.53 C 212.29 392.56 211.70 385.33 214.09 381.10 Z" />
<path fill="#f5e5c1" opacity="1.00" d=" M 293.44 385.85 C 291.43 384.37 294.87 383.40 294.33 385.69 L 293.44 385.85 Z" />
<path fill="#f4722b" opacity="1.00" d=" M 162.59 396.66 C 165.31 394.26 168.98 396.19 171.83 397.29 C 171.83 398.90 171.48 400.96 169.61 401.38 C 167.02 401.73 164.06 402.72 161.66 401.23 C 161.18 399.68 161.09 397.70 162.59 396.66 Z" />
<path fill="#3e3e3e" opacity="1.00" d=" M 293.25 406.14 C 294.32 404.33 296.18 403.21 297.87 402.05 C 297.84 410.66 297.87 419.26 297.85 427.87 C 292.85 428.08 287.68 427.20 282.80 428.56 C 278.48 429.97 278.26 436.56 282.43 438.30 C 287.39 439.87 292.73 438.88 297.86 439.12 C 297.91 448.29 297.75 457.46 297.95 466.64 C 282.72 466.59 267.62 463.48 253.21 458.67 C 257.29 453.65 261.86 449.06 265.99 444.09 C 274.83 434.87 282.68 424.75 291.84 415.84 C 292.65 414.95 293.39 413.99 293.93 412.90 C 295.30 410.71 293.54 408.38 293.25 406.14 Z" />
<path fill="#f4722b" opacity="1.00" d=" M 184.43 403.34 C 187.70 400.19 190.72 406.12 189.08 408.95 C 185.89 411.05 182.30 406.04 184.43 403.34 Z" />
<path fill="#f4722b" opacity="1.00" d=" M 201.00 427.81 C 206.29 427.14 209.76 422.16 215.01 421.42 C 218.41 420.79 221.76 424.66 220.13 427.88 C 218.14 432.03 214.04 434.61 210.10 436.68 C 204.94 439.64 198.84 439.09 193.14 439.73 C 191.77 442.40 190.16 445.03 187.70 446.84 C 185.98 448.12 184.73 449.88 183.65 451.71 C 181.72 455.00 178.70 457.47 175.57 459.56 C 171.14 462.40 165.60 462.45 161.06 465.03 C 147.95 472.45 137.89 483.94 125.48 492.32 C 117.03 499.14 108.22 505.48 99.55 512.00 L 89.13 512.00 C 97.22 504.32 106.75 498.43 115.31 491.33 C 120.49 487.08 126.11 483.43 131.35 479.26 C 139.79 471.97 148.30 464.51 158.15 459.16 C 162.30 456.70 167.19 456.23 171.63 454.54 C 174.29 453.47 175.72 450.86 176.86 448.40 C 173.70 449.28 169.97 451.54 166.96 449.02 C 163.69 447.04 164.16 442.90 164.24 439.64 C 162.42 439.51 160.60 439.37 158.79 439.20 C 160.95 437.98 163.33 437.27 165.68 436.52 C 168.75 435.88 169.10 432.27 170.33 429.92 C 172.83 426.62 176.51 423.50 180.95 424.12 C 184.07 424.13 186.11 427.02 188.98 427.75 C 192.97 428.12 196.99 427.86 201.00 427.81 Z" />
<path fill="#f5e5c1" opacity="1.00" d=" M 193.14 439.73 C 198.84 439.09 204.94 439.64 210.10 436.68 C 211.57 436.20 212.75 437.26 213.86 438.02 C 224.15 445.76 235.57 451.98 247.61 456.51 C 242.24 462.78 237.72 469.72 232.68 476.26 C 216.26 468.89 201.11 458.81 187.70 446.84 C 190.16 445.03 191.77 442.40 193.14 439.73 Z" />
</svg>
