<?xml version="1.0" encoding="UTF-8" standalone="no"?>
<svg
   xmlns:dc="http://purl.org/dc/elements/1.1/"
   xmlns:cc="http://creativecommons.org/ns#"
   xmlns:rdf="http://www.w3.org/1999/02/22-rdf-syntax-ns#"
   xmlns:svg="http://www.w3.org/2000/svg"
   xmlns="http://www.w3.org/2000/svg"
   xmlns:sodipodi="http://sodipodi.sourceforge.net/DTD/sodipodi-0.dtd"
   xmlns:inkscape="http://www.inkscape.org/namespaces/inkscape"
   width="1280"
   height="1280"
   viewBox="0 0 1024 1024"
   version="1.1"
   id="svg2"
   inkscape:version="0.48.1 "
   sodipodi:docname="fast_cap.svg">
  <metadata
     id="metadata68">
    <rdf:RDF>
      <cc:Work
         rdf:about="">
        <dc:format>image/svg+xml</dc:format>
        <dc:type
           rdf:resource="http://purl.org/dc/dcmitype/StillImage" />
      </cc:Work>
    </rdf:RDF>
  </metadata>
  <defs
     id="defs66" />
  <sodipodi:namedview
     pagecolor="#ffffff"
     bordercolor="#666666"
     borderopacity="1"
     objecttolerance="10"
     gridtolerance="10"
     guidetolerance="10"
     inkscape:pageopacity="0"
     inkscape:pageshadow="2"
     inkscape:window-width="1920"
     inkscape:window-height="1018"
     id="namedview64"
     showgrid="false"
     inkscape:snap-page="true"
     fit-margin-top="0"
     fit-margin-left="0"
     fit-margin-right="0"
     fit-margin-bottom="0"
     inkscape:zoom="0.6609375"
     inkscape:cx="640"
     inkscape:cy="640"
     inkscape:window-x="-8"
     inkscape:window-y="-8"
     inkscape:window-maximized="1"
     inkscape:current-layer="svg2" />
  <rect
     style="fill:#3e3e3e;fill-opacity:1;fill-rule:nonzero;stroke:none"
     id="rect3047"
     width="1024"
     height="1024"
     x="3.5527137e-014"
     y="0" />
  <path
     d="m 414.28,68.26 c 14.64,-6.58 33.66,-5.52 45.6,5.98 5.66,5.7 10.44,12.66 12.7,20.42 1.56,11.04 0.74,22.26 -0.62,33.28 -1.5,9.82 1.56,19.44 3.4,28.98 0.56,5 -2.68,9.18 -5.04,13.26 -4.74,7.24 -9.06,14.94 -15.3,21.04 -5.4,5.22 -12.82,7.2 -19.84,9.22 -2.26,-5.78 -4.86,-11.66 -9.96,-15.54 0.16,10.66 1.84,21.36 0.02,31.98 -1.46,7.96 -1.72,16.1 -0.54,24.12 0.42,15.14 4.54,29.8 6.98,44.68 7.12,18.76 11.92,38.48 21.22,56.36 -3.78,4.34 -7.14,9.2 -11.86,12.56 -3.88,1.52 -9.4,1.88 -12.3,-1.7 -10.46,-9.6 -20.68,-20.12 -33.5,-26.5 -2.3,-1.54 -7.62,-2.74 -5.98,-6.64 10.16,-14.24 26.5,-22.12 38.68,-34.32 -4.76,-21.7 -9.64,-43.38 -12.86,-65.36 -0.46,-8.18 0.34,-16.36 0.54,-24.54 2.18,-1 4.38,-2 6.58,-3 -7.04,1.88 -14.06,4.24 -21.42,4.22 0.06,-1.16 0.16,-3.46 0.22,-4.62 9.62,-3.98 20,-7.28 26.72,-15.82 -2.52,-5.94 -4.64,-12.18 -8.48,-17.42 -10.48,-1.26 -20.86,1.36 -30.84,4.28 -6.46,-6.52 -2.58,-16.26 0.92,-23.24 7.36,3.6 14.86,6.96 22.64,9.54 4.96,-4.18 11.62,-6.54 15.58,-11.72 -0.08,-3.7 0.92,-9.88 -3.58,-11.26 -11.8,-2.92 -23.88,0.58 -35.8,0.1 -5.68,-0.48 -8.74,-7.36 -6.86,-12.4 5.08,-18.3 14.64,-37.92 32.98,-45.94 z"
     id="path6"
     inkscape:connector-curvature="0"
     style="fill:#f4722b" />
  <path
     d="m 474.54,69.96 c 183.14,0.1 366.3,0.02 549.46,0.04 l 0,60 c -176.36,0.02 -352.74,-0.02 -529.1,0.02 0.54,-5.2 1.6,-10.48 0.64,-15.68 -0.88,-4.24 -4.5,-7.08 -7.16,-10.26 -0.36,-5.44 -0.04,-11.06 -1.78,-16.3 -2.68,-6.74 -7.46,-12.34 -12.06,-17.82 z"
     id="path8"
     inkscape:connector-curvature="0"
     style="fill:#f5e5c1" />
  <path
     d="M 505.96,138.14 C 678.64,137.8 851.32,138.1 1024,138 l 0,50 c -149.34,0 -298.7,0 -448.04,0 -7.92,-0.1 -15.88,0.54 -23.76,-0.4 -4.68,-4.14 -7.3,-10.02 -11.12,-14.88 -9.48,-13.64 -22.92,-23.6 -35.12,-34.58 z"
     id="path10"
     inkscape:connector-curvature="0"
     style="fill:#f5e5c1" />
  <path
     style="fill:#f4722b"
     d="m 479.15,141.4 c -0.54402,-0.004 -1.09374,0.004 -1.65,0.05 0.46,0.74 1.31,2.21 1.75,2.95 7.96,6.64 11.68,18.84 5.5,27.9 -10.52,15.6 -20.85,31.36 -32.05,46.5 -7.34,9.58 -9.25,21.86 -14.35,32.6 -1.4,15.44 0.2,31.49 4.7,46.45 4.46,18.98 7.81,39.43 20.05,55.25 7.94,8.3 15.7,16.91 20.6,27.45 2.1,-24.18 -0.32,-49.53 -10.7,-71.75 0.84,0.18 2.53,0.57 3.35,0.75 9.12,15.86 11.75,34.36 11.75,52.4 -1.16,14.78 0.81,29.94 -4.25,44.2 -0.02,-1.46 -0.11,-4.39 -0.15,-5.85 -9.88,0.4 -19.79,0.5 -29.65,1.4 -19.3,2.22 -38.79,0.81 -58.15,1.05 -10.88,0.34 -22.11,-2.93 -32.65,1.05 0,1.6 -0.03,4.8 -0.05,6.4 4.86,12.06 9.29,24.38 11.25,37.3 1.56,8.6 -0.06,17.48 2.2,26 5.02,-0.22 10.08,-0.68 15,-1.8 22.16,-4.92 44.95,-4.78 67.35,-8 28.32,-2.2 57.07,-5.52 85.25,0.1 4.08,-14.94 2.54,-30.53 4.6,-45.75 2.22,-23.3 2.16,-46.74 3.8,-70.1 -0.34,-23.7 -3.01,-47.41 -1.55,-71.15 7.74,50.72 3.54,102.33 -1.9,153.05 -0.44,11.56 -0.33,23.16 -2.25,34.6 1.76,0.92 3.52,1.89 5.3,2.85 -22.3,0.78 -44.47,-6.37 -66.75,-2.85 5.64,8.82 11.36,17.8 19.3,24.8 16.84,15.1 34.62,29.8 55.7,38.6 8.82,5.22 18.4,8.82 28.2,11.7 16.38,8.72 36.44,7.18 53.2,0.3 13.22,-5.26 28.03,-9.27 37.45,-20.75 2.74,-3.56 8.27,-8.26 4.65,-13 -13.62,-15.64 -29.48,-29.43 -41.6,-46.35 -7,-11.18 -15.85,-21.53 -19.75,-34.35 -3.4,-10.48 -7.46,-20.77 -10.2,-31.45 -5.72,-25.8 -5.91,-52.77 -14.85,-77.85 -3.38,-10.56 -10.46,-19.45 -13.5,-30.15 C 581,275.61 577.15,265.48 571.75,256.1 561.31,237.64 556,216.19 542,199.85 c -6.98,-8.5 -12.03,-18.41 -19.35,-26.65 -6.62,-8.02 -15.36,-13.82 -22.8,-21 -5.77499,-5.25 -12.53987,-10.73884 -20.7,-10.8 z m 42.8,90.75 c 2.4,0.24 4.78,0.49 7.2,0.75 8.4,7.28 15.49,16.29 18.55,27.15 -6.5,-11.02 -14.67,-21.22 -25.75,-27.9 z m -5.6,0.4 c -20.48,4.68 -38.62,20.83 -43.8,41.45 0.8,-16.58 13.22,-30.23 27,-38.15 5,-3.28 11.1,-2.94 16.8,-3.3 z"
     id="path12"
     inkscape:connector-curvature="0" />
  <path
     d="m 475.36,156.92 c 0.3,-4.56 -2.24,-10.68 3.9,-12.52 7.96,6.64 11.66,18.84 5.48,27.9 -10.52,15.6 -20.82,31.38 -32.02,46.52 -7.34,9.58 -9.28,21.82 -14.38,32.56 -4.38,-14.02 -0.42,-28.28 3.62,-41.82 -2.96,-0.2 -5.92,-0.42 -8.88,-0.68 -4.08,10.38 -4.74,21.64 -8.38,32.12 -1.18,-8.02 -0.92,-16.16 0.54,-24.12 1.82,-10.62 0.14,-21.32 -0.02,-31.98 5.1,3.88 7.7,9.76 9.96,15.54 7.02,-2.02 14.44,-4 19.84,-9.22 6.24,-6.1 10.56,-13.8 15.3,-21.04 2.36,-4.08 5.6,-8.26 5.04,-13.26 z"
     id="path14"
     inkscape:connector-curvature="0"
     style="fill:#f5e5c1" />
  <path
     d="m 373.34,187.12 c 8.66,-3.4 17,-10.1 26.84,-8.14 -2.16,3.7 -5.24,6.74 -9.28,8.28 -10.14,4.4 -20.12,9.38 -30.88,12.14 -0.16,-7.46 8.16,-9.16 13.32,-12.28 z"
     id="path16"
     inkscape:connector-curvature="0"
     style="fill:#f5e5c1" />
  <path
     d="M 563.98,206.16 C 717.32,205.78 870.66,206.12 1024,206 l 0,40 c -144.68,0.02 -289.34,-0.04 -434.02,0.02 -2.88,-0.52 -7.52,0.88 -8.44,-2.9 -5.26,-12.6 -11.4,-24.78 -17.56,-36.96 z"
     id="path18"
     inkscape:connector-curvature="0"
     style="fill:#f5e5c1" />
  <path
     d="M 599.74,284.2 C 741.16,283.74 882.58,284.14 1024,284 l 0,30 c -136.8,0 -273.58,0 -410.38,0 -4.46,-10.02 -9.32,-19.84 -13.88,-29.8 z"
     id="path24"
     inkscape:connector-curvature="0"
     style="fill:#f5e5c1" />
  <path
     d="m 243.9,321.32 c 9.12,-0.44 18.06,1.64 27.02,3.02 24.14,2.18 47.14,10.36 70.38,16.76 0,1.06 0.02,3.16 0.02,4.22 -1.2,2.56 -2.34,5.16 -3.4,7.78 -13.82,4.54 -28.06,-0.2 -41.94,-1.64 -6.14,-0.8 -12.44,0.56 -18.48,-0.84 -9.42,-3.9 -16.3,-11.72 -23.64,-18.5 -3.46,-3.54 -9.08,-5.32 -9.96,-10.8 z"
     id="path26"
     inkscape:connector-curvature="0"
     style="fill:#f5e5c1" />
  <path
     d="m 395.24,326.4 c 12.82,6.38 23.04,16.9 33.5,26.5 0.2,1.74 0.6,5.22 0.8,6.98 -10.32,-2.42 -18.02,-9.88 -25.7,-16.68 -4.14,-3.72 -8.18,-7.62 -11.38,-12.22 0.12,-1.42 0.34,-4.28 0.46,-5.7 l 2.32,1.12 z"
     id="path28"
     inkscape:connector-curvature="0"
     style="fill:#f5e5c1" />
  <path
     d="m 367.48,343.78 c 7.24,-5.78 14.64,-11.42 22.78,-15.88 l 2.2,3.08 c 3.2,4.6 7.24,8.5 11.38,12.22 -1.94,1.42 -3.88,2.84 -5.82,4.24 4.84,5.56 10.54,10.26 16.58,14.44 3.36,1.98 4.46,7.5 1.32,10.16 -5.18,5.3 -9.78,11.38 -15.96,15.56 -5.74,0.28 -11.42,-1.62 -15.58,-5.64 -6.42,2 -14.64,-2.24 -14,-9.62 -0.38,-3.44 3.62,-4.48 5.56,-6.5 -5.86,2.1 -11.68,4.58 -17.84,5.6 -3.9,0.84 -5.74,-3.44 -8.12,-5.52 4.48,-4.02 9.74,-7.02 15.28,-9.34 0.76,-4.26 1.54,-8.52 2.22,-12.8 z"
     id="path30"
     inkscape:connector-curvature="0"
     style="fill:#f4722b" />
  <path
     d="M 623.76,366.02 C 757.18,365.98 890.58,366 1024,366 l 0,10 c -133.06,-0.1 -266.1,0.22 -399.16,-0.16 -0.38,-3.28 -0.74,-6.56 -1.08,-9.82 z"
     id="path32"
     inkscape:connector-curvature="0"
     style="fill:#f5e5c1" />
  <path
     d="m 352.26,404.72 c 4.94,-2.64 9.22,0.94 10.96,5.48 4.86,12.06 9.28,24.4 11.24,37.32 0.94,7.38 0.5,14.9 -1.06,22.18 -1.22,-0.1 -3.64,-0.28 -4.86,-0.38 l -0.3,-1.88 c -2.3,-18.66 -7.44,-36.72 -14.32,-54.16 -0.8,-2.82 -1.2,-5.7 -1.66,-8.56 z"
     id="path34"
     inkscape:connector-curvature="0"
     style="fill:#f5e5c1" />
  <path
     d="m 295.84,410 c 15.46,-3.06 31.94,-1.22 46.54,4.66 3.86,-0.42 7.7,-0.92 11.54,-1.38 6.88,17.44 12.02,35.5 14.32,54.16 -0.28,-0.76 -0.82,-2.26 -1.1,-3 -4.86,1.92 -9.8,3.76 -15.04,4.18 -15.74,1.64 -30.94,6.06 -46.28,9.64 -4.3,1.84 -6.76,-5.74 -3.02,-7.54 6.9,-4.44 15.94,-4.28 22.34,-9.74 -14.76,0.72 -28.74,6.52 -43.5,7.44 -2.96,-5.12 3.24,-9.44 6.14,-12.92 10.34,-5.42 22.8,-5.52 32.72,-12.04 -17.42,-0.46 -33.98,6 -50.9,9.16 -0.24,-1.68 -0.74,-5.02 -0.98,-6.7 12.56,-12.08 31.32,-12.88 46.22,-20.84 -12.06,-2.94 -23.86,2.86 -35.78,1.56 0.02,-1.14 0.06,-3.42 0.08,-4.58 5.12,-4.48 10.24,-9.62 16.7,-12.06 z"
     id="path36"
     inkscape:connector-curvature="0"
     style="fill:#f4722b" />
  <path
     d="M 646.3,438.08 C 772.2,437.9 898.1,438.06 1024,438 l 0,10 c -123.58,0.04 -247.16,-0.06 -370.74,0.06 -2.36,-3.3 -4.68,-6.64 -6.96,-9.98 z"
     id="path38"
     inkscape:connector-curvature="0"
     style="fill:#f5e5c1" />
  <path
     d="m 445.44,467.38 c 13.26,-0.34 26.32,-2.8 39.6,-2.82 -2.64,9.66 4.48,17.7 10.12,24.58 4.46,4.98 9.3,9.6 13.9,14.46 1.06,6.02 2.72,11.94 3.38,18.02 -29.84,20.64 -60.3,41.04 -85.66,67.28 -13.94,12.84 -26.18,27.46 -36.46,43.38 -2.54,3 0.02,6.74 0.86,9.88 7.92,19.52 10.66,40.84 9.44,61.8 -0.02,25.34 -0.14,50.72 1.9,76.02 -0.48,13.88 2.42,28.66 -3.58,41.74 -11.66,-2.18 -22.76,-7.46 -34.82,-7.34 -10.5,-0.12 -21.1,0.62 -31.48,-1.54 0.46,-7.08 1.72,-14.06 3.4,-20.94 7.66,-36.12 10.84,-73.02 11.02,-109.88 3.42,-21.84 0.12,-43.82 0.08,-65.74 7.04,-4.72 8.66,-13.36 12.46,-20.38 10.58,-19.74 21.06,-39.68 34.74,-57.52 10.24,-14.42 20.4,-28.9 31.22,-42.9 7.22,-8.96 11.6,-19.98 19.88,-28.1 z"
     id="path40"
     inkscape:connector-curvature="0"
     style="fill:#f4722b" />
  <path
     d="m 512.48,507.52 c 9.22,5.16 15.44,13.92 23.88,20.08 12.58,9.08 25.66,17.6 39.68,24.3 12.72,6.04 24.76,13.8 38.42,17.62 3.24,0.94 6.64,0.26 9.94,0 -0.16,15.64 2.32,31.14 2.78,46.78 16.92,-10.78 35.96,-17.12 54.52,-24.34 15.66,-8.04 32.74,-13.56 50.54,-13.2 4.24,-5.72 8.8,-12.2 15.92,-14.42 6.94,-1.26 10.26,6.24 12.06,11.58 3.02,7.04 0.32,14.84 2,22.04 6.06,13.8 14.9,26.7 17.38,41.84 1.6,10.72 3.34,22.28 -1.22,32.56 -3.92,-7.44 -7.16,-15.44 -12.96,-21.7 -6.52,-7.24 -12.64,-14.82 -18.26,-22.78 -8.1,2.54 -15.98,5.76 -24.34,7.42 -13.5,3.24 -27.6,3.66 -40.74,8.38 -15.9,4.58 -31.02,11.4 -45.78,18.82 -7.32,3.8 -16.66,6.68 -24,1.28 -9.74,-7.52 -21.46,-13.76 -26.94,-25.36 -10.56,-15.36 -22.38,-29.96 -31.04,-46.56 -6.26,-12.24 -13.8,-23.78 -19.78,-36.16 -7.62,-15.94 -17.3,-31.02 -22.06,-48.18 z"
     id="path42"
     inkscape:connector-curvature="0"
     style="fill:#f4722b" />
  <path
     d="M 696.78,520.16 C 805.86,519.78 914.92,520.1 1024,520 l 0,10 c -110.36,0 -220.72,-0.02 -331.08,0.02 1.28,-3.3 2.56,-6.58 3.86,-9.86 z"
     id="path44"
     inkscape:connector-curvature="0"
     style="fill:#f5e5c1" />
  <path
     d="m 784.12,606.08 c 79.96,-0.2 159.92,-0.02 239.88,-0.08 l 0,10 c -78.84,0 -157.68,-0.02 -236.52,0.02 -1.14,-3.32 -2.26,-6.62 -3.36,-9.94 z"
     id="path46"
     inkscape:connector-curvature="0"
     style="fill:#f5e5c1" />
  <path
     d="m 0,748.7 c 22.68,-0.02 45.36,0.22 68.04,0.66 85.88,3.12 171.96,9.92 256.26,27.38 -0.74,3.32 -1.46,6.66 -2.2,10.02 -25.18,-5.8 -50.58,-10.82 -76.28,-13.48 C 164.46,761.5 82.16,757.26 0,757.72 l 0,-9.02 z"
     id="path48"
     inkscape:connector-curvature="0"
     style="fill:#f5e5c1" />
  <path
     d="m 0,764.66 c 15.34,0.66 30.7,0.86 46.06,0.72 50.02,1.56 100.06,4.2 149.82,9.84 14.12,1.32 28.32,2.14 42.24,5.08 27.72,4.62 55.42,9.62 82.52,17.14 -1.06,3.34 -2,6.74 -3.5,9.92 -5.88,2.98 -13.16,3.16 -19.32,0.94 -22.1,-8.06 -44.68,-15.32 -68.02,-18.84 C 154.1,775.52 76.92,770.4 0,771.12 l 0,-6.46 z"
     id="path50"
     inkscape:connector-curvature="0"
     style="fill:#f5e5c1" />
  <path
     d="m 0,778.06 c 69.52,0.76 139.3,4.48 207.8,17.06 22.98,4.44 45.98,9.66 67.72,18.5 -21.7,-0.92 -44.56,-6.26 -65.48,1.92 5.28,11.98 17.66,17.52 27.56,24.96 6.14,4.76 13.72,6.88 21,9.22 11.86,3.68 23.7,7.78 36.12,9.14 -13.26,7.4 -27.34,13.3 -41.96,17.42 -39.32,11.24 -79.96,16.9 -120.56,21.1 -26.62,2.84 -53.36,4.16 -80.1,4.52 -17.34,1.24 -34.74,0.92 -52.1,0.92 l 0,-61.74 c 29.8,0.12 59.7,-1.5 89.08,-6.58 10.56,-2.38 22.06,-4 30.8,-10.86 3.42,-2.78 1.66,-7.82 -1.54,-9.96 C 108.46,805.16 98.9,795.18 85.82,791.84 58,783.78 28.78,782.58 0,782.42 l 0,-4.36 z"
     id="path52"
     inkscape:connector-curvature="0"
     style="fill:#f5e5c1" />
  <path
     d="m 0,790.16 c 28.06,0.14 56.6,0.88 83.74,8.7 5.96,2.12 13.58,4.38 15.56,11.2 -4.24,6.72 -12.4,8.94 -19.58,11 -26,6.56 -53,7.7 -79.72,8 l 0,-38.9 z"
     id="path56"
     inkscape:connector-curvature="0"
     style="fill:#f4722b" />
  <path
     d="m 416.66,802.48 c 18.78,7.78 37.84,16.1 53.28,29.64 8.48,7.56 16.2,17.9 15.16,29.88 -0.38,13.68 -11.18,23.9 -21.22,31.8 -21.82,15.86 -47.46,25.28 -72.94,33.44 -44.04,13.74 -89.52,22.24 -135.1,28.9 C 171.1,967.88 85.5,972.52 0,972.42 l 0,-61.16 c 21.98,0.28 43.94,-0.42 65.88,-1.22 63.6,-3.14 127.3,-6.88 190.32,-16.5 31.96,-4.9 63.9,-10.8 94.78,-20.56 3.52,-0.96 7.18,-2.3 10.88,-1.42 11.02,2.1 23,5.06 33.8,0.54 7.82,-5.22 6.96,-16.04 8.64,-24.22 0.26,-8.38 6.9,-14.06 10.64,-20.9 1.98,-8 1.26,-16.36 1.72,-24.5 z"
     id="path58"
     inkscape:connector-curvature="0"
     style="fill:#f5e5c1" />
  <path
     d="m 310.12,823.46 c 10.78,-1.24 20.86,-6.4 31.84,-5.96 11.5,0.3 22.98,1.34 34.48,1.8 5.76,0.44 12.32,0.36 16.74,4.72 -3.56,11.46 -4,23.54 -4.82,35.44 -8.74,0.56 -17.4,-0.96 -25.72,-3.56 -3.06,-4.66 -6.76,-9.54 -12.66,-10.48 -11.4,-1.86 -22.62,4.58 -34.06,2.76 -15.1,-4.64 -31.12,-5.08 -46.06,-10.4 -8.06,-2.54 -16.74,-4.5 -22.98,-10.6 13.06,-0.66 26.12,0.72 39.18,0.12 8.16,-0.32 16,-2.8 24.06,-3.84 z"
     id="path60"
     inkscape:connector-curvature="0"
     style="fill:#f4722b" />
  <path
     d="m 320.12,863.2 c 9.38,-1.3 18.82,-2.76 28.32,-2.94 -21.02,9.3 -43.62,15.18 -66.28,18.72 13.42,-3.3 25.54,-10.04 37.96,-15.78 z"
     id="path62"
     inkscape:connector-curvature="0"
     style="fill:#f5e5c1" />
</svg>
