<?xml version="1.0" encoding="UTF-8" ?>
<!DOCTYPE svg PUBLIC "-//W3C//DTD SVG 1.1//EN" "http://www.w3.org/Graphics/SVG/1.1/DTD/svg11.dtd">
<svg width="512pt" height="512pt" viewBox="0 0 512 512" version="1.1" xmlns="http://www.w3.org/2000/svg">
<path fill="#3e3e3e" opacity="1.00" d=" M 0.00 0.00 L 512.00 0.00 L 512.00 395.61 C 510.27 398.86 508.39 402.03 506.47 405.17 C 506.35 399.30 508.28 393.65 508.32 387.80 C 507.72 389.64 507.20 391.49 506.68 393.36 C 504.46 393.38 503.24 395.51 501.88 396.93 C 501.82 394.49 501.74 392.07 501.59 389.64 C 499.20 395.11 500.12 401.64 496.47 406.58 C 493.30 411.12 490.72 416.10 486.94 420.19 C 486.34 421.67 485.74 423.15 485.12 424.63 C 485.39 420.96 485.95 417.32 486.51 413.68 C 487.04 413.43 487.57 413.19 488.11 412.95 C 488.43 412.01 488.76 411.08 489.10 410.15 C 488.39 411.08 486.98 412.93 486.28 413.86 C 485.47 405.08 487.90 396.46 487.43 387.71 C 487.87 384.66 489.84 382.08 490.79 379.17 C 487.95 382.13 485.41 385.36 482.55 388.31 C 482.56 387.20 482.59 385.00 482.60 383.90 C 481.69 389.92 477.90 394.76 474.50 399.61 C 474.25 391.61 473.29 383.66 473.19 375.66 C 472.77 375.56 472.37 375.49 471.96 375.41 C 473.03 383.90 473.03 392.57 471.52 401.00 C 471.02 404.26 469.26 407.09 467.91 410.04 C 467.74 405.03 467.91 400.01 467.46 395.02 C 467.07 389.24 465.35 383.65 465.25 377.84 C 463.91 384.21 466.43 390.59 465.24 396.98 C 464.41 401.84 463.30 406.65 462.26 411.47 C 461.96 408.50 461.77 405.53 461.34 402.58 C 461.16 407.04 462.11 411.61 460.81 415.98 C 459.87 419.45 459.00 422.94 458.31 426.48 C 457.59 426.30 456.15 425.94 455.43 425.76 C 455.56 417.52 453.93 409.24 455.35 401.05 C 456.02 397.35 456.35 393.60 456.34 389.85 C 453.97 396.66 453.86 403.94 452.89 411.01 C 451.93 418.28 451.00 425.57 450.77 432.91 C 455.46 433.59 460.17 434.17 464.90 434.49 C 471.30 434.89 477.59 436.30 483.99 436.67 C 493.37 437.33 502.65 438.83 512.00 439.75 L 512.00 512.00 L 0.00 512.00 L 0.00 364.40 C 11.66 368.48 23.97 369.77 36.18 370.98 C 37.50 365.57 39.96 360.45 40.71 354.91 C 40.59 347.24 39.50 339.60 39.70 331.92 C 40.04 325.47 38.33 319.18 36.77 312.99 C 36.72 311.22 36.68 309.45 36.62 307.69 C 35.28 314.16 34.65 320.84 31.86 326.92 C 29.28 332.35 28.10 338.25 26.74 344.07 C 26.45 332.24 27.83 320.44 29.44 308.74 C 28.37 311.38 27.50 314.11 27.18 316.96 C 26.58 322.18 24.35 327.02 23.41 332.17 C 22.36 337.84 21.19 343.48 19.70 349.05 C 19.64 343.42 18.98 337.68 20.51 332.17 C 22.03 323.69 24.89 315.34 24.66 306.65 C 23.23 314.23 22.02 321.92 18.65 328.96 C 18.95 321.86 18.87 314.69 17.42 307.70 C 15.74 311.33 15.16 315.29 14.67 319.22 C 11.39 322.97 10.04 327.82 8.57 332.47 C 8.70 326.28 7.33 319.98 8.92 313.89 C 10.05 309.54 10.75 305.08 10.85 300.57 C 9.54 303.29 8.58 306.15 7.44 308.94 C 6.93 307.33 6.43 305.74 5.92 304.13 C 7.34 311.84 3.88 319.15 2.05 326.47 C 2.13 321.73 0.66 317.22 0.00 312.59 L 0.00 0.00 Z" />
<path fill="#f5e5c1" opacity="1.00" d=" M 218.39 22.59 C 222.57 21.48 226.62 19.46 231.02 19.60 C 271.02 21.20 311.01 22.97 351.01 24.44 C 322.69 25.36 294.35 25.91 266.02 26.73 C 261.03 26.93 255.92 26.54 251.07 27.97 C 236.72 31.68 222.33 35.21 207.98 38.91 C 204.75 39.83 201.37 39.61 198.05 39.61 C 185.92 39.49 173.76 40.27 161.65 39.67 C 180.65 34.30 199.46 28.23 218.39 22.59 Z" />
<path fill="#f5e5c1" opacity="1.00" d=" M 333.98 29.95 C 355.62 29.27 377.27 28.66 398.90 27.96 C 405.84 30.10 412.49 33.13 419.36 35.50 C 422.14 36.67 425.43 37.19 427.47 39.61 C 438.91 52.43 450.51 65.11 461.90 77.98 C 469.38 87.90 476.60 98.02 484.00 108.00 C 483.71 109.97 483.42 111.95 483.13 113.92 C 478.05 112.39 473.37 109.91 468.49 107.91 C 468.34 116.25 468.45 124.58 468.56 132.92 C 468.56 135.77 466.51 138.00 465.09 140.27 C 462.07 137.64 459.55 134.51 458.03 130.78 C 457.29 130.82 455.82 130.89 455.08 130.92 C 452.59 134.19 450.37 137.67 448.26 141.20 C 448.60 128.90 443.37 116.04 432.85 109.16 C 419.37 100.47 403.38 97.16 387.87 94.16 C 382.12 93.25 376.11 90.51 370.46 93.27 C 368.86 91.08 366.59 89.47 363.94 88.80 C 356.61 86.58 349.35 84.13 341.99 82.01 C 336.65 80.20 330.08 83.37 328.82 89.03 C 320.56 116.42 312.39 143.84 304.13 171.24 C 303.23 174.39 302.01 177.78 303.43 180.99 C 304.71 185.11 308.91 187.20 312.79 188.24 C 319.96 190.29 326.98 192.88 334.22 194.66 C 339.11 195.91 344.38 192.80 345.68 187.92 C 345.82 191.83 346.97 196.37 350.92 198.08 C 356.34 200.29 362.30 200.73 367.97 202.07 C 372.87 202.77 378.04 205.25 382.87 202.96 C 386.06 201.68 387.92 198.59 388.71 195.37 C 391.50 198.20 395.34 199.36 398.90 200.86 C 398.02 205.60 396.42 210.27 396.52 215.14 C 397.48 217.30 400.11 216.34 401.96 216.66 C 405.46 216.14 407.85 218.97 410.39 220.84 C 411.15 226.87 412.23 233.11 410.56 239.09 C 409.88 242.41 408.01 245.53 408.20 248.99 C 410.70 251.93 413.49 254.63 415.68 257.84 C 415.30 254.10 412.70 251.26 411.37 247.90 C 411.30 243.80 411.06 239.48 412.66 235.61 C 413.45 233.90 413.32 232.00 413.30 230.18 C 414.26 228.06 415.06 225.89 415.76 223.67 C 416.69 223.51 417.61 223.34 418.55 223.18 C 418.53 227.08 419.18 231.16 421.86 234.17 C 423.92 229.72 426.78 225.74 429.67 221.79 C 426.61 223.61 425.55 227.31 422.63 229.28 C 422.31 226.14 422.42 222.98 422.43 219.83 C 419.48 219.72 416.54 219.64 413.61 219.67 C 411.16 215.54 407.23 211.93 402.11 212.19 C 402.80 207.64 405.39 203.45 405.30 198.83 C 403.11 194.63 397.74 194.07 393.88 192.09 C 392.94 189.78 391.89 187.49 391.42 185.03 C 392.01 180.82 393.43 176.78 394.47 172.66 C 407.94 175.84 423.67 175.98 435.04 166.99 C 440.94 162.95 443.51 156.02 447.25 150.23 C 450.24 145.95 452.48 140.95 456.95 137.95 C 458.68 139.60 460.42 141.25 462.13 142.92 C 462.21 143.75 462.35 145.40 462.42 146.22 C 465.09 145.81 465.55 142.85 466.71 140.88 C 468.18 137.35 471.00 134.54 472.23 130.92 C 472.94 124.62 472.37 118.26 472.57 111.94 C 475.75 114.35 479.07 116.58 482.41 118.76 C 480.52 132.51 477.96 146.18 477.21 160.06 C 475.69 174.36 474.48 188.71 471.86 202.86 C 469.31 218.46 466.39 234.00 463.30 249.50 C 454.31 308.99 445.88 368.56 436.96 428.05 C 435.66 433.77 432.19 438.67 430.19 444.15 C 431.06 432.23 431.19 420.26 432.96 408.42 C 432.07 410.15 431.37 411.96 430.81 413.82 C 427.67 424.82 423.79 435.61 419.39 446.17 C 416.79 439.13 414.55 431.98 413.33 424.56 C 412.71 434.41 412.99 444.32 413.71 454.16 C 411.86 455.09 410.01 456.02 408.16 456.93 C 407.12 454.01 406.28 451.03 405.38 448.08 C 403.84 450.46 402.55 452.99 401.16 455.45 C 400.67 453.15 400.46 450.76 399.47 448.61 C 398.78 448.83 397.38 449.28 396.68 449.50 C 399.03 438.17 400.36 426.62 403.65 415.49 C 404.87 411.85 406.33 408.25 406.93 404.43 C 403.63 407.89 401.66 412.31 399.57 416.54 C 395.23 426.25 391.88 436.34 388.25 446.32 C 386.39 437.26 386.46 427.90 384.19 418.91 C 382.81 408.43 380.16 398.19 378.40 387.78 C 377.94 392.47 378.35 397.19 378.79 401.87 C 379.44 408.24 379.25 414.67 380.06 421.03 C 375.21 425.24 369.82 428.84 365.41 433.53 C 365.03 429.98 363.83 426.49 364.01 422.91 C 365.26 418.64 367.76 414.86 369.04 410.59 C 366.46 412.68 364.39 415.28 362.36 417.89 C 359.87 404.18 355.84 390.78 353.58 377.03 C 353.49 375.64 351.89 375.40 350.99 374.76 C 351.30 376.47 351.72 378.17 352.24 379.84 C 351.85 384.89 352.01 389.95 351.92 395.01 C 351.88 400.02 350.69 404.99 351.16 410.02 C 351.80 417.02 352.51 424.03 353.19 431.00 C 349.01 437.04 345.76 443.71 341.22 449.51 C 339.50 449.23 337.78 448.97 336.07 448.71 C 337.69 436.53 336.43 424.21 338.00 412.03 C 338.12 407.02 339.20 402.10 339.36 397.09 C 336.27 406.55 333.05 415.99 330.91 425.73 C 327.28 427.07 323.84 428.84 320.42 430.63 C 321.11 424.88 323.23 419.46 325.04 414.00 C 329.67 400.05 335.30 386.37 342.75 373.67 C 346.02 368.17 348.72 362.37 351.81 356.78 C 354.21 353.15 356.48 349.39 357.71 345.18 C 353.30 350.07 350.27 355.98 346.16 361.10 C 340.67 367.93 336.11 375.46 332.39 383.39 C 329.49 389.12 328.05 395.43 325.40 401.27 C 322.68 406.90 322.55 413.32 320.25 419.10 C 317.73 425.51 317.35 432.47 315.77 439.12 C 315.32 441.22 313.81 442.88 312.29 444.30 C 310.67 445.95 308.22 444.60 306.23 444.65 C 307.08 441.48 308.73 438.43 308.83 435.11 C 307.99 425.37 306.44 415.70 305.35 405.99 C 305.54 398.66 310.61 392.80 312.72 386.01 C 309.50 389.37 306.94 393.28 304.05 396.92 C 303.73 394.25 303.21 391.61 302.19 389.13 C 301.40 393.47 303.37 398.62 300.23 402.30 C 297.48 405.94 294.66 409.54 292.13 413.35 C 290.52 407.16 289.13 400.89 286.61 394.98 C 290.14 387.59 294.44 380.63 298.99 373.84 C 293.86 379.19 289.68 385.36 285.20 391.25 C 281.69 381.76 276.75 372.92 271.79 364.14 C 271.10 362.81 270.11 361.68 269.06 360.64 C 272.85 367.95 274.28 376.09 276.47 383.96 C 277.53 388.61 278.32 393.34 278.94 398.07 C 279.25 399.38 278.36 400.53 277.84 401.65 C 271.07 413.92 262.72 425.29 256.60 437.92 C 258.41 426.83 257.67 415.57 259.25 404.47 C 260.02 398.34 260.14 392.17 260.63 386.02 C 256.82 402.89 252.93 419.74 248.71 436.51 C 248.03 436.46 246.68 436.35 246.00 436.30 C 245.97 423.15 246.08 409.98 245.78 396.83 C 244.49 389.89 245.38 382.79 244.14 375.85 C 243.00 382.88 242.86 390.01 242.82 397.11 C 242.95 398.94 242.18 400.61 241.16 402.08 C 236.67 408.84 232.93 416.06 228.43 422.81 C 226.03 420.95 226.11 416.81 226.41 413.94 C 227.34 403.21 228.54 392.46 228.45 381.69 C 223.82 387.45 221.98 394.88 220.33 401.95 C 218.54 397.69 216.85 393.39 214.71 389.29 C 213.16 385.93 211.14 382.61 210.88 378.83 L 212.33 377.65 C 212.06 377.58 211.50 377.44 211.23 377.37 C 207.55 388.96 205.45 400.98 203.19 412.92 C 201.82 408.49 200.11 403.79 201.59 399.17 C 204.14 389.17 205.57 378.94 207.94 368.90 C 204.34 375.75 201.45 382.93 198.19 389.93 C 197.62 387.97 196.94 386.01 196.85 383.96 C 198.31 379.37 201.13 375.37 203.03 370.96 C 200.68 373.95 198.47 377.07 195.90 379.89 C 194.24 372.28 190.72 364.90 190.98 357.01 C 194.08 339.25 197.57 321.56 200.80 303.82 C 201.62 299.78 200.77 295.24 197.70 292.31 C 194.87 288.99 190.51 287.65 187.54 284.50 C 185.73 282.53 183.01 281.83 181.07 280.05 C 178.71 276.71 178.30 271.83 174.42 269.68 C 171.70 268.35 168.87 267.23 166.49 265.32 C 166.84 262.93 167.05 260.53 167.21 258.13 C 172.04 253.21 172.94 245.97 171.90 239.43 C 173.79 238.12 175.38 235.83 177.96 236.08 C 181.68 235.92 185.36 234.70 189.09 235.35 C 193.42 236.11 197.85 235.85 202.18 236.59 C 215.55 238.74 229.45 238.90 242.16 244.02 C 248.90 245.99 256.07 249.23 263.09 246.57 C 273.19 244.11 283.53 242.80 293.88 242.01 C 304.21 240.91 314.62 241.76 324.98 241.42 C 331.78 241.32 338.59 241.53 345.36 242.26 C 343.40 238.98 339.46 237.84 337.11 234.90 C 332.58 231.45 329.76 226.24 324.87 223.21 C 315.75 216.95 306.19 211.26 296.13 206.63 C 287.84 202.50 279.05 199.49 270.61 195.71 C 264.12 192.99 257.25 190.49 250.10 191.07 C 245.25 191.57 240.78 189.17 235.99 189.15 C 230.73 189.03 225.53 187.40 220.26 188.37 C 211.28 190.12 202.04 188.02 193.06 189.84 C 187.98 190.95 182.84 189.93 177.72 190.09 C 185.13 155.48 192.40 120.84 199.91 86.26 C 202.03 89.33 203.53 92.83 203.79 96.59 C 204.93 96.63 206.08 96.67 207.23 96.71 C 210.96 88.61 216.73 81.54 219.48 72.99 C 220.63 81.72 222.41 90.36 223.94 99.04 C 224.33 100.20 225.37 100.96 226.12 101.88 C 226.60 105.35 227.47 108.91 226.62 112.40 C 223.43 126.23 220.33 140.09 217.15 153.94 C 215.92 158.92 219.02 164.63 224.08 165.92 C 231.59 167.83 239.27 169.01 246.84 170.68 C 251.29 171.78 256.38 169.65 258.51 165.55 C 259.64 163.04 259.91 160.27 260.38 157.59 C 262.22 161.96 264.64 166.04 266.67 170.33 C 268.15 173.44 270.27 176.77 273.91 177.52 C 279.68 179.06 284.81 175.12 289.71 172.72 C 293.70 170.42 299.02 168.82 300.58 163.98 C 302.17 160.06 300.51 155.83 298.48 152.43 C 296.08 148.41 293.81 144.32 291.25 140.40 C 302.81 138.80 313.42 130.27 316.61 118.92 C 317.67 115.03 318.70 111.09 318.95 107.05 C 318.69 95.98 313.99 84.79 305.30 77.73 C 298.02 72.21 289.21 69.22 280.55 66.63 C 270.56 63.62 260.21 62.09 250.01 59.92 C 245.50 58.75 239.91 60.31 237.75 64.72 C 236.24 68.55 235.70 72.66 234.74 76.64 C 233.81 77.02 232.89 77.39 231.97 77.77 C 231.65 79.14 231.45 80.57 230.81 81.84 C 228.68 85.89 227.78 90.43 226.74 94.85 C 226.56 91.21 225.16 87.86 223.77 84.56 C 222.31 78.42 221.89 72.08 221.51 65.79 C 218.06 68.05 216.25 71.85 214.63 75.49 C 212.42 80.53 209.06 84.94 206.66 89.88 C 205.14 86.13 203.81 82.27 201.57 78.88 C 203.46 68.53 205.87 58.29 208.03 48.00 C 225.33 43.53 242.63 39.02 259.93 34.54 C 263.54 33.69 267.26 33.73 270.94 33.49 C 291.95 32.34 312.96 31.01 333.98 29.95 Z" />
<path fill="#f5e5c1" opacity="1.00" d=" M 148.17 66.19 C 150.31 59.65 151.82 52.89 154.77 46.65 C 158.12 46.65 161.46 46.65 164.80 46.66 C 162.26 55.30 163.34 64.30 163.23 73.18 C 159.89 73.58 156.45 73.09 153.17 73.73 C 154.33 86.18 154.27 98.77 156.63 111.09 C 156.95 113.10 156.80 115.14 156.68 117.16 C 152.28 121.67 149.60 127.56 146.34 132.90 C 146.15 128.49 146.97 123.90 145.29 119.69 C 144.77 119.57 143.75 119.35 143.23 119.23 C 136.89 126.47 130.49 133.63 124.22 140.92 C 132.23 116.02 140.21 91.11 148.17 66.19 Z" />
<path fill="#f5e5c1" opacity="1.00" d=" M 165.92 57.99 C 166.43 54.12 167.82 50.43 168.69 46.64 C 178.83 46.72 188.96 46.65 199.10 46.70 C 190.17 94.21 181.29 141.73 172.25 189.22 C 170.40 189.17 168.55 189.11 166.70 189.08 C 164.82 184.71 161.80 180.85 157.80 178.23 C 151.57 174.14 144.58 171.42 137.90 168.18 C 135.74 167.13 133.46 166.25 131.04 166.08 C 126.29 165.72 121.79 164.03 117.38 162.35 C 118.43 159.39 118.99 156.22 120.56 153.47 C 123.06 150.04 126.00 146.95 129.02 143.98 C 133.34 139.74 136.84 134.77 140.64 130.08 C 140.69 134.19 140.59 138.34 141.61 142.35 C 143.70 140.59 144.46 137.89 145.72 135.57 C 149.34 128.75 153.62 122.30 157.99 115.94 C 159.08 114.18 160.59 112.29 160.09 110.07 C 159.33 104.42 158.32 98.78 158.33 93.05 C 157.89 87.51 157.02 81.98 157.33 76.40 C 159.99 75.78 162.71 76.14 165.38 76.50 C 166.24 70.36 165.55 64.15 165.92 57.99 Z" />
<path fill="#f5e5c1" opacity="1.00" d=" M 226.55 156.49 C 233.26 127.42 239.79 98.31 246.40 69.22 C 263.11 72.66 280.49 74.92 295.70 83.20 C 303.98 87.97 309.09 97.56 308.95 107.06 C 308.50 113.96 306.30 121.32 300.61 125.70 C 293.54 131.77 283.64 132.29 274.79 131.53 C 280.32 141.22 286.01 150.82 291.67 160.44 C 286.75 163.10 281.75 165.63 276.81 168.27 C 270.26 155.49 263.75 142.70 257.23 129.90 C 254.41 140.26 252.26 150.79 249.76 161.22 C 242.03 159.63 234.25 158.23 226.55 156.49 Z" />
<path fill="#f5e5c1" opacity="1.00" d=" M 338.44 91.12 C 346.39 93.69 354.41 96.03 362.33 98.71 C 353.57 127.53 345.02 156.41 336.26 185.22 C 328.35 182.77 320.46 180.22 312.52 177.89 C 320.96 148.91 329.83 120.05 338.44 91.12 Z" />
<path fill="#3e3e3e" opacity="1.00" d=" M 265.67 94.36 C 271.87 95.79 278.80 96.81 283.48 101.56 C 287.41 105.36 287.27 111.91 284.25 116.21 C 282.10 119.03 278.39 120.17 274.96 120.19 C 269.76 120.09 264.78 118.43 259.90 116.81 C 261.87 109.34 263.74 101.84 265.67 94.36 Z" />
<path fill="#f5e5c1" opacity="1.00" d=" M 375.37 101.76 C 392.47 105.11 410.26 107.51 425.63 116.29 C 434.27 121.37 439.72 131.91 437.73 141.91 C 436.35 148.20 434.48 155.08 429.03 159.10 C 424.05 163.27 417.44 164.68 411.09 164.69 C 403.02 164.61 395.06 163.02 387.29 160.96 C 384.50 172.05 381.59 183.11 378.83 194.21 C 371.03 192.67 363.22 191.18 355.45 189.50 C 362.21 160.28 368.87 131.04 375.37 101.76 Z" />
<path fill="#f5e5c1" opacity="1.00" d=" M 272.64 106.11 C 274.05 107.14 276.24 107.64 276.71 109.54 C 275.45 110.83 273.35 109.86 271.77 110.04 C 272.06 108.73 272.35 107.42 272.64 106.11 Z" />
<path fill="#3e3e3e" opacity="1.00" d=" M 389.73 148.16 C 391.44 140.76 393.18 133.37 394.89 125.97 C 401.00 127.26 407.56 128.46 412.44 132.65 C 416.55 136.14 416.83 142.67 414.00 147.01 C 411.83 150.22 407.73 151.32 404.06 151.24 C 399.14 151.03 394.39 149.64 389.73 148.16 Z" />
<path fill="#f5e5c1" opacity="1.00" d=" M 402.38 137.88 C 403.37 138.97 406.87 139.51 405.53 141.33 C 404.08 141.31 402.65 141.03 401.23 140.82 C 401.61 139.83 401.99 138.85 402.38 137.88 Z" />
<path fill="#f4722b" opacity="1.00" d=" M 95.13 166.88 C 102.89 164.51 109.66 169.90 116.50 172.60 C 125.75 176.83 135.34 180.18 145.03 183.22 C 148.41 184.03 150.10 187.38 152.24 189.80 C 154.25 192.59 157.32 194.92 157.83 198.52 C 155.33 198.23 152.84 197.90 150.35 197.63 C 151.11 195.82 151.56 193.89 151.15 191.94 C 149.78 195.04 148.47 198.17 147.04 201.24 C 146.79 199.83 146.57 198.43 146.34 197.03 C 145.55 201.49 145.94 206.03 145.59 210.53 C 143.79 211.96 142.20 213.63 140.81 215.47 C 137.62 216.93 134.27 216.02 131.36 214.38 C 133.24 210.76 131.82 206.79 131.69 202.97 C 131.50 199.70 131.46 196.41 131.30 193.14 C 135.00 193.66 138.64 194.55 142.22 195.66 C 140.69 191.17 135.36 192.36 131.74 192.55 C 132.90 189.24 134.84 186.29 136.09 183.02 C 134.99 183.48 133.09 182.99 132.58 184.40 C 128.26 193.05 132.14 202.99 129.57 212.02 C 126.55 211.18 124.52 208.71 122.37 206.60 C 119.76 206.82 117.18 207.31 114.63 207.90 C 114.50 199.23 114.14 190.49 112.44 181.97 C 112.46 179.95 113.19 178.02 113.55 176.06 C 112.60 176.64 111.68 177.28 110.82 177.99 C 109.45 175.91 108.09 173.83 106.54 171.88 C 107.05 176.28 111.40 179.31 111.09 183.93 C 110.76 191.93 114.40 200.72 109.96 208.10 C 105.91 209.46 101.30 208.76 97.19 207.90 C 92.71 202.68 93.65 195.15 92.24 188.80 C 92.05 185.59 90.22 182.15 91.09 179.10 C 94.50 176.55 98.87 176.16 102.98 176.18 C 101.76 172.93 97.55 173.59 95.00 174.60 C 93.33 175.10 93.00 177.59 91.22 177.77 C 88.93 173.56 93.32 170.25 95.13 166.88 Z" />
<path fill="#f4722b" opacity="1.00" d=" M 78.58 171.80 C 80.73 171.62 83.34 171.15 84.97 172.97 C 89.39 177.51 89.33 184.19 90.35 190.05 C 91.14 196.39 93.26 202.65 92.65 209.11 C 90.89 213.35 86.84 217.22 81.89 216.42 C 80.56 215.16 80.10 213.32 79.27 211.75 C 77.67 208.02 74.67 204.99 73.76 200.95 C 72.83 197.16 70.90 193.74 69.50 190.12 C 68.41 186.17 67.84 182.08 67.40 178.01 C 66.99 176.11 69.01 175.20 70.20 174.21 C 72.58 172.32 75.71 172.22 78.58 171.80 Z" />
<path fill="#3e3e3e" opacity="1.00" d=" M 117.48 183.42 C 121.07 183.14 124.78 183.96 127.06 186.97 C 125.11 187.65 123.27 187.25 121.91 185.64 C 120.47 185.45 119.03 185.29 117.59 185.14 C 117.56 184.71 117.50 183.85 117.48 183.42 Z" />
<path fill="#f4722b" opacity="1.00" d=" M 67.74 190.09 C 68.67 192.87 69.60 195.66 70.72 198.38 C 68.95 198.41 67.19 198.45 65.43 198.49 C 65.86 195.61 66.61 192.78 67.74 190.09 Z" />
<path fill="#f4722b" opacity="1.00" d=" M 149.88 200.60 C 153.50 199.84 157.20 199.63 160.89 199.58 C 162.99 200.58 165.34 200.60 167.62 200.61 C 166.89 203.97 166.41 207.41 165.35 210.70 C 164.12 211.71 162.37 210.77 160.95 210.83 C 156.91 210.32 152.84 210.47 148.78 210.42 C 148.40 210.72 147.63 211.34 147.24 211.64 C 148.30 208.01 149.21 204.33 149.88 200.60 Z" />
<path fill="#f4722b" opacity="1.00" d=" M 53.34 202.38 C 58.97 201.76 64.68 200.27 70.32 201.56 C 71.73 204.87 73.40 208.06 74.83 211.36 C 67.71 211.50 60.58 211.42 53.51 210.53 C 53.51 207.81 53.45 205.10 53.34 202.38 Z" />
<path fill="#f5e5c1" opacity="1.00" d=" M 200.02 201.63 C 205.03 201.36 209.99 200.37 215.02 200.47 C 227.36 200.45 239.70 199.99 252.03 200.74 C 263.69 201.62 273.63 208.53 283.16 214.69 C 289.39 219.99 296.10 224.77 301.92 230.53 C 295.45 229.96 288.98 229.48 282.48 229.63 C 278.91 225.83 274.50 222.98 270.08 220.29 C 265.03 217.32 259.79 214.41 254.03 213.12 C 246.11 211.73 238.09 211.07 230.05 211.29 C 210.09 209.57 190.03 210.29 170.02 210.78 C 170.60 208.72 169.72 205.11 172.64 204.68 C 181.68 203.03 190.88 202.58 200.02 201.63 Z" />
<path fill="#f4722b" opacity="1.00" d=" M 108.04 212.32 C 111.81 211.89 115.35 210.44 119.03 209.64 C 122.86 209.56 125.51 213.55 125.58 217.07 C 126.16 220.47 123.58 223.18 121.27 225.29 C 117.70 228.04 112.66 229.77 108.31 227.88 C 105.77 226.97 103.80 225.08 101.92 223.22 C 103.33 226.34 105.68 228.82 108.89 230.10 C 104.56 232.48 100.67 235.57 96.24 237.77 C 99.14 236.42 102.19 235.34 105.43 235.18 C 103.75 237.44 101.72 239.40 99.49 241.11 C 99.63 244.36 100.01 247.59 100.60 250.80 C 103.61 247.59 102.58 242.86 104.10 239.04 C 105.75 237.08 107.89 235.51 108.93 233.09 C 109.50 233.90 110.08 234.71 110.66 235.53 C 114.46 235.53 118.45 234.81 122.14 235.95 C 129.45 239.94 133.94 247.39 137.59 254.60 C 139.52 257.90 138.37 261.79 138.54 265.38 C 140.43 260.62 140.41 255.19 140.33 250.12 C 138.90 243.67 132.53 240.32 128.39 235.73 C 139.47 234.98 150.48 236.92 161.57 236.52 C 161.40 240.55 162.42 245.24 159.51 248.56 C 157.03 251.82 155.54 255.72 152.88 258.87 C 150.77 261.41 148.55 263.92 147.11 266.93 C 150.59 265.11 152.99 261.91 155.97 259.45 C 156.54 262.96 157.00 266.52 157.17 270.08 C 156.83 271.63 155.13 272.14 153.93 272.85 C 145.10 277.04 136.38 281.47 127.74 286.01 C 121.90 287.39 115.80 287.49 109.81 287.63 C 104.07 280.53 98.78 273.10 92.94 266.07 C 87.86 258.30 80.97 252.02 74.87 245.10 C 71.53 241.17 69.38 236.43 68.07 231.48 C 72.60 231.08 77.66 231.24 81.42 228.26 C 85.28 224.49 88.83 220.41 92.44 216.40 C 94.34 214.48 96.28 212.08 99.15 211.76 C 102.13 211.68 105.06 212.65 108.04 212.32 Z" />
<path fill="#f5e5c1" opacity="1.00" d=" M 169.76 212.54 C 177.10 211.54 184.48 210.30 191.91 210.67 C 197.95 210.83 203.99 210.64 210.03 210.79 C 219.98 211.72 229.98 211.81 239.97 211.64 C 246.78 212.58 253.97 212.37 260.29 215.48 C 268.09 219.20 275.78 223.49 282.09 229.47 C 272.55 230.00 263.33 232.62 254.16 235.11 C 243.68 232.16 232.86 230.51 222.01 229.55 C 209.34 228.42 196.76 225.81 183.99 226.20 C 178.22 226.70 172.42 226.52 166.67 227.10 C 167.72 222.25 169.13 217.48 169.76 212.54 Z" />
<path fill="#f4722b" opacity="1.00" d=" M 130.54 218.30 C 135.64 222.16 141.47 217.45 145.67 214.43 C 151.77 216.42 158.42 215.87 164.77 216.33 C 163.84 221.31 163.48 226.41 162.29 231.33 C 159.50 233.26 156.02 231.78 152.96 231.58 C 142.31 229.88 131.50 230.70 120.78 230.16 C 120.54 229.84 120.07 229.21 119.83 228.90 C 123.32 226.03 127.83 224.63 130.94 221.23 C 130.84 220.50 130.64 219.04 130.54 218.30 Z" />
<path fill="#f4722b" opacity="1.00" d=" M 53.30 216.50 C 61.18 216.30 69.10 216.20 76.99 216.44 C 79.37 216.48 82.55 218.32 82.63 220.83 C 80.85 223.22 78.74 225.42 76.36 227.22 C 73.04 228.28 69.49 228.28 66.03 228.28 C 61.12 228.15 56.14 228.70 51.31 227.57 C 52.17 223.95 51.77 219.84 53.30 216.50 Z" />
<path fill="#f5e5c1" opacity="1.00" d=" M 82.48 271.46 C 85.43 276.60 88.95 281.56 90.47 287.39 C 92.99 292.99 90.40 299.17 88.24 304.46 C 85.39 311.35 82.05 318.02 78.61 324.64 C 76.07 328.60 72.87 332.09 70.43 336.13 C 62.86 337.32 61.80 345.96 60.81 352.11 C 59.51 356.48 61.93 360.83 61.19 365.21 C 59.18 367.74 59.14 363.98 58.35 362.91 C 57.72 370.78 55.68 378.47 54.27 386.23 C 53.25 381.45 51.94 376.74 50.96 371.97 C 51.83 365.16 53.50 358.41 55.97 352.00 C 58.81 342.66 61.46 333.26 64.26 323.91 C 66.04 316.18 70.30 309.38 72.70 301.86 C 75.99 291.74 79.15 281.57 82.48 271.46 Z" />
<path fill="#f5e5c1" opacity="1.00" d=" M 159.29 274.39 C 162.73 275.67 165.96 277.45 169.40 278.77 C 169.31 286.64 172.44 293.93 174.06 301.51 C 166.98 301.59 159.81 301.81 152.84 300.39 C 148.90 299.61 144.89 299.21 140.93 298.57 C 133.55 297.44 126.57 294.61 119.28 293.11 C 119.35 292.70 119.49 291.88 119.56 291.46 C 127.07 291.69 134.77 292.08 142.01 289.73 C 149.20 288.41 156.01 285.65 162.45 282.27 C 163.36 281.56 164.21 280.79 165.00 279.96 C 162.94 278.26 160.27 277.05 159.29 274.39 Z" />
<path fill="#f4722b" opacity="1.00" d=" M 137.89 282.78 C 143.67 280.38 149.37 277.78 155.09 275.23 C 156.68 276.89 158.73 278.28 159.71 280.44 C 153.91 283.50 147.35 284.63 140.96 285.81 C 137.55 286.49 134.06 286.66 130.59 286.42 C 132.52 284.35 135.40 283.85 137.89 282.78 Z" />
<path fill="#f4722b" opacity="1.00" d=" M 175.11 289.29 C 179.60 292.67 184.02 296.15 188.79 299.13 C 189.87 300.01 191.47 300.59 191.94 302.02 C 191.87 304.42 191.26 306.76 190.83 309.12 C 182.03 355.89 173.48 402.71 164.61 449.47 C 163.12 456.62 160.47 463.46 158.97 470.61 C 151.99 470.17 145.05 469.06 138.06 468.75 C 126.29 468.65 114.60 467.23 102.91 466.08 C 88.34 464.25 73.60 464.56 59.05 462.54 C 63.63 450.15 64.68 436.87 68.34 424.24 C 71.90 411.41 73.40 398.14 76.23 385.15 C 77.73 378.56 78.64 371.83 78.31 365.06 C 77.88 359.67 79.39 354.38 81.48 349.47 C 84.62 343.23 87.33 336.80 89.88 330.30 C 99.22 331.33 107.93 335.05 117.01 337.19 C 119.17 337.64 121.29 338.30 123.27 339.29 C 123.29 339.10 123.34 338.72 123.37 338.53 C 113.09 333.73 102.26 330.15 91.34 327.15 C 95.56 316.02 100.68 305.17 102.95 293.41 C 119.97 299.77 138.05 302.33 156.00 304.42 C 161.32 304.65 166.64 304.63 171.96 304.39 C 174.28 304.20 176.86 304.28 178.82 302.79 C 178.31 298.12 175.97 293.89 175.11 289.29 Z" />
<path fill="#f5e5c1" opacity="1.00" d=" M 7.44 308.94 C 8.58 306.15 9.54 303.29 10.85 300.57 C 10.75 305.08 10.05 309.54 8.92 313.89 C 7.33 319.98 8.70 326.28 8.57 332.47 C 10.04 327.82 11.39 322.97 14.67 319.22 C 15.16 315.29 15.74 311.33 17.42 307.70 C 18.87 314.69 18.95 321.86 18.65 328.96 C 22.02 321.92 23.23 314.23 24.66 306.65 C 24.89 315.34 22.03 323.69 20.51 332.17 C 18.98 337.68 19.64 343.42 19.70 349.05 C 21.19 343.48 22.36 337.84 23.41 332.17 C 24.35 327.02 26.58 322.18 27.18 316.96 C 27.50 314.11 28.37 311.38 29.44 308.74 C 27.83 320.44 26.45 332.24 26.74 344.07 C 28.10 338.25 29.28 332.35 31.86 326.92 C 34.65 320.84 35.28 314.16 36.62 307.69 C 36.68 309.45 36.72 311.22 36.77 312.99 C 38.33 319.18 40.04 325.47 39.70 331.92 C 39.50 339.60 40.59 347.24 40.71 354.91 C 39.96 360.45 37.50 365.57 36.18 370.98 C 23.97 369.77 11.66 368.48 0.00 364.40 L 0.00 312.59 C 0.66 317.22 2.13 321.73 2.05 326.47 C 3.88 319.15 7.34 311.84 5.92 304.13 C 6.43 305.74 6.93 307.33 7.44 308.94 Z" />
<path fill="#f5e5c1" opacity="1.00" d=" M 44.64 323.97 C 45.07 318.88 44.07 313.80 44.48 308.71 C 45.31 311.73 45.53 314.86 45.63 317.98 C 45.83 324.34 46.65 330.67 46.57 337.04 C 46.34 341.22 44.55 345.09 43.49 349.09 C 43.77 345.06 43.57 341.02 43.45 336.99 C 43.28 332.61 44.61 328.35 44.64 323.97 Z" />
<path fill="#3e3e3e" opacity="1.00" d=" M 36.48 315.00 L 36.86 315.11 C 37.97 326.19 38.15 337.64 34.26 348.25 C 33.26 344.12 34.01 339.86 33.54 335.68 C 32.85 340.15 33.48 344.65 33.64 349.14 C 33.29 353.46 31.84 357.59 30.74 361.76 C 30.08 361.74 28.75 361.70 28.08 361.68 C 28.30 350.98 30.90 340.54 33.22 330.16 C 34.19 325.08 35.22 320.02 36.48 315.00 Z" />
<path fill="#3e3e3e" opacity="1.00" d=" M 3.03 340.98 C 3.87 336.56 4.86 332.17 5.63 327.74 C 5.47 331.79 5.34 335.85 5.49 339.91 C 5.74 344.73 4.20 349.41 2.78 353.96 C 2.75 349.63 2.20 345.26 3.03 340.98 Z" />
<path fill="#3e3e3e" opacity="1.00" d=" M 10.12 358.25 C 9.08 349.47 11.46 340.71 13.87 332.35 C 14.21 336.83 14.50 341.39 13.75 345.84 C 12.68 350.01 11.13 354.05 10.12 358.25 Z" />
<path fill="#3e3e3e" opacity="1.00" d=" M 33.65 362.27 C 34.86 355.73 36.60 349.30 37.63 342.73 C 38.32 349.44 38.83 356.32 37.31 362.96 C 36.09 362.72 34.87 362.49 33.65 362.27 Z" />
<path fill="#3e3e3e" opacity="1.00" d=" M 210.54 360.44 C 212.31 356.55 212.75 351.95 215.91 348.81 C 214.60 355.01 211.58 360.63 209.00 366.37 C 209.18 364.31 209.65 362.30 210.54 360.44 Z" />
<path fill="#3e3e3e" opacity="1.00" d=" M 3.25 357.01 C 6.15 355.37 3.58 360.33 3.25 357.01 Z" />
<path fill="#3e3e3e" opacity="1.00" d=" M 217.44 357.31 C 217.72 357.30 218.30 357.28 218.58 357.27 C 216.00 363.05 214.23 369.15 212.17 375.12 C 212.74 368.93 215.08 363.02 217.44 357.31 Z" />
<path fill="#f5e5c1" opacity="1.00" d=" M 183.29 397.02 C 185.55 387.36 186.76 377.49 189.06 367.84 C 189.38 373.94 190.39 379.97 191.14 386.02 C 188.69 389.81 185.97 393.40 183.29 397.02 Z" />
<path fill="#f5e5c1" opacity="1.00" d=" M 471.96 375.41 C 472.37 375.49 472.77 375.56 473.19 375.66 C 473.29 383.66 474.25 391.61 474.50 399.61 C 477.90 394.76 481.69 389.92 482.60 383.90 C 482.59 385.00 482.56 387.20 482.55 388.31 C 485.41 385.36 487.95 382.13 490.79 379.17 C 489.84 382.08 487.87 384.66 487.43 387.71 C 487.90 396.46 485.47 405.08 486.28 413.86 C 486.98 412.93 488.39 411.08 489.10 410.15 C 488.76 411.08 488.43 412.01 488.11 412.95 C 487.57 413.19 487.04 413.43 486.51 413.68 C 485.95 417.32 485.39 420.96 485.12 424.63 C 485.74 423.15 486.34 421.67 486.94 420.19 C 490.72 416.10 493.30 411.12 496.47 406.58 C 500.12 401.64 499.20 395.11 501.59 389.64 C 501.74 392.07 501.82 394.49 501.88 396.93 C 503.24 395.51 504.46 393.38 506.68 393.36 C 507.20 391.49 507.72 389.64 508.32 387.80 C 508.28 393.65 506.35 399.30 506.47 405.17 C 508.39 402.03 510.27 398.86 512.00 395.61 L 512.00 398.53 C 506.76 403.54 505.77 410.86 505.02 417.68 C 505.74 417.01 507.17 415.68 507.88 415.01 C 506.94 417.21 505.99 419.41 505.07 421.63 C 507.44 421.01 509.80 420.29 511.96 419.13 L 512.00 420.82 L 512.00 422.07 C 511.83 421.85 511.50 421.41 511.33 421.19 C 510.08 425.42 509.25 429.81 509.45 434.25 C 510.09 434.16 511.36 433.99 512.00 433.91 L 512.00 439.75 C 502.65 438.83 493.37 437.33 483.99 436.67 C 477.59 436.30 471.30 434.89 464.90 434.49 C 460.17 434.17 455.46 433.59 450.77 432.91 C 451.00 425.57 451.93 418.28 452.89 411.01 C 453.86 403.94 453.97 396.66 456.34 389.85 C 456.35 393.60 456.02 397.35 455.35 401.05 C 453.93 409.24 455.56 417.52 455.43 425.76 C 456.15 425.94 457.59 426.30 458.31 426.48 C 459.00 422.94 459.87 419.45 460.81 415.98 C 462.11 411.61 461.16 407.04 461.34 402.58 C 461.77 405.53 461.96 408.50 462.26 411.47 C 463.30 406.65 464.41 401.84 465.24 396.98 C 466.43 390.59 463.91 384.21 465.25 377.84 C 465.35 383.65 467.07 389.24 467.46 395.02 C 467.91 400.01 467.74 405.03 467.91 410.04 C 469.26 407.09 471.02 404.26 471.52 401.00 C 473.03 392.57 473.03 383.90 471.96 375.41 Z" />
<path fill="#f5e5c1" opacity="1.00" d=" M 210.72 384.18 C 212.72 391.94 213.05 400.02 214.71 407.85 C 215.25 411.38 216.67 415.06 215.43 418.61 C 214.05 422.82 212.95 427.11 212.05 431.46 C 210.52 431.29 208.99 431.13 207.46 430.97 C 207.99 415.35 208.36 399.67 210.72 384.18 Z" />
<path fill="#3e3e3e" opacity="1.00" d=" M 482.05 394.98 C 483.41 392.71 484.82 390.46 485.85 388.02 C 484.91 392.74 484.54 397.62 482.98 402.18 C 482.35 402.41 481.10 402.85 480.48 403.08 C 480.77 400.36 480.52 397.38 482.05 394.98 Z" />
<path fill="#f5e5c1" opacity="1.00" d=" M 188.36 398.35 C 189.66 396.28 190.21 393.49 192.27 392.04 C 192.87 394.93 193.58 397.87 193.46 400.84 C 192.40 404.80 190.48 408.45 188.66 412.10 C 187.61 409.98 186.30 408.00 185.28 405.87 C 185.30 403.12 187.33 400.82 188.36 398.35 Z" />
<path fill="#3e3e3e" opacity="1.00" d=" M 502.73 397.99 C 503.89 396.66 504.98 395.27 506.14 393.94 C 506.07 398.42 504.07 402.59 503.66 407.04 C 503.33 410.36 500.29 412.35 498.39 414.80 C 499.52 409.12 500.56 403.38 502.73 397.99 Z" />
<path fill="#3e3e3e" opacity="1.00" d=" M 505.02 417.68 C 505.77 410.86 506.76 403.54 512.00 398.53 L 512.00 420.82 L 511.96 419.13 C 509.80 420.29 507.44 421.01 505.07 421.63 C 505.99 419.41 506.94 417.21 507.88 415.01 C 507.17 415.68 505.74 417.01 505.02 417.68 Z" />
<path fill="#3e3e3e" opacity="1.00" d=" M 474.84 412.20 C 473.86 407.49 475.95 403.19 478.94 399.70 C 477.93 403.94 477.68 408.67 474.84 412.20 Z" />
<path fill="#3e3e3e" opacity="1.00" d=" M 479.12 404.30 C 482.44 404.46 477.57 407.27 479.12 404.30 Z" />
<path fill="#f5e5c1" opacity="1.00" d=" M 237.57 424.08 C 238.69 417.87 240.76 411.84 242.56 405.80 C 241.46 415.71 242.33 425.71 241.74 435.65 C 240.49 431.75 238.32 428.10 237.57 424.08 Z" />
<path fill="#f5e5c1" opacity="1.00" d=" M 280.33 406.23 C 281.30 413.12 281.86 420.05 282.86 426.93 C 282.21 427.99 281.57 429.04 280.93 430.10 C 276.93 430.39 272.92 430.58 268.92 430.59 C 272.12 422.19 276.43 414.31 280.33 406.23 Z" />
<path fill="#3e3e3e" opacity="1.00" d=" M 488.14 424.90 C 489.81 419.26 494.02 414.93 496.73 409.80 C 495.91 414.22 495.58 419.00 492.91 422.79 C 491.95 424.48 489.72 424.31 488.14 424.90 Z" />
<path fill="#3e3e3e" opacity="1.00" d=" M 468.61 421.24 C 467.96 417.66 469.38 414.29 471.62 411.57 C 471.87 415.05 471.48 418.86 468.61 421.24 Z" />
<path fill="#3e3e3e" opacity="1.00" d=" M 495.22 425.10 C 498.64 421.13 500.21 415.96 503.59 411.95 C 503.19 415.39 502.37 418.76 501.49 422.11 L 503.57 422.07 C 502.71 423.23 501.87 424.41 501.02 425.58 C 501.10 424.73 501.27 423.05 501.35 422.20 C 500.42 422.37 498.55 422.72 497.62 422.89 C 497.15 425.96 496.60 429.03 496.03 432.09 C 495.32 431.97 493.90 431.73 493.18 431.61 C 493.62 429.39 493.64 426.89 495.22 425.10 Z" />
<path fill="#3e3e3e" opacity="1.00" d=" M 479.60 411.88 C 480.99 416.70 479.60 421.70 479.73 426.61 C 478.85 426.79 477.10 427.15 476.22 427.33 C 475.13 421.91 476.32 416.34 479.60 411.88 Z" />
<path fill="#f5e5c1" opacity="1.00" d=" M 296.40 429.43 C 298.35 424.48 299.76 419.33 301.85 414.44 C 302.12 423.16 302.05 431.89 301.89 440.62 C 299.21 439.77 296.70 438.31 295.00 436.03 C 294.63 433.73 295.65 431.54 296.40 429.43 Z" />
<path fill="#3e3e3e" opacity="1.00" d=" M 462.76 427.44 C 463.58 424.80 464.89 422.35 466.41 420.05 C 466.18 422.74 466.83 427.66 462.76 427.44 Z" />
<path fill="#3e3e3e" opacity="1.00" d=" M 511.33 421.19 C 511.50 421.41 511.83 421.85 512.00 422.07 L 512.00 433.91 C 511.36 433.99 510.09 434.16 509.45 434.25 C 509.25 429.81 510.08 425.42 511.33 421.19 Z" />
<path fill="#f5e5c1" opacity="1.00" d=" M 367.99 444.99 C 371.33 436.91 373.63 428.01 380.12 421.73 C 381.07 432.57 382.76 443.32 383.72 454.16 C 381.91 450.23 378.57 447.32 376.56 443.51 C 375.40 441.03 374.61 438.36 373.02 436.11 C 370.63 441.02 369.98 446.50 368.11 451.58 C 367.90 449.41 367.13 447.11 367.99 444.99 Z" />
<path fill="#3e3e3e" opacity="1.00" d=" M 470.03 426.43 C 473.38 426.52 468.47 429.37 470.03 426.43 Z" />
<path fill="#f4722b" opacity="1.00" d=" M 483.23 426.25 C 483.75 426.73 483.75 426.73 483.23 426.25 Z" />
<path fill="#3e3e3e" opacity="1.00" d=" M 499.06 432.60 C 500.39 430.26 501.81 427.99 503.33 425.78 C 503.07 428.18 502.80 430.58 502.57 432.99 C 501.40 432.85 500.23 432.72 499.06 432.60 Z" />
</svg>
