<?xml version="1.0" encoding="UTF-8" ?>
<!DOCTYPE svg PUBLIC "-//W3C//DTD SVG 1.1//EN" "http://www.w3.org/Graphics/SVG/1.1/DTD/svg11.dtd">
<svg width="512pt" height="512pt" viewBox="0 0 512 512" version="1.1" xmlns="http://www.w3.org/2000/svg">
<path fill="#f5e5c1" opacity="1.00" d=" M 0.00 0.00 L 0.02 0.00 C 0.02 0.02 0.01 0.07 0.00 0.10 L 0.00 0.00 Z" />
<path fill="#3e3e3e" opacity="1.00" d=" M 0.02 0.00 L 255.50 0.00 C 181.34 16.80 107.11 33.33 32.93 50.03 C 24.49 51.76 16.19 54.15 7.65 55.36 C 9.15 69.56 10.50 83.78 12.09 97.97 C 15.56 121.39 19.01 144.82 22.59 168.22 C 27.91 194.94 32.83 221.76 38.50 248.41 C 43.19 267.44 47.73 286.50 52.48 305.52 C 58.35 325.28 64.43 344.98 70.34 364.74 C 72.51 372.24 75.59 379.43 78.24 386.77 C 83.77 401.27 88.97 415.90 94.69 430.32 C 107.17 455.48 119.80 480.58 132.36 505.71 C 132.74 507.40 134.19 507.36 135.44 506.57 C 251.47 456.44 367.55 406.44 483.56 356.29 C 476.55 343.08 469.16 330.06 462.43 316.72 C 454.50 294.86 446.86 272.90 439.04 251.00 C 435.10 239.26 430.15 227.83 427.38 215.72 C 418.77 181.98 409.92 148.30 401.46 114.52 C 394.56 85.47 387.61 56.43 380.72 27.38 C 379.25 18.33 379.04 9.12 378.08 0.00 L 388.77 0.00 C 393.63 25.64 398.06 51.37 402.89 77.02 C 413.13 123.83 423.48 170.62 433.74 217.43 C 435.78 228.92 440.91 239.49 444.64 250.47 C 451.02 267.77 457.38 285.07 463.76 302.36 C 465.23 306.42 466.60 310.55 468.64 314.38 C 476.62 329.33 484.56 344.30 492.49 359.28 C 422.67 390.59 352.75 421.69 282.89 452.93 C 278.00 455.17 272.96 457.09 268.31 459.79 C 270.81 459.59 273.34 459.39 275.78 458.76 C 354.50 437.94 433.31 417.47 512.00 396.58 L 512.00 512.00 L 280.18 512.00 C 296.99 498.81 314.07 485.96 330.98 472.90 C 343.81 462.87 357.02 453.31 369.61 442.97 C 335.97 450.58 302.46 458.83 268.87 466.69 C 263.31 468.19 257.49 468.86 252.20 471.20 C 224.28 484.81 196.36 498.41 168.43 512.00 L 125.38 512.00 C 119.87 505.03 113.70 498.54 108.64 491.22 C 96.55 468.61 84.66 445.88 72.60 423.25 C 70.80 419.96 68.98 416.66 67.90 413.06 C 59.01 383.68 50.04 354.33 41.12 324.96 C 39.64 320.01 37.92 315.12 36.90 310.04 C 27.32 258.69 17.72 207.35 8.11 156.00 C 5.28 136.73 2.69 117.40 0.46 98.05 L 0.00 99.17 L 0.00 49.45 C 41.52 40.23 82.96 30.63 124.45 21.26 C 82.94 24.92 41.49 29.33 0.00 33.27 L 0.00 0.10 C 0.01 0.07 0.02 0.02 0.02 0.00 Z" />
<path fill="#f5e5c1" opacity="1.00" d=" M 255.50 0.00 L 334.63 0.00 C 307.12 6.68 279.47 12.74 251.92 19.19 C 251.96 22.26 252.61 25.25 253.29 28.22 C 253.58 29.36 252.56 30.24 251.88 30.98 C 236.92 44.35 220.21 55.77 206.64 70.66 C 194.38 85.34 177.71 96.73 169.74 114.66 C 177.69 112.98 185.34 110.25 193.15 108.07 C 210.30 103.93 227.49 99.58 244.96 97.14 C 248.07 98.11 244.44 99.76 242.91 99.84 C 220.06 105.28 197.38 111.42 174.52 116.82 C 172.35 117.35 170.13 117.65 167.91 117.89 C 168.75 112.61 171.72 108.04 174.60 103.65 C 181.99 92.28 192.87 83.90 201.84 73.88 C 210.87 63.23 221.56 54.16 232.42 45.46 C 237.85 40.07 244.64 36.28 250.05 30.89 C 251.46 27.48 249.77 23.45 249.46 19.85 C 178.81 35.88 108.24 52.30 37.63 68.50 C 34.56 68.86 34.26 72.57 34.88 74.95 C 39.88 106.02 44.49 137.16 49.57 168.22 C 63.22 225.59 77.06 282.91 90.76 340.27 C 91.67 344.15 92.37 348.16 94.31 351.69 C 97.85 358.20 101.26 364.79 104.84 371.28 C 184.03 343.69 263.27 316.25 342.46 288.65 C 333.73 281.64 324.81 274.86 315.55 268.57 C 310.81 265.10 305.98 261.73 300.73 259.06 C 307.39 251.44 314.40 244.13 321.40 236.82 C 318.12 241.99 314.37 246.84 310.53 251.60 C 309.39 252.87 311.40 254.02 312.26 254.73 C 322.58 261.98 332.64 269.61 342.27 277.77 C 345.91 280.96 350.39 282.91 354.96 284.37 C 376.34 276.86 397.77 269.47 419.17 262.01 C 414.98 250.83 410.70 239.67 406.49 228.50 C 404.94 224.34 403.11 220.27 402.14 215.93 C 397.27 193.53 392.48 171.11 387.54 148.73 C 380.96 159.79 372.81 169.79 365.03 180.01 C 357.89 188.65 352.65 198.75 344.82 206.84 C 340.96 210.98 337.37 215.35 333.67 219.63 C 331.14 222.48 329.42 226.06 326.38 228.43 C 321.32 232.01 314.34 232.37 308.68 230.05 C 301.98 226.17 297.79 219.26 294.60 212.43 C 291.04 203.42 285.51 195.35 279.33 187.94 C 289.33 184.94 299.38 181.20 309.96 181.22 C 314.31 181.17 318.68 180.32 323.02 180.87 C 327.10 182.60 330.95 184.99 334.36 187.81 C 335.64 192.64 335.49 198.73 331.07 201.97 C 324.81 207.39 315.86 205.29 308.79 208.55 C 315.01 207.70 321.31 206.92 327.35 205.14 C 334.13 203.21 337.65 195.27 336.30 188.70 C 335.63 185.41 332.40 183.76 329.96 181.90 C 325.16 178.11 318.70 179.74 313.10 178.77 C 305.47 177.56 297.56 177.99 290.16 180.27 C 287.59 180.98 284.38 182.27 282.26 179.89 C 281.49 176.20 281.43 172.34 281.50 168.57 C 284.47 166.89 287.74 165.65 290.35 163.37 C 294.54 160.13 297.25 155.51 300.59 151.49 C 304.34 153.10 307.77 155.38 310.61 158.32 C 315.21 162.43 319.69 166.66 324.06 171.01 C 321.19 166.66 317.98 162.54 314.49 158.67 C 309.69 153.34 306.39 146.79 301.13 141.87 C 299.70 140.53 297.23 138.72 295.66 140.89 C 295.49 144.15 297.42 147.60 295.63 150.66 C 295.01 152.10 293.33 152.45 292.07 153.08 C 286.29 155.23 280.34 157.47 274.09 157.55 C 267.76 157.02 261.45 155.14 256.19 151.50 C 256.70 139.64 257.23 127.69 260.26 116.16 C 263.50 106.93 262.75 96.88 260.58 87.50 C 258.20 86.93 255.86 86.19 253.54 85.39 C 250.62 77.54 251.89 69.05 252.75 60.95 C 253.11 58.93 253.24 56.48 255.22 55.32 C 263.54 49.30 272.62 44.42 281.89 40.04 C 290.41 35.38 299.58 32.12 308.59 28.58 C 316.09 25.64 323.68 22.91 331.40 20.60 C 334.52 19.21 337.23 22.07 339.29 24.04 C 339.32 28.56 335.32 31.69 333.53 35.57 C 331.37 38.64 330.74 42.93 327.49 45.10 C 332.30 45.70 336.74 47.78 341.45 48.79 C 344.59 49.44 347.46 50.90 350.11 52.67 C 355.31 50.83 360.53 49.06 365.74 47.25 C 362.23 31.53 359.33 15.70 355.77 0.00 L 378.08 0.00 C 379.04 9.12 379.25 18.33 380.72 27.38 C 387.61 56.43 394.56 85.47 401.46 114.52 C 409.92 148.30 418.77 181.98 427.38 215.72 C 430.15 227.83 435.10 239.26 439.04 251.00 C 446.86 272.90 454.50 294.86 462.43 316.72 C 469.16 330.06 476.55 343.08 483.56 356.29 C 367.55 406.44 251.47 456.44 135.44 506.57 C 134.19 507.36 132.74 507.40 132.36 505.71 C 119.80 480.58 107.17 455.48 94.69 430.32 C 88.97 415.90 83.77 401.27 78.24 386.77 C 75.59 379.43 72.51 372.24 70.34 364.74 C 64.43 344.98 58.35 325.28 52.48 305.52 C 47.73 286.50 43.19 267.44 38.50 248.41 C 32.83 221.76 27.91 194.94 22.59 168.22 C 19.01 144.82 15.56 121.39 12.09 97.97 C 10.50 83.78 9.15 69.56 7.65 55.36 C 16.19 54.15 24.49 51.76 32.93 50.03 C 107.11 33.33 181.34 16.80 255.50 0.00 Z" />
<path fill="#3e3e3e" opacity="1.00" d=" M 334.63 0.00 L 355.77 0.00 C 359.33 15.70 362.23 31.53 365.74 47.25 C 360.53 49.06 355.31 50.83 350.11 52.67 C 347.46 50.90 344.59 49.44 341.45 48.79 C 336.74 47.78 332.30 45.70 327.49 45.10 C 330.74 42.93 331.37 38.64 333.53 35.57 C 335.32 31.69 339.32 28.56 339.29 24.04 C 337.23 22.07 334.52 19.21 331.40 20.60 C 323.68 22.91 316.09 25.64 308.59 28.58 C 299.58 32.12 290.41 35.38 281.89 40.04 C 272.62 44.42 263.54 49.30 255.22 55.32 C 253.24 56.48 253.11 58.93 252.75 60.95 C 251.89 69.05 250.62 77.54 253.54 85.39 C 255.86 86.19 258.20 86.93 260.58 87.50 C 262.75 96.88 263.50 106.93 260.26 116.16 C 257.23 127.69 256.70 139.64 256.19 151.50 C 261.45 155.14 267.76 157.02 274.09 157.55 C 280.34 157.47 286.29 155.23 292.07 153.08 C 293.33 152.45 295.01 152.10 295.63 150.66 C 297.42 147.60 295.49 144.15 295.66 140.89 C 297.23 138.72 299.70 140.53 301.13 141.87 C 306.39 146.79 309.69 153.34 314.49 158.67 C 317.98 162.54 321.19 166.66 324.06 171.01 C 319.69 166.66 315.21 162.43 310.61 158.32 C 307.77 155.38 304.34 153.10 300.59 151.49 C 297.25 155.51 294.54 160.13 290.35 163.37 C 287.74 165.65 284.47 166.89 281.50 168.57 C 281.43 172.34 281.49 176.20 282.26 179.89 C 284.38 182.27 287.59 180.98 290.16 180.27 C 297.56 177.99 305.47 177.56 313.10 178.77 C 318.70 179.74 325.16 178.11 329.96 181.90 C 332.40 183.76 335.63 185.41 336.30 188.70 C 337.65 195.27 334.13 203.21 327.35 205.14 C 321.31 206.92 315.01 207.70 308.79 208.55 C 315.86 205.29 324.81 207.39 331.07 201.97 C 335.49 198.73 335.64 192.64 334.36 187.81 C 330.95 184.99 327.10 182.60 323.02 180.87 C 318.68 180.32 314.31 181.17 309.96 181.22 C 299.38 181.20 289.33 184.94 279.33 187.94 C 285.51 195.35 291.04 203.42 294.60 212.43 C 297.79 219.26 301.98 226.17 308.68 230.05 C 314.34 232.37 321.32 232.01 326.38 228.43 C 329.42 226.06 331.14 222.48 333.67 219.63 C 337.37 215.35 340.96 210.98 344.82 206.84 C 352.65 198.75 357.89 188.65 365.03 180.01 C 372.81 169.79 380.96 159.79 387.54 148.73 C 392.48 171.11 397.27 193.53 402.14 215.93 C 403.11 220.27 404.94 224.34 406.49 228.50 C 410.70 239.67 414.98 250.83 419.17 262.01 C 397.77 269.47 376.34 276.86 354.96 284.37 C 350.39 282.91 345.91 280.96 342.27 277.77 C 332.64 269.61 322.58 261.98 312.26 254.73 C 311.40 254.02 309.39 252.87 310.53 251.60 C 314.37 246.84 318.12 241.99 321.40 236.82 C 314.40 244.13 307.39 251.44 300.73 259.06 C 305.98 261.73 310.81 265.10 315.55 268.57 C 324.81 274.86 333.73 281.64 342.46 288.65 C 263.27 316.25 184.03 343.69 104.84 371.28 C 101.26 364.79 97.85 358.20 94.31 351.69 C 92.37 348.16 91.67 344.15 90.76 340.27 C 77.06 282.91 63.22 225.59 49.57 168.22 C 44.49 137.16 39.88 106.02 34.88 74.95 C 34.26 72.57 34.56 68.86 37.63 68.50 C 108.24 52.30 178.81 35.88 249.46 19.85 C 249.77 23.45 251.46 27.48 250.05 30.89 C 244.64 36.28 237.85 40.07 232.42 45.46 C 221.56 54.16 210.87 63.23 201.84 73.88 C 192.87 83.90 181.99 92.28 174.60 103.65 C 171.72 108.04 168.75 112.61 167.91 117.89 C 170.13 117.65 172.35 117.35 174.52 116.82 C 197.38 111.42 220.06 105.28 242.91 99.84 C 244.44 99.76 248.07 98.11 244.96 97.14 C 227.49 99.58 210.30 103.93 193.15 108.07 C 185.34 110.25 177.69 112.98 169.74 114.66 C 177.71 96.73 194.38 85.34 206.64 70.66 C 220.21 55.77 236.92 44.35 251.88 30.98 C 252.56 30.24 253.58 29.36 253.29 28.22 C 252.61 25.25 251.96 22.26 251.92 19.19 C 279.47 12.74 307.12 6.68 334.63 0.00 Z" />
<path fill="#f4722b" opacity="1.00" d=" M 388.77 0.00 L 512.00 0.00 L 512.00 396.58 C 433.31 417.47 354.50 437.94 275.78 458.76 C 273.34 459.39 270.81 459.59 268.31 459.79 C 272.96 457.09 278.00 455.17 282.89 452.93 C 352.75 421.69 422.67 390.59 492.49 359.28 C 484.56 344.30 476.62 329.33 468.64 314.38 C 466.60 310.55 465.23 306.42 463.76 302.36 C 457.38 285.07 451.02 267.77 444.64 250.47 C 440.91 239.49 435.78 228.92 433.74 217.43 C 423.48 170.62 413.13 123.83 402.89 77.02 C 398.06 51.37 393.63 25.64 388.77 0.00 Z" />
<path fill="#f4722b" opacity="1.00" d=" M 0.00 33.27 C 41.49 29.33 82.94 24.92 124.45 21.26 C 82.96 30.63 41.52 40.23 0.00 49.45 L 0.00 33.27 Z" />
<path fill="#3e3e3e" opacity="1.00" d=" M 333.25 63.40 C 344.32 59.66 355.42 56.01 366.54 52.41 C 367.15 54.56 367.78 56.72 368.26 58.91 C 372.27 78.20 376.51 97.45 380.59 116.72 C 371.83 117.56 363.21 119.41 354.73 121.66 C 347.75 123.29 341.93 128.05 337.69 133.67 C 335.44 136.31 335.55 140.53 337.74 143.17 C 339.49 146.06 340.05 149.51 341.04 152.71 C 342.19 156.99 338.81 160.43 337.15 164.04 C 338.30 161.09 340.19 158.39 340.78 155.25 C 340.42 151.38 338.65 147.82 336.55 144.62 C 335.82 141.12 334.95 137.03 337.21 133.87 C 339.47 129.65 343.53 127.03 347.08 124.04 C 351.48 118.43 354.31 111.80 357.34 105.40 C 360.87 96.60 365.74 87.80 365.19 78.01 C 364.51 72.38 363.14 66.81 361.10 61.51 C 347.95 64.84 335.30 69.86 322.61 74.61 C 319.93 75.49 317.46 76.96 315.93 79.40 C 315.44 79.16 314.44 78.68 313.94 78.44 C 314.35 78.71 315.17 79.25 315.58 79.52 C 317.48 88.90 316.67 98.56 314.62 107.84 C 312.94 114.97 307.73 121.29 300.89 123.98 C 296.35 126.01 291.16 124.26 287.20 121.76 C 283.61 119.10 279.95 116.39 277.22 112.82 C 274.62 109.35 270.96 106.49 270.02 102.05 C 266.10 97.69 265.54 91.41 264.38 85.89 C 269.05 76.76 278.29 70.99 287.81 67.95 C 294.41 65.86 301.44 66.47 308.14 67.72 C 309.58 67.95 310.75 68.88 312.00 69.56 C 319.45 69.00 326.25 65.69 333.25 63.40 Z" />
<path fill="#f5e5c1" opacity="1.00" d=" M 285.84 74.93 C 292.21 71.72 300.73 73.14 305.33 78.72 C 308.96 83.15 310.56 89.02 310.68 94.67 C 307.60 98.24 304.47 101.82 301.16 105.17 C 295.73 107.90 290.11 102.71 284.44 103.48 C 284.32 105.37 284.77 107.21 285.56 108.93 C 283.20 108.11 280.74 107.65 278.25 107.48 C 274.00 102.17 269.07 95.67 270.53 88.47 C 274.14 82.59 279.38 77.55 285.84 74.93 Z" />
<path fill="#f5e5c1" opacity="1.00" d=" M 251.52 96.02 C 251.28 94.54 252.50 93.38 253.04 92.13 C 253.93 97.22 255.53 102.28 255.46 107.48 C 252.81 104.27 252.02 100.03 251.52 96.02 Z" />
<path fill="#f4722b" opacity="1.00" d=" M 0.00 99.17 L 0.46 98.05 C 2.69 117.40 5.28 136.73 8.11 156.00 C 17.72 207.35 27.32 258.69 36.90 310.04 C 37.92 315.12 39.64 320.01 41.12 324.96 C 50.04 354.33 59.01 383.68 67.90 413.06 C 68.98 416.66 70.80 419.96 72.60 423.25 C 84.66 445.88 96.55 468.61 108.64 491.22 C 113.70 498.54 119.87 505.03 125.38 512.00 L 0.00 512.00 L 0.00 99.17 Z" />
<path fill="#3e3e3e" opacity="1.00" d=" M 316.47 112.60 C 320.98 115.61 324.61 119.66 328.49 123.41 C 328.43 123.50 328.32 123.68 328.27 123.78 C 323.75 120.98 317.41 118.46 316.47 112.60 Z" />
<path fill="#f5e5c1" opacity="1.00" d=" M 171.67 149.42 C 173.41 149.24 175.17 149.08 176.92 149.38 C 196.49 152.38 216.03 155.59 235.59 158.70 C 235.84 167.14 235.29 175.57 235.13 184.01 C 234.38 196.75 234.77 209.52 234.05 222.26 C 233.82 222.30 233.36 222.38 233.13 222.42 C 229.07 218.37 226.56 213.00 222.13 209.26 C 221.17 212.58 218.10 214.50 216.06 217.10 C 211.58 222.72 207.64 228.74 203.94 234.89 C 193.44 231.85 183.10 228.08 172.93 224.02 C 159.85 219.90 146.91 215.39 133.91 211.02 C 132.78 210.62 131.64 210.15 130.91 209.15 C 133.32 206.81 135.73 204.44 137.42 201.50 C 141.26 195.17 146.78 190.15 151.94 184.92 C 155.98 180.94 159.83 176.71 164.50 173.43 C 170.41 169.29 175.82 164.46 182.00 160.71 C 177.98 157.51 173.95 154.14 171.67 149.42 Z" />
<path fill="#3e3e3e" opacity="1.00" d=" M 292.79 200.03 C 297.58 203.43 303.62 204.31 308.29 207.91 C 303.43 204.62 297.29 203.94 292.79 200.03 Z" />
<path fill="#f4722b" opacity="1.00" d=" M 84.13 222.06 C 86.80 215.92 92.73 211.85 98.96 209.89 C 101.67 209.67 104.39 209.91 107.10 209.97 C 107.15 210.80 107.24 212.45 107.28 213.28 C 100.49 216.27 97.34 223.32 94.77 229.80 C 93.76 232.41 94.51 235.21 95.17 237.80 C 95.22 239.31 95.25 240.83 95.27 242.35 C 91.59 242.07 86.58 242.02 84.98 237.94 C 83.01 233.02 81.04 226.93 84.13 222.06 Z" />
<path fill="#f5e5c1" opacity="1.00" d=" M 107.28 213.28 C 111.76 212.06 115.69 215.05 119.84 216.13 C 157.44 227.80 194.91 239.92 232.53 251.50 C 237.34 252.42 242.39 255.19 243.80 260.21 C 246.09 265.85 247.01 272.85 242.98 277.95 C 239.74 281.45 235.87 284.67 231.31 286.28 C 228.53 287.45 225.95 285.40 223.36 284.65 C 212.85 281.21 202.27 277.95 191.74 274.56 C 188.61 273.95 185.53 273.25 182.72 271.70 C 157.85 263.80 132.98 255.87 108.10 248.00 C 103.79 246.62 98.15 246.71 95.95 241.98 C 95.85 240.56 95.79 239.11 95.17 237.80 C 94.51 235.21 93.76 232.41 94.77 229.80 C 97.34 223.32 100.49 216.27 107.28 213.28 Z" />
<path fill="#3e3e3e" opacity="1.00" d=" M 104.02 221.10 C 106.13 219.65 108.57 218.78 110.82 217.57 C 138.61 225.94 166.21 234.92 193.93 243.54 C 191.08 245.86 188.03 248.13 186.48 251.58 C 185.60 253.86 182.99 254.17 181.02 255.05 C 179.68 252.15 178.34 249.25 177.01 246.35 C 173.44 247.57 169.88 248.79 166.31 250.00 C 164.35 247.17 162.33 244.39 160.26 241.65 C 157.43 242.87 154.60 244.10 151.78 245.34 C 149.16 242.91 147.27 239.51 144.29 237.59 C 141.90 238.49 139.59 239.61 137.26 240.64 C 135.22 237.85 133.12 235.10 131.03 232.35 C 128.29 233.20 125.60 234.19 122.81 234.86 C 121.25 233.11 120.20 230.99 118.98 229.01 C 116.65 229.90 114.31 230.77 111.96 231.62 C 110.53 228.99 109.12 226.34 107.73 223.70 C 105.35 224.70 102.98 225.71 100.61 226.73 C 101.64 224.80 102.46 222.68 104.02 221.10 Z" />
<path fill="#3e3e3e" opacity="1.00" d=" M 199.65 246.46 C 199.66 246.18 199.67 245.63 199.68 245.35 C 211.34 249.04 223.01 252.69 234.68 256.33 C 238.69 258.87 242.80 262.84 242.47 268.02 C 242.74 274.79 237.29 280.55 231.01 282.19 C 227.01 282.04 221.98 280.54 220.99 276.07 C 219.27 269.85 223.03 263.94 226.17 258.88 C 225.14 260.17 224.12 261.49 222.95 262.67 C 222.20 262.20 221.65 260.57 220.66 261.52 C 217.40 266.55 216.54 273.17 218.75 278.80 C 209.62 276.44 200.78 273.10 191.73 270.44 C 190.08 269.77 187.92 269.49 187.05 267.73 C 185.87 261.47 187.77 254.72 191.95 249.93 C 193.92 247.75 196.87 246.99 199.65 246.46 Z" />
<path fill="#3e3e3e" opacity="1.00" d=" M 407.52 299.68 C 414.27 298.08 421.57 298.34 428.05 300.91 C 437.44 304.53 444.97 312.83 447.35 322.64 C 449.92 331.86 447.77 342.21 441.85 349.71 C 433.76 360.21 419.11 365.14 406.33 361.58 C 395.81 358.85 387.12 350.25 384.19 339.80 C 380.62 327.69 384.99 313.73 394.92 305.91 C 398.62 302.98 402.92 300.78 407.52 299.68 Z" />
<path fill="#f5e5c1" opacity="1.00" d=" M 412.48 315.60 C 420.88 313.63 430.73 318.11 433.26 326.69 C 437.19 337.06 428.65 348.96 417.93 349.93 C 409.04 351.29 399.71 344.82 398.20 335.91 C 396.08 326.57 403.14 316.94 412.48 315.60 Z" />
<path fill="#3e3e3e" opacity="1.00" d=" M 368.22 322.83 C 371.64 324.76 375.00 326.78 378.33 328.87 C 374.24 336.17 370.13 343.46 366.05 350.77 C 374.52 356.85 382.97 362.98 391.42 369.09 C 388.11 373.28 384.66 377.37 381.51 381.69 C 374.10 376.75 367.29 370.97 360.04 365.82 C 355.57 373.42 351.14 381.05 346.76 388.70 C 342.57 385.93 338.36 383.21 334.24 380.35 C 339.07 372.51 343.80 364.59 348.63 356.74 C 341.25 351.39 333.86 346.04 326.45 340.74 C 329.61 336.25 332.88 331.84 336.11 327.41 C 343.03 332.72 349.95 338.05 356.91 343.30 C 360.68 336.48 364.51 329.69 368.22 322.83 Z" />
<path fill="#3e3e3e" opacity="1.00" d=" M 287.52 325.49 C 297.44 322.97 308.61 324.91 316.62 331.45 C 326.78 339.42 331.33 353.86 327.09 366.14 C 322.19 381.52 304.78 391.04 289.14 387.90 C 277.51 385.94 267.56 376.83 264.42 365.49 C 261.08 353.98 264.82 340.79 273.79 332.83 C 277.70 329.34 282.43 326.76 287.52 325.49 Z" />
<path fill="#f5e5c1" opacity="1.00" d=" M 291.51 341.62 C 300.20 339.05 310.89 343.42 313.53 352.50 C 317.58 363.28 308.17 375.54 297.00 375.78 C 287.58 376.66 278.15 368.65 278.21 359.04 C 277.50 350.93 283.72 343.34 291.51 341.62 Z" />
<path fill="#3e3e3e" opacity="1.00" d=" M 238.29 365.51 C 242.19 365.34 246.09 365.26 250.00 365.23 C 250.63 373.58 250.73 381.96 251.33 390.31 C 261.72 390.86 272.09 391.77 282.48 392.18 C 282.03 397.45 281.30 402.69 280.81 407.95 C 271.91 408.07 263.09 406.66 254.22 406.28 C 254.53 415.03 254.67 423.80 255.28 432.55 C 250.25 432.60 245.23 432.40 240.21 432.39 C 239.92 423.09 239.93 413.77 239.68 404.45 C 230.56 404.18 221.44 403.51 212.36 402.69 C 212.73 397.27 213.27 391.87 213.46 386.45 C 222.21 386.98 230.91 388.20 239.66 388.74 C 239.15 381.00 238.73 373.25 238.29 365.51 Z" />
<path fill="#f4722b" opacity="1.00" d=" M 268.87 466.69 C 302.46 458.83 335.97 450.58 369.61 442.97 C 357.02 453.31 343.81 462.87 330.98 472.90 C 314.07 485.96 296.99 498.81 280.18 512.00 L 168.43 512.00 C 196.36 498.41 224.28 484.81 252.20 471.20 C 257.49 468.86 263.31 468.19 268.87 466.69 Z" />
</svg>
