<?xml version="1.0" encoding="UTF-8" ?>
<!DOCTYPE svg PUBLIC "-//W3C//DTD SVG 1.1//EN" "http://www.w3.org/Graphics/SVG/1.1/DTD/svg11.dtd">
<svg width="512pt" height="512pt" viewBox="0 0 512 512" version="1.1" xmlns="http://www.w3.org/2000/svg">
<path fill="#3e3e3e" opacity="1.00" d=" M 0.00 0.00 L 512.00 0.00 L 512.00 512.00 L 440.10 512.00 C 438.13 502.10 436.54 492.13 434.77 482.19 C 430.25 480.83 425.29 481.08 421.06 478.77 C 416.18 476.29 411.23 473.96 406.27 471.65 C 400.79 469.07 397.47 463.77 392.75 460.20 C 390.14 458.18 387.54 456.11 385.42 453.55 C 374.99 441.29 363.58 429.76 354.71 416.25 C 348.92 410.47 345.57 402.87 340.25 396.70 C 337.18 393.34 335.48 388.99 332.33 385.70 C 327.32 380.56 324.14 374.00 319.34 368.69 C 316.18 365.34 314.69 360.83 311.51 357.49 C 304.52 349.66 299.07 340.65 292.36 332.60 C 289.74 329.07 288.07 324.87 284.79 321.84 C 281.72 326.99 277.35 331.72 276.60 337.91 C 273.20 359.65 268.52 381.17 264.47 402.79 C 261.24 418.12 258.76 433.60 255.20 448.85 C 262.68 441.12 270.44 433.67 278.04 426.05 C 283.10 421.25 287.73 415.97 293.28 411.69 C 304.84 429.45 316.42 447.19 328.03 464.92 C 333.59 473.64 339.91 481.95 343.94 491.54 C 348.89 473.73 353.35 455.79 358.41 438.01 C 385.64 462.65 412.78 487.41 440.07 512.00 L 0.00 512.00 L 0.00 0.00 Z" />
<path fill="#f4722b" opacity="1.00" d=" M 124.76 41.65 C 128.10 40.51 131.93 41.76 135.37 40.55 C 135.62 40.82 136.11 41.37 136.36 41.64 C 143.85 49.95 150.45 59.08 158.56 66.82 C 170.30 81.37 180.99 96.78 192.43 111.60 C 197.13 117.82 201.49 124.30 206.61 130.20 C 211.06 135.28 214.19 141.35 218.68 146.39 C 223.22 151.59 226.41 157.79 231.02 162.93 C 235.60 168.15 238.86 174.37 243.45 179.58 C 248.03 184.82 251.34 191.02 255.93 196.26 C 266.32 211.08 277.54 225.30 288.21 239.92 C 294.47 247.07 299.22 255.37 305.33 262.65 C 306.83 264.91 309.86 267.30 308.59 270.32 C 305.41 272.90 302.38 275.66 299.29 278.35 C 296.35 278.88 292.56 279.07 290.37 276.63 C 286.70 272.93 283.23 269.05 279.93 265.03 C 229.15 205.49 178.32 145.98 127.47 86.51 C 122.12 80.24 116.66 74.07 111.51 67.64 C 109.14 64.93 106.68 62.31 104.24 59.67 C 110.57 53.13 117.90 47.62 124.76 41.65 Z" />
<path fill="#f5e5c1" opacity="1.00" d=" M 136.36 41.64 C 140.72 41.65 145.00 42.60 149.37 42.59 C 152.75 46.63 156.29 50.55 159.52 54.72 C 159.46 58.77 158.63 62.76 158.56 66.82 C 150.45 59.08 143.85 49.95 136.36 41.64 Z" />
<path fill="#3e3e3e" opacity="1.00" d=" M 129.04 49.73 C 137.62 49.35 144.03 59.86 138.98 67.08 C 135.07 74.55 123.16 74.14 119.52 66.65 C 115.24 59.69 121.08 49.98 129.04 49.73 Z" />
<path fill="#f5e5c1" opacity="1.00" d=" M 123.25 56.02 C 123.80 53.78 126.28 53.55 127.94 52.50 C 132.63 52.16 137.74 55.52 137.89 60.50 C 137.42 60.46 136.49 60.36 136.03 60.32 C 135.01 59.91 133.99 59.50 132.98 59.07 C 131.99 58.73 131.00 58.40 130.00 58.08 C 127.77 57.33 125.53 56.60 123.25 56.02 Z" />
<path fill="#f4722b" opacity="1.00" d=" M 85.28 75.27 C 90.54 70.83 95.73 66.29 101.03 61.88 C 103.75 64.66 106.16 67.71 108.63 70.71 C 114.02 76.83 119.24 83.08 124.56 89.26 C 177.05 150.81 229.56 212.34 282.07 273.87 C 284.01 276.24 286.38 278.35 287.78 281.11 C 288.19 283.52 287.79 285.96 287.62 288.38 C 283.66 291.16 280.37 294.74 276.40 297.52 C 267.63 288.01 258.66 278.68 249.34 269.72 C 242.85 261.87 234.72 255.57 228.31 247.66 C 224.46 243.18 219.72 239.58 215.90 235.08 C 210.74 228.93 204.31 224.00 199.26 217.75 C 195.44 212.91 190.35 209.29 186.39 204.58 C 182.12 199.53 176.97 195.32 172.74 190.24 C 162.78 179.20 151.85 169.08 141.59 158.35 C 137.99 153.64 133.48 149.80 129.32 145.63 C 124.09 139.54 118.11 134.18 112.56 128.39 C 107.18 121.47 100.18 116.08 94.56 109.37 C 89.32 102.97 82.91 97.67 77.61 91.33 C 78.66 87.79 78.27 83.94 79.65 80.50 C 81.17 78.41 83.34 76.93 85.28 75.27 Z" />
<path fill="#f5e5c1" opacity="1.00" d=" M 120.17 61.15 C 121.79 61.41 123.40 61.70 125.00 62.01 C 128.67 63.39 132.61 64.04 136.11 65.87 C 135.28 69.82 130.37 70.13 127.14 69.55 C 123.05 68.87 121.27 64.64 120.17 61.15 Z" />
<path fill="#f5e5c1" opacity="1.00" d=" M 111.51 67.64 C 116.66 74.07 122.12 80.24 127.47 86.51 C 126.50 87.43 125.53 88.34 124.56 89.26 C 119.24 83.08 114.02 76.83 108.63 70.71 C 110.07 70.15 110.92 69.02 111.51 67.64 Z" />
<path fill="#3e3e3e" opacity="1.00" d=" M 91.45 81.48 C 93.35 77.44 98.41 75.21 102.56 77.21 C 105.83 78.46 107.38 81.82 108.37 84.93 C 107.50 89.14 104.80 94.00 99.83 93.72 C 93.55 94.64 88.20 86.98 91.45 81.48 Z" />
<path fill="#f5e5c1" opacity="1.00" d=" M 93.68 83.20 C 94.90 81.90 96.07 80.57 97.22 79.21 L 98.29 80.16 C 98.43 83.46 97.03 86.62 96.43 89.83 C 95.97 89.77 95.06 89.64 94.61 89.58 C 93.70 87.56 93.44 85.38 93.68 83.20 Z" />
<path fill="#f5e5c1" opacity="1.00" d=" M 102.58 81.13 C 103.03 81.21 103.94 81.39 104.39 81.47 C 105.68 83.98 105.50 86.73 104.54 89.31 C 103.16 90.01 101.76 90.70 100.35 91.34 C 100.84 87.89 101.67 84.49 102.58 81.13 Z" />
<path fill="#f5e5c1" opacity="1.00" d=" M 431.83 123.38 C 435.74 122.40 439.62 123.90 443.30 125.08 C 449.22 126.74 454.58 129.95 459.60 133.40 C 466.27 139.81 473.06 146.10 479.44 152.80 C 465.85 189.54 452.72 226.46 439.22 263.24 C 438.05 266.24 437.50 269.73 434.89 271.89 C 431.46 263.18 427.84 254.53 424.89 245.64 C 418.65 252.22 413.76 259.93 407.85 266.80 C 407.08 256.73 405.67 246.73 404.76 236.68 C 408.74 225.98 411.59 214.91 415.20 204.09 C 416.63 198.99 418.44 194.01 419.81 188.90 L 420.19 188.17 C 425.00 172.11 430.13 156.15 435.07 140.13 C 436.01 136.94 437.72 133.94 437.78 130.54 C 438.10 130.12 438.74 129.29 439.06 128.88 C 436.83 126.81 434.36 125.05 431.83 123.38 Z" />
<path fill="#f5e5c1" opacity="1.00" d=" M 410.06 144.68 C 411.76 137.44 414.82 130.60 416.90 123.47 C 419.96 123.54 423.02 123.66 426.08 123.68 C 429.89 124.18 432.98 126.47 435.87 128.83 C 430.99 147.76 424.47 166.22 418.81 184.93 C 417.02 191.01 414.97 197.02 413.18 203.11 C 410.20 212.38 407.43 221.71 404.39 230.95 C 403.67 232.91 403.49 235.00 403.33 237.07 C 399.99 240.49 396.92 244.17 393.49 247.51 C 389.65 251.27 386.49 255.76 381.99 258.81 C 381.49 258.37 380.50 257.49 380.00 257.05 C 387.51 234.21 394.65 211.25 402.16 188.41 C 404.48 181.66 404.85 174.47 406.23 167.50 C 407.57 159.90 408.79 152.29 410.06 144.68 Z" />
<path fill="#f5e5c1" opacity="1.00" d=" M 363.27 199.19 C 366.77 199.60 370.27 200.09 373.76 200.59 C 368.80 216.24 364.20 232.01 358.92 247.56 C 359.77 231.40 361.98 215.32 363.27 199.19 Z" />
<path fill="#f5e5c1" opacity="1.00" d=" M 59.10 214.34 C 63.70 212.96 68.45 214.52 72.95 215.59 C 77.89 217.60 82.55 220.24 87.34 222.56 C 88.28 225.05 90.46 227.31 90.41 230.01 C 86.60 236.88 82.07 243.34 78.15 250.15 C 76.74 253.58 75.65 257.23 75.38 260.94 C 76.70 266.74 79.37 273.08 85.42 275.24 C 84.86 280.51 78.40 283.44 79.46 289.02 C 79.65 291.40 80.36 293.70 80.88 296.02 C 84.95 299.18 89.65 302.88 95.16 301.26 C 99.29 298.75 102.43 294.94 105.95 291.68 C 110.20 291.31 114.66 289.02 118.77 291.14 C 123.58 293.26 129.60 294.53 132.28 299.56 C 135.19 306.06 136.30 313.21 139.12 319.75 C 141.45 323.42 145.60 326.01 149.97 326.28 C 154.99 326.63 160.04 326.54 165.03 327.18 C 169.57 331.09 171.97 336.80 172.99 342.59 L 171.48 342.26 C 171.39 343.47 171.28 344.68 171.16 345.89 C 169.48 361.04 168.57 376.33 167.23 391.54 C 161.58 390.41 155.87 389.62 150.15 389.08 C 150.02 377.66 151.46 366.30 151.55 354.89 C 151.88 350.84 152.99 346.81 152.36 342.71 C 151.92 342.48 151.03 342.01 150.59 341.78 C 150.55 342.46 150.47 343.83 150.43 344.51 C 141.62 343.76 132.79 343.40 123.98 342.62 C 113.82 342.27 103.78 340.14 93.58 340.27 C 93.72 346.55 92.64 352.74 92.14 358.98 C 90.97 367.35 91.56 375.87 90.18 384.23 C 90.32 384.71 90.61 385.66 90.75 386.13 C 97.54 385.95 104.18 387.59 110.95 387.76 C 118.24 388.64 125.66 388.05 132.89 389.50 C 137.66 390.50 142.55 390.53 147.34 391.37 C 148.03 392.05 147.98 394.37 149.38 393.70 C 149.73 393.15 150.42 392.05 150.77 391.50 C 174.80 394.61 198.94 396.96 222.97 400.13 C 230.13 400.74 237.23 401.86 244.38 402.60 C 238.76 404.13 233.29 406.14 227.74 407.89 C 225.59 408.53 223.41 409.52 221.12 409.10 C 206.46 407.03 191.78 405.12 177.11 403.18 C 172.38 402.28 167.52 402.72 162.81 401.76 C 154.79 400.21 146.60 400.07 138.50 399.26 C 129.12 397.42 119.56 396.80 110.09 395.60 C 99.76 394.68 89.50 393.04 79.16 392.26 C 78.15 393.93 77.15 395.88 74.84 395.54 C 77.16 389.59 79.10 383.32 83.09 378.21 C 85.41 373.58 84.94 368.09 84.34 363.10 C 82.32 355.42 76.09 349.05 68.68 346.35 C 64.80 344.41 60.75 342.87 56.62 341.59 C 53.60 340.86 52.15 337.82 51.10 335.19 C 49.06 328.34 47.57 321.31 45.27 314.54 C 40.65 304.80 35.04 295.55 30.41 285.81 C 28.00 278.29 26.51 270.48 24.34 262.88 C 22.56 257.40 23.78 251.61 23.74 245.99 C 23.46 241.02 26.68 236.94 28.58 232.61 C 30.16 229.64 31.10 225.95 34.29 224.24 C 37.70 222.07 40.83 219.45 44.35 217.46 C 49.12 215.84 54.22 215.56 59.10 214.34 Z" />
<path fill="#f5e5c1" opacity="1.00" d=" M 307.09 257.79 C 310.10 257.30 313.09 256.62 316.13 256.32 C 317.75 259.57 320.77 262.33 321.60 265.84 C 319.49 270.64 316.78 275.16 314.59 279.93 C 320.97 286.42 326.51 293.68 333.06 300.00 C 339.95 306.47 345.53 314.12 351.97 321.01 C 363.04 333.65 374.78 345.68 385.77 358.40 C 395.63 369.10 405.54 379.76 415.14 390.69 C 419.97 396.51 425.92 401.44 430.12 407.75 C 440.38 430.03 450.82 452.24 460.83 474.62 C 450.46 473.58 440.13 472.18 429.91 470.15 C 423.36 468.69 417.45 465.30 411.55 462.26 C 404.69 456.54 397.83 450.75 391.48 444.46 C 383.04 434.29 373.89 424.67 366.28 413.84 C 346.19 386.85 326.42 359.62 306.15 332.77 C 299.12 323.97 293.21 314.33 286.23 305.49 C 280.49 304.89 274.91 308.15 269.06 307.61 C 267.15 304.43 264.87 301.48 262.27 298.83 C 262.51 296.46 263.38 294.21 264.69 292.23 C 268.42 295.46 271.34 299.71 274.56 303.49 C 274.92 303.47 275.64 303.43 276.00 303.41 C 281.16 298.67 287.18 294.81 291.58 289.29 C 291.62 287.81 291.64 286.32 291.64 284.84 C 292.12 282.18 294.42 281.33 296.88 281.78 C 298.38 282.43 300.30 282.96 301.57 281.55 C 306.38 277.94 310.67 273.70 315.37 269.95 C 315.40 269.61 315.46 268.93 315.49 268.59 C 312.72 264.98 308.93 262.01 307.09 257.79 Z" />
<path fill="#3e3e3e" opacity="1.00" d=" M 293.28 268.01 C 294.56 266.41 295.46 263.40 297.98 263.64 C 299.88 264.22 302.07 265.64 301.70 267.94 C 301.93 271.04 298.29 272.48 295.80 271.28 C 294.87 270.26 294.09 269.11 293.28 268.01 Z" />
<path fill="#3e3e3e" opacity="1.00" d=" M 273.69 283.97 C 274.41 282.17 276.33 281.47 277.86 280.53 C 279.30 281.73 281.82 282.74 281.54 285.03 C 281.92 287.79 278.78 288.58 276.96 289.73 C 275.49 288.10 272.90 286.55 273.69 283.97 Z" />
<path fill="#f5e5c1" opacity="1.00" d=" M 450.22 299.43 C 460.10 295.84 470.06 292.48 479.97 288.97 C 480.17 294.48 480.99 299.93 481.57 305.41 C 471.12 303.41 460.67 301.42 450.22 299.43 Z" />
<path fill="#3e3e3e" opacity="1.00" d=" M 102.58 301.58 C 106.35 297.48 111.71 294.69 117.39 295.30 C 121.88 295.45 125.09 299.01 128.16 301.85 C 131.05 304.35 131.12 308.40 132.17 311.82 C 132.91 315.21 134.34 318.53 134.33 322.04 C 134.36 324.07 132.45 325.18 131.22 326.48 C 127.12 325.83 123.01 325.26 118.89 324.69 C 114.46 324.14 109.65 325.60 105.50 323.42 C 102.62 322.18 100.42 319.89 98.44 317.53 C 98.65 311.99 99.59 306.34 102.58 301.58 Z" />
<path fill="#f5e5c1" opacity="1.00" d=" M 219.57 294.96 C 226.07 302.88 232.52 310.84 238.95 318.82 C 229.99 314.35 221.04 309.89 212.10 305.39 C 214.60 301.92 217.09 298.45 219.57 294.96 Z" />
<path fill="#f4722b" opacity="1.00" d=" M 345.02 296.53 C 359.33 297.89 373.61 299.76 387.96 300.67 C 382.96 304.24 377.97 307.86 373.42 311.98 C 387.01 319.19 401.21 325.21 414.89 332.23 C 414.92 333.59 413.39 333.93 412.55 334.67 C 407.24 338.27 402.06 342.07 396.90 345.88 C 408.09 354.45 419.12 363.29 430.88 371.07 C 437.60 376.04 444.14 381.27 450.96 386.11 C 452.16 386.98 453.19 388.07 454.18 389.17 C 446.86 390.25 439.69 392.29 432.31 392.94 C 427.14 388.63 423.44 382.95 418.39 378.56 C 416.62 375.74 414.61 373.09 411.86 371.16 C 406.19 365.48 401.45 358.91 395.64 353.37 C 392.00 349.97 389.24 345.78 385.70 342.29 C 381.45 336.91 376.39 332.25 372.11 326.89 C 364.37 319.94 358.34 311.39 351.14 303.96 C 349.29 301.33 347.26 298.83 345.02 296.53 Z" />
<path fill="#f5e5c1" opacity="1.00" d=" M 102.69 317.06 C 100.78 308.36 107.77 300.04 116.08 298.41 C 117.51 298.25 118.74 298.74 119.76 299.89 C 115.29 302.25 110.72 305.67 109.37 310.79 C 109.04 315.53 112.41 319.14 115.09 322.62 C 110.52 322.43 105.42 321.00 102.69 317.06 Z" />
<path fill="#f5e5c1" opacity="1.00" d=" M 414.17 314.37 C 426.15 315.88 438.13 317.38 450.11 318.88 C 449.69 324.17 448.28 329.25 445.25 333.66 C 434.94 327.14 424.54 320.78 414.17 314.37 Z" />
<path fill="#f4722b" opacity="1.00" d=" M 276.60 337.91 C 277.35 331.72 281.72 326.99 284.79 321.84 C 288.07 324.87 289.74 329.07 292.36 332.60 C 299.07 340.65 304.52 349.66 311.51 357.49 C 314.69 360.83 316.18 365.34 319.34 368.69 C 324.14 374.00 327.32 380.56 332.33 385.70 C 335.48 388.99 337.18 393.34 340.25 396.70 C 345.57 402.87 348.92 410.47 354.71 416.25 C 363.58 429.76 374.99 441.29 385.42 453.55 C 387.54 456.11 390.14 458.18 392.75 460.20 C 397.47 463.77 400.79 469.07 406.27 471.65 C 411.23 473.96 416.18 476.29 421.06 478.77 C 425.29 481.08 430.25 480.83 434.77 482.19 C 436.54 492.13 438.13 502.10 440.10 512.00 L 440.07 512.00 C 412.78 487.41 385.64 462.65 358.41 438.01 C 353.35 455.79 348.89 473.73 343.94 491.54 C 339.91 481.95 333.59 473.64 328.03 464.92 C 316.42 447.19 304.84 429.45 293.28 411.69 C 287.73 415.97 283.10 421.25 278.04 426.05 C 270.44 433.67 262.68 441.12 255.20 448.85 C 258.76 433.60 261.24 418.12 264.47 402.79 C 268.52 381.17 273.20 359.65 276.60 337.91 Z" />
<path fill="#f5e5c1" opacity="1.00" d=" M 94.29 371.12 C 94.48 361.56 95.29 352.00 96.48 342.52 C 110.82 345.25 125.49 344.81 139.94 346.45 C 139.73 347.77 139.53 349.10 139.32 350.43 C 142.43 351.40 145.67 351.88 148.93 351.91 C 148.84 355.35 148.63 358.78 148.35 362.22 C 144.48 362.20 139.60 361.45 136.92 364.98 C 135.49 366.88 136.71 369.37 138.32 370.72 C 140.72 373.22 144.48 372.55 147.59 372.78 C 147.31 375.70 146.92 378.62 146.56 381.54 C 143.27 381.48 139.95 381.25 136.70 381.80 C 134.72 386.24 141.40 385.59 142.70 388.12 C 140.75 387.28 138.61 387.20 136.54 386.89 C 122.14 385.57 107.83 383.20 93.37 382.48 C 93.47 378.94 93.61 375.41 93.73 371.88 L 94.29 371.12 Z" />
<path fill="#f5e5c1" opacity="1.00" d=" M 172.61 362.44 C 172.66 356.41 173.82 350.44 173.70 344.40 C 195.18 346.53 216.63 349.05 238.15 350.80 C 244.33 357.56 249.99 364.76 256.09 371.59 C 228.61 368.71 201.11 365.94 173.61 363.25 C 173.36 363.05 172.86 362.64 172.61 362.44 Z" />
<path fill="#f5e5c1" opacity="1.00" d=" M 70.85 350.99 C 75.79 353.91 80.04 358.49 81.43 364.18 C 82.14 368.60 81.78 373.14 80.96 377.52 C 78.82 375.40 77.18 372.86 75.37 370.47 C 74.57 369.19 72.74 369.01 71.46 369.59 C 66.36 371.66 61.41 374.40 55.97 375.40 C 53.49 374.69 51.12 373.67 48.65 372.94 C 48.46 371.82 48.27 370.70 48.09 369.59 C 51.23 369.30 54.36 368.86 57.41 368.06 C 61.96 366.48 64.95 362.46 67.96 358.93 C 69.92 356.75 70.10 353.68 70.85 350.99 Z" />
<path fill="#f5e5c1" opacity="1.00" d=" M 172.43 365.32 C 194.95 367.39 217.47 369.70 239.95 372.16 C 243.29 372.45 246.67 372.48 249.96 373.15 C 253.09 373.47 256.42 373.25 259.24 374.88 C 249.89 377.13 240.39 378.72 231.01 380.85 C 240.32 386.15 249.29 392.05 258.79 397.01 C 258.64 397.28 258.36 397.80 258.21 398.06 C 254.47 399.00 250.89 401.10 246.91 400.55 C 241.94 400.16 236.97 399.63 232.05 398.85 C 226.38 398.31 220.70 397.70 215.07 396.85 C 200.00 395.17 184.93 393.45 169.91 391.42 C 170.68 382.71 171.29 373.98 172.43 365.32 Z" />
<path fill="#f5e5c1" opacity="1.00" d=" M 454.87 393.91 C 468.81 399.70 482.63 405.78 496.53 411.69 C 494.66 415.95 492.70 420.17 490.97 424.48 C 488.19 421.41 484.84 418.97 481.70 416.31 C 472.77 408.83 463.79 401.40 454.87 393.91 Z" />
<path fill="#f5e5c1" opacity="1.00" d=" M 206.15 450.62 C 217.57 449.19 228.89 446.94 240.37 446.09 C 230.55 452.27 220.53 458.11 210.57 464.06 C 209.10 459.58 207.59 455.11 206.15 450.62 Z" />
<path fill="#f5e5c1" opacity="1.00" d=" M 274.96 495.48 C 282.03 485.06 288.92 474.52 295.97 464.09 C 296.50 476.56 296.95 489.04 297.43 501.52 C 289.94 499.52 282.43 497.57 274.96 495.48 Z" />
</svg>
