<?xml version="1.0" encoding="UTF-8" ?>
<!DOCTYPE svg PUBLIC "-//W3C//DTD SVG 1.1//EN" "http://www.w3.org/Graphics/SVG/1.1/DTD/svg11.dtd">
<svg width="512pt" height="512pt" viewBox="0 0 512 512" version="1.1" xmlns="http://www.w3.org/2000/svg">
<path fill="#3e3e3e" opacity="1.00" d=" M 0.00 0.00 L 36.05 0.00 C 31.87 7.90 27.67 15.80 24.31 24.09 C 19.48 34.48 14.66 44.93 11.39 55.94 C 10.15 60.18 7.61 64.38 8.35 68.93 C 9.02 71.42 12.03 72.34 14.25 71.34 C 15.93 69.98 16.25 67.72 16.98 65.81 C 21.38 53.83 25.80 41.84 31.51 30.41 C 35.90 20.00 41.16 10.02 46.35 0.00 L 127.54 0.00 C 117.25 19.79 106.22 39.19 95.93 58.98 C 91.98 66.28 87.49 73.27 83.63 80.61 C 77.76 92.44 72.07 104.36 66.24 116.21 C 61.10 125.92 55.86 135.60 51.58 145.73 C 53.75 144.72 55.91 143.64 58.29 143.17 C 60.25 139.25 61.78 135.11 64.16 131.41 C 67.80 125.70 70.33 119.40 73.36 113.36 C 78.33 103.27 83.18 93.13 88.12 83.03 C 92.97 73.99 98.54 65.35 103.16 56.19 C 110.25 42.41 118.00 29.00 125.18 15.27 C 127.96 10.18 130.38 4.87 133.55 0.00 L 168.20 0.00 C 162.21 10.61 155.79 20.98 149.26 31.27 C 140.28 46.97 131.15 62.59 122.41 78.42 C 116.13 88.35 110.63 98.72 104.93 108.98 C 101.80 114.61 98.17 119.97 95.54 125.86 C 95.35 120.97 92.99 115.63 87.93 114.17 C 83.86 112.54 79.61 114.10 76.15 116.33 C 80.43 115.28 85.28 116.35 88.05 119.96 C 91.02 123.22 90.11 127.93 89.37 131.84 C 88.50 136.29 87.48 140.79 85.15 144.73 C 80.45 143.84 75.79 142.71 71.13 141.65 C 66.63 140.44 62.29 142.71 58.01 143.77 C 50.91 159.61 43.80 175.45 36.62 191.25 L 35.94 191.97 C 34.72 190.93 34.12 188.46 32.50 188.25 C 30.27 192.66 28.66 197.35 26.80 201.92 C 24.00 209.39 20.50 216.63 18.67 224.43 C 17.51 229.42 15.69 234.35 15.77 239.54 C 16.35 239.61 17.51 239.75 18.09 239.82 C 21.56 232.18 22.75 223.72 26.16 216.04 C 29.65 208.13 32.74 200.05 36.23 192.13 C 38.79 195.74 41.44 199.29 43.87 202.98 C 42.89 206.29 43.23 209.93 45.18 212.83 C 51.32 219.99 60.52 225.40 70.25 223.99 C 71.96 227.39 68.34 229.25 66.22 231.18 C 62.70 234.05 59.98 237.73 57.28 241.34 C 55.10 244.19 54.74 247.91 53.07 251.01 C 51.31 253.27 48.81 254.80 46.81 256.82 C 44.30 259.20 43.09 262.52 41.51 265.53 C 35.55 276.46 31.98 288.45 27.07 299.85 C 25.77 302.76 24.76 305.90 25.42 309.12 C 26.33 315.20 26.05 321.63 28.75 327.31 C 32.62 336.16 36.12 345.17 40.08 353.98 C 30.09 374.18 19.41 394.10 11.27 415.14 C 7.57 424.52 3.50 433.76 0.00 443.22 L 0.00 0.00 Z" />
<path fill="#f5e5c1" opacity="1.00" d=" M 36.05 0.00 L 46.35 0.00 C 41.16 10.02 35.90 20.00 31.51 30.41 C 25.80 41.84 21.38 53.83 16.98 65.81 C 16.25 67.72 15.93 69.98 14.25 71.34 C 12.03 72.34 9.02 71.42 8.35 68.93 C 7.61 64.38 10.15 60.18 11.39 55.94 C 14.66 44.93 19.48 34.48 24.31 24.09 C 27.67 15.80 31.87 7.90 36.05 0.00 Z" />
<path fill="#f5e5c1" opacity="1.00" d=" M 127.54 0.00 L 133.55 0.00 C 130.38 4.87 127.96 10.18 125.18 15.27 C 118.00 29.00 110.25 42.41 103.16 56.19 C 98.54 65.35 92.97 73.99 88.12 83.03 C 83.18 93.13 78.33 103.27 73.36 113.36 C 70.33 119.40 67.80 125.70 64.16 131.41 C 61.78 135.11 60.25 139.25 58.29 143.17 C 55.91 143.64 53.75 144.72 51.58 145.73 C 55.86 135.60 61.10 125.92 66.24 116.21 C 72.07 104.36 77.76 92.44 83.63 80.61 C 87.49 73.27 91.98 66.28 95.93 58.98 C 106.22 39.19 117.25 19.79 127.54 0.00 Z" />
<path fill="#f5e5c1" opacity="1.00" d=" M 168.20 0.00 L 170.93 0.00 C 169.62 8.44 165.02 15.72 161.18 23.17 C 149.25 42.81 138.27 63.00 126.85 82.93 C 119.58 94.16 113.64 106.18 106.47 117.47 C 100.67 126.62 96.22 136.52 91.35 146.18 C 89.62 148.18 87.30 150.73 84.34 149.46 C 81.96 148.72 84.82 146.21 85.15 144.73 C 87.48 140.79 88.50 136.29 89.37 131.84 C 90.11 127.93 91.02 123.22 88.05 119.96 C 85.28 116.35 80.43 115.28 76.15 116.33 C 79.61 114.10 83.86 112.54 87.93 114.17 C 92.99 115.63 95.35 120.97 95.54 125.86 C 98.17 119.97 101.80 114.61 104.93 108.98 C 110.63 98.72 116.13 88.35 122.41 78.42 C 131.15 62.59 140.28 46.97 149.26 31.27 C 155.79 20.98 162.21 10.61 168.20 0.00 Z" />
<path fill="#3e3e3e" opacity="1.00" d=" M 170.93 0.00 L 238.42 0.00 C 232.78 9.79 226.41 19.15 220.98 29.07 C 216.59 37.34 211.72 45.37 207.90 53.94 C 205.36 59.56 202.21 64.87 199.52 70.41 C 195.18 79.20 191.52 88.31 187.39 97.21 C 186.36 99.35 185.68 101.64 185.40 104.00 C 187.08 102.43 188.58 100.68 189.67 98.64 C 194.18 90.63 197.80 82.16 201.93 73.95 C 205.48 66.84 209.48 59.96 212.72 52.70 C 221.71 34.68 231.88 17.28 242.20 0.00 L 325.00 0.00 C 318.87 11.31 313.07 22.81 307.28 34.31 C 301.85 46.48 295.47 58.21 290.52 70.60 C 287.50 78.42 284.30 86.17 281.12 93.93 C 280.31 95.74 280.27 97.74 280.15 99.69 C 280.74 99.67 281.92 99.63 282.51 99.61 C 289.53 87.92 293.65 74.86 299.48 62.60 C 309.51 41.50 319.66 20.45 330.95 0.00 L 377.13 0.00 C 373.41 8.83 369.14 17.42 365.17 26.14 C 356.70 45.24 348.17 64.32 339.75 83.45 C 331.73 101.29 324.48 119.46 316.28 137.22 C 307.96 154.50 301.54 172.63 292.83 189.72 C 287.18 191.20 281.89 193.72 276.35 195.56 C 280.12 187.33 284.16 179.23 288.03 171.04 C 291.08 164.33 293.31 157.27 296.56 150.65 C 301.09 141.27 305.19 131.70 308.98 122.01 C 315.07 107.83 320.97 93.56 325.81 78.90 C 323.08 83.38 322.02 88.60 319.60 93.23 C 314.81 102.51 310.00 111.78 305.39 121.15 C 301.28 130.38 297.03 139.54 292.47 148.55 C 288.48 156.40 285.74 164.81 281.71 172.65 C 277.58 181.19 273.19 189.61 269.33 198.27 C 250.76 205.43 232.19 212.58 213.53 219.51 C 213.65 211.34 219.79 205.48 224.62 199.62 C 227.26 196.46 230.80 194.21 233.36 190.97 C 229.43 192.64 226.56 195.89 223.06 198.23 C 226.11 191.23 230.01 184.63 232.69 177.47 C 236.01 170.07 238.49 162.33 242.09 155.05 C 248.92 139.54 256.55 124.34 261.98 108.24 C 264.72 101.43 268.28 94.96 270.78 88.05 C 267.77 93.95 265.45 100.19 262.16 105.96 C 257.14 115.53 250.66 124.25 245.94 133.99 C 237.02 152.03 229.87 170.89 220.97 188.95 C 218.74 193.59 216.22 198.10 214.47 202.96 C 213.60 197.36 210.28 190.89 204.07 190.12 C 200.34 189.45 197.44 192.07 194.93 194.40 C 199.25 191.27 206.01 192.96 207.99 198.01 C 211.61 206.17 208.03 215.08 205.21 222.91 C 197.28 225.59 189.58 228.90 181.69 231.69 C 175.27 233.89 168.38 234.58 162.08 237.06 C 159.88 241.08 158.66 245.55 156.79 249.73 C 153.06 259.13 148.34 268.17 145.55 277.93 C 140.13 295.44 133.84 312.66 128.37 330.16 C 126.05 337.67 125.21 345.65 121.83 352.81 C 121.05 354.71 119.28 355.84 117.77 357.10 C 117.10 355.49 116.05 353.89 116.35 352.06 C 117.89 335.84 122.35 320.08 127.95 304.83 C 131.77 293.33 135.18 281.69 139.00 270.18 C 142.22 260.40 147.79 251.46 150.14 241.39 C 137.90 244.37 125.82 247.94 113.92 252.11 C 103.70 255.58 93.22 258.27 83.16 262.22 C 78.75 263.96 74.02 264.69 69.59 266.36 C 65.30 267.89 61.51 270.70 56.96 271.49 C 58.05 270.58 59.15 269.67 60.24 268.77 C 60.39 268.31 60.70 267.39 60.86 266.93 C 63.86 266.51 66.61 265.23 69.21 263.70 C 61.71 263.54 54.20 264.04 46.71 263.51 C 48.00 262.61 49.24 261.42 50.90 261.29 C 58.58 260.37 66.37 260.50 74.06 261.29 C 76.64 261.59 79.06 260.48 81.44 259.68 C 96.26 254.83 110.88 249.33 125.92 245.18 C 133.37 243.17 140.70 240.76 148.21 238.98 C 147.50 237.65 146.79 236.32 146.08 234.99 C 140.72 234.93 135.34 235.12 129.98 234.99 C 127.03 235.01 124.54 233.25 122.00 232.00 C 122.00 228.68 121.99 225.36 121.99 222.04 C 127.49 218.19 133.48 215.03 138.76 210.89 C 138.68 209.58 138.40 208.29 138.19 207.01 C 136.89 206.54 135.58 206.10 134.29 205.64 C 133.37 207.51 132.62 209.65 130.72 210.77 C 125.62 214.29 120.25 217.87 114.05 219.03 C 105.04 220.78 96.23 211.12 98.39 202.32 C 99.30 199.80 101.71 198.27 103.78 196.77 C 108.64 193.68 113.53 190.56 118.87 188.35 C 117.64 183.41 116.42 178.41 114.18 173.81 C 113.43 174.39 112.69 174.97 111.95 175.56 C 109.89 173.31 107.07 172.20 104.18 171.47 C 102.81 172.63 101.32 173.67 100.16 175.05 C 98.06 178.26 97.71 182.36 95.36 185.44 C 91.06 190.55 84.52 193.31 78.02 194.14 C 73.99 194.07 68.85 193.06 67.05 188.95 C 65.40 184.25 66.93 178.79 69.89 174.95 C 76.12 169.75 83.03 165.42 89.43 160.44 C 93.25 157.50 97.47 155.12 101.97 153.41 C 98.79 150.53 95.96 146.66 91.35 146.18 C 96.22 136.52 100.67 126.62 106.47 117.47 C 113.64 106.18 119.58 94.16 126.85 82.93 C 138.27 63.00 149.25 42.81 161.18 23.17 C 165.02 15.72 169.62 8.44 170.93 0.00 Z" />
<path fill="#f5e5c1" opacity="1.00" d=" M 238.42 0.00 L 242.20 0.00 C 231.88 17.28 221.71 34.68 212.72 52.70 C 209.48 59.96 205.48 66.84 201.93 73.95 C 197.80 82.16 194.18 90.63 189.67 98.64 C 188.58 100.68 187.08 102.43 185.40 104.00 C 185.68 101.64 186.36 99.35 187.39 97.21 C 191.52 88.31 195.18 79.20 199.52 70.41 C 202.21 64.87 205.36 59.56 207.90 53.94 C 211.72 45.37 216.59 37.34 220.98 29.07 C 226.41 19.15 232.78 9.79 238.42 0.00 Z" />
<path fill="#f5e5c1" opacity="1.00" d=" M 325.00 0.00 L 330.95 0.00 C 319.66 20.45 309.51 41.50 299.48 62.60 C 293.65 74.86 289.53 87.92 282.51 99.61 C 281.92 99.63 280.74 99.67 280.15 99.69 C 280.27 97.74 280.31 95.74 281.12 93.93 C 284.30 86.17 287.50 78.42 290.52 70.60 C 295.47 58.21 301.85 46.48 307.28 34.31 C 313.07 22.81 318.87 11.31 325.00 0.00 Z" />
<path fill="#f5e5c1" opacity="1.00" d=" M 377.13 0.00 L 377.89 0.00 C 371.89 17.47 365.10 34.67 358.86 52.07 C 355.12 63.42 349.76 74.14 345.01 85.09 C 335.73 105.82 327.32 126.94 317.36 147.37 C 311.42 160.40 306.15 173.73 299.68 186.52 C 296.66 187.64 292.95 188.47 291.87 191.97 C 292.11 191.41 292.59 190.28 292.83 189.72 C 301.54 172.63 307.96 154.50 316.28 137.22 C 324.48 119.46 331.73 101.29 339.75 83.45 C 348.17 64.32 356.70 45.24 365.17 26.14 C 369.14 17.42 373.41 8.83 377.13 0.00 Z" />
<path fill="#3e3e3e" opacity="1.00" d=" M 377.89 0.00 L 463.82 0.00 L 464.91 0.24 C 458.97 11.24 453.17 22.31 447.54 33.47 C 441.31 45.91 434.32 57.97 428.82 70.77 C 422.90 84.78 416.35 98.51 410.55 112.57 C 403.12 129.37 395.15 145.94 387.97 162.86 C 385.94 167.06 384.37 171.59 381.27 175.16 C 380.62 171.81 380.31 168.42 380.01 165.03 C 375.01 166.64 370.04 168.35 365.05 169.98 C 364.00 167.65 362.97 165.32 361.95 162.98 C 360.37 163.62 358.81 164.26 357.26 164.97 C 360.56 159.09 361.81 152.38 363.85 146.02 C 365.79 139.65 370.79 134.93 375.67 130.68 C 378.88 127.87 383.04 126.61 387.21 126.11 C 385.15 123.76 381.67 123.64 378.91 124.68 C 375.11 126.19 371.99 128.93 369.17 131.82 C 373.37 121.36 376.97 110.66 381.23 100.21 C 389.67 77.64 396.72 54.56 405.85 32.25 C 399.53 45.36 393.77 58.72 388.04 72.10 C 379.71 90.13 372.63 108.70 365.14 127.09 C 360.16 140.65 354.54 153.99 350.14 167.75 C 335.17 172.92 320.51 179.01 305.64 184.46 C 303.21 185.59 299.84 185.89 298.69 188.68 C 293.54 198.78 289.71 209.48 284.95 219.77 C 281.02 227.96 278.01 236.59 273.37 244.43 C 269.59 250.83 266.65 257.66 263.37 264.32 C 259.78 271.38 257.41 278.97 253.76 286.01 C 252.56 288.55 249.72 289.16 247.27 289.85 L 247.72 288.04 C 249.02 283.06 251.82 278.72 254.15 274.19 C 259.87 262.00 265.24 249.62 272.05 237.98 C 279.14 222.86 285.61 207.45 291.87 191.97 C 292.95 188.47 296.66 187.64 299.68 186.52 C 306.15 173.73 311.42 160.40 317.36 147.37 C 327.32 126.94 335.73 105.82 345.01 85.09 C 349.76 74.14 355.12 63.42 358.86 52.07 C 365.10 34.67 371.89 17.47 377.89 0.00 Z" />
<path fill="#f5e5c1" opacity="1.00" d=" M 463.82 0.00 L 466.53 0.00 C 457.19 20.06 447.69 40.05 439.46 60.60 C 433.69 74.24 427.54 87.72 421.19 101.09 C 411.03 124.14 399.60 146.61 390.08 169.94 C 389.88 170.03 389.47 170.23 389.27 170.32 C 386.17 170.52 383.39 171.77 382.15 174.74 C 381.93 174.85 381.49 175.05 381.27 175.16 C 384.37 171.59 385.94 167.06 387.97 162.86 C 395.15 145.94 403.12 129.37 410.55 112.57 C 416.35 98.51 422.90 84.78 428.82 70.77 C 434.32 57.97 441.31 45.91 447.54 33.47 C 453.17 22.31 458.97 11.24 464.91 0.24 L 463.82 0.00 Z" />
<path fill="#3e3e3e" opacity="1.00" d=" M 466.53 0.00 L 512.00 0.00 L 512.00 262.46 C 508.98 268.27 505.13 273.60 502.26 279.49 C 500.12 283.85 497.99 288.23 495.52 292.42 C 490.94 300.18 487.62 308.57 483.59 316.61 C 478.46 326.57 475.99 337.60 471.87 347.97 C 470.17 351.90 467.97 355.77 467.71 360.14 C 467.88 362.56 471.09 363.41 472.27 361.21 C 474.32 357.62 476.11 353.87 478.16 350.26 C 482.45 340.76 485.27 330.68 489.40 321.11 C 496.06 303.76 503.57 286.72 512.00 270.16 L 512.00 394.76 C 508.05 403.33 502.79 411.22 498.76 419.76 C 494.23 429.32 489.49 438.80 485.41 448.57 C 477.92 468.31 468.29 487.35 463.60 508.05 C 462.70 511.42 467.60 513.21 469.54 510.60 C 472.06 507.07 473.21 502.77 474.79 498.78 C 478.73 486.83 484.05 475.42 488.85 463.81 C 495.66 446.07 503.97 428.96 512.00 411.74 L 512.00 512.00 L 357.70 512.00 C 352.73 505.79 347.56 499.74 342.23 493.84 C 339.45 499.84 336.90 505.95 334.23 512.00 L 328.99 512.00 C 332.15 504.56 335.23 497.08 338.81 489.83 C 328.52 477.26 317.71 465.12 307.31 452.63 C 304.17 448.67 299.22 447.03 294.97 444.61 C 305.85 423.39 316.87 402.25 328.22 381.28 C 333.54 372.29 337.44 362.57 342.14 353.26 C 343.93 349.50 346.27 345.90 347.03 341.73 C 344.16 344.84 342.30 348.67 340.32 352.35 C 335.40 361.93 330.16 371.34 324.33 380.40 C 311.71 400.16 300.15 420.56 288.96 441.16 C 276.27 434.47 263.78 427.42 251.13 420.66 C 251.72 418.38 254.12 415.37 251.51 413.57 C 234.18 396.88 216.86 380.17 199.52 363.48 C 198.04 362.22 197.65 360.27 197.27 358.47 C 193.81 340.31 190.10 322.21 186.62 304.06 C 178.73 305.33 170.79 306.57 163.18 309.07 C 156.72 310.87 150.57 313.84 143.86 314.68 C 149.18 312.39 154.62 310.36 159.94 308.07 C 169.55 303.99 179.90 302.30 190.01 299.92 C 202.79 297.67 215.54 295.18 228.20 292.32 C 226.05 300.01 223.42 307.60 219.71 314.69 C 218.07 318.53 215.47 322.08 215.16 326.36 C 216.01 325.52 216.90 324.67 217.41 323.57 C 222.55 312.79 227.41 301.87 232.90 291.26 C 237.83 290.68 242.66 289.51 247.53 288.60 C 244.50 298.16 238.07 306.70 237.64 316.98 C 241.19 313.05 242.54 307.79 245.36 303.38 C 248.52 298.25 250.13 292.36 253.16 287.16 C 255.45 286.86 257.73 286.52 260.00 286.06 C 294.65 278.99 329.33 272.05 363.99 265.00 C 365.01 261.02 366.01 257.03 367.00 253.05 C 371.65 252.32 376.33 251.69 380.99 250.98 C 381.32 247.32 381.66 243.66 382.01 240.01 C 390.37 241.16 398.73 242.33 407.10 243.44 C 413.92 244.29 420.07 247.57 426.60 249.48 C 428.30 250.01 430.11 249.69 431.83 249.44 C 440.87 247.87 449.93 246.52 458.98 245.00 C 459.33 241.01 459.66 237.02 460.01 233.03 C 462.67 231.68 465.33 230.33 468.00 228.98 C 468.38 223.34 468.64 217.69 469.02 212.04 C 471.01 211.02 473.00 209.99 474.99 208.96 C 474.66 204.31 474.33 199.67 474.01 195.02 C 477.32 191.65 480.72 188.36 483.99 184.94 C 480.30 176.31 476.69 167.65 473.00 159.02 C 461.03 157.77 449.05 156.65 437.09 155.37 C 434.70 155.09 432.25 155.07 429.96 155.85 C 421.66 158.32 413.33 160.72 405.01 163.11 C 399.69 164.60 395.21 167.99 390.08 169.94 C 399.60 146.61 411.03 124.14 421.19 101.09 C 427.54 87.72 433.69 74.24 439.46 60.60 C 447.69 40.05 457.19 20.06 466.53 0.00 Z" />
<path fill="#f5e5c1" opacity="1.00" d=" M 471.73 46.61 C 476.90 39.89 481.67 32.85 487.01 26.25 C 489.81 37.49 492.33 48.80 495.10 60.05 C 495.52 61.93 496.11 63.88 495.67 65.82 C 492.23 83.84 488.82 101.87 485.41 119.89 C 484.92 122.81 483.17 125.24 481.80 127.78 C 476.42 137.49 470.97 147.16 465.66 156.91 C 464.54 156.12 463.31 155.70 461.95 155.64 C 453.97 154.79 445.99 153.92 438.02 152.99 C 446.20 129.27 454.52 105.59 462.67 81.87 C 464.81 73.59 466.37 65.17 468.29 56.84 C 469.17 53.36 469.23 49.44 471.73 46.61 Z" />
<path fill="#f5e5c1" opacity="1.00" d=" M 246.30 56.41 C 252.13 46.97 257.58 37.28 263.86 28.13 C 257.08 40.01 250.76 52.16 244.16 64.15 C 234.89 82.72 225.06 101.00 215.51 119.42 C 210.11 130.65 204.76 141.91 199.15 153.03 C 189.05 174.46 180.18 196.44 170.09 217.87 C 167.25 223.85 164.94 230.07 162.10 236.05 C 158.74 237.02 155.40 238.11 151.96 238.82 C 154.71 230.65 158.44 222.86 161.84 214.94 C 177.33 181.88 190.00 147.37 208.99 116.05 C 215.28 105.70 221.16 95.09 227.87 85.00 C 233.93 75.41 240.57 66.20 246.30 56.41 Z" />
<path fill="#f5e5c1" opacity="1.00" d=" M 388.04 72.10 C 393.77 58.72 399.53 45.36 405.85 32.25 C 396.72 54.56 389.67 77.64 381.23 100.21 C 376.97 110.66 373.37 121.36 369.17 131.82 C 371.99 128.93 375.11 126.19 378.91 124.68 C 381.67 123.64 385.15 123.76 387.21 126.11 C 383.04 126.61 378.88 127.87 375.67 130.68 C 370.79 134.93 365.79 139.65 363.85 146.02 C 361.81 152.38 360.56 159.09 357.26 164.97 C 354.96 166.06 352.58 167.01 350.14 167.75 C 354.54 153.99 360.16 140.65 365.14 127.09 C 372.63 108.70 379.71 90.13 388.04 72.10 Z" />
<path fill="#f5e5c1" opacity="1.00" d=" M 153.52 80.62 C 158.70 72.85 163.44 64.78 168.83 57.15 C 157.73 75.31 149.84 95.17 139.88 113.94 C 129.86 132.51 120.40 151.38 110.48 170.00 C 109.08 169.00 107.70 167.96 106.32 166.93 C 117.89 145.28 128.72 123.23 140.82 101.87 C 145.51 95.06 148.81 87.42 153.52 80.62 Z" />
<path fill="#f5e5c1" opacity="1.00" d=" M 319.60 93.23 C 322.02 88.60 323.08 83.38 325.81 78.90 C 320.97 93.56 315.07 107.83 308.98 122.01 C 305.19 131.70 301.09 141.27 296.56 150.65 C 293.31 157.27 291.08 164.33 288.03 171.04 C 284.16 179.23 280.12 187.33 276.35 195.56 C 274.00 196.44 271.66 197.36 269.33 198.27 C 273.19 189.61 277.58 181.19 281.71 172.65 C 285.74 164.81 288.48 156.40 292.47 148.55 C 297.03 139.54 301.28 130.38 305.39 121.15 C 310.00 111.78 314.81 102.51 319.60 93.23 Z" />
<path fill="#f5e5c1" opacity="1.00" d=" M 262.16 105.96 C 265.45 100.19 267.77 93.95 270.78 88.05 C 268.28 94.96 264.72 101.43 261.98 108.24 C 256.55 124.34 248.92 139.54 242.09 155.05 C 238.49 162.33 236.01 170.07 232.69 177.47 C 230.01 184.63 226.11 191.23 223.06 198.23 C 226.56 195.89 229.43 192.64 233.36 190.97 C 230.80 194.21 227.26 196.46 224.62 199.62 C 219.79 205.48 213.65 211.34 213.53 219.51 C 212.82 221.30 212.15 223.28 210.65 224.56 C 208.60 225.66 206.41 226.46 204.29 227.43 C 204.58 225.92 204.85 224.40 205.21 222.91 C 208.03 215.08 211.61 206.17 207.99 198.01 C 206.01 192.96 199.25 191.27 194.93 194.40 C 197.44 192.07 200.34 189.45 204.07 190.12 C 210.28 190.89 213.60 197.36 214.47 202.96 C 216.22 198.10 218.74 193.59 220.97 188.95 C 229.87 170.89 237.02 152.03 245.94 133.99 C 250.66 124.25 257.14 115.53 262.16 105.96 Z" />
<path fill="#f4722b" opacity="1.00" d=" M 58.01 143.77 C 62.29 142.71 66.63 140.44 71.13 141.65 C 75.79 142.71 80.45 143.84 85.15 144.73 C 84.82 146.21 81.96 148.72 84.34 149.46 C 87.30 150.73 89.62 148.18 91.35 146.18 C 95.96 146.66 98.79 150.53 101.97 153.41 C 97.47 155.12 93.25 157.50 89.43 160.44 C 83.03 165.42 76.12 169.75 69.89 174.95 C 66.93 178.79 65.40 184.25 67.05 188.95 C 68.85 193.06 73.99 194.07 78.02 194.14 C 84.52 193.31 91.06 190.55 95.36 185.44 C 97.71 182.36 98.06 178.26 100.16 175.05 C 101.32 173.67 102.81 172.63 104.18 171.47 C 107.07 172.20 109.89 173.31 111.95 175.56 C 112.69 174.97 113.43 174.39 114.18 173.81 C 116.42 178.41 117.64 183.41 118.87 188.35 C 113.53 190.56 108.64 193.68 103.78 196.77 C 101.71 198.27 99.30 199.80 98.39 202.32 C 96.23 211.12 105.04 220.78 114.05 219.03 C 120.25 217.87 125.62 214.29 130.72 210.77 C 132.62 209.65 133.37 207.51 134.29 205.64 C 135.58 206.10 136.89 206.54 138.19 207.01 C 138.40 208.29 138.68 209.58 138.76 210.89 C 133.48 215.03 127.49 218.19 121.99 222.04 C 121.99 225.36 122.00 228.68 122.00 232.00 C 124.54 233.25 127.03 235.01 129.98 234.99 C 135.34 235.12 140.72 234.93 146.08 234.99 C 146.79 236.32 147.50 237.65 148.21 238.98 C 140.70 240.76 133.37 243.17 125.92 245.18 C 110.88 249.33 96.26 254.83 81.44 259.68 C 79.06 260.48 76.64 261.59 74.06 261.29 C 66.37 260.50 58.58 260.37 50.90 261.29 C 49.24 261.42 48.00 262.61 46.71 263.51 C 54.20 264.04 61.71 263.54 69.21 263.70 C 66.61 265.23 63.86 266.51 60.86 266.93 C 60.70 267.39 60.39 268.31 60.24 268.77 C 59.15 269.67 58.05 270.58 56.96 271.49 C 61.51 270.70 65.30 267.89 69.59 266.36 C 74.02 264.69 78.75 263.96 83.16 262.22 C 93.22 258.27 103.70 255.58 113.92 252.11 C 125.82 247.94 137.90 244.37 150.14 241.39 C 147.79 251.46 142.22 260.40 139.00 270.18 C 135.18 281.69 131.77 293.33 127.95 304.83 C 122.35 320.08 117.89 335.84 116.35 352.06 C 116.05 353.89 117.10 355.49 117.77 357.10 C 119.28 355.84 121.05 354.71 121.83 352.81 C 125.21 345.65 126.05 337.67 128.37 330.16 C 133.84 312.66 140.13 295.44 145.55 277.93 C 148.34 268.17 153.06 259.13 156.79 249.73 C 158.66 245.55 159.88 241.08 162.08 237.06 C 168.38 234.58 175.27 233.89 181.69 231.69 C 189.58 228.90 197.28 225.59 205.21 222.91 C 204.85 224.40 204.58 225.92 204.29 227.43 C 206.41 226.46 208.60 225.66 210.65 224.56 C 212.15 223.28 212.82 221.30 213.53 219.51 C 232.19 212.58 250.76 205.43 269.33 198.27 C 271.66 197.36 274.00 196.44 276.35 195.56 C 281.89 193.72 287.18 191.20 292.83 189.72 C 292.59 190.28 292.11 191.41 291.87 191.97 C 285.61 207.45 279.14 222.86 272.05 237.98 C 265.24 249.62 259.87 262.00 254.15 274.19 C 251.82 278.72 249.02 283.06 247.72 288.04 C 247.67 288.18 247.57 288.46 247.53 288.60 C 242.66 289.51 237.83 290.68 232.90 291.26 C 231.31 291.52 229.75 291.91 228.20 292.32 C 215.54 295.18 202.79 297.67 190.01 299.92 C 179.90 302.30 169.55 303.99 159.94 308.07 C 154.62 310.36 149.18 312.39 143.86 314.68 C 150.57 313.84 156.72 310.87 163.18 309.07 C 170.79 306.57 178.73 305.33 186.62 304.06 C 190.10 322.21 193.81 340.31 197.27 358.47 C 197.65 360.27 198.04 362.22 199.52 363.48 C 216.86 380.17 234.18 396.88 251.51 413.57 C 254.12 415.37 251.72 418.38 251.13 420.66 C 263.78 427.42 276.27 434.47 288.96 441.16 L 288.90 441.28 C 278.69 459.82 269.49 478.90 260.68 498.14 C 260.04 499.51 259.50 500.91 258.95 502.33 C 254.98 502.63 251.00 502.83 247.02 503.02 C 244.70 505.94 242.57 508.99 240.38 512.00 L 204.23 512.00 C 208.86 502.08 213.98 492.09 216.01 481.27 C 215.24 481.23 213.72 481.16 212.95 481.13 C 208.77 491.50 204.79 501.95 199.86 512.00 L 146.29 512.00 C 155.23 490.23 163.11 468.04 172.41 446.41 C 177.16 434.44 181.98 422.48 186.49 410.41 C 187.91 406.44 190.22 402.46 189.83 398.12 C 189.37 395.66 185.94 396.34 185.08 398.19 C 176.06 417.19 168.58 436.88 159.94 456.05 C 153.63 470.89 147.96 485.99 141.75 500.87 C 141.01 502.52 140.31 504.19 139.67 505.90 C 115.72 475.96 92.10 445.75 68.29 415.70 C 66.07 412.87 63.53 410.20 62.09 406.85 C 59.05 399.77 56.27 392.58 53.08 385.57 C 52.79 384.80 52.50 384.04 52.20 383.28 C 49.79 377.29 47.22 371.36 44.73 365.40 C 49.63 355.30 54.83 345.34 59.06 334.94 C 61.89 327.92 66.59 321.58 67.85 313.99 C 68.05 310.98 64.01 310.58 62.25 312.21 C 60.61 313.70 59.71 315.80 58.65 317.71 C 56.46 322.02 53.59 325.97 51.67 330.43 C 48.26 338.49 44.01 346.17 40.08 353.98 C 36.12 345.17 32.62 336.16 28.75 327.31 C 26.05 321.63 26.33 315.20 25.42 309.12 C 24.76 305.90 25.77 302.76 27.07 299.85 C 31.98 288.45 35.55 276.46 41.51 265.53 C 43.09 262.52 44.30 259.20 46.81 256.82 C 48.81 254.80 51.31 253.27 53.07 251.01 C 54.74 247.91 55.10 244.19 57.28 241.34 C 59.98 237.73 62.70 234.05 66.22 231.18 C 68.34 229.25 71.96 227.39 70.25 223.99 C 60.52 225.40 51.32 219.99 45.18 212.83 C 43.23 209.93 42.89 206.29 43.87 202.98 C 41.44 199.29 38.79 195.74 36.23 192.13 C 36.33 191.91 36.53 191.47 36.62 191.25 C 43.80 175.45 50.91 159.61 58.01 143.77 Z" />
<path fill="#f4722b" opacity="1.00" d=" M 40.16 150.13 C 43.67 148.31 47.48 147.14 51.21 145.85 C 45.76 159.72 38.99 173.02 33.25 186.77 C 31.79 183.59 30.15 180.46 29.19 177.08 C 29.29 172.86 29.33 168.47 30.46 164.40 C 33.64 159.62 36.61 154.64 40.16 150.13 Z" />
<path fill="#f4722b" opacity="1.00" d=" M 429.96 155.85 C 432.25 155.07 434.70 155.09 437.09 155.37 C 449.05 156.65 461.03 157.77 473.00 159.02 C 476.69 167.65 480.30 176.31 483.99 184.94 C 480.72 188.36 477.32 191.65 474.01 195.02 C 474.33 199.67 474.66 204.31 474.99 208.96 C 473.00 209.99 471.01 211.02 469.02 212.04 C 468.64 217.69 468.38 223.34 468.00 228.98 C 465.33 230.33 462.67 231.68 460.01 233.03 C 459.66 237.02 459.33 241.01 458.98 245.00 C 449.93 246.52 440.87 247.87 431.83 249.44 C 430.11 249.69 428.30 250.01 426.60 249.48 C 420.07 247.57 413.92 244.29 407.10 243.44 C 398.73 242.33 390.37 241.16 382.01 240.01 C 381.66 243.66 381.32 247.32 380.99 250.98 C 376.33 251.69 371.65 252.32 367.00 253.05 C 366.01 257.03 365.01 261.02 363.99 265.00 C 329.33 272.05 294.65 278.99 260.00 286.06 C 257.73 286.52 255.45 286.86 253.16 287.16 L 253.76 286.01 C 257.41 278.97 259.78 271.38 263.37 264.32 C 266.65 257.66 269.59 250.83 273.37 244.43 C 278.01 236.59 281.02 227.96 284.95 219.77 C 289.71 209.48 293.54 198.78 298.69 188.68 C 299.84 185.89 303.21 185.59 305.64 184.46 C 320.51 179.01 335.17 172.92 350.14 167.75 C 352.58 167.01 354.96 166.06 357.26 164.97 C 358.81 164.26 360.37 163.62 361.95 162.98 C 362.97 165.32 364.00 167.65 365.05 169.98 C 370.04 168.35 375.01 166.64 380.01 165.03 C 380.31 168.42 380.62 171.81 381.27 175.16 C 381.49 175.05 381.93 174.85 382.15 174.74 C 376.32 186.58 370.83 198.58 365.90 210.81 C 364.53 215.93 361.95 221.01 362.39 226.42 L 364.00 226.94 C 366.46 223.73 367.37 219.65 368.86 215.94 C 370.85 209.54 374.02 203.61 376.49 197.39 C 380.29 188.15 385.55 179.59 389.27 170.32 C 389.47 170.23 389.88 170.03 390.08 169.94 C 395.21 167.99 399.69 164.60 405.01 163.11 C 413.33 160.72 421.66 158.32 429.96 155.85 Z" />
<path fill="#f4722b" opacity="1.00" d=" M 103.29 163.48 C 105.96 161.81 106.73 166.67 104.79 167.75 C 103.86 168.88 102.33 168.72 101.04 168.95 C 101.48 167.07 101.62 164.74 103.29 163.48 Z" />
<path fill="#3e3e3e" opacity="1.00" d=" M 382.15 174.74 C 383.39 171.77 386.17 170.52 389.27 170.32 C 385.55 179.59 380.29 188.15 376.49 197.39 C 374.02 203.61 370.85 209.54 368.86 215.94 C 367.37 219.65 366.46 223.73 364.00 226.94 L 362.39 226.42 C 361.95 221.01 364.53 215.93 365.90 210.81 C 370.83 198.58 376.32 186.58 382.15 174.74 Z" />
<path fill="#f4722b" opacity="1.00" d=" M 89.23 175.34 C 89.63 175.14 90.43 174.74 90.83 174.54 C 91.15 175.20 91.47 175.86 91.79 176.52 C 87.97 179.35 83.75 181.57 79.87 184.32 C 78.30 181.27 80.95 178.33 81.64 175.42 C 84.17 175.32 86.70 175.28 89.23 175.34 Z" />
<path fill="#f5e5c1" opacity="1.00" d=" M 140.11 180.12 C 141.16 179.08 142.66 179.34 143.99 179.29 C 140.67 183.23 136.51 186.29 132.58 189.58 C 129.24 192.37 126.60 195.95 122.99 198.42 L 121.75 198.13 L 121.31 196.90 C 126.94 190.64 133.23 184.98 140.11 180.12 Z" />
<path fill="#f5e5c1" opacity="1.00" d=" M 32.50 188.25 C 34.12 188.46 34.72 190.93 35.94 191.97 L 36.62 191.25 C 36.53 191.47 36.33 191.91 36.23 192.13 C 32.74 200.05 29.65 208.13 26.16 216.04 C 22.75 223.72 21.56 232.18 18.09 239.82 C 17.51 239.75 16.35 239.61 15.77 239.54 C 15.69 234.35 17.51 229.42 18.67 224.43 C 20.50 216.63 24.00 209.39 26.80 201.92 C 28.66 197.35 30.27 192.66 32.50 188.25 Z" />
<path fill="#f5e5c1" opacity="1.00" d=" M 471.33 255.30 C 479.81 242.23 488.19 229.08 496.87 216.14 C 489.24 228.85 482.56 242.09 475.42 255.08 C 470.65 263.57 466.60 272.42 462.06 281.03 C 456.20 291.80 449.86 302.30 444.30 313.24 C 434.87 331.30 424.11 348.62 414.55 366.61 C 406.96 381.48 399.86 396.70 390.43 410.53 C 389.29 412.48 387.12 412.36 385.32 411.47 C 385.47 410.31 385.36 409.07 385.96 408.02 C 390.61 399.30 395.57 390.72 399.72 381.74 C 402.91 375.52 405.37 368.95 408.76 362.84 C 418.12 345.31 428.30 328.24 438.15 310.99 C 443.48 301.76 449.56 292.98 454.73 283.65 C 460.33 274.24 465.24 264.42 471.33 255.30 Z" />
<path fill="#f5e5c1" opacity="1.00" d=" M 502.26 279.49 C 505.13 273.60 508.98 268.27 512.00 262.46 L 512.00 270.16 C 503.57 286.72 496.06 303.76 489.40 321.11 C 485.27 330.68 482.45 340.76 478.16 350.26 C 476.11 353.87 474.32 357.62 472.27 361.21 C 471.09 363.41 467.88 362.56 467.71 360.14 C 467.97 355.77 470.17 351.90 471.87 347.97 C 475.99 337.60 478.46 326.57 483.59 316.61 C 487.62 308.57 490.94 300.18 495.52 292.42 C 497.99 288.23 500.12 283.85 502.26 279.49 Z" />
<path fill="#f4722b" opacity="1.00" d=" M 22.15 278.09 C 26.25 274.12 30.70 270.50 35.15 266.93 C 31.59 274.57 28.54 282.44 25.48 290.30 C 25.12 291.38 24.54 292.35 23.65 293.09 C 23.20 288.08 22.37 283.11 22.15 278.09 Z" />
<path fill="#f5e5c1" opacity="1.00" d=" M 247.27 289.85 C 249.72 289.16 252.56 288.55 253.76 286.01 L 253.16 287.16 C 250.13 292.36 248.52 298.25 245.36 303.38 C 242.54 307.79 241.19 313.05 237.64 316.98 C 238.07 306.70 244.50 298.16 247.53 288.60 C 247.57 288.46 247.67 288.18 247.72 288.04 L 247.27 289.85 Z" />
<path fill="#f5e5c1" opacity="1.00" d=" M 228.20 292.32 C 229.75 291.91 231.31 291.52 232.90 291.26 C 227.41 301.87 222.55 312.79 217.41 323.57 C 216.90 324.67 216.01 325.52 215.16 326.36 C 215.47 322.08 218.07 318.53 219.71 314.69 C 223.42 307.60 226.05 300.01 228.20 292.32 Z" />
<path fill="#f5e5c1" opacity="1.00" d=" M 302.27 323.06 C 306.37 314.50 311.09 306.25 315.85 298.05 C 314.69 301.64 312.46 304.73 310.81 308.09 C 308.02 313.66 305.45 319.34 302.78 324.96 C 302.38 325.84 301.79 326.58 301.02 327.17 C 301.27 325.75 301.59 324.34 302.27 323.06 Z" />
<path fill="#f5e5c1" opacity="1.00" d=" M 62.25 312.21 C 64.01 310.58 68.05 310.98 67.85 313.99 C 66.59 321.58 61.89 327.92 59.06 334.94 C 54.83 345.34 49.63 355.30 44.73 365.40 C 38.01 378.86 31.35 392.37 25.14 406.07 C 16.80 426.84 8.01 447.44 0.00 468.33 L 0.00 443.22 C 3.50 433.76 7.57 424.52 11.27 415.14 C 19.41 394.10 30.09 374.18 40.08 353.98 C 44.01 346.17 48.26 338.49 51.67 330.43 C 53.59 325.97 56.46 322.02 58.65 317.71 C 59.71 315.80 60.61 313.70 62.25 312.21 Z" />
<path fill="#f5e5c1" opacity="1.00" d=" M 272.09 329.42 C 272.30 331.63 270.33 333.58 269.52 335.59 C 264.81 341.43 263.01 348.89 259.35 355.34 C 257.79 358.00 256.66 360.87 255.38 363.67 C 254.85 363.67 253.79 363.66 253.25 363.66 C 253.87 360.99 254.72 358.37 256.10 356.00 C 259.81 349.44 262.30 341.89 268.17 336.85 L 266.69 335.28 C 267.17 335.20 268.14 335.04 268.62 334.96 C 269.28 333.15 270.10 331.35 271.63 330.11 L 272.09 329.42 Z" />
<path fill="#f5e5c1" opacity="1.00" d=" M 298.48 330.64 C 298.81 330.49 299.46 330.18 299.78 330.03 C 299.00 334.01 296.63 337.39 295.04 341.06 C 292.65 345.78 290.89 350.79 288.58 355.54 C 288.15 355.71 287.30 356.04 286.87 356.20 C 287.77 351.82 290.03 347.90 291.78 343.84 C 293.97 339.42 295.70 334.71 298.48 330.64 Z" />
<path fill="#f5e5c1" opacity="1.00" d=" M 340.32 352.35 C 342.30 348.67 344.16 344.84 347.03 341.73 C 346.27 345.90 343.93 349.50 342.14 353.26 C 337.44 362.57 333.54 372.29 328.22 381.28 C 316.87 402.25 305.85 423.39 294.97 444.61 C 293.63 447.59 292.04 450.46 290.28 453.23 C 291.82 450.32 293.32 447.40 294.93 444.55 C 292.93 443.42 290.93 442.32 288.90 441.28 L 288.96 441.16 C 300.15 420.56 311.71 400.16 324.33 380.40 C 330.16 371.34 335.40 361.93 340.32 352.35 Z" />
<path fill="#f5e5c1" opacity="1.00" d=" M 283.29 363.34 C 283.94 362.00 284.29 360.26 285.95 359.82 C 285.71 361.48 285.28 363.12 284.51 364.61 C 280.71 372.35 278.10 380.61 274.36 388.37 C 270.92 394.79 267.98 401.47 264.85 408.05 C 263.53 409.58 261.54 407.53 262.39 406.03 C 264.30 399.11 268.70 393.24 271.71 386.79 C 275.34 378.86 279.89 371.38 283.29 363.34 Z" />
<path fill="#3e3e3e" opacity="1.00" d=" M 25.14 406.07 C 31.35 392.37 38.01 378.86 44.73 365.40 C 47.22 371.36 49.79 377.29 52.20 383.28 C 50.70 387.32 49.03 391.31 47.29 395.25 C 48.23 396.50 49.14 397.79 50.20 398.95 C 52.12 398.81 52.31 396.39 53.16 395.05 C 54.90 392.07 53.70 388.68 53.08 385.57 C 56.27 392.58 59.05 399.77 62.09 406.85 C 63.53 410.20 66.07 412.87 68.29 415.70 C 92.10 445.75 115.72 475.96 139.67 505.90 C 138.91 507.93 138.21 510.00 137.34 512.00 L 68.56 512.00 C 72.34 502.80 77.25 494.10 80.89 484.83 C 86.45 473.49 91.13 461.74 94.97 449.71 C 91.95 450.30 91.62 453.55 90.74 455.95 C 86.06 470.81 78.27 484.41 72.68 498.91 C 71.31 503.09 70.37 507.44 68.35 511.38 C 68.06 511.54 67.48 511.85 67.19 512.00 L 0.00 512.00 L 0.00 468.33 C 8.01 447.44 16.80 426.84 25.14 406.07 Z" />
<path fill="#f5e5c1" opacity="1.00" d=" M 52.20 383.28 C 52.50 384.04 52.79 384.80 53.08 385.57 C 53.70 388.68 54.90 392.07 53.16 395.05 C 52.31 396.39 52.12 398.81 50.20 398.95 C 49.14 397.79 48.23 396.50 47.29 395.25 C 49.03 391.31 50.70 387.32 52.20 383.28 Z" />
<path fill="#f5e5c1" opacity="1.00" d=" M 498.76 419.76 C 502.79 411.22 508.05 403.33 512.00 394.76 L 512.00 411.74 C 503.97 428.96 495.66 446.07 488.85 463.81 C 484.05 475.42 478.73 486.83 474.79 498.78 C 473.21 502.77 472.06 507.07 469.54 510.60 C 467.60 513.21 462.70 511.42 463.60 508.05 C 468.29 487.35 477.92 468.31 485.41 448.57 C 489.49 438.80 494.23 429.32 498.76 419.76 Z" />
<path fill="#3e3e3e" opacity="1.00" d=" M 185.08 398.19 C 185.94 396.34 189.37 395.66 189.83 398.12 C 190.22 402.46 187.91 406.44 186.49 410.41 C 181.98 422.48 177.16 434.44 172.41 446.41 C 163.11 468.04 155.23 490.23 146.29 512.00 L 143.36 512.00 C 141.97 510.63 140.67 509.19 139.35 507.77 C 140.10 505.45 140.87 503.14 141.75 500.87 C 147.96 485.99 153.63 470.89 159.94 456.05 C 168.58 436.88 176.06 417.19 185.08 398.19 Z" />
<path fill="#f5e5c1" opacity="1.00" d=" M 441.70 407.83 C 443.66 405.91 444.12 402.92 446.38 401.21 C 445.59 404.96 443.33 408.10 441.50 411.39 C 434.43 427.83 425.83 443.55 417.62 459.45 C 414.16 466.25 411.42 473.38 408.51 480.43 C 407.19 482.72 406.03 486.30 402.76 486.00 C 403.22 481.97 405.28 478.40 406.52 474.60 C 412.14 458.55 421.04 443.98 429.02 429.04 C 432.57 422.78 436.38 416.62 440.89 410.99 C 439.25 409.61 441.04 408.77 441.70 407.83 Z" />
<path fill="#f5e5c1" opacity="1.00" d=" M 42.13 407.95 C 43.39 408.92 45.45 409.39 45.92 411.06 C 44.85 415.84 42.70 420.30 41.36 425.00 C 39.81 424.50 38.29 423.89 36.80 423.24 C 38.35 418.07 40.00 412.91 42.13 407.95 Z" />
<path fill="#f5e5c1" opacity="1.00" d=" M 34.33 432.01 C 35.52 432.74 36.71 433.48 37.91 434.22 C 37.05 440.01 34.98 445.52 33.48 451.16 C 30.12 462.21 28.24 473.64 25.31 484.81 C 23.93 484.04 23.03 482.72 23.15 481.09 C 23.17 474.75 24.62 468.53 26.21 462.42 C 27.96 452.04 31.72 442.18 34.33 432.01 Z" />
<path fill="#3e3e3e" opacity="1.00" d=" M 260.68 498.14 C 269.49 478.90 278.69 459.82 288.90 441.28 C 290.93 442.32 292.93 443.42 294.93 444.55 C 293.32 447.40 291.82 450.32 290.28 453.23 C 285.11 462.21 280.77 471.64 275.99 480.83 C 272.34 487.62 269.90 494.99 265.85 501.57 C 275.01 504.40 283.76 508.40 292.63 512.00 L 260.89 512.00 C 262.59 508.71 264.08 505.31 265.76 502.01 C 263.58 502.20 261.39 502.39 259.21 502.58 C 259.70 501.09 260.19 499.62 260.68 498.14 Z" />
<path fill="#f4722b" opacity="1.00" d=" M 290.28 453.23 C 292.04 450.46 293.63 447.59 294.97 444.61 C 299.22 447.03 304.17 448.67 307.31 452.63 C 317.71 465.12 328.52 477.26 338.81 489.83 C 335.23 497.08 332.15 504.56 328.99 512.00 L 292.63 512.00 C 283.76 508.40 275.01 504.40 265.85 501.57 C 269.90 494.99 272.34 487.62 275.99 480.83 C 280.77 471.64 285.11 462.21 290.28 453.23 Z" />
<path fill="#f5e5c1" opacity="1.00" d=" M 90.74 455.95 C 91.62 453.55 91.95 450.30 94.97 449.71 C 91.13 461.74 86.45 473.49 80.89 484.83 C 77.25 494.10 72.34 502.80 68.56 512.00 L 67.19 512.00 C 67.48 511.85 68.06 511.54 68.35 511.38 C 70.37 507.44 71.31 503.09 72.68 498.91 C 78.27 484.41 86.06 470.81 90.74 455.95 Z" />
<path fill="#3e3e3e" opacity="1.00" d=" M 212.95 481.13 C 213.72 481.16 215.24 481.23 216.01 481.27 C 213.98 492.09 208.86 502.08 204.23 512.00 L 199.86 512.00 C 204.79 501.95 208.77 491.50 212.95 481.13 Z" />
<path fill="#f4722b" opacity="1.00" d=" M 342.23 493.84 C 347.56 499.74 352.73 505.79 357.70 512.00 L 334.23 512.00 C 336.90 505.95 339.45 499.84 342.23 493.84 Z" />
<path fill="#f5e5c1" opacity="1.00" d=" M 258.95 502.33 C 259.50 500.91 260.04 499.51 260.68 498.14 C 260.19 499.62 259.70 501.09 259.21 502.58 C 261.39 502.39 263.58 502.20 265.76 502.01 C 264.08 505.31 262.59 508.71 260.89 512.00 L 254.79 512.00 C 256.28 508.82 257.64 505.58 258.95 502.33 Z" />
<path fill="#f5e5c1" opacity="1.00" d=" M 139.67 505.90 C 140.31 504.19 141.01 502.52 141.75 500.87 C 140.87 503.14 140.10 505.45 139.35 507.77 C 140.67 509.19 141.97 510.63 143.36 512.00 L 137.34 512.00 C 138.21 510.00 138.91 507.93 139.67 505.90 Z" />
<path fill="#3e3e3e" opacity="1.00" d=" M 247.02 503.02 C 251.00 502.83 254.98 502.63 258.95 502.33 C 257.64 505.58 256.28 508.82 254.79 512.00 L 240.38 512.00 C 242.57 508.99 244.70 505.94 247.02 503.02 Z" />
</svg>
