<?xml version="1.0" encoding="UTF-8" ?>
<!DOCTYPE svg PUBLIC "-//W3C//DTD SVG 1.1//EN" "http://www.w3.org/Graphics/SVG/1.1/DTD/svg11.dtd">
<svg width="512pt" height="512pt" viewBox="0 0 512 512" version="1.1" xmlns="http://www.w3.org/2000/svg">
<path fill="#3e3e3e" opacity="1.00" d=" M 0.00 0.00 L 127.68 0.00 C 122.01 18.18 115.59 36.11 109.86 54.27 C 100.19 48.70 90.76 42.68 81.46 36.52 C 81.21 36.66 80.73 36.94 80.48 37.08 C 82.45 48.89 84.47 60.69 86.27 72.53 C 63.13 68.45 40.19 63.30 17.10 58.92 C 11.39 57.73 5.60 56.89 0.00 55.21 L 0.00 0.00 Z" />
<path fill="#635f58" opacity="1.00" d=" M 127.68 0.00 L 136.91 0.00 C 129.18 21.51 122.43 43.37 114.99 64.98 C 106.18 59.58 97.48 53.98 88.62 48.65 C 90.25 59.54 92.24 70.37 93.96 81.24 C 67.31 76.62 40.91 70.59 14.31 65.70 C 28.36 87.62 43.16 109.06 57.35 130.89 C 48.18 133.69 38.86 135.96 29.61 138.47 C 38.83 144.53 48.51 149.86 57.67 156.00 C 38.73 172.75 19.02 188.63 0.00 205.28 L 0.00 194.88 C 13.59 183.54 26.92 171.89 40.61 160.68 C 42.53 159.04 44.26 157.20 45.97 155.35 C 35.59 148.93 25.08 142.72 14.78 136.17 C 25.02 133.35 35.30 130.70 45.55 127.87 C 30.68 104.82 15.36 82.04 0.00 59.31 L 0.00 55.21 C 5.60 56.89 11.39 57.73 17.10 58.92 C 40.19 63.30 63.13 68.45 86.27 72.53 C 84.47 60.69 82.45 48.89 80.48 37.08 C 80.73 36.94 81.21 36.66 81.46 36.52 C 90.76 42.68 100.19 48.70 109.86 54.27 C 115.59 36.11 122.01 18.18 127.68 0.00 Z" />
<path fill="#9f9683" opacity="1.00" d=" M 136.91 0.00 L 142.49 0.00 C 152.47 19.59 161.96 39.43 172.15 58.91 C 178.69 51.66 185.10 44.27 191.95 37.30 C 193.83 48.62 195.11 60.03 197.08 71.34 C 223.29 61.47 249.32 51.12 275.44 41.02 C 270.67 51.31 265.74 61.53 260.92 71.79 C 259.62 74.53 258.29 77.26 256.96 79.98 C 247.76 80.70 238.94 83.50 229.98 85.51 C 224.98 82.75 219.86 79.55 213.92 79.65 C 199.12 79.22 185.05 85.27 172.39 92.40 C 167.34 94.93 165.40 100.66 161.31 104.22 C 156.83 107.05 151.32 107.83 147.01 111.00 C 142.54 114.25 138.02 118.27 136.55 123.82 C 135.98 125.62 135.52 127.45 135.03 129.27 C 131.15 128.18 127.04 126.94 123.02 128.12 C 118.26 129.52 113.87 132.01 109.72 134.68 C 106.58 136.64 104.78 139.98 102.86 143.02 C 98.20 143.52 93.51 143.67 88.86 144.31 C 84.95 144.78 82.07 147.79 78.93 149.88 C 73.19 153.74 68.82 159.15 64.09 164.11 C 59.52 168.78 57.76 175.26 55.00 181.02 C 52.82 185.42 54.10 190.38 54.47 195.02 C 48.92 199.44 43.38 203.88 37.77 208.24 C 37.61 209.67 37.44 211.10 37.28 212.53 C 33.77 211.95 30.27 211.34 26.78 210.71 C 17.85 209.19 8.91 207.75 0.00 206.11 L 0.00 205.28 C 19.02 188.63 38.73 172.75 57.67 156.00 C 48.51 149.86 38.83 144.53 29.61 138.47 C 38.86 135.96 48.18 133.69 57.35 130.89 C 43.16 109.06 28.36 87.62 14.31 65.70 C 40.91 70.59 67.31 76.62 93.96 81.24 C 92.24 70.37 90.25 59.54 88.62 48.65 C 97.48 53.98 106.18 59.58 114.99 64.98 C 122.43 43.37 129.18 21.51 136.91 0.00 Z" />
<path fill="#635f58" opacity="1.00" d=" M 142.49 0.00 L 149.32 0.00 C 157.23 15.87 165.06 31.80 173.17 47.58 C 180.88 39.90 187.67 31.35 195.37 23.66 C 197.57 36.23 198.92 48.93 201.08 61.50 C 230.14 50.49 258.98 38.85 288.09 27.94 C 282.39 40.26 276.43 52.47 270.89 64.86 C 269.93 66.72 269.14 68.78 267.57 70.21 C 265.43 71.05 263.15 71.35 260.92 71.79 C 265.74 61.53 270.67 51.31 275.44 41.02 C 249.32 51.12 223.29 61.47 197.08 71.34 C 195.11 60.03 193.83 48.62 191.95 37.30 C 185.10 44.27 178.69 51.66 172.15 58.91 C 161.96 39.43 152.47 19.59 142.49 0.00 Z" />
<path fill="#3e3e3e" opacity="1.00" d=" M 149.32 0.00 L 512.00 0.00 L 512.00 512.00 L 441.85 512.00 C 441.24 507.61 440.49 503.21 440.61 498.76 C 440.77 491.38 438.23 484.35 436.79 477.20 C 433.97 464.01 430.51 450.97 427.24 437.89 C 423.27 419.53 418.13 401.45 412.29 383.61 C 407.83 372.74 406.29 360.97 402.23 349.96 C 399.57 342.74 397.24 335.34 393.53 328.56 C 390.22 322.68 389.32 315.84 386.44 309.77 C 381.85 300.14 376.25 290.90 368.72 283.27 L 368.99 282.81 C 376.27 288.13 380.37 296.54 384.69 304.22 C 390.08 313.72 392.81 324.37 397.47 334.20 C 401.18 342.88 404.59 351.72 406.98 360.86 C 409.04 367.83 410.42 375.00 413.18 381.75 C 418.21 396.25 422.09 411.13 425.98 425.97 C 427.49 432.65 428.87 439.37 431.09 445.86 C 434.11 460.28 437.90 474.53 441.01 488.93 C 442.52 495.50 439.90 502.83 444.13 508.71 C 445.38 507.09 446.71 505.35 446.20 503.17 C 445.70 499.64 446.39 496.19 447.33 492.81 C 445.36 489.84 442.71 487.41 440.40 484.72 C 443.34 480.14 445.58 474.78 450.11 471.51 C 452.83 471.66 453.42 475.54 454.96 477.46 C 458.03 470.73 461.15 464.01 464.31 457.32 C 465.59 454.73 466.16 451.86 466.20 448.98 C 466.52 436.28 466.95 423.57 467.42 410.88 C 467.64 407.98 466.77 405.17 465.47 402.62 C 460.48 392.52 455.66 382.35 450.81 372.19 C 448.46 367.14 444.68 363.00 441.33 358.63 C 431.38 345.80 421.39 332.99 411.47 320.15 C 410.87 322.94 410.24 325.74 409.59 328.53 C 405.19 327.15 401.51 324.32 398.09 321.33 C 399.22 316.90 400.52 312.52 401.96 308.18 C 399.47 305.01 396.95 301.86 394.34 298.79 C 390.89 298.30 386.04 299.64 383.86 296.15 C 382.39 292.32 383.08 288.09 382.25 284.14 C 380.37 280.14 377.05 277.07 374.09 273.88 C 380.82 261.84 387.30 249.66 393.43 237.31 C 396.20 237.39 398.96 237.45 401.73 237.51 C 402.67 235.67 403.62 233.84 404.57 232.01 C 403.82 231.24 403.07 230.47 402.32 229.70 C 401.06 231.79 399.80 233.88 398.53 235.95 C 395.40 234.12 392.32 232.18 389.43 229.99 C 389.37 229.21 389.26 227.67 389.20 226.90 C 387.73 227.11 386.27 227.33 384.81 227.54 C 382.19 225.81 379.58 224.09 377.01 222.30 C 378.30 220.33 379.57 218.34 380.81 216.34 C 379.31 216.31 377.80 216.23 376.31 216.37 C 375.20 217.69 374.35 219.21 373.44 220.67 C 375.07 222.79 376.65 224.95 378.20 227.12 C 370.15 238.75 362.43 250.59 354.37 262.21 C 352.13 260.82 349.89 259.43 347.66 258.02 C 344.41 258.99 341.17 259.99 337.94 260.98 C 332.63 255.77 327.29 250.54 321.01 246.50 C 316.67 248.50 312.33 250.50 307.99 252.50 C 302.08 248.85 295.80 245.79 290.08 241.85 C 285.33 237.02 283.35 230.10 278.64 225.25 C 275.07 223.68 271.05 222.86 267.16 223.28 C 256.49 225.51 246.31 230.06 237.72 236.81 C 227.17 243.67 218.12 252.45 209.50 261.55 C 202.27 268.00 197.12 276.33 192.63 284.82 C 187.23 294.55 182.31 304.53 177.31 314.46 C 174.56 320.05 172.84 326.14 169.27 331.32 C 167.77 333.23 167.98 335.62 168.41 337.86 C 171.67 333.21 174.20 328.11 177.31 323.37 C 181.62 317.40 186.82 312.16 192.06 307.03 C 202.72 296.35 213.65 285.94 224.97 275.97 C 229.72 271.93 233.31 266.19 239.37 263.97 C 246.84 261.16 253.87 257.35 261.31 254.47 C 265.25 252.74 269.73 251.87 272.79 248.61 C 273.11 249.34 273.31 250.11 273.47 250.90 C 270.50 251.40 267.64 252.36 264.91 253.61 C 256.82 257.23 248.71 260.82 240.69 264.59 C 233.93 267.78 229.48 274.01 223.96 278.80 C 219.09 282.99 214.42 287.39 209.93 291.97 C 215.04 289.47 220.06 286.65 225.60 285.18 C 234.95 282.27 244.80 281.98 254.37 280.18 C 260.83 278.88 267.46 279.33 273.99 278.78 C 281.95 278.05 289.89 279.47 297.66 281.06 C 306.09 282.63 312.94 288.24 319.17 293.80 C 341.57 314.83 363.37 336.82 380.93 362.14 C 388.88 373.39 394.91 385.82 400.99 398.13 C 404.81 407.31 409.47 416.11 412.72 425.52 C 417.63 439.17 422.82 452.75 426.08 466.92 C 429.35 481.87 433.44 496.71 434.86 512.00 L 415.73 512.00 C 413.11 496.79 410.26 481.57 406.07 466.70 C 400.18 450.35 395.10 433.68 388.05 417.76 C 384.12 409.20 381.46 399.89 375.62 392.36 C 368.83 383.49 361.87 374.74 355.22 365.75 C 351.41 360.76 348.94 354.89 344.90 350.07 C 337.09 340.63 329.57 330.80 320.13 322.91 C 315.66 319.01 310.94 315.43 306.23 311.85 C 301.68 308.43 298.09 303.57 292.58 301.60 C 286.93 299.52 281.13 297.27 275.00 297.47 C 264.52 297.73 254.00 298.75 243.85 301.54 C 233.67 303.71 222.94 305.86 214.60 312.52 C 205.94 319.50 196.70 325.87 189.13 334.10 C 181.28 341.61 175.44 350.78 169.85 360.01 C 167.44 363.85 164.20 367.13 162.26 371.26 C 150.99 394.62 139.55 417.91 128.22 441.25 C 120.64 456.33 114.30 471.99 107.43 487.40 C 103.84 495.41 101.92 504.09 98.13 512.00 L 0.00 512.00 L 0.00 214.48 C 7.26 216.00 14.58 217.45 21.99 217.91 C 22.97 215.14 24.57 212.66 26.78 210.71 C 30.27 211.34 33.77 211.95 37.28 212.53 C 37.44 211.10 37.61 209.67 37.77 208.24 C 43.38 203.88 48.92 199.44 54.47 195.02 C 54.10 190.38 52.82 185.42 55.00 181.02 C 57.76 175.26 59.52 168.78 64.09 164.11 C 68.82 159.15 73.19 153.74 78.93 149.88 C 82.07 147.79 84.95 144.78 88.86 144.31 C 93.51 143.67 98.20 143.52 102.86 143.02 C 104.78 139.98 106.58 136.64 109.72 134.68 C 113.87 132.01 118.26 129.52 123.02 128.12 C 127.04 126.94 131.15 128.18 135.03 129.27 C 135.52 127.45 135.98 125.62 136.55 123.82 C 138.02 118.27 142.54 114.25 147.01 111.00 C 151.32 107.83 156.83 107.05 161.31 104.22 C 165.40 100.66 167.34 94.93 172.39 92.40 C 185.05 85.27 199.12 79.22 213.92 79.65 C 219.86 79.55 224.98 82.75 229.98 85.51 C 238.94 83.50 247.76 80.70 256.96 79.98 C 258.29 77.26 259.62 74.53 260.92 71.79 C 263.15 71.35 265.43 71.05 267.57 70.21 C 269.14 68.78 269.93 66.72 270.89 64.86 C 276.43 52.47 282.39 40.26 288.09 27.94 C 258.98 38.85 230.14 50.49 201.08 61.50 C 198.92 48.93 197.57 36.23 195.37 23.66 C 187.67 31.35 180.88 39.90 173.17 47.58 C 165.06 31.80 157.23 15.87 149.32 0.00 Z" />
<path fill="#3e3e3e" opacity="1.00" d=" M 0.00 59.31 C 15.36 82.04 30.68 104.82 45.55 127.87 C 35.30 130.70 25.02 133.35 14.78 136.17 C 25.08 142.72 35.59 148.93 45.97 155.35 C 44.26 157.20 42.53 159.04 40.61 160.68 C 26.92 171.89 13.59 183.54 0.00 194.88 L 0.00 59.31 Z" />
<path fill="#f5e5c1" opacity="1.00" d=" M 199.89 90.77 C 206.41 89.24 213.40 88.34 219.96 89.96 C 226.82 92.51 227.01 100.51 229.86 106.18 C 234.94 121.27 241.09 136.02 245.34 151.38 C 246.33 154.20 245.09 157.18 242.65 158.78 C 236.53 163.32 230.63 168.28 223.78 171.72 C 215.67 164.42 206.37 156.99 194.96 156.51 C 187.23 156.50 179.42 157.07 171.96 159.22 C 167.60 160.20 163.47 162.01 159.09 162.87 C 156.68 161.32 155.53 158.35 154.00 155.99 C 149.99 147.69 145.48 139.31 144.37 130.04 C 144.63 121.02 152.94 114.79 160.98 112.62 C 165.39 111.40 168.96 114.75 172.86 116.08 C 183.82 119.82 195.76 118.97 206.88 116.41 C 205.68 115.30 204.84 113.29 202.93 113.46 C 194.98 112.95 187.00 113.77 179.05 113.29 C 176.46 112.89 173.28 112.67 171.66 110.29 C 170.03 105.45 174.87 101.88 177.84 98.85 C 184.56 94.80 192.15 92.11 199.89 90.77 Z" />
<path fill="#f5e5c1" opacity="1.00" d=" M 229.73 96.01 C 237.38 93.89 244.79 90.77 252.57 89.16 C 258.91 106.05 264.55 123.22 270.66 140.21 C 263.07 142.79 255.45 145.26 247.86 147.83 C 241.77 130.57 235.72 113.30 229.73 96.01 Z" />
<path fill="#f4722b" opacity="1.00" d=" M 446.68 102.23 C 447.98 101.48 449.41 100.99 450.80 100.43 C 454.80 103.14 458.93 105.63 463.01 108.22 C 462.18 109.53 461.35 110.84 460.53 112.15 C 458.27 115.68 456.09 119.25 453.85 122.78 C 433.16 155.49 412.52 188.24 391.90 220.99 C 390.54 223.10 388.98 225.84 386.04 225.59 C 383.76 224.60 381.70 223.20 379.59 221.92 C 391.73 201.02 402.47 179.36 413.99 158.11 C 419.44 147.41 425.91 137.28 431.66 126.75 C 433.65 123.01 435.46 119.16 437.85 115.65 C 440.98 111.30 443.58 106.60 446.68 102.23 Z" />
<path fill="#f5e5c1" opacity="1.00" d=" M 440.19 103.42 C 442.29 102.74 444.49 102.48 446.68 102.23 C 443.58 106.60 440.98 111.30 437.85 115.65 C 437.17 113.56 436.55 111.45 436.10 109.30 C 437.44 107.33 438.51 105.13 440.19 103.42 Z" />
<path fill="#3e3e3e" opacity="1.00" d=" M 448.27 106.05 C 451.83 104.12 457.83 107.37 456.25 111.83 C 455.57 116.21 448.43 117.72 446.46 113.59 C 444.75 111.10 445.53 107.42 448.27 106.05 Z" />
<path fill="#f5e5c1" opacity="1.00" d=" M 446.69 111.51 C 446.91 107.83 450.53 105.82 453.80 107.46 C 451.46 108.86 449.11 110.24 446.69 111.51 Z" />
<path fill="#f4722b" opacity="1.00" d=" M 460.94 114.70 C 462.10 112.81 463.37 110.98 464.60 109.13 C 468.02 111.54 471.71 113.53 475.13 115.94 C 476.74 117.03 477.06 119.17 477.40 120.96 C 476.22 124.04 473.96 126.54 472.19 129.29 C 462.76 143.60 452.33 157.22 442.13 170.98 C 433.23 183.71 423.64 195.93 415.09 208.89 C 409.67 217.21 403.33 224.87 397.71 233.06 C 394.85 231.61 392.06 229.89 390.21 227.20 C 411.89 192.72 433.59 158.26 455.34 123.82 C 457.25 120.81 459.16 117.79 460.94 114.70 Z" />
<path fill="#f5e5c1" opacity="1.00" d=" M 447.41 113.45 C 450.16 112.20 452.97 111.05 455.85 110.07 C 454.79 111.74 454.40 114.71 451.94 114.90 C 450.26 115.20 448.82 114.15 447.41 113.45 Z" />
<path fill="#f5e5c1" opacity="1.00" d=" M 453.85 122.78 C 456.09 119.25 458.27 115.68 460.53 112.15 C 460.63 112.79 460.84 114.06 460.94 114.70 C 459.16 117.79 457.25 120.81 455.34 123.82 C 454.97 123.56 454.22 123.04 453.85 122.78 Z" />
<path fill="#3e3e3e" opacity="1.00" d=" M 465.38 116.53 C 466.85 115.90 468.71 115.86 469.90 117.11 C 473.24 119.48 469.40 125.68 465.87 124.20 C 462.41 123.55 461.99 117.61 465.38 116.53 Z" />
<path fill="#f5e5c1" opacity="1.00" d=" M 466.74 116.79 C 467.97 117.78 469.29 118.72 470.20 120.05 C 469.77 120.95 469.31 121.83 468.81 122.69 C 468.01 120.76 467.29 118.80 466.74 116.79 Z" />
<path fill="#f5e5c1" opacity="1.00" d=" M 467.19 123.67 C 465.31 123.12 462.55 120.05 465.17 118.90 C 465.97 120.43 466.57 122.06 467.19 123.67 Z" />
<path fill="#f5e5c1" opacity="1.00" d=" M 118.26 139.26 C 122.60 136.60 128.19 136.43 132.93 137.99 C 136.95 140.10 139.84 143.81 142.97 147.00 C 147.37 152.74 152.21 158.28 155.23 164.92 C 148.08 168.17 141.55 172.61 135.49 177.57 C 131.00 181.36 127.25 185.91 123.16 190.11 C 112.22 203.92 109.55 222.51 111.55 239.60 C 108.78 239.66 105.97 239.10 104.11 236.89 C 92.52 225.45 82.07 212.92 71.07 200.94 C 68.46 196.86 63.33 194.21 62.85 189.02 C 61.93 184.01 65.24 179.59 67.57 175.46 C 72.78 168.77 78.06 161.96 84.99 156.95 C 89.00 153.08 94.54 151.19 100.07 151.27 C 103.08 151.28 105.02 154.84 103.88 157.51 C 101.11 166.43 94.85 173.71 91.46 182.37 C 90.83 183.79 91.08 185.93 92.92 186.20 C 99.96 178.14 105.79 168.62 107.92 158.02 C 108.64 154.86 108.18 151.60 108.69 148.43 C 110.08 143.94 114.44 141.45 118.26 139.26 Z" />
<path fill="#635f58" opacity="1.00" d=" M 273.51 151.98 C 276.87 151.16 280.31 149.79 283.82 150.35 C 286.88 151.30 289.53 153.17 292.33 154.68 C 308.35 163.14 324.50 171.39 340.31 180.23 C 311.73 187.65 283.14 195.08 254.48 202.23 C 256.50 205.94 258.89 209.44 260.95 213.13 C 257.73 212.31 256.12 209.25 254.18 206.86 C 251.59 203.46 248.51 200.48 245.37 197.60 C 258.87 194.75 272.12 190.86 285.51 187.53 C 297.66 184.27 309.95 181.50 322.01 177.91 C 306.02 168.96 289.56 160.85 273.51 151.98 Z" />
<path fill="#9f9683" opacity="1.00" d=" M 255.05 153.99 C 259.72 153.02 264.31 151.71 269.01 150.90 C 270.60 150.46 272.12 151.31 273.51 151.98 C 289.56 160.85 306.02 168.96 322.01 177.91 C 309.95 181.50 297.66 184.27 285.51 187.53 C 272.12 190.86 258.87 194.75 245.37 197.60 C 240.49 190.67 235.41 183.89 229.57 177.73 C 236.33 172.79 242.78 167.45 249.35 162.26 C 252.08 160.16 253.46 156.93 255.05 153.99 Z" />
<path fill="#f4722b" opacity="1.00" d=" M 189.03 165.36 C 192.02 165.01 195.33 163.92 197.97 165.94 C 203.49 169.47 209.47 172.32 214.69 176.29 C 223.49 184.82 232.03 193.63 240.75 202.24 C 247.28 208.34 252.55 215.62 257.77 222.83 C 253.39 224.77 248.99 226.70 244.95 229.31 C 240.18 232.38 235.00 234.86 230.68 238.59 C 226.11 242.69 221.27 246.48 216.91 250.81 C 216.41 244.25 213.42 238.36 211.41 232.24 C 213.17 226.98 216.64 222.53 219.33 217.73 C 220.09 213.91 221.88 210.41 223.67 206.98 C 220.15 199.50 216.82 191.48 210.40 185.97 C 215.13 192.56 219.41 199.49 222.48 207.02 C 218.27 214.77 212.83 221.77 208.90 229.67 C 208.83 229.06 208.69 227.83 208.63 227.22 C 207.95 227.34 206.59 227.60 205.91 227.72 C 199.31 219.57 192.65 211.24 184.14 204.98 C 191.05 195.66 200.31 187.96 211.05 183.46 C 204.27 184.70 198.62 189.08 193.54 193.49 C 189.38 197.01 186.26 201.51 182.29 205.22 C 191.89 211.28 198.79 220.50 206.00 229.06 C 210.24 235.07 212.87 242.06 215.32 248.96 C 215.41 249.74 215.58 251.30 215.67 252.08 C 209.51 258.52 203.25 264.95 198.45 272.51 C 190.05 286.11 182.89 300.42 175.88 314.77 C 173.56 319.10 172.70 324.05 170.36 328.36 C 168.88 329.00 166.85 330.17 165.68 328.41 C 162.39 322.78 161.59 315.85 157.22 310.83 C 154.61 307.48 153.38 303.35 151.52 299.59 C 154.20 297.43 156.77 295.12 159.57 293.11 C 164.73 289.44 170.69 286.94 175.45 282.71 C 176.67 282.99 177.89 283.26 179.12 283.54 C 179.84 283.14 181.28 282.33 182.01 281.93 C 173.65 279.47 164.74 279.21 156.14 280.27 C 151.66 280.69 147.73 283.01 143.76 284.90 C 143.50 285.33 142.96 286.18 142.70 286.61 C 144.94 285.89 147.19 285.20 149.44 284.48 L 149.52 284.75 C 149.77 285.55 150.27 287.14 150.52 287.94 C 146.77 288.15 142.84 288.28 139.51 286.24 C 139.89 283.12 140.21 279.99 140.41 276.85 C 144.26 271.07 151.44 269.17 158.05 269.64 C 165.37 269.68 172.04 273.18 179.28 273.81 C 180.68 272.20 182.13 270.65 183.62 269.13 C 183.54 263.77 182.12 258.59 180.40 253.56 C 178.29 247.32 178.57 240.60 176.56 234.34 C 175.41 231.50 176.64 228.51 176.38 225.60 C 172.39 220.85 165.71 219.00 162.51 213.50 C 160.60 210.32 158.00 207.53 156.62 204.06 C 156.96 200.61 158.03 197.06 160.43 194.47 C 165.09 189.36 169.07 183.68 173.32 178.24 C 173.35 174.80 172.47 171.48 170.86 168.46 C 176.75 166.57 182.98 166.40 189.03 165.36 Z" />
<path fill="#f4722b" opacity="1.00" d=" M 152.00 176.94 C 157.58 173.83 163.66 171.80 169.48 169.19 C 171.09 172.50 174.19 176.84 171.29 180.30 C 167.75 185.06 164.10 189.75 160.23 194.24 C 157.85 197.10 156.09 200.94 156.64 204.70 C 157.99 208.02 160.38 210.78 162.29 213.78 C 165.63 219.19 172.14 221.25 176.15 226.00 C 176.06 228.65 175.38 231.36 176.19 233.97 C 178.16 240.78 177.82 248.07 180.37 254.74 C 182.10 259.18 183.05 263.88 183.30 268.63 C 181.10 270.09 179.08 271.81 176.83 273.20 C 175.55 272.92 174.36 272.36 173.16 271.85 C 171.85 271.42 170.53 271.00 169.22 270.59 C 162.48 269.07 155.50 268.85 148.65 269.62 C 145.22 270.15 142.70 272.75 140.10 274.81 C 139.39 273.53 138.67 272.27 137.96 271.00 C 135.90 272.21 133.85 273.44 131.83 274.71 C 129.54 273.89 126.78 273.12 125.65 270.73 C 124.38 264.71 123.23 258.27 125.61 252.36 C 126.92 249.25 125.56 246.02 124.84 242.95 C 124.12 242.83 122.70 242.59 121.99 242.46 C 120.30 235.66 116.57 228.40 119.49 221.43 C 121.48 215.08 123.35 208.69 125.58 202.42 C 127.45 196.05 133.46 192.36 137.39 187.35 C 141.15 182.49 146.84 179.97 152.00 176.94 Z" />
<path fill="#3e3e3e" opacity="1.00" d=" M 206.56 191.55 C 208.43 190.95 211.04 190.86 212.06 192.91 C 214.31 196.78 218.35 200.57 217.32 205.44 C 216.89 206.97 215.22 207.35 214.02 208.08 C 213.21 210.39 212.33 212.68 211.39 214.95 C 206.71 215.32 204.29 211.13 201.75 207.98 C 200.56 207.64 199.55 206.93 198.58 206.17 C 198.48 203.65 197.99 201.04 198.69 198.57 C 200.16 195.30 202.83 192.13 206.56 191.55 Z" />
<path fill="#f4722b" opacity="1.00" d=" M 202.31 195.41 C 204.60 194.14 207.20 193.39 209.81 193.22 C 212.65 195.89 214.62 199.37 216.29 202.87 C 216.96 203.85 216.12 204.83 215.78 205.75 C 215.35 206.10 214.50 206.80 214.07 207.14 C 213.23 209.07 212.42 211.01 211.63 212.96 C 211.23 209.06 211.88 203.56 207.37 201.80 C 204.50 200.66 202.62 203.43 200.78 205.07 C 200.44 205.04 199.75 204.96 199.41 204.93 C 198.68 201.55 199.32 197.53 202.31 195.41 Z" />
<path fill="#f5e5c1" opacity="1.00" d=" M 46.30 214.21 C 52.03 208.62 57.76 203.04 63.55 197.52 C 75.82 211.05 88.19 224.50 100.50 238.01 C 94.67 243.51 88.84 249.00 83.00 254.50 C 70.77 241.07 58.46 227.71 46.30 214.21 Z" />
<path fill="#635f58" opacity="1.00" d=" M 0.00 206.11 C 8.91 207.75 17.85 209.19 26.78 210.71 C 24.57 212.66 22.97 215.14 21.99 217.91 C 14.58 217.45 7.26 216.00 0.00 214.48 L 0.00 206.11 Z" />
<path fill="#f5e5c1" opacity="1.00" d=" M 376.31 216.37 C 377.80 216.23 379.31 216.31 380.81 216.34 C 379.57 218.34 378.30 220.33 377.01 222.30 C 379.58 224.09 382.19 225.81 384.81 227.54 C 386.27 227.33 387.73 227.11 389.20 226.90 C 389.26 227.67 389.37 229.21 389.43 229.99 C 392.32 232.18 395.40 234.12 398.53 235.95 C 399.80 233.88 401.06 231.79 402.32 229.70 C 403.07 230.47 403.82 231.24 404.57 232.01 C 403.62 233.84 402.67 235.67 401.73 237.51 C 398.96 237.45 396.20 237.39 393.43 237.31 C 387.30 249.66 380.82 261.84 374.09 273.88 C 372.39 276.85 370.72 279.85 368.99 282.81 L 368.72 283.27 C 366.63 286.83 364.85 290.56 362.87 294.18 C 362.55 294.74 361.90 295.86 361.58 296.42 C 354.39 292.34 347.81 287.27 340.68 283.09 C 341.63 281.60 342.58 280.10 343.56 278.63 C 347.24 273.21 350.71 267.65 354.37 262.21 C 362.43 250.59 370.15 238.75 378.20 227.12 C 376.65 224.95 375.07 222.79 373.44 220.67 C 374.35 219.21 375.20 217.69 376.31 216.37 Z" />
<path fill="#3e3e3e" opacity="1.00" d=" M 383.45 218.42 C 384.62 218.59 385.81 218.76 386.94 219.17 C 387.34 220.76 386.29 221.90 385.15 222.82 C 383.55 221.84 383.61 220.02 383.45 218.42 Z" />
<path fill="#f4722b" opacity="1.00" d=" M 237.72 236.81 C 246.31 230.06 256.49 225.51 267.16 223.28 C 271.05 222.86 275.07 223.68 278.64 225.25 C 283.35 230.10 285.33 237.02 290.08 241.85 C 295.80 245.79 302.08 248.85 307.99 252.50 C 312.33 250.50 316.67 248.50 321.01 246.50 C 327.29 250.54 332.63 255.77 337.94 260.98 C 341.17 259.99 344.41 258.99 347.66 258.02 C 349.89 259.43 352.13 260.82 354.37 262.21 C 350.71 267.65 347.24 273.21 343.56 278.63 C 338.63 277.15 333.50 276.30 328.82 274.09 C 323.01 271.35 316.90 269.15 311.56 265.50 C 318.93 272.25 327.54 277.42 335.96 282.72 C 330.47 279.89 324.18 279.16 318.74 276.21 C 315.61 274.49 312.18 273.45 308.66 272.91 C 316.19 278.04 324.17 282.46 332.13 286.88 C 338.53 290.48 345.64 292.91 351.39 297.60 C 357.01 302.35 361.86 307.99 365.78 314.21 C 370.14 321.14 375.50 327.39 379.47 334.56 C 387.10 348.01 395.60 361.00 402.04 375.08 C 397.15 361.31 390.23 348.38 383.48 335.45 C 380.22 330.37 378.77 324.43 375.62 319.31 C 371.92 313.19 369.15 306.55 365.14 300.61 C 368.04 300.55 370.95 300.43 373.84 300.06 C 370.50 297.57 366.85 295.46 362.87 294.18 C 364.85 290.56 366.63 286.83 368.72 283.27 C 376.25 290.90 381.85 300.14 386.44 309.77 C 389.32 315.84 390.22 322.68 393.53 328.56 C 397.24 335.34 399.57 342.74 402.23 349.96 C 406.29 360.97 407.83 372.74 412.29 383.61 C 418.13 401.45 423.27 419.53 427.24 437.89 C 430.51 450.97 433.97 464.01 436.79 477.20 C 438.23 484.35 440.77 491.38 440.61 498.76 C 440.49 503.21 441.24 507.61 441.85 512.00 L 434.86 512.00 C 433.44 496.71 429.35 481.87 426.08 466.92 C 422.82 452.75 417.63 439.17 412.72 425.52 C 409.47 416.11 404.81 407.31 400.99 398.13 C 394.91 385.82 388.88 373.39 380.93 362.14 C 363.37 336.82 341.57 314.83 319.17 293.80 C 312.94 288.24 306.09 282.63 297.66 281.06 C 289.89 279.47 281.95 278.05 273.99 278.78 C 267.46 279.33 260.83 278.88 254.37 280.18 C 244.80 281.98 234.95 282.27 225.60 285.18 C 220.06 286.65 215.04 289.47 209.93 291.97 C 214.42 287.39 219.09 282.99 223.96 278.80 C 229.48 274.01 233.93 267.78 240.69 264.59 C 248.71 260.82 256.82 257.23 264.91 253.61 C 267.64 252.36 270.50 251.40 273.47 250.90 C 273.31 250.11 273.11 249.34 272.79 248.61 C 269.73 251.87 265.25 252.74 261.31 254.47 C 253.87 257.35 246.84 261.16 239.37 263.97 C 233.31 266.19 229.72 271.93 224.97 275.97 C 213.65 285.94 202.72 296.35 192.06 307.03 C 186.82 312.16 181.62 317.40 177.31 323.37 C 174.20 328.11 171.67 333.21 168.41 337.86 C 167.98 335.62 167.77 333.23 169.27 331.32 C 172.84 326.14 174.56 320.05 177.31 314.46 C 182.31 304.53 187.23 294.55 192.63 284.82 C 197.12 276.33 202.27 268.00 209.50 261.55 C 218.12 252.45 227.17 243.67 237.72 236.81 Z" />
<path fill="#3e3e3e" opacity="1.00" d=" M 394.37 227.54 C 393.88 225.82 395.94 225.24 397.26 225.49 C 397.54 226.60 397.78 227.73 397.98 228.87 C 396.97 228.31 394.05 229.40 394.37 227.54 Z" />
<path fill="#3e3e3e" opacity="1.00" d=" M 120.97 235.99 C 122.44 232.72 123.07 228.13 127.01 226.90 C 133.39 225.61 139.81 227.27 145.94 229.00 C 142.17 234.81 137.89 240.38 135.23 246.82 C 134.36 249.34 133.44 252.41 135.05 254.83 C 137.91 257.23 141.73 258.96 142.52 263.02 C 141.64 264.48 140.78 265.95 139.94 267.44 C 137.47 268.43 135.06 269.65 133.18 271.58 C 133.32 270.47 133.45 269.37 133.58 268.27 C 135.54 266.24 137.97 264.65 140.94 265.50 C 141.15 264.03 142.18 262.45 141.42 260.99 C 139.82 258.07 136.57 256.75 133.72 255.41 C 133.34 254.67 133.07 253.89 132.92 253.08 C 133.82 250.12 134.73 247.15 135.62 244.18 C 133.24 242.55 132.19 239.94 131.84 237.16 C 128.77 235.09 124.49 236.94 120.97 235.99 Z" />
<path fill="#f4722b" opacity="1.00" d=" M 133.28 236.05 C 135.48 235.05 137.77 234.26 140.12 233.71 C 140.29 234.29 140.63 235.46 140.80 236.05 C 138.26 236.29 135.73 236.61 133.19 236.81 C 133.21 236.62 133.26 236.24 133.28 236.05 Z" />
<path fill="#f5e5c1" opacity="1.00" d=" M 134.81 242.03 C 132.71 238.81 136.36 236.43 139.31 237.41 C 137.95 239.08 136.53 240.71 134.81 242.03 Z" />
<path fill="#9f9683" opacity="1.00" d=" M 94.31 258.12 C 97.11 254.12 99.98 250.17 102.87 246.24 C 108.39 249.36 114.80 246.56 120.76 247.11 C 118.35 255.89 118.66 265.07 119.42 274.06 C 119.78 277.98 122.14 281.29 124.26 284.46 C 114.99 295.66 105.99 307.12 96.21 317.88 C 95.89 298.25 95.39 278.62 94.38 259.02 L 94.31 258.12 Z" />
<path fill="#635f58" opacity="1.00" d=" M 94.38 259.02 C 95.39 278.62 95.89 298.25 96.21 317.88 C 105.99 307.12 114.99 295.66 124.26 284.46 C 125.93 284.79 127.60 285.13 129.27 285.48 C 128.65 287.57 127.80 289.61 126.29 291.22 C 113.58 306.07 101.59 321.53 88.63 336.15 C 88.33 327.11 88.55 318.05 88.19 309.01 C 86.79 296.10 87.76 283.09 86.88 270.17 C 88.54 266.00 91.99 262.79 94.38 259.02 Z" />
<path fill="#3e3e3e" opacity="1.00" d=" M 311.56 265.50 C 316.90 269.15 323.01 271.35 328.82 274.09 C 333.50 276.30 338.63 277.15 343.56 278.63 C 342.58 280.10 341.63 281.60 340.68 283.09 C 347.81 287.27 354.39 292.34 361.58 296.42 C 361.90 295.86 362.55 294.74 362.87 294.18 C 366.85 295.46 370.50 297.57 373.84 300.06 C 370.95 300.43 368.04 300.55 365.14 300.61 C 369.15 306.55 371.92 313.19 375.62 319.31 C 378.77 324.43 380.22 330.37 383.48 335.45 C 390.23 348.38 397.15 361.31 402.04 375.08 C 395.60 361.00 387.10 348.01 379.47 334.56 C 375.50 327.39 370.14 321.14 365.78 314.21 C 361.86 307.99 357.01 302.35 351.39 297.60 C 345.64 292.91 338.53 290.48 332.13 286.88 C 324.17 282.46 316.19 278.04 308.66 272.91 C 312.18 273.45 315.61 274.49 318.74 276.21 C 324.18 279.16 330.47 279.89 335.96 282.72 C 327.54 277.42 318.93 272.25 311.56 265.50 Z" />
<path fill="#f4722b" opacity="1.00" d=" M 368.99 282.81 C 370.72 279.85 372.39 276.85 374.09 273.88 C 377.05 277.07 380.37 280.14 382.25 284.14 C 383.08 288.09 382.39 292.32 383.86 296.15 C 386.04 299.64 390.89 298.30 394.34 298.79 C 396.95 301.86 399.47 305.01 401.96 308.18 C 400.52 312.52 399.22 316.90 398.09 321.33 C 401.51 324.32 405.19 327.15 409.59 328.53 C 410.24 325.74 410.87 322.94 411.47 320.15 C 421.39 332.99 431.38 345.80 441.33 358.63 C 444.68 363.00 448.46 367.14 450.81 372.19 C 455.66 382.35 460.48 392.52 465.47 402.62 C 466.77 405.17 467.64 407.98 467.42 410.88 C 466.95 423.57 466.52 436.28 466.20 448.98 C 466.16 451.86 465.59 454.73 464.31 457.32 C 461.15 464.01 458.03 470.73 454.96 477.46 C 453.42 475.54 452.83 471.66 450.11 471.51 C 445.58 474.78 443.34 480.14 440.40 484.72 C 442.71 487.41 445.36 489.84 447.33 492.81 C 446.39 496.19 445.70 499.64 446.20 503.17 C 446.71 505.35 445.38 507.09 444.13 508.71 C 439.90 502.83 442.52 495.50 441.01 488.93 C 437.90 474.53 434.11 460.28 431.09 445.86 C 428.87 439.37 427.49 432.65 425.98 425.97 C 422.09 411.13 418.21 396.25 413.18 381.75 C 410.42 375.00 409.04 367.83 406.98 360.86 C 404.59 351.72 401.18 342.88 397.47 334.20 C 392.81 324.37 390.08 313.72 384.69 304.22 C 380.37 296.54 376.27 288.13 368.99 282.81 Z" />
<path fill="#f5e5c1" opacity="1.00" d=" M 149.52 284.75 C 153.17 283.41 156.95 282.48 160.81 282.05 C 157.16 283.96 155.10 288.31 150.87 289.07 L 150.52 287.94 C 150.27 287.14 149.77 285.55 149.52 284.75 Z" />
<path fill="#f5e5c1" opacity="1.00" d=" M 163.15 287.45 C 166.75 284.83 170.83 282.47 175.45 282.71 C 170.69 286.94 164.73 289.44 159.57 293.11 C 158.26 291.90 158.02 290.65 159.87 289.87 C 160.93 289.01 162.04 288.22 163.15 287.45 Z" />
<path fill="#f4722b" opacity="1.00" d=" M 155.88 288.29 C 158.03 286.56 160.62 286.48 163.15 287.45 C 162.04 288.22 160.93 289.01 159.87 289.87 L 159.69 288.34 C 158.74 288.33 156.83 288.30 155.88 288.29 Z" />
<path fill="#f4722b" opacity="1.00" d=" M 243.85 301.54 C 254.00 298.75 264.52 297.73 275.00 297.47 C 281.13 297.27 286.93 299.52 292.58 301.60 C 298.09 303.57 301.68 308.43 306.23 311.85 C 310.94 315.43 315.66 319.01 320.13 322.91 C 329.57 330.80 337.09 340.63 344.90 350.07 C 348.94 354.89 351.41 360.76 355.22 365.75 C 361.87 374.74 368.83 383.49 375.62 392.36 C 381.46 399.89 384.12 409.20 388.05 417.76 C 395.10 433.68 400.18 450.35 406.07 466.70 C 410.26 481.57 413.11 496.79 415.73 512.00 L 98.13 512.00 C 101.92 504.09 103.84 495.41 107.43 487.40 C 114.30 471.99 120.64 456.33 128.22 441.25 C 139.55 417.91 150.99 394.62 162.26 371.26 C 164.20 367.13 167.44 363.85 169.85 360.01 C 175.44 350.78 181.28 341.61 189.13 334.10 C 196.70 325.87 205.94 319.50 214.60 312.52 C 222.94 305.86 233.67 303.71 243.85 301.54 Z" />
<path fill="#3e3e3e" opacity="1.00" d=" M 411.01 337.98 C 411.48 336.31 413.57 335.67 414.51 337.37 C 416.25 340.71 417.55 344.26 419.34 347.59 C 421.01 350.16 420.02 353.25 419.78 356.08 C 415.67 353.46 411.02 351.99 406.60 350.05 C 407.57 345.86 409.28 341.89 411.01 337.98 Z" />
<path fill="#3e3e3e" opacity="1.00" d=" M 191.16 357.40 C 200.58 353.81 210.73 351.84 220.84 352.60 C 223.04 353.03 224.94 354.32 226.88 355.39 C 227.41 355.42 228.48 355.49 229.02 355.52 C 236.41 362.10 240.95 371.50 242.02 381.31 C 243.28 393.43 242.79 406.26 237.31 417.38 C 233.26 425.96 229.81 435.17 223.12 442.12 C 216.28 448.56 211.13 457.07 202.41 461.28 C 197.30 463.58 192.87 467.15 187.71 469.32 C 178.62 472.65 168.75 475.67 159.02 473.55 C 150.60 472.07 143.17 466.67 138.48 459.62 C 134.62 453.35 135.11 445.65 135.94 438.64 C 139.32 424.12 147.31 411.35 154.49 398.48 C 162.76 386.90 171.11 375.28 180.81 364.84 C 183.79 361.79 187.13 358.96 191.16 357.40 Z" />
<path fill="#f4722b" opacity="1.00" d=" M 193.63 357.13 C 201.70 354.28 210.44 352.38 219.02 353.58 C 228.33 356.98 236.44 364.51 238.77 374.40 C 241.09 386.49 241.37 399.32 237.38 411.11 C 234.60 417.41 232.26 423.90 229.36 430.15 C 224.71 438.83 217.46 445.69 210.58 452.58 C 205.82 457.41 199.82 460.68 194.13 464.25 C 190.36 466.63 186.38 468.67 182.23 470.33 C 181.18 470.66 180.14 471.00 179.10 471.34 C 177.08 471.63 175.08 472.02 173.13 472.60 C 166.71 472.92 160.26 472.41 153.95 471.19 C 148.30 469.54 143.30 465.53 140.81 460.15 C 135.82 451.01 136.41 439.73 140.21 430.28 C 142.95 422.22 147.68 415.09 151.26 407.41 C 155.93 398.36 161.08 389.49 167.62 381.64 C 175.09 372.40 182.02 361.54 193.63 357.13 Z" />
<path fill="#3e3e3e" opacity="1.00" d=" M 418.98 377.85 C 420.11 373.62 421.23 369.28 423.97 365.75 C 427.25 368.60 428.71 372.83 430.18 376.79 C 431.27 379.72 431.32 383.19 429.29 385.74 C 428.12 386.32 427.20 385.31 426.32 384.71 C 423.66 382.66 421.29 380.27 418.98 377.85 Z" />
<path fill="#3e3e3e" opacity="1.00" d=" M 191.53 384.43 C 193.66 383.26 196.21 382.56 198.58 383.47 C 199.89 384.78 200.00 387.23 198.46 388.43 C 194.90 391.60 190.12 392.88 186.34 395.75 C 191.75 394.20 196.68 390.30 202.61 391.41 C 202.58 393.33 203.31 395.46 202.35 397.24 C 197.68 400.04 192.41 401.67 187.58 404.17 C 187.59 405.11 187.61 406.98 187.62 407.91 C 191.69 406.35 195.46 404.17 199.32 402.17 C 201.19 401.20 204.01 400.66 205.45 402.62 C 206.12 404.46 206.17 407.12 204.18 408.17 C 200.02 410.97 195.35 412.86 190.88 415.08 C 189.22 415.63 188.42 417.05 188.21 418.75 C 193.37 416.92 198.27 413.01 204.06 414.22 C 205.63 414.40 206.10 416.75 204.81 417.71 C 200.99 421.71 195.42 423.16 190.90 426.14 C 189.29 427.15 189.88 429.50 189.28 431.05 C 193.54 429.49 197.50 427.21 201.82 425.82 C 203.79 424.95 205.76 426.07 207.63 426.62 C 207.51 428.67 207.97 431.40 205.59 432.36 C 195.89 437.17 185.51 440.66 176.30 446.43 C 173.91 447.82 171.21 449.51 168.33 448.68 C 166.05 448.27 165.68 445.25 166.56 443.51 C 169.18 441.10 172.56 439.75 175.57 437.91 C 175.40 437.03 175.05 435.27 174.88 434.40 C 170.22 436.41 165.65 439.69 160.30 438.67 C 160.36 437.29 160.32 435.90 160.55 434.55 C 164.05 431.54 168.38 429.70 172.45 427.58 C 172.39 426.76 172.29 425.12 172.23 424.30 C 168.17 425.99 164.70 429.56 160.16 429.81 C 157.30 430.11 156.43 425.99 158.51 424.48 C 161.99 421.09 166.38 418.84 170.60 416.51 C 170.60 415.85 170.61 414.52 170.62 413.85 C 166.67 415.65 163.31 419.10 158.96 419.77 C 155.60 420.22 155.31 415.29 157.41 413.61 C 162.04 408.96 168.75 407.04 172.96 401.86 C 168.64 403.93 164.45 407.14 159.39 406.65 C 159.52 404.67 158.87 402.16 160.91 400.94 C 170.25 393.96 181.24 389.76 191.53 384.43 Z" />
<path fill="#3e3e3e" opacity="1.00" d=" M 425.16 411.99 C 427.41 406.25 431.28 401.21 434.04 395.67 C 437.07 398.68 437.30 403.14 439.21 406.78 C 440.07 409.14 441.78 411.55 441.21 414.16 C 439.76 417.08 437.58 419.67 434.94 421.58 C 431.86 418.27 426.73 416.37 425.16 411.99 Z" />
<path fill="#3e3e3e" opacity="1.00" d=" M 437.61 434.57 C 438.26 433.14 439.95 433.31 441.24 432.94 C 442.96 438.95 446.72 444.12 448.53 450.07 C 449.27 452.39 447.16 452.59 445.49 452.93 C 444.98 454.53 444.50 456.13 444.05 457.75 C 441.86 458.07 439.90 457.20 438.52 455.50 C 435.84 452.48 431.20 449.80 432.04 445.12 C 432.97 441.22 435.51 437.92 437.61 434.57 Z" />
</svg>
