<?xml version="1.0" encoding="UTF-8" ?>
<!DOCTYPE svg PUBLIC "-//W3C//DTD SVG 1.1//EN" "http://www.w3.org/Graphics/SVG/1.1/DTD/svg11.dtd">
<svg width="512pt" height="512pt" viewBox="0 0 512 512" version="1.1" xmlns="http://www.w3.org/2000/svg">
<path fill="#3e3e3e" opacity="1.00" d=" M 0.00 0.00 L 155.92 0.00 C 157.22 9.72 157.64 21.38 166.03 27.96 C 177.25 36.60 187.76 46.37 196.09 57.88 C 202.65 67.23 208.07 78.21 207.53 89.92 C 207.19 102.14 199.63 113.05 190.14 120.22 C 184.65 124.42 176.64 126.18 170.42 122.54 C 163.82 118.69 159.85 111.68 157.28 104.70 C 152.01 89.66 152.38 72.81 157.98 57.91 C 146.08 69.95 135.00 84.68 133.64 102.13 C 132.42 117.51 140.18 131.85 149.60 143.43 C 159.88 156.74 173.39 167.72 180.86 183.07 C 187.60 196.42 190.65 212.64 184.89 226.89 C 179.90 239.78 168.19 248.75 155.69 253.76 C 151.30 255.43 146.36 256.63 141.75 255.16 C 137.69 253.78 135.13 249.79 134.28 245.74 C 133.08 239.87 133.54 233.71 135.13 227.96 C 136.54 222.64 140.14 218.32 142.24 213.30 C 147.06 202.10 149.36 189.58 147.41 177.45 C 145.73 167.73 139.82 158.84 131.35 153.73 C 122.65 148.39 113.31 142.09 109.84 131.96 C 107.89 126.92 109.20 121.51 110.78 116.57 C 105.61 118.76 100.60 122.35 98.97 128.00 C 95.76 138.34 100.00 148.82 103.45 158.49 C 105.72 165.55 107.52 173.79 103.73 180.66 C 100.40 186.44 93.37 188.60 87.07 188.81 C 81.01 189.35 75.38 185.87 71.45 181.53 C 65.65 174.91 64.87 165.30 67.04 157.07 C 70.39 143.78 78.16 132.12 86.49 121.44 C 91.38 115.22 94.58 107.87 97.32 100.50 C 102.07 87.42 103.42 72.85 99.50 59.37 C 94.92 42.85 83.59 29.14 70.99 17.93 C 76.57 28.39 82.20 39.77 80.99 51.98 C 79.59 64.81 71.47 75.35 65.13 86.14 C 51.85 107.34 42.64 131.24 39.51 156.11 C 38.36 167.58 38.62 179.42 42.32 190.44 C 47.71 207.59 60.85 221.33 64.60 239.11 C 67.50 252.93 65.85 267.88 59.52 280.55 C 54.20 291.22 43.38 300.03 30.99 299.66 C 17.56 299.51 6.42 289.63 0.00 278.55 L 0.00 243.96 C 7.43 233.54 16.22 223.68 20.36 211.35 C 23.29 203.23 22.48 194.21 19.74 186.16 C 15.54 173.67 7.99 162.70 0.00 152.38 L 0.00 0.00 Z" />
<path fill="#f4722b" opacity="1.00" d=" M 155.92 0.00 L 166.03 0.00 C 167.07 7.18 166.80 16.01 173.20 20.84 C 186.53 31.03 198.78 42.95 207.70 57.26 C 213.30 66.16 216.97 76.41 217.64 86.95 C 218.12 103.72 208.62 119.71 195.00 129.06 C 187.78 133.93 178.29 136.22 169.91 133.17 C 161.75 130.51 155.57 123.88 151.62 116.47 C 148.00 110.28 146.55 103.21 144.54 96.41 C 143.96 100.55 143.35 104.75 143.77 108.94 C 144.35 116.06 147.64 122.60 151.28 128.62 C 161.40 144.52 176.76 156.32 186.48 172.51 C 192.86 182.90 196.73 194.80 197.87 206.92 C 198.99 223.51 192.20 240.60 179.32 251.28 C 170.53 258.34 160.26 264.11 148.96 265.68 C 140.64 266.77 131.62 263.00 127.47 255.52 C 121.62 244.69 122.94 231.48 127.26 220.36 C 130.00 214.44 133.83 209.00 135.59 202.65 C 138.28 192.97 139.72 181.92 135.37 172.51 C 130.72 162.66 119.47 159.43 112.02 152.29 C 115.01 161.81 117.92 172.29 114.04 182.02 C 111.02 191.47 101.50 197.05 92.09 198.32 C 77.15 201.60 61.32 190.94 57.55 176.36 C 54.51 167.11 56.17 157.15 59.29 148.16 C 61.79 140.87 65.51 134.06 69.69 127.62 C 74.91 119.24 82.14 112.11 85.67 102.72 C 91.93 89.59 93.33 74.39 89.68 60.31 C 84.71 76.92 73.13 90.29 65.61 105.69 C 54.85 127.32 47.21 151.50 49.36 175.91 C 50.53 189.91 58.54 201.87 65.18 213.81 C 72.80 227.13 77.21 242.66 75.79 258.06 C 74.41 271.94 70.22 286.15 60.50 296.55 C 52.79 304.98 41.41 310.06 29.95 309.71 C 18.54 309.14 8.02 303.45 0.00 295.53 L 0.00 278.55 C 6.42 289.63 17.56 299.51 30.99 299.66 C 43.38 300.03 54.20 291.22 59.52 280.55 C 65.85 267.88 67.50 252.93 64.60 239.11 C 60.85 221.33 47.71 207.59 42.32 190.44 C 38.62 179.42 38.36 167.58 39.51 156.11 C 42.64 131.24 51.85 107.34 65.13 86.14 C 71.47 75.35 79.59 64.81 80.99 51.98 C 82.20 39.77 76.57 28.39 70.99 17.93 C 83.59 29.14 94.92 42.85 99.50 59.37 C 103.42 72.85 102.07 87.42 97.32 100.50 C 94.58 107.87 91.38 115.22 86.49 121.44 C 78.16 132.12 70.39 143.78 67.04 157.07 C 64.87 165.30 65.65 174.91 71.45 181.53 C 75.38 185.87 81.01 189.35 87.07 188.81 C 93.37 188.60 100.40 186.44 103.73 180.66 C 107.52 173.79 105.72 165.55 103.45 158.49 C 100.00 148.82 95.76 138.34 98.97 128.00 C 100.60 122.35 105.61 118.76 110.78 116.57 C 109.20 121.51 107.89 126.92 109.84 131.96 C 113.31 142.09 122.65 148.39 131.35 153.73 C 139.82 158.84 145.73 167.73 147.41 177.45 C 149.36 189.58 147.06 202.10 142.24 213.30 C 140.14 218.32 136.54 222.64 135.13 227.96 C 133.54 233.71 133.08 239.87 134.28 245.74 C 135.13 249.79 137.69 253.78 141.75 255.16 C 146.36 256.63 151.30 255.43 155.69 253.76 C 168.19 248.75 179.90 239.78 184.89 226.89 C 190.65 212.64 187.60 196.42 180.86 183.07 C 173.39 167.72 159.88 156.74 149.60 143.43 C 140.18 131.85 132.42 117.51 133.64 102.13 C 135.00 84.68 146.08 69.95 157.98 57.91 C 152.38 72.81 152.01 89.66 157.28 104.70 C 159.85 111.68 163.82 118.69 170.42 122.54 C 176.64 126.18 184.65 124.42 190.14 120.22 C 199.63 113.05 207.19 102.14 207.53 89.92 C 208.07 78.21 202.65 67.23 196.09 57.88 C 187.76 46.37 177.25 36.60 166.03 27.96 C 157.64 21.38 157.22 9.72 155.92 0.00 Z" />
<path fill="#975735" opacity="1.00" d=" M 166.03 0.00 L 173.40 0.00 C 174.54 3.71 175.91 7.49 178.70 10.31 C 186.63 18.91 196.91 25.01 207.60 29.54 C 215.10 32.78 223.23 34.51 230.34 38.64 C 237.55 42.81 243.65 48.63 249.34 54.65 C 262.66 69.34 272.33 87.01 279.69 105.32 C 285.99 121.57 290.94 139.25 287.85 156.78 C 286.05 167.35 289.21 179.32 297.89 186.10 C 307.43 193.47 320.83 195.13 332.09 191.05 C 339.42 188.67 346.36 183.43 348.71 175.83 C 350.54 169.75 351.91 163.43 351.85 157.06 C 351.61 145.23 345.19 134.80 338.38 125.58 C 330.97 115.62 323.67 105.35 319.47 93.56 C 315.88 84.09 315.18 72.98 320.27 63.90 C 321.29 71.26 323.00 79.08 328.56 84.44 C 335.01 90.92 345.13 93.12 353.87 90.77 C 366.75 87.83 378.94 80.28 385.78 68.77 C 389.14 63.12 390.87 56.62 391.57 50.12 C 392.31 43.36 390.32 36.77 388.93 30.23 C 399.41 38.09 406.69 50.04 408.50 63.04 C 411.14 82.23 406.65 101.62 399.40 119.34 C 390.89 139.85 382.93 160.64 377.27 182.14 C 372.90 199.43 368.78 217.09 369.36 235.06 C 370.05 247.62 372.65 261.03 381.38 270.64 C 390.33 280.56 404.84 283.52 417.63 281.56 C 427.59 279.94 438.10 277.78 446.01 271.05 C 454.62 263.88 458.03 251.57 455.30 240.82 C 452.69 228.00 445.32 216.91 437.68 206.55 C 444.23 208.71 451.09 210.71 458.06 209.69 C 474.19 207.31 491.02 201.80 501.89 188.98 C 507.97 182.27 510.80 173.37 512.00 164.55 L 512.00 260.99 C 506.19 259.34 500.22 258.38 494.34 257.10 C 493.73 271.62 487.34 285.25 478.74 296.74 C 468.75 309.89 454.80 320.47 438.64 324.60 C 420.00 329.74 400.01 326.18 382.58 318.53 C 373.09 314.63 364.24 309.40 355.67 303.81 C 348.21 291.35 339.41 279.60 328.33 270.11 C 324.87 259.83 322.58 248.92 323.98 238.05 C 324.61 230.86 327.29 224.06 330.94 217.90 C 326.36 218.75 321.69 219.59 317.01 219.12 C 308.72 218.38 301.01 214.95 293.73 211.12 C 291.09 195.16 278.64 181.11 262.61 177.84 C 258.60 170.27 257.47 161.56 258.84 153.14 C 254.57 158.91 249.13 164.13 242.11 166.27 C 235.11 168.78 227.55 168.74 220.23 168.26 C 223.95 172.96 227.23 177.99 230.25 183.16 C 220.85 189.14 214.20 199.04 212.31 210.03 C 209.40 222.88 214.11 236.23 222.22 246.24 C 192.56 253.77 166.47 273.69 151.05 300.07 C 139.05 298.27 127.51 293.58 117.90 286.13 C 111.21 281.29 105.74 275.07 100.29 268.93 C 103.97 290.70 105.86 313.00 103.06 334.99 C 100.94 350.58 96.14 367.16 83.80 377.80 C 74.37 386.20 61.18 387.99 49.03 388.37 C 31.41 388.71 14.69 381.63 0.00 372.44 L 0.00 295.53 C 8.02 303.45 18.54 309.14 29.95 309.71 C 41.41 310.06 52.79 304.98 60.50 296.55 C 70.22 286.15 74.41 271.94 75.79 258.06 C 77.21 242.66 72.80 227.13 65.18 213.81 C 58.54 201.87 50.53 189.91 49.36 175.91 C 47.21 151.50 54.85 127.32 65.61 105.69 C 73.13 90.29 84.71 76.92 89.68 60.31 C 93.33 74.39 91.93 89.59 85.67 102.72 C 82.14 112.11 74.91 119.24 69.69 127.62 C 65.51 134.06 61.79 140.87 59.29 148.16 C 56.17 157.15 54.51 167.11 57.55 176.36 C 61.32 190.94 77.15 201.60 92.09 198.32 C 101.50 197.05 111.02 191.47 114.04 182.02 C 117.92 172.29 115.01 161.81 112.02 152.29 C 119.47 159.43 130.72 162.66 135.37 172.51 C 139.72 181.92 138.28 192.97 135.59 202.65 C 133.83 209.00 130.00 214.44 127.26 220.36 C 122.94 231.48 121.62 244.69 127.47 255.52 C 131.62 263.00 140.64 266.77 148.96 265.68 C 160.26 264.11 170.53 258.34 179.32 251.28 C 192.20 240.60 198.99 223.51 197.87 206.92 C 196.73 194.80 192.86 182.90 186.48 172.51 C 176.76 156.32 161.40 144.52 151.28 128.62 C 147.64 122.60 144.35 116.06 143.77 108.94 C 143.35 104.75 143.96 100.55 144.54 96.41 C 146.55 103.21 148.00 110.28 151.62 116.47 C 155.57 123.88 161.75 130.51 169.91 133.17 C 178.29 136.22 187.78 133.93 195.00 129.06 C 208.62 119.71 218.12 103.72 217.64 86.95 C 216.97 76.41 213.30 66.16 207.70 57.26 C 198.78 42.95 186.53 31.03 173.20 20.84 C 166.80 16.01 167.07 7.18 166.03 0.00 Z" />
<path fill="#f4722b" opacity="1.00" d=" M 173.40 0.00 L 183.21 0.00 C 192.63 12.15 206.85 19.20 221.16 23.91 C 228.06 26.10 234.75 29.07 240.64 33.32 C 253.82 42.79 264.25 55.59 272.81 69.26 C 282.24 84.46 289.67 100.94 294.52 118.17 C 297.15 127.88 299.20 137.90 298.90 148.02 C 298.75 154.98 296.30 161.98 298.14 168.91 C 299.76 175.53 305.54 180.52 312.01 182.21 C 320.00 184.39 329.28 183.16 335.74 177.73 C 339.74 174.38 340.46 168.89 341.27 164.06 C 342.28 157.98 341.90 151.56 339.17 145.95 C 333.25 133.44 323.22 123.50 316.67 111.35 C 310.30 99.71 305.22 86.47 306.86 72.97 C 307.79 64.43 312.41 56.53 319.09 51.19 C 326.51 44.80 335.94 41.55 345.24 39.00 C 338.20 43.12 332.46 49.80 331.13 58.04 C 329.58 65.73 331.31 75.21 338.48 79.55 C 346.02 83.87 355.06 80.70 362.24 77.16 C 372.60 72.02 380.81 61.76 381.47 49.94 C 382.73 35.02 374.57 21.37 364.81 10.80 C 380.98 11.53 396.04 20.54 406.09 32.95 C 416.00 45.23 419.91 61.43 419.30 76.99 C 418.75 96.14 412.50 114.54 405.06 132.01 C 397.93 149.44 391.53 167.19 386.65 185.38 C 381.97 203.47 378.10 222.18 379.90 240.95 C 380.85 250.32 383.93 260.26 391.52 266.38 C 398.85 272.29 408.94 272.91 417.91 271.42 C 426.53 270.07 436.02 267.89 441.91 260.92 C 446.80 255.21 447.04 247.02 444.92 240.12 C 441.31 228.06 433.78 217.67 425.89 208.04 C 421.48 202.66 418.02 196.10 418.03 188.99 C 417.75 179.05 423.43 170.03 430.28 163.28 C 435.88 157.98 442.32 152.99 450.09 151.55 C 441.85 159.58 435.89 170.40 435.38 182.05 C 435.07 187.67 437.03 193.87 442.02 196.97 C 447.96 200.56 455.32 200.28 461.90 198.99 C 473.90 196.56 486.18 191.92 494.32 182.36 C 500.53 175.28 503.07 165.29 501.37 156.07 C 499.87 146.98 495.13 138.75 489.20 131.82 C 482.45 123.85 473.28 118.45 466.22 110.79 C 459.15 103.47 453.11 93.62 454.88 83.02 C 456.99 70.55 465.76 60.63 474.18 51.75 C 473.20 60.90 469.07 71.38 475.42 79.55 C 484.29 90.70 499.06 93.82 512.00 97.80 L 512.00 107.84 C 499.32 104.59 486.21 101.31 475.44 93.50 C 471.12 90.57 467.94 86.38 464.76 82.32 C 464.75 86.63 464.52 91.26 466.89 95.07 C 474.86 109.14 490.82 115.85 499.84 129.07 C 506.26 137.07 509.80 146.83 512.00 156.75 L 512.00 164.55 C 510.80 173.37 507.97 182.27 501.89 188.98 C 491.02 201.80 474.19 207.31 458.06 209.69 C 451.09 210.71 444.23 208.71 437.68 206.55 C 445.32 216.91 452.69 228.00 455.30 240.82 C 458.03 251.57 454.62 263.88 446.01 271.05 C 438.10 277.78 427.59 279.94 417.63 281.56 C 404.84 283.52 390.33 280.56 381.38 270.64 C 372.65 261.03 370.05 247.62 369.36 235.06 C 368.78 217.09 372.90 199.43 377.27 182.14 C 382.93 160.64 390.89 139.85 399.40 119.34 C 406.65 101.62 411.14 82.23 408.50 63.04 C 406.69 50.04 399.41 38.09 388.93 30.23 C 390.32 36.77 392.31 43.36 391.57 50.12 C 390.87 56.62 389.14 63.12 385.78 68.77 C 378.94 80.28 366.75 87.83 353.87 90.77 C 345.13 93.12 335.01 90.92 328.56 84.44 C 323.00 79.08 321.29 71.26 320.27 63.90 C 315.18 72.98 315.88 84.09 319.47 93.56 C 323.67 105.35 330.97 115.62 338.38 125.58 C 345.19 134.80 351.61 145.23 351.85 157.06 C 351.91 163.43 350.54 169.75 348.71 175.83 C 346.36 183.43 339.42 188.67 332.09 191.05 C 320.83 195.13 307.43 193.47 297.89 186.10 C 289.21 179.32 286.05 167.35 287.85 156.78 C 290.94 139.25 285.99 121.57 279.69 105.32 C 272.33 87.01 262.66 69.34 249.34 54.65 C 243.65 48.63 237.55 42.81 230.34 38.64 C 223.23 34.51 215.10 32.78 207.60 29.54 C 196.91 25.01 186.63 18.91 178.70 10.31 C 175.91 7.49 174.54 3.71 173.40 0.00 Z" />
<path fill="#3e3e3e" opacity="1.00" d=" M 183.21 0.00 L 512.00 0.00 L 512.00 97.80 C 499.06 93.82 484.29 90.70 475.42 79.55 C 469.07 71.38 473.20 60.90 474.18 51.75 C 465.76 60.63 456.99 70.55 454.88 83.02 C 453.11 93.62 459.15 103.47 466.22 110.79 C 473.28 118.45 482.45 123.85 489.20 131.82 C 495.13 138.75 499.87 146.98 501.37 156.07 C 503.07 165.29 500.53 175.28 494.32 182.36 C 486.18 191.92 473.90 196.56 461.90 198.99 C 455.32 200.28 447.96 200.56 442.02 196.97 C 437.03 193.87 435.07 187.67 435.38 182.05 C 435.89 170.40 441.85 159.58 450.09 151.55 C 442.32 152.99 435.88 157.98 430.28 163.28 C 423.43 170.03 417.75 179.05 418.03 188.99 C 418.02 196.10 421.48 202.66 425.89 208.04 C 433.78 217.67 441.31 228.06 444.92 240.12 C 447.04 247.02 446.80 255.21 441.91 260.92 C 436.02 267.89 426.53 270.07 417.91 271.42 C 408.94 272.91 398.85 272.29 391.52 266.38 C 383.93 260.26 380.85 250.32 379.90 240.95 C 378.10 222.18 381.97 203.47 386.65 185.38 C 391.53 167.19 397.93 149.44 405.06 132.01 C 412.50 114.54 418.75 96.14 419.30 76.99 C 419.91 61.43 416.00 45.23 406.09 32.95 C 396.04 20.54 380.98 11.53 364.81 10.80 C 374.57 21.37 382.73 35.02 381.47 49.94 C 380.81 61.76 372.60 72.02 362.24 77.16 C 355.06 80.70 346.02 83.87 338.48 79.55 C 331.31 75.21 329.58 65.73 331.13 58.04 C 332.46 49.80 338.20 43.12 345.24 39.00 C 335.94 41.55 326.51 44.80 319.09 51.19 C 312.41 56.53 307.79 64.43 306.86 72.97 C 305.22 86.47 310.30 99.71 316.67 111.35 C 323.22 123.50 333.25 133.44 339.17 145.95 C 341.90 151.56 342.28 157.98 341.27 164.06 C 340.46 168.89 339.74 174.38 335.74 177.73 C 329.28 183.16 320.00 184.39 312.01 182.21 C 305.54 180.52 299.76 175.53 298.14 168.91 C 296.30 161.98 298.75 154.98 298.90 148.02 C 299.20 137.90 297.15 127.88 294.52 118.17 C 289.67 100.94 282.24 84.46 272.81 69.26 C 264.25 55.59 253.82 42.79 240.64 33.32 C 234.75 29.07 228.06 26.10 221.16 23.91 C 206.85 19.20 192.63 12.15 183.21 0.00 Z" />
<path fill="#975735" opacity="1.00" d=" M 464.76 82.32 C 467.94 86.38 471.12 90.57 475.44 93.50 C 486.21 101.31 499.32 104.59 512.00 107.84 L 512.00 156.75 C 509.80 146.83 506.26 137.07 499.84 129.07 C 490.82 115.85 474.86 109.14 466.89 95.07 C 464.52 91.26 464.75 86.63 464.76 82.32 Z" />
<path fill="#f4722b" opacity="1.00" d=" M 0.00 152.38 C 7.99 162.70 15.54 173.67 19.74 186.16 C 22.48 194.21 23.29 203.23 20.36 211.35 C 16.22 223.68 7.43 233.54 0.00 243.96 L 0.00 227.22 C 5.32 219.21 11.87 210.98 12.16 200.93 C 12.37 189.23 5.85 178.96 0.00 169.33 L 0.00 152.38 Z" />
<path fill="#6c4b39" opacity="1.00" d=" M 242.11 166.27 C 249.13 164.13 254.57 158.91 258.84 153.14 C 257.47 161.56 258.60 170.27 262.61 177.84 C 251.73 174.65 239.73 177.24 230.25 183.16 C 227.23 177.99 223.95 172.96 220.23 168.26 C 227.55 168.74 235.11 168.78 242.11 166.27 Z" />
<path fill="#975735" opacity="1.00" d=" M 0.00 169.33 C 5.85 178.96 12.37 189.23 12.16 200.93 C 11.87 210.98 5.32 219.21 0.00 227.22 L 0.00 169.33 Z" />
<path fill="#3e3e3e" opacity="1.00" d=" M 230.25 183.16 C 239.73 177.24 251.73 174.65 262.61 177.84 C 278.64 181.11 291.09 195.16 293.73 211.12 C 295.85 223.82 291.29 236.83 283.13 246.55 C 294.93 249.86 306.41 254.60 316.54 261.55 C 320.52 264.33 324.53 267.08 328.33 270.11 C 339.41 279.60 348.21 291.35 355.67 303.81 C 366.88 327.03 372.85 353.76 367.55 379.37 C 365.83 389.17 362.83 398.71 358.88 407.84 C 356.68 412.15 358.81 416.77 359.86 421.06 C 361.45 426.89 361.36 433.23 364.30 438.64 C 372.31 453.29 385.91 464.73 401.65 470.25 C 416.56 475.55 433.44 475.18 448.00 468.94 C 457.80 464.99 466.06 458.23 473.72 451.10 C 473.15 465.53 474.41 480.70 481.46 493.59 C 485.94 501.08 492.49 507.16 499.70 512.00 L 17.69 512.00 C 24.11 495.65 28.44 476.66 20.97 459.89 C 38.52 463.56 56.71 463.52 74.34 460.40 C 90.76 457.58 106.89 452.52 121.54 444.54 C 131.27 439.07 140.53 432.33 147.34 423.38 C 148.49 421.77 149.67 420.08 150.09 418.11 C 148.99 414.17 146.61 410.76 145.02 407.01 C 139.69 394.63 136.57 381.39 135.09 368.02 C 134.12 359.12 134.72 350.10 136.44 341.34 C 138.98 326.91 143.56 312.71 151.05 300.07 C 166.47 273.69 192.56 253.77 222.22 246.24 C 214.11 236.23 209.40 222.88 212.31 210.03 C 214.20 199.04 220.85 189.14 230.25 183.16 Z" />
<path fill="#f5e5c1" opacity="1.00" d=" M 224.43 217.99 C 224.09 204.88 234.08 192.53 246.94 190.03 C 260.95 186.64 276.36 195.95 280.11 209.81 C 284.06 222.28 277.94 236.40 266.76 242.86 C 266.72 239.78 266.72 236.70 266.70 233.62 C 269.70 230.30 272.46 226.51 273.20 221.98 C 274.95 213.90 271.31 205.07 264.40 200.56 C 257.09 195.55 246.51 196.03 239.72 201.74 C 234.00 206.29 231.13 213.97 232.35 221.17 C 233.00 226.34 236.14 230.74 239.83 234.25 C 239.84 237.27 239.84 240.28 239.79 243.30 C 230.72 238.27 224.29 228.52 224.43 217.99 Z" />
<path fill="#f5e5c1" opacity="1.00" d=" M 241.06 210.58 C 249.12 210.56 257.18 210.58 265.24 210.57 C 265.24 211.51 265.24 213.39 265.24 214.34 C 257.18 214.33 249.12 214.34 241.06 214.33 C 241.06 213.39 241.06 211.52 241.06 210.58 Z" />
<path fill="#6c4b39" opacity="1.00" d=" M 293.73 211.12 C 301.01 214.95 308.72 218.38 317.01 219.12 C 321.69 219.59 326.36 218.75 330.94 217.90 C 327.29 224.06 324.61 230.86 323.98 238.05 C 322.58 248.92 324.87 259.83 328.33 270.11 C 324.53 267.08 320.52 264.33 316.54 261.55 C 306.41 254.60 294.93 249.86 283.13 246.55 C 291.29 236.83 295.85 223.82 293.73 211.12 Z" />
<path fill="#f5e5c1" opacity="1.00" d=" M 241.07 216.25 C 249.13 216.24 257.18 216.26 265.23 216.24 C 265.23 220.76 265.23 225.29 265.23 229.82 C 257.18 229.79 249.13 229.82 241.08 229.81 C 241.10 225.29 241.10 220.77 241.07 216.25 Z" />
<path fill="#f5e5c1" opacity="1.00" d=" M 244.77 233.28 C 250.33 233.28 255.89 233.28 261.45 233.28 C 261.43 239.31 261.43 245.34 261.45 251.38 C 255.90 251.03 250.33 251.02 244.77 251.32 C 244.78 245.31 244.78 239.30 244.77 233.28 Z" />
<path fill="#f5e5c1" opacity="1.00" d=" M 184.87 279.81 C 203.41 264.07 227.63 255.20 251.95 255.30 C 273.98 255.14 295.96 262.29 313.72 275.31 C 335.96 291.47 351.29 316.78 355.18 344.00 C 358.34 361.79 355.65 380.30 349.31 397.11 C 349.12 397.01 348.73 396.83 348.53 396.74 C 344.86 391.83 340.49 387.50 335.50 383.96 C 340.21 367.01 340.07 348.68 334.48 331.97 C 327.97 312.03 313.82 294.76 295.65 284.33 C 279.28 274.78 259.71 270.94 240.93 273.41 C 221.21 275.86 202.51 285.46 188.92 299.96 C 168.71 321.00 160.83 352.59 168.00 380.79 C 162.67 383.59 157.45 386.61 152.50 390.04 C 148.87 376.73 146.41 362.68 148.51 348.90 C 151.06 322.32 164.40 296.97 184.87 279.81 Z" />
<path fill="#6c4b39" opacity="1.00" d=" M 494.34 257.10 C 500.22 258.38 506.19 259.34 512.00 260.99 L 512.00 512.00 L 499.70 512.00 C 492.49 507.16 485.94 501.08 481.46 493.59 C 474.41 480.70 473.15 465.53 473.72 451.10 C 466.06 458.23 457.80 464.99 448.00 468.94 C 433.44 475.18 416.56 475.55 401.65 470.25 C 385.91 464.73 372.31 453.29 364.30 438.64 C 361.36 433.23 361.45 426.89 359.86 421.06 C 358.81 416.77 356.68 412.15 358.88 407.84 C 362.83 398.71 365.83 389.17 367.55 379.37 C 372.85 353.76 366.88 327.03 355.67 303.81 C 364.24 309.40 373.09 314.63 382.58 318.53 C 400.01 326.18 420.00 329.74 438.64 324.60 C 454.80 320.47 468.75 309.89 478.74 296.74 C 487.34 285.25 493.73 271.62 494.34 257.10 Z" />
<path fill="#6c4b39" opacity="1.00" d=" M 100.29 268.93 C 105.74 275.07 111.21 281.29 117.90 286.13 C 127.51 293.58 139.05 298.27 151.05 300.07 C 143.56 312.71 138.98 326.91 136.44 341.34 C 134.72 350.10 134.12 359.12 135.09 368.02 C 136.57 381.39 139.69 394.63 145.02 407.01 C 146.61 410.76 148.99 414.17 150.09 418.11 C 149.67 420.08 148.49 421.77 147.34 423.38 C 140.53 432.33 131.27 439.07 121.54 444.54 C 106.89 452.52 90.76 457.58 74.34 460.40 C 56.71 463.52 38.52 463.56 20.97 459.89 C 28.44 476.66 24.11 495.65 17.69 512.00 L 0.00 512.00 L 0.00 372.44 C 14.69 381.63 31.41 388.71 49.03 388.37 C 61.18 387.99 74.37 386.20 83.80 377.80 C 96.14 367.16 100.94 350.58 103.06 334.99 C 105.86 313.00 103.97 290.70 100.29 268.93 Z" />
<path fill="#f5e5c1" opacity="1.00" d=" M 249.08 278.13 C 251.15 278.14 253.22 278.14 255.30 278.16 C 255.28 282.37 255.27 286.58 255.29 290.80 C 253.21 290.80 251.14 290.82 249.07 290.84 C 249.09 286.61 249.08 282.37 249.08 278.13 Z" />
<path fill="#f4722b" opacity="1.00" d=" M 263.04 280.35 C 265.21 280.71 267.38 281.09 269.55 281.48 C 268.00 293.97 266.77 306.50 265.29 318.99 C 265.03 321.65 263.32 323.79 261.89 325.93 C 256.80 333.19 252.10 340.71 246.93 347.90 C 252.07 325.33 257.79 302.89 263.04 280.35 Z" />
<path fill="#f5e5c1" opacity="1.00" d=" M 244.80 356.58 C 259.78 333.88 274.84 311.25 289.88 288.59 C 291.72 289.68 293.57 290.77 295.41 291.86 C 283.25 316.16 271.23 340.53 259.11 364.86 C 254.36 362.07 249.58 359.32 244.80 356.58 Z" />
<path fill="#f5e5c1" opacity="1.00" d=" M 192.35 304.08 C 193.84 302.62 195.33 301.15 196.82 299.69 C 199.93 302.88 203.09 306.01 206.28 309.12 C 204.81 310.62 203.35 312.12 201.90 313.63 C 198.73 310.44 195.55 307.25 192.35 304.08 Z" />
<path fill="#f5e5c1" opacity="1.00" d=" M 299.11 308.22 C 302.11 305.60 304.52 302.24 307.86 300.05 C 309.39 301.28 310.74 302.72 312.15 304.09 C 309.28 306.91 306.44 309.75 303.63 312.62 C 302.13 311.15 300.62 309.68 299.11 308.22 Z" />
<path fill="#f5e5c1" opacity="1.00" d=" M 227.09 354.94 C 228.53 345.11 236.31 337.14 245.68 334.33 C 245.25 336.91 244.79 339.49 244.33 342.06 C 240.35 344.42 236.69 347.66 235.09 352.12 C 231.60 360.33 235.34 370.63 243.16 374.85 C 250.65 379.27 261.06 377.27 266.40 370.42 C 270.70 365.31 271.46 358.06 269.26 351.87 C 270.59 349.52 271.94 347.18 273.32 344.86 C 277.93 352.07 278.99 361.50 275.39 369.36 C 270.72 380.43 257.55 386.94 245.93 383.72 C 233.46 380.86 224.69 367.53 227.09 354.94 Z" />
<path fill="#f5e5c1" opacity="1.00" d=" M 171.35 356.35 C 175.65 356.38 179.96 356.37 184.26 356.38 C 184.24 358.45 184.23 360.52 184.23 362.60 C 179.94 362.60 175.65 362.60 171.36 362.61 C 171.36 360.52 171.36 358.43 171.35 356.35 Z" />
<path fill="#f5e5c1" opacity="1.00" d=" M 322.17 356.36 C 326.21 356.38 330.25 356.38 334.29 356.36 C 334.29 358.44 334.29 360.53 334.30 362.61 C 330.26 362.59 326.22 362.59 322.18 362.61 C 322.18 360.52 322.18 358.44 322.17 356.36 Z" />
<path fill="#f4722b" opacity="1.00" d=" M 195.93 378.37 C 207.86 378.13 220.27 380.05 230.55 386.44 C 239.03 391.75 244.76 401.05 245.74 411.00 C 247.05 419.84 243.30 428.81 237.11 435.05 C 231.46 441.01 224.15 445.02 216.67 448.24 C 222.09 450.74 227.56 453.89 230.82 459.09 C 235.51 466.13 234.29 475.82 229.50 482.49 C 224.57 489.17 216.89 493.39 208.92 495.29 C 193.20 499.16 175.50 495.41 163.41 484.44 C 166.68 478.83 169.92 473.22 173.20 467.62 C 181.07 472.35 190.08 476.80 199.54 475.42 C 203.49 474.64 208.62 472.62 209.01 467.99 C 208.59 463.34 204.40 460.10 200.21 458.85 C 192.88 456.65 185.13 456.83 177.56 456.75 C 177.48 450.77 177.59 444.79 177.27 438.81 C 186.03 438.83 195.03 438.02 203.11 434.40 C 206.59 432.79 210.03 430.35 211.50 426.68 C 212.99 422.59 210.94 417.88 207.57 415.39 C 203.96 412.84 199.25 412.97 195.06 413.52 C 185.21 415.25 176.31 420.24 168.31 426.06 C 162.35 416.65 156.36 407.26 150.41 397.85 C 163.53 387.66 178.99 379.15 195.93 378.37 Z" />
<path fill="#f4722b" opacity="1.00" d=" M 294.61 378.73 C 307.95 376.50 322.06 380.04 332.84 388.17 C 345.12 397.10 353.25 411.11 355.97 425.95 C 358.81 441.43 355.87 458.01 347.32 471.28 C 339.76 482.98 327.93 492.15 314.25 495.31 C 303.52 497.68 291.96 496.79 281.92 492.19 C 267.57 485.78 256.52 472.89 251.56 458.07 C 245.71 440.92 247.59 421.29 256.74 405.65 C 264.71 391.82 278.72 381.28 294.61 378.73 Z" />
<path fill="#3e3e3e" opacity="1.00" d=" M 297.56 414.68 C 306.40 412.52 315.93 416.47 321.48 423.49 C 331.14 435.63 331.07 454.97 320.39 466.49 C 315.25 472.06 307.62 475.97 299.89 474.86 C 291.52 473.71 284.32 467.77 280.54 460.36 C 274.80 448.87 275.89 433.96 283.70 423.67 C 287.11 419.21 292.07 415.94 297.56 414.68 Z" />
<path fill="#975735" opacity="1.00" d=" M 196.21 418.10 C 199.21 416.60 196.30 421.44 196.21 418.10 Z" />
<path fill="#f5e5c1" opacity="1.00" d=" M 173.76 428.20 C 178.78 424.82 184.16 422.01 189.81 419.85 C 193.33 423.54 197.27 426.78 201.29 429.90 C 195.17 432.46 188.54 433.57 181.93 433.76 C 178.07 434.48 176.12 430.45 173.76 428.20 Z" />
<path fill="#f5e5c1" opacity="1.00" d=" M 282.04 441.02 C 293.43 436.76 303.80 430.12 312.69 421.86 C 317.48 425.45 320.82 430.54 322.69 436.19 C 311.91 446.22 298.89 453.73 284.94 458.40 C 282.26 453.01 281.66 446.96 282.04 441.02 Z" />
<path fill="#f5e5c1" opacity="1.00" d=" M 227.41 448.51 C 229.66 447.20 231.86 445.81 234.04 444.41 C 237.23 444.92 240.42 445.42 243.62 445.82 C 244.66 451.87 246.06 457.88 248.30 463.62 C 244.87 463.40 241.45 463.11 238.04 462.69 C 235.96 457.03 232.40 451.95 227.41 448.51 Z" />
</svg>
