<?xml version="1.0" encoding="UTF-8" ?>
<!DOCTYPE svg PUBLIC "-//W3C//DTD SVG 1.1//EN" "http://www.w3.org/Graphics/SVG/1.1/DTD/svg11.dtd">
<svg width="512pt" height="512pt" viewBox="0 0 512 512" version="1.1" xmlns="http://www.w3.org/2000/svg">
<path fill="#975735" opacity="1.00" d=" M 0.00 0.00 L 0.06 0.00 C 0.05 0.02 0.02 0.05 0.00 0.06 L 0.00 0.00 Z" />
<path fill="#3e3e3e" opacity="1.00" d=" M 0.06 0.00 L 512.00 0.00 L 512.00 512.00 L 0.00 512.00 L 0.00 0.06 C 0.02 0.05 0.05 0.02 0.06 0.00 Z" />
<path fill="#f7ebcf" opacity="1.00" d=" M 436.66 60.49 C 447.52 49.40 457.37 37.17 469.81 27.72 C 469.36 31.79 466.52 35.00 464.43 38.35 C 459.15 45.65 453.77 52.89 448.05 59.85 C 450.53 61.78 454.56 63.93 453.61 67.72 C 453.37 69.59 451.48 70.26 450.00 70.90 C 451.49 71.76 452.02 73.53 451.22 75.06 C 448.97 76.99 446.02 77.77 443.25 78.61 C 445.22 79.38 446.32 81.09 446.69 83.14 C 445.36 83.92 444.02 84.68 442.67 85.41 C 443.34 86.70 444.31 88.54 443.05 89.81 C 441.42 91.87 438.51 91.85 436.12 91.75 C 431.35 91.29 426.65 92.37 421.98 93.17 C 420.74 92.84 419.51 92.52 418.28 92.20 C 412.83 97.12 407.52 102.19 402.20 107.25 C 395.22 113.95 389.59 121.91 382.47 128.46 C 377.11 133.47 372.64 139.53 366.31 143.41 C 359.50 148.23 352.76 153.16 345.86 157.86 C 336.52 165.39 326.35 171.77 316.85 179.08 C 314.02 194.90 310.87 210.67 308.36 226.55 C 307.18 231.97 307.33 237.54 306.55 243.02 C 304.98 256.31 303.70 269.70 304.47 283.10 C 305.31 292.45 305.48 301.85 306.74 311.17 C 315.40 312.42 323.41 316.09 331.27 319.74 C 340.17 324.01 347.79 330.37 355.30 336.67 C 359.86 340.44 364.77 343.82 368.95 348.03 C 370.78 349.94 372.62 352.75 371.40 355.46 C 368.38 362.00 366.09 368.97 365.43 376.18 C 363.33 396.46 360.57 416.72 360.32 437.15 C 360.28 445.39 359.43 453.59 358.42 461.77 C 364.22 464.92 369.48 469.32 376.05 470.83 C 380.65 472.14 385.90 471.97 389.77 475.16 C 391.12 475.88 392.97 477.86 390.98 479.02 C 386.87 480.85 382.30 481.35 377.90 480.48 C 367.39 479.94 355.12 481.43 346.82 473.52 C 341.87 474.17 336.87 474.66 331.88 474.40 C 330.10 474.50 329.00 472.64 328.77 471.11 C 327.99 464.96 329.42 458.84 330.87 452.90 C 334.26 454.08 337.47 455.77 340.96 456.70 C 337.52 454.59 333.87 452.84 330.32 450.94 C 328.75 450.07 326.65 449.85 325.70 448.15 C 325.22 446.12 325.44 444.01 325.76 441.97 C 328.45 424.89 332.46 408.06 336.07 391.16 C 338.32 381.09 341.22 371.19 343.67 361.18 C 331.15 357.51 318.80 353.28 306.25 349.72 C 299.91 347.98 293.75 344.51 286.96 345.38 C 277.18 346.19 267.35 346.75 257.72 348.73 C 252.20 349.66 247.22 352.29 241.99 354.13 C 232.91 357.66 223.74 361.25 215.60 366.70 C 203.39 375.06 192.20 384.78 180.61 393.95 C 182.51 403.87 183.85 413.96 183.46 424.08 C 183.68 429.47 178.68 432.70 176.54 437.17 C 179.04 435.29 181.04 432.87 183.15 430.58 C 183.52 434.77 184.49 439.45 182.29 443.31 C 179.73 444.69 176.72 444.66 173.93 445.24 C 172.88 444.89 171.83 444.55 170.78 444.22 C 170.62 443.57 170.30 442.27 170.14 441.62 C 165.42 440.09 161.97 444.82 157.45 445.27 C 147.00 446.81 136.36 451.30 125.79 448.24 C 125.45 447.67 124.78 446.55 124.44 445.99 C 125.52 444.53 126.57 442.82 128.51 442.48 C 138.53 439.31 147.50 433.62 157.35 430.03 C 159.64 421.54 160.44 412.75 161.46 404.05 C 162.07 399.15 161.09 394.26 159.77 389.57 C 163.27 384.54 167.47 380.04 171.33 375.29 C 175.38 371.17 178.09 366.02 181.21 361.22 C 185.63 353.90 191.89 347.98 196.99 341.18 C 201.75 334.59 207.87 329.15 214.04 323.93 C 214.77 323.35 215.28 322.63 215.57 321.76 C 218.52 313.15 219.55 304.07 222.16 295.38 C 225.24 284.83 226.78 273.92 227.34 262.97 C 227.84 257.53 225.87 252.33 224.61 247.14 C 222.74 240.47 221.98 233.58 220.59 226.81 C 211.90 231.51 204.49 238.30 195.46 242.38 C 192.08 243.44 188.48 243.64 185.14 244.89 C 176.48 247.59 167.51 249.08 158.84 251.74 C 155.03 252.94 150.83 252.54 147.15 254.13 C 145.47 256.10 144.81 259.08 142.24 260.17 C 140.44 261.11 138.39 260.55 136.48 260.41 C 136.49 258.79 136.52 257.17 136.59 255.55 C 133.53 253.61 130.67 251.39 127.80 249.18 C 124.93 247.01 121.34 245.78 118.94 243.01 C 117.89 241.78 118.47 240.04 118.37 238.58 C 123.68 237.84 129.03 237.08 134.09 235.23 C 135.59 233.02 136.43 229.49 139.50 229.10 C 150.85 227.56 161.71 223.67 172.99 221.77 C 177.59 220.65 182.78 220.76 186.63 217.67 C 191.12 214.49 195.76 211.51 200.03 208.04 C 205.22 203.86 211.00 200.45 215.95 195.97 C 217.57 194.59 219.04 193.01 220.88 191.91 C 226.12 189.79 231.87 189.17 237.10 187.04 C 240.85 182.84 243.44 177.69 245.54 172.50 C 246.73 169.83 249.31 168.17 250.79 165.72 C 251.82 161.10 251.41 156.28 250.53 151.68 C 247.41 149.01 244.75 145.36 245.44 141.02 C 249.87 138.93 246.60 133.73 247.99 130.13 C 250.63 123.27 257.51 117.91 264.98 117.81 C 268.80 117.64 272.92 117.44 276.28 119.61 C 279.59 121.42 281.52 124.77 282.94 128.13 C 283.55 129.24 285.00 130.18 284.76 131.59 C 283.33 131.42 281.77 130.57 281.12 129.21 C 280.85 129.30 280.30 129.48 280.02 129.57 C 279.34 126.89 276.22 127.20 274.07 127.06 C 269.52 126.87 264.33 127.61 261.46 131.57 C 259.68 133.20 261.43 135.60 261.58 137.56 C 266.75 139.98 272.07 137.37 276.99 135.70 C 279.27 136.57 281.38 137.84 283.68 138.69 C 283.68 142.16 284.78 146.33 282.30 149.22 C 282.09 148.50 281.68 147.05 281.48 146.33 C 276.62 145.36 271.66 145.41 266.74 145.62 C 264.83 149.54 264.94 154.80 268.85 157.46 C 272.40 157.84 276.00 157.19 279.57 157.25 C 280.08 157.68 281.08 158.55 281.58 158.98 C 279.70 161.40 276.68 162.00 273.89 162.75 C 274.76 164.47 275.37 166.62 277.42 167.27 C 279.41 164.69 281.23 161.64 284.38 160.33 C 295.93 155.60 304.89 146.48 316.06 141.06 C 323.89 136.24 331.60 131.20 339.46 126.41 C 343.98 123.67 349.68 122.44 352.93 117.94 C 355.96 114.00 358.71 109.82 362.21 106.26 C 368.62 99.83 373.25 91.96 379.02 85.00 C 382.64 80.32 387.34 76.55 390.50 71.50 C 393.29 67.27 396.74 63.54 400.01 59.68 C 405.93 58.07 411.35 61.44 415.85 64.86 C 422.55 62.48 429.37 59.74 436.66 60.49 Z" />
<path fill="#975735" opacity="1.00" d=" M 345.32 78.35 C 347.06 76.71 349.03 75.34 351.12 74.18 C 349.91 76.86 348.57 79.47 347.20 82.07 C 342.10 82.25 339.61 87.31 336.79 90.80 C 332.56 97.44 326.48 102.57 321.87 108.91 C 317.91 113.94 314.54 119.44 310.09 124.08 C 307.52 126.79 305.17 129.70 302.92 132.67 C 300.03 135.15 297.29 137.79 294.86 140.71 C 293.73 141.41 292.54 142.01 291.34 142.56 C 290.77 142.78 289.63 143.22 289.06 143.44 C 288.64 137.63 289.01 131.72 287.94 125.97 C 287.04 121.42 283.52 118.18 280.34 115.11 C 284.25 109.70 288.52 104.47 294.03 100.60 C 297.74 101.69 301.02 103.67 304.22 105.76 C 310.26 103.98 316.18 101.33 322.66 101.74 C 329.97 93.72 337.14 85.51 345.32 78.35 Z" />
<path fill="#f4722b" opacity="1.00" d=" M 336.79 90.80 C 339.61 87.31 342.10 82.25 347.20 82.07 C 351.39 82.60 355.11 84.75 358.16 87.60 C 362.92 85.77 367.70 83.77 372.85 83.33 C 367.58 90.22 362.90 97.59 356.75 103.76 C 353.22 107.32 350.69 111.69 347.42 115.46 C 344.62 117.88 340.93 118.88 337.75 120.71 C 327.65 126.49 318.23 133.41 307.95 138.87 C 304.76 140.69 301.79 142.87 298.80 145.00 C 297.89 144.21 296.97 143.42 296.06 142.63 C 294.48 142.62 292.91 142.59 291.34 142.56 C 292.54 142.01 293.73 141.41 294.86 140.71 C 298.37 138.97 300.79 135.85 302.92 132.67 C 305.17 129.70 307.52 126.79 310.09 124.08 C 314.54 119.44 317.91 113.94 321.87 108.91 C 326.48 102.57 332.56 97.44 336.79 90.80 Z" />
<path fill="#6c4b39" opacity="1.00" d=" M 285.55 104.54 C 288.25 101.91 290.68 98.82 294.26 97.31 C 294.20 98.13 294.09 99.78 294.03 100.60 C 288.52 104.47 284.25 109.70 280.34 115.11 C 278.95 115.80 277.98 114.39 277.78 113.17 C 279.81 109.84 282.84 107.30 285.55 104.54 Z" />
<path fill="#6c4b39" opacity="1.00" d=" M 228.29 137.21 C 232.16 131.58 235.39 124.71 241.85 121.64 C 242.92 122.10 243.99 122.55 245.07 123.01 C 242.92 126.67 243.26 130.90 242.89 134.95 C 241.64 137.88 239.56 140.70 240.29 144.09 C 240.26 148.79 243.39 152.50 246.27 155.87 C 243.07 157.31 239.90 158.82 236.73 160.33 C 236.61 158.79 236.44 157.26 236.27 155.72 C 234.20 154.73 232.14 153.72 230.07 152.72 C 226.25 154.20 222.23 156.06 218.04 155.34 C 215.90 155.06 214.99 152.74 214.73 150.89 C 215.73 146.95 220.15 145.23 223.83 144.90 C 228.02 144.19 232.12 145.59 236.07 146.79 C 234.46 142.92 232.15 139.18 228.29 137.21 Z" />
<path fill="#3e3e3e" opacity="1.00" d=" M 294.86 140.71 C 297.29 137.79 300.03 135.15 302.92 132.67 C 300.79 135.85 298.37 138.97 294.86 140.71 Z" />
<path fill="#f4722b" opacity="1.00" d=" M 207.41 141.43 C 212.61 135.70 221.30 135.33 228.29 137.21 C 232.15 139.18 234.46 142.92 236.07 146.79 C 232.12 145.59 228.02 144.19 223.83 144.90 C 220.15 145.23 215.73 146.95 214.73 150.89 C 214.99 152.74 215.90 155.06 218.04 155.34 C 222.23 156.06 226.25 154.20 230.07 152.72 C 232.14 153.72 234.20 154.73 236.27 155.72 C 236.44 157.26 236.61 158.79 236.73 160.33 C 236.34 161.75 236.79 164.00 235.37 164.82 C 234.65 164.07 233.98 163.29 233.31 162.51 C 229.04 162.18 224.70 161.68 220.46 162.50 C 219.09 165.00 219.56 167.91 219.94 170.59 C 223.30 174.22 228.58 172.47 232.92 172.70 C 233.28 173.28 234.01 174.44 234.38 175.02 C 232.18 176.03 229.94 176.97 227.88 178.24 C 228.16 179.78 229.14 181.02 229.99 182.29 C 231.79 180.04 233.59 177.78 235.72 175.81 C 236.12 175.95 236.93 176.23 237.34 176.37 C 236.08 178.42 234.81 180.46 233.52 182.49 C 229.29 183.56 225.07 184.69 220.86 185.86 C 215.72 187.01 212.78 191.85 208.55 194.59 C 199.15 201.07 190.48 208.65 180.63 214.45 C 174.68 216.20 168.48 217.05 162.38 218.13 C 161.98 218.06 161.18 217.93 160.78 217.86 C 164.79 215.24 168.78 212.57 172.38 209.40 C 175.12 207.01 177.89 204.41 181.54 203.54 C 185.52 202.13 190.11 202.08 193.64 199.61 C 198.56 194.01 200.35 186.41 205.21 180.72 C 207.17 176.20 207.23 170.01 204.04 165.98 C 201.93 163.86 200.78 161.12 200.52 158.14 C 201.55 157.23 202.58 156.32 203.61 155.40 C 201.78 150.39 203.43 144.87 207.41 141.43 Z" />
<path fill="#f7ebcf" opacity="1.00" d=" M 279.74 151.23 C 284.21 148.44 289.71 148.08 294.84 147.78 C 293.69 149.04 292.50 150.46 290.69 150.68 C 287.11 151.45 283.29 152.89 279.74 151.23 Z" />
<path fill="#975735" opacity="1.00" d=" M 161.10 160.06 C 163.84 155.53 168.51 151.46 174.07 151.47 C 177.92 151.40 182.30 150.85 185.53 153.43 C 188.29 155.27 189.58 158.44 190.61 161.45 C 184.65 158.68 176.75 157.97 171.85 163.17 C 172.00 165.02 172.14 166.87 172.28 168.72 C 176.04 169.09 179.87 168.90 183.37 167.35 C 186.15 166.01 188.98 168.26 191.07 169.92 C 191.57 171.55 191.65 173.27 191.86 174.96 C 191.07 175.39 190.28 175.84 189.48 176.27 C 185.12 175.34 180.66 175.08 176.21 175.33 C 175.69 178.29 175.44 181.41 176.89 184.17 C 177.12 184.71 177.59 185.81 177.82 186.36 C 180.99 186.05 184.16 185.74 187.33 185.42 C 187.47 186.06 187.75 187.34 187.89 187.98 C 186.02 188.40 184.15 188.82 182.29 189.24 C 182.86 190.92 183.42 192.60 184.15 194.23 C 187.17 193.92 188.29 190.34 190.84 189.00 C 195.64 186.27 200.66 183.89 205.21 180.72 C 200.35 186.41 198.56 194.01 193.64 199.61 C 190.11 202.08 185.52 202.13 181.54 203.54 C 177.89 204.41 175.12 207.01 172.38 209.40 C 168.78 212.57 164.79 215.24 160.78 217.86 C 161.18 217.93 161.98 218.06 162.38 218.13 L 163.79 218.40 C 154.26 220.11 144.97 222.91 135.43 224.57 C 132.85 225.82 131.69 228.74 129.61 230.61 C 124.33 233.70 116.24 230.94 113.06 237.32 C 110.98 237.63 108.90 237.91 106.83 238.24 C 113.62 233.68 119.94 228.44 126.70 223.82 C 130.09 221.58 132.91 218.63 136.16 216.20 C 140.76 212.98 146.95 213.66 151.63 210.68 C 156.04 206.06 157.82 199.71 161.27 194.43 C 163.58 191.43 162.94 187.48 162.90 183.96 C 163.29 179.48 158.07 177.29 157.88 172.98 C 158.40 171.55 159.16 170.22 159.68 168.79 C 160.21 165.89 159.42 162.66 161.10 160.06 Z" />
<path fill="#975735" opacity="1.00" d=" M 236.73 160.33 C 239.90 158.82 243.07 157.31 246.27 155.87 C 246.32 158.78 246.09 161.70 245.34 164.52 L 244.57 164.49 C 240.11 163.92 235.63 165.34 232.08 168.04 C 235.38 168.07 238.72 167.86 241.89 166.85 C 240.32 169.99 239.01 173.24 237.95 176.58 L 237.34 176.37 C 236.93 176.23 236.12 175.95 235.72 175.81 C 233.59 177.78 231.79 180.04 229.99 182.29 C 229.14 181.02 228.16 179.78 227.88 178.24 C 229.94 176.97 232.18 176.03 234.38 175.02 C 234.01 174.44 233.28 173.28 232.92 172.70 C 228.58 172.47 223.30 174.22 219.94 170.59 C 224.69 168.42 229.21 165.75 233.31 162.51 C 233.98 163.29 234.65 164.07 235.37 164.82 C 236.79 164.00 236.34 161.75 236.73 160.33 Z" />
<path fill="#6c4b39" opacity="1.00" d=" M 220.46 162.50 C 224.70 161.68 229.04 162.18 233.31 162.51 C 229.21 165.75 224.69 168.42 219.94 170.59 C 219.56 167.91 219.09 165.00 220.46 162.50 Z" />
<path fill="#f4722b" opacity="1.00" d=" M 232.08 168.04 C 235.63 165.34 240.11 163.92 244.57 164.49 C 243.72 165.33 242.82 166.11 241.89 166.85 C 238.72 167.86 235.38 168.07 232.08 168.04 Z" />
<path fill="#6c4b39" opacity="1.00" d=" M 204.04 165.98 C 207.23 170.01 207.17 176.20 205.21 180.72 C 200.66 183.89 195.64 186.27 190.84 189.00 C 188.29 190.34 187.17 193.92 184.15 194.23 C 183.42 192.60 182.86 190.92 182.29 189.24 C 184.15 188.82 186.02 188.40 187.89 187.98 C 187.75 187.34 187.47 186.06 187.33 185.42 C 184.16 185.74 180.99 186.05 177.82 186.36 C 177.59 185.81 177.12 184.71 176.89 184.17 C 181.22 181.75 185.30 178.93 189.48 176.27 C 190.28 175.84 191.07 175.39 191.86 174.96 C 196.19 172.34 201.63 170.88 204.04 165.98 Z" />
<path fill="#6c4b39" opacity="1.00" d=" M 124.63 171.62 C 128.68 168.58 134.00 167.09 139.02 167.96 C 143.69 168.91 147.54 172.58 148.62 177.24 C 143.36 176.35 136.86 174.47 132.39 178.41 C 129.89 180.10 131.27 184.33 134.14 184.56 C 137.28 184.45 140.16 182.99 143.04 181.88 C 145.08 182.68 147.13 183.48 149.18 184.26 C 149.11 186.77 149.59 189.39 148.79 191.83 C 145.29 191.10 141.75 189.41 137.97 190.23 C 133.22 190.34 133.79 198.07 137.74 199.11 C 140.63 199.23 143.51 198.74 146.40 198.67 C 146.34 199.46 146.22 201.06 146.16 201.85 C 144.50 202.61 142.84 203.37 141.19 204.13 C 141.89 205.01 142.59 205.90 143.30 206.78 C 145.47 204.36 147.71 201.85 150.75 200.50 C 154.46 198.83 157.53 196.05 161.27 194.43 C 157.82 199.71 156.04 206.06 151.63 210.68 C 146.95 213.66 140.76 212.98 136.16 216.20 C 132.91 218.63 130.09 221.58 126.70 223.82 C 119.94 228.44 113.62 233.68 106.83 238.24 C 105.23 238.57 103.63 238.89 102.05 239.30 C 97.75 240.39 93.47 241.53 89.12 242.37 C 83.26 243.45 77.65 245.69 71.70 246.27 C 81.13 240.37 89.98 233.57 98.65 226.60 C 102.60 223.82 107.90 224.42 112.02 222.02 C 115.15 219.15 116.45 214.98 118.34 211.30 C 119.43 209.24 121.51 207.89 122.57 205.83 C 123.08 202.66 123.08 199.39 122.55 196.23 C 121.43 193.73 118.88 191.90 118.59 189.05 C 118.30 187.07 119.71 185.47 120.50 183.81 C 119.05 179.31 121.33 174.64 124.63 171.62 Z" />
<path fill="#3e3e3e" opacity="1.00" d=" M 249.49 174.38 C 250.61 170.21 256.48 170.78 259.32 172.76 C 261.35 175.27 256.20 176.34 255.91 178.70 C 255.44 183.14 255.20 187.61 255.40 192.07 C 255.82 200.07 254.64 208.03 254.79 216.03 C 255.03 217.98 253.60 219.40 252.50 220.81 C 250.06 220.66 247.63 220.39 245.28 219.70 C 245.57 226.21 246.72 232.65 248.06 239.02 C 249.19 243.32 249.67 247.88 251.90 251.81 C 250.56 251.82 249.40 251.49 249.05 250.05 C 242.50 232.45 242.24 213.14 244.88 194.73 C 245.86 187.81 250.62 181.60 249.49 174.38 Z" />
<path fill="#3e3e3e" opacity="1.00" d=" M 176.21 175.33 C 180.66 175.08 185.12 175.34 189.48 176.27 C 185.30 178.93 181.22 181.75 176.89 184.17 C 175.44 181.41 175.69 178.29 176.21 175.33 Z" />
<path fill="#975735" opacity="1.00" d=" M 189.73 178.85 C 193.19 178.15 196.67 177.52 200.20 177.36 C 196.92 179.63 192.98 180.41 189.10 180.89 C 189.25 180.38 189.57 179.36 189.73 178.85 Z" />
<path fill="#6c4b39" opacity="1.00" d=" M 145.20 195.16 C 147.85 192.05 152.41 192.06 156.09 190.94 C 156.45 191.48 157.16 192.58 157.52 193.13 C 153.69 195.01 149.43 195.66 145.20 195.16 Z" />
<path fill="#3e3e3e" opacity="1.00" d=" M 260.68 219.79 C 264.12 212.15 268.37 204.83 273.51 198.22 C 273.40 199.18 273.29 200.14 273.19 201.10 C 269.67 208.77 264.92 215.82 260.52 223.00 C 260.57 221.93 260.62 220.86 260.68 219.79 Z" />
<path fill="#3e3e3e" opacity="1.00" d=" M 228.45 208.28 C 228.82 207.70 229.54 206.55 229.91 205.97 C 232.03 209.80 234.83 213.17 237.35 216.74 C 237.33 217.95 237.31 219.17 237.31 220.39 C 234.89 215.98 231.45 212.28 228.45 208.28 Z" />
<path fill="#f4722b" opacity="1.00" d=" M 197.74 247.61 C 204.72 244.86 210.61 240.04 216.76 235.86 C 217.70 244.10 220.36 251.99 222.02 260.08 C 222.38 273.68 218.62 286.95 215.18 299.99 C 213.97 306.56 212.31 313.03 210.43 319.44 C 203.63 325.28 196.92 331.38 191.62 338.66 C 186.43 345.46 180.17 351.46 175.79 358.87 C 172.90 363.20 170.70 368.24 166.28 371.28 C 157.72 377.74 149.54 384.65 141.18 391.35 C 142.04 397.92 143.41 404.44 143.57 411.09 C 144.04 417.31 143.01 423.53 143.64 429.75 C 139.08 431.51 134.94 434.57 130.00 435.16 C 125.68 435.51 122.29 438.75 117.96 439.17 C 108.51 440.57 98.69 444.64 89.23 441.06 C 89.72 439.64 90.23 438.23 90.74 436.83 C 100.82 433.92 110.01 428.64 119.53 424.35 C 122.58 412.23 124.36 399.29 121.92 386.87 C 126.09 381.73 130.30 376.61 134.64 371.61 C 137.64 367.97 139.78 363.72 142.43 359.83 C 144.97 355.95 147.87 352.32 150.93 348.84 C 155.95 343.21 160.01 336.70 165.87 331.84 C 168.76 329.07 172.70 326.88 173.87 322.79 C 175.94 315.91 176.83 308.73 178.89 301.85 C 182.40 289.96 184.63 277.53 183.73 265.11 C 183.23 260.63 181.75 256.35 180.60 252.01 C 186.28 250.42 191.92 248.66 197.74 247.61 Z" />
<path fill="#f4722b" opacity="1.00" d=" M 102.05 239.30 C 103.63 238.89 105.23 238.57 106.83 238.24 C 108.90 237.91 110.98 237.63 113.06 237.32 C 113.27 240.02 112.87 242.84 113.64 245.46 C 117.46 250.97 124.32 252.93 129.06 257.46 C 123.92 259.56 118.47 260.61 113.01 261.42 C 109.24 261.59 108.48 266.04 105.70 267.81 C 104.25 268.66 102.53 268.17 100.97 268.09 C 99.63 266.82 99.96 264.88 99.75 263.23 L 99.11 262.77 C 94.56 259.22 89.54 256.35 84.96 252.86 C 83.36 251.83 82.97 249.78 83.71 248.10 C 87.75 246.60 92.23 246.85 96.25 245.28 C 98.68 243.85 100.09 241.25 102.05 239.30 Z" />
<path fill="#3e3e3e" opacity="1.00" d=" M 258.29 253.30 C 262.40 248.01 265.62 241.75 271.51 238.15 C 263.91 248.01 257.02 258.40 251.08 269.34 C 252.71 263.71 254.75 258.04 258.29 253.30 Z" />
<path fill="#975735" opacity="1.00" d=" M 89.12 242.37 C 93.47 241.53 97.75 240.39 102.05 239.30 C 100.09 241.25 98.68 243.85 96.25 245.28 C 92.23 246.85 87.75 246.60 83.71 248.10 C 82.97 249.78 83.36 251.83 84.96 252.86 C 89.54 256.35 94.56 259.22 99.11 262.77 C 91.50 263.85 84.27 266.72 76.63 267.62 C 73.57 267.69 72.69 271.03 70.79 272.83 C 69.48 274.34 67.30 273.99 65.52 274.22 L 65.41 272.96 C 65.30 271.69 65.20 270.42 65.09 269.16 C 59.86 264.88 53.33 262.15 48.94 256.91 C 53.40 252.81 62.30 255.82 64.70 249.02 C 65.68 246.01 69.24 246.78 71.70 246.27 C 77.65 245.69 83.26 243.45 89.12 242.37 Z" />
<path fill="#3e3e3e" opacity="1.00" d=" M 234.70 239.58 C 236.06 239.26 237.44 239.50 238.41 240.58 C 242.85 244.53 247.09 248.84 250.21 253.93 C 247.06 252.49 244.98 249.74 242.66 247.32 C 240.14 244.60 237.23 242.29 234.70 239.58 Z" />
<path fill="#6c4b39" opacity="1.00" d=" M 42.95 253.67 C 50.22 252.24 57.26 249.59 64.70 249.02 C 62.30 255.82 53.40 252.81 48.94 256.91 C 53.33 262.15 59.86 264.88 65.09 269.16 C 65.20 270.42 65.30 271.69 65.41 272.96 L 64.32 273.15 C 64.12 272.40 63.72 270.89 63.52 270.13 C 57.09 271.67 50.74 273.59 44.17 274.47 C 41.27 274.71 40.70 278.19 38.57 279.63 C 37.07 280.27 35.39 280.22 33.79 280.47 C 33.60 279.03 33.40 277.60 33.20 276.16 C 29.35 273.18 25.45 270.25 21.26 267.75 C 19.39 266.78 19.05 264.53 18.22 262.80 C 21.94 261.79 25.80 261.46 29.51 260.44 C 32.19 259.74 32.93 256.55 35.17 255.26 C 37.71 254.49 40.36 254.22 42.95 253.67 Z" />
<path fill="#975735" opacity="1.00" d=" M 161.82 256.71 C 167.99 254.79 174.30 253.42 180.60 252.01 C 181.75 256.35 183.23 260.63 183.73 265.11 C 184.63 277.53 182.40 289.96 178.89 301.85 C 176.83 308.73 175.94 315.91 173.87 322.79 C 172.70 326.88 168.76 329.07 165.87 331.84 C 160.01 336.70 155.95 343.21 150.93 348.84 C 147.87 352.32 144.97 355.95 142.43 359.83 C 132.18 363.53 124.24 371.34 115.59 377.66 C 111.48 381.18 107.10 384.41 103.17 388.12 C 103.12 392.17 104.22 396.11 104.68 400.11 C 105.81 407.72 104.85 415.40 105.31 423.05 C 105.30 425.79 105.67 429.50 102.87 431.10 C 99.59 431.98 95.74 432.39 93.07 429.84 C 91.39 428.10 89.19 429.73 87.43 430.40 C 82.20 432.94 76.34 433.49 70.73 434.67 C 65.96 435.41 60.89 436.26 56.19 434.75 C 53.91 434.29 54.51 431.02 56.33 430.39 C 65.46 426.78 74.36 422.59 83.18 418.29 C 84.95 406.98 87.49 395.30 84.74 383.93 C 91.06 375.81 98.23 368.37 103.64 359.56 C 109.31 352.28 115.45 345.38 121.11 338.08 C 124.24 333.82 129.08 331.29 132.40 327.24 C 134.86 322.34 135.34 316.75 136.69 311.49 C 138.25 304.18 140.96 297.13 141.78 289.67 C 142.80 281.88 144.03 273.93 142.20 266.15 C 146.40 265.15 148.85 261.58 151.66 258.67 C 154.90 257.45 158.51 257.77 161.82 256.71 Z" />
<path fill="#6c4b39" opacity="1.00" d=" M 129.06 257.46 L 130.23 257.04 C 131.14 259.54 131.76 262.35 133.86 264.19 C 136.03 266.38 139.43 265.62 142.20 266.15 C 144.03 273.93 142.80 281.88 141.78 289.67 C 140.96 297.13 138.25 304.18 136.69 311.49 C 135.34 316.75 134.86 322.34 132.40 327.24 C 129.08 331.29 124.24 333.82 121.11 338.08 C 115.45 345.38 109.31 352.28 103.64 359.56 C 101.43 359.46 99.38 360.31 97.63 361.59 C 87.49 368.63 77.80 376.30 68.42 384.32 C 71.26 396.76 70.17 409.56 70.34 422.20 C 67.56 423.77 64.44 424.46 61.26 424.30 C 60.21 423.29 59.69 421.20 58.03 421.15 C 54.81 422.14 51.93 424.07 48.57 424.68 C 41.15 426.05 33.64 428.35 26.03 427.04 C 24.60 426.23 24.37 424.50 24.73 423.05 C 26.30 422.07 28.04 421.39 29.76 420.74 C 36.01 418.55 41.70 415.08 47.82 412.59 C 50.20 411.86 50.46 409.08 50.93 407.03 C 51.72 402.03 52.34 396.99 52.81 391.96 C 53.22 387.91 51.99 383.96 51.80 379.95 C 55.68 374.24 61.05 369.68 64.78 363.85 C 67.15 360.21 69.47 356.54 72.00 353.01 C 74.73 349.11 78.34 345.94 81.08 342.05 C 84.10 337.78 87.73 333.95 91.89 330.77 C 97.27 326.94 96.81 319.53 98.57 313.80 C 101.72 302.30 104.34 290.57 104.36 278.60 C 103.88 274.93 102.72 271.35 100.97 268.09 C 102.53 268.17 104.25 268.66 105.70 267.81 C 108.48 266.04 109.24 261.59 113.01 261.42 C 118.47 260.61 123.92 259.56 129.06 257.46 Z" />
<path fill="#3e3e3e" opacity="1.00" d=" M 253.15 292.87 C 256.27 297.88 261.18 301.32 266.49 303.70 C 271.26 305.79 275.61 308.71 280.37 310.78 C 283.78 311.07 287.05 309.28 290.51 309.75 C 287.75 310.24 284.97 310.57 282.23 311.15 L 282.52 312.90 C 280.50 310.80 277.44 310.34 275.02 308.84 C 268.37 305.06 260.96 302.61 254.75 298.10 C 252.13 304.24 248.19 309.79 243.09 314.13 C 239.77 317.66 234.75 318.30 230.57 320.38 C 225.22 322.60 220.43 325.95 215.08 328.17 C 222.97 323.39 231.17 319.01 240.01 316.23 C 244.66 309.99 249.76 304.04 253.35 297.08 C 253.30 296.03 253.20 293.92 253.15 292.87 Z" />
<path fill="#f4722b" opacity="1.00" d=" M 268.25 352.36 C 275.81 351.87 283.40 350.13 290.98 350.83 C 299.29 353.32 307.52 356.14 315.89 358.47 C 314.23 363.76 312.21 369.00 311.76 374.58 C 310.09 392.02 307.50 409.41 307.28 426.96 C 306.93 436.01 306.56 445.06 305.35 454.04 C 311.19 457.46 316.76 461.69 323.58 462.98 C 323.59 465.74 323.59 468.51 323.57 471.28 C 317.25 471.24 310.86 471.32 304.63 470.10 C 300.92 469.40 297.81 467.19 294.58 465.39 C 289.25 464.97 283.88 466.33 278.56 465.35 C 278.46 464.80 278.27 463.71 278.18 463.17 C 277.74 460.50 277.68 457.78 277.97 455.10 C 278.45 451.57 279.31 448.10 280.15 444.65 C 278.24 443.49 275.33 442.94 274.80 440.41 C 274.54 436.55 275.70 432.76 276.22 428.96 C 280.63 406.18 285.58 383.48 291.65 361.08 C 283.50 358.66 275.36 356.19 267.29 353.52 C 267.53 353.23 268.01 352.65 268.25 352.36 Z" />
<path fill="#975735" opacity="1.00" d=" M 242.45 360.34 C 250.56 356.44 259.22 353.25 268.25 352.36 C 268.01 352.65 267.53 353.23 267.29 353.52 C 263.53 359.89 261.53 367.19 260.81 374.51 C 259.44 388.65 257.89 402.78 257.16 416.96 C 257.02 422.90 257.19 428.87 256.45 434.78 C 256.09 438.39 255.18 441.97 255.35 445.62 C 261.47 451.26 269.60 454.81 277.97 455.10 C 277.68 457.78 277.74 460.50 278.18 463.17 C 270.18 461.70 261.96 462.80 254.00 461.08 C 250.73 460.41 248.05 458.25 244.92 457.23 C 240.36 456.66 235.74 457.80 231.20 456.99 C 229.55 456.02 229.03 454.10 229.24 452.31 C 229.28 450.14 229.41 447.98 229.64 445.83 C 230.01 443.01 230.93 440.30 231.73 437.58 C 230.12 436.71 228.28 436.13 226.98 434.80 C 226.24 432.63 226.78 430.32 227.09 428.14 C 229.32 415.63 231.61 403.13 234.70 390.81 C 236.59 380.49 239.42 370.36 242.45 360.34 Z" />
<path fill="#3e3e3e" opacity="1.00" d=" M 260.81 374.51 C 261.53 367.19 263.53 359.89 267.29 353.52 C 275.36 356.19 283.50 358.66 291.65 361.08 C 285.58 383.48 280.63 406.18 276.22 428.96 C 275.70 432.76 274.54 436.55 274.80 440.41 C 275.33 442.94 278.24 443.49 280.15 444.65 C 279.31 448.10 278.45 451.57 277.97 455.10 C 269.60 454.81 261.47 451.26 255.35 445.62 C 255.18 441.97 256.09 438.39 256.45 434.78 C 257.19 428.87 257.02 422.90 257.16 416.96 C 257.89 402.78 259.44 388.65 260.81 374.51 Z" />
<path fill="#6c4b39" opacity="1.00" d=" M 186.63 396.15 C 195.09 389.54 203.02 382.19 212.11 376.41 C 210.54 388.91 209.20 401.45 208.41 414.03 C 208.35 421.57 208.54 429.15 207.14 436.61 C 211.13 439.05 215.07 441.72 219.51 443.32 C 222.84 444.30 226.30 444.84 229.64 445.83 C 229.41 447.98 229.28 450.14 229.24 452.31 C 222.47 452.14 215.75 451.27 208.98 451.23 C 204.62 451.26 201.07 448.56 197.30 446.81 C 193.79 446.84 190.29 447.43 186.77 447.29 C 188.70 443.47 189.00 439.17 188.71 434.97 C 188.16 425.30 189.34 415.53 187.66 405.94 C 187.13 402.70 186.78 399.43 186.63 396.15 Z" />
</svg>
