<?xml version="1.0" encoding="UTF-8" ?>
<!DOCTYPE svg PUBLIC "-//W3C//DTD SVG 1.1//EN" "http://www.w3.org/Graphics/SVG/1.1/DTD/svg11.dtd">
<svg width="512pt" height="512pt" viewBox="0 0 512 512" version="1.1" xmlns="http://www.w3.org/2000/svg">
<path fill="#3e3e3e" opacity="1.00" d=" M 0.00 0.00 L 512.00 0.00 L 512.00 512.00 L 0.00 512.00 L 0.00 0.00 Z" />
<path fill="#f5722c" opacity="1.00" d=" M 241.02 51.82 C 254.72 47.51 270.47 53.07 278.81 64.67 C 273.16 64.64 267.59 63.41 261.93 63.50 C 247.91 63.18 233.94 65.28 220.37 68.71 C 224.88 60.78 232.17 54.36 241.02 51.82 Z" />
<path fill="#f5722c" opacity="1.00" d=" M 288.16 66.90 C 295.31 60.90 305.12 58.49 314.29 59.84 C 323.55 61.39 332.30 66.63 337.47 74.55 C 341.25 80.00 343.10 86.57 343.49 93.15 C 327.16 80.70 308.45 70.86 288.16 66.90 Z" />
<path fill="#f5722c" opacity="1.00" d=" M 183.24 68.01 C 192.47 64.95 202.76 66.41 211.20 71.05 C 198.90 75.38 186.80 80.50 175.92 87.77 C 170.09 91.48 164.87 96.00 159.45 100.25 C 159.49 85.86 169.46 72.21 183.24 68.01 Z" />
<path fill="#f5722c" opacity="1.00" d=" M 241.94 71.76 C 261.55 70.20 281.54 72.29 300.04 79.18 C 331.73 90.52 358.57 114.63 373.36 144.85 C 390.52 179.43 391.38 221.61 375.78 256.90 C 364.68 282.45 345.06 304.10 321.00 318.06 C 300.16 330.03 276.02 336.35 251.97 335.62 C 222.19 335.33 192.72 324.21 169.89 305.12 C 148.23 287.14 132.59 262.03 126.14 234.61 C 119.81 208.75 121.66 181.01 131.12 156.13 C 142.81 125.17 166.69 99.01 196.51 84.64 C 210.70 77.62 226.21 73.42 241.94 71.76 Z" />
<path fill="#3e3e3e" opacity="1.00" d=" M 248.15 88.13 C 275.49 86.58 303.27 95.28 324.88 112.09 C 345.90 128.19 360.91 151.89 366.65 177.72 C 369.15 189.58 371.14 201.82 369.26 213.93 C 368.27 219.47 367.61 225.07 366.26 230.54 C 360.20 255.80 345.30 278.91 324.61 294.65 C 308.78 306.86 289.70 314.75 269.90 317.47 C 261.96 319.45 253.69 319.21 245.59 318.71 C 236.44 317.01 227.16 315.74 218.32 312.70 C 190.37 303.54 166.25 283.28 152.63 257.18 C 142.23 237.27 137.26 214.33 139.50 191.92 C 141.40 178.66 144.62 165.45 150.59 153.39 C 162.39 128.60 183.39 108.35 208.62 97.52 C 221.11 92.14 234.56 88.86 248.15 88.13 Z" />
<path fill="#f5e5c1" opacity="1.00" d=" M 179.22 123.25 C 198.62 105.48 224.69 95.10 251.03 95.03 C 272.58 94.64 294.12 101.14 312.06 113.05 C 331.23 125.72 346.16 144.70 353.94 166.34 C 362.89 190.64 362.57 218.18 353.18 242.30 C 344.54 265.03 327.85 284.53 306.85 296.75 C 293.23 304.84 277.76 309.43 262.06 311.20 C 244.63 312.57 226.84 310.02 210.68 303.24 C 189.14 294.38 170.68 278.28 158.89 258.20 C 146.21 236.87 141.33 211.09 145.18 186.60 C 148.90 162.44 161.10 139.65 179.22 123.25 Z" />
<path fill="#f5722c" opacity="1.00" d=" M 351.61 99.59 C 362.22 98.66 373.14 102.78 380.17 110.83 C 390.02 121.02 391.37 137.31 385.32 149.79 C 384.98 149.67 384.31 149.41 383.97 149.29 C 377.51 131.68 366.78 115.71 353.55 102.46 C 352.85 101.54 352.20 100.58 351.61 99.59 Z" />
<path fill="#3e3e3e" opacity="1.00" d=" M 208.71 104.54 C 212.55 102.79 216.90 103.30 220.98 103.63 C 232.00 104.44 242.07 110.49 249.50 118.44 C 259.06 129.71 262.94 146.01 258.42 160.21 C 271.74 176.01 285.04 191.86 298.50 207.55 C 314.24 206.69 330.50 215.52 337.01 230.12 C 341.93 238.82 341.41 249.36 339.88 258.91 C 339.22 264.80 331.73 269.69 326.55 265.63 C 321.13 260.32 316.57 254.18 311.65 248.41 C 307.78 251.45 304.02 254.62 300.19 257.71 C 304.95 263.03 309.52 268.51 314.12 273.97 C 316.57 276.64 316.65 280.92 315.00 284.03 C 312.32 287.80 307.08 287.43 302.99 287.86 C 292.51 288.57 281.73 285.20 273.96 278.05 C 267.77 272.10 262.83 264.45 261.41 255.87 C 260.39 250.44 260.49 244.82 261.42 239.39 C 248.37 223.51 234.80 208.03 221.81 192.10 C 211.63 193.12 200.82 191.59 192.20 185.76 C 182.59 179.91 175.66 170.17 172.45 159.45 C 170.88 151.57 171.12 143.42 172.44 135.52 C 173.93 130.38 181.11 128.12 185.10 131.89 C 191.64 137.97 196.71 145.42 202.84 151.89 C 209.55 146.35 216.04 140.54 222.87 135.14 C 217.45 128.18 211.40 121.74 205.99 114.78 C 203.99 111.40 205.08 106.35 208.71 104.54 Z" />
<path fill="#f5722c" opacity="1.00" d=" M 118.07 126.21 C 123.93 113.04 138.78 104.75 153.07 106.65 C 138.39 121.83 127.62 140.54 121.13 160.59 C 114.42 150.62 113.06 137.16 118.07 126.21 Z" />
<path fill="#f5722c" opacity="1.00" d=" M 211.90 110.42 C 224.02 109.32 236.64 114.11 244.38 123.61 C 253.29 134.00 255.55 149.27 250.47 161.93 C 265.41 179.53 280.33 197.16 295.15 214.86 C 302.89 213.99 310.99 215.21 317.72 219.28 C 325.83 223.83 331.32 232.17 333.47 241.09 C 334.38 247.52 334.22 254.25 331.73 260.33 C 330.45 259.27 329.13 258.26 328.09 256.98 C 322.88 250.64 317.52 244.43 312.25 238.14 C 305.05 244.55 297.60 250.68 290.21 256.87 C 295.77 262.98 300.86 269.50 306.33 275.68 C 307.58 277.04 308.46 278.67 309.27 280.31 C 301.79 281.15 293.78 281.61 286.87 278.07 C 275.13 272.73 267.13 260.00 267.72 247.06 C 267.52 243.59 269.41 239.96 268.46 236.65 C 253.93 219.06 239.03 201.77 224.37 184.29 C 215.09 186.67 205.06 184.92 196.78 180.24 C 188.14 175.17 181.67 166.53 179.37 156.76 C 177.67 150.21 178.15 143.31 179.79 136.80 C 181.12 137.93 182.52 139.02 183.62 140.40 C 189.65 147.68 195.78 154.88 201.89 162.09 C 212.29 153.44 222.49 144.55 232.96 135.98 C 226.12 127.31 218.47 119.30 211.90 110.42 Z" />
<path fill="#f5722c" opacity="1.00" d=" M 387.62 159.20 C 397.43 162.37 405.96 169.82 409.58 179.58 C 412.14 185.36 411.94 191.84 411.42 198.00 C 409.73 208.54 402.51 217.57 393.29 222.68 C 396.05 201.44 394.21 179.60 387.62 159.20 Z" />
<path fill="#f5722c" opacity="1.00" d=" M 99.61 192.96 C 101.76 182.55 109.13 173.47 118.74 168.98 C 113.97 188.93 112.88 209.78 116.39 230.03 C 107.89 224.86 101.20 216.36 99.51 206.43 C 99.08 201.96 99.06 197.42 99.61 192.96 Z" />
<path fill="#f5722c" opacity="1.00" d=" M 391.95 230.05 C 399.83 238.81 402.64 251.84 398.89 263.03 C 394.77 276.31 381.79 286.51 367.79 286.67 C 378.83 269.28 388.18 250.46 391.95 230.05 Z" />
<path fill="#f5722c" opacity="1.00" d=" M 120.86 278.05 C 112.56 267.39 111.08 251.31 118.75 239.94 C 123.51 258.78 132.77 276.33 144.98 291.40 C 135.62 290.27 126.53 285.70 120.86 278.05 Z" />
<path fill="#f5722c" opacity="1.00" d=" M 240.01 343.55 C 276.73 348.12 315.21 336.21 343.18 312.03 C 367.61 356.19 391.71 400.53 416.00 444.77 C 384.26 437.14 352.69 428.75 320.91 421.27 C 313.58 439.93 305.75 458.40 298.31 477.02 C 297.49 479.11 296.46 481.11 295.44 483.12 C 287.25 465.39 280.04 447.25 273.02 429.04 C 263.12 403.65 253.20 378.27 243.30 352.88 C 242.00 349.84 240.91 346.73 240.01 343.55 Z" />
<path fill="#f5722c" opacity="1.00" d=" M 140.01 400.93 C 149.63 372.00 158.92 342.95 168.75 314.10 C 186.57 328.99 208.57 338.50 231.36 342.62 C 238.90 361.55 245.74 380.75 253.07 399.75 C 253.82 401.38 253.78 403.19 253.31 404.90 C 246.46 431.61 240.03 458.44 233.12 485.14 C 218.63 465.36 204.44 445.35 190.03 425.50 C 166.71 437.73 143.49 450.19 120.02 462.12 C 126.36 441.62 133.37 421.33 140.01 400.93 Z" />
</svg>
