<?xml version="1.0" encoding="UTF-8" ?>
<!DOCTYPE svg PUBLIC "-//W3C//DTD SVG 1.1//EN" "http://www.w3.org/Graphics/SVG/1.1/DTD/svg11.dtd">
<svg width="512pt" height="512pt" viewBox="0 0 512 512" version="1.1" xmlns="http://www.w3.org/2000/svg">
<path fill="#3e3e3e" opacity="1.00" d=" M 0.00 0.00 L 512.00 0.00 L 512.00 512.00 L 0.00 512.00 L 0.00 0.00 Z" />
<path fill="#f5722c" opacity="1.00" d=" M 136.01 5.24 C 150.67 5.16 165.33 5.25 179.99 5.19 C 183.98 4.98 187.06 7.91 190.37 9.66 C 234.96 35.82 279.42 62.21 324.11 88.21 C 323.19 93.25 320.21 97.51 318.04 102.05 C 315.67 106.34 314.31 111.96 309.01 113.50 C 302.76 109.33 296.42 105.29 290.20 101.07 C 290.96 98.63 291.10 96.05 288.30 94.91 C 290.37 91.51 293.30 88.62 294.83 84.91 C 293.20 83.16 290.95 82.22 288.92 81.06 C 279.48 75.88 270.06 70.65 260.66 65.38 C 259.31 64.53 257.74 64.25 256.18 64.10 C 252.81 59.38 250.26 54.06 246.16 49.90 C 242.59 46.19 239.76 41.24 234.65 39.49 C 230.35 38.00 225.94 36.85 221.58 35.56 C 216.22 34.02 210.35 35.84 205.11 33.86 C 193.82 27.50 182.51 21.17 171.26 14.74 C 170.01 14.21 168.79 13.01 167.36 13.27 C 163.80 17.18 162.64 23.31 157.34 25.46 C 149.40 20.84 141.26 16.56 133.24 12.08 C 134.16 9.80 135.09 7.52 136.01 5.24 Z" />
<path fill="#f5722c" opacity="1.00" d=" M 185.21 5.24 C 189.83 5.54 194.72 4.39 199.15 5.96 C 240.30 30.03 281.22 54.50 322.38 78.56 C 323.21 81.38 323.96 84.22 324.67 87.07 C 278.04 60.06 231.77 32.39 185.21 5.24 Z" />
<path fill="#f5722c" opacity="1.00" d=" M 277.28 5.23 C 291.94 5.27 306.60 5.27 321.26 5.23 C 321.32 20.24 321.28 35.25 321.29 50.26 C 311.91 50.25 302.54 50.32 293.16 50.22 C 291.34 47.62 289.24 45.24 286.98 43.00 C 284.21 40.30 280.44 38.98 277.51 36.49 C 276.91 26.10 277.41 15.64 277.28 5.23 Z" />
<path fill="#f5722c" opacity="1.00" d=" M 366.66 5.22 C 381.91 5.28 397.17 5.29 412.43 5.21 C 412.49 20.22 412.44 35.23 412.45 50.23 C 397.16 50.28 381.87 50.31 366.58 50.22 C 366.70 65.34 366.63 80.46 366.61 95.59 C 381.90 95.63 397.18 95.59 412.46 95.61 C 412.45 110.72 412.45 125.82 412.46 140.93 C 397.18 140.87 381.91 140.88 366.64 140.93 C 366.63 156.21 366.65 171.50 366.63 186.78 C 351.68 186.75 336.73 186.76 321.78 186.77 C 321.80 171.49 321.76 156.22 321.79 140.94 C 336.77 140.80 351.75 141.03 366.73 140.82 C 366.50 125.74 366.75 110.66 366.60 95.58 C 353.78 95.63 340.95 95.56 328.13 95.62 C 329.20 92.45 331.05 89.40 331.11 85.99 C 330.42 82.85 328.91 79.96 328.00 76.88 C 327.13 73.48 324.15 71.36 321.74 69.08 C 321.83 62.81 321.75 56.53 321.79 50.26 C 336.77 50.14 351.76 50.55 366.73 50.05 C 366.54 35.11 366.68 20.16 366.66 5.22 Z" />
<path fill="#f5722c" opacity="1.00" d=" M 458.30 5.24 C 473.78 5.28 489.26 5.26 504.74 5.25 C 504.79 20.22 504.66 35.20 504.81 50.18 C 489.30 50.38 473.80 50.22 458.29 50.26 C 458.28 65.37 458.28 80.48 458.29 95.59 C 443.00 95.59 427.71 95.66 412.42 95.55 C 412.53 80.44 412.40 65.33 412.48 50.23 C 427.75 50.30 443.02 50.28 458.29 50.24 C 458.29 35.24 458.26 20.24 458.30 5.24 Z" />
<path fill="#f5722c" opacity="1.00" d=" M 126.10 5.37 C 128.96 5.21 131.82 5.18 134.69 5.22 C 132.93 9.71 131.25 14.41 127.89 18.00 C 122.24 24.02 118.12 31.25 112.66 37.42 C 116.02 26.28 121.16 15.86 126.10 5.37 Z" />
<path fill="#f5722c" opacity="1.00" d=" M 109.15 73.02 C 116.73 53.87 124.10 34.63 132.06 15.63 C 140.40 19.50 148.24 24.36 156.36 28.68 C 157.71 34.01 153.54 38.30 152.35 43.19 C 152.05 44.76 153.73 45.48 154.78 46.20 C 161.80 50.20 168.75 54.34 175.82 58.26 C 175.06 61.30 174.17 64.31 173.20 67.28 C 169.79 68.39 166.19 68.74 162.78 69.79 C 160.93 71.19 159.49 73.06 158.13 74.93 C 159.83 76.57 161.33 78.40 162.74 80.29 C 166.28 83.54 171.24 84.59 175.94 84.21 C 177.76 88.48 177.62 93.16 177.77 97.71 C 173.67 98.41 171.10 101.72 168.35 104.48 C 167.16 105.97 165.20 105.06 163.90 104.26 C 145.68 93.80 127.40 83.43 109.15 73.02 Z" />
<path fill="#f5722c" opacity="1.00" d=" M 168.12 15.74 C 179.53 21.65 190.37 28.65 201.91 34.29 C 198.72 36.10 195.80 38.32 192.69 40.24 C 182.69 35.42 172.81 30.33 162.97 25.19 C 164.70 22.05 166.40 18.89 168.12 15.74 Z" />
<path fill="#3e3e3e" opacity="1.00" d=" M 168.40 18.19 C 170.68 18.11 172.01 19.51 171.86 21.79 C 170.72 21.74 169.59 21.64 168.47 21.48 C 168.35 20.38 168.32 19.29 168.40 18.19 Z" />
<path fill="#f5722c" opacity="1.00" d=" M 118.27 36.25 C 121.13 32.54 123.54 28.49 126.68 25.00 C 121.96 37.68 116.72 50.17 111.82 62.78 C 110.21 66.71 109.04 70.93 106.31 74.28 C 102.04 79.71 97.72 85.12 92.88 90.07 C 96.77 78.17 101.76 66.67 106.02 54.90 C 108.71 47.88 114.07 42.37 118.27 36.25 Z" />
<path fill="#f5722c" opacity="1.00" d=" M 159.88 27.31 C 161.44 27.56 163.04 27.77 164.43 28.59 C 172.97 33.04 181.46 37.59 190.02 42.01 C 188.39 43.14 186.79 44.29 185.20 45.47 C 176.50 40.25 167.55 35.44 159.01 29.98 C 159.23 29.31 159.66 27.98 159.88 27.31 Z" />
<path fill="#f5722c" opacity="1.00" d=" M 154.67 43.09 C 156.23 39.71 157.60 36.24 159.53 33.05 C 167.21 37.86 175.18 42.17 182.97 46.80 C 180.77 49.69 178.81 52.75 176.98 55.89 C 169.56 51.60 162.02 47.51 154.67 43.09 Z" />
<path fill="#3e3e3e" opacity="1.00" d=" M 158.67 38.57 C 159.97 38.70 161.65 38.18 162.49 39.53 C 163.41 41.09 162.14 42.51 161.14 43.59 C 160.45 43.27 159.08 42.62 158.39 42.30 C 158.48 41.06 158.57 39.81 158.67 38.57 Z" />
<path fill="#f5722c" opacity="1.00" d=" M 262.27 40.90 C 264.06 39.44 266.10 35.95 268.65 38.18 C 273.41 41.18 278.28 44.04 282.83 47.35 C 284.06 49.69 284.50 52.49 285.95 54.79 C 278.12 50.05 270.18 45.50 262.27 40.90 Z" />
<path fill="#f5e5c1" opacity="1.00" d=" M 195.58 45.63 C 198.38 43.97 200.89 41.66 203.97 40.57 C 209.31 40.42 214.60 41.39 219.93 41.57 C 224.70 42.72 229.60 43.86 234.08 45.86 C 240.17 51.85 246.07 58.26 249.93 65.96 C 252.34 71.57 252.22 77.69 252.52 83.66 C 253.87 86.47 256.60 88.39 258.63 90.72 C 248.08 90.18 238.30 85.78 227.92 84.21 C 216.98 82.49 206.21 79.17 195.04 79.37 C 187.64 79.37 180.33 77.91 172.93 78.18 C 170.43 78.44 168.37 76.90 166.68 75.26 C 170.46 74.25 174.25 73.30 177.98 72.14 C 179.93 66.27 180.98 59.93 184.69 54.82 C 187.11 50.54 191.77 48.44 195.58 45.63 Z" />
<path fill="#f5722c" opacity="1.00" d=" M 257.39 66.91 C 258.71 67.45 260.02 68.00 261.28 68.68 C 271.43 74.45 281.63 80.16 291.84 85.84 C 289.72 88.50 288.39 92.22 285.29 93.85 C 276.21 89.33 267.35 84.32 258.36 79.60 C 258.27 77.22 258.18 74.84 258.07 72.46 C 259.90 72.73 261.71 71.22 260.56 69.39 C 259.31 69.20 258.08 69.58 256.87 69.75 C 257.00 69.04 257.26 67.62 257.39 66.91 Z" />
<path fill="#f5722c" opacity="1.00" d=" M 92.84 92.21 C 98.26 86.30 103.17 79.92 108.80 74.22 C 127.38 84.87 146.01 95.41 164.59 106.06 C 157.27 109.27 149.27 111.06 142.61 115.65 C 141.41 116.59 140.75 118.02 139.89 119.24 C 124.22 110.21 108.47 101.31 92.84 92.21 Z" />
<path fill="#f5e5c1" opacity="1.00" d=" M 181.41 79.69 C 190.55 81.12 199.95 79.82 209.01 81.91 C 219.48 83.80 229.93 85.84 240.35 87.97 C 235.95 89.40 233.26 96.36 238.10 98.85 C 240.98 96.09 240.98 91.82 240.31 88.17 C 241.92 88.69 243.54 89.20 245.15 89.72 C 243.75 93.51 241.69 97.07 239.06 100.13 C 237.83 100.91 236.28 101.00 234.93 101.47 C 229.67 100.12 227.27 94.91 223.35 91.71 C 219.11 89.83 214.62 88.52 210.34 86.72 C 200.81 85.11 190.36 87.78 181.44 83.14 C 181.43 82.28 181.42 80.55 181.41 79.69 Z" />
<path fill="#f5722c" opacity="1.00" d=" M 258.82 81.36 C 266.07 84.97 273.10 88.99 280.30 92.69 C 283.21 94.14 285.80 96.10 288.37 98.06 C 287.83 99.63 287.41 101.25 286.63 102.72 C 285.15 104.21 283.37 102.85 281.93 102.11 C 276.12 98.70 270.21 95.47 264.40 92.07 C 265.13 87.38 260.97 84.85 258.82 81.36 Z" />
<path fill="#3e3e3e" opacity="1.00" d=" M 286.99 89.66 C 286.13 88.15 285.01 86.49 286.93 85.24 C 290.45 84.85 290.04 89.31 286.99 89.66 Z" />
<path fill="#f5e5c1" opacity="1.00" d=" M 183.40 86.50 C 186.78 88.48 190.12 90.55 193.32 92.82 C 193.83 96.09 194.49 99.34 194.64 102.66 C 197.92 103.49 201.30 103.88 204.67 104.13 C 202.33 100.55 197.41 99.57 195.54 95.57 C 194.94 93.63 195.43 91.58 195.50 89.60 C 196.69 89.54 197.88 89.47 199.07 89.40 C 198.05 91.21 197.02 93.05 196.65 95.12 C 198.35 93.74 200.02 92.33 201.86 91.14 C 200.88 92.75 199.48 94.16 198.94 96.01 C 199.63 96.85 200.34 97.65 201.09 98.43 C 202.90 96.59 203.88 94.21 204.56 91.76 C 202.73 90.98 200.87 90.28 199.00 89.59 C 203.67 89.66 208.54 88.38 213.05 90.11 C 216.16 91.22 219.44 91.98 222.36 93.56 C 225.85 96.77 228.17 101.67 233.06 103.03 C 235.42 103.94 237.88 102.83 240.23 102.42 C 241.16 101.12 242.09 99.82 243.04 98.53 C 245.03 101.06 246.94 105.07 242.91 106.94 C 242.90 106.23 242.89 104.79 242.88 104.08 C 240.88 104.46 238.91 104.98 237.05 105.83 C 239.05 105.65 241.12 105.59 242.75 106.95 C 240.41 106.76 238.07 106.72 235.74 107.01 C 237.56 107.84 240.27 108.23 240.13 110.84 C 237.92 110.83 235.70 110.78 233.50 110.68 C 232.84 112.12 232.53 113.60 233.47 115.00 C 234.19 114.15 234.91 113.31 235.64 112.47 C 238.05 112.53 240.47 112.58 242.89 112.71 C 241.33 116.07 237.28 115.93 234.37 117.40 C 234.94 118.65 235.52 119.90 236.09 121.16 C 237.95 120.19 239.76 119.12 241.57 118.04 C 243.34 122.16 242.61 126.61 240.41 130.40 C 234.61 130.14 228.76 130.57 222.98 129.84 C 220.19 129.68 218.49 127.18 216.47 125.57 C 214.14 123.24 210.90 121.86 209.10 119.01 C 206.95 115.86 205.32 112.33 202.81 109.45 C 202.41 109.39 201.62 109.27 201.22 109.20 C 203.48 113.47 205.71 117.75 207.80 122.10 C 209.64 126.04 212.93 128.97 215.77 132.17 C 213.48 134.78 211.19 137.38 208.93 140.00 C 204.71 134.83 200.93 129.31 196.72 124.15 C 195.99 122.63 193.22 123.17 193.42 124.99 C 195.32 129.07 198.63 132.30 200.93 136.16 C 198.09 134.13 195.21 132.13 192.75 129.64 C 186.32 129.00 179.64 130.78 174.06 133.96 C 166.53 139.46 159.10 145.12 151.33 150.27 C 148.38 152.31 145.06 154.02 142.90 156.98 C 136.74 165.11 130.58 173.24 124.29 181.27 C 122.90 182.91 122.77 185.12 122.46 187.15 C 121.66 193.06 120.46 198.97 120.50 204.95 C 121.82 211.51 123.91 217.90 125.81 224.32 C 127.12 229.71 131.37 233.60 134.17 238.23 C 137.77 238.87 141.34 240.08 145.04 239.67 C 148.96 239.25 153.37 240.35 156.81 237.92 C 160.45 235.61 164.66 233.91 167.36 230.41 C 171.80 225.40 175.74 219.97 180.25 215.02 C 182.11 216.22 183.57 218.43 185.95 218.53 C 195.63 219.48 205.34 220.12 214.96 221.54 C 212.86 228.50 218.18 234.46 219.52 241.00 C 219.34 244.66 217.40 248.34 214.22 250.27 C 208.39 254.04 202.50 257.72 196.93 261.86 C 204.71 257.97 213.10 255.26 220.41 250.45 C 222.24 249.25 224.11 248.11 226.03 247.06 C 227.91 254.04 229.52 261.09 231.05 268.16 C 223.97 273.49 215.68 276.75 207.40 279.69 C 197.13 282.88 186.77 285.80 176.36 288.49 C 190.41 289.48 204.46 287.44 218.05 283.95 C 220.65 282.97 222.72 281.05 224.96 279.47 C 224.38 287.64 222.06 295.60 221.54 303.74 C 222.66 303.07 223.37 302.11 223.66 300.87 C 224.95 295.89 227.02 291.14 228.21 286.12 C 229.95 288.69 231.87 291.19 233.04 294.09 C 234.18 298.90 228.87 303.20 230.75 307.99 C 232.31 306.35 233.73 304.60 235.11 302.81 C 238.89 309.05 244.30 314.38 246.54 321.47 C 248.77 327.69 251.83 333.64 253.57 340.01 C 252.21 344.46 250.38 348.85 247.56 352.58 C 245.83 355.04 243.60 357.27 242.80 360.26 C 248.61 355.96 252.43 349.47 258.08 344.91 C 260.17 348.61 261.71 352.59 263.63 356.38 C 264.50 358.47 265.91 360.57 265.46 362.94 C 264.54 369.46 263.64 375.98 262.58 382.48 C 258.74 385.47 255.01 388.60 251.18 391.59 C 245.71 390.08 240.38 387.93 234.76 387.02 C 235.25 388.20 236.11 389.16 237.16 389.90 C 240.57 392.48 243.59 395.53 246.53 398.63 C 247.84 399.73 247.51 401.56 247.72 403.08 C 248.02 409.69 248.76 416.35 247.85 422.95 C 246.21 430.46 242.92 437.55 241.33 445.07 C 241.82 450.70 243.48 456.18 244.31 461.78 C 229.84 459.74 215.44 457.27 200.94 455.33 C 198.28 454.94 195.51 454.74 193.07 453.50 C 194.99 451.43 196.89 449.36 198.67 447.17 C 197.24 444.59 194.81 442.16 195.13 439.00 C 195.47 428.38 196.49 417.81 196.92 407.20 C 197.02 401.48 200.63 396.78 202.78 391.70 C 205.24 385.94 208.60 380.60 212.78 375.94 C 216.56 376.69 220.22 378.30 224.12 378.26 C 221.33 375.47 217.05 375.36 213.52 374.05 C 214.41 370.25 215.42 366.48 216.73 362.81 C 220.66 362.24 224.61 361.81 228.51 361.06 C 223.40 358.22 217.24 358.48 211.98 356.04 C 211.05 351.11 209.37 345.89 211.59 341.08 C 211.55 332.02 215.99 323.84 217.05 314.98 C 215.80 315.18 214.64 315.69 214.46 317.08 C 211.87 325.05 209.23 332.99 206.48 340.90 C 204.89 345.35 203.98 350.22 200.94 353.98 C 197.94 357.66 194.11 360.58 191.13 364.29 C 193.47 365.59 195.20 363.63 196.88 362.29 C 195.90 367.22 195.00 372.16 194.00 377.09 C 193.28 380.75 191.85 384.46 188.84 386.85 C 185.62 389.57 182.75 392.73 179.28 395.13 C 174.56 396.66 169.59 397.30 164.77 398.46 C 160.16 395.34 155.61 392.13 150.99 389.03 C 149.64 388.05 148.03 387.22 147.30 385.64 C 144.55 380.30 142.42 374.68 139.80 369.29 C 138.84 367.16 136.62 365.55 136.76 363.03 C 136.60 358.38 136.16 353.71 136.53 349.06 C 137.88 343.97 140.11 339.16 141.79 334.17 C 144.96 337.20 147.83 340.58 151.39 343.19 C 151.82 341.81 151.71 340.42 150.64 339.38 C 146.29 333.58 141.66 327.98 137.64 321.94 C 139.74 314.76 142.95 307.87 145.60 300.84 C 147.57 296.68 147.44 291.94 149.37 287.76 C 150.18 285.98 148.56 284.46 147.46 283.29 C 148.03 291.94 142.28 299.16 138.41 306.42 C 135.46 312.49 130.05 316.72 125.56 321.59 C 117.54 329.98 108.22 336.95 99.54 344.61 C 93.29 350.28 85.31 353.31 78.08 357.46 C 71.77 361.27 64.16 361.66 57.00 362.15 C 53.31 361.86 48.91 362.36 46.12 359.40 C 52.95 360.14 59.80 359.33 66.52 358.11 C 75.75 355.40 84.28 350.68 91.94 344.91 C 94.76 343.07 97.37 340.87 99.26 338.05 C 91.94 343.24 84.39 348.12 76.59 352.54 C 66.49 357.85 54.42 359.37 43.32 356.75 C 40.24 356.08 37.73 353.24 38.13 349.99 C 37.58 345.32 39.89 341.10 42.41 337.39 C 47.23 330.95 52.79 325.13 58.44 319.42 C 64.37 312.51 72.52 308.20 79.64 302.70 C 85.85 297.74 93.44 295.10 100.42 291.47 C 108.08 287.44 116.37 284.85 124.60 282.30 C 128.42 281.05 132.40 282.30 136.27 282.47 C 136.46 282.10 136.82 281.36 137.00 280.99 C 135.29 279.50 132.92 279.46 130.81 279.07 C 129.67 276.39 128.48 273.72 127.75 270.90 C 128.02 270.49 128.58 269.69 128.85 269.28 C 132.95 270.42 136.64 272.97 140.99 273.18 C 145.96 273.44 150.96 273.61 155.95 273.42 C 160.40 272.73 164.71 271.30 169.01 269.95 C 159.99 269.37 150.88 270.21 141.93 268.66 C 137.02 267.79 132.15 266.67 127.31 265.44 C 127.52 263.42 127.72 261.41 127.93 259.41 C 132.50 260.34 137.07 261.33 141.73 261.73 C 141.99 259.72 139.99 259.14 138.70 258.31 C 135.32 256.44 131.53 255.02 128.97 251.99 C 126.88 249.54 124.35 247.38 122.76 244.56 C 119.21 232.06 115.75 219.53 112.22 207.02 C 111.17 203.75 112.30 200.38 112.62 197.09 C 113.77 189.97 114.27 182.72 115.87 175.69 C 121.22 163.12 126.98 150.71 132.38 138.16 C 133.17 136.30 134.16 134.53 135.19 132.79 C 137.11 133.70 138.76 136.73 141.12 135.39 C 147.11 132.52 153.26 129.93 159.15 126.85 C 159.24 126.27 159.44 125.10 159.53 124.52 C 152.31 126.36 146.13 131.58 138.69 132.32 C 142.46 127.31 146.36 122.29 150.79 117.88 C 156.73 115.25 162.99 113.38 169.03 110.98 C 173.79 109.56 175.32 103.19 180.85 103.27 C 180.67 105.30 180.48 107.34 180.37 109.38 C 182.79 107.83 183.67 104.77 184.15 102.09 C 183.84 96.90 183.36 91.71 183.40 86.50 Z" />
<path fill="#f5722c" opacity="1.00" d=" M 259.01 96.93 C 261.38 96.96 262.96 95.19 264.12 93.36 C 270.28 96.86 276.41 100.40 282.61 103.82 C 281.11 106.48 280.40 109.47 279.26 112.28 C 278.38 113.27 276.78 114.25 275.53 113.30 C 268.07 108.86 260.79 104.11 253.34 99.65 C 251.54 98.62 249.94 97.31 248.51 95.83 C 252.04 95.88 255.49 96.79 259.01 96.93 Z" />
<path fill="#f5722c" opacity="1.00" d=" M 458.28 95.62 C 473.77 95.60 489.26 95.58 504.75 95.63 C 504.73 110.72 504.75 125.81 504.74 140.91 C 489.25 140.87 473.75 140.93 458.26 140.88 C 458.31 125.79 458.27 110.71 458.28 95.62 Z" />
<path fill="#f5722c" opacity="1.00" d=" M 251.35 101.11 C 258.24 105.83 265.60 109.83 272.62 114.37 C 274.51 115.42 276.69 117.37 278.88 115.86 C 282.11 114.58 282.14 110.52 283.61 107.83 C 284.23 105.41 287.10 105.26 288.98 104.29 C 295.90 109.08 303.14 113.41 309.89 118.44 C 306.19 125.55 302.29 132.55 298.50 139.61 C 297.98 141.03 296.35 140.89 295.15 141.27 C 295.93 136.86 297.27 132.47 297.08 127.95 C 296.54 120.65 287.19 116.26 281.07 120.02 C 275.21 123.45 272.27 129.93 267.19 134.23 C 264.39 136.75 261.32 139.08 259.11 142.16 C 257.42 145.49 256.89 149.24 255.91 152.80 C 245.51 147.53 235.42 141.67 225.10 136.25 C 230.40 136.06 235.73 136.69 241.02 136.11 C 243.94 135.92 245.87 133.43 246.81 130.89 C 248.86 126.89 248.87 122.32 249.94 118.04 C 250.51 115.54 248.45 113.50 248.20 111.15 C 250.50 108.29 251.67 104.81 251.35 101.11 Z" />
<path fill="#3e3e3e" opacity="1.00" d=" M 275.43 110.59 C 272.48 109.93 273.62 106.35 275.83 105.47 C 276.50 105.82 277.85 106.52 278.52 106.88 C 278.81 108.83 277.90 111.39 275.43 110.59 Z" />
<path fill="#f5722c" opacity="1.00" d=" M 316.14 116.97 C 318.21 114.77 319.88 112.25 321.26 109.56 C 321.32 120.02 321.28 130.47 321.29 140.93 C 315.71 140.88 310.13 140.88 304.55 140.92 C 307.28 136.45 309.46 131.68 312.14 127.18 C 314.00 124.01 315.84 120.71 316.14 116.97 Z" />
<path fill="#f5e5c1" opacity="1.00" d=" M 269.46 140.38 C 275.30 135.73 278.93 128.95 284.88 124.40 C 286.77 124.93 288.96 125.06 290.44 126.51 C 292.33 134.40 287.60 141.63 285.65 148.99 C 284.94 150.92 287.67 151.51 289.04 151.60 C 292.53 152.61 293.42 148.38 294.92 146.23 C 296.08 147.32 297.24 148.41 298.38 149.52 C 299.29 157.04 295.36 163.62 292.31 170.15 C 288.21 167.26 284.35 164.00 280.05 161.41 C 278.39 161.43 277.76 162.26 278.15 163.92 C 281.22 167.51 286.19 169.18 288.51 173.45 C 290.31 176.62 291.88 179.93 293.78 183.06 C 293.27 184.64 292.75 186.21 292.23 187.79 C 289.14 183.75 286.54 179.28 283.02 175.61 L 281.16 175.29 C 284.02 181.58 289.15 186.48 292.64 192.40 C 292.72 197.82 292.61 203.40 291.56 208.72 C 288.15 212.76 284.34 216.53 280.26 219.91 C 282.30 214.95 284.55 210.05 286.27 204.97 C 286.26 200.32 284.74 195.70 285.50 191.02 C 283.48 187.50 281.64 183.88 279.56 180.40 C 278.61 178.41 276.20 178.17 274.39 177.42 C 269.84 176.03 265.48 174.09 260.89 172.86 C 257.17 173.04 253.56 174.22 249.88 174.74 C 248.51 173.83 247.14 172.92 245.77 172.01 C 249.18 169.29 252.32 166.16 256.26 164.20 C 257.39 163.45 258.98 162.98 259.41 161.55 C 261.05 156.79 262.17 151.86 263.67 147.04 C 264.30 143.92 267.35 142.42 269.46 140.38 Z" />
<path fill="#f5e5c1" opacity="1.00" d=" M 175.09 136.09 C 179.44 133.07 184.87 132.45 190.03 132.28 C 194.35 135.55 198.77 138.69 203.16 141.87 C 205.79 143.93 209.26 144.33 212.06 146.08 C 216.30 150.23 218.04 156.46 223.01 159.91 C 227.71 163.56 231.75 167.95 236.41 171.64 C 242.53 177.78 250.97 180.57 257.81 185.76 C 255.58 192.45 253.46 199.18 251.26 205.87 C 251.87 206.22 252.50 206.55 253.14 206.87 C 255.93 198.28 260.30 190.34 263.64 181.97 C 260.77 180.64 256.59 180.55 255.03 177.43 C 261.81 179.31 267.77 183.27 274.21 186.01 C 276.83 193.65 279.65 201.26 281.59 209.10 C 278.40 216.03 274.24 222.60 270.50 229.29 C 263.30 230.26 256.12 231.35 248.93 232.40 C 244.58 233.52 240.83 230.45 237.04 228.84 C 235.53 228.51 235.43 227.09 235.24 225.84 C 239.76 221.49 243.96 216.82 248.22 212.22 C 249.17 211.29 249.84 210.13 250.29 208.88 C 245.73 211.76 242.57 217.00 237.05 218.17 C 234.71 218.80 232.38 219.52 229.97 219.79 C 225.85 219.33 222.18 216.97 218.03 216.70 C 208.65 216.22 199.24 215.81 189.95 214.42 C 186.57 214.02 183.95 211.62 181.18 209.88 C 174.76 205.70 168.50 201.25 161.92 197.32 C 160.81 199.52 159.74 201.75 158.66 203.98 C 164.17 206.47 169.86 208.57 175.20 211.42 C 167.46 211.79 159.74 212.90 151.99 212.72 C 145.81 210.96 140.06 207.92 133.90 206.06 C 139.48 210.91 146.19 214.58 150.89 220.36 C 159.41 217.26 168.56 216.51 177.31 214.22 C 171.32 223.00 163.66 230.89 154.61 236.54 C 148.82 238.23 142.42 237.32 136.85 235.19 C 133.43 232.78 130.59 229.44 129.28 225.42 C 126.43 218.83 124.36 211.92 122.89 204.90 C 122.76 197.84 124.09 190.82 125.79 183.99 C 126.72 181.44 128.93 179.64 130.58 177.56 C 135.78 171.37 140.62 164.89 145.64 158.56 C 147.38 156.32 149.79 154.76 152.04 153.09 C 159.72 147.42 167.27 141.57 175.09 136.09 Z" />
<path fill="#f5722c" opacity="1.00" d=" M 216.07 140.99 C 217.72 139.23 219.35 137.45 220.91 135.62 C 232.59 141.33 243.79 147.96 255.29 154.01 C 254.95 155.46 254.61 156.91 254.27 158.37 C 249.21 160.50 245.41 164.51 241.18 167.85 C 235.90 163.08 230.57 158.38 225.16 153.75 C 221.78 149.77 219.40 145.03 216.07 140.99 Z" />
<path fill="#f5722c" opacity="1.00" d=" M 412.48 140.93 C 427.75 140.88 443.02 140.88 458.29 140.93 C 458.28 156.21 458.28 171.49 458.29 186.78 C 473.77 186.75 489.26 186.75 504.75 186.77 C 504.73 201.73 504.78 216.68 504.72 231.63 C 489.24 231.57 473.76 231.63 458.28 231.60 C 458.31 246.71 458.25 261.82 458.31 276.93 C 443.03 276.89 427.75 276.87 412.47 276.94 C 412.45 261.83 412.47 246.72 412.46 231.62 C 427.74 231.56 443.03 231.70 458.31 231.55 C 458.25 216.63 458.31 201.71 458.28 186.79 C 443.01 186.75 427.74 186.74 412.47 186.80 C 412.46 171.51 412.45 156.22 412.48 140.93 Z" />
<path fill="#f5e5c1" opacity="1.00" d=" M 260.76 175.25 C 266.36 176.73 271.71 179.02 277.23 180.78 C 279.17 184.42 281.40 187.93 283.00 191.75 C 283.65 195.73 283.11 199.82 282.96 203.84 C 280.28 197.24 278.44 190.32 276.57 183.46 C 271.42 180.49 265.52 178.82 260.76 175.25 Z" />
<path fill="#3e3e3e" opacity="1.00" d=" M 266.39 187.88 C 266.41 186.00 268.97 185.92 270.15 185.05 C 272.18 188.01 271.46 191.68 272.14 195.01 C 272.85 199.26 274.10 203.44 274.09 207.79 C 272.93 206.91 272.04 205.74 271.66 204.33 C 269.72 198.91 268.13 193.36 266.39 187.88 Z" />
<path fill="#f5722c" opacity="1.00" d=" M 298.97 186.76 C 306.41 186.78 313.84 186.73 321.28 186.79 C 321.32 201.72 321.25 216.65 321.31 231.58 C 306.53 231.63 291.74 231.62 276.95 231.58 C 277.57 229.80 278.28 228.06 279.09 226.36 C 281.16 225.89 283.47 225.65 285.01 223.99 C 288.72 220.41 292.43 216.79 295.96 213.01 C 298.61 210.38 297.99 206.37 298.32 202.99 C 298.34 198.29 299.83 193.50 298.14 188.93 C 298.35 188.38 298.76 187.30 298.97 186.76 Z" />
<path fill="#f5722c" opacity="1.00" d=" M 366.64 186.79 C 381.91 186.74 397.18 186.74 412.46 186.80 C 412.50 201.70 412.36 216.61 412.53 231.52 C 397.23 231.71 381.92 231.58 366.62 231.58 C 366.67 216.65 366.63 201.72 366.64 186.79 Z" />
<path fill="#f5722c" opacity="1.00" d=" M 321.78 231.63 C 336.74 231.59 351.69 231.62 366.65 231.62 C 366.66 246.70 366.59 261.79 366.68 276.87 C 351.72 276.95 336.75 276.87 321.79 276.91 C 321.77 261.82 321.79 246.73 321.78 231.63 Z" />
<path fill="#f5722c" opacity="1.00" d=" M 277.24 276.98 C 291.92 276.82 306.60 276.91 321.28 276.93 C 321.30 292.04 321.28 307.16 321.29 322.27 C 306.61 322.28 291.93 322.29 277.26 322.27 C 277.25 307.17 277.27 292.07 277.24 276.98 Z" />
<path fill="#f5722c" opacity="1.00" d=" M 366.65 276.94 C 381.92 276.88 397.19 276.86 412.46 276.95 C 412.45 292.05 412.46 307.16 412.45 322.26 C 397.18 322.28 381.90 322.30 366.62 322.25 C 366.66 337.53 366.63 352.81 366.64 368.10 C 381.91 368.15 397.18 368.17 412.45 368.09 C 412.45 383.04 412.46 398.00 412.45 412.95 C 397.18 412.88 381.91 412.88 366.64 412.95 C 366.61 428.06 366.70 443.17 366.59 458.28 C 351.65 458.28 336.72 458.30 321.78 458.27 C 321.80 443.16 321.76 428.05 321.80 412.95 C 336.76 412.84 351.72 412.98 366.68 412.88 C 366.62 398.91 366.62 384.93 366.68 370.96 C 366.51 369.90 367.20 367.51 365.16 368.13 C 350.70 368.10 336.24 368.19 321.79 368.10 C 321.79 352.82 321.75 337.54 321.81 322.27 C 336.73 322.30 351.65 322.25 366.57 322.29 C 366.75 307.18 366.59 292.06 366.65 276.94 Z" />
<path fill="#f5722c" opacity="1.00" d=" M 458.22 277.08 C 473.71 276.69 489.22 276.97 504.73 276.93 C 504.82 292.01 504.62 307.08 504.83 322.16 C 489.33 322.42 473.81 322.22 458.30 322.26 C 458.26 337.53 458.30 352.81 458.28 368.09 C 443.01 368.16 427.74 368.16 412.47 368.09 C 412.47 352.81 412.43 337.53 412.49 322.25 C 427.76 322.30 443.02 322.29 458.29 322.26 C 458.23 307.20 458.37 292.13 458.22 277.08 Z" />
<path fill="#3e3e3e" opacity="1.00" d=" M 123.94 286.88 C 127.33 285.01 131.32 285.38 135.04 285.45 C 135.37 285.90 136.04 286.80 136.37 287.25 C 134.74 287.28 133.11 287.28 131.49 287.28 C 131.91 289.28 132.36 291.27 132.84 293.26 C 134.21 293.35 135.58 293.43 136.96 293.51 C 138.37 291.29 138.94 288.04 141.67 287.04 C 140.24 293.87 136.01 299.51 132.07 305.09 C 129.58 308.22 127.54 311.84 124.27 314.25 C 115.27 320.96 106.18 327.55 96.86 333.81 C 92.44 336.72 88.33 340.12 83.64 342.61 C 73.30 347.75 62.84 354.07 50.87 353.84 C 50.67 350.92 49.67 347.83 50.98 345.04 C 53.44 339.22 56.91 333.81 60.93 328.95 C 65.97 323.67 70.44 317.62 76.80 313.83 C 85.51 308.26 93.85 302.12 102.54 296.53 C 109.46 292.86 116.90 290.29 123.94 286.88 Z" />
<path fill="#3e3e3e" opacity="1.00" d=" M 46.91 338.90 C 49.36 336.01 51.17 332.59 53.96 329.99 C 52.23 336.76 44.80 341.41 45.49 348.93 C 45.45 351.45 47.36 352.34 49.75 352.03 C 49.01 352.53 48.25 353.03 47.50 353.53 C 46.15 352.91 44.46 352.83 43.35 351.77 C 41.68 347.15 44.01 342.44 46.91 338.90 Z" />
<path fill="#f5e5c1" opacity="1.00" d=" M 88.94 366.28 C 95.36 365.00 101.63 363.04 108.10 361.95 C 100.96 369.01 93.82 376.06 86.68 383.11 C 86.98 383.75 87.58 385.05 87.88 385.70 C 96.50 381.49 104.58 376.25 112.99 371.64 C 114.94 374.14 116.41 377.17 119.22 378.84 C 120.43 374.73 121.18 370.51 121.88 366.29 C 123.64 366.79 125.39 367.32 127.14 367.85 C 128.64 374.94 132.06 382.03 130.26 389.40 C 128.12 398.43 126.75 407.71 123.36 416.39 C 118.60 417.11 113.85 417.87 109.09 418.56 C 102.51 419.74 96.16 416.98 89.83 415.61 C 86.48 416.85 83.49 419.03 80.02 419.89 C 75.65 419.23 71.49 417.46 67.47 415.71 C 64.75 409.46 64.50 402.52 62.68 396.01 C 61.72 391.00 60.15 386.07 59.82 380.97 C 61.47 375.73 63.63 370.64 65.91 365.65 C 73.60 365.19 81.26 366.77 88.94 366.28 Z" />
<path fill="#f5722c" opacity="1.00" d=" M 277.26 368.11 C 291.93 368.14 306.61 368.16 321.29 368.11 C 321.29 383.05 321.29 397.99 321.29 412.94 C 306.61 412.87 291.94 412.91 277.27 412.92 C 277.23 397.98 277.27 383.05 277.26 368.11 Z" />
<path fill="#f5722c" opacity="1.00" d=" M 458.28 368.12 C 473.76 368.14 489.25 368.16 504.74 368.10 C 504.74 383.05 504.75 397.99 504.74 412.93 C 489.24 412.97 473.74 412.74 458.26 413.05 C 458.40 428.14 458.11 443.24 458.40 458.34 C 473.84 458.21 489.29 458.32 504.73 458.28 C 504.76 473.22 504.74 488.17 504.74 503.11 C 489.26 503.17 473.77 503.15 458.29 503.12 C 458.29 488.17 458.26 473.22 458.31 458.26 C 443.03 458.30 427.75 458.29 412.47 458.27 C 412.46 443.16 412.45 428.06 412.48 412.96 C 427.75 412.87 443.03 412.90 458.31 412.94 C 458.24 398.00 458.31 383.06 458.28 368.12 Z" />
<path fill="#f5e5c1" opacity="1.00" d=" M 131.53 369.03 C 136.09 371.43 137.31 376.82 140.63 380.41 C 143.28 383.45 144.57 387.73 148.29 389.75 C 153.70 393.27 158.91 397.10 164.30 400.66 C 171.34 400.77 178.39 399.41 185.46 399.21 C 185.44 401.09 186.08 403.20 184.93 404.89 C 181.95 409.98 178.88 415.04 175.90 420.14 C 167.29 423.17 158.75 426.39 150.07 429.21 C 146.84 428.16 142.93 428.20 140.52 425.50 C 137.17 422.43 134.46 418.56 130.43 416.30 C 129.76 409.86 132.21 403.60 132.92 397.25 C 133.51 391.58 135.62 386.28 136.69 380.73 C 135.96 380.75 134.51 380.79 133.78 380.81 C 133.04 376.88 132.13 372.98 131.53 369.03 Z" />
<path fill="#f5e5c1" opacity="1.00" d=" M 23.19 386.27 C 24.54 381.40 25.30 376.33 27.51 371.74 C 29.09 371.74 30.66 371.74 32.24 371.73 C 30.44 375.78 28.21 379.65 26.86 383.89 C 26.06 387.90 25.92 392.02 25.08 396.03 C 24.69 396.14 23.90 396.35 23.50 396.46 C 22.99 393.11 21.96 389.58 23.19 386.27 Z" />
<path fill="#f5e5c1" opacity="1.00" d=" M 37.84 374.87 C 41.62 372.82 45.31 375.89 48.67 377.34 C 51.54 378.95 55.46 379.73 56.82 383.09 C 60.17 392.45 61.29 403.14 57.37 412.49 C 54.58 418.01 48.79 420.56 44.71 424.85 C 45.95 425.14 47.19 425.43 48.44 425.71 C 47.21 430.14 45.62 434.48 44.69 438.98 C 45.13 443.62 48.75 448.08 47.17 452.83 C 44.55 456.44 40.72 458.91 37.31 461.71 C 35.67 459.59 33.70 457.61 32.88 455.01 C 31.28 449.79 28.94 444.63 29.29 439.04 C 28.34 427.74 28.93 416.34 27.59 405.09 C 28.45 398.04 29.63 390.99 31.02 384.03 C 32.71 380.67 34.60 376.97 37.84 374.87 Z" />
<path fill="#f5e5c1" opacity="1.00" d=" M 22.32 424.99 C 23.19 422.39 24.93 420.20 26.30 417.85 C 26.49 426.55 26.72 435.25 27.39 443.93 C 28.11 448.08 29.69 452.03 30.90 456.06 C 31.79 459.00 34.42 460.91 35.74 463.61 C 34.45 464.77 32.50 464.16 30.92 464.44 C 29.31 462.99 27.32 461.84 26.15 459.98 C 22.02 448.80 22.16 436.73 22.32 424.99 Z" />
<path fill="#f5722c" opacity="1.00" d=" M 277.28 458.26 C 291.93 458.30 306.59 458.31 321.24 458.25 C 321.35 473.21 321.26 488.18 321.29 503.14 C 308.65 503.02 296.00 503.39 283.36 502.95 C 286.06 501.34 289.13 500.46 291.80 498.81 C 293.61 497.19 294.95 495.07 295.93 492.86 C 297.23 490.21 295.97 487.34 295.40 484.68 C 294.83 482.94 294.62 480.96 293.39 479.54 C 292.19 478.72 290.80 478.26 289.48 477.69 C 287.99 476.19 286.69 474.33 284.68 473.50 C 282.29 472.70 279.72 472.89 277.24 472.82 C 277.26 467.96 277.24 463.11 277.28 458.26 Z" />
<path fill="#f5722c" opacity="1.00" d=" M 366.63 458.26 C 381.90 458.29 397.17 458.31 412.43 458.25 C 412.48 473.22 412.45 488.18 412.45 503.15 C 397.18 503.13 381.91 503.15 366.65 503.14 C 366.63 488.18 366.66 473.22 366.63 458.26 Z" />
<path fill="#f5e5c1" opacity="1.00" d=" M 205.26 460.90 C 213.68 460.52 222.12 460.33 230.44 461.91 C 230.54 463.56 229.40 465.77 231.07 466.95 C 233.97 469.42 237.04 471.68 240.02 474.06 C 242.80 476.38 246.61 476.33 249.97 477.16 C 256.35 478.23 262.59 480.14 269.03 480.77 C 273.29 480.00 277.55 478.29 281.95 479.07 C 283.26 479.73 284.11 481.01 285.15 482.03 C 283.67 484.91 282.01 487.70 280.26 490.42 C 272.49 492.85 264.69 495.24 256.84 497.41 C 253.87 496.37 251.00 495.01 247.93 494.31 C 246.10 494.78 244.63 496.04 243.06 497.01 C 236.89 501.67 228.60 500.01 221.68 502.68 C 221.71 504.03 221.73 505.38 221.75 506.75 C 215.83 507.05 209.88 507.49 203.96 507.04 C 202.77 505.19 203.51 502.44 203.18 500.25 C 209.11 501.28 215.12 501.45 221.13 501.64 C 220.64 500.78 219.93 500.27 218.99 500.09 C 214.03 498.96 209.08 497.59 204.36 495.68 C 203.25 492.58 202.54 489.31 202.26 486.04 C 202.78 480.61 204.90 475.46 205.43 470.03 C 205.42 466.98 205.19 463.94 205.26 460.90 Z" />
<path fill="#f5e5c1" opacity="1.00" d=" M 282.50 493.40 C 285.04 490.77 286.16 487.06 288.90 484.57 C 289.46 486.53 290.55 488.46 290.52 490.54 C 289.00 494.54 284.62 495.55 281.13 497.17 C 276.79 498.94 272.73 501.68 267.96 502.14 C 262.98 502.68 258.05 503.87 253.02 503.87 C 250.16 503.11 247.57 501.59 244.84 500.49 C 245.37 498.74 246.53 497.34 247.74 496.02 C 251.27 497.51 254.56 499.58 258.21 500.80 C 261.06 500.51 263.72 499.35 266.46 498.56 C 271.77 496.75 277.38 495.75 282.50 493.40 Z" />
</svg>
