<?xml version="1.0" encoding="UTF-8" standalone="no"?>
<svg
   xmlns:dc="http://purl.org/dc/elements/1.1/"
   xmlns:cc="http://creativecommons.org/ns#"
   xmlns:rdf="http://www.w3.org/1999/02/22-rdf-syntax-ns#"
   xmlns:svg="http://www.w3.org/2000/svg"
   xmlns="http://www.w3.org/2000/svg"
   xmlns:sodipodi="http://sodipodi.sourceforge.net/DTD/sodipodi-0.dtd"
   xmlns:inkscape="http://www.inkscape.org/namespaces/inkscape"
   width="1280"
   height="1280"
   viewBox="0 0 1024 1024"
   version="1.1"
   id="svg2"
   inkscape:version="0.48.1 "
   sodipodi:docname="dispenser_heal_grind.svg">
  <metadata
     id="metadata70">
    <rdf:RDF>
      <cc:Work
         rdf:about="">
        <dc:format>image/svg+xml</dc:format>
        <dc:type
           rdf:resource="http://purl.org/dc/dcmitype/StillImage" />
      </cc:Work>
    </rdf:RDF>
  </metadata>
  <defs
     id="defs68" />
  <sodipodi:namedview
     pagecolor="#ffffff"
     bordercolor="#666666"
     borderopacity="1"
     objecttolerance="10"
     gridtolerance="10"
     guidetolerance="10"
     inkscape:pageopacity="0"
     inkscape:pageshadow="2"
     inkscape:window-width="1920"
     inkscape:window-height="1018"
     id="namedview66"
     showgrid="false"
     fit-margin-top="0"
     fit-margin-left="0"
     fit-margin-right="0"
     fit-margin-bottom="0"
     inkscape:zoom="0.6609375"
     inkscape:cx="640"
     inkscape:cy="640"
     inkscape:window-x="-8"
     inkscape:window-y="-8"
     inkscape:window-maximized="1"
     inkscape:current-layer="svg2" />
  <path
     d="m 0,0 1024,0 0,1024 L 0,1024 0,0 z"
     id="path4"
     style="fill:#3e3e3e"
     inkscape:connector-curvature="0" />
  <path
     d="m 240.1,19.72 c 56.62,4.22 113.24,9.16 169.84,13.58 9.32,0.6 18.66,1.54 27.92,2.64 6.82,1.88 5.64,9.9 5.72,15.34 -66.54,-4.12 -132.94,-9.96 -199.46,-14.42 -5.88,-1.12 -11.06,1.7 -16.4,3.52 -38.74,6.74 -77.5,13.5 -116.22,20.36 -0.94,-0.66 -2.82,-2 -3.76,-2.66 -0.8,-5.86 -3.38,-15.36 4.88,-16.92 42.42,-7.54 85,-14.32 127.48,-21.44 z"
     id="path6"
     inkscape:connector-curvature="0"
     style="fill:#f5e5c1" />
  <path
     d="m 772.62,47.04 c 70.9,140.64 141.54,281.44 212.28,422.18 1.36,2.5 2.96,4.86 4.58,7.2 0.1,5.16 0.5,10.34 -0.16,15.48 -15.26,31.62 -28.96,64.02 -43.56,95.98 -58.5,129.92 -116.52,260.08 -175.28,389.88 0,-105.92 0.58,-211.84 0.6,-317.76 0.12,-122.68 0.18,-245.38 1.24,-368.04 0.14,-81.64 0.12,-163.28 0.3,-244.92 z"
     id="path8"
     inkscape:connector-curvature="0"
     style="fill:#f5722c" />
  <path
     d="m 246.22,48.84 c 31.32,0.7 62.48,4.64 93.76,6.52 28.72,2.28 57.44,4.62 86.2,6.66 4.68,0.08 10.9,2.28 11.02,7.84 1.04,20.08 1.58,40.18 1.34,60.3 -0.02,2.88 -1.32,5.5 -2.12,8.2 -16.04,2.04 -32.26,0.58 -48.34,1.9 -29.34,0.22 -58.68,0.68 -88,1.26 -15.66,-0.08 -31.42,2.28 -47,-0.14 -2.14,-30.86 -5.32,-61.62 -6.86,-92.54 z"
     id="path10"
     inkscape:connector-curvature="0"
     style="fill:#f5e5c1" />
  <path
     d="m 125.12,71.28 c 35.28,-6.32 70.6,-12.44 105.9,-18.68 1.96,30.14 3.82,60.28 5.92,90.42 -34.56,4.28 -69.36,6.48 -103.98,10.32 -3.16,-27.28 -5.42,-54.7 -7.84,-82.06 z"
     id="path12"
     inkscape:connector-curvature="0"
     style="fill:#f5e5c1" />
  <path
     style="fill:#f5e5c1"
     d="M 624.09375 188.15625 C 602.76722 188.15786 581.40625 189.175 560.09375 189.3125 C 510.11875 191.7375 460.0375 190.2125 410.0625 192.5625 C 381.2875 194.1875 352.35625 192.15 323.65625 194.5 C 318.25625 198.125 313.6375 202.85 308.5625 206.875 C 316.3875 320.475 324.4625 433.9875 332.3125 547.5625 C 334.8875 565.1125 332.70625 583.2125 336.40625 600.5625 C 341.85625 606.4875 350.6875 605.7875 357.9375 607.5625 C 366.0875 609.5375 373.88125 605.58125 381.53125 603.40625 C 454.68125 580.28125 527.9 557.2875 601.125 534.3125 C 611.225 530.9625 621.9625 528.9125 631.0625 523.0625 C 632.8375 509.5625 631.2 495.95625 631.25 482.40625 C 631.05 436.55625 630.75625 390.69375 630.90625 344.84375 C 631.10625 340.89375 630.5625 336.5625 632.8125 333.0625 C 638.9875 322.6375 646.23125 312.90625 652.65625 302.65625 C 654.65625 299.65625 654.3875 295.93125 654.8125 292.53125 C 656.6625 266.73125 656.21875 240.81875 656.84375 214.96875 C 656.79375 206.21875 658.60625 196.5625 653.15625 188.9375 C 643.47656 188.34375 633.78763 188.15552 624.09375 188.15625 z M 600.28125 211.625 C 606.98125 211.55312 613.58125 212.1875 619.65625 215.1875 C 631.10625 221.6375 631.1625 236 630.5625 247.5 C 629.7375 258.2 631.38125 270.35625 624.78125 279.53125 C 619.05625 287.38125 608.6875 288.35 599.8125 289.25 C 548.1875 293.825 496.5125 298.10625 444.9375 302.90625 C 435.8125 303.30625 425.9 299 422.125 290.25 C 417.275 279.875 420.8375 268.41875 421.3125 257.59375 C 422.3125 246.26875 420.50625 233.06875 429.03125 224.09375 C 436.35625 216.36875 447.725 216.8875 457.5 216.9375 C 478.4 217.2375 499.25 215.6625 520.125 214.5625 C 540.175 214.5375 560.25 213.9125 580.25 212.3125 C 586.775 212.5 593.58125 211.69688 600.28125 211.625 z M 615.3125 303.78125 C 619.36088 303.75157 623.28437 305.18438 627.0625 306.6875 C 627.9125 320.4375 612.10625 328.3625 612.28125 342.3125 C 613.45625 399.0375 613.8375 455.8125 613.5625 512.5625 C 534.4125 534.6375 455.58125 557.95 376.40625 579.875 C 372.20625 567.9 376.11875 555.40625 375.71875 543.15625 C 376.51875 507.90625 376.43125 472.63125 377.03125 437.40625 C 379.43125 414.15625 377.525 390.65625 379.625 367.40625 C 383.025 356.85625 384.24375 343.3875 394.96875 337.4375 C 400.26875 333.9625 405.825 330.35625 412.25 329.53125 C 479 320.98125 545.8 312.9375 612.5 304.0625 C 613.44687 303.88437 614.37826 303.7881 615.3125 303.78125 z "
     transform="scale(0.8,0.8)"
     id="path14" />
  <path
     d="m 112.8,167.8 c 41.38,-3.56 82.68,-8.14 124.12,-11.38 -1.16,21.14 1.76,42.16 2.7,63.24 16.8,247.44 32.58,494.96 49.12,742.38 -0.9,13.2 5.88,27.56 -1.5,39.76 0.48,1.98 1.06,3.94 1.7,5.88 -32.68,-8.94 -65.16,-18.66 -97.92,-27.34 11.52,-4.88 19.76,-14.76 26.9,-24.66 4.36,-6.56 4.9,-14.74 8.34,-21.7 4.98,-5.72 12.5,-8.42 17.7,-13.94 4.7,-4.72 2.54,-12.1 2.06,-17.98 -3.24,-13.44 -4.2,-28 -12.42,-39.64 -5.78,-9.9 -15.18,-17.14 -25.68,-21.44 -6.34,3.26 -11.42,8.34 -16.5,13.22 -1.2,-14.06 -4.4,-28.44 -2.08,-42.48 6.18,-5.8 15.78,-6.42 21.7,-12.8 5.8,-6.36 13.54,-11.12 17.88,-18.68 1.42,-8.02 -0.42,-16.2 -0.72,-24.26 -3.36,-35.88 -5.9,-71.88 -10.66,-107.62 10.56,-0.76 22.14,3.58 31.94,-1.64 -0.26,-37.02 -5.22,-73.78 -6.86,-110.72 -1.04,-8.7 -1.68,-17.42 -1.98,-26.16 -0.06,-4.44 -3.92,-8.86 -8.52,-8.74 -9.6,-0.48 -19.22,-0.34 -28.82,-0.62 -3.78,-13.22 -7.86,-30.34 -22.88,-34.74 -7.64,-1.34 -15.48,-1.18 -23,-3.28 -4.78,-20.02 -7.42,-40.48 -12.12,-60.52 -0.98,-4.64 -2.28,-9.3 -2.24,-14.06 2.88,-3.62 8.08,-3.24 11.9,-5.34 6.26,-3.26 12.86,-6.74 16.94,-12.74 5.34,-7.78 11.44,-15.32 14.56,-24.36 6.72,-18.14 12.88,-37.56 9.66,-57.1 -1.6,-8.9 -2.98,-17.92 -6.18,-26.4 -5.88,-13.28 -11.76,-27.22 -22.84,-37.12 -14.28,-11.78 -32.92,-20.14 -51.74,-17.06 -15.76,2.5 -31.98,-0.14 -47.56,3.58 -7.1,2.14 -14.28,4.1 -21.18,6.86 0.1,-12.88 0.38,-25.74 0.78,-38.62 4.16,-2.78 8.6,-5.6 13.78,-5.8 17.26,-1.54 34.48,-3.36 51.62,-5.98 z"
     id="path16"
     inkscape:connector-curvature="0"
     style="fill:#f5e5c1" />
  <path
     d="m 428.88,179.32 c 17,-0.84 34,-1.86 51.04,-2.12 7.84,-0.54 16.12,4.76 17.6,12.74 1.58,7.82 1.24,16.18 -1.36,23.74 -2.58,6.72 -9.66,10.02 -16.44,10.66 -35.9,3.54 -71.84,6.74 -107.74,10.26 -6.92,0.68 -14.96,0.98 -20.08,-4.64 -6.18,-5.54 -5.58,-14.42 -5.58,-21.96 0.32,-6.5 -0.7,-14.26 4.58,-19.16 5.16,-6.06 13.66,-6.52 21.02,-7.12 18.98,-0.6 37.96,-2 56.96,-2.4 z"
     id="path20"
     inkscape:connector-curvature="0"
     style="fill:#f5e5c1" />
  <path
     style="fill:#f5e5c1"
     d="M 156.53125 275.5625 C 156.00163 275.57011 155.46953 275.59844 154.9375 275.625 C 139.7125 276.2 124.4375 275.95 109.3125 278 C 100.2875 278.825 90.33125 276.98125 82.53125 282.78125 C 70.08125 288.45625 64.93125 301.6875 56.78125 311.6875 C 46.75625 323.7625 41.725 338.9 34.5 352.625 C 30.5 379.05 33.25625 407.4125 47.53125 430.5625 C 56.58125 445.4625 68.85625 462.20625 87.78125 463.65625 C 106.85625 464.63125 125.9875 463.78125 145.0625 464.65625 C 157.4125 465.75625 169.7875 466.225 182.1875 465.875 C 191.4875 462.475 200.5125 456.76875 205.5625 447.96875 C 220.3125 429.06875 225.94375 405.06875 230.34375 381.96875 C 230.51875 350.69375 221.0875 318.4875 200.1875 294.6875 C 188.15078 284.10391 172.94948 275.32649 156.53125 275.5625 z M 152.0625 290.28125 C 160.17124 290.24479 168.28281 292.79219 174.625 298 C 197.425 316.275 207.1 346.4875 206.625 374.9375 C 206.125 393.0625 203.44375 412.20625 192.34375 427.15625 C 185.66875 438.10625 178.54375 451.21875 164.71875 453.84375 C 148.01875 457.79375 132.875 446.9375 121.375 436.1875 C 105.4 414.5125 99.9375 386.49375 100.6875 359.96875 C 100.5375 354.36875 102.075 348.9875 104 343.8125 C 106.975 335.6625 106.33125 326.16875 111.90625 319.09375 C 120.18125 308.71875 127.8375 296.2375 141.1875 291.9375 C 144.71094 290.85938 148.37671 290.29782 152.0625 290.28125 z "
     transform="scale(0.8,0.8)"
     id="path22" />
  <path
     d="m 690.42,220.36 c 22.94,0.08 45.86,0 68.78,0.02 -0.02,197.66 -0.02,395.32 0.02,592.98 -22.94,0.02 -45.86,-0.06 -68.78,0.06 -0.1,-197.7 -0.06,-395.38 -0.02,-593.06 z"
     id="path24"
     inkscape:connector-curvature="0"
     style="fill:#f5722c" />
  <path
     d="m 456.68,259.76 c -0.34,-5.78 6,-5.18 9.9,-4.78 0.94,2.88 2.14,5.76 2.08,8.86 0.22,13.4 0.36,26.82 1.6,40.18 0.7,16.64 0.2,33.32 1.38,49.94 1.52,15.96 0.74,32.02 1.46,48.04 0.5,3.38 -1.26,6.34 -2.68,9.24 -3.48,-0.28 -7.84,-0.32 -8.76,-4.5 -2.66,-32.9 -1.8,-65.98 -4.18,-98.92 0.18,-16.02 -1,-32.04 -0.8,-48.06 z"
     id="path30"
     inkscape:connector-curvature="0"
     style="fill:#f5e5c1" />
  <path
     d="m 58.64,380.3 c 6.62,3.02 13.6,5.08 20.68,6.72 0.56,25.36 0.98,50.68 0.08,76.04 -4.22,3.76 -8.76,7.24 -14.16,9.12 -1.76,-30.66 -4.64,-61.24 -6.6,-91.88 z"
     id="path32"
     inkscape:connector-curvature="0"
     style="fill:#f5e5c1" />
  <path
     d="m 92.82,388.66 c 11.48,0.48 22.98,-0.6 34.44,0.36 5.52,25.02 8.62,50.76 14.04,75.9 -14.24,7.06 -31.06,7.46 -46.32,3.88 1.42,-13.6 -0.9,-27.22 -0.48,-40.84 0.7,-13.16 -1.86,-26.16 -1.68,-39.3 z"
     id="path34"
     inkscape:connector-curvature="0"
     style="fill:#f5e5c1" />
  <path
     d="m 301.18,492.64 c 69.72,-21.88 139.38,-43.96 209.18,-65.58 1.82,3.6 3.06,7.46 3.58,11.48 -70.58,23.58 -140.96,47.72 -211.48,71.44 -10.18,2.98 -20.88,0.06 -31.28,0.42 -0.56,-6 -1.28,-11.98 -2.06,-17.94 10.68,-0.58 21.5,2.54 32.06,0.18 z"
     id="path36"
     inkscape:connector-curvature="0"
     style="fill:#f5e5c1" />
  <path
     d="m 524.28,447.1 c 25.22,-2.8 50.58,-3.56 75.82,-5.92 6.76,-1.02 12.26,4.66 13.42,10.92 4.2,16.02 9.92,31.72 12.96,48 -1.74,28.12 -4.66,56.16 -5.94,84.34 13.86,2.02 27.74,4.16 41.54,6.64 5.32,0.56 10.2,5.24 9.52,10.84 -0.52,7.54 -2.06,15.08 -4.86,22.14 -51.44,25.08 -102.2,51.6 -153.4,77.18 -6.98,3.56 -13.38,8.28 -20.78,11.08 -15.76,6.16 -29.98,15.7 -45.8,21.72 -0.94,-14 0.58,-27.96 1.72,-41.88 0.06,-11.44 1.28,-22.8 2.22,-34.18 17.92,4.1 35.36,9.98 53.1,14.74 14.94,3.44 28.26,-6.18 41.16,-12.12 34.62,-17.38 69.3,-34.66 103.94,-52.02 4.04,-1.86 7.64,-4.58 10.2,-8.26 -0.6,-1.34 -1.78,-4.02 -2.38,-5.36 -11.98,-3.5 -24.6,-3.72 -36.88,-5.62 -8.72,-0.58 -17.74,-3.94 -26.32,-0.92 -47.44,18.42 -94.94,36.72 -142.4,55.12 1.96,-13.74 1.16,-27.66 2.98,-41.4 1,-14.14 0.54,-28.5 3.62,-42.4 1.44,-5.24 6.84,-7.38 11.46,-9.02 41.22,-14.76 82.46,-29.52 123.64,-44.42 -0.2,14.7 2.5,29.22 3,43.9 1.56,10.2 0.46,20.76 3.88,30.66 3,0.58 6.06,0.72 9.14,0.56 3.56,-7.94 3,-16.84 4.26,-25.26 2.6,-17.98 4.6,-36.04 7.32,-54 0.68,-3.32 -0.72,-6.5 -1.68,-9.58 -5.8,-0.54 -11.74,-0.24 -17.24,1.9 -47.4,17.02 -94.78,34.04 -142.18,51 -3.3,1.2 -6.42,2.74 -9.52,4.36 -8.9,15.64 -5.28,33.98 -7.88,50.98 -1.94,37.7 -4.86,75.32 -6.9,113.02 -2.94,-5.78 -5.38,-12.06 -9.9,-16.82 -2.7,-3.12 -6.92,-1.44 -10.08,-0.14 -31.3,14.32 -62.54,28.84 -93.92,43.02 -3.62,-42.58 -6.42,-85.26 -8.38,-127.94 -1.2,-9.7 -1.96,-19.46 -1.68,-29.24 12.76,-2.96 26,-1.28 38.9,-3.04 10.66,-1.28 21.42,-0.64 32.08,-1.82 14.76,-1.72 29.72,-0.68 44.4,-3.22 8.32,-4.58 3.1,-15.92 2.6,-23.32 38.58,-15.88 78.26,-29.14 116.46,-45.86 18.88,-6.42 37.7,-13.08 56.54,-19.62 4.02,-1.12 6.82,-4.26 9.46,-7.3 -1,-7.72 -2.48,-15.48 -5.22,-22.8 -0.96,-3.66 -5.26,-3.9 -8.32,-3.2 -5.28,1.08 -10.24,3.28 -15.3,5.1 -53.58,19.12 -107.1,38.4 -160.68,57.5 -4.02,1.64 -10.26,3.38 -9.3,8.96 0.36,13.28 5.2,25.88 6.18,39.1 -12.4,1.58 -24.9,2.16 -37.4,2.44 -11.18,1.32 -22.4,1.64 -33.64,2.04 -12.34,1.32 -24.74,1.82 -37.14,1.96 -1.1,-16.2 -2.56,-32.38 -2.34,-48.62 71.66,-25.5 144.28,-48.44 215.94,-73.92 z"
     id="path38"
     inkscape:connector-curvature="0"
     style="fill:#f5e5c1" />
  <path
     d="m 151.12,472.32 c 10.18,1.4 22.12,1.12 30.2,8.36 6.98,9.12 9.8,20.86 9.94,32.24 1.24,1.48 2.5,3 3.78,4.5 7.68,78.1 14.06,156.34 21.52,234.46 0.44,6.78 1.18,13.58 0.48,20.38 -5.56,3.2 -9.26,8.54 -14.12,12.58 -6.86,4.12 -14.62,6.48 -21.36,10.84 -7.62,4.74 -16.22,7.9 -25.28,7.76 -13.46,2.06 -26.96,0.28 -40.4,-0.74 C 101.44,802.46 90.1,792.38 77.78,786.22 72.54,714.12 65.74,642.14 59.8,570.1 c -1,-20 -5.32,-40.02 -2.54,-60.08 2.36,-14.2 12.02,-26.34 24.3,-33.48 14.64,10.56 34.06,7.98 50.92,5.92 6.7,-2.14 14.62,-3.76 18.64,-10.14 z"
     id="path40"
     inkscape:connector-curvature="0"
     style="fill:#f5e5c1" />
  <path
     d="m 204.76,512.9 c 7.52,0.1 15.04,0.22 22.54,0.06 2.02,6.14 1.54,12.68 2,19.06 2.76,24.96 4.16,50.06 6.7,75.06 1.34,9.88 0.88,19.86 0.98,29.82 -6.68,-1.16 -13.44,-1.82 -20.22,-1.8 -2.9,-29.58 -6.32,-59.1 -8.38,-88.72 -2.54,-10.98 -2.3,-22.34 -3.62,-33.48 z"
     id="path42"
     inkscape:connector-curvature="0"
     style="fill:#f5e5c1" />
  <path
     d="m 270.98,522.46 c 7.84,0.06 15.66,0.22 23.5,0.38 6.84,8.68 3.14,20.22 4.68,30.34 2.06,15.52 1.02,31.24 3.04,46.78 1.98,44.72 5.26,89.36 7.26,134.1 0.22,3.98 -0.3,7.98 -0.8,11.94 -7.98,3.14 -15.58,7.18 -23.6,10.2 -0.24,-6.74 -0.2,-13.5 -1.06,-20.2 -1.68,-11.88 -0.5,-23.96 -2.2,-35.84 -1.32,-10.06 -0.5,-20.22 -1.62,-30.28 -1.92,-13.16 -0.56,-26.56 -3.04,-39.66 -1.32,-19.34 -1.84,-38.76 -2.64,-58.12 -2.14,-16.48 -1.24,-33.16 -3.52,-49.64 z"
     id="path44"
     inkscape:connector-curvature="0"
     style="fill:#f5e5c1" />
  <path
     d="m 634.04,650.22 c 9.62,-4.46 18.82,-11.5 30.08,-9.74 -1,4.76 -1.5,10.58 -6.48,13.02 -68.96,39.08 -138.82,76.6 -209.32,112.8 -45.02,16.54 -90.2,32.76 -135.2,49.36 -7.22,-15.96 -13.16,-32.46 -20.32,-48.44 34.06,-16.24 68.54,-31.58 102.78,-47.44 7.5,-3.06 14.46,-7.54 22.34,-9.62 8.72,10.22 13.06,23.92 21.14,34.8 1.98,2 4.6,-0.14 6.62,-0.86 62.74,-31.36 125.58,-62.58 188.36,-93.88 z"
     id="path46"
     inkscape:connector-curvature="0"
     style="fill:#f5e5c1" />
  <path
     d="m 560.06,717.94 c 2.54,-3.88 8.12,-4.18 11.76,-1.7 9.14,5.24 16.5,12.9 24.64,19.48 4.28,3.54 9.26,8.36 8.1,14.52 -2.08,6.14 -6.12,11.3 -9.44,16.78 -18.38,28.34 -35.86,57.3 -54.74,85.3 -66.46,46.94 -133.6,93.2 -200.46,139.7 -1.62,1.48 -4.32,2.02 -5.88,0.1 -11.92,-10.86 -24.02,-21.56 -35.66,-32.7 -2.76,-2.16 0.14,-5.66 1.06,-8 21.86,-37.56 43.78,-75.08 65.64,-112.64 1.46,-1.82 2.88,-6.04 5.68,-3.52 10.58,6.74 21,13.78 31.56,20.56 4.32,2.86 10.16,1.7 14.18,-1.18 58.28,-37.2 117.16,-73.46 175.22,-110.98 -3.38,-2.32 -6.76,-4.64 -10.1,-6.96 -11.9,8.9 -25.48,15.12 -38.14,22.82 -3.02,2.2 -6.78,1.4 -10.2,1.22 -0.5,-3.56 -2.26,-7.82 0.74,-10.76 8.66,-10.68 17.26,-21.44 26.04,-32.04 z"
     id="path48"
     inkscape:connector-curvature="0"
     style="fill:#f5e5c1" />
  <path
     d="m 483.6,759.28 c 12.94,-5.56 24.62,-14.78 38.86,-16.74 0.72,9.6 0.74,19.5 4.46,28.56 -5.82,5.72 -12.98,9.76 -19.56,14.54 -13.54,9.62 -26.96,19.42 -40.52,29 -0.82,-0.06 -2.46,-0.2 -3.26,-0.26 -1.5,-14.52 1,-28.96 1.9,-43.4 3.72,-6.54 12.02,-8.08 18.12,-11.7 z"
     id="path50"
     inkscape:connector-curvature="0"
     style="fill:#f5e5c1" />
  <path
     d="m 289.16,828.06 c 0.44,-14.26 -2.44,-28.34 -1.88,-42.58 3.58,11.18 8.66,21.8 12.88,32.74 1.68,3.78 3.02,8.26 6.8,10.52 5.6,1.52 10.98,-1.6 16.32,-2.9 -1.52,21.98 -2.84,43.96 -4.06,65.94 -7.32,14.28 -16.44,27.64 -23.86,41.92 -0.02,-18.62 -2.66,-37.08 -2.72,-55.68 -2.14,-16.6 -1.38,-33.38 -3.48,-49.96 z"
     id="path52"
     inkscape:connector-curvature="0"
     style="fill:#f5e5c1" />
  <path
     d="m 93.2,817.42 c 7.42,-2.02 14.46,2.12 21.4,4.14 1.1,3.38 2.12,6.82 2,10.4 -0.02,16.7 3.26,33.28 2.56,49.96 -2.28,7.18 -5.28,14.12 -8.06,21.12 -0.9,3.44 -5.22,2.22 -7.74,2.92 -1.4,-29.7 -9.2,-58.86 -10.16,-88.54 z"
     id="path54"
     inkscape:connector-curvature="0"
     style="fill:#f5e5c1" />
  <path
     d="m 128.28,818.84 c 15.32,0.92 30.94,2.12 45.9,-2.3 2.62,15.84 4.88,31.84 4.98,47.92 -11.64,10.76 -27.68,19.38 -43.86,14.34 -2.08,-20.02 -5.68,-39.88 -7.02,-59.96 z"
     id="path56"
     inkscape:connector-curvature="0"
     style="fill:#f5e5c1" />
  <path
     d="m 199.38,870.42 c 4.2,-4.18 8.9,-7.82 13.6,-11.4 9.82,7.72 15.02,19.46 17.66,31.4 0.8,6.94 0.36,13.94 0.66,20.92 -2.8,1.68 -5.62,3.34 -8.46,4.92 1.58,-13.56 -2.32,-27.64 -10.78,-38.34 -3.04,-4.18 -8.04,-5.82 -12.68,-7.5 z"
     id="path58"
     inkscape:connector-curvature="0"
     style="fill:#f5e5c1" />
  <path
     style="fill:#f5e5c1"
     d="M 235.125 1100.4375 C 229.71162 1100.6275 225.71875 1105.7719 221.34375 1108.5938 C 212.59375 1115.9688 200.9625 1117.9125 190.1875 1120.5625 C 179.7625 1123.0625 169.48125 1119.0125 159.15625 1117.9375 C 154.90625 1127.8875 149.63125 1137.475 146.78125 1148 C 143.30625 1163.7 144.7625 1180.2125 149.3125 1195.5625 C 150.9125 1200.6125 156.54375 1201.825 160.96875 1203.375 C 172.41875 1206.575 183.8125 1210.2875 195.5625 1212.3125 C 204.5125 1212.3625 213.4875 1211.2875 222.3125 1209.8125 C 237.7625 1207.4375 249.5375 1195.4062 257.4375 1182.6562 C 265.4375 1162.7563 266.35 1139.6063 258 1119.6562 C 254.15 1111.0563 247.48125 1102.1625 237.53125 1100.6875 C 236.69375 1100.4906 235.89834 1100.4104 235.125 1100.4375 z M 227.125 1121.1562 C 232.15918 1121.1052 237.25 1123.1719 240.53125 1127.0625 C 248.08125 1134.2375 247.75 1145.4 248.625 1155 C 249.525 1164.675 247.6125 1174.5812 242.9375 1183.1562 C 238.1625 1192.5062 222.84375 1194.7625 216.46875 1185.9375 C 208.91875 1173.7375 206.6 1158.8813 208.5 1144.7812 C 209.5 1137.0312 211.30625 1128 218.53125 1123.625 C 221.1 1121.975 224.10449 1121.1869 227.125 1121.1562 z "
     transform="scale(0.8,0.8)"
     id="path60" />
  <path
     d="m 298.66,975.86 c 10.1,9.4 20.24,18.8 30.54,28 -4.82,3.84 -9.6,7.78 -15.02,10.82 -3.56,-0.96 -7.12,-1.86 -10.7,-2.72 -5.08,-11.38 -4.82,-23.9 -4.82,-36.1 z"
     id="path64"
     inkscape:connector-curvature="0"
     style="fill:#f5e5c1" />
</svg>
