<?xml version="1.0" encoding="UTF-8" ?>
<!DOCTYPE svg PUBLIC "-//W3C//DTD SVG 1.1//EN" "http://www.w3.org/Graphics/SVG/1.1/DTD/svg11.dtd">
<svg width="512pt" height="512pt" viewBox="0 0 512 512" version="1.1" xmlns="http://www.w3.org/2000/svg">
<path fill="#3e3e3e" opacity="1.00" d=" M 0.00 0.00 L 512.00 0.00 L 512.00 512.00 L 0.00 512.00 L 0.00 0.00 Z" />
<path fill="#f5722c" opacity="1.00" d=" M 13.05 10.05 C 34.36 9.91 55.68 10.00 76.97 9.04 C 130.97 8.95 184.98 9.03 238.98 8.99 C 244.99 8.90 250.95 9.75 256.95 9.88 C 272.31 10.21 287.68 9.77 303.04 10.13 C 322.67 11.78 342.39 10.53 362.06 11.17 C 384.50 13.12 407.08 10.88 429.52 12.79 C 445.70 13.29 461.89 12.74 478.08 13.13 C 486.86 13.91 495.67 14.04 504.49 14.02 C 488.46 111.62 472.60 209.25 456.66 306.86 C 446.12 371.50 435.47 436.13 425.06 500.80 C 414.71 500.83 404.35 500.51 394.01 499.98 C 375.37 500.07 356.72 499.91 338.09 499.36 C 330.39 498.66 322.65 499.13 314.94 498.98 C 298.29 498.97 281.65 498.75 265.00 498.60 C 259.30 498.94 253.66 497.82 247.97 497.94 C 237.65 497.99 227.33 497.72 217.01 497.49 C 197.02 496.45 176.97 497.46 156.96 496.52 C 134.86 495.54 112.72 496.34 90.61 495.42 C 85.32 464.28 80.64 433.04 75.56 401.87 C 60.56 308.24 45.65 214.60 30.64 120.98 C 24.81 84.00 18.69 47.06 13.05 10.05 Z" />
<path fill="#3e3e3e" opacity="1.00" d=" M 233.01 26.62 C 256.31 24.82 279.76 26.90 303.04 24.95 C 317.69 24.94 332.33 24.87 346.98 24.83 C 351.12 24.86 355.49 25.58 358.91 28.07 C 365.15 33.12 369.01 40.33 372.60 47.35 C 374.44 51.85 377.72 55.74 378.62 60.61 C 379.34 64.76 378.95 69.00 379.03 73.19 C 385.07 70.40 391.45 68.34 398.00 67.18 C 409.18 65.57 420.30 69.11 430.33 73.78 C 440.89 80.14 449.72 90.04 453.16 102.05 C 455.17 109.29 457.04 116.90 455.60 124.43 C 454.08 132.16 452.51 140.23 447.74 146.72 C 444.17 151.46 440.66 156.44 435.57 159.69 C 431.21 163.30 426.00 165.52 420.86 167.74 C 423.34 171.36 425.51 175.58 424.90 180.12 C 424.22 185.41 423.26 190.67 422.61 195.96 C 426.55 198.35 430.45 201.19 432.77 205.28 C 435.51 210.73 436.70 216.94 435.99 223.01 C 435.40 227.66 435.04 232.33 435.15 237.02 C 438.24 240.83 440.94 245.69 439.74 250.77 C 437.07 260.37 435.40 270.23 432.93 279.89 C 432.34 282.06 429.72 283.62 430.35 286.05 C 433.45 298.23 428.52 310.37 426.54 322.31 C 431.54 324.12 435.58 328.52 436.00 333.96 C 436.94 342.63 436.83 351.59 434.49 360.06 C 433.26 365.77 432.45 372.50 427.05 375.94 C 420.65 379.55 412.87 378.22 406.06 376.60 C 402.34 375.93 399.48 373.32 396.29 371.53 C 398.34 376.00 401.65 379.93 402.43 384.92 C 404.26 391.41 402.54 398.16 400.38 404.33 C 398.54 408.86 394.35 411.73 390.42 414.32 C 384.69 418.57 377.57 420.18 370.74 421.69 C 365.69 421.89 360.85 419.95 356.00 418.79 C 352.48 429.15 350.15 439.90 346.07 450.08 C 344.41 453.90 340.70 456.16 337.34 458.32 C 333.13 461.05 327.96 461.44 323.08 461.32 C 306.72 461.18 290.35 461.21 273.99 461.01 C 265.68 460.18 257.32 460.46 248.98 460.36 C 235.66 460.28 222.34 460.20 209.02 460.05 C 195.36 459.13 181.66 459.68 167.99 459.34 C 159.73 458.94 152.16 454.26 146.84 448.12 C 142.41 443.42 141.31 436.83 138.82 431.09 C 136.30 423.20 133.17 415.54 130.09 407.86 C 128.52 404.16 128.78 399.97 130.41 396.34 C 132.86 390.35 134.60 384.10 136.77 378.00 C 134.17 371.07 135.18 363.51 134.73 356.27 C 127.67 356.02 121.40 352.50 114.98 349.98 C 109.56 347.07 103.05 345.86 98.78 341.13 C 93.08 335.00 89.80 326.43 90.87 318.02 C 91.75 310.02 94.71 302.20 94.77 294.14 C 92.13 286.88 92.05 279.08 91.65 271.46 C 86.97 269.10 82.29 266.75 77.62 264.38 C 73.28 262.15 69.10 258.48 68.33 253.41 C 66.95 248.23 69.25 243.17 71.48 238.60 C 73.68 234.37 72.35 229.11 75.10 225.09 C 77.29 221.97 79.60 218.87 82.45 216.32 C 85.63 213.34 90.17 212.88 94.21 211.84 C 91.35 208.49 89.69 204.26 89.19 199.91 C 89.16 197.30 90.62 194.73 89.77 192.14 C 88.21 186.73 85.80 181.55 84.89 175.96 C 84.19 171.88 85.59 167.86 86.74 164.01 C 85.26 159.47 84.12 154.83 83.53 150.09 C 82.53 145.80 81.12 141.36 82.47 136.97 C 83.13 132.73 86.62 129.52 90.65 128.45 C 94.78 121.32 97.78 112.71 105.26 108.35 C 110.75 105.39 116.49 102.91 121.95 99.89 C 120.73 91.28 121.03 82.56 119.63 73.97 C 119.00 67.64 118.45 61.06 120.56 54.93 C 122.48 48.98 122.38 41.78 127.34 37.31 C 130.34 34.31 133.48 31.30 137.30 29.38 C 142.89 27.03 149.07 27.78 154.97 27.61 C 164.00 27.44 173.05 27.85 182.05 26.99 C 199.04 26.74 216.03 26.73 233.01 26.62 Z" />
<path fill="#f4e5c1" opacity="1.00" d=" M 268.98 37.82 C 289.97 37.91 310.96 37.29 331.95 37.17 C 337.94 37.14 343.98 36.36 349.95 37.13 C 355.09 39.20 357.43 44.65 359.84 49.24 C 361.92 53.53 364.63 57.52 366.36 61.97 C 366.75 76.97 366.29 92.00 366.60 107.02 C 368.85 97.60 375.61 89.74 383.72 84.73 C 392.32 79.42 402.97 78.11 412.78 80.10 C 423.68 82.47 433.26 89.82 438.65 99.55 C 443.64 108.76 444.99 119.98 441.78 130.01 C 437.77 144.13 425.08 155.05 410.68 157.53 C 410.24 163.91 407.87 169.95 407.21 176.29 C 409.06 176.71 410.90 177.18 412.73 177.67 C 411.28 183.16 411.30 188.91 410.10 194.45 C 409.52 195.40 408.25 195.65 407.37 196.28 C 407.86 198.59 406.87 201.50 408.72 203.30 C 411.16 204.71 414.07 205.04 416.54 206.40 C 418.67 207.61 420.46 209.31 422.27 210.94 C 425.33 220.38 421.92 230.24 422.66 239.87 C 423.63 243.05 426.11 245.50 428.04 248.13 C 427.67 248.61 426.94 249.56 426.57 250.03 C 424.73 258.83 423.02 267.65 421.45 276.50 C 419.54 277.14 417.60 277.66 415.66 278.13 C 415.57 281.15 415.51 284.16 415.45 287.18 C 416.72 288.06 418.35 288.63 419.11 290.08 C 419.59 292.34 419.57 294.72 419.19 297.00 C 416.76 308.74 414.47 320.52 412.27 332.31 C 416.34 332.91 420.48 333.34 424.39 334.70 C 424.34 341.47 425.12 348.40 423.15 355.00 C 421.94 358.82 422.33 363.42 419.41 366.49 C 415.54 365.14 411.19 366.14 407.46 364.41 C 404.33 362.37 406.34 358.34 406.37 355.41 C 401.53 355.24 396.68 355.23 391.83 355.39 C 391.71 358.90 388.54 360.47 385.81 361.82 C 385.56 367.52 381.71 373.91 385.85 379.03 C 389.55 383.49 391.49 389.29 390.48 395.09 L 389.84 395.81 C 389.45 397.40 389.14 399.03 388.43 400.53 C 383.19 405.56 376.22 408.85 369.00 409.59 C 365.05 408.92 361.17 407.73 357.44 406.27 C 353.88 404.17 351.35 400.77 348.91 397.51 C 346.68 397.44 344.46 397.42 342.24 397.41 C 343.26 400.74 344.14 404.11 344.72 407.56 C 345.27 408.80 345.88 410.16 345.28 411.52 C 341.92 421.97 338.85 432.51 335.51 442.97 C 334.83 446.54 330.80 447.46 328.23 449.35 C 301.49 449.37 274.77 448.27 248.03 448.35 C 239.01 448.19 229.98 448.52 220.98 447.85 C 202.97 447.47 184.94 447.61 166.93 447.28 C 160.62 445.58 154.56 440.76 152.86 434.22 C 149.11 423.75 145.37 413.27 141.29 402.94 C 144.67 394.24 147.31 385.28 150.28 376.44 C 151.30 374.43 149.20 373.18 148.09 371.86 C 148.88 369.84 147.97 367.88 147.44 365.94 C 146.16 357.33 146.81 348.56 145.62 339.95 C 141.17 341.39 136.77 343.60 132.03 343.68 C 126.00 341.67 120.36 338.65 114.45 336.32 C 111.71 334.99 108.22 334.28 106.66 331.39 C 105.22 328.94 103.63 326.51 102.77 323.80 C 102.70 321.20 103.15 318.62 103.49 316.05 C 105.44 307.66 106.51 299.09 108.37 290.67 C 106.81 288.61 104.14 286.87 104.48 283.96 C 104.43 277.25 103.41 270.60 103.35 263.89 C 96.26 260.26 89.17 256.61 82.17 252.82 C 80.55 252.21 79.92 250.52 80.39 248.91 C 81.89 243.23 86.45 238.31 85.39 232.11 C 87.37 228.90 89.72 224.63 93.97 224.42 C 101.08 223.14 106.98 228.29 113.56 229.99 C 114.57 226.80 115.23 223.37 114.50 220.05 C 110.63 213.79 106.10 207.96 102.15 201.75 C 100.42 198.95 103.59 195.94 102.73 192.96 C 101.32 186.79 98.53 181.04 96.87 174.95 C 95.81 170.75 100.71 167.27 99.20 163.08 C 97.98 159.05 96.70 155.04 95.60 150.97 C 98.85 142.06 101.25 132.62 106.73 124.74 C 108.22 122.34 109.61 119.61 112.34 118.41 C 119.71 114.61 127.51 111.66 134.59 107.31 C 133.27 94.57 133.19 81.72 131.56 69.00 C 130.71 61.46 133.83 54.35 134.86 47.00 C 137.70 44.40 140.68 41.97 143.75 39.65 C 160.16 39.65 176.56 39.47 192.97 39.26 C 218.29 38.18 243.66 39.04 268.98 37.82 Z" />
<path fill="#3e3e3e" opacity="1.00" d=" M 278.00 44.32 C 302.61 43.48 327.26 43.66 351.89 43.21 C 353.36 45.99 354.65 48.90 356.59 51.42 L 356.60 51.75 C 352.31 49.81 347.57 50.62 343.02 50.52 C 283.99 50.62 224.96 50.70 165.93 50.88 C 158.33 51.27 150.72 51.00 143.12 51.41 C 145.06 49.72 146.85 47.80 149.05 46.45 C 171.32 45.08 193.65 45.74 215.95 45.29 C 236.61 44.32 257.32 44.76 278.00 44.32 Z" />
<path fill="#3e3e3e" opacity="1.00" d=" M 143.02 58.00 C 145.86 55.08 149.95 53.35 154.02 53.29 C 206.00 53.27 257.99 53.22 309.97 53.18 C 323.00 53.41 336.02 52.42 349.04 52.93 C 351.37 53.09 352.49 55.39 353.90 56.92 C 357.52 61.05 358.81 66.66 359.45 71.96 C 359.44 86.37 359.57 100.78 359.37 115.19 C 353.68 116.64 347.85 117.43 342.08 118.46 C 332.39 118.93 322.67 118.63 312.97 118.84 C 299.33 119.45 285.66 119.25 272.01 119.38 C 249.66 119.48 227.32 119.62 204.98 119.82 C 189.66 120.49 174.31 120.18 158.98 120.35 C 154.66 120.18 150.32 120.70 146.02 120.20 C 143.80 117.24 141.39 113.95 141.33 110.09 C 140.41 99.41 139.80 88.71 139.13 78.02 C 138.68 74.48 138.10 70.77 139.46 67.34 C 140.61 64.22 141.02 60.73 143.02 58.00 Z" />
<path fill="#f4e5c1" opacity="1.00" d=" M 166.84 72.84 C 168.24 70.93 170.89 71.40 172.95 71.22 C 223.63 71.26 274.30 71.22 324.97 71.24 C 330.62 70.86 334.36 75.87 338.55 78.84 C 336.91 87.10 338.30 95.70 336.81 103.91 C 333.47 107.33 330.38 112.72 324.95 112.40 C 273.39 112.26 221.81 112.35 170.25 111.64 C 167.75 111.82 166.44 109.52 165.18 107.76 C 163.87 105.73 162.17 103.61 162.47 101.03 C 162.73 93.96 161.70 86.96 161.25 79.93 C 163.11 77.57 164.82 75.08 166.84 72.84 Z" />
<path fill="#3e3e3e" opacity="1.00" d=" M 171.56 73.60 C 174.36 73.16 177.21 73.42 180.03 73.37 C 227.69 73.38 275.36 73.40 323.02 73.36 C 327.32 72.99 329.94 77.14 333.37 79.03 C 333.29 87.10 332.20 95.13 332.31 103.22 C 330.12 105.35 328.22 107.83 325.70 109.58 C 323.48 109.94 321.22 109.77 318.99 109.79 C 269.89 109.65 220.78 109.72 171.68 109.55 C 169.81 106.49 166.72 103.82 166.54 100.02 C 166.39 93.59 165.31 87.22 165.62 80.77 C 167.72 78.47 169.44 75.86 171.56 73.60 Z" />
<path fill="#f4e5c1" opacity="1.00" d=" M 167.28 84.10 C 170.25 81.53 172.59 77.37 176.93 77.16 C 188.97 76.91 201.01 77.18 213.03 77.89 C 224.09 77.96 235.17 77.99 246.21 78.73 C 255.47 79.06 264.74 78.51 273.98 79.25 C 289.05 80.32 304.24 78.95 319.25 80.90 C 322.19 81.93 324.73 83.91 327.01 86.01 C 327.55 89.76 327.36 93.66 327.14 97.45 C 324.87 101.20 322.24 106.34 317.07 105.90 C 271.03 105.93 224.99 105.88 178.96 105.92 C 174.69 105.99 170.19 104.22 167.53 100.80 C 168.83 95.32 166.80 89.69 167.28 84.10 Z" />
<path fill="#3e3e3e" opacity="1.00" d=" M 394.09 86.09 C 401.59 84.59 409.75 84.75 416.81 87.96 C 426.38 92.19 433.93 100.91 436.44 111.09 C 440.29 125.09 434.25 141.15 421.97 148.95 C 414.28 154.24 404.44 155.79 395.37 153.96 C 377.49 150.36 364.39 130.78 368.59 112.89 C 371.06 100.04 381.39 89.21 394.09 86.09 Z" />
<path fill="#f4e5c1" opacity="1.00" d=" M 395.38 92.71 C 409.60 88.40 426.20 96.30 431.66 110.16 C 437.95 123.84 431.84 141.54 418.61 148.62 C 405.89 156.10 388.09 152.52 379.38 140.58 C 373.53 133.17 371.85 123.02 374.19 113.97 C 376.93 103.85 385.23 95.45 395.38 92.71 Z" />
<path fill="#3e3e3e" opacity="1.00" d=" M 395.46 96.71 C 401.24 95.68 407.53 95.71 412.89 98.41 C 422.20 102.59 428.57 112.72 427.84 122.97 C 427.91 134.41 419.11 144.91 408.06 147.44 C 399.41 149.74 389.68 146.89 383.43 140.54 C 377.02 134.29 374.21 124.52 376.50 115.84 C 378.63 106.58 386.28 99.02 395.46 96.71 Z" />
<path fill="#3e3e3e" opacity="1.00" d=" M 121.33 119.96 C 121.43 116.51 125.22 115.08 128.20 115.29 C 129.62 116.64 130.75 118.24 131.62 120.00 C 130.60 121.90 129.65 124.60 127.10 124.75 C 124.17 125.55 120.79 123.13 121.33 119.96 Z" />
<path fill="#3e3e3e" opacity="1.00" d=" M 346.60 120.41 C 348.37 119.99 350.14 119.58 351.92 119.19 C 351.12 140.17 349.40 161.08 348.35 182.05 C 347.09 197.08 346.79 212.18 345.38 227.19 C 346.12 228.15 346.88 229.11 347.64 230.07 C 347.08 234.60 348.82 240.34 344.84 243.69 C 341.90 244.05 338.93 243.82 335.99 243.84 C 278.32 243.49 220.65 243.29 162.98 243.16 C 157.79 243.10 152.59 243.31 147.40 242.93 C 147.48 238.71 147.49 234.50 147.43 230.28 C 149.38 228.53 151.35 226.79 153.37 225.12 C 151.48 203.41 150.27 181.64 148.48 159.91 C 147.83 147.60 146.44 135.34 146.08 123.00 C 147.91 123.09 149.73 123.19 151.56 123.31 C 151.25 132.25 152.69 141.10 152.73 150.03 C 154.00 158.26 153.10 166.63 154.33 174.87 C 154.39 184.28 155.65 193.61 155.69 203.02 C 155.63 211.39 157.78 219.81 156.05 228.14 C 163.21 231.48 171.26 231.51 178.99 231.72 C 203.67 231.83 228.34 231.74 253.00 232.49 C 276.34 233.02 299.71 232.28 323.03 233.22 C 328.55 232.41 334.66 233.58 339.57 230.41 C 338.38 225.71 338.17 220.74 339.11 215.90 C 341.50 184.07 344.18 152.25 346.60 120.41 Z" />
<path fill="#3e3e3e" opacity="1.00" d=" M 243.00 121.86 C 275.87 121.70 308.73 121.24 341.61 121.27 C 339.90 143.19 338.24 165.11 336.54 187.02 C 335.96 198.60 334.36 210.12 334.27 221.73 C 333.90 221.66 333.16 221.52 332.79 221.45 C 331.97 220.65 331.15 219.84 330.33 219.05 C 330.30 208.32 332.09 197.71 332.57 187.01 C 333.71 176.67 333.91 166.25 335.15 155.92 C 335.81 145.46 336.66 135.02 337.85 124.62 C 335.42 124.25 333.02 124.55 331.38 126.50 C 313.92 126.80 296.45 126.48 279.00 127.17 C 241.35 127.37 203.69 127.38 166.04 127.83 C 164.48 127.78 162.87 128.00 161.36 127.53 C 159.91 126.20 159.10 124.35 158.11 122.68 C 183.07 122.46 208.03 122.19 232.99 122.21 C 236.33 122.26 239.66 122.00 243.00 121.86 Z" />
<path fill="#3e3e3e" opacity="1.00" d=" M 126.15 131.43 C 130.17 128.28 135.05 126.66 139.38 124.03 C 139.50 126.35 139.63 128.67 139.76 130.99 C 134.78 132.22 129.83 133.60 124.84 134.82 C 123.03 135.36 120.69 135.67 119.87 137.66 C 116.95 148.15 116.69 159.17 117.60 169.95 C 120.09 179.40 120.95 189.44 125.64 198.17 C 130.21 208.09 134.89 217.97 139.27 227.99 C 141.48 232.34 140.48 237.34 140.66 242.03 C 141.37 242.85 142.09 243.68 142.82 244.51 C 142.68 245.64 142.54 246.77 142.40 247.90 C 139.59 243.31 138.36 238.00 135.67 233.35 C 131.88 226.59 129.95 218.89 125.46 212.51 C 122.75 208.58 122.25 203.71 120.27 199.45 C 118.03 194.74 118.43 189.14 115.25 184.85 C 112.05 175.94 113.81 166.28 113.34 157.03 C 113.14 153.66 114.25 150.36 113.92 147.00 C 113.67 144.49 113.70 141.85 114.64 139.47 C 116.79 136.75 119.17 134.21 121.21 131.40 C 122.85 131.41 124.50 131.42 126.15 131.43 Z" />
<path fill="#3e3e3e" opacity="1.00" d=" M 358.86 126.12 C 358.95 125.28 359.72 124.78 360.18 124.14 C 363.20 131.10 366.33 138.01 370.86 144.16 C 373.61 149.53 379.59 151.94 383.19 156.49 C 383.58 162.70 383.93 168.93 384.39 175.14 C 381.51 175.78 378.88 177.16 377.43 179.84 C 377.05 183.61 376.48 187.36 375.80 191.09 C 376.06 192.19 376.31 193.31 376.56 194.42 C 377.08 194.71 378.14 195.27 378.67 195.56 C 378.55 197.42 378.44 199.30 378.34 201.17 C 371.26 202.34 364.56 204.88 358.24 208.20 C 355.82 211.33 356.35 215.99 353.53 219.00 C 353.11 211.97 354.55 205.03 354.50 198.01 C 356.02 174.06 357.54 150.09 358.86 126.12 Z" />
<path fill="#3e3e3e" opacity="1.00" d=" M 106.23 133.25 C 106.32 130.83 107.13 127.44 110.11 127.34 C 113.28 126.54 116.28 129.96 115.25 133.00 C 114.71 135.02 112.57 135.69 110.98 136.67 C 109.19 135.84 107.55 134.73 106.23 133.25 Z" />
<path fill="#3e3e3e" opacity="1.00" d=" M 246.02 129.51 C 274.86 129.44 303.70 129.07 332.53 129.27 C 330.81 149.86 329.42 170.47 327.49 191.04 C 327.35 199.04 325.59 206.98 326.55 215.00 C 327.29 217.74 324.72 220.19 322.02 219.77 C 298.35 219.70 274.67 219.49 251.01 218.75 C 223.69 218.54 196.39 217.92 169.08 217.37 C 167.51 217.23 166.49 215.51 166.73 214.03 C 166.83 205.35 166.80 196.65 166.12 188.00 C 165.18 181.71 165.86 175.31 164.90 169.03 C 164.23 163.72 164.81 158.34 164.01 153.04 C 162.92 145.56 164.23 137.85 162.34 130.46 C 170.88 129.91 179.44 130.31 187.98 130.18 C 207.32 129.57 226.67 129.77 246.02 129.51 Z" />
<path fill="#3e3e3e" opacity="1.00" d=" M 124.57 140.42 C 129.77 138.89 135.01 137.50 140.29 136.29 C 142.20 164.17 144.28 192.02 146.31 219.89 C 145.16 220.87 144.02 221.87 142.88 222.87 C 138.20 213.14 133.80 203.26 129.23 193.47 C 126.15 187.53 125.67 180.74 123.95 174.37 C 120.84 163.28 122.02 151.50 124.57 140.42 Z" />
<path fill="#3e3e3e" opacity="1.00" d=" M 99.25 145.80 C 100.56 144.51 101.89 142.74 103.99 143.13 C 107.44 142.60 109.72 147.17 107.70 149.80 C 106.54 152.32 103.51 151.56 101.30 151.66 C 100.09 149.90 99.37 147.93 99.25 145.80 Z" />
<path fill="#3e3e3e" opacity="1.00" d=" M 389.36 158.03 C 394.53 158.27 399.70 158.70 404.83 159.43 C 403.17 166.36 401.62 173.32 400.40 180.34 C 397.19 179.78 393.95 179.49 390.71 179.26 C 389.82 172.22 389.39 165.13 389.36 158.03 Z" />
<path fill="#3e3e3e" opacity="1.00" d=" M 103.21 161.10 C 105.46 159.53 108.78 160.66 109.84 163.16 C 111.84 166.80 106.66 171.30 103.34 168.70 C 100.56 167.28 100.51 162.62 103.21 161.10 Z" />
<path fill="#3e3e3e" opacity="1.00" d=" M 104.31 179.35 C 107.32 177.14 111.85 180.47 110.80 184.04 C 110.62 187.82 105.01 188.96 102.97 186.01 C 101.57 184.00 101.88 180.47 104.31 179.35 Z" />
<path fill="#3e3e3e" opacity="1.00" d=" M 383.83 181.27 C 391.18 181.34 398.60 184.08 405.89 182.51 C 405.45 186.38 405.08 190.30 404.09 194.08 C 401.32 197.36 396.62 196.09 392.93 195.77 C 388.82 195.74 385.99 192.48 383.08 190.06 C 383.36 187.13 383.64 184.20 383.83 181.27 Z" />
<path fill="#3e3e3e" opacity="1.00" d=" M 108.16 197.97 C 111.44 195.54 116.69 198.79 115.25 202.91 C 114.05 207.08 108.19 206.56 106.28 203.24 C 106.54 201.39 106.34 199.11 108.16 197.97 Z" />
<path fill="#3e3e3e" opacity="1.00" d=" M 384.33 196.42 C 387.71 197.25 391.13 197.87 394.54 198.57 C 394.45 199.42 394.28 201.12 394.20 201.97 C 393.86 203.44 393.55 204.91 393.25 206.39 C 395.14 207.12 397.06 207.75 398.99 208.36 C 400.06 207.99 401.14 207.63 402.23 207.28 C 402.91 205.29 404.08 203.18 403.16 201.07 C 401.98 200.20 400.72 199.45 399.67 198.43 C 400.90 198.35 402.13 198.28 403.37 198.23 C 403.86 200.55 403.00 204.03 405.74 205.15 C 409.89 206.69 414.58 207.73 417.47 211.40 C 420.13 215.78 419.41 221.12 418.87 225.96 C 418.28 230.35 418.90 234.84 417.95 239.18 C 417.41 241.29 417.58 243.47 417.60 245.63 C 407.36 250.77 395.53 251.20 384.34 250.09 C 381.44 249.45 378.85 251.91 375.94 251.01 C 368.78 249.81 361.84 247.52 354.98 245.18 C 355.88 237.92 357.85 230.80 360.30 223.92 C 361.43 217.69 363.95 211.19 369.22 207.36 C 371.45 207.08 373.73 207.57 375.94 207.10 C 378.58 205.95 381.01 204.32 383.31 202.59 C 384.09 200.64 384.08 198.48 384.33 196.42 Z" />
<path fill="#f4e5c1" opacity="1.00" d=" M 394.57 215.41 C 400.15 214.25 405.94 214.78 411.60 214.95 C 412.00 217.46 412.38 219.98 412.69 222.50 C 407.03 224.10 400.68 224.14 395.61 220.82 C 395.33 219.00 394.97 217.20 394.57 215.41 Z" />
<path fill="#3e3e3e" opacity="1.00" d=" M 117.50 217.66 C 121.05 215.70 125.87 219.97 123.71 223.56 C 122.84 226.01 120.01 226.19 117.84 225.73 C 114.36 224.61 114.41 219.21 117.50 217.66 Z" />
<path fill="#3e3e3e" opacity="1.00" d=" M 91.82 232.28 C 92.89 229.59 95.88 228.71 98.50 229.64 C 102.01 230.94 105.43 232.45 108.89 233.87 C 111.83 234.82 112.71 238.25 115.31 239.70 C 118.38 241.61 121.64 243.25 125.01 244.57 C 124.38 247.28 123.29 250.07 124.26 252.84 C 119.77 249.66 115.56 246.09 111.17 242.77 C 108.72 241.06 108.57 237.58 106.33 235.73 C 101.67 233.96 96.64 233.50 91.82 232.28 Z" />
<path fill="#3e3e3e" opacity="1.00" d=" M 124.57 231.61 C 127.52 230.23 131.56 232.51 130.88 235.99 C 131.32 240.26 124.79 241.29 122.84 238.09 C 121.61 235.92 122.21 232.76 124.57 231.61 Z" />
<path fill="#3e3e3e" opacity="1.00" d=" M 89.31 245.98 C 90.37 243.76 92.07 241.01 94.99 241.63 C 97.53 242.25 101.07 243.80 100.64 246.99 C 101.06 250.31 96.89 252.48 94.11 251.07 C 91.61 250.44 90.19 248.24 89.31 245.98 Z" />
<path fill="#3e3e3e" opacity="1.00" d=" M 132.32 247.42 C 135.01 246.34 138.95 247.63 138.80 251.00 C 139.54 254.72 134.79 257.14 131.93 255.07 C 129.34 253.38 129.54 248.82 132.32 247.42 Z" />
<path fill="#3e3e3e" opacity="1.00" d=" M 150.31 249.24 C 214.74 249.59 279.17 249.76 343.60 250.06 C 341.66 289.77 336.56 329.28 333.36 368.91 C 331.41 367.72 329.51 365.95 327.06 366.31 C 319.36 366.41 311.66 366.54 303.97 366.71 C 289.02 367.66 274.02 367.16 259.07 368.02 C 224.16 368.77 189.25 369.68 154.35 370.62 C 153.35 364.12 153.57 357.54 153.16 351.01 C 152.23 344.06 152.75 337.02 151.86 330.07 C 150.81 307.06 149.32 284.06 148.26 261.04 C 147.83 256.97 148.96 253.03 150.31 249.24 Z" />
<path fill="#3e3e3e" opacity="1.00" d=" M 108.40 252.58 C 109.96 251.45 111.73 250.03 113.81 250.76 C 117.60 252.23 120.21 257.67 117.15 261.01 C 115.94 262.92 113.38 263.06 111.43 262.41 C 108.23 260.28 108.18 256.01 108.40 252.58 Z" />
<path fill="#3e3e3e" opacity="1.00" d=" M 349.35 272.30 C 350.56 264.80 349.93 257.10 351.51 249.68 C 353.03 251.07 354.40 252.69 356.22 253.72 C 367.63 259.14 380.48 260.54 392.99 260.22 C 402.28 259.47 411.19 256.42 419.89 253.23 C 419.18 260.34 416.86 267.18 416.17 274.29 C 408.59 276.24 401.03 279.57 393.05 278.66 C 386.05 278.17 379.00 278.66 372.03 277.87 C 364.45 276.10 356.90 274.18 349.35 272.30 Z" />
<path fill="#f4e5c1" opacity="1.00" d=" M 175.79 252.71 C 178.50 252.19 181.28 252.41 184.02 252.37 C 226.69 252.31 269.35 252.22 312.02 252.15 C 314.71 252.16 317.43 252.02 320.11 252.43 C 321.39 252.53 322.98 253.49 322.75 255.00 C 323.19 262.72 321.81 270.37 321.23 278.04 C 320.51 282.60 320.69 287.29 319.30 291.75 C 317.90 292.13 316.51 292.56 315.06 292.63 C 272.72 293.40 230.36 293.37 188.00 293.52 C 185.01 293.49 181.99 293.74 179.03 293.29 C 175.98 292.31 173.88 289.68 171.60 287.60 C 171.54 277.46 171.71 267.32 171.23 257.19 C 172.66 255.63 173.80 253.61 175.79 252.71 Z" />
<path fill="#3e3e3e" opacity="1.00" d=" M 180.93 254.70 C 217.74 254.70 254.55 254.41 291.35 254.50 C 291.39 260.42 291.49 266.36 292.48 272.21 C 290.40 274.74 287.78 277.43 288.29 281.02 C 287.94 284.21 290.34 286.48 292.40 288.51 C 295.24 288.57 298.10 288.85 300.94 288.55 C 304.11 287.09 306.25 283.51 305.70 279.97 C 305.86 276.43 303.05 273.95 300.41 272.10 C 300.39 266.23 300.59 260.36 300.53 254.50 C 306.02 254.35 311.54 254.08 317.03 254.45 C 319.25 254.61 318.27 257.58 318.46 259.07 C 317.63 265.02 317.40 271.02 316.60 276.97 C 316.34 281.53 316.06 286.17 314.52 290.52 C 293.93 290.46 273.35 290.70 252.76 290.65 C 254.73 288.42 257.36 286.23 257.42 283.01 C 257.82 279.33 255.17 276.39 252.69 274.07 C 252.46 268.21 253.24 262.38 253.41 256.54 C 248.84 254.61 243.87 256.36 239.36 257.64 C 240.71 262.66 241.49 267.81 242.51 272.90 C 243.67 276.43 239.21 278.51 239.58 281.98 C 239.06 285.85 242.13 288.68 245.00 290.68 C 236.34 290.79 227.69 290.80 219.04 290.83 C 212.99 290.76 206.92 291.75 200.91 290.71 C 204.34 289.23 207.12 285.88 206.65 281.96 C 207.07 278.30 203.91 275.93 202.36 273.02 C 202.09 268.10 202.28 263.17 202.38 258.25 C 197.44 255.76 194.27 260.92 191.15 263.80 C 191.36 266.92 191.67 270.04 192.36 273.10 C 190.32 275.32 187.78 277.68 188.23 281.02 C 187.63 285.63 191.28 289.11 195.00 291.10 C 190.52 291.27 186.02 291.57 181.56 291.17 C 179.70 290.08 178.19 288.52 176.56 287.15 C 176.57 277.76 176.34 268.38 176.35 259.00 C 176.21 256.62 178.53 254.31 180.93 254.70 Z" />
<path fill="#3e3e3e" opacity="1.00" d=" M 295.50 263.93 C 295.43 261.26 295.40 258.59 295.50 255.93 C 295.59 258.59 295.58 261.26 295.50 263.93 Z" />
<path fill="#3e3e3e" opacity="1.00" d=" M 244.46 258.72 C 245.74 258.60 247.03 258.49 248.32 258.38 C 248.15 263.31 248.35 268.24 247.99 273.16 C 246.56 268.41 245.45 263.58 244.46 258.72 Z" />
<path fill="#3e3e3e" opacity="1.00" d=" M 196.08 264.85 C 196.55 263.99 197.02 263.13 197.50 262.28 C 197.18 265.38 197.17 268.50 197.29 271.62 C 197.15 271.59 196.86 271.55 196.72 271.53 C 196.72 269.29 196.56 267.04 196.08 264.85 Z" />
<path fill="#3e3e3e" opacity="1.00" d=" M 110.13 269.30 C 120.59 268.17 131.19 268.81 141.70 268.56 C 142.62 273.50 142.51 278.54 142.66 283.55 C 132.28 283.74 121.93 284.43 111.55 284.46 C 109.76 279.62 110.79 274.33 110.13 269.30 Z" />
<path fill="#3e3e3e" opacity="1.00" d=" M 349.37 275.19 C 356.25 276.82 363.05 278.86 369.98 280.33 C 379.63 281.14 389.33 281.49 399.03 281.42 C 402.66 281.26 406.13 280.04 409.65 279.23 C 409.59 282.55 409.52 285.88 409.40 289.21 C 404.46 290.92 399.17 291.01 394.03 291.66 C 382.82 293.11 371.21 292.95 360.30 289.74 C 356.30 288.67 352.60 286.09 348.30 286.74 C 348.51 282.88 348.66 279.00 349.37 275.19 Z" />
<path fill="#3e3e3e" opacity="1.00" d=" M 195.14 278.95 C 197.96 277.13 202.37 279.55 201.75 283.05 C 202.01 286.23 197.88 288.57 195.27 286.80 C 192.31 285.47 192.32 280.45 195.14 278.95 Z" />
<path fill="#3e3e3e" opacity="1.00" d=" M 293.95 280.96 C 297.35 278.23 303.16 282.77 300.60 286.55 C 298.89 289.55 294.98 288.39 292.39 287.40 C 292.48 285.18 291.66 282.36 293.95 280.96 Z" />
<path fill="#3e3e3e" opacity="1.00" d=" M 245.51 281.66 C 247.49 279.71 250.81 280.39 252.40 282.50 C 252.85 284.12 252.60 285.84 252.61 287.51 C 251.76 288.14 250.92 288.78 250.08 289.42 C 249.30 289.42 247.73 289.42 246.95 289.43 C 246.10 288.78 245.25 288.14 244.41 287.50 C 244.60 285.59 243.58 282.92 245.51 281.66 Z" />
<path fill="#3e3e3e" opacity="1.00" d=" M 130.51 290.34 C 132.27 290.32 134.03 290.31 135.79 290.30 C 134.93 293.84 133.37 297.32 133.48 301.01 C 134.20 304.12 136.21 306.73 137.12 309.78 C 137.14 311.47 136.48 313.10 136.18 314.76 C 132.75 314.77 129.37 314.24 126.05 313.45 C 127.59 310.07 129.69 306.82 130.11 303.04 C 130.51 298.82 130.41 294.57 130.51 290.34 Z" />
<path fill="#3e3e3e" opacity="1.00" d=" M 140.83 290.36 C 141.66 290.34 142.49 290.33 143.33 290.33 C 143.37 292.63 143.43 294.94 143.47 297.26 C 142.27 297.35 141.08 297.44 139.89 297.54 C 139.37 298.29 138.86 299.03 138.35 299.78 C 139.53 296.74 140.35 293.58 140.83 290.36 Z" />
<path fill="#3e3e3e" opacity="1.00" d=" M 124.12 294.13 C 124.42 294.53 125.01 295.34 125.30 295.74 C 125.17 298.88 125.44 302.15 124.23 305.13 C 122.70 309.13 119.69 312.81 120.18 317.34 C 126.15 319.70 132.98 318.91 138.71 321.83 C 136.07 322.50 134.49 324.71 132.96 326.76 C 131.21 324.70 129.88 321.87 127.06 321.10 C 123.83 319.92 120.50 318.96 117.45 317.32 C 118.86 315.42 118.61 313.11 118.38 310.90 C 117.98 308.23 119.71 305.98 120.79 303.71 C 122.56 300.76 122.71 297.22 124.12 294.13 Z" />
<path fill="#3e3e3e" opacity="1.00" d=" M 349.47 295.91 C 352.63 297.68 355.69 299.76 359.23 300.70 C 371.55 303.74 384.38 303.94 396.91 302.21 C 401.24 301.19 405.24 299.12 409.55 298.05 C 407.28 309.76 408.14 322.01 403.96 333.36 C 402.90 335.91 401.96 339.16 398.99 340.06 C 391.94 342.47 384.35 342.53 377.00 343.28 C 369.06 342.19 360.55 341.82 353.66 337.26 C 351.50 335.77 348.18 334.13 348.62 331.01 C 348.54 319.29 349.79 307.63 349.47 295.91 Z" />
<path fill="#3e3e3e" opacity="1.00" d=" M 111.35 298.38 C 113.86 296.54 118.26 297.87 118.63 301.12 C 119.83 306.00 112.29 309.68 109.14 305.80 C 107.25 303.36 108.40 299.42 111.35 298.38 Z" />
<path fill="#3e3e3e" opacity="1.00" d=" M 141.45 306.06 C 142.12 306.19 143.47 306.46 144.14 306.59 C 144.54 312.00 144.36 317.45 144.80 322.87 C 142.72 322.20 140.62 321.57 138.42 321.53 C 140.69 316.81 144.02 311.32 141.45 306.06 Z" />
<path fill="#f4e5c1" opacity="1.00" d=" M 239.02 317.16 C 249.65 316.06 260.37 316.95 270.99 315.74 C 278.06 315.71 285.33 314.77 292.21 316.93 C 294.39 317.51 295.88 319.31 297.51 320.75 C 297.55 332.98 297.53 345.20 297.52 357.42 C 295.65 359.06 293.93 361.69 291.08 361.22 C 278.06 360.93 265.05 360.14 252.02 360.19 C 236.28 358.97 220.43 359.82 204.72 358.31 C 201.51 356.32 199.04 353.08 197.63 349.62 C 197.17 344.10 197.61 338.54 197.43 333.00 C 197.59 330.82 196.93 328.29 198.39 326.42 C 200.23 323.92 201.67 321.06 203.91 318.88 C 207.15 317.81 210.69 318.47 214.04 318.08 C 222.35 317.29 230.70 317.56 239.02 317.16 Z" />
<path fill="#3e3e3e" opacity="1.00" d=" M 107.44 317.62 C 110.39 315.08 115.39 318.35 114.45 322.07 C 114.09 325.64 108.98 327.00 106.76 324.35 C 104.82 322.50 105.18 319.03 107.44 317.62 Z" />
<path fill="#3e3e3e" opacity="1.00" d=" M 241.02 321.82 C 256.67 321.61 272.28 320.53 287.93 320.28 C 289.49 320.30 290.93 320.99 292.37 321.52 C 292.04 331.38 292.36 341.24 292.26 351.10 C 292.54 353.37 290.73 354.94 289.45 356.54 C 261.29 355.57 233.12 354.81 204.96 353.95 C 202.49 353.87 202.63 350.77 201.98 349.02 C 201.25 343.75 201.70 338.38 201.74 333.08 C 201.76 329.39 204.14 326.46 206.02 323.51 C 217.64 322.16 229.37 322.92 241.02 321.82 Z" />
<path fill="#f4e5c1" opacity="1.00" d=" M 249.96 324.31 C 260.63 324.50 271.27 323.36 281.94 323.65 C 283.92 323.76 285.67 325.31 286.51 327.03 C 287.18 335.19 288.07 343.39 287.54 351.59 C 275.67 351.38 263.81 351.44 251.94 351.24 C 237.98 350.26 223.97 350.78 209.99 350.44 C 209.05 350.31 207.07 350.56 207.34 349.00 C 207.54 343.02 206.36 337.13 206.40 331.15 C 208.02 329.39 209.44 327.46 210.64 325.39 C 223.70 324.15 236.86 324.70 249.96 324.31 Z" />
<path fill="#3e3e3e" opacity="1.00" d=" M 121.45 325.61 C 124.36 324.36 128.15 326.75 127.81 330.03 C 128.28 334.21 122.34 336.41 119.76 333.28 C 117.26 331.04 118.45 326.75 121.45 325.61 Z" />
<path fill="#3e3e3e" opacity="1.00" d=" M 139.42 330.40 C 142.03 327.90 146.80 330.54 146.58 333.98 C 146.96 337.39 143.43 340.59 140.06 339.53 C 136.15 338.38 136.23 332.39 139.42 330.40 Z" />
<path fill="#3e3e3e" opacity="1.00" d=" M 343.64 335.99 C 347.15 338.25 350.87 340.13 354.51 342.17 C 355.44 346.00 353.36 349.99 353.42 353.92 C 354.20 356.45 355.98 358.68 358.33 359.95 C 358.22 363.40 357.83 366.82 357.47 370.25 C 354.63 372.17 352.60 374.96 350.52 377.63 C 346.84 377.71 343.16 377.71 339.49 377.63 C 341.21 363.80 342.33 349.88 343.64 335.99 Z" />
<path fill="#3e3e3e" opacity="1.00" d=" M 414.23 336.16 C 416.25 336.42 418.30 336.51 420.29 336.97 C 421.80 337.74 421.10 339.63 421.33 340.98 C 421.61 348.41 419.74 355.78 417.50 362.80 C 415.43 362.42 413.37 362.03 411.32 361.63 C 414.22 353.42 413.44 344.68 414.23 336.16 Z" />
<path fill="#3e3e3e" opacity="1.00" d=" M 362.66 344.32 C 366.54 344.52 370.33 345.40 374.17 345.97 C 378.08 346.55 382.00 345.67 385.89 345.27 C 385.36 349.71 384.01 353.98 383.15 358.36 C 376.58 358.79 370.09 357.27 363.52 357.53 C 362.78 356.36 362.04 355.18 361.31 354.02 C 361.75 350.79 362.34 347.57 362.66 344.32 Z" />
<path fill="#3e3e3e" opacity="1.00" d=" M 393.79 347.33 C 397.76 347.77 401.56 346.51 405.33 345.48 C 405.05 347.59 404.82 349.70 404.68 351.82 C 400.59 352.32 396.44 352.31 392.39 351.50 C 392.86 350.11 393.32 348.72 393.79 347.33 Z" />
<path fill="#3e3e3e" opacity="1.00" d=" M 370.79 361.12 C 373.16 361.09 375.53 361.12 377.90 361.22 C 377.36 365.60 376.37 369.91 375.34 374.20 C 373.05 374.16 370.76 374.15 368.47 374.13 C 369.41 369.83 369.83 365.43 370.79 361.12 Z" />
<path fill="#3e3e3e" opacity="1.00" d=" M 269.00 374.17 C 289.29 373.43 309.60 373.18 329.89 372.61 C 333.39 377.04 332.95 382.91 334.16 388.15 C 335.23 392.44 334.77 397.35 337.65 401.00 C 337.40 403.22 336.90 405.41 336.33 407.57 C 317.22 407.31 298.08 407.66 278.99 406.74 C 259.32 406.59 239.65 406.49 219.98 406.25 C 197.33 405.21 174.63 405.97 151.98 405.17 C 151.33 405.06 150.02 404.84 149.37 404.73 C 152.15 397.45 154.22 389.92 156.83 382.59 C 157.58 380.72 157.69 378.71 157.70 376.73 C 194.81 376.28 231.89 374.77 269.00 374.17 Z" />
<path fill="#3e3e3e" opacity="1.00" d=" M 365.68 376.74 C 370.37 376.96 375.03 377.66 379.74 377.48 C 382.87 381.84 385.76 386.45 386.41 391.91 C 385.38 394.43 384.97 397.21 383.69 399.61 C 379.79 403.65 374.50 406.00 369.10 407.28 C 366.49 406.38 363.76 405.82 361.23 404.69 C 359.17 403.48 357.60 401.65 355.84 400.08 C 355.94 395.99 355.51 391.86 356.10 387.81 C 358.61 383.62 362.74 380.64 365.68 376.74 Z" />
<path fill="#f4e5c1" opacity="1.00" d=" M 265.98 378.75 C 276.97 378.03 288.04 379.28 298.97 377.74 C 307.34 377.33 315.72 377.76 324.09 377.72 C 325.59 386.19 328.04 394.45 329.45 402.94 C 318.96 402.69 308.49 403.53 298.01 402.87 C 290.65 403.03 283.35 401.57 276.00 402.11 C 267.34 402.12 258.67 402.29 250.03 401.73 C 238.71 400.87 227.35 401.39 216.01 401.23 C 208.97 401.47 202.01 400.04 194.97 400.38 C 182.37 400.11 169.58 401.21 157.14 398.76 C 158.20 393.32 160.29 388.16 161.65 382.81 C 174.23 379.76 187.31 382.03 200.07 380.73 C 211.37 379.60 222.78 380.99 234.07 379.65 C 244.69 378.89 255.39 380.09 265.98 378.75 Z" />
<path fill="#f4e5c1" opacity="1.00" d=" M 365.16 379.88 C 371.09 377.77 378.63 379.45 381.77 385.29 C 385.87 391.77 382.84 401.14 375.84 404.17 C 368.05 408.11 357.35 401.83 357.32 393.00 C 356.66 387.44 360.14 382.08 365.16 379.88 Z" />
<path fill="#3e3e3e" opacity="1.00" d=" M 314.92 382.02 C 316.01 381.36 317.53 381.65 318.50 382.45 C 321.44 384.43 321.42 388.36 322.34 391.44 C 322.78 394.20 324.51 397.72 322.08 400.03 C 320.38 402.21 317.38 401.63 314.98 401.76 C 304.67 401.49 294.35 401.73 284.06 400.91 C 245.66 400.52 207.27 399.09 168.87 398.41 C 165.06 398.52 162.66 394.42 163.50 390.96 C 163.72 386.69 168.20 384.40 172.05 384.74 C 218.05 384.75 264.06 384.75 310.05 384.74 C 312.13 384.95 313.30 382.94 314.92 382.02 Z" />
<path fill="#3e3e3e" opacity="1.00" d=" M 340.17 381.83 C 343.42 381.79 346.66 381.74 349.91 381.66 C 349.93 385.96 349.77 390.26 349.56 394.56 C 346.88 394.56 344.21 394.57 341.54 394.58 C 340.32 390.44 340.05 386.12 340.17 381.83 Z" />
<path fill="#3e3e3e" opacity="1.00" d=" M 150.00 411.43 C 163.65 411.64 177.31 411.67 190.96 411.78 C 213.96 412.76 236.99 412.37 260.01 412.74 C 285.22 413.71 310.48 413.32 335.71 413.74 C 334.07 422.47 330.43 430.69 328.32 439.32 C 325.71 440.87 323.27 443.38 320.02 443.21 C 295.05 442.28 270.04 442.49 245.06 442.21 C 216.93 440.94 188.73 442.06 160.61 440.65 C 157.16 430.88 153.39 421.22 150.00 411.43 Z" />
</svg>
