<?xml version="1.0" encoding="UTF-8" ?>
<!DOCTYPE svg PUBLIC "-//W3C//DTD SVG 1.1//EN" "http://www.w3.org/Graphics/SVG/1.1/DTD/svg11.dtd">
<svg width="512pt" height="512pt" viewBox="0 0 512 512" version="1.1" xmlns="http://www.w3.org/2000/svg">
<path fill="#3e3e3e" opacity="1.00" d=" M 0.00 0.00 L 512.00 0.00 L 512.00 512.00 L 0.00 512.00 L 0.00 0.00 Z" />
<path fill="#f5e5c1" opacity="1.00" d=" M 120.05 9.86 C 148.36 11.97 176.67 14.44 204.97 16.65 C 209.63 16.95 214.30 17.42 218.93 17.97 C 222.34 18.91 221.75 22.92 221.79 25.64 C 188.52 23.58 155.32 20.66 122.06 18.43 C 119.12 17.87 116.53 19.28 113.86 20.19 C 94.49 23.56 75.11 26.94 55.75 30.37 C 55.28 30.04 54.34 29.37 53.87 29.04 C 53.47 26.11 52.18 21.36 56.31 20.58 C 77.52 16.81 98.81 13.42 120.05 9.86 Z" />
<path fill="#f5722c" opacity="1.00" d=" M 386.31 23.52 C 421.76 93.84 457.08 164.24 492.45 234.61 C 493.13 235.86 493.93 237.04 494.74 238.21 C 494.79 240.79 494.99 243.38 494.66 245.95 C 487.03 261.76 480.18 277.96 472.88 293.94 C 443.63 358.90 414.62 423.98 385.24 488.88 C 385.24 435.92 385.53 382.96 385.54 330.00 C 385.60 268.66 385.63 207.31 386.16 145.98 C 386.23 105.16 386.22 64.34 386.31 23.52 Z" />
<path fill="#f5e5c1" opacity="1.00" d=" M 123.11 24.42 C 138.77 24.77 154.35 26.74 169.99 27.68 C 184.35 28.82 198.71 29.99 213.09 31.01 C 215.43 31.05 218.54 32.15 218.60 34.93 C 219.12 44.97 219.39 55.02 219.27 65.08 C 219.26 66.52 218.61 67.83 218.21 69.18 C 210.19 70.20 202.08 69.47 194.04 70.13 C 179.37 70.24 164.70 70.47 150.04 70.76 C 142.21 70.72 134.33 71.90 126.54 70.69 C 125.47 55.26 123.88 39.88 123.11 24.42 Z" />
<path fill="#f5e5c1" opacity="1.00" d=" M 62.56 35.64 C 80.20 32.48 97.86 29.42 115.51 26.30 C 116.49 41.37 117.42 56.44 118.47 71.51 C 101.19 73.65 83.79 74.75 66.48 76.67 C 64.90 63.03 63.77 49.32 62.56 35.64 Z" />
<path fill="#f5e5c1" opacity="1.00" d=" M 224.04 75.72 C 236.44 75.64 248.87 74.82 261.26 75.58 C 263.44 78.63 262.72 82.49 262.74 85.99 C 262.49 96.33 262.67 106.69 261.93 117.01 C 261.76 118.37 261.86 119.86 261.06 121.06 C 258.49 125.16 255.59 129.06 253.12 133.23 C 252.22 134.63 252.44 136.36 252.36 137.94 C 252.30 156.28 252.42 174.62 252.50 192.96 C 252.48 198.38 253.14 203.83 252.43 209.23 C 248.79 211.57 244.49 212.38 240.45 213.72 C 211.16 222.91 181.87 232.11 152.61 241.36 C 149.55 242.23 146.44 243.81 143.18 243.02 C 140.28 242.31 136.74 242.59 134.56 240.22 C 133.08 233.28 133.95 226.05 132.92 219.03 C 129.78 173.60 126.56 128.19 123.43 82.75 C 125.46 81.14 127.30 79.25 129.46 77.80 C 140.94 76.86 152.51 77.67 164.02 77.02 C 184.01 76.08 204.05 76.69 224.04 75.72 Z" />
<path fill="#f5e5c1" opacity="1.00" d=" M 56.40 83.90 C 77.09 82.12 97.74 79.83 118.46 78.21 C 117.88 88.78 119.34 99.29 119.81 109.83 C 128.21 233.55 136.10 357.31 144.37 481.02 C 143.92 487.62 147.31 494.80 143.62 500.90 C 143.86 501.89 144.15 502.87 144.47 503.84 C 128.13 499.37 111.89 494.51 95.51 490.17 C 101.27 487.73 105.39 482.79 108.96 477.84 C 111.14 474.56 111.41 470.47 113.13 466.99 C 115.62 464.13 119.38 462.78 121.98 460.02 C 124.33 457.66 123.25 453.97 123.01 451.03 C 121.39 444.31 120.91 437.03 116.80 431.21 C 113.91 426.26 109.21 422.64 103.96 420.49 C 100.79 422.12 98.25 424.66 95.71 427.10 C 95.11 420.07 93.51 412.88 94.67 405.86 C 97.76 402.96 102.56 402.65 105.52 399.46 C 108.42 396.28 112.29 393.90 114.46 390.12 C 115.17 386.11 114.25 382.02 114.10 377.99 C 112.42 360.05 111.15 342.05 108.77 324.18 C 114.05 323.80 119.84 325.97 124.74 323.36 C 124.61 304.85 122.13 286.47 121.31 268.00 C 120.79 263.65 120.47 259.29 120.32 254.92 C 120.29 252.70 118.36 250.49 116.06 250.55 C 111.26 250.31 106.45 250.38 101.65 250.24 C 99.76 243.63 97.72 235.07 90.21 232.87 C 86.39 232.20 82.47 232.28 78.71 231.23 C 76.32 221.22 75.00 210.99 72.65 200.97 C 72.16 198.65 71.51 196.32 71.53 193.94 C 72.97 192.13 75.57 192.32 77.48 191.27 C 80.61 189.64 83.91 187.90 85.95 184.90 C 88.62 181.01 91.67 177.24 93.23 172.72 C 96.59 163.65 99.67 153.94 98.06 144.17 C 97.26 139.72 96.57 135.21 94.97 130.97 C 92.03 124.33 89.09 117.36 83.55 112.41 C 76.41 106.52 67.09 102.34 57.68 103.88 C 49.80 105.13 41.69 103.81 33.90 105.67 C 30.35 106.74 26.76 107.72 23.31 109.10 C 23.36 102.66 23.50 96.23 23.70 89.79 C 25.78 88.40 28.00 86.99 30.59 86.89 C 39.22 86.12 47.83 85.21 56.40 83.90 Z" />
<path fill="#3e3e3e" opacity="1.00" d=" M 232.10 84.92 C 237.32 85.07 243.00 83.68 247.86 86.08 C 252.44 88.66 252.46 94.40 252.22 99.00 C 251.89 103.28 252.55 108.14 249.91 111.81 C 247.62 114.95 243.47 115.34 239.92 115.70 C 219.27 117.53 198.61 119.24 177.98 121.16 C 174.33 121.32 170.36 119.60 168.85 116.10 C 166.91 111.95 168.33 107.37 168.52 103.04 C 168.92 98.51 168.20 93.23 171.61 89.64 C 174.54 86.55 179.09 86.76 183.00 86.78 C 191.36 86.90 199.70 86.26 208.05 85.82 C 216.07 85.81 224.10 85.56 232.10 84.92 Z" />
<path fill="#f5e5c1" opacity="1.00" d=" M 214.44 89.66 C 222.94 89.24 231.44 88.73 239.96 88.60 C 243.88 88.33 248.02 90.98 248.76 94.97 C 249.55 98.88 249.38 103.06 248.08 106.84 C 246.79 110.20 243.25 111.85 239.86 112.17 C 221.91 113.94 203.94 115.54 185.99 117.30 C 182.53 117.64 178.51 117.79 175.95 114.98 C 172.86 112.21 173.16 107.77 173.16 104.00 C 173.32 100.75 172.81 96.87 175.45 94.42 C 178.03 91.39 182.28 91.16 185.96 90.86 C 195.45 90.56 204.94 89.86 214.44 89.66 Z" />
<path fill="#f5e5c1" opacity="1.00" d=" M 43.72 111.20 C 49.77 110.38 55.88 110.48 61.97 110.25 C 68.78 109.91 75.11 113.50 80.08 117.87 C 88.44 127.39 92.21 140.28 92.14 152.79 C 90.38 162.03 88.12 171.63 82.22 179.19 C 80.20 182.71 76.60 184.99 72.88 186.35 C 67.92 186.49 62.96 186.30 58.02 185.86 C 50.39 185.51 42.74 185.85 35.11 185.46 C 27.54 184.88 22.63 178.18 19.01 172.22 C 13.30 162.96 12.20 151.62 13.80 141.05 C 16.69 135.56 18.70 129.50 22.71 124.67 C 25.97 120.67 28.03 115.38 33.01 113.11 C 36.13 110.79 40.11 111.53 43.72 111.20 Z" />
<path fill="#f5722c" opacity="1.00" d=" M 345.21 110.18 C 356.68 110.22 368.14 110.18 379.60 110.19 C 379.59 209.02 379.59 307.85 379.61 406.68 C 368.14 406.69 356.68 406.65 345.22 406.71 C 345.17 307.86 345.19 209.02 345.21 110.18 Z" />
<path fill="#3e3e3e" opacity="1.00" d=" M 56.47 116.77 C 60.98 115.39 66.16 116.17 69.85 119.20 C 78.97 126.51 82.84 138.59 82.65 149.97 C 82.45 157.22 81.38 164.88 76.94 170.86 C 74.27 175.24 71.42 180.49 65.89 181.54 C 59.21 183.12 53.15 178.77 48.55 174.47 C 42.16 165.80 39.98 154.60 40.28 143.99 C 40.22 141.75 40.83 139.59 41.60 137.52 C 42.79 134.26 42.53 130.47 44.76 127.64 C 48.07 123.49 51.13 118.49 56.47 116.77 Z" />
<path fill="#3e3e3e" opacity="1.00" d=" M 164.90 131.81 C 191.60 128.39 218.32 125.17 245.00 121.62 C 247.02 121.24 248.97 121.93 250.83 122.67 C 251.17 128.17 244.84 131.34 244.91 136.92 C 245.38 159.61 245.54 182.33 245.43 205.03 C 213.77 213.86 182.23 223.18 150.56 231.95 C 148.88 227.16 150.45 222.16 150.29 217.26 C 150.61 203.16 150.57 189.05 150.81 174.96 C 151.77 165.66 151.01 156.26 151.85 146.96 C 153.21 142.74 153.70 137.36 157.99 134.98 C 160.11 133.59 162.33 132.14 164.90 131.81 Z" />
<path fill="#f5e5c1" opacity="1.00" d=" M 228.34 129.88 C 228.17 126.99 231.34 127.29 233.29 127.49 C 233.76 128.93 234.36 130.37 234.33 131.92 C 234.44 138.62 234.51 145.33 235.13 152.01 C 235.48 160.33 235.23 168.67 235.82 176.98 C 236.58 184.96 236.19 192.99 236.55 201.00 C 236.80 202.69 235.92 204.17 235.21 205.62 C 233.47 205.48 231.29 205.46 230.83 203.37 C 229.50 186.92 229.93 170.38 228.74 153.91 C 228.83 145.90 228.24 137.89 228.34 129.88 Z" />
<path fill="#f5e5c1" opacity="1.00" d=" M 29.32 190.15 C 32.63 191.66 36.12 192.69 39.66 193.51 C 39.94 206.19 40.15 218.85 39.70 231.53 C 37.59 233.41 35.32 235.15 32.62 236.09 C 31.74 220.76 30.30 205.47 29.32 190.15 Z" />
<path fill="#f5e5c1" opacity="1.00" d=" M 46.41 194.33 C 52.15 194.57 57.90 194.03 63.63 194.51 C 66.39 207.02 67.94 219.89 70.65 232.46 C 63.53 235.99 55.12 236.19 47.49 234.40 C 48.20 227.60 47.04 220.79 47.25 213.98 C 47.60 207.40 46.32 200.90 46.41 194.33 Z" />
<path fill="#f5e5c1" opacity="1.00" d=" M 150.59 246.32 C 185.45 235.38 220.28 224.34 255.18 213.53 C 256.09 215.33 256.71 217.26 256.97 219.27 C 221.68 231.06 186.49 243.13 151.23 254.99 C 146.14 256.48 140.79 255.02 135.59 255.20 C 135.31 252.20 134.95 249.21 134.56 246.23 C 139.90 245.94 145.31 247.50 150.59 246.32 Z" />
<path fill="#f5e5c1" opacity="1.00" d=" M 262.14 223.55 C 274.75 222.15 287.43 221.77 300.05 220.59 C 303.43 220.08 306.18 222.92 306.76 226.05 C 308.86 234.06 311.72 241.91 313.24 250.05 C 312.37 264.11 310.91 278.13 310.27 292.22 C 317.20 293.23 324.14 294.30 331.04 295.54 C 333.70 295.82 336.14 298.16 335.80 300.96 C 335.54 304.73 334.77 308.50 333.37 312.03 C 307.65 324.57 282.27 337.83 256.67 350.62 C 253.18 352.40 249.98 354.76 246.28 356.16 C 238.40 359.24 231.29 364.01 223.38 367.02 C 222.91 360.02 223.67 353.04 224.24 346.08 C 224.27 340.36 224.88 334.68 225.35 328.99 C 234.31 331.04 243.03 333.98 251.90 336.36 C 259.37 338.08 266.03 333.27 272.48 330.30 C 289.79 321.61 307.13 312.97 324.45 304.29 C 326.47 303.36 328.27 302.00 329.55 300.16 C 329.25 299.49 328.66 298.15 328.36 297.48 C 322.37 295.73 316.06 295.62 309.92 294.67 C 305.56 294.38 301.05 292.70 296.76 294.21 C 273.04 303.42 249.29 312.57 225.56 321.77 C 226.54 314.90 226.14 307.94 227.05 301.07 C 227.55 294.00 227.32 286.82 228.86 279.87 C 229.58 277.25 232.28 276.18 234.59 275.36 C 255.20 267.98 275.82 260.60 296.41 253.15 C 296.31 260.50 297.66 267.76 297.91 275.10 C 298.69 280.20 298.14 285.48 299.85 290.43 C 301.35 290.72 302.88 290.79 304.42 290.71 C 306.20 286.74 305.92 282.29 306.55 278.08 C 307.85 269.09 308.85 260.06 310.21 251.08 C 310.55 249.42 309.85 247.83 309.37 246.29 C 306.47 246.02 303.50 246.17 300.75 247.24 C 277.05 255.75 253.36 264.26 229.66 272.74 C 228.01 273.34 226.45 274.11 224.90 274.92 C 220.45 282.74 222.26 291.91 220.96 300.41 C 219.99 319.26 218.53 338.07 217.51 356.92 C 216.04 354.03 214.82 350.89 212.56 348.51 C 211.21 346.95 209.10 347.79 207.52 348.44 C 191.87 355.60 176.25 362.86 160.56 369.95 C 158.75 348.66 157.35 327.32 156.37 305.98 C 155.77 301.13 155.39 296.25 155.53 291.36 C 161.91 289.88 168.53 290.72 174.98 289.84 C 180.31 289.20 185.69 289.52 191.02 288.93 C 198.40 288.07 205.88 288.59 213.22 287.32 C 217.38 285.03 214.77 279.36 214.52 275.66 C 233.81 267.72 253.65 261.09 272.75 252.73 C 282.19 249.52 291.60 246.19 301.02 242.92 C 303.03 242.36 304.43 240.79 305.75 239.27 C 305.25 235.41 304.51 231.53 303.14 227.87 C 302.66 226.04 300.51 225.92 298.98 226.27 C 296.34 226.81 293.86 227.91 291.33 228.82 C 264.54 238.38 237.78 248.02 210.99 257.57 C 208.98 258.39 205.86 259.26 206.34 262.05 C 206.52 268.69 208.94 274.99 209.43 281.60 C 203.23 282.39 196.98 282.68 190.73 282.82 C 185.14 283.48 179.53 283.64 173.91 283.84 C 167.74 284.50 161.54 284.75 155.34 284.82 C 154.79 276.72 154.06 268.63 154.17 260.51 C 190.00 247.76 226.31 236.29 262.14 223.55 Z" />
<path fill="#f5e5c1" opacity="1.00" d=" M 75.56 236.16 C 80.65 236.86 86.62 236.72 90.66 240.34 C 94.15 244.90 95.56 250.77 95.63 256.46 C 96.25 257.20 96.88 257.96 97.52 258.71 C 101.36 297.76 104.55 336.88 108.28 375.94 C 108.50 379.33 108.87 382.73 108.52 386.13 C 105.74 387.73 103.89 390.40 101.46 392.42 C 98.03 394.48 94.15 395.66 90.78 397.84 C 86.97 400.21 82.67 401.79 78.14 401.72 C 71.41 402.75 64.66 401.86 57.94 401.35 C 50.72 401.23 45.05 396.19 38.89 393.11 C 36.27 357.06 32.87 321.07 29.90 285.05 C 29.40 275.05 27.24 265.04 28.63 255.01 C 29.81 247.91 34.64 241.84 40.78 238.27 C 48.10 243.55 57.81 242.26 66.24 241.23 C 69.59 240.16 73.55 239.35 75.56 236.16 Z" />
<path fill="#f5e5c1" opacity="1.00" d=" M 102.38 256.45 C 106.14 256.50 109.90 256.56 113.65 256.48 C 114.66 259.55 114.42 262.82 114.65 266.01 C 116.03 278.49 116.73 291.04 118.00 303.54 C 118.67 308.48 118.44 313.47 118.49 318.45 C 115.15 317.87 111.77 317.54 108.38 317.55 C 106.93 302.76 105.22 288.00 104.19 273.19 C 102.92 267.70 103.04 262.02 102.38 256.45 Z" />
<path fill="#f5e5c1" opacity="1.00" d=" M 135.49 261.23 C 139.41 261.26 143.32 261.34 147.24 261.42 C 150.66 265.76 148.81 271.53 149.58 276.59 C 150.61 284.35 150.09 292.21 151.10 299.98 C 152.09 322.34 153.73 344.66 154.73 367.03 C 154.84 369.02 154.58 371.02 154.33 373.00 C 150.34 374.57 146.54 376.59 142.53 378.10 C 142.41 374.73 142.43 371.35 142.00 368.00 C 141.16 362.06 141.75 356.02 140.90 350.08 C 140.24 345.05 140.65 339.97 140.09 334.94 C 139.13 328.36 139.81 321.66 138.57 315.11 C 137.91 305.44 137.65 295.73 137.25 286.05 C 136.18 277.81 136.63 269.47 135.49 261.23 Z" />
<path fill="#f5e5c1" opacity="1.00" d=" M 317.02 325.11 C 321.83 322.88 326.43 319.36 332.06 320.24 C 331.56 322.62 331.31 325.53 328.82 326.75 C 294.34 346.29 259.41 365.05 224.16 383.15 C 201.65 391.42 179.06 399.53 156.56 407.83 C 152.95 399.85 149.98 391.60 146.40 383.61 C 163.43 375.49 180.67 367.82 197.79 359.89 C 201.54 358.36 205.02 356.12 208.96 355.08 C 213.32 360.19 215.49 367.04 219.53 372.48 C 220.52 373.48 221.83 372.41 222.84 372.05 C 254.21 356.37 285.63 340.76 317.02 325.11 Z" />
<path fill="#f5e5c1" opacity="1.00" d=" M 280.03 358.97 C 281.30 357.03 284.09 356.88 285.91 358.12 C 290.48 360.74 294.16 364.57 298.23 367.86 C 300.37 369.63 302.86 372.04 302.28 375.12 C 301.24 378.19 299.22 380.77 297.56 383.51 C 288.37 397.68 279.63 412.16 270.19 426.16 C 236.96 449.63 203.39 472.76 169.96 496.01 C 169.15 496.75 167.80 497.02 167.02 496.06 C 161.06 490.63 155.01 485.28 149.19 479.71 C 147.81 478.63 149.26 476.88 149.72 475.71 C 160.65 456.93 171.61 438.17 182.54 419.39 C 183.27 418.48 183.98 416.37 185.38 417.63 C 190.67 421.00 195.88 424.52 201.16 427.91 C 203.32 429.34 206.24 428.76 208.25 427.32 C 237.39 408.72 266.83 390.59 295.86 371.83 C 294.17 370.67 292.48 369.51 290.81 368.35 C 284.86 372.80 278.07 375.91 271.74 379.76 C 270.23 380.86 268.35 380.46 266.64 380.37 C 266.39 378.59 265.51 376.46 267.01 374.99 C 271.34 369.65 275.64 364.27 280.03 358.97 Z" />
<path fill="#f5e5c1" opacity="1.00" d=" M 241.80 379.64 C 248.27 376.86 254.11 372.25 261.23 371.27 C 261.59 376.07 261.60 381.02 263.46 385.55 C 260.55 388.41 256.97 390.43 253.68 392.82 C 246.91 397.63 240.20 402.53 233.42 407.32 C 233.01 407.29 232.19 407.22 231.79 407.19 C 231.04 399.93 232.29 392.71 232.74 385.49 C 234.60 382.22 238.75 381.45 241.80 379.64 Z" />
<path fill="#f5e5c1" opacity="1.00" d=" M 144.58 414.03 C 144.80 406.90 143.36 399.86 143.64 392.74 C 145.43 398.33 147.97 403.64 150.08 409.11 C 150.92 411.00 151.59 413.24 153.48 414.37 C 156.28 415.13 158.97 413.57 161.64 412.92 C 160.88 423.91 160.22 434.90 159.61 445.89 C 155.95 453.03 151.39 459.71 147.68 466.85 C 147.67 457.54 146.35 448.31 146.32 439.01 C 145.25 430.71 145.63 422.32 144.58 414.03 Z" />
<path fill="#f5e5c1" opacity="1.00" d=" M 46.60 408.71 C 50.31 407.70 53.83 409.77 57.30 410.78 C 57.85 412.47 58.36 414.19 58.30 415.98 C 58.29 424.33 59.93 432.62 59.58 440.96 C 58.44 444.55 56.94 448.02 55.55 451.52 C 55.10 453.24 52.94 452.63 51.68 452.98 C 50.98 438.13 47.08 423.55 46.60 408.71 Z" />
<path fill="#f5e5c1" opacity="1.00" d=" M 64.14 409.42 C 71.80 409.88 79.61 410.48 87.09 408.27 C 88.40 416.19 89.53 424.19 89.58 432.23 C 83.76 437.61 75.74 441.92 67.65 439.40 C 66.61 429.39 64.81 419.46 64.14 409.42 Z" />
<path fill="#f5e5c1" opacity="1.00" d=" M 99.69 435.21 C 101.79 433.12 104.14 431.30 106.49 429.51 C 111.40 433.37 114.00 439.24 115.32 445.21 C 115.72 448.68 115.50 452.18 115.65 455.67 C 114.25 456.51 112.84 457.34 111.42 458.13 C 112.21 451.35 110.26 444.31 106.03 438.96 C 104.51 436.87 102.01 436.05 99.69 435.21 Z" />
<path fill="#f5e5c1" opacity="1.00" d=" M 88.54 443.44 C 90.54 442.15 92.33 439.64 95.01 440.27 C 98.99 440.86 101.66 444.42 103.20 447.86 C 106.54 455.84 106.18 465.10 102.98 473.06 C 99.82 478.16 95.11 482.97 88.93 483.92 C 85.40 484.51 81.81 484.95 78.23 484.93 C 73.53 484.12 68.97 482.63 64.39 481.35 C 62.62 480.73 60.36 480.25 59.72 478.23 C 57.90 472.09 57.32 465.48 58.71 459.20 C 59.85 454.99 61.96 451.15 63.66 447.17 C 67.79 447.60 71.91 449.22 76.08 448.22 C 80.39 447.16 85.04 446.39 88.54 443.44 Z" />
<path fill="#3e3e3e" opacity="1.00" d=" M 87.41 449.45 C 90.15 447.69 94.11 448.34 96.21 450.83 C 99.23 453.70 99.10 458.16 99.45 462.00 C 99.81 465.87 99.04 469.83 97.17 473.26 C 95.26 477.00 89.14 477.91 86.59 474.38 C 83.57 469.50 82.64 463.55 83.40 457.91 C 83.80 454.81 84.52 451.20 87.41 449.45 Z" />
<path fill="#f5e5c1" opacity="1.00" d=" M 149.33 487.93 C 154.38 492.63 159.45 497.33 164.60 501.93 C 162.19 503.85 159.80 505.82 157.09 507.34 C 155.31 506.86 153.53 506.41 151.74 505.98 C 149.20 500.29 149.33 494.03 149.33 487.93 Z" />
</svg>
