<?xml version="1.0" encoding="UTF-8" standalone="no"?>
<svg
   xmlns:dc="http://purl.org/dc/elements/1.1/"
   xmlns:cc="http://creativecommons.org/ns#"
   xmlns:rdf="http://www.w3.org/1999/02/22-rdf-syntax-ns#"
   xmlns:svg="http://www.w3.org/2000/svg"
   xmlns="http://www.w3.org/2000/svg"
   xmlns:sodipodi="http://sodipodi.sourceforge.net/DTD/sodipodi-0.dtd"
   xmlns:inkscape="http://www.inkscape.org/namespaces/inkscape"
   width="1280"
   height="1280"
   viewBox="0 0 1024 1024"
   version="1.1"
   id="svg2"
   inkscape:version="0.48.1 "
   sodipodi:docname="dispenser_heal_group.svg">
  <metadata
     id="metadata132">
    <rdf:RDF>
      <cc:Work
         rdf:about="">
        <dc:format>image/svg+xml</dc:format>
        <dc:type
           rdf:resource="http://purl.org/dc/dcmitype/StillImage" />
      </cc:Work>
    </rdf:RDF>
  </metadata>
  <defs
     id="defs130" />
  <sodipodi:namedview
     pagecolor="#ffffff"
     bordercolor="#666666"
     borderopacity="1"
     objecttolerance="10"
     gridtolerance="10"
     guidetolerance="10"
     inkscape:pageopacity="0"
     inkscape:pageshadow="2"
     inkscape:window-width="1920"
     inkscape:window-height="1018"
     id="namedview128"
     showgrid="false"
     fit-margin-top="0"
     fit-margin-left="0"
     fit-margin-right="0"
     fit-margin-bottom="0"
     inkscape:zoom="0.6609375"
     inkscape:cx="640"
     inkscape:cy="640"
     inkscape:window-x="-8"
     inkscape:window-y="-8"
     inkscape:window-maximized="1"
     inkscape:current-layer="svg2" />
  <path
     d="m 0,0 1024,0 0,1024 L 0,1024 0,0 z"
     id="path4"
     style="fill:#3e3e3e"
     inkscape:connector-curvature="0" />
  <path
     d="m 827.82,72.88 c 19.84,-3.78 40.1,-2.06 60.18,-2.44 33.24,-0.86 66.28,3.56 99.38,6.12 -52.26,3.76 -106.64,16.76 -147.54,51.26 -8.58,6.58 -14.76,15.66 -22.68,22.84 -8.12,1.94 -17.88,-0.38 -24.36,6.08 -9.62,7.28 -8.1,20.48 -8.2,31.12 -12.8,2.6 -28.66,-2.4 -38.84,7.86 -8.28,8.1 -5.22,20.54 -2.8,30.48 2.5,8.68 2.58,18.9 9.08,25.84 8.58,7.72 20.98,6.68 31.7,7.26 0.2,9.5 -1.08,19.16 0.86,28.54 1.48,6.7 6.68,11.5 11.72,15.76 12.94,53.68 36.82,104 64.06,151.8 21.26,37.32 39.34,76.86 49.48,118.74 8.26,34.22 10.82,70.26 4.02,104.98 -15.3,0.4 -30.6,0.24 -45.9,0.46 -5.48,0.26 -11.84,0.2 -15.92,4.5 -5.3,5.16 -6.86,12.78 -6.86,19.92 -0.12,11 -1.36,21.98 -1.48,33 -11.9,-0.26 -23.8,-0.42 -35.7,-0.6 -8.06,-0.2 -16.16,4.7 -19,12.38 -1.34,4.28 -1.38,8.82 -1.66,13.28 -0.64,15.98 -2.62,31.9 -2.68,47.88 -0.16,7.02 3.74,13.04 8.9,17.44 -66.42,33.62 -141.62,46.46 -215.58,45.9 -56.84,-2.04 -114.24,-11.1 -166.38,-34.66 56.14,5.58 113.14,5.64 168.86,-4.02 48.14,-8.48 96.28,-24.52 135.16,-54.98 29.66,-23.08 51.88,-55.48 62.5,-91.54 4.64,-14.74 7.02,-30.06 8.8,-45.36 7.14,-0.62 14.88,-0.56 21.08,-4.74 6.22,-4.44 8.34,-12.72 7.92,-20 -0.58,-10.3 -0.6,-20.6 -0.72,-30.9 11.62,1.52 23.38,1.38 35.04,2.72 7.12,0.74 15.6,1.12 20.78,-4.8 5.38,-4.72 5.44,-12.34 5.46,-18.92 -0.2,-16.66 -0.18,-33.32 -0.26,-49.98 0.06,-6.48 -1.52,-13.36 -6.26,-18.06 -4.14,-4.22 -10.46,-4.46 -15.98,-4.72 -13.16,-0.12 -26.32,-0.44 -39.48,-0.24 -0.14,-15.22 -0.28,-30.5 -1.8,-45.66 -0.9,-8.94 -9.74,-16.16 -18.64,-15.38 -15.34,1.22 -30.72,1.68 -46.04,3.06 -13.06,-43.14 -24.8,-86.76 -32.42,-131.2 -6.22,-36.16 -9.5,-73.06 -6.18,-109.68 3.18,-31.84 13.82,-64.68 37.66,-87.12 21.76,-20.74 51.6,-29.92 80.72,-34.22 z"
     id="path6"
     inkscape:connector-curvature="0"
     style="fill:#f5722c" />
  <path
     d="m 421.26,88.36 c 27.18,-1.28 54.38,-0.56 81.56,-1.02 17.7,-0.46 35.4,-0.62 53.12,-0.82 12.28,-1.42 23.5,7.6 29.18,17.78 -130.82,4.98 -261.74,8.48 -392.6,12.3 3.56,-8.54 10.36,-14.98 16.94,-21.2 3.28,-3.24 7.8,-4.72 12.36,-4.62 66.46,-1.3 132.96,-1.82 199.44,-2.42 z"
     id="path8"
     inkscape:connector-curvature="0"
     style="fill:#f5e5c1" />
  <path
     d="m 186.8,128.84 c 129.08,-5.18 258.16,-10.08 387.24,-14.74 5.56,-0.72 11.22,-0.76 16.52,1.32 3.42,12.58 0.94,25.7 1.22,38.54 -0.34,7.28 1.42,15.32 -3.04,21.72 -2.82,-0.82 -5.58,-1.98 -8.52,-2.18 -122.88,3.3 -245.84,1.22 -368.76,1.6 -5.66,-9.44 -10.98,-20.06 -20.9,-25.74 -6.92,-4.2 -4.44,-13.84 -3.76,-20.52 z"
     id="path10"
     inkscape:connector-curvature="0"
     style="fill:#f5e5c1" />
  <path
     style="fill:#f5e5c1"
     d="M 161.25 165.78125 C 151.18229 165.72814 141.10625 167.06719 131.4375 169.8125 C 105.2875 177.2875 82.2875 195.2625 69.0625 219.0625 C 52.8875 247.2875 51.16875 283.1625 64.21875 312.9375 C 80.91875 352.7625 124.21875 379.3375 167.34375 375.6875 C 197.51875 374.0375 226.425 358.54375 244.5 334.34375 C 263.5 309.41875 270.5125 275.6875 262.5625 245.3125 C 254.7875 212.8375 230.28125 185.03125 199.15625 173.03125 C 187.11875 168.25 174.1942 165.84953 161.25 165.78125 z M 158.46875 183.5625 C 187.71169 182.82576 216.93125 197.52187 233.46875 221.90625 C 220.49375 210.43125 205.6125 200.36875 188.3125 196.96875 C 160.9375 190.66875 130.7625 198.5625 110.0625 217.5625 C 90.0125 235.5625 79.04375 263.1875 81.46875 290.0625 C 82.44375 304.3875 87.91875 317.90625 94.71875 330.40625 C 80.19375 312.90625 71.425 290.3875 73 267.4375 C 73.85 228.5375 104.1625 192.99375 142.3125 185.59375 C 147.64844 184.36328 153.05339 183.69893 158.46875 183.5625 z M 218.25 216.375 C 220.98071 216.23975 223.79688 217.89062 225.4375 220.375 C 227.3875 226.075 222.2875 230.1875 219.3125 234.3125 C 210.8875 244.1375 202.7875 254.2625 194.0625 263.8125 C 195.0125 273.1875 195.3125 283.675 188.9375 291.375 C 180.3625 303.925 162.325 308.0375 149 300.9375 C 141.575 297.4125 137.2125 290.13125 132.6875 283.65625 C 139.6875 289.85625 147.375 297.30625 157.5 296.65625 C 175.6 297.75625 191.2 277.44375 184.25 260.34375 C 181.8 250.49375 172.90625 244.7625 164.40625 240.5625 C 172.45625 242.5125 180.0875 245.75625 186.9375 250.40625 C 195.7125 239.73125 204.16875 228.725 213.71875 218.75 C 214.99375 217.18437 216.61157 216.45615 218.25 216.375 z "
     transform="scale(0.8,0.8)"
     id="path12" />
  <path
     d="m 832.12,161.08 c 8.18,-1.36 16.58,-3.98 24.9,-2.14 2.7,2.2 4.36,5.48 4.64,8.94 1.22,9.84 1.24,19.76 2,29.64 9.38,0.26 18.96,-1.76 28.22,0.18 6.52,2.68 4.94,10.78 4.1,16.28 -1.86,9.74 -1.7,19.94 -5.02,29.32 -5.84,6.84 -16.26,3 -24.06,3.94 0.28,10.94 2.34,21.86 1.74,32.82 -1.18,6.84 -9.06,7.34 -14.54,7.66 -16.2,1.08 -32.32,2.84 -48.5,3.86 -5.38,0.68 -9.92,-4.12 -9.78,-9.36 -0.6,-11.64 -0.02,-23.3 0.5,-34.92 -10.68,-0.42 -21.64,0.88 -32.06,-1.82 -5.52,-1.1 -6.16,-7.24 -7.34,-11.72 -1.7,-8.54 -4.88,-16.96 -4.6,-25.78 0.16,-3.94 4.26,-6.5 7.92,-6.64 12.04,-0.8 24.14,-0.74 36.2,-1.14 0.26,-9.3 -0.2,-18.6 0.5,-27.88 0.02,-3.84 3.02,-7.58 6.98,-7.84 9.34,-1.58 18.86,-1.68 28.2,-3.4 z"
     id="path16"
     inkscape:connector-curvature="0"
     style="fill:#f5722c" />
  <path
     d="m 218.3,193.22 c 122.02,-2.04 244.04,-4.8 366.06,-6.82 -0.06,46.52 -0.06,93.04 -0.02,139.56 1.28,19.58 0.44,39.2 0.48,58.8 -11.1,-0.2 -22.18,-0.24 -33.26,-0.3 -0.36,-45.46 -0.66,-90.92 -1.32,-136.38 -1.1,-11.34 0.36,-22.86 -1.32,-34.12 -6.86,-7.56 -14.58,-14.56 -22.78,-20.6 -30.66,-1.2 -61.44,0.8 -92.16,0.34 -58,1.34 -116.02,1.2 -174.04,1.96 -6.1,-0.62 -10,4.6 -13.9,8.38 -5.24,5.52 -12.06,11.52 -11.22,19.94 -0.4,52.16 -0.64,104.32 -1.84,156.46 -12.12,-0.48 -24.24,-0.94 -36.36,-0.72 0.26,-29.94 -1.64,-59.84 -1.24,-89.78 -0.34,-3.92 2.98,-6.56 4.98,-9.5 19.66,-23.96 25.84,-57.48 17.94,-87.22 z"
     id="path20"
     inkscape:connector-curvature="0"
     style="fill:#f5e5c1" />
  <path
     style="fill:#f5e5c1"
     d="M 741.15625 271.59375 C 741.30625 292.06875 740.98125 312.525 741.28125 333 C 746.00625 337.4 750.70625 341.825 755.40625 346.25 C 759.03125 346.15 762.8 344.88125 766.375 346.03125 C 769.775 348.90625 766.8125 353.7875 766.8125 357.4375 C 770.7625 361.4625 775.70625 364.09375 781.28125 365.09375 C 780.25625 373.61875 774.625 381.09375 775.25 389.84375 C 775.35 399.26875 775.7 408.66875 776.125 418.09375 C 778.375 420.94375 780.43125 423.94375 782.28125 427.09375 C 777.45625 431.11875 770.64375 434.14375 769.09375 440.84375 C 766.86875 447.94375 764.44375 455.025 763.21875 462.375 C 763.41875 467.8 765.9125 472.8 767.1875 478 C 763.5875 480.175 760.03125 482.34375 756.40625 484.46875 C 753.15625 494.66875 749.8125 504.86875 746.5625 515.09375 C 748.3625 519.29375 750.5625 523.36875 751.6875 527.84375 C 750.1625 534.81875 747.11875 541.4 745.46875 548.375 C 753.31875 545.625 762.98125 544.1625 769.90625 549.9375 C 779.73125 556.8125 781.3875 571.9625 773.3125 580.8125 C 767.3125 588.5375 756.6375 589.7125 747.9375 586.4375 C 748.4875 598.0875 748.775 609.7625 749 621.4375 C 755.65 621.4375 762.325 621.4375 769 621.5625 C 770.475 607.5875 773.6625 593.84375 776.4375 580.09375 C 777.0625 575.56875 780.65 572.46875 783.5 569.21875 C 785.7 559.89375 778.8625 553.0375 775.8125 545.0625 C 778.2875 537.1375 789.44375 535.4625 792.21875 527.4375 C 795.46875 519.1625 798.7375 510.8375 801.3125 502.3125 C 800.9625 497.2125 799.1125 492.39375 798.4375 487.34375 C 800.5625 482.54375 806.1375 480.6625 810.0625 477.5625 C 813.2875 466.0125 816.86875 454.525 819.71875 442.875 C 818.01875 439.925 814.36875 437.04375 815.71875 433.21875 C 818.24375 428.79375 823.23125 425.6375 823.90625 420.3125 C 825.65625 408.4375 827.675 396.54375 828.375 384.59375 C 825.475 379.71875 820.0125 377.04375 816.4375 372.71875 C 816.5125 363.84375 825.4625 356.975 823.3125 347.875 C 822.4125 337.625 819.38125 327.64375 813.53125 319.09375 C 807.05625 317.34375 800.6375 315.39375 794.3125 313.21875 C 793.2875 306.66875 793.8125 299.59375 791.1875 293.46875 C 784.4125 287.64375 776.95 282.6125 769.25 278.0625 C 763.3 273.9875 756.74375 279.7125 750.34375 279.5625 C 746.61875 277.7875 744.10625 274.36875 741.15625 271.59375 z M 764.75 290.3125 C 776.09244 290.5869 786.425 300.61406 785.75 312.46875 C 785.475 327.91875 766.09375 338.9125 753.09375 329.6875 C 737.89375 321.2125 741.28125 295.14375 758.40625 291.21875 C 760.51172 290.55078 762.64955 290.26168 764.75 290.3125 z M 795 325 C 806.99866 324.67914 818.67812 334.93594 816.90625 347.71875 C 817.30625 365.29375 792.59375 373.95625 781.09375 361.40625 C 769.64375 351.45625 774.325 331.1625 788.375 326.3125 C 790.53516 325.47656 792.77803 325.05942 795 325 z M 802.90625 378 C 815.128 378.11801 826.47031 389.80078 823.8125 402.5625 C 822.5125 420.6125 794.9875 427.85 785.5625 412.125 C 777.2875 400.9 782.74375 383.3375 796.09375 379.1875 C 798.33203 378.35156 800.64296 377.97815 802.90625 378 z M 791.90625 433 C 805.67656 433.13193 817.71563 448.37812 811.65625 461.875 C 807.05625 475.65 787.65 480.6125 777.375 470.0625 C 765.225 459.7625 770.5375 437.7875 785.9375 433.9375 C 787.92813 433.29062 789.93906 432.98115 791.90625 433 z M 773.46875 486.4375 C 782.23145 486.31333 791.11094 491.57188 794.09375 500.125 C 799.81875 512.875 789.10625 529.36875 775.03125 528.96875 C 763.45625 529.84375 752.34375 519.11875 753.21875 507.46875 C 753.01875 500.04375 757.19375 492.8625 763.59375 489.1875 C 766.62422 487.35938 770.03987 486.48609 773.46875 486.4375 z "
     transform="scale(0.8,0.8)"
     id="path22" />
  <path
     d="m 606.7,238.92 c 7.34,-4.6 17.78,2.84 16.46,11.2 -0.38,7.5 -9.86,13.28 -16.5,9.04 -8.14,-3.58 -8.1,-16.66 0.04,-20.24 z"
     id="path26"
     inkscape:connector-curvature="0"
     style="fill:#f5e5c1" />
  <path
     d="m 263.44,266.94 c 3.22,-7.64 8.4,-14.32 12.38,-21.6 81.42,0.24 162.8,1.52 244.22,1.72 5.62,-0.12 11.16,1.08 16.66,2.12 -0.28,45.1 -0.2,90.2 -0.38,135.28 -41.42,-1.8 -82.92,-0.92 -124.36,-1.94 -51.84,-0.44 -103.68,-1.7 -155.52,-1.92 3.98,-37.74 4.16,-75.82 7,-113.66 z"
     id="path28"
     inkscape:connector-curvature="0"
     style="fill:#f5e5c1" />
  <path
     d="m 632.74,265.12 c 8.78,-3.64 18.94,5.84 15.38,14.78 -2.36,9.02 -16.02,10.84 -20.94,3.18 -4.68,-5.92 -1.48,-15.62 5.56,-17.96 z"
     id="path32"
     inkscape:connector-curvature="0"
     style="fill:#f5e5c1" />
  <path
     d="m 636.76,309.12 c 6.64,-3.12 15.54,1.26 16.24,8.76 1.64,8.62 -8.8,16.28 -16.44,11.74 -8.38,-3.6 -8.06,-16.96 0.2,-20.5 z"
     id="path36"
     inkscape:connector-curvature="0"
     style="fill:#f5e5c1" />
  <path
     d="m 102.22,312.58 c 16.02,3.64 32.22,1.68 48.32,-0.1 -0.04,3.26 -0.06,6.54 -0.1,9.82 -16.06,-0.02 -32.12,-0.02 -48.18,-0.02 -0.02,-3.24 -0.02,-6.46 -0.04,-9.7 z"
     id="path38"
     inkscape:connector-curvature="0"
     style="fill:#f5e5c1" />
  <path
     d="m 84.56,327.8 c 26.76,-0.02 53.5,-0.02 80.24,0 0.02,14.98 -0.04,29.96 0.02,44.96 -26.78,0.02 -53.56,-0.06 -80.36,0.02 0.2,-14.98 0.02,-29.98 0.1,-44.98 z"
     id="path40"
     inkscape:connector-curvature="0"
     style="fill:#f5e5c1" />
  <path
     d="m 628.78,352.98 c 6.76,-3.14 15.86,1.26 16.36,8.98 1.42,8.54 -8.98,15.98 -16.5,11.42 -8.26,-3.64 -8.02,-16.8 0.14,-20.4 z"
     id="path44"
     inkscape:connector-curvature="0"
     style="fill:#f5e5c1" />
  <path
     d="m 79.18,381.72 c 12.46,-4.76 25.98,-2.56 38.98,-3 13.06,0.32 26.2,-1.04 39.24,0.22 13.6,4.26 23.06,18.74 22,32.92 -0.92,15.76 -0.46,31.56 -0.54,47.36 -39.8,-0.08 -79.6,0.02 -119.4,-0.06 0.38,-16.38 -0.96,-32.74 -0.64,-49.12 0.36,-12.38 9.22,-23.5 20.36,-28.32 z"
     id="path46"
     inkscape:connector-curvature="0"
     style="fill:#f5e5c1" />
  <path
     d="m 190.38,390.76 c 13.06,-2.64 26.44,-0.36 39.64,-0.44 78.02,0.34 156,2 234.02,2.76 40.22,0.22 80.4,1.14 120.62,1.66 2.48,6.34 5.22,13.4 2.58,20.16 -2.76,8.3 -6.04,17.4 -12.9,23.12 -19.44,0.5 -38.94,0.56 -58.36,-0.48 -108.5,-0.08 -216.98,0.08 -325.46,-0.14 -0.66,-15.56 0.96,-31.1 -0.14,-46.64 z"
     id="path48"
     inkscape:connector-curvature="0"
     style="fill:#f5e5c1" />
  <path
     d="m 614.5,396.66 c 6.74,-3.72 15.58,1.96 16.16,9.34 1.02,8.18 -8.72,15.46 -16.14,11.4 -8.62,-3.24 -8.66,-17.5 -0.02,-20.74 z"
     id="path52"
     inkscape:connector-curvature="0"
     style="fill:#f5e5c1" />
  <path
     style="fill:#f5e5c1"
     d="M 878.03125 534.8125 C 865.90625 536.1375 853.7625 537.75625 841.8125 540.03125 C 835.9625 542.83125 832.575 548.98125 827.25 552.65625 C 823.2 553.73125 819.2375 551.1625 815.3125 550.4375 C 805.8125 560.7625 794.81875 569.825 786.34375 581 C 782.34375 594.2 780.9875 608.0625 777.6875 621.4375 C 787.9125 620.8625 798.475 622.7375 808.5 620.4375 C 816.9 614.7125 826.98125 613.7 836.90625 614.125 C 839.70625 610.45 842.45 606.775 845.125 603 C 844.075 599.225 841.7 595.0375 844.625 591.4375 C 851.1 590.1375 855.425 595.9625 860 599.4375 C 862.3 599.2125 866.91875 598.7875 869.21875 598.5625 C 868.71875 594.5625 868.2125 590.56875 867.6875 586.59375 C 860.2875 585.74375 852.15 583.85625 847.875 577.15625 C 840.1 567.08125 844.23125 551.04375 855.65625 545.71875 C 863.55625 541.29375 872.7875 544.14375 879.9375 548.59375 C 883.5875 547.76875 887.19375 546.9 890.84375 546 C 886.96875 541.95 883.70625 536.3375 878.03125 534.8125 z M 816.59375 570.1875 C 827.09042 569.62765 837.83906 576.72891 839.0625 587.71875 C 841.7125 600.31875 830.76875 613.56875 817.71875 612.21875 C 806.76875 612.94375 797.475 602.94375 796.75 592.46875 C 796.35 583.36875 802.34375 574.4625 810.84375 571.3125 C 812.70703 570.66016 814.64992 570.29118 816.59375 570.1875 z "
     transform="scale(0.8,0.8)"
     id="path54" />
  <path
     d="m 680.94,446.78 c 3,-6.84 11.1,-6.74 17.22,-4.96 -3.98,6.62 -5.54,14.24 -4.84,21.92 -8.68,0.5 -17.2,-8.5 -12.38,-16.96 z"
     id="path56"
     inkscape:connector-curvature="0"
     style="fill:#f5e5c1" />
  <path
     d="m 598.9,442.94 c 7.28,-4.46 17.68,2.54 16.46,10.96 -0.04,8.36 -11.06,13.86 -17.68,8.56 -7.1,-4.38 -6.42,-16.1 1.22,-19.52 z"
     id="path58"
     inkscape:connector-curvature="0"
     style="fill:#f5e5c1" />
  <path
     d="m 712.38,449.42 c 25.88,-1.66 51.78,-3.34 77.66,-4.96 3.76,-0.06 10.42,-1.1 10.9,4.24 0.94,18.74 1.72,37.52 1.8,56.3 18.48,0.04 37,-0.12 55.46,0.62 4.36,-0.04 5.9,4.64 5.74,8.26 0.76,16.66 0.08,33.38 0.56,50.08 -0.26,4.22 0.74,9.06 -1.94,12.72 -2.62,1.42 -5.7,1 -8.52,1.04 -16.96,-0.72 -33.82,-2.6 -50.76,-3.36 -0.14,16.52 0.48,33.06 0.02,49.56 0.32,5.06 -5.52,5.74 -9.26,6.06 -19.4,1.6 -38.84,2.8 -58.22,4.8 -3.84,0.22 -7.84,0.88 -11.58,-0.34 -2.56,-1.98 -2.78,-5.32 -3.14,-8.24 -1.86,-19.36 -3.42,-38.76 -5.5,-58.08 -18.24,-1.24 -36.48,-2.36 -54.7,-3.78 -3.5,-0.14 -5.58,-3.34 -8.06,-5.34 0.4,-16.6 0.18,-33.2 0.12,-49.8 1.66,-1.88 3.32,-3.78 5,-5.64 17.2,-0.04 34.4,0 51.62,0.3 -1.16,-15.98 -3.24,-31.88 -4.28,-47.86 -0.64,-4.02 3.52,-6.6 7.08,-6.58 z"
     id="path60"
     inkscape:connector-curvature="0"
     style="fill:#f5722c" />
  <path
     style="fill:#f5e5c1"
     d="M 244.6875 576.90625 C 245.7625 679.18125 245.1375 781.45 245.3125 883.75 C 405.3125 883.7 565.3125 883.8625 725.3125 883.6875 C 727.8125 834.9375 730.8875 786.19375 733.5625 737.46875 C 733.2375 715.79375 737.8625 694.325 736.5625 672.625 C 733.8875 642 730.8125 611.4125 727.9375 580.8125 C 704.8375 582.9625 681.61875 580.61875 658.46875 581.21875 C 661.06875 607.51875 664.08125 633.80625 665.90625 660.15625 C 664.65625 666.88125 660.9625 677.0125 652.5625 676.4375 C 590.8875 676.3625 529.23125 675.09375 467.53125 675.34375 C 420.50625 673.59375 373.40625 674.93125 326.40625 673.15625 C 324.70625 673.90625 321.33125 675.4125 319.65625 676.1875 C 317.80625 673.6125 315.09375 671.21875 315.59375 667.71875 C 315.64375 642.61875 315.725 617.53125 315.625 592.40625 C 315.125 587.23125 317.26875 582.50625 319.59375 578.03125 C 294.64375 576.45625 269.6625 577.18125 244.6875 576.90625 z M 407.5 750.5 C 412.4751 750.39404 417.51562 750.84375 422.46875 750.75 C 476.56875 752.05 530.7 751.175 584.75 753.375 C 589.325 753.2 591.9 757.4625 594.625 760.4375 C 599.075 766.4875 605.1625 772.4 605.4375 780.375 C 606.3375 794.4 606.44375 808.5 607.84375 822.5 C 608.31875 830.375 610.3625 840.1375 602.6875 845.3125 C 594.0125 852.0375 587.21875 864.1375 575.09375 864.0625 C 517.46875 865.5375 459.84375 866.375 402.21875 867.125 C 393.34375 867.725 389.73125 858.05625 384.40625 852.78125 C 381.03125 847.65625 373.71875 844.4125 373.96875 837.5625 C 373.96875 820.8625 374.19375 804.175 373.96875 787.5 C 374.11875 781.55 373.2 774.74375 377.75 770.09375 C 383.85 763.06875 390.73125 756.45625 398.65625 751.53125 C 401.57188 750.8375 404.51494 750.56357 407.5 750.5 z "
     transform="scale(0.8,0.8)"
     id="path64" />
  <path
     d="m 648.6,462.66 c 6.76,-4.36 16.8,1.34 16.72,9.34 0.86,7.18 -6.44,13.42 -13.42,11.64 -10.28,-0.92 -12.52,-16.72 -3.3,-20.98 z"
     id="path66"
     inkscape:connector-curvature="0"
     style="fill:#f5e5c1" />
  <path
     style="fill:#f5e5c1"
     d="M 338.125 581.34375 C 333.79341 581.63838 330.17813 584.55 326.4375 586.5625 C 326.6375 611.4875 326.51875 636.3875 326.46875 661.3125 C 342.34375 664.7875 358.75 662.7625 374.875 663.5625 C 467.65 663.3375 560.4125 665.425 653.1875 665.625 C 654.6125 659.725 654.875 653.65625 654.125 647.65625 C 652.1 627.30625 650.15625 606.9125 648.15625 586.5625 C 545.45625 584.6875 442.73125 583.63125 340.03125 581.40625 C 339.38125 581.33125 338.7438 581.30166 338.125 581.34375 z M 372.15625 590.5625 C 380.58203 590.26602 389.15 593.48125 394.53125 600.15625 C 401.25625 608.80625 409.46875 618.3125 408.34375 630.0625 C 407.36875 647.1125 388.65625 660.45 372.28125 654.75 C 360.83125 651.525 354.56875 640.4375 348.59375 631.0625 C 340.71875 616.8125 348.55625 597.25625 363.90625 592.03125 C 366.5625 591.15 369.34766 590.66133 372.15625 590.5625 z M 487.90625 591.15625 C 494.76514 590.95996 501.70312 593.3125 506.875 597.90625 C 515.975 605.48125 526.5875 614.44375 526.1875 627.46875 C 526.8375 644.81875 509.21875 658.74375 492.46875 655.96875 C 477.89375 654.79375 468.89375 641.625 463.09375 629.625 C 457.31875 616.8 463.5625 600.5125 476.0625 594.3125 C 479.70937 592.2875 483.79092 591.27402 487.90625 591.15625 z M 607.59375 593.4375 C 616.38898 593.30551 625.25938 597.29688 630.3125 604.6875 C 634.6375 611.2125 639.05 617.78125 642.375 624.90625 C 649.3 641.45625 635.6 662.3625 617.5 661.9375 C 604.05 663.5125 594.13125 652.875 586.65625 643.25 C 575.65625 629 578.5 604.05 596 596.25 C 599.60156 594.40625 603.59592 593.4975 607.59375 593.4375 z "
     transform="scale(0.8,0.8)"
     id="path68" />
  <path
     d="m 54.42,469.66 c 3.12,-0.9 6.42,-0.6 9.62,-0.7 40.56,0.3 81.12,-0.24 121.68,0.3 -0.02,22.32 0.2,44.64 -0.14,66.98 -41.86,0.22 -83.68,-0.26 -125.54,0.12 -3.26,-0.08 -9.2,-0.04 -9.18,-4.62 -0.42,-15.24 0.06,-30.5 -0.2,-45.74 0.1,-5.6 -0.96,-12.18 3.76,-16.34 z"
     id="path70"
     inkscape:connector-curvature="0"
     style="fill:#f5e5c1" />
  <path
     d="m 294.76,479.24 c 11.14,-6.22 26.1,4.12 24.54,16.68 0.02,12.68 -15.54,22.12 -26.48,15.04 -11.9,-6.54 -11.28,-26.98 1.94,-31.72 z"
     id="path78"
     inkscape:connector-curvature="0"
     style="fill:#f5e5c1" />
  <path
     d="m 386.96,479.36 c 12.58,-5.56 27.54,7.7 22.7,20.76 -3.02,12.12 -20.28,15.78 -28.52,6.88 -8.08,-8.02 -5.32,-23.88 5.82,-27.64 z"
     id="path80"
     inkscape:connector-curvature="0"
     style="fill:#f5e5c1" />
  <path
     d="m 480.64,480.86 c 13.38,-6.24 28.92,9.52 23.18,22.9 -3.48,10.88 -18.52,15.02 -27.04,7.36 -10.34,-7.44 -8.46,-25.92 3.86,-30.26 z"
     id="path82"
     inkscape:connector-curvature="0"
     style="fill:#f5e5c1" />
  <path
     d="m 594.08,505 c 15.86,-0.46 31.74,0.02 47.62,-0.28 -1.2,11.26 -0.48,22.6 -0.68,33.9 -14.62,0.02 -29.22,-0.06 -43.84,0.06 -1.64,-11.16 -2.46,-22.42 -3.1,-33.68 z"
     id="path84"
     inkscape:connector-curvature="0"
     style="fill:#f5e5c1" />
  <path
     style="fill:#f5e5c1"
     d="M 750.9375 682.84375 C 750.6875 689.41875 750.44375 695.99375 750.34375 702.59375 C 756.39375 703.06875 763.2625 702.4125 768.0625 706.9375 C 778.2125 714.4625 778.94375 731.025 769.21875 739.25 C 763.84375 745.225 755.43125 744.55 748.15625 744.375 C 747.78125 762.875 745.65 781.375 746.375 799.875 C 750.8 808.8 758.01875 816.0375 763.84375 824.0625 C 768.64375 823.1125 774.0125 819.0875 778.8125 820.9375 C 781.2375 827.2625 780.85625 834.19375 781.53125 840.84375 C 792.73125 842.84375 803.7125 846.14375 815.0625 846.96875 C 820.4625 847.51875 823.5375 842.3 826.6875 838.875 C 836.8125 826 846.9875 813.16875 857.0625 800.21875 C 854.0125 796.96875 850.81875 793.8375 848.21875 790.1875 C 849.39375 781.4875 860.1625 779.45 864.6875 772.75 C 862.0875 755.625 855.54375 739.3875 851.09375 722.6875 C 844.81875 721.9125 838.525 721.33125 832.25 720.90625 C 827.425 725.35625 822.23125 730.2875 815.28125 730.6875 C 801.90625 732.1875 789.0875 718.31875 792.5625 705.09375 C 793.6125 699.49375 797.7 695.3 801.125 691 C 801.2 688.325 801.30625 685.65 801.40625 683 C 794.73125 682.95 788.0625 682.9375 781.4375 682.9375 C 786.8375 699.9125 792.125 716.94375 797.375 733.96875 C 801.775 734.84375 806.26875 735.5125 810.59375 736.9375 C 813.66875 744.0375 806.79375 750.38125 804.34375 756.65625 C 806.91875 763.53125 809.43125 770.43125 812.15625 777.28125 C 816.40625 778.98125 820.8375 780.95625 819.1875 786.40625 C 815.2375 784.83125 811.39375 783.10625 807.34375 781.90625 C 801.16875 782.20625 801.15 793.1375 794.125 791.5625 C 794.9 787.9375 796.8125 784.5 796.8125 780.75 C 794.1625 774.55 790.70625 768.65 786.53125 763.375 C 782.73125 762.125 778.7125 761.85625 774.8125 761.15625 C 779.1875 750.95625 787.8375 741.7875 785.4375 729.8125 C 782.3125 713.9125 776.15 698.7625 771.75 683.1875 C 764.825 682.9625 757.8875 682.91875 750.9375 682.84375 z M 834.46875 735.625 C 843.34777 735.73989 852.04531 741.43281 854.625 750.1875 C 859.775 763.1375 848.60625 778.1125 835.03125 778.3125 C 823.83125 778.5875 813.1625 768.9875 813.3125 757.5625 C 812.6375 748.1375 819.55 739.19375 828.375 736.46875 C 830.37188 735.87344 832.41974 735.59849 834.46875 735.625 z M 769.46875 763.96875 C 782.14922 764.0819 794.15469 776.96406 790.4375 790.1875 C 787.6375 805.1625 767.11875 812.14375 755.96875 801.59375 C 744.21875 792.46875 746.95625 771.6875 760.78125 766.0625 C 763.59375 764.57656 766.54249 763.94264 769.46875 763.96875 z M 815.15625 788.03125 C 826.721 787.82278 838.09766 797.74531 836.9375 809.9375 C 837.8125 826.2875 815.99375 837.20625 803.46875 826.53125 C 789.51875 817.50625 793.0375 794.125 808.8125 789.25 C 810.89062 788.46875 813.01463 788.06985 815.15625 788.03125 z "
     transform="scale(0.8,0.8)"
     id="path86" />
  <path
     d="m 176.06,561.6 c 3.34,0.06 6.52,-1.02 9.68,-2.02 -0.64,30.88 -0.84,61.76 -2.28,92.62 0.28,11.16 -10.28,21.02 -21.34,20.4 -26.04,-0.4 -52.1,-0.14 -78.14,-0.22 -6.48,-0.2 -14.04,-0.36 -18.48,-5.88 -5.86,-6.02 -4.36,-14.98 -4.5,-22.58 0.4,-13.06 -0.86,-26.18 0.02,-39.2 4.02,-9.16 8.24,-19.02 16.72,-24.96 11.16,-8.6 23.34,-18.54 38.22,-18.2 20.04,-0.06 40.06,0 60.1,0.04 z"
     id="path88"
     inkscape:connector-curvature="0"
     style="fill:#f5e5c1" />
  <path
     d="m 641.72,576.3 c -5.14,-4.24 -3.1,-11.2 -1.44,-16.62 2.02,9.1 10.2,13.16 16.96,18.32 -5.1,1.08 -11.6,2.96 -15.52,-1.7 z"
     id="path90"
     inkscape:connector-curvature="0"
     style="fill:#f5e5c1" />
  <path
     d="m 599.04,566.92 c 6.38,0.06 13.88,3.68 14.12,10.9 1.18,8.68 -8.54,14.36 -16.2,11.92 0.4,-7.64 1.24,-15.22 2.08,-22.82 z"
     id="path92"
     inkscape:connector-curvature="0"
     style="fill:#f5e5c1" />
  <path
     d="m 662.62,594.98 c 7.06,-2.66 15.7,3.28 15,10.94 0.6,8.46 -10.1,14.34 -17.06,9.64 -8.28,-4.3 -6.88,-18 2.06,-20.58 z"
     id="path96"
     inkscape:connector-curvature="0"
     style="fill:#f5e5c1" />
  <path
     d="m 608.9,618.82 c 6.9,-5.4 18.1,0.6 17.92,9.22 0.42,8.5 -9.76,14.38 -17,10.16 -7.22,-3.56 -7.64,-15.14 -0.92,-19.38 z"
     id="path102"
     inkscape:connector-curvature="0"
     style="fill:#f5e5c1" />
  <path
     d="m 319.06,636.34 c 4.56,-4.48 7.2,-13.66 14.86,-12.76 40.6,1.66 81.26,0.3 121.88,1.6 6.18,0.78 11.52,4.46 17.26,6.68 0.24,11.76 1.74,23.46 1.84,35.24 -5.98,4.48 -10.46,13.1 -18.82,12.64 -44.22,1.18 -88.46,1.38 -132.68,2.64 -1.64,-15.32 -3.88,-30.6 -4.34,-46.04 z"
     id="path104"
     inkscape:connector-curvature="0"
     style="fill:#f5e5c1" />
  <path
     d="m 648.8,636.98 c 7.96,-2.8 16.74,4.9 14.58,13.2 -1.1,9.2 -14.72,12.38 -19.98,4.78 -5.02,-5.8 -1.96,-15.94 5.4,-17.98 z"
     id="path108"
     inkscape:connector-curvature="0"
     style="fill:#f5e5c1" />
  <path
     d="m 34.7,658.84 c 7.64,-3.72 19.34,1.9 18.92,11 0,19.44 0.16,38.9 -0.06,58.32 0.26,7.82 -8.54,12.86 -15.62,11.46 -7.52,-0.64 -12.66,-8.3 -12.58,-15.46 -0.04,-16.74 0,-33.48 0,-50.2 -0.24,-6.28 3.36,-12.8 9.34,-15.12 z"
     id="path110"
     inkscape:connector-curvature="0"
     style="fill:#f5e5c1" />
  <path
     d="m 88.26,721 c -0.44,-11.8 -1.2,-23.68 0.26,-35.44 26,0.64 52.02,-0.62 77.98,0.66 -0.3,9.2 0.54,18.44 -0.32,27.62 -1.36,2.6 -3.22,4.88 -4.94,7.26 -24.32,-0.06 -48.66,0.04 -72.98,-0.1 z"
     id="path112"
     inkscape:connector-curvature="0"
     style="fill:#f5e5c1" />
  <path
     d="m 61.34,687.8 c 6,-0.02 12.02,-0.02 18.02,-0.02 0.08,5.98 0.1,11.94 0.1,17.92 -6.06,-0.02 -12.12,-0.04 -18.18,-0.04 0.02,-5.96 0.02,-11.92 0.06,-17.86 z"
     id="path114"
     inkscape:connector-curvature="0"
     style="fill:#f5e5c1" />
  <path
     d="m 857.78,697.58 c 0.7,-5.94 7.56,-6.04 12.14,-6.04 18.04,0.1 36.1,-0.54 54.14,-0.32 4,-0.52 7.14,3.16 7.08,6.98 0.94,17.08 1.48,34.18 1.94,51.28 12.42,0.36 24.84,-0.12 37.24,0.44 4.4,-0.3 9.08,3.24 8.26,7.98 -2.12,15.42 -4.04,30.86 -6.42,46.24 -0.18,3.76 -3.2,6.52 -6.9,6.64 -10,0.88 -20.08,0.48 -30.06,1.56 0.18,17.92 1.84,35.84 1.68,53.76 0.38,3.98 -3.12,7.3 -7,7.16 -22.64,1.68 -45.34,2.06 -67.98,3.76 -4.7,0.84 -11.34,-1.26 -10.72,-7.1 -0.18,-18.22 1.66,-36.42 1.86,-54.64 -16.34,0.6 -32.66,1.92 -49,1.9 -4.08,0.52 -7.92,-2.94 -7.38,-7.1 0.22,-16.58 2.28,-33.08 2.82,-49.66 0.64,-4.02 -0.1,-10.62 5.16,-11.5 16.66,-1.08 33.42,0.6 50.12,-0.06 3.14,-16.82 1.02,-34.28 3.02,-51.28 z"
     id="path116"
     inkscape:connector-curvature="0"
     style="fill:#f5722c" />
  <path
     d="m 196.26,718.72 c 128.62,0.16 257.22,0.02 385.84,0.06 9,-0.14 20.28,4.78 20.5,15.14 0.52,28.52 0.1,57.08 0.38,85.62 -27.04,7.08 -55,9.96 -82.84,11.78 -32.8,1.2 -65.76,1.52 -98.42,-2.18 -4.94,-0.46 -10.18,-2.22 -14.94,-0.18 -7.22,3.94 -6.14,15.62 1,19.1 30.06,13.2 61.86,22.36 94.24,27.76 21.06,4.38 42.7,4.54 63.86,8.24 12.36,1.14 24.82,0.86 37.22,0.18 -0.14,9.9 -0.44,19.86 0.94,29.7 0.92,5.66 -3.4,11.54 -8.82,12.94 -51.06,-1.16 -102.2,0.04 -153.28,0.16 -74.62,0.52 -149.24,0.16 -223.86,0.8 -11.76,-0.14 -24.36,2.64 -35.38,-2.72 0.02,-59.74 0.06,-119.48 -0.06,-179.22 -0.62,-10.74 7.34,-19.34 13.62,-27.18 z"
     id="path118"
     inkscape:connector-curvature="0"
     style="fill:#f5e5c1" />
  <path
     d="m 95.44,739 c 19.44,0.06 38.88,0.02 58.34,0.02 -0.02,5.92 -0.04,11.82 -0.04,17.74 -17.6,-10.64 -40.74,-10.64 -58.32,0.06 0.04,-5.96 0.02,-11.9 0.02,-17.82 z"
     id="path120"
     inkscape:connector-curvature="0"
     style="fill:#f5e5c1" />
  <path
     style="fill:#f5e5c1"
     d="M 155.1875 945.8125 C 150.50656 945.85156 145.82031 946.36719 141.25 947.34375 C 130.65 949.94375 120.65625 955.16875 112.65625 962.59375 C 92.93125 980.19375 87.55625 1010.5063 97.65625 1034.5312 C 107.55625 1057.5312 132.08125 1073.8187 157.40625 1072.0938 C 189.58125 1072.8187 218.375 1044.3125 219 1012.3125 C 220.75 987.9625 206.5625 963.8375 184.9375 952.8125 C 175.79375 947.98281 165.48557 945.72656 155.1875 945.8125 z M 155.6875 966.3125 C 158.88139 966.34957 162.07422 966.78906 165.21875 967.65625 C 179.26875 970.73125 189.5125 982.1125 195.4375 994.6875 C 189.1125 989.0625 182.41875 983.2875 173.96875 981.3125 C 156.04375 975.7625 135.11875 984.70625 126.21875 1001.1562 C 119.71875 1012.1062 119.44375 1025.8562 124.09375 1037.5312 C 114.29375 1025.5062 109.9375 1008.7625 115.6875 993.9375 C 121.48828 977.44219 138.44048 966.11232 155.6875 966.3125 z "
     transform="scale(0.8,0.8)"
     id="path122" />
  <path
     d="m 164.16,931.82 c 148.7,0.08 297.4,0.06 446.08,-0.04 2.42,2.26 4.82,4.52 7.24,6.82 -0.04,7.1 0.52,14.26 -0.28,21.36 -4.32,8.98 -9.98,17.3 -14.98,25.92 -145.18,-0.34 -290.36,0.12 -435.54,-0.22 -3.08,-5.08 -6.74,-9.86 -9.16,-15.28 -0.82,-9.58 -0.08,-19.2 -0.32,-28.78 2.34,-3.26 4.66,-6.52 6.96,-9.78 z"
     id="path126"
     inkscape:connector-curvature="0"
     style="fill:#f5e5c1" />
</svg>
