<?xml version="1.0" encoding="UTF-8" ?>
<!DOCTYPE svg PUBLIC "-//W3C//DTD SVG 1.1//EN" "http://www.w3.org/Graphics/SVG/1.1/DTD/svg11.dtd">
<svg width="512pt" height="512pt" viewBox="0 0 512 512" version="1.1" xmlns="http://www.w3.org/2000/svg">
<path fill="#3e3e3e" opacity="1.00" d=" M 0.00 0.00 L 170.58 0.00 C 132.41 8.35 94.31 17.07 56.18 25.60 C 37.43 29.65 18.81 34.26 0.00 37.99 L 0.00 0.00 Z" />
<path fill="#f5e5c1" opacity="1.00" d=" M 170.58 0.00 L 263.72 0.00 C 181.30 18.79 98.95 37.87 16.56 56.81 C 15.85 59.14 15.36 61.59 15.89 64.01 C 21.04 96.00 25.89 128.04 30.97 160.04 C 32.62 173.24 36.65 185.98 39.50 198.94 C 52.82 254.64 66.17 310.33 79.53 366.02 C 80.63 370.57 81.34 375.32 83.62 379.48 C 87.64 386.99 91.64 394.52 95.67 402.02 C 137.86 387.46 180.03 372.81 222.15 358.06 C 215.54 355.05 208.59 352.63 202.47 348.67 C 194.00 341.78 185.73 334.64 177.53 327.44 C 171.88 321.88 166.83 315.73 161.84 309.58 C 164.10 309.15 166.37 308.73 168.64 308.32 C 174.22 314.09 178.75 320.86 185.02 325.96 C 191.14 330.85 197.07 335.96 202.90 341.19 C 207.24 345.35 213.18 346.90 218.35 349.71 C 221.67 351.53 225.25 352.96 229.05 353.30 C 237.92 354.82 245.58 348.87 254.05 347.37 C 248.40 348.84 242.65 347.40 236.99 346.80 C 226.55 345.01 216.49 341.15 207.44 335.66 C 198.82 329.69 191.46 322.14 182.89 316.11 C 179.57 313.64 176.56 310.80 173.50 308.03 C 174.97 307.65 176.45 307.29 177.92 306.93 C 182.92 310.68 187.65 314.77 192.65 318.53 C 193.33 316.75 194.01 314.97 194.67 313.19 C 193.79 312.04 192.86 310.92 192.12 309.68 C 192.62 307.47 193.86 305.54 194.84 303.53 C 197.06 303.74 199.59 303.10 201.52 304.51 C 207.60 308.31 212.89 313.21 218.93 317.07 C 218.38 319.49 218.22 322.34 216.27 324.12 C 214.15 324.17 212.05 323.83 209.93 323.94 C 207.66 324.78 206.28 326.94 204.67 328.61 C 217.10 338.71 233.26 343.07 249.01 344.19 C 256.13 342.50 263.60 341.57 270.17 338.15 C 276.96 333.42 283.33 327.64 287.06 320.12 C 292.29 311.57 293.45 301.41 295.44 291.79 C 296.61 286.50 298.70 281.41 299.17 275.98 C 299.60 272.20 299.53 268.15 301.61 264.82 C 304.13 260.80 307.49 257.15 311.75 254.97 C 314.93 253.20 318.49 251.61 320.50 248.41 C 324.20 242.85 322.72 235.69 321.35 229.61 C 317.85 222.51 313.59 215.66 308.16 209.85 C 308.32 209.10 308.65 207.62 308.81 206.88 C 310.54 207.38 312.22 208.15 313.36 209.62 C 318.38 215.36 323.03 221.45 327.08 227.92 C 328.68 230.32 329.01 233.22 328.91 236.04 C 328.74 241.84 329.29 248.07 326.20 253.29 C 323.67 257.61 321.49 262.33 317.89 265.87 C 313.06 268.98 308.52 272.49 303.93 275.94 C 303.15 282.95 299.22 289.16 298.86 296.25 C 298.14 305.20 298.85 314.42 296.02 323.08 C 294.32 327.07 291.94 330.72 289.99 334.59 C 299.94 330.99 310.00 327.72 319.94 324.08 C 314.72 317.94 308.68 312.56 303.51 306.39 C 301.60 304.41 302.42 301.41 302.11 298.96 C 308.96 299.30 313.53 305.11 320.03 306.45 C 327.38 308.19 334.84 309.46 342.20 311.15 C 344.45 311.55 346.22 313.02 347.95 314.41 C 383.57 301.96 419.27 289.73 454.85 277.17 C 448.83 261.88 443.21 246.43 437.27 231.10 C 435.37 226.28 434.58 221.14 433.49 216.10 C 419.25 150.31 404.83 84.56 390.96 18.69 C 389.56 12.47 388.32 6.21 386.86 0.00 L 409.64 0.00 C 409.96 3.09 410.21 6.20 410.83 9.25 C 418.78 42.49 426.71 75.74 434.58 109.01 C 443.29 143.70 452.39 178.30 461.21 212.96 C 464.00 222.82 465.80 232.97 469.58 242.53 C 480.88 274.16 492.04 305.84 503.31 337.47 C 505.50 343.53 509.10 348.91 512.00 354.62 L 512.00 392.14 C 433.46 425.79 355.09 459.85 276.60 493.61 C 262.25 499.74 248.04 506.22 233.55 512.00 L 105.38 512.00 C 98.09 497.27 90.51 482.69 83.43 467.86 C 74.97 445.56 66.68 423.19 58.29 400.86 C 51.22 377.69 44.22 354.49 37.22 331.29 C 34.44 322.25 32.58 312.97 30.28 303.81 C 26.28 287.90 22.52 271.93 18.61 256.01 C 14.55 234.84 10.24 213.73 6.22 192.55 C 4.04 181.23 1.43 169.98 0.00 158.53 L 0.00 37.99 C 18.81 34.26 37.43 29.65 56.18 25.60 C 94.31 17.07 132.41 8.35 170.58 0.00 Z" />
<path fill="#3e3e3e" opacity="1.00" d=" M 263.72 0.00 L 275.49 0.00 C 234.20 9.11 192.98 18.56 151.73 27.86 C 141.98 30.72 131.70 30.88 122.01 33.98 C 90.41 41.55 58.73 48.75 27.10 56.20 C 23.52 57.02 19.45 58.94 18.64 62.91 C 18.50 67.36 19.82 71.69 20.48 76.05 C 27.68 117.78 34.74 159.53 42.09 201.23 C 42.98 205.55 43.01 210.06 44.38 214.27 C 45.19 216.69 48.09 217.21 50.20 216.30 C 52.02 214.76 51.77 212.14 52.13 210.01 C 52.59 202.48 52.58 194.93 53.30 187.43 C 53.69 183.88 53.23 179.64 56.04 176.94 C 61.83 173.38 69.34 173.95 74.95 170.01 C 77.63 168.00 77.50 164.35 77.95 161.36 C 82.59 158.46 87.21 155.24 92.52 153.71 C 95.80 154.27 99.42 157.20 102.59 154.68 C 105.68 152.81 105.57 148.94 105.74 145.79 C 107.95 143.82 111.75 142.45 111.78 139.01 C 111.79 134.66 109.91 130.57 108.06 126.73 C 106.97 124.14 104.20 123.15 101.91 121.94 C 97.77 116.00 90.50 114.25 84.28 111.39 C 83.73 106.89 83.53 102.35 83.53 97.82 C 87.42 95.82 92.43 94.71 94.68 90.60 C 97.65 83.45 95.48 74.81 100.26 68.31 C 104.57 60.49 111.92 55.17 119.25 50.43 C 128.44 45.77 138.59 42.67 148.95 42.59 C 153.84 43.25 158.78 44.54 163.12 46.92 C 166.64 50.33 167.88 55.36 170.92 59.15 C 174.94 64.43 182.00 65.83 186.65 70.34 C 188.98 77.49 187.64 85.32 189.78 92.51 C 191.83 96.60 196.96 97.21 200.34 99.80 C 201.08 101.61 201.36 103.57 201.82 105.46 C 196.46 107.65 188.26 107.59 186.44 114.31 C 185.23 119.19 183.65 126.37 189.09 129.27 C 193.93 130.60 199.01 129.53 203.94 129.46 C 210.26 128.91 216.33 131.01 222.46 132.17 C 226.34 133.02 230.38 133.49 234.04 135.14 C 239.07 137.80 243.07 142.00 246.55 146.43 C 251.24 152.36 256.61 157.71 261.59 163.38 C 263.34 165.28 265.03 167.29 267.19 168.74 C 274.73 165.81 281.54 161.22 288.80 157.64 C 293.52 154.95 299.20 153.08 302.22 148.24 C 307.17 140.55 312.13 132.87 317.15 125.24 C 320.58 119.94 324.37 114.80 326.74 108.91 C 332.06 95.94 337.64 83.09 342.89 70.10 C 355.02 74.10 366.80 79.06 378.81 83.40 C 383.16 84.94 387.37 87.27 392.05 87.58 C 396.82 87.60 399.65 82.27 398.34 78.00 C 393.00 52.00 387.66 26.00 382.33 0.00 L 386.86 0.00 C 388.32 6.21 389.56 12.47 390.96 18.69 C 404.83 84.56 419.25 150.31 433.49 216.10 C 434.58 221.14 435.37 226.28 437.27 231.10 C 443.21 246.43 448.83 261.88 454.85 277.17 C 419.27 289.73 383.57 301.96 347.95 314.41 C 346.22 313.02 344.45 311.55 342.20 311.15 C 334.84 309.46 327.38 308.19 320.03 306.45 C 313.53 305.11 308.96 299.30 302.11 298.96 C 302.42 301.41 301.60 304.41 303.51 306.39 C 308.68 312.56 314.72 317.94 319.94 324.08 C 310.00 327.72 299.94 330.99 289.99 334.59 C 291.94 330.72 294.32 327.07 296.02 323.08 C 298.85 314.42 298.14 305.20 298.86 296.25 C 299.22 289.16 303.15 282.95 303.93 275.94 C 308.52 272.49 313.06 268.98 317.89 265.87 C 321.49 262.33 323.67 257.61 326.20 253.29 C 329.29 248.07 328.74 241.84 328.91 236.04 C 329.01 233.22 328.68 230.32 327.08 227.92 C 323.03 221.45 318.38 215.36 313.36 209.62 C 312.22 208.15 310.54 207.38 308.81 206.88 C 308.65 207.62 308.32 209.10 308.16 209.85 C 313.59 215.66 317.85 222.51 321.35 229.61 C 322.72 235.69 324.20 242.85 320.50 248.41 C 318.49 251.61 314.93 253.20 311.75 254.97 C 307.49 257.15 304.13 260.80 301.61 264.82 C 299.53 268.15 299.60 272.20 299.17 275.98 C 298.70 281.41 296.61 286.50 295.44 291.79 C 293.45 301.41 292.29 311.57 287.06 320.12 C 283.33 327.64 276.96 333.42 270.17 338.15 C 263.60 341.57 256.13 342.50 249.01 344.19 C 233.26 343.07 217.10 338.71 204.67 328.61 C 206.28 326.94 207.66 324.78 209.93 323.94 C 212.05 323.83 214.15 324.17 216.27 324.12 C 218.22 322.34 218.38 319.49 218.93 317.07 C 212.89 313.21 207.60 308.31 201.52 304.51 C 199.59 303.10 197.06 303.74 194.84 303.53 C 193.86 305.54 192.62 307.47 192.12 309.68 C 192.86 310.92 193.79 312.04 194.67 313.19 C 194.01 314.97 193.33 316.75 192.65 318.53 C 187.65 314.77 182.92 310.68 177.92 306.93 C 176.45 307.29 174.97 307.65 173.50 308.03 C 176.56 310.80 179.57 313.64 182.89 316.11 C 191.46 322.14 198.82 329.69 207.44 335.66 C 216.49 341.15 226.55 345.01 236.99 346.80 C 242.65 347.40 248.40 348.84 254.05 347.37 C 245.58 348.87 237.92 354.82 229.05 353.30 C 225.25 352.96 221.67 351.53 218.35 349.71 C 213.18 346.90 207.24 345.35 202.90 341.19 C 197.07 335.96 191.14 330.85 185.02 325.96 C 178.75 320.86 174.22 314.09 168.64 308.32 C 166.37 308.73 164.10 309.15 161.84 309.58 C 166.83 315.73 171.88 321.88 177.53 327.44 C 185.73 334.64 194.00 341.78 202.47 348.67 C 208.59 352.63 215.54 355.05 222.15 358.06 C 180.03 372.81 137.86 387.46 95.67 402.02 C 91.64 394.52 87.64 386.99 83.62 379.48 C 81.34 375.32 80.63 370.57 79.53 366.02 C 66.17 310.33 52.82 254.64 39.50 198.94 C 36.65 185.98 32.62 173.24 30.97 160.04 C 25.89 128.04 21.04 96.00 15.89 64.01 C 15.36 61.59 15.85 59.14 16.56 56.81 C 98.95 37.87 181.30 18.79 263.72 0.00 Z" />
<path fill="#f5722c" opacity="1.00" d=" M 275.49 0.00 L 382.33 0.00 C 387.66 26.00 393.00 52.00 398.34 78.00 C 399.65 82.27 396.82 87.60 392.05 87.58 C 387.37 87.27 383.16 84.94 378.81 83.40 C 366.80 79.06 355.02 74.10 342.89 70.10 C 337.64 83.09 332.06 95.94 326.74 108.91 C 324.37 114.80 320.58 119.94 317.15 125.24 C 312.13 132.87 307.17 140.55 302.22 148.24 C 299.20 153.08 293.52 154.95 288.80 157.64 C 281.54 161.22 274.73 165.81 267.19 168.74 C 265.03 167.29 263.34 165.28 261.59 163.38 C 256.61 157.71 251.24 152.36 246.55 146.43 C 243.07 142.00 239.07 137.80 234.04 135.14 C 230.38 133.49 226.34 133.02 222.46 132.17 C 216.33 131.01 210.26 128.91 203.94 129.46 C 199.01 129.53 193.93 130.60 189.09 129.27 C 183.65 126.37 185.23 119.19 186.44 114.31 C 188.26 107.59 196.46 107.65 201.82 105.46 C 201.36 103.57 201.08 101.61 200.34 99.80 C 196.96 97.21 191.83 96.60 189.78 92.51 C 187.64 85.32 188.98 77.49 186.65 70.34 C 182.00 65.83 174.94 64.43 170.92 59.15 C 167.88 55.36 166.64 50.33 163.12 46.92 C 158.78 44.54 153.84 43.25 148.95 42.59 C 138.59 42.67 128.44 45.77 119.25 50.43 C 111.92 55.17 104.57 60.49 100.26 68.31 C 95.48 74.81 97.65 83.45 94.68 90.60 C 92.43 94.71 87.42 95.82 83.53 97.82 C 83.53 102.35 83.73 106.89 84.28 111.39 C 90.50 114.25 97.77 116.00 101.91 121.94 C 104.20 123.15 106.97 124.14 108.06 126.73 C 109.91 130.57 111.79 134.66 111.78 139.01 C 111.75 142.45 107.95 143.82 105.74 145.79 C 105.57 148.94 105.68 152.81 102.59 154.68 C 99.42 157.20 95.80 154.27 92.52 153.71 C 87.21 155.24 82.59 158.46 77.95 161.36 C 77.50 164.35 77.63 168.00 74.95 170.01 C 69.34 173.95 61.83 173.38 56.04 176.94 C 53.23 179.64 53.69 183.88 53.30 187.43 C 52.58 194.93 52.59 202.48 52.13 210.01 C 51.77 212.14 52.02 214.76 50.20 216.30 C 48.09 217.21 45.19 216.69 44.38 214.27 C 43.01 210.06 42.98 205.55 42.09 201.23 C 34.74 159.53 27.68 117.78 20.48 76.05 C 19.82 71.69 18.50 67.36 18.64 62.91 C 19.45 58.94 23.52 57.02 27.10 56.20 C 58.73 48.75 90.41 41.55 122.01 33.98 C 131.70 30.88 141.98 30.72 151.73 27.86 C 192.98 18.56 234.20 9.11 275.49 0.00 Z" />
<path fill="#3e3e3e" opacity="1.00" d=" M 409.64 0.00 L 512.00 0.00 L 512.00 354.62 C 509.10 348.91 505.50 343.53 503.31 337.47 C 492.04 305.84 480.88 274.16 469.58 242.53 C 465.80 232.97 464.00 222.82 461.21 212.96 C 452.39 178.30 443.29 143.70 434.58 109.01 C 426.71 75.74 418.78 42.49 410.83 9.25 C 410.21 6.20 409.96 3.09 409.64 0.00 Z" />
<path fill="#f5e5c1" opacity="1.00" d=" M 115.48 56.44 C 120.37 51.86 126.55 48.89 133.15 47.74 C 142.26 45.18 152.17 46.40 160.63 50.54 C 164.22 52.76 164.70 57.55 167.64 60.40 C 171.90 64.42 176.63 68.09 179.96 72.97 C 183.73 79.31 184.72 86.78 186.09 93.89 C 188.20 96.95 192.68 97.05 195.25 99.72 C 197.38 101.39 197.08 105.72 194.00 106.08 C 190.40 106.32 186.77 106.47 183.33 107.69 C 182.78 110.96 182.84 114.30 182.39 117.58 C 181.62 119.73 179.76 121.23 178.57 123.14 C 178.20 124.60 178.19 126.12 178.04 127.61 C 178.87 127.55 180.53 127.44 181.36 127.38 C 185.24 130.37 185.63 135.47 186.72 139.88 C 190.53 138.65 193.62 136.05 197.14 134.27 C 200.97 134.41 203.01 138.68 206.21 140.34 C 206.28 138.69 205.78 136.93 206.40 135.35 C 211.36 131.74 217.38 135.88 222.85 135.27 L 222.43 135.99 C 227.95 136.69 232.37 140.35 237.01 143.09 C 240.02 144.90 241.41 148.23 242.84 151.26 C 245.38 156.52 247.50 162.17 251.67 166.42 C 254.47 169.83 258.84 172.77 258.72 177.67 C 256.20 179.72 253.21 178.98 250.80 177.18 C 242.26 170.23 239.26 159.25 234.01 150.02 C 229.03 145.51 222.72 142.51 216.01 141.71 C 213.38 141.52 210.73 141.42 208.09 141.40 C 211.92 146.30 217.25 149.56 221.60 153.93 C 221.58 154.46 221.53 155.52 221.50 156.06 C 223.62 159.18 225.68 162.35 227.40 165.71 C 230.21 171.00 230.73 177.67 235.84 181.48 C 234.00 185.43 230.49 188.43 228.94 192.60 C 228.49 192.68 227.59 192.84 227.14 192.92 C 223.96 189.82 223.12 185.31 221.26 181.44 C 217.18 173.23 213.67 164.47 207.04 157.90 C 203.23 154.36 199.71 150.44 195.30 147.62 C 192.58 145.89 189.90 144.09 187.48 141.96 C 186.86 143.72 186.26 145.47 185.59 147.21 C 193.11 155.37 200.80 163.40 208.07 171.80 C 210.51 173.88 209.25 177.59 207.03 179.31 C 204.91 179.55 203.03 178.18 201.09 177.52 C 195.51 174.83 190.10 171.79 184.47 169.19 C 183.51 175.91 184.04 182.74 183.32 189.46 C 181.88 193.03 178.23 190.57 175.83 189.61 C 168.82 186.27 161.33 183.96 154.57 180.11 C 150.27 186.56 147.22 193.75 143.03 200.25 C 140.93 202.06 139.35 199.35 138.07 197.94 C 133.23 191.78 128.49 185.53 123.25 179.70 C 119.28 174.02 116.39 167.66 113.42 161.41 C 110.51 162.77 107.47 163.94 104.88 165.88 C 111.72 170.38 116.73 177.03 121.75 183.40 C 126.02 189.83 130.93 195.94 133.91 203.13 C 135.84 208.75 139.74 213.40 143.65 217.76 C 144.01 220.68 143.03 223.83 140.34 225.33 C 137.71 227.66 134.43 225.27 131.73 224.40 C 131.46 224.73 130.92 225.39 130.65 225.72 C 130.26 224.06 130.11 222.31 129.26 220.80 C 117.75 206.42 108.25 189.89 92.98 178.99 C 90.15 177.44 86.95 176.71 83.94 175.58 C 77.28 179.10 70.13 181.82 63.79 185.85 C 62.18 189.71 61.04 193.81 60.40 197.95 C 59.97 204.82 61.76 211.56 62.28 218.38 C 62.63 227.63 64.43 236.74 65.12 245.95 C 65.31 250.33 63.76 254.75 65.00 259.07 C 66.75 267.07 68.60 275.05 70.28 283.06 C 70.80 286.20 73.48 288.26 75.28 290.70 C 79.09 295.79 84.94 298.66 90.22 301.96 C 97.91 303.90 106.17 300.70 111.76 295.31 C 112.67 296.22 113.58 297.13 114.50 298.03 C 114.47 299.01 114.44 299.99 114.40 300.97 C 109.23 304.15 103.91 307.10 98.87 310.50 C 94.87 309.98 90.63 309.96 86.88 308.36 C 81.67 304.57 77.00 300.09 72.00 296.04 C 69.45 293.75 66.08 291.73 65.36 288.11 C 63.56 280.78 61.75 273.44 60.07 266.08 C 58.48 259.48 56.36 252.91 56.43 246.04 C 55.48 237.72 55.76 229.33 54.67 221.02 C 54.89 210.98 52.62 201.04 53.66 191.00 C 55.31 187.30 54.46 181.65 59.08 180.07 C 65.47 177.15 71.95 174.41 78.32 171.43 C 78.36 169.49 78.00 167.05 80.20 166.13 C 84.28 163.68 87.63 160.31 91.39 157.46 C 94.82 156.94 97.85 159.30 100.93 160.46 C 103.82 159.47 106.67 158.37 109.46 157.14 C 108.94 154.08 108.26 150.99 108.64 147.88 C 110.26 145.64 113.17 145.01 115.30 143.38 C 113.37 136.10 110.80 129.00 109.17 121.65 C 107.38 120.75 105.57 119.89 103.76 119.05 C 103.28 117.00 103.96 114.35 102.22 112.84 C 97.37 110.96 92.11 110.36 87.30 108.30 C 87.29 105.82 87.41 103.34 87.63 100.88 C 91.09 99.27 95.77 98.54 97.16 94.45 C 99.05 88.76 98.70 82.60 100.58 76.90 C 102.73 68.44 108.97 61.89 115.48 56.44 Z" />
<path fill="#3e3e3e" opacity="1.00" d=" M 127.93 57.14 C 132.37 55.84 136.97 53.52 141.67 54.94 C 145.91 56.03 150.29 56.43 154.51 57.52 C 157.09 59.97 158.31 63.57 161.19 65.74 C 165.98 69.60 171.67 72.83 174.76 78.34 C 177.58 85.03 178.55 92.30 179.87 99.39 C 174.52 99.61 169.21 100.35 163.88 100.71 C 156.64 101.93 149.25 101.00 142.01 102.16 C 136.72 102.68 131.37 102.19 126.11 103.06 C 118.54 104.06 111.02 102.29 103.45 102.45 C 106.17 94.36 105.93 85.58 108.81 77.54 C 110.69 74.28 112.94 71.23 115.28 68.28 C 117.11 65.95 120.10 65.08 122.28 63.16 C 124.00 61.01 124.82 57.68 127.93 57.14 Z" />
<path fill="#f5e5c1" opacity="1.00" d=" M 341.27 86.38 C 342.78 83.60 344.32 80.84 345.92 78.11 C 350.08 79.78 353.85 82.27 358.02 83.95 C 357.74 86.17 356.23 87.68 354.05 88.07 C 353.35 89.23 352.67 90.40 352.01 91.57 C 348.11 90.64 344.05 89.46 341.27 86.38 Z" />
<path fill="#f5e5c1" opacity="1.00" d=" M 363.49 80.32 C 371.73 83.81 379.02 89.18 386.91 93.38 C 391.79 95.92 396.33 99.03 401.15 101.66 C 394.98 110.52 387.40 118.30 380.82 126.85 C 378.41 129.74 376.22 132.86 373.40 135.37 C 371.22 136.71 368.51 136.54 366.07 136.98 C 369.23 140.80 372.71 144.37 375.71 148.33 C 377.45 150.37 376.84 153.35 375.35 155.35 C 367.38 167.38 359.37 179.39 351.40 191.42 C 349.94 193.67 348.09 195.76 345.50 196.66 C 336.81 200.18 328.13 203.73 319.46 207.31 C 317.70 208.25 315.75 208.01 313.93 207.46 C 313.53 206.82 312.73 205.54 312.33 204.90 C 313.21 203.31 314.00 201.46 315.84 200.75 C 323.91 197.06 332.26 194.02 340.47 190.65 C 342.03 189.93 343.79 189.30 344.81 187.81 C 353.10 176.41 360.62 164.47 368.66 152.88 C 366.29 149.86 363.82 146.90 361.18 144.12 C 353.36 144.72 345.58 145.64 337.81 146.72 C 336.78 151.54 335.06 156.18 334.22 161.04 C 336.26 161.84 338.28 162.71 340.31 163.57 C 341.85 166.75 343.23 170.01 344.58 173.27 C 343.45 174.37 342.28 176.28 340.42 175.55 C 338.66 174.42 338.26 172.23 337.43 170.47 C 336.20 166.24 331.16 165.70 328.02 163.38 C 329.26 155.68 332.33 148.44 333.69 140.77 C 339.54 137.89 346.30 138.22 352.62 137.28 C 352.59 136.56 352.54 135.14 352.51 134.42 C 359.04 133.19 365.44 131.29 372.07 130.59 C 374.02 130.42 376.00 129.72 377.11 128.00 C 382.93 120.57 388.96 113.32 394.88 105.98 C 396.06 104.87 395.48 103.31 395.36 101.93 C 385.87 97.08 376.68 91.70 367.27 86.70 C 365.89 86.06 364.33 86.41 362.87 86.38 C 358.13 94.74 353.40 103.10 348.54 111.39 C 345.32 116.80 347.31 124.06 343.01 128.95 C 320.84 156.13 298.79 183.40 276.54 210.51 C 274.59 213.07 272.12 215.42 271.35 218.65 C 275.71 221.16 279.63 224.34 283.92 226.97 C 293.21 216.60 302.92 206.50 310.63 194.85 C 316.66 186.76 322.39 178.44 328.43 170.36 C 329.05 170.37 330.27 170.38 330.88 170.39 C 323.42 182.28 315.62 193.95 307.62 205.49 C 301.22 213.36 293.62 220.22 287.41 228.25 C 286.84 230.49 288.46 232.68 288.71 234.93 C 289.31 240.91 287.18 247.54 281.97 250.97 C 276.90 253.88 271.02 256.32 265.06 255.20 C 262.17 254.56 258.77 254.71 256.58 252.42 C 252.42 248.53 248.48 243.77 247.51 238.00 C 247.27 233.59 246.90 228.89 248.79 224.77 C 251.70 220.63 255.88 217.41 260.46 215.28 C 262.94 213.99 265.84 214.89 268.51 214.46 C 272.57 209.88 276.07 204.80 280.51 200.55 C 300.19 175.95 320.50 151.83 340.37 127.37 C 343.74 122.91 341.73 116.61 344.74 111.95 C 350.91 101.36 357.12 90.78 363.49 80.32 Z" />
<path fill="#f5e5c1" opacity="1.00" d=" M 336.00 96.97 C 336.55 93.87 337.67 90.75 339.79 88.36 C 344.50 89.17 348.56 92.01 352.99 93.68 C 352.52 94.28 351.59 95.47 351.12 96.06 C 348.61 96.48 347.85 98.89 346.88 100.88 C 343.17 100.17 338.78 99.68 336.00 96.97 Z" />
<path fill="#f5e5c1" opacity="1.00" d=" M 366.04 91.97 C 368.79 92.55 371.18 94.08 373.70 95.25 C 372.38 100.65 368.44 104.83 365.57 109.45 C 362.09 114.50 359.36 120.13 355.04 124.55 C 353.88 123.91 352.74 123.27 351.62 122.59 C 351.78 119.39 351.12 115.89 352.99 113.05 C 357.25 105.98 361.10 98.61 366.04 91.97 Z" />
<path fill="#f5e5c1" opacity="1.00" d=" M 378.12 98.09 C 382.08 100.12 386.48 101.79 389.72 104.88 C 383.60 112.52 376.70 119.49 369.68 126.29 C 365.54 127.43 361.24 128.09 356.94 127.58 C 357.81 122.92 361.62 119.81 364.19 116.09 C 368.96 110.18 373.19 103.85 378.12 98.09 Z" />
<path fill="#f5e5c1" opacity="1.00" d=" M 330.55 108.08 C 331.43 105.33 332.61 102.66 334.46 100.41 C 338.65 101.50 342.78 102.78 346.91 104.10 C 344.48 106.71 341.28 108.58 339.67 111.90 C 336.99 111.65 334.38 110.99 331.80 110.28 C 331.38 109.54 330.96 108.81 330.55 108.08 Z" />
<path fill="#3e3e3e" opacity="1.00" d=" M 135.98 107.51 C 150.37 107.41 164.69 105.52 179.06 105.36 C 178.51 106.02 177.95 106.68 177.40 107.34 C 178.02 110.61 179.50 114.80 176.01 117.00 C 172.52 114.81 173.45 110.55 173.33 107.09 C 171.92 107.56 170.52 108.03 169.11 108.51 C 169.22 109.40 169.45 111.18 169.56 112.07 C 168.21 111.37 164.80 106.95 166.32 111.77 C 168.28 115.34 172.43 116.90 174.89 120.06 C 174.01 124.13 168.46 123.82 165.32 125.29 C 163.87 124.46 162.45 123.60 161.03 122.75 C 165.12 119.33 167.40 113.41 164.70 108.46 C 159.36 108.17 154.02 108.66 148.74 109.39 C 147.29 112.24 147.20 115.48 147.18 118.61 C 145.30 117.63 143.38 116.71 141.44 115.84 C 141.49 114.49 141.54 113.13 141.61 111.78 C 142.44 110.74 143.26 109.70 144.09 108.65 C 137.68 108.48 131.01 107.28 124.99 110.15 C 119.91 111.26 114.91 112.72 109.83 113.81 C 109.75 112.74 109.58 110.61 109.50 109.54 C 118.29 108.32 127.18 108.49 135.98 107.51 Z" />
<path fill="#f5e5c1" opacity="1.00" d=" M 399.25 108.14 C 402.61 110.23 405.86 112.51 408.97 114.96 C 407.37 117.56 405.54 120.04 403.33 122.16 C 401.10 120.28 398.78 118.49 396.34 116.88 C 397.23 114.95 397.71 112.88 397.59 110.74 C 398.14 109.87 398.69 109.00 399.25 108.14 Z" />
<path fill="#3e3e3e" opacity="1.00" d=" M 131.55 111.72 C 133.93 111.61 136.31 111.47 138.70 111.55 C 136.82 113.16 134.43 113.00 132.15 112.37 L 131.54 113.42 C 131.52 112.85 131.52 112.28 131.55 111.72 Z" />
<path fill="#3e3e3e" opacity="1.00" d=" M 151.72 119.16 C 150.85 116.10 151.59 112.98 154.11 110.92 C 156.40 109.99 158.98 110.46 161.40 110.38 C 162.76 114.52 160.48 118.73 156.60 120.42 C 154.94 120.17 153.34 119.59 151.72 119.16 Z" />
<path fill="#3e3e3e" opacity="1.00" d=" M 118.14 116.29 C 124.27 114.97 130.43 116.85 136.60 116.71 C 140.21 120.52 145.61 121.41 149.83 124.31 C 153.04 124.31 156.30 124.48 159.44 123.66 C 161.17 125.35 162.97 126.98 164.81 128.56 C 167.31 127.32 169.82 126.10 172.38 124.98 C 172.51 126.58 172.63 128.19 172.74 129.79 C 168.00 131.08 163.28 132.45 158.55 133.78 C 158.18 134.80 157.81 135.83 157.45 136.86 C 163.08 135.33 168.55 133.30 174.12 131.55 C 175.81 131.56 177.39 132.29 179.02 132.70 C 180.15 135.42 181.57 138.03 182.30 140.90 C 182.57 144.75 181.72 148.56 181.36 152.37 C 175.86 151.94 170.77 154.17 165.50 155.26 C 161.31 155.77 157.07 155.88 152.88 156.53 C 149.85 154.35 146.71 152.31 143.50 150.40 C 136.86 146.54 134.53 138.35 128.35 133.99 C 129.32 132.56 130.14 131.04 130.77 129.43 C 129.06 129.49 127.36 129.56 125.67 129.73 C 122.79 127.20 119.70 124.85 117.29 121.86 C 117.31 119.97 117.74 118.12 118.14 116.29 Z" />
<path fill="#f5e5c1" opacity="1.00" d=" M 329.94 117.86 C 332.23 115.09 335.97 117.24 338.26 118.89 C 340.11 120.12 339.27 122.69 339.64 124.56 C 338.67 125.67 337.72 126.79 336.77 127.90 C 336.29 126.28 335.83 124.66 335.38 123.04 C 335.02 123.18 334.30 123.47 333.94 123.62 C 326.35 132.49 320.22 142.48 314.80 152.80 C 311.80 159.06 307.05 164.26 301.92 168.83 C 297.69 171.53 292.81 172.99 288.34 175.20 C 281.56 177.98 275.13 182.03 267.69 182.73 C 266.08 180.67 265.25 178.33 266.61 175.90 C 269.44 175.05 272.25 174.06 274.86 172.65 C 282.75 168.50 290.69 164.43 298.57 160.27 C 300.23 159.42 301.44 157.96 302.46 156.43 C 308.19 147.49 313.96 138.57 319.77 129.68 C 322.90 125.54 326.25 121.52 329.94 117.86 Z" />
<path fill="#f5e5c1" opacity="1.00" d=" M 389.07 126.83 C 391.10 123.96 391.68 120.62 391.22 117.17 C 392.41 117.74 393.60 118.32 394.80 118.89 C 397.17 120.82 399.71 122.54 402.31 124.16 C 399.76 127.26 397.42 130.55 394.56 133.39 C 392.76 131.18 390.94 128.98 389.07 126.83 Z" />
<path fill="#3e3e3e" opacity="1.00" d=" M 116.33 127.46 C 116.74 127.56 117.57 127.77 117.98 127.87 C 120.43 130.58 123.07 133.14 126.10 135.20 C 128.48 139.82 131.95 143.73 135.13 147.81 C 138.52 152.32 143.84 154.59 148.35 157.77 C 150.17 158.75 151.99 160.66 154.24 160.05 C 159.62 158.99 165.42 160.37 170.43 157.55 C 170.39 161.11 172.01 164.41 172.25 167.94 C 172.14 171.79 170.35 175.50 167.29 177.88 C 159.82 172.36 151.83 167.56 143.46 163.52 C 137.07 160.64 130.73 157.11 125.85 152.01 C 122.60 144.36 119.00 136.72 117.23 128.55 C 117.00 128.27 116.55 127.73 116.33 127.46 Z" />
<path fill="#f5e5c1" opacity="1.00" d=" M 380.21 133.94 C 380.85 130.90 382.93 128.35 384.71 125.86 C 387.37 129.27 390.26 132.49 392.80 135.99 C 391.38 138.40 389.48 140.52 387.12 142.03 C 384.76 139.42 381.57 137.29 380.21 133.94 Z" />
<path fill="#f5722c" opacity="1.00" d=" M 406.29 132.21 C 409.74 129.89 413.69 133.40 413.87 136.99 C 419.45 164.01 425.08 191.03 430.71 218.04 C 431.75 222.73 431.71 227.66 433.57 232.15 C 438.02 243.77 442.21 255.48 446.64 267.11 C 447.35 269.10 448.03 271.33 447.32 273.43 C 446.14 275.57 443.62 276.30 441.51 277.18 C 412.66 287.51 383.80 297.82 354.98 308.19 C 353.03 308.91 350.99 308.15 349.09 307.70 C 336.09 303.95 323.01 300.45 309.99 296.79 C 307.61 296.21 305.24 294.66 304.78 292.09 C 304.76 289.27 305.99 286.65 306.84 284.01 C 308.10 280.78 308.96 277.05 311.89 274.87 C 315.89 271.76 320.54 269.61 324.56 266.52 C 326.60 264.89 327.18 262.20 328.17 259.91 C 329.88 255.03 332.68 250.30 332.36 244.95 C 332.24 239.93 332.64 234.90 332.23 229.90 C 330.12 223.98 325.00 219.67 322.81 213.78 C 321.94 210.99 324.57 208.64 326.96 207.81 C 335.89 204.54 345.02 201.85 353.92 198.51 C 355.72 197.90 356.48 195.99 357.45 194.53 C 365.19 180.89 373.13 167.36 380.88 153.73 C 382.26 151.24 384.17 149.08 386.42 147.34 C 392.96 142.19 399.32 136.76 406.29 132.21 Z" />
<path fill="#3e3e3e" opacity="1.00" d=" M 193.95 140.89 C 195.71 139.65 198.07 138.46 199.93 140.26 C 207.60 146.40 215.98 152.23 221.17 160.79 C 223.62 165.84 226.60 170.67 228.58 175.95 C 229.58 178.13 228.03 180.05 226.05 180.81 C 223.33 174.70 220.10 168.84 216.85 163.00 C 210.93 154.05 202.90 146.71 193.95 140.89 Z" />
<path fill="#3e3e3e" opacity="1.00" d=" M 117.49 161.20 C 115.38 158.19 116.66 154.36 116.72 150.97 C 123.20 154.77 128.78 159.96 135.39 163.58 C 139.83 165.88 144.24 168.25 148.77 170.36 C 154.16 172.83 158.75 176.64 163.62 179.94 C 163.61 180.13 163.59 180.50 163.58 180.68 C 160.14 178.92 156.69 176.99 152.87 176.20 C 147.96 182.19 145.47 189.71 141.15 196.09 C 136.36 189.82 131.39 183.68 126.48 177.50 C 122.48 172.67 120.71 166.52 117.49 161.20 Z" />
<path fill="#3e3e3e" opacity="1.00" d=" M 183.34 150.26 C 190.55 158.29 198.03 166.05 205.38 173.95 C 205.43 174.37 205.54 175.23 205.60 175.65 C 198.81 171.86 191.56 168.98 184.75 165.21 C 184.79 160.19 183.75 155.25 183.34 150.26 Z" />
<path fill="#3e3e3e" opacity="1.00" d=" M 174.65 159.71 C 176.13 157.72 177.84 155.87 180.25 155.01 C 181.31 165.31 180.09 175.68 180.24 186.01 C 176.66 185.30 173.95 182.70 171.23 180.46 C 172.76 178.02 175.01 175.89 175.53 172.93 C 176.19 168.54 176.08 163.95 174.65 159.71 Z" />
<path fill="#3e3e3e" opacity="1.00" d=" M 0.00 158.53 C 1.43 169.98 4.04 181.23 6.22 192.55 C 10.24 213.73 14.55 234.84 18.61 256.01 C 22.52 271.93 26.28 287.90 30.28 303.81 C 32.58 312.97 34.44 322.25 37.22 331.29 C 44.22 354.49 51.22 377.69 58.29 400.86 C 66.68 423.19 74.97 445.56 83.43 467.86 C 90.51 482.69 98.09 497.27 105.38 512.00 L 0.00 512.00 L 0.00 158.53 Z" />
<path fill="#3e3e3e" opacity="1.00" d=" M 86.95 168.25 C 88.88 166.56 90.84 164.91 92.84 163.29 C 93.54 163.63 94.95 164.32 95.65 164.66 C 95.59 164.99 95.47 165.65 95.41 165.98 C 99.84 169.45 104.93 172.10 108.90 176.14 C 118.21 185.78 125.23 197.31 131.64 209.00 C 131.37 209.75 130.83 211.26 130.56 212.01 C 130.55 211.57 130.54 210.70 130.53 210.26 C 120.90 198.97 111.10 187.82 101.17 176.79 C 97.74 172.10 91.61 171.25 86.95 168.25 Z" />
<path fill="#f5e5c1" opacity="1.00" d=" M 197.77 193.88 C 204.69 190.37 212.11 187.64 218.09 182.53 C 218.71 184.23 219.32 185.93 219.90 187.65 C 212.86 193.18 204.59 196.65 196.69 200.70 C 190.34 203.90 183.08 204.32 176.44 206.67 C 171.45 208.43 166.31 209.69 161.20 211.04 C 155.44 212.04 149.58 212.31 143.76 212.80 C 142.77 211.13 141.79 209.45 140.86 207.75 C 147.13 207.96 153.28 206.66 159.50 206.22 C 172.06 201.48 185.78 200.16 197.77 193.88 Z" />
<path fill="#f5e5c1" opacity="1.00" d=" M 233.00 192.97 C 236.21 188.77 239.54 183.73 245.00 182.46 C 253.63 182.11 262.36 182.01 270.85 183.92 C 276.35 185.16 281.70 186.93 287.09 188.61 C 286.03 189.80 284.97 190.98 283.93 192.18 C 278.44 191.03 273.37 188.52 267.95 187.14 C 260.46 185.42 252.41 183.83 245.03 186.92 C 239.74 189.71 237.69 195.62 235.83 200.91 C 233.63 205.65 231.85 211.63 226.47 213.64 C 215.63 218.65 205.12 224.35 194.25 229.30 C 192.61 228.82 190.96 228.38 189.31 227.97 C 198.36 223.08 207.30 217.90 216.84 213.99 C 221.25 212.57 225.84 210.25 228.00 205.91 C 230.60 201.97 230.68 197.00 233.00 192.97 Z" />
<path fill="#f5e5c1" opacity="1.00" d=" M 93.50 195.48 C 94.65 194.58 96.05 195.13 97.35 195.28 C 105.77 207.35 113.52 219.99 123.53 230.85 C 121.27 233.62 119.25 236.57 117.27 239.55 C 112.92 239.98 108.25 238.99 104.18 240.93 C 100.56 245.79 98.88 251.86 98.53 257.86 C 97.76 263.66 99.11 269.59 97.49 275.29 C 93.06 268.02 90.71 259.68 86.05 252.57 C 88.97 247.30 93.38 243.04 96.12 237.67 C 91.94 238.30 87.65 238.20 83.54 239.30 C 79.68 234.36 80.85 227.64 79.51 221.84 C 87.01 226.23 94.21 231.27 102.31 234.53 C 107.90 235.47 113.61 234.28 119.25 234.66 C 110.26 223.76 102.73 211.80 94.41 200.40 C 93.22 199.04 93.10 197.17 93.50 195.48 Z" />
<path fill="#f5e5c1" opacity="1.00" d=" M 207.13 227.24 C 214.13 223.96 220.94 220.28 228.00 217.12 C 229.54 219.61 231.05 222.12 232.51 224.65 C 234.96 224.62 237.40 224.58 239.85 224.60 C 242.00 228.88 244.14 233.19 246.77 237.20 C 246.68 238.48 246.49 239.75 246.20 241.00 C 244.38 242.16 242.33 242.87 240.33 243.66 C 242.99 247.98 247.46 251.10 249.33 255.88 C 247.28 265.02 244.24 273.89 241.92 282.95 C 240.93 285.61 241.06 289.63 237.84 290.66 C 231.34 292.63 224.49 293.29 218.08 295.62 C 208.35 299.21 197.80 299.06 187.83 301.63 C 184.59 302.40 181.21 302.26 177.97 303.02 C 172.28 304.71 166.28 304.73 160.57 306.36 C 153.61 307.02 146.90 309.17 139.91 309.61 C 134.64 310.79 129.35 311.95 123.91 311.85 C 121.99 309.02 119.12 306.65 118.49 303.12 C 117.17 297.27 114.25 291.92 113.15 286.01 C 111.18 276.80 111.66 267.33 111.83 257.99 C 111.79 255.52 112.92 253.27 114.27 251.28 C 117.10 247.09 118.89 242.17 122.57 238.58 C 126.64 234.51 130.53 230.25 134.92 226.52 C 149.76 228.41 164.72 229.06 179.58 230.74 C 184.97 231.90 190.64 231.73 195.80 229.68 C 199.65 229.34 203.60 228.97 207.13 227.24 Z" />
<path fill="#3e3e3e" opacity="1.00" d=" M 253.64 226.53 C 256.63 223.81 259.99 221.25 263.96 220.21 C 266.47 219.50 268.48 221.32 270.35 222.67 C 273.94 225.41 278.23 227.22 281.41 230.47 C 283.58 234.50 283.80 239.53 281.52 243.57 C 278.45 246.20 274.45 247.40 270.77 248.92 C 266.72 250.72 262.03 248.98 258.75 246.36 C 254.73 243.71 251.93 238.84 252.48 233.96 C 252.58 231.44 253.18 228.99 253.64 226.53 Z" />
<path fill="#3e3e3e" opacity="1.00" d=" M 216.67 226.63 C 219.78 225.32 222.87 223.90 226.16 223.11 C 226.34 223.73 226.70 224.97 226.87 225.60 C 223.46 225.80 220.07 226.26 216.67 226.63 Z" />
<path fill="#3e3e3e" opacity="1.00" d=" M 222.09 231.29 C 226.96 230.20 232.01 230.81 236.88 229.66 C 238.19 232.38 239.55 235.09 240.75 237.87 C 238.20 238.85 234.86 239.13 233.48 241.84 C 233.37 243.39 234.62 244.48 235.38 245.69 C 238.03 249.21 240.71 252.72 243.61 256.04 C 241.87 265.90 238.10 275.28 236.10 285.09 C 228.80 287.96 221.06 289.32 213.52 291.38 C 205.58 294.20 197.17 295.11 188.98 296.94 C 177.27 298.79 165.70 301.45 153.96 302.98 C 149.12 304.60 143.95 304.50 139.05 305.87 C 135.51 306.81 131.84 307.12 128.20 307.48 C 125.84 300.80 121.73 294.83 119.81 288.00 C 118.55 280.74 116.94 273.45 117.35 266.04 C 117.65 262.02 116.78 257.62 118.97 253.98 C 121.33 249.79 123.19 245.13 126.86 241.87 C 129.87 239.04 132.67 235.99 135.81 233.30 C 148.52 234.15 161.21 235.53 173.90 236.69 C 178.38 237.22 182.98 237.99 187.41 236.69 C 199.01 235.16 210.37 232.02 222.09 231.29 Z" />
<path fill="#f5e5c1" opacity="1.00" d=" M 126.72 251.06 C 127.80 247.02 129.41 243.10 131.63 239.56 C 141.39 239.87 151.21 239.17 160.94 240.30 C 165.33 240.49 169.75 240.12 174.13 240.61 C 177.09 242.13 178.11 246.13 177.18 249.16 C 171.67 250.98 165.77 250.66 160.07 251.35 C 149.97 251.57 139.98 253.27 129.89 253.54 C 128.26 253.90 127.43 252.15 126.72 251.06 Z" />
<path fill="#3e3e3e" opacity="1.00" d=" M 133.68 245.46 C 139.02 244.10 144.55 245.01 149.97 245.17 C 155.03 245.25 160.09 245.43 165.12 245.96 C 159.05 246.48 152.91 246.24 146.87 247.17 C 142.43 247.65 137.88 247.11 133.54 248.42 C 133.59 247.43 133.63 246.45 133.68 245.46 Z" />
<path fill="#3e3e3e" opacity="1.00" d=" M 303.48 270.07 C 306.26 262.72 312.98 258.11 319.95 255.19 C 316.73 262.30 309.58 265.87 303.48 270.07 Z" />
<path fill="#f5722c" opacity="1.00" d=" M 68.40 299.51 C 71.71 298.69 73.94 301.86 76.44 303.43 C 81.73 306.96 86.41 312.05 92.99 313.04 C 95.72 313.43 99.05 314.62 101.39 312.52 C 104.74 310.23 108.02 307.43 112.06 306.52 C 115.71 306.88 117.74 310.56 120.40 312.71 C 122.84 315.65 127.21 313.66 130.14 315.67 C 132.13 317.14 132.77 319.65 133.65 321.83 C 138.75 336.26 143.97 350.64 149.10 365.06 C 150.32 368.68 152.19 372.22 152.36 376.11 C 151.52 378.20 149.51 379.44 147.48 380.17 C 132.93 385.43 118.28 390.43 103.80 395.91 C 101.99 396.55 99.78 397.12 98.04 396.00 C 95.89 394.25 94.95 391.51 93.78 389.09 C 91.09 382.71 87.45 376.72 85.66 369.99 C 80.28 350.95 74.62 331.99 68.88 313.05 C 67.96 309.95 66.21 307.15 65.38 304.03 C 65.33 302.17 66.55 300.03 68.40 299.51 Z" />
<path fill="#3e3e3e" opacity="1.00" d=" M 197.20 307.09 C 199.32 307.53 200.98 309.01 202.68 310.26 C 206.78 313.49 211.30 316.18 215.26 319.60 C 213.05 319.61 210.85 319.56 208.65 319.50 C 206.20 321.23 203.94 323.22 201.93 325.44 C 199.95 324.08 197.96 322.75 196.01 321.37 C 197.14 318.24 198.40 315.16 199.58 312.06 C 198.58 310.51 196.82 309.13 197.20 307.09 Z" />
<path fill="#3e3e3e" opacity="1.00" d=" M 316.08 312.58 C 316.49 312.77 317.30 313.15 317.71 313.35 C 324.86 314.69 331.99 316.09 339.06 317.81 C 334.12 318.98 329.42 320.93 324.61 322.55 C 321.66 319.32 318.76 316.04 316.08 312.58 Z" />
<path fill="#f5e5c1" opacity="1.00" d=" M 137.76 313.94 C 138.24 313.60 139.22 312.93 139.70 312.59 C 141.21 312.62 142.71 312.65 144.21 312.68 C 145.23 313.35 146.26 314.03 147.28 314.70 C 147.52 315.29 147.98 316.46 148.21 317.04 C 151.17 337.02 159.21 355.70 164.71 375.02 C 161.91 376.66 158.86 377.80 155.64 378.29 C 151.11 364.98 147.28 351.42 142.87 338.06 C 140.98 331.74 138.81 325.51 136.94 319.20 C 136.36 317.41 137.39 315.66 137.76 313.94 Z" />
<path fill="#3e3e3e" opacity="1.00" d=" M 420.44 334.39 C 427.32 324.77 439.21 318.86 451.05 319.34 C 453.71 319.34 456.38 319.50 459.05 319.70 C 467.43 321.98 475.32 326.43 480.60 333.47 C 487.50 342.54 490.51 355.05 486.64 366.00 C 481.62 382.97 463.34 394.07 446.02 392.17 C 434.53 390.90 423.70 384.12 418.11 373.92 C 411.03 361.77 412.16 345.67 420.44 334.39 Z" />
<path fill="#3e3e3e" opacity="1.00" d=" M 274.94 339.84 C 278.59 336.66 282.37 333.62 285.62 330.02 C 285.41 330.40 284.98 331.15 284.77 331.53 C 283.68 333.46 282.77 335.59 281.10 337.12 C 279.26 338.45 277.03 339.03 274.94 339.84 Z" />
<path fill="#f5e5c1" opacity="1.00" d=" M 443.35 339.52 C 448.35 337.81 453.93 337.61 458.99 339.17 C 466.51 341.56 472.01 349.15 471.83 357.05 C 472.36 368.14 461.95 378.09 451.01 377.82 C 440.71 378.38 430.74 369.41 430.56 359.04 C 429.72 350.59 435.44 342.31 443.35 339.52 Z" />
<path fill="#3e3e3e" opacity="1.00" d=" M 383.64 369.91 C 388.24 362.30 392.24 354.33 396.76 346.67 C 400.54 349.04 404.44 351.24 408.13 353.76 C 403.32 361.93 398.96 370.35 394.09 378.48 C 402.94 385.18 412.05 391.53 421.03 398.05 C 421.58 398.64 423.27 399.37 422.38 400.38 C 418.96 405.00 415.13 409.29 411.73 413.93 C 403.24 408.34 395.54 401.66 387.20 395.86 C 382.18 404.55 377.11 413.21 372.08 421.90 C 367.27 418.94 362.66 415.70 357.93 412.62 C 362.91 403.29 369.07 394.64 374.06 385.31 C 366.03 379.50 357.93 373.78 349.94 367.93 C 348.51 367.06 350.15 365.45 350.69 364.55 C 353.89 360.52 356.52 355.98 360.01 352.22 C 368.10 357.82 375.50 364.39 383.64 369.91 Z" />
<path fill="#3e3e3e" opacity="1.00" d=" M 309.49 348.78 C 316.87 347.98 324.55 349.01 331.18 352.46 C 341.12 357.36 348.50 367.04 350.69 377.89 C 353.27 389.07 349.46 401.31 341.57 409.52 C 331.02 420.98 313.21 424.85 298.84 418.89 C 287.69 414.35 279.27 403.82 277.24 391.96 C 275.61 384.89 277.01 377.49 279.67 370.87 C 284.64 358.80 296.60 350.22 309.49 348.78 Z" />
<path fill="#f5e5c1" opacity="1.00" d=" M 310.51 367.82 C 315.18 367.01 320.15 367.34 324.42 369.53 C 332.71 373.36 337.36 383.82 334.27 392.48 C 332.16 399.53 326.01 404.95 318.95 406.71 C 313.33 408.45 307.20 406.81 302.39 403.69 C 295.20 399.00 291.69 389.22 294.66 381.10 C 296.87 374.10 303.40 369.09 310.51 367.82 Z" />
<path fill="#3e3e3e" opacity="1.00" d=" M 276.60 493.61 C 355.09 459.85 433.46 425.79 512.00 392.14 L 512.00 512.00 L 233.55 512.00 C 248.04 506.22 262.25 499.74 276.60 493.61 Z" />
<path fill="#3e3e3e" opacity="1.00" d=" M 248.26 395.47 C 252.69 395.30 257.12 395.29 261.55 395.23 C 262.03 404.63 262.88 414.02 262.74 423.45 C 269.41 424.91 276.28 424.25 283.03 424.90 C 288.16 425.73 293.38 425.59 298.57 425.75 C 298.21 432.08 297.27 438.36 296.50 444.64 C 286.51 443.43 276.46 442.72 266.41 442.12 C 266.23 451.94 267.54 461.70 267.35 471.51 C 267.09 471.70 266.57 472.08 266.31 472.26 C 260.95 472.59 255.63 471.38 250.26 471.62 C 250.31 461.16 250.16 450.71 249.77 440.27 C 243.90 439.18 237.90 439.75 231.99 439.00 C 227.48 438.42 222.93 438.41 218.39 438.33 C 218.88 432.03 219.71 425.75 219.67 419.42 C 229.69 420.03 239.65 421.55 249.70 421.81 C 249.22 413.03 248.59 404.26 248.26 395.47 Z" />
</svg>
