<?xml version="1.0" encoding="UTF-8" ?>
<!DOCTYPE svg PUBLIC "-//W3C//DTD SVG 1.1//EN" "http://www.w3.org/Graphics/SVG/1.1/DTD/svg11.dtd">
<svg width="512pt" height="512pt" viewBox="0 0 512 512" version="1.1" xmlns="http://www.w3.org/2000/svg">
<path fill="#3e3e3e" opacity="1.00" d=" M 0.00 0.00 L 255.72 0.00 C 177.63 17.58 99.53 35.06 21.43 52.61 C 16.85 53.66 12.28 54.77 7.61 55.40 C 9.78 73.92 10.98 92.56 14.00 110.98 C 17.15 131.23 19.83 151.56 23.26 171.77 C 28.08 196.06 32.72 220.40 37.62 244.68 C 42.53 264.93 47.43 285.18 52.45 305.41 C 58.80 326.67 65.25 347.91 71.71 369.14 C 78.56 387.93 85.75 406.59 92.68 425.35 C 94.61 430.78 97.42 435.82 99.97 440.97 C 111.06 463.14 122.15 485.32 133.25 507.49 C 250.03 457.13 366.79 406.71 483.57 356.32 C 478.31 346.57 473.06 336.83 467.82 327.08 C 465.46 322.67 462.83 318.38 461.24 313.62 C 450.83 284.03 440.19 254.51 429.83 224.90 C 422.92 198.85 416.39 172.69 409.61 146.60 C 399.37 107.56 390.62 68.16 381.06 28.95 C 379.17 19.42 379.16 9.64 378.07 0.00 L 388.74 0.00 C 393.87 26.42 398.25 53.00 403.39 79.42 C 414.19 128.14 424.71 176.92 435.65 225.60 C 445.71 253.89 456.31 282.00 466.69 310.18 C 474.90 326.75 483.99 342.89 492.52 359.31 C 434.40 385.29 376.26 411.23 318.13 437.20 C 301.47 444.77 284.58 451.88 268.07 459.78 C 270.88 459.57 273.70 459.30 276.43 458.59 C 354.92 437.80 433.54 417.45 512.00 396.55 L 512.00 512.00 L 279.92 512.00 C 309.90 489.02 340.00 466.19 369.77 442.94 C 332.80 451.30 296.00 460.42 259.07 468.97 C 253.22 470.17 248.07 473.30 242.73 475.84 C 217.92 487.85 193.18 500.05 168.33 512.00 L 125.36 512.00 C 119.77 504.84 113.34 498.31 108.34 490.71 C 95.69 466.97 83.20 443.14 70.54 419.40 C 68.20 414.99 67.03 410.11 65.58 405.37 C 57.90 380.12 50.21 354.87 42.53 329.62 C 40.53 322.72 38.02 315.96 36.68 308.90 C 27.09 257.34 17.39 205.79 7.80 154.23 C 4.98 135.20 2.85 116.07 0.00 97.04 L 0.00 49.54 C 41.52 40.12 83.02 30.66 124.54 21.25 C 83.00 24.94 41.52 29.33 0.00 33.27 L 0.00 0.00 Z" />
<path fill="#f5e5c1" opacity="1.00" d=" M 255.72 0.00 L 335.18 0.00 C 235.33 22.97 135.50 46.08 35.60 68.86 C 34.83 71.18 34.47 73.62 35.05 76.04 C 39.97 106.63 44.53 137.29 49.51 167.88 C 63.51 226.95 77.83 285.95 91.87 345.01 C 92.49 347.81 93.59 350.46 94.98 352.97 C 98.29 359.05 101.51 365.17 104.79 371.27 C 146.43 356.81 188.07 342.33 229.71 327.86 C 262.12 316.59 294.55 305.39 326.82 293.73 C 357.80 283.74 388.38 272.54 419.19 262.01 C 414.96 250.82 410.70 239.65 406.47 228.46 C 404.94 224.37 403.15 220.34 402.18 216.07 C 386.57 144.08 370.85 72.10 355.75 0.00 L 378.07 0.00 C 379.16 9.64 379.17 19.42 381.06 28.95 C 390.62 68.16 399.37 107.56 409.61 146.60 C 416.39 172.69 422.92 198.85 429.83 224.90 C 440.19 254.51 450.83 284.03 461.24 313.62 C 462.83 318.38 465.46 322.67 467.82 327.08 C 473.06 336.83 478.31 346.57 483.57 356.32 C 366.79 406.71 250.03 457.13 133.25 507.49 C 122.15 485.32 111.06 463.14 99.97 440.97 C 97.42 435.82 94.61 430.78 92.68 425.35 C 85.75 406.59 78.56 387.93 71.71 369.14 C 65.25 347.91 58.80 326.67 52.45 305.41 C 47.43 285.18 42.53 264.93 37.62 244.68 C 32.72 220.40 28.08 196.06 23.26 171.77 C 19.83 151.56 17.15 131.23 14.00 110.98 C 10.98 92.56 9.78 73.92 7.61 55.40 C 12.28 54.77 16.85 53.66 21.43 52.61 C 99.53 35.06 177.63 17.58 255.72 0.00 Z" />
<path fill="#3e3e3e" opacity="1.00" d=" M 335.18 0.00 L 355.75 0.00 C 370.85 72.10 386.57 144.08 402.18 216.07 C 403.15 220.34 404.94 224.37 406.47 228.46 C 410.70 239.65 414.96 250.82 419.19 262.01 C 388.38 272.54 357.80 283.74 326.82 293.73 C 294.55 305.39 262.12 316.59 229.71 327.86 C 188.07 342.33 146.43 356.81 104.79 371.27 C 101.51 365.17 98.29 359.05 94.98 352.97 C 93.59 350.46 92.49 347.81 91.87 345.01 C 77.83 285.95 63.51 226.95 49.51 167.88 C 44.53 137.29 39.97 106.63 35.05 76.04 C 34.47 73.62 34.83 71.18 35.60 68.86 C 135.50 46.08 235.33 22.97 335.18 0.00 Z" />
<path fill="#f5722c" opacity="1.00" d=" M 388.74 0.00 L 512.00 0.00 L 512.00 396.55 C 433.54 417.45 354.92 437.80 276.43 458.59 C 273.70 459.30 270.88 459.57 268.07 459.78 C 284.58 451.88 301.47 444.77 318.13 437.20 C 376.26 411.23 434.40 385.29 492.52 359.31 C 483.99 342.89 474.90 326.75 466.69 310.18 C 456.31 282.00 445.71 253.89 435.65 225.60 C 424.71 176.92 414.19 128.14 403.39 79.42 C 398.25 53.00 393.87 26.42 388.74 0.00 Z" />
<path fill="#f5722c" opacity="1.00" d=" M 0.00 33.27 C 41.52 29.33 83.00 24.94 124.54 21.25 C 83.02 30.66 41.52 40.12 0.00 49.54 L 0.00 33.27 Z" />
<path fill="#f5722c" opacity="1.00" d=" M 0.00 97.04 C 2.85 116.07 4.98 135.20 7.80 154.23 C 17.39 205.79 27.09 257.34 36.68 308.90 C 38.02 315.96 40.53 322.72 42.53 329.62 C 50.21 354.87 57.90 380.12 65.58 405.37 C 67.03 410.11 68.20 414.99 70.54 419.40 C 83.20 443.14 95.69 466.97 108.34 490.71 C 113.34 498.31 119.77 504.84 125.36 512.00 L 0.00 512.00 L 0.00 97.04 Z" />
<path fill="#f5e5c1" opacity="1.00" d=" M 302.06 107.69 C 308.35 106.42 314.53 104.44 320.96 104.01 C 323.97 109.65 324.49 116.12 326.08 122.21 C 327.19 127.58 328.82 132.84 329.56 138.28 C 327.34 137.40 327.31 134.83 326.69 132.88 C 324.78 124.62 322.31 116.52 320.23 108.31 C 319.13 108.28 318.05 108.26 316.96 108.24 C 308.55 114.90 300.12 121.54 291.61 128.07 C 293.22 137.60 296.43 146.77 298.77 156.14 C 301.92 168.51 305.47 180.77 308.63 193.14 C 308.79 194.74 310.52 195.24 311.62 196.08 C 315.38 192.37 318.95 188.39 323.07 185.06 C 326.93 183.80 331.00 183.26 334.97 182.42 C 328.09 188.75 321.07 194.93 314.17 201.24 C 312.64 202.50 311.21 204.26 309.08 204.38 C 293.52 206.64 278.06 209.51 262.51 211.80 C 257.42 196.64 252.53 181.41 247.53 166.23 C 246.17 160.91 239.54 160.62 235.05 160.34 C 225.53 161.86 216.16 164.22 206.69 165.98 C 202.62 166.51 199.52 169.73 197.48 173.06 C 196.83 178.40 198.38 183.72 198.35 189.07 C 197.99 194.04 195.76 198.96 197.16 203.99 C 197.69 209.14 200.72 213.41 203.30 217.72 C 204.93 220.28 205.08 223.40 205.63 226.31 C 188.44 234.43 170.19 239.88 152.13 245.66 C 146.26 247.75 140.03 248.38 133.93 249.47 C 128.27 250.28 122.70 252.01 116.93 251.79 C 113.24 251.66 109.53 251.79 105.86 251.32 C 102.88 250.37 100.26 248.58 97.48 247.17 C 91.10 221.82 85.30 196.33 78.98 170.97 C 78.26 168.90 79.02 166.79 79.40 164.74 C 87.60 160.08 95.65 155.14 103.92 150.62 C 109.40 148.28 114.91 145.95 120.57 144.04 C 120.90 144.65 121.56 145.87 121.89 146.49 C 133.24 147.99 144.16 142.87 153.61 137.12 C 153.65 136.74 153.73 135.97 153.76 135.59 C 152.46 135.01 151.16 134.44 149.86 133.87 C 160.41 130.90 171.38 130.09 182.12 128.10 C 187.63 126.63 193.30 125.61 199.01 125.66 C 203.09 126.09 206.81 129.01 211.03 127.96 C 241.36 121.15 271.73 114.50 302.06 107.69 Z" />
<path fill="#3e3e3e" opacity="1.00" d=" M 182.20 130.18 C 183.24 130.30 184.27 130.40 185.31 130.48 C 185.66 132.14 186.02 133.80 186.43 135.45 C 184.55 137.60 182.31 139.45 179.69 140.63 C 176.08 142.33 172.89 144.85 169.13 146.24 C 162.05 148.78 155.20 151.93 147.97 154.06 C 137.26 157.87 126.12 160.28 115.17 163.28 C 109.84 164.79 104.32 165.53 98.79 165.52 C 97.77 162.58 96.85 159.58 96.33 156.50 C 101.31 157.90 106.42 156.72 111.41 155.96 C 129.75 152.16 147.62 146.38 165.28 140.18 C 170.76 137.87 176.40 135.80 181.38 132.49 C 181.59 131.91 182.00 130.76 182.20 130.18 Z" />
<path fill="#f5e5c1" opacity="1.00" d=" M 339.47 137.68 C 344.75 136.66 349.92 135.05 355.26 134.37 C 362.30 139.28 364.38 148.02 366.16 155.90 C 367.12 161.07 366.80 166.39 366.14 171.58 C 365.83 173.33 365.14 175.49 363.20 176.01 C 350.41 177.81 337.69 180.16 324.89 181.92 C 322.99 178.19 320.54 174.74 318.89 170.88 C 317.67 166.32 316.95 161.65 315.92 157.04 C 314.83 152.94 316.01 148.75 316.91 144.74 C 317.34 142.61 319.68 142.21 321.43 141.78 C 325.33 140.96 329.21 140.09 333.09 139.20 C 331.55 143.65 330.93 148.37 331.37 153.07 C 332.00 159.34 332.62 165.82 335.65 171.48 C 336.33 171.67 337.69 172.05 338.37 172.24 C 338.71 170.97 339.34 169.68 339.03 168.33 C 337.81 161.94 335.81 155.53 336.40 148.95 C 336.62 145.02 337.92 141.26 339.47 137.68 Z" />
<path fill="#3e3e3e" opacity="1.00" d=" M 353.42 139.84 C 353.87 139.48 354.76 138.75 355.21 138.38 C 360.29 141.94 362.34 148.07 363.62 153.86 C 364.73 159.45 365.45 165.52 363.26 170.95 C 359.82 169.54 357.96 166.22 356.95 162.82 C 354.65 155.45 351.64 147.65 353.42 139.84 Z" />
<path fill="#f5e5c1" opacity="1.00" d=" M 231.00 167.90 C 234.51 166.91 238.92 169.12 240.07 172.63 C 246.57 191.18 253.27 209.66 259.84 228.18 C 260.71 230.76 261.10 233.47 261.59 236.14 C 260.94 236.32 259.64 236.68 258.98 236.86 C 256.04 240.66 251.32 242.12 247.22 244.26 C 245.23 244.79 243.08 244.31 241.05 244.52 C 242.55 247.63 246.32 247.88 249.17 249.01 C 246.25 251.81 242.36 253.69 240.35 257.34 C 236.93 263.36 232.55 268.96 230.73 275.75 C 229.79 279.38 226.74 281.79 224.39 284.50 C 224.44 281.63 224.93 278.73 224.41 275.88 C 222.22 270.10 217.51 264.43 210.81 264.39 C 214.20 258.98 216.87 253.12 220.77 248.00 C 219.85 247.10 218.94 246.20 218.03 245.29 C 226.05 243.96 234.15 243.23 242.21 242.18 C 246.78 241.54 251.08 239.78 255.50 238.52 C 249.25 238.28 243.16 239.90 236.99 240.59 C 229.51 241.79 221.98 242.53 214.51 243.79 C 212.96 236.25 212.08 228.58 210.88 220.98 C 210.07 214.63 204.35 210.28 203.22 204.04 C 201.60 198.67 204.43 193.39 204.34 188.00 C 204.35 183.51 202.82 179.07 203.49 174.58 C 205.29 173.02 207.78 172.78 210.01 172.23 C 217.01 170.83 224.01 169.40 231.00 167.90 Z" />
<path fill="#3e3e3e" opacity="1.00" d=" M 218.51 176.74 C 222.79 175.24 226.89 177.79 230.84 179.12 C 234.88 180.34 237.67 183.62 240.64 186.41 C 242.73 187.96 242.35 190.76 242.87 193.03 C 243.33 196.68 244.58 200.27 244.43 203.97 C 241.96 212.91 232.75 216.86 224.86 219.87 C 226.45 218.91 228.05 217.95 229.69 217.07 C 231.95 214.27 234.45 211.63 236.38 208.58 C 239.33 201.52 238.30 192.54 232.98 186.86 C 228.04 183.24 222.13 180.57 215.87 180.84 C 212.83 181.56 209.99 182.88 207.01 183.79 C 210.47 180.89 214.35 178.48 218.51 176.74 Z" />
<path fill="#f5e5c1" opacity="1.00" d=" M 154.01 248.02 C 166.88 243.32 179.65 238.33 192.79 234.40 C 191.91 235.91 191.48 237.87 190.02 238.91 C 188.48 238.56 187.00 238.02 185.52 237.52 C 181.91 240.77 178.49 245.42 179.47 250.55 C 180.77 250.51 182.07 250.57 183.36 250.39 C 184.90 248.81 185.87 246.79 186.98 244.91 C 195.26 249.60 203.40 254.53 211.61 259.35 C 208.85 262.90 205.83 266.24 203.41 270.05 C 206.04 269.91 208.01 268.34 209.82 266.64 C 210.72 266.63 212.53 266.59 213.43 266.58 C 216.14 268.46 219.01 270.42 220.51 273.48 C 222.68 277.37 222.71 281.95 222.29 286.27 C 219.53 287.24 216.76 288.18 213.96 288.99 C 211.11 286.26 207.92 283.76 205.84 280.36 C 204.75 277.87 204.12 275.22 203.36 272.63 C 194.05 267.29 186.63 259.44 178.21 252.93 C 174.19 252.74 170.23 254.94 166.17 255.26 C 161.86 253.34 158.15 250.28 154.01 248.02 Z" />
<path fill="#f5e5c1" opacity="1.00" d=" M 284.50 236.36 C 284.72 235.59 284.94 234.82 285.17 234.06 C 287.16 241.32 288.37 248.77 290.01 256.11 C 290.64 259.38 291.65 262.61 291.72 265.96 C 291.09 267.73 289.14 268.58 287.58 269.39 C 279.92 272.73 271.34 273.75 263.05 273.23 C 261.14 273.40 260.87 271.23 260.42 269.88 C 258.44 262.82 256.77 255.66 253.97 248.87 C 252.94 247.35 254.84 246.22 256.12 246.20 C 262.99 244.75 270.12 243.82 276.49 240.67 C 279.16 239.22 281.77 237.68 284.50 236.36 Z" />
<path fill="#f5e5c1" opacity="1.00" d=" M 296.58 252.26 C 302.85 252.03 310.76 251.41 314.73 257.37 C 316.86 261.38 319.51 265.90 318.50 270.59 C 314.82 275.42 308.98 277.92 303.81 280.83 C 295.25 285.73 285.55 288.07 275.99 290.11 C 269.23 292.51 261.91 292.14 254.94 291.02 C 251.99 290.43 248.76 289.59 246.73 287.21 C 246.01 282.16 245.68 277.06 245.71 271.96 C 247.67 270.05 249.72 268.22 252.05 266.78 C 253.10 270.42 254.03 274.10 254.67 277.85 C 257.83 280.47 262.13 280.48 266.03 280.66 C 277.82 280.75 290.27 278.26 299.39 270.32 C 300.25 268.27 299.85 266.01 299.28 263.95 C 298.19 260.10 297.46 256.16 296.58 252.26 Z" />
<path fill="#3e3e3e" opacity="1.00" d=" M 210.33 271.41 C 215.54 270.49 218.27 276.79 218.32 281.08 C 218.60 284.34 214.24 286.95 211.87 284.25 C 208.68 281.22 205.02 274.03 210.33 271.41 Z" />
<path fill="#f5e5c1" opacity="1.00" d=" M 291.48 294.81 C 304.63 289.96 317.16 282.96 327.32 273.21 C 329.34 276.68 330.59 280.52 332.10 284.22 C 318.90 289.04 305.65 293.74 292.47 298.66 C 292.14 297.37 291.80 296.09 291.48 294.81 Z" />
<path fill="#f5e5c1" opacity="1.00" d=" M 223.27 323.75 C 228.07 313.60 232.74 303.37 237.44 293.17 C 244.26 295.69 251.20 298.25 258.50 298.82 C 263.20 299.31 267.92 299.09 272.64 299.17 C 271.24 302.45 270.25 306.89 266.40 308.07 C 252.01 313.27 237.60 318.41 223.27 323.75 Z" />
<path fill="#3e3e3e" opacity="1.00" d=" M 407.46 299.69 C 416.62 297.44 426.80 298.91 434.59 304.37 C 446.52 312.31 451.73 328.79 446.23 342.08 C 440.39 357.18 422.43 365.83 406.91 361.73 C 393.14 358.55 382.70 345.15 382.97 331.01 C 382.69 316.56 393.38 302.92 407.46 299.69 Z" />
<path fill="#f5e5c1" opacity="1.00" d=" M 412.48 315.60 C 416.88 314.79 421.62 315.20 425.57 317.41 C 432.39 320.99 435.85 329.77 433.43 337.06 C 431.10 344.86 423.12 350.53 414.97 350.04 C 406.03 349.97 397.73 342.04 397.95 332.96 C 397.36 324.50 404.29 316.88 412.48 315.60 Z" />
<path fill="#3e3e3e" opacity="1.00" d=" M 368.29 322.78 C 371.63 324.80 374.99 326.81 378.33 328.84 C 374.25 336.16 370.14 343.45 366.05 350.76 C 374.52 356.85 382.95 362.99 391.43 369.08 C 388.04 373.30 384.67 377.54 381.29 381.77 C 374.17 376.49 367.17 371.05 360.04 365.79 C 355.56 373.41 351.19 381.09 346.68 388.70 C 342.55 385.90 338.37 383.19 334.24 380.39 C 339.04 372.50 343.82 364.60 348.63 356.73 C 341.23 351.40 333.85 346.04 326.44 340.73 C 329.63 336.26 332.88 331.83 336.12 327.40 C 343.03 332.73 349.96 338.04 356.91 343.32 C 360.68 336.46 364.51 329.64 368.29 322.78 Z" />
<path fill="#3e3e3e" opacity="1.00" d=" M 287.33 325.53 C 296.85 323.09 307.52 324.67 315.49 330.57 C 326.66 338.53 331.71 354.09 326.79 366.98 C 321.10 383.25 301.41 392.37 285.20 386.93 C 272.10 382.97 262.66 369.68 263.23 356.00 C 263.30 341.94 273.69 328.85 287.33 325.53 Z" />
<path fill="#f5e5c1" opacity="1.00" d=" M 291.41 341.64 C 296.41 340.38 301.97 340.79 306.44 343.51 C 313.31 347.54 316.36 356.87 313.19 364.19 C 309.71 373.32 298.35 378.40 289.28 374.57 C 281.59 371.69 276.74 363.13 278.43 355.04 C 279.56 348.49 285.02 343.17 291.41 341.64 Z" />
<path fill="#3e3e3e" opacity="1.00" d=" M 238.30 365.50 C 242.24 365.32 246.19 365.28 250.13 365.28 C 250.40 373.63 250.93 381.96 251.32 390.31 C 261.72 390.89 272.12 391.55 282.52 392.37 C 281.94 397.77 281.32 403.18 280.59 408.57 C 271.84 407.51 263.03 406.91 254.24 406.24 C 254.55 415.01 254.60 423.80 255.28 432.56 C 250.24 432.58 245.21 432.43 240.18 432.35 C 239.95 423.07 239.71 413.79 239.75 404.51 C 230.63 404.02 221.49 403.56 212.40 402.66 C 212.72 397.24 213.27 391.84 213.47 386.41 C 222.21 387.12 230.90 388.24 239.65 388.73 C 239.16 380.99 238.70 373.25 238.30 365.50 Z" />
<path fill="#f5722c" opacity="1.00" d=" M 259.07 468.97 C 296.00 460.42 332.80 451.30 369.77 442.94 C 340.00 466.19 309.90 489.02 279.92 512.00 L 168.33 512.00 C 193.18 500.05 217.92 487.85 242.73 475.84 C 248.07 473.30 253.22 470.17 259.07 468.97 Z" />
</svg>
