<?xml version="1.0" encoding="UTF-8" ?>
<!DOCTYPE svg PUBLIC "-//W3C//DTD SVG 1.1//EN" "http://www.w3.org/Graphics/SVG/1.1/DTD/svg11.dtd">
<svg width="512pt" height="512pt" viewBox="0 0 512 512" version="1.1" xmlns="http://www.w3.org/2000/svg">
<path fill="#3e3e3e" opacity="1.00" d=" M 0.00 0.00 L 331.74 0.00 C 327.61 0.34 323.61 1.46 319.59 2.41 C 310.03 5.64 300.41 8.84 291.31 13.27 C 281.93 18.34 272.39 23.31 264.15 30.16 C 261.71 32.19 259.17 34.10 256.61 35.99 C 256.33 36.25 255.77 36.76 255.49 37.02 C 252.62 39.45 249.98 42.12 247.23 44.67 C 237.69 54.49 228.79 65.03 221.98 76.95 C 218.31 83.60 213.95 89.94 211.35 97.12 C 203.21 118.06 197.26 140.32 198.00 162.95 C 197.26 185.67 202.73 208.13 210.83 229.22 C 212.80 234.26 215.20 239.13 218.09 243.71 C 225.51 257.42 234.57 270.33 245.86 281.13 C 259.82 296.09 277.27 307.36 295.54 316.33 C 318.07 325.79 342.41 331.86 366.97 331.01 C 385.22 331.36 403.36 327.69 420.57 321.77 C 429.38 319.15 437.89 315.52 445.70 310.65 C 469.10 298.26 488.88 279.67 503.97 258.01 C 506.81 253.34 510.29 248.94 512.00 243.68 L 512.00 512.00 L 0.00 512.00 L 0.00 0.00 Z" />
<path fill="#f5e5c1" opacity="1.00" d=" M 331.74 0.00 L 398.35 0.00 C 406.02 0.52 413.29 3.25 420.52 5.68 C 448.82 15.18 473.97 33.03 493.38 55.57 C 500.08 64.54 507.63 73.19 512.00 83.60 L 512.00 243.68 C 510.29 248.94 506.81 253.34 503.97 258.01 C 488.88 279.67 469.10 298.26 445.70 310.65 C 437.89 315.52 429.38 319.15 420.57 321.77 C 403.36 327.69 385.22 331.36 366.97 331.01 C 342.41 331.86 318.07 325.79 295.54 316.33 C 277.27 307.36 259.82 296.09 245.86 281.13 C 234.57 270.33 225.51 257.42 218.09 243.71 C 215.20 239.13 212.80 234.26 210.83 229.22 C 202.73 208.13 197.26 185.67 198.00 162.95 C 197.26 140.32 203.21 118.06 211.35 97.12 C 213.95 89.94 218.31 83.60 221.98 76.95 C 228.79 65.03 237.69 54.49 247.23 44.67 C 249.98 42.12 252.62 39.45 255.49 37.02 C 255.77 36.76 256.33 36.25 256.61 35.99 C 259.17 34.10 261.71 32.19 264.15 30.16 C 272.39 23.31 281.93 18.34 291.31 13.27 C 300.41 8.84 310.03 5.64 319.59 2.41 C 323.61 1.46 327.61 0.34 331.74 0.00 Z" />
<path fill="#3e3e3e" opacity="1.00" d=" M 398.35 0.00 L 512.00 0.00 L 512.00 83.60 C 507.63 73.19 500.08 64.54 493.38 55.57 C 473.97 33.03 448.82 15.18 420.52 5.68 C 413.29 3.25 406.02 0.52 398.35 0.00 Z" />
<path fill="#3e3e3e" opacity="1.00" d=" M 271.56 53.49 C 295.67 33.11 326.84 20.99 358.42 20.16 C 358.37 27.98 358.40 35.81 358.40 43.64 C 362.37 43.64 366.34 43.65 370.31 43.60 C 370.28 35.78 370.30 27.96 370.29 20.13 C 399.15 21.53 427.56 31.98 450.42 49.66 C 483.97 75.24 505.28 116.44 505.94 158.69 C 495.65 158.71 485.35 158.71 475.06 158.69 C 474.99 162.66 475.00 166.63 475.02 170.61 C 485.36 170.61 495.70 170.58 506.04 170.62 C 504.78 191.40 498.94 211.85 489.24 230.26 C 479.25 248.68 465.31 264.98 448.43 277.42 C 425.94 294.31 398.31 303.95 370.28 305.55 C 370.30 299.49 370.29 293.44 370.30 287.39 C 366.33 287.34 362.36 287.35 358.39 287.35 C 358.40 293.41 358.37 299.47 358.43 305.53 C 335.28 304.77 312.46 298.12 292.35 286.69 C 257.69 266.98 232.14 232.15 223.80 193.15 C 222.19 185.72 221.38 178.15 220.57 170.60 C 231.79 170.60 243.02 170.62 254.25 170.59 C 254.24 166.62 254.24 162.66 254.23 158.70 C 243.01 158.70 231.78 158.70 220.56 158.70 C 221.66 118.52 240.53 79.12 271.56 53.49 Z" />
<path fill="#f5e5c1" opacity="1.00" d=" M 341.08 51.79 C 342.90 50.84 344.87 50.18 346.96 50.33 C 359.80 50.41 372.63 50.22 385.47 50.45 C 386.18 51.10 386.90 51.75 387.62 52.40 C 387.73 55.28 388.03 59.84 384.04 60.03 C 373.03 60.46 362.00 60.12 350.98 60.23 C 348.37 60.18 345.70 60.42 343.15 59.75 C 340.13 58.32 341.37 54.43 341.08 51.79 Z" />
<path fill="#f5e5c1" opacity="1.00" d=" M 358.46 97.54 C 358.34 87.27 358.39 77.00 358.42 66.73 C 362.38 66.75 366.34 66.75 370.30 66.76 C 370.25 77.00 370.37 87.24 370.24 97.48 C 381.71 98.65 392.95 102.25 402.61 108.61 C 405.76 111.02 408.88 113.47 411.88 116.07 C 415.13 119.12 417.59 122.88 420.34 126.36 C 426.51 136.08 431.04 147.33 430.85 159.00 C 430.80 165.81 431.32 172.74 429.69 179.42 C 426.32 194.10 417.75 207.69 405.54 216.58 C 395.46 224.40 382.99 228.94 370.30 229.85 C 370.28 240.68 370.31 251.50 370.29 262.33 C 366.32 262.47 362.36 262.53 358.40 262.56 C 358.40 251.65 358.37 240.74 358.41 229.82 C 347.03 228.44 335.91 224.55 326.54 217.87 C 324.13 216.00 321.84 213.96 319.32 212.25 C 306.48 199.36 298.42 181.41 299.10 163.06 C 298.75 138.67 313.50 114.88 335.48 104.32 C 342.64 100.61 350.58 98.96 358.46 97.54 Z" />
<path fill="#3e3e3e" opacity="1.00" d=" M 341.34 112.24 C 346.73 109.71 352.58 108.34 358.43 107.36 C 358.38 111.96 358.38 116.57 358.42 121.18 C 355.99 121.63 353.58 122.19 351.17 122.73 C 338.87 127.00 328.61 137.01 324.47 149.40 C 322.53 154.70 322.74 160.44 322.72 166.00 C 322.08 185.94 339.02 203.77 358.41 206.36 C 358.38 210.55 358.39 214.75 358.43 218.95 C 341.72 217.88 326.34 207.52 317.31 193.68 C 313.14 187.68 311.03 180.62 308.70 173.79 C 306.58 158.72 310.03 142.83 319.06 130.44 C 325.22 123.03 332.33 116.07 341.34 112.24 Z" />
<path fill="#3e3e3e" opacity="1.00" d=" M 370.32 107.33 C 385.03 109.33 399.28 116.60 408.40 128.49 C 418.08 140.40 422.29 156.39 420.42 171.56 C 419.26 176.43 417.74 181.20 416.04 185.91 C 409.76 199.55 398.20 210.77 384.07 216.03 C 379.64 217.77 374.95 218.63 370.29 219.49 C 370.29 215.25 370.28 211.02 370.33 206.78 C 376.86 205.54 383.47 203.80 389.01 199.96 C 396.39 194.93 402.62 187.84 405.59 179.32 C 411.28 163.81 408.05 144.78 395.88 133.19 C 389.17 126.07 379.82 122.18 370.28 120.70 C 370.30 116.24 370.28 111.79 370.32 107.33 Z" />
<path fill="#3e3e3e" opacity="1.00" d=" M 330.33 152.37 C 334.45 139.87 345.65 130.44 358.41 127.61 C 358.40 137.98 358.36 148.34 358.43 158.71 C 349.99 158.68 341.55 158.73 333.11 158.68 C 333.07 162.66 333.01 166.64 332.74 170.62 C 341.30 170.57 349.87 170.65 358.43 170.58 C 358.36 180.08 358.40 189.59 358.41 199.10 C 344.22 196.71 332.44 185.05 329.36 171.10 C 328.85 164.89 327.98 158.33 330.33 152.37 Z" />
<path fill="#3e3e3e" opacity="1.00" d=" M 370.26 158.72 C 370.36 148.29 370.23 137.87 370.33 127.44 C 379.05 129.53 387.34 133.89 392.95 141.04 C 399.77 149.22 402.19 160.46 400.62 170.86 C 398.49 176.86 395.97 182.90 391.62 187.65 C 386.05 193.67 378.54 198.08 370.33 199.12 C 370.25 189.60 370.33 180.08 370.28 170.56 C 379.49 170.67 388.69 170.56 397.90 170.62 C 397.91 166.64 397.91 162.66 397.88 158.69 C 388.67 158.72 379.46 158.68 370.26 158.72 Z" />
<path fill="#f5e5c1" opacity="1.00" d=" M 263.09 141.40 C 265.27 141.43 267.45 141.47 269.63 141.55 C 270.94 145.57 270.45 149.85 270.51 154.00 C 270.52 164.03 270.48 174.06 270.54 184.09 C 270.46 185.91 270.74 188.01 269.41 189.48 C 267.31 189.95 265.15 189.82 263.03 189.89 C 262.13 188.38 260.72 186.95 260.72 185.09 C 260.95 172.39 260.54 159.67 260.93 146.97 C 260.84 144.85 261.82 143.01 263.09 141.40 Z" />
<path fill="#f5e5c1" opacity="1.00" d=" M 457.44 148.06 C 457.42 145.83 457.64 143.61 458.12 141.44 C 460.18 141.43 462.26 141.35 464.31 141.63 C 466.21 142.67 466.37 145.03 466.38 146.96 C 466.41 159.30 466.36 171.65 466.41 184.00 C 466.51 186.30 465.88 188.53 465.11 190.68 C 462.81 190.75 460.48 190.92 458.21 190.52 C 457.31 188.82 457.50 186.83 457.44 184.98 C 457.49 172.67 457.48 160.37 457.44 148.06 Z" />
<path fill="#f5e5c1" opacity="1.00" d=" M 277.47 170.61 C 277.47 166.64 277.46 162.66 277.51 158.69 C 283.61 158.70 289.70 158.71 295.80 158.69 C 295.85 162.66 295.87 166.63 295.85 170.61 C 289.72 170.60 283.60 170.59 277.47 170.61 Z" />
<path fill="#f5e5c1" opacity="1.00" d=" M 311.49 158.68 C 314.06 158.69 316.65 158.70 319.23 158.71 C 319.25 162.67 319.25 166.63 319.25 170.60 C 316.75 170.60 314.26 170.60 311.76 170.60 C 311.78 166.63 311.76 162.65 311.49 158.68 Z" />
<path fill="#f5e5c1" opacity="1.00" d=" M 411.79 158.71 C 413.63 158.70 415.47 158.69 417.32 158.68 C 417.23 162.65 417.23 166.63 417.26 170.60 C 415.45 170.60 413.64 170.60 411.83 170.61 C 411.82 166.64 411.82 162.67 411.79 158.71 Z" />
<path fill="#f5e5c1" opacity="1.00" d=" M 434.14 158.69 C 439.59 158.70 445.04 158.70 450.49 158.69 C 450.52 162.67 450.51 166.64 450.51 170.61 C 445.04 170.60 439.57 170.60 434.10 170.61 C 434.08 166.64 434.08 162.66 434.14 158.69 Z" />
<path fill="#f5722c" opacity="1.00" d=" M 161.41 190.01 C 171.76 193.53 182.07 197.17 192.41 200.74 C 193.60 205.18 194.73 209.64 195.84 214.11 C 192.05 212.42 187.66 211.92 183.87 213.86 C 178.05 211.75 172.25 209.56 166.49 207.29 C 165.73 200.64 157.00 198.87 152.00 201.87 C 150.45 202.54 150.56 204.34 150.26 205.73 C 123.89 220.30 97.67 235.15 71.34 249.80 C 71.60 250.45 72.14 251.76 72.41 252.42 C 94.97 261.72 117.47 271.17 140.01 280.51 C 161.02 265.00 182.02 249.47 203.05 233.97 C 210.36 250.88 220.32 266.65 232.47 280.50 C 238.33 286.31 243.97 292.35 250.03 297.95 C 259.45 305.44 269.09 312.80 279.86 318.26 C 284.55 320.89 289.21 323.60 294.18 325.68 C 311.17 332.27 328.79 337.96 347.07 339.28 C 356.66 340.57 366.35 339.82 375.99 339.99 C 383.25 339.38 390.55 338.88 397.73 337.57 C 390.41 361.34 383.26 385.16 375.99 408.94 C 372.31 421.87 367.92 434.57 363.20 447.15 C 360.81 453.18 360.17 459.76 357.76 465.76 C 352.19 470.54 345.46 474.65 337.89 474.77 C 334.74 474.76 331.77 473.46 328.97 472.15 C 318.45 467.01 307.86 462.00 297.32 456.90 C 300.12 447.07 303.16 437.30 305.99 427.48 C 297.68 423.61 289.40 419.71 281.11 415.81 C 279.43 418.35 277.75 420.96 277.01 423.95 C 275.15 430.75 273.26 437.55 271.40 444.36 C 252.82 435.67 234.41 426.65 215.91 417.81 C 215.93 415.22 215.96 412.63 216.00 410.04 C 217.21 409.84 218.43 409.65 219.64 409.47 C 221.13 407.67 223.01 406.07 223.92 403.88 C 225.02 399.81 225.30 395.58 225.96 391.43 C 225.40 390.96 224.28 390.02 223.72 389.55 C 222.79 390.02 221.87 390.49 220.94 390.97 C 215.96 388.66 210.99 386.34 206.03 383.99 C 205.98 383.32 205.90 381.96 205.85 381.28 C 204.68 381.06 203.51 380.84 202.34 380.63 C 200.09 383.21 197.32 385.43 195.64 388.45 C 194.71 392.22 194.71 396.14 194.44 400.00 C 196.80 400.48 199.17 400.96 201.54 401.46 C 200.58 404.13 199.63 406.81 198.70 409.49 C 172.14 396.88 145.70 384.04 119.17 371.39 C 119.42 368.61 119.69 365.84 119.96 363.08 C 122.31 361.71 124.66 360.34 127.01 358.98 C 127.00 355.00 127.00 351.02 126.99 347.05 C 125.89 346.21 124.79 345.37 123.69 344.53 C 122.44 345.17 121.19 345.81 119.94 346.46 C 116.80 344.48 113.67 342.50 110.53 340.52 C 110.36 339.37 110.20 338.21 110.03 337.07 C 109.03 336.54 108.02 336.01 107.02 335.49 C 104.34 337.99 101.67 340.50 99.00 343.01 C 99.16 346.63 99.33 350.25 99.45 353.87 C 100.63 354.09 101.81 354.31 102.99 354.53 C 102.58 357.35 102.19 360.18 101.79 363.01 C 88.34 356.54 74.85 350.14 61.44 343.59 C 62.23 341.12 63.08 338.59 62.89 335.96 C 62.63 329.45 62.29 322.94 61.96 316.43 C 55.73 313.19 49.63 309.71 43.38 306.51 C 41.77 307.85 40.15 309.18 38.52 310.51 C 38.26 314.15 37.44 317.88 38.41 321.49 C 39.46 325.73 40.70 329.92 41.74 334.16 C 35.50 331.14 29.18 328.25 22.98 325.14 C 19.85 323.35 15.98 321.56 15.18 317.65 C 13.81 314.22 16.40 311.00 18.17 308.29 C 17.32 300.49 16.07 292.75 15.02 284.98 C 14.27 280.43 15.21 275.78 16.60 271.45 C 19.22 267.34 24.02 265.45 28.10 263.10 C 72.54 238.76 117.01 214.45 161.41 190.01 Z" />
<path fill="#f5e5c1" opacity="1.00" d=" M 152.00 201.87 C 157.00 198.87 165.73 200.64 166.49 207.29 C 163.35 211.74 157.30 211.00 152.82 209.38 C 151.91 208.61 150.99 207.84 150.08 207.08 C 150.12 206.74 150.22 206.06 150.26 205.73 C 150.56 204.34 150.45 202.54 152.00 201.87 Z" />
<path fill="#f5e5c1" opacity="1.00" d=" M 183.87 213.86 C 187.66 211.92 192.05 212.42 195.84 214.11 C 196.94 216.26 197.34 218.67 197.71 221.04 C 194.13 222.46 190.02 223.37 186.32 221.86 C 183.93 221.07 182.58 218.83 181.13 216.96 C 182.01 215.90 182.92 214.87 183.87 213.86 Z" />
<path fill="#f5e5c1" opacity="1.00" d=" M 131.13 222.44 C 134.07 220.55 136.63 218.17 139.06 215.68 C 142.01 217.10 144.97 218.50 147.90 219.97 C 146.40 224.55 140.86 225.22 137.28 227.65 C 135.39 226.85 133.49 226.05 131.60 225.27 C 131.44 224.32 131.28 223.38 131.13 222.44 Z" />
<path fill="#f5722c" opacity="1.00" d=" M 242.09 217.91 C 277.80 230.42 313.57 242.75 349.32 255.15 C 349.35 256.70 349.39 258.25 349.43 259.81 C 344.91 259.92 339.91 260.21 336.42 263.47 C 331.15 267.50 331.10 275.12 332.84 280.92 C 335.80 287.03 343.19 288.79 349.44 288.60 C 349.41 290.99 349.41 293.39 349.41 295.79 C 334.79 294.45 320.44 290.23 307.30 283.69 C 295.14 279.26 284.78 271.13 275.07 262.77 C 268.36 257.84 263.08 251.30 258.18 244.63 C 254.55 239.91 250.79 235.25 247.81 230.07 C 245.53 226.20 244.03 221.94 242.09 217.91 Z" />
<path fill="#f5e5c1" opacity="1.00" d=" M 148.72 219.66 C 151.61 220.67 154.50 221.68 157.39 222.69 C 157.91 223.59 158.43 224.50 158.95 225.41 C 155.72 227.60 152.52 229.83 149.29 232.00 C 146.87 230.88 144.45 229.77 142.02 228.68 C 142.22 227.80 142.42 226.92 142.62 226.04 C 144.24 225.17 145.86 224.30 147.49 223.44 C 147.90 222.18 148.31 220.92 148.72 219.66 Z" />
<path fill="#f5e5c1" opacity="1.00" d=" M 30.98 231.02 C 50.63 229.33 70.28 227.68 89.93 226.01 C 72.31 234.72 54.65 243.33 37.02 252.00 C 34.97 245.02 33.03 238.00 30.98 231.02 Z" />
<path fill="#f5e5c1" opacity="1.00" d=" M 171.23 227.78 C 174.51 229.30 177.93 230.53 181.10 232.27 C 178.63 235.63 175.04 237.90 171.97 240.66 C 168.89 239.40 165.80 238.11 162.91 236.43 C 165.94 233.80 169.34 231.44 171.23 227.78 Z" />
<path fill="#f5e5c1" opacity="1.00" d=" M 95.37 251.04 C 98.29 248.09 101.32 245.23 104.32 242.35 C 107.41 243.61 110.49 244.90 113.57 246.18 C 111.15 249.28 108.72 252.38 106.32 255.49 C 102.76 253.78 99.03 252.50 95.37 251.04 Z" />
<path fill="#f5e5c1" opacity="1.00" d=" M 108.96 256.23 C 111.52 253.30 114.09 250.37 116.71 247.48 C 119.83 248.77 122.94 250.07 126.07 251.35 C 123.58 254.16 121.13 257.01 118.65 259.84 C 115.42 258.64 112.19 257.44 108.96 256.23 Z" />
<path fill="#f5e5c1" opacity="1.00" d=" M 121.55 260.96 C 123.63 257.99 125.73 255.03 127.84 252.09 C 131.77 253.74 135.71 255.36 139.65 257.01 C 137.22 259.67 134.79 262.32 132.38 265.00 C 128.77 263.65 125.16 262.31 121.55 260.96 Z" />
<path fill="#f5e5c1" opacity="1.00" d=" M 341.12 270.95 C 342.62 270.17 344.12 269.16 345.90 269.31 C 358.38 269.37 370.86 268.94 383.34 269.37 C 384.11 270.08 384.88 270.79 385.66 271.50 C 385.63 273.43 385.76 275.38 385.39 277.29 C 384.19 279.04 381.99 279.49 379.99 279.46 C 369.32 279.54 358.64 279.46 347.96 279.49 C 345.72 279.43 343.00 279.60 341.52 277.57 C 340.87 275.42 341.16 273.15 341.12 270.95 Z" />
<path fill="#f5722c" opacity="1.00" d=" M 394.64 270.86 C 399.93 273.17 406.86 273.56 410.17 278.93 C 411.15 281.56 411.16 284.44 411.59 287.20 C 401.31 291.61 390.34 294.16 379.31 295.77 C 379.30 293.39 379.28 291.01 379.26 288.63 C 383.26 288.16 387.77 287.92 390.67 284.71 C 394.70 281.33 394.72 275.67 394.64 270.86 Z" />
<path fill="#f5e5c1" opacity="1.00" d=" M 41.65 311.06 C 47.24 312.41 52.46 314.98 57.56 317.55 C 60.31 318.52 59.60 321.76 59.72 324.03 C 59.67 329.32 60.50 334.66 59.74 339.92 C 59.44 341.99 57.45 343.72 55.39 342.49 C 51.14 340.55 46.45 339.11 42.83 336.09 C 40.18 328.11 38.60 319.18 41.65 311.06 Z" />
<path fill="#f5722c" opacity="1.00" d=" M 21.60 328.71 C 48.12 341.46 74.77 353.97 101.25 366.80 C 100.09 374.35 99.04 381.91 97.92 389.46 C 75.95 378.35 54.02 367.13 32.01 356.08 C 28.22 354.29 25.61 350.61 24.08 346.82 C 22.83 340.85 22.53 334.73 21.60 328.71 Z" />
<path fill="#3e3e3e" opacity="1.00" d=" M 158.90 335.93 C 163.58 337.47 168.08 339.51 172.63 341.40 C 231.09 365.76 289.55 390.14 348.01 414.50 C 353.85 407.50 359.72 400.53 365.52 393.51 C 367.09 391.57 369.04 390.03 371.03 388.56 C 365.14 401.30 360.41 414.55 355.01 427.50 C 289.64 396.97 224.21 366.56 158.90 335.93 Z" />
<path fill="#f5e5c1" opacity="1.00" d=" M 400.81 336.82 C 402.54 336.41 404.27 336.00 406.01 335.61 C 413.03 340.03 420.00 344.54 427.00 349.00 C 407.00 382.98 387.02 416.98 367.02 450.95 C 366.49 450.78 365.42 450.44 364.89 450.28 C 365.76 448.63 366.63 446.99 367.21 445.22 C 378.35 409.07 389.63 372.96 400.81 336.82 Z" />
<path fill="#f5e5c1" opacity="1.00" d=" M 104.90 354.38 C 100.43 350.89 101.30 342.24 106.61 340.30 C 109.97 346.16 116.57 350.44 123.50 349.34 C 123.91 352.37 124.55 355.58 123.53 358.56 C 121.69 359.65 119.66 360.33 117.70 361.15 C 117.42 360.93 116.86 360.49 116.58 360.27 C 116.76 372.86 116.48 385.45 116.63 398.03 C 116.54 401.91 117.91 406.33 121.50 408.30 C 133.52 414.39 145.48 420.62 157.73 426.26 C 166.43 430.96 175.18 435.59 184.10 439.86 C 186.63 441.28 189.48 440.00 192.08 439.49 C 193.51 436.84 194.71 434.06 195.47 431.14 C 198.18 421.38 201.15 411.69 203.84 401.91 C 201.55 400.68 197.38 400.40 197.43 397.08 C 197.09 391.90 200.43 387.66 203.96 384.29 C 208.97 387.13 213.99 390.00 218.70 393.32 C 221.58 395.28 220.52 399.16 220.03 402.02 C 219.78 406.37 214.82 407.25 211.67 408.90 C 212.65 412.50 213.84 416.16 213.30 419.95 C 212.50 427.60 212.72 435.31 212.03 442.97 C 211.29 451.66 211.95 460.49 209.98 469.05 C 209.21 472.40 208.14 476.02 205.43 478.34 C 200.37 481.36 193.58 481.78 188.47 478.67 C 182.45 474.53 175.91 471.25 169.63 467.55 C 149.02 455.86 128.46 444.10 107.85 432.39 C 105.33 430.86 102.50 429.70 100.37 427.60 C 97.46 420.83 97.66 413.18 98.14 405.95 C 100.52 388.78 102.96 371.61 104.90 354.38 Z" />
<path fill="#3e3e3e" opacity="1.00" d=" M 136.03 368.56 C 136.36 360.87 135.87 353.13 136.85 345.48 C 140.79 346.44 144.34 348.45 148.00 350.13 C 162.33 356.77 176.69 363.34 191.00 370.03 C 190.49 377.86 190.04 385.70 189.46 393.52 C 171.67 385.16 153.87 376.83 136.03 368.56 Z" />
<path fill="#f5e5c1" opacity="1.00" d=" M 141.65 349.35 C 145.84 351.30 150.02 353.27 154.20 355.24 C 152.99 360.35 151.76 365.45 150.57 370.57 C 146.32 368.46 142.03 366.42 137.89 364.11 C 139.14 359.19 140.40 354.27 141.65 349.35 Z" />
<path fill="#f5e5c1" opacity="1.00" d=" M 156.15 356.15 C 160.48 358.18 164.81 360.22 169.14 362.26 C 167.96 367.51 166.75 372.75 165.59 378.01 C 161.23 375.84 156.85 373.72 152.53 371.48 C 153.75 366.37 154.95 361.26 156.15 356.15 Z" />
<path fill="#f5e5c1" opacity="1.00" d=" M 167.50 378.96 C 168.96 373.79 170.22 368.57 171.56 363.37 C 176.26 365.59 180.97 367.80 185.68 370.02 C 184.07 375.21 182.54 380.43 181.02 385.65 C 176.50 383.44 172.00 381.19 167.50 378.96 Z" />
<path fill="#f5e5c1" opacity="1.00" d=" M 376.01 440.00 C 389.67 418.00 403.33 396.01 417.00 374.02 C 424.67 385.68 432.34 397.34 440.00 409.01 C 419.65 419.67 399.32 430.36 378.97 441.01 C 377.98 440.67 376.99 440.33 376.01 440.00 Z" />
<path fill="#f5722c" opacity="1.00" d=" M 119.65 376.41 C 145.48 388.53 171.25 400.78 197.01 413.06 C 195.62 418.85 194.19 424.64 192.98 430.47 C 191.33 430.54 189.60 430.69 188.11 429.83 C 168.08 419.90 148.08 409.89 128.01 400.04 C 124.30 398.44 122.02 394.98 119.52 392.00 C 119.53 386.80 119.48 381.60 119.65 376.41 Z" />
<path fill="#f5e5c1" opacity="1.00" d=" M 274.58 444.08 C 276.41 435.74 278.49 427.36 282.04 419.56 C 287.26 421.65 291.51 426.39 297.36 426.63 C 300.22 428.41 303.40 431.19 302.42 434.99 C 300.47 442.25 297.12 449.06 293.95 455.86 C 289.09 454.25 284.49 451.98 279.68 450.25 C 277.20 449.16 273.76 447.38 274.58 444.08 Z" />
<path fill="#f5722c" opacity="1.00" d=" M 215.84 421.39 C 235.86 431.00 256.00 440.37 275.91 450.21 C 293.77 458.58 311.61 467.00 329.37 475.58 C 334.49 477.92 340.32 479.42 345.92 478.13 C 344.16 481.97 343.30 486.27 340.90 489.78 C 337.46 493.01 333.87 496.19 329.89 498.74 C 323.17 499.95 315.68 499.85 309.62 496.32 C 278.31 480.17 246.81 464.37 215.52 448.19 C 215.58 439.26 215.74 430.32 215.84 421.39 Z" />
</svg>
