<?xml version="1.0" encoding="UTF-8" ?>
<!DOCTYPE svg PUBLIC "-//W3C//DTD SVG 1.1//EN" "http://www.w3.org/Graphics/SVG/1.1/DTD/svg11.dtd">
<svg width="512pt" height="512pt" viewBox="0 0 512 512" version="1.1" xmlns="http://www.w3.org/2000/svg">
<path fill="#3e3e3e" opacity="1.00" d=" M 0.00 0.00 L 512.00 0.00 L 512.00 512.00 L 262.93 512.00 C 262.55 506.27 259.60 500.84 260.56 495.04 C 261.50 489.03 262.41 483.02 263.47 477.03 C 265.76 475.81 267.88 474.22 269.01 471.82 C 271.63 466.81 274.99 462.17 277.14 456.94 C 277.94 450.59 274.69 444.43 275.29 438.04 C 276.25 434.84 278.83 432.36 279.59 429.08 C 280.06 423.81 276.93 418.46 279.19 413.32 C 281.71 406.78 283.92 400.13 286.38 393.57 C 287.60 389.79 292.10 389.17 295.10 387.30 C 297.13 380.04 299.72 372.95 301.71 365.68 C 302.32 363.72 302.83 361.69 303.88 359.91 C 307.84 358.60 312.06 358.40 316.15 357.62 C 320.09 357.09 324.02 355.97 328.04 356.20 C 332.96 362.88 336.87 370.33 341.09 377.48 C 334.69 383.04 326.95 386.92 320.86 392.80 C 313.28 404.36 306.43 416.41 298.99 428.07 C 297.43 430.87 294.96 433.57 295.06 436.95 C 295.95 440.39 298.64 442.97 300.58 445.86 C 297.86 453.00 294.96 460.08 292.26 467.23 C 290.66 472.33 290.19 477.72 289.82 483.02 C 289.58 485.58 292.09 486.93 293.93 488.09 C 297.33 490.00 300.60 492.20 304.24 493.62 C 307.21 494.86 309.00 491.63 311.24 490.38 C 314.98 490.51 318.52 491.97 322.12 492.88 C 323.50 495.14 324.61 497.66 326.55 499.53 C 328.53 500.91 330.95 501.42 333.21 502.20 C 337.38 503.41 341.58 505.26 346.03 504.59 C 351.35 503.87 356.75 503.39 361.94 501.99 C 366.11 500.40 369.99 498.02 373.52 495.30 C 375.46 493.92 374.61 491.16 373.65 489.42 C 371.68 486.05 369.98 482.28 366.88 479.78 C 364.53 479.18 362.14 480.09 359.82 480.41 C 352.08 477.20 344.42 473.84 336.87 470.23 C 336.22 467.52 335.06 464.82 335.27 462.00 C 336.11 459.72 337.51 457.70 338.59 455.53 C 340.64 451.72 342.06 447.33 345.60 444.58 C 348.71 441.68 352.97 440.08 355.48 436.57 C 358.91 429.85 360.30 422.27 363.72 415.56 C 368.01 413.50 373.26 414.81 377.48 412.49 C 382.10 408.26 384.91 402.50 388.51 397.45 C 390.82 393.86 394.07 390.43 394.22 385.93 C 394.47 380.56 394.61 375.19 394.61 369.82 C 393.56 369.11 392.52 368.40 391.47 367.70 C 390.32 358.33 387.43 349.32 385.11 340.20 C 380.31 321.80 375.41 303.42 370.62 285.02 C 369.22 281.08 372.86 277.89 372.67 274.01 C 372.81 269.22 372.68 264.42 372.78 259.63 C 368.91 258.18 364.99 256.86 361.19 255.22 C 362.59 248.60 364.09 241.96 366.65 235.67 C 367.65 234.05 366.88 232.29 366.13 230.77 C 362.45 223.54 357.33 216.94 355.26 208.98 C 353.27 201.88 350.89 194.89 348.89 187.79 C 347.70 184.99 350.05 182.65 351.33 180.39 C 353.20 177.84 354.56 174.36 357.96 173.56 C 361.94 172.25 365.93 170.74 370.11 170.18 C 373.71 170.53 376.95 172.42 380.14 174.02 C 382.89 175.41 384.24 178.37 386.56 180.28 C 388.26 181.15 390.25 180.41 392.00 180.02 C 398.36 178.06 404.95 176.35 410.59 172.66 C 413.43 170.91 415.38 168.07 418.18 166.27 C 422.81 163.23 428.23 161.27 432.10 157.18 C 437.80 151.14 443.06 144.71 448.82 138.73 C 450.91 136.35 454.23 136.18 457.07 135.30 C 460.81 134.43 463.89 132.02 467.10 130.02 C 468.18 132.18 469.56 134.18 471.47 135.68 C 475.72 132.93 482.11 132.06 484.37 127.12 C 483.08 117.98 478.49 109.79 474.20 101.76 C 484.28 96.58 495.91 93.31 503.93 84.92 C 503.35 82.48 502.37 79.69 500.10 78.37 C 494.28 79.61 489.01 82.52 483.36 84.26 C 480.00 85.38 476.46 84.68 473.02 84.71 C 467.78 84.58 462.82 86.48 457.91 88.05 C 452.99 89.62 448.44 92.22 444.43 95.45 C 440.35 98.71 438.44 104.13 433.70 106.65 C 424.46 111.88 415.08 116.85 405.84 122.09 C 403.96 123.07 402.14 124.29 400.03 124.72 C 396.97 124.32 394.12 122.31 390.99 122.77 C 387.55 124.66 385.59 128.29 382.55 130.68 C 380.50 130.94 378.46 130.32 376.48 129.90 C 367.23 127.55 357.95 125.32 348.70 122.99 C 342.98 121.67 340.09 115.76 334.94 113.45 C 321.72 112.58 308.49 115.27 295.26 113.98 C 295.27 111.36 295.13 108.70 295.58 106.10 C 297.04 100.56 302.95 96.29 301.60 90.09 C 301.18 85.30 295.38 83.49 294.74 78.83 C 293.61 72.14 299.54 67.19 301.42 61.18 C 300.69 58.69 300.00 56.20 299.24 53.73 C 296.31 52.67 293.20 52.06 290.43 50.63 C 288.36 48.20 287.51 44.95 285.34 42.59 C 283.05 41.17 280.27 40.88 277.73 40.14 C 271.84 38.84 266.04 36.90 260.00 36.40 C 257.37 36.06 255.24 37.90 253.15 39.17 C 249.49 41.73 245.46 43.96 242.67 47.54 C 239.97 50.93 237.47 54.47 234.94 57.97 C 230.84 63.04 232.91 69.99 232.44 75.96 C 233.05 81.92 228.75 87.02 229.33 92.97 C 229.77 96.44 228.83 100.90 231.86 103.40 C 237.85 103.96 243.84 102.89 249.82 102.54 C 250.80 105.13 251.82 107.70 252.85 110.27 C 250.42 111.27 247.81 111.98 245.69 113.57 C 244.37 115.65 244.15 118.17 243.53 120.50 C 237.05 122.50 230.49 124.21 223.99 126.10 C 218.29 127.65 214.31 132.33 209.56 135.53 C 206.98 137.71 203.20 139.44 202.63 143.12 C 201.92 154.31 203.13 165.85 199.72 176.72 C 197.03 186.27 194.77 196.05 190.29 204.97 C 190.40 205.59 190.62 206.83 190.73 207.46 C 187.86 208.83 183.07 209.20 183.00 213.26 C 182.44 220.31 182.75 227.40 182.48 234.47 C 184.73 235.30 187.00 236.08 189.28 236.84 C 189.34 241.98 189.39 247.12 189.39 252.26 C 186.07 253.82 181.49 254.23 179.67 257.83 C 182.20 270.71 187.30 282.98 190.06 295.82 C 191.82 304.55 193.57 313.29 195.31 322.02 C 196.80 330.02 200.17 337.47 202.54 345.21 C 203.46 347.51 203.97 350.46 206.49 351.57 C 215.67 356.24 224.80 361.01 234.44 364.70 C 236.61 362.39 238.37 359.75 239.79 356.93 C 237.86 355.73 235.91 354.58 233.94 353.47 C 236.37 349.63 239.21 345.89 240.13 341.34 C 237.53 340.96 234.80 340.31 232.26 341.38 C 229.50 342.15 227.92 344.71 226.27 346.84 C 225.81 346.82 224.90 346.78 224.45 346.76 C 223.99 345.53 223.55 344.31 223.11 343.09 C 227.42 341.42 231.90 340.23 236.13 338.36 C 237.17 338.00 237.79 337.28 238.00 336.20 C 240.81 327.68 240.21 318.63 240.77 309.81 C 239.98 302.23 235.73 295.50 234.37 288.04 C 234.21 284.28 235.54 280.67 236.30 277.04 C 238.11 268.84 240.42 260.75 241.80 252.46 C 237.17 250.75 232.30 249.89 227.50 248.79 C 227.53 246.23 227.55 243.68 227.60 241.12 C 229.98 239.51 232.53 238.08 234.59 236.05 C 235.10 229.93 234.37 223.75 233.70 217.66 C 232.53 216.94 231.36 216.23 230.20 215.51 C 231.00 214.55 231.79 213.59 232.60 212.64 C 237.22 220.40 244.28 226.98 246.33 236.05 C 247.98 241.73 249.51 247.45 251.21 253.11 C 252.08 258.13 258.37 257.61 262.04 259.32 C 260.19 261.87 257.05 262.57 254.26 263.57 C 254.53 269.45 255.64 275.23 256.70 281.00 C 259.69 281.64 262.68 282.32 265.68 282.97 C 265.64 287.25 265.33 291.60 263.78 295.63 C 258.89 306.90 254.23 318.29 249.96 329.81 C 247.35 342.39 247.12 355.38 244.46 367.96 C 242.87 375.37 238.92 382.23 238.68 389.92 C 238.48 395.54 237.98 401.15 237.26 406.73 C 235.95 415.57 233.22 424.13 231.86 432.96 C 231.29 440.41 231.79 447.89 231.50 455.35 C 231.54 459.31 230.94 463.34 231.75 467.25 C 233.22 469.89 236.74 470.02 239.28 471.10 C 239.00 476.05 239.06 481.04 238.30 485.95 C 236.00 492.30 231.69 497.69 229.04 503.89 C 228.13 506.48 228.24 509.29 228.00 512.00 L 0.00 512.00 L 0.00 0.00 Z" />
<path fill="#f5722c" opacity="1.00" d=" M 43.71 22.51 C 45.29 18.33 49.42 14.94 54.03 15.12 C 56.42 15.11 59.83 14.65 60.25 17.89 C 59.80 20.72 59.02 23.69 60.14 26.47 C 64.82 39.99 68.62 53.82 73.58 67.24 C 72.57 70.06 70.86 72.53 69.48 75.16 C 69.04 77.86 70.18 80.57 70.65 83.21 C 69.44 83.43 68.23 83.65 67.01 83.86 C 66.74 82.34 66.47 80.83 66.19 79.31 C 65.46 80.18 64.73 81.05 64.01 81.92 C 63.14 81.76 61.40 81.42 60.53 81.26 C 61.59 85.81 62.36 90.64 60.64 95.14 C 65.86 102.14 71.19 109.07 76.67 115.88 C 80.82 110.59 84.14 104.64 88.60 99.62 C 99.16 94.17 110.18 89.53 121.17 85.03 C 119.99 76.93 120.65 67.47 114.53 61.16 C 114.55 59.35 114.58 57.53 114.62 55.71 C 111.50 55.06 108.38 54.37 105.28 53.60 C 105.01 49.60 108.73 47.60 111.28 45.26 C 112.68 37.32 115.43 29.14 121.62 23.64 C 126.69 19.55 133.84 19.85 138.83 15.72 C 142.29 15.63 145.75 15.67 149.21 15.71 C 150.16 17.15 151.10 18.59 152.03 20.04 C 157.87 23.02 163.24 27.23 166.46 33.04 C 168.89 38.41 168.32 44.39 168.89 50.10 C 169.29 52.89 174.15 53.89 173.07 56.98 C 170.72 58.93 167.37 58.12 164.56 58.42 C 165.03 61.75 162.97 64.34 161.46 67.07 C 160.89 70.86 161.60 74.71 161.80 78.51 C 163.18 78.59 164.57 78.67 165.96 78.76 C 168.15 80.73 170.33 82.72 172.50 84.72 C 172.59 85.89 172.69 87.05 172.78 88.21 C 176.96 90.81 181.22 93.26 185.57 95.55 C 187.84 96.98 190.50 95.03 192.85 96.11 C 195.18 96.86 197.39 97.92 199.66 98.84 C 199.64 100.46 199.67 102.08 199.73 103.70 C 203.23 105.59 206.98 106.95 210.57 108.64 C 212.47 109.36 213.14 111.39 213.77 113.13 C 215.11 117.09 216.29 121.11 217.58 125.08 C 212.23 128.96 207.13 133.17 201.64 136.84 C 200.75 138.54 199.90 140.25 199.06 141.97 C 199.67 146.97 199.38 152.02 199.02 157.03 C 198.66 161.65 199.29 166.40 197.90 170.90 C 196.57 175.56 195.54 180.31 193.80 184.85 C 192.90 182.49 191.98 180.14 191.05 177.79 C 186.59 181.93 185.88 188.27 183.83 193.70 C 182.15 197.93 182.16 202.50 181.38 206.91 C 178.97 212.27 180.08 218.22 179.44 223.88 C 177.31 224.65 175.18 225.43 173.07 226.23 C 175.00 227.15 176.95 228.05 178.90 228.95 C 178.90 234.40 178.55 239.93 177.04 245.19 C 176.45 247.67 173.32 247.05 171.42 247.57 C 170.63 251.71 169.80 255.85 169.49 260.06 C 169.04 263.55 171.71 266.51 171.54 269.99 C 171.52 278.66 171.08 287.33 171.50 296.00 C 171.71 305.23 175.73 313.74 177.64 322.65 C 178.27 325.70 174.96 327.45 173.72 329.86 C 173.82 340.02 181.61 348.75 180.05 359.06 C 179.04 367.23 181.09 375.33 182.03 383.40 C 183.26 393.64 184.60 403.85 186.11 414.05 C 187.01 419.65 183.39 424.98 178.27 427.06 C 178.36 438.71 178.45 450.37 178.81 462.02 C 178.85 467.29 181.95 471.76 183.69 476.56 C 185.80 481.14 180.15 484.20 176.89 486.20 C 168.50 486.86 159.90 486.15 151.63 484.55 C 150.66 481.45 149.39 478.30 149.61 475.00 C 150.69 470.11 156.11 467.25 156.50 462.09 C 157.27 453.44 158.11 444.80 158.71 436.13 C 156.47 436.29 154.22 436.63 151.97 436.47 C 149.68 435.97 148.98 433.58 148.27 431.68 C 147.31 428.83 146.19 425.98 145.76 422.99 C 146.32 416.64 148.33 410.44 148.47 404.05 C 146.79 397.67 143.55 391.82 141.63 385.52 C 140.83 380.28 143.95 375.27 143.38 370.06 C 142.07 368.24 140.36 366.77 138.84 365.15 C 136.12 362.51 135.59 358.55 134.35 355.14 C 132.70 350.54 133.15 345.60 133.27 340.81 C 131.09 339.65 127.90 339.10 127.55 336.16 C 125.28 327.22 123.08 318.27 120.81 309.33 C 115.85 309.31 110.89 309.27 105.92 309.40 C 104.58 313.54 101.45 316.65 99.41 320.39 C 98.80 325.32 100.16 330.68 103.77 334.24 C 107.47 339.04 113.06 342.82 114.37 349.08 C 117.76 360.90 121.39 372.65 124.75 384.47 C 126.86 389.75 119.29 390.96 117.47 394.89 C 117.84 401.48 122.33 406.85 124.20 413.03 C 124.27 416.08 123.36 419.07 123.00 422.10 C 124.14 422.98 125.29 423.85 126.44 424.74 C 126.39 425.60 126.29 427.32 126.23 428.18 C 120.85 429.50 115.49 431.07 109.96 431.69 C 106.94 432.44 106.15 427.81 103.04 428.54 C 99.35 428.67 94.65 427.70 92.03 430.99 C 90.67 432.40 89.48 433.95 88.25 435.47 C 76.33 437.52 64.17 439.80 52.05 438.34 C 48.70 437.65 48.25 433.92 48.30 431.10 C 51.96 429.45 51.30 424.61 54.38 422.39 C 56.08 420.48 58.66 420.01 61.06 419.61 C 67.27 418.71 72.94 415.89 78.81 413.82 C 82.86 412.49 86.15 409.11 87.70 405.21 C 86.40 402.43 83.98 400.37 82.60 397.65 C 82.25 394.78 82.65 391.87 82.35 389.00 C 81.26 382.11 73.53 378.20 73.52 370.99 C 72.98 365.49 72.32 360.01 71.45 354.56 C 68.30 353.39 64.90 352.73 62.01 350.97 C 56.34 346.02 53.69 338.70 51.08 331.86 C 50.21 326.53 50.51 321.00 51.38 315.67 C 53.20 314.82 55.01 313.96 56.84 313.12 C 56.71 308.06 56.02 303.00 56.44 297.95 C 58.48 284.49 63.06 271.63 66.86 258.61 C 64.34 257.84 61.83 257.05 59.35 256.15 C 59.14 250.78 59.89 245.42 59.60 240.05 C 59.56 237.25 56.23 237.13 54.32 236.15 C 54.92 231.20 57.00 226.63 58.50 221.91 C 59.18 220.12 59.67 218.12 61.09 216.74 C 66.05 215.46 71.21 215.34 76.25 214.45 C 74.93 209.92 71.02 205.65 72.83 200.71 C 75.94 189.61 78.62 178.39 81.61 167.26 C 77.40 168.98 73.46 171.27 69.36 173.21 C 67.37 174.20 65.19 173.30 63.25 172.70 C 59.04 171.25 54.80 169.88 50.63 168.34 C 50.27 164.71 50.60 160.99 49.73 157.44 C 47.43 153.82 44.87 150.29 41.99 147.11 C 39.53 147.29 37.19 148.16 34.84 148.82 C 30.18 139.74 25.82 130.50 21.81 121.12 C 19.58 115.82 16.40 110.79 15.81 104.94 C 14.38 94.04 11.62 83.19 12.24 72.12 C 15.87 68.75 20.38 66.49 24.48 63.73 C 24.86 62.31 25.25 60.90 25.63 59.48 C 28.26 58.60 30.91 57.79 33.59 57.10 C 32.69 53.87 31.65 50.34 33.00 47.09 C 35.49 41.82 41.08 39.22 44.70 34.91 C 43.69 30.87 42.59 26.66 43.71 22.51 Z" />
<path fill="#f5e5c1" opacity="1.00" d=" M 253.15 39.17 C 255.24 37.90 257.37 36.06 260.00 36.40 C 266.04 36.90 271.84 38.84 277.73 40.14 C 280.27 40.88 283.05 41.17 285.34 42.59 C 287.51 44.95 288.36 48.20 290.43 50.63 C 293.20 52.06 296.31 52.67 299.24 53.73 C 300.00 56.20 300.69 58.69 301.42 61.18 C 299.54 67.19 293.61 72.14 294.74 78.83 C 295.38 83.49 301.18 85.30 301.60 90.09 C 302.95 96.29 297.04 100.56 295.58 106.10 C 295.13 108.70 295.27 111.36 295.26 113.98 C 308.49 115.27 321.72 112.58 334.94 113.45 C 340.09 115.76 342.98 121.67 348.70 122.99 C 357.95 125.32 367.23 127.55 376.48 129.90 C 378.46 130.32 380.50 130.94 382.55 130.68 C 385.59 128.29 387.55 124.66 390.99 122.77 C 394.12 122.31 396.97 124.32 400.03 124.72 C 402.14 124.29 403.96 123.07 405.84 122.09 C 415.08 116.85 424.46 111.88 433.70 106.65 C 438.44 104.13 440.35 98.71 444.43 95.45 C 448.44 92.22 452.99 89.62 457.91 88.05 C 462.82 86.48 467.78 84.58 473.02 84.71 C 476.46 84.68 480.00 85.38 483.36 84.26 C 489.01 82.52 494.28 79.61 500.10 78.37 C 502.37 79.69 503.35 82.48 503.93 84.92 C 495.91 93.31 484.28 96.58 474.20 101.76 C 478.49 109.79 483.08 117.98 484.37 127.12 C 482.11 132.06 475.72 132.93 471.47 135.68 C 469.56 134.18 468.18 132.18 467.10 130.02 C 463.89 132.02 460.81 134.43 457.07 135.30 C 454.23 136.18 450.91 136.35 448.82 138.73 C 443.06 144.71 437.80 151.14 432.10 157.18 C 428.23 161.27 422.81 163.23 418.18 166.27 C 415.38 168.07 413.43 170.91 410.59 172.66 C 404.95 176.35 398.36 178.06 392.00 180.02 C 390.25 180.41 388.26 181.15 386.56 180.28 C 384.24 178.37 382.89 175.41 380.14 174.02 C 376.95 172.42 373.71 170.53 370.11 170.18 C 365.93 170.74 361.94 172.25 357.96 173.56 C 354.56 174.36 353.20 177.84 351.33 180.39 C 350.05 182.65 347.70 184.99 348.89 187.79 C 350.89 194.89 353.27 201.88 355.26 208.98 C 357.33 216.94 362.45 223.54 366.13 230.77 C 366.88 232.29 367.65 234.05 366.65 235.67 C 364.09 241.96 362.59 248.60 361.19 255.22 C 364.99 256.86 368.91 258.18 372.78 259.63 C 372.68 264.42 372.81 269.22 372.67 274.01 C 372.86 277.89 369.22 281.08 370.62 285.02 C 375.41 303.42 380.31 321.80 385.11 340.20 C 387.43 349.32 390.32 358.33 391.47 367.70 C 392.52 368.40 393.56 369.11 394.61 369.82 C 394.61 375.19 394.47 380.56 394.22 385.93 C 394.07 390.43 390.82 393.86 388.51 397.45 C 384.91 402.50 382.10 408.26 377.48 412.49 C 373.26 414.81 368.01 413.50 363.72 415.56 C 360.30 422.27 358.91 429.85 355.48 436.57 C 352.97 440.08 348.71 441.68 345.60 444.58 C 342.06 447.33 340.64 451.72 338.59 455.53 C 337.51 457.70 336.11 459.72 335.27 462.00 C 335.06 464.82 336.22 467.52 336.87 470.23 C 344.42 473.84 352.08 477.20 359.82 480.41 C 362.14 480.09 364.53 479.18 366.88 479.78 C 369.98 482.28 371.68 486.05 373.65 489.42 C 374.61 491.16 375.46 493.92 373.52 495.30 C 369.99 498.02 366.11 500.40 361.94 501.99 C 356.75 503.39 351.35 503.87 346.03 504.59 C 341.58 505.26 337.38 503.41 333.21 502.20 C 330.95 501.42 328.53 500.91 326.55 499.53 C 324.61 497.66 323.50 495.14 322.12 492.88 C 318.52 491.97 314.98 490.51 311.24 490.38 C 309.00 491.63 307.21 494.86 304.24 493.62 C 300.60 492.20 297.33 490.00 293.93 488.09 C 292.09 486.93 289.58 485.58 289.82 483.02 C 290.19 477.72 290.66 472.33 292.26 467.23 C 294.96 460.08 297.86 453.00 300.58 445.86 C 298.64 442.97 295.95 440.39 295.06 436.95 C 294.96 433.57 297.43 430.87 298.99 428.07 C 306.43 416.41 313.28 404.36 320.86 392.80 C 326.95 386.92 334.69 383.04 341.09 377.48 C 336.87 370.33 332.96 362.88 328.04 356.20 C 324.02 355.97 320.09 357.09 316.15 357.62 C 312.06 358.40 307.84 358.60 303.88 359.91 C 302.83 361.69 302.32 363.72 301.71 365.68 C 299.72 372.95 297.13 380.04 295.10 387.30 C 292.10 389.17 287.60 389.79 286.38 393.57 C 283.92 400.13 281.71 406.78 279.19 413.32 C 276.93 418.46 280.06 423.81 279.59 429.08 C 278.83 432.36 276.25 434.84 275.29 438.04 C 274.69 444.43 277.94 450.59 277.14 456.94 C 274.99 462.17 271.63 466.81 269.01 471.82 C 267.88 474.22 265.76 475.81 263.47 477.03 C 262.41 483.02 261.50 489.03 260.56 495.04 C 259.60 500.84 262.55 506.27 262.93 512.00 L 228.00 512.00 C 228.24 509.29 228.13 506.48 229.04 503.89 C 231.69 497.69 236.00 492.30 238.30 485.95 C 239.06 481.04 239.00 476.05 239.28 471.10 C 236.74 470.02 233.22 469.89 231.75 467.25 C 230.94 463.34 231.54 459.31 231.50 455.35 C 231.79 447.89 231.29 440.41 231.86 432.96 C 233.22 424.13 235.95 415.57 237.26 406.73 C 237.98 401.15 238.48 395.54 238.68 389.92 C 238.92 382.23 242.87 375.37 244.46 367.96 C 247.12 355.38 247.35 342.39 249.96 329.81 C 254.23 318.29 258.89 306.90 263.78 295.63 C 265.33 291.60 265.64 287.25 265.68 282.97 C 262.68 282.32 259.69 281.64 256.70 281.00 C 255.64 275.23 254.53 269.45 254.26 263.57 C 257.05 262.57 260.19 261.87 262.04 259.32 C 258.37 257.61 252.08 258.13 251.21 253.11 C 249.51 247.45 247.98 241.73 246.33 236.05 C 244.28 226.98 237.22 220.40 232.60 212.64 C 231.79 213.59 231.00 214.55 230.20 215.51 C 231.36 216.23 232.53 216.94 233.70 217.66 C 234.37 223.75 235.10 229.93 234.59 236.05 C 232.53 238.08 229.98 239.51 227.60 241.12 C 227.55 243.68 227.53 246.23 227.50 248.79 C 232.30 249.89 237.17 250.75 241.80 252.46 C 240.42 260.75 238.11 268.84 236.30 277.04 C 235.54 280.67 234.21 284.28 234.37 288.04 C 235.73 295.50 239.98 302.23 240.77 309.81 C 240.21 318.63 240.81 327.68 238.00 336.20 C 237.79 337.28 237.17 338.00 236.13 338.36 C 231.90 340.23 227.42 341.42 223.11 343.09 C 223.55 344.31 223.99 345.53 224.45 346.76 C 224.90 346.78 225.81 346.82 226.27 346.84 C 227.92 344.71 229.50 342.15 232.26 341.38 C 234.80 340.31 237.53 340.96 240.13 341.34 C 239.21 345.89 236.37 349.63 233.94 353.47 C 235.91 354.58 237.86 355.73 239.79 356.93 C 238.37 359.75 236.61 362.39 234.44 364.70 C 224.80 361.01 215.67 356.24 206.49 351.57 C 203.97 350.46 203.46 347.51 202.54 345.21 C 200.17 337.47 196.80 330.02 195.31 322.02 C 193.57 313.29 191.82 304.55 190.06 295.82 C 187.30 282.98 182.20 270.71 179.67 257.83 C 181.49 254.23 186.07 253.82 189.39 252.26 C 189.39 247.12 189.34 241.98 189.28 236.84 C 187.00 236.08 184.73 235.30 182.48 234.47 C 182.75 227.40 182.44 220.31 183.00 213.26 C 183.07 209.20 187.86 208.83 190.73 207.46 C 190.62 206.83 190.40 205.59 190.29 204.97 C 194.77 196.05 197.03 186.27 199.72 176.72 C 203.13 165.85 201.92 154.31 202.63 143.12 C 203.20 139.44 206.98 137.71 209.56 135.53 C 214.31 132.33 218.29 127.65 223.99 126.10 C 230.49 124.21 237.05 122.50 243.53 120.50 C 244.15 118.17 244.37 115.65 245.69 113.57 C 247.81 111.98 250.42 111.27 252.85 110.27 C 251.82 107.70 250.80 105.13 249.82 102.54 C 243.84 102.89 237.85 103.96 231.86 103.40 C 228.83 100.90 229.77 96.44 229.33 92.97 C 228.75 87.02 233.05 81.92 232.44 75.96 C 232.91 69.99 230.84 63.04 234.94 57.97 C 237.47 54.47 239.97 50.93 242.67 47.54 C 245.46 43.96 249.49 41.73 253.15 39.17 Z" />
<path fill="#3e3e3e" opacity="1.00" d=" M 38.67 43.65 C 40.36 42.24 43.96 41.24 44.04 44.48 C 42.15 45.47 40.19 46.37 38.49 47.66 C 38.16 49.88 38.38 52.14 38.23 54.38 C 35.18 55.57 35.24 52.00 34.78 50.01 C 33.93 47.16 36.75 45.20 38.67 43.65 Z" />
<path fill="#3e3e3e" opacity="1.00" d=" M 222.79 323.42 C 225.09 323.35 227.39 323.28 229.69 323.43 C 229.30 325.85 229.40 328.62 227.89 330.68 C 226.23 331.63 224.17 331.22 222.35 331.52 C 222.46 328.81 222.61 326.11 222.79 323.42 Z" />
</svg>
