<?xml version="1.0" encoding="UTF-8" standalone="no"?>
<svg
   xmlns:dc="http://purl.org/dc/elements/1.1/"
   xmlns:cc="http://creativecommons.org/ns#"
   xmlns:rdf="http://www.w3.org/1999/02/22-rdf-syntax-ns#"
   xmlns:svg="http://www.w3.org/2000/svg"
   xmlns="http://www.w3.org/2000/svg"
   xmlns:sodipodi="http://sodipodi.sourceforge.net/DTD/sodipodi-0.dtd"
   xmlns:inkscape="http://www.inkscape.org/namespaces/inkscape"
   width="1280"
   height="1280"
   viewBox="0 0 1024 1024"
   version="1.1"
   id="svg2"
   inkscape:version="0.48.1 "
   sodipodi:docname="kill_assist.svg">
  <metadata
     id="metadata18">
    <rdf:RDF>
      <cc:Work
         rdf:about="">
        <dc:format>image/svg+xml</dc:format>
        <dc:type
           rdf:resource="http://purl.org/dc/dcmitype/StillImage" />
      </cc:Work>
    </rdf:RDF>
  </metadata>
  <defs
     id="defs16" />
  <sodipodi:namedview
     pagecolor="#ffffff"
     bordercolor="#666666"
     borderopacity="1"
     objecttolerance="10"
     gridtolerance="10"
     guidetolerance="10"
     inkscape:pageopacity="0"
     inkscape:pageshadow="2"
     inkscape:window-width="1920"
     inkscape:window-height="1018"
     id="namedview14"
     showgrid="false"
     inkscape:snap-page="true"
     fit-margin-top="0"
     fit-margin-left="0"
     fit-margin-right="0"
     fit-margin-bottom="0"
     inkscape:zoom="0.6609375"
     inkscape:cx="640"
     inkscape:cy="640"
     inkscape:window-x="-8"
     inkscape:window-y="-8"
     inkscape:window-maximized="1"
     inkscape:current-layer="svg2" />
  <rect
     style="fill:#3e3e3e;fill-opacity:1;fill-rule:nonzero;stroke:none"
     id="rect2997"
     width="1024"
     height="1024"
     x="0"
     y="0" />
  <path
     d="m 111.9,30.2 c -1.32469,-0.0122 -2.655,0.045 -3.85,0.05 C 98.83,29.89 90.56,36.64 87.4,45 c -2.24,8.3 -0.02,16.72 2,24.8 -7.24,8.62 -18.42,13.86 -23.4,24.4 -2.7,6.5 -0.6,13.54 1.2,20 -5.36,1.38 -10.69,2.99 -15.95,4.75 -0.76,2.84 -1.54,5.66 -2.3,8.5 -8.2,5.52 -17.19,10.06 -24.45,16.8 -1.24,22.14 4.24,43.85 7.1,65.65 1.18,11.7 7.54,21.75 12,32.35 8.02,18.76 16.78,37.24 26.1,55.4 4.7,-1.32 9.38,-3.09 14.3,-3.45 5.76,6.36 10.85,13.46 15.45,20.7 1.74,7.1 1.08,14.54 1.8,21.8 8.34,3.08 16.83,5.8 25.25,8.7 3.88,1.2 8.22,2.98 12.2,1 8.2,-3.88 16.08,-8.46 24.5,-11.9 -5.98,22.26 -11.33,44.7 -17.55,66.9 -3.62,9.88 4.21,18.44 6.85,27.5 -10.08,1.78 -20.38,2.04 -30.3,4.6 -2.84,2.76 -3.84,6.72 -5.2,10.3 -3,9.44 -7.15,18.6 -8.35,28.5 3.82,1.96 10.47,2.2 10.55,7.8 0.58,10.74 -0.92,21.46 -0.5,32.2 4.96,1.8 9.96,3.36 15,4.9 -7.6,26.04 -16.72,51.78 -20.8,78.7 -0.84,10.1 0.54,20.23 0.8,30.35 -3.66,1.68 -7.31,3.4 -10.95,5.1 -1.74,10.66 -2.34,21.69 -0.6,32.35 5.22,13.68 10.51,28.35 21.85,38.25 5.78,3.52 12.6,4.81 18.9,7.15 1.74,10.9 3.07,21.9 4.15,32.9 0.02,14.42 15.47,22.22 17.65,36 0.6,5.74 -0.2,11.56 0.5,17.3 2.76,5.44 7.6,9.54 10.2,15.1 -3.1,7.8 -9.7,14.59 -17.8,17.25 -11.74,4.14 -23.08,9.75 -35.5,11.55 -4.8,0.8 -9.95,1.78 -13.35,5.6 -6.16,4.44 -4.83,14.1 -12.15,17.4 -0.1,5.64 0.8,13.12 7.5,14.5 24.24,2.92 48.56,-1.65 72.4,-5.75 2.46,-3.04 4.83,-6.13 7.55,-8.95 5.24,-6.58 14.67,-4.64 22.05,-4.9 6.22,-1.46 7.76,7.8 13.8,6.3 11.06,-1.24 21.79,-4.41 32.55,-7.05 0.12,-1.72 0.35,-5.13 0.45,-6.85 -2.3,-1.78 -4.62,-3.54 -6.9,-5.3 0.72,-6.06 2.54,-12.05 2.4,-18.15 -3.74,-12.36 -12.71,-23.07 -13.45,-36.25 3.64,-7.86 18.77,-10.29 14.55,-20.85 -6.72,-23.64 -13.97,-47.16 -20.75,-70.8 -2.62,-12.52 -13.8,-20.05 -21.2,-29.65 -7.22,-7.12 -9.97,-17.84 -8.75,-27.7 4.08,-7.48 10.37,-13.72 13.05,-22 9.94,-0.26 19.83,-0.19 29.75,-0.15 4.54,17.88 8.96,35.77 13.5,53.65 0.7,5.88 7.09,6.98 11.45,9.3 -0.24,9.58 -1.15,19.5 2.15,28.7 2.48,6.82 3.56,14.72 9,20 3.04,3.24 6.43,6.16 9.05,9.8 1.14,10.42 -5.1,20.47 -3.5,30.95 3.84,12.6 10.34,24.29 13.7,37.05 -0.28,12.78 -4.33,25.2 -5.45,37.9 0.86,5.98 3.13,11.65 5.05,17.35 1.42,3.8 2.82,8.6 7.4,9.6 4.5,0.32 8.97,-0.38 13.45,-0.7 -1.2,17.34 -2.86,34.65 -4.4,51.95 -0.78,10.32 -11.64,16.02 -13.8,25.8 -0.44,6.6 2.11,12.9 4.05,19.1 16.54,3.2 33.77,4.62 50.55,3.3 6.52,-4 17.82,-10.14 13.6,-19.3 -3.48,-9.6 -9.72,-18.51 -9.8,-29.05 -0.72,-23.3 -0.87,-46.65 -1.05,-69.95 10.24,-4.16 17.45,-14.8 15.65,-26 -3.02,-20.4 -5.69,-40.82 -8.15,-61.3 -1.88,-16.14 -5.97,-32.36 -3.95,-48.7 3.12,-20.62 -12.45,-38.08 -12.65,-58.4 2.48,-4.82 9.11,-8.3 7.85,-14.4 -3.82,-17.82 -11.88,-34.84 -12.3,-53.3 -0.84,-17.34 0.06,-34.66 0.1,-52 0.34,-6.96 -5,-12.92 -4.1,-19.9 0.62,-8.42 2.27,-16.67 3.85,-24.95 3.8,-1.04 10.07,0.21 11.25,-4.75 3.02,-10.52 3.7,-21.6 3.7,-32.5 -3.9,-1.8 -7.79,-3.61 -11.65,-5.45 4.22,-1.6 8.49,-3.16 12.75,-4.7 1.28,-11.32 -0.97,-23.23 3.85,-33.95 1.56,-8.82 1.54,-17.94 4.9,-26.4 4.1,-10.86 5.53,-23.52 14.45,-31.8 1.86,4.7 3.7,9.38 5.5,14.1 3.48,-9.08 5.54,-18.58 8.2,-27.9 2.78,-9 1.53,-18.51 2.25,-27.75 0.72,-10.02 1.27,-20.1 0.05,-30.1 1.68,-3.44 3.42,-6.85 5.2,-10.25 10.98,-7.34 21.15,-15.79 31.85,-23.55 -2.58,-7.94 -4.92,-15.98 -7.6,-23.9 -1.26,-3.48 -2.6,-7.51 -6.4,-8.95 -7.18,-3.38 -14.7,-6.12 -21.7,-9.9 -0.12,-3.24 -0.19,-6.46 -0.15,-9.7 -4.54,-1.84 -8.94,-4 -13.6,-5.5 -4.7,-2.16 -10.01,1.76 -14.55,-1.1 -8.7,-4.58 -17.24,-9.5 -25.6,-14.7 -0.18,-2.32 -0.37,-4.61 -0.55,-6.95 -4.34,-4 -8.72,-8.01 -13.1,-11.95 -2.78,-0.18 -5.54,-0.34 -8.3,-0.5 -0.4,-7.6 -1.84,-15.27 -0.7,-22.85 3.02,-5.46 7.14,-10.64 6.2,-17.3 5.62,-0.6 12.35,1 17.05,-2.9 2.16,-6.18 -7.55,-8.17 -8.35,-13.75 -1.14,-11.42 -0.04,-23.36 -4.9,-34.1 -6.44,-11.62 -17.17,-20.04 -28.85,-26 -1.86,-2.9 -3.75,-5.82 -5.65,-8.7 -6.92,-0.08 -13.83,-0.13 -20.75,0.05 -9.98,8.26 -24.26,7.67 -34.4,15.85 -12.38,11 -17.9,27.32 -20.7,43.2 -5.1,4.68 -12.54,8.7 -12,16.7 6.2,1.54 12.46,2.9 18.7,4.2 -0.08,3.64 -0.16,7.28 -0.2,10.9 12.24,12.62 10.94,31.55 13.3,47.75 -21.98,9 -44.03,18.3 -65.15,29.2 -8.92,10.04 -15.55,21.92 -23.85,32.5 -10.96,-13.62 -21.61,-27.45 -32.05,-41.45 3.44,-9 1.87,-18.7 -0.25,-27.8 1.74,0.32 5.21,1.03 6.95,1.35 1.44,-1.74 2.94,-3.51 4.4,-5.25 0.56,3.04 1.06,6.06 1.6,9.1 2.44,-0.42 4.88,-0.86 7.3,-1.3 -0.94,-5.28 -3.23,-10.7 -2.35,-16.1 2.76,-5.26 6.18,-10.16 8.2,-15.8 -9.92,-26.84 -17.49,-54.51 -26.85,-81.55 -2.24,-5.56 -0.7,-11.49 0.2,-17.15 -0.63,-4.86 -4.62594,-5.56344 -8.6,-5.6 z m -28,54.45 c 2.242499,-0.0425 4.12,1.06 4.2,4.3 -3.78,1.98 -7.7,3.77 -11.1,6.35 -0.66,4.44 -0.25,8.97 -0.55,13.45 -6.1,2.38 -5.98,-4.77 -6.9,-8.75 -1.7,-5.7 3.96,-9.6 7.8,-12.7 1.69,-1.41 4.307501,-2.6075 6.55,-2.65 z"
     id="path6"
     style="fill:#f4722b"
     inkscape:connector-curvature="0" />
  <path
     d="m 519.05,72.7 c -4.81742,-0.1467 -8.83125,3.26875 -12.75,5.65 -7.32,5.12 -15.37,9.59 -20.95,16.75 -5.4,6.78 -10.39,13.85 -15.45,20.85 -8.2,10.14 -4.06,24.01 -5,35.95 1.22,11.92 -7.41,22.15 -6.25,34.05 0.88,6.94 -1.01,15.85 5.05,20.85 11.98,1.12 23.99,-1 35.95,-1.7 1.96,5.18 3.99,10.31 6.05,15.45 -4.86,2 -10.06,3.42 -14.3,6.6 -2.64,4.16 -3.11,9.19 -4.35,13.85 -12.96,4 -26.05,7.42 -39.05,11.2 -11.4,3.1 -19.4,12.45 -28.9,18.85 -5.16,4.36 -12.71,7.84 -13.85,15.2 -1.42,22.38 1.02,45.46 -5.8,67.2 -5.38,19.1 -9.89,38.66 -18.85,56.5 0.22,1.24 0.63,3.69 0.85,4.95 -5.74,2.74 -15.31,3.48 -15.45,11.6 -1.12,14.1 -0.51,28.31 -1.05,42.45 4.5,1.66 9.04,3.23 13.6,4.75 0.12,10.28 0.25,20.52 0.25,30.8 -6.64,3.12 -15.81,3.95 -19.45,11.15 5.06,25.76 15.23,50.32 20.75,76 3.52,17.46 7.02,34.94 10.5,52.4 2.98,16 9.76,30.87 14.5,46.35 1.84,4.6 2.86,10.53 7.9,12.75 18.36,9.34 36.62,18.87 55.9,26.25 4.34,-4.62 7.86,-9.91 10.7,-15.55 -3.86,-2.4 -7.76,-4.68 -11.7,-6.9 4.86,-7.68 10.51,-15.15 12.35,-24.25 -5.2,-0.76 -10.67,-2.09 -15.75,0.05 -5.52,1.54 -8.65,6.69 -11.95,10.95 -0.92,-0.04 -2.75,-0.16 -3.65,-0.2 -0.92,-2.46 -1.82,-4.86 -2.7,-7.3 8.62,-3.34 17.59,-5.76 26.05,-9.5 2.08,-0.72 3.33,-2.14 3.75,-4.3 5.62,-17.04 4.43,-35.16 5.55,-52.8 -1.58,-15.16 -10.08,-28.58 -12.8,-43.5 -0.32,-7.52 2.33,-14.74 3.85,-22 3.62,-16.4 8.24,-32.62 11,-49.2 -9.26,-3.42 -19,-5.1 -28.6,-7.3 0.06,-5.12 0.1,-10.23 0.2,-15.35 4.76,-3.22 9.88,-6.09 14,-10.15 1.02,-12.24 -0.46,-24.62 -1.8,-36.8 -2.34,-1.44 -4.68,-2.86 -7,-4.3 1.6,-1.92 3.18,-3.8 4.8,-5.7 9.24,15.52 23.35,28.66 27.45,46.8 3.3,11.36 6.35,22.78 9.75,34.1 1.74,10.04 14.36,9.03 21.7,12.45 -3.7,5.1 -10.02,6.5 -15.6,8.5 0.54,11.76 2.78,23.31 4.9,34.85 5.98,1.28 11.95,2.65 17.95,3.95 -0.08,8.56 -0.7,17.24 -3.8,25.3 -9.78,22.54 -19.11,45.31 -27.65,68.35 -5.22,25.16 -5.68,51.14 -11,76.3 -3.18,14.82 -11.07,28.57 -11.55,43.95 -0.4,11.24 -1.41,22.44 -2.85,33.6 -2.62,17.68 -8.08,34.79 -10.8,52.45 -1.14,14.9 -0.12,29.88 -0.7,44.8 0.08,7.92 -1.12,15.98 0.5,23.8 2.94,5.28 9.97,5.54 15.05,7.7 -0.56,9.9 -0.43,19.88 -1.95,29.7 -4.6,12.7 -13.2,23.5 -18.5,35.9 -1.82,5.18 -1.62,10.78 -2.1,16.2 l 69.85,0 c -0.76,-11.46 -6.67,-22.3 -4.75,-33.9 1.88,-12.02 3.73,-24.07 5.85,-36.05 4.58,-2.44 8.79,-5.6 11.05,-10.4 5.24,-10.02 12,-19.29 16.3,-29.75 1.6,-12.7 -4.9,-25.02 -3.7,-37.8 1.92,-6.4 7.08,-11.39 8.6,-17.95 0.94,-10.54 -5.32,-21.22 -0.8,-31.5 5.04,-13.08 9.43,-26.38 14.35,-39.5 2.44,-7.56 11.45,-8.81 17.45,-12.55 4.06,-14.52 9.22,-28.71 13.2,-43.25 1.22,-3.92 2.25,-7.99 4.35,-11.55 7.92,-2.62 16.37,-2.99 24.55,-4.55 7.88,-1.06 15.76,-3.31 23.8,-2.85 9.84,13.36 17.66,28.25 26.1,42.55 -12.8,11.12 -28.32,18.89 -40.5,30.65 -15.16,23.12 -28.82,47.23 -43.7,70.55 -3.12,5.6 -8.1,10.99 -7.9,17.75 1.78,6.88 7.17,12.02 11.05,17.8 -5.44,14.28 -11.25,28.45 -16.65,42.75 -3.2,10.2 -4.11,21 -4.85,31.6 -0.48,5.12 4.52,7.83 8.2,10.15 6.8,3.82 13.37,8.21 20.65,11.05 5.94,2.48 9.52,-4 14,-6.5 7.48,0.26 14.55,3.18 21.75,5 2.76,4.52 4.97,9.56 8.85,13.3 3.96,2.76 8.78,3.79 13.3,5.35 8.34,2.42 16.75,6.14 25.65,4.8 10.64,-1.44 21.47,-2.4 31.85,-5.2 8.34,-3.18 16.09,-7.96 23.15,-13.4 3.88,-2.76 2.17,-8.27 0.25,-11.75 -3.94,-6.74 -7.35,-14.3 -13.55,-19.3 -4.7,-1.2 -9.46,0.61 -14.1,1.25 -15.48,-6.42 -30.8,-13.13 -45.9,-20.35 -1.3,-5.42 -3.62,-10.81 -3.2,-16.45 1.68,-4.56 4.49,-8.61 6.65,-12.95 4.1,-7.62 6.92,-16.4 14,-21.9 6.22,-5.8 14.73,-8.98 19.75,-16 6.86,-13.44 9.66,-28.63 16.5,-42.05 8.58,-4.12 19.06,-1.46 27.5,-6.1 9.24,-8.46 14.85,-20 22.05,-30.1 4.62,-7.18 11.15,-14.05 11.45,-23.05 0.5,-10.74 0.75,-21.46 0.75,-32.2 -2.1,-1.42 -4.15,-2.85 -6.25,-4.25 -2.3,-18.74 -8.11,-36.76 -12.75,-55 -9.6,-36.8 -19.37,-73.55 -28.95,-110.35 -2.8,-7.88 4.48,-14.29 4.1,-22.05 0.28,-9.58 0,-19.17 0.2,-28.75 -7.74,-2.9 -15.55,-5.52 -23.15,-8.8 2.8,-13.24 5.78,-26.52 10.9,-39.1 2,-3.24 0.45,-6.76 -1.05,-9.8 -7.36,-14.46 -17.61,-27.68 -21.75,-43.6 -3.98,-14.2 -8.7,-28.15 -12.7,-42.35 -2.38,-5.6 2.29,-10.28 4.85,-14.8 3.74,-5.1 6.45,-12.1 13.25,-13.7 7.96,-2.62 15.94,-5.63 24.3,-6.75 7.2,0.7 13.72,4.5 20.1,7.7 5.5,2.78 8.16,8.68 12.8,12.5 3.4,1.74 7.4,0.28 10.9,-0.5 12.72,-3.92 25.92,-7.37 37.2,-14.75 5.68,-3.5 9.55,-9.15 15.15,-12.75 9.26,-6.08 20.11,-10.02 27.85,-18.2 11.4,-12.08 21.93,-24.94 33.45,-36.9 4.18,-4.76 10.82,-5.09 16.5,-6.85 7.48,-1.74 13.63,-6.55 20.05,-10.55 2.16,4.32 4.93,8.3 8.75,11.3 8.5,-5.5 21.28,-7.22 25.8,-17.1 -2.58,-18.28 -11.77,-34.69 -20.35,-50.75 20.16,-10.36 43.41,-16.87 59.45,-33.65 -1.16,-4.88 -3.11,-10.46 -7.65,-13.1 -11.64,2.48 -22.2,8.27 -33.5,11.75 -6.72,2.24 -13.77,0.84 -20.65,0.9 -10.48,-0.26 -20.43,3.56 -30.25,6.7 -9.84,3.14 -18.93,8.34 -26.95,14.8 -8.16,6.52 -11.97,17.36 -21.45,22.4 -18.48,10.46 -37.22,20.42 -55.7,30.9 -3.76,1.96 -7.43,4.39 -11.65,5.25 -6.12,-0.8 -11.79,-4.82 -18.05,-3.9 -6.88,3.78 -10.82,11.02 -16.9,15.8 -4.1,0.52 -8.19,-0.71 -12.15,-1.55 -18.5,-4.7 -37.05,-9.14 -55.55,-13.8 -11.44,-2.64 -17.2,-14.48 -27.5,-19.1 -26.44,-1.74 -52.94,3.63 -79.4,1.05 0.02,-5.24 -0.25,-10.55 0.65,-15.75 2.92,-11.08 14.75,-19.6 12.05,-32 -0.84,-9.58 -12.42,-13.23 -13.7,-22.55 -2.26,-13.38 9.59,-23.28 13.35,-35.3 -1.46,-4.98 -2.83,-9.96 -4.35,-14.9 -5.86,-2.12 -12.11,-3.34 -17.65,-6.2 -4.14,-4.86 -5.81,-11.33 -10.15,-16.05 -4.58,-2.84 -10.17,-3.42 -15.25,-4.9 -11.78,-2.6 -23.37,-6.5 -35.45,-7.5 -0.32875,-0.0425 -0.62883,-0.0902 -0.95,-0.1 z m -66.55,574 c 2.3,-0.015 4.6,0 6.9,0.15 -0.78,4.84 -0.58,10.38 -3.6,14.5 -3.32,1.9 -7.46,1.1 -11.1,1.7 0.22,-5.42 0.54,-10.82 0.9,-16.2 2.3,-0.07 4.6,-0.13501 6.9,-0.15 z"
     id="path8"
     style="fill:#f5e5c1"
     inkscape:connector-curvature="0" />
</svg>
