<?xml version="1.0" encoding="UTF-8" ?>
<!DOCTYPE svg PUBLIC "-//W3C//DTD SVG 1.1//EN" "http://www.w3.org/Graphics/SVG/1.1/DTD/svg11.dtd">
<svg width="512pt" height="512pt" viewBox="0 0 512 512" version="1.1" xmlns="http://www.w3.org/2000/svg">
<path fill="#3e3e3e" opacity="1.00" d=" M 0.00 0.00 L 512.00 0.00 L 512.00 512.00 L 476.59 512.00 C 474.41 502.43 472.69 492.68 472.45 482.85 C 467.91 485.20 463.48 489.12 458.00 488.21 C 450.35 487.32 442.67 486.63 435.00 485.88 C 429.57 485.55 425.09 482.17 421.05 478.85 C 417.93 476.57 418.28 472.33 417.53 468.96 C 410.25 464.40 402.32 460.88 395.52 455.58 C 390.70 451.82 385.80 448.17 381.06 444.32 C 383.18 451.02 382.41 458.11 383.06 465.02 C 384.07 480.75 381.54 496.34 380.53 512.00 L 371.40 512.00 C 371.36 499.32 373.05 486.68 373.60 474.01 C 373.95 468.22 372.37 462.58 371.53 456.90 C 370.66 452.62 370.59 448.11 368.99 444.01 C 367.32 442.24 365.09 441.18 363.09 439.85 C 358.48 437.03 355.20 432.63 351.15 429.14 C 348.24 429.64 345.29 429.59 342.37 429.29 C 344.42 435.66 343.64 442.41 343.66 448.98 C 343.15 460.10 344.92 471.14 345.91 482.19 C 346.76 492.14 349.05 501.97 348.95 512.00 L 328.95 512.00 C 330.10 500.28 332.33 488.71 333.75 477.03 C 335.13 465.00 332.92 452.98 333.14 440.94 C 332.79 435.84 333.24 430.65 332.31 425.61 C 329.23 423.73 325.28 422.98 323.41 419.58 C 321.67 422.27 318.69 423.48 316.07 425.09 C 315.65 426.32 315.62 427.65 315.56 428.95 C 315.46 439.98 315.56 451.02 315.27 462.05 C 313.84 470.33 310.66 478.21 308.90 486.43 C 307.16 495.18 303.37 503.32 301.33 512.00 L 0.00 512.00 L 0.00 243.07 C 15.52 247.46 31.10 251.73 46.83 255.32 C 105.25 271.10 163.79 286.47 222.15 302.49 C 223.31 300.67 224.53 298.88 225.42 296.91 C 225.08 295.60 224.02 294.80 222.81 294.38 C 148.75 268.50 74.44 243.34 0.00 218.57 L 0.00 0.00 Z" />
<path fill="#f5722c" opacity="1.00" d=" M 185.11 12.14 C 201.54 5.61 219.87 4.30 237.15 7.75 C 260.21 12.46 280.81 26.44 295.10 44.96 C 310.83 65.36 319.05 91.29 318.53 117.00 C 318.38 143.99 308.21 170.85 290.17 190.96 C 291.50 180.92 287.59 170.68 280.06 163.95 C 274.67 158.70 266.99 157.83 260.04 156.10 C 266.51 143.54 267.53 128.83 265.17 115.07 C 262.48 99.97 253.83 85.50 240.38 77.68 C 227.46 69.86 210.39 69.67 197.32 77.24 C 183.50 84.91 174.90 99.77 172.19 115.04 C 169.71 129.70 170.94 145.54 178.44 158.64 C 185.60 171.97 198.95 181.95 214.02 184.18 C 213.14 188.02 212.58 192.04 213.68 195.89 C 215.09 200.90 215.54 206.53 219.09 210.61 C 222.82 215.51 227.77 219.35 232.94 222.64 C 215.73 224.95 197.83 223.17 181.85 216.17 C 156.87 205.51 136.95 184.25 126.84 159.16 C 115.15 130.77 115.50 97.76 127.49 69.54 C 138.16 43.88 159.06 22.24 185.11 12.14 Z" />
<path fill="#f5722c" opacity="1.00" d=" M 52.41 10.43 C 53.43 9.60 54.41 8.21 55.93 8.51 C 71.32 9.36 86.70 10.57 102.09 11.44 C 103.05 11.70 105.27 11.15 104.96 12.87 C 105.15 15.92 104.87 18.96 104.74 22.00 C 101.78 89.18 98.99 156.38 95.97 223.56 C 77.68 222.70 59.38 221.86 41.11 220.64 C 43.15 171.61 44.79 122.57 46.70 73.55 C 41.89 78.11 37.22 82.82 32.73 87.70 C 23.82 77.19 15.09 66.52 6.19 55.98 C 21.70 40.91 36.91 25.52 52.41 10.43 Z" />
<path fill="#f5e5c1" opacity="1.00" d=" M 247.14 163.13 C 253.46 161.52 259.83 163.56 265.99 164.86 C 272.33 166.29 277.24 171.07 280.71 176.34 C 284.30 182.44 283.58 189.98 281.61 196.49 C 280.19 201.47 276.53 205.38 272.72 208.70 C 269.02 211.96 264.23 213.49 260.03 215.93 C 258.48 214.13 257.30 211.83 255.12 210.71 C 250.38 210.84 245.63 211.52 240.96 212.32 C 238.64 212.43 238.55 215.21 237.88 216.81 C 229.84 213.30 223.17 206.19 221.41 197.44 C 217.75 186.22 223.93 173.42 234.29 168.26 C 238.47 166.32 242.68 164.34 247.14 163.13 Z" />
<path fill="#f5e5c1" opacity="1.00" d=" M 241.81 216.51 C 245.77 215.46 249.86 214.87 253.95 214.80 C 256.86 218.66 260.07 222.43 261.92 226.95 C 255.03 225.17 247.86 224.79 240.81 225.66 C 240.74 222.57 241.29 219.53 241.81 216.51 Z" />
<path fill="#f5722c" opacity="1.00" d=" M 0.00 218.57 C 74.44 243.34 148.75 268.50 222.81 294.38 C 224.02 294.80 225.08 295.60 225.42 296.91 C 224.53 298.88 223.31 300.67 222.15 302.49 C 163.79 286.47 105.25 271.10 46.83 255.32 C 31.10 251.73 15.52 247.46 0.00 243.07 L 0.00 218.57 Z" />
<path fill="#f5e5c1" opacity="1.00" d=" M 322.35 236.36 C 325.59 232.00 330.56 229.63 334.86 226.53 C 337.70 227.11 341.94 226.43 343.16 229.83 C 344.31 233.91 343.45 238.54 341.01 242.01 C 336.32 249.36 331.34 257.39 323.14 261.19 C 319.97 262.97 317.35 265.61 313.96 267.02 C 310.22 269.02 306.02 269.80 301.88 270.47 C 301.57 269.78 300.94 268.40 300.63 267.71 C 303.68 265.72 307.38 265.30 310.62 263.72 C 316.83 260.95 322.16 256.64 327.38 252.36 C 332.67 248.06 336.40 242.09 338.73 235.74 C 339.54 234.22 338.79 232.64 338.41 231.13 C 328.91 233.22 321.68 241.60 319.92 251.01 C 319.41 254.68 317.70 258.06 314.53 260.13 C 314.28 251.73 316.17 242.46 322.35 236.36 Z" />
<path fill="#f5e5c1" opacity="1.00" d=" M 229.78 234.80 C 234.39 230.40 240.97 229.69 247.04 229.51 C 253.02 229.38 259.13 230.04 264.69 232.35 C 271.60 235.93 278.07 240.27 284.67 244.37 C 286.80 246.04 287.92 248.63 289.28 250.91 C 289.09 254.36 291.90 256.77 292.91 259.87 C 294.87 264.34 294.57 269.29 294.58 274.05 C 294.66 277.62 292.50 280.65 290.54 283.44 C 286.03 289.20 280.49 294.90 273.07 296.51 C 267.23 297.69 262.52 293.29 257.18 291.88 C 252.74 290.63 248.68 288.23 244.11 287.45 C 237.64 286.42 231.11 284.19 226.14 279.80 C 214.37 267.29 216.29 245.32 229.78 234.80 Z" />
<path fill="#3e3e3e" opacity="1.00" d=" M 238.33 234.38 C 243.01 232.70 248.16 233.08 253.02 233.59 C 261.87 235.71 269.29 243.09 271.40 251.95 C 272.01 257.54 272.38 263.59 269.72 268.74 C 266.50 275.45 260.22 280.73 252.94 282.41 C 247.33 283.08 241.28 283.29 236.14 280.58 C 229.21 277.25 223.83 270.70 222.40 263.10 C 219.54 251.32 227.01 238.40 238.33 234.38 Z" />
<path fill="#f5e5c1" opacity="1.00" d=" M 345.97 239.05 C 351.53 236.94 357.41 239.24 362.50 241.55 C 364.91 242.39 365.53 245.10 366.68 247.09 C 360.10 253.70 353.97 261.27 345.34 265.30 C 339.10 268.52 333.32 272.56 327.93 277.05 C 326.19 274.95 324.45 272.86 322.58 270.89 C 322.42 269.21 322.31 267.53 322.22 265.85 C 327.31 261.42 333.21 257.75 337.13 252.12 C 340.45 248.02 342.51 243.01 345.97 239.05 Z" />
<path fill="#f5e5c1" opacity="1.00" d=" M 367.81 243.77 C 373.90 244.28 378.34 248.68 382.94 252.18 C 385.32 254.09 388.69 253.97 391.08 255.88 C 394.53 258.51 396.39 262.58 399.31 265.72 C 402.92 269.57 406.30 274.58 406.10 280.01 C 403.99 284.56 399.58 287.62 395.30 289.97 C 395.68 295.68 395.12 301.45 393.78 307.01 C 392.87 308.34 390.89 308.28 389.52 308.95 C 389.71 303.39 389.69 297.83 389.33 292.28 C 389.87 292.34 390.96 292.46 391.51 292.52 C 391.50 293.08 391.49 294.19 391.49 294.75 C 392.05 294.64 393.18 294.40 393.74 294.28 C 393.28 293.08 392.94 291.78 392.09 290.79 C 390.82 290.57 389.54 290.52 388.27 290.41 C 388.46 296.47 388.89 302.54 388.48 308.60 C 388.18 312.18 385.89 315.09 383.96 317.95 C 378.30 327.36 367.20 331.19 359.97 339.06 C 358.76 341.83 360.88 344.82 361.51 347.55 C 357.02 347.78 351.76 348.32 348.37 344.71 C 343.92 340.23 340.41 333.23 342.85 326.99 C 343.61 323.27 343.78 319.21 345.93 315.96 C 348.43 313.05 352.56 313.61 355.87 312.43 C 357.79 311.94 360.03 310.34 361.89 311.89 C 364.62 314.19 366.57 317.27 369.34 319.54 C 366.86 319.90 364.39 320.32 362.00 321.07 C 356.40 322.90 350.41 323.71 345.29 326.79 C 345.78 328.13 344.90 330.83 347.03 330.75 C 348.08 329.43 348.92 327.97 349.82 326.56 C 354.24 325.33 358.67 324.15 363.03 322.73 C 365.51 322.30 366.88 324.85 368.34 326.36 C 369.64 325.05 370.50 323.44 370.47 321.54 C 371.81 322.42 373.22 323.25 374.67 323.97 C 375.50 317.28 372.41 310.88 373.23 304.21 C 374.25 300.81 377.40 298.60 380.14 296.58 C 380.03 299.60 378.31 301.97 375.64 303.31 L 376.72 304.50 C 380.27 305.05 383.87 305.22 387.44 305.58 C 387.56 299.09 386.72 292.63 385.22 286.32 C 387.03 286.43 388.85 286.52 390.67 286.59 C 390.39 282.90 388.29 279.76 385.93 277.06 C 382.89 273.57 379.85 269.87 375.81 267.51 C 375.10 267.49 373.68 267.44 372.97 267.42 C 372.14 266.88 371.32 266.33 370.51 265.79 C 367.69 265.52 364.78 263.96 362.02 265.22 C 350.94 269.40 340.36 275.10 331.07 282.48 C 330.40 280.61 329.69 278.75 329.01 276.90 C 333.42 273.88 337.76 270.64 342.78 268.69 C 350.15 265.84 356.45 260.71 364.10 258.53 C 368.29 257.38 371.56 254.37 374.82 251.67 C 373.87 251.64 372.93 251.62 372.00 251.60 C 369.90 249.41 368.30 246.81 367.81 243.77 Z" />
<path fill="#f5e5c1" opacity="1.00" d=" M 291.36 250.64 C 295.59 253.52 300.16 255.84 304.69 258.21 C 307.16 259.54 310.10 259.53 312.54 260.96 C 309.89 262.35 306.98 263.08 304.01 263.36 C 302.75 262.87 301.48 262.38 300.17 262.08 C 299.22 262.65 298.66 263.64 297.96 264.47 C 298.94 265.57 300.01 266.66 300.59 268.05 C 302.45 272.56 305.13 276.77 305.78 281.69 C 307.97 280.24 310.07 278.57 311.37 276.24 C 313.29 272.89 316.64 270.82 319.33 268.17 C 321.91 273.77 326.23 278.42 328.77 284.05 C 329.07 287.28 328.00 290.47 326.38 293.22 C 321.72 300.29 314.20 305.37 305.81 306.74 C 305.39 305.89 304.96 305.03 304.55 304.18 C 304.73 310.03 303.33 315.80 303.51 321.63 C 306.23 323.73 309.44 325.08 312.43 326.75 C 312.45 327.77 312.47 329.83 312.48 330.85 C 305.65 330.34 298.87 331.41 292.09 331.79 C 284.65 327.97 276.69 324.92 269.79 320.12 C 265.67 321.52 261.44 323.51 256.97 322.53 C 250.60 321.27 244.36 319.44 238.00 318.19 C 233.70 317.05 229.29 316.32 225.03 315.06 C 220.28 312.60 215.16 309.95 212.64 304.96 C 216.44 305.71 220.17 306.79 223.96 307.59 C 226.40 304.77 229.86 302.19 229.90 298.10 C 229.94 296.09 230.25 293.07 227.99 292.13 C 224.51 290.51 220.76 289.57 217.18 288.23 C 220.17 286.75 223.53 284.78 226.97 286.06 C 234.93 288.52 242.51 292.07 250.48 294.52 C 255.99 296.49 261.76 298.12 266.72 301.30 C 270.63 306.25 272.55 313.29 270.42 319.40 C 273.90 318.66 274.37 314.96 274.92 312.08 C 275.48 311.22 276.03 310.35 276.57 309.48 C 281.19 310.28 285.87 310.57 290.55 310.64 C 292.27 313.87 291.03 317.58 291.69 321.02 C 292.28 321.34 293.46 321.99 294.05 322.32 C 294.59 316.92 294.06 311.45 294.91 306.09 C 296.99 301.13 302.19 299.08 306.24 296.11 C 297.98 298.16 289.81 300.90 281.23 301.26 C 292.30 294.73 298.72 281.66 298.25 268.97 C 296.66 262.62 294.65 256.35 291.36 250.64 Z" />
<path fill="#f5e5c1" opacity="1.00" d=" M 356.35 269.45 C 360.75 267.01 365.88 267.38 370.72 267.45 C 370.83 269.94 370.42 272.50 371.01 274.94 C 372.67 276.93 375.12 278.03 377.22 279.49 C 371.77 281.42 366.46 278.41 360.95 278.62 C 357.29 278.37 353.92 280.01 350.72 281.55 C 350.29 282.82 349.84 284.09 349.40 285.36 C 345.44 284.49 341.71 288.10 338.01 285.78 C 337.13 285.68 335.37 285.48 334.49 285.39 C 333.78 286.48 333.09 287.59 332.40 288.70 C 332.16 287.27 331.93 285.84 331.67 284.42 C 338.84 277.87 347.70 273.64 356.35 269.45 Z" />
<path fill="#f5e5c1" opacity="1.00" d=" M 46.54 293.60 C 50.35 287.13 57.41 282.72 64.89 282.13 C 70.51 281.56 76.02 283.13 81.45 284.36 C 126.27 294.51 171.12 304.55 215.93 314.72 C 224.15 317.66 232.81 319.02 241.26 321.17 C 248.30 322.59 255.20 324.78 262.34 325.62 C 262.11 328.20 263.32 330.55 263.74 333.03 C 264.28 338.03 263.71 343.22 261.34 347.72 C 256.23 347.72 251.12 347.45 246.01 347.31 C 239.14 347.36 232.34 345.86 225.46 346.37 C 225.43 346.22 225.35 345.92 225.32 345.77 C 216.69 346.13 208.14 344.75 199.56 344.19 C 157.70 340.13 115.88 335.59 74.03 331.35 C 69.89 330.94 65.81 330.04 61.74 329.22 C 54.95 327.84 48.92 323.23 45.76 317.06 C 41.91 309.82 42.21 300.57 46.54 293.60 Z" />
<path fill="#f5e5c1" opacity="1.00" d=" M 372.24 282.23 C 374.66 282.27 377.06 282.64 379.32 283.54 C 379.57 287.76 381.69 292.17 379.45 296.19 C 376.35 298.64 372.37 301.49 372.42 305.88 C 371.83 311.77 374.42 317.36 374.28 323.23 C 371.57 321.79 370.42 318.77 368.15 316.85 C 365.24 314.43 362.75 311.19 358.93 310.22 C 358.63 308.45 357.65 307.07 356.15 306.12 C 355.64 306.65 354.62 307.70 354.11 308.23 C 351.16 308.64 348.28 309.82 345.30 309.71 C 343.56 307.73 342.27 304.91 339.21 305.03 C 339.00 309.22 342.00 314.53 346.63 314.50 C 342.73 317.97 344.43 324.15 341.34 327.82 C 340.95 327.38 340.18 326.49 339.79 326.05 C 339.02 320.80 337.02 315.87 334.88 311.06 C 334.50 309.45 334.02 307.87 333.51 306.31 C 334.22 306.35 335.65 306.44 336.36 306.48 C 341.63 302.44 342.00 294.92 341.40 288.83 C 343.82 288.00 346.31 287.40 348.88 287.28 C 348.67 291.74 352.06 295.21 355.80 297.05 C 359.28 298.39 363.75 299.60 366.84 296.73 C 371.80 293.76 372.81 287.53 372.24 282.23 Z" />
<path fill="#f5e5c1" opacity="1.00" d=" M 352.41 292.01 C 356.18 290.89 359.15 288.15 362.44 286.12 C 362.43 286.75 362.40 288.00 362.39 288.63 C 364.72 287.87 367.03 287.04 369.36 286.29 C 369.36 287.94 369.37 289.60 369.40 291.26 C 367.13 294.75 362.99 296.23 359.01 296.51 C 356.94 295.24 354.79 294.12 352.59 293.11 C 352.54 292.84 352.45 292.29 352.41 292.01 Z" />
<path fill="#3e3e3e" opacity="1.00" d=" M 58.38 287.47 C 68.41 284.10 79.96 291.64 81.31 302.03 C 83.32 312.13 75.34 322.83 65.01 323.48 C 55.32 324.68 45.55 316.76 45.16 306.91 C 44.18 298.33 50.14 289.81 58.38 287.47 Z" />
<path fill="#f5e5c1" opacity="1.00" d=" M 329.28 302.01 C 332.88 298.47 335.98 294.29 340.57 291.93 C 340.05 295.35 339.18 298.70 338.29 302.04 C 336.32 303.41 334.63 306.08 331.90 305.47 C 330.73 304.57 329.86 303.34 329.28 302.01 Z" />
<path fill="#f5e5c1" opacity="1.00" d=" M 332.61 316.02 C 332.68 314.70 332.43 313.01 333.70 312.17 C 335.64 316.94 337.74 321.71 338.77 326.80 C 335.14 324.47 332.52 320.41 332.61 316.02 Z" />
<path fill="#f5e5c1" opacity="1.00" d=" M 392.99 315.87 C 394.15 313.12 397.63 313.21 400.03 312.25 C 401.13 313.48 402.23 314.71 403.33 315.96 C 405.56 315.83 408.00 314.73 410.14 315.83 C 412.03 318.28 413.19 321.20 414.67 323.91 C 412.13 324.63 409.56 325.64 408.00 327.91 C 398.44 340.20 389.39 352.90 379.62 365.03 C 376.21 362.16 374.51 357.69 371.87 354.14 C 369.10 350.45 367.48 346.12 366.25 341.71 C 371.85 337.50 377.49 333.34 383.02 329.04 C 386.98 325.21 390.35 320.71 392.99 315.87 Z" />
<path fill="#f5e5c1" opacity="1.00" d=" M 268.88 332.99 C 267.71 329.46 264.91 326.39 265.37 322.47 C 267.17 322.59 269.09 322.19 270.80 322.91 C 278.27 326.10 285.05 331.49 293.33 332.38 C 292.31 334.72 293.45 336.95 294.42 339.06 C 294.11 340.36 293.80 341.66 293.50 342.96 C 289.71 346.88 283.71 349.74 278.32 347.68 C 273.13 344.50 271.14 338.31 268.88 332.99 Z" />
<path fill="#f5e5c1" opacity="1.00" d=" M 420.17 329.42 C 425.15 328.38 429.93 326.28 435.02 325.84 C 438.83 327.14 442.26 329.32 445.83 331.14 C 450.71 333.84 455.82 336.26 460.11 339.89 C 463.14 342.44 466.74 344.52 468.82 348.02 C 472.60 353.97 473.36 361.09 474.50 367.88 C 476.49 376.06 478.68 384.22 480.13 392.52 C 480.65 399.59 480.53 406.69 480.83 413.77 C 479.36 412.40 477.87 411.06 476.38 409.73 C 475.51 400.17 475.45 390.57 474.22 381.04 C 472.26 371.27 469.93 361.46 465.53 352.47 C 461.09 346.76 453.91 344.47 447.84 341.00 C 444.06 339.27 440.60 336.47 436.30 336.20 C 427.94 339.51 419.21 342.02 411.21 346.19 C 408.67 347.34 407.51 350.36 408.06 352.99 C 409.64 363.04 411.29 373.07 412.80 383.12 C 406.43 378.74 399.99 374.31 392.80 371.35 C 390.47 370.32 387.96 369.61 385.87 368.10 C 393.97 356.25 403.14 345.14 411.63 333.55 C 413.37 330.52 417.17 330.37 420.17 329.42 Z" />
<path fill="#3e3e3e" opacity="1.00" d=" M 351.10 331.71 C 351.97 330.25 352.75 330.31 353.45 331.91 C 352.56 333.33 351.78 333.27 351.10 331.71 Z" />
<path fill="#f5e5c1" opacity="1.00" d=" M 318.69 337.13 C 319.36 335.65 319.65 334.08 319.62 332.47 C 327.60 336.72 334.98 341.93 342.47 346.96 C 342.33 348.64 342.21 350.33 342.09 352.02 C 344.46 350.10 346.80 348.17 349.16 346.25 C 350.22 347.25 351.29 348.25 352.23 349.38 C 348.02 351.39 343.68 353.70 338.99 354.14 C 335.67 353.46 331.32 353.96 329.17 350.85 C 325.68 346.27 322.22 341.67 318.69 337.13 Z" />
<path fill="#f5e5c1" opacity="1.00" d=" M 300.34 337.20 C 304.94 337.20 309.54 337.08 314.13 337.38 C 317.29 342.54 321.17 347.24 324.70 352.15 C 327.80 357.15 334.15 358.39 339.60 358.51 C 339.87 366.07 341.57 373.53 341.67 381.07 C 338.58 388.31 334.29 395.04 330.68 402.05 C 329.76 404.37 332.09 405.12 333.95 404.93 C 338.00 401.12 340.43 395.99 342.93 391.11 C 344.93 387.15 346.26 382.84 346.58 378.40 C 350.97 381.18 355.48 385.17 361.06 384.50 C 355.38 383.26 350.71 379.77 345.74 376.99 C 345.03 371.35 343.86 365.69 344.22 359.98 C 347.39 356.37 352.25 354.92 356.16 352.26 C 359.81 352.62 363.36 353.71 366.50 355.64 C 369.96 357.34 371.43 361.16 373.58 364.12 C 370.97 361.52 368.75 358.35 365.35 356.70 C 362.10 354.77 358.05 355.23 354.68 356.60 C 352.99 362.49 352.97 370.51 358.76 374.16 C 363.04 375.70 368.70 378.07 372.67 374.68 C 374.62 373.17 374.35 370.47 375.36 368.43 C 376.13 369.02 376.89 369.64 377.64 370.27 C 377.67 375.11 376.52 380.38 372.49 383.50 C 370.13 386.12 366.25 385.71 363.47 387.52 C 361.54 389.72 360.66 392.60 359.33 395.17 C 355.04 403.83 351.14 412.70 346.14 420.98 C 344.05 420.52 341.98 420.02 339.92 419.46 C 338.74 418.00 338.21 415.24 335.93 415.30 C 334.36 415.19 332.99 416.23 331.55 416.67 C 328.78 412.79 328.74 407.83 328.58 403.27 C 327.03 402.74 325.49 402.17 323.91 401.76 C 315.26 403.99 306.72 406.71 298.08 409.01 C 293.08 410.53 287.98 408.71 282.99 408.18 C 276.95 406.99 270.43 407.27 264.92 404.18 C 261.66 402.59 258.47 400.87 255.13 399.45 C 252.57 398.33 249.68 398.78 247.03 398.05 C 244.38 395.42 242.28 392.25 240.63 388.92 C 240.40 386.79 241.31 384.72 241.64 382.64 C 250.64 379.49 256.35 370.58 257.58 361.39 C 265.06 361.38 272.55 361.52 280.03 361.62 C 283.05 362.18 283.73 358.85 284.72 356.79 C 289.59 356.17 293.83 353.44 298.07 351.15 C 303.09 348.38 301.36 341.74 300.34 337.20 Z" />
<path fill="#f5e5c1" opacity="1.00" d=" M 415.55 353.82 C 419.92 351.73 424.29 349.42 429.11 348.60 C 436.11 349.28 442.88 351.30 449.54 353.46 C 454.73 356.00 460.73 357.11 464.99 361.30 C 465.52 361.38 466.59 361.55 467.13 361.63 C 471.77 375.52 473.64 390.16 473.72 404.77 C 464.53 401.34 454.61 401.22 444.95 401.65 C 442.66 400.00 440.37 398.34 437.89 396.99 C 436.37 395.80 434.83 397.53 433.53 398.14 C 429.44 394.35 425.25 390.66 420.31 387.99 C 419.79 376.48 417.11 365.21 415.55 353.82 Z" />
<path fill="#f5e5c1" opacity="1.00" d=" M 229.53 352.42 C 234.70 353.04 239.89 353.36 245.09 353.52 C 247.30 355.74 249.71 357.76 252.55 359.14 C 251.88 362.95 252.23 367.37 249.48 370.44 C 247.11 373.23 244.64 375.93 242.39 378.82 C 241.47 378.69 240.56 378.57 239.66 378.45 C 236.12 373.18 232.89 367.70 230.41 361.85 C 229.05 358.89 229.57 355.56 229.53 352.42 Z" />
<path fill="#f5e5c1" opacity="1.00" d=" M 229.37 382.72 C 227.78 377.01 229.15 370.99 228.95 365.16 C 230.82 370.66 234.40 375.25 237.56 380.03 C 237.05 382.89 236.47 385.74 236.29 388.66 C 233.45 387.44 230.21 386.01 229.37 382.72 Z" />
<path fill="#f5e5c1" opacity="1.00" d=" M 381.70 374.10 C 383.88 374.34 386.06 374.46 388.22 374.84 C 391.01 375.97 393.60 377.53 396.36 378.74 C 397.31 379.02 398.26 379.33 399.21 379.66 C 411.55 386.19 423.06 394.17 433.63 403.29 C 440.77 408.79 445.30 416.99 448.44 425.28 C 451.15 431.45 444.97 436.34 441.90 441.00 C 437.26 448.23 429.89 453.17 421.98 456.21 C 419.01 457.37 416.15 455.40 413.46 454.41 C 403.43 450.22 393.37 445.81 384.55 439.38 C 378.09 435.13 371.30 431.37 364.99 426.93 C 363.02 424.07 363.97 420.20 363.36 416.92 C 362.05 408.18 362.72 399.05 365.87 390.76 C 368.75 390.04 371.77 389.72 374.48 388.46 C 378.55 384.72 380.69 379.44 381.70 374.10 Z" />
<path fill="#3e3e3e" opacity="1.00" d=" M 323.31 376.28 C 323.94 374.43 326.26 373.88 327.56 375.40 C 328.38 382.18 327.81 389.79 322.86 395.00 C 318.86 398.92 314.64 403.86 308.56 403.87 C 308.30 403.09 307.78 401.55 307.53 400.78 C 314.35 393.71 318.78 384.87 323.31 376.28 Z" />
<path fill="#f5e5c1" opacity="1.00" d=" M 296.82 412.27 C 304.69 410.55 312.12 407.15 320.16 406.19 C 319.14 408.80 319.09 412.71 315.89 413.65 C 308.32 416.41 300.75 419.17 293.16 421.87 C 288.04 423.32 284.88 428.03 282.15 432.25 C 283.25 432.68 284.32 433.25 285.31 433.92 C 288.21 431.03 290.34 426.93 294.46 425.62 C 299.57 423.81 304.66 421.94 309.80 420.22 C 305.35 429.38 301.20 439.33 292.60 445.42 C 289.33 446.11 285.82 445.74 282.55 445.20 C 277.13 439.49 273.76 432.14 271.58 424.64 C 270.18 419.68 268.43 414.71 268.39 409.50 C 268.07 409.20 267.43 408.59 267.10 408.29 C 277.02 409.52 286.82 411.86 296.82 412.27 Z" />
<path fill="#f5e5c1" opacity="1.00" d=" M 443.34 406.67 C 447.76 409.46 451.07 413.57 455.18 416.76 C 459.50 420.50 463.99 424.09 468.00 428.16 C 469.74 429.71 468.37 432.10 467.68 433.84 C 465.60 438.27 464.10 443.08 460.85 446.84 C 458.05 450.06 455.65 453.80 451.79 455.86 C 451.74 456.72 451.65 458.44 451.60 459.29 C 453.75 462.45 456.63 465.04 460.22 466.46 C 461.18 467.39 461.25 469.92 463.11 469.33 C 465.35 468.88 464.62 466.32 464.83 464.72 C 471.33 456.21 475.12 445.44 474.46 434.68 C 477.14 432.62 474.96 429.42 473.43 427.40 C 471.01 425.19 468.36 423.25 466.04 420.95 C 461.38 416.39 455.86 412.78 451.58 407.84 C 456.36 407.60 461.36 407.00 466.01 408.37 C 473.13 413.03 478.90 419.44 485.41 424.87 C 488.60 435.12 485.66 445.74 483.51 455.87 C 482.76 460.14 480.00 463.88 480.54 468.38 C 477.88 470.90 473.65 471.60 472.14 475.23 C 468.50 477.09 464.97 479.48 460.88 480.18 C 451.47 479.95 442.16 478.33 432.86 477.05 C 429.90 476.54 426.55 476.05 424.47 473.66 C 423.85 471.25 424.36 468.74 424.58 466.31 C 430.16 465.48 435.93 466.08 441.38 464.37 C 441.12 460.32 444.13 457.29 445.72 453.83 C 449.72 446.73 451.82 438.82 453.32 430.86 C 451.73 428.80 450.79 426.37 450.24 423.86 C 448.78 419.45 445.67 415.69 445.05 411.01 C 444.73 409.46 443.98 408.08 443.34 406.67 Z" />
<path fill="#f5e5c1" opacity="1.00" d=" M 323.41 419.58 C 325.28 422.98 329.23 423.73 332.31 425.61 C 333.24 430.65 332.79 435.84 333.14 440.94 C 332.92 452.98 335.13 465.00 333.75 477.03 C 332.33 488.71 330.10 500.28 328.95 512.00 L 301.33 512.00 C 303.37 503.32 307.16 495.18 308.90 486.43 C 310.66 478.21 313.84 470.33 315.27 462.05 C 315.56 451.02 315.46 439.98 315.56 428.95 C 315.62 427.65 315.65 426.32 316.07 425.09 C 318.69 423.48 321.67 422.27 323.41 419.58 Z" />
<path fill="#f5e5c1" opacity="1.00" d=" M 267.36 453.20 C 266.55 444.16 265.89 435.02 266.58 425.96 C 268.02 434.80 268.22 443.97 271.54 452.40 C 275.24 454.54 278.99 456.95 283.23 457.82 C 291.74 455.99 300.88 452.47 305.71 444.77 C 307.36 442.33 308.54 439.61 309.64 436.89 C 309.57 444.14 309.68 451.39 309.60 458.64 C 306.72 460.48 303.66 462.00 300.63 463.57 C 297.41 465.18 294.88 468.55 290.94 468.34 C 284.93 468.48 280.38 463.98 275.03 461.98 C 271.26 460.56 267.62 457.47 267.36 453.20 Z" />
<path fill="#f5e5c1" opacity="1.00" d=" M 342.37 429.29 C 345.29 429.59 348.24 429.64 351.15 429.14 C 355.20 432.63 358.48 437.03 363.09 439.85 C 365.09 441.18 367.32 442.24 368.99 444.01 C 370.59 448.11 370.66 452.62 371.53 456.90 C 372.37 462.58 373.95 468.22 373.60 474.01 C 373.05 486.68 371.36 499.32 371.40 512.00 L 348.95 512.00 C 349.05 501.97 346.76 492.14 345.91 482.19 C 344.92 471.14 343.15 460.10 343.66 448.98 C 343.64 442.41 344.42 435.66 342.37 429.29 Z" />
<path fill="#f5e5c1" opacity="1.00" d=" M 381.06 444.32 C 385.80 448.17 390.70 451.82 395.52 455.58 C 402.32 460.88 410.25 464.40 417.53 468.96 C 418.28 472.33 417.93 476.57 421.05 478.85 C 425.09 482.17 429.57 485.55 435.00 485.88 C 442.67 486.63 450.35 487.32 458.00 488.21 C 463.48 489.12 467.91 485.20 472.45 482.85 C 472.69 492.68 474.41 502.43 476.59 512.00 L 380.53 512.00 C 381.54 496.34 384.07 480.75 383.06 465.02 C 382.41 458.11 383.18 451.02 381.06 444.32 Z" />
</svg>
