<?xml version="1.0" encoding="UTF-8" ?>
<!DOCTYPE svg PUBLIC "-//W3C//DTD SVG 1.1//EN" "http://www.w3.org/Graphics/SVG/1.1/DTD/svg11.dtd">
<svg width="512pt" height="512pt" viewBox="0 0 512 512" version="1.1" xmlns="http://www.w3.org/2000/svg">
<path fill="#3e3e3e" opacity="1.00" d=" M 0.00 0.00 L 512.00 0.00 L 512.00 89.00 C 493.80 95.05 475.49 100.78 457.23 106.64 C 454.69 107.54 451.84 108.89 450.93 111.65 C 450.08 114.47 449.95 117.56 450.73 120.42 C 453.95 131.15 461.17 140.41 469.97 147.20 C 472.41 149.53 475.86 148.14 478.57 147.15 C 481.69 146.11 484.56 144.32 486.76 141.86 C 491.53 136.57 496.62 131.57 501.26 126.15 C 504.74 122.10 508.89 118.63 512.00 114.26 L 512.00 512.00 L 0.00 512.00 L 0.00 138.92 C 13.65 148.99 27.79 158.42 41.09 168.97 C 57.70 181.60 74.32 194.21 90.77 207.04 C 94.10 209.61 97.31 213.80 102.06 212.68 C 109.65 210.27 115.49 204.08 119.26 197.26 C 121.12 192.51 121.59 186.68 118.78 182.20 C 106.29 161.32 93.85 140.42 81.37 119.54 C 78.90 115.53 75.77 111.99 72.82 108.34 C 61.76 94.72 50.63 81.15 39.59 67.51 C 34.90 61.51 29.88 55.61 23.58 51.24 C 16.50 46.71 7.14 47.58 0.00 51.50 L 0.00 0.00 Z" />
<path fill="#f5e5c1" opacity="1.00" d=" M 326.00 17.04 C 329.98 14.98 333.88 12.18 338.59 12.38 C 342.23 16.78 343.30 22.51 345.22 27.75 C 347.86 35.81 350.52 43.88 354.30 51.50 C 359.27 62.75 366.23 72.94 372.61 83.42 C 379.92 95.67 390.33 105.57 399.46 116.41 C 406.81 124.86 415.45 132.05 423.96 139.28 C 421.99 142.68 417.88 143.88 414.70 145.86 C 406.54 138.53 398.64 130.93 390.86 123.21 C 385.51 117.16 380.75 110.62 375.59 104.41 C 369.58 96.95 364.46 88.84 358.93 81.03 C 356.20 77.10 353.25 73.26 351.45 68.79 C 346.98 58.21 341.50 48.02 338.17 36.98 C 335.70 41.37 332.88 45.55 330.31 49.88 C 335.42 60.49 339.05 71.81 345.23 81.88 C 349.45 88.94 352.89 96.50 358.01 102.99 C 362.62 109.00 367.22 115.02 371.76 121.09 C 373.92 123.95 375.91 127.00 378.66 129.35 C 387.38 136.74 395.72 144.59 404.57 151.83 C 404.48 152.12 404.28 152.69 404.19 152.98 C 402.75 153.81 401.34 154.66 399.94 155.54 C 393.56 150.11 387.39 144.44 381.04 138.97 C 377.58 135.41 373.24 132.71 370.32 128.63 C 364.50 120.85 358.61 113.12 352.73 105.38 C 347.83 99.02 344.48 91.66 340.37 84.80 C 334.73 75.67 331.09 65.51 326.86 55.69 C 324.96 58.22 323.30 60.92 321.76 63.68 C 315.26 75.17 308.06 86.27 302.29 98.15 C 298.68 105.66 294.05 112.74 291.77 120.82 C 289.19 129.31 286.25 137.70 283.68 146.20 C 281.67 153.85 280.01 161.58 278.18 169.28 C 276.86 174.41 277.52 179.75 277.45 184.99 C 277.36 194.04 278.60 203.03 278.74 212.08 C 279.39 218.40 279.12 224.84 280.63 231.06 C 282.69 241.06 284.53 251.11 286.59 261.12 C 287.25 264.27 288.60 267.21 289.88 270.15 C 294.18 279.82 297.76 289.83 302.99 299.07 C 307.37 306.93 310.57 315.60 316.75 322.31 C 321.70 327.95 325.62 334.70 331.99 338.92 C 338.55 343.43 344.43 349.06 351.83 352.20 C 360.15 355.75 368.38 359.49 376.70 363.06 C 380.86 364.96 385.47 365.30 389.92 366.07 C 397.28 366.77 404.51 368.88 411.95 368.60 C 419.46 368.45 426.89 367.11 434.43 367.28 C 432.97 360.35 430.12 353.81 428.94 346.82 C 427.84 339.68 426.20 332.63 425.34 325.46 C 424.80 312.00 424.15 298.47 425.41 285.03 C 425.94 277.05 426.53 269.07 427.06 261.08 C 427.28 255.21 429.72 249.77 430.41 243.98 C 431.13 238.55 431.77 233.04 433.57 227.84 C 434.85 224.01 437.66 220.92 438.89 217.07 C 442.10 207.91 445.19 198.72 448.52 189.61 C 439.92 183.19 430.36 178.10 422.15 171.18 C 423.86 170.27 425.56 169.33 427.24 168.34 C 435.61 174.16 444.22 179.63 452.61 185.43 C 453.01 185.38 453.81 185.27 454.21 185.21 C 456.83 183.69 459.64 182.52 462.43 181.33 C 462.43 180.97 462.43 180.25 462.43 179.89 C 453.65 174.55 445.46 168.31 436.75 162.85 C 439.65 160.89 442.58 159.00 445.54 157.16 C 452.86 161.05 459.34 166.30 466.36 170.71 C 470.98 173.98 475.89 176.91 480.22 180.59 C 482.51 182.27 481.30 185.34 480.49 187.51 C 477.01 196.03 473.42 204.51 470.00 213.05 C 463.96 231.23 460.19 250.07 457.20 268.96 C 455.24 278.83 455.22 288.94 454.40 298.94 C 454.37 314.66 456.08 330.33 457.73 345.95 C 459.60 356.03 462.43 365.92 464.41 375.98 C 465.11 378.62 462.81 380.50 461.20 382.20 C 455.27 387.84 449.41 393.54 443.65 399.35 C 430.45 399.34 417.32 400.97 404.15 401.22 C 395.88 399.71 387.36 401.51 379.08 399.97 C 370.89 399.24 362.43 399.99 354.54 397.26 C 351.44 396.11 348.30 395.10 345.23 393.88 C 339.44 391.84 333.25 390.51 328.21 386.82 C 320.93 381.74 313.20 377.29 306.05 372.04 C 293.78 356.78 277.97 344.33 268.06 327.20 C 264.12 319.35 259.99 311.60 255.96 303.80 C 253.41 299.06 252.58 293.68 251.27 288.52 C 248.13 276.02 244.67 263.60 241.96 251.00 C 240.60 239.73 238.73 228.44 239.29 217.05 C 239.07 200.98 240.41 184.97 241.23 168.94 C 240.93 162.88 243.63 157.33 245.70 151.81 C 249.82 141.02 253.91 130.22 258.02 119.43 C 261.38 109.95 266.90 101.47 271.28 92.46 C 276.35 83.16 280.56 73.34 286.76 64.71 C 295.34 51.96 303.91 39.21 312.49 26.46 C 315.50 21.56 321.19 19.64 326.00 17.04 Z" />
<path fill="#3e3e3e" opacity="1.00" d=" M 331.00 24.80 C 332.03 24.62 333.05 24.45 334.08 24.28 C 334.48 26.75 336.45 29.46 334.84 31.84 C 329.09 41.32 322.89 50.53 317.30 60.11 C 310.34 72.32 302.72 84.17 296.59 96.83 C 293.08 104.17 288.58 111.11 286.41 119.02 C 283.35 129.32 279.45 139.37 276.90 149.81 C 275.05 156.58 274.32 163.70 271.59 170.21 C 269.62 170.62 267.65 171.04 265.68 171.44 C 272.82 147.56 280.96 123.98 289.47 100.55 C 290.97 96.64 293.25 93.12 295.26 89.48 C 303.98 73.86 312.63 58.19 321.76 42.80 C 324.97 36.87 329.17 31.38 331.00 24.80 Z" />
<path fill="#f5e5c1" opacity="1.00" d=" M 0.00 51.50 C 7.14 47.58 16.50 46.71 23.58 51.24 C 29.88 55.61 34.90 61.51 39.59 67.51 C 50.63 81.15 61.76 94.72 72.82 108.34 C 75.77 111.99 78.90 115.53 81.37 119.54 C 93.85 140.42 106.29 161.32 118.78 182.20 C 121.59 186.68 121.12 192.51 119.26 197.26 C 115.49 204.08 109.65 210.27 102.06 212.68 C 97.31 213.80 94.10 209.61 90.77 207.04 C 74.32 194.21 57.70 181.60 41.09 168.97 C 27.79 158.42 13.65 148.99 0.00 138.92 L 0.00 79.74 C 4.38 81.88 8.92 76.24 7.54 72.05 C 6.91 68.35 3.25 66.74 0.00 65.96 L 0.00 51.50 Z" />
<path fill="#3e3e3e" opacity="1.00" d=" M 0.00 65.96 C 3.25 66.74 6.91 68.35 7.54 72.05 C 8.92 76.24 4.38 81.88 0.00 79.74 L 0.00 65.96 Z" />
<path fill="#3e3e3e" opacity="1.00" d=" M 28.37 85.42 C 29.22 85.47 30.06 85.52 30.91 85.58 C 35.80 91.82 41.72 97.17 46.44 103.55 C 55.04 114.60 63.89 125.47 72.40 136.60 C 79.97 147.78 87.33 159.09 94.86 170.29 C 94.27 170.34 93.09 170.45 92.50 170.50 C 82.03 156.78 70.92 143.52 59.03 130.99 C 53.40 124.59 48.17 117.84 42.06 111.89 C 36.98 106.97 32.44 101.55 27.50 96.51 C 26.14 94.96 24.36 93.23 24.69 90.97 C 25.43 88.84 27.00 87.16 28.37 85.42 Z" />
<path fill="#f5e5c1" opacity="1.00" d=" M 457.23 106.64 C 475.49 100.78 493.80 95.05 512.00 89.00 L 512.00 114.26 C 508.89 118.63 504.74 122.10 501.26 126.15 C 496.62 131.57 491.53 136.57 486.76 141.86 C 484.56 144.32 481.69 146.11 478.57 147.15 C 475.86 148.14 472.41 149.53 469.97 147.20 C 461.17 140.41 453.95 131.15 450.73 120.42 C 449.95 117.56 450.08 114.47 450.93 111.65 C 451.84 108.89 454.69 107.54 457.23 106.64 Z" />
<path fill="#f5e5c1" opacity="1.00" d=" M 363.31 186.38 C 391.77 168.41 420.19 150.39 448.73 132.55 C 450.71 136.49 453.95 139.62 455.79 143.64 C 452.01 145.44 448.50 147.72 444.95 149.92 C 405.17 174.18 365.23 198.20 325.42 222.41 C 323.72 223.95 321.56 222.70 319.65 222.43 C 318.08 220.27 316.96 217.83 317.34 215.10 C 332.90 205.93 347.94 195.87 363.31 186.38 Z" />
<path fill="#3e3e3e" opacity="1.00" d=" M 261.97 178.11 C 263.35 177.80 264.75 177.58 266.16 177.39 C 265.97 193.97 267.32 210.49 268.47 227.01 C 268.50 234.14 269.87 241.14 271.58 248.03 C 274.11 258.14 275.32 268.72 279.96 278.17 C 285.11 289.77 289.02 302.09 296.33 312.59 C 300.44 319.16 304.68 325.64 308.86 332.17 C 310.86 335.40 313.82 337.86 316.76 340.21 C 323.58 346.05 330.32 352.01 337.22 357.77 C 339.38 359.66 341.91 361.03 344.49 362.24 C 351.86 365.54 359.13 369.04 366.43 372.48 C 374.88 377.17 384.73 377.68 393.85 380.39 C 402.98 383.24 412.83 383.44 422.15 381.39 C 428.37 380.08 434.74 379.42 440.88 377.71 C 444.52 377.64 448.33 377.98 451.61 379.69 C 453.04 380.88 452.40 383.12 451.56 384.50 C 449.96 387.04 447.98 389.40 445.62 391.28 C 433.46 392.62 421.22 392.77 409.02 393.45 C 402.63 393.98 396.33 392.63 389.98 392.16 C 381.71 391.09 373.37 390.57 365.11 389.35 C 359.88 388.19 355.09 385.66 349.99 384.07 C 346.40 382.59 342.76 381.27 339.14 379.87 C 337.68 379.37 336.22 378.86 334.76 378.37 C 327.27 373.97 320.43 368.55 313.20 363.75 C 311.94 362.93 310.48 362.49 309.08 362.03 C 300.89 353.83 293.53 344.86 285.53 336.48 C 282.68 333.22 279.51 330.12 277.59 326.18 C 273.04 317.12 268.43 308.09 263.79 299.09 C 261.64 295.14 261.06 290.64 259.92 286.36 C 257.03 275.29 254.47 264.13 251.59 253.05 C 248.60 242.96 249.08 232.31 248.25 221.92 C 247.55 214.99 247.55 208.02 246.85 201.09 C 246.46 194.64 245.60 187.98 247.74 181.72 C 252.50 180.61 257.27 179.48 261.97 178.11 Z" />
<path fill="#f5e5c1" opacity="1.00" d=" M 212.20 193.07 C 218.42 188.43 224.91 184.15 230.94 179.25 C 230.56 190.16 229.45 201.04 229.61 211.97 C 229.72 219.34 228.95 226.79 230.19 234.10 C 230.58 238.21 231.67 242.66 229.59 246.51 C 225.84 254.77 222.37 263.15 218.47 271.34 C 221.31 274.43 224.33 277.36 227.25 280.37 C 229.09 276.75 230.82 273.07 232.75 269.49 C 233.63 269.39 235.39 269.19 236.28 269.09 C 237.01 272.07 238.09 275.00 238.37 278.08 C 237.53 281.32 235.84 284.25 234.40 287.25 C 236.47 290.24 238.94 292.92 241.43 295.57 C 244.48 298.50 244.60 303.00 246.54 306.57 C 248.94 311.23 251.43 315.86 253.84 320.53 C 253.36 320.51 252.42 320.46 251.95 320.44 C 244.52 312.02 236.97 303.71 229.48 295.36 C 229.06 295.39 228.23 295.44 227.81 295.47 C 217.87 304.31 207.64 312.82 197.52 321.46 C 195.39 322.95 195.30 325.69 194.77 328.00 C 194.05 332.34 192.85 336.60 192.28 340.97 C 191.60 343.40 193.82 345.06 195.10 346.80 C 200.66 352.95 205.91 359.39 211.51 365.52 C 213.62 368.01 217.16 368.02 220.09 368.86 C 223.24 369.75 226.35 370.77 229.52 371.59 C 232.22 372.34 234.63 370.45 236.94 369.35 C 248.16 363.03 260.07 357.94 270.92 350.98 C 272.03 350.52 273.28 350.55 274.47 350.37 C 276.28 352.26 278.26 353.99 279.98 355.98 C 270.57 360.34 261.61 365.61 252.34 370.25 C 247.38 372.97 242.18 375.29 237.46 378.44 C 232.54 378.10 227.92 376.28 223.26 374.84 C 218.83 373.57 214.38 372.37 209.95 371.09 C 207.77 370.42 205.58 369.79 203.36 369.27 C 197.41 362.98 191.99 356.21 186.08 349.89 C 184.70 348.23 182.95 346.27 183.82 343.94 C 185.71 335.94 187.67 327.96 189.77 320.01 C 200.57 310.12 211.06 299.90 221.56 289.70 C 221.43 288.76 221.86 287.66 221.16 286.89 C 218.98 284.07 216.51 281.43 213.75 279.16 C 211.02 279.45 208.99 281.54 206.72 282.87 C 172.82 304.85 138.88 326.77 104.96 348.72 C 93.78 355.83 82.85 363.36 71.48 370.16 C 71.97 374.10 72.97 377.94 73.94 381.78 C 106.13 363.11 138.04 343.95 170.15 325.12 C 174.35 322.69 178.37 319.96 182.79 317.93 C 181.93 321.05 181.08 324.17 180.31 327.31 C 178.73 328.51 177.12 329.68 175.40 330.69 C 143.58 349.38 111.88 368.27 80.04 386.94 C 78.70 387.51 79.18 389.28 80.47 389.60 C 93.37 398.04 106.44 406.24 119.34 414.68 C 121.96 416.29 124.35 418.42 127.32 419.36 C 131.10 419.86 134.89 420.33 138.70 420.50 C 161.36 408.48 184.23 396.85 206.90 384.84 C 209.17 383.83 211.36 382.00 214.00 382.38 C 217.64 382.83 221.14 384.05 224.71 384.89 C 197.13 399.16 169.72 413.76 142.19 428.13 C 141.21 428.56 140.25 429.01 139.30 429.49 C 137.89 429.28 136.49 429.05 135.09 428.80 C 130.46 428.31 125.36 429.19 121.30 426.38 C 104.61 415.88 88.23 404.90 71.67 394.20 C 69.44 392.76 67.26 390.90 66.76 388.14 C 65.37 382.76 63.53 377.48 62.57 372.01 C 62.96 368.59 65.51 365.94 67.11 363.02 C 79.59 342.15 92.38 321.46 104.12 300.16 C 105.34 297.90 107.18 296.09 108.89 294.21 C 111.95 299.37 115.62 304.12 119.10 309.00 C 120.36 311.05 122.66 311.75 124.84 312.38 C 129.02 312.44 133.40 313.13 137.28 311.17 C 146.91 308.14 155.20 302.24 163.18 296.26 C 170.70 289.40 178.43 282.79 185.98 275.98 C 191.92 269.25 197.81 262.47 203.74 255.73 C 208.30 249.58 212.42 243.11 216.83 236.86 C 221.22 231.06 222.23 223.62 223.73 216.70 C 217.31 210.61 209.78 205.79 202.55 200.71 C 205.20 197.50 208.96 195.58 212.20 193.07 Z" />
<path fill="#3e3e3e" opacity="1.00" d=" M 455.80 200.85 C 458.10 195.34 459.75 189.53 462.80 184.35 C 465.14 184.54 468.75 183.30 469.83 186.19 C 471.11 188.17 470.04 190.55 469.40 192.56 C 466.06 201.22 462.41 209.77 459.38 218.54 C 456.59 228.85 453.86 239.17 451.32 249.55 C 448.50 266.89 446.75 284.40 446.29 301.97 C 445.36 310.33 446.63 318.69 446.77 327.06 C 447.65 334.28 446.91 341.71 448.96 348.78 C 450.89 356.48 452.62 364.23 454.69 371.91 C 451.25 371.66 447.89 370.91 444.50 370.32 C 442.59 363.97 441.19 357.48 439.56 351.05 C 437.14 341.83 437.88 332.23 436.93 322.83 C 435.85 311.23 436.60 299.58 437.38 287.98 C 437.50 276.55 439.60 265.28 440.84 253.95 C 442.30 243.06 446.03 232.66 448.45 221.98 C 450.01 214.65 453.15 207.82 455.80 200.85 Z" />
<path fill="#f5e5c1" opacity="1.00" d=" M 109.06 215.92 C 115.44 211.74 120.30 205.82 125.21 200.10 C 129.05 201.53 131.50 205.16 134.53 207.76 C 134.52 208.15 134.49 208.94 134.48 209.34 C 129.88 215.66 124.47 221.84 117.04 224.84 C 114.27 221.97 111.51 219.07 109.06 215.92 Z" />
<path fill="#f5e5c1" opacity="1.00" d=" M 307.31 201.39 C 308.70 201.46 310.11 201.46 311.49 201.73 C 313.43 203.00 314.82 204.90 316.42 206.55 C 316.46 206.93 316.53 207.68 316.57 208.06 C 315.27 209.13 312.57 209.86 313.24 212.07 C 314.10 216.21 315.19 220.36 316.87 224.26 C 319.64 226.94 323.39 228.27 326.88 229.74 C 328.70 228.26 330.59 226.88 332.49 225.50 C 332.91 225.51 333.74 225.52 334.16 225.53 C 334.49 226.11 335.14 227.26 335.47 227.84 C 335.46 229.91 335.55 232.01 335.28 234.08 C 334.74 236.86 332.39 238.67 330.54 240.61 C 324.96 239.95 320.36 236.45 315.47 234.00 C 312.90 232.58 309.79 231.28 308.78 228.27 C 307.30 224.35 306.28 220.27 304.87 216.33 C 303.93 213.37 302.66 210.22 303.45 207.08 C 304.25 204.91 305.92 203.20 307.31 201.39 Z" />
<path fill="#f5e5c1" opacity="1.00" d=" M 187.77 207.90 C 189.48 203.76 195.24 203.38 198.52 205.84 C 204.67 210.03 210.56 214.60 216.69 218.83 C 215.42 223.53 214.67 228.57 211.78 232.63 C 208.34 237.61 204.92 242.59 201.52 247.60 C 197.39 253.67 192.08 258.78 187.43 264.43 C 178.77 274.44 168.33 282.67 158.51 291.48 C 155.14 294.57 151.03 296.67 147.30 299.29 C 142.53 302.70 136.77 304.15 131.41 306.34 C 130.57 306.25 129.73 306.15 128.90 306.05 C 127.49 305.76 126.08 305.56 124.66 305.39 C 121.64 301.33 118.71 297.19 115.74 293.09 C 114.32 291.19 113.31 288.99 112.97 286.63 C 112.23 283.72 114.06 281.10 115.01 278.48 C 116.53 281.47 117.69 286.50 122.09 285.43 C 124.81 283.75 127.81 282.65 130.78 281.50 C 133.92 280.28 136.41 277.96 139.04 275.94 C 151.54 266.65 162.64 255.65 173.41 244.45 C 182.22 234.87 190.47 224.32 194.58 211.82 C 193.02 209.52 190.15 208.94 187.77 207.90 Z" />
<path fill="#f5e5c1" opacity="1.00" d=" M 168.66 210.81 C 170.76 210.11 172.83 209.32 174.95 208.68 C 179.27 210.57 183.68 212.23 188.09 213.91 C 184.88 222.63 179.11 230.06 173.08 237.00 C 167.78 242.06 163.35 247.97 157.73 252.70 C 154.53 255.51 151.54 258.55 148.51 261.54 C 144.51 265.58 139.69 268.65 135.34 272.29 C 131.38 275.53 126.78 278.39 121.57 278.90 C 119.48 274.68 117.85 270.25 115.98 265.93 C 114.60 262.71 117.38 259.87 118.77 257.19 C 120.16 260.46 121.37 263.97 123.93 266.55 C 127.10 266.74 128.83 263.60 131.29 262.14 C 144.73 253.30 157.01 242.65 167.42 230.37 C 169.95 226.85 172.40 223.27 174.99 219.79 C 176.25 218.50 175.68 216.68 175.55 215.11 C 173.18 213.80 170.86 212.40 168.66 210.81 Z" />
<path fill="#f5e5c1" opacity="1.00" d=" M 140.38 209.21 C 144.13 211.12 147.21 214.06 150.08 217.09 C 148.25 221.27 145.55 225.11 142.40 228.39 C 137.47 232.82 132.62 237.78 126.13 239.84 C 123.95 236.75 121.59 233.81 119.13 230.94 C 119.29 230.47 119.60 229.54 119.76 229.07 C 122.51 227.86 125.35 226.67 127.63 224.67 C 132.58 220.15 137.30 215.23 140.38 209.21 Z" />
<path fill="#f5e5c1" opacity="1.00" d=" M 152.99 210.59 C 154.66 210.48 156.34 210.41 158.01 210.38 C 161.34 212.97 164.87 215.33 168.66 217.21 C 168.66 217.93 168.63 218.67 168.58 219.40 C 164.15 227.68 157.06 233.96 150.53 240.54 C 142.89 247.60 134.53 253.77 125.96 259.65 C 124.10 255.42 121.70 251.46 119.78 247.27 C 118.77 245.46 120.19 243.64 120.81 241.98 C 122.52 244.12 124.01 247.27 127.29 246.63 C 130.78 242.75 136.13 241.45 139.78 237.79 C 144.18 233.53 149.04 229.59 152.14 224.20 C 153.90 221.07 157.25 218.25 156.51 214.30 C 154.96 213.45 153.52 212.37 152.99 210.59 Z" />
<path fill="#f5e5c1" opacity="1.00" d=" M 213.10 330.99 C 217.78 329.80 222.70 330.98 227.31 331.98 C 233.40 335.29 240.15 339.16 242.97 345.85 C 244.20 349.78 245.71 354.49 243.30 358.28 C 239.96 363.25 234.14 366.81 228.03 366.35 C 222.20 365.57 215.97 364.49 211.33 360.59 C 206.43 356.67 201.59 351.53 201.15 344.95 C 201.21 338.17 207.26 333.23 213.10 330.99 Z" />
<path fill="#3e3e3e" opacity="1.00" d=" M 209.56 342.49 C 212.19 340.25 215.80 340.57 219.02 340.62 C 220.02 340.99 221.02 341.35 222.04 341.69 C 224.04 342.79 226.04 343.88 228.10 344.87 C 231.33 347.75 234.78 350.82 236.16 355.06 C 236.97 357.43 235.89 359.80 235.23 362.05 C 234.66 362.40 233.53 363.08 232.97 363.42 C 224.20 364.79 215.64 360.55 209.63 354.41 C 206.85 351.22 206.06 345.46 209.56 342.49 Z" />
<path fill="#f5e5c1" opacity="1.00" d=" M 267.16 372.19 C 273.66 369.20 279.89 365.67 286.18 362.27 C 286.70 362.32 287.74 362.42 288.26 362.47 C 300.82 374.51 315.06 384.63 329.56 394.19 C 332.99 396.68 337.66 396.44 341.02 398.97 C 345.66 404.60 347.78 411.90 352.25 417.65 C 358.04 423.23 363.84 428.94 370.74 433.15 C 377.06 436.90 382.52 442.02 387.20 447.63 C 389.03 452.83 388.86 458.73 387.07 463.94 C 384.74 470.84 383.90 478.68 378.12 483.80 C 378.88 483.79 380.41 483.77 381.18 483.76 C 375.60 484.81 370.39 487.26 364.76 488.10 C 356.91 489.07 349.06 490.01 341.23 491.11 C 330.13 492.35 319.06 493.86 307.97 495.17 C 306.02 495.50 304.29 494.31 302.91 493.11 C 297.21 488.16 291.20 483.54 286.14 477.90 C 281.56 472.86 276.56 468.20 272.15 463.01 C 267.66 455.92 264.29 448.17 260.21 440.84 C 253.85 429.83 249.98 417.66 244.80 406.10 C 241.50 400.32 236.62 395.65 232.90 390.16 C 244.60 384.73 255.76 378.21 267.16 372.19 Z" />
<path fill="#3e3e3e" opacity="1.00" d=" M 334.53 406.29 C 334.88 406.37 335.59 406.54 335.94 406.62 C 338.14 411.08 340.56 415.43 342.98 419.78 C 345.76 424.88 350.69 428.21 354.91 432.02 C 362.26 439.59 372.63 443.42 379.44 451.64 C 379.77 455.69 379.50 459.77 378.15 463.63 C 372.26 458.84 364.96 455.85 359.92 450.04 C 356.70 446.58 353.86 442.77 350.46 439.48 C 344.65 433.90 341.67 426.25 337.46 419.53 C 334.83 415.62 335.37 410.73 334.53 406.29 Z" />
<path fill="#3e3e3e" opacity="1.00" d=" M 302.78 460.32 C 308.78 460.29 314.63 462.18 320.12 464.42 C 326.74 467.97 333.44 471.35 340.15 474.72 C 342.81 476.01 345.87 477.11 347.53 479.73 C 347.98 481.72 346.54 483.07 345.31 484.35 C 339.88 484.49 334.53 485.44 329.18 486.19 C 323.73 486.50 318.36 487.78 312.88 487.50 C 306.25 483.36 299.00 477.46 298.85 468.96 C 298.47 465.55 300.95 462.89 302.78 460.32 Z" />
</svg>
