<?xml version="1.0" encoding="UTF-8" ?>
<!DOCTYPE svg PUBLIC "-//W3C//DTD SVG 1.1//EN" "http://www.w3.org/Graphics/SVG/1.1/DTD/svg11.dtd">
<svg width="512pt" height="512pt" viewBox="0 0 512 512" version="1.1" xmlns="http://www.w3.org/2000/svg">
<path fill="#3e3e3e" opacity="1.00" d=" M 0.00 0.00 L 512.00 0.00 L 512.00 512.00 L 430.89 512.00 C 434.62 509.22 437.07 504.47 435.95 499.78 C 432.85 482.72 426.94 466.26 419.77 450.51 C 416.47 442.98 411.75 436.02 409.89 427.91 C 407.45 418.07 402.47 409.21 397.81 400.30 C 390.28 384.24 379.21 370.24 369.79 355.33 C 371.09 349.09 371.70 342.74 371.78 336.36 C 384.57 331.97 396.40 325.32 408.58 319.53 C 417.95 314.66 427.74 310.19 435.75 303.19 C 434.71 291.30 429.96 280.11 424.27 269.77 C 431.05 273.11 434.07 280.37 437.33 286.71 C 440.09 291.54 442.31 296.67 443.89 302.02 C 452.81 299.40 460.41 293.59 466.27 286.49 C 467.19 285.03 467.16 283.19 467.60 281.56 C 464.07 282.06 460.53 282.73 456.95 282.71 C 454.89 282.73 453.89 280.56 452.80 279.17 C 450.88 275.95 449.05 272.60 447.99 269.00 C 448.21 262.30 455.18 258.17 455.95 251.59 C 452.75 250.67 448.94 249.79 446.13 252.15 C 441.62 256.01 438.14 260.87 434.23 265.31 C 433.21 266.43 432.01 267.51 430.46 267.80 C 427.30 265.20 425.29 261.19 425.70 257.04 C 426.18 247.07 427.99 236.87 433.09 228.16 C 434.85 225.36 436.85 222.71 438.46 219.81 C 436.43 219.50 434.23 218.27 432.31 219.53 C 427.92 222.03 424.49 225.88 420.30 228.68 C 408.82 222.23 397.47 215.36 385.05 210.84 C 380.29 224.25 377.96 238.31 376.26 252.39 C 382.39 255.42 387.79 259.79 393.97 262.65 C 397.97 261.33 401.62 259.18 405.45 257.45 C 406.47 248.13 406.74 238.63 409.73 229.66 C 412.18 230.64 414.59 231.73 416.98 232.86 C 411.00 239.06 409.16 247.75 407.85 255.96 C 408.33 257.21 410.51 259.51 408.45 260.33 C 398.13 265.57 387.42 270.01 377.07 275.17 C 368.39 280.26 359.25 285.23 349.13 286.58 C 353.66 284.39 357.81 281.51 362.38 279.42 C 364.31 278.45 366.38 277.68 368.07 276.33 C 369.71 268.22 369.80 259.85 371.47 251.73 C 373.90 243.11 374.04 234.02 376.59 225.42 C 378.56 218.97 380.22 212.37 383.21 206.28 C 385.13 202.52 384.94 198.14 386.29 194.22 C 388.50 189.94 392.00 186.46 394.07 182.10 C 396.01 177.94 397.80 173.68 398.96 169.23 C 399.83 165.93 399.29 162.49 399.71 159.15 C 401.96 156.82 404.98 155.48 407.47 153.43 C 411.41 150.25 415.22 146.91 418.98 143.51 C 424.80 146.10 430.28 149.39 436.13 151.90 C 438.93 153.26 442.04 152.59 444.94 152.03 C 439.96 149.50 433.61 147.50 431.38 141.82 C 429.90 134.99 429.84 127.77 431.71 121.01 C 432.27 120.63 433.40 119.87 433.97 119.49 C 439.92 120.08 445.78 121.38 451.43 123.36 C 451.78 124.33 452.13 125.30 452.49 126.28 C 454.97 127.41 458.12 130.16 460.78 127.98 C 466.39 122.22 466.07 113.40 464.45 106.08 C 462.24 106.08 459.68 105.18 457.86 106.89 C 454.72 108.81 451.70 113.28 447.56 111.36 C 443.64 109.87 439.36 108.64 436.26 105.68 C 433.45 101.36 435.04 95.89 436.63 91.42 C 437.99 88.11 439.44 84.24 442.87 82.59 C 445.14 82.50 447.32 83.26 449.50 83.83 C 456.94 86.07 464.45 88.20 471.55 91.43 C 472.63 83.12 469.72 75.10 466.64 67.54 C 463.77 61.43 461.08 54.61 455.01 50.97 C 446.93 43.69 435.80 40.24 425.04 40.41 C 415.95 41.81 408.90 48.49 403.23 55.29 C 397.62 62.02 395.17 70.66 392.94 78.96 C 391.29 84.65 394.35 90.90 391.30 96.27 C 387.68 103.99 385.65 112.94 379.12 118.89 C 379.22 122.54 379.88 126.21 381.63 129.46 C 385.73 137.22 388.54 145.58 390.93 154.01 C 392.21 158.07 391.67 162.37 390.93 166.47 C 388.93 161.59 388.61 156.23 386.89 151.26 C 384.27 143.54 382.42 135.54 378.91 128.14 C 377.87 125.74 376.65 123.09 377.46 120.43 C 378.49 116.62 380.61 113.25 382.24 109.69 C 377.13 109.52 372.02 109.57 366.91 109.66 C 362.81 109.01 359.21 106.33 354.96 106.25 C 346.48 106.05 339.01 110.51 332.51 115.47 C 316.05 124.39 303.21 138.69 293.16 154.27 C 288.46 160.93 284.74 168.22 279.81 174.72 C 277.10 178.55 274.73 182.60 272.26 186.58 C 279.53 191.27 285.98 197.51 289.46 205.57 C 291.77 211.41 293.56 217.64 293.26 223.98 C 292.57 234.11 289.03 244.40 281.52 251.52 C 300.40 255.95 317.52 266.18 331.74 279.21 C 349.56 296.12 361.91 318.71 366.19 342.94 C 369.11 356.20 369.46 370.11 366.66 383.41 C 363.67 401.20 356.97 418.55 346.11 433.04 C 343.99 435.57 344.79 439.01 344.54 442.03 C 344.54 447.45 343.39 452.76 342.15 458.02 C 350.25 462.66 357.67 468.36 365.28 473.76 C 370.95 477.69 375.30 483.16 381.01 487.05 C 388.24 494.90 392.83 505.03 401.08 512.00 L 360.22 512.00 C 366.14 504.07 370.02 494.88 374.07 485.92 C 366.94 478.14 357.95 472.52 349.90 465.80 C 344.42 477.46 338.99 489.16 333.92 501.00 C 331.32 504.41 328.39 507.69 327.36 512.00 L 176.86 512.00 C 175.41 507.86 172.79 504.42 170.11 501.04 C 165.00 489.20 159.60 477.47 154.10 465.80 C 146.22 472.62 136.85 477.86 130.20 485.98 C 133.73 495.09 138.01 504.10 143.84 512.00 L 102.94 512.00 C 110.35 505.56 115.06 496.75 121.08 489.12 C 123.40 486.04 127.04 484.42 129.63 481.62 C 133.59 477.54 138.11 474.06 142.78 470.84 C 147.53 467.59 152.00 463.94 156.97 461.03 C 162.19 458.02 166.77 454.06 171.89 450.91 C 157.13 437.08 145.45 419.64 139.68 400.16 C 135.30 385.91 132.86 370.92 133.83 355.99 C 124.26 370.81 113.38 384.88 105.88 400.93 C 101.28 409.60 96.51 418.30 94.11 427.90 C 92.34 435.67 87.92 442.38 84.66 449.56 C 77.28 465.63 71.18 482.44 68.04 499.88 C 66.98 504.57 69.36 509.63 73.51 512.00 L 0.00 512.00 L 0.00 0.00 Z" />
<path fill="#f4722c" opacity="1.00" d=" M 304.39 5.68 C 310.71 12.06 318.29 16.99 324.69 23.28 C 329.24 27.50 334.52 30.88 338.94 35.23 C 338.69 37.70 336.82 39.59 335.62 41.66 C 332.24 46.39 329.89 51.75 326.64 56.56 C 322.25 62.96 318.92 69.99 314.51 76.38 C 311.41 82.19 307.79 87.67 304.31 93.25 C 301.03 99.84 296.42 105.63 293.14 112.22 C 292.04 113.95 291.24 116.13 289.31 117.10 C 286.08 110.86 283.39 104.34 280.01 98.17 C 278.50 106.38 275.40 114.16 273.25 122.20 C 271.25 132.05 267.21 141.36 265.18 151.20 C 263.88 156.25 262.28 161.23 260.66 166.19 C 260.58 160.40 261.82 154.71 262.33 148.96 C 263.32 142.64 263.05 136.22 263.88 129.89 C 264.74 122.62 265.73 115.36 266.47 108.08 C 266.93 94.97 268.96 81.98 270.26 68.94 C 270.45 62.96 270.50 56.91 272.17 51.11 C 278.04 61.43 282.56 72.48 287.84 83.11 C 289.27 75.08 291.42 67.20 293.11 59.22 C 294.39 49.49 297.21 40.06 299.13 30.46 C 300.24 22.07 302.57 13.92 304.39 5.68 Z" />
<path fill="#f4722c" opacity="1.00" d=" M 190.20 14.52 C 209.92 16.86 229.69 18.83 249.46 20.85 C 249.17 29.42 249.71 38.00 248.80 46.55 C 248.47 58.07 247.17 69.56 247.60 81.10 C 247.13 94.19 246.37 107.27 245.65 120.36 C 242.21 118.40 238.75 116.49 235.18 114.78 C 241.43 135.19 247.33 155.69 253.52 176.11 C 254.13 178.12 254.51 180.18 254.77 182.26 C 251.33 179.76 250.15 175.48 248.01 172.00 C 244.25 165.83 241.91 158.94 238.21 152.74 C 232.82 142.83 227.31 132.98 222.01 123.02 C 216.41 110.34 208.93 98.63 202.47 86.39 C 200.86 83.07 198.29 79.94 198.44 76.05 C 207.41 82.08 215.36 89.41 224.12 95.71 C 217.23 78.73 209.62 62.05 202.67 45.09 C 199.21 34.63 194.33 24.72 190.20 14.52 Z" />
<path fill="#f5e5c1" opacity="1.00" d=" M 56.49 45.57 C 63.79 42.24 71.75 39.85 79.86 40.47 C 89.43 42.62 96.60 49.91 102.40 57.39 C 106.73 63.54 108.79 70.87 110.86 78.00 C 111.90 81.90 111.64 85.96 111.24 89.93 C 110.74 93.83 113.43 97.09 114.61 100.62 C 117.03 107.21 119.78 113.93 124.78 119.01 C 125.06 122.86 123.88 126.64 122.10 130.01 C 118.07 137.60 115.43 145.84 113.06 154.06 C 111.73 158.07 112.37 162.32 112.99 166.39 C 114.93 163.27 114.75 159.46 115.77 156.02 C 117.71 148.98 120.06 142.07 122.23 135.10 C 123.43 130.96 126.02 127.31 126.79 123.05 C 126.89 118.12 123.48 114.12 121.82 109.68 C 127.19 109.53 132.56 109.51 137.92 109.69 C 140.99 108.67 143.85 107.00 147.09 106.49 C 151.09 105.64 155.07 106.98 158.88 108.04 C 165.06 109.86 169.49 114.86 175.15 117.69 C 195.43 129.62 208.66 149.87 220.51 169.56 C 224.55 174.99 228.19 180.69 231.70 186.46 C 222.81 192.04 215.00 200.17 212.45 210.63 C 207.69 224.62 211.87 240.63 221.69 251.42 C 182.78 260.36 150.28 291.99 139.23 330.23 C 136.68 337.94 135.70 346.04 134.06 353.96 C 132.38 348.25 132.57 342.26 132.23 336.38 C 121.42 332.60 111.22 327.36 101.01 322.21 C 92.26 318.09 83.64 313.66 75.39 308.61 C 72.53 306.67 69.46 304.78 67.37 301.97 C 66.68 296.59 69.21 291.47 71.67 286.86 C 73.38 283.60 78.09 282.29 77.96 278.13 C 74.15 277.64 71.57 280.80 69.31 283.34 C 65.23 288.95 63.54 295.83 62.51 302.57 C 52.31 300.42 43.63 293.88 37.25 285.86 C 36.09 284.13 37.17 282.11 37.44 280.30 C 40.52 281.84 44.37 283.51 47.67 281.70 C 50.31 279.24 52.03 275.99 54.24 273.17 C 55.79 271.35 56.56 268.63 55.37 266.43 C 53.17 262.81 49.94 259.83 48.24 255.91 C 47.23 252.58 50.99 249.86 54.01 251.33 C 59.03 253.41 62.58 257.88 66.50 261.50 C 69.48 264.10 71.33 269.08 75.99 268.73 C 77.54 269.09 78.37 267.40 78.35 266.11 C 78.58 262.72 78.59 259.31 79.20 255.97 C 77.76 248.80 76.24 241.57 73.04 234.95 C 70.83 229.77 67.77 224.97 66.04 219.59 C 67.88 219.35 69.89 218.26 71.62 219.46 C 76.12 222.07 79.65 226.01 83.95 228.92 C 88.51 225.67 93.15 222.51 98.28 220.22 C 105.17 217.06 111.70 213.03 118.99 210.82 C 123.68 224.25 126.05 238.29 127.74 252.38 C 121.28 255.73 115.37 260.05 108.99 263.52 C 103.09 261.40 97.78 257.95 91.98 255.61 C 88.79 254.85 85.65 256.51 82.53 256.99 C 82.69 258.21 81.52 260.36 83.08 260.89 C 98.45 266.86 114.12 272.11 129.25 278.68 C 132.21 279.92 135.02 281.56 138.15 282.36 C 143.92 283.13 149.08 286.22 154.95 286.55 C 148.39 283.38 142.29 279.32 135.73 276.13 C 134.74 268.44 133.89 260.73 132.89 253.05 C 130.03 243.86 130.10 234.04 127.25 224.83 C 125.25 218.60 123.76 212.15 120.79 206.28 C 118.90 202.76 118.93 198.68 118.06 194.88 C 115.59 189.80 111.24 185.82 109.18 180.50 C 106.03 173.73 103.61 166.47 104.34 158.90 C 97.35 154.49 91.12 149.07 85.04 143.50 C 79.99 145.87 75.03 148.42 70.07 150.97 C 66.91 152.55 62.74 153.90 59.65 151.45 C 64.88 149.46 71.11 146.88 72.89 141.03 C 73.85 134.43 74.28 127.56 72.29 121.10 C 71.74 120.70 70.65 119.91 70.10 119.51 C 64.11 120.06 58.20 121.34 52.55 123.40 C 52.30 124.09 51.81 125.47 51.57 126.16 C 49.14 127.38 46.50 129.82 43.65 128.36 C 37.69 122.77 37.83 113.69 39.53 106.28 C 41.16 106.06 42.80 105.82 44.44 105.59 C 47.61 107.67 50.20 110.94 53.97 111.94 C 58.79 110.69 63.86 109.03 67.72 105.75 C 70.99 100.43 68.43 93.93 66.23 88.69 C 64.84 85.92 62.78 81.74 59.00 82.69 C 50.04 85.10 40.97 87.49 32.58 91.52 C 32.14 87.67 32.08 83.72 33.11 79.96 C 35.36 71.66 38.62 63.59 43.25 56.32 C 44.25 54.69 45.63 53.35 47.23 52.32 C 50.44 50.23 53.02 47.26 56.49 45.57 Z" />
<path fill="#f5e5c1" opacity="1.00" d=" M 403.23 55.29 C 408.90 48.49 415.95 41.81 425.04 40.41 C 435.80 40.24 446.93 43.69 455.01 50.97 C 461.08 54.61 463.77 61.43 466.64 67.54 C 469.72 75.10 472.63 83.12 471.55 91.43 C 464.45 88.20 456.94 86.07 449.50 83.83 C 447.32 83.26 445.14 82.50 442.87 82.59 C 439.44 84.24 437.99 88.11 436.63 91.42 C 435.04 95.89 433.45 101.36 436.26 105.68 C 439.36 108.64 443.64 109.87 447.56 111.36 C 451.70 113.28 454.72 108.81 457.86 106.89 C 459.68 105.18 462.24 106.08 464.45 106.08 C 466.07 113.40 466.39 122.22 460.78 127.98 C 458.12 130.16 454.97 127.41 452.49 126.28 C 452.13 125.30 451.78 124.33 451.43 123.36 C 445.78 121.38 439.92 120.08 433.97 119.49 C 433.40 119.87 432.27 120.63 431.71 121.01 C 429.84 127.77 429.90 134.99 431.38 141.82 C 433.61 147.50 439.96 149.50 444.94 152.03 C 442.04 152.59 438.93 153.26 436.13 151.90 C 430.28 149.39 424.80 146.10 418.98 143.51 C 415.22 146.91 411.41 150.25 407.47 153.43 C 404.98 155.48 401.96 156.82 399.71 159.15 C 399.29 162.49 399.83 165.93 398.96 169.23 C 397.80 173.68 396.01 177.94 394.07 182.10 C 392.00 186.46 388.50 189.94 386.29 194.22 C 384.94 198.14 385.13 202.52 383.21 206.28 C 380.22 212.37 378.56 218.97 376.59 225.42 C 374.04 234.02 373.90 243.11 371.47 251.73 C 369.80 259.85 369.71 268.22 368.07 276.33 C 366.38 277.68 364.31 278.45 362.38 279.42 C 357.81 281.51 353.66 284.39 349.13 286.58 C 359.25 285.23 368.39 280.26 377.07 275.17 C 387.42 270.01 398.13 265.57 408.45 260.33 C 410.51 259.51 408.33 257.21 407.85 255.96 C 409.16 247.75 411.00 239.06 416.98 232.86 C 414.59 231.73 412.18 230.64 409.73 229.66 C 406.74 238.63 406.47 248.13 405.45 257.45 C 401.62 259.18 397.97 261.33 393.97 262.65 C 387.79 259.79 382.39 255.42 376.26 252.39 C 377.96 238.31 380.29 224.25 385.05 210.84 C 397.47 215.36 408.82 222.23 420.30 228.68 C 424.49 225.88 427.92 222.03 432.31 219.53 C 434.23 218.27 436.43 219.50 438.46 219.81 C 436.85 222.71 434.85 225.36 433.09 228.16 C 427.99 236.87 426.18 247.07 425.70 257.04 C 425.29 261.19 427.30 265.20 430.46 267.80 C 432.01 267.51 433.21 266.43 434.23 265.31 C 438.14 260.87 441.62 256.01 446.13 252.15 C 448.94 249.79 452.75 250.67 455.95 251.59 C 455.18 258.17 448.21 262.30 447.99 269.00 C 449.05 272.60 450.88 275.95 452.80 279.17 C 453.89 280.56 454.89 282.73 456.95 282.71 C 460.53 282.73 464.07 282.06 467.60 281.56 C 467.16 283.19 467.19 285.03 466.27 286.49 C 460.41 293.59 452.81 299.40 443.89 302.02 C 442.31 296.67 440.09 291.54 437.33 286.71 C 434.07 280.37 431.05 273.11 424.27 269.77 C 429.96 280.11 434.71 291.30 435.75 303.19 C 427.74 310.19 417.95 314.66 408.58 319.53 C 396.40 325.32 384.57 331.97 371.78 336.36 C 371.70 342.74 371.09 349.09 369.79 355.33 C 379.21 370.24 390.28 384.24 397.81 400.30 C 402.47 409.21 407.45 418.07 409.89 427.91 C 411.75 436.02 416.47 442.98 419.77 450.51 C 426.94 466.26 432.85 482.72 435.95 499.78 C 437.07 504.47 434.62 509.22 430.89 512.00 L 401.08 512.00 C 392.83 505.03 388.24 494.90 381.01 487.05 C 375.30 483.16 370.95 477.69 365.28 473.76 C 357.67 468.36 350.25 462.66 342.15 458.02 C 343.39 452.76 344.54 447.45 344.54 442.03 C 344.79 439.01 343.99 435.57 346.11 433.04 C 356.97 418.55 363.67 401.20 366.66 383.41 C 369.46 370.11 369.11 356.20 366.19 342.94 C 361.91 318.71 349.56 296.12 331.74 279.21 C 317.52 266.18 300.40 255.95 281.52 251.52 C 289.03 244.40 292.57 234.11 293.26 223.98 C 293.56 217.64 291.77 211.41 289.46 205.57 C 285.98 197.51 279.53 191.27 272.26 186.58 C 274.73 182.60 277.10 178.55 279.81 174.72 C 284.74 168.22 288.46 160.93 293.16 154.27 C 303.21 138.69 316.05 124.39 332.51 115.47 C 339.01 110.51 346.48 106.05 354.96 106.25 C 359.21 106.33 362.81 109.01 366.91 109.66 C 372.02 109.57 377.13 109.52 382.24 109.69 C 380.61 113.25 378.49 116.62 377.46 120.43 C 376.65 123.09 377.87 125.74 378.91 128.14 C 382.42 135.54 384.27 143.54 386.89 151.26 C 388.61 156.23 388.93 161.59 390.93 166.47 C 391.67 162.37 392.21 158.07 390.93 154.01 C 388.54 145.58 385.73 137.22 381.63 129.46 C 379.88 126.21 379.22 122.54 379.12 118.89 C 385.65 112.94 387.68 103.99 391.30 96.27 C 394.35 90.90 391.29 84.65 392.94 78.96 C 395.17 70.66 397.62 62.02 403.23 55.29 Z" />
<path fill="#f5e5c1" opacity="1.00" d=" M 53.74 140.74 C 55.07 139.92 56.57 139.46 58.08 139.10 C 51.19 143.62 45.86 150.60 37.66 152.92 C 42.06 147.74 47.97 144.19 53.74 140.74 Z" />
<path fill="#f5e5c1" opacity="1.00" d=" M 445.82 138.90 C 453.56 141.89 460.67 146.84 466.33 152.91 C 458.10 150.53 452.63 143.62 445.82 138.90 Z" />
<path fill="#3e3e3e" opacity="1.00" d=" M 138.51 167.12 C 139.78 162.20 143.35 158.45 145.82 154.13 C 140.63 164.45 135.90 176.40 139.26 188.03 C 134.93 181.79 136.67 173.90 138.51 167.12 Z" />
<path fill="#3e3e3e" opacity="1.00" d=" M 365.48 186.07 C 367.21 174.89 363.24 163.92 358.18 154.15 C 359.62 156.55 361.24 158.84 362.80 161.16 C 365.67 165.64 366.61 171.00 367.32 176.18 C 367.88 180.28 367.22 184.72 364.52 187.99 C 364.76 187.51 365.24 186.55 365.48 186.07 Z" />
<path fill="#3e3e3e" opacity="1.00" d=" M 104.44 159.46 C 108.15 158.02 110.45 162.43 111.74 165.22 C 112.63 167.80 109.43 167.35 107.86 167.63 C 105.99 165.25 104.76 162.48 104.44 159.46 Z" />
<path fill="#3e3e3e" opacity="1.00" d=" M 392.11 167.32 C 392.26 163.51 394.96 159.39 398.91 158.77 C 399.43 162.03 398.35 165.08 396.17 167.50 C 395.15 167.45 393.13 167.36 392.11 167.32 Z" />
<path fill="#f5e5c1" opacity="1.00" d=" M 245.18 195.21 C 259.04 191.42 274.66 200.26 278.84 213.95 C 283.31 226.57 277.24 241.29 265.76 247.85 C 265.72 244.76 265.72 241.67 265.69 238.59 C 268.26 235.75 270.72 232.65 271.73 228.89 C 274.17 221.07 271.49 211.95 265.07 206.83 C 257.99 200.75 246.71 200.54 239.35 206.24 C 233.55 210.53 230.33 217.97 231.23 225.14 C 231.64 230.69 234.85 235.55 238.84 239.25 C 238.85 242.26 238.84 245.28 238.78 248.29 C 229.70 243.28 223.28 233.50 223.43 222.98 C 223.11 210.14 232.66 198.00 245.18 195.21 Z" />
<path fill="#f4722c" opacity="1.00" d=" M 37.52 203.04 C 42.50 203.63 46.12 207.39 50.29 209.79 C 53.54 212.13 58.04 213.61 59.31 217.83 C 64.03 227.15 69.60 236.19 72.39 246.36 C 74.10 252.08 74.13 258.10 74.67 264.00 C 69.68 259.47 65.40 254.17 60.03 250.05 C 56.95 247.64 52.71 247.81 49.05 248.35 C 47.49 249.16 46.39 250.60 45.12 251.77 C 39.62 247.11 33.82 242.82 28.25 238.25 C 31.01 226.43 34.48 214.79 37.52 203.04 Z" />
<path fill="#f4722c" opacity="1.00" d=" M 459.03 206.14 C 461.86 203.77 465.46 202.75 469.05 202.24 C 476.12 216.37 483.18 230.51 490.24 244.66 C 491.39 246.94 492.17 249.37 492.88 251.83 C 488.43 247.09 483.93 242.26 480.25 236.90 C 475.67 226.21 471.52 215.32 467.21 204.51 C 466.67 204.42 465.59 204.24 465.05 204.15 C 468.86 216.33 474.83 227.75 478.64 239.93 C 472.36 243.10 466.26 246.59 459.99 249.78 C 455.51 245.81 448.85 245.38 443.50 247.64 C 438.67 251.34 436.25 257.24 431.67 261.21 C 431.49 256.70 429.83 252.04 431.39 247.62 C 432.99 242.83 434.69 238.07 436.24 233.27 C 437.88 227.73 441.53 223.14 444.14 218.07 C 448.66 213.60 454.03 210.06 459.03 206.14 Z" />
<path fill="#f4722c" opacity="1.00" d=" M 24.59 224.39 C 27.88 217.86 30.06 210.78 33.88 204.53 C 30.55 216.24 26.74 227.83 23.16 239.48 C 19.77 244.97 16.01 250.28 12.08 255.41 C 14.47 244.45 19.94 234.50 24.59 224.39 Z" />
<path fill="#f5e5c1" opacity="1.00" d=" M 239.95 215.60 C 248.05 215.54 256.14 215.58 264.24 215.58 C 264.24 216.52 264.23 218.40 264.23 219.34 C 256.14 219.32 248.04 219.35 239.95 219.31 C 239.95 218.38 239.95 216.53 239.95 215.60 Z" />
<path fill="#f5e5c1" opacity="1.00" d=" M 240.07 221.26 C 248.11 221.22 256.15 221.30 264.19 221.21 C 264.25 225.75 264.24 230.28 264.22 234.82 C 256.17 234.79 248.13 234.82 240.08 234.81 C 240.09 230.29 240.10 225.77 240.07 221.26 Z" />
<path fill="#3e3e3e" opacity="1.00" d=" M 84.21 233.29 C 86.61 231.62 89.02 229.95 91.42 228.26 C 94.58 236.69 96.30 245.74 95.65 254.75 C 92.50 247.29 89.99 239.24 84.21 233.29 Z" />
<path fill="#f5e5c1" opacity="1.00" d=" M 243.72 238.35 C 249.30 238.22 254.88 238.30 260.46 238.28 C 260.42 244.32 260.44 250.36 260.45 256.39 C 254.89 256.02 249.32 255.98 243.77 256.34 C 243.77 250.34 243.82 244.35 243.72 238.35 Z" />
<path fill="#f4722c" opacity="1.00" d=" M 25.18 240.32 C 27.09 240.68 28.94 241.35 30.40 242.67 C 34.70 246.21 39.16 249.55 43.43 253.13 C 44.46 259.23 50.23 263.15 51.77 268.90 C 49.08 271.75 47.27 275.22 45.01 278.38 C 43.41 278.72 41.93 277.75 40.46 277.31 C 37.53 276.02 34.10 275.67 31.70 273.38 C 25.62 268.12 19.45 262.96 13.37 257.71 C 17.32 251.92 21.47 246.27 25.18 240.32 Z" />
<path fill="#f4722c" opacity="1.00" d=" M 460.55 252.44 C 467.26 248.61 474.34 245.43 480.98 241.46 C 484.56 245.80 488.15 250.15 491.93 254.33 C 492.79 254.31 494.50 254.28 495.35 254.27 C 491.62 258.90 486.64 262.27 482.36 266.35 C 478.41 269.44 475.23 273.88 470.17 275.21 C 466.14 276.61 462.16 278.29 457.88 278.77 C 456.32 275.17 453.95 271.85 453.16 267.96 C 455.06 262.53 459.22 258.14 460.55 252.44 Z" />
<path fill="#3e3e3e" opacity="1.00" d=" M 152.62 258.01 C 153.50 264.48 157.11 270.08 158.50 276.42 C 159.42 280.59 162.41 284.48 161.28 288.91 C 158.50 287.21 157.78 283.90 156.67 281.09 C 153.90 273.69 154.21 265.66 152.62 258.01 Z" />
<path fill="#3e3e3e" opacity="1.00" d=" M 351.33 258.03 C 350.80 261.99 350.07 265.91 349.74 269.89 C 349.24 276.56 347.03 282.99 343.87 288.85 C 341.28 287.10 342.79 284.17 343.63 281.89 C 345.63 276.98 346.50 271.67 348.79 266.87 C 350.21 264.11 350.71 261.04 351.33 258.03 Z" />
<path fill="#f5e5c1" opacity="1.00" d=" M 230.90 262.24 C 253.61 257.76 277.81 260.99 298.43 271.55 C 322.73 283.74 341.75 305.94 350.12 331.80 C 354.75 346.60 357.02 362.49 354.46 377.91 C 352.85 390.73 348.72 403.18 342.61 414.56 C 342.16 415.42 341.61 416.22 340.92 416.91 C 338.39 410.45 335.37 404.14 331.06 398.65 C 337.69 382.44 339.70 364.31 336.16 347.11 C 332.60 329.00 322.97 312.18 309.19 299.90 C 296.17 288.13 279.48 280.50 262.06 278.37 C 243.07 275.94 223.29 279.96 206.86 289.80 C 189.68 299.90 176.22 316.14 169.54 334.91 C 162.05 355.52 162.91 378.84 171.42 399.01 C 168.63 401.76 163.78 404.97 165.65 409.53 C 168.29 413.99 172.10 417.60 175.26 421.68 C 178.29 425.18 181.12 430.45 186.62 429.40 C 186.21 434.88 186.07 440.38 185.95 445.87 C 165.87 429.76 152.04 406.03 148.21 380.54 C 147.54 375.39 146.80 370.23 146.62 365.03 C 147.15 344.43 152.80 323.72 164.46 306.59 C 179.50 283.71 204.03 267.40 230.90 262.24 Z" />
<path fill="#f5e5c1" opacity="1.00" d=" M 248.08 283.15 C 250.14 283.14 252.20 283.13 254.27 283.12 C 254.29 287.35 254.28 291.58 254.27 295.81 C 252.21 295.81 250.14 295.82 248.08 295.85 C 248.08 291.61 248.08 287.38 248.08 283.15 Z" />
<path fill="#f4722c" opacity="1.00" d=" M 262.00 285.39 C 264.19 285.74 266.38 286.10 268.57 286.49 C 267.02 298.83 265.76 311.21 264.38 323.57 C 264.21 326.62 262.14 329.00 260.53 331.43 C 255.61 338.52 251.00 345.82 245.98 352.83 C 251.01 330.28 256.85 307.92 262.00 285.39 Z" />
<path fill="#f5e5c1" opacity="1.00" d=" M 243.83 361.61 C 258.73 338.86 273.86 316.26 288.88 293.59 C 290.72 294.69 292.57 295.77 294.41 296.85 C 282.26 321.16 270.23 345.53 258.11 369.86 C 253.37 367.08 248.61 364.32 243.83 361.61 Z" />
<path fill="#f5e5c1" opacity="1.00" d=" M 191.35 309.09 C 192.84 307.62 194.33 306.15 195.82 304.68 C 198.91 307.87 202.07 311.00 205.27 314.08 C 203.81 315.60 202.35 317.12 200.90 318.65 C 197.74 315.45 194.56 312.25 191.35 309.09 Z" />
<path fill="#f5e5c1" opacity="1.00" d=" M 306.61 304.74 C 308.12 306.18 309.62 307.63 311.13 309.07 C 308.30 311.91 305.43 314.73 302.64 317.62 C 301.13 316.14 299.62 314.67 298.11 313.21 C 301.01 310.45 303.84 307.63 306.61 304.74 Z" />
<path fill="#f5e5c1" opacity="1.00" d=" M 225.83 361.99 C 226.53 351.39 234.59 342.25 244.68 339.36 C 244.25 341.94 243.79 344.52 243.31 347.10 C 238.41 349.78 234.35 354.28 233.24 359.87 C 231.15 368.28 236.11 377.66 244.15 380.81 C 251.61 384.08 261.02 381.46 265.81 374.90 C 269.72 369.84 270.45 362.88 268.23 356.95 C 269.55 354.58 270.90 352.23 272.29 349.90 C 277.35 357.61 278.20 368.29 273.30 376.26 C 269.21 377.84 264.82 378.66 260.96 380.85 C 256.27 382.98 252.28 386.27 248.02 389.10 C 234.86 388.25 224.43 374.98 225.83 361.99 Z" />
<path fill="#f5e5c1" opacity="1.00" d=" M 133.83 355.99 C 132.86 370.92 135.30 385.91 139.68 400.16 C 145.45 419.64 157.13 437.08 171.89 450.91 C 166.77 454.06 162.19 458.02 156.97 461.03 C 152.00 463.94 147.53 467.59 142.78 470.84 C 138.11 474.06 133.59 477.54 129.63 481.62 C 127.04 484.42 123.40 486.04 121.08 489.12 C 115.06 496.75 110.35 505.56 102.94 512.00 L 73.51 512.00 C 69.36 509.63 66.98 504.57 68.04 499.88 C 71.18 482.44 77.28 465.63 84.66 449.56 C 87.92 442.38 92.34 435.67 94.11 427.90 C 96.51 418.30 101.28 409.60 105.88 400.93 C 113.38 384.88 124.26 370.81 133.83 355.99 Z" />
<path fill="#f5e5c1" opacity="1.00" d=" M 170.35 361.36 C 174.66 361.37 178.97 361.35 183.27 361.41 C 183.25 363.46 183.24 365.52 183.24 367.58 C 178.94 367.61 174.65 367.60 170.35 367.60 C 170.36 365.52 170.36 363.44 170.35 361.36 Z" />
<path fill="#f5e5c1" opacity="1.00" d=" M 321.16 361.36 C 325.20 361.38 329.24 361.38 333.29 361.36 C 333.29 363.44 333.29 365.52 333.30 367.61 C 329.26 367.59 325.22 367.59 321.19 367.61 C 321.18 365.53 321.17 363.44 321.16 361.36 Z" />
<path fill="#f4722c" opacity="1.00" d=" M 277.39 380.71 C 290.76 378.48 304.87 382.11 315.66 390.28 C 329.48 400.50 338.07 417.00 339.42 434.06 C 340.88 450.45 335.87 467.54 324.95 479.98 C 315.34 491.23 300.95 498.63 286.03 498.54 C 274.77 498.91 263.56 495.06 254.59 488.32 C 239.51 477.28 230.76 458.58 230.96 440.00 C 230.67 427.88 234.20 415.79 240.65 405.56 C 248.82 392.77 262.25 383.06 277.39 380.71 Z" />
<path fill="#f4722c" opacity="1.00" d=" M 170.10 407.35 C 178.88 398.87 187.36 390.07 196.20 381.65 C 205.40 382.12 214.59 382.85 223.79 383.37 C 222.34 421.77 220.42 460.16 218.94 498.56 C 208.94 498.15 198.94 497.59 188.95 497.03 C 190.03 470.41 190.91 443.78 191.99 417.15 C 189.43 419.71 186.88 422.26 184.30 424.78 C 179.67 418.89 174.42 413.46 170.10 407.35 Z" />
<path fill="#3e3e3e" opacity="1.00" d=" M 280.47 416.62 C 288.82 414.69 297.78 418.16 303.35 424.52 C 313.82 436.70 313.99 456.92 302.84 468.75 C 297.54 474.36 289.65 478.13 281.83 476.77 C 274.14 475.35 267.43 470.09 263.69 463.29 C 259.33 455.72 258.90 446.49 260.55 438.08 C 262.68 428.08 270.14 418.75 280.47 416.62 Z" />
<path fill="#f5e5c1" opacity="1.00" d=" M 264.64 450.23 C 278.76 447.98 292.19 442.18 303.67 433.68 C 306.00 439.85 307.13 446.94 305.29 453.31 C 295.88 459.59 284.97 463.56 273.97 466.11 C 271.84 467.05 270.75 464.75 269.63 463.42 C 266.76 459.59 265.26 454.94 264.64 450.23 Z" />
<path fill="#f5e5c1" opacity="1.00" d=" M 226.34 447.57 C 227.35 454.15 228.88 460.66 231.45 466.83 C 229.39 466.35 227.34 465.88 225.29 465.40 C 225.65 459.46 225.64 453.49 226.34 447.57 Z" />
<path fill="#f5e5c1" opacity="1.00" d=" M 130.20 485.98 C 136.85 477.86 146.22 472.62 154.10 465.80 C 159.60 477.47 165.00 489.20 170.11 501.04 C 172.79 504.42 175.41 507.86 176.86 512.00 L 143.84 512.00 C 138.01 504.10 133.73 495.09 130.20 485.98 Z" />
<path fill="#f5e5c1" opacity="1.00" d=" M 333.92 501.00 C 338.99 489.16 344.42 477.46 349.90 465.80 C 357.95 472.52 366.94 478.14 374.07 485.92 C 370.02 494.88 366.14 504.07 360.22 512.00 L 327.36 512.00 C 328.39 507.69 331.32 504.41 333.92 501.00 Z" />
</svg>
