<?xml version="1.0" encoding="UTF-8" ?>
<!DOCTYPE svg PUBLIC "-//W3C//DTD SVG 1.1//EN" "http://www.w3.org/Graphics/SVG/1.1/DTD/svg11.dtd">
<svg width="512pt" height="512pt" viewBox="0 0 512 512" version="1.1" xmlns="http://www.w3.org/2000/svg">
<path fill="#3e3e3e" opacity="1.00" d=" M 0.00 0.00 L 141.55 0.00 C 144.63 8.06 148.79 15.65 152.04 23.65 C 153.13 26.15 154.11 29.02 156.54 30.54 C 158.53 31.66 160.80 32.09 162.98 32.69 C 163.95 35.39 162.01 37.05 160.01 38.44 C 163.31 47.26 167.69 55.64 171.57 64.21 C 172.47 66.02 170.44 67.26 169.48 68.49 C 164.56 73.26 160.35 78.79 154.75 82.82 C 152.06 84.76 149.53 87.61 149.41 91.08 C 149.89 94.53 151.37 97.74 152.37 101.06 C 153.44 104.00 154.08 107.32 156.43 109.57 C 158.88 112.08 161.84 113.99 164.67 116.03 C 162.86 119.51 160.44 122.95 160.27 127.00 C 159.77 129.92 162.88 131.48 164.40 133.53 C 164.34 134.79 164.29 136.06 164.24 137.34 C 173.81 145.09 183.31 152.94 193.03 160.51 C 204.85 157.98 216.47 154.60 228.36 152.40 C 239.78 149.09 251.47 146.85 263.01 144.01 C 273.06 141.35 283.22 139.12 293.33 136.69 C 294.68 133.36 297.29 130.84 300.86 130.07 C 301.84 127.74 302.83 124.25 306.01 124.42 C 309.90 124.27 311.53 128.69 311.68 131.91 C 312.25 134.62 310.30 136.71 308.72 138.62 C 309.50 143.92 310.50 150.30 307.03 154.87 C 303.45 158.63 298.59 155.11 295.49 152.57 C 295.10 155.43 295.68 159.12 293.07 161.09 C 291.56 161.71 289.88 161.59 288.29 161.80 C 287.38 159.82 286.52 157.82 285.71 155.80 C 260.80 161.44 236.04 167.70 211.15 173.45 C 216.66 177.23 221.76 181.64 227.69 184.80 C 233.45 188.33 239.71 191.10 244.90 195.49 C 242.70 210.96 240.89 226.47 238.83 241.95 C 238.36 246.98 238.48 252.04 237.97 257.07 C 237.07 265.00 237.68 273.02 236.81 280.95 C 236.71 282.92 236.27 284.94 236.71 286.90 C 238.87 288.85 241.58 290.02 244.06 291.51 C 246.19 291.90 248.32 292.32 250.45 292.72 C 250.59 299.73 249.07 306.67 249.86 313.69 C 248.13 325.75 248.95 337.96 247.68 350.05 C 247.28 356.78 248.93 363.39 249.50 370.06 C 249.80 374.07 249.04 378.14 249.99 382.10 C 250.83 385.25 248.98 388.15 248.01 391.03 C 244.06 401.22 244.91 412.34 243.76 423.02 C 243.61 430.43 241.50 437.57 240.51 444.87 C 239.33 450.63 240.05 456.95 236.67 462.08 C 237.03 462.63 237.74 463.74 238.10 464.29 C 242.23 464.41 246.41 463.97 250.50 464.69 C 254.18 468.57 252.13 474.50 252.58 479.30 C 243.30 483.47 234.21 488.75 227.43 496.47 C 223.06 501.21 215.59 502.20 212.20 507.94 L 212.30 509.34 C 219.97 509.10 227.41 506.82 235.07 506.42 C 239.80 506.25 243.36 502.74 247.16 500.38 C 251.88 497.50 256.28 493.44 262.01 492.86 C 264.84 492.47 267.69 492.40 270.54 492.28 C 271.37 482.85 269.02 473.37 270.40 464.02 C 273.96 463.42 277.35 462.12 280.49 460.36 C 279.09 452.30 279.72 444.09 278.78 435.99 C 278.65 417.33 278.81 398.67 278.70 380.01 C 278.57 376.28 279.83 372.75 280.90 369.25 C 287.01 346.08 291.36 322.50 297.72 299.40 C 299.60 299.80 301.52 300.12 303.34 300.77 C 304.62 301.90 305.06 303.65 305.69 305.18 C 308.29 312.97 311.59 320.49 314.28 328.24 C 317.25 336.87 321.21 345.15 323.56 353.98 C 326.78 365.21 329.82 376.50 333.49 387.59 C 334.81 391.50 336.52 395.32 337.01 399.46 C 337.52 405.17 340.68 410.21 341.25 415.92 C 343.40 430.97 345.90 445.96 348.00 461.01 C 349.25 467.85 349.47 474.86 351.26 481.60 C 356.28 480.96 361.31 480.44 366.37 480.19 C 368.83 485.32 366.35 490.61 365.94 495.83 C 367.81 501.25 369.26 506.91 371.99 512.00 L 0.00 512.00 L 0.00 220.09 C 98.63 196.51 197.33 173.17 295.99 149.69 C 297.38 149.30 298.75 148.78 299.93 147.93 C 300.03 144.92 299.12 142.00 298.36 139.12 C 273.86 144.57 249.54 150.82 225.11 156.59 C 150.08 174.74 75.01 192.74 0.00 210.98 L 0.00 0.00 Z" />
<path fill="#f5e5c1" opacity="1.00" d=" M 141.55 0.00 L 158.31 0.00 C 161.58 6.73 164.73 13.54 167.68 20.42 C 169.65 24.47 167.26 28.86 167.30 33.06 C 169.24 32.70 171.16 32.27 173.07 31.75 C 177.21 40.57 181.06 49.53 185.63 58.15 C 189.64 67.62 194.47 76.71 198.57 86.13 C 197.44 87.82 196.31 89.50 195.18 91.17 C 196.85 94.79 198.44 98.45 199.96 102.14 C 199.19 102.97 198.42 103.80 197.66 104.63 C 197.71 105.84 197.76 107.04 197.82 108.25 C 198.40 108.32 199.57 108.47 200.15 108.54 C 208.51 120.14 219.11 129.80 228.85 140.19 C 230.52 142.08 232.85 143.15 235.14 144.10 C 236.88 132.27 240.69 120.85 242.47 109.05 C 243.36 103.77 240.53 96.45 245.99 93.00 C 255.21 87.44 264.92 82.73 274.05 77.01 C 275.80 73.11 277.72 69.28 280.01 65.68 C 279.46 63.08 278.81 60.51 278.18 57.93 C 272.98 56.37 270.31 51.31 268.18 46.73 C 266.91 44.23 268.90 41.60 268.65 39.00 C 268.13 34.64 265.95 30.50 266.32 26.03 C 267.17 22.46 268.88 19.17 270.08 15.72 C 275.31 13.58 280.51 11.25 285.98 9.80 C 291.66 9.56 297.10 11.90 302.38 13.74 C 306.70 15.23 307.95 20.11 309.63 23.83 C 310.98 27.56 314.19 30.73 313.73 34.96 C 313.58 42.11 316.24 48.93 316.44 56.05 C 316.46 59.67 318.95 62.56 319.80 65.96 C 319.41 67.25 318.61 68.36 317.97 69.52 C 318.75 71.15 318.84 73.70 321.03 74.04 C 335.85 78.42 352.51 76.46 366.05 84.97 C 369.99 87.30 370.42 92.30 371.89 96.20 C 373.33 101.02 375.13 105.74 376.38 110.62 C 378.56 119.60 382.26 128.12 384.47 137.09 C 388.78 149.89 392.06 163.01 395.53 176.05 C 396.40 179.05 398.16 181.68 399.65 184.40 C 402.90 190.17 404.38 196.69 406.32 202.97 C 407.78 208.57 409.95 214.11 409.71 219.98 C 409.54 253.70 409.85 287.43 409.60 321.15 C 407.77 324.12 406.55 327.46 404.46 330.27 C 401.77 331.45 398.79 331.53 395.92 331.77 C 394.38 333.02 392.84 334.28 391.33 335.55 C 389.40 335.54 387.48 335.53 385.55 335.52 C 385.05 334.02 384.50 332.53 384.20 330.97 C 386.66 328.69 389.66 327.09 392.42 325.21 C 392.60 324.00 392.78 322.79 392.96 321.58 C 390.42 322.34 387.90 323.17 385.36 323.95 C 385.47 319.26 386.44 314.64 386.49 309.96 C 386.60 306.33 384.91 302.79 385.69 299.17 C 386.73 295.31 388.73 291.81 390.30 288.16 C 389.40 287.56 388.50 286.97 387.61 286.37 C 387.56 285.68 387.48 284.31 387.43 283.62 C 387.02 283.15 386.20 282.22 385.79 281.75 C 384.79 281.64 383.80 281.54 382.82 281.43 C 380.05 267.76 377.15 254.11 374.45 240.43 C 372.69 231.13 372.68 221.56 370.32 212.38 C 367.67 202.08 364.38 191.95 362.06 181.57 C 361.58 181.48 360.63 181.30 360.15 181.21 C 360.19 186.55 360.84 191.86 361.78 197.11 C 363.85 208.73 365.26 220.45 367.31 232.08 C 368.99 244.69 371.65 257.16 373.12 269.81 C 373.97 278.58 377.24 287.06 376.60 295.97 C 371.12 297.16 365.70 298.60 360.23 299.81 C 359.99 312.55 361.20 325.26 360.58 338.00 C 361.47 347.63 361.08 357.29 360.86 366.94 C 360.79 372.31 361.56 377.67 361.15 383.05 C 360.84 388.15 359.56 393.53 361.60 398.45 C 363.35 402.66 364.97 406.93 366.70 411.15 C 371.47 421.89 373.83 433.46 377.65 444.53 C 380.39 453.77 383.80 462.85 385.74 472.31 C 383.49 474.39 381.86 477.01 380.64 479.81 C 381.65 483.09 382.21 486.55 383.73 489.66 C 385.22 491.90 387.68 493.25 389.75 494.90 C 389.74 495.62 389.71 497.07 389.70 497.79 C 391.77 502.30 392.88 507.16 393.93 511.99 L 392.94 512.00 L 371.99 512.00 C 369.26 506.91 367.81 501.25 365.94 495.83 C 366.35 490.61 368.83 485.32 366.37 480.19 C 361.31 480.44 356.28 480.96 351.26 481.60 C 349.47 474.86 349.25 467.85 348.00 461.01 C 345.90 445.96 343.40 430.97 341.25 415.92 C 340.68 410.21 337.52 405.17 337.01 399.46 C 336.52 395.32 334.81 391.50 333.49 387.59 C 329.82 376.50 326.78 365.21 323.56 353.98 C 321.21 345.15 317.25 336.87 314.28 328.24 C 311.59 320.49 308.29 312.97 305.69 305.18 C 305.06 303.65 304.62 301.90 303.34 300.77 C 301.52 300.12 299.60 299.80 297.72 299.40 C 291.36 322.50 287.01 346.08 280.90 369.25 C 279.83 372.75 278.57 376.28 278.70 380.01 C 278.81 398.67 278.65 417.33 278.78 435.99 C 279.72 444.09 279.09 452.30 280.49 460.36 C 277.35 462.12 273.96 463.42 270.40 464.02 C 269.02 473.37 271.37 482.85 270.54 492.28 C 267.69 492.40 264.84 492.47 262.01 492.86 C 256.28 493.44 251.88 497.50 247.16 500.38 C 243.36 502.74 239.80 506.25 235.07 506.42 C 227.41 506.82 219.97 509.10 212.30 509.34 L 212.20 507.94 C 215.59 502.20 223.06 501.21 227.43 496.47 C 234.21 488.75 243.30 483.47 252.58 479.30 C 252.13 474.50 254.18 468.57 250.50 464.69 C 246.41 463.97 242.23 464.41 238.10 464.29 C 237.74 463.74 237.03 462.63 236.67 462.08 C 240.05 456.95 239.33 450.63 240.51 444.87 C 241.50 437.57 243.61 430.43 243.76 423.02 C 244.91 412.34 244.06 401.22 248.01 391.03 C 248.98 388.15 250.83 385.25 249.99 382.10 C 249.04 378.14 249.80 374.07 249.50 370.06 C 248.93 363.39 247.28 356.78 247.68 350.05 C 248.95 337.96 248.13 325.75 249.86 313.69 C 249.07 306.67 250.59 299.73 250.45 292.72 C 248.32 292.32 246.19 291.90 244.06 291.51 C 241.58 290.02 238.87 288.85 236.71 286.90 C 236.27 284.94 236.71 282.92 236.81 280.95 C 237.68 273.02 237.07 265.00 237.97 257.07 C 238.48 252.04 238.36 246.98 238.83 241.95 C 240.89 226.47 242.70 210.96 244.90 195.49 C 239.71 191.10 233.45 188.33 227.69 184.80 C 221.76 181.64 216.66 177.23 211.15 173.45 C 236.04 167.70 260.80 161.44 285.71 155.80 C 286.52 157.82 287.38 159.82 288.29 161.80 C 289.88 161.59 291.56 161.71 293.07 161.09 C 295.68 159.12 295.10 155.43 295.49 152.57 C 298.59 155.11 303.45 158.63 307.03 154.87 C 310.50 150.30 309.50 143.92 308.72 138.62 C 310.30 136.71 312.25 134.62 311.68 131.91 C 311.53 128.69 309.90 124.27 306.01 124.42 C 302.83 124.25 301.84 127.74 300.86 130.07 C 297.29 130.84 294.68 133.36 293.33 136.69 C 283.22 139.12 273.06 141.35 263.01 144.01 C 251.47 146.85 239.78 149.09 228.36 152.40 C 216.47 154.60 204.85 157.98 193.03 160.51 C 183.31 152.94 173.81 145.09 164.24 137.34 C 164.29 136.06 164.34 134.79 164.40 133.53 C 162.88 131.48 159.77 129.92 160.27 127.00 C 160.44 122.95 162.86 119.51 164.67 116.03 C 161.84 113.99 158.88 112.08 156.43 109.57 C 154.08 107.32 153.44 104.00 152.37 101.06 C 151.37 97.74 149.89 94.53 149.41 91.08 C 149.53 87.61 152.06 84.76 154.75 82.82 C 160.35 78.79 164.56 73.26 169.48 68.49 C 170.44 67.26 172.47 66.02 171.57 64.21 C 167.69 55.64 163.31 47.26 160.01 38.44 C 162.01 37.05 163.95 35.39 162.98 32.69 C 160.80 32.09 158.53 31.66 156.54 30.54 C 154.11 29.02 153.13 26.15 152.04 23.65 C 148.79 15.65 144.63 8.06 141.55 0.00 Z" />
<path fill="#3e3e3e" opacity="1.00" d=" M 158.31 0.00 L 309.18 0.00 C 313.88 11.22 317.23 22.98 322.17 34.11 C 326.25 43.51 328.33 53.62 332.32 63.04 C 333.32 65.50 334.21 67.99 335.08 70.49 C 335.90 70.64 336.73 70.78 337.56 70.93 C 334.74 64.67 331.66 58.49 329.94 51.82 C 327.55 42.69 323.33 34.20 320.21 25.33 C 317.16 16.86 313.72 8.54 310.89 0.00 L 344.17 0.00 C 344.58 9.03 345.69 18.01 346.35 27.02 C 346.84 35.48 348.61 43.81 350.96 51.93 C 352.96 59.07 353.86 66.44 354.78 73.78 C 356.03 74.40 357.26 75.01 358.52 75.62 C 356.27 62.55 354.23 49.26 348.86 37.01 C 346.81 32.98 347.68 28.36 347.54 24.02 C 347.46 16.00 346.33 8.03 346.28 0.00 L 356.09 0.00 C 357.16 12.32 362.13 24.07 361.82 36.52 C 362.98 36.53 364.15 36.53 365.32 36.54 C 365.60 24.24 362.49 12.18 361.18 0.00 L 374.39 0.00 C 374.47 8.67 375.81 17.28 375.39 25.96 C 375.68 34.02 374.05 42.01 374.58 50.06 C 375.13 56.70 374.56 63.38 375.46 70.00 C 376.41 73.66 372.23 76.59 373.63 80.15 C 376.83 81.83 380.20 83.33 383.70 84.25 C 385.33 83.50 386.95 81.89 386.62 79.94 C 385.84 77.46 384.04 75.48 382.76 73.26 C 380.18 69.37 380.23 64.53 379.76 60.05 C 377.28 42.89 381.13 25.44 378.20 8.30 C 379.41 9.75 380.35 11.64 382.10 12.50 C 385.59 13.30 389.74 11.85 391.42 8.56 C 392.67 5.23 389.98 2.39 388.08 0.00 L 453.68 0.00 C 451.02 16.92 443.96 32.64 439.34 49.04 C 437.43 56.35 434.34 63.28 432.32 70.56 C 431.09 74.92 431.30 79.59 429.76 83.87 C 426.72 88.44 421.36 91.06 418.69 95.96 C 418.07 98.70 419.39 101.39 420.03 104.01 C 421.61 108.56 421.36 113.48 422.82 118.06 C 423.45 116.60 424.09 115.14 424.73 113.69 C 427.24 113.23 430.98 112.95 431.58 109.85 C 432.00 104.52 430.54 98.97 432.73 93.87 C 435.43 83.72 437.70 73.43 441.39 63.57 C 444.22 56.17 446.10 48.46 448.67 40.97 C 452.83 27.44 458.55 14.22 459.98 0.00 L 512.00 0.00 L 512.00 302.36 C 507.16 296.78 503.97 290.06 499.79 284.03 C 495.48 277.85 492.16 271.07 487.98 264.81 C 482.49 256.33 477.79 247.39 473.26 238.38 C 468.94 229.14 465.38 219.27 458.53 211.52 C 455.33 207.40 451.84 203.53 448.14 199.87 C 443.99 195.84 443.81 189.30 439.56 185.39 C 436.18 182.94 431.28 184.43 429.52 188.15 C 427.18 189.07 424.13 189.28 422.65 191.56 C 421.58 195.04 422.28 199.42 425.42 201.63 C 427.09 203.17 429.31 201.78 431.20 201.51 C 432.19 207.26 437.77 210.48 443.04 211.44 C 447.17 211.00 447.74 206.55 447.85 203.22 C 452.06 208.28 456.56 213.09 461.58 217.36 C 467.56 223.60 469.85 232.25 473.51 239.88 C 477.25 247.36 480.48 255.12 485.13 262.11 C 490.31 270.05 494.50 278.58 499.83 286.42 C 504.04 292.61 507.30 299.41 512.00 305.27 L 512.00 512.00 L 392.94 512.00 L 393.93 511.99 C 392.88 507.16 391.77 502.30 389.70 497.79 C 389.71 497.07 389.74 495.62 389.75 494.90 C 387.68 493.25 385.22 491.90 383.73 489.66 C 382.21 486.55 381.65 483.09 380.64 479.81 C 381.86 477.01 383.49 474.39 385.74 472.31 C 383.80 462.85 380.39 453.77 377.65 444.53 C 373.83 433.46 371.47 421.89 366.70 411.15 C 364.97 406.93 363.35 402.66 361.60 398.45 C 359.56 393.53 360.84 388.15 361.15 383.05 C 361.56 377.67 360.79 372.31 360.86 366.94 C 361.08 357.29 361.47 347.63 360.58 338.00 C 361.20 325.26 359.99 312.55 360.23 299.81 C 365.70 298.60 371.12 297.16 376.60 295.97 C 377.24 287.06 373.97 278.58 373.12 269.81 C 371.65 257.16 368.99 244.69 367.31 232.08 C 365.26 220.45 363.85 208.73 361.78 197.11 C 360.84 191.86 360.19 186.55 360.15 181.21 C 360.63 181.30 361.58 181.48 362.06 181.57 C 364.38 191.95 367.67 202.08 370.32 212.38 C 372.68 221.56 372.69 231.13 374.45 240.43 C 377.15 254.11 380.05 267.76 382.82 281.43 C 383.80 281.54 384.79 281.64 385.79 281.75 C 386.20 282.22 387.02 283.15 387.43 283.62 C 387.48 284.31 387.56 285.68 387.61 286.37 C 388.50 286.97 389.40 287.56 390.30 288.16 C 388.73 291.81 386.73 295.31 385.69 299.17 C 384.91 302.79 386.60 306.33 386.49 309.96 C 386.44 314.64 385.47 319.26 385.36 323.95 C 387.90 323.17 390.42 322.34 392.96 321.58 C 392.78 322.79 392.60 324.00 392.42 325.21 C 389.66 327.09 386.66 328.69 384.20 330.97 C 384.50 332.53 385.05 334.02 385.55 335.52 C 387.48 335.53 389.40 335.54 391.33 335.55 C 392.84 334.28 394.38 333.02 395.92 331.77 C 398.79 331.53 401.77 331.45 404.46 330.27 C 406.55 327.46 407.77 324.12 409.60 321.15 C 409.85 287.43 409.54 253.70 409.71 219.98 C 409.95 214.11 407.78 208.57 406.32 202.97 C 404.38 196.69 402.90 190.17 399.65 184.40 C 398.16 181.68 396.40 179.05 395.53 176.05 C 392.06 163.01 388.78 149.89 384.47 137.09 C 382.26 128.12 378.56 119.60 376.38 110.62 C 375.13 105.74 373.33 101.02 371.89 96.20 C 370.42 92.30 369.99 87.30 366.05 84.97 C 352.51 76.46 335.85 78.42 321.03 74.04 C 318.84 73.70 318.75 71.15 317.97 69.52 C 318.61 68.36 319.41 67.25 319.80 65.96 C 318.95 62.56 316.46 59.67 316.44 56.05 C 316.24 48.93 313.58 42.11 313.73 34.96 C 314.19 30.73 310.98 27.56 309.63 23.83 C 307.95 20.11 306.70 15.23 302.38 13.74 C 297.10 11.90 291.66 9.56 285.98 9.80 C 280.51 11.25 275.31 13.58 270.08 15.72 C 268.88 19.17 267.17 22.46 266.32 26.03 C 265.95 30.50 268.13 34.64 268.65 39.00 C 268.90 41.60 266.91 44.23 268.18 46.73 C 270.31 51.31 272.98 56.37 278.18 57.93 C 278.81 60.51 279.46 63.08 280.01 65.68 C 277.72 69.28 275.80 73.11 274.05 77.01 C 264.92 82.73 255.21 87.44 245.99 93.00 C 240.53 96.45 243.36 103.77 242.47 109.05 C 240.69 120.85 236.88 132.27 235.14 144.10 C 232.85 143.15 230.52 142.08 228.85 140.19 C 219.11 129.80 208.51 120.14 200.15 108.54 C 199.57 108.47 198.40 108.32 197.82 108.25 C 197.76 107.04 197.71 105.84 197.66 104.63 C 198.42 103.80 199.19 102.97 199.96 102.14 C 198.44 98.45 196.85 94.79 195.18 91.17 C 196.31 89.50 197.44 87.82 198.57 86.13 C 194.47 76.71 189.64 67.62 185.63 58.15 C 181.06 49.53 177.21 40.57 173.07 31.75 C 171.16 32.27 169.24 32.70 167.30 33.06 C 167.26 28.86 169.65 24.47 167.68 20.42 C 164.73 13.54 161.58 6.73 158.31 0.00 Z" />
<path fill="#f4722b" opacity="1.00" d=" M 309.18 0.00 L 310.89 0.00 C 313.72 8.54 317.16 16.86 320.21 25.33 C 323.33 34.20 327.55 42.69 329.94 51.82 C 331.66 58.49 334.74 64.67 337.56 70.93 C 336.73 70.78 335.90 70.64 335.08 70.49 C 334.21 67.99 333.32 65.50 332.32 63.04 C 328.33 53.62 326.25 43.51 322.17 34.11 C 317.23 22.98 313.88 11.22 309.18 0.00 Z" />
<path fill="#f4722b" opacity="1.00" d=" M 344.17 0.00 L 346.28 0.00 C 346.33 8.03 347.46 16.00 347.54 24.02 C 347.68 28.36 346.81 32.98 348.86 37.01 C 354.23 49.26 356.27 62.55 358.52 75.62 C 357.26 75.01 356.03 74.40 354.78 73.78 C 353.86 66.44 352.96 59.07 350.96 51.93 C 348.61 43.81 346.84 35.48 346.35 27.02 C 345.69 18.01 344.58 9.03 344.17 0.00 Z" />
<path fill="#f4722b" opacity="1.00" d=" M 356.09 0.00 L 361.18 0.00 C 362.49 12.18 365.60 24.24 365.32 36.54 C 364.15 36.53 362.98 36.53 361.82 36.52 C 362.13 24.07 357.16 12.32 356.09 0.00 Z" />
<path fill="#f4722b" opacity="1.00" d=" M 374.39 0.00 L 388.08 0.00 C 389.98 2.39 392.67 5.23 391.42 8.56 C 389.74 11.85 385.59 13.30 382.10 12.50 C 380.35 11.64 379.41 9.75 378.20 8.30 C 381.13 25.44 377.28 42.89 379.76 60.05 C 380.23 64.53 380.18 69.37 382.76 73.26 C 384.04 75.48 385.84 77.46 386.62 79.94 C 386.95 81.89 385.33 83.50 383.70 84.25 C 380.20 83.33 376.83 81.83 373.63 80.15 C 372.23 76.59 376.41 73.66 375.46 70.00 C 374.56 63.38 375.13 56.70 374.58 50.06 C 374.05 42.01 375.68 34.02 375.39 25.96 C 375.81 17.28 374.47 8.67 374.39 0.00 Z" />
<path fill="#f4722b" opacity="1.00" d=" M 453.68 0.00 L 459.98 0.00 C 458.55 14.22 452.83 27.44 448.67 40.97 C 446.10 48.46 444.22 56.17 441.39 63.57 C 437.70 73.43 435.43 83.72 432.73 93.87 C 430.54 98.97 432.00 104.52 431.58 109.85 C 430.98 112.95 427.24 113.23 424.73 113.69 C 424.09 115.14 423.45 116.60 422.82 118.06 C 421.36 113.48 421.61 108.56 420.03 104.01 C 419.39 101.39 418.07 98.70 418.69 95.96 C 421.36 91.06 426.72 88.44 429.76 83.87 C 431.30 79.59 431.09 74.92 432.32 70.56 C 434.34 63.28 437.43 56.35 439.34 49.04 C 443.96 32.64 451.02 16.92 453.68 0.00 Z" />
<path fill="#f4722b" opacity="1.00" d=" M 325.48 27.53 C 327.12 27.70 329.38 26.95 330.31 28.83 C 332.17 32.70 330.42 37.08 330.28 41.13 C 328.22 39.99 326.87 38.06 325.51 36.23 C 325.40 33.33 325.32 30.43 325.48 27.53 Z" />
<path fill="#f4722b" opacity="1.00" d=" M 417.41 31.93 C 417.41 29.39 420.29 27.24 422.69 28.40 C 425.74 31.34 428.28 35.06 428.86 39.35 C 424.07 43.16 416.25 37.69 417.41 31.93 Z" />
<path fill="#f4722b" opacity="1.00" d=" M 379.86 33.30 C 380.73 33.10 382.47 32.71 383.33 32.51 C 384.37 33.16 385.45 33.77 386.46 34.48 C 386.64 36.01 386.55 37.56 386.51 39.10 C 385.91 39.48 384.70 40.23 384.10 40.60 C 383.04 40.67 380.91 40.80 379.84 40.86 C 379.83 38.34 379.86 35.82 379.86 33.30 Z" />
<path fill="#f4722b" opacity="1.00" d=" M 366.31 48.06 C 365.94 43.74 368.43 40.07 370.00 36.25 C 371.43 39.84 373.36 43.28 374.09 47.11 C 374.74 50.38 374.04 53.70 374.17 57.00 C 374.10 60.40 374.91 64.28 372.24 66.96 C 370.32 66.03 367.88 65.26 367.29 62.92 C 365.87 58.12 366.49 53.00 366.31 48.06 Z" />
<path fill="#f4722b" opacity="1.00" d=" M 360.60 56.38 C 360.17 53.22 361.76 49.72 365.54 50.17 C 365.58 52.13 366.87 54.57 365.15 56.14 C 363.72 56.74 362.10 56.31 360.60 56.38 Z" />
<path fill="#f4722b" opacity="1.00" d=" M 400.49 78.44 C 402.14 75.50 407.06 75.68 408.40 78.83 C 409.99 82.35 410.48 86.26 411.19 90.03 C 411.84 92.91 409.99 95.45 409.49 98.18 C 409.69 100.47 410.96 102.72 410.30 105.04 C 408.66 108.83 402.45 111.27 399.86 107.05 C 397.65 102.23 395.56 97.15 395.29 91.79 C 396.34 90.80 397.41 89.82 398.49 88.84 C 398.20 85.27 398.39 81.49 400.49 78.44 Z" />
<path fill="#f4722b" opacity="1.00" d=" M 379.23 98.41 C 381.54 101.37 382.90 104.89 384.62 108.19 C 385.30 108.24 386.65 108.35 387.32 108.40 C 389.81 112.08 390.50 116.61 390.70 120.96 C 390.62 123.29 388.86 124.98 387.15 126.33 C 384.75 116.94 380.58 108.06 379.23 98.41 Z" />
<path fill="#3e3e3e" opacity="1.00" d=" M 296.47 100.54 C 300.27 98.69 304.82 103.12 303.06 106.95 C 301.99 110.62 296.21 110.99 294.55 107.63 C 292.78 105.28 293.84 101.71 296.47 100.54 Z" />
<path fill="#3e3e3e" opacity="1.00" d=" M 322.32 107.39 C 326.45 104.94 331.37 109.66 330.60 113.96 C 330.79 117.73 326.30 120.76 323.00 118.72 C 318.89 116.63 317.98 109.69 322.32 107.39 Z" />
<path fill="#3e3e3e" opacity="1.00" d=" M 279.23 111.24 C 284.05 108.85 288.31 114.50 287.69 119.00 C 288.26 122.76 284.57 126.17 280.88 125.25 C 275.00 123.59 273.39 113.95 279.23 111.24 Z" />
<path fill="#3e3e3e" opacity="1.00" d=" M 294.35 113.51 C 295.88 113.15 297.54 113.30 298.97 113.97 C 299.93 115.81 299.92 118.12 299.00 119.97 C 297.17 120.94 294.87 120.90 293.03 120.00 C 292.03 118.01 291.63 114.17 294.35 113.51 Z" />
<path fill="#f4722b" opacity="1.00" d=" M 436.94 120.10 C 437.28 117.96 440.05 116.41 441.50 118.60 C 443.88 121.91 444.88 126.07 445.59 130.04 C 446.29 133.25 443.98 136.27 441.05 137.34 C 439.58 137.15 438.17 136.68 436.75 136.29 C 436.24 134.59 435.48 132.86 436.06 131.07 C 436.83 127.46 436.23 123.71 436.94 120.10 Z" />
<path fill="#f4722b" opacity="1.00" d=" M 404.80 129.40 C 405.76 127.47 406.46 124.60 409.04 124.40 C 411.17 123.91 413.06 125.08 414.78 126.16 C 416.25 126.25 417.73 126.35 419.21 126.45 C 419.38 129.02 420.16 131.47 420.57 134.00 C 420.38 136.01 419.12 137.95 419.79 139.99 C 421.75 147.51 425.16 155.08 423.83 163.03 C 423.76 166.04 421.95 168.74 419.45 170.31 C 416.97 171.03 413.92 170.94 411.97 169.02 C 408.44 166.16 407.46 161.51 405.69 157.56 C 402.92 151.38 400.98 144.81 397.38 139.04 C 396.00 134.47 397.48 130.01 399.92 126.11 C 401.60 127.11 403.19 128.27 404.80 129.40 Z" />
<path fill="#3e3e3e" opacity="1.00" d=" M 315.39 134.35 C 318.50 131.91 322.82 134.59 323.57 138.07 C 325.19 141.27 323.92 146.25 319.94 146.72 C 313.55 147.62 311.21 137.96 315.39 134.35 Z" />
<path fill="#f4722b" opacity="1.00" d=" M 225.11 156.59 C 249.54 150.82 273.86 144.57 298.36 139.12 C 299.12 142.00 300.03 144.92 299.93 147.93 C 298.75 148.78 297.38 149.30 295.99 149.69 C 197.33 173.17 98.63 196.51 0.00 220.09 L 0.00 210.98 C 75.01 192.74 150.08 174.74 225.11 156.59 Z" />
<path fill="#f4722b" opacity="1.00" d=" M 423.81 144.63 C 424.24 144.61 425.11 144.58 425.54 144.57 C 425.58 145.65 425.64 146.73 425.69 147.82 C 424.47 147.71 423.26 147.60 422.06 147.49 C 422.49 146.78 423.37 145.35 423.81 144.63 Z" />
<path fill="#f4722b" opacity="1.00" d=" M 442.48 154.02 C 443.86 154.37 445.57 154.23 446.52 155.51 C 448.71 158.10 451.03 160.76 452.17 164.01 C 451.98 165.48 451.56 166.91 451.21 168.35 C 449.59 168.42 447.94 168.74 446.34 168.42 C 441.77 165.23 440.55 159.08 442.48 154.02 Z" />
<path fill="#f4722b" opacity="1.00" d=" M 424.18 162.18 C 426.32 162.33 428.78 162.17 430.38 163.91 C 431.80 167.31 426.40 170.62 424.49 167.10 C 424.30 165.47 424.20 163.82 424.18 162.18 Z" />
<path fill="#3e3e3e" opacity="1.00" d=" M 294.28 172.01 C 293.34 169.04 295.74 165.40 298.96 165.61 C 302.35 165.68 304.64 169.54 303.57 172.66 C 303.13 174.90 300.76 175.64 299.01 176.61 C 297.11 175.49 294.64 174.47 294.28 172.01 Z" />
<path fill="#3e3e3e" opacity="1.00" d=" M 317.40 169.52 C 320.07 168.61 323.19 170.25 323.77 173.05 C 324.70 176.46 324.71 181.47 320.98 183.21 C 317.65 184.43 314.84 181.16 314.58 178.10 C 314.04 175.10 313.79 170.67 317.40 169.52 Z" />
<path fill="#f4722b" opacity="1.00" d=" M 429.52 188.15 C 431.28 184.43 436.18 182.94 439.56 185.39 C 443.81 189.30 443.99 195.84 448.14 199.87 C 451.84 203.53 455.33 207.40 458.53 211.52 C 465.38 219.27 468.94 229.14 473.26 238.38 C 477.79 247.39 482.49 256.33 487.98 264.81 C 492.16 271.07 495.48 277.85 499.79 284.03 C 503.97 290.06 507.16 296.78 512.00 302.36 L 512.00 305.27 C 507.30 299.41 504.04 292.61 499.83 286.42 C 494.50 278.58 490.31 270.05 485.13 262.11 C 480.48 255.12 477.25 247.36 473.51 239.88 C 469.85 232.25 467.56 223.60 461.58 217.36 C 456.56 213.09 452.06 208.28 447.85 203.22 C 447.74 206.55 447.17 211.00 443.04 211.44 C 437.77 210.48 432.19 207.26 431.20 201.51 C 429.31 201.78 427.09 203.17 425.42 201.63 C 422.28 199.42 421.58 195.04 422.65 191.56 C 424.13 189.28 427.18 189.07 429.52 188.15 Z" />
<path fill="#f4722b" opacity="1.00" d=" M 457.49 198.97 C 456.76 193.99 461.07 190.84 463.92 187.50 C 464.74 187.49 466.38 187.45 467.20 187.44 C 471.70 194.06 473.08 202.65 470.23 210.20 C 468.74 212.69 464.79 213.59 462.90 211.05 C 460.24 207.53 458.55 203.23 457.49 198.97 Z" />
<path fill="#f4722b" opacity="1.00" d=" M 412.46 201.73 C 413.24 200.11 415.16 200.50 416.62 200.20 C 418.07 202.08 420.85 204.37 418.96 206.90 C 417.89 208.88 415.54 208.59 413.65 208.70 C 413.15 206.40 412.46 204.11 412.46 201.73 Z" />
<path fill="#f4722b" opacity="1.00" d=" M 413.76 209.01 C 417.43 210.03 418.75 213.92 420.20 217.00 C 422.47 221.49 421.96 227.45 426.69 230.41 L 425.18 230.31 C 424.26 233.71 425.72 236.87 427.35 239.78 C 426.74 237.62 425.94 235.51 425.27 233.37 C 426.11 232.46 426.97 231.56 427.83 230.66 C 430.46 230.20 433.62 228.73 435.78 231.09 C 439.38 235.07 440.42 240.61 441.74 245.65 C 442.96 245.55 444.18 245.46 445.41 245.37 C 446.95 246.90 448.57 248.63 448.50 250.97 C 448.43 256.26 453.74 261.06 450.27 266.25 C 448.66 266.68 447.06 267.13 445.46 267.58 C 445.52 268.85 445.58 270.12 445.65 271.39 C 444.47 272.28 443.29 273.17 442.11 274.05 C 442.30 279.75 445.45 284.61 447.12 289.91 C 448.30 293.48 449.85 296.92 451.74 300.17 C 456.78 308.81 459.72 318.46 464.55 327.21 C 473.16 342.61 479.88 358.98 488.44 374.41 C 489.04 375.65 489.40 376.98 489.81 378.31 C 486.00 371.76 481.74 365.45 478.79 358.44 C 473.04 346.86 467.39 335.23 461.25 323.85 C 457.14 316.39 454.91 308.03 450.34 300.81 C 445.11 292.84 443.09 283.34 439.35 274.69 C 436.43 271.02 433.12 266.62 434.54 261.62 C 434.79 258.99 437.33 257.95 439.17 256.52 C 438.00 256.42 436.84 256.33 435.68 256.23 C 435.35 257.90 435.01 259.60 433.96 260.98 C 432.21 262.18 429.67 261.26 427.61 261.61 C 424.34 257.74 422.69 252.93 421.00 248.24 C 419.69 248.78 418.38 249.33 417.08 249.87 C 417.51 258.57 421.21 266.59 423.09 275.00 C 425.05 284.25 429.21 292.85 431.15 302.10 C 432.73 309.71 436.27 316.68 438.54 324.07 C 443.43 338.68 444.20 354.26 448.59 369.00 C 450.02 375.49 450.74 382.12 452.52 388.54 C 454.98 401.16 459.15 413.38 461.52 426.01 C 460.07 420.95 458.47 415.91 457.44 410.74 C 454.64 401.19 452.10 391.56 449.31 382.01 C 448.44 375.27 446.56 368.76 444.62 362.27 C 442.88 351.44 440.91 340.64 439.45 329.77 C 435.76 325.14 434.33 319.30 431.88 314.01 C 428.98 307.60 427.96 300.58 425.72 293.94 C 423.47 287.03 420.91 280.20 419.35 273.08 C 417.95 267.39 415.17 261.96 415.17 255.99 C 415.14 243.32 415.15 230.64 415.19 217.97 C 415.18 214.92 414.42 211.96 413.76 209.01 Z" />
<path fill="#f4722b" opacity="1.00" d=" M 448.48 221.46 C 449.88 221.29 451.31 221.34 452.73 221.40 C 452.72 224.31 450.34 226.13 447.52 225.50 C 447.74 224.15 447.30 222.47 448.48 221.46 Z" />
<path fill="#f4722b" opacity="1.00" d=" M 448.53 228.29 C 449.84 228.52 451.70 227.88 452.52 229.30 C 453.91 231.02 453.28 233.39 453.50 235.41 C 452.26 235.37 450.83 236.01 449.70 235.32 C 447.74 233.49 448.62 230.63 448.53 228.29 Z" />
<path fill="#f4722b" opacity="1.00" d=" M 431.78 282.38 C 430.36 279.42 432.15 273.81 436.20 275.64 C 439.20 279.18 441.08 283.51 442.49 287.89 C 442.13 288.58 441.40 289.96 441.04 290.65 C 436.13 291.18 433.39 286.25 431.78 282.38 Z" />
<path fill="#f4722b" opacity="1.00" d=" M 463.55 294.37 C 464.84 291.62 468.13 292.34 470.58 292.29 C 472.41 295.66 473.89 299.26 474.66 303.03 C 475.29 305.29 473.48 307.98 471.02 307.63 C 468.56 307.98 467.27 305.59 466.11 303.88 C 464.34 301.09 462.57 297.77 463.55 294.37 Z" />
<path fill="#f4722b" opacity="1.00" d=" M 377.57 329.85 C 379.82 321.66 378.04 313.10 379.56 304.80 C 380.17 306.91 382.09 309.11 381.01 311.37 C 378.80 316.13 379.48 321.55 380.71 326.48 C 378.05 329.70 378.45 334.20 380.65 337.55 C 380.60 345.10 378.70 352.52 379.22 360.10 C 379.04 360.24 378.69 360.52 378.51 360.65 C 379.45 375.00 374.47 388.82 373.72 403.05 C 373.60 405.54 373.48 408.01 373.34 410.50 C 372.19 408.77 369.92 407.37 370.23 405.02 C 370.06 394.62 372.31 384.35 374.47 374.23 C 372.71 374.74 370.95 375.24 369.20 375.73 C 369.25 373.29 369.56 370.85 370.40 368.56 C 371.80 364.84 371.34 360.84 371.39 356.96 C 372.47 358.17 373.56 359.38 374.65 360.59 C 375.19 352.52 376.82 344.53 376.63 336.41 C 375.09 336.81 373.57 337.23 372.04 337.63 C 372.67 334.79 373.62 332.03 374.68 329.32 C 375.40 329.45 376.85 329.72 377.57 329.85 Z" />
<path fill="#f4722b" opacity="1.00" d=" M 456.72 322.62 C 461.63 324.76 463.12 330.22 462.81 335.15 C 462.11 335.49 460.72 336.18 460.02 336.53 C 459.41 336.18 458.20 335.48 457.59 335.12 C 456.34 331.07 456.41 326.81 456.72 322.62 Z" />
<path fill="#f4722b" opacity="1.00" d=" M 390.68 361.03 C 389.93 354.07 390.39 347.06 390.47 340.08 C 390.80 345.05 390.65 350.02 390.60 355.00 C 390.53 359.69 391.66 364.29 391.68 368.98 C 391.69 376.98 391.38 384.99 391.78 392.99 C 393.02 401.98 392.56 411.07 393.51 420.09 C 393.14 425.60 394.76 431.21 393.74 436.61 C 391.31 424.22 393.05 411.50 392.12 398.98 C 390.05 386.41 392.61 373.60 390.68 361.03 Z" />
</svg>
