<?xml version="1.0" encoding="UTF-8" ?>
<!DOCTYPE svg PUBLIC "-//W3C//DTD SVG 1.1//EN" "http://www.w3.org/Graphics/SVG/1.1/DTD/svg11.dtd">
<svg width="512pt" height="512pt" viewBox="0 0 512 512" version="1.1" xmlns="http://www.w3.org/2000/svg">
<path fill="#3e3e3e" opacity="1.00" d=" M 0.00 0.00 L 512.00 0.00 L 512.00 512.00 L 0.00 512.00 L 0.00 0.00 Z" />
<path fill="#f5722b" opacity="1.00" d=" M 245.38 5.60 C 308.67 2.57 372.80 24.62 420.48 66.40 C 469.30 108.28 500.56 169.82 505.70 233.94 C 509.23 274.78 502.72 316.51 486.48 354.18 C 467.31 399.37 434.33 438.52 393.16 465.22 C 364.13 484.15 331.09 496.89 296.88 502.41 C 250.19 509.94 201.35 504.24 157.88 485.51 C 112.91 466.41 73.85 433.69 47.19 392.74 C 26.42 361.22 13.11 324.83 8.37 287.38 C 2.18 238.74 10.34 188.24 32.29 144.33 C 56.06 95.82 96.21 55.57 144.63 31.62 C 175.87 15.96 210.48 7.11 245.38 5.60 Z" />
<path fill="#3e3e3e" opacity="1.00" d=" M 238.35 23.45 C 271.02 21.78 304.00 26.78 334.61 38.36 C 360.17 48.22 384.25 62.10 405.01 80.04 C 456.27 123.46 487.39 189.71 487.78 256.93 C 488.53 294.62 480.08 332.50 463.13 366.18 C 444.06 405.29 413.64 438.68 376.77 461.73 C 349.78 478.50 319.48 490.08 288.04 494.95 C 247.34 501.31 204.97 497.26 166.41 482.65 C 141.50 473.05 117.99 459.63 97.61 442.34 C 66.17 416.15 42.08 381.45 27.83 343.14 C 8.22 290.38 8.25 230.62 27.82 177.86 C 39.35 147.08 57.03 118.53 80.03 95.00 C 121.23 52.32 179.05 26.08 238.35 23.45 Z" />
<path fill="#f5722b" opacity="1.00" d=" M 167.72 56.87 C 176.79 53.91 185.86 50.94 194.95 48.04 C 199.74 61.54 202.86 75.57 206.84 89.32 C 192.48 93.34 178.57 99.08 165.88 106.94 C 163.33 108.64 160.82 110.41 158.10 111.83 C 149.13 101.09 139.92 90.56 130.96 79.82 C 135.68 76.27 139.48 71.56 144.70 68.69 C 152.04 64.16 159.45 59.53 167.72 56.87 Z" />
<path fill="#f5722b" opacity="1.00" d=" M 102.63 103.89 C 107.25 98.07 113.35 93.69 119.12 89.08 C 127.45 98.70 135.55 108.51 143.94 118.07 C 144.97 119.11 145.58 120.45 146.03 121.83 C 142.16 124.66 139.04 128.32 135.54 131.56 C 135.20 131.60 134.50 131.70 134.16 131.75 C 123.62 122.50 113.03 113.29 102.63 103.89 Z" />
<path fill="#f5722b" opacity="1.00" d=" M 78.78 132.13 C 85.16 124.56 90.49 116.06 97.70 109.23 C 108.28 118.96 119.30 128.20 129.95 137.87 C 124.32 145.13 118.80 152.53 114.33 160.58 C 113.92 162.13 111.94 162.12 111.09 160.96 C 100.41 151.25 89.22 142.09 78.78 132.13 Z" />
<path fill="#f5e5c1" opacity="1.00" d=" M 284.35 128.83 C 287.84 126.44 290.96 123.26 294.92 121.73 C 324.61 121.53 354.32 121.71 384.02 121.65 C 387.23 124.94 392.61 126.98 393.29 132.02 C 398.00 153.05 403.08 173.99 407.78 195.02 C 405.99 197.56 404.18 200.09 402.41 202.64 C 361.65 202.76 320.89 202.55 280.13 202.75 C 278.42 199.63 274.71 196.94 275.48 193.03 C 278.65 171.66 281.14 150.19 284.35 128.83 Z" />
<path fill="#f5e5c1" opacity="1.00" d=" M 239.23 156.71 C 239.34 147.66 239.27 138.61 239.32 129.56 C 252.15 129.77 264.99 129.58 277.82 129.78 C 275.29 152.45 272.32 175.08 269.56 197.72 C 266.32 197.79 263.09 197.73 259.86 197.50 C 258.50 195.73 256.94 194.02 256.25 191.85 C 252.69 181.63 249.48 171.29 245.80 161.11 C 244.86 158.27 242.43 155.92 239.23 156.71 Z" />
<path fill="#f5e5c1" opacity="1.00" d=" M 190.17 134.28 C 204.60 134.17 219.05 134.13 233.48 134.54 C 233.63 142.24 232.44 149.89 232.30 157.59 C 227.18 158.65 221.93 158.72 216.78 159.55 C 214.60 170.37 212.18 181.14 209.57 191.87 C 202.10 191.69 194.63 192.01 187.17 191.73 C 184.12 190.44 184.31 186.78 184.27 184.02 C 184.34 169.43 184.15 154.83 184.36 140.25 C 185.93 137.97 187.93 135.92 190.17 134.28 Z" />
<path fill="#f5e5c1" opacity="1.00" d=" M 156.20 154.55 C 163.86 154.42 171.52 154.31 179.18 154.58 C 179.13 164.00 178.79 173.42 178.88 182.84 C 167.59 182.86 156.30 182.81 145.00 182.87 C 143.77 181.81 142.53 180.74 141.30 179.69 C 141.26 172.21 141.35 164.73 141.28 157.25 C 143.09 154.84 146.01 154.89 148.74 155.02 C 148.74 160.78 148.70 166.54 148.75 172.31 C 151.01 172.47 153.28 172.54 155.54 172.58 C 156.80 166.66 155.96 160.55 156.20 154.55 Z" />
<path fill="#f5e5c1" opacity="1.00" d=" M 220.41 162.26 C 227.19 162.33 233.96 162.11 240.74 162.26 C 245.77 180.88 249.33 199.85 253.80 218.61 C 238.72 218.65 223.64 218.77 208.56 218.61 C 212.84 199.90 216.30 181.01 220.41 162.26 Z" />
<path fill="#3e3e3e" opacity="1.00" d=" M 223.73 177.69 C 228.27 177.15 233.06 176.63 237.56 177.60 C 240.79 181.16 243.13 185.47 246.13 189.24 C 244.63 193.80 242.44 198.11 240.14 202.31 C 234.92 204.04 229.28 203.06 223.88 203.33 C 220.90 199.34 219.45 194.56 217.59 190.02 C 219.71 185.96 220.83 181.28 223.73 177.69 Z" />
<path fill="#f5e5c1" opacity="1.00" d=" M 229.23 179.34 C 230.79 179.32 232.36 179.30 233.93 179.28 C 236.14 182.74 238.17 186.32 240.21 189.88 C 238.46 192.11 237.09 194.70 234.98 196.60 C 231.72 196.68 228.47 196.45 225.22 196.48 C 224.53 194.65 223.75 192.85 223.36 190.93 C 224.88 186.86 227.12 183.11 229.23 179.34 Z" />
<path fill="#f5e5c1" opacity="1.00" d=" M 307.92 207.44 C 323.56 207.30 339.17 206.41 354.81 206.40 C 354.65 208.90 354.97 211.60 353.95 213.95 C 351.26 216.73 348.15 219.12 344.96 221.29 C 341.37 222.21 337.60 221.51 333.95 221.51 C 328.91 221.13 323.68 221.88 318.85 220.11 C 314.47 218.51 310.05 217.06 305.66 215.49 C 304.95 213.29 304.15 211.11 303.58 208.86 C 304.39 207.14 306.38 207.59 307.92 207.44 Z" />
<path fill="#f5e5c1" opacity="1.00" d=" M 256.44 232.33 C 258.19 228.02 259.07 223.44 260.54 219.03 C 270.84 226.15 281.64 232.57 291.78 239.93 C 290.18 242.51 288.11 244.78 286.71 247.48 C 285.84 250.03 286.38 252.77 286.22 255.40 C 284.63 256.81 283.17 254.73 281.95 253.94 C 274.81 248.08 267.70 242.18 260.53 236.37 C 259.03 235.16 257.70 233.77 256.44 232.33 Z" />
<path fill="#f5e5c1" opacity="1.00" d=" M 301.26 238.99 C 304.06 232.78 306.89 226.58 309.77 220.40 C 313.54 221.74 317.24 223.34 321.13 224.32 C 324.79 224.77 328.49 224.59 332.17 224.77 C 325.27 231.55 318.27 238.21 311.25 244.86 C 308.99 241.46 305.21 239.61 301.26 238.99 Z" />
<path fill="#f5e5c1" opacity="1.00" d=" M 224.64 231.68 C 227.34 229.02 230.29 226.37 233.87 224.98 C 239.69 224.61 245.54 225.04 251.37 224.66 C 251.26 230.78 251.39 236.91 251.35 243.04 C 246.66 246.16 240.88 248.62 235.19 246.99 C 230.70 246.52 226.72 244.38 222.57 242.82 C 222.38 239.07 221.69 234.61 224.64 231.68 Z" />
<path fill="#f5e5c1" opacity="1.00" d=" M 295.37 243.43 C 301.59 240.33 311.21 245.58 310.34 252.99 C 310.16 259.07 303.86 264.06 297.91 262.66 C 291.11 261.96 287.20 253.22 290.67 247.53 C 291.81 245.75 293.51 244.38 295.37 243.43 Z" />
<path fill="#f5e5c1" opacity="1.00" d=" M 212.83 250.81 C 216.78 249.80 220.85 246.08 224.91 248.44 C 237.42 254.17 250.14 259.47 262.63 265.26 C 267.37 267.26 271.31 271.62 271.66 276.90 C 272.70 283.75 267.11 289.75 268.58 296.58 C 270.35 300.84 272.37 305.17 275.52 308.60 C 296.46 325.90 317.04 343.66 337.81 361.16 C 345.72 367.90 353.89 374.38 361.01 381.98 C 359.93 384.26 358.83 386.53 357.76 388.82 C 354.59 388.44 351.29 388.17 348.46 386.59 C 314.49 367.87 280.57 349.06 246.61 330.33 C 243.36 328.42 240.92 325.41 238.54 322.55 C 235.32 317.91 238.51 312.24 241.61 308.48 C 243.81 305.69 246.56 303.41 249.63 301.65 C 255.23 297.88 258.12 290.53 257.04 283.93 C 256.42 276.54 249.07 271.37 242.08 270.85 C 232.49 270.13 223.54 279.72 225.46 289.32 C 218.73 294.11 211.77 298.55 204.97 303.23 C 202.41 300.19 199.78 296.92 199.04 292.90 C 198.49 289.62 198.06 286.31 197.71 283.00 C 197.39 279.37 199.09 276.01 200.81 272.94 C 205.02 265.67 208.71 258.12 212.83 250.81 Z" />
<path fill="#f5e5c1" opacity="1.00" d=" M 237.33 276.40 C 244.29 273.31 253.05 279.40 252.67 286.97 C 253.13 294.81 243.83 301.00 236.78 297.41 C 230.91 295.09 228.50 287.63 231.10 282.08 C 232.37 279.50 234.63 277.41 237.33 276.40 Z" />
<path fill="#f5e5c1" opacity="1.00" d=" M 227.02 293.91 C 229.23 297.86 232.76 300.79 236.89 302.60 C 236.58 305.34 236.33 308.25 234.50 310.47 C 222.63 327.63 211.29 345.16 198.97 362.01 C 197.84 363.50 196.90 365.19 195.39 366.35 C 184.53 373.78 173.98 381.67 163.24 389.26 C 158.98 391.00 154.44 391.99 150.01 393.20 C 144.90 393.64 139.75 393.25 134.63 393.39 C 136.26 388.28 137.62 383.09 139.17 377.96 C 139.46 376.54 140.43 375.45 141.47 374.51 C 169.50 348.83 197.42 323.01 225.43 297.30 C 226.38 296.39 226.91 295.25 227.02 293.91 Z" />
<path fill="#f5e5c1" opacity="1.00" d=" M 361.15 393.98 C 362.74 390.18 365.00 386.73 366.94 383.12 C 378.87 391.10 390.88 398.97 402.82 406.94 C 402.38 412.07 401.52 417.16 401.20 422.30 C 396.63 423.90 391.71 423.08 386.98 423.43 C 384.98 423.31 382.25 424.08 381.14 421.86 C 374.44 412.59 367.90 403.21 361.15 393.98 Z" />
<path fill="#f5e5c1" opacity="1.00" d=" M 117.60 410.08 C 121.40 406.94 125.17 403.76 128.91 400.55 C 133.96 400.64 139.01 400.77 144.04 401.18 C 148.94 401.55 153.97 401.01 158.76 402.27 C 161.81 404.20 164.66 406.45 167.47 408.71 C 168.22 411.66 167.64 414.84 167.79 417.88 C 151.06 417.86 134.32 417.81 117.59 417.85 C 117.58 415.26 117.59 412.66 117.60 410.08 Z" />
</svg>
