<?xml version="1.0" encoding="UTF-8" ?>
<!DOCTYPE svg PUBLIC "-//W3C//DTD SVG 1.1//EN" "http://www.w3.org/Graphics/SVG/1.1/DTD/svg11.dtd">
<svg width="512pt" height="512pt" viewBox="0 0 512 512" version="1.1" xmlns="http://www.w3.org/2000/svg">
<path fill="#f5722c" opacity="1.00" d=" M 0.00 0.00 L 76.86 0.00 C 68.36 7.05 60.88 15.27 53.01 23.02 C 33.57 43.55 15.64 65.56 0.00 89.14 L 0.00 0.00 Z" />
<path fill="#3e3e3e" opacity="1.00" d=" M 76.86 0.00 L 143.82 0.00 C 91.64 37.25 47.57 85.66 14.91 140.82 C 9.71 149.95 4.23 158.98 0.00 168.61 L 0.00 89.14 C 15.64 65.56 33.57 43.55 53.01 23.02 C 60.88 15.27 68.36 7.05 76.86 0.00 Z" />
<path fill="#f5722c" opacity="1.00" d=" M 143.82 0.00 L 293.63 0.00 C 224.59 23.22 162.11 65.55 114.75 120.88 C 58.88 185.64 24.22 268.43 17.44 353.68 C 17.36 360.81 15.52 367.82 15.84 374.97 C 16.02 388.55 15.01 402.23 17.08 415.71 C 18.28 435.57 21.19 455.33 25.45 474.78 C 27.92 487.38 31.90 499.60 35.13 512.00 L 0.00 512.00 L 0.00 168.61 C 4.23 158.98 9.71 149.95 14.91 140.82 C 47.57 85.66 91.64 37.25 143.82 0.00 Z" />
<path fill="#3e3e3e" opacity="1.00" d=" M 293.63 0.00 L 512.00 0.00 L 512.00 14.46 C 489.24 10.06 466.17 6.85 442.96 6.21 C 381.81 4.20 320.23 16.76 264.78 42.64 C 216.82 64.83 173.51 96.95 138.24 136.29 C 91.84 187.74 59.56 251.77 45.74 319.67 C 42.34 335.74 40.46 352.07 38.55 368.37 C 37.79 386.91 37.81 405.48 38.36 424.03 C 40.89 453.75 45.55 483.49 54.60 512.00 L 35.13 512.00 C 31.90 499.60 27.92 487.38 25.45 474.78 C 21.19 455.33 18.28 435.57 17.08 415.71 C 15.01 402.23 16.02 388.55 15.84 374.97 C 15.52 367.82 17.36 360.81 17.44 353.68 C 24.22 268.43 58.88 185.64 114.75 120.88 C 162.11 65.55 224.59 23.22 293.63 0.00 Z" />
<path fill="#f5722c" opacity="1.00" d=" M 264.78 42.64 C 320.23 16.76 381.81 4.20 442.96 6.21 C 466.17 6.85 489.24 10.06 512.00 14.46 L 512.00 64.35 C 476.01 56.33 438.73 54.50 402.07 58.18 C 330.91 65.43 262.21 95.19 208.43 142.37 C 164.14 180.86 129.85 230.72 109.81 285.87 C 99.35 314.67 92.44 344.82 90.02 375.38 C 88.31 389.88 88.58 404.48 88.73 419.05 C 89.91 438.73 91.89 458.41 96.11 477.71 C 98.46 489.29 101.77 500.65 105.07 512.00 L 54.60 512.00 C 45.55 483.49 40.89 453.75 38.36 424.03 C 37.81 405.48 37.79 386.91 38.55 368.37 C 40.46 352.07 42.34 335.74 45.74 319.67 C 59.56 251.77 91.84 187.74 138.24 136.29 C 173.51 96.95 216.82 64.83 264.78 42.64 Z" />
<path fill="#3e3e3e" opacity="1.00" d=" M 402.07 58.18 C 438.73 54.50 476.01 56.33 512.00 64.35 L 512.00 326.25 C 511.58 323.94 509.47 322.61 508.00 320.99 C 489.37 301.84 462.64 290.92 435.96 291.42 C 414.00 291.46 392.11 299.21 374.96 312.94 C 367.27 318.86 360.92 326.27 354.47 333.46 C 333.94 354.45 323.45 384.89 327.07 414.04 C 328.63 430.98 335.21 447.22 344.81 461.17 C 355.47 476.93 369.75 490.60 387.10 498.72 C 411.38 510.69 440.40 511.58 465.80 502.62 C 483.66 496.33 500.40 485.60 512.00 470.49 L 512.00 512.00 L 105.07 512.00 C 101.77 500.65 98.46 489.29 96.11 477.71 C 91.89 458.41 89.91 438.73 88.73 419.05 C 88.58 404.48 88.31 389.88 90.02 375.38 C 92.44 344.82 99.35 314.67 109.81 285.87 C 129.85 230.72 164.14 180.86 208.43 142.37 C 262.21 95.19 330.91 65.43 402.07 58.18 Z" />
<path fill="#f5e5c1" opacity="1.00" d=" M 303.89 104.88 C 305.76 103.76 307.99 103.70 309.93 102.77 C 315.01 102.29 320.27 101.98 325.14 103.76 C 333.92 106.78 341.57 113.82 344.32 122.83 C 347.26 131.35 345.51 140.67 341.87 148.69 C 339.55 144.49 334.64 142.56 330.30 141.38 C 330.57 139.68 329.84 137.49 331.35 136.22 C 331.46 134.07 331.46 131.92 331.38 129.77 C 330.59 128.96 330.25 127.94 330.36 126.72 C 327.71 121.21 322.42 116.70 316.14 116.41 C 310.48 116.02 304.49 118.44 301.28 123.28 C 297.99 127.62 297.55 133.70 299.24 138.75 C 299.49 139.99 301.72 141.98 299.60 142.73 C 298.02 143.71 296.83 145.17 295.55 146.49 C 295.12 149.33 295.45 152.19 295.21 155.04 C 289.94 151.47 287.29 145.13 285.77 139.13 C 285.15 134.84 285.37 130.45 285.66 126.14 C 288.11 116.79 294.75 108.38 303.89 104.88 Z" />
<path fill="#f5e5c1" opacity="1.00" d=" M 312.72 123.51 C 314.61 123.90 317.60 122.54 318.73 124.39 C 321.40 124.31 322.87 127.03 324.45 128.78 C 324.25 130.02 324.58 131.00 325.43 131.73 C 325.44 132.65 325.47 134.49 325.48 135.41 L 324.50 135.61 C 324.54 136.13 324.61 137.17 324.64 137.69 C 320.19 138.18 316.56 133.23 312.11 135.24 C 310.05 135.69 308.74 137.66 306.59 137.80 C 305.19 135.73 305.50 133.16 305.53 130.67 L 306.36 130.30 C 306.50 126.74 310.40 125.05 312.72 123.51 Z" />
<path fill="#f5e5c1" opacity="1.00" d=" M 315.48 144.66 C 317.69 143.86 320.02 144.64 321.94 145.80 C 325.42 147.85 329.82 148.42 332.56 151.62 C 332.78 158.60 334.89 165.30 335.72 172.13 C 336.73 173.15 336.42 174.65 336.61 175.93 C 337.83 183.56 339.11 191.20 339.69 198.89 C 341.14 203.12 341.82 207.63 341.57 212.09 C 338.50 214.15 335.71 216.63 333.34 219.47 C 331.24 221.93 327.52 220.34 325.66 218.40 C 321.12 213.54 315.44 209.95 310.62 205.44 C 309.44 201.11 309.93 196.54 308.82 192.20 C 307.96 188.94 309.39 185.09 307.69 182.13 C 307.43 171.62 305.07 161.31 305.25 150.74 C 308.12 147.93 311.79 146.15 315.48 144.66 Z" />
<path fill="#f5e5c1" opacity="1.00" d=" M 251.07 210.08 C 256.99 203.57 261.74 195.88 268.85 190.55 C 271.54 190.18 274.35 190.03 277.00 190.71 C 281.38 192.40 284.05 196.66 288.26 198.67 C 294.95 201.47 299.19 207.80 305.28 211.53 C 327.21 229.70 349.29 247.70 371.21 265.90 C 372.83 266.53 374.74 268.34 373.18 270.09 C 363.23 282.15 353.33 294.28 343.43 306.42 C 337.87 312.60 333.16 319.49 327.50 325.59 C 315.85 340.21 303.75 354.44 292.08 369.06 C 291.34 370.22 289.85 369.63 288.75 369.64 C 273.84 356.69 258.07 344.72 242.93 332.03 C 231.93 323.01 220.81 314.13 209.77 305.15 C 203.13 300.35 198.16 293.69 193.54 287.03 C 193.54 286.23 193.54 284.62 193.54 283.82 C 194.90 283.10 194.36 281.34 194.91 280.15 C 195.66 276.99 198.15 274.80 199.98 272.26 C 216.98 251.51 234.14 230.90 251.07 210.08 Z" />
<path fill="#f5e5c1" opacity="1.00" d=" M 183.39 194.56 C 185.16 194.75 187.20 194.10 188.78 195.13 C 192.92 198.72 197.18 202.19 201.52 205.54 C 201.97 206.45 201.83 207.27 201.09 208.00 C 189.38 222.56 177.71 237.17 165.95 251.69 C 161.85 246.54 155.96 243.32 151.43 238.62 C 149.69 237.11 150.45 234.47 151.99 233.15 C 160.87 222.03 169.81 210.94 178.72 199.84 C 180.10 197.93 181.67 196.17 183.39 194.56 Z" />
<path fill="#f5e5c1" opacity="1.00" d=" M 368.40 208.03 C 370.63 205.15 372.43 199.82 377.13 201.54 C 383.12 206.07 389.31 210.27 395.42 214.62 C 397.08 215.58 397.90 217.34 398.58 219.05 C 397.41 221.68 394.89 223.51 394.13 226.31 C 393.62 226.45 392.59 226.72 392.08 226.86 C 384.30 220.45 376.43 214.12 368.40 208.03 Z" />
<path fill="#f5e5c1" opacity="1.00" d=" M 353.78 204.46 C 354.22 204.46 355.11 204.46 355.55 204.46 C 370.01 216.05 384.52 227.57 399.00 239.13 C 400.20 239.95 400.99 241.29 400.57 242.79 C 399.70 245.88 396.91 247.89 395.46 250.69 C 395.01 250.66 394.12 250.62 393.67 250.60 C 379.07 238.08 364.12 225.94 349.44 213.52 C 348.64 212.42 349.39 211.07 350.16 210.22 C 351.61 208.46 352.86 206.55 353.78 204.46 Z" />
<path fill="#f5e5c1" opacity="1.00" d=" M 175.21 257.10 C 187.43 242.71 198.69 227.48 210.98 213.18 C 216.01 218.06 222.11 221.80 226.78 227.04 C 226.33 227.25 225.45 227.66 225.00 227.87 C 224.15 230.22 222.07 231.72 220.57 233.64 C 211.77 244.50 202.98 255.34 193.96 266.02 C 192.76 267.36 191.27 268.61 191.08 270.53 C 185.43 267.47 181.27 262.23 175.71 259.07 C 175.59 258.58 175.34 257.60 175.21 257.10 Z" />
<path fill="#f5e5c1" opacity="1.00" d=" M 342.21 218.22 C 343.09 217.14 344.92 216.89 345.89 217.99 C 363.70 232.19 381.03 246.97 398.55 261.51 C 399.33 262.28 400.08 263.09 400.80 263.92 C 399.55 265.92 398.58 268.18 398.26 270.53 C 395.48 271.25 393.59 268.76 391.30 267.71 C 388.19 266.12 385.24 264.25 382.15 262.66 C 380.90 262.41 379.49 262.45 378.58 261.43 C 363.74 249.34 349.05 237.05 334.18 225.01 C 336.74 222.62 339.62 220.59 342.21 218.22 Z" />
<path fill="#f5e5c1" opacity="1.00" d=" M 357.78 304.69 C 366.26 294.59 374.19 283.99 382.95 274.17 C 387.73 277.37 392.96 279.81 397.86 282.81 C 399.95 284.00 401.89 285.55 404.30 286.04 C 392.06 290.24 380.30 296.16 369.99 304.01 C 363.91 308.48 358.87 314.17 353.53 319.49 C 350.82 323.71 346.91 326.90 343.46 330.48 C 327.15 349.53 316.64 374.20 316.76 399.49 C 313.11 395.88 311.19 391.06 307.72 387.32 C 305.18 384.14 302.18 381.37 299.46 378.36 C 299.45 377.94 299.44 377.10 299.44 376.69 C 319.10 352.87 338.16 328.54 357.78 304.69 Z" />
<path fill="#f5e5c1" opacity="1.00" d=" M 374.96 312.94 C 392.11 299.21 414.00 291.46 435.96 291.42 C 462.64 290.92 489.37 301.84 508.00 320.99 C 509.47 322.61 511.58 323.94 512.00 326.25 L 512.00 361.43 C 511.80 358.49 509.70 356.26 508.27 353.85 C 492.82 329.72 464.65 314.41 436.04 314.43 C 415.52 313.97 394.98 321.30 379.16 334.35 C 358.93 350.84 346.83 376.88 347.43 402.99 C 347.44 419.69 352.61 436.35 361.80 450.29 C 377.49 474.62 406.09 489.97 435.02 489.58 C 466.46 489.99 497.78 471.72 512.00 443.54 L 512.00 470.49 C 500.40 485.60 483.66 496.33 465.80 502.62 C 440.40 511.58 411.38 510.69 387.10 498.72 C 369.75 490.60 355.47 476.93 344.81 461.17 C 335.21 447.22 328.63 430.98 327.07 414.04 C 323.45 384.89 333.94 354.45 354.47 333.46 C 360.92 326.27 367.27 318.86 374.96 312.94 Z" />
<path fill="#f5e5c1" opacity="1.00" d=" M 146.58 306.77 C 152.80 304.66 159.70 304.93 165.90 306.96 C 168.09 307.91 170.13 309.17 172.41 309.92 C 172.56 310.70 172.64 311.50 172.66 312.31 C 171.10 312.43 169.47 312.41 168.05 313.19 C 165.20 313.21 162.71 314.82 159.83 314.70 L 159.11 315.22 C 154.54 315.82 150.17 317.24 145.83 318.71 C 139.21 321.52 134.35 328.61 135.31 335.92 C 135.79 338.08 134.57 341.26 136.45 342.72 C 137.37 347.83 142.18 351.49 146.79 353.41 C 151.05 353.57 156.00 354.70 159.84 352.63 C 160.44 352.57 161.63 352.45 162.23 352.39 C 163.61 351.08 165.22 349.69 167.26 350.37 C 169.16 352.44 171.08 354.55 173.87 355.30 C 175.54 355.30 177.21 355.28 178.88 355.23 C 174.19 360.40 167.88 364.05 161.04 365.51 C 155.74 365.78 150.21 366.34 145.12 364.48 C 135.63 361.23 128.16 352.93 125.81 343.19 C 124.52 335.69 125.08 327.62 128.81 320.86 C 132.78 314.27 138.89 308.44 146.58 306.77 Z" />
<path fill="#f5e5c1" opacity="1.00" d=" M 204.84 313.57 C 205.44 313.53 206.64 313.46 207.24 313.43 C 213.43 318.71 220.13 323.46 225.96 329.12 C 228.46 330.10 230.11 332.33 232.26 333.85 C 233.58 334.91 235.26 335.72 235.97 337.36 C 232.26 337.57 228.39 336.89 224.86 338.35 C 218.26 338.85 211.63 339.92 205.16 341.24 C 200.97 341.01 197.12 342.70 192.97 342.61 C 187.72 344.08 182.04 343.71 176.93 345.52 C 172.11 343.10 169.06 338.37 164.97 334.98 C 162.24 331.74 158.42 329.41 156.26 325.72 C 163.25 324.43 170.09 322.25 177.11 321.23 C 179.79 319.76 183.23 320.16 185.92 318.75 C 192.06 317.63 198.35 316.46 204.25 314.36 L 204.84 313.57 Z" />
<path fill="#3e3e3e" opacity="1.00" d=" M 379.16 334.35 C 394.98 321.30 415.52 313.97 436.04 314.43 C 464.65 314.41 492.82 329.72 508.27 353.85 C 509.70 356.26 511.80 358.49 512.00 361.43 L 512.00 443.54 C 497.78 471.72 466.46 489.99 435.02 489.58 C 406.09 489.97 377.49 474.62 361.80 450.29 C 352.61 436.35 347.44 419.69 347.43 402.99 C 346.83 376.88 358.93 350.84 379.16 334.35 Z" />
<path fill="#f5e5c1" opacity="1.00" d=" M 420.74 326.97 C 435.60 324.06 451.29 325.84 465.15 331.92 C 478.81 337.80 490.43 348.07 498.44 360.55 C 511.01 380.34 513.27 406.10 504.75 427.88 C 499.08 442.71 488.29 455.37 474.97 463.91 C 462.21 471.90 447.03 475.96 431.99 475.34 C 412.81 474.58 393.91 466.26 380.80 452.16 C 364.13 435.28 357.10 410.06 361.41 386.91 C 366.25 357.21 391.17 332.30 420.74 326.97 Z" />
<path fill="#f5e5c1" opacity="1.00" d=" M 143.57 331.83 C 144.57 330.76 145.34 328.59 147.29 329.51 C 147.34 332.22 149.90 333.68 151.51 335.51 C 153.95 337.55 155.80 340.25 158.51 341.95 C 158.47 342.79 158.38 344.46 158.34 345.30 C 154.89 345.84 151.38 346.01 147.93 345.38 C 146.38 344.06 144.97 342.59 143.63 341.05 C 143.11 338.00 143.14 334.89 143.57 331.83 Z" />
<path fill="#f5e5c1" opacity="1.00" d=" M 240.40 341.33 C 240.86 341.42 241.79 341.60 242.26 341.68 C 256.73 353.94 271.62 365.68 286.26 377.75 C 288.88 380.88 291.15 384.43 294.50 386.88 C 294.62 387.73 294.71 388.58 294.77 389.44 C 293.44 390.28 292.27 391.34 291.19 392.49 C 289.53 392.88 287.58 392.99 286.45 391.45 C 268.89 378.15 251.14 364.97 234.41 350.65 C 234.38 350.23 234.33 349.40 234.30 348.99 C 236.45 346.54 239.01 344.34 240.40 341.33 Z" />
<path fill="#f5e5c1" opacity="1.00" d=" M 232.89 359.80 C 233.38 359.69 234.37 359.46 234.86 359.34 C 248.83 369.97 262.99 380.33 276.91 391.01 C 274.34 393.06 271.73 395.07 269.24 397.24 C 267.95 398.02 266.38 397.57 265.43 396.49 C 252.30 387.54 238.58 379.14 227.12 368.04 C 229.17 365.41 231.70 362.96 232.89 359.80 Z" />
<path fill="#3e3e3e" opacity="1.00" d=" M 430.48 375.67 C 436.89 374.74 443.70 376.11 448.97 379.98 C 455.40 384.45 459.61 392.13 459.56 400.01 C 459.90 407.98 455.92 415.92 449.52 420.62 C 442.72 425.87 433.11 427.05 425.18 423.83 C 418.69 421.28 413.40 415.86 410.97 409.32 C 407.99 401.48 409.25 392.11 414.41 385.45 C 418.21 380.25 424.14 376.73 430.48 375.67 Z" />
<path fill="#f5e5c1" opacity="1.00" d=" M 233.93 382.79 C 234.66 382.73 235.40 382.68 236.13 382.63 C 236.33 382.97 236.72 383.65 236.91 383.99 C 243.05 387.58 248.83 391.79 254.66 395.87 C 252.41 398.26 250.72 401.61 247.25 402.38 C 245.81 401.67 244.29 401.03 243.19 399.83 C 240.00 396.32 236.19 393.40 233.20 389.71 C 231.39 387.47 233.35 385.04 233.93 382.79 Z" />
</svg>
