<?xml version="1.0" encoding="UTF-8" ?>
<!DOCTYPE svg PUBLIC "-//W3C//DTD SVG 1.1//EN" "http://www.w3.org/Graphics/SVG/1.1/DTD/svg11.dtd">
<svg width="512pt" height="512pt" viewBox="0 0 512 512" version="1.1" xmlns="http://www.w3.org/2000/svg">
<path fill="#3e3e3e" opacity="1.00" d=" M 0.00 0.00 L 512.00 0.00 L 512.00 512.00 L 0.00 512.00 L 0.00 0.00 Z" />
<path fill="#f5722c" opacity="1.00" d=" M 449.79 14.82 C 461.86 12.46 474.19 11.31 485.97 7.67 C 486.06 54.12 485.75 100.57 485.28 147.02 C 484.30 172.65 484.96 198.31 484.68 223.96 C 484.58 248.00 484.49 272.04 484.19 296.08 C 483.56 307.51 483.84 318.97 483.65 330.41 C 473.70 321.33 463.53 312.50 453.48 303.53 C 454.29 295.40 454.65 287.21 453.71 279.08 C 452.27 247.61 443.27 216.57 428.06 189.00 C 426.82 186.89 427.04 184.38 426.97 182.04 C 427.00 178.03 426.46 174.03 426.86 170.02 C 427.39 164.70 426.26 159.38 426.90 154.07 C 427.03 149.68 427.69 144.74 425.03 140.92 C 423.29 138.55 419.99 138.96 417.42 138.51 C 416.31 137.06 415.62 134.98 413.73 134.39 C 409.92 133.30 405.89 133.64 401.99 133.81 C 396.10 134.48 390.12 134.28 384.26 133.40 C 381.52 132.07 379.45 129.72 377.07 127.88 C 347.93 104.05 312.22 88.30 274.95 83.01 C 266.01 81.63 256.97 81.25 247.97 80.62 C 234.21 80.66 220.45 81.98 206.89 84.34 C 198.36 77.06 189.92 69.66 181.76 61.97 C 271.09 46.16 360.46 30.60 449.79 14.82 Z" />
<path fill="#f5e5c1" opacity="1.00" d=" M 24.75 29.84 C 25.01 27.52 26.88 25.99 28.45 24.48 C 54.28 24.52 80.11 24.59 105.94 24.72 C 120.91 25.80 135.95 25.15 150.95 25.70 C 151.29 26.20 151.99 27.21 152.34 27.71 C 152.29 49.47 152.27 71.24 152.34 93.00 C 152.40 95.57 152.18 98.14 151.64 100.66 C 142.32 100.49 132.99 100.60 123.66 100.59 C 123.48 97.52 123.26 94.44 122.51 91.44 C 117.10 89.94 111.46 90.86 105.94 90.82 C 96.90 91.43 87.83 91.31 78.77 91.63 C 73.36 86.06 66.55 82.09 59.93 78.14 C 52.51 75.02 45.29 70.30 36.97 70.34 C 33.10 70.29 29.24 70.66 25.38 70.77 C 25.52 57.12 24.07 43.49 24.75 29.84 Z" />
<path fill="#f5e5c1" opacity="1.00" d=" M 155.91 31.19 C 159.01 31.57 160.84 34.24 162.30 36.71 C 164.02 41.78 160.86 47.78 155.92 49.57 C 155.83 43.44 155.85 37.32 155.91 31.19 Z" />
<path fill="#f5e5c1" opacity="1.00" d=" M 155.88 72.17 C 156.61 72.28 158.08 72.49 158.82 72.60 C 160.31 75.65 163.11 78.41 162.70 82.07 C 162.88 85.85 159.66 88.51 158.13 91.70 C 157.82 91.78 157.18 91.94 156.86 92.02 C 156.19 85.42 155.54 78.82 155.88 72.17 Z" />
<path fill="#f5e5c1" opacity="1.00" d=" M 25.41 76.63 C 34.58 74.22 44.14 77.03 52.58 80.68 C 60.50 83.17 67.03 88.52 73.50 93.51 C 81.91 99.76 88.46 108.17 94.13 116.89 C 95.87 121.01 98.27 124.83 99.90 129.00 C 101.11 133.91 101.86 138.95 102.37 143.97 C 101.95 148.96 101.15 153.96 99.89 158.81 C 98.72 163.24 96.04 167.00 93.70 170.87 C 93.28 169.45 92.90 168.02 92.31 166.67 C 90.99 166.00 89.54 165.62 88.14 165.16 C 91.74 156.38 94.76 146.67 92.50 137.14 C 91.92 133.34 89.76 130.09 88.35 126.59 C 85.44 118.51 80.45 111.39 75.46 104.48 C 69.34 98.19 62.25 92.84 54.64 88.48 C 46.27 85.02 36.89 80.80 27.80 84.13 C 24.85 84.61 22.80 86.83 20.91 88.95 C 16.57 93.17 15.23 99.30 13.22 104.80 C 11.29 116.95 14.16 129.68 20.88 139.99 C 19.53 141.87 16.94 144.49 19.18 146.73 C 25.64 153.71 32.17 160.66 38.75 167.53 C 35.65 167.17 31.63 168.61 29.45 165.65 C 26.23 162.16 22.84 158.81 19.91 155.06 C 16.98 150.87 14.80 146.22 12.16 141.85 C 8.82 136.44 7.47 130.15 5.48 124.18 C 4.04 120.21 4.84 115.97 4.71 111.87 C 4.50 105.19 8.12 99.31 10.25 93.20 C 12.69 85.90 18.02 79.26 25.41 76.63 Z" />
<path fill="#f5e5c1" opacity="1.00" d=" M 26.22 88.65 C 29.11 87.96 31.96 87.00 34.92 86.67 C 44.05 87.01 52.89 90.80 59.88 96.60 C 58.61 97.90 57.35 99.21 56.09 100.52 C 46.32 100.68 36.50 100.93 26.75 100.41 C 24.39 97.11 25.51 92.41 26.22 88.65 Z" />
<path fill="#f5e5c1" opacity="1.00" d=" M 83.77 97.65 C 92.16 97.11 100.59 97.58 108.96 96.81 C 111.72 96.64 114.49 96.65 117.25 96.69 C 117.59 101.61 117.70 106.53 117.71 111.45 C 111.70 113.41 105.51 114.74 99.44 116.47 C 94.30 110.13 89.28 103.69 83.77 97.65 Z" />
<path fill="#f5722c" opacity="1.00" d=" M 132.05 123.17 C 162.13 106.55 196.55 97.26 231.00 98.06 C 256.26 97.58 281.39 103.08 304.85 112.27 C 321.57 118.92 337.10 128.16 351.67 138.67 C 346.91 138.70 342.15 138.74 337.39 138.68 C 336.21 136.93 335.32 134.48 332.92 134.21 C 327.73 133.39 322.34 133.37 317.16 134.18 C 314.72 134.46 313.75 136.91 312.56 138.70 C 311.18 138.70 309.81 138.70 308.44 138.70 C 307.24 136.94 306.32 134.48 303.91 134.18 C 298.70 133.38 293.28 133.38 288.08 134.19 C 285.67 134.49 284.75 136.94 283.56 138.70 C 280.69 138.72 277.82 138.70 274.96 138.63 C 273.42 136.70 271.82 134.27 269.07 134.14 C 262.80 133.46 256.46 133.91 250.16 133.87 C 249.84 131.11 250.40 127.85 248.45 125.59 C 246.41 123.80 243.46 123.95 240.93 123.77 C 225.62 123.79 210.31 123.94 195.00 123.88 C 191.07 123.84 186.88 124.26 183.58 126.58 C 181.58 128.86 182.12 132.18 181.75 134.98 C 171.87 135.18 161.83 134.12 152.11 136.37 C 150.14 136.77 148.85 138.45 147.40 139.69 C 141.99 139.87 136.60 139.44 131.23 138.92 C 132.41 133.75 131.97 128.43 132.05 123.17 Z" />
<path fill="#f5e5c1" opacity="1.00" d=" M 63.81 99.95 C 71.83 104.27 76.44 112.36 80.90 119.95 C 76.17 123.10 72.57 127.56 68.34 131.29 C 66.01 133.60 63.23 135.52 61.33 138.22 C 62.91 144.93 67.12 150.52 70.40 156.46 C 73.99 162.86 77.92 169.08 81.30 175.59 C 71.81 175.46 62.26 176.06 52.80 175.41 C 42.46 165.57 32.70 155.06 22.77 144.78 C 36.18 129.60 49.84 114.62 63.81 99.95 Z" />
<path fill="#f5e5c1" opacity="1.00" d=" M 115.70 118.37 C 118.53 117.58 121.39 116.94 124.22 116.16 C 127.33 127.83 125.16 140.30 120.14 151.12 C 115.28 162.45 108.24 172.86 99.49 181.54 C 98.24 183.07 96.12 182.65 94.39 182.88 C 94.00 180.88 93.66 178.87 93.37 176.86 C 97.42 172.00 101.68 167.23 104.53 161.53 C 112.76 148.94 119.36 133.67 115.70 118.37 Z" />
<path fill="#f5e5c1" opacity="1.00" d=" M 188.47 130.51 C 206.75 130.40 225.02 130.26 243.30 130.36 C 243.28 134.09 243.27 137.83 243.30 141.56 C 239.54 141.73 235.78 141.68 232.03 141.84 C 217.47 142.87 202.87 142.56 188.29 142.85 C 188.34 138.73 188.38 134.62 188.47 130.51 Z" />
<path fill="#3e3e3e" opacity="1.00" d=" M 36.57 132.77 C 39.34 130.84 42.92 131.14 46.10 131.49 C 53.91 133.22 57.35 144.04 52.09 150.04 C 48.26 155.21 40.09 156.10 35.29 151.78 C 29.28 147.19 29.96 136.54 36.57 132.77 Z" />
<path fill="#f5e5c1" opacity="1.00" d=" M 37.39 136.40 C 41.97 131.50 51.58 135.20 51.60 141.91 C 52.67 148.02 45.29 153.42 39.83 150.58 C 37.37 149.59 35.99 147.20 34.41 145.23 C 34.29 142.02 34.67 138.52 37.39 136.40 Z" />
<path fill="#f5e5c1" opacity="1.00" d=" M 250.31 140.30 C 256.73 140.61 263.51 139.20 269.64 141.53 C 269.93 158.49 269.92 175.48 269.65 192.44 C 263.33 193.88 256.82 193.11 250.41 193.34 C 250.13 175.66 250.39 157.98 250.31 140.30 Z" />
<path fill="#f5e5c1" opacity="1.00" d=" M 289.62 139.71 C 293.87 139.70 298.12 139.70 302.37 139.71 C 302.40 156.75 302.40 173.79 302.37 190.84 C 298.12 190.84 293.88 190.84 289.63 190.84 C 289.57 173.80 289.60 156.75 289.62 139.71 Z" />
<path fill="#f5e5c1" opacity="1.00" d=" M 318.63 139.71 C 322.84 139.70 327.05 139.70 331.27 139.73 C 331.52 156.74 331.52 173.76 331.28 190.77 C 327.07 190.86 322.86 190.85 318.65 190.84 C 318.64 173.80 318.68 156.76 318.63 139.71 Z" />
<path fill="#f5e5c1" opacity="1.00" d=" M 379.54 139.73 C 382.89 139.71 386.24 139.70 389.60 139.70 C 389.56 156.75 389.57 173.79 389.60 190.84 C 386.22 190.85 382.85 190.84 379.48 190.81 C 378.79 177.88 379.49 164.93 379.15 151.99 C 379.05 147.90 379.37 143.81 379.54 139.73 Z" />
<path fill="#f5e5c1" opacity="1.00" d=" M 400.04 139.72 C 403.86 139.70 407.69 139.70 411.51 139.71 C 411.72 156.75 411.71 173.80 411.54 190.83 C 407.71 190.84 403.88 190.85 400.06 190.83 C 400.10 173.79 400.15 156.75 400.04 139.72 Z" />
<path fill="#f5e5c1" opacity="1.00" d=" M 153.50 142.48 C 162.78 142.35 172.04 141.75 181.31 141.59 C 181.36 147.39 181.39 153.19 180.75 158.97 C 180.43 170.83 180.33 182.70 180.32 194.58 C 175.31 195.96 170.17 194.77 165.09 195.18 C 161.25 195.44 157.40 195.48 153.55 195.36 C 153.28 177.74 153.39 160.11 153.50 142.48 Z" />
<path fill="#f5e5c1" opacity="1.00" d=" M 393.23 144.62 C 394.31 144.64 395.40 144.67 396.49 144.69 C 396.59 148.66 396.58 152.64 396.54 156.62 C 395.40 156.62 394.26 156.62 393.13 156.62 C 393.09 152.62 393.07 148.62 393.23 144.62 Z" />
<path fill="#f5e5c1" opacity="1.00" d=" M 415.29 144.69 C 417.14 144.69 418.99 144.69 420.85 144.68 C 421.04 148.65 421.02 152.62 420.97 156.59 C 419.05 156.59 417.13 156.59 415.21 156.60 C 415.16 152.63 415.15 148.66 415.29 144.69 Z" />
<path fill="#f5e5c1" opacity="1.00" d=" M 274.54 144.69 C 278.32 144.73 282.10 144.72 285.88 144.67 C 286.20 148.63 286.17 152.61 286.14 156.58 C 282.26 156.57 278.38 156.56 274.50 156.60 C 274.47 152.63 274.46 148.66 274.54 144.69 Z" />
<path fill="#f5e5c1" opacity="1.00" d=" M 335.15 144.68 C 348.62 144.74 362.08 144.74 375.55 144.68 C 375.66 148.65 375.65 152.63 375.61 156.61 C 362.04 156.52 348.47 156.60 334.90 156.57 C 334.85 152.60 334.85 148.63 335.15 144.68 Z" />
<path fill="#f5e5c1" opacity="1.00" d=" M 123.38 150.30 C 123.18 148.12 125.17 146.84 126.45 145.39 C 134.12 145.74 141.86 145.21 149.50 146.24 C 149.38 156.28 149.53 166.33 149.42 176.38 C 141.80 176.25 134.24 177.13 126.65 177.40 C 125.59 176.61 124.54 175.82 123.48 175.05 C 123.04 166.81 123.26 158.54 123.38 150.30 Z" />
<path fill="#f5e5c1" opacity="1.00" d=" M 305.84 145.19 C 308.96 145.19 312.08 145.19 315.20 145.19 C 315.20 148.99 315.20 152.79 315.19 156.59 C 312.07 156.57 308.96 156.57 305.85 156.58 C 305.84 152.78 305.84 148.99 305.84 145.19 Z" />
<path fill="#f5e5c1" opacity="1.00" d=" M 187.69 147.63 C 206.22 147.33 224.75 147.09 243.28 147.39 C 243.26 152.42 243.23 157.44 243.30 162.47 C 224.72 161.84 206.10 162.76 187.53 161.98 C 187.57 157.20 187.63 152.41 187.69 147.63 Z" />
<path fill="#f5e5c1" opacity="1.00" d=" M 393.20 159.58 C 394.30 159.61 395.40 159.64 396.51 159.68 C 396.58 163.68 396.57 167.68 396.55 171.68 C 395.40 171.68 394.25 171.67 393.10 171.67 C 393.10 167.64 393.08 163.61 393.20 159.58 Z" />
<path fill="#f5e5c1" opacity="1.00" d=" M 415.30 159.70 C 417.13 159.72 418.96 159.74 420.80 159.74 C 421.08 163.88 421.13 168.03 420.71 172.16 C 418.94 172.15 417.17 172.15 415.41 172.15 C 415.10 168.01 415.12 163.85 415.30 159.70 Z" />
<path fill="#f5e5c1" opacity="1.00" d=" M 274.53 159.65 C 278.39 159.69 282.26 159.68 286.13 159.67 C 286.15 163.67 286.15 167.66 286.14 171.65 C 282.25 171.64 278.37 171.64 274.49 171.67 C 274.47 167.67 274.47 163.66 274.53 159.65 Z" />
<path fill="#f5e5c1" opacity="1.00" d=" M 335.12 159.65 C 348.60 159.70 362.08 159.69 375.56 159.64 C 375.65 163.65 375.64 167.66 375.63 171.67 C 362.05 171.61 348.47 171.66 334.89 171.65 C 334.86 167.65 334.86 163.64 335.12 159.65 Z" />
<path fill="#f5e5c1" opacity="1.00" d=" M 305.84 160.14 C 308.96 160.14 312.08 160.14 315.20 160.13 C 315.20 163.97 315.20 167.81 315.20 171.66 C 312.08 171.65 308.96 171.65 305.84 171.65 C 305.84 167.81 305.84 163.97 305.84 160.14 Z" />
<path fill="#f5e5c1" opacity="1.00" d=" M 187.52 166.32 C 206.11 166.21 224.70 166.31 243.30 166.27 C 243.23 171.72 243.24 177.18 243.26 182.63 C 224.64 182.86 206.02 182.70 187.39 182.71 C 187.47 177.25 187.49 171.78 187.52 166.32 Z" />
<path fill="#f5e5c1" opacity="1.00" d=" M 83.02 169.21 C 85.10 169.26 87.17 169.35 89.24 169.47 C 89.51 177.31 89.82 185.23 88.67 193.03 C 88.46 195.21 88.42 197.40 88.40 199.59 C 86.83 200.81 85.25 202.38 83.11 202.35 C 62.87 204.65 42.74 208.02 22.46 209.80 C 22.26 196.61 23.89 183.51 23.57 170.31 C 29.06 169.56 34.63 169.56 40.16 169.52 C 43.25 173.56 46.74 177.27 50.66 180.52 C 61.11 180.57 71.56 180.47 82.01 180.51 C 83.90 180.41 86.13 180.78 87.42 179.05 C 87.78 175.25 84.55 172.41 83.02 169.21 Z" />
<path fill="#f5722c" opacity="1.00" d=" M 105.55 184.19 C 109.95 180.34 113.72 175.78 116.59 170.67 C 116.66 175.65 118.51 181.29 123.37 183.47 C 128.19 184.61 133.21 183.84 138.11 184.05 C 127.01 192.96 117.21 203.51 109.24 215.30 C 109.11 206.86 109.53 198.39 109.03 189.96 C 109.11 187.44 107.46 185.57 105.55 184.19 Z" />
<path fill="#f5e5c1" opacity="1.00" d=" M 393.13 174.58 C 394.27 174.59 395.41 174.60 396.55 174.62 C 396.56 178.66 396.57 182.71 396.55 186.75 C 395.40 186.74 394.24 186.72 393.10 186.71 C 393.10 182.66 393.09 178.62 393.13 174.58 Z" />
<path fill="#f5e5c1" opacity="1.00" d=" M 415.22 174.68 C 417.07 174.73 418.92 174.77 420.78 174.80 C 421.06 178.77 421.03 182.75 420.99 186.73 C 419.05 186.72 417.11 186.71 415.18 186.71 C 415.18 182.70 415.17 178.69 415.22 174.68 Z" />
<path fill="#f5e5c1" opacity="1.00" d=" M 274.50 174.60 C 278.38 174.64 282.26 174.64 286.14 174.63 C 286.15 178.66 286.14 182.68 286.14 186.71 C 282.25 186.70 278.37 186.70 274.48 186.74 C 274.47 182.70 274.47 178.65 274.50 174.60 Z" />
<path fill="#f5e5c1" opacity="1.00" d=" M 305.84 174.63 C 308.96 174.63 312.08 174.63 315.19 174.62 C 315.20 178.65 315.20 182.69 315.20 186.72 C 312.08 186.71 308.96 186.71 305.84 186.71 C 305.84 182.68 305.84 178.66 305.84 174.63 Z" />
<path fill="#f5e5c1" opacity="1.00" d=" M 334.90 174.64 C 348.47 174.62 362.04 174.67 375.61 174.61 C 375.64 178.65 375.64 182.69 375.63 186.73 C 362.05 186.68 348.47 186.71 334.90 186.71 C 334.89 182.68 334.89 178.66 334.90 174.64 Z" />
<path fill="#f5e5c1" opacity="1.00" d=" M 93.60 186.92 C 96.69 187.61 99.68 188.67 102.63 189.81 C 102.60 201.53 103.07 213.24 103.21 224.95 C 103.26 229.30 103.23 233.66 103.19 238.01 C 103.29 242.00 103.28 246.00 103.16 250.00 C 103.33 255.66 103.22 261.32 103.16 266.98 C 103.16 268.98 103.18 270.99 103.18 273.00 C 103.22 280.68 102.81 288.32 103.18 296.00 C 103.26 303.00 103.36 310.01 103.14 317.00 C 102.99 320.12 99.76 321.55 97.17 322.33 C 92.01 323.19 86.77 322.34 81.58 322.20 C 81.73 301.15 81.39 280.06 82.00 259.03 C 82.38 241.69 82.36 224.28 82.32 206.91 C 87.46 207.30 92.82 203.50 93.19 198.18 C 93.51 194.44 93.43 190.67 93.60 186.92 Z" />
<path fill="#f5e5c1" opacity="1.00" d=" M 186.60 202.53 C 187.57 197.31 187.31 192.00 187.42 186.73 C 205.69 186.84 223.97 186.56 242.23 186.86 C 242.44 187.13 242.86 187.68 243.08 187.95 C 243.49 192.81 243.23 197.71 243.02 202.58 C 224.21 202.59 205.40 202.69 186.60 202.53 Z" />
<path fill="#f5722c" opacity="1.00" d=" M 335.63 193.35 C 348.35 193.03 361.08 193.23 373.81 193.24 C 378.36 198.41 385.89 196.93 391.93 196.19 C 395.69 195.35 399.43 196.39 403.11 197.13 C 419.45 224.96 428.82 256.81 430.30 289.04 C 430.30 295.37 430.29 301.71 430.30 308.04 C 428.59 345.12 416.36 381.67 395.25 412.21 C 374.46 442.59 345.08 466.96 311.45 481.90 C 310.91 478.49 310.61 474.57 307.86 472.12 C 305.88 470.92 303.44 471.09 301.23 470.75 C 301.21 466.84 300.32 463.01 298.60 459.50 C 300.09 455.24 302.28 450.62 300.64 446.08 C 299.23 441.80 297.19 437.76 295.29 433.70 C 314.32 424.44 331.59 411.39 345.15 395.09 C 361.96 375.19 373.32 350.75 377.78 325.09 C 382.98 295.64 378.99 264.64 366.44 237.50 C 359.00 221.03 348.21 206.26 335.63 193.35 Z" />
<path fill="#f5e5c1" opacity="1.00" d=" M 250.27 197.48 C 252.76 197.22 255.24 196.90 257.73 196.62 C 257.47 199.14 258.26 202.23 256.26 204.22 C 254.82 205.96 252.38 206.03 250.36 206.58 C 250.27 203.55 250.27 200.51 250.27 197.48 Z" />
<path fill="#f5e5c1" opacity="1.00" d=" M 171.76 204.28 C 170.21 202.30 171.02 199.82 171.33 197.60 C 174.32 197.56 177.31 197.49 180.31 197.47 C 180.30 200.57 180.16 203.68 179.77 206.76 C 177.02 206.46 173.42 207.09 171.76 204.28 Z" />
<path fill="#f5e5c1" opacity="1.00" d=" M 12.16 219.99 C 11.38 212.87 11.58 203.96 18.40 199.70 C 18.31 203.15 17.81 206.57 17.57 210.02 C 18.01 211.03 18.44 212.05 18.87 213.08 C 19.34 213.47 20.27 214.25 20.74 214.65 C 22.97 214.55 25.20 214.46 27.43 214.37 C 27.87 237.93 27.23 261.52 28.30 285.05 C 28.34 295.93 28.58 306.81 28.67 317.69 C 24.71 317.18 20.35 316.57 17.45 313.55 C 14.55 310.84 13.19 306.87 13.26 302.97 C 12.38 275.32 12.58 247.64 12.16 219.99 Z" />
<path fill="#f5e5c1" opacity="1.00" d=" M 186.61 206.44 C 205.34 206.34 224.07 206.41 242.80 206.40 C 242.65 212.05 242.91 217.77 241.60 223.32 C 223.22 223.21 204.85 223.29 186.47 223.28 C 186.40 217.66 186.51 212.05 186.61 206.44 Z" />
<path fill="#f5e5c1" opacity="1.00" d=" M 34.18 213.37 C 47.90 211.53 61.60 209.37 75.39 208.25 C 73.95 245.59 74.81 283.01 74.17 320.37 C 74.00 320.62 73.67 321.12 73.51 321.37 C 60.83 320.41 48.18 318.95 35.49 318.32 C 35.05 299.90 35.78 281.45 34.73 263.05 C 34.60 246.49 34.32 229.93 34.18 213.37 Z" />
<path fill="#f5e5c1" opacity="1.00" d=" M 114.70 225.97 C 118.95 227.91 123.11 230.03 127.33 232.03 C 121.77 244.32 115.24 256.15 109.61 268.40 C 110.03 258.65 108.55 248.67 111.17 239.12 C 112.28 234.72 113.52 230.35 114.70 225.97 Z" />
<path fill="#f5e5c1" opacity="1.00" d=" M 186.35 227.30 C 204.79 227.25 223.24 227.27 241.68 227.28 C 241.72 232.64 240.96 237.94 240.40 243.26 C 222.57 243.15 204.72 243.46 186.89 243.12 C 186.64 242.86 186.14 242.35 185.89 242.10 C 186.28 237.17 186.43 232.24 186.35 227.30 Z" />
<path fill="#f5e5c1" opacity="1.00" d=" M 110.25 276.04 C 116.90 261.90 124.14 248.04 130.96 233.98 C 136.44 236.16 141.59 239.09 146.00 243.02 C 136.85 255.98 126.92 268.37 117.66 281.25 C 115.03 279.75 112.58 277.97 110.25 276.04 Z" />
<path fill="#f5e5c1" opacity="1.00" d=" M 148.88 245.92 C 153.90 249.45 158.60 253.47 162.91 257.84 C 152.53 268.52 142.55 279.58 132.14 290.22 C 131.31 291.36 129.96 290.57 129.10 289.96 C 126.36 288.01 123.61 286.07 121.07 283.87 C 121.46 282.79 122.08 281.82 122.74 280.89 C 131.47 269.25 140.32 257.69 148.88 245.92 Z" />
<path fill="#f5e5c1" opacity="1.00" d=" M 185.64 247.36 C 203.97 247.21 222.30 247.25 240.63 247.34 C 240.26 251.80 239.47 256.22 239.44 260.70 C 221.40 260.75 203.36 260.76 185.33 260.70 C 185.41 256.25 185.54 251.81 185.64 247.36 Z" />
<path fill="#f5e5c1" opacity="1.00" d=" M 134.60 293.37 C 144.98 282.62 155.27 271.77 165.37 260.76 C 169.44 264.34 173.34 268.23 176.37 272.75 C 177.52 274.31 175.35 275.45 174.50 276.50 C 167.92 282.26 161.62 288.33 155.08 294.14 C 151.19 297.64 147.66 301.56 143.28 304.48 C 140.48 300.70 137.21 297.29 134.60 293.37 Z" />
<path fill="#f5e5c1" opacity="1.00" d=" M 185.39 264.74 C 201.93 264.74 218.48 264.77 235.02 264.72 C 236.52 264.76 238.15 264.64 239.46 265.52 C 238.98 269.82 238.22 274.08 237.42 278.33 C 220.04 277.35 202.62 277.85 185.23 277.62 C 185.27 273.33 185.27 269.03 185.39 264.74 Z" />
<path fill="#f5e5c1" opacity="1.00" d=" M 245.58 272.67 C 251.69 277.80 257.88 282.85 263.90 288.09 C 265.67 289.63 267.13 291.48 268.29 293.52 C 271.19 298.61 274.16 303.82 275.14 309.68 C 276.13 315.71 276.01 321.94 274.86 327.94 C 273.73 337.79 267.22 345.68 262.91 354.28 C 255.64 337.01 248.91 319.52 241.77 302.20 C 240.84 299.50 241.63 296.65 242.01 293.93 C 243.34 286.87 244.14 279.71 245.58 272.67 Z" />
<path fill="#f5e5c1" opacity="1.00" d=" M 146.18 307.82 C 156.58 297.97 167.43 288.60 177.70 278.60 C 178.05 286.01 177.41 293.53 175.04 300.59 C 168.34 307.05 160.60 312.39 153.67 318.62 C 151.39 314.88 149.06 311.14 146.18 307.82 Z" />
<path fill="#f5e5c1" opacity="1.00" d=" M 183.63 294.49 C 184.61 290.23 184.78 285.85 184.76 281.50 C 202.11 281.36 219.44 282.26 236.79 282.24 C 236.23 287.44 235.26 292.59 234.43 297.76 C 217.49 296.87 200.58 295.34 183.63 294.49 Z" />
<path fill="#f5e5c1" opacity="1.00" d=" M 182.80 298.33 C 199.79 299.33 216.74 300.79 233.73 301.62 C 233.22 306.40 232.36 311.14 231.37 315.85 C 214.33 314.61 197.40 312.15 180.40 310.43 C 181.32 306.42 182.16 302.39 182.80 298.33 Z" />
<path fill="#f5e5c1" opacity="1.00" d=" M 155.65 322.04 C 161.69 316.97 167.85 312.04 173.90 307.00 C 173.05 313.11 171.81 319.16 170.47 325.18 C 167.17 327.38 164.05 329.81 160.96 332.29 C 159.48 328.73 157.58 325.37 155.65 322.04 Z" />
<path fill="#f5e5c1" opacity="1.00" d=" M 179.71 314.32 C 196.64 316.41 213.69 317.72 230.55 320.31 C 229.36 324.41 228.43 328.57 227.43 332.72 C 210.80 330.21 194.18 327.69 177.54 325.28 C 178.30 321.63 179.01 317.98 179.71 314.32 Z" />
<path fill="#f5e5c1" opacity="1.00" d=" M 239.06 313.22 C 241.38 315.19 242.10 318.23 243.25 320.91 C 255.45 350.95 267.88 380.89 279.90 411.00 C 285.34 424.07 289.94 437.47 295.68 450.41 C 284.70 454.87 273.65 459.36 262.24 462.62 C 257.39 450.68 253.63 438.32 249.18 426.23 C 241.60 404.64 234.06 383.03 226.41 361.47 C 226.00 360.08 225.27 358.58 225.90 357.14 C 228.64 349.06 232.64 341.40 234.51 333.03 C 236.04 326.43 237.61 319.84 239.06 313.22 Z" />
<path fill="#f5722c" opacity="1.00" d=" M 30.43 323.13 C 37.64 324.32 44.73 326.30 52.08 326.23 C 58.36 327.33 64.76 326.78 71.05 327.73 C 73.26 328.02 75.47 327.61 77.68 327.57 C 80.53 327.73 83.26 328.67 86.03 329.29 C 88.33 340.49 91.83 351.46 96.77 361.78 C 91.81 360.48 86.15 358.49 81.34 361.38 C 75.75 364.18 76.07 371.25 74.31 376.40 C 71.14 383.63 70.62 391.63 68.37 399.15 C 67.36 403.70 65.76 408.07 64.39 412.51 C 56.77 400.50 49.51 388.18 44.29 374.90 C 37.17 358.42 33.31 340.78 30.43 323.13 Z" />
<path fill="#f5e5c1" opacity="1.00" d=" M 169.85 330.29 C 168.04 334.30 167.98 338.96 165.43 342.67 C 164.76 342.33 163.44 341.63 162.78 341.29 C 162.61 339.55 162.44 337.83 162.29 336.10 C 164.87 334.25 167.47 332.40 169.85 330.29 Z" />
<path fill="#f5e5c1" opacity="1.00" d=" M 176.68 329.19 C 193.35 331.52 209.99 334.03 226.62 336.61 C 224.93 340.03 223.61 343.61 222.31 347.20 C 206.45 344.63 190.95 340.20 175.19 337.09 C 175.57 334.43 176.09 331.80 176.68 329.19 Z" />
<path fill="#f5e5c1" opacity="1.00" d=" M 174.04 341.18 C 184.48 342.66 194.64 345.67 204.96 347.76 C 210.21 348.99 215.53 349.94 220.67 351.60 C 220.12 352.70 219.57 353.78 219.03 354.90 C 203.28 352.04 187.92 347.36 172.25 344.15 C 172.86 343.17 173.46 342.18 174.04 341.18 Z" />
<path fill="#f5e5c1" opacity="1.00" d=" M 170.18 348.80 C 171.87 348.42 173.62 348.24 175.30 348.73 C 186.82 351.60 198.36 354.34 209.89 357.14 C 211.32 357.33 212.37 358.28 213.33 359.28 C 206.73 358.68 200.14 357.80 193.83 355.70 C 185.97 353.31 177.81 351.87 170.18 348.80 Z" />
<path fill="#f5e5c1" opacity="1.00" d=" M 84.52 366.29 C 90.75 365.95 96.53 368.57 102.49 369.95 C 103.19 376.39 100.99 382.58 100.01 388.86 C 98.04 403.77 93.95 418.27 91.25 433.05 C 87.54 451.11 84.29 469.28 80.35 487.29 C 71.01 486.98 61.60 487.85 52.30 486.69 C 53.23 483.44 54.12 480.18 54.88 476.89 C 61.95 449.93 68.89 422.93 75.83 395.93 C 77.89 388.29 79.84 380.62 81.76 372.95 C 82.34 370.60 83.34 368.39 84.52 366.29 Z" />
<path fill="#f5e5c1" opacity="1.00" d=" M 206.38 420.33 C 212.98 404.55 219.21 388.63 225.93 372.90 C 228.47 382.44 232.39 391.55 235.39 400.94 C 236.30 403.21 235.55 405.60 234.58 407.71 C 230.30 417.29 226.29 426.98 221.93 436.53 C 220.37 436.44 218.64 436.77 217.30 435.77 C 212.82 432.95 208.71 429.58 204.14 426.91 C 204.69 424.65 205.46 422.46 206.38 420.33 Z" />
<path fill="#f5e5c1" opacity="1.00" d=" M 170.31 377.70 C 173.81 376.87 177.38 376.29 180.99 376.55 C 179.55 386.48 176.28 396.03 174.18 405.83 C 172.64 405.22 169.62 405.40 169.78 403.08 C 170.00 394.63 170.35 386.17 170.31 377.70 Z" />
<path fill="#f5e5c1" opacity="1.00" d=" M 123.06 387.16 C 137.26 384.12 151.59 381.71 165.75 378.49 C 166.03 380.70 166.27 382.93 166.07 385.16 C 165.50 392.13 165.96 399.12 165.63 406.10 C 150.38 408.29 135.25 411.32 120.03 413.77 C 113.13 414.80 106.32 416.49 99.33 416.83 C 101.36 408.19 102.83 399.44 104.73 390.77 C 109.48 389.78 114.27 388.92 119.00 387.83 C 120.35 387.60 121.71 387.38 123.06 387.16 Z" />
<path fill="#f5e5c1" opacity="1.00" d=" M 184.74 379.85 C 192.76 386.39 200.87 392.82 208.88 399.36 C 210.58 400.37 209.31 402.52 208.90 403.93 C 206.06 410.61 203.41 417.36 200.59 424.04 C 192.96 419.24 185.88 413.61 178.21 408.87 C 178.26 406.57 178.45 404.26 179.09 402.05 C 181.05 394.67 182.81 387.24 184.74 379.85 Z" />
<path fill="#f5e5c1" opacity="1.00" d=" M 156.42 416.73 C 161.44 413.99 166.45 409.43 172.58 410.51 C 182.27 416.73 191.43 423.80 201.11 430.06 C 201.23 430.32 201.48 430.84 201.60 431.10 C 192.98 433.43 184.51 436.27 175.98 438.89 C 167.42 441.54 158.90 444.37 150.31 446.95 C 151.57 440.97 152.81 434.99 153.91 428.98 C 154.79 424.91 155.53 420.80 156.42 416.73 Z" />
<path fill="#3e3e3e" opacity="1.00" d=" M 212.54 419.44 C 214.00 418.36 215.49 417.33 217.01 416.33 C 218.86 417.44 221.90 418.32 221.71 421.03 C 222.26 423.78 219.71 426.30 216.98 425.94 C 215.13 426.07 213.89 424.55 212.54 423.56 C 212.55 422.18 212.54 420.81 212.54 419.44 Z" />
<path fill="#f5e5c1" opacity="1.00" d=" M 122.15 470.79 C 124.93 452.92 128.99 435.25 131.66 417.36 C 138.06 418.53 144.90 417.74 150.90 420.60 C 147.85 437.20 143.91 453.63 141.17 470.28 C 134.84 470.67 128.49 470.72 122.15 470.79 Z" />
<path fill="#f5e5c1" opacity="1.00" d=" M 214.62 419.96 C 215.23 419.64 216.44 418.99 217.04 418.67 C 217.69 418.96 218.99 419.53 219.63 419.82 C 219.60 421.11 219.56 422.40 219.52 423.71 C 217.89 423.69 216.25 423.63 214.63 423.54 C 214.62 422.34 214.62 421.15 214.62 419.96 Z" />
<path fill="#f5722c" opacity="1.00" d=" M 99.94 423.44 C 108.31 422.26 116.64 420.72 125.06 419.87 C 124.02 423.61 124.95 428.94 120.82 430.92 C 115.05 434.71 107.52 436.49 103.77 442.79 C 102.19 446.28 102.90 450.25 102.91 453.96 C 100.17 451.73 97.47 449.46 94.84 447.09 C 95.27 443.97 95.85 440.85 96.89 437.87 C 98.49 433.20 98.94 428.25 99.94 423.44 Z" />
<path fill="#3e3e3e" opacity="1.00" d=" M 267.46 433.59 C 272.56 430.47 280.41 432.65 282.33 438.62 C 282.98 441.94 283.20 445.97 280.61 448.57 C 277.98 451.87 273.12 453.50 269.19 451.65 C 264.59 449.90 261.51 444.52 262.93 439.71 C 263.61 437.18 265.34 435.06 267.46 433.59 Z" />
<path fill="#f5e5c1" opacity="1.00" d=" M 271.43 437.56 C 274.72 436.61 278.55 439.46 277.71 443.03 C 277.99 447.66 270.76 449.27 268.55 445.41 C 266.35 442.72 268.15 438.29 271.43 437.56 Z" />
<path fill="#f5e5c1" opacity="1.00" d=" M 109.44 445.06 C 114.23 442.47 118.74 439.37 123.58 436.87 C 122.55 442.96 121.32 449.01 120.23 455.08 C 117.47 455.95 114.73 456.97 111.86 457.40 C 107.96 454.63 109.52 449.14 109.44 445.06 Z" />
<path fill="#f5722c" opacity="1.00" d=" M 186.51 442.47 C 189.44 441.63 192.37 442.78 195.20 443.46 C 212.87 448.17 231.37 448.80 249.50 447.12 C 250.40 450.48 251.23 453.92 252.90 457.01 C 255.26 461.43 255.66 467.47 260.97 469.58 C 258.83 471.77 255.55 470.66 252.86 471.10 C 249.13 470.93 246.01 474.26 245.98 477.91 C 245.50 484.84 245.93 491.80 245.78 498.75 C 240.17 499.00 234.55 499.02 228.93 499.00 C 210.02 499.43 191.19 496.15 173.03 491.02 C 172.87 485.70 173.53 480.32 172.65 475.05 C 171.91 472.10 170.02 469.00 166.86 468.29 C 160.82 467.06 154.61 467.92 148.50 467.98 C 149.22 463.23 150.00 458.50 150.61 453.74 C 157.93 450.37 166.19 449.93 173.46 446.50 C 177.62 444.61 182.08 443.52 186.51 442.47 Z" />
<path fill="#f5e5c1" opacity="1.00" d=" M 272.56 464.61 C 279.49 463.82 286.45 463.50 293.43 463.52 C 294.09 465.89 294.51 468.31 294.82 470.76 C 287.30 470.72 279.78 470.76 272.27 470.76 C 272.36 468.71 272.46 466.66 272.56 464.61 Z" />
<path fill="#f5e5c1" opacity="1.00" d=" M 115.50 475.81 C 131.00 475.68 146.43 474.04 161.95 474.18 C 163.51 474.35 165.56 473.95 166.36 475.71 C 166.80 481.81 166.43 487.95 166.39 494.06 C 166.48 496.46 165.74 499.39 163.21 500.28 C 157.85 501.02 152.41 500.49 147.01 500.64 C 136.97 500.50 126.91 500.96 116.88 500.35 C 116.55 499.86 115.88 498.88 115.55 498.39 C 115.65 490.86 115.43 483.34 115.50 475.81 Z" />
<path fill="#f5e5c1" opacity="1.00" d=" M 252.28 478.21 C 269.73 478.71 287.19 476.86 304.62 478.16 C 304.17 485.18 305.46 492.13 305.30 499.12 C 305.46 500.87 303.41 501.45 302.03 501.26 C 285.47 501.28 268.92 501.22 252.37 501.28 C 252.14 493.59 252.24 485.90 252.28 478.21 Z" />
<path fill="#f5e5c1" opacity="1.00" d=" M 26.80 491.38 C 53.68 491.32 80.56 491.68 107.44 491.77 C 107.52 494.31 107.50 496.85 107.43 499.40 C 105.36 500.14 103.21 500.75 100.99 500.68 C 78.98 500.67 56.97 500.66 34.96 500.68 C 32.15 500.68 29.35 500.46 26.56 500.19 C 26.43 497.25 26.59 494.31 26.80 491.38 Z" />
</svg>
