<?xml version="1.0" encoding="UTF-8" ?>
<!DOCTYPE svg PUBLIC "-//W3C//DTD SVG 1.1//EN" "http://www.w3.org/Graphics/SVG/1.1/DTD/svg11.dtd">
<svg width="512pt" height="512pt" viewBox="0 0 512 512" version="1.1" xmlns="http://www.w3.org/2000/svg">
<path fill="#3e3e3e" opacity="1.00" d=" M 0.00 0.00 L 23.59 0.00 C 18.20 19.15 12.91 38.33 7.48 57.47 C 40.46 74.16 73.43 90.84 106.45 107.44 C 103.70 99.96 100.81 92.52 98.03 85.04 C 125.36 98.46 152.62 112.04 179.95 125.45 C 175.68 117.14 171.32 108.87 167.04 100.56 C 180.50 109.42 193.82 118.50 207.32 127.31 C 205.12 124.05 202.85 120.82 200.09 118.00 C 178.70 96.22 157.42 74.34 136.03 52.57 C 137.82 61.02 139.68 69.46 141.47 77.92 C 119.59 55.85 97.86 33.64 76.01 11.54 C 76.66 20.86 77.35 30.17 78.00 39.48 C 60.58 26.38 43.33 13.04 25.86 0.00 L 512.00 0.00 L 512.00 512.00 L 0.00 512.00 L 0.00 0.00 Z" />
<path fill="#f5722c" opacity="1.00" d=" M 23.59 0.00 L 25.86 0.00 C 43.33 13.04 60.58 26.38 78.00 39.48 C 77.35 30.17 76.66 20.86 76.01 11.54 C 97.86 33.64 119.59 55.85 141.47 77.92 C 139.68 69.46 137.82 61.02 136.03 52.57 C 157.42 74.34 178.70 96.22 200.09 118.00 C 202.85 120.82 205.12 124.05 207.32 127.31 C 193.82 118.50 180.50 109.42 167.04 100.56 C 171.32 108.87 175.68 117.14 179.95 125.45 C 152.62 112.04 125.36 98.46 98.03 85.04 C 100.81 92.52 103.70 99.96 106.45 107.44 C 73.43 90.84 40.46 74.16 7.48 57.47 C 12.91 38.33 18.20 19.15 23.59 0.00 Z" />
<path fill="#f5722c" opacity="1.00" d=" M 274.80 57.35 C 324.26 48.09 373.64 38.35 423.08 29.00 C 428.97 27.74 435.20 28.30 440.51 31.25 C 421.12 35.33 401.56 38.63 382.09 42.34 C 341.33 50.08 300.52 57.47 259.80 65.37 C 263.86 61.30 269.14 58.42 274.80 57.35 Z" />
<path fill="#f5722c" opacity="1.00" d=" M 441.03 33.29 C 444.22 32.72 447.43 32.27 450.66 31.97 C 456.03 51.78 460.20 71.90 464.92 91.87 C 465.26 93.64 465.49 95.43 465.61 97.23 C 463.91 96.33 463.61 94.41 463.09 92.79 C 459.93 80.71 455.44 69.02 452.00 57.03 C 451.63 50.97 449.77 45.23 448.03 39.46 C 445.87 38.62 443.57 37.96 441.26 38.55 C 379.54 51.13 317.94 64.38 256.00 75.83 C 251.81 76.22 251.51 81.13 250.85 84.36 C 249.76 96.04 246.04 107.27 244.86 118.93 C 242.76 103.56 240.80 88.16 239.35 72.72 C 241.19 71.12 243.34 69.88 245.83 69.70 C 253.58 68.78 261.04 66.45 268.75 65.29 C 326.18 54.64 383.60 43.92 441.03 33.29 Z" />
<path fill="#f5e5c1" opacity="1.00" d=" M 426.80 52.31 C 430.74 52.13 434.69 52.11 438.65 52.18 C 437.98 59.07 436.54 65.87 436.05 72.79 C 438.71 74.56 440.62 77.58 439.68 80.88 C 438.68 85.32 433.80 86.74 429.89 87.40 C 426.73 86.52 423.33 84.70 422.73 81.14 C 421.94 77.07 425.51 74.19 428.55 72.28 C 427.39 65.69 425.90 59.04 426.80 52.31 Z" />
<path fill="#f5722c" opacity="1.00" d=" M 440.39 55.36 C 443.39 55.83 446.44 55.91 449.47 55.72 C 454.04 68.85 458.58 81.99 463.08 95.15 C 467.60 114.35 474.38 132.98 479.51 152.01 C 479.70 160.46 479.39 168.96 478.91 177.39 C 475.60 192.55 471.52 207.54 468.19 222.68 C 466.19 223.39 464.16 224.05 462.05 224.29 C 442.00 226.65 421.99 229.38 401.94 231.72 C 395.71 224.38 389.50 217.01 383.22 209.71 C 381.02 207.07 376.96 206.45 374.00 208.14 C 349.48 220.18 325.11 232.55 300.57 244.54 C 291.89 247.23 282.65 247.43 273.78 249.30 C 265.75 238.54 258.25 227.39 250.33 216.55 C 248.67 214.19 246.30 212.19 245.47 209.35 C 244.46 203.89 246.26 198.45 246.30 192.99 C 246.32 187.58 247.28 182.25 247.63 176.86 C 249.20 162.52 250.09 148.10 252.22 133.82 C 255.04 118.67 258.27 103.59 261.69 88.56 C 316.00 78.30 370.31 68.07 424.65 57.94 C 424.77 59.70 424.90 61.45 425.03 63.20 C 419.05 63.92 413.27 66.13 407.18 65.87 C 401.75 65.68 396.37 64.81 390.94 64.50 C 391.25 66.19 391.61 67.87 391.74 69.59 C 387.54 70.98 383.03 71.14 378.71 72.00 C 380.86 85.53 383.13 99.05 384.97 112.63 C 407.78 108.65 430.57 104.57 453.34 100.34 C 450.17 86.80 446.46 73.36 444.00 59.68 C 442.51 59.70 441.04 59.72 439.56 59.75 C 439.84 58.28 440.11 56.82 440.39 55.36 Z" />
<path fill="#f5e5c1" opacity="1.00" d=" M 394.07 67.17 C 397.98 67.46 401.87 67.90 405.74 68.53 C 405.44 71.68 404.96 74.82 404.44 77.94 C 406.97 79.20 410.29 80.88 409.89 84.27 C 410.51 93.98 393.91 97.31 390.57 88.17 C 389.51 84.23 392.64 81.19 395.36 78.91 C 394.86 75.01 394.38 71.10 394.07 67.17 Z" />
<path fill="#3e3e3e" opacity="1.00" d=" M 275.04 97.35 C 305.38 92.11 335.67 86.50 366.03 81.35 C 369.60 84.13 374.59 86.22 375.51 91.19 C 379.52 115.19 383.31 139.24 387.35 163.24 C 387.51 164.98 388.03 166.81 387.56 168.54 C 385.49 173.12 382.47 178.34 376.89 178.85 C 340.90 184.59 304.86 190.04 268.86 195.78 C 265.50 196.61 262.48 194.58 259.50 193.36 C 259.54 184.91 259.61 176.45 259.01 168.01 C 258.84 148.67 258.98 129.32 258.77 109.98 C 258.24 106.12 261.65 103.55 264.06 101.12 C 266.95 98.19 271.23 98.00 275.04 97.35 Z" />
<path fill="#f5722c" opacity="1.00" d=" M 57.29 97.70 C 81.06 108.84 104.69 120.27 128.44 131.44 C 123.87 123.13 119.16 114.89 114.57 106.59 C 148.87 125.20 183.04 144.04 217.34 162.65 C 222.87 165.24 226.72 170.13 231.38 173.90 C 207.25 165.74 183.21 157.28 159.10 149.07 C 165.65 154.90 172.33 160.58 178.86 166.44 C 154.93 161.28 131.06 155.88 107.14 150.74 C 105.45 150.39 103.69 149.91 102.60 148.46 C 87.53 131.51 72.27 114.73 57.29 97.70 Z" />
<path fill="#f5e5c1" opacity="1.00" d=" M 326.09 100.16 C 336.87 98.19 347.60 101.29 358.30 102.42 C 360.02 117.65 361.82 132.87 363.68 148.08 C 361.95 149.63 360.72 152.59 358.00 152.35 C 341.38 152.29 324.79 154.26 308.57 157.82 C 299.59 159.20 291.57 164.26 282.44 164.98 C 281.07 161.48 281.58 157.69 281.56 154.03 C 281.68 140.54 281.76 127.05 281.67 113.57 C 288.60 109.86 296.08 107.32 303.21 104.05 C 310.25 100.36 318.46 101.36 326.09 100.16 Z" />
<path fill="#3e3e3e" opacity="1.00" d=" M 427.47 110.65 C 434.04 109.47 440.95 111.55 445.50 116.51 C 449.31 121.01 453.79 125.43 455.19 131.38 C 457.32 139.10 454.95 147.68 449.49 153.47 C 442.97 160.60 432.31 163.40 423.08 160.76 C 415.60 158.58 409.10 152.77 406.86 145.21 C 404.46 138.24 406.11 130.27 410.52 124.47 C 413.67 120.36 417.08 116.38 421.05 113.04 C 422.83 111.50 425.19 110.96 427.47 110.65 Z" />
<path fill="#f5e5c1" opacity="1.00" d=" M 428.95 112.68 C 438.78 111.02 449.98 119.60 448.56 130.02 C 447.82 140.13 436.56 147.48 426.97 144.58 C 418.72 142.82 412.93 133.88 414.83 125.64 C 416.44 119.13 422.32 113.69 428.95 112.68 Z" />
<path fill="#3e3e3e" opacity="1.00" d=" M 356.10 121.22 C 356.63 121.20 357.67 121.14 358.20 121.12 C 358.51 125.90 359.42 130.62 359.71 135.41 C 359.19 135.40 358.15 135.38 357.63 135.38 C 357.32 132.78 356.96 130.18 356.55 127.60 C 353.85 128.18 351.12 128.62 348.37 128.88 C 348.67 131.45 349.07 134.01 349.45 136.57 C 348.54 136.59 347.63 136.61 346.73 136.63 C 346.55 134.21 346.38 131.78 346.21 129.35 C 343.57 129.64 340.95 130.06 338.33 130.51 C 338.58 133.29 338.81 136.08 338.68 138.88 C 335.50 137.71 336.55 133.69 335.70 131.09 C 333.23 131.34 330.77 131.66 328.31 132.01 C 328.26 134.44 328.23 136.87 328.21 139.30 C 327.80 139.47 326.99 139.82 326.58 139.99 C 326.39 137.48 326.24 134.96 326.13 132.44 C 323.02 132.92 319.91 133.45 316.78 133.83 C 316.72 136.37 316.68 138.92 316.41 141.46 C 314.83 136.94 315.07 132.03 314.23 127.35 C 314.87 127.29 316.16 127.16 316.80 127.10 C 316.74 128.66 316.68 130.21 316.62 131.78 C 319.68 131.56 322.74 131.26 325.76 130.71 C 325.64 128.98 325.54 127.26 325.45 125.54 C 326.39 125.45 327.34 125.37 328.29 125.28 C 328.28 127.01 328.29 128.74 328.30 130.47 C 330.70 130.06 333.09 129.64 335.49 129.23 C 335.36 127.52 335.24 125.80 335.14 124.09 C 335.73 124.10 336.90 124.12 337.49 124.13 C 337.56 125.64 337.64 127.15 337.72 128.67 C 340.32 128.48 342.91 128.26 345.51 128.07 C 345.50 126.23 345.46 124.40 345.44 122.56 C 345.93 122.47 346.92 122.30 347.42 122.22 C 347.78 123.96 348.16 125.70 348.53 127.45 C 351.17 126.95 353.84 126.55 356.52 126.27 C 356.38 124.59 356.24 122.90 356.10 121.22 Z" />
<path fill="#3e3e3e" opacity="1.00" d=" M 286.64 132.44 C 293.11 130.69 299.82 130.00 306.46 129.13 C 306.49 133.25 306.55 137.36 306.75 141.48 C 305.75 140.54 304.77 139.59 303.70 138.75 C 298.45 139.48 293.20 140.43 288.03 141.66 C 287.74 142.55 287.15 144.32 286.86 145.21 C 286.68 140.95 286.82 136.70 286.64 132.44 Z" />
<path fill="#3e3e3e" opacity="1.00" d=" M 460.55 152.71 C 463.52 151.19 466.77 152.44 469.66 153.52 C 469.55 155.46 469.90 157.82 468.08 159.13 C 464.83 161.87 460.23 160.72 457.17 158.30 C 457.85 156.24 457.97 153.30 460.55 152.71 Z" />
<path fill="#3e3e3e" opacity="1.00" d=" M 453.59 171.67 C 459.54 170.65 465.83 168.75 471.74 171.03 C 471.12 173.10 470.54 175.19 470.03 177.29 C 468.40 178.25 466.76 179.27 464.87 179.56 C 398.72 189.83 332.58 200.08 266.45 210.48 C 259.99 211.41 253.01 213.57 246.77 210.58 C 248.96 209.29 251.24 208.07 253.78 207.64 C 320.39 195.68 386.99 183.66 453.59 171.67 Z" />
<path fill="#f5722c" opacity="1.00" d=" M 174.56 183.57 C 195.53 192.52 216.39 201.73 237.36 210.66 C 241.19 212.14 243.48 215.76 246.38 218.45 C 232.09 215.02 217.83 211.47 203.55 208.03 C 208.00 212.70 212.50 217.31 216.95 221.98 C 149.15 229.38 81.33 236.65 13.53 244.00 C 25.88 228.88 38.33 213.83 50.67 198.69 C 51.59 197.83 52.38 196.24 53.90 196.62 C 77.28 197.83 100.66 199.25 124.04 200.50 C 144.69 201.37 165.36 202.14 186.02 203.03 C 182.20 196.54 178.38 190.05 174.56 183.57 Z" />
<path fill="#3e3e3e" opacity="1.00" d=" M 246.23 202.97 C 244.40 197.09 252.57 193.99 256.17 197.98 C 256.77 200.12 255.56 202.65 253.39 203.30 C 251.07 204.37 248.57 203.37 246.23 202.97 Z" />
<path fill="#f5e5c1" opacity="1.00" d=" M 246.24 278.21 C 290.20 256.46 334.10 234.57 378.05 212.80 C 407.13 247.05 436.23 281.29 465.32 315.52 C 467.68 318.24 470.03 320.97 472.12 323.91 C 471.71 324.26 470.89 324.94 470.48 325.29 C 420.36 315.57 370.15 306.30 320.03 296.58 C 297.41 292.15 274.77 287.87 252.14 283.53 C 248.57 282.87 244.96 282.32 241.55 281.02 C 243.06 280.01 244.61 279.03 246.24 278.21 Z" />
<path fill="#f5722c" opacity="1.00" d=" M 136.72 253.44 C 165.55 248.77 194.32 243.74 223.16 239.15 C 216.02 242.28 209.02 245.75 201.76 248.60 C 162.52 262.07 123.29 275.53 84.05 288.98 C 91.79 280.49 99.66 272.10 107.38 263.59 C 78.89 272.63 50.47 281.89 22.00 291.00 C 41.51 276.16 61.05 261.36 80.52 246.48 C 81.84 245.32 83.53 244.84 85.25 244.77 C 109.27 243.11 133.27 241.21 157.28 239.57 C 150.50 244.30 143.49 248.70 136.72 253.44 Z" />
<path fill="#f5e5c1" opacity="1.00" d=" M 230.47 359.63 C 259.89 349.47 287.63 330.80 303.21 303.28 C 333.04 308.90 362.86 314.54 392.63 320.45 C 377.59 350.20 357.65 377.47 333.78 400.75 C 307.10 426.94 275.51 447.89 241.69 463.71 C 209.33 478.86 174.96 489.64 139.85 496.23 C 116.84 500.67 93.47 503.55 70.01 504.03 C 63.23 492.91 58.34 480.79 53.20 468.86 C 37.29 430.37 22.99 391.23 9.00 352.00 C 39.53 359.88 70.49 366.32 101.87 369.69 C 144.77 374.16 189.27 373.79 230.47 359.63 Z" />
</svg>
