<?xml version="1.0" encoding="UTF-8" ?>
<!DOCTYPE svg PUBLIC "-//W3C//DTD SVG 1.1//EN" "http://www.w3.org/Graphics/SVG/1.1/DTD/svg11.dtd">
<svg width="512pt" height="512pt" viewBox="0 0 512 512" version="1.1" xmlns="http://www.w3.org/2000/svg">
<path fill="#f5e5c1" opacity="1.00" d=" M 0.00 0.00 L 0.02 0.00 C 0.01 0.02 0.00 0.07 0.00 0.10 L 0.00 0.00 Z" />
<path fill="#3e3e3e" opacity="1.00" d=" M 0.02 0.00 L 430.18 0.00 C 422.01 3.81 414.04 8.04 405.93 11.99 C 398.12 15.65 392.19 22.10 385.97 27.89 C 382.43 31.70 378.63 35.33 375.53 39.51 C 373.70 41.74 376.32 43.87 377.76 45.39 C 382.86 43.02 388.52 42.62 394.02 41.89 C 397.69 41.37 401.36 42.22 404.95 42.90 C 410.20 43.72 414.20 47.59 417.68 51.31 C 425.97 60.67 434.26 70.04 442.58 79.39 C 444.81 81.98 447.06 84.72 448.22 88.00 C 448.48 90.17 448.30 92.37 448.29 94.55 C 453.40 92.94 458.02 90.17 462.84 87.90 C 479.22 79.75 495.71 71.82 512.00 63.50 L 512.00 69.36 C 506.73 72.08 501.38 74.65 496.03 77.21 C 497.87 81.99 499.73 86.84 500.25 91.97 C 501.31 99.52 499.05 107.09 495.90 113.86 C 492.28 118.42 487.28 121.77 481.93 123.97 C 481.68 125.92 481.98 128.82 479.48 129.37 C 475.77 130.29 471.78 131.09 468.01 130.08 C 460.68 127.55 452.81 124.15 449.23 116.75 C 446.33 112.30 446.63 106.68 444.09 102.12 C 439.19 106.63 436.28 112.93 432.26 118.21 C 438.51 123.19 444.93 127.94 451.47 132.54 C 457.35 137.28 465.59 137.43 472.66 135.79 C 479.54 134.82 486.23 132.57 492.36 129.29 C 497.38 125.76 503.01 122.42 505.53 116.52 C 509.27 111.17 510.43 104.73 512.00 98.53 L 512.00 512.00 L 136.17 512.00 C 159.58 481.75 182.44 451.06 205.64 420.65 C 237.68 378.36 269.77 336.10 301.80 293.79 C 303.71 291.55 305.11 288.04 308.49 287.88 C 320.91 286.30 333.43 288.33 345.88 287.76 C 353.41 286.24 358.30 279.50 360.54 272.56 C 368.40 249.13 374.51 225.15 382.76 201.85 C 387.41 191.22 390.91 180.02 397.05 170.10 C 404.23 157.62 410.92 144.84 418.56 132.64 C 423.33 127.03 425.54 119.88 429.99 114.08 C 434.46 107.47 439.41 101.11 442.82 93.86 C 444.41 90.04 441.88 86.39 439.45 83.65 C 432.38 75.70 425.34 67.74 418.28 59.79 C 414.49 55.57 410.95 50.76 405.67 48.33 C 400.80 45.99 395.23 46.14 389.98 46.58 C 385.90 56.59 378.39 64.61 372.49 73.53 C 360.28 91.53 348.88 110.04 337.97 128.85 C 330.90 143.17 323.52 157.34 316.97 171.92 C 313.13 179.42 308.06 187.42 299.71 190.36 C 297.77 188.64 299.85 186.38 300.98 184.87 C 304.89 180.32 306.62 174.47 309.19 169.15 C 313.69 158.87 318.96 148.95 323.85 138.86 C 328.87 128.46 335.00 118.66 340.62 108.59 C 346.36 97.97 353.63 88.30 360.19 78.19 C 366.07 69.49 372.52 61.20 378.62 52.65 C 379.32 51.41 380.73 49.95 379.55 48.54 C 378.65 46.48 375.89 47.37 375.01 48.98 C 362.72 65.23 351.10 81.99 340.10 99.14 C 334.15 109.52 328.18 119.90 322.33 130.34 C 315.15 144.87 307.61 159.23 301.32 174.18 C 299.63 178.19 297.11 182.49 293.06 184.37 C 285.25 181.24 277.94 176.92 270.08 173.90 C 263.59 171.37 256.52 172.94 250.21 175.22 C 247.58 175.99 245.77 178.18 243.53 179.62 C 162.36 233.10 81.14 286.50 0.00 340.02 L 0.00 0.10 C 0.00 0.07 0.01 0.02 0.02 0.00 Z" />
<path fill="#f5e5c1" opacity="1.00" d=" M 430.18 0.00 L 436.94 0.00 C 428.32 4.37 419.67 8.67 411.05 13.04 C 404.20 16.55 396.63 19.44 391.48 25.44 C 388.16 29.35 384.63 33.09 381.33 37.01 C 381.71 37.42 382.47 38.23 382.84 38.63 C 387.66 37.55 392.24 35.42 397.19 34.92 C 400.36 34.93 403.48 35.69 406.63 36.04 C 415.53 28.73 424.61 21.63 434.07 15.06 C 442.68 9.33 452.76 6.10 461.13 0.00 L 485.67 0.00 C 473.31 6.22 460.93 12.42 448.54 18.57 C 444.66 20.38 440.72 22.76 438.81 26.77 C 435.49 33.06 437.56 41.52 443.47 45.50 C 448.02 48.87 454.37 48.97 459.30 46.34 C 476.87 37.56 494.46 28.80 512.00 19.97 L 512.00 63.50 C 495.71 71.82 479.22 79.75 462.84 87.90 C 458.02 90.17 453.40 92.94 448.29 94.55 C 448.30 92.37 448.48 90.17 448.22 88.00 C 447.06 84.72 444.81 81.98 442.58 79.39 C 434.26 70.04 425.97 60.67 417.68 51.31 C 414.20 47.59 410.20 43.72 404.95 42.90 C 401.36 42.22 397.69 41.37 394.02 41.89 C 388.52 42.62 382.86 43.02 377.76 45.39 C 376.32 43.87 373.70 41.74 375.53 39.51 C 378.63 35.33 382.43 31.70 385.97 27.89 C 392.19 22.10 398.12 15.65 405.93 11.99 C 414.04 8.04 422.01 3.81 430.18 0.00 Z" />
<path fill="#3e3e3e" opacity="1.00" d=" M 436.94 0.00 L 461.13 0.00 C 452.76 6.10 442.68 9.33 434.07 15.06 C 424.61 21.63 415.53 28.73 406.63 36.04 C 403.48 35.69 400.36 34.93 397.19 34.92 C 392.24 35.42 387.66 37.55 382.84 38.63 C 382.47 38.23 381.71 37.42 381.33 37.01 C 384.63 33.09 388.16 29.35 391.48 25.44 C 396.63 19.44 404.20 16.55 411.05 13.04 C 419.67 8.67 428.32 4.37 436.94 0.00 Z" />
<path fill="#3e3e3e" opacity="1.00" d=" M 485.67 0.00 L 496.72 0.00 C 481.43 7.26 466.37 15.01 451.10 22.29 C 447.24 21.69 444.93 25.22 442.94 27.91 C 440.10 32.04 442.62 38.21 447.25 39.72 C 449.74 40.87 452.46 39.94 454.74 38.76 C 473.77 29.21 493.03 20.11 512.00 10.42 L 512.00 19.97 C 494.46 28.80 476.87 37.56 459.30 46.34 C 454.37 48.97 448.02 48.87 443.47 45.50 C 437.56 41.52 435.49 33.06 438.81 26.77 C 440.72 22.76 444.66 20.38 448.54 18.57 C 460.93 12.42 473.31 6.22 485.67 0.00 Z" />
<path fill="#f5e5c1" opacity="1.00" d=" M 496.72 0.00 L 512.00 0.00 L 512.00 10.42 C 493.03 20.11 473.77 29.21 454.74 38.76 C 452.46 39.94 449.74 40.87 447.25 39.72 C 442.62 38.21 440.10 32.04 442.94 27.91 C 444.93 25.22 447.24 21.69 451.10 22.29 C 466.37 15.01 481.43 7.26 496.72 0.00 Z" />
<path fill="#f5e5c1" opacity="1.00" d=" M 389.98 46.58 C 395.23 46.14 400.80 45.99 405.67 48.33 C 410.95 50.76 414.49 55.57 418.28 59.79 C 425.34 67.74 432.38 75.70 439.45 83.65 C 441.88 86.39 444.41 90.04 442.82 93.86 C 439.41 101.11 434.46 107.47 429.99 114.08 C 425.54 119.88 423.33 127.03 418.56 132.64 C 410.92 144.84 404.23 157.62 397.05 170.10 C 390.91 180.02 387.41 191.22 382.76 201.85 C 374.51 225.15 368.40 249.13 360.54 272.56 C 358.30 279.50 353.41 286.24 345.88 287.76 C 333.43 288.33 320.91 286.30 308.49 287.88 C 305.11 288.04 303.71 291.55 301.80 293.79 C 269.77 336.10 237.68 378.36 205.64 420.65 C 182.44 451.06 159.58 481.75 136.17 512.00 L 121.93 512.00 C 106.68 493.26 91.54 474.44 76.20 455.79 C 76.39 454.97 76.59 454.15 76.78 453.34 C 74.06 449.74 69.70 447.26 68.54 442.63 C 67.90 443.10 67.27 443.58 66.64 444.06 C 65.45 442.51 64.25 440.98 63.06 439.44 C 63.55 438.62 64.54 436.97 65.03 436.14 C 64.26 436.65 62.71 437.67 61.94 438.18 C 55.46 429.99 48.76 421.98 42.19 413.87 C 38.72 409.40 36.34 404.25 33.72 399.28 C 32.34 396.42 28.86 395.25 27.80 392.19 C 25.06 384.70 22.79 377.01 21.40 369.16 C 21.63 364.71 25.94 362.41 29.05 359.98 C 74.79 325.08 120.55 290.22 166.24 255.27 C 169.03 253.17 172.73 252.71 175.32 250.28 C 183.84 243.10 192.47 236.05 201.02 228.91 C 203.47 226.70 206.85 226.21 210.00 225.83 C 203.31 229.55 197.68 234.70 191.75 239.47 C 193.10 239.56 194.45 239.66 195.81 239.76 C 207.22 230.38 218.52 220.82 230.10 211.67 C 230.62 211.88 231.65 212.31 232.17 212.53 C 232.58 212.12 233.42 211.31 233.83 210.90 C 233.64 210.43 233.25 209.48 233.06 209.00 C 244.17 199.60 255.76 190.78 267.98 182.87 C 274.81 185.73 281.53 188.87 288.39 191.66 C 289.81 192.36 291.19 191.41 291.48 189.94 C 287.93 186.74 283.30 185.13 279.23 182.72 C 274.02 180.20 269.03 176.21 262.96 176.41 C 258.04 176.47 253.35 178.45 249.52 181.46 C 243.98 185.65 238.02 189.26 232.59 193.59 C 224.60 200.15 215.68 205.43 207.17 211.25 C 166.35 238.43 125.48 265.53 84.68 292.74 C 82.15 294.57 77.98 293.79 77.25 297.61 C 51.54 314.79 25.76 331.89 0.00 349.00 L 0.00 340.02 C 81.14 286.50 162.36 233.10 243.53 179.62 C 245.77 178.18 247.58 175.99 250.21 175.22 C 256.52 172.94 263.59 171.37 270.08 173.90 C 277.94 176.92 285.25 181.24 293.06 184.37 C 297.11 182.49 299.63 178.19 301.32 174.18 C 307.61 159.23 315.15 144.87 322.33 130.34 C 328.18 119.90 334.15 109.52 340.10 99.14 C 351.10 81.99 362.72 65.23 375.01 48.98 C 375.89 47.37 378.65 46.48 379.55 48.54 C 380.73 49.95 379.32 51.41 378.62 52.65 C 372.52 61.20 366.07 69.49 360.19 78.19 C 353.63 88.30 346.36 97.97 340.62 108.59 C 335.00 118.66 328.87 128.46 323.85 138.86 C 318.96 148.95 313.69 158.87 309.19 169.15 C 306.62 174.47 304.89 180.32 300.98 184.87 C 299.85 186.38 297.77 188.64 299.71 190.36 C 308.06 187.42 313.13 179.42 316.97 171.92 C 323.52 157.34 330.90 143.17 337.97 128.85 C 348.88 110.04 360.28 91.53 372.49 73.53 C 378.39 64.61 385.90 56.59 389.98 46.58 Z" />
<path fill="#3e3e3e" opacity="1.00" d=" M 397.21 53.14 C 400.00 52.14 403.15 53.85 404.99 56.00 C 414.75 66.26 425.36 75.77 434.05 87.01 C 436.24 89.94 439.60 93.39 438.32 97.37 C 437.39 100.97 434.65 103.67 432.60 106.66 C 424.27 118.14 415.42 129.34 408.71 141.88 C 402.23 153.36 395.60 164.76 389.31 176.35 C 385.05 186.45 380.72 196.54 376.88 206.82 C 370.69 225.74 365.07 244.86 358.72 263.73 C 357.19 267.33 356.06 271.34 353.08 274.06 C 351.31 275.67 349.63 278.05 346.93 277.74 C 336.61 277.81 326.30 278.23 315.99 278.28 C 311.31 278.25 306.39 278.96 301.95 277.14 C 299.11 274.61 296.83 270.98 297.82 267.02 C 299.98 254.83 302.14 242.63 304.43 230.47 C 307.89 218.00 311.47 205.55 315.14 193.14 C 319.76 181.86 324.66 170.69 329.50 159.50 C 335.01 148.70 340.59 137.93 346.25 127.21 C 353.66 114.68 361.22 102.24 368.80 89.82 C 373.99 82.91 378.12 75.26 383.45 68.44 C 387.71 63.08 391.10 56.67 397.21 53.14 Z" />
<path fill="#f5e5c1" opacity="1.00" d=" M 382.24 79.13 C 386.65 72.74 391.08 66.26 396.28 60.49 C 395.42 64.17 394.40 67.81 393.49 71.48 C 389.52 73.70 386.00 76.60 382.24 79.13 Z" />
<path fill="#f5e5c1" opacity="1.00" d=" M 399.64 68.04 C 400.38 65.38 401.07 62.71 401.78 60.05 C 403.66 62.03 405.56 64.01 407.47 65.98 C 404.83 66.56 402.22 67.25 399.64 68.04 Z" />
<path fill="#f5e5c1" opacity="1.00" d=" M 396.38 71.50 C 397.86 70.86 399.38 70.11 401.05 70.33 C 397.11 72.73 396.96 77.48 397.12 81.58 C 396.43 81.71 395.06 81.98 394.38 82.12 C 394.50 78.50 394.89 74.85 396.38 71.50 Z" />
<path fill="#f5e5c1" opacity="1.00" d=" M 397.80 75.03 C 402.13 72.37 407.12 71.27 412.02 70.16 C 410.78 76.45 410.12 82.83 409.22 89.17 C 404.51 91.92 399.73 94.54 395.06 97.33 C 395.41 92.22 396.01 87.11 397.08 82.10 C 397.84 79.82 397.90 77.41 397.80 75.03 Z" />
<path fill="#f5e5c1" opacity="1.00" d=" M 496.03 77.21 C 501.38 74.65 506.73 72.08 512.00 69.36 L 512.00 98.53 C 510.43 104.73 509.27 111.17 505.53 116.52 C 503.01 122.42 497.38 125.76 492.36 129.29 C 486.23 132.57 479.54 134.82 472.66 135.79 C 465.59 137.43 457.35 137.28 451.47 132.54 C 444.93 127.94 438.51 123.19 432.26 118.21 C 436.28 112.93 439.19 106.63 444.09 102.12 C 446.63 106.68 446.33 112.30 449.23 116.75 C 452.81 124.15 460.68 127.55 468.01 130.08 C 471.78 131.09 475.77 130.29 479.48 129.37 C 481.98 128.82 481.68 125.92 481.93 123.97 C 487.28 121.77 492.28 118.42 495.90 113.86 C 499.05 107.09 501.31 99.52 500.25 91.97 C 499.73 86.84 497.87 81.99 496.03 77.21 Z" />
<path fill="#f5e5c1" opacity="1.00" d=" M 416.34 75.15 C 418.82 77.40 421.11 79.85 423.49 82.22 C 420.65 83.58 417.83 84.97 415.08 86.49 C 415.22 82.69 415.76 78.91 416.34 75.15 Z" />
<path fill="#3e3e3e" opacity="1.00" d=" M 499.44 78.79 C 501.62 77.83 503.81 76.89 506.03 76.00 C 506.93 82.58 509.19 89.24 507.73 95.89 C 506.98 100.93 505.08 105.95 502.22 110.14 C 502.05 104.06 504.10 98.03 503.02 91.96 C 502.57 87.39 500.81 83.13 499.44 78.79 Z" />
<path fill="#f5e5c1" opacity="1.00" d=" M 373.47 92.59 C 379.07 87.05 386.02 83.12 392.25 78.35 C 391.06 85.65 390.31 93.01 389.13 100.31 C 383.74 104.90 377.79 108.86 372.08 113.05 C 372.63 106.24 372.35 99.32 373.47 92.59 Z" />
<path fill="#f5e5c1" opacity="1.00" d=" M 413.86 92.88 C 417.37 90.77 421.15 89.19 424.78 87.31 C 424.53 95.09 423.38 102.83 423.61 110.62 C 421.22 113.44 417.67 114.79 414.64 116.77 C 414.38 108.81 414.38 100.83 413.86 92.88 Z" />
<path fill="#f5e5c1" opacity="1.00" d=" M 428.88 103.11 C 429.36 98.72 429.47 94.30 429.81 89.90 C 431.13 91.67 432.67 93.37 433.37 95.50 C 432.99 98.53 430.55 100.71 428.88 103.11 Z" />
<path fill="#f5e5c1" opacity="1.00" d=" M 445.14 99.85 C 452.81 99.95 459.06 95.18 465.77 92.18 C 462.61 98.78 461.39 106.67 464.41 113.55 C 466.75 117.96 471.58 119.90 475.47 122.61 C 475.78 123.23 476.39 124.46 476.70 125.08 C 472.27 126.04 466.93 125.95 463.71 122.29 C 460.72 118.97 457.34 115.99 454.42 112.62 C 451.96 107.96 450.03 102.57 445.14 99.85 Z" />
<path fill="#f5e5c1" opacity="1.00" d=" M 393.83 104.01 C 398.76 101.03 403.80 98.20 408.84 95.41 C 409.14 103.61 409.51 111.80 409.44 120.00 C 404.37 123.08 399.47 126.42 394.54 129.72 C 395.19 124.42 392.61 119.58 392.71 114.34 C 395.55 111.72 393.67 107.40 393.83 104.01 Z" />
<path fill="#f5e5c1" opacity="1.00" d=" M 412.72 100.22 C 414.12 100.71 414.09 101.32 412.64 102.05 C 411.24 101.56 411.26 100.95 412.72 100.22 Z" />
<path fill="#f5e5c1" opacity="1.00" d=" M 349.38 132.23 C 355.17 122.00 361.41 112.03 367.48 101.97 C 367.30 106.62 366.98 111.27 366.68 115.91 C 366.84 117.25 365.78 118.07 364.89 118.83 C 359.65 123.22 354.59 127.81 349.38 132.23 Z" />
<path fill="#f5e5c1" opacity="1.00" d=" M 371.69 119.89 C 377.36 115.61 383.10 111.42 388.84 107.25 C 389.03 115.69 389.42 124.13 389.34 132.57 C 384.50 138.00 378.53 142.50 373.25 147.57 C 372.52 138.36 372.44 129.11 371.69 119.89 Z" />
<path fill="#3e3e3e" opacity="1.00" d=" M 435.67 117.85 C 436.44 116.69 437.23 115.54 438.02 114.39 C 441.92 119.37 446.96 123.29 451.08 128.08 C 445.73 125.01 440.88 121.15 435.67 117.85 Z" />
<path fill="#f5e5c1" opacity="1.00" d=" M 344.92 143.01 C 352.16 136.64 359.46 130.32 366.77 124.03 C 367.07 128.44 367.32 132.85 367.46 137.26 C 368.33 137.77 369.21 138.29 370.09 138.81 C 369.31 139.93 368.53 141.04 367.74 142.15 C 367.85 145.45 368.10 148.75 368.30 152.05 C 361.38 159.03 354.37 165.92 347.54 172.98 C 346.56 163.00 345.89 152.99 344.92 143.01 Z" />
<path fill="#f5e5c1" opacity="1.00" d=" M 394.76 135.83 C 399.65 132.35 404.75 129.16 409.78 125.88 C 410.32 126.23 411.41 126.93 411.96 127.28 C 406.97 135.91 401.65 144.35 396.60 152.95 C 395.99 147.24 395.55 141.51 394.76 135.83 Z" />
<path fill="#f5e5c1" opacity="1.00" d=" M 373.62 154.20 C 379.11 149.26 384.59 144.29 390.07 139.32 C 390.53 144.58 391.12 149.83 391.65 155.08 C 391.63 156.58 392.50 157.79 393.32 158.97 C 390.89 163.31 388.31 167.55 385.99 171.95 C 384.15 176.22 379.69 178.29 376.49 181.39 C 375.48 172.33 374.55 163.27 373.62 154.20 Z" />
<path fill="#f5e5c1" opacity="1.00" d=" M 329.55 172.24 C 332.75 164.59 336.30 157.10 340.24 149.81 C 341.23 158.83 341.85 167.89 342.63 176.93 C 342.95 178.55 342.03 179.93 341.25 181.25 C 334.39 192.79 327.60 204.37 320.79 215.94 C 320.43 210.97 320.15 205.99 319.67 201.03 C 318.49 194.75 322.70 189.40 324.70 183.76 C 326.59 180.48 326.89 176.73 327.10 173.04 C 327.71 172.84 328.94 172.44 329.55 172.24 Z" />
<path fill="#f5e5c1" opacity="1.00" d=" M 364.21 158.88 C 364.03 156.83 366.36 156.46 367.75 155.70 C 367.57 156.89 367.40 158.08 367.23 159.28 C 366.24 159.14 365.04 159.62 364.21 158.88 Z" />
<path fill="#f5e5c1" opacity="1.00" d=" M 348.12 179.69 C 355.08 172.74 361.91 165.66 369.03 158.86 C 369.68 167.92 370.89 176.93 371.74 185.96 C 365.38 194.21 359.14 202.54 352.86 210.84 C 351.31 200.45 349.66 190.08 348.12 179.69 Z" />
<path fill="#3e3e3e" opacity="1.00" d=" M 249.52 181.46 C 253.35 178.45 258.04 176.47 262.96 176.41 C 269.03 176.21 274.02 180.20 279.23 182.72 C 283.30 185.13 287.93 186.74 291.48 189.94 C 291.19 191.41 289.81 192.36 288.39 191.66 C 281.53 188.87 274.81 185.73 267.98 182.87 C 255.76 190.78 244.17 199.60 233.06 209.00 C 233.25 209.48 233.64 210.43 233.83 210.90 C 233.42 211.31 232.58 212.12 232.17 212.53 C 231.65 212.31 230.62 211.88 230.10 211.67 C 218.52 220.82 207.22 230.38 195.81 239.76 C 194.45 239.66 193.10 239.56 191.75 239.47 C 197.68 234.70 203.31 229.55 210.00 225.83 C 206.85 226.21 203.47 226.70 201.02 228.91 C 192.47 236.05 183.84 243.10 175.32 250.28 C 172.73 252.71 169.03 253.17 166.24 255.27 C 120.55 290.22 74.79 325.08 29.05 359.98 C 25.94 362.41 21.63 364.71 21.40 369.16 C 22.79 377.01 25.06 384.70 27.80 392.19 C 28.86 395.25 32.34 396.42 33.72 399.28 C 36.34 404.25 38.72 409.40 42.19 413.87 C 48.76 421.98 55.46 429.99 61.94 438.18 C 62.71 437.67 64.26 436.65 65.03 436.14 C 64.54 436.97 63.55 438.62 63.06 439.44 C 64.25 440.98 65.45 442.51 66.64 444.06 C 67.27 443.58 67.90 443.10 68.54 442.63 C 69.70 447.26 74.06 449.74 76.78 453.34 C 76.59 454.15 76.39 454.97 76.20 455.79 C 91.54 474.44 106.68 493.26 121.93 512.00 L 111.57 512.00 C 74.35 469.78 37.17 427.52 0.00 385.26 L 0.00 349.00 C 25.76 331.89 51.54 314.79 77.25 297.61 C 77.98 293.79 82.15 294.57 84.68 292.74 C 125.48 265.53 166.35 238.43 207.17 211.25 C 215.68 205.43 224.60 200.15 232.59 193.59 C 238.02 189.26 243.98 185.65 249.52 181.46 Z" />
<path fill="#f5e5c1" opacity="1.00" d=" M 377.22 187.39 C 378.22 186.61 379.23 185.84 380.24 185.08 C 379.53 186.99 378.76 188.88 377.97 190.76 C 377.71 189.64 377.47 188.52 377.22 187.39 Z" />
<path fill="#f5e5c1" opacity="1.00" d=" M 322.37 223.42 C 329.60 211.23 336.69 198.95 344.03 186.82 C 345.39 196.56 346.99 206.27 348.44 215.99 C 348.95 218.08 347.28 219.76 346.47 221.52 C 342.11 229.62 338.30 237.99 334.19 246.22 C 331.32 251.44 329.81 257.23 327.84 262.82 C 325.78 251.56 323.96 240.25 321.93 228.98 C 321.64 227.12 321.07 225.04 322.37 223.42 Z" />
<path fill="#f5e5c1" opacity="1.00" d=" M 354.12 218.28 C 359.90 209.49 366.63 201.35 372.97 192.95 C 373.33 194.78 373.94 196.56 374.83 198.20 C 368.76 212.86 365.00 228.34 359.90 243.35 C 358.88 242.06 358.74 240.40 358.41 238.86 C 357.07 231.98 355.46 225.16 354.12 218.28 Z" />
<path fill="#f5e5c1" opacity="1.00" d=" M 306.40 249.24 C 307.90 236.12 311.64 223.45 315.34 210.82 C 315.42 215.25 316.03 219.65 316.13 224.07 C 313.24 232.58 309.44 240.78 306.40 249.24 Z" />
<path fill="#f5e5c1" opacity="1.00" d=" M 336.79 252.77 C 341.10 243.48 345.92 234.43 350.21 225.13 C 351.79 232.18 353.29 239.24 354.70 246.33 C 355.87 246.61 357.04 246.88 358.22 247.16 C 357.14 247.75 356.07 248.35 355.00 248.94 C 355.60 249.46 356.82 250.49 357.42 251.01 C 356.55 254.05 355.74 257.11 354.56 260.05 C 356.62 261.17 355.35 263.62 355.37 265.45 C 354.33 265.53 353.29 265.62 352.26 265.71 C 351.42 268.52 349.38 270.63 347.25 272.55 C 341.50 272.73 335.74 272.71 329.98 272.85 C 332.04 266.09 334.40 259.42 336.79 252.77 Z" />
<path fill="#f5e5c1" opacity="1.00" d=" M 317.47 234.89 C 320.27 247.44 321.93 260.23 324.32 272.87 C 318.58 273.16 312.81 273.35 307.07 273.11 C 305.19 273.12 304.52 271.18 303.55 269.95 C 308.22 258.28 313.00 246.64 317.47 234.89 Z" />
<path fill="#3e3e3e" opacity="1.00" d=" M 210.25 278.23 C 213.17 270.97 213.74 262.31 219.80 256.73 C 219.12 261.75 217.56 266.60 216.35 271.52 C 217.56 271.41 218.78 271.31 220.00 271.22 C 218.36 275.01 217.29 278.98 216.68 283.07 C 222.59 287.94 229.31 291.85 234.56 297.49 C 242.29 305.25 249.83 313.22 256.63 321.82 C 255.36 322.93 254.09 324.06 252.83 325.19 C 249.58 323.19 246.40 321.01 244.11 317.91 C 237.22 312.28 229.70 307.42 221.83 303.29 C 220.53 303.32 219.24 303.44 217.96 303.65 C 215.84 302.00 213.72 300.37 211.60 298.74 C 210.04 303.14 208.54 307.57 207.33 312.08 C 209.02 313.89 211.04 315.45 212.37 317.56 C 212.21 319.64 213.76 320.95 215.12 322.24 C 215.37 323.26 215.63 324.28 215.89 325.31 C 216.43 325.41 217.53 325.62 218.07 325.73 C 221.70 330.20 225.96 334.09 230.33 337.82 C 232.09 340.22 228.79 341.88 227.55 343.56 C 219.34 337.25 209.69 332.36 203.63 323.69 C 202.69 326.66 200.90 329.62 200.90 332.73 C 207.45 339.44 214.41 345.76 221.23 352.20 C 219.93 352.47 218.64 352.75 217.34 353.04 C 218.12 355.26 219.22 357.33 220.24 359.44 C 215.42 357.94 211.49 354.03 208.09 350.38 C 206.74 350.66 205.40 350.96 204.06 351.27 C 201.65 348.91 199.21 346.59 196.79 344.24 C 195.67 347.71 194.51 351.16 193.57 354.69 C 193.14 354.98 192.26 355.57 191.82 355.87 C 196.00 359.83 200.44 363.66 203.29 368.76 C 204.93 370.97 205.80 374.47 209.02 374.78 C 206.67 376.34 205.02 379.61 201.90 379.57 C 199.78 378.17 198.05 376.29 196.17 374.61 C 195.29 374.88 193.54 375.44 192.67 375.72 C 191.14 374.15 189.60 372.60 188.04 371.08 C 186.95 374.17 186.69 377.82 184.13 380.15 C 182.61 381.39 181.88 384.12 179.51 383.77 C 180.20 380.76 180.96 377.76 181.72 374.77 C 181.30 373.21 180.89 371.66 180.49 370.11 C 181.05 368.41 181.59 366.72 182.11 365.02 C 178.41 361.25 174.81 357.36 170.94 353.77 C 172.26 353.25 173.58 352.71 174.91 352.19 C 171.30 350.21 167.59 348.17 165.02 344.87 C 161.54 340.40 158.32 335.73 154.67 331.39 C 151.59 327.46 148.00 323.92 145.21 319.76 C 146.83 321.25 148.33 322.87 149.85 324.47 C 151.28 324.04 152.72 323.60 154.16 323.17 C 153.33 322.12 152.50 321.09 151.68 320.05 C 153.06 319.26 154.43 319.31 155.38 320.69 C 163.03 328.40 170.71 336.13 178.93 343.21 C 179.77 343.02 181.44 342.65 182.28 342.46 C 184.06 344.25 185.79 346.10 187.48 347.98 C 188.78 344.98 189.65 341.82 190.76 338.76 C 187.17 334.92 183.23 331.42 179.52 327.70 C 179.12 326.19 178.48 324.75 177.40 323.60 C 169.33 314.59 160.44 306.32 152.55 297.16 C 155.66 298.71 158.27 301.03 161.12 302.99 C 162.62 304.27 164.57 303.32 166.24 303.02 C 170.72 307.57 175.29 312.02 179.93 316.42 C 181.13 316.34 182.35 316.27 183.56 316.21 C 185.10 318.19 188.79 319.57 187.35 322.58 C 190.64 321.14 192.30 325.11 194.45 326.80 C 195.28 323.54 197.33 320.33 197.21 316.99 C 193.43 312.25 189.08 307.99 185.11 303.40 C 185.81 303.06 187.23 302.37 187.93 302.03 C 181.51 297.43 176.43 291.23 172.09 284.70 C 175.16 287.08 178.46 289.32 182.45 289.54 C 185.85 292.94 189.19 296.42 193.11 299.24 C 193.73 299.27 194.97 299.32 195.59 299.34 C 197.52 301.42 199.46 303.49 201.36 305.59 C 202.67 301.74 203.93 297.87 205.09 293.96 C 201.88 291.47 198.64 289.05 195.43 286.57 C 195.19 285.14 194.94 283.72 194.70 282.31 C 194.14 282.30 193.02 282.29 192.46 282.29 C 190.54 280.68 187.99 279.68 186.80 277.36 C 185.54 275.04 183.65 273.18 181.86 271.29 C 183.18 270.06 184.50 268.84 185.82 267.61 C 189.85 269.33 193.29 273.59 198.04 272.36 C 200.50 273.20 202.10 276.07 204.96 275.85 C 207.06 275.66 208.63 277.17 210.25 278.23 Z" />
<path fill="#3e3e3e" opacity="1.00" d=" M 155.63 294.31 C 158.33 295.95 160.73 298.02 163.03 300.18 C 160.65 298.11 158.02 296.36 155.63 294.31 Z" />
<path fill="#3e3e3e" opacity="1.00" d=" M 144.75 307.18 C 145.29 306.99 146.36 306.61 146.90 306.42 C 151.30 310.98 155.92 315.33 160.33 319.89 C 155.78 314.88 149.82 311.57 144.75 307.18 Z" />
<path fill="#3e3e3e" opacity="1.00" d=" M 48.33 358.28 C 66.22 343.75 83.91 328.94 101.91 314.55 C 102.34 314.80 103.18 315.30 103.61 315.55 C 84.62 331.27 65.53 346.88 46.52 362.57 C 45.90 364.14 45.14 365.65 44.27 367.10 C 45.00 367.27 46.45 367.63 47.17 367.81 C 46.61 368.38 45.49 369.52 44.94 370.08 C 42.53 369.74 40.15 368.97 37.71 369.47 C 37.87 367.91 38.03 366.34 38.19 364.78 C 36.17 364.79 34.16 364.98 32.18 365.35 C 33.08 363.64 33.90 361.78 35.58 360.67 C 44.75 353.72 53.84 346.64 63.09 339.80 C 54.24 347.34 45.12 354.56 36.19 362.01 C 40.35 361.42 44.85 360.86 48.33 358.28 Z" />
<path fill="#3e3e3e" opacity="1.00" d=" M 103.44 345.35 C 104.85 344.51 106.32 343.78 107.81 343.11 C 109.22 344.46 110.90 345.46 112.72 346.19 C 112.26 346.69 111.34 347.68 110.88 348.18 C 113.94 350.40 116.77 352.93 119.20 355.83 C 121.98 359.12 126.30 361.01 128.05 365.16 C 133.04 369.45 136.82 374.92 141.32 379.70 C 144.14 383.43 148.17 386.34 149.92 390.78 C 150.51 391.00 151.69 391.43 152.28 391.64 C 151.67 392.28 150.45 393.56 149.83 394.20 C 151.05 394.21 153.48 394.22 154.69 394.23 C 153.30 394.85 151.90 395.43 150.52 396.07 C 151.78 398.59 154.48 397.62 156.61 397.10 C 158.45 399.28 160.34 401.41 162.40 403.39 C 161.09 403.97 158.40 403.63 159.04 405.79 C 160.86 408.08 163.03 410.06 164.95 412.26 C 166.62 411.88 168.30 411.54 170.01 411.36 C 169.06 412.83 168.06 414.28 167.05 415.72 C 161.28 410.57 156.04 404.81 149.74 400.26 C 146.55 397.77 142.66 396.15 139.98 393.03 C 133.44 385.59 126.81 378.24 120.19 370.88 C 120.93 368.51 118.84 367.00 117.60 365.34 C 112.89 359.65 108.81 353.48 104.45 347.53 C 105.96 346.95 107.98 346.83 108.35 344.89 C 106.66 344.33 105.02 344.67 103.44 345.35 Z" />
<path fill="#3e3e3e" opacity="1.00" d=" M 93.87 367.06 C 96.05 368.09 98.40 368.56 100.80 368.16 C 106.53 373.75 112.37 379.25 118.00 384.94 C 118.16 385.36 118.48 386.19 118.64 386.60 C 127.91 394.95 136.98 403.50 146.11 412.00 C 146.86 412.95 148.25 413.59 148.42 414.89 C 147.39 416.57 146.06 418.04 144.78 419.54 C 142.47 417.37 140.18 415.16 138.04 412.82 C 139.41 413.96 140.69 415.21 142.14 416.26 C 143.58 416.14 144.93 415.54 146.30 415.13 C 143.11 411.79 139.04 406.78 133.87 408.90 C 129.45 404.72 125.16 400.41 120.68 396.29 C 118.71 394.79 118.51 392.04 116.56 390.53 C 108.55 383.15 101.14 375.16 93.87 367.06 Z" />
<path fill="#3e3e3e" opacity="1.00" d=" M 76.20 377.77 C 76.13 376.39 77.61 375.51 78.18 374.37 C 86.57 379.85 93.53 387.16 100.84 393.94 C 98.03 392.11 95.87 388.88 92.25 388.70 C 93.60 392.35 96.86 394.81 99.41 397.62 C 102.25 400.64 105.91 402.56 109.81 403.84 C 112.49 407.28 115.64 410.31 118.43 413.64 C 118.39 414.07 118.30 414.93 118.26 415.36 C 122.48 415.49 123.75 420.59 125.27 423.76 C 124.48 424.40 122.99 424.69 123.04 425.97 C 123.35 426.18 123.98 426.61 124.29 426.83 C 127.02 428.99 129.46 431.49 131.87 433.99 C 129.81 431.16 127.52 428.37 124.29 426.83 C 124.68 425.99 125.45 424.30 125.83 423.46 C 130.81 427.00 133.82 432.55 138.54 436.37 C 141.01 438.53 143.22 440.98 145.22 443.57 C 144.93 444.12 144.34 445.21 144.05 445.76 C 135.91 441.19 128.87 435.00 121.36 429.54 C 119.56 428.34 118.66 426.30 117.18 424.81 C 113.17 421.51 108.49 418.95 105.18 414.87 C 101.52 410.47 97.39 406.47 93.80 402.01 C 95.07 401.52 96.35 401.04 97.63 400.57 C 90.11 393.32 84.91 383.72 76.20 377.77 Z" />
<path fill="#f5e5c1" opacity="1.00" d=" M 0.00 385.26 C 37.17 427.52 74.35 469.78 111.57 512.00 L 106.95 512.00 C 71.18 472.87 35.62 433.54 0.00 394.26 L 0.00 385.26 Z" />
<path fill="#3e3e3e" opacity="1.00" d=" M 0.00 394.26 C 35.62 433.54 71.18 472.87 106.95 512.00 L 0.00 512.00 L 0.00 394.26 Z" />
<path fill="#f5e5c1" opacity="1.00" d=" M 124.29 426.83 C 127.52 428.37 129.81 431.16 131.87 433.99 C 129.46 431.49 127.02 428.99 124.29 426.83 Z" />
</svg>
