<?xml version="1.0" encoding="UTF-8" ?>
<!DOCTYPE svg PUBLIC "-//W3C//DTD SVG 1.1//EN" "http://www.w3.org/Graphics/SVG/1.1/DTD/svg11.dtd">
<svg width="512pt" height="512pt" viewBox="0 0 512 512" version="1.1" xmlns="http://www.w3.org/2000/svg">
<path fill="#3e3e3e" opacity="1.00" d=" M 0.00 0.00 L 512.00 0.00 L 512.00 512.00 L 400.19 512.00 C 397.26 499.80 394.86 487.47 391.86 475.29 C 388.00 461.57 383.82 447.94 379.83 434.27 C 376.27 423.82 372.74 413.37 368.93 403.01 C 366.02 395.06 357.55 391.31 349.82 389.72 C 342.02 387.68 333.91 388.42 325.95 388.57 C 318.75 388.65 311.90 391.10 304.93 392.61 C 301.71 393.47 297.87 393.89 295.92 396.96 C 288.02 408.09 280.20 419.29 272.31 430.43 C 270.48 432.54 271.38 435.33 272.04 437.71 C 277.96 458.35 284.17 478.91 290.22 499.52 C 291.45 503.74 292.66 507.99 294.49 512.00 L 0.00 512.00 L 0.00 0.00 Z" />
<path fill="#f4722b" opacity="1.00" d=" M 422.96 2.23 C 423.70 6.97 424.54 11.83 427.03 16.02 C 428.98 19.82 432.32 23.46 431.64 28.05 C 431.55 29.62 430.44 30.83 429.66 32.11 C 424.82 33.26 420.90 36.45 416.46 38.51 C 409.85 41.52 404.57 46.62 398.62 50.66 C 393.67 54.01 393.06 60.45 391.81 65.79 C 390.12 73.11 387.60 80.34 387.61 87.95 C 387.69 94.72 386.80 101.48 385.15 108.05 C 385.43 108.50 385.99 109.39 386.27 109.84 C 382.66 118.88 381.41 128.56 379.71 138.08 C 379.42 140.91 376.66 142.64 374.13 143.24 C 371.23 143.62 368.31 143.42 365.41 143.48 C 365.55 145.94 365.05 148.93 367.35 150.60 C 371.66 154.31 375.50 159.04 381.12 160.79 C 387.47 162.96 394.06 164.34 400.47 166.33 C 403.04 167.21 405.94 168.07 407.58 170.42 C 407.85 174.63 406.54 178.74 406.21 182.91 C 405.50 187.26 405.64 191.66 405.46 196.04 C 405.47 198.24 403.56 199.71 402.47 201.42 C 401.21 200.22 399.94 199.03 398.67 197.85 C 398.12 191.63 399.65 184.98 396.64 179.20 C 394.68 175.39 391.78 172.11 388.70 169.16 C 385.70 167.19 382.24 165.92 379.61 163.39 C 373.94 158.73 369.54 152.65 363.34 148.63 C 358.80 145.58 355.68 140.85 350.95 138.03 C 346.78 135.48 342.81 132.40 340.34 128.08 C 340.72 127.38 341.48 125.99 341.85 125.29 C 347.42 124.42 351.90 128.11 356.76 130.06 C 359.76 131.27 362.60 132.86 365.04 135.01 C 368.93 138.59 375.33 135.87 377.71 131.77 C 381.68 124.85 380.36 116.59 380.54 108.98 C 380.71 103.25 378.69 97.65 379.42 91.92 C 380.23 84.82 381.72 77.79 383.85 70.97 C 386.07 63.88 386.91 56.40 389.80 49.51 C 390.90 47.59 393.29 47.01 395.12 45.98 C 400.97 43.47 406.14 39.73 411.48 36.33 C 415.85 33.49 419.99 29.83 422.19 25.01 C 423.35 17.48 421.97 9.80 422.96 2.23 Z" />
<path fill="#f5e5c1" opacity="1.00" d=" M 29.05 22.00 C 32.97 15.20 41.18 11.05 48.97 12.36 C 50.78 13.11 52.33 14.36 53.98 15.40 C 47.51 15.09 40.61 16.29 35.37 20.31 C 30.08 24.71 28.64 31.70 26.70 37.96 C 25.89 32.56 26.00 26.73 29.05 22.00 Z" />
<path fill="#f4722b" opacity="1.00" d=" M 314.12 17.16 C 317.44 15.68 320.69 14.05 323.89 12.30 C 319.71 17.41 313.57 20.30 309.25 25.26 C 305.59 29.27 299.88 31.72 297.92 37.06 C 297.76 42.99 300.77 48.45 302.47 54.01 C 301.19 59.88 294.93 62.16 291.60 66.60 C 288.61 70.96 287.73 76.29 286.06 81.20 C 284.39 85.99 281.22 90.01 278.23 94.02 C 282.90 103.34 289.29 112.07 298.04 117.93 C 300.13 119.32 302.65 119.89 304.70 121.33 C 306.65 126.83 307.31 133.90 303.57 138.81 C 302.78 138.68 301.19 138.42 300.40 138.28 C 297.13 139.72 293.52 139.41 290.06 139.85 C 284.29 140.83 279.97 145.15 275.18 148.15 C 270.18 151.20 265.51 154.76 260.31 157.48 C 258.30 158.62 256.82 160.47 254.88 161.70 C 251.62 162.49 247.86 160.76 244.95 162.94 C 238.81 166.95 233.32 172.03 229.34 178.23 C 231.22 172.02 231.64 165.53 231.75 159.08 C 238.44 158.45 245.25 162.39 251.67 159.47 C 255.39 157.92 256.95 153.96 258.86 150.73 C 261.20 146.56 265.58 143.94 267.65 139.58 C 270.50 133.63 269.35 126.69 271.72 120.62 C 272.89 119.94 274.34 119.88 275.53 120.56 C 281.14 123.03 282.70 130.08 288.35 132.50 C 292.36 134.84 296.29 130.93 300.03 129.67 C 297.01 127.42 293.76 125.50 290.78 123.21 C 287.42 120.64 285.55 116.44 281.73 114.45 C 280.20 113.59 278.60 112.82 277.32 111.60 C 268.13 102.72 259.48 93.28 250.95 83.78 C 249.31 78.57 253.19 72.82 251.34 67.48 C 249.41 63.96 246.68 60.95 244.12 57.90 C 239.17 53.54 232.41 52.45 226.25 50.89 C 223.13 47.19 222.86 42.06 221.45 37.59 C 220.05 31.44 216.83 25.59 217.27 19.13 C 218.53 19.35 219.82 19.48 221.04 19.87 C 222.22 21.89 222.87 24.15 223.63 26.34 C 224.22 26.49 225.38 26.79 225.97 26.94 C 229.83 34.44 235.35 40.86 241.14 46.93 C 243.46 49.23 247.01 49.14 249.94 50.18 C 252.56 50.63 253.47 53.44 254.68 55.44 C 256.77 59.81 259.98 63.92 260.10 68.97 C 260.16 72.21 260.65 75.60 263.04 78.02 C 266.51 82.77 272.19 84.70 277.39 86.88 C 281.74 80.75 282.50 73.10 285.71 66.46 C 288.25 60.96 293.89 58.06 297.60 53.48 C 295.76 51.34 294.83 48.70 294.47 45.93 C 293.91 41.89 291.44 38.57 289.85 34.92 C 288.91 33.54 290.40 32.22 291.21 31.23 C 294.11 28.18 297.97 26.34 301.79 24.71 C 306.25 22.77 309.70 19.16 314.12 17.16 Z" />
<path fill="#f5e5c1" opacity="1.00" d=" M 33.53 27.46 C 35.83 22.61 40.87 19.87 45.98 18.99 C 51.54 17.50 57.14 19.52 62.73 19.71 C 64.03 21.07 65.34 22.42 66.69 23.74 C 53.14 17.71 34.16 26.52 32.83 42.00 C 31.32 49.85 34.64 57.32 35.83 64.94 C 36.47 67.72 34.95 70.18 33.97 72.65 C 32.64 77.54 32.68 82.66 32.64 87.69 C 30.99 85.42 28.92 83.09 29.51 80.04 C 29.02 73.57 33.16 67.65 31.95 61.18 C 31.21 55.11 30.51 49.04 29.86 42.96 C 29.37 37.55 31.38 32.32 33.53 27.46 Z" />
<path fill="#f5e5c1" opacity="1.00" d=" M 40.32 35.20 C 43.62 30.93 48.50 27.79 53.91 27.11 C 60.72 25.63 67.60 28.98 72.32 33.73 C 93.73 56.27 115.22 78.73 136.61 101.30 C 155.55 120.87 173.82 141.09 193.00 160.42 C 187.72 161.37 182.18 161.27 177.10 163.08 C 171.81 165.68 166.05 167.60 161.56 171.55 C 158.59 174.30 154.23 175.87 152.66 179.87 C 150.68 184.71 148.67 189.58 147.43 194.69 C 144.69 190.44 141.46 186.54 138.46 182.48 C 104.78 137.99 71.14 93.46 37.42 49.00 C 37.55 44.29 37.57 39.27 40.32 35.20 Z" />
<path fill="#f4722b" opacity="1.00" d=" M 179.81 49.74 C 186.46 58.17 194.71 65.54 199.16 75.49 C 200.09 81.32 200.78 87.34 199.55 93.19 C 198.52 97.47 201.37 101.16 203.44 104.60 C 206.94 110.40 211.07 115.79 215.00 121.30 C 212.31 121.46 209.50 121.41 207.25 119.73 C 203.26 117.05 198.21 115.77 195.04 112.00 C 193.65 108.54 193.59 104.68 192.93 101.03 C 191.84 95.51 195.08 90.39 194.73 84.90 C 194.79 80.58 192.87 76.63 191.11 72.80 C 188.96 68.27 188.28 63.08 185.29 58.95 C 183.22 56.03 181.33 52.98 179.81 49.74 Z" />
<path fill="#f5e5c1" opacity="1.00" d=" M 26.05 79.67 C 24.78 73.75 24.57 66.69 29.35 62.19 C 28.92 68.14 26.73 73.76 26.05 79.67 Z" />
<path fill="#f5e5c1" opacity="1.00" d=" M 39.55 76.97 C 39.47 72.95 44.14 71.62 46.72 69.41 C 49.10 72.72 51.83 75.79 53.97 79.27 C 51.98 82.86 49.21 86.00 47.67 89.85 C 49.55 94.90 47.59 100.12 46.94 105.20 C 44.52 102.10 40.89 99.26 40.68 95.04 C 40.45 89.00 38.92 83.04 39.55 76.97 Z" />
<path fill="#f4722b" opacity="1.00" d=" M 462.65 78.57 C 464.32 76.63 467.01 76.67 469.35 76.40 C 469.50 77.94 469.64 79.49 469.76 81.04 C 468.32 82.21 466.90 83.41 465.49 84.62 C 464.18 84.57 462.87 84.52 461.57 84.47 C 459.67 86.29 457.95 88.32 456.73 90.68 C 453.72 96.26 450.60 101.78 447.06 107.04 C 444.69 110.57 443.17 115.12 439.24 117.25 C 432.78 118.64 426.72 115.04 420.79 113.01 C 412.23 108.66 402.46 111.19 393.36 109.37 C 391.29 111.71 387.06 111.80 386.86 108.00 C 386.75 105.18 389.15 102.80 391.90 102.60 C 395.84 101.67 399.35 104.10 402.95 105.25 C 408.25 107.32 414.48 106.32 419.27 109.74 C 422.74 112.08 426.62 114.41 431.00 113.65 C 433.83 113.73 436.04 111.52 437.02 109.03 C 439.03 104.46 440.87 99.81 442.95 95.27 C 444.66 95.73 446.34 96.29 448.09 96.57 C 453.67 91.19 457.42 84.25 462.65 78.57 Z" />
<path fill="#f5e5c1" opacity="1.00" d=" M 54.50 91.02 C 55.18 88.60 56.81 86.61 58.03 84.45 C 77.44 109.92 96.68 135.53 116.05 161.04 C 113.65 162.65 111.90 164.94 109.93 166.99 C 107.24 166.42 104.59 165.34 102.38 163.68 C 99.95 161.33 98.37 158.28 96.45 155.53 C 84.31 137.36 72.17 119.20 60.01 101.04 C 57.94 97.86 55.36 94.81 54.50 91.02 Z" />
<path fill="#f5e5c1" opacity="1.00" d=" M 50.92 99.10 C 53.65 103.91 56.90 108.39 59.98 112.98 C 71.97 130.68 83.91 148.41 95.84 166.15 C 98.23 169.88 102.58 171.41 106.13 173.76 C 102.55 180.19 98.29 186.29 95.55 193.15 C 94.06 205.64 98.90 218.49 107.21 227.77 C 113.53 233.84 122.91 233.77 131.03 232.66 C 132.12 234.79 133.23 236.92 134.28 239.08 C 124.46 241.67 113.78 241.42 104.35 237.45 C 94.79 233.56 86.71 226.22 81.88 217.10 C 79.72 212.95 78.43 208.44 76.64 204.13 C 68.30 184.21 59.75 164.37 51.37 144.46 C 49.35 139.54 46.46 134.59 47.15 129.05 C 48.09 119.03 49.44 109.05 50.92 99.10 Z" />
<path fill="#f5e5c1" opacity="1.00" d=" M 484.53 121.06 C 485.89 121.22 487.25 121.40 488.61 121.60 C 487.20 135.12 484.41 148.47 482.45 161.93 C 477.01 195.49 471.65 229.06 466.19 262.62 C 467.85 262.99 469.52 263.36 471.20 263.73 C 471.49 264.25 472.07 265.28 472.35 265.80 C 471.57 269.43 471.31 273.21 470.02 276.71 C 467.87 280.36 464.73 283.28 462.21 286.67 C 465.31 291.88 462.21 297.69 459.20 302.12 C 460.63 289.94 463.46 277.97 465.34 265.87 C 464.58 263.87 462.79 262.58 461.31 261.15 C 469.36 214.50 476.86 167.76 484.53 121.06 Z" />
<path fill="#f5e5c1" opacity="1.00" d=" M 327.21 141.95 C 327.93 139.94 329.49 137.48 332.02 138.43 C 335.50 139.96 334.83 144.51 333.07 147.13 C 329.32 152.72 328.02 159.48 326.27 165.86 C 327.86 167.72 331.27 168.95 330.42 171.95 C 329.81 174.19 327.01 174.54 325.09 174.04 C 321.62 173.13 318.41 171.41 315.26 169.74 C 313.31 168.88 311.74 166.22 313.39 164.37 C 315.32 162.07 318.73 162.93 321.37 162.73 C 322.20 160.00 323.02 157.28 323.84 154.55 C 310.63 164.35 297.70 174.55 284.90 184.90 C 276.72 191.66 269.03 199.00 260.86 205.75 C 254.78 209.84 247.42 215.72 239.79 211.84 C 239.29 212.09 238.28 212.59 237.78 212.84 C 237.33 213.61 236.88 214.38 236.43 215.15 C 237.50 216.82 238.62 218.46 239.93 219.96 C 248.32 229.61 256.79 239.18 265.07 248.92 C 266.79 250.97 268.70 252.85 270.76 254.56 C 271.85 254.08 272.93 253.62 274.02 253.16 C 278.14 248.06 284.41 245.02 290.92 244.60 C 297.03 244.28 303.32 243.69 308.81 240.72 C 311.87 238.44 314.70 235.47 315.83 231.74 C 320.42 217.98 324.85 204.16 329.55 190.44 C 332.23 179.93 340.68 171.13 350.96 167.78 C 358.40 166.40 366.11 172.37 366.71 179.92 C 367.79 185.05 364.89 189.61 363.10 194.19 C 365.75 196.32 368.91 199.21 368.21 202.98 C 367.56 205.69 364.39 206.02 362.14 205.41 C 357.78 204.29 352.83 203.17 350.25 199.09 C 351.63 195.98 354.45 194.11 357.71 193.43 C 358.97 188.11 363.47 182.32 360.05 176.98 C 357.90 173.16 352.50 172.83 349.01 174.91 C 342.85 178.60 337.57 184.21 335.33 191.14 C 330.36 206.16 325.30 221.15 320.34 236.17 C 318.36 242.44 312.63 247.47 305.99 247.99 C 297.20 249.29 286.54 248.91 280.48 256.61 C 278.37 258.23 280.34 260.71 280.73 262.72 C 273.08 264.36 265.14 262.99 257.97 260.09 C 255.38 259.14 254.00 256.57 252.29 254.60 C 244.06 244.22 235.47 234.15 227.20 223.81 C 225.55 221.52 223.11 219.65 222.26 216.89 C 224.37 214.42 227.43 213.01 229.52 210.53 C 230.87 208.66 231.66 206.46 232.68 204.41 C 237.62 206.11 243.19 207.78 248.21 205.38 C 256.84 201.46 264.61 195.88 271.85 189.80 C 278.17 185.22 283.95 179.98 289.53 174.53 C 299.78 165.79 309.60 156.50 320.48 148.52 C 322.92 146.57 326.21 145.16 327.21 141.95 Z" />
<path fill="#f5e5c1" opacity="1.00" d=" M 284.06 163.18 C 288.29 160.92 292.96 159.59 297.72 159.06 C 292.10 163.64 286.60 168.37 281.42 173.44 C 274.72 179.78 267.35 185.33 260.05 190.95 C 264.13 179.03 273.10 169.22 284.06 163.18 Z" />
<path fill="#f5e5c1" opacity="1.00" d=" M 166.38 176.27 C 173.79 171.58 182.16 168.16 190.93 167.30 C 194.68 167.42 198.35 168.41 202.00 169.23 C 204.21 169.54 205.73 171.29 207.23 172.78 C 211.21 176.94 215.16 181.13 219.20 185.24 C 215.05 182.94 210.71 180.77 206.04 179.81 C 201.74 179.70 197.36 179.78 193.14 180.65 C 189.00 182.19 184.80 183.74 180.96 185.94 C 175.80 190.08 171.41 195.10 167.09 200.10 C 165.88 201.42 165.07 203.08 164.82 204.86 C 163.87 211.18 162.69 217.65 163.99 224.02 C 164.94 230.67 167.10 237.26 166.70 244.03 C 165.26 250.32 163.01 256.40 160.66 262.41 C 159.21 266.17 159.55 270.26 159.70 274.20 C 156.58 269.40 153.11 264.86 149.91 260.12 C 146.36 255.25 147.59 248.65 149.44 243.37 C 150.74 239.37 154.05 236.57 155.87 232.87 C 159.12 220.42 151.89 208.25 154.01 195.76 C 154.63 191.92 156.27 188.37 157.79 184.83 C 159.38 180.93 163.06 178.57 166.38 176.27 Z" />
<path fill="#f5e5c1" opacity="1.00" d=" M 116.01 172.02 C 117.42 170.58 118.33 167.38 120.85 168.26 C 122.50 168.77 123.25 170.67 124.16 172.00 C 126.42 176.58 127.62 181.59 129.52 186.32 C 126.14 190.48 121.92 194.28 120.33 199.56 C 118.96 203.75 118.27 208.36 119.30 212.69 C 121.37 217.30 124.43 221.39 126.90 225.80 C 119.85 226.28 112.43 223.63 108.35 217.65 C 104.08 211.04 101.61 202.93 102.69 195.04 C 104.96 186.30 111.15 179.41 116.01 172.02 Z" />
<path fill="#f5e5c1" opacity="1.00" d=" M 295.38 184.40 C 299.80 180.83 304.37 177.47 308.79 173.92 C 310.04 174.68 311.30 175.44 312.56 176.20 C 306.68 178.61 300.86 181.17 295.38 184.40 Z" />
<path fill="#f5e5c1" opacity="1.00" d=" M 340.11 193.88 C 341.25 189.90 343.80 186.59 346.13 183.24 C 348.68 185.33 351.22 187.43 353.71 189.61 C 350.43 191.26 345.50 192.45 345.29 196.92 C 344.29 201.34 348.09 204.58 351.68 206.21 C 357.05 208.63 363.02 210.89 368.98 209.57 C 371.63 207.75 372.80 204.63 373.59 201.66 C 376.62 204.43 380.46 206.54 382.25 210.41 C 371.18 210.97 359.82 210.76 349.16 214.25 C 341.77 217.55 335.09 222.25 328.98 227.54 C 332.54 216.27 336.46 205.12 340.11 193.88 Z" />
<path fill="#f5e5c1" opacity="1.00" d=" M 304.22 189.66 C 308.48 188.33 312.50 186.20 316.89 185.33 C 319.49 186.35 321.33 188.76 323.44 190.56 C 322.51 194.14 321.71 197.76 320.67 201.32 C 315.27 204.62 309.61 207.65 304.89 211.92 C 298.59 219.39 298.45 229.61 296.60 238.74 C 291.80 239.11 286.99 239.52 282.31 240.72 C 281.39 227.16 280.55 212.86 286.13 200.11 C 287.85 197.62 290.11 195.48 292.59 193.75 C 296.24 191.83 300.38 191.14 304.22 189.66 Z" />
<path fill="#f5e5c1" opacity="1.00" d=" M 173.69 202.67 C 181.16 192.70 193.42 185.86 206.06 186.69 C 210.15 188.09 213.90 190.40 218.14 191.39 C 208.35 191.53 197.85 192.00 189.34 197.43 C 186.71 199.04 184.47 201.17 182.04 203.05 C 179.86 204.83 177.36 206.53 176.28 209.25 C 173.97 214.75 173.14 220.72 171.60 226.45 C 168.64 218.83 169.29 209.61 173.69 202.67 Z" />
<path fill="#f5e5c1" opacity="1.00" d=" M 136.58 192.25 C 138.27 192.78 139.03 194.70 140.19 195.92 C 142.87 199.75 146.82 203.06 147.55 207.91 C 148.73 214.55 150.79 221.24 149.88 228.06 C 149.64 232.22 146.40 235.27 143.78 238.17 C 141.62 235.91 140.12 233.15 138.50 230.51 C 134.92 224.49 130.91 218.72 127.45 212.64 C 126.13 210.66 126.92 208.24 127.17 206.07 C 127.69 203.47 127.86 200.66 129.25 198.34 C 131.45 196.04 134.00 194.10 136.58 192.25 Z" />
<path fill="#f5e5c1" opacity="1.00" d=" M 258.32 214.30 C 265.23 209.63 271.77 204.41 277.76 198.58 C 276.33 203.64 275.62 208.85 274.75 214.02 C 273.79 219.86 274.64 225.77 274.78 231.64 C 269.42 225.74 263.78 220.10 258.32 214.30 Z" />
<path fill="#f5e5c1" opacity="1.00" d=" M 199.46 202.73 C 208.02 200.52 216.97 200.48 225.68 201.75 C 224.69 203.96 224.25 206.68 222.12 208.16 C 219.17 210.49 215.99 213.19 215.37 217.12 C 214.95 219.43 216.78 221.23 218.03 222.94 C 227.49 234.50 236.67 246.27 245.92 258.00 C 248.17 260.77 250.12 264.12 253.62 265.49 C 262.86 269.53 273.10 271.22 283.15 270.75 C 285.85 270.65 289.24 268.92 289.61 266.03 C 288.81 263.24 287.15 260.79 286.02 258.14 C 287.38 259.37 288.71 260.64 289.94 262.02 C 301.25 275.05 312.71 287.96 324.03 300.99 C 308.20 293.27 289.89 293.62 272.99 296.99 C 268.97 297.63 265.48 299.80 261.94 301.65 C 238.07 270.58 214.06 239.60 190.11 208.60 C 193.09 206.46 195.98 204.02 199.46 202.73 Z" />
<path fill="#f5e5c1" opacity="1.00" d=" M 307.63 220.44 C 309.43 215.90 314.33 214.08 317.93 211.25 C 315.26 220.64 312.96 231.54 304.26 237.30 C 304.19 231.53 305.31 225.73 307.63 220.44 Z" />
<path fill="#f5e5c1" opacity="1.00" d=" M 183.59 213.23 C 206.74 244.06 230.73 274.28 254.10 304.95 C 255.06 306.34 255.86 307.85 256.52 309.41 C 266.99 335.24 277.50 361.05 288.07 386.83 C 288.60 388.19 289.12 389.83 288.07 391.11 C 279.32 404.99 269.26 417.99 259.67 431.28 C 228.59 390.89 197.86 350.23 167.76 309.10 C 165.80 306.05 161.98 303.17 163.41 299.11 C 168.62 275.72 173.93 252.36 179.50 229.05 C 180.77 223.76 181.86 218.41 183.59 213.23 Z" />
<path fill="#f5e5c1" opacity="1.00" d=" M 248.61 217.68 C 249.41 217.55 251.00 217.30 251.79 217.18 C 259.47 226.48 267.21 235.74 274.90 245.04 C 274.44 245.48 273.52 246.34 273.06 246.77 C 265.00 237.00 256.32 227.73 248.61 217.68 Z" />
<path fill="#f5e5c1" opacity="1.00" d=" M 366.82 219.62 C 373.69 219.51 380.57 217.73 387.42 218.41 C 392.63 222.21 397.19 226.84 402.39 230.68 C 407.06 234.18 411.41 238.46 413.26 244.15 C 402.50 244.24 391.73 244.43 380.99 243.88 C 377.40 243.65 373.52 244.35 370.76 246.79 C 369.24 249.37 369.25 252.52 368.13 255.26 C 362.84 257.67 356.95 258.42 351.68 260.87 C 348.93 262.02 349.07 265.45 348.74 267.93 C 348.44 278.99 347.10 290.02 346.78 301.06 C 349.36 305.19 355.25 304.71 359.34 306.56 C 359.48 308.27 359.63 309.98 359.79 311.69 C 356.93 310.75 354.04 309.85 351.13 309.06 C 343.93 301.57 335.72 295.07 328.72 287.41 C 325.28 279.05 322.02 270.19 322.36 260.99 C 323.21 251.69 326.14 242.35 331.87 234.90 C 338.64 230.13 346.02 226.27 353.18 222.12 C 357.27 219.67 362.27 220.35 366.82 219.62 Z" />
<path fill="#3e3e3e" opacity="1.00" d=" M 192.50 237.69 C 195.37 236.44 199.21 237.19 200.93 239.97 C 211.62 254.31 222.36 268.61 232.98 283.00 C 236.62 290.74 238.02 299.56 237.48 308.10 C 236.82 311.38 235.11 314.47 232.94 317.00 C 229.80 318.95 225.85 320.17 222.15 319.48 C 218.22 317.92 215.19 314.76 212.68 311.44 C 204.45 300.65 196.33 289.78 188.01 279.06 C 186.38 277.03 185.00 274.69 184.82 272.03 C 184.37 264.02 183.56 255.74 186.12 247.98 C 187.19 244.04 189.13 240.13 192.50 237.69 Z" />
<path fill="#f4722b" opacity="1.00" d=" M 39.29 243.63 C 43.85 243.50 48.40 243.56 52.96 243.52 C 51.68 244.44 50.42 245.38 49.15 246.33 C 48.43 246.44 46.99 246.67 46.27 246.79 C 48.29 249.12 50.17 251.58 52.29 253.83 C 54.81 251.24 56.39 245.93 61.01 247.41 C 69.94 249.01 79.04 247.85 87.99 249.09 C 95.32 249.81 101.98 253.26 109.23 254.37 C 106.07 257.33 103.17 260.55 100.68 264.10 C 97.65 261.98 95.13 258.01 91.02 258.37 C 83.98 258.79 77.02 256.98 69.98 257.76 C 66.26 258.26 61.74 257.97 58.95 260.92 C 55.29 266.14 54.16 272.79 54.64 279.06 C 55.32 288.01 57.29 297.07 55.33 306.01 C 51.74 306.46 48.21 307.38 44.94 308.96 C 36.34 313.06 26.44 312.91 17.81 316.94 C 22.90 313.33 27.54 309.11 32.89 305.86 C 38.87 302.43 42.56 295.44 49.73 294.08 C 49.16 285.91 47.45 277.69 48.84 269.51 C 49.39 266.68 50.24 263.93 50.95 261.15 C 46.04 256.19 39.22 251.35 39.29 243.63 Z" />
<path fill="#f5e5c1" opacity="1.00" d=" M 191.33 266.29 C 189.84 258.58 191.37 250.28 195.83 243.78 C 206.19 257.83 216.81 271.70 227.12 285.79 C 230.93 292.76 231.44 301.29 229.66 308.95 C 229.38 310.64 228.30 312.01 226.97 313.03 C 215.13 297.42 203.31 281.79 191.33 266.29 Z" />
<path fill="#f5e5c1" opacity="1.00" d=" M 378.26 250.62 C 394.17 250.51 410.10 250.61 425.98 251.66 C 436.01 254.33 445.66 258.31 455.56 261.48 C 458.26 262.61 461.86 263.16 463.20 266.14 C 459.61 286.99 455.80 307.82 452.14 328.67 C 435.11 328.99 418.05 328.77 401.02 328.70 C 390.62 324.70 380.40 320.10 370.10 315.79 C 367.60 315.02 367.39 312.15 366.67 310.06 C 373.40 309.50 378.87 314.08 385.14 315.56 C 387.34 315.48 389.48 314.53 391.27 313.28 C 393.13 310.21 393.51 306.55 393.75 303.05 C 394.71 295.02 396.40 287.10 397.58 279.11 C 397.68 277.42 398.26 275.39 397.00 273.98 C 394.51 270.72 390.91 268.62 387.31 266.79 C 382.94 264.50 378.60 262.16 374.25 259.85 C 374.71 256.45 375.53 252.94 378.26 250.62 Z" />
<path fill="#f5e5c1" opacity="1.00" d=" M 302.90 253.77 C 306.64 253.40 310.38 252.92 314.09 252.32 C 312.88 260.86 312.44 269.93 315.84 278.06 C 315.02 278.44 313.38 279.21 312.56 279.60 C 310.13 276.73 307.24 274.19 305.32 270.94 C 304.12 265.29 303.68 259.50 302.90 253.77 Z" />
<path fill="#f5e5c1" opacity="1.00" d=" M 292.21 256.06 C 292.28 253.64 295.77 254.90 297.34 254.18 C 297.80 257.42 298.30 260.65 298.73 263.89 C 296.53 261.31 294.01 258.95 292.21 256.06 Z" />
<path fill="#f4722b" opacity="1.00" d=" M 136.94 266.91 C 138.93 264.83 140.77 262.61 142.57 260.35 C 140.40 265.97 139.23 272.02 135.98 277.17 C 133.63 280.93 130.72 284.54 129.95 289.04 C 128.75 294.75 126.59 300.24 125.71 306.02 C 124.94 314.82 127.20 323.51 127.77 332.26 C 126.38 331.41 124.97 330.57 123.55 329.76 C 121.32 313.31 117.69 297.10 115.29 280.67 C 122.57 276.22 131.02 273.31 136.94 266.91 Z" />
<path fill="#3e3e3e" opacity="1.00" d=" M 411.42 264.50 C 412.73 262.86 415.11 263.41 416.95 263.33 C 429.59 264.06 442.21 265.19 454.86 265.75 C 457.36 265.89 458.62 268.82 457.98 271.01 C 455.46 286.70 453.19 302.43 450.76 318.13 C 450.41 320.11 449.69 323.19 447.05 322.84 C 435.04 323.44 423.00 322.99 410.98 323.19 C 407.75 323.14 404.43 323.63 401.27 322.73 C 400.94 318.89 402.19 315.18 402.76 311.43 C 405.15 297.27 407.60 283.12 409.95 268.95 C 410.31 267.45 410.36 265.72 411.42 264.50 Z" />
<path fill="#f5e5c1" opacity="1.00" d=" M 357.67 266.72 C 362.04 265.98 366.35 264.52 370.80 264.38 C 378.21 268.11 385.99 271.53 392.51 276.76 C 390.34 286.79 390.03 297.27 386.60 306.98 C 375.49 305.28 365.05 300.87 354.22 298.01 C 355.26 287.57 356.53 277.15 357.67 266.72 Z" />
<path fill="#f5e5c1" opacity="1.00" d=" M 428.39 269.58 C 439.71 267.15 448.85 279.53 447.28 290.00 C 447.10 299.31 438.79 306.66 430.04 308.13 C 422.84 309.60 415.48 304.70 412.89 298.08 C 409.56 286.63 416.45 272.46 428.39 269.58 Z" />
<path fill="#f5e5c1" opacity="1.00" d=" M 271.91 303.89 C 279.09 301.78 286.60 301.20 294.05 301.42 C 308.35 301.01 321.90 306.91 334.05 313.93 C 335.42 315.00 336.07 316.69 337.00 318.12 C 332.99 318.65 329.04 319.72 324.99 319.94 C 322.18 317.27 320.85 311.53 316.07 312.18 C 311.05 312.62 305.94 312.89 301.05 314.11 C 297.74 315.15 298.17 319.14 299.57 321.58 C 305.40 334.17 310.87 346.94 316.90 359.43 C 322.83 360.73 329.01 360.55 335.03 360.26 C 338.68 358.29 338.09 353.46 338.56 349.98 C 338.56 346.40 339.89 343.01 342.37 340.44 C 343.97 340.32 345.57 340.21 347.17 340.11 C 354.56 355.86 362.57 371.34 369.44 387.33 C 365.86 382.99 360.64 380.27 355.04 379.74 C 344.39 378.72 333.48 377.15 322.92 379.64 C 313.93 380.79 305.32 383.68 296.56 385.88 C 286.43 361.25 276.49 336.54 266.34 311.92 C 265.84 310.62 265.35 309.33 265.07 307.98 C 266.91 306.01 269.42 304.80 271.91 303.89 Z" />
<path fill="#f5e5c1" opacity="1.00" d=" M 306.58 320.46 C 309.91 320.38 313.23 320.17 316.53 319.67 C 318.45 321.92 319.49 325.29 322.30 326.58 C 327.95 327.27 333.36 324.63 339.00 324.65 C 348.69 324.54 358.39 324.59 368.09 324.73 C 368.37 327.59 368.63 330.46 368.88 333.33 C 359.61 333.19 350.33 332.20 341.07 332.89 C 338.32 333.97 336.84 336.77 335.03 338.95 C 331.46 343.01 332.44 348.78 331.51 353.73 C 328.22 353.70 324.93 353.62 321.65 353.50 C 316.59 342.50 311.61 331.47 306.58 320.46 Z" />
<path fill="#f4722b" opacity="1.00" d=" M 128.85 339.28 C 129.75 343.82 130.30 348.41 130.81 353.01 C 131.19 354.73 131.30 356.93 133.03 357.91 C 136.29 360.02 140.11 361.26 142.96 363.98 C 146.14 367.01 148.16 370.98 150.53 374.61 C 151.75 374.56 152.96 374.52 154.18 374.47 C 151.40 371.62 148.62 368.76 146.19 365.60 C 151.08 367.36 155.00 370.88 159.52 373.34 C 165.72 376.71 172.02 380.14 179.00 381.62 C 186.24 387.30 194.98 390.52 203.06 394.78 C 208.01 397.31 213.19 399.92 218.92 399.54 C 222.50 399.25 225.51 401.19 228.25 403.23 C 225.53 405.32 222.50 406.93 219.35 408.25 C 215.95 409.68 213.39 412.40 210.58 414.68 C 211.51 420.43 211.10 426.32 212.34 432.02 C 213.48 437.25 213.50 442.62 213.78 447.95 C 208.27 446.20 202.36 446.69 196.84 444.99 C 190.70 443.13 184.80 440.57 178.65 438.76 C 182.77 438.76 186.90 438.24 191.01 438.57 C 193.96 439.27 196.82 440.36 199.85 440.75 C 197.90 428.81 197.64 416.38 200.46 404.57 C 189.09 398.80 177.86 392.54 165.79 388.36 C 159.23 388.04 154.25 394.59 147.51 393.55 C 146.88 388.27 148.50 382.37 145.03 377.79 C 141.73 372.56 138.22 365.19 130.97 365.48 C 127.50 365.92 126.11 362.13 124.03 360.10 C 128.39 354.03 127.98 346.35 128.85 339.28 Z" />
<path fill="#f4722b" opacity="1.00" d=" M 381.52 350.18 C 385.43 352.21 389.66 353.52 394.06 353.85 C 395.76 358.14 397.36 362.47 398.37 366.99 C 399.39 370.72 400.18 375.05 403.50 377.49 C 406.32 378.85 409.49 379.30 412.39 380.49 C 416.61 382.29 421.35 382.04 425.78 381.29 C 430.82 380.28 434.79 376.77 438.38 373.31 C 443.06 368.62 447.96 364.12 453.22 360.07 C 455.35 358.38 458.31 357.94 460.87 358.89 C 465.53 360.58 469.36 363.86 473.56 366.41 C 479.76 370.21 485.40 375.58 492.92 376.52 C 492.81 377.73 492.71 378.94 492.61 380.16 C 486.63 379.32 480.77 376.92 476.56 372.48 C 471.98 367.71 466.67 363.10 460.00 361.74 C 457.43 361.06 455.45 363.21 453.46 364.44 C 450.85 366.47 447.25 368.24 446.82 371.92 C 446.55 375.55 449.26 378.47 449.93 381.93 C 451.22 387.77 451.57 393.90 454.26 399.35 C 457.30 399.54 460.87 399.37 463.04 401.93 C 466.15 405.59 466.65 410.60 467.77 415.10 C 473.16 418.79 477.25 424.27 483.35 426.92 C 488.64 429.55 494.89 431.94 497.27 437.88 C 491.60 434.37 487.74 428.13 481.04 426.34 C 474.66 424.44 467.01 424.01 462.49 418.48 C 460.78 414.78 460.33 410.64 459.13 406.76 C 457.77 406.32 456.40 405.87 455.05 405.44 C 450.01 398.19 450.15 388.38 443.54 382.12 C 443.43 380.82 443.34 379.52 443.25 378.22 C 440.77 379.60 438.06 380.48 435.50 381.67 C 433.44 383.24 432.32 386.04 429.67 386.78 C 424.20 388.44 418.14 389.31 412.61 387.42 C 408.02 385.93 403.90 383.38 399.83 380.85 C 399.06 385.59 397.56 390.19 396.80 394.93 C 397.25 399.43 398.31 403.87 399.52 408.23 C 400.70 413.00 405.61 414.99 408.92 418.07 C 411.72 420.73 414.99 422.77 418.27 424.79 C 421.13 426.53 422.92 429.45 425.30 431.72 C 427.45 432.06 429.51 430.97 431.57 430.49 C 435.36 429.25 439.40 429.61 443.33 429.53 C 450.49 436.55 456.60 444.73 460.96 453.78 C 463.52 459.02 467.96 462.92 471.88 467.11 C 473.67 468.99 476.31 471.30 479.07 469.86 C 484.63 467.19 489.32 462.86 492.94 457.90 C 489.93 462.94 488.38 468.66 485.72 473.85 C 483.75 475.71 481.17 476.82 479.08 478.54 C 477.31 478.25 474.79 479.30 473.71 477.44 C 471.07 473.65 469.13 469.40 466.23 465.77 C 459.82 457.67 455.19 448.34 448.91 440.15 C 446.82 438.17 443.65 438.53 441.03 437.92 C 436.84 437.47 433.19 435.00 428.98 434.68 C 425.06 434.70 422.30 431.61 419.07 429.88 C 412.12 426.00 403.99 425.54 396.46 423.41 C 394.46 412.71 395.26 401.74 395.73 390.94 C 395.85 388.34 394.02 386.31 392.77 384.23 C 393.38 377.34 395.63 370.50 395.02 363.56 C 394.14 356.76 386.66 354.74 381.35 352.32 C 381.40 351.79 381.48 350.72 381.52 350.18 Z" />
<path fill="#f5e5c1" opacity="1.00" d=" M 304.93 392.61 C 311.90 391.10 318.75 388.65 325.95 388.57 C 333.91 388.42 342.02 387.68 349.82 389.72 C 357.55 391.31 366.02 395.06 368.93 403.01 C 372.74 413.37 376.27 423.82 379.83 434.27 C 383.82 447.94 388.00 461.57 391.86 475.29 C 394.86 487.47 397.26 499.80 400.19 512.00 L 294.49 512.00 C 292.66 507.99 291.45 503.74 290.22 499.52 C 284.17 478.91 277.96 458.35 272.04 437.71 C 271.38 435.33 270.48 432.54 272.31 430.43 C 280.20 419.29 288.02 408.09 295.92 396.96 C 297.87 393.89 301.71 393.47 304.93 392.61 Z" />
<path fill="#f5e5c1" opacity="1.00" d=" M 238.38 411.48 C 243.88 419.28 250.12 426.56 255.49 434.44 C 256.57 438.52 257.17 442.74 258.53 446.77 C 256.20 450.13 251.46 452.65 251.41 457.04 C 253.45 460.20 255.97 463.13 258.99 465.40 C 263.15 465.53 267.12 462.68 271.35 464.42 C 272.27 467.76 273.26 471.08 274.03 474.46 C 263.65 476.91 253.82 469.78 248.92 461.12 C 246.01 456.72 244.14 451.79 242.33 446.87 C 237.22 435.83 238.25 423.31 238.38 411.48 Z" />
<path fill="#f4722b" opacity="1.00" d=" M 150.99 453.43 C 153.48 446.68 154.31 437.84 161.65 434.45 C 166.20 436.19 170.91 437.49 175.67 438.55 C 168.21 442.18 165.85 450.60 162.39 457.45 C 159.92 461.55 160.76 466.47 160.49 471.02 C 159.96 476.21 163.60 480.36 165.55 484.85 C 165.19 485.49 164.47 486.75 164.11 487.39 C 160.81 488.39 156.48 488.06 154.47 491.40 C 152.08 494.72 149.51 498.72 145.02 499.17 C 140.34 499.42 135.61 498.83 130.99 498.14 C 125.07 494.53 121.28 488.39 116.48 483.52 C 111.39 478.23 107.36 472.06 102.48 466.59 C 98.34 466.55 94.16 466.28 90.24 464.86 C 84.76 462.90 78.91 462.68 73.22 461.80 C 69.94 461.37 66.53 461.07 63.36 462.20 C 57.15 464.33 50.54 464.83 44.02 464.81 C 36.07 465.10 29.22 460.39 22.77 456.37 C 31.11 459.53 40.09 461.92 49.04 460.08 C 52.28 459.19 54.97 457.02 58.14 455.94 C 62.69 454.43 67.61 453.61 71.62 450.79 C 77.73 446.29 84.99 443.52 92.20 441.39 C 96.13 442.79 93.68 447.07 93.81 450.02 C 94.80 453.87 97.31 457.23 100.51 459.55 C 102.17 460.62 103.16 462.33 104.02 464.06 C 106.46 466.65 109.14 469.01 111.83 471.35 C 114.50 471.24 117.20 471.38 119.86 471.04 C 123.16 468.72 125.00 465.00 126.83 461.53 C 129.23 456.85 133.96 454.19 137.39 450.38 C 141.84 451.77 146.32 453.11 150.99 453.43 Z" />
<path fill="#f5e5c1" opacity="1.00" d=" M 259.74 452.90 C 263.48 453.30 264.53 449.15 266.12 446.65 C 267.00 450.01 267.99 453.35 268.88 456.72 C 266.09 457.82 263.41 459.15 260.79 460.60 C 259.44 459.11 258.10 457.62 256.77 456.13 C 257.75 455.04 258.74 453.96 259.74 452.90 Z" />
<path fill="#3e3e3e" opacity="1.00" d=" M 120.13 478.14 C 128.86 475.23 130.48 465.03 136.70 459.36 C 141.25 460.07 145.80 460.77 150.28 461.88 C 151.40 467.27 152.99 472.56 153.79 478.02 C 153.85 479.90 155.43 481.02 156.66 482.22 C 151.08 483.22 149.08 488.81 145.51 492.37 C 141.50 493.17 137.38 492.35 133.33 492.31 C 128.57 487.92 124.52 482.87 120.13 478.14 Z" />
</svg>
