<?xml version="1.0" encoding="UTF-8" ?>
<!DOCTYPE svg PUBLIC "-//W3C//DTD SVG 1.1//EN" "http://www.w3.org/Graphics/SVG/1.1/DTD/svg11.dtd">
<svg width="512pt" height="512pt" viewBox="0 0 512 512" version="1.1" xmlns="http://www.w3.org/2000/svg">
<path fill="#3e3e3e" opacity="1.00" d=" M 0.00 0.00 L 512.00 0.00 L 512.00 512.00 L 0.00 512.00 L 0.00 0.00 Z" />
<path fill="#f5722c" opacity="1.00" d=" M 473.04 8.80 C 482.19 7.91 491.57 8.63 500.82 8.30 C 500.69 29.49 501.17 50.72 500.64 71.89 C 494.38 84.01 487.19 95.68 480.58 107.64 C 424.59 206.32 368.48 304.93 312.52 403.62 C 312.16 404.69 311.46 405.01 310.42 404.58 C 310.09 403.33 310.05 402.01 310.59 400.82 C 331.18 351.01 351.87 301.24 372.45 251.43 C 373.61 248.78 374.33 245.54 377.15 244.12 C 392.70 234.50 405.16 219.14 409.40 201.15 C 411.91 191.64 412.37 181.49 409.97 171.91 C 409.40 168.70 407.60 165.29 409.41 162.16 C 430.72 111.08 451.72 59.87 473.04 8.80 Z" />
<path fill="#f5722c" opacity="1.00" d=" M 197.02 9.46 C 228.82 9.36 260.62 9.07 292.43 9.17 C 292.12 16.09 291.16 22.98 291.04 29.91 C 284.66 30.15 278.27 29.81 271.89 30.07 C 268.16 30.26 264.14 31.84 262.44 35.40 C 260.30 39.96 261.14 45.13 260.99 50.00 C 260.88 61.38 261.23 72.76 260.78 84.13 C 255.53 65.97 243.49 49.37 226.68 40.34 C 218.85 35.95 210.22 33.24 201.46 31.44 C 199.83 24.15 198.15 16.85 197.02 9.46 Z" />
<path fill="#f5722c" opacity="1.00" d=" M 303.90 9.19 C 343.88 8.63 383.87 8.85 423.86 8.64 C 421.03 15.77 417.98 22.80 415.13 29.92 C 377.53 30.09 339.93 29.94 302.34 29.99 C 302.79 23.05 303.42 16.12 303.90 9.19 Z" />
<path fill="#f5722c" opacity="1.00" d=" M 10.17 10.17 C 32.80 10.32 55.42 9.80 78.04 9.84 C 79.82 9.41 80.26 11.40 80.68 12.62 C 85.02 26.83 89.24 41.07 93.55 55.29 C 88.93 59.09 83.88 62.56 80.34 67.47 C 77.71 71.34 77.52 76.80 80.28 80.66 C 90.72 95.57 101.20 110.45 111.66 125.36 C 114.03 128.77 116.96 131.98 117.91 136.15 C 123.76 156.22 129.99 176.17 135.86 196.24 C 129.24 199.61 122.39 202.83 115.01 204.12 C 112.29 204.71 109.25 205.11 107.31 207.33 C 104.52 209.85 104.45 213.88 104.04 217.34 C 73.27 157.34 42.41 97.39 11.59 37.41 C 10.71 35.76 10.05 33.96 10.15 32.06 C 10.14 24.76 10.17 17.46 10.17 10.17 Z" />
<path fill="#f5722c" opacity="1.00" d=" M 127.22 9.71 C 139.87 9.70 152.52 9.57 165.16 9.64 C 166.43 16.05 167.89 22.43 169.02 28.87 C 159.51 29.45 150.09 31.03 140.91 33.54 C 138.88 33.94 136.86 34.88 134.78 34.77 C 132.28 26.42 129.74 18.07 127.22 9.71 Z" />
<path fill="#f5e5c1" opacity="1.00" d=" M 118.25 52.23 C 136.47 43.44 156.72 38.31 177.03 38.99 C 195.03 38.89 213.82 42.49 228.59 53.33 C 243.97 64.77 252.25 83.45 255.05 102.00 C 258.22 119.57 252.09 137.30 243.42 152.40 C 230.04 174.95 211.76 194.26 191.69 210.98 C 207.87 211.03 224.06 210.98 240.25 211.00 C 240.35 223.67 240.81 236.33 240.76 248.99 C 198.58 249.00 156.41 249.01 114.24 248.99 C 114.22 237.38 114.28 225.78 114.21 214.17 C 124.60 212.88 134.25 208.43 143.37 203.50 C 156.76 196.09 169.07 186.71 179.77 175.77 C 190.13 164.69 199.97 151.64 201.76 136.12 C 203.28 124.00 196.96 111.77 186.90 105.14 C 179.83 100.81 171.01 101.04 163.15 102.60 C 148.11 105.96 134.69 114.50 123.52 124.92 C 111.55 107.99 99.63 91.01 87.76 74.01 C 96.00 64.43 107.15 57.96 118.25 52.23 Z" />
<path fill="#f5e5c1" opacity="1.00" d=" M 271.00 40.00 C 322.08 40.01 373.17 39.99 424.25 40.00 C 424.25 60.34 424.25 80.67 424.25 101.00 C 389.33 101.01 354.42 101.00 319.50 101.00 C 319.50 111.82 319.49 122.63 319.51 133.44 C 336.21 133.88 353.25 134.41 369.22 139.86 C 379.72 143.33 390.08 149.53 395.42 159.57 C 401.73 171.90 403.26 186.60 399.59 199.95 C 395.72 214.01 386.17 226.10 374.19 234.20 C 356.62 246.04 335.23 250.86 314.33 252.05 C 312.33 240.14 310.11 228.26 308.05 216.36 C 318.55 215.77 329.11 213.97 338.84 209.87 C 344.75 207.29 350.66 203.55 353.60 197.58 C 356.61 191.49 356.06 182.94 350.21 178.71 C 341.57 172.32 330.22 172.31 319.95 171.81 C 303.62 171.56 287.32 173.02 271.00 173.29 C 271.00 128.86 270.99 84.43 271.00 40.00 Z" />
<path fill="#f5722c" opacity="1.00" d=" M 10.22 51.49 C 40.75 111.29 71.52 170.99 102.26 230.69 C 106.84 237.90 101.65 247.33 106.31 254.51 C 108.63 258.10 113.15 258.43 116.93 259.28 C 141.40 307.11 166.14 354.81 190.52 402.68 C 175.78 382.31 161.68 361.49 147.20 340.94 C 101.82 275.93 56.48 210.91 11.09 145.91 C 9.67 144.25 9.62 142.04 9.66 139.97 C 9.89 110.47 9.62 80.98 10.22 51.49 Z" />
<path fill="#f5722c" opacity="1.00" d=" M 453.77 172.73 C 469.53 144.99 485.18 117.19 501.12 89.56 C 501.28 110.71 501.22 131.86 501.34 153.01 C 501.52 154.76 500.76 156.36 499.75 157.74 C 452.11 223.82 404.51 289.93 356.89 356.02 C 345.82 371.11 335.28 386.61 323.84 401.42 C 367.19 325.21 410.43 248.94 453.77 172.73 Z" />
<path fill="#f5722c" opacity="1.00" d=" M 329.49 111.04 C 346.83 111.00 364.17 110.98 381.51 111.05 C 378.68 117.59 376.07 124.21 373.31 130.78 C 359.13 126.22 344.29 124.13 329.43 123.70 C 329.54 119.48 329.52 115.26 329.49 111.04 Z" />
<path fill="#f5722c" opacity="1.00" d=" M 158.92 114.04 C 165.19 111.72 172.18 110.80 178.75 112.24 C 183.64 114.16 188.14 118.50 188.72 123.94 C 189.51 128.95 191.29 133.86 191.26 138.97 C 188.65 149.70 181.66 158.67 174.55 166.86 C 172.26 159.34 169.83 151.87 167.72 144.30 C 164.87 134.19 161.25 124.29 158.92 114.04 Z" />
<path fill="#f5722c" opacity="1.00" d=" M 233.00 184.13 C 244.32 170.12 255.30 155.19 260.85 137.85 C 261.18 148.91 260.87 159.97 261.01 171.03 C 261.06 174.87 262.30 179.11 265.72 181.28 C 269.63 183.90 274.54 183.21 278.97 182.95 C 276.52 217.99 273.58 253.00 270.99 288.04 C 269.31 307.64 268.22 327.30 266.23 346.87 C 260.24 316.58 253.77 286.39 247.67 256.12 C 251.63 251.30 250.72 244.79 250.76 239.01 C 250.40 229.99 250.58 220.97 250.18 211.95 C 250.04 208.83 248.88 205.59 246.36 203.60 C 243.52 201.22 239.62 201.15 236.13 200.72 C 235.25 195.15 233.70 189.72 233.00 184.13 Z" />
<path fill="#f5722c" opacity="1.00" d=" M 290.60 182.58 C 305.07 182.02 319.63 180.96 334.05 182.82 C 337.87 183.42 342.03 184.42 344.77 187.35 C 347.00 191.56 343.34 195.84 339.96 198.05 C 332.20 202.86 323.09 205.02 314.07 205.86 C 310.57 206.28 306.91 206.25 303.64 207.70 C 299.33 209.91 297.72 215.33 298.62 219.84 C 300.51 230.28 302.36 240.72 304.20 251.16 C 304.71 253.83 305.18 256.79 307.34 258.70 C 310.31 261.78 314.94 261.75 318.90 262.22 C 305.66 293.96 292.54 325.75 279.37 357.52 C 278.27 360.02 277.32 362.59 276.53 365.21 C 281.09 304.32 285.82 243.45 290.60 182.58 Z" />
<path fill="#f5722c" opacity="1.00" d=" M 125.44 259.03 C 135.28 259.08 145.13 258.84 154.96 259.14 C 168.34 304.96 182.56 350.55 195.96 396.36 C 172.63 350.50 149.00 304.78 125.44 259.03 Z" />
<path fill="#f5722c" opacity="1.00" d=" M 202.24 259.04 C 206.99 258.99 211.75 258.99 216.51 259.03 C 224.93 299.68 233.27 340.34 241.65 381.00 C 242.52 385.76 243.88 390.44 244.27 395.28 C 242.85 394.30 242.30 392.68 241.87 391.12 C 228.74 347.06 215.36 303.09 202.24 259.04 Z" />
<path fill="#f5e5c1" opacity="1.00" d=" M 196.20 384.84 C 209.43 384.57 222.62 383.61 235.85 383.43 C 236.41 384.88 236.95 386.35 237.46 387.83 C 224.05 387.66 210.68 388.79 197.28 388.81 C 196.92 387.47 196.57 386.16 196.20 384.84 Z" />
<path fill="#f5e5c1" opacity="1.00" d=" M 245.99 383.42 C 268.53 383.04 291.05 383.84 313.56 384.77 C 312.75 386.30 312.38 388.24 310.98 389.35 C 299.68 388.41 288.33 388.64 277.03 387.87 C 266.69 387.80 256.34 388.04 246.00 387.76 C 245.99 386.31 245.99 384.86 245.99 383.42 Z" />
<path fill="#f5e5c1" opacity="1.00" d=" M 326.79 385.78 C 327.23 385.74 328.13 385.66 328.58 385.62 C 327.65 387.84 326.94 390.66 324.04 390.70 C 324.52 388.85 325.68 387.31 326.79 385.78 Z" />
<path fill="#f5e5c1" opacity="1.00" d=" M 185.84 385.60 C 187.58 385.35 189.09 388.22 188.56 389.78 C 186.84 389.71 185.70 387.14 185.84 385.60 Z" />
<path fill="#f5e5c1" opacity="1.00" d=" M 338.56 386.70 C 373.93 389.94 409.36 394.71 443.55 404.64 C 457.74 409.00 472.12 413.95 484.23 422.79 C 489.31 426.75 494.65 432.12 494.55 439.03 C 494.92 446.55 488.81 452.14 483.35 456.35 C 470.38 465.45 455.11 470.39 440.07 474.85 C 401.36 485.59 361.27 490.14 321.33 493.08 C 268.26 496.45 214.89 495.88 161.96 490.66 C 131.37 487.55 100.81 483.04 71.16 474.71 C 57.48 470.70 43.75 466.12 31.57 458.53 C 26.01 454.94 20.43 450.54 17.91 444.20 C 16.08 439.03 17.40 433.09 21.00 429.00 C 28.45 420.18 39.29 415.29 49.74 410.95 C 74.55 401.28 100.86 396.32 127.04 391.99 C 137.75 390.93 148.36 389.06 159.06 387.99 C 164.40 387.11 169.85 387.41 175.19 386.48 C 176.19 387.74 177.18 389.00 178.18 390.27 C 162.05 391.35 145.95 392.91 129.95 395.32 C 110.97 397.60 92.07 401.18 73.81 406.92 C 65.88 409.66 57.66 412.58 51.26 418.21 C 48.17 420.81 46.04 425.20 47.85 429.15 C 50.37 434.23 55.57 437.13 60.41 439.64 C 72.31 445.35 85.22 448.50 98.06 451.31 C 125.73 457.07 153.90 460.05 182.07 461.95 C 211.35 464.08 240.70 465.15 270.06 464.52 C 309.55 463.10 349.15 460.93 388.20 454.49 C 404.03 451.76 419.89 448.56 434.99 442.96 C 441.75 440.29 448.83 437.31 453.68 431.68 C 456.76 428.40 456.48 422.82 453.28 419.71 C 447.61 413.68 439.61 410.62 432.00 407.85 C 400.86 397.24 367.83 394.78 335.40 390.86 C 336.43 389.45 337.49 388.07 338.56 386.70 Z" />
<path fill="#f5e5c1" opacity="1.00" d=" M 198.95 392.76 C 212.25 392.50 225.51 391.43 238.81 391.69 C 238.93 392.64 239.05 393.60 239.17 394.56 C 225.79 394.33 212.45 395.37 199.09 395.91 C 199.05 395.12 198.99 393.55 198.95 392.76 Z" />
<path fill="#f5e5c1" opacity="1.00" d=" M 247.07 391.42 C 268.01 391.50 288.93 392.01 309.84 393.13 C 309.45 394.23 309.06 395.33 308.68 396.45 C 288.27 394.66 267.78 394.36 247.31 394.56 C 247.23 393.51 247.15 392.46 247.07 391.42 Z" />
<path fill="#f5e5c1" opacity="1.00" d=" M 189.87 393.34 C 191.27 393.21 192.63 395.34 192.14 396.61 C 190.73 396.68 189.34 394.63 189.87 393.34 Z" />
<path fill="#f5e5c1" opacity="1.00" d=" M 147.51 397.19 C 157.99 396.11 168.47 394.92 178.99 394.21 C 181.09 393.70 181.87 396.07 183.09 397.28 C 170.29 398.44 157.50 399.90 144.85 402.23 C 137.15 403.18 129.47 404.56 122.06 406.88 C 113.05 409.04 104.12 411.79 95.78 415.86 C 91.15 418.25 86.38 421.16 83.75 425.83 C 82.53 429.01 82.85 433.04 85.37 435.54 C 91.17 441.89 99.52 445.42 107.72 447.45 C 107.98 447.74 108.51 448.31 108.77 448.60 C 107.23 448.80 105.68 448.88 104.14 449.06 L 106.54 447.97 C 94.94 445.63 83.36 442.54 72.65 437.41 C 68.41 435.20 63.79 432.49 61.86 427.88 C 60.59 424.33 63.23 420.96 65.83 418.83 C 71.46 414.27 78.40 411.76 85.19 409.48 C 97.80 405.34 110.88 402.89 123.91 400.53 C 131.90 400.55 139.59 398.01 147.51 397.19 Z" />
<path fill="#f5e5c1" opacity="1.00" d=" M 321.28 394.16 C 322.10 394.17 323.73 394.19 324.55 394.20 C 323.64 395.90 322.26 397.22 320.48 397.97 C 320.73 396.69 321.00 395.42 321.28 394.16 Z" />
<path fill="#f5e5c1" opacity="1.00" d=" M 329.97 398.26 C 331.14 397.09 331.86 394.80 333.87 395.10 C 343.31 395.65 352.66 397.15 362.10 397.65 C 381.47 400.96 401.05 403.82 419.76 410.07 C 425.87 412.28 432.09 414.67 437.23 418.75 C 439.93 420.91 442.45 424.35 441.21 427.99 C 439.70 431.68 436.29 434.10 432.96 436.04 C 424.34 440.88 414.74 443.57 405.23 446.06 C 401.17 447.08 397.10 448.38 392.86 448.30 C 398.15 447.46 402.92 444.92 407.73 442.72 C 412.46 440.16 417.71 437.03 419.53 431.67 C 420.90 426.68 417.13 422.35 413.35 419.69 C 404.82 413.80 394.77 410.65 384.87 407.94 C 377.76 405.34 370.21 404.26 362.77 403.11 C 351.94 400.86 340.94 399.60 329.97 398.26 Z" />
<path fill="#f5e5c1" opacity="1.00" d=" M 224.03 398.65 C 232.33 397.98 240.68 398.74 248.99 397.97 C 268.35 398.35 287.74 398.57 307.05 400.34 C 306.75 403.02 306.64 406.16 309.20 407.84 C 311.46 410.46 315.56 408.64 315.41 405.25 C 316.59 403.53 317.47 401.30 319.79 400.95 C 318.80 403.76 317.18 406.30 316.08 409.07 C 315.32 411.36 318.67 413.09 320.21 411.31 C 323.01 408.77 324.71 405.31 327.06 402.38 C 347.62 404.72 368.34 407.88 387.84 415.04 C 394.01 417.67 401.02 420.33 404.64 426.36 C 406.82 429.95 404.38 434.12 401.52 436.46 C 395.05 441.75 386.94 444.44 379.08 446.93 C 357.10 453.32 334.27 456.13 311.54 458.34 C 296.73 459.75 281.85 459.71 267.01 460.43 C 252.99 460.19 238.95 460.90 224.96 459.89 C 202.27 459.82 179.63 457.59 157.21 454.22 C 142.94 451.84 128.63 449.10 115.04 444.01 C 109.20 441.63 103.03 439.01 98.95 433.99 C 96.80 431.52 96.82 427.52 98.94 425.04 C 103.02 419.95 109.26 417.34 115.14 414.94 C 133.25 408.25 152.46 405.33 171.51 402.76 C 176.21 402.33 180.87 401.35 185.60 401.39 C 187.86 403.85 189.38 406.91 191.70 409.32 C 193.05 410.82 195.88 409.99 196.05 407.93 C 196.26 404.99 193.60 402.70 193.91 399.71 C 195.16 401.70 195.98 405.18 198.93 405.00 C 201.51 404.63 200.94 401.62 200.82 399.78 C 208.56 399.59 216.28 398.80 224.03 398.65 Z" />
<path fill="#3e3e3e" opacity="1.00" d=" M 221.50 402.78 C 237.48 399.92 253.82 399.85 269.99 400.75 C 278.97 401.55 288.04 402.59 296.62 405.49 C 302.47 407.29 306.47 412.16 311.17 415.78 C 312.73 416.73 313.44 418.82 312.39 420.42 C 310.34 422.45 307.50 423.41 304.81 424.27 C 295.77 426.90 286.35 427.92 276.98 428.61 C 263.99 429.85 250.91 429.60 237.87 429.26 C 226.72 428.41 215.47 427.66 204.56 425.01 C 200.44 423.91 195.86 422.76 193.30 419.02 C 196.06 414.61 200.31 411.48 204.54 408.59 C 209.57 405.20 215.64 403.96 221.50 402.78 Z" />
<path fill="#f5722c" opacity="1.00" d=" M 233.52 404.88 C 252.16 403.45 271.11 403.44 289.48 407.27 C 293.67 408.45 298.71 409.22 301.42 413.02 C 301.83 414.77 300.15 415.96 298.89 416.79 C 294.68 419.22 289.78 420.03 285.08 421.01 C 271.53 423.36 257.70 423.76 243.98 423.29 C 234.20 422.69 224.36 421.92 214.88 419.30 C 212.19 418.48 209.40 417.62 207.18 415.81 C 206.14 415.09 205.64 413.40 206.50 412.38 C 208.06 410.41 210.54 409.53 212.82 408.69 C 219.51 406.47 226.56 405.70 233.52 404.88 Z" />
</svg>
