<?xml version="1.0" encoding="UTF-8" ?>
<!DOCTYPE svg PUBLIC "-//W3C//DTD SVG 1.1//EN" "http://www.w3.org/Graphics/SVG/1.1/DTD/svg11.dtd">
<svg width="512pt" height="512pt" viewBox="0 0 512 512" version="1.1" xmlns="http://www.w3.org/2000/svg">
<path fill="#3e3e3e" opacity="1.00" d=" M 0.00 0.00 L 512.00 0.00 L 512.00 245.15 C 509.97 243.11 507.66 241.35 505.82 239.14 C 502.38 234.79 500.23 229.55 496.71 225.27 C 494.09 224.51 491.30 224.91 488.62 224.82 C 490.19 211.59 491.24 198.31 492.67 185.06 C 493.88 178.24 488.00 172.77 488.49 166.00 C 487.96 160.64 489.90 154.41 486.15 149.87 C 483.80 146.61 481.29 143.45 478.88 140.23 C 470.58 139.49 462.24 139.50 453.94 138.82 C 450.33 138.69 446.69 138.12 443.10 138.68 C 440.12 139.62 437.13 140.82 434.59 142.67 C 432.91 144.99 431.29 148.04 431.79 150.93 C 434.34 153.83 438.08 155.81 439.37 159.68 C 441.19 163.01 439.32 166.70 438.75 170.10 C 436.13 182.00 433.28 193.85 430.87 205.78 C 429.69 215.87 429.22 226.04 428.41 236.17 C 428.29 240.18 425.31 243.23 423.55 246.63 C 421.59 240.62 419.58 234.62 417.10 228.81 C 416.19 226.51 414.48 224.71 412.76 223.00 C 401.83 224.94 391.12 228.04 380.13 229.69 C 389.78 221.78 400.32 214.99 409.79 206.87 C 414.14 201.31 418.65 195.24 419.39 187.99 C 419.12 184.99 418.38 181.83 416.63 179.33 C 413.69 176.73 410.11 174.36 406.06 174.20 C 393.00 172.76 379.91 175.28 367.24 178.22 C 358.46 180.67 349.83 183.69 341.39 187.13 C 341.49 186.74 341.59 186.35 341.70 185.96 C 346.13 184.28 349.74 181.13 353.77 178.72 C 360.10 174.89 366.61 171.36 373.29 168.18 C 378.27 165.78 383.71 164.67 388.98 163.09 C 387.31 157.09 385.23 151.14 382.35 145.61 C 379.30 141.75 375.80 138.17 372.02 135.01 C 366.20 131.37 360.07 128.06 353.39 126.30 C 346.43 124.38 339.29 122.09 331.98 122.91 C 319.03 123.99 305.21 125.27 294.45 133.30 C 290.29 136.84 285.36 139.70 282.40 144.42 C 279.66 148.69 276.46 152.85 275.28 157.88 C 273.78 163.42 271.51 168.75 270.72 174.47 C 269.82 180.95 268.43 187.43 268.74 194.01 C 268.75 197.21 269.13 200.47 268.51 203.63 C 266.92 206.26 264.75 208.52 262.45 210.54 C 255.90 210.25 249.52 208.14 243.04 207.10 C 235.33 185.64 227.95 164.06 220.29 142.58 C 219.59 142.44 218.19 142.16 217.49 142.02 C 217.46 139.02 219.59 137.02 221.36 134.92 C 220.47 129.54 219.49 123.37 214.56 120.10 C 210.89 120.67 208.26 125.50 204.39 124.24 C 204.20 122.61 205.32 121.29 206.01 119.93 C 209.85 113.97 211.47 106.86 212.80 99.99 C 211.77 95.08 207.93 91.39 206.32 86.71 C 205.50 83.34 206.03 79.81 205.30 76.43 C 204.06 74.67 201.83 72.68 199.52 73.49 C 197.13 74.94 195.24 77.05 193.20 78.94 C 193.10 83.65 193.09 88.37 193.16 93.08 C 194.49 94.46 195.84 95.83 197.19 97.20 C 196.58 98.89 195.96 100.58 195.34 102.27 C 192.04 102.22 188.66 101.78 185.42 102.53 C 180.57 105.61 176.99 110.26 174.09 115.14 C 173.52 116.45 170.40 115.78 171.51 114.06 C 172.78 110.03 174.76 106.25 176.56 102.44 C 179.06 97.51 186.69 98.15 188.30 92.49 C 189.13 87.57 188.58 82.46 188.23 77.50 C 186.56 71.50 184.10 65.75 182.25 59.81 C 181.39 56.09 178.06 53.98 175.43 51.57 C 170.92 47.74 168.29 42.34 164.98 37.55 C 160.19 37.66 156.36 40.81 152.18 42.72 C 152.86 45.80 152.50 49.63 155.34 51.71 C 161.71 57.41 167.18 64.51 169.06 73.00 C 168.91 73.55 168.61 74.67 168.45 75.23 C 162.69 65.14 153.89 57.32 147.09 47.97 C 144.75 45.25 143.12 40.83 138.89 40.86 C 136.15 41.22 133.84 43.24 132.12 45.30 C 131.22 47.70 131.27 50.44 131.67 52.95 C 133.16 56.06 135.40 58.73 137.61 61.34 C 142.66 66.99 147.44 72.87 152.52 78.50 C 154.23 80.38 155.80 82.39 157.14 84.56 C 150.54 80.02 144.55 74.66 138.13 69.88 C 135.56 67.76 132.01 68.50 128.95 68.28 C 123.90 68.00 118.56 69.28 114.54 72.40 C 112.93 75.76 112.03 79.45 111.41 83.11 C 111.69 87.35 116.47 88.80 120.08 88.46 C 122.17 87.90 122.30 85.38 123.16 83.75 C 126.35 83.92 130.05 82.99 132.72 85.24 C 137.26 88.50 141.62 92.00 146.04 95.40 C 141.07 94.40 135.22 94.51 131.36 98.28 C 126.21 102.09 123.16 108.08 121.36 114.07 C 123.14 116.18 126.23 117.44 128.98 117.34 C 132.94 117.16 134.40 113.06 136.61 110.48 C 138.12 108.05 141.27 108.09 143.73 107.36 C 146.86 112.52 149.52 118.01 153.11 122.86 C 157.45 126.33 162.53 128.74 167.13 131.85 C 170.27 134.31 174.42 133.28 178.07 133.10 C 183.80 132.63 188.63 129.10 194.12 127.75 C 196.48 127.46 195.88 130.91 195.12 132.19 C 186.93 139.43 176.40 142.94 166.66 147.55 C 167.49 151.04 167.86 154.65 169.02 158.06 C 170.94 159.65 173.50 157.96 175.60 157.58 C 185.52 154.99 194.46 149.85 203.79 145.74 C 202.82 147.64 201.73 149.57 199.92 150.80 C 193.54 155.54 187.20 160.35 180.94 165.25 C 184.06 174.03 189.89 182.28 189.31 191.98 C 189.63 199.86 188.49 207.84 189.98 215.63 C 189.57 215.50 189.16 215.38 188.75 215.26 C 187.65 212.02 187.34 206.12 182.50 207.24 C 177.42 208.33 170.91 207.80 167.61 212.59 C 159.08 222.65 150.55 232.71 141.75 242.52 C 141.65 251.03 141.15 259.57 139.88 267.99 C 138.05 264.76 137.61 261.02 136.83 257.45 C 131.08 230.94 125.30 204.44 119.55 177.93 C 118.84 174.85 118.48 171.65 117.25 168.72 C 114.12 167.03 110.52 166.62 107.05 166.18 C 97.80 164.83 88.21 165.26 79.15 167.55 C 71.90 170.47 64.49 173.98 59.13 179.85 C 62.47 201.92 65.87 223.99 69.24 246.07 C 69.80 250.12 70.84 254.15 70.66 258.26 C 68.07 259.77 67.10 256.65 66.07 254.91 C 61.48 245.92 56.76 236.99 52.07 228.05 C 47.99 228.59 43.17 227.70 39.92 230.83 C 34.99 234.93 30.02 238.99 25.09 243.10 C 18.16 249.62 8.35 251.04 0.00 255.03 L 0.00 52.57 C 7.66 52.71 15.32 52.62 22.98 52.80 C 28.40 48.94 33.55 44.69 39.11 41.03 C 47.28 36.68 56.03 33.37 65.00 31.13 C 79.38 29.63 94.31 29.31 108.20 33.93 C 110.06 34.67 111.65 33.03 113.10 32.12 C 117.98 28.28 123.01 24.62 127.87 20.77 C 130.39 19.00 130.12 15.60 130.58 12.90 C 130.66 10.59 131.40 7.99 130.15 5.87 C 118.19 1.87 105.45 2.34 93.01 1.83 C 81.28 2.31 69.50 2.29 57.87 4.05 C 42.97 7.26 28.23 11.66 14.60 18.59 C 9.40 21.03 4.41 23.98 0.00 27.68 L 0.00 0.00 Z" />
<path fill="#f5e5c1" opacity="1.00" d=" M 57.87 4.05 C 69.50 2.29 81.28 2.31 93.01 1.83 C 105.45 2.34 118.19 1.87 130.15 5.87 C 131.40 7.99 130.66 10.59 130.58 12.90 C 130.12 15.60 130.39 19.00 127.87 20.77 C 123.01 24.62 117.98 28.28 113.10 32.12 C 111.65 33.03 110.06 34.67 108.20 33.93 C 94.31 29.31 79.38 29.63 65.00 31.13 C 56.03 33.37 47.28 36.68 39.11 41.03 C 33.55 44.69 28.40 48.94 22.98 52.80 C 15.32 52.62 7.66 52.71 0.00 52.57 L 0.00 27.68 C 4.41 23.98 9.40 21.03 14.60 18.59 C 28.23 11.66 42.97 7.26 57.87 4.05 Z" />
<path fill="#f5e5c1" opacity="1.00" d=" M 54.35 41.30 C 60.64 38.84 67.18 36.50 74.02 36.41 C 84.16 36.23 94.42 37.26 104.02 40.68 C 101.75 51.16 98.47 61.41 95.77 71.79 C 89.13 69.10 81.92 70.33 74.96 70.32 C 62.53 71.92 50.05 77.20 41.92 87.02 C 36.86 77.73 31.77 68.45 26.71 59.16 C 34.19 50.85 44.54 46.22 54.35 41.30 Z" />
<path fill="#f5e5c1" opacity="1.00" d=" M 152.18 42.72 C 156.36 40.81 160.19 37.66 164.98 37.55 C 168.29 42.34 170.92 47.74 175.43 51.57 C 178.06 53.98 181.39 56.09 182.25 59.81 C 184.10 65.75 186.56 71.50 188.23 77.50 C 188.58 82.46 189.13 87.57 188.30 92.49 C 186.69 98.15 179.06 97.51 176.56 102.44 C 174.76 106.25 172.78 110.03 171.51 114.06 C 170.40 115.78 173.52 116.45 174.09 115.14 C 176.99 110.26 180.57 105.61 185.42 102.53 C 188.66 101.78 192.04 102.22 195.34 102.27 C 195.96 100.58 196.58 98.89 197.19 97.20 C 195.84 95.83 194.49 94.46 193.16 93.08 C 193.09 88.37 193.10 83.65 193.20 78.94 C 195.24 77.05 197.13 74.94 199.52 73.49 C 201.83 72.68 204.06 74.67 205.30 76.43 C 206.03 79.81 205.50 83.34 206.32 86.71 C 207.93 91.39 211.77 95.08 212.80 99.99 C 211.47 106.86 209.85 113.97 206.01 119.93 C 205.32 121.29 204.20 122.61 204.39 124.24 C 208.26 125.50 210.89 120.67 214.56 120.10 C 219.49 123.37 220.47 129.54 221.36 134.92 C 219.59 137.02 217.46 139.02 217.49 142.02 C 218.19 142.16 219.59 142.44 220.29 142.58 C 227.95 164.06 235.33 185.64 243.04 207.10 C 249.52 208.14 255.90 210.25 262.45 210.54 C 264.75 208.52 266.92 206.26 268.51 203.63 C 269.13 200.47 268.75 197.21 268.74 194.01 C 268.43 187.43 269.82 180.95 270.72 174.47 C 271.51 168.75 273.78 163.42 275.28 157.88 C 276.46 152.85 279.66 148.69 282.40 144.42 C 285.36 139.70 290.29 136.84 294.45 133.30 C 305.21 125.27 319.03 123.99 331.98 122.91 C 339.29 122.09 346.43 124.38 353.39 126.30 C 360.07 128.06 366.20 131.37 372.02 135.01 C 375.80 138.17 379.30 141.75 382.35 145.61 C 385.23 151.14 387.31 157.09 388.98 163.09 C 383.71 164.67 378.27 165.78 373.29 168.18 C 366.61 171.36 360.10 174.89 353.77 178.72 C 349.74 181.13 346.13 184.28 341.70 185.96 C 341.59 186.35 341.49 186.74 341.39 187.13 C 349.83 183.69 358.46 180.67 367.24 178.22 C 379.91 175.28 393.00 172.76 406.06 174.20 C 410.11 174.36 413.69 176.73 416.63 179.33 C 418.38 181.83 419.12 184.99 419.39 187.99 C 418.65 195.24 414.14 201.31 409.79 206.87 C 400.32 214.99 389.78 221.78 380.13 229.69 C 391.12 228.04 401.83 224.94 412.76 223.00 C 414.48 224.71 416.19 226.51 417.10 228.81 C 419.58 234.62 421.59 240.62 423.55 246.63 C 425.31 243.23 428.29 240.18 428.41 236.17 C 429.22 226.04 429.69 215.87 430.87 205.78 C 433.28 193.85 436.13 182.00 438.75 170.10 C 439.32 166.70 441.19 163.01 439.37 159.68 C 438.08 155.81 434.34 153.83 431.79 150.93 C 431.29 148.04 432.91 144.99 434.59 142.67 C 437.13 140.82 440.12 139.62 443.10 138.68 C 446.69 138.12 450.33 138.69 453.94 138.82 C 462.24 139.50 470.58 139.49 478.88 140.23 C 481.29 143.45 483.80 146.61 486.15 149.87 C 489.90 154.41 487.96 160.64 488.49 166.00 C 488.00 172.77 493.88 178.24 492.67 185.06 C 491.24 198.31 490.19 211.59 488.62 224.82 C 491.30 224.91 494.09 224.51 496.71 225.27 C 500.23 229.55 502.38 234.79 505.82 239.14 C 507.66 241.35 509.97 243.11 512.00 245.15 L 512.00 512.00 L 361.92 512.00 C 361.88 506.96 360.83 501.98 361.00 496.92 C 365.58 495.42 370.74 493.03 372.25 488.02 C 373.91 482.13 372.89 475.92 372.81 469.90 C 377.73 468.05 382.96 466.54 387.04 463.06 C 391.07 463.01 395.12 463.18 399.13 462.61 C 409.72 461.11 420.49 463.00 431.07 461.34 C 436.50 460.57 442.08 461.66 447.46 460.34 C 455.59 458.32 463.48 455.46 471.63 453.48 C 477.24 452.02 482.79 450.03 487.55 446.63 C 492.16 443.38 497.82 440.76 500.21 435.30 C 502.51 429.78 505.22 424.14 505.14 418.02 C 505.14 409.28 505.38 400.24 502.09 391.97 C 504.62 381.40 501.98 370.63 501.85 359.98 C 500.84 353.39 501.36 346.70 500.41 340.11 C 499.76 334.48 500.61 328.61 498.25 323.28 C 499.73 317.57 498.11 311.79 498.01 306.03 C 498.03 302.61 496.76 299.37 494.79 296.62 C 495.65 290.87 495.17 283.68 489.75 280.24 C 479.90 273.78 468.44 270.08 456.89 268.16 C 454.18 267.71 451.50 268.42 448.88 268.98 C 444.25 266.78 439.57 264.65 434.69 263.08 C 419.63 259.55 404.49 255.77 388.98 254.96 C 383.28 255.17 377.64 254.31 371.97 254.09 C 363.32 254.94 354.56 254.95 346.06 256.96 C 341.29 258.24 336.14 257.45 331.55 259.46 C 328.31 260.76 324.95 261.69 321.58 262.58 C 319.22 261.41 316.77 259.95 314.04 260.17 C 308.14 260.83 302.09 260.98 296.53 263.30 C 288.23 266.32 278.01 268.25 273.54 276.82 C 265.78 278.14 257.95 278.97 250.20 280.33 C 246.76 280.92 243.50 282.29 240.61 284.23 C 232.82 283.26 225.07 284.85 217.32 285.34 C 193.54 288.86 169.73 292.15 146.00 295.97 C 132.32 297.74 118.75 300.25 105.06 301.85 C 99.41 302.23 92.74 303.15 89.25 308.19 C 84.92 314.53 83.57 322.46 83.96 330.01 C 84.32 342.98 83.21 356.02 84.83 368.93 C 76.49 370.28 68.56 373.52 60.10 374.22 C 50.71 375.94 41.36 377.89 32.01 379.81 C 25.28 381.17 18.18 384.65 15.48 391.38 C 9.70 403.34 10.22 417.10 12.22 429.90 C 13.27 439.42 16.59 448.57 21.11 456.96 C 23.68 461.65 24.70 467.42 29.12 470.90 C 33.36 474.09 36.88 478.69 42.27 479.98 C 46.88 481.58 51.94 481.43 56.49 479.69 C 73.37 473.89 90.47 468.73 107.18 462.47 C 113.55 471.21 123.80 475.51 132.42 481.56 C 148.40 491.49 164.01 501.99 179.93 512.00 L 0.00 512.00 L 0.00 255.03 C 8.35 251.04 18.16 249.62 25.09 243.10 C 30.02 238.99 34.99 234.93 39.92 230.83 C 43.17 227.70 47.99 228.59 52.07 228.05 C 56.76 236.99 61.48 245.92 66.07 254.91 C 67.10 256.65 68.07 259.77 70.66 258.26 C 70.84 254.15 69.80 250.12 69.24 246.07 C 65.87 223.99 62.47 201.92 59.13 179.85 C 64.49 173.98 71.90 170.47 79.15 167.55 C 88.21 165.26 97.80 164.83 107.05 166.18 C 110.52 166.62 114.12 167.03 117.25 168.72 C 118.48 171.65 118.84 174.85 119.55 177.93 C 125.30 204.44 131.08 230.94 136.83 257.45 C 137.61 261.02 138.05 264.76 139.88 267.99 C 141.15 259.57 141.65 251.03 141.75 242.52 C 150.55 232.71 159.08 222.65 167.61 212.59 C 170.91 207.80 177.42 208.33 182.50 207.24 C 187.34 206.12 187.65 212.02 188.75 215.26 C 189.16 215.38 189.57 215.50 189.98 215.63 C 188.49 207.84 189.63 199.86 189.31 191.98 C 189.89 182.28 184.06 174.03 180.94 165.25 C 187.20 160.35 193.54 155.54 199.92 150.80 C 201.73 149.57 202.82 147.64 203.79 145.74 C 194.46 149.85 185.52 154.99 175.60 157.58 C 173.50 157.96 170.94 159.65 169.02 158.06 C 167.86 154.65 167.49 151.04 166.66 147.55 C 176.40 142.94 186.93 139.43 195.12 132.19 C 195.88 130.91 196.48 127.46 194.12 127.75 C 188.63 129.10 183.80 132.63 178.07 133.10 C 174.42 133.28 170.27 134.31 167.13 131.85 C 162.53 128.74 157.45 126.33 153.11 122.86 C 149.52 118.01 146.86 112.52 143.73 107.36 C 141.27 108.09 138.12 108.05 136.61 110.48 C 134.40 113.06 132.94 117.16 128.98 117.34 C 126.23 117.44 123.14 116.18 121.36 114.07 C 123.16 108.08 126.21 102.09 131.36 98.28 C 135.22 94.51 141.07 94.40 146.04 95.40 C 141.62 92.00 137.26 88.50 132.72 85.24 C 130.05 82.99 126.35 83.92 123.16 83.75 C 122.30 85.38 122.17 87.90 120.08 88.46 C 116.47 88.80 111.69 87.35 111.41 83.11 C 112.03 79.45 112.93 75.76 114.54 72.40 C 118.56 69.28 123.90 68.00 128.95 68.28 C 132.01 68.50 135.56 67.76 138.13 69.88 C 144.55 74.66 150.54 80.02 157.14 84.56 C 155.80 82.39 154.23 80.38 152.52 78.50 C 147.44 72.87 142.66 66.99 137.61 61.34 C 135.40 58.73 133.16 56.06 131.67 52.95 C 131.27 50.44 131.22 47.70 132.12 45.30 C 133.84 43.24 136.15 41.22 138.89 40.86 C 143.12 40.83 144.75 45.25 147.09 47.97 C 153.89 57.32 162.69 65.14 168.45 75.23 C 168.61 74.67 168.91 73.55 169.06 73.00 C 167.18 64.51 161.71 57.41 155.34 51.71 C 152.50 49.63 152.86 45.80 152.18 42.72 Z" />
<path fill="#f5e5c1" opacity="1.00" d=" M 470.09 46.68 C 476.91 45.33 483.87 46.45 490.75 46.67 C 490.40 50.80 490.04 54.96 489.06 58.99 C 488.08 60.06 486.35 59.68 485.07 60.02 C 471.60 61.03 458.12 61.99 444.65 62.96 C 443.31 63.14 441.95 63.23 440.69 63.71 C 432.33 67.82 424.62 73.23 416.14 77.07 C 402.08 79.54 387.92 81.54 373.83 83.84 C 372.77 83.95 371.93 84.42 371.29 85.26 C 368.35 88.72 365.83 92.52 362.97 96.06 C 361.49 98.58 358.20 97.45 355.82 97.91 C 354.13 96.01 352.54 94.04 351.03 92.01 C 351.37 87.23 351.83 82.46 352.47 77.71 C 355.46 75.61 358.26 72.98 361.91 72.12 C 367.66 70.64 373.24 68.52 379.06 67.34 C 389.06 67.34 399.02 68.66 409.03 68.78 C 410.59 68.86 411.92 67.85 413.27 67.20 C 423.10 61.77 432.77 56.00 442.77 50.90 C 451.81 49.14 461.00 48.18 470.09 46.68 Z" />
<path fill="#f5e5c1" opacity="1.00" d=" M 446.03 69.77 C 459.60 68.37 473.12 66.40 486.70 65.17 C 487.60 68.08 488.99 70.87 489.46 73.90 C 488.26 79.67 486.60 85.35 485.42 91.13 C 485.06 92.64 485.87 94.09 486.29 95.50 C 490.18 106.40 494.13 117.28 497.89 128.23 C 501.40 129.66 504.88 132.15 505.69 136.09 C 506.20 138.18 504.54 140.03 502.77 140.83 C 499.92 142.17 496.85 142.95 493.83 143.79 C 492.09 141.00 490.80 137.87 488.58 135.42 C 485.15 134.08 481.52 133.26 477.91 132.65 C 464.60 132.15 451.26 132.50 437.96 131.84 C 433.54 131.56 431.23 136.16 428.71 139.03 C 427.70 138.57 426.33 138.60 425.64 137.62 C 423.69 134.42 422.85 130.72 421.88 127.14 C 424.98 125.56 427.88 123.47 431.26 122.49 C 438.12 121.91 445.03 121.16 451.93 121.70 C 459.29 122.42 466.67 122.79 474.03 123.54 C 475.26 123.60 477.74 123.93 477.62 121.99 C 477.87 119.99 475.48 119.47 474.03 119.10 C 463.30 116.62 452.64 113.82 441.89 111.43 C 435.99 111.11 430.17 112.66 424.28 112.88 C 426.81 109.04 429.16 105.06 430.74 100.73 C 432.29 96.43 434.97 92.39 434.99 87.68 C 433.56 88.25 431.67 88.28 430.82 89.77 C 428.07 94.01 425.30 98.24 422.32 102.32 C 419.38 106.33 416.80 110.93 412.38 113.49 C 405.84 116.85 398.13 118.80 390.90 116.56 C 383.16 115.41 375.11 112.01 370.91 105.05 C 367.35 100.49 371.84 95.25 374.75 91.70 C 375.82 90.45 377.50 90.22 379.02 89.93 C 392.69 87.71 406.36 85.42 420.03 83.19 C 422.61 82.86 424.67 81.18 426.77 79.81 C 430.98 77.00 435.19 74.20 439.43 71.45 C 441.36 70.10 443.79 70.10 446.03 69.77 Z" />
<path fill="#f5e5c1" opacity="1.00" d=" M 60.66 83.69 C 68.80 78.69 78.68 78.04 87.96 78.97 C 91.09 79.68 94.43 80.09 97.21 81.77 C 99.47 85.51 100.36 89.88 101.37 94.08 C 101.76 95.49 101.31 96.59 100.03 97.37 C 94.32 97.45 88.80 95.12 83.06 95.58 C 75.77 96.13 68.48 97.67 61.85 100.81 C 56.57 102.92 52.42 106.94 47.68 109.97 C 46.41 106.66 45.59 103.21 44.56 99.83 C 48.18 93.02 53.96 87.48 60.66 83.69 Z" />
<path fill="#f5e5c1" opacity="1.00" d=" M 48.12 120.15 C 59.42 108.79 75.64 101.12 91.90 103.64 C 99.12 104.72 104.19 110.31 109.57 114.69 C 109.32 129.01 108.26 143.31 108.58 157.64 C 97.45 156.53 85.86 155.22 75.04 158.90 C 68.73 160.92 63.10 164.54 57.98 168.67 C 53.75 157.81 49.10 147.12 44.73 136.31 C 43.54 133.79 44.85 131.11 45.43 128.61 C 46.35 125.80 46.73 122.77 48.12 120.15 Z" />
<path fill="#3e3e3e" opacity="1.00" d=" M 388.12 183.79 C 394.00 182.65 400.13 181.70 406.06 183.02 C 408.75 183.76 411.79 185.83 411.46 189.00 C 412.18 193.87 408.09 197.14 405.33 200.48 C 396.45 210.58 383.46 215.29 372.63 222.80 C 371.64 220.67 371.10 218.29 369.81 216.31 C 363.91 210.49 355.83 208.05 348.61 204.35 C 341.94 200.55 333.97 201.98 326.73 200.33 C 339.40 196.25 351.92 191.54 365.00 188.92 C 372.70 187.16 380.38 185.33 388.12 183.79 Z" />
<path fill="#3e3e3e" opacity="1.00" d=" M 346.06 256.96 C 354.56 254.95 363.32 254.94 371.97 254.09 C 377.64 254.31 383.28 255.17 388.98 254.96 C 404.49 255.77 419.63 259.55 434.69 263.08 C 439.57 264.65 444.25 266.78 448.88 268.98 C 451.50 268.42 454.18 267.71 456.89 268.16 C 468.44 270.08 479.90 273.78 489.75 280.24 C 495.17 283.68 495.65 290.87 494.79 296.62 C 496.76 299.37 498.03 302.61 498.01 306.03 C 498.11 311.79 499.73 317.57 498.25 323.28 C 500.61 328.61 499.76 334.48 500.41 340.11 C 501.36 346.70 500.84 353.39 501.85 359.98 C 501.98 370.63 504.62 381.40 502.09 391.97 C 505.38 400.24 505.14 409.28 505.14 418.02 C 505.22 424.14 502.51 429.78 500.21 435.30 C 497.82 440.76 492.16 443.38 487.55 446.63 C 482.79 450.03 477.24 452.02 471.63 453.48 C 463.48 455.46 455.59 458.32 447.46 460.34 C 442.08 461.66 436.50 460.57 431.07 461.34 C 420.49 463.00 409.72 461.11 399.13 462.61 C 395.12 463.18 391.07 463.01 387.04 463.06 C 382.96 466.54 377.73 468.05 372.81 469.90 C 372.89 475.92 373.91 482.13 372.25 488.02 C 370.74 493.03 365.58 495.42 361.00 496.92 C 360.83 501.98 361.88 506.96 361.92 512.00 L 350.60 512.00 C 350.30 507.11 349.86 502.23 349.59 497.34 C 335.17 502.30 320.71 507.12 306.26 512.00 L 292.48 512.00 C 287.67 509.98 281.33 507.19 281.24 501.08 C 281.50 492.91 282.59 484.79 283.28 476.65 C 264.30 484.54 245.35 492.50 226.51 500.70 C 226.61 504.46 226.70 508.23 226.82 512.00 L 216.19 512.00 C 216.00 511.47 215.61 510.42 215.42 509.89 C 213.82 510.60 212.23 511.33 210.62 512.00 L 179.93 512.00 C 164.01 501.99 148.40 491.49 132.42 481.56 C 123.80 475.51 113.55 471.21 107.18 462.47 C 90.47 468.73 73.37 473.89 56.49 479.69 C 51.94 481.43 46.88 481.58 42.27 479.98 C 36.88 478.69 33.36 474.09 29.12 470.90 C 24.70 467.42 23.68 461.65 21.11 456.96 C 16.59 448.57 13.27 439.42 12.22 429.90 C 10.22 417.10 9.70 403.34 15.48 391.38 C 18.18 384.65 25.28 381.17 32.01 379.81 C 41.36 377.89 50.71 375.94 60.10 374.22 C 68.56 373.52 76.49 370.28 84.83 368.93 C 83.21 356.02 84.32 342.98 83.96 330.01 C 83.57 322.46 84.92 314.53 89.25 308.19 C 92.74 303.15 99.41 302.23 105.06 301.85 C 118.75 300.25 132.32 297.74 146.00 295.97 C 169.73 292.15 193.54 288.86 217.32 285.34 C 225.07 284.85 232.82 283.26 240.61 284.23 C 243.50 282.29 246.76 280.92 250.20 280.33 C 257.95 278.97 265.78 278.14 273.54 276.82 C 278.01 268.25 288.23 266.32 296.53 263.30 C 302.09 260.98 308.14 260.83 314.04 260.17 C 316.77 259.95 319.22 261.41 321.58 262.58 C 324.95 261.69 328.31 260.76 331.55 259.46 C 336.14 257.45 341.29 258.24 346.06 256.96 Z" />
<path fill="#f5722c" opacity="1.00" d=" M 352.19 267.14 C 363.19 265.70 374.38 264.87 385.43 266.27 C 396.08 266.54 406.70 268.00 417.04 270.58 C 422.97 272.16 429.27 272.56 434.84 275.34 C 439.22 277.53 444.78 278.47 447.51 282.97 C 448.69 284.83 446.35 285.25 445.14 285.35 C 434.47 287.15 423.68 287.82 412.92 288.70 C 399.25 288.31 385.57 287.80 371.94 286.77 C 359.43 286.61 347.24 283.56 334.96 281.55 C 329.30 280.42 323.34 280.08 318.16 277.27 C 328.08 270.20 340.70 269.76 352.19 267.14 Z" />
<path fill="#3e3e3e" opacity="1.00" d=" M 365.52 271.89 C 377.02 270.69 388.95 269.16 400.19 272.82 C 402.13 273.89 402.52 276.42 403.63 278.18 C 402.52 278.97 401.55 280.31 400.04 280.24 C 395.03 280.69 390.01 280.27 385.04 279.70 C 379.36 279.06 373.60 279.89 367.95 278.97 C 365.90 278.61 363.49 278.07 362.48 276.01 C 361.89 273.92 363.64 272.32 365.52 271.89 Z" />
<path fill="#f5722c" opacity="1.00" d=" M 286.08 279.21 C 294.36 275.14 303.31 272.01 312.61 271.73 C 311.03 273.87 309.07 276.10 309.36 278.98 C 308.94 281.52 309.94 284.64 312.82 285.12 C 319.31 286.61 325.63 288.75 332.11 290.29 C 350.60 293.68 369.33 295.54 388.07 296.76 C 399.35 298.22 410.73 297.23 422.07 297.18 C 432.16 296.06 442.66 296.99 452.35 293.43 C 455.91 292.66 456.01 288.37 456.68 285.49 C 457.43 282.94 455.56 280.95 454.20 279.05 C 464.32 280.55 474.28 283.65 482.93 289.19 C 485.26 290.71 483.97 293.93 483.07 295.96 C 477.84 299.81 471.11 299.38 465.00 300.29 C 453.97 301.40 443.19 305.23 432.00 304.25 C 422.01 303.47 411.99 303.51 401.98 303.37 C 391.61 303.52 381.34 301.94 371.02 301.26 C 360.51 300.14 349.95 299.61 339.46 298.29 C 328.61 296.48 317.79 294.47 306.94 292.73 C 299.09 289.74 291.72 285.58 283.91 282.44 C 284.37 281.20 284.63 279.66 286.08 279.21 Z" />
<path fill="#f5722c" opacity="1.00" d=" M 250.98 291.71 C 258.38 290.83 265.72 289.53 273.09 288.50 C 276.52 287.84 279.47 290.11 282.37 291.56 C 288.04 294.93 294.30 297.05 300.26 299.81 C 303.05 301.14 306.04 301.95 309.09 302.41 C 322.67 304.66 336.09 308.14 349.90 308.80 C 363.40 310.41 377.16 310.33 390.46 313.39 C 396.24 315.49 397.73 322.40 397.54 327.90 C 395.11 356.44 392.56 384.97 390.21 413.52 C 389.56 416.77 387.32 419.36 385.43 421.98 C 384.48 419.99 383.55 417.98 382.64 415.96 C 383.12 411.50 381.16 407.38 379.60 403.34 C 378.15 399.69 374.38 397.90 371.44 395.63 C 371.10 390.74 370.63 385.86 370.73 380.96 C 370.66 378.10 370.98 374.60 368.31 372.75 C 364.20 369.62 359.80 366.89 355.37 364.26 C 354.09 351.55 357.56 338.81 356.57 326.08 C 355.60 319.44 349.35 315.21 343.25 313.77 C 312.48 306.49 281.78 298.88 250.98 291.71 Z" />
<path fill="#f5722c" opacity="1.00" d=" M 235.16 295.21 C 239.21 295.23 243.04 296.70 246.96 297.55 C 277.30 304.86 307.66 312.15 338.01 319.43 C 342.01 320.31 346.64 321.23 349.05 324.92 C 351.06 327.99 350.13 331.71 349.80 335.11 C 349.21 345.13 348.41 355.14 347.74 365.17 C 335.39 368.29 323.02 371.33 310.65 374.36 C 307.59 375.15 304.26 375.65 301.81 377.81 C 295.16 383.20 290.27 391.35 289.95 400.03 C 288.04 422.68 285.91 445.32 284.01 467.96 C 283.74 469.33 282.20 469.63 281.16 470.20 C 262.94 477.82 244.79 485.63 226.57 493.24 C 221.35 494.13 217.24 497.60 212.30 499.22 C 207.52 501.00 202.90 503.26 197.96 504.58 C 192.73 503.99 187.20 503.16 182.76 500.12 C 164.33 488.25 145.85 476.46 127.39 464.64 C 123.45 461.91 118.09 459.76 116.87 454.63 C 119.15 453.84 121.44 453.10 123.76 452.45 C 127.29 455.71 131.56 457.95 135.57 460.53 C 152.21 470.96 169.11 480.99 185.95 491.08 C 189.27 493.06 192.73 496.52 196.93 495.19 C 199.87 492.68 199.36 488.46 199.43 485.01 C 199.08 465.00 200.30 445.00 199.48 425.00 C 199.36 407.34 199.45 389.67 199.52 372.00 C 199.85 365.38 197.36 359.03 194.67 353.11 C 193.56 350.16 190.14 349.74 187.60 348.62 C 161.84 339.51 136.18 330.08 110.46 320.86 C 108.50 320.33 105.78 319.30 104.29 321.27 C 102.48 323.04 102.62 325.70 102.56 328.03 C 102.59 333.42 102.55 338.83 103.01 344.20 C 103.81 352.51 103.43 360.88 104.35 369.18 C 101.47 369.72 98.58 370.25 95.69 370.74 C 95.65 356.16 95.41 341.59 95.40 327.02 C 95.48 323.24 95.85 319.19 97.93 315.94 C 100.31 312.85 104.59 313.71 107.96 313.06 C 139.62 308.39 171.26 303.64 202.91 298.95 C 213.62 297.39 224.31 295.42 235.16 295.21 Z" />
<path fill="#f5722c" opacity="1.00" d=" M 448.92 313.38 C 461.52 310.94 474.83 310.74 486.56 305.01 C 487.06 309.98 487.75 314.98 487.42 319.98 C 486.43 323.03 483.06 324.16 480.48 325.51 C 469.60 330.12 457.59 330.34 445.96 330.70 C 436.64 330.45 427.31 332.14 418.00 331.01 C 413.46 330.55 408.91 330.26 404.40 329.56 C 404.33 323.60 403.77 317.11 399.97 312.24 C 404.72 311.87 409.32 312.83 413.93 313.75 C 425.58 313.52 437.29 314.31 448.92 313.38 Z" />
<path fill="#f5722c" opacity="1.00" d=" M 472.92 334.27 C 478.40 333.46 483.21 330.72 488.36 328.89 C 489.41 345.63 490.75 362.35 491.74 379.09 C 491.95 382.11 492.78 385.38 491.21 388.20 C 488.34 393.13 485.46 398.49 480.21 401.26 C 473.20 405.08 465.61 407.69 458.00 410.01 C 452.40 411.37 446.65 411.88 440.97 412.78 C 426.49 415.28 411.72 414.32 397.10 414.08 C 398.82 388.08 401.48 362.15 403.60 336.17 C 410.46 335.97 417.20 337.67 424.06 337.43 C 431.36 337.24 438.67 337.47 445.96 337.03 C 454.94 335.97 464.17 337.02 472.92 334.27 Z" />
<path fill="#f5722c" opacity="1.00" d=" M 118.16 367.67 C 123.23 363.39 129.48 358.95 136.51 360.62 C 141.43 362.53 144.92 366.75 148.62 370.33 C 151.89 374.51 154.58 379.14 157.32 383.68 C 163.24 400.22 166.85 417.92 165.40 435.54 C 163.53 440.60 161.84 446.13 157.94 450.03 C 151.74 452.73 144.87 449.42 138.98 447.27 C 142.60 445.26 146.99 444.86 150.34 442.36 C 152.21 439.70 151.96 436.16 152.55 433.07 C 153.65 426.68 152.08 420.31 151.44 413.97 C 150.87 408.59 149.00 403.48 147.82 398.23 C 146.60 392.31 144.29 386.66 141.79 381.20 C 138.29 376.79 135.90 370.81 130.30 368.68 C 126.50 366.83 122.21 367.60 118.16 367.67 Z" />
<path fill="#f5722c" opacity="1.00" d=" M 315.08 382.38 C 327.72 379.48 340.20 375.80 352.91 373.27 C 356.08 374.81 359.16 376.76 361.75 379.16 C 362.57 382.25 362.16 385.51 362.31 388.67 C 354.52 387.08 346.88 384.70 339.03 383.46 C 334.68 384.05 331.64 387.82 327.97 389.95 C 322.40 393.15 319.97 399.37 316.30 404.31 C 313.42 408.18 310.99 412.42 310.14 417.23 C 308.43 425.48 304.24 433.42 305.27 442.03 C 305.57 445.89 304.74 450.01 306.49 453.62 C 307.83 456.55 309.07 459.55 310.71 462.34 C 312.47 465.14 315.84 466.30 318.93 466.93 C 326.79 468.61 334.58 470.64 342.42 472.39 C 349.44 474.10 354.94 468.12 361.26 466.19 C 361.64 472.33 361.88 478.49 361.80 484.65 C 342.47 491.29 323.27 498.29 303.99 505.05 C 299.18 506.66 294.30 503.90 290.42 501.27 C 290.07 494.79 291.22 488.39 291.60 481.94 C 293.96 455.65 296.30 429.34 298.56 403.04 C 298.43 396.62 301.25 390.28 305.92 385.92 C 308.34 383.49 311.94 383.24 315.08 382.38 Z" />
<path fill="#f5722c" opacity="1.00" d=" M 76.05 382.27 C 90.61 379.22 105.20 376.18 119.98 374.47 C 126.45 373.83 132.36 378.20 135.17 383.78 C 139.75 391.19 141.16 399.86 143.46 408.11 C 144.89 413.64 145.23 419.37 146.10 425.01 C 146.78 429.16 145.47 433.27 145.26 437.42 C 138.51 440.37 131.44 442.52 124.41 444.69 C 99.67 453.27 75.12 462.46 50.06 470.04 C 45.44 470.08 41.50 466.82 38.29 463.77 C 35.26 461.17 33.83 457.37 32.11 453.88 C 28.66 446.91 25.58 439.65 23.94 432.03 C 22.34 420.12 20.08 407.11 25.95 395.97 C 27.69 392.07 32.32 391.19 36.06 390.38 C 45.40 388.70 54.61 386.25 64.02 384.97 C 68.13 389.58 74.30 392.56 76.58 398.58 C 78.32 402.48 80.38 406.23 81.82 410.26 C 84.86 419.55 88.47 429.03 87.73 438.99 C 87.92 442.49 86.51 446.48 88.80 449.54 C 93.07 447.78 97.95 446.51 101.17 443.02 C 102.85 425.26 96.61 407.62 87.09 392.84 C 84.53 388.30 80.10 385.35 76.05 382.27 Z" />
<path fill="#f5722c" opacity="1.00" d=" M 326.68 400.73 C 329.54 395.98 334.84 393.73 338.96 390.30 C 345.99 391.55 352.88 393.46 359.83 395.06 C 355.07 397.75 349.11 399.18 346.04 404.10 C 339.69 412.19 335.06 421.41 330.48 430.57 C 328.58 436.18 325.99 441.95 326.84 448.01 C 327.37 453.04 328.45 458.04 330.44 462.72 C 326.03 461.51 321.52 460.77 317.12 459.55 C 314.36 458.63 313.74 455.33 312.86 452.92 C 309.60 439.82 313.78 426.55 318.06 414.23 C 320.50 409.47 323.90 405.29 326.68 400.73 Z" />
<path fill="#f5722c" opacity="1.00" d=" M 478.91 410.60 C 484.43 408.25 489.60 404.78 493.30 400.00 C 493.42 405.03 493.82 410.04 494.13 415.06 C 494.48 420.12 492.39 424.88 490.48 429.43 C 489.50 432.02 486.94 433.34 484.77 434.78 C 480.76 437.21 477.00 440.28 472.37 441.45 C 463.87 443.84 455.39 446.30 446.91 448.76 C 442.06 450.19 436.94 449.41 431.97 449.91 C 422.65 450.74 413.28 450.43 403.95 450.87 C 397.98 451.40 391.98 451.43 385.99 451.52 C 384.27 451.44 382.63 451.91 381.05 452.54 C 383.36 447.11 385.32 441.54 387.45 436.04 C 388.41 433.85 388.33 431.44 388.17 429.11 C 390.12 426.70 392.07 424.28 393.91 421.78 C 405.26 422.51 416.65 422.12 428.02 422.16 C 437.59 421.34 447.07 419.67 456.57 418.28 C 464.27 416.58 471.70 413.77 478.91 410.60 Z" />
<path fill="#3e3e3e" opacity="1.00" d=" M 32.23 401.28 C 35.87 400.80 38.63 403.77 40.92 406.15 C 46.87 414.62 49.92 424.75 51.45 434.89 C 52.06 441.57 51.57 448.29 51.34 454.97 C 51.35 457.45 50.19 459.69 49.17 461.88 C 46.02 460.19 42.83 458.09 41.20 454.80 C 36.33 445.05 31.31 434.96 30.63 423.90 C 30.03 416.42 28.63 408.24 32.23 401.28 Z" />
<path fill="#f5722c" opacity="1.00" d=" M 352.78 405.73 C 355.35 403.90 358.31 402.70 361.14 401.31 C 365.52 399.11 370.82 401.65 373.57 405.30 C 375.03 407.87 375.71 410.79 376.60 413.59 C 372.39 412.65 368.35 410.88 364.04 410.51 C 361.34 411.03 358.95 412.49 356.45 413.55 C 353.67 414.89 350.30 415.97 349.02 419.08 C 346.05 425.06 343.24 431.12 340.36 437.15 C 338.05 441.51 340.69 446.22 341.55 450.60 C 342.43 453.30 342.65 457.01 345.67 458.27 C 348.94 459.63 352.46 460.23 355.88 461.15 C 349.44 465.56 338.67 464.51 334.93 457.12 C 331.74 448.38 333.02 438.58 337.35 430.46 C 341.88 421.87 346.28 413.05 352.78 405.73 Z" />
<path fill="#f5722c" opacity="1.00" d=" M 357.15 420.90 C 359.67 419.62 362.11 417.78 364.99 417.50 C 368.36 418.06 371.59 419.24 374.89 420.13 C 371.61 421.18 368.48 422.95 365.02 423.23 C 362.32 422.75 359.74 421.76 357.15 420.90 Z" />
<path fill="#f5722c" opacity="1.00" d=" M 346.85 439.76 C 348.74 434.44 351.54 429.52 353.88 424.39 C 356.66 424.97 359.40 425.71 362.11 426.57 C 360.59 431.93 357.57 436.69 355.50 441.84 C 352.62 441.14 349.73 440.46 346.85 439.76 Z" />
<path fill="#f5722c" opacity="1.00" d=" M 368.65 429.63 C 372.11 428.21 375.64 426.99 379.20 425.84 C 380.17 428.72 382.26 431.84 380.69 434.91 C 378.55 440.11 377.01 445.57 374.50 450.60 C 371.76 452.63 368.42 453.66 365.30 455.00 C 364.32 450.98 363.17 446.98 362.66 442.87 C 364.06 438.22 366.66 434.04 368.65 429.63 Z" />
<path fill="#f5722c" opacity="1.00" d=" M 346.97 444.05 C 349.98 444.61 353.11 444.89 355.94 446.13 C 357.49 448.74 357.47 451.92 357.94 454.84 C 354.90 454.05 351.88 453.20 348.89 452.28 C 348.19 449.54 347.51 446.81 346.97 444.05 Z" />
<path fill="#f5722c" opacity="1.00" d=" M 226.51 500.70 C 245.35 492.50 264.30 484.54 283.28 476.65 C 282.59 484.79 281.50 492.91 281.24 501.08 C 281.33 507.19 287.67 509.98 292.48 512.00 L 226.82 512.00 C 226.70 508.23 226.61 504.46 226.51 500.70 Z" />
<path fill="#f5722c" opacity="1.00" d=" M 306.26 512.00 C 320.71 507.12 335.17 502.30 349.59 497.34 C 349.86 502.23 350.30 507.11 350.60 512.00 L 306.26 512.00 Z" />
<path fill="#f5e5c1" opacity="1.00" d=" M 210.62 512.00 C 212.23 511.33 213.82 510.60 215.42 509.89 C 215.61 510.42 216.00 511.47 216.19 512.00 L 210.62 512.00 Z" />
</svg>
