<?xml version="1.0" encoding="UTF-8" ?>
<!DOCTYPE svg PUBLIC "-//W3C//DTD SVG 1.1//EN" "http://www.w3.org/Graphics/SVG/1.1/DTD/svg11.dtd">
<svg width="512pt" height="512pt" viewBox="0 0 512 512" version="1.1" xmlns="http://www.w3.org/2000/svg">
<path fill="#3e3e3e" opacity="1.00" d=" M 0.00 0.00 L 510.04 0.00 C 423.86 86.47 338.01 173.29 251.92 259.87 C 200.33 311.99 148.55 363.93 96.93 416.03 C 65.14 448.04 33.46 480.15 1.53 512.00 L 0.00 512.00 L 0.00 0.00 Z" />
<path fill="#f5722c" opacity="1.00" d=" M 510.04 0.00 L 512.00 0.00 L 512.00 285.44 C 507.45 272.70 502.70 260.02 498.63 247.12 C 497.33 242.14 491.99 238.99 487.02 239.29 C 476.34 239.39 465.67 239.10 455.00 239.20 C 447.63 239.43 440.34 240.63 433.00 241.25 C 424.77 241.89 416.84 244.32 408.82 246.11 C 402.02 247.84 395.02 248.95 388.44 251.46 C 374.70 256.72 360.96 261.99 347.20 267.22 C 343.90 268.52 340.42 269.46 337.36 271.31 C 332.82 274.84 331.89 282.13 325.92 283.95 C 285.34 297.48 244.64 310.66 203.95 323.86 C 200.56 325.08 196.79 325.63 193.80 327.77 C 190.62 331.25 188.18 336.24 189.93 341.00 C 193.17 350.99 197.02 360.79 200.06 370.86 C 192.23 373.07 184.06 374.42 176.53 377.50 C 170.47 386.90 171.40 398.75 173.61 409.22 C 175.89 416.71 177.02 424.80 181.62 431.35 C 184.19 435.12 186.11 439.38 189.22 442.76 C 192.41 445.01 196.22 446.38 200.01 447.25 C 206.17 445.93 211.66 442.54 217.56 440.38 C 222.40 438.66 227.10 435.03 232.49 436.21 C 245.53 438.66 258.61 440.87 271.66 443.32 C 274.58 443.91 277.67 443.83 280.38 442.48 C 296.66 435.31 313.09 428.50 329.38 421.35 C 330.23 423.60 331.08 425.84 331.93 428.10 C 324.19 431.57 318.54 437.98 312.59 443.78 C 312.48 447.80 311.99 451.95 313.28 455.84 C 314.47 459.72 315.62 463.62 316.61 467.56 C 309.19 470.30 301.55 474.45 297.72 481.70 C 293.48 490.06 295.43 499.88 298.39 508.33 C 296.09 509.43 293.87 510.68 291.68 512.00 L 1.53 512.00 C 33.46 480.15 65.14 448.04 96.93 416.03 C 148.55 363.93 200.33 311.99 251.92 259.87 C 338.01 173.29 423.86 86.47 510.04 0.00 Z" />
<path fill="#f5e5c1" opacity="1.00" d=" M 356.87 33.83 C 360.05 32.57 363.62 33.79 366.37 35.56 C 372.21 39.15 377.99 43.57 381.13 49.83 C 382.91 54.97 384.63 60.73 382.41 66.02 C 381.83 69.91 377.99 71.58 374.84 73.03 C 359.51 79.91 344.24 86.93 328.88 93.77 C 326.19 95.04 323.47 96.26 320.87 97.71 C 315.12 97.92 309.95 93.90 307.96 88.64 C 303.29 90.79 298.38 92.40 293.91 94.97 C 263.14 110.50 232.36 126.01 201.54 141.43 C 197.62 143.47 193.25 144.94 190.00 148.04 C 187.46 150.94 186.25 154.71 185.16 158.34 C 175.61 163.97 165.54 168.75 155.42 173.26 C 150.03 176.00 143.63 174.24 139.03 170.76 C 134.04 167.52 128.38 162.46 129.56 155.86 C 130.23 150.84 136.39 149.54 138.10 145.20 C 133.07 144.80 127.74 146.79 125.20 151.35 C 122.41 154.76 123.44 159.31 123.52 163.34 C 126.71 167.21 130.61 170.39 134.41 173.64 C 146.40 184.36 158.77 194.67 170.61 205.57 C 170.99 205.56 171.75 205.55 172.12 205.54 C 172.66 203.16 173.29 200.80 173.91 198.44 C 168.35 199.54 164.10 194.99 160.47 191.51 C 156.95 188.22 155.85 183.27 156.52 178.61 C 165.88 173.02 175.74 168.28 185.43 163.27 C 188.05 165.45 188.62 168.92 190.18 171.78 C 192.62 176.32 196.45 179.91 200.43 183.10 C 200.47 183.73 200.50 184.35 200.54 184.98 C 194.59 187.46 188.91 190.54 183.04 193.20 C 181.33 194.07 179.64 194.97 177.95 195.87 C 176.89 200.32 175.62 204.71 174.30 209.09 C 170.47 210.21 166.75 211.65 163.09 213.22 C 157.30 215.27 151.64 217.66 145.90 219.85 C 124.56 227.56 103.47 235.96 82.31 244.15 C 80.47 245.02 78.60 244.05 77.17 242.90 C 68.26 236.00 59.42 229.02 50.43 222.21 C 50.44 221.82 50.46 221.05 50.46 220.66 C 56.26 215.02 61.40 208.77 67.01 202.97 C 69.57 200.29 71.95 197.35 75.14 195.39 C 88.56 187.08 101.90 178.65 115.41 170.49 C 117.78 168.95 121.04 167.54 120.69 164.12 C 118.21 164.97 115.93 166.29 113.75 167.72 C 101.64 175.40 89.13 182.46 77.19 190.40 C 76.73 190.49 75.82 190.67 75.37 190.76 C 76.57 185.57 77.67 180.33 79.56 175.33 C 77.78 176.96 75.52 178.38 74.89 180.87 C 74.02 183.84 73.51 186.90 72.94 189.94 C 72.55 191.93 72.28 194.13 70.64 195.55 C 63.28 203.12 56.32 211.10 48.53 218.24 C 48.08 213.86 50.25 209.98 51.49 205.94 C 51.15 206.42 50.47 207.37 50.13 207.85 C 48.31 209.92 46.47 212.11 45.76 214.83 C 45.88 217.53 46.45 220.19 46.64 222.89 C 36.87 231.71 26.69 240.48 19.83 251.89 C 16.12 258.22 12.44 264.59 9.30 271.23 L 11.14 271.75 C 16.29 262.78 20.68 253.29 27.28 245.25 C 33.44 237.84 40.67 231.44 47.91 225.13 C 54.73 230.26 61.45 235.58 68.63 240.21 C 68.65 241.52 68.85 243.04 67.19 243.39 C 58.11 247.64 50.90 254.98 45.09 263.01 C 42.09 267.18 40.45 272.09 38.93 276.94 C 37.77 281.61 34.24 284.99 31.10 288.41 C 30.29 288.44 28.66 288.48 27.84 288.51 C 22.61 285.38 17.66 281.81 12.34 278.85 C 10.51 277.72 8.36 276.59 7.59 274.43 C 7.06 270.97 7.46 267.44 7.64 263.97 C 9.63 259.67 10.28 254.85 12.66 250.73 C 15.57 245.76 18.26 240.59 22.17 236.31 C 27.99 229.75 33.74 223.14 39.55 216.57 C 43.20 212.82 45.72 208.16 49.27 204.32 C 59.82 192.51 70.33 180.67 80.91 168.88 C 83.91 165.27 88.34 163.49 92.36 161.29 C 102.06 155.97 111.81 150.73 121.51 145.40 C 123.28 144.44 125.14 143.68 127.02 142.97 C 129.67 142.45 132.28 141.50 135.01 141.61 C 137.69 142.06 140.17 143.29 142.88 143.58 C 144.27 142.62 145.70 141.71 147.21 140.92 C 217.10 105.23 286.69 68.95 356.87 33.83 Z" />
<path fill="#3e3e3e" opacity="1.00" d=" M 359.71 37.23 C 368.05 38.34 374.07 45.14 377.90 52.14 C 379.96 57.44 380.17 64.74 375.20 68.51 C 371.42 68.53 368.02 66.19 365.10 64.00 C 360.21 59.56 356.33 53.61 355.24 47.03 C 354.62 43.08 357.55 40.11 359.71 37.23 Z" />
<path fill="#f5e5c1" opacity="1.00" d=" M 359.92 83.96 C 361.19 83.23 362.83 83.05 364.06 83.98 C 367.66 86.12 370.45 89.77 370.92 94.02 C 371.18 95.18 371.42 96.35 371.67 97.52 C 370.13 99.46 368.11 100.92 365.76 101.72 C 357.77 104.81 349.93 108.28 341.91 111.27 C 337.33 113.01 333.08 110.17 329.46 107.70 C 327.20 106.08 323.98 104.42 324.42 101.13 C 329.98 99.59 334.83 96.40 340.11 94.18 C 346.80 90.93 353.29 87.32 359.92 83.96 Z" />
<path fill="#f5e5c1" opacity="1.00" d=" M 302.66 95.99 C 305.22 98.41 307.58 101.40 311.12 102.41 C 314.11 103.43 317.29 103.37 320.41 103.42 C 320.44 104.17 320.49 105.66 320.52 106.40 C 323.78 110.55 328.02 113.82 332.55 116.48 C 335.36 118.21 338.89 117.39 341.92 116.72 C 343.60 116.57 345.28 116.47 346.97 116.39 C 344.98 120.16 342.26 124.09 337.84 125.13 C 329.39 127.57 320.93 122.71 315.19 116.80 C 312.73 113.88 310.03 111.13 307.97 107.91 C 306.15 104.68 304.83 101.18 302.77 98.09 C 302.74 97.56 302.69 96.51 302.66 95.99 Z" />
<path fill="#f5e5c1" opacity="1.00" d=" M 292.01 101.73 C 292.78 101.58 293.55 101.44 294.32 101.29 C 294.46 101.96 294.72 103.29 294.85 103.95 C 295.22 105.35 295.53 106.75 295.84 108.17 C 282.25 114.55 268.58 120.75 255.00 127.14 C 236.99 135.37 219.09 143.84 201.08 152.06 C 196.45 153.95 194.90 159.30 190.93 162.09 C 190.69 159.96 188.83 157.57 190.27 155.55 C 191.40 152.99 193.92 151.57 196.28 150.33 C 205.17 145.88 214.05 141.43 222.86 136.84 C 238.22 129.26 253.41 121.32 268.75 113.68 C 276.47 109.64 284.42 106.03 292.01 101.73 Z" />
<path fill="#f5e5c1" opacity="1.00" d=" M 284.13 118.19 C 287.10 116.88 289.93 115.19 293.07 114.32 C 295.78 114.16 298.49 114.57 301.20 114.65 C 303.96 115.69 306.44 117.37 308.36 119.63 C 312.56 124.36 317.87 128.18 324.00 129.92 C 326.59 130.74 329.20 131.76 331.97 131.58 C 335.27 131.35 338.35 130.03 341.51 129.17 C 341.54 129.83 341.61 131.14 341.64 131.80 C 337.81 135.97 334.85 140.85 330.92 144.93 C 322.93 152.18 314.27 158.75 304.65 163.71 C 293.48 170.56 281.61 176.40 268.93 179.84 C 260.97 182.31 253.10 185.07 245.18 187.63 C 241.92 188.81 238.41 188.58 235.01 188.58 C 227.89 188.41 220.53 189.18 213.76 186.45 C 207.88 181.65 202.07 176.72 196.70 171.36 C 194.84 169.69 195.20 167.10 195.98 165.00 C 197.73 162.29 198.14 158.36 201.29 156.83 C 228.89 143.92 256.51 131.06 284.13 118.19 Z" />
<path fill="#3e3e3e" opacity="1.00" d=" M 278.41 135.62 C 279.70 135.50 281.00 135.38 282.30 135.26 C 284.17 139.50 285.15 144.29 288.35 147.81 C 292.20 152.09 295.71 156.87 300.74 159.87 C 300.63 160.21 300.41 160.91 300.30 161.26 C 298.93 161.76 297.59 162.36 296.16 162.63 C 288.64 157.03 282.24 149.81 278.58 141.10 C 278.49 139.27 278.43 137.45 278.41 135.62 Z" />
<path fill="#3e3e3e" opacity="1.00" d=" M 267.44 140.57 C 269.01 140.44 270.58 140.33 272.16 140.25 C 274.42 146.75 276.47 153.60 280.96 158.98 C 283.47 161.95 286.47 164.44 289.14 167.25 C 287.19 168.06 284.95 169.65 282.83 168.36 C 274.07 161.89 267.49 151.71 267.44 140.57 Z" />
<path fill="#3e3e3e" opacity="1.00" d=" M 255.33 146.80 C 256.01 146.46 257.38 145.77 258.06 145.43 C 258.64 145.78 259.79 146.49 260.37 146.84 C 261.29 153.99 263.95 160.95 268.53 166.55 C 270.90 169.16 273.53 171.54 275.87 174.18 C 273.54 174.58 270.51 176.80 268.55 174.53 C 265.77 171.91 263.47 168.85 261.09 165.89 C 258.01 161.86 257.25 156.73 255.71 152.04 C 255.56 150.29 255.44 148.55 255.33 146.80 Z" />
<path fill="#3e3e3e" opacity="1.00" d=" M 242.22 152.28 C 243.76 151.89 245.31 151.56 246.88 151.29 C 249.39 160.68 253.87 169.91 261.63 176.07 C 261.67 177.16 261.71 178.25 261.75 179.34 C 260.35 179.42 258.96 179.50 257.57 179.58 C 249.47 172.70 242.96 163.13 242.22 152.28 Z" />
<path fill="#3e3e3e" opacity="1.00" d=" M 232.18 156.56 C 233.54 156.46 234.92 156.37 236.29 156.28 C 237.26 161.82 239.31 167.10 241.88 172.09 C 244.09 176.25 248.35 178.67 251.19 182.34 C 248.75 182.59 246.31 182.71 243.86 182.71 C 236.96 175.77 231.77 166.62 232.18 156.56 Z" />
<path fill="#3e3e3e" opacity="1.00" d=" M 220.12 162.39 C 221.76 161.96 223.42 161.59 225.09 161.30 C 225.29 162.54 225.50 163.78 225.71 165.02 C 228.75 172.90 233.08 180.46 239.86 185.72 C 237.51 185.72 235.17 185.70 232.83 185.65 C 226.12 179.72 221.04 171.41 220.12 162.39 Z" />
<path fill="#3e3e3e" opacity="1.00" d=" M 116.21 173.99 C 117.69 172.78 119.01 171.18 120.89 170.62 C 122.55 170.58 124.10 171.28 125.68 171.66 C 125.66 173.16 125.61 174.65 125.54 176.15 C 123.99 176.60 122.45 177.11 120.86 177.44 C 118.69 177.51 117.61 175.27 116.21 173.99 Z" />
<path fill="#3e3e3e" opacity="1.00" d=" M 113.20 185.13 C 115.60 183.57 118.51 184.45 121.14 184.60 L 121.74 185.02 C 125.59 185.67 129.45 187.92 130.40 191.96 C 130.44 194.49 129.10 196.75 128.27 199.07 C 113.29 204.80 98.69 211.51 83.75 217.39 C 80.09 215.87 74.71 213.99 75.25 209.07 C 74.88 205.98 77.26 203.89 79.80 202.73 C 90.97 196.94 102.16 191.17 113.20 185.13 Z" />
<path fill="#f5e5c1" opacity="1.00" d=" M 110.86 195.73 C 113.15 194.73 115.40 193.14 118.03 193.44 C 120.07 193.21 120.52 195.63 121.58 196.89 C 121.10 197.62 120.62 198.37 120.14 199.11 C 117.04 200.28 113.98 201.54 110.94 202.86 C 101.96 206.84 92.89 210.61 83.92 214.62 C 82.74 213.80 81.58 212.99 80.40 212.18 C 80.46 211.44 80.51 210.71 80.57 209.97 C 90.77 205.46 100.81 200.57 110.86 195.73 Z" />
<path fill="#3e3e3e" opacity="1.00" d=" M 155.50 203.46 C 157.33 203.47 159.18 203.50 161.02 203.57 C 161.90 204.41 162.79 205.26 163.69 206.10 C 163.63 208.50 161.98 210.16 160.32 211.66 C 156.78 211.87 153.95 209.91 152.19 206.99 C 153.28 205.80 154.38 204.62 155.50 203.46 Z" />
<path fill="#3e3e3e" opacity="1.00" d=" M 58.09 218.33 C 60.58 218.22 62.08 219.89 62.68 222.11 C 60.25 222.89 57.72 223.86 55.25 222.66 C 55.38 221.76 55.51 220.85 55.65 219.95 C 56.26 219.55 57.48 218.73 58.09 218.33 Z" />
<path fill="#3e3e3e" opacity="1.00" d=" M 433.00 241.25 C 440.34 240.63 447.63 239.43 455.00 239.20 C 465.67 239.10 476.34 239.39 487.02 239.29 C 491.99 238.99 497.33 242.14 498.63 247.12 C 502.70 260.02 507.45 272.70 512.00 285.44 L 512.00 329.45 C 497.11 341.57 478.86 348.24 461.12 354.94 C 448.08 359.47 434.61 362.44 421.26 365.84 C 412.04 368.06 402.64 369.41 393.23 370.51 C 393.22 377.32 392.41 384.46 395.78 390.71 C 417.88 388.72 439.43 383.18 461.01 378.28 C 472.75 376.01 483.47 370.49 494.72 366.66 C 501.10 364.69 506.60 360.83 512.00 357.04 L 512.00 367.99 C 505.63 372.39 499.31 377.06 492.06 379.92 C 485.90 382.41 479.90 385.38 473.50 387.23 C 471.37 388.00 468.91 388.47 467.37 390.27 C 464.04 394.61 462.96 400.31 459.41 404.50 C 455.47 407.02 450.53 407.26 446.53 409.66 C 445.14 411.39 444.60 413.62 443.85 415.67 C 441.57 422.74 439.00 429.71 436.63 436.74 C 434.96 441.35 436.29 446.26 436.13 451.02 C 436.14 456.41 433.95 461.43 432.32 466.47 C 425.66 468.89 418.98 471.27 412.34 473.72 C 427.16 483.48 441.63 493.77 456.46 503.53 C 460.39 506.09 463.83 509.32 467.67 512.00 L 451.17 512.00 C 449.99 510.18 449.20 507.97 447.28 506.79 C 433.32 497.95 418.93 489.77 405.36 480.35 C 404.96 480.34 404.15 480.34 403.75 480.33 C 399.64 485.94 395.12 491.29 389.89 495.88 C 384.21 500.82 377.42 504.18 371.07 508.13 C 373.03 509.69 375.06 511.27 377.50 512.00 L 366.58 512.00 C 365.83 510.26 365.18 508.48 364.52 506.72 C 360.55 508.02 356.91 510.08 353.22 512.00 L 291.68 512.00 C 293.87 510.68 296.09 509.43 298.39 508.33 C 295.43 499.88 293.48 490.06 297.72 481.70 C 301.55 474.45 309.19 470.30 316.61 467.56 C 315.62 463.62 314.47 459.72 313.28 455.84 C 311.99 451.95 312.48 447.80 312.59 443.78 C 318.54 437.98 324.19 431.57 331.93 428.10 C 331.08 425.84 330.23 423.60 329.38 421.35 C 313.09 428.50 296.66 435.31 280.38 442.48 C 277.67 443.83 274.58 443.91 271.66 443.32 C 258.61 440.87 245.53 438.66 232.49 436.21 C 227.10 435.03 222.40 438.66 217.56 440.38 C 211.66 442.54 206.17 445.93 200.01 447.25 C 196.22 446.38 192.41 445.01 189.22 442.76 C 186.11 439.38 184.19 435.12 181.62 431.35 C 177.02 424.80 175.89 416.71 173.61 409.22 C 171.40 398.75 170.47 386.90 176.53 377.50 C 184.06 374.42 192.23 373.07 200.06 370.86 C 197.02 360.79 193.17 350.99 189.93 341.00 C 188.18 336.24 190.62 331.25 193.80 327.77 C 196.79 325.63 200.56 325.08 203.95 323.86 C 244.64 310.66 285.34 297.48 325.92 283.95 C 331.89 282.13 332.82 274.84 337.36 271.31 C 340.42 269.46 343.90 268.52 347.20 267.22 C 360.96 261.99 374.70 256.72 388.44 251.46 C 395.02 248.95 402.02 247.84 408.82 246.11 C 416.84 244.32 424.77 241.89 433.00 241.25 Z" />
<path fill="#f5e5c1" opacity="1.00" d=" M 436.52 251.62 C 444.99 250.54 453.36 248.31 461.96 248.59 C 470.32 248.61 478.69 248.41 487.06 248.50 C 489.33 248.35 490.67 250.57 492.30 251.79 C 493.23 254.84 494.17 257.89 495.11 260.93 C 499.67 275.66 504.32 290.36 508.81 305.10 C 510.02 308.66 511.21 312.25 511.91 315.96 C 506.51 322.78 498.66 326.93 491.21 331.12 C 485.06 333.58 479.41 337.15 473.04 339.06 C 458.31 345.58 442.70 349.73 427.06 353.41 C 416.90 356.18 406.53 358.18 396.08 359.43 C 393.70 359.46 390.66 360.22 388.94 358.07 C 386.82 355.95 385.73 353.04 385.32 350.12 C 383.13 335.40 380.76 320.71 378.55 306.00 C 378.05 303.56 377.92 300.80 376.16 298.88 C 374.89 297.46 372.89 297.33 371.19 296.85 C 358.78 294.33 346.46 291.41 334.03 289.03 C 337.74 282.09 345.26 278.97 352.17 276.18 C 358.18 274.46 364.09 272.38 369.78 269.78 C 377.27 266.86 384.58 263.47 392.32 261.23 C 392.86 262.67 393.39 264.13 393.90 265.59 C 408.19 266.61 422.67 263.63 435.40 257.09 C 435.80 255.27 436.17 253.44 436.52 251.62 Z" />
<path fill="#3e3e3e" opacity="1.00" d=" M 461.93 254.11 C 463.23 252.46 464.78 251.01 467.04 251.38 C 467.41 253.25 467.79 255.13 468.36 256.96 C 468.47 258.61 468.55 260.25 468.60 261.91 C 464.96 263.41 461.48 265.24 457.89 266.85 C 456.64 267.29 455.38 267.73 454.13 268.18 C 452.04 268.69 449.97 269.29 447.89 269.84 C 445.29 270.66 442.68 271.42 440.10 272.26 C 439.55 272.37 438.46 272.59 437.91 272.70 C 436.31 273.22 434.70 273.70 433.10 274.21 C 418.56 278.38 403.79 281.82 388.80 283.90 C 384.91 284.67 381.01 285.65 377.01 285.43 C 371.24 285.09 365.28 286.47 359.68 284.52 C 358.92 282.57 358.13 280.65 357.31 278.73 C 359.16 274.89 362.99 278.29 366.06 277.86 C 375.46 277.80 384.83 276.38 393.93 274.07 C 406.68 271.43 419.38 268.47 431.90 264.88 C 432.89 264.52 433.90 264.17 434.91 263.82 C 438.00 262.95 441.08 262.02 444.20 261.22 C 450.28 259.30 456.10 256.67 461.93 254.11 Z" />
<path fill="#3e3e3e" opacity="1.00" d=" M 478.49 267.51 C 479.82 266.08 481.69 265.49 483.53 264.98 C 482.13 267.31 480.50 269.59 478.34 271.27 C 475.12 272.80 471.85 274.23 468.67 275.85 C 468.61 276.99 468.56 278.13 468.51 279.28 C 467.88 279.63 466.62 280.33 465.99 280.69 C 465.56 280.36 464.68 279.70 464.25 279.37 C 458.77 281.54 453.09 283.18 447.47 284.93 C 447.43 285.52 447.34 286.70 447.30 287.28 C 443.18 289.00 439.19 291.07 434.99 292.56 C 432.96 292.04 433.21 289.33 432.47 287.79 C 442.10 283.69 451.94 280.12 461.94 277.04 C 468.14 275.31 473.86 271.98 478.49 267.51 Z" />
<path fill="#3e3e3e" opacity="1.00" d=" M 424.74 286.43 C 428.64 286.50 428.30 290.95 427.41 293.67 C 426.68 293.29 425.23 292.54 424.50 292.16 C 424.55 290.25 424.62 288.34 424.74 286.43 Z" />
<path fill="#3e3e3e" opacity="1.00" d=" M 411.29 290.84 C 413.91 289.80 416.47 288.15 419.42 288.47 C 419.69 291.75 418.78 294.88 417.20 297.73 C 415.43 297.23 413.61 296.85 411.92 296.10 C 411.02 294.50 411.38 292.59 411.29 290.84 Z" />
<path fill="#f5e5c1" opacity="1.00" d=" M 303.72 299.75 C 306.74 297.50 310.59 299.23 314.00 299.25 C 323.44 299.47 332.83 300.53 342.27 300.75 C 349.48 301.79 356.83 301.07 364.01 302.37 C 364.78 303.92 365.58 305.66 367.59 305.72 C 371.12 314.85 372.24 324.61 374.00 334.18 C 373.15 331.62 371.40 330.34 368.92 330.49 C 366.66 328.78 364.02 326.96 361.02 327.63 C 357.26 328.44 353.71 329.98 350.07 331.19 C 343.68 333.38 337.32 335.67 330.92 337.82 C 327.58 339.08 323.87 339.84 321.21 342.38 C 318.72 344.62 316.60 347.22 314.37 349.70 C 314.65 354.87 316.21 359.83 317.28 364.87 C 320.74 380.28 324.27 395.68 327.63 411.12 C 317.66 414.88 307.83 419.04 297.86 422.81 C 290.23 425.81 282.64 428.91 275.03 431.98 C 272.19 433.29 269.06 432.42 266.16 431.84 C 256.15 429.79 246.12 427.81 236.07 425.93 C 236.14 425.58 236.28 424.89 236.34 424.54 C 240.17 423.06 244.11 421.88 248.02 420.64 C 254.44 421.61 260.64 423.81 267.07 424.83 C 267.57 423.91 268.07 422.99 268.59 422.09 C 267.23 417.79 266.08 413.43 264.82 409.10 C 259.35 389.34 253.60 369.66 248.18 349.89 L 247.88 349.10 C 247.04 346.64 246.78 343.36 244.47 341.85 C 233.30 340.53 222.14 339.05 210.99 337.57 C 208.42 337.30 205.51 336.83 203.44 338.81 C 205.31 346.62 207.72 354.30 209.87 362.03 C 211.11 366.32 212.41 370.60 213.65 374.89 C 213.12 374.80 212.06 374.60 211.53 374.51 C 208.40 365.79 205.74 356.88 202.89 348.07 C 202.19 346.01 201.45 343.97 200.61 341.97 C 200.46 339.64 200.38 337.32 200.34 334.99 C 230.22 324.89 260.09 314.73 290.04 304.84 C 294.58 303.11 299.47 302.21 303.72 299.75 Z" />
<path fill="#3e3e3e" opacity="1.00" d=" M 278.55 330.61 C 292.68 325.88 306.69 320.75 320.93 316.34 C 323.03 317.78 325.39 318.88 327.37 320.51 C 329.03 321.89 328.54 324.12 328.47 326.00 C 325.72 324.25 322.60 321.77 319.15 322.55 C 305.64 326.81 292.46 332.15 278.81 335.92 C 278.54 335.19 277.99 333.73 277.72 333.00 C 277.93 332.40 278.34 331.20 278.55 330.61 Z" />
<path fill="#3e3e3e" opacity="1.00" d=" M 264.56 330.51 C 266.78 330.96 270.04 330.51 271.05 333.10 C 272.11 335.77 270.05 339.84 267.09 339.86 C 263.96 338.01 262.78 333.75 264.56 330.51 Z" />
<path fill="#f5e5c1" opacity="1.00" d=" M 461.12 354.94 C 478.86 348.24 497.11 341.57 512.00 329.45 L 512.00 357.04 C 506.60 360.83 501.10 364.69 494.72 366.66 C 483.47 370.49 472.75 376.01 461.01 378.28 C 439.43 383.18 417.88 388.72 395.78 390.71 C 392.41 384.46 393.22 377.32 393.23 370.51 C 402.64 369.41 412.04 368.06 421.26 365.84 C 434.61 362.44 448.08 359.47 461.12 354.94 Z" />
<path fill="#f5e5c1" opacity="1.00" d=" M 329.97 346.89 C 340.62 343.11 351.40 339.66 361.97 335.64 C 363.37 335.58 364.77 335.54 366.17 335.50 C 369.77 341.23 371.36 348.07 375.68 353.38 C 379.41 357.71 383.13 362.29 385.07 367.73 C 386.37 373.76 384.68 380.08 386.12 386.08 C 389.51 395.09 393.63 403.82 396.79 412.91 C 378.47 418.97 360.84 427.01 342.51 433.02 C 340.52 428.24 339.99 423.05 338.88 418.03 C 338.57 416.34 338.27 414.66 337.91 412.99 C 336.29 404.98 334.78 396.94 333.16 388.93 C 330.89 377.97 328.94 366.94 326.57 356.01 C 325.58 352.48 328.46 349.76 329.97 346.89 Z" />
<path fill="#3e3e3e" opacity="1.00" d=" M 339.43 358.45 C 343.35 353.94 346.33 347.73 352.84 346.68 C 356.78 346.68 360.72 346.55 364.67 346.53 C 364.66 347.00 364.66 347.93 364.65 348.40 C 360.89 348.83 356.82 349.12 353.93 351.87 C 348.51 355.19 345.74 361.10 342.77 366.46 C 340.92 375.75 345.17 385.56 352.50 391.35 C 357.50 393.71 362.82 395.73 368.39 396.03 C 361.95 398.22 355.22 397.49 348.67 396.38 C 346.01 394.72 343.37 393.02 340.86 391.14 C 338.98 385.60 336.68 380.23 334.62 374.76 C 333.72 372.51 334.82 370.18 335.38 368.00 C 336.46 364.72 337.09 361.12 339.43 358.45 Z" />
<path fill="#f5722c" opacity="1.00" d=" M 492.06 379.92 C 499.31 377.06 505.63 372.39 512.00 367.99 L 512.00 512.00 L 467.67 512.00 C 463.83 509.32 460.39 506.09 456.46 503.53 C 441.63 493.77 427.16 483.48 412.34 473.72 C 418.98 471.27 425.66 468.89 432.32 466.47 C 433.95 461.43 436.14 456.41 436.13 451.02 C 436.29 446.26 434.96 441.35 436.63 436.74 C 439.00 429.71 441.57 422.74 443.85 415.67 C 444.60 413.62 445.14 411.39 446.53 409.66 C 450.53 407.26 455.47 407.02 459.41 404.50 C 462.96 400.31 464.04 394.61 467.37 390.27 C 468.91 388.47 471.37 388.00 473.50 387.23 C 479.90 385.38 485.90 382.41 492.06 379.92 Z" />
<path fill="#f5e5c1" opacity="1.00" d=" M 209.07 379.02 C 214.82 377.57 220.42 375.60 226.00 373.62 C 227.09 373.97 228.18 374.32 229.27 374.67 C 232.38 378.67 236.75 381.98 238.05 387.10 C 239.66 392.47 241.96 397.62 243.46 403.02 C 243.94 408.36 243.71 413.75 243.71 419.12 C 240.38 420.21 237.11 421.48 233.86 422.78 C 232.21 423.48 230.56 424.16 228.91 424.83 C 219.30 428.72 209.67 432.55 200.06 436.40 C 195.92 436.40 194.06 432.03 191.72 429.32 C 186.74 423.34 184.37 415.78 182.43 408.37 C 180.54 401.68 180.84 394.48 182.75 387.83 C 189.50 386.08 195.84 382.43 202.91 382.24 C 207.24 386.10 211.55 390.19 214.28 395.39 C 215.79 398.43 216.90 401.64 218.20 404.77 C 219.72 408.64 220.08 413.23 223.05 416.36 C 224.67 416.78 225.64 415.38 226.67 414.44 C 225.79 405.95 222.30 398.00 218.46 390.47 C 216.29 385.93 212.53 382.56 209.07 379.02 Z" />
<path fill="#f5e5c1" opacity="1.00" d=" M 415.37 390.80 C 431.13 387.34 447.00 384.31 462.87 381.36 C 460.39 386.39 457.76 391.35 455.18 396.33 C 450.41 397.86 445.71 399.57 440.88 400.89 C 437.78 409.58 435.12 418.43 431.89 427.08 C 430.29 431.69 425.88 435.95 427.80 441.16 C 429.88 447.64 428.42 454.43 426.22 460.65 C 423.03 461.72 419.77 462.58 416.56 463.60 C 411.24 459.09 408.99 451.82 409.61 445.01 C 410.72 441.23 412.39 437.53 415.83 435.32 C 419.18 435.77 422.58 436.76 425.86 435.27 C 423.54 434.21 421.26 433.16 418.94 432.13 C 416.11 431.15 413.29 430.15 410.48 429.16 C 410.52 428.82 410.61 428.14 410.66 427.80 C 416.05 417.98 421.31 408.08 426.84 398.34 C 429.50 400.41 432.51 402.22 436.04 401.60 C 436.48 400.92 437.37 399.58 437.81 398.91 C 436.96 396.75 435.43 394.98 433.37 393.90 C 430.45 392.31 427.50 389.88 423.95 390.39 C 422.08 391.21 421.17 393.22 419.90 394.70 C 418.40 393.89 416.92 393.08 415.44 392.27 C 415.42 391.90 415.39 391.17 415.37 390.80 Z" />
<path fill="#3e3e3e" opacity="1.00" d=" M 183.75 401.02 C 183.25 397.82 184.81 394.86 185.84 391.95 C 187.45 392.64 189.33 393.16 190.32 394.76 C 194.39 400.57 196.41 407.50 197.88 414.37 C 199.38 419.48 200.64 425.14 198.28 430.22 C 196.73 429.65 194.83 429.51 193.95 427.91 C 188.02 420.18 184.91 410.60 183.75 401.02 Z" />
<path fill="#f5722c" opacity="1.00" d=" M 401.28 401.24 C 404.96 400.78 408.74 400.53 412.30 401.81 C 410.72 406.19 409.01 410.54 406.65 414.58 C 404.79 410.16 403.06 405.69 401.28 401.24 Z" />
<path fill="#f5e5c1" opacity="1.00" d=" M 345.16 440.90 C 361.15 434.81 377.15 428.75 393.09 422.53 C 396.82 424.55 401.12 425.73 404.19 428.80 C 405.81 430.56 408.47 430.48 410.24 432.05 C 411.21 432.34 412.20 432.63 413.18 432.91 C 413.32 433.19 413.58 433.74 413.71 434.02 C 410.22 436.29 407.58 439.87 407.01 444.06 C 406.51 448.20 405.70 452.92 408.13 456.63 C 409.41 458.67 410.80 460.63 412.06 462.69 C 407.65 461.73 402.98 460.72 399.75 457.31 C 394.57 452.08 387.57 449.55 381.33 445.91 C 379.26 444.81 377.24 443.57 374.99 442.89 C 372.34 442.98 369.69 443.45 367.04 443.16 C 360.29 442.46 353.50 442.64 346.73 442.61 C 346.21 442.04 345.68 441.47 345.16 440.90 Z" />
<path fill="#3e3e3e" opacity="1.00" d=" M 418.48 457.54 C 413.61 453.36 413.00 445.12 417.69 440.55 C 418.63 440.52 420.51 440.47 421.45 440.45 C 426.33 443.75 426.29 450.25 425.24 455.42 C 424.12 457.82 420.71 459.60 418.48 457.54 Z" />
<path fill="#f5e5c1" opacity="1.00" d=" M 319.24 453.21 C 333.11 455.64 348.96 454.70 360.20 445.30 C 360.54 455.21 364.79 464.41 366.73 474.04 C 357.07 480.73 345.91 486.45 333.92 486.54 C 331.87 486.84 330.27 485.38 329.76 483.51 C 326.14 473.45 322.85 463.27 319.24 453.21 Z" />
<path fill="#f5e5c1" opacity="1.00" d=" M 372.85 461.27 C 375.69 461.77 378.53 462.37 381.39 462.77 C 381.78 463.10 382.57 463.76 382.96 464.09 C 385.43 468.87 388.32 473.46 390.38 478.44 C 391.51 481.71 388.62 484.47 386.67 486.72 C 380.42 492.51 373.37 497.89 365.01 500.15 C 359.97 500.82 355.55 503.50 350.62 504.56 C 345.12 505.83 339.65 507.19 334.10 508.24 C 325.74 508.37 317.30 509.22 309.00 508.05 C 305.28 507.80 303.21 504.21 302.68 500.90 C 301.92 496.09 300.36 490.84 302.67 486.21 C 305.50 480.26 311.65 477.18 317.16 474.17 C 318.87 479.11 320.74 484.01 321.94 489.11 C 322.39 491.62 323.98 493.80 326.14 495.13 C 335.61 496.24 345.37 494.99 354.08 491.02 C 362.51 487.86 370.75 483.40 376.57 476.36 C 376.49 475.53 376.31 473.88 376.23 473.05 C 375.40 471.06 374.67 469.04 373.96 467.02 C 373.59 465.10 373.23 463.18 372.85 461.27 Z" />
<path fill="#f5e5c1" opacity="1.00" d=" M 403.75 480.33 C 404.15 480.34 404.96 480.34 405.36 480.35 C 418.93 489.77 433.32 497.95 447.28 506.79 C 449.20 507.97 449.99 510.18 451.17 512.00 L 377.50 512.00 C 375.06 511.27 373.03 509.69 371.07 508.13 C 377.42 504.18 384.21 500.82 389.89 495.88 C 395.12 491.29 399.64 485.94 403.75 480.33 Z" />
<path fill="#f5722c" opacity="1.00" d=" M 353.22 512.00 C 356.91 510.08 360.55 508.02 364.52 506.72 C 365.18 508.48 365.83 510.26 366.58 512.00 L 353.22 512.00 Z" />
</svg>
