<?xml version="1.0" encoding="UTF-8" ?>
<!DOCTYPE svg PUBLIC "-//W3C//DTD SVG 1.1//EN" "http://www.w3.org/Graphics/SVG/1.1/DTD/svg11.dtd">
<svg width="512pt" height="512pt" viewBox="0 0 512 512" version="1.1" xmlns="http://www.w3.org/2000/svg">
<path fill="#3e3e3e" opacity="1.00" d=" M 0.00 0.00 L 512.00 0.00 L 512.00 512.00 L 0.00 512.00 L 0.00 0.00 Z" />
<path fill="#f5e5c1" opacity="1.00" d=" M 69.69 19.63 C 134.12 18.83 198.55 18.08 262.98 17.52 C 265.51 21.53 268.47 25.24 270.91 29.30 C 271.98 30.99 271.70 33.07 271.77 34.98 C 271.58 44.31 271.20 53.65 271.19 62.99 C 271.04 64.97 272.05 66.71 272.99 68.37 C 275.79 65.43 277.83 61.58 281.61 59.75 C 287.01 57.04 293.11 56.29 298.97 55.07 C 305.64 53.63 312.66 54.04 319.21 55.89 C 324.97 58.42 330.88 61.00 335.54 65.37 C 339.31 68.29 340.29 73.22 342.44 77.24 C 345.71 83.26 345.76 90.31 345.72 96.98 C 344.65 103.45 343.21 110.11 339.36 115.56 C 336.70 120.72 332.59 125.42 327.00 127.41 C 322.51 129.39 317.46 130.36 313.51 133.41 C 310.55 135.63 310.07 139.65 310.13 143.09 C 310.15 146.32 313.27 148.28 314.20 151.18 C 314.37 154.76 314.58 158.44 313.71 161.95 C 308.60 163.95 303.06 164.67 297.97 166.80 C 295.59 164.18 291.54 164.75 288.43 163.59 C 288.17 165.52 287.88 167.45 287.60 169.39 C 284.95 170.64 282.23 171.69 279.46 172.64 C 279.55 170.40 279.76 168.17 279.71 165.94 C 279.64 162.85 277.32 160.17 277.84 157.04 C 278.16 154.76 278.49 152.46 279.28 150.30 C 281.27 147.48 284.95 146.08 286.48 142.90 C 286.90 139.13 287.77 134.32 284.57 131.48 C 281.30 128.04 277.96 124.62 275.37 120.63 C 272.41 116.40 270.59 111.36 266.74 107.79 C 265.86 110.82 264.98 113.88 264.64 117.03 C 264.37 133.67 263.35 150.30 263.21 166.95 C 263.69 171.21 259.74 174.30 260.42 178.65 C 258.36 179.22 256.30 179.78 254.26 180.39 C 256.08 152.43 257.61 124.47 259.52 96.52 C 254.02 98.99 247.93 98.37 242.08 98.46 C 203.06 98.62 164.04 98.73 125.02 98.80 C 108.22 98.93 91.41 98.55 74.62 99.19 C 75.22 103.11 75.69 107.06 76.40 110.96 C 77.45 137.15 79.52 163.28 81.58 189.40 C 79.88 190.83 78.15 192.22 76.40 193.60 C 76.34 197.54 76.35 201.47 76.33 205.41 C 112.49 205.45 148.65 205.59 184.81 205.67 C 184.42 207.60 184.02 209.53 183.64 211.47 C 156.77 211.35 129.90 211.29 103.03 211.15 C 94.94 210.75 86.83 210.67 78.73 210.96 C 77.61 214.52 76.81 218.22 77.13 221.99 C 78.02 243.65 79.40 265.26 80.49 286.91 C 80.59 297.27 82.15 307.52 83.97 317.69 C 108.93 317.22 133.89 316.87 158.85 316.83 C 170.45 316.63 182.05 316.08 193.65 316.29 C 193.64 317.25 193.63 318.21 193.63 319.17 C 181.76 319.41 169.89 319.56 158.03 319.79 C 144.38 321.06 130.63 320.04 116.97 321.26 C 108.31 321.57 99.63 321.53 90.96 321.70 C 88.37 321.72 85.03 322.20 84.05 325.03 C 81.78 330.56 79.97 336.27 77.79 341.84 C 77.03 344.13 75.79 346.61 76.78 349.04 C 78.25 350.99 80.85 350.52 82.98 350.62 C 121.73 350.37 160.48 350.66 199.23 350.28 C 199.55 349.51 199.88 348.74 200.21 347.97 C 201.31 351.16 202.25 354.40 203.15 357.66 C 188.78 358.26 174.42 357.05 160.04 357.26 C 149.37 357.50 138.73 356.61 128.06 356.69 C 111.54 356.44 95.02 356.41 78.50 356.24 C 81.38 363.76 84.05 371.37 86.87 378.91 C 87.53 380.33 88.21 382.49 90.14 382.43 C 101.10 382.84 112.10 382.50 123.05 383.17 C 146.38 383.22 169.71 383.76 193.04 383.75 C 198.80 383.67 204.54 384.39 210.31 384.26 C 211.29 386.92 212.22 389.61 212.91 392.36 C 200.63 391.61 188.32 391.45 176.01 391.25 C 164.69 390.27 153.30 390.62 141.95 390.20 C 129.34 389.03 116.65 389.91 104.05 388.80 C 98.42 388.38 92.75 388.88 87.15 388.20 C 83.39 385.69 78.52 383.14 77.84 378.17 C 75.54 369.12 73.04 360.12 70.67 351.08 C 69.42 347.25 71.10 343.44 72.23 339.83 C 73.78 334.69 75.49 329.61 76.97 324.46 C 78.27 320.04 76.97 315.47 76.66 311.01 C 76.37 306.93 75.79 302.77 74.13 299.00 C 70.48 294.91 64.57 300.13 60.32 297.57 C 53.98 293.97 47.60 290.38 41.44 286.48 C 38.50 282.84 36.50 278.43 34.63 274.16 C 35.88 267.38 37.99 260.78 39.48 254.04 C 39.81 252.28 40.10 250.39 39.42 248.67 C 38.19 247.39 36.38 247.01 34.82 246.30 C 33.55 241.23 32.08 236.20 31.26 231.04 C 33.98 229.58 39.07 229.05 38.75 225.00 C 38.89 223.13 37.29 221.95 35.86 221.12 C 30.47 218.12 24.71 215.80 19.40 212.67 C 18.88 205.30 19.24 197.87 19.38 190.48 C 24.90 189.76 30.47 189.73 35.99 189.03 C 37.96 188.93 39.36 187.47 40.73 186.23 C 39.83 179.39 35.12 173.91 33.15 167.43 C 33.08 164.24 35.89 161.25 34.32 158.03 C 32.24 153.34 28.95 149.15 27.76 144.08 C 27.71 140.88 29.39 137.98 30.02 134.90 C 31.06 128.66 26.42 122.29 29.28 116.22 C 32.30 109.14 34.90 101.89 37.77 94.75 C 41.72 94.17 45.70 93.34 49.16 91.26 C 53.39 88.77 58.22 87.20 62.00 84.03 C 64.20 80.75 62.57 76.58 62.78 72.93 C 62.78 60.59 61.20 48.28 61.97 35.95 C 62.15 29.67 66.61 24.77 69.69 19.63 Z" />
<path fill="#3e3e3e" opacity="1.00" d=" M 150.99 27.79 C 187.03 27.71 223.06 26.70 259.10 26.32 C 260.48 28.80 261.87 31.27 263.35 33.70 C 257.69 32.26 251.84 32.97 246.08 32.87 C 240.03 32.78 234.00 33.32 227.95 33.18 C 176.18 33.29 124.40 33.14 72.62 33.60 C 74.77 31.74 76.80 28.92 79.99 29.21 C 103.63 27.93 127.35 29.07 150.99 27.79 Z" />
<path fill="#3e3e3e" opacity="1.00" d=" M 74.73 37.73 C 76.91 36.46 79.36 35.48 81.92 35.46 C 138.27 35.36 194.63 35.38 250.98 35.26 C 253.45 35.32 255.98 35.00 258.40 35.59 C 263.27 40.01 265.73 46.40 266.19 52.86 C 266.51 63.96 265.83 75.07 266.26 86.16 C 260.25 87.92 254.42 91.08 248.01 90.81 C 207.66 90.78 167.32 90.83 126.97 90.88 C 109.99 91.27 93.01 91.15 76.02 91.23 C 72.51 91.85 70.83 87.87 70.64 85.01 C 70.39 79.34 69.69 73.71 69.49 68.04 C 69.59 61.84 67.83 55.64 68.75 49.47 C 70.23 45.39 70.46 40.04 74.73 37.73 Z" />
<path fill="#f5e5c1" opacity="1.00" d=" M 88.64 59.79 C 90.89 56.48 93.17 51.24 97.90 51.50 C 142.28 51.46 186.66 51.52 231.04 51.47 C 234.34 51.58 238.12 50.85 240.84 53.23 C 242.96 55.03 245.98 56.32 247.24 58.80 C 246.49 65.91 246.67 73.08 246.08 80.20 C 243.23 84.11 239.49 89.18 233.99 88.43 C 191.66 88.18 149.32 88.50 107.00 87.84 C 102.72 87.83 98.40 88.03 94.17 87.28 C 92.71 84.88 90.91 82.67 89.81 80.08 C 89.53 73.31 89.56 66.52 88.64 59.79 Z" />
<path fill="#3e3e3e" opacity="1.00" d=" M 97.88 53.52 C 139.24 53.38 180.60 53.50 221.96 53.46 C 226.50 53.57 231.06 53.20 235.59 53.61 C 238.27 54.80 240.40 56.94 242.73 58.69 C 242.58 65.97 242.04 73.23 241.55 80.49 C 239.55 82.50 237.53 84.50 235.38 86.35 C 203.59 85.96 171.78 86.60 140.00 85.81 C 125.94 85.78 111.87 85.88 97.81 85.72 C 96.18 82.97 93.43 80.52 93.42 77.10 C 93.23 73.57 93.36 70.03 93.41 66.50 L 92.56 66.51 C 92.59 64.35 92.60 62.20 92.61 60.05 C 94.39 57.89 96.16 55.72 97.88 53.52 Z" />
<path fill="#f5e5c1" opacity="1.00" d=" M 94.13 63.01 C 96.75 60.59 98.98 56.89 102.97 56.82 C 110.32 56.72 117.70 56.63 125.04 57.02 C 137.97 58.22 150.99 56.91 163.90 58.29 C 172.93 58.59 181.99 58.20 191.03 58.67 C 203.39 59.91 215.85 58.68 228.22 59.85 C 231.84 60.17 234.55 62.78 237.29 64.88 C 237.25 68.30 237.28 71.73 237.31 75.16 C 234.86 78.28 232.83 83.15 228.04 82.61 C 186.67 82.63 145.29 82.62 103.92 82.62 C 100.40 82.73 97.43 80.56 94.29 79.29 C 94.88 73.87 94.19 68.44 94.13 63.01 Z" />
<path fill="#3e3e3e" opacity="1.00" d=" M 298.52 59.82 C 307.54 57.64 317.87 58.64 325.18 64.78 C 328.93 68.04 333.51 70.61 335.86 75.18 C 340.76 82.82 341.73 92.31 340.22 101.11 C 337.87 112.29 329.64 122.00 319.02 126.20 C 307.49 130.89 293.53 129.02 283.80 121.20 C 272.11 112.22 267.16 95.22 272.79 81.51 C 277.15 77.20 279.92 71.54 284.34 67.32 C 288.89 64.56 293.30 61.16 298.52 59.82 Z" />
<path fill="#f5e5c1" opacity="1.00" d=" M 300.53 67.79 C 308.53 66.06 317.27 68.18 323.34 73.74 C 331.81 81.10 334.25 94.18 329.34 104.20 C 325.09 113.33 315.07 119.50 304.97 118.69 C 292.01 118.50 280.69 106.84 280.47 93.96 C 279.68 81.89 288.73 70.23 300.53 67.79 Z" />
<path fill="#3e3e3e" opacity="1.00" d=" M 56.30 92.32 C 58.93 90.00 62.44 93.03 61.55 96.07 C 61.08 100.02 54.91 101.00 53.25 97.29 C 51.38 94.96 54.46 93.17 56.30 92.32 Z" />
<path fill="#3e3e3e" opacity="1.00" d=" M 57.21 105.41 C 60.90 102.74 65.09 100.93 69.17 98.96 C 69.28 100.93 69.40 102.89 69.51 104.86 C 63.91 106.50 58.01 107.37 52.66 109.74 C 52.44 109.99 52.00 110.48 51.78 110.72 C 48.91 119.51 49.26 128.87 48.73 137.98 C 50.08 145.06 52.10 152.02 53.96 158.98 C 57.45 167.94 59.36 177.40 62.48 186.46 C 63.24 189.13 66.08 189.82 68.39 190.53 C 70.97 194.89 70.18 199.98 70.51 204.79 C 72.21 206.10 72.52 208.03 72.21 210.02 C 69.18 205.91 68.14 200.82 65.62 196.44 C 63.45 192.43 61.84 188.15 59.99 183.99 C 58.33 180.12 55.34 176.92 54.20 172.81 C 52.81 168.19 50.75 163.77 49.84 159.01 C 49.43 155.69 46.75 153.21 46.47 149.87 C 44.55 137.57 46.23 125.11 46.53 112.76 C 48.78 110.48 50.84 108.03 52.72 105.43 C 54.21 105.42 55.71 105.42 57.21 105.41 Z" />
<path fill="#3e3e3e" opacity="1.00" d=" M 40.08 108.34 C 41.16 105.84 42.38 103.38 43.82 101.06 C 46.28 102.36 49.01 105.16 46.89 107.96 C 45.39 110.50 42.11 109.67 40.08 108.34 Z" />
<path fill="#f5e5c1" opacity="1.00" d=" M 143.02 109.84 C 161.88 103.75 183.21 105.25 200.85 114.38 C 207.51 117.64 213.26 122.37 218.90 127.11 C 218.47 128.19 218.05 129.32 217.17 130.13 C 199.79 148.41 182.28 166.58 164.94 184.89 C 163.61 186.14 162.78 187.78 162.10 189.45 C 138.69 189.47 115.28 189.56 91.87 189.41 C 90.45 173.08 93.82 156.25 102.39 142.19 C 111.59 127.11 126.15 115.26 143.02 109.84 Z" />
<path fill="#3e3e3e" opacity="1.00" d=" M 59.59 117.73 C 61.83 115.99 64.47 114.91 67.35 115.27 C 68.74 117.11 71.48 118.39 71.45 120.97 C 71.68 127.16 71.57 133.37 71.77 139.57 C 72.66 150.70 72.13 161.88 72.52 173.03 C 72.39 175.05 73.15 177.87 70.92 179.00 C 68.84 180.55 66.13 178.50 65.82 176.22 C 62.82 163.79 59.49 151.43 56.53 138.99 C 56.15 131.81 58.39 124.76 59.59 117.73 Z" />
<path fill="#3e3e3e" opacity="1.00" d=" M 34.56 123.49 C 33.69 120.48 35.54 117.83 36.87 115.28 C 38.32 116.00 40.20 116.42 40.95 118.04 C 42.18 119.88 40.87 122.23 39.28 123.39 C 37.73 123.72 36.13 123.52 34.56 123.49 Z" />
<path fill="#3e3e3e" opacity="1.00" d=" M 292.62 129.26 C 297.35 129.35 302.07 129.78 306.75 130.49 C 305.11 136.69 304.18 143.04 302.60 149.25 C 299.85 148.78 297.07 148.49 294.29 148.36 C 293.10 143.95 293.43 139.36 293.27 134.85 L 292.72 134.15 C 292.68 132.52 292.65 130.89 292.62 129.26 Z" />
<path fill="#3e3e3e" opacity="1.00" d=" M 36.93 139.17 C 35.19 137.01 36.75 133.99 36.68 131.47 C 39.18 131.12 42.75 131.82 42.77 134.96 C 43.38 138.19 39.73 140.38 36.93 139.17 Z" />
<path fill="#f5e5c1" opacity="1.00" d=" M 170.41 189.52 C 188.46 170.85 206.35 152.02 224.22 133.19 C 236.09 147.43 242.21 166.19 241.33 184.68 C 235.18 186.14 229.48 189.54 223.02 189.47 C 205.49 189.53 187.95 189.42 170.41 189.52 Z" />
<path fill="#3e3e3e" opacity="1.00" d=" M 36.30 148.78 C 38.82 147.45 42.28 147.33 43.47 150.44 C 44.66 153.63 41.61 156.00 38.68 155.96 C 37.79 153.60 36.95 151.22 36.30 148.78 Z" />
<path fill="#3e3e3e" opacity="1.00" d=" M 287.87 150.25 C 294.57 150.26 301.16 152.14 307.87 151.41 C 307.16 154.87 307.05 158.52 305.84 161.85 C 303.21 164.45 299.13 163.25 295.86 163.03 C 292.30 162.83 289.61 160.20 287.34 157.73 C 287.29 155.23 287.68 152.74 287.87 150.25 Z" />
<path fill="#f5722c" opacity="1.00" d=" M 341.64 163.09 C 345.02 163.28 348.03 164.96 351.28 165.76 C 360.29 168.11 368.89 171.81 377.93 174.04 C 384.86 175.89 391.48 178.71 398.43 180.48 C 406.69 182.59 414.64 185.73 422.80 188.18 C 433.38 190.93 443.64 194.77 454.06 198.04 C 461.27 200.01 468.44 202.14 475.50 204.62 C 480.88 206.62 486.65 207.40 491.88 209.83 C 491.65 210.40 491.19 211.52 490.96 212.09 C 491.59 212.69 492.22 213.30 492.86 213.90 C 492.80 224.14 492.82 234.37 492.85 244.61 C 492.43 244.97 491.58 245.68 491.15 246.03 C 491.21 248.70 491.27 251.38 491.54 254.05 C 490.40 270.39 487.71 286.57 484.72 302.67 C 483.26 316.79 478.38 330.25 476.19 344.24 C 473.83 353.40 470.90 362.40 468.59 371.57 C 465.75 383.82 460.86 395.46 457.43 407.54 C 455.56 413.77 452.97 419.75 451.11 425.99 C 450.39 428.12 449.84 430.50 447.97 431.96 C 433.38 444.34 417.30 454.76 401.57 465.59 C 385.60 476.66 368.00 485.01 350.78 493.89 C 348.39 495.20 345.79 496.29 343.00 496.07 C 338.56 496.42 334.94 493.52 331.11 491.79 C 312.79 482.87 294.86 473.14 277.58 462.34 C 274.56 460.28 270.97 459.17 268.13 456.83 C 261.55 451.44 254.50 446.60 248.56 440.47 C 243.52 436.52 240.06 430.99 234.89 427.19 C 234.49 424.76 233.86 422.37 232.85 420.12 C 228.70 410.75 226.78 400.60 223.11 391.06 C 221.22 384.79 218.90 378.63 217.74 372.17 C 215.10 363.43 212.52 354.67 210.20 345.84 C 207.35 330.34 202.39 315.23 200.68 299.51 C 198.37 286.78 196.30 274.00 195.04 261.12 C 194.70 256.21 193.07 251.28 194.46 246.38 C 194.02 245.99 193.58 245.61 193.14 245.23 C 193.26 235.81 193.14 226.40 193.17 216.98 C 193.16 214.46 193.83 212.02 194.46 209.60 C 207.16 206.28 219.42 201.54 232.11 198.19 C 243.02 194.75 253.73 190.64 264.83 187.79 C 272.28 185.57 279.51 182.65 287.05 180.73 C 295.33 178.63 303.18 175.11 311.52 173.18 C 318.60 171.15 325.44 168.35 332.56 166.43 C 335.67 165.55 338.89 164.85 341.64 163.09 Z" />
<path fill="#3e3e3e" opacity="1.00" d=" M 40.07 166.13 C 41.81 162.92 47.62 164.11 47.55 167.90 C 48.02 170.34 45.50 171.45 44.05 172.84 C 41.93 171.44 38.11 169.08 40.07 166.13 Z" />
<path fill="#3e3e3e" opacity="1.00" d=" M 300.34 186.40 C 314.51 181.69 328.93 177.73 343.02 172.78 C 368.24 181.28 393.81 188.68 419.15 196.82 C 440.32 203.62 461.70 209.79 482.77 216.89 C 484.18 225.53 483.35 234.32 483.56 243.03 C 484.13 258.39 481.03 273.52 479.65 288.75 C 479.03 294.77 477.21 300.59 476.54 306.61 C 475.86 313.38 473.49 319.83 472.61 326.57 C 467.86 346.67 462.72 366.70 456.56 386.43 C 454.05 393.18 452.58 400.26 449.97 406.98 C 447.41 413.34 445.55 419.96 442.93 426.30 C 439.62 428.06 436.83 430.60 433.92 432.94 C 413.12 449.13 390.79 463.33 367.24 475.20 C 359.52 480.00 350.82 482.91 343.02 487.54 C 333.33 482.29 323.04 478.18 313.52 472.57 C 299.60 465.57 285.98 457.87 273.45 448.57 C 265.24 443.30 257.11 437.77 250.16 430.86 C 247.03 427.61 242.62 425.86 239.73 422.39 C 237.34 416.48 237.01 409.97 234.86 403.98 C 224.27 371.90 215.34 339.25 209.11 306.04 C 208.35 298.25 206.22 290.67 205.41 282.89 C 204.66 270.92 202.16 259.07 202.47 247.04 C 202.51 242.97 201.29 238.93 202.00 234.87 C 202.89 228.91 201.98 222.83 203.21 216.90 C 235.57 206.68 267.98 196.58 300.34 186.40 Z" />
<path fill="#3e3e3e" opacity="1.00" d=" M 49.88 182.29 C 51.66 182.43 53.89 182.19 54.83 184.12 C 56.61 186.42 54.63 189.60 52.15 190.35 C 50.39 190.76 49.25 189.38 48.16 188.29 C 48.77 186.30 49.35 184.30 49.88 182.29 Z" />
<path fill="#f5722c" opacity="1.00" d=" M 340.29 184.39 C 343.90 183.34 347.43 185.02 350.82 186.08 C 391.54 198.82 432.28 211.35 472.95 224.25 C 475.28 239.80 472.52 255.45 471.67 271.01 C 471.64 276.75 469.99 282.30 469.61 288.01 C 468.85 298.00 465.38 307.53 464.30 317.47 C 460.29 333.70 456.85 350.08 452.06 366.11 C 446.75 384.54 440.98 402.86 434.12 420.78 C 427.69 425.08 423.27 431.79 416.50 435.62 C 408.49 440.15 401.03 445.59 392.83 449.79 C 376.55 459.12 359.88 467.77 343.02 475.99 C 328.38 469.84 314.65 461.78 300.74 454.16 C 284.11 445.06 269.37 433.04 254.42 421.50 C 252.07 419.54 249.98 417.15 248.70 414.36 C 244.14 398.80 238.63 383.52 234.34 367.87 C 230.53 355.63 227.71 343.12 224.54 330.70 C 223.61 323.83 221.06 317.30 220.31 310.40 C 219.56 304.89 217.88 299.56 217.27 294.03 C 216.34 283.31 213.31 272.82 213.51 262.00 C 212.68 249.47 211.09 236.84 213.05 224.32 C 255.49 211.07 297.90 197.75 340.29 184.39 Z" />
<path fill="#3e3e3e" opacity="1.00" d=" M 26.75 195.97 C 27.28 194.43 28.03 192.96 29.94 193.57 C 33.88 193.93 37.61 195.43 41.25 196.92 C 43.99 197.94 45.26 200.83 47.62 202.40 C 50.32 204.23 53.32 205.59 56.36 206.79 C 55.52 209.14 55.22 211.62 55.17 214.10 C 51.50 211.00 47.59 208.18 43.87 205.13 C 41.72 203.50 41.37 200.43 39.33 198.77 C 35.30 197.25 30.97 196.77 26.75 195.97 Z" />
<path fill="#3e3e3e" opacity="1.00" d=" M 55.42 195.44 C 57.82 193.22 62.12 195.97 61.61 199.03 C 61.71 201.27 59.32 203.11 57.15 202.67 C 53.53 202.67 52.20 197.18 55.42 195.44 Z" />
<path fill="#3e3e3e" opacity="1.00" d=" M 339.38 195.39 C 341.70 194.97 344.40 195.02 346.25 196.70 C 349.96 199.49 349.54 206.00 345.56 208.38 C 341.36 211.06 334.95 208.15 334.56 203.07 C 333.81 199.69 336.21 196.38 339.38 195.39 Z" />
<path fill="#3e3e3e" opacity="1.00" d=" M 27.27 204.39 C 30.73 203.40 35.53 206.24 34.40 210.22 C 32.38 215.31 23.27 212.19 24.74 206.96 C 25.33 205.94 25.98 204.59 27.27 204.39 Z" />
<path fill="#3e3e3e" opacity="1.00" d=" M 61.20 214.88 C 59.02 211.86 62.41 209.02 65.15 208.29 C 66.61 209.59 69.04 210.65 68.65 213.02 C 68.87 216.87 62.83 218.25 61.20 214.88 Z" />
<path fill="#3e3e3e" opacity="1.00" d=" M 42.69 212.44 C 44.20 212.44 45.71 212.45 47.22 212.46 C 48.81 214.60 51.45 216.99 50.06 219.92 C 49.52 221.84 47.60 222.62 46.03 223.52 C 44.96 223.03 43.90 222.55 42.83 222.09 C 41.36 219.07 40.33 215.31 42.69 212.44 Z" />
<path fill="#f5e5c1" opacity="1.00" d=" M 97.45 218.20 C 99.14 216.12 100.90 213.39 103.98 213.67 C 130.54 213.59 157.11 213.48 183.67 213.59 C 183.40 214.07 182.85 215.01 182.58 215.48 C 157.04 215.84 131.47 215.62 105.92 215.81 C 104.18 215.75 102.22 217.05 102.31 218.95 C 102.14 227.66 102.47 236.39 102.48 245.11 C 104.00 246.21 105.29 247.80 107.09 248.43 C 112.63 248.77 118.20 248.42 123.73 248.07 C 123.67 247.89 123.54 247.53 123.48 247.35 C 118.06 250.34 111.97 244.43 112.59 238.90 C 112.65 236.15 114.82 234.20 116.50 232.28 C 115.97 229.57 115.36 226.85 115.43 224.08 C 117.85 221.02 121.01 217.52 125.36 218.56 C 125.32 223.28 125.23 228.01 125.44 232.73 C 127.54 235.05 129.89 237.78 129.40 241.16 C 129.33 243.85 127.08 245.69 125.72 247.80 L 125.61 248.37 C 137.78 248.45 149.96 248.12 162.13 248.34 C 160.37 246.64 158.18 244.78 158.29 242.08 C 157.79 238.95 159.70 236.33 161.68 234.17 C 160.95 228.79 159.34 223.55 159.08 218.11 C 162.89 217.22 166.76 216.37 170.70 216.73 C 170.82 222.27 170.54 227.81 170.59 233.35 C 172.32 235.22 174.82 237.01 174.65 239.87 C 175.26 243.33 173.01 246.17 170.63 248.35 C 175.03 248.12 179.44 248.19 183.85 248.19 C 183.84 248.71 183.84 249.76 183.83 250.28 C 158.20 250.42 132.57 250.51 106.94 250.57 C 103.28 250.93 100.83 247.86 98.31 245.74 C 98.27 243.81 98.22 241.88 98.14 239.95 C 97.23 232.73 98.08 225.43 97.45 218.20 Z" />
<path fill="#3e3e3e" opacity="1.00" d=" M 163.21 219.53 C 164.30 219.39 165.39 219.25 166.48 219.11 C 166.41 223.53 166.48 227.96 166.11 232.37 C 165.69 230.61 165.29 228.85 164.82 227.11 C 164.28 224.58 163.70 222.06 163.21 219.53 Z" />
<path fill="#3e3e3e" opacity="1.00" d=" M 42.64 228.62 C 52.23 228.54 61.83 228.21 71.42 228.39 C 71.59 232.79 71.80 237.19 71.87 241.60 C 62.50 241.86 53.14 242.58 43.76 242.32 C 43.31 237.76 43.24 233.17 42.64 228.62 Z" />
<path fill="#3e3e3e" opacity="1.00" d=" M 228.34 228.28 C 234.34 227.01 240.57 231.76 240.95 237.88 C 241.62 244.98 233.49 251.35 226.81 248.36 C 220.68 246.73 217.98 238.69 221.25 233.45 C 222.57 230.65 225.42 228.94 228.34 228.28 Z" />
<path fill="#3e3e3e" opacity="1.00" d=" M 454.39 228.40 C 460.38 227.38 466.85 232.77 466.21 239.04 C 466.47 245.52 459.41 250.73 453.26 248.78 C 446.81 247.41 443.73 239.32 446.75 233.70 C 448.15 230.71 451.38 229.26 454.39 228.40 Z" />
<path fill="#3e3e3e" opacity="1.00" d=" M 70.57 247.40 C 71.04 247.44 71.99 247.50 72.46 247.53 C 72.55 249.50 72.63 251.47 72.73 253.45 C 71.49 253.86 70.25 254.28 69.01 254.70 C 69.46 252.25 70.00 249.82 70.57 247.40 Z" />
<path fill="#3e3e3e" opacity="1.00" d=" M 61.37 247.58 C 62.48 247.58 64.71 247.58 65.83 247.59 C 65.09 250.73 63.78 253.82 63.69 257.08 C 65.19 261.21 67.95 265.19 66.27 269.76 C 63.18 269.57 60.12 269.10 57.10 268.43 C 58.47 265.39 60.54 262.48 60.62 259.04 C 60.77 255.21 61.07 251.40 61.37 247.58 Z" />
<path fill="#3e3e3e" opacity="1.00" d=" M 52.83 258.85 C 54.13 256.22 53.97 252.95 56.19 250.79 C 56.30 253.54 56.56 256.34 56.09 259.08 C 54.93 262.88 52.83 266.32 51.39 270.02 C 51.75 270.60 52.46 271.77 52.81 272.36 C 57.71 273.27 62.59 274.45 67.59 274.66 C 67.50 277.05 64.67 278.20 63.49 280.10 C 62.09 278.68 60.92 277.03 59.30 275.87 C 56.17 274.39 52.81 273.49 49.62 272.17 C 50.74 269.65 50.24 266.92 50.38 264.27 C 50.89 262.34 52.03 260.66 52.83 258.85 Z" />
<path fill="#3e3e3e" opacity="1.00" d=" M 42.54 255.60 C 45.09 254.06 49.19 253.40 50.52 256.85 C 51.67 261.12 46.42 264.11 42.83 262.44 C 40.66 260.70 42.39 257.85 42.54 255.60 Z" />
<path fill="#3e3e3e" opacity="1.00" d=" M 71.39 261.04 C 72.23 261.80 73.88 262.25 73.39 263.80 C 73.62 268.23 73.58 272.68 73.79 277.11 C 72.03 276.07 70.21 275.14 68.38 274.21 C 71.70 270.71 71.97 265.57 71.39 261.04 Z" />
<path fill="#3e3e3e" opacity="1.00" d=" M 40.30 272.30 C 42.84 269.86 47.54 272.52 46.68 276.00 C 46.73 279.24 41.64 280.90 39.95 278.03 C 38.71 276.41 38.65 273.66 40.30 272.30 Z" />
<path fill="#f5e5c1" opacity="1.00" d=" M 151.00 272.72 C 162.70 272.40 174.36 271.40 186.06 271.15 C 186.39 273.58 186.74 276.00 186.99 278.45 C 170.99 278.37 155.02 277.42 139.02 277.70 C 136.84 277.83 134.71 278.33 132.55 278.67 C 130.53 280.76 127.59 282.71 127.46 285.91 C 127.24 289.96 127.34 294.01 127.34 298.07 C 127.37 299.83 127.30 301.97 129.01 303.04 C 132.17 304.37 135.69 304.31 139.06 304.32 C 156.30 304.20 173.55 304.35 190.79 304.16 C 191.14 305.96 191.51 307.75 191.89 309.54 C 182.25 309.62 172.66 308.46 163.02 308.60 C 150.96 308.72 138.95 307.65 126.90 307.48 C 125.05 305.03 122.42 302.92 121.48 299.92 C 121.19 294.61 121.54 289.28 121.49 283.96 C 121.14 280.21 123.93 277.36 125.79 274.43 C 134.11 272.90 142.64 273.85 151.00 272.72 Z" />
<path fill="#3e3e3e" opacity="1.00" d=" M 52.45 279.57 C 55.04 278.18 58.75 279.92 58.74 283.00 C 59.27 286.35 54.88 288.93 52.23 286.81 C 49.54 285.31 49.75 280.95 52.45 279.57 Z" />
<path fill="#3e3e3e" opacity="1.00" d=" M 67.30 289.82 C 65.21 286.35 70.06 280.55 73.63 283.41 C 75.25 284.37 75.45 286.35 75.73 288.03 C 72.83 288.19 70.06 289.03 67.30 289.82 Z" />
<path fill="#3e3e3e" opacity="1.00" d=" M 264.24 394.16 C 270.97 393.76 277.37 400.14 276.66 406.94 C 276.41 413.87 267.71 418.65 261.69 415.15 C 255.56 412.61 252.44 404.12 256.54 398.61 C 258.30 396.11 261.22 394.52 264.24 394.16 Z" />
<path fill="#3e3e3e" opacity="1.00" d=" M 419.36 394.21 C 423.59 393.94 428.34 396.16 429.86 400.34 C 432.68 406.49 428.60 414.41 422.09 415.96 C 418.85 416.64 415.19 416.61 412.31 414.79 C 408.30 412.52 406.15 407.25 407.83 402.89 C 409.46 398.00 414.51 395.06 419.36 394.21 Z" />
<path fill="#3e3e3e" opacity="1.00" d=" M 340.45 446.53 C 345.18 444.95 350.82 447.85 351.45 452.98 C 351.15 458.95 343.14 464.65 338.03 459.98 C 333.51 456.24 334.91 448.43 340.45 446.53 Z" />
</svg>
