<?xml version="1.0" encoding="UTF-8" ?>
<!DOCTYPE svg PUBLIC "-//W3C//DTD SVG 1.1//EN" "http://www.w3.org/Graphics/SVG/1.1/DTD/svg11.dtd">
<svg width="512pt" height="512pt" viewBox="0 0 512 512" version="1.1" xmlns="http://www.w3.org/2000/svg">
<path fill="#3e3e3e" opacity="1.00" d=" M 0.00 0.00 L 18.93 0.00 L 19.85 0.01 C 19.60 0.97 19.09 2.89 18.84 3.85 C 21.26 3.72 23.68 3.55 26.08 3.20 C 29.89 5.92 32.73 9.68 35.76 13.20 C 44.03 22.79 52.33 32.33 60.57 41.95 C 59.22 44.18 58.10 46.53 57.04 48.91 C 54.79 46.46 52.59 43.98 50.35 41.53 C 47.84 41.44 45.33 41.36 42.82 41.30 C 47.13 46.08 50.88 51.48 56.10 55.34 C 80.82 100.16 104.95 145.30 129.54 190.19 C 121.38 194.20 113.21 198.20 105.03 202.16 C 101.25 203.84 98.84 207.30 96.21 210.32 C 94.07 212.87 91.57 215.17 90.01 218.14 C 85.49 227.16 81.30 236.35 78.03 245.90 C 73.47 256.87 76.04 269.41 81.38 279.60 C 88.83 290.29 96.11 301.11 102.80 312.29 C 105.68 318.26 109.28 324.18 109.80 330.94 C 110.64 338.29 112.05 345.57 112.61 352.95 C 113.67 369.64 114.58 386.34 115.55 403.04 C 115.93 415.94 117.92 428.71 119.93 441.43 C 122.53 449.80 125.86 457.95 129.03 466.12 C 133.23 473.63 138.72 480.34 143.37 487.57 C 147.17 493.74 153.56 497.47 158.87 502.17 C 163.47 506.29 168.84 509.42 174.43 512.00 L 0.00 512.00 L 0.00 14.65 C 0.41 15.22 1.24 16.36 1.65 16.93 C 7.04 14.91 13.44 14.65 17.68 10.34 C 21.69 10.28 25.70 10.36 29.70 10.24 C 28.71 9.01 27.71 7.78 26.70 6.56 C 17.79 6.36 8.91 5.51 0.00 5.33 L 0.00 0.00 Z" />
<path fill="#f5e5c1" opacity="1.00" d=" M 18.93 0.00 L 30.23 0.00 C 30.78 0.43 31.87 1.29 32.42 1.72 C 33.08 1.66 34.41 1.53 35.08 1.47 C 48.66 12.86 62.20 24.31 75.75 35.74 C 72.05 25.50 68.40 15.23 64.86 4.93 C 63.98 3.02 65.78 1.57 67.58 2.22 C 68.58 3.39 69.30 4.75 69.95 6.13 C 74.23 15.73 78.94 25.12 83.29 34.68 C 84.18 36.23 84.72 38.66 87.00 38.35 C 87.71 36.95 88.30 35.50 88.89 34.05 C 81.48 22.71 74.16 11.30 66.69 0.00 L 74.30 0.00 C 80.58 11.31 86.67 22.74 92.86 34.10 C 94.63 36.64 92.50 39.44 92.25 42.11 C 92.72 43.97 93.88 45.55 94.83 47.19 C 105.28 64.07 115.04 81.37 125.86 98.01 C 129.12 102.34 131.49 107.20 133.96 112.00 C 143.71 128.23 153.45 144.48 163.28 160.67 C 178.51 188.06 194.54 215.02 210.07 242.25 C 208.70 241.66 207.34 241.08 205.97 240.50 C 214.09 253.81 222.25 267.09 230.38 280.39 C 231.38 277.00 232.71 273.60 232.70 270.01 C 232.01 263.72 228.87 258.03 224.82 253.28 C 222.16 249.51 217.70 247.72 214.56 244.47 C 211.95 241.00 210.14 237.01 207.79 233.37 C 216.63 236.87 225.76 239.69 234.41 243.64 C 241.89 248.49 249.95 252.55 256.96 258.09 C 261.55 263.19 267.81 266.62 271.68 272.39 C 277.21 280.17 282.92 287.83 288.47 295.60 C 291.60 300.82 294.66 306.78 293.68 313.06 C 293.21 316.36 293.36 320.28 290.66 322.69 C 287.96 325.19 285.78 328.82 281.90 329.54 C 275.53 330.89 269.49 334.00 262.81 333.41 C 269.64 344.21 276.18 355.19 282.90 366.05 C 289.10 363.88 295.31 361.72 301.46 359.38 C 305.68 364.09 309.31 369.28 312.75 374.58 C 306.18 377.55 299.53 380.32 292.93 383.19 C 302.32 403.47 312.00 423.62 321.43 443.88 C 325.03 443.47 328.61 442.87 332.19 442.30 C 333.79 444.50 335.72 446.56 336.67 449.15 C 337.00 451.53 334.41 452.81 333.14 454.42 C 334.69 461.22 336.88 467.85 338.77 474.56 C 347.62 468.52 357.92 464.36 365.11 456.17 C 372.55 449.60 378.42 441.25 382.06 432.02 C 383.84 425.73 386.96 419.63 386.82 412.96 C 386.84 409.97 386.92 406.99 387.06 404.01 C 387.37 396.94 385.85 389.98 385.10 383.00 C 384.30 377.79 384.59 372.05 381.27 367.63 C 376.06 359.88 371.90 351.35 365.43 344.52 C 360.03 338.60 355.19 332.17 349.50 326.53 C 339.01 317.35 328.38 308.32 317.88 299.15 C 313.81 295.53 309.30 292.37 305.65 288.28 C 296.61 278.39 287.00 269.01 278.14 258.95 C 273.96 253.00 268.59 247.54 266.74 240.30 C 265.01 234.32 262.84 228.48 260.39 222.76 C 258.20 217.14 253.65 213.01 249.82 208.53 C 252.04 207.66 254.28 206.82 256.53 206.00 C 259.85 210.15 263.94 213.88 265.96 218.92 C 268.07 223.99 270.22 229.06 271.81 234.33 C 273.02 238.19 274.02 242.24 276.49 245.54 C 279.99 250.35 283.30 255.35 287.55 259.56 C 296.43 268.65 304.87 278.18 313.93 287.09 C 326.16 297.52 338.26 308.09 350.46 318.55 C 358.13 324.91 363.93 333.10 370.62 340.41 C 377.27 347.42 381.52 356.20 386.91 364.13 C 389.18 367.28 390.55 370.97 390.78 374.86 C 391.72 384.90 394.08 394.86 393.61 405.00 C 393.41 411.06 394.11 417.34 391.87 423.14 C 389.32 429.65 388.87 436.99 384.74 442.82 C 380.20 449.46 376.46 456.89 370.02 461.96 C 361.37 468.98 353.72 477.35 343.96 482.90 C 334.45 488.70 325.18 494.90 315.58 500.57 C 307.86 504.52 300.02 508.26 292.19 512.00 L 174.43 512.00 C 168.84 509.42 163.47 506.29 158.87 502.17 C 153.56 497.47 147.17 493.74 143.37 487.57 C 138.72 480.34 133.23 473.63 129.03 466.12 C 125.86 457.95 122.53 449.80 119.93 441.43 C 117.92 428.71 115.93 415.94 115.55 403.04 C 114.58 386.34 113.67 369.64 112.61 352.95 C 112.05 345.57 110.64 338.29 109.80 330.94 C 109.28 324.18 105.68 318.26 102.80 312.29 C 96.11 301.11 88.83 290.29 81.38 279.60 C 76.04 269.41 73.47 256.87 78.03 245.90 C 81.30 236.35 85.49 227.16 90.01 218.14 C 91.57 215.17 94.07 212.87 96.21 210.32 C 98.84 207.30 101.25 203.84 105.03 202.16 C 113.21 198.20 121.38 194.20 129.54 190.19 C 104.95 145.30 80.82 100.16 56.10 55.34 C 50.88 51.48 47.13 46.08 42.82 41.30 C 45.33 41.36 47.84 41.44 50.35 41.53 C 52.59 43.98 54.79 46.46 57.04 48.91 C 58.10 46.53 59.22 44.18 60.57 41.95 C 52.33 32.33 44.03 22.79 35.76 13.20 C 32.73 9.68 29.89 5.92 26.08 3.20 C 23.68 3.55 21.26 3.72 18.84 3.85 C 19.09 2.89 19.60 0.97 19.85 0.01 L 18.93 0.00 Z" />
<path fill="#3e3e3e" opacity="1.00" d=" M 30.23 0.00 L 66.69 0.00 C 74.16 11.30 81.48 22.71 88.89 34.05 C 88.30 35.50 87.71 36.95 87.00 38.35 C 84.72 38.66 84.18 36.23 83.29 34.68 C 78.94 25.12 74.23 15.73 69.95 6.13 C 69.30 4.75 68.58 3.39 67.58 2.22 C 65.78 1.57 63.98 3.02 64.86 4.93 C 68.40 15.23 72.05 25.50 75.75 35.74 C 62.20 24.31 48.66 12.86 35.08 1.47 C 34.41 1.53 33.08 1.66 32.42 1.72 C 31.87 1.29 30.78 0.43 30.23 0.00 Z" />
<path fill="#3e3e3e" opacity="1.00" d=" M 74.30 0.00 L 512.00 0.00 L 512.00 512.00 L 292.19 512.00 C 300.02 508.26 307.86 504.52 315.58 500.57 C 325.18 494.90 334.45 488.70 343.96 482.90 C 353.72 477.35 361.37 468.98 370.02 461.96 C 376.46 456.89 380.20 449.46 384.74 442.82 C 388.87 436.99 389.32 429.65 391.87 423.14 C 394.11 417.34 393.41 411.06 393.61 405.00 C 394.08 394.86 391.72 384.90 390.78 374.86 C 390.55 370.97 389.18 367.28 386.91 364.13 C 381.52 356.20 377.27 347.42 370.62 340.41 C 363.93 333.10 358.13 324.91 350.46 318.55 C 338.26 308.09 326.16 297.52 313.93 287.09 C 304.87 278.18 296.43 268.65 287.55 259.56 C 283.30 255.35 279.99 250.35 276.49 245.54 C 274.02 242.24 273.02 238.19 271.81 234.33 C 270.22 229.06 268.07 223.99 265.96 218.92 C 263.94 213.88 259.85 210.15 256.53 206.00 C 254.28 206.82 252.04 207.66 249.82 208.53 C 253.65 213.01 258.20 217.14 260.39 222.76 C 262.84 228.48 265.01 234.32 266.74 240.30 C 268.59 247.54 273.96 253.00 278.14 258.95 C 287.00 269.01 296.61 278.39 305.65 288.28 C 309.30 292.37 313.81 295.53 317.88 299.15 C 328.38 308.32 339.01 317.35 349.50 326.53 C 355.19 332.17 360.03 338.60 365.43 344.52 C 371.90 351.35 376.06 359.88 381.27 367.63 C 384.59 372.05 384.30 377.79 385.10 383.00 C 385.85 389.98 387.37 396.94 387.06 404.01 C 386.92 406.99 386.84 409.97 386.82 412.96 C 386.96 419.63 383.84 425.73 382.06 432.02 C 378.42 441.25 372.55 449.60 365.11 456.17 C 357.92 464.36 347.62 468.52 338.77 474.56 C 336.88 467.85 334.69 461.22 333.14 454.42 C 334.41 452.81 337.00 451.53 336.67 449.15 C 335.72 446.56 333.79 444.50 332.19 442.30 C 328.61 442.87 325.03 443.47 321.43 443.88 C 312.00 423.62 302.32 403.47 292.93 383.19 C 299.53 380.32 306.18 377.55 312.75 374.58 C 309.31 369.28 305.68 364.09 301.46 359.38 C 295.31 361.72 289.10 363.88 282.90 366.05 C 276.18 355.19 269.64 344.21 262.81 333.41 C 269.49 334.00 275.53 330.89 281.90 329.54 C 285.78 328.82 287.96 325.19 290.66 322.69 C 293.36 320.28 293.21 316.36 293.68 313.06 C 294.66 306.78 291.60 300.82 288.47 295.60 C 282.92 287.83 277.21 280.17 271.68 272.39 C 267.81 266.62 261.55 263.19 256.96 258.09 C 249.95 252.55 241.89 248.49 234.41 243.64 C 225.76 239.69 216.63 236.87 207.79 233.37 C 210.14 237.01 211.95 241.00 214.56 244.47 C 217.70 247.72 222.16 249.51 224.82 253.28 C 228.87 258.03 232.01 263.72 232.70 270.01 C 232.71 273.60 231.38 277.00 230.38 280.39 C 222.25 267.09 214.09 253.81 205.97 240.50 C 207.34 241.08 208.70 241.66 210.07 242.25 C 194.54 215.02 178.51 188.06 163.28 160.67 C 153.45 144.48 143.71 128.23 133.96 112.00 C 131.49 107.20 129.12 102.34 125.86 98.01 C 115.04 81.37 105.28 64.07 94.83 47.19 C 93.88 45.55 92.72 43.97 92.25 42.11 C 92.50 39.44 94.63 36.64 92.86 34.10 C 86.67 22.74 80.58 11.31 74.30 0.00 Z" />
<path fill="#f5e5c1" opacity="1.00" d=" M 77.63 0.70 C 83.08 0.64 88.52 0.16 93.97 0.32 C 95.88 0.17 96.80 2.05 97.77 3.33 C 99.32 5.43 100.53 7.82 100.51 10.50 C 94.47 10.74 88.50 9.58 82.47 9.39 C 80.79 6.52 79.22 3.61 77.63 0.70 Z" />
<path fill="#f5e5c1" opacity="1.00" d=" M 0.00 5.33 C 8.91 5.51 17.79 6.36 26.70 6.56 C 27.71 7.78 28.71 9.01 29.70 10.24 C 25.70 10.36 21.69 10.28 17.68 10.34 C 13.44 14.65 7.04 14.91 1.65 16.93 C 1.24 16.36 0.41 15.22 0.00 14.65 L 0.00 5.33 Z" />
<path fill="#f5e5c1" opacity="1.00" d=" M 83.81 12.16 C 91.05 12.43 98.26 13.21 105.48 13.80 C 107.81 14.28 107.33 17.23 107.56 19.01 C 107.47 21.60 108.46 25.49 105.14 26.40 C 99.95 25.97 94.95 24.28 89.85 23.28 C 87.87 19.55 85.87 15.84 83.81 12.16 Z" />
<path fill="#f5e5c1" opacity="1.00" d=" M 20.11 12.67 C 22.49 12.71 24.86 12.76 27.24 12.78 C 28.85 14.60 30.44 16.45 32.00 18.32 C 29.62 18.37 27.23 18.40 24.85 18.42 C 23.28 16.49 21.70 14.57 20.11 12.67 Z" />
<path fill="#3e3e3e" opacity="1.00" d=" M 41.60 13.05 C 50.93 20.05 59.60 27.90 68.64 35.27 C 71.08 36.99 72.40 39.70 73.78 42.26 C 110.80 107.59 148.07 172.79 185.06 238.14 C 186.43 239.22 184.01 241.84 183.20 239.96 C 145.85 173.99 108.26 108.14 70.86 42.20 C 69.70 40.29 69.21 37.93 67.55 36.36 C 58.91 28.58 49.68 21.43 41.60 13.05 Z" />
<path fill="#f5722c" opacity="1.00" d=" M 276.01 16.92 C 280.59 16.09 285.28 14.94 289.95 15.76 C 296.83 16.76 302.95 20.24 309.34 22.76 C 312.59 24.28 316.25 25.44 318.77 28.12 C 318.54 32.61 317.28 36.97 316.56 41.38 C 308.84 40.26 301.00 38.28 293.18 39.79 C 286.99 40.98 280.28 41.18 274.97 44.98 C 270.16 48.38 264.54 51.19 261.46 56.45 C 258.02 61.91 253.93 68.18 255.91 74.94 C 263.40 98.57 270.52 122.31 277.91 145.96 C 279.61 151.14 281.45 156.45 281.16 161.98 C 280.64 173.64 274.90 184.59 266.87 192.86 C 260.36 199.29 252.20 204.56 243.00 205.87 C 235.60 207.16 227.09 204.64 222.74 198.24 C 218.46 192.14 217.84 184.14 219.48 177.04 C 222.52 163.48 231.67 151.56 243.60 144.55 C 248.78 141.46 254.68 139.78 260.69 139.39 C 258.44 133.75 258.38 127.57 256.34 121.88 C 247.93 93.80 239.73 65.67 231.26 37.61 C 237.34 33.06 243.51 28.25 250.82 25.88 C 255.08 24.34 258.97 21.98 263.09 20.13 C 267.17 18.29 271.66 17.82 276.01 16.92 Z" />
<path fill="#f5e5c1" opacity="1.00" d=" M 9.08 21.32 C 19.12 21.13 29.16 20.74 39.21 20.62 C 39.82 21.82 40.40 23.04 40.92 24.29 C 36.61 24.56 32.29 24.51 27.98 24.79 C 27.26 26.03 26.64 27.34 25.75 28.48 C 21.92 29.67 17.84 29.44 13.88 29.76 C 11.91 27.19 9.40 24.73 9.08 21.32 Z" />
<path fill="#f5e5c1" opacity="1.00" d=" M 31.68 27.34 C 33.80 27.18 35.92 26.90 38.05 26.98 C 40.13 27.93 41.15 30.23 42.70 31.79 C 40.30 31.71 37.81 32.20 35.45 31.57 C 34.06 30.29 32.90 28.78 31.68 27.34 Z" />
<path fill="#f5e5c1" opacity="1.00" d=" M 93.88 31.21 C 99.70 31.47 105.58 30.97 111.36 31.70 C 113.99 33.43 115.88 36.14 117.32 38.90 C 117.47 41.21 115.05 42.80 112.93 42.27 C 107.06 41.67 101.16 41.34 95.30 40.57 C 95.81 38.76 96.31 36.94 96.79 35.12 C 95.81 33.83 94.84 32.53 93.88 31.21 Z" />
<path fill="#f5e5c1" opacity="1.00" d=" M 20.11 34.91 C 30.23 34.72 40.36 34.58 50.49 34.26 C 50.58 35.72 50.64 37.18 50.68 38.64 C 46.58 38.84 42.49 38.55 38.39 38.55 C 38.65 40.46 38.97 42.36 39.30 44.26 C 35.52 44.83 31.74 45.43 27.94 45.80 C 25.35 42.16 22.04 39.00 20.11 34.91 Z" />
<path fill="#3e3e3e" opacity="1.00" d=" M 63.13 37.50 C 63.74 37.45 64.96 37.36 65.56 37.31 C 103.53 104.73 141.46 172.17 179.45 239.58 C 180.09 240.78 180.49 242.09 180.87 243.39 C 180.35 243.49 179.31 243.67 178.80 243.77 C 140.95 176.16 102.79 108.73 64.85 41.18 C 64.22 39.98 63.67 38.74 63.13 37.50 Z" />
<path fill="#3e3e3e" opacity="1.00" d=" M 78.28 38.79 C 78.87 38.68 80.06 38.46 80.66 38.35 C 118.62 103.40 156.64 168.42 194.61 233.46 C 195.40 234.86 196.08 236.30 196.77 237.77 C 195.07 237.96 193.85 237.37 193.13 235.98 C 156.52 173.21 119.85 110.48 83.23 47.71 C 81.47 44.80 79.71 41.88 78.28 38.79 Z" />
<path fill="#3e3e3e" opacity="1.00" d=" M 73.94 38.93 C 75.49 36.92 76.11 40.14 77.01 40.93 C 114.39 106.00 151.70 171.09 189.07 236.16 C 190.22 237.46 189.32 240.07 187.49 238.49 C 149.80 172.86 112.20 107.15 74.46 41.54 C 74.33 40.88 74.07 39.58 73.94 38.93 Z" />
<path fill="#3e3e3e" opacity="1.00" d=" M 84.04 42.79 C 83.09 41.58 83.42 40.02 83.65 38.64 C 84.75 39.77 85.90 40.89 86.72 42.25 C 124.04 104.87 161.48 167.43 198.83 230.04 C 199.97 232.19 202.08 233.85 202.58 236.29 C 201.98 236.41 200.79 236.65 200.19 236.77 C 198.04 234.15 196.58 231.06 194.80 228.20 C 157.82 166.43 121.06 104.53 84.04 42.79 Z" />
<path fill="#3e3e3e" opacity="1.00" d=" M 63.74 47.41 C 65.35 49.42 67.06 51.39 68.32 53.66 C 97.60 106.36 126.88 159.07 156.17 211.77 C 161.67 221.51 166.88 231.43 172.61 241.04 C 170.42 244.63 169.05 248.61 167.55 252.52 C 165.73 256.80 167.37 261.46 167.61 265.89 C 167.85 269.37 170.64 271.78 172.65 274.36 C 175.77 277.90 178.31 282.15 182.55 284.50 C 186.95 287.09 191.11 290.05 195.51 292.63 C 199.04 294.80 203.30 294.99 207.26 295.80 C 221.98 320.83 236.17 346.17 250.82 371.24 C 255.84 377.03 258.35 384.41 261.96 391.08 C 272.78 411.18 283.87 431.14 294.81 451.19 C 296.85 455.00 298.34 459.51 301.84 462.23 C 302.60 462.00 304.12 461.53 304.87 461.30 C 303.55 459.04 301.97 456.75 302.27 453.99 C 301.94 453.51 301.29 452.55 300.96 452.07 C 299.93 451.48 298.90 450.83 298.43 449.69 C 288.90 432.20 279.34 414.72 269.70 397.29 C 268.50 395.23 268.47 392.74 267.40 390.63 C 265.56 386.97 261.99 384.46 260.65 380.50 C 259.60 377.16 257.29 374.53 255.48 371.62 C 241.97 348.06 228.43 324.52 214.89 300.98 C 214.10 299.56 213.38 298.09 212.70 296.62 C 214.19 296.68 215.80 296.84 216.43 298.43 C 230.47 322.75 244.46 347.11 258.43 371.46 C 260.34 377.17 265.02 381.29 266.93 387.01 C 273.45 397.44 278.68 408.61 284.61 419.38 C 288.74 427.26 293.00 435.06 297.10 442.95 C 299.50 447.71 302.98 451.82 305.39 456.58 C 306.32 457.85 306.78 460.17 308.82 459.82 C 310.27 457.41 307.72 455.11 306.91 452.93 C 307.22 452.52 307.84 451.69 308.15 451.27 C 307.42 449.87 306.70 448.47 305.99 447.06 C 305.49 447.22 304.51 447.54 304.01 447.70 C 294.18 428.91 284.22 410.18 274.16 391.51 C 274.78 391.16 276.01 390.47 276.63 390.12 C 275.35 387.79 274.10 385.43 272.89 383.07 C 272.13 383.17 270.61 383.36 269.85 383.46 C 268.61 381.27 267.38 379.09 266.12 376.92 C 266.75 376.65 268.00 376.12 268.63 375.85 C 268.21 374.51 267.70 373.22 267.16 371.94 C 266.31 372.16 264.61 372.59 263.76 372.80 C 248.90 347.06 234.21 321.22 219.24 295.54 C 219.91 295.41 221.26 295.16 221.93 295.03 C 235.43 317.90 249.00 340.74 262.51 363.61 C 263.09 364.77 264.19 365.47 265.27 366.13 C 270.31 374.16 273.63 383.23 279.24 390.89 C 279.30 392.84 279.25 394.89 280.35 396.61 C 286.78 408.92 293.16 421.26 299.44 433.64 C 301.28 437.31 304.27 440.26 305.94 444.03 C 308.79 448.94 310.55 454.82 315.29 458.33 C 315.58 455.07 313.63 452.30 312.89 449.25 C 312.35 446.48 309.69 444.99 308.51 442.56 C 299.19 424.63 290.05 406.59 280.68 388.68 C 281.23 388.34 282.32 387.65 282.87 387.30 C 281.64 385.08 280.43 382.85 279.20 380.63 C 275.41 381.74 275.07 376.65 273.29 374.51 C 273.85 374.20 274.96 373.58 275.52 373.27 C 274.71 371.96 273.92 370.64 273.13 369.33 C 272.62 369.59 271.58 370.13 271.06 370.39 C 256.48 345.91 241.71 321.53 226.71 297.29 C 225.91 295.96 225.36 294.51 224.86 293.05 C 225.49 293.16 226.75 293.39 227.38 293.51 C 241.61 316.64 255.89 339.77 270.00 362.99 C 270.75 364.27 271.91 365.21 273.04 366.14 C 276.50 372.29 279.66 378.61 283.11 384.77 C 284.87 387.75 284.84 391.38 286.55 394.40 C 293.07 407.61 299.09 421.10 305.83 434.20 C 306.33 434.28 307.33 434.46 307.83 434.54 C 311.21 441.82 314.44 449.17 318.08 456.32 C 320.30 453.89 317.93 451.19 317.10 448.76 C 317.91 448.74 319.51 448.69 320.31 448.67 C 319.46 447.16 318.64 445.66 317.81 444.15 C 317.01 441.80 316.16 439.41 314.51 437.50 C 315.36 440.07 316.43 442.56 317.29 445.13 C 315.94 444.87 314.58 444.46 314.16 443.00 C 305.63 425.16 297.14 407.29 288.56 389.47 C 287.13 386.88 287.75 383.64 285.98 381.20 C 284.14 378.61 281.42 376.68 280.14 373.68 C 279.22 372.75 280.18 371.70 280.49 370.78 C 279.42 368.68 276.79 368.31 275.65 366.34 C 261.11 341.97 246.40 317.71 231.44 293.61 C 230.54 292.25 229.72 290.67 230.78 289.14 C 233.29 290.73 234.38 293.64 235.96 296.02 C 246.58 313.39 257.23 330.73 267.90 348.07 C 271.22 353.41 274.36 358.89 278.02 364.01 C 282.45 371.61 286.43 379.45 290.80 387.08 C 297.90 404.23 306.54 420.72 314.11 437.68 C 314.60 437.37 315.58 436.75 316.07 436.43 C 317.87 440.42 319.75 444.38 321.43 448.42 C 322.18 450.08 322.80 451.99 324.60 452.85 C 324.52 450.99 324.10 449.22 323.33 447.54 C 324.94 447.13 326.54 446.72 328.16 446.32 C 328.85 447.23 329.54 448.14 330.24 449.05 C 328.70 450.68 326.47 452.46 327.36 455.02 C 329.28 462.54 331.60 469.96 333.80 477.40 C 330.47 479.54 327.08 481.59 323.73 483.70 C 317.61 476.94 310.81 470.71 305.50 463.28 C 303.23 462.87 301.00 463.94 298.82 464.40 C 297.57 463.32 296.36 462.22 295.17 461.09 C 297.16 459.55 296.73 457.66 295.34 455.80 C 292.28 458.54 289.18 461.23 286.07 463.91 C 288.01 466.26 289.82 468.72 291.90 470.96 C 294.32 474.26 298.62 471.79 301.83 471.43 C 306.63 477.02 311.56 482.50 316.33 488.11 C 310.40 491.35 305.11 496.21 298.25 497.33 C 289.79 499.15 281.50 501.77 272.97 503.18 C 263.28 503.39 253.53 504.24 243.87 503.03 C 237.73 502.36 231.56 502.00 225.44 501.24 C 221.32 500.20 217.58 498.09 213.67 496.51 C 209.34 494.49 204.64 493.13 200.81 490.20 C 192.77 484.22 184.74 478.23 176.65 472.32 C 174.73 470.95 173.07 469.26 171.65 467.39 C 166.47 460.57 161.28 453.76 156.02 447.00 C 154.66 445.26 153.42 443.40 152.74 441.29 C 149.05 430.38 145.23 419.50 141.49 408.60 C 140.40 405.53 140.53 402.24 140.32 399.04 C 138.76 376.68 137.47 354.29 136.23 331.91 C 135.64 325.92 135.69 319.88 134.75 313.93 C 133.88 307.89 132.09 302.03 130.92 296.05 C 129.86 289.74 125.96 284.50 123.26 278.84 C 117.37 266.94 107.90 257.42 100.43 246.57 C 98.22 242.20 96.43 237.59 94.79 232.98 C 94.78 229.08 95.29 225.09 96.29 221.31 C 98.68 217.47 102.18 214.46 104.95 210.89 C 106.98 208.07 110.39 206.97 113.36 205.47 C 122.59 201.12 131.57 196.25 140.95 192.23 C 139.78 190.25 138.70 188.20 137.26 186.40 C 136.59 186.72 135.24 187.35 134.56 187.67 C 110.32 143.14 86.07 98.62 62.00 54.01 C 62.59 51.81 63.17 49.61 63.74 47.41 Z" />
<path fill="#f5722c" opacity="1.00" d=" M 475.97 75.90 C 478.21 75.42 481.89 74.26 483.11 76.90 C 481.79 121.59 480.26 166.29 479.12 210.99 C 479.06 212.29 478.88 213.57 478.60 214.84 C 472.25 231.75 455.97 244.13 438.15 246.47 C 431.56 247.18 424.54 246.67 418.70 243.26 C 413.28 240.19 409.31 234.35 409.21 228.02 C 408.54 218.78 413.49 210.19 419.68 203.72 C 429.58 193.63 443.72 187.08 458.03 188.25 C 461.37 188.31 464.55 189.40 467.63 190.62 C 468.80 174.43 469.28 158.20 470.34 142.01 C 470.68 131.18 471.69 120.38 471.83 109.55 C 443.49 123.74 415.08 137.80 386.71 151.93 C 385.51 176.00 384.30 200.07 383.14 224.15 C 382.38 230.69 383.41 237.54 380.91 243.79 C 377.09 254.60 368.31 263.02 358.36 268.32 C 348.89 273.20 337.61 275.76 327.16 272.70 C 319.95 270.65 313.67 264.60 312.70 256.97 C 311.29 246.73 316.96 236.98 324.00 230.00 C 335.56 218.83 352.91 212.09 368.81 216.87 C 369.01 211.21 370.54 205.70 370.76 200.05 C 372.16 177.05 373.52 154.05 374.92 131.05 C 375.66 123.50 375.37 115.86 376.55 108.36 C 379.33 106.56 382.65 105.90 385.75 104.84 C 415.84 95.26 445.89 85.53 475.97 75.90 Z" />
<path fill="#f5e5c1" opacity="1.00" d=" M 176.75 179.21 C 189.08 180.61 201.34 182.60 213.66 184.07 C 213.97 186.39 214.36 188.71 214.94 190.98 C 203.54 189.48 192.15 187.86 180.76 186.33 C 179.39 183.97 178.02 181.61 176.75 179.21 Z" />
<path fill="#3e3e3e" opacity="1.00" d=" M 193.25 238.38 C 194.78 238.91 195.87 240.04 196.62 241.44 C 203.64 253.33 210.77 265.17 217.85 277.04 C 219.85 280.40 222.11 283.65 223.52 287.33 C 220.91 286.79 220.07 284.13 218.80 282.17 C 210.44 267.49 201.24 253.27 193.25 238.38 Z" />
<path fill="#3e3e3e" opacity="1.00" d=" M 200.04 238.99 C 201.09 240.29 202.06 241.66 202.95 243.08 C 210.40 255.29 217.89 267.48 225.43 279.63 C 226.33 280.99 226.78 282.57 227.07 284.17 C 223.26 279.37 220.62 273.78 217.35 268.63 C 211.68 258.70 205.27 249.16 200.04 238.99 Z" />
<path fill="#3e3e3e" opacity="1.00" d=" M 187.96 239.23 C 189.21 240.29 190.32 241.53 191.13 242.97 C 200.00 258.21 209.18 273.28 217.98 288.57 C 217.33 288.62 216.03 288.73 215.38 288.78 C 206.81 273.65 198.07 258.60 189.38 243.54 C 188.58 242.23 188.25 240.71 187.96 239.23 Z" />
<path fill="#3e3e3e" opacity="1.00" d=" M 181.64 243.05 C 182.21 242.73 183.35 242.10 183.92 241.78 C 192.90 257.55 202.01 273.25 211.04 288.99 C 209.94 288.84 208.85 288.69 207.77 288.54 C 199.03 273.39 190.28 258.25 181.64 243.05 Z" />
<path fill="#3e3e3e" opacity="1.00" d=" M 178.53 245.94 C 186.85 259.72 194.72 273.77 202.68 287.77 C 199.69 286.91 197.12 285.18 194.59 283.45 C 190.06 280.38 184.81 278.08 181.45 273.59 C 179.31 270.78 176.64 268.32 174.98 265.19 C 174.30 262.17 174.11 259.02 174.24 255.93 C 175.11 252.40 176.94 249.19 178.53 245.94 Z" />
<path fill="#3e3e3e" opacity="1.00" d=" M 285.30 369.93 C 289.70 368.49 294.07 366.97 298.38 365.28 C 300.16 367.18 301.81 369.19 303.31 371.33 C 298.59 373.03 293.91 374.82 289.18 376.47 C 287.90 374.28 286.61 372.10 285.30 369.93 Z" />
<path fill="#f5e5c1" opacity="1.00" d=" M 225.97 386.65 C 234.85 382.91 244.10 380.13 253.09 376.67 C 253.77 377.94 254.46 379.21 255.16 380.49 C 247.70 383.52 239.99 385.89 232.46 388.72 C 233.46 391.30 234.41 393.90 235.46 396.47 C 243.25 393.55 250.96 390.35 258.94 387.99 C 260.18 390.74 261.53 393.43 262.89 396.13 C 254.28 399.83 245.74 403.67 237.05 407.17 C 233.39 400.31 228.64 393.99 225.97 386.65 Z" />
</svg>
