<?xml version="1.0" encoding="UTF-8" standalone="no"?>
<svg
   xmlns:dc="http://purl.org/dc/elements/1.1/"
   xmlns:cc="http://creativecommons.org/ns#"
   xmlns:rdf="http://www.w3.org/1999/02/22-rdf-syntax-ns#"
   xmlns:svg="http://www.w3.org/2000/svg"
   xmlns="http://www.w3.org/2000/svg"
   xmlns:sodipodi="http://sodipodi.sourceforge.net/DTD/sodipodi-0.dtd"
   xmlns:inkscape="http://www.inkscape.org/namespaces/inkscape"
   width="1280"
   height="1280"
   viewBox="0 0 1024 1024"
   version="1.1"
   id="svg3136"
   inkscape:version="0.47 r22583"
   sodipodi:docname="assist_heavy.svg">
  <metadata
     id="metadata3226">
    <rdf:RDF>
      <cc:Work
         rdf:about="">
        <dc:format>image/svg+xml</dc:format>
        <dc:type
           rdf:resource="http://purl.org/dc/dcmitype/StillImage" />
      </cc:Work>
    </rdf:RDF>
  </metadata>
  <defs
     id="defs3224" />
  <sodipodi:namedview
     pagecolor="#ffffff"
     bordercolor="#666666"
     borderopacity="1"
     objecttolerance="10"
     gridtolerance="10"
     guidetolerance="10"
     inkscape:pageopacity="0"
     inkscape:pageshadow="2"
     inkscape:window-width="1280"
     inkscape:window-height="738"
     id="namedview3222"
     showgrid="false"
     inkscape:zoom="0.39"
     inkscape:cx="519.99045"
     inkscape:cy="681.25662"
     inkscape:window-x="-8"
     inkscape:window-y="-8"
     inkscape:window-maximized="1"
     inkscape:current-layer="svg3136" />
  <path
     d="m 0,0 1024,0 0,1024 L 0,1024 0,0 z"
     id="path3138"
     style="fill:#3e3e3e" />
  <path
     style="fill:#f4722b;fill-opacity:1;stroke:none"
     d="M 341.15625 421.53125 C 194.34705 421.53125 75.34375 540.53455 75.34375 687.34375 C 75.34375 834.15295 194.34705 953.15625 341.15625 953.15625 C 487.96545 953.15625 607 834.15295 607 687.34375 C 607 540.53455 487.96545 421.53125 341.15625 421.53125 z M 340.625 459.6875 C 466.34792 459.6875 568.28125 561.62083 568.28125 687.34375 C 568.28125 813.06667 466.34792 914.96875 340.625 914.96875 C 214.90208 914.96875 113 813.06667 113 687.34375 C 113 561.62083 214.90208 459.6875 340.625 459.6875 z "
     id="path2855"
     transform="scale(0.8,0.8)" />
  <path
     d="m 756.66806,53.38389 c 22.78521,-11.86579 47.31753,-22.03299 73.18445,-23.82863 13.24891,-0.77649 30.69574,8.58995 27.78389,24.02275 -2.5964,11.96284 -16.33062,13.32171 -25.96398,16.45194 -8.37157,3.08171 -19.38806,4.31924 -23.51318,13.41877 14.43792,4.00379 28.60891,-3.54275 40.20777,-11.429 14.14673,-9.1238 24.16835,-23.7801 39.86806,-30.67147 18.73289,-6.16342 40.74161,4.05232 48.0455,22.44549 12.52095,39.47981 16.33061,83.69138 0.82502,122.90427 -3.90673,12.66654 -13.20038,22.59109 -22.42123,31.69062 -10.60398,10.7253 -24.87204,16.71886 -38.94597,21.42635 -7.40095,3.95526 -16.01517,2.54786 -24.02275,2.79052 -21.08664,-0.36398 -42.46446,0.99488 -63.21137,-3.44569 -24.87204,-2.96038 -50.13233,-10.11867 -70.02996,-25.91545 -6.04208,-5.77517 -14.0254,-12.30256 -13.05478,-21.62047 0.12132,-31.61782 -0.0243,-63.23564 0.0728,-94.85346 -0.77649,-4.92588 3.95526,-7.59507 6.98844,-10.45839 14.38938,-11.38048 27.34711,-25.06616 44.1873,-32.92815 z"
     id="path3140"
     style="fill:#f5e5c1" />
  <path
     d="m 649.29365,84.63773 c 13.20038,-0.31546 26.66768,-1.35887 39.72246,1.04341 5.38692,0.53384 6.26048,7.0127 6.13915,11.35621 -0.0728,32.32151 -0.0243,64.66729 -0.0485,96.98881 -0.31545,3.66408 0.38825,7.98332 -2.62066,10.74957 -3.2273,3.66408 -8.61422,2.52361 -12.9092,3.03318 -11.33194,-0.0485 -22.68815,0.36398 -33.99583,-0.24265 -5.43545,-0.21839 -7.47374,-6.30901 -6.96417,-10.9437 0,-33.14654 -0.14559,-66.31735 0.0728,-99.46389 -0.29119,-6.33327 3.51848,-12.95772 10.60398,-12.52094 z"
     id="path3142"
     style="fill:#f5e5c1" />
  <path
     d="m 566.03905,93.00929 c 4.00379,-6.62446 13.58863,-9.22085 19.89763,-4.39204 7.47375,5.14427 9.73043,14.53498 11.52607,22.88228 3.03317,19.58218 2.66919,41.03279 -8.05611,58.35829 -2.30522,3.61554 -5.8965,8.68701 -10.77384,5.92076 -0.58237,-5.8237 5.43545,-9.43924 7.20682,-14.60777 6.69725,-16.01517 6.40607,-34.45688 2.37801,-51.10294 -1.74711,-4.97441 -4.00379,-12.22977 -10.38559,-12.25403 -6.60019,1.45592 -10.07014,8.2745 -11.89005,14.19526 -5.26559,19.04834 -5.70237,40.52322 3.73687,58.35829 6.43033,12.1327 20.81972,21.30503 34.69953,16.35488 10.07014,-2.11109 15.84531,-11.18635 23.0764,-17.54388 2.30521,11.08929 -7.74067,18.07772 -16.18503,22.68815 -10.67677,5.96929 -24.58085,5.36265 -34.55393,-1.79564 -14.171,-8.92967 -19.24247,-26.25517 -21.54768,-41.90635 -2.06256,-18.75716 -0.0243,-39.23716 10.8709,-55.15526 z"
     id="path3144"
     style="fill:#f5e5c1" />
  <path
     d="m 459.70806,91.28645 c 6.35753,-2.79053 14.6563,-0.53384 18.05346,5.77516 9.70616,16.59754 10.21573,37.00474 7.30388,55.56777 -1.55298,10.96797 -6.91564,21.06237 -14.68057,28.9001 -0.92208,-1.14048 -2.79052,-3.42142 -3.7126,-4.58616 3.68834,-8.80834 10.38559,-16.40341 11.45327,-26.25517 1.8199,-13.63715 2.18388,-28.1964 -2.79052,-41.25118 -2.13536,-4.29498 -5.79943,-11.30768 -11.59887,-7.83773 -11.64739,12.05991 -13.92834,30.52588 -12.25402,46.54104 1.98976,13.27318 4.27071,28.60891 15.60265,37.36872 6.09062,4.68323 14.19526,8.25024 21.91166,5.96929 6.21194,-1.33459 12.42388,-5.41118 18.80569,-2.57213 -5.8237,6.16341 -14.12247,9.48777 -22.39697,10.72531 -11.33194,-0.43678 -22.76095,-5.50825 -29.3854,-14.99602 -13.07906,-18.02919 -15.28721,-41.71223 -11.96285,-63.18711 2.11109,-11.16208 5.7509,-23.44038 15.65119,-30.16189 z"
     id="path3146"
     style="fill:#f5e5c1" />
  <path
     d="m 513.72284,93.73725 c 4.99868,-6.40607 15.5056,-5.77516 20.31015,0.55811 7.52227,9.70616 9.43924,22.46976 10.53118,34.38407 0.38825,16.40341 -1.31033,34.31128 -11.93858,47.58446 -1.45592,2.86331 -4.58616,3.20303 -7.35241,2.28094 0.36398,-5.70237 4.85308,-10.02161 6.64872,-15.2872 6.01782,-16.08796 6.309,-33.97156 2.64492,-50.6419 -2.03829,-5.70237 -5.89649,-13.63715 -13.27317,-11.86578 -12.37536,8.80834 -13.49156,26.08531 -13.44303,40.01365 -0.7037,18.92702 8.34729,39.81953 26.27943,47.94844 8.9054,4.58616 18.19905,-0.12133 26.61914,-3.32436 1.72285,1.72284 3.3729,3.54275 4.95015,5.43545 -11.04076,8.10464 -26.52209,10.24 -38.77612,3.61554 -15.43279,-7.86199 -22.97933,-25.18749 -25.64853,-41.49384 -1.98976,-20.14028 -1.09194,-42.87696 12.44815,-59.20758 z"
     id="path3148"
     style="fill:#f5e5c1" />
  <path
     d="m 190.60474,107.22882 c 12.10844,13.15184 26.66768,23.68303 40.37763,35.03924 13.49156,-1.79564 25.45441,-9.87602 38.50919,-13.78275 -3.90673,12.42388 -7.42521,24.94483 -11.429,37.34445 9.63336,11.08929 22.73668,19.24247 30.40455,31.86048 -10.33706,2.25668 -20.96531,0.31545 -31.37517,2.20815 -5.45971,1.55298 -14.07393,-2.91185 -16.84019,3.80967 -6.43033,11.11355 -12.49668,22.51829 -20.18881,32.80682 -2.15962,-13.24891 -6.96417,-25.76986 -9.90029,-38.82464 -16.4762,-5.77517 -33.8745,-7.44948 -50.39924,-13.07906 12.22977,-8.78407 25.13896,-16.59753 37.95109,-24.53232 -0.6309,-17.83507 -7.03696,-34.86938 -7.10976,-52.85004 z"
     id="path3150"
     style="fill:#f5e5c1" />
  <path
     d="m 376.25934,138.57972 c 0.19412,-1.55299 0.58237,-4.65896 0.77649,-6.21195 13.00626,0.26692 26.03678,0.12133 39.0673,0.14559 -0.0728,2.11109 -0.14559,4.22219 -0.21839,6.33328 -13.20038,-0.1456 -26.42502,0.24265 -39.6254,-0.26692 z"
     id="path3152"
     style="fill:#f5e5c1" />
  <path
     d="m 327.7528,156.17213 c 30.33175,0.1456 60.68777,-0.0243 91.04379,0.0728 0,1.43166 0.0243,4.27071 0.0485,5.70237 -30.42882,0.16986 -60.85763,0.0243 -91.28645,0.0728 0.0485,-1.45592 0.1456,-4.39203 0.19413,-5.84796 z"
     id="path3154"
     style="fill:#f5e5c1" />
  <path
     d="m 417.70464,201.62123 c 12.13271,-2.86332 24.79925,-5.82369 34.23849,-14.60777 1.48019,2.15962 2.98464,4.34351 4.44057,6.52739 -10.33706,6.13915 -21.7418,12.32683 -34.11716,11.72019 -1.14047,-0.89782 -3.42142,-2.74199 -4.5619,-3.63981 z"
     id="path3156"
     style="fill:#f5e5c1" />
  <path
     d="m 142.92322,247.41005 c 1.14048,-2.88759 3.13024,-5.24133 5.16853,-7.49801 1.23754,9.34218 2.42654,18.78142 5.53252,27.73535 3.30009,9.31792 2.81478,19.46086 6.01782,28.80304 1.2618,5.6053 8.12891,5.07147 12.59374,5.45971 9.97308,-0.12132 19.26673,4.05232 29.14275,4.78029 7.81346,0.36398 15.19014,3.25156 22.97933,3.63981 -0.19412,0.67943 -0.58236,2.06256 -0.77649,2.74199 -17.78654,9.87602 -34.35981,21.71753 -52.07355,31.69061 1.16474,6.30901 0.70369,12.93346 2.47507,19.09688 4.29497,9.00246 5.02294,19.02407 7.10976,28.63317 1.94123,6.60019 4.02806,13.20038 5.16853,19.99469 -5.41118,-4.22218 -10.70104,-8.58995 -16.18502,-12.71507 -8.56569,-6.4546 -17.37403,-12.66654 -25.55147,-19.65497 -4.00379,-3.42143 -7.52228,-7.42522 -11.84152,-10.50692 -2.88758,-0.6309 -5.31412,1.52872 -7.74066,2.69346 -16.6218,9.75469 -33.971565,18.24758 -50.423508,28.29346 9.487773,-20.79545 18.05346,-42.02768 26.861798,-63.13858 -17.010044,-17.42256 -35.767201,-33.3892 -53.480945,-50.18086 24.605119,1.28607 49.258768,3.76114 73.621235,7.49801 6.96417,-15.86957 14.55924,-31.44796 21.40208,-47.36606 z"
     id="path3158"
     style="fill:#f5e5c1" />
  <path
     d="m 738.83299,309.14123 c 23.65876,-13.66142 49.2345,-24.92057 76.38748,-29.06995 11.04076,-1.98976 23.56171,0.41251 31.3509,8.9782 6.60019,7.06123 4.97441,20.33441 -3.95526,24.72644 -11.91431,5.67811 -25.62426,6.79432 -37.1018,13.5401 -2.25668,1.43166 -3.1545,4.07659 -4.58616,6.18768 14.46218,3.76113 28.56038,-3.61555 40.15924,-11.55034 14.19526,-9.17232 24.26541,-23.90142 40.06218,-30.74426 20.91678,-6.93991 45.40057,7.13403 49.81688,28.77877 11.79298,40.71734 13.70995,86.2635 -4.75602,125.3308 -6.3818,11.06503 -15.48133,20.35868 -25.13896,28.63318 -11.93858,8.58995 -25.86692,14.17099 -39.91659,18.17479 -28.24493,0.50957 -56.90237,1.79563 -84.75905,-3.71261 -23.29479,-3.1545 -46.66237,-10.55545 -65.27393,-25.28455 -6.01782,-5.79943 -13.97688,-12.25403 -12.98199,-21.54768 0.4853,-33.04948 -0.7765,-66.19602 0.6309,-99.1727 12.64227,-11.84152 25.98824,-23.12493 40.06218,-33.26787 z"
     id="path3160"
     style="fill:#f5e5c1" />
  <path
     d="m 642.13536,334.57137 c 13.12758,-0.31545 26.57061,-1.35886 39.57687,1.04342 5.48398,0.53384 6.309,7.10976 6.16341,11.5018 -0.14559,33.09801 0.12133,66.19602 -0.14559,99.29403 0.75222,5.19279 -2.88759,11.11355 -8.56569,10.91943 -13.58863,0.75222 -27.25005,0.60663 -40.86294,0.16986 -5.48398,-0.21839 -7.47374,-6.33327 -6.96417,-10.99223 0.0243,-33.19507 -0.16986,-66.36588 0.0728,-99.53668 -0.26692,-6.38181 3.66407,-12.88493 10.72531,-12.39963 z"
     id="path3162"
     style="fill:#f5e5c1" />
  <path
     d="m 548.85915,367.59659 c 2.76625,-11.23488 6.09061,-24.38673 16.79166,-30.69574 11.74445,-4.29497 20.84398,7.42522 22.90654,17.71375 5.09573,20.91677 5.24132,44.50275 -5.55678,63.72095 -2.5236,4.17364 -6.13915,10.36132 -11.89005,7.25535 0.29119,-6.28474 6.43033,-10.26426 8.17744,-16.13649 5.92076,-16.18503 5.7509,-34.48114 1.18901,-50.98161 -1.55299,-5.41119 -6.40607,-13.70996 -13.05479,-9.6091 -9.87602,6.86711 -10.33706,20.21308 -12.08417,30.96265 -1.45592,17.44683 1.31033,37.29592 14.48644,49.96247 6.96418,7.10976 17.90787,10.0944 27.39564,6.81857 9.90029,-2.13535 15.77252,-10.91943 22.68816,-17.47109 0.0243,3.17877 0.0485,6.3818 0.0728,9.56057 -7.25535,8.15318 -16.50047,15.55413 -27.68682,16.86446 -15.94237,2.42654 -31.39943,-8.75981 -37.61138,-22.97934 -7.59507,-17.10711 -9.29365,-36.66502 -5.82369,-54.9854 z"
     id="path3166"
     style="fill:#f5e5c1" />
  <path
     d="m 441.84872,354.32341 c 3.25156,-6.50313 8.4201,-15.06881 16.88872,-14.12246 7.10976,-0.58237 11.86578,5.79943 14.36512,11.62313 7.49801,17.49535 7.74066,37.46578 3.59128,55.83469 -1.98976,9.14805 -7.23109,17.10711 -13.58863,23.80436 -0.92208,-1.14048 -2.79052,-3.44569 -3.7126,-4.58616 4.31924,-9.56057 11.28341,-18.22332 11.93857,-29.16702 0.87356,-14.80189 2.42655,-31.93327 -7.10976,-44.45422 -2.37801,-4.3435 -8.22597,-2.66919 -10.40986,0.92209 -10.8709,15.23867 -11.93857,35.35469 -8.17744,53.18976 2.18389,9.19659 4.44057,19.26673 11.69593,25.91545 6.72151,6.3818 16.67033,10.99223 25.91545,7.74067 5.48398,-1.01915 11.21061,-5.60531 16.6218,-2.01403 -10.82237,12.81213 -31.18104,12.95772 -44.16303,3.1545 -7.20683,-6.77005 -12.30256,-15.31147 -15.94237,-24.43526 -6.13915,-20.52853 -6.28474,-43.4836 2.08682,-63.4055 z"
     id="path3168"
     style="fill:#f5e5c1" />
  <path
     d="m 506.37043,343.7437 c 4.99867,-6.4546 15.57839,-5.87223 20.4072,0.50957 7.52228,9.73043 9.41498,22.54256 10.50692,34.45687 0.36398,16.30635 -1.31033,34.09289 -11.81725,47.3418 -1.67431,2.88759 -4.82882,3.78541 -7.74066,2.06256 1.35886,-6.01782 5.72663,-10.7981 7.59507,-16.64606 5.28985,-15.62692 5.50824,-32.70977 2.01402,-48.7492 -2.01402,-5.77516 -5.89649,-13.83128 -13.37023,-12.01137 -8.61422,5.41118 -11.13782,16.25782 -12.7636,25.62426 -1.43166,15.11735 -1.4074,31.56929 6.96417,44.891 5.55677,9.31791 14.31658,17.93213 25.6,19.2182 7.03696,0.97061 13.22464,-3.17877 19.72777,-5.12 1.74711,1.72284 3.37289,3.56701 4.90161,5.50824 -11.18635,8.10465 -26.83754,10.14294 -39.11583,3.34863 -15.31147,-8.03185 -22.73668,-25.35735 -25.35735,-41.63943 -1.86843,-20.01896 -0.97061,-42.58578 12.44816,-58.79507 z"
     id="path3170"
     style="fill:#f5e5c1" />
  <path
     d="m 205.30957,402.87848 c 0.0243,-12.0599 10.60398,-22.90654 22.76095,-22.76094 28.31773,-0.43678 56.65972,0.14559 84.97744,-0.24266 8.3473,-0.0243 17.83507,-0.36398 24.36247,5.79943 6.28474,4.92588 7.54654,13.17612 9.17232,20.48 0.0106,11.7573 -1.04767,28.01306 -0.55811,73.83965 25.38162,0 50.78749,-0.31545 76.14484,0.0485 12.7636,-0.26691 23.61024,11.93858 22.32417,24.55659 -0.16986,32.53991 0.16986,65.10408 -0.19412,97.64398 -1.09195,2.23242 -2.20816,4.44057 -3.27583,6.67299 -4.58616,5.7509 -11.06503,10.50692 -18.75716,10.31279 -25.47867,0.7037 -51.00588,-0.24265 -76.50881,0.41252 -0.62092,26.78906 1.28729,53.68134 -0.43681,80.43981 -1.28607,12.01137 -12.86067,21.0381 -24.72645,20.52853 -30.0891,0.14559 -60.1782,0.14559 -90.2673,0 -13.3217,0.75223 -25.64853,-10.74958 -25.11469,-24.24114 -0.36398,-25.62427 0.0485,-51.2728 -0.0971,-76.89706 -23.0764,-0.0485 -46.1528,-0.0728 -69.22919,0.0485 -7.61934,-0.0971 -16.1365,0.0728 -22.25138,-5.24133 -7.44948,-5.7509 -9.48777,-15.69971 -9.34218,-24.62938 0.0728,-26.71621 0.0485,-53.45669 0,-80.19716 -0.14559,-8.9054 1.94123,-18.80568 9.36645,-24.53232 5.45971,-4.80455 13.03052,-5.07147 19.89763,-5.07147 23.85289,0.0971 47.70578,0.12133 71.55867,0.0243 0.19412,-25.6728 -0.36398,-51.3456 0.19412,-76.99413 l 4e-5,0 3e-5,0 z"
     id="path3176"
     style="fill:#f4722b"
     sodipodi:nodetypes="ccccccccccccccccccccccccccc" />
  <path
     d="m 369.29517,382.51981 c 12.90919,-0.0485 25.84265,-0.36398 38.75184,0.31545 0.58237,1.11621 1.77138,3.34863 2.35375,4.46483 -13.56436,2.47508 -27.37138,1.28607 -41.08133,1.38313 0,-1.55298 -0.0243,-4.63469 -0.0243,-6.16341 z"
     id="path3178"
     style="fill:#f5e5c1" />
  <path
     d="m 320.44891,406.10578 c 8.71128,0.0485 17.42256,0.0485 26.13384,0.0485 12.44815,0.0243 24.87204,0.0243 37.32019,-0.0728 9.22085,0.0243 18.41744,0.0971 27.63829,0.14559 0.0243,1.40739 0.0485,4.19791 0.0728,5.60531 -6.4546,0.0971 -12.9092,0.16985 -19.38806,0.16985 -15.43279,-0.0485 -30.88986,-0.0485 -46.32265,-0.0485 -8.49289,0 -16.98578,0.0243 -25.45441,0.0728 0,-1.48019 0,-4.44057 0,-5.92076 z"
     id="path3180"
     style="fill:#f5e5c1" />
  <path
     d="m 423.89232,447.91507 c 7.74067,-1.79564 14.46218,-6.13915 20.81972,-10.74957 1.52872,2.08682 3.05744,4.17365 4.61042,6.26047 -6.91564,3.97953 -14.0254,7.69213 -21.52341,10.45839 -5.94502,1.38313 -12.08417,1.31033 -18.05346,0.21839 4.05232,-3.39716 9.12379,-4.90161 14.14673,-6.18768 z"
     id="path3184"
     style="fill:#f5e5c1" />
  <path
     d="m 742.9581,559.05062 c 24.75072,-13.32171 51.3456,-25.26029 79.73612,-27.20152 13.24891,-0.75223 30.62294,8.68701 27.66256,24.11981 -2.69346,11.84152 -16.25782,13.22464 -25.86692,16.33062 -8.4201,3.1545 -19.58218,4.24644 -23.61024,13.56436 14.46218,3.7854 28.60891,-3.63981 40.23204,-11.55034 14.19526,-9.17232 24.24114,-23.90142 40.03791,-30.74426 20.86825,-6.91564 45.32778,7.0855 49.79261,28.6817 10.82237,37.82977 13.63716,79.61479 -1.11621,116.78939 -4.29497,13.70995 -14.7291,24.24114 -24.84777,33.92303 -10.84664,10.3128 -25.43014,14.70484 -38.82465,20.52853 -12.7636,2.62067 -25.86691,0.94635 -38.77611,1.4074 -15.40853,-0.43678 -31.03545,0.12132 -46.1528,-3.39716 -24.87203,-3.08171 -50.15658,-10.14294 -70.05421,-25.98825 -5.99356,-5.7509 -13.95261,-12.18123 -13.03052,-21.40208 0.12132,-31.66635 -0.0243,-63.3327 0.0485,-94.99905 -0.75223,-4.87735 3.83393,-7.57081 6.86711,-10.3856 12.56947,-9.94881 23.97421,-21.54767 37.90255,-29.67658 z"
     id="path3186"
     style="fill:#f5e5c1" />
  <path
     d="m 641.94123,586.95583 c 13.22465,-0.33972 26.71621,-1.40739 39.79526,1.01915 5.38692,0.4853 6.26048,7.03696 6.13915,11.38047 -0.0728,32.29725 0,64.61877 -0.0485,96.94029 -0.33972,3.63981 0.41251,7.95905 -2.5964,10.74957 -3.20303,3.66407 -8.58995,2.54787 -12.90919,3.05744 -11.33195,-0.0485 -22.68816,0.36398 -33.99583,-0.24266 -5.50825,-0.21838 -7.49801,-6.33327 -6.98844,-10.99222 0.0243,-33.14654 -0.14559,-66.31735 0.0728,-99.46389 -0.26692,-6.309 3.51848,-12.88493 10.53118,-12.44815 z"
     id="path3188"
     style="fill:#f5e5c1" />
  <path
     d="m 555.16815,601.05403 c 3.32436,-6.60019 9.19659,-14.0982 17.59242,-12.42389 10.62825,1.62578 14.92322,13.41877 16.91298,22.66389 3.56702,19.72777 3.59128,41.44531 -6.62445,59.32891 -2.54787,4.14938 -5.99355,10.33706 -11.76872,7.42521 -0.72796,-3.42142 2.01403,-5.84796 3.61554,-8.46862 9.36645,-13.22465 9.43925,-30.40455 8.27451,-45.93441 -1.28607,-7.93479 -2.37801,-17.42256 -9.12379,-22.73668 -6.62446,-2.96038 -11.93858,4.56189 -14.14673,9.90028 -6.43034,18.78142 -7.13403,40.23204 0.84928,58.67374 5.8237,13.27318 20.40721,24.4838 35.45176,19.82484 10.48265,-2.01403 16.6218,-11.11356 23.92569,-17.90787 2.47507,11.21062 -7.83773,18.24758 -16.33062,22.85801 -10.11867,5.50825 -23.10066,5.38692 -32.85536,-0.92208 -10.55545,-5.99356 -16.91298,-17.08285 -20.04322,-28.51185 -5.87223,-20.86825 -5.24133,-44.06597 4.27071,-63.76948 z"
     id="path3190"
     style="fill:#f5e5c1" />
  <path
     d="m 448.90995,595.109 c 5.28986,-2.28094 11.93858,-4.17365 17.08285,-0.53383 4.9744,3.93099 7.32815,10.07014 10.11867,15.55412 5.21706,24.60512 6.21194,54.64569 -13.03052,73.71829 -6.93991,-4.31924 -0.6309,-10.28853 1.8927,-15.16587 7.95905,-12.9092 7.59507,-28.80304 6.3818,-43.38654 -0.82502,-7.61934 -2.88758,-15.60266 -8.42009,-21.20797 -5.41119,-3.7126 -9.65763,2.71773 -12.03564,6.84285 -9.73043,18.10199 -8.58996,39.98938 -2.54787,59.08625 3.0817,12.61801 14.07393,22.93081 27.05592,24.45953 8.20171,0.77649 15.40853,-5.77517 23.58597,-4.17365 -0.21838,0.94635 -0.6309,2.86332 -0.84929,3.83393 -8.71127,5.28986 -19.33952,10.19147 -29.57952,6.23621 -11.91431,-2.64493 -20.72266,-12.42388 -25.6728,-23.14919 -7.91052,-16.37915 -8.22597,-34.86939 -6.57592,-52.63166 1.2618,-5.31412 2.69346,-10.57972 4.70749,-15.67545 1.06767,-2.23242 2.18388,-4.44057 3.27583,-6.67299 1.48019,-2.40227 3.05744,-4.75602 4.61042,-7.13403 z"
     id="path3192"
     style="fill:#f5e5c1" />
  <path
     d="m 506.29763,596.20095 c 5.0472,-6.62446 15.79678,-5.96929 20.62559,0.5581 7.7892,10.45839 9.70616,24.07128 10.45839,36.73782 -0.0243,16.54901 -2.13535,35.03924 -14.26806,47.4146 -2.93611,2.03829 -7.13402,-1.31033 -4.24644,-4.12512 11.59886,-18.15052 12.88493,-41.08133 8.46862,-61.70692 -2.01402,-5.70237 -5.79943,-13.75848 -13.17611,-12.03564 -8.85687,5.21706 -11.28341,16.35488 -12.95772,25.69706 -1.3346,14.58351 -1.45593,30.35602 6.13914,43.41081 5.58105,9.99734 14.70484,19.41232 26.66768,20.67412 6.96417,0.87356 13.07905,-3.2273 19.50938,-5.16853 1.69858,1.79564 3.32436,3.63981 4.85308,5.60531 -11.13782,7.91052 -26.52208,10.07014 -38.75184,3.44569 -15.52986,-7.93479 -23.0764,-25.43015 -25.69707,-41.85782 -1.86843,-19.9947 -0.94635,-42.44019 12.37536,-58.64948 z"
     id="path3194"
     style="fill:#f5e5c1" />
  <path
     d="m 368.83412,634.85573 c 13.22465,-0.097 26.42503,-0.0243 39.64967,-0.0728 0.21839,1.4074 0.60664,4.24645 0.82503,5.65384 -13.15185,1.01915 -26.42503,1.14048 -39.57688,0.19413 -0.21839,-1.45593 -0.67943,-4.34351 -0.89782,-5.77517 z"
     id="path3198"
     style="fill:#f5e5c1" />
  <path
     d="m 320.44891,658.49024 c 8.49289,0 16.96152,0.0243 25.45441,0.0243 21.83886,0 43.70199,0 65.54085,0 0.0485,1.43166 0.14559,4.27071 0.16986,5.70237 -21.91166,0.21839 -43.82332,0.0485 -65.73498,0.0971 -8.54142,0.0243 -17.08284,0 -25.62426,-0.0243 0.0485,-1.43166 0.14559,-4.34351 0.19412,-5.79943 z"
     id="path3200"
     style="fill:#f5e5c1" />
  <path
     d="m 421.78123,700.8819 c 8.56569,-1.77138 16.30635,-5.99356 22.95507,-11.6474 1.79564,1.94124 3.03318,4.17365 3.71261,6.69725 -10.24,7.10977 -22.54256,12.08417 -35.1363,11.96285 -0.48531,-1.06768 -1.43166,-3.2273 -1.91697,-4.29498 3.46995,-0.89782 6.93991,-1.74711 10.38559,-2.71772 z"
     id="path3202"
     style="fill:#f5e5c1" />
  <path
     d="m 234.30673,758.85194 c 6.86711,-5.55677 13.97687,-10.7981 21.35355,-15.65118 -1.23753,5.96929 -2.57213,11.89005 -3.93099,17.83507 -2.91185,11.81725 -4.92588,23.85289 -8.29877,35.54881 18.75716,8.12891 35.1363,20.48 53.74787,28.85157 -19.53365,2.49934 -38.9945,5.58104 -58.57668,7.78919 -4.92588,19.72778 -7.74067,39.89233 -10.72531,59.95981 -13.58863,-16.45194 -20.23735,-37.68417 -29.16702,-56.9509 -23.36758,-0.89782 -46.90502,3.3001 -70.4182,2.28095 16.18503,-11.96284 32.32152,-24.07128 47.65726,-37.1018 -8.9782,-18.6601 -16.6946,-37.97536 -29.16702,-54.69422 12.25403,4.99867 24.48379,10.36133 35.98559,16.98578 8.22598,5.8237 17.44683,9.92455 26.44929,14.34086 8.56569,-6.11488 16.81593,-12.66654 25.09043,-19.19394 z"
     id="path3204"
     style="fill:#f5e5c1" />
  <path
     d="m 742.42427,805.85403 c 24.02274,-13.5401 49.88966,-25.01763 77.47943,-28.60891 10.33706,-1.52872 21.71753,1.3346 28.97289,9.09952 5.79943,6.18768 5.50824,17.08285 -0.80076,22.80948 -13.34597,10.11868 -35.23337,6.40607 -44.8182,21.62048 14.41365,4.12512 28.58464,-3.49422 40.20777,-11.33195 14.24379,-9.17232 24.28967,-23.99848 40.13498,-30.79279 15.09308,-4.4891 32.66123,0.5581 42.31886,13.27317 7.86199,9.29365 8.44436,21.83887 11.76872,33.02522 5.89649,24.38673 5.65384,49.84113 2.06256,74.54331 -4.56189,17.9564 -9.80322,36.85915 -23.75583,50.011 -13.27317,15.9181 -32.87962,24.48379 -52.34047,30.04057 -21.76607,0.97061 -43.6292,0.46104 -65.39526,-0.58237 -21.37782,-3.61555 -43.60493,-5.55678 -63.28417,-15.4328 -13.56436,-6.40606 -28.34199,-15.06881 -34.11716,-29.53099 -0.65517,-31.56929 0.0243,-63.16285 -0.33972,-94.7564 0.26692,-4.19792 -0.89782,-9.51204 3.3001,-12.18123 12.71507,-10.55545 24.82351,-21.98446 38.60626,-31.20531 z"
     id="path3206"
     style="fill:#f5e5c1" />
  <path
     d="m 644.34351,832.0364 c 11.21061,-0.65517 22.49403,-0.53384 33.70464,-0.0243 4.05232,0.72796 9.80322,0.43678 11.28341,5.28986 1.35887,3.83393 0.82503,7.98332 1.01915,11.98711 -0.26692,31.52076 0.12133,63.06578 -0.19412,94.58654 0.75223,5.21706 -2.91185,11.01649 -8.54142,10.91943 -13.6129,0.7037 -27.27432,0.58237 -40.86294,0.16986 -5.53251,-0.26692 -7.49801,-6.33327 -6.98844,-11.01649 0.0243,-33.09801 -0.14559,-66.22029 0.0728,-99.3183 -0.29119,-6.33327 3.44568,-13.03052 10.50692,-12.59374 z"
     id="path3208"
     style="fill:#f5e5c1" />
  <path
     d="m 551.23716,865.13441 c 2.79052,-11.28341 6.11488,-24.48379 16.88872,-30.81706 10.1672,-3.78541 19.29099,5.16853 21.79033,14.41365 6.69725,21.71753 6.74578,46.6381 -4.4163,66.92398 -2.54787,4.17365 -5.94503,10.26426 -11.76873,7.59507 -0.75222,-3.44569 1.89271,-5.92076 3.51849,-8.54142 9.02673,-12.47242 9.36644,-28.70598 8.56569,-43.48361 -0.94636,-8.54142 -2.15963,-17.98066 -8.25024,-24.55658 -6.67299,-4.61043 -13.10332,3.54274 -15.23867,9.24511 -6.43034,18.82996 -7.13403,40.30484 0.89782,58.77081 5.84796,13.17611 20.28587,24.2654 35.23336,19.75204 10.43412,-2.01403 16.76739,-10.89517 23.85289,-17.85934 0.0243,3.17877 0.0485,6.3818 0.0728,9.58484 -7.25536,8.15317 -16.52474,15.55412 -27.71109,16.84019 -15.91811,2.40227 -31.32664,-8.73555 -37.53858,-22.90654 -7.6436,-17.10711 -9.29365,-36.64076 -5.89649,-54.96114 z"
     id="path3210"
     style="fill:#f5e5c1" />
  <path
     d="m 445.94957,848.48834 c 3.3001,-5.28986 8.03185,-11.89005 15.14161,-10.84663 11.33195,-0.21839 15.33574,12.73933 17.9564,21.62047 5.09574,23.34332 4.53763,51.7581 -13.54009,69.66597 -0.87356,-1.11621 -2.64493,-3.34862 -3.51849,-4.46483 2.76626,-8.37157 9.58484,-15.16588 10.79811,-24.24114 2.57213,-14.29232 2.76625,-29.72512 -2.32948,-43.4836 -1.8927,-5.21706 -8.05611,-12.49668 -13.22464,-6.21194 -14.21953,18.27184 -13.07906,43.96891 -6.33327,65.00701 3.17876,12.44815 14.17099,22.56682 27.03165,24.04701 8.20171,0.72797 15.4328,-5.92075 23.56171,-4.10085 0.14559,5.87223 -7.35242,6.67299 -11.30768,8.95393 -9.90028,4.87735 -21.64474,1.62579 -30.47734,-4.02805 -13.37024,-9.82749 -19.04834,-26.76474 -21.30503,-42.56152 -1.35886,-16.67033 -0.4853,-34.33554 7.54654,-49.35583 z"
     id="path3212"
     style="fill:#f5e5c1" />
  <path
     d="m 504.74464,846.71697 c 3.27583,-6.09062 9.63337,-12.03564 17.15564,-9.77896 11.30768,3.83393 14.07394,17.37403 16.35489,27.63829 3.17876,20.26161 2.18388,43.70199 -11.45327,60.1782 -1.38313,3.10597 -8.17745,1.79564 -6.04209,-1.77137 12.05991,-18.87849 13.87981,-42.8527 8.56569,-64.20626 -1.98977,-5.89649 -7.95905,-14.41365 -14.77763,-9.34218 -11.04076,10.21574 -11.81725,26.88607 -11.5018,41.00853 -0.16986,18.19905 9.12379,37.90256 26.27943,45.66749 8.9782,4.4163 18.66009,0.21839 26.8618,-3.88246 1.65005,1.77137 2.91185,3.7854 3.83393,6.04208 -11.96284,10.02161 -30.67147,9.75469 -42.97403,0.46104 -12.20549,-8.9054 -18.17478,-23.87715 -20.62559,-38.33933 -1.79564,-18.10199 -1.21327,-37.61138 8.32303,-53.67507 z"
     id="path3214"
     style="fill:#f5e5c1" />
  <path
     d="m 372.18275,880.17896 c 12.98199,-0.80076 26.03678,-0.0243 39.0673,-0.29119 -0.0728,2.08683 -0.1456,4.22218 -0.21839,6.35754 -13.24891,-0.0971 -26.49782,0 -39.72247,-0.0728 0.21839,-1.50445 0.65517,-4.4891 0.87356,-5.99355 z"
     id="path3216"
     style="fill:#f5e5c1" />
  <path
     d="m 322.85118,903.54654 c 30.35602,0.12133 60.73631,0 91.09233,0.0728 0,1.43166 0.0243,4.27071 0.0485,5.70237 -30.42882,0.16985 -60.85763,0.0243 -91.26218,0.0728 0.0243,-1.45592 0.0971,-4.39204 0.12132,-5.84796 z"
     id="path3218"
     style="fill:#f5e5c1" />
  <path
     d="m 412.94863,948.99564 c 12.10843,-2.91185 24.75071,-5.84796 34.16568,-14.60777 1.45593,2.15962 2.93612,4.36777 4.39204,6.57592 -9.02673,5.43545 -18.70862,10.40986 -29.31261,11.69593 -3.68834,0.92208 -7.10976,-0.65517 -9.24511,-3.66408 z"
     id="path3220"
     style="fill:#f5e5c1" />
</svg>
