<?xml version="1.0" encoding="UTF-8" standalone="no"?>
<svg
   xmlns:dc="http://purl.org/dc/elements/1.1/"
   xmlns:cc="http://creativecommons.org/ns#"
   xmlns:rdf="http://www.w3.org/1999/02/22-rdf-syntax-ns#"
   xmlns:svg="http://www.w3.org/2000/svg"
   xmlns="http://www.w3.org/2000/svg"
   xmlns:sodipodi="http://sodipodi.sourceforge.net/DTD/sodipodi-0.dtd"
   xmlns:inkscape="http://www.inkscape.org/namespaces/inkscape"
   width="1280"
   height="1280"
   viewBox="0 0 1024 1024"
   version="1.1"
   id="svg2"
   inkscape:version="0.48.1 "
   sodipodi:docname="assist_scout.svg">
  <metadata
     id="metadata76">
    <rdf:RDF>
      <cc:Work
         rdf:about="">
        <dc:format>image/svg+xml</dc:format>
        <dc:type
           rdf:resource="http://purl.org/dc/dcmitype/StillImage" />
      </cc:Work>
    </rdf:RDF>
  </metadata>
  <defs
     id="defs74" />
  <sodipodi:namedview
     pagecolor="#ffffff"
     bordercolor="#666666"
     borderopacity="1"
     objecttolerance="10"
     gridtolerance="10"
     guidetolerance="10"
     inkscape:pageopacity="0"
     inkscape:pageshadow="2"
     inkscape:window-width="1920"
     inkscape:window-height="1018"
     id="namedview72"
     showgrid="false"
     inkscape:zoom="0.6609375"
     inkscape:cx="466.00473"
     inkscape:cy="640"
     inkscape:window-x="-8"
     inkscape:window-y="-8"
     inkscape:window-maximized="1"
     inkscape:current-layer="layer2"
     inkscape:snap-page="true" />
  <g
     inkscape:groupmode="layer"
     id="layer2"
     inkscape:label="background">
    <rect
       style="fill:#3e3e3e;fill-opacity:1;fill-rule:nonzero;stroke:none"
       id="rect3010"
       width="1280"
       height="1280"
       x="0"
       y="0"
       transform="scale(0.8,0.8)" />
  </g>
  <g
     inkscape:groupmode="layer"
     id="layer1"
     inkscape:label="foreground">
    <path
       style="fill:#f5e5c1"
       d="M 114.28125 162.125 C 104.19225 162.22006 94.185367 164.89043 85.4375 170.59375 C 76.034656 175.11317 73.998162 186.09807 73.9375 195.53125 C 84.068306 206.29901 100.37921 206.58371 113.9375 204.1875 C 126.7375 199.27376 140.05657 190.50631 154.3125 194.84375 C 165.65657 197.7556 166.64855 214.00915 178.78125 215.34375 C 178.38694 204.24232 171.12609 195.14362 164.96875 186.46875 C 153.12514 171.12183 133.54207 161.94352 114.28125 162.125 z M 103.84375 168.0625 C 107.10157 167.94117 110.38158 168.25412 113.4375 168.90625 C 113.71049 170.08919 114.29043 172.44115 114.59375 173.59375 C 107.46579 174.5037 100.36037 176.60273 97.8125 184.125 C 92.534775 184.00362 87.309892 183.7059 82.0625 183.28125 C 84.542121 172.6803 94.07029 168.42648 103.84375 168.0625 z "
       id="path6"
       transform="scale(0.8,0.8)" />
    <path
       d="m 586.81024,137.92455 c 15.19014,-3.73687 30.67147,-7.03697 46.39545,-7.35242 22.68815,2.25669 45.61895,3.8582 67.70047,10.02161 18.78142,5.28986 38.14521,9.19659 55.90749,17.54389 17.22844,7.93479 34.62673,15.65119 51.78237,23.73156 21.57194,15.84531 44.45422,29.79792 66.39014,45.08512 0.21839,4.46484 0.75223,9.00247 -0.16986,13.41877 -5.53251,26.59488 -11.13782,53.1655 -15.94237,79.88171 -1.21327,5.65384 0.26692,12.6908 -4.56189,16.91298 -18.78142,13.95261 -37.70844,28.48759 -51.46692,47.70578 -2.81479,-1.96549 -5.60531,-3.90673 -8.4201,-5.87222 2.30522,-6.18768 5.14427,-12.15697 8.32304,-17.9564 -21.52342,-15.45706 -43.92038,-29.70085 -66.0747,-44.21157 -23.85289,-12.71507 -47.80284,-25.30881 -71.84985,-37.63563 -20.94105,-5.70237 -41.17839,-15.48133 -63.25991,-15.65119 -20.89251,0.58237 -41.78502,0.14559 -62.67753,0.26692 -14.8747,0.33972 -30.0891,-1.52872 -44.50275,3.08171 -3.51849,-7.59508 -3.03318,-16.1365 -4.87735,-24.11981 -3.95526,-24.4838 -9.00246,-48.77346 -12.8364,-73.25726 3.32436,-2.71772 7.0127,-5.12 11.30768,-5.96928 32.92815,-8.58996 65.78351,-17.49536 98.83299,-25.62427 z"
       id="path8"
       style="fill:#f5e5c1" />
    <path
       d="m 577.10408,153.16322 c 3.68834,-9.09952 14.43791,-6.309 22.10578,-6.72151 7.7164,0.75222 18.19905,-2.69346 22.95507,5.53251 1.50445,9.58483 0.36398,19.38805 0.84929,29.06995 8.85687,0.0728 17.71374,0.14559 26.59488,-0.0971 4.58616,3.88246 7.69213,9.14806 6.81858,15.36 -0.7765,10.09441 3.66407,24.19261 -7.35242,30.13763 -8.68701,1.28607 -17.51962,0.16986 -26.25517,0.53384 -1.69857,9.94881 3.8582,22.90654 -4.4163,30.59867 -9.99734,2.76626 -20.69839,1.40739 -30.96265,1.31033 -5.41119,0.65517 -10.70105,-3.7854 -10.91943,-9.22085 -0.50958,-7.52228 -0.0485,-15.06882 0,-22.59109 -10.45839,-1.50446 -24.70218,4.17365 -31.95754,-5.99355 -0.92208,-10.60399 -0.65517,-21.28076 -0.14559,-31.88474 -0.38825,-3.8582 3.59128,-5.77517 5.55678,-8.51716 8.80834,0.26692 17.64094,0.21839 26.47355,0.31545 0.26692,-9.29365 -0.5581,-18.61156 0.65517,-27.83242 z"
       id="path12"
       style="fill:#f4722b" />
    <path
       d="m 143.89384,196.57403 c 5.70237,1.74711 7.7164,7.83772 11.13782,12.10843 5.43545,8.25024 13.29744,15.02029 16.76739,24.45953 30.28322,78.95962 60.1054,158.0891 90.38863,237.07299 0.87355,2.64493 1.33459,5.41118 1.86843,8.17744 -4.90161,1.62578 -9.82748,3.2273 -14.82616,4.4891 C 213.99659,387.49422 179.63678,291.7672 143.89384,196.57403 z"
       id="path14"
       style="fill:#f5e5c1" />
    <path
       d="m 494.35905,275.2182 c 11.79299,-4.70749 24.72645,-4.87735 37.2474,-4.53763 15.26293,-0.0485 30.52587,0.38825 45.81308,0.14559 21.81459,-0.7037 42.97402,5.55678 63.91507,10.82237 26.1581,6.77005 49.04038,21.62047 73.45137,32.66123 26.13384,15.91811 51.92796,32.41858 78.45005,47.73005 -1.72284,3.44569 -2.23242,9.09953 -6.74578,9.85175 -30.28323,-4.95014 -60.49365,-10.43412 -90.84967,-14.97175 -9.90029,-1.11621 -18.24758,-6.96417 -26.8618,-11.47754 -25.93972,-17.76227 -52.21915,-35.01497 -78.18313,-52.72872 -8.22597,-5.89649 -18.5873,-8.29876 -28.56038,-6.64872 -33.97156,3.66408 -69.66597,0.36399 -101.79336,14.04967 -32.17593,12.2055 -64.23053,24.67792 -96.38218,37.00474 -9.09953,2.98465 -16.88872,10.02161 -27.03166,9.14806 -2.71773,-2.01403 -5.43545,-4.00379 -8.15318,-5.99356 -0.14559,-1.189 -0.38824,-3.54274 -0.53384,-4.70748 11.11356,-7.01271 24.24114,-9.14806 36.22825,-14.14673 42.94976,-16.50048 86.99147,-29.87071 129.98976,-46.20133 z"
       id="path16"
       style="fill:#f5e5c1" />
    <path
       style="fill:#f5e5c1"
       d="M 729.71875 387.65625 C 721.88952 387.64103 714.3993 390.746 706.75 391.96875 C 687.79265 394.51661 670.73013 405.41134 658.71875 420.03125 C 679.28369 423.03409 698.79939 435.82574 707.65625 454.84375 C 712.29701 474.74139 717.63434 495.40014 712.78125 515.84375 C 710.87035 530.34233 701.78704 542.4859 692.6875 553.375 C 678.67424 563.99111 660.06019 557.94126 644.5 554.96875 C 643.13508 566.94979 638.4872 578.1982 636 589.90625 C 634.21042 616.74986 624.2931 643.04057 627.78125 670.1875 C 629.75281 685.23205 627.88134 700.63836 631.1875 715.53125 C 634.37234 734.88291 646.76534 750.5896 656.5625 766.96875 C 681.37387 803.54884 705.32467 840.74526 729.46875 877.75 C 734.83746 882.57275 743.23235 880.25549 749.875 881.46875 C 761.79537 870.85264 768.93354 856.32111 779.125 844.21875 C 801.6615 846.03865 825.09956 840.75255 846.96875 848.0625 C 848.78866 852.79426 850.58267 857.58351 852.28125 862.40625 C 863.74666 869.01857 877.56585 867.11321 889.03125 861.5625 C 901.89191 854.91985 915.20101 847.88818 924.9375 836.96875 C 949.74887 791.71376 979.54801 749.40845 1005.9062 705.09375 C 1011.2143 687.653 1018.2785 670.28638 1019.2188 651.875 C 1002.0205 638.25604 976.9708 630.18723 969.8125 607.46875 C 964.95943 587.02515 969.17818 565.83054 974.03125 545.78125 C 977.91371 527.12723 988.57879 511.06021 997.375 494.46875 C 988.2148 488.55405 979.53244 481.9202 970.28125 476.1875 C 962.213 471.24343 952.47727 471.22891 943.46875 469.5 C 924.54173 467.19479 905.80845 463.60764 887.09375 459.9375 C 886.88142 461.39342 886.43015 464.32441 886.1875 465.75 C 901.08039 477.9737 912.26749 495.66304 911.8125 515.5 C 911.63051 534.88199 908.93525 558.13661 891.3125 569.875 C 868.867 585.07121 840.11383 600.89742 812.90625 588.21875 C 799.5906 580.0595 788.0764 566.93978 784.40625 551.53125 C 782.2527 530.663 784.5641 508.72759 792.875 489.40625 C 800.94325 470.57024 820.74046 461.93611 832.8125 446.40625 C 812.33856 430.2091 788.8949 418.37544 767.875 402.90625 C 757.19822 394.838 744.23382 390.56901 731.3125 387.6875 C 730.78738 387.65717 730.2407 387.65726 729.71875 387.65625 z M 738.125 559.40625 C 742.65699 559.27484 744.90625 561.7934 744.90625 566.96875 C 718.8816 573.88439 694.54268 589.83205 680.46875 613.1875 C 707.03936 611.12495 732.89576 626.22086 745.96875 649 C 748.24362 654.79337 753.05901 662.80593 746.75 667.75 C 740.441 676.57655 728.25026 673.5101 718.96875 673.84375 C 700.28439 671.0229 683.01045 660.0335 670.96875 645.65625 C 661.6569 634.9188 665.33804 619.2641 672.375 608.375 C 685.266 583.10865 710.82921 567.53699 737.1875 559.46875 C 737.50977 559.43652 737.82287 559.41501 738.125 559.40625 z M 922.375 659.21875 C 919.7968 680.87561 908.45975 699.87072 901.96875 720.375 C 897.50999 735.17689 887.3393 747.24957 882.03125 761.6875 C 876.96585 774.76049 870.76862 787.49233 862.09375 798.59375 C 848.68711 801.47526 835.65021 805.99351 822.03125 807.84375 C 794.45969 811.05891 766.7609 813.17086 739.25 816.75 C 718.83672 800.00688 700.51881 780.14861 685.65625 758.21875 C 676.04109 744.78179 665.49553 731.4444 661.21875 715.15625 C 682.54197 714.42829 703.9277 714.73806 725.28125 714.34375 C 750.30495 710.7646 775.74195 709.02134 800.25 702.5 C 825.81967 695.97868 851.88441 690.53525 875.9375 679.3125 C 891.77068 673.4888 906.96648 666.10405 922.375 659.21875 z "
       id="path18"
       transform="scale(0.8,0.8)" />
    <path
       style="fill:#f5e5c1"
       d="M 1097.4062 428.875 C 1092.4499 428.91765 1087.5668 431.65734 1083.0625 433.5 C 1069.7772 439.99099 1056.5022 446.97951 1045.2188 456.625 C 1033.1467 467.96909 1022.6942 481.06392 1014.6562 495.5625 C 1009.1662 505.54165 1001.6692 514.4234 997.96875 525.3125 C 990.87113 545.30113 981.38866 566.25123 985.96875 587.96875 C 986.09009 603.7716 997.00059 616.38851 1008.375 626.125 C 1031.2148 643.62642 1052.3118 663.99503 1078.0938 677.25 C 1114.7345 690.8993 1154.0277 672.44929 1179.7188 646 C 1213.0837 611.17915 1232.6501 560.63649 1222.125 512.5 C 1216.726 491.90474 1203.1293 472.36144 1182.625 464.6875 C 1174.7994 461.98798 1167.0205 457.12127 1158.4062 459.0625 C 1116.7304 462.61131 1081.2579 491.692 1060.875 526.9375 C 1043.4646 556.54129 1032.7451 593.06061 1041.875 627.0625 C 1036.6883 625.72791 1030.0479 624.89721 1027.5 619.4375 C 1024.9218 606.09152 1028.1847 592.7329 1031.1875 579.78125 C 1035.5249 551.29972 1050.3231 525.6606 1066.1562 502.0625 C 1088.3288 478.73737 1114.7307 455.67658 1148.1562 452.21875 C 1148.3079 451.27846 1148.5661 449.40904 1148.6875 448.46875 C 1132.6723 443.79766 1117.9352 435.75936 1102.375 429.875 C 1100.7219 429.15462 1099.0584 428.86078 1097.4062 428.875 z M 1162.9688 547.0625 C 1165.9276 547.03255 1168.9187 547.28377 1171.7812 547.625 C 1177.4533 555.69325 1177.1554 566.41886 1173 575.09375 C 1166.327 589.65299 1157.982 604.32969 1145 614.1875 C 1136.9924 620.49651 1125.4331 619.35957 1118.0625 612.65625 C 1114.544 589.27048 1129.9941 569.17967 1145.2812 553.4375 C 1150.0775 548.57873 1156.4593 547.1284 1162.9688 547.0625 z "
       id="path20"
       transform="scale(0.8,0.8)" />
    <path
       d="m 354.469,354.20209 c 6.47887,-10.84664 18.80569,-4.44057 27.73536,-1.11621 35.57308,11.429 71.0491,23.14919 106.71924,34.23848 1.11621,3.56701 2.18389,7.15829 3.17877,10.77384 C 446.28929,383.3691 400.47621,368.42161 354.469,354.20209 z"
       id="path22"
       style="fill:#f5e5c1" />
    <path
       style="fill:#f5e5c1"
       d="M 661.21875 434.78125 C 659.60406 434.74719 657.9665 434.86247 656.34375 435.09375 C 638.96366 443.52598 631.17009 463.55279 629.5625 481.8125 C 627.43927 498.34331 633.17265 514.40856 637.84375 529.96875 C 646.09399 540.5242 659.88012 548.04321 673.46875 547.40625 C 691.03084 541.9162 702.48063 524.2505 704.9375 506.71875 C 704.54319 487.33676 703.81198 465.59786 690.375 450.25 C 683.36837 441.49171 672.52159 435.0197 661.21875 434.78125 z M 662.75 456.5 C 672.80835 456.56511 680.52577 466.41081 683.3125 475.59375 C 684.28311 484.08664 681.762 492.46851 680.09375 500.71875 C 678.6075 507.57372 674.27595 514.47697 666.875 515.78125 C 655.47026 519.45139 646.92381 506.96992 643.375 497.71875 C 638.7949 483.58415 642.75139 462.28048 658.28125 457.09375 C 659.80542 456.6729 661.31309 456.4907 662.75 456.5 z "
       id="path24"
       transform="scale(0.8,0.8)" />
    <path
       style="fill:#f5e5c1"
       d="M 852.0625 459.59375 C 845.54354 459.48143 839.02843 461.00337 833 463.4375 C 802.06161 476.84414 791.9925 515.24544 796.90625 546.0625 C 798.99914 564.53454 816.70906 577.08815 833.9375 580 C 852.86451 580.30332 872.84529 571.50599 883.21875 555.1875 C 894.56282 541.84154 894.56254 522.8433 893.53125 506.3125 C 891.92368 485.80824 878.15681 466.89357 858.5625 460.28125 C 856.40895 459.85661 854.23549 459.63119 852.0625 459.59375 z M 850.96875 474.34375 C 852.10471 474.32752 853.20918 474.36638 854.3125 474.46875 C 859.77221 477.59291 864.67366 482.50258 866.28125 488.78125 C 872.10494 509.83149 862.83883 535.52089 842.03125 544.46875 C 834.054 547.62325 826.75294 542.61317 820.65625 538.09375 C 814.55956 520.07669 820.18538 500.00411 830.4375 484.65625 C 834.57779 477.56999 843.01703 474.45737 850.96875 474.34375 z "
       id="path28"
       transform="scale(0.8,0.8)" />
    <path
       d="m 920.02275,449.371 c 2.88758,-2.76626 7.06123,-2.23242 10.72531,-2.69346 0.0728,11.28341 -5.87223,21.32928 -11.89005,30.42881 -4.19792,5.09574 -9.73043,12.1327 -17.20417,9.46351 -1.04341,-14.41365 6.91564,-28.73024 18.36891,-37.19886 z"
       id="path34"
       style="fill:#f5e5c1" />
    <path
       d="m 251.34104,492.32076 c 8.29877,-2.11109 16.47621,-10.84664 25.13896,-6.60019 10.60398,11.5746 21.06237,23.39185 30.69573,35.81573 -16.35488,6.4546 -33.38919,11.0165 -50.54483,14.70484 -1.8199,-14.63204 -6.4546,-29.04569 -5.28986,-43.92038 z"
       id="path38"
       style="fill:#f5e5c1" />
    <path
       d="m 544.29725,504.40493 c 4.92588,-2.49934 10.36133,-5.92076 15.94237,-2.96038 11.67166,5.6781 25.6728,13.24891 27.34711,27.61403 -10.40986,4.90161 -21.71754,-0.94635 -30.6472,-6.35754 -6.72152,-3.97952 -10.79811,-10.89516 -12.64228,-18.29611 z"
       id="path40"
       style="fill:#f5e5c1" />
    <path
       style="fill:#f5e5c1"
       d="M 419.75 655.0625 C 413.86564 656.18477 408.08013 657.75086 402.46875 659.84375 C 367.79955 672.4921 332.63794 683.66416 297.96875 696.3125 C 299.60666 711.38739 309.48697 723.75696 315.25 737.40625 C 317.00925 736.46596 320.49076 734.53311 322.25 733.5625 C 344.08886 783.4279 362.83854 834.67045 384.34375 884.6875 C 365.41674 871.73585 340.8545 866.33623 318.5 872.28125 C 289.86681 878.80258 266.44423 901.51116 256.34375 928.71875 C 244.08973 960.35476 249.16391 998.21983 270.0625 1025.0938 C 277.52411 1035.8615 289.13116 1042.6578 298.625 1050.9688 C 296.77476 1059.7043 291.229 1067.2553 286.40625 1074.6562 C 294.92948 1083.4828 304.64586 1090.9952 314.625 1098.0625 C 310.16624 1109.6492 302.43394 1119.6035 298.1875 1131.2812 C 315.77991 1144.9609 334.24116 1157.5236 353.5625 1168.625 C 365.96819 1177.0269 379.53544 1183.9208 394.125 1187.5 C 408.53259 1190.5332 422.08886 1182.4038 432.25 1173.0312 C 450.44905 1171.6967 460.6279 1151.0703 455.5625 1134.8125 C 451.58904 1125.9253 443.77595 1119.6647 436.375 1113.75 C 425.54656 1105.7728 415.19704 1097.0673 403.125 1091.0312 C 421.35439 1090.1516 439.563 1085.8965 454.03125 1074.2188 C 430.12982 1029.3277 406.24794 984.42041 382.4375 939.46875 C 372.82234 938.49814 363.17584 935.20951 353.5 936.96875 C 343.85451 939.75928 332.07636 943.95832 329.4375 954.96875 C 328.1029 965.79719 327.60741 977.4032 332.1875 987.625 C 339.37613 1005.1264 348.85545 1021.54 357.5 1038.3438 C 344.24502 1045.4414 331.87448 1035.8952 318.4375 1035.5312 C 307.82139 1035.3796 299.29986 1028.1445 291.65625 1021.5625 C 269.90839 1000.7246 261.46845 966.79401 271.78125 938.3125 C 279.00021 915.23004 297.96073 896.15276 321.4375 889.84375 C 343.67068 882.59446 368.68886 891.09881 385.25 906.75 C 398.11066 918.57939 404.75264 935.34604 408.96875 951.9375 C 411.39529 963.5849 418.95117 973.18442 422.5 984.4375 C 424.01659 974.79201 426.49812 965.23374 426.4375 955.40625 C 450.33892 947.09535 474.09215 938.29254 497.78125 929.375 C 499.41916 933.62145 501.08175 937.84731 502.75 942.09375 C 508.11873 939.2729 513.65148 936.6572 519.6875 935.65625 C 520.23346 929.31691 521.42097 922.93125 520.875 916.53125 C 517.90249 910.58623 513.69401 905.38069 510.8125 899.375 C 501.7433 880.62998 502.61276 857.7303 512.53125 839.53125 C 522.11608 820.33125 540.96632 806.74924 561.53125 801.5625 C 589.98244 794.25255 622.35056 803.96994 641.15625 826.71875 C 663.78374 852.62206 662.46028 895.47175 637.40625 919.3125 C 628.64037 926.65279 629.2556 938.55486 626.34375 948.625 C 648.81958 935.97666 666.71401 914.22409 671.71875 888.59375 C 678.63439 859.47527 666.96386 827.71014 645.125 807.8125 C 612.4577 776.96511 557.75013 774.32829 521.625 800.65625 C 502.00036 814.2752 487.9008 836.38257 485.65625 860.375 C 465.45531 806.38447 446.4215 751.97951 427.3125 697.625 C 430.16367 696.68472 433.05599 695.72154 435.9375 694.78125 C 432.29769 680.82864 425.33104 668.22649 419.75 655.0625 z M 416.125 701.46875 C 438.02452 761.13131 459.14736 821.15545 480.53125 881 C 483.80709 887.79431 472.6729 887.3455 469.09375 890.5 C 446.31461 834.8109 425.09624 778.46851 402.46875 722.71875 C 387.87918 724.87231 374.61436 732.18093 360.84375 737.125 C 380.62005 794.02738 403.53066 849.83938 424.15625 906.46875 L 409.59375 911.65625 C 399.28095 895.51975 393.58477 877.1595 386.0625 859.71875 C 368.37909 816.37468 350.7891 772.99574 333.5 729.5 C 360.85925 719.64219 388.7051 711.17491 416.125 701.46875 z "
       id="path42"
       transform="scale(0.8,0.8)" />
    <path
       d="m 834.85118,540.68171 c 2.54787,1.77137 8.88114,3.05744 6.01782,7.37668 -30.91412,50.42351 -63.23564,100.02199 -93.54312,150.80948 -5.45972,2.69346 -10.72531,6.50313 -17.08285,6.16341 -20.60132,1.55299 -41.08132,4.65896 -61.75545,4.90161 -0.33971,-2.49934 -0.65516,-5.02294 -0.97061,-7.52227 20.67412,-3.78541 41.90635,-3.51849 62.72606,-6.55166 5.33839,-0.53384 10.48266,-3.3001 12.95773,-8.25024 30.40455,-49.06464 61.22161,-97.88664 91.65042,-146.92701 z"
       id="path46"
       style="fill:#f5e5c1" />
    <path
       d="m 676.08265,559.269 c 15.77252,-4.3435 29.96778,-15.36 46.75944,-15.02028 -5.1928,8.88114 -7.52228,18.99981 -11.81726,28.24493 -9.48777,7.74066 -19.50938,15.23867 -30.72,20.35867 -34.16568,13.27318 -71.09763,19.94616 -107.76265,16.96152 -3.20303,-0.92209 -6.40607,-1.74711 -9.6091,-2.54787 -4.63469,-7.91052 -9.48777,-15.69971 -14.46218,-23.39185 6.50313,-4.3435 14.34085,-3.32436 21.71754,-3.37289 20.3344,-2.49933 40.8872,-3.8582 60.93042,-8.54142 15.26294,-3.17877 29.84645,-8.9054 44.96379,-12.69081 z"
       id="path48"
       style="fill:#f5e5c1" />
    <path
       d="m 788.48,646.96417 c 7.27962,-3.1545 12.98199,2.69346 16.23355,8.58995 12.76361,21.30503 26.76474,41.83356 39.52835,63.13858 3.95526,8.32303 6.04208,18.6601 2.08682,27.34711 -5.31412,13.12758 -9.07526,27.20152 -18.5873,38.14521 -11.28341,18.17479 -26.27943,33.43773 -39.67393,50.011 -5.50825,6.81858 -13.83128,11.23488 -22.78522,9.73043 -7.54654,-21.57195 10.40986,-44.891 -0.50957,-65.88057 -14.48644,-19.75204 -29.21554,-39.38275 -44.1873,-58.79507 10.26427,-3.44569 21.64474,-3.61555 31.27811,-8.78408 9.41497,-11.81725 17.61668,-24.65365 24.92057,-37.87829 4.51336,-8.25024 11.52606,-15.67545 11.69592,-25.62427 z"
       id="path52"
       style="fill:#f5e5c1" />
    <path
       d="m 605.05782,725.24436 c 0.0728,-15.94237 10.07014,-29.77365 20.72265,-40.81441 13.97688,0.50958 28.00228,0.16986 41.97915,0.75223 -3.93099,4.07659 -8.88114,7.18256 -12.30256,11.74446 -5.89649,12.20549 -0.6309,27.61402 11.01649,34.28701 4.07659,2.37801 8.12891,-0.21839 11.62313,-2.30521 0.60664,-2.01403 1.23754,-4.0038 1.91697,-5.99356 2.23242,8.61422 -4.14938,15.45706 -9.51204,21.25649 -18.15052,-1.43165 -35.86426,-6.09061 -53.62654,-9.90028 -4.68322,-1.28607 -11.5746,-3.10597 -11.81725,-9.02673 z"
       id="path54"
       style="fill:#f5e5c1" />
    <path
       d="m 440.8781,701.58559 c 12.01138,-9.22085 28.94863,-8.9054 42.3674,-3.13023 6.74578,3.0817 14.34085,9.19658 13.24891,17.49535 -1.91697,11.5746 -4.75602,23.02787 -6.06635,34.74806 -3.63981,17.08284 -9.58484,33.58332 -14.24379,50.4235 -2.40228,6.72152 -4.97441,15.65119 -12.93346,17.44683 -14.14673,2.25668 -30.0891,1.94123 -41.68797,-7.61934 -0.99488,-10.70104 -1.40739,-21.57194 1.72285,-31.9818 4.61042,-26.08531 11.08929,-51.73384 17.59241,-77.38237 z"
       id="path56"
       style="fill:#f5e5c1" />
    <path
       d="m 852.68626,737.59545 c 4.61042,-3.2273 9.85175,-8.05611 15.86957,-4.80455 17.34976,7.20683 35.84,12.78787 51.17573,23.94995 -7.95905,9.94882 -16.35488,19.55792 -24.60511,29.26408 -21.2565,22.00872 -38.82465,47.17194 -56.65972,71.92265 -14.43791,19.41233 -26.32796,40.54749 -37.44152,61.97384 -5.45971,-5.36265 -11.18635,-10.70104 -14.70483,-17.61668 -3.44569,-6.35754 -7.25536,-14.00114 -14.70483,-16.13649 -9.26939,5.77516 -17.66522,12.86066 -26.71621,18.99981 -3.08171,-3.78541 -6.18768,-7.86199 -11.18635,-9.051 4.44056,-40.30483 8.32303,-80.6582 12.61801,-120.9873 4.24644,0.21839 8.46862,0.46105 12.71507,0.7037 -1.91697,36.81062 -7.1583,73.37858 -10.33707,110.1164 6.64873,-5.07147 13.83128,-9.65763 19.33953,-16.0637 23.68303,-28.14787 48.65213,-55.34938 69.10787,-86.04512 7.23109,-12.90919 14.14673,-26.06104 20.67412,-39.33422 2.47507,-3.93099 -2.86332,-5.14426 -5.14426,-6.89137 z"
       id="path58"
       style="fill:#f5e5c1" />
    <path
       d="m 366.65024,769.11621 c 7.03696,-2.23242 14.31658,-3.44569 21.669,-4.02806 11.35621,33.07375 24.62939,65.44379 36.10692,98.46901 15.60266,-5.62958 30.13763,-13.75849 45.69175,-19.50939 2.01403,4.36778 4.02806,8.73555 6.04209,13.12759 -32.73403,15.40853 -64.35185,33.1708 -95.50863,51.46691 -4.53763,-5.62957 -9.17232,-11.16208 -13.83128,-16.64606 9.6091,-9.80322 23.7801,-12.73934 35.9128,-18.36891 -5.60531,-21.59621 -14.94749,-42.07621 -22.10578,-63.21138 -4.5619,-13.80701 -11.11356,-27.00739 -13.97687,-41.29971 z"
       id="path60"
       style="fill:#f5e5c1" />
    <path
       d="m 709.49611,782.53498 c 8.12891,-3.08171 14.65631,-9.22086 23.00361,-11.86579 2.30521,0.94636 4.63469,1.84417 6.96417,2.76626 -3.78541,23.53744 -9.41498,47.00209 -8.49289,71.00057 -1.28607,9.26938 -0.67944,20.14028 -6.69726,27.85668 -9.24511,6.40607 -18.68436,12.54521 -27.4927,19.60645 -6.11488,-30.88986 -15.9181,-61.05176 -19.53365,-92.40266 10.24,-6.55166 21.01384,-12.25403 32.24872,-16.96151 z"
       id="path62"
       style="fill:#f5e5c1" />
    <path
       d="m 956.29953,781.41877 c 9.58483,-8.73555 24.79924,-2.32948 31.95753,6.50313 0.36398,64.83715 -0.0243,129.69857 0.16986,194.53573 -50.42351,0.65517 -100.84701,0 -151.27052,0.33972 -5.62958,0.24265 -11.13782,-0.80076 -16.52474,-2.32948 0.33971,-6.96417 0.21839,-14.19526 3.20303,-20.67413 16.25782,-39.35848 35.47602,-78.57137 64.81289,-109.94654 8.58996,-10.07014 18.36891,-19.04834 26.74048,-29.3126 12.15696,-14.53498 26.93459,-26.47356 40.91147,-39.11583 z"
       id="path64"
       style="fill:#f5e5c1" />
    <path
       d="m 497.56209,839.80133 c 7.30388,-6.28474 13.15184,-17.20417 24.16834,-16.40342 6.69725,-0.72796 12.81213,2.18389 18.10199,5.94503 -0.0971,1.9655 -0.29119,5.87223 -0.38825,7.81346 -3.32436,9.97308 -9.51204,18.56303 -14.00114,27.97801 -10.43412,24.21687 -26.0853,45.69175 -36.25251,70.02995 -8.42009,14.51071 -3.27583,31.64209 -4.4891,47.46313 -49.98673,0.19412 -99.94919,0.0243 -149.91166,0.0971 -7.98331,0.0971 -15.9909,0.14559 -23.94995,-0.6309 -4.00379,-7.93479 -9.07526,-15.21441 -14.6563,-22.08152 9.70616,-1.77137 19.60644,0.50958 29.28834,-1.38313 17.34976,-2.86331 31.86047,-14.14673 43.70199,-26.52208 11.62313,-5.77517 21.93592,5.79943 31.49649,10.99223 19.46085,-24.45953 41.93062,-46.27413 63.64815,-68.69536 12.10844,-10.55545 21.15943,-24.02275 33.24361,-34.60246 z"
       id="path66"
       style="fill:#f5e5c1" />
    <path
       d="m 700.12967,899.34863 c 6.3818,-4.6347 15.48133,-4.53763 22.22711,-0.75223 9.92455,5.33839 20.35867,9.70616 30.93839,13.58862 0.16985,1.11621 0.53383,3.32436 0.72796,4.44057 -13.95261,11.79299 -28.02654,23.75583 -39.1401,38.33934 -6.309,4.51336 -14.97175,1.91697 -21.91166,0.14559 -12.47241,-3.93099 -25.55146,-10.02161 -33.12227,-21.1109 -3.25156,-3.37289 1.48019,-6.4546 3.59128,-8.63848 11.35621,-9.82749 23.99848,-18.0292 36.68929,-26.01251 z"
       id="path68"
       style="fill:#f5e5c1" />
    <path
       d="m 754.65403,907.01649 c 3.7854,-2.32948 8.10464,-3.03317 12.47242,-3.37289 6.89137,6.67299 15.36,12.32683 19.31526,21.42635 3.7126,8.20171 9.4635,15.14161 15.33573,21.86313 -1.72284,4.51337 -3.54275,9.31792 -8.00758,11.81725 -9.24512,6.09062 -17.37403,13.70995 -26.57062,19.8491 -10.31279,1.9655 -14.70483,-9.00246 -19.0726,-16.03943 -3.44569,-6.96417 -11.04076,-12.49668 -10.87091,-20.72265 7.81346,-9.1238 16.6946,-17.30124 26.10958,-24.72645 -2.93612,-3.34863 -5.84796,-6.69725 -8.71128,-10.09441 z"
       id="path70"
       style="fill:#f5e5c1" />
  </g>
</svg>
