<?xml version="1.0" encoding="UTF-8" standalone="no"?>
<svg
   xmlns:dc="http://purl.org/dc/elements/1.1/"
   xmlns:cc="http://creativecommons.org/ns#"
   xmlns:rdf="http://www.w3.org/1999/02/22-rdf-syntax-ns#"
   xmlns:svg="http://www.w3.org/2000/svg"
   xmlns="http://www.w3.org/2000/svg"
   xmlns:xlink="http://www.w3.org/1999/xlink"
   xmlns:sodipodi="http://sodipodi.sourceforge.net/DTD/sodipodi-0.dtd"
   xmlns:inkscape="http://www.inkscape.org/namespaces/inkscape"
   width="1280"
   height="1280"
   viewBox="0 0 1024 1024"
   version="1.1"
   id="svg3136"
   inkscape:version="0.48.4 r9939"
   sodipodi:docname="assist_heavy.svg">
  <metadata
     id="metadata3226">
    <rdf:RDF>
      <cc:Work
         rdf:about="">
        <dc:format>image/svg+xml</dc:format>
        <dc:type
           rdf:resource="http://purl.org/dc/dcmitype/StillImage" />
        <dc:title></dc:title>
      </cc:Work>
    </rdf:RDF>
  </metadata>
  <defs
     id="defs3224" />
  <sodipodi:namedview
     pagecolor="#ffffff"
     bordercolor="#666666"
     borderopacity="1"
     objecttolerance="10"
     gridtolerance="10"
     guidetolerance="10"
     inkscape:pageopacity="0"
     inkscape:pageshadow="2"
     inkscape:window-width="1680"
     inkscape:window-height="984"
     id="namedview3222"
     showgrid="false"
     inkscape:zoom="0.46735339"
     inkscape:cx="636.95603"
     inkscape:cy="529.45053"
     inkscape:window-x="0"
     inkscape:window-y="27"
     inkscape:window-maximized="1"
     inkscape:current-layer="layer2"
     inkscape:snap-page="true" />
  <g
     inkscape:groupmode="layer"
     id="layer1"
     inkscape:label="background">
    <rect
       style="fill:#3e3e3e;fill-opacity:1;fill-rule:nonzero;stroke:none"
       id="rect3021"
       width="1280"
       height="1280"
       x="0"
       y="0"
       transform="scale(0.8,0.8)" />
  </g>
  <g
     inkscape:groupmode="layer"
     id="layer2"
     inkscape:label="foreground">
    <path
       style="fill:#f4722b;fill-opacity:1;stroke:none"
       d="M 341.15625 421.53125 C 194.34705 421.53125 75.34375 540.53455 75.34375 687.34375 C 75.34375 834.15295 194.34705 953.15625 341.15625 953.15625 C 487.96545 953.15625 607 834.15295 607 687.34375 C 607 540.53455 487.96545 421.53125 341.15625 421.53125 z M 340.625 459.6875 C 466.34792 459.6875 568.28125 561.62083 568.28125 687.34375 C 568.28125 813.06667 466.34792 914.96875 340.625 914.96875 C 214.90208 914.96875 113 813.06667 113 687.34375 C 113 561.62083 214.90208 459.6875 340.625 459.6875 z "
       id="path2855"
       transform="scale(0.8,0.8)" />
    <path
       d="m 190.60474,107.22882 c 12.10844,13.15184 26.66768,23.68303 40.37763,35.03924 13.49156,-1.79564 25.45441,-9.87602 38.50919,-13.78275 -3.90673,12.42388 -7.42521,24.94483 -11.429,37.34445 9.63336,11.08929 22.73668,19.24247 30.40455,31.86048 -10.33706,2.25668 -20.96531,0.31545 -31.37517,2.20815 -5.45971,1.55298 -14.07393,-2.91185 -16.84019,3.80967 -6.43033,11.11355 -12.49668,22.51829 -20.18881,32.80682 -2.15962,-13.24891 -6.96417,-25.76986 -9.90029,-38.82464 -16.4762,-5.77517 -33.8745,-7.44948 -50.39924,-13.07906 12.22977,-8.78407 25.13896,-16.59753 37.95109,-24.53232 -0.6309,-17.83507 -7.03696,-34.86938 -7.10976,-52.85004 z"
       id="path3150"
       style="fill:#f5e5c1" />
    <g
       id="g3021"
       inkscape:tile-cx="796.7705"
       inkscape:tile-cy="170.10582"
       inkscape:tile-w="774.64439"
       inkscape:tile-h="266.43553"
       inkscape:tile-x0="409.4483"
       inkscape:tile-y0="36.888057">
      <path
         style="fill:#f5e5c1"
         id="path3140"
         d="m 756.66806,53.38389 c 22.78521,-11.86579 47.31753,-22.03299 73.18445,-23.82863 13.24891,-0.77649 30.69574,8.58995 27.78389,24.02275 -2.5964,11.96284 -16.33062,13.32171 -25.96398,16.45194 -8.37157,3.08171 -19.38806,4.31924 -23.51318,13.41877 14.43792,4.00379 28.60891,-3.54275 40.20777,-11.429 14.14673,-9.1238 24.16835,-23.7801 39.86806,-30.67147 18.73289,-6.16342 40.74161,4.05232 48.0455,22.44549 12.52095,39.47981 16.33061,83.69138 0.82502,122.90427 -3.90673,12.66654 -13.20038,22.59109 -22.42123,31.69062 -10.60398,10.7253 -24.87204,16.71886 -38.94597,21.42635 -7.40095,3.95526 -16.01517,2.54786 -24.02275,2.79052 -21.08664,-0.36398 -42.46446,0.99488 -63.21137,-3.44569 -24.87204,-2.96038 -50.13233,-10.11867 -70.02996,-25.91545 -6.04208,-5.77517 -14.0254,-12.30256 -13.05478,-21.62047 0.12132,-31.61782 -0.0243,-63.23564 0.0728,-94.85346 -0.77649,-4.92588 3.95526,-7.59507 6.98844,-10.45839 14.38938,-11.38048 27.34711,-25.06616 44.1873,-32.92815 z" />
      <path
         style="fill:#f5e5c1"
         id="path3142"
         d="m 649.29365,84.63773 c 13.20038,-0.31546 26.66768,-1.35887 39.72246,1.04341 5.38692,0.53384 6.26048,7.0127 6.13915,11.35621 -0.0728,32.32151 -0.0243,64.66729 -0.0485,96.98881 -0.31545,3.66408 0.38825,7.98332 -2.62066,10.74957 -3.2273,3.66408 -8.61422,2.52361 -12.9092,3.03318 -11.33194,-0.0485 -22.68815,0.36398 -33.99583,-0.24265 -5.43545,-0.21839 -7.47374,-6.30901 -6.96417,-10.9437 0,-33.14654 -0.14559,-66.31735 0.0728,-99.46389 -0.29119,-6.33327 3.51848,-12.95772 10.60398,-12.52094 z" />
      <path
         style="fill:#f5e5c1"
         id="path3144"
         d="m 566.03905,93.00929 c 4.00379,-6.62446 13.58863,-9.22085 19.89763,-4.39204 7.47375,5.14427 9.73043,14.53498 11.52607,22.88228 3.03317,19.58218 2.66919,41.03279 -8.05611,58.35829 -2.30522,3.61554 -5.8965,8.68701 -10.77384,5.92076 -0.58237,-5.8237 5.43545,-9.43924 7.20682,-14.60777 6.69725,-16.01517 6.40607,-34.45688 2.37801,-51.10294 -1.74711,-4.97441 -4.00379,-12.22977 -10.38559,-12.25403 -6.60019,1.45592 -10.07014,8.2745 -11.89005,14.19526 -5.26559,19.04834 -5.70237,40.52322 3.73687,58.35829 6.43033,12.1327 20.81972,21.30503 34.69953,16.35488 10.07014,-2.11109 15.84531,-11.18635 23.0764,-17.54388 2.30521,11.08929 -7.74067,18.07772 -16.18503,22.68815 -10.67677,5.96929 -24.58085,5.36265 -34.55393,-1.79564 -14.171,-8.92967 -19.24247,-26.25517 -21.54768,-41.90635 -2.06256,-18.75716 -0.0243,-39.23716 10.8709,-55.15526 z" />
      <path
         style="fill:#f5e5c1"
         id="path3146"
         d="m 459.70806,91.28645 c 6.35753,-2.79053 14.6563,-0.53384 18.05346,5.77516 9.70616,16.59754 10.21573,37.00474 7.30388,55.56777 -1.55298,10.96797 -6.91564,21.06237 -14.68057,28.9001 -0.92208,-1.14048 -2.79052,-3.42142 -3.7126,-4.58616 3.68834,-8.80834 10.38559,-16.40341 11.45327,-26.25517 1.8199,-13.63715 2.18388,-28.1964 -2.79052,-41.25118 -2.13536,-4.29498 -5.79943,-11.30768 -11.59887,-7.83773 -11.64739,12.05991 -13.92834,30.52588 -12.25402,46.54104 1.98976,13.27318 4.27071,28.60891 15.60265,37.36872 6.09062,4.68323 14.19526,8.25024 21.91166,5.96929 6.21194,-1.33459 12.42388,-5.41118 18.80569,-2.57213 -5.8237,6.16341 -14.12247,9.48777 -22.39697,10.72531 -11.33194,-0.43678 -22.76095,-5.50825 -29.3854,-14.99602 -13.07906,-18.02919 -15.28721,-41.71223 -11.96285,-63.18711 2.11109,-11.16208 5.7509,-23.44038 15.65119,-30.16189 z" />
      <path
         style="fill:#f5e5c1"
         id="path3148"
         d="m 513.72284,93.73725 c 4.99868,-6.40607 15.5056,-5.77516 20.31015,0.55811 7.52227,9.70616 9.43924,22.46976 10.53118,34.38407 0.38825,16.40341 -1.31033,34.31128 -11.93858,47.58446 -1.45592,2.86331 -4.58616,3.20303 -7.35241,2.28094 0.36398,-5.70237 4.85308,-10.02161 6.64872,-15.2872 6.01782,-16.08796 6.309,-33.97156 2.64492,-50.6419 -2.03829,-5.70237 -5.89649,-13.63715 -13.27317,-11.86578 -12.37536,8.80834 -13.49156,26.08531 -13.44303,40.01365 -0.7037,18.92702 8.34729,39.81953 26.27943,47.94844 8.9054,4.58616 18.19905,-0.12133 26.61914,-3.32436 1.72285,1.72284 3.3729,3.54275 4.95015,5.43545 -11.04076,8.10464 -26.52209,10.24 -38.77612,3.61554 -15.43279,-7.86199 -22.97933,-25.18749 -25.64853,-41.49384 -1.98976,-20.14028 -1.09194,-42.87696 12.44815,-59.20758 z" />
      <path
         style="fill:#f5e5c1"
         id="path3152"
         d="m 376.25934,138.57972 c 0.19412,-1.55299 0.58237,-4.65896 0.77649,-6.21195 13.00626,0.26692 26.03678,0.12133 39.0673,0.14559 -0.0728,2.11109 -0.14559,4.22219 -0.21839,6.33328 -13.20038,-0.1456 -26.42502,0.24265 -39.6254,-0.26692 z" />
      <path
         style="fill:#f5e5c1"
         id="path3154"
         d="m 327.7528,156.17213 c 30.33175,0.1456 60.68777,-0.0243 91.04379,0.0728 0,1.43166 0.0243,4.27071 0.0485,5.70237 -30.42882,0.16986 -60.85763,0.0243 -91.28645,0.0728 0.0485,-1.45592 0.1456,-4.39203 0.19413,-5.84796 z" />
      <path
         style="fill:#f5e5c1"
         id="path3156"
         d="m 417.70464,201.62123 c 12.13271,-2.86332 24.79925,-5.82369 34.23849,-14.60777 1.48019,2.15962 2.98464,4.34351 4.44057,6.52739 -10.33706,6.13915 -21.7418,12.32683 -34.11716,11.72019 -1.14047,-0.89782 -3.42142,-2.74199 -4.5619,-3.63981 z" />
    </g>
    <path
       d="m 142.92322,247.41005 c 1.14048,-2.88759 3.13024,-5.24133 5.16853,-7.49801 1.23754,9.34218 2.42654,18.78142 5.53252,27.73535 3.30009,9.31792 2.81478,19.46086 6.01782,28.80304 1.2618,5.6053 8.12891,5.07147 12.59374,5.45971 9.97308,-0.12132 19.26673,4.05232 29.14275,4.78029 7.81346,0.36398 15.19014,3.25156 22.97933,3.63981 -0.19412,0.67943 -0.58236,2.06256 -0.77649,2.74199 -17.78654,9.87602 -52.07355,31.69061 -52.07355,31.69061 l 14.75336,67.72474 -53.57801,-42.87696 c -2.88758,-0.6309 -5.31412,1.52872 -7.74066,2.69346 -16.6218,9.75469 -33.971565,18.24758 -50.423508,28.29346 9.487773,-20.79545 18.05346,-42.02768 26.861798,-63.13858 -17.010044,-17.42256 -35.767201,-33.3892 -53.480945,-50.18086 24.605119,1.28607 49.258768,3.76114 73.621235,7.49801 6.96417,-15.86957 14.55924,-31.44796 21.40208,-47.36606 z"
       id="path3158"
       style="fill:#f5e5c1"
       inkscape:connector-curvature="0"
       sodipodi:nodetypes="ccccccccccccccccc" />
    <path
       d="m 205.30957,402.87848 c 0.0243,-12.0599 10.60398,-22.90654 22.76095,-22.76094 28.31773,-0.43678 56.65972,0.14559 84.97744,-0.24266 8.3473,-0.0243 17.83507,-0.36398 24.36247,5.79943 6.28474,4.92588 7.54654,13.17612 9.17232,20.48 0.0106,11.7573 -1.04767,28.01306 -0.55811,73.83965 25.38162,0 50.78749,-0.31545 76.14484,0.0485 12.7636,-0.26691 23.61024,11.93858 22.32417,24.55659 -0.16986,32.53991 0.16986,65.10408 -0.19412,97.64398 -1.09195,2.23242 -2.20816,4.44057 -3.27583,6.67299 -4.58616,5.7509 -11.06503,10.50692 -18.75716,10.31279 -25.47867,0.7037 -51.00588,-0.24265 -76.50881,0.41252 -0.62092,26.78906 1.28729,53.68134 -0.43681,80.43981 -1.28607,12.01137 -12.86067,21.0381 -24.72645,20.52853 -30.0891,0.14559 -60.1782,0.14559 -90.2673,0 -13.3217,0.75223 -25.64853,-10.74958 -25.11469,-24.24114 -0.36398,-25.62427 0.0485,-51.2728 -0.0971,-76.89706 -23.0764,-0.0485 -46.1528,-0.0728 -69.22919,0.0485 -7.61934,-0.0971 -16.1365,0.0728 -22.25138,-5.24133 -7.44948,-5.7509 -9.48777,-15.69971 -9.34218,-24.62938 0.0728,-26.71621 0.0485,-53.45669 0,-80.19716 -0.14559,-8.9054 1.94123,-18.80568 9.36645,-24.53232 5.45971,-4.80455 13.03052,-5.07147 19.89763,-5.07147 23.85289,0.0971 47.70578,0.12133 71.55867,0.0243 0.19412,-25.6728 -0.36398,-51.3456 0.19412,-76.99413 l 4e-5,0 3e-5,0 z"
       id="path3176"
       style="fill:#f4722b"
       sodipodi:nodetypes="ccccccccccccccccccccccccccc" />
    <path
       d="m 234.30673,758.85194 c 6.86711,-5.55677 13.97687,-10.7981 21.35355,-15.65118 -1.23753,5.96929 -2.57213,11.89005 -3.93099,17.83507 -2.91185,11.81725 -4.92588,23.85289 -8.29877,35.54881 18.75716,8.12891 35.1363,20.48 53.74787,28.85157 -19.53365,2.49934 -38.9945,5.58104 -58.57668,7.78919 -4.92588,19.72778 -7.74067,39.89233 -10.72531,59.95981 -13.58863,-16.45194 -20.23735,-37.68417 -29.16702,-56.9509 -23.36758,-0.89782 -46.90502,3.3001 -70.4182,2.28095 16.18503,-11.96284 32.32152,-24.07128 47.65726,-37.1018 -8.9782,-18.6601 -16.6946,-37.97536 -29.16702,-54.69422 12.25403,4.99867 24.48379,10.36133 35.98559,16.98578 8.22598,5.8237 17.44683,9.92455 26.44929,14.34086 8.56569,-6.11488 16.81593,-12.66654 25.09043,-19.19394 z"
       id="path3204"
       style="fill:#f5e5c1" />
    <use
       x="0"
       y="0"
       inkscape:tiled-clone-of="#g3021"
       xlink:href="#g3021"
       id="use3127" />
    <use
       x="0"
       y="0"
       inkscape:tiled-clone-of="#g3021"
       xlink:href="#g3021"
       transform="translate(-7.2490498,249.9955)"
       id="use3129"
       width="1024"
       height="1024" />
    <use
       x="0"
       y="0"
       inkscape:tiled-clone-of="#g3021"
       xlink:href="#g3021"
       transform="translate(-7.2750088,502.18263)"
       id="use3131"
       width="1024"
       height="1024" />
    <use
       x="0"
       y="0"
       inkscape:tiled-clone-of="#g3021"
       xlink:href="#g3021"
       transform="translate(-4.7073587,747.49674)"
       id="use3133"
       width="1024"
       height="1024" />
  </g>
</svg>
