<?xml version="1.0" encoding="UTF-8" standalone="no"?>
<svg
   xmlns:dc="http://purl.org/dc/elements/1.1/"
   xmlns:cc="http://creativecommons.org/ns#"
   xmlns:rdf="http://www.w3.org/1999/02/22-rdf-syntax-ns#"
   xmlns:svg="http://www.w3.org/2000/svg"
   xmlns="http://www.w3.org/2000/svg"
   xmlns:sodipodi="http://sodipodi.sourceforge.net/DTD/sodipodi-0.dtd"
   xmlns:inkscape="http://www.inkscape.org/namespaces/inkscape"
   width="1280"
   height="1280"
   viewBox="0 0 1024 1024"
   version="1.1"
   id="svg2"
   inkscape:version="0.47 r22583"
   sodipodi:docname="assist_pyro.svg">
  <metadata
     id="metadata40">
    <rdf:RDF>
      <cc:Work
         rdf:about="">
        <dc:format>image/svg+xml</dc:format>
        <dc:type
           rdf:resource="http://purl.org/dc/dcmitype/StillImage" />
      </cc:Work>
    </rdf:RDF>
  </metadata>
  <defs
     id="defs38" />
  <sodipodi:namedview
     pagecolor="#ffffff"
     bordercolor="#666666"
     borderopacity="1"
     objecttolerance="10"
     gridtolerance="10"
     guidetolerance="10"
     inkscape:pageopacity="0"
     inkscape:pageshadow="2"
     inkscape:window-width="1280"
     inkscape:window-height="738"
     id="namedview36"
     showgrid="false"
     inkscape:zoom="0.24410896"
     inkscape:cx="316.29708"
     inkscape:cy="495.51428"
     inkscape:window-x="-8"
     inkscape:window-y="-8"
     inkscape:window-maximized="1"
     inkscape:current-layer="svg2" />
  <path
     id="path3633"
     d="m 0,0 1024,0 0,1024 L 0,1024 0,0 z"
     style="fill:#3e3e3e" />
  <path
     d="m 384.14559,36.76685 c 3.56702,0.82503 7.83773,0.55811 10.28853,3.76114 6.5274,6.4546 14.29233,11.69592 19.75204,19.19393 6.13915,8.03185 11.06502,16.88872 15.79678,25.79413 8.05611,16.11222 8.42009,34.45687 13.27317,51.53971 10.91944,-18.49024 21.40209,-37.85403 36.88342,-52.97137 -3.17877,18.19905 -2.93612,37.029 2.4508,54.83981 3.7854,11.76872 5.14427,24.28967 4.17365,36.61649 -5.8237,31.56929 -27.63829,58.64948 -54.9854,74.64038 -15.72398,8.3473 -33.48626,11.59886 -49.57422,19.09687 -39.67393,16.18503 -74.05801,42.46446 -105.72436,70.87924 -52.36474,54.59716 -83.42445,128.65517 -86.77308,204.1691 -8.32303,-19.8491 -14.29232,-40.59602 -19.33953,-61.48853 -2.76625,-11.76872 -7.03696,-23.41611 -6.91564,-35.67014 0.84929,-22.25137 -2.66919,-45.13365 4.5619,-66.72986 2.13535,-18.17478 10.04588,-34.84512 16.549,-51.7581 8.15318,-19.9219 21.2565,-37.44152 28.80304,-57.63033 1.8927,0.31545 5.70237,0.94635 7.59507,1.28606 0.84929,6.50313 0.41251,13.10332 1.21327,19.60645 2.11109,16.20929 9.12379,31.15677 15.9181,45.83734 0.21839,-10.02161 1.94123,-19.89763 5.70237,-29.21554 4.12512,-16.08796 11.23488,-31.66635 22.59109,-43.96891 14.19526,-16.71886 31.90901,-29.67659 49.35583,-42.73138 21.96019,-14.7291 39.84379,-34.52966 57.89725,-53.62654 17.3255,-17.68947 26.71621,-41.61516 30.64721,-65.73497 0.70369,-10.96796 -3.931,-21.35356 -6.23621,-31.90901 -3.05744,-9.12379 -5.89649,-18.97554 -13.3945,-25.55147 -0.19413,-2.76625 -0.33972,-5.50824 -0.50958,-8.2745 z"
     id="path6"
     style="fill:#f4722b" />
  <path
     d="m 812.45422,100.51206 c 3.30009,-0.24265 6.57592,-0.50957 9.87602,-0.80075 -1.4074,7.30388 -4.12512,14.77763 -2.32948,22.2999 3.68834,19.43659 16.23355,35.33043 25.62426,52.29194 13.4673,21.49915 24.92057,44.28436 33.9473,68.01593 17.47109,40.11071 14.29232,85.7054 5.28986,127.51469 -4.29498,25.57574 -10.57972,51.61251 -24.58085,73.74256 -9.6091,11.89005 -7.23109,28.17213 -7.23109,42.39166 -0.38825,4.34351 1.60151,8.22597 3.59128,11.93858 5.14426,-11.45327 8.92966,-23.80436 8.03184,-36.51943 3.68835,-0.0485 8.9782,-0.75223 10.02162,4.02805 6.18767,17.9564 11.59886,36.17972 18.78142,53.7964 5.48398,21.01384 9.36644,42.44019 12.66654,63.89081 5.21706,22.39696 3.95526,46.03147 -2.54787,67.99166 -2.93611,24.07128 -21.32929,41.56663 -36.66502,58.74654 -16.18503,14.63203 -33.48626,27.978 -49.67128,42.65857 -23.82863,19.58218 -49.71981,36.39811 -76.09631,52.34048 -12.30255,7.13403 -23.27052,19.97042 -21.669,35.0635 -1.11621,-0.16985 -3.32436,-0.4853 -4.4163,-0.6309 -4.99868,-10.38559 -14.68057,-23.0036 -8.51716,-34.60246 31.69062,-27.10446 59.25611,-59.32891 78.64417,-96.40645 5.31412,-10.7981 12.08417,-20.89251 16.6218,-32.05459 5.65384,-21.96019 13.03052,-43.53214 16.45194,-66.0019 8.83261,-54.9854 1.16474,-111.57232 -16.33061,-164.10692 -21.54768,-57.36341 -60.39659,-107.81118 -109.70389,-144.08796 4.97441,-12.01137 11.69593,-23.44038 14.36512,-36.30104 3.90673,-16.93725 7.6436,-34.26275 6.09062,-51.78237 -0.0485,-13.56436 -7.37669,-26.08531 -16.93725,-35.2819 -6.77005,-6.67298 -16.91299,-6.9399 -24.58086,-12.10843 11.89005,-5.55678 24.77498,-0.31545 35.13631,6.06635 8.88113,5.6781 18.68436,10.19147 26.47355,17.39829 21.88739,26.66768 28.99716,61.53706 35.42749,94.53801 13.37024,-13.3945 28.65744,-25.79412 37.19886,-43.07109 13.34597,-27.75962 20.26161,-61.46427 8.08038,-90.87393 -5.50825,-16.11223 -5.02294,-33.70465 -1.04341,-50.0838 z"
     id="path8"
     style="fill:#f4722b" />
  <path
     d="m 502.53649,138.02638 c 6.57593,-2.91185 14.19526,-4.58616 20.74692,-0.55811 11.04076,6.55166 16.93725,19.36379 19.16967,31.61782 3.00891,16.50048 7.69213,34.0201 1.79564,50.42351 -3.88246,8.10464 -8.75981,16.03943 -15.40853,22.17858 -9.65763,1.04341 -19.41232,-0.0728 -29.11848,0.24265 -3.95526,0.41251 -7.54654,-1.2618 -10.99223,-2.93611 -0.0485,-5.04721 -0.60664,-10.19147 0.36398,-15.19014 8.46863,-14.171 24.16834,-23.1492 30.06483,-39.01877 2.11109,-6.13915 3.56702,-12.66654 3.08171,-19.16967 -1.86844,-11.69592 -9.99735,-21.32929 -19.70351,-27.58976 z"
     id="path10"
     style="fill:#f4722b" />
  <path
     d="m 116.69232,162.72856 c 10.02161,2.57213 9.43924,16.20929 17.68948,21.54768 18.15052,13.12758 41.00853,19.0726 57.80019,34.26274 8.3473,8.17744 5.26559,20.96531 0.43678,30.11337 -3.8582,8.85687 -12.78787,13.61289 -18.12626,21.40208 -6.09061,-6.33327 -11.93858,-13.05478 -20.18881,-16.67033 -14.97176,-10.40986 -30.04057,-24.99336 -32.15166,-44.06597 -0.0971,-15.67545 -0.72796,-31.52076 -5.45972,-46.58957 z"
     id="path12"
     style="fill:#f4722b" />
  <path
     d="m 53.966256,239.55282 c 10.361327,-3.13023 15.578389,7.06124 21.06237,13.70996 13.904075,17.03431 31.326634,32.10312 39.382744,53.14123 5.09574,14.68057 10.67678,30.52587 6.5274,46.17706 -2.32948,12.81213 -12.37536,23.0764 -12.9092,36.30104 -0.58237,5.33839 2.08683,10.16721 3.95526,14.97176 -5.12,0.50957 -10.7253,0.82502 -14.753361,-3.00891 -14.049668,-8.85688 -21.838862,-23.7801 -30.574407,-37.29593 -11.623128,-17.34976 -13.807015,-39.45554 -11.526067,-59.74142 5.556778,-20.81972 9.02673,-44.28436 -1.164739,-64.25479 z"
     id="path14"
     style="fill:#f4722b" />
  <path
     style="fill:#f5e5c1;fill-opacity:1"
     id="path3621"
     d="m 503.44645,264.84951 c -12.82252,-0.0243 -25.61138,0.79622 -38.33934,2.4872 -38.65479,5.09573 -76.29043,17.82294 -110.0436,37.30806 -53.8692,31.2053 -97.43773,79.8453 -122.11564,137.03886 -19.89763,45.71602 -28.13574,96.60057 -23.1128,146.19905 5.77517,65.97763 35.02711,129.66218 81.22844,177.07678 43.14388,45.10938 101.22313,75.51393 162.76019,85.7782 24.77497,4.27071 50.12019,4.30711 75.16208,2.97251 59.98408,-4.80455 118.16038,-28.96076 164.21612,-67.63981 41.76075,-34.96645 73.56056,-81.78654 90.32796,-133.64171 15.04455,-44.79393 18.15052,-93.17915 11.04076,-139.76872 C 783.79678,444.01311 747.60493,379.78259 694.53649,334.91586 641.81612,289.72989 572.68809,264.97988 503.44645,264.84951 z m 2.30521,20.32227 c 33.48283,0.33326 66.89365,6.26654 98.03223,18.80569 58.55241,22.46976 108.41782,66.20815 139.16208,120.78104 22.3727,39.98938 34.99071,85.69327 35.06351,131.57915 1.23753,57.67886 -16.74313,115.69744 -50.35071,162.5782 -27.92948,39.96511 -67.06958,71.84985 -111.49953,91.84455 -58.98919,26.47355 -127.38123,31.29023 -189.45213,13.16398 -48.16683,-13.73422 -92.2328,-41.25119 -126.05877,-78.1346 -39.04303,-42.39166 -63.93934,-97.3528 -70.49099,-154.57062 -3.08171,-33.70464 -1.65005,-68.10085 7.27962,-100.88341 13.24891,-51.51545 42.00341,-98.91791 81.53175,-134.49099 42.19754,-38.38787 96.69763,-62.67754 153.35735,-69.1564 11.08929,-1.10408 22.26464,-1.62768 33.42559,-1.51659 z" />
  <path
     style="fill:#f5e5c1;fill-opacity:1"
     id="path3623"
     d="m 503.44645,264.84951 c -12.82252,-0.0243 -25.61138,0.79622 -38.33934,2.4872 -38.65479,5.09573 -76.29043,17.82294 -110.0436,37.30806 -53.8692,31.2053 -97.43773,79.8453 -122.11564,137.03886 -19.89763,45.71602 -28.13574,96.60057 -23.1128,146.19905 5.77517,65.97763 35.02711,129.66218 81.22844,177.07678 43.14388,45.10938 101.22313,75.51393 162.76019,85.7782 24.77497,4.27071 50.12019,4.30711 75.16208,2.97251 59.98408,-4.80455 118.16038,-28.96076 164.21612,-67.63981 41.76075,-34.96645 73.56056,-81.78654 90.32796,-133.64171 15.04455,-44.79393 18.15052,-93.17915 11.04076,-139.76872 C 783.79678,444.01311 747.60493,379.78259 694.53649,334.91586 641.81612,289.72989 572.68809,264.97988 503.44645,264.84951 z m 2.30521,20.32227 c 33.48283,0.33326 66.89365,6.26654 98.03223,18.80569 58.55241,22.46976 108.41782,66.20815 139.16208,120.78104 22.3727,39.98938 34.99071,85.69327 35.06351,131.57915 1.23753,57.67886 -16.74313,115.69744 -50.35071,162.5782 -27.92948,39.96511 -67.06958,71.84985 -111.49953,91.84455 -58.98919,26.47355 -127.38123,31.29023 -189.45213,13.16398 -48.16683,-13.73422 -92.2328,-41.25119 -126.05877,-78.1346 -39.04303,-42.39166 -63.93934,-97.3528 -70.49099,-154.57062 -3.08171,-33.70464 -1.65005,-68.10085 7.27962,-100.88341 13.24891,-51.51545 42.00341,-98.91791 81.53175,-134.49099 42.19754,-38.38787 96.69763,-62.67754 153.35735,-69.1564 11.08929,-1.10408 22.26464,-1.62768 33.42559,-1.51659 z" />
  <path
     style="fill:#f5e5c1;fill-opacity:1"
     id="path3625"
     d="m 503.44645,264.84951 c -12.82252,-0.0243 -25.61138,0.79622 -38.33934,2.4872 -38.65479,5.09573 -76.29043,17.82294 -110.0436,37.30806 -53.8692,31.2053 -97.43773,79.8453 -122.11564,137.03886 -19.89763,45.71602 -28.13574,96.60057 -23.1128,146.19905 5.77517,65.97763 35.02711,129.66218 81.22844,177.07678 43.14388,45.10938 101.22313,75.51393 162.76019,85.7782 24.77497,4.27071 50.12019,4.30711 75.16208,2.97251 59.98408,-4.80455 118.16038,-28.96076 164.21612,-67.63981 41.76075,-34.96645 73.56056,-81.78654 90.32796,-133.64171 15.04455,-44.79393 18.15052,-93.17915 11.04076,-139.76872 C 783.79678,444.01311 747.60493,379.78259 694.53649,334.91586 641.81612,289.72989 572.68809,264.97988 503.44645,264.84951 z m 2.30521,20.32227 c 33.48283,0.33326 66.89365,6.26654 98.03223,18.80569 58.55241,22.46976 108.41782,66.20815 139.16208,120.78104 22.3727,39.98938 34.99071,85.69327 35.06351,131.57915 1.23753,57.67886 -16.74313,115.69744 -50.35071,162.5782 -27.92948,39.96511 -67.06958,71.84985 -111.49953,91.84455 -58.98919,26.47355 -127.38123,31.29023 -189.45213,13.16398 -48.16683,-13.73422 -92.2328,-41.25119 -126.05877,-78.1346 -39.04303,-42.39166 -63.93934,-97.3528 -70.49099,-154.57062 -3.08171,-33.70464 -1.65005,-68.10085 7.27962,-100.88341 13.24891,-51.51545 42.00341,-98.91791 81.53175,-134.49099 42.19754,-38.38787 96.69763,-62.67754 153.35735,-69.1564 11.08929,-1.10408 22.26464,-1.62768 33.42559,-1.51659 z" />
  <path
     style="fill:#f5e5c1;fill-opacity:1"
     id="path3627"
     d="m 503.44645,264.84951 c -12.82252,-0.0243 -25.61138,0.79622 -38.33934,2.4872 -38.65479,5.09573 -76.29043,17.82294 -110.0436,37.30806 -53.8692,31.2053 -97.43773,79.8453 -122.11564,137.03886 -19.89763,45.71602 -28.13574,96.60057 -23.1128,146.19905 5.77517,65.97763 35.02711,129.66218 81.22844,177.07678 43.14388,45.10938 101.22313,75.51393 162.76019,85.7782 24.77497,4.27071 50.12019,4.30711 75.16208,2.97251 59.98408,-4.80455 118.16038,-28.96076 164.21612,-67.63981 41.76075,-34.96645 73.56056,-81.78654 90.32796,-133.64171 15.04455,-44.79393 18.15052,-93.17915 11.04076,-139.76872 C 783.79678,444.01311 747.60493,379.78259 694.53649,334.91586 641.81612,289.72989 572.68809,264.97988 503.44645,264.84951 z m 2.30521,20.32227 c 33.48283,0.33326 66.89365,6.26654 98.03223,18.80569 58.55241,22.46976 108.41782,66.20815 139.16208,120.78104 22.3727,39.98938 34.99071,85.69327 35.06351,131.57915 1.23753,57.67886 -16.74313,115.69744 -50.35071,162.5782 -27.92948,39.96511 -67.06958,71.84985 -111.49953,91.84455 -58.98919,26.47355 -127.38123,31.29023 -189.45213,13.16398 -48.16683,-13.73422 -92.2328,-41.25119 -126.05877,-78.1346 -39.04303,-42.39166 -63.93934,-97.3528 -70.49099,-154.57062 -3.08171,-33.70464 -1.65005,-68.10085 7.27962,-100.88341 13.24891,-51.51545 42.00341,-98.91791 81.53175,-134.49099 42.19754,-38.38787 96.69763,-62.67754 153.35735,-69.1564 11.08929,-1.10408 22.26464,-1.62768 33.42559,-1.51659 z" />
  <path
     style="fill:#f5e5c1;fill-opacity:1"
     id="path3629"
     d="m 503.44645,264.84951 c -12.82252,-0.0243 -25.61138,0.79622 -38.33934,2.4872 -38.65479,5.09573 -76.29043,17.82294 -110.0436,37.30806 -53.8692,31.2053 -97.43773,79.8453 -122.11564,137.03886 -19.89763,45.71602 -28.13574,96.60057 -23.1128,146.19905 5.77517,65.97763 35.02711,129.66218 81.22844,177.07678 43.14388,45.10938 101.22313,75.51393 162.76019,85.7782 24.77497,4.27071 50.12019,4.30711 75.16208,2.97251 59.98408,-4.80455 118.16038,-28.96076 164.21612,-67.63981 41.76075,-34.96645 73.56056,-81.78654 90.32796,-133.64171 15.04455,-44.79393 18.15052,-93.17915 11.04076,-139.76872 C 783.79678,444.01311 747.60493,379.78259 694.53649,334.91586 641.81612,289.72989 572.68809,264.97988 503.44645,264.84951 z m 2.30521,20.32227 c 33.48283,0.33326 66.89365,6.26654 98.03223,18.80569 58.55241,22.46976 108.41782,66.20815 139.16208,120.78104 22.3727,39.98938 34.99071,85.69327 35.06351,131.57915 1.23753,57.67886 -16.74313,115.69744 -50.35071,162.5782 -27.92948,39.96511 -67.06958,71.84985 -111.49953,91.84455 -58.98919,26.47355 -127.38123,31.29023 -189.45213,13.16398 -48.16683,-13.73422 -92.2328,-41.25119 -126.05877,-78.1346 -39.04303,-42.39166 -63.93934,-97.3528 -70.49099,-154.57062 -3.08171,-33.70464 -1.65005,-68.10085 7.27962,-100.88341 13.24891,-51.51545 42.00341,-98.91791 81.53175,-134.49099 42.19754,-38.38787 96.69763,-62.67754 153.35735,-69.1564 11.08929,-1.10408 22.26464,-1.62768 33.42559,-1.51659 z" />
  <path
     style="fill:#f5e5c1;fill-opacity:1"
     id="path3631"
     d="m 503.44645,264.84951 c -12.82252,-0.0243 -25.61138,0.79622 -38.33934,2.4872 -38.65479,5.09573 -76.29043,17.82294 -110.0436,37.30806 -53.8692,31.2053 -97.43773,79.8453 -122.11564,137.03886 -19.89763,45.71602 -28.13574,96.60057 -23.1128,146.19905 5.77517,65.97763 35.02711,129.66218 81.22844,177.07678 43.14388,45.10938 101.22313,75.51393 162.76019,85.7782 24.77497,4.27071 50.12019,4.30711 75.16208,2.97251 59.98408,-4.80455 118.16038,-28.96076 164.21612,-67.63981 41.76075,-34.96645 73.56056,-81.78654 90.32796,-133.64171 15.04455,-44.79393 18.15052,-93.17915 11.04076,-139.76872 C 783.79678,444.01311 747.60493,379.78259 694.53649,334.91586 641.81612,289.72989 572.68809,264.97988 503.44645,264.84951 z m 2.30521,20.32227 c 33.48283,0.33326 66.89365,6.26654 98.03223,18.80569 58.55241,22.46976 108.41782,66.20815 139.16208,120.78104 22.3727,39.98938 34.99071,85.69327 35.06351,131.57915 1.23753,57.67886 -16.74313,115.69744 -50.35071,162.5782 -27.92948,39.96511 -67.06958,71.84985 -111.49953,91.84455 -58.98919,26.47355 -127.38123,31.29023 -189.45213,13.16398 -48.16683,-13.73422 -92.2328,-41.25119 -126.05877,-78.1346 -39.04303,-42.39166 -63.93934,-97.3528 -70.49099,-154.57062 -3.08171,-33.70464 -1.65005,-68.10085 7.27962,-100.88341 13.24891,-51.51545 42.00341,-98.91791 81.53175,-134.49099 42.19754,-38.38787 96.69763,-62.67754 153.35735,-69.1564 11.08929,-1.10408 22.26464,-1.62768 33.42559,-1.51659 z" />
  <path
     d="m 503.44645,264.84951 c -12.82252,-0.0242 -25.61138,0.79621 -38.33934,2.4872 -38.65479,5.09573 -76.29043,17.82294 -110.0436,37.30806 -53.8692,31.2053 -97.43773,79.8453 -122.11564,137.03886 -19.89763,45.71602 -28.13574,96.60057 -23.1128,146.19905 5.77517,65.97763 35.02711,129.66218 81.22844,177.07678 43.14388,45.10938 101.22313,75.51393 162.76019,85.7782 24.77497,4.27071 50.12019,4.30711 75.16208,2.97251 59.98408,-4.80455 118.16038,-28.96076 164.21612,-67.63981 41.76075,-34.96645 73.56056,-81.78654 90.32796,-133.64171 15.04455,-44.79393 18.15052,-93.17915 11.04076,-139.76872 C 783.79678,444.01311 747.60493,379.78259 694.53649,334.91586 641.81612,289.72989 572.68808,264.97988 503.44645,264.84951 z m 2.30521,20.32227 c 33.48284,0.33327 66.89364,6.26653 98.03223,18.80569 58.55241,22.46976 108.41782,66.20815 139.16208,120.78104 22.3727,39.98938 34.99071,85.69327 35.06351,131.57915 1.23753,57.67886 -16.74313,115.69744 -50.35071,162.5782 -27.92948,39.96511 -67.06958,71.84985 -111.49953,91.84455 -58.98919,26.47355 -127.38123,31.29023 -189.45213,13.16398 -48.16683,-13.73422 -92.2328,-41.25119 -126.05877,-78.1346 -39.04303,-42.39166 -63.93934,-97.3528 -70.49099,-154.57062 -3.08171,-33.70464 -1.65005,-68.10085 7.27962,-100.88341 13.24891,-51.51545 42.00341,-98.91791 81.53175,-134.49099 42.19754,-38.38787 96.69763,-62.67754 153.35735,-69.1564 11.08929,-1.10408 22.26465,-1.62769 33.42559,-1.51659 z"
     id="path16"
     style="fill:#f5e5c1;fill-opacity:1" />
  <path
     d="m 381.01536,350.27586 c 54.96113,13.85554 111.32966,20.98957 167.5526,27.46843 42.39166,4.70749 84.95318,7.69213 127.53896,9.58484 -7.66787,33.00094 -14.87469,66.09895 -22.59109,99.07564 -66.09896,-13.61289 -132.10085,-27.5655 -198.17555,-41.17839 -7.91052,28.00227 -15.8453,55.98028 -23.75583,83.98256 30.52588,-6.04209 62.04664,-6.67299 92.81517,-2.18389 34.89365,4.95014 70.32114,13.78275 99.8764,33.77744 4.51336,1.65005 -0.80076,5.02294 -2.98465,5.38692 -35.67014,14.0982 -71.19469,28.65744 -106.91336,42.73138 -26.42502,-9.22086 -54.59716,-11.86579 -82.45384,-11.91432 -41.39678,0.89782 -82.72076,5.70237 -123.19545,14.41365 24.14408,-87.04 48.19109,-174.10426 72.28664,-261.14426 z"
     id="path20"
     style="fill:#f4722b" />
  <path
     d="m 107.35014,478.37292 c 1.3346,0.41251 3.95526,1.21327 5.26559,1.60151 4.05233,18.5873 10.96797,37.29593 23.27053,52.04929 16.20929,17.25271 34.72379,32.32152 54.06331,45.91015 4.65896,78.40151 39.21289,154.93459 96.28512,209.09497 3.83394,4.12512 8.68702,7.42522 11.6474,12.25403 -1.67432,12.30256 -3.32436,24.72645 -7.74067,36.42237 -4.31924,18.99981 -9.5363,39.771 -0.84929,58.38256 -3.20303,-1.8927 -5.96929,-4.39204 -7.86199,-7.59507 -17.08284,-25.57574 -23.82862,-56.78104 -42.39166,-81.48322 -8.95393,-11.06503 -18.02919,-22.27564 -29.23981,-31.15678 -14.80189,-11.25915 -30.30749,-21.57195 -44.86673,-33.12228 -10.94369,-10.96796 -22.71241,-21.40208 -31.05971,-34.60246 -9.22086,-14.26806 -15.57839,-30.06483 -23.1492,-45.20645 -6.79431,-15.55412 -9.75469,-32.44284 -13.855542,-48.82199 -2.572133,-27.5655 -2.911848,-55.42218 -0.02426,-82.98767 4.537627,-16.6946 7.983317,-33.60759 10.506917,-50.73896 z"
     id="path22"
     style="fill:#f4722b" />
  <path
     d="m 741.25953,532.70316 c 4.27071,-1.86844 8.88113,-2.76626 13.44303,-3.61555 2.64493,5.7509 5.21706,11.55033 7.52227,17.44682 -76.26616,36.05839 -152.70218,71.8256 -228.58009,108.63621 0.67943,21.01384 -17.68948,39.86806 -38.53346,40.45043 -10.40986,0.84929 -20.01896,-3.83393 -28.63318,-9.07526 -39.28568,18.90275 -78.88682,37.1746 -118.07545,56.27147 -7.18256,-12.56948 -11.76872,-26.44929 -19.55791,-38.67905 41.34825,-16.50048 82.38104,-33.89877 123.36531,-51.24853 1.65004,-12.9092 8.00758,-25.79413 19.60644,-32.44285 13.00626,-8.42009 30.7928,-8.17744 43.4836,0.72796 2.96038,2.35375 6.64873,3.59128 10.16721,1.48019 71.89839,-29.99203 143.84531,-59.98407 215.79223,-89.95184 z"
     id="path24"
     style="fill:#f5e5c1" />
  <path
     d="m 346.87393,657.96116 c 7.44948,5.24133 15.33574,9.80323 22.46977,15.48133 -13.00626,5.16853 -26.08531,10.19147 -39.04304,15.48133 5.60531,-10.26427 10.96797,-20.67413 16.57327,-30.96266 z"
     id="path28"
     style="fill:#f4722b" />
  <path
     id="path30"
     d="m 342.57008,759.75739 c -8.95394,-14.0254 -16.4916,-32.05746 -25.25141,-46.17992 -4.99867,9.26938 -9.80322,18.63583 -14.89895,27.83241 10.70104,8.00759 21.17568,12.48511 38.38786,20.79545 34.62673,11.40474 66.02616,20.21309 98.29915,24.58086 47.80284,7.98332 98.51754,5.33839 143.2872,-14.36512 32.63697,-14.24379 61.46427,-39.55261 75.29555,-72.84474 11.59886,-28.34199 14.6563,-60.97896 4.82881,-90.29156 -36.4709,17.20417 -72.89327,34.52966 -109.29137,51.85516 -5.02294,1.57725 -3.76114,7.86199 -5.16853,11.84152 -3.46995,22.76095 -25.30882,40.45043 -48.16683,40.20777 -11.33194,0.65517 -21.83886,-4.07659 -31.61782,-9.19659 -41.29971,18.15052 -84.11276,38.3422 -125.70366,55.76476 z"
     style="fill:#f4722b;fill-opacity:1"
     sodipodi:nodetypes="ccccccccccccc" />
  <path
     d="m 371.47905,837.11263 c 36.51943,21.45062 79.20228,29.84645 121.13289,31.18105 14.48645,2.5236 28.99716,-0.60664 43.53214,-0.60664 37.1018,-3.00891 74.54331,-11.33194 106.8163,-30.57441 0.0728,30.30749 0.0971,60.63925 0.0485,90.94673 -35.2819,20.28588 -76.04777,28.53612 -116.32834,30.47735 -52.82578,1.91697 -108.75754,-3.17877 -154.98313,-30.96265 -0.50957,-30.1619 -0.12133,-60.3238 -0.21839,-90.46143 z"
     id="path32"
     style="fill:#f5e5c1" />
  <path
     d="m 417.38919,964.53026 c 37.85403,10.48266 77.52797,13.07906 116.61953,10.60398 19.48512,-1.62578 39.09156,-4.00379 57.92152,-9.4635 0.21839,12.37535 0.12132,24.75071 0.14559,37.15036 -58.23697,0 -116.47393,0 -174.7109,0 0,-12.76363 -0.0243,-25.52723 0.0243,-38.29084 z"
     id="path34"
     style="fill:#f5e5c1" />
</svg>
