<?xml version="1.0" encoding="UTF-8" standalone="no"?>
<svg
   xmlns:dc="http://purl.org/dc/elements/1.1/"
   xmlns:cc="http://creativecommons.org/ns#"
   xmlns:rdf="http://www.w3.org/1999/02/22-rdf-syntax-ns#"
   xmlns:svg="http://www.w3.org/2000/svg"
   xmlns="http://www.w3.org/2000/svg"
   xmlns:sodipodi="http://sodipodi.sourceforge.net/DTD/sodipodi-0.dtd"
   xmlns:inkscape="http://www.inkscape.org/namespaces/inkscape"
   width="1280"
   height="1280"
   viewBox="0 0 1024 1024"
   version="1.1"
   id="svg3270"
   inkscape:version="0.48.1 "
   sodipodi:docname="assist_capturer.svg">
  <metadata
     id="metadata3306">
    <rdf:RDF>
      <cc:Work
         rdf:about="">
        <dc:format>image/svg+xml</dc:format>
        <dc:type
           rdf:resource="http://purl.org/dc/dcmitype/StillImage" />
      </cc:Work>
    </rdf:RDF>
  </metadata>
  <defs
     id="defs3304" />
  <sodipodi:namedview
     pagecolor="#ffffff"
     bordercolor="#666666"
     borderopacity="1"
     objecttolerance="10"
     gridtolerance="10"
     guidetolerance="10"
     inkscape:pageopacity="0"
     inkscape:pageshadow="2"
     inkscape:window-width="1920"
     inkscape:window-height="1018"
     id="namedview3302"
     showgrid="false"
     inkscape:zoom="0.6609375"
     inkscape:cx="640"
     inkscape:cy="640"
     inkscape:window-x="-8"
     inkscape:window-y="-8"
     inkscape:window-maximized="1"
     inkscape:current-layer="layer1"
     inkscape:snap-page="true" />
  <g
     inkscape:groupmode="layer"
     id="layer1"
     inkscape:label="background">
    <rect
       style="fill:#3e3e3e;fill-opacity:1;fill-rule:nonzero;stroke:none"
       id="rect2995"
       width="1280"
       height="1280"
       x="0"
       y="0"
       transform="scale(0.8,0.8)" />
  </g>
  <g
     inkscape:groupmode="layer"
     id="layer2"
     inkscape:label="foreground">
    <path
       d="m 370.72682,30.7928 c 5.67811,-1.67432 11.72019,-0.94635 17.54389,-1.11621 88.20474,0.16986 176.40948,-0.0485 264.61422,0.0971 6.60019,-1.11621 12.08417,4.87735 12.03564,11.21062 0.31545,44.45421 0.0728,88.90843 0.12133,133.33838 -19.70351,15.62692 -31.88474,37.75697 -45.57043,58.30977 -15.74825,-10.74958 -32.34578,-20.14029 -49.25877,-28.9001 -28.73024,-13.73422 -59.78995,-21.28076 -90.21877,-30.13763 -16.52474,-4.90161 -32.87962,-10.28853 -49.33156,-15.38426 -18.90275,-4.99868 -33.99583,-18.27185 -48.28815,-30.93839 -7.57081,-6.30901 -13.24891,-14.7291 -17.01005,-23.7801 -1.01915,-19.94616 -0.0971,-39.98938 -0.41251,-59.98407 -0.50957,-4.97441 1.62578,-9.85176 5.77516,-12.71507 z"
       id="path3274"
       style="fill:#f4722b" />
    <path
       d="m 326.56379,48.06976 c 4.68322,3.78541 5.33839,10.26427 7.98332,15.40853 4.34351,8.9782 7.61934,18.41744 11.84152,27.44417 9.70616,17.71375 21.42635,34.43261 35.50028,48.99185 19.50938,18.80569 45.83735,27.0074 70.70938,36.00986 15.04455,5.48398 31.15678,7.20683 46.24986,12.56948 26.49782,9.17232 53.28683,17.73801 78.61991,29.87071 10.24,5.6781 20.4072,11.55033 30.6472,17.2527 1.9655,8.68702 -3.61554,16.28209 -7.0127,23.7801 -9.22085,15.86957 -21.42635,30.0163 -35.62161,41.66369 -7.42522,6.62446 -15.48133,12.8364 -24.72645,16.64607 -6.33327,1.84417 -13.03052,0.48531 -19.29099,-0.94635 -37.8055,-9.58484 -75.87792,-18.0292 -113.99887,-26.32796 -12.59374,-1.8927 -20.21308,-13.07906 -28.09933,-21.86313 -7.0127,-6.84284 -12.37536,-15.14161 -16.88872,-23.7801 -8.49289,-17.1799 -20.01896,-33.00094 -25.45441,-51.58824 -7.98332,-19.99469 -15.26294,-40.59602 -17.44682,-62.1437 -0.41252,-13.66142 -0.75223,-27.37137 1.23753,-40.91147 0.84929,-14.19526 5.79943,-27.80815 5.7509,-42.07621 z"
       id="path3276"
       style="fill:#f5e5c1" />
    <path
       style="fill:#f5e5c1"
       d="M 991.125 171.71875 C 973.83679 171.67817 956.61893 172.52695 940.03125 178.0625 C 882.37059 187.40468 833.94583 225.95731 800.15625 272.03125 C 789.44914 291.17059 776.1465 308.63275 763.4375 326.4375 C 742.69058 360.01475 713.64712 388.96269 679.28125 408.375 C 705.33622 416.23093 730.14743 429.55184 749.46875 448.8125 C 779.25453 479.59923 784.9476 524.49055 785.28125 565.46875 C 783.49168 565.49913 779.94583 565.56337 778.15625 565.59375 C 777.48895 548.66863 773.046 532.24129 771.46875 515.4375 C 767.25263 491.77874 755.01514 470.28545 740.03125 451.84375 C 716.61514 428.18497 683.83546 417.92305 652.59375 409.1875 C 627.38806 399.57234 600.384 396.33298 574.875 387.71875 C 549.69965 379.71118 522.08249 381.36706 497.96875 369.75 C 480.19434 361.65143 459.76241 359.80089 443.65625 348.0625 C 422.45435 332.86629 398.2744 321.28458 380.5 301.78125 C 354.809 275.8476 325.43801 252.22887 307.90625 219.53125 C 298.44275 205.57864 294.74561 188.89014 287.375 173.90625 C 282.7949 194.50151 284.24544 215.72643 283.0625 236.625 C 283.6388 260.2231 284.17809 284.49291 292.125 306.96875 C 305.44065 349.3422 322.11153 390.74429 343.34375 429.78125 C 355.68877 462.32723 377.1648 490.27496 399.125 516.90625 C 411.04537 531.22284 421.3452 546.9555 434.8125 559.9375 C 449.94805 576.40764 464.76689 594.06955 484.9375 604.625 C 484.2702 608.23447 483.60571 611.92269 482.96875 615.5625 C 458.855 603.39946 440.69541 582.75879 421.34375 564.46875 C 397.16934 538.14079 378.4179 507.47875 357.125 478.90625 C 345.81126 473.81051 333.29539 476.51107 321.375 474.8125 C 311.57785 473.4779 302.11333 470.37874 292.4375 468.4375 C 275.90669 465.374 261.58586 455.87617 247.90625 446.625 C 221.48729 425.69609 196.81508 402.65504 171.09375 380.9375 C 148.37526 365.92329 124.36188 352.94159 101.21875 338.625 C 92.816855 334.07524 84.812796 326.5266 74.5 328.4375 C 68.979621 371.38726 73.375948 414.80575 72.375 457.9375 C 76.196801 502.94983 84.13196 547.74233 97.78125 590.84375 C 114.46371 632.30726 135.27337 671.91979 153.59375 712.625 C 183.74351 703.8288 208.68385 682.3173 239.53125 675.25 C 256.18337 674.03672 274.8857 677.23491 286.59375 690.15625 C 319.29139 723.49084 347.44887 761.62563 367.4375 803.96875 C 388.48774 839.76021 410.52963 875.01008 435.25 908.375 C 450.0519 931.36648 467.63816 952.99494 489.75 969.34375 C 520.5974 991.15229 555.9226 1010.7087 594.65625 1011.4062 C 629.35578 1008.8584 664.1094 1001.6659 695.59375 986.5 C 710.48665 979.31137 725.65951 972.66935 740.21875 964.84375 C 776.31354 942.03428 810.78491 916.61753 842.90625 888.5 C 869.68919 861.74739 898.7558 836.80513 920.625 805.59375 C 964.90936 747.6601 1002.205 684.12695 1028.5938 616.0625 C 1043.5775 582.0606 1053.2655 545.95235 1058.9375 509.28125 C 1072.4351 457.56561 1080.5655 403.06108 1108.5312 356.5625 C 1122.211 334.29899 1138.0005 313.32686 1154.5312 293.15625 C 1171.0015 278.59701 1192.1944 270.14937 1206.875 253.40625 C 1195.4703 247.09724 1182.3754 249.79137 1170 249.09375 C 1157.8673 246.8492 1153.1942 233.82465 1144.125 227 C 1127.1999 213.59338 1111.485 198.24845 1092.4062 187.875 C 1069.6272 180.38305 1046.0291 174.84935 1022.2188 171.9375 C 1011.9135 172.08537 1001.4979 171.7431 991.125 171.71875 z M 1045.9688 232.375 C 1057.822 231.57313 1068.0775 246.70024 1061.2812 257.25 C 1056.9438 266.28886 1043.6307 268.78238 1036.5938 261.59375 C 1027.2212 253.49517 1031.3397 235.75376 1043.5938 232.78125 C 1044.3937 232.5803 1045.1785 232.42846 1045.9688 232.375 z M 641.09375 592.75 C 656.92345 592.51294 672.84673 597.16629 685.6875 606.5625 C 708.58798 622.48666 721.10309 652.02128 716.25 679.5625 C 711.0936 714.41369 678.55065 743.09469 643.0625 742.09375 C 602.93359 744.00465 565.51187 707.55723 567.96875 667.125 C 566.45216 634.12405 591.2353 603.44049 622.75 595.28125 C 628.73009 593.67746 634.89952 592.84276 641.09375 592.75 z "
       id="path3278"
       transform="scale(0.8,0.8)" />
    <path
       d="m 33.607583,373.63867 c -1.043412,-7.78919 6.551659,-11.21061 12.642275,-13.07905 2.790521,18.92702 5.43545,37.87829 7.764929,56.85384 4.076587,19.89763 9.414976,39.55261 15.699715,58.81934 15.918105,35.88853 32.636968,71.43734 48.433748,107.35014 3.34862,0.0243 6.84284,0.0243 9.82748,-1.67431 17.27697,-8.56569 34.50541,-17.15564 51.80664,-25.62427 13.22464,-6.64872 30.67147,-7.0127 42.46445,2.79052 6.89138,6.11488 12.982,13.15185 18.27185,20.72266 17.68948,27.20151 35.25763,54.47582 53.0927,81.58028 -81.7744,0.21839 -163.54881,0 -245.323218,0.0971 -5.945024,0.46104 -13.24891,-2.28095 -14.340853,-8.85687 -0.800759,-6.40607 -0.388247,-12.88493 -0.436778,-19.31526 0.121327,-86.55469 -0.0728,-173.10939 0.09706,-259.66408 z"
       id="path3282"
       style="fill:#f4722b" />
    <path
       d="m 220.96076,361.72436 c 17.13137,-0.72796 34.26275,-0.21839 51.39412,-0.36398 0.72796,3.97953 1.45593,7.93479 2.18389,11.93858 -18.56304,0.33971 -36.59223,-4.34351 -53.57801,-11.5746 z"
       id="path3284"
       style="fill:#f4722b" />
    <path
       d="m 867.00284,362.52512 c 4.19792,-2.01403 9.1238,-0.94635 13.66143,-1.23754 33.21933,0.19413 66.46293,0.0485 99.68227,0.0485 5.07147,-0.0243 11.18635,0.60664 14.26806,5.2656 4.87734,7.08549 3.39715,16.03943 3.61554,24.14407 -0.0971,84.12815 -0.0728,168.2563 0,252.40872 0.24266,6.98844 -2.93611,15.06882 -9.90028,17.66522 -5.8237,1.14047 -11.81725,0.58237 -17.68948,0.67943 -78.32872,-0.16986 -156.65744,0.0971 -234.98616,-0.12133 24.48379,-31.49649 48.40948,-63.67242 67.04531,-99.05138 19.09687,-34.67525 35.40322,-71.09762 46.0072,-109.29137 6.47886,-30.06483 11.72019,-60.46938 18.29611,-90.50995 z"
       id="path3286"
       style="fill:#f4722b" />
    <path
       d="m 815.36607,686.73517 c 6.64872,5.99355 12.18123,13.37023 19.7035,18.34464 24.70218,11.08929 53.48095,5.38692 77.96474,17.30123 5.77517,2.54787 7.81346,9.39071 7.54654,15.23868 0.97062,10.62824 -8.10464,18.46597 -16.23355,23.58597 -17.22844,7.76493 -39.33422,4.56189 -52.94711,-8.88114 -20.35867,-15.72398 -32.44284,-40.45043 -36.03412,-65.58938 z"
       id="path3290"
       style="fill:#f4722b" />
    <path
       d="m 183.25232,702.38635 c 5.43545,-4.24645 7.40095,-12.37536 15.11735,-13.44303 -0.87356,13.15185 -7.6436,24.70218 -14.29232,35.71867 -6.77005,12.95773 -18.15053,22.97934 -30.40455,30.67147 -13.70996,8.61422 -31.59356,9.94881 -46.66237,4.22218 -8.784079,-4.70749 -17.980667,-13.49156 -16.451947,-24.411 -0.169857,-9.41497 9.463507,-16.79165 18.441707,-16.52473 17.1799,0 34.5782,-0.12133 51.46692,-3.80967 8.71128,-1.65005 16.0637,-6.93991 22.78521,-12.42389 z"
       id="path3292"
       style="fill:#f4722b" />
    <path
       style="fill:#f4722b"
       d="M 831.46875 913.78125 C 803.6242 941.20115 769.96603 961.55456 736.84375 981.9375 C 716.24849 992.46261 695.13939 1001.9372 673.9375 1011.2188 C 654.88915 1020.5003 633.34435 1022.1387 612.71875 1025.6875 C 569.22302 1031.6932 525.30889 1015.7324 491.125 989.34375 C 477.05107 980.09258 467.90106 965.67038 456.375 953.75 C 455.92002 1042.2884 456.42831 1130.8375 456.125 1219.4062 C 456.18566 1223.7437 456.05973 1228.1938 457 1232.5312 C 460.15451 1239.8715 468.47681 1242.6783 475.96875 1242.375 C 588.3479 1242.375 700.71461 1242.4945 813.09375 1242.3125 C 822.64826 1243.1011 832.40261 1235.8156 831.25 1225.5938 C 831.55333 1121.6468 831.10478 1017.6978 831.46875 913.78125 z M 617.46875 1083.1562 C 618.50003 1091.0122 619.59008 1098.8968 619.46875 1106.8438 C 618.83179 1129.9262 628.28021 1151.583 632.375 1173.9375 C 633.37595 1188.4967 631.3947 1206.781 617.59375 1215.0312 C 611.31508 1220.0966 603.45791 1215.8135 596.90625 1213.7812 C 594.29773 1206.8049 591.66819 1199.6151 592.0625 1192.0625 C 593.85208 1155.0274 613.32266 1120.8356 611.59375 1083.4062 L 617.46875 1083.1562 z "
       id="path3294"
       transform="scale(0.8,0.8)" />
    <path
       d="m 287.73915,818.5691 c 1.23753,-0.0243 3.7126,-0.0485 4.95014,-0.0485 0.99488,12.8364 0.72796,25.81839 -2.45081,38.3636 -3.97952,24.58085 -15.45706,50.18085 -38.12094,62.75033 -8.61422,6.01782 -20.45574,5.26559 -29.48247,0.55811 -6.89137,-4.46484 -9.51204,-12.76361 -12.56948,-19.97043 1.94123,-7.23109 3.931,-15.14161 10.50692,-19.65498 12.05991,-8.95393 27.29858,-12.32682 39.40702,-21.37782 14.43791,-8.71128 25.81838,-23.61023 27.75962,-40.62028 z"
       id="path3296"
       style="fill:#f4722b" />
    <path
       d="m 719.17801,820.29194 5.45972,0.87356 c 3.03317,9.73042 3.51848,20.50426 9.5363,29.09422 5.33839,9.85175 16.79166,12.88492 25.98824,17.85933 12.59375,6.93991 28.07508,9.19659 38.04816,20.28588 9.24512,11.23488 3.10597,30.0891 -10.72531,34.21422 -10.3128,2.35374 -22.00872,1.60151 -30.50161,-5.31413 -9.56057,-8.44436 -18.85422,-17.8108 -23.92569,-29.72511 -9.70616,-20.94105 -13.63716,-44.30863 -13.87981,-67.28797 z"
       id="path3298"
       style="fill:#f4722b" />
  </g>
</svg>
