<?xml version="1.0" encoding="UTF-8" standalone="no"?>
<svg
   xmlns:dc="http://purl.org/dc/elements/1.1/"
   xmlns:cc="http://creativecommons.org/ns#"
   xmlns:rdf="http://www.w3.org/1999/02/22-rdf-syntax-ns#"
   xmlns:svg="http://www.w3.org/2000/svg"
   xmlns="http://www.w3.org/2000/svg"
   xmlns:sodipodi="http://sodipodi.sourceforge.net/DTD/sodipodi-0.dtd"
   xmlns:inkscape="http://www.inkscape.org/namespaces/inkscape"
   width="1280"
   height="1280"
   viewBox="0 0 1024 1024"
   version="1.1"
   id="svg2"
   inkscape:version="0.47 r22583"
   sodipodi:docname="assist_medic.svg">
  <metadata
     id="metadata24">
    <rdf:RDF>
      <cc:Work
         rdf:about="">
        <dc:format>image/svg+xml</dc:format>
        <dc:type
           rdf:resource="http://purl.org/dc/dcmitype/StillImage" />
      </cc:Work>
    </rdf:RDF>
  </metadata>
  <defs
     id="defs22" />
  <sodipodi:namedview
     pagecolor="#ffffff"
     bordercolor="#666666"
     borderopacity="1"
     objecttolerance="10"
     gridtolerance="10"
     guidetolerance="10"
     inkscape:pageopacity="0"
     inkscape:pageshadow="2"
     inkscape:window-width="1280"
     inkscape:window-height="738"
     id="namedview20"
     showgrid="false"
     inkscape:zoom="0.2799099"
     inkscape:cx="583.79626"
     inkscape:cy="631.42444"
     inkscape:window-x="-8"
     inkscape:window-y="-8"
     inkscape:window-maximized="1"
     inkscape:current-layer="svg2" />
  <path
     d="m 0,0 1024,0 0,1024 L 0,1024 0,0 z"
     id="path4"
     style="fill:#3e3e3e" />
  <path
     d="m 342.28777,46.37118 c 7.81346,-5.21706 17.61668,-3.42142 26.44929,-3.68834 101.91469,0.0728 203.85365,0 305.76834,0.0243 11.52607,-0.58237 22.32417,8.63848 23.85289,19.99469 0.94635,8.20171 0.41252,16.45194 0.48531,24.67792 0,78.45004 0,156.90009 0,235.35014 6.57593,0 13.12758,0 19.70351,0.0243 -9.36645,29.65233 -20.14029,58.9892 -26.25517,89.56361 -6.72151,33.51052 -13.51583,66.99677 -20.28587,100.48303 -2.47507,-1.31033 -4.95015,-2.5964 -7.42522,-3.88247 1.16474,-45.13365 5.8237,-90.14597 5.14427,-135.30388 0.0243,-67.91886 -0.0485,-135.81346 0.0485,-203.73232 0,-8.05612 -1.06768,-16.03944 -2.47507,-23.94996 -7.81346,-6.86711 -13.37024,-16.47621 -23.1492,-20.86824 -11.76872,-5.04721 -25.76985,-4.65896 -37.05327,1.55298 -10.89516,3.931 -16.76739,15.65119 -18.17478,26.52209 -10.96797,103.589 -23.61024,207.00815 -31.08398,310.88834 -4.12512,-3.63981 -11.47754,-5.96929 -11.04076,-12.56948 -3.51849,-46.97782 -6.89138,-93.97991 -10.62825,-140.95773 -7.81346,-65.34673 -16.52474,-130.59639 -23.22199,-196.06445 -0.82502,-3.46995 -0.19412,-7.74066 -2.83905,-10.50692 -12.47242,-12.61801 -30.84133,-21.76607 -48.87052,-17.34976 -12.69081,1.69858 -23.65877,8.61422 -33.87451,15.86957 -7.76492,4.92588 -12.0599,14.63204 -10.82236,23.7073 5.96928,79.9545 7.54654,160.15166 10.45838,240.27602 3.03318,31.18104 9.19659,62.02237 12.08417,93.25194 -35.03924,-98.90578 -70.15128,-197.76303 -105.23905,-296.64455 -2.30521,-6.3818 -2.74199,-13.20038 -2.62066,-19.92189 0.19412,-25.01763 -0.0485,-50.03526 0.0971,-75.02863 -0.33972,-8.51716 3.66408,-17.15564 10.96796,-21.71754 z"
     id="path6"
     style="fill:#f4722b" />
  <path
     d="m 468.26161,94.0891 c -5.67728,0.009 -11.34407,1.26635 -16.50047,3.94313 -11.38048,5.84796 -25.5636,16.01516 -22.50616,30.69573 2.66919,16.84019 0.53384,33.95943 2.30521,50.89668 2.06256,16.88872 1.14047,33.93517 2.42654,50.89669 2.47507,24.14407 0.60663,48.5308 3.27583,72.67488 0.87355,21.88739 1.24967,43.78692 3.70047,65.57725 5.02294,30.67147 9.30579,61.48853 14.01327,92.20853 0.58237,5.28986 0.24266,10.60398 -0.12132,15.89384 -8.12891,0.7037 -16.50048,1.49232 -24.26541,-1.51659 -34.67526,-102.06028 -70.19981,-203.84151 -104.82654,-305.92606 -3.00891,-9.14806 -9.12379,-19.71564 -20.14028,-19.47299 -11.01649,0.92208 -23.42825,4.62256 -29.66446,14.49858 -5.07147,6.40606 -9.83962,13.83128 -8.3109,22.4455 2.20816,23.0036 9.63337,45.14578 13.58863,67.88246 2.71772,11.25915 4.98654,22.61536 7.82559,33.85024 7.23109,34.02009 16.00303,67.7126 22.74882,101.85403 6.40606,34.82085 17.05857,68.68322 28.63317,102.09668 3.20304,24.11981 2.82692,48.44587 2.60853,72.73554 0.43678,11.47754 -7.23109,20.66199 -13.10331,29.78578 -4.4891,6.13915 -7.1947,13.44304 -11.70806,19.53365 -7.32815,3.49422 -14.70484,-2.4508 -21.83886,-3.88246 -23.56171,-6.43033 -47.17195,-12.66654 -70.491,-20.01896 -13.10332,-4.65896 -23.86502,-13.67355 -35.36682,-21.17156 -22.76095,-12.2783 -48.03337,-20.4436 -73.94882,-21.89953 -16.88872,0.60664 -34.481137,1.34673 -49.622748,9.76683 -9.681896,3.68834 -16.112228,11.99924 -22.202844,19.95829 0.946351,1.94123 1.868436,3.95526 2.790522,5.94502 17.349763,6.5274 34.930047,12.50882 52.352606,18.86636 23.610234,6.8671 42.622184,23.18559 63.636024,35.24549 24.53232,19.72777 46.98995,41.89422 71.27962,61.93744 10.45838,8.15318 18.4053,18.95128 25.78199,29.84645 12.61801,18.87848 24.75071,38.16948 38.46066,56.29573 18.87848,27.73536 32.81896,58.55242 52.47393,85.7782 8.61422,12.01138 21.24436,20.14029 34.27489,26.57062 11.9871,7.76493 26.40075,9.26938 39.67393,13.70995 11.16208,3.63981 23.06426,2.60853 34.51753,4.79242 25.98825,4.4891 52.4982,2.76625 78.68057,5.33839 31.71488,-1.28607 63.52683,-3.21517 94.7564,-9.28152 10.74957,-3.34863 20.31014,-10.09441 28.39052,-17.83507 11.55033,-12.93346 14.8019,-30.62294 19.16967,-46.83223 12.86066,-42.75564 27.68683,-84.89251 39.55261,-127.93933 6.21194,-16.08797 11.44113,-32.58844 13.77061,-49.74408 2.49934,-12.98199 6.75792,-25.72133 7.21896,-39.0673 0.80076,-21.79033 -3.06957,-43.87185 0.78863,-65.51659 6.55166,-32.41858 13.09118,-64.81289 19.83696,-97.18294 3.71261,-17.27696 6.87925,-34.72379 12.3147,-51.56398 3.90673,-21.76606 6.22407,-44.1509 14.86255,-64.72796 2.52361,-23.58597 6.74579,-47.01422 8.37157,-70.67298 1.14047,-14.99602 -7.91052,-28.99716 -20.26161,-36.76209 -9.6819,-3.73687 -21.15943,0.0728 -27.78389,7.76493 -2.57213,9.63336 -4.63469,19.42445 -6.79431,29.17915 -10.57972,38.89744 -25.86692,76.33895 -37.61138,114.89668 -8.05611,32.97668 -13.58862,66.4872 -20.50426,99.7308 -2.79052,11.21062 -7.34029,21.94806 -11.82939,32.57631 -6.40606,-3.54275 -12.61801,-7.41308 -18.56303,-11.70806 -2.4508,-25.06616 -0.47317,-50.38711 1.75924,-75.40474 0.80076,-19.72777 4.57403,-39.43128 2.24455,-59.20758 -4.00379,-23.7801 -1.97763,-47.91204 -2.00189,-71.88626 0.58237,-23.44038 -0.37612,-46.94142 1.88057,-70.309 0.38824,-25.09043 0.5217,-50.19299 0.90995,-75.28341 0.70369,-9.31792 -5.52038,-17.19204 -11.10142,-23.96209 -8.63849,-5.36265 -19.46086,-7.29175 -29.48247,-5.88436 -7.13403,2.71773 -14.21952,7.97119 -16.50047,15.59052 -4.17365,12.52095 -6.39394,25.55147 -7.21896,38.70332 -2.03829,7.23109 -1.49232,14.80189 -2.12322,22.20284 -2.88758,10.91943 -0.86142,22.32417 -2.97251,33.36493 -1.74711,9.65763 -1.2618,19.50939 -2.18389,29.23981 -2.25668,9.41498 -1.2254,19.24247 -2.97251,28.7545 -3.00891,41.54237 -10.88304,82.5873 -13.16398,124.1782 -0.12133,14.77763 -2.83906,29.36114 -2.54787,44.16304 -12.10844,8.88113 -32.56417,-2.43868 -31.90901,-17.53176 -4.53763,-47.77858 -7.40094,-95.64208 -12.25402,-143.34786 C 516.75602,243.68531 508.89403,176.94332 500.47393,110.28626 493.25044,100.04322 480.75165,94.06935 468.26161,94.0891 z M 350.51374,621.01232 c 5.39906,-0.0243 10.83451,0.84929 16.01517,2.30522 15.74825,3.97952 31.93327,8.2745 45.3763,17.83507 10.79811,7.5708 20.18882,16.97365 29.96778,25.78199 24.99336,25.6 40.97213,58.74654 50.89668,92.81516 1.35886,5.45972 1.79564,11.11356 2.30521,16.74313 -4.78028,0.89782 -11.48967,3.00891 -14.25592,-2.66919 -6.89138,-16.88872 -11.96285,-34.48114 -19.53365,-51.07868 -9.65763,-16.67033 -19.42446,-33.44985 -31.84834,-48.22748 -14.21953,-14.2438 -29.34901,-28.25707 -47.74218,-36.94408 -14.97176,-6.55166 -30.84133,-10.8709 -46.95356,-13.4673 5.03507,-2.11109 10.37346,-3.06957 15.77251,-3.09384 z"
     id="path8"
     style="fill:#f5e5c1;fill-opacity:1" />
  <path
     d="m 47.463128,347.14085 c -0.31545,-10.89516 7.667867,-21.28076 18.296114,-23.58597 7.86199,-1.40739 15.918104,-0.75223 23.852891,-0.84929 65.589387,0.0485 131.154507,0 196.743887,0.0485 7.69213,36.20398 14.34085,72.65062 22.66389,108.73327 4.90161,23.0764 17.13137,43.87185 21.7418,66.99678 1.72284,17.39829 1.50445,34.94218 2.59639,52.38901 0,8.58995 1.31034,18.27184 -4.17365,25.6 -6.8671,9.34218 -11.93857,20.16455 -20.74691,27.95374 -23.92569,-7.30389 -48.09403,-13.90408 -72.06825,-21.08664 -12.49668,-5.09573 -24.48379,-11.89004 -34.60247,-20.89251 -8.15317,-7.03696 -18.56303,-10.38559 -27.95374,-15.2872 -14.0254,-7.27962 -29.99204,-8.22597 -45.25498,-10.91943 -12.01137,-2.30522 -24.2654,-0.89782 -36.3981,-0.94635 -15.821043,0.19412 -29.967773,8.12891 -44.818199,12.56947 0.169858,-66.89971 -0.09706,-133.82369 0.121327,-200.72341 z"
     id="path10"
     style="fill:#f4722b" />
  <path
     d="m 806.92171,322.97251 c 48.87052,-0.50957 97.78957,-0.16986 146.66009,-0.19412 11.38047,-0.60664 22.59109,7.52227 24.79924,18.82995 1.4074,8.20171 0.65517,16.57327 0.80076,24.87204 0,97.86237 -0.0485,195.749 0.0485,293.63564 -0.19412,9.34218 1.18901,19.89763 -4.99867,27.80815 -5.09574,7.30389 -14.31659,10.11867 -22.88228,9.90029 -71.12189,0.21838 -142.26805,-0.21839 -213.41421,0.21838 4.36777,-20.09175 16.50047,-38.70331 14.34085,-59.83848 -0.55811,-16.11223 1.21327,-32.37005 -1.48019,-48.33668 -1.57725,-8.25024 1.72284,-16.23356 3.20303,-24.21687 17.56815,-80.92512 35.59735,-161.72891 52.92285,-242.6783 z"
     id="path12"
     style="fill:#f4722b" />
  <path
     d="m 47.390332,598.60322 c 21.596208,6.3818 43.216682,12.66654 64.594498,19.67924 6.30901,1.98977 12.10844,5.28986 17.15564,9.56057 27.75962,23.02787 55.0582,46.58958 82.35678,70.12702 -46.27412,-0.33972 -92.57251,0.19412 -138.846634,-0.24266 C 59.838483,698.2127 47.56019,687.68152 47.535924,674.5782 47.123412,649.24512 47.511659,623.91204 47.390332,598.60322 z"
     id="path14"
     style="fill:#f4722b" />
  <path
     d="m 697.99431,826.79507 c 1.91697,35.79147 0.31545,71.68 0.87356,107.52 -0.31545,10.33706 1.8199,22.22711 -5.38692,30.84133 -5.45972,7.37668 -15.06882,9.58483 -23.7801,9.34218 -103.589,-0.0243 -207.17801,0.0485 -310.76701,-0.0485 -12.81213,1.04341 -26.27943,-7.93479 -27.32284,-21.32929 -1.11621,-27.27431 0.60663,-54.62142 -0.84929,-81.87147 6.67298,9.75469 14.6563,18.68436 23.24625,26.81327 25.64853,16.96152 54.13612,31.47223 85.24436,34.21422 20.21308,1.28606 40.4019,3.76113 60.68777,3.42142 26.06105,0.0243 52.19489,2.32948 78.18313,-0.80076 27.71109,-2.81479 57.7274,-2.15962 82.25972,-17.27697 7.6436,-7.76492 17.34976,-15.09308 19.46085,-26.44929 5.84796,-21.52341 13.15185,-42.63431 18.15052,-64.37611 z"
     id="path18"
     style="fill:#f4722b" />
</svg>
