<?xml version="1.0" encoding="UTF-8" standalone="no"?>
<svg
   xmlns:dc="http://purl.org/dc/elements/1.1/"
   xmlns:cc="http://creativecommons.org/ns#"
   xmlns:rdf="http://www.w3.org/1999/02/22-rdf-syntax-ns#"
   xmlns:svg="http://www.w3.org/2000/svg"
   xmlns="http://www.w3.org/2000/svg"
   xmlns:sodipodi="http://sodipodi.sourceforge.net/DTD/sodipodi-0.dtd"
   xmlns:inkscape="http://www.inkscape.org/namespaces/inkscape"
   width="1280"
   height="1280"
   viewBox="0 0 1024 1024"
   version="1.1"
   id="svg2"
   inkscape:version="0.48.1 "
   sodipodi:docname="charge_friends.svg">
  <metadata
     id="metadata32">
    <rdf:RDF>
      <cc:Work
         rdf:about="">
        <dc:format>image/svg+xml</dc:format>
        <dc:type
           rdf:resource="http://purl.org/dc/dcmitype/StillImage" />
      </cc:Work>
    </rdf:RDF>
  </metadata>
  <defs
     id="defs30" />
  <sodipodi:namedview
     pagecolor="#ffffff"
     bordercolor="#666666"
     borderopacity="1"
     objecttolerance="10"
     gridtolerance="10"
     guidetolerance="10"
     inkscape:pageopacity="0"
     inkscape:pageshadow="2"
     inkscape:window-width="1920"
     inkscape:window-height="1018"
     id="namedview28"
     showgrid="false"
     inkscape:zoom="0.6609375"
     inkscape:cx="640"
     inkscape:window-x="-8"
     inkscape:window-y="-8"
     inkscape:window-maximized="1"
     inkscape:current-layer="svg2"
     inkscape:snap-page="true"
     inkscape:cy="640" />
  <g
     inkscape:groupmode="layer"
     id="layer2"
     inkscape:label="background">
    <rect
       style="fill:#3e3e3e;fill-opacity:1;fill-rule:nonzero;stroke:none"
       id="rect2997"
       width="1280"
       height="1280"
       x="0"
       y="0"
       transform="scale(0.8,0.8)" />
  </g>
  <g
     inkscape:groupmode="layer"
     id="layer1"
     inkscape:label="foreground">
    <path
       d="m 716.77573,129.67431 c 6.50313,-0.80076 13.00626,-1.72284 19.50939,-2.69346 0.97061,2.20815 1.9655,4.41631 2.96038,6.60019 3.61554,5.04721 6.52739,10.53119 9.22085,16.11223 -1.2618,0.87355 -3.73687,2.5964 -4.97441,3.46995 0.53384,5.92076 -0.0243,11.84152 -2.15962,17.44683 2.0383,3.97952 3.95526,8.00758 5.87223,12.0599 2.5964,-5.50824 5.09573,-11.06502 7.47374,-16.67033 5.33839,2.91185 10.70105,5.8237 16.0637,8.68702 -1.45592,6.96417 -7.15829,15.52985 1.28607,20.16454 -0.19413,13.29745 9.85175,23.41612 14.5835,35.18484 2.47508,7.52227 9.00247,11.86578 15.67545,15.36 -0.67943,2.81479 -1.33459,5.65384 -1.96549,8.49289 5.6053,7.66787 6.50312,17.3255 9.90028,25.98825 6.55166,-8.9782 11.21062,-19.19394 14.8019,-29.67659 6.72151,-7.7164 11.89004,-16.6218 15.94237,-25.98825 3.03317,-6.21194 5.09573,-13.58862 11.5018,-17.22843 9.22085,-6.16342 18.34464,-12.49669 27.68682,-18.46598 -0.92208,-4.05232 -2.08682,-8.00758 -3.00891,-12.03564 3.05744,-0.43677 6.21195,-0.82502 9.34218,-1.189 -5.53251,-11.93858 3.49422,-28.7545 17.54389,-26.98313 3.37289,3.931 7.35242,7.52228 9.77896,12.18123 1.98976,8.46863 -3.20304,17.85934 0.99488,25.79413 11.13782,9.02673 25.23602,14.7291 34.52967,25.96398 6.28473,11.76872 11.45327,24.16834 18.75715,35.37896 5.21706,7.5708 8.2745,16.30635 11.91431,24.70218 0.87356,0.87355 2.62067,2.62066 3.49422,3.49421 3.46996,13.03053 7.91052,25.86692 9.73043,39.28569 1.11621,12.1327 8.37153,22.27564 11.74443,33.75318 -4.1008,6.67298 -8.15315,13.41876 -12.52092,19.92189 -3.66408,5.48398 -10.28853,7.6436 -15.62692,10.99223 -1.01915,-2.79052 -2.01403,-5.55678 -2.98465,-8.3473 3.08171,-2.81479 6.18768,-5.65384 9.26939,-8.46862 -2.11109,-0.29119 -6.35754,-0.82503 -8.49289,-1.11621 2.81478,-4.12512 6.16341,-7.88626 10.11867,-10.96796 -0.12133,-1.38313 -0.38825,-4.19792 -0.50958,-5.58105 -2.06255,0.31545 -4.10085,0.6309 -6.13914,0.97062 -3.3001,6.52739 -4.53763,17.27697 -13.83128,17.1799 -1.91697,-11.52606 0.46104,-22.90654 5.02294,-33.53478 -5.1928,-11.28342 -10.77384,-22.39697 -16.03943,-33.63185 -5.62958,-11.72019 -3.3001,-25.86692 -10.77384,-36.85915 -0.60664,6.40607 -1.57725,13.10332 0.6309,19.33953 3.8582,10.02161 1.50445,20.96531 2.4508,31.42369 5.33839,24.14408 7.95905,48.84626 11.25915,73.33005 1.94123,9.36645 -5.09574,17.34976 -5.14427,26.44929 1.67432,5.84796 4.75602,11.16209 7.23109,16.67033 -2.86331,3.32436 -5.6781,6.69725 -8.44436,10.11868 0.0971,4.70748 -1.01914,9.19658 -4.12511,12.83639 -1.43166,8.83261 -3.2273,17.59242 -4.65896,26.40076 -2.40228,1.4074 -4.80455,2.79052 -7.20683,4.17365 0.7037,8.56569 1.84417,17.08285 3.42143,25.52721 2.86331,1.14047 5.7509,2.30521 8.63848,3.46995 0.72796,3.97952 1.48019,7.95905 2.23242,11.96284 -8.25024,0.0485 -16.52474,0.0243 -24.72645,-0.75223 -0.29118,-1.35886 -0.84929,-4.07658 -1.11621,-5.43545 -1.16474,-1.04341 -3.46995,-3.13023 -4.63469,-4.17365 -1.69858,-10.7981 3.63981,-21.42635 2.98464,-32.29725 -1.35886,-2.4508 -3.44568,-4.39203 -5.21706,-6.50312 -0.33971,-7.7164 -0.5581,-15.40854 -0.75222,-23.12493 -3.68835,-2.81479 -7.37669,-5.60531 -11.0165,-8.46863 2.23242,-10.8709 5.33839,-21.79033 4.97441,-32.97668 -1.8927,-11.01649 -6.09062,-21.47488 -9.07526,-32.24872 -4.82882,11.84151 -10.48265,24.21687 -9.14806,37.34445 0.7765,9.94882 2.49934,19.77631 3.73687,29.70086 -3.39715,2.86331 -6.77004,5.7509 -10.14293,8.63848 -0.31545,6.89137 -0.6309,13.78275 -0.80076,20.67412 -1.67432,2.13536 -3.34863,4.29498 -4.99868,6.43033 0.94636,9.82749 3.46996,19.43659 3.95527,29.31261 0.99488,3.8582 -2.88759,5.58104 -5.16854,7.7164 -0.26691,1.38313 -0.80075,4.10085 -1.06767,5.45972 -8.39583,0.75222 -16.81593,0.72796 -25.23602,0.65516 1.21327,-4.22218 2.42654,-8.39583 3.68834,-12.59374 2.5236,-0.84929 5.0472,-1.72285 7.59507,-2.57214 1.45592,-8.15317 2.66919,-16.35488 3.61555,-24.58085 -1.23754,-0.77649 -3.71261,-2.32948 -4.95015,-3.13024 -5.07147,-11.30767 -4.56189,-25.23602 -12.88493,-34.84511 0.16986,-1.67432 0.53384,-5.02294 0.72797,-6.69726 -2.86332,-3.37289 -5.7509,-6.72151 -8.63849,-10.04587 2.57214,-6.16341 6.33327,-11.96285 7.7892,-18.53877 -1.38313,-5.94502 -4.63469,-11.30768 -5.48398,-17.37403 -0.75223,-11.52607 2.4508,-22.76095 3.1545,-34.18995 -1.31033,-1.28607 -3.95526,-3.8582 -5.26559,-5.14427 1.14047,-10.28853 4.3435,-20.4072 3.61554,-30.81706 -0.89782,-6.96417 1.98976,-13.58862 3.931,-20.11602 1.21327,-0.84929 3.61554,-2.57213 4.80455,-3.42142 -0.55811,-1.91697 -1.67432,-5.77517 -2.25669,-7.69213 2.79053,-10.70104 4.24645,-21.71754 6.91564,-32.46711 -8.9782,9.26938 -10.91943,22.32417 -13.15184,34.48114 -1.62579,11.01649 -9.34218,19.72777 -13.03053,30.04057 -2.96038,13.92834 -0.6309,28.0508 -0.60663,42.10047 -7.88626,3.30009 -10.43412,11.72019 -13.5401,18.90275 -5.96929,-3.56702 -13.54009,-5.72664 -17.15564,-12.1327 -3.51848,-6.21195 -7.42521,-12.22977 -10.40985,-18.70863 3.03317,-13.22464 11.11355,-24.94483 12.22976,-38.70332 1.14047,-6.26047 -3.27583,-11.5018 -6.69725,-16.18502 -5.24133,-6.40607 -6.40607,-14.85043 -8.85687,-22.49403 -1.31034,0.84929 -3.931,2.57213 -5.24133,3.42142 0.72796,-7.06123 -4.4891,-11.67166 -9.051,-16.06369 0.7037,12.35109 3.71261,24.48379 3.931,36.88341 -2.15962,5.92076 -7.54654,9.99734 -11.23488,14.97175 3.54275,1.01915 7.0855,2.01403 10.65251,3.05744 0.24265,5.84797 0.84929,11.74446 2.69346,17.34977 -0.65517,3.51848 -1.18901,7.06123 -2.18389,10.50692 -2.35374,1.55298 -4.92587,2.69346 -7.40094,3.97952 0.67943,19.8491 1.60151,39.67394 2.18388,59.49877 0.58237,5.84796 -2.83905,11.01649 -3.20303,16.74313 -0.21839,18.92701 4.51336,37.41725 7.03696,56.07734 0.75223,6.96417 -4.90161,14.46218 0.0971,20.84398 4.00379,9.29365 12.93346,14.21953 20.89251,19.63071 -8.58995,0.65517 -17.22844,0.63091 -25.81839,0.38825 -4.87735,-4.78028 -10.33706,-9.02673 -16.93725,-11.08929 0.80076,-9.24512 -4.61043,-16.69459 -8.08038,-24.72644 -0.50957,-19.65498 2.5964,-39.43128 0.50957,-59.06199 -2.08682,-7.91052 1.55299,-15.89384 0.0243,-23.85289 -3.2273,-22.05726 -4.27071,-45.23072 -15.91811,-64.88569 -2.4508,0.33971 -4.87734,0.67943 -7.30388,1.04341 -6.86711,15.65119 -9.75469,32.51564 -11.35621,49.42863 -0.65517,10.57971 -4.58616,21.52341 -0.60664,31.88474 -5.7509,21.35355 0.94635,43.58066 -1.16474,65.29819 -3.22729,8.08038 -6.74578,16.08797 -7.81345,24.82351 -6.60019,2.15962 -12.15697,6.35754 -17.08285,11.13782 -8.88114,0.24266 -17.93213,0.82502 -26.59488,-1.52872 5.38692,-4.56189 12.08417,-7.52227 17.08284,-12.52095 3.63981,-5.84796 7.54654,-12.35109 7.01271,-19.50938 -1.31034,-21.20796 4.39203,-42.02768 4.44056,-63.21137 0,-5.79944 -2.83905,-11.16209 -2.79052,-16.96152 0.16986,-19.8491 1.38313,-39.67394 1.91697,-59.52303 -3.00891,-0.60664 -5.99356,-1.21327 -8.9782,-1.81991 -0.6309,-4.99867 -1.40739,-9.97308 -2.47507,-14.87469 0.6309,-4.65896 1.23753,-9.31792 1.8199,-13.95261 3.95527,-0.72796 7.91053,-1.45592 11.86579,-2.18388 -2.0383,-6.67299 -7.35242,-11.23489 -12.39962,-15.65119 1.57725,-12.66654 3.88246,-25.26028 4.90161,-38.02389 -6.13915,4.36778 -10.04588,10.55545 -8.85688,18.32038 -7.52227,-1.98976 -6.84284,7.91052 -10.19146,12.10844 -5.8237,8.08038 -14.0982,14.8019 -15.82105,25.21175 4.99868,13.34597 8.92967,27.85669 5.62958,42.12474 -7.0127,4.02806 -12.86067,9.70616 -17.71375,16.11223 -1.52872,-7.86199 -6.309,-14.26806 -13.34597,-18.05346 0.99488,-13.15185 3.2273,-26.2309 3.10597,-39.45554 -3.17877,-12.08418 -15.09308,-19.38806 -17.90786,-31.54503 -0.84929,-4.10085 -3.46996,-7.40095 -5.8965,-10.70104 -0.29118,-1.84417 -0.89782,-5.58104 -1.21327,-7.44948 -2.64493,2.88758 -5.26559,5.79943 -7.93478,8.66275 0.43677,1.65005 1.31033,4.92588 1.7471,6.55166 -2.64492,6.11488 -5.79943,11.98711 -9.43924,17.56815 3.80967,0.72796 7.6436,1.45592 11.47754,2.20815 0,7.83773 -0.29119,15.65119 -0.48531,23.48891 -3.56701,-0.0243 -7.13403,-0.0485 -10.70104,-0.0485 1.23753,14.87469 5.92076,29.23981 6.47886,44.21156 1.14047,10.74958 -0.89782,21.93593 2.69346,32.37005 3.10597,9.43924 6.74578,18.6601 9.99735,28.05081 -4.05233,3.17876 -8.05612,6.40606 -12.03564,9.68189 -1.21327,10.33706 -3.15451,20.57706 -4.27072,30.93839 1.11621,0.72796 3.34863,2.15962 4.46484,2.88758 -2.96038,8.58996 -4.27071,17.64095 -0.53384,26.25517 2.98464,0.72796 6.13915,1.11621 8.9054,2.5964 1.23754,4.4891 1.04342,9.17232 1.28607,13.78275 -7.54654,0.21839 -15.06882,0.26692 -22.59109,-0.0243 -3.90673,-1.28607 -7.93479,-2.32948 -11.91431,-3.32436 0.53384,-12.95773 4.29497,-25.47868 4.31924,-38.46067 0.65516,-1.2618 1.94123,-3.76114 2.5964,-5.02294 -0.58237,-9.70616 -3.39716,-19.04834 -4.80455,-28.60891 -2.54787,-2.5236 -5.12,-5.0472 -7.69214,-7.54654 1.38313,-9.17232 2.5964,-18.36891 4.17365,-27.51697 -0.99488,-0.89782 -2.98464,-2.71772 -3.97952,-3.63981 -0.92209,-13.20038 -1.72285,-26.57061 -5.96929,-39.21289 -6.35754,0 -12.71507,0.0243 -19.04834,0.0971 -6.16342,13.90408 -1.72285,30.40455 -9.43924,43.50787 0.99488,8.9054 2.40227,17.76228 3.7126,26.64341 -2.5964,2.64493 -5.19279,5.28986 -7.78919,7.95905 -1.38313,9.51204 -3.8582,18.85422 -4.97441,28.41479 0.99488,0.94635 3.03318,2.81479 4.05232,3.73687 -0.58237,13.4673 2.62067,26.64342 3.08171,40.03792 -11.40474,3.37289 -23.27052,3.51849 -35.03924,2.6692 0.50957,-4.31924 0.65516,-8.73555 1.84417,-12.95773 1.98976,-2.47507 5.72663,-1.98976 8.46862,-3.17877 1.21327,-3.13024 2.47507,-6.23621 3.73687,-9.34218 -1.01914,-5.33839 -2.11109,-10.65251 -3.34862,-15.9181 0.89782,-1.28607 2.66919,-3.8582 3.56701,-5.14427 -0.24265,-10.11867 -2.74199,-20.01896 -4.07658,-30.0163 -3.931,-3.08171 -7.88626,-6.16342 -11.84152,-9.19659 4.36777,-15.16588 12.81213,-29.55526 12.32682,-45.74029 0.89782,-13.00625 3.00891,-25.86692 4.41631,-38.80037 -4.85308,-1.04342 -9.70616,-2.15963 -14.51071,-3.39716 1.09194,-8.66275 5.58104,-17.85934 1.67431,-26.40076 1.23753,-3.61554 2.54787,-7.20682 3.88246,-10.77384 3.66408,-0.72796 7.32816,-1.45592 11.0165,-2.18388 -2.98465,-8.15318 -10.48266,-15.19015 -9.17233,-24.411 0.89782,-4.4163 -0.58237,-8.61422 -2.57213,-12.47242 -1.91697,5.41119 -3.97952,10.82237 -7.54654,15.38427 -1.31033,4.58616 -2.03829,9.58483 -5.21706,13.34597 -7.03697,8.9054 -13.68569,18.41744 -17.59242,29.14275 -1.16474,3.56701 1.8927,6.64872 2.88759,9.87602 3.63981,7.78919 3.51848,16.59753 3.76113,24.99336 -1.98976,-0.36398 -5.96929,-1.11621 -7.98331,-1.48019 -1.52873,1.94124 -3.08171,3.90673 -4.61043,5.87223 0.29118,3.7854 0.48531,7.59507 0.60663,11.42901 -6.91564,-5.53252 -12.66654,-12.35109 -16.81592,-20.14029 -1.35886,-0.0971 -4.02806,-0.26692 -5.36265,-0.36398 -0.6309,-10.11867 -1.81991,-20.31014 -0.43678,-30.42882 -8.71128,-12.0599 -19.50939,-23.80436 -21.66901,-39.14009 -0.94635,-9.82749 -7.86199,-17.27697 -13.54009,-24.77498 -2.03829,5.87223 -3.8582,11.84152 -5.53251,17.83507 0.89782,3.51849 3.90673,7.13403 2.01403,10.82237 -4.70749,12.982 -3.3729,27.58977 1.40739,40.35337 4.07659,11.67166 6.52739,23.80436 8.66275,35.93706 -3.00891,1.45593 -6.01782,2.93611 -9.02673,4.4163 0.33971,15.67545 -3.00891,31.10825 -3.59128,46.68664 4.85308,9.29365 8.12891,19.2182 8.88114,29.74938 -3.3729,2.76626 -6.77005,5.50825 -10.16721,8.25024 -1.50445,5.84796 -3.27583,11.62313 -4.70749,17.51962 -2.32948,8.00758 -0.0971,16.37915 -1.33459,24.55659 5.09573,6.60019 11.59886,11.96285 16.69459,18.5873 -12.93346,1.09195 -25.93971,0.43678 -38.50919,-2.93611 2.25668,-10.50692 1.04341,-21.57195 4.73175,-31.76342 3.44569,-11.64739 1.74711,-24.77497 -6.26047,-34.16569 1.43166,-8.2017 4.24644,-16.33061 4.07659,-24.70218 -2.64493,-13.20038 -5.8237,-26.30369 -9.07526,-39.38274 -4.17365,0.0485 -8.3473,0.0728 -12.49669,0.0971 -3.0817,13.12758 -6.60019,26.1581 -9.26938,39.38275 -0.14559,8.10464 2.79052,15.94237 4.14938,23.90142 -7.37668,9.31791 -11.01649,22.22711 -6.9399,33.72891 4.39204,10.48265 2.28095,22.03298 5.24133,32.87962 -12.44816,3.39716 -25.38162,4.00379 -38.19375,3.08171 4.65896,-9.09953 18.97555,-13.90408 15.77251,-25.91546 2.15962,-12.1327 -2.5964,-23.73156 -5.89649,-35.16056 -2.86332,-2.35375 -5.87223,-4.58617 -8.44436,-7.30389 -2.01403,-11.40474 4.24645,-21.57194 7.95905,-31.81194 -1.3346,-14.97176 -3.97952,-29.84645 -3.7854,-44.9638 -3.32436,-1.8199 -6.64872,-3.61554 -9.97308,-5.38691 1.65005,-15.69972 6.309,-30.84133 11.47753,-45.69176 2.83906,-7.59507 2.11109,-15.84531 2.69346,-23.78009 -0.92208,-1.01915 -2.76625,-3.03318 -3.66407,-4.05233 5.48398,-10.11867 -0.14559,-20.35867 -3.46995,-30.06483 -5.70237,6.60019 -12.78787,12.93346 -14.48645,21.91166 -2.83905,12.03564 -8.12891,23.44038 -15.48133,33.38919 -3.66407,4.65896 -4.4163,10.67678 -5.89649,16.23356 l 0.21839,-1.86844 c 0.67979,-21.35361 -2.37762,-44.18727 -2.54787,-65.61365 10.62825,-13.66142 20.23735,-28.09933 26.95886,-44.1145 10.43413,-9.09953 20.5528,-20.69839 34.77233,-23.56171 -0.12133,-1.33459 -0.31545,-4.00379 -0.41252,-5.36265 8.3473,-5.8237 3.08171,-16.93725 4.46484,-25.28455 2.01403,-8.17744 7.52227,-16.42768 16.20929,-18.44171 8.85687,-2.37801 16.98578,4.17365 21.62047,11.08929 3.25157,6.74579 4.70749,14.29233 5.92076,21.64474 -1.3346,0.80076 -3.97953,2.42654 -5.31412,3.2273 5.41118,2.30521 10.7253,4.82882 16.01516,7.40095 -2.13535,2.11109 -4.27071,4.22218 -6.3818,6.33327 13.24891,3.44569 23.22199,13.27317 31.93327,23.24626 5.99356,12.32682 11.93858,24.84777 20.86825,35.37895 10.07014,12.25403 15.14161,27.34711 19.97042,42.19754 2.69346,-9.77896 6.04209,-19.46085 12.32683,-27.5655 -0.60664,-1.74711 -1.81991,-5.21706 -2.40228,-6.96417 13.27318,-12.37536 15.02029,-31.88474 25.91545,-45.91014 -1.01914,-5.50825 -2.01402,-10.99223 -2.91184,-16.50048 9.80322,-5.62957 19.48511,-12.0599 31.05971,-13.15184 0.55811,-6.91564 6.21195,-10.99223 10.40986,-15.79678 1.91697,-6.84285 1.189,-14.77763 5.48398,-20.74692 6.35754,-5.72664 17.3255,-5.48398 23.68303,0.12133 4.39204,5.84796 4.0038,13.70995 6.60019,20.26161 2.74199,3.1545 5.87223,5.92076 8.85688,8.8326 0,1.94124 0,5.84797 0.0243,7.7892 8.17744,1.31033 18.56303,0.0971 23.99848,7.7164 2.52361,1.31033 5.07147,2.57213 7.64361,3.83393 -0.65517,4.85308 -1.57725,9.6819 -1.67432,14.58351 2.5964,6.35753 6.16342,12.30256 8.88114,18.61156 4.97441,10.50692 8.29877,22.29991 17.10711,30.42882 -0.53384,1.79564 -1.57725,5.33838 -2.11109,7.13402 5.0472,6.72152 8.56569,14.36512 10.89517,22.42124 3.90673,-8.44436 7.40094,-17.08285 11.11355,-25.6 -1.2618,-2.28095 -2.5236,-4.5619 -3.7854,-6.84285 3.88246,-3.37289 7.74066,-6.77004 11.64739,-10.14294 -0.94635,-3.49421 -1.91697,-6.96417 -2.91185,-10.43412 13.29744,-7.20682 19.72778,-21.15943 27.25005,-33.48625 3.00891,-4.4891 2.47507,-10.07015 2.88758,-15.16588 8.3473,-4.63469 16.84019,-9.17232 26.18237,-11.40474 0.29119,-1.57725 0.87356,-4.78028 1.16474,-6.35754 0.97062,-0.92208 2.86332,-2.76625 3.83394,-3.68834 -2.18389,-5.19279 -3.61555,-10.60398 -3.97953,-16.23355 -4.36777,-1.69858 -8.71128,-3.46995 -13.00626,-5.26559 5.60531,-2.54786 11.52607,-4.51337 16.86446,-7.64361 1.84417,-4.05232 2.74199,-8.44436 3.97952,-12.71507 z"
       id="path8"
       style="fill:#f5e5c1"
       inkscape:connector-curvature="0"
       sodipodi:nodetypes="ccccccccccccccccccccccccccccccccccccccccccccccccccccccccccccccccccccccccccccccccccccccccccccccccccccccccccccccccccccccccccccccccccccccccccccccccccccccccccccccccccccccccccccccccccccccccccccccccccccccccccccccccccccccccccccccccccccccccccccccccccccccccccccccccccccccccccccccccccccccccccccc" />
    <path
       style="fill:#f4722b"
       d="M 180.21875 78.6875 C 174.78899 78.744857 169.48119 80.374499 165.34375 83.90625 C 158.54944 88.122375 157.63421 96.28105 156.90625 103.5 C 153.26644 114.87441 160.64336 125.24232 161.25 136.34375 C 149.54195 156.18071 122.62912 158.14476 107.28125 174.28125 C 101.39689 182.53149 98.9367 192.58981 94.78125 201.75 C 82.921534 228.25996 66.739336 252.47627 54 278.53125 C 44.748815 299.85447 33.932199 320.63631 26.53125 342.6875 C 29.685752 359.06665 24.285841 375.15026 24.4375 391.46875 C 28.410959 406.66496 39.422335 420.12399 55.4375 423.1875 C 53.678259 418.45575 50.134241 409.01301 48.375 404.28125 C 51.256516 406.0405 57.055984 409.55417 59.9375 411.34375 C 60.63513 410.5248 61.95862 408.97521 62.65625 408.15625 C 62.170943 394.11265 59.980658 380.07301 61.40625 365.96875 C 66.289663 362.32894 72.046801 359.16838 74.625 353.375 C 82.602251 337.48116 88.552193 320.63006 95.4375 304.28125 C 104.59769 284.8386 107.40308 262.52163 121.75 245.6875 C 128.51398 259.21546 116.11662 271.85348 119.96875 285.59375 C 119.0588 294.51129 119.14609 303.48504 120.875 312.28125 C 116.02192 324.11063 110.7758 335.91509 108.53125 348.59375 C 98.400445 399.21745 87.731872 449.75865 78.875 500.625 C 76.78211 516.60984 68.169282 530.41594 62.40625 545.1875 C 78.633738 557.19887 95.736551 568.96496 115.9375 572.96875 C 113.66262 565.23415 111.23628 557.54986 108.71875 549.90625 C 115.08842 548.72331 121.41066 547.48993 127.75 546.125 C 132.54241 565.65865 139.42015 585.39648 135.75 605.71875 C 138.75285 619.18605 130.10417 631.45569 119.09375 638.25 C 118.15346 641.8898 117.1912 645.48519 116.28125 649.125 C 134.26798 649.73162 152.34416 649.18028 169.90625 644.8125 C 169.23895 634.07506 167.95128 623.36151 168.40625 612.59375 C 169.61951 598.94445 160.62496 586.92962 161.65625 573.25 C 161.74724 561.57227 161.06671 545.1426 174.625 540.5625 C 175.17097 517.05539 177.62678 493.63486 179.75 470.21875 C 180.59929 494.3325 180.8915 518.47909 182.46875 542.5625 C 187.50383 543.16912 192.58992 543.79961 197.625 544.40625 C 200.62784 555.81099 202.4072 567.63845 201.40625 579.4375 C 200.43564 590.75125 193.88599 601.10076 195.28125 612.6875 C 196.06988 623.06096 193.95593 633.30945 192.5 643.53125 C 210.06207 648.68765 228.27061 650.30151 246.5 648.90625 C 245.37773 644.72046 244.27853 640.59295 243.15625 636.4375 C 241.39701 636.01285 237.91549 635.17464 236.15625 634.75 C 232.36478 628.38032 228.57915 622.02225 225 615.53125 C 227.00189 605.82509 224.97609 596.01683 225.21875 586.25 C 226.614 572.99503 230.27658 560.10699 233.21875 547.125 C 240.58938 547.85296 248.0053 548.55054 255.40625 549.1875 C 252.97971 556.83111 250.61862 564.45199 248.34375 572.15625 C 266.93711 565.69559 286.83235 558.21919 299.875 542.75 C 295.65889 530.28365 287.02856 519.53715 284.875 506.3125 C 275.59349 455.9618 265.13629 405.81761 256.21875 355.40625 C 258.4633 352.22141 263.46687 350.27402 263.40625 345.90625 C 263.67924 326.82759 260.67286 307.86728 258.125 289.03125 C 252.69561 288.03031 247.27313 287.03129 241.84375 286 C 247.45513 270.53081 234.73512 255.93519 240.4375 240.375 C 248.0811 250.14183 255.48063 260.65681 257.9375 273.0625 C 262.15361 291.47388 271.14963 308.21458 278.15625 325.625 C 284.13161 339.39561 287.42699 355.80675 301.53125 363.875 C 301.07628 366.51386 301.76748 372.39239 301.3125 375.03125 L 299.09375 411.09375 C 309.40654 419.88996 322.58237 417.34476 334.59375 414.28125 C 338.71886 387.04334 335.16739 359.30593 331.40625 332.25 C 327.88776 317.38745 321.34029 303.4719 314 290.15625 C 301.92796 259.9155 283.98019 232.52106 269.90625 203.28125 C 265.11384 193.69641 262.63895 183.0067 256.90625 173.9375 C 239.92048 159.16594 215.02245 154.06854 201.3125 135.6875 C 202.13145 125.01072 211.81544 115.12809 205.71875 103.875 C 208.66188 88.679745 194.0948 78.540921 180.21875 78.6875 z M 45.8125 389 C 48.986256 389.258 51.414662 394.29697 48.53125 396.6875 C 44.55779 399.44769 39.983354 392.59935 43.5625 389.6875 C 44.318898 389.14722 45.080095 388.94046 45.8125 389 z "
       transform="scale(0.8,0.8)"
       id="path6" />
    <path
       d="m 261.09573,302.08 c 2.32948,6.18768 2.40228,12.90919 2.86332,19.43659 -7.86199,3.56701 -16.16076,6.01782 -24.67791,7.35241 -0.46105,-9.43924 -3.66408,-20.18881 1.94123,-28.6817 0,0 13.68744,0.20703 19.87336,1.8927 z"
       id="path10"
       style="fill:#f5e5c1"
       inkscape:connector-curvature="0"
       sodipodi:nodetypes="ccccc" />
    <path
       style="fill:#f5e5c1"
       d="m 670.3125,723.28125 c -14.37725,3.36682 -23.26734,15.93069 -27.96875,29.125 -1.00095,6.85498 -0.50636,13.98234 -2.78125,20.625 -1.21326,6.33934 -8.17358,8.03209 -12.875,11.15625 -20.86825,10.52512 -39.10244,25.23211 -56.9375,40.125 -9.52418,9.00854 -14.5779,21.50337 -22.3125,31.9375 1.88057,2.69952 3.74351,5.42639 5.59375,8.15625 -10.03981,17.16778 -15.99523,36.07024 -22.03125,54.90625 -5.49005,12.95166 -5.80761,28.38481 -15.96875,39.03125 l -2,12.90625 c -3.51848,-12.22369 -6.63406,-24.57961 -11.0625,-36.5 -11.95071,-25.47866 -22.07335,-52.04885 -28.625,-79.46875 -12.92132,-5.00474 -27.1789,-7.82696 -38.25,-16.5625 -4.15545,-2.94219 -2.93104,-8.50631 -3.75,-12.84375 7.30996,-7.76494 3.41824,-18.77731 1.75,-27.9375 -1.81991,-8.37156 -10.32331,-13.09827 -17.90625,-15.3125 -7.40094,1.45592 -13.94106,6.31141 -18.1875,12.46875 -1.85024,10.10047 -4.00116,21.89959 4.21875,29.9375 0.42464,2.4872 1.26285,7.45123 1.6875,9.96875 -11.82939,13.25499 -30.4104,15.13125 -46.03125,21.53125 -4.27678,18.98768 -8.83523,38.24581 -17.84375,55.65625 -3.8218,7.49194 -7.46131,15.08341 -10.3125,23 1.60785,28.29945 4.10553,56.37235 1.375,84.1563 5.58104,-5.1868 10.06049,-11.5477 16.1875,-16.2188 5.94503,-29.30048 9.53175,-59.90089 24,-86.5625 0.39431,40.58389 -14.14716,80.20379 -10.75,121 1.8199,0.546 5.46134,1.6729 7.28125,2.2187 -1.75925,27.4807 1.057,54.9561 0.875,82.4063 -6.49099,29.5128 -13.01921,59.1002 -15.71875,89.25 2.27489,0.3033 6.85012,0.8842 9.125,1.1875 -2.85119,7.8559 -6.72136,15.3858 -11.96875,21.9375 -5.97536,7.9469 -15.8197,11.9465 -21.21875,20.5 10.91944,-0.6672 23.4391,-1.2782 31.75,-9.4375 4.94408,-5.0654 10.29674,-9.7885 14.9375,-15.1875 0.12132,-6.036 -0.92186,-12.0255 -1.4375,-18.0313 4.24645,-0.3032 8.47231,-0.6332 12.71875,-0.9062 -0.0607,-25.691 1.12138,-51.308 1,-76.9688 -0.69763,-28.0264 14.96025,-52.4422 22.9375,-78.4062 2.00189,-4.9441 2.1928,-12.7988 9.59375,-11.3125 5.03506,10.8284 7.35095,22.6982 12.75,33.375 8.67488,16.4701 13.54221,34.744 15.96875,53.125 0.21233,26.7223 -1.93024,53.5884 1.40625,80.25 1.94124,0.1517 5.80878,0.4422 7.75,0.5937 -0.24265,5.4295 -0.85939,10.8841 -0.34375,16.3438 4.45878,6.764 10.20664,12.6396 16,18.2812 8.25024,5.9452 18.88942,6.6305 28.65625,7.8438 -0.94029,-1.9109 -2.80972,-5.7463 -3.75,-7.6875 -14.25593,-6.5213 -22.50074,-20.7589 -28.71875,-34.4687 3.00285,-0.4248 8.93374,-1.2628 11.90625,-1.6876 -1.2436,-21.7477 -6.88504,-42.8725 -9.28125,-64.4687 -1.00095,-13.2247 -6.77669,-25.8122 -5.59375,-39.2187 1.21323,-21.8693 0.39615,-43.7549 0.0625,-65.5938 2.63886,-2.9118 6.66823,-5.4816 6.03125,-10.0312 0.72796,-12.2845 -0.45677,-24.5898 -1.09375,-36.8438 -1.30426,-27.11659 -11.5001,-53.29701 -8.40625,-80.65625 16.65213,24.96304 14.10912,56.18211 22.875,83.875 0.42465,11.58675 8.52461,19.59435 15.53125,27.87505 -5.85404,17.7439 5.58247,33.6539 14.5,48.0312 7.00664,7.7649 14.40684,17.4577 25.78125,18.125 -0.60664,-5.1564 -1.34189,-10.2782 -2.3125,-15.3438 7.18863,-4.7619 14.77642,-8.8712 22.875,-11.8437 -0.5763,-17.8048 -0.79379,-38.0318 -12.5625,-52.5 7.15829,-23.87109 18.76283,-46.76674 20.21875,-72.09375 0.51564,-13.89195 8.23326,-25.85444 14.90625,-37.5625 5.76304,4.09479 3.52201,12.96856 5.28125,19.15625 -1.75924,1.57725 -5.30326,4.76649 -7.0625,6.34375 5.12606,16.22749 3.99141,35.35439 15.0625,49.125 0.84929,6.79431 1.48068,13.67628 1.875,20.53125 -7.67394,2.09289 -16.33253,2.3161 -23.1875,6.5625 -4.09479,7.2493 -2.48069,16.0541 -2.875,24.0312 1.00095,0.9404 2.96688,2.7785 3.9375,3.7188 1.88056,10.9194 4.61662,21.6899 8.46875,32.0938 5.45973,-0.3035 10.94745,-0.6673 16.4375,-1.0313 1.66825,11.708 4.45311,23.2964 4.96875,35.1563 -3.88246,17.471 -10.79586,34.1878 -14.375,51.75 -1.39526,5.8842 4.5128,9.987 7,14.7187 -2.63886,5.2474 -5.26463,10.4731 -7.8125,15.7813 6.27868,2.6691 12.6285,5.1716 18.9375,7.75 3.42749,12.7998 5.09583,27.1275 -3.09375,38.5624 -2.15355,7.856 -10.63491,7.9541 -17.15625,9.5313 -2.60853,6.1877 -5.23706,12.4061 -7.90625,18.5937 15.3782,-0.3032 30.93062,1.3742 46.1875,-0.7187 5.1564,-6.036 9.62568,-12.8419 17.90625,-14.8437 -2.48721,-17.8049 -8.69485,-35.0171 -8.9375,-53.125 4.45878,-3.003 8.88498,-5.9973 13.34375,-9 -7.12796,-18.4115 -6.44025,-37.9911 -6.53125,-57.3126 4.85308,-18.3202 12.90329,-35.5931 20.03125,-53.125 4.24645,0.2125 8.50447,0.3796 12.78125,0.5313 6.97631,15.6209 13.3822,31.5547 18.78125,47.8125 3.67014,8.9782 0.39613,18.6578 1.09375,28 1.21328,11.9507 -4.0211,23.1651 -5.75,34.8125 4.48909,4.1858 13.99085,6.2662 12.65625,14.0313 -1.18294,16.0757 -7.08084,31.392 -8.71875,47.4374 8.58389,1.6381 12.5697,8.9861 17.96875,14.7188 15.25688,2.1535 30.84055,0.7113 46.21875,0.4688 -2.88151,-6.0362 -4.98886,-12.5752 -8.75,-18.1563 -4.3981,-1.5773 -8.98058,-2.5642 -13.5,-3.6563 -9.52418,-13.3761 -11.06081,-30.0905 -5.84375,-45.4687 6.24834,-2.3052 12.50165,-4.6313 18.75,-6.9063 -2.33555,-5.0349 -5.17459,-9.8795 -6.8125,-15.1874 1.88056,-4.2466 4.49627,-8.159 6.4375,-12.375 -1.51659,-18.1689 -9.70483,-34.7459 -14.40625,-52.1563 -0.69762,-10.0095 2.6351,-19.77 2.96875,-29.7187 1.12227,-30.9385 -5.47923,-63.9147 7.59375,-93.0938 4.45878,-26.41895 -1.41946,-55.28054 10.53125,-80.03125 6.09669,11.76873 14.23706,22.9941 16.90625,36.21875 1.24361,22.29384 7.74055,44.05272 16.71875,64.375 2.33555,5.4597 5.09663,12.2572 1.0625,17.6563 -8.9782,13.7098 -9.02118,30.789 -7.65625,46.5312 4.03412,-0.182 8.12304,-0.3483 12.1875,-0.5 3.39715,10.4341 6.0514,21.0402 8.78125,31.6562 3.42749,-2.1837 6.85468,-4.3463 10.3125,-6.5 3.03318,3.8523 6.09366,7.7103 9.1875,11.5626 4.85307,-6.0665 10.23421,-11.7232 15.90625,-17.0313 0.21232,-2.0929 0.60019,-6.3143 0.8125,-8.4375 -2.4872,-2.9725 -4.9503,-5.9328 -7.4375,-8.875 3.06351,-5.672 6.12215,-11.3601 9.125,-17.0625 1.7289,1.9412 3.45859,3.9356 5.1875,5.9375 0,17.0161 -1.75823,33.9196 -3.0625,50.875 -1.2436,11.2834 2.58658,23.5292 -3.84375,33.7812 2.4872,8.0684 8.93581,16.4106 3.71875,24.8126 1.45592,1.0615 4.38874,3.1893 5.875,4.2812 -0.15166,18.9877 1.70686,38.1347 -0.75,57.0312 -2.39621,5.1869 -6.09917,9.577 -9.375,14.1876 -3.70047,0.6065 -7.42361,1.2692 -11.09375,1.9062 0.12132,5.0351 0.28676,10.091 0.46875,15.1562 8.4019,0.09 16.75436,0.1225 25.15625,0.031 1.75925,-2.3053 3.55419,-4.6313 5.34375,-6.9063 l 8.75,0.375 c 0.0303,-13.9525 -0.41451,-27.8903 -0.6875,-41.8124 -0.45498,-14.5897 3.88501,-28.643 7.3125,-42.6563 2.85119,-1.7592 5.74349,-3.5533 8.625,-5.3125 -2.33555,-9.0995 -4.90729,-18.7415 -0.8125,-27.75 -0.94028,-13.4066 2.48523,-26.5502 5.09375,-39.5625 0.091,-5.5507 5.27195,-7.8337 9.09375,-10.5937 9.12981,24.3866 15.92024,51.7785 9.15625,77.5 2.97251,1.8804 5.93374,3.8086 8.90625,5.75 4.45876,20.0795 10.13892,40.7806 5.4375,61.4062 0.90995,7.4616 1.15538,15.0099 1.125,22.5625 2.21421,0 6.62954,-8e-4 8.84375,-0.031 1.30426,1.7291 3.94573,5.1452 5.25,6.8438 7.88625,-0.06 15.80216,-0.091 23.71875,-0.031 0.72796,-4.7015 1.45954,-9.361 2.1875,-14.0626 -9.19051,-1.8501 -16.08992,-7.8251 -21.125,-15.4687 -3.39716,-19.8066 -0.49174,-39.6639 -0.21875,-59.5313 1.18294,-0.9705 3.62956,-2.8409 4.8125,-3.7812 -0.18199,-5.49 0.90622,-10.8491 1.9375,-16.1875 -1.97156,-3.7005 -3.93377,-7.3924 -5.875,-11.0625 7.58294,-25.0237 -1.71881,-51.0543 0.34375,-76.5938 -2.79053,-18.2899 -4.13315,-36.8578 -8.53125,-54.875 0.94029,-2.6085 1.87312,-5.203 2.84375,-7.7812 -5.67204,-14.16493 -7.79336,-30.09425 -2,-44.5625 7.79526,11.46541 11.86936,24.89853 15.8125,38.0625 2.57819,13.1337 2.3822,26.848 7.78125,39.375 -4.09479,11.0711 -1.78413,22.3876 2.25,33.125 5.67204,6.855 11.30494,13.8583 18.28125,19.5 0.24265,-6.3697 -1.1975,-12.4741 -4.625,-17.8125 2.0929,-0.2427 6.24994,-0.7252 8.3125,-0.9375 -0.60664,-6.7336 -1.36579,-13.452 -2.09375,-20.125 2.69952,7.6133 2.31404,18.7527 12.6875,19.875 1.36492,-13.8616 -2.65432,-27.2165 -5.6875,-40.5625 7.00664,-15.6209 18.3738,-28.87091 27.625,-43.1875 7.4009,-8.34124 13.0304,-18.28368 13,-29.71875 1.5469,-0.5763 4.6398,-1.76745 6.1562,-2.34375 2.639,14.07393 0.751,28.19997 -2.3124,42.03125 1.5771,2.97251 3.0423,6.03116 4.4374,9.125 -4.216,-1.39526 -8.4713,-2.85199 -12.6874,-4.15625 -1.8806,4.85309 -3.5285,9.8436 -4.4688,15 4.4588,0.061 8.9162,0.096 13.375,0.1563 -0.7583,7.6132 -0.8575,15.6496 -4.4062,22.6562 -9.2817,17.7441 -20.2674,35.0637 -24.9688,54.7188 -2.8815,7.3098 3.9302,12.838 6.7812,18.8437 9.5545,-6.4607 17.5384,-14.8261 26.0313,-22.5 0.03,7.4009 -0.2712,14.8179 -0.9687,22.2187 1.1828,1.3044 3.5982,3.9459 4.7812,5.25 -1.1526,8.0987 -2.4044,16.1532 -3.375,24.3126 -1.4256,3.6093 -2.8197,7.2674 -4.0938,10.9374 2.5783,0.1214 7.7656,0.3474 10.3438,0.4688 -0.7583,0.8796 -2.2417,2.6204 -3,3.5 -5.399,20.2919 -2.7288,41.0941 -3.0625,61.75 3.0635,1.3043 6.125,2.6021 9.2187,3.9062 -0.6065,7.1281 -1.3583,14.2976 -3.9062,21.0313 -4.3374,-0.03 -8.6939,-0.031 -13.0312,-0.031 -2.548,8.0987 -4.6856,16.2819 -6.6876,24.5626 11.1319,-0.061 22.336,0.7178 33.4376,-0.3438 5.0349,-5.1868 9.9382,-10.6157 16.1562,-14.4375 -2.5479,-10.6464 -3.26,-21.5484 -3.5938,-32.4375 3.276,-1.5773 6.569,-3.2049 9.875,-4.8125 -1.8197,-5.945 -3.33,-11.9621 -4.9374,-17.9375 1.4254,-7.4009 3.2095,-14.8224 2.9062,-22.375 -1.0616,-7.7649 -5.2104,-14.6349 -7,-22.1875 2.4265,-8.8569 6.0589,-17.5025 5.9375,-26.875 1.5773,-1.3953 4.7039,-4.1994 6.2813,-5.625 1.7591,-9.7365 2.1376,-20.1329 7.7187,-28.6563 4.9744,8.7357 5.6416,18.9198 7.2187,28.6563 1.5774,1.2739 4.7665,3.8822 6.3438,5.1563 1.2739,9.524 3.067,18.9933 6.3125,28.0624 -3.3062,8.7962 -8.2666,17.701 -6.75,27.4376 1.4862,12.2842 2.0065,24.7432 -0.875,36.9062 3.5185,1.4256 7.045,2.8877 10.5937,4.3438 -0.4245,10.1913 -1.5486,20.3047 -3.1562,30.375 5.9147,3.7913 10.2232,9.9677 16.5625,13.0312 9.8881,1.1829 19.895,0.3774 29.8437,0.4688 -2.0018,-7.8864 -4.2647,-15.6699 -6.8124,-23.3438 -4.0039,-0.061 -7.9953,-0.063 -11.9688,-0.094 -1.5773,-6.6728 -2.9394,-13.3922 -4.0312,-20.1562 2.2747,-0.4246 6.851,-1.3253 9.1562,-1.75 0.182,-22.1725 2.6814,-44.686 -3.7188,-66.3125 1.9414,0 5.8079,0.063 7.7188,0.094 -3.6701,-11.6473 -4.9704,-23.7688 -7.0938,-35.75 2.0627,-2.2141 4.1259,-4.4106 6.2188,-6.625 -1.0313,-3.943 -2.0303,-7.8684 -3.0312,-11.7812 3.8823,-0.4247 7.7737,-0.8243 11.6562,-1.2188 1.4559,-22.051 10.7906,-44.6557 2.8438,-66.3124 -4.7622,-3.549 -9.8123,-6.7867 -13.9376,-11.0938 -2.0624,-6.5516 -2.4365,-13.486 -3.4374,-20.25 1.6378,-1.21326 4.9255,-3.63047 6.5937,-4.84375 -5.1261,-15.8635 -7.9358,-32.5795 -1.6875,-48.625 5.308,4.45877 8.4495,10.4327 7.8125,17.5 1.9412,4.76209 3.8702,9.55134 5.7813,14.34375 1.3345,0.69764 3.9466,2.08454 5.2812,2.8125 3.4578,5.52039 6.9862,10.97686 10.6562,16.40625 -1.5164,1.7289 -4.5146,5.20951 -6.0312,6.96875 5.854,10.7071 12.9842,20.8444 17.625,32.2187 -2.5176,10.5859 -3.0975,21.3517 -0.125,31.9376 2.6692,-0.091 5.3941,-0.1903 8.0938,-0.2813 1.9411,-7.219 3.8583,-14.4409 5.375,-21.7813 2.9117,0.1518 5.839,0.4155 8.7812,0.7188 -0.5763,7.3099 -6.3492,12.6248 -9.625,18.8125 2.2445,0.03 6.7242,0.1269 8.9688,0.1875 -5.3992,6.3697 -8.7704,13.8508 -6.3438,22.3438 6.7943,-4.2769 14.8758,-8.1469 18,-16.0938 3.5792,-8.6142 8.7261,-16.8445 10,-26.1562 -2.8512,-8.5234 -8.1544,-16.0788 -10.1562,-24.875 -3.2455,-12.7394 -3.2786,-25.98496 -5.25,-38.9063 -4.9745,0.21232 -9.8372,0.50735 -14.7813,0.75 -2.8512,-6.58199 -5.7443,-13.16709 -8.6563,-19.71875 0.5158,-1.51659 1.5792,-4.51466 2.125,-6.03125 -3.9733,-6.70332 -6.986,-14.22688 -12.7187,-19.65625 -11.5867,-10.67679 -17.7581,-25.65491 -23.1875,-40.0625 -4.0341,-14.19526 -18.315,-21.70389 -30.7812,-27.40625 -7.3101,-2.72986 -11.2977,-9.73605 -15.9688,-15.46875 1.2436,-8.64455 2.7922,-17.22954 4.1875,-25.84375 2.3659,-0.0304 7.1341,-0.0946 9.5,-0.125 -1.0313,-1.03129 -3.0626,-3.09371 -4.0937,-4.125 -1.1528,-7.91659 -1.8721,-16.51084 -6.9376,-23.0625 -4.1856,-5.03508 -9.5513,-8.9144 -14.3437,-13.3125 -7.6436,2.00189 -15.7968,4.27189 -21.4687,10.15625 -5.5812,5.88436 -9.0367,13.30035 -13.3438,20.125 2.3659,1.06161 4.7601,2.15805 7.1562,3.25 -0.2122,14.19525 8.6143,29.6375 -1.0312,42.4375 -14.6199,6.15735 -28.5787,13.62381 -41.5,22.875 -7.7043,16.10616 -12.8223,33.79647 -24.5,47.71875 -5.5507,6.82465 -9.8133,14.54665 -13.96875,22.28125 -0.63696,17.1981 -10.59455,32.18514 -14.75,48.62505 -3.70048,-8.67499 -7.26834,-17.47036 -8.90625,-26.81255 -5.61138,-22.20284 -1.86635,-47.04171 -15,-67 -12.95166,-9.6455 -26.13282,-19.25906 -41.875,-23.6875 2.91185,-3.42749 6.09642,-6.59458 9.28125,-9.71875 1.30426,-4.12512 2.53858,-8.28023 3.8125,-12.375 -1.7289,-1.00095 -5.17734,-2.93564 -6.90625,-3.90625 0.15166,-5.55071 0.35203,-11.07336 0.625,-16.59375 -4.51942,-3.67014 -8.91347,-7.36295 -13.28125,-11.09375 -11.13175,-1.88058 -19.71214,5.13302 -25.6875,13.65625 0.18199,4.73176 0.31709,9.45666 0.46875,14.21875 -1.72891,0.87961 -5.14517,2.62037 -6.84375,3.5 0.15165,2.33554 0.50459,6.97604 0.65625,9.28125 4.18578,4.09479 8.33721,8.22505 12.25,12.5625 -12.34503,7.91659 -26.29377,13.23413 -38.0625,22 -13.01232,14.65024 -16.61036,35.63732 -14.0625,54.625 -2.54786,-18.47204 -14.40695,-33.1907 -21.65625,-49.8125 -4.88341,-15.3782 -11.45661,-30.06668 -18.28125,-44.65625 8.85686,-10.37346 -4.46864,-20.28098 -8.59375,-29.5625 -4.94407,-12.25402 -24.35115,-14.64111 -22.53125,-29.625 -11.28341,-7.03696 -22.43259,-14.31137 -33.625,-21.5 -7.7346,1.18294 -15.15052,-1.02565 -22.1875,-3.9375 -7.6436,-14.46825 -5.36,-32.12554 -15.1875,-45.5625 -3.6398,-6.43032 -11.37299,-8.158 -17.5,-11.3125 z M 855.21875,951.375 c 1.51659,6.36966 3.51836,12.69925 4.125,19.28125 0.12137,9.70616 -7.1846,16.91522 -12.25,24.4375 1.85024,1.48626 5.52476,4.48249 7.375,5.96875 -1.9109,16.2275 1.66289,33.4316 -5.34375,48.7187 -7.76492,-18.6539 -15.00565,-39.2117 -10.03125,-59.62495 3.85214,-13.4673 7.78376,-27.28553 16.125,-38.78125 z m 182.90625,82.0312 c -0.455,11.3441 -1.8263,22.656 -2.2812,34 -6.9157,8.3716 -14.2958,16.4153 -23.0313,22.9063 2.8208,-15.3479 8.1404,-30.143 14.8437,-44.1563 2.2143,-5.1867 6.01,-9.3831 10.4688,-12.75 z"
       id="path16"
       transform="scale(0.8,0.8)"
       inkscape:connector-curvature="0"
       sodipodi:nodetypes="ccccccccccccccccccccccccccccccccccccccccccccccccccccccccccccccccccccccccccccccccccccccccccccccccccccccccccccccccccccccccccccccccccccccccccccccccccccccccccccccccccccccccccccccccccccccccccccccccccccccccccccccccccccccccccccccccccccccccccccccccccccccccccccccccccccccccccccccccccccccccccccccccccc" />
    <path
       style="fill:#f4722b"
       d="M 178.71875 691.75 C 166.82871 693.78223 154.77562 703.86819 158.71875 717.0625 C 153.19837 727.83028 161.4356 738.88664 163.4375 749.59375 C 149.36356 766.94351 126.03172 771.58875 109.53125 785.875 C 105.64878 789.60581 103.90539 794.86567 101.8125 799.71875 C 88.041884 837.42113 62.34141 869.19377 47.8125 906.5625 C 38.773637 921.75871 34.744758 939.26519 25.28125 954.21875 C 26.615847 959.13249 28.01099 964.055 29.40625 968.96875 C 26.858384 980.52515 23.860279 992.23586 24.40625 1004.1562 C 28.046061 1019.9894 39.38282 1033.4916 55.125 1038.375 C 54.457701 1030.8527 51.865906 1023.7667 48.46875 1017.0938 C 51.865906 1020.3999 55.29218 1023.6939 58.75 1027 C 60.509242 1023.3905 65.36401 1020.5838 63.96875 1016.125 C 62.057849 1005.7819 59.498992 995.24662 62.5625 984.8125 C 62.04686 983.62956 60.98439 981.24451 60.46875 980.03125 C 64.897186 977.21039 69.352814 974.35303 73.78125 971.5625 C 81.637174 953.63644 88.38676 935.28638 94.96875 916.875 C 103.7043 896.9167 107.16505 874.68709 120.875 857.125 C 127.15368 867.55913 122.41096 878.99879 118.4375 889.28125 C 119.28679 891.95045 120.11946 894.58081 120.96875 897.25 C 117.96591 906.50119 118.56703 916.28281 120.78125 925.625 C 116.38315 936.39278 111.30613 947.00426 109.03125 958.5 C 98.4758 1011.7929 87.280597 1064.9957 77.96875 1118.5312 C 75.966854 1132.9388 66.054324 1144.4215 62.6875 1158.3438 C 77.428731 1172.1144 96.050919 1181.0136 115.28125 1186.625 C 113.52201 1178.7084 111.33922 1170.9524 109.125 1163.1875 C 115.28235 1161.8832 121.46673 1160.6453 127.59375 1159.25 C 131.05158 1173.1116 135.27018 1186.8994 136.96875 1201.125 C 136.81709 1210.2852 133.7306 1219.5218 137.21875 1228.5 C 132.63866 1237.0535 127.46898 1245.5421 119.21875 1251.0625 C 117.94482 1254.6114 116.64985 1258.2021 115.40625 1261.7812 C 133.66596 1262.0542 152.13735 1262.5011 170.09375 1258.4062 C 169.21412 1247.3959 167.95128 1236.3845 168.40625 1225.3438 C 169.43752 1212.6651 161.44576 1201.5252 161.71875 1188.9375 C 160.89979 1178.0787 162.86936 1167.2871 166.8125 1157.1562 C 168.96605 1156.7316 173.25178 1155.8925 175.375 1155.4375 C 175.49633 1137.9967 176.17823 1120.5088 178.96875 1103.25 C 181.33463 1120.7514 180.0441 1138.4076 180.46875 1156 C 186.01946 1156.728 191.5752 1157.4283 197.15625 1158.1562 C 202.79795 1176.5979 202.23089 1196.6079 195.40625 1214.625 C 193.85933 1229.1236 194.31715 1243.8783 192.40625 1258.4375 C 210.63564 1261.6829 229.09046 1262.5939 247.5625 1261.5625 C 246.07624 1254.9502 242.8035 1249.2951 236.3125 1246.6562 C 232.39971 1240.6809 228.73999 1234.5609 225.3125 1228.3125 C 228.28501 1217.757 224.30325 1206.9589 226.0625 1196.3125 C 227.82174 1184.3921 230.83999 1172.6786 233.8125 1161.0312 C 240.84946 1161.5469 247.86927 1162.0781 254.90625 1162.5938 C 252.38871 1170.5103 250.0019 1178.4943 248 1186.5625 C 267.8673 1180.4961 286.7652 1170.8993 301.71875 1156.2188 C 295.95573 1145.087 288.84475 1134.3469 285.78125 1122.0625 C 276.01443 1070.4379 266.19422 1018.8461 256.09375 967.3125 C 258.06531 966.28123 261.96592 964.21786 263.9375 963.15625 C 263.14887 943.10696 261.7639 922.96471 258.09375 903.21875 C 252.57337 900.91354 246.66837 899.89434 240.875 898.46875 C 241.81529 895.95121 243.68473 890.89161 244.625 888.34375 C 240.34822 877.27266 237.12859 865.48562 240.34375 853.65625 C 247.98735 863.18041 255.35471 873.52631 257.78125 885.75 C 261.39072 902.06849 269.51086 916.8819 275.03125 932.59375 C 280.85494 946.48569 284.61735 961.72761 294.6875 973.375 C 300.48086 979.56268 301.48246 988.29757 304 996.0625 L 310.28125 1028.0312 L 306.0625 1033.2188 C 315.10136 1031.8842 323.24524 1027.2621 329.28125 1020.4375 C 329.46325 1020.1645 329.88142 1019.6167 330.09375 1019.3438 C 337.73735 991.83285 332.23724 962.94105 328.71875 935.1875 C 324.53297 921.08324 315.86781 909.02612 310.46875 895.4375 C 297.06213 862.89153 275.41579 834.40261 263.34375 801.25 C 260.64423 795.18365 259.18951 787.73356 253.0625 784.09375 C 237.95729 773.72029 220.93607 766.34775 206.4375 755.125 C 202.00906 752.21315 201.13055 747.04242 200.28125 742.25 C 204.55804 736.57796 207.24905 729.97446 208.25 722.9375 C 200.94004 717.2958 208.71343 707.20513 202.34375 701.59375 C 196.79304 694.43546 187.4543 691.68938 178.71875 691.75 z M 46.375 1003.6562 C 48.514811 1003.7472 49.128703 1005.4259 48.21875 1008.6562 C 44.002636 1009.8695 42.53673 1008.3402 43.75 1004.0938 C 44.804028 1003.7753 45.66173 1003.6259 46.375 1003.6562 z "
       transform="scale(0.8,0.8)"
       id="path14" />
    <path
       d="m 233.79716,800.15166 c 3.10597,-1.14048 6.18767,-2.42654 9.39071,-3.3001 8.37156,-1.35886 17.49535,3.17877 21.01384,10.84664 1.45592,9.19659 -10.07015,10.7981 -15.96664,14.7291 -3.90673,-0.36398 -7.78919,-0.97062 -11.64739,-1.55299 -1.04341,-6.89137 -2.13536,-13.78275 -2.79052,-20.72265 z"
       id="path20"
       style="fill:#f5e5c1"
       inkscape:connector-curvature="0" />
    <path
       d="m 263.42521,816.36095 c 0.1456,-0.21839 0.48531,-0.65517 0.65517,-0.87356 -0.16986,0.21839 -0.50957,0.65517 -0.65517,0.87356 z"
       id="path24"
       style="fill:#f5e5c1"
       inkscape:connector-curvature="0" />
  </g>
</svg>
