<?xml version="1.0" encoding="UTF-8" standalone="no"?>
<svg
   xmlns:dc="http://purl.org/dc/elements/1.1/"
   xmlns:cc="http://creativecommons.org/ns#"
   xmlns:rdf="http://www.w3.org/1999/02/22-rdf-syntax-ns#"
   xmlns:svg="http://www.w3.org/2000/svg"
   xmlns="http://www.w3.org/2000/svg"
   xmlns:sodipodi="http://sodipodi.sourceforge.net/DTD/sodipodi-0.dtd"
   xmlns:inkscape="http://www.inkscape.org/namespaces/inkscape"
   width="1280"
   height="1280"
   viewBox="0 0 1024 1024"
   version="1.1"
   id="svg2"
   inkscape:version="0.47 r22583"
   sodipodi:docname="charge_friends.svg">
  <metadata
     id="metadata32">
    <rdf:RDF>
      <cc:Work
         rdf:about="">
        <dc:format>image/svg+xml</dc:format>
        <dc:type
           rdf:resource="http://purl.org/dc/dcmitype/StillImage" />
      </cc:Work>
    </rdf:RDF>
  </metadata>
  <defs
     id="defs30" />
  <sodipodi:namedview
     pagecolor="#ffffff"
     bordercolor="#666666"
     borderopacity="1"
     objecttolerance="10"
     gridtolerance="10"
     guidetolerance="10"
     inkscape:pageopacity="0"
     inkscape:pageshadow="2"
     inkscape:window-width="1280"
     inkscape:window-height="738"
     id="namedview28"
     showgrid="false"
     inkscape:zoom="1.44"
     inkscape:cx="263.75"
     inkscape:cy="94.315106"
     inkscape:window-x="-8"
     inkscape:window-y="-8"
     inkscape:window-maximized="1"
     inkscape:current-layer="svg2" />
  <path
     d="m 0,0 1024,0 0,1024 L 0,1024 0,0 z"
     id="path4"
     style="fill:#3e3e3e" />
  <path
     d="m 132.27071,67.1181 c 11.76872,-10.04587 35.57308,-0.92208 32.29725,15.9909 4.87735,9.00247 -2.86332,16.88873 -3.51848,25.43015 10.96796,14.70483 30.88986,18.78142 44.47848,30.59867 4.58616,7.25536 6.55166,15.82104 10.38559,23.48891 11.25915,23.39185 25.62427,45.30351 35.2819,69.49611 5.87223,10.65252 11.11355,21.79034 13.92834,33.68038 3.00891,21.64474 5.84796,43.82332 2.54787,65.61365 -9.6091,2.45081 -20.14029,4.4891 -28.39052,-2.54787 8.51715,-1.33459 16.81592,-3.7854 24.67791,-7.35241 -0.46104,-6.5274 -0.53384,-13.24891 -2.86332,-19.43659 -6.9399,-1.9655 -14.21952,-1.98976 -21.35355,-2.49934 0.36398,-2.11109 1.11621,-6.35753 1.48019,-8.46862 -11.28341,-6.4546 -13.92834,-19.60645 -18.70863,-30.62294 -5.6053,-13.92834 -12.78786,-27.29858 -16.16075,-42.02768 -1.9655,-9.92455 -7.88626,-18.34464 -14.00114,-26.1581 -4.5619,12.44815 5.60531,24.11981 1.11621,36.49516 4.3435,0.82503 8.68701,1.62579 13.03052,2.42654 2.03829,15.06882 4.44057,30.2347 4.22218,45.49763 0.0485,3.49422 -3.95526,5.04721 -5.7509,7.59508 7.13403,40.32909 15.50559,80.43981 22.9308,120.72037 1.72285,10.57972 8.61422,19.19394 11.98711,29.16702 -10.43412,12.37535 -26.32796,18.34464 -41.20265,23.51317 1.8199,-6.16341 3.68834,-12.25402 5.62957,-18.36891 -5.92076,-0.50957 -11.84151,-1.06767 -17.73801,-1.65004 -2.35374,10.38559 -5.28986,20.69839 -6.40606,31.30237 -0.19413,7.81346 1.43165,15.65118 -0.16986,23.41611 2.86332,5.1928 5.89649,10.28853 8.92967,15.38427 1.40739,0.33971 4.19791,1.01914 5.6053,1.35886 0.89782,3.32436 1.77138,6.62445 2.6692,9.97308 -14.58351,1.11621 -29.16702,-0.19412 -43.21668,-4.31924 1.16474,-8.17744 2.86331,-16.35488 2.23241,-24.65365 -1.11621,-9.26939 4.12512,-17.56815 4.90161,-26.61915 0.80076,-9.43924 -0.6309,-18.90275 -3.03317,-28.02654 -4.02806,-0.48531 -8.08038,-0.97062 -12.10844,-1.45592 -1.2618,-19.26673 -1.50445,-38.58199 -2.18388,-57.87299 -1.69858,18.73289 -3.66408,37.46578 -4.10086,56.27147 -10.84663,3.66408 -10.28853,16.79166 -10.36132,26.13384 -0.82503,10.9437 6.35753,20.55279 5.38692,31.47223 -0.36398,8.61421 0.67943,17.20417 1.21327,25.79412 -14.04967,3.49422 -28.51185,3.93099 -42.901235,3.44569 0.727962,-2.91185 1.480189,-5.79944 2.232417,-8.71128 8.808338,-5.43545 15.748248,-15.23868 13.345968,-26.01252 2.93612,-16.25782 -2.57213,-32.05459 -6.40606,-47.68151 -5.071472,1.09194 -10.142942,2.08682 -15.238676,3.03317 2.014028,6.11489 3.95526,12.25403 5.775166,18.44171 -16.160759,-3.20303 -29.846446,-12.61801 -42.828436,-22.22711 4.610426,-11.81725 11.501801,-22.85801 13.176113,-35.64588 7.085498,-40.69308 15.62692,-81.11924 23.731564,-121.6182 1.79564,-10.14293 5.993555,-19.58218 9.876019,-29.04568 -1.383128,-7.03697 -1.455924,-14.21953 -0.727962,-21.35356 -3.081706,-10.99222 6.842842,-21.1109 1.431659,-31.93327 -11.477536,13.4673 -13.734218,31.32664 -21.06237,46.88076 -5.508246,13.07905 -10.264265,26.54635 -16.646066,39.26142 -2.062559,4.6347 -6.64872,7.18256 -10.55545,10.09441 -1.140474,11.28341 0.606635,22.49403 0.994881,33.72891 -0.558104,0.65517 -1.625782,1.91697 -2.183886,2.57213 -2.305213,-1.43166 -6.939905,-4.24644 -9.245118,-5.65384 1.407393,3.78541 4.246445,11.33195 5.653838,15.11735 -12.812132,-2.45081 -21.620474,-13.22464 -24.799241,-25.38161 -0.121327,-13.05479 4.197914,-25.91545 1.674312,-39.01877 5.920759,-17.64095 14.559242,-34.26275 21.96019,-51.32133 10.191469,-20.84398 23.149194,-40.23203 32.636967,-61.44 3.32436,-7.32815 5.289858,-15.36 9.997346,-21.96019 12.278294,-12.90919 33.80171,-14.48644 43.16815,-30.35601 -0.48531,-8.88114 -6.3818,-17.17991 -3.46995,-26.27944 0.58237,-5.77516 1.31033,-12.30255 6.74578,-15.67545 z"
     id="path6"
     style="fill:#f4722b" />
  <path
     d="m 716.77573,129.67431 c 6.50313,-0.80076 13.00626,-1.72284 19.50939,-2.69346 0.97061,2.20815 1.9655,4.41631 2.96038,6.60019 3.61554,5.04721 6.52739,10.53119 9.22085,16.11223 -1.2618,0.87355 -3.73687,2.5964 -4.97441,3.46995 0.53384,5.92076 -0.0243,11.84152 -2.15962,17.44683 2.0383,3.97952 3.95526,8.00758 5.87223,12.0599 2.5964,-5.50824 5.09573,-11.06502 7.47374,-16.67033 5.33839,2.91185 10.70105,5.8237 16.0637,8.68702 -1.45592,6.96417 -7.15829,15.52985 1.28607,20.16454 -0.19413,13.29745 9.85175,23.41612 14.5835,35.18484 2.47508,7.52227 9.00247,11.86578 15.67545,15.36 -0.67943,2.81479 -1.33459,5.65384 -1.96549,8.49289 5.6053,7.66787 6.50312,17.3255 9.90028,25.98825 6.55166,-8.9782 11.21062,-19.19394 14.8019,-29.67659 6.72151,-7.7164 11.89004,-16.6218 15.94237,-25.98825 3.03317,-6.21194 5.09573,-13.58862 11.5018,-17.22843 9.22085,-6.16342 18.34464,-12.49669 27.68682,-18.46598 -0.92208,-4.05232 -2.08682,-8.00758 -3.00891,-12.03564 3.05744,-0.43677 6.21195,-0.82502 9.34218,-1.189 -5.53251,-11.93858 3.49422,-28.7545 17.54389,-26.98313 3.37289,3.931 7.35242,7.52228 9.77896,12.18123 1.98976,8.46863 -3.20304,17.85934 0.99488,25.79413 11.13782,9.02673 25.23602,14.7291 34.52967,25.96398 6.28473,11.76872 11.45327,24.16834 18.75715,35.37896 5.21706,7.5708 8.2745,16.30635 11.91431,24.70218 0.87356,0.87355 2.62067,2.62066 3.49422,3.49421 3.46996,13.03053 7.91052,25.86692 9.73043,39.28569 1.11621,12.1327 8.37153,22.27564 11.74443,33.75318 -4.1008,6.67298 -8.15315,13.41876 -12.52092,19.92189 -3.66408,5.48398 -10.28853,7.6436 -15.62692,10.99223 -1.01915,-2.79052 -2.01403,-5.55678 -2.98465,-8.3473 3.08171,-2.81479 6.18768,-5.65384 9.26939,-8.46862 -2.11109,-0.29119 -6.35754,-0.82503 -8.49289,-1.11621 2.81478,-4.12512 6.16341,-7.88626 10.11867,-10.96796 -0.12133,-1.38313 -0.38825,-4.19792 -0.50958,-5.58105 -2.06255,0.31545 -4.10085,0.6309 -6.13914,0.97062 -3.3001,6.52739 -4.53763,17.27697 -13.83128,17.1799 -1.91697,-11.52606 0.46104,-22.90654 5.02294,-33.53478 -5.1928,-11.28342 -10.77384,-22.39697 -16.03943,-33.63185 -5.62958,-11.72019 -3.3001,-25.86692 -10.77384,-36.85915 -0.60664,6.40607 -1.57725,13.10332 0.6309,19.33953 3.8582,10.02161 1.50445,20.96531 2.4508,31.42369 5.33839,24.14408 7.95905,48.84626 11.25915,73.33005 1.94123,9.36645 -5.09574,17.34976 -5.14427,26.44929 1.67432,5.84796 4.75602,11.16209 7.23109,16.67033 -2.86331,3.32436 -5.6781,6.69725 -8.44436,10.11868 0.0971,4.70748 -1.01914,9.19658 -4.12511,12.83639 -1.43166,8.83261 -3.2273,17.59242 -4.65896,26.40076 -2.40228,1.4074 -4.80455,2.79052 -7.20683,4.17365 0.7037,8.56569 1.84417,17.08285 3.42143,25.52721 2.86331,1.14047 5.7509,2.30521 8.63848,3.46995 0.72796,3.97952 1.48019,7.95905 2.23242,11.96284 -8.25024,0.0485 -16.52474,0.0243 -24.72645,-0.75223 -0.29118,-1.35886 -0.84929,-4.07658 -1.11621,-5.43545 -1.16474,-1.04341 -3.46995,-3.13023 -4.63469,-4.17365 -1.69858,-10.7981 3.63981,-21.42635 2.98464,-32.29725 -1.35886,-2.4508 -3.44568,-4.39203 -5.21706,-6.50312 -0.33971,-7.7164 -0.5581,-15.40854 -0.75222,-23.12493 -3.68835,-2.81479 -7.37669,-5.60531 -11.0165,-8.46863 2.23242,-10.8709 5.33839,-21.79033 4.97441,-32.97668 -1.8927,-11.01649 -6.09062,-21.47488 -9.07526,-32.24872 -4.82882,11.84151 -10.48265,24.21687 -9.14806,37.34445 0.7765,9.94882 2.49934,19.77631 3.73687,29.70086 -3.39715,2.86331 -6.77004,5.7509 -10.14293,8.63848 -0.31545,6.89137 -0.6309,13.78275 -0.80076,20.67412 -1.67432,2.13536 -3.34863,4.29498 -4.99868,6.43033 0.94636,9.82749 3.46996,19.43659 3.95527,29.31261 0.99488,3.8582 -2.88759,5.58104 -5.16854,7.7164 -0.26691,1.38313 -0.80075,4.10085 -1.06767,5.45972 -8.39583,0.75222 -16.81593,0.72796 -25.23602,0.65516 1.21327,-4.22218 2.42654,-8.39583 3.68834,-12.59374 2.5236,-0.84929 5.0472,-1.72285 7.59507,-2.57214 1.45592,-8.15317 2.66919,-16.35488 3.61555,-24.58085 -1.23754,-0.77649 -3.71261,-2.32948 -4.95015,-3.13024 -5.07147,-11.30767 -4.56189,-25.23602 -12.88493,-34.84511 0.16986,-1.67432 0.53384,-5.02294 0.72797,-6.69726 -2.86332,-3.37289 -5.7509,-6.72151 -8.63849,-10.04587 2.57214,-6.16341 6.33327,-11.96285 7.7892,-18.53877 -1.38313,-5.94502 -4.63469,-11.30768 -5.48398,-17.37403 -0.75223,-11.52607 2.4508,-22.76095 3.1545,-34.18995 -1.31033,-1.28607 -3.95526,-3.8582 -5.26559,-5.14427 1.14047,-10.28853 4.3435,-20.4072 3.61554,-30.81706 -0.89782,-6.96417 1.98976,-13.58862 3.931,-20.11602 1.21327,-0.84929 3.61554,-2.57213 4.80455,-3.42142 -0.55811,-1.91697 -1.67432,-5.77517 -2.25669,-7.69213 2.79053,-10.70104 4.24645,-21.71754 6.91564,-32.46711 -8.9782,9.26938 -10.91943,22.32417 -13.15184,34.48114 -1.62579,11.01649 -9.34218,19.72777 -13.03053,30.04057 -2.96038,13.92834 -0.6309,28.0508 -0.60663,42.10047 -7.88626,3.30009 -10.43412,11.72019 -13.5401,18.90275 -5.96929,-3.56702 -13.54009,-5.72664 -17.15564,-12.1327 -3.51848,-6.21195 -7.42521,-12.22977 -10.40985,-18.70863 3.03317,-13.22464 11.11355,-24.94483 12.22976,-38.70332 1.14047,-6.26047 -3.27583,-11.5018 -6.69725,-16.18502 -5.24133,-6.40607 -6.40607,-14.85043 -8.85687,-22.49403 -1.31034,0.84929 -3.931,2.57213 -5.24133,3.42142 0.72796,-7.06123 -4.4891,-11.67166 -9.051,-16.06369 0.7037,12.35109 3.71261,24.48379 3.931,36.88341 -2.15962,5.92076 -7.54654,9.99734 -11.23488,14.97175 3.54275,1.01915 7.0855,2.01403 10.65251,3.05744 0.24265,5.84797 0.84929,11.74446 2.69346,17.34977 -0.65517,3.51848 -1.18901,7.06123 -2.18389,10.50692 -2.35374,1.55298 -4.92587,2.69346 -7.40094,3.97952 0.67943,19.8491 1.60151,39.67394 2.18388,59.49877 0.58237,5.84796 -2.83905,11.01649 -3.20303,16.74313 -0.21839,18.92701 4.51336,37.41725 7.03696,56.07734 0.75223,6.96417 -4.90161,14.46218 0.0971,20.84398 4.00379,9.29365 12.93346,14.21953 20.89251,19.63071 -8.58995,0.65517 -17.22844,0.63091 -25.81839,0.38825 -4.87735,-4.78028 -10.33706,-9.02673 -16.93725,-11.08929 0.80076,-9.24512 -4.61043,-16.69459 -8.08038,-24.72644 -0.50957,-19.65498 2.5964,-39.43128 0.50957,-59.06199 -2.08682,-7.91052 1.55299,-15.89384 0.0243,-23.85289 -3.2273,-22.05726 -4.27071,-45.23072 -15.91811,-64.88569 -2.4508,0.33971 -4.87734,0.67943 -7.30388,1.04341 -6.86711,15.65119 -9.75469,32.51564 -11.35621,49.42863 -0.65517,10.57971 -4.58616,21.52341 -0.60664,31.88474 -5.7509,21.35355 0.94635,43.58066 -1.16474,65.29819 -3.22729,8.08038 -6.74578,16.08797 -7.81345,24.82351 -6.60019,2.15962 -12.15697,6.35754 -17.08285,11.13782 -8.88114,0.24266 -17.93213,0.82502 -26.59488,-1.52872 5.38692,-4.56189 12.08417,-7.52227 17.08284,-12.52095 3.63981,-5.84796 7.54654,-12.35109 7.01271,-19.50938 -1.31034,-21.20796 4.39203,-42.02768 4.44056,-63.21137 0,-5.79944 -2.83905,-11.16209 -2.79052,-16.96152 0.16986,-19.8491 1.38313,-39.67394 1.91697,-59.52303 -3.00891,-0.60664 -5.99356,-1.21327 -8.9782,-1.81991 -0.6309,-4.99867 -1.40739,-9.97308 -2.47507,-14.87469 0.6309,-4.65896 1.23753,-9.31792 1.8199,-13.95261 3.95527,-0.72796 7.91053,-1.45592 11.86579,-2.18388 -2.0383,-6.67299 -7.35242,-11.23489 -12.39962,-15.65119 1.57725,-12.66654 3.88246,-25.26028 4.90161,-38.02389 -6.13915,4.36778 -10.04588,10.55545 -8.85688,18.32038 -7.52227,-1.98976 -6.84284,7.91052 -10.19146,12.10844 -5.8237,8.08038 -14.0982,14.8019 -15.82105,25.21175 4.99868,13.34597 8.92967,27.85669 5.62958,42.12474 -7.0127,4.02806 -12.86067,9.70616 -17.71375,16.11223 -1.52872,-7.86199 -6.309,-14.26806 -13.34597,-18.05346 0.99488,-13.15185 3.2273,-26.2309 3.10597,-39.45554 -3.17877,-12.08418 -15.09308,-19.38806 -17.90786,-31.54503 -0.84929,-4.10085 -3.46996,-7.40095 -5.8965,-10.70104 -0.29118,-1.84417 -0.89782,-5.58104 -1.21327,-7.44948 -2.64493,2.88758 -5.26559,5.79943 -7.93478,8.66275 0.43677,1.65005 1.31033,4.92588 1.7471,6.55166 -2.64492,6.11488 -5.79943,11.98711 -9.43924,17.56815 3.80967,0.72796 7.6436,1.45592 11.47754,2.20815 0,7.83773 -0.29119,15.65119 -0.48531,23.48891 -3.56701,-0.0243 -7.13403,-0.0485 -10.70104,-0.0485 1.23753,14.87469 5.92076,29.23981 6.47886,44.21156 1.14047,10.74958 -0.89782,21.93593 2.69346,32.37005 3.10597,9.43924 6.74578,18.6601 9.99735,28.05081 -4.05233,3.17876 -8.05612,6.40606 -12.03564,9.68189 -1.21327,10.33706 -3.15451,20.57706 -4.27072,30.93839 1.11621,0.72796 3.34863,2.15962 4.46484,2.88758 -2.96038,8.58996 -4.27071,17.64095 -0.53384,26.25517 2.98464,0.72796 6.13915,1.11621 8.9054,2.5964 1.23754,4.4891 1.04342,9.17232 1.28607,13.78275 -7.54654,0.21839 -15.06882,0.26692 -22.59109,-0.0243 -3.90673,-1.28607 -7.93479,-2.32948 -11.91431,-3.32436 0.53384,-12.95773 4.29497,-25.47868 4.31924,-38.46067 0.65516,-1.2618 1.94123,-3.76114 2.5964,-5.02294 -0.58237,-9.70616 -3.39716,-19.04834 -4.80455,-28.60891 -2.54787,-2.5236 -5.12,-5.0472 -7.69214,-7.54654 1.38313,-9.17232 2.5964,-18.36891 4.17365,-27.51697 -0.99488,-0.89782 -2.98464,-2.71772 -3.97952,-3.63981 -0.92209,-13.20038 -1.72285,-26.57061 -5.96929,-39.21289 -6.35754,0 -12.71507,0.0243 -19.04834,0.0971 -6.16342,13.90408 -1.72285,30.40455 -9.43924,43.50787 0.99488,8.9054 2.40227,17.76228 3.7126,26.64341 -2.5964,2.64493 -5.19279,5.28986 -7.78919,7.95905 -1.38313,9.51204 -3.8582,18.85422 -4.97441,28.41479 0.99488,0.94635 3.03318,2.81479 4.05232,3.73687 -0.58237,13.4673 2.62067,26.64342 3.08171,40.03792 -11.40474,3.37289 -23.27052,3.51849 -35.03924,2.6692 0.50957,-4.31924 0.65516,-8.73555 1.84417,-12.95773 1.98976,-2.47507 5.72663,-1.98976 8.46862,-3.17877 1.21327,-3.13024 2.47507,-6.23621 3.73687,-9.34218 -1.01914,-5.33839 -2.11109,-10.65251 -3.34862,-15.9181 0.89782,-1.28607 2.66919,-3.8582 3.56701,-5.14427 -0.24265,-10.11867 -2.74199,-20.01896 -4.07658,-30.0163 -3.931,-3.08171 -7.88626,-6.16342 -11.84152,-9.19659 4.36777,-15.16588 12.81213,-29.55526 12.32682,-45.74029 0.89782,-13.00625 3.00891,-25.86692 4.41631,-38.80037 -4.85308,-1.04342 -9.70616,-2.15963 -14.51071,-3.39716 1.09194,-8.66275 5.58104,-17.85934 1.67431,-26.40076 1.23753,-3.61554 2.54787,-7.20682 3.88246,-10.77384 3.66408,-0.72796 7.32816,-1.45592 11.0165,-2.18388 -2.98465,-8.15318 -10.48266,-15.19015 -9.17233,-24.411 0.89782,-4.4163 -0.58237,-8.61422 -2.57213,-12.47242 -1.91697,5.41119 -3.97952,10.82237 -7.54654,15.38427 -1.31033,4.58616 -2.03829,9.58483 -5.21706,13.34597 -7.03697,8.9054 -13.68569,18.41744 -17.59242,29.14275 -1.16474,3.56701 1.8927,6.64872 2.88759,9.87602 3.63981,7.78919 3.51848,16.59753 3.76113,24.99336 -1.98976,-0.36398 -5.96929,-1.11621 -7.98331,-1.48019 -1.52873,1.94124 -3.08171,3.90673 -4.61043,5.87223 0.29118,3.7854 0.48531,7.59507 0.60663,11.42901 -6.91564,-5.53252 -12.66654,-12.35109 -16.81592,-20.14029 -1.35886,-0.0971 -4.02806,-0.26692 -5.36265,-0.36398 -0.6309,-10.11867 -1.81991,-20.31014 -0.43678,-30.42882 -8.71128,-12.0599 -19.50939,-23.80436 -21.66901,-39.14009 -0.94635,-9.82749 -7.86199,-17.27697 -13.54009,-24.77498 -2.03829,5.87223 -3.8582,11.84152 -5.53251,17.83507 0.89782,3.51849 3.90673,7.13403 2.01403,10.82237 -4.70749,12.982 -3.3729,27.58977 1.40739,40.35337 4.07659,11.67166 6.52739,23.80436 8.66275,35.93706 -3.00891,1.45593 -6.01782,2.93611 -9.02673,4.4163 0.33971,15.67545 -3.00891,31.10825 -3.59128,46.68664 4.85308,9.29365 8.12891,19.2182 8.88114,29.74938 -3.3729,2.76626 -6.77005,5.50825 -10.16721,8.25024 -1.50445,5.84796 -3.27583,11.62313 -4.70749,17.51962 -2.32948,8.00758 -0.0971,16.37915 -1.33459,24.55659 5.09573,6.60019 11.59886,11.96285 16.69459,18.5873 -12.93346,1.09195 -25.93971,0.43678 -38.50919,-2.93611 2.25668,-10.50692 1.04341,-21.57195 4.73175,-31.76342 3.44569,-11.64739 1.74711,-24.77497 -6.26047,-34.16569 1.43166,-8.2017 4.24644,-16.33061 4.07659,-24.70218 -2.64493,-13.20038 -5.8237,-26.30369 -9.07526,-39.38274 -4.17365,0.0485 -8.3473,0.0728 -12.49669,0.0971 -3.0817,13.12758 -6.60019,26.1581 -9.26938,39.38275 -0.14559,8.10464 2.79052,15.94237 4.14938,23.90142 -7.37668,9.31791 -11.01649,22.22711 -6.9399,33.72891 4.39204,10.48265 2.28095,22.03298 5.24133,32.87962 -12.44816,3.39716 -25.38162,4.00379 -38.19375,3.08171 4.65896,-9.09953 18.97555,-13.90408 15.77251,-25.91546 2.15962,-12.1327 -2.5964,-23.73156 -5.89649,-35.16056 -2.86332,-2.35375 -5.87223,-4.58617 -8.44436,-7.30389 -2.01403,-11.40474 4.24645,-21.57194 7.95905,-31.81194 -1.3346,-14.97176 -3.97952,-29.84645 -3.7854,-44.9638 -3.32436,-1.8199 -6.64872,-3.61554 -9.97308,-5.38691 1.65005,-15.69972 6.309,-30.84133 11.47753,-45.69176 2.83906,-7.59507 2.11109,-15.84531 2.69346,-23.78009 -0.92208,-1.01915 -2.76625,-3.03318 -3.66407,-4.05233 5.48398,-10.11867 -0.14559,-20.35867 -3.46995,-30.06483 -5.70237,6.60019 -12.78787,12.93346 -14.48645,21.91166 -2.83905,12.03564 -8.12891,23.44038 -15.48133,33.38919 -3.66407,4.65896 -4.4163,10.67678 -5.89649,16.23356 l 0.21839,-1.86844 c 3.30009,-21.79033 0.46104,-43.96891 -2.54787,-65.61365 10.62825,-13.66142 20.23735,-28.09933 26.95886,-44.1145 10.43413,-9.09953 20.5528,-20.69839 34.77233,-23.56171 -0.12133,-1.33459 -0.31545,-4.00379 -0.41252,-5.36265 8.3473,-5.8237 3.08171,-16.93725 4.46484,-25.28455 2.01403,-8.17744 7.52227,-16.42768 16.20929,-18.44171 8.85687,-2.37801 16.98578,4.17365 21.62047,11.08929 3.25157,6.74579 4.70749,14.29233 5.92076,21.64474 -1.3346,0.80076 -3.97953,2.42654 -5.31412,3.2273 5.41118,2.30521 10.7253,4.82882 16.01516,7.40095 -2.13535,2.11109 -4.27071,4.22218 -6.3818,6.33327 13.24891,3.44569 23.22199,13.27317 31.93327,23.24626 5.99356,12.32682 11.93858,24.84777 20.86825,35.37895 10.07014,12.25403 15.14161,27.34711 19.97042,42.19754 2.69346,-9.77896 6.04209,-19.46085 12.32683,-27.5655 -0.60664,-1.74711 -1.81991,-5.21706 -2.40228,-6.96417 13.27318,-12.37536 15.02029,-31.88474 25.91545,-45.91014 -1.01914,-5.50825 -2.01402,-10.99223 -2.91184,-16.50048 9.80322,-5.62957 19.48511,-12.0599 31.05971,-13.15184 0.55811,-6.91564 6.21195,-10.99223 10.40986,-15.79678 1.91697,-6.84285 1.189,-14.77763 5.48398,-20.74692 6.35754,-5.72664 17.3255,-5.48398 23.68303,0.12133 4.39204,5.84796 4.0038,13.70995 6.60019,20.26161 2.74199,3.1545 5.87223,5.92076 8.85688,8.8326 0,1.94124 0,5.84797 0.0243,7.7892 8.17744,1.31033 18.56303,0.0971 23.99848,7.7164 2.52361,1.31033 5.07147,2.57213 7.64361,3.83393 -0.65517,4.85308 -1.57725,9.6819 -1.67432,14.58351 2.5964,6.35753 6.16342,12.30256 8.88114,18.61156 4.97441,10.50692 8.29877,22.29991 17.10711,30.42882 -0.53384,1.79564 -1.57725,5.33838 -2.11109,7.13402 5.0472,6.72152 8.56569,14.36512 10.89517,22.42124 3.90673,-8.44436 7.40094,-17.08285 11.11355,-25.6 -1.2618,-2.28095 -2.5236,-4.5619 -3.7854,-6.84285 3.88246,-3.37289 7.74066,-6.77004 11.64739,-10.14294 -0.94635,-3.49421 -1.91697,-6.96417 -2.91185,-10.43412 13.29744,-7.20682 19.72778,-21.15943 27.25005,-33.48625 3.00891,-4.4891 2.47507,-10.07015 2.88758,-15.16588 8.3473,-4.63469 16.84019,-9.17232 26.18237,-11.40474 0.29119,-1.57725 0.87356,-4.78028 1.16474,-6.35754 0.97062,-0.92208 2.86332,-2.76625 3.83394,-3.68834 -2.18389,-5.19279 -3.61555,-10.60398 -3.97953,-16.23355 -4.36777,-1.69858 -8.71128,-3.46995 -13.00626,-5.26559 5.60531,-2.54786 11.52607,-4.51337 16.86446,-7.64361 1.84417,-4.05232 2.74199,-8.44436 3.97952,-12.71507 z"
     id="path8"
     style="fill:#f5e5c1" />
  <path
     d="m 239.74218,299.58066 c 7.13403,0.50958 14.41365,0.53384 21.35355,2.49934 2.32948,6.18768 2.40228,12.90919 2.86332,19.43659 -7.86199,3.56701 -16.16076,6.01782 -24.67791,7.35241 -0.46105,-9.43924 -3.66408,-20.18881 1.94123,-28.6817 l -1.48019,-0.60664 z"
     id="path10"
     style="fill:#f5e5c1" />
  <path
     d="m 34.845118,311.73763 c 3.227299,-2.30521 6.818579,3.25156 3.979527,5.60531 -3.178768,2.20815 -6.842844,-3.27583 -3.979527,-5.60531 z"
     id="path12"
     style="fill:#3e3e3e" />
  <path
     d="m 126.98085,573.65839 c -3.1545,-10.55545 6.47887,-18.63583 15.9909,-20.26161 6.98844,-0.0485 14.46218,2.15962 18.90275,7.88625 5.09574,4.4891 -1.11621,12.54522 4.73176,17.05858 -0.80076,5.62957 -2.96038,10.91943 -6.38181,15.45706 0.67944,3.83394 1.38313,7.98332 4.92588,10.3128 11.59886,8.9782 25.21176,14.87469 37.29593,23.17346 4.90161,2.91185 6.06635,8.85687 8.22597,13.70995 9.65763,26.52209 26.98313,49.3073 37.70843,75.34408 4.31925,10.8709 11.23489,20.52853 14.58351,31.81194 2.81479,22.20284 7.23109,45.32777 1.11621,67.33649 -0.16986,0.21839 -0.50957,0.65517 -0.65517,0.87356 -4.82881,5.45971 -11.33194,9.14805 -18.56303,10.21573 l 3.37289,-4.14938 c 5.89649,-3.931 17.42256,-5.53251 15.96664,-14.7291 -3.51849,-7.66787 -12.64228,-12.2055 -21.01384,-10.84664 -2.01403,-6.21194 -2.81479,-13.20038 -7.44948,-18.15052 -8.05612,-9.31791 -11.06503,-21.52341 -15.72398,-32.63696 -4.41631,-12.56948 -10.89517,-24.411 -13.78275,-37.46579 -1.94123,-9.77895 -7.83773,-18.05346 -13.95261,-25.67279 -2.57213,9.4635 0,18.90275 3.42142,27.75962 -0.75222,2.03829 -2.25668,6.06635 -3.00891,8.08038 4.6347,1.14047 9.36645,1.9655 13.78275,3.80967 2.93612,15.79677 4.05233,31.909 4.68323,47.94843 -1.57726,0.84929 -4.70749,2.49934 -6.28474,3.32436 8.08038,41.22692 15.94237,82.50237 23.75583,123.80209 2.4508,9.82749 8.12891,18.41744 12.73933,27.32284 -11.96284,11.74446 -27.08019,19.41232 -42.97403,24.2654 1.60152,-6.45459 3.51849,-12.83639 5.53252,-19.16966 -5.62958,-0.41252 -11.23489,-0.82503 -16.86446,-1.23754 -2.37801,9.31791 -4.80455,18.68436 -6.21194,28.22066 -1.4074,8.51716 1.77137,17.15564 -0.60664,25.6 2.74199,4.99868 5.67811,9.90029 8.80834,14.68057 5.1928,2.11109 7.81346,6.62448 9.00247,11.91428 -14.77763,0.8251 -29.55526,0.097 -44.13877,-2.4993 1.52872,-11.64739 1.16474,-23.44038 2.40228,-35.03924 5.45971,-14.41365 5.92075,-30.42882 1.40739,-45.18218 -4.46484,-0.58237 -8.9054,-1.14048 -13.34597,-1.72285 -0.33972,-14.07393 0.67943,-28.19639 -1.21327,-42.19753 -2.23242,13.80701 -2.76626,27.78388 -2.86332,41.73649 -1.69858,0.36398 -5.12,1.04341 -6.84284,1.38313 -3.15451,8.10464 -4.73176,16.74313 -4.07659,25.43014 -0.21839,10.07014 6.16341,18.97555 5.33839,29.11848 -0.36398,8.83261 0.65516,17.64095 1.35886,26.44926 -14.36512,3.2759 -29.14275,2.9119 -43.750522,2.6935 0.994881,-2.8633 2.014028,-5.7266 3.033175,-8.5657 6.600187,-4.4163 10.749577,-11.21061 14.413647,-18.05345 -2.79052,-7.18256 -0.31545,-14.55925 -0.19412,-21.8874 -1.35886,-11.38047 -4.73175,-22.42123 -7.49801,-33.51052 -4.901612,1.11621 -9.851754,2.11109 -14.777631,3.1545 1.771375,6.21195 3.518484,12.42389 4.925877,18.75716 -15.384265,-4.4891 -30.283223,-11.62313 -42.076208,-22.63962 2.693459,-11.13782 10.628246,-20.31014 12.229763,-31.83621 7.449478,-42.82844 16.403412,-85.38995 24.847772,-128.02426 1.819905,-9.19659 5.872228,-17.68948 9.390711,-26.3037 -1.771374,-7.47375 -2.256682,-15.31147 0.145593,-22.71242 -0.679432,-2.13535 -1.334598,-4.24644 -2.014029,-6.3818 3.178768,-8.22597 6.964172,-17.37403 1.941232,-25.72133 -10.967962,14.04967 -13.734218,31.83621 -20.722654,47.80285 -5.265592,14.7291 -10.676777,29.40967 -16.961516,43.75052 -3.542749,2.23242 -7.085498,4.51336 -10.628247,6.77005 0.412512,0.97061 1.261801,2.88758 1.674313,3.83393 -2.450806,8.3473 -0.412512,16.76739 1.116209,25.0419 1.116208,3.56701 -2.766256,5.82369 -4.17365,8.71127 -2.766256,-2.64492 -5.508246,-5.28985 -8.225971,-7.93478 2.717725,5.33839 4.780284,11.01649 5.314123,17.03431 -12.593744,-3.90673 -21.644739,-14.70483 -24.556588,-27.37137 -0.436777,-9.53631 1.941233,-18.90275 3.979526,-28.14787 -1.116208,-3.931 -2.208151,-7.88626 -3.275829,-11.81725 7.570806,-11.96285 10.773839,-25.96398 18.004929,-38.12095 11.623128,-29.89498 32.200189,-55.30085 43.216682,-85.46275 1.674313,-3.88246 3.057441,-8.10464 6.163413,-11.08929 13.20038,-11.429 31.86047,-15.14161 43.11962,-29.02142 -1.60152,-8.56569 -8.17744,-17.39829 -3.76114,-26.01251 z"
     id="path14"
     style="fill:#f4722b" />
  <path
     style="fill:#f5e5c1"
     d="M 670.3125 723.28125 C 655.93525 726.64807 647.04516 739.21194 642.34375 752.40625 C 641.3428 759.26123 641.83739 766.38859 639.5625 773.03125 C 638.34924 779.37059 631.38892 781.06334 626.6875 784.1875 C 605.81925 794.71262 587.58506 809.41961 569.75 824.3125 C 560.22582 833.32104 555.1721 845.81587 547.4375 856.25 C 549.31807 858.94952 551.18101 861.67639 553.03125 864.40625 C 542.99144 881.57403 537.03602 900.47649 531 919.3125 C 525.50995 932.26416 525.19239 947.69731 515.03125 958.34375 L 513.03125 971.25 C 509.51277 959.02631 506.39719 946.67039 501.96875 934.75 C 490.01804 909.27134 479.8954 882.70115 473.34375 855.28125 C 460.42243 850.27651 446.16485 847.45429 435.09375 838.71875 C 430.9383 835.77656 432.16271 830.21244 431.34375 825.875 C 438.65371 818.11006 434.76199 807.09769 433.09375 797.9375 C 431.27384 789.56594 422.77044 784.83923 415.1875 782.625 C 407.78656 784.08092 401.24644 788.93641 397 795.09375 C 395.14976 805.19422 392.99884 816.99334 401.21875 825.03125 C 401.64339 827.51845 402.4816 832.48248 402.90625 835 C 391.07686 848.25499 372.49585 850.13125 356.875 856.53125 C 352.59822 875.51893 348.03977 894.77706 339.03125 912.1875 C 335.20945 919.67944 331.56994 927.27091 328.71875 935.1875 C 332.23724 962.94105 337.73735 991.8328 330.09375 1019.3438 C 335.67479 1014.157 340.15424 1007.7961 346.28125 1003.125 C 352.22628 973.82452 355.813 943.22411 370.28125 916.5625 C 370.67556 957.14639 356.13409 996.76629 359.53125 1037.5625 C 361.35115 1038.1085 364.99259 1039.2354 366.8125 1039.7812 C 365.05325 1067.2619 367.8695 1094.7373 367.6875 1122.1875 C 361.19651 1151.7003 354.66829 1181.2877 351.96875 1211.4375 C 354.24364 1211.7408 358.81887 1212.3217 361.09375 1212.625 C 358.24256 1220.4809 354.37239 1228.0108 349.125 1234.5625 C 343.14964 1242.5094 333.3053 1246.509 327.90625 1255.0625 C 338.82569 1254.3953 351.34535 1253.7843 359.65625 1245.625 C 364.60033 1240.5596 369.95299 1235.8365 374.59375 1230.4375 C 374.71507 1224.4015 373.67189 1218.412 373.15625 1212.4062 C 377.4027 1212.103 381.62856 1211.773 385.875 1211.5 C 385.81434 1185.809 386.99638 1160.192 386.875 1134.5312 C 386.17737 1106.5048 401.83525 1082.089 409.8125 1056.125 C 411.81439 1051.1809 412.0053 1043.3262 419.40625 1044.8125 C 424.44131 1055.6409 426.7572 1067.5107 432.15625 1078.1875 C 440.83113 1094.6576 445.69846 1112.9315 448.125 1131.3125 C 448.33733 1158.0348 446.19476 1184.9009 449.53125 1211.5625 C 451.47249 1211.7142 455.34003 1212.0047 457.28125 1212.1562 C 457.0386 1217.5857 456.42186 1223.0403 456.9375 1228.5 C 461.39628 1235.264 467.14414 1241.1396 472.9375 1246.7812 C 481.18774 1252.7264 491.82692 1253.4117 501.59375 1254.625 C 500.65346 1252.7141 498.78403 1248.8787 497.84375 1246.9375 C 483.58782 1240.4162 475.34301 1226.1786 469.125 1212.4688 C 472.12785 1212.044 478.05874 1211.206 481.03125 1210.7812 C 479.78765 1189.0335 474.14621 1167.9087 471.75 1146.3125 C 470.74905 1133.0878 464.97331 1120.5003 466.15625 1107.0938 C 467.36948 1085.2245 466.5524 1063.3389 466.21875 1041.5 C 468.85761 1038.5882 472.88698 1036.0184 472.25 1031.4688 C 472.97796 1019.1843 471.79323 1006.879 471.15625 994.625 C 469.85199 967.50841 459.65615 941.32799 462.75 913.96875 C 479.40213 938.93179 476.85912 970.15086 485.625 997.84375 C 486.04965 1009.4305 494.14961 1017.4381 501.15625 1025.7188 C 495.30221 1043.4627 506.73872 1059.3727 515.65625 1073.75 C 522.66289 1081.5149 530.06309 1091.2077 541.4375 1091.875 C 540.83086 1086.7186 540.09561 1081.5968 539.125 1076.5312 C 546.31363 1071.7693 553.90142 1067.66 562 1064.6875 C 561.4237 1046.8827 561.20621 1026.6557 549.4375 1012.1875 C 556.59579 988.31641 568.20033 965.42076 569.65625 940.09375 C 570.17189 926.2018 577.88951 914.23931 584.5625 902.53125 C 590.32554 906.62604 588.08451 915.49981 589.84375 921.6875 C 588.08451 923.26475 584.54049 926.45399 582.78125 928.03125 C 587.90731 944.25874 586.77266 963.38564 597.84375 977.15625 C 598.69304 983.95056 599.32443 990.83253 599.71875 997.6875 C 592.04481 999.78039 583.38622 1000.0036 576.53125 1004.25 C 572.43646 1011.4993 574.05056 1020.3041 573.65625 1028.2812 C 574.6572 1029.2216 576.62313 1031.0597 577.59375 1032 C 579.47431 1042.9194 582.21037 1053.6899 586.0625 1064.0938 C 591.52223 1063.7903 597.00995 1063.4265 602.5 1063.0625 C 604.16825 1074.7705 606.95311 1086.3589 607.46875 1098.2188 C 603.58629 1115.6898 596.67289 1132.4066 593.09375 1149.9688 C 591.69849 1155.853 597.60655 1159.9558 600.09375 1164.6875 C 597.45489 1169.9349 594.82912 1175.1606 592.28125 1180.4688 C 598.55993 1183.1379 604.90975 1185.6404 611.21875 1188.2188 C 614.64624 1201.0186 616.31458 1215.3463 608.125 1226.7812 C 605.97145 1234.6372 597.49009 1234.7353 590.96875 1236.3125 C 588.36022 1242.5002 585.73169 1248.7186 583.0625 1254.9062 C 598.4407 1254.603 613.99312 1256.2804 629.25 1254.1875 C 634.4064 1248.1515 638.87568 1241.3456 647.15625 1239.3438 C 644.66904 1221.5389 638.4614 1204.3267 638.21875 1186.2188 C 642.67753 1183.2158 647.10373 1180.2215 651.5625 1177.2188 C 644.43454 1158.8073 645.12225 1139.2277 645.03125 1119.9062 C 649.88433 1101.586 657.93454 1084.3131 665.0625 1066.7812 C 669.30895 1066.9937 673.56697 1067.1608 677.84375 1067.3125 C 684.82006 1082.9334 691.22595 1098.8672 696.625 1115.125 C 700.29514 1124.1032 697.02113 1133.7828 697.71875 1143.125 C 698.93203 1155.0757 693.69765 1166.2901 691.96875 1177.9375 C 696.45784 1182.1233 705.9596 1184.2037 704.625 1191.9688 C 703.44206 1208.0445 697.54416 1223.3608 695.90625 1239.4062 C 704.49014 1241.0443 708.47595 1248.3923 713.875 1254.125 C 729.13188 1256.2785 744.71555 1254.8363 760.09375 1254.5938 C 757.21224 1248.5576 755.10489 1242.0186 751.34375 1236.4375 C 746.94565 1234.8602 742.36317 1233.8733 737.84375 1232.7812 C 728.31957 1219.4051 726.78294 1202.6907 732 1187.3125 C 738.24834 1185.0073 744.50165 1182.6812 750.75 1180.4062 C 748.41445 1175.3713 745.57541 1170.5267 743.9375 1165.2188 C 745.81806 1160.9722 748.43377 1157.0598 750.375 1152.8438 C 748.85841 1134.6749 740.67017 1118.0979 735.96875 1100.6875 C 735.27113 1090.678 738.60385 1080.9175 738.9375 1070.9688 C 740.05977 1040.0303 733.45827 1007.0541 746.53125 977.875 C 750.99003 951.45605 745.11179 922.59446 757.0625 897.84375 C 763.15919 909.61248 771.29956 920.83785 773.96875 934.0625 C 775.21236 956.35634 781.7093 978.11522 790.6875 998.4375 C 793.02305 1003.8972 795.78413 1010.6947 791.75 1016.0938 C 782.7718 1029.8036 782.72882 1046.8828 784.09375 1062.625 C 788.12787 1062.443 792.21679 1062.2767 796.28125 1062.125 C 799.6784 1072.5591 802.33265 1083.1652 805.0625 1093.7812 C 808.48999 1091.5975 811.91718 1089.4349 815.375 1087.2812 C 818.40818 1091.1335 821.46866 1094.9915 824.5625 1098.8438 C 829.41557 1092.7773 834.79671 1087.1206 840.46875 1081.8125 C 840.68107 1079.7196 841.06894 1075.4982 841.28125 1073.375 C 838.79405 1070.4025 836.33095 1067.4422 833.84375 1064.5 C 836.90726 1058.828 839.9659 1053.1399 842.96875 1047.4375 C 844.69765 1049.3787 846.42734 1051.3731 848.15625 1053.375 C 848.15625 1070.3911 846.39802 1087.2946 845.09375 1104.25 C 843.85015 1115.5334 847.68033 1127.7792 841.25 1138.0312 C 843.7372 1146.0996 850.18581 1154.4418 844.96875 1162.8438 C 846.42467 1163.9053 849.35749 1166.0331 850.84375 1167.125 C 850.69209 1186.1127 852.55061 1205.2597 850.09375 1224.1562 C 847.69754 1229.3431 843.99458 1233.7332 840.71875 1238.3438 C 837.01828 1238.9503 833.29514 1239.613 829.625 1240.25 C 829.74632 1245.2851 829.91176 1250.341 830.09375 1255.4062 C 838.49565 1255.4963 846.84811 1255.5287 855.25 1255.4375 C 857.00925 1253.1322 858.80419 1250.8062 860.59375 1248.5312 L 869.34375 1248.9062 C 869.37409 1234.9537 868.92924 1221.0159 868.65625 1207.0938 C 868.20127 1192.5041 872.54126 1178.4508 875.96875 1164.4375 C 878.81994 1162.6783 881.71224 1160.8842 884.59375 1159.125 C 882.2582 1150.0255 879.68646 1140.3835 883.78125 1131.375 C 882.84097 1117.9684 886.26648 1104.8248 888.875 1091.8125 C 888.966 1086.2618 894.14695 1083.9788 897.96875 1081.2188 C 907.09856 1105.6054 913.88899 1132.9973 907.125 1158.7188 C 910.09751 1160.5992 913.05874 1162.5274 916.03125 1164.4688 C 920.49001 1184.5483 926.17017 1205.2494 921.46875 1225.875 C 922.3787 1233.3366 922.62413 1240.8849 922.59375 1248.4375 C 924.80796 1248.4375 929.22329 1248.4367 931.4375 1248.4062 C 932.74176 1250.1353 935.38323 1253.5514 936.6875 1255.25 C 944.57375 1255.19 952.48966 1255.1587 960.40625 1255.2188 C 961.13421 1250.5173 961.86579 1245.8578 962.59375 1241.1562 C 953.40324 1239.3061 946.50383 1233.3311 941.46875 1225.6875 C 938.07159 1205.8809 940.97701 1186.0236 941.25 1166.1562 C 942.43294 1165.1857 944.87956 1163.3153 946.0625 1162.375 C 945.88051 1156.885 946.96872 1151.5259 948 1146.1875 C 946.02844 1142.487 944.06623 1138.7951 942.125 1135.125 C 949.70794 1110.1013 940.40619 1084.0707 942.46875 1058.5312 C 939.67822 1040.2413 938.3356 1021.6734 933.9375 1003.6562 C 934.87779 1001.0477 935.81062 998.4532 936.78125 995.875 C 931.10921 981.71007 928.98789 965.78075 934.78125 951.3125 C 942.57651 962.77791 946.65061 976.21103 950.59375 989.375 C 953.17194 1002.5087 952.97595 1016.223 958.375 1028.75 C 954.28021 1039.8211 956.59087 1051.1376 960.625 1061.875 C 966.29704 1068.73 971.92994 1075.7333 978.90625 1081.375 C 979.1489 1075.0053 977.70875 1068.9009 974.28125 1063.5625 C 976.37415 1063.3198 980.53119 1062.8373 982.59375 1062.625 C 981.98711 1055.8914 981.22796 1049.173 980.5 1042.5 C 983.19952 1050.1133 982.81404 1061.2527 993.1875 1062.375 C 994.55242 1048.5134 990.53318 1035.1585 987.5 1021.8125 C 994.50664 1006.1916 1005.8738 992.94159 1015.125 978.625 C 1022.5259 970.28376 1028.1554 960.34132 1028.125 948.90625 C 1029.6719 948.32995 1032.7648 947.1388 1034.2812 946.5625 C 1036.9202 960.63643 1035.0322 974.76247 1031.9688 988.59375 C 1033.5459 991.56626 1035.0111 994.62491 1036.4062 997.71875 C 1032.1902 996.32349 1027.9349 994.86676 1023.7188 993.5625 C 1021.8382 998.41559 1020.1903 1003.4061 1019.25 1008.5625 C 1023.7088 1008.6232 1028.1662 1008.6581 1032.625 1008.7188 C 1031.8667 1016.332 1031.7675 1024.3684 1028.2188 1031.375 C 1018.9371 1049.1191 1007.9514 1066.4387 1003.25 1086.0938 C 1000.3685 1093.4036 1007.1802 1098.9318 1010.0312 1104.9375 C 1019.5857 1098.4768 1027.5696 1090.1114 1036.0625 1082.4375 C 1036.0928 1089.8384 1035.7913 1097.2554 1035.0938 1104.6562 C 1036.2766 1105.9606 1038.692 1108.6021 1039.875 1109.9062 C 1038.7224 1118.0049 1037.4706 1126.0594 1036.5 1134.2188 C 1035.0744 1137.8281 1033.6803 1141.4862 1032.4062 1145.1562 C 1034.9845 1145.2776 1040.1718 1145.5036 1042.75 1145.625 C 1041.9917 1146.5046 1040.5083 1148.2454 1039.75 1149.125 C 1034.351 1169.4169 1037.0212 1190.2191 1036.6875 1210.875 C 1039.751 1212.1793 1042.8125 1213.4771 1045.9062 1214.7812 C 1045.2997 1221.9093 1044.5479 1229.0788 1042 1235.8125 C 1037.6626 1235.7821 1033.3061 1235.7812 1028.9688 1235.7812 C 1026.4208 1243.8799 1024.2832 1252.0631 1022.2812 1260.3438 C 1033.4131 1260.2831 1044.6172 1261.0616 1055.7188 1260 C 1060.7537 1254.8132 1065.657 1249.3843 1071.875 1245.5625 C 1069.3271 1234.9161 1068.615 1224.0141 1068.2812 1213.125 C 1071.5572 1211.5477 1074.8502 1209.9201 1078.1562 1208.3125 C 1076.3365 1202.3675 1074.8262 1196.3504 1073.2188 1190.375 C 1074.6442 1182.9741 1076.4283 1175.5526 1076.125 1168 C 1075.0634 1160.2351 1070.9146 1153.3651 1069.125 1145.8125 C 1071.5515 1136.9556 1075.1839 1128.31 1075.0625 1118.9375 C 1076.6398 1117.5422 1079.7664 1114.7381 1081.3438 1113.3125 C 1083.1029 1103.576 1083.4814 1093.1796 1089.0625 1084.6562 C 1094.0369 1093.3919 1094.7041 1103.576 1096.2812 1113.3125 C 1097.8586 1114.5864 1101.0477 1117.1947 1102.625 1118.4688 C 1103.8989 1127.9928 1105.692 1137.4621 1108.9375 1146.5312 C 1105.6313 1155.3274 1100.6709 1164.2322 1102.1875 1173.9688 C 1103.6737 1186.253 1104.194 1198.712 1101.3125 1210.875 C 1104.831 1212.3006 1108.3575 1213.7627 1111.9062 1215.2188 C 1111.4817 1225.4101 1110.3576 1235.5235 1108.75 1245.5938 C 1114.6647 1249.3851 1118.9732 1255.5615 1125.3125 1258.625 C 1135.2006 1259.8079 1145.2075 1259.0024 1155.1562 1259.0938 C 1153.1544 1251.2074 1150.8915 1243.4239 1148.3438 1235.75 C 1144.3399 1235.6894 1140.3485 1235.6867 1136.375 1235.6562 C 1134.7977 1228.9834 1133.4356 1222.264 1132.3438 1215.5 C 1134.6185 1215.0754 1139.1948 1214.1747 1141.5 1213.75 C 1141.682 1191.5775 1144.1814 1169.064 1137.7812 1147.4375 C 1139.7226 1147.4375 1143.5891 1147.501 1145.5 1147.5312 C 1141.8299 1135.8839 1140.5296 1123.7624 1138.4062 1111.7812 C 1140.4689 1109.5671 1142.5321 1107.3706 1144.625 1105.1562 C 1143.5937 1101.2132 1142.5947 1097.2878 1141.5938 1093.375 C 1145.4761 1092.9503 1149.3675 1092.5507 1153.25 1092.1562 C 1154.7059 1070.1052 1164.0406 1047.5005 1156.0938 1025.8438 C 1151.3316 1022.2948 1146.2815 1019.0571 1142.1562 1014.75 C 1140.0938 1008.1984 1139.7197 1001.264 1138.7188 994.5 C 1140.3566 993.28674 1143.6443 990.86953 1145.3125 989.65625 C 1140.1864 973.79275 1137.3767 957.07675 1143.625 941.03125 C 1148.933 945.49002 1152.0745 951.46395 1151.4375 958.53125 C 1153.3787 963.29334 1155.3077 968.08259 1157.2188 972.875 C 1158.5533 973.57264 1161.1654 974.95954 1162.5 975.6875 C 1165.9578 981.20789 1169.4862 986.66436 1173.1562 992.09375 C 1171.6398 993.82265 1168.6416 997.30326 1167.125 999.0625 C 1172.979 1009.7696 1180.1092 1019.9069 1184.75 1031.2812 C 1182.2324 1041.8671 1181.6525 1052.6329 1184.625 1063.2188 C 1187.2942 1063.1277 1190.0191 1063.0285 1192.7188 1062.9375 C 1194.6599 1055.7185 1196.5771 1048.4966 1198.0938 1041.1562 C 1201.0055 1041.308 1203.9328 1041.5717 1206.875 1041.875 C 1206.2987 1049.1849 1200.5258 1054.4998 1197.25 1060.6875 C 1199.4945 1060.7178 1203.9742 1060.8144 1206.2188 1060.875 C 1200.8196 1067.2447 1197.4484 1074.7258 1199.875 1083.2188 C 1206.6693 1078.9419 1214.7508 1075.0719 1217.875 1067.125 C 1221.4542 1058.5108 1226.6011 1050.2805 1227.875 1040.9688 C 1225.0238 1032.4454 1219.7206 1024.89 1217.7188 1016.0938 C 1214.4733 1003.3544 1214.4402 990.10884 1212.4688 977.1875 C 1207.4943 977.39982 1202.6316 977.69485 1197.6875 977.9375 C 1194.8363 971.35551 1191.9432 964.77041 1189.0312 958.21875 C 1189.547 956.70216 1190.6104 953.70409 1191.1562 952.1875 C 1187.1829 945.48418 1184.1702 937.96062 1178.4375 932.53125 C 1166.8508 921.85446 1160.6794 906.87634 1155.25 892.46875 C 1151.2159 878.27349 1136.935 870.76486 1124.4688 865.0625 C 1117.1587 862.33264 1113.1711 855.32645 1108.5 849.59375 C 1109.7436 840.9492 1111.2922 832.36421 1112.6875 823.75 C 1115.0534 823.71963 1119.8216 823.65538 1122.1875 823.625 C 1121.1562 822.59371 1119.1249 820.53129 1118.0938 819.5 C 1116.941 811.58341 1116.2217 802.98916 1111.1562 796.4375 C 1106.9706 791.40242 1101.6049 787.5231 1096.8125 783.125 C 1089.1689 785.12689 1081.0157 787.39689 1075.3438 793.28125 C 1069.7626 799.16561 1066.3071 806.5816 1062 813.40625 C 1064.3659 814.46786 1066.7601 815.5643 1069.1562 816.65625 C 1068.944 830.8515 1077.7705 846.29375 1068.125 859.09375 C 1053.5051 865.2511 1039.5463 872.71756 1026.625 881.96875 C 1018.9207 898.07491 1013.8027 915.76522 1002.125 929.6875 C 996.5743 936.51215 992.3117 944.23415 988.15625 951.96875 C 987.51929 969.16685 977.5617 984.15389 973.40625 1000.5938 C 969.70577 991.91881 966.13791 983.12344 964.5 973.78125 C 958.88862 951.57841 962.63365 926.73954 949.5 906.78125 C 936.54834 897.13575 923.36718 887.52219 907.625 883.09375 C 910.53685 879.66626 913.72142 876.49917 916.90625 873.375 C 918.21051 869.24988 919.44483 865.09477 920.71875 861 C 918.98985 859.99905 915.54141 858.06436 913.8125 857.09375 C 913.96416 851.54304 914.16453 846.02039 914.4375 840.5 C 909.91808 836.82986 905.52403 833.13705 901.15625 829.40625 C 890.0245 827.52567 881.44411 834.53927 875.46875 843.0625 C 875.65074 847.79426 875.78584 852.51916 875.9375 857.28125 C 874.20859 858.16086 870.79233 859.90162 869.09375 860.78125 C 869.2454 863.11679 869.59834 867.75729 869.75 870.0625 C 873.93578 874.15729 878.08721 878.28755 882 882.625 C 869.65497 890.54159 855.70623 895.85913 843.9375 904.625 C 830.92518 919.27524 827.32714 940.26232 829.875 959.25 C 827.32714 940.77796 815.46805 926.0593 808.21875 909.4375 C 803.33534 894.0593 796.76214 879.37082 789.9375 864.78125 C 798.79436 854.40779 785.46886 844.50027 781.34375 835.21875 C 776.39968 822.96473 756.9926 820.57764 758.8125 805.59375 C 747.52909 798.55679 736.37991 791.28238 725.1875 784.09375 C 717.4529 785.27669 710.03698 783.0681 703 780.15625 C 695.3564 765.688 697.64 748.03071 687.8125 734.59375 C 684.1727 728.16343 676.43951 726.43575 670.3125 723.28125 z M 855.21875 951.375 C 856.73534 957.74466 858.73711 964.07425 859.34375 970.65625 C 859.46512 980.36241 852.15915 987.57147 847.09375 995.09375 C 848.94399 996.58001 852.61851 999.57624 854.46875 1001.0625 C 852.55785 1017.29 856.13164 1034.4941 849.125 1049.7812 C 841.36008 1031.1273 834.11935 1010.5695 839.09375 990.15625 C 842.94589 976.68895 846.87751 962.87072 855.21875 951.375 z M 1038.125 1033.4062 C 1037.67 1044.7503 1036.2987 1056.0622 1035.8438 1067.4062 C 1028.9281 1075.7778 1021.548 1083.8215 1012.8125 1090.3125 C 1015.6333 1074.9646 1020.9529 1060.1695 1027.6562 1046.1562 C 1029.8705 1040.9695 1033.6662 1036.7731 1038.125 1033.4062 z "
     transform="scale(0.8,0.8)"
     id="path16" />
  <path
     d="m 233.79716,800.15166 c 3.10597,-1.14048 6.18767,-2.42654 9.39071,-3.3001 8.37156,-1.35886 17.49535,3.17877 21.01384,10.84664 1.45592,9.19659 -10.07015,10.7981 -15.96664,14.7291 -3.90673,-0.36398 -7.78919,-0.97062 -11.64739,-1.55299 -1.04341,-6.89137 -2.13536,-13.78275 -2.79052,-20.72265 z"
     id="path20"
     style="fill:#f5e5c1" />
  <path
     d="m 34.990711,803.2819 c 3.372891,-1.01915 4.561896,0.19412 3.59128,3.63981 -3.372891,0.97061 -4.561896,-0.24266 -3.59128,-3.63981 z"
     id="path22"
     style="fill:#3e3e3e" />
  <path
     d="m 263.42521,816.36095 c 0.1456,-0.21839 0.48531,-0.65517 0.65517,-0.87356 -0.16986,0.21839 -0.50957,0.65517 -0.65517,0.87356 z"
     id="path24"
     style="fill:#f5e5c1" />
</svg>
