<?xml version="1.0" encoding="UTF-8" standalone="no"?>
<svg
   xmlns:dc="http://purl.org/dc/elements/1.1/"
   xmlns:cc="http://creativecommons.org/ns#"
   xmlns:rdf="http://www.w3.org/1999/02/22-rdf-syntax-ns#"
   xmlns:svg="http://www.w3.org/2000/svg"
   xmlns="http://www.w3.org/2000/svg"
   xmlns:sodipodi="http://sodipodi.sourceforge.net/DTD/sodipodi-0.dtd"
   xmlns:inkscape="http://www.inkscape.org/namespaces/inkscape"
   width="1280"
   height="1280"
   viewBox="0 0 1024 1024"
   version="1.1"
   id="svg2"
   inkscape:version="0.48.1 "
   sodipodi:docname="charge_juggle.svg">
  <metadata
     id="metadata30">
    <rdf:RDF>
      <cc:Work
         rdf:about="">
        <dc:format>image/svg+xml</dc:format>
        <dc:type
           rdf:resource="http://purl.org/dc/dcmitype/StillImage" />
        <dc:title></dc:title>
      </cc:Work>
    </rdf:RDF>
  </metadata>
  <defs
     id="defs28" />
  <sodipodi:namedview
     pagecolor="#ffffff"
     bordercolor="#666666"
     borderopacity="1"
     objecttolerance="10"
     gridtolerance="10"
     guidetolerance="10"
     inkscape:pageopacity="0"
     inkscape:pageshadow="2"
     inkscape:window-width="1920"
     inkscape:window-height="1018"
     id="namedview26"
     showgrid="false"
     inkscape:zoom="0.64765625"
     inkscape:cx="640"
     inkscape:cy="640"
     inkscape:window-x="-8"
     inkscape:window-y="-8"
     inkscape:window-maximized="1"
     inkscape:current-layer="layer2"
     inkscape:snap-page="true" />
  <g
     inkscape:groupmode="layer"
     id="layer2"
     inkscape:label="background">
    <rect
       style="fill:#3e3e3e;fill-opacity:1;fill-rule:nonzero;stroke:none"
       id="rect3002"
       width="1280"
       height="1280"
       x="0"
       y="0"
       transform="scale(0.8,0.8)" />
  </g>
  <g
     inkscape:groupmode="layer"
     id="layer1"
     inkscape:label="foreground">
    <path
       d="m 472.59299,40.83867 c 13.63715,-10.02161 31.32663,-19.0726 48.55507,-13.27317 11.81725,2.71772 21.08663,11.52606 28.0508,21.0381 1.69858,4.61043 0.80076,9.65763 0.67943,14.46218 -7.15829,79.20228 -12.83639,158.52588 -20.4072,237.72815 -6.26047,50.49631 -13.68569,100.87128 -19.97043,151.39185 16.18503,4.51337 32.63697,7.91052 48.72493,12.71507 -7.13403,14.8747 -13.87981,29.94351 -21.40208,44.64834 -13.22465,-9.5363 -26.42503,-19.09687 -39.47981,-28.82729 -10.09441,0.97061 -19.65498,4.68322 -29.50673,6.9399 -63.74522,16.18502 -127.17498,33.65611 -191.04152,49.35583 2.37801,-14.12246 7.69213,-27.54123 9.97308,-41.6637 1.55299,-21.08663 1.09194,-42.34312 -1.09194,-63.38123 -1.04341,-44.55128 -4.80455,-88.9327 -5.8965,-133.45971 -3.93099,-34.69953 -0.84928,-69.73877 -3.76113,-104.48683 -0.46105,-37.99962 -0.19413,-75.99924 -0.75223,-113.99886 -1.14047,-8.80834 4.70749,-16.45194 10.99223,-21.86313 7.5708,-4.63469 16.71886,-5.60531 25.26028,-7.37668 8.08038,-1.04341 17.8836,-2.40228 24.16834,4.07659 9.17233,10.19147 11.21062,24.33819 14.14673,37.22312 1.31033,10.50692 3.39716,20.86825 5.2656,31.27811 1.91696,48.02123 7.59507,95.77554 14.04966,143.38426 6.13915,57.12076 15.60266,113.87754 21.01384,171.04683 4.51337,3.34862 8.90541,7.0127 14.00114,9.48777 4.61043,2.40228 9.39071,-0.6309 13.85554,-1.8199 -1.8199,-36.15545 11.47754,-70.58806 15.4328,-106.16114 2.83905,-21.8146 4.05232,-43.79905 7.44948,-65.54086 2.81479,-19.24246 3.54275,-38.77611 7.95905,-57.77592 6.23621,-49.98673 11.72019,-100.07052 17.8836,-150.08152 1.16474,-8.32303 -0.0728,-18.36891 5.84797,-25.06616 z"
       id="path6"
       style="fill:#f5e5c1" />
    <path
       d="m 564.07355,98.42047 c 27.17726,0.24266 54.35451,-0.36398 81.50749,0.19413 13.83128,0.53384 23.36759,14.36512 22.63962,27.51696 0.12133,86.82162 -0.14559,173.66749 0.12133,260.4891 87.04,-0.14559 174.08,-0.0243 261.12,-0.0728 13.3945,-0.97062 27.37137,9.56057 27.58976,23.46464 0.1456,88.20474 -0.0971,176.43375 0.12133,264.63848 1.14047,13.68569 -11.21062,27.75963 -25.33308,26.25517 -68.79242,-0.0971 -137.6091,-0.0485 -206.40152,-0.0243 -8.42009,0.0728 -16.74312,-1.31033 -24.94483,-3.03318 15.74825,-22.88227 32.17592,-45.25497 48.09403,-67.99165 5.31412,-8.12891 15.31147,-14.68057 14.48644,-25.47868 0.16986,-18.99981 0.36398,-37.97535 0.24266,-56.9509 -9.82749,-10.48265 -15.84531,-26.1581 -30.8656,-30.33175 -23.24625,-6.11488 -45.25497,5.84796 -66.68132,13.00626 6.06635,-19.02408 15.06881,-37.24739 18.82995,-56.92663 1.72284,-5.58105 -3.17877,-9.56057 -6.3818,-13.37024 -8.03185,-8.10465 -15.2872,-16.96152 -23.24626,-25.13896 -3.80966,-4.07659 -8.78407,-6.84284 -14.24379,-8.00758 -16.01516,-4.02806 -32.6127,-6.4546 -49.13744,-5.87223 -10.28853,7.69213 -15.9181,20.01896 -26.13384,27.80815 -13.37023,-2.06256 -25.74559,-8.00758 -38.75185,-11.57459 6.96417,-55.95602 14.99602,-111.74218 22.68816,-167.60114 5.24132,-56.9509 9.36644,-114.0474 14.68056,-170.9983 z"
       id="path8"
       style="fill:#f4722b" />
    <path
       d="m 365.53403,100.58009 c 6.72152,-1.14047 13.49156,-2.47507 20.35867,-2.28094 20.69839,0.21839 41.42104,0.16985 62.11943,0.0728 -5.58104,54.52436 -10.33706,109.14579 -15.94237,163.69441 -6.72151,44.16303 -14.12246,88.22901 -21.15943,132.34351 -2.4508,13.97687 -3.93099,28.17213 -7.49801,41.95488 -1.98976,-3.71261 -3.93099,-7.57081 -4.14938,-11.86578 C 388.00379,316.54219 377.15716,208.51262 365.53403,100.5801 z"
       id="path10"
       style="fill:#f4722b" />
    <path
       d="m 70.418199,395.5018 c 5.799431,-7.0855 15.384265,-9.39071 24.192607,-9.02673 56.902374,0.29119 113.829004,-0.21839 170.731374,0.26692 1.28607,35.30616 4.14938,70.51526 5.60531,105.79716 1.74711,21.76606 -6.06635,43.45933 -18.29612,61.22161 -12.08417,18.78142 -23.22199,38.16948 -35.67014,56.73251 -4.14938,4.70749 -1.38313,11.01649 0.26692,16.16076 9.19659,24.67791 17.81081,49.52569 26.83754,74.25213 -52.21915,-0.14559 -104.41403,0.0485 -156.633178,-0.0728 -13.588626,0.48531 -23.658768,-13.4673 -22.736683,-26.27943 -0.266919,-84.95318 0.0728,-169.90635 -0.169857,-254.85952 0.169857,-8.2745 0,-17.61668 5.872227,-24.19261 z"
       id="path12"
       style="fill:#f4722b" />
    <path
       d="m 598.23924,433.01611 c 12.73934,-0.92208 26.61915,-0.60663 38.14521,5.60531 10.79811,9.63337 21.20797,20.16455 28.60891,32.73403 0.87356,0.99488 2.62067,2.93611 3.49422,3.90673 -7.54654,22.46976 -17.49535,43.99317 -26.47355,65.90483 -3.76114,11.47754 -11.47754,20.91678 -18.24758,30.69574 -24.16835,-17.68948 -48.6764,-34.91792 -73.06313,-52.31621 9.24512,-23.58597 19.09687,-47.4146 34.38407,-67.8218 4.46484,-6.16341 8.12891,-12.95773 13.15185,-18.70863 z"
       id="path14"
       style="fill:#f5e5c1" />
    <path
       d="m 465.75014,504.40493 c 10.48266,-2.88758 21.66901,-5.45972 32.49138,-2.74199 6.01782,2.47507 11.06502,6.72151 16.35488,10.43412 15.33573,11.25915 31.15678,21.8874 45.88587,33.9473 15.91811,13.44303 32.80683,25.6728 49.98673,37.41725 10.53119,6.23621 13.97688,18.80569 20.01896,28.70597 4.53763,6.16342 0.41251,14.21953 -4.68322,18.51451 -12.22976,7.15829 -26.66768,12.0599 -40.98427,9.70616 -16.16075,-2.83906 -32.44284,-7.25536 -46.0072,-16.81593 -16.57327,-9.43924 -32.39431,-20.64986 -44.1873,-35.84 -23.19772,11.33195 -45.52189,24.50806 -69.86009,33.36493 7.25535,13.12758 13.97687,26.54635 18.99981,40.71735 8.95393,21.83886 17.22843,44.0417 22.54256,67.09384 2.64493,14.34085 0.87355,28.97289 0.36398,43.43507 l -0.58237,1.65004 c -4.51337,26.01252 -26.40076,44.42996 -49.62275,54.18465 7.23109,-0.58237 14.85043,-0.94635 21.28076,-4.73175 12.01137,-6.86711 24.58085,-14.75337 31.05971,-27.49271 5.99356,-10.62824 9.17233,-22.66388 8.66275,-34.89365 16.30635,-0.92208 32.66123,-0.41251 48.99185,-0.72796 24.75071,-36.03412 51.46692,-70.70938 76.46028,-106.57365 1.45593,0.16986 4.36778,0.53384 5.8237,0.7037 -5.72663,26.49782 -19.36379,50.37498 -28.09934,75.82938 3.03318,6.5274 6.13915,14.31659 13.24891,17.3255 13.80702,6.40607 27.20152,13.97687 42.05195,17.83507 9.17232,-3.27583 20.38294,-4.80455 26.06104,-13.68568 11.35621,-15.82105 22.56683,-31.73915 33.75318,-47.65726 3.03317,0.82503 6.06635,1.72285 9.09952,2.64493 -19.09687,57.5818 -34.82085,116.25555 -54.52436,173.64323 -11.21061,21.57194 -25.96398,41.95488 -45.47336,56.78104 -20.35868,13.07905 -43.36228,21.25649 -65.05555,31.76341 -7.5708,4.27071 -16.13649,1.31033 -23.99848,-0.24265 -30.42882,-6.74579 -61.00322,-12.78787 -91.43204,-19.46086 -10.77384,-2.40227 -21.0381,-7.08549 -29.43393,-14.31658 -20.79545,-17.22844 -41.90635,-34.11716 -62.94446,-51.05441 -6.74578,-4.78029 -8.54142,-13.22465 -11.25915,-20.50427 -20.74691,-57.89725 -40.69308,-116.06142 -61.51279,-173.9344 -9.09953,-20.50427 -13.70995,-42.53726 -20.79545,-63.74522 -1.09194,-4.95014 -4.24645,-10.40986 -1.4074,-15.31147 8.63849,-17.2527 19.63072,-33.26786 31.10825,-48.72493 5.02294,-7.91052 15.21441,-7.81345 23.19773,-10.65251 57.38767,-18.22331 116.25554,-31.20531 174.41971,-46.58957 z"
       id="path16"
       style="fill:#f5e5c1" />
    <path
       d="m 704.32758,527.31147 c 6.67299,-2.74199 13.51583,0.72796 19.82484,2.88758 6.55166,2.79052 13.70995,5.14427 18.90275,10.24 4.19791,6.67299 5.58104,14.8019 5.43545,22.59109 -0.41252,14.48645 -0.21839,28.99716 -2.0383,43.41081 -30.93839,42.56151 -60.32379,86.26351 -91.31071,128.80076 -5.48398,6.62445 -13.41877,11.45327 -21.96019,12.73933 -11.38047,0.0243 -22.05725,-4.70749 -32.0546,-9.75469 -0.82502,-5.79943 -3.76113,-11.98711 -0.53383,-17.54389 8.12891,-19.12113 16.71886,-38.04815 24.8963,-57.14502 3.71261,-9.29365 10.38559,-16.93725 14.99602,-25.74559 12.01137,-23.12493 23.65877,-46.44398 35.81573,-69.49611 -7.74066,3.73687 -16.37914,6.43033 -22.61535,12.59374 -5.04721,6.13915 -7.81346,13.75848 -11.42901,20.77118 -2.69346,-4.56189 -5.31412,-9.14805 -7.95905,-13.70995 9.29365,-14.31659 19.04834,-28.29346 28.07507,-42.7799 14.04967,-5.77517 27.51697,-13.03053 41.95488,-17.85934 z"
       id="path18"
       style="fill:#f5e5c1" />
    <path
       d="m 445.56133,631.0218 c 14.77763,-7.95905 29.55526,-15.86957 44.0417,-24.3382 -9.80322,16.81593 -20.86824,32.80683 -30.76853,49.57422 -0.77649,0.24265 -2.35374,0.77649 -3.13023,1.04341 -3.34863,-8.78407 -6.57593,-17.61668 -10.14294,-26.27943 z"
       id="path20"
       style="fill:#f5e5c1" />
    <path
       d="m 504.9873,614.25441 c 25.47867,15.31147 52.389,30.38028 82.16265,34.84512 -20.91677,28.87583 -40.98426,58.35829 -62.26502,86.9672 -2.88758,3.68834 -6.04209,7.27962 -9.94882,9.90028 -16.42767,-2.28094 -32.03033,-13.80701 -37.68417,-29.65232 -5.36265,-13.27317 -9.65763,-28.24493 -4.61042,-42.2946 5.36265,-22.61535 22.3727,-39.40701 32.34578,-59.76568 z"
       id="path22"
       style="fill:#f5e5c1" />
    <path
       d="m 653.03052,905.14806 c 2.83905,-6.01782 9.56057,-6.28474 15.33574,-6.77005 0.38824,18.36891 -0.43678,36.73782 -0.0243,55.13099 0.0243,9.77896 0.48531,20.84399 -6.23621,28.80304 -5.55678,7.27962 -15.16587,9.24512 -23.85289,9.22085 -85.82673,-0.0485 -171.65346,0.0243 -257.48019,-0.0728 -12.73934,0.7765 -26.18237,-7.69213 -27.90521,-20.94104 -1.2618,-18.02919 -0.33972,-36.15545 -0.26692,-54.20891 12.61801,9.12379 23.61024,20.28588 36.27678,29.31261 12.47241,7.76493 25.86692,14.6563 40.35336,17.66521 36.5437,7.25536 72.86901,15.67545 109.43697,22.78522 21.83886,-10.79811 44.38142,-20.31015 65.58938,-32.34579 20.40721,-11.25914 36.90768,-28.6817 48.77346,-48.57933 z"
       id="path24"
       style="fill:#f4722b" />
  </g>
</svg>
