<?xml version="1.0" encoding="UTF-8" standalone="no"?>
<svg
   xmlns:dc="http://purl.org/dc/elements/1.1/"
   xmlns:cc="http://creativecommons.org/ns#"
   xmlns:rdf="http://www.w3.org/1999/02/22-rdf-syntax-ns#"
   xmlns:svg="http://www.w3.org/2000/svg"
   xmlns="http://www.w3.org/2000/svg"
   xmlns:sodipodi="http://sodipodi.sourceforge.net/DTD/sodipodi-0.dtd"
   xmlns:inkscape="http://www.inkscape.org/namespaces/inkscape"
   width="1280"
   height="1280"
   viewBox="0 0 1024 1024"
   version="1.1"
   id="svg2"
   inkscape:version="0.48.1 "
   sodipodi:docname="charge_blocker.svg">
  <metadata
     id="metadata26">
    <rdf:RDF>
      <cc:Work
         rdf:about="">
        <dc:format>image/svg+xml</dc:format>
        <dc:type
           rdf:resource="http://purl.org/dc/dcmitype/StillImage" />
      </cc:Work>
    </rdf:RDF>
  </metadata>
  <defs
     id="defs24" />
  <sodipodi:namedview
     pagecolor="#ffffff"
     bordercolor="#666666"
     borderopacity="1"
     objecttolerance="10"
     gridtolerance="10"
     guidetolerance="10"
     inkscape:pageopacity="0"
     inkscape:pageshadow="2"
     inkscape:window-width="1920"
     inkscape:window-height="1018"
     id="namedview22"
     showgrid="false"
     inkscape:zoom="0.6609375"
     inkscape:cx="640"
     inkscape:cy="640"
     inkscape:window-x="-8"
     inkscape:window-y="-8"
     inkscape:window-maximized="1"
     inkscape:current-layer="layer2"
     inkscape:snap-page="true" />
  <g
     inkscape:groupmode="layer"
     id="layer2"
     inkscape:label="background">
    <rect
       style="fill:#3e3e3e;fill-opacity:1;fill-rule:nonzero;stroke:none"
       id="rect2987"
       width="1280"
       height="1280"
       x="0"
       y="0"
       transform="scale(0.8,0.8)" />
  </g>
  <g
     inkscape:groupmode="layer"
     id="layer1"
     inkscape:label="foreground">
    <path
       style="fill:#f5e5c1"
       d="M 630.8125 34.53125 C 627.658 44.17675 619.41561 50.61375 613.53125 58.5 C 599.69997 73.908537 586.94899 90.584175 570.8125 103.6875 C 561.37932 111.45243 553.22085 120.58525 544 128.5625 C 499.98863 166.9625 443.69834 189.81778 386.25 198.25 C 340.54005 204.19502 293.14191 205.84778 248.28125 193.59375 C 243.15517 192.56246 234.76291 189.0439 233.125 196.6875 C 229.51551 234.26854 227.41274 271.98514 225.5625 309.6875 C 222.16535 334.8022 226.88335 360.07373 224.0625 385.21875 C 223.4862 427.80453 223.2526 470.53186 228.5 512.875 C 234.93034 585.0039 240.8856 657.24336 255.6875 728.25 C 260.20692 758.55141 269.19464 787.89804 276.65625 817.5625 C 287.2117 852.26203 298.51513 887.0671 315.53125 919.21875 C 348.25921 989.83108 393.97352 1054.7981 451.9375 1106.9688 C 465.82945 1118.3432 479.76155 1129.6605 493.5625 1141.1562 C 511.94354 1154.0472 529.69894 1167.8158 547.625 1181.3438 C 570.61646 1197.1163 593.99652 1212.5851 618.65625 1225.7188 C 624.81359 1228.1453 631.60734 1234.2667 638.25 1229.6562 C 668.49075 1214.5814 697.07917 1196.2129 724.46875 1176.4062 C 745.85264 1159.2081 769.21908 1144.6393 789.875 1126.5312 C 835.31196 1092.2867 872.34651 1048.1824 904.4375 1001.5625 C 925.91239 970.07814 941.80741 935.4155 959.1875 901.65625 C 987.33538 834.53209 1006.0585 763.5085 1016.25 691.53125 C 1028.9287 628.62319 1031.5945 564.2601 1038.8438 500.59375 C 1038.2978 482.2127 1043.5561 464.28729 1042.3125 445.90625 C 1043.1011 408.44653 1040.0634 370.99187 1042.1562 333.5625 C 1043.1875 320.30751 1038.2831 307.50498 1039.375 294.25 C 1040.3153 277.93153 1036.0441 261.91223 1036.4688 245.59375 C 1036.5901 229.39659 1032.3456 213.47841 1033.4375 197.28125 C 1032.3152 195.94665 1030.091 193.24085 1028.9688 191.90625 C 998.09103 200.0655 966.31158 205.43201 934.28125 204.21875 C 898.06514 201.64055 861.29695 198.79538 826.71875 186.875 C 791.74624 175.07595 757.71591 158.89405 728.71875 135.78125 C 698.90264 110.12059 670.95015 82.032138 646.59375 51.09375 C 641.55869 45.482375 639.15374 35.956837 630.8125 34.53125 z M 630.75 63.28125 C 657.41161 92.399737 681.13421 124.68127 712.40625 149.25 C 763.57591 193.53436 830.66166 217.6865 897.9375 220.75 C 932.45502 225.11778 967.76283 221.25119 1001.2188 212 C 1005.4045 210.14976 1008.7306 211.11478 1011.1875 214.90625 C 1013.887 242.32615 1015.3419 269.86319 1017.3438 297.34375 C 1016.2215 315.69446 1021.0294 333.64837 1019.9375 351.96875 C 1018.8456 401.40951 1022.4119 451.05282 1017.4375 500.28125 C 1010.7342 566.0405 1007.9737 632.49814 994.71875 697.46875 C 984.49695 762.53036 967.39778 826.87785 942.34375 887.875 C 925.47929 921.69491 909.14031 955.95039 887.96875 987.34375 C 858.97159 1029.4139 825.74749 1069.2702 785.40625 1100.9062 C 759.80625 1122.0475 732.69654 1141.2605 706.15625 1161.2188 C 681.6482 1176.2026 658.63223 1194.986 631 1203.8125 C 602.00284 1195.8049 578.0237 1176.6135 553 1160.75 C 517.2692 1133.9671 481.05242 1107.6929 447.6875 1077.9375 C 399.52067 1031.0143 359.64144 975.4034 331.28125 914.40625 C 307.8348 871.42615 293.7917 824.10245 281.75 776.90625 C 271.74051 741.2361 267.07189 704.49461 260.15625 668.1875 C 251.20839 610.52684 248.11875 552.21306 241.71875 494.21875 C 239.53486 444.74766 240.9375 395.188 240.9375 345.65625 C 241.0285 332.58326 240.98245 319.48107 242.46875 306.46875 C 244.7133 287.35975 242.78575 267.95551 246.03125 248.9375 C 247.91182 236.16784 246.1699 222.81469 250.75 210.5 C 262.48839 210.25734 273.31861 215.69206 284.875 216.875 C 306.80486 221.60675 329.36241 220.77207 351.65625 220.46875 C 422.08659 218.83084 493.05541 195.4719 547.53125 150.15625 C 562.93977 135.2937 578.07035 120.15486 592.78125 104.625 C 604.76229 90.24775 617.3737 76.4149 630.75 63.28125 z "
       id="path6"
       transform="scale(0.8,0.8)" />
    <path
       style="fill:#f5e5c1"
       d="M 630.4375 85.4375 C 608.14366 108.12565 588.58158 133.66576 564.4375 154.625 C 540.80906 178.79941 511.829 197.154 481.40625 211.53125 C 436.2726 231.97485 385.94903 238.48072 336.78125 237.84375 C 312.87982 237.84375 289.69094 230.5984 266.0625 228.6875 C 261.63406 270.60598 260.28409 312.77176 257.28125 354.78125 C 257.73622 397.3367 256.6268 439.94362 257.71875 482.46875 C 264.60405 548.47064 267.3572 614.98065 279.15625 680.40625 C 291.41029 759.63279 310.14505 839.21946 347.96875 910.46875 C 375.35833 967.6441 413.48673 1019.7895 459.5 1063.4062 C 490.04408 1090.7961 523.36396 1114.7202 556.03125 1139.5312 C 578.71941 1154.8794 601.59213 1170.2046 626.3125 1182.125 C 632.59118 1186.1288 639.73513 1182.1254 645.4375 1179.0312 C 662.48394 1169.2341 679.32031 1158.9847 695.0625 1147.125 C 737.01131 1117.9458 777.75447 1086.6591 814.03125 1050.625 C 855.37344 1007.2809 890.90737 957.9409 915.71875 903.34375 C 930.06568 878.68402 938.42435 851.28937 948.3125 824.71875 C 969.39306 759.26283 980.13209 691.19496 989.65625 623.3125 C 993.05341 580.24141 998.2968 537.22551 1000.875 494.09375 C 1005.0001 468.12977 1002.1167 441.64506 1002.875 415.46875 C 1001.1158 386.22894 1005.4413 356.74807 1000.4062 327.78125 C 1000.5276 297.41916 997.12689 267.20859 995.125 236.9375 C 994.73069 234.05598 994.13146 231.25927 993.3125 228.46875 C 983.90966 230.95596 974.45616 233.56339 964.75 234.625 C 880.94336 246.7577 790.26851 231.05571 721.71875 179.21875 C 687.59552 151.76851 659.07067 118.34745 630.4375 85.4375 z M 950 264.25 C 958.26526 264.01597 966.13821 269.99813 966.1875 278.96875 C 967.37044 290.25216 952.8385 299.97079 943.375 292.8125 C 932.75889 286.86747 933.9087 270.89721 944.3125 265.4375 C 946.17221 264.6811 948.09263 264.30401 950 264.25 z M 306.625 264.71875 C 309.13495 264.63913 311.61896 264.79271 314 265.6875 C 318.97441 268.4477 320.6038 274.26916 323 279.03125 C 320.99811 288.67675 311.3082 299.57461 300.84375 293.78125 C 289.10535 288.71585 289.6909 272.10039 299.09375 265.09375 C 301.56579 265.09375 304.11505 264.79837 306.625 264.71875 z M 527.78125 278.90625 C 528.76489 278.89512 529.75572 278.94215 530.71875 279.03125 C 603.60596 279.30424 676.48688 278.61579 749.34375 279.34375 C 759.29256 283.31721 771.95133 290.47574 770.34375 303.09375 C 770.55606 357.81224 770.37688 412.53151 770.4375 467.25 C 824.06404 468.06896 877.74846 467.11302 931.375 467.75 C 946.99585 467.38601 958.52015 482.9849 961.25 496.9375 C 961.67465 567.94414 961.37596 638.92995 961.40625 709.90625 C 959.738 724.49582 947.87456 741.75925 931.34375 740 C 877.71721 740.21232 824.06404 740.03313 770.4375 740.09375 C 770.31613 795.75251 770.67556 851.37248 770.28125 907.03125 C 770.61489 920.1649 756.27695 926.77745 745.8125 930.78125 C 682.35846 931.72153 618.76561 930.91456 555.28125 931.1875 C 540.904 930.45954 525.11709 934.26311 512.46875 925.40625 C 504.24885 921.55411 497.08361 913.73925 497.78125 904.09375 C 497.29594 849.43594 497.83454 794.7819 497.53125 740.09375 C 446.96822 740.09375 396.43896 740.06425 345.90625 740.125 C 328.76881 742.85486 315.80422 725.61994 315.53125 709.96875 C 315.37959 640.11472 315.52938 570.22903 315.46875 500.375 C 315.59013 487.12002 323.88006 468.88415 339.53125 470.21875 C 392.18718 469.9761 444.84408 470.24725 497.5 470.15625 C 497.92464 415.49844 497.50642 360.81406 497.71875 306.15625 C 496.60973 290.28895 513.02663 279.0732 527.78125 278.90625 z M 631.8125 1132.3438 C 632.50532 1132.3329 633.19725 1132.3882 633.90625 1132.5 C 639.72995 1131.7114 643.49712 1136.567 647.53125 1139.8125 C 650.13977 1149.4883 646.63995 1158.6494 637.84375 1163.5938 C 630.74611 1163.6845 622.77675 1161.912 619.53125 1154.875 C 613.24689 1145.8608 621.42014 1132.5036 631.8125 1132.3438 z "
       id="path10"
       transform="scale(0.8,0.8)" />
    <path
       d="m 415.71488,257.04341 c -1.06768,-7.54654 6.67299,-12.98199 13.66142,-11.96284 51.8309,-0.0243 103.63754,0.0485 155.44417,-0.0243 11.13782,-1.98976 17.59242,9.63337 15.31147,19.33953 -0.19412,41.97915 0.0243,83.93403 -0.12132,125.88891 20.81971,0.24265 41.68796,-0.75223 62.45914,0.80076 24.72645,-0.26692 49.59849,-1.38313 74.30067,0.53384 6.09061,3.93099 10.84663,10.77384 10.43412,18.32038 0.19412,50.20511 0.12133,100.4345 0.0243,150.63962 -0.38825,9.68189 -10.84664,14.00113 -19.31527,13.75848 -42.53725,0.0971 -85.0745,0.19412 -127.61175,-0.0728 -0.67943,44.04171 0.16986,88.13194 -0.41251,132.17365 -1.57725,6.62446 -7.13403,14.82616 -14.87469,13.87981 -53.74787,-0.26692 -107.47147,0.36398 -161.19507,-0.31545 -3.10598,-4.24644 -8.49289,-7.88625 -8.05612,-13.73421 -0.16986,-43.94465 0.0728,-87.8893 -0.12132,-131.83394 -43.94465,-0.12133 -87.91356,0.0971 -131.8582,-0.0971 -7.32816,0.70369 -13.12759,-6.79432 -12.03564,-13.75849 0.0971,-52.68019 -0.0971,-105.36037 0.0971,-158.04056 -0.38825,-6.35754 5.70237,-11.98711 11.98711,-11.35621 26.69194,-2.32948 53.43241,0.53384 80.10009,-0.82502 17.17991,0.99488 34.5054,1.21327 51.68531,0.0971 0.21839,-44.47849 0.0243,-88.9327 0.0971,-133.41119 z"
       id="path18"
       style="fill:#f4722b" />
  </g>
</svg>
