<?xml version="1.0" encoding="UTF-8" standalone="no"?>
<svg
   xmlns:dc="http://purl.org/dc/elements/1.1/"
   xmlns:cc="http://creativecommons.org/ns#"
   xmlns:rdf="http://www.w3.org/1999/02/22-rdf-syntax-ns#"
   xmlns:svg="http://www.w3.org/2000/svg"
   xmlns="http://www.w3.org/2000/svg"
   xmlns:sodipodi="http://sodipodi.sourceforge.net/DTD/sodipodi-0.dtd"
   xmlns:inkscape="http://www.inkscape.org/namespaces/inkscape"
   width="1280"
   height="1280"
   viewBox="0 0 1024 1024"
   version="1.1"
   id="svg2"
   inkscape:version="0.47 r22583"
   sodipodi:docname="counter_charge.svg">
  <metadata
     id="metadata150">
    <rdf:RDF>
      <cc:Work
         rdf:about="">
        <dc:format>image/svg+xml</dc:format>
        <dc:type
           rdf:resource="http://purl.org/dc/dcmitype/StillImage" />
      </cc:Work>
    </rdf:RDF>
  </metadata>
  <defs
     id="defs148" />
  <sodipodi:namedview
     pagecolor="#ffffff"
     bordercolor="#666666"
     borderopacity="1"
     objecttolerance="10"
     gridtolerance="10"
     guidetolerance="10"
     inkscape:pageopacity="0"
     inkscape:pageshadow="2"
     inkscape:window-width="1280"
     inkscape:window-height="738"
     id="namedview146"
     showgrid="false"
     inkscape:zoom="0.45"
     inkscape:cx="479.57354"
     inkscape:cy="806.04938"
     inkscape:window-x="-8"
     inkscape:window-y="-8"
     inkscape:window-maximized="1"
     inkscape:current-layer="svg2" />
  <path
     d="m 0,0 1024,0 0,1024 L 0,1024 0,0 z"
     id="path4"
     sodipodi:nodetypes="ccccc"
     style="fill:#3e3e3e" />
  <path
     d="m 381.4764,63.62389 c 7.78919,-7.13403 18.92701,-5.14427 28.56038,-5.43545 92.18426,0.21838 184.36853,0.0728 276.55279,0.0728 10.19147,0.24266 20.60133,-1.04341 30.62294,1.16474 10.02161,4.19792 18.39318,13.97687 17.3255,25.38161 -0.0485,38.26654 0.14559,76.53308 -0.14559,114.77536 -7.91052,5.99355 -15.62692,15.60265 -26.74048,12.59374 -0.0728,-14.94749 0.26692,-29.89497 0.0728,-44.84246 0.0728,-10.11867 -5.70237,-18.90275 -10.1672,-27.5655 -4.5619,-9.00246 -13.6129,-14.0982 -21.49915,-19.7763 -11.5018,-8.44436 -26.10957,-12.44815 -40.20777,-12.59375 -15.36,4.61043 -29.91925,11.59887 -44.8182,17.51962 1.57725,1.62579 3.17876,3.25157 4.78028,4.87735 -7.93479,5.65384 -19.94616,8.42009 -22.88227,18.85422 -3.17877,8.49289 -5.24133,17.37403 -8.58996,25.79412 -3.61554,9.70616 -16.93725,13.24891 -17.20417,24.58085 -1.86843,11.0165 5.70237,21.01384 15.94237,24.28967 -1.86843,5.41119 -3.73687,10.84664 -5.50824,16.30635 9.43924,12.25403 4.17365,27.71109 4.80455,41.78503 0.29118,12.08417 -0.72797,24.21687 0.5581,36.25251 6.72152,6.47886 18.12626,1.94123 26.76474,3.34862 1.40739,4.70749 2.86332,9.41498 4.31924,14.12247 -7.93479,11.18635 -16.6218,21.79033 -24.60512,32.92815 -5.31412,6.62446 -0.36398,16.50047 -6.60019,22.78521 -12.86066,22.22711 -22.13004,46.37119 -33.63184,69.32626 -9.14806,-6.04209 -17.71375,-13.12758 -27.61403,-17.9564 -13.56436,-2.64493 -27.58977,-1.23753 -41.34825,-2.01403 -2.57213,3.34863 -5.09573,6.72152 -7.57081,10.11868 -5.12,0.94635 -10.24,1.8927 -15.36,2.83905 -2.88758,3.20303 -5.77516,6.3818 -8.68701,9.58483 -3.73687,-0.97061 -7.47374,-1.9655 -11.21062,-2.91185 -4.53763,3.13024 -9.12379,6.26048 -13.68568,9.36645 -0.0485,1.69858 -0.1456,5.09573 -0.16986,6.79431 -4.39204,2.96038 -8.78408,5.87223 -13.20038,8.80834 -0.0485,1.69858 -0.14559,5.07147 -0.19412,6.77005 -6.16342,5.45972 -12.9092,11.23488 -14.7291,19.67924 -8.51716,30.21043 -16.86446,60.44512 -25.50294,90.58275 -5.02294,3.44568 -9.80322,7.35241 -15.45706,9.73042 -8.05612,0.87355 -16.1365,-0.55811 -24.19261,-0.80076 -17.39829,10.60398 -32.78256,25.57573 -53.06844,30.47735 -27.61402,7.93478 -54.9126,16.79165 -82.45383,24.92056 -5.43545,-4.95014 -10.96797,-10.1672 -18.07773,-12.56947 -6.77005,-2.6692 -14.12246,-0.75223 -20.98957,0.36398 -13.10332,2.54786 -26.18237,5.0472 -39.309955,7.35241 0.0728,-99.92493 -0.02427,-199.82559 0.04853,-299.72625 -0.31545,-12.44815 8.444365,-26.98313 22.202845,-26.42503 84.24948,-0.29118 168.49896,-0.0243 252.74844,-0.12132 0.0485,-83.42446 -0.0728,-166.84891 0.0485,-250.27337 -0.33972,-8.2017 3.05744,-16.549 10.07014,-21.13516 z"
     id="path6"
     style="fill:#f4722b" />
  <path
     d="m 618.57365,149.98445 c 7.35242,0.7765 14.26806,4.68323 18.00493,11.18636 3.13024,7.15829 -0.41251,14.68056 -0.24266,22.00872 3.25157,7.69213 8.71128,14.19526 12.52095,21.5962 -10.43412,1.01915 -21.06237,1.74711 -31.42369,-0.14559 2.08682,-1.16474 6.26047,-3.46995 8.34729,-4.63469 -2.30521,-6.09062 -4.9744,-12.0599 -8.08038,-17.78654 -11.21061,4.99867 -26.91033,6.40607 -30.84132,20.18882 -4.31924,-4.90162 -8.61422,-9.82749 -13.24891,-14.41365 -3.97953,0 -7.93479,0 -11.89005,0 2.18389,-2.74199 4.36777,-5.50825 6.55166,-8.25024 1.69858,-9.12379 5.43545,-17.64095 8.85687,-26.20664 6.43033,-0.12132 13.00626,-0.82502 19.36379,0.50958 6.86711,2.20815 12.35109,7.10976 17.8836,11.52606 1.3346,-5.21706 2.79053,-10.38559 4.19792,-15.57839 z"
     id="path8"
     style="fill:#f5e5c1" />
  <path
     d="m 607.60569,193.2982 c 3.10597,-0.24265 6.18767,-0.31545 9.31791,-0.16986 0.55811,1.69858 1.69858,5.09574 2.25668,6.79431 -4.05232,-1.86843 -7.88625,-4.14938 -11.57459,-6.62445 z"
     id="path10"
     style="fill:#f5e5c1" />
  <path
     d="m 567.64057,195.38502 c 2.28095,-2.5236 8.44436,0.24266 5.89649,3.63981 -2.23242,2.57214 -8.42009,-0.29118 -5.89649,-3.63981 z"
     id="path12"
     style="fill:#f5e5c1" />
  <path
     style="fill:#f5e5c1"
     d="M 859.21875 246.21875 C 858.96875 246.22847 858.69342 246.22156 858.4375 246.25 C 845.03086 247.9789 833.28144 256.98588 827.09375 268.90625 C 824.2729 276.42853 815.43492 274.3529 809.15625 275.6875 C 808.8226 273.16996 808.1774 268.14254 807.84375 265.625 C 795.68071 261.95486 783.06561 263.86576 770.78125 265.625 C 766.68646 274.75486 757.84861 278.63045 748.71875 280.875 C 738.40596 275.68828 735.69065 259.88599 722.375 261.28125 C 719.58449 273.32296 714.39626 284.53368 709.9375 295.96875 C 720.0683 302.6114 730.9841 295.36315 740.78125 291.875 C 743.60211 295.0295 746.57623 298.135 749.09375 301.5625 C 736.53641 306.05159 723.4875 308.7977 710.6875 312.4375 C 710.41451 317.7759 710.15075 323.13036 709.96875 328.46875 C 730.38202 330.31899 750.99115 330.57898 771.34375 333.1875 C 751.38546 334.5221 731.39855 335.72329 711.53125 337.9375 C 709.89334 355.25694 711.45305 372.67505 714.03125 389.8125 C 732.77628 395.30255 752.25229 390.1556 768.84375 380.84375 C 787.83142 369.86365 807.8442 359.96181 824.375 345.28125 C 831.4423 337.213 832.79494 326.01499 836.34375 316.1875 C 858.24327 308.4529 878.08927 285.41706 873.8125 261 C 871.87316 254.41801 866.96864 245.91738 859.21875 246.21875 z M 858.53125 251.5625 C 865.05257 256.32459 865.99909 265.7268 865.96875 273.21875 C 864.20951 285.23013 854.9093 294.61197 844.6875 300.375 C 849.60124 294.09634 855.00627 288.2281 860.375 282.34375 C 859.31339 274.73048 857.69675 267.24194 855.9375 259.75 C 850.47779 260.81161 845.0213 261.93012 839.53125 262.71875 C 845.32461 258.16899 851.43361 253.80705 858.53125 251.5625 z M 840.40625 274.125 C 842.43847 274.216 844.46869 274.31525 846.53125 274.40625 C 848.07816 277.13611 849.64241 279.83265 851.25 282.5625 C 846.21492 287.7189 841.0599 292.71126 835.8125 297.625 C 837.90539 289.92074 839.55696 282.07192 840.40625 274.125 z M 730.03125 346.75 C 729.90988 348.44858 729.68384 351.86391 729.5625 353.5625 C 725.1644 352.56155 717.77396 357.39538 715.46875 351.875 C 716.19671 345.08069 725.36015 348.38791 730.03125 346.75 z "
     transform="scale(0.8,0.8)"
     id="path14" />
  <path
     d="m 764.23886,230.59412 c 10.3128,0.12133 21.15943,8.37157 21.13517,19.26673 0.33971,5.07147 -2.01403,9.77896 -2.71773,14.7291 3.46996,8.90541 10.09441,16.1365 14.171,24.77498 -11.28341,1.28607 -22.71242,1.8199 -33.97157,0.24265 2.98465,-1.79564 5.99356,-3.54275 9.02673,-5.24132 -2.18388,-6.62446 -4.90161,-13.05479 -8.03184,-19.291 -9.7547,2.98465 -19.02408,7.27962 -28.43906,11.21062 -2.20815,2.71772 -1.8199,10.31279 -6.57592,9.17232 -4.51337,-4.34351 -7.52228,-10.38559 -13.15185,-13.44303 -3.88246,-1.21327 -8.00758,-1.01915 -12.01137,-1.4074 9.43924,-9.70616 9.97308,-24.1926 15.89384,-35.91279 14.82616,-3.78541 30.06483,1.67431 40.35336,12.64227 1.38313,-5.60531 2.91185,-11.16208 4.31924,-16.74313 z"
     id="path20"
     style="fill:#f5e5c1" />
  <path
     d="m 666.57062,273.42256 c 4.00379,-7.18256 4.85308,-16.6946 12.7636,-21.06237 2.03829,9.34218 7.0127,17.47109 12.0599,25.40588 -7.32815,4.56189 -15.23867,8.08038 -22.51829,12.71507 -20.4072,13.97687 -43.36228,24.24113 -61.94957,40.83867 -0.92209,0.16986 -2.76626,0.48531 -3.71261,0.6309 -1.43166,-3.83393 -2.83905,-7.7164 -4.17365,-11.5746 17.51962,-7.52227 33.38919,-18.24758 49.04038,-28.99715 6.86711,-5.09574 14.60777,-9.99735 18.49024,-17.9564 z"
     id="path22"
     style="fill:#f5e5c1" />
  <path
     d="m 754.67829,275.46085 c 4.05233,1.09195 8.05612,2.25669 12.08417,3.49422 -2.47507,1.67431 -4.90161,3.37289 -7.37668,5.02294 -1.60151,-2.83905 -3.17877,-5.6781 -4.70749,-8.51716 z"
     id="path26"
     style="fill:#f5e5c1" />
  <path
     d="m 709.42332,279.22199 c 2.30521,-2.5236 7.47374,-1.14047 8.00758,2.30521 -0.33972,5.45972 -10.55545,2.45081 -8.00758,-2.30521 z"
     id="path28"
     style="fill:#f5e5c1" />
  <path
     style="fill:#f5e5c1"
     d="M 1052.3438 350.09375 C 1033.8111 351.762 1017.7493 363.51605 1010.5 380.5625 C 1005.1313 381.44212 999.77589 382.40346 994.4375 383.34375 C 993.7702 379.49161 993.13605 375.63339 992.46875 371.78125 C 979.15311 367.68646 965.37264 370.56799 951.875 371.78125 C 950.08542 375.51206 948.28956 379.23703 946.5 382.9375 C 938.31043 384.57541 927.8899 390.29343 921.15625 382.4375 C 915.60554 375.55219 911.86061 365.52201 901.0625 367.28125 C 898.81795 378.83765 892.86682 389.087 889.5 400.21875 C 887.89243 405.10216 892.61659 409.3686 897.5 408.125 C 904.93129 406.6994 911.69187 403.07266 919.0625 401.34375 C 923.52126 403.61864 927.40612 406.89974 931.53125 409.78125 C 917.33599 414.96799 902.41494 417.75169 888.25 422.96875 C 887.97701 428.3678 887.74357 433.8197 887.53125 439.21875 C 909.40045 440.796 931.5003 440.41901 953.1875 443.9375 C 932.13726 446.09105 911.04656 448.34834 889.875 448.5 C 888.93471 466.82038 889.0128 485.42504 891.5 503.59375 C 909.75971 513.02693 931.4894 505.4258 948.6875 496.78125 C 969.25244 485.40684 990.36345 474.54455 1008.5625 459.5 C 1018.936 451.70474 1017.8132 437.03523 1024.0312 426.84375 C 1038.4388 420.98972 1049.7314 409.6796 1058.4062 397.03125 C 1067.2631 381.9867 1064.9011 362.28711 1052.3438 350.09375 z M 1048.0625 355.3125 C 1053.0369 364.2907 1056.6425 374.68812 1054.125 385.03125 C 1050.5458 395.95069 1041.7135 403.99248 1032.25 409.9375 C 1037.1637 403.41617 1042.6717 397.38436 1048.3438 391.5 C 1048.5864 382.6128 1046.5515 373.99381 1044.125 365.53125 C 1038.3316 366.71419 1032.6049 367.96505 1026.7812 368.875 C 1033.3936 363.62761 1040.6919 359.34663 1048.0625 355.3125 z M 1028.25 379.03125 C 1032.1931 382.00376 1036.1157 385.12675 1039.9375 388.28125 C 1034.5991 394.62059 1028.7869 400.54946 1022.7812 406.3125 C 1025.5415 397.39496 1027.7343 388.3431 1028.25 379.03125 z M 908.90625 459.65625 C 908.96687 461.11217 909.12684 463.95033 909.1875 465.40625 C 903.51546 466.34654 897.89079 467.3373 892.21875 468.15625 C 892.58274 466.15436 893.32351 462.15814 893.6875 460.15625 C 898.72258 459.94392 903.81051 459.77759 908.90625 459.65625 z "
     transform="scale(0.8,0.8)"
     id="path30" />
  <path
     style="fill:#f5e5c1"
     d="M 865.25 355.53125 C 831.46042 370.4848 801.40255 392.06378 770.3125 411.71875 C 750.38454 423.15383 737.80645 442.97559 724.1875 460.75 C 717.42351 468.21161 720.38326 478.52364 720.65625 487.5625 C 707.18895 498.57293 702.82649 516.55839 696.0625 531.90625 C 686.84165 552.1072 679.70518 573.16116 672.03125 593.96875 C 664.81229 614.59434 666.52495 636.76685 662.1875 657.96875 C 658.82069 675.19719 657.29979 692.88188 651.71875 709.625 C 646.44102 724.51789 641.28134 739.53265 638.1875 755.0625 C 639.55242 751.87767 640.9154 748.68575 642.25 745.53125 C 661.20735 741.34546 671.37551 723.37991 685.84375 712.1875 C 690.93949 711.91451 696.06142 711.61674 701.1875 711.34375 C 705.10029 706.24801 708.86015 700.95877 713.53125 696.5 C 719.29427 694.80138 725.39781 695.30149 731.3125 694.9375 C 733.73904 690.60006 736.16813 686.21244 738.625 681.875 C 734.98519 676.32429 728.04042 671.68588 728.34375 664.40625 C 729.83 643.99297 723.86479 623.63385 727.65625 603.28125 C 731.41739 582.20067 732.69929 560.68534 738.25 539.96875 C 742.61778 521.58771 743.08521 501.89111 752.09375 484.875 C 763.19518 486.48259 773.99509 489.8143 785.1875 490.90625 C 767.50409 522.60293 752.60569 557.64968 753 594.59375 C 752.36303 606.69613 760.60192 616.39675 763.96875 627.4375 C 760.54126 633.98916 756.0819 639.94834 752.59375 646.5 C 757.29516 647.37961 761.987 648.21229 766.71875 649.03125 C 766.02112 649.51656 764.66639 650.5156 763.96875 651.03125 C 758.78202 662.49665 752.78694 673.61641 746.78125 684.6875 C 764.79831 685.17276 782.85703 684.09281 800.84375 685.09375 C 814.12906 688.73356 825.24597 697.5274 837.5 703.59375 C 852.39289 671.13878 867.26795 638.70774 882.3125 606.34375 C 887.31724 596.81959 883.68176 584.28791 891.75 576.25 C 900.97086 564.84526 909.13116 552.629 918.625 541.40625 C 907.6449 530.7598 896.3266 520.4562 885.4375 509.71875 C 880.00811 505.25999 880.68475 497.81084 880.59375 491.5625 C 880.8364 475.66866 880.74546 459.74126 878.53125 443.96875 C 866.85353 443.6351 854.84959 443.06146 843.6875 447.15625 C 827.46001 452.61596 810.7173 458.1449 797.25 469.125 C 787.48318 467.18376 777.93226 464.28225 768.46875 461.21875 C 782.23936 443.596 800.49855 430.28802 819.03125 418.125 C 836.32035 406.99325 855.93599 399.29507 876.53125 397.6875 C 867.09807 385.67612 863.85474 370.54546 865.25 355.53125 z M 724.59375 508.375 C 727.47705 508.2734 730.73223 509.75252 733.5 510.09375 C 732.59004 517.46436 734.35125 526.06508 729.4375 532.34375 C 725.76736 536.77218 719.53324 535.95679 714.4375 536.59375 C 713.70954 527.73687 711.84076 517.06176 720 510.84375 C 721.25119 509.05797 722.86377 508.43596 724.59375 508.375 z M 695.125 622.25 C 699.37144 634.59503 697.88977 647.59799 695.28125 660.125 C 690.57983 659.21505 683.7032 661.96339 681.125 656.625 C 676.15059 648.25344 680.5 638.00669 680.5 628.9375 C 685.26209 626.51096 690.15059 624.31256 695.125 622.25 z "
     transform="scale(0.8,0.8)"
     id="path32" />
  <path
     d="m 841.81536,335.20227 c 31.37516,-0.33971 62.77459,-0.0971 94.14976,-0.14559 -0.0243,7.52228 -0.0485,15.06882 -0.0728,22.59109 -5.65384,0.21839 -11.28341,0.48531 -16.88872,0.80076 0.65517,18.90275 1.8927,37.85403 0.94635,56.75678 0.31545,3.95526 -2.4508,6.86711 -5.14426,9.34218 -14.51071,-10.96796 -31.05972,-21.59621 -38.89744,-38.72758 -4.90161,-9.39072 -9.99735,-18.6601 -15.09308,-27.92948 -2.83906,-0.0728 -5.67811,-0.1456 -8.4929,-0.24266 -3.49421,-7.47374 -7.03696,-14.97175 -10.50691,-22.4455 z"
     id="path38"
     style="fill:#f4722b" />
  <path
     d="m 822.62142,347.38351 c 0.97062,-3.51849 4.5619,-4.70749 7.35242,-6.3818 2.25668,10.04587 7.86199,18.66009 12.37535,27.73535 -7.08549,3.56702 -14.41364,6.69725 -21.15943,10.8709 -22.22711,15.31147 -46.88076,26.8618 -67.87033,44.01744 -6.64872,6.62446 -7.88625,-5.50824 -10.43412,-9.56057 22.66388,-10.77383 43.87185,-24.41099 63.81801,-39.6254 8.9782,-6.35753 11.59886,-17.56815 15.9181,-27.05592 z"
     id="path40"
     style="fill:#f5e5c1" />
  <path
     d="m 944.72493,341.48701 c 17.90787,1.69858 35.9128,0.53384 53.84493,1.60152 0.46104,7.91052 0.53384,15.82104 0.5581,23.75583 2.62064,0 5.24134,0.0243 7.88624,0.0243 -0.024,5.19279 0,10.38559 0,15.60265 -26.54633,0.0728 -53.09268,-0.19412 -79.63903,0.0243 0.0971,-5.48399 0.24265,-10.96797 0.50957,-16.45195 5.89649,0.0243 11.79299,0 17.71374,-0.0243 -0.0485,-8.20171 -0.21839,-16.37915 -0.87355,-24.53233 z"
     id="path42"
     style="fill:#f5e5c1" />
  <path
     style="fill:#f5e5c1"
     d="M 1068.5938 464.59375 C 1040.8705 472.72265 1015.5025 487.36992 991.84375 503.71875 C 971.94613 517.12538 950.11724 528.05469 932.3125 544.3125 C 919.69449 559.32673 907.0058 574.38554 896.875 591.25 C 898.05794 598.37796 899.05512 605.53012 899.84375 612.71875 C 897.81151 613.26472 893.7188 614.32811 891.65625 614.84375 C 880.58516 637.92621 870.74293 661.53241 861.21875 685.3125 C 854.21211 707.21203 842.97249 727.95337 841.03125 751.1875 C 837.84641 784.27944 834.06369 817.62593 824.8125 849.65625 C 814.53004 873.92166 811.19503 900.08291 805.25 925.53125 C 802.03484 941.66775 802.38152 958.20909 799.5 974.40625 C 807.26494 970.34179 815.04849 966.34754 822.84375 962.34375 C 833.33854 957.24801 840.47586 947.61144 848.96875 939.9375 C 862.16306 927.34983 878.13828 917.38155 896.125 913.46875 C 901.76671 899.6678 900 884.68607 900 870.1875 C 901.12227 851.62447 910.08434 834.8479 918.03125 818.46875 C 914.11846 813.737 909.69403 809.36505 906.8125 803.875 C 909.23909 780.54989 902.4429 757.20104 906.75 733.90625 C 910.69313 711.73374 911.99064 689.05854 917.875 667.25 C 922.66741 647.50404 923.2819 626.41229 932.59375 608.03125 C 944.69611 608.42556 956.24046 613.1314 968.3125 614.375 C 948.71819 648.13425 934.18569 685.78747 933.09375 725.21875 C 933.60939 738.32208 941.07796 749.65868 946.75 761.09375 C 942.9282 765.79518 939.13337 770.54858 935.28125 775.25 L 935.28125 781 C 939.04239 782.27392 942.8657 783.5689 946.6875 784.8125 C 937.73963 802.40493 929.04072 820.10889 919.03125 837.125 C 915.30045 843.73732 910.92095 850.55216 911.40625 858.46875 C 911.28496 878.79102 911.40712 899.08305 911.4375 919.375 C 905.52281 920.6186 899.60403 921.91816 893.75 923.34375 C 883.92251 933.83854 868.4819 935.9758 858.59375 946.53125 C 842.36626 962.00045 823.40592 974.1707 802.75 982.90625 C 796.56233 998.55744 796.69286 1016.3249 802.03125 1032.2188 C 807.33931 1048.2339 811.70371 1065.507 823.59375 1078.125 C 835.66579 1089.8634 850.80017 1097.632 863.8125 1108.1875 C 892.59732 1109.0065 921.024 1103.671 949.6875 1102.0938 C 957.60409 1101.4568 966.06144 1099.3945 971.1875 1092.8125 C 987.96096 1073.0665 1003.9067 1052.6458 1020.4375 1032.6875 C 1046.7048 1001.3245 1070.9964 968.1516 1098.75 938.0625 C 1123.6524 853.86155 1147.2171 769.29286 1171.9375 685.03125 C 1167.0541 662.9194 1153.7917 644.5217 1143.8125 624.59375 C 1131.8011 604.75678 1115.37 587.7577 1095.5938 575.625 C 1077.698 562.00604 1052.9914 560.08344 1032.0625 566.96875 C 1014.6521 572.85311 996.28809 578.05664 982.0625 590.25 C 971.35539 588.79408 961.03246 585.4955 950.75 582.25 C 962.9737 565.65854 979.68979 553.26596 996.28125 541.40625 C 1019.667 525.33042 1047.1306 512.11667 1076.2188 513.90625 C 1098.0879 517.60672 1110.4913 537.57682 1126.7188 550.4375 C 1142.8552 562.32754 1155.2836 578.28172 1167.75 593.78125 C 1172.3301 593.05329 1176.9199 592.25371 1181.5 591.34375 C 1180.772 585.48973 1181.103 579.45329 1179.3438 573.78125 C 1168.03 563.49878 1153.9764 556.78242 1141.8438 547.53125 C 1129.8324 539.61466 1120.7843 528.23371 1109.5312 519.4375 C 1101.7056 513.09816 1093.0543 506.9966 1088.6562 497.59375 C 1082.8022 486.09802 1077.481 474.14825 1068.5938 464.59375 z M 903.1875 631.1875 C 906.433 632.91641 909.69293 634.64609 912.96875 636.375 C 911.87681 644.0186 913.42479 652.97133 907.84375 659.25 C 903.93095 662.52583 898.66834 663.03674 893.90625 664.25 C 892.72331 659.21494 891.02574 654.18581 890.84375 648.96875 C 891.81436 641.38581 898.1221 636.31356 903.1875 631.1875 z M 871.21875 755.3125 C 876.37514 768.65848 874.88801 783.06488 871.1875 796.5625 C 864.75717 796.31985 858.60675 794.76759 853.875 790.1875 C 854.29964 781.75526 854.52757 773.36974 854.40625 764.9375 C 859.13801 760.38774 864.84907 757.10208 871.21875 755.3125 z M 857.90625 865.96875 C 858.35406 865.96514 858.82817 865.97536 859.28125 866 C 869.04807 876.07014 863.41644 890.57319 860.65625 902.28125 C 855.0752 902.58456 849.4873 903.17924 843.90625 902.90625 C 836.77829 893.98871 837.5404 882.08578 838.875 871.5 C 845.04561 869.13981 851.18913 866.02296 857.90625 865.96875 z "
     transform="scale(0.8,0.8)"
     id="path46" />
  <path
     d="m 928.51564,391.61934 c 20.89251,-0.92209 41.73649,-1.60152 62.65327,-1.74711 -4.07659,2.98464 -8.08038,6.01782 -12.10844,9.07526 -16.69459,0.36398 -33.36492,-0.26692 -50.05952,-0.75223 -0.16986,-2.20815 -0.33972,-4.39204 -0.48531,-6.57592 z"
     id="path48"
     style="fill:#f5e5c1" />
  <path
     d="m 981.65687,409.16322 c 5.72664,-9.19658 15.77251,-13.97687 25.26033,-18.34464 0.1455,49.06464 0.1941,98.12929 -0.024,147.2182 -9.8275,-0.0485 -19.53366,-1.62579 -29.19129,-3.27583 -0.99488,-31.93327 -4.12512,-63.74522 -5.55678,-95.65422 -0.70369,-10.77384 3.97953,-21.01384 9.51204,-29.94351 z"
     id="path50"
     style="fill:#f5e5c1" />
  <path
     d="m 929.9473,406.90654 c 14.97175,0.0243 29.96777,0.0728 44.93952,-0.0728 -0.97061,2.13536 -1.91696,4.27071 -2.86331,6.38181 -14.19526,0.5581 -28.31773,-0.82503 -42.46446,-1.65005 0.0971,-1.16474 0.29119,-3.49422 0.38825,-4.65896 z"
     id="path52"
     style="fill:#f5e5c1" />
  <path
     d="m 653.41877,422.84891 c 12.73933,-2.93611 27.29858,-1.28607 37.61137,7.20682 8.80834,10.55545 15.45706,24.09555 14.43792,38.16948 -0.26692,22.13005 -20.79545,41.83356 -42.97403,40.88721 -20.94104,1.28606 -40.30484,-15.60266 -43.50787,-36.03413 -4.4163,-22.46976 11.91431,-46.17706 34.43261,-50.22938"
     id="path56"
     sodipodi:nodetypes="cccccc"
     style="fill:#f4722b" />
  <path
     d="m 927.39943,420.78635 c 13.51583,0.67943 27.05593,0.43678 40.62029,0.41251 -0.84929,4.82882 -1.57726,9.70616 -2.18389,14.58351 -6.74578,1.86844 -13.75848,2.15962 -20.72265,1.9655 0.12132,-4.31924 0.26691,-8.63849 0.41251,-12.98199 -5.96929,-0.0728 -11.93858,-0.16986 -17.8836,-0.21839 l -0.24266,-3.76114 z"
     id="path58"
     style="fill:#f5e5c1" />
  <path
     d="m 646.3818,430.80796 c 16.81593,-7.52227 38.80038,0.48531 46.10427,17.59242 8.73554,17.68948 -0.33972,41.56663 -19.09688,48.28815 -17.39829,7.35242 -39.18862,-2.03829 -45.78881,-19.75204 -7.83773,-17.1799 1.65005,-38.97023 18.78142,-46.12853"
     id="path60"
     sodipodi:nodetypes="ccccc"
     style="fill:#3e3e3e" />
  <path
     d="m 655.23867,431.94844 c 7.10977,1.23753 14.19526,2.64492 21.2565,4.17365 -1.16474,5.09573 -2.45081,10.19146 -3.66408,15.2872 5.50825,1.11621 11.01649,2.25668 16.50047,3.42142 -2.15962,6.98844 -3.93099,14.24379 -7.76492,20.5528 -5.41119,-0.46105 -10.62825,-2.01403 -15.84531,-3.32436 -2.13536,6.33327 -4.12512,12.6908 -5.96929,19.12113 -6.40607,-1.65004 -12.81213,-3.37289 -19.16967,-5.21706 1.77137,-6.55166 3.59128,-13.07905 5.21706,-19.63071 -3.8582,-1.45592 -7.76493,-2.79052 -11.45327,-4.65896 -0.12133,-6.67298 2.25668,-13.03052 3.73687,-19.43658 4.53763,1.01914 9.051,2.13535 13.58863,3.25156 1.21327,-4.51336 2.42654,-9.02673 3.56701,-13.54009 z"
     id="path62"
     style="fill:#f4722b" />
  <path
     d="m 467.01194,452.06445 c 11.59887,0.12133 23.31906,-0.43677 34.86939,1.01915 9.70616,4.78029 17.64094,12.47242 26.88606,18.07773 -0.21839,1.91696 -0.67943,5.77516 -0.89782,7.69213 -9.68189,-4.63469 -18.78142,-10.33706 -28.17213,-15.52986 -4.4891,18.92702 -6.9399,38.21801 -9.09953,57.48474 -0.14559,5.70237 -5.72663,8.37156 -10.43412,9.90029 -9.43924,2.79052 -19.41232,2.06255 -29.11848,2.03829 -1.57725,-3.03318 -3.13024,-6.06635 -4.70749,-9.09953 -14.19526,2.15962 -28.51185,0.6309 -42.36739,-2.83905 -2.13536,-10.09441 -3.08171,-20.38294 -3.20304,-30.67147 6.79432,-2.03829 12.05991,-6.57592 15.9909,-12.35109 3.25157,-5.84796 10.67678,-3.42142 16.08797,-4.27071 2.81478,-3.61554 5.6053,-7.23109 8.37156,-10.8709 9.5363,-0.97062 19.09687,-3.20303 25.79412,-10.57972 z"
     id="path64"
     style="fill:#f4722b" />
  <path
     d="m 506.68588,487.39488 c 8.10464,1.16474 13.78275,7.47375 18.19905,13.85555 2.74199,3.7854 -0.26692,8.2017 -1.35886,12.01137 -7.64361,18.6601 -15.19015,37.36872 -22.17858,56.29574 -8.00758,18.75715 -16.33062,37.39298 -22.85801,56.73251 -6.91564,-1.14048 -14.53498,-5.7509 -21.35356,-1.9655 -7.35241,5.38692 -8.8326,15.16588 -9.70616,23.61024 3.03318,5.36265 5.87223,10.82237 8.46863,16.40341 -9.97308,-0.0485 -22.42123,-7.59507 -20.48,-18.95128 0.50957,-5.50825 1.72284,-11.13782 4.58616,-15.91811 4.51336,-6.18767 10.89517,-11.04075 13.85554,-18.32037 8.12891,-18.00493 17.44683,-35.50029 24.89631,-53.82067 -12.03564,0.0728 -24.11981,-1.50445 -36.10692,0.21839 -15.82104,2.57213 -31.69062,4.78029 -47.51166,7.47374 -3.27583,6.30901 -5.38692,13.51584 -10.24,18.85422 -8.58995,6.04209 -17.85934,11.16209 -27.34711,15.69972 7.6436,-23.65877 15.33574,-47.31754 22.29991,-71.17043 2.96038,-10.77384 5.02293,-24.2654 16.4762,-29.3854 -0.0728,17.05858 3.2273,34.5054 -2.66919,50.98161 19.33953,-2.25668 38.3636,-6.81858 57.84872,-7.95905 13.37024,-1.91697 28.70597,-0.33972 39.81953,-9.36645 6.50312,-9.75469 8.49289,-21.669 10.67677,-32.97668 1.57726,-4.07659 3.13024,-8.20171 4.68323,-12.30256 z"
     id="path66"
     style="fill:#f5e5c1" />
  <path
     d="m 798.91412,524.37536 c 14.38939,-3.3729 31.20531,-2.57214 43.24095,6.81857 9.97308,12.08417 17.42256,27.75963 15.55412,43.77479 -1.91696,20.67412 -19.48511,38.50919 -40.01364,41.17839 -26.59489,4.68322 -54.40304,-18.49024 -53.04418,-45.83735 -1.50445,-21.01384 14.31659,-40.64455 34.26275,-45.9344"
     id="path72"
     sodipodi:nodetypes="cccccc"
     style="fill:#f4722b" />
  <path
     d="m 799.22957,530.49024 c 14.46218,-3.54275 31.01119,1.01914 40.06218,13.22464 14.41365,17.34977 8.75981,45.86161 -10.96796,56.63545 -18.90275,12.2055 -46.08,2.25668 -54.08758,-18.34464 -9.63337,-20.04323 3.63981,-46.34692 24.99336,-51.51545"
     id="path74"
     sodipodi:nodetypes="ccccc"
     style="fill:#3e3e3e" />
  <path
     d="m 803.9128,533.25649 c 7.69213,1.50446 15.40853,3.00891 23.02786,4.90161 -1.40739,5.28986 -2.91184,10.55546 -4.36777,15.84531 5.77517,1.2618 11.55033,2.47507 17.37403,3.61555 -1.86844,7.95905 -4.34351,15.74824 -7.30389,23.36758 -5.87222,-1.55299 -11.74445,-3.1545 -17.59241,-4.75602 -2.30522,6.96417 -4.5619,13.95261 -6.72152,20.98957 -6.79431,-1.86843 -13.56436,-3.73687 -20.31014,-5.70236 2.01403,-7.20683 4.12512,-14.36512 6.16341,-21.57195 -4.68322,-1.45592 -9.31792,-2.91185 -13.95261,-4.39204 1.67432,-7.13402 3.54275,-14.21952 5.48398,-21.28075 4.90162,1.1162 9.82749,2.28094 14.75337,3.42142 1.14047,-4.80455 2.28095,-9.63337 3.44569,-14.43792 z"
     id="path76"
     style="fill:#f4722b" />
  <path
     d="m 970.95583,544.5399 c 12.10844,-0.24265 24.02275,2.06256 36.05837,3.10598 -0.024,14.51071 0.048,29.02142 -0.073,43.53213 -11.30766,-0.41251 -22.37268,-3.08171 -32.92813,-7.0127 0.24265,-11.23488 -0.60663,-22.4455 0,-33.65612 -1.04341,-1.98976 -2.06256,-3.97952 -3.05744,-5.96929 z"
     id="path78"
     style="fill:#f5e5c1" />
  <path
     d="m 582.36967,564.70446 c 7.93478,0.16985 13.90407,-4.99868 19.36379,-10.07015 12.37536,-0.0728 24.75071,0.41251 37.12607,0.48531 8.92966,6.67299 18.39317,12.56948 27.22578,19.38806 3.83393,2.15962 0.50957,6.67298 0.50957,9.87602 -9.87602,-5.67811 -19.50938,-11.84152 -29.53099,-17.25271 -5.8237,21.91166 -8.66275,44.47849 -10.62825,67.02105 -12.42389,8.25024 -27.73536,8.00758 -42.05194,7.52227 -1.62579,-3.1545 -3.2273,-6.33327 -4.80455,-9.48777 -14.14673,0.19412 -28.77877,1.8199 -42.44019,-2.83905 -2.28095,-0.48531 -3.59128,-1.8927 -3.97953,-4.19792 -2.64493,-9.99734 -2.98464,-20.43147 -3.00891,-30.72 3.13024,-0.46104 6.26048,-0.92208 9.41498,-1.35886 3.80967,-5.0472 7.5708,-10.14294 11.40474,-15.19014 4.78028,0.0243 9.56057,0 14.34085,-0.0243 4.29498,-6.01782 8.44436,-13.68569 17.05858,-13.15185 z"
     id="path80"
     style="fill:#f4722b" />
  <path
     d="m 385.67431,592.00303 c 5.21706,-2.91185 10.82237,-5.58104 16.91299,-5.77516 18.78142,-0.75223 37.58711,-1.16474 56.39279,-1.04342 -0.0243,1.65005 -0.0485,4.92588 -0.0728,6.57593 -11.5746,1.14047 -24.65365,-2.98464 -34.79659,4.4891 -7.98332,5.55678 -17.22844,10.89516 -21.08663,20.35867 -8.15318,18.24758 -1.48019,38.97024 6.79431,55.93175 4.29497,9.6819 15.72398,11.69593 25.09043,12.78787 -7.30389,5.43545 -14.51072,11.01649 -21.1837,17.22844 -4.22218,3.61554 -8.4201,7.98332 -14.14673,8.9054 -4.39204,0.33972 -8.66275,-1.21327 -12.78787,-2.57213 5.38692,-6.57593 10.8709,-13.15185 12.18123,-21.91166 -6.26047,-19.65498 -11.38047,-39.67393 -18.22331,-59.13479 -13.32171,-2.20815 -26.69195,-4.56189 -39.50408,-9.02673 14.0982,-10.04587 29.26408,-18.46597 44.42995,-26.81327 z"
     id="path82"
     style="fill:#f5e5c1" />
  <path
     d="m 642.96038,593.77441 c 11.45327,-1.35887 17.05858,9.97308 23.24626,17.42256 -9.80323,23.99848 -19.43659,48.06976 -28.70598,72.28663 -8.8326,19.19394 -16.16075,39.01877 -23.99848,58.62522 -7.30389,-1.31034 -14.43791,-5.21707 -21.98445,-2.742 -8.17745,6.21195 -10.65252,17.03432 -10.67678,26.83754 3.17877,5.43545 6.11488,10.99223 8.75981,16.6946 -8.4201,0.87355 -14.60777,-4.92588 -20.77119,-9.58484 -0.77649,-9.43924 -1.48019,-19.87336 3.95526,-28.14786 4.70749,-5.92076 11.0165,-10.67678 13.97688,-17.85934 9.22085,-19.67924 18.34464,-39.40702 27.75962,-59.01346 -13.80702,0.0728 -27.68683,-1.84417 -41.37251,0.43678 -16.40342,2.57213 -32.87963,4.78028 -49.18598,7.95905 -3.10597,6.62445 -6.28474,13.24891 -9.43924,19.87336 -10.19147,5.55678 -19.8491,12.08417 -30.45308,16.81593 9.73043,-29.94351 19.31526,-59.98408 27.61403,-90.3401 2.28095,-7.37668 6.60019,-14.17099 13.61289,-17.73801 0.48531,10.07015 0.46104,20.18882 1.52872,30.2347 1.45593,8.34729 -2.88758,16.01516 -3.66407,24.16834 7.6436,0.16986 15.11734,-1.72285 22.59109,-3.08171 18.5145,-3.39716 37.32018,-4.92588 56.07734,-6.43033 9.17232,-1.35886 19.80057,-2.5964 26.59488,-9.56057 8.49289,-14.24379 9.31792,-31.37517 14.53498,-46.85649 z"
     id="path84"
     style="fill:#f5e5c1" />
  <path
     d="m 974.20739,594.59943 c 10.91943,1.23754 21.8146,2.79052 32.80681,3.13024 -0.048,16.03943 0.097,32.07886 -0.1213,48.11829 -10.11868,-4.85308 -22.46977,-8.49289 -27.56551,-19.53365 -4.22218,-9.97308 -4.99867,-21.01384 -5.12,-31.71488 z"
     id="path86"
     style="fill:#f5e5c1" />
  <path
     d="m 413.04569,617.14199 c 5.82369,-12.1327 20.01895,-23.02787 34.02009,-18.17479 5.16853,3.03318 0.65517,9.7547 0.92209,14.46218 -5.8237,1.89271 -12.54522,2.30522 -17.37403,6.30901 -6.93991,8.10464 -9.36645,19.92189 -5.72664,30.04057 3.00891,9.92455 10.09441,17.73801 16.71887,25.43014 -9.77896,5.8237 -19.46086,-1.77138 -26.59489,-8.20171 -8.95393,-14.82616 -8.22597,-34.14142 -1.96549,-49.8654 z"
     id="path88"
     style="fill:#f5e5c1" />
  <path
     style="fill:#f5e5c1"
     d="M 391.0625 774.71875 C 379.74875 782.48368 367.629 788.98691 356.40625 796.8125 C 353.10009 798.8144 352.95776 803.09825 351.5625 806.34375 C 368.24497 816.86886 386.35091 828.91027 392.78125 848.65625 C 400.97082 870.49511 404.67503 897.71081 390.84375 918.09375 C 390.23711 899.92504 389.74366 881.67606 386.4375 863.75 C 377.09533 853.37654 371.89549 839.97547 362.25 829.875 C 354.03009 822.07974 345.08756 815.11603 336.625 807.59375 C 328.43543 809.98996 320.25759 812.49624 312.25 815.46875 C 329.78176 831.7569 345.33607 850.42586 356.4375 871.71875 C 359.41001 877.33013 359.32904 883.78107 359.875 889.96875 L 348.0625 891.25 C 343.72506 877.99502 339.62714 863.9148 329.375 853.875 C 319.66884 844.32049 311.73469 832.84124 300.90625 824.5 C 289.62284 815.46115 276.24298 826.9365 264.65625 830 C 278.63919 845.71185 292.83977 861.59321 303.03125 880.15625 C 311.49381 895.56478 314.6204 913.30925 314.46875 930.75 C 312.19386 931.9936 307.71237 934.47515 305.4375 935.71875 C 307.01475 897.28842 281.48507 865.93644 257.25 839.0625 C 253.48886 838.09189 249.76114 837.09563 246 836.125 C 238.62938 838.64254 231.14911 840.97604 223.6875 843.28125 C 229.54153 858.9021 244.65231 867.4316 253.8125 880.65625 C 269.949 905.86194 277.2463 935.71146 278.15625 965.40625 C 282.67569 965.46686 287.16806 965.53313 291.6875 965.59375 C 293.44674 962.22693 295.21044 958.83649 297 955.5 C 300.82181 954.1654 304.6157 952.83368 308.4375 951.46875 C 307.07257 956.26117 305.77578 961.08534 304.5625 965.96875 C 321.21464 970.09387 336.08054 959.72087 348.03125 949.46875 C 348.27386 945.46495 348.091 941.5047 348 937.53125 C 363.80284 930.55494 381.28266 927.17307 395.78125 917.40625 C 404.85044 922.44133 414.16237 928.03306 424.6875 929.125 C 440.88465 926.36481 456.35708 920.34479 472.28125 916.25 C 472.40253 907.21114 472.47063 898.22636 472.53125 889.1875 C 476.5957 883.30315 482.32716 877.93864 483.84375 870.75 C 482.63047 847.0609 473.35032 824.89773 468.40625 801.90625 C 462.58255 797.1745 457.1151 791.31991 449.5625 789.5 C 430.05917 784.55593 411.11179 777.41827 391.0625 774.71875 z M 408.3125 788.5625 C 414.77316 796.44876 421.91523 803.83344 429.4375 810.71875 C 423.28016 816.51211 417.76493 823.45761 410 827.21875 C 400.62749 820.3941 391.95246 812.61511 383.15625 805.0625 C 391.43681 799.39046 399.72861 793.77956 408.3125 788.5625 z M 438.125 844.21875 C 439.73259 850.1941 441.26007 856.2149 442.625 862.28125 C 434.4051 864.19215 426.18682 866.04775 417.90625 867.625 C 416.78397 862.13495 415.55151 856.67939 414.15625 851.25 C 422.1335 848.88412 430.17808 846.64529 438.125 844.21875 z M 448.09375 890.53125 C 449.0037 896.23361 449.80421 901.9548 450.5625 907.6875 C 438.21747 911.02399 425.85884 914.97151 412.9375 915.0625 C 416.00101 908.57151 418.53664 901.70054 422.84375 895.9375 C 431.06366 893.32896 439.72219 892.56348 448.09375 890.53125 z "
     transform="scale(0.8,0.8)"
     id="path92" />
  <path
     d="m 465.8472,630.09972 c 11.84152,-2.79053 17.22844,13.63715 11.69593,21.98445 -2.49934,5.96929 -11.5018,6.93991 -15.50559,2.01403 -7.13403,-6.18768 -7.01271,-21.98446 3.80966,-23.99848 z"
     id="path96"
     style="fill:#f5e5c1" />
  <path
     d="m 467.64284,669.04569 c 8.05612,-6.64872 17.15564,-11.93858 26.8618,-15.82105 -5.48398,19.63072 -8.46862,40.01365 -15.06881,59.30465 -7.47374,6.33327 -15.67545,12.08417 -24.411,16.57327 -7.76492,1.43166 -15.55412,-1.8927 -23.19772,-2.88758 -12.86066,8.71128 -25.45441,17.83507 -38.55773,26.20663 -12.59374,-0.36398 -23.07639,7.35242 -34.48113,11.40474 -21.01384,7.91052 -42.3674,14.87469 -63.55109,22.29991 -2.47507,-6.89138 -4.73176,-13.83128 -6.4546,-20.94105 9.46351,-7.32815 18.70862,-15.02028 28.63317,-21.79033 8.9782,3.10597 18.00493,6.09062 26.98313,9.19659 13.44304,-4.39204 26.88607,-8.80834 40.49896,-12.71507 0.12133,-7.40095 0.16986,-14.82616 0.16986,-22.22711 9.68189,-0.67943 21.28076,2.57213 29.04568,-4.97441 17.83508,-14.55924 35.69441,-29.06995 53.52948,-43.62919 z"
     id="path98"
     style="fill:#f4722b" />
  <path
     d="m 998.25441,653.61289 c 2.18389,0.7037 6.57589,2.13536 8.75979,2.86332 -0.1213,12.95772 0.4611,25.91545 -0.6551,38.84891 -7.81351,-12.44815 -7.69218,-27.5655 -8.10469,-41.71223 z"
     id="path100"
     style="fill:#f5e5c1" />
  <path
     d="m 87.986351,671.78768 c 16.791659,-3.44569 33.680379,-6.5274 50.496299,-9.87602 10.72531,-2.30522 22.03299,1.77137 29.31261,9.85175 27.73536,28.97289 47.70578,67.16664 49.08891,107.81119 -16.37915,2.91185 -33.60758,4.29497 -47.94844,13.61289 2.54787,-30.38029 -8.95393,-61.07602 -28.99715,-83.73991 -10.53119,-13.10332 -24.31394,-24.2654 -40.717348,-28.8273 -14.389384,-2.54786 -28.34199,6.91564 -33.122275,20.40721 0.339716,-5.8237 -0.194123,-11.69593 0.970616,-17.42256 4.998673,-6.57593 13.467299,-9.14806 20.916778,-11.81725 z"
     id="path102"
     style="fill:#f5e5c1" />
  <path
     d="m 523.86578,700.90616 c 23.0764,-3.7854 46.68664,-2.35374 70.00569,-3.20303 -0.50957,1.74711 -1.57725,5.26559 -2.08683,7.0127 -11.59886,2.64493 -24.77497,-3.08171 -35.20909,4.39204 -9.41498,6.47886 -20.35868,12.90919 -24.43527,24.2654 -7.71639,18.75716 -0.67943,39.6254 7.23109,57.07223 4.70749,11.35621 17.47109,14.99602 28.75451,14.53497 -10.74958,7.13403 -20.26161,15.84531 -29.91924,24.3382 -5.21707,5.41119 -13.03053,3.63981 -19.70351,3.66408 -0.72796,-1.23754 -2.18389,-3.68834 -2.91185,-4.92588 10.38559,-5.43545 14.63204,-18.75715 10.09441,-29.40967 -5.96929,-18.19905 -9.58484,-37.32019 -17.64095,-54.74275 -12.90919,-3.30009 -26.27943,-4.56189 -39.01877,-8.66274 -0.0971,-0.84929 -0.29118,-2.54787 -0.38824,-3.39716 18.15052,-10.74957 35.88853,-22.4455 55.22805,-30.93839 z"
     id="path108"
     style="fill:#f5e5c1" />
  <path
     d="m 23.707299,704.61877 c 11.089289,-2.06256 22.275639,-3.54275 33.486256,-4.85308 1.52872,8.05611 2.450805,16.20929 3.05744,24.41099 9.487773,-1.01914 18.95128,-2.06256 28.439052,-2.96038 1.431659,11.55034 2.305214,23.1492 3.178768,34.74806 -8.492891,1.48019 -17.082843,2.45081 -25.697061,3.08171 -1.16474,9.19658 -0.994882,18.49023 0.145592,27.71109 -10.409858,1.8199 -20.892512,3.32436 -31.447962,3.97952 -1.358863,-8.58995 -2.329479,-17.22843 -2.984645,-25.86692 -6.575924,0.29119 -13.151848,0.7037 -19.727772,1.16474 -0.02427,-12.2055 -0.04853,-24.38673 0.02426,-36.56796 4.756019,-0.53384 9.512038,-1.04341 14.268057,-1.57725 -0.800758,-7.76493 -1.625782,-15.52986 -2.74199,-23.27052 z"
     id="path110"
     style="fill:#f4722b" />
  <path
     d="m 79.299336,714.78597 c 5.629574,-5.41118 11.380474,-12.66654 19.921896,-12.7636 19.776308,-1.65005 37.174598,13.17611 44.332888,30.74427 6.93991,17.30123 11.89005,36.10691 9.92455,54.88834 -5.31412,-0.16986 -10.57971,-0.75223 -15.79677,-1.77138 2.03829,-21.8146 -3.88247,-44.38142 -17.78654,-61.46426 -3.76114,-4.5619 -8.68702,-8.17744 -14.29233,-10.09441 -8.517153,-3.20303 -17.568148,0.6309 -26.303694,0.46104 z"
     id="path112"
     style="fill:#f5e5c1" />
  <path
     d="m 561.3073,714.10654 c 6.18768,-3.73687 13.73422,-1.84417 20.52853,-1.69858 -0.0485,5.24133 -0.19412,10.48266 -0.41251,15.74825 -6.21195,2.03829 -13.51583,2.30521 -18.68436,6.64872 -6.62446,8.08038 -10.33706,19.41232 -7.13403,29.70085 2.47507,10.70104 9.26938,19.65498 16.64607,27.51697 -0.33972,1.38313 -1.06768,4.12512 -1.43166,5.50825 -9.6819,0.6309 -18.22332,-5.02294 -24.92057,-11.40474 -9.94882,-15.84531 -9.07526,-36.08266 -2.57213,-53.06844 3.32436,-8.29877 10.45838,-14.46218 17.98066,-18.95128 z"
     id="path114"
     style="fill:#f5e5c1" />
  <path
     style="fill:#f5e5c1"
     d="M 545.71875 919.78125 C 536.22491 923.14807 528.45338 929.99159 519.6875 934.875 C 513.37849 939.21244 505.27032 942.19189 501.8125 949.5625 C 507.39355 958.78335 518.44922 962.34355 526.0625 969.5625 C 541.56202 980.81559 548.49712 999.73203 552.53125 1017.7188 C 555.01845 1035.2202 556.87346 1054.6255 546.5 1070.125 C 558.48105 1076.7677 570.87735 1086.3135 585.40625 1084.2812 C 601.36076 1080.4898 617.0069 1075.4487 632.71875 1070.6562 C 632.56714 1060.7681 632.59834 1050.8882 632.75 1041 C 637.05711 1035.146 643.71137 1029.957 644.5 1022.3438 C 643.49905 996.95608 633.1619 973.31689 628.1875 948.6875 C 621.57518 943.10646 615.41845 936.10391 606.53125 934.375 C 586.05731 930.21955 566.95097 920.14523 545.71875 919.78125 z M 563.25 933.625 C 570.28696 942.23921 578.14499 950.11099 586.03125 957.90625 C 579.44926 964.03326 572.86415 970.12297 566.3125 976.25 C 556.15136 968.39407 546.5343 959.85776 536.3125 952.0625 C 545.16938 945.7535 554.15047 939.57003 563.25 933.625 z M 595.75 993.78125 C 597.32725 1000.1812 598.91081 1006.6349 600.09375 1013.1562 C 590.99423 1014.8548 581.97544 1017.0266 572.90625 1018.9375 C 572.20861 1012.8105 571.44396 1006.7217 570.625 1000.625 C 579.0269 998.53211 587.4391 996.26845 595.75 993.78125 z M 607.46875 1043.8125 C 607.65074 1049.9395 607.88051 1056.0614 608.0625 1062.2188 C 595.56581 1064.8879 583.32758 1069.9026 570.40625 1069.7812 C 571.13421 1062.0467 575.21957 1055.2897 578.34375 1048.3438 C 588.08024 1047.0698 597.76259 1045.3594 607.46875 1043.8125 z "
     transform="scale(0.8,0.8)"
     id="path118" />
  <path
     d="m 595.15754,748.53915 c 5.09573,-3.97953 11.40473,-1.45593 16.88872,0.0485 3.44568,9.05099 5.38692,21.83886 -5.1928,26.91033 -13.58863,2.40227 -21.32929,-18.41744 -11.69592,-26.95886 z"
     id="path122"
     style="fill:#f5e5c1" />
  <path
     d="m 97.59545,786.05346 c 1.334597,-7.78919 2.74199,-15.55412 4.02806,-23.31905 10.48265,1.45592 20.91677,3.27583 31.2781,5.55677 -1.31033,7.66787 -2.71772,15.31147 -3.95526,22.97934 8.56569,1.40739 17.15564,2.88758 25.47867,5.43545 -1.35886,6.06635 -2.13535,12.32683 -4.36777,18.15052 -14.6563,2.32948 -29.60379,1.3346 -44.38142,2.49934 -0.50957,9.58483 -0.84929,19.16967 -1.06768,28.7545 -5.629572,-1.01915 -11.259145,-2.03829 -16.864453,-3.0817 1.140474,-8.54143 2.644929,-17.03432 3.882464,-25.52721 -7.837725,-1.14047 -15.626919,-2.47507 -23.440379,-3.80967 0.922085,-10.45839 2.766256,-20.79545 4.440569,-31.13251 8.323033,1.2618 16.621801,2.57213 24.969099,3.49422 z"
     id="path124"
     style="fill:#f4722b" />
  <path
     d="m 368.73706,769.77137 c 6.69725,-2.23241 13.51583,-4.17364 20.31014,-6.13914 6.57593,5.50824 13.24891,10.94369 19.67925,16.64606 10.28853,8.78408 14.53497,22.27564 23.70729,32.03034 2.45081,16.03943 1.86844,32.44284 5.14427,48.31241 -12.66654,5.16853 -25.6,9.56057 -38.38787,14.41365 0.16986,3.34863 0.19413,6.72152 0.0971,10.09441 -7.18256,5.77517 -14.85042,11.16208 -23.19772,15.14161 -4.58616,2.45081 -9.56057,-0.41251 -14.12247,-1.43166 0.84929,-4.19791 1.77138,-8.37156 2.79053,-12.54521 -3.44569,1.91697 -6.91564,3.80967 -10.33707,5.8237 -1.94123,7.66786 -9.17232,7.35241 -15.60265,7.0127 -0.80076,-26.3765 -7.27962,-53.1655 -22.4455,-75.10142 -8.12891,-10.02162 -20.14028,-17.25271 -24.07128,-30.2347 9.051,-2.71772 18.39318,-6.01782 27.97801,-4.02805 15.23868,17.34976 30.86559,35.28189 38.3636,57.53327 2.49934,8.51715 3.39716,17.39829 4.14939,26.2309 2.49933,-1.52872 4.99867,-3.05744 7.49801,-4.5619 -0.12133,-16.52474 -3.59128,-33.41346 -12.59375,-47.48739 -8.68701,-13.92834 -19.12113,-26.74048 -30.40455,-38.60626 7.95906,-3.44569 16.20929,-6.01782 24.411,-8.80834 12.59374,6.23621 20.43147,18.29611 30.13763,27.97801 9.46351,9.29365 13.51583,22.10578 17.61668,34.33555 3.3001,-1.01915 6.60019,-2.0383 9.87602,-3.05745 -0.0485,-14.82616 -10.19147,-26.37649 -18.07772,-37.95109 -6.30901,-9.56056 -15.60266,-16.57327 -22.5183,-25.6 z"
     id="path126"
     style="fill:#f5e5c1" />
  <path
     d="m 597.72967,791.80436 c 11.16208,-8.39583 22.4455,-19.55791 37.44151,-19.09687 -4.36777,8.08038 -10.77383,15.86957 -10.62824,25.5272 -0.38825,17.3983 2.62066,35.30616 12.03564,50.22939 14.19526,29.04568 42.31886,56.68398 76.77573,55.08246 6.74578,0.65517 10.9437,-4.87735 14.85043,-9.36645 3.42142,-0.0728 6.81858,-0.12132 10.24,-0.12132 -3.54275,7.86199 -8.10465,16.01516 -16.23356,19.92189 -9.22085,4.4891 -19.33952,6.62446 -29.04568,9.80323 -11.93858,3.39715 -23.0036,9.43924 -35.30616,11.59886 -23.68304,4.31924 -47.3418,8.88114 -71.02484,13.20038 -9.73042,1.38313 -16.91298,8.51715 -23.94995,14.7291 -7.42521,6.81858 -15.38427,13.05478 -22.83374,19.82483 -14.97176,2.96038 -29.96778,6.50313 -45.25498,7.27962 -9.12379,-1.31033 -17.01005,-7.06123 -24.09555,-12.66654 -13.9526,-14.14673 -21.30502,-33.12227 -33.38919,-48.6764 -4.39204,-1.09194 -9.36645,-1.09194 -13.22464,-3.56701 -7.98332,-9.80322 -11.59887,-22.4455 -13.66143,-34.72379 10.11868,-6.67299 18.53877,-15.82104 29.40967,-21.30503 10.65251,-0.19412 20.06749,7.03697 30.67147,7.74067 14.46218,-3.42142 28.29346,-9.14806 42.75564,-12.64228 0.21839,-7.95905 0.29119,-15.94237 0.29119,-23.90142 10.24,-0.65516 22.3727,2.5964 30.6472,-5.26559 17.73801,-14.68057 35.69441,-29.04569 53.52948,-43.60493 z"
     id="path128"
     style="fill:#f4722b" />
  <path
     d="m 201.40284,789.62047 c 15.40853,-2.81478 30.74427,-6.06635 46.1528,-8.92966 10.36133,-2.08683 21.69327,0.0971 29.60379,7.42521 17.22844,16.57327 30.45308,36.93194 40.93574,58.33403 14.07393,29.04568 18.87848,63.86654 8.12891,94.78066 -11.35621,8.00758 -23.92569,14.04967 -35.93707,21.01384 -14.97175,8.85687 -32.70976,13.56436 -50.10805,11.429 0.75222,-1.48019 2.25668,-4.44056 3.03317,-5.89649 9.46351,-2.62066 21.08664,-1.72284 28.09934,-9.80322 12.66654,-16.35488 11.91431,-38.29081 9.70616,-57.75166 -2.93611,-24.55659 -13.15185,-48.38521 -29.50673,-67.02104 -12.03564,-15.48133 -28.1964,-28.63318 -47.60872,-33.2436 -11.38047,-0.0971 -23.48891,4.9744 -29.23981,15.2872 -5.02294,6.60019 -6.16341,14.8019 -7.23109,22.76095 -1.52872,0.84929 -4.61043,2.5236 -6.13915,3.34862 -1.38313,-10.65251 -0.6309,-22.05725 5.8237,-31.05971 6.69725,-12.59375 20.94104,-18.32038 34.28701,-20.67413 z"
     id="path130"
     style="fill:#f5e5c1" />
  <path
     d="m 183.83469,841.0146 c 5.33839,-8.88114 13.3945,-18.15052 24.75071,-17.71375 22.71242,-0.31545 40.74161,18.32038 47.80285,38.63052 5.21706,16.74313 10.43412,34.26275 8.37156,52.00076 -5.45972,-0.21839 -10.91943,-0.43677 -16.37915,-0.65516 1.52872,-24.02275 -5.31412,-49.3801 -21.52341,-67.53062 -7.66787,-8.29877 -23.29479,-15.77251 -31.56929,-4.27071 -3.80967,-0.0971 -7.6436,-0.26692 -11.45327,-0.46104 z"
     id="path134"
     style="fill:#f5e5c1" />
  <path
     d="m 112.37308,829.68265 c 11.13782,-1.45592 22.25137,-3.46995 33.48626,-4.10085 1.14047,8.49289 2.49933,16.98578 3.80966,25.45441 8.58996,-1.23754 17.17991,-2.62066 25.79413,-3.73687 2.01403,10.91943 3.76114,21.88739 5.53251,32.85535 -8.46863,1.86844 -17.03431,3.27583 -25.6,4.68322 0.94635,8.90541 2.28095,17.76228 3.88246,26.57062 -11.11355,2.30521 -22.3727,4.02806 -33.63184,5.58104 -1.50446,-8.68701 -2.93612,-17.37402 -3.97953,-26.10957 -9.17232,0.67943 -18.29611,1.9655 -27.371375,3.37289 -1.941232,-11.08929 -3.712606,-22.17858 -5.508246,-33.26787 8.929668,-1.67431 17.907871,-3.1545 26.958861,-4.24644 -1.14047,-9.02673 -2.5964,-18.00493 -3.37289,-27.05593 z"
     id="path136"
     style="fill:#f4722b" />
  <path
     d="m 925.96777,848.10009 c 6.06635,-3.20303 12.95773,-3.61554 19.70351,-3.7126 -0.36398,25.16322 -3.13024,50.25365 -3.39716,75.41687 -0.46104,8.49289 4.10086,16.01517 6.93991,23.73156 7.66787,19.41233 16.40341,38.41214 23.44038,58.09138 -0.87356,1.5044 -2.62067,4.4648 -3.51849,5.9693 -118.29383,-0.1456 -236.58767,0.048 -354.88151,-0.097 7.0127,-20.81973 14.43791,-42.02769 28.14786,-59.52305 12.2055,-1.91696 24.84778,-1.96549 36.49517,-6.52739 15.11735,-5.84796 30.40455,-11.30768 45.18218,-18.05346 27.73536,-12.37536 58.86787,-11.86578 87.84076,-19.60645 38.19374,-18.15052 75.97498,-37.22312 114.04739,-55.6891 z"
     id="path140"
     style="fill:#f5e5c1" />
  <path
     d="m 208.94938,888.93877 c 11.21062,1.33459 22.32417,3.42142 33.3892,5.70237 -1.21327,8.78407 -2.79052,17.54388 -4.07659,26.35222 9.17232,0.63091 18.5145,0.7765 27.34711,3.71261 -2.62066,10.91943 -4.70749,21.96019 -5.87223,33.14654 -9.09952,-0.43678 -18.10199,-1.86843 -27.00739,-3.68834 -1.35886,9.17232 -2.23242,18.49024 -5.1928,27.34711 -10.84663,-2.5236 -21.79033,-4.65896 -32.85535,-5.89649 0.33971,-9.31792 1.96549,-18.51451 3.7854,-27.66256 -8.46863,-1.55299 -16.96152,-2.96038 -25.50294,-4.12512 0.80076,-11.40474 2.98465,-22.66389 5.55678,-33.77744 8.71128,1.21327 17.37403,2.79052 26.03678,4.31924 1.50445,-8.46863 2.98464,-16.93725 4.39203,-25.43014 z"
     id="path142"
     style="fill:#f4722b" />
  <path
     d="m 42.343128,926.69573 c 10.385592,-4.90161 20.965308,-9.34218 31.593554,-13.68568 3.979527,7.40095 7.352418,15.11734 10.531185,22.90654 8.250237,-3.39716 16.476213,-6.84285 24.750713,-10.16721 5.12,10.89517 9.65763,22.05726 13.90407,33.29214 -7.78919,3.88246 -15.77251,7.35241 -23.780091,10.7253 3.324361,8.44436 6.697251,16.86446 9.609101,25.47868 -10.531186,4.61042 -21.159433,9.051 -31.811944,13.3945 -4.003792,-8.1532 -7.570806,-16.47621 -11.089289,-24.82351 -7.959053,3.49422 -15.990901,6.81858 -24.144076,9.90029 C 37.150332,982.36057 31.3509,971.48967 26.789005,960.06066 34.990711,956.59071 43.216682,953.16929 51.442654,949.74787 48.336682,942.08 45.206445,934.4364 42.343128,926.69573 z"
     id="path144"
     style="fill:#f4722b" />
</svg>
