<?xml version="1.0" encoding="UTF-8" standalone="no"?>
<svg
   xmlns:dc="http://purl.org/dc/elements/1.1/"
   xmlns:cc="http://creativecommons.org/ns#"
   xmlns:rdf="http://www.w3.org/1999/02/22-rdf-syntax-ns#"
   xmlns:svg="http://www.w3.org/2000/svg"
   xmlns="http://www.w3.org/2000/svg"
   xmlns:sodipodi="http://sodipodi.sourceforge.net/DTD/sodipodi-0.dtd"
   xmlns:inkscape="http://www.inkscape.org/namespaces/inkscape"
   width="1280"
   height="1280"
   viewBox="0 0 1024 1024"
   version="1.1"
   id="svg2"
   inkscape:version="0.48.1 "
   sodipodi:docname="freezecam_ragdoll.svg">
  <metadata
     id="metadata42">
    <rdf:RDF>
      <cc:Work
         rdf:about="">
        <dc:format>image/svg+xml</dc:format>
        <dc:type
           rdf:resource="http://purl.org/dc/dcmitype/StillImage" />
      </cc:Work>
    </rdf:RDF>
  </metadata>
  <defs
     id="defs40" />
  <sodipodi:namedview
     pagecolor="#ffffff"
     bordercolor="#666666"
     borderopacity="1"
     objecttolerance="10"
     gridtolerance="10"
     guidetolerance="10"
     inkscape:pageopacity="0"
     inkscape:pageshadow="2"
     inkscape:window-width="1920"
     inkscape:window-height="1018"
     id="namedview38"
     showgrid="false"
     inkscape:zoom="0.36"
     inkscape:cx="311.00501"
     inkscape:cy="693.38675"
     inkscape:window-x="-8"
     inkscape:window-y="-8"
     inkscape:window-maximized="1"
     inkscape:current-layer="layer2"
     inkscape:snap-page="true" />
  <g
     inkscape:groupmode="layer"
     id="layer1"
     inkscape:label="background"
     style="display:inline">
    <rect
       style="fill:#3e3e3e;fill-opacity:1;fill-rule:nonzero;stroke:none"
       id="rect2993"
       width="1280"
       height="1280"
       x="0"
       y="0"
       transform="scale(0.8,0.8)" />
  </g>
  <g
     inkscape:groupmode="layer"
     id="layer2"
     inkscape:label="foreground">
    <path
       style="fill:#f5e5c1"
       d="M 646.3125 137.875 C 611.47329 137.93632 576.59534 140.61525 542.90625 149.90625 C 429.1015 178.93374 333.23996 269.49676 298.84375 381.90625 C 297.66081 387.9726 297.99638 394.21765 297.875 400.375 C 297.90537 641.05746 297.84563 881.75504 297.90625 1122.4375 C 294.96406 1165.2053 297.25646 1208.1412 296.4375 1251 C 530.8413 1250.272 765.31588 1250.7787 999.75 1250.6875 C 999.62863 967.20696 999.68938 683.72965 999.75 400.21875 C 999.50734 391.11923 1000.7354 381.73095 998.1875 372.84375 C 975.95433 307.47882 932.92898 249.90009 877.9375 208.40625 C 818.63893 163.57592 744.71996 138.82446 670.4375 138.1875 C 662.41854 137.97139 654.35232 137.86085 646.3125 137.875 z M 800.25 351.1875 C 807.5372 351.24437 814.84446 351.6319 822.09375 351.34375 C 836.77432 351.34375 853.48771 349.40779 865.46875 359.78125 C 887.88391 380.83149 880.53759 423.82228 851.84375 435.5 C 839.43806 441.68769 825.37262 441.30791 811.875 441.15625 C 805.17167 460.75056 810.51475 482.17865 808.9375 502.53125 C 798.83703 502.56162 788.75765 502.5791 778.6875 502.09375 C 778.71788 452.38001 778.98624 402.65124 778.53125 352.9375 C 785.68954 351.39058 792.9628 351.13063 800.25 351.1875 z M 642.875 351.21875 C 649.30912 351.20738 655.77233 351.49632 662.1875 351.375 C 662.39982 402.81765 662.06984 454.2136 662.3125 505.65625 C 649.45184 505.95956 636.61158 506.10388 623.78125 505.40625 C 623.93291 454.5399 624.11215 403.7101 623.6875 352.84375 C 630.02684 351.52432 636.44088 351.23012 642.875 351.21875 z M 464 351.28125 C 493.60379 350.55329 517.70709 384.27954 508.03125 412.09375 C 506.60566 426.98665 492.34405 434.35177 482.03125 442.875 C 496.86347 462.49964 512.22751 481.72095 526.96875 501.40625 C 526.90812 502.4072 526.84283 504.43746 526.8125 505.46875 C 514.4978 506.59103 502.09502 505.65809 489.75 505.71875 C 478.16327 488.70264 466.42497 471.76979 454.65625 454.875 C 450.89511 448.32334 442.6638 446.4255 435.6875 448.09375 C 435.05052 467.32407 435.46691 486.58216 435.40625 505.8125 C 425.85175 505.87312 416.33667 505.87312 406.8125 505.8125 C 407.05516 454.30917 406.63601 402.81581 407 351.3125 C 426.018 351.37313 445.01233 351.342 464 351.28125 z M 710.15625 477.90625 C 717.73919 480.27212 726.61674 485.27547 726.34375 494.375 C 726.7684 503.56552 718.07651 508.84369 710.28125 510.90625 C 702.84996 508.60102 694.045 503.72086 695.53125 494.5 C 694.045 485.33981 702.90696 480.45411 710.15625 477.90625 z M 868.125 480.6875 C 877.22454 487.63347 877.5407 500.96854 868.5625 508.1875 C 863.73975 508.15713 858.94959 508.15525 854.1875 508.125 C 852.00361 505.88045 849.84014 503.65262 847.65625 501.46875 C 847.56525 496.79765 847.56612 492.13984 847.6875 487.46875 C 849.96239 485.25452 852.19295 482.99454 854.4375 480.75 C 858.98726 480.71963 863.54491 480.71775 868.125 480.6875 z M 569.71875 481.34375 C 572.07291 481.16436 574.48075 481.76259 576.8125 483.46875 C 584.78975 486.56259 584.33641 495.3077 584.09375 502.375 C 580.12029 506.25746 575.37791 509.12861 570.3125 511.3125 C 565.39876 508.97695 559.20962 507.49004 556.84375 502 C 556.08545 497.93554 556.24449 493.78229 556.0625 489.6875 C 559.58667 485.82968 564.53961 481.73841 569.71875 481.34375 z M 639.75 558.8125 C 640.82865 558.8098 641.88913 558.821 642.96875 558.84375 C 691.28724 558.29778 739.51297 582.03289 767.8125 621.3125 C 779.82388 640.17885 791.6258 659.95615 795.78125 682.25 C 805.18409 724.62345 795.13309 770.71591 769.59375 805.71875 C 750.0601 832.68368 721.9191 852.90963 690.34375 863.34375 C 690.04043 870.8357 690.09379 878.38122 689.0625 885.8125 C 686.08999 890.27128 681.86959 893.65889 678.59375 897.875 C 687.26864 902.57642 699.28569 902.5365 704.59375 912 C 710.0838 919.7346 714.96034 927.93451 719.84375 936.09375 C 726.82005 935.82076 733.74245 935.71782 740.71875 935.6875 C 743.29695 931.83536 745.9558 928.04148 748.625 924.25 C 770.09987 924.58365 791.55638 924.1948 813.03125 924.4375 C 815.42746 933.992 826.42258 933.54316 834.1875 934.96875 C 840.6785 935.15075 845.37485 940.13043 850.53125 943.40625 C 850.59187 1018.3863 850.83095 1093.3637 850.40625 1168.3438 C 844.15791 1176.3512 836.55456 1187.6811 824.9375 1186.4375 C 699.48536 1186.2555 574.04588 1186.4945 448.59375 1186.3125 C 439.2819 1186.4339 435.38802 1176.0792 429.625 1170.4375 C 429.443 1094.2745 429.92005 1018.1005 429.34375 941.9375 C 438.6556 934.47589 451.4859 939.05978 462.375 937.9375 C 463.55794 932.56879 460.65056 924.69126 466.65625 921.71875 C 481.15484 921.05145 495.68984 921.71324 510.21875 921.53125 C 511.34103 926.80898 507.31964 936.07993 514.78125 937.6875 C 529.21916 938.32448 543.71925 937.57259 558.1875 937.90625 C 565.01214 926.65316 572.81871 916.07752 580.25 905.21875 C 587.37796 903.39885 594.35459 900.95965 600.90625 897.5625 C 598.63136 894.13501 595.75101 891.13704 592.6875 888.4375 C 593.08181 880.09627 593.24633 871.77873 593.125 863.4375 C 581.02264 857.0375 567.97275 852.50941 556.75 844.5625 C 522.65716 822.23838 498.33018 786.13166 490.65625 746.09375 C 485.71218 723.13261 488.03572 699.40231 492.3125 676.5625 C 506.13668 609.3824 571.79488 558.98229 639.75 558.8125 z "
       id="path6"
       transform="scale(0.8,0.8)" />
    <path
       d="m 647.27962,299.79905 c 10.55545,0.82503 25.55147,-4.97441 32.07886,6.26048 4.31925,6.67298 4.17365,16.42767 -2.08682,21.88739 -7.7892,8.08038 -19.99469,4.78028 -29.96777,5.38692 0.16985,-11.18635 0.21838,-22.3727 -0.0243,-33.53479 z"
       id="path14"
       style="fill:#f5e5c1" />
    <path
       d="m 348.30559,301.83735 c 8.58996,0 17.22844,-0.67944 25.74559,0.43677 9.77896,5.50825 12.25403,21.69327 3.13024,28.87583 -7.76493,7.30389 -19.36379,3.68834 -28.90009,4.53763 0.19412,-11.28341 0.16985,-22.56682 0.0243,-33.85023 z"
       id="path16"
       style="fill:#f5e5c1" />
    <path
       d="m 505.76379,549.99962 c 8.71128,-2.37801 18.95128,-0.65516 24.70218,6.81858 12.49668,12.73934 2.18389,38.19374 -16.13649,37.12607 -13.00626,1.86843 -25.40588,-10.84664 -23.51318,-23.7801 -0.41251,-9.17232 6.79432,-17.05858 14.94749,-20.16455 z"
       id="path26"
       style="fill:#f5e5c1" />
    <path
       d="m 482.71166,754.79962 c 0.24265,-6.11488 -1.43166,-13.58862 4.02806,-17.9564 16.67033,0.43678 33.36492,0.12133 50.03526,0.16986 1.14047,0.84929 3.39715,2.5236 4.53763,3.37289 -0.24266,9.36645 0.99488,18.87848 -1.28607,28.09934 -14.99602,0.14559 -29.96777,-0.0243 -44.96379,0.12133 -3.10597,-0.41252 -7.18256,0.89781 -9.46351,-1.91697 -3.56701,-2.91185 -2.47507,-7.88626 -2.88758,-11.89005 z"
       id="path28"
       style="fill:#f5e5c1" />
    <path
       d="m 500.15848,815.63299 c 15.4328,-5.67811 34.5782,-0.36399 42.56152,14.63203 11.11355,17.76228 0.89782,43.77479 -19.2182,49.40436 -19.16967,7.30389 -41.97915,-7.83772 -44.01744,-27.95374 -2.35374,-14.97175 6.89137,-30.25896 20.67412,-36.08265 z"
       id="path30"
       style="fill:#f5e5c1" />
    <path
       d="m 843.24701,920.94483 c 17.68948,-14.85042 40.37763,-23.0036 63.35697,-24.04701 0.0485,0.97062 0.0971,2.93611 0.14559,3.90673 -12.39962,2.37801 -23.97421,7.83772 -33.85023,15.69972 -16.08797,13.24891 -32.73403,29.36113 -34.651,51.39412 17.54389,-29.531 52.89858,-46.10427 86.72455,-43.94465 -2.96038,4.46484 -8.42009,5.45972 -12.88493,7.64361 -13.41877,5.72663 -24.3382,15.67545 -34.69952,25.64853 -10.50692,12.30256 -16.64607,27.68682 -20.77119,43.16812 -15.02028,0.2184 -30.0163,0.097 -44.98806,0.097 0.43678,-12.47239 -0.72796,-24.99333 0.6309,-37.39296 8.03185,-15.57838 18.36891,-29.96777 30.98692,-42.17327 z"
       id="path32"
       style="fill:#f5e5c1" />
    <path
       d="m 138.14294,902.11488 c 13.75848,-5.45971 28.02654,2.57213 41.46957,5.45972 17.44683,6.89137 33.04948,18.5873 44.67261,33.34066 -0.14559,20.01896 -0.0728,40.06218 -0.0243,60.08114 -4.61042,-0.024 -9.19658,-0.048 -13.80701,-0.097 -1.31033,-23.22199 -9.02673,-46.1528 -23.61024,-64.42465 -13.3945,-15.02028 -30.84133,-25.50294 -48.70066,-34.35981 z"
       id="path34"
       style="fill:#f5e5c1" />
    <path
       d="m 81.216303,918.22711 c 20.358677,-2.18389 42.076207,-0.67943 59.425967,11.33194 9.1238,7.0127 18.78143,13.3945 26.9346,21.54768 13.22465,13.41877 21.93593,30.76853 25.84266,49.11317 -12.81214,0.1456 -25.6728,0.6066 -38.48493,-0.2184 -0.50958,-0.63088 -1.55299,-1.89268 -2.08683,-2.52359 -4.68322,-27.78388 -20.69839,-54.23317 -45.15791,-68.81668 -8.274505,-4.68322 -16.718865,-9.90028 -26.473557,-10.43412 z"
       id="path36"
       style="fill:#f5e5c1" />
  </g>
</svg>
