<?xml version="1.0" encoding="UTF-8" standalone="no"?>
<svg
   xmlns:dc="http://purl.org/dc/elements/1.1/"
   xmlns:cc="http://creativecommons.org/ns#"
   xmlns:rdf="http://www.w3.org/1999/02/22-rdf-syntax-ns#"
   xmlns:svg="http://www.w3.org/2000/svg"
   xmlns="http://www.w3.org/2000/svg"
   xmlns:sodipodi="http://sodipodi.sourceforge.net/DTD/sodipodi-0.dtd"
   xmlns:inkscape="http://www.inkscape.org/namespaces/inkscape"
   width="1280"
   height="1280"
   viewBox="0 0 1024 1024"
   version="1.1"
   id="svg2"
   inkscape:version="0.48.1 "
   sodipodi:docname="heal_callers.svg">
  <metadata
     id="metadata26">
    <rdf:RDF>
      <cc:Work
         rdf:about="">
        <dc:format>image/svg+xml</dc:format>
        <dc:type
           rdf:resource="http://purl.org/dc/dcmitype/StillImage" />
      </cc:Work>
    </rdf:RDF>
  </metadata>
  <defs
     id="defs24" />
  <sodipodi:namedview
     pagecolor="#ffffff"
     bordercolor="#666666"
     borderopacity="1"
     objecttolerance="10"
     gridtolerance="10"
     guidetolerance="10"
     inkscape:pageopacity="0"
     inkscape:pageshadow="2"
     inkscape:window-width="1920"
     inkscape:window-height="1018"
     id="namedview22"
     showgrid="false"
     inkscape:zoom="0.6609375"
     inkscape:cx="640"
     inkscape:cy="640"
     inkscape:window-x="-8"
     inkscape:window-y="-8"
     inkscape:window-maximized="1"
     inkscape:current-layer="layer2"
     inkscape:snap-page="true" />
  <g
     inkscape:groupmode="layer"
     id="layer1"
     inkscape:label="background">
    <rect
       style="fill:#3e3e3e;fill-opacity:1;fill-rule:nonzero;stroke:none"
       id="rect3000"
       width="1280"
       height="1280"
       x="0"
       y="0"
       transform="scale(0.8,0.8)" />
  </g>
  <g
     inkscape:groupmode="layer"
     id="layer2"
     inkscape:label="foreground">
    <path
       d="m 288.80682,50.83602 c 71.60721,-14.00114 148.04323,-0.41251 210.64797,37.00474 59.62009,35.2091 106.2582,91.65042 129.60151,156.8273 24.3382,66.65706 23.90143,141.90407 -1.16474,208.29421 -11.72019,31.95754 -29.53099,61.36721 -50.78748,87.8165 2.15962,9.65763 2.25668,19.63071 4.65895,29.26407 7.32815,29.40967 14.82616,58.79507 21.98446,88.25327 -5.7509,0.29119 -11.81725,0.55811 -16.84019,-2.76625 C 558.17706,639.00512 529.42256,622.48038 500.71659,605.90711 444.76057,639.49043 377.78806,654.48644 312.8781,647.18256 239.03848,639.51469 168.64455,603.18938 119.60417,547.45175 74.713175,497.12531 47.487393,431.29327 44.090237,363.90825 39.625403,291.01498 63.308436,216.95697 108.7818,159.86047 153.18749,103.54047 218.29156,64.01213 288.80682,50.83602 z"
       id="path6"
       style="fill:#f5e5c1" />
    <path
       d="m 246.07545,107.42294 c 1.35886,-4.82882 7.0127,-4.70749 11.01649,-4.85308 58.2855,0 116.571,0.12132 174.8565,-0.0485 4.19791,0.33971 9.77895,-0.55811 12.32682,3.7126 1.57725,3.10598 1.16474,6.74579 1.40739,10.11868 -0.14559,42.36739 -0.0243,84.73478 -0.0728,127.10218 43.14388,0.0243 86.31204,-0.0485 129.48019,-0.0243 5.43545,-0.75223 11.86578,2.35375 11.18635,8.66275 0.33971,59.95981 0,119.94389 0.16986,179.92796 0.77649,5.60531 -2.06256,12.42389 -8.75981,11.55033 -44.04171,0.36399 -88.08342,0 -132.10086,0.12133 -0.14559,43.84758 0.14559,87.71943 -0.12132,131.59128 0.67943,5.07147 -3.27583,9.77896 -8.58996,9.09953 -59.06199,0.38824 -118.14824,-0.0971 -177.2345,0.21839 -4.39204,-0.46105 -10.38559,0.84928 -13.12758,-3.59128 -1.2618,-3.44569 -1.06768,-7.18256 -1.21327,-10.77384 0.21839,-42.17327 0.0728,-84.34654 0.0971,-126.51981 -43.82332,-0.1456 -87.64664,0.16985 -131.44569,-0.0971 -5.48398,0.75223 -10.11867,-3.49421 -9.29365,-9.07526 -0.29118,-58.26123 0.12133,-116.54673 -0.19412,-174.80796 0.19412,-4.31924 -0.26692,-8.88114 1.35886,-12.98199 2.96038,-4.12512 8.58995,-2.96038 12.95773,-3.39715 42.2218,0.16985 84.41933,0.0971 126.64113,0.0728 -0.0243,-38.26654 0.0728,-76.53308 -0.0485,-114.79962 0.0728,-7.06123 -0.53384,-14.21953 0.7037,-21.20796 z"
       id="path8"
       style="fill:#f4722b" />
    <path
       d="m 949.67507,221.56739 c 15.84531,-13.85554 30.04057,-29.4582 45.47337,-43.72625 -0.53384,23.12493 1.01914,46.37118 -0.72797,69.42331 -7.10976,9.92455 -18.27184,15.65119 -27.78388,22.93081 -11.81725,9.051 -24.9691,16.08796 -36.98048,24.82351 13.44304,5.79943 27.34711,10.45839 40.96,15.84531 8.51716,3.76113 17.68948,7.37668 23.82863,14.7291 1.40739,8.97819 0.53384,18.12625 0.67943,27.20151 -25.57573,-14.07393 -52.60739,-25.45441 -80.36701,-34.45687 -29.26408,-7.27962 -60.00834,-10.43412 -89.87906,-5.1928 -18.39317,2.30522 -38.24227,10.09441 -47.1962,27.46844 -11.21062,21.83886 -9.24512,48.23962 -2.11109,71.07336 5.26559,17.85934 22.95507,29.77365 25.26028,48.77346 -6.11488,2.76626 -10.50692,-3.20303 -14.8019,-6.52739 -19.50938,-17.9564 -37.68417,-39.28569 -44.13876,-65.63791 -5.28986,-22.5183 -5.65384,-46.8565 2.54786,-68.71962 3.61555,-9.31792 11.18635,-16.1365 18.32038,-22.78522 10.45839,-9.90028 24.87204,-13.85554 38.55773,-17.01005 16.59753,-3.88246 33.70464,-1.94123 50.54483,-2.57213 13.78275,-1.23753 26.71621,-6.72151 39.21289,-12.27829 22.29991,-10.38559 39.40702,-28.51185 58.60095,-43.36228 z"
       id="path10"
       style="fill:#f5e5c1" />
    <path
       d="m 859.14085,448.32758 c 13.68569,-2.79052 27.12872,-7.76493 41.25119,-7.5708 8.44436,4.17365 15.16587,11.25914 23.22199,16.23355 9.19659,5.77517 15.16588,15.19014 18.61156,25.28455 -3.49422,13.73422 -4.17365,27.95375 -7.44948,41.73649 -3.39715,14.36512 -4.29497,29.16702 -5.62957,43.82332 -0.19412,5.24133 -0.53384,11.64739 3.76114,15.48133 10.09441,9.46351 23.14919,15.72398 31.39943,27.08019 6.74578,9.14805 12.86066,18.99981 16.03943,30.0163 5.16853,17.42256 11.08929,35.08777 10.53119,53.52948 0.53383,12.49668 -1.9655,25.40588 2.11109,37.51431 2.54786,10.02161 0.12132,20.28588 -0.7037,30.35602 2.40227,28.51185 -3.68834,57.12076 -12.69081,84.05536 -13.34597,26.98313 -44.1145,37.00474 -68.81668,50.64189 -19.2182,8.49289 -35.18483,26.18237 -57.63033,25.45441 -3.49422,0.99488 -7.0127,2.35375 -10.70104,1.84417 0.0728,-6.13915 3.05744,-11.74445 7.40094,-15.94237 10.99223,-10.91943 22.03299,-22.20284 29.50673,-35.91279 8.00759,-13.17612 14.58351,-27.12872 22.56683,-40.30484 5.41118,-8.9054 9.07526,-18.70862 11.67166,-28.7545 -7.0855,4.75602 -12.52095,11.35621 -16.96152,18.56303 -22.4455,31.10825 -45.98294,62.16796 -76.50881,85.87526 -19.09688,12.52095 -38.02389,25.33308 -57.48474,37.2474 -27.03166,13.90407 -52.94711,31.95753 -83.27887,37.70843 -19.7035,-14.70483 -39.16436,-30.0891 -56.02881,-47.99696 -14.94749,-19.75204 -34.0201,-36.64076 -56.34427,-47.58446 -7.66786,-4.53763 -21.81459,0.43678 -19.46085,10.96796 3.76114,31.47223 16.86445,61.17308 19.55791,92.83943 -17.56815,-10.50692 -17.76227,-32.92815 -21.96019,-50.61763 -6.91563,-24.87203 -12.37535,-50.83602 -26.20663,-72.99033 -8.78408,-17.1799 -23.73156,-31.61782 -26.57062,-51.44265 -4.92587,-30.06484 4.6347,-66.09896 32.63697,-81.84721 14.75337,-9.22085 33.29213,-5.70237 48.31242,0.97062 14.94749,7.61934 29.79791,17.8836 37.12606,33.53479 10.50692,19.19393 12.03564,41.56663 20.94105,61.34294 3.37289,8.66274 3.73687,18.82995 10.40985,25.89118 4.92588,5.45972 10.67678,11.06502 18.15053,12.56948 13.58862,2.96038 27.56549,3.66407 41.42104,4.05232 4.4891,-0.16986 9.41497,0.7037 13.41877,-1.8199 12.0599,-6.96417 23.07639,-16.01517 30.79279,-27.73536 11.55033,-14.82616 17.68948,-32.70976 25.52721,-49.52569 4.44056,-10.11867 9.87602,-19.80057 13.3217,-30.28322 3.3001,-11.04076 3.71261,-22.61535 5.41119,-33.9473 -0.38825,-0.0728 -1.11621,-0.21839 -1.50446,-0.29118 -3.59128,10.55545 -9.24512,20.26161 -12.54521,30.91412 -4.78029,14.87469 -13.56436,27.92948 -21.28076,41.37251 -9.02673,14.07394 -18.78142,28.02654 -31.39943,39.1401 -11.86578,7.69213 -30.81706,8.42009 -39.6982,-4.19792 -13.49156,-23.44038 -21.83886,-49.64701 -37.41725,-71.94692 -8.78408,-12.03564 -16.54901,-25.01763 -27.58976,-35.2091 -10.33707,-9.34218 -20.69839,-19.82483 -34.651,-23.34331 -13.10332,-5.14427 -27.44417,-2.93612 -40.91147,-6.11489 4.05232,-14.6563 21.06237,-19.99469 34.651,-17.20417 19.55791,3.97953 39.86805,8.88114 55.83469,21.52342 11.93858,8.95393 17.85934,23.05213 26.03678,35.0635 8.95393,15.84531 20.45573,30.01631 29.36113,45.88588 5.09574,7.81346 9.97308,17.93213 19.70351,20.38294 12.52095,-1.69858 21.42635,-12.25403 27.80815,-22.32417 7.0127,-11.11356 13.87981,-22.42123 18.53877,-34.77232 4.27071,-10.79811 11.86578,-21.59621 8.73555,-33.80171 -4.75602,-16.67033 -17.59242,-28.99716 -26.9346,-43.07109 -7.7892,-12.08417 -17.83507,-22.49403 -27.71109,-32.83109 -16.79166,-13.5401 -39.47981,-21.40209 -61.00322,-16.96152 -9.31792,1.4074 -14.68057,10.11868 -19.43659,17.34977 -5.07147,7.44947 -6.23621,16.57327 -6.55166,25.35734 l -5.16853,-0.67943 c 3.68834,-15.33573 1.94123,-34.5782 15.45706,-45.40057 9.39071,-7.61933 17.03431,-17.42256 27.97801,-22.97933 12.15697,-6.21195 24.2654,-15.45707 38.72758,-13.83129 12.73934,-0.38824 22.32417,8.9782 32.00607,15.84531 6.96417,5.67811 16.81592,4.51337 24.09554,9.58484 11.42901,7.20682 25.1147,9.14805 37.41725,14.38938 22.29991,10.57972 42.61005,29.06995 48.45801,53.8692 3.08171,16.84018 9.00247,33.63184 7.30389,50.98161 -1.04341,16.64606 -5.58104,32.75829 -9.41498,48.89478 -3.63981,13.00626 -6.67298,26.61915 -14.34085,37.97536 -23.27052,34.26275 -56.22294,60.12967 -88.73858,84.97744 -0.53384,2.13536 -1.60151,6.40607 -2.13535,8.54142 15.69971,-10.02161 31.44796,-20.04322 46.73516,-30.69573 19.04834,-15.86958 37.65991,-32.44285 58.52815,-45.93441 6.09062,-4.10085 8.3473,-11.52607 11.67166,-17.68948 6.23621,-11.96284 6.62446,-25.64853 8.85688,-38.65479 4.27071,-21.98445 4.36777,-44.47848 9.09952,-66.39014 1.74711,-23.61024 6.16341,-47.00208 6.3818,-70.70938 0.92209,-16.08796 4.80455,-32.46711 1.31033,-48.43375 -8.58995,-18.5145 -22.83374,-35.71867 -42.68284,-42.58578 -11.55033,-4.90161 -24.2654,-5.58104 -36.64076,-4.46483 19.60645,4.14938 41.17839,9.12379 54.57289,25.26028 7.52228,9.41498 3.78541,22.46976 -1.62578,31.90901 -7.06123,10.84663 -18.07772,21.06237 -31.76341,21.1109 -13.95261,0.5581 -30.74427,-3.76114 -36.76209,-17.81081 9.70616,-1.50445 21.57195,4.46484 29.40967,-3.59128 4.46484,-2.57213 1.60152,-8.29877 -0.92208,-11.28341 -8.05612,-8.44436 -19.07261,-14.29232 -30.72,-15.74825 -8.83261,-1.16474 -18.39318,-2.88758 -26.61915,1.69858 3.13024,4.34351 6.43033,8.58995 9.6819,12.86066 -4.80455,0.84929 -9.92455,1.52873 -14.41365,-0.89782 -11.86579,-5.33838 -24.50806,-12.39962 -29.6038,-25.11469 -5.7509,-16.25782 -5.82369,-36.78635 6.79432,-49.88967 15.2872,-18.90274 37.41725,-30.79279 60.00834,-38.72758 24.43526,-8.29877 49.06464,-16.33061 74.34919,-21.64474 z"
       id="path12"
       style="fill:#f5e5c1" />
    <path
       d="m 653.34597,629.46881 c 15.91811,-1.38312 29.94351,7.93479 42.34313,16.6946 21.0381,15.45706 33.04948,39.47981 43.45934,62.72607 3.42142,6.84284 3.17876,14.58351 2.20815,21.98445 -11.5018,-15.79677 -23.7073,-31.08398 -35.59735,-46.58957 -11.16208,-13.32171 -25.04189,-24.19261 -40.40189,-32.24872 -5.2656,-2.69346 -11.33195,-3.931 -17.20417,-3.39716 -7.25536,0.67943 -11.81726,7.0855 -16.98579,11.38048 -0.31545,-13.66142 11.91432,-23.53744 22.17858,-30.55015 z"
       id="path14"
       style="fill:#f5e5c1" />
    <path
       d="m 606.36815,684.67261 c 10.09441,-9.14806 24.45953,-3.73687 35.06351,1.50445 11.96284,5.31412 18.95128,16.96152 25.47867,27.66256 11.84152,21.1109 21.03811,43.6292 34.651,63.74521 -2.71773,2.0383 -5.43545,4.07659 -8.12891,6.13915 -10.45839,-15.50559 -20.6256,-31.20531 -29.65233,-47.58445 -5.6781,-10.11868 -10.67677,-20.98958 -19.24246,-29.04569 -10.91943,-10.19147 -24.58085,-16.64607 -38.16948,-22.42123 z"
       id="path16"
       style="fill:#f5e5c1" />
    <path
       d="m 107.35014,738.17782 c 26.18237,-35.03924 69.54465,-56.56265 113.3437,-55.85896 32.66123,-0.24265 64.95848,12.52095 89.29668,34.18996 58.9164,49.88966 62.84739,151.17345 7.49801,205.11545 -40.83867,39.26142 -105.06919,49.88966 -157.11848,28.41478 -15.23868,5.7509 -30.57441,11.35621 -45.83735,17.13138 0.84929,-16.01517 1.91697,-32.03034 2.96038,-48.02124 -23.877156,-26.10957 -39.21289,-60.8091 -38.970236,-96.5035 0.121327,-30.28323 10.992227,-60.12967 28.827296,-84.46787 z"
       id="path18"
       style="fill:#f5e5c1" />
    <path
       d="m 173.95867,719.76038 c 28.87583,-0.43678 57.75166,-0.43678 86.62749,-0.0243 0.48531,20.33441 0.14559,40.66882 0.21839,61.00323 20.23735,-0.0728 40.45043,-0.0971 60.68777,0 0.58237,28.77876 1.23754,57.67886 -0.21839,86.38483 -20.09175,1.55299 -40.30483,0.19412 -60.44511,0.60664 -0.21839,20.35867 0.43677,40.74161 -0.46105,61.10028 -27.66256,-0.0728 -55.32512,0.46104 -82.96341,-0.14559 -4.82881,0.36398 -3.1545,-6.18768 -3.73687,-9.07526 -0.0485,-17.30124 0.14559,-34.60247 0.0485,-51.87943 -20.16455,-0.43678 -40.4019,1.04341 -60.51792,-0.67944 -1.35886,-28.6817 -0.72796,-57.55753 -0.19412,-86.28777 20.26161,-0.14559 40.52322,-0.0728 60.76057,-0.0485 0.0485,-20.31014 -0.21839,-40.64455 0.19412,-60.95469 z"
       id="path20"
       style="fill:#f4722b" />
  </g>
</svg>
