<?xml version="1.0" encoding="UTF-8" standalone="no"?>
<svg
   xmlns:dc="http://purl.org/dc/elements/1.1/"
   xmlns:cc="http://creativecommons.org/ns#"
   xmlns:rdf="http://www.w3.org/1999/02/22-rdf-syntax-ns#"
   xmlns:svg="http://www.w3.org/2000/svg"
   xmlns="http://www.w3.org/2000/svg"
   xmlns:sodipodi="http://sodipodi.sourceforge.net/DTD/sodipodi-0.dtd"
   xmlns:inkscape="http://www.inkscape.org/namespaces/inkscape"
   width="1280"
   height="1280"
   viewBox="0 0 1024 1024"
   version="1.1"
   id="svg2"
   inkscape:version="0.48.1 "
   sodipodi:docname="heal_huge.svg">
  <metadata
     id="metadata68">
    <rdf:RDF>
      <cc:Work
         rdf:about="">
        <dc:format>image/svg+xml</dc:format>
        <dc:type
           rdf:resource="http://purl.org/dc/dcmitype/StillImage" />
      </cc:Work>
    </rdf:RDF>
  </metadata>
  <defs
     id="defs66" />
  <sodipodi:namedview
     pagecolor="#ffffff"
     bordercolor="#666666"
     borderopacity="1"
     objecttolerance="10"
     gridtolerance="10"
     guidetolerance="10"
     inkscape:pageopacity="0"
     inkscape:pageshadow="2"
     inkscape:window-width="1920"
     inkscape:window-height="1018"
     id="namedview64"
     showgrid="false"
     inkscape:zoom="0.6609375"
     inkscape:cx="466.00473"
     inkscape:cy="640"
     inkscape:window-x="-8"
     inkscape:window-y="-8"
     inkscape:window-maximized="1"
     inkscape:current-layer="layer2"
     inkscape:snap-page="true" />
  <g
     inkscape:groupmode="layer"
     id="layer2"
     inkscape:label="background">
    <rect
       style="fill:#3e3e3e;fill-opacity:1;fill-rule:nonzero;stroke:none"
       id="rect3036"
       width="1280"
       height="1280"
       x="0"
       y="0"
       transform="scale(0.8,0.8)" />
  </g>
  <g
     inkscape:groupmode="layer"
     id="layer1"
     inkscape:label="foreground">
    <path
       d="m 29.094218,29.14275 c 91.359242,0.21839 182.767012,-0.53384 274.126252,0.36398 35.69441,89.24815 72.72342,177.9382 108.75754,267.04076 3.20303,8.44436 8.66275,16.86445 6.74578,26.30369 -1.77137,10.3856 -3.0817,20.84399 -2.83905,31.39944 -0.19412,72.74767 -0.0243,145.49535 -0.0971,218.24303 0.0728,18.78142 -0.72796,37.7327 3.20303,56.22294 -21.47488,-32.51564 -43.19242,-64.86142 -64.76436,-97.32853 -3.80967,-4.97441 -3.44569,-11.40474 -3.88246,-17.3255 11.04075,-10.79811 15.09308,-31.37517 1.04341,-41.49384 -1.79564,-10.99223 -0.0243,-25.18749 -10.14294,-32.56417 -2.86332,-2.49934 -7.0127,-1.84417 -10.45839,-2.66919 -0.12133,-16.40342 0.99488,-32.90389 -1.84417,-49.13745 -0.29118,-62.19222 -0.19412,-124.40872 -0.43678,-186.62521 -0.24265,-9.05099 0.84929,-18.22332 -1.38312,-27.10445 2.54786,-13.03052 2.86331,-27.46844 -3.78541,-39.40702 -7.59507,-12.56948 -30.88985,-9.14805 -33.04948,5.99356 -0.53383,10.45839 -0.26692,21.06237 -3.22729,31.22957 -1.65005,10.07014 -8.20171,18.73289 -8.85688,28.97289 -0.12132,71.92266 0.29119,143.86957 -0.0971,215.79223 -8.95393,-13.27318 -17.64095,-26.76474 -26.74047,-39.94085 -2.54787,-4.0038 -5.92076,-8.05612 -5.55678,-13.10332 -0.16986,-40.93574 0.24265,-81.87147 -0.19412,-122.80721 8.15317,0.0728 17.90786,1.06768 23.99848,-5.53251 6.57593,-7.40095 6.4546,-18.97554 2.49934,-27.61403 -4.51337,-7.59507 -12.2055,-12.98199 -20.60133,-15.52985 2.71773,-11.86579 -4.73175,-24.58086 -17.59242,-24.79925 -0.12132,-5.21706 -0.19412,-10.43412 -0.26692,-15.62691 11.91432,-0.0971 24.02275,1.28606 35.81574,-0.92209 13.37024,-7.37668 8.51715,-24.77498 8.22597,-37.22313 -8.32303,-9.05099 -19.67924,-16.96151 -32.53991,-16.01516 -29.99203,0.12132 -59.98407,-0.16986 -89.95184,0.14559 -8.20171,-0.29119 -15.06882,4.92588 -21.8874,8.73554 -8.71128,6.06635 -5.77516,17.85934 -6.06635,26.8618 -0.53384,8.66275 7.35242,16.01517 15.65119,16.7674 10.38559,1.60151 20.91677,0.65516 31.37516,0.70369 -0.16985,4.78029 -0.50957,9.53631 -1.11621,14.26806 -5.84796,0.72796 -12.56947,0.97062 -16.64606,5.89649 -5.8237,5.94503 -4.58616,14.89896 -4.82882,22.46977 -6.01782,1.60151 -11.30767,4.92587 -15.89384,9.09952 C 100.77414,151.46464 66.802574,99.36682 32.103048,47.75431 27.759541,42.48872 29.336792,35.40322 29.094138,29.14275 z"
       id="path6"
       style="fill:#f4722b" />
    <path
       d="m 532.81972,29.11848 c 70.92777,0.21839 141.83128,-0.46104 212.73478,0.33972 -1.04341,20.52853 1.94123,41.44531 -1.62578,61.70692 -48.31242,-11.25915 -99.2455,-4.4891 -145.83507,11.18635 -16.35488,5.48398 -31.54502,13.68569 -46.80796,21.62047 -6.55166,-31.54502 -12.01138,-63.30843 -18.46597,-94.85346 z"
       id="path8"
       style="fill:#f4722b" />
    <path
       d="m 928.41858,203.90218 c 12.03564,-58.30976 24.07128,-116.61953 36.49516,-174.83223 8.37157,0.0485 16.74313,0.0485 25.1147,0.0485 0.0243,165.02901 -0.0485,330.03375 0.0243,495.03849 0.24266,5.43545 -1.48019,10.65251 -3.68834,15.52985 -5.58104,12.59375 -10.40986,25.52721 -16.50047,37.8783 0.21838,-50.13232 0.0485,-100.26465 0.0971,-150.39697 -0.33972,-29.99204 0.80076,-60.05687 -0.87356,-90.02464 -5.19279,-41.61517 -17.01004,-83.13327 -39.77099,-118.68209 -3.05744,-4.34351 -1.72285,-9.75469 -0.89782,-14.55924 z"
       id="path10"
       style="fill:#f4722b" />
    <path
       style="fill:#f5e5c1"
       d="M 866.84375 134 C 852.42293 133.95959 837.99742 134.87612 823.71875 136.6875 C 753.25808 145.5747 686.44259 179.4489 637.0625 230.40625 C 576.73264 291.64606 542.65062 378.10415 546.59375 464.125 C 546.68475 557.09182 546.50551 650.06534 546.6875 743.0625 C 547.50646 869.97055 634.50577 989.86641 753.40625 1032.9375 C 855.86691 1073.0664 978.00581 1053.5204 1063.875 985.03125 C 1122.0513 939.3213 1163.8598 872.99105 1178.8438 800.4375 C 1188.0646 760.76356 1185.5717 719.80906 1185.875 679.4375 C 1185.8446 603.66879 1185.9348 527.8928 1185.8438 452.09375 C 1185.7528 412.99613 1178.0776 374.01942 1164.125 337.5 C 1136.5838 266.52369 1082.7979 206.02767 1015.2188 170.8125 C 969.8633 146.21535 918.34668 134.14433 866.84375 134 z M 856.5 302.03125 C 869.8295 302.11326 883.15261 303.84899 896 307.3125 C 951.29479 321.47743 996.46566 368.94509 1007.7188 424.9375 C 1012.8145 445.50244 1010.022 466.8211 1010.75 487.75 C 1034.7424 487.96233 1058.8182 486.81795 1082.75 489.0625 C 1099.6751 493.27861 1110.6213 510.79362 1110.5 527.71875 C 1110.5304 572.24576 1110.5304 616.78549 1110.5 661.3125 C 1111.2583 678.08596 1098.4664 692.51268 1083.9375 699.125 C 1073.8067 704.00841 1062.9644 698.38051 1052.5 698.5625 C 1038.5777 698.4715 1024.6732 698.683 1010.7812 698.53125 C 1010.5386 712.48386 1011.0184 726.45364 1010.5938 740.40625 C 1006.681 785.38825 981.87331 827.9625 944.65625 853.5625 C 917.23634 873.27814 883.0414 883.28866 849.3125 881.46875 C 785.00917 880.74079 725.78454 833.83815 707.3125 772.75 C 699.24425 748.81825 699.8511 723.40329 700.09375 698.53125 C 681.07575 698.50087 662.08143 698.7739 643.09375 698.53125 C 632.47764 698.50087 621.95427 694.15554 614.25 686.90625 C 607.15238 679.20199 605.93566 668.16572 605.875 658.15625 C 605.875 615.69179 605.93475 573.21445 605.84375 530.75 C 606.02574 521.13484 606.0173 510.6574 611.75 502.4375 C 619.12061 492.97399 631.17521 487.50735 643.15625 487.75 C 662.14393 487.56801 681.13732 487.78037 700.125 487.75 C 700.24637 473.73674 699.94389 459.76328 700.15625 445.75 C 703.09844 401.85995 726.06791 359.89137 761.34375 333.59375 C 788.24611 312.53403 822.43572 301.82167 856.5 302.03125 z "
       id="path12"
       transform="scale(0.8,0.8)" />
    <path
       d="m 144.59754,120.9145 c 4.82881,-2.62066 9.58483,-6.33327 15.38426,-5.82369 28.43905,-0.0485 56.87811,0 85.31716,-0.0243 6.06635,-0.43678 11.30768,3.20303 15.67545,6.96417 0.41251,4.24645 0.12132,8.51716 0.0243,12.7636 -31.18104,-0.31545 -62.33782,-0.38824 -93.51886,-0.60663 -7.74066,-0.24266 -15.67545,0.94635 -23.17346,-1.50446 0.12133,-3.93099 0.21839,-7.86199 0.29119,-11.76872 z"
       id="path14"
       style="fill:#f5e5c1" />
    <path
       d="m 192.27905,144.50047 c 7.61934,0.12133 15.23868,0.1456 22.85801,0.0485 0.0485,11.04076 0.0728,22.05726 -0.0971,33.07375 6.23621,3.39716 12.69081,6.43033 19.50938,8.56569 -1.62578,7.86199 -2.88758,15.79677 -3.25156,23.80436 6.35754,-0.0485 12.71507,-0.0485 19.07261,-0.0728 4.07658,3.83393 9.22085,7.78919 7.88625,14.171 -38.09668,0.26691 -76.19336,0.16985 -114.29004,0.0728 -1.31034,-8.00758 7.10976,-11.79298 13.3217,-14.00114 4.75602,-0.4853 9.56057,-0.21838 14.34085,-0.14559 -0.38824,-8.61422 -1.55298,-17.1799 -2.98464,-25.67279 8.92967,-1.89271 17.49536,-6.81858 23.44038,-13.68569 0.5581,-8.68702 -0.14559,-17.44683 0.19412,-26.15811 z"
       id="path16"
       style="fill:#f5e5c1" />
    <path
       d="m 295.74673,201.13592 c 6.67299,-16.42767 11.55033,-33.60758 12.52095,-51.44265 3.68834,30.0163 -0.33972,60.49365 2.66919,90.53422 0.80076,69.27772 0.50958,138.57971 1.50446,207.85744 -5.24133,0.0485 -10.45839,0.0485 -15.69972,-0.0243 -0.0971,-53.06843 -0.0728,-106.1126 0,-159.18104 -1.8199,-29.19128 -1.62578,-58.52815 -0.99488,-87.7437 z"
       id="path18"
       style="fill:#f5e5c1" />
    <path
       style="fill:#f5e5c1"
       d="M 248.59375 292.5625 C 236.76437 292.56629 224.95438 292.64842 213.125 292.90625 C 213.00375 374.95364 213.12312 457.0151 213.0625 539.0625 C 237.38856 538.51653 261.70519 539.50095 286.03125 538.5 C 284.363 514.75024 287.03315 490.96944 285.03125 467.25 C 285.72887 455.08696 286.04875 442.9452 284.5625 430.8125 C 287.11036 407.6087 283.6498 384.2957 284.46875 361.03125 C 283.4678 338.2521 288.61319 315.31682 284.09375 292.75 C 272.26437 292.62867 260.42313 292.55871 248.59375 292.5625 z M 240.875 299.4375 C 247.91198 299.49813 254.9952 299.53213 262.0625 299.5625 C 262.1535 358.01179 261.94475 416.45696 262.1875 474.90625 C 254.99887 474.96688 247.81454 475.00087 240.65625 475.03125 C 240.8079 416.49097 240.42003 357.97778 240.875 299.4375 z "
       id="path20"
       transform="scale(0.8,0.8)" />
    <path
       d="m 618.98616,303.05062 c -0.41251,-5.09574 4.29498,-9.43925 9.29365,-9.09953 34.82085,-0.38825 69.64171,-0.0485 104.43829,-0.16986 5.65384,-0.24265 11.23489,0.80076 16.52474,2.6692 1.31034,37.46578 0.50958,75.02862 0.48531,112.51867 36.4709,0.29118 72.96607,-0.12133 109.43697,0.19412 4.46483,-0.43677 9.22085,3.42142 8.73554,8.10465 0.1456,37.24739 -0.0243,74.54331 0.0485,111.81497 0.43678,5.02294 -2.91184,11.59887 -8.66274,11.11356 -36.49517,-0.0243 -72.99034,-0.0728 -109.4855,0.0243 0.50957,32.6127 -0.87356,65.2254 -0.24266,97.8381 -0.41251,5.36266 0.89782,13.92834 -5.65384,15.96664 -38.70331,-0.89782 -77.52796,-0.6309 -116.25554,-0.24266 -4.07659,-3.42142 -9.6819,-6.86711 -8.61422,-13.07905 -0.0971,-33.48626 -0.70369,-66.97251 -0.21839,-100.45877 -34.02009,-0.12132 -68.04019,-0.0728 -102.06028,-0.16986 -4.58616,0.29119 -8.78408,-1.52872 -12.88493,-3.30009 -0.46104,-41.29972 -0.53384,-82.6237 0.0485,-123.92342 1.35886,-0.92208 4.07659,-2.79052 5.43545,-3.7126 36.4709,-0.0971 72.9418,-0.0243 109.4127,-0.0485 0.24266,-35.33043 -0.0971,-70.68512 0.21839,-106.03981 z"
       id="path26"
       style="fill:#f4722b" />
    <path
       d="m 29.19128,394.11867 c 46.322654,46.37119 92.74237,92.64531 139.13782,138.9437 2.18389,2.30521 4.63469,4.95014 4.39204,8.39583 2.25668,47.60872 0.84929,95.3145 1.40739,142.97175 0.31545,17.81081 -0.80076,35.69441 1.04341,53.45669 -2.91185,-1.3346 -5.82369,-2.6692 -8.54142,-4.41631 -45.71602,-30.98692 -91.771752,-61.44 -137.560567,-92.32986 0.169857,-82.33251 -0.0728,-164.68929 0.121327,-247.0218 z"
       id="path28"
       style="fill:#f4722b" />
    <path
       d="m 160.63697,462.45005 c 0.0728,-8.73555 5.99355,-15.33574 11.18635,-21.69327 18.10199,0.41251 36.22824,-0.31545 54.30597,0.31545 4.56189,1.8927 6.84284,7.40095 10.91943,10.31279 0,4.24645 -0.14559,8.51716 -0.38825,12.76361 -17.42256,-0.36399 -34.84511,0.31545 -52.26767,-0.43678 -7.93479,-0.29119 -16.08797,1.67431 -23.75583,-1.2618 z"
       id="path30"
       style="fill:#f5e5c1" />
    <path
       d="m 275.8491,455.36455 c 18.46597,-0.14559 36.93194,0.24265 55.39791,-0.21839 1.98977,7.91052 2.52361,16.0637 3.27583,24.16834 -20.04322,-0.16986 -40.08644,0.0728 -60.12966,-0.12132 0.82502,-7.93479 1.21327,-15.86958 1.45592,-23.82863 z"
       id="path32"
       style="fill:#f5e5c1" />
    <path
       d="m 167.96512,472.03488 c 20.55279,0.12133 41.08133,-0.0243 61.63412,0.0971 -1.74711,7.88626 -2.66919,15.86958 -2.71772,23.92569 -18.56304,-0.0971 -37.1018,-0.0728 -55.66484,0 -0.33971,-8.10464 -1.8199,-16.0637 -3.25156,-24.02275 z"
       id="path34"
       style="fill:#f5e5c1" />
    <path
       d="m 265.65763,488.41403 c 25.33308,-0.0728 50.69043,-0.0243 76.02351,-0.0485 1.11621,8.68701 -4.82882,15.2144 -9.36645,21.86313 -18.80569,0.6309 -37.63564,-0.0485 -56.44133,0.38824 -2.98464,-3.95526 -6.2362,-7.69213 -10.14293,-10.77384 -0.0728,-3.80967 -0.0728,-7.6436 -0.0728,-11.429 z"
       id="path36"
       style="fill:#f5e5c1" />
    <path
       d="m 190.28929,503.36152 c 5.62957,-0.19413 11.23488,-0.1456 16.84019,0.29118 -0.12133,80.41555 -0.14559,160.80683 0.33971,241.22237 0.65517,7.81346 -3.85819,14.55924 -6.21194,21.71754 -3.61554,11.25914 -5.55678,22.95507 -7.23109,34.65099 -1.62578,-11.429 -0.97061,-22.97933 -0.89782,-34.45687 -0.60663,-53.31109 -0.72796,-106.64645 -1.01915,-159.93327 -2.13535,-34.40834 -0.77649,-69.01081 -1.8199,-103.49194 z"
       id="path38"
       style="fill:#f5e5c1" />
    <path
       style="fill:#f5e5c1"
       d="M 343.90625 650.15625 C 343.93662 732.17331 343.9375 814.20261 343.9375 896.25 C 368.14224 896.85664 392.38901 896.9127 416.59375 896.09375 C 416.533 814.19801 416.44392 732.30199 416.65625 650.40625 C 392.39085 650.0726 368.17165 650.45956 343.90625 650.15625 z M 377.6875 714.25 C 381.49413 714.24621 385.28711 714.31709 389.09375 714.46875 C 389.2454 772.15975 388.40897 829.8715 389.53125 887.5625 C 382.85826 890.38335 375.47263 889.76103 368.375 890.125 C 365.15983 881.93543 366.4954 873.08481 366.34375 864.53125 C 366.64706 847.27249 365.72422 829.97753 366.9375 812.71875 C 365.6029 780.02113 366.8263 747.22705 366.25 714.46875 C 370.05664 714.33226 373.88087 714.25379 377.6875 714.25 z "
       id="path40"
       transform="scale(0.8,0.8)" />
    <path
       d="m 224.5763,589.30957 c 11.16209,11.40474 23.12493,22.05725 33.51052,34.21422 -0.0243,28.8273 -0.26691,57.67886 0.1456,86.53043 -9.94882,-0.21839 -23.44038,-0.6309 -28.1236,10.24 -1.84418,7.10976 -2.23242,15.14161 0.29118,22.15431 4.78028,7.40095 11.93858,14.43792 20.96531,15.96664 0.0971,6.11488 -0.72796,13.00625 3.51848,18.07772 3.54275,5.1928 10.19147,6.18768 15.45706,8.88114 -0.16985,5.0472 -0.5581,10.14294 -2.03829,15.02028 -17.13138,-9.77895 -33.60758,-20.94104 -49.35583,-32.80682 3.20303,-5.38692 6.26047,-11.18635 5.70237,-17.66522 0,-53.52947 -0.16986,-107.08322 -0.0728,-160.6127 z"
       id="path44"
       style="fill:#f4722b" />
    <path
       d="m 247.91962,736.96455 c -3.10597,-2.42654 -1.8199,-6.55166 -2.11109,-9.87602 37.58711,0.0728 75.17422,0 112.76133,0.0243 1.57725,7.5708 -5.48398,12.0599 -11.79299,13.9526 -5.26559,0.7037 -10.57971,0.31545 -15.86957,0.31545 1.16474,8.51716 2.71772,17.01005 3.0817,25.62427 -8.37156,2.13535 -16.16075,6.72152 -22.25137,12.78787 -0.67943,8.97819 0.0243,17.98066 -0.19412,26.98312 -7.98332,-0.0243 -15.96664,-0.0485 -23.94996,-0.0485 0.0728,-11.06502 0,-22.13004 0.16986,-33.19507 -5.92076,-3.13024 -12.08417,-5.7509 -18.36891,-8.05611 0.92209,-8.05612 1.52872,-16.11223 1.94123,-24.19261 -7.83772,-0.43678 -17.64094,2.71773 -23.41611,-4.31924 z"
       id="path46"
       style="fill:#f5e5c1" />
    <path
       d="m 350.95052,758.63355 c 9.34218,-3.95526 18.39318,-9.51203 23.46465,-18.63582 2.18388,1.62578 4.36777,3.22729 6.35753,5.09573 81.70161,81.67735 163.50029,163.23336 245.22616,244.86218 -22.59109,0.19412 -45.20644,-0.0485 -67.79753,0.14559 -3.56702,-0.21839 -7.49801,0.41251 -10.65251,-1.65005 -67.57915,-44.81819 -134.57593,-90.58274 -202.30067,-135.18255 10.38559,0.33971 20.64986,-4.70749 27.90521,-11.91432 3.97953,-7.81346 2.35375,-17.37403 2.15963,-25.91545 0.21838,-6.04208 -4.58617,-11.06502 -9.87602,-13.12758 -11.96285,-3.46995 -24.55659,-2.06256 -36.81062,-2.15962 0.0485,-4.22218 0.0971,-8.44436 0.12133,-12.64228 6.309,-2.30521 14.12246,-2.47507 18.4417,-8.32303 5.58105,-5.31412 3.3001,-13.73422 3.76114,-20.5528 z"
       id="path48"
       style="fill:#f4722b" />
    <path
       d="m 838.39393,989.76152 c 50.76323,-74.81024 101.211,-149.83887 151.61024,-224.89176 0,36.34958 0.0728,72.69915 0,109.07299 0.43678,3.20303 -2.45081,5.24133 -4.24644,7.42521 -36.08266,36.00986 -71.77707,72.43223 -107.73839,108.56341 -13.22465,0.12133 -26.42503,0.29119 -39.62541,-0.16985 z"
       id="path50"
       style="fill:#f4722b" />
    <path
       d="m 795.73536,844.38749 c 32.15165,-12.54522 61.3672,-32.0546 86.74881,-55.32512 -27.73535,67.04531 -55.6163,134.04208 -83.57005,200.99033 -11.16208,-0.0485 -22.32417,-0.0485 -33.48625,-0.0243 9.94881,-48.57934 20.31014,-97.06162 30.30749,-145.64095 z"
       id="path52"
       style="fill:#f4722b" />
    <path
       d="m 241.73194,816.65213 c 30.25896,0.12133 60.49365,0.33972 90.75261,0.50958 8.58995,0.0971 17.2527,-0.53384 25.76986,1.01914 -0.0243,4.14939 0,8.29877 0.0485,12.47242 -4.29498,2.32948 -8.49289,5.77517 -13.68569,5.53251 -29.16701,0.16986 -58.35829,0.0485 -87.52531,0.0728 -5.94502,0.36398 -10.60398,-3.8582 -15.48132,-6.47886 0.0243,-4.39204 0.0728,-8.75981 0.12132,-13.12759 z"
       id="path54"
       style="fill:#f5e5c1" />
    <path
       d="m 29.579526,820.94711 c 77.455164,33.34066 155.614024,65.10407 233.311844,97.88663 14.29233,6.18768 29.14275,11.21062 42.94977,18.46598 1.35886,0.21838 4.05232,0.70369 5.41118,0.92208 13.56436,7.10976 27.97801,12.95773 42.51299,17.73801 1.06768,0.89782 3.1545,2.71773 4.22218,3.63981 1.57725,0.0971 4.78028,0.26692 6.35753,0.36398 1.21327,1.01915 3.59128,3.00891 4.80455,4.02806 1.38313,0.24265 4.12512,0.7037 5.50825,0.94635 13.90408,6.3818 28.02654,12.98199 42.65858,17.61668 0.94635,0.84929 2.83905,2.54787 3.7854,3.42142 4.12512,0.58237 8.25024,1.21327 12.37536,1.9655 -3.66408,1.01915 -7.40095,2.08683 -11.25915,2.08683 -93.83431,0 -187.69289,0 -281.5272,0 -17.08285,-0.65517 -34.62673,1.74711 -51.345597,-2.79053 -19.970426,-3.00891 -39.407014,-9.12379 -59.571564,-10.91943 -1.480189,-32.58843 -0.266919,-65.27393 -0.655166,-97.9109 0.218389,-19.1454 -0.485308,-38.31507 0.461043,-57.46047 z"
       id="path56"
       style="fill:#f4722b" />
    <path
       d="m 550.38787,824.44133 c 26.52208,17.22843 56.92663,27.44417 87.74369,33.82597 3.68835,0.26692 5.14427,3.97952 6.4546,6.89137 16.96152,41.61517 33.85024,83.27887 51.03014,124.82124 -11.91431,0.0971 -23.80436,0 -35.6944,0.12132 -34.5782,-50.5691 -67.87034,-102.03602 -102.15735,-152.79924 -2.81479,-4.07659 -5.24133,-8.42009 -7.37668,-12.86066 z"
       id="path58"
       style="fill:#f4722b" />
    <path
       d="m 694.40303,864.91602 c 17.03432,-2.11109 34.18996,-2.54787 51.15147,-5.24133 -0.0728,43.33801 -0.0728,86.67602 0,130.01403 -9.00246,0.43678 -18.02919,0.43678 -27.05592,0.26692 -8.29877,-41.61517 -16.03943,-83.35166 -24.09555,-125.03962 z"
       id="path60"
       style="fill:#f4722b" />
    <path
       d="m 949.55374,989.93137 c 13.37024,-9.02673 26.81327,-17.95639 40.37763,-26.69194 0.12133,8.92967 0.12133,17.85934 0.0971,26.78901 -13.49157,-0.0243 -26.98313,0.0971 -40.4747,-0.0971 z"
       id="path62"
       style="fill:#f4722b" />
  </g>
</svg>
