<?xml version="1.0" encoding="UTF-8" standalone="no"?>
<svg
   xmlns:dc="http://purl.org/dc/elements/1.1/"
   xmlns:cc="http://creativecommons.org/ns#"
   xmlns:rdf="http://www.w3.org/1999/02/22-rdf-syntax-ns#"
   xmlns:svg="http://www.w3.org/2000/svg"
   xmlns="http://www.w3.org/2000/svg"
   xmlns:sodipodi="http://sodipodi.sourceforge.net/DTD/sodipodi-0.dtd"
   xmlns:inkscape="http://www.inkscape.org/namespaces/inkscape"
   width="1280"
   height="1280"
   viewBox="0 0 1024 1024"
   version="1.1"
   id="svg2"
   inkscape:version="0.48.1 "
   sodipodi:docname="heal_large.svg">
  <metadata
     id="metadata90">
    <rdf:RDF>
      <cc:Work
         rdf:about="">
        <dc:format>image/svg+xml</dc:format>
        <dc:type
           rdf:resource="http://purl.org/dc/dcmitype/StillImage" />
      </cc:Work>
    </rdf:RDF>
  </metadata>
  <defs
     id="defs88">
    <inkscape:perspective
       sodipodi:type="inkscape:persp3d"
       inkscape:vp_x="0 : 640 : 1"
       inkscape:vp_y="0 : 1000 : 0"
       inkscape:vp_z="1280 : 640 : 1"
       inkscape:persp3d-origin="640 : 426.66667 : 1"
       id="perspective37" />
  </defs>
  <sodipodi:namedview
     pagecolor="#ffffff"
     bordercolor="#666666"
     borderopacity="1"
     objecttolerance="10"
     gridtolerance="10"
     guidetolerance="10"
     inkscape:pageopacity="0"
     inkscape:pageshadow="2"
     inkscape:window-width="1920"
     inkscape:window-height="1018"
     id="namedview86"
     showgrid="false"
     inkscape:zoom="0.44739336"
     inkscape:cx="550.64541"
     inkscape:cy="775.63319"
     inkscape:window-x="-8"
     inkscape:window-y="-8"
     inkscape:window-maximized="1"
     inkscape:current-layer="layer2"
     inkscape:snap-page="true" />
  <g
     inkscape:groupmode="layer"
     id="layer2"
     inkscape:label="background">
    <rect
       style="fill:#3e3e3e;fill-opacity:1;fill-rule:nonzero;stroke:none"
       id="rect3051"
       width="1280"
       height="1280"
       x="0"
       y="0"
       transform="scale(0.8,0.8)" />
  </g>
  <g
     inkscape:groupmode="layer"
     id="layer1"
     inkscape:label="foreground">
    <path
       d="m 36.228246,33.97156 c 90.752604,0 181.505214,0 272.257824,0 15.86957,39.94086 32.95241,79.3964 48.40948,119.50711 -8.46863,0 -16.96152,0.0243 -25.45441,0.12133 -0.55811,-6.77005 0.0243,-14.26806 -4.19792,-20.06749 -5.99355,-9.07526 -18.61156,-12.35109 -28.60891,-8.63848 -9.97308,3.46995 -16.20929,12.71507 -21.81459,21.1109 -11.98711,0.6309 -21.66901,8.83261 -25.1147,20.16455 -3.63981,0.16986 -7.25535,0.33971 -10.89516,0.50957 -0.29119,-13.07905 2.42654,-27.37137 -4.05232,-39.38275 -5.94503,-9.51203 -18.56304,-8.05611 -28.1964,-7.74066 -11.6474,-0.16986 -18.70863,10.60398 -23.05214,19.97043 -5.94502,11.62312 -4.44056,24.94483 -4.51336,37.53857 0.21839,21.03811 -0.24265,42.07621 0.0728,63.09005 -0.36399,11.86578 11.04075,22.59109 4.3435,34.26275 C 138.8709,205.55223 93.276209,136.03185 46.953555,67.02104 43.483602,61.73118 39.358483,56.70825 37.029005,50.78749 35.985592,45.23071 36.349573,39.57687 36.228246,33.97156 z"
       id="path6"
       style="fill:#f4722b" />
    <path
       d="m 539.00739,33.97156 c 70.75792,0.0243 141.51583,-0.0728 212.24948,0.0485 -0.14559,47.19621 0.16986,94.39242 -0.16986,141.56436 -49.01611,-0.0485 -98.00796,-0.0243 -147.02407,0 -2.0383,-5.79943 -2.83905,-13.00625 -8.56569,-16.50047 -7.44948,-5.6781 -17.10711,-5.65384 -26.03678,-5.6781 -4.44056,-4.22218 -9.94881,-8.3473 -10.53118,-14.97176 -6.52739,-34.84512 -13.12758,-69.66597 -19.9219,-104.46256 z"
       id="path8"
       style="fill:#f4722b" />
    <path
       d="m 971.36834,34.62673 c 6.16341,-0.94635 12.42389,-0.7037 18.6601,-0.80076 0.0485,169.85782 -0.0971,339.71564 0.0728,509.57346 -0.0243,4.99867 -0.53384,10.07014 -2.49933,14.7291 -59.81423,143.11735 -118.77916,286.59867 -178.88456,429.59469 -11.72019,-0.14559 -23.44038,-0.12132 -35.16057,-0.21839 41.68796,-199.65573 82.69649,-399.48132 124.38445,-599.16132 2.15962,-8.68702 9.07526,-15.06882 12.32683,-23.27052 4.68322,-14.46218 3.83393,-29.87072 3.66407,-44.84247 -0.24265,-14.77763 4.34351,-28.99716 7.0855,-43.36227 16.67033,-80.75526 33.19507,-161.58332 50.35071,-242.24152 z"
       id="path10"
       style="fill:#f4722b" />
    <path
       d="m 200.84474,159.88474 c -0.50957,-7.57081 3.73687,-14.07393 7.40095,-20.28588 4.4163,0.16986 8.8326,0.33972 13.24891,0.48531 0.0243,38.89744 -1.98977,77.74635 -1.48019,116.66806 -4.70749,-0.0971 -9.39071,-0.19413 -14.07394,-0.36398 -2.74199,-6.69725 -5.28985,-13.66143 -5.09573,-21.01384 0.0243,-25.16323 0,-50.32645 0,-75.48967 z"
       id="path12"
       style="fill:#f5e5c1" />
    <path
       d="m 301.32777,146.02919 c 2.42654,-2.69346 6.57593,-1.77137 9.80323,-2.54786 -0.21839,27.39564 0.53383,54.79128 0.0485,82.21118 -0.19413,11.45327 0.94635,23.10067 -2.20816,34.28702 -4.4891,-3.80967 -9.68189,-7.59508 -11.40473,-13.51583 -1.11621,-5.55678 -0.63091,-11.30768 -0.80076,-16.93725 -8.29877,1.55298 -16.71887,2.28094 -25.1147,2.98464 -3.1545,-8.12891 -7.74066,-15.60265 -12.7636,-22.68815 -9.17232,0.0728 -18.34464,0.0971 -27.51696,0.12133 0.0485,-8.03185 0.0485,-16.03944 0.0485,-24.04702 11.21061,0.0728 22.39696,0.0485 33.58331,0.12133 2.5964,-5.94503 5.09574,-11.91431 7.23109,-18.0292 8.22598,0.43678 16.42768,1.16474 24.65365,1.67432 0.80076,-7.81346 -2.76625,-17.93214 4.44057,-23.63451 z"
       id="path14"
       style="fill:#f5e5c1" />
    <path
       d="m 528.37915,174.7109 c 3.83393,-3.51848 7.6436,-7.0855 11.30767,-10.7981 3.931,0.0243 7.862,0.0971 11.81726,0.14559 0.0971,24.82351 -0.0971,49.64701 0.14559,74.47052 -1.48019,0.75223 -4.41631,2.28095 -5.87223,3.03318 -5.8237,-3.8582 -13.90408,-6.33327 -17.08284,-12.88493 -0.87356,-17.98067 -0.0243,-35.9856 -0.31545,-53.96626 z"
       id="path16"
       style="fill:#f5e5c1" />
    <path
       style="fill:#f5e5c1"
       d="M 648.34375 216.6875 C 566.14469 216.83912 483.9178 216.75 401.71875 216.75 C 401.02116 241.0154 401.14336 265.29801 401.75 289.59375 C 483.94905 289.53313 566.14561 289.53313 648.375 289.59375 C 648.19296 265.29801 648.25275 240.98324 648.34375 216.6875 z M 584.28125 240.375 C 584.19025 247.56363 584.12316 254.71762 584.0625 261.90625 C 525.52221 261.84563 466.97779 261.81612 408.4375 261.9375 C 408.37688 254.7792 408.31061 247.62705 408.25 240.46875 C 466.91161 240.28676 525.61965 240.49638 584.28125 240.375 z "
       id="path2868"
       transform="scale(0.8,0.8)" />
    <path
       style="fill:#f5e5c1"
       d="M 355.625 373.75 C 355.83729 388.33957 355.81162 402.9426 355.78125 417.5625 C 408.25518 416.71321 460.77606 417.9798 513.25 417.3125 C 511.36944 403.96654 511.74913 390.4673 511.71875 377 C 459.6998 375.21042 407.64395 374.96328 355.625 373.75 z M 365.40625 382.875 C 398.01289 383.48164 430.57995 384.2886 463.15625 384.53125 C 463.36858 389.20234 463.56892 393.89232 463.78125 398.59375 C 431.11395 398.01745 398.44855 397.85018 365.78125 398.0625 C 365.65987 392.99709 365.52757 387.9404 365.40625 382.875 z "
       id="path2864"
       transform="scale(0.8,0.8)" />
    <path
       d="m 559.65725,172.76967 c 7.95905,0.6309 15.91811,1.06768 23.90142,1.3346 0.0728,18.95128 0.0728,37.87829 0,56.82957 -8.03185,0.38825 -16.06369,1.01915 -23.92568,2.79052 0.0971,-20.33441 0.0485,-40.64455 0.0243,-60.95469 z"
       id="path20"
       style="fill:#f5e5c1" />
    <path
       d="m 590.95962,195.1181 c 80.48834,-0.31545 160.97668,0.0971 241.46502,-0.53383 11.13782,-0.89782 20.6256,5.84796 31.15678,8.12891 9.02673,2.4508 18.39318,2.88758 27.66256,3.73687 -18.70862,3.10597 -37.68417,0.41251 -56.46559,2.62066 -81.31337,0.87356 -162.62673,0.67943 -243.9401,1.77138 0,-5.24133 0.0243,-10.48266 0.12133,-15.72399 z"
       id="path24"
       style="fill:#f5e5c1" />
    <path
       d="m 603.96588,231.07943 c 49.08891,0.12133 98.15355,-1.57725 147.24246,-1.94123 0.0243,15.19014 0.0971,30.38028 -0.0728,45.57043 -18.41745,1.98976 -35.88854,14.48644 -54.76702,9.43924 -16.59753,-8.4201 -19.41232,-31.01119 -35.23336,-40.35337 -10.99223,-6.26047 -22.25138,1.8927 -31.08399,8.08038 -8.15317,5.14427 -14.12246,14.87469 -12.56947,24.72645 1.28606,8.95393 4.95014,17.32549 8.00758,25.76985 -11.30768,-5.48398 -23.82863,-4.99867 -36.03412,-5.02293 -2.37801,-15.23868 -5.45972,-30.35602 -8.46863,-45.47337 5.65384,-1.65005 11.93858,-2.42654 16.57327,-6.3818 3.66408,-3.93099 4.53763,-9.5363 6.40607,-14.41365 z"
       id="path26"
       style="fill:#f4722b" />
    <path
       d="m 240.76133,230.59412 c 2.18388,0.16986 6.57592,0.53384 8.78407,0.7037 2.69346,5.77517 4.70749,12.32682 9.80323,16.52474 5.07146,4.58616 12.27829,4.78028 18.66009,5.96929 1.57725,1.45592 3.17877,2.88758 4.78028,4.31924 -5.33838,-0.19412 -10.77383,-0.75223 -16.03943,0.38825 -7.66786,4.82881 -12.37535,13.54009 -21.25649,16.64606 -5.14426,1.55299 -7.86199,5.87223 -9.31791,10.82237 0.41251,-7.23109 -0.0971,-14.6563 2.06256,-21.669 3.37289,-10.91943 2.57213,-22.4455 2.5236,-33.70465 z"
       id="path28"
       style="fill:#f4722b" />
    <path
       d="m 331.68379,251.04986 c 21.71754,0.21839 43.43507,0.16986 65.17687,0.0243 4.70749,10.26427 8.92967,20.74692 12.8364,31.32664 -37.53858,-0.82503 -75.05289,-3.03318 -112.61573,-2.25668 l -0.29119,-4.73176 c 9.29365,0.33972 20.21308,2.37801 27.95375,-4.27071 5.6781,-4.97441 5.99355,-13.15185 6.9399,-20.09175 z"
       id="path30"
       style="fill:#f4722b" />
    <path
       style="fill:#f5e5c1"
       d="M 815.96875 325.34375 C 809.14411 329.77219 802.42849 334.43 795.9375 339.34375 C 797.30243 352.17407 802.1341 364.18623 805.53125 376.53125 C 808.32178 392.72841 805.6345 411.42704 793.5625 423.46875 C 783.24971 435.54079 766.50409 437.83166 752.1875 442.59375 C 746.8491 455.1511 738.64351 466.35992 734.09375 479.28125 C 778.95441 506.97414 825.49503 531.97716 870.75 559.09375 C 873.44954 555.57526 876.20764 552.04973 878.9375 548.53125 C 874.47873 535.67058 863.88045 523.81568 866.125 509.46875 C 869.64348 497.12373 879.8186 487.47625 891.375 482.5625 C 909.63471 479.22601 928.55279 479.51001 946.8125 482.9375 C 972.04851 484.02945 996.98181 487.85474 1022.1875 489.25 C 1038.9609 492.34384 1056.1521 490.89626 1072.5312 486.4375 C 1090.3057 479.43086 1102.7056 463.95264 1113.625 448.96875 C 1117.4468 436.13842 1119.3263 422.81381 1118.75 409.4375 C 1119.7509 389.63086 1107.7706 371.82206 1094 358.71875 C 1077.8332 346.9197 1057.6265 337.03114 1037.0312 341.15625 C 990.62372 354.10791 944.15024 367.05571 897.5 379.21875 C 882.00047 383.88984 863.88365 381.30359 850.75 371.71875 C 836.09976 358.79743 826.88819 341.26793 815.96875 325.34375 z M 1053.3125 370.375 C 1069.5315 370.7333 1086.7901 377.28345 1093.5312 392.96875 C 1109.2734 420.9043 1089.3584 459.04301 1058.875 465.625 C 1034.3063 473.99656 1007.8932 471.18851 982.6875 468.125 C 959.45338 466.51743 933.25879 466.99221 914.96875 450.21875 C 908.8114 442.12018 903.07251 431.4663 906.5 421.0625 C 908.80521 415.66345 912.44384 411.04057 915.75 406.1875 C 921.02773 404.1856 926.28477 402.06071 931.5625 399.9375 C 940.20705 403.001 949.06315 406.04965 958.375 405.625 C 964.07736 398.46671 970.02455 390.68942 979.09375 387.65625 C 990.8928 382.68185 1003.2901 388.01739 1014.9375 390.65625 C 1023.764 381.92071 1033.1522 371.41271 1046.4375 370.59375 C 1048.6783 370.40039 1050.9955 370.32381 1053.3125 370.375 z M 852.53125 401.625 C 857.28004 401.68088 861.92392 402.40118 866.25 404.75 C 877.92773 410.78601 887.53586 423.03913 886.65625 436.71875 C 886.47425 457.28367 871.36075 474.21475 855.40625 485.4375 C 844.69914 494.35504 827.80455 495.91109 816.1875 487.8125 C 807.08796 482.04948 803.07082 471.0683 801.28125 460.9375 C 799.58266 446.19626 808.61285 433.53711 815.4375 421.34375 C 819.65361 413.30584 827.08895 407.86964 834.15625 402.53125 C 840.14487 402.56538 846.42566 401.55308 852.53125 401.625 z "
       id="path2857"
       transform="scale(0.8,0.8)" />
    <path
       style="fill:#f5e5c1"
       d="M 727.25 489.9375 C 717.6955 507.34792 707.30266 524.24399 697.6875 541.59375 C 739.21166 565.07052 779.95835 590.06185 821.9375 612.75 C 831.12801 595.27891 841.6569 578.6301 850.96875 561.25 C 809.59624 537.7429 768.50119 513.68726 727.25 489.9375 z M 808.5625 559.96875 C 809.86258 559.90738 811.23253 560.10368 812.6875 560.625 C 820.08845 561.62595 824.9686 567.61291 830.125 572.375 C 829.06339 579.13897 829.35497 587.74345 822.5 591.65625 C 816.34265 597.02496 806.40735 597.48821 800.25 591.9375 C 794.69929 587.32708 794.40631 579.55716 792.34375 573.1875 C 796.61767 568.17139 801.54212 560.3004 808.5625 559.96875 z "
       id="path2851"
       transform="scale(0.8,0.8)" />
    <path
       style="fill:#f5e5c1"
       d="M 693.09375 552.6875 C 618.29565 680.5965 544.74295 809.22059 470.1875 937.28125 C 456.50788 956.45093 488.26146 981.96644 505.15625 966.40625 C 513.43681 956.88207 518.44834 945.08211 525 934.375 C 594.27773 814.92856 662.65056 694.92806 732.65625 575.90625 C 719.4316 568.17166 706.19708 560.57375 693.09375 552.6875 z M 620.46875 710.875 C 625.74647 713.21054 633.88229 712.81691 636.1875 719.15625 C 639.70599 728.13445 626.49009 737.23 619.96875 729.34375 C 613.81141 724.39968 618.2242 716.63802 620.46875 710.875 z M 496 938.375 C 499.94313 942.40913 507.02946 945.76911 504.90625 952.59375 C 502.6617 956.68854 499.3439 960.67924 494.1875 960.40625 C 487.96949 960.52762 486.0681 954.15545 483.15625 950 C 484.0662 948.05876 485.8088 944.22249 486.71875 942.28125 C 489.02396 941.31064 493.69479 939.34561 496 938.375 z "
       id="path2849"
       transform="scale(0.8,0.8)" />
    <path
       d="m 202.81024,286.30749 c -0.6309,-5.77517 2.54786,-10.70104 5.26559,-15.48133 2.28095,0.14559 6.81858,0.38825 9.09953,0.50957 -0.16986,27.49271 -0.60664,54.98541 -0.72797,82.47811 -5.6781,0.14559 -12.78786,-0.82502 -13.90407,-7.6436 -0.89782,-19.9219 0.58237,-39.91659 0.26692,-59.86275 z"
       id="path34"
       style="fill:#f5e5c1" />
    <path
       d="m 268.69081,282.1581 c 2.83905,-2.76625 5.72663,-5.48398 8.66274,-8.12891 0.7037,27.5655 -0.0971,55.15526 -0.53383,82.6965 -7.98332,-4.27071 -9.77896,-12.86067 -8.83261,-21.1837 -5.62957,0.50957 -11.25915,0.94635 -16.88872,1.3346 -2.83905,-5.16853 -4.75602,-11.45327 -9.46351,-15.21441 -5.84796,-0.87355 -11.79298,-0.43678 -17.68948,-0.5581 0.12133,-5.50825 0.21839,-11.04076 0.31545,-16.54901 7.54654,0.14559 15.09308,0.26692 22.63962,0.31545 1.86844,-4.24644 3.73688,-8.51716 5.53252,-12.81213 5.48398,0.84929 10.94369,1.8199 16.42767,2.71772 -0.0485,-4.22218 -0.0971,-8.42009 -0.16985,-12.61801 z"
       id="path36"
       style="fill:#f5e5c1" />
    <path
       d="m 417.92303,306.15659 c 1.43166,-3.34863 7.59507,-8.88114 10.40986,-4.44057 0.87356,12.71507 -0.24265,25.5272 -0.43678,38.26654 -3.83393,-1.67431 -7.61933,-3.46995 -11.38047,-5.26559 0.58237,-9.48778 -0.75223,-19.26673 1.40739,-28.56038 z"
       id="path42"
       style="fill:#f5e5c1" />
    <path
       d="m 433.67128,304.6036 c 3.97953,0.53384 7.98332,1.06768 11.98711,1.62578 -0.26692,9.39071 -0.50957,18.78143 -0.46104,28.1964 -4.07659,0.60664 -8.15318,1.18901 -12.2055,1.79564 0.36398,-10.53118 0.50957,-21.08663 0.67943,-31.61782 z"
       id="path46"
       style="fill:#f5e5c1" />
    <path
       d="m 450.70559,317.24588 c 4.05232,-1.57725 8.49289,-1.28607 12.78787,-1.31033 46.10427,0.84928 92.20853,1.33459 138.33706,1.16473 11.40474,-0.80075 21.35356,5.8237 31.81194,9.17233 -61.51279,-0.60664 -123.02559,0.14559 -184.53838,0 0.46104,-3.00891 0.80075,-6.06635 1.60151,-9.02673 z"
       id="path48"
       style="fill:#f5e5c1" />
    <path
       d="m 742.18161,341.26863 c 2.93612,-0.1456 5.84796,-0.29119 8.78408,-0.43678 0.0243,3.0817 0.0485,6.16341 0.0728,9.22085 -2.98464,-2.88758 -5.94502,-5.8237 -8.85687,-8.78407 z"
       id="path52"
       style="fill:#f4722b" />
    <path
       d="m 660.91678,364.24796 c 2.57213,-8.9054 8.58995,-16.25782 13.29744,-24.09554 5.7509,1.2618 16.45194,0.87355 15.82104,9.39071 -3.76114,10.1672 -11.01649,19.19393 -20.09175,25.13896 -6.57593,2.62066 -10.50692,-4.90162 -9.02673,-10.43413 z"
       id="path54"
       style="fill:#f4722b" />
    <path
       d="m 234.79204,347.43204 c 4.90161,4.90161 10.7981,8.56569 17.22843,11.16208 5.67811,11.21062 19.60645,19.80057 31.88474,13.56436 8.03185,-2.83905 10.50692,-11.52606 12.2783,-18.92701 34.77232,-0.12133 69.56891,0.14559 104.34123,0 8.32303,-0.24265 16.01517,3.34862 24.09554,4.61043 5.14427,-0.0485 10.09441,-1.69858 15.11735,-2.71773 19.41232,48.28815 39.67393,96.23659 58.79507,144.64607 -25.38161,43.70199 -50.69043,87.45251 -76.0963,131.13023 C 367.54806,548.20398 312.46559,465.67735 257.48019,383.07791 249.52114,371.45479 241.78047,359.6618 234.79204,347.43204 z"
       id="path56"
       style="fill:#f4722b" />
    <path
       d="M 36.446635,401.42256 C 145.9564,511.22351 256.09706,620.39355 365.50976,730.2673 c -4.9744,7.49801 -10.04587,15.36 -11.67166,24.38673 -0.0243,7.93479 3.56702,15.9909 0.38825,23.80436 -6.40607,18.92701 -4.12512,39.23716 -1.06768,58.57668 1.52872,12.15697 8.63849,22.42123 14.65631,32.75829 C 313.92152,834.97251 261.09573,798.50161 207.63905,763.00133 150.54256,724.73479 93.324739,686.6381 36.373839,648.17744 c 0.09706,-82.23545 -0.04853,-164.49517 0.0728,-246.75488 z"
       id="path60"
       style="fill:#f4722b" />
    <path
       d="m 711.31602,411.41991 c 10.53118,-10.60399 26.3037,-7.7164 39.72246,-6.91564 0.36398,21.25649 0.21839,42.51298 0.0971,63.76947 -10.55546,-6.26047 -21.20797,-12.35109 -31.93328,-18.34464 1.04342,-5.7509 3.49422,-11.67166 1.69858,-17.51962 -2.18388,-7.40095 -6.11488,-14.12247 -9.58483,-20.98957 z"
       id="path62"
       style="fill:#f4722b" />
    <path
       d="m 662.49403,504.30787 c 9.26938,-16.47621 19.1454,-32.58844 28.09933,-49.23451 19.65498,12.05991 40.13498,22.71242 59.66863,34.96645 -10.11867,18.22332 -22.08152,35.35469 -32.27299,53.52948 -3.44568,6.3818 -3.95526,13.75848 -5.38691,20.74692 -2.742,0.67943 -5.43545,1.48019 -8.08038,2.40227 -0.55811,6.11488 0,12.2783 0.19412,18.41744 -3.73687,0.12133 -7.44948,0.29119 -11.16209,0.46105 -3.30009,5.77516 -7.25535,11.21061 -9.77895,17.39829 -1.4074,6.21194 -0.75223,12.69081 -1.04342,19.04834 -3.54274,-0.19412 -7.06123,-0.38825 -10.57971,-0.5581 -16.91299,30.47734 -35.59735,59.95981 -52.60739,90.36436 -3.27583,4.58616 0.41251,9.85175 1.16473,14.68057 -3.80966,0.80075 -7.5708,1.62578 -11.3562,2.4508 -6.01782,10.65251 -12.42389,21.06237 -18.49024,31.71488 -3.76114,6.06635 -3.13024,13.51583 -4.51337,20.31015 -1.67431,-0.19413 -4.99867,-0.55811 -6.67298,-0.72797 -4.51337,7.61934 -9.09953,15.19015 -13.51583,22.85801 0.5581,4.73176 1.04341,9.48778 1.52872,14.21953 -3.59128,-0.26692 -7.15829,-0.50957 -10.72531,-0.72796 -1.57725,6.09061 -1.189,12.32682 -0.29118,18.49023 -3.25157,0.31545 -6.50313,0.65517 -9.73043,0.99489 -5.72663,9.39071 -11.18635,18.95128 -16.50047,28.56037 -18.97555,12.49669 -39.11583,25.1147 -61.90105,28.70598 -10.96796,2.15962 -22.3727,-5.45972 -32.80682,0.53384 -20.48,-3.39716 -41.88209,-14.07394 -50.93308,-33.75318 -4.44057,-9.07526 -10.67678,-17.47109 -12.71507,-27.51697 -3.44569,-18.70862 -4.29498,-38.53346 3.54275,-56.32 5.87222,1.86844 11.57459,4.29498 17.61668,5.58105 5.41118,-0.89782 10.57971,-2.74199 15.86957,-4.12512 4.19792,-4.5619 8.32304,-9.24512 11.42901,-14.65631 57.19355,-99.68227 115.01801,-199.04909 172.23583,-298.68284 23.48891,12.8364 46.39545,26.74047 69.7145,39.86806 z"
       id="path68"
       style="fill:#f5e5c1" />
    <path
       d="m 732.59678,562.66616 c 2.28095,-13.58862 13.58862,-22.85801 18.5873,-35.33043 0.12132,153.40588 -0.0243,306.81176 0.0728,460.21763 -9.43924,0.0485 -18.90275,0.0728 -28.34199,-0.0728 -19.33952,-102.03602 -39.30995,-203.97498 -58.9164,-305.9382 0.29119,-11.98711 10.04588,-21.32929 14.75337,-31.9818 3.80967,-10.07014 17.08284,-10.72531 21.1109,-20.5528 3.39716,-6.98843 1.9655,-15.04455 3.7854,-22.39696 5.96929,-4.17365 15.79678,-4.73176 17.59242,-13.07906 2.15962,-10.89516 8.56569,-20.21308 11.35621,-30.86559 z"
       id="path70"
       style="fill:#f4722b" />
    <path
       d="m 608.69763,768.65517 c 29.82218,72.96606 59.83848,145.8836 89.44228,218.94673 -12.78787,0 -25.57574,0 -38.36361,0 -30.0163,-45.40057 -60.08113,-90.77688 -90.48568,-135.91053 2.81478,-5.58104 5.41118,-11.21061 7.93478,-16.91298 9.92455,-8.68702 9.31792,-22.13005 11.47754,-34.0201 3.88246,-1.98976 7.98332,-3.7126 11.429,-6.43033 6.3818,-6.9399 7.06124,-16.84019 8.56569,-25.67279 z"
       id="path76"
       style="fill:#f4722b" />
    <path
       d="m 850.64796,987.6019 c 46.49251,-68.86522 92.91223,-137.77896 139.33195,-206.69271 0.0485,36.39811 0.12132,72.79621 -0.0485,109.19432 -32.4671,32.39431 -64.61876,65.07981 -97.03734,97.49839 -14.07394,0 -28.14787,0 -42.24607,0 z"
       id="path78"
       style="fill:#f4722b" />
    <path
       d="m 36.665024,827.83848 c 80.367016,34.45688 161.437726,67.21517 241.853266,101.52645 21.40209,8.63848 42.73138,17.49535 63.98787,26.47355 14.07393,6.18768 28.58465,11.33195 42.39166,18.10199 1.50445,0.21839 4.46483,0.65517 5.96929,0.87356 0.89782,0.99488 2.71772,3.00891 3.63981,4.00379 1.48019,0.19412 4.44057,0.53384 5.89649,0.7037 5.31413,2.49933 10.72531,4.85308 15.96664,7.52227 -10.16721,0.77649 -20.33441,0.58237 -30.50161,0.58237 -103.56474,-0.0971 -207.10522,0.0728 -310.669957,-0.0971 -12.957725,0.26692 -25.478673,-3.25156 -38.26654,-4.73175 -1.067678,-51.63678 -0.533839,-103.32209 -0.266919,-154.95887 z"
       id="path80"
       style="fill:#f4722b" />
    <path
       d="m 504.25934,901.99355 c 7.52227,-3.68834 15.36,-6.69725 22.85801,-10.43412 32.34578,31.78768 64.25478,64.0364 96.38218,96.0182 -25.0419,-0.0485 -50.0838,0.14559 -75.14996,0.0243 -5.28985,0.33971 -9.77895,-2.69346 -13.97687,-5.48399 -32.95242,-22.63962 -66.53573,-44.33289 -99.43962,-67.06957 3.931,-1.09194 7.86199,-2.20815 11.76872,-3.34862 12.78787,3.10597 25.81839,0.53383 38.60626,-1.18901 7.06123,-0.92208 12.71507,-5.53251 18.95128,-8.51716 z"
       id="path82"
       style="fill:#f4722b" />
    <path
       d="m 969.06313,987.57763 c 6.98843,-4.61043 14.00114,-9.22085 20.96531,-13.90408 -0.0243,4.6347 0,9.29365 0,13.92835 -6.98844,0 -14.00114,0 -20.96531,-0.0243 z"
       id="path84"
       style="fill:#f4722b" />
  </g>
</svg>
