<?xml version="1.0" encoding="UTF-8" standalone="no"?>
<svg
   xmlns:dc="http://purl.org/dc/elements/1.1/"
   xmlns:cc="http://creativecommons.org/ns#"
   xmlns:rdf="http://www.w3.org/1999/02/22-rdf-syntax-ns#"
   xmlns:svg="http://www.w3.org/2000/svg"
   xmlns="http://www.w3.org/2000/svg"
   xmlns:sodipodi="http://sodipodi.sourceforge.net/DTD/sodipodi-0.dtd"
   xmlns:inkscape="http://www.inkscape.org/namespaces/inkscape"
   width="1280"
   height="1280"
   viewBox="0 0 1024 1024"
   version="1.1"
   id="svg2"
   inkscape:version="0.48.1 "
   sodipodi:docname="heal_grind.svg">
  <metadata
     id="metadata50">
    <rdf:RDF>
      <cc:Work
         rdf:about="">
        <dc:format>image/svg+xml</dc:format>
        <dc:type
           rdf:resource="http://purl.org/dc/dcmitype/StillImage" />
      </cc:Work>
    </rdf:RDF>
  </metadata>
  <defs
     id="defs48" />
  <sodipodi:namedview
     pagecolor="#ffffff"
     bordercolor="#666666"
     borderopacity="1"
     objecttolerance="10"
     gridtolerance="10"
     guidetolerance="10"
     inkscape:pageopacity="0"
     inkscape:pageshadow="2"
     inkscape:window-width="1920"
     inkscape:window-height="1018"
     id="namedview46"
     showgrid="false"
     inkscape:zoom="0.31635488"
     inkscape:cx="134.86445"
     inkscape:cy="692.0747"
     inkscape:window-x="-8"
     inkscape:window-y="-8"
     inkscape:window-maximized="1"
     inkscape:current-layer="layer2"
     inkscape:snap-page="true" />
  <g
     inkscape:groupmode="layer"
     id="layer2"
     inkscape:label="background">
    <rect
       style="fill:#3e3e3e;fill-opacity:1;fill-rule:nonzero;stroke:none"
       id="rect3016"
       width="1280"
       height="1280"
       x="0"
       y="0"
       transform="scale(0.8,0.8)" />
  </g>
  <g
     inkscape:groupmode="layer"
     id="layer1"
     inkscape:label="foreground">
    <path
       d="m 33.971564,31.54502 c 84.516396,0.38825 169.081326,-0.80075 253.573456,0.60664 10.3856,25.21175 20.60133,50.59336 32.46711,75.14995 3.20304,-12.03564 4.17365,-24.55659 7.54654,-36.5437 22.00872,-9.80322 42.8527,-22.46976 65.27394,-31.86047 13.24891,-8.58995 29.9435,-9.09953 44.89099,-6.11488 23.68304,16.18502 53.2383,24.3382 71.92266,47.19621 7.18256,8.3473 15.2144,15.94237 23.99848,22.61535 -2.40228,-23.73156 -7.7164,-47.17194 -13.17611,-70.3454 70.95203,-1.60152 141.97687,-0.31545 212.95317,-0.65517 0.41251,182.66996 0.12133,365.33991 0.14559,547.9856 30.62294,19.0726 61.10029,38.3636 91.84455,57.24208 42.14901,-202.10654 84.00683,-404.26161 125.62199,-606.46521 14.53498,2.08682 29.21555,0.89782 43.84759,1.189 0.0243,148.81972 -0.0485,297.6637 0.0243,446.48342 -0.24265,8.08038 0.92209,16.64606 -2.66919,24.21687 -31.4965,75.27128 -63.28417,150.4455 -94.00417,226.05649 19.41232,20.62559 37.58711,43.53213 62.94445,57.19356 10.02161,-18.29612 21.93593,-35.40323 33.19507,-52.94711 1.04342,32.41857 0.33972,64.83715 0.41251,97.25573 -50.39928,-43.45934 -101.18676,-86.48189 -151.70733,-129.79564 -6.60019,-3.76114 -2.28095,-11.64739 -2.52361,-17.59242 -11.16208,-7.78919 -20.98957,-17.42255 -32.70976,-24.43526 -29.67659,-16.59753 -56.27147,-37.99962 -84.68625,-56.56265 -12.88493,6.96417 -28.34199,8.37156 -38.55773,19.94616 -2.76626,-3.10597 -5.53251,-6.16341 -8.22597,-9.29365 -3.10597,-16.96152 -9.58484,-36.25251 -26.8618,-43.45934 -15.57839,-7.76492 -29.04569,-24.53232 -47.65725,-22.68815 -0.0243,-31.95753 -1.3346,-64.47317 6.35753,-95.75128 26.47356,-25.21175 41.61517,-61.94957 43.45934,-98.37194 1.38313,-15.72398 2.13535,-33.26787 -8.37157,-46.24986 -9.85175,-8.80834 -22.68815,-13.22464 -34.21421,-19.38805 -0.24266,-6.69726 -2.18389,-13.07906 -4.10086,-19.43659 -4.61042,-22.10578 7.25536,-43.45934 6.50313,-65.15261 -15.89384,-22.10578 -26.35223,-52.12208 -53.60227,-62.96872 -14.58351,-6.35753 -31.83621,-5.99355 -44.93953,-15.79678 -8.66275,-6.77004 -17.47109,-13.34597 -26.25517,-19.94616 -10.89516,-8.05611 -13.46729,-23.46464 -25.6,-30.25895 -16.25782,-9.1238 -34.16568,-14.70484 -51.00587,-22.63963 -22.22711,9.53631 -42.65858,22.90654 -63.76948,34.45688 -7.78919,46.22559 -38.70332,85.36568 -48.53081,131.42142 -2.88758,9.05099 -12.6908,13.34597 -16.52474,21.88739 -7.76492,13.44303 -6.13914,29.62806 -1.21327,43.72626 -1.2618,14.51071 -2.62066,29.06995 -2.91184,43.70199 0.36398,10.19147 -9.02673,18.66009 -5.45972,28.99715 9.12379,32.41858 11.81725,66.12323 17.81081,99.12418 1.1162,8.71127 7.5708,14.70483 16.25782,15.45706 3.73687,32.00606 8.37156,63.93933 11.89004,95.99393 17.03432,13.20038 9.90029,37.05327 11.84152,55.73763 -25.40588,6.11488 -32.53991,36.05839 -55.131,46.90502 -35.45175,26.40076 -77.3581,42.10048 -115.0908,64.71583 -7.47375,14.38939 -6.4546,31.59356 -10.72531,47.05062 -8.03185,26.88607 -12.22976,55.15526 -25.16322,80.36701 -2.49934,4.27072 -2.64493,9.24512 -3.08171,14.02541 16.79166,1.06767 2.5236,16.35488 0.16986,25.16322 -6.64872,31.73915 -16.79166,62.55621 -25.527204,93.76152 -20.285877,0.43677 -40.547488,-0.97062 -60.8091,-0.92209 -0.31545,-55.81043 -0.0728,-111.64512 -0.121327,-167.47981 16.961517,7.25536 33.68038,15.11735 50.787489,22.08152 13.151848,-44.11451 27.322842,-87.93782 40.110712,-132.14939 -30.525878,-21.18369 -60.542182,-43.09535 -91.189385,-64.13346 0.655165,-78.49858 0,-157.02142 0.339715,-235.52 74.44626,74.44626 148.33441,149.47489 222.85346,223.87261 20.77118,-7.93479 42.63431,-14.85043 60.29953,-28.85156 -0.99489,-11.0165 -2.11109,-22.17858 -5.94503,-32.66124 -12.15696,-28.99715 -16.6218,-60.59071 -19.63071,-91.72322 C 263.20682,465.53175 268.37536,424.69308 254.1073,396.52095 181.57801,286.30749 108.1509,176.65213 35.548815,66.51147 32.345782,55.22806 34.602464,43.14389 33.971564,31.54502 z"
       id="path6"
       style="fill:#f4722b" />
    <path
       d="m 345.73346,117.73573 c 27.78389,-14.31658 60.25099,-17.95639 90.99526,-21.37782 27.25005,-1.60151 33.80171,31.47223 40.59602,51.07868 3.66408,-9.77896 1.50445,-20.67413 1.55299,-30.86559 15.40853,10.57971 34.11715,18.61156 43.92037,35.37895 5.16854,13.07905 -1.94123,28.22067 4.41631,41.05706 8.44436,19.80057 15.69971,40.11072 24.21687,59.88702 -17.64095,-8.66275 -34.16569,-22.00872 -54.91261,-20.74692 -0.33971,-1.74711 -1.01914,-5.24133 -1.35886,-7.0127 1.45592,-0.36398 4.36777,-1.11621 5.8237,-1.50446 -1.23754,-2.5236 -2.45081,-5.07147 -3.56702,-7.6436 -8.10464,-5.84796 -18.34464,-7.20682 -26.74047,-12.49668 12.37535,-4.39204 23.58597,2.28095 34.65099,6.9399 6.28474,7.61934 6.72152,20.43147 17.59242,23.51318 -0.87355,-9.56057 -6.89137,-17.47109 -9.75469,-26.44929 -10.91943,-7.13403 -23.17346,-11.81725 -34.94218,-17.34976 -11.38047,1.38312 -22.66389,3.93099 -34.23848,3.42142 -9.99735,0.58237 -23.80436,-0.0485 -28.65744,10.55545 2.62066,2.54787 5.94502,4.27071 8.92966,6.40607 -7.35241,6.09061 -11.18635,14.80189 -16.18502,22.59109 -15.38427,-1.09195 -30.98692,-0.46105 -45.95867,3.68834 -2.32948,-8.10465 -10.79811,-14.97176 -5.14427,-23.7073 -9.41498,-10.33706 -22.83374,-4.12512 -34.18995,-1.38313 -6.18768,-2.96038 -12.98199,-0.24265 -18.41744,3.08171 13.92834,-32.27299 23.29478,-66.72986 41.37251,-97.06162 z"
       id="path8"
       style="fill:#f5e5c1" />
    <path
       style="fill:#f5e5c1"
       d="M 576.1875 265.96875 C 562.23868 265.84363 547.38765 272.16697 539.03125 282.84375 C 537.96964 289.78972 536.42651 296.64594 535.03125 303.53125 C 540.06633 308.86964 544.82619 314.53934 548.375 321 C 529.7513 313.56871 519.41046 290.33137 532.96875 273.40625 C 511.7062 299.00625 519.90616 346.71025 555 354.6875 C 586.15071 363.6657 617.1518 334.73069 611.84375 303.125 C 610.78214 301.85106 608.65445 299.33644 607.5625 298.0625 C 607.68384 294.63501 607.81612 291.17658 607.9375 287.71875 C 603.17541 272.65904 590.13632 266.09387 576.1875 265.96875 z M 578.9375 283.03125 C 587.90147 282.87188 596.99318 284.53123 605.1875 287.5625 L 606.625 299.46875 C 586.93969 298.40714 567.09523 298.70765 547.53125 301.4375 C 546.5303 300.2849 544.50004 297.93385 543.46875 296.78125 C 552.99577 287.3803 565.83631 283.26418 578.9375 283.03125 z "
       id="path10"
       transform="scale(0.8,0.8)" />
    <path
       d="m 302.37118,227.22123 c 6.50313,-1.21327 13.63716,-0.43678 19.43659,-4.22218 0.38825,2.5964 -2.66919,3.27583 -4.36777,4.29498 -7.15829,5.19279 -16.25782,11.16208 -15.72398,21.25649 11.69592,-6.40607 19.80057,-22.15431 35.59734,-21.86313 7.10977,3.66408 11.6474,10.60398 16.59754,16.6218 -15.69972,-1.86843 -42.73137,0.84929 -44.16303,19.77631 15.14161,-4.61043 29.9435,-10.72531 45.78881,-12.61801 -4.19791,4.46483 -8.3473,8.95393 -12.66654,13.27317 0.53384,10.77384 7.81346,-4.95014 11.28341,-7.42521 0.87356,-0.24265 2.64493,-0.75223 3.51849,-1.01915 -0.58237,9.46351 -1.43166,19.60645 -6.98844,27.6383 -12.32682,20.89251 -46.92929,18.53876 -59.13478,-1.45593 -1.14048,-18.39317 2.32947,-37.80549 10.82236,-54.25744 z"
       id="path12"
       style="fill:#f5e5c1" />
    <path
       d="m 284.65744,255.66028 c -0.26692,-6.69725 2.28095,-12.88492 5.84796,-18.39317 -1.38313,6.28474 -2.83905,12.64227 -5.84796,18.39317 z"
       id="path16"
       style="fill:#f4722b" />
    <path
       style="fill:#f5e5c1"
       d="M 488.84375 300.90625 C 477.96046 300.84405 467.13759 301.95438 456.84375 306.125 C 464.66934 333.36291 452.41434 365.42701 426.875 378.5 C 406.31007 389.84408 379.78815 383.8865 363.5 367.75 C 361.46778 397.14148 366.47041 426.05249 372.71875 454.625 C 375.47894 457.0212 378.2398 459.44755 381 461.84375 C 388.21895 462.81438 395.009 465.47141 401.5 468.65625 C 418.09146 448.4553 412.59107 411.07011 441.40625 402.03125 C 440.86028 412.13172 430.31682 430.37485 439.75 435.53125 C 446.15 422.27627 467.829 421.90577 469.40625 438.40625 C 471.43849 439.46786 475.53027 441.59373 477.5625 442.625 C 471.19282 442.74634 464.83934 442.2252 458.5 441.40625 C 451.67535 444.3181 444.43311 445.89796 437.0625 446.65625 C 433.96866 444.47236 430.90634 442.34105 427.8125 440.1875 C 412.25231 471.4292 403.35681 505.7527 396.5625 539.90625 C 396.65349 544.85032 396.78584 549.80684 396.9375 554.78125 C 395.45124 592.33196 404.851 629.72686 408.1875 667.15625 C 410.5837 704.91927 440.67536 740.96499 479.5 743.9375 C 536.91801 753.58299 595.49217 734.91724 643.75 704.3125 C 668.7737 691.90681 689.05806 671.1271 715.75 661.90625 C 701.94905 681.40956 680.68066 693.1218 662.90625 708.5 C 600.42284 747.96161 536.15749 791.41979 460.84375 800.125 C 445.98119 798.85106 435.29722 787.01769 423.4375 779.34375 C 422.8612 808.70489 421.80868 838.34843 426.84375 867.40625 C 436.48925 880.9342 447.5418 895.79674 464.40625 900.4375 C 551.39773 854.75788 629.72113 793.91531 707.21875 734.34375 C 723.84055 726.3665 732.69179 708.87909 743.15625 694.5625 C 741.33634 669.29615 744.50547 643.98603 745.71875 618.75 C 749.47989 594.27228 744.41875 567.23134 757.21875 544.9375 C 784.27467 524.82755 797.93376 491.00279 799.875 458.0625 C 804.03045 435.43501 803.81549 411.28187 795.65625 389.625 C 783.97852 378.7359 768.3047 367.39331 751.53125 370.0625 C 735.30376 381.64924 737.73166 404.97467 736.09375 422.71875 C 731.05867 428.08747 722.90451 427.47079 719.75 420.3125 C 717.32346 400.32388 718.1731 379.02072 707.375 361.125 C 700.42902 349.11363 700.2348 330.93949 685.28125 325.84375 C 665.35329 316.80489 647.35545 299.80969 624 301.78125 C 629.00474 338.90733 591.33376 372.9782 554.875 364 C 525.99918 358.9346 507.76929 330.02379 508.40625 301.90625 C 501.91147 301.42853 495.37373 300.94357 488.84375 300.90625 z M 550.78125 391.125 C 556.14998 391.30699 562.18187 391.04031 566.125 395.46875 C 587.53921 415.18439 602.10411 441.4232 625.15625 459.53125 C 644.20459 454.86016 661.45806 439.7325 681.75 441.21875 C 668.85901 471.67182 658.41183 503.41633 656.53125 536.78125 C 653.55875 535.8713 650.66185 534.90536 647.75 533.84375 C 646.17275 508.30441 632.65945 485.40314 617.28125 465.6875 C 604.1476 453.79745 596.34978 435.26949 579 428.6875 C 569.29385 430.62873 560.19056 435.71326 549.96875 434.5 C 550.21141 433.0744 550.75734 430.27026 551 428.875 C 541.65781 436.45794 522.72994 440.82024 516.90625 427.65625 C 522.85126 411.4591 548.3941 409.42322 555.21875 426.5 C 574.84339 420.7673 557.66656 400.61884 550.78125 391.125 z M 770.65625 393.84375 C 778.26941 393.58374 786.47246 398.61496 788.5625 406.21875 C 791.62601 417.59316 788.78856 429.53919 790.0625 441.15625 C 786.08904 452.83397 774.21807 458.21668 765.9375 466.40625 C 766.18016 474.14085 766.43285 481.9474 768.34375 489.5 C 765.64423 492.68484 762.94769 495.87584 760.1875 499 C 754.30314 466.02939 757.24444 432.12228 760.15625 399 C 762.85672 395.55924 766.6684 393.97995 770.65625 393.84375 z M 517.3125 526.75 C 528.12338 526.67533 538.77073 528.29772 548.875 532.90625 C 570.0769 541.12616 592.10329 547.803 612.03125 558.84375 C 593.25589 562.69589 577.67331 546.69218 559.65625 543.75 C 525.26004 537.19834 488.48809 536.26345 455.0625 548.0625 C 443.26345 551.308 438.59681 563.9787 428.375 569.46875 C 437.32288 553.36259 450.59319 536.20595 470.1875 533.71875 C 485.36949 530.56709 501.51198 526.85913 517.3125 526.75 z "
       id="path18"
       transform="scale(0.8,0.8)" />
    <path
       d="m 279.44038,356.77422 c -1.67431,-6.43033 2.76626,-11.52607 5.65384,-16.71886 0.82502,6.55165 2.28095,13.03052 3.2273,19.58218 3.54275,11.59886 3.73687,23.99848 8.00758,35.45175 0.5581,2.54787 1.09194,5.14426 1.65005,7.7164 3.13023,17.73801 4.4163,35.6944 6.21194,53.57801 -2.88758,-1.31034 -5.7509,-2.6692 -8.58995,-4.07659 -4.78029,-31.93327 -8.63849,-64.08493 -16.16076,-95.53289 z"
       id="path24"
       style="fill:#f5e5c1" />
    <path
       d="m 605.08209,564.09782 c 16.549,-5.45972 28.99715,8.80834 39.69819,18.99981 7.76493,6.69725 11.89005,16.45194 14.31659,26.2309 -20.33441,53.94199 -47.68151,105.5545 -59.86275,162.31128 -5.92076,18.87848 -11.62312,37.97536 -19.09687,56.27147 -58.09137,4.92588 -116.4982,6.69725 -174.58957,11.89005 21.54768,-41.54237 35.0635,-88.9327 69.32625,-122.37043 41.46958,-52.65592 89.68493,-99.75507 130.20816,-153.33308 z"
       id="path28"
       style="fill:#f5e5c1" />
    <path
       d="m 500.59526,640.92209 c 17.01005,-10.43413 31.4237,-26.27944 51.36986,-31.08399 1.31033,13.34598 -11.04076,21.28076 -18.85422,30.06484 -31.71488,36.17971 -60.03261,75.22275 -93.03355,110.26199 -16.30635,24.04701 -36.59223,45.74028 -48.94332,72.2381 8.80834,-30.86559 -8.46863,-61.39147 -18.73289,-89.92758 8.00758,-9.99735 19.36379,-16.01517 30.86559,-21.0381 32.95242,-22.76095 65.68645,-45.88588 97.32853,-70.51526 z"
       id="path30"
       style="fill:#f5e5c1" />
    <path
       d="m 665.35735,619.61706 c 4.12511,2.6692 9.43924,8.03185 11.38047,13.5401 -9.29365,11.89004 -23.10066,22.90654 -23.34332,39.23715 -3.03317,34.52967 -12.81213,67.94313 -17.20417,102.30294 -3.61554,-0.0243 -7.25535,-0.0485 -10.84663,-0.0243 -3.46996,16.81592 -0.84929,34.57819 -5.7509,50.93308 -8.17744,0.87355 -16.40342,1.06767 -24.60512,1.65004 5.84796,-36.42237 19.24246,-71.21895 27.85668,-107.05895 14.26806,-33.43773 26.10957,-68.25858 42.51299,-100.5801 z"
       id="path32"
       style="fill:#f5e5c1" />
    <path
       d="m 317.56133,637.93744 c 3.39715,-0.67943 6.79431,-1.40739 10.19147,-2.08682 -6.13915,8.61421 -7.20683,19.09687 -10.14294,28.90009 -16.28209,40.13498 -36.95621,81.70161 -32.41858,126.25289 -0.0971,15.19014 6.01782,29.33687 9.31791,43.94465 -22.08151,-1.62579 -44.18729,-2.71773 -66.26881,-4.34351 3.39716,-12.49668 8.10464,-24.65365 10.7981,-37.32019 -1.16474,-8.54142 -6.26047,-16.03943 -9.19658,-24.09555 9.51203,-17.8108 21.35355,-34.33554 30.74426,-52.26767 19.67924,-25.79413 40.30484,-51.10294 56.97517,-78.98389 z"
       id="path34"
       style="fill:#f5e5c1" />
    <path
       d="m 310.16038,695.93175 c 9.41498,-15.60265 8.9782,-35.11203 19.36379,-49.98673 1.06768,17.88361 0.67943,35.84 1.23754,53.74787 0.94635,0.29119 2.86331,0.87356 3.80966,1.16474 6.35754,12.39962 20.40721,17.68948 28.12361,28.85156 -12.61801,35.84 -35.64588,66.12323 -55.0582,98.32342 -3.39716,-8.95394 -6.13915,-18.10199 -9.07526,-27.20152 -9.6091,-35.03924 2.91184,-71.07336 11.59886,-104.89934 z"
       id="path36"
       style="fill:#f5e5c1" />
    <path
       d="m 787.87336,724.75905 c 5.8965,-7.78919 16.25782,-8.58995 25.09043,-10.40986 38.5092,24.94484 69.13213,60.05688 106.37953,86.72455 27.78388,14.94749 51.22426,36.32531 75.5382,56.12588 -0.0243,44.93953 0.0243,89.85479 -0.0243,134.79431 -96.96455,-0.0728 -193.9291,0.0485 -290.89365,-0.0485 -4.46483,-16.37914 -1.62578,-33.8017 -1.189,-50.54483 2.23241,-27.80815 1.06767,-55.71337 1.21327,-83.54578 4.9744,0.12132 9.97308,0.0971 14.97175,0.0971 1.55299,-2.91185 3.1545,-5.77517 5.02294,-8.46863 0.5581,-18.05346 1.98976,-36.15545 4.07659,-54.01478 16.08796,-26.3765 39.30995,-47.70579 59.81421,-70.70939 z"
       id="path38"
       style="fill:#f5e5c1" />
    <path
       d="m 161.97156,746.67071 c 9.07526,-3.05744 17.90787,-6.81858 26.8618,-10.28853 -9.70616,23.90142 -17.42255,48.91905 -32.56417,70.17555 -7.54654,18.27184 -13.56436,37.19886 -21.25649,55.42218 -6.309,1.77137 -1.69858,-7.13403 -0.89782,-9.65764 13.03052,-34.04436 21.06237,-70.00568 27.85668,-105.65156 z"
       id="path40"
       style="fill:#f5e5c1" />
    <path
       d="m 310.13611,836.06445 c 7.03697,-10.8709 13.66143,-21.98445 20.98958,-32.66123 -0.0243,3.27583 0.0243,6.55166 0.12132,9.85176 13.37024,3.30009 12.78787,14.21952 6.23621,24.07128 -9.12379,0.0243 -18.24758,-0.53384 -27.34711,-1.26181 z"
       id="path42"
       style="fill:#f5e5c1" />
    <path
       d="m 389.65384,853.7782 c 76.89706,-5.38692 153.84265,-10.3128 230.76398,-15.52986 0.92209,4.63469 1.52872,9.31792 2.01403,14.04967 3.0817,0.89782 6.13915,1.8927 9.19659,2.98464 0.41251,45.5947 -3.63981,91.16512 -1.21327,136.75981 -44.28436,-0.41251 -88.59299,0.53384 -132.87735,-0.5581 14.99602,-1.23754 19.291,-16.76739 25.30882,-27.88095 7.23109,-12.01137 6.01781,-28.87583 -3.73688,-39.21289 -13.24891,-19.65497 -43.38654,-19.09687 -60.54218,-5.0472 -12.32682,12.15696 -21.69327,28.97289 -19.82483,46.80796 3.37289,11.08929 11.47753,21.15943 22.22711,25.76986 -107.25308,-0.21839 -214.50616,0.67943 -321.73498,-0.43678 7.69213,-21.54768 14.89896,-43.31374 23.27052,-64.57024 13.97687,-12.15696 30.01631,-21.98445 44.72114,-33.34066 4.17365,-17.30123 10.26427,-34.11716 16.42768,-50.78749 55.34938,3.42142 110.7473,6.60019 165.99962,10.99223 z"
       id="path44"
       style="fill:#f5e5c1" />
  </g>
</svg>
