<?xml version="1.0" encoding="UTF-8" standalone="no"?>
<svg
   xmlns:dc="http://purl.org/dc/elements/1.1/"
   xmlns:cc="http://creativecommons.org/ns#"
   xmlns:rdf="http://www.w3.org/1999/02/22-rdf-syntax-ns#"
   xmlns:svg="http://www.w3.org/2000/svg"
   xmlns="http://www.w3.org/2000/svg"
   xmlns:sodipodi="http://sodipodi.sourceforge.net/DTD/sodipodi-0.dtd"
   xmlns:inkscape="http://www.inkscape.org/namespaces/inkscape"
   width="1280"
   height="1280"
   viewBox="0 0 1024 1024"
   version="1.1"
   id="svg2"
   inkscape:version="0.47 r22583"
   sodipodi:docname="invite_join_charge.svg">
  <metadata
     id="metadata100">
    <rdf:RDF>
      <cc:Work
         rdf:about="">
        <dc:format>image/svg+xml</dc:format>
        <dc:type
           rdf:resource="http://purl.org/dc/dcmitype/StillImage" />
      </cc:Work>
    </rdf:RDF>
  </metadata>
  <defs
     id="defs98">
    <inkscape:perspective
       sodipodi:type="inkscape:persp3d"
       inkscape:vp_x="0 : 640 : 1"
       inkscape:vp_y="0 : 1000 : 0"
       inkscape:vp_z="1280 : 640 : 1"
       inkscape:persp3d-origin="640 : 426.66667 : 1"
       id="perspective41" />
  </defs>
  <sodipodi:namedview
     pagecolor="#ffffff"
     bordercolor="#666666"
     borderopacity="1"
     objecttolerance="10"
     gridtolerance="10"
     guidetolerance="10"
     inkscape:pageopacity="0"
     inkscape:pageshadow="2"
     inkscape:window-width="1280"
     inkscape:window-height="738"
     id="namedview96"
     showgrid="false"
     inkscape:zoom="0.44739336"
     inkscape:cx="263.75"
     inkscape:cy="530.6184"
     inkscape:window-x="-8"
     inkscape:window-y="-8"
     inkscape:window-maximized="1"
     inkscape:current-layer="svg2" />
  <path
     d="m 0,0 1024,0 0,1024 L 0,1024 0,0 z"
     id="path4"
     style="fill:#3e3e3e" />
  <path
     d="m 626.50844,124.09327 c 13.22464,-5.62957 25.89118,-14.0254 40.62028,-14.82616 43.75052,-2.42654 88.22901,0.21839 130.35374,13.07905 17.66522,4.80455 34.43261,12.69081 49.71981,22.71242 5.77517,3.68834 10.09441,9.05099 14.21953,14.41365 -63.93934,34.89365 -128.04853,69.54464 -191.84227,104.72948 -5.62958,3.0817 -11.52607,5.70237 -17.51962,8.00758 -3.73688,-13.61289 -6.77005,-27.41991 -10.3128,-41.08133 -23.97422,-0.97061 -47.87564,1.74711 -71.58294,4.97441 -14.34085,1.74711 -26.74047,9.5363 -39.45554,15.74825 -56.02882,28.00227 -112.03337,56.07734 -168.11072,83.98256 -15.45706,7.47374 -24.67791,22.71241 -34.23848,36.22824 -0.0485,1.62578 -0.14559,4.90161 -0.19412,6.5274 7.88625,10.38559 15.67545,20.86824 24.07128,30.86559 -9.56057,9.17232 -22.93081,11.76872 -34.67526,16.98578 -61.65839,25.26028 -123.85062,49.25877 -185.26635,75.12569 -1.31034,-6.89138 -2.93612,-13.85555 -2.06256,-20.89252 2.08682,-16.86445 5.79943,-33.70464 12.54521,-49.35582 13.61289,-32.49138 32.15166,-63.16285 56.58692,-88.71432 11.18635,-13.12758 24.07128,-24.60512 36.76209,-36.20398 8.58995,-7.6436 19.7035,-11.33194 29.91924,-16.20929 120.16227,-55.34938 240.30028,-110.7473 360.46256,-166.09668 z"
     id="path6"
     style="fill:#f4722b" />
  <path
     d="m 951.6163,154.9346 c 6.60019,-3.83394 15.60266,-6.18768 21.37782,0.38824 10.55545,12.9092 18.75716,27.83242 23.24626,43.94465 10.45842,39.38275 6.45462,84.85611 -19.8491,117.42028 -3.46995,-1.23753 -6.91564,-2.49933 -10.33706,-3.76113 6.50313,-17.37403 13.00625,-34.96645 15.94237,-53.35963 0.33971,-22.46976 1.01914,-45.78881 -7.06123,-67.14237 -5.1928,-13.92834 -14.171,-25.93971 -23.31906,-37.49004 z"
     id="path8"
     style="fill:#f5e5c1" />
  <path
     d="m 645.45972,285.531 c 75.65952,-41.88209 151.92568,-82.72076 227.53668,-124.72418 4.87734,4.99868 9.12379,10.60399 12.52095,16.71887 11.3562,19.94616 23.46464,39.47981 34.94218,59.4017 5.26559,7.61934 3.13023,18.5873 -3.51849,24.65365 -6.64872,5.2656 -14.80189,8.10465 -22.08151,12.30256 -58.16417,31.47223 -115.9401,63.67242 -174.10427,95.14465 -11.55033,6.72151 -27.61403,1.09194 -33.14654,-10.8709 -13.34597,-24.62939 -28.43905,-48.21536 -42.149,-72.62635 z"
     id="path10"
     style="fill:#f4722b" />
  <path
     d="m 924.7545,179.29706 c 4.97441,-1.14047 10.9437,-4.87734 15.48133,-0.65516 19.63071,15.96663 24.50806,42.68284 25.98825,66.58426 -0.0971,12.93346 -3.32436,25.57574 -7.18256,37.82976 -5.53252,1.55299 -11.93858,3.73688 -16.91299,-0.50957 0.38825,-7.86199 4.00379,-15.11735 5.0472,-22.88227 1.89271,-14.53498 -0.92208,-29.14275 -4.17364,-43.28948 -3.59128,-11.69593 -7.69214,-23.97422 -17.01005,-32.44285 -0.31545,-1.16474 -0.92209,-3.46995 -1.23754,-4.63469 z"
     id="path12"
     style="fill:#f5e5c1" />
  <path
     d="m 521.90028,267.59886 c 1.01915,-1.23753 3.05745,-3.7126 4.07659,-4.95014 9.09953,11.18635 17.30123,23.0764 26.20664,34.43261 27.10445,0.0243 54.20891,-0.12133 81.2891,0 4.92587,-0.87356 7.30388,4.19791 10.57971,6.77004 -31.88474,0.82503 -63.79374,-0.31545 -95.65422,0.60664 -8.25023,-12.71507 -18.58729,-23.94995 -26.49782,-36.85915 z"
     id="path14"
     style="fill:#f5e5c1" />
  <path
     d="m 470.09365,296.35336 c 5.58104,-7.27962 13.54009,-11.81725 21.79033,-15.45706 -6.33327,7.42522 -11.59886,15.84531 -18.80569,22.49403 -9.51203,1.74711 -19.41232,0.33972 -29.04568,0.80076 8.22597,-3.95526 16.76739,-7.59507 26.06104,-7.83773 z"
     id="path16"
     style="fill:#f5e5c1" />
  <path
     style="fill:#f5e5c1"
     d="M 638.28125 352.125 C 589.05281 414.45675 540.82861 477.58001 491.8125 540.09375 C 488.83999 543.94589 485.83739 547.81789 483.5625 552.125 C 490.47814 577.99799 504.77096 601.38711 510.625 627.59375 C 508.92641 636.51129 508.96425 645.85177 505.71875 654.375 C 502.83724 661.71529 494.73641 664.3639 488.09375 667.09375 C 467.22551 674.76769 446.43259 682.58159 425.625 690.4375 C 425.625 694.3503 425.62588 698.2747 425.65625 702.1875 C 416.22307 702.24812 406.77876 701.71412 397.40625 702.59375 C 385.09155 704.77764 374.03436 711.10379 361.75 713.5 C 365.20783 714.92559 368.52561 717.11581 372.46875 716.8125 C 390.15216 717.35847 407.91126 716.69575 425.625 716.96875 C 425.59463 731.49766 425.59463 746.06484 425.625 760.59375 C 404.45344 760.68475 383.23406 760.68562 362.0625 760.625 C 362.18388 745.1558 362.43478 729.68979 361.3125 714.28125 C 331.76938 728.1732 301.02751 739.41875 270.96875 752.21875 C 269.99814 774.42159 270.62412 796.67307 270.59375 818.90625 C 378.57479 817.66264 486.55021 818.6774 594.53125 818.34375 C 740.48765 818.5864 886.44995 817.84005 1032.4062 818.75 C 1033.195 744.64952 1032.5377 670.53705 1032.75 596.40625 C 961.71303 597.16459 890.66196 596.31887 819.625 596.53125 C 763.78424 519.03361 707.90694 441.49579 652.1875 363.9375 C 648.69935 358.75076 643.49831 355.30984 638.28125 352.125 z M 595.59375 466.71875 C 605.11793 466.74912 614.66332 466.751 624.1875 466.78125 C 624.39981 484.46466 624.28212 502.13 624.3125 519.84375 C 614.69733 519.84375 605.11518 519.84625 595.5 519.90625 C 595.46963 502.16217 595.41175 484.46283 595.59375 466.71875 z M 639.1875 466.75 L 668.53125 466.75 C 668.65262 484.46374 668.59375 502.13 668.59375 519.84375 C 658.76626 519.84375 648.98374 519.84462 639.15625 519.875 C 639.15625 502.16126 639.12675 484.46374 639.1875 466.75 z M 681.25 646.6875 C 681.31062 665.18988 681.19213 683.7173 681.34375 702.25 C 658.59494 702.21962 635.84165 702.24912 613.0625 702.21875 C 613.27483 683.71639 613.15712 665.22111 613.1875 646.71875 C 635.87566 646.74913 658.56185 646.80887 681.25 646.6875 z M 817.875 646.6875 C 843.23235 646.83916 868.58016 646.68875 893.9375 646.75 C 893.9375 665.22204 893.84925 683.71639 894.03125 702.21875 C 868.61324 702.24913 843.23051 702.21875 817.8125 702.21875 C 817.9035 683.68605 817.81375 665.18987 817.875 646.6875 z M 681.25 716.84375 C 681.28038 731.46365 681.25125 746.03635 681.3125 760.65625 C 658.59401 760.65625 635.84349 760.65537 613.125 760.625 C 613.216 746.03543 613.18838 731.49582 613.21875 716.90625 C 635.87658 716.96687 658.56185 717.02575 681.25 716.84375 z M 817.90625 716.84375 C 843.26359 717.05607 868.58016 716.87588 893.9375 716.90625 C 893.90712 731.49582 893.909 746.06576 894 760.625 C 868.61233 760.68562 843.26267 760.62588 817.875 760.65625 C 817.875 746.06668 817.8455 731.46365 817.90625 716.84375 z "
     transform="scale(0.8,0.8)"
     id="path2867" />
  <path
     style="fill:#f5e5c1"
     d="M 254.25 825.125 C 240.0244 839.9269 225.35059 854.32311 211.125 869.125 C 207.2122 872.82547 205.88149 878.14784 204.03125 883.03125 C 499.97817 883.57721 795.95942 883.12863 1091.9062 883.25 C 1097.1235 883.18938 1102.3758 883.193 1107.5625 882.34375 C 1110.6867 877.21769 1105.2517 872.73908 1102.2188 869.28125 C 1087.538 854.72201 1072.7486 840.20906 1058.25 825.4375 C 790.26896 825.28585 522.26138 825.9743 254.25 825.125 z M 1031.4062 833.65625 C 1037.5031 833.61075 1043.606 833.67188 1049.6875 834.1875 C 1055.2685 834.06613 1058.896 838.72784 1062.6875 842.125 C 1073.3036 852.86244 1083.9204 863.63296 1094.7188 874.21875 C 802.59354 874.34012 510.43763 874.34012 218.3125 874.21875 C 230.08123 862.35904 241.48495 850.14555 253.375 838.4375 C 257.43945 833.37209 264.26913 833.96049 270.0625 833.6875 C 517.7516 833.80887 765.46725 833.71975 1013.1562 833.75 C 1019.2378 833.841 1025.3098 833.70175 1031.4062 833.65625 z "
     transform="scale(0.8,0.8)"
     id="path2853" />
  <path
     style="fill:#f5e5c1"
     d="M 310.84375 895.03125 C 297.66081 895.02745 284.47556 895.04825 271.28125 895.09375 C 271.55424 946.77905 271.28403 998.5022 270.34375 1050.1875 C 352.69445 1050.1573 435.05554 1050.2464 517.40625 1050.125 C 517.16359 998.4397 517.34287 946.74781 517.3125 895.0625 C 488.98264 895.0625 460.67361 895.00275 432.34375 895.09375 C 432.34375 902.76768 432.34287 910.45199 432.3125 918.15625 C 404.98359 917.9136 377.70391 918.12137 350.375 918 C 350.375 910.3564 350.40625 902.70701 350.40625 895.09375 C 337.22711 895.06344 324.02669 895.03505 310.84375 895.03125 z M 391.375 932.71875 C 405.05886 932.7225 418.74271 932.734 432.4375 932.71875 C 432.28587 948.67325 432.34463 964.63925 432.375 980.59375 C 405.01575 980.50275 377.703 980.5615 350.34375 980.53125 C 350.40438 964.60708 350.43388 948.67416 350.3125 932.75 C 364.00729 932.71969 377.69114 932.715 391.375 932.71875 z "
     transform="scale(0.8,0.8)"
     id="path2849" />
  <path
     style="fill:#f5e5c1"
     d="M 790.84375 895.03125 C 781.34233 895.03125 771.83759 895.0625 762.34375 895.0625 C 762.40441 946.77814 762.45314 998.47186 761.9375 1050.1875 C 850.41523 1050.1875 938.89727 1050.2169 1027.375 1050.1562 C 1026.7987 998.47094 1026.784 946.74781 1026.875 895.0625 C 982.56031 895.03212 938.2522 895.0625 893.9375 895.0625 C 893.90725 904.88999 893.93837 914.73501 893.96875 924.5625 C 869.09671 924.62325 844.18454 924.59375 819.3125 924.59375 C 819.34288 914.7966 819.34375 905.0159 819.34375 895.21875 C 809.84991 895.06709 800.34517 895.03125 790.84375 895.03125 z M 893.875 939.3125 C 893.96625 954.05373 893.87775 968.75876 893.96875 983.5 C 869.09671 983.53038 844.18454 983.53038 819.3125 983.5 C 819.37375 968.7891 819.31438 954.05465 819.375 939.34375 C 844.18637 939.34375 869.0333 939.34288 893.875 939.3125 z "
     transform="scale(0.8,0.8)"
     id="path18" />
  <path
     d="m 130.03829,348.20853 c 4.80455,-3.7854 11.18635,-2.64493 16.88872,-2.86332 -0.21838,2.25669 -0.41251,4.51337 -0.60663,6.77005 -31.01119,19.53365 -48.943318,58.04284 -44.38142,94.39242 0.26692,3.7126 0.87355,7.7164 -1.2618,11.06502 -4.998677,3.37289 -10.846639,1.43166 -16.185027,0.24266 -2.402275,-10.89517 -3.979526,-22.15432 -2.038294,-33.24361 2.450806,-14.55924 5.168531,-29.74938 13.56436,-42.19753 9.681891,-12.8364 20.504261,-25.21176 34.020091,-34.16569 z"
     id="path20"
     style="fill:#f5e5c1" />
  <path
     d="m 69.132133,350.90199 c 5.823696,-4.39204 12.836398,-1.55299 19.072606,0.14559 0.194124,1.8927 0.388247,3.78541 0.606635,5.70237 -18.344644,8.95394 -27.225782,29.4582 -29.943507,48.6764 -2.717725,12.86066 -1.358862,26.01251 -1.698578,39.04303 -5.993554,0.41252 -14.14673,2.57214 -17.495355,-4.17365 -6.527394,-11.33194 -4.319242,-25.28455 -3.59128,-37.7327 5.265592,-19.8491 13.127583,-42.19753 33.049479,-51.66104 z"
     id="path22"
     style="fill:#f5e5c1" />
  <path
     d="m 769.04341,351.62995 c 2.32948,-0.60663 4.65896,-1.23753 6.98844,-1.84417 26.42502,36.71356 52.48606,73.7183 79.05668,110.33479 1.35886,2.03829 2.64493,4.17365 3.59128,6.4546 -6.79431,3.27583 -14.38938,1.16474 -21.57194,1.38312 -57.80019,-0.12132 -115.62465,-0.0243 -173.42484,-0.0243 0.0243,-1.69858 0.0971,-5.09574 0.12133,-6.79431 61.05175,0.41251 122.12777,0.0485 183.17953,0.19412 -25.72133,-36.73782 -52.36474,-72.84474 -77.94048,-109.70389 z"
     id="path24"
     style="fill:#f5e5c1" />
  <path
     d="m 310.83981,436.87431 c 18.68436,-7.37668 37.12607,-15.36 56.07735,-22.08151 10.1672,26.18237 19.02407,52.87431 29.43393,78.95962 6.35754,12.6908 -1.8927,29.3126 -15.2872,33.09801 -60.61498,24.04701 -121.01157,48.6036 -181.60228,72.72341 -10.19147,3.80967 -20.23734,11.30768 -31.69061,8.42009 -6.38181,-1.189 -11.11356,-6.309 -13.17612,-12.27829 -6.79431,-17.61668 -12.8364,-35.52455 -19.48512,-53.18976 -3.90673,-10.07015 -8.03185,-20.21308 -8.88113,-31.10825 61.31867,-25.35735 123.09838,-49.62275 184.61118,-74.54332 z"
     id="path30"
     style="fill:#f4722b" />
  <path
     d="m 103.32209,562.05953 c 4.90161,-9.41498 8.95393,-20.69839 19.75203,-24.75072 6.4546,15.79678 13.15185,31.47223 19.67924,47.22048 -8.37156,9.65763 -17.27696,18.95128 -27.78388,26.32796 -9.41498,-6.04208 -19.121139,-11.84152 -27.104456,-19.7763 5.265592,-9.6091 10.725308,-19.1454 15.457066,-29.02142 z"
     id="path36"
     style="fill:#f4722b" />
  <path
     style="fill:#f4722b"
     d="M 118.75 762.65625 C 116.24639 762.7085 113.758 762.94828 111.3125 763.5625 C 104.76084 767.80895 100.77127 774.81325 96.3125 781.03125 C 90.124822 790.73741 82.07811 800.5888 82.59375 812.8125 C 81.319816 826.82577 91.030895 839.82612 103.40625 845.4375 C 120.14938 853.44509 140.00409 853.45234 157.6875 848.78125 C 171.51878 845.41442 177.06185 825.28431 167.75 815.0625 C 157.43721 806.96392 143.15476 806.13045 130.71875 808.375 C 122.04386 810.01291 115.27322 816.92183 106.75 818.46875 C 104.71777 813.70666 103.85379 808.38709 106.25 803.625 C 111.80071 788.55011 123.54666 776.9857 131.28125 763.09375 C 127.14855 763.01792 122.92269 762.56916 118.75 762.65625 z M 141.34375 816.1875 C 145.7097 816.09415 150.05942 818.5492 153.3125 821.59375 C 152.28123 827.81175 149.99822 833.74156 147.875 839.65625 C 132.43614 842.62876 110.5673 843.65583 103.5 826.09375 L 106.21875 825.3125 C 116.74387 826.61676 126.55214 823.34023 135.5 818.0625 C 137.37678 816.7734 139.35923 816.22993 141.34375 816.1875 z "
     transform="scale(0.8,0.8)"
     id="path42" />
  <path
     d="m 73.014597,682.87697 c 4.270711,0.0243 8.517157,0.0485 12.787867,0.12132 0.946351,6.47887 1.189005,13.17612 3.348626,19.41233 4.416303,6.9399 11.35621,13.15184 19.82483,14.07393 5.84797,1.16474 10.3856,-3.39716 15.04455,-6.06635 -1.69857,-3.54275 -3.56701,-7.0127 -5.58104,-10.36133 -7.78919,3.88247 -16.42768,6.67299 -24.677913,2.25668 11.962843,-9.70616 29.361133,-14.19526 43.604933,-6.91564 5.55677,2.0383 4.82881,8.78408 3.27582,13.32171 -2.81478,9.07526 -12.7636,13.56436 -21.62047,14.12247 -9.17232,0.14559 -18.82995,-0.0728 -27.274312,-4.07659 -8.420095,-4.68323 -14.195261,-12.69081 -20.674123,-19.58218 0.509573,-5.45972 1.140474,-10.89517 1.941232,-16.30635 z"
     id="path50"
     style="fill:#f4722b" />
  <path
     d="m 433.88967,716.0963 c 52.60739,-0.14559 105.21478,-0.0243 157.82218,-0.0485 0.0485,41.34825 -0.16986,82.72076 0.12133,124.09327 -10.14294,0 -20.28588,0.0243 -30.42882,-0.0485 0.21839,-38.84891 0.0485,-77.72208 0.0728,-116.57099 -31.4965,0.12132 -62.99299,0.12132 -94.51375,0 0,38.87317 -0.0728,77.74635 0.0485,116.61952 -11.04076,0.0485 -22.05725,-0.0243 -33.09801,-0.16986 -0.0243,-41.29971 0,-82.57516 -0.0243,-123.87488 z"
     id="path54"
     style="fill:#f5e5c1" />
  <path
     d="m 76.120569,725.99659 c 5.071469,-0.58237 10.142938,-1.01915 15.238673,-1.3346 -0.02427,9.34218 -1.577251,20.14028 5.508246,27.5655 4.853082,7.74066 16.087962,8.12891 23.221992,3.61554 5.41118,-3.1545 1.40739,-10.19147 0.97061,-14.97175 -7.71639,4.70749 -16.30635,8.3473 -25.454403,5.36265 8.638483,-11.98711 25.915453,-17.8836 39.164363,-9.87602 6.45459,3.32436 6.21194,12.42389 3.2273,18.0292 -13.63716,19.09687 -48.53081,17.64095 -58.916402,-4.05232 -4.003792,-7.47375 -2.717725,-16.20929 -2.960379,-24.3382 z"
     id="path58"
     style="fill:#f4722b" />
  <path
     d="m 485.25953,755.62464 c 6.13914,-16.52473 26.06104,-19.33952 41.12985,-15.43279 7.18256,2.13535 10.36133,9.51204 13.4673,15.65118 -18.17478,0.75223 -36.44663,1.06768 -54.59715,-0.21839 z"
     id="path60"
     style="fill:#f5e5c1" />
  <path
     d="m 83.521517,767.61175 c 5.022938,-1.57725 9.778957,1.43166 13.151848,4.90161 -1.455924,5.92076 -5.799431,10.53119 -7.983318,16.16076 -1.383128,5.8965 -0.388246,11.98711 -0.242654,17.9564 7.134029,5.16853 15.311467,9.65763 24.119807,5.50825 0.1456,-3.34863 0.31545,-6.69725 0.46105,-10.02161 -7.81346,-0.84929 -18.829956,-0.16986 -21.1837,-9.80323 14.12246,-5.7509 31.69062,1.69858 37.58711,15.69972 1.21327,8.29877 -7.03697,16.20929 -15.16588,16.25782 -20.965306,3.25156 -44.260093,-16.18502 -40.353363,-38.09668 0.994882,-7.03697 4.658957,-13.56436 9.6091,-18.56304 z"
     id="path66"
     style="fill:#f4722b" />
  <path
     d="m 66.681327,846.86256 c 0.461043,-9.6091 7.109763,-16.98578 12.860664,-24.02275 4.197914,2.86332 8.371564,5.8237 12.423886,8.9054 -3.615545,4.99868 -8.371564,9.48778 -10.458389,15.4328 -1.164739,5.65384 -0.558104,11.47754 -0.436777,17.22844 4.003791,3.00891 7.983317,6.04208 11.938578,9.12379 3.081706,-0.7037 6.211943,-1.21327 9.196591,-2.20815 1.84417,-3.15451 3.13023,-6.62446 4.61042,-9.94882 -9.050992,-0.65517 -18.684357,-2.30521 -23.537437,-10.91943 8.274502,-0.67943 17.228437,-1.9655 24.847777,2.25668 7.91052,3.90673 15.62691,12.95773 11.84151,22.27564 -4.65896,8.61422 -15.9181,10.8709 -24.702178,8.03185 -15.675451,-4.17365 -30.67147,-18.90275 -28.584645,-36.15545 z"
     id="path68"
     style="fill:#f4722b" />
  <path
     d="m 837.0836,842.47052 c 5.45972,-4.99867 11.40474,-10.89516 19.33953,-10.96796 14.43791,-0.38825 29.55526,6.86711 36.88341,19.58218 5.1928,12.1327 5.12,27.95374 -3.66408,38.46066 -3.7854,5.09574 -10.7253,4.05233 -16.23355,4.97441 4.61043,-10.50692 11.08929,-21.20796 8.80834,-33.21934 -0.24265,-9.87602 -9.94881,-16.06369 -18.61156,-18.12625 -8.80834,-1.18901 -17.71375,0.14559 -26.52209,-0.7037 z"
     id="path70"
     style="fill:#f4722b" />
  <path
     d="m 217.02976,844.82427 c 202.2764,-0.0971 404.5528,-0.0243 606.8292,-0.0485 -0.0243,11.86579 0,23.75583 -0.0243,35.62162 -202.2764,-0.21839 -404.52853,0 -606.78066,-0.0971 0,-11.84151 0.0243,-23.65876 -0.0243,-35.47601 z"
     id="path72"
     style="fill:#f5e5c1" />
  <path
     d="m 55.082464,916.18882 c -7.303886,-14.55925 1.116209,-33.55906 15.505593,-40.03792 5.386919,0.29119 8.541422,5.21706 10.992227,9.39071 -4.246445,4.61043 -9.681895,8.12891 -13.24891,13.37024 -2.74199,5.0472 -3.32436,10.89516 -4.683222,16.42768 4.246445,4.14938 7.86199,9.39071 13.467298,11.84151 3.251564,-0.14559 6.503128,-0.38824 9.754692,-0.75222 0.218389,-2.91185 0.31545,-5.79944 0.291185,-8.68702 -7.279621,-3.7854 -16.233554,-6.84284 -16.961517,-16.40341 13.758484,1.11621 28.778768,8.54142 31.83621,23.17346 2.66919,5.45971 -2.086826,10.21573 -6.23621,13.10332 -6.236208,4.3435 -14.46218,2.42654 -20.843981,-0.53384 -9.099526,-3.97953 -15.772511,-12.05991 -19.873365,-20.89251 z"
     id="path74"
     style="fill:#f4722b" />
  <path
     d="m 826.2127,889.15716 c 15.38427,-14.55925 44.55128,-2.79052 46.00721,18.19905 0.0971,16.71886 -11.25915,30.67147 -21.40209,42.9255 -13.49156,16.13649 -34.18995,25.06616 -55.00967,25.79412 -4.46483,-0.24265 -8.08038,-3.3001 -11.96284,-5.09574 12.30256,-5.28985 25.6,-8.63848 36.61649,-16.57327 13.51583,-9.77895 27.44417,-20.77118 34.31128,-36.44663 3.88247,-9.39071 0.0971,-20.31014 -7.86199,-26.2309 -5.60531,-0.43678 -11.5018,5.77516 -11.23488,11.23488 3.0817,4.24645 7.74066,6.91564 11.89005,9.99735 -1.11621,3.00891 -2.23242,6.04208 -3.32436,9.07526 -9.29365,-1.11621 -17.15564,-6.04209 -23.48891,-12.69081 0.21838,-7.0127 -1.16474,-15.52986 5.45971,-20.18881 z"
     id="path76"
     style="fill:#f4722b" />
  <path
     d="m 529.05858,895.46616 c 11.21061,-4.27071 25.16322,-1.14047 33.72891,7.25536 8.3473,7.25535 7.69213,19.89763 4.99867,29.62805 -6.60019,16.6218 -18.07772,32.29725 -34.55393,40.15925 -9.02673,4.31924 -18.63583,8.10464 -28.68171,8.75981 -6.04208,0.43677 -9.80322,-4.92588 -13.56436,-8.68702 23.82863,-2.86332 45.42484,-16.98578 59.40171,-36.20398 5.79943,-7.69213 6.16341,-18.5873 0.53384,-26.44929 -2.76626,-5.84796 -11.93858,-5.92076 -15.16588,-0.48531 -6.30901,8.78408 0.6309,19.48512 2.37801,28.68171 -4.85308,-0.75223 -11.25915,1.28607 -14.77763,-3.05744 -8.71128,-11.79299 -8.95394,-32.32152 5.70237,-39.60114 z"
     id="path78"
     style="fill:#f4722b" />
  <path
     d="m 121.52114,936.96 c 2.20815,-12.93346 10.67677,-26.03678 24.50805,-28.22066 8.68702,-2.69346 17.3255,4.80455 17.88361,13.3945 1.57725,20.94104 -19.12114,41.80929 -40.35337,37.8055 -8.78407,-1.11621 -16.52474,-6.98844 -21.30502,-14.24379 -1.23754,-5.58105 3.90673,-10.28854 8.95393,-11.33195 6.96417,5.07147 12.73934,13.61289 22.32417,13.29744 12.15697,2.20815 20.18882,-10.84663 18.73289,-21.71753 -3.42142,-0.38825 -6.84284,-0.75223 -10.26426,-1.11621 -1.09195,4.17365 -2.18389,8.3473 -3.2273,12.52095 -2.6692,1.84417 -5.33839,3.63981 -8.03185,5.48398 -3.05744,-1.9655 -6.13915,-3.931 -9.22085,-5.87223 z"
     id="path80"
     style="fill:#f4722b" />
  <path
     d="m 447.28417,922.35223 c 9.17232,-20.86825 46.75943,-22.42123 54.06332,0.67943 1.69858,4.02806 2.91185,8.25024 4.27071,12.44815 -5.1928,18.12626 -17.73801,34.38408 -35.16057,42.14901 -19.16967,6.57592 -40.71735,2.69345 -58.38256,-6.55166 -4.87734,-2.40228 -7.95905,-7.01271 -10.96796,-11.33195 19.80057,-3.30009 37.7327,12.37536 57.41194,6.60019 16.57327,-4.02805 28.14787,-21.76606 25.33308,-38.50919 -1.98976,-6.11488 -11.84151,-10.60398 -16.20929,-4.24645 -8.68701,9.09953 -5.43545,22.08152 -4.14938,33.17081 -5.38692,0.97061 -10.8709,0.99488 -16.33062,1.16474 -5.65384,-11.01649 -6.43033,-24.77498 0.12133,-35.57308 z"
     id="path82"
     style="fill:#f4722b" />
  <path
     d="m 638.22863,914.92701 c 13.24891,-12.47241 35.79146,-9.05099 48.72492,2.23242 6.18768,4.4891 4.68323,13.22465 2.35375,19.38806 -4.97441,14.6563 -19.65498,22.25137 -32.27299,29.33687 -18.53876,8.42009 -39.74673,12.93346 -59.91128,8.32303 -14.12246,-3.03317 -29.9435,-6.13914 -38.82464,-18.75715 17.56815,-1.9655 33.2436,8.66275 50.66616,8.54142 16.76739,-0.0971 33.43772,-5.24133 47.85137,-13.68569 9.73043,-5.79943 13.80702,-16.98578 14.58351,-27.75962 -5.48398,-4.07659 -12.8364,-9.17232 -19.1454,-3.51848 -7.7892,8.32303 -8.08038,20.77118 -9.00247,31.54502 -4.80455,-0.0485 -9.6091,-0.14559 -14.41365,-0.29118 0.33972,-12.15697 1.31034,-25.6 9.39072,-35.3547 z"
     id="path84"
     style="fill:#f4722b" />
  <path
     d="m 190.72607,923.37137 c 6.45459,-17.13137 35.79147,-19.89763 43.38654,-2.40227 5.87222,9.39071 2.11109,21.35355 -4.39204,29.36114 -6.74578,8.08038 -15.04455,16.03943 -25.84266,17.85933 -14.09819,2.62067 -28.94862,-0.43677 -41.37251,-7.32815 -3.0817,-2.08682 -7.40095,-4.34351 -6.89137,-8.68701 13.44303,-1.57725 25.43014,6.33327 38.63052,6.91564 12.30256,-1.43166 23.51318,-10.33706 26.13384,-22.68815 2.4508,-6.04209 0.43678,-14.75337 -7.0127,-15.67545 -3.95526,-2.23242 -5.84796,3.63981 -7.95905,5.89649 -4.99868,7.23109 -1.81991,16.13649 -0.36399,23.99848 -4.22218,-0.0971 -8.44436,0.0243 -12.64227,-0.58237 -7.25536,-6.67298 -5.28986,-18.56303 -1.67431,-26.66768 z"
     id="path86"
     style="fill:#f4722b" />
  <path
     d="m 283.34711,911.4328 c 11.72019,-4.12512 27.75962,-4.10086 35.79147,6.89137 6.72151,8.10465 6.18768,19.46085 4.17365,29.19128 -6.01782,21.93592 -29.21555,36.64076 -51.51545,35.69441 -18.10199,-0.46104 -37.99962,-5.67811 -49.57422,-20.62559 19.89763,-4.44057 37.8055,11.79298 57.5818,6.309 15.60265,-3.71261 26.49782,-19.1454 26.66768,-34.86938 0.46104,-8.46863 -12.49668,-15.77252 -17.56815,-7.20683 -8.29877,9.36645 -5.92076,22.20285 -3.05744,33.17081 -6.67299,-0.46105 -16.84019,2.74199 -19.63072,-5.77517 -4.24644,-15.60265 0.7037,-36.44663 17.13138,-42.7799 z"
     id="path88"
     style="fill:#f4722b" />
  <path
     d="m 711.82559,929.58332 c 3.08171,-9.29365 10.04588,-19.63071 20.91678,-19.87337 20.45573,-0.26692 42.56152,12.32683 47.3418,33.29214 0.60664,8.58995 -1.94123,17.05857 -3.08171,25.5272 -8.8326,8.12891 -17.08284,20.91678 -30.98691,17.44682 8.80834,-9.63336 19.7035,-20.52853 17.20417,-34.91791 0.31545,-14.14673 -11.59887,-25.62427 -25.47868,-26.27943 -5.72663,1.45592 -7.49801,8.75981 -6.67298,13.92834 2.83905,11.28341 13.37023,17.54389 20.89251,25.47867 -0.46104,3.54275 -1.57725,9.99735 -6.55166,7.74067 -18.49024,-4.31925 -36.64076,-22.10579 -33.58332,-42.34313 z"
     id="path90"
     style="fill:#f4722b" />
  <path
     d="m 356.65289,933.78123 c 6.04209,-18.36891 36.83488,-21.08663 44.33289,-2.54787 5.7509,9.14806 1.28607,20.21309 -4.51336,28.09934 -7.03697,8.58995 -16.03943,16.86446 -27.51697,18.41744 -17.76227,2.6692 -36.93194,-2.74199 -49.88967,-15.40853 14.70484,-2.71772 28.41479,4.31924 42.56152,6.89138 7.0855,-3.46996 15.50559,-5.79944 20.21308,-12.64228 4.27071,-6.13915 6.69725,-13.90407 5.0472,-21.37782 -2.20815,-4.34351 -9.17232,-7.47374 -12.6908,-2.88758 -7.03697,7.52227 -4.41631,18.36891 -3.56702,27.5655 -4.4891,0.0243 -9.00246,0.0243 -13.49156,0 -2.98465,-8.39583 -5.07147,-17.85934 -0.48531,-26.10958 z"
     id="path92"
     style="fill:#f4722b" />
  <path
     d="m 652.49668,975.66332 c 3.32436,-2.23242 6.67299,-4.44057 10.04588,-6.60019 13.56436,6.52739 26.44929,14.34085 39.84379,21.20796 -18.07772,4.05232 -35.69441,-3.97953 -49.88967,-14.60777 z"
     id="path94"
     style="fill:#f4722b" />
</svg>
