<?xml version="1.0" encoding="UTF-8" standalone="no"?>
<svg
   xmlns:dc="http://purl.org/dc/elements/1.1/"
   xmlns:cc="http://creativecommons.org/ns#"
   xmlns:rdf="http://www.w3.org/1999/02/22-rdf-syntax-ns#"
   xmlns:svg="http://www.w3.org/2000/svg"
   xmlns="http://www.w3.org/2000/svg"
   xmlns:sodipodi="http://sodipodi.sourceforge.net/DTD/sodipodi-0.dtd"
   xmlns:inkscape="http://www.inkscape.org/namespaces/inkscape"
   width="1280"
   height="1280"
   viewBox="0 0 1024 1024"
   version="1.1"
   id="svg2"
   inkscape:version="0.48.1 "
   sodipodi:docname="kill_healed_spy.svg">
  <metadata
     id="metadata58">
    <rdf:RDF>
      <cc:Work
         rdf:about="">
        <dc:format>image/svg+xml</dc:format>
        <dc:type
           rdf:resource="http://purl.org/dc/dcmitype/StillImage" />
      </cc:Work>
    </rdf:RDF>
  </metadata>
  <defs
     id="defs56" />
  <sodipodi:namedview
     pagecolor="#ffffff"
     bordercolor="#666666"
     borderopacity="1"
     objecttolerance="10"
     gridtolerance="10"
     guidetolerance="10"
     inkscape:pageopacity="0"
     inkscape:pageshadow="2"
     inkscape:window-width="1920"
     inkscape:window-height="1018"
     id="namedview54"
     showgrid="false"
     inkscape:zoom="0.44739336"
     inkscape:cx="666.08051"
     inkscape:cy="498.37528"
     inkscape:window-x="-8"
     inkscape:window-y="-8"
     inkscape:window-maximized="1"
     inkscape:current-layer="layer2"
     inkscape:snap-page="true" />
  <g
     inkscape:groupmode="layer"
     id="layer2"
     inkscape:label="background">
    <rect
       style="fill:#3e3e3e;fill-opacity:1;fill-rule:nonzero;stroke:none"
       id="rect3028"
       width="1280"
       height="1280"
       x="0"
       y="0"
       transform="scale(0.8,0.8)" />
  </g>
  <g
     inkscape:groupmode="layer"
     id="layer1"
     inkscape:label="foreground">
    <path
       style="fill:#f5e5c1"
       d="M 287.40625 279 C 248.4977 279.27025 210.48596 291.83329 176.3125 309.875 C 144.94946 331.31955 114.07139 355.24632 92.6875 387.125 C 71.940581 428.25485 66.16875 477.25149 78.96875 521.6875 C 88.462589 548.53111 105.66964 571.55811 119.53125 596.1875 C 128.02415 612.20266 138.56318 627.1135 146.84375 643.25 C 146.9954 657.3846 139.31241 671.15125 142.40625 685.4375 C 147.28966 697.87353 156.40696 707.92891 163.65625 719 C 178.82214 741.77915 196.86797 762.67686 217.28125 780.90625 C 231.50684 789.73279 250.21375 785.3913 264.5 794.1875 C 276.75404 801.9221 285.85543 813.38205 295.53125 823.9375 C 321.64689 852.41902 349.36784 879.40725 374.9375 908.34375 C 388.73845 918.71721 404.74506 926.31583 416.96875 938.8125 C 446.99719 971.63146 481.80502 999.72995 517.6875 1025.9062 C 536.64484 1040.5261 562.14087 1044.7529 585.375 1040.7188 C 612.91624 1034.1974 636.70981 1017.6971 660.15625 1002.5312 C 636.86146 998.73979 613.76351 993.82191 591.5 985.875 C 560.89526 974.92524 529.33179 967.02689 497.96875 958.625 C 549.25974 896.29324 601.03711 834.40711 652.84375 772.5 C 625.54516 745.77773 613.16505 708.88696 594.875 676.25 C 582.80296 647.4955 564.46345 621.35474 557.0625 590.75 C 557.54781 570.00307 563.95975 548.66326 557.46875 528.25 C 545.63936 495.34004 524.58424 466.91348 503.625 439.28125 C 499.40889 433.94286 494.59396 428.06436 487.375 427.09375 C 481.36931 424.90986 473.07272 425.88069 469.28125 419.875 C 447.53339 389.90722 428.07604 358.34734 404.78125 329.5625 C 376.96704 296.44023 332.742 283.36869 291.1875 279.03125 C 289.93063 279.01419 288.66136 278.99128 287.40625 279 z M 284.46875 290.65625 C 302.3114 290.82308 320.09971 293.90791 336.8125 300.15625 C 360.77459 307.95151 380.39195 324.73113 398.5 341.65625 C 413.90854 359.12734 424.4702 380.19797 437.9375 399.125 C 447.46166 412.01599 453.25423 427.8168 465.78125 438.28125 C 475.85139 437.49262 488.51728 435.50891 495.28125 445.09375 C 513.96561 470.02645 528.7579 497.76665 541.40625 526.1875 C 553.7816 553.85006 533.9104 585.9018 549.53125 612.59375 C 569.94452 652.90465 590.98843 692.92621 610.21875 733.84375 C 617.43771 747.67503 625.0963 761.32497 632.40625 775.15625 C 585.17971 833.15057 537.95353 891.13159 492.03125 950.1875 C 489.66537 953.70599 486.22243 957.07615 486.34375 961.65625 C 516.97883 978.46004 552.02295 984.09068 584.78125 995.34375 C 598.61253 1000.3788 613.85074 1001.463 626.46875 1009.5312 C 613.21378 1016.2649 600.63922 1025.5404 585.625 1027.9062 C 568.97287 1030.2721 551.21736 1030.4671 535.6875 1023.1875 C 505.26475 1007.5667 481.00993 983.076 455.53125 960.8125 C 439.60708 946.49591 425.64755 929.97097 408.84375 916.625 C 398.65229 908.10179 384.63261 905.19699 375.59375 895.1875 C 340.16626 854.02731 303.74475 813.30984 262.28125 778.125 C 254.57699 770.39041 242.95709 773.72615 233.28125 771.90625 C 221.36087 771.17829 213.97725 760.30353 206 752.78125 C 185.40474 732.15565 168.10699 708.14873 155.125 682.09375 C 152.51647 667.50418 159.26923 653.35244 161.96875 639.1875 C 148.47113 625.65954 138.55447 609.17236 130.03125 592.15625 C 113.53078 563.94772 94.081072 536.2013 87.46875 503.625 C 86.103821 486.3359 81.773815 468.97476 84.625 451.625 C 89.47808 417.53211 105.01489 384.53194 130.28125 360.8125 C 158.0348 331.72435 194.35186 312.39652 231.78125 298.65625 C 248.70637 293.25719 266.6261 290.48942 284.46875 290.65625 z "
       id="path6"
       transform="scale(0.8,0.8)" />
    <path
       d="m 867.51242,257.23754 c 0.70369,-6.43034 6.23621,-12.05991 12.88493,-12.03564 12.35109,0.26692 24.45952,3.20303 36.73782,4.4163 7.25535,1.14047 16.52474,1.2618 20.62559,8.54142 3.13024,4.02806 1.48019,9.24512 1.189,13.85555 -2.03829,14.12246 -4.07658,28.24492 -6.13914,42.36739 18.46597,2.74199 36.9562,5.38692 55.49497,7.78919 6.35754,16.03943 -1.23753,32.90389 -2.03829,49.28304 0.0971,9.41497 -6.81858,16.20929 -13.66142,21.62047 -16.67033,-1.52872 -33.17081,-4.27071 -49.74408,-6.62445 -2.47507,15.2144 -3.88246,30.62293 -6.60019,45.81308 -1.04341,7.30388 -8.83261,12.22976 -15.94237,10.7981 -14.58351,-1.67431 -29.19128,-3.71261 -43.67772,-6.16341 -7.23109,-0.48531 -13.05479,-7.23109 -11.98711,-14.48645 1.11621,-15.45706 4.44057,-30.67147 6.04208,-46.08 -16.59753,-2.23241 -33.19507,-4.4163 -49.74407,-7.06123 -3.10597,-4.80455 -6.21195,-9.87602 -7.7164,-15.4328 0.29118,-12.18123 3.37289,-24.11981 4.36777,-36.25251 0.53384,-7.49801 3.63981,-14.38938 7.35242,-20.81971 18.70862,2.28094 37.34445,5.09573 56.02881,7.6436 2.18389,-15.72398 3.97953,-31.49649 6.5274,-47.17194 z"
       id="path10"
       style="fill:#f4722b" />
    <path
       style="fill:#f5e5c1"
       d="M 427.84375 451.40625 C 425.21959 451.42471 422.47142 451.93172 419.65625 453.03125 C 405.64299 458.06631 396.76869 470.8205 386.03125 480.375 C 368.43884 496.20819 351.65592 513.17521 331 525.15625 C 304.67204 545.05389 273.363 556.1173 243.03125 568.25 C 225.59049 574.28602 207.55367 581.48581 194.875 595.46875 C 187.01911 605.23558 184.9402 618.74137 187.09375 630.84375 C 194.4947 651.22669 209.03996 668.09152 225.84375 681.4375 C 239.94801 695.20811 259.74576 702.1737 279.21875 702.75 C 295.87089 702.56801 304.68077 686.54994 314.78125 675.8125 C 330.52342 659.22104 341.55551 638.0454 360.9375 625.09375 C 369.82471 618.2691 381.13205 616.41185 391.6875 613.5 C 415.2856 607.22132 439.8569 603.4516 461.96875 592.5625 C 471.70525 587.01179 482.40255 579.37995 483.3125 567.15625 C 485.95136 535.5809 477.01793 503.521 461.09375 476.34375 C 453.31366 465.39019 442.0142 451.30657 427.84375 451.40625 z M 391.40625 494.40625 C 398.01857 494.40625 404.60643 494.40713 411.21875 494.4375 C 410.82444 503.992 410.13881 513.508 409.5625 523.0625 C 421.69521 524.09379 433.8048 525.21689 445.9375 526.1875 C 444.90623 534.28607 443.87504 542.36925 442.84375 550.4375 C 431.28735 549.5882 419.77515 548.63605 408.21875 547.96875 C 407.58179 558.4332 407.0138 568.91146 406.4375 579.40625 C 399.85551 579.40625 393.30166 579.40538 386.75 579.375 C 386.41635 568.21291 386.59371 557.07018 387.625 545.96875 C 375.64395 544.90714 363.66946 543.96785 351.71875 542.90625 C 352.29505 535.56596 352.51925 528.1252 354.1875 520.90625 C 365.47091 516.72046 377.7276 520.88139 389.375 521.09375 C 390.22429 512.20655 390.86028 503.29345 391.40625 494.40625 z M 269.96875 582.375 C 277.3697 583.58828 284.75346 585.01557 292.09375 586.5625 C 289.78854 596.35966 287.87965 606.2056 285.96875 616.09375 C 298.55643 619.27859 311.20095 622.57429 323 628.125 C 320.96777 633.58471 318.93847 639.07245 316.90625 644.5625 C 305.31952 641.37766 293.70348 638.2859 281.84375 636.375 C 279.05324 647.14276 276.77305 658.01624 274.4375 668.875 C 266.82424 666.90344 259.27044 664.78314 251.6875 662.78125 C 253.75006 652.37745 257.86031 642.0821 257.375 631.375 C 249.00344 626.76456 239.63261 624.60303 230.59375 621.8125 C 232.56531 615.26084 234.5606 608.7079 236.5625 602.15625 C 245.63169 604.73445 254.64864 607.39146 263.6875 610 C 265.81072 600.77914 267.87586 591.56552 269.96875 582.375 z "
       id="path12"
       transform="scale(0.8,0.8)" />
    <path
       d="m 638.51981,469.0745 c 8.83261,-3.32436 17.39829,-7.5708 26.64341,-9.58483 3.51849,-0.92209 6.62446,1.77137 7.93479,4.82881 3.83393,7.91052 6.40607,16.35488 9.39071,24.62939 9.87602,-3.61555 19.46085,-8.4201 29.87071,-10.28853 5.31412,9.5363 8.29877,20.16455 11.76872,30.45308 -1.23753,2.35374 -2.47507,4.75602 -3.68834,7.15829 -8.08038,2.98464 -16.11223,6.01782 -24.21687,8.88114 3.34862,9.12379 7.81346,17.98066 9.56057,27.61403 -5.72664,7.35241 -16.01517,8.54142 -24.14408,12.10843 -3.90673,0.84929 -10.45839,4.53763 -12.66654,-0.67943 -4.07659,-8.00758 -6.62445,-16.6946 -9.56057,-25.16322 -8.10464,3.17877 -16.23355,6.18768 -24.21687,9.56057 -3.08171,-1.48019 -6.26047,-2.74199 -9.22085,-4.46484 -5.21706,-9.12379 -7.7164,-19.48511 -10.43413,-29.57952 9.82749,-4.27071 19.8491,-8.08038 29.91925,-11.74446 -3.3001,-9.02673 -6.69726,-18.00493 -10.11868,-26.95886 1.04341,-2.28095 2.11109,-4.53763 3.17877,-6.77005 z"
       id="path16"
       style="fill:#f4722b" />
    <path
       d="m 811.84758,478.17403 c 0.84929,-6.21194 6.72152,-11.40474 13.07906,-10.9437 13.07905,0.7037 26.01251,3.08171 39.04303,4.41631 7.91052,0.36398 18.15052,3.97952 18.05346,13.51582 -0.97062,16.42768 -4.00379,32.66124 -5.79943,49.01612 18.00493,2.23241 35.98559,4.65896 54.01478,6.57592 2.11109,5.55678 3.73688,11.42901 2.79052,17.42256 -1.60151,11.98711 -2.54786,24.09555 -4.70748,36.00986 -0.97062,7.42521 -7.93479,11.5746 -12.73934,16.52474 -16.01517,-2.11109 -32.03033,-4.02806 -48.06976,-6.01782 -2.0383,14.60777 -3.13024,29.3854 -5.55678,43.94464 -0.75223,7.1583 -7.7164,12.71508 -14.89896,11.6474 -13.05478,-1.14048 -26.03677,-3.08171 -39.04303,-4.65896 -7.23109,-0.16986 -15.9181,-4.17365 -16.20929,-12.37536 0.38825,-15.86957 3.7854,-31.49649 5.28986,-47.29327 -15.96664,-1.98976 -31.93327,-4.07658 -47.94844,-5.89649 -3.17877,-5.50824 -8.63848,-10.43412 -8.2745,-17.30123 0.24265,-12.22976 2.64493,-24.28967 3.80967,-36.44664 1.04341,-5.92075 1.62578,-13.54009 7.74066,-16.57327 17.93213,-0.0728 35.57308,4.24645 53.43242,5.70237 2.15962,-15.74824 3.44569,-31.59355 5.99355,-47.269 z"
       id="path20"
       style="fill:#f4722b" />
    <path
       d="m 376.76891,594.91488 c 20.52853,-11.69592 44.72114,-15.2872 68.06445,-14.53498 -31.05971,10.43413 -63.76947,18.70863 -90.55848,38.46067 -5.09573,3.93099 -8.68701,9.29365 -12.10843,14.63204 2.03829,0.87355 6.09061,2.62066 8.12891,3.49421 -0.82503,1.01915 -2.47508,3.05745 -3.32436,4.07659 -6.11489,0.0243 -12.81214,1.9655 -18.51451,-1.14047 -4.10085,-5.38692 1.98977,-10.8709 5.24133,-14.92322 12.39962,-12.47242 27.5655,-21.96019 43.07109,-30.06484 z"
       id="path22"
       style="fill:#f5e5c1" />
    <path
       d="m 581.35052,607.96967 c 6.11488,-1.35886 14.38939,-6.3818 19.55792,-0.53384 4.9744,9.48777 7.0127,20.16455 10.70104,30.18616 10.89516,-3.56701 21.79033,-7.23109 32.78256,-10.50692 4.97441,11.47754 9.92455,23.19773 11.74445,35.64588 -0.58237,2.81478 -1.55298,6.33327 -4.51336,7.54654 -8.54142,3.80967 -17.68948,5.99355 -26.49782,9.05099 2.93611,9.73043 7.20682,19.14541 8.68701,29.26408 -0.53384,6.50313 -7.91052,7.59507 -12.73933,9.68189 -7.86199,2.40228 -15.57839,5.99356 -23.90143,6.26048 -3.68834,-0.14559 -5.38692,-3.8582 -6.60019,-6.79431 -3.17876,-7.98332 -5.41118,-16.30635 -8.15317,-24.45953 -9.31792,2.83905 -18.61156,5.84796 -27.78389,9.17232 -3.66407,-2.69346 -8.92967,-4.10085 -10.53118,-8.80834 -3.20304,-7.76493 -5.87223,-15.77251 -7.6436,-23.94995 -0.75223,-3.1545 -0.92209,-7.61934 3.10597,-8.32303 9.39071,-4.14939 19.43659,-6.50313 29.16701,-9.6819 -2.5964,-10.96796 -8.66275,-21.42635 -8.66275,-32.75829 3.80967,-7.47375 14.171,-7.86199 21.28076,-10.99223 z"
       id="path24"
       style="fill:#f4722b" />
    <path
       d="m 735.89687,667.75962 c 6.77005,-5.07147 14.68057,1.69858 21.25649,3.97953 6.43034,3.97952 17.78655,5.72663 17.93214,14.99602 -3.2273,10.53118 -8.9782,20.01895 -13.3945,30.06483 11.06502,4.97441 22.03298,10.1672 32.85535,15.69972 -6.35753,13.46729 -9.17232,30.6472 -22.76095,38.94597 -9.70616,-4.68323 -19.50938,-9.19659 -29.26407,-13.78275 -4.87735,9.48777 -8.25024,19.8491 -14.43792,28.60891 -6.72151,4.07659 -14.00114,-1.86844 -20.33441,-4.10085 -6.43033,-3.76114 -15.79677,-5.36266 -18.73289,-13.03053 1.35887,-11.08929 8.51716,-20.50426 12.71507,-30.72 -9.56056,-4.51336 -19.09687,-9.07526 -28.70597,-13.41876 -0.5581,-4.51337 -2.83905,-9.24512 -0.94635,-13.68569 3.95526,-10.43412 8.51716,-20.94104 16.20929,-29.21555 10.82237,5.24133 21.71754,10.3128 32.66123,15.26294 5.12,-9.77895 8.4201,-20.64985 14.94749,-29.60379 z"
       id="path26"
       style="fill:#f4722b" />
    <path
       d="m 475.31071,705.90483 c 6.69725,-8.37156 18.12626,-9.36644 27.58976,-5.58104 0.33972,5.04721 5.12,11.55033 -0.38824,15.31147 -4.58616,4.73175 -11.5746,4.4891 -17.49536,6.18768 -7.7164,1.23753 -12.66654,7.91052 -18.05346,12.86066 0.21839,-9.97308 -0.21839,-21.83886 8.3473,-28.77877 z"
       id="path28"
       style="fill:#f5e5c1" />
    <path
       d="m 883.62464,713.6455 c 1.98977,-4.97441 3.59128,-11.11356 9.00247,-13.44304 7.35242,-1.8927 14.51071,1.81991 21.40208,3.95527 9.46351,3.73687 19.46086,6.16341 28.56038,10.74957 4.68323,2.15962 6.30901,7.86199 5.24133,12.59374 -3.20303,14.34086 -10.62825,27.39564 -13.37024,41.85782 14.19526,9.00247 32.17593,9.73043 46.41972,18.70863 2.86332,10.43412 -3.59128,20.23734 -6.33327,30.0163 -3.7854,11.04076 -6.93991,26.40076 -21.08664,27.80815 -14.36511,-2.81478 -27.56549,-9.80322 -41.73649,-13.54009 -4.85308,12.81213 -8.58995,26.06104 -13.85554,38.72758 -2.11109,6.60019 -10.19147,9.80322 -16.37915,6.91564 C 869.211,873.84569 856.9327,869.67204 844.8,865.11014 c -5.55678,-1.79564 -10.28853,-7.27962 -8.80834,-13.41877 3.56701,-14.12246 9.41498,-27.56549 14.21952,-41.29971 -14.26805,-4.63469 -28.31772,-9.99735 -42.63431,-14.43792 -2.57213,-6.8671 -5.58104,-14.31658 -2.79052,-21.64474 3.88247,-11.67165 7.49801,-23.51317 12.47242,-34.77232 1.65005,-4.46483 6.47886,-7.6436 11.18635,-5.6781 14.55924,4.24644 28.65744,9.92455 42.97403,14.85042 4.24644,-11.62312 8.2017,-23.36758 12.20549,-35.0635 z"
       id="path30"
       style="fill:#f4722b" />
    <path
       d="m 507.21972,743.75886 c 11.30767,-5.87222 24.53232,-6.98843 36.88341,-4.22218 10.53118,2.5236 18.5873,10.96796 23.75583,20.11602 2.76625,6.16341 2.98464,14.60777 -2.20815,19.60645 -4.51337,4.65895 -12.01138,4.65895 -17.78654,2.71772 -11.06503,-5.50824 -13.78275,-18.4417 -18.29612,-28.77877 -4.68322,-7.66786 -14.58351,-7.71639 -22.34843,-9.43924 z"
       id="path32"
       style="fill:#f5e5c1" />
    <path
       d="m 286.18616,744.82654 c 5.96929,-3.08171 12.78787,-1.69858 19.19393,-1.52872 1.55299,18.44171 3.17877,36.85915 4.19792,55.34938 1.45592,12.95773 1.09194,26.32797 5.6781,38.72759 12.37536,36.34957 23.56171,73.08739 35.76721,109.48549 4.61042,13.27318 11.89004,25.38162 17.8108,38.07242 -41.90635,1.62578 -83.88549,0.26692 -125.84038,0.75223 8.29877,-11.74446 17.17991,-23.05213 25.0419,-35.06351 -10.50692,-3.39715 -23.36758,-2.5236 -32.17592,-9.36644 -1.77138,-58.18844 -0.89782,-116.52247 -2.76626,-174.73517 17.76227,-7.10976 35.50028,-14.19526 53.0927,-21.69327 z"
       id="path34"
       style="fill:#f5e5c1" />
    <path
       d="m 315.88701,745.16626 c 27.39564,26.54635 53.21403,54.96113 83.49726,78.32872 10.99222,7.10976 23.97421,10.21573 35.84,15.50559 -9.94882,19.09687 -19.80057,38.21801 -29.70086,57.33915 -10.89516,-7.18256 -21.69327,-14.51072 -32.17592,-22.29991 -18.90275,-14.55924 -32.22446,-34.72379 -45.35204,-54.30597 -3.80967,-5.55678 -6.79431,-11.74446 -7.83772,-18.44171 -3.2273,-18.53877 -2.40228,-37.44151 -4.27072,-56.12587 z"
       id="path36"
       style="fill:#f5e5c1" />
    <path
       d="m 108.32076,817.2345 c 37.90256,-15.38426 75.90218,-30.52587 113.75621,-46.08 0.41251,55.95602 0.77649,111.88777 1.06767,167.81953 0.0243,3.03317 0.33972,6.04208 0.94636,9.02673 7.76492,3.44569 16.20928,5.0472 24.38673,7.32815 -6.81858,10.04588 -13.51583,20.16455 -20.23735,30.28322 -55.90749,0.12133 -111.79071,0.0243 -167.6982,0.0485 11.962844,-51.8066 23.052133,-103.83163 35.2091,-155.58973 0.873554,-6.79431 6.64872,-10.62825 12.56948,-12.8364 z"
       id="path38"
       style="fill:#f5e5c1" />
    <path
       d="m 596.10389,795.97801 c 10.26426,0.50957 19.89763,4.14938 29.74938,6.69725 13.66142,3.61555 27.34711,7.15829 40.98427,10.84664 1.7471,44.40568 3.42142,88.81137 5.31412,133.19279 -8.10465,9.00247 -16.64607,17.66522 -26.18237,25.16322 4.85308,3.90673 9.6091,7.93479 14.19526,12.15697 -31.05972,0.94635 -62.16796,-0.5581 -93.22768,0.67943 5.62958,-20.81971 14.24379,-41.08132 15.77251,-62.79886 4.4891,-41.97915 9.17233,-83.93403 13.39451,-125.93744 z"
       id="path40"
       style="fill:#f5e5c1" />
    <path
       d="m 511.73308,822.13611 c 14.24379,-6.16341 26.03678,-17.54388 41.5181,-20.79545 6.96418,-0.4853 13.73422,1.72285 20.50427,3.13024 -9.63336,16.6946 -20.35867,32.78256 -31.909,48.19109 -11.50181,12.98199 -21.86313,27.5655 -36.95621,36.71356 -9.75469,-16.71887 -19.43659,-33.462 -29.11849,-50.20512 11.98711,-5.65384 23.82863,-11.67166 35.96133,-17.03432 z"
       id="path42"
       style="fill:#f5e5c1" />
    <path
       d="m 555.16815,851.2546 c 10.67678,-14.19526 17.64095,-30.67147 27.25005,-45.54616 5.70237,5.12 2.64493,12.86066 2.32948,19.36379 -4.44057,34.82085 -6.98844,69.93289 -13.20038,104.51109 -4.44057,18.53877 -8.39583,37.17459 -13.56436,55.5435 -15.23867,0.0971 -30.50161,0.0243 -45.74029,0.0485 -7.81346,-23.97422 -15.19014,-48.06977 -23.24625,-71.94692 5.28986,-7.64361 15.2872,-8.39583 22.00872,-14.21953 9.58483,-8.08038 20.81971,-14.68057 28.00227,-25.21175 5.38692,-7.52228 10.70105,-15.09308 16.16076,-22.54256 z"
       id="path44"
       style="fill:#f5e5c1" />
    <path
       d="m 679.57687,816.84626 c 27.71109,7.37668 55.47071,14.6563 83.20607,21.96019 5.16853,1.14047 10.26426,3.97952 12.27829,9.17232 17.85934,45.86161 36.4709,91.4563 54.64569,137.19659 -45.25498,0.0243 -90.53422,-0.0728 -135.78919,0.0485 -12.64228,0.99488 -21.2565,-10.16721 -31.30237,-15.9909 6.81857,-6.86711 15.11734,-12.52095 20.43146,-20.72266 0.80076,-14.46218 -1.23753,-28.94862 -1.16473,-43.4108 -0.0243,-29.43394 -1.18901,-58.84361 -2.30522,-88.25327 z"
       id="path46"
       style="fill:#f5e5c1" />
    <path
       d="m 329.91242,843.39261 c 12.56948,13.68568 23.0036,29.53099 38.04815,40.76587 10.45839,8.15318 20.06749,17.3983 30.86559,25.09043 7.7164,3.46995 16.57327,0.58237 24.70218,0.38825 -4.97441,25.18748 -9.99734,50.35071 -14.89896,75.5382 -6.55165,0 -13.10331,-0.0243 -19.65497,-0.16986 -9.94882,-13.56436 -21.23223,-26.52209 -28.70597,-41.6637 -9.99735,-33.34066 -20.38294,-66.58426 -30.35602,-99.94919 z"
       id="path48"
       style="fill:#f5e5c1" />
    <path
       d="m 421.90256,893.33081 c 8.03185,-16.25782 16.16076,-32.44285 24.19261,-48.70067 5.96928,0.16986 11.96284,0.33972 17.95639,0.67943 8.05612,14.46218 16.01517,28.99716 24.11981,43.45934 -4.87734,5.6781 -9.63336,11.47754 -14.51071,17.17991 -7.42521,0.12132 -14.87469,0.89782 -22.2999,0.29118 -10.33706,-2.98464 -19.60645,-8.68701 -29.4582,-12.90919 z"
       id="path50"
       style="fill:#f5e5c1" />
    <path
       d="m 436.77725,913.10711 c 12.39962,2.03829 24.99337,2.32948 37.36872,-0.14559 6.09062,24.3382 14.171,48.09403 21.59621,72.04398 -24.16834,0.36398 -48.33668,0.0728 -72.52929,0.16986 4.53763,-24.02275 10.07014,-47.87564 13.56436,-72.06825 z"
       id="path52"
       style="fill:#f5e5c1" />
  </g>
</svg>
