<?xml version="1.0" encoding="UTF-8" standalone="no"?>
<svg
   xmlns:dc="http://purl.org/dc/elements/1.1/"
   xmlns:cc="http://creativecommons.org/ns#"
   xmlns:rdf="http://www.w3.org/1999/02/22-rdf-syntax-ns#"
   xmlns:svg="http://www.w3.org/2000/svg"
   xmlns="http://www.w3.org/2000/svg"
   xmlns:sodipodi="http://sodipodi.sourceforge.net/DTD/sodipodi-0.dtd"
   xmlns:inkscape="http://www.inkscape.org/namespaces/inkscape"
   width="1280"
   height="1280"
   viewBox="0 0 1024 1024"
   version="1.1"
   id="svg2"
   inkscape:version="0.48.1 "
   sodipodi:docname="save_falling_teammate.svg">
  <metadata
     id="metadata88">
    <rdf:RDF>
      <cc:Work
         rdf:about="">
        <dc:format>image/svg+xml</dc:format>
        <dc:type
           rdf:resource="http://purl.org/dc/dcmitype/StillImage" />
      </cc:Work>
    </rdf:RDF>
  </metadata>
  <defs
     id="defs86" />
  <sodipodi:namedview
     pagecolor="#ffffff"
     bordercolor="#666666"
     borderopacity="1"
     objecttolerance="10"
     gridtolerance="10"
     guidetolerance="10"
     inkscape:pageopacity="0"
     inkscape:pageshadow="2"
     inkscape:window-width="1920"
     inkscape:window-height="1018"
     id="namedview84"
     showgrid="false"
     inkscape:zoom="0.6609375"
     inkscape:cx="640"
     inkscape:cy="640"
     inkscape:window-x="-8"
     inkscape:window-y="-8"
     inkscape:window-maximized="1"
     inkscape:current-layer="layer2"
     inkscape:snap-page="true" />
  <g
     inkscape:groupmode="layer"
     id="layer2"
     inkscape:label="background">
    <rect
       style="fill:#3e3e3e;fill-opacity:1;fill-rule:nonzero;stroke:none"
       id="rect3012"
       width="1280"
       height="1280"
       x="0"
       y="0"
       transform="scale(0.8,0.8)" />
  </g>
  <g
     inkscape:groupmode="layer"
     id="layer1"
     inkscape:label="foreground">
    <path
       d="m 589.5037,38.63052 c 0.33971,-6.21194 5.7509,-11.47753 12.08417,-10.99223 15.40853,-0.50957 30.86559,-0.84929 46.29839,-1.01914 6.60019,-0.24266 10.7253,6.50312 10.89516,12.47241 0.82503,14.58351 0.46104,29.21555 0.89782,43.79906 13.92834,-0.0485 27.83242,-1.4074 41.73649,-0.87356 5.8237,-0.0728 12.44816,3.76114 12.49669,10.19147 0.65516,16.20929 0.75222,32.46711 0.46104,48.6764 0.41251,5.84796 -5.55678,10.09441 -10.89517,10.43412 -14.00113,0.82503 -28.0508,0.33972 -42.0762,0.72796 0,13.20038 1.189,26.42503 0.29118,39.60114 -0.41251,5.65384 -5.79943,9.85176 -11.33194,9.6819 -15.4328,0.75222 -30.91413,0.87355 -46.37119,0.75222 -5.92076,0.53384 -10.62824,-4.9744 -10.91943,-10.53118 -0.99488,-12.71507 -0.38825,-25.50294 -0.82502,-38.24227 -13.85555,-0.0243 -27.73536,1.43165 -41.56664,0.19412 -5.24132,-0.46104 -10.55545,-4.61043 -10.31279,-10.26427 -0.60664,-15.33573 -0.33972,-30.72 -0.84929,-46.08 -0.92209,-6.47886 4.4891,-12.1327 10.74957,-12.61801 13.37024,-1.189 26.81327,-0.36398 40.20777,-0.84929 0.0485,-15.04455 -1.91696,-30.06483 -0.97061,-45.06085 z"
       id="path6"
       style="fill:#f4722b" />
    <path
       d="m 795.68682,75.48967 c 17.05858,-1.23754 34.18996,-1.65005 51.2728,-2.62067 6.98844,-0.87355 12.88493,5.53252 13.29744,12.18124 1.23754,16.79166 2.06256,33.60758 2.86332,50.4235 15.65118,-0.89782 31.3509,-1.8199 47.05062,-2.13535 6.89137,-0.58237 14.24379,4.39204 14.31658,11.74445 1.21327,17.98067 1.98977,36.03413 2.45081,54.06332 0.36398,7.42521 -7.27962,12.10844 -13.95261,12.25403 -15.19014,0.89782 -30.42881,1.38313 -45.61896,2.06256 0.19413,13.80701 2.15963,27.51697 2.08683,41.32398 0.36398,6.28474 -3.80967,13.32171 -10.48265,13.95261 -16.86446,2.37801 -33.99583,1.62578 -50.93309,3.20303 -7.10976,1.43166 -15.19014,-2.96038 -16.06369,-10.53119 -1.98977,-14.5835 -1.91697,-29.36113 -2.74199,-44.0417 -15.60266,0.0971 -31.15678,2.08682 -46.73517,1.60152 -6.64872,-0.1456 -12.32682,-6.04209 -12.08417,-12.73934 -0.77649,-17.10711 -1.74711,-34.23848 -2.11109,-51.36986 -0.77649,-6.81858 4.80455,-12.93346 11.59886,-13.17611 14.97176,-1.69858 30.0891,-1.57725 45.13365,-2.5964 -0.72796,-17.22844 -2.86331,-34.40834 -2.35374,-51.63678 0.12133,-6.81858 6.309,-12.22976 13.00625,-11.96284 z"
       id="path8"
       style="fill:#f4722b" />
    <path
       d="M 333.01839,136.49289 C 397.00626,104.72948 468.29801,89.19962 539.4927,87.1128 c -3.0817,11.67165 -1.45592,23.82862 -1.74711,35.7672 -81.92,3.17877 -164.54369,26.03678 -231.97725,73.66976 -41.29971,29.40967 -77.4309,69.47185 -92.37839,118.77915 -12.47241,40.18351 -6.91564,85.36569 14.97176,121.32701 26.76474,44.72114 72.33516,74.88304 120.2108,93.17915 78.03754,29.48247 164.83488,31.03545 245.63867,12.54521 68.98655,-16.28208 136.12891,-48.36094 185.19356,-100.50729 25.38161,-27.15299 45.27924,-60.61498 51.8309,-97.54692 4.34351,-23.61024 2.54787,-48.16683 -4.39204,-71.09763 10.84664,-0.65517 21.71754,-1.43166 32.53991,-2.40228 4.3435,0.0485 7.08549,-3.80967 10.43412,-5.96929 13.51583,43.07109 11.5746,90.971 -7.13403,132.22218 -26.47355,61.39147 -78.59564,108.2237 -136.12891,140.32683 C 643.931,583.00057 547.50028,601.36948 453.7145,594.57517 379.92341,588.55735 305.54995,566.03905 246.65782,519.95905 208.36701,490.11261 177.84114,448.44891 167.47981,400.47621 156.58464,352.77043 167.35848,301.91014 192.23052,260.29498 224.6491,205.47943 276.5528,164.5437 333.01839,136.49289 z"
       id="path10"
       style="fill:#f5e5c1" />
    <path
       d="m 716.84853,118.22104 c 14.36512,5.94503 28.43905,12.59375 41.83356,20.48 -9.24512,1.57725 -20.40721,-1.67431 -28.1964,4.90161 -5.92076,4.68323 -3.8582,12.93346 -4.29498,19.46086 -6.47886,-3.42142 -13.07905,-6.64872 -19.8491,-9.46351 4.00379,-2.30521 9.14806,-4.53763 9.94882,-9.70616 1.23753,-8.49289 0.33971,-17.13138 0.5581,-25.6728 z"
       id="path12"
       style="fill:#f5e5c1" />
    <path
       style="fill:#f5e5c1"
       d="M 545.53125 192.34375 C 543.21958 192.4191 540.81152 192.87476 538.84375 193.125 C 540.63333 223.06244 543.03505 253.12506 539.03125 283.0625 C 497.1431 296.22647 456.59669 313.59772 418.5 335.40625 C 417.95404 313.56739 416.98821 291.45099 411.4375 270.21875 C 410.43655 265.42634 407.09659 261.7639 404.09375 258.09375 C 401.06058 260.24731 398.10301 262.54314 395.3125 265 C 394.52386 271.30901 396.46964 277.53016 397.53125 283.6875 C 401.6867 303.88845 402.03951 324.62165 402.3125 345.15625 C 371.19213 364.53824 341.98877 387.18398 316.84375 413.90625 C 315.56981 396.61715 313.5378 379.39387 309.625 362.46875 C 305.74254 363.77302 299.26566 362.15426 297.71875 367.25 C 295.4742 371.89075 296.2656 377.18091 296.78125 382.125 C 299.05613 398.41315 300.84005 414.77894 301.75 431.21875 C 293.3481 442.62349 283.86781 453.6816 278.46875 466.90625 C 275.82989 473.27591 280.57616 478.26552 285.15625 481.875 C 292.5572 474.59539 297.70389 465.5223 303.40625 456.96875 C 304.37687 488.60476 304.70036 520.27114 305.125 551.9375 C 304.57904 561.94698 310.59438 572.1801 320.9375 574 C 322.69674 528.22939 319.92835 482.36436 318.59375 436.59375 C 342.58618 408.41555 371.5561 384.8811 402.3125 364.4375 C 401.55421 418.701 397.47446 473.03339 390.4375 526.78125 C 370.87351 545.49594 350.98209 564.16389 334.90625 586.09375 C 339.09204 589.43024 343.35006 592.72143 347.6875 595.90625 C 360.6695 579.7091 374.64479 564.34968 389.75 550.09375 C 388.93105 574.66246 388.08451 599.30536 389.84375 623.84375 C 389.41911 631.88166 399.78386 631.15803 405.03125 633.28125 C 406.09286 600.52296 403.45854 567.6048 407.25 534.9375 C 436.88412 510.70244 470.39515 491.64384 505.125 475.75 C 508.40084 475.02204 511.726 474.45498 515.0625 474 C 535.53643 462.01896 559.3091 457.55716 581.90625 451.1875 C 582.05791 449.24626 582.37863 445.28499 582.5 443.34375 C 562.93601 442.37314 542.9518 442.38486 524.84375 450.96875 C 539.31199 400.22373 548.52281 348.13294 554.4375 295.75 C 602.05835 281.43341 651.56659 273.51934 701.25 272.09375 C 696.73056 309.00749 689.51951 345.53847 681.90625 381.90625 C 688.12425 399.98397 686.71055 419.81472 684.375 438.46875 C 678.94562 440.25832 673.36137 441.62681 667.75 442.71875 C 659.37844 478.9652 652.14725 515.453 645.65625 552.09375 C 614.23256 556.94684 583.50452 565.64491 553.71875 576.625 C 553.59742 582.57002 553.49812 588.52464 553.4375 594.5 C 582.34366 583.09525 612.33184 574.55071 642.90625 569 C 639.53943 591.26351 636.46419 613.58759 635.28125 636.09375 C 605.40448 643.55536 576.21855 655.2798 551.4375 673.8125 C 555.9266 681.39545 565.00438 683.38709 572.375 678.625 C 592.2423 668.00889 612.81923 658.61414 634.71875 653.09375 C 635.11306 662.83025 636.15802 672.53834 638.28125 682.0625 C 643.49831 681.60752 648.6892 681.0423 653.90625 680.375 C 652.66265 670.18354 651.26471 660.00121 650.71875 649.71875 C 699.46188 640.86188 749.52894 644.55214 797.96875 653.5 C 804.97539 655.22891 815.09645 654.0324 817.25 645.8125 C 815.4301 637.34994 804.86783 638.86312 798.4375 636.40625 C 798.5285 615.81099 801.10651 595.35445 804.625 575.0625 C 832.43923 583.85871 858.07749 598.32208 880.25 617.21875 C 884.37511 613.97325 888.3997 610.58099 892.3125 607.0625 C 868.59307 584.1317 838.70677 568.48925 807.34375 558.84375 C 812.56081 531.93949 819.43365 505.4107 825.5 478.71875 C 819.9493 478.65813 814.39539 478.65537 808.875 478.625 C 802.68733 503.86101 796.20693 529.0875 791.6875 554.6875 C 749.52636 545.01168 705.54811 544.31877 662.75 549.6875 C 669.63531 511.83346 677.14405 474.11689 686.03125 436.6875 C 715.72604 435.07993 745.4578 436.61021 775.03125 439.21875 C 775.03125 433.91069 775.03212 428.62147 775.0625 423.34375 C 756.25681 422.52479 737.12921 425.39075 718.6875 420.75 C 709.10267 419.23341 699.36516 420.28487 689.75 420.40625 C 701.2154 371.39014 711.86656 322.07864 717.78125 272.03125 C 741.40969 270.84831 764.86696 277.84938 788.34375 273.90625 C 804.20725 272.35932 820.23116 273.05151 836.125 271.65625 C 798.02833 261.31313 758.58661 256.04872 719.125 255.59375 C 720.9449 235.24114 721.5313 214.72669 719.46875 194.34375 C 713.9787 194.4954 708.52223 194.63051 703.0625 194.8125 C 705.18573 215.07411 704.42284 235.42589 702.90625 255.6875 C 653.1925 256.62777 603.7385 264.74686 555.875 278.0625 C 557.81623 251.40089 559.63804 224.04763 553.875 197.75 C 552.96505 193.12441 549.38403 192.21816 545.53125 192.34375 z M 537.34375 300.8125 C 531.21674 351.95184 521.96365 402.90208 507.34375 452.3125 C 506.55512 459.3798 499.02772 460.89239 493.75 463.53125 C 463.5699 476.42224 435.20112 493.2761 408.8125 512.71875 C 414.57554 460.09316 418.66452 407.20924 418.9375 354.25 C 456.21523 332.01683 496.09256 314.34046 537.34375 300.8125 z M 716.34375 562.59375 C 740.57504 562.74351 764.74179 565.24198 788.40625 570.71875 C 785.10009 591.64766 782.80978 612.70344 781.6875 633.875 C 738.7074 627.9603 694.7926 625.8987 651.8125 632.875 C 653.60207 610.55083 656.60101 588.32969 659.9375 566.1875 C 678.62186 563.77234 697.49719 562.47727 716.34375 562.59375 z "
       id="path14"
       transform="scale(0.8,0.8)" />
    <path
       d="m 692.89858,225.40133 c 5.92076,-17.71375 9.65763,-36.03413 15.11734,-53.8692 3.80967,2.20815 7.57081,4.46484 11.25915,6.89138 -4.12512,17.37403 -8.75981,34.60246 -14.07393,51.66104 29.02142,12.30256 56.10161,29.23981 79.37213,50.4963 1.72284,-5.55677 3.37289,-11.13782 4.90161,-16.74312 2.93612,4.22218 6.55166,7.91052 10.67678,10.96796 -1.65005,5.24132 -3.32436,10.48265 -5.02294,15.69971 6.89137,7.52228 14.41365,14.60778 19.97043,23.22199 3.34862,4.41631 0.31545,13.22465 -6.04209,10.28853 -7.69213,-4.51336 -12.10843,-13.12758 -18.4417,-19.31526 -8.12891,25.33308 -16.11223,50.69043 -23.87716,76.14484 9.80322,6.50313 20.04322,12.98199 27.39564,22.32417 1.72284,4.63469 -3.1545,7.7164 -5.36266,11.06502 -8.66274,-6.69725 -16.64606,-14.26805 -25.76985,-20.35867 -6.43033,22.20284 -12.73934,44.55128 -16.08797,67.48208 0.36399,7.03697 -8.25023,6.13915 -12.7636,7.88626 -0.0243,-28.14787 9.90029,-55.0582 17.17991,-81.92 -19.63071,-10.26427 -40.59602,-17.78654 -61.99811,-23.36758 -0.29118,-4.61043 -0.53383,-9.22086 -0.75222,-13.83128 22.88227,5.77516 45.32777,13.58862 66.39014,24.2654 8.2745,-26.61915 16.20929,-53.33535 25.33308,-79.66332 -22.66389,-22.22711 -49.96247,-39.38275 -78.98389,-52.04929 -2.66919,8.73555 -5.45971,17.47109 -8.29876,26.15811 -2.28095,-0.19413 -4.5619,-0.38825 -6.81858,-0.55811 -0.24266,-9.77895 -0.38825,-19.65497 2.06256,-29.19128 -1.67432,-5.94502 -3.27583,-11.91431 -5.36266,-17.71374 3.3001,1.35886 6.64872,2.69346 9.99735,4.02806 z"
       id="path16"
       style="fill:#f5e5c1" />
    <path
       d="m 620.29649,230.4728 c -0.12132,-5.62958 5.14427,-10.04588 10.57972,-9.85176 14.53497,-0.92208 29.14275,-0.94635 43.67772,-0.75222 5.7509,-0.33972 9.09953,5.58104 9.051,10.67677 0.75223,13.4673 0.6309,26.98313 1.23753,40.45043 13.56436,0.19412 27.12872,-1.01915 40.66882,-0.0971 5.38692,0.21839 9.6819,5.21706 9.14806,10.57971 0.21839,13.83128 0.53384,27.66256 0.67943,41.49384 0.80076,5.87223 -4.19792,10.8709 -9.87602,11.13782 -13.05479,0.94635 -26.15811,0.26692 -39.23716,1.11621 -0.29118,11.98711 1.43166,23.97422 0.43678,35.93706 -0.60664,4.65896 -4.51337,9.12379 -9.46351,8.9782 -14.6563,0.48531 -29.36113,1.01915 -44.01744,0.99488 -5.41118,0.31545 -9.5363,-4.65895 -9.87602,-9.73042 -1.09194,-11.76872 -0.33971,-23.61024 -0.87355,-35.40323 -11.79299,-0.0243 -23.56171,0.6309 -35.33043,0.46105 -5.02294,0.43677 -8.78407,-3.17877 -12.54521,-5.87223 0.21839,-15.57839 -0.60664,-31.18104 -0.38825,-46.75943 -0.75223,-5.38692 3.73687,-10.3128 8.9782,-10.74958 12.49668,-1.1162 25.0419,-0.36398 37.56284,-0.89782 0.0971,-13.90407 -1.01914,-27.80815 -0.41251,-41.71222 z"
       id="path18"
       style="fill:#f4722b" />
    <path
       d="m 468.17668,274.29611 c 7.1583,-4.27071 16.40341,-2.23241 24.43526,-3.05744 5.8237,0.65517 15.09308,-2.30521 17.54389,4.99868 1.72284,10.19147 0.7037,20.62559 1.09194,30.91412 10.9437,1.04341 23.36759,-3.08171 33.3164,2.32948 3.8582,12.22976 1.35886,25.5272 2.28095,38.19374 -10.38559,6.01782 -22.88228,2.96038 -34.26275,3.7854 0.0971,8.12891 0.72796,16.25782 0.19412,24.38673 -0.12132,3.05745 -2.23241,6.81858 -5.62957,6.86711 -10.53119,0.84929 -21.15943,1.2618 -31.71488,0.92209 -3.10597,0.24265 -5.92076,-2.40228 -6.40607,-5.33839 -1.60152,-8.51716 -1.09194,-17.20417 -1.28606,-25.79412 -10.43413,-1.01915 -24.07128,4.51336 -32.24873,-3.78541 -0.84928,-12.30255 -1.86843,-25.04189 0.1456,-37.19886 8.68701,-6.55166 21.15943,-2.5964 31.37516,-3.68834 0.58237,-11.08929 -2.47507,-22.90654 1.16474,-33.53479 z"
       id="path22"
       style="fill:#f4722b" />
    <path
       d="m 108.02957,371.7945 c 10.91943,-1.74711 21.76607,-4.00379 32.78256,-5.02294 3.76114,-0.12132 9.43924,-0.6309 9.85176,4.4891 1.38312,11.91432 0.46104,24.36247 5.55677,35.59735 2.25669,6.77005 8.88114,16.42768 -0.24265,20.96531 -12.81213,5.0472 -27.08019,4.68322 -40.4019,7.83772 -6.28474,-8.32303 -12.1327,-17.47109 -13.58862,-28.02654 -2.183888,-12.30256 2.08682,-24.38673 6.04208,-35.84 z"
       id="path24"
       style="fill:#f5e5c1" />
    <path
       d="m 72.89327,377.20569 c 7.352417,-1.14048 14.7291,-2.25669 22.081517,-3.42142 -8.201706,20.91677 -6.406067,45.59469 7.352413,63.76947 -7.716394,1.21327 -15.408527,2.49934 -23.124925,3.73688 C 72.89327,432.91905 67.215166,423.52834 66.147488,412.90009 64.44891,400.549 68.598294,388.5619 72.89327,377.20569 z"
       id="path26"
       style="fill:#f5e5c1" />
    <path
       d="m 12.132701,386.91185 c 15.796778,-2.76626 31.690617,-5.04721 47.511659,-7.66787 -4.100853,12.10844 -7.206824,25.13896 -4.634692,37.92683 1.455924,9.5363 6.139147,18.07772 11.040759,26.2309 -17.980664,2.76625 -35.961327,5.50824 -53.89346,8.46862 -0.0728,-21.64474 0,-43.28948 -0.02427,-64.95848 z"
       id="path28"
       style="fill:#f5e5c1" />
    <path
       d="m 424.59602,381.16095 c 5.02294,0.48531 12.86066,-1.84417 14.51071,4.78028 1.48019,8.90541 0.60663,18.05346 0.99488,27.05593 9.70616,1.06767 21.47488,-3.3001 29.89498,2.5236 1.84417,10.91943 1.91696,22.20284 0.84929,33.21933 -8.46863,6.26048 -20.18882,2.37801 -30.04057,3.54275 0.12133,7.76493 0.89782,15.57839 0.0243,23.31906 -1.69857,6.98843 -10.91943,4.31924 -16.23355,5.50824 -7.06123,-0.6309 -16.30635,2.6692 -21.62047,-3.39715 -2.13536,-7.98332 -1.06768,-16.40342 -1.3346,-24.55659 l -2.13536,0.0243 c -1.09194,0.0243 -3.25156,0.0728 -4.3435,0.0971 -7.32816,-0.87356 -17.03432,2.81478 -22.54256,-3.42143 -1.35887,-9.92455 -1.01915,-20.04322 -0.72797,-30.04057 -0.36398,-3.49421 3.46996,-5.6781 6.55166,-5.58104 7.47375,-0.67943 14.99602,-0.43678 22.49403,-0.58237 -0.0728,-9.85175 -2.08682,-19.97042 0.43678,-29.62805 6.98843,-3.90673 15.52986,-2.15963 23.22199,-2.86332 z"
       id="path30"
       style="fill:#f4722b" />
    <path
       style="fill:#f5e5c1"
       d="M 1092 489.15625 C 1086.237 493.22071 1081.8842 499.1303 1082.1875 506.53125 C 1080.034 540.95779 1074.7668 575.19849 1066.0312 608.59375 C 1064.6663 614.29611 1061.9486 619.5734 1058.1875 624.0625 C 1043.0823 642.89852 1027.1742 661.1144 1010.2188 678.3125 C 1008.3078 663.57128 1008.4248 648.31842 1003.875 634.0625 C 1001.6001 626.57056 991.71049 630.47684 991.4375 636.9375 C 992.25645 655.16689 995.76375 673.14379 997.25 691.3125 C 964.94669 721.76559 929.97535 749.57379 892 772.65625 C 888.29953 754.63919 884.53697 736.42054 877.5 719.34375 C 873.40521 720.95134 869.34662 722.58267 865.3125 724.28125 C 869.95326 743.05661 875.47968 761.60791 878.9375 780.65625 C 846.05788 799.91691 811.35856 815.87279 775.71875 829.21875 C 770.16804 806.37894 764.7603 783.47582 757.875 761 C 753.90154 762.4256 743.91724 760.39319 745.3125 767.1875 C 750.10491 789.57234 757.1359 811.43134 761.625 833.9375 C 718.7359 847.46545 674.28531 858.45314 629 857.9375 C 619.41516 831.54887 611.7345 804.47414 607.09375 776.78125 C 607.70039 768.68267 598.46614 770.37411 593.21875 769.3125 C 593.40074 799.9779 604.16332 829.37234 613.6875 858.1875 C 560.91024 856.64059 507.76886 847.26713 458.84375 827.1875 C 453.32338 800.16191 455.81335 772.17359 457.90625 744.875 C 455.63136 744.54135 451.11864 743.89614 448.84375 743.5625 C 443.56603 741.59093 443.47795 748.9705 442.75 752.125 C 440.20213 775.05581 440.77016 798.25945 442.46875 821.28125 C 386.20334 796.74286 333.49484 763.19055 288.9375 720.96875 C 283.6901 699.5242 282.6324 677.27269 280.8125 655.3125 C 279.93288 649.30681 272.11869 650.296 267.78125 648.71875 C 266.23432 667.5851 268.33356 686.4719 271.09375 705.15625 C 253.01602 687.41218 235.8194 668.78732 219.53125 649.375 C 220.38054 628.05177 223.23067 606.85446 223.625 585.53125 C 224.74728 578.25162 210.7399 574.57145 210.40625 583.125 C 207.61572 594.74206 207.94029 606.82686 207 618.65625 C 203.2692 668.097 203.53012 718.04914 210.71875 767.15625 C 217.72539 817.3553 235.31189 865.44354 256.96875 911.0625 C 280.4152 959.25965 314.63391 1002.1792 356.21875 1035.9688 C 410.26994 1077.3109 468.09022 1113.4742 526.8125 1147.7188 C 574.73666 1175.078 623.62535 1201.1585 675.25 1220.8438 C 699.06043 1229.5186 723.70883 1237.4384 749.1875 1238.5 C 767.84152 1238.3787 779.23222 1221.4241 790 1208.5938 C 823.57725 1164.7037 849.28341 1115.1403 870 1064.0312 C 879.31185 1043.1933 879.29022 1019.9151 886.8125 998.53125 C 897.85326 964.10471 906.97089 927.9172 928.71875 898.34375 C 950.95192 867.10204 974.02331 836.35939 994.40625 803.84375 C 1048.1844 719.85513 1086.6404 624.56905 1095.4062 524.65625 C 1095.5276 512.79654 1100.7962 499.16573 1092 489.15625 z M 1052.0312 654.84375 C 1041.5061 683.96224 1029.1263 712.42476 1014.7188 739.875 C 1013.9301 725.61908 1013.3392 711.38184 1012.1562 697.15625 C 1025.9572 683.53729 1038.8976 669.09967 1052.0312 654.84375 z M 219.28125 671.46875 C 236.84334 691.51804 255.22278 710.88552 274.96875 728.78125 C 284.43225 778.91964 296.79915 828.61259 313.90625 876.71875 C 284.42379 854.36425 257.30856 828.7104 234.46875 799.53125 C 229.737 793.95021 228.68017 786.53972 227.40625 779.59375 C 221.40056 743.92361 218.67461 707.65452 219.28125 671.46875 z M 998.65625 709.78125 C 998.56525 734.28931 1005.5262 762.33395 989.875 783.6875 C 979.34989 800.24864 968.99297 816.98025 957.40625 832.84375 C 940.51146 853.98499 917.81499 869.37184 895.1875 883.71875 C 899.73726 852.02208 899.42385 819.88418 894.84375 788.1875 C 931.87883 765.49935 966.86858 739.41538 998.65625 709.78125 z M 292.625 744.5 C 338.21363 783.23365 389.42947 815.46444 444.90625 838.03125 C 451.73089 878.94879 466.04908 918.362 485.21875 955.09375 C 434.14008 942.29375 384.4976 922.61019 340.03125 894.25 C 335.29949 891.61114 333.62415 886.20418 331.53125 881.59375 C 314.15116 837.27906 302.8468 790.90759 292.625 744.5 z M 881.125 796.09375 C 885.82642 828.39707 884.3963 861.19026 878.90625 893.28125 C 852.15365 907.71917 824.58445 920.65684 796.40625 932.03125 C 791.49251 902.2758 785.67115 872.67271 778.9375 843.28125 C 814.33466 830.66324 848.57904 814.89944 881.125 796.09375 z M 239.78125 828.59375 C 261.43813 852.25251 285.04888 874.24121 311.4375 892.53125 C 317.92849 897.11135 325.31334 901.42166 328.4375 909.15625 C 346.72755 947.10127 374.98445 979.05521 404.40625 1008.75 C 369.06975 994.6154 334.6029 977.5944 303.9375 954.90625 C 297.96214 950.69014 292.79514 945.33841 289.125 938.96875 C 267.83211 904.60286 252.12627 867.02409 239.78125 828.59375 z M 460.75 844.0625 C 511.52535 862.29189 565.22822 872.44852 619.21875 872.8125 C 632.68605 905.99544 648.54084 938.19029 666.40625 969.25 C 612.1124 974.04241 557.10539 970.65107 503.8125 959.125 C 484.12719 923.06055 468.60592 884.49472 460.75 844.0625 z M 765.1875 847.90625 C 771.55716 877.63137 777.9484 907.3484 782.4375 937.4375 C 749.61855 949.72186 715.99179 959.93179 681.65625 966.96875 C 664.42781 936.36401 648.31012 905.17464 634.8125 872.75 C 679.27885 871.62772 723.08702 861.82853 765.1875 847.90625 z M 920.25 885.125 C 906.63104 903.05106 896.46713 923.2062 889.1875 944.46875 C 889.73347 930.21283 891.36208 916.0721 893 901.9375 C 902.12985 896.38679 911.1808 890.73638 920.25 885.125 z M 877.59375 910.40625 C 875.01555 933.64036 872.8723 956.92304 870.71875 980.1875 C 852.00406 998.0529 829.42896 1011.1614 806.4375 1022.6875 C 805.0119 997.20883 802.29514 971.86101 798.625 946.625 C 825.62026 936.13021 852.02409 924.08586 877.59375 910.40625 z M 348.5 916.8125 C 393.84598 942.38216 443.12355 960.2708 493.65625 972.3125 C 510.49038 997.27554 526.04908 1023.3651 545.21875 1046.7812 C 515.91827 1041.8372 486.82435 1035.6225 458.3125 1027.2812 C 449.72861 1024.5514 440.11049 1023.1123 433.4375 1016.5 C 401.52849 986.62321 371.21849 954.36321 348.5 916.8125 z M 784.4375 952.0625 C 788.9266 977.54117 790.34461 1003.4055 792.4375 1029.1875 C 767.83845 1040.1069 742.10555 1048.5293 715.65625 1053.625 C 707.58801 1028.7226 698.4663 1004.1487 688.0625 980.15625 C 721.00279 973.96857 753.1048 963.8009 784.4375 952.0625 z M 513.5625 975.9375 C 566.06676 985.64366 619.95253 989.40184 673.09375 983.0625 C 683.95253 1006.327 692.7985 1030.491 700.59375 1054.9688 C 655.85442 1057.6683 610.96635 1054.8512 566.5 1049.9375 C 546.99667 1026.6427 529.69899 1001.6285 513.5625 975.9375 z M 326.21875 987.21875 C 356.79315 1004.7808 388.97975 1019.53 422.375 1030.8438 C 428.68401 1032.785 434.17634 1036.5725 438.96875 1041.0312 C 473.24364 1071.9393 510.13404 1099.8145 547.59375 1126.7188 C 532.73119 1122.7756 517.8745 1118.5277 503.40625 1113.25 C 478.83752 1104.4235 457.99328 1088.3349 436.09375 1074.625 C 397.3601 1048.3577 357.06614 1023.0102 326.21875 987.21875 z M 868.53125 1001.75 C 865.89238 1023.3159 864.004 1046.0169 852.78125 1065.1562 C 839.82959 1082.9913 820.52627 1094.7359 801.78125 1105.625 C 806.42201 1083.5738 805.2683 1060.6468 807.9375 1038.6562 C 828.77541 1027.4942 849.87721 1016.4912 868.53125 1001.75 z M 464.625 1044.125 C 495.44206 1052.6482 526.86399 1058.8602 558.5 1063.5312 C 580.15688 1089.8592 603.41015 1114.832 627.28125 1139.2188 C 607.29262 1136.6405 584.67785 1138.5188 568.875 1123.6562 C 532.99254 1098.7235 497.83828 1072.6065 464.625 1044.125 z M 792.5625 1045 C 792.50188 1067.8398 789.66647 1090.5563 785.875 1113.0625 C 769.70817 1119.9478 752.95636 1125.3905 736.03125 1130.0312 C 731.14784 1109.072 725.69594 1088.2487 719.78125 1067.5625 C 744.86561 1062.9824 769.11605 1054.8881 792.5625 1045 z M 579.5625 1066.125 C 621.26866 1070.2198 663.23594 1071.1977 705.09375 1069.4688 C 711.28144 1090.4887 716.77926 1111.6768 721.875 1133 C 697.97358 1138.672 673.35272 1139.9412 648.875 1140.0625 C 624.73092 1116.4341 601.73501 1091.634 579.5625 1066.125 z M 838.9375 1099.5 C 818.00859 1140.3569 796.02571 1181.4714 764.875 1215.625 C 780.46553 1186.5672 792.47132 1155.6746 798.75 1123.25 C 812.7936 1116.486 826.1375 1108.3872 838.9375 1099.5 z M 782.3125 1130.3125 C 776.09449 1158.157 764.99489 1184.6013 751.40625 1209.625 C 747.70579 1187.6648 743.82641 1165.7791 739.125 1144.0312 C 753.77524 1140.3308 768.20824 1135.7115 782.3125 1130.3125 z M 544.84375 1141.0625 C 559.82764 1144.7933 576.57133 1144.7984 589.25 1154.6562 C 613.81873 1171.2174 639.49375 1186.0446 665.09375 1200.9375 C 623.44825 1184.4067 583.75939 1163.1744 544.84375 1141.0625 z M 724.875 1147.4062 C 730.39537 1172.1873 734.79953 1197.1665 738.5 1222.2812 C 713.05166 1200.1997 688.16155 1177.4915 663.5625 1154.5 C 684.15776 1153.9237 704.70437 1151.6224 724.875 1147.4062 z M 613.25 1152.9375 C 622.92584 1153.2712 632.60541 1153.8244 642.28125 1154.2188 C 656.87081 1168.3533 672.18616 1181.7468 686.59375 1196.0938 C 661.63071 1182.5658 637.24242 1168.0427 613.25 1152.9375 z "
       id="path32"
       transform="scale(0.8,0.8)" />
    <path
       d="m 395.16209,453.27773 c 1.09194,-0.0243 3.25156,-0.0728 4.3435,-0.0971 0.6309,8.78408 -1.2618,18.15052 2.0383,26.49782 6.35753,5.65384 16.01516,2.5964 23.68303,3.51849 -4.85308,2.40227 -9.73043,4.80455 -14.58351,7.23109 0.6309,15.23867 4.65896,30.30748 3.63981,45.57042 -4.14938,3.83394 -11.89004,0.75223 -12.42388,-4.80455 -1.86844,-11.18635 -2.64493,-22.49402 -3.59128,-33.77744 -12.56948,7.40095 -24.02275,16.42768 -35.50029,25.35735 -4.90161,3.7854 -9.14805,-2.57213 -12.25403,-5.58104 13.5401,-13.75849 29.87071,-24.3382 46.39545,-34.16569 -0.72796,-9.92455 -1.189,-19.8491 -1.7471,-29.74938 z"
       id="path36"
       style="fill:#f5e5c1" />
  </g>
</svg>
