<?xml version="1.0" encoding="UTF-8" standalone="no"?>
<svg
   xmlns:dc="http://purl.org/dc/elements/1.1/"
   xmlns:cc="http://creativecommons.org/ns#"
   xmlns:rdf="http://www.w3.org/1999/02/22-rdf-syntax-ns#"
   xmlns:svg="http://www.w3.org/2000/svg"
   xmlns="http://www.w3.org/2000/svg"
   xmlns:sodipodi="http://sodipodi.sourceforge.net/DTD/sodipodi-0.dtd"
   xmlns:inkscape="http://www.inkscape.org/namespaces/inkscape"
   width="1280"
   height="1280"
   viewBox="0 0 1024 1024"
   version="1.1"
   id="svg2"
   inkscape:version="0.48.1 "
   sodipodi:docname="simul_charge.svg">
  <metadata
     id="metadata36">
    <rdf:RDF>
      <cc:Work
         rdf:about="">
        <dc:format>image/svg+xml</dc:format>
        <dc:type
           rdf:resource="http://purl.org/dc/dcmitype/StillImage" />
      </cc:Work>
    </rdf:RDF>
  </metadata>
  <defs
     id="defs34">
    <inkscape:perspective
       sodipodi:type="inkscape:persp3d"
       inkscape:vp_x="0 : 263.75 : 1"
       inkscape:vp_y="0 : 1000 : 0"
       inkscape:vp_z="527.5 : 263.75 : 1"
       inkscape:persp3d-origin="263.75 : 175.83333 : 1"
       id="perspective2878" />
  </defs>
  <sodipodi:namedview
     pagecolor="#ffffff"
     bordercolor="#666666"
     borderopacity="1"
     objecttolerance="10"
     gridtolerance="10"
     guidetolerance="10"
     inkscape:pageopacity="0"
     inkscape:pageshadow="2"
     inkscape:window-width="1920"
     inkscape:window-height="1018"
     id="namedview32"
     showgrid="false"
     inkscape:zoom="0.6609375"
     inkscape:cx="640"
     inkscape:cy="640"
     inkscape:window-x="-8"
     inkscape:window-y="-8"
     inkscape:window-maximized="1"
     inkscape:current-layer="layer2"
     inkscape:snap-page="true" />
  <g
     inkscape:groupmode="layer"
     id="layer2"
     inkscape:label="background">
    <rect
       style="fill:#3e3e3e;fill-opacity:1;fill-rule:nonzero;stroke:none"
       id="rect2991"
       width="1280"
       height="1280"
       x="0"
       y="0"
       transform="scale(0.8,0.8)" />
  </g>
  <g
     inkscape:groupmode="layer"
     id="layer1"
     inkscape:label="foreground">
    <path
       style="fill:#f4722b"
       d="m 1145.6562,869.4688 c 17.4408,-0.5763 34.9628,1.03682 52.3126,-0.84375 11.9507,-3.60947 21.3465,-15.60534 20.4062,-28.375 0.2124,-39.91659 0.2105,-79.86466 -0.062,-119.78125 -0.2725,-39.91659 -0.945,-16.40629 -0.1563,-79.375 0.7887,-62.96871 0.012,-125.93754 0.4063,-188.90625 -0.4246,-8.4019 0.9082,-17.7838 -4.1875,-25.09375 -4.9137,-7.34029 -12.9345,-13.55699 -22.125,-13.375 -27.8446,-0.51564 -55.6867,-0.0652 -83.5312,-0.15625 -27.8445,-0.091 -200.66151,-0.24725 -211.1563,-0.15625 -10.49479,0.091 -20.97396,0.125 -31.46875,0.125 -0.0606,-106.49479 -0.0606,-212.94271 0,-319.4375 0.30332,-10.191475 -1.74609,-21.367437 -9.875,-28.34375 -6.58199,-6.612312 -16.23964,-8.24725 -25.1875,-8.15625 -122.29764,0.06063 -244.60861,0.03037 -366.90625,0 -5.47488,0.07578 -10.95125,-0.105173 -16.4375,-0.0938 l -5e-4,0 c -5.48625,0.01137 -10.97686,0.214125 -16.40625,1.09375 C 417.90495,61.353938 407.82351,74.320387 408.1875,88 c -0.4247,108.52703 0.17281,217.03641 -0.3125,325.59375 -18.35071,-0.12125 -36.74304,-0.0929 -55.09375,-0.0625 -18.35071,0.0304 -195.64555,-0.42465 -215.9375,0 -20.29195,0.42465 -40.676808,-0.95134 -60.96875,0.65625 -15.469195,3.33649 -24.026689,19.98486 -22.84375,34.96875 0.51564,45.04265 -0.82817,90.14393 0.71875,135.15625 1.54692,45.01232 0.477044,141.62329 -0.28125,169.4375 -0.758294,27.81421 -0.34375,55.6867 -0.34375,83.53125 -0.303318,13.3763 7.831428,27.00172 20.84375,31.1875 8.796208,1.60759 17.801215,0.88051 26.71875,1.0625 8.91754,0.18199 137.15625,0.0937 137.15625,0.0937 l 5.625,-0.1875 145.25,0.21875 c 6.36968,-0.18199 12.75533,-0.31709 19.125,-0.46875 0.83546,26.7501 0.96189,53.32531 0.1875,80.03125 0.0303,79.9242 0.0598,159.8893 -0.0312,239.8438 -0.15165,9.2511 1.71303,19.2313 8.75,25.8436 7.43128,8.0076 18.90688,9.4339 29.25,9.3126 127.3327,-0.061 254.69855,-0.061 382.03125,0 10.28246,0.1213 21.69281,-1.3022 29.09375,-9.2188 7.00664,-6.7033 9.11949,-16.7203 8.9375,-26.0625 0.0606,-78.4379 -0.1489,-156.8737 0.0937,-235.2812 -0.0945,-37.04618 8.6e-4,-84.15254 8.6e-4,-84.15254 93.16383,-0.58995 186.33799,0.90318 279.49909,-0.0349 z"
       id="path6"
       sodipodi:nodetypes="ccccccccccccccccccccccccccccccccccccccccccc"
       transform="scale(0.8,0.8)" />
    <path
       style="fill:#f5e5c1"
       d="M 236.96875 272.5625 C 228.38486 279.96345 218.00204 285.11647 210.84375 294.125 C 212.20868 300.00936 213.60383 305.92998 214.96875 311.875 C 212.57254 313.69491 210.17839 315.52476 207.8125 317.375 C 209.08644 331.53992 220.93575 343.10069 217.78125 357.78125 C 205.37556 374.8277 183.9821 380.89583 166.875 391.90625 C 156.80485 398.82189 143.12243 402.36916 136.84375 413.53125 C 115.00489 459.11988 91.762589 504.02902 69.46875 549.375 C 62.674436 560.35509 60.877962 573.54472 53.75 584.3125 C 50.413508 589.4689 46.158116 594.28566 45.1875 600.625 C 41.456695 616.4885 32.780539 630.49959 25.53125 644.9375 C 27.199496 651.48916 29.027489 658.05956 32 664.15625 C 26.418957 680.74773 24.829059 698.65207 24.34375 716.0625 C 31.77503 729.98477 37.362589 747.53199 53.46875 753.75 C 57.95785 755.78222 62.609241 757.55234 67.25 759.28125 C 65.369431 750.90969 61.831012 743.09395 57.28125 735.875 C 58.737174 733.47879 60.169075 731.08464 61.625 728.71875 C 63.687559 735.93771 69.224023 747.39546 77.65625 738.78125 C 79.021179 727.92248 74.834568 717.39185 74.53125 706.59375 C 74.349259 697.25156 75.058825 687.93594 74.9375 678.59375 C 81.762145 673.58901 90.416263 669.5609 93.84375 661.25 C 107.40204 631.46421 117.23125 600.21317 130.03125 570.09375 C 134.21704 560.26626 136.1966 549.66389 139.59375 539.59375 C 144.68949 526.97574 152.46946 515.68507 159.71875 504.25 C 161.90264 510.19502 164.7417 516.09909 165.5 522.46875 C 164.86303 532.56923 160.26202 541.88575 157.5625 551.53125 C 161.89994 568.63836 155.8804 586.36624 160.1875 603.625 C 153.57518 619.45817 145.47985 634.92506 142.75 652.0625 C 128.79739 724.55539 114.21546 796.94736 100.6875 869.53125 C 98.746269 891.52177 85.061819 909.4112 76.78125 929.1875 C 97.89215 947.62921 123.42477 961.81508 150.875 968.09375 C 148.2968 957.5383 144.76849 947.25214 141.25 937 C 150.83484 935.36209 160.28466 933.17745 169.6875 930.78125 C 175.11689 951.04286 180.31793 971.34591 183.59375 992.0625 C 185.01935 1000.2521 179.99081 1007.6817 179.6875 1015.75 C 180.87044 1020.0268 182.70308 1024.0632 184.25 1028.2188 C 175.48413 1038.6528 172.6907 1056.6745 157.3125 1059.3438 C 155.46226 1065.1067 153.72615 1070.8941 151.90625 1076.6875 C 164.9489 1076.7178 177.98859 1076.9347 191.03125 1076.8438 C 202.95163 1076.9043 214.14028 1072.011 226 1071.3438 C 229.60948 1060.4242 225.86495 1049.3954 223.46875 1038.7188 C 222.92278 1031.1661 226.0524 1023.8329 225.71875 1016.25 C 223.35288 1005.8159 218.56531 996.02513 216.59375 985.5 C 215.28949 966.20901 215.03564 946.38562 222.40625 928.15625 C 226.59204 927.67094 230.72046 927.17189 234.90625 926.65625 C 234.78491 907.57757 236.3575 888.61268 237.84375 869.625 C 238.72338 854.55011 239.49076 839.45264 241.25 824.46875 C 242.03862 839.45264 242.83179 854.45361 243.46875 869.4375 C 244.31804 888.5465 243.75735 907.67316 244 926.8125 C 250.76399 927.41914 257.51819 927.79043 264.3125 928.09375 C 267.01202 933.85678 270.75644 939.47959 270.96875 946.03125 C 271.93937 963.32035 274.61968 981.40852 268.25 998 C 265.73246 1006.7355 259.99991 1015.44 263.09375 1024.8125 C 268.28049 1040.4637 256.73054 1055.7908 262.28125 1071.5938 C 268.37793 1071.6846 274.46581 1071.818 280.5625 1072 C 281.74544 1073.1829 284.06615 1075.567 285.21875 1076.75 C 302.38653 1076.75 319.51972 1076.8687 336.6875 1076.6562 C 334.83726 1070.772 332.90997 1064.9165 330.96875 1059.0625 C 328.78486 1058.6378 324.40264 1057.831 322.21875 1057.4062 C 316.06141 1047.7305 310.03694 1037.9552 304.03125 1028.2188 C 305.5175 1024.0632 307.40439 1020.0249 308.375 1015.6875 C 308.19301 1006.7093 302.24256 998.25669 305.09375 989.1875 C 309.12788 970.29081 311.50441 950.97664 317.84375 932.65625 C 328.00489 934.9008 338.40871 935.89704 348.8125 936.625 C 344.5054 946.96814 341.2271 957.67248 338.40625 968.53125 C 363.97591 960.40234 389.88916 949.53365 408.9375 930 C 409.08916 926.72416 409.02299 923.43299 408.75 920.1875 C 400.49976 904.02068 390.478 888.18895 388.71875 869.65625 C 374.94814 800.13586 362.16492 730.36689 348 660.9375 C 352.03413 659.29959 356.09087 657.63791 360.125 656 C 358.82074 633.28152 355.57266 610.71941 353.84375 588.03125 C 352.99446 582.51087 353.12784 576.53966 350.125 571.65625 C 343.36101 568.47141 335.75387 568.15447 328.65625 566.03125 C 329.26289 558.44831 332.68114 550.86419 330.40625 543.28125 C 328.55601 535.75897 325.6692 528.59396 323 521.375 C 324.69859 514.64135 326.39518 507.92208 328.09375 501.21875 C 339.86248 516.90028 350.99899 533.8487 354.0625 553.625 C 365.74023 586.20131 379.132 618.19485 391.75 650.4375 C 394.81351 659.56735 402.1083 666.0384 407.75 673.5 C 408.93294 687.7256 402.36484 701.49315 404.09375 715.71875 C 408.03687 729.82301 417.26816 741.46012 425.09375 753.5625 C 426.94399 753.4715 430.61851 753.30975 432.46875 753.21875 C 436.19956 755.19031 439.95756 757.18469 443.71875 759.15625 C 443.68846 754.06051 443.62313 749.0029 443.5625 743.9375 C 447.62696 742.0266 451.77195 740.24087 455.59375 737.875 C 457.04968 731.50532 457.2077 724.96066 457.875 718.5 C 459.51291 717.9237 462.76834 716.76381 464.40625 716.1875 C 464.95222 702.93252 462.01479 690.07941 459.40625 677.21875 C 464.07734 669.99979 471.44017 664.7199 474.625 656.5 C 486.90936 628.01849 496.67612 598.54034 508.6875 569.9375 C 512.84295 560.01901 514.57802 549.35047 518.1875 539.25 C 523.49556 526.48034 531.51264 515.02882 539.15625 503.59375 C 541.46146 509.47811 544.21872 515.34724 545.25 521.65625 C 544.73436 531.99937 540.04971 541.5521 537.5625 551.53125 C 540.29236 565.54453 537.38599 579.80199 538.78125 593.90625 C 541.08646 612.74226 526.50926 627.8276 523.71875 645.875 C 508.91685 722.76599 493.44159 799.54926 479.125 876.53125 C 476.21315 894.45731 464.62517 908.94254 458.4375 925.625 C 455.8593 929.59846 460.69937 932.66445 463.15625 935 C 482.81122 950.3782 505.80448 960.61834 529.28125 968.65625 C 526.61205 957.79749 523.20782 947.11611 519.75 936.5 C 529.57749 934.49811 539.45468 932.47433 549.3125 930.59375 C 554.89354 950.03641 559.51276 969.75954 563.03125 989.6875 C 564.79049 998.18039 561.57361 1006.3628 558.84375 1014.2188 C 560.57266 1018.7988 562.33542 1023.3582 564.125 1027.9688 C 555.93543 1039.525 551.278 1055.4393 536.71875 1060.6562 C 534.98985 1065.9947 533.3245 1071.3188 531.65625 1076.6875 C 543.51596 1076.6875 555.35904 1077.1773 567.21875 1076.8438 C 580.20075 1076.51 592.60442 1072.1902 605.34375 1070.2188 C 605.95039 1061.3012 605.13058 1052.3927 603.25 1043.6875 C 600.30782 1031.4335 606.2915 1018.606 601.46875 1006.625 C 592.00519 981.99563 591.18261 953.41339 601.34375 928.875 C 605.10489 927.66172 608.98519 926.64067 612.625 925.09375 C 615.47619 891.27385 616.02379 857.1664 619.90625 823.4375 C 623.54606 857.59105 624.29505 892.00821 623.71875 926.34375 C 630.57373 926.88972 637.39503 927.35661 644.25 927.78125 C 655.86706 952.31964 655.10047 981.6923 645 1006.625 C 639.60095 1019.2734 646.62788 1032.9215 642.59375 1045.8125 C 641.71414 1053.1528 637.61845 1061.5218 641.53125 1068.4375 C 649.90281 1070.864 658.73691 1071.9999 666.5625 1076.125 C 682.699 1077.2473 698.89567 1076.7196 715.0625 1076.75 C 713.2426 1070.8656 711.4449 1065.0415 709.625 1059.1875 C 707.50178 1058.8842 703.24914 1058.3043 701.15625 1058.0312 C 694.87757 1048.2645 688.72994 1038.4781 682.90625 1028.4688 C 689.85221 1014.5767 680.84917 999.93976 684.125 985.5625 C 687.67381 967.54545 691.04671 949.43892 696.71875 931.9375 C 707.15287 933.63608 717.66146 934.90897 728.15625 936.03125 C 724.60744 946.73836 721.12693 957.51715 718.09375 968.40625 C 744.27005 959.18539 770.08121 947.59799 790.3125 928.125 C 785.91439 917.96386 780.97532 908.10691 776.03125 898.21875 C 768.69096 883.96284 766.78776 867.81019 763.90625 852.25 C 751.59156 788.67465 739.07571 725.16635 727.125 661.5 C 730.73448 659.25545 734.44659 657.14161 737.84375 654.59375 C 738.81436 645.61555 737.38054 636.60504 736.53125 627.6875 C 734.04404 608.76049 733.27769 589.59153 729.03125 570.9375 C 721.29665 569.6029 713.5811 568.16366 705.9375 566.34375 C 707.60574 560.67171 709.88786 555.07002 710.3125 549.125 C 708.91725 539.26719 704.54974 530.15836 701.03125 520.9375 C 703.24546 514.11286 705.44663 507.29522 707.8125 500.53125 C 717.30634 514.75684 728.23153 528.92505 731.75 546.0625 C 734.72251 559.74211 741.29859 572.20917 746 585.3125 C 754.06825 607.93999 763.51721 630.05084 772.34375 652.375 C 775.04327 660.6859 781.60368 666.53845 788.125 671.9375 C 787.21505 686.70906 783.14708 701.10436 782.84375 715.90625 C 784.33001 725.76407 790.68 734.09994 795.59375 742.5625 C 801.4781 752.6933 812.78555 757.56058 823.25 761.625 C 822.94669 755.58898 821.29233 749.76395 819.59375 744.03125 C 824.38616 743.72794 829.20758 743.54046 834 742.8125 C 836.88151 732.25705 833.42526 719.63994 843.34375 711.875 L 842.15625 701.15625 C 839.27474 694.27095 837.89894 686.87245 836.625 679.5625 C 841.17476 675.68002 845.70207 671.79055 850.3125 667.96875 C 864.84141 632.66259 878.55753 597.01114 891.8125 561.25 C 895.42199 540.86706 906.7221 523.36721 918.1875 506.59375 C 920.91736 514.14635 925.93572 521.87751 923.8125 530.21875 C 921.96226 538.43865 918.99455 546.37109 916.75 554.5 C 919.08554 571.75876 916.96871 589.24399 918 606.59375 C 914.42085 621.88095 905.01477 635.25508 902.40625 650.90625 C 888.15032 726.06834 872.70904 801.02816 858.96875 876.28125 C 856.54221 893.69168 846.6537 908.47197 839.34375 924.0625 C 838.28214 927.39899 834.96587 932.4558 839 935.125 C 847.12891 942.52595 856.8444 947.89321 866.15625 953.65625 C 879.53256 960.87521 893.7321 967.40891 908.625 970.59375 C 905.89514 960.09896 901.967 949.96721 898.8125 939.59375 C 908.67032 937.5312 918.55026 935.44674 928.46875 933.6875 C 934.41377 953.6458 938.61754 973.9939 942.5 994.4375 C 944.19859 1002.2024 940.04507 1009.3481 938.4375 1016.7188 C 938.64983 1021.8447 941.67459 1026.3951 943.3125 1031.1875 C 934.18264 1041.5913 931.5032 1059.7472 916.125 1062.75 C 914.15344 1068.2097 912.38057 1073.761 910.5 1079.2812 C 922.45071 1079.9183 934.39304 1079.9071 946.34375 1079.9375 C 959.05275 1080.7261 970.72024 1074.6389 983.15625 1073.0312 C 988.52497 1062.8399 982.89161 1050.7798 980.34375 1040.4062 C 981.55701 1033.339 983.58181 1026.2823 983.1875 1019.0938 C 981.33726 1008.7505 976.28406 999.25121 974.3125 988.96875 C 973.12956 969.37444 972.16704 949.07405 980.78125 930.875 C 984.66371 930.2987 988.58629 929.79597 992.46875 929.25 C 992.37775 909.26138 994.32074 889.39763 995.625 869.5 C 996.56529 855.21374 996.9981 840.85244 999 826.6875 C 1000.7896 840.88276 1001.4292 855.21374 1002.1875 869.5 C 1003.4918 889.45829 1002.7867 909.44888 1002.9688 929.4375 C 1009.6417 930.1048 1016.3601 930.47885 1023.0938 930.8125 C 1031.2227 943.64284 1030.9026 959.12918 1031.8125 973.71875 C 1032.9044 989.73391 1025.0718 1004.2082 1021.25 1019.3438 C 1021.3107 1026.3807 1023.6636 1033.1817 1023.9062 1040.2188 C 1022.693 1047.377 1019.672 1054.189 1019.1562 1061.4688 C 1019.581 1065.1388 1016.8289 1071.9522 1022.5312 1072.4375 C 1030.2659 1074.0451 1039.1478 1073.2838 1045.0625 1079.5625 C 1061.4416 1080.0478 1077.8395 1079.7215 1094.2188 1079.8125 C 1092.3684 1073.8675 1090.5056 1067.945 1088.625 1062 C 1086.5624 1061.818 1082.4689 1061.3998 1080.4062 1061.1875 C 1073.885 1051.3297 1067.9037 1041.1041 1061.625 1031.125 C 1063.1416 1027.1212 1064.6921 1023.1573 1065.875 1019.0625 C 1065.511 1010.054 1060.0782 1001.4718 1062.6562 992.28125 C 1066.8421 973.11158 1069.3297 953.37645 1076.0938 934.84375 C 1086.1941 937.6646 1097.2957 936.48426 1107.0625 940.09375 C 1104.0293 950.5582 1099.7989 960.69821 1097.2812 971.375 C 1110.7486 966.82524 1123.7018 960.9101 1136.5625 954.84375 C 1148.9682 949.29304 1158.6972 939.53332 1169.3438 931.34375 C 1161.3664 910.68782 1147.5976 892.1569 1145.6562 869.46875 C 1132.7047 801.19197 1119.14 733.02586 1106.2188 664.71875 C 1109.8281 662.38321 1113.6039 660.20045 1117.0312 657.53125 C 1118.002 648.52272 1116.5056 639.51036 1115.6562 630.5625 C 1113.1691 611.66581 1112.4018 592.53086 1108.125 573.9375 C 1100.3904 572.6029 1092.7373 571.19766 1085.0938 569.46875 C 1085.8216 567.1332 1087.2095 562.52304 1087.9375 560.1875 C 1093.2456 546.32589 1080.3124 533.95628 1081.3438 520.125 C 1082.0716 514.51362 1084.4255 509.28966 1087.125 504.40625 C 1099.197 519.69345 1109.2948 537.02517 1112.8438 556.4375 C 1125.674 590.43939 1138.7037 624.454 1152.6562 658.03125 C 1155.6289 667.52509 1164.7681 672.14784 1172.5938 677.03125 C 1171.2591 686.88906 1173.1231 696.73594 1173.0625 706.59375 C 1172.1829 716.75489 1169.8024 726.74327 1168.4375 736.84375 C 1170.8034 738.23901 1175.4778 741.04224 1177.8438 742.4375 C 1178.9356 738.58536 1180.0009 734.75839 1181.0625 730.90625 C 1184.4597 731.02758 1187.885 731.16085 1191.3125 731.3125 C 1186.9447 739.68406 1183.1472 748.37197 1180.7812 757.5625 C 1189.2439 753.92269 1198.1873 750.22262 1204.375 743.125 C 1209.774 736.0577 1213.1561 727.68771 1218.3125 720.46875 L 1221.9688 717.65625 C 1222.5753 709.679 1222.3989 701.57928 1220.0938 693.875 C 1215.1799 677.9205 1218.3143 661.0354 1217.3438 644.65625 C 1218.8906 644.53493 1221.9844 644.30887 1223.5312 644.1875 C 1222.1967 643.4292 1219.4909 641.88238 1218.1562 641.09375 C 1209.4511 628.7184 1204.3881 614.38184 1199.6562 600.15625 C 1196.1682 589.11549 1187.2492 580.75492 1184.125 569.5625 C 1179.1809 551.63644 1169.1676 535.80746 1161.2812 519.125 C 1142.9913 484.33447 1125.8864 448.89899 1108.7188 413.5625 C 1106.0494 410.13501 1102.0802 408.11773 1098.5312 405.8125 C 1080.7266 395.40871 1063.2984 384.25856 1045.2812 374.21875 C 1038.6387 370.79126 1033.5094 365.30163 1028.6562 359.78125 C 1028.7776 355.20115 1028.9109 350.61043 1029.0625 346 C 1034.4919 336.96114 1043.2778 323.11239 1032.8438 314.4375 C 1033.5413 308.21949 1034.2674 301.99835 1034.8438 295.75 C 1024.8342 284.52725 1010.4949 278.08095 995.875 275.59375 C 988.41339 283.99565 975.51576 286.51899 970.875 297.46875 C 970.81434 303.59576 972.65989 309.4934 973.8125 315.46875 C 972.23525 316.40904 969.1085 318.3088 967.53125 319.21875 C 968.4412 329.0159 970.42536 339.0099 977.25 346.5625 C 976.70404 351.87056 978.01845 357.77284 975.53125 362.65625 C 965.52176 375.97189 949.14562 381.50252 935.375 389.84375 C 922.78732 397.63901 908.33026 403.12379 897.5625 413.40625 C 874.72269 459.93516 851.09072 506.12734 828.28125 552.65625 C 822.06324 563.1207 818.42931 574.72576 815.0625 586.3125 C 805.326 574.02814 803.65645 558.02796 796.4375 544.5 C 776.96451 505.34171 756.19262 466.82927 737.78125 427.125 C 734.56609 420.54301 732.17755 413.15731 726.6875 408.03125 C 701.78514 389.31656 671.34256 378.50062 648.59375 356.84375 C 650.01934 343.37646 655.69656 331.02334 660.125 318.375 C 658.54775 316.85841 655.38975 313.76567 653.8125 312.21875 C 654.41914 306.27373 655.30699 300.28786 655.125 294.3125 C 649.39229 282.30112 635.35601 278.86413 624.40625 273.34375 C 622.46502 273.34375 618.5984 273.28125 616.6875 273.28125 C 608.61925 279.40826 598.66837 283.79111 592.875 292.375 C 591.17642 298.32002 593.13234 304.58899 593.375 310.625 C 584.8821 321.30177 591.45201 334.32234 598.125 343.9375 C 598.09466 352.03609 597.98735 361.27375 590.34375 366.1875 C 569.29351 382.41499 543.59896 391.44072 522.09375 407.03125 C 518.0293 410.24641 515.83555 415.0734 513.5 419.5625 C 493.69338 462.02696 471.4197 503.24879 451.21875 545.53125 C 444.12113 557.9066 439.50382 571.40219 434.46875 584.6875 C 427.94743 572.22114 424.991 558.27885 418.5 545.8125 C 396.50949 501.74046 373.25519 458.33125 352.78125 413.53125 C 350.11206 407.58622 344.09022 404.49732 338.8125 401.3125 C 322.13004 391.60634 305.83413 381.2135 289 371.75 C 282.08436 368.11019 276.37055 362.67295 271.0625 357.03125 C 271.24449 352.36015 271.37862 347.70234 271.5 343.03125 C 276.5654 333.7194 286.379 319.86514 275.15625 311.28125 C 275.76289 305.63954 276.78487 300.04611 276.90625 294.34375 C 272.62948 288.06508 266.59944 283.2676 260.59375 278.6875 C 252.70749 276.74627 245.18866 273.1388 236.96875 272.5625 z M 53.5625 707.59375 C 58.840226 712.59849 59.435635 719.82976 60.40625 726.59375 C 58.616678 726.01744 55.008324 724.79506 53.21875 724.21875 C 51.277518 721.09459 49.347481 717.96975 47.40625 714.90625 C 49.438477 712.44937 51.499941 710.02029 53.5625 707.59375 z "
       id="path8"
       transform="scale(0.8,0.8)" />
  </g>
</svg>
