<?xml version="1.0" encoding="UTF-8" standalone="no"?>
<svg
   xmlns:dc="http://purl.org/dc/elements/1.1/"
   xmlns:cc="http://creativecommons.org/ns#"
   xmlns:rdf="http://www.w3.org/1999/02/22-rdf-syntax-ns#"
   xmlns:svg="http://www.w3.org/2000/svg"
   xmlns="http://www.w3.org/2000/svg"
   xmlns:sodipodi="http://sodipodi.sourceforge.net/DTD/sodipodi-0.dtd"
   xmlns:inkscape="http://www.inkscape.org/namespaces/inkscape"
   width="1280"
   height="1280"
   viewBox="0 0 1024 1024"
   version="1.1"
   id="svg2"
   inkscape:version="0.48.1 "
   sodipodi:docname="switch_to_medic.svg">
  <metadata
     id="metadata50">
    <rdf:RDF>
      <cc:Work
         rdf:about="">
        <dc:format>image/svg+xml</dc:format>
        <dc:type
           rdf:resource="http://purl.org/dc/dcmitype/StillImage" />
      </cc:Work>
    </rdf:RDF>
  </metadata>
  <defs
     id="defs48" />
  <sodipodi:namedview
     pagecolor="#ffffff"
     bordercolor="#666666"
     borderopacity="1"
     objecttolerance="10"
     gridtolerance="10"
     guidetolerance="10"
     inkscape:pageopacity="0"
     inkscape:pageshadow="2"
     inkscape:window-width="1920"
     inkscape:window-height="1018"
     id="namedview46"
     showgrid="false"
     inkscape:zoom="0.6609375"
     inkscape:cx="640"
     inkscape:cy="640"
     inkscape:window-x="-8"
     inkscape:window-y="-8"
     inkscape:window-maximized="1"
     inkscape:current-layer="layer2"
     inkscape:snap-page="true" />
  <g
     inkscape:groupmode="layer"
     id="layer2"
     inkscape:label="background">
    <rect
       style="fill:#3e3e3e;fill-opacity:1;fill-rule:nonzero;stroke:none"
       id="rect3018"
       width="1280"
       height="1280"
       x="0"
       y="0"
       transform="scale(0.8,0.8)" />
  </g>
  <g
     inkscape:groupmode="layer"
     id="layer1"
     inkscape:label="foreground">
    <path
       d="m 567.44645,207.56626 c 27.51696,-4.10086 59.20758,-4.68323 81.67734,14.41365 10.89517,11.04075 17.15564,26.91033 16.81593,42.44018 0.94635,23.222 -7.83773,45.23072 -10.99223,67.9674 -1.50446,11.429 -5.12,22.39696 -9.14806,33.14654 -5.12,-1.57725 -10.33706,-2.76626 -15.62692,-3.61555 -0.82502,5.48398 -2.32948,10.84664 -4.46483,15.96664 -20.14029,53.6508 -39.33422,107.66559 -59.6201,161.26787 4.90161,4.95014 11.5018,7.25535 18.10199,8.92966 -2.30521,8.17744 -6.309,21.13517 -16.42767,20.64986 -10.28854,-7.0127 -18.63583,-16.45194 -28.9729,-23.39185 23.29479,-63.38123 46.88076,-126.71393 71.26749,-189.68265 7.95906,-23.34332 18.15052,-46.68664 18.0292,-71.80133 -0.21839,-10.8709 1.79564,-23.39185 -6.04209,-32.22445 -6.89137,-10.70105 -21.35355,-10.79811 -32.6855,-10.43413 -22.32417,2.76626 -44.21156,8.46863 -65.58938,15.36 -0.77649,-0.0728 -2.37801,-0.19412 -3.1545,-0.26692 -3.10597,-11.64739 -7.42522,-23.48891 -16.81593,-31.61782 19.97043,-9.51203 41.6637,-14.99601 63.64816,-17.1071 z"
       id="path6"
       style="fill:#f5e5c1" />
    <path
       d="m 410.2309,256.6309 c 24.45953,-13.68569 49.33156,-26.64341 73.20872,-41.32398 15.79678,3.97953 23.58597,19.65498 28.51185,33.77744 1.8927,6.77005 1.8927,13.90408 2.49934,20.86825 -29.09422,11.01649 -58.60095,20.9653 -87.6709,32.05459 -5.21707,-15.2872 -8.27451,-31.25384 -16.54901,-45.3763 z"
       id="path8"
       style="fill:#f5e5c1" />
    <path
       style="fill:#f4722b"
       d="m 359.05,231.75 c -11.89005,0.97062 -19.90652,11.39455 -23.425,21.95 -7.06124,23.46464 -3.30249,49.01995 6.525,71.15 4.92588,9.97308 13.24239,17.84834 22.075,24.4 6.91564,5.58105 17.17258,5.82735 24.525,0.95 2.37801,-6.55165 6.23605,-12.89391 5.775,-20.125 0.19413,-28.00227 -1.06206,-57.89048 -16.325,-82.35 -3.80967,-7.69214 -10.29313,-14.59187 -19.15,-15.975 z m -10.625,45.5 c 10.66884,-0.2593 14.96884,12.49371 16.675,21.525 0.33972,5.79943 2.57002,13.93666 -3.375,17.625 -3.90673,1.86843 -6.42566,-2.48817 -8.925,-4.575 -7.7164,-9.26938 -11.13763,-22.92099 -6.6,-34.35 0.76891,-0.13801 1.51374,-0.20771 2.225,-0.225 z"
       id="path10" />
    <path
       d="m 391.37668,266.19147 c 4.51337,-2.25668 11.30768,-6.18768 14.97176,-0.53384 8.05611,10.70104 13.54009,23.97422 12.88492,37.56284 -3.22729,5.58105 -11.16208,5.79944 -16.96151,6.26048 -2.28095,-14.70484 -5.02294,-29.531 -10.89517,-43.28948 z"
       id="path12"
       style="fill:#f4722b" />
    <path
       d="m 220.18427,276.74692 c 5.28985,0.5581 11.16208,0.80076 15.19014,4.82881 17.68948,16.59754 29.3854,38.84891 35.67014,62.09517 6.11488,17.13137 6.60019,36.81062 -1.43166,53.40815 -11.81725,0.26692 -22.10578,-6.26047 -30.76853,-13.61289 8.03185,-17.3255 5.84796,-38.48493 -6.26047,-53.38389 -5.12,-8.51715 -15.02029,-11.30767 -23.12493,-16.03943 2.57213,-12.71507 6.50313,-25.06616 10.72531,-37.29592 z"
       id="path14"
       style="fill:#f4722b" />
    <path
       d="m 194.43867,328.96607 c 7.49801,-3.51849 15.9909,-7.83773 24.43526,-4.85308 10.55545,6.3818 15.19015,18.73289 18.44171,30.04056 1.9655,5.92076 0.19412,12.01138 -0.92209,17.85934 -5.6781,4.46484 -11.47753,9.41498 -18.92701,10.36133 0.87355,-16.25782 -2.37801,-34.52967 -15.52986,-45.49763 -2.4508,-2.64493 -6.72151,-4.07659 -7.49801,-7.91052 z"
       id="path18"
       style="fill:#f4722b" />
    <path
       d="m 114.16872,346.17024 c 23.10066,-1.2618 44.8182,-10.74958 67.79754,-12.52095 9.97308,2.30521 20.9653,7.32815 25.01763,17.47109 4.00379,9.63336 7.18256,20.4072 4.92587,30.86559 -2.42654,4.07659 -7.27962,5.43545 -11.33194,7.30389 -14.0982,5.36265 -27.20152,14.17099 -42.61005,15.31147 -17.61668,1.67431 -36.56796,8.12891 -53.52948,0.33971 0.21839,-1.09194 0.67944,-3.25156 0.89782,-4.3435 6.01782,-0.82503 6.13915,-7.54654 5.87223,-12.32683 -0.72796,-8.80834 -3.66407,-17.61668 -9.12379,-24.60512 -4.537631,-5.70237 -11.623128,-8.25023 -17.616683,-12.01137 9.29365,-4.39204 19.800573,-3.56702 29.700853,-5.48398 z"
       id="path20"
       style="fill:#f5e5c1" />
    <path
       d="m 14.801896,395.5746 c 18.68436,-17.3255 43.265213,-26.15811 67.554881,-32.34578 5.726635,-2.08683 9.876019,3.20303 13.661422,6.52739 6.406071,6.16341 6.891371,15.69971 7.012701,24.02275 -12.156966,6.01782 -26.643412,5.58104 -38.023886,13.4673 -9.560569,6.96417 -20.043223,13.68568 -26.182369,24.11981 -9.390711,14.14673 -13.224645,32.49137 -8.031849,48.91905 1.601517,18.75715 12.132702,35.25763 25.381612,48.09403 28.050805,27.85668 58.115642,53.57801 87.088532,80.43981 29.4582,27.32284 63.57535,51.7581 103.20076,61.31867 5.12,1.45593 11.25914,0.58237 15.45706,4.4163 7.37668,6.06635 10.11867,15.60266 12.71507,24.411 1.2618,6.16341 2.5236,14.43791 -3.73687,18.39317 -12.18123,1.98977 -24.38673,-0.77649 -36.37384,-2.71772 4.12512,-8.39583 5.87223,-18.5145 2.54787,-27.44417 -1.52872,-5.12 -7.20683,-6.16341 -11.50181,-7.86199 -25.64853,-8.54142 -49.74407,-21.47488 -71.24322,-37.78123 -24.60512,-21.59621 -48.62787,-43.82332 -72.771941,-65.90484 -6.891374,2.83905 -12.545213,7.76493 -19.048341,11.33194 C 49.695545,573.27014 35.548815,560.6764 24.896303,545.09801 20.722654,538.52208 13.443033,532.69839 14.534976,524.10844 14.753365,481.28 14.219526,438.40303 14.801896,395.5746 z"
       id="path22"
       style="fill:#f5e5c1" />
    <path
       d="m 622.55318,401.2527 c 4.02805,-10.67678 7.42521,-21.59621 12.20549,-31.95753 1.81991,1.04341 5.48398,3.13023 7.30389,4.17365 -19.63071,56.00454 -38.41213,112.27601 -57.55754,168.45042 -3.63981,-2.06256 -7.27962,-4.10085 -10.94369,-6.13914 15.89384,-44.98806 32.68549,-89.66067 48.99185,-134.5274 z"
       id="path24"
       style="fill:#f4722b" />
    <path
       d="m 802.09289,457.08739 c 43.11962,-13.27317 91.35924,-11.04075 132.44057,8.05612 26.03678,12.22976 49.59848,32.78256 59.64436,60.37232 10.26428,26.61915 2.88758,58.04284 -15.96664,79.00815 -3.56701,-3.71261 -6.77004,-7.7164 -9.48777,-12.08417 3.10597,-2.15962 9.63337,-2.35374 8.44436,-7.61934 -0.0243,-16.59753 0.46105,-33.2436 -0.50957,-49.81687 -22.42123,-17.05858 -43.99318,-35.23336 -66.0019,-52.80151 -9.19658,-7.95906 -21.93592,-11.6474 -33.75317,-7.74067 -30.45308,8.56569 -60.49365,18.53877 -90.77687,27.71109 -9.19659,2.86332 -18.53877,5.36266 -27.41991,9.14806 0.0971,15.62692 -0.41251,31.22957 -0.5581,46.85649 27.15298,24.94484 54.76701,49.33157 81.50748,74.71318 11.59887,-1.60152 22.37271,-6.62446 33.89877,-8.56569 4.02806,-1.28607 6.98844,2.06256 9.80323,4.29498 7.47374,6.62445 15.8453,12.27829 22.44549,19.8491 -43.87185,10.94369 -92.18426,7.08549 -132.22218,-14.65631 -23.51317,-12.73933 -44.1873,-32.85535 -52.65592,-58.72227 -7.54654,-21.8874 -3.39716,-46.66237 8.85687,-66.05043 16.0637,-26.01251 43.65346,-42.90123 72.3109,-51.95223 z"
       id="path26"
       style="fill:#f4722b" />
    <path
       d="m 873.45744,483.26976 c 8.61422,-3.13023 19.33953,-4.65895 26.8618,1.8927 21.54768,17.27697 42.9983,34.74806 64.61877,51.95223 3.59128,2.64493 6.96417,6.40607 6.47886,11.23488 0.26692,12.42389 -0.14559,24.84778 0.12133,37.27166 -2.45081,0.21839 -4.92588,0.41251 -7.37668,0.6309 -0.0728,-12.47241 0.0243,-24.92057 -0.0243,-37.39298 -38.04815,12.56948 -76.24189,24.70218 -114.21725,37.46578 0.0243,12.71507 0.0243,25.40588 0.0243,38.12095 -2.42654,0.0971 -4.82882,0.19412 -7.23109,0.31545 -0.21839,-13.37024 0.0485,-26.74048 -0.21839,-40.08645 -22.88228,-18.68436 -44.52702,-38.97023 -68.25858,-56.53839 -0.89782,10.11868 -0.48531,20.26161 -0.58237,30.38029 -1.65005,0.0728 -4.97441,0.19412 -6.62446,0.26692 -0.99488,-13.95261 -1.06767,-28.02654 -0.21838,-41.95488 35.33042,-11.81726 71.21895,-21.98446 106.64644,-33.55906 z"
       id="path28"
       style="fill:#f4722b" />
    <path
       style="fill:#f5e5c1"
       d="m 465.525,513.175 c -3.17314,0.0759 -6.34349,0.53803 -9.225,1.175 -28.92436,6.50313 -55.13818,20.93206 -82.825,31.075 -35.33043,16.37915 -70.92185,32.63322 -103.85,53.55 0.29118,4.10085 -0.68097,8.87564 2.425,12.2 8.92967,12.01137 17.36962,24.38126 25.45,36.975 -11.79299,4.95014 -25.04526,5.43071 -36.45,11.4 9.22086,12.49668 17.95566,25.43564 25.575,39 2.62066,13.56436 0.54327,27.78196 4.45,41.225 2.03829,0.0486 6.0867,0.1772 8.125,0.25 -0.53384,-12.2055 -1.0779,-24.3945 -1.175,-36.6 17.9564,-0.60663 35.84434,-2.55514 53.825,-2.725 15.40853,-0.43678 30.7172,-2.88384 46.15,-2.35 14.36512,12.03563 29.39299,23.40846 43.2,36.075 -0.29118,14.31659 -0.2478,28.60841 -0.175,42.925 2.88758,0.87355 5.84183,1.58088 8.875,1.775 -0.33971,-15.31146 0.002,-30.63779 0.075,-45.925 25.45441,-12.03564 52.19045,-21.05038 77.475,-33.45 5.8237,-2.35374 11.87187,-7.35377 18.375,-4.175 -1.11621,11.18634 1.39564,22.41218 -0.4,33.55 1.60152,-0.33971 3.22495,-0.65955 4.875,-0.975 0.0728,-15.31147 -0.4037,-30.6378 0.3,-45.925 -5.72664,-11.04076 -11.05057,-22.25777 -16.85,-33.25 12.66654,-21.54768 25.32756,-43.11557 38.625,-64.275 -10.1672,-12.10844 -21.96953,-22.62983 -33.35,-33.525 -11.13782,0.92208 -20.84896,6.85507 -31.55,9.5 -6.57593,-14.07393 -16.38067,-26.25844 -24,-39.75 -3.95374,-6.17251 -10.9691,-7.91709 -17.95,-7.75 z m -0.975,7.95 c 3.0445,0.0143 6.05424,0.7778 8.775,2.625 6.309,2.62066 3.73531,10.35794 3.25,15.575 -8.8326,3.39716 -20.52557,4.22893 -26.325,-4.725 -0.0485,-2.20815 -0.17721,-6.59111 -0.25,-8.775 4.27678,-2.66919 9.47583,-4.72394 14.55,-4.7 z m -162.5,70.3 c 7.1489,-0.18101 15.21647,5.64964 14.625,13.225 -3.8582,9.5363 -18.61157,12.12154 -25.6,4.575 -2.74199,-2.5964 -3.03453,-6.57784 -4.175,-9.975 4.19791,-3.05744 8.07116,-7.7 13.725,-7.7 0.46559,-0.0667 0.94841,-0.11293 1.425,-0.125 z"
       id="path30" />
    <path
       d="m 407.80436,573.05175 c 4.27071,-1.91696 9.17232,-3.51848 13.85555,-2.01402 8.63848,5.72663 13.97687,15.16587 22.39696,21.18369 11.16209,1.45593 20.74692,-7.20682 31.59356,-8.68701 7.18256,2.06256 10.77384,9.6091 15.9181,14.48644 3.73687,4.95015 12.42389,10.28853 6.93991,17.08285 -8.27451,5.99355 -19.02408,7.06123 -27.32285,13.10331 5.94503,8.3473 14.92323,13.97688 20.79545,22.29991 -0.0243,4.95014 -2.42654,9.87602 -7.40095,11.47754 -13.27317,5.77516 -25.13895,17.66521 -40.42616,16.64606 -10.43412,-6.52739 -15.9181,-19.26673 -26.81327,-24.82351 -11.98711,3.34863 -23.0036,9.73043 -34.38407,14.75337 -12.71507,-3.32436 -19.02408,-16.08796 -27.41991,-25.0419 0.65517,-1.62578 1.9655,-4.85308 2.62067,-6.47886 10.77383,-5.84796 22.13004,-10.70104 32.10312,-17.85934 -5.50824,-10.7253 -17.66521,-18.00492 -18.78142,-30.72 12.05991,-5.24132 24.3382,-9.97308 36.32531,-15.40853 z"
       id="path34"
       style="fill:#f4722b" />
    <path
       d="m 915.36379,581.88436 c 5.36266,-8.10464 16.11223,-13.44303 25.06616,-7.32815 12.95773,9.43924 20.84398,23.90142 31.4965,35.64588 14.75336,22.39696 32.27295,43.65345 41.88205,68.91374 1.1162,34.09289 0.1942,68.28284 0.4853,102.4 0.8251,8.63848 -4.9016,15.52986 -8.784,22.63962 -20.43151,38.48493 -54.16042,67.16664 -86.16648,95.75128 -17.68948,14.99602 -36.27678,28.97289 -56.17441,40.91147 -25.81839,12.8364 -55.25232,17.90787 -83.90976,15.89384 -10.3856,-2.32948 -21.03811,-1.48019 -31.54503,-2.5236 -29.87071,-7.13403 -59.69289,-15.9909 -86.82161,-30.67147 -11.40474,-6.28474 -23.85289,-10.77384 -34.23848,-18.80569 -21.96019,-13.17611 -43.24095,-27.58976 -62.41062,-44.62408 -16.79166,-16.37914 -35.28189,-30.98692 -51.15147,-48.33668 -17.61668,-16.549 -31.08398,-37.27166 -51.24853,-51.07867 0.67943,-8.25024 1.62578,-17.73801 8.75981,-23.12493 5.43545,-3.39716 12.44815,-7.23109 18.82996,-3.88247 7.71639,3.95527 13.03052,11.21062 19.7763,16.50048 9.68189,7.91052 16.84019,19.19393 28.80303,24.02275 0.0485,-1.55299 0.19413,-4.61043 0.24266,-6.16341 -13.5401,-12.39963 -25.57574,-26.35223 -38.14522,-39.72247 5.45972,-5.36265 10.21574,-14.70483 19.24247,-13.03052 11.35621,0.87355 14.21952,13.70995 20.50426,21.08663 12.95773,16.86446 26.13384,33.63185 40.06218,49.69555 20.79545,22.17858 42.77991,43.33801 66.36588,62.53194 21.76607,14.36512 44.55128,27.22578 67.45782,39.6982 16.67033,8.83261 35.08777,13.61289 53.40815,17.59242 15.21441,1.3346 30.74427,1.57725 45.76455,-1.67431 15.9181,-2.13536 30.04057,-10.24 44.01744,-17.61669 20.67412,-12.81213 41.22692,-27.00739 55.66484,-46.95355 6.84284,-9.92455 14.94748,-19.07261 20.18881,-30.0163 11.74446,-23.75583 21.62047,-50.03526 18.75716,-76.9456 -2.40228,-13.97687 -2.40228,-29.02142 -10.16721,-41.42104 -6.55166,-14.92322 -14.85042,-29.28834 -26.32796,-40.98426 -9.17232,-11.11356 -19.12114,-21.69327 -30.74426,-30.25896 -5.48399,-5.26559 -12.8364,-12.47242 -8.75981,-20.74692 2.62066,-7.59507 9.97308,-11.47754 17.34976,-13.15185 8.08038,4.07659 15.67545,9.22085 22.05725,15.69972 16.40341,16.71886 32.90389,33.63184 46.32265,52.89857 6.64872,14.68057 14.2438,28.94863 19.70351,44.13877 3.51848,10.21574 2.37801,21.03811 3.80967,31.56929 4.78028,16.93725 -3.37289,34.06863 -0.6309,51.24853 2.40227,-5.62957 4.34351,-11.429 6.35753,-17.20417 8.32304,-32.39431 2.30522,-67.36076 -12.78786,-96.84322 -14.97176,-29.55526 -36.39811,-55.44645 -62.02237,-76.43602 -0.12133,-3.10597 -0.21839,-6.21194 -0.33972,-9.29365 z"
       id="path36"
       style="fill:#f5e5c1" />
    <path
       d="m 68.549763,596.68626 c 3.785403,-5.87223 7.740664,-12.56948 15.117346,-14.21953 17.325501,20.18882 38.048151,37.00474 57.945781,54.57289 9.77896,9.97308 21.52341,17.61668 32.95242,25.5272 16.86445,11.47754 36.73782,16.84019 55.20379,25.0419 0,6.04209 -0.24265,12.05991 -0.65517,18.07773 -13.00625,1.8927 -23.6345,-6.96418 -35.01497,-11.5746 -49.25877,-21.8146 -85.46275,-62.92019 -125.549197,-97.42559 z"
       id="path38"
       style="fill:#f4722b" />
    <path
       d="m 983.50104,611.39109 c 4.90161,-9.56057 10.14294,-18.95128 14.21953,-28.92436 2.59643,14.0982 -0.46104,28.24493 -4.5619,41.71223 -4.90161,-2.64493 -7.91052,-7.66787 -9.65763,-12.78787 z"
       id="path40"
       style="fill:#f4722b" />
    <path
       d="m 717.47943,586.81024 c 4.90161,1.11621 5.36266,6.69725 7.49801,10.36132 12.81213,27.5655 39.09156,46.56531 66.82692,57.36342 37.8055,14.60777 80.46408,15.9181 119.28872,4.46483 2.49934,-0.89782 6.40607,-1.16474 7.47374,2.01403 4.05233,7.42521 7.35242,15.2872 10.09441,23.29479 -45.01232,18.17478 -97.15867,18.73289 -141.90407,-0.60664 -21.91166,-9.39071 -41.88209,-24.21687 -55.27659,-44.13877 -10.26427,-15.45706 -15.31147,-34.23848 -14.00114,-52.75298 z"
       id="path42"
       style="fill:#f4722b" />
  </g>
</svg>
