<?xml version="1.0" encoding="UTF-8" standalone="no"?>
<svg
   xmlns:dc="http://purl.org/dc/elements/1.1/"
   xmlns:cc="http://creativecommons.org/ns#"
   xmlns:rdf="http://www.w3.org/1999/02/22-rdf-syntax-ns#"
   xmlns:svg="http://www.w3.org/2000/svg"
   xmlns="http://www.w3.org/2000/svg"
   xmlns:sodipodi="http://sodipodi.sourceforge.net/DTD/sodipodi-0.dtd"
   xmlns:inkscape="http://www.inkscape.org/namespaces/inkscape"
   width="1280"
   height="1280"
   viewBox="0 0 1024 1024"
   version="1.1"
   id="svg2"
   inkscape:version="0.48.1 "
   sodipodi:docname="syringe_scouts.svg">
  <metadata
     id="metadata58">
    <rdf:RDF>
      <cc:Work
         rdf:about="">
        <dc:format>image/svg+xml</dc:format>
        <dc:type
           rdf:resource="http://purl.org/dc/dcmitype/StillImage" />
      </cc:Work>
    </rdf:RDF>
  </metadata>
  <defs
     id="defs56" />
  <sodipodi:namedview
     pagecolor="#ffffff"
     bordercolor="#666666"
     borderopacity="1"
     objecttolerance="10"
     gridtolerance="10"
     guidetolerance="10"
     inkscape:pageopacity="0"
     inkscape:pageshadow="2"
     inkscape:window-width="1920"
     inkscape:window-height="1018"
     id="namedview54"
     showgrid="false"
     inkscape:zoom="0.6609375"
     inkscape:cx="640"
     inkscape:cy="640"
     inkscape:window-x="-8"
     inkscape:window-y="-8"
     inkscape:window-maximized="1"
     inkscape:current-layer="layer2"
     inkscape:snap-page="true" />
  <g
     inkscape:groupmode="layer"
     id="layer2"
     inkscape:label="background">
    <rect
       style="fill:#3e3e3e;fill-opacity:1;fill-rule:nonzero;stroke:none"
       id="rect3026"
       width="1280"
       height="1280"
       x="0"
       y="0"
       transform="scale(0.8,0.8)" />
  </g>
  <g
     inkscape:groupmode="layer"
     id="layer1"
     inkscape:label="foreground">
    <path
       d="m 819.78237,140.98199 c 6.40607,-5.36265 12.81213,-10.72531 19.58218,-15.65118 6.60019,2.96037 13.73422,4.24644 20.86825,5.21706 37.51431,42.24606 74.71317,84.78331 111.8635,127.3691 -0.38824,6.72151 0,13.4673 2.01403,19.94616 -5.70237,6.06635 -11.89005,11.67166 -18.05346,17.27696 -45.57042,-51.24853 -91.14085,-102.52132 -136.2745,-154.1581 z"
       id="path6"
       style="fill:#f5e5c1" />
    <path
       d="m 155.97801,141.29744 c 6.57592,-8.68701 18.68436,-8.20171 27.83242,-12.7636 5.09573,4.07659 10.57971,7.74066 15.14161,12.47242 2.5964,4.12511 -0.0485,8.29876 -3.00891,11.23488 -42.9983,47.63298 -85.09877,96.06673 -128.16986,143.60265 -6.163412,-5.21706 -12.156967,-10.60398 -17.883602,-16.30635 2.547868,-5.87223 3.469953,-12.22976 3.00891,-18.61156 33.801706,-40.3291 68.889482,-79.59052 103.079432,-119.62844 z"
       id="path8"
       style="fill:#f5e5c1" />
    <path
       d="m 819.41839,249.32701 c 14.68057,-12.6908 27.68682,-27.3471 43.38654,-38.80037 8.9782,10.1672 18.61156,19.80056 27.12872,30.38028 0.0243,0.87355 0.0485,2.62066 0.0485,3.49422 -10.89517,10.72531 -22.76095,20.45573 -34.5054,30.23469 1.79564,15.79678 6.28474,31.13251 8.32303,46.88076 -11.74445,6.06635 -22.85801,13.27317 -34.18995,20.06749 6.64872,6.96417 13.4673,13.80701 20.38294,20.52853 0.0243,9.29365 -0.0971,18.5873 -0.67944,27.88094 -2.71772,2.64493 -5.43545,5.28986 -8.15317,7.95906 -43.84758,-50.32645 -87.64664,-100.70143 -131.05744,-151.41612 3.37289,-2.88758 6.47886,-6.13914 10.28853,-8.46862 6.57592,0.14559 13.32171,0.50957 19.65498,2.5236 7.54654,6.9399 13.05478,15.79678 19.8491,23.46464 9.07526,-9.6091 17.03431,-20.18881 25.33308,-30.47734 12.52094,2.18388 22.56682,11.04076 34.18995,15.74824 z"
       id="path10"
       style="fill:#f5e5c1" />
    <path
       d="m 159.08398,213.60834 c 6.50313,1.94123 10.84664,7.37668 15.77251,11.69593 9.46351,8.63848 18.99981,17.20417 28.46332,25.86691 10.70104,-5.14426 21.25649,-10.55545 32.00607,-15.60265 9.02673,10.1672 17.30123,21.03811 26.74047,30.84133 7.18256,-7.88626 13.5401,-16.47621 20.35867,-24.67792 6.72152,-0.21839 13.4673,-1.11621 20.18882,-0.58237 4.95014,1.84417 7.52227,6.81858 9.6091,11.35621 -42.9983,48.57934 -85.75394,97.37706 -128.67943,146.05346 -3.3001,-2.28095 -6.57593,-4.61042 -9.82749,-6.96417 1.04341,-9.12379 0.0728,-18.87848 3.71261,-27.4927 5.02293,-6.3818 11.47753,-11.45327 16.93725,-17.42256 -10.50692,-9.6091 -24.38673,-14.51071 -34.94218,-23.99848 2.08682,-15.69972 6.01782,-31.10825 8.61421,-46.75943 -11.81725,-10.65252 -26.30369,-18.29612 -36.73782,-30.40455 9.39072,-10.53119 18.53877,-21.2565 27.78389,-31.90901 z"
       id="path12"
       style="fill:#f5e5c1" />
    <path
       d="m 388.46483,252.65137 c 34.31128,-13.78274 70.80645,-20.23734 106.74351,-28.02654 17.85934,1.35887 35.2819,6.62446 53.01991,9.31792 14.17099,2.32948 28.43905,4.75602 41.83355,10.24 20.77119,8.22597 41.71223,16.28208 61.65839,26.47355 4.24645,2.52361 9.87602,4.87735 11.30768,10.09441 2.54786,13.85555 2.83905,27.97801 4.63469,41.93062 1.31033,13.87981 -0.46104,27.97801 2.40227,41.73649 0.99489,16.81592 1.4074,33.75318 0.6309,50.59336 -15.33573,-12.30255 -31.47222,-24.28966 -50.4235,-30.38028 -22.00872,-7.06123 -44.2601,-13.44303 -66.89972,-18.17479 -24.36246,-4.07658 -48.99185,0.0728 -73.16019,3.34863 -33.14654,6.84284 -67.09384,15.40853 -95.58142,34.43261 -17.2527,13.85554 -34.5782,27.63829 -50.73896,42.80417 -4.17365,-22.56683 -6.40606,-45.42484 -7.91052,-68.28285 -0.29118,-6.06635 -0.0971,-12.20549 1.18901,-18.15052 5.58104,-23.27052 13.07905,-46.03147 18.70862,-69.30199 2.64493,-7.37668 4.12512,-15.31147 8.03185,-22.15431 9.24512,-9.24512 22.90654,-11.5018 34.55393,-16.50048 z"
       id="path14"
       style="fill:#f5e5c1" />
    <path
       d="m 695.54351,325.52038 c 12.52094,-10.36133 24.60512,-21.20796 36.51943,-32.27299 22.80948,25.91545 45.25497,52.17062 67.62768,78.49858 -16.25782,14.75337 -32.83109,29.11848 -49.18598,43.72626 -7.35241,6.47886 -13.24891,15.19014 -22.9308,18.41744 -3.00891,-14.58351 -6.11488,-29.11849 -9.58484,-43.60493 2.52361,-3.7854 5.21707,-7.54654 8.75982,-10.48265 12.08417,-10.48266 23.94995,-21.1837 35.96132,-31.76342 -5.62957,-6.3818 -11.13782,-12.86066 -16.64606,-19.31526 -11.25915,10.26427 -22.05726,21.23223 -34.89365,29.50673 -4.87735,-11.04076 -10.11868,-21.96019 -15.62692,-32.70976 z"
       id="path16"
       style="fill:#f5e5c1" />
    <path
       d="m 285.31261,302.27412 c 2.23241,-2.74199 5.36265,-4.4891 8.42009,-6.13914 10.96796,10.55545 22.08152,20.94104 33.07375,31.47222 -3.83394,12.69081 -7.37669,25.47868 -11.28342,38.14522 -13.07905,-11.33195 -25.76985,-23.0764 -38.9217,-34.31128 -5.70237,6.9399 -11.25915,14.00113 -17.10711,20.79545 18.05346,15.9181 36.56796,31.30237 54.79128,47.05061 4.27071,2.88759 4.3435,8.32304 5.0472,12.9092 1.79564,17.13137 3.88247,34.21422 5.87223,51.32133 -34.60247,-28.8273 -68.84095,-58.11564 -103.37062,-87.04 2.01403,-3.3001 4.07659,-6.60019 6.62446,-9.53631 18.97554,-21.52341 37.97535,-43.04682 56.85384,-64.6673 z"
       id="path18"
       style="fill:#f5e5c1" />
    <path
       d="m 691.2728,375.89536 c -8.44436,-17.83508 -9.1238,-37.97536 -8.71128,-57.33915 5.72663,19.16967 19.46085,35.2091 22.73668,55.20379 6.23621,31.59355 14.34085,62.7746 20.11602,94.44095 0.58237,19.48512 0.84929,38.9945 0.65516,58.47962 -0.43677,9.82749 3.8582,19.19393 2.30522,29.06995 -3.54275,8.37157 -2.40228,17.83507 -4.90161,26.54635 -3.03318,19.24247 -11.42901,36.95621 -18.85422,54.79128 -1.84417,4.02806 -4.00379,8.54142 -8.25024,10.45839 -8.88114,1.94123 -20.69839,1.86844 -24.99336,-7.88626 -3.42143,-9.65763 -4.02806,-21.47488 0.87355,-30.74426 13.24891,-20.79545 10.96796,-47.07488 6.89137,-70.24834 -0.50957,-9.48777 -1.8927,-18.87849 -3.54274,-28.1964 7.13402,-0.12133 14.26805,0.33972 21.40208,-0.0243 4.70749,-13.61289 -0.58237,-28.63317 5.7509,-41.71222 2.37801,0.99488 7.13403,2.98464 9.51204,4.00379 -0.94635,-13.78275 -2.5236,-27.5655 -5.99355,-40.96 C 701.44,413.09422 699.59583,393.5363 691.2728,375.89536 z"
       id="path20"
       style="fill:#f5e5c1" />
    <path
       d="m 426.75564,393.5363 c 35.9128,-9.5363 72.01972,-21.81459 109.60682,-20.69839 28.63318,6.28474 56.73252,14.68057 84.90465,22.71242 12.49668,4.44057 26.42502,10.26427 32.6855,22.76095 11.18635,17.61668 23.0036,34.82085 33.82597,52.63166 3.20303,7.95905 1.72284,16.81592 0.36398,25.04189 -1.57725,0.19413 -4.75602,0.60664 -6.33327,0.82503 -3.66408,-2.54787 -7.49801,-4.97441 -10.38559,-8.39583 -11.76872,-14.0254 -23.36759,-28.2692 -36.85915,-40.64455 -14.77763,-12.44815 -33.89877,-17.90787 -52.51033,-21.52341 -19.72777,-5.16853 -40.18351,-5.7509 -60.42086,-6.4546 -23.61023,-0.24265 -46.85649,4.27071 -70.19981,7.15829 -12.37535,1.67432 -24.41099,5.07147 -36.64075,7.54654 -21.35356,6.69725 -40.18351,20.14029 -54.91261,36.85915 -7.86199,6.52739 -12.56948,16.45194 -21.64474,21.45062 -2.81479,-13.75849 8.68701,-24.87204 7.44948,-38.55773 23.73156,-23.92569 47.29327,-51.46692 81.07071,-60.71204 z"
       id="path22"
       style="fill:#f5e5c1" />
    <path
       style="fill:#f5e5c1"
       d="M 646.0625 557.78125 C 609.85634 557.85519 573.71169 564.92456 539.15625 575.59375 C 516.92307 581.26579 498.01988 594.7598 478.03125 605.40625 C 473.23884 608.95506 464.56522 611.04206 465.6875 618.625 C 465.71784 639.7359 464.571 661.35052 456.59375 681.1875 C 450.64872 699.1439 442.57139 720.44435 453.1875 738.21875 C 472.41784 762.45383 506.52144 766.8707 527.875 788.40625 C 536.82286 807.30292 535.68519 831.72935 552.125 846.53125 C 557.22074 842.77011 563.45201 835.9061 570.125 841.0625 C 580.10415 845.94591 589.5208 862.08021 601.5625 853.375 C 608.8118 847.82429 618.463 846.94564 626.53125 851.34375 C 640.63551 858.77503 659.03824 857.6354 671.65625 847.65625 C 679.81549 841.19559 690.73042 842.92651 700.40625 841.53125 C 703.28777 837.31514 706.4135 833.28871 709.75 829.40625 C 721.24572 829.67923 729.66795 821.12242 738.3125 814.84375 C 742.7106 803.98499 744.0393 791.4056 751.53125 782.09375 C 765.11987 773.5402 781.96007 773.2162 796.125 765.90625 C 803.0103 762.35744 811.03383 761.01484 817.3125 756.34375 C 833.085 739.57029 834.39387 709.40764 817.46875 692.9375 C 806.246 677.58963 800.4035 658.86267 800.3125 639.875 C 800.64615 619.18874 781.0748 607.23018 769.09375 593.15625 C 744.91935 572.92496 714.03676 560.09563 682.21875 560.15625 C 670.19221 558.49559 658.13122 557.7566 646.0625 557.78125 z M 557.8125 608.84375 C 562.91739 608.84921 568.0085 609.2984 573.03125 610.1875 C 582.28244 612.79602 593.87669 614.34256 599.09375 623.59375 C 604.06816 634.11886 608.38901 647.7497 600.59375 658.0625 C 588.27906 674.80562 574.43069 691.48043 555.625 701.15625 C 543.24964 709.98279 525.25406 712.74565 511.96875 704.34375 C 500.04838 694.91057 494.16081 679.23297 495.34375 664.21875 C 493.79684 650.08415 499.06412 636.70346 506.34375 624.84375 C 521.27266 614.36981 539.58075 608.82427 557.8125 608.84375 z M 716.375 610.8125 C 727.75136 610.86422 738.90678 612.91318 749.34375 618.59375 C 762.17408 624.78142 767.78856 638.9987 769.0625 652.375 C 770.57909 668.5115 772.26135 687.06211 761.28125 700.46875 C 753.69831 710.62989 740.06652 715.13335 727.8125 712.3125 C 701.42387 707.27742 674.06203 695.80396 658.5625 672.8125 C 651.55586 663.13666 654.21776 650.54626 656.25 639.6875 C 657.4936 631.52825 661.62117 624.33934 666.65625 618 C 682.64867 614.88436 699.74801 610.73691 716.375 610.8125 z M 630.59375 698.09375 C 645.03166 710.19611 657.26886 724.69084 672.34375 736.15625 C 671.79778 746.5297 669.71895 757.46025 662.5 765.4375 C 657.9199 770.56356 650.68309 770.93379 644.34375 771.84375 C 646.34565 765.1101 647.54227 758.16196 647.90625 751.125 C 643.05318 750.943 638.16559 750.84191 633.3125 750.78125 C 630.21866 756.78694 627.28869 762.87391 624.4375 769.03125 C 613.42708 768.66727 602.10584 763.0003 597.34375 752.6875 C 594.76555 745.01356 600.56514 738.16836 604.78125 732.375 C 613.88078 721.30391 622.19185 709.65014 630.59375 698.09375 z "
       id="path24"
       transform="scale(0.8,0.8)" />
    <path
       d="m 739.05137,497.14957 c 0.80076,-1.01914 2.40228,-3.03317 3.20304,-4.02805 6.47886,6.16341 16.91298,9.22085 18.92701,19.04834 0.92209,11.23488 0.12133,22.51829 0.36398,33.75317 -0.29118,15.36 1.4074,31.03545 -3.03317,45.98294 -3.71261,12.42389 -8.88114,24.9691 -18.34465,34.16569 -4.53763,4.44057 -8.75981,9.22085 -12.49668,14.36512 -4.73175,-0.29119 -9.94881,0.19412 -13.41877,-3.68834 5.77517,-10.04588 8.83261,-21.30503 14.60778,-31.32664 6.26047,-11.5018 7.86199,-24.79924 7.61933,-37.70843 5.16853,-23.17347 1.3346,-47.05062 2.57213,-70.5638 z"
       id="path30"
       style="fill:#f5e5c1" />
    <path
       d="m 777.82749,618.2582 c -2.0383,-4.87735 1.84417,-9.26938 3.54275,-13.58863 7.23109,14.94749 6.62445,31.95754 6.74578,48.14256 1.94123,24.70218 -12.35109,46.49251 -25.21175,66.26882 -7.7892,13.49156 -16.37915,27.05592 -28.92436,36.68929 -15.57839,11.69592 -34.77233,16.59753 -51.73384,25.72132 -14.55925,7.37669 -30.74427,10.19147 -46.49252,13.70996 -1.62578,3.8582 -3.25156,7.69213 -4.85308,11.57459 -13.3945,-0.84929 -26.8618,-0.99488 -40.1835,-2.79052 0,-10.65251 4.61042,-20.43147 9.14805,-29.77365 2.06256,-4.14938 6.62446,-8.08038 11.55034,-6.57592 8.51715,1.74711 17.13137,3.08171 25.84265,3.27583 -0.0243,4.17365 -0.14559,8.3473 -0.24265,12.54521 9.56056,0.0243 18.73289,-2.66919 27.85668,-5.14426 14.48644,-3.63981 26.9346,-12.39962 41.00853,-17.13138 15.96663,-5.65384 32.00607,-13.87981 42.07621,-27.97801 6.309,-7.5708 9.85175,-16.93725 15.82104,-24.72644 13.51583,-17.88361 22.05725,-40.91147 17.81081,-63.4783 -1.84418,-8.85687 -0.92209,-18.07772 -3.76114,-26.74047 z"
       id="path34"
       style="fill:#f5e5c1" />
    <path
       d="m 360.60815,623.69365 c 12.9092,9.51204 28.17213,18.29611 34.82085,33.65611 4.19792,13.49157 4.29498,27.83242 4.24645,41.83356 21.23223,10.33706 29.14275,36.85914 51.87943,44.72113 28.51185,11.18636 59.91128,6.13915 89.73346,8.92967 14.41365,1.81991 29.36114,-0.80076 42.51299,-6.84284 12.49668,-10.53119 19.31526,-25.96398 27.75962,-39.6254 6.3818,-9.56057 1.8199,-21.23223 1.50445,-31.71489 3.49422,-6.77004 4.51337,-14.77762 9.63337,-20.67412 7.74066,-10.04588 19.33952,-16.06369 31.3509,-19.41232 0.0485,15.89384 1.16474,32.51564 -4.80455,47.60872 -2.45081,10.91943 -10.16721,19.33953 -16.08796,28.48758 -20.64986,32.00607 -41.76076,63.69669 -62.8474,95.43583 -7.27962,9.75469 -9.92455,23.7801 -22.34843,28.80304 -21.98446,3.59128 -44.45422,1.28606 -66.34161,-1.84417 -16.81593,-7.30389 -24.70218,-25.16323 -36.42237,-38.12095 -9.92455,-10.55545 -17.44683,-23.0036 -26.98313,-33.87451 -17.2527,-21.52341 -35.79147,-42.00341 -52.92285,-63.62388 -8.85687,-11.06503 -11.47753,-25.96398 -9.70616,-39.771 0.7037,-11.5018 5.53252,-22.34843 5.02294,-33.97156 z"
       id="path36"
       style="fill:#f5e5c1" />
    <path
       d="m 661.91166,667.61403 c 25.33308,21.8146 50.86028,43.4108 76.1691,65.2254 -8.51716,7.13403 -17.34976,14.55924 -28.48758,17.01005 -19.3638,-16.57327 -38.89745,-32.95242 -58.01858,-49.79261 4.58616,-10.40986 8.10464,-21.28076 10.33706,-32.44284 z"
       id="path38"
       style="fill:#f5e5c1" />
    <path
       d="m 563.07867,674.14142 c 5.41119,-0.0728 14.21953,-4.31924 16.59754,2.93612 3.93099,7.30388 3.00891,15.72398 1.28606,23.51317 -4.78028,0.33972 -9.02672,-1.48019 -12.64227,-4.4891 -2.28095,-7.18256 -4.27071,-14.46218 -5.24133,-21.96019 z"
       id="path40"
       style="fill:#f5e5c1" />
    <path
       d="M 91.092322,899.27583 C 176.02123,824.90237 260.82882,750.38332 345.66066,675.88853 c 0.60664,11.74446 7.37669,21.30503 14.07394,30.42882 -82.64796,71.99545 -166.21801,142.94748 -249.13289,214.65175 -26.497824,21.8146 -51.369862,45.61896 -78.619909,66.53573 1.334597,-6.50312 6.090616,-11.25914 10.191469,-16.13649 15.481327,-17.2527 31.059716,-35.08777 40.668815,-56.41706 2.572133,-5.31412 3.348626,-11.84152 8.250237,-15.67545 z"
       id="path42"
       style="fill:#f5e5c1" />
    <path
       d="m 434.76322,705.95336 c 2.23242,-8.78407 4.53763,-20.69838 14.21953,-23.94995 1.28607,1.21327 3.88246,3.61555 5.16853,4.82882 0.0728,1.35886 0.19412,4.05232 0.26692,5.38692 4.80455,0 9.63336,0.0971 14.46218,0.29118 5.48398,5.8237 6.69725,13.4673 6.47886,21.20796 -5.36265,3.88247 -10.72531,7.76493 -16.67033,10.77384 -3.68834,-4.39204 -6.33327,-9.48777 -7.06123,-15.23867 -2.5236,1.74711 -5.04721,3.51848 -7.54654,5.31412 -4.58616,-0.53384 -10.70105,-2.71772 -9.31792,-8.61422 z"
       id="path44"
       style="fill:#f5e5c1" />
    <path
       d="m 539.41991,689.2345 c 2.69345,-5.31412 10.43412,-7.49801 15.16587,-3.49422 3.44569,4.36778 5.89649,9.48778 9.80322,13.5401 0.99489,4.17365 1.86844,8.39583 2.742,12.64227 -4.75602,3.97953 -9.99735,8.56569 -16.74313,7.35242 -7.25536,-7.93479 -12.47242,-18.99981 -10.96796,-30.04057 z"
       id="path46"
       style="fill:#f5e5c1" />
    <path
       d="m 477.03355,703.50256 c 3.78541,-5.7509 7.32816,-11.76872 12.52095,-16.42768 10.26427,3.10597 13.03052,14.26806 14.51071,23.58597 2.23242,6.5274 1.67432,13.90408 -1.94123,19.8491 -7.40095,4.73176 -18.39317,4.36778 -24.55659,-2.18388 -1.77137,-8.15318 -1.11621,-16.59754 -0.53384,-24.82351 z"
       id="path48"
       style="fill:#f5e5c1" />
    <path
       d="m 513.91697,693.89346 c 2.71772,-1.21327 5.41118,-2.47507 8.08038,-3.76114 9.92455,6.30901 16.25782,17.22844 18.17478,28.70597 -2.91185,3.51849 -5.19279,8.29877 -9.94881,9.6091 -6.09062,1.67432 -12.44815,1.06768 -18.61157,0.43678 -7.06123,-10.82237 -1.55298,-23.97422 2.30522,-34.99071 z"
       id="path50"
       style="fill:#f5e5c1" />
    <path
       d="m 731.99014,769.2618 c 8.66275,-6.21194 16.93725,-13.00625 24.19261,-20.84398 14.6563,11.93858 28.58464,24.75071 43.14389,36.81062 44.30862,40.69308 90.63127,79.20227 135.5708,119.21592 7.23109,9.6819 9.43924,22.25137 16.64607,32.0546 11.30767,15.74824 23.39185,30.96265 35.37895,46.22559 -5.50824,-3.00891 -10.99222,-6.16341 -15.82104,-10.21573 C 891.68076,904.44436 811.58066,837.13213 731.99014,769.2618 z"
       id="path52"
       style="fill:#f5e5c1" />
  </g>
</svg>
