<?xml version="1.0" encoding="UTF-8" standalone="no"?>
<svg
   xmlns:dc="http://purl.org/dc/elements/1.1/"
   xmlns:cc="http://creativecommons.org/ns#"
   xmlns:rdf="http://www.w3.org/1999/02/22-rdf-syntax-ns#"
   xmlns:svg="http://www.w3.org/2000/svg"
   xmlns="http://www.w3.org/2000/svg"
   xmlns:sodipodi="http://sodipodi.sourceforge.net/DTD/sodipodi-0.dtd"
   xmlns:inkscape="http://www.inkscape.org/namespaces/inkscape"
   width="1280"
   height="1280"
   viewBox="0 0 1024 1024"
   version="1.1"
   id="svg2"
   inkscape:version="0.48.1 "
   sodipodi:docname="achieve_progress1.svg">
  <metadata
     id="metadata48">
    <rdf:RDF>
      <cc:Work
         rdf:about="">
        <dc:format>image/svg+xml</dc:format>
        <dc:type
           rdf:resource="http://purl.org/dc/dcmitype/StillImage" />
      </cc:Work>
    </rdf:RDF>
  </metadata>
  <defs
     id="defs46" />
  <sodipodi:namedview
     pagecolor="#ffffff"
     bordercolor="#666666"
     borderopacity="1"
     objecttolerance="10"
     gridtolerance="10"
     guidetolerance="10"
     inkscape:pageopacity="0"
     inkscape:pageshadow="2"
     inkscape:window-width="1920"
     inkscape:window-height="1018"
     id="namedview44"
     showgrid="false"
     inkscape:zoom="0.6609375"
     inkscape:cx="466.00473"
     inkscape:cy="640"
     inkscape:window-x="-8"
     inkscape:window-y="-8"
     inkscape:window-maximized="1"
     inkscape:current-layer="layer1"
     fit-margin-top="0"
     fit-margin-left="0"
     fit-margin-right="0"
     fit-margin-bottom="0"
     inkscape:snap-page="true" />
  <g
     inkscape:groupmode="layer"
     id="layer1"
     inkscape:label="background">
    <rect
       style="fill:#3e3e3e;fill-opacity:1;fill-rule:nonzero;stroke:none"
       id="rect3026"
       width="1280"
       height="1280"
       x="0"
       y="0"
       transform="scale(0.8,0.8)" />
  </g>
  <g
     inkscape:groupmode="layer"
     id="layer2"
     inkscape:label="foreground">
    <path
       d="m 482.04,103.64 c 27.36,-8.68 58.92,2.46 75.54,25.7 -11.22,-0.04 -22.28,-2.5 -33.5,-2.32 -28.1,-0.64 -56.14,3.54 -83.34,10.4 9.02,-15.86 23.58,-28.72 41.3,-33.78 z"
       id="path6"
       inkscape:connector-curvature="0"
       style="fill:#f4722b" />
    <path
       d="m 577.36,132.22 c 12.04,-7.9 25.98,-13.52 40.58,-13.24 22.9,-0.26 45.72,11.94 57.86,31.42 6.98,10.6 10.36,23.18 11.2,35.74 -6.18,-3.4 -11.36,-8.24 -17.2,-12.14 -25.58,-17.28 -53.94,-30.68 -83.96,-38.1 -3.08,-0.66 -5.94,-1.84 -8.48,-3.68 z"
       id="path8"
       inkscape:connector-curvature="0"
       style="fill:#f4722b" />
    <path
       d="m 369.7,135.06 c 17.74,-4.92 36.9,-1.58 52.94,7.08 -20.54,7.2 -40.94,15.2 -59.62,26.54 -15.88,8.88 -30.02,20.44 -44.12,31.84 -0.04,-29.96 21.72,-58.16 50.8,-65.46 z"
       id="path10"
       inkscape:connector-curvature="0"
       style="fill:#f4722b" />
    <path
       d="m 509.8,142.55 c -10.82603,10e-4 -21.65626,0.6375 -32.4,1.8 -65.9,7.72 -128.33,41.38 -170.75,92.4 -34.42,40.7 -55.68,92.11 -60.6,145.15 -4.54,46.92 3.78,95 23.8,137.7 25.6,54.96 70.83,100.54 125.75,126.3 70.44,33.92 156.05,33.98 226.65,0.5 52.34,-24.38 95.97,-66.74 122.45,-118 18.82,-37.12 29.5,-78.68 28.8,-120.4 1.12,-57.84 -18.45,-115.71 -53.65,-161.55 -34.54,-45.56 -84.27,-79.38 -139.45,-94.4 -22.94875,-6.545 -46.78275,-9.50247 -70.6,-9.5 z m -4.4,57.05 c 60.22517,-0.56115 120.38501,27.88062 157.65,75.35 29.42,36.72 44.92,83.99 43.7,130.95 -1.38,35.36 -11.52,70.54 -30.5,100.5 -25.12,41.08 -66.09,71.92 -112.15,85.6 -34.38,10.38 -71.51,11.47 -106.35,2.55 -34.8,-8.42 -66.9,-26.83 -92.6,-51.65 -26.46,-26.66 -45.71,-60.5 -54.05,-97.2 -11,-45.9 -4.6,-95.4 16.8,-137.4 30.14,-59.76 92.08,-101.94 158.8,-107.6 6.20626,-0.69 12.46981,-1.04195 18.7,-1.1 z"
       id="path12"
       style="fill:#f4722b"
       inkscape:connector-curvature="0" />
    <path
       d="m 702.96,199.22 c 21.3,-2.04 43.28,6.3 57.42,22.42 19.82,20.72 22.78,53.92 9.62,78.94 -3.46,-5.24 -5.46,-11.24 -8,-16.92 -10.38,-22.36 -23.62,-43.4 -39.6,-62.18 -5.92,-7.92 -14.22,-13.8 -19.44,-22.26 z"
       id="path16"
       inkscape:connector-curvature="0"
       style="fill:#f4722b" />
    <path
       d="m 236.14,252.42 c 11.7,-26.34 41.42,-42.94 70,-39.1 -29.36,30.36 -50.86,67.76 -63.9,107.86 -13.44,-19.94 -16.1,-46.86 -6.1,-68.76 z"
       id="path18"
       inkscape:connector-curvature="0"
       style="fill:#f4722b" />
    <path
       d="m 500.95,220.4 c -13.86523,0.22344 -27.6625,1.6 -41.1,5.3 -57.86,14.72 -106.75,59.81 -125.75,116.45 -14.56,42.72 -12.78,90.86 5.2,132.3 16.12,38.12 45.52,70.59 82.3,89.75 25.9,13.48 55.14,20.91 84.4,20.05 69.76,0.58 137.04,-43.82 165.4,-107.3 26,-56.5 20.28,-126.31 -15.1,-177.55 -24.24,-36.2 -62.12,-62.66 -104.2,-73.7 -8.68,-1.8 -17.34,-3.97 -26.2,-4.75 -8.2875,-0.42 -16.63086,-0.68406 -24.95,-0.55 z m 2.5,23.6 c 36.33237,-0.38774 72.50626,12.91875 100.5,36 29.06,23.2 48.3,57.56 55.3,93.9 6.52,33.52 1.09,68.9 -13.85,99.5 -16.42,33.82 -45.26,61.63 -80,76.15 -28.62,12.36 -61.22,15.63 -91.7,9.05 -38.74,-7.74 -74.17,-30.86 -96.65,-63.4 C 358.11,468.1 347.48,435.12 348,402 c -0.1,-39.08 15.24,-77.73 41.4,-106.65 27.08,-30.1 66.4,-48.76 106.8,-51.1 2.42125,-0.14875 4.82784,-0.22414 7.25,-0.25 z"
       id="path20"
       style="fill:#f5e5c1"
       inkscape:connector-curvature="0" />
    <path
       style="fill:#f4722b"
       d="m 499.75,268.4 c -5.60643,0.0444 -11.18875,0.3875 -16.75,1.1 -49.02,6.36 -92.83,41.64 -109.65,88.1 -11.86,31.84 -11.2,68.09 2,99.45 10.68,26.2 29.85,48.79 53.85,63.75 29.58,18.6 66.54,24.91 100.7,17.55 32.52,-6.62 62.15,-25.95 81.65,-52.75 22.4,-30.48 31.82,-70.62 23.7,-107.7 -7.4,-38.04 -31.99,-72.34 -65.75,-91.4 -21.07626,-12.22 -45.45549,-18.29259 -69.75,-18.1 z m 3.65,21 c 4.67861,0.0923 9.33374,0.5675 13.95,1.4 10.86,13.06 16.96,30.17 17.2,47.15 -0.44,23.74 -12.78,45.39 -27.8,63.05 -26.94,31.16 -61.64,54.33 -97,74.85 -18.1,-25.08 -26.11,-57.39 -20.85,-87.95 5.38,-34.08 26.66,-65.14 56.4,-82.6 16.14,-9.21 34.71469,-15.26875 53.4,-15.85 1.5571,-0.0484 3.14046,-0.0808 4.7,-0.05 z m 32.55,4.8 c 26.72,8.86 50.5,27 64.4,51.7 9.72,16.34 14.85,35.11 15.85,54.05 0.14,4.48 0.82,9.24 -0.9,13.5 -3.84,3.02 -8.39,4.96 -12.65,7.3 -48.86,26.76 -93.72,60.16 -136,96.3 -18.14,-6.64 -35.32,-16.58 -48.4,-31 27.42,-15.58 53.83,-33.25 77.45,-54.25 23.98,-21.76 46.72,-48.56 51.8,-81.6 3.54,-19.42 -2.59,-38.92 -11.55,-56 z m 77.45,135.4 c -7.18,34.7 -31.17,65.57 -63.25,80.75 -20.44,10.42 -43.95,13.13 -66.55,10.45 39.96,-34.76 83.54,-65.4 129.8,-91.2 z"
       id="path24"
       inkscape:connector-curvature="0" />
    <path
       d="m 775.26,318.36 c 19.62,6.38 36.62,21.26 43.92,40.76 4.94,11.56 4.8,24.48 3.66,36.8 -3.28,21.16 -17.84,39.1 -36.2,49.52 5.34,-42.54 1.78,-86.22 -11.38,-127.08 z"
       id="path30"
       inkscape:connector-curvature="0"
       style="fill:#f4722b" />
    <path
       d="m 204.64,370.34 c 6.76,-14.16 18.66,-25.78 32.9,-32.34 -9.56,39.88 -11.78,81.58 -4.74,122.06 -17.46,-10.52 -31,-28.18 -34,-48.62 -1.54,-13.84 -0.86,-28.58 5.84,-41.1 z"
       id="path32"
       inkscape:connector-curvature="0"
       style="fill:#f4722b" />
    <path
       d="m 783.9,459.86 c 14.2,16.32 20.5,39.34 15.5,60.5 -6.34,29.18 -33.62,52.5 -63.66,53.08 21.72,-35.08 40.84,-72.6 48.16,-113.58 z"
       id="path36"
       inkscape:connector-curvature="0"
       style="fill:#f4722b" />
    <path
       d="m 240.1,553.92 c -15.32,-21.2 -16.92,-51.4 -3.28,-73.8 3.48,7.82 5.14,16.3 8.26,24.28 10.38,28.44 25.88,54.86 44.88,78.4 -19.64,-2.28 -38.6,-12.4 -49.86,-28.88 z"
       id="path38"
       inkscape:connector-curvature="0"
       style="fill:#f4722b" />
    <path
       d="m 480.06,687.08 c 73.6,9.28 150.26,-14.98 206.6,-62.94 48.4,88.5 96.94,176.9 145.34,265.4 -63.46,-15.28 -126.6,-31.92 -190.08,-47.06 -16.42,41.36 -33.7,82.38 -50.24,123.7 -1.28,-2.02 -2.56,-4.06 -3.64,-6.16 -19.2,-41.94 -35.38,-85.16 -52.24,-128.08 -17.6,-45.46 -35.52,-90.8 -53.12,-136.26 -0.96,-2.84 -1.82,-5.72 -2.62,-8.6 z"
       id="path40"
       inkscape:connector-curvature="0"
       style="fill:#f4722b" />
    <path
       d="m 289.54,772.88 c 16.02,-48.22 31.48,-96.64 47.98,-144.7 35.64,29.8 79.64,48.84 125.22,57.06 15.04,37.86 28.76,76.22 43.4,114.24 1.52,3.28 1.4,6.94 0.46,10.38 -13.68,53.5 -26.58,107.2 -40.4,160.66 -28.72,-39.84 -57.36,-79.72 -86.16,-119.5 -46.64,24.44 -93.04,49.42 -140.02,73.2 15.8,-50.66 33.16,-100.84 49.52,-151.34 z"
       id="path42"
       inkscape:connector-curvature="0"
       style="fill:#f4722b" />
  </g>
</svg>
