<?xml version="1.0" encoding="UTF-8" standalone="no"?>
<svg
   xmlns:dc="http://purl.org/dc/elements/1.1/"
   xmlns:cc="http://creativecommons.org/ns#"
   xmlns:rdf="http://www.w3.org/1999/02/22-rdf-syntax-ns#"
   xmlns:svg="http://www.w3.org/2000/svg"
   xmlns="http://www.w3.org/2000/svg"
   xmlns:sodipodi="http://sodipodi.sourceforge.net/DTD/sodipodi-0.dtd"
   xmlns:inkscape="http://www.inkscape.org/namespaces/inkscape"
   width="1280"
   height="1280"
   viewBox="0 0 1024 1024"
   version="1.1"
   id="svg2"
   inkscape:version="0.48.1 "
   sodipodi:docname="block_caps.svg">
  <metadata
     id="metadata50">
    <rdf:RDF>
      <cc:Work
         rdf:about="">
        <dc:format>image/svg+xml</dc:format>
        <dc:type
           rdf:resource="http://purl.org/dc/dcmitype/StillImage" />
      </cc:Work>
    </rdf:RDF>
  </metadata>
  <defs
     id="defs48" />
  <sodipodi:namedview
     pagecolor="#ffffff"
     bordercolor="#666666"
     borderopacity="1"
     objecttolerance="10"
     gridtolerance="10"
     guidetolerance="10"
     inkscape:pageopacity="0"
     inkscape:pageshadow="2"
     inkscape:window-width="1920"
     inkscape:window-height="1018"
     id="namedview46"
     showgrid="false"
     fit-margin-top="0"
     fit-margin-left="0"
     fit-margin-right="0"
     fit-margin-bottom="0"
     inkscape:zoom="0.6609375"
     inkscape:cx="640"
     inkscape:cy="640"
     inkscape:window-x="-8"
     inkscape:window-y="-8"
     inkscape:window-maximized="1"
     inkscape:current-layer="layer1"
     inkscape:snap-page="true" />
  <g
     inkscape:groupmode="layer"
     id="layer1"
     inkscape:label="background">
    <rect
       style="fill:#3e3e3e;fill-opacity:1;fill-rule:nonzero;stroke:none"
       id="rect3024"
       width="1280"
       height="1280"
       x="0"
       y="0"
       transform="scale(0.8,0.8)" />
  </g>
  <g
     inkscape:groupmode="layer"
     id="layer2"
     inkscape:label="foreground">
    <path
       d="m 399.7,69.2 c 58.52,-21.98 123.26,-27 184.48,-14.4 63.92,12.9 123.6,45.22 169.76,91.22 46.06,46.2 78.4,105.94 91.3,169.92 13.54,65.8 6.62,135.64 -19.64,197.48 -30.56,72.88 -87.86,134.06 -158.68,169.16 -9,4.5 -18.1,9 -27.84,11.7 0.22,-17.6 -1.06,-35.12 -2.68,-52.62 23.54,-10.48 45.18,-24.86 65.04,-41.2 -21.76,-21.72 -43.4,-43.56 -65.28,-65.18 -0.96,-19.66 7.94,-37.82 9.54,-57.2 0,-3.68 3.68,0.48 4.76,1.34 28.56,28.62 57.16,57.22 85.78,85.8 50.7,-60.7 74.34,-143 63.06,-221.34 -1.1,-10.8 -4.4,-21.22 -5.76,-31.96 2.02,-8.74 7.16,-16.72 7.12,-25.92 0.24,-16.6 3.4,-34 -3.06,-49.9 -6.14,-11.72 -15.22,-21.52 -23.1,-32.02 -1.1,-9.9 1.26,-19.96 -0.62,-29.76 -4.02,-7.6 -13.14,-10.18 -20.64,-13.1 -8.14,-2.48 -16.34,-7.76 -25.12,-5.26 -8.84,1.72 -14.82,8.94 -21.88,13.88 -49.32,-43.88 -114.2,-69.86 -180.22,-71.68 -68.96,-2.5 -138.26,21.5 -191.24,65.62 29.22,29.24 58.4,58.54 87.76,87.66 2.46,2.22 3.96,5.22 4.58,8.46 3.16,13.04 9.84,25.04 12.46,38.2 -0.58,11.66 -3.88,22.96 -5.44,34.5 -45.38,-44.14 -89.66,-89.42 -134.6,-134.02 -40.62,48.1 -64.9,109.72 -67.34,172.7 -6.46,-3.24 -12.64,-8.5 -20.28,-7.98 -10.8,0.22 -19.72,6.92 -29.64,10.3 1.4,-68.06 24.96,-135.3 65.46,-189.94 38.12,-51.82 91.7,-92 151.96,-114.46 z"
       id="path6"
       inkscape:connector-curvature="0"
       style="fill:#f4722b" />
    <path
       d="m 481.02,125.7 c 11.64,-2.98 23.4,-5.34 35.06,-8.18 6.3,-1.3 14.64,-2.6 18.86,3.58 4.82,6.96 5,15.88 6.86,23.9 2.82,-0.58 5.66,-1.16 8.48,-1.76 5.72,1.94 11.68,4.72 14.5,10.44 3.44,6.88 4.94,14.64 5.72,22.24 -1.02,9.16 -10.58,13.56 -18.18,16.48 0.72,4.26 1.58,8.48 2.52,12.68 10.9,-2.88 21.96,0.16 32.9,1.08 7.28,1.04 14.9,0.78 21.86,3.44 3.84,2.26 6.5,5.94 9.68,8.98 5.98,6.06 13.28,10.76 18.64,17.42 -3,8.46 -8.2,15.92 -11.88,24.08 -2.18,-12.44 -12.34,-20.94 -19.68,-30.52 -3.2,-4.5 -9.06,-5.12 -13.92,-3.16 -8.72,2.9 -19.36,5.14 -24.22,13.84 -2.56,6.16 -2.66,13 -3.7,19.5 -2.04,14.86 -6.9,29.34 -14.48,42.3 -2,3.08 -0.62,6.82 -0.36,10.18 1.64,8.26 -1.64,16.54 -0.2,24.84 3.32,17.62 5.36,35.46 7.14,53.3 0.32,3.92 1.58,7.8 4.28,10.74 6.8,7.84 14.22,15.12 20.58,23.34 8.84,11.36 20.52,20 30.58,30.2 3.56,0.94 7.12,1.88 10.68,2.86 1.26,9.72 2.56,19.44 3.6,29.2 0.22,13.36 -6.84,25.84 -5.5,39.32 2.46,34.84 -3.76,69.4 -5.78,104.1 0.08,10.22 3.54,20.04 4.86,30.12 2.18,12.12 -7.28,23.46 -3.58,35.56 1.7,11.8 7.46,24.02 3.04,35.88 -2.1,6.26 -3.74,12.88 -7.48,18.42 -2.4,3.26 -6.86,2.94 -10.36,3.9 -7.2,23.08 -13.44,46.46 -20.38,69.62 -1.1,4.58 -3.36,9.5 -1.34,14.18 5.86,16.5 13.04,32.78 15.64,50.24 1.66,6.8 -4.44,14.24 -11.52,13.04 -9.14,-1 -21.64,-0.38 -26.56,-9.86 -2.76,-9.48 -3.52,-19.44 -4.54,-29.22 -0.06,-17.56 7.46,-34.32 6.84,-51.94 -0.26,-21.8 -0.98,-43.64 -2.66,-65.36 -6.62,-4.96 -14.8,-7.76 -20.34,-14.14 1.76,-19.7 12.2,-37.38 15.72,-56.66 -1.62,-9.62 -5.04,-18.84 -7.16,-28.34 -6.44,-27.14 -9.54,-54.98 -16.12,-82.08 -1.96,-0.06 -3.92,-0.14 -5.88,-0.22 -14.94,23.84 -29.38,47.96 -44.2,71.86 -1.84,3.38 -4.08,6.84 -4.22,10.82 1.88,14.34 10.32,27.62 9.8,42.24 -4.48,10.26 -12.98,18.66 -23.02,23.54 -1.6,16.48 -4.86,32.8 -6.02,49.3 4.24,6.48 10.52,11.54 13.58,18.86 -6.68,14.86 -17.48,27.34 -26,41.14 -7.74,10.06 -12.72,23.72 -25.44,28.6 -10.86,4.1 -20.74,12.2 -32.88,11.64 -2.08,-3.04 -4.08,-6.14 -6.02,-9.24 4.04,-10.3 13.6,-16.58 19.84,-25.34 6.38,-8.92 12.48,-18.02 18.88,-26.94 3.24,-4.72 7.22,-9.62 6.98,-15.7 0.2,-20.54 0.78,-41.08 0.68,-61.62 -9.48,-1.5 -14.96,-10.12 -20.96,-16.68 -6.04,-7.68 -1.3,-17.42 0.94,-25.6 6.02,-17.4 -3.8,-37.12 5.38,-53.74 21.74,-43.02 35.76,-89.3 54.4,-133.66 3.46,-8 6.52,-16.18 9.1,-24.5 1.74,-6.36 8.28,-9.98 9.92,-16.38 1.82,-8.46 3.58,-17.2 1.98,-25.84 -0.58,-6.16 -3.4,-11.76 -4.52,-17.78 0.94,-5.6 4.54,-10.36 5.38,-15.98 0.9,-4.96 0.3,-10 -0.26,-14.94 -4.04,6.86 -8.66,13.38 -14.28,19.06 -6.18,5.78 -7.06,14.82 -12.68,21.02 -7.78,9.52 -14.92,19.54 -23.16,28.64 2.86,3.52 7.2,6.86 6.64,11.94 0.16,5.22 -4.2,9.44 -9.02,10.58 -4.06,0.04 -7.44,-2.68 -11.24,-3.78 -3.2,3.88 -5.94,8.12 -9.24,11.92 -2.58,0.62 -5.16,1.26 -7.72,1.94 -9.16,-2.76 -15.84,-9.9 -23.92,-14.62 -5.1,-3.02 -4.8,-9.4 -4.76,-14.54 -53.52,-8.44 -107,-17.02 -160.5,-25.46 -10.58,-1.46 -19.74,-7.14 -29.16,-11.76 -2.3,-5.12 -5.68,-10.5 -4.22,-16.36 1.74,-6.2 4.54,-12.86 10.16,-16.44 5.14,-2.24 10.9,-0.84 16.12,0.34 53.18,14.5 106.38,28.9 159.58,43.34 10.94,2.48 21.66,6.82 32.9,7.48 7.1,-2.24 15.48,-4.2 19.54,-11.1 9.04,-12.92 19.54,-24.88 26.84,-38.94 4.64,-8.94 10.04,-17.46 14.74,-26.34 -2.14,-16.86 -3.76,-33.84 -7.32,-50.5 -1.3,-5.28 -5.58,-9.14 -7.34,-14.24 -3.9,-12.08 -7.14,-24.82 -5.34,-37.62 1.06,-4.28 5.62,-5.58 9.08,-7.3 8.4,-3.54 15.14,-10.2 23.88,-12.98 4.5,-1.1 9.16,-1.04 13.76,-1.34 3.44,-3.14 7.06,-6.06 10.84,-8.8 -2.76,-6.36 -6,-12.5 -9.26,-18.6 -2.76,0.06 -5.5,0.12 -8.24,0.18 -5.9,-5.52 -10.86,-12.72 -11.92,-20.9 -0.86,-4.74 3.02,-8.22 5.36,-11.86 -2.22,-9.56 -5.3,-18.9 -7.24,-28.52 -1.86,-7.56 4.56,-14.5 11.58,-16.06 z"
       id="path8"
       inkscape:connector-curvature="0"
       style="fill:#f4e5c0" />
    <path
       d="m 724,190.02 c 3.94,-8.46 13.42,-12.16 21.84,-14.5 4.96,0.56 10.1,1.64 14.34,4.48 3.78,12.12 0.3,25.44 -6,36.14 -17.1,30.9 -34.34,61.72 -51.78,92.42 -8.14,-8.64 -16.32,-17.3 -25.24,-25.16 15.46,-31.2 31.28,-62.22 46.84,-93.38 z"
       id="path10"
       inkscape:connector-curvature="0"
       style="fill:#f4e5c0" />
    <path
       d="m 677.74,185.12 c 8.16,-3 17.12,-3.02 25.42,-0.56 0.18,7.72 2.82,16.1 -1.44,23.24 -11.36,22.84 -23.1,45.5 -34.34,68.4 -7.08,-4.84 -13.68,-10.34 -20.5,-15.54 4.42,-10.14 10.02,-19.76 13.66,-30.24 5.46,-15.2 12.34,-29.88 17.2,-45.3 z"
       id="path12"
       inkscape:connector-curvature="0"
       style="fill:#f4e5c0" />
    <path
       d="m 710.6,318.28 c 17.2,-29.36 32.8,-59.66 50.38,-88.78 3.7,-0.26 7.44,-0.58 11.16,-0.9 2.08,7.14 5.8,13.96 6.3,21.48 -2.76,7.88 -7.72,14.92 -12.26,21.9 -15.22,18.9 -29.92,38.26 -45.82,56.6 -3.22,-3.48 -6.5,-6.9 -9.76,-10.3 z"
       id="path14"
       inkscape:connector-curvature="0"
       style="fill:#f4e5c0" />
    <path
       d="m 583.52,245.32 c 4.28,-4.1 12.38,-7.62 16.5,-1.42 6.52,9.28 12.42,20.34 11.22,32.06 -0.2,4.9 -1.38,9.68 -2.5,14.44 -13.36,3.96 -25.08,11.64 -37.86,16.92 4.54,-12.72 11.64,-25.34 10.54,-39.28 -0.1,-7.64 1.42,-15.16 2.1,-22.72 z"
       id="path16"
       inkscape:connector-curvature="0"
       style="fill:#f4e5c0" />
    <path
       style="fill:#f4e5c0"
       d="M 801.4375 339.875 C 797.4125 347.825 794.7125 356.93125 787.5625 362.78125 C 781.3875 368.23125 777.2375 375.83125 770.0625 380.15625 C 764.7875 383.53125 760.15 387.725 756 392.375 L 756.90625 384.5625 C 747.45625 389.6625 738.125 395.58125 727.5 397.90625 C 720.8 399.68125 713.44375 401.7875 708.84375 407.3125 C 707.26875 429.9375 710.3625 452.56875 712.3125 475.09375 C 712.5125 490.84375 725.1625 501.65625 734.4375 512.90625 C 742.3875 523.03125 755.7875 526.30625 763.8125 536.28125 C 771.6625 545.30625 782.6125 550.5875 791.6875 558.1875 C 798.6125 563.2125 805.6125 571.23125 815.1875 568.90625 C 839.7625 561.93125 858.08125 542.9375 874.03125 523.9375 C 888.68125 509.3125 903.0125 493.84375 912.6875 475.34375 C 915.0625 470.86875 914.65625 465.3125 911.53125 461.3125 C 904.93125 452.0125 900.9 441.2875 895.75 431.1875 C 887.825 415.8375 873.55 405.45 863.125 392 C 846.275 370.575 822.8375 356.175 801.4375 339.875 z M 795.21875 395.71875 C 798.56875 395.79375 801.9375 395.90625 805.3125 396.03125 C 815.4625 418.00625 827.4375 440.075 828.9375 464.75 C 831.0125 481.3 825.19375 497.3375 819.46875 512.5625 C 817.74375 518.4875 811.69375 518.70625 806.59375 518.53125 C 806.51875 513.45625 805.95625 508.1625 808.15625 503.4375 C 818.35625 480.6875 816.15625 453.8375 806.40625 431.3125 C 802.03125 419.6625 795.09375 408.56875 795.21875 395.71875 z "
       id="path18"
       transform="scale(0.8,0.8)" />
    <path
       d="m 735.44,329.46 c 11.5,-13.86 22.06,-28.54 34.2,-41.86 2.96,6.36 9.4,13.38 5.78,20.74 -6.12,11.72 -13.42,22.88 -22.08,32.9 -5.48,6.34 -9.64,13.84 -16.16,19.2 -3.14,-6.78 -6.96,-13.36 -8.96,-20.62 1.48,-4 4.7,-7 7.22,-10.36 z"
       id="path20"
       inkscape:connector-curvature="0"
       style="fill:#f4e5c0" />
    <path
       d="m 184.34,422.92 c 15.34,12.66 35.74,14.3 54.08,19.84 17.6,85.98 78.02,161.38 157.48,198.34 -2.98,16.6 -7.68,32.84 -12.46,49 -56,-24 -105,-63.96 -140.04,-113.76 -32.02,-45.18 -52.44,-98.44 -59.06,-153.42 z"
       id="path24"
       inkscape:connector-curvature="0"
       style="fill:#f4722b" />
    <path
       d="m 495.38,667.24 c 14.66,0.98 29.36,0.9 44.02,-0.02 -5.06,17.2 -11.66,33.88 -18.06,50.6 -12.56,0.38 -25.1,-0.34 -37.58,-1.38 5.02,-6.6 10.66,-12.76 14.84,-19.98 -2.44,-9.56 -1.48,-19.54 -3.22,-29.22 z"
       id="path26"
       inkscape:connector-curvature="0"
       style="fill:#f4722b" />
    <path
       d="m 474.6,776.96 c 22.86,-0.36 45.72,-0.32 68.58,-0.04 -0.2,2.86 -0.4,5.72 -0.6,8.6 -22.14,1.18 -44.42,1.06 -66.58,0.12 -0.48,-2.9 -0.94,-5.8 -1.4,-8.68 z"
       id="path28"
       inkscape:connector-curvature="0"
       style="fill:#f4e5c0" />
    <path
       d="m 321.02,785.32 c 28.56,-2.04 57.08,-4.84 85.68,-6.14 -0.52,2.78 -1.04,5.54 -1.54,8.34 -50.72,2.26 -101.44,6.14 -151.66,13.76 -24.2,2.56 -48.1,7.38 -71.82,12.64 -25.2,6.3 -51,12.74 -73.32,26.46 -8.42,5.5 -18.24,14.14 -15.5,25.38 3.22,10.3 13.12,16.44 22.02,21.48 22.3,11.66 46.9,17.94 71.28,23.64 84.62,18.52 171.44,23.54 257.74,27.56 65.38,2.3 130.78,0.16 196,-4.52 67.38,-4.78 135.06,-11.76 200.5,-29.12 19.26,-5.56 38.88,-11.54 55.62,-22.94 6.44,-4.76 13.84,-11.02 13.62,-19.8 0.5,-7.4 -4.94,-13.18 -10.2,-17.56 -12.16,-9.58 -26.84,-15.2 -41.36,-20.14 -53.68,-17.58 -110.12,-23.58 -165.98,-29.9 -29.48,-3.9 -59.26,-4.62 -88.86,-6.98 0.46,-2.9 0.96,-5.78 1.46,-8.66 50.9,2.2 101.66,7.1 152.16,13.64 45.7,7.1 91.4,15.28 135.62,29.08 21.84,6.88 43.52,14.96 63.22,26.78 10.54,6.44 20.86,14.14 27.3,24.92 6.02,9.78 5.54,23.16 -1.22,32.48 -9.48,13.5 -23.96,22.32 -38.4,29.74 -25.28,12.68 -52.52,20.94 -79.8,28.14 -75.04,19.22 -152.34,27.52 -229.44,33.02 -128.86,7.5 -258.66,4.34 -386.48,-14.56 C 199.12,974.42 150.64,964.62 104.38,947.74 84.54,940.14 64.64,931.38 48.24,917.58 39.72,910.14 31.72,900.04 32.22,888.1 31.96,875.54 41.08,865.56 50.06,857.92 65.34,845.46 83.6,837.36 101.82,830.18 150.2,812.06 201.18,802.34 252,794 c 23.06,-2.46 45.96,-6.22 69.02,-8.68 z"
       id="path30"
       inkscape:connector-curvature="0"
       style="fill:#f4e5c0" />
    <path
       d="m 478.84,793.32 c 20.86,-1.3 41.7,0.34 62.56,0.06 -0.06,1.9 -0.1,3.78 -0.14,5.7 -21.04,0.06 -42.06,0 -63.08,0.02 0.2,-1.92 0.42,-3.86 0.66,-5.78 z"
       id="path32"
       inkscape:connector-curvature="0"
       style="fill:#f4e5c0" />
    <path
       d="m 258.72,810.2 c 47.76,-9.4 96.5,-11.68 144.94,-15.02 -1.7,2.2 -1.94,6.74 -5.42,6.6 -32.16,2.34 -64.34,5.28 -96.24,10.2 -19.32,3.54 -39.08,5.22 -57.9,11.18 -19.52,4.94 -39.1,10.52 -57.04,19.86 -8.34,4.56 -16.86,10.1 -21.52,18.66 -2.58,6.36 -1.72,14.38 3.22,19.42 11.14,12.62 27.52,18.58 42.98,23.98 1.76,0.32 3.36,1.4 3.9,3.16 -5.06,-3.94 -11.82,-3.2 -17.7,-5 -20.06,-5.2 -40.42,-10.6 -58.74,-20.58 -6.94,-4.1 -14.34,-9.04 -17.44,-16.84 -2.24,-5.52 1,-11.36 4.8,-15.26 7.98,-8.08 18.58,-12.8 28.94,-17.04 27.26,-10.54 56.1,-16.1 84.74,-21.52 6.08,-1.32 12.34,-0.96 18.48,-1.8 z"
       id="path34"
       inkscape:connector-curvature="0"
       style="fill:#f4e5c0" />
    <path
       d="m 601.94,795.34 c 41.32,2.28 82.52,6.44 123.7,10.44 32.66,5.7 65.54,10.72 97.48,19.86 15.06,4.38 30.1,9.48 43.56,17.7 6.14,3.98 12.74,9.08 14.22,16.68 1.1,7.82 -5.2,13.92 -10.92,18.18 -12.5,8.68 -27.04,13.8 -41.46,18.34 -14.62,4.32 -29.34,8.46 -44.46,10.68 13.72,-4.38 27.38,-9.7 39.4,-17.74 7,-5 14.76,-12.06 14.04,-21.5 -0.44,-8.56 -7.5,-14.76 -13.98,-19.42 -20.34,-13.68 -44.54,-19.28 -67.64,-26.36 -51.2,-10.86 -103.3,-17.28 -155.52,-20.6 0.52,-2.08 1.04,-4.18 1.58,-6.26 z"
       id="path36"
       inkscape:connector-curvature="0"
       style="fill:#f4e5c0" />
    <path
       d="m 468.46,811.18 c 1.44,-1.04 4.3,-3.1 5.74,-4.14 22.38,-1.76 44.82,-0.28 67.24,-0.1 l -1.8,4.1 c -8.5,0.72 -17.02,-0.52 -25.52,-0.48 -15.24,-0.58 -30.44,0.9 -45.66,0.62 z"
       id="path38"
       inkscape:connector-curvature="0"
       style="fill:#f4e5c0" />
    <path
       d="m 340.94,815.52 c 18.84,-2.14 37.7,-4.62 56.68,-5.1 -8.48,12.36 -18.84,23.28 -28.64,34.56 -5.16,6.14 -13.52,12 -11.92,21.12 -0.18,5.22 3.42,10.56 8.74,11.52 6.02,1.36 12.26,0.64 18.4,0.78 0.26,-0.3 0.82,-0.92 1.08,-1.22 14.12,-1.82 29.84,-3.02 40.96,-12.9 36.6,4.4 73.5,5.74 110.34,4.24 1.02,5.62 0.84,11.82 3.96,16.8 6.54,8.98 9.46,19.92 15.22,29.36 16.24,5.18 32.78,-0.76 48.68,-4.2 1.14,-3.44 2.86,-6.86 2.74,-10.56 -1.6,-13.24 -3.72,-26.42 -7.1,-39.32 7.92,-2.4 16.78,-3.9 22.88,-9.98 1.32,-2.64 1.06,-6.22 -1.54,-7.94 -8.7,-7.48 -17,-15.76 -27.36,-20.96 1.32,-4.1 2.74,-8.16 4.08,-12.26 49.76,3.9 99.7,9.26 148.12,21.82 17.82,5.04 36.04,10.5 51.44,21.12 6.06,4.44 12.72,11.24 10.94,19.48 -2.64,8.72 -10.82,14 -18.26,18.34 -19.8,10.58 -41.76,16.2 -63.52,21.12 -86.26,18.62 -174.94,20.28 -262.84,19.38 -24.48,-1.56 -49.08,-0.96 -73.52,-3.28 -38.26,-3.08 -76.46,-7.68 -114.04,-15.7 -19.86,-4.4 -39.76,-9.44 -58.32,-17.94 -8.6,-4.14 -17.46,-9.02 -23.06,-17 -3.58,-4.98 -3.04,-12.26 0.9,-16.86 8.56,-10.5 21.58,-15.76 33.82,-20.64 35.78,-12.94 73.6,-18.74 111.14,-23.78 z"
       id="path40"
       inkscape:connector-curvature="0"
       style="fill:#f4e5c0" />
    <path
       d="m 463.94,820.22 c 24.94,-3.06 50.28,-2.12 75.36,-1.02 -0.42,12.12 -1.8,24.18 -2.7,36.26 -32.66,3.02 -65.78,1.44 -98.08,-4.2 8.46,-10.32 15.74,-21.88 25.42,-31.04 z"
       id="path42"
       inkscape:connector-curvature="0"
       style="fill:#f4722b" />
    <path
       d="m 592.36,829.26 c 3.38,2.3 8.1,4.14 8.82,8.74 -1.68,2.28 -3.72,4.28 -5.68,6.36 -1.14,-5.02 -2.26,-10.04 -3.14,-15.1 z"
       id="path44"
       inkscape:connector-curvature="0"
       style="fill:#f4722b" />
  </g>
</svg>
