<?xml version="1.0" encoding="UTF-8" standalone="no"?>
<svg
   xmlns:dc="http://purl.org/dc/elements/1.1/"
   xmlns:cc="http://creativecommons.org/ns#"
   xmlns:rdf="http://www.w3.org/1999/02/22-rdf-syntax-ns#"
   xmlns:svg="http://www.w3.org/2000/svg"
   xmlns="http://www.w3.org/2000/svg"
   xmlns:sodipodi="http://sodipodi.sourceforge.net/DTD/sodipodi-0.dtd"
   xmlns:inkscape="http://www.inkscape.org/namespaces/inkscape"
   width="1280"
   height="1280"
   viewBox="0 0 1024 1024"
   version="1.1"
   id="svg2"
   inkscape:version="0.48.1 "
   sodipodi:docname="capture_three_points.svg">
  <metadata
     id="metadata56">
    <rdf:RDF>
      <cc:Work
         rdf:about="">
        <dc:format>image/svg+xml</dc:format>
        <dc:type
           rdf:resource="http://purl.org/dc/dcmitype/StillImage" />
      </cc:Work>
    </rdf:RDF>
  </metadata>
  <defs
     id="defs54" />
  <sodipodi:namedview
     pagecolor="#ffffff"
     bordercolor="#666666"
     borderopacity="1"
     objecttolerance="10"
     gridtolerance="10"
     guidetolerance="10"
     inkscape:pageopacity="0"
     inkscape:pageshadow="2"
     inkscape:window-width="1920"
     inkscape:window-height="1018"
     id="namedview52"
     showgrid="false"
     fit-margin-top="0"
     fit-margin-left="0"
     fit-margin-right="0"
     fit-margin-bottom="0"
     inkscape:zoom="0.47751938"
     inkscape:cx="301.87213"
     inkscape:cy="777.98618"
     inkscape:window-x="-8"
     inkscape:window-y="-8"
     inkscape:window-maximized="1"
     inkscape:current-layer="layer1"
     inkscape:snap-page="true" />
  <g
     inkscape:groupmode="layer"
     id="layer1"
     inkscape:label="background">
    <rect
       style="fill:#3e3e3e;fill-opacity:1;fill-rule:nonzero;stroke:none"
       id="rect3020"
       width="1280"
       height="1280"
       x="0"
       y="0"
       transform="scale(0.8,0.8)" />
  </g>
  <g
     inkscape:groupmode="layer"
     id="layer2"
     inkscape:label="foreground">
    <path
       d="m 397.85,20.75 c -13.00918,0.16602 -25.7125,5.45 -32.5,17.2 -1.8,9.6 -1.96,20.03 2,29.15 2.98,7.2 10.37,10.82 16.25,15.3 13.56,10.74 34.86,8 47,-3.6 7.5,-10.7 5.22,-25.34 2,-37.2 -3.82,-5.48 -7.01,-11.62 -12.25,-15.9 -6.78,-3.3 -14.6945,-5.04961 -22.5,-4.95 z M 418,38.2 c 2.72,2.9 7.1,5.24 7.2,9.7 2.32,16.48 -12.38,33.26 -29.1,32.6 -8.6,-0.56 -15.8,-6.74 -18,-15 10.5,-0.28 20.52,-4.35 29.4,-9.75 6.2,-3.8 8.12,-11.19 10.5,-17.55 z"
       id="path6"
       style="fill:#f5e5c1"
       inkscape:connector-curvature="0" />
    <path
       d="m 519.14,54.62 c 5.9,-0.52 12.18,-2.32 17.8,0.36 8.86,3.78 17.08,8.88 25.98,12.58 7.34,3.32 15.6,4.54 22.3,9.24 10.58,7.78 23.88,9.62 36,13.86 19.02,6.3 39.18,6.74 59,7.02 4.46,5.68 3.76,13.66 5.6,20.38 7.5,33.2 14.92,66.44 24.4,99.14 2.66,11.14 7.4,21.94 7.36,33.58 -24.38,3.94 -47.98,-4.52 -71.5,-9.46 -14.14,-2.88 -26.12,-11.26 -39.42,-16.36 -4.08,-1.12 -5.88,-5 -7.14,-8.66 -15.42,-42.36 -31.4,-84.52 -46.88,-126.88 -3.12,-11.12 -15,-15.34 -24.48,-19.66 17.74,50.58 37.22,100.58 55.56,150.96 3.1,9.12 7.52,17.86 9.6,27.3 1,4.28 -0.52,8.66 -3.42,11.84 -4.48,5.34 -10.28,11.02 -17.74,10.92 -13.42,0.24 -26.7,-2.4 -39.78,-5.04 -22.2,-6.74 -44.54,-13 -67.06,-18.48 -16.56,-6.28 -34.68,-4.48 -51.8,-8.26 -6.26,-44.74 -13.5,-89.36 -19.32,-134.16 10.82,0.12 22.36,1.42 32.22,-4.02 9.04,-3.7 15.92,-10.78 23.78,-16.28 8.02,0.46 15.58,3.78 23.6,4.4 16.86,0.8 32.76,8.44 49.86,6.5 0.26,-7.34 -4.46,-12.82 -8.14,-18.6 -2.82,-7.48 -0.22,-15.62 3.62,-22.22 z"
       id="path10"
       inkscape:connector-curvature="0"
       style="fill:#f4722b" />
    <path
       d="m 264.3,214.3 c -20.42122,-0.0908 -40.8275,1.00875 -61.1,3.45 -20.96,2.66 -42.58,5.73 -61.4,15.95 -5.26,2.78 -11.82,9.36 -7.3,15.5 7.02,8.9 18.81,11.84 29.15,15.1 34.02,8.74 69.38,10.78 104.4,10.6 27.2,-0.34 54.52,-2.38 81.2,-7.9 12.1,-2.68 24.44,-5.87 35,-12.65 3.94,-2.56 8.05,-7.03 6.45,-12.15 -2.76,-6.04 -9.11,-9.1 -14.85,-11.7 -20.28,-8.5 -42.29,-11.34 -63.95,-13.9 -15.82,-1.42626 -31.71683,-2.22939 -47.6,-2.3 z m 10.5,6.5 c 10.52,-0.72 20.58,2.82 31,3.2 13.48,0.58 27.32,2.56 39.4,8.9 2.76,1.68 7.28,4.85 4.8,8.55 -5.84,5.08 -11.83,11.23 -19.95,12.05 -45.22,6.46 -91.32,6.59 -136.6,0.65 -9.5,-0.84 -18.43,-5.64 -24.45,-13 -1.98,-3.38 2.35,-5.87 4.55,-7.75 6.98,-4.2 15.04,-6.08 22.9,-7.9 22.04,-3.44 44.41,-5.71 66.75,-4.55 z"
       id="path12"
       style="fill:#f5e5c1"
       inkscape:connector-curvature="0"
       sodipodi:nodetypes="sccccccccccsccccccccccc" />
    <path
       d="m 261.8,222.55 c -6.99437,-0.0128 -13.98,0.18 -20.95,0.45 -17.76,1.04 -35.65,2.66 -52.75,7.9 -4.72,1.66 -10.42,3.61 -12.2,8.85 3.14,5.48 9.56,7.45 15.2,9.25 12.04,3.42 24.51,4.91 36.95,5.95 26.56,1.82 53.33,1.7 79.75,-1.8 10.6,-1.76 21.67,-3.23 31.15,-8.65 1.84,-1.46 5.15,-3.48 3.75,-6.3 -4.04,-6.04 -11.97,-7.29 -18.45,-9.25 -20.46,-4.75501 -41.46688,-6.36157 -62.45,-6.4 z m -1.8,0.8 c 12,0.36 25.96,0.65 34.2,10.85 -10.06,4.78 -21.4,5.12 -32.3,5.3 -11.72,-0.06 -23.84,-0.29 -34.7,-5.25 7.92,-9.82 21.22,-10.42 32.8,-10.9 z"
       id="path16"
       style="fill:#f5e5c1"
       inkscape:connector-curvature="0" />
    <path
       d="m 233.76,231.68 c 8.1,-6.02 18.64,-6.08 28.3,-6.24 8.9,-0.16 17.7,1.66 25.92,5.02 -8.16,5.86 -18.56,5.4 -28.12,5.6 -8.9,0.16 -17.8,-1.1 -26.1,-4.38 z"
       id="path20"
       inkscape:connector-curvature="0"
       style="fill:#f4722b" />
    <path
       d="m 416.3,256.42 c 12.26,1.06 24.5,2.32 36.66,4.3 -0.56,13.92 1.7,27.66 3.94,41.34 9.48,69.96 20.32,139.74 29.9,209.7 12.38,88.04 24.86,176.08 36.86,264.16 2.02,14.4 3.14,28.92 5.32,43.32 -8.54,0.88 -17.1,1.58 -25.7,1.76 -6.02,-27.54 -11.16,-55.26 -16.62,-82.92 -6.56,-43.96 -12.84,-87.98 -19.36,-131.96 -1.32,-12.18 -4.24,-24.14 -4.84,-36.38 l -0.92,-1.46 C 446.64,464.3 431.42,360.36 416.3,256.42 z"
       id="path22"
       inkscape:connector-curvature="0"
       style="fill:#f5e5c1" />
    <path
       d="m 334.9,299.06 c 21.44,-6.46 42.88,-12.88 64.4,-19.06 2.28,16.84 5.28,33.6 6.7,50.56 -23.86,-10.12 -47.78,-20.22 -71.1,-31.5 z"
       id="path24"
       inkscape:connector-curvature="0"
       style="fill:#a24c1c" />
    <path
       d="m 477.98,303.54 c 34.84,13.28 69.24,27.66 103.96,41.26 14.08,-5.04 28.12,-10.28 42.26,-15.14 -2.94,15.22 -6.26,30.38 -9.22,45.62 -17.24,3.52 -34.88,4.48 -52.1,8.2 -24.04,4.24 -48.24,7.58 -72.3,11.7 -3.58,-30.62 -9.86,-60.9 -12.6,-91.64 z"
       id="path26"
       inkscape:connector-curvature="0"
       style="fill:#a24c1c" />
    <path
       d="m 741.55,398.85 c -23.51499,0.0325 -47.01,0.96 -70.45,2.75 -40.36,3.46 -81.17,8.33 -119.55,21.95 -12.04,4.8 -25.49,9.82 -32.95,21.1 -4.84,7.16 -0.52,16.27 5.6,21.05 12.4,10 27.88,15.02 42.9,19.6 36.8,10.24 74.9,14.73 112.9,17.55 64.62,4.04 129.8,2.53 193.8,-7.75 24.86,-4.34 50,-9.4 73,-20.2 8.54,-4.34 18.1,-9.48 21.8,-18.9 2.68,-8.46 -3.82,-15.99 -10.3,-20.45 -12.64,-8.7 -27.4,-13.49 -42,-17.75 -34.02,-9.26 -69.17,-13.6 -104.25,-16.4 -23.44,-1.72 -46.98501,-2.5825 -70.5,-2.55 z m -3.75,4.35 c 11.0341,-0.006 22.08626,0.13626 33.1,0.35 34.44,0.88 68.83,4.14 102.85,9.6 16.6,3.24 33.55,6.53 48.65,14.45 4.52,2.74 10.4,6.42 10.2,12.4 -1.9,7.64 -10.14,11.01 -16.6,14.05 -24.1,9.52 -50.04,13.02 -75.6,16.2 -45.34,4.74 -90.99,6.89 -136.55,4.95 -35.52,-1.78 -71.14,-4.1 -106.1,-10.9 -13.64,-2.86 -27.36,-5.98 -40,-12 -4.74,-2.42 -10.01,-5.26 -12.25,-10.4 -2.06,-5.56 3.1,-10.15 7.3,-12.85 12.88,-7.74 27.8,-10.91 42.3,-14.15 46.99501,-9.1 94.88558,-11.67467 142.7,-11.7 z"
       id="path28"
       style="fill:#f5e5c1"
       inkscape:connector-curvature="0" />
    <path
       d="m 645,411.52 c 66.86,-7.1 134.54,-6.5 201.28,1.5 18.9,3.06 38.02,5.94 56.02,12.74 5.8,2.42 12.2,5.02 15.8,10.52 2.62,4.3 -1.46,8.64 -4.84,10.96 -11.34,7.54 -25.18,9.4 -37.68,14.26 -2.86,1.22 -4.06,-1.62 -1.06,-2.52 9.38,-2.16 22.4,-5.96 23.94,-17.04 -2.6,-9.06 -12.72,-12.38 -20.52,-15.7 -32.34,-11.44 -67.02,-13.7 -100.98,-15.96 -45.72,-1.56 -91.78,-1.22 -137.06,6.04 -15.18,2.06 -30.16,5.84 -44.42,11.44 -6.18,2.74 -13.18,5.88 -16.14,12.38 -1.5,4.02 1.18,7.94 4.12,10.46 5.12,4.32 11.6,6.46 17.6,9.24 -11.7,-1.94 -23.3,-5.28 -33.86,-10.78 -4,-2.36 -9.2,-5.84 -8.4,-11.2 2.52,-5.8 8.62,-8.68 14.04,-11.1 22.96,-9.38 47.86,-11.66 72.16,-15.24 z"
       id="path32"
       inkscape:connector-curvature="0"
       style="fill:#f5e5c1" />
    <path
       d="m 739.75,412.8 c -8.27938,-0.0125 -16.57499,0.12499 -24.85,0.45 -30.78,1.4 -61.76,3.73 -91.7,11.35 -9.42,2.66 -19.3,5.26 -27,11.6 -3.46,2.48 -5.06,7.82 -1.7,11.1 7.1,7.48 17.59,10.11 27.15,13.05 38.56,9.92 78.66,11.57 118.3,11.45 36.28,0.14 72.8,-1.62 108.3,-9.6 10.12,-2.48 20.43,-5.2 29.45,-10.6 3.34,-2.2 7.27,-5.33 7.05,-9.75 -2.06,-6.48 -8.87,-9.42 -14.55,-12 -17.92,-7.04 -37.12,-10.06 -56.1,-12.6 -24.67501,-2.89501 -49.51187,-4.4125 -74.35,-4.45 z m 2.3,2.2 c 12.32,0.26 24.84,0.68 36.8,4 7.92,1.98 13.57,8.28 19.45,13.5 -6.38,5.62 -15,6.96 -23.1,8.1 -22.34,2.8 -45.01,2.86 -67.35,0.2 -8.7,-1.14 -17.97,-2.25 -24.95,-8.05 5.58,-5.82 11.83,-11.58 19.85,-13.7 12.76,-3.54 26.14,-3.91 39.3,-4.05 z"
       id="path34"
       style="fill:#f5e5c1"
       inkscape:connector-curvature="0" />
    <path
       d="m 707.34,421.48 c 17.92,-3.54 36.42,-3.7 54.58,-1.94 8.32,1.02 17.18,1.96 24.26,6.88 -0.3,4.66 -5.68,5.5 -9.22,6.76 -15.26,3.76 -31.16,4.04 -46.78,3.46 -12.38,-0.88 -25.56,-1.48 -36.2,-8.66 4,-2.96 8.34,-5.66 13.36,-6.5 z"
       id="path38"
       inkscape:connector-curvature="0"
       style="fill:#f4722b" />
    <path
       d="m 648.4,540.5 c 3.04,-5.44 5.34,-11.44 9.52,-16.16 36.02,0.14 72.06,1.66 108.1,1.98 -2.4,43.72 -4.68,87.44 -6.52,131.18 32.74,1.48 65.52,2.36 98.22,4.7 -37.42,12.96 -75.42,24.22 -113.08,36.54 -45.28,14.46 -90.62,28.82 -135.92,43.22 -25.12,-34.62 -50.92,-68.76 -75.98,-103.4 19.16,1.18 38.18,4.04 57.32,5.2 2.9,0.78 3.64,-2.92 5.12,-4.54 17.66,-32.94 35.5,-65.8 53.22,-98.72 z"
       id="path40"
       inkscape:connector-curvature="0"
       style="fill:#a24c1c" />
    <path
       d="m 319.98,773.7 c 51.46,-4.58 103.06,-8.08 154.72,-8.74 0.8,2.84 1.6,5.7 2.42,8.58 -60.58,0.8 -121.18,3.76 -181.44,10.3 -53.4,6.86 -107.48,13.26 -158.4,31.62 -13.98,5.56 -28.9,11.46 -38.76,23.34 -5.92,6.64 -5.14,17.3 1.08,23.48 12.84,13.68 31.38,19.74 48.6,25.88 49.9,15.58 101.96,22.7 153.78,28.52 94.32,9.06 189.26,13.66 283.94,8.56 58.92,-3.06 117.9,-6.98 176.26,-16 34.98,-5.46 70,-12.08 103.52,-23.72 14.58,-5.48 29.84,-11.46 40.74,-23.04 6.38,-6.16 7.16,-17.22 1.12,-23.86 -7.96,-9.6 -19.56,-15.1 -30.74,-20.04 -31.3,-12.68 -64.6,-19.4 -97.72,-25.34 -66.66,-9.74 -133.76,-17.08 -201.16,-18.38 -12.2,-0.1 -24.34,-1.54 -36.54,-1.2 -0.26,-2.94 -0.52,-5.88 -0.76,-8.8 63.94,0.8 127.9,4.58 191.38,12.38 37.52,4.14 74.78,10.68 111.64,18.8 35.98,8.42 72.12,18.14 105.1,35.22 14.5,7.92 29.64,17.26 37.54,32.38 5.98,11.8 2.3,26.48 -6.86,35.6 -18.78,19.88 -45.12,30.1 -70.3,39.3 -79,26.62 -162.36,36.82 -245.06,44 C 535.66,992.2 406.2,990.22 278.36,974.16 223.6,966.76 168.84,956.98 116.38,939.3 93.92,931.44 71.4,922.28 52.54,907.5 43.04,899.76 33.68,889.08 34.26,876.04 34.06,862 45.08,851.42 55.28,843.34 77.7,827 104.14,817.4 130.38,809.12 c 40.88,-12.66 83.04,-20.54 125.22,-27.32 21.52,-2.22 42.86,-5.84 64.38,-8.1 z"
       id="path42"
       inkscape:connector-curvature="0"
       style="fill:#f5e5c1" />
    <path
       d="m 294.96,792.42 c 60.94,-6.8 122.22,-10.98 183.52,-10.98 0.34,1.86 0.68,3.74 1.02,5.62 -73.66,0.4 -147.46,6.56 -219.84,20.5 -25.82,6.86 -52.54,12.7 -75.78,26.44 -8.02,5.1 -16.84,11.82 -18.14,21.94 -0.4,8.98 6.66,15.8 13.28,20.8 11.8,8.42 25.58,13.42 39.16,18.18 -15.96,-2.66 -31.62,-6.92 -47.02,-11.82 -12.56,-4.12 -25.16,-8.82 -36.1,-16.34 -5.52,-4.1 -11.58,-9.36 -12.02,-16.72 0.34,-7.98 7.12,-13.56 13.16,-17.82 15.52,-10.04 33.48,-15.3 51.08,-20.34 20.14,-5.16 40.5,-9.56 61.04,-12.74 15.8,-0.3 31,-5.08 46.64,-6.72 z"
       id="path44"
       inkscape:connector-curvature="0"
       style="fill:#f5e5c1" />
    <path
       d="m 542.02,781.48 c 62.26,0.56 124.42,6 186.32,12.44 39.56,6.96 79.72,12.68 117.62,26.54 11.6,4.74 23.86,9.58 32.56,18.98 4.8,4.88 6.22,13.02 1.74,18.6 -7.82,10.42 -20.46,15.46 -32.08,20.4 -20.12,7.5 -40.94,13.3 -62.14,16.8 14.16,-4.6 28.36,-10.02 40.62,-18.6 6.56,-4.92 13.62,-11.8 12.84,-20.72 -0.48,-8.54 -7.52,-14.74 -14,-19.38 -20.34,-13.66 -44.52,-19.28 -67.62,-26.32 -40.18,-8.44 -80.86,-14.48 -121.78,-17.98 -30.74,-3.1 -61.66,-3.62 -92.46,-5.58 -0.4,-1.3 -1.22,-3.88 -1.62,-5.18 z"
       id="path46"
       inkscape:connector-curvature="0"
       style="fill:#f5e5c1" />
    <path
       d="m 449.44,795.2 c 10.58,-0.74 21.18,-0.5 31.78,-0.4 0.12,1.06 0.32,3.18 0.44,4.24 -21.38,1.7 -43.18,3.6 -63.4,11.24 -12.48,5.82 -23.92,14.58 -31.88,25.94 7.26,8.8 18.98,10.96 29.5,13.34 23.06,4.52 46.58,6.44 70.04,7.24 35.98,0.9 72.18,-0.18 107.7,-6.4 9.96,-2.2 20.48,-3.98 29.1,-9.76 3.64,-1.92 4.14,-7.64 0.7,-9.98 -9.9,-8.2 -18.92,-18.5 -31.68,-22.2 -15.08,-4.76 -30.82,-7.14 -46.56,-8.28 -0.4,-1.86 -0.82,-3.7 -1.22,-5.54 65.68,2.64 131.68,7.4 195.84,22.48 17.94,4.5 35.96,9.72 52.34,18.54 7.52,4.26 15.62,9.58 18.42,18.24 1.94,7.72 -4.02,14.44 -9.68,18.78 -13.34,9.84 -29.38,15.06 -45.04,19.86 -45.58,12.8 -92.8,18.6 -139.86,22.66 -25.92,2.52 -51.98,2.02 -77.94,3.58 -64.84,0.3 -129.9,0.06 -194.32,-8.28 -36.08,-4.62 -72.24,-10.48 -106.82,-22 -13.22,-4.82 -27.06,-10.04 -37.1,-20.3 -4.76,-4.42 -6.86,-11.96 -3.44,-17.78 5.62,-9.2 15.66,-14.34 25.08,-18.84 21.64,-9.54 44.8,-14.98 67.92,-19.62 52.76,-10.08 106.44,-14.58 160.08,-16.76 z"
       id="path48"
       inkscape:connector-curvature="0"
       style="fill:#f5e5c1" />
    <path
       d="m 439.08,811.82 c 14.8,-2.76 29.82,-4.88 44.92,-4.9 1.44,8.5 2.08,17.36 5.36,25.42 2.66,6.74 11.06,4.32 16.66,4.72 13.7,-1.32 28.96,2.38 41.18,-5.62 0.04,-7.84 -0.4,-15.66 -1.06,-23.46 15.8,1.08 31.82,3.12 46.72,8.74 4.16,1.94 9.76,4.28 10.24,9.54 -3.14,5.36 -9.32,7.62 -14.92,9.48 -11,3.36 -22.42,5.22 -33.82,6.64 -32,3.5 -64.4,3.48 -96.36,-0.34 -11.68,-1.62 -23.46,-3.44 -34.58,-7.52 -4,-1.66 -8.48,-3.38 -10.94,-7.18 -1.18,-3.02 0.94,-5.9 3.44,-7.36 6.94,-4.52 15.16,-6.42 23.16,-8.16 z"
       id="path50"
       inkscape:connector-curvature="0"
       style="fill:#f4722b" />
  </g>
</svg>
