<?xml version="1.0" encoding="UTF-8" standalone="no"?>
<svg
   xmlns:dc="http://purl.org/dc/elements/1.1/"
   xmlns:cc="http://creativecommons.org/ns#"
   xmlns:rdf="http://www.w3.org/1999/02/22-rdf-syntax-ns#"
   xmlns:svg="http://www.w3.org/2000/svg"
   xmlns="http://www.w3.org/2000/svg"
   xmlns:sodipodi="http://sodipodi.sourceforge.net/DTD/sodipodi-0.dtd"
   xmlns:inkscape="http://www.inkscape.org/namespaces/inkscape"
   width="1280"
   height="1280"
   viewBox="0 0 1024 1024"
   version="1.1"
   id="svg2"
   inkscape:version="0.48.1 "
   sodipodi:docname="destroy_teleporters.svg">
  <metadata
     id="metadata64">
    <rdf:RDF>
      <cc:Work
         rdf:about="">
        <dc:format>image/svg+xml</dc:format>
        <dc:type
           rdf:resource="http://purl.org/dc/dcmitype/StillImage" />
      </cc:Work>
    </rdf:RDF>
  </metadata>
  <defs
     id="defs62" />
  <sodipodi:namedview
     pagecolor="#ffffff"
     bordercolor="#666666"
     borderopacity="1"
     objecttolerance="10"
     gridtolerance="10"
     guidetolerance="10"
     inkscape:pageopacity="0"
     inkscape:pageshadow="2"
     inkscape:window-width="1920"
     inkscape:window-height="1018"
     id="namedview60"
     showgrid="false"
     fit-margin-top="0"
     fit-margin-left="0"
     fit-margin-right="0"
     fit-margin-bottom="0"
     inkscape:zoom="0.46735339"
     inkscape:cx="594.04351"
     inkscape:cy="526.57341"
     inkscape:window-x="-8"
     inkscape:window-y="-8"
     inkscape:window-maximized="1"
     inkscape:current-layer="layer1"
     inkscape:snap-page="true" />
  <g
     inkscape:groupmode="layer"
     id="layer1"
     inkscape:label="background">
    <rect
       style="fill:#3e3e3e;fill-opacity:1;fill-rule:nonzero;stroke:none"
       id="rect3038"
       width="1280"
       height="1280"
       x="0"
       y="0"
       transform="scale(0.8,0.8)" />
  </g>
  <g
     inkscape:groupmode="layer"
     id="layer2"
     inkscape:label="foreground">
    <path
       d="m 308.96,165.04 c -3.74,-3.48 -1.46,-8.66 0.16,-12.54 4.62,0 9.24,0.12 13.84,0.4 0.46,5.32 0.34,10.66 -0.12,16 -4.94,0.52 -10.9,1.06 -13.88,-3.86 z"
       id="path6"
       inkscape:connector-curvature="0"
       style="fill:#f5e5c1" />
    <path
       d="m 271.58,182.66 c 8.96,3.16 17.8,6.7 26.32,10.92 3.52,10.58 7.86,20.94 9.24,32.14 -13.9,-2.84 -27.7,-7.32 -39.2,-15.76 -6.5,-8.5 0.76,-18.8 3.64,-27.3 z"
       id="path8"
       inkscape:connector-curvature="0"
       style="fill:#f5e5c1" />
    <path
       d="m 533.16,243.56 c 2.42,-4.08 8.66,-3.7 11.74,-0.6 6.68,6.06 14.12,11.3 20.28,17.88 3.66,3.64 1.96,9.04 1.56,13.54 -6.76,2.1 -13.7,4.34 -20.84,4.26 -6.96,-3.56 -9.68,-11.66 -11.28,-18.8 -1.08,-5.3 -3,-10.88 -1.46,-16.28 z"
       id="path10"
       inkscape:connector-curvature="0"
       style="fill:#f5e5c1" />
    <path
       d="m 288.86,262.22 c 6.82,1.44 14.3,2.2 19.98,6.66 3.3,3.52 5.46,7.9 8.08,11.94 32.3,51.16 65,102.08 97.22,153.3 -21.26,-30.7 -43.88,-60.44 -65.72,-90.74 -21.02,-26.18 -38.52,-55 -59.56,-81.16 z"
       id="path12"
       inkscape:connector-curvature="0"
       style="fill:#f3722c" />
    <path
       d="m 355.44,310.72 c -2.92,-3.82 3.22,-6.58 4.84,-9.66 13.2,23.78 23.32,49.16 35.62,73.42 -13.48,-21.26 -27.22,-42.36 -40.46,-63.76 z"
       id="path14"
       inkscape:connector-curvature="0"
       style="fill:#f3722c" />
    <path
       d="m 524.68,315.76 c 6.84,3.84 13.72,7.62 20.42,11.72 -6.32,36.14 -12.7,72.32 -17.66,108.68 0.24,-40.16 -2.7,-80.24 -2.76,-120.4 z"
       id="path16"
       inkscape:connector-curvature="0"
       style="fill:#f3722c" />
    <path
       d="m 745.68,364.84 c 8.46,-0.98 16.86,3.74 20.94,11.12 2.2,7.7 -6.06,11.46 -11.54,14.24 -0.34,2.16 -0.68,4.32 -0.98,6.48 -5.24,1.48 -11.44,0.9 -13.82,-4.76 -3.18,-9.02 0.2,-19.38 5.4,-27.08 z"
       id="path18"
       inkscape:connector-curvature="0"
       style="fill:#f5e5c1" />
    <path
       d="m 77.28,377.92 c 2.02,-0.58 4.06,-1.02 6.14,-1.34 24.88,5.96 48.82,15.2 73.56,21.7 15.64,4.5 31.38,8.74 46.8,13.98 21.28,7.2 43.38,11.74 64.58,19.18 22.06,7.64 45,12.36 67.14,19.74 7.78,2.48 12.74,9.38 18.44,14.78 6.14,6.52 13.08,12.3 19.08,18.96 1.78,10.32 1.08,20.88 2.1,31.28 0.42,4.22 3.66,7.38 6.38,10.38 14.4,14.26 28.78,28.58 43.14,42.92 5.26,4.96 2.76,12.94 2.1,19.22 -3.22,4.56 -9.58,1.74 -14.1,1.48 -16.76,-4.18 -33.88,-6.56 -50.7,-10.54 -14.78,-1.68 -28.88,-6.72 -43.68,-8.18 -15.8,-5.44 -32.74,-5.88 -49.16,-3.58 -17.14,1.3 -34.32,2.36 -51.44,4 -2.72,0.04 -6.86,2.12 -7.66,-1.84 -0.88,-16.06 -0.82,-32.14 -1.56,-48.2 -0.5,-0.94 -1.5,-2.82 -2,-3.76 -6.58,0.72 -13.16,1.08 -19.76,1.5 0.32,18.34 1.94,36.62 2.02,54.96 -5.06,0.16 -10.12,0.16 -15.18,0.04 0.22,-17.44 -3.72,-34.54 -4.06,-51.94 -6.18,0 -12.32,0.88 -18.3,2.42 2.08,17.02 1.86,34.26 2.08,51.38 -5.24,0.5 -10.5,0.88 -15.76,1.06 -0.78,-17.48 -1.62,-34.96 -2.74,-52.42 -8.68,0.82 -17.36,1.74 -26.08,1.98 1.08,17.74 4.1,35.32 4.22,53.1 -10.54,0.7 -21.32,-0.16 -31.64,2.62 -10.18,-10.62 -20.96,-20.86 -29.96,-32.48 5.22,-28.56 8.66,-57.44 12.56,-86.2 5.28,-28.62 7.36,-57.74 13.44,-86.2 z"
       id="path20"
       inkscape:connector-curvature="0"
       style="fill:#f5e5c1" />
    <path
       d="m 480.9,377.18 c 4.82,4.08 9.22,8.64 13.32,13.48 -3.04,0.82 -6.58,3.46 -9.48,0.86 -5.5,-2.74 -4.14,-9.4 -3.84,-14.34 z"
       id="path22"
       inkscape:connector-curvature="0"
       style="fill:#f3722c" />
    <path
       d="m 551.24,388.66 c 1.9,2.46 3.84,4.9 5.78,7.32 -3.44,11.34 -4.56,23.24 -8.28,34.5 -4.74,17.68 -10.22,35.28 -12.04,53.56 3.64,-31.96 9.52,-63.62 14.54,-95.38 z"
       id="path24"
       inkscape:connector-curvature="0"
       style="fill:#f3722c" />
    <path
       d="m 682.52,420.56 c 7.32,-5.66 13.7,-12.74 22.22,-16.66 0.88,8.7 0.44,17.44 -0.16,26.14 -3.96,2.26 -7.9,4.52 -11.84,6.82 0.04,-1.4 0.1,-4.18 0.14,-5.58 -3.34,5.14 -7.72,9.58 -13.32,12.18 -23.26,12.2 -46.24,24.92 -69.74,36.6 24.76,-19.16 48.4,-39.76 72.7,-59.5 z"
       id="path26"
       inkscape:connector-curvature="0"
       style="fill:#f3722c" />
    <path
       d="m 402.48,526.58 c 1.96,-0.6 3.94,-1.18 5.92,-1.72 10.36,5.2 22.32,4.86 33.3,8.06 9.26,2.76 18.7,4.9 28.22,6.56 2.56,10.76 9,20.86 9.6,31.88 -15.36,17.02 -32.26,32.62 -47.8,49.48 -19.2,-1.6 -37.8,-7.84 -57.08,-8.68 0.66,-6.34 2.3,-14.06 8.16,-17.5 14.64,2 29.04,5.7 43.6,8.32 2.76,-0.5 5.38,-1.48 8.04,-2.32 4.02,-11.18 8.16,-22.32 12.58,-33.34 -14.14,-14.3 -29.7,-27.16 -44.54,-40.74 z"
       id="path28"
       inkscape:connector-curvature="0"
       style="fill:#f5e5c1" />
    <path
       d="m 932.02,535.42 c 16.66,-0.4 33.24,-2.8 49.94,-2.74 3.56,2.08 5.74,5.8 8.42,8.84 -8.94,46.12 -15.58,92.66 -24.34,138.82 -2.12,7.96 -0.84,17.22 -5.38,24.28 -9.1,8.02 -18.7,15.58 -28.68,22.48 -5.08,-2.02 -10.3,-3.72 -15.58,-5.08 -9.26,-3 -18.74,-5.3 -27.9,-8.58 6.4,-16.32 13.8,-32.24 20,-48.64 -6.42,-2.06 -12.86,-4.1 -19.3,-6.06 -7.84,16.02 -14,32.82 -21.26,49.12 -5.06,-1.58 -10.06,-3.34 -15.02,-5.2 7.6,-15.2 13.02,-31.32 19.1,-47.16 -5.68,-1.88 -11.3,-4.14 -17.26,-4.84 -6.4,15.66 -12.26,31.54 -18.18,47.38 -4.68,-1.18 -9.3,-2.52 -13.98,-3.7 0.04,-2.92 0.18,-5.9 1.2,-8.68 4.38,-13.28 8.08,-26.78 12.18,-40.14 -6.24,-1.88 -12.48,-3.7 -18.74,-5.44 -4.96,15.76 -10.32,31.38 -15.22,47.16 -28.06,-8.06 -56,-16.58 -83.98,-24.9 -3.86,-1.28 -7.9,-1.88 -11.96,-2.12 -13.38,0.04 -26.74,1.02 -40.1,0.84 -17.32,0.52 -34.6,2.22 -51.92,1.94 -8.9,-0.04 -17.78,1.42 -26.66,0.3 0.3,-4.56 0.46,-9.16 1.46,-13.62 20.22,-8.8 40.2,-18.12 60.38,-27.04 5.18,-2.42 10.8,-4.08 15.52,-7.4 4.86,-10.54 6.02,-22.4 11.18,-32.82 3.84,-7.36 11.18,-11.8 16.94,-17.5 6.62,-5.78 12.34,-14.08 21.78,-15.1 19.66,-0.38 39.24,-2.48 58.86,-3.56 52.84,-3.58 105.7,-6.82 158.5,-10.84 z"
       id="path30"
       inkscape:connector-curvature="0"
       style="fill:#f5e5c1" />
    <path
       d="m 551.62,609.48 c 13.42,-0.58 26.86,1.58 40.24,0.02 10.22,-0.94 20.52,0.86 30.72,-0.66 0.28,5.16 0.56,10.32 0.66,15.48 -14.18,4.4 -27,12.36 -41.48,15.86 -2.44,0.68 -4.42,2.34 -6.54,3.64 0.32,10.16 -0.98,20.46 0.66,30.54 2,2.62 5.76,1.56 8.62,1.62 9.96,-1.3 20,-0.74 30,-0.58 -0.22,6.56 -0.72,13.1 -1.5,19.62 -17.68,-1.14 -35.26,2.26 -52.94,1.94 -9.24,0.14 -18.38,2 -27.64,1.28 11.92,-20.22 24.5,-40.02 36.62,-60.12 -5.78,-9.58 -12.48,-18.6 -17.42,-28.64 z"
       id="path32"
       inkscape:connector-curvature="0"
       style="fill:#f5e5c1" />
    <path
       d="m 323.62,610.06 c 26.4,4.32 52.62,9.56 78.98,13.98 7.22,1.96 14.68,2.94 22.16,3.36 -2.44,2.7 -4.72,5.62 -7.6,7.86 -7.96,1.16 -15.48,-2.62 -23.26,-3.42 -10.78,-0.94 -21.08,-4.62 -31.9,-5.32 -13.08,-3.38 -26.66,-4.08 -39.64,-7.94 0.42,-2.86 0.84,-5.68 1.26,-8.52 z"
       id="path34"
       inkscape:connector-curvature="0"
       style="fill:#f5e5c1" />
    <path
       d="m 280.34,620.58 c 7.4,-1.16 14.88,-1.84 22.4,-1.6 6.56,9.46 14.12,18.16 20.64,27.64 0.36,11.7 -6.12,22.48 -8.34,33.86 -9.02,7.42 -18.84,13.76 -28.58,20.16 -22.7,-4.44 -45.78,-6.32 -68.5,-10.62 -25.4,-3.18 -50.64,-7.68 -75.98,-11.02 3.34,-10.48 5.98,-21.18 9.52,-31.58 4.28,-6.26 10.5,-10.9 16.44,-15.48 3.96,-3.38 9.44,-2.7 14.26,-3.22 32.72,-2.58 65.4,-5.76 98.14,-8.14 z"
       id="path36"
       inkscape:connector-curvature="0"
       style="fill:#f5e5c1" />
    <path
       d="m 324.92,626.7 c 28.44,5.5 56.86,11.04 85.48,15.6 -6.68,6.82 -13.06,13.96 -20.12,20.42 30.66,13.28 61.5,26.2 92.4,38.92 -14.1,11.72 -27.76,24 -42.3,35.18 -20.8,-5.92 -42.68,-12.3 -64.34,-7.4 -6.78,2.84 -10.92,9.28 -15.74,14.48 -21.06,-2.84 -42.16,-5.32 -63.28,-7.58 0.88,-3.92 1.02,-8.26 3.66,-11.5 6.4,-8.3 12.66,-16.72 19.18,-24.92 4.2,-5.2 4.86,-12.12 6.62,-18.32 2.78,-12 6.22,-23.82 9.04,-35.78 -2.92,-6.68 -7.46,-12.52 -10.6,-19.1 z"
       id="path38"
       inkscape:connector-curvature="0"
       style="fill:#f5e5c1" />
    <path
       d="m 134.74,694 c 7.08,-1.62 14.3,-5.38 21.7,-3.66 17.06,3.34 34.38,5.08 51.56,7.58 7.4,2.4 13.14,8.02 18.34,13.54 -20.68,-3.72 -41.28,-7.94 -62,-11.56 -9.74,-2.64 -20,-2.64 -29.6,-5.9 z"
       id="path40"
       inkscape:connector-curvature="0"
       style="fill:#f5e5c1" />
    <path
       d="m 118.52,722.48 c 1.62,-8.14 3.88,-16.14 7,-23.82 15.06,3.74 30.56,5.32 45.56,9.48 10.54,1.12 20.76,3.82 31.02,6.42 12.08,1.24 23.68,4.76 35.48,7.4 -0.86,9.38 -0.96,18.82 -2.12,28.18 -16.82,-4.04 -33.56,-8.38 -50.58,-11.56 -22,-5.8 -43.86,-12.42 -66.36,-16.1 z"
       id="path42"
       inkscape:connector-curvature="0"
       style="fill:#f5e5c1" />
    <path
       d="m 557.84,705.4 c 39.86,-1.96 79.7,-3.6 119.56,-5.36 -0.08,2.26 -0.2,6.82 -0.26,9.08 -15.66,1.84 -31.4,1.46 -47.12,2.32 -18.08,1.64 -36.22,1.24 -54.34,2.32 -18.16,2 -36.52,0.68 -54.68,2.94 2.14,-3.46 4.32,-6.9 6.66,-10.24 10.08,0.68 20.06,-1.9 30.18,-1.06 z"
       id="path44"
       inkscape:connector-curvature="0"
       style="fill:#f5e5c1" />
    <path
       d="m 700.68,712.48 c 37.14,18.04 75.04,34.52 112.4,52.1 7.44,3.16 14.38,7.32 21.22,11.62 2.52,7.96 8.38,15.8 6.22,24.48 -1.58,8.82 -3.64,17.56 -4.02,26.54 -3.44,0.02 -6.92,0.02 -10.28,-0.74 -45.84,-10.1 -91.86,-19.24 -137.72,-29.24 -11.52,-1.28 -15.74,-13.96 -23.4,-20.98 1.3,-10.9 2.2,-21.96 4.64,-32.64 8.8,-11.74 20.86,-20.54 30.94,-31.14 z"
       id="path46"
       inkscape:connector-curvature="0"
       style="fill:#f5e5c1" />
    <path
       d="m 523.86,723.52 c 51.32,-1.68 102.56,-4.88 153.88,-6.44 -3.62,13.02 -17.38,20.08 -21.68,32.68 -0.64,12.62 -3.82,25.12 -3.5,37.74 7.06,17.16 14.74,34.12 21.62,51.38 -22.58,-2.08 -45.3,-1.98 -67.9,-3.52 -5.8,-7.3 -10.44,-16.6 -19.52,-20.28 -6.12,-2.7 -12.44,-4.86 -18.84,-6.78 10.78,-14.26 21.68,-28.44 32.32,-42.84 -32.86,-5.3 -65.56,-11.62 -98.42,-16.88 4.4,-7.82 8.86,-15.66 13.94,-23.06 1.74,-2.64 5.46,-1.5 8.1,-2 z"
       id="path48"
       inkscape:connector-curvature="0"
       style="fill:#f5e5c1" />
    <path
       d="m 293.5,746.44 c 7.54,-0.02 15.02,0.8 22.52,1.52 13.8,1.8 27.64,3.46 41.48,4.96 -1.96,8.74 -3.88,17.54 -6.86,26.02 -19.64,-5.3 -39.72,-8.54 -59.8,-11.58 0.62,-7 1.54,-13.98 2.66,-20.92 z"
       id="path50"
       inkscape:connector-curvature="0"
       style="fill:#f5e5c1" />
    <path
       d="m 780.96,824.82 c 10,2.48 20.14,4.26 30.18,6.62 0.16,3.04 0.32,6.1 0.46,9.16 -9.38,-0.34 -18.76,-0.22 -28.1,-0.86 -1.2,-4.9 -2.16,-9.88 -2.54,-14.92 z"
       id="path52"
       inkscape:connector-curvature="0"
       style="fill:#f5e5c1" />
    <path
       d="m 608.64,847.22 c 21.64,1.66 43.34,2.18 65.02,2.52 -0.44,9.04 1.34,17.96 1.74,26.98 -22.66,-2.34 -45.54,-0.9 -68.16,-3.28 0.58,-8.74 0.48,-17.5 1.4,-26.22 z"
       id="path54"
       inkscape:connector-curvature="0"
       style="fill:#f5e5c1" />
    <path
       d="m 746.64,856.98 c 3.32,-3.2 6.64,-6.42 9.9,-9.7 26.54,0.26 53.06,2.06 79.62,1.54 4.78,-0.9 8.1,2.68 11.12,5.78 -33.58,0.56 -67.08,2.02 -100.64,2.38 z"
       id="path56"
       inkscape:connector-curvature="0"
       style="fill:#f5e5c1" />
    <path
       d="m 740.26,866.66 c 36.78,-1.42 73.54,-3.28 110.36,-3.84 1.5,6.82 2.98,13.64 4.24,20.5 -38.48,0.62 -76.9,-2.7 -115.38,-1.68 0.1,-5.02 0.34,-10 0.78,-14.98 z"
       id="path58"
       inkscape:connector-curvature="0"
       style="fill:#f5e5c1" />
  </g>
</svg>
