<?xml version="1.0" encoding="UTF-8" standalone="no"?>
<svg
   xmlns:dc="http://purl.org/dc/elements/1.1/"
   xmlns:cc="http://creativecommons.org/ns#"
   xmlns:rdf="http://www.w3.org/1999/02/22-rdf-syntax-ns#"
   xmlns:svg="http://www.w3.org/2000/svg"
   xmlns="http://www.w3.org/2000/svg"
   xmlns:sodipodi="http://sodipodi.sourceforge.net/DTD/sodipodi-0.dtd"
   xmlns:inkscape="http://www.inkscape.org/namespaces/inkscape"
   width="1280"
   height="1280"
   viewBox="0 0 1024 1024"
   version="1.1"
   id="svg2"
   inkscape:version="0.48.1 "
   sodipodi:docname="dodge_damage.svg">
  <metadata
     id="metadata56">
    <rdf:RDF>
      <cc:Work
         rdf:about="">
        <dc:format>image/svg+xml</dc:format>
        <dc:type
           rdf:resource="http://purl.org/dc/dcmitype/StillImage" />
      </cc:Work>
    </rdf:RDF>
  </metadata>
  <defs
     id="defs54" />
  <sodipodi:namedview
     pagecolor="#ffffff"
     bordercolor="#666666"
     borderopacity="1"
     objecttolerance="10"
     gridtolerance="10"
     guidetolerance="10"
     inkscape:pageopacity="0"
     inkscape:pageshadow="2"
     inkscape:window-width="1920"
     inkscape:window-height="1018"
     id="namedview52"
     showgrid="false"
     fit-margin-top="0"
     fit-margin-left="0"
     fit-margin-right="0"
     fit-margin-bottom="0"
     inkscape:zoom="0.6609375"
     inkscape:cx="640"
     inkscape:cy="640"
     inkscape:window-x="-8"
     inkscape:window-y="-8"
     inkscape:window-maximized="1"
     inkscape:current-layer="svg2" />
  <path
     d="m 0,0 1024,0 0,1024 L 0,1024 0,0 z"
     id="path4"
     style="fill:#3e3e3e"
     inkscape:connector-curvature="0" />
  <path
     d="m 107.88,92.56 c 75.76,0.02 151.54,0.08 227.3,-0.02 0.02,2.84 0.04,5.7 0.06,8.54 -75.86,-0.12 -151.74,0.12 -227.62,-0.12 0.1,-2.8 0.18,-5.6 0.26,-8.4 z"
     id="path6"
     inkscape:connector-curvature="0"
     style="fill:#f5e5c1" />
  <path
     d="m 377.3,94.2 c -0.08,47.22 1.74,94.38 1.6,141.6 33.04,-0.04 66.06,-0.04 99.1,0 7.22,-0.08 14.77,0.76 21.65,-2 22.24,-7.66 44.31,-16.82 63.45,-30.7 10.96,-8.22 21.95,-18.92 23.75,-33.2 1.42,-14.04 -7.95,-26.18 -17.95,-34.9 -18.4,-15.62 -40.48,-26.06 -62.5,-35.5 -5.38,-2.02 -10.6,-5.18 -16.5,-5.2 -37.54,-0.1 -75.06,0.12 -112.6,-0.1 z m 15,15.3 c 30.16,0.02 60.34,-0.02 90.5,0 0.48,37 0.48,74.03 0.1,111.05 -29.98,0.12 -59.94,-0.2 -89.9,0.2 -1.52,-37.04 -0.3,-74.19 -0.7,-111.25 z m 102.9,1.1 c 18.76,8.76 38.28,16.4 55,28.9 -15.3,-5.56 -31.6,-7.36 -47.5,-10.4 -0.16,8.38 -0.22,16.75 0.2,25.15 20.52,-0.1 41.61,4.03 58.75,15.85 3.22,1.6 3.82,4.74 2.9,8 -19.9,-7.4 -40.72,-13.49 -62.1,-13.75 0.14,2.14 0.29,4.31 0.45,6.45 10.56,-0.32 21,1.4 31.2,4.1 8.96,1.56 17.64,4.42 25.6,8.9 -14.14,14.76 -33.23,23.14 -51.95,30.5 -3.9,1.6 -7.97,2.68 -12.05,3.6 -3.28,-29.84 -1.8,-59.89 -2.2,-89.85 -0.16,-5.88 0.64,-11.69 1.7,-17.45 z"
     id="path8"
     style="fill:#f5e5c1"
     inkscape:connector-curvature="0" />
  <path
     d="m 397.76,127.5 c 0.4,-0.4 1.2,-1.24 1.62,-1.66 16.2,1.44 32.42,-0.74 48.62,0.44 9.84,0.26 19.68,0.02 29.52,0.06 0,9.6 -0.02,19.22 0,28.82 -26.66,-0.06 -53.32,0.04 -79.98,-0.06 0.22,-9.2 -0.34,-18.4 0.22,-27.6 z"
     id="path14"
     inkscape:connector-curvature="0"
     style="fill:#f5e5c1" />
  <path
     d="m 252.5,151.62 c 27.56,-0.04 55.1,0.08 82.66,-0.06 0,3.4 0.02,6.8 0.04,10.2 -27.52,-0.1 -55.04,-0.08 -82.58,0 -0.04,-3.38 -0.08,-6.76 -0.12,-10.14 z"
     id="path16"
     inkscape:connector-curvature="0"
     style="fill:#f5e5c1" />
  <path
     d="m 397.54,163.22 c 26.7,0.02 53.4,0 80.1,0 -0.16,2.42 -0.3,4.84 -0.44,7.26 -26.52,-0.12 -53.04,-0.04 -79.56,-0.04 -0.02,-1.8 -0.08,-5.42 -0.1,-7.22 z"
     id="path18"
     inkscape:connector-curvature="0"
     style="fill:#f5e5c1" />
  <path
     d="m 38.82,232.32 c 98.78,0.12 197.58,0.1 296.36,0 0,2.84 0.02,5.7 0.02,8.54 -98.92,-0.2 -197.86,0.18 -296.78,-0.18 0.14,-2.8 0.26,-5.58 0.4,-8.36 z"
     id="path20"
     inkscape:connector-curvature="0"
     style="fill:#f5e5c1" />
  <path
     d="m 35.4,427.78 c 226.24,0.02 452.48,0 678.72,0.02 0,3.34 0,6.7 0,10.06 -226.22,0.08 -452.46,-0.12 -678.68,0.1 -0.02,-3.4 -0.04,-6.78 -0.04,-10.18 z"
     id="path22"
     inkscape:connector-curvature="0"
     style="fill:#f5e5c1" />
  <path
     d="m 847.45,429.4 c -0.46315,-0.005 -0.93125,0.025 -1.4,0.05 -36.7,0.12 -73.4,0.01 -110.1,0.05 0.76,47.14 1.21,94.26 1.75,141.4 38.42,-0.2 76.87,0.54 115.25,-0.3 23.86,-7.38 47.41,-17.2 67.95,-31.6 11.38,-8.54 23.66,-19.66 24.6,-34.8 1.26,-12.7 -6.83,-23.77 -15.55,-32.05 -18.24,-16.36 -40.66,-26.94 -62.9,-36.7 -6.31875,-2.56875 -12.65283,-5.96746 -19.6,-6.05 z m -51.25,15.15 c 15.05,0.007 30.1,0.06 45.15,0.05 0.44,37.02 0.51,74.11 0.05,111.15 -29.84,-0.22 -59.68,0.42 -89.5,-0.3 -0.82,-3.1 -0.83,-6.34 -0.85,-9.5 -0.14,-33.76 -0.02,-67.49 0,-101.25 15.05,-0.1 30.1,-0.1575 45.15,-0.15 z m 57.1,1.65 c 18.56,7.32 37.51,15.07 53.35,27.45 -14.92,-4.16 -30.19,-7.29 -45.55,-9.25 l 0,24.4 c 22,0.94 45.03,5.03 62.75,19.05 -0.24,1.38 -0.74,4.09 -1,5.45 -19.74,-7.88 -40.82,-13.17 -62.1,-14.25 0.16,1.44 0.49,4.36 0.65,5.8 5.84,2.84 12.6,0.96 18.8,2.4 12.84,2.66 25.9,5.24 37.8,11 -4.78,7.12 -12.16,11.78 -19.3,16.2 -13.74,8.04 -28.64,13.81 -43.6,19.05 -0.62,-2.5 -1.14,-4.98 -1.6,-7.5 -1.64,-24.62 -0.87,-49.32 -1.05,-74 -0.08,-8.6 -0.05,-17.22 0.85,-25.8 z"
     id="path24"
     style="fill:#f5e5c1"
     inkscape:connector-curvature="0" />
  <path
     d="m 756.36,461.14 c 26.76,0.04 53.52,-0.04 80.28,0.04 0,9.78 0.02,19.58 -0.04,29.36 -26.72,0.06 -53.44,-0.02 -80.16,0.04 -0.14,-9.82 -0.1,-19.62 -0.08,-29.44 z"
     id="path30"
     inkscape:connector-curvature="0"
     style="fill:#f5e5c1" />
  <path
     d="m 756.32,498.6 c 26.8,0.06 53.58,-0.1 80.36,0.08 0,1.62 0,4.86 -0.02,6.48 -26.76,0.2 -53.52,0 -80.3,0.1 -0.02,-2.24 -0.04,-4.46 -0.04,-6.66 z"
     id="path32"
     inkscape:connector-curvature="0"
     style="fill:#f5e5c1" />
  <path
     d="m 448,501.88 c 74.1,-0.02 148.2,-0.02 222.3,0 -0.02,3.38 -0.02,6.8 -0.02,10.2 -74.06,-0.14 -148.12,-0.14 -222.18,-0.02 -0.04,-3.4 -0.08,-6.8 -0.1,-10.18 z"
     id="path34"
     inkscape:connector-curvature="0"
     style="fill:#f5e5c1" />
  <path
     d="m 222.3,562.48 c 163.94,0 327.88,0 491.82,0 0,3.36 0,6.72 0.02,10.1 -164,0 -327.98,0.04 -491.96,-0.02 0.04,-3.36 0.08,-6.72 0.12,-10.08 z"
     id="path36"
     inkscape:connector-curvature="0"
     style="fill:#f5e5c1" />
  <path
     d="m 668.85,747.75 c -19.14499,0.03 -38.31,0.14 -57.45,0.05 0.12,47.2 1.67,94.33 1.65,141.55 38.26,-0.34 76.56,0.41 114.8,-0.35 24.74,-7.58 49.19,-17.77 70.25,-33.05 11.84,-9.06 24.04,-21.77 22.9,-37.85 -2.2,-18.5 -18.16,-30.79 -32.5,-40.55 -19.54,-12.02 -40.33,-22.77 -62.25,-29.55 -19.14,-0.27 -38.25501,-0.28 -57.4,-0.25 z m -19.9,15.15 c 7.55187,-0.0228 15.10251,-0.006 22.65,0 15.09499,0.0125 30.21,0.1 45.3,0.1 0.46,36.94 0.42,73.89 0.1,110.85 -29.94,0.72 -59.91,-0.17 -89.85,0.45 -1.74,-37.04 -0.19,-74.17 -0.85,-111.25 7.54499,-0.065 15.09813,-0.12718 22.65,-0.15 z m 80.2,1.3 c 18.32,8.18 37.28,15.65 53.5,27.75 -15.1,-4.06 -30.49,-7.08 -45.95,-9.3 0,8.12 -0.01,16.26 -0.05,24.4 22,1.22 45.38,4.93 62.8,19.55 -0.3,1.22 -0.85,3.66 -1.15,4.9 -19.7,-7.56 -40.5,-13.04 -61.6,-14.3 0.1,2.42 0.21,4.86 0.35,7.3 7.16,0.06 14.38,-0.04 21.4,1.6 12,2.92 24.64,4.54 35.3,11.3 -17.42,17.32 -40.83,27.07 -63.95,34.15 -2.24,-21.14 -2.35,-42.41 -2.15,-63.65 0.32,-14.56 -1.06,-29.28 1.5,-43.7 z"
     id="path38"
     style="fill:#f5e5c1"
     inkscape:connector-curvature="0" />
  <path
     d="m 272.78,761.34 c 0,-3.42 0.04,-6.82 0.06,-10.22 101.08,0.16 202.16,-0.02 303.24,0.08 -0.04,3.34 -0.06,6.72 -0.08,10.08 -101.08,0.06 -202.14,-0.04 -303.22,0.06 z"
     id="path40"
     inkscape:connector-curvature="0"
     style="fill:#f5e5c1" />
  <path
     d="m 631.68,779.36 c 26.6,-0.04 53.2,0.04 79.8,-0.04 0.14,9.82 0.12,19.64 0.04,29.48 -26.62,-0.08 -53.24,-0.02 -79.86,-0.04 0,-9.8 -0.02,-19.6 0.02,-29.4 z"
     id="path46"
     inkscape:connector-curvature="0"
     style="fill:#f5e5c1" />
  <path
     d="m 631.44,816.98 c 26.7,-0.38 53.42,-0.02 80.14,-0.18 0,2.22 -0.02,4.44 0,6.68 -26.62,-0.04 -53.22,-0.02 -79.82,-0.02 -0.08,-1.62 -0.24,-4.86 -0.32,-6.48 z"
     id="path48"
     inkscape:connector-curvature="0"
     style="fill:#f5e5c1" />
  <path
     d="m 74,879.22 c 166.78,-0.1 333.56,0 500.34,-0.06 -0.04,3.4 -0.08,6.8 -0.12,10.22 -166.72,-0.2 -333.42,-0.02 -500.12,-0.1 -0.04,-3.36 -0.06,-6.72 -0.1,-10.06 z"
     id="path50"
     inkscape:connector-curvature="0"
     style="fill:#f5e5c1" />
</svg>
