<?xml version="1.0" encoding="UTF-8" standalone="no"?>
<svg
   xmlns:dc="http://purl.org/dc/elements/1.1/"
   xmlns:cc="http://creativecommons.org/ns#"
   xmlns:rdf="http://www.w3.org/1999/02/22-rdf-syntax-ns#"
   xmlns:svg="http://www.w3.org/2000/svg"
   xmlns="http://www.w3.org/2000/svg"
   xmlns:sodipodi="http://sodipodi.sourceforge.net/DTD/sodipodi-0.dtd"
   xmlns:inkscape="http://www.inkscape.org/namespaces/inkscape"
   width="1280"
   height="1280"
   viewBox="0 0 1024 1024"
   version="1.1"
   id="svg2"
   inkscape:version="0.48.1 "
   sodipodi:docname="fast_cap.svg">
  <metadata
     id="metadata52">
    <rdf:RDF>
      <cc:Work
         rdf:about="">
        <dc:format>image/svg+xml</dc:format>
        <dc:type
           rdf:resource="http://purl.org/dc/dcmitype/StillImage" />
      </cc:Work>
    </rdf:RDF>
  </metadata>
  <defs
     id="defs50" />
  <sodipodi:namedview
     pagecolor="#ffffff"
     bordercolor="#666666"
     borderopacity="1"
     objecttolerance="10"
     gridtolerance="10"
     guidetolerance="10"
     inkscape:pageopacity="0"
     inkscape:pageshadow="2"
     inkscape:window-width="1920"
     inkscape:window-height="1018"
     id="namedview48"
     showgrid="false"
     inkscape:snap-page="true"
     fit-margin-top="0"
     fit-margin-left="0"
     fit-margin-right="0"
     fit-margin-bottom="0"
     inkscape:zoom="0.6609375"
     inkscape:cx="466.00473"
     inkscape:cy="640"
     inkscape:window-x="-8"
     inkscape:window-y="-8"
     inkscape:window-maximized="1"
     inkscape:current-layer="layer1" />
  <g
     inkscape:groupmode="layer"
     id="layer1"
     inkscape:label="background">
    <rect
       style="fill:#3e3e3e;fill-opacity:1;fill-rule:nonzero;stroke:none"
       id="rect3020"
       width="1280"
       height="1280"
       x="0"
       y="0"
       transform="scale(0.8,0.8)" />
  </g>
  <g
     inkscape:groupmode="layer"
     id="layer2"
     inkscape:label="foreground">
    <path
       d="m 502.8,96.95 c -13.24688,0.0663 -26.51499,0.335 -39.75,0.8 -47.44,2.06 -94.86,6.39 -141.4,16.05 -24.58,5.46 -49.43,11.82 -71.65,24 -9.16,5.32 -19.42,12.73 -20.6,24.15 0.16,10.56 9.16,18 17.3,23.3 22.04,13.14 47.23,19.65 72.05,25.25 63.44,13.5 128.48,17.3 193.2,17.8 69.3,-0.9 139.17,-5.21 206.65,-22.05 20.6,-5.7 41.66,-12.01 59.2,-24.65 8.02,-5.68 15,-15.98 10.5,-26 -7.66,-14.06 -23.46,-20.58 -37.5,-26.5 C 709.54,113.44 665.47,107.28 621.85,102.3 582.29499,98.415 542.54062,96.75125 502.8,96.95 z m -0.4,5.4 c 35.84626,-0.0928 71.7,0.745 107.4,4.3 37.2,4.2 75.1,7.53 110.5,20.55 8.42,3.6 18.1,7.19 23,15.45 3.42,5.58 -1.29,11.76 -5.75,15 -11.12,7.92 -24.45,11.75 -37.45,15.35 -45.12,11.5 -91.78,14.89 -138.1,17.65 -23.98,1.02 -47.95,2.08 -71.95,1.7 -52.38,-1.86 -105.01,-4.29 -156.65,-13.85 -17.92,-3.64 -36.01,-7.58 -52.65,-15.4 -6.02,-2.98 -12.46,-6.66 -15.4,-13 -2.48,-7.48 4.58,-13.18 10.2,-16.6 14.74,-8.46 31.53,-12.37 47.95,-16.15 47.08,-9.48 95.11,-13.23 143.05,-14.65 11.94,-0.17 23.90125,-0.31906 35.85,-0.35 z"
       id="path6"
       style="fill:#f5e5c1"
       inkscape:connector-curvature="0" />
    <path
       d="m 379.86,113.66 c 59.08,-7.3 118.8,-8.38 178.24,-5.98 42.14,2.38 84.52,5.42 125.66,15.42 12.32,3.16 24.86,6.58 35.78,13.28 4.22,2.74 9.3,7.24 7.56,12.86 -3.22,7.34 -11.4,10.52 -18.24,13.62 -12.06,4.44 -24.4,8.9 -37.28,10.02 9.72,-3.02 19.78,-6.82 27.12,-14.12 5.24,-4.92 3.5,-13.64 -2.16,-17.48 C 683.62,131.24 667.2,127.6 651.78,123.16 602.64,112.9 552.24,109.68 502.12,110.2 c -41.62,-0.4 -83.34,2.28 -124.44,9 -14.46,1.9 -28.54,5.98 -42.42,10.4 -9.48,3.54 -19.82,7.12 -26.32,15.34 -3.16,3.74 -2.74,9.74 0.74,13.16 7.16,8.1 17.84,11.66 27.8,14.92 -3.12,0.52 -6.26,0.72 -9.38,1.02 l 3.88,-1.66 c -12,-2.72 -23.94,-6.1 -35.24,-11.04 -5.52,-2.66 -11.48,-5.88 -14.36,-11.56 -2.56,-5.24 2.6,-9.96 6.44,-12.78 13.58,-8.74 29.7,-12.22 45.24,-15.88 15.04,-3.86 30.62,-4.4 45.8,-7.46 z"
       id="path10"
       inkscape:connector-curvature="0"
       style="fill:#f5e5c1" />
    <path
       d="m 501.95,114.25 c -9.14531,0.0266 -18.26,0.18 -27.4,0.5 -38.36,1.64 -76.97,4.67 -114.25,14.25 -10.98,3.2 -22.45,6.36 -31.55,13.6 -3.6,2.88 -7.31,8.23 -3.85,12.65 7,9.3 19.04,12.67 29.6,16.25 41.46,11.66 84.77,14.71 127.65,15.65 50.68,0.72 101.78,-0.27 151.6,-10.55 15.02,-3.38 30.46,-6.85 43.7,-15.05 4.3,-2.76 9.42,-7.77 7.1,-13.35 -3.98,-7.88 -13.01,-11.05 -20.65,-14.25 -25.62,-9.24 -52.83,-12.81 -79.75,-15.85 -27.31499,-2.685 -54.76406,-3.92969 -82.2,-3.85 z m 7.45,2.55 c 14.23094,0.0385 28.4175,1.27875 42.3,4.35 10.68,1.9 18.46,9.93 26,17.05 -4.66,6.24 -12.72,7.35 -19.8,8.95 -24.34,4.34 -49.26,4.59 -73.9,3.35 -13.94,-1.3 -28.23,-2.03 -41.45,-6.95 -2.24,-1.34 -6.22,-2.33 -5.8,-5.65 9.14,-12.5 24.63,-17.92 39.55,-19.3 10.94626,-1.14625 22.03149,-1.82994 33.1,-1.8 z"
       id="path12"
       style="fill:#f5e5c1"
       inkscape:connector-curvature="0" />
    <path
       d="m 474.92,123.26 c 21.88,-2.92 44.18,-2.84 66.06,0.22 6.28,1.08 12.74,2.14 18.48,5.08 1.62,1.1 4.34,2.28 3.56,4.72 -2.1,3.3 -6.12,4.5 -9.62,5.64 -12.8,3.54 -26.14,4.64 -39.36,4.78 -18.26,0.22 -36.88,0.04 -54.54,-5.22 -3.84,-0.92 -6.88,-3.48 -9.44,-6.38 6.8,-6.16 16.16,-7.46 24.86,-8.84 z"
       id="path16"
       inkscape:connector-curvature="0"
       style="fill:#f4722b" />
    <path
       d="m 240.94,203.72 c 4.98,3.2 10.44,6.22 14.24,10.8 -0.42,10.62 1.3,21.06 3.68,31.36 1.42,16.2 8.1,31.32 16.02,45.32 9.36,17.84 22.66,33.12 35,48.92 14.2,15.86 30.42,29.9 47.8,42.16 16.02,8.7 31.14,19.14 45.16,30.8 9.36,11.32 21.92,19.34 31.92,30.02 6.8,8.52 13.74,16.88 20.86,25.12 7.78,11.28 15.1,22.96 20.76,35.46 1.66,3.82 3.46,7.98 2.46,12.24 -2.12,16.06 -11.56,29.72 -19.82,43.2 -5.78,9.86 -14.38,17.58 -21.16,26.7 -8.34,11 -19.62,19.16 -29.78,28.3 -10.98,13.3 -26.18,21.94 -40.12,31.68 -15.1,7.46 -27.94,18.56 -40.48,29.62 -16,13.54 -27.64,31.16 -40.66,47.38 -6.26,7.52 -10.04,16.6 -14.96,24.96 -6.28,11.26 -12.58,23.1 -13.72,36.2 -0.56,4.56 -1.38,9.1 -2.48,13.58 -2.28,9.28 -0.52,18.86 -0.72,28.28 -4.22,2.54 -8.34,5.22 -12.42,7.96 0.54,-11.98 2.18,-23.88 2.68,-35.88 1.62,-14.28 1.68,-28.88 5.74,-42.78 2.84,-9.62 8.9,-17.76 13.54,-26.52 6.84,-13.82 17.62,-25.1 26.82,-37.36 15.32,-20.6 35.32,-37.1 55.96,-52.1 15.1,-8.34 29.8,-17.72 42.84,-29.08 11.76,-13.68 28.02,-22.86 38.3,-37.92 12.18,-13.46 23.02,-28.3 30.28,-45 1.62,-8.2 4.54,-17.58 -0.84,-25.02 -9.02,-18.72 -23.16,-33.94 -36.26,-49.78 -8.96,-9.08 -19.94,-16.02 -28.12,-25.88 -9.06,-9.12 -20.32,-15.62 -30.76,-22.98 -18.42,-9.32 -34.14,-22.98 -49.14,-36.96 -10.4,-9.08 -18.4,-20.44 -27.06,-31.08 -5.56,-7.8 -12.28,-14.78 -17.06,-23.1 -7.28,-14 -16.5,-27.08 -21.52,-42.18 -3.66,-8.9 -3.52,-18.68 -5.76,-27.94 -3.2,-12.62 -1.32,-25.68 -1.22,-38.5 z"
       id="path18"
       inkscape:connector-curvature="0"
       style="fill:#f5e5c1" />
    <path
       d="m 758.86,215.8 c 5.42,-1.9 10.62,-4.4 15.7,-7.1 -0.62,11.16 1.76,22.56 -1.32,33.52 -2.62,9.06 -2.32,18.68 -5.24,27.66 -5.36,17.78 -16.16,33.1 -24.86,49.28 -11.1,14.78 -22.32,29.54 -34.52,43.44 -17.36,16.96 -35.68,33.52 -57.42,44.66 -10.02,7.18 -20.86,13.42 -29.64,22.18 -10.96,13.08 -26.68,21.4 -36.28,35.74 -12.12,13.58 -23.3,28.26 -30.52,45.08 -0.48,8.26 -0.58,17.38 4.24,24.56 6.56,10.02 12.42,20.6 20.64,29.4 7.1,7.64 12.46,16.88 20.72,23.42 7.86,6.86 16.24,13.22 22.98,21.26 9.28,8.82 20.38,15.44 30.84,22.74 9.98,4.96 19.24,11.16 27.64,18.5 25.4,18.54 44.44,43.94 63.06,68.92 3.2,4.94 5.6,10.34 8.64,15.4 13.42,20.42 17.3,45.48 18.14,69.44 1.34,9.34 1,18.78 0.74,28.16 -4.48,-0.74 -8.8,-2.14 -12.98,-3.88 -0.52,-8.84 2.48,-17.66 0.44,-26.42 -3.48,-12.86 -2.7,-26.72 -9.2,-38.72 -8.14,-15.96 -15.8,-32.5 -27.46,-46.26 -10.22,-13.02 -19.84,-26.7 -32.22,-37.8 -9.2,-9.56 -20.14,-17.18 -30.54,-25.34 C 644.06,644.5 628.3,634.1 613.96,622 601.58,607.7 584.68,597.92 573.9,582.12 c -12.08,-13.2 -22.38,-27.92 -30.48,-43.9 -4.4,-8.88 -9.64,-19.08 -5.74,-29.1 5.64,-14 13.8,-26.88 22.6,-39.08 10.06,-10.54 17.62,-23.4 29.1,-32.58 7.48,-6.52 15.34,-12.66 21.74,-20.34 10.18,-9.3 22,-16.58 33.32,-24.42 18.78,-9.68 34.88,-23.72 49.86,-38.44 11.76,-11.74 21.18,-25.54 31.56,-38.44 6.88,-8.26 11,-18.28 16.44,-27.44 6.24,-11.3 12.24,-23.38 12.92,-36.5 0.44,-6.06 2.62,-11.82 3.38,-17.84 0.46,-6.06 -0.2,-12.16 0.26,-18.24 z"
       id="path20"
       inkscape:connector-curvature="0"
       style="fill:#f5e5c1" />
    <path
       d="m 464.06,275.94 c 14.52,-4.38 28.76,-9.94 43.78,-12.46 24.28,2.38 45.24,15.64 67.9,23.4 19.96,11.44 40.72,22.02 58.06,37.36 6.44,4.8 13.1,9.44 18.28,15.7 -5.74,1.28 -11.24,3.36 -16.96,4.6 -13.38,1.38 -26.2,5.72 -39.34,8.4 -25.66,5.08 -51.48,10.58 -77.78,10.48 -23.16,4.48 -46.82,-0.84 -70.06,2.62 10.82,6.74 24.04,4.62 36.1,6.26 19.3,0.9 38.7,0.92 58.02,0.34 21.32,-2.72 42.72,-5.16 63.92,-8.84 16.66,-2.38 33.42,-3.62 49.94,-7.04 -13.82,8.96 -27.48,18.46 -39.34,29.94 -5.74,5.26 -13.16,8 -19.36,12.6 -7.56,5.06 -14.04,11.56 -21.84,16.26 -22.3,15.14 -37.26,38.16 -51.34,60.58 -5.24,8.02 -8.16,17.2 -12.54,25.64 -2.04,4.28 -7.96,4.64 -11.74,2.72 -4.2,-5.92 -3.86,-13.92 -8.34,-19.76 -7.32,-10.88 -13.58,-22.46 -20.58,-33.52 -9.74,-10.54 -15.54,-24.16 -25.98,-34.12 -20.68,-17.54 -40.02,-37.62 -65.32,-48.58 -11.38,-4.34 -20.86,-12.2 -29.96,-20.08 -2.02,-1.5 -2.78,-3.86 -3.56,-6.14 7.94,-4.74 15.16,-10.56 22.82,-15.74 18.04,-10.66 35.82,-21.76 54.62,-31.12 12.7,-8.26 27.44,-12.18 40.6,-19.5 z"
       id="path22"
       inkscape:connector-curvature="0"
       style="fill:#f5e5c1" />
    <path
       d="m 919.1,390.98 c 13.48,-9.58 27.56,-18.24 41.86,-26.54 1.26,9.26 2.18,18.56 1.98,27.92 -21.2,12.72 -40.94,27.64 -61.76,40.96 -16.02,9.88 -32.2,19.52 -47.96,29.82 -5.9,3.8 -11.54,9.86 -19.3,8.36 -4.74,0.5 -8.52,-3.1 -10.2,-7.22 -4.14,-15.62 -5.2,-31.84 -4.94,-47.96 -10.06,5.52 -20.5,10.3 -30.52,15.86 -21.8,12.54 -42.96,26.4 -66.1,36.42 -14.16,6.2 -27.88,13.32 -42.1,19.38 10.52,-5.68 19.6,-13.48 29.44,-20.18 36.82,-26.52 73.78,-52.82 110.78,-79.08 3.36,-2.44 7.44,-4.86 11.74,-3.2 6.48,2.82 10.86,9.48 10.92,16.54 0.34,12.08 1.62,24.12 1.86,36.2 25.24,-15 50.28,-30.38 74.3,-47.28 z"
       id="path24"
       inkscape:connector-curvature="0"
       style="fill:#f4722b" />
    <path
       d="m 205.14,477.3 c 6.62,-4.42 13.52,-9.96 22.02,-9 5.2,9 9.92,18.62 18.08,25.38 -8.18,15.92 -17.02,31.64 -22.58,48.72 -4.84,14 -9.88,28.22 -10.5,43.16 25.02,-14.8 51.62,-26.72 77.02,-40.88 18.84,-9.08 35.28,-23.52 55.86,-28.66 -48.6,30.84 -96.64,62.58 -145.04,93.74 -3.84,2.08 -7.32,6.18 -11.98,5.86 -3.72,-0.12 -2.72,-5.22 -3.26,-7.7 -0.62,-38.64 13.74,-75.46 29.44,-110.1 -28.06,11.3 -52.4,29.7 -79.16,43.54 C 98.84,561.98 62.48,582.44 24.88,600.38 84.8,559.12 145.14,518.46 205.14,477.3 z"
       id="path26"
       inkscape:connector-curvature="0"
       style="fill:#f4722b" />
    <path
       d="m 493.28,549.96 c -0.36,-8.4 9.24,-15.46 17.08,-11.88 9.9,3.2 9.64,19.84 -0.28,22.94 -3.44,0.52 -6.92,0.12 -10.38,0.02 -2.62,-3.34 -6.68,-6.38 -6.42,-11.08 z"
       id="path28"
       inkscape:connector-curvature="0"
       style="fill:#f5e5c1" />
    <path
       d="m 499.96,654.18 c -7.74,-5.28 -5.52,-16.52 1.46,-21.4 7.12,-1.3 16.86,0.52 17.72,9.14 2.8,10.4 -10.92,19.7 -19.18,12.26 z"
       id="path30"
       inkscape:connector-curvature="0"
       style="fill:#f5e5c1" />
    <path
       d="m 395.02,648.66 c 9.46,-4.46 17.78,-11.28 27.94,-14.22 2.68,4.98 5.22,10.12 6.6,15.66 -12.54,3.88 -24.82,8.76 -35.88,15.92 -21.8,11.8 -41.34,27.54 -58.48,45.36 -9.38,11.36 -17.58,23.64 -27.78,34.34 -0.7,1.44 -1.42,2.86 -2.14,4.3 0.1,-3.6 0.52,-7.24 2.12,-10.5 3.76,-8.26 6.28,-17.2 11.68,-24.62 12.86,-18 26.98,-35.76 45.4,-48.36 9.96,-6.3 19.86,-12.82 30.54,-17.88 z"
       id="path32"
       inkscape:connector-curvature="0"
       style="fill:#f5e5c1" />
    <path
       d="m 502.86,757.14 c 3.94,-0.52 8.9,-1.3 12.02,1.78 6.8,4.82 5.72,16.64 -1.62,20.44 -7.72,5.24 -19.14,-2.26 -18.24,-11.26 0.02,-4.72 3.42,-9.4 7.84,-10.96 z"
       id="path34"
       inkscape:connector-curvature="0"
       style="fill:#f5e5c1" />
    <path
       d="m 507.05,806.9 c -16.03125,-0.0184 -32.08501,0.3 -48.1,0.85 -54.64,2.52 -109.51,7.57 -162.65,21.15 -18.7,5.16 -37.6,10.97 -54.2,21.25 -7.76,5.02 -15.86,12.06 -16.7,21.9 0.1,9.48 7.72,16.45 14.9,21.55 15.2,10 32.61,15.82 49.95,20.9 33.86,9.26 68.69,14.52 103.55,18.2 81.82,7.96 164.56,7.44 246.2,-2.6 36.52,-4.98 73.3,-11.15 107.8,-24.55 12.32,-5.3 25.44,-10.99 33.9,-21.85 5.02,-6.1 5.33,-15.63 0.35,-21.85 -7.92,-10.64 -20.37,-16.43 -32.25,-21.55 -31.6,-12.78 -65.36,-18.84 -98.9,-24 -47.65499,-6.55501 -95.75626,-9.34469 -143.85,-9.4 z m -8.7,5.45 c 35.86125,-0.0928 71.73499,0.74501 107.45,4.3 37.2,4.2 75.1,7.53 110.5,20.55 8.42,3.6 18.1,7.16 23,15.4 3.44,5.56 -1.24,11.79 -5.7,15.05 -9.92,7.16 -21.8,10.85 -33.4,14.25 -34.66,9.5 -70.5,13.37 -106.2,16.45 -36,2.48 -72.1,4.4 -108.2,4 -52.82,-1.9 -105.89,-4.33 -157.95,-14.15 -19.22,-4.06 -38.93,-8.12 -56.25,-17.8 -5.62,-3.4 -12.6,-9.09 -10.3,-16.55 4.24,-8.66 13.87,-12.57 22.25,-16.15 31.26,-11.88 64.76,-15.49 97.7,-19.85 27.02,-2.46 54.11,-4.59 81.25,-5.15 11.94499,-0.17 23.89626,-0.31906 35.85,-0.35 z"
       id="path36"
       style="fill:#f5e5c1"
       inkscape:connector-curvature="0" />
    <path
       d="m 443.84,817.84 c 64.02,-2.96 128.32,-1.12 191.94,6.84 25.74,4.56 52.36,7.96 76.12,19.58 5.74,2.96 14.14,8.68 10.7,16.24 -4.92,7.76 -14.26,10.88 -22.38,14.14 -10.62,3.5 -21.34,7.44 -32.58,8.2 9.78,-2.96 19.88,-6.86 27.2,-14.22 5.08,-4.94 3.3,-13.48 -2.22,-17.3 -12.94,-10.08 -29.4,-13.7 -44.84,-18.18 -49.14,-10.22 -99.52,-13.46 -149.66,-12.94 -46.22,-0.44 -92.56,2.9 -138.02,11.36 -16.32,4.18 -33.22,7.86 -47.78,16.68 -5.72,3.52 -12.36,10.5 -8.3,17.6 6.86,9.74 18.92,13.88 29.82,17.3 -12.74,-1.54 -25.02,-5.62 -37.02,-10.06 -6.94,-2.94 -14.74,-6.32 -18.44,-13.32 -2.44,-4.7 1.9,-9.18 5.32,-11.92 8.98,-6.56 19.86,-9.74 30.42,-12.82 15,-3.94 30.22,-7.48 45.74,-8.68 27.7,-5.18 55.9,-6.8 83.98,-8.5 z"
       id="path40"
       inkscape:connector-curvature="0"
       style="fill:#f5e5c1" />
    <path
       d="m 498.65,824.3 c -9.37158,0.0311 -18.74374,0.21125 -28.1,0.5 -38.36,1.62 -76.95,4.65 -114.25,14.25 -10.98,3.2 -22.5,6.34 -31.6,13.6 -3.6,2.9 -7.27,8.25 -3.75,12.65 7,9.28 19.04,12.62 29.6,16.2 41.44,11.64 84.77,14.71 127.65,15.65 50,0.72 100.43,-0.22 149.65,-10.1 14.78,-3.2 29.82,-6.68 43.2,-14 4.72,-2.8 10.51,-6.85 10.05,-13.05 -1.52,-6.16 -7.42,-9.54 -12.6,-12.3 -15.26,-7.36 -32.01,-10.91 -48.55,-14.05 -40.04,-6.9875 -80.68979,-9.48477 -121.3,-9.35 z m 3.4,2.55 c 16.2,0.22 32.7,0.59 48.4,5.05 9.5,2.38 16.27,9.94 23.25,16.3 -4.66,6.3 -12.83,7.4 -19.95,9 -24.3,4.32 -49.17,4.54 -73.75,3.3 -13.46,-1.2 -27.15,-2.08 -40.05,-6.4 -3.32,-0.94 -5.92,-3.28 -7.9,-6 6.66,-7.14 14.49,-13.77 24.15,-16.25 14.88,-4.18 30.47,-4.74 45.85,-5 z"
       id="path42"
       style="fill:#f5e5c1"
       inkscape:connector-curvature="0" />
    <path
       d="m 470.9,833.26 c 22.98,-3.02 46.44,-2.94 69.34,0.76 6.42,1.46 13.78,2.28 18.6,7.22 1.3,3.3 -3.1,5.1 -5.44,6.26 -13.22,4.76 -27.46,5.8 -41.4,6.16 -18.9,0.3 -38.18,0.26 -56.46,-5.16 -3.86,-0.94 -6.92,-3.52 -9.48,-6.42 6.8,-6.14 16.14,-7.46 24.84,-8.82 z"
       id="path46"
       inkscape:connector-curvature="0"
       style="fill:#f4722b" />
  </g>
</svg>
