<?xml version="1.0" encoding="UTF-8" standalone="no"?>
<svg
   xmlns:dc="http://purl.org/dc/elements/1.1/"
   xmlns:cc="http://creativecommons.org/ns#"
   xmlns:rdf="http://www.w3.org/1999/02/22-rdf-syntax-ns#"
   xmlns:svg="http://www.w3.org/2000/svg"
   xmlns="http://www.w3.org/2000/svg"
   xmlns:sodipodi="http://sodipodi.sourceforge.net/DTD/sodipodi-0.dtd"
   xmlns:inkscape="http://www.inkscape.org/namespaces/inkscape"
   width="1280"
   height="1280"
   viewBox="0 0 1024 1024"
   version="1.1"
   id="svg2"
   inkscape:version="0.48.1 "
   sodipodi:docname="iron_man_kills.svg">
  <metadata
     id="metadata46">
    <rdf:RDF>
      <cc:Work
         rdf:about="">
        <dc:format>image/svg+xml</dc:format>
        <dc:type
           rdf:resource="http://purl.org/dc/dcmitype/StillImage" />
      </cc:Work>
    </rdf:RDF>
  </metadata>
  <defs
     id="defs44" />
  <sodipodi:namedview
     pagecolor="#ffffff"
     bordercolor="#666666"
     borderopacity="1"
     objecttolerance="10"
     gridtolerance="10"
     guidetolerance="10"
     inkscape:pageopacity="0"
     inkscape:pageshadow="2"
     inkscape:window-width="1920"
     inkscape:window-height="1018"
     id="namedview42"
     showgrid="false"
     fit-margin-top="0"
     fit-margin-left="0"
     fit-margin-right="0"
     fit-margin-bottom="0"
     inkscape:zoom="0.6609375"
     inkscape:cx="466.00473"
     inkscape:cy="640"
     inkscape:window-x="-8"
     inkscape:window-y="-8"
     inkscape:window-maximized="1"
     inkscape:current-layer="layer1"
     inkscape:snap-page="true" />
  <g
     inkscape:groupmode="layer"
     id="layer1"
     inkscape:label="background">
    <rect
       style="fill:#3e3e3e;fill-opacity:1;fill-rule:nonzero;stroke:none"
       id="rect2996"
       width="1280"
       height="1280"
       x="0"
       y="0"
       transform="scale(0.8,0.8)" />
  </g>
  <g
     inkscape:groupmode="layer"
     id="layer2"
     inkscape:label="foreground">
    <path
       d="m 359.1,55.4 c -1.66414,-0.01 -3.3325,-0.005 -5,0.05 -30.82,-0.84 -60.41,9.29 -89.25,18.95 -35.72,13.02 -65.19,38.14 -90.85,65.5 -26.64,34.26 -37.7,79.25 -34.1,122.15 2.1,15.32 4.84,30.47 9.8,45.15 -14.04,-5.4 -29.32,-7.5 -44.2,-4.9 -11.02,3 -21.63,11.36 -22.95,23.4 -3.26,11.56 0.53,23.22 5.55,33.6 -7.88,-1.16 -16.71,-1.76 -23.35,3.5 -8.72,5.8 -11.91,17.04 -9.85,27 0.96,9.64 9.02,16.3 17,20.6 14.68,0.84 29.48,-0.45 44.2,0.25 4.12,0.36 7.7,3.39 11.9,2.95 3.98,-1.02 7.66,-3.4 11.9,-3.1 74.04,0.1 148.11,-0.04 222.15,0.1 2.96,-0.28 6.51,0.58 8.85,-1.8 5.84,-5.44 11.18,-11.37 16.9,-16.95 16.18,-16.8 35.31,-30.34 54.65,-43.2 28.14,-17.16 60.95,-25.3 93.55,-27.9 19.24,-0.46 38.72,-1.44 57.7,2.3 1.98,-8.1 -0.65,-16.26 -2.55,-24.1 -3,-11.4 -14.31,-18.07 -25.05,-20.85 -18.72,-2.42 -37.97,0.09 -55.35,7.55 5.22,-10.98 7.74,-22.97 11.2,-34.55 4.34,-18.06 9.32,-36.31 8.6,-55.05 0.34,-12.56 0.12,-25.24 -3.8,-37.3 C 523.07,141.03 512.9,125.73 502.7,111.15 493.6,100.23 482.5,90.94 470.2,83.8 446.46,70.98 421.13,59.81 393.95,57.45 382.3125,56.96 370.74899,55.46891 359.1,55.4 z m -50.8,63.65 c 1.83027,-0.0184 3.7025,0.0775 5.55,0.25 9.96,1.24 20.12,1.55 29.7,4.95 15.9,5.48 33.28,8.55 46.5,19.75 10.32,7.14 12.72,20.41 13.8,32.05 2.4,13.52 -1.58,27.09 -6,39.75 -5.2,12.88 -15.29,22.71 -26.45,30.55 -2.64,11.64 1.51,24.06 1.15,36 -1.26,8.86 -8.45,15.19 -16.25,18.65 -6.62,0.52 -12.42,-2.58 -17.9,-5.8 -10.74,3.96 -21.88,-0.45 -30.7,-6.65 -4.76,0.38 -7.39,5.69 -11.45,7.85 -7.62,6.62 -21.15,7.87 -27.35,-1.25 -8.38,-10.26 -4.38,-23.77 -2.2,-35.45 -3.24,-8.3 -11.89,-12.48 -17.75,-18.7 -6.76,-7.1 -14.67,-13.4 -19.55,-22 -7,-21.92 -6.04,-48.16 9.1,-66.6 10.08,-9.2 19.47,-19.8 32.55,-24.8 12.07499,-3.955 24.43808,-8.42121 37.25,-8.55 z"
       id="path6"
       style="fill:#f5e5c1"
       inkscape:connector-curvature="0" />
    <path
       d="m 782.58,132.48 c 11.22,-22.72 42.16,-34.3 64.82,-21.9 11.26,5.7 18.66,16.4 24.38,27.28 1.9,3.46 1.26,7.58 1.56,11.36 18.22,5 36.22,12.42 50.62,24.92 3.14,2.38 3.4,6.38 3.96,9.96 -5.74,-3.3 -11.3,-7.14 -17.7,-9.04 -11.36,-3.82 -23.64,-1.8 -35.14,-4.98 -13.8,-3.82 -28.26,-0.38 -41.54,3.86 -10.82,5.36 -21.44,11.08 -31.9,17.06 9.62,-1.54 19.86,-3 29.22,0.62 9.76,3.82 20.5,4.74 29.88,9.62 7.26,3.76 11.74,10.9 17.38,16.56 8,8.18 15.42,16.9 21.64,26.52 -12.7,-8.48 -27.92,-11.36 -42.12,-16.3 -5.36,-1.66 -11.36,-4.02 -16.8,-1.28 -6.1,2.74 -11.66,6.94 -15.74,12.24 -1.66,3.82 2.26,6.86 4.2,9.7 9.16,10.1 18.74,19.86 27.32,30.46 11.38,15.16 19.44,32.46 30.26,47.98 9.1,13.4 16.26,27.96 24.2,42.06 10.52,16.54 18.56,34.44 27.46,51.84 9.04,20.66 13.08,43.64 9.68,66.04 10.54,1.98 19.72,-4.32 29.82,-5.78 7.96,-1.14 15.38,-4.52 23.18,-6.4 -1.54,80.34 -0.54,160.72 -0.82,241.06 -0.42,5.78 1.1,12 -0.98,17.48 -18.18,14.54 -41.98,18.18 -63.52,25.4 -9.56,3.68 -20.08,2.98 -29.86,5.8 -12.9,3.84 -26.5,1.78 -39.48,-0.36 -7.68,-3.24 -15.76,-5.18 -23.72,-7.54 -18.58,-15.06 -41.46,-27.82 -50.64,-51.34 -4.1,-0.36 -8.2,-0.68 -12.3,-0.96 -7.28,6.52 -14.68,12.9 -21.68,19.7 -7.16,7.32 -17.18,10.44 -25.64,15.88 -8.44,5.08 -15.14,13.22 -25.04,15.66 -8.62,1.98 -16.02,6.88 -23.94,10.52 -12.86,3.88 -26.28,5.48 -39.32,8.66 -11.04,3.08 -21.46,-2.62 -32.16,-4.26 -5.24,-0.8 -9.44,-4.26 -13.8,-6.96 -5.16,-3.36 -10.72,-6.1 -15.58,-9.88 -7.98,-6.16 -14.3,-14.06 -21.78,-20.74 -14.56,-14.46 -21.24,-34.42 -27.52,-53.46 -5.22,13.14 -10.8,26.68 -21.44,36.46 -9.96,12.02 -24.6,18.12 -37.24,26.7 -13.36,5.84 -27.06,11.12 -41.04,15.34 -7.08,2.48 -13.98,5.86 -21.56,6.54 -10.94,1.06 -21.14,6.24 -32.22,6.24 -9.3,-0.2 -18.92,0.54 -27.72,-3.08 -8.14,-3.44 -18.44,-2.06 -24.64,-9.32 -12.4,-8.74 -25.56,-16.9 -35.52,-28.56 -6.94,-8.52 -9.78,-19.32 -14,-29.26 -2.9,6.5 -6.42,12.86 -11.96,17.48 -10.12,8.6 -18.06,19.94 -30.14,26.02 -8.92,4.76 -17.36,10.38 -24.9,17.16 -8.58,7.84 -20.94,8.68 -30.24,15.4 -8.7,6.28 -20.26,6.82 -30.36,4.2 -9.24,-2.24 -18.84,-2.06 -28.12,-4.1 C 106.62,772.98 92,765.88 77.6,758.7 69.88,754.64 60.58,752.26 55.16,744.92 40.68,725.32 29.88,703.16 22.5,679.98 c 10.66,6.74 15.48,18.68 24.16,27.36 7.7,9.96 18.94,16.4 30.18,21.62 11.36,3.2 21.46,9.66 33.08,12.12 10.28,3.84 21.36,1.54 31.94,3.66 17.42,2.66 35.04,-0.24 51.8,-5.04 8.04,-2.7 15.1,-7.46 22.4,-11.66 10.9,-6.04 21.54,-12.76 31.08,-20.84 7.54,-6.12 11.68,-15.1 18.04,-22.26 4.9,-5.72 6.98,-13.02 10.04,-19.74 3,-4.04 9.96,-2.68 12.04,1.72 7.2,11.98 14.08,24.2 22.44,35.42 7.26,6.9 15.64,14.46 26.28,14.66 15.32,0.16 28.86,-8.08 41.96,-15.02 22.8,-11.66 45.48,-23.86 69.66,-32.48 18.08,-6.66 34.6,-17.02 52.72,-23.5 8.48,-0.06 17.02,2 25.48,3.08 20.9,4.44 42.48,-0.04 62.24,-7.2 19.38,-5.44 41.38,-4.9 57.84,-18.1 4.3,-3.04 5.12,-10.66 11.12,-10.8 5.02,-12.1 7.46,-25.1 12.7,-37.1 5.76,-8.58 17.04,-7.28 25.96,-8.9 9.96,-3.06 19.72,-6.84 28.94,-11.7 12.46,-3.66 23.68,-10.58 36.58,-12.84 11.18,-5.14 23.68,-5.86 34.92,-10.82 18.6,-2.04 35.48,-10.82 53.5,-15.2 3.56,-1.12 7,-2.62 10.46,-4 -2.6,-5.92 -6.18,-11.36 -8.36,-17.44 -3.48,-14.06 -4.4,-28.54 -5.04,-42.94 -0.94,-20.08 -5.86,-39.86 -5.12,-60.02 0.18,-10.08 -2.1,-19.98 -2.48,-30.04 -0.94,-19.94 -7.14,-39.08 -13.84,-57.72 -5.84,-14.94 -10.14,-30.84 -19.7,-43.98 -9.56,1.32 -15.56,10.8 -22.4,16.88 -8.92,7.66 -11.82,19.4 -15.98,29.88 -4.48,14.02 -12.3,27.08 -13.2,42.06 -11.84,-14.26 -13.54,-33.4 -14.54,-51.18 -0.96,-20.48 -2.56,-41.64 3.72,-61.52 -21.08,5.9 -45.64,8.12 -60.82,25.78 -7.14,10.44 -18.22,17.44 -24.76,28.34 -0.64,-8.84 -2.68,-17.66 -1.06,-26.52 0.82,-14.54 2.08,-29.42 8.2,-42.84 6.92,-15.36 14.48,-31.98 29.2,-41.38 14.02,-9.28 33.24,-10.28 47.84,-1.72 8.64,4.28 15.72,11.6 25.22,14.06 0.5,-20.74 6.02,-41.3 15.64,-59.64 z"
       id="path8"
       inkscape:connector-curvature="0"
       style="fill:#f5e5c1" />
    <path
       style="fill:#f4722b"
       d="m 330.05,137.8 c -14.8,0.02 -29.93,0.99 -43.95,6.15 -18.1,6.3 -36.34,17.24 -45.3,34.8 -6.44,11.48 -0.64,24.4 2.9,35.8 4.04,5.78 8.65,11.22 13.25,16.6 6.22,5.4 14.47,7.59 22.15,10.15 1.7,11.92 -1.24,23.8 -4.1,35.3 6.58,2.44 13.51,3.74 20.55,3.8 2.76,-5.06 2.33,-17.76 10.75,-14.9 0.66,4.7 1.06,9.45 1.8,14.15 7.3,-0.04 14.56,-0.94 21.7,-2.5 1.28,-5.22 -0.94,-12.32 3.5,-16.1 5.62,1.96 4.96,8.77 6.7,13.45 6.12,-1.72 12.16,-3.8 18,-6.3 -1.28,-7.44 -5.26,-15.23 -2.3,-22.75 4,-11.2 16.58,-15.37 23.3,-24.55 8.06,-11.82 12.84,-26.49 10.1,-40.85 -0.56,-11.84 -11.22,-19.03 -19.8,-25.45 -11.38,-8.82 -25.05,-14.6 -39.25,-16.8 z m 23.7,36.35 c 4.3525,0.1425 8.62,1.04 12.35,3.45 5.18,2.78 7.76,8.75 8.5,14.35 0.42,12.84 -12.94,24.39 -25.7,20.85 -8.32,-1.2 -11.96,-9.36 -16.4,-15.4 -3,-3.76 -4.16,-8.66 -3.3,-13.4 2.14,-4.58 7.04,-7.05 11.6,-8.65 4.14,-0.7 8.5975,-1.3425 12.95,-1.2 z m -67.95,3.65 c 3.07,-0.007 6.11,0.48 9,1.6 6.18,2.74 9.1,10.38 6.8,16.7 -3.34,10.86 -8.72,22.93 -19.8,27.75 -7.8,0.28 -14.13,-5.27 -18.85,-10.85 -3.7,-4.66 -7.1,-10.85 -5.2,-16.95 1.78,-9.1 10.65,-14.57 18.95,-16.95 2.95,-0.77 6.03,-1.2925 9.1,-1.3 z m 39.85,44.7 c 5.42622,-0.2105 9.80626,4.93125 13.2,8.7 3.4,3.2 2.39,8.1 -0.55,11.2 -2.92,3.68 -7.23,10.1 -12.45,6 -2.24,-5.9 -3.08,-12.23 -4,-18.45 -0.56,-2.54 -0.62,-6.81 2.7,-7.35 0.37125,-0.0637 0.73826,-0.086 1.1,-0.1 z m -17.05,2.45 c 1.30667,-0.10141 2.78499,0.3 4.45,1.35 2.18,7.42 1.13,15.28 1.35,22.9 -6.76,0.82 -10.78,-5.49 -15.5,-9.15 1.49499,-4.98875 4.03776,-14.66054 9.7,-15.1 z"
       id="path12"
       inkscape:connector-curvature="0" />
    <path
       style="fill:#f4722b"
       d="m 567.25,355.25 c -7.08496,0.15664 -14.2375,1.27499 -21.3,1.5 -32.38,0.98 -63.93,11.64 -91.85,27.7 -9.56,5.26 -17.14,13.19 -25.5,20.05 -11.64,8.7 -18.55,22.06 -24.45,35 -5.44,17.82 2.11,35.7 6.65,52.8 2.28,12 13.08,19.22 19.4,29 7.62,12 21.52,16.83 33.9,22.25 4.82,2.38 12.3,1.36 14.6,7.2 2.18,11.04 -0.5,22.09 -1.7,33.05 -0.52,9.82 -4.63,18.94 -6.05,28.6 11.66,6.16 25.09,6.66 37.85,8.6 4.5,-8.26 6.58,-17.46 10.1,-26.1 1.46,-5.38 10.9,-4.62 11,1.1 1.96,7.32 -2.11,17.79 5.15,22.75 12.58,1.08 24.92,-2.4 37.2,-4.6 0.48,-0.54 1.44,-1.63 1.9,-2.15 1.56,-9.16 -0.84,-18.98 3.4,-27.6 2.78,1.76 6.97,2.28 8.55,5.5 1.88,6.46 2.93,13.16 4.95,19.6 11.68,-2.84 22.81,-7.44 34.05,-11.6 -0.48,-8.16 -2.69,-16.03 -4.85,-23.85 -2.56,-8.16 0.3,-16.68 3.7,-24.1 4.6,-9.04 13.42,-14.68 20.9,-21.1 10.32,-9.12 22.03,-17.89 27.25,-31.15 9.2,-18.04 15,-38.46 11.9,-58.8 -1.48,-8.1 -1.45,-17.19 -6.95,-23.85 -9.48,-11.86 -21.03,-21.99 -33.85,-30.15 -9.24,-6.12 -18,-13.36 -28.6,-17.1 -11.48,-4.06 -22.84,-8.58 -34.7,-11.4 -4.2,-1.00501 -8.39902,-1.24398 -12.65,-1.15 z m 47.8,69.25 c 8.53571,-0.0158 16.89374,1.3625 24.15,6.2 9.38,4.86 13.69,15.43 15.15,25.35 0.38,12.96 -7.06,25.26 -17.4,32.7 -12.2,8.34 -29.2,7.79 -41.3,-0.45 -6.52,-4.42 -8.72,-12.45 -13.8,-18.15 -5.32,-6.2 -9.71,-13.76 -9.35,-22.2 -1.34,-12.7 12.94,-18.53 22.8,-21.85 6.3525,-0.70875 13.1111,-1.58773 19.75,-1.6 z m -124.9,6.85 c 5.13,-0.17499 10.25,0.33 15.2,1.85 8.86,2.64 15.94,11.35 15.7,20.75 0.06,13.8 -7.13,25.98 -13.35,37.8 -5.08,10.06 -14.14,17.87 -24.1,22.85 -11.88,-0.26 -22,-7.94 -29.9,-16.2 -8.28,-8.54 -15.35,-20.07 -12.95,-32.45 1.94,-17.38 18.85,-27.8 34.15,-32.4 4.95,-1.18 10.12,-2.02501 15.25,-2.2 z m 76,81.6 c 1.24656,-0.0363 2.51,0.26499 3.6,0.9 8.92,4.66 17.09,11.41 21.95,20.35 2.28,3.74 0.25,8.2 -1.85,11.5 -3.44,5.22 -7.46,10.07 -12.1,14.25 -2.74,2.84 -6.96,1.1 -10.4,1.2 -2.4,-4.72 -4.24,-9.74 -4.9,-15 -1.24,-8.76 -3.86,-17.35 -3.7,-26.25 -0.10499,-3.94501 3.66032,-6.84125 7.4,-6.95 z m -32.75,5.55 c 2.3825,-0.008 4.89,0.58 7.1,0.8 4.64,13.28 2.28,27.8 2.2,41.6 -3.2,-0.4 -7.18,0.95 -9.6,-1.75 -5.24,-5.1 -11.27,-9.31 -16.15,-14.75 3.2,-7.78 4.74,-16.56 10.2,-23.2 1.62,-2.09 3.8675,-2.6925 6.25,-2.7 z"
       id="path22"
       inkscape:connector-curvature="0" />
    <path
       d="m 793.25,799 c -13.87,-0.1025 -27.73,2.2 -40.6,7.5 -11.48,3.9 -21.69,12.2 -27.15,23.1 -3.04,9.06 -3.55,18.78 -4.85,28.2 1.92,7.44 4.72,14.64 6.7,22.1 3.16,10.48 13.82,15.94 20.1,24.1 -1,8.7 -6.55,15.7 -10.35,23.3 -2.28,4.6 -5.4,8.76 -8.7,12.7 5.88,5.08 12.35,9.67 19.65,12.45 5.5,-2.42 8.29,-8.23 12.45,-12.25 2.46,-0.34 5.46,0.08 7,2.3 -0.94,5.24 -4.13,9.94 -4.25,15.4 7.96,2.9 16.24,4.8 24.6,6.3 3.16,-5.34 5.57,-11.29 10.25,-15.55 0.86,1 2.59,3.05 3.45,4.05 -0.42,4.46 -0.87,8.89 -1.35,13.35 7.18,2.3 14.77,2.31 22.25,2.15 1.38,-5.4 2.35,-10.9 3.25,-16.4 0.42,-6.74 5.79,-11.59 10.55,-15.75 9.46,-4.08 19.65,-6.38 28.95,-10.9 10.34,-6.76 19.07,-15.91 25.65,-26.35 4.14,-8.28 5.25,-17.75 5.95,-26.85 -3.58,-12.58 -11.05,-23.51 -18.25,-34.25 -5.32,-8.06 -13.15,-13.86 -20.25,-20.2 -6.8,-6.16 -15.79,-8.61 -24.25,-11.45 -13.03,-4.41 -26.93,-6.9475 -40.8,-7.05 z M 767,834.15 c 8.44219,-0.28219 17.07,2.02501 23.85,7.05 7.78,5.54 6.95,17.92 0.35,24.1 -9.08,8.96 -18.88,19.68 -32.6,20 -9.54,-3.98 -14.41,-14.24 -16.45,-23.8 -0.78,-4.8 -2.55,-10.44 0.75,-14.7 3.56,-5.66 9.38,-9.7 15.8,-11.5 2.70501,-0.67 5.48594,-1.05594 8.3,-1.15 z m 73.75,24.3 c 11.43282,-0.0752 23.9875,4.4 30.85,13.85 4.92,5.84 3.72,14.35 1.8,21.15 -7.02,12.38 -25.62,17.67 -37.1,8.15 -8.44,-5.98 -8.5,-16.97 -11.3,-25.95 -2.06,-8.58 4.31,-17.42 13.45,-17.1 0.75,-0.045 1.53781,-0.095 2.3,-0.1 z m -54.6,39 c 2.5,0.88 4.55,2.61 6.75,4.05 -2.92,8.94 -6.02,17.9 -10.1,26.4 -7.34,-2.42 -8.24,-10.8 -12.6,-16.2 3.34,-6.36 8.59,-12.71 15.95,-14.25 z m 20.45,4.75 c 0.38824,-0.006 0.78501,0.03 1.15,0.05 7.36,5.08 9.73,14.15 11.75,22.35 -4.94,4.82 -10.83,9.27 -17.65,10.85 -3.92,0.38 -5.92,-4.16 -5.5,-7.4 0.78,-7.38 1.88,-14.78 4,-21.9 0.4725,-3.0975 3.5323,-3.90926 6.25,-3.95 z"
       id="path32"
       style="fill:#f4722b"
       inkscape:connector-curvature="0" />
  </g>
</svg>
