<?xml version="1.0" encoding="UTF-8" standalone="no"?>
<svg
   xmlns:dc="http://purl.org/dc/elements/1.1/"
   xmlns:cc="http://creativecommons.org/ns#"
   xmlns:rdf="http://www.w3.org/1999/02/22-rdf-syntax-ns#"
   xmlns:svg="http://www.w3.org/2000/svg"
   xmlns="http://www.w3.org/2000/svg"
   xmlns:sodipodi="http://sodipodi.sourceforge.net/DTD/sodipodi-0.dtd"
   xmlns:inkscape="http://www.inkscape.org/namespaces/inkscape"
   width="1280"
   height="1280"
   viewBox="0 0 1024 1024"
   version="1.1"
   id="svg2"
   inkscape:version="0.48.1 "
   sodipodi:docname="kill_stunned.svg">
  <metadata
     id="metadata102">
    <rdf:RDF>
      <cc:Work
         rdf:about="">
        <dc:format>image/svg+xml</dc:format>
        <dc:type
           rdf:resource="http://purl.org/dc/dcmitype/StillImage" />
      </cc:Work>
    </rdf:RDF>
  </metadata>
  <defs
     id="defs100" />
  <sodipodi:namedview
     pagecolor="#ffffff"
     bordercolor="#666666"
     borderopacity="1"
     objecttolerance="10"
     gridtolerance="10"
     guidetolerance="10"
     inkscape:pageopacity="0"
     inkscape:pageshadow="2"
     inkscape:window-width="1920"
     inkscape:window-height="1018"
     id="namedview98"
     showgrid="false"
     inkscape:snap-page="true"
     fit-margin-top="0"
     fit-margin-left="0"
     fit-margin-right="0"
     fit-margin-bottom="0"
     inkscape:zoom="0.6609375"
     inkscape:cx="640"
     inkscape:cy="640"
     inkscape:window-x="-8"
     inkscape:window-y="-8"
     inkscape:window-maximized="1"
     inkscape:current-layer="svg2" />
  <rect
     style="fill:#3e3e3e;fill-opacity:1;stroke:none"
     id="rect3087"
     width="1024"
     height="1024"
     x="0"
     y="0" />
  <path
     d="m 232.12,50.4 c 39.82,-4.4 79.92,-3.62 119.92,-3.24 8.66,0.28 17.24,1.7 25.92,1.6 41.04,1.82 81.72,7.88 122.5,12.6 36.12,5.42 71.9,12.88 107.64,20.38 29.76,5.02 58.52,14.52 87.8,21.62 14.06,2.78 27.56,7.76 41.26,11.9 12,2.4 18.24,13.8 25.92,22.12 -1.8,4.86 -3.52,9.76 -5.16,14.68 -32.98,-10.02 -66.16,-19.4 -99.42,-28.42 -31.62,-6.1 -62.58,-15.12 -94.3,-20.74 -56.4,-9.68 -112.98,-18.92 -170.14,-22.48 -38.58,-3.4 -77.34,-1.4 -116,-1.9 -31.6,1.74 -63.38,4.44 -94.22,11.98 -24.56,6.4 -50.04,12.98 -70.4,28.9 -1.56,-4.98 -2.78,-10.48 -6.74,-14.22 -7.9,-6.94 -21.94,-4.7 -26.86,4.74 -5.58,10.02 -11.9,19.68 -19.4,28.38 6.2,-24.42 24.98,-43.5 46.5,-55.46 21.14,-9.9 42.92,-18.98 65.94,-23.48 19.76,-2.84 39.3,-7.34 59.24,-8.96 z"
     id="path6"
     inkscape:connector-curvature="0"
     style="fill:#f4722b" />
  <path
     d="m 792.96,99.02 c 6.48,-13.46 8.82,-28.7 16.04,-41.76 4.32,15.36 8.2,30.86 13.18,46.02 32.06,5.62 64.44,9.64 96.36,16.02 -24.78,14.54 -48.88,30.18 -73.62,44.78 4.38,21.42 11.24,42.26 15.34,63.74 -14.28,-15.5 -28.44,-31.12 -42.56,-46.76 -22.48,13.42 -44.4,27.76 -67.08,40.82 10.58,-29.26 20.44,-58.78 30.82,-88.1 -11.5,-15.02 -25.16,-28.22 -37.36,-42.68 16.34,2.28 32.7,4.68 48.88,7.92 z"
     id="path8"
     inkscape:connector-curvature="0"
     style="fill:#f4722b" />
  <path
     d="m 95.1,117.08 c 3.22,7.84 2.68,16.52 3.9,24.78 1.76,11.5 1.92,23.2 4.7,34.54 14.34,2.48 28.56,5.56 42.9,8.04 -3.42,2.68 -7.76,3.36 -11.8,4.62 -9.94,2.9 -19.7,6.42 -29.8,8.76 2.9,18.02 4.76,36.18 6.54,54.32 -15.7,-15.08 -31.18,-30.38 -47.04,-45.3 -12.46,3.6 -24.8,7.6 -37.26,11.2 5.96,-9.92 12.98,-19.14 19.74,-28.52 -7.36,-7.7 -15.52,-14.58 -22.74,-22.4 10.8,1.86 21.72,3.1 32.36,5.74 13.34,-18.22 26.74,-36.5 38.5,-55.78 z"
     id="path10"
     inkscape:connector-curvature="0"
     style="fill:#f4722b" />
  <path
     d="m 863.3,172.1 c 4.06,-2.06 7.94,-4.7 12.4,-5.8 9.48,2.32 18.06,7.24 26.96,11.16 42.28,19.5 83.56,41.7 121.34,69.02 l 0,32.98 c -11.68,-6.5 -22.1,-14.9 -33.18,-22.28 -21.16,-13.28 -42.6,-26.14 -65.14,-36.98 -17.88,-10.18 -37.48,-16.92 -55.6,-26.52 -4,-6.32 -4.44,-14.48 -6.78,-21.58 z"
     id="path12"
     inkscape:connector-curvature="0"
     style="fill:#f4722b" />
  <path
     d="m 532.06,181.28 c 14.02,-2.48 27.8,-6.84 41.96,-8 45.36,6.38 90.74,12.8 136.06,19.52 10.2,2.7 21.24,3.72 30.42,9.28 -2.74,8.68 -9.26,18.22 -3.98,27.28 5.92,10.8 20.9,9.28 29.78,3.16 9.06,9.94 19.84,18.52 27.58,29.56 12.16,29.7 26,58.82 34.66,89.82 1.34,4.66 0.88,9.56 0.4,14.3 -2.7,18.94 -5.8,37.82 -8.24,56.8 -9.72,2.18 -19.74,1.94 -29.52,3.62 3.18,-19.5 6.04,-39.06 9.16,-58.58 -2.7,-13.28 -8.38,-25.82 -11.88,-38.94 -7.66,-20.62 -16.86,-40.66 -24.92,-61.14 -2.52,-7.82 -9.4,-12.82 -14.72,-18.64 -7.12,-6.96 -13.62,-14.56 -21.08,-21.12 -8.92,-4.98 -18.92,-7.7 -28.28,-11.78 -15.42,-7.36 -32.68,-8.64 -49.08,-12.7 -19.54,-3.18 -38.64,-9.12 -58.42,-10.7 -12.74,1.06 -25.32,3.56 -38,5.24 -15.6,2 -30.34,7.78 -45.4,12.06 -3.5,0.76 -6.32,2.92 -8.6,5.58 -19,21.36 -37.94,42.76 -57.08,63.98 3.14,2.02 6.26,4.26 7.98,7.72 7.1,12.14 14.96,23.88 21.76,36.18 0.94,16.58 3.06,33.1 2.96,49.74 -7.1,-1.66 -14.12,-3.62 -21.02,-5.94 0.78,-22.4 -0.2,-46.32 -12.06,-66.06 -4.6,-7.8 -13.46,-11.4 -21.94,-13.12 10.6,22.16 11.42,47.28 9.84,71.36 -2.7,-0.74 -5.4,-1.48 -8.08,-2.22 0.44,-15.84 0.36,-32 -4.52,-47.24 -3.42,-16.14 -9.24,-33.12 -22.08,-44.2 -10.68,-3.48 -22.78,-6.92 -33.82,-2.82 -7.04,2.3 -15.04,2.86 -20.82,7.94 -6.58,5.38 -13.12,10.76 -19.74,16.1 -8.26,6.64 -12.64,16.64 -19.78,24.28 -3.14,1.84 -6.38,-2.12 -9.42,-2.94 14.82,-20.36 32.64,-39.3 55.36,-50.78 11.4,-5.64 24.18,-7.08 36.64,-8.36 11.58,3.42 21.22,11.22 32.22,15.94 3.24,1.6 5.42,-1.64 7.46,-3.52 18.94,-19.74 37.92,-39.46 57.18,-58.88 5.8,-6 13.74,-9.08 20.72,-13.46 9.04,-5.84 20.2,-5.74 30.34,-8.32 z"
     id="path14"
     inkscape:connector-curvature="0"
     style="fill:#f5e5c1" />
  <path
     d="m 326.02,192.56 c 21.28,-2.42 42.66,-2.4 63.94,-4.46 28.68,-0.4 57.38,-0.12 86.06,0.16 -9.54,10.34 -18.6,21.24 -28.8,30.9 -15.68,0.76 -31.44,0.12 -47.14,0.38 -34.84,1.78 -69.74,3.68 -104.26,9.12 -36.36,3.42 -71.82,13.16 -105.68,26.64 -10.2,-7.12 -21.34,-12.96 -30.58,-21.4 14.8,-8 30.32,-14.6 46.24,-20.04 39.46,-10.04 79.58,-18.12 120.22,-21.3 z"
     id="path16"
     inkscape:connector-curvature="0"
     style="fill:#f4722b" />
  <path
     d="m 124.12,217.44 c 25.8,23.82 55,43.8 85.64,60.88 60.22,34.84 125.38,60 190.96,82.68 29.56,8.5 58.46,19.36 88.58,25.84 23.44,6.22 46.82,12.64 70.54,17.74 44.08,8.02 87.84,18.52 132.5,23.02 31.86,3.7 63.7,7.96 95.78,9.4 11.52,0.94 23.12,0.54 34.64,1.78 2.22,5.38 5.56,11.08 11.5,12.86 9.22,2.64 18.36,5.6 27.52,8.48 1.02,3.6 2.04,7.2 3.06,10.8 -9.32,0.18 -18.7,0.8 -28,-0.3 -12.48,-2.1 -25.22,-0.3 -37.74,-2.18 -69.1,-2.58 -137.46,-14.26 -205.48,-26.06 -38.96,-8.9 -78.08,-17.22 -116.64,-27.76 -23.78,-7.8 -48.32,-13.14 -71.86,-21.7 -13.68,-4.24 -26.94,-9.76 -40.74,-13.58 -19.4,-7 -38.32,-15.28 -57.68,-22.36 -33.94,-14.4 -67.36,-30.08 -99.84,-47.56 -27.4,-16.18 -55.12,-32.32 -79.32,-53.16 0.16,-13 -1.62,-25.96 -3.42,-38.82 z"
     id="path18"
     inkscape:connector-curvature="0"
     style="fill:#f4722b" />
  <path
     d="m 800.46,235.84 c 25.4,5.86 49.88,15.16 74.62,23.26 42,16.88 85.76,34.76 117.36,68.4 8.16,7.82 12.7,18.3 17.98,28.08 2.72,4.34 2.26,9.62 2.46,14.54 -0.1,7.08 0.72,14.82 -3.76,20.86 -6.32,11.34 -14.28,25.8 -28.9,26.5 -8.02,1.1 -15.98,2.5 -23.9,4.16 6.84,-10.62 13.7,-21.86 14.52,-34.8 3.94,-4.84 9.08,-9.16 10.32,-15.64 3.2,-12.1 -6.06,-22.58 -13.88,-30.58 C 931.7,310.04 886.66,294 843,278.78 c -7.94,-3.16 -16.46,-4.52 -24.28,-7.86 -6.96,-11.18 -11.7,-23.64 -18.26,-35.08 z"
     id="path20"
     inkscape:connector-curvature="0"
     style="fill:#f4722b" />
  <path
     d="m 125.04,268 c 9.62,6.24 18.5,13.56 28.22,19.7 -2.14,13.7 7.54,25.68 17.6,33.72 10.18,8.64 21.28,16.2 33.12,22.36 16.28,8.14 32.32,16.98 49.72,22.56 30.54,13.56 63.16,21.2 95.1,30.66 16.38,3.86 32.6,8.66 49.3,11.14 16.02,2.64 31.72,6.92 47.76,9.36 21.62,3.14 42.2,10.84 63.48,15.56 38.2,7.94 75.78,19.1 114.54,24.2 21.28,3.9 42.66,7.16 64.04,10.38 7.02,0.88 14.1,1.56 20.92,3.54 -20.26,-0.3 -40.64,1.18 -60.78,-1.56 -68.54,-2.44 -136.86,-10.12 -204.38,-22.22 -36.44,-5.04 -72.04,-14.62 -107.74,-23.34 -25.26,-6.04 -49.62,-15.18 -74.24,-23.38 -18.52,-6.16 -36,-14.94 -53.9,-22.66 -21.04,-11.44 -42.44,-23.1 -59.56,-40.16 -14.02,-13.44 -27.3,-31.34 -25.86,-51.78 -0.14,-6.14 0.26,-12.36 2.66,-18.08 z"
     id="path22"
     inkscape:connector-curvature="0"
     style="fill:#f4722b" />
  <path
     d="m 329.2,291.32 c 10.72,-7.6 20.78,-18.2 34.7,-19.02 7.74,0.5 17.06,0.84 22.2,7.6 9.8,10.24 15.8,23.34 21.74,36.02 2.98,12.5 5.82,25.26 5.42,38.18 -21.58,-4.64 -41.5,-14.74 -62.5,-21.36 -7.32,-2.34 -14.46,-5.26 -21.46,-8.46 9.76,-8.14 18.18,-18.36 30.26,-23.16 7.4,-4.76 15.78,-7.04 24.5,-7.54 -4.4,-9.36 -17.2,-15.7 -26.72,-10.06 -16.06,8.42 -28.94,21.66 -39.34,36.34 -2.72,-1.16 -5.44,-2.3 -8.02,-3.76 5.82,-8.66 12,-17.24 19.22,-24.78 z"
     id="path24"
     inkscape:connector-curvature="0"
     style="fill:#f5e5c1" />
  <path
     d="m 566.34,290.08 c 18.06,-7.88 37.9,-11.38 57.58,-11 13.84,-0.9 27.14,3.54 40.54,6.32 7.66,1.92 16,2.64 22.54,7.5 9.42,6.6 18.86,13.18 28.36,19.68 11.24,7.3 18.8,18.7 27.82,28.36 4.48,5.3 10.56,9.96 12.06,17.1 3.28,12.9 8.24,25.32 11.32,38.28 0.94,9.76 2.42,19.48 2.86,29.3 -4.82,-0.28 -9.64,-0.48 -14.46,-0.64 -0.42,-33.38 -10.54,-67.74 -33.12,-92.92 -23.8,-28 -61.48,-41.86 -97.72,-40.84 -53.9,1.82 -103.92,38.32 -124.18,87.96 -5,-0.94 -9.94,-2.1 -14.88,-3.3 14.04,-37.96 43.9,-70.02 81.28,-85.8 z"
     id="path26"
     inkscape:connector-curvature="0"
     style="fill:#f5e5c1" />
  <path
     d="m 597.8,307.08 c 24.44,-4.16 50.2,0.98 71.56,13.46 35.58,20.96 61.1,59.78 62.42,101.5 -11.36,-0.42 -22.52,-2.76 -33.84,-3.6 -47.18,-4.5 -93.38,-15.52 -139.9,-24.12 -16.74,-3.54 -33.22,-8.1 -49.82,-12.18 1.24,-7.02 5.06,-13.12 8.52,-19.2 17.22,-29.14 47.42,-50.76 81.06,-55.86 z"
     id="path28"
     inkscape:connector-curvature="0"
     style="fill:#f5e5c1" />
  <path
     d="m 264.8,360.48 c 1.5,-3.16 3,-6.3 4.5,-9.44 2.82,1.24 5.66,2.5 8.48,3.76 -0.9,3.1 -1.86,6.18 -2.82,9.28 -3.42,-1.12 -6.8,-2.36 -10.16,-3.6 z"
     id="path30"
     inkscape:connector-curvature="0"
     style="fill:#f5e5c1" />
  <path
     d="m 285.32,358.66 c 2.58,0.94 5.14,1.9 7.72,2.84 -0.92,2.66 -1.86,5.3 -2.74,7.96 -2.68,-0.72 -5.36,-1.48 -8.02,-2.24 0.98,-2.86 2.04,-5.7 3.04,-8.56 z"
     id="path32"
     inkscape:connector-curvature="0"
     style="fill:#f5e5c1" />
  <path
     d="m 302.24,373.44 c 1.14,-2.22 2.28,-4.44 3.42,-6.66 24.14,9.06 47.54,20.52 72.78,26.38 -11.76,-0.62 -23.04,-4.44 -34.34,-7.44 -13.9,-4.3 -27.98,-7.92 -41.86,-12.28 z"
     id="path34"
     inkscape:connector-curvature="0"
     style="fill:#f5e5c1" />
  <path
     d="m 866.06,391.88 c 7.8,7.9 15.88,15.54 23.7,23.42 21.24,-8.04 42.82,-15.12 63.68,-24.1 -7.62,16.62 -17.46,32.14 -25.46,48.6 -0.62,2.02 -2.86,4.86 -0.54,6.64 9.72,10.6 20.34,20.34 29.92,31.04 -14.34,-4.82 -28.72,-9.56 -43.26,-13.72 -7.14,16.4 -16.28,31.88 -25.36,47.26 -4.06,-21.1 -8.02,-42.2 -12.32,-63.24 -12.08,-4.62 -24.52,-8.2 -36.84,-12.14 10.08,-5.48 21.34,-8.36 32.06,-12.34 -1.52,-10.54 -4.3,-20.84 -5.58,-31.42 z"
     id="path36"
     inkscape:connector-curvature="0"
     style="fill:#f4722b" />
  <path
     style="fill:#f5e5c1"
     d="m 251.25,407.95 c -3.7,21.72 -5.37,44.14 -1.05,65.9 3.34,13.16 5.79,26.87 13.55,38.35 7.76,16 26.52,19.75 40.4,28.45 -40.8,2.5 -81.5,6.29 -122.3,9.05 -5.62,0.5 -11.21,1.38 -16.55,3.2 -3.1,11.42 -8.06,22.24 -11.7,33.5 -3.16,9.88 -8.33,19.19 -9.45,29.65 -2.5,18.58 -8.64,36.86 -7.1,55.8 0.3,15.5 0.18,31.17 3.1,46.45 5.96,18.96 9.91,38.72 18.85,56.6 5.62,10.38 11.31,20.68 17.05,31 4.88,9.36 12.54,16.77 19.4,24.65 5.9,7.46 16.1,2.89 24.1,3.65 0.26,11.92 -0.59,23.9 0.35,35.8 2.78,12.46 6.09,24.82 9.85,37 7.68,10.58 16.97,19.95 25.25,30.05 10.22,13.02 23.17,23.61 36.45,33.35 17.14,7.34 34.88,13.36 52.2,20.3 10.16,4.52 21.46,4 32.3,5.3 5.8,0.12 11.67,1.86 17.45,0.9 23.38,-10.72 45.05,-25.01 68.55,-35.45 11.68,9.52 25.35,16.15 37.95,24.35 11.9,8.74 23.22,18.27 35,27.15 2.06,1.22 4.47,3.87 7.05,2.25 12.54,-5.78 24.09,-13.87 37.55,-17.55 9.82,-4.1 21.57,-4.81 29.35,-12.75 8.08,-7.92 17.43,-14.45 24.95,-22.95 27.98,-33.42 55.81,-66.95 83.95,-100.25 7.24,-7.28 11.12,-16.94 16.2,-25.7 21.18,-37.8 43.77,-74.83 65.25,-112.45 3.78,-10.92 8.43,-21.78 10.25,-33.2 -9.98,-7.1 -19.68,-15.02 -30.7,-20.4 -2.26,6.88 -5.22,13.49 -7.6,20.35 -4,9.28 9.33,16.84 4.95,25.9 -20.82,41.08 -41.54,82.27 -62.4,123.35 -3.38,6.98 -8.69,12.65 -13.65,18.55 -26.42,31.54 -52.74,63.21 -79.2,94.75 -7.38,7.3 -15.61,13.69 -23.15,20.85 -6.38,6.46 -15.79,7.48 -23.95,10.5 -14.92,4.06 -28.17,12.11 -41.75,19.25 -18.38,-13.86 -35.76,-29.29 -56.2,-40.15 19.96,-16.12 40.85,-31.08 60.75,-47.3 1.44,-21.28 2.16,-42.65 -0.6,-63.85 -1.44,-9.3 -0.79,-18.87 -3.45,-27.95 -5.96,-15.38 -12.68,-30.47 -19.1,-45.65 -1.5,-3.56 -3.64,-6.82 -6.3,-9.6 -13.12,-13.52 -25.24,-28.21 -40.5,-39.45 -7.02,-4.9 -12.39,-12.15 -20.45,-15.45 -11.38,-4.8 -22.82,-9.44 -34.3,-14 -8.78,-3.4 -17.33,-7.84 -26.85,-8.8 -19.04,-2.26 -37.88,-6.41 -57.1,-6.75 -9.3,10.94 -19.56,20.9 -29,31.7 7.96,-13.16 14.68,-27 22.2,-40.4 4.76,-7.86 5.98,-17.05 8.3,-25.75 7.54,-29.32 14.58,-58.79 22.3,-88.05 11.3,-3.28 23.34,-5.84 32.6,-13.6 9.84,-8.06 22.29,-13.46 29.45,-24.4 8.68,-12.08 17.39,-24.11 26.25,-36.05 6.74,-8.34 8.37,-19.28 11.95,-29.1 -6.94,-1.48 -13.97,-2.48 -20.95,-3.7 -8.74,17.2 -18.36,34.09 -30.9,48.85 -12.58,15.14 -27.7,28.87 -46.1,36.45 -4.34,1.76 -9.31,3.55 -13.95,1.75 -8.26,-2.86 -16.29,-6.36 -24.25,-9.9 9.84,-1.3 19.02,-5.56 27.3,-10.9 26.52,-17.4 45.27,-44.07 60.05,-71.65 -3.7,-0.7 -7.43,-1.35 -11.15,-1.95 -7.16,10.96 -12.94,22.9 -21.2,33.1 -8.78,8.5 -16.74,17.88 -26.4,25.4 -7.7,5.16 -14.6,13.12 -24.6,13 -13.78,1.9 -30.79,5.4 -42.15,-4.9 -12.4,-12.26 -14.95,-30.36 -19.55,-46.4 -1.34,-19.02 -1.17,-38.43 3.55,-57.05 -3.44,-1.14 -6.88,-2.18 -10.4,-3 z M 322.1,551.7 c 2.1,0.38 4.16,0.9 6.2,1.6 -8.56,36.78 -14.91,74.1 -22.45,111.1 -1.42,8.76 -9.44,14.13 -13.5,21.65 -24.3,39.08 -48.57,78.22 -72.55,117.5 -7.04,-14.48 -9.52,-30.49 -14.3,-45.75 -6.18,-20.78 -9.08,-42.31 -11,-63.85 -2.5,-15.88 -1.65,-31.98 -2.15,-48 -0.26,-8.02 -0.34,-16.11 1.6,-23.95 4.58,-20.42 7.83,-41.34 15.55,-60.9 37.42,-4.2 75.12,-5.7 112.6,-9.4 z m -132.25,10.7 c -3.96,20.58 -8.07,41.18 -12.45,61.7 -3.56,13.68 -1.78,27.94 -2.6,41.9 -1.1,17.42 2.67,34.6 5.35,51.7 6.16,21.9 10.92,44.12 17.5,65.9 3.46,11.54 6.23,23.54 12.45,34 -1.66,0.54 -4.99,1.58 -6.65,2.1 -4.86,-6.3 -9.12,-13.03 -13.7,-19.55 -7.56,-10.22 -12.22,-22.17 -18.3,-33.25 -9.02,-15.42 -11.07,-33.5 -16.75,-50.2 -2.74,-7.26 -1.68,-15.14 -2.1,-22.7 -0.98,-15.38 -3.07,-31.12 0.75,-46.3 3.32,-14.3 4.66,-29.31 11.2,-42.65 6.48,-13.94 12.54,-28.05 18.9,-42.05 2.14,-0.2 4.26,-0.42 6.4,-0.6 z m 145.75,140 c 16.52,1.5 33.14,2.57 49.6,4.65 9.38,2.68 18.24,6.85 27.5,9.95 8.88,3.74 18.85,5.57 26.25,12.15 14,11.36 28.92,21.61 42.5,33.45 7.46,12.2 13.03,25.52 19.85,38.1 7.44,12.68 9.63,27.46 13.15,41.5 0.92,20.34 2.81,40.72 2.65,61.1 -8.1,6.74 -18.33,10.9 -27.25,16.7 -6.12,3.34 -11.77,7.77 -18.55,9.75 0.02,-11.24 0.33,-22.45 0.85,-33.65 -1.26,-14.74 -4.07,-29.52 -9.15,-43.4 -6.04,-10.58 -11.81,-21.35 -18.15,-31.75 -13.14,-15.58 -29.48,-28.31 -46.8,-38.95 -12.52,-5.88 -25.36,-11.37 -38.6,-15.45 -11.32,-0.9 -22.11,-4.75 -33.45,-5.45 -12.74,-0.34 -25.74,-4.36 -38.2,0.1 15.38,-20.02 31.84,-39.22 47.8,-58.8 z m -31.15,71.85 c 6.43203,-0.0738 13.05,1.3375 19.4,1.5 10.66,1.82 21.86,0.3 32.1,4.3 12.66,4.88 25.51,9.21 38.15,14.15 3.68,1.18 6.32,4.18 9,6.8 9.78,10.22 20.75,19.42 28.35,31.5 6.4,10.2 16.25,18.94 18.05,31.4 1.6,8.02 4.02,15.92 4.7,24.1 -0.92,11.28 -1.39,22.59 -2.75,33.85 -0.28,6.94 -2.04,13.93 -0.6,20.85 -20.6,12.18 -41.39,24.07 -61.95,36.35 -5.52,3.98 -12.62,1.94 -18.9,2 -10.82,-1.16 -22.35,0.09 -32.35,-5.05 -11.74,-5.3 -24.68,-8.58 -34.8,-16.9 -10.32,-8.26 -22.86,-14.28 -30.3,-25.6 -5.44,-7.76 -11.77,-14.9 -16.85,-22.9 -5.12,-12.66 -8.78,-25.91 -12.8,-38.95 -1.3,-9.14 -0.23,-18.42 -0.25,-27.6 -0.08,-10.1 4.16,-19.47 7,-28.95 3.02,-11.44 13.83,-17.8 21.35,-26.1 5.82,-6.54 14.45,-8.97 22.15,-12.45 3.63,-1.6875 7.44078,-2.2557 11.3,-2.3 z"
     id="path38"
     inkscape:connector-curvature="0" />
  <path
     d="m 267.7,412.94 c 2.54,0.86 5.08,1.76 7.6,2.64 -5.24,23.08 -3.38,47.6 3.22,70.22 2.78,6.02 7.32,11.2 12,15.84 6.02,2.2 12.7,1.44 19,2.22 -7.34,-7.46 -9.72,-18.26 -12.68,-27.96 -5.42,-17.82 -5,-36.62 -5.52,-55.04 29.62,10.46 60.4,16.94 90.86,24.34 -6.38,11.56 -12.36,23.7 -22.14,32.84 -9.96,9.42 -18.42,20.8 -30.76,27.34 -12.36,8.34 -28.04,6.1 -41.78,3.3 -7.02,-9.56 -15.3,-18.98 -17.3,-31.1 -4.64,-13.42 -3.54,-27.7 -5.12,-41.6 -1.02,-7.82 0.82,-15.5 2.62,-23.04 z"
     id="path40"
     inkscape:connector-curvature="0"
     style="fill:#f5e5c1" />
  <path
     d="m 985.98,426.28 c 13.06,-2.32 25.4,-7.3 38.02,-11.22 l 0,34.2 c -18.42,6.42 -37.68,10 -56.74,13.84 -6.84,-7.24 -14.56,-13.66 -20.8,-21.4 0.66,-4.12 2.66,-9.38 7.5,-9.72 10.58,-2.38 21.36,-3.8 32.02,-5.7 z"
     id="path42"
     inkscape:connector-curvature="0"
     style="fill:#f4722b" />
  <path
     d="m 478.1,462.96 c 4.76,0.62 9.5,1.48 14.22,2.52 -0.8,9.3 5.04,16.82 9,24.68 5.94,10.76 10.96,22.16 18.9,31.66 6.66,8.02 11.36,18.14 20.76,23.46 11.22,7 21.12,16.64 34.2,20.18 25.54,10.32 54.46,8.48 80.26,0.1 39.98,-13.24 72.74,-45.32 88.16,-84.36 6.7,-0.22 13.34,-1.22 19.98,-2.1 0.4,10.38 -6.9,18.24 -11.38,26.9 -5.1,8.3 -9.2,17.24 -14.98,25.06 -8.2,8.52 -17.04,16.4 -25.42,24.72 -7.64,7.98 -18.54,11.18 -28.12,16.14 -9.62,4.1 -18.84,10.56 -29.72,10.44 -8.74,0 -17.34,1.72 -26.02,2.26 -32.08,1.4 -64.48,-8.98 -89.78,-28.74 -23.4,-17.72 -42.14,-41.78 -52.92,-69.14 -3.48,-7.54 -6.08,-15.5 -7.14,-23.78 z"
     id="path44"
     inkscape:connector-curvature="0"
     style="fill:#f5e5c1" />
  <path
     d="m 505.86,466.86 c 40.2,5.84 80.7,9.88 121.26,11.48 11.02,1.04 22.12,0.62 33.06,2.5 20,0.42 40,0 60,0.26 -13.72,30.22 -40.62,54.28 -72.5,63.8 -29.48,9.06 -62.7,4.58 -88.8,-11.82 -24.02,-15.6 -44.18,-38.68 -53.02,-66.22 z"
     id="path46"
     inkscape:connector-curvature="0"
     style="fill:#f5e5c1" />
  <path
     d="m 783.36,478.34 c 9.5,-1.42 19,0.44 28.46,1.16 -3.68,31.6 -8.98,63.02 -13.5,94.52 -0.88,8.18 -4.7,15.54 -7.5,23.16 -14.68,38.1 -29.42,76.2 -44.08,114.32 -1.1,-0.22 -3.26,-0.68 -4.34,-0.9 5.94,-29.92 12.88,-59.64 19.22,-89.48 2.26,-11.14 6.66,-21.78 8.46,-33.02 4.1,-36.62 8.18,-73.26 13.28,-109.76 z"
     id="path48"
     inkscape:connector-curvature="0"
     style="fill:#f5e5c1" />
  <path
     d="m 451.22,630.04 c 6.28,-23.88 13.06,-47.66 19.9,-71.4 16.96,4.56 34.06,8.54 51.02,13.08 4.62,1.4 9.46,1.62 14.28,1.68 -6.32,15.3 -9.42,31.7 -14.26,47.52 -2.14,7.52 -4.52,14.98 -5.98,22.66 -22.04,-2.12 -43.12,-9.98 -64.96,-13.54 z"
     id="path52"
     inkscape:connector-curvature="0"
     style="fill:#f5e5c1" />
  <path
     d="m 236.76,631.74 c 21.68,-2.66 43.34,-5.62 64.94,-8.86 -0.68,13.36 -3.96,26.42 -6.54,39.52 -18.76,0.84 -37.46,3.12 -56.18,4.84 0.04,-11.88 -2.38,-23.6 -2.22,-35.5 z"
     id="path56"
     inkscape:connector-curvature="0"
     style="fill:#f5e5c1" />
  <path
     d="m 216.94,634.96 c 3.38,-0.76 6.74,-1.52 10.12,-2.26 0,11.42 1.96,22.74 2.04,34.16 -2.6,0.88 -5.2,1.78 -7.82,2.64 -0.5,-11.62 -2.94,-23.02 -4.34,-34.54 z"
     id="path58"
     inkscape:connector-curvature="0"
     style="fill:#f5e5c1" />
  <path
     d="m 206.6,664.14 c 0.92,-9.54 -2.74,-19.4 0.4,-28.6 0.62,10.78 2.8,21.52 2.4,32.34 -1.66,5.24 -3,-1.58 -2.8,-3.74 z"
     id="path60"
     inkscape:connector-curvature="0"
     style="fill:#f5e5c1" />
  <path
     d="m 447,644.28 c 0.76,-2.6 1.54,-5.18 2.32,-7.74 21.32,5.86 42.9,10.72 64.18,16.72 -0.68,1.46 -2.08,4.36 -2.76,5.8 -21.08,-5.64 -42.86,-8.42 -63.74,-14.78 z"
     id="path62"
     inkscape:connector-curvature="0"
     style="fill:#f5e5c1" />
  <path
     d="m 784.18,656.3 c 0.7,-5.38 2.96,-11.8 9.68,-10.6 12.02,3.12 23.98,6.62 36.16,9.24 7.5,2.16 16.28,2.82 21.76,9.04 8.64,9.14 12.6,21.36 18.08,32.42 7.98,16.56 14.96,33.62 23.2,50.06 -23.68,45.02 -47.7,89.84 -71.44,134.82 -2.96,5.56 -5.46,11.72 -10.64,15.68 -21.16,16.78 -41.84,34.2 -62.76,51.3 -8.54,6.84 -16.44,14.68 -26.3,19.66 -21.98,11.38 -43.58,23.52 -65.64,34.72 -20.38,8.14 -41.9,13.12 -62.26,21.36 l -58.6,0 c -0.04,-0.2 -0.14,-0.62 -0.2,-0.84 19.72,-3.7 38.7,-10.5 58.12,-15.5 10.48,-3.1 21.84,-4.86 30.48,-12.1 42.04,-32.36 82.84,-66.26 124.5,-99.12 3.34,-2.6 6.46,-5.62 8.46,-9.4 26.7,-50 53.5,-99.96 80.32,-149.88 3.12,-5.9 2.2,-12.78 2.18,-19.16 -0.68,-15.44 -0.16,-31.02 -2.82,-46.28 -3.52,-3.36 -8.46,-4.26 -12.98,-5.5 -13.12,-3.22 -26.2,-6.66 -39.3,-9.92 z"
     id="path64"
     inkscape:connector-curvature="0"
     style="fill:#f5e5c1" />
  <path
     d="m 439.42,670.34 c 9.56,1.54 18.86,4.38 28.28,6.64 12.06,3.14 24.42,5.34 36,10.06 -1.12,3.9 -2.26,7.8 -3.26,11.72 -2.7,1.36 -5.58,2.52 -8.52,1.06 -18.4,-5.84 -36.96,-11.14 -55.16,-17.56 0.84,-3.98 1.76,-7.94 2.66,-11.92 z"
     id="path66"
     inkscape:connector-curvature="0"
     style="fill:#f5e5c1" />
  <path
     d="m 602.8,681.35 c -2.61563,0.12187 -5.22,0.71499 -7.8,2.05 -8.88,3.96 -14.97,12.36 -18.65,21.1 -7.22,15.72 -6.65,33.51 -5.25,50.35 2.44,13.26 7.3,27.26 18.2,35.9 6.86,5.76 16.8,5.77 25,3.55 13,-7.9 27.75,-15.53 34.55,-29.95 8.1,-18.12 7.87,-40.05 -1.45,-57.65 -5.16,-8.1 -12.4,-15.51 -21.7,-18.65 -7.2,-2.92501 -15.05312,-7.06563 -22.9,-6.7 z m 1.3,17.4 c 1.04254,-0.0781 2.1625,0.0375 3.35,0.35 -0.62,5.14 -4.88,8.94 -6.4,13.8 -7.72,20.76 -5.41,46.06 9.25,63.3 -4.68,3.6 -10.96,2.88 -14,-2.4 -11.36,-17.14 -11.64,-39.82 -5.8,-59 2.41501,-6.19499 6.30222,-15.50339 13.6,-16.05 z m 24.65,9.55 c 5.56112,-0.0565 10.25125,5.56125 12.25,10.55 5.04,12.72 4.88,28.07 -2.1,40.05 -2.88,5.44 -10.96,9 -16,4.3 -8.18,-6.34 -9.61,-17.54 -9.55,-27.2 -0.02,-9.86 2.49,-21.12 11.45,-26.7 1.35,-0.69374 2.66667,-0.98696 3.95,-1 z"
     id="path68"
     style="fill:#f5e5c1"
     inkscape:connector-curvature="0" />
  <path
     d="m 882.64,690.26 c 11.6,4.18 22.46,10.12 33.74,15.12 35.82,16.96 71.94,33.32 107.62,50.54 l 0,141.74 c -3.3,-2.64 -7.06,-4.74 -9.88,-7.9 -1.88,-4.68 -1.2,-9.96 -2.46,-14.8 -13.12,-4.02 -25.14,-10.6 -37.52,-16.3 -10.1,1.68 -19.7,5.5 -29.56,8.22 2.88,-10.54 13.7,-14.36 20.94,-21.26 10.26,-8.8 16.32,-21.18 25.14,-31.24 4.64,-5.72 10.44,-10.44 14.8,-16.4 -1.76,-6.14 -8.84,-8.32 -14.26,-10.22 -3.38,3.84 -6.86,7.6 -10.34,11.34 -2.04,0.14 -4.06,0.3 -6.08,0.48 -1.94,-1.86 -3.88,-3.72 -5.8,-5.56 -0.16,-7.96 2.26,-16.46 -1.94,-23.82 4.34,0.58 8.72,1.18 13.1,1.68 -26.98,-18.22 -53.52,-37.12 -80.44,-55.42 -9.98,-5.28 -12.54,-16.82 -17.06,-26.2 z"
     id="path70"
     inkscape:connector-curvature="0"
     style="fill:#f5e5c1" />
  <path
     d="m 406.8,774.9 c 11.04,-2.96 14.82,-15.66 23.34,-22.26 5.74,-1.2 11.24,2.54 16.42,4.62 4.44,2.56 10.2,4.1 12.98,8.72 -5.52,7.54 -12,14.32 -17.82,21.64 -3.18,4.66 -9.36,1.94 -13.54,0.38 -7.6,-3.42 -16.14,-6.24 -21.38,-13.1 z"
     id="path78"
     inkscape:connector-curvature="0"
     style="fill:#f5e5c1" />
  <path
     d="m 302.24,806.78 c 4.92,-1.9 10.1,-1.98 15.12,-0.4 2.86,24.46 4.62,49.06 7.36,73.54 2.08,25.04 5.56,49.96 6.78,75.08 -4.74,0.52 -9.52,0.48 -14.26,-0.18 -0.24,-5.02 -0.5,-10.06 -0.72,-15.06 l -1.12,-1.54 c -3.78,-43.86 -8.5,-87.64 -13.16,-131.44 z"
     id="path82"
     inkscape:connector-curvature="0"
     style="fill:#f5e5c1" />
  <path
     d="m 274.18,813.7 c 2.6,-0.74 5.22,-1.48 7.82,-2.22 2.74,0.76 5.46,1.5 8.2,2.26 0.42,7.4 0.58,14.88 2.1,22.18 3.58,31.66 9.16,63.12 11.38,94.92 -4.7,0.64 -9.44,0.58 -14.1,-0.28 -5.8,-38.84 -9.44,-78.02 -15.4,-116.86 z"
     id="path84"
     inkscape:connector-curvature="0"
     style="fill:#f5e5c1" />
  <path
     d="m 330.1,813.7 c 5.46,-2.16 11.26,-2.44 16.82,-0.38 0.14,4.92 0.36,9.86 0.54,14.8 l 1.14,1.58 c 2.92,40.9 8.1,81.62 11.02,122.54 -4.82,1.18 -9.78,1.2 -14.56,-0.16 -3.78,-39.38 -7.44,-78.72 -10.74,-118.12 -1.78,-6.72 0,-14.34 -4.22,-20.26 z"
     id="path86"
     inkscape:connector-curvature="0"
     style="fill:#f5e5c1" />
  <path
     d="m 358.16,827.76 c 4.94,-1.46 10.02,-1.5 14.9,0.2 2.6,26.68 4.78,53.38 7.62,80.02 0.66,14.24 3.22,28.34 2.78,42.66 -4.82,0.8 -9.68,0.5 -14.18,-1.44 -3,-40.52 -7.82,-80.92 -11.12,-121.44 z"
     id="path88"
     inkscape:connector-curvature="0"
     style="fill:#f5e5c1" />
  <path
     d="m 251.16,837.7 c 5.5,-2.02 11.32,-2.14 16.86,-0.18 -1.92,7 0.96,13.96 1.68,20.92 2.9,15.48 3.9,31.3 7.24,46.7 -5.02,2.46 -10.48,2.58 -15.54,0.18 -1.14,-11.88 -3.58,-23.58 -5.12,-35.4 -1.74,-10.74 -2.16,-21.72 -5.12,-32.22 z"
     id="path90"
     inkscape:connector-curvature="0"
     style="fill:#f5e5c1" />
  <path
     d="m 387.1,860.96 c 3.76,-7.02 12.1,-7.7 18.98,-5.3 1.4,28.34 4.62,56.52 5.74,84.88 -4.74,0.54 -15.36,3.36 -14.7,-4.38 -2.12,-24.28 -3.62,-48.62 -6.34,-72.82 -0.92,-0.6 -2.76,-1.78 -3.68,-2.38 z"
     id="path92"
     inkscape:connector-curvature="0"
     style="fill:#f5e5c1" />
  <path
     d="m 445.06,990.14 c 4.92,-3.18 9.8,-6.38 14.72,-9.56 15.1,9.5 30.48,18.54 45.48,28.22 8.72,6.88 18.66,12.18 29.38,15.2 l -36.12,0 c -19.48,-8.38 -36.76,-20.96 -53.46,-33.86 z"
     id="path94"
     inkscape:connector-curvature="0"
     style="fill:#f5e5c1" />
  <path
     d="m 290.5,1024 c 7.56,-8.88 14.14,-18.56 21.34,-27.74 8,2.6 16.02,7.38 18.94,15.74 -2.2,4.32 -5.24,8.16 -8.18,12 l -32.1,0 z"
     id="path96"
     inkscape:connector-curvature="0"
     style="fill:#f5e5c1" />
</svg>
