<?xml version="1.0" encoding="UTF-8" standalone="no"?>
<svg
   xmlns:dc="http://purl.org/dc/elements/1.1/"
   xmlns:cc="http://creativecommons.org/ns#"
   xmlns:rdf="http://www.w3.org/1999/02/22-rdf-syntax-ns#"
   xmlns:svg="http://www.w3.org/2000/svg"
   xmlns="http://www.w3.org/2000/svg"
   xmlns:sodipodi="http://sodipodi.sourceforge.net/DTD/sodipodi-0.dtd"
   xmlns:inkscape="http://www.inkscape.org/namespaces/inkscape"
   width="1280"
   height="1280"
   viewBox="0 0 1024 1024"
   version="1.1"
   id="svg2"
   inkscape:version="0.48.1 "
   sodipodi:docname="kill_charged_medics.svg">
  <metadata
     id="metadata68">
    <rdf:RDF>
      <cc:Work
         rdf:about="">
        <dc:format>image/svg+xml</dc:format>
        <dc:type
           rdf:resource="http://purl.org/dc/dcmitype/StillImage" />
      </cc:Work>
    </rdf:RDF>
  </metadata>
  <defs
     id="defs66" />
  <sodipodi:namedview
     pagecolor="#ffffff"
     bordercolor="#666666"
     borderopacity="1"
     objecttolerance="10"
     gridtolerance="10"
     guidetolerance="10"
     inkscape:pageopacity="0"
     inkscape:pageshadow="2"
     inkscape:window-width="1920"
     inkscape:window-height="1018"
     id="namedview64"
     showgrid="false"
     inkscape:snap-page="true"
     inkscape:zoom="0.6609375"
     inkscape:cx="640"
     inkscape:cy="640"
     inkscape:window-x="-8"
     inkscape:window-y="-8"
     inkscape:window-maximized="1"
     inkscape:current-layer="layer1"
     fit-margin-top="0"
     fit-margin-left="0"
     fit-margin-right="0"
     fit-margin-bottom="0" />
  <g
     inkscape:groupmode="layer"
     id="layer1"
     inkscape:label="background">
    <rect
       style="fill:#3e3e3e;fill-opacity:1;stroke:none"
       id="rect3052"
       width="1024"
       height="1024"
       x="0"
       y="0" />
  </g>
  <g
     inkscape:groupmode="layer"
     id="layer2"
     inkscape:label="foreground">
    <path
       d="m 125.55,0 c -1.56,2.38 -3.05,5.05 -1.75,7.95 3.42,12.76 7.5,25.37 11.2,38.05 -3.42,3.12 -6.83,6.26 -10.25,9.4 2.86,37.16 4.98,74.39 7.7,111.55 14.5,-0.44 29.18,0.82 43.4,-2.6 13.04,-2.98 26.66,-4.03 39,-9.55 8.34,-3.54 17.18,-6.13 24.7,-11.35 11.38,-7.74 22.92,-15.31 33.5,-24.15 -3.52,-9.28 -9.4,-17.3 -14.5,-25.7 -13.74,-22.26 -27.57,-44.45 -41.25,-66.75 -1.86,-2.62 -3.39,-5.82 -6.25,-7.5 -4.26,-1.24 -8.75,-1.02 -13.15,-1.3 C 194.64,12.03 191.68,5.88 188.2,0 l -15.1,0 c 6.42,13.06 13.36,25.87 20.1,38.75 1.64,2.22 -0.77,4.51 -2.25,5.95 -7.64,6.92 -17.63,10.4 -27.25,13.6 -3.76,1.24 -9.81,2.12 -11.25,-2.8 C 146.77,42.42 142.62,28.72 137,15.6 142.18,7 150.77,1.32 160.75,0 l -35.2,0 z m 89.95,43.8 c 11.64,23.98 24.54,47.36 37.4,70.7 -7.42,8.16 -14.65,16.86 -24.85,21.7 -8.8,6.64 -19.49,9.28 -29.95,12 -17.54,5.96 -36.33,5.44 -54.55,7.4 -0.76,-27.26 -2.48,-54.49 -3,-81.75 27.56,-1.08 53.25,-13.71 74.95,-30.05 z"
       id="path6"
       style="fill:#f5e5c1"
       inkscape:connector-curvature="0" />
    <path
       d="m 186.52,73.72 c 6.84,-5.56 13.2,-17.24 23.36,-14.04 6.8,11.9 10.98,25.18 16.72,37.64 2.8,7.2 7.36,14.02 6.98,22.06 -6.46,1.78 -14.42,3.2 -20.38,-0.56 -9.44,-14.66 -17.86,-30.02 -26.68,-45.1 z"
       id="path12"
       inkscape:connector-curvature="0"
       style="fill:#f5e5c1" />
    <path
       d="m 271.58,89.04 c 27.5,-0.66 54.96,0.7 82.38,2.78 7.58,0.94 14.74,3.74 22.02,5.9 11,3.56 22.52,5.98 32.52,12.02 9.84,5.92 21.34,9.72 29.2,18.44 6.3,8.52 9.28,18.98 10.78,29.36 12.42,67.48 24.64,135.02 37.7,202.4 1.2,6 2.44,12.26 0.62,18.28 -5.02,20.24 -9.06,41 -18.02,59.98 -5.98,14.14 -12.34,28.14 -18.12,42.38 -1.42,2.42 0.86,4.62 2,6.58 8,11.42 15.98,22.88 23.86,34.4 -5.28,3.54 -10.52,7.12 -15.86,10.58 -7.98,-9.66 -12.84,-24.78 -26.58,-27.32 -6.2,1.72 -7.3,8.6 -9.84,13.56 -6.52,13.34 -13.7,26.34 -20.26,39.66 -1.66,3.52 -3.72,6.84 -6.2,9.88 -1.3,-6.94 2.3,-13.26 3.74,-19.84 3.72,-13.42 5.76,-27.54 12.62,-39.84 5.74,-12.84 13.48,-24.84 17.24,-38.48 7.08,-20.06 14.56,-40 21.72,-60.04 2.76,-8 7.2,-15.38 8.94,-23.72 1.42,-7.34 4.86,-14.68 3,-22.26 -12.36,-66.58 -24.56,-133.2 -36.82,-199.8 -1.56,-7.92 -2.16,-16.42 -7.06,-23.14 -4.46,-7.6 -12.6,-11.5 -19.58,-16.3 -8.18,-5.78 -18.1,-7.88 -27.34,-11.32 -11.66,-3.84 -23.04,-8.86 -35.3,-10.62 -10.96,-1.68 -21.78,-4.74 -32.96,-4.48 -9.6,0.1 -19.2,-0.24 -28.8,-0.68 -1.86,-2.8 -3.74,-5.58 -5.6,-8.36 z"
       id="path14"
       inkscape:connector-curvature="0"
       style="fill:#f5e5c1" />
    <path
       d="m 310.22,141.96 c 8.1,-8.34 17.38,-15.48 26.08,-23.2 10.4,7.24 20.42,15.04 30.38,22.88 -7.48,5.38 -13.64,12.56 -21.46,17.42 -8.82,1.7 -16.02,-5.74 -23.88,-8.58 -3.72,-2.62 -10.56,-3.2 -11.12,-8.52 z"
       id="path16"
       inkscape:connector-curvature="0"
       style="fill:#f5e5c1" />
    <path
       d="m 77.46,177.4 c 12.8,-14.14 27.5,-26.36 41.36,-39.44 0.4,6.7 0.78,13.42 1.16,20.14 -9.36,12.38 -21.3,22.5 -31.82,33.88 -10.84,9.54 -15.54,23.56 -22.2,35.94 -2.92,6.5 -7.9,12.7 -7.18,20.2 -0.1,7.38 3.84,13.92 6.16,20.72 54,140.86 108.18,281.64 161.9,422.58 -5.44,3.62 -10.8,7.36 -16.4,10.72 C 154.74,556.94 98.66,411.86 42.8,266.72 39.7,258.2 34.54,248.94 38.44,239.8 43.16,227.38 50.04,215.9 55.62,203.86 60.08,193 69.92,185.98 77.46,177.4 z"
       id="path18"
       inkscape:connector-curvature="0"
       style="fill:#f5e5c1" />
    <path
       d="m 293.92,149.74 c 1.54,-0.66 4.64,-1.96 6.2,-2.62 10.26,5.08 20.54,10.58 29.68,17.5 0.46,1.02 1.36,3.06 1.82,4.06 -4.9,1.64 -10.16,1.44 -14.1,-2.26 -7.46,-6.06 -18.42,-8.24 -23.6,-16.68 z"
       id="path20"
       inkscape:connector-curvature="0"
       style="fill:#f5e5c1" />
    <path
       d="m 403.56,151.7 c 3.78,-2.7 8.32,-2.26 12.26,-0.22 -1.62,4.42 -6.16,6.18 -9.86,8.42 -22.92,12.8 -46.1,25.28 -70.12,35.84 -9.74,1.72 -17.26,8.56 -26.44,11.82 -65.24,26.94 -134.54,46.3 -205.42,48.72 -10.62,0.66 -21.22,-0.36 -31.82,-0.9 -0.16,-2.38 -0.3,-4.76 -0.44,-7.14 38.24,3.02 76.68,-1.66 114.12,-9.44 76.86,-16.4 149.82,-47.94 217.72,-87.1 z"
       id="path22"
       inkscape:connector-curvature="0"
       style="fill:#f5e5c1" />
    <path
       d="m 357,198.88 c 6.66,-0.32 15.18,-5.78 20.86,-0.88 20.82,67.98 40.28,136.42 60.6,204.58 -3.92,9.9 -8.24,19.64 -12.42,29.44 C 402.72,354.4 380.34,276.48 357,198.88 z"
       id="path24"
       inkscape:connector-curvature="0"
       style="fill:#f5e5c1" />
    <path
       d="m 340.6,203.52 c 2.68,-0.84 5.38,-1.68 8.06,-2.54 24.48,80.96 47.74,162.3 72.04,243.32 -1.54,3.86 -3.14,7.7 -4.76,11.54 C 390.7,371.78 365.92,287.56 340.6,203.52 z"
       id="path26"
       inkscape:connector-curvature="0"
       style="fill:#f5e5c1" />
    <path
       d="m 999.25,222.75 c -0.74634,0.0181 -1.5275,0.1975 -2.35,0.5 -4.9,4.96 -8.27,11.7 -14.85,14.8 -10.62,4.9 -22.53,5.39 -33.95,6.95 -5.78,0.46 -5.98,7.61 -7.8,11.75 -1.8,-0.62 -5.37,-1.88 -7.15,-2.5 -4.08,9.88 -7.43,20.39 -14.35,28.75 -5.58,3.86 -11.64,-3.04 -16.9,-5.1 -0.88,5.92 -0.64,12.56 -4.9,17.3 -7.58,10.86 -18.78,18.56 -31.4,22.4 -1.18,7.32 -1.26,14.96 -3.7,22 -4.62,4.38 -10.35,7.51 -16.15,10.05 -61.48,23.18 -123.07,46.11 -184.55,69.35 -6.6,2.32 -12.49,6.11 -18.15,10.15 C 485.61,536.49 327.88,643.46 169.9,750 c -4,3 -9.55,5.06 -11.05,10.3 -3.58,10.76 -7.43,22.28 -4.65,33.7 8.04,42.44 24.37,84.22 52.15,117.7 10.12,11.88 21.57,22.75 34.55,31.45 9.76,6.1 21.85,7.91 33.15,6.75 9.22,-0.7 15.93,-7.64 23.05,-12.7 161.56,-121.16 323.07,-242.38 484.65,-363.5 2.6,-2.02 5.07,-4.22 7.25,-6.7 29.18,-36.38 57.58,-73.36 85.5,-110.7 11.16,-14.26 21.28,-29.39 33,-43.15 10.14,-2.14 20.67,-0.8 30.95,-1.9 10.84,-17.28 30.03,-26.11 46.25,-37.35 1.7,-7.44 9.25,-10.02 15.05,-13.5 -2.56,-5.86 -4.66,-11.9 -5.8,-18.2 10,-4.12 20.01,-8.2 30.05,-12.2 l 0,-72.7 c -2.04,-5.54 -4.7,-10.84 -7.4,-16.1 2.48,-1.98 4.98,-3.94 7.4,-6 l 0,-11.6 c -4.08,3.2 -8.42,5.99 -12.8,8.75 -3.2375,-3.5175 -6.7257,-9.72688 -11.95,-9.6 z m 0.45,18.55 c 3.68,4.46 8.07,8.46 10.85,13.6 4.02,11.38 7.76,23.07 8.1,35.25 0.28,11.62 -0.28,23.23 0,34.85 -7.7,3.66 -15.72,6.59 -23.5,10.05 -5.34,-10.18 -8.08,-21.7 -14.9,-31.1 -8.84,-13.04 -17.43,-26.5 -29.25,-37.1 -3.8,-3.14 -0.01,-8.28 0.05,-12.3 13.32,-2.7 26.95,-3.91 40.05,-7.75 3.14,-1.36 5.78,-3.56 8.6,-5.5 z m -59,31.6 c 2.76843,-0.0506 5.52,0.53499 7.2,3.1 9.7,12.54 21.72,23.83 27.1,39.15 5.7,14.52 15.94,28.42 14.7,44.7 -1.16,3.16 -5.46,1.21 -7.9,1.05 -4.86,-9.76 -10.91,-18.88 -16.35,-28.3 -6.52,-10.66 -12.14,-22 -20.7,-31.2 -5.48,-5.32 -12.03,-9.46 -18.65,-13.2 5.68,-3.48 9.43,-9.02 11.85,-15.1 0.89501,-0.11501 1.82718,-0.18312 2.75,-0.2 z m -21.95,25.45 c 0.38312,-0.0108 0.75626,-0.0312 1.15,0 24.28,16.92 40.45,43.11 51.45,70.05 -7.86,8.44 -17.85,14.61 -26.45,22.25 -4.04,2.82 -7.94,8.12 -13.5,6.3 -3.34,-4.2 -1.8,-10.13 -3.1,-15.05 -1.5,-12.84 -9.28,-23.44 -15.9,-34.1 -4.4,-6.84 -10.5,-12.5 -17,-17.3 -5.6,-3.54 -12,-5.46 -17.7,-8.8 7.32,-7.12 17.19,-10.7 25.65,-16.2 5.04374,-2.3625 9.65312,-6.98806 15.4,-7.15 z m -32.45,40.1 c 13.76,11.48 23.7,27.28 28.8,44.4 -9.78,6.94 -18.12,15.61 -24.4,25.85 -31.7,41.04 -62.81,82.58 -94.15,123.9 -6.92,8.36 -12.27,18.21 -20.65,25.25 -165.3,125.34 -330.57,250.74 -495.85,376.1 -6.14,4.8 -12.72,11.9 -21.4,9 -11.8,-4.16 -21.09,-13.17 -30.25,-21.35 -33.72,-32.92 -52.86,-78.01 -62.3,-123.55 -2.48,-9.92 -2.27,-20.65 1.65,-30.15 2.8,-5.96 9.21,-8.56 14.25,-12.2 160.02,-107.94 319.98,-215.94 480,-323.9 2.8,-1.82 5.81,-3.3 8.95,-4.5 62.84,-23.24 125.73,-46.51 188.55,-69.85 9.84,-4.9 17.86,-12.7 26.8,-19 z"
       id="path28"
       style="fill:#f5e5c1"
       inkscape:connector-curvature="0" />
    <path
       d="m 103.8,337.92 c 24.02,-24.22 56.14,-40.12 89.88,-44.98 39.2,-6.08 80.54,3.62 113.12,26.18 25.08,17.28 44.8,42.32 55.36,70.92 11.3,29.9 12.5,63.52 3.4,94.16 -9.64,33.1 -30.92,62.6 -59.14,82.38 -29.68,21.06 -66.68,31.18 -102.94,28.9 -0.78,-1.74 -2.36,-5.2 -3.14,-6.94 21.86,0.8 44.1,-1.14 64.62,-9.16 30.4,-11.24 56.74,-32.94 73.72,-60.54 17.8,-28.62 25.48,-63.6 20.48,-97.02 -4.38,-30.74 -18.94,-60 -41.1,-81.82 -26.24,-26.02 -62.86,-41.64 -99.92,-41.46 -41.72,-0.84 -83.14,17.96 -110.62,49.24 -1.26,-3.28 -2.48,-6.56 -3.72,-9.86 z"
       id="path36"
       inkscape:connector-curvature="0"
       style="fill:#f5e5c1" />
    <path
       d="m 547.2,310.34 c 22.46,3.98 44.92,8.02 67.4,11.98 -23.8,34.02 -47.8,67.9 -71.78,101.78 1.26,-37.94 3.04,-75.84 4.38,-113.76 z"
       id="path40"
       inkscape:connector-curvature="0"
       style="fill:#f4722b" />
    <path
       d="m 186.46,344.44 c 9.68,-2.72 18.42,-7.82 27.66,-11.6 6.94,23.64 13.78,47.32 20.76,70.96 30.64,-9.88 60.78,-21.32 89.98,-34.88 5.54,19 10.86,38.08 16.08,57.18 -29.72,11.68 -59.92,22.18 -90.52,31.36 7.84,25.72 14.92,51.66 22.86,77.36 -7.1,2.02 -13.44,5.98 -20.5,8.06 -13.72,4 -27.58,7.5 -41.56,10.48 -9.84,-26.72 -19.52,-53.5 -29.12,-80.3 -10.06,1.54 -20.04,3.48 -30.1,4.92 -6.58,-17.02 -13.12,-34.02 -19.8,-51 9.28,-1.4 18.46,-3.26 27.68,-4.96 -6.14,-22.12 -13.2,-43.96 -19.12,-66.14 15.48,-2.76 30.58,-7.24 45.7,-11.44 z"
       id="path42"
       inkscape:connector-curvature="0"
       style="fill:#f4722b" />
    <path
       d="m 595.7,484.3 c 6.68,-4.46 13.38,-8.92 20.06,-13.38 9.38,1.04 19.12,2.74 26.92,8.42 9.06,6.16 12.9,17.94 11.44,28.5 -2.08,16.38 -10.38,31.1 -19.6,44.48 -16.14,22.88 -36.44,42.48 -58.04,60.14 -30.86,25.04 -64.9,46.18 -101.1,62.54 -26.48,11.66 -54.34,21.34 -83.36,23.6 -14.22,0.8 -29.8,-0.18 -41.62,-9 -10.38,-7.9 -12.76,-22.74 -9.04,-34.64 6.24,-5.46 13.74,-9.3 20.38,-14.26 -1.24,7.88 -1.92,17.12 4.06,23.38 9.04,9.88 23.76,9.8 36.14,9.08 24.52,-2.36 47.96,-11.04 70.26,-21.14 38.1,-17.66 73.6,-41 104.72,-69.22 16.58,-15.56 32.54,-32.52 42.88,-52.98 4.66,-9.62 8.3,-21.36 3.86,-31.68 -5.08,-10.38 -17.5,-13.04 -27.96,-13.84 z"
       id="path46"
       inkscape:connector-curvature="0"
       style="fill:#f5e5c1" />
    <path
       d="m 64.4,643.24 c 28.02,25.84 55.98,51.76 83.78,77.82 -33.9,-8.88 -67.74,-18 -101.66,-26.84 5.82,-17.04 12.02,-33.94 17.88,-50.98 z"
       id="path48"
       inkscape:connector-curvature="0"
       style="fill:#f4722b" />
    <path
       d="m 741.46,670.46 c 40.6,-5.84 81.46,-10 122.14,-15.32 -4.88,22.4 -10.12,44.72 -14.78,67.18 -36.1,-16.6 -71.64,-34.46 -107.36,-51.86 z"
       id="path50"
       inkscape:connector-curvature="0"
       style="fill:#f4722b" />
    <path
       d="m 641.76,698.72 c 4.5,-3.66 9.14,-7.16 13.88,-10.52 12.76,11.86 31.24,22.24 31.88,41.86 -2.54,12.62 -7.2,24.78 -10.84,37.14 -8.28,19.32 -17.44,38.26 -26.26,57.34 -6.58,15.02 -19.26,25.98 -30.1,37.88 -13.08,11.56 -26.8,22.44 -40.42,33.38 -16.42,10.94 -32.18,23.06 -49.92,31.88 -11.64,5.9 -22.68,13.1 -35.02,17.48 -18.42,6.92 -36.76,14.06 -55.16,21 -8.24,3.78 -15.36,-3.8 -20.9,-8.88 -16.44,-17.84 -30.6,-37.64 -46.62,-55.84 4.88,-3.74 9.78,-7.44 14.62,-11.22 18.66,19.66 37.98,38.78 55.58,59.38 4.36,2.34 9.14,-0.22 13.26,-1.8 15.36,-6.76 31.5,-11.72 46.26,-19.74 12.28,-6.44 24.96,-12.18 37.02,-18.98 13.52,-9.78 26.44,-20.36 39.74,-30.42 7.68,-6.26 16.3,-11.5 22.7,-19.18 8.98,-10.34 18.34,-20.34 27.2,-30.78 20.38,-31.7 34.74,-66.94 45.06,-103.12 -10.16,-9.52 -21.46,-17.74 -31.96,-26.86 z"
       id="path52"
       inkscape:connector-curvature="0"
       style="fill:#f5e5c1" />
    <path
       d="m 608.76,723.4 c 6.84,-5.12 13.52,-10.44 20.54,-15.28 8.26,9.52 17.66,18.02 25.66,27.78 -1.36,8.84 -5.16,17.08 -7.18,25.76 -13.18,-12.58 -25.9,-25.64 -39.02,-38.26 z"
       id="path54"
       inkscape:connector-curvature="0"
       style="fill:#f5e5c1" />
    <path
       d="m 592.18,735.84 c 3.26,-2.48 6.54,-4.94 9.82,-7.4 14.42,14.34 29,28.52 43.32,42.96 -1.24,5.4 -7.64,10.08 -12.48,5.56 -13.86,-13.4 -27,-27.52 -40.66,-41.12 z"
       id="path56"
       inkscape:connector-curvature="0"
       style="fill:#f5e5c1" />
    <path
       d="m 25.46,793.1 c 30.84,2.22 61.74,3.68 92.56,6.22 -30.88,9.34 -61.7,18.86 -92.56,28.26 0,-11.5 0,-23 0,-34.48 z"
       id="path58"
       inkscape:connector-curvature="0"
       style="fill:#f4722b" />
    <path
       d="m 661.32,823.4 c 14.52,19.88 27.12,41.12 41.28,61.26 -24.02,41.72 -66.1,71.56 -112.46,83.36 -6.18,2.64 -9,-4.12 -13.18,-7 -13.24,-9.64 -26.64,-19.04 -39.76,-28.82 3.92,-1.92 7.58,-4.78 11.92,-5.64 14.54,9.6 28.68,19.86 43.1,29.66 16.52,-7.18 33.5,-13.56 48.78,-23.28 10.54,-4.84 17.94,-13.92 26.38,-21.54 7.92,-6.98 12.88,-16.46 18.66,-25.14 -10.56,-16.06 -20.3,-32.66 -31.1,-48.54 1.9,-4.88 4.04,-9.66 6.38,-14.32 z"
       id="path60"
       inkscape:connector-curvature="0"
       style="fill:#f5e5c1" />
    <path
       d="m 638.68,854.96 c 4.94,-2.52 13.74,-4.5 15.96,2.42 5.52,11.52 11.5,22.84 16.56,34.58 -1.6,5.96 -10.58,13.16 -15.92,6.94 -8.16,-10.02 -16.42,-19.98 -24.02,-30.42 2.46,-4.48 4.04,-9.62 7.42,-13.52 z"
       id="path62"
       inkscape:connector-curvature="0"
       style="fill:#f5e5c1" />
  </g>
</svg>
