<?xml version="1.0" encoding="UTF-8" standalone="no"?>
<svg
   xmlns:dc="http://purl.org/dc/elements/1.1/"
   xmlns:cc="http://creativecommons.org/ns#"
   xmlns:rdf="http://www.w3.org/1999/02/22-rdf-syntax-ns#"
   xmlns:svg="http://www.w3.org/2000/svg"
   xmlns="http://www.w3.org/2000/svg"
   xmlns:sodipodi="http://sodipodi.sourceforge.net/DTD/sodipodi-0.dtd"
   xmlns:inkscape="http://www.inkscape.org/namespaces/inkscape"
   width="1280"
   height="1280"
   viewBox="0 0 1024 1024"
   version="1.1"
   id="svg2"
   inkscape:version="0.48.1 "
   sodipodi:docname="kill_in_dodge_cooldown.svg">
  <metadata
     id="metadata54">
    <rdf:RDF>
      <cc:Work
         rdf:about="">
        <dc:format>image/svg+xml</dc:format>
        <dc:type
           rdf:resource="http://purl.org/dc/dcmitype/StillImage" />
      </cc:Work>
    </rdf:RDF>
  </metadata>
  <defs
     id="defs52" />
  <sodipodi:namedview
     pagecolor="#ffffff"
     bordercolor="#666666"
     borderopacity="1"
     objecttolerance="10"
     gridtolerance="10"
     guidetolerance="10"
     inkscape:pageopacity="0"
     inkscape:pageshadow="2"
     inkscape:window-width="1920"
     inkscape:window-height="1018"
     id="namedview50"
     showgrid="false"
     fit-margin-top="0"
     fit-margin-left="0"
     fit-margin-right="0"
     fit-margin-bottom="0"
     inkscape:zoom="0.6609375"
     inkscape:cx="640"
     inkscape:cy="640"
     inkscape:window-x="-8"
     inkscape:window-y="-8"
     inkscape:window-maximized="1"
     inkscape:current-layer="svg2" />
  <path
     d="m 0,0 1024,0 0,1024 L 0,1024 0,0 z"
     id="path4"
     inkscape:connector-curvature="0"
     style="fill:#3e3e3e" />
  <path
     style="fill:#f5e5c1"
     d="m 451.95,100.575 c -3.30687,0.10282 -6.61,0.565 -9.9,1.55 -12.44,3.1 -26.695,2.15 -37.075,10.75 -6.8,5.28 -14.565,9.555 -20.225,16.175 -2.34,3.82 -3.095,8.39 -5.375,12.25 -3.72,5.68 -2.885,12.885 -1.825,19.225 3.24,14.92 5.82,30.675 14.5,43.575 8.22,10.36 17.83,19.5 26.25,29.7 14.12,13.18 29.41,25.085 43.85,37.925 18.86,12.58 38.4,24.125 57.3,36.625 2.2,1.46 4.44,2.955 7,3.775 19.12,7.02 37.73,15.59 57.15,21.75 19.5,3.98 38.58,10.735 58.6,11.375 13.88,1.08 27.985,4.22 41.825,1 12.44,-2.52 25.055,-4.26 37.475,-7 8.84,-2.16 15.45,-8.66 20.65,-15.8 1.84,-8.68 7.7,-16.275 7.6,-25.375 -0.04,-8.6 -0.11,-17.22 -0.65,-25.8 -0.7,-7.54 -6.205,-13.255 -9.925,-19.475 -4.42,-6.22 -7.805,-13.2 -12.925,-18.9 -12.38,-12.34 -24.3,-25.095 -36.4,-37.675 -4.68,-4.24 -10.255,-7.29 -15.475,-10.75 -15.16,-9.42 -30.01,-19.34 -45.15,-28.8 -9.46,-5.44 -19.76,-9.265 -29.2,-14.725 -6.52,-4.36 -13.5,-7.98 -20.8,-10.8 -20.06,-7.02 -39.935,-14.595 -60.075,-21.375 -12.34,-2.68 -24.985,-3.585 -37.425,-5.725 -9.87,-0.96 -19.85438,-3.78344 -29.775,-3.475 z m 1.475,10.375 c 2.92324,-0.0605 5.8475,0.1675 8.75,0.775 19.12,3.12 38.61,4.265 57.45,8.825 27.6,10.66 56.605,18.235 82.225,33.375 8.52,6.02 18.78,8.865 27.4,14.725 13.36,8.7 26.82,17.27 40.2,25.95 5.2,3.24 10.575,6.39 14.875,10.85 10.6,10.8 21.005,21.82 31.725,32.5 6.94,6.78 11.1,15.665 16.6,23.525 2.8,4.48 6.735,8.82 6.775,14.4 -0.56,13.78 -4.42,28.78 -16.1,37.4 -7.68,7.82 -19.14,8.475 -29.4,9.575 -19.62,1.56 -39.14,-1.825 -58.7,-2.625 -32.28,-9.2 -64.66,-19.215 -94.4,-35.075 -13.1,-6.84 -26.58,-12.98 -39.2,-20.7 -14.34,-10.3 -29,-20.185 -43.1,-30.825 -13.76,-12.98 -26.155,-27.405 -39.875,-40.425 -6.96,-5.98 -12.58,-13.675 -15.6,-22.375 -1.28,-5.52 -1.185,-11.255 -1.625,-16.875 -1.26,-9.62 4.16,-18.2 8.2,-26.5 6.54,-9.9 18.685,-11.76 29.325,-14.4 4.75,-1.1125 9.60293,-1.99922 14.475,-2.1 z"
     id="path6"
     inkscape:connector-curvature="0" />
  <path
     d="m 506.38,122.62 c 3.12,0.22 6.22,0.44 9.34,0.68 -0.44,7.06 -2.7,13.82 -4.34,20.66 -4.4,-0.54 -8.74,-1.5 -12.98,-2.8 2.7,-6.16 5.34,-12.36 7.98,-18.54 z"
     id="path10"
     inkscape:connector-curvature="0"
     style="fill:#f5e5c1" />
  <path
     d="m 516.36,145.96 c 2.24,-6.8 5.68,-13.1 9.2,-19.3 7.42,2.34 14.94,4.48 22.2,7.36 2.42,0.74 3.44,3.3 4.94,5.1 -2.66,5.26 -4.7,10.8 -6.6,16.38 -10.3,-1.84 -19.84,-6.32 -29.74,-9.54 z"
     id="path12"
     inkscape:connector-curvature="0"
     style="fill:#f5e5c1" />
  <path
     d="m 428.88,151.36 c 8.86,-2.6 17.76,-6 27.14,-5.94 33.6,1.24 67.36,6.98 98.46,20.08 21.3,6.42 41.02,17 60.34,27.82 18.56,13.2 37.46,26.08 54.42,41.38 12.28,11.94 25.22,23.8 33.14,39.26 6.34,9.72 8.84,21.1 11.64,32.16 -16.12,5.44 -33.36,5.96 -50.18,5.02 -2.4,0.12 -4.34,-1.34 -6.12,-2.66 -30.56,-24.2 -61.34,-48.14 -91.94,-72.32 -3.04,-2.54 -6.96,-4.98 -11.04,-3.34 -3.78,2.88 -2.6,8.52 -1.74,12.54 4.18,13.98 8.98,27.78 12.98,41.82 -18.38,-9.34 -36.8,-18.62 -55.14,-28.06 -15.44,-10.48 -30.6,-21.44 -45.74,-32.38 -15.08,-14.34 -29.08,-29.78 -43.84,-44.46 -3.48,-6.16 -7.62,-12.8 -6.74,-20.18 2.38,-5.98 8.56,-9 14.36,-10.74 z"
     id="path14"
     inkscape:connector-curvature="0"
     style="fill:#f5e5c1" />
  <path
     style="fill:#f5e5c1"
     d="m 369.5,188.225 c -2.96,8.46 -3.745,17.415 -5.325,26.175 -3.68,23.94 -8.07,47.75 -11.35,71.75 1,13 8.005,24.81 9.825,37.75 2.1,17.92 3.2,35.98 5.2,53.9 3.04,8.12 15.22,9.065 16.6,18.325 4.94,17.96 10.565,35.74 15.125,53.8 -18.36,23.74 -35.745,48.19 -52.825,72.85 -3.98,5.56 -3.31,12.735 -4.05,19.175 -2.08,21.36 -4.04,42.72 -6,64.1 -0.84,7.88 -5.72,14.49 -8.2,21.85 -0.78,5.24 -0.03,10.835 2.15,15.675 6.46,9.84 15.06,17.975 23.3,26.275 7.48,7.32 14.04,16.085 24,20.225 15.02,6.8 28.44,17.92 45.2,20.2 15.22,2.84 30.265,6.525 45.525,9.125 17.12,0.68 34.285,0.055 51.425,0.275 9.98,-0.26 20.125,0.88 29.925,-1.4 14.56,-3.3 29.15,-6.375 43.75,-9.475 14.04,-2.44 25.135,-12.185 38.275,-17.025 11.12,-4.92 23.62,-8.265 32,-17.625 9.1,-7.72 17.205,-17.735 19.225,-29.775 -2.16,-7.26 -12.295,-10.175 -12.475,-18.475 -6,-34.44 -10.07,-69.195 -16.25,-103.575 -10.26,-20.3 -18.415,-41.595 -28.075,-62.175 -3.42,2.78 -6.845,5.525 -10.325,8.225 6.14,14.76 13.095,29.165 19.475,43.825 3.16,7.88 8.6,14.955 9.3,23.675 1.38,14.08 4.535,27.915 5.975,41.975 1.68,21.46 7.645,42.305 10.625,63.525 -30.34,17.66 -63.295,31.08 -97.275,40 -50.2,12.88 -105.605,12.425 -152.925,-10.475 -25.54,-11.48 -46.82,-30.42 -65.2,-51.2 1.86,-25.22 4.975,-50.345 7.275,-75.525 0.62,-5.06 0.62,-10.56 3.6,-14.9 15.62,-23.2 30.295,-46.99 45.375,-70.55 3.6,11.6 6.255,23.51 10.375,34.95 1.22,-8.62 -0.165,-17.305 0.475,-25.925 1.58,-3.2 5.445,-3.7 7.825,-1.1 18.28,13.22 36.11,27.075 54.95,39.475 -20.52,-22.14 -43.19,-42.28 -63.95,-64.2 -6.52,-11.36 -8.36,-24.795 -12,-37.275 22.6,19.84 45.875,38.9 68.175,59.1 1.96,2.3 5.09,1.69 7.75,1.95 -1.74,-6.14 -7.205,-9.915 -11.325,-14.375 -27.38,-28.02 -55.885,-54.955 -84.225,-81.975 -0.38,-0.5 -1.12,-1.5 -1.5,-2 -2,-15.1 -1.19,-30.4 -3.05,-45.5 -3.42,-14.7 -9.17,-28.87 -11.35,-43.85 3.24,-20.84 9.53,-41.18 13.05,-62 -0.86,-9.62 -5.395,-18.535 -8.075,-27.775 z M 345.325,634.6 c 1.51054,-0.051 3.0025,0.38 4.3,1.55 8.08,7.3 15.225,15.54 23.125,23 35.56,25.72 79.43,39.29 123.25,39.55 29.56,0.2 59.09,-4.625 87.25,-13.525 -0.42,3.46 -0.75,6.975 -0.95,10.475 5.2,0 10.405,-0.83 15.125,-3.05 -1.38,-3.56 -2.82,-7.075 -4.3,-10.575 2.38,-0.68 4.75,-1.34 7.15,-2 1.28,2.9 2.595,5.785 3.875,8.725 6.32,0.04 11.82,-3.375 17.5,-5.675 6.46,-2.88 13.17,-5.135 19.55,-8.175 2.98,-1.14 3.39,-4.71 4.85,-7.15 -1.42,-1.06 -4.28,-3.215 -5.7,-4.275 8.36,-4.62 16.705,-10.845 26.725,-10.625 -4.8,13.12 -16.39,22.62 -29.35,27.1 -18.22,6.36 -34.355,18.545 -53.875,21.025 -20.56,3.68 -40.74,11.205 -61.9,9.525 -21.32,-0.92 -43.1,2.44 -64,-3 -11.98,-2.48 -23.95,-4.91 -35.95,-7.35 -9.7,-1.6 -17.2,-8.45 -25.9,-12.45 -9.4,-4.98 -20.45,-7.89 -27.35,-16.55 -9.9,-11.4 -22.235,-20.8 -30.475,-33.5 1.9375,-1.5625 4.53242,-2.96504 7.05,-3.05 z"
     id="path16"
     inkscape:connector-curvature="0" />
  <path
     d="m 705.16,353.7 c 5.2,-0.8 10.36,-1.78 15.54,-2.72 -1.24,7.16 -2.22,14.36 -3.64,21.5 -6.5,5.02 -12.86,10.2 -19.3,15.28 -28.96,20.88 -56.86,43.2 -85.48,64.52 -15.16,10.78 -30.52,21.3 -45.42,32.46 -15.98,6.34 -32.8,10.5 -48.9,16.6 7.78,-7.04 17.38,-11.54 25.94,-17.52 11.16,-7.9 26.14,-8.1 36.46,-17.38 37.76,-31.06 75.6,-62.02 114.78,-91.28 7.58,-4.46 6.86,-14.24 10.02,-21.46 z"
     id="path18"
     inkscape:connector-curvature="0"
     style="fill:#f5e5c1" />
  <path
     d="m 592.24,354.36 c 5.44,-0.02 10.98,0.52 15.8,3.26 -4.22,3.62 -7.14,8.34 -10.3,12.82 -4.52,0.78 -10.2,-0.94 -11.7,-5.76 2.28,-3.3 4.36,-6.74 6.2,-10.32 z"
     id="path20"
     inkscape:connector-curvature="0"
     style="fill:#f5e5c1" />
  <path
     d="m 613.66,369.9 c -3.04,-4.16 2.62,-8.54 4.22,-12.38 17.28,-0.2 34.58,-0.14 51.86,-0.02 1.78,2.2 3.58,4.38 5.42,6.56 -2.5,4.48 -4.12,9.64 -7.56,13.52 -18.1,-1.08 -35.98,-5.16 -53.94,-7.68 z"
     id="path22"
     inkscape:connector-curvature="0"
     style="fill:#f5e5c1" />
  <path
     d="m 580.22,508.14 c 0.86,-0.92 2.6,-2.8 3.46,-3.72 9.68,8.96 19.94,17.36 29.1,26.84 5.66,25.1 10.44,50.44 15.58,75.66 2.96,13.64 7.14,27.02 9.08,40.86 -10.06,4.16 -19.68,9.3 -29.76,13.44 -0.7,-0.86 -2.14,-2.6 -2.84,-3.48 -5.78,-35.76 -9.48,-71.84 -13.18,-107.86 -0.98,-14.6 -9.2,-27.46 -11.44,-41.74 z"
     id="path24"
     inkscape:connector-curvature="0"
     style="fill:#f5e5c1" />
  <path
     d="m 564.66,516.2 c -0.4,-4.14 5.08,-4.22 7.72,-5.58 3.26,7.88 6.22,15.86 9.3,23.82 4.54,9.86 3.1,20.98 4.7,31.48 2,33.62 6.4,67.06 9.24,100.62 -3.56,0.86 -7.12,1.72 -10.68,2.54 0.16,-5.2 0.42,-10.4 -0.1,-15.58 -3.28,-30.48 -5.5,-61.06 -7.76,-91.62 -0.54,-7.94 -0.16,-16.2 -3.34,-23.68 -2.78,-7.42 -6.88,-14.36 -9.08,-22 z"
     id="path26"
     inkscape:connector-curvature="0"
     style="fill:#f5e5c1" />
  <path
     style="fill:#f4722b"
     d="m 690.45,616.55 c 4.62,6.78 11.185,12.32 14.725,19.8 -0.18,9.08 -4.285,17.585 -6.125,26.425 -1.96,9.44 -9.17,16.275 -14.35,23.975 -3.8,4.88 -6.79,11.095 -12.95,13.375 -18.58,7.88 -36.98,16.185 -55.7,23.725 -18.58,5.72 -37.41,10.735 -56.05,16.275 -7.76,2.42 -15.935,2.6 -23.975,2.7 -16,0.1 -31.975,1.245 -47.975,0.925 -12.48,-0.38 -25.385,1.59 -37.325,-3.05 -19.2,-6.52 -39.885,-9.33 -57.525,-19.85 -10.32,-5.76 -21.36,-10.33 -31.3,-16.75 -10.38,-9.58 -19.705,-20.27 -29.825,-30.15 -8.5,-7.96 -14.54,-18.12 -20,-28.3 -1.86,-7.42 -0.885,-15.24 -1.725,-22.8 -48.36,-1.48 -94.995,13.09 -142.175,21.45 -21.42,3.5 -42.51,8.98 -62.55,17.4 -11.1,8.04 -21.24,17.565 -29.6,28.425 -8.98,14.12 -9.245,31.7 -9.125,47.9 2.16,8.22 5.725,16.165 9.225,23.925 4.76,10.14 15.58,14.64 25.1,19.1 11.84,5.02 23.965,9.48 36.325,13 16.76,3.38 33.95,3.605 50.85,5.825 8.92,3.66 19.66,5.89 25.6,14.15 4.6,10.26 5.235,21.845 9.175,32.325 5.92,10.42 13.61,20.635 24.55,26.175 8.88,4.62 17.925,9.78 28.125,10.6 21.16,3.12 42.605,2.67 63.925,2.05 19.32,-2.28 38.535,-8.265 58.175,-5.525 19.5,2.08 40.775,6.95 54.375,22.15 11.24,16.68 29.39,28.85 49.45,31.55 25.42,4.6 51.26,-2.46 74,-13.7 13.08,-6.68 27.295,-11.25 41.975,-12.55 13.54,-0.78 26.63,-5.03 40.25,-4.85 21.78,-3.02 44.565,-0.185 65.425,-8.425 13.5,-3.62 23.265,-14.005 33.225,-23.125 5.66,-5.48 8.205,-13.13 12.825,-19.35 14.02,-13.48 30.7102,-25.725 50.54996,-28.225 31.66016,-4.22 63.74504,-12.445 90.32504,-30.825 9.56,-6.44 13.82504,-17.52 17.92504,-27.8 6,-14.52 3.13496,-30.675 0.37496,-45.575 -2,-11.94 -11.87,-19.7 -19.45,-28.2 -9.3,-10.8 -21.29,-18.75 -32.45,-27.45 -11.56,-6.6 -23.32504,-13.045 -35.62504,-18.125 -17.01976,-4.9 -33.64,-11.68 -51.29996,-13.9 -18.34,-2.62 -36.385,-6.92 -54.725,-9.5 -14.88,-1.68 -29.75,-3.64 -44.65,-5.2 z M 83.575,756.35 c 4.38,-0.16 7.94,2.655 11.7,4.475 17.52,8.04 35.64,15.8 55,17.9 16.18,1.06 32.435,0.98 48.575,2.6 0.24,0.66 0.685,1.995 0.925,2.675 -13.72,3 -27.865,2.59 -41.825,2.35 -16.72,-0.36 -32.84,-5.525 -48.3,-11.525 -9.64,-4.44 -20.575,-8.755 -26.075,-18.475 z m 818.30004,25.95 c 0.46896,-0.002 0.9268,0.01 1.4,0.025 -8.12032,6.36 -16.80504,11.965 -25.52504,17.425 -13.14,5.8 -27.16488,9.315 -41.02504,12.875 -8.27968,2.06 -16.52496,5.32 -25.22496,4.4 4.72,-2.12 9.68512,-3.73 14.62496,-5.25 12.54024,-3.54 23.28504,-11.185 35.32504,-15.925 13.13624,-5.27 25.87792,-13.47798 40.42504,-13.55 z M 235.625,847.5 c 9.98,7.06 21.43,11.695 33.45,13.875 12.6,4.28 25.98,2.775 39,3.875 9.94,0.76 19.9,0.03 29.8,-1.05 11.34,-1.34 22.815,-0.315 34.175,-1.375 20.46,-1.9 40.285,4.985 59.125,12.125 6.16,1.92 10.6,6.76 15,11.2 -19.36,-11.06 -42,-15.845 -64.2,-14.825 -17.18,-0.8 -34.13,2.35 -50.95,5.35 -19.7,1.92 -39.68,-0.135 -59,-4.175 -15.06,-2.48 -28.32,-12.22 -36.4,-25 z m 520.65,9.85 c -6.24,6.7 -12.37,13.6 -19.55,19.3 -24.72,13.42 -53.355,14.03 -80.675,16.75 -15.48,1.56 -30.76,4.75 -46.2,6.65 -14.22,1.62 -27.42,7.525 -40.3,13.425 -24.6,11.58 -53.02,14.585 -79.5,8.525 -4.88,-1.64 -8.86,-5.03 -12.7,-8.35 12.32,0.78 24.145,5.995 36.625,4.375 12.56,-0.3 24.845,-3.475 36.625,-7.675 16.5,-7.3 33.035,-15.785 51.275,-17.525 9.34,-1.54 18.955,-0.95 28.175,-3.25 29.84,-7.14 60.725,-8.395 90.625,-15.275 12.34,-4.56 23.74,-11.31 35.6,-16.95 z"
     id="path28"
     inkscape:connector-curvature="0" />
  <path
     style="fill:#f4722b"
     d="m 207.775,919.15 c -11.28145,0.0746 -22.5125,1.25 -33,5.725 -7.9,3.92 -14.015,10.975 -22.675,13.475 -8.86,3.3 -18.45,1.825 -27.65,3.025 -12.9,1.54 -26.415,1.075 -38.475,6.675 -9.06,3.4 -19.725,9.195 -19.525,20.375 3.88,4.56 7.79,9.715 13.95,11.175 23.2,6.96 47.73,5.15 71.65,5.35 20.8,0.7 42.46,-3.28 60,-15 15.04,-6.44 30.32,-12.625 43.9,-21.925 6.62,-4.04 5.805,-13.175 4.225,-19.675 -9.3,-6.52 -21.255,-7.16 -32.175,-8.6 -6.675,-0.285 -13.45614,-0.64477 -20.225,-0.6 z m -133.85,43.875 c 7.14,-0.2 13.305,5.24 20.425,6.1 24.52,1.12 49.065,1.515 73.625,2.075 6.66,0 13.22,-1.305 19.8,-2.025 0.16,7.06 -8.51,7.955 -13.75,9.375 -23.96,0.28 -47.915,-0.74 -71.875,-1 -9.52,-0.78 -20.22,-1.43 -27.7,-8.05 -1.86,-1.18 -4.325,-6.395 -0.525,-6.475 z"
     id="path40"
     inkscape:connector-curvature="0" />
  <path
     style="fill:#f4722b"
     d="m 728.725,928.325 c -6.95,-0.04 -14.04,1.085 -20.7,2.125 -7.22,1.64 -17.215,4.7 -17.775,13.5 0.14,6.28 7.805,5.92 12.125,7.8 6.4,1.44 10.555,6.805 13.575,12.225 -3.1,2.86 -8.065,5.165 -7.725,10.125 -1.3,7.58 6.165,12.72 12.525,14.6 19.9,5.68 40.985,4.565 61.325,2.325 12.54,-1.26 25.905,-4.615 35.025,-13.875 4.24,-3.86 3.84496,-12.08 -1.57504,-14.7 -9.66,-5.28 -20.32496,-9.42 -31.42496,-9.9 -11.66,-1.46 -23.93,-1.1 -34.75,-6.3 0.7,-4.28 2.685,-9.335 -0.775,-12.975 -6.1,-3.7 -12.9,-4.91 -19.85,-4.95 z m -13.15,48.05 c 16.06,6.08 33.495,5.645 50.375,5.925 13.5,-1.88 27.645,0.19 40.42504,-5.45 -9.68004,8.72 -23.95504,10.11 -36.47504,9.45 -12.88,0.02 -25.82,0.32 -38.6,-1.5 -6.18,-0.64 -10.805,-5.125 -15.725,-8.425 z"
     id="path42"
     inkscape:connector-curvature="0" />
  <path
     d="m 380.88,939.42 c 17.38,-1.78 36.08,-2.28 52.24,5.28 5.36,1.68 6.2,8.98 0.68,11.08 -16.3,8.02 -35.5,7.6 -53.18,5.64 -7.86,-1.6 -17.58,-2.46 -22.52,-9.62 1.1,-10.08 14.88,-10.46 22.78,-12.38 z"
     id="path44"
     inkscape:connector-curvature="0"
     style="fill:#f4722b" />
</svg>
