<?xml version="1.0" encoding="UTF-8" standalone="no"?>
<svg
   xmlns:dc="http://purl.org/dc/elements/1.1/"
   xmlns:cc="http://creativecommons.org/ns#"
   xmlns:rdf="http://www.w3.org/1999/02/22-rdf-syntax-ns#"
   xmlns:svg="http://www.w3.org/2000/svg"
   xmlns="http://www.w3.org/2000/svg"
   xmlns:sodipodi="http://sodipodi.sourceforge.net/DTD/sodipodi-0.dtd"
   xmlns:inkscape="http://www.inkscape.org/namespaces/inkscape"
   width="1280"
   height="1280"
   viewBox="0 0 1024 1024"
   version="1.1"
   id="svg2"
   inkscape:version="0.48.1 "
   sodipodi:docname="kill_from_behind.svg">
  <metadata
     id="metadata30">
    <rdf:RDF>
      <cc:Work
         rdf:about="">
        <dc:format>image/svg+xml</dc:format>
        <dc:type
           rdf:resource="http://purl.org/dc/dcmitype/StillImage" />
      </cc:Work>
    </rdf:RDF>
  </metadata>
  <defs
     id="defs28" />
  <sodipodi:namedview
     pagecolor="#ffffff"
     bordercolor="#666666"
     borderopacity="1"
     objecttolerance="10"
     gridtolerance="10"
     guidetolerance="10"
     inkscape:pageopacity="0"
     inkscape:pageshadow="2"
     inkscape:window-width="1920"
     inkscape:window-height="1018"
     id="namedview26"
     showgrid="false"
     inkscape:snap-page="true"
     fit-margin-top="0"
     fit-margin-left="0"
     fit-margin-right="0"
     fit-margin-bottom="0"
     inkscape:zoom="0.6609375"
     inkscape:cx="466.00473"
     inkscape:cy="640"
     inkscape:window-x="-8"
     inkscape:window-y="-8"
     inkscape:window-maximized="1"
     inkscape:current-layer="layer1" />
  <g
     inkscape:groupmode="layer"
     id="layer1"
     inkscape:label="background">
    <rect
       style="fill:#3e3e3e;fill-opacity:1;stroke:none"
       id="rect3007"
       width="1024"
       height="1024"
       x="0"
       y="0" />
  </g>
  <g
     inkscape:groupmode="layer"
     id="layer2"
     inkscape:label="foreground">
    <path
       d="m 342.32,72.78 c 81.4,-31.74 168.52,-47.92 255.72,-50.86 92.7,-2.94 186.14,9 274.42,37.78 53.38,17.58 105.02,41.32 151.54,73.02 l 0,107.3 C 992.2,197.04 949.54,163.04 903.22,136.82 825.9,93.34 738.18,70.5 650.1,63.42 c -13.38,-0.64 -26.8,-0.78 -40.16,-1.84 -68.74,-1.54 -137.7,7.4 -203.8,26.26 -19.26,5.14 -37.72,12.76 -56.46,19.48 -56.76,22.76 -110.24,55.22 -153.48,98.78 -30.14,31.18 -55.6,68.06 -68.24,109.9 -12.36,37.96 -15,79.26 -5.62,118.18 14.38,62.86 55.22,116.66 104.64,156.72 58.12,47.06 128.06,77.82 200.18,96.2 122.74,30.14 253.96,27.76 374.58,-10.78 64.02,-20.62 125.38,-51.9 175.92,-96.72 17.06,-15.18 32.74,-32 46.34,-50.36 l 0,117.74 c -19.32,13.76 -40.16,25.3 -61.24,36.12 C 884.64,722.38 798.74,744.74 712,754.02 608.9,764.42 503.66,756.48 403.92,727.94 334.1,707.76 266.62,677.38 208.24,633.7 159.42,597.12 116.86,550.32 91.82,494.2 70.08,445.98 63,390.86 74.44,339.02 87.72,275.18 125.88,218.92 173.3,175.18 222.2,130.32 280.72,96.92 342.32,72.78 z"
       id="path6"
       inkscape:connector-curvature="0"
       style="fill:#f5e5c1" />
    <path
       d="m 283.92,219.54 c 49.3,0.3 98.58,1.92 147.9,2.06 18.68,1.22 37.42,0.74 56.12,1.14 0.64,17.76 0.06,35.54 0.32,53.32 -0.04,4.78 0.5,9.88 -2.02,14.2 -33.34,68.18 -66.04,136.68 -99.62,204.76 28.76,0.18 57.48,1.4 86.24,1.26 -0.26,19.36 -1.78,38.66 -2.3,58.02 -55.68,-2.1 -111.36,-3.84 -167.04,-6.34 0,-13.34 0.06,-26.68 -0.06,-40 0.06,-3.7 -0.26,-7.62 1.84,-10.86 36.16,-66 72.48,-131.94 108.58,-198 -43.26,-0.1 -86.5,-0.06 -129.76,-0.02 -0.16,-26.52 0.14,-53.02 -0.2,-79.54 z"
       id="path10"
       inkscape:connector-curvature="0"
       style="fill:#f5e5c1" />
    <path
       d="m 683.24,341.14 c 38.22,0.16 76.4,1.86 114.62,1.84 0.68,10.34 0.28,20.7 0.4,31.06 0.3,4.04 -1.5,7.72 -3.24,11.24 -18.22,36.98 -35.9,74.24 -54.14,111.2 16.18,0.2 32.38,0.58 48.56,0.56 -0.4,10.84 -0.72,21.66 -1.06,32.5 -31.38,-0.54 -62.7,-2.42 -94.06,-3.34 0.18,-8.86 -0.32,-17.7 0.18,-26.54 1.96,-5.92 5.78,-11.02 8.58,-16.56 17.54,-32.5 35.92,-64.56 53,-97.3 -24.24,1.22 -48.52,0.02 -72.76,0.54 -0.14,-15.08 -0.02,-30.14 -0.08,-45.2 z"
       id="path12"
       inkscape:connector-curvature="0"
       style="fill:#f5e5c1" />
    <path
       d="m 517.46,358.4 c 42.32,0.42 84.64,1.4 126.96,2.06 0.06,13.08 0.68,26.24 -0.22,39.3 -21.18,43.12 -41.92,86.48 -63.06,129.62 17.86,-0.04 35.72,0.76 53.58,1 -0.36,12.04 -1.32,24.08 -1.66,36.14 -34.52,-1.82 -69.06,-2.68 -103.58,-4.14 0.72,-10.52 -1.56,-21.52 1.18,-31.72 22.32,-41.08 45.06,-81.94 67.36,-123.02 -26.86,-0.16 -53.7,-0.14 -80.56,0 -0.06,-16.42 -0.02,-32.82 0,-49.24 z"
       id="path14"
       inkscape:connector-curvature="0"
       style="fill:#f5e5c1" />
    <path
       d="m 868.5,482.5 c 14.1,-2.66 31.24,6.24 32.62,21.54 1.38,13.84 -11.86,24.86 -24.84,25.48 -13.3,1.58 -28.6,-7.26 -30.16,-21.32 -1.76,-13.06 10.06,-24.24 22.38,-25.7 z"
       id="path16"
       inkscape:connector-curvature="0"
       style="fill:#f5e5c1" />
    <path
       d="m 936.96,483.48 c 14.64,-4.76 33.58,2.58 37.48,18.36 3.62,15.68 -11.68,29.42 -26.58,29.34 -13.58,1 -28.94,-8.58 -29.64,-23.1 -1.1,-11.52 8.16,-21.58 18.74,-24.6 z"
       id="path18"
       inkscape:connector-curvature="0"
       style="fill:#f5e5c1" />
    <path
       d="m 240.9,713.28 c 20.74,-2.78 42.78,-0.4 61.08,10.32 14.68,8.2 26.72,21.74 31.04,38.2 5.42,18.8 -3.24,39.14 -17.12,52 -26.6,24.14 -68.2,27.78 -100.08,12.52 -16.32,-7.96 -30.82,-22.04 -35.28,-40.08 -1.78,-12.02 -1.96,-25.2 4.24,-36.08 11,-20.74 33.42,-33.32 56.12,-36.88 z"
       id="path20"
       inkscape:connector-curvature="0"
       style="fill:#f5e5c1" />
    <path
       d="m 160.94,837.28 c 29.02,-6.92 64.56,2.82 79.68,30.12 7.02,12.96 6.7,29.58 -0.94,42.22 -9.42,16.26 -27.3,26 -45.38,29.28 -14.4,1.22 -29.54,1.84 -43.18,-3.84 -13.14,-4.86 -25.02,-13.94 -32,-26.22 -8.02,-13.98 -7.16,-32.44 2.04,-45.66 9.08,-13.56 24.1,-22.24 39.78,-25.9 z"
       id="path22"
       inkscape:connector-curvature="0"
       style="fill:#f5e5c1" />
    <path
       d="m 50.26,936.5 c 17.78,-4.04 37.7,-0.32 51.66,11.76 10.12,8.78 16.12,23.54 11.38,36.64 -4.18,12.86 -15.48,22.12 -27.88,26.64 -21.66,7.4 -49.02,3.38 -63.9,-15.22 -8.38,-10.02 -10.06,-25.02 -3.9,-36.56 6.5,-12.36 19.36,-20.14 32.64,-23.26 z"
       id="path24"
       inkscape:connector-curvature="0"
       style="fill:#f5e5c1" />
  </g>
</svg>
