<?xml version="1.0" encoding="UTF-8" standalone="no"?>
<svg
   xmlns:dc="http://purl.org/dc/elements/1.1/"
   xmlns:cc="http://creativecommons.org/ns#"
   xmlns:rdf="http://www.w3.org/1999/02/22-rdf-syntax-ns#"
   xmlns:svg="http://www.w3.org/2000/svg"
   xmlns="http://www.w3.org/2000/svg"
   xmlns:sodipodi="http://sodipodi.sourceforge.net/DTD/sodipodi-0.dtd"
   xmlns:inkscape="http://www.inkscape.org/namespaces/inkscape"
   width="1280"
   height="1280"
   viewBox="0 0 1024 1024"
   version="1.1"
   id="svg2"
   inkscape:version="0.48.1 "
   sodipodi:docname="knock_into_train.svg">
  <metadata
     id="metadata34">
    <rdf:RDF>
      <cc:Work
         rdf:about="">
        <dc:format>image/svg+xml</dc:format>
        <dc:type
           rdf:resource="http://purl.org/dc/dcmitype/StillImage" />
      </cc:Work>
    </rdf:RDF>
  </metadata>
  <defs
     id="defs32" />
  <sodipodi:namedview
     pagecolor="#ffffff"
     bordercolor="#666666"
     borderopacity="1"
     objecttolerance="10"
     gridtolerance="10"
     guidetolerance="10"
     inkscape:pageopacity="0"
     inkscape:pageshadow="2"
     inkscape:window-width="1920"
     inkscape:window-height="1018"
     id="namedview30"
     showgrid="false"
     inkscape:snap-page="true"
     fit-margin-top="0"
     fit-margin-left="0"
     fit-margin-right="0"
     fit-margin-bottom="0"
     inkscape:zoom="0.6609375"
     inkscape:cx="466.00473"
     inkscape:cy="640"
     inkscape:window-x="-8"
     inkscape:window-y="-8"
     inkscape:window-maximized="1"
     inkscape:current-layer="layer1" />
  <g
     inkscape:groupmode="layer"
     id="layer1"
     inkscape:label="background">
    <rect
       style="fill:#3e3e3e;fill-opacity:1;stroke:none"
       id="rect3012"
       width="1024"
       height="1024"
       x="0"
       y="0" />
  </g>
  <g
     inkscape:groupmode="layer"
     id="layer2"
     inkscape:label="foreground">
    <path
       d="m 335.2,50.34 c 25.26,-1.82 50.48,-3.8 75.74,-5.66 -8.3,52.52 -16.42,105.04 -24.64,157.54 -1.02,-2.1 -2.06,-4.22 -2.78,-6.46 C 367.64,147.22 351,98.92 335.2,50.34 z"
       id="path6"
       inkscape:connector-curvature="0"
       style="fill:#f4722b" />
    <path
       d="m 101.9,166.34 c 13.46,-16.86 26.26,-34.22 39.98,-50.86 47.22,59.12 94.84,117.94 142,177.1 -60.8,-41.86 -121.4,-84.04 -181.98,-126.24 z"
       id="path8"
       inkscape:connector-curvature="0"
       style="fill:#f4722b" />
    <path
       d="m 792.1,178.14 c 6.38,-4.24 14.48,-4.72 21.94,-4.76 18.8,1.02 36.26,9.2 52.42,18.3 27.78,16.06 52.86,36.3 76.9,57.44 -4.04,-14.14 -9.94,-27.88 -18.94,-39.6 -2.56,-3.66 -5.94,-7.02 -7,-11.48 -0.88,-7.48 2.96,-16.3 10.58,-18.66 10.38,-1.6 21.04,0.3 30.88,3.76 25.74,9.6 46.48,28.66 65.12,48.3 l 0,42.06 c -18.66,-23.16 -39.14,-45.96 -65.36,-60.72 10.24,20.04 15.74,42.74 13.98,65.28 0.18,11.14 -14.58,19.6 -23.82,13.12 -36.64,-33.38 -74.04,-68.3 -120.48,-87.48 12.18,20 21.28,41.88 26.76,64.66 0.88,5.5 1.78,12.08 -2.18,16.64 -3.9,5.12 -11.76,6.4 -17.26,3.26 -40.38,-26.96 -83.34,-52.74 -131.46,-62.66 16.48,15.84 30.84,34.68 37.92,56.66 2.62,6.8 -1.42,14.92 -8.18,17.3 -6.16,2.76 -12.22,-1.36 -17.86,-3.48 -27.98,-11.6 -56.7,-21.68 -86.18,-28.76 -17.92,-4.18 -36.34,-7.56 -54.82,-5.92 16.02,9.98 31.52,21.4 43,36.6 5.72,7.82 12.7,15.84 13.58,25.92 0.9,8.32 -7.58,15.94 -15.78,14.02 -29.08,-5.02 -58.42,-8.78 -87.94,-9.92 -8.64,-0.18 -17.82,-1.84 -26,1.88 -5.8,2.38 -11.48,5.04 -17.22,7.54 21.5,8.64 42.72,19.88 58.34,37.38 6.18,6.58 5.86,19 -2,24.18 -3.68,2.9 -8.6,2.04 -12.92,2.02 -32.88,-1.44 -66.02,-0.8 -98.52,4.74 -15.4,2.8 -30.9,6.46 -44.88,13.76 22.3,3.18 44,12 61.34,26.56 8.86,6.32 7.08,22.52 -3.08,26.58 -48.52,10.7 -98.86,20.98 -141.44,47.92 22.9,1.34 45.42,6.66 66.82,14.84 4.86,2.02 10.12,4.5 12.76,9.32 3.68,6.36 0.86,15.54 -5.9,18.5 -45.42,17.54 -91.52,37.62 -127.5,71.3 22.36,-4.42 46,-5.2 67.96,1.66 6.84,1.74 11.4,9.08 9.8,16 -0.6,4.34 -3.98,7.5 -7.52,9.7 -26.46,16.3 -52.02,34.22 -75.72,54.38 -15.16,13.26 -29.94,27.44 -40.4,44.84 23.3,-11.06 49.5,-16.96 75.3,-13.88 5.68,0.94 11.86,3.54 14.18,9.24 2.64,5.18 0.9,11.6 -3.24,15.44 -26.92,26.68 -52.32,55.1 -73.62,86.5 -5.08,6.72 -5.24,15.44 -6.38,23.44 20.38,-8.88 39.26,-22.18 61.78,-25.18 12.74,-3.34 26.1,12.86 16.46,23.72 -15.62,21.62 -29.82,44.3 -41.86,68.12 -10.38,20.66 -19.3,42.42 -22.44,65.46 15.38,-16.88 34.46,-30.98 56.58,-37.52 10.58,-3.7 23.76,8.38 19.4,19.28 -3.54,9.42 -7.28,18.78 -10.72,28.26 l -28.96,0 c 1.12,-3.04 2.14,-6.08 3.16,-9.14 -3.72,3.04 -7.36,6.18 -11.14,9.14 l -55.86,0 c -0.3,-20.78 5.46,-41.08 13.04,-60.24 9.14,-23.46 21.66,-45.38 34.5,-66.96 -16.24,7.1 -29.48,19.22 -42.66,30.76 -5.28,4.7 -12.9,3.76 -19.4,3.5 -8.48,-0.52 -13.96,-9.38 -14.62,-17.14 -1.02,-19.86 7.6,-38.58 17.06,-55.52 17.72,-30.52 40.72,-57.56 64.5,-83.48 -17.66,3.48 -34.66,10.28 -49.4,20.66 -5.96,4.54 -14.14,2.48 -20.02,-1.08 -5.3,-3.62 -6.14,-10.58 -6.76,-16.46 -1.26,-18.5 9.16,-35.12 20.28,-48.98 22.98,-27.9 52.34,-49.58 81.6,-70.44 -15.3,1.38 -30.48,4.88 -44.4,11.42 -5.84,3 -13.22,4.36 -19.18,0.94 -5.86,-3.14 -8.36,-10.52 -6.08,-16.7 6.34,-19.76 20.82,-35.6 36.22,-48.92 26.98,-22.6 58.5,-38.88 90.38,-53.36 -16.3,-3.56 -33.12,-4.9 -49.74,-2.86 -9.2,1.4 -20.2,-5.06 -20.1,-15.18 3.68,-18.18 18.66,-31.26 33.78,-40.58 34.1,-20.68 73.2,-30.54 111.34,-40.84 -13.86,-4.42 -28.28,-7.74 -42.92,-7.12 -5.02,-0.24 -10.78,1.24 -15.12,-2.02 -6.32,-4.42 -10.84,-13.58 -6.1,-20.72 10.34,-17.28 28.68,-27.76 47.14,-34.42 31.86,-11.22 65.88,-13.98 99.4,-15.34 -9.58,-6 -18.94,-12.82 -29.96,-15.94 -6.1,-1.7 -12.28,-3.34 -17.9,-6.34 -5.24,-2.84 -12.52,-2.42 -15.94,-8.02 -5.06,-7.1 -1.38,-17.04 4.56,-22.38 15.2,-12.3 35.1,-16.3 54.06,-18.44 35.5,-3.44 71.22,-0.14 106.52,4.02 -12.54,-12.38 -27.76,-21.94 -44.32,-27.92 -8.16,-2.44 -12,-12.08 -11.06,-19.92 2.48,-7.64 9.36,-12.94 16.02,-16.88 14.84,-7.96 32.42,-8.4 48.84,-6.92 34.66,3.24 67.96,14.22 100.7,25.48 -10.72,-12.96 -24.04,-23.5 -38.6,-31.86 -9.46,-5.24 -11.52,-21.4 -0.74,-26.34 18.04,-6.82 38.06,-5.24 56.6,-1.36 36.72,8.22 70.38,25.84 102.76,44.5 -6.62,-14.96 -14.48,-29.64 -25.88,-41.54 -6.48,-6.36 -8.44,-18.7 -0.78,-24.92 z"
       id="path10"
       inkscape:connector-curvature="0"
       style="fill:#f5e5c1" />
    <path
       d="m 75.22,330.28 c 64.98,21.54 129.82,43.52 194.94,64.64 -63.4,5.36 -126.88,9.94 -190.32,14.54 -1.26,-26.4 -3.04,-52.8 -4.62,-79.18 z"
       id="path14"
       inkscape:connector-curvature="0"
       style="fill:#f4722b" />
    <path
       d="m 747.04,499.74 c 92.14,-24.32 193.42,-12.36 276.96,33.62 l 0,18.98 C 937.58,501.78 829.76,490.42 734.42,520.58 667.5,541.48 607.16,582.54 562.78,636.78 522.52,685.74 495.46,745.46 485.46,808.08 473.6,881 484.38,957.6 516.9,1024 l -18.24,0 c -34.6,-74.2 -43.06,-159.9 -25.5,-239.74 15.32,-69.8 51.06,-134.96 101.66,-185.4 47.2,-47.62 107.34,-82.26 172.22,-99.12 z"
       id="path16"
       inkscape:connector-curvature="0"
       style="fill:#f5e5c1" />
    <path
       d="m 813.98,614.26 c 76.14,-9.66 156.5,17.38 210.02,72.62 l 0,68.82 c -19.94,-31.92 -48.3,-58.64 -81.74,-75.98 -35.48,-18.7 -76.44,-26.74 -116.34,-23.04 -46.88,3.96 -92.16,24.46 -126.08,57.04 -36.02,33.84 -59.28,80.84 -64.4,129.98 -7.56,66.74 19.04,136.64 70.28,180.3 l -59.66,0 c -41.58,-50.86 -60.84,-118.92 -53.8,-184.1 5.76,-58.76 33.3,-114.96 75.78,-155.9 39.32,-38.32 91.4,-63.32 145.94,-69.74 z"
       id="path20"
       inkscape:connector-curvature="0"
       style="fill:#f5e5c1" />
    <path
       d="m 843.05,760.45 c -4.6613,-0.004 -9.33374,0.34374 -13.95,1 -17.7,2.52 -34.7,9.91 -48.6,21.15 -24.32,19.32 -38.98,50.27 -38.2,81.35 -0.2,23.38 8.43,46.52 23.15,64.6 18.84,23.24 48.43,37.61 78.45,36.95 28.92,0.1 57.37,-13.56 75.85,-35.7 17.74,-20.76 26.45,-48.86 23.85,-76 -2.28,-30 -18.8,-58.52 -43.6,-75.5 -16.5425,-11.6675 -36.75106,-17.83178 -56.95,-17.85 z m -1.3,27.45 c 14.82938,-0.24374 29.72499,4.02499 41.95,12.5 18.54,12.38 30.76,33.47 32.7,55.65 3.04,29.3 -12.82,59.73 -39,73.45 -17.3,9.54 -38.64,11.36 -57.3,4.9 -18.72,-6.18 -34.45,-20.43 -42.95,-38.15 -10.2,-20.74 -10.15,-46.17 0.15,-66.85 9.58,-19.76 28.27,-34.91 49.75,-39.75 4.82501,-1.09499 9.75688,-1.66875 14.7,-1.75 z"
       id="path24"
       style="fill:#f5e5c1"
       inkscape:connector-curvature="0" />
    <path
       d="m 250.34,1024 c 3.78,-2.96 7.42,-6.1 11.14,-9.14 -1.02,3.06 -2.04,6.1 -3.16,9.14 l -7.98,0 z"
       id="path28"
       inkscape:connector-curvature="0"
       style="fill:#3e3e3e" />
  </g>
</svg>
