<?xml version="1.0" encoding="UTF-8" standalone="no"?>
<svg
   xmlns:dc="http://purl.org/dc/elements/1.1/"
   xmlns:cc="http://creativecommons.org/ns#"
   xmlns:rdf="http://www.w3.org/1999/02/22-rdf-syntax-ns#"
   xmlns:svg="http://www.w3.org/2000/svg"
   xmlns="http://www.w3.org/2000/svg"
   xmlns:sodipodi="http://sodipodi.sourceforge.net/DTD/sodipodi-0.dtd"
   xmlns:inkscape="http://www.inkscape.org/namespaces/inkscape"
   width="1280"
   height="1280"
   viewBox="0 0 1024 1024"
   version="1.1"
   id="svg2"
   inkscape:version="0.48.1 "
   sodipodi:docname="max_stuns.svg">
  <metadata
     id="metadata62">
    <rdf:RDF>
      <cc:Work
         rdf:about="">
        <dc:format>image/svg+xml</dc:format>
        <dc:type
           rdf:resource="http://purl.org/dc/dcmitype/StillImage" />
      </cc:Work>
    </rdf:RDF>
  </metadata>
  <defs
     id="defs60" />
  <sodipodi:namedview
     pagecolor="#ffffff"
     bordercolor="#666666"
     borderopacity="1"
     objecttolerance="10"
     gridtolerance="10"
     guidetolerance="10"
     inkscape:pageopacity="0"
     inkscape:pageshadow="2"
     inkscape:window-width="1920"
     inkscape:window-height="1018"
     id="namedview58"
     showgrid="false"
     fit-margin-top="0"
     fit-margin-left="0"
     fit-margin-right="0"
     fit-margin-bottom="0"
     inkscape:zoom="0.6609375"
     inkscape:cx="466.00473"
     inkscape:cy="640"
     inkscape:window-x="-8"
     inkscape:window-y="-8"
     inkscape:window-maximized="1"
     inkscape:current-layer="layer1"
     inkscape:snap-page="true" />
  <g
     inkscape:groupmode="layer"
     id="layer1"
     inkscape:label="background">
    <rect
       style="fill:#3e3e3e;fill-opacity:1;fill-rule:nonzero;stroke:none"
       id="rect3012"
       width="1280"
       height="1280"
       x="0"
       y="0"
       transform="scale(0.8,0.8)" />
  </g>
  <g
     inkscape:groupmode="layer"
     id="layer2"
     inkscape:label="foreground">
    <path
       d="m 179.94,131.6 c 25.74,-7.06 53.26,-0.2 76.28,12.16 46.76,24.48 87.26,58.84 127.58,92.5 31.34,27.58 62.78,55.18 91.9,85.12 C 424.28,284.56 373.34,247.06 322.1,210 c -27.3,-20.46 -53.94,-42.76 -85.52,-56.42 -18.54,-8.24 -39.74,-8.96 -59.26,-4.06 -17.52,5.04 -30.48,19.74 -38.38,35.58 -3.12,10.68 -4.9,22.04 -2.36,33.06 1.04,16.8 9.12,31.78 13.46,47.74 7.34,15.78 16.08,30.9 22.84,46.94 -6.8,-9.96 -12.48,-20.64 -18.96,-30.8 -9.64,-15.22 -18.52,-31.24 -22.92,-48.82 -3.68,-14.78 -5.74,-30.04 -5.74,-45.26 8.1,-25.74 28.14,-48.9 54.68,-56.36 z"
       id="path6"
       inkscape:connector-curvature="0"
       style="fill:#e86d2a" />
    <path
       d="m 193.82,162.24 c 5.6,-7.84 16.08,-5.22 23.44,-1.6 16.46,7.4 35.32,10.68 49.1,23.04 53.46,41.94 107.06,83.68 160.5,125.66 22.04,20.12 44.06,40.28 65.9,60.64 -1.36,6.18 -2.78,12.34 -4.26,18.5 C 432.58,337.4 376.9,286.1 321.02,235 c -8.68,-8.06 -17.14,-16.56 -27.3,-22.76 -18.4,-12.2 -36.46,-24.92 -55.08,-36.74 -14.48,-5.7 -29.86,-9.02 -44.82,-13.26 z"
       id="path8"
       inkscape:connector-curvature="0"
       style="fill:#e86d2a" />
    <path
       d="m 347.42,194.76 c 4.5,2.02 8.88,4.3 13.06,6.9 64.42,39.06 129.6,76.84 194.02,115.9 1.32,0.94 2.6,1.9 3.88,2.92 -6.54,3.06 -13.32,5.52 -20.3,7.32 -54.26,-37.08 -108.26,-74.52 -162.76,-111.26 -9.62,-6.8 -20.92,-11.88 -27.9,-21.78 z"
       id="path10"
       inkscape:connector-curvature="0"
       style="fill:#e86d2a" />
    <path
       d="m 502.58,269.32 c 172.94,-24.24 351.9,-9.96 517.4,46.56 0.04,5.92 0.02,11.84 -0.06,17.76 -36.28,-11.4 -72.46,-23.28 -107.84,-37.26 -10.62,-4.42 -22.12,-5.36 -33.42,-6.56 -24.32,-2.02 -48.5,-5.54 -72.62,-9.18 -24.78,-0.74 -49.58,-1.74 -74.28,-4.26 -21.1,-3.36 -42.52,-1.52 -63.78,-2.04 -23.34,0.24 -46.68,-0.52 -69.98,0.58 -19.38,2.08 -38.86,3.5 -58.02,7.2 -6.08,1.34 -12.1,2.98 -18.32,3.42 -6,-5.78 -11.92,-11.82 -19.08,-16.22 z"
       id="path12"
       inkscape:connector-curvature="0"
       style="fill:#f4e4c0" />
    <path
       d="m 827.88,289.84 c 2.2,-3.16 6.46,-5.22 9.94,-2.54 -0.54,5.76 -5.64,9.22 -9.1,13.32 -30.78,32 -62.36,63.28 -94.5,93.9 0.92,-5.06 5.54,-7.88 8.7,-11.5 28.26,-31.1 56.66,-62.1 84.96,-93.18 z"
       id="path14"
       inkscape:connector-curvature="0"
       style="fill:#e86d2a" />
    <path
       d="m 353.98,301.34 c 4.38,-1.48 8.9,-2.58 13.54,-2.98 2.56,3.26 5.32,6.36 8.16,9.38 -11.86,2.48 -22.86,7.72 -34.12,12.04 -34.22,13.78 -68.76,27.12 -101.16,44.88 -19.84,10.18 -39.76,20.22 -59.38,30.78 -14.64,7.92 -25.82,20.54 -39.08,30.36 -14.1,11.28 -28.34,22.44 -42.48,33.72 -22.12,16.98 -41.42,37.2 -62.14,55.8 -8.52,8.4 -18.26,16.06 -24.46,26.46 -1.68,-15.88 -0.72,-31.94 -0.68,-47.88 0.34,-0.56 1.02,-1.64 1.36,-2.18 27.88,-27.82 58.26,-53.28 91.26,-74.78 75.84,-52.14 161.04,-89.72 249.18,-115.6 z"
       id="path16"
       inkscape:connector-curvature="0"
       style="fill:#f4e4c0" />
    <path
       style="fill:#f5e5c1"
       d="m 594.35,339.2 c -20.01238,0.48811 -39.89374,8.91563 -53.55,23.65 -14.08,13.78 -21.25,33.57 -21.75,53.05 0.44,20 8.04,40.28 22.7,54.2 14.82,15.6 36.85,23.44 58.15,22.7 7.3,0 13.95,-3.72 21.25,-3.8 10.1,-6.64 23.45,-8.96 30.85,-19.2 5.74,-7.6 12.91,-14.37 16.15,-23.55 1.9,-12.8 6.56,-25.55 4.2,-38.65 -3.1,-30.12 -25.54,-57.18 -54.8,-65.2 -7.50374,-2.34 -15.36907,-3.39101 -23.2,-3.2 z M 631,353 c 4.35282,0.27187 8.57,6.28501 4.1,10.05 -4.6,5.98 -14.3,-3.14 -8.2,-8.1 1.15501,-1.48499 2.64906,-2.04062 4.1,-1.95 z m 5.1,13.9 c 1.80421,-0.0771 3.62,0.50875 4.95,1.9 3.6,2.44 0.96,7.26 -0.6,10.2 -3.08,0.22 -6.19,0.38 -9.25,0.5 -0.98,-2.78 -3.5,-6.53 -0.9,-9.15 1.1925,-2.11501 3.4803,-3.3509 5.8,-3.45 z m -78.85,13.65 c 6.83578,-0.17842 8.68312,12.45062 0.4,12.65 -7.28,1.58 -9.7,-10.56 -2.7,-12.2 0.80813,-0.32062 1.59285,-0.43154 2.3,-0.45 z m -20.75,2.5 c 4.06032,0.0609 8.27,4.67 5.6,8.75 -1.72,4.02 -7.87,7.33 -11.15,3.35 -3.46,-3.04 -1.7,-8.29 1.8,-10.45 1.06499,-1.18499 2.39656,-1.67032 3.75,-1.65 z m 109.85,0.1 c 2.26125,-0.002 4.31499,1.32501 6.25,2.6 0,1.64 0.08,4.91 0.1,6.55 -2.78,1.76 -7.17,4.26 -9.75,0.8 -3.3,-2.52 -1.77,-7.25 1.05,-9.45 0.79499,-0.34499 1.59626,-0.49938 2.35,-0.5 z m -67.15,5.95 c 4.62,2.86 4.63,8.85 0.05,11.75 l -4.5,0 c -4.6,-2.86 -4.59,-8.8 -0.05,-11.7 1.14,-0.02 3.38,-0.05 4.5,-0.05 z m 79.3,1.85 c 5.58333,-0.26032 9.08499,7.8975 3.45,11.45 -6.9,3.32 -12.35,-6.74 -5.95,-10.8 0.8625,-0.4175 1.70238,-0.61282 2.5,-0.65 z m -71.6,12.25 c 1.04,0.02 3.14,0 4.2,0 1.32,1.26 2.64,2.54 4,3.8 0.02,3.32 -1.74,5.96 -4,8.2 -3.18,-0.22 -5.98,-1.54 -8,-4 0.06,-1.12 0.11,-3.28 0.15,-4.4 1.2,-1.2 2.43,-2.4 3.65,-3.6 z m 7.9,19.9 c 1.1,0 3.33,0.05 4.45,0.05 2.46,2 3.77,4.79 3.95,7.95 -2.18,2.3 -4.89,3.95 -8.15,3.95 -1.36,-1.36 -2.74,-2.71 -4.1,-4.05 -0.12,-3.22 1.45,-5.86 3.85,-7.9 z m 4,16.25 c 2.2725,-0.0825 4.54,1 6.05,3.4 l 0,4.55 c -2.1,2.38 -4.85,3.84 -8.05,3.9 -2.2,-2.28 -3.86,-4.96 -4,-8.2 1.48,-2.33 3.7275,-3.5675 6,-3.65 z m -4.85,13.85 c 1.14,0.7 3.41,2.1 4.55,2.8 3.32,7.56 -3.48,13.68 -6.8,19.8 -2.2,4.52 -8.87,7.39 -12.75,3.25 -2.6,-1.8 -2.17,-5.92 -0.05,-7.9 3.92,-4.58 6.78,-9.92 9,-15.5 2.02,-0.82 4.03,-1.63 6.05,-2.45 z"
       id="path18"
       inkscape:connector-curvature="0" />
    <path
       d="m 870.16,359.78 c 4.52,-1.14 11.34,-3.62 13.46,2.48 -5.26,3.64 -11.76,4.24 -17.82,5.68 -31.48,6.64 -62.96,13.32 -94.56,19.26 32.68,-10.08 66,-18.1 98.92,-27.42 z"
       id="path22"
       inkscape:connector-curvature="0"
       style="fill:#e86d2a" />
    <path
       d="m 705.36,377.04 c 2.5,-5 3.76,-10.94 8.56,-14.38 2.44,1.96 6.06,3.04 7.46,6.06 1.7,3.58 -1.92,6.24 -3.74,8.88 -7.98,8.78 -14.68,18.7 -23.26,26.94 1.26,-9.98 6.7,-18.62 10.98,-27.5 z"
       id="path24"
       inkscape:connector-curvature="0"
       style="fill:#e86d2a" />
    <path
       d="m 720.05,430.7 c -13.08,3.06 -27,3.11 -39.3,9.05 3.3,12.72 -8.18,21.09 -15.7,29.25 -6.26,5.76 -10.21,14.54 -18.95,17 -11.16,5.9 -22.34,13.58 -35.5,13.5 -4.44,4.8 -7.76,10.49 -12,15.45 -6.88,7.92 -10.12,18.37 -17.8,25.65 -6.46,0.78 -15.22,-1.68 -19.2,5.1 -7.78,12.82 -16.52,25.14 -23,38.7 -4.38,8.86 -6.24,18.6 -9.4,27.9 -1.48,7 -2.17,15.94 4.35,20.7 l 6.55,-0.25 c -0.72,11.68 -7.28,21.47 -11.9,31.85 -11.5,0.62 -22.95,2.39 -34.25,4.55 -4.7,1.38 -9.2,-3.72 -13.7,-1 -5.64,2.86 -11.35,5.85 -15.85,10.35 -14.76,15.22 -29.5,30.44 -43.9,46 -16.58,14.66 -32.59,30.04 -46.95,46.9 -3.84,4.26 -6.2,9.75 -10.4,13.65 -5.62,2.66 -11.93,3.57 -17.35,6.75 -11.96,6.6 -25.26,10.14 -37.5,16.1 -20,10.3 -40.78,18.91 -60.7,29.35 -35.6,18.54 -72.15,35.95 -104.45,60.05 -11.92,8.66 -25.88,15 -35.5,26.5 -7.34,8.16 -18.08,12.18 -25.3,20.5 -6.94,8.06 -17.61,11.49 -24.35,19.75 -5.36,6.26 -12.98,9.53 -19.4,14.45 -9.18,10.36 -7.36,25.2 -12.1,37.5 10.66,-0.18 21.31,0.5 31.95,-0.5 4.46,-14 4.26,-29.2 10.3,-42.7 18.88,-15.12 37.87,-30.19 57.25,-44.65 26.06,-15.62 49.49,-35.49 76.95,-48.75 35.28,-19.62 71.49,-37.49 108.15,-54.35 13.34,-7.48 28.37,-11.01 41.75,-18.35 6.7,-3.58 14.69,-4.3 20.85,-9 5.94,-3.64 8.12,-10.64 12.5,-15.7 9.82,-11.44 20.06,-22.54 31.2,-32.7 7.02,-5.94 14.04,-11.93 20,-18.95 -1.26,6.44 -2.75,13.05 -1.45,19.65 2.3,14.42 -0.35,29.41 4.45,43.45 4.26,28.72 18.07,54.58 28.55,81.3 1.56,9.96 0.09,20.05 -1.35,29.95 -1.72,22.46 -3.91,44.84 -5.95,67.3 0,7.68 -1.36,15.77 1.8,23.05 3.04,0.5 6.12,0.5 9.2,0.1 1.92,-4.64 3.07,-9.61 2.35,-14.65 -1.38,-12.1 -0.4,-24.32 1.4,-36.3 1.26,-19.2 3.25,-38.33 5.25,-57.45 7.58,-1.16 17.73,6.08 22.95,-2.1 -0.72,29.62 -10.72,57.95 -13.3,87.35 0.22,12.86 -2.07,26.32 2.35,38.7 2.86,0.14 5.77,0.13 8.65,0.05 2.84,-4.02 1.89,-8.68 0.75,-13.1 -3.38,-37.22 11.71,-72.74 13.55,-109.6 0,-4.52 -0.51,-9.91 -4.55,-12.75 -2.52,-0.14 -5.05,-0.16 -7.55,-0.1 -5.26,-9.1 -10.01,-18.49 -14.55,-27.95 -4.72,-12.14 -14.77,-21.59 -18.15,-34.35 -2.3,-9.2 -6.66,-17.73 -8.1,-27.15 -1.6,-9.68 -7.94,-17.86 -8.9,-27.7 -2.02,-8.66 0,-17.5 0.6,-26.2 1.78,-12.9 8,-25.95 19.4,-32.95 12.9,-9.58 29.12,-11.9 44.2,-16.1 -12.72,17.16 -26.7,33.31 -40,50.05 -5.02,6.66 -15.38,11.45 -14.3,21.05 0,6.26 9.65,9.3 13.45,4.3 8.58,-10.02 18.85,-18.95 25.25,-30.65 -1.26,8.1 -1.01,16.32 0.45,24.4 1.36,7.38 -0.54,15.61 3.8,22.25 8.66,14.7 15,30.84 25.8,44.2 4.56,4.56 3.21,11.9 7.75,16.5 8.68,9.82 15.82,21.24 26.2,29.4 6.26,2.84 10.46,8.36 15.9,12.3 12.2,3.68 25.15,4.45 37.15,8.95 9.48,3.58 19.72,4.01 29.5,6.45 5.88,1.4 12.59,2.9 17.75,-1.3 9.4,1.48 18.91,-0.38 28.35,0.4 8.82,0.54 17.7,-0.02 26.4,-1.6 26.1,-4.14 52.13,-8.62 77.75,-15.1 3.58,-0.84 7.28,-1.72 10.4,-3.8 6.76,-19.72 11.75,-40.28 20.05,-59.5 7.22,-33.82 18.86,-66.55 29.3,-99.45 3,-4.56 4.35,-9.75 3.25,-15.15 -2.5,0.22 -4.99,0.47 -7.45,0.85 -0.12,6.8 -4.24,12.46 -5.5,19 -2.38,10.18 -7.01,19.67 -9.75,29.75 -4.86,14.48 -8.68,29.3 -12.8,44 -3.4,7.8 -3.13,16.64 -6.85,24.3 -4.56,9.84 -6.79,20.51 -10.25,30.75 -1.88,6.56 -4.95,12.8 -5.95,19.6 -29.8,8.72 -60.68,13.31 -91.3,18.25 -14.36,0.7 -28.79,0.46 -43.15,0.1 1.84,-12.24 10.39,-23.84 6.95,-36.5 -3.34,-8.2 -13.81,-7.57 -20.95,-9.75 -16.64,-4.66 -34.03,-5.83 -50.65,-10.55 -3.72,-7.4 -7.97,-14.76 -9.05,-23.1 9.26,-3.08 18.93,-4.81 27.95,-8.65 4.42,-1.6 8.77,-4.31 13.65,-3.95 15.9,1.82 31.02,7.23 46.2,12.05 3.94,1.44 8.13,1.14 12.15,0.3 2.68,-3.86 3.68,-9.75 -1,-12.55 -17.76,-9.8 -38.23,-11.92 -57.55,-17.1 -10.28,-2.62 -20.7,0.2 -31,1 -9.48,0.8 -18.86,4.9 -28.4,2.2 2.22,-4.5 3.84,-9.34 2.6,-14.4 17.24,-19.7 35.13,-39.22 56.45,-54.6 3.08,-1.54 6.43,0 9.45,0.9 14.3,4.76 29.93,7.13 42.65,15.65 5.06,5.76 12.99,6.43 19.65,9.35 -2.2,-5.8 -3.18,-12.69 -8.2,-16.85 -11.08,-6.16 -23.66,-8.97 -35,-14.45 -6.92,-8.58 -9.11,-19.88 -13.55,-29.8 7.68,0.42 15.87,2.09 21.55,7.65 3.34,4.18 10.92,4.77 14.1,0.15 6.38,-12.28 13.5,-24.18 19.2,-36.8 3.9,-9.08 12.65,-17.24 9.55,-28 6.62,-9.18 8.23,-20.62 9.95,-31.5 1.66,-5.46 -4.38,-7.55 -7.9,-9.95 10.38,-3.44 19.22,-10.25 27.1,-17.65 8.72,0.78 17.18,3.02 25.8,4.5 11.14,2.32 23.14,5.58 30.6,14.9 3.14,4.56 10.72,5.98 14.4,1.3 11.7,-13.02 29.75,-19.35 39.45,-34.25 1.56,11.2 4.06,22.23 6.1,33.35 1.24,10.78 0.16,21.68 0.8,32.5 0.74,1 2.21,2.97 2.95,3.95 6.72,2.3 13.94,1.93 20.9,2.85 -1.84,12.12 -1.69,24.47 -3.85,36.55 -2.88,15.16 -1.04,30.93 -5.3,45.85 -5.44,4.36 -13.63,6.74 -15.75,14.1 -3.04,14.82 -3.35,31.27 4.65,44.65 1.56,4.52 6.38,6.07 10,8.55 7.5,4.14 12.45,11.4 19.05,16.7 -3.1,11.08 2.47,22.05 0.35,33.15 -1.94,11 -7.53,20.86 -12.75,30.6 -3.96,8.34 -12.44,12.9 -18.4,19.6 -13.78,12.78 -29.7,22.98 -45.9,32.4 -15.56,11.28 -33.62,18.13 -50.1,27.85 -6.72,4.28 -15.72,4.83 -21.1,11.05 -2.78,0.34 -5.54,0.71 -8.3,1.05 -10.78,15.96 -18.66,33.58 -28.3,50.2 -1.6,5.58 -9.24,11.86 -4.2,17.4 6.06,2.8 12.19,5.7 16.65,10.9 10.06,0.16 20.09,0.31 30.15,-0.15 10.52,-15.5 17.84,-32.79 26.2,-49.45 2.86,-4.54 7.86,-6.98 11.9,-10.3 18.76,-14.74 40.06,-25.96 57.9,-41.9 19.46,-14.96 39.29,-30.26 53.85,-50.3 4.34,-6.2 10.88,-11 13.1,-18.5 -2.06,26.18 -2.4,52.49 -1.8,78.75 -0.34,5.64 5.49,5.71 9.55,5.25 1.1,-2.98 2.18,-6 2,-9.2 0,-11.96 -0.07,-23.91 0.05,-35.85 5.84,7.36 14.32,11.71 21.3,17.85 7.76,6.84 16.27,12.83 23.15,20.65 13.34,11.36 22.68,27.02 37.5,36.7 6.08,3.94 8.96,10.79 9.9,17.75 2.4,-7.66 1.1,-15.74 1.4,-23.6 -21.2,-15.18 -35.04,-38.2 -56.1,-53.6 -11.42,-11.1 -26.52,-18.48 -35.3,-32.1 -0.88,-20.76 2.12,-41.86 -2.1,-62.4 -1.34,-0.22 -4.01,-0.71 -5.35,-0.95 -2.86,-8.24 -3.94,-17.23 -9,-24.55 -4.84,-5.9 -11.78,-9.56 -16.9,-15.2 -3.84,-4.28 -8.63,-7.5 -13.35,-10.7 -6.72,-4.1 -9.43,-12.43 -9.35,-19.95 0.08,-6.4 -0.94,-13.43 2,-19.35 3.76,-4.04 9.24,-5.97 14,-8.65 3.3,-12.42 4.34,-25.38 4.9,-38.2 0.6,-10.74 3.27,-21.24 3.45,-32 0.3,-8.8 3.02,-17.48 2,-26.3 -5.54,-6.96 -15.79,-7.05 -23.95,-7.45 -0.9,-11.3 0.99,-22.8 -1.75,-33.9 -3.9,-17.12 -5.61,-35.02 -12.75,-51.2 -1.32,-0.1 -3.98,-0.32 -5.3,-0.4 -4.06,-7.34 -4.51,-15.91 -7.75,-23.55 -3.28,-8.2 -5.99,-17.47 -13.45,-22.95 -9.94,-6.94 -19.93,-13.98 -31.15,-18.7 -6.4,-2.58 -11.76,-7 -17.8,-10.2 -6.32,-2.5 -12.86,-4.4 -19.3,-6.5 -14.8,-4.52 -30.41,-3.3 -45.65,-4.1 z M 687.4,544.35 c 3.55781,-0.13219 7.24,-0.19501 10.3,1.65 3.52,4.38 6.17,9.42 9.55,13.9 0.14,17.78 -9.42,33.79 -10.7,51.45 -3.74,-0.22 -7.57,-1.23 -11.25,-0.25 -3.9,4.22 -7.16,8.96 -10.8,13.4 -6.9,9.58 -15.87,17.53 -22.65,27.15 -0.7,4.92 0.56,9.8 1.4,14.6 -2,1.16 -3.97,2.34 -5.95,3.5 0.1,1.8 0.3,5.4 0.4,7.2 -6.02,0.46 -11.53,-3.04 -17.55,-2.4 -12.48,1.22 -25.48,2.41 -36.3,9.35 -5.08,8.16 -14.45,12.19 -21.55,18.35 -13.66,7.42 -19.18,22.7 -28.4,34.3 -1.22,0.14 -3.68,0.41 -4.9,0.55 1.5,-8.56 8.1,-14.74 12.5,-21.9 3.74,-6.12 9.16,-11.03 12.6,-17.35 4.92,-8.84 11.66,-16.6 15.6,-26 14.16,-6.14 29.95,-4.85 44.65,-8.85 4.64,-1.38 9.48,-1.58 14.3,-1.5 1.92,-2.44 3.89,-4.88 5.85,-7.3 0.84,-3.62 1.62,-7.26 2.3,-10.9 3.08,-2.48 6.24,-4.87 9.4,-7.25 -12.42,-1.76 -25.01,-2.16 -37.15,-5.6 -0.22,-1.66 -0.45,-3.34 -0.65,-5 3.58,-0.82 7.34,-1.19 10.7,-2.75 11.04,-7.14 23.43,-12.12 33.65,-20.5 -7.52,-4.44 -16.45,-4.52 -24.85,-5.6 -4.68,-0.26 -10.4,-1.52 -13.9,2.5 -3.36,-3.98 -8.5,-4.63 -13.4,-4.85 3.1,-10.58 10.47,-19.19 14.35,-29.45 1.9,-4.22 2.79,-10.02 7.95,-11.5 16.36,-5.74 33.8,-7.55 51,-8.85 1.13501,0.01 2.31406,-0.0559 3.5,-0.1 z"
       id="path42"
       style="fill:#f5e5c1"
       inkscape:connector-curvature="0" />
    <path
       d="m 364.32,490.94 c 15.02,-3.08 30.48,-0.46 45.66,-0.48 38.18,-0.12 76.36,0.86 114.52,0.46 -40.28,1.72 -80.48,4.44 -120.74,6.26 -13.08,0.24 -26.16,1.14 -39.22,0.14 -0.08,-2.14 -0.16,-4.26 -0.22,-6.38 z"
       id="path48"
       inkscape:connector-curvature="0"
       style="fill:#e86d2a" />
    <path
       d="m 492.9,523.98 c 16.5,-4.5 33.36,-7.58 50.06,-11.12 -5.42,3.72 -9.92,8.92 -15.86,11.76 -11.36,0.56 -22.84,0.48 -34.2,-0.64 z"
       id="path50"
       inkscape:connector-curvature="0"
       style="fill:#e86d2a" />
    <path
       d="m 764.32,624.28 c 6.48,0.74 12.76,2.56 18.88,4.8 2.22,3.64 4,7.54 5.14,11.68 -1.36,0.58 -4.1,1.72 -5.46,2.28 1.98,0.16 5.94,0.48 7.92,0.64 3.98,4.04 6.82,9.06 9.28,14.16 -8.4,6.74 -19.6,6.48 -28.72,11.62 -0.76,-15.28 -4.74,-30.12 -7.04,-45.18 z"
       id="path54"
       inkscape:connector-curvature="0"
       style="fill:#f4e4c0" />
    <path
       d="m 654.92,725.36 c 6.36,-3.04 12.94,1.18 19.18,2.58 6.48,1.92 14.48,1.32 19.3,6.88 4.26,4.08 1,13.02 -5.3,12.04 -11.4,-4.02 -23.54,-5.48 -34.56,-10.66 -0.9,-3.52 -2.28,-8.4 1.38,-10.84 z"
       id="path56"
       inkscape:connector-curvature="0"
       style="fill:#f4e4c0" />
  </g>
</svg>
