<?xml version="1.0" encoding="UTF-8" standalone="no"?>
<svg
   xmlns:dc="http://purl.org/dc/elements/1.1/"
   xmlns:cc="http://creativecommons.org/ns#"
   xmlns:rdf="http://www.w3.org/1999/02/22-rdf-syntax-ns#"
   xmlns:svg="http://www.w3.org/2000/svg"
   xmlns="http://www.w3.org/2000/svg"
   xmlns:sodipodi="http://sodipodi.sourceforge.net/DTD/sodipodi-0.dtd"
   xmlns:inkscape="http://www.inkscape.org/namespaces/inkscape"
   width="1280"
   height="1280"
   viewBox="0 0 1024 1024"
   version="1.1"
   id="svg2"
   inkscape:version="0.48.1 "
   sodipodi:docname="steal_sandwich.svg">
  <metadata
     id="metadata50">
    <rdf:RDF>
      <cc:Work
         rdf:about="">
        <dc:format>image/svg+xml</dc:format>
        <dc:type
           rdf:resource="http://purl.org/dc/dcmitype/StillImage" />
      </cc:Work>
    </rdf:RDF>
  </metadata>
  <defs
     id="defs48" />
  <sodipodi:namedview
     pagecolor="#ffffff"
     bordercolor="#666666"
     borderopacity="1"
     objecttolerance="10"
     gridtolerance="10"
     guidetolerance="10"
     inkscape:pageopacity="0"
     inkscape:pageshadow="2"
     inkscape:window-width="1920"
     inkscape:window-height="1018"
     id="namedview46"
     showgrid="false"
     fit-margin-top="0"
     fit-margin-left="0"
     fit-margin-right="0"
     fit-margin-bottom="0"
     inkscape:zoom="0.6609375"
     inkscape:cx="640"
     inkscape:cy="640"
     inkscape:window-x="-8"
     inkscape:window-y="-8"
     inkscape:window-maximized="1"
     inkscape:current-layer="svg2" />
  <path
     d="m 0,0 1024,0 0,1024 L 0,1024 0,0 z"
     id="path4"
     style="fill:#3e3e3e"
     inkscape:connector-curvature="0" />
  <path
     d="m 416.4,70.14 c 7.26,-10.3 13.92,-21.94 25.78,-27.56 1.3,0.18 3.9,0.54 5.18,0.72 1.9,0.88 3.78,1.76 5.7,2.62 7.92,3.92 15.86,7.86 23.86,11.64 38.46,18.06 75.44,39.04 112.26,60.18 43.36,26.24 88.36,49.92 129.82,79.14 10.04,8.82 23.74,16.76 25.78,31.18 0.08,7.84 -2.62,15.42 -3.96,23.1 -3.44,14.22 -5.8,28.66 -9.28,42.88 -1.76,7.76 -6.34,14.4 -9.96,21.36 -11.2,21.56 -22.7,42.96 -33.9,64.5 -7.82,15.46 -18.64,29.06 -27.88,43.64 -5.84,9.38 -14.1,16.84 -21.22,25.18 -9.02,9.82 -17.06,20.86 -28.18,28.46 -11.76,5.64 -23.06,12.14 -34.92,17.56 -0.76,-2.76 -2.36,-5.56 -1.5,-8.5 2.42,-14.66 7.36,-29.16 6.08,-44.2 -1.02,-15.84 0.6,-31.68 0.16,-47.5 -2.2,-20.84 -3.74,-41.8 -7.76,-62.4 10.26,-8.48 20.52,-16.98 30.36,-25.98 1.88,18.04 2.78,36.16 4.86,54.18 2.2,16.52 0.06,33.14 0.02,49.72 -0.12,17.7 -5.02,35.24 -2.96,52.98 9.06,1.84 14,-7.24 19.86,-12.36 14.5,-17 30.72,-33.04 41.08,-53.08 16.58,-28.98 32.14,-58.54 48.28,-87.76 6.66,-10.16 7.82,-22.5 11.1,-33.94 3.28,-15.28 8.12,-30.32 9.84,-45.88 -2.4,-11.44 -11.06,-20.54 -20.44,-26.98 -32.48,-21.2 -65.86,-40.96 -98.82,-61.4 -27.76,-17.62 -57.18,-32.38 -85.7,-48.7 -25.76,-14 -50.96,-29.16 -77.3,-42.02 -2.98,1.1 -6.06,1.94 -8.88,3.42 -2.42,3.96 1.42,7.56 3.64,10.5 12.28,13.66 26.1,25.86 37.88,40 15.88,16.72 30.82,34.3 46.12,51.56 -9.72,9.72 -19.34,19.54 -29.44,28.86 C 491.1,167.7 479.7,150.5 468.8,132.98 464.34,125.66 457.62,120.16 452.52,113.34 440.88,98.62 428.78,84.26 416.4,70.14 z"
     id="path6"
     inkscape:connector-curvature="0"
     style="fill:#f5e5c1" />
  <path
     d="m 469.44,72.08 c 15.54,8.76 32.16,15.36 47.8,23.92 30.88,17.46 62,34.52 92.88,52.02 26.78,16.54 53.58,33 80.16,49.84 13.12,9.08 31.18,16.34 34.04,34.08 -4.6,22.12 -10.22,44.16 -16.18,65.96 -17.64,34.68 -37.32,68.28 -55.82,102.48 -3.06,5.96 -7.14,11.3 -11.52,16.32 -8.2,9.14 -15.56,18.96 -23.54,28.3 0.74,-7.04 1.88,-14 2.78,-21 1.56,-10.66 -0.72,-21.32 -0.56,-32 1.18,-26.96 -3.9,-53.64 -4.88,-80.52 15.54,-9.8 31.32,-19.44 45.02,-31.8 5.84,-5.52 9.6,-13.38 10.04,-21.4 -3.3,-12.6 -8.78,-24.78 -16.62,-35.22 -13.1,-15.2 -28.88,-28.02 -45.9,-38.58 -19.78,-9.36 -38.8,-20.62 -59.66,-27.46 -6.94,-2 -10.28,-8.92 -14.7,-13.98 -9.06,-10.22 -17.96,-20.6 -27.34,-30.52 -11.56,-13.88 -25.48,-25.68 -36,-40.44 z"
     id="path8"
     inkscape:connector-curvature="0"
     style="fill:#f5e5c1" />
  <path
     style="fill:#f4722b"
     d="M 454.59375 95.28125 C 447.74375 103.55625 441.40625 112.24375 434.78125 120.71875 C 449.95625 132.14375 467.4125 140.55 480.6875 154.375 C 509.1625 178.875 521.95625 215.28125 540.65625 246.78125 C 544.48125 252.65625 546.93125 260.9125 554.40625 263.0625 C 569.95625 268.3625 586.35625 271.1125 601.40625 277.9375 C 613.55625 283.4625 625.9125 288.6375 637.8125 294.6875 C 658.8625 307.0125 677.175 323.64375 692.875 342.21875 C 700.7 352.76875 707.7375 365.63125 706.6875 379.15625 C 702.1125 391.85625 695.75 404.29375 687.25 414.84375 C 670 432.54375 651.04375 448.49375 633.96875 466.34375 C 632.04375 468.69375 629.375 471.375 630.25 474.75 C 632.75 496.575 640.95625 517.2375 644.15625 538.9375 C 647.08125 558.4125 650.6375 577.9 651.3125 597.625 C 651.0125 627.375 649.9625 658.4125 636.6875 685.6875 C 644.3625 687.7875 652.0125 689.80625 659.8125 691.40625 C 679.4125 671.53125 700.28125 652.875 719.65625 632.75 C 714.38125 629.875 707.6125 628.0125 704.9375 622.0625 C 701.5625 615.5875 702.5375 607.95 704.0625 601.125 C 707.7375 586.05 711.575 570.7125 711 555.0625 C 710.325 534.3125 711.58125 513.5625 711.03125 492.8125 C 709.03125 468.3625 706.5875 443.86875 702.0625 419.71875 C 699.3375 412.24375 707.43125 408.50625 712.03125 404.53125 C 726.50625 394.08125 739.9375 382.24375 754.8125 372.34375 C 764.0375 366.26875 777.81875 363.7375 781.21875 351.6875 C 783.86875 337.5875 773.5625 325.1125 763.4375 316.6875 C 749.8375 307.1125 737.44375 295.625 722.34375 288.375 C 694.54375 274.075 664.7625 264.3125 635.8125 252.6875 C 627.6625 248.4125 618.9125 244.0125 614.0625 235.8125 C 602.2375 216.8625 589.4875 198.49375 577.8125 179.46875 C 574.6875 174.46875 571.21875 169.675 567.34375 165.25 C 550.19375 145.625 534.64375 124.65 517.34375 105.125 C 512.74375 98.925 504.44375 99.55 497.59375 99 C 483.19375 98.525 468.91875 96.60625 454.59375 95.28125 z M 456.75 103.4375 C 457.75 103.4875 459.75 103.6375 460.75 103.6875 C 483.175 123.9875 506.09375 143.8875 526.71875 166.0625 C 543.01875 187.8875 555.73125 212.0875 569.15625 235.6875 C 572.63125 242.8125 580.4375 245.425 587.0625 248.625 C 612.9875 260.875 640.6875 270.7625 662.5625 289.9375 C 683.7125 305.6375 707.34375 321.2625 718.59375 346.0625 C 723.79375 356.6375 719.76875 367.775 714.59375 377.375 C 711.64375 366.225 708.9625 354.69375 702.4375 344.96875 C 695.3875 332.44375 684.06875 323.24375 673.71875 313.59375 C 644.86875 288.16875 608.4375 274.2625 572.8125 261.3125 C 565.1625 257.9625 555.06875 257.05625 551.21875 248.53125 C 537.39375 225.10625 527.64375 199.5375 513.71875 176.1875 C 497.39375 151.4125 470.6125 137.2375 448.4375 118.5625 C 448.4625 117.4875 448.5125 115.3625 448.5625 114.3125 C 451.3125 110.7125 454.05 107.0875 456.75 103.4375 z M 650.875 457.15625 C 661.1 498.25625 668.9875 539.81875 676.5625 581.46875 C 681.4875 602.46875 675.875 623.8625 675.625 645.0625 C 675.95 659.3125 668.2875 671.525 662.5625 684 C 657.5625 684 652.5625 683.95 647.5625 683.875 C 649.1875 673.775 653.54375 664.4625 655.84375 654.5625 C 658.31875 639.8375 661.18125 624.99375 660.53125 609.96875 C 660.50625 588.86875 654.9 568.3625 653 547.4375 C 650.7 521.2625 641.84375 496.2 638.34375 470.25 C 641.69375 465.175 646.6 461.40625 650.875 457.15625 z "
     transform="scale(0.8,0.8)"
     id="path10" />
  <path
     d="m 360.9,116.26 c 2.48,1.06 4.94,2.14 7.4,3.24 -1.88,1.54 -3.76,3.08 -5.62,4.62 16.58,17.32 31.94,35.78 46.34,54.96 8.34,13.74 15.54,28.18 24.98,41.24 -4.76,10.94 -13.18,19.88 -18.92,30.32 -9.88,-13.92 -14.98,-30.66 -25.28,-44.34 -7.94,-10.74 -14.6,-22.56 -24.2,-31.98 -10.76,-10.66 -20.88,-21.98 -31.74,-32.54 8.94,-8.58 18.1,-16.94 27.04,-25.52 z"
     id="path14"
     inkscape:connector-curvature="0"
     style="fill:#f5e5c1" />
  <path
     d="m 510.24,190.4 c 9.06,-9.36 18.04,-18.82 27.4,-27.88 21.16,4.86 39.86,16.3 59.18,25.74 0.96,0.26 2.88,0.8 3.86,1.08 10.7,10.72 25,17.42 34.16,29.76 9.28,11.02 20.56,21.94 22.42,36.98 0.16,5.08 -2.3,9.74 -5.78,13.28 -5.04,6.06 -10.92,11.34 -16.98,16.36 5.64,-13.92 -2.64,-28.22 -12.76,-37.52 -8.86,-7.82 -18.64,-14.52 -28.16,-21.5 -10.2,-7.12 -22.06,-11.2 -33.12,-16.72 -1.96,-0.8 -3.92,-1.6 -5.86,-2.4 -5.02,-1.9 -9.98,-3.88 -14.98,-5.8 -9.72,-3.98 -19.7,-7.3 -29.38,-11.38 z"
     id="path16"
     inkscape:connector-curvature="0"
     style="fill:#f5e5c1" />
  <path
     d="m 422.64,258.12 c 6.04,-12.26 14.32,-23.28 20.84,-35.3 15.1,5.9 30.34,11.46 45.66,16.82 17.62,9.9 35.96,18.74 51.6,31.76 9.6,5.68 14.08,16.3 16.96,26.56 -1.2,16.16 -12.06,29.74 -24.24,39.6 -10.44,10.26 -22,19.24 -33.12,28.74 -4.5,5.92 -6.32,13.84 -5.92,21.2 3,21.5 7.66,42.78 9.72,64.4 0.54,16.78 2.74,33.48 1.58,50.28 -0.7,4.08 2.94,6.44 5.86,8.34 -0.48,3 -0.76,6.04 -1.56,9 -2.54,3.86 -7.22,5.42 -11.08,7.6 -10.32,4.74 -20.32,10.14 -30.74,14.58 -3.38,-10.24 -1.06,-21.18 -0.96,-31.72 0.12,-10.68 2.9,-21.2 1.84,-31.88 -2.42,-29.28 -4.16,-58.62 -6.58,-87.9 14.04,-11.14 27.26,-23.3 41.36,-34.32 12.48,-7.8 24.12,-17.22 33.2,-28.86 4.7,-6.04 6.98,-15.62 1.56,-21.92 -5.4,-6.62 -11.94,-12.66 -20,-15.82 -10.56,-4.38 -20.8,-9.52 -31.66,-13.12 -2.76,-0.76 -5.52,-1.44 -8.24,-2.2 -14.62,-3.16 -29.1,-6.84 -43.24,-11.7 -4.3,-1.34 -8.64,-2.54 -12.84,-4.14 z"
     id="path18"
     inkscape:connector-curvature="0"
     style="fill:#f5e5c1" />
  <path
     d="m 333.96,301.84 c 6.24,-8.8 18.46,-8.8 27.58,-5.12 8.22,2.92 4.78,13.68 5.96,20.32 -13.36,3.32 -25.26,-5.72 -33.54,-15.2 z"
     id="path20"
     inkscape:connector-curvature="0"
     style="fill:#f5e5c1" />
  <path
     d="m 445.3,308.88 c 5.34,-1.48 13.42,-5.18 17.02,1.02 2.1,2.48 3.3,5.66 3.02,8.94 -7.08,4.02 -15.34,-0.2 -22.82,-0.62 0.92,-3.12 1.86,-6.24 2.78,-9.34 z"
     id="path22"
     inkscape:connector-curvature="0"
     style="fill:#f5e5c1" />
  <path
     d="m 386.52,345.92 c 3.98,-4.86 10.84,-2.68 16.1,-1.64 4.04,1.18 10.94,1.94 10.14,7.72 -2.04,1.86 -4.32,3.46 -6.56,5.08 -3.36,-0.14 -6.74,-0.28 -10.1,-0.38 -3.34,-3.46 -6.78,-6.86 -9.58,-10.78 z"
     id="path24"
     inkscape:connector-curvature="0"
     style="fill:#f5e5c1" />
  <path
     d="m 279.52,354.4 c 1,-0.82 2.98,-2.44 3.96,-3.26 5.8,-0.34 11.56,0.64 16.22,4.32 -2.34,3.28 -4.64,8.3 -9.6,7.18 -5.48,0.72 -8.82,-3.72 -10.58,-8.24 z"
     id="path26"
     inkscape:connector-curvature="0"
     style="fill:#f5e5c1" />
  <path
     d="m 726.28,408.06 c 9.38,-9.8 18.42,-20.14 29.12,-28.54 24.92,1.06 49.84,-1.78 74.72,0.06 6.32,0.58 11.76,4.18 16.68,7.92 13.6,10.96 27.24,21.9 40.88,32.84 3.56,3.04 7.2,6.18 9.58,10.28 8.9,15.76 17.84,31.52 27.06,47.08 1.86,4.14 6.92,3.5 10.58,4.62 0.54,10.62 -0.9,21.46 1.96,31.86 5.36,1.44 9.12,-4.32 13.3,-6.8 1.24,0.34 3.72,1 4.98,1.34 2.46,2.6 4.96,5.14 7.5,7.68 -2.22,4.06 -4.68,8 -6.7,12.16 2.68,-2.66 5.22,-5.5 7.74,-8.34 3.34,0.54 6.7,0.88 10.04,1.62 2.86,5 4.6,11.08 10.34,13.7 3.48,9.8 1.72,22.98 -8.18,28.34 -7.78,4.58 -17.02,2.3 -24.38,-1.92 -3,1.44 -6,2.9 -9,4.34 0.4,5.08 0.9,10.2 0.8,15.32 -2.76,8.02 -6.9,15.5 -10.32,23.26 -3.48,7.62 -8.22,16.58 -17.2,18.36 -9.82,2.02 -19.08,6 -28.8,8.38 0.46,1.88 1.36,5.68 1.82,7.58 -11.38,5.8 -24.18,7.54 -36.08,11.94 -6.44,3 -13.08,-0.98 -19.32,-2.5 -2.42,2.62 -4.84,5.22 -7.26,7.82 0.9,1.78 1.8,3.56 2.72,5.36 -5.64,13 -7.5,27.24 -13.14,40.2 -1.58,5.56 -7.72,2.54 -11.84,2.68 -4.68,11.14 -15.82,22.56 -9.98,35.3 4.46,7.44 1.16,16.92 6.14,24.12 5.26,8.9 8.24,19.58 6.72,29.92 1.86,2.86 5.88,5.3 4.68,9.2 -3.46,3.38 -7.66,5.84 -11.72,8.42 -2.48,14.32 -3.42,28.88 -1.1,43.3 -2.3,1.6 -4.58,3.16 -6.88,4.74 -0.46,9.72 -0.72,19.92 -5.32,28.78 -8.82,1.12 -17.8,1.22 -26.66,0.92 -4.86,0.3 -5.96,-5.6 -8.52,-8.62 6.06,-14.12 15.92,-26.34 20.44,-41.12 1.72,-7.14 1.38,-14.58 1.7,-21.86 -4.54,-1.1 -9.24,-1.74 -13.52,-3.58 -2.74,-3.42 -0.52,-7.98 -0.4,-11.88 2.14,-10.68 0.02,-21.48 -0.9,-32.18 -0.14,-5.6 -3.76,-10.06 -6,-14.94 -4.4,-8.98 -5.04,-19.18 -8.58,-28.44 -1.24,5.9 0.42,11.72 1.14,17.54 -1.32,2.1 -3,3.9 -4.52,5.84 1.66,12.44 0.8,25.06 0.3,37.56 -0.68,7.34 -9.98,7.78 -15.22,10.62 -1.96,9.2 1.3,18.36 0.62,27.6 -1.6,2.18 -4.46,2.76 -6.66,4.16 -7.62,3.94 -11.62,12.08 -18.4,17.02 -6.6,3.62 -13.78,6 -20.78,8.72 -2.1,-3.28 -4.14,-6.6 -6.1,-9.96 0.8,-0.82 2.38,-2.48 3.18,-3.3 1.16,-3.64 0.66,-8.52 4.26,-10.86 3.54,-2.54 7.7,-3.92 11.72,-5.48 2.84,-3.96 6.28,-7.58 8.42,-11.98 1.66,-5.9 1.66,-12.1 2.46,-18.14 -7.1,-4.3 -14.48,-8.98 -19.2,-15.92 0.68,-10.54 9.12,-18.32 11.62,-28.26 -0.4,-3.34 -1.32,-6.58 -1.68,-9.9 1.86,-6.78 7.88,-11.52 9.74,-18.32 1.64,-8.12 1.62,-16.6 4.46,-24.48 6.12,-17.74 13.12,-35.16 19.32,-52.88 1.18,-3.46 3.76,-6.12 6.08,-8.82 1.56,-4.08 3.34,-8.06 5.3,-11.96 -1.8,-1.72 -3.6,-3.44 -5.38,-5.16 6.58,-11.94 10.44,-25.08 16.38,-37.32 3.72,-6.16 8.32,-11.72 12.46,-17.58 6.46,-9.38 15.58,-16.34 24.02,-23.82 -5.18,-0.16 -10.58,0.3 -15.46,-1.76 -9.88,-4.28 -20,-7.88 -30.1,-11.56 -7.8,4.3 -12.08,13.34 -20.22,17.3 -4.32,-1.58 -8.46,-4.3 -11.24,-8 1.2,-4.92 4.72,-8.9 7,-13.34 -4.02,1.2 -8.02,2.44 -12.02,3.66 -2.82,7.48 -4.24,15.38 -6.82,22.92 -2.3,0.22 -4.62,0.28 -6.94,0.18 -2.38,3.88 -4.54,7.96 -7.58,11.38 -3.4,2.34 -6.94,-0.3 -9.72,-2.24 -0.32,-10.78 -1.7,-21.56 -1.02,-32.32 5.76,-8.74 13.06,-16.56 20.74,-23.66 10.7,-6.32 22.32,-11.06 33.26,-17.02 16.62,3.58 33.74,3.6 50.54,5.8 10.22,0.4 15.36,13.24 25.96,11.86 6.68,-0.16 13.38,-0.22 20.08,-0.6 7.04,-0.34 13.06,-4.42 19.86,-5.82 6.9,-1.58 14.02,-0.84 21.04,-0.82 0.44,-9.08 -1.46,-18.16 -3.88,-26.84 -7.52,-9.06 -18.08,-15.44 -24.26,-25.68 -4.84,-7.22 -8.28,-16.6 -16.92,-20.12 -8.6,-0.44 -17.24,0.12 -25.82,0.76 -9.88,2.28 -18,9.18 -27.7,12.04 -3,-0.48 -4.32,-3.36 -5.14,-5.94 -0.98,-4.9 4.26,-7.48 6.92,-10.68 -7.46,3.2 -14.08,8.32 -22.16,10.02 -0.94,-2.76 -1.88,-5.52 -2.78,-8.28 -3.2,-0.68 -6.76,-0.54 -9.54,-2.44 -0.92,-2.16 -1.72,-4.38 -2.36,-6.64 -1.68,-1.92 -3.34,-3.84 -4.96,-5.8 z"
     id="path30"
     inkscape:connector-curvature="0"
     style="fill:#f5e5c1" />
  <path
     d="m 418.34,405.9 c -1.52,-4.62 3.68,-4.08 6.58,-5.02 1.18,1.04 3.56,3.08 4.74,4.1 -3.64,0.92 -7.76,3.3 -11.32,0.92 z"
     id="path32"
     inkscape:connector-curvature="0"
     style="fill:#f5e5c1" />
  <path
     d="m 952.76,435.56 c 3.3,-3.9 7.32,-7.1 12,-9.2 -0.36,1.84 -1.12,5.54 -1.5,7.38 -3.3,1.44 -7.02,1.34 -10.5,1.82 z"
     id="path34"
     inkscape:connector-curvature="0"
     style="fill:#f5e5c1" />
  <path
     d="m 218.42,448.82 c 26.78,-5.76 54.48,-9.38 81.78,-5.06 22.44,3.32 44.8,8.62 65.28,18.66 15.8,7.56 31.6,15.88 44.68,27.74 -48.14,-32.5 -108.98,-45.34 -166.2,-35.56 -76.72,11.64 -145.62,63.7 -178.74,133.76 0.62,-3.12 1.36,-6.22 2.4,-9.2 19.92,-46.84 55.66,-87.16 100.94,-110.78 15.76,-8.52 32.56,-14.9 49.86,-19.56 z"
     id="path36"
     inkscape:connector-curvature="0"
     style="fill:#f5e5c1" />
  <path
     d="m 978.78,473.86 c -2.42,-3.92 -1.12,-8.28 4.16,-8.32 -1.26,2.84 -2.66,5.62 -4.16,8.32 z"
     id="path38"
     inkscape:connector-curvature="0"
     style="fill:#f5e5c1" />
  <path
     d="m 243.02,488.84 c 21.8,-11.1 46.86,-16.26 71.26,-13.74 21.38,2.94 42.54,10.08 59.84,23.22 -14.62,-7.74 -30.04,-14.46 -46.46,-17.14 -19.12,-1.68 -38.92,-2.7 -57.36,3.6 -39,10.3 -71.3,39.68 -88.26,75.94 9.7,-30.8 32.52,-56.9 60.98,-71.88 z"
     id="path40"
     inkscape:connector-curvature="0"
     style="fill:#f5e5c1" />
  <path
     d="m 966.9,482.12 c 5.98,-3.04 0.2,6.72 0,0 z"
     id="path42"
     inkscape:connector-curvature="0"
     style="fill:#f5e5c1" />
  <path
     d="m 60.04,595.06 c 4.88,-0.26 10.02,-1.62 14.72,0.36 8.54,3.62 16.76,8.12 24.26,13.64 18.6,12.88 37.24,25.7 55.56,38.94 0.62,-2.5 1.4,-8.58 5.4,-6.54 10.18,1.92 14.48,12.66 23.18,17.12 15.58,1.72 31.36,1.78 47.02,2.74 9.9,0.16 19.32,4.5 27.22,10.22 16.2,1.14 32.6,2.56 48.68,-0.6 1.32,-2.06 2.64,-4.12 3.98,-6.16 -2.68,-8.7 -6.44,-16.96 -9.8,-25.36 -0.1,-5.82 0.56,-12.24 3.64,-17.28 6.66,-4.96 15.96,-5.02 21.9,-11.34 0.5,1.24 1.48,3.68 1.98,4.92 7.9,3.1 16.38,4.52 24.3,7.64 -0.48,3.58 -2.94,7.38 -1.4,10.94 4.76,1.12 9.66,1.56 14.52,2.32 -3.2,3.26 -6.34,6.58 -9.3,10.08 -2.88,0.1 -5.78,0.2 -8.66,0.34 2.02,4.36 4.28,8.6 6.48,12.88 -1.26,0.64 -3.76,1.94 -5,2.58 4.26,5.82 0.78,11.64 -2.28,16.9 -6.54,-1.3 -13.02,-2.86 -19.56,-4.16 9.5,10.08 13.9,23.54 20.18,35.62 7.22,19.4 14.16,39.06 18.16,59.42 1.24,4.62 0.12,9.28 -2.8,13.04 1.04,4 1.2,8.6 4.24,11.74 10.2,11.9 23.78,21.16 30.66,35.66 6.74,13.82 14.94,26.88 21.22,40.92 -9.2,9.12 -18.7,17.94 -27.82,27.14 -3.72,3.54 -8.4,8.66 -13.52,4 -10.14,8.82 -22.08,15.74 -30.22,26.68 2.3,4.48 2.12,12.04 8.42,12.86 10.92,2.2 21.56,5.56 32.42,8.08 3.62,0.36 4.76,4.18 6.6,6.72 -8.52,3.28 -17.7,3.94 -26.7,4.98 -6.98,1.08 -13.16,-3.08 -19.78,-4.4 -8.1,-0.72 -16.18,2.64 -24.22,0.84 -2.86,-6.6 -2.24,-13.96 -2.78,-20.96 3.68,-1.72 8.14,-2.86 9.7,-7.08 7.82,-14.76 16.2,-29.2 24,-43.96 -2.12,-1.6 -7.08,-2.4 -4.22,-5.86 8.16,-5.6 17.14,-9.98 25.98,-14.42 -0.88,-1.14 -2.62,-3.4 -3.5,-4.54 1.22,-0.86 3.66,-2.6 4.88,-3.48 -6.86,-7.36 -12.88,-15.7 -21.42,-21.26 -9.32,9.76 -19,19.16 -28.18,29.04 -8.06,9.16 -10.92,21.82 -19.44,30.58 -13.48,10.62 -27.3,20.8 -40.78,31.42 -3.7,2.74 -7.3,5.84 -11.74,7.3 -2.06,-2.24 -3.9,-4.64 -5.8,-7 -14.28,8.66 -28.58,17.32 -42.72,26.22 -5.74,9.56 -17.6,12.44 -25.6,19.7 -7.3,6.58 -17.2,9.3 -26.86,7.52 -1.06,-6.24 -5.08,-14.48 1.54,-19 14.58,-7.86 31.52,-11.02 45.3,-20.38 11.52,-12.58 24.46,-23.9 35.6,-36.82 -0.88,-4.64 -4.12,-8.66 -4.26,-13.42 13.4,-8.48 27.7,-15.44 41.46,-23.3 4.68,-2.92 11.34,-4.48 13.32,-10.2 7.36,-18.88 15.08,-37.64 22.28,-56.56 -0.56,-7.02 -2.48,-13.86 -3.68,-20.76 -1.34,-0.28 -4,-0.8 -5.34,-1.06 2.34,-9.44 4.82,-18.84 7.4,-28.2 -5.08,-12.48 -9.44,-25.24 -14.66,-37.66 -4.56,7.78 -8.62,15.82 -11.96,24.2 -6.96,8.52 -14.32,16.74 -20.92,25.58 0.44,3.12 0.68,6.28 1.46,9.36 2.52,4.24 7.3,7.2 7.62,12.58 1.12,7.2 4.8,13.5 7.76,20.02 -2.26,5.84 -7.14,-0.34 -10.02,-2.48 -3.06,-2.5 -2.58,-9.4 -7.5,-8.72 -2.88,12.34 -4.64,24.92 -7.32,37.32 -4.64,-1.08 -9.24,-2.3 -13.84,-3.54 -1.18,-10.46 -3.94,-20.64 -5.86,-30.98 1.2,-6.12 4.56,-11.56 6.78,-17.36 7.52,-15.88 12.9,-32.9 22.4,-47.76 12.12,-9.78 17.96,-24.58 25.9,-37.56 -11.94,-1.68 -23.32,-5.8 -35.08,-8.36 -19.64,-2.44 -37.58,-13.28 -57.62,-13.1 -11.4,1.4 -22.88,1.48 -34.3,2.62 -1.1,-0.46 -3.3,-1.38 -4.4,-1.84 -0.56,-4.86 -1.1,-9.72 -1.72,-14.56 -22.92,-8.68 -45.38,-18.44 -68.28,-27.12 -10.8,-4.92 -22.22,-9.18 -31.54,-16.72 -4.12,-6.82 0.28,-15.08 4.28,-20.92 z"
     id="path44"
     inkscape:connector-curvature="0"
     style="fill:#f5e5c1" />
</svg>
