<?xml version="1.0" encoding="UTF-8" standalone="no"?>
<svg
   xmlns:dc="http://purl.org/dc/elements/1.1/"
   xmlns:cc="http://creativecommons.org/ns#"
   xmlns:rdf="http://www.w3.org/1999/02/22-rdf-syntax-ns#"
   xmlns:svg="http://www.w3.org/2000/svg"
   xmlns="http://www.w3.org/2000/svg"
   xmlns:sodipodi="http://sodipodi.sourceforge.net/DTD/sodipodi-0.dtd"
   xmlns:inkscape="http://www.inkscape.org/namespaces/inkscape"
   width="1280"
   height="1280"
   viewBox="0 0 1024 1024"
   version="1.1"
   id="svg2"
   inkscape:version="0.48.1 "
   sodipodi:docname="stun_capping_enemies.svg">
  <metadata
     id="metadata74">
    <rdf:RDF>
      <cc:Work
         rdf:about="">
        <dc:format>image/svg+xml</dc:format>
        <dc:type
           rdf:resource="http://purl.org/dc/dcmitype/StillImage" />
      </cc:Work>
    </rdf:RDF>
  </metadata>
  <defs
     id="defs72" />
  <sodipodi:namedview
     pagecolor="#ffffff"
     bordercolor="#666666"
     borderopacity="1"
     objecttolerance="10"
     gridtolerance="10"
     guidetolerance="10"
     inkscape:pageopacity="0"
     inkscape:pageshadow="2"
     inkscape:window-width="1920"
     inkscape:window-height="1018"
     id="namedview70"
     showgrid="false"
     fit-margin-top="0"
     fit-margin-left="0"
     fit-margin-right="0"
     fit-margin-bottom="0"
     inkscape:zoom="0.34029514"
     inkscape:cx="399.92551"
     inkscape:cy="410.3235"
     inkscape:window-x="-8"
     inkscape:window-y="-8"
     inkscape:window-maximized="1"
     inkscape:current-layer="svg2" />
  <path
     d="M 0,0 0.12,0 C 0.1,0.04 0.04,0.1 0,0.12 L 0,0 z"
     id="path4"
     inkscape:connector-curvature="0"
     style="fill:#f5e5c1" />
  <path
     d="M 0.12,0 1024,0 1024,1024 0,1024 0,0.12 C 0.04,0.1 0.1,0.04 0.12,0 z"
     id="path6"
     style="fill:#3e3e3e"
     inkscape:connector-curvature="0" />
  <path
     d="m 143.04,47.16 c 12.9,-10.3 26.48,-19.76 39.04,-30.48 33.08,12.1 65.44,26.18 98.16,39.22 -51.3,31.78 -101.8,64.84 -153.66,95.66 1.08,-12.72 4.34,-25.18 4.88,-37.96 l 1,-1.44 c 1.44,-18.94 5.04,-37.66 7.18,-56.52 0.6,-2.96 0.72,-6.56 3.4,-8.48 z"
     id="path8"
     inkscape:connector-curvature="0"
     style="fill:#f5e5c1" />
  <path
     d="m 674.32,76.88 c 43.16,-12.84 90.14,-13.94 133.24,-0.36 48.78,15.2 92.06,46.48 123.62,86.4 -38.12,-30.9 -80.04,-59.14 -128.08,-71.7 -39.42,-10.76 -82.5,-8.48 -120,8.1 -50,21.58 -88.94,62.12 -120.38,105.58 -44.94,63.06 -76.66,134.42 -103,206.92 -21.12,59.3 -38.48,119.96 -51.66,181.54 -5.4,-2.86 -9.58,-7.5 -14.64,-10.88 -40.5,-29.34 -89.48,-46.98 -139.36,-50.44 38.16,-70.3 79.64,-138.88 126.18,-203.96 42.3,-58.66 88.8,-114.78 143.26,-162.62 44.2,-38.36 94.18,-71.98 150.82,-88.58 z"
     id="path10"
     inkscape:connector-curvature="0"
     style="fill:#f3722b" />
  <path
     d="m 237.26,101.28 c 5.04,-3.46 10.28,-6.62 15.2,-10.24 14.52,31.86 28.24,64.1 42.5,96.08 2.74,6.9 6.66,13.4 8.52,20.64 -9.2,51.82 -20,103.4 -28.82,155.28 -10.62,2.82 -21.86,1.22 -32.74,2.14 -11.04,0.08 -22.02,1.7 -33.08,1.46 4.32,-36.94 8,-73.94 10.84,-111.02 1.76,-11.54 1.12,-23.3 3.42,-34.76 6.72,-3.78 13,-8.4 19.94,-11.74 14.3,-0.62 28.66,-0.1 42.98,-0.12 -0.8,-0.94 -2.36,-2.84 -3.14,-3.8 -12.14,-3.16 -24.66,-4.72 -36.86,-7.74 -8.1,1.94 -15.34,6.78 -23.76,7.36 -5.62,-11.76 -13.68,-22.06 -21.12,-32.68 -1.78,-27.9 14.86,-53.94 36.12,-70.86 z"
     id="path12"
     inkscape:connector-curvature="0"
     style="fill:#f5e5c1" />
  <path
     d="m 740.28,208.98 c 3.66,-9.68 6.14,-19.76 9.34,-29.6 20.94,-0.34 41.9,-0.68 62.84,-0.76 3.04,3.02 7.04,5.8 7.56,10.44 1.58,10.56 4.6,20.94 5.3,31.64 -28.22,-4.76 -56.94,-6.6 -85.04,-11.72 z"
     id="path14"
     inkscape:connector-curvature="0"
     style="fill:#f5e5c1" />
  <path
     d="m 731.22,220.68 c 34.82,4.68 69.68,9.24 104.42,14.42 -6.3,25.4 -14.24,50.44 -19.6,76.04 -7.34,0.92 -14.48,-1.42 -21.64,-2.62 -22,-4.02 -43.98,-8.18 -66.02,-11.98 -0.18,-25.34 2.2,-50.56 2.84,-75.86 z"
     id="path16"
     inkscape:connector-curvature="0"
     style="fill:#f5e5c1" />
  <path
     d="m 681.78,310.38 c 8.8,-3.44 18.38,-3.06 27.66,-3.34 0.08,5.6 0.24,11.22 0.08,16.84 -0.1,8.18 -3.64,15.92 -3.26,24.16 0.36,19.58 1.1,39.18 3.54,58.6 3.92,19.72 4.76,40.24 12.58,58.96 2.72,24.52 15.12,46.26 23.12,69.26 -21.2,-1.58 -42.46,-1.86 -63.72,-2.38 -18.72,-2.24 -37.7,-0.26 -56.32,-3.36 -8.26,-1.56 -17.52,-0.72 -24.6,-5.98 -6.52,-4.2 -13.36,-8 -19.44,-12.86 -0.14,-7.1 0.2,-14.22 -0.54,-21.3 -1.84,-4 -6.22,-5.9 -10.1,-7.38 -10.42,1.84 -21.08,1.34 -31.6,1.82 -7.3,-7.54 -15.14,-14.68 -21.64,-22.92 -6.16,-16.34 -7.04,-34.14 -6.78,-51.44 4.08,-3.5 9.04,-5.8 13.56,-8.66 41.52,-25.24 83.04,-50.44 124.52,-75.7 10.3,-6.24 21.8,-9.94 32.94,-14.32 z"
     id="path18"
     inkscape:connector-curvature="0"
     style="fill:#f5e5c1" />
  <path
     d="m 729.55,308.55 c -7.92,17.46 -8.87,36.71 -12.05,55.35 -2.4,26.58 4.76,52.66 8.3,78.8 0.78,4.66 2.06,9.25 4,13.55 7.98,18.04 16.03,36.04 23.95,54.1 3.52,8.18 7.65,16.12 9.85,24.8 17.48,0.48 34.88,2.12 52.4,2 6.24,0.58 13.14,-1.21 18.8,2.25 8.62,5 15.9,11.98 22.6,19.3 7.66,8.32 15.85,16.15 23.55,24.45 7.28,8.96 18.95,11.95 29.05,16.55 11.52,-18.16 23.81,-35.89 35.65,-53.85 -9.44,-11.74 -19.93,-22.5 -29.75,-33.9 -6.3,-6 -10.18,-13.81 -14.4,-21.25 -2.54,-4.62 -8.09,-7.44 -8.75,-13 -2.48,-12.6 -5.51,-25.11 -7.75,-37.75 0.1,-10.62 3.36,-20.95 4.7,-31.45 1.46,-13.96 9.84,-25.66 15.2,-38.3 -15.52,-10.2 -31.01,-20.5 -46.55,-30.7 -6.58,-4.5 -14.51,-6.06 -21.95,-8.5 -13.44,-3.8 -26.39,-9.4 -40.35,-11.2 -22.24,-3.22 -44.12,-9.19 -66.5,-11.25 z m 6.1,9.85 c 4.16,6.24 11.17,14.57 4.45,21.65 -2.7,-1.1 -6.81,-1.03 -7.75,-4.45 -3.18,-5.86 0.58,-12.02 3.3,-17.2 z m 9.05,106.25 c 4.86,7.56 1.12,17.79 -8.1,19.05 -1.78,-5.84 -3.98,-13.53 1.2,-18.35 2.2,-0.7 4.6,-0.54 6.9,-0.7 z m 33.9,85.55 c 2.64,7.76 2.81,17.25 -4.35,22.75 -6.22,1.52 -8.66,-6.04 -9.3,-10.8 -1.82,-8.08 7.63,-10.71 13.65,-11.95 z"
     id="path20"
     style="fill:#f5e5c1"
     inkscape:connector-curvature="0" />
  <path
     d="m 180.08,383.7 c 40.32,-2.22 80.64,-4.68 120.98,-6.64 1.96,7.56 5.76,15.08 5.66,22.88 -5.06,9.14 -11.02,17.76 -16.42,26.7 -26.68,1.76 -53.44,2.3 -80.12,4.22 -18.12,-0.18 -36.12,2.46 -54.24,2.26 -13.44,0.94 -26.92,2.38 -40.4,1.68 -0.88,-9.84 -1.94,-19.76 -4.22,-29.38 5.04,-6.9 11.48,-12.58 17.52,-18.56 4.2,-0.06 8.42,-0.22 12.62,-0.78 12.8,-1.82 25.84,-0.1 38.62,-2.38 z"
     id="path24"
     inkscape:connector-curvature="0"
     style="fill:#f5e5c1" />
  <path
     d="m 897.36,437.84 c 3.28,-19.38 4.88,-41.72 20.78,-55.54 11.42,9.36 17.98,23.06 27.2,34.4 7.96,9.18 8.88,21.72 13.68,32.46 4.14,10.54 10.44,21.04 9.78,32.74 -1.78,9.52 -5.18,18.68 -6.82,28.26 -0.94,7.86 -6.28,13.94 -9.88,20.68 -3.12,0.22 -7.12,1.7 -9.08,-1.68 -11.22,-13.08 -20.26,-27.86 -30.3,-41.82 -3.96,-5.78 -8.84,-11.4 -9.64,-18.64 -1.68,-10.32 -4.56,-20.46 -5.72,-30.86 z"
     id="path26"
     inkscape:connector-curvature="0"
     style="fill:#f5e5c1" />
  <path
     d="m 482.96,408.72 c 2.38,38.74 3.06,77.54 5.88,116.24 -14.26,0.22 -28.44,-1.3 -42.66,-1.62 10.86,-38.64 22.9,-76.96 36.78,-114.62 z"
     id="path28"
     inkscape:connector-curvature="0"
     style="fill:#f5e5c1" />
  <path
     d="m 202.4,449.46 c 26.34,-2.92 52.82,-4.72 79.12,-8.1 -15.2,25.82 -30.34,51.7 -44.42,78.14 -18.18,0.28 -36.38,0.08 -54.56,-0.44 4.8,11.08 5.1,23.34 4.48,35.22 -5.76,1.3 -11.4,3.08 -17.08,4.74 -6.18,-26.46 -15.28,-52.16 -21.14,-78.7 11.62,-5.86 22.04,-13.84 33.46,-20.04 6.76,-3.46 12.66,-8.98 20.14,-10.82 z"
     id="path32"
     inkscape:connector-curvature="0"
     style="fill:#f5e5c1" />
  <path
     d="m 519.02,499.04 c 16.64,-2.94 33.58,-4 50.08,-7.7 2.38,2.26 1.8,5.64 1.86,8.58 -0.28,32.72 -2.6,65.34 -2.42,98.08 -1.98,25.92 -1.48,51.98 -2.24,77.96 -2.32,21.32 -0.36,42.86 -2.64,64.18 1.42,3.96 5.46,5.78 8.98,7.5 0,-7.08 0.02,-14.14 0.2,-21.2 33.74,0.6 67.5,0.18 101.22,1.3 14.52,1.7 29.1,-0.66 43.62,0.68 14.34,0.44 28.7,0.14 43.04,0.74 -1.82,5.92 -2.9,12.04 -3.98,18.16 3.64,1.66 10.12,2.78 11.3,-2.56 0.62,0.02 1.88,0.02 2.5,0.02 -0.68,-10.38 2.76,-20.32 4.66,-30.4 8.04,-38.9 15.82,-77.86 24.1,-116.72 2.5,-10.72 3.48,-21.82 7.68,-32.06 1.54,-3.1 0.22,-9.14 4.58,-9.82 7.62,0.92 15.3,1.18 22.98,1.06 1.94,4.98 5.32,9.94 3.76,15.52 8.68,9.26 20.7,13.92 31.82,19.54 17.7,8.66 35.34,17.44 53.04,26.12 -5.08,10.02 -9.8,20.2 -14.92,30.18 -21.44,-10.96 -42.52,-22.66 -63.88,-33.76 1.46,-8.86 5.42,-17.26 5.5,-26.32 -2.08,-5.18 -8.62,-3.16 -12.9,-3.32 -9.64,41.06 -18.88,82.24 -28.12,123.4 3.86,0.76 7.68,1.8 11.46,2.9 1.86,-8.14 3,-16.66 6.18,-24.4 16.68,-10.84 35.8,-17.42 54.28,-24.56 0.3,10.82 2.26,21.52 2.44,32.36 -29.76,13.74 -59.78,26.94 -89.4,41.02 -1.88,7.98 -2.62,16.68 -6.24,24.02 -5.28,2.18 -11.76,-0.76 -17.52,0.14 -13.36,1.64 -26.72,-0.4 -40.1,-0.12 -24,-0.8 -48,-0.76 -71.98,-0.26 -8.08,-0.18 -16,2.08 -24.08,1.5 -5.56,0.04 -10.44,-3.46 -16,-3.36 -28.72,-0.44 -57.42,-0.32 -86.14,-0.88 -0.52,-12.96 -0.64,-25.92 -1.48,-38.86 -1.82,-14.94 -0.52,-30.1 -2.78,-45.02 l 3.5,-1.38 c -1.26,-0.1 -2.52,-0.1 -3.76,-0.04 0.5,-22 -2.28,-43.9 -2.58,-65.9 -2,-18.34 -1.16,-36.82 -3.22,-55.14 -0.04,-17.12 -1.9,-34.1 -2.4,-51.18 z"
     id="path34"
     inkscape:connector-curvature="0"
     style="fill:#f5e5c1" />
  <path
     d="m 198.12,529.18 c 11.62,0.72 23.24,1.74 34.9,1.78 1.1,6.38 3.34,12.54 7.9,17.32 -12.46,-0.72 -25.08,-0.4 -37.32,2.16 -2.04,-7.04 -4.08,-14.08 -5.48,-21.26 z"
     id="path38"
     inkscape:connector-curvature="0"
     style="fill:#f5e5c1" />
  <path
     d="m 427.68,599.46 c 4.26,-18.14 7.6,-36.56 13.14,-54.38 20,0.68 39.96,2.06 59.98,2.22 1,17.94 3.38,35.82 6.52,53.52 -11.36,3.86 -23.48,0.42 -35.14,0.3 -14.88,0.16 -29.62,-2 -44.5,-1.66 z"
     id="path40"
     inkscape:connector-curvature="0"
     style="fill:#f5e5c1" />
  <path
     d="m 585.6,590.66 c 0.32,-11.2 -1.44,-22.66 1.02,-33.66 13.14,-0.12 26.2,2.02 39.32,0.8 39.3,2.08 78.76,0.08 118.04,2.56 15.68,-0.06 31.36,0.24 47.02,0.7 -3.3,12.48 -4.34,25.46 -7.78,37.9 -34.4,-1.12 -68.76,-2.84 -103.14,-3.96 -31.48,-1.8 -63.04,-1.78 -94.48,-4.34 z"
     id="path42"
     inkscape:connector-curvature="0"
     style="fill:#f5e5c1" />
  <path
     style="fill:#f4722b"
     d="m 240,561.4 c -38.54,0.76 -76.96,12.12 -108.9,33.9 -39.24,26.6 -68.86,67.5 -80.4,113.6 -11.38,43.18 -7.16,90.18 11.6,130.7 15.54,34.58 41.69,64.22 73.75,84.4 50.58,32.4 116.23,38.84 172.45,18.1 42.56,-15.48 79.18,-46.48 101.8,-85.7 17.9,-29.68 25.44,-64.27 27.4,-98.55 C 435.68,733.05 432.41,708 422.65,684.9 404.07,637.8 366.3,598.74 319.9,578.5 294.8,567.28 267.38,562.2 240,561.4 z m 6.4,31.1 c 5.5075,0.0425 11.04,0.28 16.5,0.95 5.46,4.68 8.18,11.74 11.9,17.8 12.14,21.26 15.56,46.71 11.1,70.65 -5.24,23.48 -17.37,44.97 -32.15,63.75 -38.9,48.3 -91.5,82.87 -144.3,114.15 C 75.09,815.2 67.46,752.14 88.1,700 c 21.78,-58.76 79.06,-102.85 141.8,-107.25 5.49,-0.16 10.9925,-0.2925 16.5,-0.25 z m 43.85,6.3 c 17.14,6.96 34.63,13.96 49.15,25.7 44.98,33.1 70.3,90.36 65.5,145.9 -72.76,38.42 -140.5,85.91 -202.9,139.45 -4.38,3.32 -8.71,10.1 -15.05,7.4 -23.22,-7.7 -44.38,-21.2 -61.8,-38.3 -1.48,-1.42 -2.16,-3.36 -3.1,-5.1 32,-17.66 62.41,-38.1 91.05,-60.8 31.64,-25.5 61.2,-55.03 80.1,-91.45 14.3,-28.3 19.62,-62.07 9.7,-92.65 -2.92,-10.58 -8.39,-20.09 -12.65,-30.15 z M 401.3,793.95 c -10.56,51.58 -47.49,96.85 -95.75,117.95 -27.92,13.16 -59.45,15.85 -89.85,12.75 2.72,-3.64 6.18,-6.55 9.8,-9.25 54.68,-45.78 113.16,-87.27 175.8,-121.45 z"
     id="path44"
     inkscape:connector-curvature="0" />
  <path
     d="m 425.5,650.66 c -9.46,-14.28 -19.76,-27.96 -31.62,-40.34 4.54,1.62 9.02,3.82 13.9,4.1 5.06,-0.52 9.62,-3.02 14.54,-4.08 26.94,0.5 53.92,0.58 80.86,0.94 1.78,13.2 1.66,26.5 2.2,39.78 -26.62,-0.22 -53.26,-0.44 -79.88,-0.4 z"
     id="path50"
     inkscape:connector-curvature="0"
     style="fill:#f5e5c1" />
  <path
     d="m 586.12,613 c 21.34,0.16 42.7,-0.18 63.98,1.32 34.64,0.26 69.26,0.84 103.9,1.06 8.52,-0.26 17.06,1.92 25.52,0.08 0.36,12.84 -4.12,25.14 -5.12,37.86 -17.46,1.34 -34.9,-0.26 -52.36,-0.1 -35.48,-0.4 -70.96,-0.24 -106.44,-0.8 -9.56,-0.82 -19.18,-1.2 -28.7,0.28 -1.48,-13.18 -0.16,-26.48 -0.78,-39.7 z"
     id="path52"
     inkscape:connector-curvature="0"
     style="fill:#f5e5c1" />
  <path
     d="m 844.82,656.28 c 2.48,-8.34 6.82,-16.04 10.46,-23.94 12.14,5.4 24.48,10.34 36.82,15.26 -3.52,3.5 -6.3,9.72 -12.34,7.6 -9.46,3.68 -18.94,7.36 -28.16,11.64 -2.38,-3.46 -4.88,-6.84 -6.78,-10.56 z"
     id="path54"
     inkscape:connector-curvature="0"
     style="fill:#f5e5c1" />
  <path
     d="m 624.02,678.36 c 48.36,-2.66 96.88,-0.32 145.24,-2.98 -0.54,11.88 -4.32,23.32 -5.02,35.18 -59.6,0.36 -119.24,0.38 -178.84,0 0.56,-10.68 0.8,-21.38 1.2,-32.04 12.34,-2.22 24.96,0.32 37.42,-0.16 z"
     id="path56"
     inkscape:connector-curvature="0"
     style="fill:#f5e5c1" />
  <path
     d="m 440.06,680.68 c 22.26,-0.72 44.48,-0.98 66.78,-1.42 0.26,10.5 0.68,21 1.86,31.46 -19.68,0.08 -39.34,0.14 -59.02,-0.04 -2.54,-10.2 -5.8,-20.22 -9.62,-30 z"
     id="path58"
     inkscape:connector-curvature="0"
     style="fill:#f5e5c1" />
  <path
     d="m 452.64,724.64 c 18.76,0.12 37.54,0.24 56.32,0.54 0.08,3.6 0.12,7.18 0.16,10.8 5.6,6.62 16.42,9.54 16.04,19.8 -22.44,-0.18 -44.86,-0.1 -67.28,1.1 -0.48,-4.28 -0.48,-8.74 -2.54,-12.62 -0.96,-6.54 -1.74,-13.1 -2.7,-19.62 z"
     id="path60"
     inkscape:connector-curvature="0"
     style="fill:#f5e5c1" />
  <path
     d="m 580.06,780.54 c 18.36,-1.34 36.82,-2.54 55.22,-1.6 -4.34,15.9 -7.36,32.14 -10.76,48.28 -59.76,0.1 -119.54,-0.32 -179.32,-0.48 4.22,-12.82 7.54,-26.06 8.58,-39.54 17.72,-3.7 36.12,-0.94 54.02,-3.6 24.12,-0.44 48.14,-2.66 72.26,-3.06 z"
     id="path62"
     inkscape:connector-curvature="0"
     style="fill:#f5e5c1" />
  <path
     d="m 422.6,875.2 c 6.66,-10.16 11.92,-21.12 16.92,-32.14 83.92,-0.12 167.82,0.28 251.72,-0.22 -1,14.88 -2.7,29.72 -4.38,44.54 -21.38,-3.62 -43.14,-1.48 -64.62,-3.8 -66.56,-2.54 -133.1,-5.6 -199.64,-8.38 z"
     id="path66"
     inkscape:connector-curvature="0"
     style="fill:#f5e5c1" />
  <path
     d="m 465.82,908.8 c 15.86,-0.44 31.78,0.32 47.64,0.94 2.96,5.88 3.12,12.84 4.98,19.16 30.98,1.44 61.9,3.74 92.9,4.68 -12.88,18.58 -36.9,28.94 -59.22,24.4 -11.84,-1.98 -21.82,-8.86 -31.16,-15.96 9.36,15.26 25.22,26.6 43.02,29.4 26.68,5.12 55.52,-10.54 66.04,-35.56 2.94,-6.66 4.64,-13.82 5.2,-21.06 8.56,0.18 17.12,0.36 25.68,0.32 -2.94,24.42 -15.7,47.76 -36.02,61.94 -22.98,16.76 -54.34,21.2 -80.98,11.26 -31.62,-11.24 -54.66,-42.56 -55.82,-76.12 -2.92,42.96 -41.14,79.7 -84.1,81.06 -29.16,1.74 -58.6,-12.86 -75.08,-36.9 19.08,-8.2 36.72,-19.62 52.4,-33.16 2.22,-2.6 5.72,-2.14 8.78,-2.18 17.92,0.3 35.84,0.56 53.76,0.68 -9,23.2 -33.48,38.1 -57.7,40.28 -8.88,1.72 -17.68,-1.44 -26.58,-1.32 16.68,11.4 38.18,15.98 57.78,10.34 27.32,-7.24 48.82,-33.66 48.48,-62.2 z"
     id="path68"
     inkscape:connector-curvature="0"
     style="fill:#f5e5c1" />
</svg>
