<?xml version="1.0" encoding="UTF-8" standalone="no"?>
<svg
   xmlns:dc="http://purl.org/dc/elements/1.1/"
   xmlns:cc="http://creativecommons.org/ns#"
   xmlns:rdf="http://www.w3.org/1999/02/22-rdf-syntax-ns#"
   xmlns:svg="http://www.w3.org/2000/svg"
   xmlns="http://www.w3.org/2000/svg"
   xmlns:sodipodi="http://sodipodi.sourceforge.net/DTD/sodipodi-0.dtd"
   xmlns:inkscape="http://www.inkscape.org/namespaces/inkscape"
   width="1280"
   height="1280"
   viewBox="0 0 1024 1024"
   version="1.1"
   id="svg2"
   inkscape:version="0.48.1 "
   sodipodi:docname="stun_uber_enemies.svg">
  <metadata
     id="metadata24">
    <rdf:RDF>
      <cc:Work
         rdf:about="">
        <dc:format>image/svg+xml</dc:format>
        <dc:type
           rdf:resource="http://purl.org/dc/dcmitype/StillImage" />
      </cc:Work>
    </rdf:RDF>
  </metadata>
  <defs
     id="defs22" />
  <sodipodi:namedview
     pagecolor="#ffffff"
     bordercolor="#666666"
     borderopacity="1"
     objecttolerance="10"
     gridtolerance="10"
     guidetolerance="10"
     inkscape:pageopacity="0"
     inkscape:pageshadow="2"
     inkscape:window-width="1920"
     inkscape:window-height="1018"
     id="namedview20"
     showgrid="false"
     fit-margin-top="0"
     fit-margin-left="0"
     fit-margin-right="0"
     fit-margin-bottom="0"
     inkscape:zoom="0.6609375"
     inkscape:cx="466.00473"
     inkscape:cy="640"
     inkscape:window-x="-8"
     inkscape:window-y="-8"
     inkscape:window-maximized="1"
     inkscape:current-layer="layer1"
     inkscape:snap-page="true" />
  <g
     inkscape:groupmode="layer"
     id="layer1"
     inkscape:label="background">
    <rect
       style="fill:#3e3e3e;fill-opacity:1;fill-rule:nonzero;stroke:none"
       id="rect2992"
       width="1280"
       height="1280"
       x="0"
       y="0"
       transform="scale(0.8,0.8)" />
  </g>
  <g
     inkscape:groupmode="layer"
     id="layer2"
     inkscape:label="foreground">
    <path
       d="m 330.78,38.54 c 12.34,-9.22 28.4,-11.18 43.36,-10.2 89.98,4.12 179.94,8.48 269.9,12.68 12.02,0.58 24.62,-0.08 35.84,5.1 6.18,2.5 11.52,6.56 16.44,11.02 -47.58,12.28 -91.02,36.74 -130.14,66 -56.74,-1.74 -113.4,-6.26 -170.18,-7.02 -12.66,-0.76 -26.26,3.24 -34.46,13.38 -6,7.64 -9.04,17.48 -8.54,27.18 0.68,13.1 -0.24,26.26 0.54,39.38 1.56,15.38 -0.08,30.86 1.24,46.24 0.36,15.9 -0.14,31.8 0.92,47.68 -0.68,20.56 1.64,41.04 0.98,61.62 -59.6,-0.88 -119.14,-3.04 -178.74,-4.16 -10.96,-1.14 -22.06,7.54 -22.84,18.68 -5.5,74.06 -11.42,148.1 -16.76,222.18 -27.54,20.52 -51.12,46.7 -66.48,77.56 -9.28,-4.14 -17.1,-11.58 -20.78,-21.18 -4.5,-10.94 -4.2,-23.08 -2.86,-34.62 6.94,-90.72 13.76,-181.44 20.74,-272.16 0.42,-13.7 13.6,-24.74 27.08,-23.72 73.86,1.58 147.72,3.82 221.58,5.42 -1.36,-79.9 -3.06,-159.8 -4.64,-239.7 -0.7,-15.46 5.1,-31.92 17.8,-41.36 z"
       id="path6"
       inkscape:connector-curvature="0"
       style="fill:#f5e5c1" />
    <path
       d="m 683.1,82.76 c 45.7,-15.94 96.42,-19.1 143.02,-4.98 49.84,15.04 94.5,46.64 126.34,87.68 -42.6,-35.38 -91.3,-66.72 -146.78,-76.24 -41.28,-7.4 -84.62,0.86 -120.94,21.58 -47.88,27.16 -84.44,70.12 -114.36,115.58 -40.12,61.64 -69.32,129.68 -93.7,198.88 -19.36,55.88 -35.4,112.92 -47.8,170.76 -42.78,-36.58 -97.92,-57.98 -153.9,-62 37.54,-68.72 77.9,-136 123.34,-199.82 37.9,-53.12 79.32,-104 126.68,-149.02 45.96,-43.08 97.98,-81.8 158.1,-102.42 z"
       id="path8"
       inkscape:connector-curvature="0"
       style="fill:#f3722b" />
    <path
       d="m 669.9,145.58 c 12.68,-10 26.84,-17.94 41.44,-24.8 -2.1,69.56 -4.64,139.08 -6.74,208.62 73.9,2.02 147.82,3.62 221.72,5.74 14.78,0.84 29.04,9.56 35.74,22.88 5.5,10.38 6.16,22.44 5.66,33.94 -2.8,84.06 -5.92,168.1 -8.84,252.14 -0.9,14.6 -5.44,30.12 -16.88,39.98 -8.16,7.14 -19.4,9.52 -29.98,8.92 -73.04,-2.26 -146.1,-4.38 -219.14,-6.6 -2.74,81.24 -5.32,162.52 -8.02,243.76 -0.54,8.38 -6.6,15.52 -14.02,19 -14.5,7.32 -31.26,5.56 -46.9,4.58 -82.22,-3.06 -164.42,-6.7 -246.64,-9.68 31.94,-20.72 58.54,-49.54 75.98,-83.44 55.62,1.88 111.22,4.78 166.86,6.38 10.56,0.48 22.22,-1.1 30.14,-8.8 7.04,-6.8 4.88,-17.46 5.26,-26.26 1.64,-44.68 3.1,-89.38 4.46,-134.08 0.78,-15.84 1.4,-31.74 1.34,-47.6 60.26,0.6 120.42,4.02 180.68,4.62 11.68,1.02 23.54,-5.42 28.84,-15.92 6.44,-11.14 6.8,-24.36 6.78,-36.86 2.28,-56.72 4,-113.46 6.28,-170.16 1.4,-9.28 0.98,-18.68 1.04,-28.02 0.46,-16.44 -9.72,-33.6 -26.06,-38.24 -15.1,-3.02 -30.58,-1.42 -45.86,-2.42 -47.36,-0.82 -94.7,-2.08 -142.06,-3.64 2,-53.24 3.48,-106.5 5.46,-159.74 0.08,-18.16 3.52,-37.94 -6.54,-54.3 z"
       id="path10"
       inkscape:connector-curvature="0"
       style="fill:#f5e5c1" />
    <path
       style="fill:#f4722b"
       d="m 258.1,563.65 c -31.92,0.9 -63.62,9.07 -91.5,24.75 -46.7,25.74 -82.19,71.23 -95.05,123.05 -9.16,34.88 -8,72.15 2.7,106.55 13.48,43.54 42.34,82.32 80.9,106.8 61.42,40.58 146.06,41.72 208.5,2.7 37.6,-22.84 67.14,-58.66 82.2,-100 14.88,-40.36 15.65,-85.68 2.85,-126.7 -14.16,-45.26 -45.43,-84.95 -86.25,-109.15 -31.26,-18.86 -67.91,-28.32 -104.35,-28 z m 2.2,30.6 c 7.96878,-0.16816 15.9625,0.25938 23.9,1.35 15.96,19.56 25.4,45.02 24.8,70.4 -0.5,23.32 -10.1,45.28 -22.2,64.8 -14.9,23.16 -34.44,42.81 -55,60.95 -31.42,26.84 -66.05,49.71 -101.95,70.05 -16.92,-23.62 -28.17,-51.55 -31.05,-80.55 -6.06,-49.26 11.95,-100.48 46.35,-136.1 29.73374,-31.23563 72.11859,-49.99192 115.15,-50.9 z m 51.4,7.45 c 37.86,11.38 70.8,37.65 90.9,71.65 16.86,27.64 24.8,60.27 24,92.55 0.14,3.32 -0.64,7.14 -4.1,8.5 -75.82,39.96 -145.8,90.4 -210.3,146.7 -26.28,-9.24 -51.6,-23.37 -69.8,-44.85 50.56,-28.64 99.32,-62.08 138.7,-105.2 25.84,-29.06 47.4,-65.06 47.9,-105 0.84,-22.74 -7.34,-44.33 -17.3,-64.35 z m 110.1,194.2 c -2.74,19.9 -11.84,38.39 -22.3,55.35 -33.76,54.06 -100.48,85.2 -163.6,75.2 57.42,-49.56 119.64,-93.57 185.9,-130.55 z"
       id="path12"
       inkscape:connector-curvature="0" />
  </g>
</svg>
