<?xml version="1.0" encoding="UTF-8" standalone="no"?>
<svg
   xmlns:dc="http://purl.org/dc/elements/1.1/"
   xmlns:cc="http://creativecommons.org/ns#"
   xmlns:rdf="http://www.w3.org/1999/02/22-rdf-syntax-ns#"
   xmlns:svg="http://www.w3.org/2000/svg"
   xmlns="http://www.w3.org/2000/svg"
   xmlns:sodipodi="http://sodipodi.sourceforge.net/DTD/sodipodi-0.dtd"
   xmlns:inkscape="http://www.inkscape.org/namespaces/inkscape"
   width="1280"
   height="1280"
   viewBox="0 0 1024 1024"
   version="1.1"
   id="svg2"
   inkscape:version="0.48.1 "
   sodipodi:docname="survive_damage.svg">
  <metadata
     id="metadata22">
    <rdf:RDF>
      <cc:Work
         rdf:about="">
        <dc:format>image/svg+xml</dc:format>
        <dc:type
           rdf:resource="http://purl.org/dc/dcmitype/StillImage" />
      </cc:Work>
    </rdf:RDF>
  </metadata>
  <defs
     id="defs20" />
  <sodipodi:namedview
     pagecolor="#ffffff"
     bordercolor="#666666"
     borderopacity="1"
     objecttolerance="10"
     gridtolerance="10"
     guidetolerance="10"
     inkscape:pageopacity="0"
     inkscape:pageshadow="2"
     inkscape:window-width="1920"
     inkscape:window-height="1018"
     id="namedview18"
     showgrid="false"
     inkscape:snap-page="true"
     fit-margin-top="0"
     fit-margin-left="0"
     fit-margin-right="0"
     fit-margin-bottom="0"
     inkscape:zoom="0.6609375"
     inkscape:cx="466.00473"
     inkscape:cy="640"
     inkscape:window-x="-8"
     inkscape:window-y="-8"
     inkscape:window-maximized="1"
     inkscape:current-layer="layer1" />
  <g
     inkscape:groupmode="layer"
     id="layer1"
     inkscape:label="background">
    <rect
       style="fill:#3e3e3e;fill-opacity:1;stroke:none"
       id="rect2999"
       width="1024"
       height="1024"
       x="0"
       y="0" />
  </g>
  <g
     inkscape:groupmode="layer"
     id="layer2"
     inkscape:label="foreground">
    <path
       d="m 289.02,0 15.28,0 c 18.7,34.66 37.22,69.44 56.18,103.94 10.76,21.8 21.98,43.38 32.22,65.42 7.62,15.38 10.5,32.44 15.52,48.72 3.96,21.1 8.6,42.32 8.74,63.9 -2.4,34.42 -17.14,66.28 -32.54,96.58 -23.26,36.14 -46.94,72 -70.28,108.08 3.76,4.06 7.56,9.5 13.72,9.58 6.52,0.22 13.26,-0.66 19.2,-3.44 3,-2.34 4.6,-5.96 6.58,-9.08 19.76,-34.18 39.7,-68.24 59.74,-102.22 6.12,-10.18 11.52,-20.76 16.12,-31.7 5.88,-15.9 15.42,-30.68 16.9,-47.96 1.86,-22.5 3.26,-45.4 -0.62,-67.78 -5.02,-19.86 -11.32,-39.42 -19.4,-58.24 C 418.04,155.42 411.2,134.36 400.94,114.82 386.04,85.14 371.26,55.4 356.36,25.72 352.08,17.22 346.4,9.34 344.04,0 l 17.98,0 c 16.88,29.2 30.04,60.38 46.44,89.82 11.74,25.44 23.74,50.74 35.98,75.94 5.48,10.78 7.88,22.72 11.26,34.24 3.74,13.52 8.7,26.82 9.8,40.92 0.92,12.32 5.12,24.62 2.66,37.02 -2.92,14.98 -3.04,30.66 -9.06,44.9 -7.06,17.66 -11.3,36.62 -21.42,52.94 -15.7,30.62 -32.24,61.14 -53.64,88.26 -5.62,9.18 -17.26,17.74 -12.68,29.86 11.22,-7.46 14.22,-24.08 26.92,-29.76 1.86,9.4 3.28,19.8 -1.74,28.52 -5.48,13.78 -21.22,17.78 -34.08,21.5 -12.7,2.72 -25.12,8.18 -38.38,6.92 -11.86,0.16 -22.58,-5.4 -32.96,-10.38 -7.84,-4.6 -15.72,-12.78 -14.02,-22.64 2.16,-14.6 13.18,-29.78 28.4,-31.94 1,11.14 -10.4,21.08 -5.04,32.56 7.9,-13.04 10.82,-28.44 18.6,-41.54 19.64,-31.08 41.1,-61.04 58.7,-93.36 6.38,-14.26 10.78,-29.28 16.32,-43.86 3.44,-10.94 2.94,-22.54 3.04,-33.86 0.64,-12.9 -3.28,-25.4 -3.66,-38.26 -2.84,-14.98 -4.36,-30.52 -10.82,-44.5 -7.52,-17.26 -13.4,-35.18 -21.4,-52.24 C 353.5,122.06 343.1,104.34 333.96,86 318.86,57.4 304.32,28.48 289.02,0 z"
       id="path6"
       inkscape:connector-curvature="0"
       style="fill:#f5e5c1" />
    <path
       d="m 440.82,394 c -0.28,-4.84 3.36,-11.26 9.06,-9.66 130.16,10.26 260.32,21.02 390.5,31.16 10.3,2.48 20.04,6.84 30.12,10.08 9,2.66 16.24,8.86 24.3,13.4 12.36,6.32 22.1,16.42 32.44,25.42 6.26,10.04 11.98,20.52 17.16,31.18 1.32,12.1 3.38,24.26 2.6,36.48 -1.28,13.46 -1.12,27.44 -7.68,39.68 -7.3,21.36 -19.24,40.86 -32.64,58.8 -19.2,11.32 -39.6,20.48 -59.18,31.14 -8.4,4.92 -18.46,3.98 -27.78,5.06 -9.92,0.42 -19.84,2.18 -29.78,1.18 -157.44,-13.68 -314.78,-28.36 -472.1,-43.04 -8.66,-0.84 -17.42,-1.22 -25.94,-2.92 -8.26,-2.44 -16.1,-6.1 -23.94,-9.6 -7.62,-3.36 -13.06,-9.8 -18.82,-15.54 -10.4,-9.78 -15.26,-23.58 -22.52,-35.54 -5.94,-13.5 -10.66,-27.56 -15.1,-41.6 0.84,-13.86 2.34,-27.7 3.72,-41.54 3.26,-18.18 18.58,-29.74 30.54,-42.38 9.9,-8.8 20.52,-16.82 31.14,-24.74 19.92,-10.3 41,-18.58 63,-23.22 4.92,2.36 -0.28,7.12 -2.18,9.9 -12.76,4.98 -26.7,6.8 -38.92,13.34 -14.1,4.46 -24.76,14.88 -36.2,23.68 -7.52,5.74 -12.96,13.64 -19.86,20.04 -6.92,6.18 -9.32,15.5 -13.66,23.4 1.38,4.98 -3.88,8.76 -1.96,13.56 5.3,21.86 10.4,43.8 16.4,65.5 21.52,15.22 46.36,26.04 72.34,30.76 140.82,12.1 281.6,24.78 422.44,36.64 31.1,1.84 62.18,5.98 93.38,4.06 11.78,-2.98 23.66,-5.82 35.14,-9.74 14.28,-7.12 29.4,-13.82 40.78,-25.34 7.1,-11.12 17.56,-20.54 20.82,-33.74 1.18,-13.88 3.96,-27.82 1.84,-41.76 -1.36,-6.76 -0.04,-14.34 -4.14,-20.32 -4.54,-7.54 -7.98,-15.76 -13.04,-22.98 -14.72,-15.22 -32.48,-27.16 -51.38,-36.5 -11.28,-3.6 -22.14,-8.78 -33.74,-11.16 -124.64,-10.2 -249.34,-20.12 -374,-30.02 -4.3,-0.6 -10.18,0.68 -13.16,-3.12 z"
       id="path10"
       inkscape:connector-curvature="0"
       style="fill:#f5e5c1" />
    <path
       d="m 202.7,490.16 c 4.9,-1.06 2.84,5.34 2.6,8.12 -1.42,8.86 -11.38,12.5 -14.3,20.66 -3.12,7.72 -7.5,14.96 -10.04,22.92 0.58,6.46 4.66,11.88 7.6,17.48 51.4,93.98 102.7,188.02 154.06,282 3.08,5.46 5.54,11.32 9.24,16.4 9.18,5.78 18.3,11.78 27.9,16.86 19.7,7.86 39.88,14.44 59.78,21.7 12.12,2.16 24.5,2.68 36.72,4.24 8.56,0.46 17.1,2.64 25.68,1.46 22.58,-2.62 45.26,-4.32 67.8,-7.3 14.66,-3.86 28.84,-9.38 43.34,-13.84 7.1,-2.58 14.96,-3.82 21,-8.7 13.54,-10.5 27.56,-20.4 40.8,-31.28 8.64,-10.78 16.54,-22.16 25.04,-33.08 4.06,-4.32 3.2,-10.6 4.2,-15.98 1.28,-13.32 3.94,-26.5 4.82,-39.84 -2.72,-9.44 -8.36,-17.72 -11.8,-26.9 -11.18,-18.52 -26.9,-33.76 -40.1,-50.74 l 0.16,-3.28 c 5.9,0.2 13.64,-1.54 17.88,3.74 20.34,25.04 40.96,49.86 61.36,74.84 2.34,2.88 4.5,6.24 4.44,10.12 0.18,9.76 3.12,19.8 -0.08,29.36 -3.02,9.64 -6.22,19.26 -8.74,29.06 -6.08,10.08 -9.22,21.86 -17.28,30.7 -6.78,10.16 -15.48,18.84 -24.72,26.74 -13.18,8.9 -25.94,18.44 -39.46,26.82 -17.38,8.2 -34.94,16.12 -52.6,23.68 -17.84,5.28 -36.1,9.08 -54.06,13.88 -16.96,4.84 -34.72,1.84 -52.02,3.88 -18.84,1.54 -37.48,-1.86 -56.02,-4.64 -16.02,-1.06 -30.74,-7.84 -46.06,-11.96 -9.62,-2.02 -16.54,-9.42 -24.48,-14.62 -10.78,-6.78 -15.8,-18.92 -23.24,-28.72 -13.18,-20.84 -28.84,-40.22 -39.46,-62.58 -45,-90.54 -89.24,-181.46 -134,-272.1 -5.68,-11.38 4.66,-22.2 8.2,-32.6 7.46,-9.72 15.98,-19.12 25.84,-26.5 z"
       id="path12"
       inkscape:connector-curvature="0"
       style="fill:#f5e5c1" />
    <path
       d="m 0,517.42 c 14.72,4.44 29.72,7.82 44.5,12 5.7,1.62 11.64,1.52 17.5,1.76 27.4,2.14 54.56,7.66 82.14,6.74 9.54,-1.32 9.42,10.42 10.2,16.84 -19.46,0.68 -38.86,-1.64 -58.32,-1.9 -20.66,-1.78 -41.2,-5.02 -61.88,-6.54 C 22.4,545.84 11.18,542 0,538.78 l 0,-21.36 z"
       id="path14"
       inkscape:connector-curvature="0"
       style="fill:#f5e5c1" />
    <path
       d="m 0,561.44 c 15.92,4.38 32.1,7.86 48.28,11.08 38.4,3.88 77.02,5.44 115.36,9.86 1.84,5.38 3.28,10.92 3.52,16.64 -11.1,0.3 -22.08,-1.52 -33.14,-2.1 C 99.96,594.22 65.88,591.5 31.82,588.8 21.06,587.7 10.72,584.22 0,582.76 l 0,-21.32 z"
       id="path16"
       inkscape:connector-curvature="0"
       style="fill:#f5e5c1" />
  </g>
</svg>
