<?xml version="1.0" encoding="UTF-8" standalone="no"?>
<svg
   xmlns:dc="http://purl.org/dc/elements/1.1/"
   xmlns:cc="http://creativecommons.org/ns#"
   xmlns:rdf="http://www.w3.org/1999/02/22-rdf-syntax-ns#"
   xmlns:svg="http://www.w3.org/2000/svg"
   xmlns="http://www.w3.org/2000/svg"
   xmlns:sodipodi="http://sodipodi.sourceforge.net/DTD/sodipodi-0.dtd"
   xmlns:inkscape="http://www.inkscape.org/namespaces/inkscape"
   width="1280"
   height="1280"
   viewBox="0 0 1024 1024"
   version="1.1"
   id="svg2"
   inkscape:version="0.48.1 "
   sodipodi:docname="taunt_kill.svg">
  <metadata
     id="metadata54">
    <rdf:RDF>
      <cc:Work
         rdf:about="">
        <dc:format>image/svg+xml</dc:format>
        <dc:type
           rdf:resource="http://purl.org/dc/dcmitype/StillImage" />
      </cc:Work>
    </rdf:RDF>
  </metadata>
  <defs
     id="defs52" />
  <sodipodi:namedview
     pagecolor="#ffffff"
     bordercolor="#666666"
     borderopacity="1"
     objecttolerance="10"
     gridtolerance="10"
     guidetolerance="10"
     inkscape:pageopacity="0"
     inkscape:pageshadow="2"
     inkscape:window-width="1920"
     inkscape:window-height="1018"
     id="namedview50"
     showgrid="false"
     inkscape:zoom="0.6609375"
     inkscape:cx="640"
     inkscape:cy="640"
     inkscape:window-x="-8"
     inkscape:window-y="-8"
     inkscape:window-maximized="1"
     inkscape:current-layer="layer2"
     fit-margin-top="0"
     fit-margin-left="0"
     fit-margin-right="0"
     fit-margin-bottom="0"
     inkscape:snap-page="true" />
  <g
     inkscape:groupmode="layer"
     id="layer1"
     inkscape:label="background"
     style="display:inline">
    <rect
       style="fill:#3e3e3e;fill-opacity:1;stroke:none"
       id="rect3031"
       width="1024"
       height="1024"
       x="0"
       y="0" />
  </g>
  <g
     inkscape:groupmode="layer"
     id="layer2"
     inkscape:label="foreground"
     style="display:inline">
    <path
       d="m 754.12,54.86 c 4.76,-4.32 9.9,-8.26 15.74,-11.02 6.56,9.9 13.96,19.42 19.18,30.12 1.36,11.7 4.92,22.98 5.46,34.82 7.5,1.78 13.44,6.68 19.66,10.88 10.58,-2.08 21.32,-2.88 32.1,-2.7 5.58,4.48 5.54,13.2 12.22,16.8 4.6,2.34 1.44,7.78 0.14,11.18 8.1,2.24 16.94,-1.56 25.12,1.76 0.08,4.18 -1.14,8.68 -6.02,9.24 -8.46,1.04 -16.04,7.56 -24.76,4.9 0.08,-4.66 0.38,-9.3 0.68,-13.94 -4.32,-0.14 -8.56,-0.86 -12.6,-2.38 -0.06,-3.78 -0.06,-7.58 0.04,-11.36 -6.52,-3.82 -13.82,-0.44 -18.82,4.18 5.48,7.06 4.84,16.36 7.06,24.62 1.46,6.1 -2.38,11.26 -6.12,15.54 0.02,1.78 0.08,5.3 0.12,7.08 4.54,1.82 10.42,1.92 13.6,6.12 0.4,2.62 0.34,5.3 0.44,7.96 -7.94,5.34 -16.82,-0.26 -23.96,-4.24 -4.84,-2.06 -3.34,-8.5 -0.4,-11.62 0.22,-0.8 0.66,-2.42 0.9,-3.22 -2.6,-1.98 -7.82,-3.04 -6.64,-7.44 -0.18,-7.68 2.24,-17.26 -4.16,-23.14 -10.12,-1.46 -20.68,-0.62 -30.92,-0.34 -6.18,4.12 -12.42,8.42 -17.72,13.6 -3.02,6.92 -5.28,14.2 -9.62,20.48 -1.3,6.38 8.44,9.18 8.3,15.3 0.96,3.68 -3.38,4.72 -5.58,6.26 -0.3,1.98 -0.58,3.94 -0.84,5.92 -1.28,0.74 -3.84,2.2 -5.12,2.94 -7.88,-7.16 -10.52,-18.04 -12.38,-28.12 -1.76,-8.7 2.64,-16.96 5.66,-24.84 3.24,-5.4 8,-9.76 11.16,-15.24 -4.14,-3.52 -7.2,-8.02 -10.88,-11.94 -3.92,-2.74 -9.56,-3.86 -11.46,-8.78 -2.1,-4.82 -3.32,-11.46 1.06,-15.4 8.14,-7.56 20.54,-6.08 30.42,-3.38 -0.86,4.34 -1.88,8.64 -2.96,12.94 7.42,-2.42 14.64,-5.38 21.8,-8.42 5.18,-3.42 3.24,-10.66 3.62,-15.88 -0.84,-7.88 1.66,-18.2 -5.8,-23.58 -6.92,-4.14 -10.5,-11.94 -17.72,-15.66 z"
       id="path6"
       inkscape:connector-curvature="0"
       style="fill:#f5e5c1" />
    <path
       d="m 681.48,189.46 c 7.72,-4.06 14.68,-9.86 23.36,-11.86 3.72,12.5 7.74,24.9 12.72,36.96 -4.88,0.1 -9.84,-0.28 -14.64,0.84 -32.58,9.08 -59.92,29.7 -88.56,46.8 -13.7,5.28 -23.78,16.2 -35.1,25.1 -14.58,12.08 -26.78,26.64 -41.12,38.96 -14.72,13.94 -31.5,25.62 -45.12,40.74 -9.04,10.3 -19.44,19.28 -28.9,29.2 -8.26,9.04 -15.96,18.66 -22.74,28.86 -6.08,9.26 -14.14,17.04 -19.66,26.68 -2.72,4 -4.86,8.98 -9.52,11.1 -2.72,-0.2 -5.44,-0.48 -8.12,-0.9 1.34,-15.72 13.3,-27.58 21.86,-39.98 9.08,-14 18.6,-27.82 30.18,-39.9 7.04,-7.54 14.98,-14.24 21.46,-22.32 12.44,-15.58 28.5,-27.62 42.66,-41.52 19.02,-15.62 33.64,-35.94 53.28,-50.86 11.38,-9.32 22.54,-18.86 34.18,-27.86 15.68,-9.9 28.76,-23.46 45.08,-32.44 9.82,-5.44 18.8,-12.28 28.7,-17.6 z"
       id="path8"
       inkscape:connector-curvature="0"
       style="fill:#e86d2a" />
    <path
       d="m 395.66,288.32 c 12.04,-2.1 24.32,-0.72 36.42,-2.2 11.92,-1.58 23.96,-1.08 35.96,-1.18 14.7,0.18 29.36,-0.76 44.04,-0.7 -5.92,5.64 -11.6,11.56 -17.64,17.08 -23.56,-0.18 -47.06,1 -70.56,1.96 -12.5,2.24 -25.28,1.02 -37.8,3 -11.34,1.46 -22.84,-0.18 -34.14,1.82 -9.16,1.5 -18.54,0.48 -27.7,2 -22.62,4.08 -45.52,6.28 -68.18,10.16 -18.64,0.52 -35.88,8.16 -54.08,11.4 -13.12,4.94 -26.48,9.24 -39.86,13.5 -17.88,7.14 -38.18,12.46 -50.22,28.72 -5.14,8.96 -9.8,19.72 -6.4,30.14 2.56,7.18 6.64,14.4 13.4,18.36 11.42,5.24 23.94,7.82 34.96,13.98 7.58,4.2 15.44,8 23.86,10.14 10.82,2.64 21.06,7.42 32.14,8.98 16.72,2.54 33.28,6.24 50.18,7.26 12.82,0.54 25.14,4.6 37.86,5.86 23.38,2.36 46.66,5.46 70.04,7.82 43.34,2.3 86.82,4.36 130.18,1.58 25.24,-1.7 50.64,-1.84 75.78,-5 31.34,-2.78 62.6,-6.42 94.04,-8.02 21.5,-2.24 43.12,-4.04 64.26,-8.68 12.52,-3.56 25.56,-4.84 38.02,-8.66 13.26,-3.96 26.74,-7.1 40.34,-9.6 12.06,-2.3 22.92,-8.16 33.8,-13.58 10.6,-5.56 20.1,-13.22 27.88,-22.32 7.08,-9.22 4.22,-21.56 3.1,-32.2 -0.3,-7.04 -5.06,-12.68 -10.46,-16.72 -16.74,-12.94 -34.72,-25.84 -56,-29.7 -15.74,-2.54 -30.94,-8.04 -46.92,-8.96 -18.86,-1.24 -37.28,-6.02 -56.16,-6.74 -24.6,-1.46 -49.14,-5.84 -73.82,-3.76 -10.9,1.06 -21.76,-1.04 -32.66,-0.86 7.72,-5.4 14.36,-12.68 22.82,-16.76 36.76,0.22 73.24,5.56 109.86,8.22 45.46,1.78 89.26,16.48 130.44,34.92 15,7.52 28.18,18.42 39.52,30.7 7.1,7.7 12.66,17.2 14.22,27.66 2.9,13.7 -2.16,28.52 -12.38,37.98 -14.04,12.82 -32.68,18.4 -50.3,24.34 -44.52,14.32 -88.8,30.06 -134.88,38.62 -32.66,6.7 -65.9,9.76 -98.9,14.1 -20.46,2.72 -41.1,3.4 -61.6,5.3 -12.82,0.92 -25.76,0.3 -38.52,2.1 -15.18,1.34 -30.46,0.14 -45.6,2.08 -37.36,0.4 -74.76,0 -112.12,0.2 -9.32,0.26 -18.5,-1.52 -27.8,-1.58 -19.52,-0.32 -38.66,-4.6 -57.84,-7.74 -32,-4.16 -62.8,-14.38 -93.26,-24.74 -12.18,-5.2 -25.62,-7.34 -37.02,-14.28 -14.02,-9.36 -29.28,-17.06 -41.58,-28.8 -9.48,-7.88 -16.8,-18.02 -22.88,-28.66 -3.66,-5.9 -3.7,-13.78 -0.44,-19.84 5.92,-11.06 9.2,-24.18 19.48,-32.28 16.94,-13.2 36.34,-23.32 56.98,-29.3 34.28,-12.56 70.52,-18.3 106.46,-23.92 43.56,-7.32 87.62,-11.04 131.68,-13.2 z"
       id="path10"
       inkscape:connector-curvature="0"
       style="fill:#f5e5c1" />
    <path
       d="m 407.98,316.3 c 24.5,-1.88 49.2,-4.28 73.7,-0.66 -2.88,3.2 -5.72,6.44 -8.48,9.74 -19.78,0.74 -39.56,1.4 -59.32,2.56 -12.84,0.7 -25.58,5.76 -38.46,2.72 -0.24,-2.48 -0.46,-4.98 -0.68,-7.46 10.58,-4.14 22.12,-4.92 33.24,-6.9 z"
       id="path12"
       inkscape:connector-curvature="0"
       style="fill:#f5e5c1" />
    <path
       d="m 585.78,317.38 c 8.62,-1.16 17.4,-1.46 26.06,-0.5 3.42,0.08 5.52,3.14 7.98,5.1 -8.46,9.02 -23.4,8.48 -34.3,4.72 -0.62,-1.18 -1.9,-3.54 -2.54,-4.72 0.7,-1.16 2.1,-3.46 2.8,-4.6 z"
       id="path14"
       inkscape:connector-curvature="0"
       style="fill:#f5e5c1" />
    <path
       d="m 302.2,328.32 c 13.96,-1.4 27.9,-3.18 41.86,-4.58 3.86,-0.34 9.96,1.42 9.5,6.32 0.04,5.76 -7.34,6.42 -11.64,6.82 -10.84,0.22 -21.5,2.26 -32.2,3.78 -9.16,1.42 -18.54,-0.06 -27.66,1.72 -22.14,4.02 -43.44,11.42 -65.16,17.04 -8.2,2.66 -16.12,6.2 -24.66,7.68 -11.1,2.04 -20.4,8.78 -30.9,12.44 -5.9,2.18 -11.9,4.78 -16.38,9.34 -3.86,3.6 -6.52,8.8 -11.98,10.28 -0.78,-11.34 8.06,-20.12 17.56,-24.62 13.06,-5.9 25.04,-14.42 39.18,-17.7 11.1,-2.46 21.04,-8.38 32.18,-10.68 26.56,-6.66 52.42,-18.7 80.3,-17.84 z"
       id="path16"
       inkscape:connector-curvature="0"
       style="fill:#f5e5c1" />
    <path
       d="m 412.98,383.18 c 5.38,-3.1 11.3,-5.24 17.58,-5.24 -2.8,3.7 -5.64,7.36 -8.48,11.04 -3.14,-0.74 -6.26,-1.5 -9.38,-2.24 0.06,-0.9 0.22,-2.68 0.28,-3.56 z"
       id="path18"
       inkscape:connector-curvature="0"
       style="fill:#f5e5c1" />
    <path
       d="m 354.1,381.44 c 12.22,-0.6 24.68,-3.6 36.76,-0.08 0.16,2.44 0.46,4.92 0.3,7.38 -1.72,1.04 -3.54,1.62 -5.52,1.76 -19.12,1.18 -38.42,1.66 -57.22,5.76 -8.74,1.68 -17.74,1.66 -26.36,3.96 -8.12,2.1 -15.98,5.08 -23.8,8.1 -13.16,5.12 -27.08,8.12 -40.06,13.74 -9.38,4.18 -19.38,7.72 -26.78,15.18 -5.3,-4.46 -0.94,-11.38 3.62,-14.34 13.96,-9.8 30.66,-14.4 46.64,-19.72 16.74,-5 32.6,-13.42 50.22,-15.08 14.2,-1.4 27.92,-5.84 42.2,-6.66 z"
       id="path20"
       inkscape:connector-curvature="0"
       style="fill:#f5e5c1" />
    <path
       style="fill:#f5e5c1"
       d="M 1133.0938 555.40625 C 1122.3377 555.68358 1112.4219 562.46953 1106.9375 571.6875 C 1105.5125 576.7375 1105.5 582.0875 1105 587.3125 C 1104 586.8625 1102 585.95 1101 585.5 C 1103.7 607.025 1099.7 628.525 1098.75 650 C 1098.575 691.65 1099.85 733.4875 1094.75 774.9375 C 1094.475 797.5875 1091.05 820.025 1089.75 842.625 C 1087.775 865.225 1081.25 887.25 1080.875 910 C 1080.575 917.1 1079.625 924.1375 1078.75 931.1875 C 1071.55 934.4875 1064.1375 937.1875 1056.5625 939.4375 C 1052.7875 918.1375 1050.2625 896.5375 1049.5625 874.9375 C 1049.3625 864.6625 1055.8125 850.075 1043.6875 844.25 C 1032.3625 841.15 1022.825 850.575 1012.125 852.625 C 996 855.675 981.8 864.7125 965.625 867.5625 C 940.125 873.8875 914.7 880.6125 888.875 885.5625 C 854.625 895.5375 818.875 897.7 783.625 901.75 C 778.825 902.5 775.7625 907.725 776.8125 912.375 C 778.8375 936.925 777.9 961.675 782.5 986 C 769.65 987.15 756.775 988.2625 743.875 988.5625 C 739.05 962.2375 740.425 935.25 736.375 908.875 C 729.9 906.525 723.0125 905.8625 716.1875 906.4375 C 721.8125 940.1625 720.45 974.7 726.125 1008.5 C 837.825 1004.1 949.4 991.9875 1058.875 969.1875 C 1059.625 967.8625 1061.125 965.2375 1061.875 963.9375 C 1067.35 962.6875 1073.2125 959.95 1078.4375 963.5 C 1090.5375 958.225 1103.3625 954.025 1114.4375 946.75 C 1117.5625 941.425 1117.025 934.6125 1118.375 928.6875 C 1172.2581 928.2995 1226.1169 928.14614 1280 928.25 L 1280 899.3125 C 1252.1223 898.98973 1224.2967 900.42096 1196.4375 900.5625 C 1192.1125 895.3375 1187.25 889.7375 1188.125 882.4375 C 1188.075 834.0875 1187.725 785.7 1188.75 737.375 C 1188.55 729.5 1192.725 722.4875 1193.375 714.8125 C 1191.225 708.5875 1184.675 703.95 1178 706.25 C 1166 709.2 1164.4625 728.55 1176.6875 732.625 C 1177.0375 788.225 1176.0625 843.8375 1176.0625 899.4375 C 1157.5125 901.6875 1138.9375 897.4625 1120.3125 898.8125 C 1127.1375 858.7375 1130.925 818.1125 1130.75 777.4375 C 1133.2 736.6375 1134 695.775 1133.875 654.875 C 1136.625 621.975 1141.675 589.0375 1139.125 555.9375 C 1137.0977 555.51562 1135.0856 555.35489 1133.0938 555.40625 z M 1025.7188 873.25 C 1025.2188 899.075 1028.7187 924.75 1033.3438 950.125 C 1016.2687 953.775 999.95625 961.48125 982.15625 961.15625 C 980.45625 937.08125 977.95 913 972.875 889.375 C 981.075 887.85 989.10625 885.35 996.65625 881.75 C 1005.8312 877.325 1015.9438 875.825 1025.7188 873.25 z M 934.34375 898.375 C 936.24375 921.675 936.10625 945.0875 937.15625 968.4375 C 928.13125 969.5375 919.1375 970.6875 910.0625 971.1875 C 895.3625 971.8125 881.5625 977.78125 866.9375 979.15625 C 863.8125 957.68125 861.26875 936.10625 860.96875 914.40625 C 885.44375 909.20625 909.84375 903.525 934.34375 898.375 z M 826.34375 918.75 C 824.46875 940.2 826.59375 961.675 827.09375 983.125 C 818.69375 983.625 810.3125 984.175 801.9375 984.5 C 797.6625 963.85 798.1375 942.73125 796.9375 921.78125 C 806.7625 920.85625 816.54375 919.85 826.34375 918.75 z "
       transform="scale(0.8,0.8)"
       id="path22" />
    <path
       style="fill:#f5e5c1"
       d="M 125.4375 570.5625 C 123.14766 570.52324 120.84063 570.725 118.5 571.1875 C 120.975 578.8875 123.425 586.7 123.625 594.875 C 124.15 612.125 129.3 628.7375 132 645.6875 C 134.425 660.6125 139.275 675.075 141 690.125 C 143.225 718.425 150.4875 746.075 151.5625 774.5 C 152.1875 794.675 153.925 814.8 154.5 835 C 154.85 856.875 160.025 878.3875 159.625 900.3125 C 136.9 900.6625 114.1625 900.1125 91.4375 900.5625 C 87.1375 895.3375 82.275 889.8 83.125 882.5 C 83.15 833.3 82.525 784.05 83.875 734.875 C 83.475 726.35 92.5375 716.95 85.1875 709.625 C 78.4375 701.2 63.4125 707.55 63.4375 718 C 61.4375 724.775 66.225 729.6 71.625 732.625 C 72 788.25 71.1 843.875 71 899.5 C 47.432562 901.99674 23.178256 899.25584 0 904.625 L 0 923.125 C 33.77513 928.72576 68.274316 926.39526 102.375 927.0625 C 122.075 927.0125 141.825 928.05 161.5 926.625 C 162.125 930.3 162.7125 933.925 163.3125 937.625 C 159.8125 942.15 158.0125 947.525 158.0625 953.25 C 237.6125 975.15 319.475 987.725 401.375 996.875 C 460.725 1002.7 520.2 1007.925 579.875 1009.125 C 578.775 987.55 577.725 965.9 573.625 944.625 C 571.325 929.525 566.2875 913.85 571.3125 898.75 C 590.0375 900.3 608.75 897.5375 627.5 898.1875 C 644.2 898.1875 660.8875 900.5 677.5625 899 C 686.7375 898.325 695.95 896.225 705.125 897.875 C 715.45 899.625 725.9125 899.825 736.3125 898.625 C 736.9375 886.325 736.6 874.05 736.25 861.75 C 717.8 857.275 698.6125 854.375 679.6875 857.25 C 661.4875 860.525 643.25 856.0375 625 856.6875 C 609.125 856.2625 593.4375 860.1 577.5625 859.25 C 567.5375 858.725 557.5 859.45 547.625 861.375 C 550.175 878.425 552.9375 895.45 554.5625 912.625 C 557.3625 938.075 562.925 963.1125 564.5 988.6875 C 549.525 987.2625 534.6 985.8 519.75 983.625 C 517.275 961.675 514.425 939.6625 513.75 917.5625 C 513.3 908.1375 516.6625 896.325 508.0625 889.5 C 498.3875 880.55 484.4125 884 472.5625 884 C 460.0375 883.6 447.5375 885.9 435.0625 884.5 C 417.6625 882.825 399.95 885.4875 382.75 881.5625 C 356.3 875.6125 329.1 875.875 302.375 872.125 C 284.1 869.975 265.625 869.7 247.375 867.375 C 237.325 866.225 229.4875 855.0625 218.8125 859.1875 C 210.8125 863.8625 210.7 874.4125 211.375 882.5625 C 214.375 904.4875 212.125 926.675 214.75 948.625 C 208.75 946.1 198.5875 945.8125 197.4375 937.6875 C 193.8125 911.1625 193.625 884.2875 189.5 857.8125 C 185.275 812.0125 186.7375 765.7 178.8125 720.25 C 175.8375 705.3 176.2 689.8875 173.25 674.9375 C 170.1 658.2625 164.3 642.0625 163.125 625.0625 C 162.225 615.4375 169.6 605.3375 163.625 596.3125 C 155.90313 582.70625 141.46641 570.8373 125.4375 570.5625 z M 232 887.71875 C 249.775 892.16875 268.0625 893.65 286.3125 894.375 C 280.6375 915.525 280.91875 937.525 280.71875 959.25 C 264.81875 957.875 248.8625 956.0875 233.5625 951.3125 C 230.8875 930.2125 232.025 908.91875 232 887.71875 z M 324.15625 898.875 C 355.25625 898.35 385.15625 909.79375 416.28125 908.71875 C 412.30625 930.51875 410.375 952.6375 411.375 974.8125 C 389.225 973.4375 367.25625 969.5875 345.03125 969.1875 C 338.50625 969.1375 332.0375 968.05625 325.6875 966.78125 C 323.0125 944.25625 323.68125 921.5 324.15625 898.875 z M 488.8125 908.0625 C 488.7375 932.6375 491.9625 957.075 494.5625 981.5 C 482.5875 980.575 470.5625 980.8375 458.5625 980.4375 C 458.2125 956.4625 459.31875 932.5625 460.96875 908.6875 C 470.26875 909.4125 479.5625 909.2875 488.8125 908.0625 z "
       transform="scale(0.8,0.8)"
       id="path24" />
    <path
       d="m 765.62,501.92 c 31.62,-8.7 63.4,-17.56 93.26,-31.32 -0.6,3.84 -1.38,7.68 -2.74,11.36 0.88,4.86 1.38,9.8 1.46,14.76 -19.28,8.24 -39.34,14.44 -59.44,20.24 -29.08,7.24 -57.6,16.44 -86.48,24.36 -21.98,6.04 -44.74,8.04 -67.18,11.6 5.18,17.68 8.6,35.8 10.76,54.1 17.36,-0.84 34,-6.2 51.02,-9.16 36.42,-9.26 72.58,-20.16 109.8,-25.82 6.74,-1.38 11.9,-6.3 18.24,-8.62 5.5,-1.54 10.7,0.9 15.16,3.9 -1.96,23.2 -4.44,46.42 -4.44,69.74 -23.4,6.46 -47.08,11.8 -70.8,16.88 -17.58,2.8 -35.12,6.04 -52.22,11.04 -22.88,4.4 -46.32,5.3 -69.24,9.52 -3.52,0.56 -7.06,0.68 -10.6,0.86 -1.62,-11.02 -0.72,-22.2 -1.66,-33.28 -1.02,-10.82 -2.32,-21.62 -3.4,-32.42 3.12,-5.54 0.36,-11.92 -0.06,-17.76 -2.06,-17.6 -7.7,-34.48 -10.56,-51.92 20.68,-6.56 41.88,-11.1 63.22,-15.04 25.58,-6.68 50.58,-15.42 75.9,-23.02 z"
       id="path26"
       inkscape:connector-curvature="0"
       style="fill:#f5e5c1" />
    <path
       d="m 144.48,513.46 c -6.88,-5 -5.9,-18.26 3.18,-20.22 6.68,-0.32 13.02,2.58 19.32,4.4 13.02,5.12 26.48,9.02 39.44,14.32 19.52,7.22 40.58,6.58 60.82,9.98 15.22,5.24 31.34,5.64 47.04,8.5 16.48,2.54 33.22,1.98 49.76,4.16 6.84,-0.68 14.08,4.2 14.56,11.36 1.22,13.16 8.04,24.96 9.48,38.1 2.2,19.94 5.7,39.84 5.4,59.94 0.88,11.16 4.44,21.86 6.16,32.88 -3.86,0.8 -7.78,1.86 -11.7,0.86 -11.32,-2.3 -22.66,2 -33.98,0.32 -10.78,-0.98 -21,-5.38 -31.9,-5.38 -13.34,-0.24 -26.7,1.62 -40.02,0.08 -20.44,-3.38 -41.38,-0.74 -61.76,-5.04 -14.3,-3.22 -30.88,-1.84 -42.68,-11.94 -2.74,-22.7 -4.72,-45.56 -4.94,-68.42 4.84,-2.56 10.74,-3.9 15.86,-1.22 15.92,7.88 34.3,5.48 51.4,8.22 29.14,4.5 58.42,9.56 88.04,8.64 14.74,-0.62 29.58,0.34 43.8,4.56 -0.32,-15.72 -3.74,-31.06 -7.74,-46.18 -12.74,0.74 -25.32,-1.86 -38.02,-1.9 -12.8,-0.14 -25.2,-3.9 -37.96,-4.62 -13.02,-0.62 -24.98,-6.84 -37.98,-7.54 -20.16,-1.2 -40.52,-4.4 -59.18,-12.38 -15.88,-6.1 -33.06,-10.42 -46.4,-21.48 z"
       id="path28"
       inkscape:connector-curvature="0"
       style="fill:#f5e5c1" />
    <path
       style="fill:#f5e5c1"
       d="M 553.09375 664.0625 C 552.02432 664.08813 550.94687 664.21875 549.84375 664.5 C 537.86875 667.1 526.075 670.49375 514.25 673.71875 C 514 692.69375 514.975 711.7375 519.125 730.3125 C 523.625 747.4375 521.2125 765.39375 524.5625 782.71875 C 528.8625 799.36875 524.54375 816.9625 531.34375 833.1875 C 547.81875 838.7125 565.4125 838.10625 582.5625 838.53125 C 633.3875 839.00625 684.20625 838.9875 735.03125 838.8125 C 743.55625 839.9875 749.03125 831.98125 751.65625 825.03125 C 753.03125 804.60625 744.85625 785.2625 743.65625 765.0625 C 742.38125 734.3875 743.8875 702.5875 733.4375 673.1875 L 727.21875 673.1875 C 722.81875 670.2875 717.9375 668.06875 712.5625 668.46875 C 666.7125 668.34375 620.85 668.3875 575 668.6875 C 567.36563 669.14688 560.57979 663.88306 553.09375 664.0625 z M 550.9375 684.34375 C 551.5293 684.32051 552.12188 684.31562 552.71875 684.34375 C 559.14375 686.36875 565.54375 689.225 572.46875 688.875 C 618.01875 688.95 663.6125 689.2375 709.1875 688.9375 C 712.4125 714.5875 711.4125 740.5125 711.9375 766.3125 C 712.4125 783.1375 717.38125 799.35625 719.15625 816.03125 C 664.83125 816.23125 610.4875 815.7375 556.1875 816.9375 C 555.2875 806.6375 555.75625 796.19375 553.40625 786.09375 C 548.48125 768.16875 551.4125 749.2375 547.1875 731.1875 C 543.5625 716.4625 540.99375 701.5375 538.71875 686.5625 C 542.76562 685.79687 546.79492 684.50645 550.9375 684.34375 z "
       transform="scale(0.8,0.8)"
       id="path30" />
    <path
       d="m 71.28,582.66 c 10.12,0.6 19.98,3.34 29.46,6.82 -10.18,6.18 -21.18,10.92 -31.34,17.16 -0.24,-8.04 0.16,-16.12 1.88,-23.98 z"
       id="path34"
       inkscape:connector-curvature="0"
       style="fill:#f5e5c1" />
    <path
       d="m 955.28,582.66 c 10.16,0.58 20.04,3.4 29.6,6.8 -10.26,6.16 -21.28,10.9 -31.46,17.2 -0.26,-8.06 0.12,-16.14 1.86,-24 z"
       id="path36"
       inkscape:connector-curvature="0"
       style="fill:#f5e5c1" />
  </g>
</svg>
