<?xml version="1.0" encoding="UTF-8" standalone="no"?>
<svg
   xmlns:dc="http://purl.org/dc/elements/1.1/"
   xmlns:cc="http://creativecommons.org/ns#"
   xmlns:rdf="http://www.w3.org/1999/02/22-rdf-syntax-ns#"
   xmlns:svg="http://www.w3.org/2000/svg"
   xmlns="http://www.w3.org/2000/svg"
   xmlns:sodipodi="http://sodipodi.sourceforge.net/DTD/sodipodi-0.dtd"
   xmlns:inkscape="http://www.inkscape.org/namespaces/inkscape"
   width="1280"
   height="720"
   viewBox="0 0 1024 576"
   version="1.1"
   id="svg2"
   inkscape:version="0.47 r22583"
   sodipodi:docname="assist_capturer.svg">
  <metadata
     id="metadata38">
    <rdf:RDF>
      <cc:Work
         rdf:about="">
        <dc:format>image/svg+xml</dc:format>
        <dc:type
           rdf:resource="http://purl.org/dc/dcmitype/StillImage" />
        <dc:title></dc:title>
      </cc:Work>
    </rdf:RDF>
  </metadata>
  <defs
     id="defs36">
    <inkscape:perspective
       sodipodi:type="inkscape:persp3d"
       inkscape:vp_x="0 : 263.75 : 1"
       inkscape:vp_y="0 : 1000 : 0"
       inkscape:vp_z="527.5 : 263.75 : 1"
       inkscape:persp3d-origin="263.75 : 175.83333 : 1"
       id="perspective40" />
  </defs>
  <sodipodi:namedview
     pagecolor="#ffffff"
     bordercolor="#666666"
     borderopacity="1"
     objecttolerance="10"
     gridtolerance="10"
     guidetolerance="10"
     inkscape:pageopacity="0"
     inkscape:pageshadow="2"
     inkscape:window-width="1280"
     inkscape:window-height="738"
     id="namedview34"
     showgrid="false"
     inkscape:snap-global="true"
     inkscape:snap-page="true"
     inkscape:zoom="0.47584683"
     inkscape:cx="640.00002"
     inkscape:cy="360"
     inkscape:window-x="-8"
     inkscape:window-y="-8"
     inkscape:window-maximized="1"
     inkscape:current-layer="svg2" />
  <path
     d="m 0,0 1024,0 0,576 L 0,576 0,0 z"
     id="path4"
     style="fill:#3e3e3e" />
  <path
     d="m 449.0893,73.71242 c 2.52854,-0.74559 5.21915,-0.42142 7.81251,-0.49707 39.27868,0.0756 78.55735,-0.0216 117.83603,0.0432 2.93914,-0.49706 5.38123,2.17194 5.35962,4.99223 0.14046,19.79602 0.0324,39.59204 0.054,59.37725 -8.77422,6.95886 -14.19867,16.81365 -20.29308,25.96607 -7.01289,-4.78693 -14.40398,-8.96872 -21.93555,-12.86957 -12.79393,-6.11602 -26.62522,-9.47659 -40.17554,-13.42067 -7.35867,-2.18274 -14.64171,-4.58161 -21.96797,-6.85081 -8.41762,-2.22596 -15.13876,-8.13668 -21.50331,-13.77724 -3.37138,-2.80949 -5.89991,-6.55906 -7.57479,-10.58958 -0.45383,-8.88228 -0.0432,-17.80777 -0.1837,-26.71166 -0.22692,-2.21516 0.72399,-4.38711 2.57176,-5.66217 z"
     id="path6"
     style="fill:#f4722b" />
  <path
     d="m 429.42295,81.40607 c 2.08549,1.68568 2.37726,4.5708 3.55507,6.86161 1.93422,3.9981 3.39298,8.20151 5.27318,12.22123 4.32227,7.88815 9.54142,15.33326 15.80872,21.81668 8.68778,8.37441 20.41194,12.02673 31.48777,16.03565 6.69953,2.44208 13.8745,3.20928 20.59564,5.59734 11.79981,4.08455 23.72929,7.89895 35.01043,13.3018 4.56,2.52853 9.08758,5.14351 13.64758,7.68284 0.87526,3.86844 -1.61004,7.25062 -3.12284,10.58958 -4.10617,7.06692 -9.54142,13.36663 -15.86276,18.55336 -3.30653,2.94995 -6.89402,5.71621 -11.01098,7.4127 -2.82029,0.82123 -5.80265,0.21611 -8.59052,-0.42142 -16.83526,-4.26825 -33.78939,-8.02863 -50.76513,-11.72417 -5.60815,-0.84285 -9.00114,-5.82426 -12.51298,-9.73592 -3.12285,-3.0472 -5.51091,-6.74275 -7.52077,-10.58958 -3.78198,-7.65042 -8.91468,-14.69572 -11.33516,-22.97289 -3.55506,-8.90389 -6.79677,-18.07791 -7.76928,-27.67336 -0.1837,-6.0836 -0.33497,-12.18882 0.55109,-18.21839 0.37819,-6.32133 2.58255,-12.38332 2.56094,-18.73706 z"
     id="path8"
     style="fill:#f5e5c1" />
  <path
     d="m 618.88987,123.44019 c 9.45497,-3.15527 19.48265,-2.04228 29.27261,-2.18275 8.48246,1.03735 16.88928,3.00398 25.00436,5.67298 6.79678,3.69555 12.39412,9.16323 18.4237,13.93934 3.23089,2.43128 4.89498,7.06692 9.21725,7.86654 4.40872,0.24853 9.07678,-0.71317 13.13972,1.53441 -5.22997,5.96475 -12.78313,8.97953 -18.65062,14.16626 -5.8891,7.18578 -11.50806,14.6525 -16.38142,22.58389 -9.96285,16.56511 -12.85877,35.98293 -17.6673,54.40663 -2.02066,13.06408 -5.47849,25.93365 -10.81649,38.04682 -9.40095,24.24797 -22.68114,46.87507 -38.45744,67.51394 -7.79091,11.11905 -18.14276,20.01213 -27.68418,29.54274 -11.44322,10.01688 -23.72929,19.07204 -36.58805,27.19791 -5.18674,2.78787 -10.58958,5.15433 -15.89517,7.71528 -11.2163,5.40284 -23.59962,7.96378 -35.96133,8.87146 -13.79886,-0.24853 -26.38749,-7.2182 -37.37686,-14.98748 -7.87735,-5.82427 -14.13385,-13.52873 -19.40702,-21.71944 -8.80664,-11.88625 -16.66237,-24.44246 -24.16152,-37.19317 -7.12095,-15.08474 -17.14863,-28.66749 -28.79716,-40.54294 -4.171,-4.60323 -10.83811,-5.74863 -16.77042,-5.3164 -10.98939,2.51773 -19.87166,10.17896 -30.61252,13.3126 -6.52663,-14.50123 -13.93933,-28.61346 -19.88246,-43.38483 -4.86255,-15.35488 -7.69365,-31.30407 -9.05516,-47.33971 0.35659,-15.36569 -1.21024,-30.83944 0.7564,-46.14029 3.67393,-0.68075 6.52663,2.00986 9.51981,3.63072 8.24473,5.10028 16.80284,9.72511 24.8963,15.07393 9.16322,7.73687 17.94824,15.94919 27.35999,23.40512 4.87337,3.29573 9.97366,6.67791 15.86276,7.76928 3.44701,0.69157 6.81838,1.79374 10.30862,2.2692 4.24664,0.60512 8.70938,-0.35659 12.73991,1.45876 7.58558,10.17896 14.2635,21.10351 22.87563,30.48285 6.89403,6.51583 13.36664,13.86369 21.95716,18.19678 0.22692,-1.29669 0.46464,-2.60418 0.70238,-3.89005 -7.18579,-3.76038 -12.46977,-10.06009 -17.86181,-15.92758 -4.79773,-4.62483 -8.46086,-10.22218 -12.70748,-15.32247 -7.82333,-9.4874 -15.47376,-19.45023 -19.87166,-31.04474 -7.56399,-13.90692 -13.50712,-28.65668 -18.25081,-43.75222 -2.8311,-8.00702 -3.02559,-16.65157 -3.23091,-25.05839 0.42143,-7.44512 -0.0973,-15.00911 1.53441,-22.34616 2.62579,5.338 3.94408,11.29194 7.31546,16.26256 6.24569,11.64853 16.71639,20.05535 25.86881,29.29421 6.33213,6.94806 14.94427,11.07583 22.49745,16.48947 5.73781,4.18181 13.01004,4.84096 19.34217,7.72608 8.59052,4.13858 18.4345,3.55507 27.40322,6.40777 9.08759,3.06881 18.70464,4.21422 27.68418,7.63962 11.12985,3.11204 22.81081,6.77517 31.15279,15.2036 5.33802,6.56986 9.6927,14.22029 11.19469,22.64872 0.5619,5.98635 2.15033,11.84303 2.38806,17.87261 0.63753,-0.0108 1.9018,-0.0324 2.53933,-0.0432 -0.11885,-14.59849 -2.15033,-30.5909 -12.76151,-41.55868 -6.88323,-6.86161 -15.72228,-11.60531 -25.00436,-14.40398 12.24284,-6.91564 22.59469,-17.23507 29.98578,-29.19696 4.52758,-6.34294 9.26047,-12.55621 13.07488,-19.3746 12.03754,-16.41384 29.29422,-30.14787 49.83583,-33.47602 z"
     id="path10"
     style="fill:#f5e5c1" />
  <path
     d="m 655.78049,142.92284 c 4.56,-1.1454 8.88227,4.71128 6.29971,8.72019 -1.54521,3.2201 -6.2889,4.10616 -8.79582,1.54522 -3.33897,-2.88512 -1.86939,-9.20645 2.49611,-10.26541 z"
     id="path12"
     style="fill:#3e3e3e" />
  <path
     d="m 298.96589,226.38597 c -0.46464,-3.46862 2.91754,-4.99223 5.62977,-5.82426 1.24265,8.42843 2.42047,16.86767 3.45781,25.31772 1.81536,8.86066 4.19261,17.61327 6.99129,26.19298 7.08853,15.98162 14.53365,31.81195 21.56814,47.80437 1.49119,0.0108 3.04721,0.0108 4.37631,-0.74559 7.69365,-3.81441 15.36569,-7.63962 23.07014,-11.41081 5.88909,-2.96076 13.65839,-3.12285 18.90995,1.24265 3.06882,2.72304 5.78104,5.85668 8.13668,9.22806 7.87735,12.11318 15.70067,24.25877 23.64285,36.32872 -36.41516,0.0973 -72.83033,0 -109.2455,0.0432 -2.64739,0.20531 -5.89991,-1.01573 -6.38616,-3.94407 -0.35659,-2.85271 -0.17289,-5.73782 -0.1945,-8.60132 0.054,-38.5439 -0.0324,-77.08778 0.0432,-115.63167 z"
     id="path14"
     style="fill:#f4722b" />
  <path
     d="m 382.3966,221.08038 c 7.62881,-0.32418 15.25763,-0.0973 22.88645,-0.16209 0.32417,1.77213 0.64834,3.53346 0.97251,5.3164 -8.26635,0.15128 -16.29498,-1.93421 -23.85896,-5.15431 z"
     id="path16"
     style="fill:#f4722b" />
  <path
     d="m 670.08722,221.43697 c 1.86938,-0.89688 4.06294,-0.42142 6.0836,-0.55109 14.79298,0.0864 29.59677,0.0216 44.38977,0.0216 2.25838,-0.0108 4.98142,0.27014 6.35374,2.34483 2.17194,3.15526 1.5128,7.14256 1.61005,10.75166 -0.0432,37.46332 -0.0324,74.92663 0,112.40076 0.10806,3.11204 -1.30749,6.71034 -4.40873,7.86654 -2.59336,0.50786 -5.26236,0.25934 -7.87735,0.30256 -34.88076,-0.0756 -69.76151,0.0432 -104.64227,-0.054 10.90295,-14.02578 21.55735,-28.35412 29.85612,-44.10882 8.50407,-15.44132 15.76549,-31.66066 20.48758,-48.66881 2.88511,-13.38824 5.21914,-26.92777 8.14749,-40.30521 z"
     id="path18"
     style="fill:#f4722b" />
  <path
     d="m 505.85158,272.07241 c 7.57479,-2.03146 16.05724,-0.63754 22.4218,4.01972 8.15829,5.67299 12.62104,16.18692 10.89214,25.99848 -1.83697,12.41574 -13.43148,22.63793 -26.07414,22.28133 -14.29591,0.68076 -27.63013,-12.30767 -26.75487,-26.71166 -0.54029,-11.75658 8.28796,-22.68114 19.51507,-25.58787 z"
     id="path20"
     style="fill:#3e3e3e" />
  <path
     d="m 647.09271,365.81175 c 2.96076,2.66901 5.42446,5.95394 8.77422,8.1691 11.0002,4.9382 23.81573,2.39886 34.71867,7.70445 2.57176,1.13461 3.47944,4.18181 3.36057,6.78598 0.43223,4.73289 -3.6091,8.22313 -7.229,10.50313 -7.67203,3.45781 -17.51602,2.03147 -23.57801,-3.95488 -9.06597,-7.00209 -14.44721,-18.01309 -16.04645,-29.20778 z"
     id="path22"
     style="fill:#f4722b" />
  <path
     d="m 365.60457,372.78142 c 2.42047,-1.89099 3.29573,-5.5109 6.73194,-5.98634 -0.389,5.85667 -3.40379,11.00018 -6.36455,15.90596 -3.01479,5.77024 -8.08265,10.23299 -13.53952,13.65839 -6.10522,3.83602 -14.06901,4.43033 -20.77935,1.88019 -3.91165,-2.0963 -8.00701,-6.00796 -7.32625,-10.87052 -0.0756,-4.19261 4.21422,-7.47753 8.21232,-7.35868 7.65043,0 15.3981,-0.054 22.91887,-1.69648 3.87924,-0.7348 7.15335,-3.09043 10.14654,-5.53252 z"
     id="path24"
     style="fill:#f4722b" />
  <path
     d="m 546.50257,409.81251 c 11.79981,-7.26142 23.78332,-14.51203 33.70295,-24.28038 -0.12968,37.0203 0.0324,74.05138 -0.0756,111.08247 0.41062,3.64151 -3.05801,6.24568 -6.46179,5.96474 -40.03508,0.0649 -80.07015,0.0216 -120.10522,0.0216 -2.66901,0.10806 -5.62977,-0.89688 -6.75356,-3.51185 -0.33497,-1.54521 -0.29175,-3.13365 -0.31335,-4.67886 0.10805,-31.55261 -0.0756,-63.09441 0.0864,-94.63621 4.10617,4.24664 7.36948,9.37934 12.38332,12.67507 12.17801,9.40095 27.82465,15.09555 43.32,12.95603 7.34787,-1.26427 15.01991,-1.84778 21.80588,-5.15432 7.55318,-3.30654 15.07394,-6.68872 22.41099,-10.4383 z"
     id="path26"
     style="fill:#f4722b" />
  <path
     d="m 412.13386,424.51905 c 0.55108,-0.0108 1.65327,-0.0216 2.20436,-0.0216 0.44303,5.71621 0.32416,11.49724 -1.09138,17.08379 -1.77213,10.94616 -6.88322,22.34616 -16.97573,27.9435 -3.83602,2.67981 -9.1092,2.34483 -13.12892,0.24853 -3.06881,-1.98824 -4.23583,-5.68379 -5.59735,-8.89307 0.86446,-3.2201 1.75053,-6.74276 4.67887,-8.75261 5.37043,-3.98731 12.1564,-5.4893 17.54843,-9.51982 6.42939,-3.87924 11.49727,-10.51393 12.36172,-18.08872 z"
     id="path28"
     style="fill:#f4722b" />
  <path
     d="m 604.25898,425.28625 2.43127,0.38901 c 1.35071,4.33308 1.56682,9.13081 4.24664,12.95602 2.37725,4.3871 7.47754,5.73782 11.57289,7.95299 5.60814,3.09042 12.50217,4.09535 16.94331,9.03355 4.11697,5.00304 1.38313,13.39905 -4.77611,15.23602 -4.59242,1.04815 -9.80076,0.71318 -13.58275,-2.36645 -4.25744,-3.76037 -8.39601,-7.93137 -10.6544,-13.23697 -4.32229,-9.3253 -6.0728,-19.73118 -6.18085,-29.96417 z"
     id="path30"
     style="fill:#f4722b" />
  <path
     d="m 501.87509,445.96834 2.09629,-0.0972 c 0.3674,2.79866 0.75641,5.60814 0.71319,8.43923 -0.22692,8.22313 3.14446,15.93839 4.60322,23.90218 0.35659,5.18673 -0.35659,11.70257 -5.27317,14.64171 -2.23678,1.80455 -5.03546,0.28095 -7.36948,-0.44303 -0.9293,-2.48531 -1.85859,-5.04626 -1.71811,-7.73688 0.63754,-13.19374 7.56397,-25.37176 6.94806,-38.70597 z"
     id="path32"
     style="fill:#3e3e3e" />
</svg>
