<?xml version="1.0" encoding="UTF-8" standalone="no"?>
<svg
   xmlns:dc="http://purl.org/dc/elements/1.1/"
   xmlns:cc="http://creativecommons.org/ns#"
   xmlns:rdf="http://www.w3.org/1999/02/22-rdf-syntax-ns#"
   xmlns:svg="http://www.w3.org/2000/svg"
   xmlns="http://www.w3.org/2000/svg"
   xmlns:sodipodi="http://sodipodi.sourceforge.net/DTD/sodipodi-0.dtd"
   xmlns:inkscape="http://www.inkscape.org/namespaces/inkscape"
   width="1280"
   height="720"
   viewBox="0 0 1024 576"
   version="1.1"
   id="svg3180"
   inkscape:version="0.47 r22583"
   sodipodi:docname="assist_heavy_long.svg">
  <metadata
     id="metadata3268">
    <rdf:RDF>
      <cc:Work
         rdf:about="">
        <dc:format>image/svg+xml</dc:format>
        <dc:type
           rdf:resource="http://purl.org/dc/dcmitype/StillImage" />
        <dc:title></dc:title>
      </cc:Work>
    </rdf:RDF>
  </metadata>
  <defs
     id="defs3266">
    <inkscape:perspective
       sodipodi:type="inkscape:persp3d"
       inkscape:vp_x="0 : 263.75 : 1"
       inkscape:vp_y="0 : 1000 : 0"
       inkscape:vp_z="527.5 : 263.75 : 1"
       inkscape:persp3d-origin="263.75 : 175.83333 : 1"
       id="perspective3270" />
  </defs>
  <sodipodi:namedview
     pagecolor="#ffffff"
     bordercolor="#666666"
     borderopacity="1"
     objecttolerance="10"
     gridtolerance="10"
     guidetolerance="10"
     inkscape:pageopacity="0"
     inkscape:pageshadow="2"
     inkscape:window-width="1280"
     inkscape:window-height="738"
     id="namedview3264"
     showgrid="false"
     inkscape:zoom="0.5"
     inkscape:cx="452.98729"
     inkscape:cy="385.4321"
     inkscape:window-x="-8"
     inkscape:window-y="-8"
     inkscape:window-maximized="1"
     inkscape:current-layer="svg3180"
     inkscape:snap-page="true" />
  <path
     d="m 0,0 1024,0 0,576 L 0,576 0,0 z"
     id="path3182"
     style="fill:#3e3e3e" />
  <path
     d="m 817.11773,37.78123 c 7.57535,-1.92455 14.09971,4.13574 21.57952,4.36777 2.06105,2.37498 5.43242,4.65441 4.59981,8.28512 -0.75071,4.65441 -2.55242,9.09043 -3.27583,13.75849 5.17308,1.8563 13.02142,0.95545 15.4237,7.01573 0.75071,5.09119 -1.55602,9.97763 -2.86635,14.79583 -1.50142,4.58616 -2.9073,10.89213 -8.76284,11.42446 -4.39508,-0.98275 -8.50351,-2.88 -12.72114,-4.38143 -3.03015,6.18313 -2.67527,15.5329 -10.33252,18.13991 -8.89933,-2.18389 -19.77782,-2.94825 -25.49687,-11.15147 1.67886,-5.39147 3.33043,-10.78294 4.72266,-16.25631 -5.8146,-1.93819 -15.01422,-1.09194 -16.72038,-8.66729 -0.60057,-4.42237 1.47412,-8.65365 2.51147,-12.87128 1.46047,-4.50427 2.53877,-10.25062 7.56171,-12.13422 5.45971,-0.12284 10.469,2.68891 15.51924,4.43602 2.51146,-5.54161 2.15658,-13.73119 8.25782,-16.76133 z"
     id="path3184"
     style="fill:#f4722b" />
  <path
     d="m 711.37668,55.771 c 3.41232,-2.83906 8.25782,-1.52873 12.32531,-2.03375 4.68171,0.16379 10.86483,-1.39223 13.85403,3.38502 2.34768,4.57252 1.50142,9.92304 1.81535,14.87773 5.91014,0.0409 12.74844,-2.06105 17.58029,2.48417 0.90085,7.42521 2.42957,15.10976 0.8872,22.52133 -3.27583,6.33326 -11.34256,4.10843 -17.07526,4.709 -0.041,4.99564 0.70977,10.07318 -0.20474,15.01422 -2.26578,5.43242 -9.21327,5.05023 -14.09971,5.40512 -5.15943,-0.0955 -12.70749,1.40587 -15.20531,-4.53157 -0.85991,-4.83184 -0.70977,-9.80019 -1.50142,-14.64568 -5.09118,0.13649 -10.27792,0.9418 -15.3145,-0.0273 -2.85271,-2.56606 -3.69896,-6.53801 -3.87641,-10.20966 -0.23203,-6.29232 -1.51507,-13.41725 3.0984,-18.56304 5.22767,0.1092 10.4417,-0.32758 15.61478,-1.11924 -0.12284,-5.63715 -3.42597,-13.23981 2.10199,-17.26635 z"
     id="path3186"
     style="fill:#f4722b" />
  <path
     d="m 633.49384,88.43375 c 3.19393,-1.52873 7.17953,-4.64076 10.5782,-1.91091 3.53516,2.89365 5.14578,7.37062 7.34332,11.23337 4.709,-1.9109 10.42805,-8.44891 15.32815,-3.9037 3.658,4.66806 6.60625,10.01858 8.5854,15.61479 1.54237,6.26502 -5.50066,9.11772 -10.12777,10.91943 0.61422,5.21403 5.33687,9.4726 4.42237,14.82313 -3.46692,6.10123 -10.79659,8.5854 -16.88418,11.30161 -7.28871,2.32038 -9.17232,-6.87924 -12.76208,-11.06958 -4.72265,0.57328 -8.39431,4.68171 -13.23981,4.65441 -3.89005,-1.25573 -5.66445,-5.26862 -7.6709,-8.47621 -2.19754,-4.04018 -5.32322,-8.47621 -3.73991,-13.30805 3.37138,-3.09839 7.6982,-4.80455 11.64285,-7.04304 -2.03374,-4.7636 -6.71545,-9.54085 -4.83185,-15.02786 2.74351,-3.80815 7.50711,-5.39147 11.35621,-7.80739 z"
     id="path3188"
     style="fill:#f4722b" />
  <path
     d="m 960.73555,119.54048 c 9.73194,-14.03148 32.21232,-16.3655 44.45575,-4.35413 -8.88571,-2.0201 -19.43661,-3.27583 -27.20305,2.57972 -3.9037,2.83905 -7.65725,6.01933 -10.5509,9.90938 -3.12569,4.14938 -3.75356,9.44531 -4.49062,14.4273 2.77081,2.86635 5.59621,5.6781 8.53081,8.38066 -2.67527,0.53233 -5.33687,1.11924 -7.99849,1.67886 -6.7564,-5.29592 -13.85403,-11.4108 -22.82161,-12.02502 -9.691,-1.26938 -19.25914,3.20758 -26.07014,9.88209 -7.26142,7.76644 -9.06313,19.2182 -6.8383,29.33232 1.09195,3.95829 2.66162,7.76645 3.79451,11.71109 -6.14219,-5.67811 -12.32531,-12.89858 -12.66654,-21.68872 -1.51508,-11.75204 5.66445,-23.19015 15.45099,-29.22313 7.30237,-5.11848 16.26996,-7.26142 25.0874,-7.49346 5.6781,0.0683 10.97402,2.34768 16.3655,3.86275 0.778,-5.84189 1.51507,-11.99773 4.95469,-16.97971 z"
     id="path3190"
     style="fill:#f5e5c1" />
  <path
     d="m 580.12512,117.41119 c 5.51431,0 9.59545,3.89005 13.75848,6.93383 7.60265,5.88285 11.80664,14.79583 16.54294,22.91716 5.36417,9.18597 8.79014,20.09175 6.89289,30.7655 -4.28587,7.35696 -10.83754,13.36265 -14.41365,21.11545 4.65441,18.57668 9.5818,37.13971 15.16436,55.47071 -10.30521,-1.41953 -20.74692,-1.33763 -30.99753,-3.20759 -6.33328,-21.9344 -13.47185,-43.69137 -19.16361,-65.78957 3.53517,-22.79431 8.29877,-45.45213 12.21612,-68.20549 z"
     id="path3192"
     style="fill:#f5e5c1" />
  <path
     d="m 947.04531,201.05403 c 4.55886,-10.64645 12.44815,-20.29649 23.72246,-24.091 8.98123,-1.7744 20.41934,-0.36853 25.34673,8.40797 -7.31601,1.07829 -12.54369,-6.08759 -19.83242,-5.44607 -7.31601,0.95545 -13.03507,6.31962 -16.65213,12.44815 -5.44607,6.74275 -3.41232,15.98332 -2.75715,23.91355 -0.85991,-0.0137 -2.59337,-0.0273 -3.46692,-0.0409 -4.46332,-4.39507 -10.16872,-8.38066 -16.69308,-8.16227 -8.46256,-0.0409 -15.41005,5.52796 -21.47034,10.78293 -6.18313,5.10484 -8.09402,13.5674 -14.48189,18.50844 1.02369,-10.78294 6.59261,-20.71962 14.79583,-27.68076 8.91298,-6.63355 20.35109,-10.4417 31.48891,-8.64 z"
     id="path3194"
     style="fill:#f5e5c1" />
  <path
     d="m 816.01213,190.88531 c 5.10484,-1.61062 10.35981,-2.71621 15.65574,-3.46692 2.68891,2.75716 5.17308,5.71905 7.42521,8.84474 -0.21839,4.31317 -0.35488,8.62635 -0.32758,12.95317 -1.17384,0.15014 -3.52152,0.47773 -4.69536,0.62787 -0.55962,-0.9418 -1.66521,-2.8254 -2.22483,-3.78085 -3.26218,0.49137 -6.31962,1.84265 -9.5818,2.22483 -2.59337,-0.92815 -5.00929,-2.25213 -7.50711,-3.38502 -0.21839,-1.36493 -0.43678,-2.74351 -0.64152,-4.10844 0.43678,-0.64151 1.31033,-1.92455 1.74711,-2.56606 0.0273,-2.44323 0.0683,-4.9001 0.15014,-7.34332 z"
     id="path3196"
     style="fill:#f5e5c1" />
  <path
     d="m 817.4999,194.8982 c 2.57972,-4.72265 8.53081,-4.31318 13.13062,-4.54521 4.21763,3.48057 6.6745,8.51715 5.37782,14.05876 -1.81535,-2.34768 -3.46692,-4.81819 -5.11848,-7.27507 -0.69611,-0.0682 -2.10199,-0.21838 -2.81175,-0.30028 -0.0682,1.02369 -0.20474,3.07109 -0.27299,4.08114 -2.68891,-3.19394 -6.37422,-4.9274 -10.30522,-6.01934 z"
     id="path3198"
     style="fill:#3e3e3e" />
  <path
     d="m 876.77877,199.56625 c 7.42521,-5.77364 17.45744,-7.76644 26.60246,-5.91013 5.63716,1.25573 9.84114,5.41876 13.04872,9.97763 -8.16227,-3.45328 -17.23905,-7.02939 -26.13839,-4.0675 -7.47981,1.61062 -12.12056,9.02219 -13.3217,16.11982 -1.1056,7.6709 2.53877,14.70028 4.709,21.81156 -2.66161,-1.17384 -4.96834,-2.97555 -6.94749,-5.07754 -5.91013,-4.44966 -8.48986,-12.39355 -6.5653,-19.49118 1.89725,-4.95469 4.25857,-10.08683 8.6127,-13.36266 z"
     id="path3200"
     style="fill:#f5e5c1" />
  <path
     d="m 670.22407,214.1437 c 9.82749,-6.14219 21.82522,-5.93745 33.00399,-6.26502 6.11488,0.12283 13.10331,0.60056 18.0307,4.55886 4.16304,7.57535 5.29593,16.46104 6.06029,24.9509 -9.30881,-1.66522 -18.67223,-3.20758 -28.15848,-3.16664 -10.96038,-0.42312 -21.77062,1.77441 -32.43071,4.04019 -0.39583,-8.23052 2.47052,-16.05156 3.49421,-24.11829 z"
     id="path3202"
     style="fill:#f5e5c1" />
  <path
     d="m 816.95393,215.41308 c 1.78806,-1.65157 3.54882,-3.33043 5.32323,-4.99564 1.26938,1.40588 2.55241,2.83905 3.80815,4.28588 1.47412,0.61422 2.94825,1.24208 4.42237,1.8563 1.22844,-1.35128 2.44322,-2.71621 3.65801,-4.09479 1.62426,-0.32758 3.24853,-0.65516 4.88644,-0.98275 -0.98275,8.40797 1.03735,16.58389 1.65157,24.89631 -5.09119,1.20113 -10.31887,1.96549 -15.35545,0.0546 0.16379,-2.49782 0.31393,-4.99564 0.46407,-7.47981 -2.83905,-0.75071 -5.6781,-1.48777 -8.51715,-2.22483 -0.15015,-3.76721 -0.25934,-7.54806 -0.34124,-11.31527 z"
     id="path3204"
     style="fill:#f5e5c1" />
  <path
     d="m 963.58825,227.67014 c 7.07033,-9.00853 19.25914,-13.02142 30.39696,-11.05592 3.91735,1.11924 8.57179,2.25213 10.57819,6.22408 2.6207,4.09478 3.0029,9.06312 2.1976,13.77213 -3.8491,-5.35053 -7.88934,-11.6565 -14.79588,-13.17157 -7.31602,-1.01005 -15.73763,-1.07829 -21.70237,3.98559 -6.38787,6.22408 -10.01858,14.86408 -11.4654,23.55868 -0.61422,-0.0956 -1.8563,-0.28664 -2.48417,-0.38218 -0.80531,-8.27147 1.43317,-16.84322 7.27507,-22.93081 z"
     id="path3206"
     style="fill:#f5e5c1" />
  <path
     d="m 819.4654,220.17668 c 0.92816,0 2.78446,0 3.71261,0 -0.0682,0.73707 -0.19109,2.19754 -0.25933,2.9346 -0.70977,-0.0409 -2.14294,-0.12284 -2.85271,-0.16379 -0.15014,-0.69612 -0.45042,-2.07469 -0.60057,-2.77081 z"
     id="path3208"
     style="fill:#3e3e3e" />
  <path
     d="m 750.12701,249.18142 c 1.62427,-10.30521 10.45536,-19.85972 21.37479,-19.57308 10.5509,-1.11924 20.31014,4.59981 27.58521,11.73839 10.27792,9.51355 14.64569,24.50047 12.27072,38.16341 -1.9928,8.17593 -7.95754,16.47469 -16.70673,17.90787 -1.58332,-1.51507 -2.74351,-3.39867 -3.97195,-5.20038 3.50787,-1.73346 6.7564,-3.931 9.58181,-6.6472 -4.99565,-3.60342 -10.05954,-7.11128 -15.00057,-10.78294 1.16019,-1.33763 2.33402,-2.67526 3.50786,-3.99924 4.64076,3.658 9.43166,7.13857 14.4546,10.25061 1.50142,-8.79014 0.72341,-17.88056 -3.03014,-26.01554 -4.31318,2.86635 -7.87564,6.71545 -12.17517,9.6091 -1.50142,-0.75072 -2.97555,-1.56967 -4.39507,-2.45687 4.31318,-4.06749 8.95393,-7.7801 13.23981,-11.87489 -7.86199,-7.73915 -19.31374,-15.41004 -30.66995,-10.45535 4.47696,7.23412 8.98123,14.46825 13.64928,21.59318 -1.17383,0.36852 -3.53516,1.13288 -4.72265,1.51507 -5.43242,-5.99205 -8.09403,-13.97688 -13.67659,-19.83242 -5.35052,5.55526 -6.42881,13.4036 -5.74634,20.77422 5.41876,0.13649 10.86483,0.041 16.2563,0.61421 1.18749,2.12929 -1.48778,3.53517 -2.40228,5.17308 -4.44967,0 -9.63639,-1.70616 -13.44455,1.41953 -0.9691,-0.0546 -2.89365,-0.13649 -3.8491,-0.17744 -1.74711,-7.07033 -4.17668,-14.4546 -2.12929,-21.74332 z"
     id="path3210"
     style="fill:#f5e5c1" />
  <path
     d="m 847.54199,231.91507 c 4.58616,-1.14654 9.32246,-2.71621 14.09971,-1.63791 8.01214,1.44682 12.53005,9.17232 20.07811,11.72473 -2.72986,1.70617 -5.69175,3.0711 -8.96758,3.15299 -3.89005,-3.45327 -7.73915,-7.19318 -12.5164,-9.37706 -4.25858,-0.51868 -8.81744,0.69611 -12.61195,-1.8836 -0.0273,-0.49138 -0.0682,-1.47413 -0.0819,-1.97915 z"
     id="path3212"
     style="fill:#f5e5c1" />
  <path
     d="m 809.8836,233.51204 c 3.07109,-1.43318 6.811,-0.49138 10.14142,-0.84626 0.31393,4.31318 0.9964,8.59905 1.37858,12.91223 6.38787,5.28227 14.07242,8.6673 21.26559,12.69384 2.18389,1.70616 4.46332,-0.25934 6.19678,-1.54237 -5.69175,-3.31678 -11.4654,-6.56531 -16.84322,-10.37346 -0.10919,-0.39583 -0.31394,-1.16019 -0.42313,-1.55602 4.01289,-2.8527 8.40796,-5.09119 12.39356,-7.99849 7.49345,4.47698 16.37914,6.74275 22.68512,13.00778 -8.99489,5.11848 -18.68588,8.95393 -27.57157,14.27715 l -0.61422,-0.8326 c -0.42313,-4.01289 -3.97194,-6.97479 -7.86199,-4.90009 0.0137,1.78805 0,3.58976 0.0546,5.39146 1.56967,0.38218 3.13934,0.83261 4.69536,1.33763 0.0546,0.34123 0.17744,1.051 0.24569,1.39223 -4.9547,3.04379 -10.20968,9.49991 -16.5293,6.12853 0.47773,-10.27791 -6.06028,-18.69953 -10.35981,-27.47602 -2.34768,-3.65801 -0.39582,-8.05308 1.14655,-11.61554 z"
     id="path3214"
     style="fill:#f5e5c1" />
  <path
     d="m 823.58749,239.31299 c 2.53876,0.27298 5.00929,0.92815 7.27507,2.14294 -2.17024,0.39582 -4.53156,3.05744 -6.7018,1.21478 -0.1365,-0.84626 -0.42313,-2.51147 -0.57327,-3.35772 z"
     id="path3216"
     style="fill:#f5e5c1" />
  <path
     d="m 682.08531,243.8582 c 9.86844,-4.13574 21.53857,-6.44246 31.57081,-1.50142 -1.80171,19.30009 -2.27944,38.69573 -4.02655,58.00948 -0.23203,4.58616 -5.7873,5.52796 -9.03582,7.37061 -5.96475,0.34124 -13.90863,-1.01005 -15.79224,-7.6709 -1.44682,-18.69953 -1.56966,-37.48095 -2.7162,-56.20777 z"
     id="path3218"
     style="fill:#f5e5c1" />
  <path
     d="m 897.15716,248.7037 c 6.87924,-0.60057 13.4036,1.97914 19.96891,3.61706 14.19525,3.8764 28.6362,6.93384 42.69498,11.32891 8.81744,2.53877 14.65933,11.34256 15.05516,20.29649 -5.22768,-2.29308 -10.5509,-5.10484 -16.43375,-4.8182 -15.32815,0.47773 -30.76549,3.7945 -44.29194,11.21972 -16.57024,8.40796 -32.08947,19.02711 -45.0836,32.36246 -7.6436,6.61991 -14.03147,14.5911 -18.67223,23.58598 -17.56663,-5.52797 -35.06502,-11.24702 -52.67261,-16.69309 -4.06748,-1.26938 -8.27146,-2.26578 -12.06596,-4.28587 1.07829,-6.44247 5.84189,-11.30161 9.45895,-16.4474 11.67014,-15.30085 27.70806,-26.19298 43.21365,-37.19431 6.7018,-4.34047 14.05877,-7.52076 21.04721,-11.34256 12.12056,-5.15943 24.32302,-11.27431 37.78123,-11.62919 z"
     id="path3220"
     style="fill:#f5e5c1" />
  <path
     d="m 579.93403,259.03621 c 6.51071,-1.61062 13.10332,0.0273 19.60038,0.81896 25.59241,2.88 51.10294,6.49706 76.74995,8.89933 1.58332,12.36626 1.44683,25.0601 4.64076,37.15337 7.23412,3.7126 15.39639,7.35696 23.68151,5.30957 2.79811,-1.13289 5.15944,-3.16663 7.05669,-5.47337 2.29308,-2.62066 1.74711,-6.34691 2.29308,-9.5545 1.10559,-7.50711 1.17384,-15.09611 1.20114,-22.67146 9.74559,-0.1092 19.36834,1.55601 29.08663,1.96549 7.91659,1.36493 16.40645,0.0546 23.85896,3.57611 10.75563,6.00569 16.96606,16.92512 23.79071,26.68436 -9.13138,6.75641 -15.43735,16.88418 -18.63128,27.68076 4.31318,0.13649 8.64,0.17744 12.96682,0.25934 -0.0819,2.59337 -0.13649,5.20038 -0.21838,7.80739 -11.6565,-1.41952 -23.31299,0.61422 -34.96949,-0.64151 -21.83886,0.0273 -43.67772,-0.39583 -65.51658,-0.51868 -17.48474,-0.0955 -34.92853,-1.20113 -52.41327,-0.9418 0.15014,-6.7018 -0.69611,-13.349 -1.89725,-19.92796 -2.62066,-12.70749 -8.48986,-24.39128 -15.38275,-35.25611 -4.28588,-5.7873 -9.74559,-10.6601 -15.76493,-14.57744 -6.36057,-4.21763 -13.94957,-6.10124 -20.1327,-10.59185 z"
     id="path3222"
     style="fill:#f5e5c1" />
  <path
     d="m 543.49043,261.88891 c 10.10047,-1.52872 20.37838,-0.43678 30.21952,2.17024 13.07602,2.70255 25.75621,8.95393 34.5327,19.20454 6.90654,8.55811 11.11053,18.83602 16.48835,28.33593 -0.98275,0.98275 -1.97915,1.9655 -2.9619,2.94825 -12.4345,-0.62787 -24.9236,0.30028 -37.3308,-0.90086 -29.76911,-0.17744 -59.53821,-0.45042 -89.3073,-0.61421 -0.39583,-13.89498 5.45971,-27.83091 15.91507,-37.01687 9.48625,-7.27508 20.91071,-11.39717 32.44436,-14.12702 z"
     id="path3224"
     style="fill:#f5e5c1" />
  <path
     d="m 820.84398,267.07564 c 1.73346,-2.04739 4.04019,-4.27223 6.85195,-2.60701 0.99639,1.95184 0.65516,4.19032 0.73706,6.29232 -1.21479,-0.0409 -3.65801,-0.1092 -4.8728,-0.15014 -0.68246,-0.88721 -2.03375,-2.64797 -2.71621,-3.53517 z"
     id="path3226"
     style="fill:#3e3e3e" />
  <path
     d="m 772.12967,272.22142 c 2.17023,-2.48417 4.28588,-5.00929 6.38787,-7.54805 1.89725,0.66881 4.58616,0.61421 5.06388,3.08474 -0.0819,4.05383 -4.08113,6.38786 -6.31962,9.32246 -1.71981,-1.62427 -3.42597,-3.24853 -5.13213,-4.85915 z"
     id="path3228"
     style="fill:#f5e5c1" />
  <path
     d="m 986.30066,309.81156 c 2.19754,0.0273 4.40872,0.0683 6.61991,0.1092 7.28873,17.63488 8.96753,36.90768 9.81383,55.78464 0.3412,10.5782 -1.0646,21.06085 -2.4159,31.52986 -1.58333,26.39773 -9.8548,52.15393 -22.50769,75.28948 -9.24057,21.44303 -27.16209,37.57649 -45.90256,50.77535 -8.64,5.11849 -17.96247,9.92304 -27.9674,11.43811 -28.81365,-6.07394 -57.4908,-12.89858 -86.12701,-19.80512 -7.58901,-1.35128 -11.99772,-8.25782 -16.26996,-13.97687 -4.91374,-6.46977 -8.43525,-13.96322 -14.15431,-19.79147 -11.77933,1.92455 -23.70881,2.77081 -35.57005,3.98559 -1.84265,12.05232 -3.83545,24.32304 -9.88208,35.11962 -4.80455,11.31526 -13.70388,20.2419 -23.55867,27.29858 -8.89934,5.50067 -19.69593,9.39067 -30.21953,6.93387 -6.23773,-1.6516 -12.35261,-3.78089 -18.31735,-6.2514 -9.82748,-4.13574 -20.11905,-7.02939 -30.02843,-10.94674 -8.40796,-3.01649 -11.52,-12.44814 -14.26351,-20.1054 -1.63791,-3.80815 -0.95545,-10.31886 -6.14218,-11.30161 -15.27355,-2.22483 -30.80645,-2.00644 -46.09365,-4.13574 -6.18312,11.53366 -14.90502,23.08095 -27.7763,27.39413 -8.89933,3.24853 -18.57668,2.62066 -27.87185,2.30673 -14.19526,-2.41593 -28.67715,-8.59905 -37.08512,-20.84246 -6.82464,-10.57821 -10.86483,-23.02635 -11.24701,-35.6383 0.73706,-15.99697 6.33327,-31.77554 16.2017,-44.42843 2.85271,-3.34408 5.91015,-7.28873 10.7147,-7.46617 0.10919,2.57972 0.19109,5.15943 0.25933,7.73915 -9.51355,10.11413 -16.229,23.25839 -16.57023,37.33081 0.0273,7.24777 -0.61422,14.82312 2.27943,21.67507 3.38502,7.56171 7.11128,15.24626 13.02142,21.1837 7.6163,6.40151 16.44739,11.79298 26.35678,13.64928 9.81384,0.73706 20.26919,-0.57327 28.62256,-6.15583 8.31241,-5.88284 14.49554,-14.55014 17.63488,-24.22749 19.27279,0.47773 38.4091,3.15299 57.66824,3.64437 1.29668,0.24568 3.31678,0.0819 3.79451,1.67886 2.56606,13.17156 6.5926,28.60891 19.54578,35.24246 10.12777,4.40873 20.88341,7.17953 31.24322,11.00133 9.84114,3.7126 21.34749,3.48057 30.57441,-1.84265 13.349,-7.8347 24.41858,-20.3238 28.7454,-35.37896 4.27223,-10.30522 4.13573,-21.70237 3.80815,-32.6491 14.03147,-0.38218 27.9401,-2.63431 41.95792,-3.42597 2.83905,0.0819 6.63355,-0.72341 8.31241,2.27943 7.02939,10.04588 14.29081,20.25554 24.13195,27.76265 2.23848,1.69251 5.06389,2.11564 7.6982,2.8527 24.41858,5.8965 48.9054,11.50636 73.43317,16.93877 14.4,3.63071 27.69441,-5.52796 38.66844,-13.70389 10.05953,-6.63355 18.26274,-15.57383 25.68796,-24.97819 4.51791,-6.16948 7.73915,-13.13062 11.77934,-19.60038 7.00208,-11.41081 10.64644,-24.40493 14.3454,-37.16701 3.54882,-11.86124 5.88284,-24.15925 5.74635,-36.5801 2.17024,-18.1399 0.66881,-36.42995 -0.79166,-54.55621 -1.81535,-8.87204 -3.83545,-17.82597 -7.90294,-25.98825 z"
     id="path3230"
     style="fill:#f5e5c1" />
  <path
     d="m 519.41308,318.629 c 4.51792,-1.01005 9.14503,-1.21478 13.74484,-1.21478 0.19108,3.9037 0.35488,7.80739 0.46407,11.71109 l 0.76436,0.99639 c 0.1092,19.23186 2.64796,38.32721 3.16664,57.54541 1.39222,11.08322 0.9418,22.27564 2.38862,33.35886 0.0137,10.5509 1.46047,21.01991 1.76076,31.57081 -4.6817,-0.42313 -9.32246,-1.07829 -14.00417,-1.41953 -2.81176,-32.52625 -4.04019,-65.14806 -6.60626,-97.68796 -0.12284,-11.64285 -1.8836,-23.19014 -1.67886,-34.86029 z"
     id="path3232"
     style="fill:#f5e5c1" />
  <path
     d="m 498.06559,317.14124 c 4.55887,-0.0546 9.11773,0.0409 13.67659,0.25933 1.8017,37.56284 5.17308,75.03014 7.08398,112.57934 1.01005,7.00208 1.09195,14.08606 1.01005,21.15639 -3.18028,-0.45042 -6.33327,-0.9418 -9.49991,-1.40587 -3.07109,-37.98598 -6.68815,-75.931 -9.90938,-113.91697 -0.79166,-6.22408 -1.29668,-12.4891 -2.36133,-18.67222 z"
     id="path3234"
     style="fill:#f5e5c1" />
  <path
     d="m 540.03716,318.38332 c 6.42881,-0.1092 12.84398,0.13649 19.27279,0.16379 0.31393,15.75128 -0.42313,31.57081 0.80531,47.28114 0.42313,29.40056 0.69611,58.81478 0.77801,88.21535 -4.51791,-0.23204 -9.02218,-0.77801 -13.4582,-1.67886 -0.28663,-24.37763 -2.59337,-48.64606 -3.67166,-72.9691 -1.39222,-20.32379 -2.30673,-40.68853 -3.72625,-61.01232 z"
     id="path3236"
     style="fill:#f5e5c1" />
  <path
     d="m 915.59735,319.17498 c 5.80095,-2.17024 12.21611,-3.9583 18.38559,-2.32038 12.96682,2.67526 22.34388,13.79943 27.24398,25.55147 11.04227,25.18293 10.74199,54.03753 4.39507,80.42161 -3.73991,18.94521 -11.20606,37.3581 -23.04,52.7272 -8.03943,10.22332 -18.71318,19.50483 -31.91204,21.77062 -12.09327,1.97914 -23.94085,-5.03659 -30.77914,-14.65934 -9.43166,-13.41725 -13.19887,-29.89194 -14.65934,-45.98446 -1.77441,-27.06653 3.53516,-54.6108 15.13706,-79.11127 7.99848,-15.5056 18.90427,-30.94294 35.22882,-38.39545 z"
     id="path3238"
     style="fill:#f5e5c1" />
  <path
     d="m 564.81062,318.6836 c 5.00928,0.0955 10.03222,0.1365 15.04151,0.0683 -0.12284,12.5164 1.33763,24.96455 1.06465,37.49459 0.32758,15.46465 -0.0682,30.97024 1.20114,46.40759 0.25933,17.49839 0.47772,34.99678 0.62786,52.49516 -5.07753,0.0273 -10.19602,0.0546 -15.19166,-0.9145 -0.42312,-17.18445 0.17744,-34.40986 -1.13289,-51.56701 -0.32758,-18.67223 -0.43678,-37.34446 -0.72341,-56.00304 -0.90085,-9.30881 -0.76436,-18.65857 -0.8872,-27.98104 z"
     id="path3240"
     style="fill:#f5e5c1" />
  <path
     d="m 585.3528,319.52986 c 5.7327,-1.1056 11.53364,-0.28664 17.23905,0.53232 0.24569,34.39621 0.90085,68.77877 2.26578,103.13403 1.051,11.24701 0.60057,22.56228 1.11924,33.83659 -5.58256,-0.24569 -11.17876,-0.58692 -16.77498,-0.73706 -1.07829,-22.42579 -1.31033,-44.86522 -1.59696,-67.3183 -2.06105,-23.0946 0.0137,-46.38028 -2.25213,-69.44758 z"
     id="path3242"
     style="fill:#f5e5c1" />
  <path
     d="m 608.21536,319.85744 c 5.35052,0.0956 10.71469,0.0956 16.06521,0.28663 0.51867,34.32797 0.0682,68.68323 1.51507,102.98389 0.0819,11.69744 0.13649,23.39488 0.36853,35.07867 -4.83185,-0.0819 -9.71829,0.25934 -14.46824,-0.66881 -0.83261,-16.43375 -0.53233,-32.92208 -0.94181,-49.38313 -1.21479,-15.49194 -0.66881,-31.06578 -1.32398,-46.58502 -1.29668,-13.86768 -0.69611,-27.81725 -1.21478,-41.71223 z"
     id="path3244"
     style="fill:#f5e5c1" />
  <path
     d="m 634.21725,344.42616 c 22.75337,-1.58332 45.65687,-0.47772 68.46483,-0.8326 0.36854,23.58596 0.30029,47.19924 0.0409,70.79886 -8.10767,-1.44683 -16.3382,-3.80816 -24.60966,-2.15659 -8.6673,0.75071 -17.85328,2.94824 -24.1456,9.37706 -6.04663,5.67811 -10.00493,13.23981 -12.31165,21.14275 -2.36133,0.0546 -4.72266,0.10919 -7.08399,0.17744 -0.28663,-32.84019 0.12285,-65.68038 -0.35488,-98.50692 z"
     id="path3246"
     style="fill:#f5e5c1" />
  <path
     d="m 710.42123,344.5217 c 29.19583,0.35489 58.39166,-0.041 87.58749,0.23204 -4.74996,11.30162 -10.38711,22.34389 -12.59829,34.5327 -2.56607,16.26996 -3.23488,32.85385 -2.29308,49.30124 0.9964,9.70464 2.45687,19.38199 2.89365,29.15488 -13.89498,1.47412 -27.9128,2.10199 -41.69858,4.49062 -1.03735,-1.16019 -2.07469,-2.30674 -3.12569,-3.43962 -2.81175,-17.48475 -12.70749,-34.90124 -29.26408,-42.58579 -1.61061,-23.84531 -0.72341,-47.79981 -1.50141,-71.68607 z"
     id="path3248"
     style="fill:#f5e5c1" />
  <path
     d="m 923.47299,363.72625 c 6.10123,-2.7708 13.10331,0.0137 17.36189,4.73631 6.46976,7.01574 8.6673,16.73403 9.80019,25.93365 1.06464,12.13422 -1.22844,24.41858 -5.17308,35.88398 -3.94464,10.29156 -10.79659,20.97896 -21.90711,24.35033 -7.52076,2.12929 -14.83677,-3.38502 -18.46749,-9.59545 -7.41156,-11.75204 -6.92019,-26.23393 -6.00569,-39.55564 1.39223,-10.15507 4.50427,-20.29649 10.07318,-28.96379 3.67166,-5.25497 8.16228,-10.46901 14.31811,-12.78939 z"
     id="path3250"
     style="fill:#3e3e3e" />
  <path
     d="m 926.54407,374.12701 c 5.25498,-1.8836 10.6055,1.82901 13.5674,5.9511 6.22408,8.73554 6.22408,20.00985 5.52796,30.26047 -1.13289,9.84113 -4.06749,19.90066 -10.6055,27.55791 -3.7945,4.47697 -9.80018,7.93024 -15.81952,6.11488 -4.7909,-1.86995 -8.02578,-6.37421 -9.95034,-10.97402 -5.5962,-14.91867 -3.60341,-32.04854 3.67167,-46.02541 3.07108,-5.47336 7.37061,-11.00132 13.60833,-12.88493 z"
     id="path3252"
     style="fill:#f5e5c1" />
  <path
     d="m 697.20872,428.2328 c 6.15583,-0.75072 12.96683,-0.73706 18.2764,2.94824 12.14787,7.8074 17.70313,22.45308 19.57308,36.21157 2.00644,19.9962 -1.9928,41.38464 -14.5092,57.53175 -5.7873,7.45251 -14.4,13.77213 -24.17288,13.86768 -9.52721,0.69611 -18.05801,-5.74635 -23.05366,-13.38996 -7.15222,-11.20606 -10.01858,-24.8144 -9.30881,-38.01327 -0.32758,-13.25345 3.05744,-26.52056 9.34976,-38.14976 5.21403,-9.37706 13.21252,-18.05801 23.84531,-21.00625 z"
     id="path3254"
     style="fill:#f5e5c1" />
  <path
     d="m 508.37081,455.13555 c 39.84227,2.78445 79.65725,5.6508 119.51317,8.32606 -0.15014,6.57896 0.43678,13.22616 -0.66881,19.75052 -0.83261,4.51792 -5.54161,7.65725 -10.00493,7.07033 -33.01763,-3.33042 -66.08986,-6.14218 -99.12114,-9.30881 -2.33403,-2.30673 -5.25498,-4.34047 -6.26503,-7.60265 -1.76075,-5.93744 -2.7708,-12.07963 -3.45326,-18.23545 z"
     id="path3256"
     style="fill:#f5e5c1" />
  <path
     d="m 701.03052,456.66426 c 3.93099,-0.8053 8.76285,-1.24208 11.98408,1.67887 6.46976,5.28227 8.92663,14.04512 8.68095,22.1255 0.19108,10.10047 -3.53517,20.84246 -11.61555,27.28493 -3.39868,2.82539 -8.20322,2.97554 -12.29801,1.97914 -3.7672,-1.59696 -6.44247,-5.00929 -8.24417,-8.57175 -4.35412,-9.03583 -4.02654,-19.70958 -0.9418,-29.10029 2.17023,-6.29232 6.10123,-12.65289 12.4345,-15.3964 z"
     id="path3258"
     style="fill:#3e3e3e" />
  <path
     d="m 704.23811,461.18218 c 4.92739,-1.21479 9.54084,2.60701 11.76568,6.7018 3.89005,7.78009 3.63071,17.15716 0.68246,25.19659 -1.8836,5.11848 -5.52795,9.99128 -10.83753,11.82028 -3.94465,1.59697 -8.35336,-0.92815 -10.76929,-4.04019 -4.53156,-6.6199 -5.85555,-15.2599 -3.63071,-22.9581 1.50142,-7.00208 5.36417,-14.65934 12.78939,-16.72038 z"
     id="path3260"
     style="fill:#f5e5c1" />
  <path
     d="m 500.76815,466.01403 c 3.08474,4.90009 5.00929,10.37346 7.58901,15.53289 1.33763,3.39867 5.50066,3.33043 8.48985,4.17668 14.78218,1.82901 29.61896,3.22123 44.37385,5.26863 -2.0201,10.71469 -9.86844,20.11905 -19.65498,24.73251 -8.55811,4.27223 -19.2728,1.95185 -26.12474,-4.44967 -12.571,-11.09687 -16.48834,-29.15488 -14.67299,-45.26104 z"
     id="path3262"
     style="fill:#f5e5c1" />
</svg>
