<?xml version="1.0" encoding="UTF-8" standalone="no"?>
<svg
   xmlns:dc="http://purl.org/dc/elements/1.1/"
   xmlns:cc="http://creativecommons.org/ns#"
   xmlns:rdf="http://www.w3.org/1999/02/22-rdf-syntax-ns#"
   xmlns:svg="http://www.w3.org/2000/svg"
   xmlns="http://www.w3.org/2000/svg"
   xmlns:sodipodi="http://sodipodi.sourceforge.net/DTD/sodipodi-0.dtd"
   xmlns:inkscape="http://www.inkscape.org/namespaces/inkscape"
   width="1280"
   height="720"
   viewBox="0 0 1024 576"
   version="1.1"
   id="svg3136"
   inkscape:version="0.47 r22583"
   sodipodi:docname="assist_heavy.svg">
  <metadata
     id="metadata3226">
    <rdf:RDF>
      <cc:Work
         rdf:about="">
        <dc:format>image/svg+xml</dc:format>
        <dc:type
           rdf:resource="http://purl.org/dc/dcmitype/StillImage" />
        <dc:title></dc:title>
      </cc:Work>
    </rdf:RDF>
  </metadata>
  <defs
     id="defs3224">
    <inkscape:perspective
       sodipodi:type="inkscape:persp3d"
       inkscape:vp_x="0 : 263.75 : 1"
       inkscape:vp_y="0 : 1000 : 0"
       inkscape:vp_z="527.5 : 263.75 : 1"
       inkscape:persp3d-origin="263.75 : 175.83333 : 1"
       id="perspective3228" />
  </defs>
  <sodipodi:namedview
     pagecolor="#ffffff"
     bordercolor="#666666"
     borderopacity="1"
     objecttolerance="10"
     gridtolerance="10"
     guidetolerance="10"
     inkscape:pageopacity="0"
     inkscape:pageshadow="2"
     inkscape:window-width="1280"
     inkscape:window-height="738"
     id="namedview3222"
     showgrid="false"
     inkscape:zoom="0.44739336"
     inkscape:cx="407.55474"
     inkscape:cy="404.86998"
     inkscape:window-x="-8"
     inkscape:window-y="-8"
     inkscape:window-maximized="1"
     inkscape:current-layer="svg3136" />
  <path
     d="m 0,0 1024,0 0,576 L 0,576 0,0 z"
     id="path3138"
     style="fill:#3e3e3e" />
  <path
     d="m 577.62579,30.02844 c 12.81668,-6.67451 26.6161,-12.39356 41.16624,-13.4036 7.45252,-0.43678 17.26636,4.83184 15.62844,13.51279 -1.46047,6.7291 -9.18597,7.49346 -14.60473,9.25421 -4.70901,1.73347 -10.90579,2.42958 -13.22617,7.54806 8.12133,2.25213 16.09251,-1.99279 22.61688,-6.42881 7.95753,-5.13214 13.59469,-13.3763 22.42578,-17.2527 10.53725,-3.46692 22.91715,2.27943 27.02559,12.62558 7.04304,22.2074 9.18597,47.07641 0.46407,69.13366 -2.19753,7.12493 -7.42521,12.70748 -12.61194,17.82597 -5.96474,6.03298 -13.99052,9.40436 -21.90711,12.05232 -4.16303,2.22484 -9.00852,1.43318 -13.51279,1.56967 -11.86124,-0.20474 -23.88626,0.55962 -35.55639,-1.9382 -13.99053,-1.66521 -28.19945,-5.69175 -39.39186,-14.57744 -3.39867,-3.24853 -7.88929,-6.92019 -7.34332,-12.16151 0.0682,-17.78502 -0.0136,-35.57005 0.0409,-53.35508 -0.43678,-2.7708 2.22483,-4.27222 3.931,-5.88284 8.09403,-6.40152 15.38275,-14.09971 24.85536,-18.52208 z"
     id="path3140"
     style="fill:#f5e5c1" />
  <path
     d="m 517.22768,47.60872 c 7.42521,-0.17744 15.00056,-0.76436 22.34388,0.58692 3.03014,0.30028 3.52152,3.94464 3.45328,6.38787 -0.041,18.18085 -0.0136,36.37535 -0.0273,54.5562 -0.17744,2.06105 0.21839,4.49062 -1.47413,6.04663 -1.81535,2.06105 -4.84549,1.41953 -7.26141,1.70617 -6.37422,-0.0273 -12.7621,0.20474 -19.12266,-0.13649 -3.05744,-0.12284 -4.20399,-3.54882 -3.91735,-6.15583 0,-18.64492 -0.0819,-37.30351 0.041,-55.94843 -0.16379,-3.56247 1.97914,-7.28873 5.96474,-7.04304 z"
     id="path3142"
     style="fill:#f5e5c1" />
  <path
     d="m 470.39697,52.31773 c 2.25213,-3.72627 7.6436,-5.18673 11.19241,-2.47053 4.20398,2.89365 5.47337,8.17593 6.48341,12.87128 1.70616,11.01498 1.50142,23.08095 -4.53155,32.82655 -1.29669,2.03373 -3.31679,4.88643 -6.06029,3.33042 -0.32759,-3.27583 3.05744,-5.30958 4.05384,-8.21687 3.76721,-9.00853 3.60341,-19.382 1.33763,-28.7454 -0.98275,-2.79811 -2.25213,-6.87925 -5.8419,-6.8929 -3.7126,0.81896 -5.66446,4.65441 -6.68815,7.98483 -2.96189,10.7147 -3.20758,22.79432 2.10199,32.82654 3.61706,6.82465 11.71109,11.98409 19.51848,9.19963 5.66445,-1.1875 8.91299,-6.29233 12.98048,-9.86844 1.29668,6.23773 -4.35413,10.16872 -9.10408,12.76208 -6.00569,3.35773 -13.82673,3.0165 -19.43659,-1.01004 -7.97119,-5.02294 -10.82389,-14.76854 -12.12057,-23.57232 -1.16019,-10.55091 -0.0136,-22.07091 6.11489,-31.02483 z"
     id="path3144"
     style="fill:#f5e5c1" />
  <path
     d="m 410.58579,51.34863 c 3.5761,-1.56968 8.24416,-0.30029 10.15506,3.24853 5.45972,9.33611 5.74636,20.81516 4.10844,31.25686 -0.87355,6.16949 -3.89005,11.84759 -8.25782,16.25631 -0.51867,-0.64152 -1.56967,-1.92454 -2.08834,-2.57971 2.07469,-4.9547 5.8419,-9.22692 6.44247,-14.76854 1.02369,-7.67089 1.22842,-15.86047 -1.56968,-23.20378 -1.20113,-2.41593 -3.26217,-6.36057 -6.52436,-4.40873 -6.55165,6.7837 -7.83469,17.17081 -6.89288,26.17934 1.11924,7.46617 2.40227,16.09251 8.77648,21.0199 3.42598,2.63432 7.98484,4.64076 12.32532,3.35773 3.49421,-0.75071 6.98843,-3.04379 10.5782,-1.44682 -3.27584,3.46692 -7.94389,5.33686 -12.5983,6.03299 -6.37422,-0.24569 -12.80303,-3.09839 -16.52929,-8.43527 -7.35696,-10.14141 -8.59905,-23.46312 -6.72909,-35.54275 1.18748,-6.27866 3.23487,-13.18521 8.80379,-16.96606 z"
     id="path3146"
     style="fill:#f5e5c1" />
  <path
     d="m 440.9691,52.7272 c 2.81175,-3.60342 8.7219,-3.24852 11.42445,0.31394 4.23129,5.45971 5.30958,12.63924 5.9238,19.34104 0.21839,9.22692 -0.73707,19.30009 -6.71546,26.76626 -0.81894,1.61061 -2.57971,1.8017 -4.13573,1.28302 0.20474,-3.20757 2.72986,-5.63715 3.73991,-8.59905 3.38502,-9.04947 3.54881,-19.10899 1.48777,-28.48607 -1.14655,-3.20758 -3.31678,-7.67089 -7.46616,-6.6745 -6.96114,4.9547 -7.589,14.673 -7.5617,22.50768 -0.39584,10.64646 4.69534,22.39849 14.78218,26.971 5.00928,2.57972 10.23696,-0.0683 14.97326,-1.86995 0.9691,0.9691 1.89726,1.99279 2.78446,3.05743 -6.21043,4.55887 -14.91867,5.76 -21.81157,2.03376 -8.68094,-4.42238 -12.92587,-14.16798 -14.4273,-23.3403 -1.11924,-11.3289 -0.61421,-24.11828 7.00209,-33.30426 z"
     id="path3148"
     style="fill:#f5e5c1" />
  <path
     d="m 259.21516,60.31621 c 6.811,7.39791 15.00058,13.32171 22.71243,19.70958 7.58899,-1.01005 14.31809,-5.55527 21.66141,-7.75281 -2.19753,6.98844 -4.17668,14.03147 -6.42881,21.00626 5.41876,6.23773 12.78938,10.82389 17.10256,17.92152 -5.8146,1.26938 -11.79299,0.17744 -17.64854,1.24208 -3.07108,0.87356 -7.91658,-1.63791 -9.4726,2.14295 -3.61706,6.25137 -7.02938,12.66653 -11.35621,18.45383 -1.21478,-7.45251 -3.91734,-14.49554 -5.56891,-21.83886 -9.26786,-3.24853 -19.05441,-4.19033 -28.34957,-7.35698 6.87924,-4.94103 14.14066,-9.3361 21.34748,-13.79942 -0.35488,-10.03223 -3.95829,-19.61403 -3.99924,-29.72815 z"
     id="path3150"
     style="fill:#f5e5c1" />
  <path
     d="m 363.64587,77.95109 c 0.10921,-0.87356 0.32759,-2.62066 0.43678,-3.49422 7.31603,0.15015 14.64569,0.0682 21.97536,0.0819 -0.041,1.18749 -0.0819,2.37498 -0.12285,3.56247 -7.42521,-0.0819 -14.86407,0.1365 -22.28928,-0.15014 z"
     id="path3152"
     style="fill:#f5e5c1" />
  <path
     d="m 336.36095,87.84682 c 17.06161,0.0819 34.13687,-0.0137 51.21213,0.0409 0,0.8053 0.0136,2.40227 0.0273,3.20758 -17.11621,0.0955 -34.23241,0.0137 -51.34863,0.041 0.0273,-0.81895 0.0819,-2.47051 0.1092,-3.28948 z"
     id="path3154"
     style="fill:#f5e5c1" />
  <path
     d="m 386.95886,113.41194 c 6.82465,-1.61062 13.94958,-3.27583 19.25914,-8.21686 0.83262,1.21478 1.67887,2.44322 2.49783,3.67165 -5.8146,3.45327 -12.22977,6.93384 -19.19091,6.59261 -0.6415,-0.50502 -1.92454,-1.54237 -2.56606,-2.0474 z"
     id="path3156"
     style="fill:#f5e5c1" />
  <path
     d="m 232.39431,139.16815 c 0.64152,-1.62426 1.76076,-2.94825 2.9073,-4.21763 0.69612,5.25498 1.36493,10.56455 3.11205,15.60113 1.85629,5.24133 1.58331,10.94674 3.38502,16.20171 0.70976,3.15298 4.57251,2.85271 7.08397,3.07109 5.60986,-0.0682 10.83754,2.27944 16.3928,2.68891 4.39507,0.20475 8.54445,1.82901 12.92587,2.0474 -0.10919,0.38218 -0.32758,1.16019 -0.43677,1.54237 -10.00493,5.55526 -19.32739,12.21611 -29.29137,17.82597 0.65516,3.54882 0.39582,7.27507 1.39222,10.74199 2.41592,5.06388 2.82541,10.70104 3.99924,16.10616 1.09194,3.71261 2.26579,7.42522 2.9073,11.24701 -3.04378,-2.37497 -6.01933,-4.83185 -9.10407,-7.15223 -4.8182,-3.63071 -9.7729,-7.12492 -14.37271,-11.05592 -2.25213,-1.92455 -4.23127,-4.17668 -6.66085,-5.91013 -1.62426,-0.35489 -2.9892,0.85989 -4.35412,1.51506 -9.34976,5.48702 -19.109,10.26427 -28.36322,15.91507 5.33687,-11.69743 10.15506,-23.64056 15.10976,-35.51545 -9.56815,-9.80019 -20.11905,-18.78142 -30.08303,-28.22673 13.84038,0.72342 27.70805,2.11564 41.41194,4.21763 3.91734,-8.92664 8.18957,-17.68948 12.03867,-26.64341 z"
     id="path3158"
     style="fill:#f5e5c1" />
  <path
     d="m 567.59355,173.89194 c 13.30806,-7.68454 27.69441,-14.01782 42.96797,-16.35185 6.21042,-1.11924 13.25345,0.23204 17.63488,5.05024 3.7126,3.97194 2.7981,11.43811 -2.22484,13.90863 -6.7018,3.19393 -14.41364,3.8218 -20.86976,7.61631 -1.26939,0.8053 -1.77441,2.29307 -2.57972,3.48056 8.13497,2.11563 16.06521,-2.03375 22.58957,-6.49706 7.98484,-5.15943 13.6493,-13.44456 22.53498,-17.29366 11.76569,-3.90369 25.53782,4.01289 28.022,16.18807 6.63355,22.9035 7.71184,48.52322 -2.67527,70.49858 -3.58976,6.22407 -8.70825,11.45175 -14.14065,16.10616 -6.71546,4.83184 -14.55015,7.97118 -22.45309,10.22331 -15.88778,0.28664 -32.00759,1.01005 -47.67697,-2.08834 -13.10332,-1.77441 -26.24758,-5.93744 -36.71659,-14.22256 -3.38502,-3.26218 -7.86198,-6.89289 -7.30236,-12.12057 0.27298,-18.59033 -0.43678,-37.23526 0.35488,-55.78465 7.11128,-6.66085 14.61839,-13.00776 22.53497,-18.71317 z"
     id="path3160"
     style="fill:#f5e5c1" />
  <path
     d="m 513.20114,188.1964 c 7.38426,-0.17745 14.94597,-0.76437 22.26199,0.58692 3.08474,0.30028 3.54881,3.99924 3.46692,6.46976 -0.0819,18.61763 0.0682,37.23526 -0.0819,55.8529 0.42312,2.92094 -1.62427,6.25137 -4.81821,6.14217 -7.64361,0.42313 -15.32815,0.34123 -22.9854,0.0956 -3.08474,-0.12285 -4.20398,-3.56247 -3.91735,-6.18313 0.0136,-18.67223 -0.0956,-37.33081 0.041,-55.98938 -0.15015,-3.58977 2.06104,-7.24777 6.03298,-6.97479 z"
     id="path3162"
     style="fill:#f5e5c1" />
  <path
     d="m 271.30844,194.55697 c 34.30066,-10.52361 73.20113,-4.27224 102.54711,16.35184 2.37497,1.74711 4.90009,3.34408 7.6709,4.43603 -7.26142,-0.38219 -14.5365,-0.20475 -21.79791,-0.17745 0,0.8599 0.0136,2.59337 0.0136,3.46693 7.71184,-0.0547 15.47829,0.61421 23.10824,-0.77802 6.07393,5.09119 11.90218,10.6601 16.51564,17.11621 2.0474,5.13214 4.91374,9.93668 8.96759,13.74484 3.48055,4.02654 5.22766,9.17232 7.46615,13.92227 10.42806,25.26483 12.88493,54.51527 4.0129,80.55811 -1.56968,-3.08474 -2.89366,-6.53802 -5.69176,-8.74919 -2.89365,-2.0474 -6.63355,-0.98275 -9.6091,0.30027 7.08399,-26.6707 2.41593,-55.92113 -11.87488,-79.43886 4.21763,-1.55602 8.21687,-3.64436 12.10692,-5.88284 -0.87355,-1.17384 -1.73346,-2.34768 -2.59337,-3.52151 -3.57611,2.59336 -7.35696,5.03658 -11.71109,6.04663 -5.14577,-7.39791 -11.17876,-14.11337 -17.81232,-20.20095 3.64436,0 7.27508,-0.041 10.90579,-0.0955 -0.0136,-0.79166 -0.0273,-2.36134 -0.041,-3.15299 -5.18673,-0.0273 -10.35982,-0.0682 -15.54655,-0.0819 -14.04511,-11.64285 -31.80284,-18.31735 -49.77895,-20.69232 -22.1255,-2.89366 -44.96076,2.07468 -64.30181,13.04871 -1.17383,-5.40512 -1.58332,-11.04228 -3.99924,-16.10616 l 0.53232,-0.9964 c 6.11488,-4.66805 13.70389,-6.75639 20.91071,-9.11772 z"
     id="path3164"
     style="fill:#f4722b" />
  <path
     d="m 460.73327,206.77308 c 1.55602,-6.31962 3.42597,-13.71753 9.44531,-17.26635 6.60626,-2.41592 11.72474,4.17669 12.88493,9.96398 2.86635,11.76569 2.94825,25.0328 -3.12569,35.84303 -1.41952,2.34768 -3.45327,5.82825 -6.68815,4.08114 0.16379,-3.53517 3.61706,-5.77365 4.59981,-9.07677 3.33043,-9.10409 3.23488,-19.39564 0.66882,-28.67716 -0.87357,-3.04379 -3.60342,-7.71185 -7.34333,-5.40512 -5.55525,3.86275 -5.81459,11.36985 -6.79734,17.41649 -0.81895,9.81384 0.73706,20.97896 8.14862,28.10389 3.91735,3.99924 10.07318,5.6781 15.41005,3.83544 5.56891,-1.20113 8.87205,-6.14217 12.76209,-9.82749 0.0136,1.78807 0.0273,3.58977 0.041,5.37783 -4.08113,4.58617 -9.28152,8.7492 -15.57384,9.48625 -8.96758,1.36494 -17.66218,-4.92739 -21.1564,-12.92587 -4.27223,-9.62275 -5.22767,-20.62407 -3.27582,-30.92929 z"
     id="path3166"
     style="fill:#f5e5c1" />
  <path
     d="m 400.53991,199.30692 c 1.829,-3.65801 4.73631,-8.47621 9.4999,-7.94389 3.99924,-0.32758 6.6745,3.26218 8.08038,6.53801 4.21763,9.84114 4.35413,21.07451 2.0201,31.40702 -1.11924,5.14578 -4.06749,9.62275 -7.64361,13.38994 -0.51867,-0.64151 -1.56966,-1.93819 -2.08833,-2.5797 2.42957,-5.37783 6.34692,-10.25062 6.71544,-16.40646 0.49137,-8.32605 1.36493,-17.96246 -3.99924,-25.0055 -1.33763,-2.44321 -4.62711,-1.50142 -5.85555,0.51869 -6.11487,8.57175 -6.71544,19.887 -4.59981,29.91923 1.22844,5.17309 2.49783,10.83754 6.57897,14.57744 3.78084,3.58976 9.37705,6.18314 14.57743,4.35413 3.08474,-0.57327 6.30597,-3.15299 9.34977,-1.13289 -6.08759,7.20682 -17.53933,7.28871 -24.8417,1.77441 -4.05385,-3.80816 -6.9202,-8.61271 -8.96759,-13.74484 -3.45327,-11.5473 -3.53517,-24.45953 1.17384,-35.66559 z"
     id="path3168"
     style="fill:#f5e5c1" />
  <path
     d="m 436.83337,193.35583 c 2.81175,-3.63071 8.76285,-3.30312 11.47905,0.28664 4.23128,5.47336 5.29593,12.68018 5.91014,19.38198 0.20473,9.17233 -0.73706,19.17725 -6.64721,26.62976 -0.94179,1.62427 -2.7162,2.1293 -4.35411,1.16019 0.76435,-3.38502 3.22123,-6.07393 4.27222,-9.3634 2.97554,-8.79014 3.09839,-18.39924 1.13288,-27.42143 -1.13288,-3.24852 -3.31677,-7.78009 -7.52075,-6.75639 -4.84549,3.04379 -6.26502,9.14502 -7.17952,14.41364 -0.80531,8.50351 -0.79167,17.75773 3.91735,25.25119 3.12568,5.24133 8.05307,10.08683 14.4,10.81023 3.95828,0.54597 7.43885,-1.78805 11.09687,-2.88 0.98274,0.96911 1.89724,2.00645 2.75715,3.0984 -6.29232,4.55886 -15.09612,5.7054 -22.00265,1.8836 -8.61271,-4.51792 -12.78939,-14.26351 -14.26351,-23.42218 -1.05099,-11.26066 -0.54597,-23.9545 7.00209,-33.07223 z"
     id="path3170"
     style="fill:#f5e5c1" />
  <path
     d="m 253.86464,220.77725 c 19.34105,-10.97403 42.17631,-15.94237 64.3018,-13.04871 17.97612,2.37497 35.73385,9.04946 49.77896,20.69232 -7.00208,0.0547 -13.99052,0.0547 -20.9926,0.041 -0.9145,-4.10844 -1.62427,-8.7492 -5.15943,-11.52001 -3.67167,-3.46692 -9.00853,-3.27583 -13.70389,-3.26218 -15.92872,0.21839 -31.87109,-0.10919 -47.79981,0.13649 -6.8383,-0.0819 -12.78938,6.01934 -12.80303,12.80303 -0.31393,14.4273 0,28.86825 -0.1092,43.30921 -13.41725,0.0547 -26.83449,0.0409 -40.25175,-0.0137 -3.86274,0 -8.12133,0.15014 -11.19242,2.8527 -4.17668,3.22123 -5.35052,8.79014 -5.26863,13.79943 0.0273,15.04152 0.041,30.08304 0,45.11091 -0.0819,5.02293 1.06465,10.61913 5.25498,13.85402 3.43962,2.98919 8.23052,2.89365 12.51641,2.94824 12.98046,-0.0683 25.96094,-0.0546 38.94141,-0.0273 0.0819,14.41365 -0.15015,28.84095 0.0546,43.25459 -0.30028,7.58901 6.63356,14.05878 14.12702,13.63565 16.92511,0.0819 33.85024,0.0819 50.77535,0 6.6745,0.28663 13.18522,-4.7909 13.90863,-11.5473 0.69611,-6.6745 0.15014,-13.41725 0.31393,-20.11905 12.32531,-0.0273 24.65062,0.0683 36.97593,-0.0546 -0.0136,-0.80531 -0.0682,-2.40228 -0.0955,-3.20758 -12.28437,0 -24.58237,0 -36.86674,0 -0.041,-7.28872 -0.0136,-14.57745 -0.0819,-21.86616 14.34539,-0.36854 28.70445,0.16379 43.0362,-0.23204 4.32683,0.10919 7.97119,-2.56607 10.5509,-5.80095 -1.13289,2.86635 -1.93819,5.82824 -2.64795,8.81744 -0.23205,0.0819 -0.69612,0.25934 -0.92816,0.34124 0.12284,2.48416 -0.15015,5.03658 -1.50142,7.19316 -10.29159,18.34467 -26.23395,33.53633 -45.28836,42.51756 -19.72323,9.39071 -42.50389,12.39355 -63.93327,8.02578 -24.52779,-4.65441 -47.1037,-18.79507 -61.98142,-38.84588 -15.08249,-19.8597 -22.24836,-45.45212 -20.09177,-70.25288 2.47052,-30.02843 18.93156,-58.58275 43.96436,-75.43962 3.08473,2.32038 6.06028,4.77725 9.10407,7.15222 -0.64151,-3.82179 -1.81536,-7.5344 -2.90729,-11.247 z"
     id="path3172"
     style="fill:#3e3e3e" />
  <path
     d="m 186.28701,318.08303 c -3.27583,-39.66483 14.87773,-80.6127 47.00815,-104.26692 4.59981,3.931 9.55451,7.42521 14.37271,11.05592 -25.0328,16.85688 -41.49384,45.41119 -43.96436,75.43962 -2.15659,24.80076 5.00929,50.39319 20.09176,70.2529 14.87771,20.05081 37.45364,34.19147 61.98141,38.84588 21.42939,4.36777 44.21005,1.36493 63.93327,-8.02579 19.05441,-8.98122 34.99678,-24.17288 45.28835,-42.51753 1.35127,-2.15659 1.62426,-4.709 1.50142,-7.19318 0.23204,-0.0819 0.69611,-0.25933 0.92815,-0.34122 -0.92815,9.99126 -0.75071,20.39202 3.69895,29.60529 -3.52151,4.79091 -7.01573,9.78655 -11.87488,13.30806 -1.93819,0.54597 -3.89005,1.0237 -5.84189,1.52873 0.27298,0.60056 0.80531,1.81535 1.0783,2.41592 l 0.49137,1.13289 c -4.69536,3.04379 -8.87204,6.82464 -13.60835,9.81384 -22.75336,14.83677 -50.72075,22.04361 -77.77364,18.94521 0.76435,-3.34407 1.51507,-6.6745 2.21118,-10.03222 -4.14938,2.72985 -8.14862,5.6781 -12.01138,8.80378 -27.76265,-5.22767 -53.6963,-20.29648 -71.33118,-42.44929 -15.19166,-18.75411 -24.43223,-42.24454 -26.17934,-66.32189 z"
     id="path3174"
     style="fill:#f4722b" />
  <path
     d="m 267.48663,226.61914 c 0.0137,-6.78369 5.96474,-12.88493 12.80304,-12.80303 15.92872,-0.24568 31.87109,0.0819 47.79981,-0.13649 4.69536,-0.0136 10.03222,-0.20474 13.70388,3.26218 3.53517,2.7708 4.24494,7.41156 5.15943,11.52 -4.90008,0 -9.80019,0 -14.70028,-0.0273 0,0.8326 0,2.49781 0,3.33042 4.7636,-0.0273 9.54085,-0.041 14.31811,-0.041 -0.0137,12.76209 -0.12285,25.51053 0.0682,38.27261 14.27717,0 28.56797,-0.17744 42.83147,0.0273 7.17953,-0.15014 13.28077,6.71545 12.55735,13.81309 -0.0956,18.30369 0.0956,36.62103 -0.10919,54.92473 -0.61423,1.25573 -1.24209,2.49782 -1.84265,3.75356 -2.57972,3.23488 -6.22408,5.91014 -10.55091,5.80095 -14.33175,0.39582 -28.6908,-0.1365 -43.0362,0.23203 0.0683,7.28873 0.041,14.57744 0.0819,21.86616 -4.77726,0 -9.54087,-0.0136 -14.31811,-0.0136 -0.0273,0.81896 -0.0819,2.45688 -0.1092,3.26218 4.80455,0.0136 9.6091,0.0273 14.41365,0.0136 -0.16379,6.7018 0.38218,13.44455 -0.31393,20.11906 -0.72342,6.75639 -7.23413,11.83393 -13.90863,11.5473 -16.92512,0.0819 -33.85024,0.0819 -50.77536,0 -7.49345,0.42312 -14.42729,-6.04665 -14.12701,-13.63565 -0.20474,-14.41365 0.0273,-28.84095 -0.0546,-43.25459 -12.98047,-0.0273 -25.96095,-0.041 -38.94141,0.0273 -4.28589,-0.0547 -9.07679,0.041 -12.51641,-2.94825 -4.19033,-3.23489 -5.33686,-8.83109 -5.25497,-13.85403 0.041,-15.02787 0.0273,-30.06938 0,-45.1109 -0.0819,-5.00929 1.09194,-10.57819 5.26863,-13.79943 3.07108,-2.70256 7.32966,-2.8527 11.19241,-2.8527 13.41725,0.0547 26.83451,0.0682 40.25175,0.0136 0.1092,-14.44095 -0.20474,-28.8819 0.1092,-43.3092 z"
     id="path3176"
     style="fill:#f4722b" />
  <path
     d="m 359.72854,215.16739 c 7.26141,-0.0273 14.53649,-0.20474 21.7979,0.17745 0.32758,0.62787 0.9964,1.8836 1.32399,2.51146 -7.62996,1.39223 -15.39641,0.72341 -23.10825,0.77801 0,-0.87355 -0.0137,-2.60702 -0.0137,-3.46692 z"
     id="path3178"
     style="fill:#f5e5c1" />
  <path
     d="m 332.25251,228.4345 c 4.90009,0.0273 9.8002,0.0273 14.70028,0.0273 7.00209,0.0137 13.99053,0.0137 20.99261,-0.041 5.18673,0.0137 10.35981,0.0547 15.54654,0.0819 0.0136,0.79165 0.0273,2.36132 0.041,3.15298 -3.63071,0.0546 -7.26143,0.0956 -10.90578,0.0956 -8.68095,-0.0273 -17.37554,-0.0273 -26.05649,-0.0273 -4.77726,0 -9.5545,0.0136 -14.3181,0.041 0,-0.8326 0,-2.49781 0,-3.33042 z"
     id="path3180"
     style="fill:#f5e5c1" />
  <path
     d="m 346.57062,231.72397 c 8.68094,0 17.37554,0 26.05649,0.0273 6.63355,6.08758 12.66655,12.80303 17.81232,20.20094 -2.82541,0.72342 -5.67811,1.56967 -7.95754,3.48057 3.35773,0.61422 6.811,0.65517 10.15508,-0.12284 14.2908,23.51773 18.95886,52.76815 11.87487,79.43886 -0.87354,1.33763 -1.76075,2.66161 -2.59336,4.01289 0.20474,-18.30369 0.0136,-36.62104 0.1092,-54.92473 0.72341,-7.09763 -5.37782,-13.96322 -12.55735,-13.81309 -14.26351,-0.20473 -28.55431,-0.0273 -42.83147,-0.0273 -0.19109,-12.76208 -0.0819,-25.51051 -0.0682,-38.2726 z"
     id="path3182"
     style="fill:#3e3e3e" />
  <path
     d="m 390.43943,251.95223 c 4.35412,-1.01005 8.13497,-3.45328 11.71109,-6.04663 0.85991,1.17383 1.71981,2.34767 2.59337,3.52151 -3.89005,2.23848 -7.88929,4.32682 -12.10692,5.88284 -3.34408,0.77801 -6.79735,0.73706 -10.15508,0.12284 2.27943,-1.9109 5.13213,-2.75715 7.95754,-3.48056 z"
     id="path3184"
     style="fill:#f5e5c1" />
  <path
     d="m 569.91393,314.46598 c 13.92229,-7.49347 28.8819,-14.20893 44.85157,-15.30087 7.45251,-0.42312 17.2254,4.88645 15.56019,13.5674 -1.51507,6.66085 -9.14503,7.43886 -14.55014,9.18597 -4.73631,1.77441 -11.01498,2.38863 -13.28076,7.62996 8.13497,2.12929 16.0925,-2.0474 22.63052,-6.49707 7.98483,-5.15943 13.63564,-13.44455 22.52132,-17.29364 11.7384,-3.89005 25.49688,3.98559 28.00834,16.13345 6.08759,21.27925 7.6709,44.78332 -0.62786,65.69403 -2.41592,7.71184 -8.28511,13.63565 -13.97687,19.08171 -6.10124,5.80095 -14.30445,8.27147 -21.83887,11.54729 -7.17952,1.47413 -14.55013,0.53233 -21.81156,0.79166 -8.6673,-0.24568 -17.45744,0.0683 -25.96095,-1.9109 -13.99051,-1.73345 -28.21307,-5.7054 -39.40549,-14.61839 -3.37137,-3.23488 -7.84834,-6.85194 -7.32967,-12.03866 0.0682,-17.81233 -0.0136,-35.62465 0.0273,-53.43697 -0.42314,-2.74351 2.15658,-4.25858 3.86275,-5.8419 7.07032,-5.59621 13.48548,-12.12057 21.32019,-16.69307 z"
     id="path3186"
     style="fill:#f5e5c1" />
  <path
     d="m 513.09194,330.16265 c 7.43887,-0.19109 15.02787,-0.79165 22.38484,0.57327 3.03014,0.27299 3.52152,3.95829 3.45327,6.40152 -0.041,18.1672 0,36.34806 -0.0273,54.52891 -0.19109,2.0474 0.23204,4.47697 -1.46048,6.04663 -1.8017,2.06104 -4.83184,1.43318 -7.26141,1.71982 -6.37422,-0.0273 -12.76209,0.20473 -19.12266,-0.1365 -3.09838,-0.12284 -4.21763,-3.56246 -3.93099,-6.18312 0.0136,-18.64494 -0.0819,-37.30351 0.041,-55.94844 -0.15015,-3.54882 1.97914,-7.24777 5.92379,-7.00209 z"
     id="path3188"
     style="fill:#f5e5c1" />
  <path
     d="m 464.28208,338.09289 c 1.86995,-3.7126 5.17308,-7.93024 9.89574,-6.98844 5.97839,0.9145 8.39431,7.54806 9.51355,12.74844 2.00645,11.09687 2.02009,23.31299 -3.72625,33.37251 -1.43318,2.33403 -3.37137,5.8146 -6.61991,4.17668 -0.40947,-1.92455 1.1329,-3.28947 2.03375,-4.7636 5.26862,-7.43886 5.30957,-17.10256 4.6544,-25.8381 -0.72341,-4.46332 -1.33762,-9.80019 -5.13213,-12.78938 -3.72626,-1.66521 -6.71544,2.56606 -7.95753,5.56891 -3.61707,10.56454 -4.01289,22.63052 0.47772,33.00398 3.27583,7.46616 11.47905,13.77214 19.94161,11.15146 5.89649,-1.13288 9.34976,-6.25137 13.4582,-10.07317 1.39223,6.30598 -4.40872,10.26427 -9.18597,12.85763 -5.69175,3.09839 -12.99412,3.03014 -18.48114,-0.51867 -5.93744,-3.37138 -9.51355,-9.6091 -11.27431,-16.03792 -3.30313,-11.73838 -2.94825,-24.78711 2.40227,-35.87033 z"
     id="path3190"
     style="fill:#f5e5c1" />
  <path
     d="m 404.51184,334.74881 c 2.97555,-1.28302 6.71545,-2.34768 9.60911,-0.30028 2.7981,2.21118 4.12208,5.66445 5.69176,8.7492 2.93458,13.84038 3.49421,30.73819 -7.32968,41.46653 -3.90369,-2.42957 -0.35488,-5.78729 1.06465,-8.5308 4.47696,-7.26143 4.27222,-16.2017 3.58976,-24.40492 -0.46408,-4.28589 -1.62426,-8.7765 -4.7363,-11.92949 -3.04379,-2.08834 -5.43242,1.52872 -6.77005,3.8491 -5.47336,10.18237 -4.83185,22.49403 -1.43317,33.23602 1.73345,7.09763 7.91658,12.89858 15.21895,13.75848 4.61346,0.43678 8.6673,-3.24853 13.26711,-2.34768 -0.12284,0.53232 -0.35488,1.61063 -0.47772,2.15659 -4.9001,2.97555 -10.87849,5.7327 -16.63849,3.50787 -6.70179,-1.48778 -11.65649,-6.98843 -14.44095,-13.02143 -4.44966,-9.21327 -4.6271,-19.61403 -3.69895,-29.60529 0.70976,-2.9892 1.51508,-5.9511 2.64796,-8.81745 0.60057,-1.25574 1.22843,-2.49782 1.84265,-3.75356 0.83261,-1.35127 1.71982,-2.67526 2.59337,-4.01289 z"
     id="path3192"
     style="fill:#f5e5c1" />
  <path
     d="m 436.79241,335.36303 c 2.83905,-3.72625 8.8857,-3.35772 11.6019,0.31394 4.38143,5.88284 5.45971,13.54009 5.88285,20.66502 -0.0136,9.30882 -1.20113,19.70957 -8.02579,26.67072 -1.65156,1.14653 -4.01289,-0.73707 -2.38862,-2.32039 6.52436,-10.20967 7.24777,-23.10824 4.76359,-34.71014 -1.13288,-3.20758 -3.26217,-7.73915 -7.41155,-6.77005 -4.982,2.9346 -6.34692,9.19963 -7.28872,14.4546 -0.75071,8.20322 -0.81896,17.07527 3.45327,24.41858 3.13934,5.6235 8.27147,10.91943 15.00056,11.62919 3.91735,0.49137 7.35697,-1.81536 10.97404,-2.9073 0.95544,1.01005 1.86995,2.0474 2.72985,3.15299 -6.26503,4.44967 -14.91867,5.66445 -21.79791,1.9382 -8.73555,-4.46332 -12.98048,-14.30446 -14.4546,-23.54503 -1.05099,-11.24702 -0.53232,-23.8726 6.96114,-32.99033 z"
     id="path3194"
     style="fill:#f5e5c1" />
  <path
     d="m 405.63109,343.64815 c 1.33763,-2.32038 3.72626,-5.93744 6.77005,-3.8491 3.11204,3.15299 4.27222,7.6436 4.7363,11.92949 -2.83905,9.03582 -7.7255,17.29364 -12.93952,25.15562 -3.39868,-10.74198 -4.04019,-23.05364 1.43317,-33.23601 z"
     id="path3196"
     style="fill:#f4722b" />
  <path
     d="m 359.46919,357.10634 c 7.43887,-0.0546 14.86408,-0.0136 22.30294,-0.041 0.12284,0.79166 0.34123,2.38863 0.46409,3.18029 -7.39792,0.57328 -14.86409,0.64152 -22.26201,0.1092 -0.12284,-0.81896 -0.38218,-2.44323 -0.50502,-3.24854 z"
     id="path3198"
     style="fill:#f5e5c1" />
  <path
     d="m 332.25251,370.40076 c 4.77725,0 9.54085,0.0136 14.31811,0.0136 12.28435,0 24.58236,0 36.86673,0 0.0273,0.8053 0.0819,2.40227 0.0955,3.20758 -12.32531,0.12285 -24.65062,0.0273 -36.97592,0.0546 -4.80456,0.0137 -9.6091,0 -14.41365,-0.0136 0.0273,-0.8053 0.0819,-2.44322 0.10919,-3.26217 z"
     id="path3200"
     style="fill:#f5e5c1" />
  <path
     d="m 389.25194,394.24607 c 4.8182,-0.9964 9.17232,-3.37138 12.91223,-6.55166 1.01004,1.09194 1.70616,2.34767 2.08834,3.7672 -5.76,3.99924 -12.68019,6.79735 -19.76417,6.7291 -0.27299,-0.60057 -0.80531,-1.81535 -1.07829,-2.41592 1.95184,-0.50503 3.9037,-0.98276 5.84189,-1.52872 z"
     id="path3202"
     style="fill:#f5e5c1" />
  <path
     d="m 283.79753,426.85421 c 3.86275,-3.12567 7.862,-6.07392 12.01138,-8.80378 -0.69612,3.35773 -1.44683,6.68815 -2.21118,10.03222 -1.63792,6.64721 -2.77081,13.41725 -4.66806,19.99621 10.5509,4.57251 19.76417,11.52 30.23317,16.22901 -10.98768,1.40588 -21.9344,3.13934 -32.94938,4.38142 -2.77081,11.09687 -4.35412,22.43943 -6.03299,33.72739 -7.6436,-9.25421 -11.3835,-21.19735 -16.40645,-32.03488 -13.14426,-0.50502 -26.38407,1.85631 -39.61023,1.28304 9.10408,-6.7291 18.18086,-13.5401 26.80721,-20.86976 -5.05024,-10.49631 -9.39071,-21.36114 -16.40645,-30.76551 6.89289,2.81175 13.77213,5.82825 20.2419,9.55451 4.6271,3.27583 9.81384,5.58256 14.87771,8.06673 4.81821,-3.43962 9.45897,-7.12493 14.11337,-10.7966 z"
     id="path3204"
     style="fill:#f5e5c1" />
  <path
     d="m 569.61366,453.29289 c 13.51279,-7.61631 28.06292,-14.07242 43.58217,-16.09251 5.8146,-0.8599 12.21611,0.75071 16.29725,5.11848 3.26218,3.48057 3.09838,9.60911 -0.45043,12.83033 -7.5071,5.69176 -19.81876,3.60342 -25.21024,12.16152 8.10769,2.32038 16.07887,-1.9655 22.61688,-6.37422 8.01213,-5.15943 13.66294,-13.49914 22.57592,-17.32094 8.48987,-2.52512 18.37195,0.31393 23.80436,7.46615 4.42237,5.22768 4.74995,12.28437 6.61991,18.57669 3.31677,13.71753 3.18028,28.03563 1.16019,41.93061 -2.56607,10.10048 -5.51432,20.73327 -13.36265,28.13119 -7.46617,8.95393 -18.49479,13.77213 -29.44152,16.89782 -12.24342,0.54597 -24.54142,0.25934 -36.78484,-0.32758 -12.02502,-2.03375 -24.52777,-3.12569 -35.59734,-8.68095 -7.62996,-3.60341 -15.94237,-8.47621 -19.1909,-16.61118 -0.36853,-17.75773 0.0136,-35.52911 -0.1911,-53.30048 0.15015,-2.36133 -0.50502,-5.35053 1.85631,-6.85195 7.15223,-5.93743 13.96323,-12.36625 21.71603,-17.55298 z"
     id="path3206"
     style="fill:#f5e5c1" />
  <path
     d="m 514.44322,468.02048 c 6.30597,-0.36854 12.65289,-0.30029 18.95886,-0.0137 2.27944,0.40948 5.51432,0.24569 6.34692,2.97556 0.76436,2.15657 0.46408,4.4906 0.57327,6.74274 -0.15014,17.73043 0.0683,35.47451 -0.10919,53.20493 0.42313,2.9346 -1.63792,6.19677 -4.80454,6.14218 -7.65726,0.39583 -15.34181,0.32759 -22.98541,0.0955 -3.11204,-0.15014 -4.21763,-3.56246 -3.931,-6.19677 0.0137,-18.61763 -0.0819,-37.24891 0.041,-55.86654 -0.16379,-3.56247 1.9382,-7.32967 5.91015,-7.08398 z"
     id="path3208"
     style="fill:#f5e5c1" />
  <path
     d="m 462.0709,486.63811 c 1.56967,-6.34692 3.43962,-13.77213 9.49991,-17.3346 5.71905,-2.1293 10.85118,2.9073 12.25706,8.10768 3.7672,12.2161 3.7945,26.23393 -2.48417,37.64473 -1.43318,2.34768 -3.34408,5.77365 -6.61991,4.27224 -0.42313,-1.93821 1.06465,-3.33043 1.97915,-4.80456 5.07753,-7.01573 5.26862,-16.14711 4.8182,-24.45952 -0.53233,-4.80455 -1.2148,-10.11413 -4.64076,-13.81308 -3.75356,-2.59337 -7.37062,1.99279 -8.57175,5.20037 -3.61707,10.59185 -4.01289,22.67147 0.50503,33.05858 3.28947,7.41157 11.41079,13.64929 19.81875,11.11053 5.8692,-1.1329 9.43167,-6.12854 13.41726,-10.04588 0.0136,1.78805 0.0273,3.58976 0.041,5.39147 -4.08115,4.58616 -9.29518,8.7492 -15.5875,9.47261 -8.95393,1.35127 -17.62124,-4.91375 -21.11545,-12.88493 -4.29952,-9.62275 -5.22768,-20.61043 -3.31678,-30.91564 z"
     id="path3210"
     style="fill:#f5e5c1" />
  <path
     d="m 402.84663,477.27469 c 1.85631,-2.97555 4.51792,-6.68815 8.51715,-6.10123 6.37422,-0.12284 8.62636,7.16587 10.10048,12.16151 2.86636,13.13063 2.55242,29.11394 -7.61629,39.18711 -0.49139,-0.62787 -1.48778,-1.8836 -1.97916,-2.51146 1.55603,-4.70901 5.39147,-8.53081 6.07394,-13.63565 1.44682,-8.03942 1.55602,-16.72037 -1.31033,-24.45952 -1.06465,-2.93459 -4.53156,-7.02938 -7.43886,-3.49421 -7.99848,10.27791 -7.35698,24.73251 -3.56247,36.56644 1.78806,7.00208 7.97118,12.69384 15.20531,13.52645 4.61346,0.40947 8.68095,-3.33043 13.25346,-2.30673 0.0819,3.30312 -4.13574,3.75355 -6.36057,5.03657 -5.56891,2.74352 -12.17516,0.91451 -17.1435,-2.26577 -7.52076,-5.52796 -10.7147,-15.05517 -11.98409,-23.94085 -0.76435,-9.37707 -0.27298,-19.31375 4.24494,-27.76266 z"
     id="path3212"
     style="fill:#f5e5c1" />
  <path
     d="m 435.91886,476.2783 c 1.84266,-3.42598 5.41877,-6.77006 9.65005,-5.50067 6.36057,2.15658 7.91659,9.77289 9.19962,15.54653 1.78805,11.39716 1.22844,24.58238 -6.44247,33.85024 -0.778,1.74712 -4.59981,1.01005 -3.39867,-0.9964 6.7837,-10.61914 7.8074,-24.10463 4.8182,-36.116 -1.11925,-3.31679 -4.47696,-8.10769 -8.31241,-5.25498 -6.21043,5.74634 -6.6472,15.12341 -6.46976,23.0673 -0.0956,10.23696 5.13213,21.32018 14.78218,25.68795 5.05023,2.48418 10.49629,0.12285 15.10976,-2.18388 0.92815,0.9964 1.63791,2.12929 2.15658,3.39867 -6.7291,5.63715 -17.2527,5.48702 -24.17289,0.25934 -6.86559,-5.00929 -10.22331,-13.4309 -11.60189,-21.56588 -1.01005,-10.18236 -0.68247,-21.15639 4.6817,-30.19222 z"
     id="path3214"
     style="fill:#f5e5c1" />
  <path
     d="m 361.3528,495.10067 c 7.30236,-0.45043 14.64568,-0.0136 21.97536,-0.1638 -0.041,1.17384 -0.0819,2.37498 -0.12285,3.57612 -7.45252,-0.0546 -14.90503,0 -22.34389,-0.041 0.12284,-0.84625 0.36853,-2.52511 0.49138,-3.37137 z"
     id="path3216"
     style="fill:#f5e5c1" />
  <path
     d="m 333.60379,508.24492 c 17.07526,0.0683 34.16417,0 51.23943,0.041 0,0.8053 0.0137,2.40227 0.0273,3.20758 -17.11621,0.0955 -34.23242,0.0136 -51.33498,0.0409 0.0136,-0.81895 0.0546,-2.47052 0.0682,-3.28948 z"
     id="path3218"
     style="fill:#f5e5c1" />
  <path
     d="m 384.2836,533.81005 c 6.811,-1.63792 13.92228,-3.28948 19.2182,-8.21687 0.81896,1.21478 1.65156,2.45687 2.47052,3.69895 -5.07753,3.05744 -10.5236,5.85555 -16.48835,6.57896 -2.07468,0.51867 -3.99924,-0.36853 -5.20037,-2.06104 z"
     id="path3220"
     style="fill:#f5e5c1" />
</svg>
