<?xml version="1.0" encoding="UTF-8" ?>
<!DOCTYPE svg PUBLIC "-//W3C//DTD SVG 1.1//EN" "http://www.w3.org/Graphics/SVG/1.1/DTD/svg11.dtd">
<svg width="422pt" height="422pt" viewBox="0 0 422 422" version="1.1" xmlns="http://www.w3.org/2000/svg">
<path fill="#3e3e3e" opacity="1.00" d=" M 0.00 0.00 L 422.00 0.00 L 422.00 422.00 L 0.00 422.00 L 0.00 0.00 Z" />
<path fill="#f3722b" opacity="1.00" d=" M 57.27 18.52 C 57.97 18.25 59.39 17.72 60.10 17.45 C 62.60 19.19 65.40 20.43 68.00 21.99 C 74.68 28.08 79.82 35.56 85.07 42.85 C 98.09 60.15 110.24 78.15 121.00 96.93 C 123.45 96.67 125.52 95.07 127.96 94.81 C 130.34 94.95 132.64 95.63 134.95 96.18 C 136.06 99.99 137.77 103.59 138.91 107.39 C 140.06 107.40 141.22 107.42 142.37 107.44 C 141.64 107.65 140.18 108.09 139.45 108.30 C 141.75 116.99 145.01 125.44 146.62 134.33 C 146.08 134.70 144.98 135.43 144.43 135.80 C 144.50 136.67 144.64 138.42 144.72 139.30 C 143.65 138.89 143.04 138.14 142.89 137.04 C 141.94 132.74 141.40 128.34 139.91 124.18 C 137.08 115.66 134.73 106.78 129.91 99.12 C 129.09 97.37 127.22 98.63 125.86 98.75 C 124.30 99.45 122.77 98.72 121.27 98.24 C 125.42 104.54 126.80 112.12 130.20 118.79 C 132.99 124.33 135.36 130.08 137.59 135.87 C 139.00 139.56 140.97 143.10 141.53 147.06 C 141.52 149.57 139.01 150.80 136.97 151.48 C 137.09 153.10 137.22 154.72 137.34 156.35 C 134.00 156.19 131.63 153.73 129.07 151.92 C 113.24 141.06 96.57 131.49 79.59 122.53 C 74.12 119.54 68.02 118.12 62.10 116.32 C 63.61 125.23 65.11 134.18 67.47 142.91 C 67.83 149.35 71.35 155.03 71.48 161.49 C 77.59 159.11 84.35 159.82 90.51 157.67 C 90.32 152.15 91.81 146.66 91.09 141.15 C 91.00 139.82 90.38 138.46 90.88 137.15 C 91.79 137.04 93.63 136.83 94.55 136.72 C 94.62 143.57 94.39 150.42 94.09 157.27 C 106.04 156.38 118.03 156.48 130.00 156.53 C 135.22 156.34 140.30 157.66 145.44 158.33 C 144.92 158.49 143.89 158.82 143.37 158.98 C 141.95 159.13 140.52 159.26 139.09 159.36 C 138.98 159.96 138.76 161.15 138.64 161.75 C 123.65 162.08 108.65 162.34 93.66 162.69 C 93.46 165.84 93.26 168.99 93.11 172.15 C 107.96 168.27 123.32 163.62 138.80 166.21 C 138.75 166.53 138.63 167.16 138.58 167.48 C 133.78 168.46 128.83 168.13 124.01 169.00 C 113.39 170.32 102.92 172.69 92.66 175.72 C 92.15 180.58 91.55 185.44 91.44 190.33 C 102.62 183.63 114.38 177.93 125.94 171.91 C 129.37 170.39 133.07 167.84 136.96 169.24 C 136.08 172.22 133.04 173.97 130.70 175.79 C 121.88 180.36 112.91 184.68 104.04 189.16 C 99.57 191.53 94.87 193.70 91.03 197.05 C 89.11 209.58 87.96 222.31 87.41 235.00 C 91.70 228.15 96.49 221.63 100.75 214.76 C 103.06 211.10 105.03 207.17 108.10 204.08 C 115.94 196.23 122.22 186.98 130.27 179.34 C 133.91 175.96 137.01 171.86 141.37 169.37 C 142.90 168.35 144.59 169.49 146.13 169.82 C 137.30 177.10 130.50 186.40 122.77 194.76 C 118.31 199.69 113.95 204.73 110.40 210.37 C 108.14 214.07 104.59 216.75 102.39 220.48 C 97.70 228.27 93.06 236.11 88.64 244.06 C 87.87 244.75 87.11 245.44 86.33 246.11 C 84.82 246.81 82.85 248.29 81.32 246.79 C 81.30 245.64 82.27 244.83 82.72 243.86 C 81.71 243.33 80.68 242.86 79.66 242.37 C 79.36 233.79 78.50 225.24 77.29 216.74 C 76.82 216.44 75.87 215.83 75.40 215.53 C 75.11 214.04 74.80 212.56 74.51 211.08 C 73.57 212.02 72.63 212.95 71.69 213.90 C 72.83 223.17 75.37 232.32 75.36 241.70 C 76.17 243.21 77.30 244.51 78.33 245.87 C 76.06 245.01 73.71 244.35 71.53 243.29 C 69.07 241.95 66.91 239.89 64.05 239.46 C 61.83 239.90 59.68 241.11 57.39 240.18 C 57.84 237.52 62.36 234.57 63.96 237.32 C 65.95 234.91 68.81 237.84 70.93 238.68 C 69.64 232.01 67.89 225.45 65.69 219.03 C 64.35 220.15 63.03 221.28 61.74 222.46 C 59.43 221.92 57.92 220.15 56.72 218.23 C 59.10 216.32 61.38 214.29 63.54 212.13 C 61.21 204.44 58.99 196.72 56.70 189.02 C 49.29 191.71 42.39 195.65 35.31 199.10 C 41.50 207.16 45.98 216.27 50.95 225.09 C 48.43 224.20 45.91 222.73 44.61 220.31 C 41.15 213.57 36.40 207.62 32.01 201.49 C 27.83 203.05 24.49 207.09 19.78 206.74 C 22.52 203.67 25.89 201.15 29.04 198.51 C 25.78 191.30 19.47 186.08 14.77 179.84 C 17.00 179.99 19.42 180.37 21.13 181.94 C 25.40 186.33 28.84 191.48 33.11 195.85 C 40.44 192.51 47.69 188.94 55.17 185.89 C 53.35 179.58 50.49 173.59 47.10 167.98 C 44.97 163.00 43.20 157.87 41.10 152.88 C 40.50 152.78 39.29 152.59 38.68 152.49 C 34.15 143.52 29.40 134.63 23.71 126.33 C 19.97 120.62 17.04 114.41 12.71 109.09 C 15.07 108.56 17.47 108.28 19.88 108.13 C 28.13 117.96 34.92 128.89 41.10 140.11 C 46.66 147.92 49.63 157.18 53.44 165.91 C 57.62 165.08 61.71 163.90 65.79 162.67 C 63.30 146.97 61.45 131.16 58.34 115.57 C 55.47 114.51 52.44 113.85 49.73 112.37 C 52.26 111.70 54.88 111.67 57.48 111.81 C 56.45 108.52 55.22 105.22 55.24 101.72 C 56.74 102.87 58.16 104.11 59.59 105.33 C 59.99 107.81 59.98 110.51 61.30 112.74 C 64.66 115.33 69.32 114.20 72.96 116.14 C 80.09 119.58 87.18 123.13 94.39 126.42 C 101.55 129.61 107.89 134.32 114.81 137.96 C 114.25 135.28 114.21 132.08 111.84 130.24 C 104.21 123.20 96.66 116.06 88.99 109.05 C 80.75 102.33 72.41 95.72 64.08 89.11 C 54.44 82.04 44.70 75.09 35.01 68.08 C 26.31 62.29 17.26 57.02 8.59 51.17 C 8.97 50.56 9.73 49.35 10.11 48.75 C 17.94 53.33 25.83 57.79 33.73 62.24 C 35.31 63.15 37.16 62.29 38.82 62.13 C 51.77 72.24 64.56 82.54 77.41 92.76 C 78.60 92.41 79.79 92.05 81.02 91.83 C 90.82 99.70 100.22 108.08 109.47 116.59 C 111.84 118.84 114.09 121.23 116.76 123.13 C 106.28 108.45 95.27 94.12 83.59 80.37 C 80.23 76.08 75.40 73.34 71.87 69.21 C 73.59 68.56 75.31 67.92 77.03 67.28 C 88.18 74.99 94.49 87.58 104.55 96.40 C 107.31 102.02 111.83 106.39 115.91 111.04 C 117.07 112.35 118.40 113.54 120.04 114.22 C 119.88 110.55 117.98 107.37 116.59 104.08 C 112.99 95.53 107.85 87.77 103.08 79.86 C 95.13 66.66 86.82 53.67 77.84 41.15 C 72.95 34.81 67.95 28.48 61.99 23.10 C 60.69 21.82 58.99 21.12 57.34 20.41 C 57.32 19.94 57.28 18.99 57.27 18.52 Z" />
<path fill="#f3722b" opacity="1.00" d=" M 280.85 18.84 C 281.86 18.03 283.22 18.15 284.35 18.63 C 284.56 19.95 285.22 21.76 284.02 22.78 C 275.01 30.15 266.27 37.95 258.61 46.74 C 261.56 50.84 263.49 55.51 265.44 60.14 C 268.71 57.96 271.46 54.97 275.06 53.32 C 275.59 53.37 276.65 53.48 277.18 53.53 C 273.85 56.83 270.08 59.64 266.78 62.97 C 269.26 68.28 271.54 73.69 274.14 78.94 C 282.86 70.41 290.99 61.11 301.22 54.30 C 301.73 55.28 303.36 56.16 302.48 57.41 C 298.29 61.24 293.44 64.33 289.43 68.38 C 284.77 73.09 279.73 77.48 275.70 82.76 C 280.36 92.73 284.97 102.74 289.40 112.82 C 293.18 112.97 296.98 112.84 300.75 113.28 C 298.15 106.39 296.11 99.20 291.99 93.00 C 290.45 91.32 291.58 89.33 292.70 87.80 C 296.43 92.48 298.35 98.19 301.40 103.27 C 299.15 92.42 297.32 81.40 293.24 71.05 C 294.75 71.19 295.61 72.40 296.55 73.43 C 297.81 74.94 299.86 76.00 300.02 78.18 C 301.94 88.31 305.82 97.91 308.03 107.97 C 309.99 118.36 311.45 128.85 313.67 139.19 C 314.11 141.48 314.84 143.70 315.83 145.81 C 319.05 145.81 322.28 145.85 325.51 145.95 C 324.43 146.76 323.35 147.56 322.27 148.35 C 320.04 148.39 317.82 148.55 315.61 148.87 C 317.49 156.19 318.47 163.69 320.20 171.05 C 320.53 178.74 322.55 186.23 322.67 193.93 C 323.58 199.19 324.34 204.48 324.49 209.82 C 324.03 209.81 323.09 209.78 322.62 209.77 C 322.76 205.56 319.76 202.19 319.28 198.09 C 317.25 186.48 315.99 174.75 314.27 163.09 C 313.61 158.77 313.32 154.34 311.78 150.21 C 309.89 149.37 307.72 150.60 305.76 150.79 C 307.48 157.79 310.64 164.35 312.49 171.32 C 313.04 178.21 313.85 185.08 314.58 191.96 C 310.24 178.58 306.66 164.95 302.31 151.57 C 299.47 152.20 296.63 152.83 293.78 153.44 C 297.50 159.26 299.82 165.84 302.88 172.01 C 305.22 176.36 306.20 181.25 308.14 185.77 C 310.49 192.63 314.31 198.90 316.22 205.93 C 317.22 209.81 318.80 213.50 320.19 217.26 C 317.41 217.41 314.80 216.37 312.17 215.65 C 303.13 206.37 294.78 196.46 286.33 186.64 C 281.63 181.03 275.88 176.43 270.74 171.25 C 269.02 169.01 267.43 166.61 264.87 165.24 C 260.70 162.81 257.68 158.94 253.71 156.27 C 246.04 152.24 240.24 145.42 232.44 141.56 C 228.56 137.44 223.82 134.26 218.94 131.45 C 218.47 131.57 217.52 131.81 217.05 131.92 C 211.75 144.24 208.89 157.63 208.13 171.00 C 210.83 171.14 213.53 171.26 216.23 171.36 C 220.78 162.92 223.17 153.51 227.82 145.11 C 228.93 145.79 230.05 146.45 231.18 147.11 C 227.53 155.32 223.15 163.21 220.16 171.70 C 222.48 172.50 225.71 173.97 227.66 171.69 C 232.58 166.60 237.54 161.52 243.14 157.16 C 244.08 156.04 245.38 156.36 246.47 157.04 C 240.63 162.46 234.24 167.33 229.10 173.47 C 231.29 174.24 234.02 175.77 236.20 174.16 C 242.01 170.28 247.81 166.30 254.06 163.14 C 255.54 163.62 257.95 164.44 257.85 166.31 C 251.11 168.33 246.04 173.38 239.96 176.63 C 243.75 178.93 248.45 178.57 252.30 180.73 C 261.85 185.43 272.11 188.90 280.78 195.22 C 289.86 201.41 299.37 207.16 307.18 214.99 C 305.36 215.22 303.35 215.52 302.01 213.96 C 292.47 205.48 281.27 199.22 270.56 192.37 C 260.34 186.95 249.60 182.38 238.41 179.43 C 235.36 178.54 233.21 181.52 231.00 183.07 C 228.45 185.77 224.46 186.16 222.04 189.03 C 221.22 188.95 219.59 188.78 218.78 188.70 C 221.59 183.73 227.13 181.29 231.16 177.45 C 227.65 177.09 224.34 175.90 220.93 175.12 C 217.67 175.17 217.74 179.60 217.15 181.93 C 216.39 182.70 215.64 183.47 214.87 184.23 C 214.23 184.26 212.94 184.31 212.30 184.34 C 211.18 184.92 210.06 185.49 208.91 186.02 C 211.43 182.39 214.47 178.98 214.97 174.36 C 212.71 174.32 210.45 174.29 208.20 174.26 C 208.27 176.22 208.30 178.17 208.34 180.13 C 207.04 179.84 205.74 179.55 204.44 179.26 C 204.39 177.62 204.45 175.96 204.16 174.34 C 199.37 173.84 194.55 174.23 189.75 174.36 C 193.90 179.80 199.44 184.49 201.91 191.00 C 203.53 195.33 206.19 199.16 208.56 203.11 C 208.88 203.63 209.53 204.67 209.85 205.19 C 211.89 205.67 213.89 206.30 215.86 207.00 C 216.12 206.41 216.64 205.22 216.90 204.62 C 220.69 207.87 224.40 211.22 227.78 214.90 C 224.68 215.66 221.58 216.42 218.41 216.85 C 216.34 214.60 213.97 212.62 212.03 210.24 C 212.98 212.77 214.24 215.17 215.72 217.44 C 214.20 218.18 212.66 218.88 211.11 219.55 C 209.67 217.14 207.99 214.88 206.11 212.81 C 206.82 212.39 208.26 211.56 208.98 211.14 C 208.15 209.61 207.14 208.19 206.10 206.81 C 205.85 206.31 205.37 205.30 205.12 204.80 C 204.94 204.39 204.57 203.59 204.38 203.19 C 202.21 198.61 199.65 194.23 196.99 189.94 C 190.43 179.22 181.61 169.91 171.41 162.61 C 168.97 160.71 166.01 159.73 162.99 159.25 C 161.82 158.06 160.66 156.86 159.53 155.64 C 166.72 155.11 173.02 159.41 178.40 163.67 C 182.06 166.34 185.31 169.52 188.19 173.01 C 191.70 172.03 195.33 171.56 198.98 171.68 C 198.48 166.03 197.85 160.38 197.40 154.72 C 197.69 149.53 199.06 144.44 199.64 139.27 C 189.87 142.43 180.52 146.71 171.42 151.44 C 168.32 153.01 165.07 156.32 161.34 154.59 C 161.00 152.85 163.16 152.15 164.11 151.04 C 168.17 148.15 172.68 145.96 176.97 143.42 C 176.48 141.80 175.61 140.35 174.33 139.23 C 170.93 142.20 167.41 145.07 164.61 148.65 C 163.19 150.72 160.39 149.39 158.36 149.50 C 158.61 148.60 159.10 146.81 159.34 145.91 C 159.00 145.45 158.33 144.52 158.00 144.06 C 161.94 140.17 165.39 135.85 169.00 131.66 C 168.01 130.30 167.42 127.46 165.18 128.27 C 162.63 131.60 161.10 135.57 159.26 139.32 C 157.75 142.40 157.07 146.04 154.65 148.58 C 153.58 148.65 151.92 149.02 151.47 147.67 C 151.08 138.08 151.64 128.47 153.55 119.05 C 153.81 116.61 155.30 113.74 153.31 111.66 C 145.69 102.98 137.58 94.66 128.54 87.45 C 126.80 86.10 124.88 84.89 123.62 83.04 C 125.17 83.06 127.00 82.49 128.22 83.78 C 136.51 90.44 144.35 97.67 151.49 105.56 C 152.69 106.95 154.06 108.20 155.62 109.19 C 157.39 101.04 159.84 93.06 161.76 84.95 C 165.38 73.33 169.69 61.70 176.63 51.60 C 179.04 47.24 181.15 42.69 183.96 38.55 C 185.44 39.34 186.92 40.13 188.39 40.92 C 183.68 50.27 178.03 59.19 174.47 69.09 C 168.79 83.05 164.75 97.60 160.27 111.98 C 158.86 114.74 161.34 118.12 163.91 118.97 C 166.35 116.35 167.38 112.60 169.17 109.49 C 174.59 99.01 176.54 87.08 182.73 76.96 C 187.68 67.30 192.90 57.78 198.37 48.42 C 203.74 40.74 208.54 32.67 214.24 25.23 C 215.18 23.78 217.13 24.02 218.59 23.55 C 220.05 21.90 221.53 20.05 223.91 19.90 C 216.70 28.12 209.79 36.64 203.95 45.90 C 198.89 55.02 193.78 64.15 189.77 73.79 C 187.00 79.85 183.66 85.75 182.05 92.26 C 190.30 83.08 198.24 73.60 206.63 64.54 C 214.27 57.85 221.61 50.75 230.10 45.09 C 231.28 44.20 232.82 44.26 234.22 44.01 C 232.32 47.38 228.71 49.27 226.00 51.92 C 212.92 61.86 203.14 75.23 192.95 87.94 C 186.44 95.91 180.66 104.44 174.80 112.89 C 174.44 112.52 173.71 111.77 173.35 111.39 C 173.48 111.88 173.73 112.85 173.85 113.34 C 173.47 113.41 172.71 113.54 172.33 113.61 L 173.84 113.72 C 171.59 117.10 169.56 120.63 167.36 124.05 C 168.65 125.45 169.24 128.47 171.38 128.56 C 177.22 121.42 182.88 114.06 189.52 107.62 C 197.76 100.12 204.62 91.25 212.99 83.89 C 212.40 82.77 211.81 81.65 211.24 80.52 C 213.04 80.60 214.85 80.68 216.66 80.75 C 226.05 72.46 234.23 62.88 243.80 54.79 C 246.69 52.18 251.08 50.88 252.58 47.01 C 251.04 44.36 248.95 42.05 247.77 39.19 C 249.97 39.61 252.16 40.11 254.35 40.60 C 255.02 41.38 255.69 42.17 256.37 42.95 C 262.24 36.27 268.31 29.76 274.18 23.08 C 276.06 21.20 278.67 20.33 280.85 18.84 Z" />
<path fill="#f3722b" opacity="1.00" d=" M 378.04 29.01 C 379.60 29.53 381.15 30.05 382.71 30.58 C 380.40 38.26 378.84 46.14 377.09 53.97 C 373.40 67.95 370.36 82.11 366.33 96.01 C 363.78 104.97 361.99 114.14 359.19 123.03 C 363.77 116.09 367.64 108.70 371.73 101.46 C 372.34 101.47 373.58 101.49 374.20 101.50 C 375.82 98.42 377.46 95.35 378.97 92.21 C 378.24 91.50 377.51 90.80 376.79 90.10 C 384.04 79.11 391.37 68.17 398.42 57.05 C 399.89 57.67 401.36 58.30 402.83 58.94 C 401.17 62.72 398.60 65.97 396.41 69.44 C 391.78 76.47 387.21 83.54 382.59 90.58 C 379.87 94.10 377.77 98.02 375.82 102.00 C 375.88 107.37 371.14 111.16 369.78 116.17 C 375.30 112.27 379.45 106.72 385.29 103.24 C 392.44 98.39 399.47 93.34 406.96 89.01 C 409.50 87.57 412.38 86.97 415.22 86.43 C 413.38 89.39 409.68 90.11 407.00 92.08 C 398.11 98.43 389.17 104.75 380.83 111.83 C 377.74 114.75 374.46 117.44 371.25 120.21 C 367.59 123.36 365.31 127.67 362.66 131.62 C 355.10 141.71 350.92 153.77 344.71 164.66 C 341.07 173.77 338.88 183.38 336.69 192.92 L 335.88 193.70 L 334.64 193.11 C 336.03 181.23 337.59 169.20 341.89 157.95 C 342.22 156.77 342.98 155.57 342.65 154.30 C 340.67 150.02 336.13 147.81 333.73 143.85 C 338.48 144.81 340.25 150.06 344.28 152.12 C 345.39 147.88 349.15 144.58 348.98 140.02 C 349.21 129.00 349.55 117.98 349.89 106.96 C 348.73 82.14 347.44 57.32 346.26 32.50 C 347.88 32.33 349.49 32.17 351.11 32.01 C 352.71 57.66 353.68 83.36 355.06 109.02 C 355.23 112.05 354.71 115.04 354.26 118.02 C 362.63 88.48 369.74 58.57 378.04 29.01 Z" />
<path fill="#f3722b" opacity="1.00" d=" M 308.70 47.98 C 307.83 44.94 312.90 45.20 313.73 47.25 C 315.80 52.30 316.26 57.83 317.93 63.02 C 319.47 67.77 319.50 72.81 320.53 77.67 C 321.41 83.17 322.71 88.65 322.58 94.26 C 321.45 93.38 320.01 92.54 319.93 90.94 C 318.85 84.72 318.95 78.13 315.76 72.48 C 313.84 64.20 310.61 56.26 308.70 47.98 Z" />
<path fill="#3e3e3e" opacity="1.00" d=" M 245.81 62.72 C 248.60 58.41 251.50 54.17 254.94 50.35 C 257.77 54.11 260.63 57.90 262.62 62.19 C 254.17 70.27 246.32 78.96 238.87 87.97 C 236.66 90.68 234.68 93.60 232.14 96.02 C 230.11 94.06 228.13 92.05 226.16 90.03 C 231.38 80.08 239.05 71.64 245.81 62.72 Z" />
<path fill="#f3722b" opacity="1.00" d=" M 325.61 54.52 C 326.22 54.63 327.42 54.83 328.02 54.93 C 330.38 60.14 328.77 66.44 332.03 71.33 C 332.90 67.34 333.13 63.26 333.71 59.23 C 334.32 59.44 335.53 59.87 336.13 60.09 C 336.19 67.04 334.11 73.90 334.69 80.85 C 336.35 87.56 338.89 94.07 339.85 100.95 C 341.25 110.58 343.46 120.14 343.61 129.90 C 343.11 129.84 342.13 129.72 341.63 129.66 C 341.64 120.25 339.76 110.96 338.44 101.68 C 337.81 96.19 335.77 91.03 334.58 85.67 C 333.76 89.73 333.62 93.88 333.46 98.01 C 332.76 110.67 332.19 123.34 332.24 136.02 C 331.32 147.97 331.42 159.97 331.09 171.94 C 330.34 183.74 330.96 195.59 329.91 207.38 C 328.82 206.24 327.74 205.11 326.66 203.99 C 327.08 191.98 326.16 179.97 326.35 167.95 C 326.45 157.35 326.14 146.74 326.52 136.15 C 328.11 117.07 329.10 97.94 331.29 78.92 C 331.16 70.45 326.16 62.97 325.61 54.52 Z" />
<path fill="#f3722b" opacity="1.00" d=" M 299.25 62.77 C 300.50 62.40 301.76 62.05 303.03 61.70 C 305.71 67.14 309.62 72.58 309.15 78.92 C 308.84 79.99 310.51 84.05 308.20 82.77 C 305.55 75.96 302.05 69.51 299.25 62.77 Z" />
<path fill="#3e3e3e" opacity="1.00" d=" M 262.20 67.16 C 262.88 66.43 264.48 65.62 264.80 67.20 C 266.67 71.36 268.49 75.55 270.37 79.71 C 272.01 82.49 269.15 86.54 266.03 86.30 C 261.87 86.32 258.14 88.96 254.02 88.77 C 252.17 87.24 250.31 85.64 247.70 86.05 C 248.53 87.75 249.66 89.28 250.90 90.70 C 246.41 91.32 242.14 92.90 237.98 94.65 C 245.28 84.86 252.57 74.81 262.20 67.16 Z" />
<path fill="#3e3e3e" opacity="1.00" d=" M 219.17 83.64 C 221.28 81.38 223.48 79.20 226.04 77.45 C 224.71 80.29 223.02 82.95 221.22 85.51 C 220.71 85.05 219.68 84.11 219.17 83.64 Z" />
<path fill="#3e3e3e" opacity="1.00" d=" M 268.29 90.35 C 269.77 88.80 270.94 86.77 272.98 85.91 C 277.52 94.59 281.10 103.75 285.52 112.50 C 280.60 112.77 275.62 113.62 270.76 112.43 C 268.66 109.34 266.87 106.07 265.12 102.78 C 264.26 101.11 262.40 99.90 262.08 98.01 C 263.62 95.07 266.26 92.93 268.29 90.35 Z" />
<path fill="#3e3e3e" opacity="1.00" d=" M 216.29 86.74 C 217.17 87.41 218.06 88.08 218.98 88.72 C 216.37 94.31 214.62 100.29 211.42 105.60 C 208.43 108.99 203.64 109.62 199.94 111.91 C 191.19 118.05 183.11 125.10 174.17 130.97 C 175.76 129.32 177.44 127.76 178.88 125.97 C 184.08 119.20 190.44 113.47 196.37 107.37 C 202.70 100.21 209.55 93.52 216.29 86.74 Z" />
<path fill="#3e3e3e" opacity="1.00" d=" M 256.81 91.46 C 259.58 90.51 262.35 89.59 265.20 88.88 C 263.67 91.39 261.71 93.59 259.74 95.75 C 258.60 94.44 257.60 93.01 256.81 91.46 Z" />
<path fill="#3e3e3e" opacity="1.00" d=" M 236.24 99.97 C 241.87 97.36 247.60 94.89 253.58 93.17 C 254.71 95.12 257.89 97.05 256.47 99.53 C 253.81 103.90 250.54 107.87 247.76 112.17 C 244.26 107.78 239.78 104.32 236.24 99.97 Z" />
<path fill="#3e3e3e" opacity="1.00" d=" M 223.17 93.78 C 225.17 94.95 226.75 96.64 228.02 98.56 C 224.98 99.96 221.96 101.41 218.93 102.84 C 220.05 99.68 221.59 96.71 223.17 93.78 Z" />
<path fill="#3e3e3e" opacity="1.00" d=" M 249.88 114.72 C 252.75 109.97 255.73 105.26 259.11 100.85 C 261.56 104.70 265.13 108.15 266.04 112.75 C 260.53 111.76 255.20 113.55 249.88 114.72 Z" />
<path fill="#3e3e3e" opacity="1.00" d=" M 231.63 104.48 C 231.86 104.43 232.32 104.32 232.55 104.27 C 234.04 106.34 235.31 108.57 236.80 110.65 C 237.78 110.10 238.75 109.53 239.72 108.95 C 241.87 110.99 244.03 113.03 246.07 115.19 C 241.82 117.35 236.95 117.68 232.54 119.41 C 228.80 121.09 224.33 120.13 220.95 122.69 C 224.52 116.63 227.69 110.32 231.63 104.48 Z" />
<path fill="#3e3e3e" opacity="1.00" d=" M 215.25 111.29 C 218.00 108.72 221.81 107.63 225.18 106.09 C 223.09 111.51 220.30 116.64 218.02 121.99 C 217.14 123.30 216.48 126.18 214.41 125.51 C 212.89 125.01 211.55 124.12 210.17 123.37 C 211.92 119.37 213.15 115.12 215.25 111.29 Z" />
<path fill="#3e3e3e" opacity="1.00" d=" M 290.91 115.33 C 294.39 115.43 297.90 115.38 301.32 114.57 C 302.41 117.22 303.34 119.93 303.98 122.72 C 301.02 123.50 298.06 124.30 295.10 125.08 C 293.60 121.87 292.06 118.68 290.91 115.33 Z" />
<path fill="#3e3e3e" opacity="1.00" d=" M 273.30 116.57 C 277.83 116.10 282.38 115.55 286.95 115.68 C 288.45 119.30 290.13 122.83 291.80 126.37 C 288.17 127.89 284.58 129.55 280.83 130.75 C 279.12 125.62 275.68 121.38 273.30 116.57 Z" />
<path fill="#3e3e3e" opacity="1.00" d=" M 176.99 137.36 C 185.91 130.17 195.32 123.63 204.66 117.02 C 202.71 121.15 202.42 125.74 201.29 130.10 C 201.03 131.62 199.19 131.67 198.09 132.25 C 191.57 134.60 185.87 138.67 179.67 141.71 C 178.77 140.26 177.88 138.81 176.99 137.36 Z" />
<path fill="#3e3e3e" opacity="1.00" d=" M 254.71 119.90 C 259.69 119.00 264.61 117.43 269.69 117.26 C 277.82 129.33 286.12 141.50 291.53 155.09 C 292.86 159.65 294.15 164.26 296.56 168.40 C 300.59 176.54 304.16 184.90 307.94 193.17 C 308.80 196.04 308.90 199.11 309.97 201.95 C 308.82 201.12 307.66 200.30 306.51 199.48 C 305.51 194.32 302.51 189.96 300.72 185.09 C 295.94 177.04 290.35 169.51 285.59 161.44 C 283.27 158.62 282.56 154.76 279.74 152.31 C 274.68 147.57 271.77 141.08 266.80 136.26 C 262.49 131.02 258.34 125.64 254.71 119.90 Z" />
<path fill="#f3722b" opacity="1.00" d=" M 402.96 120.91 C 405.23 119.19 407.48 116.72 410.55 116.80 C 408.10 119.32 404.89 120.90 402.47 123.44 C 400.01 126.02 397.44 128.49 395.00 131.10 C 399.08 129.38 401.99 125.81 406.03 124.03 C 409.69 122.31 413.28 120.39 417.20 119.29 C 417.34 119.83 417.63 120.91 417.77 121.44 C 413.42 122.23 410.35 125.59 406.69 127.77 C 403.07 130.52 399.38 133.19 395.57 135.68 C 388.43 140.70 382.51 147.19 376.54 153.50 C 370.47 160.44 363.51 166.65 358.50 174.45 C 352.84 182.96 346.62 191.30 342.97 200.93 C 354.54 191.28 367.30 183.22 380.00 175.15 C 381.88 173.91 383.83 172.66 386.12 172.35 C 384.88 173.76 383.40 174.93 381.87 176.01 C 386.44 175.16 390.40 172.57 394.82 171.22 C 395.33 173.31 393.02 173.72 391.65 174.54 C 383.88 178.21 376.33 182.40 369.31 187.36 C 367.76 188.80 366.42 190.49 364.57 191.57 C 357.08 196.16 350.37 201.91 344.08 208.00 C 341.32 210.29 338.18 212.19 336.00 215.11 C 348.64 207.94 360.46 199.15 374.09 193.89 C 379.75 191.96 385.25 189.45 391.15 188.33 C 394.10 188.49 397.04 188.41 399.99 188.15 C 405.23 188.79 410.11 186.40 415.10 185.22 C 414.77 187.13 412.62 187.34 411.17 188.04 C 401.73 191.35 392.16 194.32 383.03 198.43 C 387.32 198.72 391.88 198.95 395.58 201.41 C 398.70 203.59 401.73 205.96 403.97 209.08 C 405.67 210.01 407.57 210.54 409.36 211.32 C 408.54 211.55 406.91 212.02 406.09 212.25 C 407.53 215.00 407.94 218.06 407.76 221.13 C 405.14 220.56 403.65 217.99 402.13 216.00 C 401.06 214.82 400.89 212.35 398.94 212.40 C 381.35 211.98 364.06 216.56 347.75 222.81 C 343.52 224.32 339.61 227.45 334.88 226.79 C 335.95 223.27 340.00 222.40 342.89 220.86 C 354.01 216.48 365.00 211.29 376.89 209.40 C 384.00 209.91 391.04 208.64 398.16 208.77 C 395.34 205.62 391.68 201.98 387.08 202.61 C 379.87 202.88 372.95 205.11 366.10 207.21 C 356.09 210.91 346.34 215.49 337.62 221.70 C 335.44 223.48 332.52 223.50 329.86 223.68 C 331.03 221.72 332.74 220.22 334.54 218.86 C 334.43 217.96 334.32 217.06 334.22 216.16 C 333.70 215.81 332.66 215.10 332.15 214.74 C 333.27 204.32 339.71 195.71 344.93 186.99 C 347.60 181.73 351.13 176.97 354.16 171.92 C 354.47 172.08 355.09 172.39 355.40 172.55 C 354.58 170.71 356.04 169.98 357.44 169.29 L 356.11 169.39 C 356.32 168.64 356.75 167.13 356.96 166.37 C 358.15 165.27 359.30 164.12 360.39 162.92 C 363.63 159.28 366.15 155.06 369.43 151.45 C 377.24 142.60 385.27 133.96 393.39 125.40 C 395.77 123.11 397.23 119.21 400.96 118.96 C 392.48 129.12 383.00 138.39 374.28 148.35 C 371.62 151.46 368.35 154.20 366.80 158.09 C 370.80 154.65 374.16 150.56 377.77 146.73 C 386.07 138.04 394.34 129.30 402.96 120.91 Z" />
<path fill="#3e3e3e" opacity="1.00" d=" M 158.59 117.96 C 160.11 119.82 163.00 121.93 161.40 124.60 C 159.44 128.76 157.18 132.77 155.28 136.96 C 155.35 133.54 155.78 130.13 156.54 126.79 C 157.03 126.53 158.00 125.99 158.48 125.72 C 158.10 123.14 158.22 120.53 158.59 117.96 Z" />
<path fill="#3e3e3e" opacity="1.00" d=" M 243.79 124.67 C 244.86 122.21 248.20 120.94 250.59 121.47 C 255.15 126.56 259.59 131.81 263.63 137.34 C 266.46 141.48 270.55 144.52 273.50 148.56 C 278.09 154.41 283.75 159.87 285.88 167.19 C 291.91 177.58 298.72 187.57 304.31 198.22 C 300.38 195.29 297.79 191.05 294.39 187.59 C 286.46 179.52 278.05 171.92 269.25 164.80 C 264.23 159.72 258.18 155.88 252.74 151.30 C 245.54 146.92 239.00 141.54 231.59 137.48 C 228.05 135.75 225.18 132.94 223.08 129.65 C 228.50 127.89 233.87 125.92 239.40 124.50 C 238.03 127.37 236.08 129.97 235.09 133.00 C 235.45 134.37 237.31 134.25 238.37 134.87 C 240.11 131.44 241.87 128.01 243.79 124.67 Z" />
<path fill="#3e3e3e" opacity="1.00" d=" M 296.21 127.64 C 298.98 126.27 301.81 125.04 304.73 124.03 C 307.42 130.73 309.85 137.56 310.91 144.74 C 308.53 145.00 306.15 145.22 303.76 145.44 C 301.47 139.41 299.01 133.45 296.21 127.64 Z" />
<path fill="#3e3e3e" opacity="1.00" d=" M 209.07 126.44 C 210.47 125.99 210.97 126.47 210.57 127.87 C 209.17 128.32 208.67 127.84 209.07 126.44 Z" />
<path fill="#3e3e3e" opacity="1.00" d=" M 282.81 134.07 C 286.11 132.25 289.49 130.58 292.90 129.00 C 295.55 134.72 298.35 140.39 300.67 146.27 C 297.28 146.95 293.91 147.74 290.59 148.68 C 287.89 143.86 285.53 138.87 282.81 134.07 Z" />
<path fill="#3e3e3e" opacity="1.00" d=" M 206.65 136.84 C 207.22 134.56 210.12 134.67 211.89 133.81 C 208.41 145.91 203.69 158.19 204.50 170.97 C 201.80 159.63 203.91 147.94 206.65 136.84 Z" />
<path fill="#f3722b" opacity="1.00" d=" M 272.73 135.28 C 273.95 134.64 275.17 133.99 276.38 133.33 C 276.97 134.47 277.55 135.61 278.13 136.76 C 276.01 138.05 273.62 137.86 272.73 135.28 Z" />
<path fill="#f3722b" opacity="1.00" d=" M 363.09 149.29 C 363.44 143.67 367.28 138.91 370.87 134.85 C 370.70 137.26 369.36 139.27 368.05 141.21 C 366.24 143.81 365.26 146.94 363.09 149.29 Z" />
<path fill="#f3722b" opacity="1.00" d=" M 254.68 147.81 C 256.81 145.68 259.32 142.75 262.65 143.25 C 263.63 145.64 260.26 146.59 258.86 147.92 C 257.63 149.19 256.02 148.29 254.68 147.81 Z" />
<path fill="#f3722b" opacity="1.00" d=" M 181.31 148.84 C 182.47 148.76 184.10 147.44 184.82 148.99 C 188.72 154.40 192.07 160.19 195.18 166.08 C 191.25 167.17 190.27 162.92 188.64 160.38 C 186.47 156.37 183.79 152.67 181.31 148.84 Z" />
<path fill="#f3722b" opacity="1.00" d=" M 284.12 149.98 C 286.85 150.18 287.31 153.08 288.00 155.19 C 286.40 153.70 285.13 151.91 284.12 149.98 Z" />
<path fill="#f4e4c0" opacity="1.00" d=" M 146.33 155.10 C 149.25 156.68 152.57 157.17 155.64 158.39 C 155.67 160.68 152.05 161.47 152.20 164.10 C 152.20 169.14 154.11 174.00 154.19 179.06 C 154.03 181.70 152.86 184.30 153.41 186.95 C 154.55 189.31 156.86 191.12 156.98 193.93 C 157.78 196.75 156.72 199.56 156.08 202.29 C 154.51 202.83 152.96 203.42 151.41 204.00 C 151.51 202.54 151.61 201.09 151.71 199.64 C 152.04 199.23 152.69 198.42 153.01 198.01 C 152.58 195.97 152.13 193.94 151.61 191.92 C 147.99 189.68 145.10 183.26 149.51 180.42 C 149.57 179.85 149.68 178.70 149.74 178.13 C 149.81 177.45 149.94 176.08 150.01 175.39 C 149.53 175.10 148.56 174.52 148.08 174.23 C 147.56 168.87 145.69 163.80 143.37 158.98 C 143.89 158.82 144.92 158.49 145.44 158.33 L 146.52 157.97 C 146.47 157.25 146.38 155.82 146.33 155.10 Z" />
<path fill="#f3722b" opacity="1.00" d=" M 267.61 156.15 C 269.27 155.88 270.99 154.86 272.71 155.31 C 273.78 156.21 274.46 157.49 274.89 158.81 C 273.96 159.46 272.99 160.06 272.00 160.60 C 270.33 159.33 268.71 157.95 267.61 156.15 Z" />
<path fill="#f3722b" opacity="1.00" d=" M 350.00 167.22 C 350.80 163.66 351.77 160.10 353.56 156.90 C 353.63 160.11 353.61 163.33 353.62 166.55 C 352.42 166.83 351.20 167.02 350.00 167.22 Z" />
<path fill="#3e3e3e" opacity="1.00" d=" M 139.09 159.36 C 140.52 159.26 141.95 159.13 143.37 158.98 C 145.69 163.80 147.56 168.87 148.08 174.23 C 145.81 175.91 144.20 178.23 142.53 180.46 C 132.55 193.04 122.87 205.91 114.86 219.84 C 112.48 224.71 106.74 225.96 103.35 229.85 C 105.75 230.16 108.07 229.55 110.27 228.65 C 106.74 233.79 101.38 237.25 96.79 241.36 C 97.52 239.27 98.24 237.17 98.94 235.07 C 95.51 238.07 92.11 241.10 88.64 244.06 C 93.06 236.11 97.70 228.27 102.39 220.48 C 104.59 216.75 108.14 214.07 110.40 210.37 C 113.95 204.73 118.31 199.69 122.77 194.76 C 130.50 186.40 137.30 177.10 146.13 169.82 C 144.59 169.49 142.90 168.35 141.37 169.37 C 137.01 171.86 133.91 175.96 130.27 179.34 C 122.22 186.98 115.94 196.23 108.10 204.08 C 105.03 207.17 103.06 211.10 100.75 214.76 C 96.49 221.63 91.70 228.15 87.41 235.00 C 87.96 222.31 89.11 209.58 91.03 197.05 C 94.87 193.70 99.57 191.53 104.04 189.16 C 112.91 184.68 121.88 180.36 130.70 175.79 C 133.04 173.97 136.08 172.22 136.96 169.24 C 133.07 167.84 129.37 170.39 125.94 171.91 C 114.38 177.93 102.62 183.63 91.44 190.33 C 91.55 185.44 92.15 180.58 92.66 175.72 C 102.92 172.69 113.39 170.32 124.01 169.00 C 128.83 168.13 133.78 168.46 138.58 167.48 C 138.63 167.16 138.75 166.53 138.80 166.21 C 123.32 163.62 107.96 168.27 93.11 172.15 C 93.26 168.99 93.46 165.84 93.66 162.69 C 108.65 162.34 123.65 162.08 138.64 161.75 C 138.76 161.15 138.98 159.96 139.09 159.36 Z" />
<path fill="#f3722b" opacity="1.00" d=" M 161.29 163.65 C 161.49 162.53 161.66 161.41 161.82 160.29 C 165.08 161.31 168.09 163.03 170.60 165.37 C 180.96 174.86 189.00 186.90 193.67 200.16 C 195.98 204.10 197.17 208.59 199.72 212.40 C 199.66 212.64 199.55 213.14 199.49 213.38 C 199.39 213.52 199.20 213.81 199.10 213.95 C 197.74 214.57 196.11 214.93 195.25 216.28 C 190.12 222.97 185.36 229.97 181.42 237.43 C 180.41 239.45 178.86 241.11 177.22 242.63 C 179.31 244.60 182.10 244.90 184.85 244.90 C 187.82 236.85 191.31 229.00 195.21 221.36 C 195.96 221.31 197.46 221.23 198.20 221.18 C 198.09 222.44 197.90 223.68 197.63 224.92 C 193.16 233.16 188.83 241.61 186.40 250.73 C 187.88 251.49 189.44 252.07 190.98 252.71 C 191.64 251.85 192.30 251.00 192.97 250.15 C 195.30 248.43 197.90 247.12 200.49 245.83 C 200.89 240.10 202.42 234.54 203.21 228.86 C 203.90 224.57 203.98 220.20 204.89 215.94 C 205.10 218.69 204.53 221.40 204.00 224.09 C 202.99 231.21 201.96 238.32 201.25 245.48 C 207.92 241.93 214.90 239.05 221.99 236.47 C 224.80 235.91 227.68 235.49 230.25 234.13 C 234.91 231.89 240.06 231.19 245.03 229.99 C 257.94 225.64 271.61 224.45 284.89 221.67 C 281.24 219.98 277.09 220.38 273.20 219.69 C 265.51 218.48 257.72 219.32 249.98 218.84 C 245.24 218.46 240.60 219.74 235.94 220.38 C 227.54 221.92 219.12 223.50 210.97 226.11 C 209.21 226.60 206.27 227.14 205.50 224.89 C 214.66 219.61 225.26 217.94 235.42 215.63 C 251.30 213.92 267.43 214.07 283.22 216.56 C 287.21 217.29 291.06 218.68 295.12 219.05 C 292.62 216.78 290.19 214.25 286.97 213.05 C 276.42 208.88 265.87 204.72 255.29 200.64 C 245.82 196.57 235.25 195.78 225.50 193.08 L 225.85 192.03 C 237.44 193.22 248.99 194.92 260.38 197.41 C 273.32 200.74 285.26 206.93 296.95 213.24 C 301.49 215.94 305.96 218.79 310.33 221.77 C 311.85 222.58 311.82 224.39 312.06 225.87 C 289.51 225.69 266.98 228.54 245.24 234.56 C 245.49 235.42 245.75 236.28 246.02 237.15 C 244.41 237.73 242.81 238.31 241.21 238.90 C 240.23 238.23 239.26 237.57 238.29 236.91 C 238.71 237.52 239.56 238.74 239.98 239.35 C 238.14 240.08 236.24 240.68 234.29 241.01 C 233.97 240.45 233.34 239.34 233.03 238.78 C 230.72 239.37 228.47 240.16 226.29 241.10 C 226.37 241.84 226.55 243.33 226.64 244.07 C 225.32 244.60 224.01 245.14 222.70 245.69 C 222.42 245.01 221.85 243.65 221.57 242.97 C 218.97 243.77 216.47 244.84 213.91 245.74 C 211.50 246.59 208.88 245.97 206.42 246.51 C 204.10 247.37 202.00 248.72 199.72 249.67 C 197.21 250.70 194.76 251.85 192.41 253.20 C 194.74 253.45 197.08 253.63 199.41 253.85 C 203.58 254.26 207.71 255.26 211.91 255.18 C 216.77 253.05 221.23 250.10 225.94 247.70 C 234.43 245.67 241.96 240.65 250.67 239.42 C 256.47 237.84 262.18 235.93 267.93 234.15 C 273.86 232.40 280.00 231.53 286.03 230.19 C 291.57 228.74 297.35 228.48 303.04 228.53 C 303.80 228.90 305.31 229.65 306.07 230.03 C 303.62 232.26 300.12 231.39 297.13 231.86 C 289.32 232.15 281.96 234.98 274.38 236.53 C 269.38 236.10 264.84 238.53 259.96 239.12 C 254.39 239.84 249.42 242.63 244.11 244.27 C 240.08 246.04 235.60 246.57 231.74 248.73 C 226.76 251.80 220.82 252.83 216.11 256.40 C 219.49 257.11 222.92 257.62 226.38 257.83 C 226.37 257.12 226.35 255.70 226.34 255.00 C 227.60 254.63 228.85 254.26 230.10 253.88 C 230.55 255.70 231.13 257.47 231.61 259.28 C 234.29 260.47 237.35 261.37 239.26 263.75 C 237.10 263.43 234.96 263.00 232.84 262.53 C 233.34 266.12 234.59 269.52 236.59 272.54 C 237.94 276.35 238.40 280.49 240.57 284.00 C 238.45 286.16 236.25 288.24 233.92 290.18 C 232.20 281.16 229.99 272.23 227.52 263.39 C 217.36 261.29 207.02 260.26 196.85 258.25 C 195.20 257.93 193.54 257.72 191.88 257.54 C 189.18 257.29 186.47 257.23 183.76 257.21 C 182.51 262.65 180.83 267.99 180.13 273.54 C 178.74 273.61 177.36 273.71 175.99 273.85 C 176.70 267.90 179.11 262.36 180.64 256.61 C 175.31 255.26 169.82 255.08 164.36 255.04 C 162.68 254.95 161.00 254.85 159.33 254.77 C 147.85 254.43 136.36 255.21 124.95 256.16 C 121.07 256.07 117.20 255.69 113.32 255.79 L 113.65 254.61 C 111.32 255.37 108.92 255.89 106.50 256.27 C 107.17 254.73 107.45 252.90 108.65 251.66 C 118.36 248.80 128.23 246.44 138.29 245.20 C 138.89 245.09 140.08 244.87 140.68 244.76 C 143.58 244.70 146.50 244.58 149.38 244.13 C 150.22 244.04 151.90 243.84 152.75 243.74 C 153.99 243.59 155.23 243.47 156.47 243.30 C 158.21 243.06 159.95 242.82 161.69 242.58 C 166.62 241.94 171.54 241.25 176.47 240.72 C 176.26 235.32 179.78 230.91 182.54 226.62 C 185.94 221.26 189.98 216.33 193.05 210.77 C 193.54 210.61 194.51 210.29 195.00 210.13 C 191.73 207.08 190.47 202.65 187.89 199.09 C 183.58 191.01 179.04 182.98 173.55 175.61 C 170.40 170.88 167.07 165.35 161.29 163.65 Z" />
<path fill="#3e3e3e" opacity="1.00" d=" M 86.43 162.60 C 87.44 162.62 89.33 161.77 89.66 163.24 C 89.83 166.53 89.68 169.86 89.21 173.13 C 84.35 175.52 78.97 176.63 73.70 177.76 C 73.26 173.66 72.52 169.59 71.58 165.57 C 76.32 163.72 81.49 163.60 86.43 162.60 Z" />
<path fill="#f4e4c0" opacity="1.00" d=" M 353.62 166.55 C 355.77 165.17 357.76 163.35 360.39 162.92 C 359.30 164.12 358.15 165.27 356.96 166.37 C 354.03 167.46 352.91 171.07 349.99 171.89 C 347.67 171.29 344.46 168.72 345.20 166.17 C 346.62 165.36 347.56 165.80 348.02 167.50 C 348.68 167.41 349.34 167.31 350.00 167.22 C 351.20 167.02 352.42 166.83 353.62 166.55 Z" />
<path fill="#3e3e3e" opacity="1.00" d=" M 54.44 167.80 C 58.50 167.36 62.63 167.30 66.61 166.23 C 67.35 170.88 68.14 175.54 68.55 180.24 C 65.91 181.28 63.30 182.38 60.70 183.52 C 58.40 178.37 56.28 173.13 54.44 167.80 Z" />
<path fill="#f3722b" opacity="1.00" d=" M 157.79 170.11 C 163.68 169.46 166.65 175.33 169.49 179.41 C 171.44 181.53 169.57 184.22 169.79 186.70 C 168.69 186.77 167.60 186.82 166.50 186.85 C 165.12 183.01 163.84 179.02 161.28 175.77 C 159.94 174.00 158.16 172.42 157.79 170.11 Z" />
<path fill="#f3722b" opacity="1.00" d=" M 142.53 180.46 C 144.20 178.23 145.81 175.91 148.08 174.23 C 148.56 174.52 149.53 175.10 150.01 175.39 C 149.94 176.08 149.81 177.45 149.74 178.13 C 146.97 180.55 144.05 182.85 142.00 185.96 C 134.25 196.41 125.83 206.52 119.84 218.14 C 127.32 214.06 134.86 210.05 142.75 206.80 C 142.63 203.62 142.62 200.43 142.88 197.26 C 145.56 199.42 144.21 203.24 144.62 206.20 C 146.90 205.52 149.18 204.83 151.41 204.00 C 152.96 203.42 154.51 202.83 156.08 202.29 C 163.69 199.48 171.58 197.62 179.55 196.18 C 180.24 197.49 180.91 198.81 181.60 200.14 C 173.92 201.69 166.33 203.65 158.92 206.19 C 160.23 210.35 160.36 214.87 159.42 219.12 C 158.94 221.24 159.47 223.39 159.93 225.46 C 157.61 220.18 159.72 214.48 159.07 209.00 C 158.08 206.30 154.99 208.26 153.02 208.54 C 150.12 209.43 147.31 210.53 144.52 211.70 C 144.45 214.92 144.40 218.14 144.30 221.37 L 142.76 220.77 C 142.41 217.97 142.64 215.14 142.69 212.33 C 138.73 214.19 134.80 216.15 131.07 218.45 C 131.79 218.53 133.22 218.70 133.93 218.78 C 130.89 222.16 125.92 222.59 122.49 225.48 C 119.20 228.23 115.29 230.14 112.15 233.06 C 109.94 235.06 110.41 239.86 106.38 239.23 C 106.41 238.78 106.49 237.90 106.53 237.45 C 102.67 240.63 98.90 243.92 94.93 246.97 C 95.51 245.09 96.13 243.22 96.79 241.36 C 101.38 237.25 106.74 233.79 110.27 228.65 C 108.07 229.55 105.75 230.16 103.35 229.85 C 106.74 225.96 112.48 224.71 114.86 219.84 C 122.87 205.91 132.55 193.04 142.53 180.46 Z" />
<path fill="#3e3e3e" opacity="1.00" d=" M 74.46 181.83 C 79.12 179.94 83.91 178.39 88.75 177.04 C 88.57 181.40 87.61 185.68 87.43 190.04 C 87.20 191.12 87.59 192.62 86.52 193.35 C 83.63 195.51 80.45 197.23 77.38 199.12 C 76.15 193.40 75.84 187.52 74.46 181.83 Z" />
<path fill="#3e3e3e" opacity="1.00" d=" M 142.00 185.96 C 144.05 182.85 146.97 180.55 149.74 178.13 C 149.68 178.70 149.57 179.85 149.51 180.42 C 145.10 183.26 147.99 189.68 151.61 191.92 C 152.13 193.94 152.58 195.97 153.01 198.01 C 152.69 198.42 152.04 199.23 151.71 199.64 C 151.61 201.09 151.51 202.54 151.41 204.00 C 149.18 204.83 146.90 205.52 144.62 206.20 C 144.21 203.24 145.56 199.42 142.88 197.26 C 142.62 200.43 142.63 203.62 142.75 206.80 C 134.86 210.05 127.32 214.06 119.84 218.14 C 125.83 206.52 134.25 196.41 142.00 185.96 Z" />
<path fill="#3e3e3e" opacity="1.00" d=" M 61.97 186.46 C 64.45 185.62 66.91 184.76 69.41 184.01 C 70.41 190.35 72.00 196.60 72.79 202.98 C 73.17 204.73 71.02 205.29 70.02 206.22 C 69.35 202.11 68.01 198.15 67.01 194.12 C 66.37 193.98 65.09 193.70 64.45 193.56 C 63.51 191.23 62.68 188.86 61.97 186.46 Z" />
<path fill="#f4e4c0" opacity="1.00" d=" M 206.67 189.71 C 208.45 188.01 210.20 185.93 212.96 186.16 C 212.55 187.63 211.69 188.77 210.38 189.60 C 210.62 189.51 211.10 189.35 211.34 189.27 C 212.29 192.14 215.50 192.69 217.89 193.86 C 215.89 197.19 212.14 198.69 208.97 200.65 C 209.62 201.25 210.93 202.44 211.58 203.03 C 210.83 203.05 209.31 203.09 208.56 203.11 C 206.19 199.16 203.53 195.33 201.91 191.00 C 201.94 188.23 204.98 189.44 206.67 189.71 Z" />
<path fill="#f4e4c0" opacity="1.00" d=" M 193.00 190.90 C 194.17 189.83 195.50 189.51 196.99 189.94 C 199.65 194.23 202.21 198.61 204.38 203.19 C 202.35 204.06 200.15 204.40 197.96 204.57 C 198.98 202.99 200.13 201.50 201.28 200.01 C 199.04 198.72 196.76 197.48 194.31 196.63 C 194.92 196.18 196.15 195.28 196.77 194.83 C 195.51 193.51 194.25 192.20 193.00 190.90 Z" />
<path fill="#3e3e3e" opacity="1.00" d=" M 86.57 199.42 C 84.59 208.52 85.16 217.99 83.37 227.14 C 81.92 220.60 79.35 214.12 79.31 207.37 C 81.41 204.43 83.39 201.30 86.57 199.42 Z" />
<path fill="#f3722b" opacity="1.00" d=" M 222.15 202.09 C 223.30 200.23 226.03 200.66 227.63 201.60 C 231.52 204.64 234.13 208.93 236.90 212.94 C 235.11 213.11 232.75 214.51 231.72 212.32 C 229.03 208.45 225.48 205.37 222.15 202.09 Z" />
<path fill="#f4e4c0" opacity="1.00" d=" M 199.72 212.40 C 200.44 209.31 200.17 203.40 205.12 204.80 C 205.37 205.30 205.85 206.31 206.10 206.81 L 206.70 208.11 C 205.64 210.60 205.34 213.30 204.89 215.94 C 203.98 220.20 203.90 224.57 203.21 228.86 C 202.42 234.54 200.89 240.10 200.49 245.83 C 197.90 247.12 195.30 248.43 192.97 250.15 C 194.34 241.71 195.53 233.22 197.63 224.92 C 197.90 223.68 198.09 222.44 198.20 221.18 C 198.40 218.76 198.57 216.33 199.10 213.95 C 199.20 213.81 199.39 213.52 199.49 213.38 C 199.55 213.14 199.66 212.64 199.72 212.40 Z" />
<path fill="#f3722b" opacity="1.00" d=" M 185.85 206.81 C 187.66 205.36 190.27 205.75 192.12 206.89 C 180.53 213.68 171.42 223.73 162.58 233.67 C 162.04 234.26 161.49 234.86 160.95 235.46 C 159.76 235.27 158.57 235.09 157.39 234.91 L 156.18 234.73 C 156.33 234.29 156.63 233.42 156.78 232.99 C 158.38 231.36 159.93 229.69 161.42 227.96 C 168.91 220.21 177.25 213.30 185.85 206.81 Z" />
<path fill="#f3722b" opacity="1.00" d=" M 250.84 207.61 C 253.13 205.71 256.23 206.80 258.92 206.78 C 263.52 207.39 269.06 207.29 272.26 211.24 C 265.10 210.18 257.79 209.70 250.84 207.61 Z" />
<path fill="#f4e4c0" opacity="1.00" d=" M 153.02 208.54 C 154.99 208.26 158.08 206.30 159.07 209.00 C 159.72 214.48 157.61 220.18 159.93 225.46 C 160.30 226.09 161.05 227.34 161.42 227.96 C 159.93 229.69 158.38 231.36 156.78 232.99 C 155.36 231.18 153.71 229.55 152.46 227.61 C 151.45 222.97 153.28 218.42 154.64 214.06 C 155.39 212.00 153.92 210.24 153.02 208.54 Z" />
<path fill="#f3722b" opacity="1.00" d=" M 5.77 214.23 C 8.15 214.05 10.61 213.38 12.97 213.98 C 15.08 214.87 17.14 215.88 19.30 216.64 C 26.48 223.38 35.55 227.67 43.33 233.67 C 50.48 238.37 56.70 244.29 63.00 250.04 C 65.53 252.41 68.13 254.74 70.15 257.59 C 65.78 257.65 61.41 257.44 57.04 257.73 C 62.08 260.78 68.06 261.71 73.34 264.29 C 66.97 266.15 60.38 267.13 54.01 268.94 C 42.42 273.15 30.23 276.10 19.68 282.73 C 14.42 285.04 10.76 289.65 5.77 292.37 C 5.82 290.00 5.25 287.47 6.08 285.20 C 10.28 282.11 15.19 280.07 19.89 277.84 C 26.05 275.06 31.92 271.64 38.31 269.38 C 42.48 267.83 47.01 267.75 51.24 266.37 C 40.28 266.38 29.63 269.44 18.95 271.56 C 14.44 272.19 10.09 275.20 5.47 274.29 C 5.64 273.79 5.97 272.77 6.14 272.26 C 14.14 269.12 22.68 267.60 30.81 264.83 C 39.71 262.03 49.02 261.47 58.28 261.64 C 48.06 257.19 37.05 255.27 26.04 254.04 C 19.27 253.33 12.55 252.19 5.75 251.88 C 5.72 251.02 5.67 249.31 5.65 248.45 C 17.79 248.66 30.28 248.91 41.88 252.89 C 43.59 253.34 45.33 253.62 47.06 253.97 C 50.25 254.51 52.93 256.67 56.20 256.92 C 45.94 250.93 34.26 248.36 22.99 244.98 C 17.80 243.49 12.43 242.73 7.03 242.52 C 5.47 242.81 4.69 239.06 6.90 239.78 C 9.59 240.14 12.27 240.72 15.01 240.66 C 13.39 240.46 11.78 240.29 10.16 240.12 C 10.36 237.83 12.99 238.31 14.52 238.61 C 20.23 239.93 25.95 241.22 31.64 242.64 C 37.24 244.45 42.69 246.73 48.02 249.22 C 51.33 248.62 54.12 250.56 56.90 251.99 C 46.58 243.14 35.27 235.48 24.07 227.79 C 18.59 222.44 11.03 219.84 5.77 214.23 Z" />
<path fill="#3e3e3e" opacity="1.00" d=" M 195.25 216.28 C 196.11 214.93 197.74 214.57 199.10 213.95 C 198.57 216.33 198.40 218.76 198.20 221.18 C 197.46 221.23 195.96 221.31 195.21 221.36 C 191.31 229.00 187.82 236.85 184.85 244.90 C 182.10 244.90 179.31 244.60 177.22 242.63 C 178.86 241.11 180.41 239.45 181.42 237.43 C 185.36 229.97 190.12 222.97 195.25 216.28 Z" />
<path fill="#f4e4c0" opacity="1.00" d=" M 317.30 219.83 C 319.79 219.36 321.54 221.34 323.35 222.62 C 324.22 221.79 325.09 220.95 325.96 220.11 C 327.37 221.35 330.38 222.54 329.14 224.95 C 328.48 226.42 328.05 228.97 325.94 228.78 C 323.11 228.76 320.77 226.92 318.63 225.28 C 319.48 225.11 321.17 224.78 322.01 224.62 C 320.25 223.22 318.58 221.69 317.30 219.83 Z" />
<path fill="#f3722b" opacity="1.00" d=" M 371.08 221.56 C 377.34 220.62 383.69 221.40 389.85 222.64 C 393.54 223.54 397.32 224.65 400.41 226.93 L 400.30 227.62 C 399.70 227.84 398.49 228.27 397.89 228.48 C 401.69 232.15 407.97 234.28 408.55 240.27 C 404.95 239.93 403.28 236.33 400.49 234.52 C 388.66 226.02 373.49 222.59 359.08 224.54 C 354.35 225.34 349.54 225.43 344.81 226.23 C 344.47 226.01 343.80 225.58 343.46 225.37 C 352.44 222.80 361.79 221.97 371.08 221.56 Z" />
<path fill="#f3722b" opacity="1.00" d=" M 240.25 223.63 C 241.56 223.37 242.87 223.12 244.19 222.87 C 244.76 224.39 244.66 225.97 244.10 227.48 C 242.56 226.47 241.33 225.09 240.25 223.63 Z" />
<path fill="#f3722b" opacity="1.00" d=" M 226.06 226.57 C 229.65 225.82 233.24 225.03 236.83 224.24 C 237.55 225.67 238.26 227.10 239.00 228.53 C 235.57 229.40 232.17 230.36 228.79 231.41 C 227.61 229.95 226.60 228.37 226.06 226.57 Z" />
<path fill="#3e3e3e" opacity="1.00" d=" M 186.40 250.73 C 188.83 241.61 193.16 233.16 197.63 224.92 C 195.53 233.22 194.34 241.71 192.97 250.15 C 192.30 251.00 191.64 251.85 190.98 252.71 C 189.44 252.07 187.88 251.49 186.40 250.73 Z" />
<path fill="#f4e4c0" opacity="1.00" d=" M 139.74 225.55 C 140.31 225.92 141.45 226.66 142.01 227.02 C 142.70 230.12 142.65 233.31 142.69 236.47 C 144.06 236.94 145.41 237.53 146.84 237.83 C 148.85 236.87 150.64 235.21 153.02 235.34 C 151.72 237.30 149.81 238.70 148.16 240.34 C 148.31 242.43 151.41 242.47 152.75 243.74 C 151.90 243.84 150.22 244.04 149.38 244.13 C 146.43 243.23 143.34 242.92 140.68 244.76 C 140.08 244.87 138.89 245.09 138.29 245.20 L 137.18 244.43 C 137.95 244.16 139.50 243.62 140.27 243.35 C 134.39 242.62 128.35 242.22 122.70 240.34 C 122.25 239.91 121.35 239.05 120.90 238.62 C 127.01 238.58 133.29 242.00 139.19 238.97 C 136.57 234.85 132.33 232.00 130.22 227.54 C 131.99 227.10 133.40 228.29 134.46 229.49 C 136.66 231.90 138.65 234.49 140.78 236.96 C 140.78 233.13 140.31 229.33 139.74 225.55 Z" />
<path fill="#f4e4c0" opacity="1.00" d=" M 144.41 230.99 C 144.28 229.51 144.94 228.42 146.47 228.28 C 146.45 230.42 146.73 232.66 145.89 234.69 C 143.53 235.35 144.52 232.29 144.41 230.99 Z" />
<path fill="#f3722b" opacity="1.00" d=" M 215.87 229.06 C 217.40 228.75 218.94 228.45 220.49 228.15 C 221.17 229.82 221.84 231.49 222.52 233.15 C 220.99 233.59 219.47 234.03 217.95 234.47 C 217.24 232.67 216.55 230.87 215.87 229.06 Z" />
<path fill="#f3722b" opacity="1.00" d=" M 342.19 230.52 C 344.51 230.51 346.08 229.02 347.86 227.88 C 354.78 228.82 361.42 231.35 367.64 234.46 C 369.84 235.51 371.53 237.31 372.93 239.28 C 369.99 240.50 367.45 238.32 364.90 237.22 C 358.64 234.34 351.92 232.21 345.00 231.79 C 343.87 231.78 342.94 231.36 342.19 230.52 Z" />
<path fill="#3e3e3e" opacity="1.00" d=" M 81.72 241.24 C 80.47 237.20 80.31 232.94 80.62 228.76 C 81.76 232.01 81.50 235.52 82.17 238.88 C 82.40 239.71 81.98 240.48 81.72 241.24 Z" />
<path fill="#f3722b" opacity="1.00" d=" M 286.48 239.61 C 294.31 237.25 301.76 233.42 309.95 232.44 C 311.46 232.16 312.69 233.28 313.97 233.88 C 316.86 234.10 320.27 232.48 322.82 234.17 C 315.82 241.41 311.17 250.46 305.95 258.98 C 298.21 273.99 290.74 289.14 283.20 304.25 C 281.19 307.92 280.01 312.11 277.22 315.30 C 277.03 312.88 277.14 310.41 278.24 308.21 C 280.95 302.18 282.66 295.72 285.91 289.94 C 291.99 278.31 297.56 266.40 304.05 254.99 C 300.39 257.99 297.51 261.77 294.21 265.13 C 290.63 269.23 286.38 272.81 283.61 277.56 C 278.44 286.09 273.17 294.56 267.91 303.03 C 266.10 307.88 262.52 311.71 260.37 316.38 C 258.26 320.79 255.42 324.77 252.95 328.97 C 252.23 328.90 250.80 328.75 250.08 328.68 C 251.70 322.85 253.79 317.13 257.11 312.04 C 260.48 306.91 262.25 300.89 266.16 296.11 C 272.42 286.67 277.30 276.33 284.36 267.42 C 288.67 261.47 293.36 255.78 297.32 249.58 C 292.31 251.93 287.04 254.12 283.02 258.04 C 274.30 265.99 265.08 273.38 256.65 281.62 C 249.73 287.31 243.10 293.36 236.52 299.45 C 233.40 302.15 231.23 305.65 228.99 309.06 C 222.85 317.51 216.65 325.92 210.60 334.44 C 209.43 333.87 208.91 332.82 209.78 331.69 C 213.06 325.74 216.60 319.92 219.91 313.98 C 222.92 308.25 227.41 303.53 231.41 298.50 C 237.66 290.43 245.74 284.09 252.78 276.75 C 259.62 270.64 265.53 263.46 273.18 258.28 C 279.90 253.14 286.93 248.40 293.45 243.01 C 284.88 244.56 276.73 247.61 268.61 250.63 C 261.56 254.70 255.47 260.20 248.73 264.74 C 248.09 264.94 246.83 265.33 246.20 265.52 C 248.37 261.60 252.71 259.84 255.62 256.58 C 259.15 254.14 262.01 250.77 265.93 248.89 C 272.51 245.24 279.39 242.13 286.48 239.61 Z" />
<path fill="#f3722b" opacity="1.00" d=" M 334.99 232.98 C 336.65 232.67 338.33 232.51 340.02 232.34 C 345.30 235.37 351.04 237.53 356.19 240.79 C 363.96 246.20 370.81 253.14 375.18 261.61 C 375.76 264.01 375.40 266.55 375.85 268.99 C 375.18 268.93 373.84 268.81 373.17 268.75 C 372.14 266.87 371.10 264.98 369.77 263.30 C 360.92 252.78 351.11 242.60 338.69 236.33 C 337.26 235.45 335.10 235.00 334.99 232.98 Z" />
<path fill="#f4e4c0" opacity="1.00" d=" M 160.95 235.46 C 161.49 234.86 162.04 234.26 162.58 233.67 C 162.76 236.66 163.00 239.77 161.69 242.58 C 159.95 242.82 158.21 243.06 156.47 243.30 C 157.27 240.57 157.60 237.75 157.39 234.91 C 158.57 235.09 159.76 235.27 160.95 235.46 Z" />
<path fill="#f4e4c0" opacity="1.00" d=" M 88.64 244.06 C 92.11 241.10 95.51 238.07 98.94 235.07 C 98.24 237.17 97.52 239.27 96.79 241.36 C 96.13 243.22 95.51 245.09 94.93 246.97 L 94.54 248.21 C 99.75 246.89 104.94 245.52 110.13 244.15 C 104.43 248.77 97.72 252.04 92.23 256.89 C 94.77 257.61 97.37 258.05 99.97 258.49 C 94.18 262.67 88.04 266.33 82.21 270.45 C 81.16 268.01 80.05 265.60 78.85 263.24 C 74.75 261.82 69.82 261.75 66.28 259.31 C 69.46 259.73 72.67 260.06 75.87 259.55 C 73.30 254.42 69.05 249.74 68.54 243.84 C 73.05 245.82 77.50 247.92 81.95 250.02 C 83.40 248.71 84.86 247.40 86.33 246.11 C 87.11 245.44 87.87 244.75 88.64 244.06 Z" />
<path fill="#f3722b" opacity="1.00" d=" M 329.76 236.58 C 333.40 235.74 335.54 238.99 337.79 241.21 C 340.66 244.38 344.34 246.99 346.03 251.05 C 348.94 257.39 352.36 263.48 355.23 269.84 C 358.73 279.35 360.90 289.29 363.57 299.06 C 364.46 303.03 365.93 306.89 366.34 310.95 C 366.15 313.24 363.70 313.69 362.02 314.47 C 361.05 309.80 360.24 305.11 359.34 300.43 C 357.99 294.57 355.59 289.03 353.70 283.34 C 351.26 277.15 350.19 269.99 344.90 265.41 C 346.47 276.47 350.47 287.03 352.25 298.04 C 353.18 310.70 353.76 323.38 354.54 336.05 C 355.37 340.51 350.91 343.77 347.01 344.52 C 346.75 341.60 348.55 337.92 346.25 335.56 C 346.88 332.41 346.79 329.19 346.74 325.99 C 346.59 317.99 347.33 309.90 345.52 302.02 C 344.29 292.50 341.35 283.35 338.95 274.09 C 336.61 264.80 333.45 255.72 329.86 246.84 C 328.61 245.22 331.05 244.41 331.94 243.61 C 331.72 241.13 330.83 238.80 329.76 236.58 Z" />
<path fill="#f4e4c0" opacity="1.00" d=" M 318.86 241.71 C 320.42 241.58 322.00 241.54 323.58 241.60 C 322.93 245.55 320.58 249.01 320.28 253.02 C 320.08 255.81 319.25 258.48 318.45 261.15 C 318.24 263.84 319.10 266.62 318.33 269.27 C 317.60 271.00 316.41 272.47 315.37 274.02 C 315.83 278.72 316.34 283.71 314.36 288.16 C 312.97 290.96 315.20 294.03 314.10 296.90 C 313.10 300.28 310.96 303.14 309.55 306.34 C 309.35 310.18 310.26 314.04 309.59 317.87 C 309.24 320.82 307.28 323.25 306.67 326.12 C 306.46 330.07 307.31 334.09 306.36 337.99 C 304.25 345.21 304.24 352.81 302.23 360.07 L 301.74 360.93 C 301.27 366.44 299.86 371.88 300.40 377.46 C 300.18 377.46 299.74 377.44 299.52 377.43 C 299.55 383.54 297.76 389.51 298.24 395.67 C 297.59 395.02 296.94 394.37 296.31 393.71 C 296.38 386.41 298.44 379.32 298.67 372.03 C 298.79 369.32 299.41 366.67 299.87 364.01 C 300.39 358.58 302.40 353.44 302.81 348.01 C 303.10 345.04 304.53 341.76 302.72 339.01 C 303.89 335.09 303.39 331.01 303.25 327.00 C 303.08 323.67 305.65 321.07 306.30 317.93 C 306.92 314.23 306.62 310.43 305.68 306.82 C 306.75 304.46 308.27 302.34 309.29 299.97 C 310.30 296.05 309.26 292.04 308.80 288.15 C 310.73 284.39 312.12 280.22 311.30 275.96 C 310.17 271.35 316.92 268.96 315.19 264.23 C 314.34 261.63 314.25 258.95 316.41 256.97 C 316.56 254.98 316.63 252.92 315.65 251.11 C 317.62 248.34 318.48 245.04 318.86 241.71 Z" />
<path fill="#3e3e3e" opacity="1.00" d=" M 140.68 244.76 C 143.34 242.92 146.43 243.23 149.38 244.13 C 146.50 244.58 143.58 244.70 140.68 244.76 Z" />
<path fill="#3e3e3e" opacity="1.00" d=" M 161.31 248.38 C 168.95 247.89 176.44 245.36 184.14 246.10 C 183.45 247.86 183.78 251.16 181.11 251.03 C 175.06 251.41 168.99 251.37 162.93 251.49 C 162.39 250.45 161.85 249.42 161.31 248.38 Z" />
<path fill="#f3722b" opacity="1.00" d=" M 247.30 246.98 C 248.70 246.40 250.09 245.81 251.48 245.22 C 253.01 247.45 254.40 249.76 255.67 252.15 C 254.58 252.80 253.50 253.46 252.42 254.12 C 250.69 251.76 248.96 249.39 247.30 246.98 Z" />
<path fill="#f4e4c0" opacity="1.00" d=" M 156.62 248.90 C 158.18 248.72 159.74 248.55 161.31 248.38 C 161.85 249.42 162.39 250.45 162.93 251.49 C 161.26 251.39 159.58 251.29 157.91 251.19 C 157.59 250.62 156.94 249.47 156.62 248.90 Z" />
<path fill="#f3722b" opacity="1.00" d=" M 240.28 249.74 C 241.87 249.18 243.46 248.62 245.05 248.05 C 245.60 248.88 246.19 249.68 246.80 250.48 C 246.32 250.61 245.35 250.88 244.86 251.01 C 245.89 253.41 247.10 255.74 248.45 257.98 C 247.42 258.94 246.39 259.90 245.36 260.86 C 244.01 257.01 242.27 253.31 240.28 249.74 Z" />
<path fill="#f4e4c0" opacity="1.00" d=" M 192.41 253.20 C 194.76 251.85 197.21 250.70 199.72 249.67 C 199.61 251.06 199.51 252.46 199.41 253.85 C 197.08 253.63 194.74 253.45 192.41 253.20 Z" />
<path fill="#f4e4c0" opacity="1.00" d=" M 159.33 254.77 C 161.00 254.85 162.68 254.95 164.36 255.04 C 164.45 255.63 164.61 256.81 164.70 257.40 C 165.33 257.63 166.59 258.07 167.22 258.30 C 164.98 261.39 162.96 264.72 162.54 268.60 C 161.40 268.21 160.26 267.84 159.12 267.47 C 159.69 263.26 159.69 259.00 159.33 254.77 Z" />
<path fill="#3e3e3e" opacity="1.00" d=" M 164.36 255.04 C 169.82 255.08 175.31 255.26 180.64 256.61 C 179.11 262.36 176.70 267.90 175.99 273.85 C 177.36 273.71 178.74 273.61 180.13 273.54 C 180.83 267.99 182.51 262.65 183.76 257.21 C 186.47 257.23 189.18 257.29 191.88 257.54 C 191.53 260.87 190.83 264.17 190.73 267.52 C 191.24 267.82 192.26 268.42 192.77 268.73 C 192.57 275.46 191.67 282.13 190.72 288.79 C 190.28 291.81 189.87 295.11 187.40 297.23 C 188.46 297.89 189.54 298.51 190.64 299.11 C 190.41 299.17 189.94 299.29 189.71 299.36 C 188.23 300.49 186.62 301.43 184.88 302.11 C 185.57 301.59 186.95 300.56 187.64 300.04 C 187.04 299.48 186.43 298.93 185.83 298.37 C 185.27 298.78 184.15 299.60 183.58 300.01 C 185.62 296.99 188.07 294.21 189.33 290.74 C 185.99 292.23 183.79 295.23 181.24 297.71 C 180.13 296.63 179.03 295.55 177.94 294.45 C 177.53 292.73 176.93 291.05 174.99 290.62 C 173.84 294.18 173.04 297.87 173.38 301.63 C 171.01 299.12 168.04 297.18 165.93 294.44 C 165.38 288.59 165.31 282.70 165.09 276.83 C 169.29 278.97 173.95 279.94 178.42 281.34 C 180.57 282.35 182.29 280.33 183.97 279.33 C 177.30 274.90 169.95 271.57 162.54 268.60 C 162.96 264.72 164.98 261.39 167.22 258.30 C 166.59 258.07 165.33 257.63 164.70 257.40 C 164.61 256.81 164.45 255.63 164.36 255.04 Z" />
<path fill="#f4e4c0" opacity="1.00" d=" M 191.88 257.54 C 193.54 257.72 195.20 257.93 196.85 258.25 C 197.32 258.53 198.25 259.09 198.72 259.37 C 197.88 264.21 197.12 269.10 197.30 274.04 C 197.68 280.14 195.61 286.00 195.22 292.05 C 197.45 290.44 199.84 288.77 202.75 288.99 C 200.15 291.08 196.64 292.11 194.69 294.92 C 194.46 296.44 194.31 297.98 194.21 299.52 C 202.70 297.05 211.67 295.70 220.49 296.94 L 220.33 298.01 C 211.56 298.33 202.87 300.32 194.28 302.14 C 194.04 307.48 193.56 312.87 192.68 318.15 C 192.86 318.56 193.23 319.39 193.42 319.81 C 193.05 321.73 192.69 323.66 192.37 325.60 C 190.79 325.68 189.21 325.75 187.63 325.83 C 187.39 325.14 186.91 323.77 186.68 323.09 C 187.80 316.83 188.68 310.42 188.23 304.04 C 184.50 305.62 180.53 306.94 177.97 310.29 C 174.77 309.47 172.14 307.23 169.21 305.76 C 170.01 304.86 171.07 304.28 172.09 303.65 C 170.11 301.79 168.15 299.91 166.17 298.05 C 166.16 302.23 166.67 306.47 165.72 310.60 C 165.70 311.30 165.67 312.69 165.65 313.39 C 166.32 313.79 166.98 314.20 167.65 314.61 C 166.73 315.54 166.31 316.65 166.38 317.92 C 165.00 316.23 163.73 314.46 162.52 312.66 C 162.51 312.09 162.50 310.95 162.50 310.38 L 164.37 310.41 C 163.98 309.83 163.20 308.66 162.81 308.08 C 162.57 303.82 162.59 299.55 162.47 295.28 C 158.19 291.52 152.54 289.73 148.50 285.66 C 153.70 286.43 157.14 291.17 162.33 292.12 C 162.11 289.20 161.81 286.29 161.65 283.37 C 162.05 283.21 162.85 282.90 163.25 282.75 C 162.64 282.22 162.03 281.71 161.41 281.21 C 161.33 279.08 161.22 276.95 161.10 274.82 C 162.44 275.47 163.76 276.16 165.09 276.83 C 165.31 282.70 165.38 288.59 165.93 294.44 C 168.04 297.18 171.01 299.12 173.38 301.63 C 173.04 297.87 173.84 294.18 174.99 290.62 C 176.93 291.05 177.53 292.73 177.94 294.45 C 179.03 295.55 180.13 296.63 181.24 297.71 C 183.79 295.23 185.99 292.23 189.33 290.74 C 188.07 294.21 185.62 296.99 183.58 300.01 C 184.15 299.60 185.27 298.78 185.83 298.37 C 186.43 298.93 187.04 299.48 187.64 300.04 C 186.95 300.56 185.57 301.59 184.88 302.11 C 186.62 301.43 188.23 300.49 189.71 299.36 C 189.94 299.29 190.41 299.17 190.64 299.11 C 189.54 298.51 188.46 297.89 187.40 297.23 C 189.87 295.11 190.28 291.81 190.72 288.79 C 191.67 282.13 192.57 275.46 192.77 268.73 C 192.26 268.42 191.24 267.82 190.73 267.52 C 190.83 264.17 191.53 260.87 191.88 257.54 Z" />
<path fill="#f3722b" opacity="1.00" d=" M 96.97 265.27 C 100.35 263.40 103.39 260.80 107.07 259.55 C 124.73 258.46 142.50 261.54 159.12 267.47 C 160.26 267.84 161.40 268.21 162.54 268.60 C 169.95 271.57 177.30 274.90 183.97 279.33 C 182.29 280.33 180.57 282.35 178.42 281.34 C 173.95 279.94 169.29 278.97 165.09 276.83 C 163.76 276.16 162.44 275.47 161.10 274.82 C 155.03 271.75 148.30 270.52 141.97 268.17 C 136.36 265.98 130.30 265.03 124.29 265.24 C 127.29 266.97 130.69 267.77 134.10 268.21 C 138.48 268.73 142.40 270.86 146.47 272.40 C 152.01 274.31 156.38 278.36 161.41 281.21 C 162.03 281.71 162.64 282.22 163.25 282.75 C 162.85 282.90 162.05 283.21 161.65 283.37 C 157.00 283.54 153.10 280.81 148.95 279.17 C 143.48 276.97 138.33 273.97 132.59 272.48 C 125.33 270.55 118.01 268.68 110.50 267.99 C 114.16 271.78 116.54 276.51 118.86 281.18 C 123.66 283.13 128.08 285.85 132.45 288.60 C 142.92 294.51 153.20 300.84 162.81 308.08 C 163.20 308.66 163.98 309.83 164.37 310.41 L 162.50 310.38 C 159.41 307.01 155.62 304.34 151.47 302.44 C 154.87 306.14 159.01 309.06 162.52 312.66 C 163.73 314.46 165.00 316.23 166.38 317.92 C 169.77 321.50 172.37 325.72 175.65 329.40 C 177.13 331.18 178.94 332.90 179.26 335.33 C 174.00 331.26 170.72 325.12 166.28 320.20 C 165.08 318.85 163.84 317.54 162.65 316.18 C 156.97 307.90 148.13 302.72 140.60 296.33 C 129.57 289.48 118.68 281.69 105.87 278.59 C 107.49 275.39 111.52 278.50 114.01 278.96 C 109.82 272.81 103.51 268.58 96.97 265.27 Z" />
<path fill="#f3722b" opacity="1.00" d=" M 260.23 261.17 C 262.76 260.50 261.91 264.64 259.83 264.22 C 258.12 263.88 258.83 261.41 260.23 261.17 Z" />
<path fill="#3e3e3e" opacity="1.00" d=" M 124.29 265.24 C 130.30 265.03 136.36 265.98 141.97 268.17 C 148.30 270.52 155.03 271.75 161.10 274.82 C 161.22 276.95 161.33 279.08 161.41 281.21 C 156.38 278.36 152.01 274.31 146.47 272.40 C 142.40 270.86 138.48 268.73 134.10 268.21 C 130.69 267.77 127.29 266.97 124.29 265.24 Z" />
<path fill="#f3722b" opacity="1.00" d=" M 250.34 272.68 C 247.82 269.75 251.98 268.10 253.97 266.73 C 254.18 267.30 254.60 268.45 254.81 269.02 C 253.36 270.19 252.43 272.78 250.34 272.68 Z" />
<path fill="#3e3e3e" opacity="1.00" d=" M 110.50 267.99 C 118.01 268.68 125.33 270.55 132.59 272.48 C 138.33 273.97 143.48 276.97 148.95 279.17 C 153.10 280.81 157.00 283.54 161.65 283.37 C 161.81 286.29 162.11 289.20 162.33 292.12 C 157.14 291.17 153.70 286.43 148.50 285.66 C 152.54 289.73 158.19 291.52 162.47 295.28 C 162.59 299.55 162.57 303.82 162.81 308.08 C 153.20 300.84 142.92 294.51 132.45 288.60 C 128.08 285.85 123.66 283.13 118.86 281.18 C 116.54 276.51 114.16 271.78 110.50 267.99 Z" />
<path fill="#f3722b" opacity="1.00" d=" M 66.32 271.19 C 68.81 269.49 71.94 269.61 74.82 269.59 C 72.50 272.44 69.02 273.89 66.30 276.28 C 64.21 277.91 62.71 280.10 61.00 282.09 C 47.90 292.19 37.47 305.47 28.94 319.57 C 28.31 319.73 27.05 320.05 26.42 320.20 C 27.66 315.95 30.58 312.56 33.04 308.98 C 37.74 302.20 42.82 295.60 48.96 290.05 C 44.08 289.64 40.93 293.69 37.41 296.34 C 30.20 301.81 24.65 309.06 18.94 315.99 C 15.75 319.73 13.47 324.20 9.73 327.46 C 8.50 326.62 7.22 325.85 6.06 324.93 C 5.95 322.82 7.45 321.20 8.53 319.56 C 12.63 313.97 16.35 308.06 21.00 302.89 C 22.63 300.85 25.61 301.19 27.56 299.63 C 31.34 296.74 34.60 293.21 38.61 290.61 C 42.07 288.48 44.55 285.15 48.02 283.03 C 54.08 279.03 60.13 275.00 66.32 271.19 Z" />
<path fill="#f3722b" opacity="1.00" d=" M 88.49 269.74 C 94.51 270.02 97.56 275.89 100.75 280.15 C 105.50 288.47 109.65 297.15 112.99 306.13 C 117.06 315.18 119.98 324.71 122.06 334.39 C 121.51 334.47 120.40 334.62 119.84 334.70 C 119.41 335.27 118.55 336.42 118.11 337.00 L 116.72 336.34 C 114.39 324.75 110.96 313.36 106.48 302.42 C 103.53 293.44 98.43 285.43 93.65 277.36 C 92.22 274.59 89.04 272.96 88.49 269.74 Z" />
<path fill="#f3722b" opacity="1.00" d=" M 71.60 274.61 C 72.78 272.73 75.00 273.87 76.76 273.91 C 76.62 277.04 76.59 280.28 75.16 283.15 C 70.67 293.49 67.39 304.28 64.10 315.04 C 60.58 330.95 57.13 346.89 54.83 363.03 C 53.23 377.07 51.09 391.04 48.92 405.00 C 47.62 404.33 46.33 403.67 45.04 403.01 C 44.52 392.40 43.26 381.83 43.28 371.21 C 44.39 371.01 45.51 370.82 46.62 370.61 C 49.41 358.13 51.99 345.57 53.83 332.91 C 49.71 344.85 44.52 356.48 41.61 368.80 C 40.93 368.76 39.56 368.68 38.88 368.64 C 36.93 371.94 35.00 375.30 33.98 379.03 C 30.92 389.42 28.08 399.88 25.04 410.28 C 23.85 409.23 22.67 408.18 21.49 407.13 C 24.54 393.55 27.40 379.93 30.62 366.40 C 35.60 352.34 40.89 338.37 45.94 324.33 C 44.26 322.26 42.63 320.16 41.01 318.04 C 45.26 310.63 49.27 303.06 53.78 295.81 C 59.62 288.67 65.55 281.58 71.60 274.61 Z" />
<path fill="#f3722b" opacity="1.00" d=" M 81.85 276.54 C 84.43 277.11 86.99 277.78 89.53 278.53 C 93.25 288.04 97.46 297.36 100.63 307.07 C 103.86 316.53 107.29 325.92 110.40 335.41 C 112.69 344.91 114.71 354.48 116.97 363.99 C 119.09 374.65 120.06 385.49 121.46 396.26 C 120.73 396.05 119.27 395.61 118.53 395.39 C 113.63 388.21 113.60 379.21 112.03 370.95 C 111.28 370.32 110.54 369.69 109.80 369.06 C 110.25 358.94 106.74 349.28 104.61 339.52 C 101.14 324.63 96.66 309.95 90.44 295.96 C 90.76 304.00 90.07 312.09 91.14 320.09 C 92.09 329.04 93.23 338.00 93.19 347.01 C 94.88 361.44 92.51 375.91 91.97 390.34 C 90.32 388.96 88.00 388.01 87.05 386.00 C 85.81 380.08 85.87 374.00 85.60 367.99 C 85.00 354.33 84.68 340.66 85.01 327.00 C 85.59 314.62 84.80 302.25 84.49 289.88 C 83.97 285.37 82.41 281.05 81.85 276.54 Z" />
<path fill="#f3722b" opacity="1.00" d=" M 377.34 279.40 C 380.48 278.29 381.86 281.68 382.63 284.06 C 383.53 287.24 384.37 290.59 384.09 293.92 C 383.81 295.72 381.31 295.56 380.07 295.02 C 378.65 293.44 379.00 291.03 378.48 289.09 C 378.14 285.99 376.48 283.05 376.67 279.92 L 377.34 279.40 Z" />
<path fill="#f3722b" opacity="1.00" d=" M 256.57 288.69 C 257.49 287.57 258.54 286.56 259.75 285.75 C 260.83 288.43 262.36 291.02 262.75 293.92 C 262.38 295.44 261.37 296.69 260.63 298.04 C 257.94 295.69 258.10 291.72 256.57 288.69 Z" />
<path fill="#f3722b" opacity="1.00" d=" M 236.72 307.75 C 239.02 304.44 242.05 301.72 244.98 298.98 C 245.31 300.55 245.64 302.12 245.98 303.69 C 245.35 303.62 244.10 303.47 243.47 303.39 C 243.10 306.26 243.26 309.15 243.35 312.03 C 242.51 312.67 241.66 313.29 240.81 313.90 C 240.72 316.69 240.67 319.48 240.64 322.27 C 239.99 322.11 238.67 321.78 238.02 321.62 C 236.97 317.12 235.58 312.34 236.72 307.75 Z" />
<path fill="#3e3e3e" opacity="1.00" d=" M 151.47 302.44 C 155.62 304.34 159.41 307.01 162.50 310.38 C 162.50 310.95 162.51 312.09 162.52 312.66 C 159.01 309.06 154.87 306.14 151.47 302.44 Z" />
<path fill="#f3722b" opacity="1.00" d=" M 268.35 308.98 C 269.99 313.60 271.65 318.23 272.43 323.10 C 272.86 326.03 274.48 328.90 273.76 331.91 C 272.19 331.90 270.74 331.21 269.29 330.72 C 269.92 325.60 267.50 320.90 266.54 316.00 C 265.87 313.48 267.43 311.20 268.35 308.98 Z" />
<path fill="#f3722b" opacity="1.00" d=" M 165.72 310.60 C 170.67 314.90 175.94 318.82 180.84 323.19 C 180.14 323.39 178.72 323.80 178.02 324.00 C 175.66 319.84 171.47 317.26 167.65 314.61 C 166.98 314.20 166.32 313.79 165.65 313.39 C 165.67 312.69 165.70 311.30 165.72 310.60 Z" />
<path fill="#f4e4c0" opacity="1.00" d=" M 162.65 316.18 C 163.84 317.54 165.08 318.85 166.28 320.20 C 166.70 330.35 166.19 340.51 166.63 350.66 C 168.83 358.22 166.64 366.51 169.32 373.92 C 169.29 379.30 168.49 384.65 168.59 390.05 C 168.33 392.92 169.27 396.03 167.82 398.69 C 167.73 400.94 167.61 403.33 165.65 404.81 C 165.57 406.45 165.50 408.10 165.45 409.76 C 163.97 409.84 162.50 409.92 161.03 410.01 C 161.37 409.55 162.05 408.64 162.38 408.18 C 162.51 405.42 163.02 402.71 163.31 399.98 C 163.63 380.99 163.67 361.99 163.14 343.00 C 162.27 334.09 162.47 325.12 162.65 316.18 Z" />
<path fill="#f4e4c0" opacity="1.00" d=" M 186.01 333.85 C 185.67 330.39 189.22 330.18 191.64 331.18 C 191.86 333.11 191.65 335.05 191.54 336.99 C 189.64 336.02 187.81 334.97 186.01 333.85 Z" />
<path fill="#f3722b" opacity="1.00" d=" M 366.49 331.31 C 367.45 329.95 370.22 331.34 369.07 332.88 C 368.09 334.17 365.44 332.81 366.49 331.31 Z" />
<path fill="#f4e4c0" opacity="1.00" d=" M 184.91 338.16 C 186.69 339.26 188.40 340.49 189.99 341.85 C 188.30 342.63 186.42 345.45 184.60 343.56 C 184.53 341.75 184.75 339.96 184.91 338.16 Z" />
<path fill="#f3722b" opacity="1.00" d=" M 241.21 358.23 C 237.45 353.52 241.47 347.69 243.87 343.33 C 246.30 342.43 245.82 345.70 245.81 347.03 C 245.44 351.11 243.54 354.92 241.21 358.23 Z" />
<path fill="#f4e4c0" opacity="1.00" d=" M 184.15 352.84 C 186.02 350.91 188.04 349.08 190.52 347.97 C 190.45 350.99 189.26 354.07 190.26 357.06 C 191.26 360.44 189.20 363.77 189.57 367.22 C 187.96 367.17 186.36 367.11 184.75 367.04 C 184.78 364.29 184.13 361.63 183.53 358.98 C 183.99 356.95 184.81 354.93 184.15 352.84 Z" />
<path fill="#f3722b" opacity="1.00" d=" M 128.34 361.31 C 132.54 360.46 134.39 364.68 135.24 368.01 C 136.03 371.65 136.81 375.31 137.13 379.03 C 137.15 381.67 134.20 381.82 132.31 381.23 C 132.88 374.33 130.63 367.70 128.34 361.31 Z" />
<path fill="#f3722b" opacity="1.00" d=" M 342.43 370.36 C 343.03 370.28 344.23 370.12 344.83 370.04 C 344.88 377.91 341.59 385.22 340.08 392.83 C 339.46 392.96 338.22 393.23 337.60 393.36 C 336.77 388.59 339.47 384.41 340.51 379.93 C 341.37 376.78 341.48 373.48 342.43 370.36 Z" />
<path fill="#f3722b" opacity="1.00" d=" M 354.70 380.14 C 355.22 380.16 356.27 380.22 356.80 380.25 C 355.89 383.47 354.88 386.88 352.11 389.03 C 352.72 385.98 354.32 383.24 354.70 380.14 Z" />
<path fill="#f3722b" opacity="1.00" d=" M 102.02 388.79 C 102.76 388.89 104.23 389.09 104.96 389.19 C 106.66 392.15 107.03 395.73 108.00 399.00 C 102.91 399.34 102.44 392.51 102.02 388.79 Z" />
<path fill="#f4e4c0" opacity="1.00" d=" M 295.57 396.05 C 296.10 396.05 297.18 396.04 297.71 396.04 C 297.38 399.28 296.23 402.35 295.13 405.39 C 294.81 406.79 293.11 406.69 292.08 407.22 C 293.83 403.73 295.96 400.11 295.57 396.05 Z" />
</svg>
