<?xml version="1.0" encoding="UTF-8" ?>
<!DOCTYPE svg PUBLIC "-//W3C//DTD SVG 1.1//EN" "http://www.w3.org/Graphics/SVG/1.1/DTD/svg11.dtd">
<svg width="512pt" height="512pt" viewBox="0 0 512 512" version="1.1" xmlns="http://www.w3.org/2000/svg">
<path fill="#3e3e3e" opacity="1.00" d=" M 0.00 0.00 L 148.38 0.00 C 103.00 18.86 62.63 49.71 32.94 88.91 C 19.86 106.14 8.69 124.85 0.00 144.66 L 0.00 0.00 Z" />
<path fill="#f4722b" opacity="1.00" d=" M 148.38 0.00 L 360.80 0.00 C 411.20 20.52 455.14 56.41 485.59 101.49 C 495.99 116.82 504.79 133.21 512.00 150.27 L 512.00 364.97 C 485.42 429.77 433.09 483.36 369.23 512.00 L 140.68 512.00 C 78.47 484.57 27.44 433.10 0.00 370.94 L 0.00 144.66 C 8.69 124.85 19.86 106.14 32.94 88.91 C 62.63 49.71 103.00 18.86 148.38 0.00 Z" />
<path fill="#3e3e3e" opacity="1.00" d=" M 360.80 0.00 L 512.00 0.00 L 512.00 150.27 C 504.79 133.21 495.99 116.82 485.59 101.49 C 455.14 56.41 411.20 20.52 360.80 0.00 Z" />
<path fill="#3e3e3e" opacity="1.00" d=" M 263.79 20.16 C 299.52 20.15 335.22 28.73 367.11 44.83 C 417.49 70.01 457.75 114.65 477.49 167.41 C 487.37 193.50 492.39 221.40 492.43 249.28 C 416.22 249.26 340.01 249.29 263.80 249.27 C 263.79 172.90 263.80 96.53 263.79 20.16 Z" />
<path fill="#3e3e3e" opacity="1.00" d=" M 186.35 32.39 C 205.68 25.83 225.89 22.08 246.22 20.46 C 246.22 96.73 246.23 173.00 246.21 249.27 C 171.86 249.28 97.50 249.28 23.14 249.27 C 24.74 202.73 40.90 156.93 68.25 119.30 C 97.34 79.02 139.20 48.10 186.35 32.39 Z" />
<path fill="#f5e5c1" opacity="1.00" d=" M 154.46 53.53 C 161.87 50.29 169.96 49.35 177.78 47.55 C 183.73 45.99 189.90 46.71 195.97 46.55 C 206.45 46.22 216.89 48.68 226.34 53.16 C 219.79 56.26 213.39 60.13 208.81 65.86 C 206.04 69.36 203.24 72.83 200.36 76.24 C 201.71 77.21 203.07 78.18 204.44 79.13 C 209.73 72.31 217.24 67.95 224.49 63.55 C 229.60 61.41 235.22 61.01 240.53 59.56 C 240.53 63.16 240.62 66.75 240.66 70.35 C 234.88 72.60 228.29 72.42 222.97 75.84 C 216.95 79.03 210.34 82.73 207.66 89.35 C 205.28 98.09 201.55 106.73 201.93 115.96 C 202.45 123.43 204.14 130.74 205.48 138.09 C 206.29 143.05 209.15 147.28 211.42 151.66 C 215.75 158.69 220.11 165.94 226.64 171.18 C 231.33 173.39 236.46 174.51 241.23 176.55 C 241.22 178.91 241.23 181.27 241.24 183.63 C 235.79 183.04 230.41 181.87 224.96 181.43 C 223.87 182.15 222.87 182.98 221.96 183.93 C 224.65 186.92 227.13 190.16 230.22 192.77 C 233.71 195.08 237.73 196.43 241.33 198.55 C 241.19 212.46 241.34 226.38 241.34 240.29 C 224.13 240.24 206.93 240.37 189.72 240.23 C 192.71 239.44 195.68 238.54 198.54 237.33 C 195.00 228.58 192.01 219.50 187.31 211.29 C 181.73 213.35 175.99 214.95 170.36 216.83 C 170.15 217.07 169.72 217.55 169.51 217.79 C 171.86 225.44 174.88 232.85 177.91 240.25 C 153.03 240.20 128.12 240.72 103.25 239.83 C 102.56 237.66 101.89 235.49 101.21 233.32 C 111.51 233.40 121.90 234.60 132.09 232.54 C 144.73 231.03 156.46 223.92 164.28 214.00 C 160.37 214.96 158.09 218.88 154.13 219.89 C 141.40 225.99 126.80 226.37 113.03 224.55 C 104.33 223.94 96.54 219.63 88.63 216.35 C 80.31 211.58 74.70 203.02 71.81 194.02 C 68.70 183.27 65.98 172.28 65.56 161.05 C 66.14 148.62 66.98 135.58 73.48 124.61 C 76.59 116.65 82.62 110.51 88.50 104.54 C 91.80 101.70 95.75 99.78 99.38 97.43 C 105.53 93.82 111.55 89.17 118.97 88.82 C 125.72 89.17 132.46 90.23 138.89 92.40 C 141.12 93.48 143.21 92.47 144.94 90.97 C 140.70 88.54 136.44 86.14 132.06 83.97 C 127.92 82.35 123.40 82.18 119.05 81.49 C 128.16 69.37 139.84 58.43 154.46 53.53 Z" />
<path fill="#f5e5c1" opacity="1.00" d=" M 364.60 68.51 C 370.57 65.27 377.69 66.12 384.14 67.01 C 391.80 69.79 399.08 74.38 403.84 81.11 C 405.98 85.54 408.49 89.99 409.06 94.97 C 409.86 99.31 408.91 103.69 408.22 107.98 C 407.36 112.86 403.22 116.27 401.83 120.94 C 400.97 125.17 401.69 129.49 402.31 133.69 C 410.10 134.45 418.02 134.90 425.48 137.46 C 430.16 139.19 435.24 139.90 439.56 142.49 C 442.08 144.00 444.68 145.38 447.33 146.66 C 451.63 148.49 454.01 152.84 458.03 155.13 C 460.18 158.42 461.88 161.99 463.16 165.70 C 465.17 171.43 467.73 177.00 468.98 182.98 C 471.45 193.68 474.11 204.34 476.55 215.04 C 477.21 216.90 476.15 218.62 474.81 219.82 C 470.50 223.85 467.36 229.16 462.05 232.05 C 456.32 235.24 450.95 239.98 444.09 240.23 C 406.27 240.44 368.44 240.41 330.62 240.21 C 330.11 227.45 328.87 214.72 328.49 201.96 C 327.84 191.69 331.89 182.00 335.36 172.57 C 338.16 162.79 345.27 155.03 353.47 149.35 C 359.29 144.92 367.66 146.06 373.12 141.02 C 371.81 136.55 370.44 132.09 369.04 127.65 C 365.28 127.08 362.02 125.11 359.00 122.92 C 355.63 120.41 351.22 118.59 349.79 114.29 C 345.93 107.27 344.26 98.98 345.84 91.08 C 347.19 86.37 347.82 81.07 351.48 77.45 C 354.86 73.21 359.88 70.92 364.60 68.51 Z" />
<path fill="#f5e5c1" opacity="1.00" d=" M 272.26 69.33 C 278.25 72.04 283.28 76.44 288.38 80.50 C 294.86 87.97 301.87 95.59 304.89 105.22 C 308.56 115.38 309.31 126.33 309.02 137.05 C 308.38 145.65 308.18 154.61 304.41 162.53 C 303.07 165.94 301.82 169.49 299.33 172.28 C 296.04 176.01 292.90 180.15 288.38 182.47 C 283.08 185.06 277.24 186.37 271.37 186.73 C 271.46 184.13 271.01 181.41 271.94 178.92 C 277.59 176.69 284.47 176.54 288.92 171.90 C 291.85 168.87 295.55 166.34 297.22 162.33 C 298.48 159.30 300.38 156.43 300.81 153.13 C 301.37 142.11 301.81 131.04 301.21 120.02 C 299.67 114.37 297.50 108.89 295.39 103.44 C 292.61 98.45 288.91 94.04 285.77 89.29 C 282.47 84.20 276.75 81.58 272.54 77.40 C 271.83 74.80 272.31 72.01 272.26 69.33 Z" />
<path fill="#3e3e3e" opacity="1.00" d=" M 357.86 78.73 C 367.20 71.64 380.70 71.63 390.71 77.37 C 395.32 80.29 400.16 83.97 401.15 89.71 C 404.87 99.36 401.05 109.91 395.59 118.08 C 395.30 125.48 395.90 132.93 395.26 140.30 C 392.88 144.28 388.15 145.95 383.83 146.83 C 382.76 145.79 381.34 145.00 380.71 143.59 C 377.89 136.77 375.95 129.59 372.98 122.83 C 370.50 120.44 366.86 119.69 363.84 118.14 C 360.25 116.57 357.14 114.15 353.90 112.00 C 352.64 106.38 349.63 100.79 351.20 94.92 C 352.27 89.21 352.74 82.44 357.86 78.73 Z" />
<path fill="#f5e5c1" opacity="1.00" d=" M 216.66 83.58 C 223.71 78.91 232.15 76.59 240.57 76.29 C 240.59 78.91 240.60 81.53 240.63 84.15 C 232.95 81.31 224.43 80.68 216.66 83.58 Z" />
<path fill="#f5e5c1" opacity="1.00" d=" M 370.44 81.60 C 374.71 80.61 378.87 82.36 382.99 83.21 C 389.33 84.16 392.75 90.36 395.59 95.44 C 398.37 99.42 395.66 104.15 393.86 107.93 C 389.40 113.50 381.83 116.51 374.76 115.21 C 369.61 114.03 364.50 111.98 360.75 108.14 C 356.35 102.81 356.24 94.72 359.90 88.96 C 362.03 84.98 366.24 82.75 370.44 81.60 Z" />
<path fill="#f5e5c1" opacity="1.00" d=" M 272.31 87.25 C 284.28 98.04 292.08 113.03 294.59 128.91 C 295.58 140.57 292.43 152.13 287.41 162.54 C 286.74 163.25 286.03 163.92 285.29 164.55 C 286.09 161.15 287.49 157.95 288.42 154.59 C 290.17 146.52 290.64 138.15 288.82 130.04 C 287.71 122.45 282.34 116.68 278.93 110.10 C 277.23 106.70 274.22 104.22 272.40 100.93 C 271.97 96.39 272.28 91.81 272.31 87.25 Z" />
<path fill="#3e3e3e" opacity="1.00" d=" M 115.36 99.47 C 121.56 97.44 127.80 100.04 133.92 101.02 C 136.94 101.43 139.24 103.57 141.60 105.29 C 146.50 109.00 151.88 112.83 154.34 118.69 C 157.87 125.84 162.28 132.85 163.21 140.94 C 164.20 148.25 165.78 155.66 164.63 163.03 C 164.35 166.86 164.88 170.73 164.30 174.54 C 161.71 184.26 158.15 193.88 152.18 202.06 C 143.03 210.97 131.27 218.69 118.00 218.20 C 111.73 217.46 105.06 216.96 99.62 213.42 C 95.29 210.76 90.20 209.13 86.51 205.53 C 81.34 197.70 76.01 189.50 74.79 179.97 C 74.39 175.63 73.31 171.37 73.29 167.00 C 73.28 157.44 72.11 147.57 75.41 138.37 C 77.92 132.09 80.53 125.80 84.07 120.02 C 91.36 109.40 103.49 103.51 115.36 99.47 Z" />
<path fill="#f5e5c1" opacity="1.00" d=" M 98.92 116.88 C 104.90 112.73 112.03 110.89 118.33 107.33 C 109.55 115.82 99.56 123.81 94.63 135.34 C 92.45 142.39 89.72 149.52 90.08 157.02 C 89.78 164.47 91.27 171.81 92.36 179.14 C 93.53 184.80 94.35 190.69 97.24 195.80 C 99.71 200.15 103.06 204.11 107.41 206.66 C 110.11 208.40 113.44 208.43 116.48 209.20 C 110.07 210.39 103.52 208.23 98.04 205.03 C 92.73 200.02 89.04 193.43 86.34 186.71 C 84.11 178.57 82.78 170.19 82.23 161.77 C 81.60 156.43 81.39 150.97 82.84 145.74 C 84.33 140.31 85.01 134.58 87.50 129.49 C 90.49 124.66 93.76 119.62 98.92 116.88 Z" />
<path fill="#f5e5c1" opacity="1.00" d=" M 291.17 191.18 C 295.75 187.26 299.96 182.85 303.14 177.70 C 304.39 198.61 306.18 219.48 307.60 240.39 C 295.53 240.22 283.47 240.41 271.41 240.38 C 273.01 226.64 271.91 212.76 272.21 198.95 C 279.03 197.86 285.75 195.57 291.17 191.18 Z" />
<path fill="#3e3e3e" opacity="1.00" d=" M 211.29 203.65 C 215.37 202.55 219.60 201.33 223.85 202.17 C 226.73 210.58 229.76 218.93 232.70 227.31 C 229.00 228.87 225.10 230.05 221.11 230.57 C 218.80 227.17 217.60 223.19 216.03 219.42 C 214.15 214.57 211.90 209.84 210.47 204.82 C 210.67 204.53 211.08 203.94 211.29 203.65 Z" />
<path fill="#3e3e3e" opacity="1.00" d=" M 198.58 207.13 C 201.60 206.70 204.94 204.48 207.89 205.92 C 210.50 211.84 212.45 218.04 214.96 224.01 C 215.96 226.35 216.90 228.73 217.39 231.25 C 214.97 233.02 211.93 233.53 209.05 234.02 C 205.01 225.29 201.43 216.30 198.58 207.13 Z" />
<path fill="#3e3e3e" opacity="1.00" d=" M 192.95 210.97 C 192.83 208.26 196.81 208.69 196.99 211.04 C 200.10 219.07 203.81 226.90 206.33 235.14 C 204.80 235.88 203.16 236.36 201.56 236.93 C 199.09 231.59 197.73 225.83 195.69 220.33 C 194.70 217.24 193.32 214.22 192.95 210.97 Z" />
<path fill="#3e3e3e" opacity="1.00" d=" M 23.10 267.38 C 97.45 267.35 171.80 267.43 246.15 267.34 C 246.40 341.05 246.00 414.78 246.36 488.49 C 196.15 487.40 146.45 469.26 107.45 437.58 C 78.63 414.36 55.70 383.94 41.24 349.89 C 30.18 323.82 23.89 295.69 23.10 267.38 Z" />
<path fill="#3e3e3e" opacity="1.00" d=" M 263.75 267.46 C 339.76 267.26 415.77 267.44 491.77 267.37 C 488.89 306.96 475.80 345.72 454.18 378.99 C 435.31 408.15 410.06 433.15 380.69 451.70 C 345.83 473.85 305.10 486.65 263.84 488.42 C 263.71 414.77 263.89 341.12 263.75 267.46 Z" />
<path fill="#f5e5c1" opacity="1.00" d=" M 272.29 273.72 C 284.12 273.30 295.97 273.31 307.81 273.45 C 306.46 289.40 303.85 305.21 301.51 321.04 C 299.23 330.52 297.44 340.10 295.44 349.64 C 294.59 353.70 292.67 357.40 291.08 361.20 C 289.39 365.07 287.92 369.07 285.74 372.71 C 281.48 379.73 277.54 387.00 272.29 393.36 C 272.30 389.94 271.81 386.43 272.57 383.07 C 276.23 377.24 280.27 371.62 283.76 365.68 C 287.61 357.23 291.42 348.43 291.69 339.00 C 290.68 332.36 290.94 325.60 290.01 318.96 C 287.04 306.79 279.20 296.69 272.79 286.19 C 271.76 282.15 272.56 277.86 272.29 273.72 Z" />
<path fill="#f5e5c1" opacity="1.00" d=" M 69.71 282.25 C 75.62 279.33 80.98 275.14 87.44 273.47 C 88.47 275.16 89.41 276.90 90.28 278.68 C 103.56 305.76 116.85 332.83 130.20 359.88 C 130.69 361.21 131.75 362.53 131.39 364.04 C 129.76 366.04 127.15 366.78 124.91 367.87 C 119.69 369.93 114.81 372.88 109.32 374.21 C 96.17 343.53 83.01 312.86 69.71 282.25 Z" />
<path fill="#f5e5c1" opacity="1.00" d=" M 99.20 277.77 C 98.61 276.46 97.71 274.86 99.08 273.68 C 101.60 272.79 104.35 273.32 106.97 273.28 C 114.67 273.68 122.38 273.58 130.08 273.88 C 132.34 273.61 132.40 276.37 133.14 277.81 C 143.98 305.45 155.72 332.74 166.49 360.40 C 158.70 362.88 151.33 366.64 143.38 368.59 C 142.71 366.67 142.01 364.77 141.12 362.95 C 127.14 334.56 113.19 306.15 99.20 277.77 Z" />
<path fill="#f5e5c1" opacity="1.00" d=" M 142.62 273.90 C 153.01 273.88 163.40 273.88 173.80 273.86 C 167.73 283.81 162.36 294.19 157.94 304.98 C 152.86 294.60 147.70 284.27 142.62 273.90 Z" />
<path fill="#f5e5c1" opacity="1.00" d=" M 185.14 274.16 C 189.71 273.48 194.36 273.99 198.97 273.83 C 209.63 273.96 220.30 273.60 230.95 273.96 C 226.42 274.71 221.82 275.24 217.40 276.56 C 210.58 278.78 204.47 282.66 198.63 286.73 C 192.04 292.38 187.35 299.92 183.96 307.85 C 181.67 316.37 179.71 325.04 179.57 333.90 C 180.09 341.30 181.37 348.76 184.53 355.54 C 189.43 364.37 194.83 372.99 201.27 380.80 C 207.11 385.61 213.91 389.34 221.12 391.66 C 228.04 392.90 234.77 395.24 241.86 395.34 C 241.84 396.45 241.83 397.56 241.81 398.68 C 236.13 399.58 230.47 398.81 225.00 397.18 C 217.23 395.83 210.36 391.83 203.12 388.93 C 198.29 387.12 195.64 382.40 192.07 378.98 C 185.09 370.96 176.87 363.78 171.80 354.30 C 170.20 348.64 169.39 342.78 167.85 337.09 C 166.11 330.51 166.89 323.66 166.72 316.94 C 166.58 310.79 168.90 304.99 170.43 299.13 C 172.79 289.55 179.20 281.74 185.14 274.16 Z" />
<path fill="#f5e5c1" opacity="1.00" d=" M 319.83 302.89 C 320.60 293.18 320.15 283.44 320.73 273.73 C 327.35 273.72 333.97 273.73 340.59 273.67 C 338.94 287.79 337.58 301.97 335.10 315.98 C 332.92 329.27 330.72 342.56 328.56 355.86 C 328.11 358.95 326.95 361.86 325.73 364.72 C 314.81 391.49 304.04 418.32 293.07 445.08 C 292.31 447.17 290.83 448.87 289.00 450.11 C 283.44 454.20 277.84 458.24 272.20 462.21 C 272.28 448.13 272.15 434.06 272.32 419.98 C 271.60 415.56 276.54 413.71 278.83 410.74 C 283.23 405.49 290.05 402.01 292.15 395.11 C 297.77 380.64 305.23 366.89 309.82 352.03 C 311.56 341.50 316.33 331.71 317.53 321.07 C 318.26 315.00 319.63 309.01 319.83 302.89 Z" />
<path fill="#f5e5c1" opacity="1.00" d=" M 360.75 275.48 C 369.17 275.83 377.81 274.42 386.02 276.88 C 396.34 279.35 406.67 281.76 417.01 284.14 C 419.23 284.59 421.30 285.54 423.17 286.82 C 431.41 292.28 439.74 297.60 448.01 303.01 C 454.52 307.43 460.54 312.52 466.94 317.09 C 468.27 318.20 470.10 317.65 471.69 317.83 C 468.04 327.66 464.86 337.66 461.41 347.56 C 459.94 351.74 457.37 355.40 455.17 359.22 C 449.87 367.93 444.79 376.77 439.43 385.44 C 432.89 394.19 425.88 402.58 419.16 411.19 C 415.74 415.39 412.74 420.04 408.35 423.32 C 400.64 429.25 393.29 435.64 385.43 441.36 C 376.41 447.03 367.45 452.81 358.32 458.30 C 350.97 461.30 343.22 463.25 335.71 465.82 C 321.45 470.90 306.46 473.31 291.78 476.85 C 285.29 477.53 278.72 477.66 272.19 477.87 C 272.21 477.19 272.25 475.84 272.27 475.17 C 280.33 469.25 288.46 463.43 296.55 457.55 C 298.87 455.87 301.01 453.79 302.07 451.07 C 305.88 442.25 309.55 433.37 313.49 424.61 C 317.80 414.33 322.92 404.41 326.90 393.99 C 331.74 381.59 336.98 369.36 342.24 357.14 C 343.53 354.21 343.95 351.02 344.37 347.89 C 346.93 329.04 349.89 310.24 353.36 291.53 C 352.79 285.14 357.84 280.61 360.75 275.48 Z" />
<path fill="#f5e5c1" opacity="1.00" d=" M 444.09 282.89 C 454.93 282.38 465.36 278.98 476.08 277.64 C 478.44 277.25 480.20 279.82 479.64 281.99 C 478.62 289.68 477.11 297.32 475.66 304.94 C 465.65 296.88 454.96 289.74 444.09 282.89 Z" />
<path fill="#f5e5c1" opacity="1.00" d=" M 217.93 289.15 C 225.58 286.49 233.72 287.66 241.48 289.05 C 241.48 292.94 241.49 296.84 241.50 300.74 C 241.22 300.01 240.65 298.55 240.37 297.82 C 238.51 299.00 235.06 299.29 235.12 302.07 C 236.63 307.88 240.07 313.06 241.43 318.93 C 241.93 324.66 241.57 330.42 241.65 336.17 C 238.39 325.88 233.59 316.16 229.95 306.02 C 229.30 304.75 228.97 302.25 226.98 302.74 C 224.25 303.14 220.27 305.89 222.14 309.01 C 225.87 318.21 229.85 327.33 233.45 336.60 C 235.81 342.67 238.88 348.45 241.11 354.58 C 242.37 358.87 241.59 363.41 241.66 367.80 C 238.12 356.93 233.25 346.55 229.23 335.86 C 225.22 326.23 221.83 316.35 217.70 306.77 C 215.83 307.46 213.90 308.07 212.19 309.12 C 211.35 312.17 213.01 315.09 213.98 317.89 C 221.81 337.60 228.95 357.60 236.88 377.26 C 238.57 376.29 240.23 375.26 241.87 374.20 C 241.79 377.94 241.80 381.68 241.83 385.42 C 229.89 386.67 218.02 381.61 209.07 373.96 C 203.72 367.14 198.77 359.96 194.75 352.26 C 193.02 349.39 192.40 346.07 191.71 342.84 C 190.48 336.34 190.51 329.67 191.07 323.10 C 191.55 317.47 193.99 312.32 196.18 307.19 C 197.65 303.60 200.70 301.07 203.40 298.43 C 207.66 294.55 212.05 290.27 217.93 289.15 Z" />
<path fill="#f5e5c1" opacity="1.00" d=" M 272.41 306.55 C 273.95 308.71 275.47 310.93 276.52 313.39 C 278.98 319.37 281.88 325.38 282.02 331.98 C 282.74 344.74 280.92 358.72 272.40 368.80 C 272.37 365.55 272.36 362.31 272.35 359.07 C 274.01 358.39 275.67 357.68 277.32 356.96 C 275.55 351.02 271.84 345.43 272.30 339.02 C 272.40 328.19 272.21 317.37 272.41 306.55 Z" />
<path fill="#3e3e3e" opacity="1.00" d=" M 200.38 313.02 C 202.34 312.32 206.13 309.61 207.35 312.42 C 214.92 333.55 223.64 354.26 232.11 375.04 C 233.37 379.03 227.96 380.48 224.98 380.66 C 217.83 359.36 209.43 338.50 201.17 317.62 C 200.65 316.13 200.59 314.55 200.38 313.02 Z" />
<path fill="#3e3e3e" opacity="1.00" d=" M 369.23 512.00 C 433.09 483.36 485.42 429.77 512.00 364.97 L 512.00 512.00 L 369.23 512.00 Z" />
<path fill="#3e3e3e" opacity="1.00" d=" M 0.00 370.94 C 27.44 433.10 78.47 484.57 140.68 512.00 L 0.00 512.00 L 0.00 370.94 Z" />
<path fill="#f5e5c1" opacity="1.00" d=" M 162.11 375.82 C 164.93 374.06 167.74 372.21 170.97 371.26 C 180.65 381.02 187.34 393.11 195.36 404.16 C 197.15 404.36 198.97 404.56 200.67 405.20 C 213.39 409.85 226.06 414.66 238.83 419.15 C 238.73 437.19 238.65 455.22 238.79 473.26 C 236.41 473.98 233.72 475.54 231.47 473.63 C 219.81 466.99 210.01 457.61 198.95 450.07 C 196.32 448.64 196.17 445.42 194.92 443.02 C 190.97 434.72 186.67 426.60 182.66 418.33 C 176.33 403.91 168.46 390.23 162.11 375.82 Z" />
<path fill="#f5e5c1" opacity="1.00" d=" M 117.02 379.88 C 122.05 378.57 126.84 375.98 132.07 375.73 C 135.75 377.53 138.64 380.53 141.93 382.91 C 144.74 380.69 148.09 379.41 151.53 378.51 C 163.09 403.75 174.27 429.17 185.72 454.47 C 187.70 458.25 190.74 461.32 193.29 464.71 C 195.84 468.25 199.67 470.47 203.10 473.03 C 186.74 467.82 170.86 461.22 154.81 455.12 C 149.91 453.32 145.57 450.39 141.04 447.86 C 134.24 443.74 126.92 440.36 120.73 435.29 C 110.74 427.37 99.84 420.22 92.03 409.98 C 97.42 402.86 100.56 394.45 104.69 386.62 C 107.02 381.98 112.67 381.46 117.02 379.88 Z" />
</svg>
