<?xml version="1.0" encoding="UTF-8" ?>
<!DOCTYPE svg PUBLIC "-//W3C//DTD SVG 1.1//EN" "http://www.w3.org/Graphics/SVG/1.1/DTD/svg11.dtd">
<svg width="512pt" height="512pt" viewBox="0 0 512 512" version="1.1" xmlns="http://www.w3.org/2000/svg">
<path fill="#3e3e3e" opacity="1.00" d=" M 0.00 0.00 L 512.00 0.00 L 512.00 512.00 L 0.00 512.00 L 0.00 0.00 Z" />
<path fill="#f4722b" opacity="1.00" d=" M 207.27 13.28 C 210.55 10.51 214.99 10.14 219.06 9.50 C 226.10 8.98 232.75 11.92 239.15 14.47 C 248.34 17.97 256.95 22.77 265.62 27.37 C 271.41 30.36 275.78 35.31 281.07 39.01 C 286.37 42.66 289.95 48.13 294.01 53.01 C 300.98 62.92 307.21 73.44 311.43 84.85 C 314.97 92.28 317.64 100.12 321.65 107.33 C 324.76 112.68 326.45 118.66 328.01 124.61 C 321.65 121.03 315.12 117.50 308.00 115.73 C 303.44 114.78 299.46 118.75 298.75 123.01 C 295.01 137.57 304.24 151.28 303.92 165.75 C 300.98 157.94 296.95 150.58 292.34 143.65 C 286.57 136.33 278.96 130.64 270.96 125.95 C 265.56 122.87 258.75 121.38 252.83 123.87 C 248.84 125.82 244.67 128.49 243.08 132.87 C 240.85 138.18 241.58 144.51 244.73 149.29 C 247.02 152.99 250.25 156.10 251.94 160.18 C 255.28 167.68 257.90 175.58 262.62 182.39 C 268.36 192.61 277.16 200.51 284.35 209.64 C 289.12 216.19 295.97 220.75 301.03 227.06 C 307.76 233.90 313.12 242.46 314.71 252.04 C 315.35 256.41 318.09 259.99 320.30 263.68 C 322.40 267.13 325.29 270.28 329.12 271.80 C 341.33 277.42 354.59 283.11 362.26 294.77 C 365.75 299.17 366.41 304.84 367.94 310.06 C 369.20 315.07 368.98 321.08 373.38 324.64 C 378.27 329.71 385.06 331.85 391.37 334.53 C 399.11 336.92 407.24 338.53 414.29 342.70 C 418.17 344.94 422.36 346.57 426.22 348.85 C 430.12 351.00 433.71 353.71 437.84 355.41 C 445.19 358.41 450.52 364.54 456.00 370.02 C 462.12 377.42 467.80 385.26 472.22 393.81 C 475.00 398.98 478.70 404.65 477.24 410.79 C 471.92 406.72 466.67 402.46 460.76 399.26 C 455.82 396.49 449.58 396.98 444.72 399.65 C 442.56 410.01 447.21 420.12 449.91 429.95 C 452.53 439.97 459.16 448.48 467.23 454.77 C 472.71 459.96 479.14 464.32 483.13 470.87 C 488.91 479.56 493.97 489.45 494.29 500.09 C 490.24 496.00 485.55 492.61 481.62 488.43 C 477.09 482.73 470.20 478.98 462.98 478.17 C 459.02 477.76 455.85 480.68 452.09 481.27 C 449.20 481.64 446.07 482.03 443.40 480.58 C 437.81 477.87 433.26 473.51 428.95 469.14 C 427.57 467.94 426.26 466.28 424.29 466.20 C 420.65 472.04 421.28 479.54 422.14 486.09 C 422.59 490.87 425.17 496.45 421.41 500.52 C 415.99 492.72 412.79 482.89 404.58 477.42 C 398.55 473.49 392.08 469.75 384.88 468.57 C 378.88 468.27 372.88 467.76 366.93 466.94 C 357.83 465.19 349.29 460.92 342.36 454.77 C 335.81 449.79 331.62 442.13 329.87 434.18 C 328.13 422.96 327.28 411.13 331.12 400.24 C 333.06 395.07 333.51 389.27 331.87 383.96 C 330.75 379.18 325.22 377.79 321.04 377.00 C 312.17 376.01 303.65 373.11 295.53 369.52 C 289.70 367.00 285.28 361.97 282.66 356.28 C 280.49 351.73 278.58 346.69 274.32 343.65 C 266.72 338.15 257.71 335.06 248.85 332.23 C 245.17 330.99 241.18 331.36 237.48 330.22 C 232.12 328.15 227.50 324.53 223.49 320.48 C 219.78 316.79 217.17 312.16 213.53 308.41 C 210.67 305.23 207.10 302.82 203.78 300.17 C 198.60 295.52 188.80 297.94 187.00 304.88 C 184.43 316.17 188.80 327.48 193.19 337.73 C 187.20 337.27 182.71 332.61 176.76 332.09 C 173.11 331.27 168.61 332.15 166.55 335.54 C 164.94 337.93 165.87 340.87 166.72 343.35 C 168.38 348.24 171.59 352.37 173.72 357.04 C 175.11 360.06 176.54 363.07 177.97 366.08 C 173.29 364.63 168.67 362.93 164.31 360.70 C 159.54 358.25 155.40 354.76 150.59 352.40 C 140.25 347.52 130.74 340.33 124.32 330.78 C 120.48 327.01 117.16 320.83 111.00 321.25 C 108.11 321.06 105.47 323.16 104.81 325.93 C 103.39 331.55 104.21 337.47 105.69 342.99 C 107.03 349.80 109.19 356.41 110.52 363.22 C 106.91 359.79 104.89 355.14 101.70 351.38 C 97.54 346.52 93.49 341.57 89.23 336.80 C 84.17 331.34 82.00 323.72 76.31 318.78 C 73.25 316.37 70.09 314.07 66.81 311.97 C 61.64 308.56 55.14 308.42 49.81 305.34 C 43.22 302.22 38.39 296.23 35.90 289.47 C 34.95 282.70 34.91 275.82 34.12 269.03 C 32.71 262.97 29.55 257.52 26.99 251.90 C 23.42 245.91 18.42 240.85 15.35 234.53 C 12.26 229.47 12.68 222.27 16.72 217.87 C 19.52 215.55 22.66 213.32 26.26 212.52 C 35.78 211.31 45.40 211.04 54.98 211.39 C 62.06 211.69 69.13 209.76 75.19 206.13 C 84.87 199.36 94.62 191.20 98.33 179.54 C 99.29 174.73 98.56 169.80 98.36 164.95 C 97.70 154.53 91.13 145.46 90.85 134.98 C 91.08 128.70 92.84 122.59 94.74 116.64 C 96.74 110.08 101.32 104.80 105.85 99.83 C 108.31 97.02 112.27 96.70 115.47 95.16 C 124.01 90.98 133.80 91.07 143.07 91.42 C 148.40 91.99 153.72 93.16 159.11 92.77 C 163.30 92.42 167.18 90.65 171.09 89.24 C 178.03 86.96 184.13 82.25 188.21 76.21 C 190.54 71.86 190.88 66.78 191.46 61.97 C 192.29 55.25 189.99 48.70 190.25 41.99 C 190.27 34.90 191.53 27.07 196.81 21.89 C 199.85 18.51 203.78 16.14 207.27 13.28 Z" />
<path fill="#3e3e3e" opacity="1.00" d=" M 209.98 22.89 C 218.74 22.25 227.69 21.58 236.32 23.67 C 244.03 24.91 251.03 28.58 257.85 32.17 C 264.13 36.78 270.47 41.47 275.70 47.28 C 279.60 52.50 283.91 57.56 286.40 63.64 C 289.99 71.24 292.61 79.53 292.32 88.02 C 290.98 95.18 284.58 101.77 277.01 101.77 C 269.81 102.30 263.15 98.91 256.13 98.22 C 250.56 99.47 245.04 101.92 240.98 106.03 C 234.95 111.68 228.66 117.04 222.56 122.62 C 220.21 124.80 217.24 126.49 215.54 129.26 C 214.99 133.21 215.25 137.22 214.75 141.18 C 218.00 142.03 221.34 142.64 224.51 143.78 C 227.69 145.36 229.63 148.49 231.93 151.06 C 236.05 155.57 238.15 161.44 240.02 167.14 C 242.57 174.76 246.36 181.94 248.12 189.82 C 249.52 196.26 250.17 202.83 251.55 209.27 C 257.68 211.79 264.20 213.19 270.35 215.61 C 280.93 222.06 289.01 231.70 298.80 239.20 C 302.29 242.34 306.76 245.40 307.52 250.40 C 308.26 253.99 306.68 257.45 305.20 260.63 C 310.35 269.56 315.82 278.30 320.78 287.34 C 330.77 290.54 340.97 293.00 351.01 296.03 C 354.89 297.19 357.81 300.62 358.64 304.55 C 360.35 311.89 359.33 319.54 360.53 326.95 C 361.56 329.56 363.70 331.54 365.21 333.88 C 368.05 337.66 370.37 341.89 373.68 345.29 C 382.13 347.55 389.02 353.15 396.74 357.02 C 401.39 359.80 406.88 363.25 407.58 369.15 C 408.45 374.53 404.70 378.97 402.68 383.62 C 400.31 387.63 399.15 392.41 395.80 395.80 C 393.85 397.82 391.03 398.46 388.47 399.34 C 387.57 406.27 382.71 411.42 378.49 416.60 C 374.09 422.80 368.98 428.46 364.62 434.70 C 360.89 440.07 352.78 441.10 347.51 437.47 C 345.16 435.80 343.97 433.06 342.02 431.02 C 339.60 428.89 336.21 427.35 335.34 423.95 C 333.92 420.37 335.60 416.70 335.93 413.10 C 336.48 409.12 335.71 404.66 338.15 401.19 C 340.37 397.86 342.75 394.65 344.73 391.17 C 344.46 387.60 344.58 384.02 344.58 380.45 C 339.95 375.23 335.76 369.64 331.07 364.47 C 324.73 363.73 318.33 363.86 311.99 363.09 C 309.41 362.91 307.18 361.43 305.52 359.53 C 299.32 352.32 293.35 344.92 287.35 337.55 C 285.42 335.27 283.88 332.62 281.58 330.70 C 278.15 329.91 274.46 330.21 271.24 328.65 C 267.98 327.15 265.73 324.25 263.49 321.56 C 259.45 317.10 255.87 312.25 251.57 308.03 C 248.19 310.28 244.42 313.45 240.07 312.16 C 235.75 311.26 233.68 306.97 231.10 303.86 C 225.40 296.96 220.14 289.70 214.09 283.08 C 211.12 282.45 207.46 282.25 205.64 279.42 C 202.23 274.45 200.13 268.74 197.25 263.47 C 194.59 258.53 192.79 252.84 188.27 249.21 C 185.51 255.65 183.62 262.44 180.79 268.85 C 177.20 274.22 171.96 278.58 165.92 280.95 C 162.56 282.22 159.30 283.73 156.08 285.30 C 154.68 292.51 150.91 299.48 145.00 303.94 C 139.71 307.51 133.28 305.19 127.90 303.19 C 123.75 305.31 118.41 306.77 114.31 303.73 C 109.12 299.62 104.77 294.57 100.17 289.83 C 97.43 287.37 95.01 284.55 93.14 281.36 C 89.63 285.39 86.55 289.88 82.49 293.38 C 78.15 297.01 72.13 295.22 67.36 293.58 C 61.85 290.63 58.66 284.96 54.04 280.95 C 51.47 278.62 48.48 275.84 48.86 272.02 C 49.59 265.88 50.09 259.60 52.43 253.81 C 48.82 252.91 45.04 252.18 41.96 249.98 C 37.87 247.13 34.58 243.33 30.62 240.32 C 27.94 238.08 24.63 236.22 23.20 232.87 C 20.80 227.36 22.56 220.02 27.95 216.97 C 31.78 215.03 36.68 215.26 40.23 217.71 C 46.39 221.82 51.53 227.37 58.18 230.76 C 60.15 226.47 61.67 221.98 63.79 217.75 C 65.80 213.61 70.56 211.65 74.94 211.45 C 78.57 211.70 81.82 213.56 85.11 214.95 C 94.61 203.82 103.77 192.39 113.20 181.21 C 112.12 177.34 112.95 173.43 114.37 169.78 C 110.46 164.93 106.26 160.26 103.05 154.89 C 98.92 146.67 96.69 137.06 99.04 127.97 C 100.10 120.70 104.84 114.79 109.69 109.57 C 121.88 98.30 142.43 96.94 155.48 107.53 C 158.03 109.47 160.23 111.82 162.42 114.14 C 164.67 110.73 167.09 106.96 171.09 105.44 C 173.91 104.22 177.02 104.42 180.00 104.69 C 184.77 97.59 189.80 90.68 194.52 83.55 C 197.16 79.49 200.70 75.96 202.53 71.40 C 203.72 68.41 204.58 65.30 205.63 62.27 C 203.57 60.09 201.29 57.89 200.47 54.91 C 198.52 48.15 196.90 41.08 197.64 34.02 C 198.40 27.91 203.92 23.20 209.98 22.89 Z" />
<path fill="#f5e5c1" opacity="1.00" d=" M 210.44 31.68 C 220.91 30.78 231.75 30.51 241.76 34.25 C 248.50 37.12 255.10 40.46 260.52 45.47 C 267.25 50.07 272.02 56.78 276.41 63.51 C 279.61 69.99 282.66 76.74 283.42 84.01 C 284.03 88.38 280.82 93.53 276.00 93.20 C 268.87 92.60 262.14 89.72 255.05 88.86 C 248.32 91.36 241.06 93.58 235.90 98.84 C 226.17 107.49 216.48 116.18 206.64 124.70 C 206.46 129.15 206.64 133.62 206.22 138.06 C 205.53 141.64 202.63 144.18 200.62 147.05 C 207.12 148.60 213.75 149.74 220.15 151.69 C 225.16 155.55 228.93 160.96 230.63 167.08 C 233.34 176.64 238.82 185.29 240.29 195.20 C 241.42 202.22 242.69 209.22 243.71 216.25 C 251.33 218.68 259.04 220.89 266.54 223.68 C 275.10 229.12 282.01 236.74 289.77 243.21 C 292.71 245.95 296.12 248.27 298.55 251.51 C 299.54 254.88 294.99 256.95 294.84 259.82 C 300.34 270.23 306.67 280.19 312.40 290.48 C 313.66 292.41 314.58 295.09 317.13 295.60 C 326.72 298.43 336.39 301.04 346.01 303.77 C 347.84 304.30 350.20 305.14 350.42 307.37 C 351.25 314.94 350.86 322.64 351.78 330.17 C 357.47 338.93 363.88 347.23 369.90 355.77 C 371.39 355.41 372.87 355.05 374.36 354.68 C 380.48 357.75 386.23 361.50 392.24 364.79 C 394.34 366.06 396.71 367.11 398.23 369.13 C 399.40 370.80 397.99 372.73 397.35 374.32 C 394.79 379.17 392.61 384.23 389.85 388.98 C 388.02 392.10 384.36 389.29 381.69 388.99 C 380.28 393.36 380.05 398.09 378.39 402.36 C 371.72 411.35 364.69 420.07 357.94 429.01 C 356.64 431.42 352.47 431.60 351.68 428.69 C 350.56 424.80 345.25 423.49 345.36 419.17 C 345.34 414.59 343.44 409.43 346.24 405.32 C 348.52 401.52 351.41 398.09 353.37 394.11 C 353.86 388.47 353.13 382.79 353.29 377.14 C 347.40 370.05 341.75 362.74 335.60 355.89 C 328.16 354.66 320.39 355.49 312.97 354.09 C 303.67 344.33 295.83 333.17 286.94 323.02 C 282.57 320.39 275.91 323.12 272.56 318.50 C 266.35 311.19 259.95 304.05 253.97 296.56 C 249.99 298.73 246.10 301.07 242.40 303.70 C 233.88 293.14 225.33 282.61 216.91 271.98 C 215.50 272.79 214.10 273.61 212.70 274.44 C 207.52 264.83 203.18 254.75 197.67 245.34 C 193.29 241.80 188.02 239.53 183.22 236.60 C 180.39 244.61 177.43 252.57 174.55 260.56 C 172.57 267.38 166.29 271.71 159.84 273.83 C 154.04 276.22 148.31 278.77 142.46 281.05 C 144.42 282.65 147.89 284.42 146.44 287.52 C 144.44 290.96 142.79 295.38 138.99 297.15 C 135.02 296.87 131.37 295.10 127.84 293.40 C 125.28 294.69 122.71 296.00 119.92 296.73 C 116.07 294.11 113.27 290.29 109.95 287.07 C 107.26 284.02 103.91 281.50 101.74 278.03 C 101.55 276.31 101.74 274.58 101.81 272.87 C 98.57 271.72 95.30 270.65 92.02 269.62 C 87.05 274.86 82.76 280.71 77.78 285.92 C 75.72 286.77 73.19 285.87 70.97 285.93 C 66.49 281.27 62.23 276.39 57.50 271.97 C 58.11 268.66 58.46 265.31 58.90 261.99 C 59.26 258.60 62.42 256.59 64.25 253.98 C 63.21 251.89 62.17 249.81 61.11 247.73 C 57.14 246.32 53.15 244.98 49.14 243.67 C 45.65 242.60 43.30 239.66 40.63 237.35 C 37.23 234.13 33.28 231.49 30.24 227.88 C 31.11 226.77 31.94 225.62 32.98 224.65 C 34.49 224.24 35.73 225.44 36.90 226.18 C 41.03 229.32 44.91 232.78 49.11 235.84 C 53.40 238.91 58.79 239.48 63.83 240.42 C 67.00 233.86 68.84 226.58 72.94 220.53 C 78.21 220.52 82.82 223.82 87.58 225.74 C 99.99 210.77 112.32 195.74 124.77 180.79 C 126.20 179.00 126.97 176.80 127.91 174.73 C 126.31 175.28 124.72 175.82 123.12 176.34 C 123.50 173.82 124.06 171.33 124.32 168.79 C 120.42 162.50 114.98 157.29 110.96 151.09 C 108.04 144.89 105.56 137.81 107.32 130.92 C 109.16 120.95 117.13 112.45 126.97 109.99 C 135.33 107.83 144.98 109.57 151.40 115.56 C 155.64 119.77 159.81 124.06 163.87 128.45 C 166.98 124.03 169.57 119.23 172.87 114.94 C 175.52 111.55 180.04 114.59 183.49 114.88 C 191.36 103.61 199.14 92.27 207.05 81.03 C 211.45 75.26 212.70 67.92 215.17 61.25 C 212.76 56.78 208.60 53.17 207.76 47.97 C 206.62 43.77 205.98 39.37 206.50 35.02 C 206.82 33.15 208.71 32.02 210.44 31.68 Z" />
<path fill="#f4722b" opacity="1.00" d=" M 317.38 178.88 C 318.11 172.23 320.69 165.97 322.92 159.72 C 324.54 163.20 325.48 166.93 326.79 170.53 C 329.44 177.19 334.16 182.83 339.59 187.41 C 342.78 189.89 346.78 190.86 350.36 192.62 C 358.59 196.09 365.16 202.45 371.04 209.01 C 376.67 215.61 377.81 224.63 377.81 232.99 C 377.46 239.26 377.63 245.67 375.57 251.69 C 370.64 244.60 369.13 235.38 362.70 229.30 C 358.48 225.16 353.69 221.65 348.95 218.16 C 342.29 214.29 335.19 211.22 328.42 207.54 C 324.12 205.20 322.03 200.44 320.07 196.21 C 318.72 190.52 316.67 184.81 317.38 178.88 Z" />
<path fill="#3e3e3e" opacity="1.00" d=" M 108.96 249.72 C 124.76 231.11 140.63 212.54 156.45 193.93 C 153.03 208.05 149.60 222.17 146.15 236.28 C 141.06 240.19 135.77 243.84 130.30 247.20 C 125.86 249.58 121.07 251.28 116.78 253.95 C 114.00 252.88 111.33 251.53 108.96 249.72 Z" />
<path fill="#f4722b" opacity="1.00" d=" M 133.07 234.80 C 135.00 232.21 137.16 229.80 139.58 227.66 C 139.09 231.28 136.04 233.26 133.07 234.80 Z" />
<path fill="#f4722b" opacity="1.00" d=" M 191.72 374.11 C 205.23 372.18 220.16 370.52 232.52 377.61 C 237.36 382.04 241.35 387.38 245.61 392.39 C 251.88 401.60 263.41 405.00 270.40 413.50 C 273.73 417.79 275.81 422.89 276.89 428.19 C 261.12 421.22 245.33 414.11 228.70 409.38 C 224.72 408.23 220.57 406.50 218.07 403.02 C 214.23 397.79 213.39 390.91 209.10 385.94 C 206.79 383.27 204.75 380.21 201.64 378.39 C 198.62 376.36 195.03 375.52 191.72 374.11 Z" />
<path fill="#f4722b" opacity="1.00" d=" M 142.97 380.75 C 147.15 380.22 151.58 379.75 155.56 381.49 C 160.74 383.65 165.83 386.25 170.30 389.66 C 174.86 394.72 179.33 399.93 184.65 404.22 C 187.13 406.05 189.53 407.97 191.89 409.96 C 184.27 409.72 176.43 408.70 169.43 405.58 C 162.97 402.59 161.82 394.73 156.68 390.39 C 152.50 386.66 148.77 381.94 142.97 380.75 Z" />
</svg>
