<?xml version="1.0" encoding="UTF-8" standalone="no"?>
<svg
   xmlns:dc="http://purl.org/dc/elements/1.1/"
   xmlns:cc="http://creativecommons.org/ns#"
   xmlns:rdf="http://www.w3.org/1999/02/22-rdf-syntax-ns#"
   xmlns:svg="http://www.w3.org/2000/svg"
   xmlns="http://www.w3.org/2000/svg"
   xmlns:sodipodi="http://sodipodi.sourceforge.net/DTD/sodipodi-0.dtd"
   xmlns:inkscape="http://www.inkscape.org/namespaces/inkscape"
   width="1280"
   height="1280"
   viewBox="0 0 1024 1024"
   version="1.1"
   id="svg2"
   inkscape:version="0.48.1 "
   sodipodi:docname="burn_spies_as_you.svg">
  <metadata
     id="metadata34">
    <rdf:RDF>
      <cc:Work
         rdf:about="">
        <dc:format>image/svg+xml</dc:format>
        <dc:type
           rdf:resource="http://purl.org/dc/dcmitype/StillImage" />
      </cc:Work>
    </rdf:RDF>
  </metadata>
  <defs
     id="defs32" />
  <sodipodi:namedview
     pagecolor="#ffffff"
     bordercolor="#666666"
     borderopacity="1"
     objecttolerance="10"
     gridtolerance="10"
     guidetolerance="10"
     inkscape:pageopacity="0"
     inkscape:pageshadow="2"
     inkscape:window-width="1920"
     inkscape:window-height="1018"
     id="namedview30"
     showgrid="false"
     inkscape:snap-page="true"
     inkscape:zoom="0.6609375"
     inkscape:cx="640"
     inkscape:cy="640"
     inkscape:window-x="-8"
     inkscape:window-y="-8"
     inkscape:window-maximized="0"
     inkscape:current-layer="svg2"
     fit-margin-top="0"
     fit-margin-left="0"
     fit-margin-right="0"
     fit-margin-bottom="0" />
  <rect
     style="fill:#3e3e3e;fill-opacity:1"
     id="rect3013"
     width="1024"
     height="1024"
     x="0"
     y="0" />
  <path
     d="m 439.25,0 c -25.42,52.22 -44.58,108.06 -50.9,166 -1.5,11.12 -2.6,22.74 -7.7,32.9 -5.28,7.52 -16.51,3.52 -22.35,-1.4 -12.9,-12.5 -24.13,-26.72 -34.15,-41.6 -16.72,-22.68 -39.68,-39.78 -63.1,-55 -19.66,-12.52 -40.17,-23.78 -61.45,-33.3 9.38,21.14 16.19,43.29 20.75,65.95 12.94,63.9 14.15,129.47 13.25,194.45 0.06,17.24 -1.75,35.44 -11.05,50.4 -4.52,7.8 -15.33,13.26 -23.85,8.8 -9.26,-4.14 -15.36,-12.68 -22.9,-19.1 -30.94,-27.38 -66.78,-49.36 -105.6,-63.6 33.64,75.92 48,158.95 52.7,241.45 1.58,32.02 2.31,64.13 0.25,96.15 -0.94,10.66 0.77,21.18 1.25,31.8 1.58,70.26 27.21,139.61 71.05,194.45 52.7,66.5 132.36,111.08 216.7,120.7 106.82,13.98 218.82,-30.43 287.9,-112.95 15.92,-19.52 31.96,-39.92 40.3,-64 13.28,-32.84 29.7,-64.25 46,-95.65 10.9,-19.52 20.5,-39.95 34,-57.85 40.9,-51.68 90.65,-95.75 143.65,-134.65 8.26,-6.38 18.48,-11 23.6,-20.6 -21.78,6.84 -43.19,15.24 -65.75,19.3 -26.38,4.9 -54.67,7.65 -80.35,-1.85 -5.08,-1.28 -8.06,-5.9 -8.6,-10.9 -2.8,-18.62 2.6,-37.13 7.8,-54.85 3.82,-13.7 11.67,-25.72 17.65,-38.5 27.9,-58.04 45.71,-120.76 54.55,-184.5 1.76,-14.44 4.07,-28.87 3.75,-43.45 -5.08,9.44 -7.38,20.05 -12.3,29.55 -13.02,26.24 -33.77,47.91 -57.35,64.95 -16.84,12.8 -37.01,20.27 -57.25,25.75 -19.1,4.84 -40.75,6.32 -58.35,-4.1 -12.82,-7.4 -20.87,-20.86 -25.15,-34.7 -3.42,-10.38 -1.32,-21.42 -1.2,-32.1 1.28,-50.36 -10.15,-100.59 -29.95,-146.75 -2.02,-4.56 -4.49,-8.85 -7.15,-13.05 -0.94,11.96 -0.17,24.12 -3.25,35.8 -7.98,32.9 -25.6,62.41 -44.3,90.25 -9.84,15.18 -23.38,28.48 -40,36 -13.64,6.16 -30.28,4.56 -42.4,-4.3 C 518,221.68 506.34,198.62 498.9,175.8 483,118.48 470.61,59.68 469.35,0 l -30.1,0 z m -122.1,238.35 c 14.01109,-0.12619 28.36875,6.25 36.3,18.1 13,19.92 30.05,37.18 49.45,50.9 33.98,22.34 72.59,36.85 112.05,46.05 73.56,15.04 149.35,16.78 224.05,10.9 12.86,-2.1 26.49,-1.47 38.35,4.35 11.72,6.98 21.41,18.56 23.35,32.4 3.02,10.5 -1.52,20.85 -4.3,30.85 -29.2,104.2 -77.18,202.04 -130.7,295.7 -23.22,40.28 -47.76,79.78 -73.5,118.5 -7.44,11.7 -16.18,22.48 -24.6,33.5 -10.34,13.26 -24.58,22.68 -38.7,31.5 -11.66,7.52 -25.65,9.47 -38.85,12.85 -40.38,9.86 -82.91,16.32 -124.15,7.8 -22.14,-4.38 -44.59,-9.97 -63.95,-22.05 -13.14,-8.38 -25.97,-17.56 -36.55,-29.1 -18.26,-20.58 -33.21,-44.58 -40.15,-71.4 -4.9,-20 -11.09,-40.38 -9.15,-61.2 8.58,-143.58 28.03,-286.27 51.75,-428.05 3.42,-18.62 5.77,-37.54 10.85,-55.8 5.48,-14.78 20.27,-24.23 35.65,-25.65 0.92875,-0.0663 1.86592,-0.14158 2.8,-0.15 z"
     id="path6"
     style="fill:#f4722b"
     inkscape:connector-curvature="0" />
  <path
     style="fill:#f5e5c1"
     d="m 318.6,278.15 c -0.15986,0.0139 -0.32626,0.0537 -0.5,0.1 -3.38,-0.64 -3.34,3.63 -4,5.75 -25.36,145.78 -46.23,292.52 -56.45,440.2 -0.54,11.94 -1.51,23.89 -1.65,35.85 1.52,24.74 8.98,49.15 21.5,70.55 15.74,27.02 41.88,47.46 71.7,56.7 40.52,12.88 84.15,9.08 125.05,0.1 10.7,-2.72 21.86,-4.29 31.8,-9.35 13.42,-7.12 25.97,-16.45 34.85,-28.95 4.94,-7.14 10.82,-13.58 15.5,-20.9 52.42,-79 100.35,-161.12 140.85,-246.9 26.04,-55.9 49.11,-113.41 64.75,-173.15 -1.32,-1.76 -2.67,-3.54 -3.95,-5.3 -87.2,8.04 -176.21,6.88 -261.75,-13.5 -36.38,-9.06 -72.19,-21.95 -104.25,-41.65 -27.08,-16.54 -51.25,-38.39 -68.65,-65.05 -1.5375,-1.42501 -2.40227,-4.70867 -4.8,-4.5 z m 59.35,126.95 c 13.58,0.82 27.39,6.16 36.65,16.4 9.94,10.64 15.36,24.53 19.2,38.35 -8.74,-19.34 -24.89,-35.96 -45.75,-41.7 -18.38,-6.02 -37.68,-2.14 -56.1,1.4 14.28,-7.52 29.86,-13.11 46,-14.45 z m 2.45,35.25 c 4.22941,-0.0537 8.4275,0.73 12.35,2.65 11.38,5.64 17.17,17.98 20.85,29.5 3.66,13.06 6.23,26.66 5.45,40.3 -8.06,-2.62 -15.05,-7.54 -23.05,-10.3 -23.22,-8.6 -49.43,-7.9 -72.65,0.4 -9.88,3.2 -18.84,8.57 -28.4,12.55 2.36,-11.32 8.63,-21.51 16.75,-29.65 14.42,-15.08 29.54,-30.21 48.3,-39.85 6.17501,-3.15 13.35098,-5.51054 20.4,-5.6 z m 155.45,11.1 c 14.22318,0.18214 28.45157,5.0828 40.7,12.1 -11.32,-2.08 -22.87,-5.5 -34.45,-3.2 -19.42,2.62 -35.95,15.1 -47.75,30.2 -17.8,22.5 -27.49,50 -35.15,77.3 3.3,-26.76 7.83,-54.04 20.25,-78.3 8.1,-15.8 21.07,-30.36 38.55,-35.6 4.93,-1.51499 9.94656,-2.28813 15,-2.45 0.94752,-0.0303 1.90179,-0.0621 2.85,-0.05 z m 18.1,38.85 c 18.12,-0.14 33.65,11.82 44.65,25.2 25.18,31.44 36.65,70.81 48.65,108.55 1.54,2.8 -0.83,7.98 -3.95,4.7 -25.06,-25.14 -51.7,-48.94 -81.6,-68.2 -13.52,-8.58 -27.79,-16.19 -43.05,-21.15 -9.7,-3.28 -20.07,-2.85 -30.15,-2.85 0.9,-8.1 7.68,-13.47 12.7,-19.25 14,-14.14 31.93,-27.48 52.75,-27 z M 383.3,559.8 c -3.76,11.68 -2.24,24.17 3.3,35.05 1.1,-2.94 2.16,-5.91 3.3,-8.85 0.52,8.22 5.33,15.69 12.65,19.45 10.58,5.48 21.94,9.64 33.7,11.6 7.56,1.3 13.83,-3.84 20.05,-7.2 -1.6,3.7 -3.56,7.27 -6.2,10.35 7.74,-3.56 15.54,-7.1 22.9,-11.4 6.18,-3.4 5.76,-11.06 6.6,-17.1 4.36,8.26 7.03,18.98 1.35,27.3 -5.06,7.52 -15.41,6.72 -23.15,4.8 -2.6,-0.88 -6.3,-0.86 -7.7,-3.6 -10.92,7.72 -25.01,12.79 -38.45,10.35 -14.6,-3.14 -22.33,-17.72 -25.15,-31.2 -5.82,-3.06 -13.13,-6.19 -14.65,-13.35 -2.16,-10.06 3.31,-20.44 11.45,-26.2 z m -31.9,33.8 c -32.66,47 -59.08,97.98 -82.5,150.1 9.76,-57.36 39.94,-110.66 82.5,-150.1 z m 156.95,49.8 c 20.78,31.92 26.82,71.09 26.2,108.55 -1.06,31.72 -6,63.44 -15.4,93.8 8.52,-67.44 2.7,-135.95 -10.8,-202.35 z M 381,695.35 c 4.74125,0.10094 9.48501,0.73 14.15,1.9 22.44,5.34 40.59,21.21 54.75,38.75 20.18,25.34 34.24,54.95 45.5,85.15 3.54,9.52 6.24,19.35 10.4,28.65 -38.18,-38.06 -81.34,-73.15 -132,-92.95 -22.06,-9.48 -46.68,-8.78 -70,-5.6 -7.68,0.92 -15.15,3.07 -22.35,5.85 16.04,-20.46 35.61,-38.72 58.55,-51.2 12.52499,-6.67501 26.77626,-10.85282 41,-10.55 z"
     id="path10"
     inkscape:connector-curvature="0" />
</svg>
