<?xml version="1.0" encoding="UTF-8" ?>
<!DOCTYPE svg PUBLIC "-//W3C//DTD SVG 1.1//EN" "http://www.w3.org/Graphics/SVG/1.1/DTD/svg11.dtd">
<svg width="512pt" height="512pt" viewBox="0 0 512 512" version="1.1" xmlns="http://www.w3.org/2000/svg">
<path fill="#3e3e3e" opacity="1.00" d=" M 0.00 0.00 L 512.00 0.00 L 512.00 512.00 L 0.00 512.00 L 0.00 0.00 Z" />
<path fill="#f5e5c1" opacity="1.00" d=" M 156.67 12.71 C 159.67 11.34 162.55 9.16 165.98 9.17 C 225.98 9.16 285.97 9.18 345.97 9.16 C 348.38 8.90 350.24 10.62 352.14 11.81 C 357.80 15.71 363.72 19.21 369.77 22.45 C 370.46 46.12 370.01 69.81 370.09 93.50 C 365.19 88.84 359.25 85.48 354.20 81.06 C 353.95 68.05 354.19 55.02 354.11 41.99 C 353.97 39.55 353.98 36.72 352.10 34.88 C 350.33 32.91 347.53 32.56 345.03 32.53 C 285.35 32.54 225.68 32.56 166.00 32.52 C 161.87 32.59 157.16 31.96 153.67 34.68 C 151.53 36.44 151.52 39.44 151.48 41.97 C 151.53 56.10 151.51 70.23 151.51 84.36 C 146.79 89.90 140.99 94.40 136.82 100.41 C 136.77 74.30 136.74 48.19 136.85 22.08 C 143.53 19.10 150.27 16.26 156.67 12.71 Z" />
<path fill="#f4722b" opacity="1.00" d=" M 158.77 39.17 C 221.64 39.15 284.51 39.19 347.38 39.15 C 347.38 51.71 347.38 64.27 347.38 76.83 C 338.95 70.51 329.19 66.28 319.32 62.77 C 310.53 59.10 301.51 56.04 292.61 52.71 C 286.81 51.46 280.91 50.67 275.04 49.88 C 261.33 49.18 247.65 50.94 233.95 50.80 C 225.69 50.90 217.94 54.02 209.98 55.80 C 205.06 56.79 200.87 59.69 196.13 61.16 C 192.64 62.38 188.99 63.16 185.63 64.70 C 176.48 69.32 167.56 74.35 158.78 79.62 C 158.77 66.14 158.78 52.65 158.77 39.17 Z" />
<path fill="#f5e5c1" opacity="1.00" d=" M 226.94 64.67 C 234.12 62.55 241.70 64.08 249.01 62.82 C 262.32 62.34 275.92 61.68 288.91 65.24 C 301.00 68.92 312.62 73.93 324.42 78.42 C 331.97 81.42 338.61 86.15 345.19 90.81 C 366.07 103.74 383.98 122.91 391.70 146.57 C 396.88 157.75 398.24 170.11 400.62 182.06 C 401.27 191.09 399.56 200.07 398.59 209.01 C 399.04 216.91 394.93 223.94 393.04 231.39 C 391.47 237.55 388.52 243.22 386.05 249.05 C 383.44 255.08 378.55 259.67 375.68 265.54 C 370.66 273.34 365.65 281.41 358.49 287.46 C 354.21 291.19 350.57 295.65 347.72 300.54 C 345.08 307.02 342.43 313.90 343.55 321.04 C 345.19 328.65 347.43 336.18 348.25 343.94 C 349.05 349.31 346.03 354.67 341.63 357.57 C 331.58 361.80 320.59 362.97 309.97 364.99 C 306.89 365.55 303.73 367.67 303.35 371.00 C 302.21 377.14 301.92 383.45 300.10 389.46 C 299.61 391.19 297.77 391.92 296.15 392.14 C 287.09 392.76 278.04 391.58 268.98 391.73 C 250.98 391.64 232.98 391.48 214.98 391.39 C 212.86 391.46 210.77 391.09 208.78 390.37 C 207.95 384.52 206.44 378.80 205.47 372.98 C 205.07 370.54 204.30 368.09 202.72 366.16 C 200.92 363.54 197.52 363.23 194.78 362.19 C 187.72 359.74 180.06 360.36 172.92 358.25 C 170.22 357.42 167.38 357.50 164.60 357.67 C 162.87 356.17 160.92 354.51 160.57 352.11 C 159.49 345.12 161.44 338.20 162.57 331.35 C 163.53 325.87 166.00 320.64 165.57 314.97 C 166.06 305.15 161.92 295.66 156.03 288.00 C 152.75 283.52 147.33 281.45 143.61 277.43 C 140.39 273.94 137.64 270.00 135.41 265.81 C 132.36 259.21 128.17 253.16 125.80 246.24 C 122.68 236.85 118.74 227.71 116.51 218.05 C 113.71 206.23 114.67 194.02 114.21 181.98 C 113.75 172.37 119.22 163.85 119.81 154.37 C 123.72 145.38 127.47 136.20 133.18 128.16 C 138.90 119.35 144.49 110.36 151.52 102.52 C 155.38 99.02 158.48 94.63 162.98 91.89 C 171.36 86.84 179.93 82.10 188.57 77.50 C 194.49 74.24 201.43 73.60 207.39 70.42 C 213.48 67.21 220.40 66.52 226.94 64.67 Z" />
<path fill="#f5e5c1" opacity="1.00" d=" M 25.07 166.13 C 51.33 166.01 77.59 166.31 103.84 165.98 C 102.57 169.44 101.71 173.04 101.46 176.72 C 83.97 176.65 66.48 176.74 48.99 176.66 C 46.43 176.72 43.48 176.67 41.50 178.55 C 39.51 180.45 39.19 183.36 39.16 185.97 C 39.16 235.32 39.18 284.68 39.15 334.03 C 39.15 336.88 39.55 340.11 41.86 342.07 C 43.77 343.83 46.55 343.64 48.96 343.73 C 81.78 343.68 114.60 343.74 147.41 343.70 C 146.62 347.96 146.79 352.42 148.54 356.44 C 149.50 359.28 151.70 361.78 151.53 364.92 C 151.47 400.95 151.55 436.98 151.48 473.01 C 151.52 475.54 151.51 478.56 153.63 480.34 C 155.97 482.22 159.10 482.54 161.99 482.54 C 179.00 482.49 196.01 482.53 213.03 482.50 C 215.94 482.40 218.66 483.58 221.35 484.55 C 229.84 487.78 239.02 488.71 248.05 488.72 C 256.67 488.81 265.38 491.75 273.92 489.34 C 280.22 487.11 287.54 487.31 292.72 482.52 C 309.82 482.52 326.93 482.49 344.03 482.54 C 346.84 482.54 350.09 482.38 352.12 480.14 C 353.99 478.27 353.98 475.43 354.11 472.98 C 354.10 437.30 354.11 401.63 354.09 365.95 C 353.66 363.20 355.90 361.33 357.24 359.24 C 360.40 354.76 360.68 349.00 360.61 343.71 C 396.42 343.73 432.24 343.69 468.06 343.73 C 470.36 343.70 472.99 343.52 474.63 341.67 C 476.66 339.69 476.87 336.69 476.90 334.02 C 476.87 284.69 476.88 235.36 476.90 186.03 C 476.85 183.59 476.68 180.91 474.99 178.99 C 473.34 176.93 470.48 176.71 468.04 176.67 C 450.04 176.71 432.04 176.69 414.04 176.69 C 413.31 173.02 411.91 169.56 410.46 166.13 C 433.85 166.13 457.24 166.07 480.64 166.16 C 486.17 172.73 492.25 178.86 497.10 185.97 C 497.97 187.13 497.67 188.67 497.79 190.02 C 497.73 232.66 497.76 275.30 497.78 317.94 C 497.66 321.20 498.32 324.72 496.62 327.70 C 494.01 332.62 492.59 338.05 490.00 342.98 C 487.78 347.35 486.02 351.93 484.25 356.50 C 446.11 356.49 407.98 356.45 369.84 356.52 C 369.87 381.67 369.86 406.82 369.85 431.97 C 370.40 451.69 369.99 471.44 370.13 491.17 C 364.93 495.78 359.17 499.76 354.28 504.72 C 286.18 504.73 218.06 504.88 149.97 504.64 C 145.32 501.41 141.28 497.36 136.81 493.89 C 136.74 448.09 136.90 402.28 136.84 356.48 C 100.28 356.48 63.72 356.53 27.16 356.45 C 25.26 354.17 23.25 351.98 21.29 349.75 C 18.22 346.26 16.27 341.95 13.33 338.36 C 13.12 288.24 13.34 238.12 13.21 188.00 C 13.32 186.64 13.04 185.12 13.82 183.90 C 17.48 177.92 21.92 172.43 25.07 166.13 Z" />
<path fill="#f4722b" opacity="1.00" d=" M 45.83 183.32 C 64.39 183.45 82.95 183.35 101.51 183.37 C 101.43 190.25 102.35 197.09 102.17 203.96 C 102.24 217.19 105.86 230.07 110.85 242.23 C 112.71 247.83 114.57 253.45 117.22 258.75 C 122.64 268.68 127.17 279.46 135.67 287.27 C 139.30 291.37 144.88 293.39 147.77 298.19 C 150.50 302.64 152.50 307.69 152.93 312.93 C 153.33 316.78 152.02 320.48 151.14 324.17 C 150.09 328.33 149.34 332.56 148.53 336.78 C 114.28 336.80 80.02 336.75 45.77 336.81 C 45.79 285.65 45.67 234.48 45.83 183.32 Z" />
<path fill="#f4722b" opacity="1.00" d=" M 413.84 183.38 C 432.64 183.34 451.44 183.47 470.24 183.31 C 470.39 234.48 470.28 285.65 470.30 336.83 C 433.50 336.72 396.70 336.83 359.90 336.77 C 358.92 331.33 358.19 325.82 356.61 320.51 C 355.44 316.91 356.88 313.24 357.86 309.79 C 359.81 302.94 365.44 298.14 370.64 293.68 C 378.22 285.33 384.53 275.89 390.25 266.20 C 398.49 256.20 402.54 243.60 406.38 231.43 C 409.23 223.55 411.86 215.38 411.98 206.92 C 412.32 203.53 414.08 200.45 414.33 197.03 C 414.66 192.47 414.13 187.92 413.84 183.38 Z" />
<path fill="#3e3e3e" opacity="1.00" d=" M 187.00 211.03 C 191.93 209.37 197.10 208.55 202.04 206.93 C 205.96 207.56 210.10 206.79 213.85 208.35 C 219.73 210.56 225.27 213.86 229.91 218.09 C 233.55 223.51 235.94 229.77 237.20 236.17 C 238.89 244.01 238.37 252.07 238.56 260.03 C 237.62 267.00 236.51 273.97 234.98 280.85 C 233.49 287.43 228.60 293.51 221.87 295.16 C 215.70 296.64 209.41 298.39 203.01 297.51 C 194.99 296.45 185.93 296.15 179.69 290.29 C 176.44 287.46 176.85 282.86 175.74 279.06 C 174.56 273.04 172.39 267.18 172.35 260.99 C 171.69 250.34 168.88 239.45 172.08 228.94 C 174.78 221.51 179.96 214.78 187.00 211.03 Z" />
<path fill="#3e3e3e" opacity="1.00" d=" M 299.10 207.83 C 304.15 207.17 309.32 207.31 314.35 208.02 C 321.63 209.94 330.26 211.43 334.38 218.54 C 336.25 223.48 336.52 228.84 336.84 234.06 C 337.48 241.02 338.75 248.01 337.70 254.99 C 337.66 264.67 337.02 274.77 332.62 283.58 C 329.54 287.90 325.95 292.46 320.86 294.45 C 310.81 297.17 300.29 296.39 290.00 296.30 C 285.44 296.02 280.14 294.47 277.95 290.07 C 275.17 284.38 274.49 278.03 273.20 271.91 C 271.66 264.06 271.16 255.99 272.11 248.04 C 272.68 239.46 273.71 230.85 276.32 222.62 C 277.44 218.44 280.95 215.70 284.00 212.92 C 288.11 209.19 293.95 208.97 299.10 207.83 Z" />
<path fill="#3e3e3e" opacity="1.00" d=" M 249.04 299.04 C 251.11 296.59 254.69 297.33 257.48 297.69 C 260.53 298.30 262.44 301.02 263.09 303.90 C 265.21 312.01 269.76 319.43 276.12 324.91 C 278.81 327.55 282.36 330.86 281.37 335.04 C 280.45 339.05 279.80 343.26 277.80 346.91 C 274.29 351.90 267.63 353.08 261.93 353.19 C 257.85 352.13 253.40 350.79 250.63 347.40 C 247.21 351.62 241.47 354.38 236.07 352.81 C 232.04 351.89 227.59 350.55 225.29 346.83 C 222.88 343.52 223.16 339.20 223.68 335.36 C 226.06 328.73 232.17 324.67 236.16 319.12 C 238.64 315.71 241.78 312.73 243.52 308.84 C 245.10 305.45 246.51 301.86 249.04 299.04 Z" />
<path fill="#f5e5c1" opacity="1.00" d=" M 323.99 373.94 C 330.38 368.95 342.20 375.46 340.27 383.77 C 338.98 390.42 337.82 397.10 335.82 403.58 C 334.40 407.80 334.71 412.46 332.72 416.51 C 330.61 421.52 329.36 427.34 324.79 430.83 C 320.12 434.73 313.71 434.38 308.15 435.91 C 303.53 440.07 301.64 446.21 298.60 451.46 C 295.47 458.59 291.34 465.30 286.09 471.07 C 281.80 475.81 274.77 474.86 269.07 476.15 C 259.29 476.89 249.44 476.02 239.66 475.47 C 231.78 474.32 223.28 473.32 216.85 468.18 C 211.11 463.02 209.13 455.24 205.19 448.83 C 200.75 441.51 197.69 432.73 190.29 427.76 C 186.71 425.57 183.25 422.84 178.99 422.17 C 176.13 421.79 173.15 420.04 172.46 417.05 C 170.73 410.13 169.82 403.02 167.93 396.13 C 166.38 390.44 165.91 384.40 167.41 378.65 C 171.18 375.70 176.92 372.23 181.46 375.60 C 188.50 379.85 189.60 388.72 191.45 395.99 C 192.91 404.50 199.15 411.59 206.85 415.18 C 210.06 416.47 213.57 416.32 216.95 416.66 C 223.43 417.36 229.92 418.01 236.43 418.42 C 247.28 418.60 258.15 420.70 269.00 419.26 C 276.13 418.25 283.39 417.96 290.37 416.03 C 296.65 414.32 303.42 413.54 309.01 410.01 C 312.86 406.12 314.38 400.65 317.25 396.10 C 321.38 389.31 319.18 380.37 323.99 373.94 Z" />
<path fill="#f4722b" opacity="1.00" d=" M 343.51 424.31 C 344.87 421.12 346.08 417.86 347.25 414.60 C 347.56 435.02 347.29 455.46 347.38 475.89 C 331.11 475.84 314.84 475.90 298.56 475.86 C 302.00 471.12 306.13 466.73 308.16 461.14 C 310.42 456.56 312.36 451.73 315.43 447.63 C 318.58 447.03 321.97 447.36 324.95 445.95 C 333.65 441.55 340.44 433.56 343.51 424.31 Z" />
<path fill="#f4722b" opacity="1.00" d=" M 158.84 416.79 C 160.56 423.69 164.59 430.85 171.71 433.22 C 177.78 434.96 184.52 437.50 187.59 443.48 C 191.51 450.59 195.61 457.62 198.97 465.03 C 200.92 468.94 203.77 472.31 206.30 475.85 C 190.46 475.90 174.62 475.87 158.77 475.87 C 158.82 456.18 158.68 436.48 158.84 416.79 Z" />
</svg>
