<?xml version="1.0" encoding="UTF-8" ?>
<!DOCTYPE svg PUBLIC "-//W3C//DTD SVG 1.1//EN" "http://www.w3.org/Graphics/SVG/1.1/DTD/svg11.dtd">
<svg width="512pt" height="512pt" viewBox="0 0 512 512" version="1.1" xmlns="http://www.w3.org/2000/svg">
<path fill="#3e3e3e" opacity="1.00" d=" M 0.00 0.00 L 512.00 0.00 L 512.00 512.00 L 0.00 512.00 L 0.00 0.00 Z" />
<path fill="#5f5a50" opacity="1.00" d=" M 456.25 59.11 C 462.98 43.14 476.87 29.89 493.93 25.77 C 496.61 34.02 499.24 42.30 501.68 50.63 C 492.37 53.03 482.97 57.19 476.93 64.96 C 473.68 68.93 471.75 73.76 470.61 78.72 C 478.01 75.61 487.19 74.97 493.82 80.19 C 500.44 84.96 502.99 93.31 502.97 101.17 C 497.85 101.23 492.73 101.17 487.63 100.81 C 485.74 98.31 483.61 95.16 480.02 95.48 C 476.21 95.16 473.68 98.28 471.44 100.84 C 464.65 101.14 457.85 101.01 451.05 100.94 C 448.49 86.89 450.77 72.21 456.25 59.11 Z" />
<path fill="#5f5a50" opacity="1.00" d=" M 103.92 30.70 C 114.51 28.08 126.33 32.50 132.74 41.29 C 140.65 52.35 141.82 66.78 140.15 79.90 C 138.80 92.13 132.49 103.03 125.63 112.98 C 121.03 108.63 115.85 104.89 109.92 102.57 C 113.76 97.48 117.67 92.29 119.44 86.06 C 112.44 89.44 103.77 90.45 96.99 85.96 C 83.74 77.79 80.73 59.23 86.77 45.68 C 89.78 38.40 96.17 32.50 103.92 30.70 Z" />
<path fill="#5f5a50" opacity="1.00" d=" M 153.77 45.66 C 157.12 37.41 164.98 31.10 173.90 30.17 C 183.92 28.87 194.36 33.55 200.14 41.81 C 208.34 53.97 209.05 69.62 206.54 83.67 C 204.51 94.46 198.75 104.05 192.62 112.99 C 188.05 108.57 182.82 104.88 176.89 102.52 C 180.82 97.51 184.67 92.28 186.43 86.06 C 179.24 89.59 170.25 90.41 163.42 85.59 C 150.58 77.24 147.86 59.02 153.77 45.66 Z" />
<path fill="#5f5a50" opacity="1.00" d=" M 238.67 30.53 C 249.33 28.23 260.97 32.94 267.18 41.86 C 271.82 48.61 274.00 56.80 274.63 64.89 C 275.23 74.83 274.25 85.08 270.30 94.30 C 267.46 100.95 263.78 107.24 259.42 113.00 C 255.05 108.44 249.76 104.92 243.91 102.57 C 247.76 97.48 251.69 92.28 253.46 86.04 C 246.25 89.62 237.21 90.39 230.36 85.55 C 217.59 77.19 214.87 59.05 220.75 45.72 C 223.86 38.19 230.60 32.13 238.67 30.53 Z" />
<path fill="#5f5a50" opacity="1.00" d=" M 335.62 30.54 C 346.27 28.21 357.91 32.92 364.14 41.82 C 371.87 53.19 372.88 67.77 370.98 81.04 C 369.41 92.83 363.27 103.32 356.65 112.96 C 352.03 108.62 346.84 104.87 340.90 102.55 C 344.79 97.51 348.65 92.28 350.44 86.06 C 343.43 89.46 334.75 90.43 327.97 85.95 C 314.71 77.80 311.76 59.22 317.78 45.67 C 320.88 38.19 327.58 32.14 335.62 30.54 Z" />
<path fill="#5f5a50" opacity="1.00" d=" M 385.07 45.05 C 388.60 36.73 396.87 30.62 405.93 30.06 C 415.90 29.13 426.05 34.11 431.57 42.42 C 436.29 49.69 438.42 58.40 438.76 66.99 C 439.03 76.01 438.06 85.25 434.58 93.64 C 431.78 100.53 427.82 106.85 423.65 112.97 C 419.04 108.51 413.67 104.98 407.85 102.33 C 411.98 97.51 415.64 92.20 417.45 86.05 C 410.26 89.60 401.27 90.40 394.43 85.61 C 381.40 77.11 378.75 58.49 385.07 45.05 Z" />
<path fill="#3e3e3e" opacity="1.00" d=" M 108.29 56.28 C 113.06 54.28 119.01 57.80 119.48 62.96 C 120.23 67.81 115.74 72.30 110.98 72.26 C 106.75 72.52 102.70 69.20 102.04 65.04 C 101.62 61.09 104.69 57.50 108.29 56.28 Z" />
<path fill="#3e3e3e" opacity="1.00" d=" M 175.26 56.29 C 181.15 53.71 188.31 59.83 186.24 66.05 C 184.55 72.96 174.16 74.50 170.46 68.45 C 166.97 64.12 170.43 57.72 175.26 56.29 Z" />
<path fill="#3e3e3e" opacity="1.00" d=" M 242.25 56.28 C 247.35 54.10 253.82 58.36 253.52 63.97 C 253.61 68.47 249.41 72.25 245.02 72.25 C 240.75 72.55 236.66 69.19 236.03 65.00 C 235.63 61.07 238.72 57.55 242.25 56.28 Z" />
<path fill="#3e3e3e" opacity="1.00" d=" M 339.25 56.29 C 344.03 54.23 350.05 57.84 350.49 63.00 C 351.08 67.45 347.40 71.73 343.01 72.17 C 338.45 73.01 333.72 69.54 333.03 65.00 C 332.68 61.09 335.70 57.55 339.25 56.29 Z" />
<path fill="#3e3e3e" opacity="1.00" d=" M 406.28 56.27 C 411.05 54.27 417.04 57.83 417.48 62.99 C 418.19 67.85 413.74 72.35 408.96 72.26 C 404.72 72.51 400.66 69.17 400.04 64.98 C 399.70 61.08 402.71 57.50 406.28 56.27 Z" />
<path fill="#5f5a50" opacity="1.00" d=" M 285.18 118.05 C 283.84 112.68 286.95 105.63 292.99 105.20 C 299.44 104.40 304.35 111.84 302.44 117.65 C 300.06 124.71 297.77 132.67 290.97 136.77 C 288.92 136.13 287.86 133.77 286.37 132.30 C 288.25 130.13 290.10 127.93 291.90 125.71 C 289.16 123.72 285.64 121.77 285.18 118.05 Z" />
<path fill="#857e71" opacity="1.00" d=" M 78.22 118.17 C 82.28 111.83 89.39 107.57 96.91 107.07 C 106.37 106.20 116.06 110.63 121.74 118.22 C 131.03 131.63 131.32 149.33 127.61 164.70 C 124.94 174.03 119.92 182.53 114.19 190.29 C 110.18 185.42 105.34 181.23 99.53 178.66 C 103.50 173.90 106.78 168.57 108.71 162.65 C 104.11 164.94 99.01 166.82 93.79 165.80 C 85.98 164.67 79.48 158.86 76.08 151.93 C 71.04 141.29 71.84 128.08 78.22 118.17 Z" />
<path fill="#857e71" opacity="1.00" d=" M 145.20 118.21 C 149.26 111.84 156.40 107.56 163.95 107.07 C 173.41 106.20 183.09 110.65 188.75 118.24 C 198.03 131.67 198.32 149.37 194.60 164.75 C 191.93 174.07 186.90 182.53 181.20 190.29 C 177.18 185.43 172.34 181.23 166.53 178.66 C 170.49 173.90 173.78 168.56 175.71 162.64 C 171.15 164.92 166.09 166.80 160.90 165.81 C 153.05 164.72 146.51 158.91 143.10 151.95 C 138.04 141.33 138.83 128.11 145.20 118.21 Z" />
<path fill="#857e71" opacity="1.00" d=" M 212.22 118.17 C 216.29 111.81 223.44 107.55 230.99 107.07 C 240.43 106.21 250.09 110.66 255.75 118.23 C 264.74 131.14 265.20 148.09 262.05 163.01 C 259.57 173.01 254.25 182.06 248.19 190.29 C 244.18 185.43 239.35 181.24 233.54 178.67 C 237.49 173.89 240.78 168.57 242.72 162.65 C 238.13 164.92 233.06 166.82 227.87 165.80 C 220.04 164.71 213.52 158.91 210.11 151.98 C 205.04 141.33 205.83 128.09 212.22 118.17 Z" />
<path fill="#857e71" opacity="1.00" d=" M 309.20 118.21 C 313.26 111.85 320.37 107.57 327.90 107.08 C 337.36 106.19 347.04 110.62 352.72 118.19 C 361.74 131.10 362.20 148.07 359.05 163.00 C 356.59 173.01 351.24 182.04 345.21 190.29 C 341.18 185.44 336.35 181.23 330.53 178.67 C 334.48 173.89 337.79 168.57 339.71 162.65 C 335.13 164.93 330.06 166.81 324.87 165.81 C 317.01 164.70 310.47 158.87 307.07 151.90 C 302.05 141.28 302.84 128.10 309.20 118.21 Z" />
<path fill="#857e71" opacity="1.00" d=" M 376.23 118.17 C 380.29 111.82 387.42 107.55 394.95 107.07 C 404.42 106.20 414.10 110.66 419.77 118.26 C 427.45 129.13 428.75 143.17 427.25 156.05 C 426.00 168.73 419.63 180.20 412.20 190.29 C 408.18 185.43 403.35 181.23 397.54 178.67 C 401.49 173.89 404.78 168.56 406.72 162.64 C 402.15 164.91 397.10 166.80 391.93 165.82 C 384.05 164.73 377.50 158.90 374.08 151.92 C 369.04 141.29 369.84 128.07 376.23 118.17 Z" />
<path fill="#857e71" opacity="1.00" d=" M 439.01 107.00 C 460.08 107.13 481.15 106.70 502.21 107.30 C 502.18 113.19 502.42 119.07 502.24 124.96 C 502.23 127.76 500.95 130.31 499.69 132.74 C 491.71 148.24 484.17 163.97 476.32 179.53 C 470.40 176.56 463.89 174.95 457.26 174.73 C 464.58 160.69 471.90 146.65 478.95 132.48 C 465.74 132.62 452.53 133.35 439.32 133.55 C 439.06 124.71 438.90 115.85 439.01 107.00 Z" />
<path fill="#3e3e3e" opacity="1.00" d=" M 97.19 133.29 C 101.96 131.25 108.07 134.74 108.51 139.95 C 109.15 144.41 105.41 148.76 101.01 149.21 C 96.47 149.97 91.68 146.54 91.03 141.98 C 90.67 138.09 93.63 134.51 97.19 133.29 Z" />
<path fill="#3e3e3e" opacity="1.00" d=" M 164.26 133.27 C 169.03 131.27 175.10 134.78 175.51 139.98 C 176.14 144.45 172.37 148.79 167.96 149.21 C 163.46 149.94 158.73 146.56 158.04 142.05 C 157.63 138.11 160.64 134.48 164.26 133.27 Z" />
<path fill="#3e3e3e" opacity="1.00" d=" M 231.23 133.28 C 236.01 131.25 242.12 134.78 242.52 140.01 C 243.12 144.47 239.36 148.80 234.96 149.21 C 230.47 149.93 225.75 146.57 225.04 142.08 C 224.61 138.14 227.62 134.50 231.23 133.28 Z" />
<path fill="#3e3e3e" opacity="1.00" d=" M 328.29 133.26 C 334.17 130.71 341.26 136.77 339.31 142.99 C 337.66 149.65 327.99 151.51 323.91 146.04 C 319.76 141.80 323.08 134.70 328.29 133.26 Z" />
<path fill="#3e3e3e" opacity="1.00" d=" M 395.27 133.27 C 400.06 131.26 406.14 134.81 406.52 140.04 C 407.11 144.49 403.36 148.77 398.99 149.21 C 394.47 149.95 389.71 146.55 389.03 142.01 C 388.65 138.08 391.66 134.47 395.27 133.27 Z" />
<path fill="#b3a994" opacity="1.00" d=" M 433.31 192.30 C 442.31 181.22 459.17 177.61 471.89 184.09 C 484.05 190.20 491.38 204.58 489.04 218.01 C 487.69 226.27 482.72 233.64 475.99 238.51 C 479.41 243.29 482.16 248.94 481.50 254.98 C 481.07 263.05 475.75 269.98 468.98 274.00 C 466.19 268.87 462.23 264.50 457.61 260.95 C 461.29 259.35 465.28 256.43 465.02 251.95 C 464.42 244.22 452.81 241.34 448.39 247.53 C 446.29 250.05 446.96 253.48 447.52 256.42 C 441.96 254.64 436.06 254.76 430.37 255.82 C 430.11 248.92 432.88 242.41 437.03 237.02 C 432.89 232.66 428.83 227.90 427.15 221.99 C 424.22 211.89 426.47 200.36 433.31 192.30 Z" />
<path fill="#b3a994" opacity="1.00" d=" M 64.82 193.80 C 68.34 187.98 74.36 183.71 81.06 182.45 C 89.96 180.68 99.52 183.74 105.97 190.07 C 112.55 196.64 115.41 206.03 116.46 215.06 C 117.48 226.57 116.23 238.56 111.09 249.04 C 107.85 255.81 103.74 262.14 99.17 268.09 C 94.97 263.04 89.53 259.21 83.44 256.78 C 88.97 251.37 93.41 244.84 95.81 237.45 C 92.14 239.35 88.23 241.22 83.99 241.04 C 75.19 241.19 67.34 235.18 63.42 227.59 C 58.10 217.08 58.69 203.85 64.82 193.80 Z" />
<path fill="#b3a994" opacity="1.00" d=" M 145.99 182.95 C 154.70 180.46 164.46 182.79 171.34 188.61 C 178.58 194.62 181.87 204.07 183.22 213.11 C 184.65 224.99 183.54 237.48 178.39 248.40 C 175.13 255.42 170.86 261.93 166.19 268.09 C 161.97 263.04 156.52 259.23 150.43 256.75 C 156.00 251.38 160.40 244.83 162.81 237.45 C 159.14 239.35 155.22 241.22 150.97 241.03 C 142.20 241.18 134.36 235.20 130.45 227.64 C 125.09 217.12 125.69 203.86 131.82 193.79 C 134.99 188.59 140.12 184.60 145.99 182.95 Z" />
<path fill="#b3a994" opacity="1.00" d=" M 213.02 182.94 C 221.96 180.40 231.98 182.93 238.89 189.07 C 246.25 195.58 249.35 205.58 250.46 215.06 C 251.38 225.84 250.43 237.05 246.00 247.03 C 242.69 254.58 238.15 261.53 233.20 268.09 C 228.96 263.10 223.61 259.15 217.44 256.87 C 222.89 251.36 227.43 244.89 229.81 237.45 C 226.14 239.36 222.22 241.22 217.98 241.04 C 209.17 241.19 201.32 235.16 197.41 227.57 C 192.10 217.05 192.69 203.82 198.83 193.78 C 202.00 188.58 207.14 184.59 213.02 182.94 Z" />
<path fill="#857e71" opacity="1.00" d=" M 274.16 194.98 C 272.73 189.34 276.50 181.86 282.95 182.18 C 287.17 181.89 289.82 185.60 291.59 188.89 C 289.48 192.86 287.34 196.90 286.35 201.33 C 285.65 204.04 285.43 206.90 284.35 209.50 C 283.12 211.33 281.39 212.75 279.84 214.30 C 278.30 212.60 276.75 210.89 275.22 209.18 C 277.21 207.07 279.16 204.92 281.07 202.73 C 278.16 200.83 274.58 198.82 274.16 194.98 Z" />
<path fill="#b3a994" opacity="1.00" d=" M 295.81 193.82 C 299.35 187.96 305.41 183.67 312.15 182.44 C 321.02 180.70 330.53 183.75 336.95 190.06 C 343.56 196.62 346.41 206.05 347.47 215.10 C 348.51 226.85 347.15 239.10 341.76 249.73 C 338.57 256.24 334.57 262.32 330.20 268.09 C 325.96 263.07 320.55 259.20 314.44 256.80 C 319.96 251.37 324.41 244.85 326.81 237.45 C 323.15 239.35 319.24 241.22 315.01 241.03 C 306.20 241.20 298.34 235.18 294.42 227.59 C 289.10 217.08 289.69 203.86 295.81 193.82 Z" />
<path fill="#b3a994" opacity="1.00" d=" M 362.85 193.76 C 366.68 187.42 373.50 182.96 380.89 182.18 C 389.50 181.04 398.44 184.37 404.47 190.57 C 408.87 195.05 411.36 201.03 413.01 207.00 C 415.48 216.66 415.22 226.86 413.37 236.60 C 410.85 248.31 404.26 258.61 397.21 268.10 C 392.96 263.10 387.60 259.15 381.43 256.87 C 386.89 251.37 391.42 244.88 393.81 237.45 C 390.14 239.35 386.24 241.22 382.00 241.03 C 373.22 241.20 365.37 235.20 361.44 227.64 C 356.09 217.10 356.68 203.83 362.85 193.76 Z" />
<path fill="#3e3e3e" opacity="1.00" d=" M 453.44 205.60 C 457.69 204.71 462.52 205.14 466.05 207.89 C 470.34 211.21 471.69 217.99 468.50 222.49 C 463.52 229.49 451.42 229.71 446.61 222.41 C 442.45 216.37 446.34 207.14 453.44 205.60 Z" />
<path fill="#3e3e3e" opacity="1.00" d=" M 84.25 208.27 C 89.05 206.24 95.16 209.82 95.52 215.06 C 96.10 219.48 92.37 223.76 88.02 224.20 C 83.50 224.97 78.74 221.57 78.03 217.05 C 77.63 213.11 80.64 209.49 84.25 208.27 Z" />
<path fill="#3e3e3e" opacity="1.00" d=" M 151.22 208.29 C 156.01 206.24 162.12 209.79 162.52 215.02 C 163.13 219.48 159.34 223.81 154.94 224.21 C 150.42 224.94 145.68 221.50 145.02 216.98 C 144.68 213.08 147.64 209.50 151.22 208.29 Z" />
<path fill="#3e3e3e" opacity="1.00" d=" M 218.21 208.29 C 223.00 206.24 229.12 209.78 229.52 215.01 C 230.13 219.47 226.35 223.80 221.95 224.21 C 217.45 224.94 212.74 221.55 212.03 217.06 C 211.63 213.13 214.61 209.51 218.21 208.29 Z" />
<path fill="#3e3e3e" opacity="1.00" d=" M 315.20 208.29 C 321.10 205.66 328.26 211.73 326.32 217.99 C 324.64 224.64 314.99 226.52 310.91 221.03 C 306.78 216.83 310.05 209.77 315.20 208.29 Z" />
<path fill="#3e3e3e" opacity="1.00" d=" M 382.24 208.28 C 388.10 205.70 395.20 211.69 393.34 217.91 C 391.73 224.61 382.01 226.55 377.91 221.04 C 373.77 216.82 377.06 209.73 382.24 208.28 Z" />
<path fill="#b3a994" opacity="1.00" d=" M 261.19 270.10 C 259.84 264.77 262.93 257.71 268.91 257.22 C 273.48 256.49 277.42 260.22 278.47 264.42 C 279.39 266.64 277.32 268.47 276.46 270.34 C 273.99 274.13 272.81 278.52 271.69 282.85 C 271.08 285.61 268.71 287.37 266.88 289.34 C 265.31 287.62 263.75 285.89 262.20 284.15 C 264.23 282.07 266.20 279.92 268.11 277.72 C 265.20 275.88 261.63 273.91 261.19 270.10 Z" />
<path fill="#f5e5c1" opacity="1.00" d=" M 51.21 272.19 C 55.09 266.14 61.74 261.94 68.89 261.17 C 77.48 260.05 86.40 263.35 92.42 269.52 C 97.35 274.55 99.94 281.36 101.52 288.11 C 104.45 303.12 102.54 319.37 94.71 332.67 C 87.85 344.97 78.72 356.24 67.05 364.28 C 63.04 358.44 59.00 352.63 54.96 346.81 C 66.61 339.69 77.63 329.81 81.79 316.39 C 77.90 318.64 73.53 320.40 68.94 320.01 C 60.54 319.72 53.22 313.88 49.43 306.63 C 44.00 295.89 44.70 282.31 51.21 272.19 Z" />
<path fill="#f5e5c1" opacity="1.00" d=" M 118.19 272.22 C 122.06 266.16 128.72 261.94 135.89 261.18 C 144.49 260.05 153.42 263.36 159.44 269.55 C 164.33 274.54 166.92 281.31 168.50 288.01 C 171.46 303.05 169.55 319.34 161.70 332.67 C 154.84 344.97 145.72 356.25 134.05 364.28 C 130.04 358.44 126.00 352.63 121.96 346.81 C 133.61 339.69 144.63 329.81 148.79 316.39 C 144.90 318.63 140.55 320.40 135.97 320.01 C 127.57 319.73 120.24 313.90 116.45 306.65 C 111.00 295.93 111.70 282.35 118.19 272.22 Z" />
<path fill="#f5e5c1" opacity="1.00" d=" M 184.84 272.77 C 188.37 266.95 194.39 262.70 201.09 261.45 C 209.76 259.74 219.05 262.58 225.47 268.60 C 231.00 273.68 233.86 280.96 235.52 288.14 C 238.44 303.14 236.53 319.37 228.71 332.66 C 221.85 344.97 212.72 356.24 201.06 364.28 C 197.04 358.45 193.01 352.63 188.96 346.83 C 200.60 339.68 211.63 329.82 215.79 316.39 C 211.91 318.63 207.57 320.39 203.00 320.01 C 194.57 319.75 187.22 313.89 183.43 306.61 C 178.10 296.08 178.69 282.83 184.84 272.77 Z" />
<path fill="#f5e5c1" opacity="1.00" d=" M 296.75 261.75 C 305.76 259.47 315.70 262.25 322.44 268.58 C 329.40 275.10 332.36 284.78 333.46 294.01 C 334.51 305.77 333.16 318.03 327.79 328.68 C 320.79 342.59 310.94 355.37 298.05 364.28 C 294.04 358.44 290.00 352.63 285.96 346.81 C 297.61 339.69 308.63 329.81 312.79 316.39 C 308.91 318.63 304.56 320.40 299.99 320.01 C 291.56 319.74 284.21 313.88 280.43 306.61 C 275.11 296.10 275.69 282.88 281.81 272.82 C 285.10 267.38 290.56 263.27 296.75 261.75 Z" />
<path fill="#f5e5c1" opacity="1.00" d=" M 349.21 272.19 C 353.26 265.85 360.37 261.57 367.90 261.07 C 376.22 260.29 384.70 263.63 390.49 269.59 C 396.72 276.17 399.45 285.32 400.47 294.14 C 401.50 305.87 400.14 318.09 394.78 328.70 C 387.78 342.60 377.93 355.37 365.05 364.28 C 361.05 358.44 356.97 352.64 352.98 346.79 C 364.63 339.69 375.63 329.80 379.79 316.39 C 375.89 318.64 371.52 320.41 366.92 320.01 C 358.53 319.71 351.21 313.87 347.43 306.62 C 342.00 295.89 342.70 282.32 349.21 272.19 Z" />
<path fill="#f5e5c1" opacity="1.00" d=" M 417.20 272.21 C 421.25 265.86 428.37 261.57 435.90 261.07 C 444.19 260.29 452.65 263.61 458.44 269.54 C 464.23 275.58 466.97 283.90 468.20 292.02 C 469.81 304.91 468.27 318.49 462.10 330.06 C 455.12 343.41 445.53 355.67 433.05 364.28 C 429.04 358.44 424.99 352.63 420.96 346.81 C 432.61 339.69 443.63 329.81 447.79 316.39 C 443.92 318.62 439.59 320.39 435.04 320.02 C 426.58 319.76 419.20 313.88 415.41 306.57 C 410.00 295.85 410.71 282.32 417.20 272.21 Z" />
<path fill="#3e3e3e" opacity="1.00" d=" M 70.28 287.27 C 75.75 284.90 82.57 290.02 81.50 295.97 C 80.73 303.25 70.22 305.90 65.92 300.05 C 61.74 295.83 65.08 288.71 70.28 287.27 Z" />
<path fill="#3e3e3e" opacity="1.00" d=" M 137.23 287.29 C 142.73 284.86 149.61 290.03 148.49 296.03 C 147.67 303.27 137.22 305.88 132.93 300.06 C 128.76 295.86 132.04 288.75 137.23 287.29 Z" />
<path fill="#3e3e3e" opacity="1.00" d=" M 204.29 287.26 C 209.77 284.90 216.59 290.04 215.50 296.00 C 214.70 303.27 204.19 305.89 199.91 300.03 C 195.74 295.80 199.09 288.70 204.29 287.26 Z" />
<path fill="#3e3e3e" opacity="1.00" d=" M 301.26 287.27 C 306.01 285.26 312.05 288.77 312.51 293.92 C 313.17 298.38 309.43 302.75 305.03 303.20 C 300.17 304.06 294.93 299.97 294.97 294.96 C 295.26 291.42 297.95 288.38 301.26 287.27 Z" />
<path fill="#3e3e3e" opacity="1.00" d=" M 368.24 287.28 C 373.71 284.89 380.55 289.99 379.50 295.95 C 378.76 303.25 368.21 305.91 363.91 300.04 C 359.76 295.82 363.07 288.74 368.24 287.28 Z" />
<path fill="#3e3e3e" opacity="1.00" d=" M 436.26 287.27 C 441.04 285.24 447.16 288.83 447.52 294.05 C 448.11 298.47 444.38 302.75 440.03 303.20 C 435.17 304.06 429.94 299.97 429.97 294.97 C 430.26 291.43 432.94 288.38 436.26 287.27 Z" />
<path fill="#f5e5c1" opacity="1.00" d=" M 247.20 349.14 C 245.65 343.43 249.51 335.75 256.07 336.19 C 261.59 336.07 264.98 341.90 265.00 346.87 C 265.61 355.78 258.75 362.70 252.70 368.28 C 251.19 366.55 249.69 364.83 248.20 363.10 C 250.28 361.06 252.24 358.90 254.14 356.68 C 251.18 354.93 247.66 352.92 247.20 349.14 Z" />
<path fill="#f4722b" opacity="1.00" d=" M 88.34 377.43 C 95.32 375.66 102.72 378.27 107.78 383.19 C 116.62 391.69 121.10 403.68 123.39 415.50 C 126.49 432.52 125.35 450.58 118.70 466.65 C 115.25 474.53 110.25 482.28 102.60 486.64 C 95.49 490.73 86.04 489.54 79.85 484.26 C 69.66 475.84 64.77 462.73 62.42 450.08 C 59.45 432.69 60.82 414.24 67.98 398.00 C 72.10 389.18 78.48 380.14 88.34 377.43 Z" />
<path fill="#f4722b" opacity="1.00" d=" M 161.29 377.44 C 168.31 375.64 175.76 378.28 180.83 383.25 C 189.78 391.88 194.25 404.08 196.50 416.08 C 199.49 433.17 198.25 451.30 191.39 467.36 C 187.76 475.36 182.46 483.31 174.34 487.28 C 167.13 490.75 158.13 489.07 152.25 483.77 C 141.97 474.81 137.22 461.20 135.09 448.10 C 132.56 431.05 134.10 413.05 141.33 397.27 C 145.43 388.74 151.72 380.08 161.29 377.44 Z" />
<path fill="#f4722b" opacity="1.00" d=" M 235.34 377.43 C 242.57 375.58 250.20 378.49 255.31 383.69 C 263.93 392.34 268.30 404.29 270.50 416.09 C 273.49 433.19 272.25 451.32 265.39 467.38 C 261.75 475.39 256.44 483.34 248.30 487.30 C 240.85 490.89 231.58 488.90 225.68 483.27 C 215.50 473.99 210.89 460.19 208.91 446.90 C 206.63 430.00 208.29 412.19 215.63 396.64 C 219.73 388.34 225.98 379.97 235.34 377.43 Z" />
<path fill="#f4722b" opacity="1.00" d=" M 309.30 377.44 C 316.31 375.65 323.74 378.27 328.81 383.23 C 337.61 391.70 342.08 403.63 344.37 415.40 C 347.50 432.48 346.35 450.61 339.67 466.74 C 336.33 474.34 331.55 481.77 324.35 486.21 C 317.36 490.63 307.76 489.84 301.38 484.66 C 292.11 477.42 287.18 466.07 284.43 454.93 C 280.20 436.37 281.19 416.32 288.67 398.70 C 292.77 389.63 299.20 380.25 309.30 377.44 Z" />
<path fill="#f4722b" opacity="1.00" d=" M 383.39 377.42 C 390.38 375.66 397.78 378.31 402.83 383.25 C 411.62 391.71 416.07 403.64 418.37 415.39 C 421.53 432.67 420.34 451.05 413.42 467.31 C 409.87 475.15 404.75 482.88 396.94 486.99 C 389.64 490.83 380.27 489.22 374.23 483.75 C 364.23 475.05 359.48 461.88 357.26 449.14 C 354.49 431.79 355.96 413.41 363.30 397.31 C 367.42 388.74 373.75 380.01 383.39 377.42 Z" />
<path fill="#f4722b" opacity="1.00" d=" M 458.18 377.24 C 465.18 375.78 472.37 378.71 477.29 383.68 C 485.92 392.31 490.28 404.25 492.49 416.04 C 495.53 433.40 494.23 451.84 487.08 468.07 C 483.44 475.81 478.21 483.46 470.31 487.30 C 462.85 490.89 453.59 488.90 447.69 483.29 C 437.52 474.01 432.90 460.23 430.92 446.95 C 428.61 429.79 430.31 411.67 437.96 395.97 C 442.16 387.70 448.65 379.35 458.18 377.24 Z" />
<path fill="#f4722b" opacity="1.00" d=" M 32.25 378.90 C 37.68 379.38 43.10 380.00 48.52 380.58 C 47.81 416.75 46.61 452.91 45.70 489.08 C 39.79 488.69 33.88 488.14 27.97 487.68 C 28.71 462.66 29.18 437.63 29.77 412.61 C 28.30 414.97 26.85 417.34 25.40 419.72 C 22.54 414.24 19.66 408.78 16.88 403.26 C 22.00 395.13 27.17 387.05 32.25 378.90 Z" />
<path fill="#3e3e3e" opacity="1.00" d=" M 90.39 411.56 C 93.72 410.48 97.40 411.72 99.81 414.16 C 104.68 418.90 106.66 425.77 107.63 432.31 C 108.76 442.73 108.11 454.12 101.93 462.99 C 99.54 466.37 95.58 469.70 91.15 468.58 C 86.16 467.08 83.10 462.31 81.15 457.77 C 77.26 448.03 77.20 437.06 79.53 426.93 C 81.15 420.86 84.10 413.98 90.39 411.56 Z" />
<path fill="#3e3e3e" opacity="1.00" d=" M 163.41 411.56 C 166.76 410.47 170.43 411.75 172.85 414.19 C 177.70 418.95 179.68 425.82 180.64 432.36 C 181.76 442.78 181.09 454.17 174.90 463.03 C 172.50 466.40 168.53 469.73 164.09 468.57 C 159.13 467.04 156.10 462.30 154.15 457.79 C 150.25 448.02 150.20 437.02 152.55 426.88 C 154.17 420.81 157.12 413.95 163.41 411.56 Z" />
<path fill="#3e3e3e" opacity="1.00" d=" M 237.35 411.58 C 240.69 410.47 244.39 411.72 246.81 414.16 C 251.67 418.89 253.65 425.74 254.62 432.27 C 255.77 442.71 255.11 454.14 248.91 463.02 C 246.51 466.40 242.55 469.72 238.11 468.57 C 233.14 467.06 230.10 462.29 228.15 457.77 C 224.26 448.03 224.19 437.05 226.54 426.93 C 228.15 420.86 231.09 414.01 237.35 411.58 Z" />
<path fill="#3e3e3e" opacity="1.00" d=" M 311.41 411.56 C 314.73 410.49 318.39 411.72 320.80 414.15 C 325.67 418.89 327.66 425.76 328.63 432.31 C 329.77 442.75 329.11 454.17 322.89 463.05 C 320.50 466.41 316.54 469.72 312.12 468.57 C 307.15 467.07 304.10 462.30 302.15 457.78 C 298.25 448.03 298.20 437.03 300.54 426.90 C 302.16 420.83 305.12 413.96 311.41 411.56 Z" />
<path fill="#3e3e3e" opacity="1.00" d=" M 385.34 411.58 C 388.70 410.46 392.41 411.72 394.84 414.18 C 399.68 418.92 401.66 425.77 402.63 432.30 C 403.77 442.74 403.11 454.15 396.90 463.03 C 394.50 466.41 390.53 469.73 386.09 468.57 C 381.15 467.05 378.11 462.31 376.16 457.81 C 372.26 448.06 372.19 437.06 374.54 426.92 C 376.15 420.86 379.08 414.02 385.34 411.58 Z" />
<path fill="#3e3e3e" opacity="1.00" d=" M 459.42 411.56 C 462.75 410.48 466.43 411.74 468.83 414.18 C 473.67 418.92 475.66 425.75 476.63 432.27 C 477.77 442.73 477.11 454.15 470.89 463.04 C 468.49 466.41 464.53 469.72 460.10 468.57 C 455.14 467.05 452.10 462.29 450.15 457.77 C 446.26 448.04 446.20 437.08 448.53 426.97 C 450.14 420.87 453.09 413.96 459.42 411.56 Z" />
<path fill="#f4722b" opacity="1.00" d=" M 52.96 485.02 C 52.08 479.61 57.28 473.60 62.94 475.46 C 68.00 477.04 69.40 483.26 68.62 487.93 C 67.44 494.29 62.51 498.96 58.06 503.27 C 56.69 501.77 55.32 500.27 53.95 498.79 C 55.70 496.97 57.42 495.11 59.14 493.27 C 56.26 491.32 52.73 489.00 52.96 485.02 Z" />
<path fill="#f4722b" opacity="1.00" d=" M 266.97 486.12 C 266.13 481.03 270.61 475.14 276.07 476.29 C 280.54 476.90 282.83 481.82 282.78 485.93 C 283.14 493.61 277.14 499.37 272.06 504.30 C 270.69 502.76 269.33 501.23 267.96 499.70 C 269.71 497.91 271.44 496.10 273.16 494.29 C 270.31 492.34 266.78 490.06 266.97 486.12 Z" />
</svg>
