<?xml version="1.0" encoding="UTF-8" ?>
<!DOCTYPE svg PUBLIC "-//W3C//DTD SVG 1.1//EN" "http://www.w3.org/Graphics/SVG/1.1/DTD/svg11.dtd">
<svg width="512pt" height="512pt" viewBox="0 0 512 512" version="1.1" xmlns="http://www.w3.org/2000/svg">
<path fill="#3e3e3e" opacity="1.00" d=" M 0.00 0.00 L 512.00 0.00 L 512.00 512.00 L 0.00 512.00 L 0.00 0.00 Z" />
<path fill="#f5e5c1" opacity="1.00" d=" M 79.21 15.26 C 81.11 15.01 83.01 14.79 84.93 14.77 C 197.29 14.75 309.65 14.77 422.00 14.76 C 437.19 14.41 452.61 18.29 465.36 26.69 C 484.53 39.04 497.41 61.00 497.79 83.92 C 497.79 193.94 497.79 303.96 497.79 413.98 C 497.74 420.70 498.15 427.50 496.70 434.13 C 493.33 452.80 481.88 469.67 466.16 480.19 C 453.55 488.69 438.20 493.02 423.01 492.50 C 310.02 492.49 197.03 492.50 84.03 492.49 C 65.98 491.91 48.13 484.42 35.35 471.59 C 21.65 458.30 13.60 439.21 14.20 420.08 C 14.20 309.05 14.20 198.01 14.20 86.98 C 13.74 70.45 19.79 53.98 30.31 41.30 C 42.29 26.57 60.33 17.08 79.21 15.26 Z" />
<path fill="#3e3e3e" opacity="1.00" d=" M 84.36 30.48 C 196.23 30.16 308.12 30.45 420.00 30.33 C 433.07 30.27 446.53 32.83 457.40 40.45 C 469.81 48.78 478.63 62.26 481.15 77.02 C 482.56 86.95 482.07 97.00 482.15 107.00 C 482.15 209.01 482.14 311.01 482.16 413.02 C 482.28 417.99 481.88 422.95 481.48 427.90 C 479.44 445.42 468.32 461.50 452.76 469.76 C 444.31 474.46 434.63 476.77 424.97 476.71 C 422.25 476.52 419.67 477.51 416.98 477.67 C 308.67 477.61 200.35 477.69 92.04 477.63 C 82.54 477.72 72.67 477.31 63.98 473.06 C 50.87 468.02 39.64 458.11 33.49 445.43 C 29.17 437.00 27.63 427.44 27.62 418.04 C 27.66 307.69 27.59 197.34 27.66 86.99 C 27.68 70.32 35.26 53.75 48.39 43.37 C 58.44 35.02 71.41 30.92 84.36 30.48 Z" />
<path fill="#f5e5c1" opacity="1.00" d=" M 88.89 53.90 C 98.04 49.91 108.08 48.31 118.03 48.37 C 161.78 48.38 205.54 48.35 249.30 48.38 C 229.83 73.92 210.62 99.67 191.15 125.20 C 213.17 150.38 235.24 175.53 257.27 200.70 C 259.43 203.25 261.65 205.76 264.02 208.13 C 240.09 258.75 216.53 309.55 192.43 360.08 C 209.93 393.06 228.10 425.69 245.80 458.57 C 202.55 458.63 159.29 458.59 116.04 458.59 C 98.47 458.93 80.89 451.92 68.36 439.60 C 57.49 429.19 50.25 414.96 48.57 399.98 C 48.32 396.33 47.92 392.69 47.85 389.03 C 47.87 301.37 47.85 213.71 47.86 126.04 C 47.79 115.61 47.85 104.92 51.24 94.93 C 56.99 76.61 71.22 61.31 88.89 53.90 Z" />
<path fill="#f4722b" opacity="1.00" d=" M 278.37 48.40 C 316.89 48.32 355.42 48.39 393.94 48.37 C 403.91 48.29 413.97 49.91 423.15 53.90 C 446.84 63.69 463.99 88.14 463.77 113.95 C 463.80 206.62 463.78 299.29 463.78 391.96 C 464.19 409.51 456.67 426.91 444.15 439.12 C 431.61 451.75 413.79 458.93 396.00 458.59 C 356.11 458.62 316.21 458.57 276.32 458.62 C 254.74 425.50 233.36 392.27 211.92 359.07 C 238.42 306.76 265.01 254.48 291.49 202.15 C 264.78 176.01 238.08 149.86 211.34 123.75 C 233.63 98.59 255.99 73.49 278.37 48.40 Z" />
</svg>
