<?xml version="1.0" encoding="UTF-8" ?>
<!DOCTYPE svg PUBLIC "-//W3C//DTD SVG 1.1//EN" "http://www.w3.org/Graphics/SVG/1.1/DTD/svg11.dtd">
<svg width="512pt" height="512pt" viewBox="0 0 512 512" version="1.1" xmlns="http://www.w3.org/2000/svg">
<path fill="#3e3e3e" opacity="1.00" d=" M 0.00 0.00 L 512.00 0.00 L 512.00 247.40 C 508.66 246.85 504.67 247.52 502.09 244.88 C 499.08 242.24 495.54 240.13 493.23 236.78 C 491.58 234.75 490.17 232.13 487.41 231.51 C 479.41 229.06 471.37 226.78 463.37 224.36 C 459.45 223.12 455.59 221.22 452.93 218.00 C 450.65 215.71 449.04 212.61 446.19 210.98 C 439.75 211.21 433.35 212.13 426.92 212.65 C 423.66 212.78 422.02 216.07 420.40 218.43 C 415.04 227.46 409.77 236.54 404.52 245.63 C 402.03 250.06 397.37 252.50 393.67 255.77 C 388.79 260.08 383.06 263.21 377.21 265.98 C 382.19 261.35 386.37 255.97 390.89 250.90 C 393.44 247.94 394.87 244.27 396.65 240.84 C 399.04 235.98 402.34 231.66 404.83 226.86 C 408.61 219.62 411.05 211.80 414.62 204.47 C 416.57 200.61 417.63 195.92 421.39 193.34 C 435.68 182.90 449.88 172.35 464.16 161.90 C 467.32 149.06 470.61 136.26 473.98 123.48 C 471.35 125.94 467.87 127.99 466.90 131.69 C 464.74 138.26 462.69 144.86 460.50 151.42 C 459.79 153.18 459.27 155.38 457.41 156.30 C 455.89 156.65 454.32 156.60 452.79 156.69 C 439.93 142.42 426.32 128.85 412.09 115.97 C 410.42 114.32 408.46 112.82 407.40 110.68 C 406.57 108.29 407.57 105.82 408.41 103.59 C 413.22 91.72 417.84 79.77 422.57 67.87 C 423.64 65.01 425.96 62.95 428.12 60.91 C 430.39 62.22 432.55 63.74 434.39 65.63 C 439.02 70.25 443.81 74.70 448.50 79.26 C 449.79 77.99 451.07 76.71 452.35 75.42 C 444.87 68.36 437.41 61.29 429.94 54.21 C 427.32 54.90 424.58 55.60 422.61 57.57 C 402.69 74.95 384.03 93.71 364.66 111.68 C 362.57 113.61 360.78 115.84 359.40 118.33 C 353.68 128.65 347.86 138.92 342.20 149.28 C 340.69 152.15 338.79 154.87 337.78 157.98 C 338.06 162.07 339.02 166.08 339.59 170.14 C 352.34 181.77 365.18 193.31 377.97 204.90 C 380.71 207.30 383.11 210.16 386.23 212.08 C 389.35 212.64 392.69 212.77 395.79 212.00 C 399.77 209.72 403.19 206.60 406.89 203.91 C 405.65 209.97 404.58 216.15 401.57 221.64 C 396.51 232.37 390.18 242.63 381.89 251.17 C 385.71 241.72 388.53 231.45 387.66 221.19 C 369.64 205.30 351.01 190.04 333.07 174.04 C 331.32 181.12 325.47 185.88 321.95 192.00 C 318.40 198.27 313.07 203.19 308.84 208.96 C 299.72 219.84 289.26 229.64 277.49 237.60 C 272.60 240.23 267.42 242.39 262.06 243.88 C 257.84 245.13 253.47 243.92 249.24 243.33 C 252.96 251.56 258.78 258.62 264.62 265.44 C 269.59 271.36 274.51 277.32 279.62 283.13 C 273.04 278.56 266.85 273.46 260.44 268.66 C 253.34 263.71 247.28 256.57 245.24 248.04 C 244.22 234.75 244.41 221.36 243.29 208.08 C 241.83 202.63 238.88 197.70 236.77 192.49 C 231.30 190.07 226.00 187.31 220.82 184.35 C 219.52 184.85 217.89 184.80 216.86 185.81 C 215.95 187.33 215.52 189.07 214.93 190.73 C 210.71 184.39 206.38 178.13 201.86 172.01 C 185.55 148.44 169.29 124.85 153.02 101.26 C 151.06 101.48 149.11 101.84 147.14 101.74 C 146.02 100.97 145.06 100.01 144.06 99.11 C 144.77 97.97 145.49 96.83 146.22 95.70 C 147.21 95.59 148.21 95.47 149.20 95.36 C 150.25 90.56 151.26 85.76 152.34 80.97 C 146.67 81.05 141.92 77.87 137.18 75.22 C 142.21 76.45 147.69 77.31 152.74 75.92 C 158.87 72.35 164.81 68.38 170.42 64.02 C 161.26 60.68 153.82 54.20 147.02 47.41 C 142.06 54.62 136.94 61.72 131.94 68.91 C 128.31 73.94 127.89 80.29 126.69 86.17 C 126.12 89.77 125.07 93.36 125.23 97.04 C 126.20 100.33 128.26 103.15 129.81 106.18 C 135.95 117.68 142.52 128.97 148.20 140.72 C 157.75 157.56 167.13 174.49 176.58 191.39 C 180.37 197.62 180.53 205.13 182.66 211.96 C 184.20 220.53 189.42 228.48 188.42 237.41 C 185.29 233.81 182.97 229.62 180.37 225.65 C 167.72 205.95 155.07 186.25 142.41 166.57 C 140.15 163.24 138.34 159.53 135.44 156.69 C 132.52 154.61 129.11 153.35 125.83 151.97 C 123.01 150.64 119.93 151.82 117.04 152.19 C 92.01 156.73 67.12 161.96 42.11 166.60 C 39.74 167.14 36.91 167.25 35.40 169.47 C 32.79 172.75 29.74 175.77 27.69 179.45 C 22.00 195.71 16.22 211.95 10.40 228.16 C 9.19 231.69 7.50 235.22 7.59 239.03 C 8.72 242.42 10.93 245.31 12.48 248.51 C 13.94 251.30 14.93 254.51 17.50 256.54 C 35.94 271.92 54.39 287.29 72.80 302.71 C 65.27 300.56 57.30 299.47 50.36 295.62 C 45.46 292.92 39.80 291.91 35.11 288.80 C 33.17 287.85 31.27 285.99 28.97 286.53 C 20.40 292.05 15.99 301.49 11.23 310.11 C 9.13 314.92 3.27 315.95 0.00 319.77 L 0.00 0.00 Z" />
<path fill="#f5e5c1" opacity="1.00" d=" M 164.11 24.11 C 166.61 20.64 170.84 18.73 174.99 18.26 C 183.56 19.83 192.27 23.13 197.98 30.01 C 199.75 32.39 201.06 35.08 202.23 37.79 C 204.05 42.78 203.10 48.16 203.46 53.34 C 199.51 55.96 195.00 57.53 190.93 59.93 C 188.68 61.17 186.52 62.62 184.10 63.52 C 178.61 63.01 173.11 61.48 168.30 58.73 C 164.79 55.96 160.91 53.38 158.29 49.69 C 155.97 44.76 155.99 39.13 155.30 33.82 C 158.20 30.55 161.39 27.54 164.11 24.11 Z" />
<path fill="#3e3e3e" opacity="1.00" d=" M 176.19 24.09 C 178.66 23.27 181.39 24.31 183.65 25.39 C 188.70 28.47 193.89 31.83 197.02 37.02 C 199.19 39.92 199.49 43.63 199.97 47.09 C 198.95 47.54 197.94 48.00 196.93 48.46 C 187.22 44.86 181.71 35.68 176.64 27.28 C 176.06 26.28 175.92 25.22 176.19 24.09 Z" />
<path fill="#f5e5c1" opacity="1.00" d=" M 147.02 47.41 C 153.82 54.20 161.26 60.68 170.42 64.02 C 164.81 68.38 158.87 72.35 152.74 75.92 C 147.69 77.31 142.21 76.45 137.18 75.22 C 141.92 77.87 146.67 81.05 152.34 80.97 C 151.26 85.76 150.25 90.56 149.20 95.36 C 148.21 95.47 147.21 95.59 146.22 95.70 C 145.49 96.83 144.77 97.97 144.06 99.11 C 145.06 100.01 146.02 100.97 147.14 101.74 C 149.11 101.84 151.06 101.48 153.02 101.26 C 169.29 124.85 185.55 148.44 201.86 172.01 C 206.38 178.13 210.71 184.39 214.93 190.73 C 215.52 189.07 215.95 187.33 216.86 185.81 C 217.89 184.80 219.52 184.85 220.82 184.35 C 226.00 187.31 231.30 190.07 236.77 192.49 C 238.88 197.70 241.83 202.63 243.29 208.08 C 244.41 221.36 244.22 234.75 245.24 248.04 C 247.28 256.57 253.34 263.71 260.44 268.66 C 266.85 273.46 273.04 278.56 279.62 283.13 C 274.51 277.32 269.59 271.36 264.62 265.44 C 258.78 258.62 252.96 251.56 249.24 243.33 C 253.47 243.92 257.84 245.13 262.06 243.88 C 267.42 242.39 272.60 240.23 277.49 237.60 C 289.26 229.64 299.72 219.84 308.84 208.96 C 313.07 203.19 318.40 198.27 321.95 192.00 C 325.47 185.88 331.32 181.12 333.07 174.04 C 351.01 190.04 369.64 205.30 387.66 221.19 C 388.53 231.45 385.71 241.72 381.89 251.17 C 390.18 242.63 396.51 232.37 401.57 221.64 C 404.58 216.15 405.65 209.97 406.89 203.91 C 403.19 206.60 399.77 209.72 395.79 212.00 C 392.69 212.77 389.35 212.64 386.23 212.08 C 383.11 210.16 380.71 207.30 377.97 204.90 C 365.18 193.31 352.34 181.77 339.59 170.14 C 339.02 166.08 338.06 162.07 337.78 157.98 C 338.79 154.87 340.69 152.15 342.20 149.28 C 347.86 138.92 353.68 128.65 359.40 118.33 C 360.78 115.84 362.57 113.61 364.66 111.68 C 384.03 93.71 402.69 74.95 422.61 57.57 C 424.58 55.60 427.32 54.90 429.94 54.21 C 437.41 61.29 444.87 68.36 452.35 75.42 C 451.07 76.71 449.79 77.99 448.50 79.26 C 443.81 74.70 439.02 70.25 434.39 65.63 C 432.55 63.74 430.39 62.22 428.12 60.91 C 425.96 62.95 423.64 65.01 422.57 67.87 C 417.84 79.77 413.22 91.72 408.41 103.59 C 407.57 105.82 406.57 108.29 407.40 110.68 C 408.46 112.82 410.42 114.32 412.09 115.97 C 426.32 128.85 439.93 142.42 452.79 156.69 C 454.32 156.60 455.89 156.65 457.41 156.30 C 459.27 155.38 459.79 153.18 460.50 151.42 C 462.69 144.86 464.74 138.26 466.90 131.69 C 467.87 127.99 471.35 125.94 473.98 123.48 C 470.61 136.26 467.32 149.06 464.16 161.90 C 449.88 172.35 435.68 182.90 421.39 193.34 C 417.63 195.92 416.57 200.61 414.62 204.47 C 411.05 211.80 408.61 219.62 404.83 226.86 C 402.34 231.66 399.04 235.98 396.65 240.84 C 394.87 244.27 393.44 247.94 390.89 250.90 C 386.37 255.97 382.19 261.35 377.21 265.98 C 383.06 263.21 388.79 260.08 393.67 255.77 C 397.37 252.50 402.03 250.06 404.52 245.63 C 409.77 236.54 415.04 227.46 420.40 218.43 C 422.02 216.07 423.66 212.78 426.92 212.65 C 433.35 212.13 439.75 211.21 446.19 210.98 C 449.04 212.61 450.65 215.71 452.93 218.00 C 455.59 221.22 459.45 223.12 463.37 224.36 C 471.37 226.78 479.41 229.06 487.41 231.51 C 490.17 232.13 491.58 234.75 493.23 236.78 C 495.54 240.13 499.08 242.24 502.09 244.88 C 504.67 247.52 508.66 246.85 512.00 247.40 L 512.00 402.63 C 504.16 381.65 495.96 360.80 487.97 339.88 C 486.75 336.51 485.03 332.55 481.08 331.81 C 475.89 330.64 469.66 328.35 464.89 331.81 C 441.27 348.54 417.60 365.21 393.99 381.95 C 391.54 383.79 388.65 385.24 386.83 387.76 C 385.45 390.71 385.86 394.43 387.98 396.93 C 396.40 407.08 404.56 417.52 414.30 426.47 C 409.80 430.94 405.16 435.31 400.14 439.19 C 398.94 440.32 397.11 440.11 396.00 438.99 C 379.51 425.13 363.16 411.12 346.64 397.30 C 342.22 393.66 338.10 388.98 332.25 387.79 C 329.00 386.98 325.64 387.38 322.38 387.81 C 322.11 386.35 321.84 384.90 321.58 383.46 C 324.36 382.32 327.39 381.62 329.88 379.86 C 332.20 377.75 332.16 374.30 332.84 371.45 C 333.29 371.37 334.19 371.22 334.64 371.15 C 339.55 376.78 347.45 375.99 354.08 377.59 C 361.05 379.17 368.23 378.33 375.25 377.55 C 383.69 376.60 392.25 374.82 399.79 370.79 C 406.43 366.20 413.68 362.26 419.33 356.40 C 422.69 352.65 422.14 347.27 421.34 342.69 C 419.54 331.47 418.21 320.19 416.17 309.01 C 415.71 305.81 413.64 302.80 410.54 301.67 C 403.48 299.26 396.33 296.99 388.94 295.83 C 379.60 294.83 370.22 295.86 360.97 297.12 C 355.13 297.88 349.97 300.91 344.54 302.95 C 338.03 306.69 332.74 312.26 327.98 318.00 C 325.02 322.12 326.60 327.39 327.28 331.96 C 326.42 332.13 324.72 332.46 323.87 332.62 C 321.79 329.41 318.94 326.37 315.00 325.64 C 310.85 325.20 306.69 327.25 302.58 326.43 C 291.78 319.44 280.41 311.88 267.23 310.76 C 262.34 310.23 257.47 309.14 252.53 309.30 C 239.87 310.28 227.59 313.92 214.91 314.83 C 183.77 317.26 153.12 323.73 122.08 327.07 C 100.77 330.30 79.39 333.10 58.06 336.20 C 53.05 337.26 47.76 337.12 42.95 339.00 C 34.02 343.86 28.37 352.70 22.87 360.93 C 17.51 371.05 13.94 382.36 13.87 393.88 C 14.92 400.10 13.88 406.63 16.20 412.62 C 18.21 417.29 18.03 423.55 14.36 427.34 C 9.85 430.05 4.58 431.19 0.00 433.80 L 0.00 319.77 C 3.27 315.95 9.13 314.92 11.23 310.11 C 15.99 301.49 20.40 292.05 28.97 286.53 C 31.27 285.99 33.17 287.85 35.11 288.80 C 39.80 291.91 45.46 292.92 50.36 295.62 C 57.30 299.47 65.27 300.56 72.80 302.71 C 54.39 287.29 35.94 271.92 17.50 256.54 C 14.93 254.51 13.94 251.30 12.48 248.51 C 10.93 245.31 8.72 242.42 7.59 239.03 C 7.50 235.22 9.19 231.69 10.40 228.16 C 16.22 211.95 22.00 195.71 27.69 179.45 C 29.74 175.77 32.79 172.75 35.40 169.47 C 36.91 167.25 39.74 167.14 42.11 166.60 C 67.12 161.96 92.01 156.73 117.04 152.19 C 119.93 151.82 123.01 150.64 125.83 151.97 C 129.11 153.35 132.52 154.61 135.44 156.69 C 138.34 159.53 140.15 163.24 142.41 166.57 C 155.07 186.25 167.72 205.95 180.37 225.65 C 182.97 229.62 185.29 233.81 188.42 237.41 C 189.42 228.48 184.20 220.53 182.66 211.96 C 180.53 205.13 180.37 197.62 176.58 191.39 C 167.13 174.49 157.75 157.56 148.20 140.72 C 142.52 128.97 135.95 117.68 129.81 106.18 C 128.26 103.15 126.20 100.33 125.23 97.04 C 125.07 93.36 126.12 89.77 126.69 86.17 C 127.89 80.29 128.31 73.94 131.94 68.91 C 136.94 61.72 142.06 54.62 147.02 47.41 Z" />
<path fill="#f5e5c1" opacity="1.00" d=" M 467.14 65.15 C 468.50 63.98 469.95 61.94 472.01 62.56 C 478.56 65.33 483.79 70.33 488.81 75.23 C 494.02 81.41 498.17 88.87 498.78 97.09 C 486.64 107.59 474.17 117.73 462.31 128.54 C 457.51 129.56 453.05 127.09 448.85 125.14 C 443.36 122.07 438.17 117.77 435.51 111.95 C 433.84 105.67 434.09 97.86 439.76 93.63 C 448.89 84.15 458.11 74.74 467.14 65.15 Z" />
<path fill="#3e3e3e" opacity="1.00" d=" M 469.46 68.53 C 473.33 67.00 476.89 69.94 479.55 72.43 C 485.34 77.53 490.55 83.61 493.08 91.02 C 493.57 92.53 493.71 94.30 492.67 95.62 C 491.16 98.63 487.20 98.00 484.58 97.18 C 476.67 92.24 469.04 85.43 466.77 76.01 C 465.75 73.26 467.04 70.06 469.46 68.53 Z" />
<path fill="#3e3e3e" opacity="1.00" d=" M 439.82 106.89 C 448.32 99.50 455.26 90.50 463.79 83.15 C 465.10 84.84 466.43 86.53 467.83 88.16 C 466.97 90.09 466.02 92.03 464.40 93.43 C 457.66 99.65 451.05 106.01 444.45 112.39 C 443.36 113.08 442.49 114.79 441.01 114.40 C 439.73 112.98 438.70 111.36 437.61 109.80 C 438.30 108.80 438.92 107.73 439.82 106.89 Z" />
<path fill="#3e3e3e" opacity="1.00" d=" M 392.91 113.83 C 395.56 111.69 398.07 109.29 401.23 107.93 C 401.93 110.78 402.65 113.64 403.71 116.40 C 383.84 133.23 363.66 149.70 343.78 166.52 C 343.04 163.34 342.03 160.21 341.59 156.97 C 341.93 154.64 343.85 153.08 345.53 151.66 C 361.37 139.10 377.10 126.41 392.91 113.83 Z" />
<path fill="#f5e5c1" opacity="1.00" d=" M 341.79 124.66 C 344.41 122.51 348.01 121.70 351.35 121.46 C 350.56 124.36 348.79 126.79 347.37 129.39 C 343.30 136.97 339.02 144.44 334.85 151.96 C 331.22 157.97 332.97 165.87 328.68 171.58 C 325.93 175.29 323.58 179.26 320.86 182.99 C 316.88 189.48 311.42 194.86 307.16 201.16 C 300.52 211.26 292.01 220.21 281.84 226.80 C 275.38 230.98 269.32 236.38 261.50 237.76 C 257.43 238.92 251.75 238.59 249.66 234.31 C 248.50 230.29 250.69 226.25 252.86 222.99 C 254.44 224.90 255.92 226.89 257.33 228.94 C 265.71 228.01 271.84 221.88 278.46 217.31 C 283.10 214.08 286.71 209.68 290.67 205.69 C 296.95 199.58 302.08 192.44 307.91 185.92 C 314.14 178.97 319.11 171.05 324.28 163.33 C 328.01 157.08 330.11 150.02 333.72 143.71 C 337.10 137.67 338.86 130.90 341.79 124.66 Z" />
<path fill="#f5e5c1" opacity="1.00" d=" M 312.58 135.53 C 317.65 132.25 322.21 127.98 327.92 125.81 C 329.95 125.90 331.95 126.33 333.97 126.62 C 334.00 130.38 333.28 134.09 331.50 137.43 C 324.59 154.93 313.82 170.57 302.48 185.46 C 298.65 190.91 293.58 195.29 289.14 200.21 C 280.82 209.50 269.97 215.91 259.69 222.75 C 258.20 219.57 256.39 216.48 255.45 213.08 C 261.26 201.52 266.90 189.81 273.81 178.85 C 276.75 173.93 281.04 170.05 284.35 165.41 C 288.66 159.44 293.79 154.14 298.76 148.73 C 303.14 144.11 307.11 138.95 312.58 135.53 Z" />
<path fill="#3e3e3e" opacity="1.00" d=" M 285.67 168.71 C 290.20 163.90 293.79 156.63 301.13 155.97 C 300.63 159.07 299.56 162.10 297.53 164.54 C 292.75 170.75 288.06 178.07 280.28 180.73 C 279.58 175.99 283.09 172.25 285.67 168.71 Z" />
<path fill="#3e3e3e" opacity="1.00" d=" M 42.84 173.80 C 68.23 168.83 93.59 163.77 118.96 158.74 C 122.38 157.85 125.73 159.35 128.84 160.63 C 128.02 164.94 125.77 168.76 124.55 172.95 C 120.98 184.29 117.18 195.56 113.65 206.92 C 112.24 212.15 110.61 217.73 106.54 221.56 C 103.31 224.65 100.29 227.95 97.00 230.98 C 95.65 232.29 93.74 232.56 91.97 232.89 C 81.02 234.76 70.08 236.73 59.13 238.65 C 45.85 241.06 32.97 245.22 19.77 247.94 C 18.05 244.82 16.03 241.87 13.98 238.96 C 19.94 221.81 25.22 204.43 30.44 187.03 C 31.55 182.54 35.18 179.39 38.03 175.96 C 39.16 174.42 41.12 174.20 42.84 173.80 Z" />
<path fill="#3e3e3e" opacity="1.00" d=" M 388.26 206.42 C 408.26 191.00 427.61 174.73 447.72 159.45 C 450.32 161.45 453.57 161.96 456.69 162.64 C 436.75 177.90 416.40 192.64 396.31 207.72 C 393.63 207.27 390.94 206.85 388.26 206.42 Z" />
<path fill="#f5e5c1" opacity="1.00" d=" M 96.89 174.62 C 101.99 173.87 106.86 172.04 111.95 171.25 C 114.44 171.65 117.23 172.23 119.06 174.07 C 119.42 177.01 118.23 179.83 117.40 182.60 C 113.97 192.44 110.40 202.23 106.89 212.05 C 105.89 215.60 102.16 217.18 100.08 220.00 C 97.50 222.53 95.81 226.56 91.96 227.33 C 71.15 231.64 50.32 235.87 29.53 240.34 C 28.13 240.59 26.70 240.83 25.27 240.73 C 23.43 238.69 22.44 235.79 23.42 233.11 C 27.14 221.40 31.14 209.77 34.88 198.06 C 36.13 193.70 38.94 190.04 41.62 186.47 C 42.63 185.11 44.53 185.07 45.93 184.36 C 44.17 187.71 41.73 191.11 42.18 195.11 C 42.36 199.13 45.75 203.27 50.04 202.92 C 53.36 202.82 56.01 200.41 57.90 197.89 C 61.35 193.30 63.81 187.29 61.91 181.55 C 68.73 180.18 75.57 178.89 82.38 177.48 C 79.77 180.20 76.83 183.12 76.53 187.11 C 76.32 190.61 75.68 194.84 78.47 197.56 C 81.94 200.74 87.58 199.85 90.93 196.92 C 97.21 191.80 101.29 182.16 96.89 174.62 Z" />
<path fill="#3e3e3e" opacity="1.00" d=" M 79.38 203.48 C 83.16 201.37 88.53 202.78 89.97 207.07 C 93.24 215.73 85.80 225.48 76.98 226.29 C 72.35 225.67 68.76 220.67 69.56 216.07 C 70.45 210.59 74.29 205.68 79.38 203.48 Z" />
<path fill="#3e3e3e" opacity="1.00" d=" M 42.40 209.57 C 45.43 208.52 49.18 207.83 51.86 210.08 C 55.12 212.53 55.37 217.29 53.72 220.75 C 51.77 225.02 49.31 229.73 44.69 231.54 C 41.81 232.77 37.87 232.92 35.78 230.19 C 30.17 223.54 34.94 212.52 42.40 209.57 Z" />
<path fill="#3e3e3e" opacity="1.00" d=" M 102.14 234.45 C 103.93 231.44 106.60 229.08 108.85 226.41 C 110.04 227.78 111.26 229.14 112.55 230.42 C 130.35 247.54 148.10 264.72 165.83 281.93 C 163.94 283.72 161.98 285.44 159.98 287.10 C 140.64 269.62 121.32 252.10 102.14 234.45 Z" />
<path fill="#3e3e3e" opacity="1.00" d=" M 360.97 297.12 C 370.22 295.86 379.60 294.83 388.94 295.83 C 396.33 296.99 403.48 299.26 410.54 301.67 C 413.64 302.80 415.71 305.81 416.17 309.01 C 418.21 320.19 419.54 331.47 421.34 342.69 C 422.14 347.27 422.69 352.65 419.33 356.40 C 413.68 362.26 406.43 366.20 399.79 370.79 C 392.25 374.82 383.69 376.60 375.25 377.55 C 368.23 378.33 361.05 379.17 354.08 377.59 C 347.45 375.99 339.55 376.78 334.64 371.15 C 334.19 371.22 333.29 371.37 332.84 371.45 C 332.16 374.30 332.20 377.75 329.88 379.86 C 327.39 381.62 324.36 382.32 321.58 383.46 C 321.84 384.90 322.11 386.35 322.38 387.81 C 325.64 387.38 329.00 386.98 332.25 387.79 C 338.10 388.98 342.22 393.66 346.64 397.30 C 363.16 411.12 379.51 425.13 396.00 438.99 C 397.11 440.11 398.94 440.32 400.14 439.19 C 405.16 435.31 409.80 430.94 414.30 426.47 C 404.56 417.52 396.40 407.08 387.98 396.93 C 385.86 394.43 385.45 390.71 386.83 387.76 C 388.65 385.24 391.54 383.79 393.99 381.95 C 417.60 365.21 441.27 348.54 464.89 331.81 C 469.66 328.35 475.89 330.64 481.08 331.81 C 485.03 332.55 486.75 336.51 487.97 339.88 C 495.96 360.80 504.16 381.65 512.00 402.63 L 512.00 413.06 C 508.40 427.51 505.24 442.08 501.70 456.55 C 505.13 455.85 508.59 455.24 512.00 454.39 L 512.00 464.24 C 509.03 464.50 505.22 463.22 503.09 465.96 C 497.57 472.03 492.49 478.49 486.90 484.49 C 488.74 478.58 491.24 472.88 492.58 466.82 C 497.04 447.53 501.66 428.27 506.02 408.96 C 506.62 406.85 505.85 404.75 505.15 402.78 C 498.08 384.79 491.19 366.72 484.17 348.71 C 482.81 345.36 481.86 341.83 480.07 338.68 C 476.92 337.23 473.36 337.06 470.00 336.42 C 444.09 354.84 418.01 373.02 392.16 391.53 C 396.62 396.84 401.00 402.21 405.45 407.53 C 411.20 414.51 418.21 420.28 424.58 426.68 C 410.94 439.34 396.54 451.22 384.07 465.07 C 378.72 469.79 373.83 475.00 368.55 479.78 C 370.03 474.97 372.06 470.37 373.93 465.72 C 376.96 457.63 384.00 451.68 386.19 443.19 C 381.22 438.29 375.49 434.29 370.16 429.83 C 356.72 418.75 343.32 407.63 329.94 396.49 C 325.99 398.38 321.56 400.19 319.11 404.05 C 316.73 407.97 315.42 412.41 313.72 416.65 C 311.18 423.71 305.86 429.88 298.96 432.94 C 294.02 435.27 289.69 439.20 284.08 439.85 C 277.38 440.72 270.74 442.19 263.99 442.68 C 241.53 442.92 219.05 444.26 196.60 443.08 C 208.39 441.34 220.25 440.09 232.05 438.42 C 231.56 436.59 231.46 434.44 229.86 433.17 C 226.56 430.12 222.69 427.66 219.98 424.03 C 214.58 416.99 208.95 409.98 205.16 401.91 C 202.03 392.82 198.93 383.59 197.80 374.00 C 197.80 367.78 198.82 361.59 199.74 355.46 C 202.68 344.00 206.07 332.55 211.82 322.15 C 194.50 323.12 177.43 326.47 160.25 328.73 C 158.80 331.75 157.36 334.77 155.92 337.79 C 165.50 336.76 175.07 335.63 184.62 334.34 C 184.53 337.52 184.04 340.72 182.72 343.64 C 180.13 349.77 178.18 356.14 176.28 362.51 C 167.06 363.79 157.78 364.42 148.56 365.64 C 145.33 374.92 149.04 384.84 146.49 394.22 C 137.60 395.18 128.75 396.49 119.85 397.41 C 118.30 397.89 117.38 396.34 116.99 395.12 C 114.51 386.61 115.19 377.53 117.26 369.01 C 109.26 369.69 101.29 370.63 93.32 371.50 C 92.33 362.18 94.73 352.19 101.57 345.48 C 103.13 343.66 105.65 343.63 107.85 343.32 C 113.70 342.72 119.55 342.02 125.39 341.34 C 126.52 338.63 127.62 335.90 128.69 333.17 C 103.78 336.60 78.89 340.25 53.98 343.70 C 50.23 344.30 45.96 344.22 42.99 346.96 C 36.53 352.33 31.80 359.46 27.57 366.64 C 23.34 375.76 19.73 385.73 20.89 395.95 C 21.68 401.70 20.75 407.86 23.56 413.18 C 28.24 422.60 32.62 432.38 39.66 440.34 C 45.77 447.32 51.91 454.98 60.80 458.47 C 64.99 460.62 69.74 458.99 74.13 458.59 C 90.80 456.50 107.46 454.28 124.15 452.35 C 112.85 456.25 101.59 460.28 90.31 464.23 C 83.66 466.49 77.13 469.46 70.03 469.98 C 63.75 470.52 57.55 472.00 51.25 472.05 C 43.91 467.07 38.30 460.05 31.59 454.32 C 25.89 449.59 23.39 442.40 19.39 436.37 C 12.99 439.65 6.38 442.51 0.00 445.82 L 0.00 433.80 C 4.58 431.19 9.85 430.05 14.36 427.34 C 18.03 423.55 18.21 417.29 16.20 412.62 C 13.88 406.63 14.92 400.10 13.87 393.88 C 13.94 382.36 17.51 371.05 22.87 360.93 C 28.37 352.70 34.02 343.86 42.95 339.00 C 47.76 337.12 53.05 337.26 58.06 336.20 C 79.39 333.10 100.77 330.30 122.08 327.07 C 153.12 323.73 183.77 317.26 214.91 314.83 C 227.59 313.92 239.87 310.28 252.53 309.30 C 257.47 309.14 262.34 310.23 267.23 310.76 C 280.41 311.88 291.78 319.44 302.58 326.43 C 306.69 327.25 310.85 325.20 315.00 325.64 C 318.94 326.37 321.79 329.41 323.87 332.62 C 324.72 332.46 326.42 332.13 327.28 331.96 C 326.60 327.39 325.02 322.12 327.98 318.00 C 332.74 312.26 338.03 306.69 344.54 302.95 C 349.97 300.91 355.13 297.88 360.97 297.12 Z" />
<path fill="#f4722b" opacity="1.00" d=" M 360.94 304.12 C 371.51 302.45 382.49 301.12 393.03 303.73 C 398.63 304.79 403.92 306.96 409.30 308.82 C 411.36 321.87 413.32 334.94 415.20 348.02 C 415.63 351.94 411.87 354.13 409.18 356.16 C 403.33 360.12 397.88 365.00 390.99 367.08 C 383.41 370.29 375.10 370.66 367.03 371.41 C 359.25 372.26 351.62 370.14 343.99 369.02 C 341.65 368.85 339.88 366.95 339.64 364.67 C 337.28 350.83 334.73 337.01 332.79 323.10 C 337.78 317.39 342.68 310.96 349.97 308.10 C 353.63 306.78 357.03 304.65 360.94 304.12 Z" />
<path fill="#3e3e3e" opacity="1.00" d=" M 369.54 310.83 C 376.79 309.92 384.42 308.93 391.45 311.52 C 396.18 313.83 395.12 320.02 393.12 323.88 C 391.48 328.10 387.50 330.63 383.65 332.60 C 377.47 335.45 370.85 337.75 363.95 337.57 C 356.79 338.28 348.60 336.95 343.72 331.22 C 342.34 327.27 345.00 323.31 347.53 320.49 C 353.76 315.29 361.58 312.17 369.54 310.83 Z" />
<path fill="#f4722b" opacity="1.00" d=" M 224.50 320.69 C 232.92 319.13 241.36 317.52 249.88 316.45 C 255.94 315.62 261.97 316.99 267.97 317.68 C 273.85 318.24 279.16 320.99 284.42 323.44 C 288.88 325.53 293.05 328.17 297.08 330.99 C 293.32 343.16 293.62 356.63 298.64 368.39 C 302.76 375.34 308.55 381.30 315.43 385.56 C 312.60 394.26 310.87 403.66 305.15 411.09 C 301.84 415.12 298.95 419.54 295.03 423.03 C 292.36 425.56 289.91 428.98 285.97 429.44 C 271.97 431.34 258.05 434.00 244.02 435.55 C 235.60 433.10 230.35 425.56 224.51 419.57 C 220.78 415.98 218.57 411.27 216.41 406.66 C 212.16 397.37 206.77 388.24 205.74 377.89 C 204.45 371.30 205.56 364.53 206.84 358.03 C 208.71 350.37 209.74 342.38 213.47 335.32 C 216.06 329.83 218.51 323.28 224.50 320.69 Z" />
<path fill="#f4722b" opacity="1.00" d=" M 160.25 328.73 C 177.43 326.47 194.50 323.12 211.82 322.15 C 206.07 332.55 202.68 344.00 199.74 355.46 C 198.82 361.59 197.80 367.78 197.80 374.00 C 198.93 383.59 202.03 392.82 205.16 401.91 C 208.95 409.98 214.58 416.99 219.98 424.03 C 222.69 427.66 226.56 430.12 229.86 433.17 C 231.46 434.44 231.56 436.59 232.05 438.42 C 220.25 440.09 208.39 441.34 196.60 443.08 C 219.05 444.26 241.53 442.92 263.99 442.68 C 270.74 442.19 277.38 440.72 284.08 439.85 C 289.69 439.20 294.02 435.27 298.96 432.94 C 305.86 429.88 311.18 423.71 313.72 416.65 C 315.42 412.41 316.73 407.97 319.11 404.05 C 321.56 400.19 325.99 398.38 329.94 396.49 C 343.32 407.63 356.72 418.75 370.16 429.83 C 375.49 434.29 381.22 438.29 386.19 443.19 C 384.00 451.68 376.96 457.63 373.93 465.72 C 372.06 470.37 370.03 474.97 368.55 479.78 C 373.83 475.00 378.72 469.79 384.07 465.07 C 396.54 451.22 410.94 439.34 424.58 426.68 C 418.21 420.28 411.20 414.51 405.45 407.53 C 401.00 402.21 396.62 396.84 392.16 391.53 C 418.01 373.02 444.09 354.84 470.00 336.42 C 473.36 337.06 476.92 337.23 480.07 338.68 C 481.86 341.83 482.81 345.36 484.17 348.71 C 491.19 366.72 498.08 384.79 505.15 402.78 C 505.85 404.75 506.62 406.85 506.02 408.96 C 501.66 428.27 497.04 447.53 492.58 466.82 C 491.24 472.88 488.74 478.58 486.90 484.49 C 492.49 478.49 497.57 472.03 503.09 465.96 C 505.22 463.22 509.03 464.50 512.00 464.24 L 512.00 512.00 L 0.00 512.00 L 0.00 445.82 C 6.38 442.51 12.99 439.65 19.39 436.37 C 23.39 442.40 25.89 449.59 31.59 454.32 C 38.30 460.05 43.91 467.07 51.25 472.05 C 57.55 472.00 63.75 470.52 70.03 469.98 C 77.13 469.46 83.66 466.49 90.31 464.23 C 101.59 460.28 112.85 456.25 124.15 452.35 C 107.46 454.28 90.80 456.50 74.13 458.59 C 69.74 458.99 64.99 460.62 60.80 458.47 C 51.91 454.98 45.77 447.32 39.66 440.34 C 32.62 432.38 28.24 422.60 23.56 413.18 C 20.75 407.86 21.68 401.70 20.89 395.95 C 19.73 385.73 23.34 375.76 27.57 366.64 C 31.80 359.46 36.53 352.33 42.99 346.96 C 45.96 344.22 50.23 344.30 53.98 343.70 C 78.89 340.25 103.78 336.60 128.69 333.17 C 127.62 335.90 126.52 338.63 125.39 341.34 C 119.55 342.02 113.70 342.72 107.85 343.32 C 105.65 343.63 103.13 343.66 101.57 345.48 C 94.73 352.19 92.33 362.18 93.32 371.50 C 101.29 370.63 109.26 369.69 117.26 369.01 C 115.19 377.53 114.51 386.61 116.99 395.12 C 117.38 396.34 118.30 397.89 119.85 397.41 C 128.75 396.49 137.60 395.18 146.49 394.22 C 149.04 384.84 145.33 374.92 148.56 365.64 C 157.78 364.42 167.06 363.79 176.28 362.51 C 178.18 356.14 180.13 349.77 182.72 343.64 C 184.04 340.72 184.53 337.52 184.62 334.34 C 175.07 335.63 165.50 336.76 155.92 337.79 C 157.36 334.77 158.80 331.75 160.25 328.73 Z" />
<path fill="#f4722b" opacity="1.00" d=" M 301.55 334.35 C 305.76 333.47 310.01 332.79 314.27 332.18 C 316.33 334.00 318.21 336.03 319.94 338.17 C 317.03 342.71 316.29 348.57 318.52 353.55 C 319.78 356.97 322.98 359.02 325.86 360.96 C 325.48 365.43 325.95 369.93 325.56 374.39 C 322.54 376.00 319.23 376.96 316.05 378.18 C 312.43 374.38 307.93 371.43 304.71 367.26 C 298.62 357.39 300.03 345.28 301.55 334.35 Z" />
<path fill="#f4722b" opacity="1.00" d=" M 322.18 340.08 C 325.20 338.49 328.90 338.75 332.21 338.07 C 330.02 344.12 331.66 350.66 334.84 356.02 C 332.36 356.47 329.94 357.25 327.44 357.54 C 321.08 354.42 319.76 346.18 322.18 340.08 Z" />
<path fill="#3e3e3e" opacity="1.00" d=" M 472.87 346.44 C 473.39 346.42 474.44 346.37 474.96 346.34 C 477.51 348.85 479.37 351.96 481.61 354.74 C 479.83 358.45 477.93 362.10 475.79 365.61 C 471.66 366.25 467.46 366.31 463.34 365.54 C 461.31 363.50 459.23 361.50 457.12 359.54 C 458.38 355.47 459.50 351.17 462.46 347.95 C 462.56 350.38 462.57 352.82 462.52 355.26 C 464.91 358.05 468.65 359.80 472.27 358.36 C 474.04 356.74 475.41 354.75 476.94 352.91 C 475.61 350.73 474.21 348.61 472.87 346.44 Z" />
<path fill="#3e3e3e" opacity="1.00" d=" M 421.03 390.01 C 421.73 385.84 421.68 381.13 424.78 377.87 C 424.65 379.78 424.40 381.68 424.21 383.58 C 426.11 384.51 428.04 385.42 429.96 386.35 C 431.68 385.72 433.41 385.10 435.13 384.42 C 435.94 382.87 436.85 381.37 437.90 379.97 C 437.53 384.52 437.67 391.05 432.19 392.49 C 428.33 395.16 424.57 391.47 421.03 390.01 Z" />
<path fill="#3e3e3e" opacity="1.00" d=" M 403.99 391.28 C 406.30 389.37 408.58 387.42 410.85 385.46 C 421.68 396.53 432.28 407.86 443.22 418.81 C 446.49 418.75 449.58 417.54 452.74 416.79 C 468.20 412.74 483.66 408.69 499.13 404.69 C 501.35 403.66 501.83 406.60 502.31 408.05 C 502.46 410.22 501.47 413.27 498.94 413.60 C 481.82 418.17 464.72 422.79 447.59 427.32 C 443.64 428.23 441.06 431.64 438.58 434.58 C 430.41 446.37 421.79 457.84 413.35 469.45 C 407.55 470.63 402.10 468.48 396.97 466.03 C 407.01 456.36 417.38 447.06 427.64 437.63 C 431.27 434.44 435.07 431.33 437.72 427.22 C 436.38 424.99 435.11 422.67 433.19 420.87 C 423.15 411.32 413.31 401.54 403.99 391.28 Z" />
<path fill="#f5e5c1" opacity="1.00" d=" M 501.70 456.55 C 505.24 442.08 508.40 427.51 512.00 413.06 L 512.00 454.39 C 508.59 455.24 505.13 455.85 501.70 456.55 Z" />
</svg>
