<?xml version="1.0" encoding="UTF-8" standalone="no"?>
<svg
   xmlns:dc="http://purl.org/dc/elements/1.1/"
   xmlns:cc="http://creativecommons.org/ns#"
   xmlns:rdf="http://www.w3.org/1999/02/22-rdf-syntax-ns#"
   xmlns:svg="http://www.w3.org/2000/svg"
   xmlns="http://www.w3.org/2000/svg"
   xmlns:sodipodi="http://sodipodi.sourceforge.net/DTD/sodipodi-0.dtd"
   xmlns:inkscape="http://www.inkscape.org/namespaces/inkscape"
   width="1280"
   height="1280"
   viewBox="0 0 1024 1024"
   version="1.1"
   id="svg2"
   inkscape:version="0.48.1 "
   sodipodi:docname="force_waterjump.svg">
  <metadata
     id="metadata24">
    <rdf:RDF>
      <cc:Work
         rdf:about="">
        <dc:format>image/svg+xml</dc:format>
        <dc:type
           rdf:resource="http://purl.org/dc/dcmitype/StillImage" />
      </cc:Work>
    </rdf:RDF>
  </metadata>
  <defs
     id="defs22" />
  <sodipodi:namedview
     pagecolor="#ffffff"
     bordercolor="#666666"
     borderopacity="1"
     objecttolerance="10"
     gridtolerance="10"
     guidetolerance="10"
     inkscape:pageopacity="0"
     inkscape:pageshadow="2"
     inkscape:window-width="1920"
     inkscape:window-height="1018"
     id="namedview20"
     showgrid="false"
     inkscape:snap-page="true"
     fit-margin-top="0"
     fit-margin-left="0"
     fit-margin-right="0"
     fit-margin-bottom="0"
     inkscape:zoom="0.6609375"
     inkscape:cx="640"
     inkscape:cy="640"
     inkscape:window-x="-8"
     inkscape:window-y="-8"
     inkscape:window-maximized="1"
     inkscape:current-layer="svg2" />
  <rect
     style="fill:#3e3e3e;fill-opacity:1"
     id="rect3005"
     width="1024"
     height="1024"
     x="0"
     y="0" />
  <path
     d="m 717.5,31.62 c 27.66,-9.8 57.84,-7.42 86.32,-2.66 6.76,1.02 14,4.24 16.68,11.04 0.52,5.76 0,11.58 0.06,17.36 10.24,4.4 23.9,5.74 30.04,16.1 1.34,18.96 0.14,38.06 0.48,57.06 12.48,10.3 27.5,17.88 37.22,31.18 22.2,20.84 39.56,47.18 48.02,76.56 2.54,9.82 7.4,19.24 7.2,29.6 0.18,21.2 -1.12,42.38 -2.6,63.52 15.24,1.62 30.8,5.2 43.6,14.06 6.76,4.34 12.5,12.2 10.76,20.62 -2.72,20.76 -5.74,41.5 -8.44,62.28 -0.22,4.2 -2.26,8.24 -5.94,10.44 -16.68,11.5 -33.58,22.66 -49.92,34.64 -3.78,43.94 -5.96,88.02 -9.46,132 -3.24,57.62 -8.52,115.1 -11.34,172.76 12.5,8.02 24.98,16.08 37.52,24.02 7.9,4.48 11.56,13.56 14.54,21.66 0.28,28.68 0.52,57.44 -1.04,86.08 -3.86,9.7 -7,20.84 -16.38,26.78 -10.62,7.26 -22.44,12.96 -34.52,17.36 -21.46,5.18 -42.54,12.18 -64.52,14.74 -31.92,8.34 -65.1,5.52 -97.72,5.88 -20.84,-1.46 -41.46,-5.12 -62.2,-7.52 -19.06,-1.84 -36.86,-9.36 -55.16,-14.44 -18.26,-4.92 -35.32,-13.24 -52.38,-21.2 -6.12,-6.72 -10.58,-16.16 -9.84,-25.52 0.92,-25.4 1.08,-50.82 2.22,-76.22 3.68,-5.24 7.2,-10.84 12.66,-14.44 16.78,-11.92 33.4,-24.08 50.18,-36 -2.44,-25.52 -6.12,-50.9 -8.7,-76.4 11.74,0.24 23.68,2.22 35.24,-0.82 18.32,-4.8 38.28,-5.18 54.84,-15.28 6.42,-3.52 10,-10.2 14.36,-15.78 5.22,-7.42 11.6,-14.14 15.28,-22.54 5.76,-13.26 12.68,-26.3 14.54,-40.82 6.14,-25.94 4.18,-54.4 -8.82,-77.98 -4.88,-6.94 -10.2,-13.84 -16.94,-19.06 -13.66,-8.68 -29.04,-14.08 -44.12,-19.72 -17.72,-6.92 -36.98,-7.64 -55.74,-8.22 -5.68,-6.14 -11.62,-12.02 -17.72,-17.72 58.7,9.02 117.66,17.42 177.14,18.32 -0.56,110 -0.64,220 -1.06,330 -20.7,0.82 -41.26,-1.86 -61.76,-4.1 -18.7,-3.58 -37.98,-5 -55.88,-11.92 -8.06,-2.38 -15.82,-6.24 -24.22,-7.18 -3.42,0.72 -6.04,3.3 -8.86,5.18 -13.7,10.34 -27.86,20.06 -41.44,30.52 16.1,4.88 31.76,11.14 48.1,15.22 17.02,4.44 34.02,9.06 51.08,13.38 14.22,2.62 28.72,3.28 43.06,5.08 26.94,3.38 54.12,3.08 81.2,3.26 3.42,30.2 6.54,60.42 9.96,90.62 18.28,-3.52 36.74,-6.06 54.96,-9.8 14.44,-5 28.62,-10.9 42.68,-16.88 7.24,-6.3 16.12,-14.16 14.68,-24.78 -0.58,-21.3 -0.56,-42.62 -0.96,-63.92 -0.18,-8.4 -3.7,-16.2 -6.1,-24.1 -14.02,-5.52 -28.36,-10.22 -42.12,-16.32 -4,-1.46 -6.38,-5.4 -5.48,-9.62 8.32,-104.6 16.6,-209.2 24.9,-313.78 1.52,-6.52 8.64,-9.36 13.24,-13.5 12.74,-10.46 26.52,-19.82 38.56,-31.02 4.68,-23.1 7.82,-46.52 11.78,-69.76 -10.82,-10.66 -26.8,-12.96 -41.3,-13.72 -5.12,-0.36 -13.36,-1.1 -13.1,-8.04 1.2,-24.06 5.58,-48.04 4.22,-72.22 -0.46,-5 -2.82,-9.56 -4.5,-14.22 -4.28,-10.38 -7.32,-21.36 -13.18,-31.02 -7.48,-12.46 -14.12,-25.54 -23.54,-36.7 -6.96,-8.34 -13.08,-17.42 -20.68,-25.22 -6.96,-5.48 -15.94,-7.64 -23.12,-12.84 -3.24,-2.08 -3.06,-6.32 -3.62,-9.68 -1.94,-19.62 -3.7,-39.24 -5.74,-58.86 -7.64,-3.02 -15.22,-6.18 -23.14,-8.42 -1.18,-9.24 -3.14,-18.36 -4.82,-27.52 -11.6,-1.56 -23.04,-4.52 -34.76,-4.78 -18.36,0.7 -37.1,0.94 -54.68,7.02 1.86,2.4 3.72,5.32 6.92,6.06 13.34,4.18 27.4,5.94 41.36,5.68 0.86,7.3 1.28,14.66 1.58,22.02 -18.86,0.86 -36.94,-5.12 -55.32,-8.22 -6.88,1.04 -15.16,3.56 -17.84,10.74 1.8,2.22 4.1,4.08 6.84,5.04 26.46,8.96 54.64,13.66 82.6,11.68 -1.08,20.74 2.78,41.28 2.18,62.02 -24.9,1.88 -49.76,-2.54 -73.92,-8.18 -7.12,-1.34 -13.54,-4.7 -19.78,-8.2 -4.1,6.68 -8.3,13.28 -12.56,19.86 9.72,5.14 20.42,8.02 30.7,11.82 18.82,3.94 38.04,5.96 57.26,6.9 3.88,22.34 6.92,44.8 10.5,67.2 2.52,32.58 1.94,65.3 1.74,97.96 -0.06,4.64 -0.48,9.26 -0.94,13.86 -26.26,-1.62 -52.86,-1.04 -78.72,-6.6 -30.14,-5.4 -60.2,-11.22 -90.28,-16.9 -8.56,-1.72 -17.24,0.14 -25.82,0.74 -9.08,0.78 -18.24,4.98 -23.26,12.82 -2.38,3.9 0.4,8.32 1.08,12.36 27.42,7.14 54.24,17.02 82.42,20.88 28.86,5.2 57.92,9.16 87.04,12.42 16.88,2.72 34,1.64 51.02,1.92 21.2,-0.18 42.4,-0.88 63.62,-0.74 -1.2,22.36 0.5,44.88 -2.48,67.12 0.04,3.58 -4.12,4.74 -7.02,4.32 -26.7,-1.62 -53.44,-2.46 -80.16,-3.14 -11.44,0.22 -22.72,-1.82 -34.06,-2.94 -14.7,-1.76 -29.62,-1.3 -44.2,-4.02 -17.48,-2.54 -34.74,-6.24 -52.08,-9.5 -22.76,-3.28 -43.06,-14.72 -64.62,-22 -2.68,-3.78 -5.88,-7.58 -6.24,-12.42 -2.6,-16.68 -5.1,-33.36 -7.72,-50.04 -0.54,-5.96 -2.38,-12.7 1.12,-18.12 4.38,-7.34 10,-14.72 18.28,-17.86 10.98,-5.08 23.04,-7.46 35.1,-7.74 2,-18.86 3.68,-37.76 5.04,-56.68 6.92,-39.14 26.02,-76.78 56.26,-103.04 8.62,-6.9 13.88,-16.92 19.18,-26.4 1.36,-18.68 1.18,-37.54 1.44,-56.28 1.12,-12.8 15.46,-16.04 25.56,-19.24 -0.14,-9.5 -2.14,-22.36 8.42,-27.24 z"
     id="path6"
     inkscape:connector-curvature="0"
     style="fill:#f5e5c1" />
  <path
     d="m 114.94,305.9 c -2.18,-15.66 11.3,-30.94 26.92,-31.58 10.2,-0.9 19.76,3.2 29.2,6.38 21.3,6.64 40.92,17.46 60.92,27.14 -14.02,3.34 -28.04,6.8 -41.86,10.86 -15.72,5.26 -31.06,14.14 -48.2,12.72 -13.58,-0.62 -25.82,-11.86 -26.98,-25.52 z"
     id="path8"
     inkscape:connector-curvature="0"
     style="fill:#f4722b" />
  <path
     style="fill:#f4722b"
     d="m 245.9,373.8 c -21.34,0.38 -42.58,2.34 -63.9,3.2 -11.5,0.34 -22.53,3.95 -33.95,4.95 -18.04,1.36 -34.62,9.06 -51.7,14.4 -18.02,5.62 -34.88,14.16 -52,22 C 29.63,425.35 14.5,431.52 0,439 l 0,84.3 c 11.3375,-8.62499 22.494141,-17.59688 34.15,-25.8 3.031162,-2.13326 6.088222,-4.23848 9.2,-6.25 1.663909,-1.07562 3.357453,-2.1177 5.05,-3.15 1.204997,-0.73478 2.428978,-1.48971 3.65,-2.2 1.23336,-0.71718 2.49875,-1.41 3.75,-2.1 6.24,-3.62 12.43375,-7.40563 18.65,-11.15 6.21625,-3.74437 12.455,-7.4525 18.8,-10.95 6.345,-3.4975 12.82375,-6.77062 19.45,-9.65 6.62625,-2.87938 13.44,-5.36 20.5,-7.25 4.385,-1.4875 8.8018,-2.84078 13.25,-4.05 4.46389,-1.21349 8.93365,-2.27672 13.45,-3.25 4.48461,-0.96643 8.97469,-1.83101 13.5,-2.6 2.27067,-0.38586 4.57117,-0.75643 6.85,-1.1 4.55768,-0.68715 9.11795,-1.30222 13.7,-1.85 0.0164,-0.002 0.0336,0.002 0.05,0 11.43891,-1.36642 22.93029,-2.36891 34.4,-3.3 4.59445,-0.37298 9.22,-0.7275 13.8,-1.1 16.26,-0.64 32.52,-0.94499 48.8,-0.6 0.0166,3.5e-4 0.0334,-3.5e-4 0.05,0 8.12339,0.17278 16.24406,0.52918 24.35,1.05 0.0166,0.001 0.0334,-0.001 0.05,0 6.07528,0.39093 12.14186,0.87992 18.2,1.5 0.0164,0.002 0.0336,-0.002 0.05,0 2.00845,0.20579 4.04389,0.41691 6.05,0.65 25.94,5.1 51.69,11.2 77.45,17.2 6.78,1.56 13.2975,3.9025 19.7,6.55 6.40501,2.64 12.7,5.57 19.05,8.3 2.14,0.9125 4.26555,1.85824 6.4,2.8 4.25579,1.87803 8.51675,3.84696 12.7,5.9 0.0134,0.007 0.0366,-0.007 0.05,0 2.08403,1.02334 4.14693,2.06882 6.2,3.15 0.0132,0.007 0.0368,-0.007 0.05,0 4.12114,2.17085 8.15486,4.48854 12.1,6.95 0.0121,0.007 0.0379,-0.007 0.05,0 0.9769,0.61011 1.93651,1.26904 2.9,1.9 0.0117,0.008 0.0383,-0.008 0.05,0 0.96342,0.6313 1.90106,1.29666 2.85,1.95 0.0114,0.008 0.0386,-0.008 0.05,0 0.94888,0.6537 1.86664,1.32307 2.8,2 0.0111,0.008 0.0389,-0.008 0.05,0 0.93354,0.67747 1.88304,1.39808 2.8,2.1 1.60501,1.5725 3.22656,3.09707 4.9,4.6 1.67234,1.50266 3.38813,2.98875 5.1,4.45 5.99157,5.11437 12.14077,10.05904 17.85,15.45 0.8156,0.77014 1.60406,1.56 2.4,2.35 0.80558,0.7984 1.61822,1.57774 2.4,2.4 0.7728,0.81342 1.50382,1.60962 2.25,2.45 1.51016,1.69733 2.9208,3.42118 4.3,5.25 -3.36,-1.98 -6.62219,-4.03563 -9.9,-6.15 -0.0193,-0.0125 -0.0307,-0.0375 -0.05,-0.05 -4.89704,-3.15965 -9.79693,-6.38546 -14.75,-9.45 -4.97262,-3.07664 -10.0325,-5.99501 -15.35,-8.5 -2.30538,-1.34501 -4.62686,-2.56344 -7,-3.75 -1.17949,-0.5901 -2.35614,-1.194 -3.55,-1.75 -2.40246,-1.11928 -4.79824,-2.14715 -7.25,-3.15 -1.21808,-0.49827 -2.42206,-0.97538 -3.65,-1.45 -12.28515,-4.75214 -25.0125,-8.4 -37.45,-12.7 -20.44,-6.42 -40.92,-12.74 -61.6,-18.3 -1.95875,-0.45501 -3.93419,-0.8868 -5.9,-1.3 -3.93162,-0.8264 -7.84354,-1.58046 -11.8,-2.25 -1.97824,-0.33477 -3.9664,-0.65187 -5.95,-0.95 -3.96718,-0.59626 -7.96477,-1.09 -11.95,-1.55 -15.92442,-1.8381 -31.96816,-2.63899 -48,-2.85 -0.0166,-2.1e-4 -0.0334,2.1e-4 -0.05,0 -4.01211,-0.0525 -7.9925,-0.065 -12,-0.05 -2.55501,0.06 -5.10374,0.17157 -7.65,0.35 -7.63875,0.54374 -15.24501,1.52 -22.85,2.3 -38.92,3.18 -76.94,13.76 -113.1,28.2 -11.42,5.93 -22.5525,12.36 -33.55,19.05 -4.43389,2.69499 -8.85144,5.4975 -13.25,8.25 -1.058854,0.66261 -2.142523,1.28541 -3.2,1.95 -5.43644,3.41885 -10.876899,6.87253 -16.3,10.3 C 52.76,538.48 31.682032,560.09426 9.55,580.4 6.3888282,583.30027 3.22,586.1725 0,589 l 0,435 1024,0 0,-148.2 c -13.32,0.3 -26.65,0.34 -39.95,0.1 -0.42,10.08 -0.26,20.12 0.1,30.2 1.72,17.52 -12.22,30.51 -18.3,45.75 -2.52,7.24 -9.38,10.85 -15.8,14.05 -9.02,4.64 -17.73,10.34 -27.85,12.3 -21.5,4.4 -43.07,8.49 -64.55,12.95 -17.66,3.88 -35.81,3.73 -53.75,5.35 -21.16,1.06 -42.35,4.22 -63.55,2.3 -24.7,-2.24 -49.43,-4.38 -74.15,-6.5 -15.68,-1.26 -30.36,-7.43 -45.4,-11.55 -22.22,-7.04 -46.3,-11.41 -64.7,-26.75 -4.4,-3.62 -9.29,-7.83 -9.65,-13.95 -2.46,-22.88 -2.73,-45.99 -5.45,-68.85 -58.86,-0.22 -117.77,-0.23 -176.65,-0.05 5.72,8.3 11.77,16.66 20.25,22.4 20.68,14.52 43.2,26.63 67.1,34.95 8.84,3.16 17.96,5.5 26.8,8.7 -18.74,-1.62 -37.36,-4.67 -55.9,-7.75 -26.36,-6.86 -55.27,-12.76 -74.75,-33.4 -21.74,-25.74 -33.91,-60.21 -30.55,-93.95 0.82,-11.1 4.04,-21.83 6.4,-32.65 3.64,-16.46 11.24,-31.71 19.4,-46.35 8.76,-14.14 17.77,-28.63 30.65,-39.45 10.72,-9.14 24.03,-14.5 37.35,-18.6 15.12,-3.44 30.69,-4.41 46.05,-6.45 26.94,-4 54.33,-1.24 81.15,2.4 21.84,4.16 43.51,9.55 65.75,11.35 16.22,1.32 33.59,-3.36 45.45,-14.9 7.02,-6.64 13.75,-14.11 16.65,-23.55 7.74,-24.88 8.26,-52.01 0.6,-76.95 -7.22,-18.52 -21.17,-33.01 -33.55,-48.15 -16.22,-19.36 -36.9,-34.24 -57.6,-48.4 -8.88,-6.06 -17.87,-12.18 -27.85,-16.3 -22.48,-9.5 -45,-18.87 -67.4,-28.55 -5.92,-2.6 -12.08,-4.59 -18.4,-5.85 -25.4,-5.54 -49.86,-14.67 -75,-20.95 -31.92,-2.96 -62.92,-12.82 -95.1,-13.1 -15.3,-0.5 -30.63,-1.41 -45.95,-1.85 z m 168.6,199 c 6.85501,-0.025 13.68,0.24 20.45,1.5 15.82,2.82 32.2,3.64 47.2,9.9 35.14,11.44 69.28,25.52 104.3,37.3 -19.62,-1.02 -38.83,-5.99 -58.45,-7.05 -23.34,-1.58 -46.63,-4.85 -70.05,-4.35 -16.08,2.02 -32.46,3.34 -47.9,8.6 -21.46,6.94 -43.91,11.81 -63.25,23.95 -17.32,7.54 -30.59,21.28 -43.75,34.4 -7.98,9.98 -16.51,19.65 -23.55,30.35 -9.58,19.3 -18.17,39.21 -22.45,60.45 -8.18,43.12 -1.79,88.67 17.05,128.25 15.56,21.78 37.04,38.99 60.6,51.45 18.36,9.1 36.86,17.98 56,25.3 -13.72,1.7 -27.18,-2.04 -40.6,-4.3 -24.42,-5.32 -48.12,-14.24 -69.7,-26.9 -15.06,-10.5 -31.78,-20.37 -41.2,-36.75 -4.56,-7.58 -10.09,-14.83 -12.25,-23.55 -4.5,-16.8 -10.22,-33.65 -10,-51.25 0.02,-10.08 -1.14,-20.21 0.1,-30.25 3.48,-23.9 6.24,-48.1 13.9,-71.1 3.32,-9.02 7.05,-17.84 10.45,-26.8 -24.22,16.08 -41.4,40.05 -57.9,63.45 -9.58,13.18 -16.51,27.97 -23.85,42.45 -11.34,22.18 -13.24,47.91 -11,72.35 -7.38,-15.64 -7.34,-33.25 -6.3,-50.15 0.62,-14.46 5.81,-28.13 8.45,-42.25 2.16,-12.5 7.39,-24.11 11.45,-36.05 6,-19.1 17.33,-35.82 26.05,-53.7 5.9,-12.58 15.97,-22.39 24.35,-33.25 5.52,-7.1 11.72,-13.66 18.3,-19.8 9.7,-9.04 18.35,-19.46 29.95,-26.2 14.22,-8.5 27.37,-19.01 42.85,-25.25 11.98,-4.84 23.2,-12.24 36.3,-13.7 17.94,-2.42 35.66,-7.17 53.9,-6.75 6.83,0.04 13.69501,-0.27501 20.55,-0.3 z"
     id="path10"
     inkscape:connector-curvature="0" />
  <path
     d="m 651.12,501.8 c 27.94,9.86 51.2,32.6 59.72,61.22 12.16,34.66 6.08,76.94 -20.48,103.4 -10.74,12.36 -26.16,20.08 -42.18,22.7 -22.74,1.56 -46.12,-0.96 -67.16,-10.14 18.24,0.36 36.54,2.96 54.76,1.58 9.24,-3.18 18.78,-6.42 27,-11.76 7.2,-7.5 14.84,-14.94 20.06,-24 5,-12.98 8.94,-26.84 8.34,-40.88 -0.24,-8.64 0.56,-17.26 0.44,-25.88 -0.16,-10 -5.68,-18.7 -8,-28.2 -2.86,-10.94 -10.82,-19.36 -17.04,-28.48 -4.64,-6.92 -10.24,-13.1 -15.46,-19.56 z"
     id="path14"
     inkscape:connector-curvature="0"
     style="fill:#f5e5c1" />
  <path
     d="m 416.84,709.2 c 16.92,-6.98 35.64,-7.26 53.42,-10.86 -12.2,7.12 -25.66,14.68 -31.48,28.32 -4.4,9.4 -3.98,22.26 -14.08,27.96 -10.58,6.82 -26.18,0.58 -29.34,-11.54 -4.02,-14.92 8.98,-28.12 21.48,-33.88 z"
     id="path18"
     inkscape:connector-curvature="0"
     style="fill:#f4722b" />
</svg>
