<?xml version="1.0" encoding="UTF-8" ?>
<!DOCTYPE svg PUBLIC "-//W3C//DTD SVG 1.1//EN" "http://www.w3.org/Graphics/SVG/1.1/DTD/svg11.dtd">
<svg width="512pt" height="512pt" viewBox="0 0 512 512" version="1.1" xmlns="http://www.w3.org/2000/svg">
<path fill="#3e3e3e" opacity="1.00" d=" M 0.00 0.00 L 512.00 0.00 L 512.00 512.00 L 0.00 512.00 L 0.00 0.00 Z" />
<path fill="#f4722b" opacity="1.00" d=" M 164.48 26.47 C 176.79 16.74 192.22 10.47 208.05 10.65 C 225.86 10.27 243.15 17.98 256.21 29.83 C 275.92 47.41 287.30 72.92 290.75 98.82 C 294.38 125.89 289.80 154.38 276.13 178.19 C 269.23 190.19 259.83 200.76 248.60 208.87 C 248.02 203.08 249.21 197.03 247.34 191.44 C 244.25 186.49 238.33 184.19 234.90 179.49 C 233.69 177.29 232.57 175.05 231.20 172.95 C 242.49 162.19 248.15 146.44 248.26 131.02 C 248.65 115.78 245.00 99.81 235.13 87.86 C 228.54 79.80 218.56 73.99 207.94 74.27 C 196.48 74.33 186.00 81.31 179.70 90.59 C 169.85 104.87 167.56 123.08 169.61 139.98 C 170.42 148.09 173.58 155.68 177.17 162.92 C 169.14 161.68 161.10 160.43 153.02 159.68 C 146.21 160.01 139.49 161.42 132.66 161.53 C 122.76 134.88 122.07 104.99 130.52 77.86 C 136.63 58.00 148.03 39.40 164.48 26.47 Z" />
<path fill="#f4722b" opacity="1.00" d=" M 374.94 16.88 C 391.78 8.92 411.99 8.52 429.13 15.80 C 446.04 22.84 459.67 36.26 469.23 51.67 C 484.97 77.56 490.01 109.31 484.92 139.02 C 480.48 165.31 467.31 190.72 445.89 207.08 C 438.49 204.25 430.89 201.69 422.96 200.90 C 402.27 196.87 380.64 200.15 361.09 207.59 C 340.80 192.21 327.62 168.80 322.45 144.09 C 316.36 115.82 319.82 85.43 332.76 59.52 C 341.93 41.44 356.34 25.45 374.94 16.88 Z" />
<path fill="#f4722b" opacity="1.00" d=" M 46.62 18.58 C 48.36 16.72 49.77 14.42 51.98 13.09 C 65.95 13.77 79.90 15.18 93.88 16.03 C 91.74 77.99 89.28 139.93 87.06 201.89 C 80.28 206.87 75.30 213.70 70.95 220.81 C 60.82 220.22 50.70 219.36 40.56 219.11 C 41.97 171.39 43.64 123.67 45.09 75.96 C 41.05 80.48 37.36 85.29 33.25 89.75 C 26.02 79.45 18.61 69.29 11.31 59.05 C 23.15 45.61 34.86 32.08 46.62 18.58 Z" />
<path fill="#3e3e3e" opacity="1.00" d=" M 398.42 74.62 C 407.74 73.09 417.45 76.28 424.55 82.39 C 434.07 90.33 439.49 102.16 441.84 114.13 C 444.22 128.54 443.70 143.98 437.21 157.32 C 431.79 168.98 421.94 179.28 409.21 182.57 C 400.57 184.85 391.45 181.66 384.46 176.54 C 373.76 168.64 367.37 156.00 364.93 143.14 C 362.20 126.00 363.98 107.42 373.32 92.45 C 378.84 83.49 387.86 76.31 398.42 74.62 Z" />
<path fill="#f5e5c1" opacity="1.00" d=" M 142.96 169.33 C 147.00 169.04 150.97 167.61 155.06 168.28 C 176.05 171.19 197.03 174.19 218.02 177.04 C 220.85 177.43 223.63 178.39 225.98 180.02 C 226.95 182.50 226.57 185.26 226.80 187.87 C 231.64 189.35 236.10 191.77 239.89 195.13 C 239.96 201.47 240.28 207.81 239.90 214.14 C 245.35 216.38 251.07 218.04 256.32 220.73 C 258.60 221.77 257.54 224.77 257.86 226.71 C 260.31 228.22 263.06 229.14 265.90 229.61 C 285.77 233.64 305.63 237.64 325.36 242.33 C 332.56 237.32 339.12 231.45 346.17 226.24 C 354.42 220.99 362.76 215.65 372.08 212.50 C 381.21 209.93 390.60 208.29 400.05 207.53 C 417.60 207.55 436.26 209.62 450.98 220.05 C 455.91 222.57 459.97 226.31 463.59 230.45 C 473.21 239.68 479.99 251.32 486.00 263.10 C 488.04 268.04 489.60 273.17 491.59 278.14 C 494.48 285.43 495.04 293.29 496.64 300.90 C 498.99 312.85 496.75 325.01 496.63 337.05 C 496.65 341.79 494.76 346.26 494.40 350.96 C 493.72 357.71 491.37 364.11 489.78 370.67 C 485.40 386.31 479.60 401.79 470.21 415.17 C 466.00 423.05 460.15 429.81 455.07 437.10 C 448.21 444.53 441.19 451.88 433.47 458.43 C 427.57 462.49 422.07 467.19 415.85 470.75 C 406.78 474.30 397.80 478.40 388.13 480.05 C 373.81 482.38 358.26 482.60 344.93 476.08 C 335.78 478.39 326.72 481.06 317.57 483.35 C 312.76 484.61 308.03 486.93 302.97 486.62 C 296.90 485.09 291.33 482.05 285.72 479.34 C 247.02 460.32 208.33 441.30 169.63 422.30 C 162.67 419.27 154.65 414.92 153.21 406.71 C 148.59 387.27 144.00 367.82 139.46 348.36 C 138.59 344.82 138.15 340.69 140.64 337.69 C 143.82 333.95 148.94 333.05 153.21 331.11 L 153.24 330.14 C 135.16 320.64 116.83 311.57 98.67 302.21 C 95.92 300.73 94.16 298.06 92.35 295.62 C 85.15 285.54 81.57 273.26 80.95 260.98 C 80.96 259.30 81.25 257.65 81.47 256.01 C 84.83 256.33 87.86 257.89 90.98 259.07 C 152.76 282.61 214.59 306.00 276.35 329.60 C 279.59 316.90 282.95 304.17 288.15 292.10 C 290.42 287.74 293.02 283.55 295.06 279.06 C 281.32 275.59 267.63 271.88 253.85 268.54 C 249.04 267.89 244.44 266.39 239.85 264.88 C 201.58 254.97 163.26 245.19 125.00 235.24 C 114.88 232.87 104.79 230.32 94.90 227.11 C 96.78 224.17 99.86 221.68 100.09 217.97 C 100.35 216.21 100.44 214.44 100.53 212.67 C 91.44 219.19 84.58 228.89 81.37 239.62 C 79.67 245.35 76.98 250.91 76.82 256.99 C 76.75 261.82 76.32 266.66 76.67 271.48 C 78.16 283.32 84.69 293.80 92.33 302.68 C 93.59 304.14 95.35 305.01 97.02 305.91 C 112.22 313.69 127.27 321.77 142.50 329.51 C 139.71 332.70 133.90 333.26 133.35 338.11 C 134.08 345.06 135.58 351.93 136.43 358.87 C 133.64 358.70 131.89 356.49 130.00 354.75 C 128.45 356.32 126.93 357.91 125.36 359.46 C 123.85 370.26 126.00 381.15 124.89 391.98 C 124.53 399.06 124.27 406.85 119.12 412.34 C 123.48 412.31 127.88 412.52 132.18 411.63 C 138.00 410.62 143.14 407.57 148.22 404.73 C 148.42 407.00 148.90 409.29 148.69 411.59 C 136.98 418.76 121.95 420.36 108.94 415.99 C 103.53 414.34 99.75 409.83 96.28 405.61 C 94.17 413.91 95.78 422.58 95.06 431.03 C 94.39 436.11 96.62 441.86 93.38 446.37 C 90.24 450.53 86.12 453.96 81.57 456.46 C 72.04 460.12 61.61 462.04 51.46 460.28 C 43.40 457.46 38.35 450.15 33.55 443.54 C 25.60 430.43 21.46 415.28 20.40 400.05 C 18.43 387.09 18.16 373.87 20.01 360.88 C 20.71 352.92 21.97 345.02 23.12 337.12 C 24.46 326.82 28.54 317.15 32.62 307.69 C 38.49 296.18 45.59 285.02 55.52 276.58 C 61.33 271.86 65.91 265.67 68.58 258.67 C 70.24 253.33 70.17 247.65 71.35 242.21 C 73.65 234.75 76.31 227.28 80.98 220.93 C 87.86 209.61 100.41 201.14 113.92 201.23 C 114.74 193.84 113.31 186.44 113.46 179.05 C 113.48 175.99 115.75 173.04 118.51 171.90 C 126.57 170.35 134.78 169.83 142.96 169.33 Z" />
<path fill="#3e3e3e" opacity="1.00" d=" M 117.67 180.03 C 138.74 182.71 159.74 186.00 180.80 188.86 C 180.85 199.04 180.39 209.22 180.20 219.40 C 164.07 216.31 148.00 212.90 131.90 209.62 C 127.70 208.69 123.37 208.23 119.28 206.86 C 118.47 204.66 118.69 202.25 118.58 199.96 C 118.67 193.29 117.60 186.69 117.67 180.03 Z" />
<path fill="#3e3e3e" opacity="1.00" d=" M 190.98 182.06 C 201.35 181.34 211.79 181.05 222.18 180.43 C 222.42 184.09 221.35 188.27 223.86 191.37 C 219.20 191.72 214.57 192.33 209.92 192.72 C 208.09 195.38 205.63 197.80 204.71 200.96 C 204.43 205.99 204.69 211.04 204.74 216.07 C 204.76 218.05 205.47 220.92 207.99 220.79 C 215.72 220.35 223.39 219.00 231.06 217.92 C 235.66 217.06 240.16 218.84 244.66 219.55 C 244.55 220.40 244.44 221.26 244.34 222.13 C 236.39 223.20 228.57 225.00 220.78 226.88 C 220.83 227.75 220.94 229.49 220.99 230.36 C 231.62 229.93 241.85 226.46 252.35 224.97 C 252.44 226.78 252.54 228.60 252.67 230.42 C 244.07 232.03 235.49 233.71 226.92 235.47 C 224.71 235.86 222.42 236.54 220.18 235.91 C 208.75 233.33 197.37 230.51 185.86 228.27 C 181.42 230.95 176.95 233.61 172.86 236.80 C 172.85 233.56 172.75 230.32 172.71 227.09 C 176.33 224.90 180.42 223.38 183.60 220.55 C 184.84 218.30 184.50 215.51 184.80 213.03 C 184.86 205.67 185.74 198.35 185.72 191.00 C 185.41 187.26 188.05 184.00 190.98 182.06 Z" />
<path fill="#3e3e3e" opacity="1.00" d=" M 375.13 217.56 C 383.56 215.15 392.24 213.70 400.96 212.82 C 409.04 212.65 417.03 214.13 425.02 215.20 C 416.29 215.05 407.48 213.99 398.84 215.81 C 388.17 216.55 378.42 221.33 369.09 226.18 C 361.05 230.87 354.44 237.52 346.77 242.72 C 339.76 249.71 333.01 257.01 326.66 264.62 C 317.59 276.19 310.86 289.36 304.68 302.64 C 301.88 311.68 298.01 320.50 296.85 329.96 C 294.96 339.20 292.48 348.40 292.28 357.89 C 290.61 367.85 291.70 377.95 291.63 387.99 C 291.73 396.79 293.51 405.42 295.57 413.94 C 296.53 419.93 299.10 425.45 300.81 431.23 C 303.67 437.15 307.41 442.61 310.59 448.37 C 313.42 453.68 318.34 457.28 322.50 461.45 C 325.12 464.08 327.95 466.49 330.77 468.91 C 329.79 468.64 328.83 468.32 327.90 467.95 C 316.98 461.79 306.45 454.01 299.95 443.06 C 292.58 427.91 285.28 412.38 282.83 395.55 C 281.65 386.10 279.68 376.58 280.77 367.03 C 281.83 356.68 282.10 346.20 284.21 335.99 C 288.55 320.44 293.18 304.87 299.97 290.18 C 310.51 270.39 323.42 251.14 341.60 237.60 C 344.98 234.99 348.14 232.10 351.74 229.79 C 359.25 225.20 366.70 220.31 375.13 217.56 Z" />
<path fill="#3e3e3e" opacity="1.00" d=" M 104.66 216.29 C 125.54 221.74 146.50 226.90 167.51 231.81 C 168.01 233.97 168.27 236.18 168.40 238.40 C 163.97 239.48 159.68 237.53 155.45 236.51 C 138.32 232.09 121.19 227.67 104.06 223.27 C 104.23 220.94 104.44 218.61 104.66 216.29 Z" />
<path fill="#3e3e3e" opacity="1.00" d=" M 408.21 246.26 C 414.47 245.22 420.75 246.55 427.02 246.89 C 432.38 246.94 436.50 250.68 441.02 253.03 C 447.03 256.06 451.13 261.58 455.68 266.35 C 460.60 272.99 465.41 279.87 468.20 287.72 C 471.98 295.26 473.26 303.65 475.08 311.79 C 475.89 319.55 476.95 327.41 475.66 335.18 C 474.96 344.70 473.21 354.16 470.19 363.21 C 465.90 373.54 463.19 384.59 457.22 394.17 C 451.80 403.22 446.38 412.39 439.33 420.30 C 433.28 427.69 425.29 433.08 417.54 438.52 C 409.31 444.06 399.76 447.26 390.03 448.88 C 377.38 452.46 364.28 447.91 353.35 441.57 C 348.56 438.12 343.22 435.05 339.92 429.99 C 332.78 420.97 326.27 410.94 323.76 399.56 C 319.01 382.51 317.75 364.32 320.89 346.87 C 323.29 337.99 324.07 328.61 328.02 320.20 C 332.16 310.01 336.40 299.73 342.52 290.55 C 347.35 284.40 351.72 277.83 357.46 272.47 C 361.57 268.58 365.36 264.26 370.16 261.16 C 376.37 257.17 382.21 252.26 389.48 250.29 C 395.45 247.87 401.89 247.22 408.21 246.26 Z" />
<path fill="#3e3e3e" opacity="1.00" d=" M 51.20 292.17 C 53.50 287.92 56.54 284.14 60.16 280.94 C 62.83 284.69 66.26 288.28 67.01 293.00 C 69.94 306.94 72.74 320.90 75.71 334.82 C 76.81 339.21 75.32 343.68 74.43 347.97 C 73.74 351.14 70.33 352.24 67.97 353.90 C 63.19 356.75 59.44 361.31 57.78 366.65 C 54.36 376.38 53.31 386.77 53.10 397.04 C 51.41 415.71 54.95 434.46 52.96 453.10 C 52.59 456.81 48.67 454.79 46.48 454.07 C 49.39 449.65 48.30 443.66 45.46 439.50 C 44.49 437.97 42.42 436.04 40.76 437.89 C 39.89 440.76 40.45 443.77 40.56 446.71 C 38.60 444.40 35.94 442.28 35.50 439.10 C 34.72 436.04 36.00 432.74 38.62 430.99 C 39.99 432.25 41.36 433.51 42.78 434.71 C 43.10 428.45 41.98 422.23 42.20 415.97 C 42.14 407.63 42.86 399.30 42.53 390.97 C 42.14 382.44 44.01 374.03 45.71 365.72 C 46.74 360.26 48.98 354.90 52.94 350.91 C 56.14 347.86 60.93 346.12 62.50 341.65 C 64.10 338.54 62.75 335.17 62.27 331.98 C 60.43 320.29 58.38 308.60 55.55 297.10 C 55.07 294.78 52.88 293.56 51.20 292.17 Z" />
<path fill="#3e3e3e" opacity="1.00" d=" M 84.34 340.17 C 85.92 334.40 88.30 328.51 93.16 324.71 C 99.64 323.25 104.58 328.44 108.10 333.09 C 117.55 348.27 119.46 366.58 120.04 384.06 C 119.70 390.70 119.79 398.03 115.78 403.69 C 113.94 406.54 109.42 407.94 106.88 405.22 C 96.03 396.07 92.64 381.76 87.89 369.03 C 86.60 364.04 84.44 359.17 84.55 353.93 C 84.56 349.34 83.84 344.74 84.34 340.17 Z" />
<path fill="#3e3e3e" opacity="1.00" d=" M 149.19 338.95 C 155.01 336.00 162.42 333.44 168.31 337.67 C 204.25 356.11 240.33 374.27 276.24 392.78 C 276.34 400.66 280.04 407.71 281.57 415.28 C 277.87 415.21 275.36 412.34 272.30 410.73 C 229.73 388.82 187.17 366.91 144.62 344.98 C 145.78 342.75 146.71 340.06 149.19 338.95 Z" />
<path fill="#3e3e3e" opacity="1.00" d=" M 69.52 359.67 C 72.92 356.70 76.96 360.35 78.66 363.40 C 81.51 370.37 83.24 377.76 86.10 384.74 C 87.44 388.77 90.06 392.57 89.66 396.99 C 89.28 412.00 89.07 427.01 88.53 442.00 C 88.64 444.11 86.42 444.93 85.06 446.06 C 80.62 448.87 76.23 452.15 70.97 453.22 C 67.18 453.96 63.34 454.35 59.52 454.84 C 59.25 442.54 58.29 430.28 57.85 417.99 C 58.49 405.62 58.05 393.16 60.10 380.90 C 61.30 373.28 63.25 364.75 69.52 359.67 Z" />
<path fill="#3e3e3e" opacity="1.00" d=" M 158.13 366.88 C 158.83 366.86 160.23 366.81 160.93 366.79 C 167.11 371.89 169.40 380.24 169.56 387.95 C 169.81 391.18 167.41 393.29 164.91 394.80 C 159.63 391.09 157.73 384.52 156.37 378.55 C 155.45 375.21 155.88 371.74 156.38 368.38 C 156.81 368.01 157.69 367.26 158.13 366.88 Z" />
<path fill="#3e3e3e" opacity="1.00" d=" M 269.13 424.51 C 270.46 424.37 271.79 424.23 273.13 424.09 C 277.70 429.04 281.64 435.07 281.92 442.01 C 281.92 445.83 279.25 449.50 275.21 449.60 C 270.35 444.96 267.24 438.70 266.85 431.96 C 267.20 429.36 268.20 426.93 269.13 424.51 Z" />
</svg>
