<?xml version="1.0" encoding="UTF-8" ?>
<!DOCTYPE svg PUBLIC "-//W3C//DTD SVG 1.1//EN" "http://www.w3.org/Graphics/SVG/1.1/DTD/svg11.dtd">
<svg width="512pt" height="512pt" viewBox="0 0 512 512" version="1.1" xmlns="http://www.w3.org/2000/svg">
<path fill="#3e3e3e" opacity="1.00" d=" M 0.00 0.00 L 512.00 0.00 L 512.00 512.00 L 0.00 512.00 L 0.00 0.00 Z" />
<path fill="#f5e5c1" opacity="1.00" d=" M 296.24 21.21 C 304.43 19.41 312.50 16.42 321.00 16.54 C 328.69 16.51 336.39 16.08 344.07 16.41 C 357.89 19.84 371.11 25.45 383.44 32.56 C 387.62 35.06 392.48 36.49 396.12 39.85 C 400.62 43.96 405.55 47.68 409.27 52.55 C 402.51 52.52 395.71 52.96 388.99 52.00 C 381.71 51.05 374.24 51.13 367.16 49.02 C 360.08 47.30 353.01 45.57 345.95 43.77 C 341.88 42.65 336.83 43.89 335.11 48.09 C 329.73 58.69 324.56 69.39 318.71 79.74 C 316.43 83.05 316.98 87.25 315.51 90.86 C 311.89 101.53 309.25 112.54 304.96 122.97 C 302.77 131.58 300.69 140.23 298.86 148.93 C 297.00 157.08 296.17 165.61 292.20 173.11 C 288.39 180.58 286.26 189.14 280.25 195.26 C 276.94 198.60 274.13 202.69 269.76 204.73 C 266.33 206.41 263.06 208.81 259.10 208.99 C 254.13 209.32 249.10 210.77 244.14 209.63 C 238.27 208.40 232.25 207.82 226.47 206.16 C 221.45 204.52 216.68 202.23 211.86 200.09 C 206.48 197.38 200.30 197.35 194.69 195.34 C 186.53 193.67 178.23 192.81 170.00 191.50 C 164.31 191.02 158.65 189.78 152.91 190.38 C 143.71 191.20 134.53 192.15 125.31 192.76 C 128.05 188.11 130.35 183.24 132.31 178.22 C 140.15 161.73 149.16 145.83 157.66 129.69 C 159.89 125.62 161.81 121.33 164.74 117.70 C 171.81 108.79 178.84 99.84 185.91 90.93 C 188.57 87.60 191.01 84.03 194.35 81.31 C 204.43 72.69 214.35 63.86 224.85 55.76 C 232.38 50.56 240.31 45.96 248.02 41.03 C 252.68 38.25 257.06 34.89 262.20 33.03 C 273.47 28.89 284.41 23.64 296.24 21.21 Z" />
<path fill="#f5e5c1" opacity="1.00" d=" M 431.31 57.28 C 436.41 56.30 441.06 53.87 446.05 52.49 C 448.98 51.74 451.70 53.59 454.26 54.75 C 455.00 56.67 455.67 58.61 456.04 60.63 C 458.08 73.48 460.04 86.34 462.34 99.14 C 463.27 107.97 465.41 116.66 465.75 125.56 C 452.71 122.56 439.44 120.72 426.45 117.53 C 420.65 103.12 415.44 88.47 409.29 74.22 C 404.42 74.40 400.48 78.14 398.05 82.07 C 392.35 94.13 386.67 106.21 381.02 118.29 C 370.06 120.20 359.04 121.81 348.02 123.31 C 342.73 123.40 337.65 124.85 332.48 125.81 C 328.35 126.77 327.21 131.53 326.55 135.12 C 335.42 147.15 345.59 158.24 354.72 170.08 C 355.08 173.00 353.92 175.87 353.38 178.71 C 346.92 207.40 340.58 236.11 334.12 264.79 C 333.41 266.97 333.68 269.23 334.69 271.26 C 335.78 271.62 336.86 271.98 337.95 272.36 C 344.16 271.03 349.05 266.76 353.17 262.16 C 367.24 246.86 381.32 231.58 395.27 216.17 C 406.01 222.89 416.66 229.74 427.19 236.78 C 431.30 240.18 436.22 242.31 440.61 245.29 C 442.69 246.76 444.74 244.42 445.82 242.81 C 446.86 241.48 445.95 239.68 445.87 238.18 C 442.00 216.48 438.24 194.75 434.38 173.05 C 434.28 171.64 433.75 170.00 434.65 168.74 C 444.60 154.70 454.46 140.54 466.08 127.81 C 465.99 135.21 466.79 142.67 465.58 150.00 C 465.65 157.11 465.84 164.24 465.50 171.35 C 464.38 180.66 464.06 190.07 462.33 199.30 C 460.79 207.67 461.08 216.29 459.31 224.61 C 457.40 229.02 457.86 233.86 457.20 238.51 C 455.30 247.85 453.93 257.30 453.12 266.80 C 452.79 271.16 450.83 275.35 451.33 279.77 C 445.66 283.46 439.69 286.80 433.08 288.49 C 416.70 292.06 399.75 293.65 383.03 291.70 C 378.98 291.35 374.99 292.27 370.96 292.34 C 364.04 291.95 357.15 290.86 350.58 288.62 C 342.23 285.35 333.17 284.12 325.12 280.06 C 317.38 277.01 310.28 272.63 303.43 267.97 C 303.45 259.97 303.72 251.97 304.33 244.00 C 304.40 231.30 305.34 218.64 305.59 205.95 C 307.12 186.95 310.20 168.13 313.03 149.29 C 314.11 143.15 314.66 136.89 316.54 130.92 C 320.93 116.14 324.93 101.25 329.44 86.52 C 333.49 77.16 337.46 67.75 341.51 58.38 C 342.50 55.33 346.01 54.24 348.94 54.51 C 354.85 54.23 360.34 56.76 366.11 57.60 C 372.58 58.64 378.94 60.64 385.56 60.57 C 394.37 60.58 403.19 61.88 411.99 60.91 C 418.43 59.68 424.98 59.05 431.31 57.28 Z" />
<path fill="#f4722b" opacity="1.00" d=" M 404.41 85.20 C 406.55 88.77 408.13 92.65 409.44 96.60 C 412.54 106.17 415.63 115.75 418.82 125.29 C 426.13 126.20 433.42 127.28 440.72 128.29 C 446.12 129.00 451.58 128.56 457.00 128.63 C 450.81 136.55 444.65 144.51 437.98 152.03 C 434.25 157.22 429.90 161.91 425.70 166.70 C 424.56 168.09 422.79 169.54 423.56 171.56 C 426.95 187.34 430.35 203.12 433.66 218.93 C 434.56 224.37 436.28 229.68 436.55 235.22 C 423.55 223.26 411.51 210.29 398.79 198.02 C 381.63 217.10 365.04 236.72 348.11 256.03 C 345.93 258.30 344.06 261.95 340.41 261.65 C 341.44 256.09 343.88 250.97 345.73 245.66 C 354.32 220.71 363.16 195.85 371.74 170.89 C 360.84 159.90 349.84 149.00 338.92 138.04 C 337.11 136.75 338.48 133.83 340.38 133.46 C 350.87 132.06 361.48 132.87 371.98 131.73 C 376.87 131.35 381.79 131.80 386.67 131.32 C 387.42 130.40 387.75 129.22 388.19 128.14 C 392.06 117.05 396.12 106.03 399.98 94.94 C 400.94 91.48 402.18 88.06 404.41 85.20 Z" />
<path fill="#f5e5c1" opacity="1.00" d=" M 124.98 204.23 C 135.75 201.20 147.03 202.71 158.03 201.68 C 164.66 202.59 171.36 202.41 178.04 202.69 C 182.40 203.45 186.62 204.91 191.05 205.33 C 203.19 207.00 214.06 213.02 225.11 217.92 C 236.11 221.39 245.72 227.94 255.98 233.03 C 260.95 235.88 264.87 240.15 269.23 243.79 C 273.57 247.44 277.41 251.63 281.02 255.99 C 285.96 262.14 288.75 269.61 292.72 276.35 C 297.27 283.01 303.92 287.76 309.34 293.64 C 316.83 299.54 324.48 305.26 332.24 310.80 C 339.71 315.05 346.95 319.78 354.67 323.55 C 367.66 327.08 380.44 331.85 393.97 332.80 C 382.27 342.40 373.81 355.69 368.88 369.92 C 365.64 369.74 362.42 369.40 359.26 368.69 C 352.48 349.61 338.84 332.41 320.40 323.54 C 308.82 318.49 295.56 316.16 283.16 319.42 C 281.09 319.91 279.02 320.39 276.94 320.84 C 272.32 316.51 266.57 313.41 262.81 308.19 C 257.70 301.04 251.36 294.91 246.18 287.82 C 242.09 282.28 237.43 277.18 233.70 271.38 C 231.04 267.09 226.90 264.11 223.61 260.37 C 215.47 250.60 208.46 239.66 198.45 231.63 C 190.04 222.16 177.86 217.14 165.94 213.69 C 155.91 210.19 145.00 210.93 134.64 212.26 C 122.44 214.89 109.86 216.89 98.60 222.53 C 91.11 226.08 83.38 229.14 76.06 233.04 C 69.44 237.04 62.44 240.47 56.38 245.34 C 51.40 249.34 45.58 252.49 41.81 257.81 C 37.99 263.00 32.61 267.31 30.77 273.73 C 28.54 279.07 26.48 284.47 25.72 290.24 C 28.24 285.95 30.11 281.25 33.28 277.37 C 36.74 272.83 40.99 268.88 45.84 265.86 C 57.58 257.02 70.28 249.28 83.90 243.69 C 94.75 240.62 105.71 237.55 116.98 236.53 C 124.68 236.29 132.40 236.24 140.10 236.42 C 145.72 236.42 151.20 238.85 155.13 242.83 C 161.08 247.15 166.96 251.64 172.06 256.98 C 177.16 262.08 180.45 268.59 184.59 274.42 C 187.38 278.34 190.02 282.35 192.55 286.43 C 196.21 292.38 198.44 299.05 201.71 305.21 C 205.82 313.12 209.92 321.15 211.98 329.89 C 207.76 331.30 203.52 332.65 199.27 333.94 C 193.36 329.21 187.12 324.73 179.97 322.08 C 170.27 318.63 159.73 316.73 149.49 318.68 C 144.28 319.80 139.02 320.92 134.13 323.12 C 121.36 328.92 110.89 338.92 103.21 350.55 C 97.71 350.25 92.26 349.39 86.75 349.27 C 86.37 342.82 88.16 336.19 86.35 329.88 C 85.07 325.78 81.20 322.79 76.95 322.38 C 68.70 321.33 60.37 321.08 52.09 320.27 C 48.26 319.87 44.14 319.76 40.66 321.68 C 37.74 323.60 35.59 326.40 33.15 328.84 C 31.09 327.24 28.98 325.58 27.68 323.26 C 24.28 317.69 20.79 312.16 17.36 306.61 C 15.99 304.66 16.56 302.16 16.43 299.94 C 16.67 294.58 15.77 289.04 17.54 283.86 C 19.54 277.87 20.19 271.28 23.86 265.99 C 27.12 261.27 29.54 255.80 34.13 252.15 C 40.27 246.97 46.01 241.33 51.68 235.64 C 55.45 231.74 60.80 230.18 65.29 227.34 C 79.45 220.09 94.04 213.71 108.88 207.97 C 114.19 206.48 119.63 205.55 124.98 204.23 Z" />
<path fill="#f5e5c1" opacity="1.00" d=" M 464.86 238.63 C 465.00 235.66 467.36 233.46 470.10 232.71 C 470.22 233.36 470.46 234.65 470.57 235.30 C 472.95 237.63 475.35 240.00 477.12 242.85 C 479.82 247.20 483.23 251.17 485.02 256.04 C 487.13 260.76 487.94 265.94 490.18 270.60 C 492.23 275.52 491.13 280.93 492.07 286.05 C 492.95 291.38 492.02 296.80 490.83 302.00 C 488.03 308.65 485.60 315.45 483.05 322.20 C 481.14 326.79 477.85 330.60 474.94 334.57 C 468.42 329.02 461.21 324.16 453.07 321.35 C 461.08 312.73 464.35 300.50 463.69 288.95 C 462.58 283.76 462.20 278.45 460.58 273.38 C 461.79 261.78 463.61 250.23 464.86 238.63 Z" />
<path fill="#f4722b" opacity="1.00" d=" M 150.38 329.51 C 159.67 328.09 169.40 329.08 177.94 333.12 C 192.29 339.57 203.06 352.28 209.54 366.40 C 219.33 388.08 220.24 413.64 212.03 435.96 C 206.43 451.36 195.92 465.46 181.34 473.34 C 170.07 479.52 156.30 480.74 144.05 476.98 C 130.53 472.79 119.47 462.79 111.96 451.02 C 95.14 424.03 94.81 387.91 110.22 360.22 C 118.73 345.22 132.99 332.49 150.38 329.51 Z" />
<path fill="#f4722b" opacity="1.00" d=" M 286.47 329.67 C 295.78 328.06 305.61 328.89 314.26 332.82 C 328.70 339.06 339.62 351.66 346.22 365.70 C 355.05 384.70 356.84 406.76 351.81 427.04 C 347.81 442.96 339.26 458.09 326.17 468.24 C 317.37 475.15 306.27 479.41 294.99 479.05 C 281.12 479.26 267.81 472.55 258.30 462.72 C 246.78 451.22 239.94 435.68 237.28 419.77 C 233.79 398.61 237.47 376.05 248.74 357.67 C 257.17 344.10 270.46 332.74 286.47 329.67 Z" />
<path fill="#f4722b" opacity="1.00" d=" M 424.45 329.68 C 433.51 328.12 443.09 328.82 451.57 332.53 C 465.88 338.46 476.83 350.67 483.58 364.38 C 492.61 382.89 494.75 404.49 490.41 424.56 C 486.77 440.92 478.46 456.63 465.34 467.31 C 456.09 474.98 444.12 479.64 432.01 479.04 C 413.99 478.94 397.92 467.40 388.17 452.86 C 370.26 425.93 369.48 389.05 384.89 360.82 C 393.22 345.82 407.22 333.01 424.45 329.68 Z" />
<path fill="#f4722b" opacity="1.00" d=" M 46.11 330.91 C 56.17 331.51 66.20 332.46 76.25 333.14 C 74.47 381.73 72.56 430.32 70.91 478.93 C 60.01 478.78 49.14 477.67 38.25 477.18 C 39.45 443.42 40.45 409.66 41.55 375.90 C 38.74 379.07 36.04 382.35 33.35 385.62 C 28.02 378.40 22.91 371.01 17.63 363.76 C 27.02 352.72 36.63 341.87 46.11 330.91 Z" />
<path fill="#3e3e3e" opacity="1.00" d=" M 153.51 374.71 C 159.23 373.41 165.39 374.54 170.31 377.73 C 178.76 383.00 183.54 392.56 185.48 402.07 C 187.53 413.18 186.84 425.24 181.34 435.31 C 177.46 442.54 171.13 448.90 163.08 451.17 C 157.29 452.84 151.01 451.13 146.16 447.77 C 137.81 442.17 132.98 432.53 131.24 422.84 C 129.55 411.98 130.46 400.42 135.38 390.48 C 138.94 383.08 145.33 376.61 153.51 374.71 Z" />
<path fill="#3e3e3e" opacity="1.00" d=" M 290.48 374.72 C 296.45 373.33 302.88 374.67 307.93 378.12 C 316.24 383.66 320.85 393.31 322.64 402.89 C 324.43 413.53 323.76 424.97 318.68 434.66 C 314.98 441.87 308.91 448.28 301.07 450.87 C 295.55 452.81 289.34 451.61 284.45 448.59 C 275.53 443.30 270.28 433.42 268.35 423.48 C 266.61 413.11 267.27 402.11 271.49 392.39 C 274.93 384.21 281.58 376.80 290.48 374.72 Z" />
<path fill="#3e3e3e" opacity="1.00" d=" M 428.47 374.72 C 434.21 373.40 440.40 374.54 445.33 377.74 C 453.79 383.03 458.56 392.61 460.50 402.14 C 462.52 413.22 461.83 425.25 456.35 435.29 C 452.47 442.52 446.15 448.90 438.09 451.17 C 432.31 452.84 426.04 451.14 421.19 447.79 C 412.83 442.20 407.98 432.54 406.24 422.84 C 404.39 411.00 405.65 398.24 411.85 387.78 C 415.48 381.56 421.36 376.40 428.47 374.72 Z" />
</svg>
