<?xml version="1.0" encoding="UTF-8" ?>
<!DOCTYPE svg PUBLIC "-//W3C//DTD SVG 1.1//EN" "http://www.w3.org/Graphics/SVG/1.1/DTD/svg11.dtd">
<svg width="512pt" height="512pt" viewBox="0 0 512 512" version="1.1" xmlns="http://www.w3.org/2000/svg">
<path fill="#3e3e3e" opacity="1.00" d=" M 0.00 0.00 L 512.00 0.00 L 512.00 239.83 C 510.44 221.20 507.60 202.61 502.11 184.70 C 488.07 137.30 459.07 94.44 420.18 63.89 C 380.47 32.43 330.66 13.87 280.00 12.06 C 266.18 12.25 252.07 11.27 238.49 14.20 C 270.93 17.37 302.76 26.94 331.38 42.57 C 364.93 60.74 394.03 87.03 415.54 118.54 C 417.55 121.41 419.17 124.85 422.49 126.45 C 429.90 130.48 436.43 135.83 443.19 140.82 C 465.09 159.38 482.15 184.10 489.87 211.88 C 498.13 239.44 497.96 269.45 489.65 296.98 C 482.72 320.97 468.96 342.78 451.00 360.05 C 444.97 366.49 437.53 371.30 430.54 376.58 C 427.17 379.22 422.56 380.45 420.26 384.28 C 400.84 415.04 374.34 441.29 343.42 460.44 C 314.16 478.71 280.90 490.28 246.76 494.94 C 257.74 496.58 268.90 495.73 279.96 495.94 C 322.47 494.41 364.46 481.14 400.29 458.24 C 428.16 440.51 452.32 417.02 470.75 389.60 C 492.38 357.67 506.15 320.48 510.57 282.17 C 511.16 277.42 511.38 272.64 512.00 267.90 L 512.00 512.00 L 0.00 512.00 L 0.00 389.17 C 34.70 373.02 69.65 357.40 104.26 341.06 C 104.43 330.35 104.59 319.64 104.67 308.92 C 104.36 306.78 106.12 305.29 107.22 303.71 C 109.19 307.55 109.37 311.95 110.41 316.08 C 112.27 324.20 113.57 332.47 115.74 340.51 C 119.44 344.11 124.18 346.47 127.98 349.96 C 129.55 351.93 130.18 354.46 131.20 356.74 C 141.48 381.80 151.90 406.81 162.16 431.88 C 162.80 433.42 163.58 435.04 165.17 435.81 C 177.10 442.50 188.94 449.38 200.78 456.24 C 203.61 457.85 206.63 459.78 210.04 459.50 C 212.85 459.07 215.43 457.83 218.08 456.85 C 214.66 451.99 210.37 447.79 207.11 442.83 C 205.49 435.61 205.17 428.15 204.09 420.85 C 202.09 417.78 200.47 413.47 196.97 412.04 C 190.70 414.12 184.95 417.53 178.63 419.53 C 182.89 414.15 187.07 408.70 191.74 403.67 C 193.41 402.24 192.57 399.90 192.65 398.02 C 192.25 394.66 193.10 390.92 191.09 387.95 C 186.51 380.18 181.87 372.45 177.45 364.58 C 176.57 362.86 175.00 361.69 173.50 360.57 C 169.60 357.71 165.67 354.88 161.82 351.96 C 167.80 353.53 173.65 355.59 179.53 357.49 C 182.76 365.13 188.15 371.43 192.72 378.24 C 198.08 389.08 201.70 400.74 207.60 411.33 C 209.50 415.50 212.74 419.25 213.01 424.00 C 213.84 430.60 214.12 437.29 215.35 443.83 C 217.44 447.23 220.37 450.02 222.81 453.18 C 225.77 456.55 228.27 460.37 231.65 463.34 C 232.84 464.59 234.47 463.52 235.76 463.07 C 239.02 461.52 242.38 460.15 245.51 458.34 C 246.28 456.35 246.08 454.13 246.23 452.04 C 246.31 445.35 246.75 438.68 246.85 431.99 C 247.03 430.41 245.94 429.20 245.09 428.03 C 241.27 423.14 237.43 418.28 233.66 413.36 C 230.63 409.58 230.43 404.54 229.15 400.06 C 227.88 393.10 224.55 386.28 225.81 379.08 C 226.72 370.05 227.33 360.99 228.28 351.97 C 228.37 350.08 228.87 348.01 227.73 346.32 C 218.73 331.19 211.87 314.91 203.61 299.38 C 201.94 297.51 199.24 296.99 197.06 295.88 C 171.92 284.81 146.71 273.82 121.65 262.59 C 118.79 262.15 115.89 262.41 113.01 262.37 C 75.34 262.39 37.67 262.37 0.00 262.38 L 0.00 246.20 C 39.68 246.21 79.36 246.17 119.05 246.22 C 122.71 246.50 125.70 244.12 128.93 242.82 C 153.01 232.25 177.05 221.58 201.15 211.05 C 202.37 210.43 203.82 209.94 204.43 208.60 C 212.60 192.73 219.93 176.37 228.79 160.88 C 228.55 149.58 226.87 138.32 226.16 127.02 C 225.76 121.01 228.26 115.36 229.38 109.55 C 230.86 104.49 231.02 98.73 234.60 94.55 C 238.88 89.03 243.21 83.54 247.46 77.99 C 247.35 69.96 246.70 61.95 246.57 53.92 C 246.41 52.27 246.86 49.85 244.69 49.38 C 240.82 47.70 237.14 45.26 232.97 44.50 C 229.30 47.32 226.81 51.32 223.78 54.75 C 221.20 58.09 218.12 61.06 215.87 64.63 C 214.87 69.00 214.79 73.53 214.19 77.96 C 213.57 82.45 213.91 87.33 211.27 91.28 C 204.65 102.58 200.00 114.83 194.92 126.86 C 192.91 131.84 189.17 135.79 186.15 140.15 C 183.68 143.54 181.91 147.37 179.98 151.08 C 173.96 152.97 167.96 154.93 161.95 156.83 C 166.45 153.37 171.12 150.12 175.63 146.66 C 177.42 145.36 178.30 143.28 179.37 141.42 C 183.60 133.73 188.45 126.37 192.53 118.62 C 193.04 114.46 193.47 110.14 193.15 105.98 C 188.30 100.48 183.65 94.79 179.14 89.01 C 185.32 90.95 190.99 94.16 197.05 96.39 C 198.96 96.91 199.77 94.77 200.78 93.63 C 202.32 91.21 204.60 88.99 204.87 85.99 C 205.71 79.15 206.07 72.19 207.71 65.49 C 211.03 60.68 215.06 56.38 218.67 51.78 C 215.55 50.59 212.44 48.77 208.99 49.08 C 206.64 49.23 204.54 50.41 202.53 51.54 C 191.97 57.68 181.37 63.77 170.76 69.85 C 168.52 71.20 165.97 72.16 164.04 73.99 C 162.33 76.76 161.40 79.93 160.10 82.91 C 149.80 107.77 139.64 132.69 129.24 157.51 C 124.37 163.61 115.05 165.66 112.24 173.49 C 108.32 182.16 104.29 190.78 100.33 199.43 C 99.63 201.19 98.20 202.45 96.64 203.46 C 97.63 190.44 99.62 177.50 101.31 164.55 C 97.65 161.57 93.12 160.10 88.91 158.13 C 59.28 144.78 29.59 131.56 0.00 118.12 L 0.00 0.00 Z" />
<path fill="#f5e5c1" opacity="1.00" d=" M 238.49 14.20 C 252.07 11.27 266.18 12.25 280.00 12.06 C 330.66 13.87 380.47 32.43 420.18 63.89 C 459.07 94.44 488.07 137.30 502.11 184.70 C 507.60 202.61 510.44 221.20 512.00 239.83 L 512.00 267.90 C 511.38 272.64 511.16 277.42 510.57 282.17 C 506.15 320.48 492.38 357.67 470.75 389.60 C 452.32 417.02 428.16 440.51 400.29 458.24 C 364.46 481.14 322.47 494.41 279.96 495.94 C 268.90 495.73 257.74 496.58 246.76 494.94 C 280.90 490.28 314.16 478.71 343.42 460.44 C 374.34 441.29 400.84 415.04 420.26 384.28 C 422.56 380.45 427.17 379.22 430.54 376.58 C 437.53 371.30 444.97 366.49 451.00 360.05 C 468.96 342.78 482.72 320.97 489.65 296.98 C 497.96 269.45 498.13 239.44 489.87 211.88 C 482.15 184.10 465.09 159.38 443.19 140.82 C 436.43 135.83 429.90 130.48 422.49 126.45 C 419.17 124.85 417.55 121.41 415.54 118.54 C 394.03 87.03 364.93 60.74 331.38 42.57 C 302.76 26.94 270.93 17.37 238.49 14.20 Z" />
<path fill="#f5e5c1" opacity="1.00" d=" M 223.78 54.75 C 226.81 51.32 229.30 47.32 232.97 44.50 C 237.14 45.26 240.82 47.70 244.69 49.38 C 246.86 49.85 246.41 52.27 246.57 53.92 C 246.70 61.95 247.35 69.96 247.46 77.99 C 243.21 83.54 238.88 89.03 234.60 94.55 C 231.02 98.73 230.86 104.49 229.38 109.55 C 228.26 115.36 225.76 121.01 226.16 127.02 C 226.87 138.32 228.55 149.58 228.79 160.88 C 219.93 176.37 212.60 192.73 204.43 208.60 C 203.82 209.94 202.37 210.43 201.15 211.05 C 177.05 221.58 153.01 232.25 128.93 242.82 C 125.70 244.12 122.71 246.50 119.05 246.22 C 79.36 246.17 39.68 246.21 0.00 246.20 L 0.00 118.12 C 29.59 131.56 59.28 144.78 88.91 158.13 C 93.12 160.10 97.65 161.57 101.31 164.55 C 99.62 177.50 97.63 190.44 96.64 203.46 C 98.20 202.45 99.63 201.19 100.33 199.43 C 104.29 190.78 108.32 182.16 112.24 173.49 C 115.05 165.66 124.37 163.61 129.24 157.51 C 139.64 132.69 149.80 107.77 160.10 82.91 C 161.40 79.93 162.33 76.76 164.04 73.99 C 165.97 72.16 168.52 71.20 170.76 69.85 C 181.37 63.77 191.97 57.68 202.53 51.54 C 204.54 50.41 206.64 49.23 208.99 49.08 C 212.44 48.77 215.55 50.59 218.67 51.78 C 215.06 56.38 211.03 60.68 207.71 65.49 C 206.07 72.19 205.71 79.15 204.87 85.99 C 204.60 88.99 202.32 91.21 200.78 93.63 C 199.77 94.77 198.96 96.91 197.05 96.39 C 190.99 94.16 185.32 90.95 179.14 89.01 C 183.65 94.79 188.30 100.48 193.15 105.98 C 193.47 110.14 193.04 114.46 192.53 118.62 C 188.45 126.37 183.60 133.73 179.37 141.42 C 178.30 143.28 177.42 145.36 175.63 146.66 C 171.12 150.12 166.45 153.37 161.95 156.83 C 167.96 154.93 173.96 152.97 179.98 151.08 C 181.91 147.37 183.68 143.54 186.15 140.15 C 189.17 135.79 192.91 131.84 194.92 126.86 C 200.00 114.83 204.65 102.58 211.27 91.28 C 213.91 87.33 213.57 82.45 214.19 77.96 C 214.79 73.53 214.87 69.00 215.87 64.63 C 218.12 61.06 221.20 58.09 223.78 54.75 Z" />
<path fill="#f5e5c1" opacity="1.00" d=" M 237.28 98.42 C 240.47 94.04 243.54 89.56 246.75 85.20 C 251.12 89.57 255.56 93.86 259.98 98.17 C 257.75 106.77 255.31 115.32 253.15 123.94 C 252.73 128.08 247.60 128.51 245.78 131.76 C 243.22 136.47 241.76 141.70 239.09 146.36 C 236.13 144.19 232.85 142.44 230.11 139.98 C 229.65 135.70 229.41 131.36 229.66 127.07 C 231.35 118.99 233.38 110.99 235.14 102.93 C 235.43 101.25 236.28 99.76 237.28 98.42 Z" />
<path fill="#f4722b" opacity="1.00" d=" M 332.55 122.77 C 342.35 121.72 352.25 121.80 362.08 122.38 C 392.97 125.28 422.66 139.56 444.16 161.94 C 464.62 182.85 477.71 210.81 480.74 239.91 C 485.27 279.37 470.56 320.46 442.09 348.15 C 417.25 373.04 382.08 386.74 347.02 386.49 C 319.73 385.60 292.59 376.74 270.64 360.35 C 243.59 340.55 224.75 310.03 219.01 277.02 C 214.86 253.30 217.21 228.45 226.01 206.02 C 236.61 178.59 256.67 154.95 282.06 140.09 C 297.48 130.96 314.78 125.09 332.55 122.77 Z" />
<path fill="#3e3e3e" opacity="1.00" d=" M 352.44 141.81 C 369.83 139.10 387.95 141.80 403.92 149.16 C 421.11 157.07 435.67 170.53 444.91 187.05 C 454.58 204.22 458.43 224.62 455.57 244.12 C 452.81 263.98 443.18 282.82 428.65 296.64 C 412.10 312.71 389.15 322.03 366.07 321.85 C 347.43 322.06 328.86 316.05 313.66 305.31 C 298.30 294.47 286.44 278.74 280.35 260.94 C 274.10 243.05 273.73 223.20 279.28 205.08 C 284.75 186.96 296.05 170.62 311.19 159.23 C 323.19 150.08 337.52 144.07 352.44 141.81 Z" />
<path fill="#f5e5c1" opacity="1.00" d=" M 0.00 262.38 C 37.67 262.37 75.34 262.39 113.01 262.37 C 115.89 262.41 118.79 262.15 121.65 262.59 C 146.71 273.82 171.92 284.81 197.06 295.88 C 199.24 296.99 201.94 297.51 203.61 299.38 C 211.87 314.91 218.73 331.19 227.73 346.32 C 228.87 348.01 228.37 350.08 228.28 351.97 C 227.33 360.99 226.72 370.05 225.81 379.08 C 224.55 386.28 227.88 393.10 229.15 400.06 C 230.43 404.54 230.63 409.58 233.66 413.36 C 237.43 418.28 241.27 423.14 245.09 428.03 C 245.94 429.20 247.03 430.41 246.85 431.99 C 246.75 438.68 246.31 445.35 246.23 452.04 C 246.08 454.13 246.28 456.35 245.51 458.34 C 242.38 460.15 239.02 461.52 235.76 463.07 C 234.47 463.52 232.84 464.59 231.65 463.34 C 228.27 460.37 225.77 456.55 222.81 453.18 C 220.37 450.02 217.44 447.23 215.35 443.83 C 214.12 437.29 213.84 430.60 213.01 424.00 C 212.74 419.25 209.50 415.50 207.60 411.33 C 201.70 400.74 198.08 389.08 192.72 378.24 C 188.15 371.43 182.76 365.13 179.53 357.49 C 173.65 355.59 167.80 353.53 161.82 351.96 C 165.67 354.88 169.60 357.71 173.50 360.57 C 175.00 361.69 176.57 362.86 177.45 364.58 C 181.87 372.45 186.51 380.18 191.09 387.95 C 193.10 390.92 192.25 394.66 192.65 398.02 C 192.57 399.90 193.41 402.24 191.74 403.67 C 187.07 408.70 182.89 414.15 178.63 419.53 C 184.95 417.53 190.70 414.12 196.97 412.04 C 200.47 413.47 202.09 417.78 204.09 420.85 C 205.17 428.15 205.49 435.61 207.11 442.83 C 210.37 447.79 214.66 451.99 218.08 456.85 C 215.43 457.83 212.85 459.07 210.04 459.50 C 206.63 459.78 203.61 457.85 200.78 456.24 C 188.94 449.38 177.10 442.50 165.17 435.81 C 163.58 435.04 162.80 433.42 162.16 431.88 C 151.90 406.81 141.48 381.80 131.20 356.74 C 130.18 354.46 129.55 351.93 127.98 349.96 C 124.18 346.47 119.44 344.11 115.74 340.51 C 113.57 332.47 112.27 324.20 110.41 316.08 C 109.37 311.95 109.19 307.55 107.22 303.71 C 106.12 305.29 104.36 306.78 104.67 308.92 C 104.59 319.64 104.43 330.35 104.26 341.06 C 69.65 357.40 34.70 373.02 0.00 389.17 L 0.00 262.38 Z" />
<path fill="#f5e5c1" opacity="1.00" d=" M 229.55 368.37 C 232.58 366.27 235.56 364.07 238.74 362.17 C 241.14 366.91 242.77 372.00 245.26 376.69 C 246.91 379.85 251.71 380.23 252.48 383.96 C 254.78 392.71 257.02 401.49 259.57 410.18 C 255.25 414.57 250.71 418.74 246.43 423.18 C 242.40 418.31 238.83 413.03 235.34 407.77 C 233.17 400.26 231.82 392.53 229.89 384.96 C 228.36 379.54 229.49 373.89 229.55 368.37 Z" />
</svg>
