<?xml version="1.0" encoding="UTF-8" ?>
<!DOCTYPE svg PUBLIC "-//W3C//DTD SVG 1.1//EN" "http://www.w3.org/Graphics/SVG/1.1/DTD/svg11.dtd">
<svg width="512pt" height="512pt" viewBox="0 0 512 512" version="1.1" xmlns="http://www.w3.org/2000/svg">
<path fill="#3e3e3e" opacity="1.00" d=" M 0.00 0.00 L 512.00 0.00 L 512.00 462.14 C 509.98 460.11 507.67 458.38 505.84 456.17 C 502.41 451.79 500.21 446.57 496.70 442.25 C 494.10 441.47 491.30 441.93 488.62 441.85 C 490.18 428.33 491.32 414.76 492.74 401.23 C 493.52 395.07 488.43 390.12 488.52 384.04 C 488.19 379.36 488.97 374.57 487.95 369.97 C 485.59 365.30 481.86 361.50 478.87 357.23 C 470.93 356.49 462.95 356.53 455.00 355.88 C 451.07 355.74 447.11 355.14 443.20 355.64 C 440.17 356.58 437.18 357.85 434.57 359.67 C 432.94 362.02 431.32 365.01 431.75 367.94 C 434.30 370.78 438.03 372.73 439.32 376.56 C 441.26 379.90 439.32 383.64 438.75 387.07 C 436.14 398.98 433.30 410.84 430.86 422.79 C 429.71 432.86 429.21 443.00 428.42 453.12 C 428.35 457.17 425.26 460.20 423.56 463.66 C 421.54 457.45 419.46 451.24 416.84 445.25 C 415.99 443.13 414.30 441.56 412.70 440.01 C 401.79 442.03 391.06 444.89 380.14 446.81 C 389.68 438.69 400.39 432.00 409.88 423.82 C 414.13 418.22 418.68 412.22 419.40 404.98 C 419.11 401.97 418.36 398.83 416.65 396.31 C 413.65 393.77 410.13 391.33 406.06 391.20 C 394.61 389.87 383.11 391.84 371.91 394.13 C 361.49 396.27 351.63 400.37 341.62 403.84 C 351.98 396.42 363.01 389.93 374.58 384.59 C 379.19 382.57 384.15 381.54 388.96 380.09 C 387.23 373.87 385.14 367.63 381.96 362.00 C 377.66 357.34 373.55 352.13 367.65 349.42 C 358.64 344.06 348.28 341.45 338.01 339.82 C 328.94 339.67 319.90 341.04 311.01 342.76 C 300.75 345.00 292.11 351.42 284.62 358.48 C 281.48 362.50 278.69 366.84 276.40 371.40 C 273.98 379.50 270.85 387.47 270.04 395.97 C 268.72 402.93 268.52 410.01 268.85 417.07 C 269.52 421.71 265.25 424.65 262.43 427.60 C 255.88 427.15 249.51 425.20 243.04 424.10 C 235.31 402.63 227.97 381.02 220.24 359.54 C 219.57 359.41 218.23 359.16 217.55 359.03 C 217.30 355.96 219.57 354.02 221.42 351.96 C 220.41 346.65 219.63 340.38 214.60 337.25 C 211.01 337.23 208.27 342.77 204.38 341.21 C 204.71 337.40 208.07 334.68 209.09 331.05 C 210.49 326.42 212.15 321.82 212.82 317.02 C 211.62 310.90 205.61 306.56 205.84 300.04 C 205.61 296.84 206.40 292.65 202.80 291.02 C 198.83 288.52 195.99 293.91 193.21 295.92 C 193.09 300.64 193.09 305.36 193.16 310.07 C 194.49 311.44 195.82 312.81 197.17 314.17 C 196.58 315.88 195.99 317.59 195.39 319.29 C 192.06 319.11 188.61 318.62 185.35 319.57 C 180.79 322.60 177.11 326.85 174.46 331.64 C 173.86 333.37 170.81 333.31 171.46 331.00 C 172.86 327.02 174.78 323.23 176.56 319.41 C 179.06 314.49 186.67 315.18 188.29 309.53 C 189.16 304.59 188.55 299.43 188.23 294.44 C 186.50 288.44 184.07 282.65 182.20 276.68 C 181.35 273.02 178.03 270.98 175.46 268.60 C 170.93 264.80 168.34 259.35 164.99 254.60 C 160.15 254.50 156.38 257.92 152.16 259.74 C 152.87 262.81 152.48 266.67 155.34 268.73 C 161.89 274.42 167.07 281.71 169.25 290.18 C 169.13 290.61 168.88 291.48 168.75 291.91 C 166.30 289.71 165.19 286.47 163.01 284.04 C 155.85 275.80 148.68 267.53 142.39 258.59 C 138.27 256.77 134.01 259.33 131.83 262.86 C 131.25 266.19 130.83 270.04 133.28 272.76 C 140.70 282.84 149.87 291.54 157.30 301.60 C 149.91 296.85 143.67 290.48 136.28 285.76 C 128.96 284.78 120.54 284.60 114.49 289.46 C 112.94 292.84 112.05 296.51 111.37 300.15 C 111.79 304.38 116.46 305.79 120.08 305.45 C 122.20 304.95 122.32 302.41 123.09 300.77 C 126.30 300.93 130.05 299.93 132.73 302.24 C 137.24 305.53 141.64 308.97 146.02 312.42 C 141.05 311.35 135.14 311.51 131.33 315.32 C 126.02 319.29 122.75 325.53 121.33 331.89 C 124.57 333.22 128.16 335.62 131.64 333.54 C 134.27 331.50 135.75 328.35 137.86 325.82 C 139.74 325.33 141.62 324.81 143.50 324.30 C 146.94 329.35 149.47 335.00 153.12 339.90 C 157.50 343.33 162.58 345.77 167.19 348.89 C 170.31 351.33 174.41 350.25 178.03 350.11 C 183.77 349.66 188.59 346.11 194.08 344.74 C 196.44 344.39 195.89 347.85 195.18 349.15 C 186.96 356.39 176.44 359.95 166.66 364.53 C 167.50 368.02 167.86 371.65 169.01 375.07 C 171.15 376.70 173.88 374.83 176.16 374.39 C 185.86 371.85 194.59 366.79 203.70 362.75 C 202.85 364.72 201.73 366.63 199.89 367.82 C 193.52 372.55 187.19 377.36 180.94 382.25 C 183.90 390.74 189.57 398.65 189.29 407.97 C 189.32 416.31 189.24 424.64 189.29 432.97 C 188.21 430.15 187.17 427.32 186.16 424.48 C 181.45 423.80 176.81 425.19 172.24 426.14 C 169.49 426.67 168.02 429.31 166.25 431.21 C 158.16 440.72 150.08 450.24 141.74 459.54 C 141.73 469.02 140.71 478.48 139.93 487.92 C 132.96 457.70 126.70 427.31 120.00 397.02 C 119.03 393.27 118.74 389.31 117.24 385.72 C 113.18 383.56 108.45 383.43 103.99 382.83 C 97.63 381.91 91.20 382.60 84.86 383.33 C 78.20 383.96 72.31 387.46 66.64 390.73 C 63.79 392.31 61.27 394.42 59.13 396.88 C 62.90 421.60 66.65 446.32 70.48 471.03 C 70.68 472.40 70.73 473.79 70.64 475.18 C 68.93 476.64 67.49 474.77 66.82 473.29 C 61.94 463.87 57.02 454.46 52.08 445.06 C 48.23 445.64 43.68 444.66 40.48 447.40 C 33.80 452.75 27.38 458.46 20.55 463.62 C 14.01 467.08 6.77 469.02 0.00 472.02 L 0.00 269.54 C 7.67 269.74 15.34 269.61 23.01 269.79 C 26.40 267.26 29.81 264.77 33.19 262.23 C 41.28 255.54 51.48 252.32 61.29 249.06 C 65.66 247.50 70.35 247.72 74.92 247.39 C 86.06 246.62 97.49 247.40 108.14 250.94 C 110.00 251.73 111.61 250.06 113.06 249.15 C 117.94 245.31 122.96 241.64 127.84 237.80 C 130.42 236.06 130.11 232.62 130.57 229.91 C 130.64 227.60 131.43 224.99 130.15 222.88 C 125.02 220.99 119.45 220.55 114.08 219.58 C 95.57 218.61 76.95 218.66 58.52 220.92 C 43.16 224.15 27.99 228.71 13.99 235.89 C 8.99 238.25 4.24 241.14 0.00 244.68 L 0.00 0.00 Z" />
<path fill="#f4722b" opacity="1.00" d=" M 62.56 14.53 C 69.14 11.61 75.74 8.19 82.93 7.18 C 85.00 8.57 86.30 10.80 87.90 12.66 C 88.84 10.72 89.33 8.41 90.97 6.89 C 96.26 6.01 101.63 6.73 106.96 6.88 C 111.35 7.01 115.63 8.39 119.50 10.43 C 121.63 11.99 124.55 13.84 123.85 16.93 C 122.43 43.98 120.63 71.00 119.13 98.05 C 118.69 101.87 114.57 103.97 111.01 103.51 C 108.23 104.09 104.04 102.37 102.49 105.51 C 100.95 107.73 101.72 110.50 101.91 112.97 C 102.81 121.33 103.66 129.69 104.48 138.05 C 105.18 140.15 101.66 140.68 101.22 138.78 C 96.79 131.55 91.49 124.87 87.34 117.47 C 84.40 110.34 80.29 103.59 78.85 95.92 C 73.18 72.55 67.54 49.18 61.62 25.87 C 60.92 22.91 59.86 20.01 59.54 16.97 C 59.69 15.46 61.53 15.26 62.56 14.53 Z" />
<path fill="#f4722b" opacity="1.00" d=" M 332.85 22.75 C 336.08 21.78 339.71 22.56 343.09 22.26 C 343.39 24.37 344.34 26.58 343.69 28.69 C 340.96 33.55 337.21 37.77 334.58 42.68 C 333.84 47.69 333.90 52.80 333.69 57.86 C 331.42 56.70 328.79 56.02 326.89 54.26 C 326.16 48.58 323.77 42.39 326.52 36.91 C 328.76 32.26 329.91 27.02 332.85 22.75 Z" />
<path fill="#f4722b" opacity="1.00" d=" M 349.35 27.45 C 352.02 27.24 354.71 27.19 357.39 27.27 C 357.33 30.28 357.33 33.30 357.44 36.31 C 359.84 33.65 361.70 30.58 363.73 27.64 C 365.69 27.73 367.64 27.92 369.60 28.03 C 369.93 30.43 370.24 32.84 370.51 35.25 C 373.53 33.04 374.99 29.42 377.31 26.56 C 379.73 27.53 382.12 28.59 384.49 29.70 C 384.34 31.69 384.59 33.81 383.66 35.66 C 380.05 43.37 376.42 51.08 372.73 58.75 C 371.24 62.92 364.13 63.95 362.10 59.74 C 362.11 55.86 365.25 52.74 365.66 48.91 C 365.22 48.44 364.33 47.50 363.88 47.03 C 362.00 50.92 360.92 55.14 358.98 59.00 C 355.74 61.12 351.66 61.28 348.02 62.34 C 345.45 61.46 342.78 60.85 340.28 59.78 C 338.79 54.56 337.02 49.36 336.10 44.01 C 339.96 38.10 345.03 33.04 349.35 27.45 Z" />
<path fill="#f4722b" opacity="1.00" d=" M 266.04 43.02 C 284.77 38.88 303.86 36.52 323.00 35.38 C 319.84 40.85 322.37 46.95 322.89 52.72 C 320.22 52.75 317.53 52.65 314.88 52.92 C 310.73 53.49 308.27 57.93 304.05 58.20 C 285.62 59.98 267.61 64.39 249.56 68.29 C 243.89 69.98 237.92 69.58 232.10 70.02 C 227.64 68.97 223.19 67.86 218.62 67.36 C 218.71 62.49 218.65 57.61 218.68 52.73 C 224.97 52.82 230.95 50.71 237.03 49.44 C 246.53 46.57 256.36 45.11 266.04 43.02 Z" />
<path fill="#f4722b" opacity="1.00" d=" M 386.51 38.08 C 395.83 40.75 405.19 43.41 414.31 46.69 C 420.14 50.04 427.22 51.95 431.36 57.61 C 432.68 59.34 433.95 61.16 434.76 63.20 C 435.03 69.47 431.27 75.61 425.96 78.81 C 422.37 80.69 418.33 78.79 416.16 75.71 C 413.02 71.19 408.40 67.99 403.71 65.26 C 395.34 61.89 386.50 59.93 377.85 57.42 C 380.54 50.89 383.72 44.57 386.51 38.08 Z" />
<path fill="#f4722b" opacity="1.00" d=" M 175.68 44.67 C 177.00 42.48 178.89 39.77 181.84 40.28 C 184.43 40.22 185.01 43.37 186.14 45.07 C 187.94 43.34 189.02 39.67 192.06 40.18 C 195.17 39.79 196.54 43.15 198.43 44.97 C 197.93 53.97 196.88 62.93 196.30 71.93 C 196.38 76.02 192.75 78.68 190.03 81.17 C 183.57 80.42 176.09 80.87 171.03 76.04 C 169.97 71.01 171.88 65.69 170.17 60.79 C 168.41 64.67 167.92 69.04 165.91 72.80 C 163.14 76.33 157.58 74.56 155.46 71.16 C 157.56 64.59 159.73 58.04 161.55 51.39 C 162.27 48.75 163.19 45.99 165.32 44.14 C 166.80 42.73 169.08 43.39 170.90 43.09 C 170.77 48.14 169.99 53.17 170.36 58.22 C 171.97 53.65 173.57 49.04 175.68 44.67 Z" />
<path fill="#f4722b" opacity="1.00" d=" M 201.71 41.62 C 205.03 41.70 208.32 41.25 211.47 40.21 C 212.62 48.18 213.21 56.22 214.52 64.16 C 211.70 68.46 208.88 72.75 205.95 76.97 C 204.42 79.58 200.96 78.51 198.49 78.93 C 199.92 73.02 201.77 67.12 201.33 60.94 C 201.98 54.50 200.94 48.04 201.71 41.62 Z" />
<path fill="#f4722b" opacity="1.00" d=" M 53.64 49.68 C 56.03 48.43 58.54 47.48 61.08 46.62 C 63.63 57.70 66.14 68.78 68.76 79.84 C 64.69 78.28 60.60 76.80 56.53 75.27 C 55.17 66.79 54.81 58.18 53.64 49.68 Z" />
<path fill="#f4722b" opacity="1.00" d=" M 128.92 52.18 C 137.51 52.16 146.09 52.31 154.67 52.09 C 152.04 60.39 148.95 68.54 145.94 76.71 C 140.20 76.55 134.46 76.65 128.73 76.37 C 128.89 68.31 128.66 60.24 128.92 52.18 Z" />
<path fill="#f4722b" opacity="1.00" d=" M 308.95 60.97 C 312.22 57.48 317.34 56.10 321.99 56.83 C 326.66 58.66 330.71 61.78 335.40 63.55 C 339.24 64.56 343.14 65.40 347.04 66.12 C 350.60 65.77 353.97 64.40 357.54 64.03 C 360.35 68.30 366.42 69.26 370.85 67.10 C 373.85 65.89 375.11 62.70 376.69 60.13 C 380.37 61.31 384.23 62.33 387.41 64.62 C 388.52 67.83 386.96 71.53 388.61 74.63 C 391.61 80.58 394.68 86.52 397.29 92.67 C 405.52 108.40 413.82 124.11 422.01 139.87 C 422.43 140.95 423.57 142.42 422.38 143.43 C 419.71 146.40 417.10 149.44 414.16 152.14 C 406.85 157.15 397.70 158.21 389.07 158.61 C 378.47 159.78 367.70 160.02 357.24 157.67 C 356.22 136.41 356.64 115.10 355.62 93.85 C 354.89 90.56 352.93 87.64 351.12 84.85 C 348.06 83.57 344.34 84.49 341.52 82.48 C 338.46 80.50 335.27 78.74 332.21 76.78 C 330.38 75.69 330.60 73.22 329.45 71.62 C 325.94 68.73 321.72 66.45 317.09 66.25 C 314.65 66.89 312.55 68.46 310.05 68.91 C 308.75 68.56 307.59 67.86 306.40 67.26 C 307.19 65.15 307.66 62.85 308.95 60.97 Z" />
<path fill="#f4722b" opacity="1.00" d=" M 204.86 80.79 C 208.39 78.00 211.28 74.41 213.78 70.67 C 217.56 71.33 221.43 71.21 225.21 71.80 C 227.47 73.51 229.11 75.95 230.56 78.35 C 230.81 79.85 230.59 82.09 228.97 82.72 C 226.63 82.90 224.28 82.59 221.95 82.75 C 218.69 83.65 215.75 85.39 212.65 86.69 C 212.32 90.96 211.68 95.20 211.38 99.47 C 208.00 102.38 204.65 105.33 201.36 108.35 C 196.79 113.32 189.33 111.60 183.42 113.40 C 186.09 114.87 189.23 115.49 191.66 117.35 C 192.97 119.77 191.82 122.77 191.90 125.41 C 191.65 138.66 191.44 151.92 191.14 165.17 C 191.14 167.45 188.63 168.12 186.97 168.93 C 180.31 171.56 173.36 173.35 166.55 175.55 C 173.09 176.62 179.77 176.63 186.37 176.26 C 186.88 178.30 187.00 180.75 188.92 182.05 C 192.45 184.88 195.83 187.92 199.57 190.47 C 203.55 192.42 208.03 193.01 212.13 194.67 C 215.80 195.95 218.13 199.36 221.55 201.06 C 226.94 202.25 232.51 202.69 237.84 204.16 C 243.43 210.97 246.83 219.59 253.78 225.27 C 258.63 229.37 263.37 233.61 268.53 237.31 C 262.98 229.09 258.26 220.36 253.06 211.91 C 249.92 206.96 247.97 201.40 245.78 196.00 C 244.82 194.21 247.10 192.66 248.69 193.27 C 252.73 194.15 256.73 195.27 260.70 196.46 C 262.38 196.86 263.26 198.48 264.29 199.71 C 270.51 208.25 277.15 216.48 283.35 225.04 C 285.27 216.76 286.61 208.36 288.04 199.99 C 288.45 195.34 293.76 194.26 296.99 192.02 C 301.22 190.16 304.79 186.11 309.66 186.29 C 310.08 189.89 308.50 193.23 307.63 196.64 C 305.62 204.08 303.68 211.53 301.55 218.94 C 302.35 218.35 303.24 217.83 303.75 216.94 C 307.15 211.62 310.15 206.05 313.80 200.89 C 323.21 199.30 332.52 196.83 341.42 193.42 C 348.98 188.53 356.04 182.57 364.91 180.14 C 370.08 184.45 376.81 185.68 382.99 187.95 C 384.43 188.84 386.48 188.39 385.90 186.35 C 383.00 183.49 378.84 181.89 376.81 178.20 C 374.92 174.85 372.69 171.68 371.27 168.08 C 381.61 163.12 393.08 161.38 404.26 159.38 C 409.13 158.58 413.93 157.27 418.88 156.94 C 421.07 160.60 423.77 164.02 425.27 168.04 C 426.08 172.37 425.24 176.82 424.67 181.13 C 423.08 188.79 422.40 196.59 421.36 204.34 C 414.54 208.48 406.61 211.10 401.06 217.07 C 394.41 224.15 388.08 231.52 382.26 239.29 C 379.71 242.38 377.73 246.12 374.18 248.20 C 370.17 250.75 366.15 253.26 362.25 255.95 C 362.73 248.28 363.97 240.65 365.13 233.05 C 368.18 223.61 371.71 214.32 374.82 204.89 C 371.08 208.41 366.18 211.23 364.36 216.30 C 361.52 222.70 358.35 228.96 355.53 235.37 C 353.70 241.07 352.94 247.06 351.48 252.87 C 350.03 259.91 347.69 267.16 349.33 274.38 C 350.01 277.68 351.87 280.67 352.29 284.02 C 350.90 286.30 348.50 287.68 346.51 289.38 C 345.88 295.28 344.76 301.10 343.86 306.96 C 343.36 309.97 343.80 313.17 344.98 315.97 C 347.06 318.25 349.58 320.08 351.89 322.13 C 354.02 324.35 357.34 323.90 360.02 324.95 C 362.15 327.20 362.86 330.39 364.15 333.15 C 360.97 335.18 357.57 336.81 354.11 338.29 C 346.97 336.01 339.58 334.18 332.03 334.61 C 323.09 335.34 313.96 335.63 305.38 338.48 C 300.85 340.59 296.21 342.48 291.80 344.85 C 287.81 346.99 284.88 351.50 279.99 351.60 C 267.63 352.48 255.17 351.50 243.05 349.03 C 237.74 347.52 232.48 345.86 227.24 344.15 C 226.57 338.17 221.89 333.88 219.40 328.67 C 218.78 323.84 219.81 318.90 219.02 314.07 C 217.93 310.56 215.52 307.61 214.55 304.06 C 217.12 294.92 220.56 286.02 223.49 276.99 C 218.87 267.76 214.38 258.47 209.78 249.24 C 208.05 246.11 204.98 244.08 202.47 241.64 C 198.27 238.05 194.34 234.17 190.07 230.67 C 194.76 238.33 201.70 244.51 205.15 252.92 C 207.29 257.67 210.07 262.18 211.56 267.19 C 209.38 267.35 207.06 267.35 205.44 265.65 C 199.17 260.25 192.44 255.36 186.45 249.63 C 179.73 241.97 173.31 234.04 166.62 226.34 C 164.58 223.82 161.07 223.68 158.23 222.63 C 152.98 220.87 147.50 219.70 142.44 217.45 C 136.87 212.64 132.66 206.46 127.13 201.59 C 128.14 194.20 129.89 186.93 130.72 179.51 C 141.48 177.74 152.34 176.59 163.10 174.90 C 156.13 173.36 148.56 174.39 142.07 170.97 C 137.27 168.55 131.80 167.40 127.47 164.13 C 134.48 145.49 141.83 126.97 148.93 108.36 C 152.28 108.73 155.59 109.80 158.99 109.52 C 156.44 106.91 153.80 104.39 151.41 101.64 C 151.42 96.88 149.75 91.97 151.42 87.33 C 152.35 84.39 153.37 81.47 154.49 78.60 C 158.90 78.64 163.31 77.90 167.71 78.27 C 171.17 79.54 174.02 82.91 178.01 82.23 C 181.85 81.62 185.49 82.87 189.06 84.12 C 190.79 85.02 192.02 83.12 193.26 82.26 C 197.14 81.98 201.09 81.85 204.86 80.79 Z" />
<path fill="#f4722b" opacity="1.00" d=" M 277.99 109.81 C 284.22 108.18 292.14 107.99 296.66 113.35 C 298.86 116.09 300.91 119.38 300.93 123.00 C 299.89 126.24 297.70 128.97 296.18 131.99 C 298.22 134.75 301.47 137.13 301.56 140.86 C 302.05 146.26 302.84 151.64 303.03 157.06 C 302.01 161.83 299.58 166.19 298.66 171.00 C 298.33 175.55 298.78 180.12 298.69 184.68 C 294.51 187.20 290.00 189.18 285.98 191.95 C 283.05 195.60 281.80 200.31 278.98 204.04 C 275.79 199.79 273.82 194.71 270.50 190.56 C 265.34 188.64 259.70 188.40 254.38 186.95 C 253.51 183.63 252.61 180.32 251.75 177.01 C 254.03 174.01 256.36 170.84 257.19 167.09 C 256.46 158.12 256.53 148.35 251.24 140.62 C 248.76 139.63 245.93 140.63 243.34 140.66 C 243.97 137.69 244.58 134.71 245.32 131.75 C 243.99 128.67 242.38 125.73 240.70 122.83 C 242.81 119.12 244.75 114.83 248.72 112.76 C 253.37 110.75 258.83 109.80 263.72 111.51 C 264.46 112.59 265.02 113.79 265.64 114.95 C 264.60 117.64 263.99 120.73 261.73 122.73 C 258.75 125.81 254.71 127.39 251.05 129.48 C 255.15 128.56 259.72 128.82 263.29 126.31 C 266.12 124.62 268.27 122.08 270.28 119.51 C 272.99 121.95 275.41 125.15 279.12 126.07 C 282.88 127.06 286.69 128.04 290.61 128.05 C 287.42 125.44 283.11 124.72 279.98 122.03 C 278.33 120.19 276.95 118.09 275.80 115.90 C 275.99 113.72 277.17 111.80 277.99 109.81 Z" />
<path fill="#3e3e3e" opacity="1.00" d=" M 281.39 111.47 C 288.60 109.97 297.04 113.90 299.08 121.34 C 292.72 122.95 286.47 119.22 281.72 115.33 C 280.26 114.56 279.27 112.11 281.39 111.47 Z" />
<path fill="#3e3e3e" opacity="1.00" d=" M 248.64 115.62 C 252.33 112.53 257.53 113.09 261.99 113.54 C 259.71 120.76 251.64 124.05 244.59 123.35 C 244.25 120.21 246.48 117.61 248.64 115.62 Z" />
<path fill="#3e3e3e" opacity="1.00" d=" M 272.35 136.55 C 277.90 135.37 284.06 136.79 288.11 140.87 C 292.77 145.09 294.48 151.91 293.09 157.96 C 291.88 163.05 290.21 168.47 286.03 171.94 C 281.34 176.56 273.70 175.60 268.35 172.69 C 262.28 169.40 260.28 162.11 259.19 155.79 C 257.69 147.23 263.87 138.31 272.35 136.55 Z" />
<path fill="#f4722b" opacity="1.00" d=" M 270.43 140.67 C 278.48 136.74 289.21 143.06 289.48 152.05 C 290.07 159.37 283.24 165.80 276.11 165.80 C 269.12 166.17 262.05 160.19 262.22 153.00 C 262.02 147.68 265.65 142.74 270.43 140.67 Z" />
<path fill="#f4722b" opacity="1.00" d=" M 233.16 141.18 C 236.00 141.05 237.61 143.92 238.79 146.09 C 242.45 155.47 245.75 165.42 244.57 175.64 C 243.74 177.94 239.96 178.41 238.52 176.43 C 231.96 170.14 230.17 160.65 229.55 151.96 C 229.59 148.25 229.14 143.04 233.16 141.18 Z" />
<path fill="#f4722b" opacity="1.00" d=" M 242.42 144.77 C 244.03 144.37 245.64 143.98 247.25 143.58 C 251.71 150.13 253.37 158.17 253.47 165.98 C 253.25 169.42 251.68 173.83 247.63 173.99 C 248.92 164.09 248.03 153.31 242.42 144.77 Z" />
<path fill="#3e3e3e" opacity="1.00" d=" M 233.49 147.81 C 238.98 154.65 240.71 164.17 240.42 172.81 C 238.28 171.78 237.44 169.46 236.51 167.46 C 234.03 161.25 232.67 154.49 233.49 147.81 Z" />
<path fill="#f5e5c1" opacity="1.00" d=" M 58.52 220.92 C 76.95 218.66 95.57 218.61 114.08 219.58 C 119.45 220.55 125.02 220.99 130.15 222.88 C 131.43 224.99 130.64 227.60 130.57 229.91 C 130.11 232.62 130.42 236.06 127.84 237.80 C 122.96 241.64 117.94 245.31 113.06 249.15 C 111.61 250.06 110.00 251.73 108.14 250.94 C 97.49 247.40 86.06 246.62 74.92 247.39 C 70.35 247.72 65.66 247.50 61.29 249.06 C 51.48 252.32 41.28 255.54 33.19 262.23 C 29.81 264.77 26.40 267.26 23.01 269.79 C 15.34 269.61 7.67 269.74 0.00 269.54 L 0.00 244.68 C 4.24 241.14 8.99 238.25 13.99 235.89 C 27.99 228.71 43.16 224.15 58.52 220.92 Z" />
<path fill="#f5e5c1" opacity="1.00" d=" M 49.58 260.69 C 54.64 257.77 60.24 256.04 65.83 254.46 C 74.13 252.52 82.71 253.55 91.09 254.40 C 95.65 254.80 99.92 256.61 104.30 257.84 C 101.49 268.10 98.42 278.30 96.04 288.68 C 92.75 287.89 89.43 286.88 86.00 287.08 C 80.66 287.38 75.20 286.71 69.98 288.18 C 65.64 289.28 61.25 290.37 57.19 292.28 C 51.64 295.55 45.85 298.74 41.93 304.02 C 36.85 294.75 31.81 285.44 26.70 276.18 C 32.96 269.23 41.29 264.76 49.58 260.69 Z" />
<path fill="#f5e5c1" opacity="1.00" d=" M 152.16 259.74 C 156.38 257.92 160.15 254.50 164.99 254.60 C 168.34 259.35 170.93 264.80 175.46 268.60 C 178.03 270.98 181.35 273.02 182.20 276.68 C 184.07 282.65 186.50 288.44 188.23 294.44 C 188.55 299.43 189.16 304.59 188.29 309.53 C 186.67 315.18 179.06 314.49 176.56 319.41 C 174.78 323.23 172.86 327.02 171.46 331.00 C 170.81 333.31 173.86 333.37 174.46 331.64 C 177.11 326.85 180.79 322.60 185.35 319.57 C 188.61 318.62 192.06 319.11 195.39 319.29 C 195.99 317.59 196.58 315.88 197.17 314.17 C 195.82 312.81 194.49 311.44 193.16 310.07 C 193.09 305.36 193.09 300.64 193.21 295.92 C 195.99 293.91 198.83 288.52 202.80 291.02 C 206.40 292.65 205.61 296.84 205.84 300.04 C 205.61 306.56 211.62 310.90 212.82 317.02 C 212.15 321.82 210.49 326.42 209.09 331.05 C 208.07 334.68 204.71 337.40 204.38 341.21 C 208.27 342.77 211.01 337.23 214.60 337.25 C 219.63 340.38 220.41 346.65 221.42 351.96 C 219.57 354.02 217.30 355.96 217.55 359.03 C 218.23 359.16 219.57 359.41 220.24 359.54 C 227.97 381.02 235.31 402.63 243.04 424.10 C 249.51 425.20 255.88 427.15 262.43 427.60 C 265.25 424.65 269.52 421.71 268.85 417.07 C 268.52 410.01 268.72 402.93 270.04 395.97 C 270.85 387.47 273.98 379.50 276.40 371.40 C 278.69 366.84 281.48 362.50 284.62 358.48 C 292.11 351.42 300.75 345.00 311.01 342.76 C 319.90 341.04 328.94 339.67 338.01 339.82 C 348.28 341.45 358.64 344.06 367.65 349.42 C 373.55 352.13 377.66 357.34 381.96 362.00 C 385.14 367.63 387.23 373.87 388.96 380.09 C 384.15 381.54 379.19 382.57 374.58 384.59 C 363.01 389.93 351.98 396.42 341.62 403.84 C 351.63 400.37 361.49 396.27 371.91 394.13 C 383.11 391.84 394.61 389.87 406.06 391.20 C 410.13 391.33 413.65 393.77 416.65 396.31 C 418.36 398.83 419.11 401.97 419.40 404.98 C 418.68 412.22 414.13 418.22 409.88 423.82 C 400.39 432.00 389.68 438.69 380.14 446.81 C 391.06 444.89 401.79 442.03 412.70 440.01 C 414.30 441.56 415.99 443.13 416.84 445.25 C 419.46 451.24 421.54 457.45 423.56 463.66 C 425.26 460.20 428.35 457.17 428.42 453.12 C 429.21 443.00 429.71 432.86 430.86 422.79 C 433.30 410.84 436.14 398.98 438.75 387.07 C 439.32 383.64 441.26 379.90 439.32 376.56 C 438.03 372.73 434.30 370.78 431.75 367.94 C 431.32 365.01 432.94 362.02 434.57 359.67 C 437.18 357.85 440.17 356.58 443.20 355.64 C 447.11 355.14 451.07 355.74 455.00 355.88 C 462.95 356.53 470.93 356.49 478.87 357.23 C 481.86 361.50 485.59 365.30 487.95 369.97 C 488.97 374.57 488.19 379.36 488.52 384.04 C 488.43 390.12 493.52 395.07 492.74 401.23 C 491.32 414.76 490.18 428.33 488.62 441.85 C 491.30 441.93 494.10 441.47 496.70 442.25 C 500.21 446.57 502.41 451.79 505.84 456.17 C 507.67 458.38 509.98 460.11 512.00 462.14 L 512.00 512.00 L 0.00 512.00 L 0.00 472.02 C 6.77 469.02 14.01 467.08 20.55 463.62 C 27.38 458.46 33.80 452.75 40.48 447.40 C 43.68 444.66 48.23 445.64 52.08 445.06 C 57.02 454.46 61.94 463.87 66.82 473.29 C 67.49 474.77 68.93 476.64 70.64 475.18 C 70.73 473.79 70.68 472.40 70.48 471.03 C 66.65 446.32 62.90 421.60 59.13 396.88 C 61.27 394.42 63.79 392.31 66.64 390.73 C 72.31 387.46 78.20 383.96 84.86 383.33 C 91.20 382.60 97.63 381.91 103.99 382.83 C 108.45 383.43 113.18 383.56 117.24 385.72 C 118.74 389.31 119.03 393.27 120.00 397.02 C 126.70 427.31 132.96 457.70 139.93 487.92 C 140.71 478.48 141.73 469.02 141.74 459.54 C 150.08 450.24 158.16 440.72 166.25 431.21 C 168.02 429.31 169.49 426.67 172.24 426.14 C 176.81 425.19 181.45 423.80 186.16 424.48 C 187.17 427.32 188.21 430.15 189.29 432.97 C 189.24 424.64 189.32 416.31 189.29 407.97 C 189.57 398.65 183.90 390.74 180.94 382.25 C 187.19 377.36 193.52 372.55 199.89 367.82 C 201.73 366.63 202.85 364.72 203.70 362.75 C 194.59 366.79 185.86 371.85 176.16 374.39 C 173.88 374.83 171.15 376.70 169.01 375.07 C 167.86 371.65 167.50 368.02 166.66 364.53 C 176.44 359.95 186.96 356.39 195.18 349.15 C 195.89 347.85 196.44 344.39 194.08 344.74 C 188.59 346.11 183.77 349.66 178.03 350.11 C 174.41 350.25 170.31 351.33 167.19 348.89 C 162.58 345.77 157.50 343.33 153.12 339.90 C 149.47 335.00 146.94 329.35 143.50 324.30 C 141.62 324.81 139.74 325.33 137.86 325.82 C 135.75 328.35 134.27 331.50 131.64 333.54 C 128.16 335.62 124.57 333.22 121.33 331.89 C 122.75 325.53 126.02 319.29 131.33 315.32 C 135.14 311.51 141.05 311.35 146.02 312.42 C 141.64 308.97 137.24 305.53 132.73 302.24 C 130.05 299.93 126.30 300.93 123.09 300.77 C 122.32 302.41 122.20 304.95 120.08 305.45 C 116.46 305.79 111.79 304.38 111.37 300.15 C 112.05 296.51 112.94 292.84 114.49 289.46 C 120.54 284.60 128.96 284.78 136.28 285.76 C 143.67 290.48 149.91 296.85 157.30 301.60 C 149.87 291.54 140.70 282.84 133.28 272.76 C 130.83 270.04 131.25 266.19 131.83 262.86 C 134.01 259.33 138.27 256.77 142.39 258.59 C 148.68 267.53 155.85 275.80 163.01 284.04 C 165.19 286.47 166.30 289.71 168.75 291.91 C 168.88 291.48 169.13 290.61 169.25 290.18 C 167.07 281.71 161.89 274.42 155.34 268.73 C 152.48 266.67 152.87 262.81 152.16 259.74 Z" />
<path fill="#f5e5c1" opacity="1.00" d=" M 470.14 263.68 C 476.94 262.29 483.86 263.48 490.72 263.66 C 490.44 267.77 490.01 271.89 489.08 275.91 C 488.22 277.16 486.34 276.63 485.05 277.02 C 471.57 278.00 458.09 278.99 444.61 279.97 C 443.30 280.14 441.95 280.22 440.71 280.69 C 432.37 284.83 424.62 290.17 416.18 294.08 C 401.60 296.71 386.83 298.47 372.30 301.28 C 368.36 305.35 365.39 310.27 361.73 314.60 C 359.36 314.37 356.14 315.84 354.52 313.48 C 353.27 312.05 352.18 310.50 351.03 309.01 C 351.35 304.23 351.84 299.47 352.47 294.72 C 355.82 292.22 359.16 289.43 363.42 288.68 C 370.25 287.19 376.81 283.50 383.97 284.42 C 391.32 284.77 398.64 285.41 405.99 285.71 C 407.95 285.74 410.08 286.14 411.82 284.97 C 422.17 279.33 432.31 273.25 442.79 267.87 C 451.85 266.20 461.03 265.13 470.14 263.68 Z" />
<path fill="#f5e5c1" opacity="1.00" d=" M 445.51 286.83 C 459.10 285.41 472.66 283.49 486.26 282.18 C 487.98 284.73 488.85 287.95 489.46 290.97 C 488.24 296.65 486.63 302.26 485.46 307.95 C 485.02 309.30 485.67 310.63 486.06 311.90 C 490.11 322.93 493.89 334.07 497.95 345.10 C 499.85 346.50 502.39 347.12 503.74 349.21 C 505.40 351.17 506.85 354.52 504.54 356.58 C 501.55 359.08 497.44 359.62 493.82 360.78 C 492.09 358.01 490.81 354.91 488.64 352.45 C 485.21 351.07 481.52 350.28 477.89 349.63 C 465.58 349.20 453.26 349.46 440.96 348.96 C 438.83 348.99 436.38 348.26 434.53 349.65 C 432.23 351.42 430.43 353.73 428.69 356.03 C 427.66 355.56 426.18 355.62 425.57 354.52 C 423.69 351.33 422.82 347.69 421.89 344.16 C 424.98 342.57 427.89 340.47 431.25 339.47 C 438.14 338.94 445.07 338.15 451.98 338.70 C 458.97 339.46 466.00 339.67 472.99 340.48 C 474.47 340.42 476.44 341.14 477.54 339.76 C 478.16 337.95 476.59 336.56 474.93 336.34 C 465.20 333.95 455.44 331.68 445.72 329.26 C 438.68 327.03 431.42 329.75 424.29 329.89 C 428.62 323.83 431.08 316.77 433.98 309.98 C 434.75 308.33 434.80 306.49 434.96 304.71 C 433.53 305.27 431.61 305.25 430.80 306.78 C 426.54 313.43 422.06 319.97 417.25 326.24 C 413.64 330.99 407.62 332.82 402.06 334.13 C 396.67 335.37 391.35 333.57 386.10 332.52 C 379.27 330.84 372.82 326.48 369.76 319.99 C 368.75 316.62 371.20 313.61 372.92 310.95 C 374.12 309.17 375.67 307.32 377.99 307.13 C 391.93 304.81 405.89 302.50 419.84 300.24 C 421.48 300.02 423.01 299.31 424.37 298.40 C 429.38 295.06 434.40 291.74 439.43 288.44 C 441.20 287.18 443.43 287.13 445.51 286.83 Z" />
<path fill="#f5e5c1" opacity="1.00" d=" M 44.58 316.86 C 49.77 306.95 59.52 299.81 70.18 296.71 C 79.09 295.19 88.88 294.70 97.20 298.75 C 99.46 302.48 100.33 306.86 101.37 311.05 C 102.03 312.54 100.79 314.67 99.08 314.41 C 93.38 314.06 87.82 311.96 82.07 312.65 C 73.59 313.35 65.22 315.67 57.78 319.84 C 54.35 322.13 51.11 324.69 47.67 326.97 C 46.37 323.68 45.63 320.22 44.58 316.86 Z" />
<path fill="#f5e5c1" opacity="1.00" d=" M 73.78 321.80 C 81.95 319.68 91.23 319.01 98.89 323.14 C 102.66 325.69 106.09 328.73 109.56 331.68 C 109.34 345.99 108.23 360.30 108.60 374.62 C 97.45 373.56 85.84 372.20 75.00 375.91 C 68.71 377.94 63.07 381.54 57.98 385.70 C 54.22 375.99 50.09 366.44 46.16 356.81 C 45.22 354.36 43.54 351.82 44.50 349.11 C 45.68 345.14 46.43 340.98 48.06 337.17 C 55.29 330.17 63.94 324.36 73.78 321.80 Z" />
<path fill="#f4722b" opacity="1.00" d=" M 228.57 351.77 C 235.54 353.24 241.88 356.89 249.04 357.57 C 257.59 359.44 266.35 359.71 275.03 360.62 C 267.72 371.66 263.62 384.78 263.47 398.02 C 263.18 404.05 262.52 410.05 261.95 416.06 C 261.94 418.50 259.83 419.99 258.34 421.62 C 255.69 420.88 253.04 420.17 250.38 419.49 C 242.96 396.97 235.90 374.32 228.57 351.77 Z" />
<path fill="#3e3e3e" opacity="1.00" d=" M 383.48 401.73 C 390.55 400.29 397.83 398.58 405.07 399.80 C 407.35 400.12 409.44 401.40 410.88 403.19 C 412.72 407.57 410.55 412.25 407.25 415.27 C 398.34 426.77 384.24 431.83 372.59 439.83 C 371.25 437.07 371.02 433.47 368.11 431.81 C 362.44 426.94 355.17 424.76 348.64 421.37 C 342.01 417.58 334.09 418.90 326.86 417.43 C 335.56 414.09 344.59 411.62 353.44 408.67 C 363.40 406.15 373.46 404.00 383.48 401.73 Z" />
</svg>
