<?xml version="1.0" encoding="UTF-8" ?>
<!DOCTYPE svg PUBLIC "-//W3C//DTD SVG 1.1//EN" "http://www.w3.org/Graphics/SVG/1.1/DTD/svg11.dtd">
<svg width="512pt" height="512pt" viewBox="0 0 512 512" version="1.1" xmlns="http://www.w3.org/2000/svg">
<path fill="#3e3e3e" opacity="1.00" d=" M 0.00 0.00 L 512.00 0.00 L 512.00 512.00 L 0.00 512.00 L 0.00 0.00 Z" />
<path fill="#f3722c" opacity="1.00" d=" M 51.96 32.92 C 65.15 24.27 81.27 21.90 96.77 22.15 C 87.51 25.17 79.06 31.67 75.83 41.12 C 70.56 56.20 74.34 72.57 78.88 87.33 C 88.42 116.29 103.38 143.06 118.81 169.22 C 134.23 191.51 149.29 214.05 164.63 236.40 C 170.16 244.27 176.19 251.77 181.98 259.45 C 191.68 250.90 201.13 241.94 212.23 235.19 C 222.22 227.52 232.84 220.75 243.24 213.65 C 243.43 219.17 241.70 224.50 241.53 229.99 C 238.63 261.61 238.70 293.50 241.59 325.12 C 243.61 345.54 246.23 366.00 251.13 385.95 C 237.05 383.05 222.94 380.29 208.86 377.54 C 196.45 376.36 184.42 372.71 171.94 372.13 C 164.56 371.92 157.42 369.51 150.03 369.51 C 126.03 366.77 101.88 364.62 77.70 363.83 C 80.54 360.56 82.95 356.95 85.62 353.55 C 95.85 340.26 106.98 327.71 118.54 315.58 C 120.59 313.49 122.82 311.58 125.03 309.67 C 111.34 286.25 97.33 263.00 83.03 239.95 C 71.25 220.34 60.04 200.38 50.14 179.76 C 41.81 162.04 33.97 143.98 28.91 125.02 C 24.79 110.42 22.68 95.16 23.99 79.99 C 25.98 61.29 35.78 43.01 51.96 32.92 Z" />
<path fill="#f3722c" opacity="1.00" d=" M 99.65 30.60 C 107.68 28.36 116.02 30.46 124.09 31.42 C 141.28 34.64 158.70 37.94 174.63 45.43 C 199.31 55.90 223.02 68.44 246.68 80.99 C 234.37 100.68 221.83 120.22 209.38 139.82 C 179.32 123.71 148.78 107.87 116.05 97.85 C 107.84 95.75 99.59 93.27 91.04 93.21 C 88.36 85.13 84.39 77.42 83.13 68.93 C 82.40 64.66 81.02 60.41 81.54 56.03 C 82.08 50.75 82.57 45.11 85.58 40.56 C 88.55 35.36 94.45 32.96 99.65 30.60 Z" />
<path fill="#f5e5c1" opacity="1.00" d=" M 261.49 123.15 C 279.26 126.78 296.95 130.75 314.93 133.09 C 322.15 134.93 329.58 135.62 336.94 136.70 C 345.01 136.86 352.87 138.97 360.90 139.55 C 385.43 141.89 410.05 145.00 434.73 144.98 C 423.30 160.31 411.22 175.19 397.96 188.98 C 394.00 193.40 389.71 197.49 385.16 201.29 C 389.02 206.92 393.05 212.43 397.04 217.97 C 409.58 237.78 422.63 257.30 434.44 277.58 C 437.73 283.59 442.24 288.92 444.68 295.39 C 460.44 324.31 475.49 354.03 484.04 385.98 C 488.01 400.61 489.74 415.90 488.15 431.01 C 486.01 444.81 480.35 458.39 470.18 468.21 C 460.57 477.85 447.51 483.70 434.11 485.59 C 428.09 486.75 421.93 486.43 415.84 486.83 C 424.35 484.05 432.24 478.35 435.86 469.94 C 441.45 457.25 439.30 442.81 436.04 429.81 C 429.25 404.82 417.33 381.63 404.90 359.05 C 399.77 350.29 395.17 341.17 389.05 333.03 C 374.87 312.18 360.68 291.34 346.53 270.46 C 341.87 262.99 335.33 256.99 329.61 250.36 C 320.15 258.68 310.75 267.16 300.02 273.86 C 290.16 281.57 279.42 288.06 269.26 295.36 C 274.60 253.14 274.42 210.23 269.34 167.98 C 267.32 152.94 265.17 137.88 261.49 123.15 Z" />
<path fill="#f5e5c1" opacity="1.00" d=" M 302.99 368.75 C 319.19 377.00 335.19 385.68 351.77 393.17 C 360.45 397.87 369.94 400.73 378.92 404.74 C 393.18 409.65 407.75 414.98 423.05 414.65 C 427.10 425.43 431.56 436.34 431.92 448.01 C 432.01 454.89 432.11 462.22 428.62 468.41 C 427.28 471.67 424.06 473.40 421.46 475.52 C 418.87 477.76 415.26 477.75 412.09 478.48 C 393.15 480.55 374.38 475.70 356.57 469.70 C 338.81 463.28 321.13 456.46 304.37 447.69 C 291.09 441.35 278.43 433.82 265.52 426.77 C 267.33 423.60 269.56 420.71 271.76 417.81 C 282.14 401.44 292.59 385.12 302.99 368.75 Z" />
</svg>
