<?xml version="1.0" encoding="UTF-8" ?>
<!DOCTYPE svg PUBLIC "-//W3C//DTD SVG 1.1//EN" "http://www.w3.org/Graphics/SVG/1.1/DTD/svg11.dtd">
<svg width="512pt" height="512pt" viewBox="0 0 512 512" version="1.1" xmlns="http://www.w3.org/2000/svg">
<path fill="#3e3e3e" opacity="1.00" d=" M 0.00 0.00 L 512.00 0.00 L 512.00 512.00 L 0.00 512.00 L 0.00 0.00 Z" />
<path fill="#f5e5c1" opacity="1.00" d=" M 317.46 26.69 C 327.00 23.44 337.46 24.24 347.02 26.94 C 351.55 28.62 356.59 30.35 359.29 34.67 C 366.94 44.18 370.30 56.11 375.49 66.97 C 374.88 67.39 373.66 68.22 373.05 68.64 C 364.07 64.23 354.26 60.20 344.06 61.20 C 339.38 61.71 335.13 63.98 331.28 66.58 C 332.47 63.93 332.21 59.67 335.49 58.60 C 342.62 56.02 350.89 54.44 357.99 58.02 C 361.94 59.52 365.40 62.74 369.83 62.52 C 365.81 55.71 362.57 48.46 358.02 41.96 C 355.77 38.80 353.20 34.77 349.02 34.29 C 344.65 35.46 340.22 37.78 337.73 41.71 C 335.64 44.94 333.21 47.92 331.11 51.14 C 324.45 62.59 322.75 76.03 321.79 89.02 C 321.83 91.94 322.27 94.85 322.36 97.77 C 316.65 95.42 311.30 92.06 305.11 91.05 C 296.34 88.41 287.02 88.00 277.98 89.24 C 271.51 89.75 264.99 90.31 258.71 92.02 C 248.97 94.10 239.85 98.35 230.14 100.50 C 238.39 88.52 248.31 77.83 258.27 67.28 C 264.87 59.87 272.67 53.70 279.96 47.00 C 284.11 43.10 288.28 39.11 293.18 36.16 C 300.97 32.28 309.12 29.16 317.46 26.69 Z" />
<path fill="#f4722b" opacity="1.00" d=" M 96.37 91.42 C 100.24 91.88 102.67 95.19 105.50 97.49 C 110.97 102.09 113.51 108.95 116.81 115.07 C 120.78 124.98 125.81 135.04 125.29 146.01 C 125.76 157.44 123.01 168.88 118.21 179.22 C 109.95 191.98 106.78 207.14 104.23 221.91 C 102.64 230.13 103.75 238.52 103.01 246.80 C 98.31 242.28 97.27 235.22 96.11 229.06 C 95.77 221.36 94.80 213.69 94.65 205.98 C 94.71 188.59 87.77 172.17 86.45 154.94 C 85.76 147.60 87.48 140.34 87.52 133.01 C 87.50 127.87 89.21 122.97 90.52 118.07 C 92.25 112.14 95.91 106.88 96.87 100.70 C 97.48 97.61 96.74 94.49 96.37 91.42 Z" />
<path fill="#f4722b" opacity="1.00" d=" M 247.94 136.69 C 249.94 138.67 249.77 141.75 250.87 144.21 C 253.39 153.33 263.25 158.46 264.43 168.16 C 264.60 174.91 265.41 182.10 262.32 188.37 C 259.85 192.48 255.65 195.09 252.66 198.77 C 249.88 201.67 248.33 205.41 246.48 208.90 C 244.59 209.38 243.88 207.14 242.93 205.97 C 238.99 198.61 233.99 191.54 232.43 183.18 C 231.09 176.85 230.88 170.19 232.62 163.91 C 234.73 166.11 236.76 169.03 240.17 168.94 C 240.13 161.26 243.81 154.37 245.14 146.94 C 245.85 143.47 246.78 140.04 247.94 136.69 Z" />
<path fill="#f5e5c1" opacity="1.00" d=" M 385.85 144.22 C 393.26 146.98 400.29 150.85 407.93 153.06 C 413.32 154.26 418.78 155.11 424.19 156.20 C 437.82 157.44 452.14 156.77 464.63 150.69 C 468.16 148.46 471.71 146.26 475.33 144.16 C 474.14 149.04 474.92 154.13 473.69 159.00 C 471.44 172.11 467.57 184.89 463.13 197.42 C 460.35 205.90 455.53 213.49 451.74 221.53 C 449.68 225.97 446.35 229.61 443.79 233.75 C 441.53 237.41 438.89 240.82 435.96 243.96 C 432.26 247.92 429.05 252.36 424.97 255.95 C 419.16 261.09 413.29 266.17 407.05 270.78 C 392.17 262.06 374.91 259.04 358.07 256.66 C 349.81 256.34 341.54 256.07 333.27 256.35 C 319.76 258.12 306.72 262.43 294.28 267.89 C 294.33 267.46 294.43 266.60 294.47 266.17 C 310.48 254.57 327.76 244.64 342.97 231.93 C 351.90 223.43 359.90 213.90 366.32 203.36 C 370.06 198.52 371.73 192.59 373.96 187.00 C 377.88 177.77 380.38 168.05 383.05 158.41 C 383.51 153.59 384.66 148.90 385.85 144.22 Z" />
<path fill="#f4722b" opacity="1.00" d=" M 171.03 182.85 C 171.62 183.07 172.79 183.52 173.38 183.74 C 171.13 197.79 171.86 212.37 175.59 226.11 C 178.04 232.35 181.60 238.13 185.52 243.55 C 188.79 247.16 193.29 249.46 197.80 251.15 C 204.56 254.23 212.66 254.06 219.47 251.26 C 224.43 248.56 228.85 244.76 231.96 240.03 C 233.64 237.85 234.97 235.16 237.56 233.90 C 238.38 243.60 237.98 253.36 239.17 263.02 C 239.47 273.82 242.79 284.21 244.45 294.83 C 245.20 302.01 249.91 307.75 252.87 314.10 C 254.76 318.73 259.49 320.90 263.14 323.92 C 269.56 328.85 276.74 332.73 284.46 335.22 C 291.77 336.58 299.42 336.15 306.41 333.51 C 311.59 331.85 315.91 328.41 320.32 325.33 C 322.79 323.62 324.30 320.96 326.06 318.60 C 330.06 322.47 332.81 327.85 338.14 330.18 C 343.56 332.06 350.07 332.33 354.97 328.94 C 360.19 325.57 363.43 320.06 367.66 315.64 C 373.22 309.79 377.30 302.76 382.45 296.57 C 380.73 306.63 376.23 316.03 374.01 325.99 C 372.73 336.44 370.12 348.22 376.50 357.58 C 381.31 361.19 387.01 364.03 393.11 364.48 C 398.42 365.01 403.31 367.29 408.35 368.86 C 400.63 373.33 391.75 375.99 384.70 381.69 C 381.60 384.26 378.25 386.52 375.30 389.25 C 363.74 401.72 354.89 416.32 345.28 430.27 C 341.28 435.90 338.01 442.14 332.90 446.89 C 327.50 452.15 322.59 457.95 316.88 462.87 C 308.36 468.38 300.41 474.90 291.09 479.07 C 285.51 481.63 280.28 485.25 274.12 486.30 C 266.77 487.78 259.61 490.22 252.16 491.13 C 235.79 492.05 219.43 493.63 203.02 493.32 C 189.03 491.74 174.94 490.74 161.07 488.23 C 152.97 486.83 144.80 485.82 136.75 484.15 C 125.81 481.15 114.86 478.13 103.94 475.05 C 91.61 470.83 79.45 466.08 67.84 460.17 C 61.12 455.85 54.16 451.87 47.57 447.36 C 42.29 442.66 37.09 437.86 31.99 432.97 C 27.90 428.30 24.67 422.95 20.89 418.04 C 18.35 414.90 18.08 410.75 17.14 406.99 C 16.12 402.01 14.34 397.11 14.62 391.96 C 14.85 387.54 13.88 382.87 15.87 378.73 C 18.39 372.92 20.45 366.92 23.19 361.22 C 26.87 354.91 30.57 348.61 34.43 342.42 C 35.02 341.06 36.57 341.18 37.78 340.89 C 37.40 346.28 38.50 351.63 40.75 356.53 C 46.55 365.18 58.71 366.74 67.76 362.75 C 72.55 358.13 76.98 352.83 79.61 346.65 C 81.02 341.53 81.68 336.20 82.18 330.92 C 81.78 324.09 79.74 317.53 77.51 311.11 C 84.14 314.74 88.07 321.55 93.08 326.96 C 98.84 332.73 99.28 342.01 105.71 347.22 C 109.86 348.89 114.40 347.03 118.54 346.13 C 122.15 350.08 126.14 353.97 131.31 355.76 C 135.99 357.36 140.90 359.46 145.95 358.52 C 150.77 357.81 155.99 357.11 159.74 353.69 C 165.83 346.46 166.59 336.79 168.37 327.90 C 168.77 319.77 169.45 311.52 167.88 303.47 C 166.46 295.76 166.09 287.84 163.77 280.31 C 160.44 268.60 156.99 256.90 154.63 244.94 C 152.88 239.39 154.64 233.66 154.46 228.00 C 154.08 219.01 158.38 210.85 160.61 202.35 C 163.40 195.53 167.48 189.30 171.03 182.85 Z" />
<path fill="#3e3e3e" opacity="1.00" d=" M 357.05 224.79 C 367.88 215.80 382.35 213.33 395.96 212.21 C 404.63 212.42 413.79 212.94 421.41 217.52 C 424.18 219.76 426.61 222.38 429.28 224.74 C 432.74 227.60 433.62 232.22 435.00 236.26 C 432.22 235.43 431.23 232.52 429.52 230.49 C 425.00 225.22 418.70 221.63 412.04 219.85 C 404.67 218.72 397.45 215.80 389.88 216.78 C 378.65 217.93 367.55 220.62 357.05 224.79 Z" />
<path fill="#3e3e3e" opacity="1.00" d=" M 203.90 348.88 C 205.71 346.34 209.26 347.83 211.69 348.50 C 224.01 353.61 234.64 362.29 247.45 366.32 C 253.74 368.42 259.75 371.62 266.43 372.32 C 273.30 373.16 280.13 374.34 287.01 375.10 C 294.32 374.90 301.64 374.35 308.96 374.21 C 312.10 374.13 315.12 373.16 318.12 372.34 C 322.42 371.10 327.03 371.21 331.17 369.40 C 339.60 365.85 348.30 362.91 356.44 358.71 C 358.83 357.90 361.30 356.04 363.92 356.75 C 367.08 358.88 369.27 362.10 371.82 364.87 C 370.68 367.58 369.47 370.30 367.60 372.59 C 358.94 383.51 352.96 396.27 343.99 406.96 C 338.31 415.47 330.58 422.21 323.54 429.53 C 317.71 435.78 310.49 440.47 303.97 445.93 C 297.95 450.16 291.12 453.06 284.75 456.72 C 277.62 461.07 269.33 462.67 261.56 465.48 C 255.18 467.87 248.48 469.14 241.87 470.70 C 235.98 471.82 230.12 473.45 224.08 473.46 C 214.75 473.70 205.33 475.68 196.05 473.82 C 177.96 471.94 159.78 470.18 142.03 466.06 C 133.28 463.37 124.33 461.31 115.70 458.27 C 103.46 452.32 91.31 446.14 79.28 439.76 C 74.80 437.29 69.84 435.45 66.20 431.71 C 56.49 422.44 45.54 413.73 39.55 401.40 C 36.09 394.63 31.65 388.32 28.90 381.21 C 33.42 381.49 37.22 384.20 41.32 385.83 C 45.33 387.79 49.81 388.24 54.13 389.09 C 68.07 391.74 82.04 394.25 95.99 396.84 C 101.29 397.84 106.71 397.51 112.05 398.13 C 123.12 399.15 134.13 397.19 144.95 395.07 C 151.96 392.86 159.57 391.99 165.78 387.80 C 170.40 384.78 175.74 382.70 179.56 378.58 C 184.02 374.02 188.84 369.81 193.24 365.20 C 197.20 360.04 200.00 354.08 203.90 348.88 Z" />
<path fill="#f5e5c1" opacity="1.00" d=" M 212.09 354.90 C 223.58 361.56 234.95 368.50 247.15 373.84 C 254.76 376.50 262.66 378.26 270.46 380.28 C 278.31 380.84 286.16 382.27 294.06 381.64 C 303.49 381.07 312.89 379.72 322.08 377.52 C 335.89 373.56 349.44 368.83 362.73 363.38 C 360.91 367.16 357.78 370.07 355.40 373.49 C 353.11 376.83 350.19 379.68 346.68 381.72 C 334.01 389.71 322.34 399.37 308.57 405.51 C 300.25 409.09 293.21 415.75 283.95 416.84 C 270.66 420.24 256.90 422.57 243.17 420.94 C 235.77 419.22 228.21 417.89 221.22 414.79 C 214.66 412.57 208.47 409.42 201.97 407.10 C 195.63 409.55 189.60 412.88 183.02 414.72 C 173.39 416.77 163.65 418.20 153.81 418.71 C 145.90 420.12 137.95 418.41 130.00 418.36 C 121.80 418.80 113.90 416.16 105.86 414.98 C 96.28 412.51 86.88 409.31 77.42 406.38 C 69.80 402.67 62.51 398.28 55.01 394.33 C 62.45 395.90 69.64 398.51 77.15 399.79 C 85.11 401.13 92.93 403.79 101.07 403.68 C 108.06 404.09 114.98 405.40 121.99 405.55 C 139.89 404.79 157.84 400.98 173.91 392.92 C 178.31 389.68 182.65 386.33 186.98 382.98 C 191.37 379.03 195.29 374.58 199.52 370.46 C 204.42 365.88 208.06 360.20 212.09 354.90 Z" />
<path fill="#f5e5c1" opacity="1.00" d=" M 325.86 403.87 C 334.56 399.01 341.48 391.65 349.84 386.29 C 345.08 393.86 339.22 400.73 333.86 407.90 C 320.72 421.85 307.27 436.19 290.04 445.12 C 273.93 455.35 255.28 460.43 236.90 464.86 C 227.17 465.97 217.32 466.05 207.57 466.88 C 204.41 467.80 201.25 466.60 198.06 466.61 C 190.08 466.68 182.13 465.74 174.23 464.78 C 155.93 460.38 137.64 455.92 119.39 451.32 C 110.51 447.58 102.02 442.92 93.28 438.85 C 88.21 436.21 82.71 434.28 78.15 430.76 C 73.60 427.34 69.00 424.00 64.43 420.60 C 61.57 418.44 58.40 416.55 56.27 413.60 C 50.36 406.01 44.25 398.57 38.36 390.96 C 43.47 394.42 48.08 398.64 53.61 401.46 C 61.46 405.56 69.14 409.99 77.06 413.94 C 84.58 416.97 92.28 419.54 99.86 422.41 C 105.92 424.94 112.57 425.16 118.95 426.35 C 129.19 428.23 139.61 428.80 150.00 428.76 C 163.14 427.20 176.28 425.06 188.94 421.11 C 192.99 419.92 196.69 417.42 200.83 416.76 C 206.24 419.00 211.20 422.30 216.76 424.17 C 222.80 425.34 228.83 426.63 234.92 427.50 C 244.06 427.62 253.26 429.92 262.35 428.07 C 268.36 426.93 274.44 426.13 280.49 425.35 C 288.84 422.28 296.80 418.21 305.08 414.94 C 312.45 412.14 319.03 407.74 325.86 403.87 Z" />
</svg>
