<?xml version="1.0" encoding="UTF-8" ?>
<!DOCTYPE svg PUBLIC "-//W3C//DTD SVG 1.1//EN" "http://www.w3.org/Graphics/SVG/1.1/DTD/svg11.dtd">
<svg width="512pt" height="512pt" viewBox="0 0 512 512" version="1.1" xmlns="http://www.w3.org/2000/svg">
<path fill="#3e3e3e" opacity="1.00" d=" M 0.00 0.00 L 512.00 0.00 L 512.00 512.00 L 0.00 512.00 L 0.00 0.00 Z" />
<path fill="#f5e5c1" opacity="1.00" d=" M 296.28 21.20 C 304.47 19.40 312.53 16.41 321.02 16.54 C 326.99 16.41 332.97 16.38 338.95 16.27 C 341.68 16.25 344.50 16.12 347.09 17.13 C 353.69 19.45 360.57 21.06 366.87 24.17 C 372.47 26.82 378.12 29.39 383.45 32.57 C 387.62 35.08 392.48 36.47 396.10 39.83 C 400.61 43.95 405.55 47.68 409.30 52.55 C 396.96 53.16 384.70 51.68 372.46 50.28 C 363.61 48.21 354.79 46.02 345.98 43.77 C 341.93 42.67 336.84 43.85 335.12 48.07 C 329.54 59.14 324.05 70.27 318.00 81.11 C 316.30 83.75 317.07 87.08 315.81 89.89 C 312.06 100.87 309.40 112.25 304.94 122.97 C 301.86 135.25 298.97 147.59 296.60 160.03 C 295.08 168.90 290.22 176.65 286.90 184.90 C 284.25 191.98 278.52 197.16 273.37 202.45 C 270.05 204.85 266.25 206.59 262.55 208.34 C 257.79 209.40 252.88 209.64 248.03 210.13 C 242.97 209.63 238.00 208.36 232.96 207.64 C 224.26 206.43 216.59 201.90 208.54 198.72 C 203.73 197.26 198.67 196.84 193.93 195.11 C 181.66 193.19 169.37 191.08 156.96 190.23 C 146.39 190.67 135.89 192.18 125.32 192.76 C 128.02 188.08 130.40 183.24 132.32 178.19 C 140.39 161.27 149.64 144.95 158.36 128.36 C 160.23 124.97 161.86 121.41 164.25 118.34 C 172.65 107.69 181.08 97.06 189.46 86.39 C 191.99 82.99 195.44 80.46 198.57 77.66 C 210.08 68.11 220.90 57.53 233.84 49.89 C 241.23 45.28 248.61 40.66 255.99 36.04 C 259.91 33.59 264.37 32.29 268.63 30.58 C 277.67 26.97 286.71 23.17 296.28 21.20 Z" />
<path fill="#f5e5c1" opacity="1.00" d=" M 438.37 55.19 C 441.22 54.14 444.03 52.87 447.04 52.29 C 449.66 52.23 451.96 53.65 454.23 54.76 C 455.01 56.65 455.70 58.59 456.04 60.62 C 458.06 73.39 460.00 86.18 462.31 98.90 C 463.23 107.82 465.42 116.58 465.74 125.56 C 452.71 122.55 439.42 120.73 426.44 117.51 C 420.65 103.12 415.46 88.48 409.29 74.26 C 404.41 74.34 400.50 78.18 398.05 82.06 C 392.36 94.14 386.67 106.21 381.02 118.30 C 367.76 120.47 354.48 122.72 341.11 123.99 C 338.08 124.81 334.96 125.25 331.91 125.95 C 328.18 127.31 327.16 131.73 326.57 135.20 C 335.50 147.15 345.56 158.28 354.73 170.06 C 355.10 172.99 353.91 175.86 353.37 178.70 C 346.87 207.78 340.36 236.86 333.89 265.95 C 333.32 267.80 333.89 269.64 334.76 271.29 C 335.83 271.62 336.90 271.98 337.97 272.35 C 344.17 271.02 349.05 266.76 353.16 262.17 C 367.22 246.87 381.32 231.59 395.27 216.18 C 404.45 221.80 413.39 227.80 422.47 233.60 C 427.19 236.48 431.30 240.30 436.37 242.60 C 438.50 243.52 440.16 245.94 442.66 245.71 C 444.69 244.63 446.98 242.47 446.16 239.94 C 442.24 217.66 438.34 195.38 434.38 173.11 C 434.16 171.44 433.76 169.50 435.04 168.13 C 440.24 160.96 445.35 153.73 450.57 146.57 C 455.38 139.97 460.96 133.97 466.11 127.63 C 465.86 134.72 466.90 141.90 465.61 148.92 C 465.59 156.40 465.87 163.89 465.51 171.37 C 464.33 180.41 464.13 189.57 462.47 198.56 C 460.38 208.61 461.51 219.21 458.00 228.97 C 457.49 232.34 457.80 235.80 457.09 239.16 C 455.08 248.69 453.89 258.36 452.94 268.04 C 452.65 271.98 450.63 275.76 451.37 279.75 C 443.76 284.80 435.26 288.97 426.04 289.78 C 415.84 291.86 405.43 292.69 395.02 292.47 C 389.28 292.82 383.64 291.16 377.90 291.75 C 367.08 293.37 356.09 290.77 345.97 286.98 C 338.69 284.81 331.16 283.21 324.37 279.70 C 316.88 276.80 310.09 272.42 303.45 267.99 C 303.38 254.31 304.76 240.68 304.71 227.00 C 305.46 219.50 305.25 211.96 305.69 204.44 C 307.84 181.51 311.48 158.75 315.21 136.03 C 319.76 119.50 324.55 103.01 329.41 86.57 C 333.48 77.20 337.45 67.78 341.50 58.40 C 342.46 55.32 346.02 54.24 348.95 54.51 C 354.86 54.19 360.32 56.79 366.09 57.59 C 372.41 58.57 378.61 60.61 385.06 60.56 C 393.77 60.60 402.47 61.72 411.18 61.05 C 420.30 59.44 429.61 58.38 438.37 55.19 Z" />
<path fill="#f4722b" opacity="1.00" d=" M 399.74 95.69 C 401.03 92.13 401.52 87.85 404.86 85.51 C 410.86 98.27 414.06 112.10 418.84 125.33 C 426.38 126.19 433.88 127.38 441.41 128.37 C 446.59 128.99 451.81 128.54 457.02 128.63 C 450.67 136.73 444.35 144.86 437.54 152.57 C 433.40 158.85 427.36 163.77 423.36 170.06 C 426.71 187.10 430.68 204.02 434.07 221.06 C 434.89 225.78 436.43 230.39 436.53 235.23 C 423.57 223.23 411.50 210.30 398.81 198.02 C 380.50 218.34 362.89 239.30 344.78 259.80 C 343.71 261.14 342.12 261.80 340.42 261.58 C 341.43 256.05 343.90 250.97 345.72 245.69 C 354.30 220.72 363.17 195.86 371.73 170.89 C 360.83 159.89 349.83 148.98 338.89 138.02 C 337.06 136.75 338.53 133.87 340.37 133.44 C 349.22 132.38 358.16 132.55 367.05 132.18 C 373.55 131.23 380.13 131.82 386.66 131.33 C 387.49 130.45 387.72 129.19 388.19 128.12 C 392.00 117.29 395.90 106.50 399.74 95.69 Z" />
<path fill="#f5e5c1" opacity="1.00" d=" M 125.21 204.19 C 132.27 202.17 139.68 202.15 146.96 202.21 C 151.96 202.25 156.97 201.13 161.94 202.02 C 168.69 203.19 175.73 201.53 182.33 203.63 C 186.08 204.69 189.96 205.19 193.81 205.72 C 204.86 208.04 214.91 213.33 225.12 217.93 C 236.14 221.38 245.74 227.98 256.02 233.05 C 260.97 235.90 264.87 240.15 269.22 243.79 C 273.39 247.26 277.06 251.29 280.56 255.42 C 284.90 260.72 287.77 267.00 290.86 273.06 C 293.89 279.33 299.26 283.99 304.33 288.59 C 306.71 290.86 308.79 293.49 311.49 295.42 C 318.03 300.27 324.48 305.23 331.05 310.02 C 336.80 313.67 342.81 316.89 348.65 320.38 C 350.95 321.67 353.15 323.44 355.88 323.59 C 349.50 325.64 344.01 329.69 338.78 333.76 C 332.01 339.04 326.90 346.02 322.10 353.05 C 315.64 349.43 308.82 346.43 302.61 342.37 C 290.23 334.29 280.63 322.79 268.66 314.20 C 264.54 310.98 261.69 306.56 258.42 302.56 C 252.47 295.75 246.74 288.78 241.31 281.55 C 237.16 276.98 234.22 271.49 230.14 266.87 C 219.49 257.43 212.67 244.53 202.23 234.88 C 197.99 231.81 194.97 227.37 190.55 224.53 C 183.23 219.91 175.32 216.20 166.93 214.00 C 156.79 210.24 145.71 210.90 135.17 212.16 C 124.96 214.27 114.63 216.17 104.82 219.77 C 96.50 223.40 88.27 227.25 80.00 230.98 C 69.49 236.46 59.32 242.61 50.08 250.05 C 44.53 253.45 41.03 259.02 36.85 263.83 C 35.24 265.84 33.34 267.69 32.25 270.06 C 29.64 276.64 26.65 283.12 25.68 290.19 C 27.56 287.18 28.98 283.91 30.81 280.88 C 34.55 275.07 39.43 269.94 45.28 266.23 C 49.33 263.68 52.77 260.26 57.00 257.99 C 65.82 252.51 74.79 247.13 84.55 243.47 C 94.61 240.66 104.76 237.93 115.16 236.65 C 123.48 236.22 131.83 236.26 140.16 236.43 C 144.14 236.36 148.00 237.79 151.42 239.73 C 157.86 245.27 165.17 249.77 171.06 255.97 C 177.02 261.57 180.63 269.02 185.39 275.56 C 187.89 279.08 190.23 282.72 192.53 286.39 C 196.06 292.11 198.23 298.52 201.33 304.47 C 204.99 311.76 209.05 318.95 211.08 326.91 C 206.74 329.25 203.25 333.15 198.32 334.29 C 189.74 336.84 181.33 339.93 172.61 341.97 C 172.34 336.34 173.54 330.32 171.02 325.05 C 168.88 321.10 164.17 319.90 160.00 319.83 C 130.34 319.82 100.69 319.82 71.03 319.83 C 66.67 319.86 61.71 321.26 59.72 325.54 C 57.45 331.26 58.68 337.56 58.41 343.55 C 51.89 340.09 44.80 337.58 39.03 332.85 C 35.22 329.74 30.29 327.71 27.72 323.32 C 24.30 317.72 20.81 312.16 17.34 306.59 C 15.97 304.65 16.57 302.16 16.44 299.96 C 16.68 294.59 15.75 289.06 17.54 283.87 C 19.56 277.88 20.17 271.25 23.89 265.96 C 27.14 261.27 29.52 255.81 34.09 252.19 C 40.25 246.99 45.99 241.34 51.67 235.64 C 55.44 231.70 60.85 230.19 65.35 227.30 C 77.71 221.04 90.32 215.28 103.22 210.22 C 110.13 206.87 117.85 206.08 125.21 204.19 Z" />
<path fill="#f5e5c1" opacity="1.00" d=" M 464.86 238.55 C 465.03 235.64 467.35 233.36 470.14 232.80 C 470.24 233.42 470.45 234.65 470.55 235.26 C 475.49 239.55 478.63 245.33 482.32 250.63 C 486.34 256.90 487.33 264.44 490.39 271.12 C 492.18 275.92 491.13 281.10 492.07 286.05 C 492.99 291.38 491.96 296.78 490.86 302.00 C 487.64 309.24 485.30 316.85 482.18 324.14 C 474.51 336.73 464.06 348.17 450.58 354.58 C 446.52 356.92 442.55 359.44 438.27 361.37 C 433.53 351.71 427.25 342.59 419.12 335.49 C 425.95 334.38 433.06 333.69 439.22 330.28 C 445.76 328.21 451.24 323.82 455.50 318.53 C 461.66 310.07 464.31 299.32 463.71 288.95 C 462.53 283.72 462.23 278.35 460.54 273.24 C 461.90 261.67 463.57 250.13 464.86 238.55 Z" />
<path fill="#f4722b" opacity="1.00" d=" M 68.96 330.33 C 99.99 330.43 131.01 330.42 162.04 330.33 C 162.36 344.69 162.05 359.06 162.20 373.43 C 140.97 373.59 119.73 373.46 98.49 373.49 C 98.48 381.18 98.54 388.86 98.46 396.55 C 111.49 396.81 125.56 397.59 136.60 405.33 C 143.37 409.98 146.61 418.05 147.77 425.92 C 150.53 441.40 144.19 458.05 131.83 467.76 C 121.59 476.05 108.38 479.51 95.48 480.65 C 94.00 472.27 92.95 463.82 91.51 455.44 C 99.85 454.53 108.73 452.94 115.33 447.36 C 120.06 443.37 122.12 435.82 118.68 430.40 C 115.89 426.31 110.75 424.90 106.10 424.27 C 93.70 422.71 81.25 424.79 68.83 424.70 C 68.92 393.25 68.65 361.78 68.96 330.33 Z" />
<path fill="#f4722b" opacity="1.00" d=" M 229.49 330.71 C 240.45 328.09 252.30 329.52 262.32 334.70 C 275.63 341.50 285.72 353.57 291.86 367.04 C 299.59 383.97 301.55 403.27 298.30 421.52 C 295.21 438.17 287.33 454.25 274.53 465.56 C 265.16 474.01 252.72 479.40 239.98 478.97 C 226.38 479.14 213.34 472.66 203.86 463.16 C 191.65 451.21 184.52 434.80 182.05 418.05 C 179.15 397.26 182.95 375.23 194.31 357.41 C 202.39 344.79 214.69 334.26 229.49 330.71 Z" />
<path fill="#f4722b" opacity="1.00" d=" M 367.44 330.61 C 378.12 328.17 389.63 329.54 399.40 334.51 C 413.05 341.30 423.34 353.65 429.52 367.40 C 438.79 388.15 439.84 412.40 432.55 433.90 C 427.91 447.58 419.59 460.26 407.91 468.92 C 399.34 475.30 388.75 479.23 378.00 478.97 C 362.64 479.33 348.12 471.24 338.22 459.88 C 326.11 446.19 319.80 428.06 318.73 409.97 C 317.70 391.31 322.12 372.10 332.46 356.42 C 340.60 344.11 352.85 333.97 367.44 330.61 Z" />
<path fill="#3e3e3e" opacity="1.00" d=" M 234.40 375.45 C 241.05 373.37 248.46 375.03 254.01 379.09 C 266.94 388.66 270.31 406.36 268.29 421.49 C 266.57 432.91 260.17 444.25 249.62 449.61 C 243.99 452.61 236.97 452.59 231.32 449.66 C 221.31 444.70 215.26 434.08 213.30 423.39 C 211.67 413.35 212.28 402.73 216.26 393.29 C 219.54 385.25 225.86 377.95 234.40 375.45 Z" />
<path fill="#3e3e3e" opacity="1.00" d=" M 371.37 375.61 C 377.78 373.45 385.02 374.72 390.59 378.46 C 398.74 383.79 403.44 393.09 405.31 402.43 C 407.23 412.92 406.73 424.24 401.93 433.92 C 398.52 441.02 392.88 447.30 385.50 450.33 C 380.06 452.73 373.59 452.24 368.39 449.44 C 359.43 444.87 353.78 435.62 351.38 426.10 C 349.37 417.24 349.51 407.84 351.77 399.04 C 354.45 388.95 360.99 378.91 371.37 375.61 Z" />
</svg>
