<?xml version="1.0" encoding="UTF-8" ?>
<!DOCTYPE svg PUBLIC "-//W3C//DTD SVG 1.1//EN" "http://www.w3.org/Graphics/SVG/1.1/DTD/svg11.dtd">
<svg width="512pt" height="512pt" viewBox="0 0 512 512" version="1.1" xmlns="http://www.w3.org/2000/svg">
<path fill="#3e3e3e" opacity="1.00" d=" M 0.00 0.00 L 512.00 0.00 L 512.00 306.34 C 503.17 299.04 494.13 292.00 485.27 284.73 C 481.83 281.82 477.64 279.83 474.75 276.29 C 471.50 272.43 466.91 269.39 465.58 264.25 C 461.22 268.66 458.61 274.97 452.78 277.75 C 449.81 279.25 447.07 281.33 443.87 282.28 C 438.83 282.66 433.76 282.74 428.71 282.55 C 433.69 280.84 438.98 279.98 443.76 277.74 C 447.99 274.72 451.87 271.20 455.68 267.65 C 459.63 264.04 461.77 258.97 463.44 254.00 C 463.69 248.34 463.09 242.48 460.78 237.25 C 457.98 228.88 456.59 220.09 453.39 211.85 C 449.45 201.33 445.79 190.70 442.06 180.13 C 437.09 172.86 430.81 166.51 425.87 159.21 C 421.76 150.83 418.10 142.22 414.17 133.74 C 412.06 129.33 413.78 123.60 410.12 119.89 C 406.26 115.73 402.26 111.71 398.73 107.26 C 395.13 103.15 393.47 97.86 391.03 93.07 C 389.35 89.63 390.08 85.37 388.02 82.13 C 384.43 79.33 379.59 76.80 374.95 78.20 C 371.90 80.51 369.12 83.93 368.99 87.93 C 368.30 97.94 366.90 107.91 366.72 117.96 C 367.79 124.45 370.21 130.64 371.87 137.01 C 375.73 139.41 380.32 139.85 384.40 141.68 C 382.36 142.47 380.29 143.17 378.23 143.89 C 380.51 148.30 382.66 152.77 384.28 157.47 C 385.13 160.19 386.93 162.43 388.86 164.47 C 392.84 165.17 396.65 163.94 400.45 162.97 C 395.98 166.47 389.85 166.85 385.42 170.41 C 382.37 176.83 381.41 184.01 378.99 190.65 L 378.08 191.02 C 377.77 185.67 379.04 180.36 378.68 175.02 C 378.17 172.90 375.58 173.71 374.06 173.57 C 359.37 173.88 344.68 173.58 330.00 173.70 C 324.87 174.37 319.97 176.11 314.93 177.20 C 306.50 179.16 298.61 182.85 290.43 185.61 C 286.92 186.95 282.61 187.98 280.85 191.69 C 277.38 199.01 274.28 206.51 270.84 213.85 C 269.96 215.86 268.89 217.84 268.50 220.02 C 268.98 225.43 271.03 230.58 271.50 236.00 C 270.30 242.50 265.79 248.21 266.24 255.04 C 266.37 258.48 265.71 262.26 267.61 265.36 C 270.58 270.86 273.57 276.35 276.48 281.88 C 275.46 288.02 272.94 294.48 275.73 300.55 C 278.42 306.10 283.01 310.44 286.27 315.66 C 283.93 320.20 284.19 325.96 286.70 330.37 C 288.15 333.23 291.76 333.38 294.41 334.51 C 301.21 336.35 307.73 340.50 315.04 339.12 C 322.52 337.79 329.66 334.98 336.99 333.03 C 343.35 330.96 351.11 330.21 355.15 324.17 C 356.61 320.68 357.53 315.48 353.99 312.92 C 339.54 315.89 325.26 319.71 310.85 322.90 C 307.76 323.16 306.11 325.89 304.28 328.00 C 304.82 330.80 306.41 333.15 308.23 335.28 C 303.28 333.62 298.20 332.36 293.27 330.65 C 290.05 329.64 288.95 325.98 288.85 322.96 C 288.31 319.82 291.04 317.21 290.78 314.17 C 287.38 309.29 283.15 305.00 280.04 299.91 C 277.11 293.81 280.44 287.27 281.22 281.06 C 277.43 272.90 271.17 265.36 270.81 256.04 C 272.31 250.72 274.03 245.46 275.53 240.14 C 278.15 233.11 272.66 226.18 273.53 219.13 C 276.57 212.22 280.04 205.49 283.28 198.66 C 283.45 206.12 281.04 213.47 281.68 220.90 C 284.40 230.64 286.77 240.52 289.99 250.09 C 293.74 252.57 298.39 254.55 303.01 253.84 C 315.84 252.65 328.85 252.34 341.41 249.17 C 343.13 248.06 344.53 246.38 345.44 244.55 C 346.36 239.04 344.99 233.51 344.54 228.02 C 344.22 223.94 346.74 220.28 346.78 216.29 C 345.78 212.83 343.21 208.42 338.96 209.14 C 332.75 209.61 331.57 218.88 325.12 218.55 C 320.11 218.57 315.07 219.25 310.08 218.91 C 304.10 215.45 303.06 207.85 302.10 201.64 C 305.81 205.72 308.67 210.47 312.22 214.69 C 316.94 213.96 321.76 214.01 326.48 213.25 C 328.35 212.32 329.60 210.53 331.12 209.14 C 334.40 205.74 338.80 203.77 343.17 202.18 C 344.60 195.73 347.42 189.34 351.96 184.50 C 350.42 190.40 347.28 195.85 346.88 202.04 C 348.00 202.33 349.12 202.62 350.25 202.92 C 351.44 198.41 354.60 194.92 357.09 191.12 C 361.09 184.37 368.33 180.67 374.40 176.08 C 371.41 180.48 366.46 182.99 363.30 187.24 C 359.49 193.25 356.07 199.78 355.11 206.92 C 357.53 212.12 361.98 216.36 363.41 222.02 C 363.90 227.23 364.76 232.57 363.48 237.74 C 365.13 235.35 367.06 233.15 368.45 230.60 C 372.37 220.76 372.62 209.26 379.59 200.79 C 376.97 211.83 374.90 222.98 372.00 233.95 C 370.95 237.82 372.00 241.90 370.94 245.78 C 370.16 250.05 368.12 254.66 370.37 258.83 C 372.07 262.22 372.27 267.15 376.39 268.57 C 380.02 270.03 382.35 273.24 385.25 275.68 C 391.75 279.92 399.40 281.85 406.96 283.19 C 406.85 283.79 406.64 285.00 406.53 285.61 C 399.26 284.51 392.01 283.31 384.74 282.20 C 382.56 280.24 380.31 278.36 378.02 276.52 C 375.99 277.70 373.93 278.81 371.85 279.90 C 370.72 282.91 369.63 285.93 368.58 288.97 C 369.84 291.67 371.11 294.37 372.34 297.08 C 369.16 305.36 365.90 313.62 363.08 322.03 C 362.34 324.97 359.49 326.47 357.53 328.51 C 355.13 330.56 353.24 333.45 350.09 334.42 C 342.20 337.31 332.76 337.86 327.16 344.95 C 333.10 346.01 339.05 347.07 344.99 348.18 C 350.93 349.46 356.91 347.67 362.85 347.26 C 368.53 346.44 374.34 346.32 379.93 344.97 C 385.50 342.59 387.72 336.31 390.24 331.26 C 391.12 329.93 391.33 327.55 393.30 327.47 C 393.90 329.26 393.10 331.09 392.74 332.85 C 391.26 338.09 390.25 343.72 386.71 348.05 C 386.96 348.63 387.47 349.77 387.72 350.35 C 390.71 351.22 394.00 352.41 397.05 351.06 C 402.86 348.94 406.20 343.37 409.61 338.59 C 412.65 334.40 413.21 329.01 416.15 324.76 C 417.43 327.02 416.24 329.41 415.51 331.61 C 413.51 336.80 412.56 342.54 408.92 346.94 C 406.76 350.38 403.63 353.00 400.26 355.19 C 403.71 357.05 407.45 358.82 409.78 362.12 C 421.37 378.26 432.93 394.42 444.51 410.57 C 454.73 424.50 463.82 439.20 473.44 453.54 C 485.50 471.83 497.59 490.10 509.62 508.40 C 510.36 509.46 511.15 510.48 512.00 511.50 L 512.00 512.00 L 6.67 512.00 C 7.69 507.99 10.41 504.78 12.10 501.08 C 14.05 496.55 17.62 492.96 19.35 488.32 C 22.23 481.14 25.61 474.13 27.87 466.71 C 30.85 456.79 35.43 447.45 40.22 438.30 C 45.73 425.16 51.13 411.97 56.62 398.82 C 58.55 394.24 61.57 390.25 64.13 386.02 C 69.08 378.06 74.22 370.23 79.04 362.20 C 72.15 359.97 64.92 359.23 57.93 357.44 C 65.99 357.87 74.01 356.63 82.03 355.98 C 88.11 355.62 93.62 352.15 97.33 347.45 C 98.44 345.95 98.15 343.58 96.59 342.51 C 92.25 338.84 87.79 335.31 83.42 331.69 C 80.51 329.20 76.74 327.13 75.81 323.11 C 82.69 327.26 88.92 332.52 96.34 335.74 C 101.98 338.29 107.41 341.31 113.11 343.74 C 121.93 347.53 131.68 347.52 141.07 348.48 C 147.75 349.17 154.38 347.80 161.03 347.44 C 166.62 347.19 171.45 343.92 176.94 343.19 C 185.74 341.84 194.32 339.18 202.42 335.49 C 209.29 331.62 215.81 325.46 216.49 317.15 C 217.57 313.77 215.59 310.79 213.94 308.04 C 218.32 305.53 223.07 303.32 226.51 299.51 C 229.11 295.93 229.95 291.37 230.25 287.05 C 229.72 279.84 225.94 273.52 222.75 267.22 C 229.73 264.83 236.51 260.15 238.43 252.62 C 239.51 245.91 238.88 238.58 235.26 232.68 C 232.81 228.28 228.79 225.11 225.50 221.39 C 230.71 216.10 233.47 207.44 229.25 200.74 C 225.10 194.96 219.69 189.65 212.86 187.24 C 206.02 184.64 198.79 183.16 191.56 182.22 C 183.35 181.55 175.06 180.61 167.26 177.84 C 161.66 176.32 155.50 174.60 149.83 176.73 C 141.71 179.53 133.32 181.46 125.20 184.26 C 119.60 186.20 114.67 189.58 109.28 191.97 C 114.01 188.43 117.92 183.59 123.59 181.47 C 129.24 179.12 134.73 176.38 140.55 174.44 C 141.03 167.44 141.09 160.43 140.80 153.41 C 135.88 155.15 130.83 156.68 125.57 156.89 C 132.32 152.33 140.29 148.94 144.87 141.85 C 150.69 132.81 153.86 121.66 151.83 110.93 C 149.93 100.24 145.61 90.10 140.16 80.75 C 138.42 78.18 135.96 76.01 133.12 74.74 C 129.53 74.65 127.81 78.24 125.61 80.45 C 124.92 80.47 123.55 80.52 122.86 80.55 C 120.22 83.44 121.38 87.52 121.22 91.05 C 121.64 96.98 119.91 102.72 119.30 108.56 C 123.33 109.67 124.74 105.07 126.39 102.39 C 127.88 97.81 127.00 92.82 127.47 88.07 C 128.53 94.12 129.33 100.21 130.51 106.23 C 128.38 107.86 126.23 109.44 124.05 111.00 C 122.56 110.74 121.07 110.50 119.59 110.25 C 118.20 112.84 117.53 115.71 116.39 118.40 C 114.42 122.23 110.31 124.22 107.74 127.54 C 105.39 133.24 105.20 139.68 102.13 145.12 C 98.46 153.25 91.82 159.40 86.04 166.01 C 78.15 175.52 66.39 181.07 59.36 191.38 C 55.53 199.26 53.22 207.78 49.85 215.87 C 44.77 227.97 39.38 240.48 29.65 249.65 C 19.82 258.07 9.65 266.12 0.00 274.74 L 0.00 0.00 Z" />
<path fill="#f4722b" opacity="1.00" d=" M 248.31 17.68 C 249.94 20.22 250.80 23.14 251.95 25.91 C 267.68 65.19 283.36 104.50 299.11 143.77 C 320.11 141.90 341.06 139.46 362.06 137.62 C 366.99 142.69 370.67 148.73 373.79 155.04 C 375.16 158.17 377.73 160.97 377.75 164.55 C 375.85 164.71 373.95 164.84 372.05 164.84 C 357.75 164.53 343.43 164.82 329.13 164.61 C 323.69 165.61 318.39 167.26 313.00 168.49 C 305.35 170.12 298.15 173.27 290.81 175.88 C 285.92 177.80 280.59 179.03 276.44 182.42 C 273.92 184.30 272.70 187.28 271.44 190.04 C 267.89 198.20 264.17 206.29 260.60 214.44 C 258.47 219.11 259.80 224.17 260.92 228.91 C 256.05 238.54 256.87 249.53 256.95 259.98 C 256.95 267.80 262.63 273.88 265.48 280.79 C 263.85 283.96 265.35 287.12 265.60 290.35 C 264.78 295.69 266.36 301.00 268.16 305.97 C 270.44 309.90 273.54 313.28 276.16 316.99 C 275.16 323.52 275.61 330.74 279.76 336.17 C 281.49 339.33 284.82 340.97 288.16 341.87 C 293.51 343.53 298.76 345.51 304.08 347.26 C 308.84 348.85 313.93 348.25 318.83 347.84 C 319.95 350.25 321.65 352.71 324.40 353.38 C 329.89 354.79 335.55 355.37 341.09 356.55 C 351.04 359.18 361.18 356.07 371.18 355.38 C 387.94 386.11 404.75 416.82 421.51 447.55 C 423.23 450.79 425.21 453.90 426.62 457.29 C 368.32 420.23 310.13 382.98 251.95 345.73 C 249.49 349.11 245.60 350.87 242.25 353.18 C 237.19 356.36 232.68 360.27 227.94 363.88 C 183.97 397.95 140.01 432.03 96.04 466.11 C 91.52 469.47 87.28 473.22 82.55 476.30 C 96.23 435.83 109.96 395.37 123.90 354.99 C 130.93 355.70 137.97 356.39 145.01 356.95 C 154.82 355.97 165.02 356.26 174.22 352.22 C 185.66 349.74 197.37 347.35 207.81 341.83 C 212.57 338.74 216.89 334.88 220.32 330.35 C 223.82 324.65 225.05 317.73 224.78 311.11 C 227.95 308.92 231.37 306.85 233.57 303.59 C 236.69 298.94 237.62 293.27 238.47 287.85 C 238.37 281.98 235.84 276.53 234.03 271.05 C 240.44 266.74 245.28 260.17 246.72 252.50 C 248.30 241.04 244.53 228.94 236.21 220.80 C 238.16 216.48 239.50 211.77 239.46 207.00 C 238.95 203.94 238.27 200.86 237.13 197.96 C 232.99 191.26 227.11 185.63 220.31 181.66 C 212.67 177.86 204.25 176.05 195.90 174.62 C 189.24 173.83 182.48 173.69 175.96 171.98 C 167.30 169.40 158.18 166.64 149.07 168.29 C 148.99 162.44 149.58 156.53 148.48 150.74 C 152.09 146.35 154.90 141.39 156.81 136.04 C 166.34 135.98 175.87 135.87 185.40 135.58 C 206.33 96.26 227.35 56.99 248.31 17.68 Z" />
<path fill="#f5e5c1" opacity="1.00" d=" M 125.61 80.45 C 127.81 78.24 129.53 74.65 133.12 74.74 C 135.96 76.01 138.42 78.18 140.16 80.75 C 145.61 90.10 149.93 100.24 151.83 110.93 C 153.86 121.66 150.69 132.81 144.87 141.85 C 140.29 148.94 132.32 152.33 125.57 156.89 C 130.83 156.68 135.88 155.15 140.80 153.41 C 141.09 160.43 141.03 167.44 140.55 174.44 C 134.73 176.38 129.24 179.12 123.59 181.47 C 117.92 183.59 114.01 188.43 109.28 191.97 C 114.67 189.58 119.60 186.20 125.20 184.26 C 133.32 181.46 141.71 179.53 149.83 176.73 C 155.50 174.60 161.66 176.32 167.26 177.84 C 175.06 180.61 183.35 181.55 191.56 182.22 C 198.79 183.16 206.02 184.64 212.86 187.24 C 219.69 189.65 225.10 194.96 229.25 200.74 C 233.47 207.44 230.71 216.10 225.50 221.39 C 228.79 225.11 232.81 228.28 235.26 232.68 C 238.88 238.58 239.51 245.91 238.43 252.62 C 236.51 260.15 229.73 264.83 222.75 267.22 C 225.94 273.52 229.72 279.84 230.25 287.05 C 229.95 291.37 229.11 295.93 226.51 299.51 C 223.07 303.32 218.32 305.53 213.94 308.04 C 215.59 310.79 217.57 313.77 216.49 317.15 C 215.81 325.46 209.29 331.62 202.42 335.49 C 194.32 339.18 185.74 341.84 176.94 343.19 C 171.45 343.92 166.62 347.19 161.03 347.44 C 154.38 347.80 147.75 349.17 141.07 348.48 C 131.68 347.52 121.93 347.53 113.11 343.74 C 107.41 341.31 101.98 338.29 96.34 335.74 C 88.92 332.52 82.69 327.26 75.81 323.11 C 76.74 327.13 80.51 329.20 83.42 331.69 C 87.79 335.31 92.25 338.84 96.59 342.51 C 98.15 343.58 98.44 345.95 97.33 347.45 C 93.62 352.15 88.11 355.62 82.03 355.98 C 74.01 356.63 65.99 357.87 57.93 357.44 C 64.92 359.23 72.15 359.97 79.04 362.20 C 74.22 370.23 69.08 378.06 64.13 386.02 C 61.57 390.25 58.55 394.24 56.62 398.82 C 51.13 411.97 45.73 425.16 40.22 438.30 C 35.43 447.45 30.85 456.79 27.87 466.71 C 25.61 474.13 22.23 481.14 19.35 488.32 C 17.62 492.96 14.05 496.55 12.10 501.08 C 10.41 504.78 7.69 507.99 6.67 512.00 L 0.00 512.00 L 0.00 274.74 C 9.65 266.12 19.82 258.07 29.65 249.65 C 39.38 240.48 44.77 227.97 49.85 215.87 C 53.22 207.78 55.53 199.26 59.36 191.38 C 66.39 181.07 78.15 175.52 86.04 166.01 C 91.82 159.40 98.46 153.25 102.13 145.12 C 105.20 139.68 105.39 133.24 107.74 127.54 C 110.31 124.22 114.42 122.23 116.39 118.40 C 117.53 115.71 118.20 112.84 119.59 110.25 C 121.07 110.50 122.56 110.74 124.05 111.00 C 126.23 109.44 128.38 107.86 130.51 106.23 C 129.33 100.21 128.53 94.12 127.47 88.07 C 127.00 92.82 127.88 97.81 126.39 102.39 C 124.74 105.07 123.33 109.67 119.30 108.56 C 119.91 102.72 121.64 96.98 121.22 91.05 C 121.38 87.52 120.22 83.44 122.86 80.55 C 123.55 80.52 124.92 80.47 125.61 80.45 Z" />
<path fill="#f5e5c1" opacity="1.00" d=" M 368.99 87.93 C 369.12 83.93 371.90 80.51 374.95 78.20 C 379.59 76.80 384.43 79.33 388.02 82.13 C 390.08 85.37 389.35 89.63 391.03 93.07 C 393.47 97.86 395.13 103.15 398.73 107.26 C 402.26 111.71 406.26 115.73 410.12 119.89 C 413.78 123.60 412.06 129.33 414.17 133.74 C 418.10 142.22 421.76 150.83 425.87 159.21 C 430.81 166.51 437.09 172.86 442.06 180.13 C 445.79 190.70 449.45 201.33 453.39 211.85 C 456.59 220.09 457.98 228.88 460.78 237.25 C 463.09 242.48 463.69 248.34 463.44 254.00 C 461.77 258.97 459.63 264.04 455.68 267.65 C 451.87 271.20 447.99 274.72 443.76 277.74 C 438.98 279.98 433.69 280.84 428.71 282.55 C 433.76 282.74 438.83 282.66 443.87 282.28 C 447.07 281.33 449.81 279.25 452.78 277.75 C 458.61 274.97 461.22 268.66 465.58 264.25 C 466.91 269.39 471.50 272.43 474.75 276.29 C 477.64 279.83 481.83 281.82 485.27 284.73 C 494.13 292.00 503.17 299.04 512.00 306.34 L 512.00 511.50 C 511.15 510.48 510.36 509.46 509.62 508.40 C 497.59 490.10 485.50 471.83 473.44 453.54 C 463.82 439.20 454.73 424.50 444.51 410.57 C 432.93 394.42 421.37 378.26 409.78 362.12 C 407.45 358.82 403.71 357.05 400.26 355.19 C 403.63 353.00 406.76 350.38 408.92 346.94 C 412.56 342.54 413.51 336.80 415.51 331.61 C 416.24 329.41 417.43 327.02 416.15 324.76 C 413.21 329.01 412.65 334.40 409.61 338.59 C 406.20 343.37 402.86 348.94 397.05 351.06 C 394.00 352.41 390.71 351.22 387.72 350.35 C 387.47 349.77 386.96 348.63 386.71 348.05 C 390.25 343.72 391.26 338.09 392.74 332.85 C 393.10 331.09 393.90 329.26 393.30 327.47 C 391.33 327.55 391.12 329.93 390.24 331.26 C 387.72 336.31 385.50 342.59 379.93 344.97 C 374.34 346.32 368.53 346.44 362.85 347.26 C 356.91 347.67 350.93 349.46 344.99 348.18 C 339.05 347.07 333.10 346.01 327.16 344.95 C 332.76 337.86 342.20 337.31 350.09 334.42 C 353.24 333.45 355.13 330.56 357.53 328.51 C 359.49 326.47 362.34 324.97 363.08 322.03 C 365.90 313.62 369.16 305.36 372.34 297.08 C 371.11 294.37 369.84 291.67 368.58 288.97 C 369.63 285.93 370.72 282.91 371.85 279.90 C 373.93 278.81 375.99 277.70 378.02 276.52 C 380.31 278.36 382.56 280.24 384.74 282.20 C 392.01 283.31 399.26 284.51 406.53 285.61 C 406.64 285.00 406.85 283.79 406.96 283.19 C 399.40 281.85 391.75 279.92 385.25 275.68 C 382.35 273.24 380.02 270.03 376.39 268.57 C 372.27 267.15 372.07 262.22 370.37 258.83 C 368.12 254.66 370.16 250.05 370.94 245.78 C 372.00 241.90 370.95 237.82 372.00 233.95 C 374.90 222.98 376.97 211.83 379.59 200.79 C 372.62 209.26 372.37 220.76 368.45 230.60 C 367.06 233.15 365.13 235.35 363.48 237.74 C 364.76 232.57 363.90 227.23 363.41 222.02 C 361.98 216.36 357.53 212.12 355.11 206.92 C 356.07 199.78 359.49 193.25 363.30 187.24 C 366.46 182.99 371.41 180.48 374.40 176.08 C 368.33 180.67 361.09 184.37 357.09 191.12 C 354.60 194.92 351.44 198.41 350.25 202.92 C 349.12 202.62 348.00 202.33 346.88 202.04 C 347.28 195.85 350.42 190.40 351.96 184.50 C 347.42 189.34 344.60 195.73 343.17 202.18 C 338.80 203.77 334.40 205.74 331.12 209.14 C 329.60 210.53 328.35 212.32 326.48 213.25 C 321.76 214.01 316.94 213.96 312.22 214.69 C 308.67 210.47 305.81 205.72 302.10 201.64 C 303.06 207.85 304.10 215.45 310.08 218.91 C 315.07 219.25 320.11 218.57 325.12 218.55 C 331.57 218.88 332.75 209.61 338.96 209.14 C 343.21 208.42 345.78 212.83 346.78 216.29 C 346.74 220.28 344.22 223.94 344.54 228.02 C 344.99 233.51 346.36 239.04 345.44 244.55 C 344.53 246.38 343.13 248.06 341.41 249.17 C 328.85 252.34 315.84 252.65 303.01 253.84 C 298.39 254.55 293.74 252.57 289.99 250.09 C 286.77 240.52 284.40 230.64 281.68 220.90 C 281.04 213.47 283.45 206.12 283.28 198.66 C 280.04 205.49 276.57 212.22 273.53 219.13 C 272.66 226.18 278.15 233.11 275.53 240.14 C 274.03 245.46 272.31 250.72 270.81 256.04 C 271.17 265.36 277.43 272.90 281.22 281.06 C 280.44 287.27 277.11 293.81 280.04 299.91 C 283.15 305.00 287.38 309.29 290.78 314.17 C 291.04 317.21 288.31 319.82 288.85 322.96 C 288.95 325.98 290.05 329.64 293.27 330.65 C 298.20 332.36 303.28 333.62 308.23 335.28 C 306.41 333.15 304.82 330.80 304.28 328.00 C 306.11 325.89 307.76 323.16 310.85 322.90 C 325.26 319.71 339.54 315.89 353.99 312.92 C 357.53 315.48 356.61 320.68 355.15 324.17 C 351.11 330.21 343.35 330.96 336.99 333.03 C 329.66 334.98 322.52 337.79 315.04 339.12 C 307.73 340.50 301.21 336.35 294.41 334.51 C 291.76 333.38 288.15 333.23 286.70 330.37 C 284.19 325.96 283.93 320.20 286.27 315.66 C 283.01 310.44 278.42 306.10 275.73 300.55 C 272.94 294.48 275.46 288.02 276.48 281.88 C 273.57 276.35 270.58 270.86 267.61 265.36 C 265.71 262.26 266.37 258.48 266.24 255.04 C 265.79 248.21 270.30 242.50 271.50 236.00 C 271.03 230.58 268.98 225.43 268.50 220.02 C 268.89 217.84 269.96 215.86 270.84 213.85 C 274.28 206.51 277.38 199.01 280.85 191.69 C 282.61 187.98 286.92 186.95 290.43 185.61 C 298.61 182.85 306.50 179.16 314.93 177.20 C 319.97 176.11 324.87 174.37 330.00 173.70 C 344.68 173.58 359.37 173.88 374.06 173.57 C 375.58 173.71 378.17 172.90 378.68 175.02 C 379.04 180.36 377.77 185.67 378.08 191.02 L 378.99 190.65 C 381.41 184.01 382.37 176.83 385.42 170.41 C 389.85 166.85 395.98 166.47 400.45 162.97 C 396.65 163.94 392.84 165.17 388.86 164.47 C 386.93 162.43 385.13 160.19 384.28 157.47 C 382.66 152.77 380.51 148.30 378.23 143.89 C 380.29 143.17 382.36 142.47 384.40 141.68 C 380.32 139.85 375.73 139.41 371.87 137.01 C 370.21 130.64 367.79 124.45 366.72 117.96 C 366.90 107.91 368.30 97.94 368.99 87.93 Z" />
<path fill="#f4722b" opacity="1.00" d=" M 422.34 131.57 C 444.87 129.07 467.45 127.01 490.00 124.67 C 476.36 138.79 462.01 152.22 448.17 166.14 C 447.17 167.14 446.16 168.14 445.00 168.93 C 442.90 166.99 441.45 164.48 439.65 162.29 C 437.05 158.89 433.86 155.89 432.00 151.98 C 428.75 145.19 425.59 138.36 422.34 131.57 Z" />
<path fill="#f4722b" opacity="1.00" d=" M 5.94 137.81 C 6.71 137.49 8.24 136.87 9.00 136.56 C 38.28 137.85 67.57 136.56 96.86 136.53 C 94.07 146.09 86.46 152.92 80.23 160.28 C 73.26 169.04 62.55 173.78 55.75 182.70 C 38.97 167.93 23.19 152.03 5.94 137.81 Z" />
<path fill="#3e3e3e" opacity="1.00" d=" M 202.18 191.22 C 206.60 191.70 211.25 192.36 214.84 195.23 C 218.37 197.99 222.61 200.52 224.25 204.93 C 225.51 211.43 221.17 217.25 217.39 222.08 C 222.69 227.49 227.75 233.51 229.78 240.97 C 231.26 245.80 231.57 251.85 227.88 255.79 C 223.20 260.21 216.62 262.48 210.21 262.15 C 215.75 268.41 221.95 275.17 222.68 283.92 C 223.71 290.19 220.04 296.56 214.79 299.84 C 211.23 302.37 207.00 303.65 202.90 305.03 C 206.44 309.64 209.26 315.58 207.33 321.46 C 204.16 328.30 196.76 331.60 189.99 333.76 C 185.50 334.67 180.37 335.03 176.23 332.77 L 175.94 331.91 C 177.90 330.13 180.38 329.07 182.42 327.39 C 188.12 321.96 190.12 313.65 189.14 306.01 C 189.03 302.09 185.02 300.30 182.62 297.83 C 185.65 296.38 189.00 295.64 191.90 293.93 C 198.54 287.17 199.87 277.08 199.70 268.02 C 200.37 261.79 193.50 259.34 189.31 256.42 C 189.33 256.27 189.38 255.96 189.40 255.80 C 192.00 255.27 194.81 255.45 197.23 254.24 C 201.66 249.99 203.74 243.87 204.90 237.98 C 205.26 231.98 205.18 225.01 200.47 220.58 C 197.49 218.99 194.06 218.59 190.83 217.76 C 195.63 215.84 201.09 213.01 202.25 207.48 C 202.95 202.09 203.19 196.58 202.18 191.22 Z" />
<path fill="#f5e5c1" opacity="1.00" d=" M 340.06 256.73 C 343.24 256.68 345.53 254.16 348.07 252.59 C 352.49 255.92 355.54 261.32 354.84 266.98 C 354.34 271.61 355.14 276.60 352.93 280.87 C 352.03 282.79 349.69 282.56 347.96 282.94 C 332.29 285.11 316.68 287.70 301.00 289.69 C 291.98 283.41 288.93 269.53 295.73 260.57 C 310.52 259.48 325.27 257.90 340.06 256.73 Z" />
<path fill="#f5e5c1" opacity="1.00" d=" M 301.88 295.86 C 319.35 292.77 336.87 289.87 354.27 286.41 C 358.63 291.25 361.04 298.41 358.57 304.71 C 355.48 306.99 351.92 308.71 348.15 309.49 C 335.06 312.47 322.02 315.72 308.91 318.62 C 305.78 315.67 300.53 313.95 300.13 309.06 C 298.67 304.58 298.89 299.67 301.88 295.86 Z" />
</svg>
