<?xml version="1.0" encoding="UTF-8" standalone="no"?>
<svg
   xmlns:dc="http://purl.org/dc/elements/1.1/"
   xmlns:cc="http://creativecommons.org/ns#"
   xmlns:rdf="http://www.w3.org/1999/02/22-rdf-syntax-ns#"
   xmlns:svg="http://www.w3.org/2000/svg"
   xmlns="http://www.w3.org/2000/svg"
   xmlns:sodipodi="http://sodipodi.sourceforge.net/DTD/sodipodi-0.dtd"
   xmlns:inkscape="http://www.inkscape.org/namespaces/inkscape"
   width="1280"
   height="1280"
   viewBox="0 0 1024 1024"
   version="1.1"
   id="svg2"
   inkscape:version="0.48.1 "
   sodipodi:docname="kill_carriers.svg">
  <metadata
     id="metadata28">
    <rdf:RDF>
      <cc:Work
         rdf:about="">
        <dc:format>image/svg+xml</dc:format>
        <dc:type
           rdf:resource="http://purl.org/dc/dcmitype/StillImage" />
      </cc:Work>
    </rdf:RDF>
  </metadata>
  <defs
     id="defs26" />
  <sodipodi:namedview
     pagecolor="#ffffff"
     bordercolor="#666666"
     borderopacity="1"
     objecttolerance="10"
     gridtolerance="10"
     guidetolerance="10"
     inkscape:pageopacity="0"
     inkscape:pageshadow="2"
     inkscape:window-width="1920"
     inkscape:window-height="1018"
     id="namedview24"
     showgrid="false"
     fit-margin-top="0"
     fit-margin-left="0"
     fit-margin-right="0"
     fit-margin-bottom="0"
     inkscape:zoom="0.6609375"
     inkscape:cx="640"
     inkscape:cy="640"
     inkscape:window-x="-8"
     inkscape:window-y="-8"
     inkscape:window-maximized="1"
     inkscape:current-layer="svg2" />
  <path
     d="m 0,0 1024,0 0,1024 L 0,1024 0,0 z"
     id="path4"
     style="fill:#3e3e3e"
     inkscape:connector-curvature="0" />
  <path
     d="m 634.92,53.38 c 19.08,-6.5 40,-4.9 59.12,0.5 9.06,3.36 19.14,6.82 24.54,15.46 15.3,19.02 22.02,42.88 32.4,64.6 -1.22,0.84 -3.66,2.5 -4.88,3.34 -17.96,-8.82 -37.58,-16.88 -57.98,-14.88 -9.36,1.02 -17.86,5.56 -25.56,10.76 2.38,-5.3 1.86,-13.82 8.42,-15.96 14.26,-5.16 30.8,-8.32 45,-1.16 7.9,3 14.82,9.44 23.68,9 -8.04,-13.62 -14.52,-28.12 -23.62,-41.12 -4.5,-6.32 -9.64,-14.38 -18,-15.34 -8.74,2.34 -17.6,6.98 -22.58,14.84 -4.18,6.46 -9.04,12.42 -13.24,18.86 -13.32,22.9 -16.72,49.78 -18.64,75.76 0.08,5.84 0.96,11.66 1.14,17.5 -11.42,-4.7 -22.12,-11.42 -34.5,-13.44 -17.54,-5.28 -36.18,-6.1 -54.26,-3.62 -12.94,1.02 -25.98,2.14 -38.54,5.56 -19.48,4.16 -37.72,12.66 -57.14,16.96 16.5,-23.96 36.34,-45.34 56.26,-66.44 13.2,-14.82 28.8,-27.16 43.38,-40.56 8.3,-7.8 16.64,-15.78 26.44,-21.68 15.58,-7.76 31.88,-14 48.56,-18.94 z"
     id="path6"
     inkscape:connector-curvature="0"
     style="fill:#f5e5c1" />
  <path
     d="m 192.74,182.84 c 7.74,0.92 12.6,7.54 18.26,12.14 10.94,9.2 16.02,22.92 22.62,35.16 7.94,19.82 18,39.94 16.96,61.88 0.94,22.86 -4.56,45.74 -14.16,66.42 -16.52,25.52 -22.86,55.84 -27.96,85.38 -3.18,16.44 -0.96,33.22 -2.44,49.78 -9.4,-9.04 -11.48,-23.16 -13.8,-35.48 -0.68,-15.4 -2.62,-30.74 -2.92,-46.16 0.12,-34.78 -13.76,-67.62 -16.4,-102.08 -1.38,-14.68 2.06,-29.2 2.14,-43.86 -0.04,-10.28 3.38,-20.08 6,-29.88 3.46,-11.86 10.78,-22.38 12.7,-34.74 1.22,-6.18 -0.26,-12.42 -1,-18.56 z"
     id="path8"
     inkscape:connector-curvature="0"
     style="fill:#f4722b" />
  <path
     d="m 495.88,273.38 c 4,3.96 3.66,10.12 5.86,15.04 5.04,18.24 24.76,28.5 27.12,47.9 0.34,13.5 1.96,27.88 -4.22,40.42 -4.94,8.22 -13.34,13.44 -19.32,20.8 -5.56,5.8 -8.66,13.28 -12.36,20.26 -3.78,0.96 -5.2,-3.52 -7.1,-5.86 -7.88,-14.72 -17.88,-28.86 -21,-45.58 -2.68,-12.66 -3.1,-25.98 0.38,-38.54 4.22,4.4 8.28,10.24 15.1,10.06 -0.08,-15.36 7.28,-29.14 9.94,-44 1.42,-6.94 3.28,-13.8 5.6,-20.5 z"
     id="path10"
     inkscape:connector-curvature="0"
     style="fill:#f4722b" />
  <path
     d="m 950.65,288.3 c -7.24,4.2 -14.34,8.64 -21.4,13.1 -24.98,12.16 -53.59,13.48 -80.85,11 -10.82,-2.18 -21.77,-3.9 -32.55,-6.3 -15.28,-4.42 -29.33,-12.13 -44.15,-17.65 -2.38,9.36 -4.68,18.71 -5.6,28.35 -5.34,19.28 -10.36,38.74 -18.2,57.2 -4.46,11.18 -7.77,23.02 -15.25,32.7 -12.84,21.08 -28.84,40.15 -46.7,57.15 -30.42,25.42 -64.98,45.3 -97,68.5 -0.08,0.86 -0.3,2.59 -0.4,3.45 24.88,-10.92 50.98,-19.56 78,-23.1 16.54,-0.56 33.08,-0.04 49.6,0.6 33.68,4.76 68.19,10.81 97.95,28.25 12.48,-9.22 24.23,-19.37 35.85,-29.65 8.16,-7.18 14.55,-16.08 21.95,-24 5.86,-6.28 11.18,-13.08 15.7,-20.4 5.12,-8.28 11.78,-15.57 15.9,-24.45 7.58,-16.08 17.19,-31.24 22.75,-48.2 8.88,-25.06 16.65,-50.63 21.15,-76.85 2.46,-9.74 0.87,-19.94 3.25,-29.7 z M 791.9,424.4 c 17.34,0.42 35.66,1.49 50.9,10.65 5.54,4.48 10.41,9.73 15.75,14.45 6.92,5.72 8.69,14.92 11.45,23 -5.56,-1.66 -7.53,-7.44 -10.95,-11.5 -9.04,-10.54 -21.63,-17.74 -34.95,-21.3 -14.74,-2.26 -29.21,-8.11 -44.35,-6.15 -22.46,2.3 -44.65,7.71 -65.65,16.05 21.66,-17.98 50.58,-22.96 77.8,-25.2 z"
     id="path12"
     style="fill:#f5e5c1"
     inkscape:connector-curvature="0" />
  <path
     d="m 342.05,365.7 c -7.1,12.9 -15.27,25.36 -20.85,39 -4.46,17 -13.06,33.32 -12.3,51.3 0.36,11.32 -3.15,22.8 0.35,33.9 4.72,23.92 11.64,47.28 18.3,70.7 4.64,15.06 5.36,30.93 8.2,46.35 3.14,16.1 1.8,32.59 1,48.85 -3.56,17.78 -5.07,37.14 -17.25,51.6 -7.5,6.84 -17.96,8.23 -27.6,9.65 -10.1,1.88 -19.94,-2.35 -29.3,-5.55 -10.34,-3.58 -18.28,-11.35 -25.5,-19.25 -8.28,1.8 -17.4,5.54 -25.7,2.2 -12.86,-10.42 -13.73,-29.01 -25.25,-40.55 -10.02,-10.82 -17.89,-24.44 -31.15,-31.7 4.46,12.84 8.55,25.99 9.35,39.65 -1,10.56 -2.33,21.21 -5.15,31.45 -5.26,12.36 -14.12,22.96 -23.7,32.2 -18.1,7.98 -42.4,4.85 -54,-12.45 -4.5,-9.8 -6.71,-20.47 -5.95,-31.25 -2.42,0.58 -5.52,0.33 -6.7,3.05 -7.72,12.38 -15.09,24.98 -22.45,37.6 -5.48,11.4 -9.61,23.38 -14.65,35 -3.98,8.28 -2.04,17.61 -2.5,26.45 -0.56,10.3 3.01,20.14 5.05,30.1 1.88,7.52 2.42,15.82 7.5,22.1 7.56,9.82 14.02,20.51 22.2,29.85 10.2,9.78 20.59,19.35 31.15,28.75 13.18,9.02 27.11,17.01 40.55,25.65 23.22,11.82 47.54,21.31 72.2,29.75 21.84,6.16 43.72,12.2 65.6,18.2 16.1,3.34 32.45,5.35 48.65,8.15 27.74,5.02 55.92,7.04 83.9,10.2 32.82,0.62 65.51,-2.56 98.25,-4.4 14.9,-1.82 29.25,-6.69 43.95,-9.65 12.32,-2.1 22.79,-9.33 33.95,-14.45 18.64,-8.34 34.51,-21.38 51.55,-32.4 11.42,-9.84 21.25,-21.43 32.05,-31.95 10.22,-9.5 16.75,-21.99 24.75,-33.25 19.22,-27.9 36.93,-57.11 60.05,-82.05 5.9,-5.46 12.6,-9.96 18.8,-15.1 14.1,-11.4 31.86,-16.76 47.3,-25.7 -10.08,-3.14 -19.88,-7.69 -30.5,-8.75 -12.2,-0.9 -23.58,-6.58 -33.2,-13.8 -12.76,-18.72 -7.56,-42.25 -5,-63.15 4.44,-19.92 13.46,-38.73 16.9,-58.85 -10.3,12.38 -18.48,26.45 -29.6,38.15 -8.46,8.84 -14.91,19.86 -25.35,26.6 -9.8,6.78 -22.81,6.21 -33.65,2.45 -10.66,-4.66 -16.2,-15.41 -24.2,-23.15 -3.52,4.72 -6.51,10.03 -11.45,13.45 -8.82,6.16 -17.49,13.03 -27.85,16.35 -13.98,5.28 -29.28,6.17 -43.9,3.45 -15.44,-4.98 -29.76,-12.74 -42.6,-22.6 -7.3,-6.04 -16.77,-10.39 -20.55,-19.65 -5.92,-12.7 -15.35,-24.19 -16.85,-38.55 -3.32,-21.24 -9.95,-42 -10.55,-63.6 -2.38,-19.32 -1.61,-38.85 -3.25,-58.25 -5.18,2.52 -7.84,7.89 -11.2,12.25 -6.22,9.46 -15.03,17.05 -24.95,22.45 -13.62,5.6 -29.83,5.96 -43.35,-0.2 -9.02,-3.38 -18.01,-7.98 -24.55,-15.2 -7.84,-10.84 -14.95,-22.42 -19.85,-34.9 -7.46,-27.48 -8.95,-56.6 -4.45,-84.7 -1.18,-0.44 -3.52,-1.36 -4.7,-1.8 z m 72,329.2 c 3.13322,0.0652 6.61626,1.34626 9.35,2.1 24.64,10.22 45.88,27.59 71.5,35.65 12.58,4.2 24.59,10.6 37.95,12 13.74,1.68 27.39,4.03 41.15,5.55 14.62,-0.4 29.26,-1.52 43.9,-1.8 6.28,-0.16 12.35,-2.06 18.35,-3.7 8.6,-2.48 17.82,-2.28 26.1,-5.9 16.86,-7.1 34.27,-13 50.55,-21.4 4.78,-1.62 9.71,-5.32 14.95,-3.9 6.32,4.26 10.7,10.71 15.8,16.25 -2.28,5.42 -4.71,10.87 -8.45,15.45 -17.32,21.84 -29.26,47.32 -47.2,68.7 -11.36,17.02 -26.82,30.51 -40.9,45.15 -11.66,12.5 -26.11,21.88 -39.15,32.8 -12.04,8.46 -25.71,14.28 -38.45,21.6 -14.26,8.7 -30.86,11.88 -46.4,17.5 -12.76,4.78 -26.13,7.33 -39.35,10.45 -11.78,2.24 -23.52,5.48 -35.6,5.5 -18.66,0.48 -37.49,4.47 -56.05,0.75 -36.18,-3.76 -72.55,-7.31 -108.05,-15.55 -17.5,-5.38 -35.39,-9.47 -52.65,-15.55 -24.48,-11.9 -48.79,-24.29 -72.85,-37.05 -8.96,-4.94 -18.87,-8.62 -26.15,-16.1 -19.42,-18.54 -41.32,-35.94 -53.3,-60.6 -6.92,-13.54 -15.8,-26.18 -21.3,-40.4 9.04,0.56 16.65,5.99 24.85,9.25 8.02,3.92 16.96,4.85 25.6,6.55 27.88,5.3 55.85,10.32 83.75,15.5 10.6,2 21.42,1.31 32.1,2.55 22.14,2.04 44.16,-1.86 65.8,-6.1 14.02,-4.42 29.23,-6.17 41.65,-14.55 9.24,-6.04 19.91,-10.21 27.55,-18.45 8.92,-9.12 18.6,-17.53 27.4,-26.75 7.92,-10.32 13.5,-22.25 21.3,-32.65 1.58374,-2.2225 3.81306,-2.90069 6.25,-2.85 z"
     id="path14"
     style="fill:#f4722b"
     inkscape:connector-curvature="0" />
  <path
     d="m 424.18,709.8 c 22.98,13.32 45.72,27.2 70.12,37.88 15.22,5.32 31.02,8.84 46.62,12.88 15.7,1.12 31.4,3.98 47.2,2.72 18.86,-1.14 37.66,-3.84 56.04,-8.24 27.62,-7.92 54.72,-17.38 81.3,-28.28 -3.64,7.56 -9.9,13.38 -14.66,20.22 -4.58,6.68 -10.42,12.38 -17.44,16.46 -25.34,15.98 -48.68,35.3 -76.22,47.58 -16.64,7.16 -30.72,20.48 -49.24,22.66 -26.58,6.8 -54.1,11.46 -81.56,8.2 -14.8,-3.44 -29.92,-6.1 -43.9,-12.3 -13.12,-4.44 -25.5,-10.74 -38.5,-15.38 -12.68,4.9 -24.74,11.56 -37.9,15.24 -19.26,4.1 -38.74,6.96 -58.42,7.98 -15.82,2.82 -31.72,-0.6 -47.62,-0.7 -16.4,0.88 -32.2,-4.4 -48.28,-6.76 -19.16,-4.94 -37.96,-11.34 -56.88,-17.2 -15.24,-7.42 -29.82,-16.2 -44.82,-24.1 14.88,3.14 29.26,8.36 44.28,10.92 15.92,2.68 31.56,8 47.84,7.78 13.98,0.82 27.82,3.44 41.84,3.74 35.8,-1.52 71.7,-9.14 103.84,-25.26 8.8,-6.48 17.48,-13.18 26.14,-19.88 8.78,-7.9 16.62,-16.8 25.08,-25.04 9.8,-9.16 17.08,-20.52 25.14,-31.12 z"
     id="path20"
     inkscape:connector-curvature="0"
     style="fill:#f5e5c1" />
  <path
     d="m 651.72,807.74 c 17.4,-9.72 31.24,-24.44 47.96,-35.16 -9.52,15.14 -21.24,28.88 -31.96,43.22 -26.28,27.9 -53.18,56.58 -87.64,74.44 -32.22,20.46 -69.52,30.62 -106.28,39.48 -19.46,2.22 -39.16,2.38 -58.66,4.04 -6.32,1.84 -12.64,-0.56 -19.02,-0.54 -15.96,0.14 -31.86,-1.74 -47.66,-3.66 -36.6,-8.8 -73.18,-17.72 -109.68,-26.92 -17.76,-7.48 -34.74,-16.8 -52.22,-24.94 -10.14,-5.28 -21.14,-9.14 -30.26,-16.18 -9.1,-6.84 -18.3,-13.52 -27.44,-20.32 -5.72,-4.32 -12.06,-8.1 -16.32,-14 -11.82,-15.18 -24.04,-30.06 -35.82,-45.28 10.22,6.92 19.44,15.36 30.5,21 15.7,8.2 31.06,17.06 46.9,24.96 15.04,6.06 30.44,11.2 45.6,16.94 12.12,5.06 25.42,5.5 38.18,7.88 20.48,3.76 41.32,4.9 62.1,4.82 26.28,-3.12 52.56,-7.4 77.88,-15.3 8.1,-2.38 15.5,-7.38 23.78,-8.7 10.82,4.48 20.74,11.08 31.86,14.82 12.08,2.34 24.14,4.92 36.32,6.66 18.28,0.24 36.68,4.84 54.86,1.14 12.02,-2.28 24.18,-3.88 36.28,-5.44 16.7,-6.14 32.62,-14.28 49.18,-20.82 14.74,-5.6 27.9,-14.4 41.56,-22.14 z"
     id="path22"
     inkscape:connector-curvature="0"
     style="fill:#f5e5c1" />
</svg>
