<?xml version="1.0" encoding="UTF-8" ?>
<!DOCTYPE svg PUBLIC "-//W3C//DTD SVG 1.1//EN" "http://www.w3.org/Graphics/SVG/1.1/DTD/svg11.dtd">
<svg width="512pt" height="512pt" viewBox="0 0 512 512" version="1.1" xmlns="http://www.w3.org/2000/svg">
<path fill="#3e3e3e" opacity="1.00" d=" M 0.00 0.00 L 512.00 0.00 L 512.00 512.00 L 0.00 512.00 L 0.00 0.00 Z" />
<path fill="#f5e5c1" opacity="1.00" d=" M 386.78 41.86 C 392.49 40.33 397.96 37.48 403.99 37.48 C 409.34 37.37 414.73 35.95 420.03 37.33 C 423.83 38.24 428.59 38.44 430.96 42.02 C 432.38 45.20 433.15 48.63 434.31 51.91 C 436.23 57.98 439.14 63.75 440.44 70.01 C 440.28 75.09 434.87 76.46 431.17 78.39 C 426.80 80.69 421.74 80.42 417.00 81.18 C 405.98 81.82 395.97 87.12 386.78 92.83 C 379.66 97.21 373.98 103.43 368.66 109.78 C 368.21 109.69 367.33 109.52 366.89 109.43 C 362.14 98.58 357.44 87.70 352.53 76.92 C 364.80 68.61 376.60 59.31 390.38 53.57 C 394.92 51.90 399.30 49.73 404.05 48.67 C 410.74 47.03 417.19 44.51 423.94 43.12 C 423.76 42.24 423.59 41.37 423.42 40.50 C 410.38 44.00 397.23 47.40 384.83 52.85 C 372.29 58.74 361.20 67.11 349.86 74.97 C 345.90 73.82 342.13 71.47 337.91 71.64 C 333.70 72.55 329.94 74.80 326.05 76.55 C 330.68 75.81 335.36 74.21 340.09 75.19 C 341.06 75.50 342.71 75.25 342.90 76.61 C 331.75 83.61 320.38 90.28 309.21 97.26 C 307.57 98.17 305.95 99.45 303.98 99.40 C 298.00 99.63 292.01 99.00 286.05 99.50 C 283.36 100.09 281.13 101.84 278.81 103.23 C 286.15 102.77 293.50 102.57 300.85 102.78 C 284.67 119.47 268.30 135.99 252.39 152.94 C 253.67 153.45 254.96 153.96 256.24 154.47 C 270.93 140.06 284.92 124.93 299.55 110.46 C 304.02 106.29 307.72 101.09 313.27 98.26 C 322.22 93.24 331.06 88.02 339.98 82.93 C 342.47 81.64 344.72 79.46 347.64 79.26 C 352.86 89.51 357.47 100.09 362.46 110.46 C 364.23 114.71 366.76 118.64 368.12 123.04 C 368.65 124.79 367.77 126.47 366.85 127.90 C 354.13 146.83 341.47 165.81 328.77 184.76 C 324.88 190.30 321.80 196.35 317.82 201.83 C 310.12 213.45 302.06 224.82 294.67 236.63 C 288.66 236.67 282.65 237.15 276.67 237.72 C 274.54 239.18 273.29 241.60 271.61 243.54 C 266.01 250.43 260.73 257.58 254.90 264.28 C 251.25 258.60 248.49 252.23 243.41 247.60 C 240.20 243.85 234.98 242.39 232.34 238.10 C 237.43 231.34 242.69 224.70 248.31 218.35 C 252.20 213.68 256.60 209.44 260.09 204.43 C 264.74 205.20 269.78 206.19 273.16 209.78 C 277.71 214.58 280.75 220.73 282.36 227.11 C 283.26 229.36 281.30 231.13 280.23 232.89 C 284.15 232.68 288.08 232.64 291.99 232.32 C 279.77 209.20 266.95 186.38 254.65 163.30 C 251.28 155.91 241.49 152.69 234.25 156.08 C 227.61 158.14 221.80 165.15 223.63 172.35 C 228.13 168.07 233.14 162.12 240.07 163.26 C 245.47 163.22 249.23 167.91 251.94 172.01 C 256.39 179.92 260.40 190.07 255.74 198.77 C 249.08 209.20 240.71 218.40 232.95 228.01 C 230.84 230.50 229.01 233.27 226.52 235.40 C 222.32 236.33 217.91 236.30 213.86 237.89 C 210.52 238.76 208.15 241.44 205.91 243.89 C 173.22 284.17 140.26 324.23 107.25 364.24 C 104.86 367.93 102.13 371.42 99.97 375.26 C 106.28 378.76 108.66 386.18 108.48 393.03 C 91.51 414.94 75.11 437.28 58.29 459.31 C 56.17 461.82 53.73 465.03 50.02 464.67 C 46.20 464.66 42.07 465.69 38.53 463.77 C 34.45 461.84 30.11 460.22 26.60 457.33 C 19.86 450.63 15.81 441.74 13.18 432.73 C 12.36 429.35 12.28 425.31 14.35 422.37 C 82.05 339.50 151.16 257.78 219.46 175.41 C 219.95 172.74 218.11 169.83 218.81 167.00 C 219.85 160.98 222.98 155.46 226.66 150.65 C 237.87 137.87 249.05 125.06 260.27 112.28 C 262.76 109.44 264.99 106.17 268.45 104.42 C 288.61 93.27 308.68 81.97 328.87 70.90 C 341.34 65.93 352.75 58.79 364.59 52.53 C 371.87 48.75 378.76 43.98 386.78 41.86 Z" />
<path fill="#f5e5c1" opacity="1.00" d=" M 50.03 63.22 C 55.99 63.08 62.10 62.79 67.86 64.61 C 77.92 67.44 88.30 69.15 98.15 72.75 C 106.68 75.74 115.70 77.62 123.55 82.28 C 134.78 87.97 145.91 93.84 156.72 100.30 C 163.05 104.20 170.04 107.20 175.48 112.39 C 181.16 117.41 187.16 122.09 192.62 127.36 C 199.63 134.82 206.65 142.28 213.60 149.81 C 205.88 164.37 197.49 178.55 189.12 192.74 C 182.41 186.79 176.09 180.27 168.51 175.40 C 161.01 168.62 151.87 164.10 143.57 158.41 C 137.49 154.15 130.62 151.30 123.99 148.03 C 118.26 145.45 112.76 142.25 106.64 140.62 C 95.86 137.67 85.18 134.26 74.17 132.23 C 61.25 129.23 47.80 127.89 35.59 122.40 C 29.79 119.93 26.11 114.06 24.76 108.10 C 23.62 98.64 26.27 89.28 26.76 79.86 C 26.84 74.21 30.59 68.76 35.99 66.97 C 40.57 65.39 45.10 63.24 50.03 63.22 Z" />
<path fill="#3e3e3e" opacity="1.00" d=" M 343.32 86.17 C 344.54 85.05 346.56 85.43 347.30 86.93 C 347.93 89.53 346.79 92.34 344.89 94.13 C 343.09 95.40 341.45 93.66 340.66 92.16 C 340.27 89.85 341.44 87.49 343.32 86.17 Z" />
<path fill="#3e3e3e" opacity="1.00" d=" M 316.05 109.98 C 318.03 107.11 321.99 107.23 325.01 107.96 C 329.43 109.64 331.10 114.65 331.68 118.94 C 332.00 121.39 330.65 123.56 329.33 125.48 C 319.35 139.48 309.43 153.52 299.53 167.56 C 297.87 169.80 296.51 172.32 294.44 174.21 C 290.03 174.97 284.66 175.42 281.62 171.42 C 277.79 166.06 279.38 159.03 279.40 152.88 C 291.81 138.75 303.81 124.25 316.05 109.98 Z" />
<path fill="#f5e5c1" opacity="1.00" d=" M 322.53 116.46 C 323.24 115.39 324.38 114.75 325.63 115.38 C 326.86 116.83 327.64 118.58 328.53 120.24 C 320.82 131.80 312.28 142.79 304.22 154.11 C 301.67 157.28 299.77 161.01 296.83 163.85 C 295.11 163.78 293.42 163.42 291.73 163.15 C 291.35 160.59 290.48 157.58 292.28 155.35 C 302.30 142.34 312.55 129.50 322.53 116.46 Z" />
<path fill="#3e3e3e" opacity="1.00" d=" M 261.90 163.17 C 258.29 159.22 261.30 152.63 266.18 151.28 C 268.04 152.99 270.19 155.28 269.28 158.05 C 268.47 161.13 265.51 165.24 261.90 163.17 Z" />
<path fill="#3e3e3e" opacity="1.00" d=" M 292.42 213.07 C 293.09 210.28 295.56 208.59 297.95 207.34 C 299.45 208.64 301.32 209.70 302.29 211.51 C 303.07 214.33 302.67 217.58 300.98 220.01 C 299.54 221.98 296.65 222.03 294.53 221.40 C 291.56 219.77 291.85 215.90 292.42 213.07 Z" />
<path fill="#f5e5c1" opacity="1.00" d=" M 264.49 272.50 C 280.94 260.22 297.35 247.91 313.70 235.51 C 323.83 241.00 334.70 244.97 345.18 249.74 C 349.92 252.01 355.21 253.29 359.41 256.57 C 363.95 260.03 368.63 263.29 373.13 266.82 C 385.62 275.87 396.73 286.65 408.79 296.25 C 410.79 297.50 411.54 299.84 410.60 302.04 C 401.87 294.24 393.18 286.41 384.50 278.56 C 377.44 271.69 368.73 266.95 360.93 261.04 C 357.84 259.76 353.33 257.69 350.56 260.55 C 349.85 261.15 349.16 261.75 348.48 262.37 C 348.40 265.32 347.57 268.47 348.88 271.27 C 351.17 276.47 353.76 281.53 355.96 286.78 C 344.39 291.81 332.77 296.75 320.89 301.01 C 316.14 302.46 313.74 307.47 312.75 311.98 C 315.82 328.08 319.80 344.02 322.72 360.16 C 318.83 354.46 315.18 348.58 310.82 343.21 C 295.50 322.17 280.30 301.04 264.91 280.05 C 263.95 278.70 262.94 277.37 262.23 275.88 C 261.91 274.25 263.46 273.39 264.49 272.50 Z" />
<path fill="#f5e5c1" opacity="1.00" d=" M 210.78 249.82 C 213.60 246.53 216.32 242.37 220.97 241.72 C 224.15 240.66 226.68 243.57 229.21 244.99 C 224.73 247.78 219.37 249.09 215.15 252.20 C 186.20 289.69 157.51 327.41 128.51 364.86 C 125.51 363.49 122.62 361.88 119.79 360.20 C 150.15 323.43 180.47 286.63 210.78 249.82 Z" />
<path fill="#f5e5c1" opacity="1.00" d=" M 222.03 254.01 C 226.63 252.89 231.31 252.09 235.97 251.22 C 237.72 252.75 239.53 254.30 240.65 256.38 C 243.55 261.46 246.68 266.42 249.29 271.67 C 251.84 276.42 254.76 281.29 254.67 286.88 C 253.95 295.74 251.74 304.38 249.93 313.06 C 249.10 319.16 245.11 324.06 242.25 329.31 C 235.16 340.65 228.73 352.39 221.77 363.80 C 217.50 369.50 213.49 375.43 208.84 380.85 C 198.01 391.97 188.46 404.47 175.85 413.73 C 172.26 416.16 169.09 419.15 165.42 421.46 C 158.72 425.47 151.14 427.75 144.47 431.81 C 143.99 430.59 143.55 429.36 143.16 428.12 C 145.71 425.53 147.36 422.25 148.41 418.80 C 149.88 414.12 148.48 409.22 148.24 404.46 C 147.96 399.35 145.63 394.74 143.58 390.16 C 141.26 385.31 136.85 381.48 135.82 376.04 C 136.01 372.05 136.22 368.05 136.60 364.08 C 137.50 361.71 139.46 359.94 140.92 357.92 C 167.03 324.02 193.19 290.15 219.27 256.23 C 220.05 255.36 220.77 254.21 222.03 254.01 Z" />
<path fill="#f5e5c1" opacity="1.00" d=" M 482.11 263.09 C 485.06 259.36 487.58 255.27 491.03 251.97 C 494.06 256.09 496.74 260.77 496.95 266.01 C 497.76 275.00 499.43 283.93 499.35 292.98 C 499.46 301.27 500.97 309.53 500.32 317.83 C 499.36 327.59 499.79 337.55 497.19 347.09 C 494.78 356.41 493.22 365.95 490.26 375.11 C 488.23 373.52 486.20 371.93 484.17 370.34 C 477.48 376.95 469.63 382.48 464.21 390.29 C 460.22 395.02 458.12 400.91 455.20 406.29 C 451.48 412.80 450.88 420.43 448.54 427.45 C 451.62 429.92 454.45 432.69 456.78 435.90 C 451.13 444.28 446.17 453.12 440.26 461.31 C 429.92 472.97 419.34 484.42 408.91 495.99 C 414.25 481.13 420.02 466.40 425.82 451.72 C 434.68 435.01 444.38 418.76 452.82 401.82 C 458.76 390.09 465.25 378.62 470.55 366.58 C 475.76 355.15 481.01 343.73 486.20 332.29 C 489.83 321.87 491.22 310.86 493.97 300.21 C 496.59 290.71 494.77 280.79 494.77 271.11 C 494.18 266.89 493.84 262.32 491.10 258.85 C 490.29 259.81 489.49 260.77 488.69 261.74 C 490.22 273.11 488.02 284.47 487.13 295.79 C 485.43 305.12 483.83 314.48 481.82 323.74 C 474.35 342.89 464.27 360.86 455.32 379.34 C 441.63 406.16 428.92 433.50 414.18 459.78 C 407.40 456.98 400.10 455.30 394.04 450.95 C 380.48 444.04 371.07 431.67 362.48 419.54 C 358.69 412.83 354.86 406.14 351.33 399.29 C 364.06 380.58 375.85 361.26 388.27 342.35 C 398.18 327.22 407.78 311.89 417.92 296.91 C 422.16 291.45 424.67 283.46 432.01 281.41 C 438.82 280.25 442.35 287.40 447.40 290.48 C 451.67 293.57 459.21 294.54 462.35 289.41 C 468.87 280.59 475.53 271.87 482.11 263.09 Z" />
<path fill="#f5e5c1" opacity="1.00" d=" M 353.45 267.92 C 354.19 266.68 354.95 265.45 355.73 264.23 C 362.69 268.10 369.90 271.78 375.80 277.22 C 385.98 286.15 396.20 295.04 406.44 303.91 C 406.52 305.21 406.68 306.52 406.62 307.84 C 404.32 311.10 401.37 313.86 398.96 317.04 C 388.95 308.70 379.03 300.24 369.02 291.90 C 361.53 285.65 357.98 276.27 353.45 267.92 Z" />
<path fill="#3e3e3e" opacity="1.00" d=" M 218.03 287.57 C 219.17 285.72 220.39 283.92 221.68 282.16 C 229.27 285.34 235.93 290.44 241.39 296.55 C 244.00 299.61 246.63 302.94 247.46 306.97 C 247.40 309.74 246.50 312.40 245.75 315.04 C 243.02 310.30 240.58 305.25 236.41 301.56 C 231.25 295.74 224.55 291.67 218.03 287.57 Z" />
<path fill="#f5e5c1" opacity="1.00" d=" M 353.85 293.89 C 356.28 292.94 359.45 292.52 361.54 294.42 C 372.51 303.52 383.21 312.96 394.33 321.88 C 380.65 342.40 367.14 363.04 353.43 383.54 C 346.75 378.40 339.42 374.20 332.38 369.63 C 327.78 350.79 323.76 331.78 319.53 312.85 C 318.84 310.71 319.72 308.63 320.49 306.67 C 331.64 302.49 342.78 298.27 353.85 293.89 Z" />
<path fill="#3e3e3e" opacity="1.00" d=" M 211.07 295.78 C 215.68 297.84 220.40 299.72 224.73 302.34 C 231.53 306.71 236.69 313.13 240.76 320.03 C 240.15 323.19 238.83 326.13 237.12 328.85 C 234.67 323.33 231.92 317.74 227.50 313.51 C 221.46 308.51 214.86 304.13 207.60 301.10 C 208.76 299.33 209.95 297.57 211.07 295.78 Z" />
<path fill="#3e3e3e" opacity="1.00" d=" M 198.39 313.13 C 199.54 311.46 200.70 309.80 201.83 308.12 C 215.45 312.83 227.13 323.55 232.42 337.00 C 231.62 338.88 230.71 341.93 228.19 341.83 C 223.73 335.65 220.18 328.63 214.01 323.89 C 208.92 320.14 203.83 316.36 198.39 313.13 Z" />
<path fill="#3e3e3e" opacity="1.00" d=" M 188.52 325.97 C 189.28 325.05 190.04 324.13 190.81 323.22 C 198.79 326.25 207.00 329.80 213.16 335.88 C 216.96 341.01 221.76 345.65 223.88 351.81 C 222.54 353.81 221.22 355.84 219.87 357.85 C 216.72 353.14 214.06 348.03 210.23 343.82 C 206.86 340.51 203.29 337.35 199.29 334.81 C 195.72 332.82 191.84 331.45 188.33 329.37 C 188.37 328.52 188.47 326.82 188.52 325.97 Z" />
<path fill="#3e3e3e" opacity="1.00" d=" M 176.23 342.18 C 177.39 340.55 178.59 338.96 179.84 337.42 C 185.34 339.48 190.86 341.78 195.42 345.56 C 202.84 351.35 208.31 359.44 211.53 368.23 C 210.07 369.86 208.58 371.48 207.08 373.08 C 203.79 368.01 201.28 362.34 196.95 358.02 C 191.17 351.38 182.88 347.78 176.23 342.18 Z" />
<path fill="#3e3e3e" opacity="1.00" d=" M 170.09 349.95 C 175.50 351.02 179.80 354.62 183.75 358.25 C 190.76 364.42 195.14 372.87 199.32 381.06 C 198.31 383.51 196.14 385.32 194.65 387.51 C 193.39 382.91 191.29 378.54 188.25 374.85 C 185.40 371.29 182.98 367.40 180.05 363.91 C 176.55 360.21 171.54 358.45 167.84 354.99 C 167.36 353.03 169.27 351.55 170.09 349.95 Z" />
<path fill="#f5e5c1" opacity="1.00" d=" M 110.92 369.85 C 114.56 371.84 117.45 374.89 120.88 377.20 C 126.45 380.96 129.83 386.92 133.97 392.04 C 138.69 399.09 141.65 407.57 141.17 416.12 C 140.20 422.57 136.51 429.56 129.90 431.62 C 128.05 432.29 126.16 432.85 124.29 433.46 C 125.99 427.94 128.31 422.62 129.37 416.92 C 127.44 411.06 125.28 405.21 122.08 399.92 C 120.56 397.22 117.62 395.98 115.00 394.64 C 116.39 389.67 117.55 384.31 115.92 379.25 C 115.11 375.69 112.55 373.00 110.92 369.85 Z" />
<path fill="#f5e5c1" opacity="1.00" d=" M 470.34 391.37 C 474.73 385.87 479.15 379.89 486.00 377.34 C 488.96 379.61 492.17 381.57 495.02 383.98 C 496.33 385.05 495.54 386.93 495.22 388.29 C 493.01 395.05 490.13 401.57 487.07 407.99 C 483.56 415.91 478.16 422.90 472.00 428.95 C 469.87 430.93 466.48 433.39 463.61 431.46 C 461.10 429.94 458.58 428.36 456.36 426.44 C 455.92 423.64 457.31 420.83 457.76 418.07 C 459.57 408.25 464.75 399.49 470.34 391.37 Z" />
<path fill="#3e3e3e" opacity="1.00" d=" M 487.66 388.67 C 488.87 387.10 490.64 386.29 492.59 386.15 C 488.76 396.79 484.53 407.48 477.60 416.54 C 473.74 420.76 470.35 425.54 465.62 428.86 C 465.33 422.77 468.53 417.35 470.82 411.93 C 475.35 403.47 481.21 395.75 487.66 388.67 Z" />
<path fill="#f5e5c1" opacity="1.00" d=" M 96.93 419.02 C 101.82 412.39 107.40 406.30 112.03 399.47 C 113.57 400.62 115.56 401.52 116.23 403.48 C 118.09 407.89 119.83 412.38 121.02 417.02 C 122.12 420.64 120.25 424.30 118.21 427.20 C 111.90 436.27 105.62 445.37 99.30 454.44 C 97.70 456.56 96.10 459.50 93.03 459.42 C 85.05 458.23 77.21 451.66 77.14 443.14 C 83.16 434.69 90.54 427.23 96.93 419.02 Z" />
<path fill="#f5e5c1" opacity="1.00" d=" M 336.86 421.92 C 340.24 416.48 343.87 411.18 347.24 405.74 C 350.01 410.65 352.02 415.99 355.40 420.54 C 359.33 425.95 362.65 431.87 367.53 436.52 C 375.81 446.11 386.65 452.91 397.15 459.81 C 401.51 462.80 406.88 463.51 411.72 465.42 C 408.44 475.96 405.61 486.62 402.32 497.16 C 399.00 495.74 395.76 494.14 392.50 492.61 C 391.25 486.89 390.93 481.02 389.75 475.30 C 383.99 474.98 379.53 479.95 373.99 480.81 C 371.49 480.68 369.80 478.48 367.77 477.27 C 363.20 474.30 358.94 470.76 355.70 466.33 C 350.52 459.12 344.59 452.25 341.38 443.85 C 339.63 439.15 337.76 434.50 336.11 429.77 C 335.10 427.20 335.27 424.22 336.86 421.92 Z" />
<path fill="#3e3e3e" opacity="1.00" d=" M 18.57 426.80 C 22.60 424.70 27.25 422.37 31.88 423.87 C 40.71 427.84 48.02 435.09 52.14 443.85 C 53.60 447.37 54.62 451.22 54.35 455.05 C 52.88 458.61 48.38 458.98 45.05 459.26 C 39.19 458.55 32.89 456.79 29.02 452.01 C 22.46 445.53 16.61 436.38 18.57 426.80 Z" />
</svg>
