<?xml version="1.0" encoding="UTF-8" ?>
<!DOCTYPE svg PUBLIC "-//W3C//DTD SVG 1.1//EN" "http://www.w3.org/Graphics/SVG/1.1/DTD/svg11.dtd">
<svg width="512pt" height="512pt" viewBox="0 0 512 512" version="1.1" xmlns="http://www.w3.org/2000/svg">
<path fill="#3e3e3e" opacity="1.00" d=" M 0.00 0.00 L 512.00 0.00 L 512.00 512.00 L 0.00 512.00 L 0.00 0.00 Z" />
<path fill="#f5e5c1" opacity="1.00" d=" M 280.58 10.29 C 283.42 9.99 286.44 10.12 287.78 13.10 C 281.00 22.85 272.46 31.24 265.45 40.82 C 265.78 41.53 266.43 42.95 266.76 43.66 C 269.90 41.42 272.87 38.36 276.92 38.00 C 281.36 37.45 286.14 36.71 290.34 38.70 C 294.92 40.26 298.43 43.87 301.37 47.57 C 302.96 51.21 303.84 55.15 304.59 59.04 C 304.18 62.09 303.16 65.01 302.46 68.00 C 301.33 72.67 298.29 76.54 296.54 80.97 C 297.26 82.68 297.99 84.39 298.72 86.11 C 296.59 88.19 294.41 91.09 291.06 90.79 C 286.89 90.64 282.67 90.36 278.58 91.35 C 277.12 94.89 275.15 98.24 274.13 101.94 C 274.46 102.84 274.94 103.67 275.55 104.44 C 284.07 115.67 292.45 127.02 300.32 138.72 C 300.27 141.96 301.13 145.24 300.62 148.46 C 298.05 154.91 294.81 161.08 292.33 167.57 C 286.50 183.47 280.39 199.27 274.51 215.15 C 273.04 219.14 270.29 222.45 267.91 225.92 C 255.59 243.04 243.13 260.06 230.83 277.21 C 196.17 246.57 161.98 215.38 127.36 184.69 C 132.09 178.04 137.56 171.94 142.56 165.49 C 149.05 156.77 157.40 149.72 164.99 141.99 C 167.98 138.67 173.10 136.68 173.73 131.77 C 175.40 124.51 177.09 117.25 178.76 109.98 C 179.20 107.44 181.05 105.56 182.63 103.66 C 186.43 99.32 189.83 94.59 194.37 90.97 C 185.90 81.64 177.62 72.14 169.11 62.84 C 164.72 58.45 162.63 52.44 160.23 46.86 C 161.16 40.89 163.56 35.13 165.46 29.38 C 169.05 26.49 173.52 24.92 177.43 22.48 C 179.93 21.17 182.29 19.39 185.09 18.72 C 192.73 17.89 200.40 17.43 208.04 16.57 C 212.28 16.02 215.64 19.87 219.90 19.49 C 225.23 19.26 230.64 19.54 235.88 18.39 C 240.74 16.42 244.75 12.46 250.09 11.64 C 253.19 11.79 256.17 12.90 259.18 13.61 C 260.98 16.64 262.54 19.79 264.44 22.76 C 271.95 22.30 276.02 15.31 280.58 10.29 Z" />
<path fill="#3e3e3e" opacity="1.00" d=" M 228.02 47.15 C 233.98 46.54 240.29 43.07 246.10 46.04 C 250.93 47.91 256.01 49.05 260.93 50.66 C 258.14 53.22 255.09 55.80 251.00 54.89 C 250.13 56.08 249.27 57.27 248.40 58.47 C 248.69 60.81 248.73 63.23 249.61 65.46 C 251.02 68.11 253.08 70.35 254.81 72.80 C 251.92 75.62 249.55 78.92 246.57 81.63 C 245.10 82.17 243.61 81.60 242.67 80.42 C 237.24 74.72 232.59 67.80 225.25 64.35 C 223.82 63.35 222.18 64.23 220.73 64.65 C 218.04 61.34 215.66 57.81 213.05 54.44 C 215.66 53.75 218.34 53.32 221.05 53.32 C 222.93 50.84 224.36 47.13 228.02 47.15 Z" />
<path fill="#f4722b" opacity="1.00" d=" M 323.34 195.38 C 348.90 164.78 384.09 142.08 422.98 132.81 C 432.22 162.20 441.37 191.61 450.53 221.02 C 426.96 225.95 404.00 235.09 384.73 249.71 C 360.49 266.96 343.52 294.10 338.99 323.55 C 344.49 320.79 349.69 317.27 355.72 315.71 C 371.47 311.42 388.57 311.36 404.07 316.73 C 417.62 321.41 429.57 330.43 437.86 342.12 C 448.27 356.23 453.32 373.67 454.44 391.01 C 455.31 409.74 449.53 428.55 439.11 444.06 C 427.64 461.29 409.96 474.31 390.13 480.21 C 371.73 485.30 351.58 485.18 333.67 478.23 C 317.84 471.91 303.97 461.00 293.59 447.52 C 275.57 424.07 266.67 394.36 266.24 364.97 C 266.11 336.30 269.93 307.57 278.26 280.11 C 287.42 249.25 302.37 219.92 323.34 195.38 Z" />
<path fill="#f4722b" opacity="1.00" d=" M 68.94 163.26 C 80.02 167.23 90.82 171.94 101.82 176.13 C 104.58 177.15 107.37 178.28 109.55 180.33 C 146.82 212.87 184.25 245.22 221.47 277.81 C 184.33 274.92 147.19 272.04 110.04 269.22 C 104.35 268.60 98.68 269.59 93.02 270.03 C 78.36 271.26 63.71 272.54 49.06 273.77 C 45.26 274.14 41.44 274.57 37.62 274.38 C 41.55 272.05 45.94 270.71 50.18 269.06 C 58.89 265.68 67.63 262.36 76.35 259.02 C 66.17 254.43 55.71 250.42 45.69 245.48 C 59.55 243.13 73.62 242.06 87.52 239.90 C 85.23 238.23 82.54 237.35 79.90 236.44 C 53.27 226.62 26.71 216.60 0.05 206.86 C 9.70 206.75 19.37 206.77 29.03 206.89 C 41.63 207.82 54.28 207.05 66.90 207.52 C 75.70 207.98 84.51 207.73 93.31 207.78 C 85.13 192.97 76.82 178.23 68.94 163.26 Z" />
<path fill="#f5e5c1" opacity="1.00" d=" M 91.62 297.79 C 92.34 290.47 92.27 283.07 93.36 275.79 C 110.58 276.41 127.80 277.28 145.01 278.30 C 151.31 278.54 157.64 279.33 163.93 278.48 C 163.15 278.78 162.38 279.09 161.60 279.41 C 178.78 279.55 195.85 281.32 213.01 281.80 C 220.27 282.74 227.72 281.84 234.86 283.66 C 233.32 289.18 231.96 294.74 230.38 300.25 C 226.97 302.53 223.91 305.38 220.19 307.14 C 216.47 307.99 212.60 307.47 208.83 307.40 C 206.42 322.05 204.35 336.76 201.87 351.40 C 201.46 353.87 201.08 356.38 201.45 358.88 C 202.87 368.94 204.65 378.96 205.83 389.04 C 206.37 391.23 204.58 392.82 203.42 394.41 C 200.50 397.89 197.78 401.53 194.88 405.03 C 193.67 406.73 191.53 407.13 189.70 407.84 C 186.84 413.12 184.36 418.60 181.96 424.09 C 180.78 427.29 179.49 430.74 180.21 434.18 C 180.94 438.39 180.21 442.66 180.10 446.89 C 182.75 451.95 185.27 457.07 187.99 462.10 C 191.10 466.85 189.42 472.74 189.79 478.05 C 182.04 480.19 173.98 481.85 165.91 481.70 C 163.11 481.87 161.12 479.51 159.75 477.39 C 158.51 472.76 158.48 467.90 157.52 463.22 C 156.39 463.99 155.26 464.76 154.12 465.53 C 154.16 469.43 154.29 473.32 154.37 477.22 C 151.91 479.15 149.74 481.67 146.74 482.76 C 138.79 483.69 131.05 480.84 123.39 479.11 C 124.07 475.35 124.55 471.51 125.87 467.91 C 129.22 460.74 133.67 454.10 136.78 446.84 C 137.01 442.24 136.81 437.61 136.48 433.02 C 133.43 424.78 129.54 416.86 126.27 408.71 C 125.38 406.67 124.73 404.50 123.46 402.67 C 119.92 399.72 115.11 399.09 111.44 396.34 C 114.52 384.24 117.77 372.18 120.77 360.05 C 118.79 357.65 116.61 355.38 114.96 352.73 C 114.27 348.50 115.10 344.13 114.40 339.88 C 112.75 329.52 110.94 319.18 109.25 308.83 C 103.46 305.00 97.50 301.47 91.62 297.79 Z" />
<path fill="#3e3e3e" opacity="1.00" d=" M 155.62 343.85 C 158.70 336.14 160.22 327.91 161.19 319.70 C 163.27 329.32 163.93 339.19 165.34 348.93 C 165.82 355.22 167.96 361.69 166.01 367.94 C 164.61 373.29 163.25 378.66 161.81 384.00 C 161.03 386.48 161.17 389.09 161.40 391.64 C 163.42 393.41 165.43 395.19 167.56 396.85 C 167.37 404.12 166.97 411.39 166.40 418.64 C 164.86 422.37 161.84 425.31 159.90 428.86 C 156.91 424.97 153.01 421.80 150.37 417.66 C 148.96 413.18 147.94 408.55 147.14 403.93 C 146.59 402.48 147.94 401.58 149.01 401.01 C 151.76 399.51 154.72 398.41 157.58 397.12 C 155.81 383.33 153.09 369.69 150.51 356.05 C 153.05 352.37 153.96 347.93 155.62 343.85 Z" />
<path fill="#3e3e3e" opacity="1.00" d=" M 367.44 379.52 C 374.39 378.31 381.92 379.20 387.97 383.00 C 395.08 387.34 399.26 395.74 399.15 403.96 C 397.98 419.26 384.54 432.94 369.08 433.70 C 360.25 434.27 350.90 430.57 345.75 423.19 C 341.43 417.19 341.27 409.19 343.18 402.29 C 345.96 390.95 355.90 381.46 367.44 379.52 Z" />
</svg>
