<?xml version="1.0" encoding="UTF-8" ?>
<!DOCTYPE svg PUBLIC "-//W3C//DTD SVG 1.1//EN" "http://www.w3.org/Graphics/SVG/1.1/DTD/svg11.dtd">
<svg width="512pt" height="512pt" viewBox="0 0 512 512" version="1.1" xmlns="http://www.w3.org/2000/svg">
<path fill="#3e3e3e" opacity="1.00" d=" M 0.00 0.00 L 512.00 0.00 L 512.00 387.03 C 497.55 389.93 483.26 393.88 469.60 399.44 C 454.46 406.91 439.79 415.85 427.85 427.92 C 404.92 450.08 391.62 480.77 386.97 512.00 L 0.00 512.00 L 0.00 0.00 Z" />
<path fill="#f5e5c1" opacity="1.00" d=" M 212.77 63.68 C 219.91 52.77 231.05 44.08 243.98 41.46 C 249.47 43.47 254.18 47.50 260.11 48.33 C 264.83 49.14 269.69 49.70 274.00 51.97 C 301.70 63.74 329.60 75.06 357.42 86.55 C 360.98 87.88 362.60 91.61 364.25 94.73 C 370.67 107.53 377.55 120.09 383.86 132.93 C 381.64 135.42 378.28 136.65 375.62 138.66 C 367.47 144.29 359.13 150.30 353.82 158.85 C 350.72 163.09 349.00 168.11 346.81 172.84 C 329.22 166.70 311.51 160.88 293.88 154.86 C 291.99 154.33 289.33 152.85 290.61 150.50 C 295.74 137.97 301.21 124.77 311.91 115.91 C 320.71 107.01 331.53 100.61 341.95 93.84 C 344.18 92.39 346.60 91.28 348.96 90.05 C 346.19 88.32 343.06 87.21 339.94 86.32 C 336.54 87.52 333.65 89.77 330.53 91.52 C 319.24 98.11 308.44 106.04 300.59 116.63 C 295.35 122.31 291.58 129.13 288.40 136.11 C 286.76 139.49 286.09 143.52 283.15 146.11 C 266.16 127.55 249.02 109.10 232.52 90.14 C 232.08 83.32 234.94 76.49 239.48 71.46 C 245.97 63.67 254.14 57.36 263.21 52.83 C 260.18 52.30 257.18 51.41 254.10 51.44 C 248.77 54.03 244.55 58.36 240.48 62.56 C 234.81 68.85 228.94 75.54 227.10 84.07 C 222.76 79.77 219.58 74.21 214.23 71.04 C 213.91 73.42 213.68 75.81 213.49 78.20 C 216.84 81.99 220.48 85.52 223.61 89.49 C 226.60 94.85 226.60 101.55 230.29 106.57 C 247.41 126.45 264.51 146.37 281.72 166.19 C 284.41 168.91 288.15 170.17 291.73 171.29 C 305.47 175.47 319.20 179.71 332.94 183.90 C 336.91 185.12 341.13 186.00 344.58 188.43 C 369.05 209.34 393.93 229.76 418.41 250.66 C 419.89 246.53 421.61 242.49 423.55 238.56 C 402.54 220.18 381.40 201.94 360.35 183.61 C 357.96 181.50 355.32 179.62 353.31 177.11 C 354.39 171.61 357.50 166.80 359.73 161.72 C 362.46 155.46 368.14 151.40 373.42 147.42 C 377.80 143.85 382.98 141.45 388.16 139.29 C 389.42 138.59 390.66 139.61 391.65 140.28 C 417.54 160.09 443.40 179.93 469.33 199.68 C 472.45 201.64 471.63 205.83 471.51 208.93 C 469.59 220.06 465.57 231.26 457.55 239.47 C 450.09 248.16 440.96 255.45 430.74 260.63 C 427.28 261.86 422.70 262.98 419.64 260.27 C 399.40 243.88 379.15 227.51 358.90 211.14 C 351.96 205.81 345.54 199.71 338.23 194.92 C 319.97 189.20 301.26 184.89 283.01 179.12 C 281.22 178.76 279.85 177.56 278.82 176.12 C 261.14 153.84 243.47 131.54 225.76 109.27 C 222.62 104.75 222.37 98.97 220.03 94.08 C 216.98 89.94 212.19 87.29 209.44 82.93 C 208.16 76.45 209.37 69.37 212.77 63.68 Z" />
<path fill="#f5e5c1" opacity="1.00" d=" M 40.66 73.72 C 48.37 65.51 60.33 62.89 71.20 64.00 C 77.79 64.28 84.49 64.89 90.64 67.44 C 94.00 69.31 97.14 71.56 100.36 73.66 C 104.96 76.70 107.30 81.88 110.42 86.22 C 99.61 85.30 88.80 87.78 78.87 91.93 C 74.52 93.93 69.91 95.70 65.04 95.60 C 58.66 96.00 52.10 92.60 48.98 86.97 C 46.72 83.30 46.56 78.78 47.17 74.62 C 42.69 78.58 39.71 83.87 37.23 89.24 C 35.35 94.28 34.65 99.66 33.48 104.90 C 32.34 109.36 32.85 114.03 33.72 118.49 C 35.99 123.17 39.03 127.44 41.57 131.98 C 50.09 119.87 61.10 109.17 74.33 102.33 C 87.51 96.79 102.11 93.13 116.45 95.38 C 133.28 119.73 149.57 144.44 165.99 169.06 C 168.35 172.30 169.03 176.72 167.42 180.44 C 164.26 188.41 159.69 195.75 154.77 202.74 C 149.22 209.85 142.10 215.56 134.83 220.82 C 124.71 226.87 112.85 231.18 100.91 229.70 C 96.99 229.29 92.92 228.70 89.46 226.69 C 86.60 224.76 85.04 221.56 83.28 218.72 C 66.37 190.49 49.90 161.99 33.57 133.43 C 30.12 127.83 26.17 121.91 26.65 115.00 C 27.95 100.48 30.84 85.10 40.66 73.72 Z" />
<path fill="#3e3e3e" opacity="1.00" d=" M 216.12 67.52 C 216.80 66.37 217.48 65.23 218.18 64.09 C 221.21 67.24 224.11 70.51 226.91 73.87 C 226.61 74.59 226.01 76.04 225.71 76.76 C 222.42 73.77 219.47 70.44 216.12 67.52 Z" />
<path fill="#3e3e3e" opacity="1.00" d=" M 235.99 82.95 C 252.75 98.90 269.18 115.24 285.57 131.56 C 285.51 134.70 283.42 137.47 282.24 140.32 C 266.72 122.77 251.12 105.31 235.43 87.92 C 235.60 86.26 235.79 84.61 235.99 82.95 Z" />
<path fill="#3e3e3e" opacity="1.00" d=" M 64.34 117.24 C 66.01 115.92 68.03 115.21 70.03 114.56 C 72.27 115.63 74.95 116.40 76.20 118.75 C 86.13 135.19 95.89 151.75 105.83 168.19 C 108.79 172.81 108.63 179.57 104.46 183.44 C 97.47 190.32 91.12 197.85 85.94 206.20 C 72.45 183.52 58.79 160.94 45.39 138.21 C 51.09 130.72 56.72 122.93 64.34 117.24 Z" />
<path fill="#3e3e3e" opacity="1.00" d=" M 297.07 146.09 C 313.93 152.71 330.75 159.42 347.63 165.99 C 347.35 166.75 346.78 168.28 346.50 169.04 C 329.07 163.33 311.73 157.35 294.37 151.43 C 295.29 149.66 296.16 147.87 297.07 146.09 Z" />
<path fill="#3e3e3e" opacity="1.00" d=" M 358.56 171.18 C 358.94 171.25 359.72 171.38 360.10 171.44 C 361.95 174.70 364.98 176.95 367.85 179.24 C 387.87 196.00 407.78 212.90 427.67 229.80 C 426.74 231.74 425.81 233.68 424.91 235.63 C 402.15 215.80 379.32 196.04 356.54 176.23 C 357.22 174.54 357.89 172.86 358.56 171.18 Z" />
<path fill="#3e3e3e" opacity="1.00" d=" M 146.42 173.77 C 150.76 173.03 158.03 171.00 159.46 176.99 C 158.54 181.85 155.44 185.94 153.18 190.25 C 146.29 202.57 135.55 212.58 122.91 218.80 C 115.30 221.86 106.94 223.85 98.75 222.27 C 97.04 221.76 94.59 220.16 95.91 218.10 C 101.39 206.57 110.25 197.09 119.56 188.52 C 127.27 181.69 136.43 176.39 146.42 173.77 Z" />
<path fill="#f4722b" opacity="1.00" d=" M 173.37 189.04 C 187.15 192.47 199.78 199.24 212.11 206.09 C 204.03 218.34 195.88 230.56 187.78 242.80 C 175.06 235.78 162.28 228.83 148.99 222.93 C 154.07 217.38 161.36 213.61 164.40 206.44 C 167.33 200.61 170.42 194.86 173.37 189.04 Z" />
<path fill="#3e3e3e" opacity="1.00" d=" M 461.37 208.58 C 462.65 208.00 464.06 208.55 465.40 208.63 C 465.44 216.29 462.03 223.63 457.78 229.86 C 451.57 238.62 443.06 245.69 433.41 250.38 C 431.61 251.42 429.53 251.52 427.51 251.51 C 427.62 249.22 427.75 246.85 428.81 244.76 C 432.75 236.80 436.66 228.52 443.35 222.44 C 448.46 216.79 454.22 211.49 461.37 208.58 Z" />
<path fill="#f4722b" opacity="1.00" d=" M 198.62 249.04 C 206.11 236.49 213.57 223.94 221.01 211.37 C 236.27 220.80 251.19 230.79 265.55 241.53 C 257.62 253.12 250.28 265.10 242.35 276.69 C 228.15 266.90 213.46 257.84 198.62 249.04 Z" />
<path fill="#f4722b" opacity="1.00" d=" M 255.65 285.80 C 263.18 274.18 270.88 262.67 278.32 251.00 C 291.85 260.80 304.90 271.26 317.88 281.79 C 309.60 292.41 301.49 303.15 293.25 313.80 C 280.98 304.11 268.47 294.73 255.65 285.80 Z" />
<path fill="#f5e5c1" opacity="1.00" d=" M 81.40 264.10 C 81.95 262.42 82.71 259.86 85.01 260.26 C 88.48 261.31 91.24 263.90 94.37 265.65 C 102.66 270.66 110.65 276.21 119.08 280.95 C 133.83 279.61 148.89 280.62 163.01 285.31 C 177.36 280.07 191.64 274.61 206.04 269.52 C 208.94 268.32 210.32 271.61 210.22 273.95 C 210.99 285.97 212.61 297.94 212.86 309.99 C 213.00 314.93 211.92 320.54 215.15 324.78 C 219.47 331.14 223.07 338.00 225.73 345.22 C 226.47 347.00 226.94 349.18 228.82 350.15 C 238.79 356.52 248.83 362.80 258.81 369.15 C 261.95 371.20 265.37 372.95 267.84 375.85 C 265.38 380.22 260.94 382.85 257.52 386.38 C 250.92 392.15 244.64 398.27 237.85 403.80 C 233.47 407.28 227.92 410.25 226.00 415.85 C 223.20 423.56 219.37 430.87 214.79 437.66 C 214.06 454.45 212.25 471.20 211.28 487.98 C 211.00 489.90 211.17 492.44 209.17 493.49 C 206.45 493.56 203.97 492.24 201.44 491.43 C 191.03 487.50 180.35 484.27 170.16 479.78 C 167.01 478.49 163.79 475.66 160.25 477.26 C 140.41 483.23 118.71 482.74 99.16 475.90 C 97.72 475.40 96.14 474.96 94.69 475.68 C 82.03 480.37 69.41 485.18 56.74 489.84 C 55.15 490.60 52.99 490.61 52.25 488.71 C 51.18 484.92 51.50 480.88 50.90 477.01 C 50.12 466.01 48.37 455.04 48.77 443.99 C 48.79 440.42 48.52 436.66 46.34 433.68 C 37.20 419.27 32.38 402.41 31.27 385.45 C 23.31 374.73 14.00 364.96 5.72 354.46 C 4.31 352.67 5.49 350.24 7.52 349.65 C 19.39 344.07 31.14 338.23 43.28 333.25 C 49.52 321.73 58.01 311.46 68.13 303.14 C 70.64 301.49 71.03 298.40 71.86 295.77 C 75.02 285.20 78.24 274.66 81.40 264.10 Z" />
<path fill="#3e3e3e" opacity="1.00" d=" M 74.67 309.52 C 79.28 296.09 83.78 282.62 88.46 269.21 C 100.59 277.22 112.85 285.05 125.01 293.02 C 126.72 293.92 127.57 296.09 127.05 297.93 C 124.35 301.40 120.38 303.57 116.59 305.67 C 107.19 310.46 97.00 313.73 86.57 315.31 C 82.98 315.69 79.28 316.11 75.71 315.36 C 74.07 313.86 73.81 311.49 74.67 309.52 Z" />
<path fill="#f4722b" opacity="1.00" d=" M 452.64 278.53 C 457.21 276.91 460.69 273.50 464.03 270.12 C 469.40 283.06 474.67 296.07 479.00 309.41 C 467.01 311.41 455.06 313.66 443.06 315.61 C 438.24 304.61 432.07 294.32 426.10 283.93 C 435.10 283.32 444.56 283.03 452.64 278.53 Z" />
<path fill="#3e3e3e" opacity="1.00" d=" M 163.85 292.12 C 177.36 287.73 190.79 283.08 204.35 278.86 C 205.42 293.95 206.51 309.04 207.58 324.13 C 206.70 325.12 205.81 326.11 204.92 327.09 C 195.97 326.00 188.01 321.30 180.57 316.49 C 172.58 310.87 164.43 304.71 159.53 296.06 C 160.64 294.42 161.71 292.49 163.85 292.12 Z" />
<path fill="#f4722b" opacity="1.00" d=" M 305.76 323.83 C 313.79 313.04 321.84 302.27 329.91 291.51 C 343.60 302.93 357.24 314.41 370.66 326.14 C 361.43 336.07 352.18 345.97 342.99 355.94 C 330.88 344.89 318.49 334.16 305.76 323.83 Z" />
<path fill="#3e3e3e" opacity="1.00" d=" M 116.60 311.57 C 124.58 305.70 132.92 300.32 140.93 294.49 C 146.82 301.82 152.89 308.99 158.68 316.38 C 161.85 322.02 165.22 328.41 163.78 335.09 C 162.41 344.45 154.72 351.93 145.86 354.58 C 132.53 358.95 115.90 353.35 109.55 340.44 C 104.42 330.76 107.91 317.97 116.60 311.57 Z" />
<path fill="#f4722b" opacity="1.00" d=" M 451.49 334.04 C 462.73 332.40 473.93 330.44 485.14 328.56 C 489.56 343.51 493.30 358.70 495.49 374.15 C 485.35 375.73 475.01 377.34 465.71 381.94 C 464.33 373.80 461.98 365.87 460.21 357.82 C 458.51 349.49 454.36 341.97 451.49 334.04 Z" />
<path fill="#3e3e3e" opacity="1.00" d=" M 14.85 353.03 C 28.57 346.95 42.15 340.54 55.93 334.57 C 57.14 335.62 59.32 336.14 59.41 338.03 C 60.94 349.24 58.65 360.59 55.30 371.27 C 53.32 376.94 51.29 382.79 47.57 387.59 C 46.08 389.99 42.56 388.77 41.31 386.73 C 32.48 375.51 23.65 364.28 14.85 353.03 Z" />
<path fill="#f4722b" opacity="1.00" d=" M 352.94 365.09 C 362.31 355.15 371.68 345.20 380.99 335.20 C 389.93 343.21 398.88 351.21 407.67 359.39 C 396.83 368.53 385.86 377.50 375.00 386.63 C 367.79 379.30 360.34 372.22 352.94 365.09 Z" />
<path fill="#3e3e3e" opacity="1.00" d=" M 214.80 357.54 C 215.47 355.81 215.60 353.17 217.87 352.82 C 219.43 352.23 220.91 352.93 222.17 353.83 C 233.96 361.87 245.70 370.01 257.54 377.98 C 246.38 387.65 235.45 397.59 224.29 407.25 C 222.92 408.63 220.95 407.86 219.28 407.72 C 215.25 400.47 213.88 392.12 213.24 383.95 C 212.34 375.15 212.83 366.16 214.80 357.54 Z" />
<path fill="#f4722b" opacity="1.00" d=" M 383.35 395.15 C 394.04 385.66 404.68 376.11 415.35 366.60 C 425.28 376.33 435.95 385.50 444.35 396.64 C 431.87 404.41 421.49 414.97 410.39 424.48 C 401.70 414.42 392.55 404.75 383.35 395.15 Z" />
<path fill="#3e3e3e" opacity="1.00" d=" M 87.42 370.61 C 95.23 369.35 103.28 372.68 108.56 378.42 C 118.66 388.97 119.90 407.15 110.53 418.55 C 105.26 425.15 96.20 428.80 87.88 426.64 C 80.21 425.48 74.87 419.42 69.14 414.79 C 64.65 410.80 59.67 407.32 55.72 402.75 C 60.43 395.25 66.04 388.32 71.10 381.04 C 75.51 376.33 80.76 371.51 87.42 370.61 Z" />
<path fill="#3e3e3e" opacity="1.00" d=" M 143.17 413.08 C 140.01 396.25 153.62 377.93 171.03 377.43 C 182.09 376.76 192.29 385.45 194.40 396.12 C 196.26 405.84 197.68 415.64 199.47 425.38 C 190.32 427.62 181.21 430.05 172.04 432.15 C 166.34 432.61 160.15 432.91 154.99 430.00 C 148.69 426.60 144.32 420.11 143.17 413.08 Z" />
<path fill="#f4722b" opacity="1.00" d=" M 469.60 399.44 C 483.26 393.88 497.55 389.93 512.00 387.03 L 512.00 404.34 C 483.92 417.61 459.46 437.93 440.33 462.31 C 428.14 477.63 418.10 494.52 409.38 512.00 L 386.97 512.00 C 391.62 480.77 404.92 450.08 427.85 427.92 C 439.79 415.85 454.46 406.91 469.60 399.44 Z" />
<path fill="#3e3e3e" opacity="1.00" d=" M 440.33 462.31 C 459.46 437.93 483.92 417.61 512.00 404.34 L 512.00 512.00 L 409.38 512.00 C 418.10 494.52 428.14 477.63 440.33 462.31 Z" />
<path fill="#f4722b" opacity="1.00" d=" M 235.23 433.38 C 238.81 424.81 242.28 416.19 245.83 407.60 C 257.89 408.05 269.93 408.84 281.97 409.76 C 278.83 418.46 274.87 426.84 271.84 435.58 C 259.63 434.97 247.46 433.60 235.23 433.38 Z" />
<path fill="#f4722b" opacity="1.00" d=" M 290.54 437.89 C 293.57 429.11 296.56 420.31 299.64 411.55 C 315.63 413.55 331.61 415.95 347.20 420.11 C 343.12 428.96 338.10 437.35 333.81 446.11 C 319.53 442.64 305.12 439.74 290.54 437.89 Z" />
<path fill="#f4722b" opacity="1.00" d=" M 348.52 450.98 C 352.79 441.97 357.14 433.01 361.56 424.08 C 374.21 427.27 385.84 433.34 396.63 440.57 C 390.38 450.21 386.49 461.05 381.68 471.41 C 372.64 461.79 360.82 455.43 348.52 450.98 Z" />
<path fill="#3e3e3e" opacity="1.00" d=" M 54.26 437.94 C 53.78 435.69 54.95 433.68 56.87 432.58 C 64.05 433.25 70.57 436.75 76.72 440.27 C 85.04 445.33 93.00 451.27 99.27 458.79 C 100.29 460.49 102.61 462.41 101.43 464.54 C 100.93 465.99 99.56 466.80 98.17 467.24 C 84.64 471.83 71.04 476.24 57.54 480.92 C 56.43 466.59 55.29 452.27 54.26 437.94 Z" />
<path fill="#3e3e3e" opacity="1.00" d=" M 199.42 438.57 C 201.52 438.13 203.76 437.22 205.91 437.84 C 207.63 438.97 208.22 441.04 207.85 443.00 C 206.44 457.17 204.68 471.32 203.25 485.50 C 189.01 480.03 174.67 474.83 160.40 469.42 C 160.02 468.09 159.16 466.81 159.34 465.40 C 161.85 461.05 165.71 457.69 169.55 454.55 C 178.51 447.60 188.56 441.94 199.42 438.57 Z" />
</svg>
