<?xml version="1.0" encoding="UTF-8" ?>
<!DOCTYPE svg PUBLIC "-//W3C//DTD SVG 1.1//EN" "http://www.w3.org/Graphics/SVG/1.1/DTD/svg11.dtd">
<svg width="512pt" height="512pt" viewBox="0 0 512 512" version="1.1" xmlns="http://www.w3.org/2000/svg">
<path fill="#3e3e3e" opacity="1.00" d=" M 0.00 0.00 L 156.91 0.00 C 156.01 14.11 150.53 27.77 141.91 38.93 C 137.01 46.29 128.52 50.44 124.25 58.30 C 117.34 70.62 119.95 86.71 128.51 97.56 C 135.10 106.52 141.37 117.37 139.10 128.93 C 136.83 139.44 131.77 149.55 124.11 157.18 C 114.68 165.25 101.96 167.46 90.02 168.99 C 82.39 169.59 73.71 169.77 67.42 164.70 C 62.28 160.87 59.63 154.27 60.23 147.95 C 61.05 139.28 65.86 131.63 67.03 123.04 C 68.55 112.79 65.96 102.18 60.53 93.43 C 57.33 88.32 54.43 83.00 50.76 78.21 C 47.22 73.61 42.43 70.24 38.20 66.33 C 44.32 78.53 48.57 92.42 46.08 106.15 C 44.89 111.36 43.09 116.58 39.90 120.92 C 32.56 130.27 22.12 136.36 11.64 141.57 C 7.87 143.29 3.86 144.39 0.00 145.89 L 0.00 0.00 Z" />
<path fill="#f4722b" opacity="1.00" d=" M 156.91 0.00 L 238.58 0.00 C 237.85 9.23 239.24 18.59 242.62 27.21 C 244.99 33.14 250.30 37.65 256.32 39.60 C 262.20 41.44 268.73 39.32 273.08 35.14 C 280.92 27.99 284.89 17.73 286.94 7.54 C 289.26 14.77 290.65 22.58 288.90 30.09 C 287.55 36.31 285.92 42.77 281.81 47.81 C 274.45 56.75 265.77 64.47 257.47 72.51 C 253.63 76.40 250.36 80.81 246.91 85.04 C 241.87 91.12 240.10 99.03 238.21 106.50 C 235.59 117.45 235.84 129.96 242.47 139.50 C 245.33 144.30 249.83 147.96 255.06 149.89 C 264.09 153.75 274.36 151.85 283.11 148.15 C 290.92 144.81 296.77 138.06 300.52 130.59 C 302.94 125.52 303.65 119.85 305.70 114.64 C 308.15 107.96 312.21 102.03 316.62 96.51 C 321.09 90.43 325.46 84.21 331.01 79.04 C 336.12 74.26 340.19 68.13 341.53 61.18 C 343.76 50.72 341.94 39.92 339.25 29.74 C 346.26 34.18 353.20 39.03 358.48 45.51 C 366.51 56.28 372.50 69.40 371.54 83.12 C 371.19 90.00 367.34 96.12 366.84 102.98 C 366.50 107.66 369.32 112.74 374.11 113.86 C 380.51 115.61 388.84 116.07 393.53 110.46 C 398.05 105.04 397.75 97.21 396.17 90.72 C 392.68 79.54 385.90 69.68 382.66 58.39 C 380.20 49.49 378.48 40.22 379.33 30.96 C 379.60 25.92 382.95 21.84 385.77 17.91 C 391.42 10.87 397.63 3.69 406.09 0.00 L 453.11 0.00 C 447.03 9.37 439.27 19.27 440.27 31.11 C 440.49 38.30 445.64 43.80 449.73 49.22 C 454.45 55.16 457.46 62.18 461.47 68.57 C 464.26 73.03 466.79 77.76 467.77 82.98 C 469.71 92.78 469.65 102.93 468.24 112.80 C 465.73 123.11 460.87 132.69 458.32 142.99 C 455.28 155.09 452.77 167.47 452.80 179.99 C 453.29 186.05 453.09 192.85 457.10 197.86 C 460.85 203.17 469.38 203.31 473.97 199.03 C 482.31 191.91 485.81 181.10 488.24 170.78 C 490.63 181.68 492.50 192.81 492.17 204.00 C 491.28 213.43 489.36 222.92 485.23 231.51 C 481.80 238.02 475.55 242.27 471.03 247.93 C 466.51 253.68 461.56 259.71 460.20 267.10 C 458.78 275.04 464.89 283.26 472.95 284.02 C 487.94 286.16 502.25 277.71 512.00 266.94 L 512.00 493.04 C 504.99 479.82 495.65 468.08 487.25 455.75 C 479.61 444.73 471.72 433.87 464.26 422.73 C 462.35 419.64 458.51 418.96 455.44 417.56 C 433.55 408.66 411.67 399.72 389.83 390.69 C 388.79 386.30 388.64 381.55 386.50 377.51 C 383.21 373.59 378.66 370.99 374.82 367.67 C 374.39 362.02 373.23 356.25 374.63 350.64 C 376.99 342.04 380.34 333.25 387.46 327.43 C 390.31 324.47 393.79 328.71 397.01 328.64 C 401.38 327.99 404.57 324.59 407.38 321.47 C 414.68 313.39 422.24 305.56 429.59 297.53 C 432.44 294.32 435.89 291.55 438.10 287.83 C 438.76 283.48 438.58 278.82 437.24 274.62 C 434.85 270.63 430.13 269.01 426.34 266.67 C 431.63 248.20 437.98 229.52 437.34 210.05 C 436.67 200.81 434.93 191.47 430.88 183.08 C 427.23 177.27 422.38 171.90 416.11 168.90 C 409.76 165.77 403.77 161.70 396.81 160.01 C 378.65 154.88 360.09 149.57 341.02 150.56 C 332.73 151.44 324.34 152.91 316.88 156.82 C 307.67 160.50 300.36 167.54 293.95 174.90 C 288.29 182.57 284.14 191.21 279.31 199.39 C 276.76 203.77 271.25 205.39 268.92 209.95 C 266.72 213.95 267.68 218.70 267.07 223.05 C 266.48 229.66 262.02 235.02 260.29 241.30 C 258.43 248.06 256.67 254.94 253.17 261.08 C 247.10 271.39 243.80 283.16 242.74 295.03 C 242.23 301.51 243.17 308.05 242.27 314.51 C 240.55 320.51 233.97 324.97 235.36 331.83 C 235.96 338.64 242.35 342.06 246.69 346.40 C 250.96 350.78 255.73 354.61 260.33 358.62 C 263.75 361.54 265.46 365.83 267.10 369.90 C 268.09 372.13 267.18 374.55 266.83 376.82 C 262.21 378.28 256.24 379.41 254.89 384.92 C 252.83 396.04 257.31 407.48 254.31 418.55 C 253.27 421.96 249.83 423.64 246.85 425.06 C 225.09 434.89 203.43 444.94 181.69 454.82 C 177.74 456.77 172.48 456.90 169.85 460.88 C 163.43 470.06 159.57 480.63 154.57 490.58 C 151.40 497.20 147.92 503.67 144.84 510.33 C 141.52 510.39 138.20 510.40 134.87 510.43 C 132.79 506.15 130.71 501.82 129.58 497.17 C 124.52 477.24 119.04 457.42 114.30 437.41 C 112.70 430.62 112.15 423.65 111.08 416.78 C 110.47 413.22 110.68 409.60 111.07 406.04 C 111.76 398.70 110.33 391.37 110.92 384.03 C 111.57 376.85 113.14 369.77 113.69 362.58 C 114.04 360.28 111.93 358.89 110.27 357.82 C 106.52 355.50 102.62 353.44 98.87 351.12 C 100.90 348.72 103.05 346.30 105.94 344.93 C 113.90 340.95 122.15 336.93 128.20 330.20 C 132.02 325.69 135.76 321.08 140.30 317.26 C 145.87 311.78 153.19 308.76 159.73 304.69 C 162.15 303.30 162.98 300.44 164.23 298.11 C 167.80 290.24 171.68 282.41 177.28 275.76 C 176.31 273.14 175.57 269.15 172.00 269.22 C 166.64 269.47 162.20 273.05 157.84 275.81 C 152.19 279.29 149.87 286.58 143.18 288.58 C 145.10 284.83 146.78 280.86 149.51 277.59 C 156.32 270.58 164.61 265.27 173.16 260.62 C 176.24 266.36 178.36 272.65 182.00 278.07 C 186.09 281.57 191.17 283.68 195.85 286.28 C 194.39 281.10 190.56 276.94 189.52 271.61 C 188.41 266.72 187.58 261.76 186.61 256.83 C 188.42 255.85 190.24 254.88 192.07 253.90 C 191.82 250.48 191.13 246.54 193.63 243.72 C 195.63 240.65 199.70 238.88 200.26 234.97 C 203.34 217.45 206.54 199.95 209.70 182.44 C 210.34 178.64 211.40 174.87 211.33 170.99 C 210.00 168.91 207.29 168.58 205.23 167.57 C 208.71 145.80 213.01 124.17 216.67 102.43 C 217.28 98.86 217.84 95.11 220.05 92.11 C 225.15 84.83 229.88 77.30 235.25 70.20 C 237.25 66.97 240.23 62.83 238.21 58.96 C 234.60 56.13 229.96 55.14 225.83 53.28 C 226.25 50.58 226.90 47.86 226.69 45.10 C 226.37 43.43 224.44 43.32 223.14 42.85 C 217.25 41.49 211.23 40.74 205.37 39.26 C 203.83 41.23 202.87 43.50 202.09 45.86 C 194.41 44.89 186.85 42.99 179.13 42.43 C 176.21 42.30 176.33 45.94 176.05 47.94 C 173.98 81.68 171.71 115.40 169.59 149.13 C 169.39 153.50 169.06 157.86 168.52 162.19 C 166.22 162.33 163.95 162.68 161.77 163.38 C 161.63 171.87 160.57 180.29 160.22 188.77 C 159.97 191.88 159.94 195.05 159.06 198.07 C 155.70 199.85 151.67 197.58 148.03 197.83 C 146.08 200.38 145.35 203.57 144.33 206.56 C 135.88 205.41 126.34 203.64 118.77 208.76 C 112.91 212.57 111.30 219.83 110.57 226.32 C 106.86 225.60 102.56 224.72 99.34 227.33 C 96.02 229.39 95.16 233.40 94.45 236.95 C 90.46 233.99 84.94 232.98 80.47 235.50 C 77.28 237.00 76.05 240.50 74.88 243.55 C 70.03 241.84 64.02 240.12 59.45 243.38 C 56.23 247.80 54.19 252.96 51.63 257.77 C 48.41 265.01 43.44 271.36 40.71 278.83 C 36.39 290.40 33.52 302.47 31.39 314.63 C 29.96 322.76 29.96 331.26 32.49 339.18 C 34.40 344.63 33.85 350.61 32.02 355.99 C 28.44 357.82 24.37 358.30 20.53 359.33 C 20.04 369.53 18.46 379.79 20.14 389.96 C 24.61 430.15 29.75 470.26 34.72 510.39 C 23.15 510.42 11.57 510.41 0.00 510.40 L 0.00 145.89 C 3.86 144.39 7.87 143.29 11.64 141.57 C 22.12 136.36 32.56 130.27 39.90 120.92 C 43.09 116.58 44.89 111.36 46.08 106.15 C 48.57 92.42 44.32 78.53 38.20 66.33 C 42.43 70.24 47.22 73.61 50.76 78.21 C 54.43 83.00 57.33 88.32 60.53 93.43 C 65.96 102.18 68.55 112.79 67.03 123.04 C 65.86 131.63 61.05 139.28 60.23 147.95 C 59.63 154.27 62.28 160.87 67.42 164.70 C 73.71 169.77 82.39 169.59 90.02 168.99 C 101.96 167.46 114.68 165.25 124.11 157.18 C 131.77 149.55 136.83 139.44 139.10 128.93 C 141.37 117.37 135.10 106.52 128.51 97.56 C 119.95 86.71 117.34 70.62 124.25 58.30 C 128.52 50.44 137.01 46.29 141.91 38.93 C 150.53 27.77 156.01 14.11 156.91 0.00 Z" />
<path fill="#3e3e3e" opacity="1.00" d=" M 238.58 0.00 L 406.09 0.00 C 397.63 3.69 391.42 10.87 385.77 17.91 C 382.95 21.84 379.60 25.92 379.33 30.96 C 378.48 40.22 380.20 49.49 382.66 58.39 C 385.90 69.68 392.68 79.54 396.17 90.72 C 397.75 97.21 398.05 105.04 393.53 110.46 C 388.84 116.07 380.51 115.61 374.11 113.86 C 369.32 112.74 366.50 107.66 366.84 102.98 C 367.34 96.12 371.19 90.00 371.54 83.12 C 372.50 69.40 366.51 56.28 358.48 45.51 C 353.20 39.03 346.26 34.18 339.25 29.74 C 341.94 39.92 343.76 50.72 341.53 61.18 C 340.19 68.13 336.12 74.26 331.01 79.04 C 325.46 84.21 321.09 90.43 316.62 96.51 C 312.21 102.03 308.15 107.96 305.70 114.64 C 303.65 119.85 302.94 125.52 300.52 130.59 C 296.77 138.06 290.92 144.81 283.11 148.15 C 274.36 151.85 264.09 153.75 255.06 149.89 C 249.83 147.96 245.33 144.30 242.47 139.50 C 235.84 129.96 235.59 117.45 238.21 106.50 C 240.10 99.03 241.87 91.12 246.91 85.04 C 250.36 80.81 253.63 76.40 257.47 72.51 C 265.77 64.47 274.45 56.75 281.81 47.81 C 285.92 42.77 287.55 36.31 288.90 30.09 C 290.65 22.58 289.26 14.77 286.94 7.54 C 284.89 17.73 280.92 27.99 273.08 35.14 C 268.73 39.32 262.20 41.44 256.32 39.60 C 250.30 37.65 244.99 33.14 242.62 27.21 C 239.24 18.59 237.85 9.23 238.58 0.00 Z" />
<path fill="#3e3e3e" opacity="1.00" d=" M 453.11 0.00 L 512.00 0.00 L 512.00 266.94 C 502.25 277.71 487.94 286.16 472.95 284.02 C 464.89 283.26 458.78 275.04 460.20 267.10 C 461.56 259.71 466.51 253.68 471.03 247.93 C 475.55 242.27 481.80 238.02 485.23 231.51 C 489.36 222.92 491.28 213.43 492.17 204.00 C 492.50 192.81 490.63 181.68 488.24 170.78 C 485.81 181.10 482.31 191.91 473.97 199.03 C 469.38 203.31 460.85 203.17 457.10 197.86 C 453.09 192.85 453.29 186.05 452.80 179.99 C 452.77 167.47 455.28 155.09 458.32 142.99 C 460.87 132.69 465.73 123.11 468.24 112.80 C 469.65 102.93 469.71 92.78 467.77 82.98 C 466.79 77.76 464.26 73.03 461.47 68.57 C 457.46 62.18 454.45 55.16 449.73 49.22 C 445.64 43.80 440.49 38.30 440.27 31.11 C 439.27 19.27 447.03 9.37 453.11 0.00 Z" />
<path fill="#f4722b" opacity="1.00" d=" M 55.51 29.38 C 59.57 21.76 66.70 16.55 72.57 10.42 C 69.58 18.46 71.08 27.94 76.23 34.77 C 78.51 37.88 81.07 40.93 82.22 44.68 C 83.84 49.01 82.72 53.67 81.89 58.04 C 80.61 65.18 76.60 71.37 72.92 77.48 C 71.85 73.37 70.97 69.04 68.39 65.55 C 65.28 60.71 59.67 58.10 56.97 52.95 C 52.76 45.93 52.16 36.85 55.51 29.38 Z" />
<path fill="#3e3e3e" opacity="1.00" d=" M 202.09 45.86 C 202.87 43.50 203.83 41.23 205.37 39.26 C 211.23 40.74 217.25 41.49 223.14 42.85 C 224.44 43.32 226.37 43.43 226.69 45.10 C 226.90 47.86 226.25 50.58 225.83 53.28 C 229.96 55.14 234.60 56.13 238.21 58.96 C 240.23 62.83 237.25 66.97 235.25 70.20 C 229.88 77.30 225.15 84.83 220.05 92.11 C 217.84 95.11 217.28 98.86 216.67 102.43 C 213.01 124.17 208.71 145.80 205.23 167.57 C 207.29 168.58 210.00 168.91 211.33 170.99 C 211.40 174.87 210.34 178.64 209.70 182.44 C 206.54 199.95 203.34 217.45 200.26 234.97 C 199.70 238.88 195.63 240.65 193.63 243.72 C 191.13 246.54 191.82 250.48 192.07 253.90 C 190.24 254.88 188.42 255.85 186.61 256.83 C 187.58 261.76 188.41 266.72 189.52 271.61 C 190.56 276.94 194.39 281.10 195.85 286.28 C 191.17 283.68 186.09 281.57 182.00 278.07 C 178.36 272.65 176.24 266.36 173.16 260.62 C 164.61 265.27 156.32 270.58 149.51 277.59 C 146.78 280.86 145.10 284.83 143.18 288.58 C 149.87 286.58 152.19 279.29 157.84 275.81 C 162.20 273.05 166.64 269.47 172.00 269.22 C 175.57 269.15 176.31 273.14 177.28 275.76 C 171.68 282.41 167.80 290.24 164.23 298.11 C 162.98 300.44 162.15 303.30 159.73 304.69 C 153.19 308.76 145.87 311.78 140.30 317.26 C 135.76 321.08 132.02 325.69 128.20 330.20 C 122.15 336.93 113.90 340.95 105.94 344.93 C 103.05 346.30 100.90 348.72 98.87 351.12 C 102.62 353.44 106.52 355.50 110.27 357.82 C 111.93 358.89 114.04 360.28 113.69 362.58 C 113.14 369.77 111.57 376.85 110.92 384.03 C 110.33 391.37 111.76 398.70 111.07 406.04 C 110.68 409.60 110.47 413.22 111.08 416.78 C 112.15 423.65 112.70 430.62 114.30 437.41 C 119.04 457.42 124.52 477.24 129.58 497.17 C 130.71 501.82 132.79 506.15 134.87 510.43 C 138.20 510.40 141.52 510.39 144.84 510.33 C 147.92 503.67 151.40 497.20 154.57 490.58 C 159.57 480.63 163.43 470.06 169.85 460.88 C 172.48 456.90 177.74 456.77 181.69 454.82 C 203.43 444.94 225.09 434.89 246.85 425.06 C 249.83 423.64 253.27 421.96 254.31 418.55 C 257.31 407.48 252.83 396.04 254.89 384.92 C 256.24 379.41 262.21 378.28 266.83 376.82 C 267.18 374.55 268.09 372.13 267.10 369.90 C 265.46 365.83 263.75 361.54 260.33 358.62 C 255.73 354.61 250.96 350.78 246.69 346.40 C 242.35 342.06 235.96 338.64 235.36 331.83 C 233.97 324.97 240.55 320.51 242.27 314.51 C 243.17 308.05 242.23 301.51 242.74 295.03 C 243.80 283.16 247.10 271.39 253.17 261.08 C 256.67 254.94 258.43 248.06 260.29 241.30 C 262.02 235.02 266.48 229.66 267.07 223.05 C 267.68 218.70 266.72 213.95 268.92 209.95 C 271.25 205.39 276.76 203.77 279.31 199.39 C 284.14 191.21 288.29 182.57 293.95 174.90 C 300.36 167.54 307.67 160.50 316.88 156.82 C 324.34 152.91 332.73 151.44 341.02 150.56 C 360.09 149.57 378.65 154.88 396.81 160.01 C 403.77 161.70 409.76 165.77 416.11 168.90 C 422.38 171.90 427.23 177.27 430.88 183.08 C 434.93 191.47 436.67 200.81 437.34 210.05 C 437.98 229.52 431.63 248.20 426.34 266.67 C 430.13 269.01 434.85 270.63 437.24 274.62 C 438.58 278.82 438.76 283.48 438.10 287.83 C 435.89 291.55 432.44 294.32 429.59 297.53 C 422.24 305.56 414.68 313.39 407.38 321.47 C 404.57 324.59 401.38 327.99 397.01 328.64 C 393.79 328.71 390.31 324.47 387.46 327.43 C 380.34 333.25 376.99 342.04 374.63 350.64 C 373.23 356.25 374.39 362.02 374.82 367.67 C 378.66 370.99 383.21 373.59 386.50 377.51 C 388.64 381.55 388.79 386.30 389.83 390.69 C 411.67 399.72 433.55 408.66 455.44 417.56 C 458.51 418.96 462.35 419.64 464.26 422.73 C 471.72 433.87 479.61 444.73 487.25 455.75 C 495.65 468.08 504.99 479.82 512.00 493.04 L 512.00 512.00 L 0.00 512.00 L 0.00 510.40 C 11.57 510.41 23.15 510.42 34.72 510.39 C 29.75 470.26 24.61 430.15 20.14 389.96 C 18.46 379.79 20.04 369.53 20.53 359.33 C 24.37 358.30 28.44 357.82 32.02 355.99 C 33.85 350.61 34.40 344.63 32.49 339.18 C 29.96 331.26 29.96 322.76 31.39 314.63 C 33.52 302.47 36.39 290.40 40.71 278.83 C 43.44 271.36 48.41 265.01 51.63 257.77 C 54.19 252.96 56.23 247.80 59.45 243.38 C 64.02 240.12 70.03 241.84 74.88 243.55 C 76.05 240.50 77.28 237.00 80.47 235.50 C 84.94 232.98 90.46 233.99 94.45 236.95 C 95.16 233.40 96.02 229.39 99.34 227.33 C 102.56 224.72 106.86 225.60 110.57 226.32 C 111.30 219.83 112.91 212.57 118.77 208.76 C 126.34 203.64 135.88 205.41 144.33 206.56 C 145.35 203.57 146.08 200.38 148.03 197.83 C 151.67 197.58 155.70 199.85 159.06 198.07 C 159.94 195.05 159.97 191.88 160.22 188.77 C 160.57 180.29 161.63 171.87 161.77 163.38 C 163.95 162.68 166.22 162.33 168.52 162.19 C 169.06 157.86 169.39 153.50 169.59 149.13 C 171.71 115.40 173.98 81.68 176.05 47.94 C 176.33 45.94 176.21 42.30 179.13 42.43 C 186.85 42.99 194.41 44.89 202.09 45.86 Z" />
<path fill="#f4722b" opacity="1.00" d=" M 116.58 222.98 C 117.61 215.34 125.39 209.45 133.04 210.65 C 140.37 211.52 146.42 218.59 145.71 226.03 C 145.70 230.29 143.14 233.89 140.31 236.84 C 140.02 231.28 135.87 225.87 130.01 225.70 C 124.71 225.33 120.80 229.66 119.12 234.25 C 117.52 230.73 115.84 226.94 116.58 222.98 Z" />
<path fill="#f4722b" opacity="1.00" d=" M 276.35 218.22 C 278.22 213.70 283.25 211.09 288.05 211.57 C 299.74 212.18 311.17 215.16 322.23 218.88 C 335.23 224.25 348.72 229.26 359.78 238.23 C 364.34 242.04 368.30 247.62 367.61 253.86 C 367.15 259.31 366.76 264.78 366.14 270.22 C 365.70 275.70 362.16 281.08 356.91 283.00 C 350.92 284.72 344.19 282.50 339.86 278.15 C 332.52 270.60 324.26 263.54 314.40 259.54 C 311.34 258.21 307.93 257.68 305.06 255.94 C 301.87 251.79 300.37 246.21 295.79 243.19 C 293.58 241.88 290.89 240.68 288.27 241.33 C 283.93 243.70 281.98 248.69 278.03 251.48 C 274.39 251.75 270.76 251.07 267.16 250.56 C 267.74 245.23 269.77 240.17 272.66 235.68 C 275.94 230.42 274.88 223.98 276.35 218.22 Z" />
<path fill="#f4722b" opacity="1.00" d=" M 275.27 262.39 C 276.83 259.00 279.56 254.62 283.96 255.62 C 289.31 257.03 290.75 262.81 292.99 267.10 C 296.87 271.25 303.89 272.28 305.97 278.12 C 308.44 286.14 309.06 294.76 307.88 303.07 C 306.64 311.92 301.44 320.04 294.12 325.12 C 290.44 327.46 285.79 329.18 281.47 327.63 C 275.45 325.50 271.76 319.72 265.95 317.20 C 261.74 315.08 256.92 315.07 252.43 313.91 C 251.86 301.88 252.39 289.44 257.06 278.17 C 259.13 273.28 262.68 268.54 267.89 266.79 C 270.48 265.59 274.11 265.47 275.27 262.39 Z" />
</svg>
