<?xml version="1.0" encoding="UTF-8" ?>
<!DOCTYPE svg PUBLIC "-//W3C//DTD SVG 1.1//EN" "http://www.w3.org/Graphics/SVG/1.1/DTD/svg11.dtd">
<svg width="512pt" height="512pt" viewBox="0 0 512 512" version="1.1" xmlns="http://www.w3.org/2000/svg">
<path fill="#3e3e3e" opacity="1.00" d=" M 0.00 0.00 L 512.00 0.00 L 512.00 512.00 L 0.00 512.00 L 0.00 0.00 Z" />
<path fill="#f5e5c1" opacity="1.00" d=" M 69.83 16.27 C 68.88 14.51 69.34 12.63 70.49 11.10 C 104.79 32.31 139.37 53.05 173.65 74.29 C 187.76 83.03 201.60 92.20 215.81 100.77 C 218.91 96.27 221.07 91.25 223.19 86.25 C 229.25 74.72 233.65 62.43 239.17 50.65 C 241.31 51.82 243.40 53.10 245.25 54.70 C 260.79 67.94 277.11 80.22 293.18 92.78 C 296.96 95.58 300.45 98.72 303.85 101.95 C 298.82 108.41 293.86 114.93 289.20 121.67 C 283.26 115.59 276.73 110.14 270.04 104.92 C 262.24 97.76 253.63 91.44 246.77 83.30 C 247.04 90.27 245.02 96.99 243.81 103.77 C 241.71 115.19 239.31 126.55 237.23 137.97 C 191.27 107.44 145.40 76.77 99.34 46.38 C 102.00 53.67 104.22 61.16 107.89 68.03 C 117.10 86.21 126.57 104.26 135.24 122.71 C 143.18 139.61 151.31 156.42 159.17 173.35 C 129.59 169.76 100.09 165.37 70.48 162.10 C 70.51 162.75 70.57 164.05 70.60 164.70 C 77.19 168.85 82.27 174.95 88.75 179.28 C 106.16 191.23 123.43 203.40 140.99 215.14 C 136.91 215.18 133.31 217.25 129.55 218.54 C 122.80 221.01 116.13 223.72 109.30 225.97 C 102.79 218.10 95.28 211.12 88.37 203.60 C 69.52 183.80 48.98 165.70 29.62 146.42 C 27.23 144.74 29.21 141.14 31.91 141.76 C 43.28 141.79 54.63 142.57 66.00 142.69 C 82.82 143.02 99.66 144.44 116.46 143.13 C 100.85 100.87 85.41 58.55 69.83 16.27 Z" />
<path fill="#f4722b" opacity="1.00" d=" M 397.38 59.61 C 402.12 58.61 407.18 58.13 411.93 59.38 C 419.29 61.72 422.70 69.92 423.29 77.03 C 424.14 83.65 421.19 89.81 418.57 95.68 C 410.75 94.95 402.49 95.53 395.49 99.37 C 388.06 104.02 380.53 109.55 376.75 117.72 C 368.67 133.46 360.64 149.47 349.15 163.07 C 345.96 166.89 343.07 171.00 339.29 174.27 C 332.54 180.20 326.14 186.55 318.97 191.99 C 311.02 198.08 303.41 204.64 294.99 210.09 C 287.12 215.19 279.77 221.15 271.34 225.33 C 263.03 229.70 254.71 234.06 246.41 238.44 C 231.02 246.94 216.00 256.07 200.51 264.40 C 196.26 266.56 192.18 269.50 189.75 273.70 C 186.78 279.94 184.63 286.61 184.24 293.55 C 182.38 301.26 181.61 309.16 181.39 317.08 C 180.58 322.72 179.08 328.25 178.28 333.91 C 177.13 341.76 172.01 348.11 169.36 355.44 C 167.61 360.28 164.89 364.67 161.66 368.66 C 156.08 376.91 148.75 383.78 141.01 389.98 C 133.40 397.07 123.40 400.61 113.78 404.04 C 104.01 406.49 94.09 408.69 83.99 409.17 C 78.00 409.54 72.03 408.66 66.05 408.66 C 60.17 408.71 54.73 406.19 49.15 404.67 C 40.13 401.47 34.64 393.20 28.92 386.07 C 26.35 382.87 25.24 378.86 23.73 375.12 C 19.19 365.11 18.14 353.58 20.49 342.87 C 21.47 337.36 22.72 331.89 24.33 326.53 C 25.68 321.75 29.40 318.24 32.23 314.32 C 35.50 309.79 40.69 307.37 45.17 304.27 C 50.97 300.70 56.60 296.79 62.71 293.74 C 75.13 288.30 88.39 285.13 100.97 280.10 C 113.25 275.28 125.78 271.08 137.83 265.69 C 146.87 261.76 155.98 258.00 164.94 253.91 C 174.05 249.42 183.05 244.70 192.14 240.17 C 206.02 232.81 219.21 224.20 233.34 217.30 C 241.78 212.77 250.80 209.23 258.57 203.53 C 273.97 193.07 289.16 182.30 303.89 170.92 C 309.27 166.32 314.60 161.65 319.77 156.82 C 325.19 150.86 329.90 144.30 335.12 138.16 C 348.09 122.83 360.83 107.08 370.24 89.25 C 374.28 81.60 379.20 74.43 384.70 67.75 C 387.95 63.80 392.57 61.17 397.38 59.61 Z" />
<path fill="#f5e5c1" opacity="1.00" d=" M 406.45 106.72 C 411.36 105.67 416.90 105.80 421.09 108.90 C 425.67 112.31 426.50 118.45 427.07 123.74 C 427.60 136.50 427.86 149.28 427.66 162.05 C 426.61 172.93 426.45 183.99 423.46 194.58 C 418.92 215.60 413.18 236.35 406.98 256.94 C 403.56 265.93 400.82 275.19 396.95 283.99 C 390.65 295.51 383.61 306.61 377.05 317.98 C 373.63 324.31 368.45 329.37 363.91 334.87 C 358.03 341.65 352.40 348.66 346.37 355.32 C 337.48 364.43 328.36 373.32 319.43 382.40 C 315.93 385.98 311.82 388.85 307.85 391.87 C 294.50 401.83 281.31 412.02 267.89 421.88 C 260.27 426.70 253.38 432.95 244.68 435.81 C 238.06 438.19 231.70 441.70 224.55 442.22 C 216.37 442.98 208.25 445.07 199.99 444.22 C 192.75 443.48 185.40 443.95 178.21 442.83 C 169.66 440.52 160.80 439.03 152.68 435.40 C 145.45 431.37 137.22 429.35 130.31 424.73 C 127.09 421.97 127.86 416.51 131.48 414.41 C 145.82 405.69 163.40 402.66 176.06 391.10 C 179.34 387.72 183.12 384.67 185.67 380.66 C 189.65 372.56 192.61 363.93 194.45 355.09 C 195.34 346.74 196.72 338.31 195.79 329.90 C 195.03 321.95 195.46 313.96 195.21 305.99 C 195.00 300.25 196.40 294.64 196.63 288.93 C 196.89 281.70 202.42 275.93 208.30 272.39 C 227.22 262.00 245.57 250.59 264.84 240.84 C 272.55 236.57 280.71 233.06 287.87 227.85 C 296.68 221.66 305.94 216.08 314.31 209.26 C 318.01 206.31 321.75 203.39 325.48 200.47 C 333.61 194.34 340.79 187.09 348.46 180.42 C 359.00 168.99 368.14 156.30 375.76 142.75 C 379.58 135.53 383.26 128.24 387.11 121.04 C 388.76 117.87 391.50 115.48 394.20 113.22 C 397.86 110.38 401.77 107.51 406.45 106.72 Z" />
<path fill="#f5e5c1" opacity="1.00" d=" M 337.22 107.13 C 340.58 105.70 346.33 106.85 346.50 111.20 C 342.78 116.81 338.11 121.73 334.10 127.14 C 327.39 136.01 319.25 143.63 311.71 151.77 C 308.48 155.21 305.27 158.69 301.51 161.57 C 284.77 175.09 267.17 187.53 249.03 199.10 C 233.05 207.52 216.81 215.43 200.76 223.72 C 187.76 230.95 174.20 237.11 161.00 243.95 C 134.95 255.70 108.44 266.44 81.40 275.71 C 79.24 276.36 76.04 277.66 74.62 275.12 C 75.05 270.75 78.54 267.42 81.18 264.14 C 87.53 257.02 97.08 254.82 105.54 251.32 C 121.33 245.13 137.14 238.99 152.93 232.80 C 180.21 220.05 207.25 206.79 234.05 193.05 C 245.05 186.41 255.97 179.62 266.87 172.80 C 272.93 168.28 278.46 163.07 284.36 158.34 C 290.94 152.93 296.36 146.30 302.22 140.15 C 309.07 132.27 314.60 123.33 321.33 115.34 C 325.70 111.18 331.50 108.80 337.22 107.13 Z" />
<path fill="#f5e5c1" opacity="1.00" d=" M 428.59 257.68 C 443.68 280.13 458.66 302.67 473.63 325.21 C 458.03 328.39 442.14 329.96 426.46 332.66 C 425.25 332.96 424.06 333.31 422.89 333.69 C 441.26 371.41 459.81 409.04 478.27 446.71 C 480.32 451.37 483.17 455.71 484.73 460.57 C 482.75 462.02 480.23 461.83 478.02 461.10 C 438.80 449.42 399.55 437.86 360.34 426.16 C 360.41 449.68 360.90 473.19 360.90 496.71 C 325.23 483.34 289.58 469.90 253.95 456.42 C 258.69 453.54 264.01 451.75 268.66 448.72 C 273.06 445.39 277.12 441.63 281.44 438.20 C 305.14 452.24 328.44 466.97 351.95 481.33 C 347.43 453.09 342.58 424.90 338.04 396.66 C 381.34 413.60 424.70 430.42 468.01 447.36 C 445.59 404.69 423.11 362.05 400.70 319.37 C 420.25 319.17 439.79 318.84 459.33 318.62 C 445.36 308.37 431.53 297.94 417.57 287.68 C 419.19 284.22 421.13 280.84 421.88 277.05 C 423.21 270.31 426.25 264.10 428.59 257.68 Z" />
<path fill="#3e3e3e" opacity="1.00" d=" M 53.18 325.21 C 59.64 316.63 67.09 308.47 76.71 303.40 C 74.18 306.66 71.54 309.88 69.66 313.58 C 66.98 318.80 63.50 323.62 61.47 329.17 C 59.11 335.85 55.81 342.19 54.31 349.16 C 59.11 353.48 65.45 355.44 70.34 359.62 C 75.24 363.02 78.31 368.24 81.68 373.03 C 76.43 369.45 71.51 364.90 65.08 363.63 C 59.55 362.45 53.73 360.85 48.09 362.19 C 41.31 367.61 40.09 376.78 37.77 384.62 C 36.04 382.78 35.04 380.45 34.90 377.93 C 34.14 369.97 35.32 361.97 36.86 354.18 C 33.51 350.78 31.62 346.38 29.55 342.17 C 26.83 337.15 26.76 331.28 26.17 325.74 C 29.68 329.78 31.21 335.14 34.94 339.02 C 36.94 341.16 39.54 342.59 42.06 344.01 C 45.63 337.67 49.05 331.22 53.18 325.21 Z" />
</svg>
