<?xml version="1.0" encoding="UTF-8" standalone="no"?>
<svg
   xmlns:dc="http://purl.org/dc/elements/1.1/"
   xmlns:cc="http://creativecommons.org/ns#"
   xmlns:rdf="http://www.w3.org/1999/02/22-rdf-syntax-ns#"
   xmlns:svg="http://www.w3.org/2000/svg"
   xmlns="http://www.w3.org/2000/svg"
   xmlns:sodipodi="http://sodipodi.sourceforge.net/DTD/sodipodi-0.dtd"
   xmlns:inkscape="http://www.inkscape.org/namespaces/inkscape"
   width="1280"
   height="800"
   viewBox="0 0 1024 640"
   version="1.1"
   id="svg3180"
   inkscape:version="0.47 r22583"
   sodipodi:docname="assist_heavy_long.svg">
  <metadata
     id="metadata3268">
    <rdf:RDF>
      <cc:Work
         rdf:about="">
        <dc:format>image/svg+xml</dc:format>
        <dc:type
           rdf:resource="http://purl.org/dc/dcmitype/StillImage" />
        <dc:title></dc:title>
      </cc:Work>
    </rdf:RDF>
  </metadata>
  <defs
     id="defs3266">
    <inkscape:perspective
       sodipodi:type="inkscape:persp3d"
       inkscape:vp_x="0 : 263.75 : 1"
       inkscape:vp_y="0 : 1000 : 0"
       inkscape:vp_z="527.5 : 263.75 : 1"
       inkscape:persp3d-origin="263.75 : 175.83333 : 1"
       id="perspective3270" />
  </defs>
  <sodipodi:namedview
     pagecolor="#ffffff"
     bordercolor="#666666"
     borderopacity="1"
     objecttolerance="10"
     gridtolerance="10"
     guidetolerance="10"
     inkscape:pageopacity="0"
     inkscape:pageshadow="2"
     inkscape:window-width="1280"
     inkscape:window-height="738"
     id="namedview3264"
     showgrid="false"
     inkscape:zoom="0.5"
     inkscape:cx="573.76299"
     inkscape:cy="385.4321"
     inkscape:window-x="-8"
     inkscape:window-y="-8"
     inkscape:window-maximized="1"
     inkscape:current-layer="svg3180"
     inkscape:snap-page="true" />
  <path
     d="m 0,0 1024,0 0,640 L 0,640 0,0 z"
     id="path3182"
     style="fill:#3e3e3e" />
  <path
     d="m 794.13079,41.979144 c 8.41705,-2.138388 15.66634,4.595267 23.97724,4.853078 2.29006,2.638867 6.03603,5.171567 5.1109,9.205689 -0.83412,5.171567 -2.83602,10.100478 -3.63981,15.287211 5.74787,2.062556 14.46825,1.061611 17.13745,7.795256 0.83412,5.656878 -1.72891,11.086255 -3.18484,16.439811 -1.66824,5.095731 -3.23033,12.102371 -9.73649,12.693841 -4.88342,-1.09194 -9.44834,-3.2 -14.1346,-4.86825 -3.36683,6.87014 -2.97252,17.25878 -11.48057,20.15545 -9.88815,-2.42654 -21.97536,-3.27583 -28.32986,-12.39052 1.8654,-5.99052 3.70048,-11.981043 5.2474,-18.062566 -6.46067,-2.153544 -16.68247,-1.213266 -18.5782,-9.630322 -0.6673,-4.913744 1.63791,-9.615166 2.79052,-14.301422 1.62275,-5.004744 2.82086,-11.389578 8.4019,-13.482467 6.06635,-0.136489 11.63223,2.987678 17.2436,4.928911 2.79051,-6.157344 2.3962,-15.256877 9.17536,-18.6237 z"
     id="path3184"
     style="fill:#f4722b" />
  <path
     d="m 676.64073,61.967778 c 3.79147,-3.154511 9.17536,-1.698589 13.69479,-2.259722 5.2019,0.181988 12.07204,-1.546923 15.39337,3.761133 2.60853,5.080578 1.66824,11.0256 2.01705,16.530811 6.56683,0.04544 14.16494,-2.290056 19.53366,2.760189 1.00094,8.250233 2.69952,16.788622 0.98578,25.023701 -3.63981,7.03695 -12.60285,4.56492 -18.97251,5.23222 -0.0456,5.55071 0.78863,11.19242 -0.22749,16.68247 -2.51754,6.03602 -10.23697,5.61136 -15.66635,6.00569 -5.7327,-0.10611 -14.11943,1.56207 -16.89479,-5.03508 -0.95545,-5.36871 -0.78863,-10.8891 -1.66824,-16.27298 -5.65687,0.15166 -11.41991,1.04645 -17.01611,-0.0303 -3.16968,-2.85118 -4.10996,-7.26445 -4.30712,-11.34407 -0.25781,-6.991463 -1.68341,-14.908051 3.44266,-20.625596 5.80853,0.121333 11.60189,-0.363978 17.34976,-1.2436 -0.13649,-6.2635 -3.80663,-14.7109 2.33554,-19.184833 z"
     id="path3186"
     style="fill:#f4722b" />
  <path
     d="m 590.10424,98.259722 c 3.54882,-1.698589 7.97726,-5.1564 11.75356,-2.123233 3.92796,3.215167 5.71753,8.189581 8.15924,12.481521 5.23223,-2.12322 11.58673,-9.387677 17.03128,-4.33744 4.06445,5.18673 7.34028,11.13175 9.53934,17.34976 1.71374,6.96114 -6.11185,10.1308 -11.25308,12.1327 0.68246,5.79337 5.92985,10.52511 4.91374,16.47015 -3.85213,6.77914 -11.99621,9.53933 -18.7602,12.55734 -8.09856,2.5782 -10.19146,-7.6436 -14.18009,-12.29953 -5.24739,0.63698 -9.32701,5.2019 -14.7109,5.17157 -4.32227,-1.39526 -6.29383,-5.85403 -8.52322,-9.41802 -2.44171,-4.48908 -5.91469,-9.41801 -4.15545,-14.78672 3.74597,-3.44265 8.55355,-5.33839 12.9365,-7.8256 -2.25972,-5.29289 -7.46162,-10.60094 -5.36873,-16.69762 3.04835,-4.23128 8.34124,-5.99052 12.61801,-8.674878 z"
     id="path3188"
     style="fill:#f4722b" />
  <path
     d="m 953.7061,132.82276 c 10.8133,-15.59054 35.7915,-18.18389 49.3953,-4.83793 -9.873,-2.24455 -21.5962,-3.63981 -30.2256,2.86636 -4.3374,3.1545 -8.508,6.68814 -11.7232,11.01042 -3.473,4.61042 -4.1706,10.49479 -4.9896,16.03033 3.0787,3.18484 6.218,6.309 9.4787,9.31185 -2.9725,0.59148 -5.9299,1.2436 -8.8872,1.8654 -7.5071,-5.88436 -15.3934,-12.67867 -25.3574,-13.36113 -10.7677,-1.41043 -21.399,3.56397 -28.9668,10.9801 -8.0682,8.62937 -10.0701,21.35355 -7.5981,32.59146 1.2133,4.3981 2.9574,8.62939 4.2161,13.01232 -6.8246,-6.30901 -13.69477,-14.33175 -14.07391,-24.09857 -1.68342,-13.05783 6.29381,-25.76684 17.16781,-32.47015 8.1137,-5.6872 18.0777,-8.06824 27.8748,-8.32606 6.309,0.0759 12.1934,2.60853 18.1839,4.29194 0.8645,-6.49099 1.6834,-13.33081 5.5052,-18.86634 z"
     id="path3190"
     style="fill:#f5e5c1" />
  <path
     d="m 530.80567,130.45688 c 6.12701,0 10.66161,4.32228 15.2872,7.70425 8.44739,6.5365 13.11849,16.43981 18.38104,25.46351 5.96019,10.20664 9.76682,22.32417 7.65877,34.18389 -4.76208,8.1744 -12.04171,14.84739 -16.01517,23.46161 5.17157,20.64076 10.64645,41.26635 16.84929,61.63413 -11.45023,-1.57726 -23.05213,-1.48626 -34.4417,-3.56399 -7.03698,-24.37156 -14.96872,-48.54597 -21.2929,-73.09952 3.92797,-25.32702 9.22086,-50.50237 13.57347,-75.78388 z"
     id="path3192"
     style="fill:#f5e5c1" />
  <path
     d="m 938.4948,223.39337 c 5.0654,-11.82939 13.8312,-22.55166 26.3583,-26.76778 9.9791,-1.97156 22.6881,-0.40948 28.163,9.34219 -8.1289,1.1981 -13.9374,-6.76399 -22.036,-6.05119 -8.1289,1.06161 -14.4834,7.0218 -18.5024,13.83128 -6.0512,7.49194 -3.7915,17.75924 -3.0635,26.57061 -0.9555,-0.0152 -2.8815,-0.0303 -3.8521,-0.0454 -4.9593,-4.88341 -11.2986,-9.31184 -18.5479,-9.06919 -9.4028,-0.0454 -17.1223,6.14218 -23.8559,11.98104 -6.8702,5.67204 -8.9934,15.07489 -16.091,20.56493 1.1374,-11.98104 7.3251,-23.0218 16.4398,-30.7564 9.9033,-7.37061 22.6123,-11.60189 34.9877,-9.6 z"
     id="path3194"
     style="fill:#f5e5c1" />
  <path
     d="m 792.90234,212.09479 c 5.67205,-1.78958 11.5109,-3.01801 17.39527,-3.85213 2.98768,3.06351 5.74787,6.3545 8.25023,9.82748 -0.24265,4.79242 -0.39431,9.58484 -0.36397,14.39242 -1.30427,0.16682 -3.9128,0.53081 -5.21707,0.69763 -0.6218,-1.04645 -1.85023,-3.13933 -2.47203,-4.20095 -3.62465,0.54597 -7.0218,2.04739 -10.64645,2.47204 -2.88152,-1.03128 -5.56588,-2.50237 -8.34123,-3.76114 -0.24266,-1.51658 -0.48531,-3.04834 -0.7128,-4.56493 0.48531,-0.71279 1.45592,-2.13839 1.94123,-2.85118 0.0303,-2.7147 0.0759,-5.44455 0.16682,-8.15924 z"
     id="path3196"
     style="fill:#f5e5c1" />
  <path
     d="m 794.55542,216.55356 c 2.86636,-5.24739 9.47868,-4.79243 14.58958,-5.05024 4.68626,3.8673 7.41611,9.4635 5.97536,15.62085 -2.01706,-2.60854 -3.85214,-5.35355 -5.6872,-8.08341 -0.77346,-0.0758 -2.33555,-0.24265 -3.12417,-0.33365 -0.0758,1.13743 -0.22749,3.41232 -0.30332,4.5346 -2.98768,-3.54882 -7.08247,-5.47489 -11.45025,-6.68815 z"
     id="path3198"
     style="fill:#3e3e3e" />
  <path
     d="m 860.42083,221.74028 c 8.25024,-6.41516 19.39716,-8.62938 29.55827,-6.56681 6.2635,1.39525 10.9346,6.02084 14.4986,11.08625 -9.0692,-3.83698 -19.1545,-7.81043 -29.04266,-4.51944 -8.3109,1.78958 -13.46728,10.02465 -14.80188,17.91091 -1.22845,8.52322 2.82085,16.33364 5.23222,24.23507 -2.95735,-1.30427 -5.52038,-3.30617 -7.71944,-5.64172 -6.56681,-4.94406 -9.43317,-13.77061 -7.29477,-21.65686 2.10805,-5.50521 4.73174,-11.20759 9.56966,-14.8474 z"
     id="path3200"
     style="fill:#f5e5c1" />
  <path
     d="m 630.91561,237.93744 c 10.91943,-6.82465 24.25025,-6.59716 36.6711,-6.96113 6.79431,0.13648 14.55923,0.66729 20.03411,5.0654 4.6256,8.41706 5.88437,18.29005 6.73366,27.72322 -10.34312,-1.85024 -20.74692,-3.56397 -31.2872,-3.51849 -12.1782,-0.47013 -24.18958,1.97157 -36.03412,4.4891 -0.43982,-9.14502 2.74502,-17.83506 3.88245,-26.7981 z"
     id="path3202"
     style="fill:#f5e5c1" />
  <path
     d="m 793.94879,239.34787 c 1.98673,-1.83508 3.94313,-3.70048 5.9147,-5.55071 1.41042,1.56208 2.83601,3.1545 4.23128,4.76208 1.63791,0.68247 3.27583,1.38009 4.91374,2.06256 1.36493,-1.50142 2.71469,-3.01801 4.06446,-4.54977 1.80473,-0.36397 3.60947,-0.72795 5.42937,-1.09194 -1.09194,9.34219 1.15262,18.42654 1.83508,27.66257 -5.65688,1.33458 -11.46541,2.18387 -17.06161,0.0607 0.18199,-2.77535 0.34881,-5.55071 0.51563,-8.3109 -3.1545,-0.83412 -6.309,-1.65308 -9.4635,-2.47203 -0.16683,-4.18579 -0.28815,-8.38673 -0.37915,-12.57252 z"
     id="path3204"
     style="fill:#f5e5c1" />
  <path
     d="m 956.8758,252.96682 c 7.8559,-10.00948 21.3991,-14.46824 33.7744,-12.28435 4.3526,1.2436 9.5242,2.50236 11.7536,6.91564 2.9118,4.54976 3.3365,10.07013 2.4417,15.30237 -4.2767,-5.94504 -8.7659,-12.95167 -16.4398,-14.63508 -8.1289,-1.12228 -17.4863,-1.1981 -24.1138,4.42843 -7.0976,6.91565 -11.1317,16.51565 -12.7393,26.17631 -0.6825,-0.10622 -2.0626,-0.31848 -2.7602,-0.42464 -0.8948,-9.19052 1.5924,-18.71469 8.0834,-25.47868 z"
     id="path3206"
     style="fill:#f5e5c1" />
  <path
     d="m 796.73931,244.64076 c 1.03129,0 3.09385,0 4.12512,0 -0.0758,0.81896 -0.21232,2.44171 -0.28814,3.26066 -0.78863,-0.0454 -2.38105,-0.13649 -3.16968,-0.18199 -0.16682,-0.77346 -0.50047,-2.30521 -0.6673,-3.07867 z"
     id="path3208"
     style="fill:#3e3e3e" />
  <path
     d="m 719.69666,276.86824 c 1.80474,-11.45023 11.61706,-22.06635 23.74976,-21.74786 11.72322,-1.2436 22.56682,5.1109 30.65024,13.04265 11.41991,10.57061 16.27298,27.22275 13.63413,42.40379 -2.21422,9.08437 -8.84171,18.30521 -18.56303,19.89764 -1.75925,-1.68342 -3.04835,-3.7763 -4.41328,-5.7782 3.89763,-1.92607 7.50711,-4.36778 10.64645,-7.38578 -5.55072,-4.0038 -11.17726,-7.90142 -16.6673,-11.98105 1.2891,-1.48625 2.59336,-2.97251 3.89763,-4.4436 5.1564,4.06445 10.47962,7.93175 16.06066,11.38957 1.66825,-9.76682 0.80379,-19.86729 -3.36682,-28.90616 -4.79242,3.18484 -8.75071,7.46162 -13.52797,10.67678 -1.66824,-0.83413 -3.30616,-1.74408 -4.88341,-2.72985 4.79242,-4.51944 9.94881,-8.64456 14.7109,-13.19433 -8.73554,-8.59905 -21.45971,-17.12226 -34.07772,-11.61705 4.9744,8.03791 9.97914,16.07583 15.16587,23.99242 -1.30426,0.40947 -3.92796,1.25876 -5.24739,1.68341 -6.03602,-6.65783 -8.99337,-15.52986 -15.19621,-22.03602 -5.94503,6.17251 -7.14313,14.89289 -6.38483,23.08247 6.02085,0.15165 12.07204,0.0455 18.06256,0.68245 1.31943,2.36588 -1.65309,3.92797 -2.6692,5.74787 -4.94408,0 -10.7071,-1.89573 -14.93839,1.57725 -1.07678,-0.0607 -3.21517,-0.15165 -4.27678,-0.19715 -1.94123,-7.85592 -4.64075,-16.06067 -2.36587,-24.15925 z"
     id="path3210"
     style="fill:#f5e5c1" />
  <path
     d="m 827.93552,257.68341 c 5.09574,-1.27393 10.35829,-3.01801 15.66635,-1.8199 8.90237,1.60758 13.92227,10.19147 22.30901,13.02748 -3.03318,1.89574 -6.32417,3.41233 -9.96398,3.50332 -4.32228,-3.83697 -8.59906,-7.99242 -13.90711,-10.41895 -4.73176,-0.57632 -9.79716,0.77345 -14.01328,-2.09289 -0.0303,-0.54598 -0.0758,-1.63793 -0.091,-2.19906 z"
     id="path3212"
     style="fill:#f5e5c1" />
  <path
     d="m 786.09287,259.45782 c 3.41232,-1.59242 7.56777,-0.54598 11.26824,-0.94029 0.34881,4.79243 1.10711,9.5545 1.53176,14.34693 7.09763,5.86918 15.63602,9.63033 23.62843,14.10426 2.42654,1.89574 4.95924,-0.28815 6.88531,-1.71374 -6.32417,-3.68531 -12.73933,-7.29479 -18.71469,-11.52607 -0.12132,-0.43981 -0.34882,-1.2891 -0.47014,-1.72891 4.45876,-3.16967 9.34218,-5.65688 13.77062,-8.88721 8.32606,4.97442 18.19904,7.49194 25.20569,14.45309 -9.99432,5.6872 -20.76209,9.94881 -30.63508,15.8635 l -0.68247,-0.92511 c -0.47014,-4.45877 -4.41326,-7.74977 -8.73554,-5.44455 0.0152,1.98672 0,3.98862 0.0607,5.99051 1.74407,0.42465 3.48815,0.92513 5.21706,1.48626 0.0607,0.37914 0.19716,1.16778 0.27299,1.54692 -5.50522,3.38199 -11.34409,10.55546 -18.36589,6.80948 0.53081,-11.4199 -6.73364,-20.77726 -11.5109,-30.52891 -2.60853,-4.06446 -0.4398,-8.94787 1.27395,-12.90616 z"
     id="path3214"
     style="fill:#f5e5c1" />
  <path
     d="m 801.31941,265.90332 c 2.82085,0.30331 5.56588,1.03128 8.08341,2.38105 -2.41138,0.4398 -5.03506,3.39715 -7.44644,1.34975 -0.15167,-0.94029 -0.47015,-2.79052 -0.63697,-3.7308 z"
     id="path3216"
     style="fill:#f5e5c1" />
  <path
     d="m 644.09477,270.95356 c 10.96493,-4.59527 23.93174,-7.15829 35.07867,-1.66825 -2.0019,21.44455 -2.53271,42.99526 -4.47394,64.45498 -0.25781,5.09573 -6.43033,6.14218 -10.0398,8.18957 -6.6275,0.37915 -15.45403,-1.12228 -17.54693,-8.52323 -1.60758,-20.77725 -1.74407,-41.6455 -3.018,-62.45307 z"
     id="path3218"
     style="fill:#f5e5c1" />
  <path
     d="m 883.06349,276.33744 c 7.64361,-0.6673 14.89291,2.19905 22.18771,4.01896 15.7725,4.30711 31.818,7.70427 47.4388,12.58768 9.7972,2.82085 16.2882,12.60284 16.728,22.55165 -5.8085,-2.54786 -11.7232,-5.67204 -18.2597,-5.35355 -17.0313,0.53081 -34.1839,4.21611 -49.2133,12.46635 -18.41138,9.34218 -35.65497,21.14124 -50.09289,35.95829 -8.49289,7.35546 -15.59052,16.21234 -20.74692,26.20665 -19.51848,-6.14219 -38.96113,-12.49669 -58.52512,-18.54788 -4.51943,-1.41042 -9.19051,-2.51753 -13.40663,-4.76208 1.1981,-7.1583 6.49099,-12.55734 10.50995,-18.27489 12.96682,-17.00094 30.78673,-29.10331 48.01517,-41.32701 7.44644,-4.82274 15.62085,-8.3564 23.38578,-12.60284 13.46729,-5.7327 27.02558,-12.52701 41.97915,-12.92133 z"
     id="path3220"
     style="fill:#f5e5c1" />
  <path
     d="m 530.59334,287.81801 c 7.23413,-1.78958 14.55925,0.0303 21.7782,0.90996 28.43602,3.2 56.78105,7.21895 85.27773,9.88814 1.75924,13.74029 1.60759,27.84456 5.1564,41.28152 8.03791,4.12511 17.1071,8.1744 26.31279,5.89953 3.10901,-1.25877 5.73271,-3.51848 7.84076,-6.08153 2.54787,-2.91184 1.94124,-7.05212 2.54787,-10.61611 1.22843,-8.34123 1.30427,-16.77345 1.3346,-25.19051 10.82843,-0.12133 21.52038,1.7289 32.31848,2.18388 8.79621,1.51659 18.22939,0.0607 26.50995,3.97345 11.9507,6.67299 18.85118,18.80569 26.43412,29.64929 -10.14597,7.50713 -17.15261,18.7602 -20.70142,30.7564 4.79242,0.15166 9.6,0.19716 14.40758,0.28816 -0.091,2.88152 -0.15166,5.7782 -0.24264,8.67488 -12.95167,-1.57725 -25.90333,0.68246 -38.85499,-0.71279 -24.2654,0.0303 -48.5308,-0.43981 -72.7962,-0.57631 -19.42749,-0.10611 -38.80948,-1.33459 -58.23697,-1.04645 0.16682,-7.44644 -0.77346,-14.83222 -2.10806,-22.14218 -2.91184,-14.11943 -9.43317,-27.10142 -17.09194,-39.17345 -4.76209,-6.43033 -10.82843,-11.84456 -17.51659,-16.19716 -7.0673,-4.68625 -15.49952,-6.77915 -22.36967,-11.76872 z"
     id="path3222"
     style="fill:#f5e5c1" />
  <path
     d="m 490.10046,290.98768 c 11.22274,-1.69858 22.64264,-0.48531 33.57724,2.41138 14.52891,3.00283 28.61801,9.94881 38.36967,21.33837 7.67393,9.50901 12.34503,20.92891 18.32039,31.48437 -1.09195,1.09194 -2.19906,2.18389 -3.291,3.27583 -13.81612,-0.69763 -27.69289,0.33365 -41.47867,-1.00095 -33.07679,-0.19716 -66.15357,-0.50047 -99.23033,-0.68246 -0.43982,-15.43886 6.06634,-30.92323 17.68341,-41.12985 10.54027,-8.08343 23.23412,-12.66353 36.04929,-15.69669 z"
     id="path3224"
     style="fill:#f5e5c1" />
  <path
     d="m 798.27107,296.75071 c 1.92606,-2.27488 4.4891,-4.74692 7.61327,-2.89668 1.1071,2.16871 0.72796,4.65591 0.81896,6.99147 -1.34977,-0.0454 -4.06446,-0.12133 -5.41422,-0.16682 -0.75829,-0.98579 -2.25972,-2.94219 -3.01801,-3.92797 z"
     id="path3226"
     style="fill:#3e3e3e" />
  <path
     d="m 744.14406,302.46824 c 2.41136,-2.76018 4.76208,-5.56587 7.09763,-8.38672 2.10805,0.74312 5.09573,0.68246 5.62653,3.42749 -0.091,4.50426 -4.53459,7.09762 -7.0218,10.35829 -1.9109,-1.80474 -3.80663,-3.60948 -5.70236,-5.39906 z"
     id="path3228"
     style="fill:#f5e5c1" />
  <path
     d="m 982.1118,344.23507 c 2.4417,0.0303 4.8986,0.0759 7.3555,0.12133 8.0986,19.59431 9.9639,41.00853 10.9042,61.98293 0.3791,11.75356 -1.1829,23.40095 -2.6843,35.03318 -1.7593,29.33081 -10.9498,57.94881 -25.0085,83.65498 -10.2673,23.82559 -30.1801,41.75165 -51.0029,56.41705 -9.6,5.68722 -19.9583,11.0256 -31.0749,12.70902 -32.01514,-6.74883 -63.87864,-14.33176 -95.69666,-22.00569 -8.43223,-1.50143 -13.3308,-9.17536 -18.07773,-15.52986 -5.45971,-7.18863 -9.3725,-15.51469 -15.72701,-21.99052 -13.08814,2.13839 -26.34312,3.07868 -39.52228,4.42843 -2.04739,13.39147 -4.26161,27.0256 -10.98009,39.0218 -5.33839,12.57251 -15.22653,22.491 -26.1763,30.33176 -9.88815,6.11185 -21.88436,10.43408 -33.57725,7.7043 -6.93081,-1.83511 -13.72512,-4.20099 -20.35261,-6.946 -10.91943,-4.59527 -22.3545,-7.81044 -33.36493,-12.16305 -9.34217,-3.35165 -12.8,-13.83126 -15.84834,-22.33933 -1.8199,-4.23128 -1.06161,-11.4654 -6.82464,-12.55734 -16.97062,-2.47204 -34.22939,-2.22938 -51.21517,-4.59527 -6.87013,12.81518 -16.56113,25.6455 -30.86256,30.43792 -9.88814,3.60948 -20.64075,2.91185 -30.96872,2.56303 -15.77251,-2.68436 -31.8635,-9.5545 -41.20569,-23.15828 -7.58293,-11.75357 -12.07203,-25.58484 -12.49668,-39.59812 0.81896,-17.77441 7.03697,-35.30615 18.00189,-49.36492 3.16968,-3.71564 6.56684,-8.09859 11.90523,-8.29574 0.12132,2.86635 0.21232,5.7327 0.28814,8.59905 -10.57061,11.23793 -18.03222,25.84266 -18.41137,41.47868 0.0303,8.05308 -0.68246,16.47013 2.5327,24.08341 3.76114,8.4019 7.90143,16.94029 14.46825,23.53745 8.46255,7.11279 18.27488,13.10331 29.28531,15.16586 10.90427,0.81896 22.52132,-0.63696 31.80284,-6.83981 9.23601,-6.53649 16.10616,-16.16682 19.59431,-26.91943 21.41422,0.53081 42.67678,3.50332 64.07583,4.0493 1.44075,0.27298 3.68531,0.091 4.21612,1.8654 2.85118,14.63507 7.32511,31.78768 21.71753,39.15829 11.25308,4.89859 23.20379,7.97725 34.71469,12.2237 10.9346,4.12511 23.71943,3.8673 33.97157,-2.04739 14.83222,-8.70522 27.13175,-22.582 31.93933,-39.30996 4.74692,-11.45024 4.59526,-24.11374 4.23128,-36.27677 15.59052,-0.42465 31.04455,-2.92702 46.61991,-3.80664 3.1545,0.091 7.37061,-0.80379 9.23601,2.5327 7.81043,11.16209 15.87868,22.50616 26.81328,30.84739 2.4872,1.88057 5.62654,2.35071 8.55355,3.16967 27.13176,6.55166 54.33934,12.78484 81.59242,18.82085 16.00004,4.03413 30.77154,-6.14217 42.96494,-15.22654 11.1772,-7.37061 20.2919,-17.30426 28.5422,-27.75355 5.0199,-6.85497 8.599,-14.58957 13.0881,-21.7782 7.7801,-12.67867 11.8294,-27.11658 15.9394,-41.29667 3.9431,-13.17916 6.5364,-26.84361 6.3848,-40.64456 2.4114,-20.15544 0.7431,-40.47772 -0.8796,-60.61801 -2.0171,-9.85782 -4.2616,-19.80663 -8.7811,-28.87583 z"
     id="path3230"
     style="fill:#f5e5c1" />
  <path
     d="m 463.34784,354.03222 c 5.01992,-1.12228 10.16115,-1.34975 15.27205,-1.34975 0.21231,4.33744 0.39431,8.67487 0.51563,13.01232 l 0.84929,1.1071 c 0.12133,21.36873 2.94218,42.58579 3.51849,63.93934 1.54691,12.31469 1.04644,24.75071 2.65402,37.0654 0.0152,11.72323 1.62275,23.35546 1.9564,35.07868 -5.20189,-0.47014 -10.35829,-1.1981 -15.56019,-1.57725 -3.12417,-36.14028 -4.4891,-72.38674 -7.34029,-108.54218 -0.13648,-12.9365 -2.09288,-25.76682 -1.8654,-38.73366 z"
     id="path3232"
     style="fill:#f5e5c1" />
  <path
     d="m 439.62841,352.37916 c 5.06541,-0.0607 10.13081,0.0454 15.19621,0.28814 2.00189,41.73649 5.74787,83.36682 7.87109,125.08816 1.12228,7.78008 1.21328,15.65117 1.12228,23.5071 -3.53365,-0.50047 -7.03697,-1.04645 -10.55546,-1.56208 -3.41232,-42.20665 -7.43127,-84.36778 -11.01042,-126.57441 -0.87962,-6.91565 -1.44075,-13.87678 -2.6237,-20.74691 z"
     id="path3234"
     style="fill:#f5e5c1" />
  <path
     d="m 486.26349,353.75924 c 7.14312,-0.12133 14.27109,0.15166 21.41421,0.18199 0.34881,17.50143 -0.47014,35.07868 0.89479,52.5346 0.47014,32.66729 0.77345,65.34976 0.86445,98.01706 -5.0199,-0.25782 -10.02464,-0.86446 -14.95355,-1.8654 -0.31848,-27.08626 -2.88152,-54.05118 -4.07962,-81.07678 -1.54691,-22.58199 -2.56304,-45.20948 -4.14028,-67.79147 z"
     id="path3236"
     style="fill:#f5e5c1" />
  <path
     d="m 903.5526,354.63887 c 6.4455,-2.41138 13.5734,-4.39811 20.4284,-2.5782 14.4076,2.97251 24.8266,15.3327 30.2711,28.39052 12.2692,27.98103 11.9356,60.0417 4.8834,89.35734 -4.1554,21.05024 -12.4512,41.509 -25.6,58.58578 -8.9327,11.35925 -20.7924,21.67203 -35.4578,24.18958 -13.43697,2.19904 -26.60094,-5.59621 -34.19904,-16.28816 -10.47963,-14.90805 -14.66542,-33.21326 -16.28816,-51.09384 -1.97157,-30.07392 3.92796,-60.67867 16.81896,-87.90141 8.8872,-17.22845 21.00474,-34.38105 39.14314,-42.66161 z"
     id="path3238"
     style="fill:#f5e5c1" />
  <path
     d="m 513.78956,354.09289 c 5.56586,0.10611 11.14691,0.15167 16.71278,0.0759 -0.13648,13.90711 1.48626,27.73839 1.18295,41.66065 0.36398,17.18295 -0.0758,34.41138 1.3346,51.56399 0.28814,19.44266 0.5308,38.88531 0.69762,58.32796 -5.6417,0.0303 -11.32891,0.0607 -16.87962,-1.01611 -0.47013,-19.09384 0.19715,-38.23318 -1.25877,-57.29668 -0.36398,-20.74692 -0.48531,-41.49385 -0.80379,-62.2256 -1.00094,-10.34312 -0.84929,-20.73175 -0.98577,-31.09005 z"
     id="path3240"
     style="fill:#f5e5c1" />
  <path
     d="m 536.6142,355.03318 c 6.36967,-1.22845 12.81516,-0.31849 19.1545,0.59146 0.27299,38.21802 1.00094,76.42086 2.51753,114.59337 1.16778,12.49668 0.6673,25.0692 1.2436,37.59621 -6.20284,-0.27299 -12.42084,-0.65213 -18.63886,-0.81895 -1.1981,-24.91755 -1.45593,-49.85025 -1.7744,-74.79811 -2.29006,-25.66067 0.0152,-51.53365 -2.50237,-77.16398 z"
     id="path3242"
     style="fill:#f5e5c1" />
  <path
     d="m 562.01704,355.39716 c 5.94503,0.10622 11.90522,0.10622 17.85024,0.31847 0.5763,38.14219 0.0758,76.3147 1.68341,114.42655 0.091,12.99715 0.15165,25.99431 0.40948,38.9763 -5.36873,-0.091 -10.7981,0.28815 -16.07583,-0.74312 -0.92512,-18.25973 -0.59147,-36.58009 -1.04645,-54.87015 -1.34977,-17.21327 -0.74312,-34.51753 -1.47109,-51.76113 -1.44076,-15.40854 -0.77346,-30.90806 -1.34976,-46.34692 z"
     id="path3244"
     style="fill:#f5e5c1" />
  <path
     d="m 590.90803,382.69573 c 25.28153,-1.75924 50.72986,-0.5308 76.07204,-0.92511 0.40949,26.20662 0.33365,52.4436 0.0454,78.6654 -9.00852,-1.60759 -18.15355,-4.23129 -27.34407,-2.39621 -9.63033,0.83412 -19.83697,3.27582 -26.82844,10.41896 -6.71848,6.30901 -11.11659,14.7109 -13.67961,23.49194 -2.6237,0.0607 -5.2474,0.12132 -7.8711,0.19716 -0.31848,-36.4891 0.1365,-72.9782 -0.39431,-109.45214 z"
     id="path3246"
     style="fill:#f5e5c1" />
  <path
     d="m 675.57912,382.80189 c 32.43981,0.39432 64.87962,-0.0456 97.31944,0.25782 -5.27774,12.55736 -11.54124,24.82655 -13.9981,38.36967 -2.85119,18.07773 -3.59432,36.50428 -2.54787,54.77915 1.10711,10.78294 2.72985,21.53555 3.21517,32.39431 -15.43887,1.63792 -31.01423,2.33555 -46.33176,4.98958 -1.15261,-1.2891 -2.30521,-2.56304 -3.47299,-3.8218 -3.12417,-19.4275 -14.11943,-38.77915 -32.51564,-47.31754 -1.78957,-26.49479 -0.80379,-53.1109 -1.66824,-79.65119 z"
     id="path3248"
     style="fill:#f5e5c1" />
  <path
     d="m 912.3033,404.14028 c 6.7791,-3.07867 14.5592,0.0152 19.291,5.26256 7.1886,7.79527 9.6303,18.59337 10.8891,28.81517 1.1829,13.48247 -1.3649,27.13176 -5.7479,39.87109 -4.3829,11.43507 -11.9962,23.30996 -24.3412,27.05592 -8.3564,2.36588 -16.4853,-3.76113 -20.5194,-10.66161 -8.23511,-13.05782 -7.68914,-29.14881 -6.67303,-43.95071 1.54693,-11.28341 5.00473,-22.55166 11.19243,-32.18199 4.0796,-5.83885 9.0692,-11.63223 15.909,-14.21043 z"
     id="path3250"
     style="fill:#3e3e3e" />
  <path
     d="m 915.7156,415.69668 c 5.8389,-2.09289 11.7839,2.03223 15.0749,6.61233 6.9156,9.70616 6.9156,22.23317 6.1422,33.62275 -1.2588,10.93458 -4.5195,22.11184 -11.7839,30.6199 -4.2161,4.97441 -10.8891,8.81137 -17.5773,6.79431 -5.3232,-2.07773 -8.9175,-7.08246 -11.0559,-12.19336 -6.218,-16.5763 -4.0038,-35.60949 4.0796,-51.13934 3.4124,-6.08151 8.1896,-12.22369 15.1204,-14.31659 z"
     id="path3252"
     style="fill:#f5e5c1" />
  <path
     d="m 660.89856,475.81422 c 6.83981,-0.83413 14.40758,-0.81895 20.30711,3.27582 13.49763,8.67489 19.67014,24.94787 21.74786,40.23508 2.22938,22.218 -2.21422,45.98294 -16.12133,63.92417 -6.43033,8.28057 -16,15.30237 -26.85876,15.40853 -10.58578,0.77346 -20.06445,-6.38483 -25.61517,-14.87773 -7.94691,-12.45118 -11.13176,-27.57156 -10.34313,-42.23697 -0.36397,-14.72605 3.39716,-29.46729 10.38863,-42.38862 5.79336,-10.41896 14.68057,-20.06446 26.49479,-23.34028 z"
     id="path3254"
     style="fill:#f5e5c1" />
  <path
     d="m 451.07866,505.70617 c 44.26918,3.09383 88.50805,6.27866 132.79241,9.25117 -0.16683,7.30996 0.48531,14.69574 -0.74313,21.94503 -0.92512,5.01991 -6.15734,8.50805 -11.11658,7.85592 -36.68626,-3.70047 -73.43318,-6.82465 -110.1346,-10.34312 -2.59337,-2.56304 -5.83887,-4.82275 -6.96115,-8.44739 -1.95639,-6.59716 -3.07867,-13.42181 -3.83695,-20.26161 z"
     id="path3256"
     style="fill:#f5e5c1" />
  <path
     d="m 665.145,507.40473 c 4.36777,-0.89477 9.7365,-1.38009 13.31564,1.86541 7.18863,5.86919 9.91848,15.60569 9.6455,24.58389 0.21232,11.22275 -3.92796,23.15829 -12.90616,30.31659 -3.77631,3.13932 -9.11469,3.30616 -13.66446,2.19905 -4.18578,-1.7744 -7.1583,-5.56588 -9.16019,-9.52417 -4.83791,-10.03981 -4.47393,-21.89953 -1.04644,-32.33366 2.41137,-6.99146 6.77914,-14.05876 13.81611,-17.10711 z"
     id="path3258"
     style="fill:#3e3e3e" />
  <path
     d="m 668.70899,512.42464 c 5.47488,-1.34976 10.60093,2.89668 13.07298,7.44645 4.32227,8.64454 4.03412,19.06351 0.75829,27.99621 -2.09289,5.6872 -6.14217,11.10142 -12.0417,13.13364 -4.38295,1.77442 -9.28152,-1.03127 -11.96588,-4.4891 -5.03507,-7.35544 -6.50617,-16.95544 -4.03412,-25.509 1.66824,-7.78008 5.96018,-16.28815 14.21043,-18.5782 z"
     id="path3260"
     style="fill:#f5e5c1" />
  <path
     d="m 442.63126,517.79337 c 3.42748,5.44454 5.56587,11.52606 8.43223,17.25876 1.48625,3.7763 6.11184,3.70048 9.43317,4.64076 16.42464,2.03223 32.90995,3.57914 49.30427,5.85403 -2.24455,11.90521 -10.96493,22.3545 -21.83886,27.48057 -9.50901,4.74692 -21.41423,2.16872 -29.02749,-4.94408 C 444.9668,555.75356 440.6142,535.6891 442.63126,517.79337 z"
     id="path3262"
     style="fill:#f5e5c1" />
</svg>
