<?xml version="1.0" encoding="UTF-8" standalone="no"?>
<svg
   xmlns:dc="http://purl.org/dc/elements/1.1/"
   xmlns:cc="http://creativecommons.org/ns#"
   xmlns:rdf="http://www.w3.org/1999/02/22-rdf-syntax-ns#"
   xmlns:svg="http://www.w3.org/2000/svg"
   xmlns="http://www.w3.org/2000/svg"
   xmlns:sodipodi="http://sodipodi.sourceforge.net/DTD/sodipodi-0.dtd"
   xmlns:inkscape="http://www.inkscape.org/namespaces/inkscape"
   width="1280"
   height="800.00024"
   viewBox="0 0 1024 640.0002"
   version="1.1"
   id="svg2964"
   inkscape:version="0.47 r22583"
   sodipodi:docname="assist_demoman.svg">
  <metadata
     id="metadata3038">
    <rdf:RDF>
      <cc:Work
         rdf:about="">
        <dc:format>image/svg+xml</dc:format>
        <dc:type
           rdf:resource="http://purl.org/dc/dcmitype/StillImage" />
        <dc:title></dc:title>
      </cc:Work>
    </rdf:RDF>
  </metadata>
  <defs
     id="defs3036">
    <inkscape:perspective
       sodipodi:type="inkscape:persp3d"
       inkscape:vp_x="0 : 263.75 : 1"
       inkscape:vp_y="0 : 1000 : 0"
       inkscape:vp_z="527.5 : 263.75 : 1"
       inkscape:persp3d-origin="263.75 : 175.83333 : 1"
       id="perspective3040" />
  </defs>
  <sodipodi:namedview
     pagecolor="#ffffff"
     bordercolor="#666666"
     borderopacity="1"
     objecttolerance="10"
     gridtolerance="10"
     guidetolerance="10"
     inkscape:pageopacity="0"
     inkscape:pageshadow="2"
     inkscape:window-width="1280"
     inkscape:window-height="738"
     id="namedview3034"
     showgrid="false"
     inkscape:zoom="0.37"
     inkscape:cx="361.74387"
     inkscape:cy="395.48805"
     inkscape:window-x="-8"
     inkscape:window-y="-8"
     inkscape:window-maximized="1"
     inkscape:current-layer="svg2964" />
  <path
     d="m 0,0 1024,0 0,640.0002 -1024,0 L 0,0 z"
     id="path2966"
     style="fill:#3e3e3e" />
  <path
     d="m 300.73933,16.576404 c 1.48626,-0.788633 2.98769,-1.562086 4.47394,-2.350711 30.78673,61.725116 61.4673,123.510897 92.2237,185.251187 6.68815,14.11942 13.89195,27.9507 20.30711,42.19146 -5.00475,4.09479 -11.31375,6.30901 -17.7744,6.24834 C 362.13081,173.08825 323.30617,98.745129 286.84739,23.234224 c 2.24455,-1.091945 4.50427,-2.183891 6.74881,-3.275828 30.65024,63.256883 61.22465,126.544074 91.84456,189.816114 5.53555,10.94977 10.43412,22.35451 17.2436,32.5763 3.291,0.27298 6.20284,-1.47109 9.11469,-2.69952 C 374.67298,165.35366 337.83507,90.904369 300.73933,16.576404 z"
     id="path2968"
     style="fill:#f5e5c1" />
  <path
     d="m 622.81706,72.856979 c 4.07962,1.95639 7.41612,5.03506 11.04076,7.68909 -21.11089,37.399061 -42.50995,74.631281 -63.49952,112.106161 -2.39622,-1.36493 -4.77725,-2.74502 -7.12798,-4.17061 20.21612,-38.3545 39.64361,-77.11849 59.58674,-115.624641 z"
     id="path2970"
     style="fill:#f5e5c1" />
  <path
     d="m 521.41802,132.0039 c 2.54785,0.22748 5.1109,0.4398 7.65875,0.66728 -1.59241,18.47205 -2.95734,36.97442 -4.64075,55.43129 -2.50237,-0.27299 -5.01991,-0.54597 -7.52228,-0.80379 1.51658,-18.42654 3.10901,-36.85308 4.50428,-55.29478 z"
     id="path2972"
     style="fill:#f5e5c1" />
  <path
     d="m 627.41232,219.64749 c 32.7128,-28.07203 64.13649,-57.61516 96.27299,-86.33933 3.10901,3.26066 6.00568,6.71848 8.72038,10.32796 -33.30427,27.35925 -66.88152,54.4 -99.89763,82.10805 -1.69858,-2.03222 -3.41233,-4.06445 -5.09574,-6.09668 z"
     id="path2974"
     style="fill:#f5e5c1" />
  <path
     d="m 413.80095,217.96408 c 5.71753,-0.69763 11.82938,-1.47109 17.18294,1.2436 9.37251,4.07962 13.55829,14.30143 17.1526,23.1583 -2.35071,0.7583 -4.74691,1.3346 -7.18862,1.72891 -4.06445,-8.15924 -8.44739,-18.07773 -18.36589,-20.15546 -2.68435,-0.15165 -5.36871,-0.30331 -8.0379,-0.4853 -0.25782,-1.83508 -0.51564,-3.65498 -0.74313,-5.49005 z"
     id="path2976"
     style="fill:#f5e5c1" />
  <path
     d="m 371.94313,250.3584 c 0.47014,-6.68816 3.33649,-13.58863 9.34218,-17.06162 0.95545,1.62275 1.89574,3.2455 2.85118,4.88341 -3.21516,5.33839 -4.70142,11.81423 -3.18483,17.9564 1.74407,6.26351 6.17252,11.19243 9.29668,16.7583 -2.24454,1.53175 -4.4891,3.06351 -6.73365,4.59526 -5.85402,-7.8711 -13.16398,-16.62181 -11.57156,-27.13175 z"
     id="path2978"
     style="fill:#f5e5c1" />
  <path
     d="m 418.66919,234.90437 c 2.7147,-0.25783 5.32324,-1.06161 7.93176,-1.80474 2.71469,4.85308 5.47487,9.69099 8.15923,14.5744 -2.51752,1.01612 -5.03506,2.03224 -7.5526,3.04835 -2.89668,-5.2474 -5.76303,-10.50995 -8.53839,-15.81801 z"
     id="path2980"
     style="fill:#f5e5c1" />
  <path
     d="m 430.37725,254.80199 c 48.45498,-22.82464 108.8,-17.03127 151.99243,14.66541 31.60568,22.68815 53.83885,58.00948 60.23885,96.42464 7.38578,40.3564 -3.04835,83.09384 -27.05592,116.21612 -2.66919,-0.39432 -5.2019,-1.31943 -7.59811,-2.5327 12.8,-14.60474 20.41328,-33.12228 25.73649,-51.62465 4.51943,-16.87963 4.20095,-34.45688 3.50332,-51.7763 -3.45782,-33.59243 -19.44265,-65.72891 -44.05687,-88.85687 -21.26256,-20.38294 -49.06162,-33.81991 -78.21042,-37.97536 -35.3365,-5.29289 -72.58389,2.98768 -102.11185,23.17346 -34.59337,23.18863 -58.23697,62.05877 -62.37725,103.53744 -0.56114,8.58389 -2.15356,17.18294 -0.42465,25.75165 1.12228,27.41991 11.84455,53.67205 27.29858,76.08721 -2.15355,0.81896 -4.30712,1.62275 -6.46067,2.42654 -28.46635,-39.70426 -36.09478,-93.31564 -19.38199,-139.26825 13.30048,-37.79335 42.43413,-69.67203 78.90806,-86.24834 z"
     id="path2982"
     style="fill:#f5e5c1" />
  <path
     d="m 389.20189,251.05603 c 1.57726,-1.15261 3.13934,-2.32038 4.70143,-3.48815 3.36682,4.74691 6.67299,9.53933 9.78199,14.46824 -1.83508,1.72891 -3.65499,3.45781 -5.49004,5.18673 -3.07869,-5.35356 -6.0967,-10.72227 -8.99338,-16.16682 z"
     id="path2984"
     style="fill:#f5e5c1" />
  <path
     d="m 661.30806,275.10911 c 19.7308,-7.02181 38.15734,-17.21328 57.29667,-25.6455 2.15357,4.4436 3.65499,9.16018 4.91375,13.93744 -19.47298,6.27867 -39.23412,11.78388 -58.3583,19.07867 -3.018,-0.68246 -2.63885,-5.03507 -3.85212,-7.37061 z"
     id="path2986"
     style="fill:#f5e5c1" />
  <path
     d="m 504.40189,289.63802 c 8.47773,-2.36588 16.98579,-5.0654 25.79716,-5.80854 4.36777,-0.5308 9.06919,1.31944 11.08626,5.39906 6.00568,10.37345 12.02654,20.85308 16.13649,32.15165 11.23792,-1.21326 22.35451,-3.45781 33.31943,-6.21801 2.29005,-0.50047 4.67109,-1.09194 7.03697,-0.65213 5.33838,3.54882 8.03791,9.6455 10.76777,15.21138 3.62465,7.14312 6.64265,14.58957 8.78105,22.30899 1.62275,6.79432 5.53554,13.05783 5.09573,20.26162 -12.99716,3.04834 -25.69099,7.03698 -38.18768,11.70806 -0.15165,2.3962 -0.47014,4.86824 0.56113,7.1583 2.63887,7.58293 5.50522,15.16588 6.94598,23.09763 1.10711,8.91753 1.57725,17.9109 3.42749,26.73743 -19.42749,8.99337 -40.62939,14.01328 -61.84645,16.71281 -3.291,0.59146 -6.56682,-0.15167 -9.70615,-1.10712 -1.16778,-15.18103 -4.61043,-30.40758 -11.43509,-44.10237 -1.51658,-0.74312 -3.018,-1.48625 -4.51942,-2.22938 -10.26729,3.109 -20.64076,5.89953 -30.57441,9.99431 -5.99052,2.65403 -12.64833,1.72891 -18.88151,0.68247 -2.65403,-6.80948 -6.79432,-12.96683 -9.00853,-19.9583 -3.16967,-9.72133 -6.64266,-19.36683 -11.16209,-28.55734 -1.3801,-2.60853 -2.12322,-5.45972 -2.74503,-8.32607 16.28816,-9.19052 34.94218,-12.60284 52.38294,-18.94218 -2.24455,-9.691 -6.52132,-18.69952 -10.66161,-27.69289 -2.33555,-4.77725 -5.6417,-9.06919 -7.05213,-14.25592 11.61706,-4.20095 22.55166,-10.11565 34.4417,-13.57346 z"
     id="path2988"
     style="fill:#f4722b" />
  <path
     d="m 681.78198,313.84276 c 6.73366,-3.62464 14.51375,-1.31943 21.3384,0.75829 27.79905,5.47487 55.62843,10.76777 83.44265,16.16683 5.58105,1.27392 12.8455,0.81895 15.13554,7.34028 -2.12321,17.21327 -4.42843,34.41137 -6.65781,51.62464 -0.27298,3.32133 -3.09383,5.55072 -5.38388,7.61327 -6.47583,5.24739 -13.43697,9.88816 -19.63982,15.48436 -30.89288,-4.68625 -61.81611,-9.28152 -92.72417,-13.96776 -6.08151,-1.12229 -12.8455,-0.33365 -17.94123,-4.47394 0.0303,-21.14124 0.091,-42.28246 -0.0303,-63.4237 7.65876,-5.49005 14.83223,-11.6019 22.46066,-17.12227 z"
     id="path2990"
     style="fill:#f5e5c1" />
  <path
     d="m 664.73555,333.25508 c 4.85307,-3.2 9.96397,-6.00569 15.04454,-8.85687 0.92512,14.30142 2.25972,28.58767 3.23033,42.88909 0.47015,2.35072 -0.33365,5.73271 2.5327,6.73365 3.23034,1.31943 6.74882,1.62275 10.16115,2.30522 24.70521,4.44361 49.39525,9.00852 74.11564,13.49762 4.71658,0.81897 9.47866,1.57726 14.07392,3.03319 -4.83791,5.0654 -9.85781,9.93364 -15.1962,14.45307 -34.56303,-5.55071 -69.18673,-10.75261 -103.78009,-16.16682 -0.27299,-19.291 0.0757,-38.59716 -0.18199,-57.88815 z"
     id="path2992"
     style="fill:#3e3e3e" />
  <path
     d="m 242.69953,366.0892 c 2.27488,-0.89479 4.74691,-1.01612 7.15829,-1.30427 5.45972,15.25687 10.16113,30.8019 16.13649,45.86161 -0.65213,8.08342 -1.31943,16.18199 -1.45592,24.3109 -10.14597,3.71564 -20.03412,8.15924 -30.10426,12.04171 -11.5564,2.48721 -23.14314,4.86825 -34.82085,6.76398 0.0455,-23.5981 -0.25783,-47.21137 0.16681,-70.80947 14.42275,-5.32323 28.58769,-11.31375 42.91944,-16.86446 z"
     id="path2994"
     style="fill:#f5e5c1" />
  <path
     d="m 203.13175,443.22285 c 18.13839,-9.87298 37.55071,-17.36493 55.29479,-27.95071 0.5763,5.55071 0.80379,11.13176 0.90995,16.71279 -11.64739,4.38295 -22.70331,10.64645 -35.10901,12.7545 -7.26445,1.53175 -14.5289,3.1545 -21.79335,4.68626 0.0152,-2.09289 0.25781,-4.17061 0.69762,-6.20284 z"
     id="path2996"
     style="fill:#3e3e3e" />
  <path
     d="m 798.18009,445.64939 c 8.25023,-2.45686 16.6673,-4.3981 24.73553,-7.43127 -0.0757,22.03601 0.0607,44.05686 -0.0607,66.09288 -31.40856,9.0237 -62.57444,18.88152 -93.8768,28.28437 -1.74408,-1.45594 -4.26162,-2.50238 -4.62559,-5.03508 -4.56494,-15.57537 -9.46351,-31.04455 -13.99811,-46.61991 -1.22843,-3.33648 1.07678,-6.96113 3.71564,-8.81136 6.73366,-2.86636 13.4673,-5.76305 20.23128,-8.56874 21.39905,-5.53554 42.57062,-11.96586 63.87867,-17.91089 z"
     id="path2998"
     style="fill:#f5e5c1" />
  <path
     d="m 283.34408,440.08352 c 2.45687,-0.74314 5.03507,-0.50049 7.53744,-0.18199 5.41421,15.7725 11.54123,31.31752 16.81895,47.10521 -3.62465,6.59716 -5.73269,13.87678 -8.37155,20.89857 -33.22844,10.70711 -66.48722,21.35356 -99.74599,32 0.0303,-2.63886 0.0455,-5.27773 0.0758,-7.90141 2.68436,0.13648 5.41421,-0.0152 7.96208,-0.97062 29.36114,-9.52417 58.9346,-18.38105 88.20474,-28.14787 0.84929,-4.42843 3.51849,-8.90237 2.35071,-13.45214 -2.39621,0.0455 -4.71658,0.63697 -7.0218,1.22844 -30.48342,7.97725 -61.10332,15.45403 -91.58672,23.41611 0.0303,-17.13744 0,-34.27488 0.0152,-51.41232 27.92039,-7.53744 55.8256,-15.10521 83.76114,-22.58198 z"
     id="path3000"
     style="fill:#f5e5c1" />
  <path
     d="m 444.86067,463.54512 c 1.97155,-1.15259 3.74597,0.31849 5.49004,1.15261 6.91564,17.04645 13.19432,34.35071 20.06447,51.42749 -3.70049,3.63981 -8.99338,4.54976 -13.63413,6.47583 -23.47678,9.06919 -47.24172,17.39525 -70.74882,26.41896 -10.22181,5.08057 -21.8237,5.53554 -32.84929,7.70427 -5.71754,-15.9545 -11.4654,-31.89385 -17.18294,-47.84835 5.26256,-3.63981 9.20568,-8.79621 14.31658,-12.58768 31.49953,-10.93459 63.02939,-21.85402 94.54409,-32.74312 z"
     id="path3002"
     style="fill:#f5e5c1" />
  <path
     d="m 549.1564,472.00768 c 3.18483,-1.41042 6.46066,-2.59336 9.78199,-3.65497 32.15166,12.78483 64.12133,26.03982 96.24266,38.91563 3.03317,1.03129 5.41422,3.2 7.74976,5.32323 -12.87584,23.74976 -28.49669,45.92227 -42.13081,69.24739 -2.54787,0 -5.38389,1.04645 -7.58293,-0.68246 -28.01138,-17.50142 -55.94693,-35.13934 -83.97347,-52.59526 1.59242,-9.0692 0.69763,-18.76019 4.85308,-27.20758 4.33744,-10.13081 9.782,-19.70048 15.05972,-29.34598 z"
     id="path3004"
     style="fill:#f5e5c1" />
  <path
     d="m 714.07014,476.98208 c 6.70332,-3.16965 13.70995,-5.68719 20.59526,-8.43221 4.83792,17.72891 10.14597,35.35166 14.65024,53.17156 -7.0673,1.75924 -13.74028,6.03601 -21.18672,5.62654 -4.79243,-16.12133 -10.37347,-32.01517 -15.04456,-48.16682 0.24266,-0.54598 0.74312,-1.65309 0.98578,-2.19907 z"
     id="path3006"
     style="fill:#3e3e3e" />
  <path
     d="m 649.93365,475.31384 c 1.31943,-2.16871 2.63887,-4.32227 3.97346,-6.46066 13.42181,8.59905 26.8436,17.19811 40.25023,25.81232 -1.41041,2.10806 -2.80568,4.21612 -4.21611,6.33933 -13.27015,-8.6597 -26.63128,-17.19809 -40.00758,-25.69099 z"
     id="path3008"
     style="fill:#f5e5c1" />
  <path
     d="m 342.20284,510.14987 c 3.8218,-1.83508 7.30996,-7.53744 11.89005,-5.00474 6.77915,13.9071 12.67868,28.26919 19.13934,42.34312 -5.20191,1.47109 -10.40379,2.94218 -15.65118,4.24645 -5.2929,-13.80095 -10.38862,-27.66256 -15.37821,-41.58483 z"
     id="path3010"
     style="fill:#3e3e3e" />
  <path
     d="m 533.92986,514.21432 c 6.88532,2.69952 13.33081,6.33934 19.95829,9.6 24.20474,12.23886 48.51565,24.28057 72.69005,36.6256 0.15166,0.78862 0.47014,2.3507 0.6218,3.13933 -3.62464,4.76208 -6.62748,10.00948 -10.49479,14.57441 -1.1981,1.69857 -3.13934,0.13649 -4.4436,-0.47014 -27.22275,-17.06162 -54.24834,-34.45688 -81.51658,-51.45783 0.60663,-4.10995 1.8199,-8.09857 3.18483,-12.01137 z"
     id="path3012"
     style="fill:#3e3e3e" />
  <path
     d="m 276.06445,521.11479 c 6.99148,-2.19905 14.42275,-0.89478 21.62654,-1.24361 0.59147,0.77347 1.77441,2.30523 2.36589,3.07869 -0.0303,10.84359 -0.0607,21.6872 0.0152,32.5308 -0.54597,0.57631 -1.65308,1.75924 -2.21422,2.33554 -32.74313,-0.0303 -65.48625,0 -98.21422,-0.0152 0.0303,-3.18483 0.0606,-6.36966 0.15167,-9.53933 25.49383,-8.87204 50.85118,-18.10806 76.26919,-27.14692 z"
     id="path3014"
     style="fill:#f5e5c1" />
  <path
     d="m 443.95071,535.12806 c 3.39716,-1.34976 6.73365,-2.97251 10.3128,-3.7763 4.18578,0.25782 8.18956,1.62275 12.29952,2.36588 12.45119,2.56303 25.23602,2.86635 37.88436,2.21422 6.17252,-0.28816 12.25403,-2.0474 18.47204,-1.3801 2.0929,1.30427 4.15545,2.66919 6.14218,4.15545 -27.92038,7.62844 -57.70616,4.85308 -85.1109,-3.57915 z"
     id="path3016"
     style="fill:#f5e5c1" />
  <path
     d="m 709.41422,541.37641 c -0.21233,-2.39622 1.21326,-4.38295 2.24455,-6.41517 37.08056,0.21232 74.16114,0.0303 111.24173,0.091 0,18.79053 0,37.56589 0,56.3564 -36.88344,-0.50047 -73.79718,-0.21233 -110.66543,-0.13649 -2.04739,-0.48531 -3.45782,-2.09289 -2.92701,-4.26161 0.50047,-15.21138 -0.0607,-30.42275 0.10616,-45.63412 z"
     id="path3018"
     style="fill:#f5e5c1" />
  <path
     d="m 199.71943,562.68446 c 12.618,0.33366 25.25119,0.40947 37.8692,0.0758 2.59336,-0.59146 5.29289,1.68342 4.77725,4.41328 0.13649,12.78483 -0.0607,25.56966 0.0758,38.36966 -0.54597,0.5763 -1.65308,1.74408 -2.19905,2.32039 -13.10332,-0.0152 -26.19147,-0.0303 -39.27963,0 -0.77345,-2.88153 -1.41041,-5.8237 -1.30425,-8.81138 0.0606,-12.11753 -0.0152,-24.25024 0.0606,-36.36777 z"
     id="path3020"
     style="fill:#f5e5c1" />
  <path
     d="m 247.71943,570.2674 c -0.47014,-3.30616 0.40948,-8.4019 4.82275,-7.88625 39.49195,-0.182 78.98389,0.21231 118.46066,-0.21233 1.88058,-0.22749 4.68626,1.3346 4.35261,3.48816 -0.40948,13.4673 0.0152,26.93459 -0.36398,40.40189 -5.27773,1.41042 -10.76778,0.78862 -16.15165,0.87962 -34.36589,0.0152 -68.73176,-0.0455 -103.09764,0.0303 -2.29005,-0.0152 -4.5346,-0.37915 -6.77915,-0.74313 -2.4417,-11.81422 -0.65213,-23.99242 -1.2436,-35.95829 z"
     id="path3022"
     style="fill:#f5e5c1" />
  <path
     d="m 522.72227,568.02285 c 2.19906,-1.30427 4.39811,-2.59337 6.59716,-3.8673 11.35924,18.95735 22.73365,37.91469 34.12323,56.85688 -2.19906,1.27393 -4.41328,2.54785 -6.61233,3.8218 -11.32891,-18.95735 -22.68815,-37.89953 -34.10806,-56.81138 z"
     id="path3024"
     style="fill:#f5e5c1" />
  <path
     d="m 638.19527,597.62664 c 41.84265,0.40948 83.70046,0.22749 125.52795,0.10616 1.5166,0.80379 3.07867,2.36588 2.89669,4.24645 -0.31849,11.07108 -0.0758,22.17251 -0.28815,33.25878 -40.28057,0.53082 -80.59148,0.015 -120.87204,0.25782 -2.41138,-0.10619 -4.91375,0.182 -7.20379,-0.637 -1.31944,-2.63882 -0.182,-5.65687 -0.182,-8.43219 0.42465,-9.58486 -0.0303,-19.20002 0.12134,-28.80002 z"
     id="path3026"
     style="fill:#f5e5c1" />
  <path
     d="m 773.1564,599.49204 c 16.50048,-1.62275 33.16778,-0.33364 49.7441,-0.74312 0,12.23886 0,24.46255 0,36.70143 -15.2114,-0.0457 -30.42278,0.091 -45.61898,-0.0457 -2.32038,0.25782 -5.35356,-1.74406 -4.70143,-4.32231 1.10711,-10.49476 0.50048,-21.06537 0.57631,-31.5905 z"
     id="path3028"
     style="fill:#f5e5c1" />
  <path
     d="m 201.43318,614.52143 c 0.60663,-0.53081 1.78957,-1.60759 2.38104,-2.15355 34.42654,0.0607 68.83791,0 103.24929,0.0303 1.77441,2.0019 4.45877,3.57915 4.92892,6.43034 0.47013,5.52038 0.0758,11.07108 0.16681,16.62183 -37.01991,0 -74.02465,0.015 -111.04455,-0.015 0.27299,-6.97631 0.43981,-13.93747 0.31849,-20.91378 z"
     id="path3030"
     style="fill:#f5e5c1" />
  <path
     d="m 321.48626,613.08067 c 33.18293,-0.18199 66.36587,-0.0303 99.54881,-0.10616 3.35166,0.0152 8.15924,0.5308 9.23601,4.36777 0.50048,6.00569 0.0608,12.05688 0.18199,18.10807 -37.24739,0 -74.49477,0.015 -111.74217,-0.015 0.34882,-6.218 0.4853,-12.46636 -0.0758,-18.68437 0.95544,-1.22844 1.89573,-2.45687 2.85118,-3.67015 z"
     id="path3032"
     style="fill:#f5e5c1" />
</svg>
