<?xml version="1.0" encoding="UTF-8" standalone="no"?>
<svg
   xmlns:dc="http://purl.org/dc/elements/1.1/"
   xmlns:cc="http://creativecommons.org/ns#"
   xmlns:rdf="http://www.w3.org/1999/02/22-rdf-syntax-ns#"
   xmlns:svg="http://www.w3.org/2000/svg"
   xmlns="http://www.w3.org/2000/svg"
   xmlns:sodipodi="http://sodipodi.sourceforge.net/DTD/sodipodi-0.dtd"
   xmlns:inkscape="http://www.inkscape.org/namespaces/inkscape"
   width="1280"
   height="1280"
   viewBox="0 0 1024 1024"
   version="1.1"
   id="svg2"
   inkscape:version="0.48.1 "
   sodipodi:docname="achieve_progress2.svg">
  <metadata
     id="metadata98">
    <rdf:RDF>
      <cc:Work
         rdf:about="">
        <dc:format>image/svg+xml</dc:format>
        <dc:type
           rdf:resource="http://purl.org/dc/dcmitype/StillImage" />
      </cc:Work>
    </rdf:RDF>
  </metadata>
  <defs
     id="defs96" />
  <sodipodi:namedview
     pagecolor="#ffffff"
     bordercolor="#666666"
     borderopacity="1"
     objecttolerance="10"
     gridtolerance="10"
     guidetolerance="10"
     inkscape:pageopacity="0"
     inkscape:pageshadow="2"
     inkscape:window-width="1920"
     inkscape:window-height="1018"
     id="namedview94"
     showgrid="false"
     fit-margin-top="0"
     fit-margin-left="0"
     fit-margin-right="0"
     fit-margin-bottom="0"
     inkscape:zoom="0.6609375"
     inkscape:cx="466.00473"
     inkscape:cy="640"
     inkscape:window-x="-8"
     inkscape:window-y="-8"
     inkscape:window-maximized="1"
     inkscape:current-layer="layer1"
     inkscape:snap-page="true" />
  <g
     inkscape:groupmode="layer"
     id="layer1"
     inkscape:label="background">
    <rect
       style="fill:#3e3e3e;fill-opacity:1;fill-rule:nonzero;stroke:none"
       id="rect3026"
       width="1280"
       height="1280"
       x="0"
       y="0"
       transform="scale(0.8,0.8)" />
  </g>
  <g
     inkscape:groupmode="layer"
     id="layer2"
     inkscape:label="foreground">
    <path
       d="m 554.3,45.6 c -3.96421,0.0536 -7.96626,0.33125 -11.9,0.8 -17.74,3.36 -35.69,7.69 -51.45,16.85 -17.48,9.46 -33.9,21.49 -46.1,37.35 -11.22,13.06 -21.13,27.31 -29.35,42.45 -16.1,29.32 -20.63,64.35 -14.25,97.05 4.34,30.62 17.55,59.87 37.25,83.65 13.7,18.2 30.64,34.07 50.1,45.95 17.6,9.68 35.68,19.16 55.5,23.2 9.12,1.78 18.78,3.2 27.8,0.2 20.14,-6.16 39.42,-15.96 55.1,-30.2 15.9,-14.16 30.63,-29.95 42.25,-47.85 16.66,-28.92 29.96,-61.15 29.8,-95.05 -0.9,-11.16 -1.83,-22.29 -2.55,-33.45 -2.78,-16.58 -7.44,-32.86 -12.7,-48.8 C 674.9,118.15 664.76,98.08 647.9,84.1 634.62,73.04 620.75,62.12 604.45,55.9 588.72,49.01 571.47822,45.36774 554.3,45.6 z M 518,66.2 c 21.96054,0.47144 43.48125,9.2625 60.3,23.4 25.36,19.96 40.35,52.29 39.15,84.55 0.46,23.36 -9.54,45.68 -23.1,64.2 -14.38,16.38 -32.88,30.13 -54.3,35.45 -14.78,4.58 -30.5,4.11 -45.7,2.75 -15.76,-2.4 -30.21,-10.59 -42.25,-20.75 -20.78,-21.68 -31.52,-52.07 -30.5,-81.95 1.96,-30.4 13.18,-61.39 35.9,-82.45 12.1,-12.62 28.21,-20.71 45.25,-24.15 5.0625,-0.81375 10.18218,-1.15879 15.25,-1.05 z"
       id="path6"
       style="fill:#f4722b"
       inkscape:connector-curvature="0" />
    <path
       d="m 517.4,77.15 c -2.81461,-0.0402 -5.68,0.09 -8.5,0.4 -17.08,2.12 -33.32,9.78 -45.4,22.1 -21.44,19.84 -32.17,49.41 -32.35,78.25 0.22,28.56 11.88,58.33 35.6,75.35 18.02,13.3 41.94,15.91 63.4,11.35 21.3,-3.56 40.3,-16.06 54.4,-32.1 15.76,-19.68 24.66,-45.64 21.2,-70.9 C 603.35,137.08 590.9,113.63 571.5,98.35 556.38,85.9775 537.10227,77.43137 517.4,77.15 z M 500.1,90.7 c 8.54,4.6 16.38,12.84 15.3,23.3 0.58,13.52 -12.24,28.68 -26.6,24.1 -16.66,-6.26 -17.45,-31.3 -4.55,-41.8 4.3,-4 10.27,-4.82 15.85,-5.6 z m 49.6,11.2 c 12.2539,-0.23607 24.50626,9.55125 24.1,22.6 2.08,15.48 -14.24,27.89 -28.8,24.25 -11.72,-2.68 -20.27,-14.87 -18.15,-26.85 1.32,-8 6.88,-15.19 14.5,-18.15 2.67374,-1.2 5.52218,-1.79552 8.35,-1.85 z m -87.8,37.05 c 5.04282,-0.0319 10.11,1.955 13.35,5.9 10.88,12.34 6.01,34.82 -9.75,40.5 -7.24,3.66 -15.62,-0.8 -20.1,-6.7 -9.54,-12.6 -3.44,-33.66 11.5,-39 1.60501,-0.465 3.31906,-0.68937 5,-0.7 z m 108.6,19.35 c 13.63674,0.18071 26.57,13.40938 23.6,27.5 -2.04,14.88 -20.56,25.72 -34,17.9 -11.72,-5.28 -16.86,-20.83 -10.9,-32.15 2.5,-5.82 7.95,-9.77 13.75,-11.95 2.47813,-0.94063 5.02467,-1.33347 7.55,-1.3 z m -91.85,36.85 c 7.99312,0.34781 15.59501,6.76 17.35,14.8 5.38,14.9 -7.18,35.5 -24,32.3 -20.06,-5.74 -19.36,-37.35 -1.3,-45.25 2.54499,-1.39501 5.28563,-1.96594 7.95,-1.85 z m 54.3,9.3 c 4.50664,0.11114 8.95,1.25 12.65,3.95 11.84,7.68 13.56,26.77 3.1,36.35 -9.62,10.48 -28.65,9.01 -36.35,-3.05 -9.06,-12.44 -2.69,-32.57 12.55,-36.45 2.59501,-0.5475 5.34602,-0.86667 8.05,-0.8 z"
       id="path10"
       style="fill:#f5e5c1"
       inkscape:connector-curvature="0" />
    <path
       d="m 962.8,86.95 c -5.3775,0.11 -10.54,1.16 -14.6,5.15 -13.86,11.6 -25.93,26.12 -30.95,43.8 0.02,7.28 1.36,14.42 2.4,21.6 -26.2,9.9 -49.58,25.66 -72,42.2 -16.08,12.6 -29.26,28.5 -40.3,45.6 0.1,7.46 -1.25,15.56 2.75,22.3 4.18,6.5 11.1,10.42 17.3,14.7 -24.24,13.36 -47.78,28.26 -69,46.1 -6.54,5.58 -11.77,12.44 -17.25,19 -0.12,0.9 -0.35,2.72 -0.45,3.6 7.16,1.46 14.5,1.6 21.8,1.5 3.08,-2.14 6.14,-4.37 9.2,-6.55 5.98,-9.9 14.87,-17.41 23.35,-25.05 13.12,-11.76 27.94,-21.3 43.1,-30.2 15.26,5.8 31.31,11.08 47.85,10.7 10.14,0.3 20.35,-3.32 27.45,-10.7 0.44,-11.78 -9.63,-20.18 -20.05,-23.2 -18.92,-6.7 -38.47,2.37 -55.75,9.75 -5.04,-3.28 -10.94,-6.04 -14,-11.5 -1.72,-7.18 -0.76,-14.65 -0.7,-21.95 7.52,-9.4 14.14,-19.59 22.9,-27.95 16.84,-17.34 38.85,-27.96 59.25,-40.4 7.4,-4.5 15.72,-7.09 23.9,-9.75 10.1,3.6 22.69,9.34 32.25,1.3 4.34,-2.34 3.77,-7.44 4.35,-11.6 -9.54,-5.04 -20.41,-4.62 -30.85,-4.3 0,-6.88 -1.31,-14.28 1.85,-20.7 8.96,-18.36 24.1,-33.56 42.3,-42.8 -5.09,0.07 -10.7225,-0.76 -16.1,-0.65 z M 882,275.1 c 5,0.4 9.07,3.96 13.35,6.3 -0.14,2.34 -0.26,4.66 -0.4,7 -13.82,5.74 -28.52,0.96 -41.7,-4.1 8.38,-5.98 18.71,-8.02 28.75,-9.2 z"
       id="path12"
       style="fill:#f5e5c1"
       inkscape:connector-curvature="0" />
    <path
       d="m 304.7,156.9 c -8.28938,-0.0224 -16.5775,0.73312 -24.75,2.4 -34.84,8.42 -65.72,31.78 -83.2,63.1 -4.92,10.82 -8.74,22.17 -11.8,33.65 -7.62,28.16 -5.3,58.58 4.6,85.9 7.16,20.96 17.6,41.27 33.3,57.15 9.88,11.06 22.18,19.48 34,28.3 10.38,7.62 22.49,12.2 34.25,17.2 16.02,7.08 33.65,9.23 50.95,10.45 22.08,0.4 39.88,-15.93 51.9,-32.85 8.76,-14.36 18.07,-28.58 23.55,-44.6 6.64,-13.64 10.24,-28.65 11,-43.75 -2.72,-7.28 -9.66,-12.02 -13.2,-18.9 -5.54,-10.54 -11.29,-21.02 -16.15,-31.9 -12.1,-30.94 -17.81,-64.91 -11.65,-97.85 -23.62499,-17.78125 -53.19509,-28.22009 -82.8,-28.3 z m -33.6,40.75 c 12.47296,-0.26058 24.92875,3.33875 35.8,9.4 22.16,12.28 37.03,35.97 40.45,60.85 1.82,18.16 -0.32,37.45 -10.1,53.25 -10.56,19.62 -30.89,33.61 -53.05,36.25 -12.88,1.16 -26.19,-0.69 -37.95,-6.15 -22.54,-11.86 -39.41,-34.31 -43.55,-59.55 -3.9,-20.42 -0.29,-42.43 10.95,-60.05 10.32,-17.56 28.75,-29.98 48.85,-33.2 2.8575,-0.4875 5.72163,-0.73987 8.6,-0.8 z"
       id="path20"
       style="fill:#f4722b"
       inkscape:connector-curvature="0" />
    <path
       style="fill:#f5e5c1"
       d="m 273.75,206.2 c -4.89219,-0.10032 -9.78499,0.39 -14.6,1.55 -16.86,4.32 -32.09,15.44 -40.35,30.9 -18.58,30.82 -10.24,74.39 18,96.55 15.8,12.76 38.14,17.97 57.6,11.25 16.3,-5.04 30,-17.11 37.6,-32.35 16.14,-30.06 8.19,-70.4 -17.85,-92.4 -11.22,-9.49499 -25.72344,-15.19906 -40.4,-15.5 z M 289,217.8 c 10.67664,-0.13699 19.73499,11.9125 16.55,22.5 -1.48,11.5 -16.97,17.71 -25.65,9.65 -10.4,-8.06 -8.43,-27 4.45,-31.3 1.56,-0.55501 3.12477,-0.83043 4.65,-0.85 z m -41.8,5.5 c 9.25634,0.0203 18.15875,9.11374 17.2,18.75 0.66,10.68 -10.54,20.18 -20.9,16.5 -14.08,-4.72 -16.27,-27.04 -2.65,-33.7 2.05501,-1.06501 4.21392,-1.55467 6.35,-1.55 z m 67.7,30.6 c 9.9307,-0.1329 19.0475,10.23499 17,20.35 -0.44,10.68 -12.4,19.19 -22.4,14.15 -13.74,-6.06 -13.98,-29.32 1.1,-33.8 1.4225,-0.48 2.88133,-0.68101 4.3,-0.7 z m -82.35,11.85 c 10.27275,0.009 19.09938,11.80688 16.45,22.05 -1.14,10.4 -13.58,17.76 -22.9,12.1 -12.88,-6.08 -12.99,-27.63 0.65,-32.85 1.93437,-0.89374 3.89763,-1.30165 5.8,-1.3 z m 67.2,29.75 c 10.59346,-0.49006 19.56062,11.45501 17.15,21.75 -1.16,6.68 -6.15,13.3 -13.25,14.1 -10.8,2.04 -20.42,-9.04 -19.4,-19.4 0.22,-7.14 5.25,-13.87 12.15,-15.85 1.11938,-0.33187 2.25413,-0.5493 3.35,-0.6 z m -41.05,6.65 c 12.68877,-0.6221 22.04125,16.46626 14.9,27.45 -4.3,9.32 -18.18,11.18 -24.9,3.5 -9.46,-8.34 -6.63,-26.53 5.95,-30.15 1.36875,-0.46875 2.73738,-0.73565 4.05,-0.8 z"
       id="path30"
       inkscape:connector-curvature="0" />
    <path
       d="m 516.96,401.3 c 5.62,-1.1 11.26,-2.08 16.96,-2.66 9.66,5.32 19.36,11.42 30.54,12.82 3.82,-3.46 7.8,-8.52 13.68,-6.72 2.6,-0.28 3.56,2.22 4.62,4.08 2.64,5.02 4.26,10.5 5.96,15.9 -10.06,3.68 -20.6,0.68 -30.68,-1.22 -14.56,-2.78 -27.66,-9.94 -41.42,-15.04 0.1,-2.4 0.22,-4.78 0.34,-7.16 z"
       id="path46"
       inkscape:connector-curvature="0"
       style="fill:#f3722b" />
    <path
       d="m 826.55,407.05 c -5.15256,0.0355 -10.28374,0.3275 -15.35,0.8 -21.62,2.98 -42.95,9.96 -61.35,21.8 -11.92,8 -23.93,16.05 -34.55,25.75 -15.96,17.66 -30.32,37.22 -38.7,59.7 -12.92,26.78 -13.08,57.46 -10.9,86.5 7.72,32.7 21.75,65.02 45.25,89.5 7.28,8.5 18.87,10.11 29.05,12.95 14.02,3.82 28.69,3.55 43.05,2.65 10.26,-0.76 20.75,-0.4 30.65,-3.6 23.44,-7.6 47.26,-16.68 65.8,-33.5 14.16,-10.96 26.2,-24.21 37.7,-37.85 15.06,-22.72 27.44,-48.29 30.1,-75.75 0.12,-14.4 1.34,-29.15 -2.8,-43.15 -5.22,-18.64 -10.42,-37.71 -21.4,-53.95 -9.08,-13.26 -18.53,-27.17 -32.65,-35.55 -18.93125,-12.10626 -41.57224,-16.45368 -63.9,-16.3 z m -32.3,28.65 c 19.34,0.14 39.06,7.19 52.5,21.45 13.02,14.32 21.28,33.33 21,52.85 1.6,28.82 -10.97,56.86 -29.75,78.2 -18.3,20.48 -44.07,35.84 -71.95,37.3 -13.08,0.58 -26.74,-0.52 -38.5,-6.7 -12.36,-6.56 -24.55,-15.28 -30.45,-28.4 -12.72,-22.44 -13.46,-50.32 -5.2,-74.4 14.2,-43.62 55.49,-79.24 102.35,-80.3 z"
       id="path48"
       style="fill:#f4722b"
       inkscape:connector-curvature="0" />
    <path
       d="m 537.16,428.96 c 2.18,0.28 4.38,0.58 6.58,0.88 -2.68,8.9 -9.26,15.68 -14.46,23.14 -16.52,22.84 -34.6,45.02 -45.98,71.04 -1.22,7.8 -2.28,17.02 2.96,23.64 13.2,20.5 31.28,37.08 46.5,55.96 17.5,23.02 39.7,42.74 52.96,68.8 4.34,10.26 11.18,20 11.4,31.54 0.76,6.98 -0.42,13.92 -2.18,20.68 -8.64,10.66 -22.28,15.64 -35.04,19.48 -11.9,4.22 -24.02,8.1 -34.98,14.5 -21.9,11.42 -45.18,19.84 -67.38,30.6 -24.2,11.88 -49.18,22.92 -70.1,40.28 -14.86,9.2 -27.26,21.54 -39.46,33.9 -1.04,-0.06 -3.14,-0.18 -4.18,-0.24 -1.56,-2.14 -3.14,-4.24 -4.72,-6.34 0.02,-0.88 0.06,-2.66 0.08,-3.54 30.46,-28.48 67.2,-48.82 103.8,-68.28 14.24,-6.4 27.98,-13.92 42.54,-19.64 17.06,-8.26 35.26,-13.72 52.48,-21.66 11.24,-1.42 21.34,-7.5 30.82,-13.34 15.06,-13.4 11.7,-35.42 5.2,-52.28 -15.6,-27.92 -37.82,-51.34 -58.74,-75.28 -9.34,-11.32 -20.5,-21.04 -28.98,-33.08 -5.76,-8.44 -13.18,-16 -17.02,-25.6 -1.44,-8.54 -0.9,-17.32 0.38,-25.88 10.82,-20.02 22.28,-39.96 37.58,-56.96 9.72,-11 19.34,-22.16 29.94,-32.32 z"
       id="path50"
       inkscape:connector-curvature="0"
       style="fill:#f5e5c1" />
    <path
       d="m 410.84,448.9 c 4.76,-1.34 9.76,-2.56 14.72,-1.6 5.66,1.96 10.34,5.88 15.32,9.08 0.22,3.86 0.38,7.74 0.48,11.62 -14.58,19.3 -36,31.46 -52.42,48.9 -12.84,11.88 -24.2,25.36 -33.76,39.98 -2.3,6.74 1.96,14.22 8.3,16.9 20.14,9.52 40.72,18.14 60.86,27.66 15.7,7.34 30.84,18.12 38.6,34.06 2.88,7.8 0.12,16.38 -3.84,23.26 -18.06,21.9 -37.38,42.78 -58.1,62.22 -12.94,11.94 -22.46,26.88 -33.48,40.48 -9.38,11.36 -18.18,23.2 -26.68,35.24 -7.78,10.44 -16.02,21.66 -16.76,35.18 -1.5,6.74 -1.12,13.68 -0.9,20.52 6.12,14.34 17.9,25.1 30.04,34.4 12.36,8.82 25.58,16.64 40.06,21.44 -0.24,-1.76 -0.74,-5.32 -0.98,-7.08 3.4,-0.1 6.8,-0.16 10.2,-0.2 1.54,1.5 3.08,3 4.64,4.52 0.04,2.34 0.1,4.68 0.14,7.06 -5.1,0.94 -10.22,1.92 -15.38,2.5 -30.92,-8.52 -58.28,-27.86 -78.14,-52.84 -7.14,-9.76 -5.72,-22.78 -3.96,-33.98 7.44,-18.62 18.1,-35.88 30.26,-51.8 12.06,-15.94 23.76,-32.36 38.42,-46.06 11.96,-14 27.16,-24.78 39.1,-38.8 9.36,-11.18 20.16,-21.3 27.72,-33.86 7.18,-11.52 4.1,-27.94 -6.62,-36.22 -11.22,-10.5 -25.74,-16.06 -39.34,-22.7 -12.74,-5.32 -24.94,-11.84 -37.8,-16.88 -8.46,-3.68 -19.12,-7.9 -21.06,-18.06 0.88,-10.42 9.84,-17.42 15.52,-25.48 7.12,-10.16 16.5,-18.3 25.1,-27.12 12.16,-12.68 27.96,-21.54 38.66,-35.64 4.12,-4.94 3.8,-11.58 3.82,-17.62 -4.22,-1.68 -8.4,-3.5 -12.54,-5.34 -0.04,-0.94 -0.16,-2.8 -0.2,-3.74 z"
       id="path54"
       inkscape:connector-curvature="0"
       style="fill:#f5e5c1" />
    <path
       style="fill:#f5e5c1"
       d="m 793.15,446.65 c -4.96179,0.0339 -9.90626,0.5 -14.75,1.3 -47.92,9.38 -84.7,57.55 -81.3,106.25 1.58,20.26 11.72,40.34 29,51.6 17.06,11.54 39.27,12.82 58.75,7.5 43.22,-12.82 75.8,-56.12 74.3,-101.5 -0.68,-23.42 -13.45,-46.89 -34.55,-57.85 -9.62499,-5.33499 -20.53406,-7.37454 -31.45,-7.3 z M 780.45,457 c 5.79418,-0.12235 11.47374,2.71125 14.65,7.95 7.56,10.62 1.68,25.44 -8.2,32.3 -7.96,6.02 -21.2,5.89 -26.9,-3.15 -7.92,-12.4 -0.1,-29.63 12.7,-35.05 2.45,-1.33125 5.11629,-1.99438 7.75,-2.05 z m 45.9,17.8 c 6.33832,-0.26286 12.61499,3.50374 15.15,9.5 7.18,16.14 -9.24,36.99 -26.8,32.65 -11.14,-3.76 -13.91,-18.55 -8.35,-27.95 3.34,-6.14 8.93,-11.19 15.65,-13.35 1.42125,-0.51 2.88731,-0.78934 4.35,-0.85 z m -90.8,21.45 c 6.87,-0.13312 13.93,2.85 16.75,9.45 5.24,10.88 -0.68,24.03 -10.2,30.35 -7.78,5.58 -19.8,6.24 -26.1,-1.9 -11.1,-12.22 -1.26,-32.09 12.9,-36.75 2.09,-0.72 4.36,-1.10563 6.65,-1.15 z m 92.4,30.9 c 5.4776,-0.27957 11.0175,2.0175 13.85,7.05 10.02,16.06 -9.4,39.15 -26.9,33.25 -16.26,-8.04 -8.57,-32.59 5.85,-38.35 2.20626,-1.15626 4.71018,-1.82293 7.2,-1.95 z m -88.2,23.35 c 7.13006,-0.34614 14.54501,3.24875 16.95,10.35 5.62,16.18 -10.49,33.74 -26.85,31.8 -6.18,-1.54 -11.91,-6.39 -13.05,-12.85 -2.66,-12.32 6.22,-25.16 18.1,-28.4 1.5525,-0.5025 3.20459,-0.82013 4.85,-0.9 z m 47.2,13.05 c 8.75464,-0.4579 17.3375,7.34374 16.4,16.4 0.12,14.44 -15.41,28.51 -29.85,24.05 -10.38,-3.82 -11.9,-17.05 -7.2,-25.85 3.46,-7.54 10.94,-12.62 18.9,-14.4 0.5825,-0.10626 1.16635,-0.16947 1.75,-0.2 z"
       id="path56"
       inkscape:connector-curvature="0" />
    <path
       d="m 364.04,453.66 c 12.4,-4.96 26.16,-7.14 39.18,-3.28 -0.1,2.16 -0.2,4.34 -0.3,6.5 -7.04,7.3 -13.36,16.6 -23.9,18.9 -10.92,2.54 -22.32,2 -33.42,1.04 6.6,-7.34 13.58,-14.48 18.44,-23.16 z"
       id="path58"
       inkscape:connector-curvature="0"
       style="fill:#f3722b" />
    <path
       d="m 182.7,470.24 c 14.26,13.08 27.78,26.98 41.36,40.76 14.94,-2.38 30.1,-2.2 45.18,-2.6 -7.84,7.74 -15.94,15.32 -22.9,23.88 5.5,11.32 13.3,21.44 19.26,32.56 0.44,0.56 1.3,1.68 1.74,2.24 -15.08,-2.98 -29.7,-8.76 -44.96,-10.5 -10.96,6.28 -19.6,15.96 -30.78,21.96 -0.66,-9.92 -1.26,-19.88 -3.04,-29.66 -0.32,-3.3 -4.32,-3.48 -6.54,-4.92 -9.84,-2.02 -19.36,-5.34 -29.2,-7.36 -0.14,-0.84 -0.44,-2.54 -0.58,-3.38 11.76,-2.48 23.48,-5.16 35.02,-8.52 -2.3,-18.08 -3.74,-36.26 -4.56,-54.46 z"
       id="path62"
       inkscape:connector-curvature="0"
       style="fill:#f5e5c1" />
    <path
       d="m 317,633.24 c 7.32,-0.36 14.62,-1 21.84,-2.16 2.64,14.68 1.32,29.72 4.1,44.38 -7.62,1.88 -15.52,1.76 -23.3,1.6 -0.36,-14.64 -0.2,-29.36 -2.64,-43.82 z"
       id="path74"
       inkscape:connector-curvature="0"
       style="fill:#f5e5c1" />
    <path
       d="m 162.48,675.2 c 3.48,-8.16 8.64,-15.46 13.04,-23.14 44.2,26.04 88.6,51.72 132.98,77.44 -3.94,8.02 -8.52,15.7 -13.14,23.36 -44.22,-26 -88.92,-51.26 -132.88,-77.66 z"
       id="path76"
       inkscape:connector-curvature="0"
       style="fill:#f5e5c1" />
    <path
       d="m 747.3,712 c 9.64,1.56 10.88,11.72 14.26,19.1 -5.86,2.6 -12.02,7.24 -18.72,4.8 -10.98,-3.3 -20.66,-9.68 -30.7,-15.02 11.54,-0.08 23.1,0.86 34.66,-0.14 0.16,-2.92 0.32,-5.84 0.5,-8.74 z"
       id="path78"
       inkscape:connector-curvature="0"
       style="fill:#f3722b" />
    <path
       d="m 771.12,721.74 c 5.2,0.68 8.34,5.02 11.38,8.8 0.88,2.68 1.8,5.36 2.78,8.04 -1.28,6.94 -7,10.86 -12.86,13.82 l -1.8,0.16 c -15.84,5.08 -32.54,5.78 -48.88,8.16 -16.32,1.16 -32.36,4.74 -48.06,9.2 -16.76,4.9 -33.6,10.22 -48.58,19.42 -15.66,7.54 -30.3,18.48 -38.3,34.3 0.44,4.32 -2.2,10.16 1.98,13.26 10.32,8.02 22.62,13.16 35.1,16.82 10.7,5.68 22.68,8.56 33.12,14.76 7.28,4.08 13.44,9.76 19.52,15.4 0.74,3.46 1.52,6.92 2.34,10.38 -2.26,7.2 -4.72,14.78 -10.46,20.04 -11.32,10.64 -25.88,16.92 -40.36,22 -15.64,3.32 -30.28,9.62 -44.96,15.76 -0.14,2.38 -0.24,4.76 -0.32,7.16 5.54,0.06 11.1,-0.16 16.66,-0.44 -0.26,0.82 -0.8,2.44 -1.06,3.24 -1.1,0.72 -3.28,2.18 -4.38,2.9 -3.36,0.06 -6.7,0.1 -10.02,0.12 -3.04,-2.76 -6.08,-5.52 -9.1,-8.28 -0.06,-2.34 -0.1,-4.66 -0.14,-6.96 12.04,-10.76 28.14,-14.2 43.24,-18.38 15.52,-2.9 30.98,-9.92 41.14,-22.34 4.46,-7.14 9.28,-17.56 2.86,-25 -7.38,-8.08 -18.34,-11.22 -27.52,-16.7 -17.68,-10.02 -38.14,-14.88 -54.4,-27.34 -10.2,-6.76 -9.76,-23.06 -0.58,-30.48 13.6,-11.66 28.86,-21.2 44.42,-29.98 11.18,-6.7 23.44,-11.54 36.08,-14.74 14.88,-2.94 28.72,-10.28 44.12,-10.48 22.96,-5 47.38,-4.24 69.2,-13.84 0.38,-6.36 -0.48,-12.66 -2.16,-18.78 z"
       id="path80"
       inkscape:connector-curvature="0"
       style="fill:#f5e5c1" />
    <path
       d="m 88.24,783.56 c 15.08,9.6 29.4,20.32 44.16,30.4 4.38,3.66 9.82,0.6 13.98,-1.68 10.36,-5.88 21.1,-11.12 31.14,-17.54 -4.5,12.82 -10.76,24.92 -16.38,37.28 7.22,5.38 14.2,11.12 21.7,16.16 0.28,1.38 0.54,2.8 0.8,4.22 -12.56,1.42 -25.04,3.8 -37.32,6.8 -7.42,11.58 -14.56,23.6 -24.08,33.58 -4.26,-11.42 -8.56,-22.84 -13.32,-34.06 -4.96,0.32 -9.94,0.68 -14.84,1.58 -7.16,0.6 -14.34,0.9 -21.5,0.82 8.58,-9.2 20.04,-15.16 28.38,-24.54 -3.64,-17.8 -9.44,-35.14 -12.72,-53.02 z"
       id="path82"
       inkscape:connector-curvature="0"
       style="fill:#f5e5c1" />
    <path
       d="m 827.84,793.14 c 0.74,-0.2 2.24,-0.58 2.98,-0.76 0.36,1.4 1.04,4.24 1.4,5.66 2.52,13.78 5.98,27.38 9.22,41.02 17.42,-0.22 34.72,2.74 52.16,1.9 -0.06,0.84 -0.2,2.5 -0.26,3.32 -15.88,9.34 -30.76,20.28 -46.5,29.84 -0.42,15.54 0.76,31.08 0.26,46.64 -8.28,-9.7 -17.3,-18.7 -25.32,-28.6 -2.56,-2.92 -5.4,-6.54 -9.78,-5.64 -10.26,1.26 -20.04,5 -29.9,8.02 -1.06,0.22 -3.2,0.68 -4.28,0.92 -4.6,1.54 -9.2,3.02 -13.84,4.42 -2.58,0.7 -5.16,1.36 -7.74,2.04 0.18,-1.14 0.56,-3.38 0.76,-4.52 8.36,-11.8 17.58,-22.94 26.74,-34.12 -0.34,-0.7 -1.02,-2.08 -1.36,-2.78 -9.8,-7.28 -19.34,-14.94 -28.5,-22.98 -0.5,-1.58 -1.52,-4.72 -2.02,-6.3 3.52,-0.02 7.06,0.02 10.62,0.1 9.04,2.18 18.42,1.22 27.52,2.84 4.72,0.46 9.46,0.76 14.2,1.02 8.04,-13.92 16.38,-27.68 23.64,-42.04 z"
       id="path84"
       inkscape:connector-curvature="0"
       style="fill:#f5e5c1" />
    <path
       d="m 452.42,877.52 c 10.4,-8.3 20.88,-16.5 31.48,-24.56 4.42,5.86 8.9,11.7 13.66,17.32 -10,7.64 -19.74,15.64 -30,22.92 -0.62,0 -1.86,0 -2.48,0.02 -4.62,-4.92 -8.26,-10.62 -12.66,-15.7 z"
       id="path86"
       inkscape:connector-curvature="0"
       style="fill:#f5e5c1" />
    <path
       d="m 310.2,876.6 c -7.84,5.22 -14.61,11.79 -21.25,18.45 -11.34,11.92 -23.57,23.61 -30.95,38.55 -2.28,7.3 -3.07,14.98 -3.05,22.6 3.06,6.04 5.82,12.91 12,16.45 10.16,5.64 22.17,4.59 33.35,4.15 3.14,-1.62 6.32,-3.2 9.5,-4.8 -2.46,-4.6 -5.87,-9.24 -11.45,-9.9 -8.52,-1.3 -18.39,-2.7 -25.65,3.1 -1.98,-3.6 -3.96,-7.15 -5.9,-10.75 0.3,-6.68 0.96,-13.44 3.1,-19.8 4.76,-9.6 11.58,-18.07 19.1,-25.65 9.22,-9.56 18.09,-19.53 28.75,-27.55 -2.4,-1.76 -4.57,-4.09 -7.55,-4.85 z m -21.95,86 c 3.0875,-0.035 6.21,-0.04 9.3,0 1.88,3.22 3.55,6.56 4.75,10.1 -5.92,2.28 -12.24,2.49 -18.5,2.35 -2.84,-2.24 -5.73,-4.41 -8.65,-6.55 1.28,-1.9 2.59,-3.83 3.85,-5.75 3.08,-0.06 6.1625,-0.11499 9.25,-0.15 z"
       id="path88"
       style="fill:#f5e5c1"
       inkscape:connector-curvature="0" />
    <path
       d="m 452.42,944.94 c 17.78,-6.52 35.78,-12.42 53.7,-18.48 2.72,8.56 5.84,17.02 7.76,25.82 -17.86,4.82 -34.82,12.62 -52.74,17.04 -3.64,-7.86 -5.96,-16.22 -8.72,-24.38 z"
       id="path90"
       inkscape:connector-curvature="0"
       style="fill:#f5e5c1" />
  </g>
</svg>
