<?xml version="1.0" encoding="UTF-8" standalone="no"?>
<svg
   xmlns:dc="http://purl.org/dc/elements/1.1/"
   xmlns:cc="http://creativecommons.org/ns#"
   xmlns:rdf="http://www.w3.org/1999/02/22-rdf-syntax-ns#"
   xmlns:svg="http://www.w3.org/2000/svg"
   xmlns="http://www.w3.org/2000/svg"
   xmlns:sodipodi="http://sodipodi.sourceforge.net/DTD/sodipodi-0.dtd"
   xmlns:inkscape="http://www.inkscape.org/namespaces/inkscape"
   width="1280"
   height="1280"
   viewBox="0 0 1024 1024"
   version="1.1"
   id="svg2"
   inkscape:version="0.48.1 "
   sodipodi:docname="achieve_progress1.svg">
  <metadata
     id="metadata42">
    <rdf:RDF>
      <cc:Work
         rdf:about="">
        <dc:format>image/svg+xml</dc:format>
        <dc:type
           rdf:resource="http://purl.org/dc/dcmitype/StillImage" />
      </cc:Work>
    </rdf:RDF>
  </metadata>
  <defs
     id="defs40" />
  <sodipodi:namedview
     pagecolor="#ffffff"
     bordercolor="#666666"
     borderopacity="1"
     objecttolerance="10"
     gridtolerance="10"
     guidetolerance="10"
     inkscape:pageopacity="0"
     inkscape:pageshadow="2"
     inkscape:window-width="1920"
     inkscape:window-height="1018"
     id="namedview38"
     showgrid="false"
     fit-margin-top="0"
     fit-margin-left="0"
     fit-margin-right="0"
     fit-margin-bottom="0"
     inkscape:zoom="0.6609375"
     inkscape:cx="466.00473"
     inkscape:cy="640"
     inkscape:window-x="-8"
     inkscape:window-y="-8"
     inkscape:window-maximized="1"
     inkscape:current-layer="layer1"
     inkscape:snap-page="true" />
  <g
     inkscape:groupmode="layer"
     id="layer1"
     inkscape:label="background">
    <rect
       style="fill:#3e3e3e;fill-opacity:1;fill-rule:nonzero;stroke:none"
       id="rect3012"
       width="1280"
       height="1280"
       x="0"
       y="0"
       transform="scale(0.8,0.8)" />
  </g>
  <g
     inkscape:groupmode="layer"
     id="layer2"
     inkscape:label="foreground">
    <path
       d="m 482.06,103.62 c 27.38,-8.66 58.9,2.5 75.54,25.72 -10.58,-0.06 -21,-2.24 -31.56,-2.3 -28.74,-0.8 -57.46,3.32 -85.28,10.38 9,-15.88 23.6,-28.72 41.3,-33.8 z"
       id="path6"
       inkscape:connector-curvature="0"
       style="fill:#f4722b" />
    <path
       d="m 578.56,131.34 c 11.84,-7.34 25.32,-12.68 39.46,-12.38 22.84,-0.2 45.62,11.96 57.76,31.42 7,10.62 10.42,23.26 11.2,35.88 -5.52,-3.46 -10.62,-7.48 -15.84,-11.34 -27.9,-19.12 -59.24,-33.52 -92.34,-40.68 -0.06,-0.72 -0.18,-2.18 -0.24,-2.9 z"
       id="path8"
       inkscape:connector-curvature="0"
       style="fill:#f4722b" />
    <path
       d="m 369.58,135.08 c 17.68,-4.88 36.86,-1.74 52.84,7.02 -26.92,9.38 -53.26,21 -76.62,37.54 -9.38,6.4 -17.88,13.94 -26.9,20.82 0.02,-29.9 21.68,-58.02 50.68,-65.38 z"
       id="path10"
       inkscape:connector-curvature="0"
       style="fill:#f4722b" />
    <path
       d="m 508.65,142.55 c -10.46813,0.0269 -20.90501,0.615 -31.3,1.8 -70.64,8.24 -137.26,46.45 -179.6,103.65 -32.6,42.9 -50.95,96.22 -52.75,150 -1.52,44.5 8.31,89.31 28.45,129.05 26.14,51.64 69.73,94.25 122.15,118.85 71.42,34.42 158.39,33.92 229.55,-0.9 54.94,-26.5 100.09,-72.75 125.15,-128.35 31.68,-69.46 31.27,-152.78 -1.15,-221.9 -28.92,-62.48 -83.4,-112.66 -148.2,-136.1 -29.47501,-10.995 -60.89563,-16.18063 -92.3,-16.1 z m -2.9,57 c 62.1149,-0.45205 124.06563,29.96187 160.95,80.15 25.54,33.88 39.49,76.04 40.15,118.4 0.04,38.02 -10.25,76.2 -30.65,108.4 -27.24,44.54 -73.16,76.85 -123.9,88.65 -32.6,7.76 -67.02,7.15 -99.3,-1.85 -46.72,-12.7 -88.6,-42.82 -114.7,-83.7 -30.54,-46.52 -40.38,-106.15 -26,-159.95 8.04,-32.16 24.75,-61.75 46.95,-86.25 33.06,-35.24 79.01,-58.4 127.25,-62.7 6.40125,-0.72 12.82432,-1.10323 19.25,-1.15 z"
       id="path12"
       style="fill:#f4722b"
       inkscape:connector-curvature="0" />
    <path
       d="m 701.7,199.28 c 21.68,-2.32 44.24,5.86 58.66,22.36 19.62,20.44 22.54,53.06 10.22,78.02 -0.66,-0.28 -1.96,-0.88 -2.62,-1.16 -13.82,-37.74 -37.66,-71.24 -66.26,-99.22 z"
       id="path16"
       inkscape:connector-curvature="0"
       style="fill:#f4722b" />
    <path
       d="m 236.16,252.38 c 11.7,-26.34 41.4,-42.84 69.96,-39.08 -29.32,30.4 -50.86,67.8 -63.88,107.88 -13.4,-19.94 -16.12,-46.88 -6.08,-68.8 z"
       id="path18"
       inkscape:connector-curvature="0"
       style="fill:#f4722b" />
    <path
       d="m 500.95,220.4 c -13.85938,0.22851 -27.6625,1.6125 -41.1,5.3 -57.88,14.74 -106.67,59.83 -125.75,116.45 -9.58,26.84 -10.99,55.67 -8.55,83.85 5.94,38.58 23.05,75.94 51.25,103.3 21.08,21.98 48.13,37.85 77.25,46.55 62.82,18.92 135.61,1.16 181.05,-46.6 48.68,-47.3 64.9,-123.26 42.7,-187 -19.04,-56.64 -67.82,-101.77 -125.7,-116.55 -8.68,-1.82 -17.34,-3.99 -26.2,-4.75 -8.2875,-0.4275 -16.63437,-0.6871 -24.95,-0.55 z m 13.3,17.75 c 12.6,0.4 23.27,7.97 34.45,12.85 10.42,4.16 13.14,16.26 16,25.9 5.92,0.72 12.06,0.86 17.7,3 6.3,3.2 10.78,8.93 15.8,13.75 4.28,4.62 9.83,8.93 11.15,15.45 1.16,5.3 0.83,10.78 0.85,16.2 8.08,1.24 17.44,2.66 22.5,9.9 5.36,7.82 12.12,14.83 16.2,23.45 3.6,7.92 0.54,16.41 -0.9,24.45 10.72,6.96 16.98,18.36 24.7,28.2 7.74,10.1 3.65,23.13 1.85,34.45 -2.6,10.42 -2.83,23.34 -12.55,30.1 -28.42,22.3 -57.22,44.18 -85.9,66.2 -8.02,6.34 -16.86,15.12 -28.1,12.3 -16.82,-4.14 -30.66,-15.66 -46.9,-21.4 -16.68,-7.9 -33.62,-15.33 -49.8,-24.25 -8.12,-3.42 -17.41,-5.63 -23.35,-12.65 -7.82,-9.38 -15.34,-19.02 -23.5,-28.1 -5.92,2.16 -12.21,5.5 -18.65,3.6 -9,-1.42 -13.58,-10.07 -19.1,-16.25 -6.72,-8.44 -18.9,-9.97 -25.5,-18.45 -3.82,-7.54 -4.08,-16.37 -7.9,-23.95 -5.04,-10.5 -6.21,-23.33 -0.05,-33.65 8.26,-14.52 9.39,-33.92 23.85,-44.3 19.88,-12.68 39.59,-25.63 59.45,-38.35 12.26,-6.74 19.37,-19.26 29.15,-28.8 7.74,-7.46 13.09,-19.17 24.65,-21.25 14.64,-2.74 29,-7.28 43.9,-8.4 z"
       id="path20"
       style="fill:#f5e5c1"
       inkscape:connector-curvature="0" />
    <path
       d="m 476.74,263.34 c 10.36,-2.26 20.74,-4.52 31.14,-6.54 12.82,-3.26 23.2,7.04 34.46,11.24 3.22,8.04 5,16.74 9.46,24.24 7.46,3.08 15.86,2.04 23.52,4.32 6.16,4.54 10.82,10.76 16.32,16 0.16,8.36 -1.38,16.82 0.08,25.1 6.66,6 17.16,4.36 25.4,7.14 5.16,7.18 10.46,14.3 15.94,21.26 -1.34,9.92 -4.64,19.68 -4.66,29.74 1.34,6.04 9.46,4.22 14.12,5.18 5.86,7.76 11.5,15.68 17.36,23.48 -2.28,11.94 -4.66,23.86 -7.12,35.76 -33.54,25.7 -66.9,51.62 -100.48,77.28 -10.22,-5.06 -20.7,-9.56 -30.76,-14.96 19.52,-20.8 38.64,-41.98 58.12,-62.82 2.24,-2.36 5.58,-6.88 2.04,-9.56 -2.54,-3.5 -7.42,-1.04 -9.5,1.74 -20.22,21.98 -40.52,43.92 -60.74,65.9 -15.8,-7.06 -31.12,-15.14 -46.96,-22.14 21.4,-24.3 43.94,-47.58 65.68,-71.58 5,-5.68 10.92,-10.6 15.06,-16.96 2.42,-4.04 -2.38,-6.7 -5,-8.74 -9.58,8.44 -17.5,18.48 -26.36,27.62 -19.96,21.48 -39.74,43.14 -59.78,64.56 -5.36,-2.62 -11.32,-4.76 -15.14,-9.62 -7.64,-9.1 -14.92,-18.5 -22.74,-27.48 27.74,-29.38 55.94,-58.32 83.68,-87.68 2.88,-2.42 3.22,-6 0.82,-8.94 -6.96,-2.98 -11.1,4.62 -15.34,8.62 -24.34,25.4 -48.38,51.1 -73.1,76.12 -4.38,-11.98 -9.62,-23.58 -14.3,-35.42 8.88,-18.08 17.18,-36.44 26.08,-54.52 3.22,-7.44 9.66,-15.3 4.3,-23.36 -3.96,1.96 -7.9,4.4 -9.38,8.82 -10.82,23.12 -22.16,46.02 -32.86,69.2 6,13.82 11.64,27.8 17.46,41.7 -4.64,2.12 -9.28,4.28 -13.88,6.46 -7.32,-7.36 -12.5,-17.42 -22.4,-21.76 -4.2,-2.68 -10.82,-3.68 -11.92,-9.36 -2.6,-9.74 -5.72,-19.36 -8.54,-29.02 5.3,-12.68 10.64,-25.36 15.64,-38.18 1.36,-4.3 5.5,-6.48 8.98,-8.84 19.1,-12.18 37.94,-24.74 57.02,-36.94 4.42,-2.78 8.66,-5.9 12.12,-9.86 8.74,-9.9 17.64,-19.68 26.32,-29.64 2.86,-2.96 5.52,-6.76 9.84,-7.56 z"
       id="path24"
       inkscape:connector-curvature="0"
       style="fill:#f4722b" />
    <path
       d="m 775.28,318.34 c 19.04,6.32 35.72,20.44 43.26,39.24 5.46,11.96 5.58,25.48 4.28,38.34 -3.26,21.18 -17.84,39.14 -36.22,49.5 5.48,-42.54 1.72,-86.2 -11.32,-127.08 z"
       id="path26"
       inkscape:connector-curvature="0"
       style="fill:#f4722b" />
    <path
       d="m 198.14,403.9 c -2.4,-27.46 14.52,-54.66 39.4,-65.94 -9.58,39.96 -11.76,81.7 -4.74,122.26 -19.52,-11.96 -34.26,-32.94 -34.66,-56.32 z"
       id="path28"
       inkscape:connector-curvature="0"
       style="fill:#f4722b" />
    <path
       d="m 783.92,460.02 c 14.32,16.18 20.42,39.3 15.46,60.38 -6.36,29.16 -33.7,52.64 -63.8,52.96 22.08,-34.82 40.78,-72.5 48.34,-113.34 z"
       id="path30"
       inkscape:connector-curvature="0"
       style="fill:#f4722b" />
    <path
       d="m 227.38,514.12 c -0.06,-12.12 4.12,-23.72 9.06,-34.62 4.26,9.82 6.54,20.34 10.68,30.2 10.26,26.46 25.06,51.04 42.84,73.1 -18.24,-2.18 -35.88,-10.9 -47.32,-25.48 -9.84,-12.1 -15.04,-27.66 -15.26,-43.2 z"
       id="path32"
       inkscape:connector-curvature="0"
       style="fill:#f4722b" />
    <path
       d="m 480,687.12 c 73.64,9.2 150.32,-14.98 206.7,-63 48.34,88.54 96.9,176.94 145.3,265.42 -63.44,-15.3 -126.6,-31.9 -190.08,-47.08 -16.46,41.46 -33.76,82.58 -50.36,124 -11.16,-21.66 -20.02,-44.44 -29.28,-66.96 -19.7,-49.78 -38.86,-99.76 -58.5,-149.56 -7.74,-21 -16.94,-41.5 -23.78,-62.82 z"
       id="path34"
       inkscape:connector-curvature="0"
       style="fill:#f4722b" />
    <path
       d="m 297.14,749.72 c 13.54,-40.48 26.46,-81.18 40.36,-121.54 35.64,29.78 79.66,48.84 125.24,57.06 12.82,32.18 24.6,64.78 36.9,97.18 2.4,7.22 5.98,14.06 7.7,21.52 -0.1,5.56 -2.1,10.84 -3.42,16.2 -12.56,50.12 -24.84,100.34 -37.72,150.38 -28.72,-39.84 -57.38,-79.72 -86.16,-119.5 -46.64,24.46 -93.08,49.38 -140.04,73.26 18.3,-58.42 38.34,-116.3 57.14,-174.56 z"
       id="path36"
       inkscape:connector-curvature="0"
       style="fill:#f4722b" />
  </g>
</svg>
