<?xml version="1.0" encoding="UTF-8" standalone="no"?>
<svg
   xmlns:dc="http://purl.org/dc/elements/1.1/"
   xmlns:cc="http://creativecommons.org/ns#"
   xmlns:rdf="http://www.w3.org/1999/02/22-rdf-syntax-ns#"
   xmlns:svg="http://www.w3.org/2000/svg"
   xmlns="http://www.w3.org/2000/svg"
   xmlns:sodipodi="http://sodipodi.sourceforge.net/DTD/sodipodi-0.dtd"
   xmlns:inkscape="http://www.inkscape.org/namespaces/inkscape"
   width="1280"
   height="1280"
   viewBox="0 0 1024 1024"
   version="1.1"
   id="svg2"
   inkscape:version="0.48.1 "
   sodipodi:docname="block_cart.svg">
  <metadata
     id="metadata78">
    <rdf:RDF>
      <cc:Work
         rdf:about="">
        <dc:format>image/svg+xml</dc:format>
        <dc:type
           rdf:resource="http://purl.org/dc/dcmitype/StillImage" />
      </cc:Work>
    </rdf:RDF>
  </metadata>
  <defs
     id="defs76" />
  <sodipodi:namedview
     pagecolor="#ffffff"
     bordercolor="#666666"
     borderopacity="1"
     objecttolerance="10"
     gridtolerance="10"
     guidetolerance="10"
     inkscape:pageopacity="0"
     inkscape:pageshadow="2"
     inkscape:window-width="1920"
     inkscape:window-height="1018"
     id="namedview74"
     showgrid="false"
     inkscape:snap-page="true"
     fit-margin-top="0"
     fit-margin-left="0"
     fit-margin-right="0"
     fit-margin-bottom="0"
     inkscape:zoom="0.6609375"
     inkscape:cx="640"
     inkscape:cy="640"
     inkscape:window-x="-8"
     inkscape:window-y="-8"
     inkscape:window-maximized="1"
     inkscape:current-layer="svg2" />
  <rect
     style="fill:#3e3e3e;fill-opacity:1"
     id="rect3058"
     width="1024"
     height="1024"
     x="0"
     y="0" />
  <path
     d="m 229.24,27.76 c 10.16,-1.48 20.44,-1.32 30.66,-1.16 22.66,0.08 45.3,0.02 67.94,0.52 31.38,0.98 62.78,0.2 94.18,0.68 47.26,1.68 94.56,0.16 141.82,1.72 75.88,0.4 151.78,-0.18 227.66,0.3 77.3,134.02 154.82,267.92 232.5,401.72 l 0,160.5 C 948.86,721.58 873.84,851.22 798.94,980.9 c -3.6,4.92 -5.28,13.96 -12.92,13.24 -171.34,0.2 -342.72,0.04 -514.08,0.08 -12.98,-0.56 -26.18,1.3 -39.04,-0.92 -5.26,-6.48 -8.56,-14.24 -12.9,-21.32 C 146.58,845.46 73.7,718.64 0,592.28 l 0,-160.5 c 46.64,-80.6 93.34,-161.18 139.92,-241.82 5.44,-8.54 7.12,-20.02 16.14,-25.82 6.48,-4.28 12.78,-9.06 20.02,-12 4.6,-2 8.66,2.06 12.7,3.68 -15.4,27.62 -32.04,54.56 -46.1,82.9 -44.48,88.26 -89.46,176.26 -133.5,264.72 85.84,146.92 171.3,294.06 256.9,441.1 43.96,1.28 88.04,-0.86 131.9,2.58 9.38,0.04 18.68,-1.64 28.08,-1.46 33.26,1.28 66.56,0.62 99.84,1.06 58.02,1.12 116.08,-0.02 174.1,1.64 22.32,0.32 44.68,-0.38 67,0.82 C 848.06,805.46 929.84,662.14 1010.84,518.38 926.08,372.56 841.66,226.52 757,80.64 c -2.12,-5.36 -8.58,-3.46 -13.06,-3.92 -31.96,0.86 -63.98,-0.26 -95.9,1.72 -88.64,0.74 -177.3,1.04 -265.96,-0.24 -22,-1.04 -44.04,-0.7 -66.06,-0.82 C 304.68,79.34 299.92,67.4 293.2,60.82 286.58,53.28 276.54,50.56 267.82,46.28 254.96,40.1 241.62,34.92 229.24,27.76 z"
     id="path6"
     inkscape:connector-curvature="0"
     style="fill:#f3722d" />
  <path
     d="m 164.88,54.72 c 11.1,-8.6 22.42,-16.88 33.3,-25.74 30.06,11.76 60.06,23.7 89.74,36.38 -47.24,29.08 -93.58,59.6 -141.3,87.9 4.64,-30.3 8.16,-60.78 12.68,-91.1 0.24,-3.4 3.22,-5.44 5.58,-7.44 z"
     id="path8"
     inkscape:connector-curvature="0"
     style="fill:#f5e5c1" />
  <path
     d="m 214.8,169.86 c 0.66,-30.7 21.4,-58.26 48.14,-71.98 14.88,33.66 29.54,67.44 44.54,101.06 1.24,2.86 2.48,5.94 1.62,9.12 -8.94,46.84 -17.7,93.72 -26.6,140.58 -20.02,0.32 -39.98,2.08 -60,2.28 5.36,-44.42 8.84,-89.02 12.7,-133.58 7.98,-4.32 15.14,-11.92 24.82,-11.64 11.4,-0.16 22.82,0.26 34.22,0.02 -4.82,-5.04 -12.12,-4.78 -18.4,-6.32 -6.66,-1.08 -13.18,-3.34 -19.96,-3.2 -6.98,0.84 -13,5.08 -19.98,5.98 -5.26,-5.72 -7.98,-13.24 -12.82,-19.28 -2.76,-4.32 -7,-8 -8.28,-13.04 z"
     id="path10"
     inkscape:connector-curvature="0"
     style="fill:#f5e5c1" />
  <path
     d="m 312.02,160.4 c 137.64,-8.64 275.32,-17.08 413,-25.32 5.14,7.76 10.24,15.52 15.28,23.34 -10.84,0.26 -22.88,-0.94 -32.36,5.36 -9.1,7.34 -9.32,20.1 -13.1,30.32 -1.38,6.06 -7.1,9.46 -9.7,14.8 -2.2,6.12 -1.88,12.7 -2.18,19.1 -0.48,16.32 -2,32.6 -2.02,48.94 -9.34,0.68 -18.72,-0.74 -28.02,0.22 -19.48,8.02 -37.7,18.88 -55.7,29.8 -33.88,20.72 -67.88,41.24 -101.74,62 -2.52,-11.5 1.3,-25.6 -7.7,-34.78 -8.62,-8.36 -21.48,-5.54 -31.96,-3.24 -28.28,4.12 -56.6,7.98 -84.82,12.52 -13.48,2.74 -27.18,4.3 -40.82,6.1 -6.22,-7.76 -16.18,-9.52 -25.56,-10.08 7.14,-39.1 14.56,-78.14 22,-117.18 1.18,-7.28 5.2,-15.02 1.7,-22.26 -5.38,-13.24 -11.48,-26.18 -16.3,-39.64 z"
     id="path12"
     inkscape:connector-curvature="0"
     style="fill:#f3722d" />
  <path
     d="m 720.4,179.18 c 17.86,-0.88 35.8,-0.76 53.68,-1.06 5.58,-0.4 10.08,4.86 10.8,10.04 1.86,9.44 3.48,18.9 5.18,28.36 -26.12,-3.44 -52.3,-6.5 -78.42,-10.04 3.14,-9.02 4.82,-18.56 8.76,-27.3 z"
     id="path14"
     inkscape:connector-curvature="0"
     style="fill:#f5e5c1" />
  <path
     d="m 703.18,216.72 c 32.02,4.28 63.98,8.96 96.04,13.02 -6.1,23.86 -12.68,47.58 -18.9,71.38 -26.6,-5.08 -53.38,-9.38 -79.88,-14.92 -0.12,-23.18 2.06,-46.32 2.74,-69.48 z"
     id="path16"
     inkscape:connector-curvature="0"
     style="fill:#f5e5c1" />
  <path
     d="m 215.46,265.54 c 1.92,-2.06 3.64,-6.94 7.36,-4.12 -3.9,30.2 -9.78,60.16 -13.36,90.42 -18.62,1.66 -37.18,3.76 -55.8,5.42 19.88,-31.06 41.54,-60.92 61.8,-91.72 z"
     id="path18"
     inkscape:connector-curvature="0"
     style="fill:#f3722d" />
  <path
     d="m 810.16,266.1 c 11.9,17.12 23.26,34.64 34.24,52.38 -7.06,-3.76 -13.36,-8.76 -20.42,-12.52 -7.16,-3.32 -14.94,-4.98 -22.38,-7.5 2.58,-10.86 5.48,-21.64 8.56,-32.36 z"
     id="path20"
     inkscape:connector-curvature="0"
     style="fill:#f3722d" />
  <path
     d="m 657.84,299.3 c 8.12,-3.14 17,-2.42 25.52,-2.86 1.26,12.74 -1.7,25.12 -3.88,37.52 1.68,19.44 1.26,39.1 4.74,58.38 1.8,11.14 3.5,22.32 5.52,33.44 1.2,6.18 4.18,11.84 5.48,18.02 2.76,21.84 13.8,41.28 20.98,61.82 -12.76,-0.56 -25.54,-0.76 -38.3,-1.32 -29.54,-1.96 -59.44,-0.34 -88.62,-6.16 -8.28,-3.78 -15.94,-9 -23.34,-14.28 -1.04,-7.02 -0.72,-14.14 -0.88,-21.18 -2.34,-1.78 -4.64,-3.6 -7.18,-5.04 -10.24,-0.88 -20.46,1.08 -30.7,1.42 -7.18,-6.92 -14.62,-13.72 -20.58,-21.74 -6.56,-14.58 -4.94,-30.92 -7.24,-46.38 2.64,-1.9 5.24,-3.84 8.02,-5.56 39,-23.64 78,-47.34 116.96,-71.08 10.36,-6.66 22.04,-10.74 33.5,-15 z"
     id="path22"
     inkscape:connector-curvature="0"
     style="fill:#f5e5c1" />
  <path
     d="m 701.85,297.1 c -5.54,12.22 -7.86,25.38 -9.4,38.6 -5.94,30.56 1.89,61.36 7.05,91.4 10.26,26.86 23.99,52.34 33.75,79.4 19.62,0.4 39.25,1.12 58.85,2 6.64,-0.04 11.66,5.12 16.6,8.9 12.88,11.76 24.09,25.22 36.65,37.3 7.12,5.26 16.07,7.32 23.45,12.2 -0.2,-2.3 0.37,-4.33 1.75,-6.15 9.86,-15.24 20.82,-29.79 29.8,-45.55 -10.54,-11.3 -20.75,-22.95 -30.95,-34.55 -5.8,-7.64 -9.7,-16.58 -16.1,-23.8 -3.82,-9.88 -4.62,-20.68 -7.3,-30.9 -3.44,-12.14 1.65,-24.29 2.95,-36.35 1.46,-12.84 9.07,-23.64 13.95,-35.3 -13.96,-9.08 -27.82,-18.32 -41.7,-27.5 -7,-4.8 -15.36,-6.62 -23.3,-9.1 -10.74,-3.12 -21.12,-7.48 -32.2,-9.2 -21.32,-3.6 -42.51,-7.92 -63.85,-11.4 z m 4.5,9.85 c 3.9,4.52 9.23,9.94 6.95,16.5 -1.14,3.58 -5.42,2.5 -7.9,1.2 -4.48,-5.38 -0.87,-12.06 0.95,-17.7 z m 9.2,97.25 c 0.78,3.6 2.45,7.28 1.45,11 -1.44,3.82 -5.67,5.2 -8.85,7.2 -1.06,-4.92 -3.03,-10.29 -0.75,-15.15 1.44,-3.14 5.39,-2.25 8.15,-3.05 z m 31.05,78.3 c 1.38,6.54 3.54,14.64 -2.2,19.8 -1.54,2.88 -5.17,2.94 -7.05,0.4 -2.8,-4.18 -4.66,-10.54 -1.6,-15 3.38,-2.18 7.19,-3.56 10.85,-5.2 z"
     id="path24"
     style="fill:#f5e5c1"
     inkscape:connector-curvature="0" />
  <path
     d="m 330.28,369.6 c 47.56,-6.64 94.86,-14.96 142.44,-21.32 2.68,49.52 4.76,99.06 6.9,148.62 -41.9,-1.54 -83.78,-3.28 -125.68,-4.64 -4.42,0.66 -3.72,-4.48 -4.66,-7.26 -6.34,-38.46 -12.96,-76.9 -19,-115.4 z"
     id="path28"
     inkscape:connector-curvature="0"
     style="fill:#f5e5c1" />
  <path
     d="m 178.22,367.9 c 43.1,-2.34 86.18,-5.18 129.3,-7.06 4.2,14.74 8.56,29.46 12.5,44.28 -60.98,3.48 -122,6.18 -183.02,9.08 -1.44,-9.5 -2.58,-19.02 -4.06,-28.48 5.12,-5.22 9.68,-11.08 15.56,-15.46 9.74,-1.94 19.84,-1.34 29.72,-2.36 z"
     id="path30"
     inkscape:connector-curvature="0"
     style="fill:#f5e5c1" />
  <path
     d="m 856.32,415.9 c 2.5,-17.76 4.38,-38.54 19.52,-50.52 9.54,9.7 16.46,21.54 24.72,32.28 6.8,8.5 7.94,19.7 12.24,29.4 4.62,11.32 11.58,23.38 7.64,36 -4.06,13.2 -4.6,28.3 -14.5,38.92 -5.84,3.74 -9.48,-3.42 -12.68,-7.08 -10.34,-14.34 -20.84,-28.64 -30.14,-43.64 -3.2,-11.52 -5.84,-23.42 -6.8,-35.36 z"
     id="path32"
     inkscape:connector-curvature="0"
     style="fill:#f5e5c1" />
  <path
     d="m 223.96,426.46 c 27.34,-2.5 54.62,-5.34 81.94,-8.04 -0.16,24.86 -0.18,49.72 0,74.6 -35.78,-0.56 -71.56,-0.82 -107.32,-1.74 6.76,19.58 3.04,40.58 5.56,60.78 2.9,16.68 4.22,33.62 4.54,50.54 -4.72,-8.84 -6,-18.9 -8.98,-28.34 -10.7,-39.42 -22.06,-78.64 -32.68,-118.08 14.72,-8.92 29.22,-18.22 44.16,-26.78 3.86,-2.3 8.44,-2.46 12.78,-2.94 z"
     id="path36"
     inkscape:connector-curvature="0"
     style="fill:#f5e5c1" />
  <path
     d="m 106.14,429.92 c 1.84,-3.08 4.16,-5.82 6.32,-8.66 1.44,4.22 0.84,10.5 6,12.28 6.62,2.32 13.82,2.08 20.7,3 12.42,45.48 24.46,91.08 37.08,136.5 -6.4,-2.28 -13,-3.88 -19.68,-4.98 -7.7,21.12 -16.26,41.96 -22.98,63.42 39.06,21.8 78,43.84 116.86,66.02 2.62,7.36 4.22,15.14 7.58,22.22 1.58,2.82 5.26,2.16 7.94,2.58 17.32,0.94 34.68,0.82 52,1.92 9.74,0.44 19.7,-0.5 29.2,2.24 -2.92,14.26 -5.14,28.66 -7.6,43 -12.46,2.8 -25.26,4.72 -37.2,9.36 -2.34,14.68 -1.26,29.8 -2.18,44.64 1.2,0.56 3.58,1.72 4.78,2.28 -2.78,8.48 -6.24,17.06 -5.9,26.14 0.3,7.12 1.92,14.1 3.36,21.06 -8.76,-0.5 -17.5,-1.2 -26.24,-1.92 C 200.16,755.1 123.6,639.54 47.44,523.74 c 19.38,-31.4 39.3,-62.44 58.7,-93.82 z"
     id="path38"
     inkscape:connector-curvature="0"
     style="fill:#f3722d" />
  <path
     d="m 931.36,466.34 c 4.26,-0.62 9.68,-2.82 11.92,2.36 10.82,16.8 21.52,33.7 32.38,50.48 -5.18,5.74 -9.36,12.28 -13.38,18.86 -66,102.68 -132,205.34 -198,308 -11.38,17.1 -21.52,35.04 -34.1,51.3 -27.44,-1.2 -54.84,-3.38 -82.28,-4.48 5.16,-13.64 9.16,-27.78 10.26,-42.38 6.88,-1.6 15.04,-2.28 19.72,-8.32 5.96,-7.3 5.34,-17.32 6.4,-26.14 0.5,-9.88 3.3,-19.84 1.4,-29.72 -1.76,-9 -10.3,-16.08 -19.5,-15.96 -12.72,-0.4 -25.46,0.52 -38.14,-0.66 1.38,-13.04 4.06,-25.86 6.6,-38.7 23.08,-1.76 46.18,0.92 69.28,0.48 17.98,0.24 35.96,1.76 53.96,0.92 3.7,-0.3 7.64,-1.46 10.08,-4.44 3.88,-8.76 2.72,-19.78 8.08,-27.62 27.2,-12 54.78,-23.28 82.24,-34.74 0.52,-12.5 0.46,-25 0.5,-37.5 6.28,-1.62 13.16,-1.62 19.08,-4.1 7.96,-11.52 13.66,-24.5 21.28,-36.26 -3.84,-8 -10.04,-14.92 -12.64,-23.44 9.98,-19.14 25.98,-35.24 31.84,-56.44 4.32,-13.84 10.3,-27.2 13.02,-41.5 z"
     id="path40"
     inkscape:connector-curvature="0"
     style="fill:#f3722d" />
  <path
     d="m 508.16,472.86 c 15.72,-2.36 31.48,-4.5 47.26,-6.58 -0.02,39.88 -2.4,79.7 -2.88,119.56 -1.56,36.8 -1.86,73.62 -3.44,110.4 2.58,1.94 5.16,3.84 7.78,5.74 0.08,-6.58 0.22,-13.14 0.3,-19.7 57.52,0.38 115.04,1.22 172.54,2.34 -1.06,6.06 -2.22,12.1 -2.82,18.24 4.3,-0.06 8.44,-0.98 11.74,-3.84 0.62,-11.14 3.84,-21.88 6.02,-32.78 7.66,-38.04 15.64,-76.02 23.4,-114.04 1.54,-9.26 4.88,-18.04 7.18,-27.1 7.76,0.34 15.52,0.84 23.3,1.42 1.38,3.46 2.78,6.94 4.22,10.4 -0.68,0.56 -2.04,1.68 -2.72,2.24 10.9,11.14 25.82,16.28 39.32,23.34 13.42,6.88 27.28,12.94 40.4,20.38 -4.86,8.96 -9.22,18.16 -13.64,27.36 -19.82,-10.3 -39.56,-20.76 -59.16,-31.48 2.22,-7.92 4.3,-15.9 6.5,-23.82 -3.66,-2.98 -8.52,-4.98 -13.02,-2.44 -9.28,37.22 -16.92,74.88 -25.98,112.18 3.38,1.2 6.78,2.42 10.18,3.68 2.28,-7.64 3.18,-15.76 6.38,-23.1 15.46,-9.66 32.92,-15.44 49.64,-22.54 0.66,10 1.84,19.98 2.48,29.98 -27.26,12.42 -54.42,25 -81.76,37.18 -2.04,7.74 -3.94,15.5 -5.88,23.28 -45.84,0.78 -91.7,-2.68 -137.48,0.4 -7.5,0.64 -14.52,-2.76 -21.96,-2.68 -25.44,-0.44 -50.92,-0.14 -76.36,-1.38 -3.32,-78.9 -8.3,-157.72 -11.54,-236.64 z"
     id="path42"
     inkscape:connector-curvature="0"
     style="fill:#f5e5c1" />
  <path
     d="m 212.26,500.96 c 14.76,0.3 29.48,1.52 44.24,1.92 12.92,52.44 27.76,104.42 39.56,157.16 2.66,11.78 2.78,26.92 15.54,32.78 -0.46,-6.04 -1.36,-12.04 -2.6,-17.96 3.44,1.82 6.88,4.12 10.98,3.74 59.54,0.54 119.04,1.88 178.58,2.56 0.18,3.24 0.12,6.56 0.64,9.8 3.46,4.56 8.44,7.58 13,10.92 0.32,2.6 0.66,5.2 1,7.82 -17.02,-0.32 -34.08,-0.72 -51.1,-0.26 -8.04,0.96 -16.04,0.12 -24.04,-0.64 -52.66,-0.86 -105.34,-1.86 -158.02,-2.36 -3.2,-0.16 -6.5,0.1 -9.56,-0.98 -3.3,-4.44 -3.64,-10.38 -5.44,-15.48 C 246.52,627.22 229.2,564.14 212.26,500.96 z"
     id="path46"
     inkscape:connector-curvature="0"
     style="fill:#f5e5c1" />
  <path
     d="m 284.66,510.1 c 68.74,2.4 137.46,5.04 206.2,7.18 1.38,16.68 3.32,33.32 6.22,49.8 -4.44,0.54 -8.9,1.06 -13.38,0.92 -64.84,-3.38 -129.72,-5.24 -194.6,-7.48 -1.84,-16.78 -3.1,-33.6 -4.44,-50.42 z"
     id="path48"
     inkscape:connector-curvature="0"
     style="fill:#f5e5c1" />
  <path
     d="m 569.2,526.72 c 62.82,0.56 125.64,2.12 188.46,2.94 -1.88,11.76 -3.86,23.54 -6.52,35.16 -48.42,-1.56 -96.8,-3.86 -145.22,-5.66 -12.26,-0.98 -24.62,-0.1 -36.78,-2.14 0.1,-10.1 0.06,-20.2 0.06,-30.3 z"
     id="path50"
     inkscape:connector-curvature="0"
     style="fill:#f5e5c1" />
  <path
     d="m 295.3,573.24 c 66.08,1.04 132.18,1.82 198.26,3.26 1.32,12.08 1.2,24.26 1.8,36.4 -25.74,-0.32 -51.5,-0.36 -77.26,-0.54 -39.14,-1.42 -78.32,-0.66 -117.48,-1.42 -1.98,-12.54 -3.4,-25.16 -5.32,-37.7 z"
     id="path52"
     inkscape:connector-curvature="0"
     style="fill:#f5e5c1" />
  <path
     d="m 569.22,577.56 c 59.8,1.4 119.64,1.7 179.46,3.2 -2.22,11.48 -4.2,23.02 -6.18,34.54 -57.78,-0.26 -115.56,-0.92 -173.32,-1.78 0.02,-12 0,-23.98 0.04,-35.96 z"
     id="path54"
     inkscape:connector-curvature="0"
     style="fill:#f5e5c1" />
  <path
     d="m 144,623.8 c 4.52,-12.24 9.14,-24.44 13.82,-36.62 13.04,4.8 25.96,9.98 38.2,16.6 8.06,4.52 18,6.96 23.4,15.06 8.4,11.42 17.92,22.06 25.88,33.8 4.76,7.44 3.08,16.22 -0.1,23.9 C 236.66,671 228.12,665.32 218.72,661.28 193.86,648.7 168.28,637.48 144,623.8 z"
     id="path56"
     inkscape:connector-curvature="0"
     style="fill:#f5e5c1" />
  <path
     d="m 816.88,595.9 c 11.62,4.18 22.84,9.42 34.44,13.66 -2.24,2.44 -4.46,4.9 -6.68,7.36 -11.16,-0.08 -20.7,6.92 -31.04,10.26 -2.08,-3.24 -4.18,-6.46 -6.26,-9.68 3.18,-7.2 6.26,-14.44 9.54,-21.6 z"
     id="path60"
     inkscape:connector-curvature="0"
     style="fill:#f5e5c1" />
  <path
     d="m 687.98,636.52 c 16.76,0.02 33.52,-1.64 50.28,-0.76 -1.16,10.68 -3.46,21.2 -5.3,31.78 -54.54,0.08 -109.06,-0.04 -163.6,0.06 -0.06,-9.96 -0.12,-19.92 -0.06,-29.88 39.56,-0.08 79.12,-1.08 118.68,-1.2 z"
     id="path62"
     inkscape:connector-curvature="0"
     style="fill:#f5e5c1" />
  <path
     d="m 340.04,641.18 c 29.28,-0.78 58.6,-0.06 87.86,-1.48 22.94,-0.14 45.88,-0.3 68.84,-0.74 0.36,9.54 0.74,19.08 1,28.62 -63.14,-0.04 -126.3,0.04 -189.46,-0.2 -1.22,-8.8 -2.38,-17.62 -3.86,-26.38 11.84,0.94 23.74,0.26 35.62,0.18 z"
     id="path64"
     inkscape:connector-curvature="0"
     style="fill:#f5e5c1" />
  <path
     d="m 598.16,730.26 c 5.26,-0.42 10.54,-0.32 15.8,-0.04 -2.24,15.14 -6.2,29.98 -9.26,44.98 -73.54,-0.34 -147.1,-0.6 -220.66,-0.9 -8.78,-0.14 -17.52,-0.66 -26.28,-0.72 -0.74,-6.4 -1.88,-14.2 2.06,-19.62 12.84,-6.02 25.48,-14.64 40.2,-14.36 66.06,-2.78 132.08,-6.54 198.14,-9.34 z"
     id="path66"
     inkscape:connector-curvature="0"
     style="fill:#f5e5c1" />
  <path
     d="m 317.12,814.9 c 0.38,-8.24 -2.86,-17.48 0.7,-25.06 36.68,-0.98 73.46,-0.12 110.18,-0.4 79.54,-0.12 159.06,0.2 238.6,-0.16 -1.58,13.6 -2.74,27.24 -4.1,40.88 -19.4,-2.16 -38.96,-2.24 -58.42,-3.18 -95.66,-4.06 -191.3,-8.2 -286.96,-12.08 z"
     id="path68"
     inkscape:connector-curvature="0"
     style="fill:#f5e5c1" />
  <path
     d="m 318.1,843.76 c 6.94,0.5 13.9,0.74 20.86,0.88 0.92,5.2 1.82,10.44 2.72,15.68 32.56,0.96 65.16,0.76 97.72,2.12 -9.04,17.54 -25.68,31.16 -45.16,35.14 -11.3,2.86 -22.98,1.44 -34.22,-0.84 16.86,12.4 39.8,16.5 59.5,8.78 23.22,-8.36 39.26,-31.68 40.06,-56.18 6.24,0.16 12.48,0.4 18.72,-0.1 1.92,13.68 -3.52,27 -10.22,38.66 -15.38,26.06 -46.02,42.42 -76.3,39.6 -33.3,-2.1 -63.22,-27.68 -71.1,-60 -2.14,-7.74 -2.44,-15.8 -2.58,-23.74 z"
     id="path70"
     inkscape:connector-curvature="0"
     style="fill:#f5e5c1" />
  <path
     d="m 480.46,857.08 c -0.1,-2.34 0.2,-4.68 0.66,-6.96 7.48,0.38 14.96,0.6 22.44,1.02 1.24,5.8 2.54,11.62 3.88,17.42 28.36,1.4 56.72,3.06 85.08,4.52 -11.56,16.56 -32.7,25.88 -52.68,22.34 -11.5,-1.44 -21.42,-7.92 -30.24,-15 7.82,12.48 20.02,22.44 34.44,26.08 20.7,5.84 44.26,-1.78 57.8,-18.44 7.88,-9.14 11.78,-20.9 13.22,-32.72 7.7,0.22 15.4,0.36 23.12,0.36 -2.42,27.08 -19.74,52.18 -44.28,63.92 -15.22,7.8 -32.9,9.8 -49.68,7.2 -24.2,-4.14 -45.86,-20.42 -56.7,-42.44 -4.04,-8.52 -7.62,-17.7 -7.06,-27.3 z"
     id="path72"
     inkscape:connector-curvature="0"
     style="fill:#f5e5c1" />
</svg>
