<?xml version="1.0" encoding="UTF-8" standalone="no"?>
<svg
   xmlns:dc="http://purl.org/dc/elements/1.1/"
   xmlns:cc="http://creativecommons.org/ns#"
   xmlns:rdf="http://www.w3.org/1999/02/22-rdf-syntax-ns#"
   xmlns:svg="http://www.w3.org/2000/svg"
   xmlns="http://www.w3.org/2000/svg"
   xmlns:sodipodi="http://sodipodi.sourceforge.net/DTD/sodipodi-0.dtd"
   xmlns:inkscape="http://www.inkscape.org/namespaces/inkscape"
   width="1280"
   height="1280"
   viewBox="0 0 1024 1024"
   version="1.1"
   id="svg2"
   inkscape:version="0.48.1 "
   sodipodi:docname="defend_medic.svg">
  <metadata
     id="metadata30">
    <rdf:RDF>
      <cc:Work
         rdf:about="">
        <dc:format>image/svg+xml</dc:format>
        <dc:type
           rdf:resource="http://purl.org/dc/dcmitype/StillImage" />
      </cc:Work>
    </rdf:RDF>
  </metadata>
  <defs
     id="defs28" />
  <sodipodi:namedview
     pagecolor="#ffffff"
     bordercolor="#666666"
     borderopacity="1"
     objecttolerance="10"
     gridtolerance="10"
     guidetolerance="10"
     inkscape:pageopacity="0"
     inkscape:pageshadow="2"
     inkscape:window-width="1920"
     inkscape:window-height="1018"
     id="namedview26"
     showgrid="false"
     inkscape:snap-page="true"
     fit-margin-top="0"
     fit-margin-left="0"
     fit-margin-right="0"
     fit-margin-bottom="0"
     inkscape:zoom="0.6609375"
     inkscape:cx="466.00473"
     inkscape:cy="640"
     inkscape:window-x="-8"
     inkscape:window-y="-8"
     inkscape:window-maximized="1"
     inkscape:current-layer="layer1" />
  <g
     inkscape:groupmode="layer"
     id="layer1"
     inkscape:label="background">
    <rect
       style="fill:#3e3e3e;fill-opacity:1"
       id="rect3007"
       width="1024"
       height="1024"
       x="0"
       y="0" />
  </g>
  <g
     inkscape:groupmode="layer"
     id="layer2"
     inkscape:label="foreground">
    <path
       style="fill:#f5e5c1"
       d="m 444.85,71.9 c -3.64179,0.0733 -7.25501,0.33 -10.9,0.75 -26.5,3.06 -52.97,6.46 -79.45,9.6 -7.22,0.74 -14.63,1.63 -21.15,5.05 -19.12,9.58 -38.17,19.35 -57.35,28.85 -3.82,1.92 -7.65,3.98 -10.55,7.2 -21.98,24.06 -44.4,47.75 -66.2,71.95 -12.7,21.96 -25.37,43.92 -37.65,66.1 -4.52,8.62 -13.82,12.93 -20.1,19.95 -3.92,12.58 -1.38,26.18 -4.6,39 4.92,6.68 10.3,13.03 14.6,20.15 4.2,6.5 2.17,15.1 -1.65,21.3 -10.6,18.1 -20.89,36.4 -31.45,54.5 -5.28,8.8 -6.68,19.18 -9.8,28.8 -4.22,15.76 -9.25,31.28 -13.15,47.1 0.54,9.2 2.74,18.8 7,27 11.08,4.56 23.57,4.18 34.85,8.2 4.82,4.14 7.64,10.08 11.5,15.1 -5.88,13.44 -12.06,26.72 -18.3,40 -3.94,6.62 -1.72,16.42 3.4,21.6 18.94,0.74 38.99,-5.22 57.05,2.9 9.2,3.84 20.2,4.96 27.1,12.9 7.02,7.58 17.55,14.37 28.25,10.75 0,-4.58 0.13,-9.14 0.25,-13.7 3.18,0.38 6.33,1.31 8.25,4.05 7.26,8.3 14.78,16.44 22.1,24.7 -1.14,5.34 -2.02,10.68 -2.7,16.1 -25.14,-12.02 -49.64,-25.26 -75.2,-36.4 -12.6,-3.36 -25.92,-2.73 -38.8,-4.45 -11.42,-0.74 -22.76,-2.59 -34.2,-2.65 -6.68,3.16 -9.84,12.02 -7.2,18.8 20.54,5.84 42.78,4.1 63.2,11 15.42,5.16 31.56,8.16 46.5,14.6 -5.52,2.28 -11.36,1.36 -17,0.1 -13.24,-2.64 -26.61,-4.63 -39.85,-7.25 -12.1,-2.46 -24.42,-0.82 -36.6,-0.2 4.66,16.06 8.59,32.33 13.05,48.45 0.52,2.92 1.98,6.18 0.7,9.1 -6.86,10.28 -20.57,16.06 -22.65,29.2 -5.48,21.98 -11.27,43.89 -16.85,65.85 3.9,9.18 7.98,18.24 11.7,27.5 3.72,1.6 7.48,3.26 11.5,4 44.52,7.6 89.08,15.12 133.6,22.8 5.04,0.56 7.92,5.13 11.3,8.35 2.24,2.88 6.14,5.32 5.9,9.4 0.46,16.02 -0.22,32.05 1,48.05 0.34,31.98 0.5,63.97 0.8,95.95 l 29.9,0 c -1.37501,-14.545 -2.70938,-29.09626 -4,-43.65 -1.28728,-14.53816 -2.55126,-29.1028 -3.75,-43.65 -10e-4,-0.0166 10e-4,-0.0334 0,-0.05 -1.19864,-14.54718 -2.3424,-29.09438 -3.45,-43.65 -0.001,-0.0166 10e-4,-0.0334 0,-0.05 -1.10875,-14.57219 -2.18499,-29.12 -3.2,-43.7 -1.5997,-0.88816 -3.24072,-1.45482 -4.95,-1.85 -0.84547,-0.19891 -1.68707,-0.37981 -2.55,-0.5 -4.32051,-0.59219 -8.8,-0.37501 -13.1,-1.1 -12.85,-1.9 -25.73499,-3.65499 -38.6,-5.45 -12.8675,-1.7875 -25.72,-3.6 -38.55,-5.6 -4.78,-0.81499 -9.54125,-1.67843 -14.3,-2.6 -4.76062,-0.92157 -9.5025,-1.90875 -14.25,-2.9 -9.49,-1.9825 -18.97,-4.06 -28.45,-6.1 -0.32,-3.44 -0.63,-6.88 -0.95,-10.3 45.06,-1.92 90.13,-2.42 135.15,-4.9 0.70501,-0.095 1.40656,-0.20582 2.1,-0.35 3.46726,-0.71875 6.78326,-2.03883 10.1,-3.3 1.3275,-0.50594 2.67,-0.98501 4,-1.45 54.54,-19.82 109.15,-39.33 163.55,-59.55 3.43,-1.15 6.3175,-3.1925 9,-5.5 1.34125,-1.15374 2.60594,-2.38282 3.9,-3.6 1.29406,-1.21718 2.61,-2.42 3.95,-3.55 2.3625,-2.2375 5.11661,-4.33046 7.15,-6.9 0.80984,-1.03016 1.50016,-2.1236 2,-3.35 0.25074,-0.61266 0.45501,-1.2725 0.6,-1.95 11.26,-38.66 22.64,-77.26 33.9,-115.9 0.96,-3.38 2.1075,-6.75501 3.05,-10.15 0.9425,-3.39499 1.68,-6.81 1.85,-10.35 0.9,-15.31499 1.74219,-30.65406 2.15,-46 0.13594,-5.11531 0.22501,-10.23501 0.25,-15.35 -1.04718,-0.84784 -2.07104,-1.67266 -3.1,-2.55 -1.01914,-0.86835 -2.01718,-1.74406 -3,-2.65 -2.46922,-2.27626 -4.7576,-4.68434 -6.8,-7.3 -0.40669,-0.52011 -0.81699,-1.01301 -1.2,-1.55 -0.3836,-0.53758 -0.74238,-1.09443 -1.1,-1.65 -0.71416,-1.11006 -1.35302,-2.26088 -1.95,-3.45 -0.89661,-1.78483 -1.66875,-3.6625 -2.25,-5.65 6.22499,4.23125 13.01691,7.51315 20.15,9.85 0.0149,0.005 0.0351,-0.005 0.05,0 2.83872,0.92819 5.72781,1.72864 8.65,2.35 0.0158,0.003 0.0342,-0.003 0.05,0 2.92213,0.61958 5.87882,1.09109 8.85,1.4 0.0163,0.002 0.0336,-0.002 0.05,0 1.47728,0.15272 2.96698,0.2748 4.45,0.35 2.99918,0.15206 6.00328,0.16797 9,0 2.99672,-0.16797 5.99051,-0.508 8.95,-1 2.95949,-0.492 5.9125,-1.13 8.8,-1.95 5.3,-2.77501 10.4793,-5.80059 15.5,-9.1 1.58578,-1.04211 3.15619,-2.15237 4.7,-3.25 1.37674,-0.98131 2.75984,-1.97373 4.1,-3 2.73626,-2.72504 5.42827,-5.55115 8,-8.45 0.008,-0.009 -0.008,-0.0406 0,-0.05 3.43917,-3.87821 6.71818,-7.87618 9.8,-12.05 1.54091,-2.08691 3.0119,-4.19246 4.45,-6.35 0.0126,-0.0189 0.0374,-0.031 0.05,-0.05 0.71904,-1.07877 1.40834,-2.15398 2.1,-3.25 2.07498,-3.28805 3.99173,-6.61166 5.8,-10.05 0.0103,-0.0197 0.0397,-0.0303 0.05,-0.05 1.19411,-2.27314 2.33347,-4.6139 3.4,-6.95 0.53787,-1.17814 1.04626,-2.35626 1.55,-3.55 1.37702,-4.11334 2.66053,-8.24448 3.9,-12.4 0.1595,-0.53472 0.3423,-1.06472 0.5,-1.6 0.005,-0.0153 -0.005,-0.0347 0,-0.05 0.1521,-0.51643 0.29949,-1.03307 0.45,-1.55 1.0685,-3.6699 2.09152,-7.36186 3.1,-11.05 0.13739,-0.50251 0.31336,-0.99726 0.45,-1.5 0.004,-0.0156 -0.004,-0.0344 0,-0.05 0.33926,-1.2485 0.66442,-2.50042 1,-3.75 2.20173,-8.19747 4.33915,-16.42282 6.6,-24.6 0.69,-2.32875 1.23971,-4.68358 1.65,-7.05 0.68477,-3.94688 1.02187,-7.94062 1.15,-11.95 0.2025,-6.4075 -0.14,-12.87 -0.45,-19.25 0.49626,1.0425 0.96398,2.08586 1.4,3.15 0.87205,2.1283 1.60851,4.29904 2.25,6.5 0.64149,2.20096 1.17523,4.44498 1.6,6.7 0.40013,2.12416 0.73026,4.29389 0.95,6.45 0.0119,0.11802 0.0386,0.23192 0.05,0.35 0.002,0.0164 -0.002,0.0336 0,0.05 0.10864,1.12914 0.1881,2.26565 0.25,3.4 0.2549,4.61885 0.10131,9.23781 -0.35,13.85 -0.22485,2.29781 -0.52067,4.58179 -0.9,6.85 -0.37933,2.26821 -0.83,4.53 -1.35,6.75 -0.62,3.05501 -1.15312,6.12101 -1.65,9.2 -1.49062,9.23696 -2.5625,18.56875 -3.8,27.85 -0.61875,4.64062 -1.25406,9.24656 -2.05,13.85 -0.003,0.0161 0.003,0.0339 0,0.05 -0.52843,3.05272 -1.13477,6.12546 -1.8,9.15 -1.00312,4.56078 -2.2025,9.08 -3.65,13.55 -1.00501,3.83 -2.07594,7.70032 -3.35,11.55 -1.59258,4.81211 -3.4739,9.58616 -5.8,14.05 -0.4643,0.89216 -0.94797,1.73186 -1.45,2.6 -0.50963,0.88173 -0.99872,1.74646 -1.55,2.6 -0.54258,0.84078 -1.11406,1.63992 -1.7,2.45 -0.58664,0.81054 -1.21731,1.6236 -1.85,2.4 -0.63211,0.77602 -1.26891,1.51139 -1.95,2.25 -0.009,0.009 0.009,0.0407 0,0.05 -0.67358,0.72936 -1.37582,1.41045 -2.1,2.1 -0.7489,0.71525 -1.49419,1.38104 -2.3,2.05 -2.11,1.21499 -4.17312,2.53157 -6.25,3.85 -3.11531,1.97766 -6.23773,3.98277 -9.5,5.65 -3.26227,1.66723 -6.67501,2.99499 -10.35,3.7 -5.71499,1.26 -11.41688,2.96157 -17.25,3.6 -1.94531,0.21563 -3.92499,0.32501 -5.9,0.25 -2.89,2.26501 -5.74563,4.53843 -8.6,6.85 -5.70875,4.62125 -11.36125,9.31374 -17.1,13.9 -2.86938,2.29406 -5.78,4.57 -8.7,6.8 -1.22,1.02 -2.6325,2.01 -3.75,3.2 -0.27813,0.29563 -0.51667,0.57645 -0.75,0.9 -0.72582,0.98901 -1.17707,2.07448 -1.2,3.45 -14.4,90.06 -28.92,180.17 -43.3,270.25 -0.1375,0.7125 -0.32402,1.37598 -0.55,2.05 -0.005,0.015 0.005,0.035 0,0.05 -0.0624,0.18445 -0.13179,0.3681 -0.2,0.55 -0.42421,1.13142 -0.94923,2.24778 -1.55,3.3 -1.76269,3.08731 -4.12499,5.87501 -6,8.85 -35.5,52.52 -70.98,105.04 -106.4,157.6 -0.78374,1.2 -1.67658,2.2526 -2.65,3.25 -0.008,0.01 0.009,0.041 0,0.05 -2.91619,2.9795 -6.6011,5.1783 -10.25,7.3 -1.62626,0.9447 -3.23499,1.87 -4.8,2.85 l 46.15,0 c 22.7775,-11.7825 45.55114,-23.6142 68.3,-35.45 113.73398,-59.17229 227.13726,-118.96547 340.55,-178.75 45.36843,-23.91656 90.76,-47.82 136.15,-71.7 13.06,-7.26 26.31,-14.26 39.85,-20.6 2.84,3.04 5.67,6.1 8.55,9.1 -2.41501,1.00499 -4.83282,1.99374 -7.2,3.1 -0.78813,0.37157 -1.57499,0.75 -2.35,1.15 C 813.1,828.55 637.3,926.3 461.5,1024 l 562.5,0 0,-296.65 c -4.82,-5.6 -9.88,-11 -14.9,-16.4 -5.86,-7.36 -16.73,-6.03 -24.85,-4.25 -12.9,5.3 -25.27,11.9 -37.75,18.1 -17.26,-19.26 -31.78,-40.88 -50.1,-59.2 -1.66,-1.74 -3.1,-3.72 -4.1,-5.9 -41.54,-95.86 -82.56,-191.92 -124.5,-287.6 -3.02,-7.68 -8.91,-13.6 -13.05,-20.6 -1.02,-16.48 2.34,-32.92 2.1,-49.4 -1.44,-27.46 -5.81,-56 -21.65,-79.2 -8.98,-12.42 -17.24,-25.36 -26.5,-37.6 -11.02,-12.3 -22.28,-24.46 -33.4,-36.7 -5.36,-6.14 -12.96,-9.5 -19.2,-14.6 -14.44,-11.38 -28.81,-23.39 -45.95,-30.55 -9.06,-3.7 -16.44,-10.99 -26.3,-12.75 -13.94,-3.04 -27.78,-6.57 -41.8,-9.25 -16.62,-2.24 -33.29,-3.76 -49.95,-5.7 -15.68125,-1.625 -31.4689,-4.16751 -47.25,-3.85 z M 733.2,255.55 c 9.18,8.66 10.04,22.49 10.2,34.35 0.52,18.12 -1.04,36.2 -3,54.2 -12.34,3.7 -24.61,7.72 -36.85,11.7 -5.2,1.86 -10.76,1.23 -16,0.05 8.76,-9.32 19.79,-16.34 29.15,-24.9 5.42,-20.06 9.25,-40.54 14.75,-60.6 1.38,-4.82 1.45,-9.86 1.75,-14.8 z M 229.25,314.5 c 2.92342,-0.0573 5.88499,0.27875 8.9,1.1 19.3,11.86 37.2,25.81 55.7,38.85 -6.44,4.36 -13.25,8.11 -19.65,12.55 -2.22,-0.78 -4.48,-1.55 -6.7,-2.35 -6.3,-13.66 -24.47,-14.69 -37.05,-10.45 0.4,2.76 0.86,5.49 1.3,8.25 -8.52,0.74 -17.25,0.71 -25.45,3.45 -0.42,17.42 -0.24,34.83 -0.4,52.25 0.64,6.36 4.31,14.09 11.35,15.05 15.28,2.02 30.91,1.29 46.05,4.25 -4.14,15.98 -7.06,32.23 -9.5,48.55 -19.28,-18.8 -37.71,-38.49 -56.65,-57.65 -2.98,-20.98 -1.01,-42.37 -4.85,-63.25 -2.48,-8.7 -4.94,-17.45 -7.5,-26.15 -6.74,-3.86 -13.71,1.71 -20.35,1.15 -3.58,-4.88 -6.17,-10.35 -8.65,-15.85 12.14,-0.2 24.23,0.33 36.35,-0.15 12.48,-2.21 24.43186,-9.35149 37.1,-9.6 z m 356.95,21.05 c 5.25819,-0.0458 10.6925,1.06501 15.8,1.65 4.92,1.74 9.67,4.08 14.15,6.7 6.46,8.12 12.87,16.41 18.45,25.15 1.18,8.02 3.88,16.88 1.2,24.7 -0.6,-0.16 -1.83,-0.49 -2.45,-0.65 -4.62,-6.84 -8.51,-14.44 -15.45,-19.3 -14.64,-9.24 -33.59,-16.07 -50.15,-7.35 6.94,13.46 15.08,26.33 22.5,39.55 3.4,6.26 8.9,12.5 7,20.2 -1.58,5.5 -1.12,12.64 -6.1,16.3 -0.06,-6.54 -1,-13.38 -5.3,-18.6 -6.28,-9.58 -24.05,-10.62 -28.85,0.9 -1.52,9.6 2.27,20.33 -3.95,28.95 1.86,7.44 5.04,17.53 -1.7,23.45 -7.34,5.22 -16.21,-2.27 -18.95,-9.15 -4.46,-11.76 5.31,-23.63 16.25,-26.75 1.58,-10.48 -1.28,-20.84 -1.2,-31.3 0.1,-6.64 -0.49,-13.28 -0.25,-19.9 1.22,-7.1 3.12,-14.12 3.9,-21.3 -1.8,0.14 -5.4,0.46 -7.2,0.6 -5.6,11.62 -4.21,24.52 -4.75,37 -4.54,-0.1 -3.7,-4.96 -5,-7.8 -3.24,-10.14 -1.04,-21.12 1.2,-31.2 5.32,-5.34 11.34,-9.98 16.7,-15.3 6.22,-6.34 14.78,-9.24 22.4,-13.5 3.64875,-2.26626 7.6603,-3.01435 11.75,-3.05 z m -144,111.05 c -12.94,19.44 -27.05,38.07 -40.65,57.05 -20.92,25.12 -41.23,50.8 -62.95,75.2 0.26,-13.96 -0.81,-28.09 0.45,-41.95 33.58,-30.94 68.41,-60.62 103.15,-90.3 z m -260.65,24.8 c 0.22266,-0.0221 0.46957,-0.007 0.7,0 0.52672,0.0158 1.08,0.1125 1.65,0.3 5.24,0.82 11.14,1.19 14.9,5.45 15.62,14.98 33.71,27.88 45.75,46.2 5.06,7.54 11.55,13.89 17.45,20.75 10.96,17.36 21.98,35.18 26.8,55.4 8.16,3.04 16.75,5.05 24.55,8.95 6.2,5.18 12.75,10.44 17.15,17.3 0.7,5.42 0.56,10.94 0.8,16.4 0.12,11.38 3.03,22.72 1.05,34.1 0.12,3.62 -3.97,4.47 -6.65,5.15 -5.6,-14.52 -0.06,-30.96 -6.1,-45.5 -2.6,-10.7 -12.96,-16.36 -21.7,-21.6 -8.16,-5.52 -18.16,-6.4 -27.4,-9.1 -2.64,-7.46 -4.84,-15.05 -7,-22.65 -3.28,-14.8 -12.86,-26.94 -19.8,-40.1 -7.22,-9.54 -13.07,-20.15 -21.45,-28.75 -13.02,-15.78 -31.26,-25.81 -48.6,-36.05 2.1,-2.44453 4.56013,-5.91915 7.9,-6.25 z m -37.75,26.35 c 8.5456,-0.0697 16.38125,4.04374 24.65,5.6 7.84,1.26 15.8,1.46 23.7,1.8 -7.84,5.9 -15.97,11.48 -23.95,17.2 -3.6,2.78 -8.4,0.8 -12.5,0.7 -13.62,-2.16 -27.69,-2.41 -40.95,-6.35 -2.86,-4.82 -3.34,-10.76 -5.9,-15.8 11.06,-1.2 22.15,-2.46 33.25,-3.1 0.57625,-0.0437 1.13029,-0.0453 1.7,-0.05 z m 119.35,205.1 c 2.83496,0.0994 5.7375,1.32501 8.3,2.4 -0.16,6.86 -5.65,11.77 -8.65,17.55 -2.42,3.2 -3.95,8.53 -8.65,8.85 -9.1,0.02 -18.27,-0.03 -27.35,-0.55 -6.5,-3.84 -12.12,-9.01 -18.3,-13.35 1.02,-2.28 2.02,-4.57 3,-6.85 8.36,1.62 16.59,3.96 24.85,6.1 7.42,-4.04 14.49,-8.66 21.85,-12.8 1.56,-1.0425 3.24902,-1.40965 4.95,-1.35 z"
       id="path6"
       inkscape:connector-curvature="0" />
  </g>
</svg>
