<?xml version="1.0" encoding="UTF-8" standalone="no"?>
<svg
   xmlns:dc="http://purl.org/dc/elements/1.1/"
   xmlns:cc="http://creativecommons.org/ns#"
   xmlns:rdf="http://www.w3.org/1999/02/22-rdf-syntax-ns#"
   xmlns:svg="http://www.w3.org/2000/svg"
   xmlns="http://www.w3.org/2000/svg"
   xmlns:sodipodi="http://sodipodi.sourceforge.net/DTD/sodipodi-0.dtd"
   xmlns:inkscape="http://www.inkscape.org/namespaces/inkscape"
   width="1280"
   height="1280"
   viewBox="0 0 1024 1024"
   version="1.1"
   id="svg2"
   inkscape:version="0.48.1 "
   sodipodi:docname="first_to_cap.svg">
  <metadata
     id="metadata32">
    <rdf:RDF>
      <cc:Work
         rdf:about="">
        <dc:format>image/svg+xml</dc:format>
        <dc:type
           rdf:resource="http://purl.org/dc/dcmitype/StillImage" />
      </cc:Work>
    </rdf:RDF>
  </metadata>
  <defs
     id="defs30" />
  <sodipodi:namedview
     pagecolor="#ffffff"
     bordercolor="#666666"
     borderopacity="1"
     objecttolerance="10"
     gridtolerance="10"
     guidetolerance="10"
     inkscape:pageopacity="0"
     inkscape:pageshadow="2"
     inkscape:window-width="1920"
     inkscape:window-height="1018"
     id="namedview28"
     showgrid="false"
     fit-margin-top="0"
     fit-margin-left="0"
     fit-margin-right="0"
     fit-margin-bottom="0"
     inkscape:zoom="0.6609375"
     inkscape:cx="640"
     inkscape:cy="640"
     inkscape:window-x="-8"
     inkscape:window-y="-8"
     inkscape:window-maximized="1"
     inkscape:current-layer="svg2" />
  <path
     d="m 0,0 1024,0 0,1024 L 0,1024 0,0 z"
     id="path4"
     style="fill:#3e3e3e"
     inkscape:connector-curvature="0" />
  <path
     style="fill:#f5e5c1"
     d="m 672.25,11.7 c -3.18187,0.0972 -6.33,0.565 -9.45,1.4 -17.94,3.64 -32.13,18.07 -38.45,34.85 -3.72,3.16 -7.47,6.63 -8.75,11.55 -2.66,8.56 -6.28,17.41 -4.9,26.55 1.72,9.24 -1.92,18.45 -5.4,26.85 -32.3,16.72 -63.69,35.58 -91.95,58.6 -11.02,8.22 -20.76,18.03 -32,25.95 -4.4,3.02 -7.67,7.26 -10.35,11.8 -8.54,14.04 -16.99,28.1 -26.05,41.8 -2.8,4.54 -6.42,9.49 -5.4,15.15 0.7,5.18 4.83,8.76 8.05,12.5 -12.86,23.62 -23.8,48.46 -30.7,74.5 -11.28,25.2 -22.31,50.48 -33.55,75.7 -4.28,9.74 -4.82,20.52 -6.4,30.9 -3.14,21.42 -5.73,42.88 -9.35,64.2 -5.76,23.7 -11.79,47.35 -18.65,70.75 -2.9,7.1 1.02,14.4 3.5,21 9.48,17.56 20.37,34.29 29.85,51.85 2.42,4.68 5.6,9.19 10.6,11.35 8.5,3.78 13.46,11.91 19.5,18.55 4.56,6.08 11.76,10.84 19.7,8.7 8.06,0.08 15.12,-5.7 16.4,-13.7 1,-10.32 3.43,-22.22 -3.25,-31.2 1.74,-1.98 3.51,-3.97 5.25,-5.95 9.86,0.58 20.54,3.33 29.9,-1.05 7.34,-3.9 7.56,-13.11 7.3,-20.35 -0.52,-9.42 0.43,-18.77 0.45,-28.15 -0.12,-6.86 -4.23,-12.57 -6.55,-18.75 -1.6,-8.46 -0.55,-17.35 -3.15,-25.65 -2.72,-5.96 -7.49,-10.63 -11.45,-15.75 0.6,-4.68 0.65,-9.54 2.65,-13.9 6.96,-15.56 14.25,-31.17 18.45,-47.75 3.2,-12.72 6.77,-25.29 10.15,-37.95 4.72,-15.28 2.94,-31.52 5.8,-47.1 6.58,25.66 11.81,51.66 17.65,77.5 0.96,6.44 8.46,9.37 8.9,15.95 0.9,5.9 1.72,11.83 2.5,17.75 -9.64,2.26 -19.32,4.17 -28.9,6.65 -5.66,1.3 -10.02,5.72 -12.5,10.8 -7.18,15.48 -8.7,33.28 -5.1,49.9 1.26,6.88 7.72,11.41 8.5,18.45 3.08,17.68 7.92,35.13 15.2,51.55 6.76,9.74 20.06,6.55 30,5.55 1.36,10.96 3.69,21.77 4.95,32.75 0.9,7.92 3.5,16.19 0.3,23.95 -8.54,25.72 -15.28,51.99 -22.7,78.05 -1.34,5.96 -3.39,11.97 -3.05,18.15 1.62,7.38 7.53,12.68 11.95,18.5 -4.56,10.88 -14.77,20.95 -11.55,33.65 8.88,10.08 22.61,13.02 34.75,17.3 4.04,11.8 4.78,24.44 3.7,36.8 -3.74,9.1 -8.8,17.64 -13.1,26.5 -8.18,0.66 -17.69,0.39 -23.65,7.05 -8.48,7.12 -9.52,18.75 -14.2,28.15 -3.16,6.58 -5.19,14.88 -1.35,21.6 2.72,4.74 8.49,6.07 13.55,5.95 24.04,-0.04 48.11,-0.05 72.15,-0.05 7.94,0.2 15.22,-3.59 21.7,-7.75 4.96,-3.3 5.93,-9.63 7.75,-14.85 8.3,-3.5 20.67,-5.78 21.75,-16.7 0.24,-12.7 0.33,-26.12 -5.65,-37.7 -3.98,-6.86 -1.45,-14.9 -2.55,-22.3 -1.22,-5.5 -4.33,-10.34 -5.65,-15.8 -0.6,-5.48 -0.3,-10.97 -0.3,-16.45 8.48,-6.6 21.89,-11.27 22.75,-23.65 -1.38,-15.9 -7.51,-30.92 -10.95,-46.4 0.12,-8.72 3.54,-17.2 2.4,-26 -0.6,-10.74 -5.37,-21.64 -1.75,-32.3 8.44,-27.64 20.04,-54.18 30.5,-81.1 2.84,0.14 5.69,0.31 8.55,0.45 11.14,28.94 24,57.39 32.3,87.35 0.82,12.28 -4.22,24.41 -2.2,36.75 0.5,5.58 2.93,11.27 1.15,16.85 -4.04,14.62 -8.97,29.12 -10.95,44.2 -0.04,12.8 13.85,17.8 22.45,24.4 -0.1,5.56 0.42,11.21 -0.5,16.75 -1.48,5.14 -4.17,9.83 -5.45,15.05 -1.3,6.96 1.44,14.51 -2,21.05 -6.3,11.76 -6.46,25.47 -6.3,38.45 0.84,11.06 13.31,13.55 21.75,16.75 1.88,5.22 2.91,11.46 7.75,14.9 6.82,4.7 14.86,8.62 23.4,8.1 24.04,-0.16 48.04,0.08 72.1,-0.1 5.5,0.2 11.44,-2.7 13.2,-8.2 2.62,-6.62 0.07,-13.69 -2.75,-19.75 -4.58,-9.32 -5.67,-20.78 -14.05,-27.8 -6.02,-6.56 -15.53,-6.14 -23.65,-7 -4.28,-8.88 -9.36,-17.4 -13.1,-26.5 -1.5,-12.54 0.15,-25.28 3.85,-37.3 7.26,-2.9 14.72,-5.3 22.4,-6.9 7.3,-1.28 11.08,-9.1 11.3,-15.9 1.22,-7.48 -3.19,-14.02 -6.45,-20.3 -0.18,-3.26 -0.39,-6.48 -0.65,-9.7 3.82,-5.42 9.43,-10.69 9.05,-17.85 -3.14,-23.34 -9.75,-46.01 -16.75,-68.45 -4.08,-10.42 -8.48,-20.8 -10.7,-31.8 1,-21.42 7.92,-42.29 6.6,-63.85 -1.12,-25.26 -1.58,-50.57 -2.3,-75.85 6.56,-15.1 1,-32.02 3.6,-47.8 3.88,-13 13.81,-24.28 13.45,-38.4 0.76,-36.76 4.07,-73.34 6.55,-110 6.06,11.56 12.6,23.03 16.5,35.55 1.9,14.1 0.77,28.69 5.05,42.45 4.9,17.26 8.81,34.81 14.45,51.85 4.34,13.78 11.8,26.36 16.1,40.1 2.96,8.06 -4.55,13.36 -8.55,19.2 -5.16,6.46 -4.15,15.25 -5.15,22.95 -0.38,9.08 -6.87,16.69 -6.65,25.85 0.7,7.36 3.47,14.47 2.95,21.95 -0.26,6.98 -1.38,15.9 5.7,20.1 7.6,3.58 16.44,2.07 24.6,2.25 2.44,4.22 5.24,8.23 8.3,12.05 -7.54,10.78 -6,25.44 0.3,36.4 4.84,7.02 15.13,8.18 22.55,5 7.54,-4.06 14.68,-9.19 19.8,-16.15 4.58,-7.08 14.74,-7.61 18.7,-15.25 10.06,-17.8 20.49,-35.38 30.85,-53 4.06,-7.68 6.88,-16.84 4.2,-25.4 -6.5,-24.48 -13.72,-48.85 -18.8,-73.65 -3.78,-30.24 -8.26,-60.4 -12.3,-90.6 -0.78,-6.36 -2.51,-12.65 -5.65,-18.25 -9.66,-17.66 -18.58,-35.7 -28.9,-53 -4.22,-9.28 -5.39,-19.65 -9.35,-29.05 -7.04,-16.98 -13.56,-34.29 -23.3,-49.95 3.44,-3.96 8.04,-7.8 8.2,-13.5 0.52,-5.68 -3.38,-10.28 -6.2,-14.8 -10.36,-15.34 -18.69,-32.01 -29.35,-47.15 -9.12,-8.62 -19.9,-15.36 -29.4,-23.6 0.72,-5.72 2.85,-12.55 -1.35,-17.45 -4.36,-4.72 -10.87,-6.42 -16.15,-9.8 -17.26,-10.6 -34,-21.94 -51,-32.9 -6.28,-4.12 -13.81,-2.45 -20.35,-0.05 -5.6,-2.24 -11.18,-4.51 -16.7,-6.95 -2.44,-7 -5.44,-13.85 -7.6,-20.95 C 732.64,77.49 734.2,60.57 724,48.35 718.7,36.59 711.98,24.4 700,18.3 691.45,14.19 681.79563,11.40844 672.25,11.7 z m 21.3,16.5 c 10.82,6.44 16.72,17.98 20.4,29.6 1.48,1.64 3.92,2.69 4.6,4.95 2.18,8.84 3.37,17.95 3.25,27.05 2.66,11.22 7.84,21.66 11.4,32.6 7.3,3.04 14.49,6.28 21.75,9.4 6.2,-2.8 13.54,-7.52 20.1,-2.9 22.84,13.88 45.59,27.96 68.35,42 0.66,7.7 1.02,15.44 2.8,23 -15.82,24.16 -28.02,50.5 -43.3,75 -4.4,6.96 -8.58,14.02 -12.6,21.2 0.48,4.02 0.97,8.03 1.45,12.05 3.4,-0.32 7.87,1.33 9.85,-2.45 11.34,-14.08 22.4,-28.43 33.7,-42.55 2.08,-3.54 6.38,-3.25 9.9,-3.95 -0.8,8.2 -2.87,16.26 -3.15,24.5 4.62,8 12.36,13.57 18.6,20.25 8,-7.2 15.61,-14.76 23.45,-22.1 2.28,-2.36 5.54,-3.23 8.5,-4.35 -0.78,10.04 4.03,18.61 9.05,26.85 8.26,18.02 16.86,36.12 21.5,55.5 1.14,4.18 2.49,8.34 4.65,12.1 8.98,14.16 16.12,29.34 24.2,44 2.62,5.26 6.15,10.29 7.35,16.15 2.14,26.18 6.21,52.18 10.95,78 1.22,21.82 8.72,42.46 13.1,63.7 2.14,10.96 7.1,21.22 8.8,32.3 0.4,5.98 -2.69,11.46 -5.55,16.5 -9.16,15.54 -18.48,31.02 -27.2,46.8 -3.2,7.02 -12.38,7.26 -16.7,13.3 -5.94,7.12 -12.93,15.83 -22.75,16.55 -6.96,-3.56 -5.27,-13.34 -5.65,-19.9 3.82,1.7 7.49,3.77 11.05,6.05 7.46,-6.62 15.08,-13.04 22.5,-19.7 2.94,-2.3 3.85,-6.02 4.95,-9.4 6.1,-20.34 12.33,-40.64 18.65,-60.9 1.18,-3.66 1.98,-7.46 1.4,-11.3 -1.34,-12.18 -2.68,-24.37 -4.1,-36.55 -7.06,-5.62 -14.19,-11.2 -21.35,-16.7 -5.8,-0.1 -11.59,-0.4 -17.35,-1 3.78,-7.26 14.71,-9.65 14.35,-18.85 1.04,-13.68 3.48,-27.32 2.8,-41.1 -0.46,-15.24 -0.27,-30.55 -2.65,-45.65 -0.78,-4.22 -3.67,-7.59 -5.85,-11.15 -6.18,-9 -12.12,-18.27 -19.4,-26.45 -3.88,1.76 -5.81,5.85 -8.45,8.95 -3.52,-16.3 -7.97,-32.35 -11.45,-48.65 -1.02,-3.38 -1.03,-7.95 -4.95,-9.35 -9.56,-5.22 -19.43,-9.87 -28.95,-15.15 -4.74,2.86 -12.57,4.53 -12.25,11.45 -0.24,7.96 -4.25,16.91 0.85,24.05 7.2,12.22 14.31,24.49 21.45,36.75 -3.62,7.92 -3.63,16.81 -4.05,25.35 -0.2,8.8 -1.04,17.95 2.2,26.35 9.3,24.86 18.6,49.72 27.6,74.7 2,6.26 7.61,10.12 12.55,14 -3.64,5.84 -7.59,11.49 -11.65,17.05 -0.96,-0.92 -2.89,-2.81 -3.85,-3.75 0.56,-11.78 -6.8,-21.47 -10.7,-32.05 -9.84,-21.56 -14.25,-44.98 -20.85,-67.6 -4.36,-14.42 -2.02,-29.81 -5.3,-44.35 -7.58,-20.48 -18.9,-39.25 -29.3,-58.35 -5.36,10.58 -11.19,21.59 -11.25,33.75 -0.78,15.44 -2.17,30.88 -3.35,46.3 -1.82,20.64 -1.66,41.34 -3.1,62 -2.08,11.22 -10.79,20.35 -11.85,31.85 -0.26,44.72 0.31,89.45 -0.25,134.15 -4.48,16.32 -6.15,33.18 -8.55,49.9 -1.86,11.1 4.32,21.34 7,31.8 9.88,24.3 16.16,49.86 20.5,75.7 -4.96,6.14 -9.71,12.44 -14.65,18.6 4.3,10.2 14.18,19.32 12,31.2 -10.46,2.38 -20.52,6.15 -30.6,9.65 -2.3,10.9 -8.83,21.42 -7.35,32.7 6.96,17.42 15.25,34.31 22.65,51.55 6.38,1.48 13.05,1.89 19.15,4.45 3.8,3.88 4.99,9.53 6.65,14.55 1.6,7.28 6.26,13.39 7.8,20.75 -17.72,0.34 -35.37,-2.07 -53.05,-3.05 -8.46,-1.1 -17.24,-0.12 -25.5,-2.6 -5.08,-3.34 -7.41,-9.93 -13.25,-12.35 -8,-3.62 -16.39,-6.41 -24.35,-10.05 -0.3,-8.6 -1.35,-17.14 -1.95,-25.7 3.32,-4.96 7.1,-9.65 9.7,-15.05 -0.34,-5.34 -1.99,-10.56 -2.05,-15.9 1.78,-6.86 5.95,-12.75 8.45,-19.35 2.46,-5.82 1.43,-12.28 1.55,-18.4 -8.28,-6.08 -16.38,-12.39 -24.6,-18.55 3,-14.24 6.77,-28.29 10.55,-42.35 2.98,-9.32 -3.06,-18.42 -1.8,-27.8 1.22,-10.02 4.74,-19.74 4.6,-29.9 -2.46,-11.14 -7.02,-21.73 -11.1,-32.35 -9.14,-22.2 -18.12,-44.49 -27.4,-66.65 -7.8,0.04 -15.6,0.09 -23.4,0.05 -12.34,32.26 -26.67,63.89 -35.85,97.25 -0.26,13.04 5.6,25.82 3,38.9 -0.86,6.2 -3.13,12.49 -1.45,18.75 3.68,13.92 8.61,27.63 10.55,41.95 -5.1,8.6 -16.85,10.77 -22.55,18.95 -1.9,6.28 -0.35,12.99 -0.45,19.45 -0.06,7.28 4.46,13.38 6.3,20.2 0.62,5.82 -0.41,11.71 0.45,17.55 2.08,6.76 6.57,12.82 6.95,20.1 0.46,6.5 1.48,13.13 0.5,19.65 -7.38,3.68 -15.59,5.61 -22.45,10.35 -0.2,3.66 1.21,7.99 -1.35,11.15 -5.46,4.42 -12.46,6.66 -19.5,5.9 0.96,-6.14 3.22,-12.51 1.1,-18.65 -1.3,-4.66 -2.9,-9.25 -4.3,-13.85 5.4,-3.48 11.84,-2.7 17.9,-2.2 4.6,-4.14 9.63,-7.85 13.45,-12.75 1.58,-4.04 1.6,-8.46 2.2,-12.7 -8.3,-1.88 -16.81,-3.15 -24.75,-6.35 7,-2.14 14.18,-3.58 21.2,-5.6 1.18,-2.96 2.38,-5.86 3.6,-8.8 -1.66,-4.92 -2.8,-10.11 -5.4,-14.65 -9.76,-3.66 -20.59,-3.01 -30.85,-2.85 -2.52,12.24 -2.3,25.4 -8.7,36.5 -4.72,8.72 -7.53,18.42 -12.85,26.8 -5.38,2.1 -12.33,1.12 -16.25,6.1 -3.22,3.04 -3.73,7.65 -5.05,11.65 -2.94,2.34 -5.87,4.67 -8.85,6.95 -0.74,3.28 -1.44,6.53 -2.1,9.85 -4.04,0.42 -8.09,0.7 -12.15,0.9 0.62,-5.7 2.74,-11.06 6.5,-15.4 0.58,-8.04 3.79,-16.32 10.35,-21.3 5.54,-1.76 11.45,-1.66 17.15,-2.4 4.54,-8.32 9.36,-16.48 13.9,-24.8 5.76,-9.48 5.62,-20.94 6.9,-31.6 1.04,-8.2 -1.25,-16.12 -3.45,-23.9 -11.3,-4.62 -22.79,-8.79 -34.15,-13.25 -0.24,-2.88 -0.5,-5.79 -0.7,-8.65 2.38,-3.18 4.77,-6.39 7.15,-9.55 18.62,10.22 37.38,20.26 56.1,30.3 9.72,-5.54 19.52,-10.93 29.3,-16.35 0.38,-4.24 0.63,-8.51 0.85,-12.75 -12.76,2.38 -25.52,8.92 -38.7,5.3 5.94,-9.2 12.55,-17.95 18.75,-26.95 -11.54,-9.26 -23.11,-18.53 -34.55,-27.95 9.68,-7.9 19.61,-15.52 29.05,-23.7 -6.5,-3.8 -13.56,-6.75 -19.6,-11.25 -3.68,-10.84 -4.99,-22.55 -5.65,-33.95 3.36,6.26 6.43,12.73 10.45,18.65 9.72,-5.34 20.15,-9.34 29.75,-14.9 2.6,-1.36 2.39,-4.7 3.25,-7.1 4.22,-17.94 6.87,-36.16 11.05,-54.1 -3.88,-5.34 -7.79,-10.66 -11.65,-16 8.92,-2.72 17.64,-6.03 26.5,-8.95 12.14,-2.46 24.67,0.04 36.85,-2.2 4.5,-1.24 8.42,-3.9 12.5,-6.1 8,16.38 16.12,32.71 24.4,48.95 4.86,15.2 8.24,30.9 10.5,46.7 1.32,9.18 9.18,17.23 6.1,26.85 -2.12,8.26 0.13,16.62 0.85,24.9 1.68,12.56 1.33,25.3 2.85,37.9 1.62,12.4 -2.36,24.5 -4.4,36.6 11.58,3.68 22.69,8.61 34.05,12.95 11.72,-6.48 24.39,-11.44 35.05,-19.7 -3.52,-7.26 -8.44,-13.99 -10.7,-21.75 2.52,-12.9 7.34,-25.25 10.3,-38.05 -1.14,-8.74 -2.97,-17.79 -6.65,-25.85 -9.06,-11.18 -17.66,-22.75 -27.2,-33.55 7.14,-27.4 12.18,-55.36 20.3,-82.5 0.16,-17.02 -2.12,-33.93 -2.4,-50.95 -8.48,-8.78 -15.07,-19.22 -23.65,-27.9 -5.9,-2.94 -12.79,-3.38 -19.25,-4.2 -6.72,-0.8 -12.31,3.72 -17.95,6.6 -8.36,3.98 -12.88,12.46 -19.6,18.4 -13.5,-0.92 -27.07,-0.82 -40.55,-2 -13.86,-2.72 -27.67,-6.92 -39.55,-14.8 0.12,-4.74 0.27,-9.46 0.45,-14.2 -9.66,-3.18 -19.38,-6.21 -29.1,-9.25 -0.8,1.94 -1.6,3.91 -2.4,5.85 2.72,5.42 5.7,10.74 7.7,16.5 -1.7,10.88 -5.22,21.39 -7.6,32.15 -4.18,14.4 -1.37,29.55 -3.15,44.25 -3.02,7.04 -8.28,12.88 -12.4,19.3 -4.94,8.06 -16.03,6.05 -24.05,7.95 -1.54,-7.26 -2.7,-14.57 -3.2,-21.95 5.06,-1.14 10.03,-2.69 14.85,-4.65 -3.9,-29.98 -7.4,-60.05 -11.1,-90.05 7.68,-2.8 15.59,-4.96 23.15,-8.1 3.56,-1.22 2.65,-5.84 3.75,-8.7 -12.66,-4.62 -25.84,-7.84 -38.2,-13.2 1.14,-14.76 -1.62,-29.36 -1.7,-44.1 -6.02,-3.14 -16.89,-3.38 -17.45,-11.9 -3.7,-29.08 -7.53,-58.12 -11.25,-87.2 4.46,-3.34 10.24,-5.41 13.6,-9.95 -1.24,-9.68 -2.05,-20.11 -9.45,-27.35 -9.4,18.14 -20.41,35.58 -27.05,55 -2.56,14.72 -0.78,30.03 -5.3,44.45 -7.48,25.24 -11.67,51.94 -25.25,74.9 -5.22,8.7 -7.27,18.6 -8.05,28.6 4.58,6.28 10.3,11.78 14.1,18.6 1.8,9.14 1.46,18.53 2.7,27.75 3.88,4.48 7.17,9.93 6.05,16.15 -1.48,11.46 -0.89,23.01 -1.35,34.55 -6.88,-0.26 -13.72,-1.19 -20.6,-1.15 -3.38,-6.48 -6.73,-12.96 -9.55,-19.7 -2.78,-6.58 -2.56,-14.03 -5.7,-20.45 -4.18,-5.22 -12.41,-9.44 -18.65,-5.2 -4.32,3.84 -6.44,10.15 -6.1,15.85 7.96,7.58 17.45,13.35 25.85,20.45 -0.3,5.94 -0.89,11.91 -1.65,17.85 -6.34,-0.94 -12.63,-2.2 -18.95,-3.3 5.52,8.18 12.16,15.46 18.5,23 -0.14,7.08 -0.57,14.2 -1.65,21.2 -3.28,0.48 -6.54,0.92 -9.8,1.4 -5.94,-6.38 -11.24,-13.31 -17.2,-19.65 -4.38,-5.12 -12.56,-5.8 -15.5,-12.3 -9.52,-17.62 -20.12,-34.55 -30,-51.95 -2.22,-2.62 -0.33,-5.57 0.55,-8.25 4.28,6.2 7.17,13.48 12.65,18.8 9.78,9.62 19.62,19.18 29.3,28.9 2.36,2.52 5.34,4.34 8.6,5.5 -8.74,-14.76 -14.46,-30.92 -21.9,-46.3 -1.32,-9.78 -2.2,-19.72 -2.4,-29.6 8.58,-1 17.2,-0.1 25.8,0 8.5,0.06 14.07,7.71 21.45,10.85 6.5,2.62 13.34,4.29 20,6.45 0.8,-9.66 1.37,-19.32 1.95,-29 -12.18,-16.26 -24.37,-32.85 -39.55,-46.45 6.1,-5.4 13.71,-8.63 20.05,-13.65 3.9,-10.9 5.78,-22.56 10.1,-33.4 -5.88,-0.38 -11.76,-0.82 -17.6,-1.7 10.36,-23.64 21.08,-47.14 31.6,-70.7 2.04,-4.58 3.26,-9.48 4.6,-14.3 -5.86,-6.86 -11.96,-13.46 -17.2,-20.8 7.42,-3.14 15.22,-5.41 22.6,-8.65 2.56,-0.84 3.38,-3.66 4.7,-5.7 2.98,-6.06 6.3,-12.08 7.8,-18.7 -3.8,-19.34 -13.9,-36.73 -20.3,-55.25 12.64,11.04 24.98,22.46 38.2,32.8 1.26,-0.62 2.57,-1.23 3.85,-1.85 4.72,-8.88 12.26,-15.69 18.5,-23.45 -1.2,-10.32 -8.56,-18.11 -12.5,-27.35 9.26,4.6 17.71,10.7 26.35,16.3 6.12,9.68 11.49,19.88 16.85,30 24.22,-2.74 48.51,-4.98 72.75,-7.7 2.98,0.02 4.68,-2.68 6.6,-4.5 11.96,-13.58 24.3,-26.86 36.3,-40.4 0.38,-10.94 -3.24,-22.63 0.9,-33.05 5.68,5.42 7.27,13.55 10.95,20.25 9.56,-17.6 18.77,-35.35 28.15,-53.05 -8.7,-3.38 -17.89,-5.62 -26.25,-9.8 -3.3,-5.52 -3.69,-12.66 -8.45,-17.3 -9.34,-8.9 -19.42,-17.02 -28.6,-26.1 10.78,-2.48 21.69,0.21 32.45,1.55 2.16,-6.06 5.16,-12.08 5.3,-18.6 -9.04,-2.1 -18.73,-0.61 -27.35,-4.75 7.84,-8.56 20.42,-3.25 30.5,-5.45 -7.18,-3.08 -15.27,-1.61 -22.85,-1.95 -6.1,-0.46 -10.95,3.82 -16.25,6.1 0.54,-2.16 1.07,-4.34 1.65,-6.5 10.84,-1.74 21.81,-1.71 32.75,-1.85 3.76,0.36 5.39,-3.43 7.65,-5.65 -2.16,-0.96 -4.34,-1.91 -6.5,-2.85 -3.2,1.02 -6.47,1.8 -9.75,2.4 -0.64,0.36 -1.94,1.04 -2.6,1.4 -3.32,-2.82 -6.81,-5.43 -10.35,-7.95 3.5,-1.36 7.08,-2.51 10.7,-3.55 0.04,-4.06 0.13,-8.09 0.25,-12.15 1.12,-2.5 2.26,-5.03 3.1,-7.65 -2.24,-0.98 -4.6,-1.75 -6.9,-2.55 -1.62,3.24 -4.66,4.87 -7.9,6.05 -2.22,-1.66 -4.53,-3.12 -6.95,-4.4 -1.32,1.06 -3.95,3.19 -5.25,4.25 -0.74,-1.48 -2.18,-4.47 -2.9,-5.95 12.12,1.32 23.88,-2.53 36,-1.95 3.38,-2.4 6.91,-4.62 10.45,-6.8 -0.82,-1.02 -2.53,-2.98 -3.35,-4 2.48,-7.24 3.09,-14.96 1.75,-22.5 z M 931.3,570.7 c -0.44,1.8 -1.31,5.4 -1.75,7.2 7.14,8.62 16.1,15.27 24.7,22.25 -4.68,14.48 -10.07,28.93 -18.25,41.85 -3.06,4.96 -5.33,12.1 -12.15,12.7 -9.68,2 -17.63,-10.49 -11.65,-18.35 8.1,-8.4 18.93,-13.75 27.05,-22.15 -0.62,-6.34 -2.61,-14.37 -9.35,-16.75 -5.48,-1.52 -11.01,1.76 -14.65,5.6 -7.46,10.5 -10.15,23.34 -14.65,35.2 -6.78,-0.06 -13.57,-0.18 -20.35,-0.5 0.02,-1.32 0.05,-3.93 0.05,-5.25 4.46,-0.6 8.96,-1.24 13.4,-2 4.56,-9.02 9.38,-17.88 14.1,-26.8 -0.68,-2.7 -1.37,-5.37 -2.05,-8.05 3.12,-4.74 5.46,-10.13 9.3,-14.35 5.12,-3.94 10.85,-7.06 16.25,-10.6 z"
     id="path6"
     inkscape:connector-curvature="0" />
  <path
     d="m 102.96,14.96 c 152.02,0.06 304.06,0.06 456.08,0 -0.06,10.7 -0.06,21.38 0,32.08 -142.4,-0.04 -284.8,-0.06 -427.2,0 0.46,176.34 -0.08,352.7 0.34,529.06 60.56,-0.22 121.1,0.04 181.66,-0.22 0.56,9.72 0.2,19.44 -0.46,29.16 -70.14,-0.06 -140.28,-0.06 -210.42,0 0.06,-107.08 0.06,-214.14 0,-321.22 -29.58,0.48 -59.18,-0.18 -88.76,0.36 -0.46,-11.74 -0.44,-23.48 -0.14,-35.22 29.66,0.08 59.3,-0.02 88.96,0.06 C 102.94,171 103.06,92.98 102.96,14.96 z"
     id="path8"
     inkscape:connector-curvature="0"
     style="fill:#f5e5c1" />
  <path
     d="m 702.66,62.96 c 0.94,6.34 1.68,12.8 0.98,19.22 -1.64,2.4 -3.92,4.26 -5.9,6.34 -2.82,-1.34 -5.62,-2.68 -8.42,-4.02 -0.16,-3.18 -0.04,-6.4 -0.6,-9.54 -2.26,-3.46 -5.22,-6.42 -7.74,-9.7 7.28,-1.02 16.3,4.86 21.68,-2.3 z"
     id="path12"
     inkscape:connector-curvature="0"
     style="fill:#f5e5c1" />
  <path
     d="m 740.58,162.74 c 8.04,-9.46 13.56,-23.54 26.9,-26.38 16.94,8.92 33.2,19.16 49.92,28.5 5.22,3.18 11.02,5.6 15.6,9.72 0.68,5.42 1.06,11.42 -2.4,16.04 -17.36,26.96 -32.7,55.14 -49.22,82.6 -15.78,23.54 -32.16,46.68 -48.06,70.14 -7.42,11.62 -18.86,19.68 -28.2,29.6 -9.62,9.12 -17.42,20.42 -29.02,27.24 -25.94,16.32 -52.44,31.74 -79,47.04 -17.7,7.8 -36.02,14.14 -53.9,21.54 -5.12,-29.26 -10.98,-58.4 -15.1,-87.8 25.58,-15.42 51.32,-30.58 77.06,-45.72 6.18,-3.72 12.8,-6.94 17.96,-12.12 6.26,-6.5 14.34,-10.92 20.12,-17.9 8.82,-9.92 16.56,-20.72 25.66,-30.4 8.12,-9.92 17.82,-18.68 24.14,-29.96 15.88,-27.36 31.1,-55.12 47.54,-82.14 z"
     id="path14"
     inkscape:connector-curvature="0"
     style="fill:#f5e5c1" />
  <path
     d="m 565.88,335.34 c 15.76,-5.92 32.06,-10.72 48.64,-13.76 -21.28,14.6 -44.3,26.54 -66.24,40.12 0.46,-13.58 1.82,-27.1 2.8,-40.62 5.84,3.72 10.84,8.56 14.8,14.26 z"
     id="path16"
     inkscape:connector-curvature="0"
     style="fill:#f5e5c1" />
  <path
     d="m 762.4,340.48 c 9.02,-7.46 21.46,-8.76 32.42,-5.36 -4.88,37.28 -8.8,74.74 -14.3,111.9 -18.26,24.66 -38.6,47.84 -57.64,71.96 -3.52,4.18 -6.9,9.78 -13.08,9.74 -32.6,2.48 -65.16,6.2 -97.84,7.44 -19.26,-3.2 -36.62,-12.64 -54.64,-19.64 4.24,-10.46 7.68,-21.22 11.7,-31.76 1.76,-5.28 7.6,-7.14 11.76,-10.14 37.04,-23.26 74.36,-46.08 111.08,-69.82 7.86,-12.14 19.44,-21.22 28.86,-32.08 11.16,-13.94 27.74,-21.56 41.68,-32.24 z"
     id="path18"
     inkscape:connector-curvature="0"
     style="fill:#f5e5c1" />
  <path
     d="m 135.96,651.24 c 65.4,-0.54 130.82,-0.12 196.22,-0.2 -0.28,11.6 -0.38,23.22 -0.02,34.82 -52.38,0.24 -104.74,0.1 -157.12,0.02 -0.06,84.76 -0.08,169.52 0,254.3 90.66,-0.36 181.32,0.08 271.96,-0.28 0.28,10.42 -0.46,20.84 -1.3,31.22 -102.96,-0.26 -205.92,-0.12 -308.86,-0.06 -2.02,-20.3 -0.08,-40.72 -0.9,-61.06 0.04,-26.72 0.16,-53.42 -0.12,-80.14 -36,0.18 -72,0.3 -108,0 0.4,-12.94 0.36,-25.88 0,-38.82 36.08,-0.08 72.16,-0.02 108.26,-0.04 -0.14,-46.58 -0.12,-93.18 -0.12,-139.76 z"
     id="path22"
     inkscape:connector-curvature="0"
     style="fill:#f4722b" />
  <path
     d="m 739.74,894.32 c 8.94,-1.26 17.94,-4.76 27.04,-3.22 3.22,4.4 5.04,9.62 7.34,14.56 6.54,15.2 13.46,30.22 20.24,45.32 -14.1,1.08 -30,-3.64 -42.02,6.06 -7.66,-2.34 -15.52,-3.9 -23.28,-5.8 -0.12,-5.46 -1.16,-10.98 -0.16,-16.36 2.58,-5.36 6.5,-9.92 10.04,-14.66 -1.46,-4.68 -3.32,-9.34 -3.64,-14.26 1.06,-4.04 2.84,-7.82 4.44,-11.64 z"
     id="path24"
     inkscape:connector-curvature="0"
     style="fill:#f5e5c1" />
  <path
     d="m 782.92,957.2 c 10,-2.54 20.48,-2.44 30.76,-2.12 2.84,5.5 4.7,11.44 5.84,17.54 -19.5,-0.38 -38.96,-1.32 -58.44,-2 6.98,-4.88 13.82,-10.28 21.84,-13.42 z"
     id="path26"
     inkscape:connector-curvature="0"
     style="fill:#f5e5c1" />
</svg>
