<?xml version="1.0" encoding="UTF-8" standalone="no"?>
<svg
   xmlns:dc="http://purl.org/dc/elements/1.1/"
   xmlns:cc="http://creativecommons.org/ns#"
   xmlns:rdf="http://www.w3.org/1999/02/22-rdf-syntax-ns#"
   xmlns:svg="http://www.w3.org/2000/svg"
   xmlns="http://www.w3.org/2000/svg"
   xmlns:sodipodi="http://sodipodi.sourceforge.net/DTD/sodipodi-0.dtd"
   xmlns:inkscape="http://www.inkscape.org/namespaces/inkscape"
   width="1280"
   height="1280"
   viewBox="0 0 1024 1024"
   version="1.1"
   id="svg2"
   inkscape:version="0.48.1 "
   sodipodi:docname="kill_underwater.svg">
  <metadata
     id="metadata28">
    <rdf:RDF>
      <cc:Work
         rdf:about="">
        <dc:format>image/svg+xml</dc:format>
        <dc:type
           rdf:resource="http://purl.org/dc/dcmitype/StillImage" />
      </cc:Work>
    </rdf:RDF>
  </metadata>
  <defs
     id="defs26" />
  <sodipodi:namedview
     pagecolor="#ffffff"
     bordercolor="#666666"
     borderopacity="1"
     objecttolerance="10"
     gridtolerance="10"
     guidetolerance="10"
     inkscape:pageopacity="0"
     inkscape:pageshadow="2"
     inkscape:window-width="1920"
     inkscape:window-height="1018"
     id="namedview24"
     showgrid="false"
     inkscape:snap-page="true"
     inkscape:zoom="0.6609375"
     inkscape:cx="466.00473"
     inkscape:cy="640"
     inkscape:window-x="-8"
     inkscape:window-y="-8"
     inkscape:window-maximized="1"
     inkscape:current-layer="layer2"
     fit-margin-top="0"
     fit-margin-left="0"
     fit-margin-right="0"
     fit-margin-bottom="0" />
  <g
     inkscape:groupmode="layer"
     id="layer2"
     inkscape:label="background">
    <rect
       style="fill:#3e3e3e;fill-opacity:1;stroke:none"
       id="rect3008"
       width="1024"
       height="1024"
       x="9.7699626e-014"
       y="0" />
  </g>
  <g
     inkscape:groupmode="layer"
     id="layer1"
     inkscape:label="foreground">
    <path
       d="m 466.25,33.05 c -4.6175,-0.02 -9.17,0.28 -13.55,1.9 -13.48,4.78 -23.47,16.43 -28.95,29.35 -6.1,13.74 -6.63,29.3 -4.45,44 3.42,17.86 13.88,35.88 31.3,43.1 9.24,4.3 19.66,2.52 29.5,2.9 9.72,0.44 19.19,-3.52 26.65,-9.6 6.8,-5.8 10.38,-14.31 13.6,-22.45 7.34,-20.52 7.13,-43.87 -1.25,-64.05 -7.1,-14.46 -22.36,-26.03 -39,-25.05 -4.55,0.28 -9.2325,-0.08 -13.85,-0.1 z m -15.1,11.25 c 4.35374,-0.31969 8.84,1.19 11.9,4.4 11.02,10.58 14.09,26.69 14.85,41.35 0.38,15 -1.86,30.85 -10.4,43.55 -4.1,6.32 -11.81,11.44 -19.55,8.9 -8.34,-3.38 -13.23,-11.73 -16.35,-19.75 -6.06,-16.92 -6.4,-35.82 -1.7,-53.1 2.96,-9.48 7.5,-19.94 17,-24.4 1.37,-0.515 2.79875,-0.84344 4.25,-0.95 z"
       id="path6"
       style="fill:#f5e5c1"
       inkscape:connector-curvature="0" />
    <path
       d="m 530.32,58.62 c 11.22,7.7 24.74,12.78 32.86,24.26 7.46,9.78 19.34,17.82 20.56,31.02 3.42,20.66 6.8,41.32 10.52,61.94 0.92,11.36 1.72,22.74 2.34,34.14 -0.2,49.76 1.62,99.48 2.26,149.22 -24.12,1.12 -48.2,3.08 -72.32,4.06 3.32,-57.06 6.4,-114.12 9.94,-171.14 2.88,-18.8 -7.56,-35.9 -10.2,-54.08 13.42,-24.06 15.48,-54.16 4.04,-79.42 z"
       id="path10"
       inkscape:connector-curvature="0"
       style="fill:#f5e5c1" />
    <path
       d="m 0,202.86 c 2.66,-3.42 5.52,-6.68 8.34,-9.98 15.08,21.82 31.9,44.08 56.02,56.46 16,7.06 34.28,11.8 51.62,7.06 19.74,-3.26 37.12,-14 52.9,-25.78 13.6,-11.34 26.38,-23.76 37.2,-37.8 7.68,12.36 17.48,23.12 26.88,34.12 8.66,9.74 19.84,16.66 31.16,22.86 6.74,3.52 14.4,4.44 21.58,6.7 8.16,0.24 16.34,0.26 24.52,0 37.06,-7.68 67.14,-33.66 89.96,-62.68 9.48,11.88 17.38,25.1 28.64,35.52 16.5,17.04 39.38,28.66 63.32,29.2 5.58,0.46 11.02,-1.76 16.54,-1.38 0.64,13.26 -0.5,26.52 -1.42,39.76 -24.02,5.04 -49.28,-2.98 -68.16,-18.06 -15.76,-12.3 -27.24,-28.8 -38.88,-44.78 -19.48,24.68 -43.72,46.82 -73.56,58 -19.76,7.22 -42.22,6.62 -61.6,-1.56 -12.58,-6.64 -24.82,-14.52 -34.04,-25.5 -8.64,-10.36 -17.98,-20.2 -24.92,-31.84 -18.8,23.54 -41.64,44.76 -69.36,57.22 -25.4,11.3 -56.34,9.96 -79.96,-5.08 -20.2,-13.04 -35,-32.54 -48.5,-52.06 -2.8,3.26 -5.64,6.5 -8.28,9.9 l 0,-40.3 z"
       id="path12"
       inkscape:connector-curvature="0"
       style="fill:#f5e5c1" />
    <path
       d="m 718.38,249.88 c 29.96,-11.04 55.02,-32.52 74.94,-57.06 7.18,11.76 16.26,22.2 25.32,32.54 17.26,20 42.78,33.02 69.42,33.08 13.56,-1.5 27.14,-4.7 39.34,-10.96 25.2,-12.86 46.12,-32.74 63.66,-54.68 9.34,14.56 20.68,27.88 32.94,40.08 l 0,40.36 c -12.4,-12.12 -23.2,-25.8 -33.28,-39.88 -9.58,12.7 -21.12,23.68 -32.92,34.28 -20.34,16.48 -44.82,30.62 -71.8,30.24 -25.16,0.66 -48.82,-12.16 -65.62,-30.2 -9.46,-11.02 -19.48,-21.72 -26.8,-34.34 -12.84,14.52 -26.4,28.74 -42.5,39.72 -13.92,8.7 -28.38,17.94 -45.08,19.82 -26.08,6.22 -53.74,-3.92 -73.52,-21.12 -5.18,-4.92 -13,-9.5 -12.56,-17.64 -0.34,-11.96 -0.14,-23.92 -0.56,-35.88 15.36,18.2 36.76,32.48 60.76,35.48 12.8,2.76 25.86,-0.7 38.26,-3.84 z"
       id="path14"
       inkscape:connector-curvature="0"
       style="fill:#f5e5c1" />
    <path
       d="m 0,259.38 c 1.46,-0.38 4.38,-1.12 5.84,-1.5 5.14,9.94 14.04,16.88 21.02,25.4 19.52,18.66 45.58,32 73.1,31.44 24.52,0.86 48.2,-8.86 68.18,-22.46 13.88,-8.76 25.14,-20.8 37.06,-31.94 9.1,10.38 17.22,21.84 28.22,30.36 5.8,4.3 12.02,7.98 18.16,11.76 19.18,10.94 41.98,13.46 63.58,10.4 32.74,-7.04 61.66,-27 83.76,-51.68 16.1,19.32 33.92,39.34 58.64,47.28 15.02,7.88 32.42,6.24 48.78,6 -1.06,12.7 -1.24,25.46 -2.12,38.18 0.34,3.3 -4.18,2.58 -6.18,3.34 -19,2.44 -38.18,3.52 -57.04,6.9 -12.7,1.88 -19.28,14.12 -27.66,22.38 -6.86,6.4 -8,16.06 -8.9,24.88 -3.9,52.1 -8.58,104.14 -12.18,156.26 -12.86,-0.46 -25.12,4.14 -37.64,6.34 -30.26,5.74 -59.96,14.02 -89.6,22.38 -22.08,6.48 -43.36,15.3 -64.64,24 -15.42,-29.32 -33.42,-57.16 -49.54,-86.08 -6.06,-11.78 -15.5,-22.48 -27.9,-27.66 -10.98,-4.28 -22.2,1.16 -32.44,4.96 -7.96,3.44 -16.76,5.3 -23.94,10.34 -6.84,4.86 -8.58,13.5 -11.02,20.98 -2.02,7.22 -5.32,14.62 -3.58,22.24 5.14,24.54 11.48,48.78 17.24,73.16 2.4,10.18 6.42,20.16 6.3,30.78 -0.08,9.18 2.64,18.04 3.88,27.08 -15.1,12.32 -22.6,31.94 -23.54,51.04 -0.12,22.02 10.54,42.9 25.96,58.2 C 73,818.06 70.86,837.28 79,852 c -2.4,25.3 -6.46,50.42 -9.28,75.68 -0.98,9.86 -3.84,20.02 -0.8,29.8 2.06,7.66 8.88,13.48 16.52,15.18 20.16,5.04 40.26,10.34 60.44,15.34 10.16,2.78 21.44,-2.52 26.44,-11.62 19.4,-33.42 37.94,-67.32 57.4,-100.7 17.96,4.28 35.62,9.7 53.8,13.12 26.4,6.1 53.4,8.7 80.24,12.12 43.86,5.1 88.04,7.22 132.18,7.54 8.64,0.5 17.24,1.76 25.94,1.7 44.66,0 89.34,-0.02 134.02,0.02 15.54,0.36 30.76,-3.26 46.22,-4.14 39.32,-4.72 78.76,-10.1 116.94,-20.94 23.74,-6.78 47.18,-14.76 70,-24.22 33.56,-16.04 67.16,-36.18 88.48,-67.54 11.74,-16.48 14.56,-37.24 16.36,-56.88 1.72,-16.5 -1.1,-33.08 -5.48,-48.94 -8.3,-19.2 -21.08,-35.92 -33.4,-52.64 -4.34,-5.9 -10.94,-9.38 -17.24,-12.72 -13.24,-6.78 -25.12,-16.42 -39.8,-20.04 -30.72,-11.14 -62.72,-17.98 -94.44,-25.5 -21.58,-3.18 -43.36,-4.9 -65,-7.68 1.1,-16.48 -2.8,-32.58 -5.08,-48.78 -3.06,-23.92 -8.1,-47.56 -10.8,-71.54 -2.12,-15.94 -5.26,-31.74 -9.72,-47.2 -2.9,-13.68 -10.58,-26.02 -20.12,-36.06 -10.18,-10.52 -25.38,-11.42 -38.48,-15.88 -10.58,-3.64 -21.84,-2.82 -32.82,-2.66 0.04,-20.94 -0.9,-41.84 -0.9,-62.78 19.18,16.68 43.7,27.56 69.38,27.5 20.46,-0.46 41.1,-5.78 58.32,-17.12 16.76,-8.48 30.68,-21.34 43.82,-34.58 5.36,10.24 14.72,17.26 22.24,25.78 10.62,8.32 21,17.68 34.1,21.88 24.68,10.48 53.6,9.5 78.14,-0.94 24.58,-10.06 45.24,-27.42 63.52,-46.32 10.36,10.9 17.92,26.48 33.86,29.98 L 1024,1024 0,1024 0,259.38 z"
       id="path16"
       inkscape:connector-curvature="0"
       style="fill:#f4722b" />
    <path
       style="fill:#f5e5c1"
       d="m 634.85,369.7 c -6.24728,0.11264 -12.5875,0.93438 -18.8,0.65 -16.7,-1.52 -33.37,1.25 -50.05,2.15 -40.92,1.68 -81.36,8.6 -122,13.2 -5.04,5.64 -10.5,10.98 -15,17.1 -2.22,6.14 -1.5,12.91 -2.2,19.35 -4.8,56.3 -8.87,112.67 -13.95,168.95 8.9,3.3 17.69,7.32 27.05,9.1 26.06,2.18 52.31,3 78.25,6 -29.28,1.52 -58.62,3.55 -87.9,4.45 -12.94,-5.92 -25.16,-13.37 -38.1,-19.25 -34.08,6.64 -67.96,14.63 -102,21.65 -29.56,5.68 -57.33,17.72 -85.05,29 2.26,10.34 4.71,20.66 7.75,30.8 -25.32,12.18 -51.68,22.03 -76.6,35.05 20.1,-16.44 41.02,-31.84 61.5,-47.8 -6.18,-11.64 -13.93,-22.34 -19.85,-34.1 -16.14,-29.5 -34.08,-57.99 -50.5,-87.35 -2.8,-5.12 -7.44,-8.9 -12.3,-12 -11.9,3.68 -23.66,8.13 -35.2,12.85 -1.34,6.34 -3.75,12.34 -5.45,18.6 0.56,7.48 3.09,14.69 4.45,22.05 9.74,40.7 20.23,81.22 30.05,121.9 -8.62,6.92 -19.79,11.79 -24.25,22.65 -10.34,17.66 -5.84,40.58 7,55.7 6.06,8.2 16.64,14.39 16.9,25.65 -6.02,48.22 -12.94,96.33 -18.2,144.65 20.46,5.22 40.94,10.47 61.4,15.75 21.9,-39.26 44.63,-78.04 66.15,-117.5 -20.04,-10.84 -39.83,-22.11 -59.75,-33.15 -7.34,-4.3 -15.19,-7.75 -22.05,-12.85 34.12,9.94 68.36,19.5 102.6,29 -3.02,6.26 -6.03,12.52 -9.05,18.8 12.96,2.88 25.04,8.63 38.1,11.15 76.1,17.02 154.32,23.46 232.2,23.2 4.08,0.16 7.98,1.8 12.1,1.8 51.96,-0.04 103.89,-0.02 155.85,0 6.76,-0.84 13.45,-2.54 20.35,-2.6 64.34,-5.9 128.92,-17.88 188.5,-43.6 30.86,-14 62.2,-31.62 81.6,-60.3 10.18,-14.04 10.69,-31.96 12.65,-48.5 1.42,-12.5 -2.06,-24.7 -4.6,-36.8 -7.46,-16.74 -18.7,-31.36 -29.7,-45.9 -4.62,-4.32 -10.62,-6.74 -15.9,-10.1 -8.78,-4.76 -16.86,-11.08 -26.6,-13.8 -18.42,-5.58 -36.32,-13 -55.2,-17 -12.68,-2.96 -25.33,-6.1 -38.05,-8.9 -23.92,-3.32 -48.02,-4.8 -71.9,-8.4 -0.92,3.24 -1.84,6.47 -2.7,9.75 -8.64,4.12 -17.1,9.16 -26.4,11.6 -16.64,1.04 -33.27,4.59 -49.95,2.45 -22.18,-2.26 -44.45,-3.73 -66.65,-5.85 26.86,-1.84 53.8,-1.91 80.7,-2.65 7.92,-0.08 15.16,-3.52 22.6,-5.8 9.28,-3.2 18.82,-5.78 27.9,-9.6 -0.42,-13.54 1.18,-27.08 0.3,-40.6 -6.16,-40.32 -12.45,-80.68 -18.65,-121 -3.84,-16.32 -6.69,-34.1 -18.75,-46.7 -7.08,-7.6 -18.3,-7.12 -27.4,-10.7 -4.1175,-1.57501 -8.33238,-2.11282 -12.6,-2.2 -0.88909,-0.0182 -1.75754,-0.0161 -2.65,0 z m 1.6,12.75 c 5.7575,-0.03 11.51,0.08 17.25,0.4 6.04,1.96 11.98,4.49 17.6,7.45 5.52,7.36 11.43,15.35 12.15,24.85 1.7,12.56 4.75,24.91 5.85,37.55 -5.84,-11.68 -10.33,-24.02 -16.55,-35.5 -4.06,-5.26 -8.41,-10.36 -13.15,-15 -12.16,-8.94 -26.94,-12.99 -40.4,-19.45 5.75,-0.12 11.4925,-0.27 17.25,-0.3 z m 128.8,232.6 1.35,2.5 c 15,-2.96 30.18,0.04 45.2,1 10.68,1.36 21.81,0.13 32.15,3.75 37.9,11.44 75.19,29.8 101.95,59.7 7.44,7.52 8.96,18.37 12.1,28.05 -43.56,-46.72 -104.22,-74.1 -165.9,-87.4 -8.88,-1.8 -17.77,-3.83 -26.85,-4.05 -0.06,-1.2 -0.04,-2.39 0,-3.55 z"
       id="path18"
       inkscape:connector-curvature="0" />
  </g>
</svg>
