<?xml version="1.0" encoding="UTF-8" standalone="no"?>
<svg
   xmlns:dc="http://purl.org/dc/elements/1.1/"
   xmlns:cc="http://creativecommons.org/ns#"
   xmlns:rdf="http://www.w3.org/1999/02/22-rdf-syntax-ns#"
   xmlns:svg="http://www.w3.org/2000/svg"
   xmlns="http://www.w3.org/2000/svg"
   xmlns:sodipodi="http://sodipodi.sourceforge.net/DTD/sodipodi-0.dtd"
   xmlns:inkscape="http://www.inkscape.org/namespaces/inkscape"
   width="1280"
   height="1280"
   viewBox="0 0 1024 1024"
   version="1.1"
   id="svg2"
   inkscape:version="0.48.1 "
   sodipodi:docname="kill_medic_pair.svg">
  <metadata
     id="metadata20">
    <rdf:RDF>
      <cc:Work
         rdf:about="">
        <dc:format>image/svg+xml</dc:format>
        <dc:type
           rdf:resource="http://purl.org/dc/dcmitype/StillImage" />
      </cc:Work>
    </rdf:RDF>
  </metadata>
  <defs
     id="defs18" />
  <sodipodi:namedview
     pagecolor="#ffffff"
     bordercolor="#666666"
     borderopacity="1"
     objecttolerance="10"
     gridtolerance="10"
     guidetolerance="10"
     inkscape:pageopacity="0"
     inkscape:pageshadow="2"
     inkscape:window-width="1920"
     inkscape:window-height="1018"
     id="namedview16"
     showgrid="false"
     fit-margin-top="0"
     fit-margin-left="0"
     fit-margin-right="0"
     fit-margin-bottom="0"
     inkscape:zoom="0.6609375"
     inkscape:cx="466.00473"
     inkscape:cy="640"
     inkscape:window-x="-8"
     inkscape:window-y="-8"
     inkscape:window-maximized="1"
     inkscape:current-layer="layer1"
     inkscape:snap-page="true" />
  <g
     inkscape:groupmode="layer"
     id="layer1"
     inkscape:label="background">
    <rect
       style="fill:#3e3e3e;fill-opacity:1;fill-rule:nonzero;stroke:none"
       id="rect2997"
       width="1280"
       height="1280"
       x="0"
       y="0"
       transform="scale(0.8,0.8)" />
  </g>
  <g
     inkscape:groupmode="layer"
     id="layer2"
     inkscape:label="foreground">
    <path
       d="m 327.28,77.92 c 6.2,-17.86 20.96,-34.7 40.8,-36.34 15.4,-1.56 33.82,1.54 42.86,15.54 6.66,8.5 5.56,19.98 10.58,29.2 5.46,11.36 10.9,22.76 16.08,34.26 5.54,10.52 14.2,18.96 22.38,27.44 10.36,12.98 20.28,26.32 30.7,39.26 1.86,2.56 4.34,5.02 4.42,8.4 2.2,34.78 3.62,69.62 6.06,104.38 0.3,5.8 0.38,11.78 -1.82,17.28 -5.06,14.2 -10.1,28.4 -15.2,42.6 -2.9,8.08 -0.8,16.98 -3.44,25.14 -3.64,10.78 -7.48,21.5 -11.02,32.32 -4.56,14.76 -0.48,30.52 -2.88,45.44 -12.24,19.26 -17.88,42.2 -32.28,60.16 1.04,7.66 7.74,16.9 1.02,23.42 2.04,19.2 2.1,38.54 3.24,57.8 -1.48,9.76 -7.5,18.18 -10.22,27.64 -1.42,5.86 -7.06,9.08 -9.72,14.18 -1.52,10.62 1.48,21.22 2.48,31.78 2.02,12.34 1.96,25.12 5.88,37.1 4.86,12.38 9.86,24.7 14.78,37.06 5.08,12.14 5.52,25.5 7.8,38.32 1.28,10.5 3.7,20.92 3.92,31.54 -1.44,5.04 -5.06,9.1 -6.78,14.04 0.06,3.24 0.52,6.46 0.88,9.7 -3.74,2.38 -9.68,3.16 -10.8,8.16 -3.22,11.76 -2.1,24.16 -2.88,36.22 -0.3,6.68 -1.42,13.44 -0.58,20.14 3.58,7.98 9.48,14.7 13.06,22.7 1.74,5.18 2.26,10.66 3.12,16.04 l -3.98,0.78 c 0.98,0.38 2.9,1.12 3.88,1.5 -0.1,4.9 -0.16,9.8 -0.3,14.7 -6,0.72 -12.66,-6.22 -17.2,0.14 -3.88,0.24 -7.76,0.44 -11.66,0.5 -3.26,-3.38 -7.38,-3.16 -10.64,0.12 -1.74,0.08 -3.48,0.16 -5.22,0.26 -0.12,-3.34 -0.3,-6.68 -0.44,-10 -8.7,2.08 -17.16,5.02 -25.72,7.62 -0.66,0.76 -1.98,2.28 -2.64,3.02 -17.2,-0.18 -34.38,1.1 -51.56,1.08 -10.34,-3.44 -19.9,-8.84 -30.06,-12.74 4.18,-5.42 6.34,-12.02 10.22,-17.62 2.84,-1.74 6.24,-2.16 9.38,-3.16 11.04,4.16 24.82,4.96 34.34,-3.04 10.52,-8.2 22.52,-14.6 32.14,-23.82 6,-16.36 5.8,-34.02 2.14,-50.88 -11.12,-6.7 -23.92,-9.8 -35.62,-15.24 2.1,-6.02 4.54,-11.92 6.96,-17.82 -1.72,-3.22 -4.3,-6.14 -5.02,-9.76 2.92,-9.68 9.36,-18.24 10.02,-28.6 1.06,-13.96 6.86,-28.78 0.28,-42.2 -3.78,-2.1 -9.76,-2.82 -10.46,-7.98 -3.72,-14 -6.92,-28.18 -11.92,-41.84 9.1,-3.04 19.7,-2.44 27.94,-7.52 8.54,-15.92 14.56,-33.16 22.26,-49.54 1.94,-5.1 5.64,-10.12 4.66,-15.84 -1.6,-13.08 -4.3,-26.06 -5.22,-39.24 1.06,-7.92 4.48,-15.28 6.68,-22.92 12.04,-39.28 25.56,-78.06 39.08,-116.82 2.56,-5.86 -1.34,-11.82 -4.16,-16.8 -9.96,23.8 -18.96,47.98 -29.16,71.66 -7.7,16.92 -15.58,33.78 -23.48,50.6 -1.78,3.28 -2.08,7 -1.92,10.68 -1.96,-3.02 -4.02,-5.96 -6.18,-8.82 1.74,7.74 8.02,13.14 11,20.24 1.7,11.42 2.44,22.98 4.1,34.42 0.58,7.18 2.8,14.84 -0.38,21.76 -6.12,13.9 -12.46,27.7 -18.52,41.62 -1.38,2.38 -1.98,5.92 -5.14,6.56 -8.22,2.54 -16.72,4.16 -24.98,6.66 -3.46,-1.38 -6.94,-2.74 -10.36,-4.22 0.28,-3.6 0.44,-7.2 0.48,-10.78 -3.1,4.96 -5,10.52 -6.84,16.04 -7.74,0.66 -15.16,-1.72 -22.52,-3.66 -0.94,-1.78 -1.88,-3.54 -2.8,-5.28 3.24,-11.98 9.3,-23.14 10.84,-35.56 -9.12,15.26 -13.84,32.8 -22.6,48.28 -2.6,4.72 -8.8,4.5 -13.24,6.36 -3.98,-1.92 -8.36,-3.26 -11.82,-6.1 -4.34,-13.14 4.64,-24.94 8.46,-36.94 4.76,-14.72 8.16,-29.86 12.34,-44.76 -11.88,9.04 -13.2,24.8 -21,36.6 -3.92,0.7 -7.92,0.34 -11.86,0.2 0.24,-14.98 0.36,-29.94 0.96,-44.88 0,-3.32 2.52,-5.7 4.36,-8.16 6.92,-8.46 14,-16.76 20.86,-25.28 6.5,-9.74 19.78,-8.46 28.9,-14.4 2.76,-10.8 5.9,-21.5 8.84,-32.24 0.78,-5.18 0.82,-10.42 1.48,-15.6 5.7,-17.46 10.5,-35.22 15.9,-52.8 5.86,-24.8 20.78,-45.94 31.22,-68.9 -10.64,10.22 -19.22,22.24 -28.6,33.54 -4.14,4.56 -5.52,10.68 -7.5,16.34 -10.86,31.96 -22.12,63.78 -32.96,95.74 -1.1,2.44 -1.52,5.8 -4.46,6.74 -6.2,3.1 -12.74,5.4 -19.26,7.68 -5,-40.9 -10.52,-81.76 -15.42,-122.66 7.56,-26.88 20.34,-52.24 31.2,-78.02 2.76,-7.06 7.04,-13.96 7.18,-21.72 -2.4,-9.72 -6.48,-18.94 -9.76,-28.4 11.28,-18.96 22.02,-38.24 33.3,-57.18 3.82,-6.04 9.62,-10.38 14.56,-15.42 10.58,-9.5 19.76,-20.62 31.4,-28.88 -0.12,-10.6 -0.32,-21.2 -0.12,-31.8 -10.2,-1.16 -20.44,-2.08 -30.58,-3.72 2.5,-9.58 4.76,-19.42 1,-29.06 1.92,-4.62 3.98,-9.18 6.2,-13.68 -2.9,-0.8 -5.78,-1.64 -8.66,-2.52 1.22,-8.48 4.06,-16.62 9.02,-23.68 -1.02,-0.96 -3.06,-2.9 -4.08,-3.86 z"
       id="path6"
       inkscape:connector-curvature="0"
       style="fill:#f5e5c1" />
    <path
       d="m 663.76,59.64 c 6.16,-5.34 14.36,-6.84 21.9,-9.24 12.78,5.1 25.2,12.32 39.34,12.46 0.14,2.8 0.28,5.58 0.4,8.38 5.6,8.6 7.76,18.86 7.54,29.04 -1.56,2.54 -2.6,5.32 -1.44,8.32 1.54,-3.48 3,-7.02 4.6,-10.48 -0.54,3.92 -1.28,7.8 -2.18,11.66 2.02,6.08 5.16,11.82 6.18,18.2 -1.76,2.74 -5.62,2.68 -8.34,3.98 0.72,5.08 1.16,10.18 1.5,15.3 -2.26,5.1 -1.64,10.66 -1.96,16.04 -8.1,8.34 -21,3.54 -31.26,5.34 -0.12,2.52 -0.22,5.04 -0.32,7.54 5.34,3.18 11.86,5.36 15.22,10.98 8.26,13.1 16.28,26.34 24.48,39.46 3.46,5.12 4.32,11.32 5.62,17.22 5.84,28.66 13.04,57.14 15.78,86.32 0.2,15.4 -1.78,30.88 0.62,46.2 -1.24,2.02 -2.48,4.06 -3.7,6.1 1.98,0.46 3.96,0.9 5.96,1.38 0.04,9.56 -0.36,19.1 -0.84,28.64 -12.42,-9.38 -25.88,-17.44 -37.9,-27.3 -3.18,-7.08 -4.84,-14.74 -7.28,-22.08 -5.68,-19.12 -12.34,-37.94 -17.4,-57.22 -0.9,-3.82 -2.64,-7.34 -4.72,-10.62 5.24,30.26 13.64,59.86 19.9,89.92 1.04,8.6 9.38,12.84 15.04,18.26 20.7,16.5 40.6,33.98 61.26,50.54 10.08,-0.3 20.24,-2.1 30.3,-0.66 7.38,7.1 12.88,15.84 18.52,24.3 7.82,11.3 20.76,17.92 28.16,29.54 -2.68,4.72 -5.28,9.48 -7.78,14.28 -3.56,0.72 -7.1,1.44 -10.64,2.14 -2.58,-1.62 -5.14,-3.22 -7.7,-4.82 0.22,2.34 0.44,4.7 0.68,7.06 -5.18,4.32 -8.62,13.4 -16.74,11.52 -0.3,1.06 -0.88,3.18 -1.16,4.26 -8.28,3.78 -16.56,7.84 -25.5,9.76 -4.26,-0.62 -7.62,-3.82 -11.32,-5.8 -6.2,-4.22 -13.18,-6.94 -19.82,-10.32 -11.1,-8.42 -16.94,-21.66 -25.94,-31.98 -18.98,-15.76 -38.36,-31.1 -57.46,-46.72 -13.4,-10.44 -24.7,-23.22 -36.34,-35.52 -0.96,0.04 -2.9,0.14 -3.86,0.18 -2.02,-1.84 -4.04,-3.64 -6.08,-5.42 1.9,8.66 8.28,14.78 14.74,20.34 31.18,28.94 59.78,60.54 89.62,90.84 0.32,18.62 -12.82,34.34 -12.3,53.04 -3.28,31.24 -1.88,62.66 -3.58,93.98 -0.24,27.8 -1.3,55.58 -1.98,83.38 -17.6,12.06 -35.78,23.2 -53.64,34.86 5.02,17.4 8.12,35.28 10.8,53.18 -9.28,-1.02 -18.42,-2.86 -27.58,-4.64 -4.2,21.76 -10.72,43.76 -7.9,66.14 8.34,7.66 17.86,14 26.64,21.18 5.78,4.88 13.12,8.46 16.66,15.48 5.64,2.52 11.32,5.18 17.42,6.48 10.66,0.06 21.24,-1.82 31.92,-1.98 2.32,5.94 4.88,11.8 7.2,17.76 -13.74,1.74 -27.16,6.28 -41.14,5.72 -13.96,-0.04 -27.92,-0.76 -41.86,-0.7 -15.64,1.12 -28.64,-10.88 -44.34,-9.58 -0.28,2.9 -0.56,5.8 -0.84,8.72 -12.52,-0.12 -25.04,-0.18 -37.56,-0.32 0.06,-6.18 0.58,-12.34 1.62,-18.44 -1.64,-8.4 -0.9,-17.04 -0.1,-25.5 1.44,-11.62 10.74,-20.02 13.76,-31.06 7.4,-21.28 5.44,-44.1 4.94,-66.2 -13.22,-4.02 -25.84,-9.8 -38.18,-16 -11.92,-6.78 -23.3,-14.48 -35.12,-21.44 20.88,-53.46 42.08,-106.78 63.1,-160.2 3.12,-8.32 7.14,-16.36 9.12,-25.06 6.54,-33.98 13.26,-67.94 20.04,-101.88 2.18,-9.3 -1.22,-18.6 -1.3,-27.94 0,-6.02 0.32,-12.04 -0.22,-18.04 -8.3,-0.7 -16.64,-0.98 -24.84,-2.28 -3.6,-0.36 -5.9,-4.26 -5.6,-7.64 0.42,-14.06 2.36,-28.06 2.1,-42.14 -1.36,1.52 -4.06,4.54 -5.4,6.06 1.76,-10.2 1.38,-20.74 3.7,-30.82 4.94,-5.76 10.82,-10.62 16.26,-15.9 3.38,-4.12 9.06,-2.54 13.72,-2.9 1.44,2.62 2.92,5.26 4.42,7.88 -0.64,-10.04 -3.18,-19.98 -2.3,-30.08 0.68,-10.1 -0.14,-20.26 -1.48,-30.26 -2.42,-11.3 -10.08,-20.8 -12.42,-32.1 -0.72,-19.86 0.38,-39.76 0.44,-59.64 0.16,-3.74 -0.86,-7.9 1.42,-11.2 6,-9.82 12.86,-19.1 19.08,-28.78 6.5,-11.04 10.58,-24.66 21.3,-32.42 0.18,-8.6 0.62,-17.22 1.04,-25.82 0.94,-8.52 -6.3,-15.3 -5.76,-23.76 0.36,-7.06 -0.7,-14.18 0.28,-21.2 5.42,-6 12.56,-10.12 18.78,-15.26 z"
       id="path8"
       inkscape:connector-curvature="0"
       style="fill:#f5e5c1" />
    <path
       d="m 824.58,250.96 c 61.46,79.14 122.86,158.32 184.5,237.32 -46.44,75.18 -92.22,150.78 -138.94,225.78 -4.4,-47.6 -9.62,-95.1 -13.82,-142.72 -36.64,-0.02 -73.28,-0.04 -109.9,0.02 3.06,-8.96 6.24,-17.9 9.28,-26.86 8.66,5.62 18.56,8.92 27.1,14.72 5.78,3.52 12.1,8.14 19.26,6.66 13.96,-3.04 27.2,-9.1 39,-17.06 5.32,-3.48 8.24,-10.6 15.06,-11.54 5.64,-1.6 12.52,-1.74 16.18,-7.06 6.22,-8.96 13.52,-20.24 8.48,-31.44 -4.12,-8.02 -12,-13.08 -18.3,-19.26 -12.94,-10.72 -18.86,-27.58 -31.88,-38.2 -8.2,-4.26 -17.86,-3.62 -26.8,-3.28 -4.26,-2.76 -8.8,-5.02 -13.72,-6.28 -5.68,-1.46 -9.52,-6.2 -13.82,-9.82 2.4,-18.38 3.62,-37.22 -1.64,-55.24 20.44,-0.08 40.9,0.02 61.34,-0.04 -3.92,-38.56 -7.72,-77.12 -11.38,-115.7 z"
       id="path10"
       inkscape:connector-curvature="0"
       style="fill:#f4722b" />
    <path
       d="m 16.38,465.72 c 44.5,-63.38 88.6,-127.04 132.92,-190.54 3.1,30.48 6.28,60.96 9.16,91.48 30.26,0.02 60.54,0.02 90.8,0 -6.02,12.18 -9.64,25.34 -14.86,37.86 -2.74,6.2 -2.46,13.12 -1.6,19.72 4.94,37.44 9.5,74.94 14.42,112.4 0.5,6.9 4.78,12.4 9.82,16.8 -5.04,6.02 -10.04,12.08 -15.22,17.98 -20.84,-0.2 -41.7,-0.04 -62.54,-0.1 5.24,51.9 10.58,103.78 15.7,155.7 C 135.36,639.98 76.04,552.74 16.38,465.72 z"
       id="path12"
       inkscape:connector-curvature="0"
       style="fill:#f4722b" />
    <path
       d="m 497.28,366.7 c 28.24,-0.12 56.5,0.1 84.74,-0.12 -11.44,9.68 -8.1,25.74 -10.74,38.88 -1.36,6.08 0.7,12 4,17.06 0.26,12.16 -3.56,25.18 1.4,36.76 5,10.44 17.48,11.48 27.62,12.22 -0.24,11.42 4.16,22.82 1.16,34.12 -4.42,21.9 -8.62,43.84 -13.1,65.74 -46.74,-0.06 -93.48,0 -140.2,-0.04 -0.6,-8.12 -2.1,-16.44 0.06,-24.46 1.94,-7.82 3,-16 0.34,-23.78 9.24,-14.38 14.78,-30.7 22.88,-45.7 2.34,-4.4 5.64,-8.48 6.42,-13.52 1.98,-15.62 -2.14,-31.92 3.38,-47.06 5.42,-16.32 13,-32.46 12.04,-50.1 z"
       id="path14"
       inkscape:connector-curvature="0"
       style="fill:#f4722b" />
  </g>
</svg>
