<?xml version="1.0" encoding="UTF-8" standalone="no"?>
<svg
   xmlns:dc="http://purl.org/dc/elements/1.1/"
   xmlns:cc="http://creativecommons.org/ns#"
   xmlns:rdf="http://www.w3.org/1999/02/22-rdf-syntax-ns#"
   xmlns:svg="http://www.w3.org/2000/svg"
   xmlns="http://www.w3.org/2000/svg"
   xmlns:sodipodi="http://sodipodi.sourceforge.net/DTD/sodipodi-0.dtd"
   xmlns:inkscape="http://www.inkscape.org/namespaces/inkscape"
   width="1280"
   height="1280"
   viewBox="0 0 1024 1024"
   version="1.1"
   id="svg2"
   inkscape:version="0.48.1 "
   sodipodi:docname="kill_capping_enemies.svg">
  <metadata
     id="metadata30">
    <rdf:RDF>
      <cc:Work
         rdf:about="">
        <dc:format>image/svg+xml</dc:format>
        <dc:type
           rdf:resource="http://purl.org/dc/dcmitype/StillImage" />
      </cc:Work>
    </rdf:RDF>
  </metadata>
  <defs
     id="defs28" />
  <sodipodi:namedview
     pagecolor="#ffffff"
     bordercolor="#666666"
     borderopacity="1"
     objecttolerance="10"
     gridtolerance="10"
     guidetolerance="10"
     inkscape:pageopacity="0"
     inkscape:pageshadow="2"
     inkscape:window-width="1920"
     inkscape:window-height="1018"
     id="namedview26"
     showgrid="false"
     fit-margin-top="0"
     fit-margin-left="0"
     fit-margin-right="0"
     fit-margin-bottom="0"
     inkscape:zoom="0.6609375"
     inkscape:cx="466.00473"
     inkscape:cy="640"
     inkscape:window-x="-8"
     inkscape:window-y="-8"
     inkscape:window-maximized="1"
     inkscape:current-layer="layer1"
     inkscape:snap-page="true" />
  <g
     inkscape:groupmode="layer"
     id="layer1"
     inkscape:label="background">
    <rect
       style="fill:#3e3e3e;fill-opacity:1;fill-rule:nonzero;stroke:none"
       id="rect3000"
       width="1280"
       height="1280"
       x="0"
       y="0"
       transform="scale(0.8,0.8)" />
  </g>
  <g
     inkscape:groupmode="layer"
     id="layer2"
     inkscape:label="foreground">
    <path
       d="m 512.2,23.45 c -2.48,10.24 -6.05,20.15 -9.35,30.15 -27.28,84.98 -54.97,169.82 -82.25,254.8 -2.44,7.38 -5.28,14.67 -6.6,22.35 -47.9,1.16 -95.97,-0.61 -143.95,-0.15 -20.64,-2.2 -41.43,-0.56 -62.15,-1.5 -39.14,-0.02 -78.26,-0.66 -117.4,-0.6 1.88,1.8 3.75,3.57 5.85,5.15 85.16,60.7 169.93,121.98 255.15,182.6 -34.58,102.72 -70.03,205.17 -104.75,307.85 26.52,-18.24 51.95,-38.09 78.05,-56.95 61.16,-44.98 122.29,-89.97 183.45,-134.95 86.58,64.78 172.45,130.46 258.85,195.5 -3.78,-14.78 -9.14,-29.04 -13.6,-43.6 -29.04,-88.3 -57.48,-176.76 -86.7,-265 6.74,-5.56 14.08,-10.31 21.2,-15.35 C 769.5,446.97 850.98,390.14 932.5,333.4 824.24,333.36 715.96,332.96 607.7,332.9 576.02,229.7 543.92,126.65 512.2,23.45 z m -2,167.05 c 20.24,63.44 39.49,127.25 59.25,190.85 67.2,0.18 134.43,0.12 201.65,0.3 -54.78,38.64 -110.02,76.67 -164.9,115.15 20.66,63.86 41.72,127.64 62.4,191.5 -5.58,-3.18 -10.63,-7.21 -15.65,-11.15 C 604.59,640.47 556.08,603.98 507.8,567.2 453.64,607 399.68,647.22 345.2,686.6 c 21.52,-63.72 43.33,-127.36 65.15,-191 -54.34,-39.04 -108.72,-78.08 -163.2,-116.9 67.08,-0.02 134.17,1.34 201.25,2.1 20.72,-63.38 40.7,-127.04 61.8,-190.3 z"
       id="path6"
       style="fill:#f4722b"
       inkscape:connector-curvature="0" />
    <path
       d="m 317.8,786.5 c 124.34,-11.84 249.8,-12.2 374.24,-1.24 7.94,0 12.06,8.12 18.54,11.46 -51.32,-5.78 -102.98,-7.9 -154.56,-9.52 -45.32,0.48 -90.68,-1 -135.96,1.06 -39.48,1.04 -78.9,4.02 -118.26,7.4 4.98,-3.54 9.38,-9.06 16,-9.16 z"
       id="path10"
       inkscape:connector-curvature="0"
       style="fill:#f5e5c1" />
    <path
       d="m 291.9,805.72 c 98.3,-10.82 197.36,-13.14 296.1,-9.4 45.88,1.96 91.72,5.28 137.28,10.9 4.92,4.9 11.04,8.26 16.64,12.28 C 663.4,805.76 583.56,800.1 503.9,801 c -75.58,-0.82 -151.4,3.68 -226.04,16.06 -2,0.16 -3.98,0.2 -5.98,0.12 6.52,-3.98 11.9,-11.04 20.02,-11.46 z"
       id="path12"
       inkscape:connector-curvature="0"
       style="fill:#f5e5c1" />
    <path
       d="m 766,793.44 c 48.24,7.2 96.44,15.68 143.16,29.9 28.64,9.1 57.72,19.28 82,37.48 10.24,8.1 21.04,19.04 20.72,33.08 1.02,16.42 -12.52,28.56 -24.58,37.46 -30.58,20.76 -66.48,31.6 -101.78,41.26 -95.16,24.32 -193.48,33.26 -291.36,37.76 -86.04,2.78 -172.32,1.76 -258.1,-5.96 C 263.4,997.82 190.64,987.94 120.36,967.78 91.16,958.96 61.74,948.9 36.34,931.56 24.9,923.38 13.24,912.62 11.2,897.96 9.54,883.92 18.98,871.68 29.18,863.22 48.56,847.46 72,837.88 95.3,829.54 c 49.26,-16.94 100.62,-26.86 152.06,-34.46 -1.04,2.52 -2.06,5.06 -3.1,7.6 -37.18,5.24 -74.3,11.92 -110.24,22.98 -16.36,5.36 -32.98,11.18 -46.98,21.44 -7,5.32 -14.28,13.14 -12.4,22.72 2.26,10.14 11.58,16.56 19.96,21.62 22.8,12.88 48.42,19.54 73.68,25.7 89.14,20.16 180.74,25.3 271.74,29.74 80.04,2.86 160.16,-0.58 239.96,-7.02 50.1,-4.2 100.14,-10.34 149.32,-20.96 21.82,-4.9 43.64,-10.5 64.36,-19.08 11.18,-4.78 22.56,-10.22 31.1,-19.1 5.56,-5.64 8.6,-14.72 4.24,-21.98 -7.28,-12.32 -21.1,-18.56 -33.6,-24.28 -39.3,-16.1 -81.46,-23.48 -123.16,-30.26 -5.36,-0.24 -4.52,-7.1 -6.24,-10.76 z"
       id="path14"
       inkscape:connector-curvature="0"
       style="fill:#f5e5c1" />
    <path
       d="m 510.8,808.55 c -20.63626,-0.0814 -41.27501,0.22501 -61.9,0.75 -57.3,2.38 -114.62,6.98 -171,17.9 -24.94,5.12 -50.02,10.9 -73.2,21.7 -9.26,4.62 -19.22,10.15 -24.1,19.75 -3.64,7.22 1.2,15.15 6.7,19.85 11.92,10.06 26.9,15.51 41.5,20.45 48,14.86 98.14,20.97 148,25.75 29.6,2.9 59.37,2.65 89.05,4.25 61.58,0.24 123.32,0.27 184.6,-6.45 38.98,-4.3 77.95,-10.01 115.75,-20.65 16.9,-5.08 34.15,-10.68 48.55,-21.2 6.34,-4.68 12.61,-12.49 9.75,-20.85 C 821,861 812.53,855.77 804.65,851.35 786.47,841.77 766.48,836.3 746.6,831.5 703.02,821.42 658.46,816.11 613.9,812.65 c -34.3,-2.8125 -68.70626,-3.96426 -103.1,-4.1 z m -2.2,4.3 c 7.0975,0.0291 14.16499,0.19499 21.25,0.5 22.5,1.34 45.28,3.31 66.8,10.35 12.7,3.76 21.3,14.29 31.4,22.15 4.56,2.6 4.25,9.44 -0.55,11.6 -14.26,8.36 -31.28,10 -47.3,12.6 -55.18,6.3 -111.38,6.37 -166.2,-3.05 -11.68,-2.98 -26,-4.19 -33.4,-14.95 6.3,-9.46 15.56,-16.33 24.9,-22.55 11.88,-7.32 25.93,-9.73 39.45,-12.15 21.04501,-3.33 42.3575,-4.58718 63.65,-4.5 z"
       id="path16"
       style="fill:#f5e5c1"
       inkscape:connector-curvature="0" />
    <path
       d="m 133.9,839.84 c 34,-14.42 70.68,-20.86 106.86,-27.2 -1.28,4.16 -2.48,8.34 -3.46,12.58 -23.78,5.94 -47.92,12.42 -69.22,24.94 -8.04,5.08 -16.8,11.66 -18.7,21.6 -1.54,9.92 6.36,17.72 13.62,23.12 12.48,8.78 26.86,14.62 41.5,18.66 -13.06,-1.18 -25.62,-5.14 -38.24,-8.48 -16.96,-5.02 -34.18,-10.48 -49.02,-20.36 -7.34,-5 -15.72,-13.56 -11.66,-23.22 5.64,-11.02 17.64,-16.58 28.32,-21.64 z"
       id="path20"
       inkscape:connector-curvature="0"
       style="fill:#f5e5c1" />
    <path
       d="m 772.68,814.14 c 32.74,5.58 65.64,12.16 96.5,24.7 10.5,4.68 21.64,9.82 28.7,19.3 3.64,4.68 4.02,11.6 0.54,16.52 -5.96,8.86 -15.96,13.8 -25.32,18.32 -24.54,10.94 -50.94,16.82 -77.1,22.4 16.94,-5.66 34.42,-11.48 48.58,-22.78 6.56,-5.26 12.56,-13.38 10.36,-22.26 -2.8,-9.84 -11.8,-16.16 -20.12,-21.2 -17.98,-10.18 -37.92,-16.34 -57.86,-21.4 -1.38,-4.56 -2.84,-9.08 -4.28,-13.6 z"
       id="path22"
       inkscape:connector-curvature="0"
       style="fill:#f5e5c1" />
    <path
       d="m 486.8,821.14 c 31.84,-1.08 64.06,-0.18 95.3,6.48 8.4,2.3 18,3.98 24.14,10.68 3.14,3.74 -1.44,7.5 -4.4,9.38 -8.98,5.06 -19.34,6.72 -29.3,8.82 -30.5,5.22 -61.6,5.68 -92.44,4.28 -19.42,-1.34 -39.02,-3.28 -57.7,-8.96 -5.6,-2.12 -12.42,-3.96 -15.3,-9.74 0.1,-6.44 7.62,-8.6 12.5,-10.76 21.58,-7.3 44.6,-8.86 67.2,-10.18 z"
       id="path24"
       inkscape:connector-curvature="0"
       style="fill:#f3722c" />
  </g>
</svg>
