<?xml version="1.0" encoding="UTF-8" standalone="no"?>
<svg
   xmlns:dc="http://purl.org/dc/elements/1.1/"
   xmlns:cc="http://creativecommons.org/ns#"
   xmlns:rdf="http://www.w3.org/1999/02/22-rdf-syntax-ns#"
   xmlns:svg="http://www.w3.org/2000/svg"
   xmlns="http://www.w3.org/2000/svg"
   xmlns:sodipodi="http://sodipodi.sourceforge.net/DTD/sodipodi-0.dtd"
   xmlns:inkscape="http://www.inkscape.org/namespaces/inkscape"
   width="1280"
   height="1280"
   viewBox="0 0 1024 1024"
   version="1.1"
   id="svg2"
   inkscape:version="0.48.1 "
   sodipodi:docname="kill_flag_carriers.svg">
  <metadata
     id="metadata56">
    <rdf:RDF>
      <cc:Work
         rdf:about="">
        <dc:format>image/svg+xml</dc:format>
        <dc:type
           rdf:resource="http://purl.org/dc/dcmitype/StillImage" />
      </cc:Work>
    </rdf:RDF>
  </metadata>
  <defs
     id="defs54" />
  <sodipodi:namedview
     pagecolor="#ffffff"
     bordercolor="#666666"
     borderopacity="1"
     objecttolerance="10"
     gridtolerance="10"
     guidetolerance="10"
     inkscape:pageopacity="0"
     inkscape:pageshadow="2"
     inkscape:window-width="1920"
     inkscape:window-height="1018"
     id="namedview52"
     showgrid="false"
     inkscape:snap-page="true"
     fit-margin-top="0"
     fit-margin-left="0"
     fit-margin-right="0"
     fit-margin-bottom="0"
     inkscape:zoom="0.48125"
     inkscape:cx="472.71504"
     inkscape:cy="658.82302"
     inkscape:window-x="-8"
     inkscape:window-y="-8"
     inkscape:window-maximized="1"
     inkscape:current-layer="layer2" />
  <g
     inkscape:groupmode="layer"
     id="layer1"
     inkscape:label="background"
     style="display:inline">
    <rect
       style="fill:#3e3e3e;fill-opacity:1"
       id="rect3033"
       width="1024"
       height="1024"
       x="0"
       y="0" />
  </g>
  <g
     inkscape:groupmode="layer"
     id="layer2"
     inkscape:label="foreground"
     style="display:inline">
    <path
       d="m 145.28,0 80.22,0 c 55.9,46.92 111.8,93.84 167.8,140.66 -54.28,16.4 -103.98,46.28 -145.94,84.18 C 213.28,149.9 179.38,74.9 145.28,0 z"
       id="path6"
       inkscape:connector-curvature="0"
       style="fill:#f4722b" />
    <path
       d="m 479.76,0 113.06,0 c 7.04,45.34 14.54,90.6 21.14,136 -35.16,-9.44 -71.56,-14.38 -107.98,-14.3 -27.08,1 -54.08,4.34 -80.58,9.94 C 443.72,87.86 461.22,43.7 479.76,0 z"
       id="path8"
       inkscape:connector-curvature="0"
       style="fill:#f4722b" />
    <path
       d="M 712.34,177.82 C 816.26,133.3 920.22,88.92 1024,44.12 l 0,36.24 C 973.78,175.02 923,269.4 872.48,363.92 841.08,286.76 783.98,220.36 712.34,177.82 z"
       id="path10"
       inkscape:connector-curvature="0"
       style="fill:#f4722b" />
    <path
       d="m 635.48,142.16 c 15.66,-12.5 32.6,-23.28 48.66,-35.24 -2.5,16.98 -6.9,33.6 -9.9,50.5 -12.8,-5.4 -25.7,-10.5 -38.76,-15.26 z"
       id="path12"
       inkscape:connector-curvature="0"
       style="fill:#f4722b" />
    <path
       d="m 510.05,141.95 c -20,0.8 -40.04,1.83 -59.8,5.35 -73.84,12.08 -143.59,47.45 -197.05,99.75 -46.84,45.32 -81.29,103.31 -98.55,166.15 -15.68,56.7 -17.56,117.16 -5.3,174.7 14.4,68.54 48.93,132.79 98.45,182.35 45.36,46.56 103.5,80.4 166.2,97.4 87.06,23.88 182.82,14.55 263.4,-26.25 66.86,-33.36 123.07,-87.55 158.85,-153.15 44.6,-80.54 56.64,-178.11 34,-267.25 -25.44,-102.6 -97.64,-192.13 -192.2,-239.25 -51.8,-26.46 -109.96,-39.42 -168,-39.8 z m -1.15,18.25 c 53.26526,-0.29759 106.58688,11.2 154.6,34.4 60.92,29 113.04,76.03 148.3,133.55 51.64,83.1 65.38,188.21 37.6,281.95 -22.64,77.98 -73.6,147.23 -141,192.45 -71.04,48.36 -160.23,68.84 -245.25,56.8 C 402.71,851.27 344.62,826.81 296.4,789.55 251.6,755.13 215.32,709.78 191.6,658.5 167.32,606.06 156.37,547.48 160.05,489.8 163.39,432.54 181.24,376.28 211.4,327.5 248.64,267 304.66,218.19 369.8,189.75 c 38.66,-17.02 80.44,-26.86 122.6,-29.1 5.50312,-0.28312 10.98979,-0.41922 16.5,-0.45 z"
       id="path14"
       style="fill:#f5e5c1"
       inkscape:connector-curvature="0" />
    <path
       style="fill:#f5e5c1"
       d="m 514.5,188.35 c -8.69309,0.0818 -17.3875,0.3025 -26.05,0.25 -90.26,5.92 -177.01,51.88 -232.45,123.4 -37.02,47.06 -60.55,104.64 -66.85,164.2 -4.68,35.24 -1.77,71.14 5.55,105.8 14.46,66.16 50.46,127.36 101.2,172.2 47.78,42.56 108.46,70.41 171.9,78.75 21.9,3.32 44.12,2.93 66.2,2.25 56.06,-3.58 111.17,-22.11 157.95,-53.25 C 767.57,732.41 820.42,649.72 833.2,560.2 840.96,509.36 836.28,456.74 819.9,408 801.26,352.78 767.47,302.74 722.95,265.1 676.43,225.38 618.39,199.26 557.75,191 c -14.3,-2.5375 -28.76152,-2.78634 -43.25,-2.65 z M 511,224.7 c 15.00168,-0.15715 30.03,3.83626 42.9,11.55 30.18,17.52 46.16,55.81 36.9,89.55 -6.14,25.66 -25.96,47.5 -50.8,56.3 -17.82,6.66 -38.06,6.66 -55.9,0 -24.2,-8.54 -43.76,-29.41 -50.4,-54.25 -5.34,-18.24 -3.64,-38.32 4.2,-55.6 9.78,-21.78 29.76,-38.77 52.9,-44.75 6.5875,-1.81875 13.38106,-2.72856 20.2,-2.8 z M 329.6,326.45 c 14.52,-0.21843 29.06,3.16 41.6,10.6 21.12,11.76 36.32,33.39 40.2,57.25 6.38,34.56 -13.23,71.66 -45.05,86.4 -21.54,10.58 -47.79,10.75 -69.45,0.45 -23.64,-10.68 -41.56,-33.34 -45.9,-59 -3.02,-14.42 -1.14,-29.56 3.9,-43.3 9.62,-25.8 33.17,-45.84 60.25,-51 4.75,-0.85499 9.61,-1.32718 14.45,-1.4 z m 358.7,1.85 c 13.33594,-0.23437 26.73,2.47 38.55,8.8 26.3,13.1 44.08,41.5 44.3,70.9 0.64,22.86 -9.34,45.62 -26.2,61 -14.84,13.7 -34.85,21.54 -55.05,21.7 -21.6,-0.04 -43.19,-8.87 -58.15,-24.55 -16.74,-16.6 -25.29,-40.84 -22.95,-64.3 2.56,-35.46 31.39,-66.33 66.25,-72.35 4.37499,-0.7 8.80469,-1.12187 13.25,-1.2 z M 510.7,446.5 c 25.78029,-0.44626 51.42688,15.41875 61.4,39.55 13.52,29.28 0.82,67.09 -27.4,82.55 -26.44,16.02 -63.46,9.38 -82.9,-14.6 -16.22,-18.82 -19.98,-47.34 -9.1,-69.7 8.18,-17.74 24.77,-31.24 43.75,-35.8 4.68437,-1.25312 9.47587,-1.91736 14.25,-2 z m 179.05,86.45 c 15.13411,0.029 30.25312,4.35 43.05,12.45 16.46,10.16 29.18,26.36 34.8,44.9 6.06,19.28 4.36,40.86 -4.5,59 -8.6,17.8 -23.78,32.42 -42.1,39.9 -21,8.9 -45.87,8.16 -66.35,-1.9 -23.5,-10.92 -40.89,-33.79 -45.15,-59.35 -2.38,-15.5 -0.86,-31.84 5.7,-46.2 10.02,-22.96 31.07,-40.94 55.55,-46.5 5.23,-1.30501 10.57312,-2.05594 15.95,-2.25 1.00816,-0.0364 2.04106,-0.0519 3.05,-0.05 z m -359.4,1.9 c 14.52112,-0.13202 29.10125,3.56125 41.6,11 20.46,11.64 35.06,32.73 39.2,55.85 4.2,21.2 -1.3,43.88 -13.8,61.4 -16.26,23.06 -45.16,36.52 -73.3,33.9 -35.12,-2.5 -66.55,-30.43 -72.75,-65.15 -4.72,-21.62 0.58,-45.12 13.5,-63 10.92,-15.52 27.7,-26.65 46,-31.45 6.3875,-1.64374 12.94949,-2.48998 19.55,-2.55 z m 180.2,103.2 c 11.40509,-0.20792 22.8225,1.8575 33.3,6.45 23.34,9.54 41.29,30.82 47.15,55.3 6.22,24.46 -0.01,51.62 -16.15,71 -13,15.84 -32.19,26.45 -52.55,28.85 -35.08,5.2 -71.92,-15.9 -85.2,-48.8 -10.88,-25.04 -7.78,-55.44 7.9,-77.8 11.54,-17.08 30.02,-29.03 50.1,-33.35 5.07501,-1.00626 10.26587,-1.55549 15.45,-1.65 z"
       id="path18"
       inkscape:connector-curvature="0" />
    <path
       d="m 88.4,198.86 c 47.36,13.88 94.68,27.88 142.04,41.72 -4.58,6.58 -10.84,11.74 -15.68,18.12 -25.94,30.38 -47.3,64.72 -62.76,101.58 -21.24,-53.8 -42.4,-107.62 -63.6,-161.42 z"
       id="path20"
       inkscape:connector-curvature="0"
       style="fill:#f4722b" />
    <path
       d="m 0,399.84 c 47.4,-4.22 94.7,-9.32 142.1,-13.54 -5.42,15.98 -9.46,32.36 -13.16,48.8 -4,18.98 -5.36,38.34 -8.3,57.46 -2.72,20.32 0.08,40.68 3.14,60.76 C 82.58,522.56 41.06,492.2 0,461.24 l 0,-61.4 z"
       id="path28"
       inkscape:connector-curvature="0"
       style="fill:#f4722b" />
    <path
       d="m 898.18,462.52 c 25.52,15.3 50.94,30.82 76.54,46 -24.6,9.48 -49.34,18.54 -73.92,28 3.5,-24.6 0.6,-49.54 -2.62,-74 z"
       id="path32"
       inkscape:connector-curvature="0"
       style="fill:#f4722b" />
    <path
       d="m 498.74,473.1 c 13.98,-4.96 30.5,-1.4 41.26,8.8 11.84,10.64 16.3,28.46 10.96,43.44 -6.18,19.02 -27.52,31.36 -47.08,26.96 -18.7,-3.46 -33.54,-21.26 -33.02,-40.34 -0.4,-17.2 11.6,-33.56 27.88,-38.86 z"
       id="path34"
       inkscape:connector-curvature="0"
       style="fill:#f5e5c1" />
    <path
       d="M 0,785.92 C 44.48,727.3 89.58,669.14 134.18,610.6 155.2,689.8 201.58,762.24 265.54,813.58 177.08,851.88 88.5,889.94 0,928.18 L 0,785.92 z"
       id="path40"
       inkscape:connector-curvature="0"
       style="fill:#f4722b" />
    <path
       d="M 877.46,646.28 C 926.3,737.7 975.18,829.12 1024,920.56 l 0,24.12 C 935.32,900.76 846.34,857.44 757.54,813.74 c 53.94,-43.76 96.2,-102.1 119.92,-167.46 z"
       id="path44"
       inkscape:connector-curvature="0"
       style="fill:#f4722b" />
    <path
       d="m 714.34,844.32 c 12.32,-8.14 24.72,-16.2 36.32,-25.36 14.32,52.7 29.26,105.26 43.2,158.06 -43.08,-35.82 -86.64,-71.04 -129.9,-106.62 17,-8.28 34.26,-16.12 50.38,-26.08 z"
       id="path46"
       inkscape:connector-curvature="0"
       style="fill:#f4722b" />
    <path
       d="m 286.24,829.32 c 34.08,23.8 71.76,42.74 111.78,54.28 -29.42,17.32 -58.38,35.42 -87.94,52.52 -6.2,-31.56 -14.9,-62.72 -19.88,-94.44 -1.5,-4.06 -2.88,-8.18 -3.96,-12.36 z"
       id="path48"
       inkscape:connector-curvature="0"
       style="fill:#f4722b" />
    <path
       d="m 539.36,903.32 c 30.66,-7.54 62.1,-11.88 92.28,-21.46 -26.12,47.4 -52.12,94.86 -78.42,142.14 l -93.58,0 c -13.82,-44.96 -28.38,-89.68 -41.9,-134.72 23.42,5.7 47.48,8.08 70.84,14.08 16.84,1.22 33.92,1.1 50.78,-0.04 z"
       id="path50"
       inkscape:connector-curvature="0"
       style="fill:#f4722b" />
  </g>
</svg>
