<?xml version="1.0" encoding="UTF-8" standalone="no"?>
<svg
   xmlns:dc="http://purl.org/dc/elements/1.1/"
   xmlns:cc="http://creativecommons.org/ns#"
   xmlns:rdf="http://www.w3.org/1999/02/22-rdf-syntax-ns#"
   xmlns:svg="http://www.w3.org/2000/svg"
   xmlns="http://www.w3.org/2000/svg"
   xmlns:sodipodi="http://sodipodi.sourceforge.net/DTD/sodipodi-0.dtd"
   xmlns:inkscape="http://www.inkscape.org/namespaces/inkscape"
   width="1280"
   height="1280"
   viewBox="0 0 1024 1024"
   version="1.1"
   id="svg2"
   inkscape:version="0.48.1 "
   sodipodi:docname="kill_heavies_gloves.svg">
  <metadata
     id="metadata36">
    <rdf:RDF>
      <cc:Work
         rdf:about="">
        <dc:format>image/svg+xml</dc:format>
        <dc:type
           rdf:resource="http://purl.org/dc/dcmitype/StillImage" />
      </cc:Work>
    </rdf:RDF>
  </metadata>
  <defs
     id="defs34" />
  <sodipodi:namedview
     pagecolor="#ffffff"
     bordercolor="#666666"
     borderopacity="1"
     objecttolerance="10"
     gridtolerance="10"
     guidetolerance="10"
     inkscape:pageopacity="0"
     inkscape:pageshadow="2"
     inkscape:window-width="1920"
     inkscape:window-height="1018"
     id="namedview32"
     showgrid="false"
     inkscape:snap-page="true"
     fit-margin-top="0"
     fit-margin-left="0"
     fit-margin-right="0"
     fit-margin-bottom="0"
     inkscape:zoom="0.6609375"
     inkscape:cx="466.00473"
     inkscape:cy="640"
     inkscape:window-x="-8"
     inkscape:window-y="-8"
     inkscape:window-maximized="1"
     inkscape:current-layer="layer1" />
  <g
     inkscape:groupmode="layer"
     id="layer1"
     inkscape:label="background">
    <rect
       style="fill:#3e3e3e;fill-opacity:1"
       id="rect3017"
       width="1024"
       height="1024"
       x="0"
       y="0" />
  </g>
  <g
     inkscape:groupmode="layer"
     id="layer2"
     inkscape:label="foreground">
    <path
       d="m 0,0 857.74,0 c -2.86,20.42 -9.38,40.04 -14.12,60.04 -1.96,8.26 -4.5,16.4 -7.86,24.2 -9.06,20.66 -14.88,42.62 -24.32,63.12 -7.52,14.64 -16.32,28.7 -26.64,41.52 -14.88,16.72 -25.88,36.42 -40.54,53.34 -18.82,21.32 -40.52,40.1 -64.3,55.66 -11.18,8.32 -22.22,17.04 -34.8,23.24 -22.46,10.72 -43.88,23.72 -67.42,32.1 -16.84,8.3 -35.32,11.9 -53.32,16.7 -16.14,5.76 -33.44,6.22 -50.3,8.22 -24.8,0.32 -49.54,6.22 -74.28,2.64 -26.78,-2.96 -53.6,-5.44 -80.36,-8.5 -28.84,-5.36 -57.36,-12.4 -86.18,-17.86 24.56,15.1 49.48,29.76 75.48,42.22 23.94,5.6 48.5,8.46 72.68,13.02 -14.36,7.26 -29.58,12.72 -45.12,16.94 -13.26,3.6 -26.48,7.92 -40.24,9.08 -14.02,0.62 -28.06,1.3 -42.1,1.94 -12.04,0.54 -23.96,-1.46 -35.92,-2.54 -43.84,-1.92 -86.7,-16.5 -124.16,-39.02 C 81.76,386.3 69.36,376.58 58.8,365.08 43.46,345.12 27.48,325.6 13.9,304.38 10.2,296.1 3.86,289.42 0,281.24 L 0,0 z"
       id="path4"
       inkscape:connector-curvature="0"
       style="fill:#f5e5c1" />
    <path
       d="m 1021.62,141.84 c 0.04,-13.58 2.34,-27.02 2.38,-40.62 l 0,145.48 c -3.48,20.76 -5.4,41.82 -10.84,62.2 -2.64,8.46 -6.36,16.52 -8.82,25.02 -2.52,9.22 -9.56,16.04 -14.78,23.74 -19.76,27.76 -43.06,52.84 -68.64,75.32 -10.64,8.44 -21.26,17.4 -34.46,21.48 -15.8,8.46 -33.56,11.26 -50.26,17.3 19.2,-7.18 36.04,-19.02 51.58,-32.14 16.18,-10.22 25.72,-27.44 40.28,-39.44 24.8,-23.6 43,-52.92 59.9,-82.4 6.8,-13.64 9.62,-28.72 15.02,-42.88 3.56,-11.5 6.28,-23.26 8.62,-35.06 1.82,-16.66 6.5,-33 6.12,-49.86 -0.16,-16.16 3.6,-32 3.9,-48.14 z"
       id="path8"
       inkscape:connector-curvature="0"
       style="fill:#f5e5c1" />
    <path
       d="m 923.9,448 c 11.94,-10.34 21.84,-22.72 30.44,-35.9 0.58,18.04 -2.76,35.92 -3.86,53.88 -1.78,17.92 -1.9,35.96 -3.58,53.86 -3.12,11.86 -6.5,23.96 -12.48,34.74 -11.9,16.26 -27.82,30.9 -47.6,36.54 -19.56,6.84 -40,10.64 -60.02,15.9 -15.44,4.26 -31.4,5.88 -47.18,8.48 -19.62,3.02 -39.24,6.18 -58.9,9 10.78,-20.32 17.58,-43.2 15.74,-66.36 -0.8,-7.42 -0.42,-15.12 -3.26,-22.14 -2.8,-7.22 -7,-13.76 -10.88,-20.42 -4.42,-7.94 -12.32,-12.8 -18.52,-19.12 17.48,0.66 34.7,-2.86 52.1,-3.96 25.52,-3.5 51.16,-6.34 76.34,-12 14.94,-1.92 29.2,-6.64 43.66,-10.6 16.52,-6.02 33.78,-11.14 48,-21.9 z"
       id="path10"
       inkscape:connector-curvature="0"
       style="fill:#f4722b" />
    <path
       d="m 115.1,433.74 c 9.74,6.68 18.46,14.86 28.88,20.54 12.94,7.84 27.14,13.52 41.82,17.1 22.82,5.46 44.66,14.84 68.08,17.68 22.3,3.92 44.48,8.74 67.16,10.14 -9.84,11.1 -17.14,24.44 -21.1,38.74 -3.08,9.06 -6.5,18.36 -5.34,28.12 1.46,11.36 0.88,23.04 4.2,34.1 1.72,6.16 3.54,12.3 5.3,18.48 -36.98,-4.98 -74.04,-9.32 -111,-14.38 -15.26,-4.2 -31.72,-4.4 -46.02,-11.72 -14.24,-10.08 -23.64,-26.98 -24.22,-44.48 -2.64,-38.1 -5.08,-76.22 -7.76,-114.32 z"
       id="path12"
       inkscape:connector-curvature="0"
       style="fill:#f4722b" />
    <path
       d="m 519.35,448.85 c -12.40781,-0.1025 -24.79,0.45501 -37.1,1.65 -51.1,5.44 -103.51,22.14 -141.25,58.4 -17.68,17.7 -31.39,41.39 -30.95,67.05 -1.18,31.84 18.53,60.48 42.65,79.5 40,31.6 91.23,45.39 141.35,49.15 52.94,2.96 107.54,-4.96 155,-29.5 27.4,-14.48 53.17,-35.31 65.95,-64.25 11.12,-24.44 9,-54.02 -4.7,-77 -17.98,-30.9 -49.46,-51.27 -81.9,-64.45 -34.60501,-13.87501 -71.82656,-20.2425 -109.05,-20.55 z m -7.65,27.35 c 41.60685,-0.39006 83.53,6.74875 121.1,24.9 21.8,10.86 42.92,26.31 53.6,48.85 8.22,16.88 6.88,37.62 -2.8,53.6 -13.08,22.14 -35.58,36.76 -58.6,47 -36.08,15.66 -75.74,21.75 -114.9,21.25 -43.18,-0.7 -87.29,-9.16 -125.05,-30.9 -20.54,-12.1 -40.04,-29.68 -46.3,-53.5 -5.26,-19.16 1.99,-39.62 14.55,-54.3 17.3,-20.32 41.68,-33.11 66.5,-41.85 20.4,-7.14 41.74,-11.41 63.2,-13.65 9.51,-0.8475 19.09842,-1.30998 28.7,-1.4 z"
       id="path14"
       style="fill:#f4722b"
       inkscape:connector-curvature="0" />
    <path
       d="m 481.02,501.56 c 47.54,-4.08 96.82,-0.46 141.16,18.24 18.8,8.18 37.4,19.48 48.78,37.04 9.08,13.68 9.38,32.58 0.5,46.44 -11,17.96 -29.86,29.32 -48.66,37.66 -26.82,11.58 -55.86,17.14 -84.86,19.38 -39.76,2.46 -80.34,-1.02 -118.16,-14.08 -21.9,-7.8 -43.84,-18.84 -58.52,-37.44 -9.16,-11.48 -13.18,-27.44 -8.18,-41.56 5.98,-17.1 20.6,-29.36 35.72,-38.38 28.06,-16.26 60.26,-23.78 92.22,-27.3 z"
       id="path18"
       inkscape:connector-curvature="0"
       style="fill:#f4722b" />
    <path
       d="m 921,598.25 c -18.94,1.82 -36.45,10.32 -54.85,14.7 -30.04,6.78 -60.25,12.93 -90.35,19.45 -6.86,1.72 -14.98,1.51 -19.8,7.55 -22.24,18.44 -44.93,36.35 -67.05,54.95 -11.66,10.36 -26.66,15.85 -41.2,20.85 -13.3,3.7 -26.07,9.49 -39.85,11.35 -5.54,0.88 -11.04,2.03 -16.5,3.15 -3.3,8.22 -1.39,17.09 -1.25,25.65 1.42,41.98 2.97,83.97 4.45,125.95 5.68,-0.32 12.09,1.19 17.05,-2.35 33.76,-22.44 67.63,-44.75 101.35,-67.25 -12.02,39.44 -22.12,79.45 -29.4,120.05 -4.26,30.46 -0.08,61.14 -1,91.7 l 270.4,0 c 5.3,-33.9 9.93,-67.92 14.75,-101.9 2.42,-11.12 -5.98,-19.73 -12,-27.85 -7.68,9.46 -14.81,19.42 -22.95,28.5 -12.74,13.32 -25.84,26.22 -38.4,39.7 -4.54,4.76 -9.12,10.01 -15.7,11.85 -15.66,5.14 -31,11.38 -46.8,16.1 -5.36,0.52 -7.46,-6.83 -3,-9.45 12.12,-9.36 26.02,-16.36 37.3,-26.8 5.38,-4.7 11.64,-8.47 16.1,-14.15 16.62,-20.66 33.28,-41.32 50,-61.9 5.32,-6.18 6.13,-14.61 8.35,-22.15 3.42,-14.04 7.37,-27.93 11.25,-41.85 1.92,-6.56 4.21,-13.16 3.85,-20.1 -0.24,-13.32 0.36,-26.71 -1.5,-39.95 -5.38,-46.76 -10.52,-93.57 -15.8,-140.35 -6.28,-4.6 -12.39,-9.49 -17.45,-15.45 z m -73.7,33.8 c -1.54,7.42 2.36,14.51 1.5,21.95 -1.58,18.88 -2.92,37.78 -4.2,56.7 29.08,15.2 58.68,29.57 87.7,44.85 5.98,2.8 1.85,12.33 -4.35,10.15 -34.32,-10.62 -68.26,-22.54 -102.6,-33.2 -5.54,-1.56 -3.6,-8.39 -4.4,-12.65 -2.56,-26.04 -7.38,-51.86 -10.2,-77.9 12.24,-3.06 24.45,-6.36 36.55,-9.9 z"
       id="path20"
       style="fill:#f5e5c1"
       inkscape:connector-curvature="0" />
    <path
       d="m 138.25,618.3 c -4.62,6.06 -8.69,12.48 -13.65,18.3 -2.76,3.34 -6.1,6.65 -6.5,11.25 -6.16,33.4 -12.26,66.82 -18.5,100.2 -1.74,9.96 0.5,20.01 1.2,29.95 1.76,16.1 2.45,32.33 4.95,48.35 6.44,24.58 13.59,49 20.05,73.6 3.82,25.68 16.1,48.96 26,72.7 -8.68,-12.94 -18.45,-25.25 -25.05,-39.45 -6.74,-13.92 -15.13,-27.06 -20.55,-41.6 -2.66,-6.14 -6.36,-11.8 -8.4,-18.2 -4.74,9.82 -10.97,18.88 -15.35,28.9 -2.6,5.66 -1.18,11.99 -0.1,17.85 7,34.58 13.29,69.31 20.45,103.85 l 278.7,0 c -0.88,-18.66 -4.12,-37.14 -7.9,-55.4 -5.82,-18.9 -6.6,-39.1 -14.4,-57.4 -3.5,-11.18 -8.77,-21.65 -14.65,-31.75 -3.04,-4.16 -0.93,-9.09 0.35,-13.45 -8.86,-20.24 -22.72,-37.56 -35.3,-55.5 19.62,12.28 38.47,25.98 58.55,37.5 29.76,10.68 60.02,19.97 89.9,30.35 5.12,1.96 10.57,2.76 16.05,2.6 18.66,-0.22 37.31,0.82 55.95,0.8 4.96,-0.08 9.73,1.39 14.35,3.05 9.1,-2.76 12.42,-12.23 17.2,-19.45 3.5,-6.18 8.51,-12.04 9.05,-19.4 1.38,-33.32 2.72,-66.63 4.3,-99.95 0.64,-4.78 -1.29,-9.16 -3.95,-13 -17.56,2.76 -35.44,2.86 -53.1,1.3 -15.26,0.08 -30.37,-2.02 -45.15,-5.7 0.66,38.44 2.14,76.86 2.9,115.3 -0.22,7.04 1.71,14.5 -0.75,21.3 -2.58,4.6 -10.4,1.93 -9.9,-3.35 -1.84,-45.16 -2.38,-90.37 -3.9,-135.55 -16.7,-4.1 -34.02,-6.32 -49.7,-13.8 -18.7,-8.46 -38.8,-14.25 -55.9,-25.95 -8.96,-5.78 -18.22,-11.15 -27.1,-17.05 -12.32,-8.24 -18.07,-22.69 -28.25,-32.95 -17.28,-0.86 -34.68,0.68 -51.9,-1.6 -16.78,-1.84 -33.72,-2.68 -50.4,-5.4 -19.88,-3.66 -39.64,-8.05 -59.6,-11.25 z m 99.35,37.75 c 6.48,0.6 13,1.05 19.5,1.45 -7.8,36.26 -15.84,72.44 -23.6,108.7 -1.2,6.64 -5.26,12.86 -11.1,16.3 -23.96,15.22 -47.66,30.9 -71.7,46 -12.42,4.28 -25.75,4.7 -38.65,6.8 13.66,-5.12 25.17,-14.61 37.95,-21.55 12.74,-6.6 21.14,-18.57 32.2,-27.35 5.84,-4.76 11.55,-9.78 16.35,-15.6 2.88,-3.56 2.47,-8.48 3.95,-12.6 11.68,-34.06 24.54,-67.73 35.1,-102.15 z"
       id="path22"
       style="fill:#f5e5c1"
       inkscape:connector-curvature="0" />
    <path
       d="m 428.64,928.02 c 3.08,-1.94 6.5,-4.58 10.3,-2.72 14.92,4.86 29.64,10.26 44.5,15.26 7.92,2.64 16.4,1.7 24.6,2.16 11.28,0.14 22.54,1 33.82,0.72 21.48,-2.28 42.58,-8.12 64.26,-8.3 2.96,-0.42 4.6,2.42 6.52,4.1 -0.3,1.5 -0.92,4.5 -1.22,6 8.42,26.18 16.16,52.58 24.6,78.76 l -33.22,0 c -5.24,-15.36 -9.62,-31 -14.56,-46.46 -3.16,-9.46 -5.02,-19.48 -10.14,-28.16 -17.88,2.9 -35.76,7.02 -54.02,5.42 -22.74,2.16 -45.58,3.64 -68.44,4.74 -3.84,21.52 -9.82,42.78 -12.38,64.46 l -28.48,0 c 0.12,-8.56 -0.76,-17.2 0.48,-25.7 4.54,-23.4 10.22,-46.62 13.38,-70.28 z"
       id="path28"
       inkscape:connector-curvature="0"
       style="fill:#f5e5c1" />
  </g>
</svg>
