<?xml version="1.0" encoding="UTF-8" standalone="no"?>
<svg
   xmlns:dc="http://purl.org/dc/elements/1.1/"
   xmlns:cc="http://creativecommons.org/ns#"
   xmlns:rdf="http://www.w3.org/1999/02/22-rdf-syntax-ns#"
   xmlns:svg="http://www.w3.org/2000/svg"
   xmlns="http://www.w3.org/2000/svg"
   xmlns:sodipodi="http://sodipodi.sourceforge.net/DTD/sodipodi-0.dtd"
   xmlns:inkscape="http://www.inkscape.org/namespaces/inkscape"
   width="1280"
   height="1280"
   viewBox="0 0 1024 1024"
   version="1.1"
   id="svg2"
   inkscape:version="0.48.1 "
   sodipodi:docname="kill_scouts.svg">
  <metadata
     id="metadata36">
    <rdf:RDF>
      <cc:Work
         rdf:about="">
        <dc:format>image/svg+xml</dc:format>
        <dc:type
           rdf:resource="http://purl.org/dc/dcmitype/StillImage" />
      </cc:Work>
    </rdf:RDF>
  </metadata>
  <defs
     id="defs34" />
  <sodipodi:namedview
     pagecolor="#ffffff"
     bordercolor="#666666"
     borderopacity="1"
     objecttolerance="10"
     gridtolerance="10"
     guidetolerance="10"
     inkscape:pageopacity="0"
     inkscape:pageshadow="2"
     inkscape:window-width="1920"
     inkscape:window-height="1018"
     id="namedview32"
     showgrid="false"
     fit-margin-top="0"
     fit-margin-left="0"
     fit-margin-right="0"
     fit-margin-bottom="0"
     inkscape:zoom="0.6609375"
     inkscape:cx="466.00473"
     inkscape:cy="640"
     inkscape:window-x="-8"
     inkscape:window-y="-8"
     inkscape:window-maximized="1"
     inkscape:current-layer="layer1"
     inkscape:snap-page="true" />
  <g
     inkscape:groupmode="layer"
     id="layer1"
     inkscape:label="background">
    <rect
       style="fill:#3e3e3e;fill-opacity:1;fill-rule:nonzero;stroke:none"
       id="rect3006"
       width="1280"
       height="1280"
       x="0"
       y="0"
       transform="scale(0.8,0.8)" />
  </g>
  <g
     inkscape:groupmode="layer"
     id="layer2"
     inkscape:label="foreground">
    <path
       d="m 641.92,132.68 c 43.68,-7.38 87.5,-16.46 132.04,-15.2 13.38,2.4 27.48,7.28 36.46,18.02 22.56,37.46 44.76,75.16 67.34,112.62 1.84,3.08 3.3,6.42 4.2,9.92 14.68,54.64 29.5,109.26 44.22,163.9 3.54,14.06 8.36,27.86 10.26,42.3 4,25.86 8.18,51.68 12.24,77.54 2.6,20.6 1.42,41.4 2.22,62.1 0.58,23.42 1.42,46.94 -1.08,70.28 -0.94,6.62 -4.42,12.48 -6.62,18.7 -6.52,17.7 -12.54,35.58 -18.8,53.36 -0.82,4.92 -6.36,4.92 -10.1,6.2 -3.06,-2.64 -6.9,-4.62 -8.86,-8.26 -8.3,-16.4 -18.82,-31.56 -28.3,-47.28 -7.66,-12.64 -18.68,-22.6 -28.98,-33 -19.16,-20.9 -38.12,-42 -57.36,-62.84 -19.24,-17.38 -38.92,-34.3 -58.32,-51.54 -12.36,-11.28 -26.64,-20.14 -39.74,-30.5 4.48,-26.8 6.28,-53.98 10.2,-80.88 24.22,21.48 47.78,43.68 72.02,65.12 13,12.28 27.46,23.08 38.86,36.94 16.52,19.4 33.46,38.42 49.94,57.82 14.54,18.92 28.8,38.04 43.2,57.06 2.82,3.48 6.16,7.44 10.92,7.96 4.12,-1.12 10.04,-2.06 11.12,-7.04 2.46,-21.94 2.8,-44.08 1.42,-66.1 -1.66,-23.94 -1.78,-48.02 -4.42,-71.88 -7.02,-32.22 -15.2,-64.2 -23.04,-96.22 -11.02,-45.7 -23.88,-90.9 -34.76,-136.62 -1.38,-5.52 -2.48,-11.22 -5.24,-16.26 -22.24,-39.56 -43.76,-79.56 -67.5,-118.26 -5.5,-7.52 -15.22,-9.82 -23.62,-12.58 -11.48,-3.98 -23.74,-2.62 -35.66,-3.16 -18.24,1.68 -36.04,6.38 -54.12,9.14 -75.3,14.96 -150.58,30.02 -225.84,45.16 -100.48,24.56 -200.84,49.6 -301.3,74.24 -7.24,1.74 -15.42,3.02 -20.24,9.34 -3.6,4.76 -8.46,10.06 -7.84,16.42 4.2,3.6 9.28,7.06 15.04,7.06 31.36,1 62.66,3.1 93.96,5.06 53.1,4.38 106.26,8.36 159.08,15.38 -1.46,27.68 -2.86,55.34 -4.3,83.02 -42.12,-10.98 -84.3,-21.84 -126.42,-32.82 -5.96,-1.78 -12.18,-1.62 -18.3,-1.88 -45.18,-5.08 -89.94,-14.16 -135.42,-16.34 -7.72,-6.46 -5.16,-17.64 -7.22,-26.48 -3.02,-16.04 -4,-32.92 2.42,-48.3 3.08,-5.96 9.2,-9.48 15.5,-11.12 44.38,-13.44 88.62,-27.32 133.02,-40.62 58.36,-14.38 116.42,-30.06 175.2,-42.62 70.8,-15.76 141.62,-31.5 212.52,-46.86 z"
       id="path6"
       inkscape:connector-curvature="0"
       style="fill:#f5e5c1" />
    <path
       d="m 723.72,152.68 c 18,-3.82 37.1,-0.42 53.12,8.42 6.3,3.26 8.58,10.36 11.98,16.08 18.7,33.34 37.18,66.8 55.72,100.24 1.88,3.36 3.32,6.96 4.36,10.68 19.68,74.32 37.8,149.06 56.34,223.68 1.6,6.6 3.82,13.16 4,20.04 1.52,31.04 3.36,62.06 4.48,93.12 C 902.56,609.28 891.56,593.5 880.18,578 870.6,567.48 859.58,558.4 849.36,548.52 835.6,535.66 825.34,519.44 810.7,507.48 c -28.2,-25.06 -56.08,-50.44 -83.94,-75.86 6.52,-30.54 16.62,-60.54 19.8,-91.74 3.22,-11.8 2.6,-24.12 1.5,-36.16 -1.48,-7.02 -5.54,-13.12 -8.34,-19.64 -1.58,-3.42 -3.36,-7.12 -7.16,-8.48 -17.38,-8.38 -34.06,-18.74 -53.24,-22.58 -17.72,-6.76 -36.86,-5.18 -55.42,-6.3 -14.06,-0.76 -27.94,1.96 -41.88,3.14 -14.04,1.98 -28.56,1.74 -42.12,6.4 -29.2,8.86 -58.42,17.64 -87.66,26.4 -15.1,4.62 -28.78,13.12 -43.94,17.42 -13.5,-0.82 -26.66,-4.5 -40.18,-5.24 -61.84,-7.06 -124.04,-9.88 -185.96,-16.08 41.22,-11.4 81.4,-26.42 123.16,-35.82 49.5,-12.12 99.02,-24.16 148.52,-36.3 49.56,-12.8 100.12,-21.02 150.2,-31.46 39.76,-8.18 79.86,-14.6 119.68,-22.5 z"
       id="path8"
       inkscape:connector-curvature="0"
       style="fill:#f5e5c1" />
    <path
       d="m 548.42,269.78 c 20.56,-1.42 41.08,-3.52 61.64,-4.88 18.06,1.16 35.98,4.22 54,6.02 17.76,0.96 33.96,9.3 49.28,17.64 4.98,4.86 7.76,11.7 10.76,17.92 2.36,21.28 1.6,43.14 -3.76,63.96 -2.68,-7.28 -2.74,-16.44 -9.68,-21.26 -9.58,-9.58 -22.24,-15.92 -35.68,-17.66 -9.66,-1.3 -19.32,-3.94 -29.14,-2.8 -26.7,2.86 -53.58,4.56 -79.94,9.86 -20.58,6.42 -41.14,13 -61.58,19.92 -32,12.62 -63.98,25.34 -95.88,38.22 0.5,-26.9 1.26,-53.8 2.32,-80.68 12.46,-6.06 24.82,-12.4 37.62,-17.66 22.96,-7.18 46.08,-13.88 69.08,-20.92 10.22,-2.92 20.22,-7.08 30.96,-7.68 z"
       id="path10"
       inkscape:connector-curvature="0"
       style="fill:#f5e5c1" />
    <path
       style="fill:#f4722b"
       d="m 649.85,349.7 c -13.2129,0.20163 -26.48906,3.34531 -39.75,3.5 -18.96,2.38 -38.28,3.94 -56.2,11.1 -32.84,9.44 -64.23,23.02 -95.95,35.6 -22.46,7.58 -43.93,19.64 -68.15,20.3 -10.54,-1.36 -20.58,-5.09 -30.9,-7.45 -33.48,-8.38 -67,-16.44 -100.3,-25.5 -49.04,-3.96 -97.42,-14.55 -146.6,-17.65 -21.24,16.16 -42.04,32.84 -63.2,49.1 -3.8,3.02 -8.19,5.5 -11.05,9.5 -1.2,6.52 0.78,13.16 1.3,19.7 1.74,10.92 1.37,22.12 4.05,32.9 19.48,-3.66 39.08,-6.6 58.6,-10.1 11.96,-2.32 24.2,-1.16 36.3,-1.4 15.36,0.84 31.14,-0.06 46,4.7 27.42,6.34 54.39,14.72 80.45,25.4 18.1,5.9 36.28,11.59 54.5,17.15 5.46,1.1 11.37,3.87 16.85,1.35 25.94,-10.66 49.18,-27.33 76.1,-35.75 19.98,-6.8 39.94,-13.53 60,-20.05 37.52,-8.46 76.32,-7.12 114.4,-4.3 10.12,1.78 19.87,5.14 29.65,8.2 8.36,4.84 16.92,9.64 24.7,15.4 8.02,12.18 10.13,26.92 14.05,40.7 1.96,7.84 4.96,15.63 4.6,23.85 -1.94,44.06 -4.99,88.07 -6.45,132.15 10.18,7.38 20.1,15.17 30.3,22.55 16.74,11.42 34.27,21.69 50.85,33.35 23.46,18.5 47.22,36.68 69.6,56.5 7.6,6.34 14.78,13.2 20.9,21 16.48,20.28 35.34,38.92 48,62 10.94,14.72 17.07,32.01 23.65,48.95 7.5,-1.5 13.45,-6.56 19.95,-10.2 4.68,-2.84 9.67,-5.21 13.95,-8.65 1.86,-25.84 2.24,-51.78 4.3,-77.6 -0.06,-19.98 4.75,-39.91 1.75,-59.85 -8.92,7.58 -22.3,10.49 -32.9,4.75 -7.16,-4.72 -13.96,-10.57 -17.7,-18.45 -8.1,-16.12 -17.86,-31.26 -27.6,-46.4 -7.52,-11.56 -18.69,-20.03 -27.75,-30.25 -18.32,-20.28 -36.4,-40.76 -55.2,-60.6 -21.38,-18.64 -42.31,-37.78 -63.95,-56.1 -11.7,-9.12 -24.03,-17.4 -35.25,-27.1 5.32,-34.8 11.58,-69.49 17.3,-104.25 3.88,-16.52 16.01,-31.75 12.05,-49.55 -6.14,-15.58 -22.17,-25.5 -38.55,-26.7 -4.67499,-1.19 -9.35563,-1.72282 -14.05,-1.8 -0.88019,-0.0145 -1.76914,-0.0134 -2.65,0 z m -95.95,73.4 c 3.36234,-0.011 6.7475,0.1575 10.1,0.6 13.04,1.56 26.22,1.6 39.2,3.7 7.78,2.38 15.7,4.74 22.8,8.8 5.68,4.2 11.44,8.41 16.4,13.45 3.68,8.18 5.31,17.1 7.75,25.7 C 636.37,466.07 622.78,455.06 606,452 c -10.68,-2.08 -20.73,-7.42 -31.85,-6.8 -18.68,0.14 -37.49,-1.83 -56.05,0.85 -15.44,2.38 -31.33,2.54 -46.25,7.6 -17.96,5.9 -36.89,8.76 -54.35,16.2 -29.2,11.82 -58.44,23.41 -87.6,35.35 -50.64,-12.92 -96.95,-39.22 -148.15,-50.1 -22.54,-0.7 -45.41,-3.56 -67.75,0.9 -20.18,3.5 -40.62,4.43 -61,5.85 -1.42,-9.96 -2.37,-19.99 -2.85,-30.05 45.22,-2.04 90.51,-2.87 135.75,-0.65 18.36,-0.92 35.65,5.9 53.25,10 27.46,6.46 53.93,16.25 80.85,24.55 7.06,1.82 14.3,6.36 21.7,3.5 29.72,-9.3 59.28,-19.14 88.8,-29 12.36,-3.42 24.95,-6.12 37.55,-8.4 23.04,-2.36 46.16,-3.84 69.1,-7.2 5.5375,-0.8875 11.1461,-1.48165 16.75,-1.5 z M 664.3,636 c 5.92,8.84 15.8,13.43 24.2,19.45 52.84,33.6 101.8,72.73 152.4,109.55 8.4,5.64 13.83,14.35 20.25,21.95 15.94,19.44 31.46,39.22 47.1,58.9 2.44,3.06 4.18,6.61 5.3,10.35 3.8,12.04 7.47,24.12 11.45,36.1 -5.38,6.68 -12.78,11.17 -19.9,15.75 -6.1,-13.6 -11.99,-27.34 -18.35,-40.8 C 878.63,855.29 870.18,843.6 862.6,831.3 859,825.08 853.42,820.4 848.4,815.4 837.72,804.04 827.56,791.98 815,782.6 796.92,768.14 778.11,754.58 760.95,739 745.71,724.46 727.44,713.82 710.5,701.5 c -14.58,-10.14 -29.11,-20.33 -43.75,-30.35 -2.2,-1.84 -6.04,-3.55 -4.9,-7.15 0.7,-9.34 1.55,-18.66 2.45,-28 z"
       id="path12"
       inkscape:connector-curvature="0" />
    <path
       d="m 517.92,477.8 c 23.84,-3.24 47.82,-7.48 71.94,-6.34 12.54,4.5 24.5,10.54 36.76,15.76 4.76,9.66 11.02,18.62 14.78,28.74 2.22,11.26 4.18,22.64 5.58,34.06 -0.72,17.34 -2.88,34.6 -4.08,51.94 -1.56,23.46 -6.08,46.64 -7.62,70.08 2.26,6.38 5.68,12.26 8.38,18.46 2.26,4.72 4.04,10.08 8.52,13.24 30.72,23.92 61.56,47.72 92.14,71.8 19.38,16.58 36.64,35.5 55.62,52.5 12.6,10.86 21.62,25.06 33.84,36.3 3.42,0.02 6.84,0.08 10.26,0.14 0.28,-1.48 0.8,-4.4 1.08,-5.86 4.46,6.62 9.18,13.06 14.1,19.36 -0.66,6.1 -0.94,12.34 -2.96,18.2 -8.82,23.06 -18.14,45.94 -26.58,69.16 -4.54,-0.26 -9.1,-0.48 -13.62,-0.94 -6.4,-9.64 -15.4,-17.06 -22.42,-26.16 -9.18,-12.08 -19.6,-23.14 -28.82,-35.18 -5.82,-7.48 -10.44,-15.96 -17.44,-22.5 -37.2,-34.76 -74.62,-69.28 -111.88,-104 -8.1,-6.92 -15.06,-15.2 -24.08,-21 2.88,-33.84 7.96,-67.48 11.46,-101.24 0.32,-12.58 7.38,-23.66 8.44,-36.12 3.52,-17.18 3.6,-34.72 3.82,-52.18 -2.18,-13.66 -5.16,-29.26 -17.76,-37.32 -12.48,-5.24 -26.34,-4 -39.54,-4.04 -7.12,-0.16 -13.64,3 -20.26,5.14 -19.78,7.02 -39.84,13.38 -59.38,21.06 -22.1,11.38 -43.22,24.56 -65.3,36 -17.54,8.62 -35.36,16.62 -52.9,25.22 -2.62,0.88 -5.16,3.24 -8.06,2.26 -1.02,-2 -1.72,-4.12 -2.1,-6.34 -4.92,-24.78 -9.96,-49.54 -15.06,-74.28 27.9,-11.82 55.88,-23.48 83.78,-35.34 10.96,-4.84 22.9,-6.64 34.4,-9.8 15,-3.48 29.78,-8.06 44.96,-10.78 z"
       id="path16"
       inkscape:connector-curvature="0"
       style="fill:#f5e5c1" />
    <path
       d="m 88.92,488.66 c 5.56,-1.32 11.12,-2.66 16.64,-4.22 -1.88,4.82 -2.3,9.98 -2.5,15.1 20.02,0.58 40.02,2.34 59.98,4.02 27.68,4 55.36,8.08 82.96,12.48 21.46,6.52 42.72,13.68 64.2,20.14 10.02,2.72 20.3,4.3 30.34,6.94 3.72,23.92 8.22,47.76 11.2,71.8 -9.1,-1.18 -17.38,-5.3 -26,-8.18 -18.22,-6.34 -36.22,-13.4 -54.58,-19.34 -20.42,-4.66 -40.98,-8.72 -61.46,-13.16 -21.68,-5.54 -44.28,-4.48 -66.44,-6.08 -19.4,-1.56 -39,-0.88 -58.32,-3.32 -0.42,-0.62 -1.28,-1.88 -1.7,-2.5 2.34,-24.52 2.38,-49.28 5.68,-73.68 z"
       id="path18"
       inkscape:connector-curvature="0"
       style="fill:#f5e5c1" />
    <path
       d="m 492.82,634.82 c 9.56,-1.08 19.32,3.18 26.62,9.28 -1.26,9.62 -10.54,14.32 -17.16,20.04 -6.54,4.12 -13.02,10.12 -21.28,9.62 -0.32,-6.44 -5.36,-11.58 -5.64,-17.84 3.48,-8.44 9.16,-16.86 17.46,-21.1 z"
       id="path20"
       inkscape:connector-curvature="0"
       style="fill:#f5e5c1" />
    <path
       d="m 303.78,779.82 c 8.9,-14.48 23.18,-26.56 40.6,-28.32 10.72,4.44 18.22,13.86 26.64,21.48 1,8.32 -6.26,15.24 -12.72,19.38 -17.14,7.28 -35.94,10.22 -54.5,8.08 -1.56,-6.7 -3.86,-14.26 -0.02,-20.62 z"
       id="path24"
       inkscape:connector-curvature="0"
       style="fill:#f5e5c1" />
    <path
       d="m 454.62,770.82 c 7.82,-3.36 14.22,-10.44 23.3,-10.24 7.18,-1.44 11.56,7.12 9.4,13.16 -2.86,9.1 -9.96,17.06 -18.78,20.76 -9.9,2.32 -20.12,-0.32 -29.92,-1.98 -0.06,-9.8 7.38,-18.02 16,-21.7 z"
       id="path26"
       inkscape:connector-curvature="0"
       style="fill:#f5e5c1" />
    <path
       d="m 563.42,834.28 c 0.44,-9.58 10.4,-16.9 19.72,-15.42 0.22,7.88 -5.22,14.78 -12.18,17.88 -2.76,1.28 -6.8,1.1 -7.54,-2.46 z"
       id="path28"
       inkscape:connector-curvature="0"
       style="fill:#f5e5c1" />
    <path
       d="m 294.56,950.62 c -1.08,-15.64 15.9,-26.56 30.18,-26.1 -0.84,5.76 6.54,9.7 3.48,15.24 -4.1,8.3 -12.3,16.4 -22.22,15.82 -4.16,-0.74 -7.62,-3.34 -11.44,-4.96 z"
       id="path30"
       inkscape:connector-curvature="0"
       style="fill:#f5e5c1" />
  </g>
</svg>
