<?xml version="1.0" encoding="UTF-8" standalone="no"?>
<svg
   xmlns:dc="http://purl.org/dc/elements/1.1/"
   xmlns:cc="http://creativecommons.org/ns#"
   xmlns:rdf="http://www.w3.org/1999/02/22-rdf-syntax-ns#"
   xmlns:svg="http://www.w3.org/2000/svg"
   xmlns="http://www.w3.org/2000/svg"
   xmlns:sodipodi="http://sodipodi.sourceforge.net/DTD/sodipodi-0.dtd"
   xmlns:inkscape="http://www.inkscape.org/namespaces/inkscape"
   width="1280"
   height="1280"
   viewBox="0 0 1024 1024"
   version="1.1"
   id="svg2"
   inkscape:version="0.48.1 "
   sodipodi:docname="kill_shotgun.svg">
  <metadata
     id="metadata44">
    <rdf:RDF>
      <cc:Work
         rdf:about="">
        <dc:format>image/svg+xml</dc:format>
        <dc:type
           rdf:resource="http://purl.org/dc/dcmitype/StillImage" />
      </cc:Work>
    </rdf:RDF>
  </metadata>
  <defs
     id="defs42" />
  <sodipodi:namedview
     pagecolor="#ffffff"
     bordercolor="#666666"
     borderopacity="1"
     objecttolerance="10"
     gridtolerance="10"
     guidetolerance="10"
     inkscape:pageopacity="0"
     inkscape:pageshadow="2"
     inkscape:window-width="1920"
     inkscape:window-height="1018"
     id="namedview40"
     showgrid="false"
     fit-margin-top="0"
     fit-margin-left="0"
     fit-margin-right="0"
     fit-margin-bottom="0"
     inkscape:zoom="0.6609375"
     inkscape:cx="466.00473"
     inkscape:cy="640"
     inkscape:window-x="-8"
     inkscape:window-y="-8"
     inkscape:window-maximized="1"
     inkscape:current-layer="layer1"
     inkscape:snap-page="true" />
  <g
     inkscape:groupmode="layer"
     id="layer1"
     inkscape:label="background">
    <rect
       style="fill:#3e3e3e;fill-opacity:1;fill-rule:nonzero;stroke:none"
       id="rect2996"
       width="1280"
       height="1280"
       x="0"
       y="0"
       transform="scale(0.8,0.8)" />
  </g>
  <g
     inkscape:groupmode="layer"
     id="layer2"
     inkscape:label="foreground">
    <path
       style="fill:#f5e5c1"
       d="m 82.25,41.6 c -8.46168,0.0923 -16.775,2.67375 -24.9,4.9 -6.62,1.6 -13.12,6.13 -14.3,13.25 -4.24,17.2 -10.59,33.79 -15.55,50.75 -2.16,6.4 -0.62,15.09 6.2,17.95 9.68,4.46 19.37,10.2 30.35,10.3 9.38,0.34 18.71,1.49 28.05,2.45 17.64,2.98 33.81,11.05 49.45,19.45 14.24,7.66 26.99,18.01 37.65,30.15 3.14,3.6 6.61,6.9 10.75,9.3 9.58,-22.58 18.21,-45.52 27.75,-68.1 0.48,-2.44 3.41,-5.92 0.35,-7.7 -13.4,-8.84 -27.04,-17.34 -40.5,-26.1 C 152.91,83.48 126.24,71.81 98.1,65.75 85.5,62.89 73.2,58.54 60.4,56.5 c 0.28,-1.92 0.54,-3.78 0.8,-5.7 22.94,4.9 45.7,10.71 68.1,17.65 35.32,11.32 66.06,32.6 96.7,52.9 7.9,-3.02 15.42,-7.68 24,-8.4 8.98,0.44 17.2,4.99 25.4,8.25 -11.7,0.68 -24.64,-3.48 -35.5,2.6 27.98,15.34 55.59,31.35 83.55,46.75 14.02,1.9 28.36,-0.74 42.5,-0.1 6.5,-0.06 12.57,3.26 16.85,8 -15.58,-1.92 -31.15,0.31 -46.75,0.55 19.2,17.76 37.43,36.51 56.75,54.15 17.26,16.86 34.25,33.97 52.15,50.15 l 0,3.5 c -2.56,0.58 -5.1,1.32 -7.7,1.6 -8.94,-6.84 -16.1,-15.72 -24.7,-23 -29.84,-28.76 -59.85,-57.32 -90.05,-85.7 -7.32,-7.48 -17.18,-11.3 -26.2,-16.2 -15.92,-8.5 -31.91,-16.99 -47.85,-25.45 -5.88,-2.94 -11.39,-7.77 -18.35,-7.35 -12.3,31.64 -26.6,62.48 -39.7,93.8 -1.68,3.94 -1.85,8.77 0.75,12.35 36.32,51.6 74.47,101.98 109.75,154.3 19.68,27.22 39.65,54.24 58.75,81.9 13.2,-0.46 26.4,0.27 39.6,0.15 16.1,18.48 32.03,37.15 47.75,55.95 0.84,0.02 2.54,0.11 3.4,0.15 6.12,-12.88 12.6,-25.9 22.7,-36.2 5.64,-6.58 13.42,-10.75 20,-16.25 2.32,-1.56 3.04,-5.28 1.6,-7.6 -19.08,-24.82 -41.44,-46.82 -62.3,-70.1 -9.52,2.7 -20.08,4.63 -27.1,12.25 -9.9,11.04 -16.25,24.96 -19.65,39.3 -1.78,4.84 2.51,8.75 4.55,12.75 -8.28,-0.16 -16.52,-0.1 -24.8,-0.4 3.82,-10.8 9.93,-20.53 14.75,-30.85 20.64,-41.32 41.56,-82.46 61.9,-123.9 6.7,-15.66 26.28,-23.18 42.1,-18.1 15.5,3.66 29.67,18.06 27.25,34.9 -8.76,-5.9 -16.36,-13.76 -26.3,-17.8 -9.22,-1.56 -19.97,-0.14 -26.35,7.4 -9.92,8.58 -14.49,21.2 -18.75,33.2 -4.48,13.14 -4.83,28.71 3.45,40.45 17.58,24.82 39.05,46.46 58.65,69.6 3.38,3.34 6.49,8.32 11.75,8.4 10.22,0.14 20.69,1.25 29.95,5.85 8.96,5.52 14.92,14.44 22,22 60.04,69.26 120.73,137.91 181.25,206.75 14.7,17.24 31.08,33.11 43.9,51.85 2.26,3.42 6.62,6.18 6.5,10.7 -3.36,3.88 -8.24,6.49 -10.6,11.25 -5.24,8.24 -5.86,18.25 -6.1,27.75 37.2,46.28 74.69,92.34 111.95,138.6 5.06,5.88 10.15,12.69 17.65,15.45 8.02,0.24 16.21,0.92 24.15,-0.4 10.22,-4.56 20.62,-9.27 29.6,-16.05 15.74,-15.34 24.29,-36.44 29.65,-57.4 1.84,-6.36 -0.14,-12.83 -1,-19.15 C 858.57,710.39 722.29,559.12 586.85,407.1 c -22.72,-24.86 -44.5,-50.62 -67.6,-75.1 2.48,-8.68 3.17,-18.27 -0.35,-26.75 -5.2,-11.94 -12.03,-23.43 -21.65,-32.35 -26.6,-28.82 -53.7,-57.18 -80.3,-86 -4.36,-4.68 -10.29,-7.31 -15.85,-10.25 C 359.7,155.59 318.35,134.44 277.05,113.2 267.11,107.74 256,105.05 245.9,99.95 219.12,86.71 192.48,73.22 165.8,59.8 152.44,52.6 137.32,50.13 123,45.55 111.8,41.43 99.73,43.46 88.15,42 86.185,41.72625 84.202696,41.5787 82.25,41.6 z M 235.8,144.7 c 3.19406,-0.0516 6.47501,0.205 8.35,3.25 5.72,4.48 3.58,17.68 -5.2,15.1 -6.38,-3.52 -6.71,-11.8 -6.25,-18.3 1,0.01 2.03531,-0.0328 3.1,-0.05 z m 54.9,46.2 c 2.61082,0.0554 5.24,0.32499 7.7,0.25 29.96,31.72 58.61,64.69 88.55,96.45 0.68,13.94 5.01,30.53 -5.05,42.25 -7,8.2 -18.43,5.48 -27.85,5.3 -25.28,-33.72 -50.83,-67.24 -76.45,-100.7 -3.96,-5.46 -9.4,-11.17 -8.6,-18.45 1.28,-7.78 3.38,-16.22 9.8,-21.4 2.59,-2.63 5.8675,-3.4775 9.3,-3.65 0.85813,-0.0431 1.72973,-0.0685 2.6,-0.05 z m 126.55,93.3 c 0.79125,0.0208 1.6225,0.16501 2.5,0.5 7.98,3.5 11.33,13.38 8.55,21.4 -1.86,4.34 -7.19,3.08 -10.95,3.7 -3.38,-4.08 -7.7,-8.12 -8.3,-13.7 -0.6475,-5.14499 2.66125,-12.04547 8.2,-11.9 z m -66.85,126 c 3.36445,-0.10352 6.8875,1.7625 8.75,4.7 5.4,5.42 4.38,13.49 4.1,20.45 -2.3,1.8 -4.56,3.67 -7.1,5.15 -3.62,0.26 -7.13,-0.99 -10.65,-1.65 -5.14,-7.34 -8.4,-19.46 -0.6,-26.1 1.5075,-1.7025 3.48133,-2.48789 5.5,-2.55 z m 608.75,454.15 c 3.6525,0.01 7.33,0.7 10.75,1.55 4.92,2.02 12.19,3.86 12.95,10.1 0.4,18.64 -8.78,36.08 -21.3,49.4 -10.16,13.94 -28.76,20.16 -45.5,17.7 -4.5,-0.54 -9.81,-2.71 -11.15,-7.45 -0.96,-8.5 0.63,-17.15 3.75,-25.05 8.02,-18.52 22.47,-33.98 40.05,-43.8 3.19,-1.83 6.7975,-2.46 10.45,-2.45 z"
       id="path6"
       inkscape:connector-curvature="0" />
    <path
       d="m 283.06,206.96 c 0.84,0.12 2.48,0.38 3.32,0.5 24.26,28.54 48.08,57.46 72.14,86.16 4.28,4.52 2.5,11.1 2.22,16.66 -3.88,1.08 -7.72,3 -11.84,2.7 -3.44,-3.24 -6,-7.24 -8.84,-10.98 -21.08,-27.44 -42.74,-54.44 -63.68,-82 1.7,-4.6 3.9,-9 6.68,-13.04 z"
       id="path12"
       inkscape:connector-curvature="0"
       style="fill:#f5e5c1" />
    <path
       d="m 504.24,486.14 c 4.38,-3.06 8.88,-5.94 13.48,-8.68 5.06,1.52 10.82,1.9 14.98,5.5 8.72,7.44 15.44,16.78 23.24,25.1 56.9,64.44 113.78,128.86 170.64,193.32 8.88,9.82 17.18,20.18 26.5,29.6 -5.32,4.74 -11.54,9.76 -18.78,10.68 -3.32,-2.68 -5.78,-6.22 -8.52,-9.44 -60.46,-73.54 -120.94,-147.06 -181.5,-220.52 -4.76,-5.4 -8.5,-12.62 -15.88,-14.74 -8.32,-3 -16.36,-6.7 -24.16,-10.82 z"
       id="path18"
       inkscape:connector-curvature="0"
       style="fill:#f5e5c1" />
    <path
       style="fill:#f5e5c1"
       d="m 489.95,500.5 c -3.36,3.18 -6.97,6.2 -9.25,10.3 -9.38,16.84 -18.42,33.9 -26.3,51.5 -2.64,6.9 -4.04,14.44 -3,21.8 3.78,21.46 9.06,42.63 15.1,63.55 10.74,20.44 24.81,38.98 36.85,58.7 11.72,17.66 21.48,36.76 35.4,52.9 7.94,10.02 15.51,20.45 24.95,29.15 19.52,18.44 36.32,39.7 57.9,55.9 8.34,7.16 17.87,12.73 26.55,19.45 11.94,9.18 26.49,13.89 40.15,19.85 6.04,2.38 11.8,6.02 18.5,6.1 -0.04,-1.78 -0.11,-5.32 -0.15,-7.1 -11.9,-11.5 -15.61,-28.79 -13.05,-44.75 1.36,-7.64 0.64,-15.67 3.7,-22.95 2.44,-6.2 4.52,-12.54 7.5,-18.5 4.54,-8.24 10.72,-15.67 13.8,-24.65 1.3,-6.52 -0.06,-13.21 -0.5,-19.75 -0.88,-4.88 -0.13,-10.48 -3.55,-14.5 C 658.81,670.52 603.56,603.09 547.9,536.05 c -8.74,-10.08 -16.41,-21.04 -25.85,-30.5 -10.78,-1.12 -21.36,-3.67 -32.1,-5.05 z m 33.75,68 c 2.92,2.44 4.92,5.76 7.3,8.7 0,0.7 0.05,2.1 0.05,2.8 -23.48,14.52 -45.95,33.58 -56.65,59.7 -0.74,-0.08 -2.26,-0.3 -3,-0.4 -1,-6.86 -4.41,-14.14 -1.25,-20.9 5.38,-13.6 16.42,-23.77 26.8,-33.65 7.88,-6.78 16.57,-13.51 26.75,-16.25 z m 23.2,28.1 c 3.26,3.64 6.13,7.6 8.95,11.6 -15.68,7.34 -29.96,17.41 -42.9,28.85 -9.78,9.28 -13.89,22.38 -20.65,33.7 -3.24,-5.98 -8.78,-12.41 -7,-19.65 6.72,-13.66 16.52,-25.83 28.3,-35.45 10,-8.14 22.34,-12.45 33.3,-19.05 z m 21.65,26.4 c 2.92,3.68 5.8,7.4 8.7,11.1 -3.96,2.42 -7.93,4.82 -11.65,7.6 -12.06,9.7 -25.71,17.85 -34.85,30.65 -5.88,8.7 -11.46,17.6 -16.5,26.8 -1.52,0.02 -3.03,0.06 -4.55,0.1 -2.24,-3.94 -6.43,-7.96 -4.95,-12.9 11.26,-28.88 35.58,-51.31 63.8,-63.35 z m 26.65,33.6 c 3.6,2.86 4.68,7.42 6,11.6 -9.68,7.08 -21.65,10.3 -30.75,18.2 -9.4,7.88 -18.77,16.25 -25.05,26.95 -4.22,6.66 -8.12,13.47 -11.8,20.45 -4.04,-4.9 -11.01,-10.43 -8.35,-17.55 1.88,-5.26 5.56,-9.61 8.7,-14.15 5.7,-7.62 10.4,-16.14 17.8,-22.3 9.1,-7.96 19.95,-13.41 30.55,-19.05 4.04,-1.96 8.3,-4.07 12.9,-4.15 z m 25.1,29.7 c 2.56,3.3 5.01,6.68 7.45,10.1 -13.48,12.44 -30.64,20.49 -42.7,34.55 -9.86,9.7 -14.85,22.81 -22.05,34.35 -4.9,-0.42 -7.2,-6.14 -10.7,-9 9.9,-32.38 35.28,-60.04 68,-70 z m 20.4,26.35 c 3.54,3.06 6.6,6.68 7.2,11.5 -11.14,8.68 -24.88,15.02 -32.1,27.8 -8.94,14.72 -23.03,27.68 -24.05,45.9 l -0.95,-1.9 c -3.78,-3.2 -7.26,-6.73 -10.8,-10.15 1.8,-9.08 7.45,-16.57 11.25,-24.85 11.32,-20.26 27.55,-39.3 49.45,-48.3 z"
       id="path20"
       inkscape:connector-curvature="0" />
    <path
       d="m 749.6,771.52 c 7.96,-6.1 15.5,-12.72 22.98,-19.38 0.06,1.04 0.2,3.12 0.26,4.16 -7.36,6.54 -9.26,16.44 -11.28,25.6 0.8,8.5 1.9,17.08 5.6,24.9 -6.78,3.6 -13.9,7.66 -17.16,15.02 -5.12,11.02 -10,22.34 -12.88,34.18 0.92,13.22 7.76,24.94 12.22,37.18 -8.5,-2.3 -17.9,-3.68 -24.54,-9.98 -6.58,-6.2 -11.26,-14.42 -13.44,-23.16 -3.64,-23.26 4.7,-47.12 19.14,-65.28 5.86,-8.14 11,-17.08 19.1,-23.24 z"
       id="path34"
       inkscape:connector-curvature="0"
       style="fill:#f5e5c1" />
    <path
       d="m 765.28,825.12 c 1.62,-3.74 5.62,-5.26 8.96,-7.06 9.46,14.16 21.86,25.92 32.16,39.4 15.06,17.82 31.5,34.46 46.54,52.28 2.54,8.34 -2.82,16.86 -7.62,23.4 -5.56,8.72 -16.12,11.5 -24.98,15.58 -2.42,-0.72 -4.86,-1.42 -7.26,-2.06 -18.44,-22.38 -34.8,-46.38 -52.48,-69.36 -5.46,-6.5 -6.76,-15.24 -5.28,-23.4 3.3,-9.6 5.94,-19.46 9.96,-28.78 z"
       id="path36"
       inkscape:connector-curvature="0"
       style="fill:#f5e5c1" />
  </g>
</svg>
