<?xml version="1.0" encoding="UTF-8" standalone="no"?>
<svg
   xmlns:dc="http://purl.org/dc/elements/1.1/"
   xmlns:cc="http://creativecommons.org/ns#"
   xmlns:rdf="http://www.w3.org/1999/02/22-rdf-syntax-ns#"
   xmlns:svg="http://www.w3.org/2000/svg"
   xmlns="http://www.w3.org/2000/svg"
   xmlns:sodipodi="http://sodipodi.sourceforge.net/DTD/sodipodi-0.dtd"
   xmlns:inkscape="http://www.inkscape.org/namespaces/inkscape"
   width="1280"
   height="1280"
   viewBox="0 0 1024 1024"
   version="1.1"
   id="svg2"
   inkscape:version="0.48.1 "
   sodipodi:docname="revenge_assist.svg">
  <metadata
     id="metadata38">
    <rdf:RDF>
      <cc:Work
         rdf:about="">
        <dc:format>image/svg+xml</dc:format>
        <dc:type
           rdf:resource="http://purl.org/dc/dcmitype/StillImage" />
      </cc:Work>
    </rdf:RDF>
  </metadata>
  <defs
     id="defs36" />
  <sodipodi:namedview
     pagecolor="#ffffff"
     bordercolor="#666666"
     borderopacity="1"
     objecttolerance="10"
     gridtolerance="10"
     guidetolerance="10"
     inkscape:pageopacity="0"
     inkscape:pageshadow="2"
     inkscape:window-width="1920"
     inkscape:window-height="1018"
     id="namedview34"
     showgrid="false"
     inkscape:snap-page="true"
     inkscape:zoom="0.9625"
     inkscape:cx="371.73306"
     inkscape:cy="295.13045"
     inkscape:window-x="-8"
     inkscape:window-y="-8"
     inkscape:window-maximized="1"
     inkscape:current-layer="svg2"
     fit-margin-top="0"
     fit-margin-left="0"
     fit-margin-right="0"
     fit-margin-bottom="0" />
  <rect
     style="fill:#3e3e3e;fill-opacity:1;stroke:none"
     id="rect3015"
     width="1024"
     height="1024"
     x="0"
     y="0" />
  <path
     d="m 344.05,54.45 c -7.00949,0.0861 -14.0175,0.465 -21,1.1 -46.04,4.2 -90.97,20.22 -129.05,46.5 -54.18,37 -94.31,94.16 -110.05,157.9 -13.94,54.62 -10.08,113.48 10.6,165.9 22.46,57.4 65.12,106.63 118.8,136.95 44.8,25.68 97.08,37.91 148.6,34.95 67.1,-2.92 132.47,-32.62 179.35,-80.6 C 584.04,474.13 611.54,416.32 617.9,356 622.08,315.68 617.79,274.36 604.15,236.1 583.11,175.78 539.94,123.58 484.7,91.5 442.35,66.5975 393.11645,53.84762 344.05,54.45 z m 4.3,55.95 c 41.11051,0.18621 82.11,12.075 116.55,34.65 45.98,29.66 80.13,77.31 92.65,130.65 12.16,49.92 5.82,104.14 -18,149.7 -27.52,53.82 -78.72,94.93 -137.3,109.95 -41.36,10.88 -85.83,9.06 -126.15,-5.2 -52.72,-18.3 -97.52,-58.04 -122.1,-108.1 -23.94,-47.88 -28.75,-104.76 -13.75,-156.1 14.52,-50.44 48.31,-94.96 92.85,-122.7 29.3,-18.4 63.1,-29.56 97.6,-32.2 5.8575,-0.4525 11.77707,-0.6766 17.65,-0.65 z"
     id="path6"
     style="fill:#f5e5c1"
     inkscape:connector-curvature="0" />
  <path
     d="m 346.6,148.6 c -4.62333,0.0159 -9.24,0.2025 -13.85,0.55 -60.26,4.22 -117.5,39.95 -146.6,93.05 -21.6,38.46 -27.28,85.28 -16.2,127.9 9.82,37.84 32.86,71.95 63.9,95.65 29.74,23.02 66.65,36.3 104.15,38.2 42.06,2.24 84.86,-10.16 119,-34.9 29.8,-21.42 52.92,-52.15 64.7,-86.95 12.1,-35.36 12.33,-74.61 0.45,-110.05 -13.7,-42.02 -44.14,-78.01 -82.6,-99.55 -28.1925,-16.0125 -60.58675,-24.01156 -92.95,-23.9 z m -1.65,45.75 c 23.03901,-0.37096 46.2,5.1725 66.35,16.45 26.66,14.66 47.87,38.87 58.85,67.25 9.7,24.6 11.67,52.16 5.65,77.9 -6.8,29.7 -24.29,56.83 -48.65,75.15 -23.06,17.54 -52.03,27.32 -81.05,26.7 -36.86,0.12 -73.21,-16.69 -97.45,-44.35 -17.58,-19.78 -28.97,-45 -32.05,-71.3 -4.8,-36.9 7.28,-75.58 32.1,-103.3 20.5,-23.4 49.55,-38.98 80.35,-43.3 5.26875,-0.72 10.58331,-1.1144 15.9,-1.2 z"
     id="path10"
     style="fill:#f5e5c1"
     inkscape:connector-curvature="0" />
  <path
     d="m 331.24,245.68 c 17.66,-3.04 36.36,-1.32 52.62,6.46 26.34,12.04 45.7,38.64 47.64,67.72 1.62,18.68 -3.64,37.8 -14.48,53.08 -12.34,17.72 -31.92,30.08 -53.1,34.08 -28.46,5.88 -59.64,-4.32 -79.1,-25.94 -19.22,-20.5 -26.32,-51.42 -17.88,-78.26 8.6,-29.1 34.62,-51.64 64.3,-57.14 z"
     id="path14"
     inkscape:connector-curvature="0"
     style="fill:#f4722b" />
  <path
     d="m 691.74,420 c 9.58,-4.84 19.08,-9.84 28.82,-14.32 3.16,16.9 4.7,34.38 12.08,50.16 4.06,13.74 13.18,24.88 20.84,36.7 6.06,9.3 14.68,16.44 22.46,24.22 -11.72,6.46 -23.88,12.38 -34.46,20.66 4.42,10.02 9.08,19.94 13.02,30.14 3.24,8.82 -3.32,16.86 -6.28,24.74 -6.08,15.04 -14.54,28.98 -21.22,43.74 1.92,22.8 6.42,45.36 8.58,68.16 -11.7,11.94 -24.78,23.1 -39.92,30.4 5.08,-11.28 12,-21.62 17.2,-32.84 -1.7,-22 -5.78,-43.9 -8.58,-65.82 -0.08,-6.12 3.68,-11.36 5.74,-16.92 -9.98,-7.28 -19.84,-14.9 -31.16,-20.04 -14.4,-6.96 -28.88,-14.08 -40.46,-25.36 -20.4,-13.94 -42.44,-25.36 -63.54,-38.24 2.12,-2.22 4.26,-4.42 6.42,-6.62 18.5,8.88 37.86,16.02 55.5,26.64 21.02,11.7 42.1,23.26 63.1,35.02 6.74,3.92 14.48,5.46 22.02,7.12 3.6,-8.42 7.52,-16.7 11.06,-25.14 -4.98,-11.12 -9.96,-22.24 -14.3,-33.62 -2.28,-5.84 -6.54,-10.5 -10.12,-15.52 -12.56,-20.3 -21.18,-43.26 -22.9,-67.2 0.66,-12.2 3.24,-24.22 6.1,-36.06 z"
     id="path16"
     inkscape:connector-curvature="0"
     style="fill:#f5e5c1" />
  <path
     d="m 728.5,404.8 c 9.02,5.64 19.14,10.24 26.72,17.74 2.04,14.04 6.64,27.54 11.92,40.68 4.64,11.06 13.5,19.44 20.56,28.92 7.5,10.24 19.76,15.04 29.26,23.04 11.34,9.38 23.84,17.28 35.32,26.46 9.82,11.66 18.92,24.04 27.3,36.8 11.74,21.56 18.12,45.46 24.98,68.86 5.84,17.06 5.7,35.4 10.62,52.7 4.06,13.12 4.2,27 6.96,40.38 5.2,10.02 9.9,20.34 15.14,30.38 8.32,13.68 16.56,28.9 31.3,36.68 18.28,9.24 37.18,17.24 55.42,26.58 l 0,189.98 -371.58,0 c -31.1,-18.94 -61.92,-38.38 -93.04,-57.32 -17.64,-9.06 -36.76,-14.92 -54.5,-23.76 -14.74,-8.38 -29.16,-17.34 -43.8,-25.88 C 446.88,909.06 434.82,898 421.96,888.16 408.3,877.88 396.94,865.08 384.64,853.32 359.74,828.9 342.18,796.82 312.06,778 294.1,766.08 275.24,754.62 254.26,748.92 238.84,744.2 223.62,738.9 208.42,733.5 c -13.18,-4.84 -27.24,-6.64 -40.44,-11.46 -6.6,-2.48 -14.3,-3.26 -19.5,-8.44 -4.74,-4.68 -9.66,-9.24 -13.74,-14.52 -0.06,-3.98 1.2,-7.84 2.02,-11.7 25.54,3.56 51.18,6.62 76.42,12.02 23.68,6.08 47.78,10.62 71.1,17.98 28.58,11.38 57.02,23.08 85.5,34.7 -5.1,13.96 -7.56,29.12 -15.36,41.96 10.3,9.14 16.12,22.08 26.4,31.22 14.44,13.5 28.06,27.9 42.94,40.94 19.38,14.7 39.3,28.72 58.8,43.28 10.62,8.1 23.32,12.6 35.18,18.5 21.88,10.92 45.3,18.94 65.64,32.74 30.8,19.1 61.38,38.6 92.34,57.46 1.66,-17.46 2.7,-34.96 4.3,-52.42 0.44,-7.18 4.6,-13.3 8.74,-18.9 4.12,-5.74 11.22,-7.72 17.24,-10.74 78.1,-36.56 156.04,-73.42 234.12,-109.96 3.26,-1.82 8.34,-3.5 7.7,-8.2 0.54,-7.5 -6.7,-11.72 -10.7,-17 -7.2,-9.02 -13.3,-18.9 -19.4,-28.68 -4.84,-10.36 -7.58,-21.6 -10.56,-32.62 -3.96,-22.48 -7.34,-45.08 -11,-67.62 -2.52,-19.58 -10.36,-37.86 -15.62,-56.76 -3.22,-12.64 -11.04,-23.24 -17.18,-34.54 -7.08,-14.2 -19.46,-24.58 -30.56,-35.52 -11.68,-8.2 -23.04,-17.18 -35.86,-23.48 -10.78,-2.92 -17.1,-12.58 -24.9,-19.7 C 762,492.98 755.48,481 747.86,470.02 736.2,450.18 731.54,427.34 728.5,404.8 z"
     id="path18"
     inkscape:connector-curvature="0"
     style="fill:#f5e5c1" />
  <path
     d="m 535.66,571.42 c 10.34,-8.88 21.14,-17.28 30.82,-26.9 17.94,8.34 35.8,16.82 53.66,25.3 3.28,1.54 7.54,4.02 6.52,8.4 -1.66,4.06 -6.28,5.14 -9.88,6.82 -9.06,3.44 -17.82,7.62 -26.92,10.86 -3.42,1.6 -6.8,-0.5 -9.84,-1.88 -14.78,-7.54 -29.54,-15.16 -44.36,-22.6 z"
     id="path20"
     inkscape:connector-curvature="0"
     style="fill:#f5e5c1" />
  <path
     d="m 143.72,583.7 c 6.68,-4.62 14.4,-7.46 21.72,-10.94 16.18,12.68 34.04,23.02 52.38,32.24 -12.38,-2.9 -24.94,-4.96 -37.4,-7.46 -12.9,-2.72 -26.04,-0.24 -39.06,-0.12 -0.52,-4.64 -1.94,-10.36 2.36,-13.72 z"
     id="path22"
     inkscape:connector-curvature="0"
     style="fill:#f5e5c1" />
  <path
     d="m 522.96,580.14 c 15.78,8.36 31.76,16.42 47.28,25.28 -4.86,6.84 -12.7,10.46 -19.22,15.42 -8.42,5.28 -15.9,12.38 -24.86,16.54 -15.04,-7.9 -29.44,-17 -44.34,-25.16 -2.06,-1.5 -5.2,-2.22 -5.94,-4.94 16.48,-7.6 32.28,-16.6 47.08,-27.14 z"
     id="path24"
     inkscape:connector-curvature="0"
     style="fill:#f5e5c1" />
  <path
     d="m 142.7,609.02 c 9.74,-1.48 19.56,-0.02 29.34,0.06 12.3,0.06 24.2,3.44 36.26,5.5 20.54,4.06 41.28,7.48 61.28,13.74 22.4,7.06 45.14,13.32 66.52,23.22 28.86,13.36 57.68,26.82 86.76,39.72 8.56,3.04 4.54,14.02 5.62,20.86 -41.16,-14.14 -82.18,-28.62 -123.32,-42.86 -17.98,-6.72 -36.72,-11 -54.78,-17.54 -31.76,-8.98 -64.28,-15.4 -97.12,-18.68 -3.18,-8.16 -7.24,-15.94 -10.56,-24.02 z"
     id="path26"
     inkscape:connector-curvature="0"
     style="fill:#f5e5c1" />
  <path
     d="m 433.66,622.68 c 9.38,-3.18 18.86,-6.06 28.14,-9.52 13.94,7.54 27.18,16.3 41.08,23.92 3.92,2.24 10.24,5.28 7.44,10.92 -3.78,5.24 -10.58,2.4 -15.48,0.68 -20.56,-8.26 -41.5,-15.74 -61.18,-26 z"
     id="path28"
     inkscape:connector-curvature="0"
     style="fill:#f5e5c1" />
  <path
     d="m 366.08,635 c 13.28,-1.58 26.5,-3.98 39.74,-6.02 4.94,-1 9.54,1.62 14.14,3.04 13.38,5.14 27.22,9.26 39.92,16.02 10.52,5.46 21,10.96 31.54,16.38 -10.52,8.68 -21.62,16.62 -32.16,25.26 -46.92,-19.28 -93.36,-39.78 -141.2,-56.7 15.78,3.4 32.02,1.78 48.02,2.02 z"
     id="path30"
     inkscape:connector-curvature="0"
     style="fill:#f5e5c1" />
  <path
     d="m 139.2,676.42 c 0.9,-14.24 15.82,-22.54 28.78,-22.82 8.74,0.88 17.52,1.08 26.26,1.88 30.28,5 60.46,10.66 90.28,17.98 42.02,13.98 83.64,29.2 124.84,45.42 5.4,1.18 5.98,9.6 0.66,11.3 -9.76,4.72 -19.8,8.86 -29.96,12.66 -32.4,-13.56 -64.76,-27.46 -98.34,-37.86 -24.04,-5.7 -47.66,-13.1 -71.68,-18.9 -23.6,-3.2 -47.28,-6.14 -70.84,-9.66 z"
     id="path32"
     inkscape:connector-curvature="0"
     style="fill:#f5e5c1" />
</svg>
