<?xml version="1.0" encoding="UTF-8" standalone="no"?>
<svg
   xmlns:dc="http://purl.org/dc/elements/1.1/"
   xmlns:cc="http://creativecommons.org/ns#"
   xmlns:rdf="http://www.w3.org/1999/02/22-rdf-syntax-ns#"
   xmlns:svg="http://www.w3.org/2000/svg"
   xmlns="http://www.w3.org/2000/svg"
   xmlns:sodipodi="http://sodipodi.sourceforge.net/DTD/sodipodi-0.dtd"
   xmlns:inkscape="http://www.inkscape.org/namespaces/inkscape"
   width="1280"
   height="1280"
   viewBox="0 0 1024 1024"
   version="1.1"
   id="svg2"
   inkscape:version="0.48.1 "
   sodipodi:docname="stand_near_dispenser.svg">
  <metadata
     id="metadata18">
    <rdf:RDF>
      <cc:Work
         rdf:about="">
        <dc:format>image/svg+xml</dc:format>
        <dc:type
           rdf:resource="http://purl.org/dc/dcmitype/StillImage" />
      </cc:Work>
    </rdf:RDF>
  </metadata>
  <defs
     id="defs16" />
  <sodipodi:namedview
     pagecolor="#ffffff"
     bordercolor="#666666"
     borderopacity="1"
     objecttolerance="10"
     gridtolerance="10"
     guidetolerance="10"
     inkscape:pageopacity="0"
     inkscape:pageshadow="2"
     inkscape:window-width="1920"
     inkscape:window-height="1018"
     id="namedview14"
     showgrid="false"
     inkscape:snap-page="true"
     inkscape:zoom="0.6609375"
     inkscape:cx="466.00473"
     inkscape:cy="640"
     inkscape:window-x="-8"
     inkscape:window-y="-8"
     inkscape:window-maximized="1"
     inkscape:current-layer="layer2"
     fit-margin-top="0"
     fit-margin-left="0"
     fit-margin-right="0"
     fit-margin-bottom="0" />
  <g
     inkscape:groupmode="layer"
     id="layer2"
     inkscape:label="background">
    <rect
       style="fill:#f4722b;fill-opacity:1;stroke:none"
       id="rect2995"
       width="1024"
       height="1024"
       x="0"
       y="0" />
  </g>
  <g
     inkscape:groupmode="layer"
     id="layer1"
     inkscape:label="foreground">
    <path
       d="m 379.04,35.66 c 20.44,0.02 40.9,0 61.34,0.02 0,15.12 0.02,30.22 -0.02,45.32 14.22,-0.06 28.42,0 42.64,-0.06 -0.04,20.48 0.1,40.96 -0.1,61.44 -14.18,-0.06 -28.36,0 -42.54,-0.06 0.04,14.26 -0.02,28.5 0.1,42.74 -20.5,0.26 -40.98,0.02 -61.46,0.14 0.08,-14.3 0.04,-28.62 0.04,-42.92 -13.3,0.12 -26.6,0.06 -39.9,0.08 -0.08,-20.46 0,-40.94 -0.04,-61.4 13.34,0.04 26.66,0 39.98,0.04 C 379,65.88 379.06,50.78 379.04,35.66 z"
       id="path6"
       inkscape:connector-curvature="0"
       style="fill:#3e3e3e" />
    <path
       d="m 362.76,225.34 c 12.16,0 24.34,0 36.5,0 -0.04,8.78 -0.04,17.56 -0.08,26.34 8.56,-0.02 17.1,0 25.64,-0.02 0.04,12.22 0.04,24.42 0,36.62 -8.52,0 -17.06,0 -25.58,-0.06 -0.02,8.4 -0.02,16.8 0,25.22 -12.16,-0.02 -24.3,-0.04 -36.46,0 0.02,-8.42 0.02,-16.82 0,-25.22 -7.86,0.06 -15.74,0.06 -23.6,0.06 -0.06,-12.2 -0.06,-24.4 -0.02,-36.62 7.9,0 15.78,0 23.68,0.02 -0.04,-8.78 -0.04,-17.56 -0.08,-26.34 z"
       id="path8"
       inkscape:connector-curvature="0"
       style="fill:#3e3e3e" />
    <path
       d="m 252.12,313.48 c 17.12,-0.02 34.26,-0.08 51.4,0.04 -0.16,12.66 -0.12,25.3 -0.02,37.94 11.84,-0.08 23.7,-0.06 35.56,-0.12 0.08,17.12 0.06,34.24 0.02,51.36 -11.86,-0.04 -23.74,0 -35.6,-0.1 -0.06,11.92 -0.1,23.84 0,35.78 -17.12,0.02 -34.24,0.02 -51.36,0 0.1,-11.92 0.12,-23.84 -0.12,-35.74 -11.1,-0.02 -22.18,0.04 -33.28,0.12 -0.22,-17.12 -0.02,-34.22 -0.16,-51.34 11.18,-0.04 22.38,-0.04 33.56,-0.02 0.08,-12.64 0.1,-25.28 0,-37.92 z"
       id="path10"
       inkscape:connector-curvature="0"
       style="fill:#3e3e3e" />
    <path
       d="m 792.68,382.64 c 19.06,-8.8 41.62,-8.7 60.76,-0.22 16.62,113.64 28.98,227.82 43.74,341.68 19.68,-9.14 39.18,-18.62 58.82,-27.84 22.58,13.72 45.8,26.48 68,40.84 l 0,286.9 -1024,0 0,-196.02 c 14.38,-76.42 27.36,-153.14 41.04,-229.7 0.84,-3.54 1.48,-8.1 5.68,-9.14 11.18,-3.94 24.3,-3.74 35.06,1.42 4.5,1.9 3.3,7.6 4.16,11.48 2.3,37.84 5.42,75.64 7.62,113.48 l 2.6,0.18 c 9.18,-53.58 18.96,-107.06 28.22,-160.64 1.32,-3.92 1.04,-9.82 5.8,-11.22 11.6,-4.9 24.54,-2.76 36.14,1.02 2.04,26.4 6.02,52.58 9.68,78.78 4.32,29.2 7.86,58.5 12.34,87.68 1.08,-4.58 2.16,-9.16 3.04,-13.76 12.52,-71.04 24.68,-142.14 37.38,-213.14 12.14,-2.6 26.68,-4.94 37.16,3.38 2.36,9.84 1.88,20.14 2.8,30.2 3.46,50.28 6.64,100.58 10.32,150.86 16.88,-7.78 33.88,-15.34 50.72,-23.22 6.44,-2.8 12.74,-6.74 19.92,-7.16 7.1,3.84 11.96,10.58 17.64,16.12 37.06,37.68 74.24,75.24 111.44,112.76 7.34,9.02 6.28,21.74 7.88,32.64 -0.06,27.18 -0.52,54.38 0.88,81.54 52.76,-18.44 105.54,-36.88 158.28,-55.34 23,16.22 45.56,33.04 67.78,50.32 13.46,11.82 27.2,23.32 40.72,35.08 3.32,-4.62 7.32,-9.54 6.24,-15.68 -2.18,-37.6 -4.28,-75.24 -6.08,-112.88 8.52,-3.52 17.76,-5.82 25.34,-11.24 5.48,-4.12 4.58,-11.76 5,-17.8 0.04,-40.98 1.36,-81.94 1.82,-122.9 1.7,-82.82 1.96,-165.72 6.06,-248.46 z"
       id="path12"
       inkscape:connector-curvature="0"
       style="fill:#3e3e3e" />
  </g>
</svg>
