<?xml version="1.0" encoding="UTF-8" standalone="no"?>
<svg
   xmlns:dc="http://purl.org/dc/elements/1.1/"
   xmlns:cc="http://creativecommons.org/ns#"
   xmlns:rdf="http://www.w3.org/1999/02/22-rdf-syntax-ns#"
   xmlns:svg="http://www.w3.org/2000/svg"
   xmlns="http://www.w3.org/2000/svg"
   xmlns:sodipodi="http://sodipodi.sourceforge.net/DTD/sodipodi-0.dtd"
   xmlns:inkscape="http://www.inkscape.org/namespaces/inkscape"
   width="1280"
   height="1280"
   viewBox="0 0 1024 1024"
   version="1.1"
   id="svg2"
   inkscape:version="0.48.1 "
   sodipodi:docname="survive_crocket.svg">
  <metadata
     id="metadata46">
    <rdf:RDF>
      <cc:Work
         rdf:about="">
        <dc:format>image/svg+xml</dc:format>
        <dc:type
           rdf:resource="http://purl.org/dc/dcmitype/StillImage" />
      </cc:Work>
    </rdf:RDF>
  </metadata>
  <defs
     id="defs44" />
  <sodipodi:namedview
     pagecolor="#ffffff"
     bordercolor="#666666"
     borderopacity="1"
     objecttolerance="10"
     gridtolerance="10"
     guidetolerance="10"
     inkscape:pageopacity="0"
     inkscape:pageshadow="2"
     inkscape:window-width="1920"
     inkscape:window-height="1018"
     id="namedview42"
     showgrid="false"
     inkscape:snap-page="true"
     fit-margin-top="0"
     fit-margin-left="0"
     fit-margin-right="0"
     fit-margin-bottom="0"
     inkscape:zoom="0.6609375"
     inkscape:cx="466.00473"
     inkscape:cy="640"
     inkscape:window-x="-8"
     inkscape:window-y="-8"
     inkscape:window-maximized="1"
     inkscape:current-layer="layer1" />
  <g
     inkscape:groupmode="layer"
     id="layer1"
     inkscape:label="background">
    <rect
       style="fill:#3e3e3e;fill-opacity:1;stroke:none"
       id="rect3029"
       width="1024"
       height="1024"
       x="0"
       y="0" />
  </g>
  <g
     inkscape:groupmode="layer"
     id="layer2"
     inkscape:label="foreground">
    <path
       d="m 141.22,73 c 47.84,-14.54 95.16,-30.66 142.48,-46.78 5.42,4.58 11.48,8.44 16.32,13.68 3.42,5.14 4.6,11.36 6.72,17.1 19.98,59.32 40.18,118.56 60.24,177.86 2.38,6.6 3.56,14.24 9.2,19.02 8.24,7.98 18.66,15.88 20.24,28.06 3.22,13.18 -2.4,26.02 -6.14,38.42 -1.78,6.28 -7.16,10.44 -10.4,15.9 -2.1,6.38 -2.26,13.18 -3.12,19.8 -4.84,39.94 -9.68,79.88 -14.56,119.8 -3.24,23.96 -6.9,47.86 -9.72,71.88 17.9,-4.58 35.94,-8.52 53.84,-13.12 6.36,-1.78 12.98,-2.16 19.54,-2.46 -14.1,23.34 -13.8,51.42 -15.04,77.76 -4.2,52.76 6.32,105.94 25.84,154.9 13.84,36.52 26.5,75.36 54.24,104.06 -101.76,1.82 -203.44,7.42 -304.74,17 C 128,893.08 69.62,899 11.86,909.12 7.92,909.7 3.94,909.36 0,909.02 L 0,758.5 c 16.7,-1.54 33.08,-5.28 49.8,-6.62 21.96,-3.7 44.16,-5.5 66.04,-9.6 5.3,-6.86 10.68,-13.64 16.36,-20.18 2.74,-3.32 6.54,-7.02 4.9,-11.76 -8.36,-37.12 -16.7,-74.52 -18.76,-112.6 8.28,-3 17.12,-3.9 25.7,-5.72 32.64,-6.36 65.12,-13.58 97.76,-19.9 3.28,13.04 6.64,26.06 10.04,39.08 14.58,-3.38 32.3,-2.2 43.14,-14.22 14.7,-14.68 29.76,-28.94 44.64,-43.42 4.42,-3.92 5.56,-9.92 6.22,-15.48 8.74,-68.8 17.94,-137.56 26.58,-206.38 -0.18,-5.92 5.72,-8.48 8.94,-12.5 7.56,-8.3 7.78,-20.24 7.28,-30.82 -14.4,4.46 -29.3,7.46 -43.3,13.2 -27.98,10.82 -56.26,20.86 -84.08,32.12 -6.62,-9.66 -9.02,-21.68 -17.12,-30.42 3.6,-6.32 11.58,-6.22 17.56,-8.98 28.66,-11.44 57.58,-22.26 86.92,-31.86 6.2,-2.22 13.88,-3.92 16.84,-10.58 -1.54,-7.48 -5,-14.4 -7.44,-21.62 -20.34,-56.54 -42.86,-112.46 -57.76,-170.78 -1.68,-5.42 -2.44,-11.5 -6.24,-15.94 -4.12,-0.9 -8.14,1.36 -12.08,2.3 -51.58,16.58 -103.42,32.36 -155.06,48.78 7.4,9.84 9.48,22.24 15.8,32.64 29.58,56.4 59.22,112.78 88.44,169.36 -7.62,-0.32 -15.18,-1.6 -22.8,-1.64 -5.56,0.98 -10.74,3.36 -16.04,5.18 -31.98,-58.68 -64.3,-117.18 -96.58,-175.7 -1.08,-2.6 -3.22,-5.32 -2.08,-8.28 2.48,-10.26 5.98,-20.26 8.34,-30.56 12.9,-4.74 26.2,-8.32 39.26,-12.6 z"
       id="path6"
       inkscape:connector-curvature="0"
       style="fill:#f5e5c1" />
    <path
       d="m 274.55,70.3 c -35.16,14.32 -69.64,30.22 -104.5,45.2 27.34,56.52 52.9,113.92 79.9,170.6 1.04,2.88 4.47,0.76 6.45,0.4 29.22,-10.32 58.72,-19.95 87.9,-30.35 -19.88,-51.48 -38.36,-103.52 -57.7,-155.2 -4.06,-10.2 -6.91,-20.89 -12.05,-30.65 z m -20.4,26.95 c 1.98,1.72 3.94,3.44 5.9,5.2 1.52,7.56 4.93,14.53 7.75,21.65 17.82,44.7 35.84,89.3 53.6,134 -20.68,6.96 -41.42,13.83 -62,21.05 -25.16,-53.22 -49.44,-106.84 -74.7,-160 23.04,-7.62 46.01,-15.6 69.45,-21.9 z"
       id="path8"
       style="fill:#f5e5c1"
       inkscape:connector-curvature="0" />
    <path
       d="m 845.85,72.4 c -9.08,4.08 -16.87,10.58 -24.75,16.6 7.28,4.06 14.51,8.13 21.65,12.45 0.74,6.76 1.75,13.5 3.45,20.1 -10.14,19.52 -20.18,39.64 -23.6,61.6 -1.68,10.34 -5.64,20.21 -6.3,30.75 -2.68,27.98 -9.06,55.86 -7.1,84.1 0.66,11.32 0.13,22.68 0.45,34 1.9,22.52 6.51,44.66 11.35,66.7 -5.6,-3.64 -15.42,-4.44 -16,-12.6 -3.32,-17.38 -6.06,-34.82 -9.4,-52.2 -1.42,-8.6 -3.94,-17.15 -3.3,-25.95 1.52,-19.96 2.43,-39.98 2.65,-60 -0.32,-18.32 5.62,-35.85 8.6,-53.75 3.88,-29 22.99,-53.06 28.55,-81.6 -8.26,-12.12 -20.61,-23.86 -36.15,-24.1 -10.36,1.62 -19.44,7.55 -27.2,14.35 -4.86,4 -5.87,10.57 -8.05,16.15 -14.36,40.9 -28.82,81.79 -43.3,122.65 -6.66,15.92 -7.38,33.39 -10.6,50.15 -4.42,27.94 -10.96,55.48 -16.2,83.3 -0.68,3.06 -0.18,6.18 1.4,8.9 5.74,11.16 11.9,22.07 17.6,33.25 10.72,-9.28 22.7,-17.11 32.6,-27.35 10.52,-0.58 21.11,-2.86 31.65,-1.6 13.22,4.6 25.39,11.83 38.15,17.55 13.46,5.64 23.46,16.55 34.7,25.45 11.3,10.9 28.16,10.48 42.2,15.5 6.58,10.16 13.19,20.24 19.95,30.3 2.72,4.02 5.25,8.33 6.25,13.15 4.08,18.04 7.42,36.45 15,53.45 8.6,19.46 16.85,39.08 25.55,58.5 2.48,5.6 4.47,11.47 5.45,17.55 5.22,30.16 10.48,60.34 15.8,90.5 2.42,13.08 1.35,26.41 1.65,39.65 -0.4,16.2 0.79,32.49 -1.05,48.65 -51.18,2.36 -102.06,8.68 -153.1,12.8 -14.28,0.42 -27,8.5 -37.7,17.3 -9.44,7.3 -13.21,18.95 -17.85,29.45 -3,7.94 -6.92,15.62 -8.9,23.9 -0.58,7.12 0.99,14.22 1.55,21.3 -17.12,-15.9 -35.38,-30.52 -52.9,-46 -4.5,-3.84 -6.65,-9.52 -9.15,-14.7 -13.02,-28.16 -27.05,-55.86 -39.85,-84.1 -4.62,-17.36 -10.96,-34.18 -17.4,-50.9 -9.72,-24.48 -16.4,-50.02 -24.7,-75 -3.74,-10.5 -1.96,-21.77 -2.3,-32.65 0.26,-16.66 -0.47,-33.31 0.25,-49.95 1.46,-6.8 2.21,-14.46 6.35,-20.2 8.58,-6.56 17.66,-14.16 29,-14.5 13.74,-0.64 27.56,-0.95 41.3,-0.25 4.44,-0.06 8.37,2.33 10.95,5.85 13.8,16.88 27.44,33.91 41.3,50.75 5.5,6.7 11.77,13.12 14.85,21.4 2.02,4.38 3.03,9.56 6.75,12.9 -4.4,-9.94 -3.62,-21.21 -4.5,-31.85 -16.56,-21.26 -34.83,-41.14 -51.65,-62.2 -3.2,-3.88 -2.9,-9.24 -3.8,-13.9 -2.12,-17.9 -5.62,-35.64 -7,-53.6 -1.42,-6.08 -2.46,-12.32 -5.4,-17.9 -12.54,-24.18 -25.69,-48.02 -38.05,-72.3 -17.1,2.62 -34.17,5.27 -51.15,8.55 -6.78,8.54 -19,14.63 -19,26.85 -1.36,11.56 -3.69,23.01 -4.35,34.65 -1.06,19.38 -7.13,38.58 -4.05,58.1 2.46,3.5 4.49,7.32 5.85,11.4 5.36,15.58 10.94,31.07 16.6,46.55 3.04,7.64 2.17,15.98 2.65,24 0.86,18.54 0.76,37.11 1.3,55.65 0.2,11.34 4.38,22.01 7.2,32.85 6.34,24.34 13.01,48.6 19.45,72.9 2.38,9.72 7.95,18.3 10.05,28.1 2.24,9.56 7.35,18.02 11.55,26.8 10.62,21.88 21.43,43.65 32.05,65.55 3.46,6.94 6.14,14.73 12.3,19.85 14.6,12.74 28.95,25.71 43.45,38.55 5.58,5.02 11.99,9.49 15.65,16.25 18.82,34.38 37.4,68.96 56.5,103.2 l 212.4,0 0,-171.1 c -11.64,-16.38 -23.22,-32.88 -35.3,-48.9 3.28,-22.52 0.97,-45.34 1.75,-68 0.92,-14.2 -3.38,-27.91 -4.6,-41.95 -2.12,-22.84 -6.51,-45.35 -9.65,-68.05 -1.56,-12.2 -7.14,-23.33 -11.8,-34.55 -9.72,-21.48 -19.63,-42.83 -29.45,-64.25 -4.12,-9.32 -10.01,-18.5 -9.55,-29.1 0.78,-9.8 -5.43,-17.75 -9.55,-26.05 C 909.99,461.31 904.88,450.14 898,440 c -3.7,-4.84 -3.3,-11.19 -4.7,-16.85 -2.26,-9.54 -6.3,-19.08 -4.7,-29.1 2.72,-22.8 5,-45.71 9.5,-68.25 7.2,-22.78 12.73,-46.05 20.55,-68.65 4.24,-11.44 3.71,-23.87 6.95,-35.55 -5.04,-9.36 -8.03,-19.71 -13.85,-28.65 -8.1,29.34 -17.37,58.31 -25.15,87.75 -1.88,9.08 -3.83,18.19 -6.65,27.05 -5.94,18.94 -7.4,38.85 -10.6,58.35 -4.9,21.66 3.47,43.3 11.05,63.3 1.54,3.16 0.16,6.53 -0.3,9.75 -2.72,0.12 -5.42,0.29 -8.1,0.45 -5.72,-14.78 -12.92,-29.31 -14.1,-45.35 -3.76,-16.1 1.3,-32.19 3.1,-48.15 1.24,-10.98 4.9,-21.42 7.5,-32.1 4.6,-19.84 9.71,-39.54 14.15,-59.4 2.92,-12.7 8.13,-24.76 10.95,-37.5 2.2,-10.78 8.76,-20.08 10.9,-30.9 1.44,-7.34 6.15,-13.82 6.75,-21.3 -4.1,-7.42 -9.81,-13.76 -14.75,-20.6 -4.54,11.8 -11.55,22.45 -15.35,34.55 -7.06,18.02 -13.41,36.39 -18.45,55.05 -7.68,43.46 -15.27,86.93 -23.65,130.25 -3.68,14.96 0.58,30.15 0.6,45.25 1.26,1.58 2.52,3.2 3.8,4.8 -5.12,-4.76 -10.55,-9.25 -16.45,-12.95 -1.68,-10.32 -3.3,-20.92 -1.1,-31.3 7.46,-39.86 15.54,-79.63 22.2,-119.65 3.38,-26.84 15.34,-51.47 22.2,-77.45 8.44,-11.3 12.47,-25.05 19.55,-37.15 3.08,-5.22 6.15,-11.09 5.25,-17.35 -1.32,-7.96 -3.81,-15.65 -5.85,-23.45 -13.9,-8.48 -27.78,-17.46 -43.4,-22.5 z m -198.8,293.55 c 1.41918,-0.007 2.85626,0.34374 4.2,1.2 4.4,13.54 8.31,27.29 12.05,41.05 -1.62,5.04 -4.15,9.87 -7.45,14.05 -12.3,3.7 -25.27,4.8 -37.75,7.8 -7.58,1.5 -15.24,4.03 -23,2.25 1.86,-1.74 3.96,-3.45 6.6,-3.75 15.1,-3.02 30.2,-5.88 45.2,-9.4 1.76,-4.4 6.07,-8.85 4.25,-13.85 -4.1,-12.08 -8.43,-24.08 -12.95,-36 2.59875,-1.65 5.72778,-3.3348 8.85,-3.35 z"
       id="path10"
       style="fill:#f5e5c1"
       inkscape:connector-curvature="0" />
    <path
       d="m 217.1,305.8 c -4.1225,-0.045 -8.38,0.79 -12.2,1.4 -7.14,4.6 -16.11,7.69 -21.05,14.85 -3.48,11.54 -3.63,24.19 -1.05,35.95 3.58,7.08 7.41,14.39 12.85,20.25 11.12,7.12 24.92,4.33 36.4,-0.35 5.88,-5.3 11.52,-11.06 16.4,-17.3 1.38,-5.42 1.93,-11.07 2.15,-16.65 -1.64,-7.12 -5.5,-13.53 -8.1,-20.35 -2.18,-6.72 -8.94,-9.88 -14.1,-14 -3.21,-2.85 -7.1775,-3.75501 -11.3,-3.8 z m -3.6,13.4 c 12.61261,-0.36938 25.28374,9.67 25.95,22.8 1.94,13.6 -9.63,27.22 -23.35,27.5 -11.98,1.18 -23.73,-7.66 -26.15,-19.4 -3.08,-11.64 4.02,-24.46 15,-28.9 2.76,-1.27875 5.63939,-1.91477 8.55,-2 z"
       id="path14"
       style="fill:#f5e5c1"
       inkscape:connector-curvature="0" />
    <path
       d="m 344.9,337 c -5.79333,0.14656 -11.0675,3.32499 -16.3,5.6 -16.36,8.18 -32.6,16.58 -48.9,24.9 -3.04,1.94 -8.2,3.85 -7.3,8.35 4.42,29.48 10.32,58.73 15.7,88.05 4.96,28.92 10.06,57.82 15.8,86.6 10.48,-8.48 20.22,-17.8 30.5,-26.5 4.6,-62.3 7.84,-124.66 13,-186.9 -0.85,-0.11501 -1.67238,-0.12094 -2.5,-0.1 z m -6.8,9.3 c -3.04,13.64 -2.75,27.68 -4.25,41.5 -3,40.16 -6.18,80.29 -9.2,120.45 -0.34,4.04 -1.48,7.96 -2.4,11.9 -3.8,3.2 -7.41,6.65 -10.95,10.15 -9.04,-51.62 -18.48,-103.16 -27.9,-154.7 0.66,-2.58 4.02,-2.88 5.9,-4.3 16.32,-8.22 32.58,-16.56 48.8,-25 z"
       id="path18"
       style="fill:#f5e5c1"
       inkscape:connector-curvature="0" />
    <path
       d="m 228.1,392.34 c 5.02,-2.86 9.84,-6.06 15.02,-8.68 15.74,70.6 26.9,142.08 39.7,213.24 -7.24,1.46 -14.48,2.76 -21.74,4.04 -7.24,-26.18 -13.64,-52.56 -20.48,-78.84 -10.82,-42.26 -19.72,-84.98 -29.7,-127.44 5.74,-0.42 11.96,0.6 17.2,-2.32 z"
       id="path24"
       inkscape:connector-curvature="0"
       style="fill:#f5e5c1" />
    <path
       d="m 105.65,493.2 c -4.5,0.14 -9.02,0.6 -13.4,1.7 C 61.53,502.78 30.74,510.34 0,518.1 l 0,226.75 c 6.98,1.16 13.93,-0.77 20.85,-1.45 20.42,-2.16 40.75,-5.03 61.15,-7.25 6.28,-0.92 14.13,-1.55 17.15,-8.15 -2.6,-16.86 -6.63,-33.55 -10.15,-50.25 -2.66,-13.32 -4.41,-26.78 -7.55,-40 -9.1,-33.1 -9.33,-68.51 -1.25,-101.85 2.36,-8.76 3.55,-18.75 10.45,-25.35 5.4,-5.42 11.32,-10.51 15,-17.35 z M 44.1,646.4 c 8.914688,0.31968 17.56,5.31501 22.9,12.5 11.92,16.44 12.72,40.45 1.3,57.35 -6.92,10.36 -20.38,16.8 -32.7,13.2 -10.02,-2.32 -17.24,-10.93 -21.3,-19.95 -6.08,-14.38 -6.33,-31.79 1.75,-45.45 4.12,-7.54 10.99,-13.56 19.15,-16.3 2.925,-1.02 5.928437,-1.45656 8.9,-1.35 z"
       id="path26"
       style="fill:#f5e5c1"
       inkscape:connector-curvature="0" />
    <path
       d="m 93.52,531.64 c 3.96,-15.5 14.08,-29.96 28.54,-37.18 8.38,0.26 16.66,1.68 24.94,2.82 7.68,0.86 13.66,6.02 20.22,9.58 9.62,5.72 20.34,9.6 29.14,16.66 14.54,11.28 31.56,20.64 41.4,36.74 -8.56,1.76 -17.02,4.08 -25.62,5.74 -15,-13.94 -30.58,-27.56 -48.18,-38.12 -10.82,-3.84 -22.14,-8.8 -33.88,-6.34 -10.52,0.22 -15.8,10.72 -20.22,18.72 -4.8,20.18 -4.82,41.22 -4.1,61.84 3.68,24.66 5.9,49.6 11.86,73.84 2.82,13.3 5.94,26.52 8.46,39.88 -4.2,4.58 -8.5,9.18 -13.76,12.58 -5.18,-20.06 -9.84,-40.26 -14.14,-60.52 -3.26,-15.24 -9,-30.12 -9.12,-45.88 -0.38,-17.94 -3.6,-35.88 -1.66,-53.84 1.48,-12.26 1.04,-24.98 6.12,-36.52 z"
       id="path28"
       inkscape:connector-curvature="0"
       style="fill:#f5e5c1" />
    <path
       d="m 814.06,524.14 c 13.38,1.36 25.76,7.24 38.72,10.54 14.64,3.56 27.6,11.44 41.24,17.54 9.86,5.32 22.96,8.54 27.68,19.84 7.96,17.06 14.78,34.62 21.76,52.1 6.04,15.42 4.08,32.98 11,48.04 -0.06,1.78 -0.22,5.34 -0.28,7.12 -4.18,-0.74 -8.34,-1.58 -12.28,-3.12 -22.42,-8.42 -45.02,-16.38 -67.46,-24.78 -3.38,-1 -5.54,-3.88 -6.88,-6.98 -16.74,-35.88 -33.52,-71.74 -50.3,-107.6 -1.98,-3.96 -2.74,-8.34 -3.2,-12.7 z"
       id="path30"
       inkscape:connector-curvature="0"
       style="fill:#f5e5c1" />
    <path
       d="m 445.48,530.18 c 1.06,-0.48 3.14,-1.42 4.2,-1.9 10.88,1.64 21.5,4.7 32.14,7.52 -9.86,16.34 -9.72,35.76 -13.04,54 -2.76,14.6 -1.12,29.54 -2.7,44.26 -1.2,10.74 0.92,21.44 1.68,32.14 2.96,36.52 9.88,72.72 20.96,107.66 6.86,23.04 15.92,45.78 29.74,65.58 4.88,8.44 15.4,9.44 23.02,14.38 -7.16,10.08 -18.32,19.8 -31.62,17.14 -13.26,-14.92 -23.44,-32.22 -33.46,-49.4 -9.04,-16.74 -18.26,-33.54 -23.94,-51.8 -16.68,-50.92 -27.48,-104.06 -29.28,-157.7 -1.18,-28.12 5.86,-55.96 16.86,-81.66 1.36,-0.06 4.08,-0.16 5.44,-0.22 z"
       id="path32"
       inkscape:connector-curvature="0"
       style="fill:#f5e5c1" />
    <path
       d="m 502.7,542.15 c -1.3025,0.0278 -2.62,0.26 -3.9,0.8 -5.84,4 -8.62,10.88 -10.6,17.4 -2.96,10.3 -4.14,21.02 -4.9,31.7 -2.12,39.58 2.44,79.19 9.3,118.15 2.6,16.86 7.12,33.34 11.5,49.8 6.22,21.76 13.3,43.55 24.5,63.35 4.18,7.24 8.79,14.83 16.25,19.15 4.72,2.72 11.39,1.29 14.35,-3.35 6.26,-8.42 7.89,-19.2 9.55,-29.3 4.38,-32.66 1.5,-65.72 -2.2,-98.3 -6.92,-47.04 -15.83,-94.52 -35.85,-138 -4.64,-9.56 -9.8,-19.22 -17.5,-26.7 -2.76,-2.80501 -6.5925,-4.78344 -10.5,-4.7 z m 4.35,26.6 c 2.89125,-0.10312 5.75,2.47499 7.55,4.65 7.74,9.78 12.27,21.62 16.35,33.3 15.42,47.68 24.94,97.39 27.6,147.45 0.5,19 1.75,38.58 -3.85,57 -1.4,3.56 -4.02,9.24 -8.8,7.7 -6.42,-2.92 -9.69,-9.73 -12.95,-15.55 -10.46,-21.4 -16.53,-44.56 -22.05,-67.6 -7.2,-32.82 -12.81,-66.1 -14.55,-99.7 -1.3,-16.92 -1.35,-34.05 1.35,-50.85 1.16,-5.38 2.26,-11.38 6.5,-15.3 0.93,-0.74499 1.88626,-1.06563 2.85,-1.1 z"
       id="path34"
       style="fill:#f5e5c1"
       inkscape:connector-curvature="0" />
    <path
       d="m 40.82,669.14 c 12.82,-3.98 23.28,9.06 24.38,20.68 1.92,11.24 -2.84,25.68 -15.06,28.64 -11,1.8 -19.66,-8.38 -21.76,-18.24 -3.08,-11.34 0.64,-26.4 12.44,-31.08 z"
       id="path40"
       inkscape:connector-curvature="0"
       style="fill:#f5e5c1" />
  </g>
</svg>
