<?xml version="1.0" encoding="UTF-8" standalone="no"?>
<svg
   xmlns:dc="http://purl.org/dc/elements/1.1/"
   xmlns:cc="http://creativecommons.org/ns#"
   xmlns:rdf="http://www.w3.org/1999/02/22-rdf-syntax-ns#"
   xmlns:svg="http://www.w3.org/2000/svg"
   xmlns="http://www.w3.org/2000/svg"
   xmlns:sodipodi="http://sodipodi.sourceforge.net/DTD/sodipodi-0.dtd"
   xmlns:inkscape="http://www.inkscape.org/namespaces/inkscape"
   width="1280"
   height="1280"
   viewBox="0 0 1024 1024"
   version="1.1"
   id="svg2"
   inkscape:version="0.48.1 "
   sodipodi:docname="teleport_fast_kill.svg">
  <metadata
     id="metadata50">
    <rdf:RDF>
      <cc:Work
         rdf:about="">
        <dc:format>image/svg+xml</dc:format>
        <dc:type
           rdf:resource="http://purl.org/dc/dcmitype/StillImage" />
      </cc:Work>
    </rdf:RDF>
  </metadata>
  <defs
     id="defs48" />
  <sodipodi:namedview
     pagecolor="#ffffff"
     bordercolor="#666666"
     borderopacity="1"
     objecttolerance="10"
     gridtolerance="10"
     guidetolerance="10"
     inkscape:pageopacity="0"
     inkscape:pageshadow="2"
     inkscape:window-width="1920"
     inkscape:window-height="1018"
     id="namedview46"
     showgrid="false"
     inkscape:snap-page="true"
     fit-margin-top="0"
     fit-margin-left="0"
     fit-margin-right="0"
     fit-margin-bottom="0"
     inkscape:zoom="0.6609375"
     inkscape:cx="466.00473"
     inkscape:cy="640"
     inkscape:window-x="-8"
     inkscape:window-y="-8"
     inkscape:window-maximized="1"
     inkscape:current-layer="layer1" />
  <g
     inkscape:groupmode="layer"
     id="layer1"
     inkscape:label="background">
    <rect
       style="fill:#3e3e3e;fill-opacity:1;stroke:none"
       id="rect3028"
       width="1024"
       height="1024"
       x="0"
       y="0" />
  </g>
  <g
     inkscape:groupmode="layer"
     id="layer2"
     inkscape:label="foreground">
    <path
       d="m 0,0 0,6 c 100,190.24 199.8,380.54 299.8,570.8 148.12,-9.5 296.26,-18.96 444.4,-28.3 6.5,0.52 7.61,-7.49 10.45,-11.75 C 844.29,360.93 934.24,185.26 1024,9.5 L 1024,0 0,0 z m 504.65,18.2 c 46.48379,-0.14169 93.00938,12.35063 132.75,36.6 48.96,29.44 87.28,76.62 104.6,131.2 17.44,53.56 14.03,113.47 -9.25,164.75 -23.1,51.96 -65.72,94.53 -117,118.85 -47.96,23 -103.2,30.42 -155.5,20.8 -58.92,-10.4 -113.98,-42.44 -151.1,-89.5 -32.98,-41.3 -51.57,-94.08 -50.75,-147 0.3,-55.78 22.16,-110.8 59.3,-152.3 40.86,-46.34 99.86,-75.7 161.2,-82 8.5625,-0.89688 17.14189,-1.37376 25.75,-1.4 z"
       id="path4"
       style="fill:#f4722b"
       inkscape:connector-curvature="0" />
    <path
       d="m 479.42,53.32 c 4.2,-5.26 8.32,-10.78 14.06,-14.46 41.46,30.7 94.46,40.26 145,41.66 -43.56,27.44 -81.4,65.58 -102.88,112.82 -20.84,44.72 -26.58,95.64 -19.28,144.22 1.04,7.38 3.86,14.34 5.18,21.64 -2.88,1.82 -6.58,0.94 -9.78,1.46 -15.92,0.76 -31.76,2.98 -47.72,3.34 -12.76,-32.6 -20.34,-67.06 -23.68,-101.86 -4.9,-32.76 -6.64,-66.14 -2.96,-99.1 4.56,-39.22 17.36,-78.44 42.06,-109.72 z"
       id="path10"
       inkscape:connector-curvature="0"
       style="fill:#f5e5c1" />
    <path
       d="m 500.88,385.22 c 19.56,-5.14 42.16,-1.22 57.14,12.88 12.48,11.78 14.4,32.44 4.36,46.36 -19.72,27.82 -64.08,33.4 -90.12,11.36 -12,-10.18 -15.84,-28.42 -8.86,-42.54 7.16,-14.6 21.98,-24.3 37.48,-28.06 z"
       id="path12"
       inkscape:connector-curvature="0"
       style="fill:#f5e5c1" />
    <path
       d="m 310.22,596.84 c 143.76,-11.8 287.58,-23.26 431.38,-34.76 -7.64,14.8 -14.96,29.78 -22.94,44.4 -128.94,10.08 -257.78,21.48 -386.72,31.48 -7.28,-13.68 -14.42,-27.46 -21.72,-41.12 z"
       id="path14"
       inkscape:connector-curvature="0"
       style="fill:#f4722b" />
    <path
       d="m 340.66,654.88 c 122.96,-10.2 245.96,-19.9 368.94,-30.02 -4.48,8.58 -8.86,17.22 -13.26,25.84 -115.54,7.06 -231.06,14.24 -346.6,21.18 -3,-5.68 -6.02,-11.36 -9.08,-17 z"
       id="path16"
       inkscape:connector-curvature="0"
       style="fill:#f4722b" />
    <path
       d="m 663.88,676.74 c 89.52,-9.3 179.02,-19 268.56,-28.22 2.74,3.08 5.5,6.16 8.24,9.28 -7.78,53.24 -14.28,106.68 -21.64,159.98 -0.46,4.44 -4.54,7.02 -7.54,9.8 -7.34,5.84 -14,12.6 -21.8,17.86 -15.34,-2.82 -30.24,-7.78 -45.44,-11.34 5.88,-16.6 12.44,-32.94 18.06,-49.62 -6.28,-1.68 -12.54,-3.38 -18.78,-5.16 -6.58,16.7 -12.66,33.6 -19.24,50.3 -5.3,-1.7 -10.62,-3.32 -15.94,-4.94 6.78,-15.74 12.06,-32.1 17.1,-48.48 -5.54,-1.2 -11.04,-2.48 -16.52,-3.82 -5.56,16.32 -10.9,32.7 -16.46,49.02 -5.26,-1.76 -10.52,-3.46 -15.8,-5.1 4.24,-16.16 8.4,-32.34 12.62,-48.48 -6.06,-1.34 -12.08,-2.74 -18.12,-4.08 -4.5,15.86 -8.98,31.72 -13.26,47.62 -26.68,-6.54 -53.24,-13.68 -79.88,-20.38 -6.64,-1.54 -13.24,-4.26 -20.18,-3.36 -38.24,3.28 -76.58,5.42 -114.8,8.9 -0.44,-4.96 -1,-9.92 -1.56,-14.88 20.92,-10.48 41.96,-20.74 62.96,-31.1 4.34,-2.28 9.12,-3.96 12.84,-7.22 5.94,-13.58 4.5,-31.12 16.52,-41.42 7.5,-7.18 14.6,-14.76 22.14,-21.88 2.06,-2.22 4.98,-3.12 7.92,-3.28 z"
       id="path18"
       inkscape:connector-curvature="0"
       style="fill:#f5e5c1" />
    <path
       d="m 86.78,686.56 c 3.66,-0.62 7.38,-0.44 11.08,-0.4 73.38,1.42 146.7,3.94 220.08,5.62 13.04,1.14 26.22,0.06 39.24,1.46 13.52,6.82 26.68,14.56 39.7,22.32 5.02,10.12 6.82,21.62 11.22,32.06 1.54,2 3.8,3.28 5.88,4.7 19.24,11.48 39.1,21.98 58.16,33.74 2.5,4.94 2.98,10.66 4.46,15.98 -2.48,2.12 -4.78,5.22 -8.44,4.94 -35.42,2.46 -70.86,4.56 -106.26,7.06 -9.3,0.98 -18.96,0.18 -27.82,3.62 -24.12,8.52 -48.3,16.88 -72.38,25.54 -5.28,-17.3 -10.68,-34.58 -15.86,-51.92 -6.56,2.12 -13.04,4.42 -19.46,6.92 5.38,17.38 10.64,34.8 16.22,52.12 -5.02,1.6 -10.04,3.2 -15.04,4.82 -5.84,-16.84 -12.38,-33.44 -18.94,-49.98 -4.92,2.36 -9.84,4.66 -14.8,6.9 5,16.56 11.06,32.84 14.78,49.76 -5.16,1.84 -10.32,3.7 -15.46,5.58 -5.8,-16.62 -10.88,-33.48 -16.44,-50.18 -7.96,2.86 -15.96,5.56 -23.94,8.36 6.28,16.4 12.12,32.96 18.42,49.34 -10.5,3.8 -21.06,7.44 -31.56,11.2 -12.52,-6.9 -24.5,-14.74 -36.66,-22.28 -6.46,-54.68 -13.24,-109.32 -19.8,-163.98 -0.26,-4.64 -1.92,-11.12 3.62,-13.3 z"
       id="path20"
       inkscape:connector-curvature="0"
       style="fill:#f5e5c1" />
    <path
       d="m 472,744.4 c 34.66,-2.16 69.4,-2.78 104,-5.52 0.38,5.12 0.84,10.26 1.38,15.38 -14.74,6.52 -28.78,14.9 -44.38,19.22 -2.36,0.92 -3.6,4.06 -3.32,6.5 0.4,9.16 1.22,18.32 1.86,27.5 13,-0.36 25.92,-1.78 38.9,-2.34 -0.2,6.86 -0.62,13.72 -1.2,20.58 -46.3,3.92 -92.6,8.12 -138.9,12.02 0.78,-6.74 -2.04,-17.7 6.82,-19.92 13.66,-0.84 27.38,-1.26 41.06,-1.46 2.28,-1.6 4.66,-3.1 6.7,-5 2.14,-11.72 2.56,-23.68 3.98,-35.5 -17.66,-9.22 -35.54,-18.06 -53.28,-27.14 1.38,-1.42 2.82,-2.76 4.28,-4.06 10.66,1.46 21.4,-0.12 32.1,-0.26 z"
       id="path22"
       inkscape:connector-curvature="0"
       style="fill:#f5e5c1" />
    <path
       d="m 565.76,833.26 c 22.86,-1.62 45.64,-4.3 68.56,-5.12 -0.6,3.26 1.42,7.7 -1.56,10.1 -83.78,7 -167.6,13.88 -251.4,20.82 -0.14,-3.4 -0.3,-6.78 -0.44,-10.16 61.6,-5.5 123.24,-10.34 184.84,-15.64 z"
       id="path24"
       inkscape:connector-curvature="0"
       style="fill:#f5e5c1" />
    <path
       d="m 656.48,839.66 c 39.42,15.7 78.42,32.46 117.72,48.48 7.02,3 14.38,6.12 19.92,11.5 2.88,5.84 6.06,11.84 7.12,18.3 -1.1,11.08 -2.88,22.1 -4.68,33.1 -50.26,-8.66 -100.54,-17.34 -150.82,-25.94 -2.18,-0.38 -4.44,-0.9 -5.94,-2.66 -5.76,-5.66 -11.02,-11.82 -16.58,-17.68 1.5,-10.24 1.64,-20.62 3.28,-30.82 0.2,-2.94 2.58,-4.94 4.32,-7.06 8.52,-9.12 17.08,-18.16 25.66,-27.22 z"
       id="path26"
       inkscape:connector-curvature="0"
       style="fill:#f5e5c1" />
    <path
       d="m 385.84,865.22 c 83.04,-6.84 166.06,-14 249.14,-20.46 -2.4,12.7 -15,20.26 -19.9,31.88 -1.7,11.02 -1.82,22.22 -2.7,33.32 -1.16,7.16 3.36,13.24 6.08,19.46 5.82,12.62 12.1,25.04 17.64,37.8 -23.04,-0.04 -46.06,-0.24 -69.1,-0.28 -5.92,-8.34 -12.38,-17.98 -22.78,-20.9 -7.12,-2.52 -14.4,-5.58 -22.14,-4.66 -19.7,1.66 -40.76,-0.08 -58.56,10.12 -5.84,4.18 -8.26,11.24 -10.68,17.68 -21.74,3.24 -43.5,6.46 -65.26,9.62 0.1,-3.54 -0.56,-7.2 0.38,-10.66 4.26,-12.38 10.62,-24 14.44,-36.52 0.6,-17 0,-34.1 -1.1,-51.08 -4.42,-5.78 -10.38,-10.14 -15.46,-15.32 z"
       id="path28"
       inkscape:connector-curvature="0"
       style="fill:#f5e5c1" />
    <path
       d="m 339.42,871.5 c 8,-2.7 15.5,-7.16 23.98,-8.22 9.98,7.28 19.6,15.04 29.42,22.56 -0.18,11.28 0.5,22.72 -1.34,33.9 -6.1,9.94 -14.24,18.46 -22,27.12 -48.82,5.6 -97.62,11.38 -146.48,16.86 0.66,-11.88 0.62,-23.82 2.1,-35.6 5.36,-8.68 9.82,-20.2 20.7,-23 31.24,-11.1 62.4,-22.42 93.62,-33.62 z"
       id="path30"
       inkscape:connector-curvature="0"
       style="fill:#f5e5c1" />
    <path
       d="m 740.78,948.48 c 10.6,1.78 21.14,3.96 31.82,5.38 0.4,3.14 0.78,6.28 1.18,9.44 -9.98,0.18 -19.96,0.5 -29.92,0.48 -1,-5.12 -2.04,-10.22 -3.08,-15.3 z"
       id="path32"
       inkscape:connector-curvature="0"
       style="fill:#f5e5c1" />
    <path
       d="m 242.06,969.9 c 15.98,-1.64 31.94,-3.66 47.92,-5.4 9.56,-1.62 17.74,4.54 25.86,8.46 -32.46,2.82 -65,4.86 -97.44,7.82 7.54,-4.26 14.52,-10.68 23.66,-10.88 z"
       id="path34"
       inkscape:connector-curvature="0"
       style="fill:#f5e5c1" />
    <path
       d="m 718.36,971.5 c 26.58,-0.26 53.16,-0.4 79.74,-0.92 5.26,-0.9 9,3.34 12.96,5.98 -34.64,2.36 -69.28,4.42 -103.94,6.52 3.76,-3.86 7.52,-7.7 11.24,-11.58 z"
       id="path36"
       inkscape:connector-curvature="0"
       style="fill:#f5e5c1" />
    <path
       d="m 387.44,987.72 c 21.32,-3.14 42.64,-6.26 63.94,-9.5 0.2,9 0.96,18 0.68,27.02 -20.8,1.52 -41.56,3.3 -62.36,4.58 -0.66,-7.38 -1.38,-14.76 -2.26,-22.1 z"
       id="path38"
       inkscape:connector-curvature="0"
       style="fill:#f5e5c1" />
    <path
       d="m 569.36,978.32 c 22.1,-0.1 44.2,-0.9 66.32,-0.84 0.96,9.18 1.7,18.4 2.38,27.62 -22.86,0 -45.72,-0.04 -68.58,0.02 0.02,-8.94 0.06,-17.88 -0.12,-26.8 z"
       id="path40"
       inkscape:connector-curvature="0"
       style="fill:#f5e5c1" />
    <path
       d="m 212.6,986.4 c 38.38,-2.98 76.88,-5 115.34,-7.26 1.62,9.76 3.58,19.44 5.4,29.14 -40.5,1.16 -81.02,2.04 -121.52,3.06 -0.08,-8.32 -0.34,-16.68 0.78,-24.94 z"
       id="path42"
       inkscape:connector-curvature="0"
       style="fill:#f5e5c1" />
    <path
       d="m 702.66,991.7 c 36.7,-2.62 73.42,-5.32 110.1,-8.28 2.02,7.18 3.92,14.4 5.9,21.6 -38.98,1.08 -77.96,1.92 -116.94,2.42 -0.1,-5.28 0.06,-10.54 0.94,-15.74 z"
       id="path44"
       inkscape:connector-curvature="0"
       style="fill:#f5e5c1" />
  </g>
</svg>
