<?xml version="1.0" encoding="UTF-8" standalone="no"?>
<svg
   xmlns:dc="http://purl.org/dc/elements/1.1/"
   xmlns:cc="http://creativecommons.org/ns#"
   xmlns:rdf="http://www.w3.org/1999/02/22-rdf-syntax-ns#"
   xmlns:svg="http://www.w3.org/2000/svg"
   xmlns="http://www.w3.org/2000/svg"
   xmlns:sodipodi="http://sodipodi.sourceforge.net/DTD/sodipodi-0.dtd"
   xmlns:inkscape="http://www.inkscape.org/namespaces/inkscape"
   width="1280"
   height="1280"
   viewBox="0 0 1024 1024"
   version="1.1"
   id="svg2"
   inkscape:version="0.48.1 "
   sodipodi:docname="achieve_progress1.svg">
  <metadata
     id="metadata42">
    <rdf:RDF>
      <cc:Work
         rdf:about="">
        <dc:format>image/svg+xml</dc:format>
        <dc:type
           rdf:resource="http://purl.org/dc/dcmitype/StillImage" />
      </cc:Work>
    </rdf:RDF>
  </metadata>
  <defs
     id="defs40" />
  <sodipodi:namedview
     pagecolor="#ffffff"
     bordercolor="#666666"
     borderopacity="1"
     objecttolerance="10"
     gridtolerance="10"
     guidetolerance="10"
     inkscape:pageopacity="0"
     inkscape:pageshadow="2"
     inkscape:window-width="1920"
     inkscape:window-height="1018"
     id="namedview38"
     showgrid="false"
     inkscape:zoom="0.6609375"
     inkscape:cx="466.00473"
     inkscape:cy="640"
     inkscape:window-x="-8"
     inkscape:window-y="-8"
     inkscape:window-maximized="1"
     inkscape:current-layer="layer2"
     fit-margin-top="0"
     fit-margin-left="0"
     fit-margin-right="0"
     fit-margin-bottom="0"
     inkscape:snap-page="true" />
  <g
     inkscape:groupmode="layer"
     id="layer1"
     inkscape:label="background">
    <rect
       style="fill:#3e3e3e;fill-opacity:1;fill-rule:nonzero;stroke:none"
       id="rect3014"
       width="1280"
       height="1280"
       x="0"
       y="0"
       transform="scale(0.8,0.8)" />
  </g>
  <g
     inkscape:groupmode="layer"
     id="layer2"
     inkscape:label="foreground">
    <path
       d="m 482.04,103.64 c 27.4,-8.62 58.9,2.5 75.58,25.7 -11.3,-0.06 -22.44,-2.52 -33.76,-2.34 -28.04,-0.64 -55.98,3.56 -83.12,10.42 9.02,-15.86 23.6,-28.7 41.3,-33.78 z"
       id="path6"
       inkscape:connector-curvature="0"
       style="fill:#f5722c" />
    <path
       d="m 576.32,133.8 c 14.3,-12 33.92,-16.82 52.26,-14.12 18.52,3.1 36.02,13.58 46.36,29.42 7.56,10.9 11.26,24.04 12.04,37.2 -32.66,-24.9 -70.08,-44.58 -110.66,-52.5 z"
       id="path8"
       inkscape:connector-curvature="0"
       style="fill:#f5722c" />
    <path
       d="m 366.48,136.02 c 18.46,-6.12 39.04,-3.2 55.92,6.08 -24.6,8.66 -48.8,18.9 -70.56,33.44 -11.66,7.42 -22.1,16.46 -32.94,24.96 0.08,-28.78 20.02,-56.08 47.58,-64.48 z"
       id="path10"
       inkscape:connector-curvature="0"
       style="fill:#f5722c" />
    <path
       d="m 506,142.55 c -7.38253,0.0566 -14.74626,0.365 -22.1,0.95 -31.46,3.32 -62.52,11.76 -90.9,25.8 -59.64,28.74 -107.37,81.03 -130.75,142.95 -18.92,49.76 -22.61,105.23 -9.95,156.95 12.9,54.84 44.18,105.09 87.5,141.05 45.66,38.18 104.59,60.42 164.15,61 48.1,1.46 96.37,-11.21 138.05,-35.15 48.12,-27.92 87.35,-71.2 109.55,-122.3 31.2,-70.58 29.47,-154.94 -4.85,-224.1 C 717.12,229.26 663.48,181.03 600.1,158.35 570.0375,147.15375 537.99098,142.30492 506,142.55 z m 0.55,33.35 c 51.31722,-0.51958 102.68125,16.78125 143.2,48.3 42.04,32.2 72.07,79.59 83.55,131.25 5,23.72 8.96,48.18 5.2,72.4 -1.98,11.08 -3.3,22.31 -6,33.25 -12.12,50.52 -41.92,96.72 -83.3,128.2 -31.66,24.42 -69.8,40.21 -109.4,45.65 -15.88,3.96 -32.4,3.45 -48.6,2.45 -18.3,-3.4 -36.87,-5.92 -54.55,-12 -55.9,-18.32 -104.16,-58.85 -131.4,-111.05 -20.8,-39.82 -30.73,-85.68 -26.25,-130.5 3.8,-26.52 10.26,-52.93 22.2,-77.05 23.6,-49.58 65.59,-90.09 116.05,-111.75 24.98,-10.76 51.87,-17.34 79.05,-18.8 3.4175,-0.19374 6.82885,-0.31536 10.25,-0.35 z"
       id="path12"
       style="fill:#f4722b"
       inkscape:connector-curvature="0" />
    <path
       d="m 502.05,190.05 c -52.68,0.14 -104.8,20.91 -143.6,56.45 -36.24,32.8 -60.66,78.38 -68.1,126.7 -7.7,48.98 2.09,100.54 27.45,143.2 23.58,40.16 60.47,72.38 103.55,90.1 32.32,13.56 67.89,18.64 102.75,15.9 31.4,-3.54 62.36,-12.72 89.6,-28.9 42,-24.44 75.37,-63.44 92.65,-108.9 C 725.13,436.36 725.8,381.3 707.9,332.7 692.34,289.42 662.44,251.44 624.1,226.1 588.22,202.28 545.15,189.27 502.05,190.05 z M 429.5,206.6 c 4.15501,-0.1 8.37,0.32 12.45,0.65 22.04,1.62 42.19,13.75 57.05,29.65 19.12,22.54 26.89,55.1 17.85,83.5 26.64,31.6 53.23,63.32 80.15,94.7 31.48,-1.72 63.98,15.95 77,45.15 9.84,17.4 8.81,38.45 5.75,57.55 -1.32,11.78 -16.29,21.57 -26.65,13.45 -10.84,-10.62 -19.96,-22.91 -29.8,-34.45 -7.74,6.08 -15.24,12.42 -22.9,18.6 9.52,10.64 18.65,21.63 27.85,32.55 4.9,5.34 5.05,13.88 1.75,20.1 -5.36,7.54 -15.82,6.79 -24,7.65 -20.96,1.42 -42.56,-5.3 -58.1,-19.6 -12.38,-11.9 -22.26,-27.19 -25.1,-44.35 -2.04,-10.86 -1.81,-22.09 0.05,-32.95 -26.1,-31.76 -53.27,-62.74 -79.25,-94.6 -20.36,2.04 -41.96,-1.04 -59.2,-12.7 -19.22,-11.7 -33.08,-31.16 -39.5,-52.6 -3.14,-15.76 -2.64,-32.05 0,-47.85 2.98,-10.28 17.32,-14.79 25.3,-7.25 13.08,12.16 23.24,27.06 35.5,40 13.42,-11.08 26.39,-22.7 40.05,-33.5 -10.84,-13.92 -22.93,-26.83 -33.75,-40.75 -4,-6.76 -1.86,-16.83 5.4,-20.45 3.84,-1.75 7.94499,-2.4 12.1,-2.5 z"
       id="path16"
       style="fill:#f5e5c1"
       inkscape:connector-curvature="0" />
    <path
       d="m 703.22,199.18 c 21.22,-1.86 43.06,6.38 57.12,22.48 19.7,20.38 22.4,52.96 10.3,77.92 -0.68,-0.24 -2.02,-0.76 -2.7,-1 -12.92,-35.22 -34.38,-67.16 -60.84,-93.66 -1.4,-1.84 -2.7,-3.76 -3.88,-5.74 z"
       id="path18"
       inkscape:connector-curvature="0"
       style="fill:#f5722c" />
    <path
       d="m 236.14,252.42 c 11.72,-26.34 41.42,-42.92 70,-39.12 -29.36,30.36 -50.9,67.78 -63.88,107.88 -13.42,-19.94 -16.14,-46.86 -6.12,-68.76 z"
       id="path22"
       inkscape:connector-curvature="0"
       style="fill:#f5722c" />
    <path
       d="m 423.8,220.84 c 24.24,-2.2 49.48,7.38 64.96,26.38 17.82,20.78 22.34,51.32 12.18,76.64 29.88,35.2 59.72,70.46 89.36,105.86 15.48,-1.74 31.68,0.7 45.14,8.84 16.22,9.1 27.2,25.78 31.5,43.62 1.82,12.86 1.5,26.32 -3.48,38.48 -2.56,-2.12 -5.2,-4.14 -7.28,-6.7 -10.42,-12.68 -21.14,-25.1 -31.68,-37.68 -14.4,12.82 -29.3,25.08 -44.08,37.46 11.12,12.22 21.3,25.26 32.24,37.62 2.5,2.72 4.26,5.98 5.88,9.26 -14.96,1.68 -30.98,2.6 -44.8,-4.48 -23.48,-10.68 -39.48,-36.14 -38.3,-62.02 -0.4,-6.94 3.38,-14.2 1.48,-20.82 -29.06,-35.18 -58.86,-69.76 -88.18,-104.72 -18.56,4.76 -38.62,1.26 -55.18,-8.1 -17.28,-10.14 -30.22,-27.42 -34.82,-46.96 -3.4,-13.1 -2.44,-26.9 0.84,-39.92 2.66,2.26 5.46,4.44 7.66,7.2 12.06,14.56 24.32,28.96 36.54,43.38 20.8,-17.3 41.2,-35.08 62.14,-52.22 -13.68,-17.34 -28.98,-33.36 -42.12,-51.12 z"
       id="path24"
       inkscape:connector-curvature="0"
       style="fill:#f5722c" />
    <path
       d="m 775.24,318.4 c 19.62,6.34 36.68,21.24 43.92,40.76 5.12,11.56 4.72,24.52 3.68,36.84 -3.38,21.08 -17.82,39.14 -36.26,49.36 5.52,-42.48 1.84,-86.16 -11.34,-126.96 z"
       id="path26"
       inkscape:connector-curvature="0"
       style="fill:#f5722c" />
    <path
       d="m 199.22,385.92 c 4.3,-20.82 19.04,-38.98 38.26,-47.96 -9.54,39.9 -11.72,81.6 -4.7,122.1 -17,-10.34 -30.38,-27.34 -33.76,-47.2 -0.86,-8.94 -0.9,-18.02 0.2,-26.94 z"
       id="path28"
       inkscape:connector-curvature="0"
       style="fill:#f5722c" />
    <path
       d="m 783.9,460.1 c 15.76,17.52 21.38,43.58 13.88,65.96 -8.24,26.56 -34.2,46.96 -62.2,47.28 22.08,-34.78 40.78,-72.42 48.32,-113.24 z"
       id="path30"
       inkscape:connector-curvature="0"
       style="fill:#f5722c" />
    <path
       d="m 241.72,556.1 c -16.6,-21.32 -19.56,-53.48 -4.22,-76.22 9.52,37.68 28.04,72.78 52.46,102.92 -18.72,-2.26 -36.9,-11.4 -48.24,-26.7 z"
       id="path32"
       inkscape:connector-curvature="0"
       style="fill:#f5722c" />
    <path
       d="m 480.02,687.1 c 73.44,9.14 150.4,-14.68 206.34,-63.04 48.86,88.32 97.06,177 145.64,265.48 -63.48,-15.26 -126.62,-32.04 -190.18,-47 -14.66,37.32 -30.32,74.26 -45.2,111.5 -1.64,4.18 -3.7,8.18 -5.74,12.2 C 574.5,930.78 560.08,894.5 546.04,858.08 526.24,807.3 506.4,756.54 486.6,705.76 c -2.6,-6.08 -4.78,-12.3 -6.58,-18.66 z"
       id="path34"
       inkscape:connector-curvature="0"
       style="fill:#f5722c" />
    <path
       d="M 280.02,801.86 C 299.26,744 317.84,685.9 337.5,628.2 c 35.64,29.78 79.64,48.8 125.22,57.04 15.08,37.86 28.76,76.26 43.42,114.26 1.5,3.26 1.42,6.88 0.48,10.3 -13.7,53.42 -26.56,107.08 -40.38,160.48 C 437.26,930.72 408.88,890.7 380.06,851 c -46.64,24.46 -93.08,49.38 -140.02,73.24 12.68,-41 26.7,-81.58 39.98,-122.38 z"
       id="path36"
       inkscape:connector-curvature="0"
       style="fill:#f5722c" />
  </g>
</svg>
