<?xml version="1.0" encoding="UTF-8" standalone="no"?>
<svg
   xmlns:dc="http://purl.org/dc/elements/1.1/"
   xmlns:cc="http://creativecommons.org/ns#"
   xmlns:rdf="http://www.w3.org/1999/02/22-rdf-syntax-ns#"
   xmlns:svg="http://www.w3.org/2000/svg"
   xmlns="http://www.w3.org/2000/svg"
   xmlns:sodipodi="http://sodipodi.sourceforge.net/DTD/sodipodi-0.dtd"
   xmlns:inkscape="http://www.inkscape.org/namespaces/inkscape"
   width="1280"
   height="1280"
   viewBox="0 0 1024 1024"
   version="1.1"
   id="svg2"
   inkscape:version="0.48.1 "
   sodipodi:docname="killxsappingspies.svg">
  <metadata
     id="metadata30">
    <rdf:RDF>
      <cc:Work
         rdf:about="">
        <dc:format>image/svg+xml</dc:format>
        <dc:type
           rdf:resource="http://purl.org/dc/dcmitype/StillImage" />
        <dc:title />
      </cc:Work>
    </rdf:RDF>
  </metadata>
  <defs
     id="defs28" />
  <sodipodi:namedview
     pagecolor="#ffffff"
     bordercolor="#666666"
     borderopacity="1"
     objecttolerance="10"
     gridtolerance="10"
     guidetolerance="10"
     inkscape:pageopacity="0"
     inkscape:pageshadow="2"
     inkscape:window-width="1920"
     inkscape:window-height="1018"
     id="namedview26"
     showgrid="false"
     fit-margin-top="0"
     fit-margin-left="0"
     fit-margin-right="0"
     fit-margin-bottom="0"
     inkscape:zoom="0.6609375"
     inkscape:cx="466.00473"
     inkscape:cy="640"
     inkscape:window-x="-8"
     inkscape:window-y="-8"
     inkscape:window-maximized="1"
     inkscape:current-layer="layer1"
     inkscape:snap-page="true" />
  <g
     inkscape:groupmode="layer"
     id="layer1"
     inkscape:label="background">
    <rect
       style="fill:#3e3e3e;fill-opacity:1;fill-rule:nonzero;stroke:none"
       id="rect3005"
       width="1280"
       height="1280"
       x="0"
       y="0"
       transform="scale(0.8,0.8)" />
  </g>
  <g
     inkscape:groupmode="layer"
     id="layer2"
     inkscape:label="foreground">
    <path
       d="m 706.14,47.3 c 26.5,0.08 53.38,-6.4 79.48,0.88 9.72,2.24 18.54,7.08 27.98,10.22 -5.9,0.46 -11.8,0.84 -17.6,1.88 -10.86,0.92 -21.84,-0.14 -32.6,1.9 -13.02,1.58 -26.28,-0.06 -39.22,2.52 -24.82,0.76 -49.52,3.32 -74.32,4.44 -14.02,2.54 -28.38,0.44 -42.38,3.08 -11.1,1.34 -22.34,0.16 -33.44,1.5 -7.88,1.84 -16,1.28 -24,1.52 -33.4,2.66 -66.9,4.34 -100.32,6.44 -13.14,2.14 -26.56,0.38 -39.68,2.7 -40.4,1.96 -80.74,5.16 -121.12,7 -14.84,2.46 -29.96,0.58 -44.76,3.14 -42,1.82 -83.92,5.44 -125.96,7.06 12.72,-11.6 27.98,-21.9 45.66,-23.12 18.4,-4.42 37.4,-2.16 56.02,-4.74 11.36,-1.04 22.84,0.18 34.14,-1.68 12.6,-1.84 25.4,-0.12 38.02,-1.84 15.34,-2.38 30.98,-0.52 46.36,-2.82 21.16,-1.08 42.36,-1.88 63.48,-3.66 11.38,-0.46 22.82,-0.26 34.14,-1.74 12.54,-1.72 25.38,0.4 37.82,-2.28 9.64,-0.96 19.36,-0.38 29.02,-1 15.66,-2.64 31.62,-1.1 47.38,-2.62 12.48,-1.8 25.16,-0.74 37.66,-2.2 11.3,-1.26 22.7,-0.6 34,-1.8 14.58,-1.7 29.32,-0.48 43.88,-2.52 13.44,-0.94 26.96,-0.42 40.36,-2.26 z"
       id="path6"
       inkscape:connector-curvature="0"
       style="fill:#f5e5c1" />
    <path
       d="m 825.98,67.94 c 11.9,-1.94 24.04,-0.48 35.92,-2.48 11.56,-0.62 24.46,-3.6 34.54,3.86 6.1,27.18 7.54,55.1 11.8,82.56 4.38,37.64 9.3,75.22 13.9,112.82 1.04,10.16 3.62,20.26 2.72,30.52 -3.06,-5.38 -5.16,-11.18 -7.22,-16.98 -21.5,-58.42 -43.02,-116.82 -64.36,-175.3 -1.24,-4 -3.62,-7.46 -6.92,-10.04 -6.92,0.02 -13.88,-0.12 -20.74,0.88 -12.5,1.96 -25.22,0.38 -37.74,1.96 -12.58,2.08 -25.36,0.9 -38.02,1.88 -11.18,2.32 -22.66,1.16 -33.96,2.08 -19.32,1.82 -38.68,3.04 -58.1,3.46 -15.8,2.76 -31.94,0.48 -47.76,3.1 -12.62,1.5 -25.44,-0.12 -38.02,1.94 -9.26,1.34 -18.62,0.76 -27.94,1.16 -22.76,2.04 -45.6,2.96 -68.44,4.08 l -1.48,1.06 c -11.42,0.22 -22.88,0.02 -34.28,1.02 -16.52,2.5 -33.34,0.42 -49.82,3.32 -18.76,-0.48 -37.26,2.72 -56,2.54 -21.54,1.58 -43.08,3.22 -64.66,3.8 -14.52,1.96 -29.2,1.82 -43.82,1.88 -0.34,0.42 -1.02,1.22 -1.36,1.64 -12.1,0.28 -24.26,0 -36.32,0.98 -13.8,2.48 -27.92,0.6 -41.76,2.64 -12.28,1.5 -24.78,0.16 -36.94,2.82 -1.42,1.38 -2.84,2.76 -4.26,4.14 -0.26,2.24 -0.52,4.48 -0.78,6.72 -2.14,14.6 -2.14,29.44 -4.24,44.04 -1.2,7.92 -0.16,16.08 -2.26,23.88 -3.34,44.98 -8.46,89.88 -12.08,134.86 -0.52,-6.22 -0.56,-12.52 -2.02,-18.62 -1.02,-30.7 0.5,-61.5 -2.24,-92.1 -0.22,-40.94 -1.2,-81.88 -0.54,-122.82 10.42,-0.18 20.96,0.38 31.28,-1.42 10.66,-1.62 21.54,-0.14 32.2,-1.8 9.26,-1.54 18.66,-1.04 27.98,-1.62 18.8,-2.2 37.8,-2.48 56.68,-4.04 11.42,-2 23.1,-0.36 34.54,-2.26 10.8,-1.9 21.84,-0.38 32.68,-1.8 13.12,-2.42 26.56,-0.58 39.7,-2.98 36.5,-1.78 72.9,-5.36 109.4,-6.66 14.62,-2.8 29.6,-0.68 44.22,-3.4 35.86,-1.48 71.6,-5.16 107.46,-6.6 11.84,-2.26 23.92,-1.1 35.84,-2.22 14.22,-2.54 28.76,-0.7 43,-3.24 24.78,-0.84 49.42,-3.82 74.22,-4.48 11.98,-2.02 24.16,-1.12 36.2,-2.36 13.14,-2.38 26.6,-0.56 39.8,-2.42 z"
       id="path8"
       inkscape:connector-curvature="0"
       style="fill:#f5e5c1" />
    <path
       d="m 770,112.28 c 11.94,-2.5 24.22,-0.7 36.28,-2.14 10.88,-1.44 21.86,-1.52 32.82,-1.7 38,103.02 75.56,206.2 113.38,309.3 18.24,50.72 38.44,100.86 52.68,152.94 1.2,4.2 0.98,8.94 -2.38,12.12 -26.56,32.36 -50.28,66.88 -75.12,100.54 -4.34,5.68 -8,11.84 -12.12,17.7 -60.32,5.52 -120.58,11.26 -180.9,16.74 C 723.38,703.72 711.74,690 700.42,676 c 15.38,-19.92 30.76,-39.82 46,-59.84 2.36,-2.92 4.54,-6.14 7.72,-8.26 63.3,-5.36 126.62,-10.1 189.84,-16.16 16.12,-0.26 32,-3.36 48.14,-3.1 1.62,-1.52 3.28,-3 4.94,-4.48 0.14,-4.46 0.1,-8.9 -0.1,-13.34 -21.74,0.16 -43.32,3.62 -65.04,4.54 -10.94,2.18 -22.2,0.96 -33.16,3.04 -43.88,3.44 -87.72,7.62 -131.58,10.96 8.36,-10.42 15.68,-21.76 24.88,-31.48 29.14,-2.58 58.24,-5.32 87.44,-7.78 10.84,-1.72 22.08,-0.72 32.7,-3.72 6.78,-4.4 12.88,-9.76 19.68,-14.18 -4.96,-28.38 -13.38,-56.04 -19.7,-84.14 -12.98,-54.04 -26,-108.06 -39.22,-162.04 -6.16,-24.74 -11.3,-49.76 -18.26,-74.3 -11.62,-7.74 -22.72,-17.08 -36.52,-20.66 -13.48,-1.2 -26.74,2.6 -40.22,2.06 -33.9,2.66 -67.9,4.52 -101.82,7.28 -13.46,-0.24 -26.68,2.9 -40.14,2.48 -65.64,5.28 -131.56,8.98 -197.22,14.18 -6.66,7.16 -12.7,14.88 -19.38,22.02 -3.54,3.42 -4.36,8.34 -5.34,12.94 -2.56,7.9 -1.08,16.1 0.28,24.06 1.08,19.3 2.54,38.58 4.64,57.78 -8.82,-10.3 -17.28,-20.92 -26.26,-31.06 -3.04,-9.2 -0.56,-19.3 -2.92,-28.7 -2.18,-26.3 -4.78,-52.58 -6.9,-78.9 -16.86,-0.36 -33.58,2.08 -50.42,2.42 -0.14,-6.36 -0.16,-12.72 -0.18,-19.08 -1.5,0.04 -4.54,0.12 -6.04,0.14 -17.6,7.72 -36.22,12.72 -53.96,20.06 -6.32,3.16 -13.56,1.9 -20.32,2.74 -16.08,2.04 -32.34,1.12 -48.5,1.96 -0.78,-16.22 0.04,-32.62 -3.32,-48.6 -5.94,1.72 -11.9,3.4 -17.98,4.54 -15.18,4.8 -30.98,7.4 -46.14,12.32 0.84,12.7 9.64,23.02 11.96,35.46 -4.96,0.1 -9.92,0.24 -14.88,0.4 0.66,53.1 1.58,106.18 2.14,159.28 40.84,-2.98 81.78,-5.86 122.66,-8.26 12.44,-2.46 25.24,-0.56 37.7,-2.76 11.52,-1.54 23.2,-0.78 34.78,-1.44 -14.12,14.32 -27.5,29.4 -41.92,43.42 -4.2,-3.36 -8.76,-6.24 -13.7,-8.38 -6.88,-2.96 -12.86,-8.72 -20.82,-8.36 -18.06,-0.64 -36.88,3.12 -52.48,12.52 -14.16,10.9 -25.36,25.92 -31.06,42.92 -6.36,10.98 -11.56,22.82 -13.22,35.5 -4.82,31.48 10.2,64.48 35.86,82.94 16.3,12.42 36.62,18.4 56.9,19.58 17.82,0.1 34.94,-5.46 51.02,-12.7 21.04,20.64 42.22,41.14 63.68,61.32 -25.56,2.26 -51.14,4.58 -76.72,6.52 -10.12,1.96 -20.56,0.54 -30.66,2.62 -52.08,4.54 -104.26,8.6 -156.32,13.3 0.58,6.22 2.9,12.08 4.44,18.1 9.14,-3.82 19.26,-1.74 28.8,-3.68 50.66,-3.96 101.24,-8.22 151.88,-12.76 5.98,-0.46 12.2,0.3 17.94,-1.78 26.06,-0.68 51.84,-5.24 77.94,-5.14 19.22,17.88 37.72,36.54 56.88,54.46 -13.24,16.9 -25.68,34.42 -38.9,51.32 -2.12,3.36 -6.44,2.86 -9.82,3.46 -73.36,6.32 -146.68,13.36 -220,19.84 -14.84,0.84 -29.54,3.84 -44.44,3.5 -11.4,-36.32 -22.5,-72.72 -33.36,-109.2 -4.64,-17.14 -13.66,-34.02 -10.78,-52.28 1.92,-13.18 0.84,-26.56 2.26,-39.78 1.58,-11.16 1.1,-22.48 1.68,-33.72 2.28,-22.58 2.36,-45.32 4.32,-67.92 1.34,-13.36 0.18,-26.9 2.2,-40.2 2.3,-16.6 -1.5,-34 4.52,-50.04 3.84,-16.22 3.42,-33.08 5.86,-49.52 2.36,-33.52 6.3,-66.9 9.1,-100.42 3,-26.84 4.34,-53.82 7.78,-80.58 15.36,-2.32 30.84,-1.98 46.3,-2.68 11.26,-2 22.7,-1.48 34.06,-1.86 24.04,-2.66 48.3,-2.32 72.34,-5.06 22.16,0.06 44.08,-3 66.24,-2.92 14,-2.54 28.28,-1.08 42.4,-2.44 13.72,-2.34 27.72,-0.64 41.48,-2.72 17.54,-0.84 35.06,-1.92 52.6,-2.92 15,-2.48 30.34,-0.24 45.32,-2.84 13.82,-1.48 27.84,0.2 41.56,-2.32 13.5,-1.1 27.14,0.04 40.58,-2.22 18.68,-0.48 37.3,-2.08 55.98,-3.02 24.7,-1.28 49.36,-3.56 74.14,-3.52 0.34,-0.4 1,-1.16 1.34,-1.56 12.14,0.04 24.28,-0.1 36.4,-0.88 z"
       id="path10"
       inkscape:connector-curvature="0"
       style="fill:#f5e5c1" />
    <path
       d="m 166.06,169.44 c 8.3,-1.84 16.8,-3.12 24.68,-6.4 1.44,1.52 3.54,2.86 3.58,5.22 2.08,31.5 4,63.04 6.64,94.5 -3.66,1.92 -7.46,3.58 -11.4,4.84 -12.08,-25.06 -24.86,-49.76 -37,-74.78 -2.9,-6.2 -6.48,-12.16 -8.06,-18.88 7.34,-0.6 14.6,-2.08 21.56,-4.5 z"
       id="path12"
       inkscape:connector-curvature="0"
       style="fill:#f5e5c1" />
    <path
       d="m 292.3,200.96 c 10.08,-3.34 19.56,-8.56 30,-10.68 4.64,16.26 1.72,33.42 3.54,50.06 1.08,8.06 0.94,16.18 1.12,24.28 -2.98,1.12 -5.94,2.24 -8.88,3.4 -2.86,0.6 -5.74,1.14 -8.6,1.66 -9.16,-20.64 -16.66,-42.08 -26.82,-62.24 0.84,-4.68 6.12,-4.78 9.64,-6.48 z"
       id="path14"
       inkscape:connector-curvature="0"
       style="fill:#f5e5c1" />
    <path
       d="m 333.08,236.7 c 10.14,4.68 20.82,12.94 21.26,25.08 1.66,12.48 -7.84,23.22 -18.6,27.98 -9.24,4.72 -20,3.84 -29.98,3.04 -11.34,-2.54 -22.6,-9.84 -26.7,-21.08 -0.88,-7.04 -1.8,-15.24 2.86,-21.22 2.4,-3.24 5.36,-5.98 8.22,-8.78 5.24,11.86 9.76,24.04 15.36,35.74 9.6,-0.3 18.42,-4.46 27.56,-6.9 0.92,-11.26 0.02,-22.56 0.02,-33.86 z"
       id="path16"
       inkscape:connector-curvature="0"
       style="fill:#f5e5c1" />
    <path
       d="m 592.44,250.32 c 24.44,-3.46 48.9,-7 73.3,-10.76 6.08,-0.66 12.06,0.86 18,1.86 23.82,3.74 47.62,7.52 71.42,11.34 7.8,1.56 15.96,1.58 23.34,4.82 11.68,42.42 23.58,84.8 35.96,127 1.18,3.12 -2.88,4.64 -4.22,6.88 -2.88,-1.7 -5.8,-3.38 -8.22,-5.7 -21.56,-21.14 -43.62,-41.78 -66.04,-61.96 -3.44,-2.64 -9.42,-4.38 -12.5,-0.3 -16.08,20.24 -31.2,41.26 -47.44,61.38 -0.52,-15.6 -3.62,-30.92 -5.18,-46.42 -3.04,0.24 -6.08,0.58 -9.12,0.94 1.28,6.52 2.58,13.04 3.74,19.6 -11.62,-0.38 -22.94,3.02 -34.56,2.68 -0.9,-6.32 -2.08,-12.58 -3.06,-18.9 -3.14,0.2 -6.28,0.42 -9.42,0.64 1.4,6.58 3,13.1 4.82,19.6 -9.8,0.86 -19.62,1.7 -29.42,2.38 -0.32,-6.12 -0.92,-12.22 -1.58,-18.32 -3.02,-0.04 -6.02,-0.06 -9.02,-0.06 0.52,6.46 1.32,12.9 2.34,19.3 -10.24,0.86 -20.32,3.4 -30.68,2.76 -0.9,-6.22 -1.98,-12.4 -2.7,-18.66 -2.52,0.18 -5.06,0.36 -7.56,0.56 0.18,6.7 0.74,13.4 1.02,20.1 -10.92,-0.5 -21.54,2.68 -32.44,2.38 0.1,-6.44 -0.54,-12.88 -2.38,-19.06 -1.5,0.02 -4.48,0.08 -5.98,0.1 1.18,18.1 4.46,35.98 5.98,54.02 2.58,-0.12 5.18,-0.22 7.78,-0.34 -1,-9.9 -3.2,-19.64 -3.82,-29.58 10.36,-3.16 21.44,-1.24 31.96,-3.74 1.8,9.3 3.2,18.7 3.02,28.2 3.3,0.14 6.62,0.24 9.96,0.32 -2.26,-7.62 -2.92,-15.52 -3.1,-23.42 -0.7,-1.7 -1.4,-3.4 -2.08,-5.1 10.5,-1.24 21,-2.58 31.52,-3.56 0.66,9.52 3.26,18.82 2.92,28.42 2.76,-0.26 5.52,-0.52 8.28,-0.78 -0.7,-9.22 -1.26,-18.46 -2.84,-27.58 9.94,-2.5 20.22,-2.34 30.38,-2.58 2,8.78 3.98,17.58 6.4,26.26 1.04,0.38 3.14,1.14 4.2,1.52 1.06,-10.08 -2.86,-19.68 -2.86,-29.68 11.36,0.54 22.48,-2.08 33.76,-2.62 1.64,9.16 2.68,18.42 4.76,27.5 -13.14,17.3 -26.44,34.46 -39.54,51.78 -2.98,3.72 -6,7.74 -10.44,9.8 -8.38,2.68 -17.24,3.16 -25.92,4.34 -21.08,4.58 -42.32,8.38 -63.32,13.34 -7.9,-9.16 -15.5,-18.58 -23.2,-27.9 -4,-4.74 -5.02,-11.08 -5.28,-17.04 -5.44,-46.52 -12.08,-92.92 -17.36,-139.46 5.94,-2.38 11.9,-4.66 17.8,-7.14 19.84,-7.66 39.58,-15.5 59.3,-23.4 9.34,-3.82 19.54,-3.88 29.32,-5.76 z"
       id="path18"
       inkscape:connector-curvature="0"
       style="fill:#f5e5c1" />
    <path
       d="m 206.86,242.32 c 9.4,3.62 18.82,9.82 22.04,19.86 0.9,7.14 1.76,15.34 -2.78,21.48 -9.66,15.3 -31.52,18.52 -47.02,10.94 -9.22,-4.34 -16.42,-14.02 -15.76,-24.5 -0.14,-6.62 1.88,-15.12 8.64,-17.88 1.16,3.94 2.64,7.78 4.42,11.5 2,4.36 3.9,8.8 5.6,13.3 9.2,0.44 16.66,-6.06 25.08,-8.78 0.24,-8.64 -0.2,-17.28 -0.22,-25.92 z"
       id="path20"
       inkscape:connector-curvature="0"
       style="fill:#f5e5c1" />
    <path
       d="m 235.88,474.06 c 50.02,-52.68 100.06,-105.38 150.14,-158.02 61.94,75.08 123.58,150.4 185.66,225.36 52.26,-69 103.86,-138.52 156.36,-207.36 39.3,43.34 78.64,86.62 117.94,129.98 -54.3,70.82 -108.92,141.42 -163.28,212.22 52.86,64.78 106.22,129.12 159.28,193.74 C 806.66,900.76 771.34,931.5 735.96,962.2 683.74,911.76 631.34,861.48 579.3,810.82 529.98,874.36 481.16,938.3 432.02,1001.98 396.2,973.08 360.58,943.94 324.88,914.9 c -7.18,-5.82 -14.72,-11.34 -20.66,-18.52 51.02,-67.64 102,-135.32 152.96,-203 -73.56,-71.3 -147.48,-142.26 -221.16,-213.44 -2.3,-1.56 -2.54,-4.3 -0.14,-5.88 z"
       id="path22"
       inkscape:connector-curvature="0"
       style="fill:#f4722b" />
    <path
       d="m 206.32,398.82 c 16.42,-9.04 36.96,-13.54 55.06,-6.98 7.7,3.14 14.9,7.52 21.46,12.66 -19.2,19.62 -37.78,39.84 -56.86,59.56 -6.5,6.12 -7.82,16.92 -1.68,23.76 8.34,8.86 17.52,16.9 26.24,25.4 -7.52,-0.08 -15.1,0.42 -22.6,-0.44 -17.12,-3.58 -33.42,-13.34 -42.74,-28.42 -8.62,-12.74 -11.54,-28.94 -8.64,-43.96 4.38,-16.82 15.58,-31.72 29.76,-41.58 z"
       id="path24"
       inkscape:connector-curvature="0"
       style="fill:#f5e5c1" />
  </g>
</svg>
