<?xml version="1.0" encoding="UTF-8" standalone="no"?>
<svg
   xmlns:dc="http://purl.org/dc/elements/1.1/"
   xmlns:cc="http://creativecommons.org/ns#"
   xmlns:rdf="http://www.w3.org/1999/02/22-rdf-syntax-ns#"
   xmlns:svg="http://www.w3.org/2000/svg"
   xmlns="http://www.w3.org/2000/svg"
   xmlns:sodipodi="http://sodipodi.sourceforge.net/DTD/sodipodi-0.dtd"
   xmlns:inkscape="http://www.inkscape.org/namespaces/inkscape"
   width="1280"
   height="1280"
   viewBox="0 0 1024 1024"
   version="1.1"
   id="svg2"
   inkscape:version="0.48.1 "
   sodipodi:docname="dispenser_extinguish.svg">
  <metadata
     id="metadata148">
    <rdf:RDF>
      <cc:Work
         rdf:about="">
        <dc:format>image/svg+xml</dc:format>
        <dc:type
           rdf:resource="http://purl.org/dc/dcmitype/StillImage" />
      </cc:Work>
    </rdf:RDF>
  </metadata>
  <defs
     id="defs146" />
  <sodipodi:namedview
     pagecolor="#ffffff"
     bordercolor="#666666"
     borderopacity="1"
     objecttolerance="10"
     gridtolerance="10"
     guidetolerance="10"
     inkscape:pageopacity="0"
     inkscape:pageshadow="2"
     inkscape:window-width="1920"
     inkscape:window-height="1018"
     id="namedview144"
     showgrid="false"
     fit-margin-top="0"
     fit-margin-left="0"
     fit-margin-right="0"
     fit-margin-bottom="0"
     inkscape:zoom="0.6609375"
     inkscape:cx="640"
     inkscape:cy="640"
     inkscape:window-x="-8"
     inkscape:window-y="-8"
     inkscape:window-maximized="1"
     inkscape:current-layer="svg2" />
  <path
     d="m 0,0 1024,0 0,1024 L 0,1024 0,0 z"
     id="path4"
     style="fill:#3e3e3e"
     inkscape:connector-curvature="0" />
  <path
     d="m 234.95,18 c -27.00187,0.0116 -54,0.055 -81,0.1 -42.58,1.92 -85.23,1.72 -127.85,2 11.28,74.02 23.54,147.89 35.2,221.85 30.02,187.24 59.8,374.54 89.8,561.8 10.16,62.34 19.52,124.82 30.1,187.1 44.22,1.84 88.5,0.24 132.7,2.2 40.02,1.88 80.12,-0.13 120.1,1.95 20.64,0.46 41.31,1 61.95,0.9 11.38,-0.24 22.65,1.98 34.05,1.3 33.3,0.3 66.6,0.73 99.9,0.75 15.42,0.3 30.9,-0.65 46.3,0.75 37.26,1.1 74.52,1.43 111.8,1.25 20.68,1.06 41.4,1.71 62.1,1.65 20.82,-129.34 42.12,-258.62 63.2,-387.9 31.88,-195.22 63.64,-390.45 95.7,-585.65 -17.64,0.04 -35.29,-0.24 -52.85,-1.8 -32.38,-0.78 -64.74,0.35 -97.1,-0.65 -44.88,-3.82 -90.07,0.65 -134.95,-3.25 -39.34,-1.28 -78.74,1.2 -118,-2.1 -30.72,-0.72 -61.48,0.16 -92.2,-0.5 -12,-0.26 -23.93,-1.93 -35.95,-1.75 -81,0.06 -161.99437,-0.0347 -243,0 z m 459,31.65 c 8.28,0.06 17.01,1.52 23.85,6.5 12.48,10.1 20.22,24.51 27.4,38.55 3.68,9 10.25,16.76 12.05,26.5 1.44,8.3 0.64,16.82 0.8,25.2 12.08,-5.58 24.85,-9.73 37.95,-12.05 22.36,-3.22 44.59,3.86 64.65,13.2 21.12,12.72 38.77,32.53 45.65,56.55 4.02,14.48 7.78,29.69 4.9,44.75 -3.04,15.46 -6.16,31.62 -15.7,44.6 -7.14,9.48 -14.17,19.45 -24.35,25.95 -8.72,7.22 -19.17,11.66 -29.45,16.1 4.96,7.24 9.32,15.67 8.1,24.75 -1.36,10.58 -3.3,21.07 -4.6,31.65 7.88,4.78 15.71,10.47 20.35,18.65 5.48,10.9 7.87,23.31 6.45,35.45 -1.18,9.3 -1.92,18.67 -1.7,28.05 6.18,7.62 11.6,17.34 9.2,27.5 -5.34,19.2 -8.71,38.93 -13.65,58.25 -1.18,4.34 -6.41,7.44 -5.15,12.3 6.2,24.36 -3.64,48.62 -7.6,72.5 10,3.62 18.06,12.42 18.9,23.3 1.88,17.34 1.68,35.26 -3,52.2 -2.46,11.42 -4.1,24.92 -14.9,31.8 -12.8,7.22 -28.38,4.54 -42,1.3 -7.44,-1.34 -13.12,-6.57 -19.5,-10.15 4.1,8.94 10.69,16.82 12.25,26.8 3.66,12.98 0.22,26.46 -4.1,38.8 -3.68,9.06 -12.04,14.82 -19.9,20 -11.46,8.5 -25.69,11.73 -39.35,14.75 -10.1,0.4 -19.8,-3.48 -29.5,-5.8 -7.04,20.72 -11.69,42.19 -19.85,62.55 -3.32,7.64 -10.73,12.18 -17.45,16.5 -8.42,5.46 -18.79,6.24 -28.55,6 -32.72,-0.28 -65.43,-0.25 -98.15,-0.65 -16.62,-1.66 -33.37,-1.1 -50.05,-1.3 -26.64,-0.16 -53.26,-0.3 -79.9,-0.6 -27.32,-1.84 -54.71,-0.72 -82.05,-1.4 -16.52,-0.8 -31.66,-10.17 -42.3,-22.45 -8.86,-9.4 -11.07,-22.57 -16.05,-34.05 -5.04,-15.78 -11.29,-31.14 -17.45,-46.5 -3.14,-7.4 -2.66,-15.74 0.6,-23 4.9,-11.98 8.41,-24.5 12.75,-36.7 -5.2,-13.86 -3.2,-28.97 -4.1,-43.45 -14.12,-0.5 -26.66,-7.56 -39.5,-12.6 -10.84,-5.82 -23.86,-8.24 -32.4,-17.7 -11.4,-12.26 -17.94,-29.38 -15.8,-46.2 1.76,-16 7.68,-31.63 7.8,-47.75 -5.28,-14.52 -5.45,-30.16 -6.25,-45.4 -9.36,-4.72 -18.71,-9.41 -28.05,-14.15 -8.68,-4.46 -17.06,-11.81 -18.6,-21.95 -2.76,-10.36 1.84,-20.46 6.3,-29.6 4.4,-8.46 1.75,-18.96 7.25,-27 4.38,-6.24 9,-12.45 14.7,-17.55 6.36,-5.96 15.42,-6.87 23.5,-8.95 -5.72,-6.7 -9,-15.2 -10,-23.9 -0.06,-5.22 2.85,-10.32 1.15,-15.5 -3.12,-10.82 -7.93,-21.22 -9.75,-32.4 -1.4,-8.16 1.4,-16.2 3.7,-23.9 -2.96,-9.08 -5.27,-18.32 -6.45,-27.8 -2,-8.58 -4.8,-17.47 -2.1,-26.25 1.32,-8.48 8.29,-14.91 16.35,-17.05 8.26,-14.26 14.24,-31.48 29.2,-40.2 10.98,-5.92 22.48,-10.86 33.4,-16.9 -2.44,-17.22 -1.85,-34.67 -4.65,-51.85 -1.26,-12.66 -2.37,-25.84 1.85,-38.1 3.84,-11.9 3.68,-26.31 13.6,-35.25 6,-6 12.26,-12.01 19.9,-15.85 11.18,-4.7 23.55,-3.21 35.35,-3.55 18.06,-0.34 36.15,0.52 54.15,-1.2 33.98,-0.5 67.94,-0.53 101.9,-0.75 46.6,-3.6 93.54,0.55 140.1,-3.35 29.3,-0.02 58.55,-0.17 87.85,-0.25 z"
     id="path6"
     style="fill:#f4722b"
     inkscape:connector-curvature="0" />
  <path
     style="fill:#f4e5c1"
     d="M 860.84375 91.96875 C 850.52776 91.924304 840.17031 92.885937 829.875 92.9375 C 777.4 93.2375 724.9125 94.7875 672.4375 94.5625 C 609.1375 97.6125 545.7375 95.45625 482.4375 98.15625 C 441.4125 98.68125 400.4 99.125 359.375 99.125 C 351.7 104.925 344.25625 111 337.15625 117.5 C 334.58125 135.875 326.78125 153.65 328.90625 172.5 C 332.98125 204.3 333.16875 236.43125 336.46875 268.28125 C 318.76875 279.15625 299.26875 286.53125 280.84375 296.03125 C 274.01875 299.03125 270.5375 305.84375 266.8125 311.84375 C 253.1125 331.54375 247.125 355.1625 239 377.4375 C 241.75 387.6125 244.95 397.6125 248 407.6875 C 251.775 418.1625 239.5375 426.875 242.1875 437.375 C 246.3375 452.6 253.2875 466.98125 256.8125 482.40625 C 258.9625 489.85625 251.05 497.375 255.375 504.375 C 265.25 519.9 276.575 534.475 286.25 550.125 C 288.075 558.425 286.43125 566.99375 283.90625 574.96875 C 267.45625 570.71875 252.7125 557.8625 234.9375 561.0625 C 224.3125 561.5875 218.41875 572.25625 213.46875 580.28125 C 216.11875 595.78125 204.71875 608.08125 200.96875 622.28125 C 199.79375 626.30625 201.3875 630.5375 205.4375 632.0625 C 222.9375 641.5375 240.65 650.64375 258.375 659.71875 C 258.525 676.49375 261.0625 693.13125 261.1875 709.90625 C 260.3375 717.18125 267.0375 721.5375 270.9375 726.6875 C 266.2875 747.7375 263.59375 769.15 258.71875 790.125 C 257.86875 796.55 256.7625 803 256.9375 809.5 C 259.0875 816.275 263.05625 822.34375 266.65625 828.46875 C 270.55625 835.69375 279.275 837.4875 286.125 840.8125 C 300.9 846.6375 314.9875 854.1625 330.0625 859.1875 C 341.9125 858.9875 352.9375 853.475 364.0625 849.875 C 367.0375 871.4 365.39375 893.31875 368.59375 914.84375 C 369.91875 919.69375 372.19375 924.60625 370.21875 929.65625 C 372.99375 932.95625 378.2375 936.06875 375.6875 941.09375 C 368.2625 963.19375 361.66875 985.5915 353.21875 1007.3438 C 363.41875 1033.1687 372.78125 1059.3875 382.15625 1085.5625 C 386.40625 1101.9125 401.5375 1113.9375 417.3125 1118.1875 C 462.3375 1119.0125 507.4125 1118.675 552.4375 1119.625 C 574.9375 1121.3 597.5125 1120.475 620.0625 1120.875 C 686.9125 1120.675 753.7125 1123.425 820.5625 1123.375 C 826.9875 1118.65 837.08125 1116.3625 838.78125 1107.4375 C 847.13125 1081.2875 854.7875 1054.9375 863.1875 1028.8125 C 864.6875 1025.4125 863.1875 1022.0063 861.8125 1018.9062 C 860.3625 1010.2813 858.14375 1001.8562 855.59375 993.53125 C 861.14375 993.55625 866.70625 993.60625 872.28125 993.78125 C 878.38125 1001.9312 884.69375 1010.4375 893.59375 1015.6875 C 902.91875 1019.3375 912.625 1022.2935 922.5 1023.9688 C 940.55 1022.1187 957.9625 1013.8875 971.0625 1001.3125 C 972.8375 997.5625 973.61875 993.50625 974.59375 989.53125 L 976.1875 987.71875 C 978.7125 973.21875 973.875 958.7125 964.625 947.5625 C 954.275 934.7625 963.90625 918.8125 964.53125 904.5625 C 971.35625 901.1875 979.2625 897.24375 979.5625 888.46875 C 991.6875 888.06875 1003.8375 888.10625 1015.9375 888.53125 C 1015.8625 895.85625 1010.8312 905.93125 1018.6562 911.03125 C 1027.9812 915.35625 1038.8564 912.84375 1048.5312 916.21875 C 1055.8357 908.54375 1054.85 897.05 1057.875 887.5 C 1062.8 871 1060.8438 853.675 1060.9688 836.75 C 1051.1934 833.35 1040.8625 832.28125 1030.6875 830.78125 C 1036.1875 801.30625 1041.8936 771.85 1047.9688 742.5 C 1048.9142 736.8 1048.9814 730.8375 1047.7812 725.1875 C 1045.8836 721.5625 1041.8 720.1375 1038.625 717.9375 C 1038.775 710.3875 1038.9316 702.8625 1039.1562 695.3125 C 1044.0086 694.1375 1048.85 692.85 1053.625 691.25 C 1057.55 669.125 1061.8375 647.0625 1066.4375 625.0625 C 1067.3625 623.8875 1069.1643 621.5125 1070.0938 620.3125 C 1065.2686 613.7375 1059.0858 607.6375 1056.6562 599.6875 C 1054.8066 575.6125 1063.3375 550.94375 1055.6875 527.34375 C 1051.1625 523.26875 1046.6643 519.025 1041.3438 516 C 1035.1643 512.6 1027.9125 511.775 1021.8125 508.25 C 1017.1875 503.75 1019.6625 496.4625 1018.4375 490.6875 C 1020.6375 489.1125 1023.8 488.5 1025.25 486.125 C 1028.25 472.275 1028.1875 457.9125 1031.8125 444.1875 C 1027.2375 442.9625 1022.6562 441.76875 1018.0312 440.71875 C 1019.6812 424.86875 1025.5875 409.7625 1026.6875 393.8125 C 1062.6875 387.6125 1094.4125 360.33125 1104.4375 325.03125 C 1112.4625 299.95625 1109.1 271.9 1096.625 248.875 C 1083.15 224.55 1059.1875 206.175 1031.9375 200.25 C 1007.4125 195.275 980.8125 198.5375 959.3125 211.8125 C 939.0375 224.3375 922.125 244.0125 916.5 267.5625 C 915.725 230.0125 916.88125 192.4375 915.90625 154.9375 C 911.58125 143.8125 904.79375 133.81875 899.59375 123.09375 C 893.56875 111.61875 887.725 97.9875 874.875 92.8125 C 870.21094 92.210938 865.53284 91.988953 860.84375 91.96875 z M 879.71875 108.03125 C 883.39375 114.98125 886.61875 122.2625 891.46875 128.5625 L 891.5 129.375 C 880.775 124.525 868.9375 126.5625 857.5625 126.3125 C 709.9875 126.5625 562.3875 126.7375 414.8125 127.1875 C 395.8125 128.1625 376.8125 127.50625 357.8125 128.53125 C 362.6625 124.30625 367.125 119.5 372.625 116.125 C 428.3 112.7 484.125 114.34375 539.875 113.21875 C 591.525 110.79375 643.3 111.9125 695 110.8125 C 756.525 108.7125 818.14375 109.15625 879.71875 108.03125 z M 848.1875 131.96875 C 856.32539 131.925 864.45625 131.99375 872.59375 132.3125 C 878.41875 132.7125 881.225 138.4875 884.75 142.3125 C 893.8 152.6375 897.025 166.65625 898.625 179.90625 C 898.6 215.93125 898.9375 251.94375 898.4375 287.96875 C 884.2125 291.59375 869.6125 293.58125 855.1875 296.15625 C 830.9625 297.33125 806.6875 296.56875 782.4375 297.09375 C 748.3375 298.61875 714.15625 298.1125 680.03125 298.4375 C 624.15625 298.6875 568.2875 299.0625 512.4375 299.5625 C 474.1375 301.2375 435.7625 300.45 397.4375 300.875 C 386.6375 300.45 375.8125 301.75 365.0625 300.5 C 359.5125 293.1 353.4625 284.86875 353.3125 275.21875 C 351.0125 248.51875 349.4875 221.7875 347.8125 195.0625 C 346.6875 186.2125 345.25625 176.91875 348.65625 168.34375 C 351.53125 160.54375 352.5625 151.825 357.5625 145 C 364.6625 137.7 374.8875 133.36875 385.0625 133.21875 C 515.0125 133.16875 644.9875 133.0375 774.9375 132.9375 C 799.36875 133.36875 823.77383 132.1 848.1875 131.96875 z M 1006.7812 212.9375 C 1018.8868 212.84448 1031.0026 214.89062 1042.0312 219.90625 C 1065.9588 230.48125 1084.8184 252.26875 1091.0938 277.71875 C 1100.7188 312.71875 1085.6375 352.875 1054.9375 372.375 C 1035.7125 385.6 1011.1125 389.48125 988.4375 384.90625 C 943.7375 375.90625 910.96875 326.94375 921.46875 282.21875 C 927.64375 250.09375 953.46875 223.01875 985.21875 215.21875 C 992.25 213.8125 999.51927 212.99331 1006.7812 212.9375 z M 319.09375 288.1875 C 319.57245 288.18805 320.03438 288.18594 320.5 288.21875 C 324.05 291.59375 326.8875 295.6 329.0625 300 C 326.5125 304.75 324.125 311.5 317.75 311.875 C 310.425 313.875 301.9625 307.83125 303.3125 299.90625 C 303.54688 291.82031 311.91327 288.17926 319.09375 288.1875 z M 879.8125 297.96875 C 877.8125 350.41875 873.5 402.7 870.875 455.125 C 867.725 492.7 866.9625 530.44375 863.4375 567.96875 C 865.2875 570.36875 867.19375 572.7875 869.09375 575.1875 C 867.69375 586.5125 872.04375 600.84375 862.09375 609.21875 C 854.74375 610.11875 847.31875 609.54375 839.96875 609.59375 C 695.79375 608.71875 551.6125 608.23125 407.4375 607.90625 C 394.4625 607.75625 381.475 608.2625 368.5 607.3125 C 368.7 596.7625 368.7125 586.2375 368.5625 575.6875 C 373.4375 571.3125 378.3875 566.9875 383.4375 562.8125 C 378.7125 508.5375 375.6625 454.10625 371.1875 399.78125 C 369.5625 369.00625 366.0875 338.35 365.1875 307.5 C 369.7625 307.725 374.33125 307.98125 378.90625 308.28125 C 378.13125 330.63125 381.7125 352.7375 381.8125 375.0625 C 384.9875 395.6375 382.7375 416.5875 385.8125 437.1875 C 385.9625 460.7125 389.11875 484.0375 389.21875 507.5625 C 389.06875 528.4875 394.45 549.51875 390.125 570.34375 C 408.025 578.69375 428.14375 578.7875 447.46875 579.3125 C 509.16875 579.5875 570.85 579.34375 632.5 581.21875 C 690.85 582.54375 749.2625 580.7125 807.5625 583.0625 C 821.3625 581.0375 836.6625 583.95625 848.9375 576.03125 C 845.9625 564.28125 845.43125 551.85 847.78125 539.75 C 853.75625 460.175 860.45 380.63125 866.5 301.03125 C 870.925 299.98125 875.3625 298.94375 879.8125 297.96875 z M 823.1875 303.1875 C 833.46108 303.16245 843.75625 303.17813 854.03125 303.1875 C 849.75625 357.9875 845.59375 412.7875 841.34375 467.5625 C 839.89375 496.5125 835.9125 525.2875 835.6875 554.3125 L 831.96875 553.625 C 829.91875 551.625 827.8625 549.6 825.8125 547.625 C 825.7375 520.8 830.2375 494.28125 831.4375 467.53125 C 834.2875 441.68125 834.775 415.6375 837.875 389.8125 C 839.525 363.6625 841.65 337.5625 844.625 311.5625 C 838.55 310.6375 832.5375 311.375 828.4375 316.25 C 784.7875 317 741.125 316.2125 697.5 317.9375 C 603.375 318.4375 509.21875 318.4375 415.09375 319.5625 C 411.19375 319.4375 407.18125 319.9875 403.40625 318.8125 C 399.78125 315.4875 397.75625 310.8625 395.28125 306.6875 C 457.68125 306.1375 520.06875 305.48125 582.46875 305.53125 C 590.81875 305.65625 599.15 305.00625 607.5 304.65625 C 679.40312 304.30625 751.27241 303.36284 823.1875 303.1875 z M 348.4375 310.0625 C 348.7375 315.8625 349.08125 321.66875 349.40625 327.46875 C 336.95625 330.54375 324.56875 334.0125 312.09375 337.0625 C 307.56875 338.4125 301.7375 339.18125 299.6875 344.15625 C 292.3875 370.38125 291.725 397.925 294 424.875 C 300.225 448.5 302.36875 473.6125 314.09375 495.4375 C 325.51875 520.2375 337.2375 544.91875 348.1875 569.96875 C 353.7125 580.84375 351.20625 593.3375 351.65625 605.0625 C 353.43125 607.1125 355.2375 609.20625 357.0625 611.28125 L 356 619.75 C 348.975 608.275 345.9125 595 339.1875 583.375 C 329.7125 566.475 324.88125 547.23125 313.65625 531.28125 C 306.88125 521.45625 305.6375 509.275 300.6875 498.625 C 295.0875 486.85 296.075 472.85 288.125 462.125 C 280.125 439.85 284.51875 415.6875 283.34375 392.5625 C 282.84375 384.1375 285.6375 375.9 284.8125 367.5 C 284.1875 361.225 284.24375 354.6375 286.59375 348.6875 C 291.96875 341.8875 297.93125 335.525 303.03125 328.5 C 307.13125 328.525 311.25 328.5375 315.375 328.5625 C 325.425 320.6875 337.6125 316.6375 348.4375 310.0625 z M 900.4375 310.34375 C 907.9875 327.74375 915.83125 345.03125 927.15625 360.40625 C 934.03125 373.83125 948.96875 379.84375 957.96875 391.21875 C 958.94375 406.74375 959.81875 422.31875 960.96875 437.84375 C 953.76875 439.44375 947.1875 442.89375 943.5625 449.59375 C 942.6125 459.01875 941.2 468.39375 939.5 477.71875 C 940.15 480.46875 940.78125 483.2875 941.40625 486.0625 C 942.70625 486.7875 945.3625 488.18125 946.6875 488.90625 C 946.3875 493.55625 946.09375 498.2625 945.84375 502.9375 C 928.14375 505.8625 911.39375 512.2 895.59375 520.5 C 889.54375 528.325 890.8625 539.975 883.8125 547.5 C 882.7625 529.925 886.375 512.58125 886.25 495.03125 C 890.05 435.15625 893.85625 375.2375 897.15625 315.3125 C 897.38125 313.2125 899.2875 311.94375 900.4375 310.34375 z M 277.5 318.0625 C 284.53295 317.95108 290.45859 325.6125 288.125 332.5 C 286.775 337.55 281.4125 339.2375 277.4375 341.6875 C 272.9625 339.6125 268.8625 336.825 265.5625 333.125 C 265.7875 327.075 267.83125 318.59375 275.28125 318.34375 C 276.02422 318.15625 276.77245 318.07403 277.5 318.0625 z M 777.25 323.03125 C 795.27148 323.01211 813.29375 323.0625 831.3125 323.1875 C 827.0125 374.6625 823.54375 426.16875 818.71875 477.59375 C 818.36875 497.59375 813.975 517.45 816.375 537.5 C 818.225 544.35 811.8125 550.4875 805.0625 549.4375 C 745.8875 549.2625 686.68125 548.725 627.53125 546.875 C 559.23125 546.35 490.9625 544.8125 422.6875 543.4375 C 418.7625 543.0875 416.2125 538.7625 416.8125 535.0625 C 417.0625 513.3625 417.0125 491.625 415.3125 470 C 412.9625 454.275 414.65 438.2625 412.25 422.5625 C 410.575 409.2875 412.03125 395.84375 410.03125 382.59375 C 407.30625 363.89375 410.56875 344.63125 405.84375 326.15625 C 427.19375 324.78125 448.5875 325.7625 469.9375 325.4375 C 518.2875 323.9125 566.6875 324.43125 615.0625 323.78125 C 669.1375 323.65 723.18555 323.08867 777.25 323.03125 z M 350.71875 340.71875 C 355.49375 410.41875 360.70625 480.04375 365.78125 549.71875 C 362.90625 552.16875 360.0375 554.6875 357.1875 557.1875 C 345.4875 532.8625 334.4875 508.1625 323.0625 483.6875 C 315.3625 468.8375 314.175 451.8625 309.875 435.9375 C 302.1 408.2125 305.0625 378.7625 311.4375 351.0625 C 324.4375 347.2375 337.51875 343.74375 350.71875 340.71875 z M 258.09375 357.6875 C 258.69351 357.65352 259.3125 357.69063 259.96875 357.8125 C 268.59375 356.4875 274.3 367.925 269.25 374.5 C 266.35 380.8 258.775 378.90625 253.25 379.15625 C 250.225 374.75625 248.425 369.825 248.125 364.5 C 250.99062 361.67813 253.89546 357.92539 258.09375 357.6875 z M 973.40625 395.0625 C 986.33125 395.6625 999.2375 396.7375 1012.0625 398.5625 C 1007.9125 415.8875 1004.05 433.29375 1001 450.84375 C 992.975 449.44375 984.88125 448.73125 976.78125 448.15625 C 974.55625 430.55625 973.48125 412.8125 973.40625 395.0625 z M 263.8125 400.9375 C 268.27017 400.91622 272.77188 403.60938 274.59375 407.90625 C 279.59375 417.00625 266.64375 428.25 258.34375 421.75 C 251.39375 418.2 251.28125 406.55 258.03125 402.75 C 259.78906 401.52344 261.78629 400.94717 263.8125 400.9375 z M 266.0625 446.59375 C 272.57667 446.51589 279.05078 453.12109 277 460.09375 C 276.55 469.54375 262.5375 472.40625 257.4375 465.03125 C 253.9375 460.00625 254.70625 451.175 260.78125 448.375 C 262.42734 447.16641 264.23853 446.61555 266.0625 446.59375 z M 959.5625 453.1875 C 977.9375 453.3625 996.49255 460.20625 1014.7188 456.28125 C 1013.6187 465.95625 1012.6938 475.7375 1010.2188 485.1875 C 1003.2938 493.3875 991.5375 490.2375 982.3125 489.4375 C 972.0375 489.3625 964.9625 481.20625 957.6875 475.15625 C 958.3875 467.83125 959.0875 460.5125 959.5625 453.1875 z M 960.8125 491.0625 C 969.2625 493.1375 977.81875 494.6875 986.34375 496.4375 C 986.11875 498.5625 985.7 502.8125 985.5 504.9375 C 984.65 508.6125 983.875 512.26875 983.125 515.96875 C 987.85 517.79375 992.64375 519.38125 997.46875 520.90625 C 1000.1437 519.98125 1002.8375 519.0625 1005.5625 518.1875 C 1007.2625 513.2125 1010.2062 507.9625 1007.9062 502.6875 C 1004.9562 500.5125 1001.8125 498.6125 999.1875 496.0625 C 1002.2625 495.8625 1005.3375 495.6875 1008.4375 495.5625 C 1009.6625 501.3625 1007.4937 510.075 1014.3438 512.875 C 1024.7188 516.725 1036.4625 519.325 1043.6875 528.5 C 1050.3375 539.45 1048.5375 552.80625 1047.1875 564.90625 C 1045.7125 575.88125 1047.25 587.0875 1044.875 597.9375 C 1043.525 603.2125 1043.95 608.6625 1044 614.0625 C 1018.4 626.9125 988.81875 627.99375 960.84375 625.21875 C 953.59375 623.61875 947.11875 629.78125 939.84375 627.53125 C 921.94375 624.53125 904.5875 618.7875 887.4375 612.9375 C 889.6875 594.7875 894.625 577.0125 900.75 559.8125 C 903.575 544.2375 909.8875 527.98125 923.0625 518.40625 C 928.6375 517.70625 934.31875 518.925 939.84375 517.75 C 946.44375 514.875 952.53125 510.79375 958.28125 506.46875 C 960.23125 501.59375 960.1875 496.2125 960.8125 491.0625 z M 276.25 492.84375 C 283.53024 492.50163 290.9375 499.23438 288.125 507.28125 C 285.125 517.70625 270.4625 516.39375 265.6875 508.09375 C 266.3375 503.46875 265.85625 497.7875 270.40625 494.9375 C 272.2 493.60859 274.21153 492.93954 276.25 492.84375 z M 298.0625 542.9375 C 305.96308 542.55396 313.8375 551.33359 309.28125 558.90625 C 307.10625 565.03125 300.01875 565.4625 294.59375 564.3125 C 285.89375 561.5125 286.025 548.03125 293.75 544.15625 C 295.13672 543.39062 296.59943 543.00853 298.0625 542.9375 z M 241.25 573.21875 C 242.91367 573.23438 244.6125 573.5125 246.25 574.09375 C 255.025 577.34375 263.56875 581.1375 272.21875 584.6875 C 279.56875 587.0625 281.78125 595.625 288.28125 599.25 C 295.95625 604.025 304.10625 608.1375 312.53125 611.4375 C 310.95625 618.2125 308.23125 625.16875 310.65625 632.09375 C 299.43125 624.14375 288.9125 615.2375 277.9375 606.9375 C 271.8125 602.6625 271.4125 593.9375 265.8125 589.3125 C 254.1625 584.8875 241.6125 583.7375 229.5625 580.6875 C 231.56875 575.64375 236.25898 573.17188 241.25 573.21875 z M 315.75 578 C 322.15756 577.80909 328.56875 582.9 327.1875 589.96875 C 328.2875 600.64375 311.96875 603.21875 307.09375 595.21875 C 304.01875 589.79375 305.5375 581.90625 311.4375 579.03125 C 312.82031 578.38437 314.27133 578.04406 315.75 578 z M 234.875 603.875 C 235.69502 603.82451 236.55625 603.86875 237.46875 604.0625 C 243.81875 605.6125 252.66875 609.49375 251.59375 617.46875 C 252.64375 625.76875 242.23125 631.2125 235.28125 627.6875 C 229.03125 626.1125 225.48125 620.5875 223.28125 614.9375 C 225.6 610.08125 229.13486 604.22842 234.875 603.875 z M 336.21875 617.625 C 341.80859 617.78789 347.28125 621.18125 347 627.5 C 348.85 636.8 336.9625 642.8625 329.8125 637.6875 C 323.3375 633.4625 323.8625 622.0625 330.8125 618.5625 C 332.49375 617.8875 334.35547 617.5707 336.21875 617.625 z M 375.78125 623.09375 C 536.85625 623.96875 697.925 624.40625 859 625.15625 C 854.15 724.43125 841.40625 823.20625 833.40625 922.28125 C 828.53125 919.30625 823.78125 914.88125 817.65625 915.78125 C 798.40625 916.03125 779.1625 916.35625 759.9375 916.78125 C 722.5625 919.15625 685.0625 917.9125 647.6875 920.0625 C 560.4125 921.9375 473.125 924.2125 385.875 926.5625 C 383.375 910.3125 383.93125 893.85625 382.90625 877.53125 C 380.58125 860.15625 381.88125 842.5625 379.65625 825.1875 C 377.03125 767.6625 373.30625 710.14375 370.65625 652.59375 C 369.58125 642.41875 372.40625 632.56875 375.78125 623.09375 z M 878.78125 624.1875 C 882.58125 627.6625 886.0125 631.7375 890.5625 634.3125 C 919.0875 647.8625 951.19375 651.3625 982.46875 650.5625 C 1005.6938 648.6875 1027.9688 641.0375 1049.7188 633.0625 C 1047.9434 650.8375 1042.1625 667.94375 1040.4375 685.71875 C 1021.4875 690.59375 1002.575 698.93125 982.625 696.65625 C 965.125 695.43125 947.4875 696.6625 930.0625 694.6875 C 911.1125 690.2625 892.25 685.45 873.375 680.75 C 876.4 662 874.83125 642.7375 878.78125 624.1875 z M 281.6875 626.40625 C 282.60966 626.41072 283.55625 626.56406 284.53125 626.90625 C 294.00625 630.58125 300.525 644.18125 292.875 652.53125 C 289.85 657.30625 283.4375 657.65625 278.5625 656.03125 C 270.5625 650.70625 270.45 640.0125 271 631.4375 C 274.16875 629.14219 277.69149 626.38689 281.6875 626.40625 z M 354.25 671.40625 C 356.55 683.75625 356.28125 696.35 356.65625 708.875 C 330.70625 709.35 304.825 711.08125 278.875 711.15625 C 274.4 699.05625 276.9625 685.825 275.3125 673.25 C 301.4625 670.425 327.975 672.03125 354.25 671.40625 z M 873.4375 687.96875 C 890.6375 692.04375 907.6125 697.1375 924.9375 700.8125 C 949.0625 702.8375 973.3125 703.7375 997.5625 703.5625 C 1006.6375 703.1625 1015.325 700.0875 1024.125 698.0625 C 1023.975 706.3625 1023.8 714.70625 1023.5 723.03125 C 1011.15 727.30625 997.9125 727.53125 985.0625 729.15625 C 957.0375 732.78125 928.025 732.36875 900.75 724.34375 C 890.75 721.66875 881.5 715.21875 870.75 716.84375 C 871.275 707.19375 871.6625 697.49375 873.4375 687.96875 z M 339.46875 725.75 C 337.31875 734.6 333.4125 743.30625 333.6875 752.53125 C 335.4875 760.30625 340.5375 766.8125 342.8125 774.4375 C 342.8625 778.6625 341.1875 782.75625 340.4375 786.90625 C 331.8625 786.93125 323.425 785.6 315.125 783.625 C 318.975 775.175 324.23125 767.04375 325.28125 757.59375 C 326.28125 747.04375 326.03125 736.41875 326.28125 725.84375 C 330.68125 725.79375 335.06875 725.775 339.46875 725.75 z M 358.3125 725.8125 C 358.4125 731.5625 358.5875 737.35625 358.6875 743.15625 C 355.6875 743.38125 352.69375 743.59375 349.71875 743.84375 C 348.41875 745.71875 347.15 747.5625 345.875 749.4375 C 348.825 741.8375 350.8625 733.95625 352.0625 725.90625 C 354.1375 725.85625 356.2125 725.8125 358.3125 725.8125 z M 310.3125 735.3125 C 311.0625 736.3125 312.525 738.34375 313.25 739.34375 C 312.925 747.19375 313.5875 755.3625 310.5625 762.8125 C 306.7375 772.8125 299.2125 782.01875 300.4375 793.34375 C 315.3625 799.24375 332.45625 797.2625 346.78125 804.5625 C 340.18125 806.2375 336.23125 811.78125 332.40625 816.90625 C 328.03125 811.75625 324.70625 804.675 317.65625 802.75 C 309.58125 799.8 301.25 797.4125 293.625 793.3125 C 297.15 788.5625 296.5125 782.775 295.9375 777.25 C 294.9375 770.575 299.26875 764.95625 301.96875 759.28125 C 306.39375 751.90625 306.7875 743.0375 310.3125 735.3125 z M 873.6875 739.78125 C 881.5875 744.20625 889.2125 749.4 898.0625 751.75 C 928.8625 759.35 960.95625 759.85625 992.28125 755.53125 C 1003.1062 752.98125 1013.1 747.8 1023.875 745.125 C 1018.2 774.4 1020.3562 805.03125 1009.9062 833.40625 C 1007.2563 839.78125 1004.8938 847.90625 997.46875 850.15625 C 979.84375 856.18125 960.875 856.3125 942.5 858.1875 C 922.65 855.4625 901.38125 854.55625 884.15625 843.15625 C 878.75625 839.43125 870.4625 835.33125 871.5625 827.53125 C 871.3625 798.23125 874.4875 769.08125 873.6875 739.78125 z M 285.1875 743.875 C 290.53818 743.90797 295.92656 747.22656 296.5625 752.8125 C 299.5625 765.0125 280.71875 774.2 272.84375 764.5 C 268.11875 758.4 271 748.5375 278.375 745.9375 C 280.33594 744.5 282.75537 743.86002 285.1875 743.875 z M 353.625 765.15625 C 355.3 765.48125 358.66875 766.14375 360.34375 766.46875 C 361.34375 779.99375 360.9 793.6375 362 807.1875 C 356.8 805.5125 351.5625 803.9125 346.0625 803.8125 C 351.7375 792.0125 360.05 778.30625 353.625 765.15625 z M 273.96875 791.8125 C 280.73543 791.31522 287.96094 797.92188 286.125 805.1875 C 285.225 814.1125 272.45625 817.5 266.90625 810.875 C 262.05625 806.25 262.94375 797.5875 268.59375 794.0625 C 270.20703 792.67344 272.07408 791.95174 273.96875 791.8125 z M 307.875 813.1875 C 314.09848 813.22471 320.22188 818.4 319.53125 825.0625 C 320.70625 835.5125 305.85625 841.0125 299.40625 833.1875 C 293.15625 827.5875 296.125 816.88125 303.625 814.03125 C 304.98906 813.44531 306.43881 813.17891 307.875 813.1875 z M 354.9375 823.53125 C 360.79428 823.61741 366.83281 828.75625 366.4375 834.9375 C 367.3875 843.4625 358.58125 851.4625 350.15625 848.8125 C 340.38125 845.9375 340.5875 830.975 348.5625 826 C 350.39766 824.24219 352.64572 823.49754 354.9375 823.53125 z M 859.09375 839.96875 C 867.86875 845.61875 877.18125 850.3375 886.28125 855.4375 C 888.60625 865.0125 883.4125 874.9875 883.5625 884.8125 C 885.5125 891.1375 889.9375 896.7 895.8125 899.875 C 895.5375 908.5 894.5875 917.05 893.6875 925.625 C 886.5875 930.425 881.5125 937.3875 876.3125 944.0625 C 867.1125 944.2625 857.89375 944.2625 848.71875 944.0625 C 853.01875 909.4875 855.81875 874.69375 859.09375 839.96875 z M 1035.5625 840.40625 C 1040.6125 841.05625 1045.7421 841.2875 1050.7188 842.4375 C 1054.4921 844.3625 1052.7375 849.0625 1053.3125 852.4375 C 1054.0125 871.0125 1049.35 889.45 1043.75 907 C 1038.575 906.05 1033.4375 905.0625 1028.3125 904.0625 C 1035.5625 883.5375 1033.5875 861.70625 1035.5625 840.40625 z M 906.65625 860.8125 C 916.35625 861.3125 925.8375 863.5125 935.4375 864.9375 C 945.2125 866.3875 954.99375 864.1875 964.71875 863.1875 C 963.39375 874.2875 960.025 884.95625 957.875 895.90625 C 941.45 896.98125 925.2375 893.1625 908.8125 893.8125 C 906.9625 890.8875 905.10625 887.9625 903.28125 885.0625 C 904.38125 876.9875 905.85625 868.9375 906.65625 860.8125 z M 1013.3125 863.6875 C 1012.6125 868.9625 1012.0375 874.2625 1011.6875 879.5625 C 1001.4625 880.8125 991.09375 880.775 980.96875 878.75 C 982.14375 875.275 983.29375 871.7875 984.46875 868.3125 C 994.39375 869.4125 1003.8875 866.2625 1013.3125 863.6875 z M 931.40625 902.78125 C 935.85 902.78242 940.30625 902.875 944.75 903.0625 C 943.4 914.0125 940.91875 924.775 938.34375 935.5 C 932.61875 935.4 926.9125 935.3625 921.1875 935.3125 C 923.5375 924.5625 924.56875 913.5875 926.96875 902.8125 C 928.45 902.79375 929.925 902.78086 931.40625 902.78125 z M 824.71875 931.53125 C 833.46875 942.60625 832.38125 957.275 835.40625 970.375 C 838.08125 981.1 836.925 993.375 844.125 1002.5 C 843.5 1008.05 842.2375 1013.5375 840.8125 1018.9375 C 793.0375 1018.2875 745.19375 1019.1436 697.46875 1016.8438 C 648.29375 1016.4688 599.1125 1016.225 549.9375 1015.625 C 493.3125 1013.025 436.5625 1014.9375 379.9375 1012.9375 C 378.3125 1012.6625 375.0625 1012.0875 373.4375 1011.8125 C 380.3875 993.6125 385.5375 974.79375 392.0625 956.46875 C 393.9375 951.79375 394.225 946.7625 394.25 941.8125 C 487.025 940.6875 579.725 936.9375 672.5 935.4375 C 723.225 933.5875 773.99375 932.95625 824.71875 931.53125 z M 914.1875 941.84375 C 925.9125 942.39375 937.56875 944.1375 949.34375 943.6875 C 957.16875 954.5875 964.40625 966.13125 966.03125 979.78125 C 963.45625 986.08125 962.41875 993.03125 959.21875 999.03125 C 949.46875 1009.1313 936.25 1014.9875 922.75 1018.1875 C 916.225 1015.9375 909.3875 1014.5438 903.0625 1011.7188 C 897.9125 1008.6938 893.99375 1004.1125 889.59375 1000.1875 C 889.84375 989.9625 888.775 979.65625 890.25 969.53125 C 896.525 959.05625 906.8375 951.59375 914.1875 941.84375 z M 874.78125 954.15625 C 874.83125 964.90625 874.43125 975.65625 873.90625 986.40625 C 867.20625 986.40625 860.51875 986.4125 853.84375 986.4375 C 850.79375 976.0875 850.1375 965.2875 850.4375 954.5625 C 858.5625 954.4625 866.65625 954.35625 874.78125 954.15625 z M 375 1028.5625 C 409.125 1029.0875 443.28125 1029.1625 477.40625 1029.4375 C 534.90625 1031.8875 592.48125 1030.9178 650.03125 1031.8438 C 713.05625 1034.2686 776.20625 1033.2928 839.28125 1034.3438 C 835.18125 1056.1678 826.0875 1076.7375 820.8125 1098.3125 C 814.2875 1102.1875 808.1875 1108.4573 800.0625 1108.0312 C 737.6375 1105.7072 675.10625 1106.2314 612.65625 1105.5312 C 542.33125 1102.3564 471.83125 1105.15 401.53125 1101.625 C 392.90625 1077.2 383.475 1053.0375 375 1028.5625 z "
     transform="scale(0.8,0.8)"
     id="path10" />
  <path
     style="fill:#f4e5c1"
     d="M 432.375 178.0625 C 427.225 178.5125 420.59375 177.31875 417.09375 182.09375 C 412.04375 187.69375 407.775 193.9125 403.125 199.8125 C 404.25 217.3875 406.8375 234.8875 406.1875 252.5625 C 405.4375 259.0125 409.6625 264.33125 412.9375 269.40625 C 416.0875 273.80625 419.375 279.54375 425.625 279.09375 C 554.525 280.86875 683.475 280.65 812.375 281 C 825.95 281.8 833.68125 268.33125 842.03125 259.78125 C 845.75625 239.25625 842.275 217.74375 846.375 197.09375 C 835.9 189.66875 826.5625 177.14375 812.4375 178.09375 C 685.7625 178.04375 559.075 178.1625 432.375 178.0625 z M 439.46875 183.34375 C 443.00625 183.35313 446.5375 183.5 450.0625 183.4375 C 569.2125 183.4625 688.4125 183.50625 807.5625 183.40625 C 818.3125 182.48125 824.8625 192.8375 833.4375 197.5625 C 833.2375 217.7375 830.50625 237.8375 830.78125 258.0625 C 825.30625 263.3875 820.55 269.5625 814.25 273.9375 C 808.7 274.8375 803.04375 274.41875 797.46875 274.46875 C 674.71875 274.11875 551.9375 274.3 429.1875 273.875 C 424.5125 266.225 416.79375 259.5625 416.34375 250.0625 C 415.96875 233.9875 413.2875 218.0625 414.0625 201.9375 C 419.3125 196.1875 423.60625 189.65 428.90625 184 C 432.40625 183.45 435.93125 183.33437 439.46875 183.34375 z "
     transform="scale(0.8,0.8)"
     id="path16" />
  <path
     d="m 334.56,168.2 c 5.94,-5.14 10.62,-13.46 19.3,-13.88 24.08,-0.5 48.16,0.04 72.2,1.46 22.12,0.14 44.28,0.2 66.36,1.68 18.52,0.66 37.06,-0.44 55.54,1.04 30.14,2.14 60.52,-0.6 90.54,3.3 5.88,2.06 10.96,6.02 15.52,10.22 1.08,7.5 0.7,15.3 0.26,22.88 -4.54,7.5 -9.8,17.78 -20.14,16.9 -92.08,0.06 -184.16,-0.04 -276.22,0.04 -8.54,0.14 -17.54,-3.4 -22.86,-10.24 2.6,-10.96 -1.46,-22.22 -0.5,-33.4 z"
     id="path20"
     inkscape:connector-curvature="0"
     style="fill:#f4e5c1" />
  <path
     style="fill:#f4e5c1"
     d="M 1008.8438 228.84375 C 1001.9826 228.82077 995.10312 229.76094 988.4375 231.78125 C 963.0625 238.63125 942.31875 259.6375 935.46875 284.9375 C 929.61875 307.5625 933.8125 332.9125 948.4375 351.4375 C 970.2125 381.2875 1014.7312 390.2625 1046.5312 371.5625 C 1079.6063 353.8625 1094.8813 309.60625 1079.1562 275.40625 C 1068.0656 247.25313 1038.5755 228.94333 1008.8438 228.84375 z M 1005.25 240.21875 C 1014.5625 240.20532 1023.8438 241.8125 1032.2188 246.03125 C 1055.4938 256.48125 1071.4188 281.8125 1069.5938 307.4375 C 1069.7687 336.0375 1047.7812 362.26875 1020.1562 368.59375 C 998.53125 374.34375 974.1875 367.21875 958.5625 351.34375 C 942.5375 335.71875 935.525 311.29375 941.25 289.59375 C 946.575 266.44375 965.70625 247.55625 988.65625 241.78125 C 994.075 240.81563 999.6625 240.22681 1005.25 240.21875 z "
     transform="scale(0.8,0.8)"
     id="path24" />
  <path
     d="m 789.14,430.82 c 11.16,-2.32 22.74,-1.26 34.06,-0.92 0.8,5.02 1.56,10.06 2.18,15.1 -11.32,3.2 -24.02,3.28 -34.16,-3.36 -0.56,-3.64 -1.28,-7.24 -2.08,-10.82 z"
     id="path58"
     inkscape:connector-curvature="0"
     style="fill:#f4e5c1" />
  <path
     style="fill:#f4e5c1"
     d="M 785.09375 630.34375 C 783.40586 630.35703 781.74375 630.38125 780.0625 630.375 C 673.3875 630.55 566.7375 630.7875 460.0625 630.9375 C 453.2125 631.0375 446.24375 630.48125 439.46875 631.78125 C 434.49375 634.03125 431.6375 639.06875 428.0625 642.96875 C 429.2625 668.29375 428.85 693.65 429 719 C 434.7 724.2 439.9375 730.76875 447.5625 733.21875 C 454.9625 734.34375 462.525 733.7375 470 733.8125 C 575.9 733.4375 681.80625 733.4875 787.65625 731.5625 C 791.28125 731.3875 794.75 730.325 798.25 729.375 C 801.725 718.225 801.2625 706.49375 803.0625 695.09375 C 804.5125 675.91875 807.975 656.8 806.875 637.5 C 807.45 633.725 803.48125 631.3125 800.28125 631.0625 C 795.25625 630.29375 790.15742 630.30391 785.09375 630.34375 z M 777.125 635.65625 C 782.28506 635.65332 787.41562 635.77813 792.5625 636.125 C 798.1125 636.525 795.68125 643.9625 796.15625 647.6875 C 794.08125 662.5625 793.5 677.5625 791.5 692.4375 C 790.85 703.8375 790.1625 715.4375 786.3125 726.3125 C 734.8375 726.1625 683.38125 726.75 631.90625 726.625 C 636.83125 721.05 643.4125 715.58125 643.5625 707.53125 C 644.5625 698.33125 637.91875 690.9875 631.71875 685.1875 C 631.14375 670.5375 633.10625 655.94375 633.53125 641.34375 C 622.10625 636.51875 609.68125 640.89375 598.40625 644.09375 C 601.78125 656.64375 603.73125 669.525 606.28125 682.25 C 609.18125 691.075 598.0125 696.2625 598.9375 704.9375 C 597.6375 714.6125 605.325 721.6875 612.5 726.6875 C 590.85 726.9625 569.21875 726.9875 547.59375 727.0625 C 532.46875 726.8875 517.30625 729.38125 502.28125 726.78125 C 510.85625 723.08125 517.8 714.70625 516.625 704.90625 C 517.675 695.75625 509.78125 689.8375 505.90625 682.5625 C 505.23125 670.2625 505.6875 657.925 505.9375 645.625 C 493.5875 639.4 485.675 652.3 477.875 659.5 C 478.4 667.3 479.18125 675.1 480.90625 682.75 C 475.80625 688.3 469.4375 694.2125 470.5625 702.5625 C 469.0625 714.0875 478.2 722.775 487.5 727.75 C 476.3 728.175 465.05625 728.9375 453.90625 727.9375 C 449.25625 725.2125 445.48125 721.3 441.40625 717.875 C 441.43125 694.4 440.85 670.95 440.875 647.5 C 440.525 641.55 446.3125 635.775 452.3125 636.75 C 544.3375 636.75 636.375 636.025 728.375 636.25 C 728.475 651.05 728.7125 665.90625 731.1875 680.53125 C 725.9875 686.85625 719.44375 693.5875 720.71875 702.5625 C 719.84375 710.5375 725.85 716.20625 731 721.28125 C 738.1 721.43125 745.24375 722.125 752.34375 721.375 C 760.26875 717.725 765.625 708.7875 764.25 699.9375 C 764.65 691.0875 757.63125 684.875 751.03125 680.25 C 750.98125 665.575 751.4625 650.9 751.3125 636.25 C 759.89062 636.01562 768.5249 635.66113 777.125 635.65625 z M 738.75 639.8125 C 738.975 646.4625 738.95 653.1375 738.75 659.8125 C 738.575 653.1375 738.5 646.4625 738.75 639.8125 z M 620.8125 645.9375 C 620.3875 658.2625 620.86875 670.60625 619.96875 682.90625 C 616.39375 671.03125 613.63125 658.9625 611.15625 646.8125 C 614.35625 646.5125 617.5875 646.2125 620.8125 645.9375 z M 493.75 655.6875 C 492.95 663.4375 492.91875 671.2625 493.21875 679.0625 C 492.86875 678.9875 492.1625 678.8625 491.8125 678.8125 C 491.8125 673.2125 491.3875 667.6 490.1875 662.125 C 491.3625 659.975 492.55 657.8125 493.75 655.6875 z M 492.875 695.8125 C 499.12275 695.58553 505.58594 700.78906 504.375 707.625 C 505.025 715.575 494.7125 721.425 488.1875 717 C 480.7875 713.675 480.79375 701.125 487.84375 697.375 C 489.38594 696.37969 491.12563 695.87605 492.875 695.8125 z M 741.03125 700.3125 C 748.7237 700.44214 756.5 708.99219 751.5 716.375 C 747.225 723.875 737.44375 720.975 730.96875 718.5 C 731.19375 712.95 729.15 705.90625 734.875 702.40625 C 736.73438 700.91328 738.87736 700.2762 741.03125 700.3125 z M 620.34375 701.28125 C 624.33325 701.05273 628.51562 702.95313 631 706.25 C 632.125 710.3 631.50625 714.60625 631.53125 718.78125 C 629.40625 720.35625 627.2875 721.9625 625.1875 723.5625 C 623.2375 723.5625 619.325 723.5375 617.375 723.5625 C 615.25 721.9375 613.13125 720.35 611.03125 718.75 C 611.50625 713.975 608.95625 707.30625 613.78125 704.15625 C 615.6375 702.32812 617.95005 701.41836 620.34375 701.28125 z "
     transform="scale(0.8,0.8)"
     id="path76" />
  <path
     style="fill:#f4e5c1"
     d="M 700.84375 788.78125 C 693.04305 788.84547 685.20156 789.31094 677.46875 789.34375 C 650.91875 792.36875 624.1375 790.15625 597.5625 792.90625 C 576.7625 793.90625 555.86875 793.2125 535.09375 795.1875 C 526.71875 796.1625 517.88125 794.5125 509.78125 797.1875 C 504.18125 802.6375 500.56875 809.8125 495.96875 816.0625 C 492.31875 820.7375 493.9625 827.05 493.5625 832.5 C 494.0125 846.35 492.9125 860.2625 494.0625 874.0625 C 497.5875 882.7125 503.7875 890.80625 511.8125 895.78125 C 551.0875 899.55625 590.7125 897.41875 630.0625 900.46875 C 662.6375 900.34375 695.1375 902.3375 727.6875 903.0625 C 734.8125 904.2375 739.1375 897.6625 743.8125 893.5625 C 743.8375 863.0125 743.88125 832.45 743.78125 801.875 C 739.70625 798.275 735.98125 793.7625 730.53125 792.3125 C 720.85625 789.275 710.87322 788.69869 700.84375 788.78125 z M 719.8125 800.6875 C 723.7125 800.7375 727.3375 802.4875 730.9375 803.8125 C 730.1125 828.4625 730.90625 853.1 730.65625 877.75 C 731.35625 883.425 726.825 887.34375 723.625 891.34375 C 653.225 888.91875 582.80625 887.025 512.40625 884.875 C 506.23125 884.675 506.5625 876.9375 504.9375 872.5625 C 503.1125 859.3875 504.24375 845.9375 504.34375 832.6875 C 504.39375 823.4625 510.3625 816.15625 515.0625 808.78125 C 544.1125 805.40625 573.4375 807.3125 602.5625 804.5625 C 641.6875 804.0375 680.6875 801.3125 719.8125 800.6875 z "
     transform="scale(0.8,0.8)"
     id="path108" />
  <path
     d="m 499.92,648.62 c 21.34,0.38 42.62,-1.9 63.96,-1.32 3.96,0.22 7.46,3.32 9.14,6.76 1.34,16.32 3.12,32.72 2.06,49.12 -23.74,-0.42 -47.46,-0.3 -71.2,-0.7 -27.92,-1.96 -55.94,-0.92 -83.9,-1.6 -1.88,-0.26 -5.84,0.24 -5.3,-2.88 0.4,-11.96 -1.96,-23.74 -1.88,-35.7 3.24,-3.52 6.08,-7.38 8.48,-11.52 26.12,-2.48 52.44,-1.38 78.64,-2.16 z"
     id="path114"
     inkscape:connector-curvature="0"
     style="fill:#f4e5c1" />
  <path
     style="fill:#f4e5c1"
     d="M 770.96875 943.90625 C 763.11748 943.87271 755.28438 943.95937 747.4375 944.34375 C 720.1125 948.19375 692.4125 945.075 664.9375 946.875 C 638.4625 950.225 611.7375 947.225 585.1875 949.125 C 556.9625 952.475 528.4375 948.9875 500.1875 951.8125 C 468.2875 955.0625 435.575 949.40625 404.125 957.03125 C 400.725 970.40625 395.49375 983.30625 392.84375 996.90625 C 423.94375 1003.0312 455.9375 1000.2625 487.4375 1000.9375 C 505.0375 1000.0875 522.43125 1003.6625 540.03125 1003.0625 C 568.38125 1003.4625 596.7625 1002.1625 625.0625 1004.3125 C 646.6625 1005.7125 668.35 1005.3062 690 1005.2812 C 708.375 1003.9312 726.63125 1007.5875 745.03125 1007.1875 C 771.23125 1008.8375 797.4 1006.7188 823.625 1007.3438 C 820.1 986.11875 813.96875 965.4875 810.21875 944.3125 C 797.14062 944.375 784.0542 943.96216 770.96875 943.90625 z M 790.6875 954.125 C 792.6792 954.11035 794.73438 954.875 796.25 956.125 C 803.6 961.075 803.54375 970.89375 805.84375 978.59375 C 806.94375 985.49375 811.2625 994.2875 805.1875 1000.0625 C 800.9375 1005.5125 793.4375 1004.0813 787.4375 1004.4062 C 761.6625 1003.7313 735.88125 1004.3313 710.15625 1002.2812 C 614.15625 1001.3063 518.1875 997.73125 422.1875 996.03125 C 412.6625 996.30625 406.65 986.05625 408.75 977.40625 C 409.3 966.73125 420.5 960.99375 430.125 961.84375 C 545.125 961.86875 660.15 961.86875 775.125 961.84375 C 780.325 962.36875 783.2625 957.3625 787.3125 955.0625 C 788.33437 954.44375 789.49248 954.13379 790.6875 954.125 z "
     transform="scale(0.8,0.8)"
     id="path134" />
  <path
     d="m 730.32,759.76 c 11.86,-4.22 26.94,-0.86 33.22,10.82 8.2,12.96 2.14,31.7 -11.86,37.76 -15.58,7.88 -36.98,-4.68 -37.04,-22.34 -1.32,-11.12 5.64,-21.84 15.68,-26.24 z"
     id="path136"
     inkscape:connector-curvature="0"
     style="fill:#f4e5c1" />
</svg>
