<?xml version="1.0" encoding="UTF-8" standalone="no"?>
<svg
   xmlns:dc="http://purl.org/dc/elements/1.1/"
   xmlns:cc="http://creativecommons.org/ns#"
   xmlns:rdf="http://www.w3.org/1999/02/22-rdf-syntax-ns#"
   xmlns:svg="http://www.w3.org/2000/svg"
   xmlns="http://www.w3.org/2000/svg"
   xmlns:sodipodi="http://sodipodi.sourceforge.net/DTD/sodipodi-0.dtd"
   xmlns:inkscape="http://www.inkscape.org/namespaces/inkscape"
   width="1280"
   height="1280"
   viewBox="0 0 1024 1024"
   version="1.1"
   id="svg2"
   inkscape:version="0.48.1 "
   sodipodi:docname="freezecam_sentry.svg">
  <metadata
     id="metadata58">
    <rdf:RDF>
      <cc:Work
         rdf:about="">
        <dc:format>image/svg+xml</dc:format>
        <dc:type
           rdf:resource="http://purl.org/dc/dcmitype/StillImage" />
      </cc:Work>
    </rdf:RDF>
  </metadata>
  <defs
     id="defs56" />
  <sodipodi:namedview
     pagecolor="#ffffff"
     bordercolor="#666666"
     borderopacity="1"
     objecttolerance="10"
     gridtolerance="10"
     guidetolerance="10"
     inkscape:pageopacity="0"
     inkscape:pageshadow="2"
     inkscape:window-width="1920"
     inkscape:window-height="1018"
     id="namedview54"
     showgrid="false"
     inkscape:snap-page="true"
     fit-margin-top="0"
     fit-margin-left="0"
     fit-margin-right="0"
     fit-margin-bottom="0"
     inkscape:zoom="0.6609375"
     inkscape:cx="466.00473"
     inkscape:cy="640"
     inkscape:window-x="-8"
     inkscape:window-y="-8"
     inkscape:window-maximized="1"
     inkscape:current-layer="layer1" />
  <g
     inkscape:groupmode="layer"
     id="layer1"
     inkscape:label="background">
    <rect
       style="fill:#3e3e3e;fill-opacity:1;fill-rule:nonzero;stroke:none"
       id="rect3043"
       width="1024"
       height="1024"
       x="0"
       y="0" />
  </g>
  <g
     inkscape:groupmode="layer"
     id="layer2"
     inkscape:label="foreground">
    <path
       style="fill:#f5e5c1"
       d="m 511.45,0 c -156.18,35.16 -312.4,70.1 -468.6,105.2 -9.16,2.1 -18.31,4.34 -27.65,5.6 4.34,37.04 6.76,74.31 12.8,111.15 6.3,40.5 11.64,81.18 18.5,121.6 9.64,48.58 18.95,97.24 28.75,145.8 9.82,40.5 19.61,80.99 29.65,121.45 12.7,42.52 25.58,85.04 38.5,127.5 13.7,37.58 28.09,74.88 41.95,112.4 3.86,10.86 9.5,20.95 14.6,31.25 22.18,44.34 44.35,88.71 66.55,133.05 233.56,-100.72 467.09,-201.57 700.65,-302.35 -10.52,-19.5 -21.02,-39 -31.5,-58.5 -4.72,-8.82 -9.97,-17.38 -13.15,-26.9 C 901.68,568.07 880.37,509.02 859.65,449.8 845.83,397.7 832.76,345.38 819.2,293.2 798.72,215.12 781.22,136.32 762.1,57.9 758.32,38.84 758.33,19.28 756.15,0 L 711.5,0 c 30.2,144.2 61.63,288.17 92.85,432.15 1.94,8.54 5.54,16.57 8.6,24.75 8.46,22.38 16.99,44.72 25.45,67.1 -61.62,21.06 -122.79,43.47 -184.75,63.45 -64.54,23.32 -129.43,45.71 -194.25,68.25 -83.28,28.94 -166.52,57.93 -249.8,86.85 -6.56,-12.2 -13.03,-24.44 -19.65,-36.6 -2.78,-5.02 -4.96,-10.35 -6.2,-15.95 C 155.67,571.88 127,453.89 99,335.75 89.04,274.57 79.94,213.28 70.1,152.1 68.94,147.26 69.66,142.34 71.2,137.7 271,92.14 470.65,45.94 670.35,0 L 511.45,0 z M 832.5,597.35 c 13.01368,0.13938 25.98875,3.8925 36.7,11.4 23.86,15.88 34.25,48.82 23.25,75.4 -11.68,30.2 -47.61,47.5 -78.65,39.3 -27.54,-6.36 -48.39,-33.17 -47.85,-61.45 -0.56,-28.9 20.79,-56.14 48.95,-62.6 5.72499,-1.40626 11.68469,-2.11336 17.6,-2.05 z m -95.9,48.2 c 6.68,4.04 13.37,8.09 20.05,12.15 -8.16,14.64 -16.37,29.18 -24.55,43.8 16.94,12.18 33.79,24.47 50.75,36.65 -6.78,8.44 -13.49,16.94 -20.25,25.4 -14.24,-10.56 -28.24,-21.43 -42.5,-31.95 -8.96,15.24 -17.73,30.58 -26.75,45.8 -8.26,-5.6 -16.59,-11 -24.85,-16.6 9.6,-15.78 19.13,-31.61 28.75,-47.35 -14.8,-10.66 -29.53,-21.38 -44.35,-32 6.38,-8.94 12.87,-17.79 19.35,-26.65 13.82,10.66 27.65,21.29 41.55,31.85 7.54,-13.72 15.24,-27.38 22.8,-41.1 z m -143.65,3.3 c 13.56131,0.13997 27.09125,4.1875 38.05,12.3 22.34,15.92 32.44,47.02 22.6,72.8 -11.38,32.54 -50.78,50.78 -83.2,39.9 -26.2,-7.92 -45.09,-34.49 -43.95,-61.85 0.14,-28.12 20.92,-54.31 48.2,-60.95 5.95,-1.52501 12.13576,-2.26362 18.3,-2.2 z m -92.7,81.7 c 0.54,16.7 1.62,33.35 2.4,50.05 20.8,1.16 41.6,2.51 62.4,4.15 -1.16,10.8 -2.39,21.62 -3.85,32.4 -17.5,-2.12 -35.12,-3.31 -52.7,-4.65 0.62,17.54 0.69,35.08 2.05,52.6 -10.08,0.04 -20.14,-0.24 -30.2,-0.4 -0.46,-18.56 -0.93,-37.14 -0.85,-55.7 -18.24,-0.98 -36.52,-1.9 -54.7,-3.7 0.64,-10.84 1.75,-21.64 2.15,-32.5 17.48,1.42 34.85,3.67 52.35,4.65 -0.98,-15.48 -1.9,-30.95 -2.7,-46.45 7.88,-0.36 15.77,-0.45 23.65,-0.45 z"
       id="path6"
       inkscape:connector-curvature="0" />
    <path
       d="m 670.36,0 41.14,0 c 30.2,144.2 61.64,288.16 92.86,432.14 1.94,8.54 5.52,16.6 8.58,24.78 8.46,22.38 16.98,44.72 25.44,67.1 -61.62,21.06 -122.78,43.46 -184.74,63.44 -64.54,23.32 -129.4,45.72 -194.22,68.26 -83.28,28.94 -166.56,57.9 -249.84,86.82 -6.56,-12.2 -13,-24.44 -19.62,-36.6 -2.78,-5.02 -4.98,-10.32 -6.22,-15.92 C 155.66,571.9 127.02,453.9 99.02,335.76 89.06,274.58 79.94,213.26 70.1,152.08 68.94,147.24 69.66,142.36 71.2,137.72 271,92.16 470.66,45.94 670.36,0 z"
       id="path8"
       style="fill:#3e3e3e"
       inkscape:connector-curvature="0" />
    <path
       d="m 777.48,0 246.52,0 0,793.1 c -156.92,41.8 -314.16,82.5 -471.14,124.08 -5.46,1.42 -11.1,1.96 -16.72,2.38 33.02,-15.8 66.8,-30.02 100.12,-45.16 C 752.52,822.46 868.8,770.58 985.04,718.62 967.98,685.78 949.8,653.5 933.38,620.36 912.62,564 891.42,507.78 871.3,451.2 849.42,353.84 828.38,256.28 806.78,158.84 796.5,106 787.74,52.84 777.48,0 z"
       id="path10"
       inkscape:connector-curvature="0"
       style="fill:#f5722c" />
    <path
       d="M 0,66.54 C 83.04,58.66 166,49.88 249.08,42.5 166.04,61.32 83.04,80.24 0,99.08 L 0,66.54 z"
       id="path12"
       inkscape:connector-curvature="0"
       style="fill:#f5722c" />
    <path
       d="m 0,194.08 c 5.7,38.06 9.96,76.32 15.6,114.38 19.18,103.12 38.58,206.22 57.76,309.34 2.68,14.12 7.7,27.64 11.7,41.44 15.36,50.5 30.74,101 46.1,151.5 2.9,9.48 5.24,19.24 9.92,28.06 25.32,47.48 50.3,95.14 75.6,142.62 10,15.2 22.86,28.26 34.04,42.58 L 0,1024 0,194.08 z"
       id="path14"
       inkscape:connector-curvature="0"
       style="fill:#f5722c" />
    <path
       d="m 641.9,208 c -12.86,0.86 -25.22,4.86 -37.8,7.4 -60.66,13.62 -121.39,26.88 -182.05,40.5 -8.44,2.1 -15.89,-3.74 -24.05,-4.6 -11.42,-0.1 -22.73,1.96 -33.75,4.9 -21.48,3.98 -43.45,5.61 -64.55,11.55 2.6,1.14 5.2,2.29 7.8,3.45 -0.06,0.76 -0.22,2.29 -0.3,3.05 -18.9,11.5 -40.7,21.75 -63.4,18.75 -0.66,-1.24 -1.99,-3.68 -2.65,-4.9 -11.32,3.82 -22.34,8.47 -33.3,13.15 -16.54,9.04 -32.65,18.93 -49.05,28.25 -0.76,4.1 -2.29,8.31 -0.85,12.45 12.64,50.72 24.24,101.7 37,152.4 5.56,2.82 10.79,6.4 16.75,8.3 7.34,0.94 14.77,0.69 22.15,0.95 11.54,0.44 22.68,-3.03 34,-4.65 12.2,-2.18 24.66,-3.47 36.4,-7.65 36.12,-11.56 72.62,-22.46 107,-38.7 -1.1,-5.82 -1.39,-12.03 -4.65,-17.15 -5.16,-8.62 -11.24,-17.15 -12.3,-27.45 -2.8,-10.06 1.68,-19.91 2.4,-29.85 0.06,-10.7 -3.05,-21.37 -1.75,-32.05 4.08,-6.66 10.31,-13.09 18.45,-14.15 18.94,-3.52 37.66,-8.21 56.7,-11.25 8.98,0.56 22.23,1.11 24.95,11.75 10,30.36 19.77,60.83 29.95,91.15 31.1,-4.58 62.03,-10.33 93.15,-14.85 4.26,-0.24 7.14,-3.73 10.2,-6.25 13.8,-12.62 27.84,-24.99 41.6,-37.65 -7.94,1.68 -16.08,2.73 -23.8,5.25 -8.24,6.66 -15.38,14.63 -22.9,22.05 -2.2,-1.68 -5.68,-2.65 -6,-5.85 -6.32,-24.74 -13.4,-49.26 -19.7,-74 -4.68,-18.74 -11.13,-37.09 -14.35,-56.15 17.02,-13.06 33.88,-26.33 50.7,-39.65 2.18,0.04 4.35,0.04 6.55,0.1 4.16,16.42 9.13,32.63 12.95,49.15 1.24,3.9 1.26,9.04 5.7,10.8 -1.48,-10.88 -4.73,-21.41 -6.95,-32.15 -3.18,-12.18 -4.23,-25.12 -10.25,-36.4 z m -277.5,52.35 c 2.08,0.24 4.12,0.44 6.2,0.6 0.7,3.32 1.43,6.65 2.25,9.95 -3.76,4.3 -8.21,7.99 -13.45,10.35 -7.22,3.4 -13.63,8.47 -21.15,11.25 -14.16,5.08 -27.84,11.34 -42.3,15.6 -21.42,7.62 -43.7,12.45 -65.6,18.45 -10.66,3.02 -21.69,4.52 -32.75,4.5 -2.04,-5.88 -3.91,-11.89 -4.95,-18.05 9.96,2.8 20.17,0.42 30.15,-1.1 36.68,-7.6 72.43,-19.15 107.75,-31.55 10.96,-4.62 22.24,-8.73 32.2,-15.35 0.42,-1.16 1.25,-3.49 1.65,-4.65 z"
       id="path16"
       style="fill:#f5e5c1"
       inkscape:connector-curvature="0" />
    <path
       d="m 710.5,268.75 c -10.68,1.36 -20.99,4.56 -31.55,6.6 -3.1,7.16 -5.71,14.69 -6.15,22.55 -1.18,13.16 2.81,25.97 5.25,38.75 0.62,2.7 -0.62,5.31 -1.3,7.85 l -5.45,-1.55 c -6.06,-11.32 -7.29,-24.26 -8.55,-36.8 -0.88,-9.4 0.37,-18.85 3.45,-27.75 -7.76,1.78 -15.55,3.51 -23.35,5.15 -3.5,0.86 -8.19,1.69 -9.05,5.95 -1.8,8.02 -4.13,16.4 -1.95,24.6 2.06,9.22 3.51,18.53 5.95,27.65 3.3,7.72 8.2,14.64 12,22.1 25.6,-3.52 51.02,-8.25 76.6,-11.85 3.88,-1.04 5.28,-5.35 5.9,-8.85 1.32,-10.38 1.92,-21.01 0,-31.35 -3.56,-15.76 -7.72,-33.23 -21.8,-43.05 z m -0.1,8 c 10.16,7.12 14.29,19.37 16.85,30.95 2.22,11.18 3.63,23.34 -0.75,34.2 -6.88,-2.82 -10.58,-9.45 -12.6,-16.25 -4.6,-14.74 -10.61,-30.33 -7.05,-45.95 0.9,-0.72 2.65,-2.21 3.55,-2.95 z"
       id="path20"
       style="fill:#f5e5c1"
       inkscape:connector-curvature="0" />
    <path
       d="m 464.7,335.35 c -0.9175,0.0549 -1.8225,0.2025 -2.7,0.45 -13.98,3 -28,5.85 -42,8.65 -4.46,1.1 -9.4,1.58 -13,4.7 -1.34,8.98 1.72,17.87 1.7,26.85 0.18,10.78 -5.49,21.36 -2.25,32.1 2.26,12.48 13.68,21.15 15.3,33.85 2.4,15.2 4.15,30.57 7.25,45.65 14.94,-2.52 30.04,-4 45,-6.4 12.34,-1.38 24.5,-4.63 37,-4.15 -8.84,2.52 -17.46,6.02 -26.6,7.3 -16.12,2.1 -32.31,3.59 -48.35,6.25 1.82,1.82 3.66,3.6 5.5,5.4 -7.8,10.24 -13.17,21.98 -19.95,32.8 13.4,0.08 22.82,11.39 27.2,22.95 1.04,5.7 0.1,11.51 0,17.25 4.7,-5.42 10.77,-10.24 12.65,-17.5 3.64,-13.58 12.41,-24.76 19.25,-36.8 4.02,-7.3 11.81,-11.1 17.65,-16.7 -5.7,-2.26 -13.25,-2.73 -16.25,-8.95 4.06,-0.42 8.37,0.51 12.35,-0.55 8.2,-4.28 17.62,-7.2 23.5,-14.8 1.32,-0.36 3.95,-1.04 5.25,-1.4 -0.98,-5.34 -1.76,-10.79 -3.5,-15.95 -13.14,-37.04 -26.55,-74 -39.55,-111.1 -2.0125,-6.1425 -9.0275,-10.28445 -15.45,-9.9 z m -22.9,17.25 c 6.84702,-0.27061 13.48125,3.48875 19.9,5.65 8.08,2.44 13.66,8.97 19.6,14.55 4.18,3.1 3.41,8.71 4.45,13.25 0.92,7.3 3.4,14.5 3.1,21.9 -4.94,17.88 -23.37,25.78 -39.15,31.8 3.18,-1.92 6.42,-3.84 9.7,-5.6 4.52,-5.6 9.49,-10.9 13.35,-17 5.9,-14.12 3.84,-32.09 -6.8,-43.45 -9.88,-7.24 -21.68,-12.54 -34.2,-12 -6.08,1.44 -11.79,4.08 -17.75,5.9 6.92,-5.8 14.68,-10.62 23,-14.1 1.60501,-0.5625 3.21992,-0.83755 4.8,-0.9 z"
       id="path24"
       style="fill:#f5e5c1"
       inkscape:connector-curvature="0" />
    <path
       d="m 385.6,468.8 c -26.28,7.86 -51.86,17.85 -77.6,27.25 8.28,4.52 15.73,10.61 24.35,14.45 8.12,-0.64 16.01,-5.03 24.05,-4.65 16.84,13.02 31.68,28.72 50.3,39.4 1.52,5.18 2.82,10.47 5,15.45 4.16,6.8 10.5,11.84 16.2,17.3 5.6,-1.62 11.18,-3.51 16.7,-5.45 0.84,-8.64 0.74,-17.82 -3.6,-25.6 -3,-6.12 -8.73,-10.04 -14.15,-13.8 -1.8,0.02 -5.4,0.13 -7.2,0.15 -3.62,3.4 -7.59,6.52 -12.85,6.8 4.84,-7.62 10.88,-14.3 16.4,-21.4 -16.42,-9.64 -32.69,-19.52 -49.25,-28.9 -2.22,3.76 -4.17,7.84 -7.25,11 -2.58,0.36 -5.15,0.22 -7.75,0.3 -1.96,-10.26 4.88,-19.55 12.1,-26.05 2.96,1 5.92,2.05 9,2.75 2.92,-2.08 3.79,-5.98 5.55,-9 z m 36.95,73.85 c 9.18603,-0.10042 14.00626,11.45626 14.1,19.5 0.56,6.52 -8.16,11.75 -12.9,6.35 -6.38,-6.06 -13.72,-20.46 -3.1,-25.7 0.65125,-0.11499 1.2876,-0.14331 1.9,-0.15 z"
       id="path28"
       style="fill:#f5e5c1"
       inkscape:connector-curvature="0" />
    <path
       d="m 569,472.72 c 0.44,-1.54 0.88,-3.08 1.34,-4.6 3.98,14.52 6.4,29.42 9.68,44.1 1.26,6.54 3.28,13 3.42,19.7 -1.26,3.54 -5.16,5.24 -8.28,6.86 -15.32,6.68 -32.48,8.72 -49.06,7.68 -3.82,0.34 -4.36,-4 -5.26,-6.7 -3.96,-14.12 -7.3,-28.44 -12.9,-42.02 -2.06,-3.04 1.74,-5.3 4.3,-5.34 13.74,-2.9 28,-4.76 40.74,-11.06 5.34,-2.9 10.56,-5.98 16.02,-8.62 z"
       id="path30"
       inkscape:connector-curvature="0"
       style="fill:#f5e5c1" />
    <path
       d="m 593.16,504.52 c 12.54,-0.46 28.36,-1.7 36.3,10.22 4.26,8.02 9.56,17.06 7.54,26.44 -7.36,9.66 -19.04,14.66 -29.38,20.48 -17.12,9.8 -36.52,14.48 -55.64,18.56 -13.52,4.8 -28.16,4.06 -42.1,1.82 -5.9,-1.18 -12.36,-2.86 -16.42,-7.62 -1.44,-10.1 -2.1,-20.3 -2.04,-30.5 3.92,-3.82 8.02,-7.48 12.68,-10.36 2.1,7.28 3.96,14.64 5.24,22.14 6.32,5.24 14.92,5.26 22.72,5.62 23.58,0.18 48.48,-4.8 66.72,-20.68 1.72,-4.1 0.92,-8.62 -0.22,-12.74 -2.18,-7.7 -3.64,-15.58 -5.4,-23.38 z"
       id="path32"
       inkscape:connector-curvature="0"
       style="fill:#f5e5c1" />
    <path
       d="m 582.96,589.62 c 26.3,-9.7 51.36,-23.7 71.68,-43.2 4.04,6.94 6.54,14.62 9.56,22.02 -26.4,9.64 -52.9,19.04 -79.26,28.88 -0.66,-2.58 -1.34,-5.14 -1.98,-7.7 z"
       id="path36"
       inkscape:connector-curvature="0"
       style="fill:#f5e5c1" />
    <path
       d="m 446.54,647.5 c 9.6,-20.3 18.94,-40.76 28.34,-61.16 13.64,5.04 27.52,10.16 42.12,11.3 9.4,0.98 18.84,0.54 28.28,0.7 -2.8,6.56 -4.78,15.44 -12.48,17.8 -28.78,10.4 -57.6,20.68 -86.26,31.36 z"
       id="path38"
       inkscape:connector-curvature="0"
       style="fill:#f5e5c1" />
    <path
       d="m 824.96,631.2 c 8.8,-1.62 18.28,-0.8 26.18,3.62 13.64,7.16 20.56,24.72 15.72,39.3 -4.66,15.6 -20.62,26.94 -36.92,25.96 -17.88,-0.14 -34.48,-16 -34.04,-34.16 -1.18,-16.92 12.68,-32.16 29.06,-34.72 z"
       id="path42"
       inkscape:connector-curvature="0"
       style="fill:#f5e5c1" />
    <path
       d="m 582.82,683.28 c 10,-2.52 21.12,-1.7 30.06,3.74 13.74,8.06 19.84,26.72 13.5,41.36 -6.96,18.26 -29.68,28.42 -47.82,20.76 -15.38,-5.76 -25.08,-22.88 -21.7,-39.06 2.26,-13.1 13.18,-23.74 25.96,-26.8 z"
       id="path48"
       inkscape:connector-curvature="0"
       style="fill:#f5e5c1" />
    <path
       d="M 518.14,937.94 C 592,920.84 665.6,902.6 739.54,885.88 680,932.38 619.8,978.04 559.84,1024 l -223.18,0 c 49.7,-23.9 99.18,-48.3 148.8,-72.32 10.68,-5.08 20.98,-11.34 32.68,-13.74 z"
       id="path52"
       inkscape:connector-curvature="0"
       style="fill:#f5722c" />
  </g>
</svg>
