<?xml version="1.0" encoding="UTF-8" standalone="no"?>
<svg
   xmlns:dc="http://purl.org/dc/elements/1.1/"
   xmlns:cc="http://creativecommons.org/ns#"
   xmlns:rdf="http://www.w3.org/1999/02/22-rdf-syntax-ns#"
   xmlns:svg="http://www.w3.org/2000/svg"
   xmlns="http://www.w3.org/2000/svg"
   xmlns:sodipodi="http://sodipodi.sourceforge.net/DTD/sodipodi-0.dtd"
   xmlns:inkscape="http://www.inkscape.org/namespaces/inkscape"
   width="1280"
   height="1280"
   viewBox="0 0 1024 1024"
   version="1.1"
   id="svg2"
   inkscape:version="0.48.1 "
   sodipodi:docname="freezecam_taunt.svg">
  <metadata
     id="metadata110">
    <rdf:RDF>
      <cc:Work
         rdf:about="">
        <dc:format>image/svg+xml</dc:format>
        <dc:type
           rdf:resource="http://purl.org/dc/dcmitype/StillImage" />
      </cc:Work>
    </rdf:RDF>
  </metadata>
  <defs
     id="defs108" />
  <sodipodi:namedview
     pagecolor="#ffffff"
     bordercolor="#666666"
     borderopacity="1"
     objecttolerance="10"
     gridtolerance="10"
     guidetolerance="10"
     inkscape:pageopacity="0"
     inkscape:pageshadow="2"
     inkscape:window-width="1920"
     inkscape:window-height="1018"
     id="namedview106"
     showgrid="false"
     inkscape:snap-page="true"
     inkscape:object-paths="false"
     inkscape:snap-nodes="true"
     fit-margin-top="0"
     fit-margin-left="0"
     fit-margin-right="0"
     fit-margin-bottom="0"
     inkscape:zoom="0.6609375"
     inkscape:cx="640"
     inkscape:cy="640"
     inkscape:window-x="-8"
     inkscape:window-y="-8"
     inkscape:window-maximized="1"
     inkscape:current-layer="layer2" />
  <g
     inkscape:groupmode="layer"
     id="layer1"
     inkscape:label="background"
     transform="translate(0,512)"
     style="display:inline">
    <rect
       style="fill:#3e3e3e;fill-opacity:1;fill-rule:nonzero;stroke:none"
       id="rect3156"
       width="1024"
       height="1024"
       x="0"
       y="-512" />
  </g>
  <g
     inkscape:groupmode="layer"
     id="layer2"
     inkscape:label="foreground"
     style="display:inline">
    <path
       transform="translate(0,512)"
       style="fill:#00ff00;fill-opacity:1;fill-rule:nonzero;stroke:none"
       d="m 538.65006,-512 229.80053,0 54.95231,244.6765 46.43027,222.160092 33.50033,85.220144 -203.66617,75.446944 -77.63869,27.0139 -208.16395,72.2504 -116.47578,37.89831 -104.46814,32.61875 -24.83139,-45.1079 L 130.90909,97.454544 129.45455,92.675328 84.155845,-99.012992 52.307536,-276.13938 35.263507,-376.34652 l 0.587725,-18.21947 7.640427,-4.40794 z"
       id="path3099"
       inkscape:connector-curvature="0" />
    <path
       transform="translate(0,512)"
       d="m 341.15,-512 c -76.34,16.7 -152.54,34.14 -228.8,51.2 -37.5,8.1 -74.73,17.34 -112.35,24.8 l 0,241.05 c 2.86,22.9 8.09,45.41 12.45,68.05 8.04,42.36 16.63,84.56 24.75,126.9 7.82,31.84 15.35,63.78 23.35,95.6 4.6,18.32 8.34,36.92 13.9,55 14,46.4 28.01,92.76 42.15,139.1 16.78,44.66 33.33,89.4 50.25,134 14.16,29.66 29.32,58.84 43.9,88.3 l 256.35,0 c 28.98,-11.56 57.4,-24.54 86.1,-36.8 C 710.18,407.68 866.92,339.6 1024,272.3 l 0,-75.05 c -5.8,-11.42 -13.02,-22.18 -17.4,-34.3 C 984.06,99.69 961.75,36.31 939.15,-26.95 931.59,-46.07 927.98,-66.38 922.4,-86.1 904.76,-155.42 886.57,-224.62 869.15,-294 c -15.74,-66.54 -31.6,-133.02 -47.5,-199.5 -1.24,-6.1 -1.71,-12.32 -2.35,-18.5 z"
       id="path6"
       style="fill:#f5e5c1"
       inkscape:connector-curvature="0"
       sodipodi:nodetypes="cccccccccccccccccccccc" />
    <path
       transform="translate(0,512)"
       style="fill:#3e3e3e;fill-opacity:1;fill-rule:nonzero;stroke:none"
       d="m 527.45,-512 c -164.84,37.58 -329.57,75.72 -494.35,113.6 -1.42,4.66 -2.36,9.56 -1.3,14.4 10.3,63.98 19.99,128.1 30.15,192.1 3.3,26.4 11.35,51.88 17.05,77.8 26.64,111.4 53.33,222.77 80.05,334.15 2.2,9.1 3.64,18.58 8.2,26.9 8.04,15.02 16.04,30.1 24.1,45.1 74.18118,-25.60034 148.3214,-51.35784 222.4,-77.25 0.0348,-0.012 0.065,-0.0378 0.1,-0.05 l 60.3,-20.95 c 0.1176,-0.028 0.23248,-0.0712 0.35,-0.1 6.35204,-1.55844 12.5522,-4.13338 18.8,-6.5 l 8,-2.8 0.5,-0.15 c 1.03738,-0.30328 2.10292,-0.59878 3.15,-0.85 -0.48054,0.0814 -0.9689,0.1864 -1.45,0.25 l 76.55,-26.6 c -0.0234,0.0464 -0.0266,0.1036 -0.05,0.15 4.79144,-1.73358 9.58948,-3.4234 14.4,-5.1 4.21398,-1.46868 8.4306,-2.9469 12.65,-4.4 l 2.9,-1 c 4.0349,-1.38968 8.0697,-2.79558 12.1,-4.2 l 2.9,-1 c 0.30354,-0.1064 0.59652,-0.24348 0.9,-0.35 l 51.76428,-17.28506 C 678.8633,123.42838 698.40088,115.9363 699.65,115.5 l 0.2,-0.1 C 769.77688,90.97658 839.85732,67.00498 909.7,42.35 897.66,11.77 886.43,-19.14 874.55,-49.8 c -3.8,-9.64 -5.37,-19.92 -7.55,-30 -28.48,-131.58 -57.36,-263.06 -85.1,-394.8 -2.8,-12.44 -5.28,-24.98 -8.2,-37.4 l -5.25,0 -3.8,0 -213.65,0 -12.35,0 z"
       id="path3109"
       inkscape:connector-curvature="0"
       sodipodi:nodetypes="cccccccccccccccccccscccccccccccccccccc" />
    <path
       transform="translate(0,512)"
       d="m 550.98,-512 213.68,0 c 10.66,52 21.34,104 32.02,156 2.62,8.54 -3.04,19.2 -12.58,19.16 -9.36,-0.62 -17.78,-5.28 -26.48,-8.36 -24.02,-8.68 -47.58,-18.6 -71.84,-26.6 -10.5,25.98 -21.66,51.68 -32.3,77.62 -4.74,11.78 -12.32,22.06 -19.18,32.66 -10.04,15.26 -19.96,30.62 -29.86,46 -6.04,9.68 -17.4,13.42 -26.84,18.8 -14.52,7.16 -28.14,16.34 -43.22,22.2 -4.32,-2.9 -7.7,-6.92 -11.2,-10.72 -9.96,-11.34 -20.7,-22.04 -30.08,-33.9 -6.96,-8.86 -14.96,-17.26 -25.02,-22.58 -7.32,-3.3 -15.4,-4.24 -23.16,-5.94 -12.26,-2.32 -24.4,-6.52 -37.04,-5.42 -9.86,0.14 -20.02,2.28 -29.7,-0.38 -10.88,-5.8 -7.72,-20.16 -5.3,-29.92 3.64,-13.44 20.04,-13.32 30.76,-17.7 -0.92,-3.78 -1.48,-7.7 -2.96,-11.32 -6.76,-5.18 -17.02,-6.4 -21.12,-14.58 -4.28,-14.38 -1.6,-30.04 -6.26,-44.34 -9.3,-9.02 -23.42,-11.82 -31.46,-22.38 -6.08,-7.58 -8.56,-17.64 -15.6,-24.46 -8.68,-4.76 -18.56,-7.34 -28.34,-8.66 -20.72,0.16 -41.02,6.36 -59.4,15.68 -14.66,9.48 -29.36,20.12 -37.98,35.76 -9.56,13 -5.22,30.28 -11.16,44.58 -4.5,8.22 -14.52,10.44 -22.3,14.44 0,9.06 0.4,18.14 1.5,27.14 12.44,5.72 26.98,9.22 35.26,21.1 4.58,2.42 10.12,4.4 12.3,9.58 3.7,7.68 7.46,15.86 7.44,24.56 -0.06,6.88 -7.66,9.62 -12.08,13.56 -0.34,6.3 -0.12,14.04 -6.3,17.78 -6.34,5.04 -13.58,-0.82 -20.14,-1.94 -10.62,3.06 -19.86,9.5 -29.14,15.3 -0.9,5.98 -0.64,13.28 -6,17.3 -11.22,7.88 -26.24,6.74 -37.82,13.86 -5.62,5.4 -4.7,13.88 -5.48,20.98 -1.44,15 -1.42,30.1 -2.34,45.16 -0.72,4.26 -0.22,9.5 -3.86,12.58 -4.22,1.82 -10.02,0.78 -11.64,-4.06 -2.74,-8.42 -2.8,-17.44 -4.58,-26.08 -14.7,-83.4 -28.82,-166.9 -43.22,-250.36 -1.32,-8.72 -3.96,-17.38 -3.68,-26.28 1.62,-7.94 9.76,-11.78 16.92,-13.42 63.26,-14.9 126.62,-29.3 189.82,-44.44 19.38,-6.2 39.94,-6.52 59.44,-12.24 82.5,-18.6 164.94,-37.5 247.52,-55.72 z"
       id="path10"
       inkscape:connector-curvature="0"
       style="fill:#f5722c" />
    <path
       transform="translate(0,512)"
       style="fill:#f5e5c1"
       d="m 284.6,-419.2 c -6.16683,0.12026 -12.32157,1.02 -18.3,2.7 -13.2,2.3 -25.57,8.24 -35.35,17.4 -13.02,10.9 -25.5,23.98 -29.8,40.9 -3.76,11.4 -3.07,23.72 -6.85,35.1 -2.78,8.18 -12.13,9.63 -19.05,12.85 -0.44,4.92 -0.67,9.89 -0.65,14.85 9.62,4.12 20.15,5.34 29.85,9.1 3.48,3.02 2.09,8.3 3.05,12.4 3.62,1.68 7.27,3.4 10.85,5.2 3.26,14.7 8.39,28.89 12.25,43.45 -4.26,3.26 -10.06,4.52 -13.3,9 -0.76,6.22 0.56,12.43 1.6,18.55 -5.58,2.46 -11.27,4.62 -17.05,6.6 -6.16,-2.32 -12.19,-7.04 -19.05,-6 -7.52,5.7 -14.24,12.45 -22.4,17.35 -4.4,1.84 -3.67,6.72 -3.75,10.6 -12.74,5.96 -25.72,11.46 -38.5,17.3 -9.24,3.16 -7.55,14.45 -10.85,21.85 -2.08,20.08 2.49,39.97 2.05,60.05 2.18,16.62 1.6,33.41 3.5,50.05 -0.14,13.74 4.12,26.85 7.3,40.05 3.36,14.72 6.95,29.39 10.55,44.05 1.44,7.24 8.2,11.32 13.3,15.9 10,8.1 19.33,17.02 29.75,24.6 7.5,3.2 16,3.26 24,4.3 10.08,-6.8 20.71,-12.69 31.05,-19.05 0.08,-1.96 0.14,-3.94 0.2,-5.9 -1.84,-1.8 -3.68,-3.63 -5.5,-5.45 -11.18,10.78 -27.67,17.18 -43.05,13.3 -10.56,-6.6 -22.28,-12.32 -29.9,-22.5 -3.6,-4.88 -8.96,-9.02 -10,-15.3 C 137.19,38.08 133.5,22.15 130,6.15 c -2.48,-8.64 0.63,-17.49 0.25,-26.25 -1.38,-18.42 -5,-36.65 -5.7,-55.15 -1.04,-13.64 -4.61,-27.11 -3.75,-40.85 1.28,-8.28 3.58,-16.48 6.8,-24.2 12.68,-8.06 26.98,-13.51 40.3,-20.55 6.02,2.26 12.39,3.75 18.05,6.85 30.54,21.8 49.53,54.84 72.55,83.6 1.7,3.02 2.02,6.53 2.8,9.85 l 2.15,-2.65 c 5.4,1.74 11.99,6.51 17.25,1.85 5.38,-3 7.32,-9.31 6.6,-15.15 -7.82,-8.72 -15.64,-18.01 -19.5,-29.25 -5.96,-14.38 -15.76,-26.59 -24.3,-39.45 -10.04,-12.74 -20.07,-26.05 -33.75,-35.05 5.18,-3.88 11.28,-6.23 17.1,-8.95 5.94,12.5 11.71,25.24 19.65,36.6 10.48,11.66 19.97,24.18 29.65,36.5 2.56,2.82 5.7,8.22 9.9,4.6 8.38,-13 14.5,-27.4 23.1,-40.3 13.52,7.7 28.48,12.32 42.5,19 4.8,1.92 12.12,6.84 15,-0.3 1.44,-13.44 0.38,-27.06 2.3,-40.5 11.26,5.2 22.09,11.27 33.25,16.65 3.88,1.32 7.61,4.03 11.85,3.55 4.44,-3.44 6.98,-10.84 2.1,-15 -14.54,-16.8 -29.91,-32.88 -44.95,-49.2 1.34,-3.48 2.51,-6.98 3.75,-10.5 4.84,4.26 10.21,7.89 15.65,11.35 8.82,5.64 15.88,13.47 23.5,20.55 13.26,13.14 20.24,30.68 28.4,47.1 3.72,7.74 5.44,16.75 11.8,22.95 l 3.6,-0.65 c 3.1,-8.34 10.12,-14.35 13.8,-22.25 -10.22,-7.62 -11.28,-20.97 -16.9,-31.55 -3.44,-6.72 -7.56,-13.06 -11.8,-19.3 0.06,-1.08 0.16,-3.19 0.2,-4.25 -8.7,-8.74 -19.34,-15.25 -27,-25.05 5.28,0.04 10.54,0.22 15.8,0.6 13.42,1.6 26.04,7.63 36,16.65 10.5,18.46 16.52,40.4 33.6,54.3 4.82,3.6 10.81,5.1 15.85,1 0.24,-9.8 -8.5,-15.68 -14.1,-22.5 -8.34,-8.5 -12.57,-19.83 -17.65,-30.35 -2.86,-6.06 -5.68,-12.68 -11.7,-16.3 -9.28,-5.48 -18.59402,-10.67681 -29.15,-14.2 -5.51198,-1.83969 -27.90342,-4.06244 -32.05,-1.3 -1.24,3.16 -0.26,6.7 -0.4,10 -6.4,-3.32 -10.44,-11.87 -18.1,-12.15 -7.04,3.56 -13.23,8.74 -20.85,11.2 -2.18,-8.82 -2.99,-19.02 -10.75,-25 -1.66,0.12 -4.94,0.33 -6.6,0.45 0.3,-2.98 0.31,-5.98 1.05,-8.9 2.38,-3.82 6.11,-6.85 7.65,-11.15 0.9,-6.56 0.75,-13.21 1.85,-19.75 6.88,-2.44 14.15,-2.77 21.35,-3.25 6.16,-0.72 6.76,-9.36 2.5,-12.7 -5.14,-5.34 -14.08,-5.53 -18.3,-11.65 -2.74,-14.22 -4.76,-29.17 -12.3,-41.85 -6.66,-9.76 -16.08,-17.11 -24.6,-25.15 -5.88,-5.7 -6.87,-15.26 -14.05,-19.7 -10.57499,-5.175 -22.258,-8.10742 -34,-8.3 -0.88066,-0.0144 -1.76902,-0.0172 -2.65,0 z m -8.25,16.2 c 2.32312,-0.0763 4.65,0.19 7,0.9 8.48,2.18 17.21,2.97 25.65,5.15 5.16,4.9 7.64,12.11 13.4,16.45 9.58,7.72 20.92,14.18 27.1,25.2 5.64,13.38 7.61,27.92 10.25,42.1 -10.7,0.44 -21.34,1.88 -32,2.6 -14.48,2.44 -29.27,0.58 -43.75,2.9 -10.58,1.04 -21.28,0.06 -31.8,1.8 -15.14,2 -30.16,-1.52 -45.3,-1.2 5.44,-16.18 4.94,-33.72 10.7,-49.8 3.76,-6.52 8.27,-12.65 12.95,-18.55 3.66,-4.66 9.64,-6.41 14,-10.25 3.44,-4.3 5.08,-10.92 11.3,-12 6.66,-1.95 13.53062,-5.07125 20.5,-5.3 z m 81.75,101.7 c -1.1,1.32 -2.2,2.68 -3.3,4 1.24,6.54 4.18,14.9 -2.8,19.3 -6.98,-4.38 -5.11,-12.88 -5.35,-19.8 -2.82,0.94 -5.63,1.84 -8.45,2.8 0.22,1.78 0.68,5.37 0.9,7.15 -2.7,-1.4 -9.49,-10.24 -6.45,-0.6 3.92,7.14 12.23,10.23 17.15,16.55 -1.76,8.14 -12.87,7.56 -19.15,10.5 -2.9,-1.66 -5.76,-3.4 -8.6,-5.1 8.18,-6.84 12.75,-18.7 7.35,-28.6 -10.68,-0.58 -21.34,0.44 -31.9,1.9 -2.9,5.7 -3.11,12.14 -3.15,18.4 -3.76,-1.96 -7.57,-3.76 -11.45,-5.5 0.1,-2.7 0.16,-5.45 0.3,-8.15 1.66,-2.08 3.34,-4.15 5,-6.25 -12.82,-0.34 -26.16,-2.74 -38.2,3 -10.16,2.22 -20.19,5.12 -30.35,7.3 -0.16,-2.14 -0.49,-6.36 -0.65,-8.5 17.58,-2.44 35.35,-2.14 52.95,-4.1 28.78,-0.2 57.41,-3.98 86.15,-4.3 z m -42.7,9.95 c 2.4675,-0.0174 4.98,0.18 7.4,0.1 2.72,8.28 -1.84,16.72 -9.6,20.1 -3.32,-0.5 -6.51,-1.69 -9.75,-2.55 -1.74,-6.12 -0.29,-12.33 4.75,-16.45 2.29,-0.93 4.7325,-1.1825 7.2,-1.2 z m -41.6,2.4 c 1.19282,-0.006 2.40501,0.01 3.6,0.0499 -3.76,3.22 -8.54,2.91 -13.1,1.65 l -1.2,2.1 c -0.04,-1.14 -0.06,-2.28 0,-3.4 3.57,-0.16501 7.12157,-0.37843 10.7,-0.4 z m -28.3,8.6 c 9.21563,-0.0694 18.44501,1.96 27.7,1.75 7.22,7.62 18.01,9.4 26.45,15.2 6.42,0 12.97,0.34 19.25,-1.3 3.46,3.38 7.02,6.64 10.7,9.8 5,-2.48 10.03,-4.91 15.15,-7.15 0.26,3.2 0.53,6.45 0.75,9.65 -9.48,2.58 -18.94,5.29 -28.4,7.95 -0.74,2.04 -1.48,4.09 -2.2,6.15 11.26,-3.06 22.21,-7.1 33.35,-10.6 3.38,0.02 6.54,1.48 9.8,2.3 2.26,5.44 5.09,10.66 6.55,16.4 0.54,7.7 -1.18,15.33 -1.9,22.95 -11,-0.86 -21.16,3.57 -31.7,5.75 -8.38,1.02 -16.87,1.25 -25.25,2.55 -6.06,-4.36 -12.33,-8.43 -18.75,-12.25 -13.28,-7.72 -17.94,-24.08 -30.3,-32.8 1.94,-2.86 3.59,-5.93 4.85,-9.15 -3.42,0.12 -6.82,0.26 -10.2,0.6 -5.76,-5.06 -11.93,-9.77 -16.75,-15.75 0.04,-3.78 0.9,-7.44 1.7,-11.1 3.06501,-0.66 6.12813,-0.92688 9.2,-0.95 z m -12.85,23.25 c 0.82,0.2 2.48,0.65 3.3,0.85 4.9,5.42 10.19,10.53 16.25,14.65 4.76,9.24 11.69,17.04 18.05,25.2 6.78,9.02 17.43,13.59 26.45,19.95 3.64,1.96 7.3,5.77 11.8,4.55 10.76,-2.12 22.33,0.64 32.35,-5 -0.08,7.12 3.17,13.74 3.65,20.8 -0.22,7.7 -3.78,15.09 -9.9,19.85 -14.94,-11.04 -30.96,-20.62 -47.7,-28.7 -12.78,-5.76 -25.44,-12.85 -35.2,-23.05 -6.5,-15.3 -13.71,-30.56 -17.25,-46.9 -0.46,-0.56 -1.36,-1.66 -1.8,-2.2 z m 162.7,23.8 c 1.56024,-0.0218 3.10499,0.45 4.5,1.8 15.34,12.28 32.12,23.98 42.5,41.1 4.9,10.1 10.84,19.74 14.8,30.3 2,4.36 -1.09,8.18 -5.05,9.7 -5.44,-12.22 -11.9,-23.92 -18.4,-35.6 -11.84,-17.9 -27.9,-32.56 -45.8,-44.2 2.2,-1.55 4.84962,-3.06366 7.45,-3.1 z m -28.65,21.8 c 14.42,16.06 29.35,31.6 44.05,47.4 0.1,0.84 0.33,2.56 0.45,3.4 -13.58,-7.58 -28.08,-13.36 -41.7,-20.9 0.08,-10.04 -1.98,-19.92 -2.8,-29.9 z m -133.25,1.45 c 12.96,7.6 24.13,17.96 37.35,25.2 8.88,4.6 17.69,9.33 26.75,13.55 10.78,4.94 19.96,12.6 29.7,19.2 -0.02,0.38 -0.08,1.09 -0.1,1.45 -6.88,-3.52 -13.76,-7.37 -21.4,-8.95 -9.82,11.98 -14.81,27.04 -23.45,39.8 -9.58,-12.54 -19.53,-24.84 -29.35,-37.2 -8,-9.66 -11.51,-21.96 -17.95,-32.6 -4.22,-6.02 -1.67,-13.67 -1.55,-20.45 z M 360.5,-202 c 2.12,20.6 -0.3,41.34 0,62 -7.16,-1.42 -12.61,-6.62 -18.05,-11.1 3.06,-4.88 7.56,-9.13 8.6,-15.05 1.32,-8.78 1.11,-17.97 -1.75,-26.45 2.96,-3.98 6.38,-7.68 11.2,-9.4 z m -174.8,16.6 c 1.4,0.68 4.2,2.02 5.6,2.7 l -0.5,2.65 c 8.86,6.94 19.06,12.27 27,20.35 18.62,19.28 32.68,42.32 45.5,65.7 -0.54,1.5 -1.66,4.5 -2.2,6 -0.02,-0.88 -0.0301,-2.62 -0.0499,-3.5 -19.26,-22.58 -38.84,-44.84 -58.7,-66.9 -6.86,-9.38 -19.13,-11.1 -28.45,-17.1 3.86,-3.38 7.8,-6.66 11.8,-9.9 z"
       id="path14"
       inkscape:connector-curvature="0"
       sodipodi:nodetypes="cccccccccccccccccccccccccccccccccccccccccccccccccccccccccccccccccccccccccccccsccccccccccccccccccccccccccccccccccccccccccccccccccccccccccccccccccsccccccccccccccccccccscccccccccccccsccccccscccccccccccccccccccccccccccccccc" />
    <path
       transform="translate(0,512)"
       d="m 682.54,-339.24 c 3.02,-5.56 6.1,-11.08 9.3,-16.54 8.32,3.34 15.86,8.32 24.2,11.68 -0.56,4.44 -3.58,7.46 -7.94,8.24 -1.4,2.32 -2.76,4.66 -4.08,7 -7.8,-1.86 -15.92,-4.22 -21.48,-10.38 z"
       id="path18"
       inkscape:connector-curvature="0"
       style="fill:#f5e5c1" />
    <path
       transform="translate(0,512)"
       d="m 727,-351.35 c -12.74,20.92 -25.16,42.07 -37.5,63.25 -6.02,9.32 -2.01,21.93 -8.75,30.85 -39.74,48.92 -80.39,97.15 -119.75,146.35 -8.88,8.5 -15.88,18.64 -24,27.8 -5.34,0.86 -11.14,-0.93 -16.1,1.65 -9.16,4.26 -17.48,10.72 -23.3,19 -3.78,8.24 -3.08,17.63 -2.6,26.45 1.94,11.54 9.83,21.07 18.15,28.85 4.38,4.58 11.17,4.27 16.95,5.55 11.92,2.24 23.71,-2.63 33.85,-8.45 10.42,-6.86 14.65,-20.14 13.45,-32.1 -0.5,-4.5 -3.74,-8.87 -2.6,-13.35 12.42,-16.06 27.65,-29.76 40.45,-45.5 16,-23.08 31.58,-46.42 46.5,-70.2 -1.22,-0.02 -3.66,-0.08 -4.9,-0.1 -12.08,16.16 -23.54,32.82 -35.6,49 -15.42,23.3 -34.82,43.51 -53.4,64.25 -8.58,-5.26 -16.43,-11.63 -25.15,-16.65 1.54,-6.46 6.5,-11.18 10.4,-16.3 44.5,-54.22 88.56,-108.74 132.9,-163.1 8.6,-9.78 4.66,-24.28 11.1,-35.1 9.72,-16.58 19.17,-33.33 28.65,-50.05 2.92,0.06 6.04,-0.63 8.8,0.65 18.82,10 37.17,20.75 56.15,30.45 0.24,2.76 1.41,5.88 -0.95,8.1 -11.84,14.68 -23.91,29.19 -35.55,44.05 -2.22,3.44 -6.15,4.86 -10.05,5.2 -13.26,1.4 -26.09,5.19 -39.15,7.65 0.06,1.44 0.19,4.26 0.25,5.7 -12.64,1.88 -26.15,1.24 -37.85,7 -2.72,15.34 -8.87,29.8 -11.35,45.2 6.28,4.64 16.34,5.74 18.8,14.2 1.66,3.52 2.48,7.89 6,10.15 3.72,1.46 6.04,-2.35 8.3,-4.55 -2.7,-6.52 -5.47,-13.04 -8.55,-19.4 -4.06,-1.72 -8.07,-3.45 -12.15,-5.05 1.68,-9.72 5.09,-19.01 7.15,-28.65 15.54,-2.16 31.11,-4 46.75,-5.2 5.28,5.56 10.21,11.46 14.95,17.5 -16.08,23.18 -31.12,47.05 -47.7,69.85 -2.04,2.98 -5.53,4.26 -8.65,5.7 -16.42,6.74 -33.11,12.82 -49.25,20.2 -3.68,1.42 -5.29,5.12 -7.05,8.3 l 3.2,5.1 c 3.64,1.1 7.53,1.58 11.05,-0.3 17.34,-7.16 34.72,-14.26 52.1,-21.3 5.18,-1.8 8.88,-5.95 11.8,-10.45 15.94,-24.06 31.96,-48.09 47.9,-72.15 2.98,-4 4.18,-9.97 0.7,-14.05 -6,-7.92 -12.93,-15.06 -19.25,-22.7 4.88,-0.88 10.29,-0.52 14.65,-3.2 5.64,-5.02 10.03,-11.27 14.85,-17.05 13.16,-17.1 28.31,-32.68 40.65,-50.4 -9.64,-5.26 -18.74,-11.47 -28.5,-16.55 -15.78,-8.4 -30.32,-19.12 -46.8,-26.1 z M 529.75,-71.9 c 4.1836,-0.217664 7.6775,2.887504 10.95,5.25 7.18,5.48 15.74,9.1 22.1,15.6 4.34,8.06 4.81,18.12 0.25,26.2 -6.14,5.26 -14.14,7.66 -21.5,10.7 -8.1,3.6 -17.49,0.08992 -24.05,-5.15 -8.04,-5.3 -13.65,-15.04 -12.55,-24.8 0.2,-5.04 1.43,-9.93 2.35,-14.85 5.98,-5.44 12.66,-10.57 20.6,-12.65 0.6275,-0.177504 1.25234,-0.268912 1.85,-0.3 z"
       id="path20"
       style="fill:#f5e5c1"
       inkscape:connector-curvature="0" />
    <path
       transform="translate(0,512)"
       d="m 672,-318.06 c 1.1,-6.2 3.34,-12.44 7.58,-17.22 9.42,1.62 17.54,7.3 26.4,10.64 -0.94,1.2 -2.8,3.58 -3.74,4.76 -5.02,0.84 -6.54,5.66 -8.48,9.64 -7.42,-1.42 -16.2,-2.4 -21.76,-7.82 z"
       id="path22"
       inkscape:connector-curvature="0"
       style="fill:#f5e5c1" />
    <path
       transform="translate(0,512)"
       d="m 732.08,-328.06 c 5.5,1.16 10.28,4.22 15.32,6.56 -2.64,10.8 -10.52,19.16 -16.26,28.4 -6.96,10.1 -12.42,21.36 -21.06,30.2 -2.32,-1.28 -4.6,-2.56 -6.84,-3.92 0.32,-6.4 -1,-13.4 2.74,-19.08 8.52,-14.14 16.22,-28.88 26.1,-42.16 z"
       id="path24"
       inkscape:connector-curvature="0"
       style="fill:#f5e5c1" />
    <path
       transform="translate(0,512)"
       d="m 756.24,-315.82 c 7.92,4.06 16.72,7.4 23.2,13.58 -12.24,15.28 -26.04,29.22 -40.08,42.82 -8.28,2.28 -16.88,3.6 -25.48,2.58 1.74,-9.32 9.36,-15.54 14.5,-22.98 9.54,-11.82 18,-24.48 27.86,-36 z"
       id="path26"
       inkscape:connector-curvature="0"
       style="fill:#f5e5c1" />
    <path
       transform="translate(0,512)"
       d="m 661.1,-295.84 c 1.76,-5.5 4.12,-10.84 7.82,-15.34 8.38,2.18 16.64,4.74 24.9,7.38 -4.86,5.22 -11.26,8.96 -14.48,15.6 -5.36,-0.5 -10.58,-1.82 -15.74,-3.24 -0.84,-1.48 -1.68,-2.94 -2.5,-4.4 z"
       id="path28"
       inkscape:connector-curvature="0"
       style="fill:#f5e5c1" />
    <path
       transform="translate(0,512)"
       d="m 798.5,-295.72 c 6.72,4.18 13.22,8.74 19.44,13.64 -3.2,5.2 -6.86,10.16 -11.28,14.4 -4.46,-3.76 -9.1,-7.34 -13.98,-10.56 1.78,-3.86 2.74,-8 2.5,-12.28 1.1,-1.74 2.2,-3.48 3.32,-5.2 z"
       id="path32"
       inkscape:connector-curvature="0"
       style="fill:#f5e5c1" />
    <path
       transform="translate(0,512)"
       d="m 659.88,-276.28 c 4.58,-5.54 12.06,-1.24 16.64,2.06 3.7,2.46 2.02,7.6 2.76,11.34 -1.94,2.22 -3.84,4.46 -5.74,6.68 -0.96,-3.24 -1.88,-6.48 -2.78,-9.72 -0.72,0.28 -2.16,0.86 -2.88,1.16 -15.18,17.74 -27.44,37.72 -38.28,58.36 -6,12.52 -15.5,22.92 -25.76,32.06 -8.46,5.4 -18.22,8.32 -27.16,12.74 -13.56,5.56 -26.42,13.66 -41.3,15.06 -3.22,-4.12 -4.88,-8.8 -2.16,-13.66 5.66,-1.7 11.28,-3.68 16.5,-6.5 15.78,-8.3 31.66,-16.44 47.42,-24.76 3.32,-1.7 5.74,-4.62 7.78,-7.68 11.46,-17.88 23,-35.72 34.62,-53.5 6.26,-8.28 12.96,-16.32 20.34,-23.64 z"
       id="path40"
       inkscape:connector-curvature="0"
       style="fill:#f5e5c1" />
    <path
       transform="translate(0,512)"
       d="m 778.14,-258.34 c 4.06,-5.74 5.22,-12.42 4.3,-19.32 2.38,1.14 4.76,2.3 7.16,3.44 4.74,3.86 9.82,7.3 15.02,10.54 -5.1,6.2 -9.78,12.78 -15.5,18.46 -3.6,-4.42 -7.24,-8.82 -10.98,-13.12 z"
       id="path42"
       inkscape:connector-curvature="0"
       style="fill:#f5e5c1" />
    <path
       transform="translate(0,512)"
       d="m 760.42,-244.12 c 1.28,-6.08 5.44,-11.18 9,-16.16 5.32,6.82 11.1,13.26 16.18,20.26 -2.84,4.82 -6.64,9.06 -11.36,12.08 -4.72,-5.22 -11.1,-9.48 -13.82,-16.18 z"
       id="path46"
       inkscape:connector-curvature="0"
       style="fill:#f5e5c1" />
    <path
       transform="translate(0,512)"
       d="m 812.58,-247.58 c 6.9,-4.64 14.8,2.38 15.16,9.56 11.16,54.04 22.42,108.08 33.68,162.1 2.08,9.38 2,19.24 5.72,28.22 8.9,23.24 17.28,46.66 26.14,69.92 1.42,3.98 2.78,8.44 1.36,12.64 -2.36,4.28 -7.4,5.74 -11.62,7.5 -57.7,20.66 -115.42,41.28 -173.06,62.02 -3.9,1.44 -7.98,-0.08 -11.78,-0.98 -26,-7.5 -52.16,-14.5 -78.2,-21.82 -4.76,-1.16 -9.5,-4.26 -10.42,-9.4 -0.04,-5.64 2.42,-10.88 4.12,-16.16 2.52,-6.46 4.24,-13.92 10.1,-18.28 8,-6.22 17.3,-10.52 25.34,-16.7 4.08,-3.26 5.24,-8.64 7.22,-13.22 3.42,-9.76 9.02,-19.22 8.38,-29.92 -0.24,-10.04 0.56,-20.1 -0.26,-30.1 -4.22,-11.84 -14.46,-20.46 -18.84,-32.24 -1.74,-5.58 3.52,-10.28 8.3,-11.94 17.86,-6.54 36.12,-11.92 53.92,-18.6 3.6,-1.22 5.12,-5.04 7.06,-7.96 15.48,-27.28 31.36,-54.34 46.86,-81.6 2.76,-4.98 6.58,-9.3 11.08,-12.78 13.08,-10.3 25.8,-21.16 39.74,-30.26 z"
       id="path48"
       inkscape:connector-curvature="0"
       style="fill:#f5722c" />
    <path
       transform="translate(0,512)"
       d="m 395.54,-124.24 c 13.84,-7.02 28.68,-12.48 40.64,-22.7 1.24,3.4 2.46,6.8 3.62,10.24 -14.08,11.06 -30.62,18 -46.42,26.1 -12.7,6.4 -27.22,7.24 -40.5,11.94 -9.98,3.52 -20.26,6.04 -30.48,8.74 -11.52,2 -23.24,2.54 -34.88,3.52 -1.98,-3.34 -3.94,-6.7 -5.8,-10.1 12.54,0.42 24.84,-2.18 37.28,-3.06 25.12,-9.48 52.56,-12.12 76.54,-24.68 z"
       id="path62"
       inkscape:connector-curvature="0"
       style="fill:#f5e5c1" />
    <path
       transform="translate(0,512)"
       d="m 466,-126.06 c 6.42,-8.4 13.08,-18.48 24,-21.02 17.26,-0.7 34.72,-0.9 51.7,2.92 11,2.48 21.7,6.02 32.48,9.38 -2.12,2.38 -4.24,4.74 -6.32,7.14 -10.98,-2.3 -21.12,-7.32 -31.96,-10.08 -14.98,-3.44 -31.08,-6.62 -45.84,-0.44 -10.58,5.58 -14.68,17.4 -18.4,27.98 -4.4,9.48 -7.96,21.44 -18.72,25.46 -21.68,10.02 -42.7,21.42 -64.44,31.32 -3.28,-0.96 -6.58,-1.84 -9.88,-2.66 18.1,-9.78 35.98,-20.14 55.06,-27.96 8.82,-2.84 18,-7.48 22.32,-16.16 5.2,-7.88 5.36,-17.82 10,-25.88 z"
       id="path64"
       inkscape:connector-curvature="0"
       style="fill:#f5e5c1" />
    <path
       transform="translate(0,512)"
       d="m 187,-121.04 c 2.3,-1.8 5.1,-0.7 7.7,-0.4 16.84,24.14 32.34,49.42 52.36,71.14 -4.52,5.54 -8.56,11.44 -12.52,17.4 -8.7,0.86 -18.04,-1.12 -26.18,2.76 -7.24,9.72 -10.6,21.86 -11.3,33.86 -1.54,11.6 1.16,23.46 -2.08,34.86 -8.86,-14.54 -13.56,-31.22 -22.88,-45.44 5.84,-10.54 14.66,-19.06 20.14,-29.8 -8.36,1.26 -16.94,1.06 -25.16,3.26 -7.72,-9.88 -5.38,-23.32 -8.06,-34.92 15,8.78 29.4,18.86 45.6,25.38 11.18,1.88 22.6,-0.5 33.88,0.26 -17.98,-21.8 -33.04,-45.72 -49.68,-68.52 -2.38,-2.72 -2.62,-6.46 -1.82,-9.84 z"
       id="path66"
       inkscape:connector-curvature="0"
       style="fill:#f5e5c1" />
    <path
       transform="translate(0,512)"
       style="fill:#f5e5c1"
       d="m 456,-77.75 c -14.12,6.32 -27.75,13.69 -41.75,20.25 -7.06,3.46 -14.95,4.17 -22.65,4.85 -10.32,4.1 -21.67,4.47 -32.45,2.15 -29.72,-3.36 -59.62,-4.67 -89.3,-8.45 -8.78,7.46 -16.56,15.96 -24.7,24.1 -7.36,7.18 -10.94,17.02 -16.6,25.4 -2.7,3.98 -4.98,8.51 -4.9,13.45 -0.34,18.68 -1.29,37.58 2.65,56 2.2,11.82 8.06,22.55 10.7,34.25 1.26,7.06 6.96,11.79 10.8,17.45 10.88,0.2 21.46,-2.14 32,-4.5 13.98,-0.88 27.43,-5.18 41.35,-6.5 11.42,-3.26 23.42,-3.27 34.8,-6.65 6.48,-1.52 13.22,-1.26 19.7,-2.8 19.94,-5.14 41.04,-4.82 60.5,-12 12.82,-4.66 26.55,-6.01 39.55,-9.95 6.44,-2.06 6.17,-10.08 8.15,-15.4 4.64,-18.12 10.7,-35.87 14.8,-54.15 -3.74,-9.56 -12.68,-15.81 -18,-24.45 4,-1.58 8.11,-2.98 11.75,-5.3 0.58,-2.5 0.97,-5.04 1.15,-7.6 -5.26,-8.02 -9.55,-16.64 -13.85,-25.2 -4.9,-0.04 -9.8,0.04 -14.7,0.1 -2.92,-5.06 -5.92,-10.07 -9,-15.05 z m -3.7,11.95 c 0.36,1.24 1.11,3.74 1.45,5 -6.82,0.4 -13.6,1.31 -20.4,2.05 6.22,-2.62 12.37,-5.47 18.95,-7.05 z m 21.45,13.1 c 2.62,5.44 5.35,10.89 7.75,16.45 -5.1,1.96 -11.79,2.53 -14.55,7.95 -0.22,3.1 2.28,5.28 3.8,7.7 5.3,7.04 10.65,14.06 16.45,20.7 -3.48,19.72 -11,38.48 -15,58.1 -14.6,5.74 -30.07,8.43 -45.15,12.55 -15.88,5.64 -32.72,7.49 -49.1,11.15 -23.42,3.7 -46.57,8.99 -70.05,12.05 -9.68,3.24 -20,3.06 -29.8,5.8 -7.08,1.88 -14.42,2.48 -21.7,3.2 C 251.68,89.59 243.44,77.66 239.6,64 c -2.52,-14.52 -5.72,-29.08 -4.9,-43.9 0.6,-8.04 -1.13,-16.87 3.25,-24.15 4.72,-8.38 8.41,-17.68 15.75,-24.2 6.02,-5.66 11.62,-11.77 17.9,-17.15 25.42,1.7 50.82,4.48 76.2,6.8 8.96,1.06 18.14,2.6 27,0 23.2,-3.06 45.96,-9.34 69.4,-10.8 9.74,-2.18 19.81,-1 29.55,-3.3 z"
       id="path68"
       inkscape:connector-curvature="0" />
    <path
       transform="translate(0,512)"
       d="m 263.25,-32.9 c -4.44,7.08 -7.64,14.92 -9.8,23 1.42,2.18 3.09,5.72 6.35,5 20.18,-0.54 40.15,-3.96 60.35,-4.4 11.4,-1.38 23.18,-0.76 34.2,-4.4 1.86,-6.06 -0.18,-14.06 -6.1,-17.1 -8.76,-0.98 -17.57,-0.22 -26.35,-0.6 -19.46,-2.26 -39.13,-0.88 -58.65,-1.5 z m 16.25,10.35 c 6.80038,-0.10272 13.67501,0.7 20.45,0.9 10.12,0.16 20.24,0.49 30.3,1.55 -12.14,1.04 -24.42,0.59 -36.5,2.45 -8.88,0.96 -17.97,-0.12 -26.65,2.5 0.1,-1.98 0.14992,-3.97 0.25,-5.95 4.00499,-1.02 8.06976,-1.388352 12.15,-1.45 z"
       id="path76"
       style="fill:#f5e5c1"
       inkscape:connector-curvature="0" />
    <path
       transform="translate(0,512)"
       d="m 136.8,87.02 c 6.62,-1.64 11.08,4.7 16.08,7.84 10.58,7.06 19.94,17.24 33.1,19.22 5.46,0.78 12.12,3.16 16.8,-1.04 6.7,-4.58 13.26,-10.18 21.34,-12 7.3,0.72 11.36,8.08 16.68,12.38 4.88,5.88 13.62,1.9 19.48,5.92 3.98,2.94 5.26,7.96 7.02,12.32 10.2,28.86 20.64,57.62 30.9,86.46 2.44,7.24 6.18,14.32 6.52,22.1 -1.68,4.18 -5.7,6.66 -9.76,8.12 -29.1,10.52 -58.4,20.52 -87.36,31.48 -3.62,1.28 -8.04,2.42 -11.52,0.18 -4.3,-3.5 -6.18,-8.98 -8.52,-13.82 -5.38,-12.76 -12.66,-24.74 -16.24,-38.2 -10.76,-38.08 -22.08,-76 -33.56,-113.88 -1.84,-6.2 -5.34,-11.8 -7,-18.04 -0.1,-3.72 2.34,-8 6.04,-9.04 z"
       id="path82"
       inkscape:connector-curvature="0"
       style="fill:#f5722c" />
    <path
       transform="translate(0,512)"
       d="m 275.52,115.88 c 0.96,-0.68 2.92,-2.02 3.88,-2.7 3.02,0.06 6.02,0.12 9.02,0.18 2.04,1.34 4.1,2.7 6.14,4.04 0.48,1.18 1.4,3.52 1.86,4.68 5.92,39.96 22,77.32 33,115.96 -5.6,3.28 -11.7,5.56 -18.14,6.54 -9.06,-26.62 -16.72,-53.74 -25.54,-80.46 -3.78,-12.64 -8.12,-25.1 -11.86,-37.72 -1.16,-3.58 0.9,-7.08 1.64,-10.52 z"
       id="path88"
       inkscape:connector-curvature="0"
       style="fill:#f5e5c1" />
    <path
       transform="translate(0,512)"
       d="m 897.65,126.65 c -22.17466,0.57803 -43.85,12.1125 -56.75,30.15 -16.56,22.56 -18.86,54.75 -4.7,79.05 11.18,20.4 32.87,33.96 55.85,36.5 34.64,3.8 71.21,-18.41 81.25,-52.35 7.74,-21.9 1.7,-46.91 -12.1,-65.05 -10.56,-14.08 -26.34,-22.99 -43.1,-27.55 -5.34,-0.4 -10.68,-0.7 -16,-0.7 -1.48,-0.06 -2.9717,-0.0885 -4.45,-0.0499 z m 4.65,37.6 c 5.30499,-0.13744 10.64,0.54 15.7,2.1 15.04,4.78 26.01,19.95 25.65,35.75 1.06,22.18 -19.77,42.09 -41.65,41.55 -20.6,1.12 -40.54,-16.81 -40.9,-37.55 -1.68,-16.9 9.78,-33.47 25.6,-39.05 5,-1.71 10.29501,-2.6625 15.6,-2.8 z"
       id="path90"
       style="fill:#3e3e3e"
       inkscape:connector-curvature="0" />
    <path
       transform="translate(0,512)"
       d="m 767.28,227.82 c 9.2,-15.22 17.2,-31.16 26.24,-46.48 7.56,4.74 15.36,9.14 22.74,14.18 -9.62,16.34 -18.34,33.18 -28.08,49.44 17.7,13.4 35.92,26.1 53.88,39.14 1.1,1.18 4.48,2.64 2.7,4.66 -6.84,9.24 -14.5,17.82 -21.3,27.1 -16.98,-11.18 -32.38,-24.54 -49.06,-36.14 -10.04,17.38 -20.18,34.7 -30.24,52.08 -9.62,-5.92 -18.84,-12.4 -28.3,-18.56 9.96,-18.66 22.28,-35.96 32.26,-54.62 -16.06,-11.62 -32.26,-23.06 -48.24,-34.76 -2.86,-1.74 0.42,-4.96 1.5,-6.76 6.4,-8.06 11.66,-17.14 18.64,-24.66 16.18,11.2 30.98,24.34 47.26,35.38 z"
       id="path96"
       inkscape:connector-curvature="0"
       style="fill:#3e3e3e" />
    <path
       transform="translate(0,512)"
       d="m 627.35,185.05 c -2.79189,0.0349 -5.5825,0.2 -8.35,0.5 -25.78,2.88 -49.71,20.06 -59.65,44.2 -5.32,13.24 -8.11,28.01 -4.85,42.15 4.06,23.72 20.9,44.82 43.2,53.9 28.74,11.92 64.35,4.17 85.45,-18.75 15.78,-16.42 23.41,-40.89 18.25,-63.25 -4.38,-21.7 -19.17,-41.1 -39.05,-50.9 -10.77374,-5.60626 -22.90181,-8.00114 -35,-7.85 z m 4.35,37.8 c 5.94298,0.18282 11.8125,1.4625 17.15,4.2 16.58,7.66 25.88,28.58 19.7,45.9 -4.22,14.1 -16.53,24.93 -30.65,28.45 -11.24,3.48 -23.48,0.24 -33.1,-6 -14.38,-9.38 -21.44,-28.96 -15.5,-45.2 4.42,-14 17.48,-24.01 31.7,-26.55 3.5025,-0.6075 7.13422,-0.90968 10.7,-0.8 z"
       id="path98"
       style="fill:#3e3e3e"
       inkscape:connector-curvature="0" />
    <path
       transform="translate(0,512)"
       d="m 496.52,278.94 c 8.86,-0.34 17.72,-0.36 26.58,-0.48 0.96,18.8 2.66,37.58 2.38,56.44 13.34,2.92 27.08,1.6 40.58,2.9 10.26,1.66 20.7,1.38 31.08,1.7 -0.72,12.66 -2.6,25.22 -4.14,37.78 -19.98,-2.42 -40.08,-3.84 -60.18,-5.04 -0.36,19.64 2.26,39.16 1.88,58.78 -0.52,0.38 -1.56,1.14 -2.08,1.5 -10.72,0.66 -21.36,-1.76 -32.1,-1.28 0.1,-20.92 -0.2,-41.82 -0.98,-62.7 -11.74,-2.18 -23.74,-1.04 -35.56,-2.54 -9.02,-1.16 -18.12,-1.18 -27.2,-1.34 0.98,-12.6 2.64,-25.16 2.56,-37.82 20.04,1.22 39.96,4.26 60.06,4.78 -0.96,-17.56 -2.22,-35.1 -2.88,-52.68 z"
       id="path104"
       inkscape:connector-curvature="0"
       style="fill:#3e3e3e" />
    <path
       transform="translate(0,512)"
       style="fill:#f5e5c1;fill-opacity:1;fill-rule:nonzero;stroke:none"
       d="m 617.6,-98.25 c -0.32,1.48 -0.98,4.45 -1.3,5.95 10.86,11.62 19.4,25.3 26.4,39.5 2.74,12.16 5.7,26.48 -1.7,37.6 -4.02,6.4 -11.14,9.61 -17.5,13.15 -8.52,4.36 -15.26,11.66 -20.3,19.7 -4.16,6.66 -3.99,14.74 -4.85,22.3 -0.94,10.86 -5.11,21.07 -7.45,31.65 -3.98,19.24 -6.34,39.55 -16.8,56.65 -7.46,15.04 -20.17,26.59 -33.75,36.05 -13.14,6.84 -28.11,8.72 -42.35,12.1 -31.5,-2.24 -63.79,-11 -88.65,-31.2 3.22,-3.34 5.96,-7.62 10.5,-9.3 4.24,-0.22 8.46,0.45 12.7,0.35 3.9,-3.56 4.2,-9.26 5.3,-14.1 -12.08,-7.72 -22.64,-17.55 -34.8,-25.15 -3.86,-2.82 -8.91,-1.53 -13.35,-1.95 -1.96,4.02 -4.45,7.88 -5.45,12.3 1.48,2.48 3.34,4.75 5.1,7.05 -1.32,3.56 -2.69,7.09 -4.05,10.65 -10,-7.52 -19.45,-15.7 -29.45,-23.2 -2.94,0.72 -5.91,1.44 -8.85,2.2 6.12,5.54 12.16,11.21 18.8,16.15 17.14,12.06 31.86,27.16 49.1,39.1 18.1,10.98 38.22,18.72 59.1,22.3 9.43957,1.00067 18.98166,3.16069 28.45,2.15 3.59067,-1.32586 46.63075,-15.36491 47.45,-16.05 7.42718,-6.21099 14.85,-12.45 21.35,-19.65 -0.42,0.76 -1.28,2.24 -1.7,3 -2.18,3.86 -4.01,8.14 -7.35,11.2 -0.64536,0.46648 -7.97584,4.17936 -15.35,7.15 -13.14083,5.29371 -31.91125,13.37008 -40.89437,15.4728 12.90912,-0.69064 55.40651,-11.72248 74.09437,-27.8228 3.8868,-7.68845 8.62035,-14.96779 12,-22.9 5.66,-17.32 4.21,-35.75 5.65,-53.65 0.72,-14.18 8.59,-26.58 10.15,-40.6 9.18,-6.9 18.29,-13.93 27.95,-20.15 7.2,-7.08 11.54,-16.51 16.6,-25.15 6.18,-10.44 5.06,-22.9 5.4,-34.5 0.2,-5.64 -0.45,-11.45 -3.65,-16.25 -8.1,-12.94 -17.41,-25.12 -27.45,-36.6 -2.28,-2.94 -5.64,-4.5 -9.1,-5.5 z M 639.9,-1.6 C 633.46,12.62 619.15,19.75 606.95,28.15 612.51,13.45 625.96,4.24 639.9,-1.6 z M 394.4,102.2 c 4.24,0.88 7.55,3.8 10.95,6.3 8.2,6.46 17.23,11.86 25.15,18.7 -4.42,0.02 -8.8,-0.08 -13.2,-0.2 -4.9,3.46 -9.43,7.46 -13.45,11.9 -3.96,-2.72 -7.95,-5.39 -11.85,-8.15 2.26,-6.26 4.79,-12.45 7.15,-18.65 -2,-3.1 -5.51,-5.82 -4.75,-9.9 z"
       id="path3135"
       inkscape:connector-curvature="0"
       sodipodi:nodetypes="ccccccccccccccccccccccccccscccscccccccccccccccccccccc" />
    <path
       transform="translate(0,512)"
       style="fill:#f5e5c1;fill-opacity:1;fill-rule:nonzero;stroke:none"
       d="m 604.2,85.9 c 0.62,4.9 -1.02,10.94 2.8,14.9 10.34,12.34 32.9,35.35 32.9,35.35 1.0909,0.64936 4.5525,1.3282 6.14664,0.797 1.59414,-0.53118 3.67284,-1.81908 3.15336,-3.897 0,0 -11.69758,-12.98978 -17.05,-19.9 0.82,0.38 2.43,1.15 3.25,1.55 13.96134,2.61652 27.8115,5.66218 41.7,8.65 12.59072,3.68318 17.72932,-0.76594 18.1447,-4.85828 0.39836,-3.9244 -5.7831,-7.24338 -10.8447,-8.19172 -14.72,-3.38 -29.65,-5.92 -44.35,-9.4 -13,-2.68 -22.15,-14.32 -35.85,-15 z"
       id="path3129"
       inkscape:connector-curvature="0"
       sodipodi:nodetypes="ccczccccsccc" />
    <path
       transform="translate(0,512)"
       style="fill:#f5e5c1;fill-opacity:1;fill-rule:nonzero;stroke:none"
       d="m 337.3,104.65 c -4.54,0.82 -9.08,1.64 -13.6,2.5 9.98,12.3 20.05,24.63 31.35,35.75 16.4,14.4 32.96,28.67 49.9,42.45 12.24,7.92 26.13,12.73 39.35,18.75 19.10106,-1.32238 24.56048,-2.65958 29.85,-10.3 0,0 -10.50626,1.75 -16.05,0.8 -7.6,-0.68 -14.76,-3.56 -21.4,-7.2 -10.34,-5.62 -22.22,-8.68 -30.9,-17 -11.66,-10.46 -23.51,-20.72 -35.75,-30.5 -12.54,-10.2 -21.59,-23.71 -32.75,-35.25 z"
       id="path3127"
       inkscape:connector-curvature="0"
       sodipodi:nodetypes="ccccccccccc" />
  </g>
</svg>
