<?xml version="1.0" encoding="UTF-8" standalone="no"?>
<svg
   xmlns:dc="http://purl.org/dc/elements/1.1/"
   xmlns:cc="http://creativecommons.org/ns#"
   xmlns:rdf="http://www.w3.org/1999/02/22-rdf-syntax-ns#"
   xmlns:svg="http://www.w3.org/2000/svg"
   xmlns="http://www.w3.org/2000/svg"
   xmlns:sodipodi="http://sodipodi.sourceforge.net/DTD/sodipodi-0.dtd"
   xmlns:inkscape="http://www.inkscape.org/namespaces/inkscape"
   width="1280"
   height="1280"
   viewBox="0 0 1024 1024"
   version="1.1"
   id="svg2"
   inkscape:version="0.48.1 "
   sodipodi:docname="help_build_structure.svg">
  <metadata
     id="metadata134">
    <rdf:RDF>
      <cc:Work
         rdf:about="">
        <dc:format>image/svg+xml</dc:format>
        <dc:type
           rdf:resource="http://purl.org/dc/dcmitype/StillImage" />
      </cc:Work>
    </rdf:RDF>
  </metadata>
  <defs
     id="defs132" />
  <sodipodi:namedview
     pagecolor="#ffffff"
     bordercolor="#666666"
     borderopacity="1"
     objecttolerance="10"
     gridtolerance="10"
     guidetolerance="10"
     inkscape:pageopacity="0"
     inkscape:pageshadow="2"
     inkscape:window-width="1920"
     inkscape:window-height="1018"
     id="namedview130"
     showgrid="false"
     inkscape:snap-page="true"
     fit-margin-top="0"
     fit-margin-left="0"
     fit-margin-right="0"
     fit-margin-bottom="0"
     inkscape:zoom="0.6609375"
     inkscape:cx="596.02637"
     inkscape:cy="638.3293"
     inkscape:window-x="-8"
     inkscape:window-y="-8"
     inkscape:window-maximized="1"
     inkscape:current-layer="layer1" />
  <g
     inkscape:groupmode="layer"
     id="layer1"
     inkscape:label="background">
    <rect
       style="fill:#3e3e3e;fill-opacity:1;fill-rule:nonzero;stroke:none"
       id="rect3096"
       width="1280"
       height="1280"
       x="0"
       y="0"
       transform="scale(0.8,0.8)" />
  </g>
  <g
     inkscape:groupmode="layer"
     id="layer2"
     inkscape:label="foreground">
    <path
       d="m 568.2,9.98 c 51.9,-1.2 103.86,-0.1 155.8,-0.56 4.7,0.16 10.18,-0.92 13.9,2.76 10.34,8.98 20.68,17.98 31.08,26.92 4.12,3.8 8.94,7.46 10.72,13.04 11.1,31.42 21.86,62.96 33.22,94.3 -4.88,-3.62 -10.64,-8.76 -17.2,-6.16 -10.38,2.16 -15.56,12.3 -22.12,19.52 C 709.04,113.26 644.82,66.24 580.32,19.58 576.08,16.64 571.94,13.54 568.2,9.98 z"
       id="path6"
       inkscape:connector-curvature="0"
       style="fill:#f5e5c1" />
    <path
       d="M 563.58,21.96 C 599.38,47.54 634.52,74.04 670.06,100 649.72,87.84 630.2,74.34 610.12,61.74 c -2.88,-1.54 -6.5,-3.86 -9.42,-1.1 -4.8,4.16 -7.42,10.22 -10.9,15.44 -5.32,-3.06 -11.94,-5.74 -13.82,-12.22 -4.42,-13.86 -8.4,-27.88 -12.4,-41.9 z"
       id="path8"
       inkscape:connector-curvature="0"
       style="fill:#f5e5c1" />
    <path
       d="m 596.56,86.42 c 3.06,-4.42 5.82,-9.06 8.9,-13.5 19.24,12.6 38.66,24.96 58.12,37.22 -14.52,17 -29.2,33.86 -43.92,50.7 C 601.3,147.9 582.98,134.92 564.62,122 c 7.5,-8.94 14.66,-18.18 22.1,-27.18 2.74,-3.44 7.42,-4.66 9.84,-8.4 z"
       id="path10"
       inkscape:connector-curvature="0"
       style="fill:#f5e5c1" />
    <path
       d="m 515.38,113.46 c 3,-3.94 6.44,-7.5 10.34,-10.56 32.76,23.08 65.52,46.18 98.28,69.26 6.94,4.32 12.4,10.68 19.9,14.14 21.14,14.52 41.8,29.78 63,44.2 -2.96,3.84 -6.86,8.24 -4.98,13.5 2.58,10.92 7.26,21.22 10.88,31.8 -38.98,-6.36 -77.9,-13.16 -116.88,-19.54 -2.58,-0.44 -5.26,-0.92 -7.32,-2.64 -36.82,-27.2 -73.54,-54.54 -110.3,-81.82 -5.94,-3.18 -1.82,-10.42 1.18,-14.26 11.94,-14.72 24.06,-29.3 35.9,-44.08 z"
       id="path12"
       inkscape:connector-curvature="0"
       style="fill:#f5e5c1" />
    <path
       d="m 676.56,104.48 c 28.88,22.42 58.76,43.58 87.94,65.64 -7.02,8.56 -14.92,16.32 -22.56,24.3 -20.54,-13.1 -40.64,-26.84 -61.26,-39.78 -4.06,-16.42 0.04,-33.74 -4.12,-50.16 z"
       id="path14"
       inkscape:connector-curvature="0"
       style="fill:#f5e5c1" />
    <path
       d="m 625.7,165.14 c 12.8,-16.56 27.22,-31.8 40.76,-47.74 -1.1,9.54 3.56,21.36 -3.9,29.06 -7.78,9.24 -15.64,18.4 -23.18,27.84 -4.68,-2.88 -9.2,-5.98 -13.68,-9.16 z"
       id="path16"
       inkscape:connector-curvature="0"
       style="fill:#f5e5c1" />
    <path
       d="m 784.82,164.8 c 4.12,-3.96 7.5,-9.12 12.94,-11.38 4.46,-0.26 8.26,2.54 11.58,5.2 38.86,33.82 77.74,67.6 116.64,101.36 3.8,3.24 7.06,7.22 8.4,12.12 14.46,41.88 29.6,83.54 43.76,125.5 -3.28,3.38 -6.54,6.8 -9.78,10.22 -81.84,-59.5 -163.64,-119.04 -245.6,-178.38 20.72,-21.5 41.22,-43.24 62.06,-64.64 z"
       id="path18"
       inkscape:connector-curvature="0"
       style="fill:#f5722c" />
    <path
       d="m 483.66,190.02 c 19.52,14.56 39.02,29.14 58.44,43.86 -11.52,14.84 -23.26,29.48 -34.58,44.46 -6.76,-3.66 -12.44,-8.86 -18.56,-13.4 -12.98,-10.06 -26.16,-19.84 -39,-30.08 7.5,-5.36 14.28,-11.62 21.34,-17.5 8.84,-6.18 8.46,-18.22 12.36,-27.34 z"
       id="path20"
       inkscape:connector-curvature="0"
       style="fill:#f5e5c1" />
    <path
       d="m 408.9,250.96 c 5.02,-6.64 9.74,-13.82 16.88,-18.4 7.4,3.44 13.52,8.9 20.08,13.64 31.66,23.58 63.12,47.42 94.54,71.32 8.58,6.24 16.08,13.92 22.3,22.5 1.1,7.42 -3.64,14.32 -5.68,21.28 -1.58,5.86 -7.22,8.7 -12.36,10.86 -16.46,-13.2 -33.02,-26.32 -49.42,-39.58 -30.62,-22.72 -60.34,-46.64 -90.16,-70.38 0.94,-3.84 1.32,-8.02 3.82,-11.24 z"
       id="path22"
       inkscape:connector-curvature="0"
       style="fill:#f5e5c1" />
    <path
       d="m 514.04,284.18 c 11.76,-15.18 23.66,-30.26 35.6,-45.28 12.74,9.78 25.76,19.2 38.56,28.88 11.88,9.34 29.06,7.9 40.38,18.06 -18.86,14.8 -37.94,29.36 -57.14,43.68 -5.44,-2.04 -8.78,-8.08 -13.52,-11.52 -14.44,-11.5 -29.3,-22.48 -43.88,-33.82 z"
       id="path24"
       inkscape:connector-curvature="0"
       style="fill:#f5e5c1" />
    <path
       d="m 717.8,240.24 c 36.18,26.34 72.34,52.72 108.1,79.62 -19.28,-12.66 -38.8,-24.94 -58.06,-37.62 -3.82,-2.56 -8.5,-5.56 -13.2,-3.36 -4.58,4.4 -7.34,10.28 -10.82,15.52 -5.36,-3.18 -12.04,-5.96 -13.84,-12.54 -4.32,-13.78 -8.5,-27.64 -12.18,-41.62 z"
       id="path26"
       inkscape:connector-curvature="0"
       style="fill:#f5722c" />
    <path
       d="m 632.46,274.12 c 25.84,3.86 51.54,8.64 77.34,12.78 3.06,0.82 7.96,0.38 8.6,4.5 2.36,7.4 5.92,14.48 7.32,22.14 -0.5,3.96 -5.38,1.66 -7.84,1.78 -28.6,-4.7 -57.22,-9.38 -85.78,-14.3 3.98,-3.86 10.88,-6.86 10.76,-13.22 -1.94,-5.54 -6.36,-9.62 -10.4,-13.68 z"
       id="path28"
       inkscape:connector-curvature="0"
       style="fill:#f5e5c1" />
    <path
       d="m 324.56,404.02 c 31.82,-39.28 63.38,-78.78 95.2,-118.06 19.4,14.86 38.74,29.76 58.22,44.5 -33.68,39.76 -67.9,79.08 -101.78,118.66 -17.1,-15.16 -34.36,-30.14 -51.64,-45.1 z"
       id="path30"
       inkscape:connector-curvature="0"
       style="fill:#f5e5c1" />
    <path
       d="m 751.42,303.64 c 2.92,-3.8 4.5,-8.96 8.56,-11.66 19.5,11.54 38.14,24.56 57.56,36.28 -14.18,17.28 -29.14,33.94 -43.8,50.82 -18.4,-12.92 -36.74,-25.88 -55.06,-38.88 7.34,-8.58 14.3,-17.5 21.4,-26.26 3.1,-4.18 8.72,-5.7 11.34,-10.3 z"
       id="path32"
       inkscape:connector-curvature="0"
       style="fill:#f5722c" />
    <path
       d="m 673.14,327.26 c 2.2,-2.76 5.84,-6.9 9.6,-3.98 33.64,23.66 67.26,47.36 100.84,71.1 8.58,7.7 19.16,12.56 28.14,19.78 24.96,17.82 50.22,35.22 75.12,53.12 6.4,4.7 13.48,8.66 18.76,14.72 -3.94,5.32 -8.1,10.46 -12.28,15.58 -6.34,-0.08 -12.66,-0.8 -18.86,-2.08 -42.72,-7.32 -85.48,-14.44 -128.22,-21.66 -4.88,-2.24 -8.84,-6 -13.2,-9.06 -33.7,-24.96 -67.38,-49.94 -101,-75 -5.56,-3.32 -1.3,-10.24 1.58,-14 13.14,-16.18 26.42,-32.28 39.52,-48.52 z"
       id="path34"
       inkscape:connector-curvature="0"
       style="fill:#f5722c" />
    <path
       d="m 830.98,323.32 c 38.52,28.78 77.24,57.28 115.86,85.96 4.62,3.74 10.4,6.52 13.84,11.5 4.26,13.56 7.4,27.5 11.3,41.2 -5.5,-2.2 -11.14,-4.38 -15.54,-8.44 -9.06,-7.98 -19.66,-13.84 -29.6,-20.58 -30.72,-20.02 -61.26,-40.32 -92.14,-60.12 -3.8,-16.24 -0.32,-33.2 -3.72,-49.52 z"
       id="path36"
       inkscape:connector-curvature="0"
       style="fill:#f5722c" />
    <path
       d="m 475.5,341.54 c 2.78,-3.02 5.46,-9.32 10.4,-5.88 2.74,2.78 -0.94,5.72 -2.2,8.16 -26.16,33.78 -52.44,67.48 -78.7,101.2 -5.32,6.7 -9.88,14.22 -17.02,19.18 -3.18,-2.12 -6.36,-4.24 -9.52,-6.36 31.52,-39.42 66.56,-76 97.04,-116.3 z"
       id="path38"
       inkscape:connector-curvature="0"
       style="fill:#f5e5c1" />
    <path
       d="m 779.76,383.36 c 12.9,-16.48 27.28,-31.72 40.76,-47.7 -0.02,8.02 0.78,16.14 -0.32,24.14 -8.26,11.38 -18.12,21.58 -26.74,32.72 -4.7,-2.82 -9.26,-5.92 -13.7,-9.16 z"
       id="path40"
       inkscape:connector-curvature="0"
       style="fill:#f5722c" />
    <path
       d="m 484.16,354.14 c 2.66,-4.3 5.56,-8.46 8.94,-12.22 14.82,12.1 30.62,23.02 44.88,35.82 -4.52,4.96 -6.16,14.98 -13.8,15.28 -7.16,-7.42 -12.08,-16.64 -19.14,-24.12 -6.52,-5.5 -13.98,-9.76 -20.88,-14.76 z"
       id="path42"
       inkscape:connector-curvature="0"
       style="fill:#f5e5c1" />
    <path
       d="m 471.74,368.32 c 1.98,-2.08 3.96,-4.16 5.94,-6.24 6.5,5.04 13.78,9.06 20.06,14.4 3.3,4.24 5.22,9.38 7.68,14.14 -11.24,-7.4 -22.76,-14.42 -33.68,-22.3 z"
       id="path44"
       inkscape:connector-curvature="0"
       style="fill:#f5e5c1" />
    <path
       d="m 460.78,382.02 c 2.3,-2.68 4.62,-5.32 6.92,-7.98 13.1,8.7 26.22,17.38 39.56,25.72 -2.9,3.32 -5.76,6.66 -8.68,9.94 -12.42,-9.48 -25.2,-18.46 -37.8,-27.68 z"
       id="path46"
       inkscape:connector-curvature="0"
       style="fill:#f5e5c1" />
    <path
       d="m 456.36,387.66 c 13.04,8.36 25.08,18.2 37.88,26.96 -1.2,1.62 -2.38,3.24 -3.58,4.86 -12.6,-9.28 -25.76,-17.8 -38.42,-27 1.02,-1.2 3.08,-3.62 4.12,-4.82 z"
       id="path48"
       inkscape:connector-curvature="0"
       style="fill:#f5e5c1" />
    <path
       d="m 441.98,405.94 c 1.98,-2.66 3.98,-5.32 5.96,-7.98 12.92,8.68 25.46,17.92 38.48,26.4 -2.1,2.66 -4.18,5.32 -6.3,7.94 -12.82,-8.64 -25.42,-17.6 -38.14,-26.36 z"
       id="path50"
       inkscape:connector-curvature="0"
       style="fill:#f5e5c1" />
    <path
       d="m 304.06,410.02 c 3.42,-5.6 10.86,-2.38 14.96,0.78 16.4,13.4 32.5,27.18 48.54,41 -10.66,10.66 -21.14,21.5 -31.64,32.3 -3.22,2.38 -1.66,6.92 1.46,8.62 11.94,9.26 23.4,19.16 35.6,28.1 -6.24,7.76 -12.84,15.26 -19.02,23.08 -3.22,-4.62 -6.38,-9.58 -11.38,-12.5 -29.32,-18.2 -58.72,-36.32 -87.94,-54.72 16.66,-22.08 32.78,-44.56 49.42,-66.66 z"
       id="path52"
       inkscape:connector-curvature="0"
       style="fill:#f5e5c1" />
    <path
       d="m 637.74,408.28 c 19.48,14.56 38.92,29.16 58.38,43.78 -11.7,15.04 -23.16,30.3 -35.38,44.92 -18.68,-14.86 -37.94,-29 -56.68,-43.82 9.02,-6.74 17.58,-14.12 25.88,-21.7 3.7,-7.28 5.1,-15.5 7.8,-23.18 z"
       id="path54"
       inkscape:connector-curvature="0"
       style="fill:#f5722c" />
    <path
       d="m 431.92,418.18 c 1.9,-2.36 3.8,-4.72 5.7,-7.08 12.66,9.02 25.56,17.7 38.24,26.7 -2.38,2.6 -4.8,5.18 -7.22,7.78 -11.94,-9.52 -24.58,-18.12 -36.72,-27.4 z"
       id="path56"
       inkscape:connector-curvature="0"
       style="fill:#f5e5c1" />
    <path
       d="m 974.08,418.7 c 2.68,-2.92 5.36,-5.8 8.06,-8.66 2.52,11.34 5.82,22.5 8.16,33.86 1.4,4.28 -1.5,7.9 -3.96,11.02 -4.04,-12.1 -8.24,-24.14 -12.26,-36.22 z"
       id="path58"
       inkscape:connector-curvature="0"
       style="fill:#f5722c" />
    <path
       d="m 422.78,429.62 c 1.62,-2.04 3.24,-4.08 4.88,-6.1 12.4,9.12 24.72,18.36 37.26,27.3 -1.52,1.58 -3.04,3.16 -4.54,4.76 -12.28,-9.02 -25.04,-17.36 -37.6,-25.96 z"
       id="path60"
       inkscape:connector-curvature="0"
       style="fill:#f5e5c1" />
    <path
       d="m 412.72,441.92 c 1.9,-2.34 3.82,-4.7 5.72,-7.04 12.7,8.42 25.04,17.34 37.8,25.64 -2.06,2.94 -4.24,5.82 -6.44,8.68 -12.42,-9.02 -24.68,-18.24 -37.08,-27.28 z"
       id="path62"
       inkscape:connector-curvature="0"
       style="fill:#f5e5c1" />
    <path
       d="m 402.76,454.14 c 1.82,-2.22 3.64,-4.42 5.46,-6.62 12.78,8.3 24.58,18.02 37.06,26.76 -1.82,2.28 -3.66,4.58 -5.46,6.88 -12.34,-9.02 -24.72,-18 -37.06,-27.02 z"
       id="path64"
       inkscape:connector-curvature="0"
       style="fill:#f5e5c1" />
    <path
       d="m 559.04,480.2 c 2.2,-12.24 11.52,-21.88 20.82,-29.44 8.08,4.02 14.86,10.02 22.14,15.28 30.54,22.74 60.9,45.74 91.2,68.8 9.18,6.98 18.6,14.84 24,25.14 -1.34,8.54 -4.6,16.96 -8.74,24.56 -3.18,2.9 -8.58,7.56 -12.6,3.48 -21.48,-16.38 -41.7,-34.4 -63.8,-49.92 -24.22,-19.46 -49.12,-38.06 -73.02,-57.9 z"
       id="path66"
       inkscape:connector-curvature="0"
       style="fill:#f5722c" />
    <path
       d="m 668.14,502.36 c 11.88,-15 23.44,-30.26 35.64,-45.02 12.36,9.28 24.86,18.44 37.2,27.78 10.54,8.58 24.82,9.34 36.78,15.06 2,0.98 3.06,3.08 4.5,4.72 -19.54,14.08 -38.04,29.56 -57.74,43.4 -16.76,-17.66 -37.68,-30.52 -56.38,-45.94 z"
       id="path68"
       inkscape:connector-curvature="0"
       style="fill:#f5722c" />
    <path
       d="m 398.32,459.8 c 12.78,8.2 24.6,17.82 37.1,26.46 -1.72,2.04 -3.42,4.08 -5.12,6.12 -12.68,-8.5 -25.46,-16.8 -38,-25.5 2,-2.36 4.02,-4.72 6.02,-7.08 z"
       id="path70"
       inkscape:connector-curvature="0"
       style="fill:#f5e5c1" />
    <path
       d="m 376.55,464.9 c -8.46,10.02 -17.01,19.94 -25.75,29.7 18.98,14.98 37.3,30.84 56.9,45 9.04,-11.98 18.6,-23.53 27.6,-35.55 -19.4,-13.3 -39.11,-26.21 -58.75,-39.15 z m 29.45,24 c 5.62,2.26 12.03,4.41 15.85,9.35 -1.52,7.68 -8.3,13.08 -12,19.8 -3,3.26 -4.51,9.63 -9.75,9.45 -4.1,-3.6 -9.47,-7.75 -10.35,-13.25 4.78,-8.86 12.85,-15.69 16.25,-25.35 z"
       id="path72"
       style="fill:#f5e5c1"
       inkscape:connector-curvature="0" />
    <path
       d="m 245.1,482.15 c -15.46,18.1 -31.59,35.62 -47.95,52.9 C 131.53,608.95 65.5,682.45 0,756.45 l 0,38.6 c 8.16,9.46 17.29,18 25.75,27.2 7.36,8.72 19.96,7.73 30.1,10.55 9.48,2.88 20.74,2.98 27.9,-4.9 19.56,-22.48 38.46,-45.63 59.4,-66.85 56.32,-64.44 111.65,-129.72 167.35,-194.7 7.26,-8.4 17.34,-15.18 20.5,-26.4 -2.9,-7.66 -11.66,-9.03 -17.7,-13.25 -22.64,-15.02 -45.42,-29.77 -68.2,-44.55 z m 6.45,47.9 c 11.29298,-0.70848 22.1,9.9575 19.65,21.7 -1.46,13.8 -20.18,20.71 -30.3,11.25 -10.96,-8.46 -7.42,-27.82 5.8,-31.9 1.59499,-0.59499 3.23672,-0.94878 4.85,-1.05 z M 53.7,750.75 c 9.055312,0.0909 18.035,6.09 20.45,15.15 4.28,12.24 -5.35,26.56 -18.25,27.3 -12.1,1.74 -24,-9.12 -23.3,-21.3 -0.38,-8.16 5.03,-15.8 12.25,-19.2 2.79,-1.38501 5.831563,-1.98032 8.85,-1.95 z"
       id="path74"
       style="fill:#f5e5c1"
       inkscape:connector-curvature="0" />
    <path
       d="m 786.46,492.24 c 33.64,5.52 67.22,11.36 100.86,16.9 2.36,8.48 2.12,17.32 2.18,26.04 -11.24,0.48 -22.16,-2.64 -33.2,-4.16 -23.36,-3.62 -46.58,-8.24 -70.02,-11.18 3.58,-3.84 8.66,-6.8 10.64,-11.82 -0.3,-6.68 -6.28,-11.18 -10.46,-15.78 z"
       id="path78"
       inkscape:connector-curvature="0"
       style="fill:#f5722c" />
    <path
       d="m 903,504.16 c 2.34,-2.96 4.72,-5.9 7.14,-8.8 4.38,6.86 5.4,15.02 6.5,22.9 -2.62,2.18 -5.26,4.3 -7.98,6.32 -1.48,-6.92 -2.82,-13.92 -5.66,-20.42 z"
       id="path80"
       inkscape:connector-curvature="0"
       style="fill:#f5722c" />
    <path
       d="m 478.62,622.26 c 31.88,-39.22 63.44,-78.7 95.18,-118.04 19.3,15.18 39.38,29.42 58.24,45.18 -34.32,39 -67.78,78.78 -101.82,118.04 -16.98,-15.32 -34.36,-30.16 -51.6,-45.18 z"
       id="path82"
       inkscape:connector-curvature="0"
       style="fill:#f5722c" />
    <path
       d="m 358.38,549.84 c 4.74,-9.18 13.4,-16.32 19.54,-24.82 4.26,3.52 8.54,7.02 12.78,10.56 -6.7,10.12 -12.76,20.62 -19.5,30.72 -5.64,-4.22 -9.06,-10.66 -12.82,-16.46 z"
       id="path84"
       inkscape:connector-curvature="0"
       style="fill:#f5e5c1" />
    <path
       d="m 318.5,572.46 c 7.82,-8.76 15.04,-18.08 23.52,-26.26 7.86,8.14 12.8,18.46 19.08,27.76 -8.34,3.64 -12.02,12.64 -19.08,17.96 -53.12,56.9 -105.6,114.4 -158.58,171.42 -5.16,5.58 -9.5,11.88 -15,17.18 -19.94,20.12 -38.56,41.48 -58.22,61.86 -7.34,4.6 -16.32,5.74 -24.34,8.92 -5.02,2.7 -10.04,-0.44 -14.72,-2.26 -9.38,-4.24 -19.18,-7.56 -28.4,-12.22 10.54,0.56 20.66,4.02 31.18,4.52 6.74,-4.4 14.92,-6.78 20.24,-13.12 C 169,743 243.72,657.72 318.5,572.46 z"
       id="path88"
       inkscape:connector-curvature="0"
       style="fill:#f5e5c1" />
    <path
       d="m 632.36,556.38 c 1.74,-3.72 7.02,-5.12 8.72,-0.42 -1.5,4.98 -5.48,8.64 -8.48,12.76 -27.56,35.78 -55.54,71.26 -83.1,107.04 -2.26,2.54 -4.84,6.14 -8.68,5.74 -2.96,-1.58 -5.62,-3.6 -8.34,-5.5 32.76,-40.3 68.46,-78.22 99.88,-119.62 z"
       id="path90"
       inkscape:connector-curvature="0"
       style="fill:#f5722c" />
    <path
       d="m 646.52,560.2 c 15.5,11.46 30.88,23.14 45.52,35.7 -4.34,4.98 -6.02,14.64 -13.44,15.46 -7.66,-7.14 -12.3,-16.86 -19.6,-24.3 -6.52,-5.46 -13.94,-9.68 -20.78,-14.7 2.76,-4.06 5.54,-8.12 8.3,-12.16 z"
       id="path92"
       inkscape:connector-curvature="0"
       style="fill:#f5722c" />
    <path
       d="m 625.92,587.14 c 1.86,-2.32 3.7,-4.64 5.6,-6.94 5.38,4 10.98,7.68 16.48,11.52 6.36,3.82 8.3,11.42 11.8,17.5 -11.24,-7.46 -22.48,-14.88 -33.88,-22.08 z"
       id="path94"
       inkscape:connector-curvature="0"
       style="fill:#f5722c" />
    <path
       d="m 615.04,600.24 c 2.2,-2.64 4.38,-5.3 6.56,-7.96 13.22,8.62 26.32,17.44 39.72,25.76 -2.86,3.36 -5.84,6.66 -8.9,9.86 -12.18,-9.6 -25.1,-18.2 -37.38,-27.66 z"
       id="path96"
       inkscape:connector-curvature="0"
       style="fill:#f5722c" />
    <path
       d="m 606.02,610.18 c 2.02,-0.7 4.12,-5.12 6.6,-3.02 11.92,8.28 23.4,17.2 35.32,25.48 -0.5,1.24 -1.48,3.72 -1.98,4.96 -13.9,-8.18 -27,-17.82 -39.94,-27.42 z"
       id="path98"
       inkscape:connector-curvature="0"
       style="fill:#f5722c" />
    <path
       d="m 596.04,624.16 c 2,-2.64 4,-5.26 6,-7.88 12.82,8.7 25.42,17.72 38.3,26.34 -2,2.62 -4,5.24 -6.02,7.86 -13.02,-8.38 -25.54,-17.54 -38.28,-26.32 z"
       id="path100"
       inkscape:connector-curvature="0"
       style="fill:#f5722c" />
    <path
       d="m 458.24,628.2 c 3.36,-5.58 10.66,-2.2 14.72,0.82 16.46,13.34 32.5,27.22 48.62,41 -10.68,11.16 -21.88,21.86 -32.34,33.22 -2.5,2.42 -0.5,5.96 1.9,7.52 11.86,9.26 23.36,18.98 35.4,28.04 -5.24,8.46 -12.48,15.42 -18.5,23.3 -3.28,-4.66 -6.5,-9.68 -11.6,-12.58 -29.26,-17.9 -58.16,-36.42 -87.56,-54.12 16.04,-22.7 32.82,-44.9 49.36,-67.2 z"
       id="path102"
       inkscape:connector-curvature="0"
       style="fill:#f5722c" />
    <path
       d="m 585.94,636.28 c 1.96,-2.24 3.92,-4.46 5.9,-6.66 12.74,8.7 25.32,17.58 38.02,26.34 -2.34,2.64 -4.7,5.24 -7.06,7.86 -12.04,-9.52 -24.82,-18.04 -36.86,-27.54 z"
       id="path104"
       inkscape:connector-curvature="0"
       style="fill:#f5722c" />
    <path
       d="m 576.78,647.8 c 1.66,-1.98 3.32,-3.96 5,-5.92 12.28,8.96 24.44,18.1 36.8,26.96 -1.34,1.68 -2.7,3.36 -4.06,5.04 -12.36,-9 -25.16,-17.4 -37.74,-26.08 z"
       id="path106"
       inkscape:connector-curvature="0"
       style="fill:#f5722c" />
    <path
       d="m 566.78,660.14 c 1.78,-2.24 3.58,-4.44 5.38,-6.66 13.24,7.6 25.24,17.18 38.14,25.34 -2.06,2.92 -4.22,5.78 -6.4,8.62 -12.48,-8.96 -24.76,-18.18 -37.12,-27.3 z"
       id="path108"
       inkscape:connector-curvature="0"
       style="fill:#f5722c" />
    <path
       d="m 562.34,665.7 c 12.62,8.42 24.36,18.04 36.86,26.64 -1.74,2.36 -3.46,4.74 -5.18,7.12 -12.4,-8.98 -24.82,-17.92 -37.1,-27.08 1.8,-2.24 3.62,-4.46 5.42,-6.68 z"
       id="path110"
       inkscape:connector-curvature="0"
       style="fill:#f5722c" />
    <path
       d="m 552.46,677.92 c 12.56,8.48 24.46,17.88 36.94,26.52 -1.7,2.06 -3.4,4.12 -5.1,6.2 -12.64,-8.24 -24.9,-17.02 -37.76,-24.9 1.96,-2.62 3.92,-5.24 5.92,-7.82 z"
       id="path112"
       inkscape:connector-curvature="0"
       style="fill:#f5722c" />
    <path
       d="m 530.3,683.5 c -8.18,10.14 -17.13,19.65 -25.35,29.75 19.2,14.56 37.21,30.67 56.85,44.65 8.96,-12.06 18.77,-23.49 27.45,-35.75 C 569.59,709.27 550.5,695.48 530.3,683.5 z m 30.95,23.3 c 4.7,3.76 12.95,4.76 14.75,11.1 -4.92,9.34 -11.7,17.64 -17.7,26.3 -3.1,3.92 -7.06,-0.8 -9.3,-3.2 -2.86,-2.94 -7.17,-7.5 -3.45,-11.5 5.42,-7.44 11.04,-14.74 15.7,-22.7 z"
       id="path114"
       style="fill:#f4722b"
       inkscape:connector-curvature="0" />
    <path
       style="fill:#f4722b"
       d="M 399.4,700.35 C 385.36,715.97 371.88,732.11 357,746.95 285.94,826.63 214.9,906.4 143.8,986 c -0.42,4.88 2.67,9.22 4.25,13.7 2.46,4.88 3.66,10.73 7.8,14.55 36.14,0.68 72.31,-0.07 108.45,0.35 10.86,-11.2 20.96,-23.16 32,-34.2 56.66,-64.78 112.26,-130.43 168.3,-195.75 7.28,-8.4 17.9,-15.3 20.3,-26.8 -3.02,-7.66 -12,-8.57 -17.9,-13.05 -22.36,-15.08 -45.22,-29.39 -67.6,-44.45 z m 7.8,48 c 9.27646,0.24558 18.12,7.81501 18.25,17.5 1.04,9.84 -7.45,19.51 -17.35,19.65 -9.92,1.12 -19.48,-7.56 -19.6,-17.5 -0.82,-8.12 4.76,-15.94 12.3,-18.6 2.08499,-0.79125 4.25928,-1.10667 6.4,-1.05 z m -200.45,220.6 c 11.34926,-0.59538 22.63626,9.08688 22.4,20.95 0.76,12.28 -11.19,23.22 -23.35,21.6 -13.2,-0.68 -22.7,-15.57 -18.2,-27.95 2.02,-6.04 6.88,-10.99 12.9,-13.15 2.03125,-0.86563 4.14829,-1.33974 6.25,-1.45 z"
       id="path116"
       inkscape:connector-curvature="0" />
    <path
       d="m 511.84,767.8 c 6.34,-8.38 13.34,-16.2 20.06,-24.24 4.4,3.28 8.7,6.7 12.88,10.26 -7.26,10.06 -12.16,21.86 -20.74,30.88 -4.16,-5.58 -8.14,-11.28 -12.2,-16.9 z"
       id="path120"
       inkscape:connector-curvature="0"
       style="fill:#f5722c" />
    <path
       d="m 439,829.04 c 19.16,-21.38 37.48,-43.54 57.02,-64.58 7.88,8.08 12.78,18.34 19.1,27.56 -3.14,1.86 -6.24,3.86 -8.4,6.86 -51.62,55.02 -102.52,110.8 -153.8,166.16 -15.64,15.68 -28.62,33.92 -45.26,48.58 -10.1,2.06 -20.72,0.44 -31.02,0.76 53.92,-61.96 108.3,-123.5 162.36,-185.34 z"
       id="path126"
       inkscape:connector-curvature="0"
       style="fill:#f5722c" />
  </g>
</svg>
