<?xml version="1.0" encoding="UTF-8" standalone="no"?>
<svg
   xmlns:dc="http://purl.org/dc/elements/1.1/"
   xmlns:cc="http://creativecommons.org/ns#"
   xmlns:rdf="http://www.w3.org/1999/02/22-rdf-syntax-ns#"
   xmlns:svg="http://www.w3.org/2000/svg"
   xmlns="http://www.w3.org/2000/svg"
   xmlns:sodipodi="http://sodipodi.sourceforge.net/DTD/sodipodi-0.dtd"
   xmlns:inkscape="http://www.inkscape.org/namespaces/inkscape"
   width="1280"
   height="1280"
   viewBox="0 0 1024 1024"
   version="1.1"
   id="svg2"
   inkscape:version="0.48.1 "
   sodipodi:docname="kill_snipers_sentry.svg">
  <metadata
     id="metadata80">
    <rdf:RDF>
      <cc:Work
         rdf:about="">
        <dc:format>image/svg+xml</dc:format>
        <dc:type
           rdf:resource="http://purl.org/dc/dcmitype/StillImage" />
      </cc:Work>
    </rdf:RDF>
  </metadata>
  <defs
     id="defs78" />
  <sodipodi:namedview
     pagecolor="#ffffff"
     bordercolor="#666666"
     borderopacity="1"
     objecttolerance="10"
     gridtolerance="10"
     guidetolerance="10"
     inkscape:pageopacity="0"
     inkscape:pageshadow="2"
     inkscape:window-width="1920"
     inkscape:window-height="1018"
     id="namedview76"
     showgrid="false"
     inkscape:snap-page="true"
     fit-margin-top="0"
     fit-margin-left="0"
     fit-margin-right="0"
     fit-margin-bottom="0"
     inkscape:zoom="0.6609375"
     inkscape:cx="466.00473"
     inkscape:cy="640"
     inkscape:window-x="-8"
     inkscape:window-y="-8"
     inkscape:window-maximized="1"
     inkscape:current-layer="layer1" />
  <g
     inkscape:groupmode="layer"
     id="layer1"
     inkscape:label="background"
     style="display:inline">
    <rect
       style="fill:#3e3e3e;fill-opacity:1;fill-rule:nonzero;stroke:none"
       id="rect3061"
       width="1024"
       height="1024"
       x="0"
       y="0" />
  </g>
  <g
     inkscape:groupmode="layer"
     id="layer2"
     inkscape:label="foreground">
    <path
       d="M 370.22,24.28 C 403.08,11.22 439.74,8.6 474.3,15.5 c 46.12,9.42 87.32,37.38 115.9,74.42 31.46,40.8 47.9,92.66 46.86,144.08 -0.3,53.98 -20.64,107.7 -56.72,147.92 2.66,-20.08 -5.16,-40.56 -20.22,-54.02 -10.78,-10.5 -26.14,-12.24 -40.04,-15.7 12.94,-25.12 14.98,-54.54 10.26,-82.06 -5.38,-30.2 -22.68,-59.14 -49.58,-74.78 -25.84,-15.64 -59.98,-16.02 -86.12,-0.88 -27.64,15.34 -44.84,45.06 -50.26,75.6 -4.96,29.32 -2.5,61 12.5,87.2 14.32,26.66 41.02,46.62 71.16,51.08 -1.76,7.68 -2.88,15.72 -0.68,23.42 2.82,10.02 3.72,21.28 10.82,29.44 7.46,9.8 17.36,17.48 27.7,24.06 -34.42,4.62 -70.22,1.06 -102.18,-12.94 C 313.74,411.02 273.9,368.5 253.68,318.32 230.3,261.54 231,195.52 254.98,139.08 276.32,87.76 318.12,44.48 370.22,24.28 z"
       id="path6"
       inkscape:connector-curvature="0"
       style="fill:#f5722c" />
    <path
       d="m 104.82,20.86 c 2.04,-1.66 4,-4.44 7.04,-3.84 30.78,1.7 61.54,4.12 92.32,5.86 1.92,0.52 6.36,-0.58 5.74,2.86 0.38,6.1 -0.18,12.18 -0.44,18.26 -5.92,134.36 -11.5,268.76 -17.54,403.12 -36.58,-1.72 -73.18,-3.4 -109.72,-5.84 C 86.3,343.22 89.58,245.14 93.4,147.1 83.78,156.22 74.44,165.64 65.46,175.4 47.64,154.38 30.18,133.04 12.38,111.96 43.4,81.82 73.82,51.04 104.82,20.86 z"
       id="path8"
       inkscape:connector-curvature="0"
       style="fill:#f5722c" />
    <path
       d="m 494.28,326.26 c 12.64,-3.22 25.38,0.86 37.7,3.46 12.68,2.86 22.5,12.42 29.44,22.96 7.18,12.2 5.74,27.28 1.8,40.3 -2.84,9.96 -10.16,17.78 -17.78,24.42 -7.4,6.52 -16.98,9.58 -25.38,14.46 -3.1,-3.6 -5.46,-8.2 -9.82,-10.44 -9.48,0.26 -18.98,1.62 -28.32,3.22 -4.64,0.22 -4.82,5.78 -6.16,8.98 -16.08,-7.02 -29.42,-21.24 -32.94,-38.74 -7.32,-22.44 5.04,-48.04 25.76,-58.36 8.36,-3.88 16.78,-7.84 25.7,-10.26 z"
       id="path10"
       inkscape:connector-curvature="0"
       style="fill:#f5e5c1" />
    <path
       d="m 483.62,433.02 c 7.92,-2.1 16.1,-3.28 24.28,-3.42 5.82,7.72 12.24,15.26 15.94,24.3 -13.78,-3.56 -28.12,-4.32 -42.22,-2.58 -0.14,-6.18 0.96,-12.26 2,-18.3 z"
       id="path12"
       inkscape:connector-curvature="0"
       style="fill:#f5e5c1" />
    <path
       d="m 0,437.14 c 148.88,49.54 297.5,99.86 445.62,151.62 2.42,0.84 4.54,2.44 5.22,5.06 -1.78,3.94 -4.22,7.52 -6.54,11.16 C 327.58,572.94 210.5,542.2 93.66,510.64 62.2,503.46 31.04,494.92 0,486.14 l 0,-49 z"
       id="path14"
       inkscape:connector-curvature="0"
       style="fill:#f5722c" />
    <path
       d="m 644.7,472.72 c 6.48,-8.72 16.42,-13.46 25.02,-19.66 5.68,1.16 14.16,-0.2 16.6,6.6 2.3,8.16 0.58,17.42 -4.3,24.36 -9.38,14.7 -19.34,30.76 -35.74,38.36 -6.34,3.56 -11.58,8.84 -18.36,11.66 -7.48,4 -15.88,5.56 -24.16,6.9 -0.62,-1.38 -1.88,-4.14 -2.5,-5.52 6.1,-3.98 13.5,-4.82 19.98,-7.98 12.42,-5.54 23.08,-14.16 33.52,-22.72 10.58,-8.6 18.04,-20.54 22.7,-33.24 1.62,-3.04 0.12,-6.2 -0.64,-9.22 -19,4.18 -33.46,20.94 -36.98,39.76 -1.02,7.34 -4.44,14.1 -10.78,18.24 -0.5,-16.8 3.28,-35.34 15.64,-47.54 z"
       id="path16"
       inkscape:connector-curvature="0"
       style="fill:#f5e5c1" />
    <path
       style="fill:#f5e5c1"
       d="m 494.1,459 c -12.14,0.36 -25.33,1.8 -34.55,10.6 -26.98,21.04 -30.79,64.98 -7.25,90 9.94,8.78 22.96,13.24 35.9,15.3 9.14,1.56 17.27,6.35 26.15,8.85 10.68,2.82 20.12,11.61 31.8,9.25 14.84,-3.22 25.93,-14.58 34.95,-26.1 3.92,-5.58 8.21,-11.66 8.05,-18.8 -0.02,-9.52 0.57,-19.41 -3.35,-28.35 -2.02,-6.2 -7.63,-11.05 -7.25,-17.95 -2.72,-4.56 -4.94,-9.71 -9.2,-13.05 -13.2,-8.2 -26.13,-16.89 -39.95,-24.05 -11.12,-4.62 -23.34,-5.96 -35.3,-5.7 z m -2.9,7.35 c 4.96,-0.1025 9.99,0.34 14.85,0.85 17.7,4.24 32.53,18.98 36.75,36.7 1.22,11.18 1.97,23.3 -3.35,33.6 -6.44,13.42 -18.99,23.94 -33.55,27.3 -11.22,1.34 -23.32,1.77 -33.6,-3.65 -13.86,-6.66 -24.64,-19.75 -27.5,-34.95 -5.72,-23.56 9.21,-49.41 31.85,-57.45 4.68,-1.68 9.59,-2.2975 14.55,-2.4 z"
       id="path18"
       inkscape:connector-curvature="0" />
    <path
       d="m 691.94,478.1 c 11.12,-4.22 22.88,0.38 33.06,5 4.82,1.68 6.06,7.1 8.36,11.08 -13.16,13.22 -25.42,28.36 -42.68,36.42 -12.48,6.44 -24.04,14.52 -34.82,23.5 -3.48,-4.2 -6.96,-8.38 -10.7,-12.32 -0.32,-3.36 -0.54,-6.72 -0.72,-10.08 10.18,-8.86 21.98,-16.2 29.82,-27.46 6.64,-8.2 10.76,-18.22 17.68,-26.14 z"
       id="path22"
       inkscape:connector-curvature="0"
       style="fill:#f5e5c1" />
    <path
       d="m 735.6,487.55 c 0.98,6.08 4.2,11.27 8.4,15.65 1.86,0.04 3.75,0.09 5.65,0.15 -6.52,5.4 -13.07,11.4 -21.45,13.7 -15.3,4.36 -27.91,14.65 -42.65,20.35 -10.04,3.9 -18.73,10.36 -27.55,16.4 1.36,3.7 2.81,7.41 4.15,11.15 18.58,-14.76 39.74,-26.14 61.9,-34.5 5.52,-2.52 11.31,0.61 16.95,1.15 1.62,1.08 3.29,2.17 4.95,3.25 1.42,0.04 4.23,0.11 5.65,0.15 8.08,4.72 14.17,12.12 20.25,19.1 4.72,5.4 8.94,11.72 9.5,19.1 -3.64,-0.14 -7.28,-0.33 -10.9,-0.55 3,12.62 4.69,25.52 4.45,38.5 -7.14,-0.72 -14.35,-1.05 -21.45,-2.15 l -2.15,-2.4 c 5.34,-2.68 8.78,-7.41 9,-13.45 -5.48,4.04 -11.81,8.45 -13.85,15.25 -1.64,13.34 4.56,26.17 2.9,39.55 -2.9,-1.44 -5.72,-3.09 -8.4,-4.85 0.06,3.8 -1.65,6.98 -4.25,9.6 -2.92,-3.02 -5.69,-8.11 -10.65,-7.25 -8.72,2.84 -17.56,5.19 -26.4,7.65 -1.8,2.82 -3.5,5.76 -5.6,8.4 -4.26,0.16 -2.47,-5.22 -3.45,-7.9 10.24,-6.16 22.2,-7.79 33.4,-11.45 4.78,-1.5 9.74,-2.33 14.7,-3.05 -5.54,-4.54 -9.44,-10.7 -14.9,-15.3 -3.72,-3.1 -8.21,0.07 -12.05,1.05 -6.62,2.36 -14.9,1.23 -19.9,7.05 -4.3,6.5 -4.63,14.66 -6.15,22.1 -4.88,12.48 2.15,26.44 11.05,35.4 6.78,7.22 17.27,6.16 26.25,5.7 -1.26,-5.46 -5.47,-11.46 -3.05,-17 14.46,-15.74 36.63,-23.38 47.95,-42.2 3.86,-5.72 8.45,-11.54 9.05,-18.7 0.82,-12.12 -0.02,-24.28 -0.4,-36.4 2.54,0.22 5.11,0.36 7.65,0.8 1.7,1.98 2.38,4.55 3.3,6.95 -1.12,0.24 -3.38,0.73 -4.5,0.95 0,-1.12 -0.02,-3.33 0,-4.45 -1.1,-0.12 -3.27,-0.38 -4.35,-0.5 0.72,11.1 0.78,22.23 0.4,33.35 2.74,-1.34 6.68,-1.24 8.5,-3.9 2.68,-11.12 3.81,-22.63 3.05,-34.05 8.56,-4.7 17.38,-10.85 21.6,-19.95 0.4,-10.86 -6.38,-20.85 -13.6,-28.55 -5.84,-6.28 -9.55,-14.44 -16.45,-19.7 -4.78,-3.82 -11.49,-3.58 -16.25,-7.4 -9.2,-7 -18.12,-15.78 -30.3,-16.8 z M 704.7,661.3 c 0.7825,0.065 1.5,0.9 2.2,2.5 -1.78,2.84 -3.34,2.72 -4.7,-0.4 0.87,-1.46 1.7175,-2.16499 2.5,-2.1 z"
       id="path24"
       style="fill:#f5e5c1"
       inkscape:connector-curvature="0" />
    <path
       d="m 582.72,501.28 c 8.46,5.76 17.6,10.4 26.66,15.14 4.94,2.66 10.82,2.64 15.7,5.5 -5.3,2.78 -11.12,4.24 -17.06,4.8 -2.52,-0.98 -5.06,-1.96 -7.68,-2.56 -1.9,1.14 -3.02,3.12 -4.42,4.78 1.96,2.2 4.1,4.38 5.26,7.16 3.72,9.02 9.08,17.44 10.38,27.28 4.38,-2.9 8.58,-6.24 11.18,-10.9 3.84,-6.7 10.54,-10.84 15.92,-16.14 5.16,11.2 13.8,20.5 18.88,31.76 0.6,6.46 -1.54,12.84 -4.78,18.34 -9.32,14.14 -24.36,24.3 -41.14,27.04 -0.84,-1.7 -1.7,-3.42 -2.52,-5.12 0.36,11.7 -2.44,23.24 -2.08,34.9 5.44,4.2 11.86,6.9 17.84,10.24 0.04,2.04 0.08,6.16 0.1,8.2 -13.66,-1.02 -27.22,1.12 -40.78,1.88 -14.88,-7.64 -30.8,-13.74 -44.6,-23.34 -8.24,2.8 -16.7,6.78 -25.64,4.82 -12.74,-2.52 -25.22,-6.18 -37.94,-8.68 -8.6,-2.28 -17.42,-3.74 -25.94,-6.26 -9.5,-4.92 -19.74,-10.22 -24.78,-20.2 7.6,1.5 15.06,3.66 22.64,5.26 4.88,-5.64 11.8,-10.8 11.88,-18.98 0.08,-4.02 0.7,-10.06 -3.82,-11.94 -6.96,-3.24 -14.46,-5.12 -21.62,-7.8 5.98,-2.96 12.7,-6.9 19.58,-4.34 15.92,4.92 31.08,12.02 47.02,16.92 11.02,3.94 22.56,7.2 32.48,13.56 7.82,9.9 11.66,23.98 7.4,36.2 6.96,-1.48 7.9,-8.88 9,-14.64 1.12,-1.72 2.22,-3.46 3.3,-5.2 9.24,1.6 18.6,2.18 27.96,2.32 3.44,6.46 0.96,13.88 2.28,20.76 1.18,0.64 3.54,1.94 4.72,2.6 1.08,-10.8 0.02,-21.74 1.72,-32.46 4.16,-9.92 14.56,-14.02 22.66,-19.96 -16.52,4.1 -32.86,9.58 -50.02,10.3 22.14,-13.06 34.98,-39.2 34.04,-64.58 -3.18,-12.7 -7.2,-25.24 -13.78,-36.66 z"
       id="path26"
       inkscape:connector-curvature="0"
       style="fill:#f5e5c1" />
    <path
       d="m 712.7,538.9 c 8.8,-4.88 19.06,-4.14 28.74,-4 0.22,4.98 -0.6,10.1 0.58,14.98 3.32,3.98 8.22,6.18 12.42,9.1 -10.9,3.86 -21.52,-2.16 -32.54,-1.74 -7.32,-0.5 -14.06,2.78 -20.46,5.86 -0.86,2.54 -1.76,5.08 -2.64,7.62 -7.92,-1.74 -15.38,5.48 -22.78,0.84 -1.76,-0.2 -5.28,-0.6 -7.04,-0.78 -1.42,2.18 -2.8,4.4 -4.18,6.62 -0.48,-2.86 -0.94,-5.72 -1.46,-8.56 14.34,-13.1 32.06,-21.56 49.36,-29.94 z"
       id="path28"
       inkscape:connector-curvature="0"
       style="fill:#f5e5c1" />
    <path
       d="m 134,564 c -1.39824,0.0184 -2.795,0.1075 -4.2,0.25 -14.96,1.18 -29.08,10.01 -36.7,22.95 -8.66,13.94 -9.3,32.42 -1.6,46.9 6.32,12.34 18.42,21.59 32,24.35 8.14,1.64 16.27,3.43 24.55,4.25 83.7,8.48 167.33,17.58 251.05,25.7 17.16,1.12 34.29,3.87 51.55,3.15 0.06,0.3 0.19,0.9 0.25,1.2 13.76,-1.02 27.36,1.95 41.1,1.85 10.22,0.28 20.48,0.85 30.7,0.85 4.74,-9 5.88,-19.4 4.8,-29.4 -0.84,-4.96 -3.26,-9.64 -2.8,-14.8 -14.28,-1.68 -28.12,-6.06 -42.2,-8.9 -16.9,-4.3 -34.21,-7.02 -50.65,-12.9 C 342.23,609.11 252.54,589 162.9,568.7 153.3975,566.5475 143.7877,563.87094 134,564 z m -7.7,9.3 c 17.24434,-0.26562 34.02187,13.21688 36.3,30.75 4.02,20.2 -11.94,41.6 -32.6,42.9 -19.38,2.4 -38.92,-13.45 -39.7,-33.15 -1.96,-17.16 9.97,-34.17 26.45,-38.85 3.13437,-1.05312 6.3566,-1.60082 9.55,-1.65 z"
       id="path30"
       style="fill:#f5e5c1"
       inkscape:connector-curvature="0" />
    <path
       d="m 744.48,564.46 c 4.84,0.08 9.64,0.82 14.16,2.62 0.5,8.44 4.74,17.26 0.26,25.3 -6.2,4.9 -14.16,10.6 -14.06,19.38 -1.18,11.78 4,22.96 3.72,34.7 -5.42,-2.88 -7.72,-8.92 -12.26,-12.76 -5.82,-4.84 -10.8,-11.32 -18.44,-13.26 -0.6,-3.54 -2.56,-6.3 -5.56,-8.2 -1.02,1.06 -3.06,3.16 -4.08,4.22 -5.9,0.82 -11.66,3.18 -17.62,2.96 -3.48,-3.96 -6.06,-9.6 -12.18,-9.36 -0.42,8.38 5.58,19 14.84,18.94 -7.8,6.94 -4.4,19.3 -10.58,26.64 -0.78,-0.88 -2.32,-2.66 -3.1,-3.54 -1.54,-10.5 -5.54,-20.36 -9.82,-29.98 -0.76,-3.22 -1.72,-6.38 -2.74,-9.5 1.42,0.08 4.28,0.26 5.7,0.34 10.54,-8.08 11.28,-23.12 10.08,-35.3 4.84,-1.66 9.82,-2.86 14.96,-3.1 -0.42,8.92 6.36,15.86 13.84,19.54 6.96,2.68 15.9,5.1 22.08,-0.64 9.92,-5.94 11.94,-18.4 10.8,-29 z"
       id="path32"
       inkscape:connector-curvature="0"
       style="fill:#f5e5c1" />
    <path
       d="m 704.82,584.02 c 7.54,-2.24 13.48,-7.72 20.06,-11.78 -0.02,1.26 -0.08,3.76 -0.1,5.02 4.66,-1.52 9.28,-3.18 13.94,-4.68 0,3.3 0.02,6.62 0.08,9.94 -4.54,6.98 -12.82,9.94 -20.78,10.5 -4.14,-2.54 -8.44,-4.78 -12.84,-6.8 -0.1,-0.54 -0.28,-1.64 -0.36,-2.2 z"
       id="path34"
       inkscape:connector-curvature="0"
       style="fill:#f5e5c1" />
    <path
       d="m 658.56,604.02 c 7.2,-7.08 13.4,-15.44 22.58,-20.16 -1.04,6.84 -2.78,13.54 -4.56,20.22 -3.94,2.74 -7.32,8.08 -12.78,6.86 -2.34,-1.8 -4.08,-4.26 -5.24,-6.92 z"
       id="path38"
       inkscape:connector-curvature="0"
       style="fill:#f5e5c1" />
    <path
       d="m 665.22,632.04 c 0.14,-2.64 -0.36,-6.02 2.18,-7.7 3.88,9.54 8.08,19.08 10.14,29.26 -7.26,-4.66 -12.5,-12.78 -12.32,-21.56 z"
       id="path40"
       inkscape:connector-curvature="0"
       style="fill:#f5e5c1" />
    <path
       d="m 785.98,631.74 c 2.32,-5.5 9.28,-5.32 14.08,-7.24 2.2,2.46 4.4,4.92 6.6,7.42 4.46,-0.26 9.34,-2.46 13.62,-0.26 3.78,4.9 6.1,10.74 9.06,16.16 -5.08,1.44 -10.22,3.46 -13.34,8 -19.12,24.58 -37.22,49.98 -56.76,74.24 -6.82,-5.74 -10.22,-14.68 -15.5,-21.78 -5.54,-7.38 -8.78,-16.04 -11.24,-24.86 11.2,-8.42 22.48,-16.74 33.54,-25.34 7.92,-7.66 14.66,-16.66 19.94,-26.34 z"
       id="path42"
       inkscape:connector-curvature="0"
       style="fill:#f5e5c1" />
    <path
       d="m 537.76,665.98 c -2.34,-7.06 -7.94,-13.2 -7.02,-21.04 3.6,0.24 7.44,-0.56 10.86,0.88 14.94,6.38 28.5,17.16 45.06,18.94 -2.04,4.68 0.24,9.14 2.18,13.36 -0.62,2.6 -1.24,5.2 -1.84,7.8 -7.58,7.84 -19.58,13.56 -30.36,9.44 -10.38,-6.36 -14.36,-18.74 -18.88,-29.38 z"
       id="path44"
       inkscape:connector-curvature="0"
       style="fill:#f5e5c1" />
    <path
       d="m 840.34,658.84 c 9.96,-2.08 19.52,-6.28 29.7,-7.16 7.62,2.6 14.48,6.96 21.62,10.6 9.76,5.4 19.98,10.24 28.56,17.5 6.06,5.1 13.26,9.26 17.42,16.26 7.56,11.9 9.08,26.14 11.36,39.72 3.98,16.36 8.36,32.68 11.26,49.28 1.04,14.14 0.8,28.34 1.4,42.5 -2.94,-2.74 -5.92,-5.42 -8.9,-8.08 -1.74,-19.12 -1.86,-38.32 -4.32,-57.38 -3.92,-19.54 -8.58,-39.16 -17.38,-57.14 -8.88,-11.42 -23.24,-16 -35.38,-22.94 -7.56,-3.46 -14.48,-9.06 -23.08,-9.6 -16.72,6.62 -34.18,11.64 -50.18,19.98 -5.08,2.3 -7.4,8.34 -6.3,13.6 3.16,20.1 6.46,40.16 9.48,60.26 -12.74,-8.76 -25.62,-17.62 -40,-23.54 -4.66,-2.06 -9.68,-3.48 -13.86,-6.5 16.2,-23.7 34.54,-45.92 51.52,-69.1 3.48,-6.06 11.08,-6.36 17.08,-8.26 z"
       id="path46"
       inkscape:connector-curvature="0"
       style="fill:#f5e5c1" />
    <path
       d="m 637.38,674.26 c 1.34,-2.96 1.92,-6.1 1.86,-9.32 15.96,8.5 30.72,18.92 45.7,28.98 -0.28,3.36 -0.52,6.74 -0.76,10.12 4.74,-3.84 9.42,-7.7 14.14,-11.54 2.12,2 4.26,4 6.14,6.26 -8.42,4.02 -17.1,8.64 -26.48,9.52 -6.64,-1.36 -15.34,-0.36 -19.64,-6.58 -6.98,-9.16 -13.9,-18.36 -20.96,-27.44 z"
       id="path50"
       inkscape:connector-curvature="0"
       style="fill:#f5e5c1" />
    <path
       style="fill:#f5e5c1"
       d="m 614.5,674.35 c -4.5975,-0.015 -9.2,0.05 -13.8,0.05 2.04,9.08 5.49,22.36 -4.55,27.9 -8.48,4.58 -16.96,10.06 -26.7,11.3 -1.98,4.12 -3.36,10.77 -9.4,9.65 -14.96,-0.2 -29.94,-0.47 -44.9,-0.45 -2.46,18.38 -13.85,36.2 -31.85,42.5 -0.66,4.16 -2.51,8.29 -2.05,12.55 3.3,6.66 7.5,12.99 12.8,18.25 5.3,1.46 11.08,0.56 16.2,2.8 6.68,2.84 13.08,6.27 19.6,9.45 11.02,6.18 24.07,5.62 36.15,8 9.98,1.06 20.15,4.69 30.15,1.65 17.28,-4.6 34.35,-10.04 51.65,-14.5 3.16,0.82 6.25,1.99 9.35,3.05 0.32,9.12 0.41,19.04 5.95,26.8 2.88,-0.88 5.61,-2.97 8.75,-2.75 4.56,-0.12 5.64,5.38 8,8.3 4.12,1.12 8.27,2.13 12.45,3.05 10,-16.56 17.77,-34.28 26.35,-51.6 2.66,-5.14 4.44,-10.9 8.3,-15.3 5.56,-3.62 13.33,-2.81 18.05,-8.05 8.06,-6.24 10.36,-16.77 10.3,-26.45 -1.5,-1.26 -3.06,-2.52 -4.6,-3.7 -2.02,4.08 -1.45,9.48 -5.35,12.5 -7.94,6.78 -19.29,2.03 -27.85,-1.05 -11.58,-7.3 -11.53,-23.32 -8.15,-35.1 6.74,-2.74 14.85,-3.66 21.35,0.2 6.8,3.3 11.23,9.65 16.45,14.85 -4.3,-5.92 -7.23,-13.55 -14.15,-16.95 -6.28,-3.86 -13.4,-6.08 -20.7,-6.8 -7.82,5.32 -17.51,8.23 -23.85,15.45 -0.72,11.42 1.63,22.77 3.05,34.05 9.94,5.56 19.24,12.52 30.6,15 -11.16,1.34 -20.17,-6.64 -28.95,-12.2 -0.64,8.88 -3.3,17.48 -7.3,25.4 -5,9.76 -9.85,20.03 -17.95,27.65 -3.72,0.38 -8.39,-1.11 -6.55,-5.75 7.22,-14.02 15.82,-27.47 22,-41.95 -0.2,-15.08 -3.61,-30.03 -4.15,-45.15 -10.9,-0.24 -23.6,-2.7 -29.8,-12.7 -7.06,-9.82 -14.83,-19.23 -21.15,-29.55 -4.59,-0.3 -9.1525,-0.38501 -13.75,-0.4 z m 36.5,74.7 c 1.46456,-0.12589 2.9625,0.42 4.1,1.75 1.64,13.56 0.5,28.78 -9.4,39.2 -8,7.84 -16.44,17.73 -28.6,17.75 -0.52,-1.56 -1.55,-4.66 -2.05,-6.2 13.64,-14.14 22.49,-31.82 31.55,-49 0.70875,-2.08125 2.51699,-3.33814 4.4,-3.5 z"
       id="path52"
       inkscape:connector-curvature="0" />
    <path
       d="m 831.1,707.64 c 8.74,-4.18 17.48,-8.8 27.12,-10.44 14,1.36 27.54,5.4 40.86,9.72 10.38,5.08 22.38,7.3 30.9,15.68 1.06,0.16 3.2,0.5 4.28,0.66 9.28,27.78 13.02,57.06 13.18,86.28 -18.38,-6.86 -38.22,-7.1 -57.54,-6.24 -4.58,-3.3 -9.16,-6.62 -14.12,-9.32 -3.04,-2.38 -6.12,1.08 -8.72,2.3 -8.18,-7.58 -16.56,-14.96 -26.44,-20.3 -1.04,-23.02 -6.4,-45.56 -9.52,-68.34 z"
       id="path54"
       inkscape:connector-curvature="0"
       style="fill:#f5e5c1" />
    <path
       d="m 459.06,704.84 c 10.34,1.24 20.72,1.88 31.12,2.2 4.42,4.44 9.24,8.48 14.92,11.24 -1.34,7.62 -0.64,16.46 -6.14,22.6 -4.74,5.58 -9.68,10.98 -14.18,16.76 -1.84,-0.26 -3.66,-0.5 -5.46,-0.74 -7.08,-10.54 -13.54,-21.5 -18.5,-33.2 -2.72,-5.92 -1.68,-12.58 -1.76,-18.86 z"
       id="path56"
       inkscape:connector-curvature="0"
       style="fill:#f5e5c1" />
    <path
       d="m 458.74,765.44 c -3.18,-11.42 -0.44,-23.46 -0.84,-35.12 3.74,11 10.9,20.18 17.22,29.74 -1.02,5.72 -2.18,11.42 -2.54,17.26 -5.68,-2.44 -12.16,-5.3 -13.84,-11.88 z"
       id="path58"
       inkscape:connector-curvature="0"
       style="fill:#f5e5c1" />
    <path
       d="m 763.4,748.2 c 4.36,0.48 8.72,0.72 13.04,1.48 5.58,2.26 10.76,5.38 16.28,7.8 1.9,0.56 3.8,1.18 5.7,1.84 24.68,13.06 47.7,29.02 68.84,47.26 14.28,11 23.34,27.4 29.62,43.98 5.42,12.34 -6.94,22.12 -13.08,31.44 -9.28,14.46 -24.02,24.34 -39.84,30.42 -5.94,2.32 -11.66,-1.62 -17.04,-3.6 -20.06,-8.38 -40.18,-17.2 -57.82,-30.06 -12.92,-8.5 -26.5,-16.02 -39.12,-24.9 -3.94,-5.72 -2.04,-13.46 -3.26,-20.02 -2.62,-17.48 -1.28,-35.74 5.02,-52.32 5.76,-1.44 11.8,-2.08 17.22,-4.6 8.14,-7.48 12.42,-18.04 14.44,-28.72 z"
       id="path60"
       inkscape:connector-curvature="0"
       style="fill:#f5e5c1" />
    <path
       d="m 593.64,824.54 c 15.74,-3.44 30.6,-10.24 46.68,-12.16 -2.04,5.22 -2.14,13.04 -8.54,14.92 -15.14,5.52 -30.28,11.04 -45.46,16.44 -10.24,2.9 -16.56,12.32 -22.02,20.76 2.2,0.86 4.34,2 6.32,3.34 5.8,-5.78 10.06,-13.98 18.3,-16.6 10.22,-3.62 20.4,-7.36 30.68,-10.8 -8.9,18.32 -17.2,38.22 -34.4,50.4 -6.54,1.38 -13.56,0.64 -20.1,-0.44 -10.84,-11.42 -17.58,-26.12 -21.94,-41.12 -2.8,-9.92 -6.3,-19.86 -6.38,-30.28 -0.64,-0.6 -1.92,-1.82 -2.58,-2.42 19.84,2.46 39.44,7.14 59.44,7.96 z"
       id="path64"
       inkscape:connector-curvature="0"
       style="fill:#f5e5c1" />
    <path
       d="m 886.68,813.34 c 8.84,5.58 15.46,13.8 23.68,20.18 8.64,7.48 17.62,14.66 25.64,22.8 3.48,3.1 0.74,7.88 -0.64,11.36 -4.16,8.86 -7.16,18.48 -13.66,26 -5.6,6.44 -10.4,13.92 -18.12,18.04 -0.1,1.72 -0.28,5.16 -0.38,6.86 4.3,6.32 10.06,11.5 17.24,14.34 1.92,1.86 2.06,6.92 5.78,5.74 4.48,-0.9 3.02,-6.02 3.44,-9.22 13,-17.02 20.58,-38.56 19.26,-60.08 5.36,-4.12 1,-10.52 -2.06,-14.56 -4.84,-4.42 -10.14,-8.3 -14.78,-12.9 -9.32,-9.12 -20.36,-16.34 -28.92,-26.22 9.56,-0.48 19.56,-1.68 28.86,1.06 14.24,9.32 25.78,22.14 38.8,33 6.38,20.5 0.5,41.74 -3.8,62 -1.5,8.54 -7.02,16.02 -5.94,25.02 -5.32,5.04 -13.78,6.44 -16.8,13.7 -7.28,3.72 -14.34,8.5 -22.52,9.9 -18.82,-0.46 -37.44,-3.7 -56.04,-6.26 -5.92,-1.02 -12.62,-2 -16.78,-6.78 -1.24,-4.82 -0.22,-9.84 0.22,-14.7 11.16,-1.66 22.7,-0.46 33.6,-3.88 -0.52,-8.1 5.5,-14.16 8.68,-21.08 8,-14.2 12.2,-30.02 15.2,-45.94 -3.18,-4.12 -5.06,-8.98 -6.16,-14 -2.92,-8.82 -9.14,-16.34 -10.38,-25.7 -0.64,-3.1 -2.14,-5.86 -3.42,-8.68 z"
       id="path66"
       inkscape:connector-curvature="0"
       style="fill:#f5e5c1" />
    <path
       d="m 646.82,839.16 c 3.74,6.8 11.64,8.3 17.8,12.06 1.86,10.08 0.96,20.46 1.66,30.66 -0.44,24.08 3.98,48.12 1.22,72.18 -2.84,23.36 -7.3,46.5 -9.6,69.94 l -55.24,0 c 4.08,-17.36 11.66,-33.64 15.14,-51.14 3.52,-16.44 9.88,-32.2 12.74,-48.76 0.58,-22.06 0.38,-44.14 0.58,-66.2 0.12,-2.6 0.18,-5.26 1.02,-7.72 5.24,-3.22 11.2,-5.64 14.68,-11.02 z"
       id="path68"
       inkscape:connector-curvature="0"
       style="fill:#f5e5c1" />
    <path
       d="m 534.72,906.4 c -1.62,-18.08 -2.94,-36.36 -1.56,-54.48 2.88,17.68 3.28,36.02 9.92,52.88 7.4,4.28 14.9,9.1 23.38,10.84 17.02,-3.66 35.3,-10.7 44.96,-26.1 3.3,-4.88 5.66,-10.32 7.86,-15.76 -0.14,14.5 0.08,29 -0.08,43.5 -5.76,3.68 -11.88,6.72 -17.94,9.86 -6.44,3.22 -11.5,9.96 -19.38,9.54 -12.02,0.28 -21.12,-8.72 -31.82,-12.72 -7.54,-2.84 -14.82,-9.02 -15.34,-17.56 z"
       id="path70"
       inkscape:connector-curvature="0"
       style="fill:#f5e5c1" />
    <path
       d="m 684.74,858.58 c 5.84,0.6 11.74,0.7 17.56,-0.3 8.1,6.98 14.66,15.78 23.88,21.42 4,2.66 8.46,4.78 11.8,8.32 3.2,8.2 3.34,17.22 5.08,25.78 1.68,11.36 4.84,22.64 4.14,34.22 -1.1,25.34 -4.48,50.62 -4.4,75.98 l -44.9,0 c 0.2,-20.06 -4.38,-39.72 -6.08,-59.62 -1.98,-22.1 -5.52,-44.18 -4.5,-66.42 -0.04,-13.14 1.52,-26.64 -2.58,-39.38 z"
       id="path72"
       inkscape:connector-curvature="0"
       style="fill:#f5e5c1" />
    <path
       d="m 762.12,888.64 c 9.48,7.7 19.28,15 28.92,22.52 13.6,10.6 29.46,17.64 44.02,26.76 1.5,6.74 0.8,15.22 7.04,19.78 8.08,6.64 17.04,13.4 27.9,14.06 15.34,1.5 30.7,2.88 46,4.66 10.96,1.82 19.82,-6.02 28.9,-10.72 0.48,19.66 3.92,39.16 8.28,58.3 l -192.12,0 c 2.02,-31.32 7.08,-62.5 5.06,-93.96 -1.3,-13.82 0.24,-28 -4,-41.4 z"
       id="path74"
       inkscape:connector-curvature="0"
       style="fill:#f5e5c1" />
  </g>
</svg>
