<?xml version="1.0" encoding="UTF-8" standalone="no"?>
<svg
   xmlns:dc="http://purl.org/dc/elements/1.1/"
   xmlns:cc="http://creativecommons.org/ns#"
   xmlns:rdf="http://www.w3.org/1999/02/22-rdf-syntax-ns#"
   xmlns:svg="http://www.w3.org/2000/svg"
   xmlns="http://www.w3.org/2000/svg"
   xmlns:sodipodi="http://sodipodi.sourceforge.net/DTD/sodipodi-0.dtd"
   xmlns:inkscape="http://www.inkscape.org/namespaces/inkscape"
   width="1280"
   height="1280"
   viewBox="0 0 1024 1024"
   version="1.1"
   id="svg2"
   inkscape:version="0.48.1 "
   sodipodi:docname="kill_flag_carriers.svg">
  <metadata
     id="metadata92">
    <rdf:RDF>
      <cc:Work
         rdf:about="">
        <dc:format>image/svg+xml</dc:format>
        <dc:type
           rdf:resource="http://purl.org/dc/dcmitype/StillImage" />
      </cc:Work>
    </rdf:RDF>
  </metadata>
  <defs
     id="defs90" />
  <sodipodi:namedview
     pagecolor="#ffffff"
     bordercolor="#666666"
     borderopacity="1"
     objecttolerance="10"
     gridtolerance="10"
     guidetolerance="10"
     inkscape:pageopacity="0"
     inkscape:pageshadow="2"
     inkscape:window-width="1920"
     inkscape:window-height="1018"
     id="namedview88"
     showgrid="false"
     fit-margin-top="0"
     fit-margin-left="0"
     fit-margin-right="0"
     fit-margin-bottom="0"
     inkscape:snap-page="true"
     inkscape:zoom="0.6609375"
     inkscape:cx="466.00473"
     inkscape:cy="640"
     inkscape:window-x="-8"
     inkscape:window-y="-8"
     inkscape:window-maximized="1"
     inkscape:current-layer="layer1" />
  <g
     inkscape:groupmode="layer"
     id="layer1"
     inkscape:label="background"
     style="display:inline">
    <rect
       style="fill:#3e3e3e;fill-opacity:1;fill-rule:nonzero;stroke:none"
       id="rect3076"
       width="1280"
       height="1280"
       x="0"
       y="0"
       transform="scale(0.8,0.8)" />
  </g>
  <g
     inkscape:groupmode="layer"
     id="layer2"
     inkscape:label="foreground">
    <path
       style="fill:#f5e5c1"
       d="M 829.34375 0 C 819.01875 0.85 809.01875 3.65625 798.96875 6.03125 C 775.06875 14.10625 751.03125 22.1125 728.28125 33.1875 C 704.83125 45.8625 680.975 58.28125 660.375 75.40625 C 654.275 80.48125 647.93125 85.24375 641.53125 89.96875 C 640.83125 90.61875 639.41875 91.9125 638.71875 92.5625 C 631.54375 98.6375 624.9375 105.3125 618.0625 111.6875 C 594.2125 136.2375 571.9625 162.575 554.9375 192.375 C 545.7625 209 534.875 224.8625 528.375 242.8125 C 508.025 295.1625 493.15 350.8 495 407.375 C 493.15 464.175 506.8125 520.3375 527.0625 573.0625 C 531.9875 585.6625 537.99375 597.83125 545.21875 609.28125 C 563.76875 643.55625 586.43125 675.8125 614.65625 702.8125 C 649.55625 740.2125 693.16875 768.3875 738.84375 790.8125 C 795.16875 814.4625 856.0375 829.65625 917.4375 827.53125 C 963.0625 828.40625 1008.4125 819.2375 1051.4375 804.4375 C 1073.4625 797.8875 1094.725 788.8 1114.25 776.625 C 1172.75 745.65 1222.2125 699.18125 1259.9375 645.03125 C 1267.0375 633.35625 1275.725 622.3375 1280 609.1875 L 1280 209 C 1269.075 182.975 1250.1875 161.3625 1233.4375 138.9375 C 1184.9125 82.5875 1122.0625 37.9375 1051.3125 14.1875 C 1033.2375 8.1125 1015.05 1.3 995.875 0 L 829.34375 0 z M 925.71875 50.3125 C 997.86875 53.8125 1068.9125 79.95625 1126.0625 124.15625 C 1209.9375 188.10625 1263.1938 291.09375 1264.8438 396.71875 C 1239.1187 396.76875 1213.3813 396.76875 1187.6562 396.71875 C 1187.4813 406.64375 1187.5125 416.58125 1187.5625 426.53125 C 1213.4125 426.53125 1239.2437 426.4625 1265.0938 426.5625 C 1261.9437 478.5125 1247.3438 529.63125 1223.0938 575.65625 C 1198.1188 621.70625 1163.2625 662.4625 1121.0625 693.5625 C 1064.8375 735.7875 995.7625 759.875 925.6875 763.875 C 925.7375 748.725 925.725 733.59375 925.75 718.46875 C 915.825 718.34375 905.89375 718.375 895.96875 718.375 C 895.99375 733.525 895.9125 748.6625 896.0625 763.8125 C 838.1875 761.9125 781.15 745.29375 730.875 716.71875 C 644.225 667.44375 580.35 580.375 559.5 482.875 C 555.475 464.3 553.4625 445.375 551.4375 426.5 C 579.4875 426.5 607.55 426.54375 635.625 426.46875 C 635.6 416.54375 635.5875 406.65 635.5625 396.75 L 551.40625 396.75 C 554.15625 296.3 601.33125 197.79375 678.90625 133.71875 C 739.18125 82.76875 817.1125 52.48125 896.0625 50.40625 C 895.9375 69.95625 896 89.51875 896 109.09375 C 905.925 109.09375 915.85625 109.125 925.78125 109 C 925.70625 89.45 925.74375 69.8875 925.71875 50.3125 z "
       id="path6"
       transform="scale(0.8,0.8)" />
    <path
       d="m 682.16,103.58 c 3.64,-1.9 7.58,-3.22 11.76,-2.92 25.68,0.16 51.34,-0.22 77.02,0.24 1.42,1.3 2.86,2.6 4.3,3.9 0.22,5.76 0.82,14.88 -7.16,15.26 -22.02,0.86 -44.08,0.18 -66.12,0.4 -5.22,-0.1 -10.56,0.38 -15.66,-0.96 -6.04,-2.86 -3.56,-10.64 -4.14,-15.92 z"
       id="path12"
       inkscape:connector-curvature="0"
       style="fill:#f5e5c1" />
    <path
       style="fill:#f5e5c1"
       d="M 896.0625 166.8125 C 895.9875 192.4875 895.85625 218.16875 896.15625 243.84375 C 876.45625 247.39375 856.5875 251.5375 838.6875 260.8125 C 783.7375 287.2125 746.875 346.68125 747.75 407.65625 C 746.05 453.53125 766.2125 498.4 798.3125 530.625 C 804.6125 534.9 810.31875 540.0125 816.34375 544.6875 C 839.76875 561.3875 867.58125 571.1125 896.03125 574.5625 C 895.93125 601.8625 896 629.13125 896 656.40625 C 905.9 656.33125 915.79375 656.1625 925.71875 655.8125 C 925.76875 628.7375 925.7 601.7 925.75 574.625 C 957.475 572.35 988.6436 560.9875 1013.8438 541.4375 C 1044.3688 519.2125 1065.7935 485.2625 1074.2188 448.5625 C 1078.2935 431.8625 1077 414.525 1077.125 397.5 C 1077.6 368.325 1066.2686 340.20625 1050.8438 315.90625 C 1043.9688 307.20625 1037.8125 297.8125 1029.6875 290.1875 C 1022.1875 283.6875 1014.4062 277.55625 1006.5312 271.53125 C 982.3814 255.63125 954.26875 246.6125 925.59375 243.6875 C 925.91875 218.0875 925.625 192.50625 925.75 166.90625 C 915.85 166.88125 905.9625 166.8625 896.0625 166.8125 z M 925.8125 268.3125 C 962.5875 273.3125 998.2 291.49375 1021 321.21875 C 1045.2 350.99375 1055.7375 390.98125 1051.0625 428.90625 C 1048.1625 441.08125 1044.3438 453.00625 1040.0938 464.78125 C 1024.3936 498.88125 995.5125 526.9125 960.1875 540.0625 C 949.1125 544.4125 937.36875 546.56875 925.71875 548.71875 C 925.71875 538.11875 925.6875 527.5375 925.8125 516.9375 C 942.1375 513.8375 958.68125 509.50625 972.53125 499.90625 C 990.98125 487.33125 1006.5438 469.6125 1013.9688 448.3125 C 1028.1937 409.5375 1020.1125 361.94375 989.6875 332.96875 C 972.9125 315.16875 949.5375 305.45 925.6875 301.75 C 925.7375 290.6 925.7125 279.4625 925.8125 268.3125 z M 896.0625 268.40625 C 895.9375 279.90625 895.9625 291.4125 896.0625 302.9375 C 889.9875 304.0625 883.9625 305.4625 877.9375 306.8125 C 847.1875 317.4875 821.5375 342.525 811.1875 373.5 C 806.3375 386.75 806.8625 401.1 806.8125 415 C 805.2125 464.85 847.55625 509.43125 896.03125 515.90625 C 895.95625 526.38125 895.9625 536.875 896.0625 547.375 C 854.2875 544.7 815.85625 518.7875 793.28125 484.1875 C 782.85625 469.1875 777.575 451.54375 771.75 434.46875 C 766.45 396.79375 775.08125 357.06875 797.65625 326.09375 C 813.05625 307.56875 830.81875 290.16875 853.34375 280.59375 C 866.81875 274.26875 881.4375 270.85625 896.0625 268.40625 z M 925.8125 318.59375 C 947.6125 323.81875 968.35 334.71875 982.375 352.59375 C 999.425 373.04375 1005.4875 401.15625 1001.5625 427.15625 C 996.2375 442.15625 989.9375 457.25 979.0625 469.125 C 965.1375 484.175 946.3375 495.2125 925.8125 497.8125 C 925.6125 474.0125 925.8125 450.20625 925.6875 426.40625 C 948.7125 426.68125 971.725 426.4125 994.75 426.5625 C 994.775 416.6125 994.7625 406.64375 994.6875 396.71875 C 971.6625 396.79375 948.65625 396.7125 925.65625 396.8125 C 925.90625 370.7375 925.5625 344.66875 925.8125 318.59375 z M 896.03125 319.03125 C 896.00625 344.95625 895.8875 370.85625 896.0625 396.78125 C 874.9625 396.70625 853.88125 396.8125 832.78125 396.6875 C 832.68125 406.6375 832.51875 416.6125 831.84375 426.5625 C 853.24375 426.4375 874.6625 426.6125 896.0625 426.4375 C 895.8875 450.1875 896.00625 473.975 896.03125 497.75 C 860.55625 491.775 831.10625 462.625 823.40625 427.75 C 822.13125 412.225 819.9375 395.8375 825.8125 380.9375 C 836.1125 349.6875 864.13125 326.10625 896.03125 319.03125 z "
       id="path14"
       transform="scale(0.8,0.8)" />
    <path
       d="m 526.18,282.8 c 4.36,0.06 8.72,0.14 13.08,0.3 2.62,8.04 1.64,16.6 1.76,24.9 0.02,20.06 -0.06,40.12 0.06,60.18 -0.16,3.64 0.4,7.84 -2.26,10.78 -4.2,0.94 -8.52,0.68 -12.76,0.82 -1.8,-3.02 -4.62,-5.88 -4.62,-9.6 0.46,-25.4 -0.36,-50.84 0.42,-76.24 -0.18,-4.24 1.78,-7.92 4.32,-11.14 z"
       id="path24"
       inkscape:connector-curvature="0"
       style="fill:#f5e5c1" />
    <path
       d="m 914.88,296.12 c -0.04,-4.46 0.4,-8.9 1.36,-13.24 4.12,-0.02 8.28,-0.18 12.38,0.38 3.8,2.08 4.12,6.8 4.14,10.66 0.06,24.68 -0.04,49.38 0.06,74.08 0.2,4.6 -1.06,9.06 -2.6,13.36 -4.6,0.14 -9.26,0.48 -13.8,-0.32 -1.8,-3.4 -1.42,-7.38 -1.54,-11.08 0.1,-24.62 0.08,-49.22 0,-73.84 z"
       id="path26"
       inkscape:connector-curvature="0"
       style="fill:#f5e5c1" />
    <path
       d="m 554.94,341.22 c 0,-7.94 -0.02,-15.9 0.08,-23.84 12.2,0.02 24.38,0.04 36.58,0 0.1,7.94 0.14,15.88 0.1,23.84 -12.26,-0.02 -24.5,-0.04 -36.76,0 z"
       id="path28"
       inkscape:connector-curvature="0"
       style="fill:#f5e5c1" />
    <path
       d="m 622.98,317.36 c 5.14,0.02 10.32,0.04 15.48,0.06 0.04,7.92 0.04,15.84 0.04,23.78 -5,0 -9.98,0 -14.98,0 0.04,-7.94 0,-15.9 -0.54,-23.84 z"
       id="path30"
       inkscape:connector-curvature="0"
       style="fill:#f5e5c1" />
    <path
       d="m 823.58,317.42 c 3.68,-0.02 7.36,-0.04 11.06,-0.06 -0.18,7.94 -0.18,15.9 -0.12,23.84 -3.62,0 -7.24,0 -10.86,0.02 -0.02,-7.94 -0.02,-15.88 -0.08,-23.8 z"
       id="path32"
       inkscape:connector-curvature="0"
       style="fill:#f5e5c1" />
    <path
       d="m 868.28,317.38 c 10.9,0.02 21.8,0.02 32.7,0 0.06,7.96 0.04,15.9 0.04,23.84 -10.94,-0.02 -21.88,-0.02 -32.82,0 -0.04,-7.94 -0.04,-15.9 0.08,-23.84 z"
       id="path34"
       inkscape:connector-curvature="0"
       style="fill:#f5e5c1" />
    <path
       style="fill:#f5722c"
       d="M 403.53125 475.03125 C 292.53125 536.13125 181.35 596.9 70.25 657.75 C 60.05 663.625 48.05 668.35 41.5 678.625 C 38.025 689.45 35.6875 701.0625 37.5625 712.4375 C 40.1875 731.8625 43.3125 751.21875 45.4375 770.71875 C 41.0125 777.49375 34.5125 785.55 37.9375 794.125 C 39.9375 803.9 49.6125 808.36875 57.4375 812.84375 C 72.9375 820.61875 88.74375 827.85625 104.34375 835.40625 C 101.74375 824.80625 98.65625 814.31875 96.03125 803.71875 C 93.60625 794.69375 95.6625 785.38125 96.3125 776.28125 C 100.3875 772.95625 104.4125 769.63125 108.4375 766.28125 C 124.0625 774.28125 139.33125 782.9625 154.90625 791.0625 C 155.73125 807.3375 156.56875 823.63125 157.21875 839.90625 C 157.69375 846.48125 155.56875 852.79375 153.59375 858.96875 C 187.11875 875.34375 220.84375 891.35625 254.46875 907.53125 C 255.46875 900.45625 256.44375 893.3625 257.46875 886.3125 L 248.625 884.6875 C 248.325 875.6375 247.9 866.58125 247.5 857.53125 C 254.175 851.25625 260.8625 844.96875 267.5625 838.71875 C 270.0625 840.01875 272.5625 841.3625 275.0625 842.6875 C 275.4875 845.5375 275.8875 848.4375 276.3125 851.3125 C 284.1625 856.2625 291.99375 861.20625 299.84375 866.15625 C 302.96875 864.53125 306.09375 862.9125 309.21875 861.3125 L 317.46875 867.625 C 317.49375 877.55 317.50625 887.4875 317.53125 897.4375 C 311.65625 900.8375 305.78125 904.2625 299.90625 907.6875 C 299.23125 914.5875 298.5625 921.51875 297.9375 928.46875 C 364.2625 960.09375 430.35 992.1937 496.75 1023.7188 C 499.075 1017.0188 501.44375 1010.3314 503.84375 1003.6562 C 497.91875 1002.4062 491.99375 1001.2 486.09375 1000 C 486.76875 990.35 486.76875 980.55 489.09375 971.125 C 493.29375 963.575 500.21875 958.0125 505.84375 951.5625 C 508.76875 952.0875 511.7 952.6375 514.625 953.1875 C 514.75 954.8875 514.9375 958.29375 515.0625 959.96875 C 527.4625 965.84375 539.89375 971.6625 552.34375 977.4375 C 554.66875 976.2375 556.9875 975.05 559.3125 973.875 L 564.90625 978.5625 C 563.25625 988.9375 562.5625 999.5125 559.8125 1009.6875 C 557.5375 1015.1625 552.81875 1019.1875 549.09375 1023.6875 C 546.06875 1024.1375 543.025 1024.5938 540 1025.0938 C 539.9 1031.5686 539.83125 1038.0564 539.78125 1044.5312 C 586.03125 1066.6314 632.05 1089.1814 678.5 1110.9062 C 683.15 1093.8814 687.88125 1076.875 692.53125 1059.875 C 694.38125 1052.4 698.58125 1045.8814 702.78125 1039.5312 C 723.50625 1049.2812 744.19375 1059.0125 764.96875 1068.6875 C 757.89375 1093.2375 750.3125 1117.675 743.3125 1142.25 C 769.6625 1155 796.1375 1167.525 822.4375 1180.375 C 829.4375 1183.65 836.84375 1186.9125 844.71875 1186.9375 C 863.64375 1186.6375 880.48125 1176.3563 894.40625 1164.4062 C 900.43125 1149.4062 902.025 1132.95 908 1117.875 C 919.8 1086.425 930.76875 1054.6687 939.96875 1022.3438 C 958.14375 962.8937 976.0125 903.3625 994.3125 843.9375 C 976.3625 847.2125 958.11875 848.44375 939.96875 849.96875 C 915.86875 849.54375 891.6625 851.4125 867.6875 848.1875 C 821.9875 844.8875 777.9125 830.6625 735.4375 814.1875 C 723.0125 808.9875 711.38125 802.23125 699.65625 795.65625 C 672.73125 782.00625 648.6125 763.6 625.0625 744.875 C 609.9125 730.875 595.8375 715.775 581.1875 701.25 C 550.8125 666.625 525.9 627.2125 507.625 584.9375 C 455.05 623.6875 402.55625 662.50625 350.03125 701.28125 C 293.68125 677.93125 237.43125 654.3125 181.03125 631.0625 C 180.35625 629.4125 178.99375 626.125 178.34375 624.5 C 244.16875 587.875 309.73125 550.7375 375.65625 514.3125 C 376.40625 510.8375 376.125 506.3625 380 504.6875 C 392.5 497.1875 414.31875 501.59375 416.21875 518.21875 C 430.61875 523.89375 445.1375 529.38125 459.6875 534.65625 C 469.1625 529.80625 480.11875 531.05625 489.59375 535.28125 C 486.81875 524.10625 484.00625 512.94375 481.03125 501.84375 C 455.18125 492.91875 429.40625 483.83125 403.53125 475.03125 z M 397.25 839.8125 C 408.95 843.6625 420.1875 848.775 431.5625 853.5 C 577.7125 914.4 723.88125 975.35 870.03125 1036.25 C 884.63125 1018.75 899.3125 1001.3312 913.8125 983.78125 C 917.7375 978.93125 922.5875 975.08125 927.5625 971.40625 C 912.8375 1003.2563 901.03125 1036.375 887.53125 1068.75 C 724.10625 992.425 560.525 916.3875 397.25 839.8125 z M 342.125 863.6875 C 351.975 866.0875 360.85 871.1125 370 875.3125 C 405.825 891.9125 441.725 908.3375 477.5 925.0625 C 476.225 944.6375 475.10625 964.2625 473.65625 983.8125 C 429.18125 962.9125 384.6625 942.08125 340.0625 921.40625 C 340.8875 902.18125 339.675 882.8125 342.125 863.6875 z "
       id="path36"
       transform="scale(0.8,0.8)" />
    <path
       d="m 304,403.74 c 10,-6 27.46,-2.46 28.98,10.84 -6.28,8.9 -18.38,7.42 -27.34,4.18 -1.82,-1.54 -3.66,-3.08 -5.48,-4.6 0.08,-0.68 0.28,-2.04 0.36,-2.7 0.6,-2.78 0.38,-6.38 3.48,-7.72 z"
       id="path38"
       inkscape:connector-curvature="0"
       style="fill:#f5e5c1" />
    <path
       d="m 367.74,427.72 c 7.58,-3.88 16.36,-2.88 23.94,0.5 2.2,4.3 3,9.12 3.74,13.86 -7.16,2.84 -15.38,4.66 -22.78,1.64 -4.78,-1.58 -7.48,-6.06 -10.38,-9.8 1.76,-2.12 3.58,-4.18 5.48,-6.2 z"
       id="path40"
       inkscape:connector-curvature="0"
       style="fill:#f5e5c1" />
    <path
       d="m 262.26,444.88 c 5.88,-3.78 11,-8.54 15.86,-13.52 5.9,2.84 11.82,5.64 17.68,8.58 -3,9.16 -14.08,10.5 -21.24,15.36 -3.78,-1.6 -7.58,-3.2 -11.36,-4.76 -0.32,-1.9 -0.64,-3.78 -0.94,-5.66 z"
       id="path42"
       inkscape:connector-curvature="0"
       style="fill:#f5e5c1" />
    <path
       d="m 484.18,435.82 c 71.42,25.02 142.96,49.68 214.46,74.48 0.06,3.1 0.14,6.2 0.22,9.32 -9.04,0.22 -19.04,0.8 -26.02,7.32 -10.54,8.06 -10.64,23.3 -7.16,34.9 5.92,12.22 20.7,15.74 33.2,15.36 -0.06,4.78 -0.06,9.58 -0.06,14.38 -29.24,-2.68 -57.94,-11.12 -84.22,-24.2 -24.32,-8.86 -45.04,-25.12 -64.46,-41.84 -13.42,-9.86 -23.98,-22.94 -33.78,-36.28 -7.26,-9.44 -14.78,-18.76 -20.74,-29.12 -4.56,-7.74 -7.56,-16.26 -11.44,-24.32 z"
       id="path44"
       inkscape:connector-curvature="0"
       style="fill:#f5722c" />
    <path
       d="m 297.44,439.32 c 5.78,2.02 11.56,4.04 17.34,6.06 1.04,1.8 2.08,3.62 3.12,5.44 -6.46,4.38 -12.86,8.84 -19.32,13.18 -4.84,-2.24 -9.68,-4.46 -14.54,-6.64 0.4,-1.76 0.8,-3.52 1.2,-5.28 3.24,-1.74 6.48,-3.48 9.74,-5.2 0.82,-2.52 1.64,-5.04 2.46,-7.56 z"
       id="path46"
       inkscape:connector-curvature="0"
       style="fill:#f5e5c1" />
    <path
       d="m 61.96,462.04 c 39.3,-3.38 78.6,-6.68 117.9,-10.02 C 144.62,469.44 109.3,486.66 74.04,504 69.94,490.04 66.06,476 61.96,462.04 z"
       id="path48"
       inkscape:connector-curvature="0"
       style="fill:#f5e5c1" />
    <path
       d="m 342.46,455.56 c 6.56,3.04 13.4,5.5 19.74,8.98 -4.94,6.72 -12.12,11.26 -18.26,16.78 -6.16,-2.52 -12.34,-5.1 -18.12,-8.46 6.06,-5.26 12.86,-9.98 16.64,-17.3 z"
       id="path50"
       inkscape:connector-curvature="0"
       style="fill:#f5e5c1" />
    <path
       d="m 190.74,502.08 c 5.84,-5.9 11.9,-11.62 17.9,-17.38 6.18,2.52 12.34,5.1 18.5,7.66 -4.84,6.2 -9.7,12.4 -14.5,18.62 -7.12,-3.42 -14.58,-5.98 -21.9,-8.9 z"
       id="path52"
       inkscape:connector-curvature="0"
       style="fill:#f5e5c1" />
    <path
       d="m 217.92,512.46 c 5.12,-5.86 10.26,-11.72 15.5,-17.5 6.24,2.58 12.46,5.18 18.72,7.74 -4.98,5.62 -9.88,11.32 -14.84,16.98 -6.46,-2.4 -12.92,-4.8 -19.38,-7.22 z"
       id="path54"
       inkscape:connector-curvature="0"
       style="fill:#f5e5c1" />
    <path
       d="m 243.1,521.92 c 4.16,-5.94 8.36,-11.86 12.58,-17.74 7.86,3.3 15.74,6.54 23.62,9.84 -4.86,5.32 -9.72,10.62 -14.54,15.98 -7.22,-2.7 -14.44,-5.38 -21.66,-8.08 z"
       id="path56"
       inkscape:connector-curvature="0"
       style="fill:#f5e5c1" />
    <path
       d="m 682.24,541.9 c 3,-1.56 6,-3.58 9.56,-3.28 24.96,0.12 49.92,-0.74 74.88,0.12 1.54,1.42 3.08,2.84 4.64,4.26 -0.06,3.86 0.2,7.76 -0.54,11.58 -2.4,3.5 -6.8,4.4 -10.8,4.34 -21.34,0.16 -42.7,0 -64.06,0.06 -4.48,-0.12 -9.92,0.22 -12.88,-3.84 -1.3,-4.3 -0.72,-8.84 -0.8,-13.24 z"
       id="path58"
       inkscape:connector-curvature="0"
       style="fill:#f5e5c1" />
    <path
       d="m 789.28,541.72 c 10.58,4.62 24.44,5.4 31.06,16.14 1.96,5.26 1.98,11.02 2.84,16.54 -20.56,8.82 -42.5,13.92 -64.56,17.14 -0.02,-4.76 -0.06,-9.52 -0.1,-14.28 8,-0.94 17.02,-1.42 22.82,-7.84 8.06,-6.76 8.1,-18.08 7.94,-27.7 z"
       id="path60"
       inkscape:connector-curvature="0"
       style="fill:#f5722c" />
    <path
       d="m 83.3,622.12 c 11.18,2.7 21.62,7.84 31.82,12.98 5.5,1.94 4.08,8.42 4.32,12.96 -0.1,10.58 1.56,21.26 0.04,31.78 -0.6,4.14 -4.58,7.6 -8.7,5.14 -8.5,-3.88 -17.88,-6.76 -25.12,-12.8 -5.3,-15.96 -8.46,-33.82 -2.36,-50.06 z"
       id="path62"
       inkscape:connector-curvature="0"
       style="fill:#f5e5c1" />
    <path
       d="m 43.2,657.42 c 53.04,25.5 106.34,50.52 159.3,76.18 -2.32,15.1 -4.42,30.22 -6.66,45.32 C 151.9,756.7 108.04,734.26 64.02,712.16 56.44,708.58 51.22,701.22 48.16,693.64 45.66,681.7 45.06,669.46 43.2,657.42 z"
       id="path64"
       inkscape:connector-curvature="0"
       style="fill:#f5722c" />
    <path
       d="m 801.62,673.64 c 3.46,-0.82 6.92,-1.64 10.4,-2.42 14.04,8.84 27.98,17.86 41.98,26.78 -40,67.96 -79.96,135.96 -119.96,203.9 -1.06,-0.34 -3.2,-1.02 -4.26,-1.34 1.74,-3.3 3.48,-6.58 4.64,-10.12 22.28,-72.3 44.84,-144.52 67.2,-216.8 z"
       id="path68"
       inkscape:connector-curvature="0"
       style="fill:#f5e5c1" />
    <path
       d="m 209.8,708.76 c -8.94,-6.98 -7.2,-24.28 3.42,-28.16 6.72,11.72 19.92,20.28 33.78,18.08 0.82,6.06 2.1,12.48 0.06,18.44 -3.68,2.18 -7.74,3.54 -11.66,5.18 -0.56,-0.44 -1.68,-1.32 -2.24,-1.76 0.36,25.18 -0.2,50.36 0.1,75.52 -0.18,7.76 2.56,16.6 9.74,20.54 24.04,12.18 47.96,24.64 72.46,35.92 17.4,9.4 34.9,18.66 52.74,27.2 5.06,2.84 10.76,0.28 15.96,-0.74 2.86,-5.3 5.26,-10.86 6.78,-16.7 5.42,-19.52 11.36,-38.9 16.74,-58.46 -4.58,-2.46 -12.92,-3.02 -12.82,-9.66 -0.68,-10.36 6,-18.84 13.06,-25.58 10.02,5.68 20.06,11.42 29.48,18.06 5.76,3.92 3.64,11.68 2.66,17.4 -0.5,8.7 -10.42,10.46 -16.72,13.76 1.96,7.2 4.34,14.52 3.26,22.1 -1.6,15.3 -1.16,30.72 -2.54,46.04 -1.48,17.38 -0.16,35.04 -4.1,52.16 -1.54,6.7 -3.68,13.94 -9.1,18.58 -10.12,6.04 -23.7,6.88 -33.92,0.66 -12.04,-8.28 -25.12,-14.84 -37.68,-22.24 -41.22,-23.38 -82.34,-46.9 -123.56,-70.32 -5.04,-3.06 -10.7,-5.38 -14.96,-9.58 -5.82,-13.54 -5.42,-28.84 -4.46,-43.3 4.76,-34.34 9.64,-68.68 13.52,-103.14 z"
       id="path70"
       inkscape:connector-curvature="0"
       style="fill:#f5e5c1" />
    <path
       d="m 283.3,698.7 c 8.38,3.9 16.74,7.84 25.1,11.78 -2.42,10.22 -4.88,20.42 -7.26,30.66 -8.5,-4.22 -17.08,-8.3 -25.36,-12.92 2.5,-9.84 5.02,-19.68 7.52,-29.52 z"
       id="path74"
       inkscape:connector-curvature="0"
       style="fill:#f5e5c1" />
    <path
       d="m 312.3,712.3 c 8.66,4.06 17.32,8.14 25.98,12.22 -2.36,10.5 -4.78,20.98 -7.1,31.5 -8.72,-4.34 -17.48,-8.58 -26.12,-13.06 2.44,-10.22 4.84,-20.44 7.24,-30.66 z"
       id="path76"
       inkscape:connector-curvature="0"
       style="fill:#f5e5c1" />
    <path
       d="m 335,757.92 c 2.92,-10.34 5.44,-20.78 8.12,-31.18 9.4,4.44 18.82,8.86 28.24,13.3 -3.22,10.38 -6.28,20.82 -9.32,31.26 C 353,766.88 344,762.38 335,757.92 z"
       id="path78"
       inkscape:connector-curvature="0"
       style="fill:#f5e5c1" />
    <path
       d="m 752.02,880 c 27.32,-44 54.64,-87.98 81.98,-131.96 15.34,23.32 30.68,46.64 46,69.98 -40.7,21.32 -81.36,42.7 -122.06,64 -1.98,-0.68 -3.96,-1.36 -5.92,-2.02 z"
       id="path80"
       inkscape:connector-curvature="0"
       style="fill:#f5e5c1" />
    <path
       d="m 239.3,752.82 c 51.66,24.24 103.2,48.74 154.72,73.3 -2.78,11.58 -5.64,23.16 -8.06,34.82 -3.3,0.14 -6.76,0.44 -9.74,-1.28 -40.06,-19.86 -80.06,-39.88 -120.2,-59.58 -7.42,-3.2 -11.98,-10.12 -16.98,-16.08 0.02,-10.4 -0.08,-20.8 0.26,-31.18 z"
       id="path82"
       inkscape:connector-curvature="0"
       style="fill:#f5722c" />
    <path
       d="m 549.16,888.16 c 3.66,-16.68 7.82,-33.44 14.92,-49.04 10.44,4.18 18.94,13.66 30.64,14.14 5.72,3.56 12.08,9.12 10.12,16.72 -3.9,14.52 -10.6,28.14 -16.94,41.74 -9.72,-3.22 -18.92,-7.76 -28.54,-11.22 -4.96,-2.18 -11.84,-5.74 -10.2,-12.34 z"
       id="path84"
       inkscape:connector-curvature="0"
       style="fill:#f5e5c1" />
    <path
       d="m 431.68,842.78 c 40.04,19.22 80.32,37.96 120.14,57.64 35.72,16.74 71.4,33.58 106.92,50.74 10.24,4.68 21.9,7.68 33.1,5.1 -3.52,7.68 -5.24,16.28 -10.04,23.3 -6.88,6.46 -14.06,12.82 -22.02,17.92 -13.44,2.42 -28.42,2.22 -40.54,-4.84 -62.62,-32.3 -125.62,-63.9 -188.2,-96.26 0.12,-17.86 0.44,-35.74 0.64,-53.6 z"
       id="path86"
       inkscape:connector-curvature="0"
       style="fill:#f5722c" />
  </g>
</svg>
