<?xml version="1.0" encoding="UTF-8" standalone="no"?>
<svg
   xmlns:dc="http://purl.org/dc/elements/1.1/"
   xmlns:cc="http://creativecommons.org/ns#"
   xmlns:rdf="http://www.w3.org/1999/02/22-rdf-syntax-ns#"
   xmlns:svg="http://www.w3.org/2000/svg"
   xmlns="http://www.w3.org/2000/svg"
   xmlns:sodipodi="http://sodipodi.sourceforge.net/DTD/sodipodi-0.dtd"
   xmlns:inkscape="http://www.inkscape.org/namespaces/inkscape"
   width="1280"
   height="1280"
   viewBox="0 0 1024 1024"
   version="1.1"
   id="svg2"
   inkscape:version="0.48.1 "
   sodipodi:docname="kill_spy_two_sappers.svg">
  <metadata
     id="metadata88">
    <rdf:RDF>
      <cc:Work
         rdf:about="">
        <dc:format>image/svg+xml</dc:format>
        <dc:type
           rdf:resource="http://purl.org/dc/dcmitype/StillImage" />
      </cc:Work>
    </rdf:RDF>
  </metadata>
  <defs
     id="defs86" />
  <sodipodi:namedview
     pagecolor="#ffffff"
     bordercolor="#666666"
     borderopacity="1"
     objecttolerance="10"
     gridtolerance="10"
     guidetolerance="10"
     inkscape:pageopacity="0"
     inkscape:pageshadow="2"
     inkscape:window-width="1920"
     inkscape:window-height="1018"
     id="namedview84"
     showgrid="false"
     inkscape:snap-page="true"
     fit-margin-top="0"
     fit-margin-left="0"
     fit-margin-right="0"
     fit-margin-bottom="0"
     inkscape:zoom="0.6609375"
     inkscape:cx="466.00473"
     inkscape:cy="640"
     inkscape:window-x="-8"
     inkscape:window-y="-8"
     inkscape:window-maximized="1"
     inkscape:current-layer="layer1" />
  <g
     inkscape:groupmode="layer"
     id="layer1"
     inkscape:label="background"
     style="display:inline">
    <rect
       style="fill:#3e3e3e;fill-opacity:1;fill-rule:nonzero;stroke:none"
       id="rect3073"
       width="1024"
       height="1024"
       x="0"
       y="0" />
  </g>
  <g
     inkscape:groupmode="layer"
     id="layer2"
     inkscape:label="foreground"
     style="display:inline">
    <path
       d="m 608.78,11.36 c 12.64,12.76 27.8,22.62 40.6,35.2 9.1,8.44 19.66,15.2 28.5,23.9 -0.5,4.94 -4.24,8.72 -6.64,12.86 -6.76,9.46 -11.46,20.18 -17.96,29.8 -8.78,12.8 -15.44,26.86 -24.26,39.64 -6.2,11.62 -13.44,22.58 -20.4,33.74 -6.56,13.18 -15.78,24.76 -22.34,37.94 -2.2,3.46 -3.8,7.82 -7.66,9.76 -6.46,-12.48 -11.84,-25.52 -18.6,-37.86 -3.02,16.42 -9.22,31.98 -13.52,48.06 -4,19.7 -12.08,38.32 -16.14,58 -2.6,10.1 -5.8,20.06 -9.04,29.98 -0.16,-11.58 2.32,-22.96 3.34,-34.46 1.98,-12.64 1.44,-25.48 3.1,-38.14 1.72,-14.54 3.7,-29.06 5.18,-43.62 0.92,-26.22 4.98,-52.2 7.58,-78.28 0.38,-11.96 0.48,-24.06 3.82,-35.66 11.74,20.64 20.78,42.74 31.34,64 2.86,-16.06 7.16,-31.82 10.54,-47.78 2.56,-19.46 8.2,-38.32 12.04,-57.52 2.22,-16.78 6.88,-33.08 10.52,-49.56 z"
       id="path6"
       inkscape:connector-curvature="0"
       style="fill:#f4722c" />
    <path
       d="m 380.4,29.04 c 39.44,4.68 78.98,8.62 118.52,12.66 -0.58,17.14 0.5,34.3 -1.32,51.4 -0.66,23.04 -3.26,46.02 -2.4,69.1 -0.94,26.18 -2.46,52.34 -3.9,78.52 -6.88,-3.92 -13.8,-7.74 -20.94,-11.16 12.5,40.82 24.3,81.82 36.68,122.66 1.22,4.02 1.98,8.14 2.5,12.3 -6.88,-5 -9.24,-13.56 -13.52,-20.52 -7.52,-12.34 -12.2,-26.12 -19.6,-38.52 -10.78,-19.82 -21.8,-39.52 -32.4,-59.44 -11.2,-25.36 -26.16,-48.78 -39.08,-73.26 -3.22,-6.64 -8.36,-12.9 -8.06,-20.68 17.94,12.06 33.84,26.72 51.36,39.32 -13.78,-33.96 -29,-67.32 -42.9,-101.24 C 398.42,69.26 388.66,49.44 380.4,29.04 z"
       id="path8"
       inkscape:connector-curvature="0"
       style="fill:#f4722c" />
    <path
       style="fill:#f5e5c1"
       d="m 153.65,80.75 c -14.11293,0.17527 -27.875,4.5725 -40.65,10.4 -6.94,3.38 -12.13,9.32 -18.55,13.5 -3.2,2.06 -5.95,4.74 -7.95,8 -9.26,14.54 -15.8,30.65 -20.3,47.25 -2.06,7.52 -1.93,15.45 -1.05,23.15 16.78,-8.06 34.93,-12.83 52.85,-17.65 7.56,-1.9 11.67,6.46 14.45,12 4.4,10.48 9.54,23.46 3,34.1 -7.72,6.56 -17.86,9.9 -27.5,12.4 -7.54,-2 -12.71,-8.54 -19.05,-12.7 -3.28,0.46 -6.59,0.91 -9.85,1.35 -3.4,14.82 -3.67,32.97 8.25,44.15 5.7,2.92 10.99,-1.96 15.85,-4.4 0.48,-1.38 1.45,-4.12 1.95,-5.5 11.3,-4.12 23.12,-6.7 35.1,-7.8 l 4.4,3.2 c 3.98,12.92 3.12,26.65 1.2,39.85 -3.56,11.7 -16.04,16.87 -26.5,20.85 6.18,4.9 14.53,2.21 20.85,-0.95 9.92,-5.1 19.85,-10.21 29.95,-14.95 12.16,11.14 24.62,21.98 38.6,30.8 -1.46,15.14 3.35,29.66 9.65,43.2 4.12,10.64 12.81,18.59 17.75,28.75 1.74,7.6 1.72,15.76 5.5,22.8 5.94,11.74 8.9,24.64 12.9,37.1 5.7,18.42 5.58,38.07 11.3,56.45 2,15.36 3.67,30.77 5.65,46.15 13.12,6.38 25.33,14.51 38.45,20.85 -11.74,-0.66 -22.06,-6.86 -33.6,-8.4 -6.26,-1.6 -11.88,-4.87 -17.8,-7.35 -30.26,-13.14 -61.61,-23.61 -92.35,-35.55 -3.12,-1.06 -0.78,-5.36 -1.1,-7.8 6.24,-0.96 12.52,-4.32 18.9,-2.8 11.6,4.68 22.25,11.61 34.05,15.85 12.76,-6.94 24.58,-15.6 37.5,-22.3 -3.38,-28.18 -8.12,-56.24 -17.5,-83.1 -14.58,4.42 -27.67,12.48 -41.45,18.8 -10.26,4.58 -19.53,10.9 -28.65,17.4 -8.6,-5.82 -15.65,-13.73 -24.65,-18.95 -3.46,-2.4 -7.47,-0.18 -11.15,0.3 3.46,10.76 9.58,20.34 14,30.7 6.4,13.24 9.42,27.71 12.3,42.05 -1.22,6.68 -1.24,13.47 -1.7,20.25 0.04,2.58 -1.6,5.97 -4.7,5.25 -9.32,0.7 -13.04,-9.25 -19,-14.45 -7.84,-7.24 -14.96,-16.19 -25,-20.35 -6.04,-2.94 -13.52,2.49 -11.5,9.15 3.4,7.84 9.85,13.81 14.25,21.05 2.38,4.4 0.85,9.86 -2.25,13.5 -4.42,5.64 -7.87,12.13 -13.15,17.05 -6.6,3.62 -14.29,0.28 -20.45,-2.8 -0.54,3.62 -2.72,7.64 -0.4,11.1 12.76,16.04 30.1,29.15 50.5,33.45 2.06,-13.48 5.44,-27.23 13.6,-38.45 4.52,-5.08 9.68,-11.43 17.3,-10.45 0.26,8.32 -9.13,10.93 -12.55,17.45 -4.92,9.22 -9.98,19.49 -8.6,30.25 4.18,5.62 10.33,9.37 16.05,13.25 16.5,10.1 33.7,18.96 51.2,27.2 20.42,10.3 40.83,20.79 62.45,28.35 0.68,11.76 0.29,23.73 3.65,35.15 3.28,-15.84 5.25,-32.03 10.35,-47.45 22.1,-76.48 87.13,-139.72 164.95,-157.6 -19.64,-21.58 -28.02,-53.62 -18.5,-81.6 5.1,-20.92 20.72,-37.19 38.5,-48.35 -7.02,-11.54 -14.32,-22.94 -22.4,-33.8 -23.7,-39.38 -50.14,-79.84 -90.7,-103.7 -11.32,-5.66 -20.19,-15.66 -32.55,-19.3 -7.62,-2.12 -15.55,-4.8 -23.55,-3.1 -6.48,1.02 -12.21,4.36 -18.35,6.4 -10.72,-0.36 -21.46,-0.35 -32.2,-0.05 3.32,8.88 10.15,16.89 9.95,26.75 -1.54,8.52 -6.75,15.82 -9.15,24.1 -4.34,13.94 -9.02,27.77 -12.9,41.85 -2.04,6.88 -1.67,14.51 -5.55,20.75 -1.24,-8.14 -2.56,-16.68 0.1,-24.7 4.74,-16.44 10.04,-32.92 18.1,-48.1 3.56,-6.74 5.91,-14.3 5.35,-22 -10,-10.16 -15.51,-23.57 -20.35,-36.75 -2.36,-7.06 -7.7,-13.6 -6.7,-21.4 0.8,-7.94 1.28,-16.05 -0.8,-23.85 -4.14,-14.26 -8.24,-28.9 -16.9,-41.2 -11.6,-14.96 -25.96,-29.55 -45.1,-33.85 -2.0275,-0.155 -4.03387,-0.22504 -6.05,-0.2 z m 138,227.5 c -10.38,20.64 -19.87,44.54 -13.15,67.8 -8.66,-12.48 -5.18,-28.24 -1.5,-41.8 2.54,-9.84 9.71,-17.36 14.65,-26 z m -80.1,10.1 c 5.88656,-0.16488 9.6925,7.2175 11.95,12.1 1.78,5.16 -4.66,4.24 -7.8,4.8 -3.74,-4.76 -6.16,-10.31 -6.8,-16.35 0.9275,-0.36 1.80906,-0.52645 2.65,-0.55 z m -28.7,138.15 c 6.32,16.86 9.75,34.98 8.45,53 -6.3,-14.92 -11.34,-31 -22.9,-42.9 4.8,-3.34 9.65,-6.72 14.45,-10.1 z m 122.4,59.5 c 0.26389,1.26963 0.48275,2.57106 0.7,3.85 2.47635,11.36565 8.5473,21.58477 11.05,33 1.84,8.34 7.81,16.09 5.55,24.95 -5.56,-3.4 -6.98,-9.98 -9.2,-15.6 -5.08027,-13.57186 -4.99933,-28.21672 -7.4,-42.35 -0.27437,-1.25928 -0.52445,-2.5593 -0.7,-3.85 z"
       id="path10"
       inkscape:connector-curvature="0" />
    <path
       style="fill:#f5e5c1"
       d="m 850.1,80.8 c -18.18,2.8 -32.31,16.2 -43.65,29.8 -11.22,13.46 -16.09,30.7 -20.55,47.3 -3.3,11.38 2.8,23.91 -3.3,34.65 -7.24,15.44 -11.29,33.35 -24.35,45.25 0.2,7.3 1.5,14.6 5,21.1 8.2,15.52 13.82,32.24 18.6,49.1 2.56,8.12 1.48,16.75 0,24.95 -4,-9.76 -4.61,-20.51 -8.05,-30.45 -5.24,-15.44 -8.98,-31.4 -16,-46.2 -2.08,-4.8 -4.52,-10.13 -2.9,-15.45 2.06,-7.62 6.34,-14.33 9.6,-21.45 -10.22,-0.34 -20.48,-0.28 -30.7,-0.1 -8.2,-1.3 -15.4,-6.64 -23.9,-6.8 -16.96,-0.4 -31.9,8.53 -44.9,18.45 -32.92,17.84 -58.6,46.44 -78.7,77.6 -9.4,13.32 -16.84,27.9 -26.7,40.9 -5.42,7.66 -10.16,15.74 -15.1,23.7 14.54,9.38 27.44,21.88 34.4,38 4.62,11.68 8.2,24.12 7.6,36.8 -1.38,20.26 -8.43,40.86 -23.45,55.1 37.76,8.86 72.01,29.29 100.45,55.35 35.64,33.82 60.34,79.04 68.9,127.5 5.84,26.52 6.5,54.3 0.9,80.9 -5.98,35.58 -19.38,70.32 -41.1,99.3 -4.24,5.06 -2.6,11.91 -3.1,17.95 0,10.84 -2.32,21.48 -4.8,32 16.2,9.28 31.03,20.65 46.25,31.45 11.34,7.86 20.03,18.82 31.45,26.6 14.46,15.7 23.65,35.96 40.15,49.9 l 59.65,0 c 7.46,-5.56 12.34,-15.07 10.1,-24.45 -6.2,-34.12 -18.01,-67.05 -32.35,-98.55 -6.6,-15.06 -16.03,-28.98 -19.75,-45.2 -4.88,-19.68 -14.88,-37.38 -24.2,-55.2 -15.06,-32.12 -37.16,-60.13 -56,-89.95 2.6,-12.48 3.79,-25.19 3.95,-37.95 25.58,-8.78 49.24,-22.07 73.6,-33.65 18.74,-9.74 38.33,-18.65 54.35,-32.65 -2.08,-23.78 -11.57,-46.17 -22.95,-66.85 13.56,6.68 19.58,21.17 26.1,33.85 5.52,9.66 9.99,19.95 13.15,30.65 17.84,-5.24 33.03,-16.85 44.75,-31.05 1.84,-2.92 1.77,-6.64 2.65,-9.9 -7.06,1 -14.14,2.34 -21.3,2.3 -4.12,0.04 -6.12,-4.27 -8.3,-7.05 -3.84,-6.44 -7.48,-13.15 -9.6,-20.35 0.44,-13.4 14.36,-21.64 15.9,-34.8 -6.4,-1.84 -14.03,-3.62 -19.65,1.1 -9.02,7.72 -15.98,17.42 -23.8,26.3 -2.04,2.24 -4.45,4.42 -7.55,5 -6.32,-5.2 -10.32,-13.2 -9.5,-21.5 0.96,-19.94 4.6,-40.38 14.8,-57.8 3.52,-5.6 7.48,-10.9 10.7,-16.7 -4.06,-0.62 -8.46,-3.07 -12.3,-0.55 -8.78,5 -15.62,12.7 -24,18.3 -22.96,-12.9 -45.66,-26.61 -70.5,-35.65 -9.52,26.82 -14.2,54.94 -17.6,83.1 12.26,6.06 23.09,14.78 35.45,20.5 8,-2.64 15.29,-6.94 22.95,-10.4 2.04,-18.64 2.57,-37.66 8.55,-55.6 4.9,1.96 9.72,4.14 14.5,6.4 -11.96,12.4 -15.63,29.78 -18.25,46.2 0.96,2.5 5.32,7.11 1.2,8.75 -20.64,10.48 -42.05,19.38 -62.75,29.7 -17.36,10.18 -35.66,20.1 -55.9,22.8 9.06,-4.38 17.36,-10.12 26.5,-14.3 3.86,-1.94 8.02,-3.5 11.4,-6.2 3.28,-16.22 3.46,-32.96 6.8,-49.2 4.86,-17.24 5.15,-35.4 10.25,-52.6 3.94,-12.9 7.22,-26.12 13.2,-38.3 3.84,-7.52 3.5,-16.26 6.2,-24.1 4.42,-8.56 11.41,-15.53 15.55,-24.25 3.88,-8.32 7.43,-16.85 9.75,-25.75 1.74,-6.6 0.66,-13.47 1.5,-20.15 4.5,-4.66 10.57,-7.35 15.55,-11.45 7.88,-6.36 15.48,-13.05 23,-19.85 11.64,5.18 22.6,11.78 34.3,16.8 5.6,2.72 11.85,1.37 17.65,0.25 -9.96,-5.06 -22.69,-9.04 -27.15,-20.4 -2.96,-13.66 -3.09,-28.13 0.65,-41.65 1.12,-0.76 3.41,-2.24 4.55,-3 11.9,1.18 23.6,3.74 34.9,7.7 0.7,1.94 1.43,3.89 2.15,5.85 4.96,2.26 11.23,7.76 16.55,3.4 11.22,-11.52 10.59,-29.16 7.35,-43.8 -4.42,0 -9.56,-1.77 -13.2,1.65 -6.28,3.84 -12.32,12.74 -20.6,8.9 -7.84,-2.98 -16.4,-5.43 -22.6,-11.35 -5.62,-8.64 -2.43,-19.56 0.75,-28.5 2.72,-6.62 5.64,-14.35 12.5,-17.65 4.54,-0.18 8.89,1.31 13.25,2.45 14.88,4.48 29.9,8.74 44.1,15.2 2.16,-16.62 -3.64,-32.63 -9.8,-47.75 C 927.56,122.88 922.14,109.23 910,101.95 893.84,87.39 871.62,80.46 850.1,80.8 z M 716.35,308.3 c 2.88,4.8 6.13,9.36 9.25,14 5.74,8.96 7.63,19.69 9.05,30.05 1.12,8.2 -0.2,17.11 -5.6,23.65 l 1.9,-3.85 c 3.46,-22.36 -4.48,-44.31 -14.6,-63.85 z m 81.45,9.25 c 1.04,6.52 -1.09,12.61 -5.45,17.45 -2.04,-0.1 -6.11,-0.27 -8.15,-0.35 0.3,-7.62 5.7,-15.86 13.6,-17.1 z m -95.15,198.5 c -1.06,7.92 -2.49,15.79 -3.15,23.75 -1,13.34 -5.43,26.18 -11.75,37.9 -5.18,-3.5 -2.18,-9.34 -0.5,-13.9 4,-9.82 5.77,-20.45 10.35,-30.05 2.84,-5.52 3.81,-11.68 5.05,-17.7 z"
       id="path12"
       inkscape:connector-curvature="0" />
    <path
       d="m 107.48,281.48 c 2.66,-1.64 5.66,-2.56 8.68,-3.28 -13.78,9.04 -24.44,23 -40.84,27.64 8.8,-10.36 20.62,-17.46 32.16,-24.36 z"
       id="path14"
       inkscape:connector-curvature="0"
       style="fill:#f5e5c1" />
    <path
       d="m 891.64,277.8 c 15.48,5.98 29.7,15.88 41.02,28.02 -16.46,-4.76 -27.4,-18.58 -41.02,-28.02 z"
       id="path16"
       inkscape:connector-curvature="0"
       style="fill:#f5e5c1" />
    <path
       d="m 490.36,390.42 c 27.72,-7.58 58.96,10.1 67.32,37.48 8.94,25.24 -3.2,54.68 -26.16,67.8 -0.08,-6.18 -0.08,-12.36 -0.14,-18.52 5.14,-5.68 10.06,-11.88 12.08,-19.4 4.88,-15.64 -0.48,-33.88 -13.32,-44.12 -14.16,-12.16 -36.72,-12.58 -51.44,-1.18 -11.6,8.58 -18.04,23.46 -16.24,37.8 0.82,11.1 7.24,20.82 15.22,28.22 0.02,6.02 0,12.06 -0.12,18.08 -18.16,-10.02 -31,-29.58 -30.7,-50.62 -0.64,-25.68 18.46,-49.96 43.5,-55.54 z"
       id="path26"
       inkscape:connector-curvature="0"
       style="fill:#f5e5c1" />
    <path
       d="m 75.04,406.08 c 9.96,1.18 17.2,8.7 25.54,13.5 6.5,4.68 15.5,7.64 18.04,16.08 9.44,18.64 20.58,36.72 26.16,57.06 3.42,11.44 3.48,23.48 4.56,35.28 -9.98,-9.06 -18.54,-19.66 -29.28,-27.9 -6.16,-4.82 -14.64,-4.48 -21.96,-3.4 -3.12,1.62 -5.32,4.5 -7.86,6.84 -11,-9.32 -22.6,-17.9 -33.74,-27.04 5.52,-23.64 12.46,-46.92 18.54,-70.42 z"
       id="path28"
       inkscape:connector-curvature="0"
       style="fill:#f4722c" />
    <path
       d="m 918.06,412.28 c 5.66,-4.74 12.86,-6.78 20.04,-7.8 14.14,28.26 28.26,56.54 42.38,84.84 2.3,4.56 3.86,9.42 5.28,14.34 -8.9,-9.48 -17.9,-19.14 -25.26,-29.86 -9.16,-21.38 -17.46,-43.16 -26.08,-64.78 -1.08,-0.18 -3.24,-0.54 -4.32,-0.72 7.62,24.36 19.56,47.2 27.18,71.56 -12.56,6.34 -24.76,13.32 -37.3,19.7 -8.96,-7.94 -22.28,-8.8 -32.98,-4.28 -9.66,7.4 -14.5,19.2 -23.66,27.14 -0.36,-9.02 -3.68,-18.34 -0.56,-27.18 3.2,-9.58 6.6,-19.1 9.7,-28.7 3.28,-11.08 10.58,-20.26 15.8,-30.4 9.04,-8.94 19.78,-16.02 29.78,-23.86 z"
       id="path30"
       inkscape:connector-curvature="0"
       style="fill:#f4722c" />
    <path
       d="m 49.18,448.78 c 6.58,-13.06 10.94,-27.22 18.58,-39.72 -6.66,23.42 -14.28,46.6 -21.44,69.9 -6.78,10.98 -14.3,21.6 -22.16,31.86 C 28.94,488.9 39.88,469 49.18,448.78 z"
       id="path32"
       inkscape:connector-curvature="0"
       style="fill:#f4722c" />
    <path
       d="m 479.9,431.2 c 16.2,-0.12 32.38,-0.04 48.58,-0.04 0,1.88 -0.02,5.64 -0.02,7.52 -16.18,-0.04 -32.38,0.02 -48.56,-0.06 0,-1.86 0,-5.56 0,-7.42 z"
       id="path34"
       inkscape:connector-curvature="0"
       style="fill:#f5e5c1" />
    <path
       d="m 480.14,442.52 c 16.08,-0.08 32.16,0.08 48.24,-0.1 0.12,9.08 0.1,18.14 0.06,27.22 -16.1,-0.06 -32.18,0 -48.28,-0.02 0.02,-9.04 0.04,-18.08 -0.02,-27.1 z"
       id="path36"
       inkscape:connector-curvature="0"
       style="fill:#f5e5c1" />
    <path
       d="m 487.44,476.7 c 11.16,-0.26 22.32,-0.1 33.48,-0.14 -0.08,12.08 -0.04,24.16 -0.02,36.22 -11.12,-0.74 -22.26,-0.82 -33.36,-0.1 0,-12 0.1,-23.98 -0.1,-35.98 z"
       id="path40"
       inkscape:connector-curvature="0"
       style="fill:#f5e5c1" />
    <path
       d="m 50.36,480.64 c 3.82,0.72 7.52,2.06 10.44,4.7 8.6,7.08 17.52,13.76 26.06,20.92 2.06,12.2 13.6,20.04 16.68,31.54 -5.38,5.7 -9,12.64 -13.52,18.96 -3.2,0.68 -6.16,-1.26 -9.1,-2.14 -5.86,-2.58 -12.72,-3.28 -17.52,-7.86 -12.16,-10.52 -24.5,-20.84 -36.66,-31.34 7.9,-11.58 16.2,-22.88 23.62,-34.78 z"
       id="path42"
       inkscape:connector-curvature="0"
       style="fill:#f4722c" />
    <path
       d="m 921.1,504.88 c 13.42,-7.66 27.58,-14.02 40.86,-21.96 7.16,8.68 14.34,17.38 21.9,25.74 1.72,-0.04 5.14,-0.1 6.84,-0.12 -7.46,9.26 -17.42,16 -25.98,24.16 -7.9,6.18 -14.26,15.06 -24.38,17.72 -8.06,2.8 -16.02,6.16 -24.58,7.12 -3.12,-7.2 -7.86,-13.84 -9.44,-21.62 3.8,-10.86 12.12,-19.64 14.78,-31.04 z"
       id="path44"
       inkscape:connector-curvature="0"
       style="fill:#f4722c" />
    <path
       d="m 461.8,524.48 c 45.42,-8.96 93.82,-2.5 135.06,18.62 48.6,24.38 86.64,68.78 103.38,120.5 9.26,29.6 13.8,61.38 8.68,92.22 -3.22,25.64 -11.48,50.54 -23.7,73.3 -0.9,1.72 -2,3.32 -3.38,4.7 -5.06,-12.92 -11.1,-25.54 -19.72,-36.52 13.26,-32.42 17.28,-68.68 10.2,-103.08 C 665.2,658 645.94,624.36 618.38,599.8 592.34,576.26 558.96,561 524.12,556.74 c -37.98,-4.86 -77.54,3.18 -110.4,22.86 -34.36,20.2 -61.28,52.68 -74.64,90.22 -14.98,41.22 -13.26,87.86 3.76,128.2 -5.58,5.5 -15.28,11.92 -11.54,21.04 5.28,8.92 12.9,16.14 19.22,24.3 6.06,7 11.72,17.54 22.72,15.44 -0.82,10.96 -1.1,21.96 -1.34,32.94 -40.16,-32.22 -67.82,-79.68 -75.48,-130.66 -1.34,-10.3 -2.82,-20.62 -3.18,-31.02 1.06,-41.2 12.36,-82.62 35.68,-116.88 30.08,-45.76 79.14,-78.38 132.88,-88.7 z"
       id="path50"
       inkscape:connector-curvature="0"
       style="fill:#f5e5c1" />
    <path
       d="m 496.16,566.3 c 4.12,-0.02 8.24,-0.04 12.38,-0.06 0.04,8.46 0.02,16.92 0,25.38 -4.12,0 -8.26,0.02 -12.38,0.08 0,-8.48 0,-16.94 0,-25.4 z"
       id="path52"
       inkscape:connector-curvature="0"
       style="fill:#f5e5c1" />
    <path
       d="m 524,570.78 c 4.38,0.7 8.76,1.42 13.14,2.2 -3.1,24.68 -5.62,49.44 -8.38,74.16 -0.34,6.1 -4.48,10.86 -7.7,15.72 -9.84,14.18 -19.06,28.78 -29.1,42.8 10.06,-45.1 21.74,-89.82 32.04,-134.88 z"
       id="path54"
       inkscape:connector-curvature="0"
       style="fill:#f4722c" />
    <path
       d="m 487.66,723.22 c 29.8,-45.5 60.06,-90.7 90.1,-136.04 3.68,2.2 7.38,4.36 11.06,6.52 -24.3,48.62 -48.36,97.36 -72.6,146.02 -9.48,-5.56 -19,-11.08 -28.56,-16.5 z"
       id="path56"
       inkscape:connector-curvature="0"
       style="fill:#f5e5c1" />
    <path
       d="m 382.7,618.18 c 2.98,-2.94 5.96,-5.88 8.94,-8.82 6.18,6.38 12.5,12.64 18.9,18.8 -2.92,3.04 -5.84,6.08 -8.74,9.14 -6.32,-6.4 -12.68,-12.8 -19.1,-19.12 z"
       id="path58"
       inkscape:connector-curvature="0"
       style="fill:#f5e5c1" />
    <path
       d="m 613.22,609.48 c 3.02,2.88 6.02,5.78 9.04,8.66 -5.66,5.68 -11.4,11.32 -16.98,17.1 -3.02,-2.96 -6.04,-5.9 -9.06,-8.82 5.8,-5.52 11.46,-11.16 17,-16.94 z"
       id="path60"
       inkscape:connector-curvature="0"
       style="fill:#f5e5c1" />
    <path
       d="m 451.66,723.98 c 1.4,-21.2 17.52,-39.48 37.7,-45.26 -0.86,5.16 -1.78,10.32 -2.74,15.48 -9.8,5.36 -17.92,14.36 -20.14,25.54 -4.18,16.82 5.74,35.58 21.82,41.88 14.92,6.54 33.74,1.3 43.32,-11.82 7.82,-10.12 9.28,-24.04 4.84,-35.9 2.64,-4.74 5.34,-9.44 8.12,-14.1 10.12,15.42 11.82,36.78 2.02,52.72 -8.18,3.16 -16.96,4.8 -24.68,9.18 -9.38,4.26 -17.36,10.84 -25.88,16.5 -26.32,-1.7 -47.18,-28.24 -44.38,-54.22 z"
       id="path62"
       inkscape:connector-curvature="0"
       style="fill:#f5e5c1" />
    <path
       d="m 267.66,711.98 c -1.94,29.86 2.94,59.84 11.7,88.34 11.54,38.96 34.9,73.84 64.42,101.5 -10.24,6.3 -19.4,14.22 -29.84,20.24 -9.94,5.82 -18.88,13.12 -28.38,19.62 -9.34,6.44 -18.38,13.4 -26.3,21.56 -5.18,5.6 -12.46,8.84 -17.1,15 -12.04,15.26 -21.46,32.88 -36.28,45.76 l -58.86,0 c -8.3,-4.74 -13.06,-14.86 -10.94,-24.24 6.28,-34.88 18.48,-68.5 33.24,-100.64 6.52,-14.36 15.36,-27.78 18.9,-43.32 4.8,-19.2 14.34,-36.6 23.54,-53.94 15,-32.1 36.76,-60.24 55.9,-89.88 z"
       id="path64"
       inkscape:connector-curvature="0"
       style="fill:#f5e5c1" />
    <path
       d="m 340.7,722.72 c 8.62,0.02 17.24,-0.02 25.84,0.1 -0.04,4.1 -0.06,8.22 -0.06,12.34 -8.6,0.06 -17.18,0.04 -25.78,0.04 0.02,-4.16 0.02,-8.32 0,-12.48 z"
       id="path66"
       inkscape:connector-curvature="0"
       style="fill:#f5e5c1" />
    <path
       d="m 642.32,722.72 c 8.08,0.04 16.16,0.04 24.26,0 0,4.16 0,8.32 0.02,12.5 -8.08,-0.04 -16.16,-0.04 -24.22,0 -0.02,-4.16 -0.04,-8.34 -0.06,-12.5 z"
       id="path68"
       inkscape:connector-curvature="0"
       style="fill:#f5e5c1" />
    <path
       d="m 569.9,760.15 c -5.06429,0.0296 -10.08626,0.41374 -15.1,1.25 -30.28,4.7 -57.16,24.12 -73.5,49.7 -12.9,20.46 -19.98,44.66 -19.4,68.9 -0.4,37.16 17.14,74.57 47.3,96.65 17.94,13.48 40.33,21.19 62.85,20.45 29.84,0.18 58.63,-14.65 77.85,-37.15 21.84,-24.88 31.87,-59.07 28.95,-91.85 -2.7,-34.12 -19.91,-67.11 -47.55,-87.55 -17.53374,-13.27626 -39.45475,-20.52822 -61.4,-20.4 z m 0.5,72 c 13.71195,0.011 27.24875,6.56501 36.3,16.9 20.94,24.36 21.3,64.79 -1,88.45 -10.6,11.22 -26.41,18.77 -42.05,16.05 -15.38,-2.84 -28.77,-13.35 -36.25,-26.95 -8.72,-15.14 -9.6,-33.63 -6.3,-50.45 4.26,-20 19.19,-38.64 39.85,-42.9 3.13125,-0.72374 6.2857,-1.10253 9.45,-1.1 z"
       id="path70"
       style="fill:#f4722b"
       inkscape:connector-curvature="0" />
    <path
       d="m 340.2,814.7 c 17.56,-16.96 34.52,-34.56 52.2,-51.4 18.4,0.94 36.78,2.4 55.18,3.44 -2.9,76.8 -6.74,153.58 -9.7,230.38 -20,-0.82 -40,-1.94 -59.98,-3.06 2.16,-53.24 3.92,-106.5 6.08,-159.76 -5.12,5.12 -10.22,10.22 -15.38,15.26 -9.26,-11.78 -19.76,-22.64 -28.4,-34.86 z"
       id="path72"
       inkscape:connector-curvature="0"
       style="fill:#f4722c" />
    <path
       d="m 529.28,900.46 c 28.24,-4.5 55.1,-16.1 78.06,-33.1 4.66,12.34 6.92,26.52 3.24,39.26 -18.82,12.56 -40.64,20.5 -62.64,25.6 -4.26,1.88 -6.44,-2.72 -8.68,-5.38 -5.74,-7.66 -8.74,-16.96 -9.98,-26.38 z"
       id="path76"
       inkscape:connector-curvature="0"
       style="fill:#f5e5c1" />
    <path
       d="m 452.68,895.14 c 2.02,13.16 5.08,26.18 10.22,38.52 -4.12,-0.96 -8.22,-1.9 -12.32,-2.86 0.72,-11.88 0.7,-23.82 2.1,-35.66 z"
       id="path78"
       inkscape:connector-curvature="0"
       style="fill:#f5e5c1" />
    <path
       d="m 260.4,971.96 c 13.3,-16.24 32.04,-26.72 47.8,-40.36 11,23.34 21.8,46.8 32.02,70.48 5.36,6.76 10.6,13.64 13.5,21.92 l -66.04,0 c -11.66,-15.8 -20.22,-33.82 -27.28,-52.04 z"
       id="path80"
       inkscape:connector-curvature="0"
       style="fill:#f5e5c1" />
    <path
       d="m 667.84,1002 c 10.14,-23.68 21,-47.08 31.96,-70.4 16.1,13.44 34.08,24.68 48.34,40.24 -8.1,17.92 -15.86,36.3 -27.7,52.16 l -65.72,0 c 2.06,-8.62 7.92,-15.18 13.12,-22 z"
       id="path82"
       inkscape:connector-curvature="0"
       style="fill:#f5e5c1" />
  </g>
</svg>
