<?xml version="1.0" encoding="UTF-8" standalone="no"?>
<svg
   xmlns:dc="http://purl.org/dc/elements/1.1/"
   xmlns:cc="http://creativecommons.org/ns#"
   xmlns:rdf="http://www.w3.org/1999/02/22-rdf-syntax-ns#"
   xmlns:svg="http://www.w3.org/2000/svg"
   xmlns="http://www.w3.org/2000/svg"
   xmlns:sodipodi="http://sodipodi.sourceforge.net/DTD/sodipodi-0.dtd"
   xmlns:inkscape="http://www.inkscape.org/namespaces/inkscape"
   width="1280"
   height="1280"
   viewBox="0 0 1024 1024"
   version="1.1"
   id="svg2"
   inkscape:version="0.48.1 "
   sodipodi:docname="manual_cloaked_spy_kill.svg">
  <metadata
     id="metadata86">
    <rdf:RDF>
      <cc:Work
         rdf:about="">
        <dc:format>image/svg+xml</dc:format>
        <dc:type
           rdf:resource="http://purl.org/dc/dcmitype/StillImage" />
      </cc:Work>
    </rdf:RDF>
  </metadata>
  <defs
     id="defs84" />
  <sodipodi:namedview
     pagecolor="#ffffff"
     bordercolor="#666666"
     borderopacity="1"
     objecttolerance="10"
     gridtolerance="10"
     guidetolerance="10"
     inkscape:pageopacity="0"
     inkscape:pageshadow="2"
     inkscape:window-width="1920"
     inkscape:window-height="1018"
     id="namedview82"
     showgrid="false"
     inkscape:snap-page="true"
     fit-margin-top="0"
     fit-margin-left="0"
     fit-margin-right="0"
     fit-margin-bottom="0"
     inkscape:zoom="0.6609375"
     inkscape:cx="640"
     inkscape:cy="640"
     inkscape:window-x="-8"
     inkscape:window-y="-8"
     inkscape:window-maximized="1"
     inkscape:current-layer="svg2" />
  <rect
     style="fill:#3e3e3e;fill-opacity:1;fill-rule:nonzero;stroke:none"
     id="rect3070"
     width="1024"
     height="1024"
     x="0"
     y="2.2737368e-013" />
  <path
     style="fill:#f5e5c1"
     d="m 283.1,0 c 6.16,16.12 14.5,31.3 21,47.3 2.18,5 4.14,10.76 9,13.8 3.98,2.24 8.49,3.1 12.85,4.3 1.94,5.4 -1.95,8.72 -5.95,11.5 6.6,17.64 15.39,34.36 23.15,51.5 1.8,3.62 -2.28,6.14 -4.2,8.6 -9.84,9.54 -18.25,20.59 -29.45,28.65 -5.38,3.88 -10.46,9.56 -10.7,16.5 0.96,6.9 3.95,13.31 5.95,19.95 2.14,5.88 3.4,12.55 8.1,17.05 4.9,5.02 10.84,8.82 16.5,12.9 -3.62,6.96 -8.46,13.85 -8.8,21.95 -1,5.84 5.21,8.95 8.25,13.05 -0.12,2.52 -0.2,5.09 -0.3,7.65 19.14,15.5 38.11,31.16 57.55,46.3 23.64,-5.06 46.87,-11.8 70.65,-16.2 22.84,-6.62 46.22,-11.12 69.3,-16.8 20.1,-5.32 40.43,-9.74 60.65,-14.6 2.7,-6.66 7.91,-11.71 15.05,-13.25 1.96,-4.66 3.94,-11.64 10.3,-11.3 7.78,-0.3 11.05,8.51 11.35,14.95 1.14,5.42 -2.74,9.63 -5.9,13.45 1.56,10.6 3.54,23.36 -3.4,32.5 -7.16,7.52 -16.85,0.48 -23.05,-4.6 -0.78,5.72 0.37,13.11 -4.85,17.05 -3.02,1.24 -6.37,0.98 -9.55,1.4 -1.82,-3.96 -3.58,-7.96 -5.2,-12 -49.82,11.28 -99.32,23.8 -149.1,35.3 11.02,7.56 21.24,16.38 33.1,22.7 11.52,7.06 24.02,12.62 34.4,21.4 -4.4,30.94 -8.03,61.94 -12.15,92.9 -0.94,10.06 -0.68,20.19 -1.7,30.25 -1.8,15.86 -0.61,31.89 -2.35,47.75 -0.2,3.94 -1.08,7.98 -0.2,11.9 4.32,3.9 9.74,6.22 14.7,9.2 4.26,0.78 8.54,1.65 12.8,2.45 0.28,14.02 -2.78,27.91 -1.2,41.95 -3.46,24.12 -1.81,48.52 -4.35,72.7 -0.8,13.46 2.51,26.66 3.65,40 0.6,8.02 -0.9,16.18 1,24.1 1.68,6.3 -2.06,12.09 -4,17.85 -7.9,20.38 -6.2,42.64 -8.5,64 -0.3,14.82 -4.52,29.1 -6.5,43.7 -2.36,11.52 -0.89,24.14 -7.65,34.4 0.72,1.1 2.13,3.35 2.85,4.45 8.26,0.24 16.62,-0.64 24.8,0.8 7.36,7.76 3.25,19.6 4.15,29.2 -18.56,8.34 -36.74,18.91 -50.3,34.35 -8.74,9.48 -23.67,11.47 -30.45,22.95 l 0.2,2.8 c 15.34,-0.48 30.23,-5.05 45.55,-5.85 9.46,-0.34 16.55,-7.38 24.15,-12.1 9.44,-5.76 18.24,-13.89 29.7,-15.05 5.66,-0.78 11.4,-0.91 17.1,-1.15 1.66,-18.86 -3.06,-37.8 -0.3,-56.5 7.12,-1.2 13.92,-3.83 20.2,-7.35 -2.8,-16.12 -1.57,-32.5 -3.45,-48.7 -0.26,-37.32 0.07,-74.68 -0.15,-112 -0.26,-7.46 2.26,-14.5 4.4,-21.5 12.22,-46.34 20.93,-93.5 33.65,-139.7 3.76,0.8 7.61,1.45 11.25,2.75 2.56,2.26 3.44,5.74 4.7,8.8 5.2,15.58 11.77,30.65 17.15,46.15 5.94,17.26 13.85,33.79 18.55,51.45 6.44,22.46 12.56,45.07 19.9,67.25 2.64,7.82 6.02,15.42 7,23.7 1.02,11.42 7.36,21.53 8.5,32.95 4.3,30.1 9.3,60.05 13.5,90.15 2.5,13.68 2.92,27.72 6.5,41.2 10.04,-1.28 20.13,-2.3 30.25,-2.8 4.92,10.26 -0.03,20.81 -0.85,31.25 3.74,10.84 6.64,22.17 12.1,32.35 l 41.9,0 1.95,0 c -2.1,-9.66 -4.31,-19.38 -8.45,-28.4 0.02,-1.44 0.08,-4.36 0.1,-5.8 -4.14,-3.3 -9.07,-6.02 -12.05,-10.5 -3.04,-6.22 -4.13,-13.14 -6.15,-19.7 2.44,-5.6 5.7,-10.84 10.2,-15 -3.88,-18.92 -10.72,-37.07 -16.2,-55.55 -7.64,-22.14 -12.36,-45.27 -21.9,-66.75 -3.46,-8.44 -6.7,-16.98 -10.2,-25.4 -4.08,-9.84 -1.52,-20.6 -0.9,-30.8 0.82,-10.76 -0.74,-21.46 -0.6,-32.2 0.44,-19.3 1.23,-38.64 -0.55,-57.9 1.24,-25.48 -1.18,-50.92 -0.7,-76.4 10.94,-2.42 21.79,-5.27 32.75,-7.65 1.28,-17.82 -5.25,-34.81 -6.95,-52.35 -2.94,-25.3 -8.29,-50.23 -11.65,-75.45 -4.1,-23.26 -6.91,-46.71 -11.05,-69.95 -1.88,-10.5 -3.17,-21.12 -3.25,-31.8 0.96,0.18 2.84,0.57 3.8,0.75 4.64,20.76 11.25,41 16.55,61.6 4.72,18.36 4.73,37.5 8.25,56.1 5.4,27.36 11.21,54.66 16.75,82 1.96,0.22 3.95,0.43 5.95,0.65 0.82,0.94 2.43,2.81 3.25,3.75 0.1,1.38 0.25,4.12 0.35,5.5 1.78,1.2 3.6,2.35 5.4,3.55 -3.14,7.3 -7.12,14.33 -9.2,22.05 -1.56,7.24 1.82,14.29 1.6,21.55 -0.1,9.36 -2.08,18.62 -2.3,28 5.08,-1.56 10.12,-3.23 15.2,-4.75 l -1.05,7.25 c -5.52,3.76 -11.53,6.99 -16.45,11.55 0.6,3.12 1.7,6.1 2.7,9.1 3.86,0.02 7.69,0.03 11.55,0.05 3.02,-2.54 6.12,-5.05 9.2,-7.55 5.74,-0.48 11.67,-0.64 17.05,-3 4.18,-5.62 6.64,-12.31 10.3,-18.25 0.5,-67.44 -0.14,-134.91 0.2,-202.35 0.48,-11.74 -3.83,-22.8 -6.75,-34 -3.88,-12.56 -6.85,-25.61 -13.35,-37.15 -2.98,-5.44 -6.51,-10.7 -8.25,-16.7 -6.94,-26.08 -13.48,-52.3 -22.1,-77.9 -4.42,-17.94 -11.84,-34.99 -16.2,-52.95 -2.5,-9.76 -6.07,-19.21 -8.95,-28.85 -2.94,-7.8 -3.82,-17.79 -11.7,-22.45 -27.08,-17.02 -60.41,-13.09 -90.05,-21.85 -4.38,-0.68 -4.54,-5.79 -6.1,-9.05 1.28,-2.32 2.87,-4.57 3.65,-7.15 -1.7,-6.8 -6.66,-12.56 -6.7,-19.8 -0.4,-14.24 -5.75,-27.9 -5.45,-42.2 0.92,-8.46 -5.5,-14.79 -8.2,-22.25 -3.36,-7.44 -5.86,-17.17 -14.5,-20.15 -10.56,-3.68 -21.44,-8.38 -32.8,-7.9 -10.94,2.9 -21.34,7.57 -31.8,11.85 -2.4,6.9 -5.8,13.46 -7.5,20.6 -0.74,8.94 3.61,17.23 4.65,25.95 0.5,5.2 -3.49,10.45 -0.95,15.45 4.26,9.16 9.6,19.28 20,22.4 1.26,5.16 2.55,10.3 3.65,15.5 -4.58,7.2 -8.4,14.85 -11.9,22.65 -18.26,11.44 -37.66,20.88 -56.1,32 -10.92,6.9 -5.27,21.54 -7.05,32.1 -3.56,23.6 -11.17,46.44 -14.65,70.1 -4.58,-1.9 -9.26,-4.02 -12.6,-7.8 -19.48,-20.78 -40.68,-40.1 -57.4,-63.3 -1.16,-0.14 -3.49,-0.46 -4.65,-0.6 -0.12,-2.42 -0.25,-4.83 -0.35,-7.25 1.52,-1.66 3.06,-3.29 4.6,-4.95 -3.04,-7.38 -6.21,-14.71 -9.55,-21.95 2.26,-3.34 4.54,-6.72 6.8,-10.1 -8.2,-18.84 -17.88,-37.01 -25.9,-55.95 -9.14,-17.24 -16.82,-35.16 -25.1,-52.8 -3.82,1.04 -7.67,1.88 -11.55,2.6 -0.08,-8.4 4.69,-17.15 0.75,-25.25 C 329.45,27.09 323.14,13.46 316.6,0 l -33.5,0 z m 314,200.2 c 6.2985,0.30357 11.8875,7.41642 9,13.7 -2.14,7.34 -13.68,8.07 -17,1.35 -3.54,-4.7 -1.41,-11.81 3.85,-14.15 0.95,-0.4625 1.9307,-0.75312 2.9,-0.85 0.42406,-0.0424 0.8301,-0.0702 1.25,-0.05 z m 52.25,13.25 c 6.82246,-0.0456 13.10125,7.4625 11.85,14.45 0.38,7.54 -8.6,13.63 -15.2,9.55 -8.22,-4.18 -10.03,-18.05 -1.35,-22.65 1.54875,-0.91875 3.12558,-1.33947 4.7,-1.35 z m -85.65,7.9 c 7.24445,0.49061 12.7075,9.3375 11.7,16.65 1.14,7.52 -6.27,14.34 -13.65,12.5 -11.76,-3.32 -14.98,-22.58 -3.3,-28 1.8075,-0.89626 3.57821,-1.26322 5.25,-1.15 z m 27.35,5.3 c 2.35875,-0.15656 4.75499,0.29499 6.9,1.3 1.92,3.68 1.89,8.3 0.05,12 -3.66,1.94 -8.27,1.85 -11.95,0.05 -2,-3.98 -2.79,-11.68 2.65,-13 0.76499,-0.18 1.56374,-0.29781 2.35,-0.35 z m 44.7,40.15 c 5.12437,-0.22499 10.27499,4.13 11.4,9.35 3.24,6.4 0.71,16.36 -7.25,17.3 -12.78,1.8 -17.46,-17.53 -9.1,-24.75 1.55501,-1.22 3.24187,-1.82499 4.95,-1.9 z m -39.05,64.4 c 0.38838,-0.0317 0.7975,-0.0263 1.2,0 6.78,0.14 11.39,7.86 9.25,14.1 -0.88,4.48 -5.65,5.96 -9.15,7.9 -3.8,-2.24 -8.73,-4.28 -9.45,-9.2 -1.7625,-5.56875 2.32424,-12.32451 8.15,-12.8 z m 41.15,7.35 c 4.44216,-0.004 8.7575,3 9.7,7.55 1.86,6.82 1.86,16.82 -5.6,20.3 -6.66,2.44 -12.28,-4.08 -12.8,-10.2 -1.08,-6 -1.57,-14.85 5.65,-17.15 1.00125,-0.34125 2.02488,-0.49902 3.05,-0.5 z"
     id="path6"
     inkscape:connector-curvature="0" />
  <path
     d="m 618.36,0 3.42,0 c 5.66,17.08 12.54,33.72 18.64,50.66 6.24,17.74 14.68,34.72 19.46,52.98 3.44,13.34 9.6,25.7 15.24,38.22 -1.66,-0.3 -3.32,-0.58 -4.96,-0.88 -1.74,-5 -3.52,-9.98 -5.52,-14.9 C 656.66,107.24 652.5,87.02 644.34,68.22 634.46,45.96 627.76,22.44 618.36,0 z"
     id="path10"
     inkscape:connector-curvature="0"
     style="fill:#f4722b" />
  <path
     d="m 688.34,0 4.22,0 c 0.1,16.06 2.36,32 2.52,48.04 0.28,8.68 -1.46,17.92 2.64,25.98 10.74,24.5 14.82,51.08 19.32,77.22 -2.52,-1.22 -4.98,-2.44 -7.48,-3.68 -1.84,-14.68 -3.64,-29.42 -7.64,-43.7 -4.7,-16.24 -8.24,-32.9 -9.22,-49.82 C 691.38,36.02 689.16,18.06 688.34,0 z"
     id="path12"
     inkscape:connector-curvature="0"
     style="fill:#f4722b" />
  <path
     d="m 712.18,0 10.18,0 c 2.62,24.36 8.84,48.48 8.28,73.08 -2.34,-0.02 -4.68,-0.02 -7,-0.04 0.62,-24.9 -9.32,-48.4 -11.46,-73.04 z"
     id="path14"
     inkscape:connector-curvature="0"
     style="fill:#f4722b" />
  <path
     d="m 748.78,0 27.38,0 c 3.8,4.78 9.18,10.46 6.68,17.12 -3.36,6.58 -11.66,9.48 -18.64,7.88 -3.5,-1.72 -5.38,-5.5 -7.8,-8.4 5.86,34.28 -1.84,69.18 3.12,103.5 0.94,8.96 0.84,18.64 6,26.42 2.56,4.44 6.16,8.4 7.72,13.36 0.66,3.9 -2.58,7.12 -5.84,8.62 -7,-1.84 -13.74,-4.84 -20.14,-8.2 -2.8,-7.12 5.56,-12.98 3.66,-20.3 -1.8,-13.24 -0.66,-26.6 -1.76,-39.88 -1.06,-16.1 2.2,-32.08 1.62,-48.2 0.84,-17.36 -1.84,-34.58 -2,-51.92 z"
     id="path16"
     inkscape:connector-curvature="0"
     style="fill:#f4722b" />
  <path
     d="m 907.36,0 12.6,0 c -2.86,28.44 -14.3,54.88 -22.62,81.94 -5.14,14.98 -8.9,30.4 -14.56,45.2 -7.38,19.72 -11.92,40.3 -17.32,60.6 -4.38,10.2 -1.46,21.3 -2.3,31.96 -1.2,6.2 -8.68,6.76 -13.7,7.68 -1.28,2.9 -2.56,5.82 -3.82,8.74 -2.92,-9.16 -2.42,-19 -5.58,-28.1 -1.28,-5.24 -3.92,-10.62 -2.68,-16.1 5.34,-9.8 16.06,-15.04 22.14,-24.18 3.08,-8.56 2.66,-17.9 5.12,-26.62 4.04,-14.56 10.22,-28.42 14.04,-43.04 9.24,-32.8 23.36,-64.24 28.68,-98.08 z"
     id="path18"
     inkscape:connector-curvature="0"
     style="fill:#f4722b" />
  <path
     d="m 650.96,55.06 c 3.28,0.34 7.8,-1.16 9.66,2.6 3.72,7.74 0.22,16.5 -0.06,24.6 -4.12,-2.28 -6.82,-6.14 -9.54,-9.8 -0.22,-5.8 -0.38,-11.6 -0.06,-17.4 z"
     id="path20"
     inkscape:connector-curvature="0"
     style="fill:#f4722b" />
  <path
     d="m 834.82,63.86 c 0,-5.08 5.76,-9.38 10.56,-7.06 6.1,5.88 11.18,13.32 12.34,21.9 -9.58,7.62 -25.22,-3.32 -22.9,-14.84 z"
     id="path22"
     inkscape:connector-curvature="0"
     style="fill:#f4722b" />
  <path
     d="m 759.72,66.6 c 1.74,-0.4 5.22,-1.18 6.94,-1.58 2.08,1.3 4.24,2.52 6.26,3.94 0.36,3.06 0.18,6.16 0.1,9.24 -1.2,0.76 -3.62,2.26 -4.82,3 -2.12,0.14 -6.38,0.4 -8.52,0.52 -0.02,-5.04 0.04,-10.08 0.04,-15.12 z"
     id="path24"
     inkscape:connector-curvature="0"
     style="fill:#f4722b" />
  <path
     d="m 732.62,96.12 c -0.74,-8.64 4.24,-15.98 7.38,-23.62 2.86,7.18 6.72,14.06 8.18,21.72 1.3,6.54 -0.1,13.18 0.16,19.78 -0.14,6.8 1.48,14.56 -3.86,19.92 -3.84,-1.86 -8.72,-3.4 -9.9,-8.08 -2.84,-9.6 -1.6,-19.84 -1.96,-29.72 z"
     id="path26"
     inkscape:connector-curvature="0"
     style="fill:#f4722b" />
  <path
     d="m 721.2,112.76 c -0.86,-6.32 2.32,-13.32 9.88,-12.42 0.08,3.92 2.66,8.8 -0.78,11.94 -2.86,1.2 -6.1,0.34 -9.1,0.48 z"
     id="path28"
     inkscape:connector-curvature="0"
     style="fill:#f4722b" />
  <path
     d="m 800.98,156.88 c 3.3,-5.88 13.14,-5.52 15.82,0.78 3.18,7.04 4.16,14.86 5.58,22.4 1.3,5.76 -2.4,10.84 -3.4,16.3 0.4,4.58 2.94,9.08 1.62,13.72 -3.28,7.58 -15.7,12.46 -20.88,4.02 -4.42,-9.64 -8.6,-19.8 -9.14,-30.52 2.1,-1.98 4.24,-3.94 6.4,-5.9 -0.58,-7.14 -0.2,-14.7 4,-20.8 z"
     id="path30"
     inkscape:connector-curvature="0"
     style="fill:#f4722b" />
  <path
     d="m 758.46,196.82 c 4.62,5.92 7.34,12.96 10.78,19.56 1.36,0.1 4.06,0.32 5.4,0.42 4.98,7.36 6.36,16.42 6.76,25.12 -0.16,4.66 -3.68,8.04 -7.1,10.74 -4.8,-18.78 -13.14,-36.54 -15.84,-55.84 z"
     id="path32"
     inkscape:connector-curvature="0"
     style="fill:#f4722b" />
  <path
     d="m 873.88,240.2 c 0.68,-4.28 6.22,-7.38 9.12,-3 4.76,6.62 6.76,14.94 8.18,22.88 1.4,6.42 -3.22,12.46 -9.08,14.6 -2.94,-0.38 -5.76,-1.32 -8.6,-2.1 -1.02,-3.4 -2.54,-6.86 -1.38,-10.44 1.54,-7.22 0.34,-14.72 1.76,-21.94 z"
     id="path42"
     inkscape:connector-curvature="0"
     style="fill:#f4722b" />
  <path
     d="m 809.6,258.8 c 1.92,-3.86 3.32,-9.6 8.48,-10 4.26,-0.98 8.04,1.36 11.48,3.52 2.94,0.18 5.9,0.38 8.86,0.58 0.34,5.14 1.9,10.04 2.72,15.1 -0.38,4.02 -2.9,7.9 -1.56,11.98 3.92,15.04 10.74,30.18 8.08,46.08 -0.14,6.02 -3.76,11.42 -8.76,14.56 -4.96,1.44 -11.06,1.26 -14.96,-2.58 -7.06,-5.72 -9.02,-15.02 -12.56,-22.92 -5.54,-12.36 -9.42,-25.5 -16.62,-37.04 -2.76,-9.14 0.2,-18.06 5.08,-25.86 3.36,2 6.54,4.32 9.76,6.58 z"
     id="path44"
     inkscape:connector-curvature="0"
     style="fill:#f4722b" />
  <path
     d="m 450.22,313.18 c 48.86,-11.54 97.5,-24.04 146.5,-34.94 1.52,5.76 3.34,11.6 3.14,17.62 -2.36,1.7 -5.1,2.74 -7.88,3.52 C 394.66,346.34 197.26,393.02 0,440.18 L 0,421.96 C 150.02,385.48 300.16,349.48 450.22,313.18 z"
     id="path48"
     inkscape:connector-curvature="0"
     style="fill:#f4722b" />
  <path
     d="m 847.62,289.26 c 0.86,-0.04 2.6,-0.1 3.46,-0.12 0.08,2.16 0.2,4.32 0.3,6.5 -2.44,-0.22 -4.86,-0.44 -7.26,-0.66 0.86,-1.42 2.62,-4.28 3.5,-5.72 z"
     id="path50"
     inkscape:connector-curvature="0"
     style="fill:#f4722b" />
  <path
     d="m 884.96,308.04 c 2.76,0.7 6.18,0.42 8.08,2.98 4.38,5.18 9.02,10.5 11.3,17 -0.38,2.94 -1.22,5.8 -1.92,8.68 -3.24,0.14 -6.54,0.78 -9.74,0.14 -9.14,-6.38 -11.58,-18.68 -7.72,-28.8 z"
     id="path52"
     inkscape:connector-curvature="0"
     style="fill:#f4722b" />
  <path
     d="m 848.36,324.36 c 4.28,0.3 9.2,-0.02 12.4,3.46 2.84,6.8 -7.96,13.42 -11.78,6.38 -0.38,-3.26 -0.58,-6.56 -0.62,-9.84 z"
     id="path54"
     inkscape:connector-curvature="0"
     style="fill:#f4722b" />
  <path
     d="m 859.04,376.3 c 3.52,-7.44 13.32,-10.42 20.08,-5.52 8.5,7.82 8.86,20.9 17.16,28.96 7.4,7.32 14.38,15.06 20.78,23.3 13.7,15.5 20.82,35.24 29.46,53.72 9.06,18.02 18.46,35.9 29.44,52.86 8.36,12.52 15,26.08 23.62,38.44 8.36,12.06 14.74,25.5 24.42,36.66 l 0,5.82 c -9.4,-11.72 -15.92,-25.32 -24.34,-37.7 -10.66,-15.68 -19.04,-32.74 -29.4,-48.62 -9.3,-13.98 -15.76,-29.5 -23.24,-44.46 -7.32,-15.26 -11.9,-32.56 -23.86,-45.04 -10.04,-8.54 -19.04,-18.16 -27.46,-28.28 -0.22,6.66 -1.36,15.56 -9.62,16.44 -10.54,-1.92 -21.7,-8.36 -23.68,-19.86 -3.78,0.54 -8.22,3.32 -11.56,0.24 -6.28,-4.42 -7.68,-13.18 -5.54,-20.14 2.96,-4.56 9.06,-4.98 13.74,-6.82 z"
     id="path60"
     inkscape:connector-curvature="0"
     style="fill:#f4722b" />
  <path
     d="m 914.98,397.94 c -1.46,-9.96 7.16,-16.26 12.86,-22.94 1.64,-0.02 4.92,-0.1 6.56,-0.12 9,13.24 11.76,30.42 6.06,45.52 -2.98,4.98 -10.88,6.78 -14.66,1.7 -5.32,-7.04 -8.7,-15.64 -10.82,-24.16 z"
     id="path62"
     inkscape:connector-curvature="0"
     style="fill:#f4722b" />
  <path
     d="m 824.92,403.46 c 1.56,-3.24 5.4,-2.46 8.32,-3.06 2.9,3.76 8.46,8.34 4.68,13.4 -2.14,3.96 -6.84,3.38 -10.62,3.6 -1,-4.6 -2.38,-9.18 -2.38,-13.94 z"
     id="path64"
     inkscape:connector-curvature="0"
     style="fill:#f4722b" />
  <path
     d="m 827.52,418.02 c 7.34,2.04 9.98,9.82 12.88,15.98 4.54,8.98 3.52,20.9 12.98,26.82 l -3.02,-0.2 c -1.84,6.8 1.08,13.12 4.34,18.94 -1.22,-4.32 -2.82,-8.54 -4.16,-12.82 1.68,-1.82 3.4,-3.62 5.12,-5.42 5.26,-0.92 11.58,-3.86 15.9,0.86 7.2,7.96 9.28,19.04 11.92,29.12 2.44,-0.2 4.88,-0.38 7.34,-0.56 3.08,3.06 6.32,6.52 6.18,11.2 -0.14,10.58 10.48,20.18 3.54,30.56 -3.22,0.86 -6.42,1.76 -9.62,2.66 0.12,2.54 0.24,5.08 0.38,7.62 -2.36,1.78 -4.72,3.56 -7.08,5.32 0.38,11.4 6.68,21.12 10.02,31.72 2.36,7.14 5.46,14.02 9.24,20.52 10.08,17.28 15.96,36.58 25.62,54.08 17.22,30.8 30.66,63.54 47.78,94.4 1.2,2.48 1.92,5.14 2.74,7.8 -7.62,-13.1 -16.14,-25.72 -22.04,-39.74 -11.5,-23.16 -22.8,-46.42 -35.08,-69.18 -8.22,-14.92 -12.68,-31.64 -21.82,-46.08 -10.46,-15.94 -14.5,-34.94 -21.98,-52.24 -5.84,-7.34 -12.46,-16.14 -9.62,-26.14 0.5,-5.26 5.58,-7.34 9.26,-10.2 -2.34,-0.2 -4.66,-0.38 -6.98,-0.58 -0.66,3.34 -1.34,6.74 -3.44,9.5 -3.5,2.4 -8.58,0.56 -12.7,1.26 -6.54,-7.74 -9.84,-17.36 -13.22,-26.74 -2.62,1.08 -5.24,2.18 -7.84,3.26 0.86,17.4 8.26,33.44 12.02,50.26 3.92,18.5 12.24,35.7 16.12,54.2 3.16,15.22 10.24,29.16 14.78,43.94 9.78,29.22 11.32,60.38 20.1,89.86 2.86,12.98 4.3,26.24 7.86,39.08 4.92,25.24 13.26,49.68 18,74.94 -2.9,-10.12 -6.1,-20.2 -8.16,-30.54 -5.6,-19.1 -10.68,-38.36 -16.26,-57.46 -1.74,-13.48 -5.5,-26.5 -9.38,-39.48 -3.48,-21.66 -7.42,-43.26 -10.34,-65 -7.38,-9.26 -10.24,-20.94 -15.14,-31.52 -5.8,-12.82 -7.84,-26.86 -12.32,-40.14 -4.5,-13.82 -9.62,-27.48 -12.74,-41.72 -2.8,-11.38 -8.36,-22.24 -8.36,-34.18 -0.06,-25.34 -0.04,-50.7 0.04,-76.04 -0.02,-6.1 -1.54,-12.02 -2.86,-17.92 z"
     id="path66"
     inkscape:connector-curvature="0"
     style="fill:#f4722b" />
  <path
     d="m 896.96,442.92 c 2.8,-0.34 5.66,-0.24 8.5,-0.12 -0.02,5.82 -4.78,9.46 -10.42,8.2 0.44,-2.7 -0.44,-6.06 1.92,-8.08 z"
     id="path68"
     inkscape:connector-curvature="0"
     style="fill:#f4722b" />
  <path
     d="m 897.06,456.58 c 2.62,0.46 6.34,-0.82 7.98,2.02 2.78,3.44 1.52,8.18 1.96,12.22 -2.48,-0.08 -5.34,1.2 -7.6,-0.18 -3.92,-3.66 -2.16,-9.38 -2.34,-14.06 z"
     id="path70"
     inkscape:connector-curvature="0"
     style="fill:#f4722b" />
  <path
     d="m 863.56,564.76 c -2.84,-5.92 0.74,-17.14 8.84,-13.48 6,7.08 9.76,15.74 12.58,24.5 -0.72,1.38 -2.18,4.14 -2.9,5.52 -9.82,1.06 -15.3,-8.8 -18.52,-16.54 z"
     id="path72"
     inkscape:connector-curvature="0"
     style="fill:#f4722b" />
  <path
     d="m 927.1,588.74 c 2.58,-5.5 9.16,-4.06 14.06,-4.16 3.66,6.74 6.62,13.94 8.16,21.48 1.26,4.52 -2.36,9.9 -7.28,9.2 -4.92,0.7 -7.5,-4.08 -9.82,-7.5 -3.54,-5.58 -7.08,-12.22 -5.12,-19.02 z"
     id="path74"
     inkscape:connector-curvature="0"
     style="fill:#f4722b" />
  <path
     d="m 755.14,659.7 c 4.5,-16.38 0.94,-33.5 3.98,-50.1 1.22,4.22 5.06,8.62 2.9,13.14 -4.42,9.52 -3.06,20.36 -0.6,30.22 -5.32,6.44 -4.52,15.44 -0.12,22.14 -0.1,15.1 -3.9,29.94 -2.86,45.1 -0.36,0.28 -1.06,0.84 -1.42,1.1 1.88,28.7 -8.08,56.34 -9.58,84.8 -0.24,4.98 -0.48,9.92 -0.76,14.9 -2.3,-3.46 -6.84,-6.26 -6.22,-10.96 -0.34,-20.8 4.16,-41.34 8.48,-61.58 -3.52,1.02 -7.04,2.02 -10.54,3 0.1,-4.88 0.72,-9.76 2.4,-14.34 2.8,-7.44 1.88,-15.44 1.98,-23.2 2.16,2.42 4.34,4.84 6.52,7.26 1.08,-16.14 4.34,-32.12 3.96,-48.36 -3.08,0.8 -6.12,1.64 -9.18,2.44 1.26,-5.68 3.16,-11.2 5.28,-16.62 1.44,0.26 4.34,0.8 5.78,1.06 z"
     id="path76"
     inkscape:connector-curvature="0"
     style="fill:#f4722b" />
  <path
     d="m 913.44,645.24 c 9.82,4.28 12.8,15.2 12.18,25.06 -1.4,0.68 -4.18,2.06 -5.58,2.76 -1.22,-0.7 -3.64,-2.1 -4.86,-2.82 -2.5,-8.1 -2.36,-16.62 -1.74,-25 z"
     id="path78"
     inkscape:connector-curvature="0"
     style="fill:#f4722b" />
  <path
     d="m 781.36,722.06 c -1.5,-13.92 -0.58,-27.94 -0.42,-41.9 0.66,9.94 0.36,19.88 0.26,29.84 -0.14,9.38 2.12,18.58 2.16,27.96 0.02,16 -0.6,32.02 0.2,48.02 2.48,17.98 1.56,36.16 3.46,54.2 -0.74,11.02 2.5,22.24 0.46,33.04 -4.86,-24.78 -1.38,-50.22 -3.24,-75.26 -4.14,-25.14 0.98,-50.76 -2.88,-75.9 z"
     id="path80"
     inkscape:connector-curvature="0"
     style="fill:#f4722b" />
</svg>
