<?xml version="1.0" encoding="UTF-8" standalone="no"?>
<svg
   xmlns:dc="http://purl.org/dc/elements/1.1/"
   xmlns:cc="http://creativecommons.org/ns#"
   xmlns:rdf="http://www.w3.org/1999/02/22-rdf-syntax-ns#"
   xmlns:svg="http://www.w3.org/2000/svg"
   xmlns="http://www.w3.org/2000/svg"
   xmlns:sodipodi="http://sodipodi.sourceforge.net/DTD/sodipodi-0.dtd"
   xmlns:inkscape="http://www.inkscape.org/namespaces/inkscape"
   width="1280"
   height="1280"
   viewBox="0 0 1024 1024"
   version="1.1"
   id="svg2"
   inkscape:version="0.48.1 "
   sodipodi:docname="move_sentry_get_kill.svg">
  <metadata
     id="metadata178">
    <rdf:RDF>
      <cc:Work
         rdf:about="">
        <dc:format>image/svg+xml</dc:format>
        <dc:type
           rdf:resource="http://purl.org/dc/dcmitype/StillImage" />
      </cc:Work>
    </rdf:RDF>
  </metadata>
  <defs
     id="defs176" />
  <sodipodi:namedview
     pagecolor="#ffffff"
     bordercolor="#666666"
     borderopacity="1"
     objecttolerance="10"
     gridtolerance="10"
     guidetolerance="10"
     inkscape:pageopacity="0"
     inkscape:pageshadow="2"
     inkscape:window-width="1920"
     inkscape:window-height="1018"
     id="namedview174"
     showgrid="false"
     fit-margin-top="0"
     fit-margin-left="0"
     fit-margin-right="0"
     fit-margin-bottom="0"
     inkscape:zoom="0.6609375"
     inkscape:cx="466.00473"
     inkscape:cy="640"
     inkscape:window-x="-8"
     inkscape:window-y="-8"
     inkscape:window-maximized="1"
     inkscape:current-layer="layer1"
     inkscape:snap-page="true" />
  <g
     inkscape:groupmode="layer"
     id="layer1"
     inkscape:label="background">
    <rect
       style="fill:#3e3e3e;fill-opacity:1;fill-rule:nonzero;stroke:none"
       id="rect3146"
       width="1280"
       height="1280"
       x="0"
       y="0"
       transform="scale(0.8,0.8)" />
  </g>
  <g
     inkscape:groupmode="layer"
     id="layer2"
     inkscape:label="foreground">
    <path
       d="m 899.58,29.64 c 24.14,-4.72 48.8,-7.02 72.36,-14.3 0.18,92.9 -0.44,185.8 -1.38,278.7 -1.96,51.26 -0.64,102.58 -1.2,153.88 -0.2,48.08 -0.38,96.16 -0.98,144.24 -1.26,22.86 -0.7,45.78 -1.08,68.66 -19.9,-18.16 -40.24,-35.82 -60.34,-53.76 1.62,-16.26 2.34,-32.64 0.46,-48.9 -2.88,-62.94 -20.88,-125.02 -51.3,-180.16 -2.48,-4.22 -2.04,-9.24 -2.18,-13.92 0.06,-8.02 -1.02,-16.02 -0.22,-24.04 1.06,-10.64 -1.2,-21.28 0.08,-31.9 0.26,-8.78 1.58,-18.66 -3.74,-26.3 -3.48,-4.74 -10.08,-3.92 -15.22,-4.82 -2.22,-2.9 -3.6,-7.06 -7.38,-8.24 -7.62,-2.18 -15.68,-1.5 -23.48,-1.16 -11.78,1.34 -23.74,0.94 -35.46,-0.82 -5.48,-2.66 -9.62,-7.36 -14.38,-11.04 -58.28,-47.66 -129.7,-79.16 -204.24,-89.74 -17.88,-2.76 -35.96,-3.52 -53.96,-4.78 -27.52,0.08 -55.04,2.72 -82.16,7.44 -17.06,-14.56 -33.94,-29.36 -50.26,-44.74 178.66,-31.62 357.4,-62.74 536.06,-94.3 z"
       id="path6"
       inkscape:connector-curvature="0"
       style="fill:#f5722c" />
    <path
       d="m 49.5,59.68 c 0.52,-4.64 4.26,-7.7 7.4,-10.72 51.66,0.08 103.32,0.22 154.98,0.48 29.94,2.16 60.02,0.86 90.02,1.96 0.68,1 2.08,3.02 2.78,4.02 -0.1,43.52 -0.14,87.06 0,130.58 0.12,5.14 -0.32,10.28 -1.4,15.32 -18.64,-0.34 -37.3,-0.12 -55.96,-0.14 -0.36,-6.14 -0.8,-12.3 -2.3,-18.3 -10.82,-3 -22.1,-1.16 -33.14,-1.24 -18.08,1.22 -36.22,0.98 -54.34,1.62 -10.82,-11.14 -24.44,-19.08 -37.68,-26.98 -14.84,-6.24 -29.28,-15.68 -45.92,-15.6 -7.74,-0.1 -15.46,0.64 -23.18,0.86 0.28,-27.3 -2.62,-54.56 -1.26,-81.86 z"
       id="path8"
       inkscape:connector-curvature="0"
       style="fill:#f5e5c1" />
    <path
       d="m 311.82,62.38 c 6.2,0.76 9.86,6.1 12.78,11.04 3.44,10.14 -2.88,22.14 -12.76,25.72 -0.18,-12.26 -0.14,-24.5 -0.02,-36.76 z"
       id="path10"
       inkscape:connector-curvature="0"
       style="fill:#f5e5c1" />
    <path
       d="m 311.76,144.34 c 1.46,0.22 4.4,0.64 5.88,0.86 2.98,6.1 8.58,11.62 7.76,18.94 0.36,7.56 -6.08,12.88 -9.14,19.26 -0.62,0.16 -1.9,0.48 -2.54,0.64 -1.34,-13.2 -2.64,-26.4 -1.96,-39.7 z"
       id="path12"
       inkscape:connector-curvature="0"
       style="fill:#f5e5c1" />
    <path
       d="m 50.82,153.26 c 18.34,-4.82 37.46,0.8 54.34,8.1 15.84,4.98 28.9,15.68 41.84,25.66 16.82,12.5 29.92,29.32 41.26,46.76 3.48,8.24 8.28,15.88 11.54,24.22 2.42,9.82 3.92,19.9 4.94,29.94 -0.84,9.98 -2.44,19.98 -4.96,29.68 -2.34,8.86 -7.7,16.38 -12.38,24.12 -0.84,-2.84 -1.6,-5.7 -2.78,-8.4 -2.64,-1.34 -5.54,-2.1 -8.34,-3.02 7.2,-17.56 13.24,-36.98 8.72,-56.04 -1.16,-7.6 -5.48,-14.1 -8.3,-21.1 -5.82,-16.16 -15.8,-30.4 -25.78,-44.22 -12.24,-12.58 -26.42,-23.28 -41.64,-32 -16.74,-6.92 -35.5,-15.36 -53.68,-8.7 -5.9,0.96 -10,5.4 -13.78,9.64 -8.68,8.44 -11.36,20.7 -15.38,31.7 -3.86,24.3 1.88,49.76 15.32,70.38 -2.7,3.76 -7.88,9 -3.4,13.48 12.92,13.96 25.98,27.86 39.14,41.6 -6.2,-0.72 -14.24,2.16 -18.6,-3.76 C 52.46,324.32 45.68,317.62 39.82,310.12 33.96,301.74 29.6,292.44 24.32,283.7 17.64,272.88 14.94,260.3 10.96,248.36 8.08,240.42 9.68,231.94 9.42,223.74 9,210.38 16.24,198.62 20.5,186.4 25.38,171.8 36.04,158.52 50.82,153.26 z"
       id="path14"
       inkscape:connector-curvature="0"
       style="fill:#f5e5c1" />
    <path
       d="m 52.44,177.3 c 5.78,-1.38 11.48,-3.3 17.4,-3.96 18.26,0.68 35.94,8.26 49.92,19.86 -2.54,2.6 -5.06,5.22 -7.58,7.84 -19.54,0.32 -39.18,0.82 -58.68,-0.22 -4.72,-6.6 -2.48,-16 -1.06,-23.52 z"
       id="path16"
       inkscape:connector-curvature="0"
       style="fill:#f5e5c1" />
    <path
       d="m 167.54,195.3 c 16.78,-1.08 33.64,-0.14 50.38,-1.68 5.52,-0.34 11.06,-0.32 16.58,-0.24 0.68,9.84 0.9,19.68 0.92,29.52 -12.02,3.92 -24.4,6.58 -36.54,10.04 -10.28,-12.68 -20.32,-25.56 -31.34,-37.64 z"
       id="path18"
       inkscape:connector-curvature="0"
       style="fill:#f5e5c1" />
    <path
       d="m 264.1,246.34 c 60.16,-33.24 129,-51.82 197.9,-50.22 50.52,-0.96 100.78,10.04 147.7,28.42 33.44,13.3 64.5,31.78 93.64,52.8 -9.52,0.06 -19.04,0.14 -28.56,0.02 -2.36,-3.5 -4.14,-8.4 -8.94,-8.94 -10.38,-1.64 -21.16,-1.68 -31.52,-0.06 -4.88,0.56 -6.82,5.46 -9.2,9.04 -2.76,0 -5.5,0 -8.24,0 -2.4,-3.52 -4.24,-8.44 -9.06,-9.04 -10.42,-1.6 -21.26,-1.6 -31.66,0.02 -4.82,0.6 -6.66,5.5 -9.04,9.02 -5.74,0.04 -11.48,0 -17.2,-0.14 -3.08,-3.86 -6.28,-8.72 -11.78,-8.98 -12.54,-1.36 -25.22,-0.46 -37.82,-0.54 -0.64,-5.52 0.48,-12.04 -3.42,-16.56 -4.08,-3.58 -9.98,-3.28 -15.04,-3.64 -30.62,0.04 -61.24,0.34 -91.86,0.22 -7.86,-0.08 -16.24,0.76 -22.84,5.4 -4,4.56 -2.92,11.2 -3.66,16.8 -19.76,0.4 -39.84,-1.72 -59.28,2.78 -3.94,0.8 -6.52,4.16 -9.42,6.64 -10.82,0.36 -21.6,-0.5 -32.34,-1.54 2.36,-10.34 1.48,-20.98 1.64,-31.5 z"
       id="path20"
       inkscape:connector-curvature="0"
       style="fill:#f5722c" />
    <path
       d="m 127.6,199.9 c -27.94,29.34 -55.23,59.29 -82.05,89.65 19.86,20.56 39.37,41.57 60.05,61.25 18.92,1.3 38.02,0.14 57,0.4 -6.76,-13.02 -14.62,-25.5 -21.8,-38.3 -6.56,-11.88 -14.99,-23.03 -18.15,-36.45 3.8,-5.4 9.39,-9.23 14.05,-13.85 8.46,-7.46 15.64,-16.4 25.1,-22.7 -8.92,-15.18 -18.16,-31.36 -34.2,-40 z m -42.75,62.55 c 2.482382,0.004 4.965,0.2875 7.35,0.55 15.62,3.46 22.52,25.1 12,37.1 -7.66,10.34 -24,12.09 -33.6,3.45 -12.02,-9.18 -10.67,-30.46 2.55,-38 3.462499,-2.4125 7.562696,-3.10742 11.7,-3.1 z"
       id="path22"
       style="fill:#f5e5c1"
       inkscape:connector-curvature="0" />
    <path
       d="m 231.4,236.74 c 5.66,-1.58 11.38,-2.86 17.04,-4.42 6.22,23.34 1.88,48.28 -8.16,69.92 -9.72,22.66 -23.8,43.48 -41.3,60.84 -2.5,3.06 -6.74,2.22 -10.2,2.68 -0.78,-4 -1.46,-8.02 -2.04,-12.04 8.1,-9.72 16.62,-19.26 22.32,-30.66 16.46,-25.18 29.66,-55.72 22.34,-86.32 z"
       id="path24"
       inkscape:connector-curvature="0"
       style="fill:#f5e5c1" />
    <path
       d="m 376.94,261.02 c 36.56,-0.22 73.1,-0.5 109.66,-0.3 -0.04,7.46 -0.06,14.94 0,22.4 -7.52,0.34 -15.04,0.24 -22.54,0.56 -29.12,2.06 -58.32,1.44 -87.48,2.02 0.1,-8.24 0.18,-16.46 0.36,-24.68 z"
       id="path26"
       inkscape:connector-curvature="0"
       style="fill:#f5e5c1" />
    <path
       d="m 74.78,272.8 c 9.16,-9.8 28.38,-2.4 28.42,11.02 2.14,12.22 -12.62,23.02 -23.54,17.34 -4.92,-1.98 -7.68,-6.76 -10.84,-10.7 -0.24,-6.42 0.52,-13.42 5.96,-17.66 z"
       id="path30"
       inkscape:connector-curvature="0"
       style="fill:#f5e5c1" />
    <path
       d="m 500.62,280.6 c 12.84,0.62 26.4,-2.2 38.66,2.46 0.58,33.92 0.56,67.9 0.02,101.82 -12.64,2.88 -25.66,1.34 -38.48,1.8 -0.56,-35.36 -0.04,-70.72 -0.2,-106.08 z"
       id="path32"
       inkscape:connector-curvature="0"
       style="fill:#f5e5c1" />
    <path
       d="m 579.24,279.42 c 8.5,-0.02 17,-0.02 25.5,0 0.06,34.08 0.06,68.16 0,102.26 -8.5,0 -16.98,0 -25.48,0 -0.12,-34.08 -0.06,-68.18 -0.02,-102.26 z"
       id="path34"
       inkscape:connector-curvature="0"
       style="fill:#f5e5c1" />
    <path
       d="m 637.26,279.42 c 8.42,-0.02 16.84,-0.02 25.28,0.04 0.5,34.02 0.5,68.06 0.02,102.08 -8.42,0.18 -16.84,0.16 -25.26,0.14 -0.02,-34.08 0.06,-68.16 -0.04,-102.26 z"
       id="path36"
       inkscape:connector-curvature="0"
       style="fill:#f5e5c1" />
    <path
       d="m 759.08,279.46 c 6.7,-0.04 13.4,-0.06 20.12,-0.06 -0.08,34.1 -0.06,68.18 0,102.28 -6.76,0.02 -13.5,0 -20.24,-0.06 -1.38,-25.86 0.02,-51.76 -0.66,-77.64 -0.2,-8.18 0.44,-16.36 0.78,-24.52 z"
       id="path38"
       inkscape:connector-curvature="0"
       style="fill:#f5e5c1" />
    <path
       d="m 800.08,279.44 c 7.64,-0.04 15.3,-0.04 22.94,-0.02 0.42,34.08 0.4,68.18 0.06,102.24 -7.66,0.02 -15.32,0.04 -22.96,0 0.08,-34.08 0.18,-68.16 -0.04,-102.22 z"
       id="path40"
       inkscape:connector-curvature="0"
       style="fill:#f5e5c1" />
    <path
       d="m 307,284.96 c 18.56,-0.26 37.08,-1.46 55.62,-1.78 0.1,11.6 0.16,23.2 -1.12,34.76 -0.64,23.72 -0.84,47.46 -0.86,71.22 -10.02,2.76 -20.3,0.38 -30.46,1.2 -7.68,0.52 -15.38,0.6 -23.08,0.36 -0.54,-35.24 -0.32,-70.5 -0.1,-105.76 z"
       id="path42"
       inkscape:connector-curvature="0"
       style="fill:#f5e5c1" />
    <path
       d="m 786.46,289.24 c 2.16,0.04 4.34,0.1 6.52,0.14 0.2,7.94 0.18,15.9 0.1,23.86 -2.28,0 -4.56,0 -6.82,0 -0.08,-8 -0.12,-16 0.2,-24 z"
       id="path44"
       inkscape:connector-curvature="0"
       style="fill:#f5e5c1" />
    <path
       d="m 830.58,289.38 c 3.7,0 7.4,0 11.12,-0.02 0.38,7.94 0.34,15.88 0.24,23.82 -3.84,0 -7.68,0 -11.52,0.02 -0.1,-7.94 -0.12,-15.88 0.16,-23.82 z"
       id="path46"
       inkscape:connector-curvature="0"
       style="fill:#f5e5c1" />
    <path
       d="m 549.08,289.38 c 7.56,0.08 15.12,0.06 22.68,-0.04 0.64,7.92 0.58,15.88 0.52,23.82 -7.76,-0.02 -15.52,-0.04 -23.28,0.04 -0.06,-7.94 -0.08,-15.88 0.08,-23.82 z"
       id="path48"
       inkscape:connector-curvature="0"
       style="fill:#f5e5c1" />
    <path
       d="m 670.3,289.36 c 26.94,0.12 53.86,0.12 80.8,0 0.22,7.94 0.2,15.9 0.12,23.86 -27.14,-0.18 -54.28,-0.02 -81.42,-0.08 -0.1,-7.94 -0.1,-15.88 0.5,-23.78 z"
       id="path50"
       inkscape:connector-curvature="0"
       style="fill:#f5e5c1" />
    <path
       d="m 246.76,300.6 c -0.4,-4.36 3.58,-6.92 6.14,-9.82 15.34,0.7 30.82,-0.36 46.1,1.7 -0.24,20.08 0.06,40.18 -0.16,60.28 -15.24,-0.26 -30.36,1.5 -45.54,2.04 -2.12,-1.58 -4.22,-3.16 -6.34,-4.7 -0.88,-16.48 -0.44,-33.02 -0.2,-49.5 z"
       id="path52"
       inkscape:connector-curvature="0"
       style="fill:#f5e5c1" />
    <path
       d="m 611.68,290.38 c 6.24,0 12.48,0 18.72,0 0,7.6 0,15.2 -0.02,22.8 -6.24,-0.04 -12.46,-0.04 -18.68,-0.02 -0.02,-7.6 -0.02,-15.18 -0.02,-22.78 z"
       id="path54"
       inkscape:connector-curvature="0"
       style="fill:#f5e5c1" />
    <path
       d="m 375.38,295.26 c 37.06,-0.6 74.12,-1.08 111.18,-0.48 -0.04,10.06 -0.1,20.1 0.04,30.16 -37.16,-1.26 -74.4,0.58 -111.54,-0.98 0.08,-9.56 0.2,-19.14 0.32,-28.7 z"
       id="path56"
       inkscape:connector-curvature="0"
       style="fill:#f5e5c1" />
    <path
       d="m 786.4,319.16 c 2.2,0.06 4.4,0.12 6.62,0.2 0.14,8 0.12,16 0.08,24 -2.3,0 -4.6,-0.02 -6.9,-0.02 0,-8.06 -0.04,-16.12 0.2,-24.18 z"
       id="path58"
       inkscape:connector-curvature="0"
       style="fill:#f5e5c1" />
    <path
       d="m 830.6,319.4 c 3.66,0.04 7.32,0.08 11,0.08 0.56,8.28 0.66,16.58 -0.18,24.84 -3.54,-0.02 -7.08,-0.02 -10.6,-0.02 -0.62,-8.28 -0.58,-16.6 -0.22,-24.9 z"
       id="path60"
       inkscape:connector-curvature="0"
       style="fill:#f5e5c1" />
    <path
       d="m 549.06,319.3 c 7.72,0.08 15.46,0.06 23.2,0.04 0.04,8 0.04,15.98 0.02,23.96 -7.78,-0.02 -15.54,-0.02 -23.3,0.04 -0.04,-8 -0.04,-16.02 0.08,-24.04 z"
       id="path62"
       inkscape:connector-curvature="0"
       style="fill:#f5e5c1" />
    <path
       d="m 670.24,319.3 c 26.96,0.1 53.92,0.08 80.88,-0.02 0.18,8.02 0.16,16.04 0.14,24.06 -27.16,-0.12 -54.32,-0.02 -81.48,-0.04 -0.06,-8 -0.06,-16.02 0.46,-24 z"
       id="path64"
       inkscape:connector-curvature="0"
       style="fill:#f5e5c1" />
    <path
       d="m 611.68,320.28 c 6.24,0 12.48,0 18.72,-0.02 0,7.68 0,15.36 0,23.06 -6.24,-0.02 -12.48,-0.02 -18.72,-0.02 0,-7.68 0,-15.36 0,-23.02 z"
       id="path66"
       inkscape:connector-curvature="0"
       style="fill:#f5e5c1" />
    <path
       d="m 375.04,332.64 c 37.18,-0.22 74.36,-0.02 111.56,-0.1 -0.14,10.9 -0.12,21.82 -0.08,32.72 -37.24,0.46 -74.48,0.14 -111.74,0.16 0.16,-10.92 0.2,-21.86 0.26,-32.78 z"
       id="path68"
       inkscape:connector-curvature="0"
       style="fill:#f5e5c1" />
    <path
       d="m 166.04,338.42 c 4.16,0.1 8.3,0.28 12.44,0.52 0.54,15.68 1.16,31.52 -1.14,47.12 -0.42,4.36 -0.5,8.74 -0.54,13.12 -3.14,2.44 -6.3,5.58 -10.58,5.52 -40.48,4.6 -80.74,11.34 -121.3,14.9 -0.4,-26.38 2.86,-52.58 2.22,-78.98 10.98,-1.5 22.12,-1.5 33.18,-1.58 6.18,8.08 13.16,15.5 21,22 20.9,0.1 41.8,-0.1 62.7,-0.02 3.78,-0.2 8.24,0.54 10.82,-2.92 0.72,-7.6 -5.74,-13.28 -8.8,-19.68 z"
       id="path70"
       inkscape:connector-curvature="0"
       style="fill:#f5e5c1" />
    <path
       d="m 211.1,368.38 c 8.8,-7.7 16.34,-16.82 22.08,-27.04 0.14,9.96 3.84,21.24 13.56,25.6 9.64,2.28 19.68,0.74 29.48,1.16 -22.2,17.82 -41.8,38.92 -57.74,62.5 -0.26,-16.88 0.58,-33.82 -0.42,-50.68 0.16,-5.04 -3.14,-8.78 -6.96,-11.54 z"
       id="path72"
       inkscape:connector-curvature="0"
       style="fill:#f5722c" />
    <path
       d="m 786.26,349.16 c 2.28,0.02 4.56,0.04 6.84,0.08 0.02,8.08 0.04,16.18 0,24.26 -2.3,-0.02 -4.62,-0.06 -6.9,-0.08 0,-8.1 -0.02,-16.18 0.06,-24.26 z"
       id="path74"
       inkscape:connector-curvature="0"
       style="fill:#f5e5c1" />
    <path
       d="m 830.44,349.36 c 3.7,0.1 7.4,0.18 11.12,0.24 0.56,7.94 0.5,15.9 0.42,23.86 -3.88,-0.02 -7.76,-0.04 -11.62,-0.04 0,-8.02 -0.02,-16.04 0.08,-24.06 z"
       id="path76"
       inkscape:connector-curvature="0"
       style="fill:#f5e5c1" />
    <path
       d="m 549,349.2 c 7.76,0.08 15.52,0.08 23.28,0.06 0.02,8.06 0,16.1 0,24.16 -7.78,-0.02 -15.54,-0.02 -23.32,0.06 -0.02,-8.08 -0.02,-16.18 0.04,-24.28 z"
       id="path78"
       inkscape:connector-curvature="0"
       style="fill:#f5e5c1" />
    <path
       d="m 611.68,349.26 c 6.24,0 12.48,0 18.7,-0.02 0.02,8.06 0.02,16.14 0.02,24.2 -6.24,-0.02 -12.48,-0.02 -18.72,-0.02 0,-8.06 0,-16.1 0,-24.16 z"
       id="path80"
       inkscape:connector-curvature="0"
       style="fill:#f5e5c1" />
    <path
       d="m 669.8,349.28 c 27.14,-0.04 54.28,0.06 81.42,-0.06 0.06,8.08 0.06,16.16 0.04,24.24 -27.16,-0.1 -54.32,-0.04 -81.46,-0.04 -0.02,-8.06 -0.02,-16.1 0,-24.14 z"
       id="path82"
       inkscape:connector-curvature="0"
       style="fill:#f5e5c1" />
    <path
       d="m 187.2,373.84 c 6.18,1.38 12.16,3.5 18.06,5.78 -0.06,23.44 0.88,46.86 1.16,70.28 0.1,8.7 0.04,17.42 -0.04,26.12 0.2,7.98 0.18,15.98 -0.06,23.98 0.34,11.32 0.12,22.64 0,33.96 0,4 0.04,8.02 0.04,12.04 0.08,15.36 -0.74,30.64 0,46 0.16,14 0.36,28.02 -0.08,42 -0.3,6.24 -6.76,9.1 -11.94,10.66 -10.32,1.72 -20.8,0.02 -31.18,-0.26 0.3,-42.1 -0.38,-84.28 0.84,-126.34 0.76,-34.68 0.72,-69.5 0.64,-104.24 10.28,0.78 21,-6.82 21.74,-17.46 0.64,-7.48 0.48,-15.02 0.82,-22.52 z"
       id="path84"
       inkscape:connector-curvature="0"
       style="fill:#f5e5c1" />
    <path
       d="m 373.2,405.06 c 1.94,-10.44 1.42,-21.06 1.64,-31.6 36.54,0.22 73.1,-0.34 109.62,0.26 0.42,0.54 1.26,1.64 1.7,2.18 0.82,9.72 0.3,19.52 -0.12,29.26 -37.62,0.02 -75.24,0.22 -112.84,-0.1 z"
       id="path86"
       inkscape:connector-curvature="0"
       style="fill:#f5e5c1" />
    <path
       d="m 671.26,386.7 c 25.44,-0.64 50.9,-0.24 76.36,-0.22 9.1,10.34 24.16,7.38 36.24,5.9 7.52,-1.68 15,0.4 22.36,1.88 32.68,55.66 51.42,119.36 54.38,183.82 0,12.66 -0.02,25.34 0,38 -3.42,74.16 -27.88,147.26 -70.1,208.34 -41.58,60.76 -100.34,109.5 -167.6,139.38 -1.08,-6.82 -1.68,-14.66 -7.18,-19.56 -3.96,-2.4 -8.84,-2.06 -13.26,-2.74 -0.04,-7.82 -1.82,-15.48 -5.26,-22.5 2.98,-8.52 7.36,-17.76 4.08,-26.84 -2.82,-8.56 -6.9,-16.64 -10.7,-24.76 38.06,-18.52 72.6,-44.62 99.72,-77.22 33.62,-39.8 56.34,-88.68 65.26,-140 10.4,-58.9 2.42,-120.9 -22.68,-175.18 C 718,442.06 696.42,412.52 671.26,386.7 z"
       id="path88"
       inkscape:connector-curvature="0"
       style="fill:#f5722c" />
    <path
       d="m 500.54,394.96 c 4.98,-0.52 9.94,-1.16 14.92,-1.72 -0.52,5.04 1.06,11.22 -2.94,15.2 -2.88,3.48 -7.76,3.62 -11.8,4.72 -0.18,-6.06 -0.18,-12.14 -0.18,-18.2 z"
       id="path90"
       inkscape:connector-curvature="0"
       style="fill:#f5e5c1" />
    <path
       d="m 343.52,408.56 c -3.1,-3.96 -1.48,-8.92 -0.86,-13.36 5.98,-0.08 11.96,-0.22 17.96,-0.26 -0.02,6.2 -0.3,12.42 -1.08,18.58 -5.5,-0.6 -12.7,0.66 -16.02,-4.96 z"
       id="path92"
       inkscape:connector-curvature="0"
       style="fill:#f5e5c1" />
    <path
       d="m 24.32,439.98 c -1.56,-14.24 -1.16,-32.06 12.48,-40.58 -0.18,6.9 -1.18,13.74 -1.66,20.64 0.88,2.02 1.74,4.06 2.6,6.12 0.94,0.78 2.8,2.34 3.74,3.14 4.46,-0.2 8.92,-0.38 13.38,-0.56 0.88,47.12 -0.4,94.3 1.74,141.36 0.08,21.76 0.56,43.52 0.74,65.28 -7.92,-1.02 -16.64,-2.24 -22.44,-8.28 -5.8,-5.42 -8.52,-13.36 -8.38,-21.16 -1.76,-55.3 -1.36,-110.66 -2.2,-165.96 z"
       id="path94"
       inkscape:connector-curvature="0"
       style="fill:#f5e5c1" />
    <path
       d="m 373.22,412.88 c 37.46,-0.2 74.92,-0.06 112.38,-0.08 -0.3,11.3 0.22,22.74 -2.4,33.84 -36.76,-0.22 -73.5,-0.06 -110.26,-0.08 -0.14,-11.24 0.08,-22.46 0.28,-33.68 z"
       id="path96"
       inkscape:connector-curvature="0"
       style="fill:#f5e5c1" />
    <path
       d="m 68.36,426.74 c 27.44,-3.68 54.84,-8 82.42,-10.24 -2.88,74.68 -1.16,149.52 -2.44,224.24 -0.34,0.5 -1,1.5 -1.32,2 -25.36,-1.92 -50.66,-4.84 -76.04,-6.1 C 70.1,599.8 71.56,562.9 69.46,526.1 69.2,492.98 68.64,459.86 68.36,426.74 z"
       id="path98"
       inkscape:connector-curvature="0"
       style="fill:#f5e5c1" />
    <path
       d="m 229.4,451.94 c 8.5,3.88 16.82,8.12 25.26,12.12 -11.12,24.58 -24.18,48.24 -35.44,72.74 0.84,-19.5 -2.12,-39.46 3.12,-58.56 2.22,-8.8 4.7,-17.54 7.06,-26.3 z"
       id="path100"
       inkscape:connector-curvature="0"
       style="fill:#f5e5c1" />
    <path
       d="m 372.7,454.6 c 36.88,-0.1 73.78,-0.06 110.66,-0.04 0.08,10.72 -1.44,21.32 -2.56,31.96 -35.66,-0.22 -71.36,0.4 -107.02,-0.28 -0.5,-0.52 -1.5,-1.54 -2,-2.04 0.78,-9.86 1.08,-19.72 0.92,-29.6 z"
       id="path102"
       inkscape:connector-curvature="0"
       style="fill:#f5e5c1" />
    <path
       d="m 220.5,552.08 c 13.3,-28.28 27.78,-56 41.42,-84.12 10.96,4.36 21.26,10.22 30.08,18.08 -18.3,25.92 -38.16,50.7 -56.68,76.46 -5.26,-3 -10.16,-6.56 -14.82,-10.42 z"
       id="path104"
       inkscape:connector-curvature="0"
       style="fill:#f5e5c1" />
    <path
       d="m 297.76,491.84 c 10.04,7.06 19.44,15.1 28.06,23.84 -20.76,21.36 -40.72,43.48 -61.54,64.76 -1.66,2.28 -4.36,0.7 -6.08,-0.52 -5.48,-3.9 -10.98,-7.78 -16.06,-12.18 0.78,-2.16 2.02,-4.1 3.34,-5.96 17.46,-23.28 35.16,-46.4 52.28,-69.94 z"
       id="path106"
       inkscape:connector-curvature="0"
       style="fill:#f5e5c1" />
    <path
       d="m 371.28,494.72 c 36.66,-0.3 73.32,-0.22 109.98,-0.04 -0.74,8.92 -2.32,17.76 -2.38,26.72 -36.08,0.1 -72.16,0.12 -108.22,0 0.16,-8.9 0.42,-17.78 0.62,-26.68 z"
       id="path108"
       inkscape:connector-curvature="0"
       style="fill:#f5e5c1" />
    <path
       d="m 269.2,586.74 c 20.76,-21.5 41.34,-43.2 61.54,-65.22 8.14,7.16 15.94,14.94 22,23.98 2.3,3.12 -2.04,5.4 -3.74,7.5 -13.16,11.52 -25.76,23.66 -38.84,35.28 -7.78,7 -14.84,14.84 -23.6,20.68 -5.6,-7.56 -12.14,-14.38 -17.36,-22.22 z"
       id="path110"
       inkscape:connector-curvature="0"
       style="fill:#f5e5c1" />
    <path
       d="m 370.78,529.48 c 33.08,0 66.18,0.06 99.26,-0.04 3,0.08 6.26,-0.16 8.88,1.6 -0.96,8.6 -2.48,17.12 -4.08,25.62 -34.76,-1.96 -69.6,-0.96 -104.38,-1.42 0.08,-8.58 0.08,-17.18 0.32,-25.76 z"
       id="path112"
       inkscape:connector-curvature="0"
       style="fill:#f5e5c1" />
    <path
       d="m 491.16,545.34 c 12.22,10.26 24.6,20.36 36.64,30.84 3.54,3.08 6.46,6.78 8.78,10.86 5.8,10.18 11.74,20.6 13.7,32.32 1.98,12.06 1.74,24.52 -0.56,36.52 -2.26,19.7 -15.28,35.48 -23.9,52.68 -14.54,-34.54 -28,-69.52 -42.28,-104.16 -1.86,-5.4 -0.28,-11.1 0.48,-16.54 2.66,-14.12 4.26,-28.44 7.14,-42.52 z"
       id="path114"
       inkscape:connector-curvature="0"
       style="fill:#f5e5c1" />
    <path
       d="m 292.36,615.64 c 20.8,-19.7 42.5,-38.44 63.04,-58.44 0.7,14.82 -0.58,29.86 -5.32,43.98 -13.4,12.92 -28.88,23.6 -42.74,36.06 -4.56,-7.48 -9.22,-14.96 -14.98,-21.6 z"
       id="path116"
       inkscape:connector-curvature="0"
       style="fill:#f5e5c1" />
    <path
       d="m 367.26,588.98 c 1.96,-8.52 2.3,-17.28 2.26,-25.98 34.7,-0.28 69.36,1.52 104.06,1.48 -1.12,10.4 -3.06,20.7 -4.72,31.04 -33.88,-1.78 -67.7,-4.84 -101.6,-6.54 z"
       id="path118"
       inkscape:connector-curvature="0"
       style="fill:#f5e5c1" />
    <path
       d="m 365.6,596.66 c 33.98,2 67.88,4.92 101.86,6.58 -1.02,9.56 -2.74,19.04 -4.72,28.46 -34.08,-2.48 -67.94,-7.4 -101.94,-10.84 1.84,-8.02 3.52,-16.08 4.8,-24.2 z"
       id="path120"
       inkscape:connector-curvature="0"
       style="fill:#f5e5c1" />
    <path
       d="m 311.3,644.08 c 12.08,-10.14 24.4,-20 36.5,-30.08 -1.7,12.22 -4.18,24.32 -6.86,36.36 -6.6,4.4 -12.84,9.26 -19.02,14.22 -2.96,-7.12 -6.76,-13.84 -10.62,-20.5 z"
       id="path122"
       inkscape:connector-curvature="0"
       style="fill:#f5e5c1" />
    <path
       d="m 359.42,628.64 c 33.86,4.18 67.96,6.8 101.68,11.98 -2.38,8.2 -4.24,16.52 -6.24,24.82 -33.26,-5.02 -66.5,-10.06 -99.78,-14.88 1.52,-7.3 2.94,-14.6 4.34,-21.92 z"
       id="path124"
       inkscape:connector-curvature="0"
       style="fill:#f5e5c1" />
    <path
       d="m 478.1,626.45 c -2.9,13.24 -6.04,26.4 -9.1,39.6 -3.74,16.74 -11.72,32.09 -17.2,48.25 -1.26,2.88 0.18,5.87 1,8.65 15.3,43.12 30.39,86.32 45.55,129.5 8.9,24.18 16.45,48.92 26.15,72.8 22.82,-6.52 44.89,-15.53 66.85,-24.45 C 579.87,874.92 570.68,848.14 559.8,822 535.76,761.78 510.9,701.88 486.5,641.8 c -2.3,-5.36 -3.76,-11.41 -8.4,-15.35 z m 67.45,237.9 c 8.21026,0.0619 16.46,4.69125 19.1,12.9 1.3,6.64 1.73,14.7 -3.45,19.9 -5.26,6.6 -14.94,9.85 -22.8,6.15 -9.2,-3.5 -15.39,-14.28 -12.55,-23.9 1.36,-5.06 4.81,-9.26 9.05,-12.2 3.1875,-1.95 6.91806,-2.87814 10.65,-2.85 z"
       id="path126"
       style="fill:#f5e5c1"
       inkscape:connector-curvature="0" />
    <path
       d="m 60.86,646.26 c 14.42,2.38 28.6,6.34 43.3,6.2 12.56,2.2 25.36,1.1 37.94,3 4.42,0.58 8.84,-0.24 13.26,-0.32 5.7,0.32 11.16,2.2 16.7,3.44 4.6,22.4 11.6,44.34 21.48,64.98 -9.92,-2.6 -21.24,-6.58 -30.86,-0.8 -11.18,5.6 -10.54,19.74 -14.06,30.04 -6.34,14.46 -7.38,30.46 -11.88,45.5 -2.02,9.1 -5.22,17.84 -7.96,26.72 C 113.54,801 99.02,776.36 88.58,749.8 74.34,716.84 66.62,681.56 60.86,646.26 z"
       id="path128"
       inkscape:connector-curvature="0"
       style="fill:#f5722c" />
    <path
       d="m 339.7,660.58 c -3.62,8.02 -3.74,17.34 -8.84,24.76 -1.34,-0.68 -3.98,-2.08 -5.3,-2.76 -0.34,-3.48 -0.68,-6.92 -0.98,-10.38 5.16,-3.7 10.36,-7.4 15.12,-11.62 z"
       id="path130"
       inkscape:connector-curvature="0"
       style="fill:#f5e5c1" />
    <path
       d="m 353.36,658.38 c 33.34,4.66 66.62,9.68 99.88,14.84 -3.38,6.84 -6.02,14 -8.62,21.18 -31.72,-5.14 -62.72,-14 -94.24,-20.22 0.76,-5.32 1.8,-10.58 2.98,-15.8 z"
       id="path132"
       inkscape:connector-curvature="0"
       style="fill:#f5e5c1" />
    <path
       d="m 348.08,682.36 c 20.88,2.96 41.2,8.98 61.84,13.16 10.5,2.46 21.14,4.36 31.42,7.68 -1.1,2.2 -2.2,4.36 -3.28,6.6 -31.5,-5.72 -62.22,-15.08 -93.56,-21.5 1.22,-1.96 2.42,-3.94 3.58,-5.94 z"
       id="path134"
       inkscape:connector-curvature="0"
       style="fill:#f5e5c1" />
    <path
       d="m 340.36,697.6 c 3.38,-0.76 6.88,-1.12 10.24,-0.14 23.04,5.74 46.12,11.22 69.18,16.82 2.86,0.38 4.96,2.28 6.88,4.28 -13.2,-1.2 -26.38,-2.96 -39,-7.16 -15.72,-4.78 -32.04,-7.66 -47.3,-13.8 z"
       id="path136"
       inkscape:connector-curvature="0"
       style="fill:#f5e5c1" />
    <path
       d="m 169.04,732.58 c 12.46,-0.68 24.02,4.56 35.94,7.32 1.4,12.88 -3,25.26 -4.96,37.82 -3.94,29.82 -12.12,58.82 -17.52,88.38 -7.42,36.12 -13.92,72.46 -21.8,108.48 -18.68,-0.62 -37.5,1.12 -56.1,-1.2 1.86,-6.5 3.64,-13.02 5.16,-19.6 14.14,-53.92 28.02,-107.92 41.9,-161.92 4.12,-15.28 8.02,-30.62 11.86,-45.96 1.16,-4.7 3.16,-9.12 5.52,-13.32 z"
       id="path138"
       inkscape:connector-curvature="0"
       style="fill:#f5e5c1" />
    <path
       d="m 451.85,745.8 c -13.44,31.46 -25.9,63.29 -39.1,94.85 -1.84,4.26 -3.35,8.63 -4.45,13.15 9.14,5.34 17.34,12.11 26.3,17.75 2.68,2 6.13,1.32 9.25,1.5 8.72,-19.1 16.74,-38.49 25.3,-57.65 1.94,-4.22 3.47,-8.96 1.65,-13.5 -6,-18.78 -13.87,-37.02 -18.95,-56.1 z M 434,832.65 c 3.7,2.22 9.78,3.98 9.4,9.4 1.1,5.5 -3.99,10.57 -9.45,9.85 -3.7,0.26 -6.15,-2.82 -8.85,-4.8 0.02,-2.76 0,-5.46 0,-8.2 2.92,-2.16 5.86,-4.25 8.9,-6.25 z"
       id="path140"
       style="fill:#f5e5c1"
       inkscape:connector-curvature="0" />
    <path
       d="m 340.62,755.4 c 7,-1.66 14.14,-2.82 21.36,-2.3 -2.88,19.86 -9.42,38.96 -13.62,58.56 -3.08,-1.22 -9.12,-0.86 -8.8,-5.5 0.44,-16.9 1.14,-33.82 1.06,-50.76 z"
       id="path142"
       inkscape:connector-curvature="0"
       style="fill:#f5e5c1" />
    <path
       d="m 246.12,774.32 c 28.4,-6.08 57.06,-10.9 85.38,-17.34 0.56,4.42 1.04,8.88 0.64,13.34 -1.14,13.94 -0.22,27.92 -0.88,41.88 -30.5,4.38 -60.76,10.44 -91.2,15.34 -13.8,2.06 -27.42,5.44 -41.4,6.12 4.06,-17.28 7,-34.78 10.8,-52.12 9.5,-1.98 19.08,-3.7 28.54,-5.88 2.7,-0.46 5.42,-0.9 8.12,-1.34 z"
       id="path144"
       inkscape:connector-curvature="0"
       style="fill:#f5e5c1" />
    <path
       d="m 369.48,759.7 c 16.04,13.08 32.26,25.94 48.28,39.02 3.4,2.02 0.86,6.32 0.04,9.14 -5.68,13.36 -10.98,26.86 -16.62,40.22 -15.26,-9.6 -29.42,-20.86 -44.76,-30.34 0.1,-4.6 0.48,-9.22 1.76,-13.64 3.92,-14.76 7.44,-29.62 11.3,-44.4 z"
       id="path146"
       inkscape:connector-curvature="0"
       style="fill:#f5e5c1" />
    <path
       d="m 312.84,833.46 c 10.04,-5.48 20.06,-14.6 32.32,-12.44 19.38,12.44 37.7,26.58 57.06,39.1 0.24,0.52 0.74,1.56 0.98,2.08 -17.24,4.66 -34.18,10.34 -51.24,15.58 -17.12,5.3 -34.16,10.96 -51.34,16.12 2.52,-11.96 5,-23.92 7.2,-35.94 1.76,-8.14 3.24,-16.36 5.02,-24.5 z"
       id="path148"
       inkscape:connector-curvature="0"
       style="fill:#f5e5c1" />
    <path
       d="m 244.3,941.58 c 5.56,-35.74 13.68,-71.08 19.02,-106.86 12.8,2.34 26.48,0.76 38.48,6.48 -6.1,33.2 -13.98,66.06 -19.46,99.36 -12.66,0.78 -25.36,0.88 -38.04,1.02 z"
       id="path152"
       inkscape:connector-curvature="0"
       style="fill:#f5e5c1" />
    <path
       d="m 429.24,839.92 c 1.22,-0.64 3.64,-1.94 4.84,-2.58 1.3,0.58 3.9,1.72 5.18,2.3 -0.06,2.58 -0.14,5.16 -0.22,7.78 -3.26,-0.04 -6.54,-0.16 -9.78,-0.34 -0.02,-2.4 -0.02,-4.78 -0.02,-7.16 z"
       id="path154"
       inkscape:connector-curvature="0"
       style="fill:#f5e5c1" />
    <path
       d="m 199.88,846.88 c 16.74,-2.36 33.4,-5.44 50.24,-7.14 -2.08,7.48 -0.22,18.14 -8.48,22.1 -11.54,7.58 -26.6,11.14 -34.1,23.74 -3.16,6.98 -1.74,14.92 -1.72,22.34 -5.48,-4.46 -10.88,-9 -16.14,-13.74 0.86,-6.24 2.02,-12.48 4.1,-18.44 3.2,-9.34 4.1,-19.24 6.1,-28.86 z"
       id="path156"
       inkscape:connector-curvature="0"
       style="fill:#f5722c" />
    <path
       d="m 542.86,875.12 c 6.58,-1.9 14.24,3.8 12.56,10.94 0.56,9.26 -13.9,12.48 -18.32,4.76 -4.4,-5.38 -0.8,-14.24 5.76,-15.7 z"
       id="path160"
       inkscape:connector-curvature="0"
       style="fill:#f5e5c1" />
    <path
       d="m 218.88,890.12 c 9.58,-5.18 18.6,-11.38 28.28,-16.38 -2.06,12.18 -4.52,24.28 -6.7,36.42 -5.52,1.74 -11,3.78 -16.74,4.64 -7.8,-5.54 -4.68,-16.52 -4.84,-24.68 z"
       id="path162"
       inkscape:connector-curvature="0"
       style="fill:#f5e5c1" />
    <path
       d="m 373.02,884.94 c 5.86,-1.68 11.72,0.62 17.38,1.98 35.34,9.42 72.34,10.68 108.6,7.32 1.8,6.72 3.46,13.6 6.8,19.78 4.72,8.84 5.52,20.92 16.14,25.14 -4.28,4.38 -10.84,2.16 -16.22,3.04 -7.46,-0.34 -13.7,6.32 -13.76,13.62 -0.96,13.86 -0.1,27.78 -0.4,41.68 -11.22,0.5 -22.46,0.54 -33.7,0.5 -37.82,0.86 -75.48,-5.7 -111.8,-15.96 -0.32,-10.64 1,-21.4 -0.76,-31.94 -1.48,-5.9 -5.26,-12.1 -11.58,-13.52 -12.08,-2.46 -24.5,-0.74 -36.72,-0.62 1.44,-9.5 3,-18.96 4.22,-28.48 14.64,-6.74 31.16,-7.62 45.7,-14.48 8.32,-3.78 17.24,-5.96 26.1,-8.06 z"
       id="path164"
       inkscape:connector-curvature="0"
       style="fill:#f5722c" />
    <path
       d="m 545.12,929.22 c 13.86,-1.58 27.78,-2.22 41.74,-2.18 1.32,4.74 2.16,9.58 2.78,14.48 -15.04,-0.08 -30.08,0 -45.1,0 0.18,-4.1 0.38,-8.2 0.58,-12.3 z"
       id="path166"
       inkscape:connector-curvature="0"
       style="fill:#f5e5c1" />
    <path
       d="m 231,951.62 c 31,-0.26 61.86,-3.54 92.9,-3.26 3.12,0.34 7.22,-0.46 8.82,3.06 0.88,12.2 0.14,24.48 0.06,36.7 0.18,4.8 -1.3,10.66 -6.36,12.44 -10.72,1.48 -21.6,0.42 -32.4,0.72 -20.08,-0.28 -40.2,0.64 -60.26,-0.58 -0.66,-0.98 -2,-2.94 -2.66,-3.92 0.2,-15.06 -0.24,-30.1 -0.1,-45.16 z"
       id="path168"
       inkscape:connector-curvature="0"
       style="fill:#f5e5c1" />
    <path
       d="m 504.56,956.42 c 34.9,1 69.82,-2.7 104.68,-0.1 -0.9,14.04 1.68,27.94 1.36,41.92 0.32,3.5 -3.78,4.66 -6.54,4.28 -33.12,0.04 -66.22,-0.08 -99.32,0.04 -0.46,-15.38 -0.26,-30.76 -0.18,-46.14 z"
       id="path170"
       inkscape:connector-curvature="0"
       style="fill:#f5e5c1" />
    <path
       d="m 53.6,982.76 c 53.76,-0.12 107.52,0.6 161.28,0.78 0.16,5.08 0.12,10.16 -0.02,15.26 -4.14,1.48 -8.44,2.7 -12.88,2.56 -44.02,-0.02 -88.04,-0.04 -132.06,0 -5.62,0 -11.22,-0.44 -16.8,-0.98 -0.26,-5.88 0.06,-11.76 0.48,-17.62 z"
       id="path172"
       inkscape:connector-curvature="0"
       style="fill:#f5e5c1" />
  </g>
</svg>
