<?xml version="1.0" encoding="UTF-8" standalone="no"?>
<svg
   xmlns:dc="http://purl.org/dc/elements/1.1/"
   xmlns:cc="http://creativecommons.org/ns#"
   xmlns:rdf="http://www.w3.org/1999/02/22-rdf-syntax-ns#"
   xmlns:svg="http://www.w3.org/2000/svg"
   xmlns="http://www.w3.org/2000/svg"
   xmlns:sodipodi="http://sodipodi.sourceforge.net/DTD/sodipodi-0.dtd"
   xmlns:inkscape="http://www.inkscape.org/namespaces/inkscape"
   width="1280"
   height="1280"
   viewBox="0 0 1024 1024"
   version="1.1"
   id="svg2"
   inkscape:version="0.48.1 "
   sodipodi:docname="repair_team_grind.svg">
  <metadata
     id="metadata70">
    <rdf:RDF>
      <cc:Work
         rdf:about="">
        <dc:format>image/svg+xml</dc:format>
        <dc:type
           rdf:resource="http://purl.org/dc/dcmitype/StillImage" />
      </cc:Work>
    </rdf:RDF>
  </metadata>
  <defs
     id="defs68" />
  <sodipodi:namedview
     pagecolor="#ffffff"
     bordercolor="#666666"
     borderopacity="1"
     objecttolerance="10"
     gridtolerance="10"
     guidetolerance="10"
     inkscape:pageopacity="0"
     inkscape:pageshadow="2"
     inkscape:window-width="1920"
     inkscape:window-height="1018"
     id="namedview66"
     showgrid="false"
     fit-margin-top="0"
     fit-margin-left="0"
     fit-margin-right="0"
     fit-margin-bottom="0"
     inkscape:snap-page="true"
     inkscape:zoom="0.6609375"
     inkscape:cx="640"
     inkscape:cy="640"
     inkscape:window-x="-8"
     inkscape:window-y="-8"
     inkscape:window-maximized="1"
     inkscape:current-layer="layer1" />
  <g
     inkscape:groupmode="layer"
     id="layer1"
     inkscape:label="background">
    <rect
       style="fill:#3e3e3e;fill-opacity:1;fill-rule:nonzero;stroke:none"
       id="rect3059"
       width="1280"
       height="1280"
       x="0"
       y="0"
       transform="scale(0.8,0.8)" />
  </g>
  <g
     inkscape:groupmode="layer"
     id="layer2"
     inkscape:label="foreground">
    <path
       style="fill:#f5e5c1"
       d="M 887.5625 23.90625 C 881.5625 29.28125 874.06875 32.56875 867.96875 37.84375 C 859.94375 44.96875 849.2875 48.6625 842.5625 57.3125 C 864.7625 90.0125 888.5 121.6375 911.25 153.9375 C 965 229.2375 1019.0625 304.29375 1072.4375 379.84375 C 1084.2625 395.86875 1094.5937 413.08125 1108.8438 427.15625 C 1117.6937 423.80625 1124.75 417.375 1132.375 412 C 1172.3 382.875 1212.1812 353.675 1252.1562 324.625 C 1256.6812 321.3 1259.95 316.64375 1263.625 312.46875 C 1260.35 308.64375 1257.75 304.33125 1254.625 300.40625 C 1192.525 233.35625 1130.4938 166.18125 1068.4688 99.03125 C 1063.1438 93.40625 1055.4562 91.29375 1048.5312 88.46875 C 999.58125 69.26875 950.70625 49.875 901.78125 30.625 C 896.98125 28.55 891.3125 27.83125 887.5625 23.90625 z M 887.625 64.625 C 889.33125 64.523828 891.05 64.76875 892.78125 65.5 C 941.00625 82.7 989.1875 99.9875 1037.4375 117.1875 C 1042.2625 118.5625 1045.9813 122.0875 1049.1562 125.8125 C 1092.7062 174.8625 1136.1625 223.95 1179.6875 273 C 1193.7375 289.45 1208.9437 304.925 1222.0938 322.125 C 1190.1187 345.1 1158.4187 368.5125 1126.5938 391.6875 C 1121.1437 395.4375 1116.25 400.2125 1110 402.5625 C 1098.825 390.6875 1092.0125 375.6625 1082.1875 362.8125 C 1045.9625 312.3125 1010.45 261.29375 973.125 211.59375 C 940.05 164.31875 905.56875 117.975 872.96875 70.375 C 877.525 68.275 882.50625 64.928516 887.625 64.625 z "
       id="path6"
       transform="scale(0.8,0.8)" />
    <path
       style="fill:#f5e5c1"
       d="M 777.34375 115.5625 C 765.34375 121.6375 754.3375 129.45 743.0625 136.75 C 744.9375 180.325 746.20625 223.89375 748.15625 267.46875 C 749.18125 292.84375 749.03125 318.35 751.65625 343.625 C 765.00625 364.8 781.70625 383.7875 795.15625 404.9375 C 824.43125 443.0375 852.9625 481.75625 882.0625 520.03125 C 884.4625 523.18125 886.84375 526.44375 889.84375 529.09375 C 896.56875 529.56875 903.5125 528.18125 908.9375 524.03125 C 935.9625 505.15625 963.26875 486.65625 990.21875 467.65625 C 996.01875 464.28125 998.88125 456.7125 994.03125 451.1875 C 922.40625 338.9375 849.19375 227.6875 777.34375 115.5625 z M 767.53125 145.5625 C 768.48359 145.66055 769.33125 146.225 770.0625 147.5 C 834.9625 252.125 900.6375 356.3125 965.0625 461.1875 C 941.9875 476.9875 918.95625 492.8875 896.03125 508.9375 C 853.98125 451.8125 812.5125 394.23125 770.5625 337.03125 C 769.1375 334.75625 767.2125 332.51875 767.0625 329.71875 C 764.2375 269.71875 761.00625 209.80625 758.40625 149.78125 C 761.0875 149.0875 764.67422 145.26836 767.53125 145.5625 z "
       id="path10"
       transform="scale(0.8,0.8)" />
    <path
       d="m 777.04,205.44 c 4.6,5.98 9.56,11.84 13.12,18.54 -0.9,7.72 -0.2,17.68 -7.58,22.48 -10.82,7.74 -22.14,14.76 -32.88,22.58 -3.08,-4.5 -6.18,-9.06 -7.9,-14.26 10.24,-6.72 20.66,-13.3 30.42,-20.68 3.18,-9.12 2.82,-19.2 4.82,-28.66 z"
       id="path14"
       inkscape:connector-curvature="0"
       style="fill:#f5e5c1" />
    <path
       d="m 556.6,291.7 c 10.98,-13.42 21.98,-26.88 33.56,-39.8 -0.62,8.32 2.3,17.46 -1.36,25.24 -7.02,9.86 -15.54,18.58 -23,28.12 -3,-4.56 -6.04,-9.1 -9.2,-13.56 z"
       id="path16"
       inkscape:connector-curvature="0"
       style="fill:#f5e5c1" />
    <path
       d="m 783.98,322.02 c 16.66,-12.52 34.12,-24.14 51.34,-35.94 2.84,3.88 6.04,7.58 8.2,11.94 -0.74,2.18 -3.02,3.26 -4.64,4.7 -15.66,10.9 -31.38,21.72 -46.98,32.72 -2.8,-4.38 -5.88,-8.62 -7.92,-13.42 z"
       id="path18"
       inkscape:connector-curvature="0"
       style="fill:#f5e5c1" />
    <path
       style="fill:#f5e5c1"
       d="M 682.46875 367.3125 C 673.84375 368.8375 664.81875 370.075 657.09375 374.5 C 645.76875 382.975 636.9625 394.23125 629.3125 406.03125 C 641.5875 424.23125 654.7 441.88125 666.5 460.40625 C 683.425 490.05625 700.63125 519.625 720.40625 547.5 C 728.10625 562.7 736.75625 577.40625 745.53125 592.03125 C 748.25625 597.20625 754.1 600.06875 759.875 598.84375 C 769.475 597.06875 780.3875 597.19375 788.3125 590.71875 C 797.9625 582.41875 807.15625 573.40625 814.28125 562.78125 C 769.80625 498.00625 726.54375 432.3625 682.46875 367.3125 z M 678.125 387.75 C 699.125 419.1 718.64375 451.425 739.96875 482.5 C 756.26875 509.25 774.59375 534.78125 790.46875 561.78125 C 782.89375 568.85625 775.75625 577.6 764.65625 578.625 C 729.00625 525.575 694.1875 471.9625 658.6875 418.8125 C 656.1875 414.7125 652.8625 410.14375 654.5625 405.09375 C 660.3625 396.99375 667.975 389.7 678.125 387.75 z "
       id="path20"
       transform="scale(0.8,0.8)" />
    <path
       style="fill:#f5e5c1"
       d="M 611 407.78125 C 608.1812 407.87345 605.30469 408.81406 603.0625 410.3125 C 595.0125 415.5125 586.2875 419.9625 579.0625 426.3125 C 572.2875 433.3375 580.08125 441.55625 583.90625 447.78125 C 552.43125 470.35625 521.2 493.31875 489.5 515.59375 C 506.475 537.86875 525.75625 558.3625 543.15625 580.3125 C 548.55625 577.6625 553.7625 574.625 558.8125 571.375 C 596.9125 547.225 635.38125 523.6625 673.40625 499.4375 C 672.60625 492.2625 668.71875 486.01875 664.71875 480.21875 C 649.46875 457.84375 635.325 434.6875 620.125 412.3125 C 618.14219 408.95156 614.62417 407.66271 611 407.78125 z M 609.71875 426.71875 C 622.76875 446.39375 635.7875 466.15625 647.6875 486.53125 C 642.6125 489.45625 637.5375 492.40625 632.4375 495.28125 C 620.3125 475.00625 605.5125 456.1625 595.6875 434.5625 C 600.0625 431.4125 604.66875 428.64375 609.71875 426.71875 z M 593.0625 465.5625 C 593.42349 465.52671 593.80313 465.57812 594.21875 465.6875 C 602.84375 478.3125 610.5125 491.575 618.0625 504.875 C 615.4875 506.175 612.925 507.48125 610.375 508.78125 C 604.675 495.95625 597.26875 484.00625 591.09375 471.40625 C 589.43125 469.30625 590.5356 465.81304 593.0625 465.5625 z M 575.6875 475.5 C 582.3125 477.325 583.45 485.05625 586.75 490.15625 C 590.775 499.53125 598.1875 507.66875 599.4375 518.09375 C 593.5375 511.84375 590.23125 503.83125 585.90625 496.53125 C 582.15625 489.70625 577.2875 483.275 575.6875 475.5 z M 562.96875 485.5 C 573.76875 496.675 579.5125 511.725 587.3125 525 C 582.2125 524 580.70625 518.68125 578.40625 514.78125 C 573.45625 504.93125 567.39375 495.625 562.96875 485.5 z M 551.8125 493.6875 C 560.2125 506.2875 566.99375 519.9875 573.96875 533.4375 C 567.86875 528.1875 565.25625 520.3125 561.03125 513.6875 C 557.58125 507.2375 552.2875 501.2875 551.8125 493.6875 z M 539.125 502.25 C 547.5 514.725 555.175 527.8125 561.5 541.4375 C 554.35 536.2625 551.5375 527.5625 546.9375 520.4375 C 543.8625 514.6125 538.9 509.225 539.125 502.25 z M 525.84375 511.6875 C 531.14375 516.6875 534.10625 523.44375 537.78125 529.59375 C 541.60625 536.19375 546.20625 542.56875 547.65625 550.21875 C 540.70625 549.29375 539.3375 541.54375 536.0625 536.59375 C 532.5125 528.39375 524.86875 521.2375 525.84375 511.6875 z "
       id="path24"
       transform="scale(0.8,0.8)" />
    <path
       d="m 596.84,351.44 c 9.78,-7.78 19.78,-15.28 29.54,-23.12 3.38,4.14 6.64,8.4 9.64,12.84 -10.16,7.32 -19.54,15.76 -29.98,22.64 -4.02,-3.22 -6.06,-8.34 -9.2,-12.36 z"
       id="path26"
       inkscape:connector-curvature="0"
       style="fill:#f5e5c1" />
    <path
       style="fill:#f5e5c1"
       d="M 447.90625 502.8125 C 446.60586 502.76172 445.23125 503.16875 443.78125 504.1875 C 433.45625 511.9125 424.375 521.1625 414.25 529.1875 C 408 534.8375 400.4625 539.7 396.3125 547.25 C 394.6375 555.175 401.9875 560.5875 404.9375 567.1875 C 402.5625 571.1125 399.375 574.45625 396.375 577.90625 C 400.825 582.83125 405.35 587.6875 409.875 592.5625 C 412.45 589.5125 415.01875 586.525 417.59375 583.5 C 430.36875 600.45 442.7625 617.7375 455.5625 634.6875 C 459.0625 639.6125 466.08125 642.8625 471.53125 638.8125 C 488.48125 628.6375 504.625 617.1625 521.25 606.4375 C 525.375 602.8125 534.5 598.81875 530.875 592.09375 C 506.875 564.41875 481.89375 537.55625 457.71875 510.03125 C 455.0375 507.0875 451.80742 502.96484 447.90625 502.8125 z M 447.09375 527.5625 C 459.31875 539.6125 471.625 551.61875 483 564.46875 C 490.3 572.94375 499.2875 580.1375 504.5625 590.1875 C 493.0125 600.4125 481.21875 610.41875 467.59375 617.84375 C 451.39375 595.66875 435.0375 573.64375 418.6875 551.59375 C 428.2125 543.64375 437.24375 535.0875 447.09375 527.5625 z "
       id="path38"
       transform="scale(0.8,0.8)" />
    <path
       d="m 649.26,428.46 c 11.24,-8.76 22.94,-19.54 37.96,-19.74 3.74,3.64 6.36,8.22 9.1,12.66 -6.32,2.04 -12.78,3.72 -18.96,6.18 -7.32,3.46 -12.42,10.14 -19.42,14.1 -3.66,-3.86 -6.08,-8.64 -8.68,-13.2 z"
       id="path42"
       inkscape:connector-curvature="0"
       style="fill:#f5e5c1" />
    <path
       d="m 564.88,452.76 c 1.98,-0.66 4.16,-3.76 6.28,-1.96 3.08,3.7 4.88,8.24 6.92,12.56 -40.04,25.3 -79.86,50.92 -119.82,76.34 1.5,5.66 5.54,12.52 1.68,18.06 -5.98,5.68 -13.74,8.96 -20.56,13.48 -9.22,5.36 -17.88,11.7 -27.48,16.34 -4.8,-2.44 -7.84,-7.34 -11.68,-11.02 14.84,-8.8 29.32,-18.2 44.32,-26.74 0.22,-8.16 -3.04,-16 -7.78,-22.52 -6.96,-9.68 -13.7,-19.5 -20.38,-29.36 2.66,-1.94 5.34,-3.9 8,-5.84 8.1,11.54 16.22,23.06 24,34.82 39.06,-24.34 77.7,-49.38 116.5,-74.16 z"
       id="path48"
       inkscape:connector-curvature="0"
       style="fill:#f5e5c1" />
    <path
       d="m 260.4,456.5 c 10.7,-4.18 22.3,-4.88 33.68,-5 7.14,-0.2 10.64,6.92 14.68,11.6 6.54,9.14 14.6,17.22 20.34,26.9 0.7,8.34 -1.08,16.8 -2.22,25.08 -1.9,1.74 -4.12,-1.04 -5.92,-1.68 -11.32,-7.5 -22.48,-15.22 -33.9,-22.56 -12.56,-7.36 -27.86,-3.8 -40.2,2.1 -6.96,3.1 -11.14,9.8 -16.12,15.22 -2,-10.78 -4.5,-21.52 -5.62,-32.42 7.16,-12.98 22.66,-14.76 35.28,-19.24 z"
       id="path50"
       inkscape:connector-curvature="0"
       style="fill:#f5722c" />
    <path
       d="m 163.68,485.64 c 9.64,-5.7 20.78,-11.92 32.34,-9.68 7.46,3.22 14.48,7.76 20.8,12.86 5.92,13.08 8.14,27.34 11.18,41.28 6.34,27.46 10.92,55.4 19.62,82.26 1.68,5.32 2.3,10.92 3.96,16.24 2.3,4.08 6.42,7 8.12,11.42 -5.5,7.62 -15.48,9.18 -23.78,12.24 -6.18,2.38 -12.28,-1.34 -18,-3.38 -2.88,-7.72 -6.96,-14.9 -10.98,-22.08 -16.06,-29.26 -32.06,-58.56 -47.96,-87.92 -4.26,-7.62 -7.92,-15.62 -13.2,-22.62 -2.74,-3.38 -3.94,-8.14 -2.1,-12.2 3.06,-9.22 12.92,-12.9 20,-18.42 z"
       id="path52"
       inkscape:connector-curvature="0"
       style="fill:#f5722c" />
    <path
       d="m 263.94,495.94 c 8.26,-2.4 18.18,-2.78 25.1,3.12 18.5,12.9 37.58,24.94 56.1,37.8 5.78,4.1 10.98,9 15.6,14.4 15.38,17.98 30.82,35.92 46.32,53.8 7.86,8.58 7.58,20.96 10.68,31.56 5.2,17.34 3.72,35.62 4.92,53.46 1.54,22.86 -4.8,45.06 -10.26,66.98 -1.52,5.44 -1.96,11.1 -1.94,16.74 3.28,-0.86 8.1,0.08 9.34,-4.06 6.82,-13.3 15.28,-26.48 15.2,-42.02 79.86,66.62 160.06,132.84 240.1,199.26 4.64,3.96 8.86,8.42 12.6,13.28 21.2,27.98 42.64,55.76 63.84,83.74 l -507.52,0 c -4.32,-5.92 -7.7,-12.46 -11.2,-18.88 -13.34,-24.64 -26.84,-49.2 -40.24,-73.8 -5.06,-9.7 -10.98,-18.94 -15.08,-29.1 8.62,-3.78 17.22,-7.6 25.86,-11.36 -0.02,-2.74 -0.04,-5.5 -0.06,-8.22 -7.76,-0.3 -15.56,0.54 -23.3,-0.26 -7.28,-1.68 -14.2,-4.72 -20.94,-7.88 -8.76,-4.44 -12.96,-13.82 -17.46,-21.96 -4.74,-9.34 -10.56,-18.12 -14.88,-27.66 -3.4,-6.7 1.16,-13.84 4.78,-19.4 8.02,-10.46 17.62,-19.8 28.46,-27.3 17.68,-12 34.24,-26.36 54.9,-33.1 13.22,-6.28 27.9,-7.1 42.28,-6.5 -1.42,9.1 -2.96,18.26 -2.64,27.52 -0.62,9.52 7.86,15.92 14.06,21.78 3.08,3.02 6.52,-1.32 8.8,-3.18 -4.96,-8.26 -8.48,-17.32 -9.96,-26.84 -2.16,-10.56 0.66,-21.16 1.88,-31.64 2.02,-20 12.12,-37.78 18.84,-56.4 3.3,-9.86 9.66,-19.06 9.36,-29.82 0.04,-8.14 -2.34,-16 -4.4,-23.78 -2.04,-7.44 -3.8,-15.06 -7.48,-21.88 -11.46,-21.34 -22.9,-42.68 -34.3,-64.04 -6.68,-12.26 -0.06,-29.16 12.64,-34.36 z"
       id="path54"
       inkscape:connector-curvature="0"
       style="fill:#f5722c" />
    <path
       d="m 120.36,530.26 c 7.72,-3.12 18.34,-0.28 21.6,7.84 18.3,34.84 37.34,69.3 55.6,104.14 3.12,9.16 8.02,20.08 2.22,29.18 -2.38,4.08 -4.22,9.98 -9.74,10.48 -6.96,1.32 -14.32,2.54 -21.34,1.26 -8.6,-5.78 -17.44,-11.68 -24.66,-19.16 -6.06,-9.4 -11.08,-19.44 -17.32,-28.72 -11.56,-20.14 -25.62,-38.64 -37.42,-58.62 -6.08,-7.62 -8.34,-18.02 -6.12,-27.44 10.58,-9.04 23.64,-15.52 37.18,-18.96 z"
       id="path56"
       inkscape:connector-curvature="0"
       style="fill:#f5722c" />
    <path
       d="m 35.5,603.5 c 11.44,-7.54 21.62,-17.26 34.44,-22.5 3.92,1.48 8.44,2.46 11.14,6 7.1,8.3 12.5,17.94 19.72,26.18 8.78,9.06 14.62,20.44 20.42,31.52 4.34,13.04 10.94,25.1 16.64,37.56 -4.14,7.74 -13.62,10.04 -21.76,9.28 -6.5,-1.78 -11.6,-6.56 -16.94,-10.42 -16.22,-13.06 -33.76,-24.84 -47.08,-41.08 0.96,5.5 3.04,10.68 4.7,15.98 -1.06,5.18 -7.84,7.38 -12.66,7.48 -6.18,0.74 -8.8,-5.72 -12.2,-9.58 -4.2,-6.04 -11.36,-11.72 -9.08,-20.02 2.34,-10.58 2.3,-24.08 12.66,-30.4 z"
       id="path58"
       inkscape:connector-curvature="0"
       style="fill:#f5722c" />
    <path
       d="m 250.3,586.28 c 8.54,8.54 14.12,19.42 18.92,30.36 2.32,4.86 1.8,10.34 2.08,15.54 -5.26,-0.86 -10.9,-2.56 -14.02,-7.24 -4.72,-12.3 -6.5,-25.54 -6.98,-38.66 z"
       id="path60"
       inkscape:connector-curvature="0"
       style="fill:#f5722c" />
    <path
       d="m 265.76,649.54 c 5.16,-1.5 10.32,-3 15.42,-4.64 0.42,2.94 1.88,6.14 0.24,9 -3.72,8.48 -6.16,17.44 -9.54,26.04 -2.04,5.68 -7.98,8.22 -12.58,11.46 -50.74,33.24 -101.48,66.46 -152.14,99.76 -8.74,5.56 -19.2,7.08 -28.9,10.24 -10.14,-7.9 -21.76,-13.78 -31.14,-22.68 -4.9,-4.44 -10.16,-8.44 -15.04,-12.9 -4.76,-3.96 -5.72,-10.4 -7.4,-16 -2.3,-9.9 -6.78,-19.52 -6.22,-29.9 0.56,-8.52 0.52,-17.16 2.22,-25.54 0.68,-5.1 5.38,-7.9 9.16,-10.62 10.76,-7.28 21.34,-14.8 32.18,-21.94 3.44,3.84 8.04,6.94 10.14,11.8 -11.42,8.94 -24.2,16.06 -35.44,25.18 -2.8,8.6 -2.28,18.38 -1.9,27.44 2.28,9.08 4.36,18.38 7.82,27.1 11,11.38 24.48,20.14 35.3,31.74 7.16,-2.32 14.78,-3.7 21.28,-7.68 50.8,-33.28 101.52,-66.7 152.4,-99.86 10.1,-5.48 9.46,-18.74 14.14,-28 z"
       id="path62"
       inkscape:connector-curvature="0"
       style="fill:#f5e5c1" />
    <path
       d="m 84.24,691.94 c 15.08,-2.84 29.9,10.9 29.32,26 1.12,14.14 -11.14,27.8 -25.48,27.4 -13.66,0.94 -26.42,-11.6 -25.68,-25.3 -0.84,-13.04 8.62,-26.2 21.84,-28.1 z"
       id="path64"
       inkscape:connector-curvature="0"
       style="fill:#f5e5c1" />
  </g>
</svg>
