<?xml version="1.0" encoding="UTF-8" standalone="no"?>
<svg
   xmlns:dc="http://purl.org/dc/elements/1.1/"
   xmlns:cc="http://creativecommons.org/ns#"
   xmlns:rdf="http://www.w3.org/1999/02/22-rdf-syntax-ns#"
   xmlns:svg="http://www.w3.org/2000/svg"
   xmlns="http://www.w3.org/2000/svg"
   xmlns:sodipodi="http://sodipodi.sourceforge.net/DTD/sodipodi-0.dtd"
   xmlns:inkscape="http://www.inkscape.org/namespaces/inkscape"
   width="1280"
   height="1280"
   viewBox="0 0 1024 1024"
   version="1.1"
   id="svg2"
   inkscape:version="0.48.1 "
   sodipodi:docname="revenge_crit_sentry_killer.svg">
  <metadata
     id="metadata102">
    <rdf:RDF>
      <cc:Work
         rdf:about="">
        <dc:format>image/svg+xml</dc:format>
        <dc:type
           rdf:resource="http://purl.org/dc/dcmitype/StillImage" />
      </cc:Work>
    </rdf:RDF>
  </metadata>
  <defs
     id="defs100" />
  <sodipodi:namedview
     pagecolor="#ffffff"
     bordercolor="#666666"
     borderopacity="1"
     objecttolerance="10"
     gridtolerance="10"
     guidetolerance="10"
     inkscape:pageopacity="0"
     inkscape:pageshadow="2"
     inkscape:window-width="1920"
     inkscape:window-height="1018"
     id="namedview98"
     showgrid="false"
     inkscape:snap-page="true"
     fit-margin-top="0"
     fit-margin-left="0"
     fit-margin-right="0"
     fit-margin-bottom="0"
     inkscape:zoom="0.6609375"
     inkscape:cx="466.00473"
     inkscape:cy="640"
     inkscape:window-x="-8"
     inkscape:window-y="-8"
     inkscape:window-maximized="1"
     inkscape:current-layer="layer1" />
  <g
     inkscape:groupmode="layer"
     id="layer1"
     inkscape:label="background"
     style="display:inline">
    <rect
       style="fill:#3e3e3e;fill-opacity:1;fill-rule:nonzero;stroke:none"
       id="rect3082"
       width="1024"
       height="1024"
       x="0"
       y="0" />
  </g>
  <g
     inkscape:groupmode="layer"
     id="layer2"
     inkscape:label="foreground">
    <path
       d="m 845.92,4.46 c 1.48,9.48 3.16,19.2 8.14,27.58 3.9,7.6 10.58,14.88 9.22,24.06 -0.18,3.14 -2.4,5.56 -3.96,8.12 -9.68,2.3 -17.52,8.68 -26.4,12.8 -13.22,6.02 -23.78,16.22 -35.68,24.3 -9.9,6.7 -11.12,19.58 -13.62,30.26 -3.38,14.64 -8.42,29.1 -8.4,44.32 0.16,13.54 -1.62,27.06 -4.92,40.2 0.56,0.9 1.68,2.68 2.24,3.58 -7.22,18.08 -9.72,37.44 -13.12,56.48 -0.58,5.66 -6.1,9.12 -11.16,10.32 -5.8,0.76 -11.64,0.36 -17.44,0.48 0.28,4.92 -0.72,10.9 3.88,14.24 8.62,7.42 16.3,16.88 27.54,20.38 12.7,4.34 25.88,7.1 38.7,11.08 5.14,1.76 10.94,3.48 14.22,8.18 0.54,8.42 -2.08,16.64 -2.74,24.98 -1.42,8.7 -1.14,17.5 -1.5,26.26 0.02,4.4 -3.8,7.34 -5.98,10.76 -2.52,-2.4 -5.06,-4.78 -7.6,-7.14 -1.1,-12.44 1.96,-25.74 -4.06,-37.3 -3.92,-7.62 -9.72,-14.18 -15.88,-20.08 -6,-3.94 -12.92,-6.48 -18.18,-11.54 -11.34,-9.32 -20.14,-21.48 -32.54,-29.52 -9.08,-6.1 -15.32,-15.56 -24.78,-21.2 -8.34,-5.1 -16.28,-11.26 -21.22,-19.9 0.76,-1.4 2.28,-4.18 3.02,-5.58 11.14,-1.74 20.1,5.64 29.82,9.54 6,2.42 11.68,5.6 16.56,9.9 7.78,7.16 20.58,1.72 25.34,-6.48 7.94,-13.84 5.3,-30.36 5.66,-45.58 0.34,-11.46 -3.7,-22.66 -2.24,-34.12 1.62,-14.2 4.6,-28.26 8.86,-41.9 4.44,-14.18 6.12,-29.14 11.9,-42.92 2.2,-3.84 6.98,-5 10.64,-7.06 11.7,-5.02 22.04,-12.5 32.72,-19.3 8.74,-5.68 17.02,-13 21.42,-22.64 2.32,-15.06 -0.44,-30.42 1.54,-45.56 z"
       id="path6"
       inkscape:connector-curvature="0"
       style="fill:#f4722b" />
    <path
       d="m 58.1,44 c 7.84,-13.6 24.26,-21.9 39.84,-19.28 3.62,1.5 6.72,4 10.02,6.08 C 95.02,30.18 81.22,32.58 70.74,40.62 60.16,49.42 57.28,63.4 53.4,75.92 51.78,65.12 52,53.46 58.1,44 z"
       id="path8"
       inkscape:connector-curvature="0"
       style="fill:#f5e5c1" />
    <path
       d="m 628.24,34.32 c 6.64,-2.96 13.14,-6.22 19.54,-9.72 -8.36,10.22 -20.64,16 -29.28,25.92 -7.32,8.02 -18.74,12.92 -22.66,23.6 -0.32,11.86 5.7,22.78 9.1,33.9 -2.56,11.74 -15.08,16.3 -21.74,25.18 -5.98,8.72 -7.74,19.38 -11.08,29.2 -3.34,9.58 -9.68,17.62 -15.66,25.64 9.34,18.64 22.12,36.1 39.62,47.82 4.18,2.78 9.22,3.92 13.32,6.8 3.9,11 5.22,25.14 -2.26,34.96 -1.58,-0.26 -4.76,-0.78 -6.34,-1.06 -6.54,2.88 -13.76,2.26 -20.68,3.14 -11.54,1.96 -20.18,10.6 -29.76,16.6 -10,6.1 -19.34,13.22 -29.74,18.66 -4.02,2.28 -6.98,5.98 -10.86,8.44 -6.52,1.58 -14.04,-1.88 -19.86,2.48 -12.28,8.02 -23.26,18.18 -31.22,30.58 3.76,-12.42 4.6,-25.4 4.82,-38.3 13.38,-1.26 27,6.62 39.84,0.78 7.44,-3.1 10.56,-11.02 14.38,-17.48 4.68,-8.34 13.44,-13.58 17.58,-22.3 5.7,-11.9 3.4,-25.78 8.14,-37.92 2.34,-1.36 5.24,-1.48 7.62,-0.12 11.22,4.94 14.34,19.04 25.64,23.88 8.02,4.68 15.88,-3.14 23.36,-5.66 -6.04,-4.5 -12.54,-8.34 -18.5,-12.92 -6.72,-5.14 -10.46,-13.54 -18.1,-17.52 -3.06,-1.72 -6.26,-3.26 -8.82,-5.7 -18.38,-17.76 -35.68,-36.64 -52.74,-55.64 -3.28,-10.42 4.48,-21.92 0.78,-32.6 -3.86,-7.04 -9.32,-13.06 -14.44,-19.16 -9.9,-8.72 -23.42,-10.9 -35.74,-14.02 -6.24,-7.4 -6.78,-17.66 -9.6,-26.6 -2.8,-12.3 -9.24,-24 -8.36,-36.92 2.52,0.44 5.1,0.7 7.54,1.48 2.36,4.04 3.66,8.56 5.18,12.94 1.18,0.3 3.5,0.9 4.68,1.2 7.72,15 18.76,27.84 30.34,39.98 4.64,4.6 11.74,4.42 17.6,6.5 5.24,0.9 7.06,6.52 9.48,10.52 4.18,8.74 10.6,16.96 10.84,27.06 0.12,6.48 1.1,13.26 5.88,18.1 6.94,9.5 18.3,13.36 28.7,17.72 8.7,-12.26 10.22,-27.56 16.64,-40.84 5.08,-11 16.36,-16.8 23.78,-25.96 -3.68,-4.28 -5.54,-9.56 -6.26,-15.1 -1.12,-8.08 -6.06,-14.72 -9.24,-22.02 -1.88,-2.76 1.1,-5.4 2.72,-7.38 5.8,-6.1 13.52,-9.78 21.16,-13.04 8.92,-3.88 15.82,-11.1 24.66,-15.1 z"
       id="path10"
       inkscape:connector-curvature="0"
       style="fill:#f4722b" />
    <path
       d="m 67.06,54.92 c 4.6,-9.7 14.68,-15.18 24.9,-16.94 11.12,-2.98 22.32,1.06 33.5,1.44 2.6,2.72 5.22,5.42 7.92,8.06 -27.1,-12.06 -65.06,5.56 -67.72,36.52 -3.02,15.7 3.62,30.64 6,45.88 1.28,5.56 -1.76,10.48 -3.72,15.42 -2.66,9.78 -2.58,20.02 -2.66,30.08 -3.3,-4.54 -7.44,-9.2 -6.26,-15.3 -0.98,-12.94 7.3,-24.78 4.88,-37.72 -1.48,-12.14 -2.88,-24.28 -4.18,-36.44 -0.98,-10.82 3.04,-21.28 7.34,-31 z"
       id="path12"
       inkscape:connector-curvature="0"
       style="fill:#f5e5c1" />
    <path
       d="m 80.64,70.4 c 6.6,-8.54 16.36,-14.82 27.18,-16.18 13.62,-2.96 27.38,3.74 36.82,13.24 42.82,45.08 85.8,90 128.58,135.14 37.88,39.14 74.42,79.58 112.78,118.24 -10.56,1.9 -21.64,1.7 -31.8,5.32 -10.58,5.2 -22.1,9.04 -31.08,16.94 -5.94,5.5 -14.66,8.64 -17.8,16.64 -3.96,9.68 -7.98,19.42 -10.46,29.64 -5.48,-8.5 -11.94,-16.3 -17.94,-24.42 C 209.56,275.98 142.28,186.92 74.84,98 c 0.26,-9.42 0.3,-19.46 5.8,-27.6 z"
       id="path14"
       inkscape:connector-curvature="0"
       style="fill:#f5e5c1" />
    <path
       d="m 359.62,99.48 c 13.3,16.86 29.8,31.6 38.7,51.5 1.86,11.66 3.24,23.7 0.78,35.4 -2.06,8.56 3.64,15.94 7.78,22.82 7,11.6 15.26,22.38 23.12,33.4 -5.38,0.32 -11,0.22 -15.5,-3.14 -7.98,-5.36 -18.08,-7.92 -24.42,-15.46 -2.78,-6.92 -2.9,-14.64 -4.22,-21.94 -2.18,-11.04 4.3,-21.28 3.6,-32.26 0.12,-8.64 -3.72,-16.54 -7.24,-24.2 -4.3,-9.06 -5.66,-19.44 -11.64,-27.7 -4.14,-5.84 -7.92,-11.94 -10.96,-18.42 z"
       id="path16"
       inkscape:connector-curvature="0"
       style="fill:#f4722b" />
    <path
       d="m 52.1,159.34 c -2.54,-11.84 -2.96,-25.96 6.6,-34.96 -0.86,11.9 -5.24,23.14 -6.6,34.96 z"
       id="path18"
       inkscape:connector-curvature="0"
       style="fill:#f5e5c1" />
    <path
       d="m 79.1,153.94 c -0.16,-8.04 9.18,-10.7 14.34,-15.12 4.76,6.62 10.22,12.76 14.5,19.72 -3.98,7.18 -9.52,13.46 -12.6,21.16 3.76,10.1 -0.16,20.54 -1.46,30.7 -4.84,-6.2 -12.1,-11.88 -12.52,-20.32 -0.46,-12.08 -3.52,-24 -2.26,-36.14 z"
       id="path20"
       inkscape:connector-curvature="0"
       style="fill:#f5e5c1" />
    <path
       d="m 925.3,157.14 c 3.34,-3.88 8.72,-3.8 13.4,-4.34 0.3,3.08 0.58,6.18 0.82,9.28 -2.88,2.34 -5.72,4.74 -8.54,7.16 -2.62,-0.1 -5.24,-0.2 -7.84,-0.3 -3.8,3.64 -7.24,7.7 -9.68,12.42 -6.02,11.16 -12.26,22.2 -19.34,32.72 -4.74,7.06 -7.78,16.16 -15.64,20.42 -12.92,2.78 -25.04,-4.42 -36.9,-8.48 -17.12,-8.7 -36.66,-3.64 -54.86,-7.28 -4.14,4.68 -12.6,4.86 -13,-2.74 -0.22,-5.64 4.58,-10.4 10.08,-10.8 7.88,-1.86 14.9,3 22.1,5.3 10.6,4.14 23.06,2.14 32.64,8.98 6.94,4.68 14.7,9.34 23.46,7.82 5.66,0.16 10.08,-4.26 12.04,-9.24 4.02,-9.14 7.7,-18.44 11.86,-27.52 3.42,0.92 6.78,2.04 10.28,2.6 11.16,-10.76 18.66,-24.64 29.12,-36 z"
       id="path22"
       inkscape:connector-curvature="0"
       style="fill:#f4722b" />
    <path
       d="m 109,182.04 c 1.36,-4.84 4.62,-8.82 7.06,-13.14 38.82,50.94 77.3,102.16 116.04,153.18 -4.8,3.22 -8.3,7.8 -12.24,11.9 -5.38,-1.14 -10.68,-3.3 -15.1,-6.62 -4.86,-4.7 -8.02,-10.8 -11.86,-16.3 -24.28,-36.34 -48.56,-72.66 -72.88,-108.98 -4.14,-6.36 -9.3,-12.46 -11.02,-20.04 z"
       id="path24"
       inkscape:connector-curvature="0"
       style="fill:#f5e5c1" />
    <path
       d="m 101.84,198.2 c 5.46,9.62 11.96,18.58 18.12,27.76 23.98,35.4 47.86,70.86 71.72,106.34 4.78,7.46 13.48,10.52 20.58,15.22 -7.16,12.86 -15.68,25.06 -21.16,38.78 -2.98,24.98 6.7,50.68 23.32,69.24 12.64,12.14 31.4,12 47.64,9.78 2.18,4.26 4.4,8.52 6.5,12.84 -19.64,5.18 -41,4.68 -59.86,-3.26 -19.12,-7.78 -35.28,-22.46 -44.94,-40.7 -4.32,-8.3 -6.9,-17.32 -10.48,-25.94 C 136.6,368.42 119.5,328.74 102.74,288.92 98.7,279.08 92.92,269.18 94.3,258.1 c 1.88,-20.04 4.58,-40 7.54,-59.9 z"
       id="path26"
       inkscape:connector-curvature="0"
       style="fill:#f5e5c1" />
    <path
       d="m 969.06,242.12 c 2.72,0.32 5.44,0.68 8.16,1.08 -2.82,27.04 -8.4,53.74 -12.32,80.66 -10.88,67.12 -21.6,134.26 -32.52,201.38 3.32,0.74 6.66,1.48 10.02,2.22 0.58,1.04 1.74,3.1 2.3,4.14 -1.56,7.26 -2.08,14.82 -4.66,21.82 -4.3,7.3 -10.58,13.14 -15.62,19.92 6.2,10.42 0,22.04 -6.02,30.9 2.86,-24.36 8.52,-48.3 12.28,-72.5 -1.52,-4 -5.1,-6.58 -8.06,-9.44 16.1,-93.3 31.1,-186.78 46.44,-280.18 z"
       id="path28"
       inkscape:connector-curvature="0"
       style="fill:#f5e5c1" />
    <path
       d="m 654.42,283.9 c 1.44,-4.02 4.56,-8.94 9.62,-7.04 6.96,3.06 5.62,12.16 2.1,17.4 -7.5,11.18 -10.1,24.7 -13.6,37.46 3.18,3.72 10,6.18 8.3,12.18 -1.22,4.48 -6.82,5.18 -10.66,4.18 -6.94,-1.82 -13.36,-5.26 -19.66,-8.6 -3.9,-1.72 -7.04,-7.04 -3.74,-10.74 3.86,-4.6 10.68,-2.88 15.96,-3.28 1.66,-5.46 3.3,-10.9 4.94,-16.36 -26.42,19.6 -52.28,40 -77.88,60.7 -16.36,13.52 -31.74,28.2 -48.08,41.7 -12.16,8.18 -26.88,19.94 -42.14,12.18 -1,0.5 -3.02,1.5 -4.02,2 -0.9,1.54 -1.8,3.08 -2.7,4.62 2.14,3.34 4.38,6.62 7,9.62 16.78,19.3 33.72,38.44 50.28,57.92 3.44,4.1 7.26,7.86 11.38,11.28 2.18,-0.96 4.34,-1.88 6.52,-2.8 8.24,-10.2 20.78,-16.28 33.8,-17.12 12.22,-0.64 24.8,-1.82 35.78,-7.76 6.12,-4.56 11.78,-10.5 14.04,-17.96 9.18,-27.52 18.04,-55.16 27.44,-82.6 5.36,-21.02 22.26,-38.62 42.82,-45.32 14.88,-2.76 30.3,9.18 31.5,24.28 2.16,10.26 -3.64,19.38 -7.22,28.54 5.3,4.26 11.62,10.04 10.22,17.58 -1.3,5.42 -7.64,6.08 -12.14,4.86 -8.72,-2.24 -18.62,-4.48 -23.78,-12.64 2.76,-6.22 8.4,-9.96 14.92,-11.32 2.52,-10.64 11.52,-22.22 4.68,-32.9 -4.3,-7.64 -15.1,-8.3 -22.08,-4.14 -12.32,7.38 -22.88,18.6 -27.36,32.46 -9.94,30.04 -20.06,60.02 -29.98,90.06 -3.96,12.54 -15.42,22.6 -28.7,23.64 -17.58,2.6 -38.9,1.84 -51.02,17.24 -4.22,3.24 -0.28,8.2 0.5,12.22 -15.3,3.28 -31.18,0.54 -45.52,-5.26 -5.18,-1.9 -7.94,-7.04 -11.36,-10.98 -16.46,-20.76 -33.64,-40.9 -50.18,-61.58 -3.3,-4.58 -8.18,-8.32 -9.88,-13.84 4.22,-4.94 10.34,-7.76 14.52,-12.72 2.7,-3.74 4.28,-8.14 6.32,-12.24 9.88,3.4 21.02,6.74 31.06,1.94 17.26,-7.84 32.8,-19 47.28,-31.16 12.64,-9.16 24.2,-19.64 35.36,-30.54 20.5,-17.48 40.14,-36.06 61.9,-52.02 4.88,-3.9 11.46,-6.72 13.46,-13.14 z"
       id="path30"
       inkscape:connector-curvature="0"
       style="fill:#f5e5c1" />
    <path
       d="m 568.12,326.36 c 8.46,-4.52 17.8,-7.18 27.32,-8.24 -11.24,9.16 -22.24,18.62 -32.6,28.76 -13.4,12.68 -28.14,23.78 -42.74,35.02 8.16,-23.84 26.1,-43.46 48.02,-55.54 z"
       id="path32"
       inkscape:connector-curvature="0"
       style="fill:#f5e5c1" />
    <path
       d="m 332.76,352.54 c 14.82,-9.38 31.56,-16.22 49.1,-17.94 7.5,0.24 14.84,2.22 22.14,3.86 4.42,0.62 7.46,4.12 10.46,7.1 7.96,8.32 15.86,16.7 23.94,24.92 -8.3,-4.6 -16.98,-8.94 -26.32,-10.86 -8.6,-0.22 -17.36,-0.06 -25.8,1.68 -8.28,3.08 -16.68,6.18 -24.36,10.58 -10.32,8.28 -19.1,18.32 -27.74,28.32 -2.42,2.64 -4.04,5.96 -4.54,9.52 -1.9,12.64 -4.26,25.58 -1.66,38.32 1.9,13.3 6.22,26.48 5.42,40.02 -2.88,12.58 -7.38,24.74 -12.08,36.76 -2.9,7.52 -2.22,15.7 -1.92,23.58 -6.24,-9.6 -13.18,-18.68 -19.58,-28.16 -7.1,-9.74 -4.64,-22.94 -0.94,-33.5 2.6,-8 9.22,-13.6 12.86,-21 6.5,-24.9 -7.96,-49.24 -3.72,-74.22 1.24,-7.68 4.52,-14.78 7.56,-21.86 3.18,-7.8 10.54,-12.52 17.18,-17.12 z"
       id="path34"
       inkscape:connector-curvature="0"
       style="fill:#f5e5c1" />
    <path
       d="m 232.02,344.04 c 2.82,-2.88 4.64,-9.28 9.68,-7.52 3.3,1.02 4.8,4.82 6.62,7.48 4.52,9.16 6.92,19.18 10.72,28.64 -6.76,8.32 -15.2,15.92 -18.38,26.48 -2.74,8.38 -4.12,17.6 -2.06,26.26 4.14,9.22 10.26,17.4 15.2,26.22 -14.1,0.96 -28.94,-4.34 -37.1,-16.3 -8.54,-13.22 -13.48,-29.44 -11.32,-45.22 4.54,-17.48 16.92,-31.26 26.64,-46.04 z"
       id="path36"
       inkscape:connector-curvature="0"
       style="fill:#f5e5c1" />
    <path
       d="m 590.76,368.8 c 8.84,-7.14 17.98,-13.86 26.82,-20.96 2.5,1.52 5.02,3.04 7.54,4.56 -11.76,4.82 -23.4,9.94 -34.36,16.4 z"
       id="path38"
       inkscape:connector-curvature="0"
       style="fill:#f5e5c1" />
    <path
       d="m 680.22,387.76 c 2.28,-7.96 7.38,-14.58 12.04,-21.28 5.1,4.18 10.18,8.38 15.16,12.74 -6.56,3.3 -16.42,5.68 -16.84,14.62 -2,8.84 5.6,15.32 12.78,18.58 10.74,4.84 22.68,9.36 34.6,6.72 5.3,-3.64 7.64,-9.88 9.22,-15.82 6.06,5.54 13.74,9.76 17.32,17.5 -22.14,1.12 -44.86,0.7 -66.18,7.68 -14.78,6.6 -28.14,16 -40.36,26.58 7.12,-22.54 14.96,-44.84 22.26,-67.32 z"
       id="path40"
       inkscape:connector-curvature="0"
       style="fill:#f5e5c1" />
    <path
       d="m 608.44,379.32 c 8.52,-2.66 16.56,-6.92 25.34,-8.66 5.2,2.04 8.88,6.86 13.1,10.46 -1.86,7.16 -3.46,14.4 -5.54,21.52 -10.8,6.6 -22.12,12.66 -31.56,21.2 -12.6,14.94 -12.88,35.38 -16.58,53.64 -9.6,0.74 -19.22,1.56 -28.58,3.96 -1.84,-27.12 -3.52,-55.72 7.64,-81.22 3.44,-4.98 7.96,-9.26 12.92,-12.72 7.3,-3.84 15.58,-5.22 23.26,-8.18 z"
       id="path42"
       inkscape:connector-curvature="0"
       style="fill:#f5e5c1" />
    <path
       d="m 347.38,405.34 c 14.94,-19.94 39.46,-33.62 64.74,-31.96 8.18,2.8 15.68,7.42 24.16,9.4 -19.58,0.28 -40.58,1.22 -57.6,12.08 -5.26,3.22 -9.74,7.48 -14.6,11.24 -4.36,3.56 -9.36,6.96 -11.52,12.4 -4.62,11 -6.28,22.94 -9.36,34.4 -5.92,-15.24 -4.62,-33.68 4.18,-47.56 z"
       id="path44"
       inkscape:connector-curvature="0"
       style="fill:#f5e5c1" />
    <path
       d="m 273.16,384.5 c 3.38,1.06 4.9,4.9 7.22,7.34 5.36,7.66 13.26,14.28 14.72,23.98 2.36,13.28 6.48,26.66 4.66,40.3 -0.48,8.32 -6.96,14.42 -12.2,20.22 -4.32,-4.52 -7.32,-10.04 -10.56,-15.32 -7.16,-12.04 -15.18,-23.58 -22.1,-35.74 -2.64,-3.96 -1.06,-8.8 -0.56,-13.14 1.04,-5.2 1.38,-10.82 4.16,-15.46 4.4,-4.6 9.5,-8.48 14.66,-12.18 z"
       id="path46"
       inkscape:connector-curvature="0"
       style="fill:#f5e5c1" />
    <path
       d="m 516.64,428.6 c 13.82,-9.34 26.9,-19.78 38.88,-31.44 -2.86,10.12 -4.28,20.54 -6.02,30.88 -1.92,11.68 -0.22,23.5 0.06,35.24 -10.72,-11.8 -22,-23.08 -32.92,-34.68 z"
       id="path48"
       inkscape:connector-curvature="0"
       style="fill:#f5e5c1" />
    <path
       d="m 398.92,405.46 c 17.12,-4.42 35.02,-4.5 52.44,-1.96 -1.98,4.42 -2.86,9.86 -7.12,12.82 -5.9,4.66 -12.26,10.06 -13.5,17.92 -0.84,4.62 2.82,8.22 5.32,11.64 18.92,23.12 37.28,46.66 55.78,70.12 4.5,5.54 8.4,12.24 15.4,14.98 18.48,8.08 38.96,11.46 59.06,10.52 5.4,-0.2 12.18,-3.66 12.92,-9.44 -1.6,-5.58 -4.92,-10.48 -7.18,-15.78 2.72,2.46 5.38,5 7.84,7.76 22.62,26.06 45.54,51.88 68.18,77.94 -31.66,-15.44 -68.28,-14.74 -102.08,-8 -8.04,1.28 -15.02,5.62 -22.1,9.32 -47.74,-62.14 -95.76,-124.1 -143.66,-186.1 5.96,-4.28 11.74,-9.16 18.7,-11.74 z"
       id="path50"
       inkscape:connector-curvature="0"
       style="fill:#f5e5c1" />
    <path
       d="m 615.26,440.88 c 3.6,-9.08 13.4,-12.72 20.6,-18.38 -5.34,18.78 -9.94,40.58 -27.34,52.1 -0.14,-11.54 2.1,-23.14 6.74,-33.72 z"
       id="path52"
       inkscape:connector-curvature="0"
       style="fill:#f5e5c1" />
    <path
       d="m 367.2,426.45 c -3.46,10.36 -5.66,21.07 -8.2,31.65 -11.14,46.62 -21.78,93.32 -32.2,140.1 -2.86,8.12 4.78,13.9 8.7,20 60.2,82.26 121.69,163.57 183.85,244.35 19.18,-26.58 39.3,-52.59 56.8,-80.35 2.1,-2.56 1.06,-5.83 0,-8.55 -21.14,-51.56 -42.16,-103.19 -63.1,-154.85 -1.32,-3.12 -2.93,-6.12 -4.85,-8.9 -46.74,-61.34 -94.7,-121.79 -141,-183.45 z m 23.55,47.75 c 4.36493,0.004 8.73499,1.9275 11.1,5.75 21.38,28.68 42.86,57.27 64.1,86.05 7.28,15.48 10.08,33.12 9,50.2 -1.32,6.56 -4.71,12.74 -9.05,17.8 -6.28,3.9 -14.2,6.33 -21.6,4.95 -7.86,-3.12 -13.93,-9.41 -18.95,-16.05 -16.46,-21.58 -32.71,-43.36 -49.35,-64.8 -3.26,-4.06 -5.99,-8.73 -6.35,-14.05 -0.9,-16.02 -2.52,-32.58 2.6,-48.1 2.14,-7.88 6.01,-15.67 12.75,-20.55 1.79374,-0.78125 3.76594,-1.20182 5.75,-1.2 z"
       id="path54"
       style="fill:#f5e5c1"
       inkscape:connector-curvature="0" />
    <path
       d="m 497.22,435.36 c 1.6,-0.26 4.78,-0.76 6.36,-1 15.36,18.6 30.84,37.12 46.22,55.72 -0.92,0.88 -2.76,2.6 -3.68,3.46 C 530,474 512.64,455.46 497.22,435.36 z"
       id="path56"
       inkscape:connector-curvature="0"
       style="fill:#f5e5c1" />
    <path
       d="m 733.64,439.24 c 13.74,-0.22 27.5,-3.78 41.2,-2.42 10.42,7.6 19.54,16.86 29.94,24.54 9.34,7 18.04,15.56 21.74,26.94 -21.52,0.18 -43.06,0.56 -64.54,-0.54 -7.18,-0.46 -14.94,0.94 -20.46,5.82 -3.04,5.16 -3.02,11.46 -5.26,16.94 -10.58,4.82 -22.36,6.32 -32.9,11.22 -5.5,2.3 -5.22,9.16 -5.88,14.12 -0.6,22.12 -3.28,44.18 -3.92,66.26 5.16,8.26 16.94,7.3 25.12,11 0.28,3.42 0.58,6.84 0.9,10.26 -5.72,-1.88 -11.5,-3.68 -17.32,-5.26 -14.4,-14.98 -30.82,-27.98 -44.82,-43.3 -6.88,-16.72 -13.4,-34.44 -12.72,-52.84 1.7,-18.6 7.56,-37.28 19.02,-52.18 13.54,-9.54 28.3,-17.26 42.62,-25.56 8.18,-4.9 18.18,-3.54 27.28,-5 z"
       id="path58"
       inkscape:connector-curvature="0"
       style="fill:#f5e5c1" />
    <path
       d="m 78.58,487.26 c 9.12,-0.26 18.22,-0.14 27.34,-0.22 -2.56,1.84 -5.08,3.72 -7.62,5.62 -1.44,0.22 -4.32,0.68 -5.76,0.92 4.04,4.66 7.8,9.58 12.04,14.08 5.04,-5.18 8.2,-15.8 17.44,-12.84 17.86,3.2 36.06,0.88 53.96,3.36 14.66,1.44 27.98,8.34 42.48,10.56 -6.32,5.92 -12.12,12.36 -17.1,19.46 -6.06,-4.24 -11.1,-12.18 -19.32,-11.46 -14.08,0.84 -28,-2.78 -42.08,-1.22 -7.44,1 -16.48,0.42 -22.06,6.32 -7.32,10.44 -9.58,23.74 -8.62,36.28 1.36,17.9 5.3,36.02 1.38,53.9 -7.18,0.9 -14.24,2.74 -20.78,5.9 -17.2,8.2 -37,7.9 -54.26,15.96 10.18,-7.22 19.46,-15.66 30.16,-22.16 11.96,-6.86 19.34,-20.84 33.68,-23.56 -1.14,-16.34 -4.56,-32.78 -1.78,-49.14 1.1,-5.66 2.8,-11.16 4.22,-16.72 -9.82,-9.92 -23.46,-19.6 -23.32,-35.04 z"
       id="path62"
       inkscape:connector-curvature="0"
       style="fill:#f4722b" />
    <path
       d="m 382.66,532.58 c -2.98,-15.42 0.08,-32.02 9,-45.02 20.72,28.1 41.96,55.84 62.58,84.02 7.62,13.94 8.64,31 5.08,46.32 -0.56,3.38 -2.72,6.12 -5.38,8.16 -23.68,-31.22 -47.32,-62.48 -71.28,-93.48 z"
       id="path64"
       inkscape:connector-curvature="0"
       style="fill:#f5e5c1" />
    <path
       d="m 780.4,501.2 c -7.95781,-0.0206 -15.94499,-0.005 -23.9,0.05 -5.46,4.64 -7.08,11.65 -8,18.45 8.7,4.62 17.36,9.32 26.1,13.9 7.2,3.66 14.42,7.83 19.4,14.35 2.52,2.82 1.35,6.87 1.15,10.25 -2.36,15.98 -5.73,31.84 -7.65,47.9 -0.48,7 -1.23,14.31 -4.95,20.45 -3.58,2.5 -7.85,4.39 -12.25,4.55 -12.54,-2.96 -23.49,-12.12 -36.95,-11 1.44,4.18 1.85,9.96 6.85,11.5 20.6,8.62 41.05,17.8 61.85,25.8 34.06,0.14 68.19,0.59 102.25,-0.05 7.32,-41.7 14.92,-83.35 22.1,-125.05 -2.68,-5.96 -9.9,-7.09 -15.3,-9.35 -19.8,-6.34 -39.09,-14.31 -59.15,-19.65 -23.82,-1.57499 -47.67656,-2.03813 -71.55,-2.1 z m 49.05,25.4 c 1.51395,-0.003 3.07,0.11 4.45,0.05 25.28,1.46 50.5,3.73 75.8,4.85 5,0.28 7.53,6.12 6.25,10.5 -5.04,31.38 -9.59,62.85 -14.45,94.25 -0.7,3.96 -2.12,10.15 -7.4,9.45 -24.02,1.2 -48.11,0.3 -72.15,0.7 -6.46,-0.1 -13.08,0.85 -19.4,-0.95 -0.66,-7.68 1.81,-15.1 2.95,-22.6 4.78,-28.32 9.7,-56.61 14.4,-84.95 0.72,-3 0.83,-6.46 2.95,-8.9 1.6375,-2.05 4.07675,-2.39493 6.6,-2.4 z"
       id="path66"
       style="fill:#f5e5c1"
       inkscape:connector-curvature="0" />
    <path
       d="m 605.8,507.54 c 7.48,-0.74 14.96,-1.7 22.38,-2.9 -2.42,17.08 -3.3,35.22 3.5,51.48 -1.64,0.76 -4.92,2.3 -6.56,3.08 -4.86,-5.74 -10.64,-10.82 -14.48,-17.32 -2.4,-11.3 -3.28,-22.88 -4.84,-34.34 z"
       id="path68"
       inkscape:connector-curvature="0"
       style="fill:#f5e5c1" />
    <path
       d="m 584.42,512.12 c 0.14,-4.84 7.12,-2.32 10.26,-3.76 0.92,6.48 1.92,12.94 2.78,19.42 -4.4,-5.16 -9.44,-9.88 -13.04,-15.66 z"
       id="path70"
       inkscape:connector-curvature="0"
       style="fill:#f5e5c1" />
    <path
       d="m 273.88,533.82 c 3.98,-4.16 7.66,-8.6 11.26,-13.12 -4.34,11.24 -6.68,23.34 -13.18,33.64 -4.7,7.52 -10.52,14.74 -12.06,23.74 -2.4,11.42 -6.72,22.4 -8.48,33.96 -1.54,17.6 2.98,34.98 4.12,52.48 -2.78,-1.7 -5.6,-3.38 -8.44,-5 -4.46,-32.9 -11.72,-65.32 -16.52,-98.18 14.56,-8.9 31.46,-14.72 43.3,-27.52 z"
       id="path72"
       inkscape:connector-curvature="0"
       style="fill:#f4722b" />
    <path
       d="m 715.34,533.44 c 8.74,-1.48 17.36,-4.4 26.26,-4.68 14.82,7.46 30.38,14.3 43.42,24.76 -4.34,20.06 -4.96,41.02 -11.82,60.44 -22.22,-3.4 -43.1,-12.22 -64.76,-17.94 2.08,-20.88 4.62,-41.72 6.9,-62.58 z"
       id="path76"
       inkscape:connector-curvature="0"
       style="fill:#f5e5c1" />
    <path
       d="m 856.78,539.16 c 22.64,-4.86 40.92,19.9 37.78,40.84 -0.36,18.62 -16.98,33.32 -34.48,36.26 -14.4,2.94 -29.12,-6.86 -34.3,-20.1 -6.66,-22.9 7.12,-51.24 31,-57 z"
       id="path78"
       inkscape:connector-curvature="0"
       style="fill:#f5e5c1" />
    <path
       d="m 543.82,607.78 c 14.36,-4.22 29.38,-5.38 44.28,-4.94 28.6,-0.82 55.7,10.98 80,25.02 2.74,2.14 4.04,5.52 5.9,8.38 -8.02,1.06 -15.92,3.2 -24.02,3.64 -5.62,-5.34 -8.28,-16.82 -17.84,-15.52 -10.04,0.88 -20.26,1.42 -30.04,3.86 -6.62,2.08 -5.76,10.06 -2.96,14.94 11.66,25.18 22.6,50.72 34.66,75.7 11.86,2.6 24.22,2.24 36.26,1.66 7.3,-3.94 6.12,-13.6 7.06,-20.56 0,-7.16 2.66,-13.94 7.62,-19.08 3.2,-0.24 6.4,-0.46 9.6,-0.66 14.78,31.5 30.8,62.46 44.54,94.44 -7.16,-8.68 -17.6,-14.12 -28.8,-15.18 -21.3,-2.04 -43.12,-5.18 -64.24,-0.2 -17.98,2.3 -35.2,8.08 -52.72,12.48 -20.26,-49.26 -40.14,-98.68 -60.44,-147.92 -1,-2.6 -1.98,-5.18 -2.54,-7.88 3.68,-3.94 8.7,-6.36 13.68,-8.18 z"
       id="path80"
       inkscape:connector-curvature="0"
       style="fill:#f5e5c1" />
    <path
       d="m 613.16,640.92 c 6.66,-0.16 13.3,-0.58 19.9,-1.58 3.84,4.5 5.92,11.24 11.54,13.82 11.3,1.38 22.12,-3.9 33.4,-3.86 19.38,-0.22 38.78,-0.12 58.18,0.16 0.56,5.72 1.08,11.46 1.58,17.2 -18.54,-0.28 -37.1,-2.26 -55.62,-0.88 -5.5,2.16 -8.46,7.76 -12.08,12.12 -7.14,8.12 -5.18,19.66 -7.04,29.56 -6.58,-0.06 -13.16,-0.22 -19.72,-0.46 -10.12,-22 -20.08,-44.06 -30.14,-66.08 z"
       id="path82"
       inkscape:connector-curvature="0"
       style="fill:#f5e5c1" />
    <path
       d="m 257.7,678.56 c 1.8,9.08 2.9,18.26 3.92,27.46 0.76,3.44 0.98,7.84 4.44,9.8 6.52,4.22 14.16,6.7 19.86,12.14 6.36,6.06 10.4,14 15.14,21.26 2.44,-0.1 4.86,-0.18 7.3,-0.28 -5.56,-5.7 -11.12,-11.42 -15.98,-17.74 9.78,3.52 17.62,10.56 26.66,15.48 12.4,6.74 25,13.6 38.96,16.56 14.48,11.36 31.96,17.8 48.12,26.32 9.9,5.06 20.26,10.28 31.72,9.52 7.16,-0.58 13.18,3.3 18.66,7.38 -5.44,4.18 -11.5,7.4 -17.8,10.04 -6.8,2.86 -11.92,8.3 -17.54,12.86 1.86,11.5 1.04,23.28 3.52,34.68 2.28,10.46 2.32,21.2 2.88,31.86 -11.02,-3.5 -22.84,-2.52 -33.88,-5.92 -12.28,-3.72 -24.08,-8.84 -36.38,-12.46 8.24,0 16.5,-1.04 24.72,-0.38 5.9,1.4 11.62,3.58 17.68,4.36 -3.9,-23.88 -4.42,-48.74 1.22,-72.36 -22.74,-11.54 -45.2,-24.06 -69.34,-32.42 -13.12,-0.64 -23.08,12.46 -36.56,10.38 -1.26,-10.56 1.98,-22.36 -4.96,-31.52 -6.6,-10.46 -13.62,-25.2 -28.12,-24.62 -6.94,0.88 -9.72,-6.7 -13.88,-10.76 8.72,-12.14 7.9,-27.5 9.64,-41.64 z"
       id="path84"
       inkscape:connector-curvature="0"
       style="fill:#f4722b" />
    <path
       d="m 763.04,700.36 c 7.82,4.06 16.28,6.68 25.08,7.34 3.4,8.58 6.6,17.24 8.62,26.28 2.04,7.46 3.62,16.12 10.26,21 5.64,2.72 11.98,3.62 17.78,6 8.44,3.6 17.92,3.1 26.78,1.6 10.08,-2.02 18.02,-9.04 25.2,-15.96 9.36,-9.38 19.16,-18.38 29.68,-26.48 4.26,-3.38 10.18,-4.26 15.3,-2.36 9.32,3.38 16.98,9.94 25.38,15.04 12.4,7.6 23.68,18.34 38.72,20.22 -0.22,2.42 -0.42,4.84 -0.62,7.28 -11.96,-1.68 -23.68,-6.48 -32.1,-15.36 -9.16,-9.54 -19.78,-18.76 -33.12,-21.48 -5.14,-1.36 -9.1,2.94 -13.08,5.4 -5.22,4.06 -12.42,7.6 -13.28,14.96 -0.54,7.26 4.88,13.1 6.22,20.02 2.58,11.68 3.28,23.94 8.66,34.84 6.08,0.38 13.22,0.04 17.56,5.16 6.22,7.32 7.22,17.34 9.46,26.34 10.78,7.38 18.96,18.34 31.16,23.64 10.58,5.26 23.08,10.04 27.84,21.92 -11.34,-7.02 -19.06,-19.5 -32.46,-23.08 -12.76,-3.8 -28.06,-4.66 -37.1,-15.72 -3.42,-7.4 -4.32,-15.68 -6.72,-23.44 -2.72,-0.88 -5.46,-1.78 -8.16,-2.64 -10.08,-14.5 -9.8,-34.12 -23.02,-46.64 -0.22,-2.6 -0.4,-5.2 -0.58,-7.8 -4.96,2.76 -10.38,4.52 -15.5,6.9 -4.12,3.14 -6.36,8.74 -11.66,10.22 -10.94,3.32 -23.06,5.06 -34.12,1.28 -9.18,-2.98 -17.42,-8.08 -25.56,-13.14 -1.54,9.48 -4.54,18.68 -6.06,28.16 0.9,9 3.02,17.88 5.44,26.6 2.36,9.54 12.18,13.52 18.8,19.68 5.6,5.32 12.14,9.4 18.7,13.44 5.72,3.48 9.3,9.32 14.06,13.86 4.3,0.68 8.42,-1.5 12.54,-2.46 7.58,-2.48 15.66,-1.76 23.52,-1.92 14.32,14.04 26.54,30.4 35.26,48.5 5.12,10.48 14,18.28 21.84,26.66 3.58,3.76 8.86,8.38 14.38,5.5 11.12,-5.34 20.5,-14 27.74,-23.92 -6.02,10.08 -9.12,21.52 -14.44,31.9 -3.94,3.72 -9.1,5.94 -13.28,9.38 -3.54,-0.58 -8.58,1.52 -10.74,-2.2 -5.28,-7.58 -9.16,-16.08 -14.96,-23.34 -12.82,-16.2 -22.08,-34.86 -34.64,-51.24 -4.18,-3.96 -10.52,-3.24 -15.76,-4.46 -8.38,-0.9 -15.68,-5.84 -24.1,-6.48 -7.84,0.04 -13.36,-6.14 -19.82,-9.6 -13.9,-7.76 -30.16,-8.68 -45.22,-12.94 -4,-21.4 -2.4,-43.34 -1.46,-64.94 0.24,-5.2 -3.42,-9.26 -5.92,-13.42 1.22,-13.78 5.72,-27.46 4.5,-41.34 -1.76,-13.6 -16.72,-17.64 -27.34,-22.48 0.1,-1.06 0.26,-3.2 0.34,-4.28 z"
       id="path86"
       inkscape:connector-curvature="0"
       style="fill:#f4722b" />
    <path
       d="m 609.86,785.22 c 13.94,-3.02 27.64,-7.92 42.04,-8.08 15.92,-0.3 32.14,-1.78 47.74,2.3 15.46,3.18 32.4,10.68 38.22,26.58 7.62,20.72 14.68,41.62 21.8,62.52 7.98,27.34 16.34,54.6 24.06,82.04 6,24.36 10.8,49.02 16.66,73.42 l -211.4,0 c -3.66,-8.02 -6.08,-16.52 -8.54,-24.96 -12.1,-41.22 -24.52,-82.34 -36.36,-123.62 -1.32,-4.76 -3.12,-10.34 0.54,-14.56 15.78,-22.28 31.42,-44.68 47.22,-66.94 3.9,-6.14 11.58,-6.98 18.02,-8.7 z"
       id="path88"
       inkscape:connector-curvature="0"
       style="fill:#f5e5c1" />
    <path
       d="m 476.76,822.96 c 11,15.6 23.48,30.16 34.22,45.92 2.16,8.16 3.36,16.6 6.08,24.66 -4.66,6.72 -14.14,11.76 -14.24,20.54 4.08,6.32 9.12,12.18 15.16,16.72 8.32,0.26 16.26,-5.44 24.72,-1.96 1.84,6.68 3.82,13.32 5.36,20.08 -20.76,4.9 -40.42,-9.36 -50.22,-26.68 -5.82,-8.8 -9.56,-18.66 -13.18,-28.5 -10.22,-22.08 -8.16,-47.12 -7.9,-70.78 z"
       id="path90"
       inkscape:connector-curvature="0"
       style="fill:#f5e5c1" />
    <path
       d="m 323.3,868.9 c -14.68,6.78 -16.32,24.45 -21.3,37.95 -9.34,-0.64 -18.3,-3.32 -27.2,-6.1 -6.86,7.62 -16.35,12.94 -21.15,22.3 -3.66,6.94 -7.35,14.41 -13.95,19.05 -5.32,0.68 -10.71,0.38 -16.05,0.6 -5.38,-4.68 -10.72,-9.42 -15.6,-14.6 -1.72,-3.46 -3.73,-6.86 -7.05,-9 -6.4,-4.64 -11.42,-11.35 -13.4,-19.05 -0.26,-5.9 4.66,-14.45 -3.2,-17.25 -14.42,4.26 -28.93,9.8 -41.15,18.8 -8.02,5.64 -17.85,7.28 -26.95,10.3 -6.34,2.16 -11.72,6.47 -18.2,8.25 -17.9,3.68 -35.87,-1.08 -52.55,-7.4 12.9,8.04 26.6,17.43 42.5,16.85 13.04,0.04 26.23,-0.94 38.65,-5.2 6.34,-2.26 13.19,-1.66 19.75,-0.8 11.38,1.76 23.09,2.18 34.05,6.1 7.84,2.84 16.17,3.42 24.45,3.5 9.76,10.94 17.82,23.27 28,33.85 9.6,9.74 17.21,22.03 29.05,29.25 9.24,1.38 18.69,2.55 28.05,2.05 8.98,-0.9 14.12,-8.91 18.9,-15.55 4.02,-6.68 12.65,-6 19.25,-8 0.72,-1.28 2.18,-3.82 2.9,-5.1 -3.9,-8.98 -11.16,-17.27 -10.1,-27.65 0.54,-9.1 -1.14,-18.95 3.8,-27.15 6.92,-13.7 11.63,-30.54 26.55,-37.8 -9.52,-2.12 -18.95,-4.72 -28.05,-8.2 z m -49.9,49.8 c 9.1,1.42 18.19,2.83 27.15,5.05 2.24,10.78 5.45,21.38 7.05,32.3 0.12,3.76 3.24,6 5.7,8.4 -11.16,2 -15.16,13.18 -22.3,20.3 -8.02,1.6 -16.25,-0.07 -24.35,-0.15 -9.52,-8.78 -17.62,-18.84 -26.4,-28.3 17.46,-5.82 20.71,-26.26 33.15,-37.6 z"
       id="path92"
       style="fill:#f4722b"
       inkscape:connector-curvature="0" />
    <path
       d="m 519.48,905.8 c 7.48,0.8 9.58,-7.5 12.76,-12.5 1.76,6.72 3.74,13.4 5.52,20.14 -5.58,2.2 -10.94,4.86 -16.18,7.76 -2.7,-2.98 -5.38,-5.96 -8.04,-8.94 1.96,-2.18 3.94,-4.34 5.94,-6.46 z"
       id="path94"
       inkscape:connector-curvature="0"
       style="fill:#f5e5c1" />
  </g>
</svg>
