<?xml version="1.0" encoding="UTF-8" standalone="no"?>
<svg
   xmlns:dc="http://purl.org/dc/elements/1.1/"
   xmlns:cc="http://creativecommons.org/ns#"
   xmlns:rdf="http://www.w3.org/1999/02/22-rdf-syntax-ns#"
   xmlns:svg="http://www.w3.org/2000/svg"
   xmlns="http://www.w3.org/2000/svg"
   xmlns:sodipodi="http://sodipodi.sourceforge.net/DTD/sodipodi-0.dtd"
   xmlns:inkscape="http://www.inkscape.org/namespaces/inkscape"
   width="1280"
   height="1280"
   viewBox="0 0 1024 1024"
   version="1.1"
   id="svg2"
   inkscape:version="0.48.1 "
   sodipodi:docname="shotgun_kill_prev_sentry_target.svg">
  <metadata
     id="metadata92">
    <rdf:RDF>
      <cc:Work
         rdf:about="">
        <dc:format>image/svg+xml</dc:format>
        <dc:type
           rdf:resource="http://purl.org/dc/dcmitype/StillImage" />
      </cc:Work>
    </rdf:RDF>
  </metadata>
  <defs
     id="defs90" />
  <sodipodi:namedview
     pagecolor="#ffffff"
     bordercolor="#666666"
     borderopacity="1"
     objecttolerance="10"
     gridtolerance="10"
     guidetolerance="10"
     inkscape:pageopacity="0"
     inkscape:pageshadow="2"
     inkscape:window-width="1920"
     inkscape:window-height="1018"
     id="namedview88"
     showgrid="false"
     inkscape:snap-page="true"
     inkscape:zoom="0.6609375"
     inkscape:cx="466.00473"
     inkscape:cy="640"
     inkscape:window-x="-8"
     inkscape:window-y="-8"
     inkscape:window-maximized="1"
     inkscape:current-layer="layer2"
     fit-margin-top="0"
     fit-margin-left="0"
     fit-margin-right="0"
     fit-margin-bottom="0" />
  <g
     inkscape:groupmode="layer"
     id="layer1"
     inkscape:label="background"
     style="display:inline">
    <rect
       style="fill:#3e3e3e;fill-opacity:1;fill-rule:nonzero;stroke:none"
       id="rect3103"
       width="1024"
       height="1024"
       x="0"
       y="0" />
  </g>
  <g
     inkscape:groupmode="layer"
     id="layer2"
     inkscape:label="foreground"
     style="display:inline">
    <path
       d="m 3.05,1024 328.45,0 251.85,0 440.65,0 0,-453.1 0,-171.05 L 1024,0 z"
       id="path6"
       style="fill:#f4722b"
       inkscape:connector-curvature="0"
       sodipodi:nodetypes="cccccccc" />
    <path
       style="fill:#f5e5c1"
       d="m 718.6,66.65 c -1.64968,0.0703 -3.26,0.37 -4.85,1 -140.36,70.24 -279.57,142.82 -419.35,214.2 -3.02,1.58 -5.87,3.38 -8.65,5.3 -5.42,-0.58 -10.39,-3.05 -15.75,-3.95 -5.46,-0.22 -10.65,1.71 -15.95,2.75 -3.76,1.42 -7.51,2.93 -11.05,4.85 -19.4,10.66 -38.9,21.16 -58.3,31.8 -8.04,4.4 -16.9,7.93 -22.9,15.15 -21.16,23.58 -42.15,47.28 -63.25,70.9 -7.1,7.68 -12.15,17 -19.45,24.5 -11.62,13.14 -23.11,26.33 -34.75,39.45 -7.82,8.56 -13.23,18.91 -19.05,28.85 -4.76,8.24 -6.02,17.9 -10,26.5 -0.36,6.94 -1.16,13.98 -0.1,20.9 1.54,4.32 5.84,6.59 9.5,8.85 10.64,5.92 20.54,13.04 31,19.3 1.64,-0.06 4.88,-0.14 6.5,-0.2 6.28,-6.84 13.33,-13.56 15.65,-22.9 3.04,-9.7 6.35,-19.56 12.35,-27.9 11.62,-16.06 26.04,-30.7 44.2,-39.2 3.32,-0.7 2.89,-3.78 2.85,-6.4 -14.36,-9.26 -27.81,-19.89 -41.45,-30.15 -14.48,12.62 -28.93,25.43 -41.25,40.25 -13.2,16.08 -21.95,35.06 -32.25,53 l -3.7,-1.05 c 6.28,-13.28 13.63,-25.99 21.05,-38.65 13.72,-22.82 34.11,-40.36 53.65,-58 -0.38,-5.4 -1.56,-10.75 -1.8,-16.15 1.42,-5.44 5.11,-9.81 8.75,-13.95 0.68,-0.96 2.07,-2.84 2.75,-3.8 -2.48,8.08 -6.85,15.84 -5.95,24.6 15.58,-14.28 29.53,-30.26 44.25,-45.4 3.28,-2.84 3.82,-7.22 4.6,-11.2 1.14,-6.08 2.16,-12.21 3.9,-18.15 1.26,-4.98 5.74,-7.84 9.3,-11.1 -3.78,10 -5.95,20.47 -8.35,30.85 0.9,-0.18 2.73,-0.52 3.65,-0.7 23.88,-15.88 48.88,-29.99 73.1,-45.35 4.36,-2.86 8.94,-5.5 13.9,-7.2 0.7,6.84 -5.86,9.67 -10.6,12.75 -27.02,16.32 -53.66,33.18 -80.5,49.8 -6.38,3.92 -11.18,9.79 -16.3,15.15 -11.22,11.6 -21.5,24.07 -33.1,35.35 0,0.78 -0.03,2.32 -0.05,3.1 17.98,13.62 35.68,27.6 53.5,41.4 2.86,2.3 6.57,4.24 10.25,2.5 42.32,-16.38 84.52,-33.18 127.2,-48.6 11.48,-4.38 22.82,-9.15 34.4,-13.25 7.32,-3.14 14.74,-6.01 22.4,-8.25 2.64,-8.76 5.18,-17.55 7.3,-26.45 3.38,-1.8 6.78,-3.61 10.2,-5.35 11.74,-5.32 23.1,-11.49 35,-16.45 -0.08,-1.26 -0.17,-2.49 -0.25,-3.75 -7.96,-6.38 -15.62,-13.57 -20.5,-22.65 -3.12,-5.72 -4.26,-12.64 -9.5,-17 -19.38,10.02 -39.08,19.47 -57.8,30.65 -1.34,9.32 0.86,19.22 7.9,25.8 7.26,6.96 15.73,16.1 26.85,13.9 -1.24,4.72 -2.47,9.44 -3.55,14.2 -0.74,0.02 -2.29,0.03 -3.05,0.05 -23.68,-21.8 -48.42,-42.41 -72.4,-63.85 -7.6,-6.5 -15.37,-12.86 -21.75,-20.6 -0.16,-8.06 -2.23,-17.18 3.35,-24 5.08,-9.12 15.74,-13.1 25.8,-12.3 -3.42,8.68 -15.76,11.26 -17.1,21.3 -2.36,13.2 8.97,23.32 18.95,29.8 9.2,6.96 22.02,10.48 32.8,5 20.24,-9.02 40.35,-18.54 59.45,-29.8 2.18,-7.26 4.62,-14.8 9.7,-20.6 6.5,-6.2 15.26,-9.17 23.1,-13.25 61.64,-30.84 123.16,-61.84 184.7,-92.9 8.94,-5.14 18.76,-8.35 28.1,-12.65 3.98,10.52 14.35,18.52 25.85,18.1 5.2,-2.9 10.62,-5.31 16,-7.85 30.72,-13.68 61.29,-27.74 91.95,-41.5 6.3,-2.9 13.94,-6.22 15.1,-14 4.44,-10.58 1.01,-22.12 -2.55,-32.4 -6.28,-12.52 -17.82,-21.37 -29.5,-28.55 -4.12501,-2.655 -9.20094,-4.66094 -14.15,-4.45 z m 0.8,7.8 c 16.68,2.22 28.74,15.85 36.4,29.85 4.12,10.6 4.54,25.16 -5.4,32.7 -7.56,0.04 -14.36,-4.62 -20.2,-9 -9.78,-8.88 -17.52,-20.79 -19.7,-33.95 -1.24,-7.9 4.58,-13.84 8.9,-19.6 z m -477.6,266.8 c 3.32,-0.08 6.39,1.29 9.55,2.05 -0.04,3 -0.11,6 -0.25,9 -3.1,0.9 -6.22,1.94 -9.4,2.6 -4.34,0.14 -6.5,-4.34 -9.3,-6.9 2.96,-2.42 5.64,-5.63 9.4,-6.75 z m -8.4,27.15 c 2.95637,0.005 6.02344,0.63594 8.9,0.8 l 1.2,0.85 c 7.7,1.3 15.4,5.77 17.3,13.85 0.08,5.06 -2.59,9.61 -4.25,14.25 -29.96,11.46 -59.17,24.89 -89.05,36.65 -7.32,-3.04 -18.08,-6.81 -17,-16.65 -0.74,-6.18 4.02,-10.38 9.1,-12.7 22.34,-11.58 44.72,-23.12 66.8,-35.2 1.8,-1.17 3.74645,-1.66816 5.75,-1.8 0.41741,-0.0275 0.82766,-0.0507 1.25,-0.05 z m 77.6,38.5 c 3.66,0.02 7.37,0.11 11.05,0.25 1.76,1.68 3.55,3.37 5.35,5.05 -0.12,4.8 -3.43,8.1 -6.75,11.1 -7.08,0.42 -12.73,-3.46 -16.25,-9.3 2.18,-2.38 4.36,-4.78 6.6,-7.1 z m -194.8,29.75 c 4.98,-0.22 7.95,3.11 9.15,7.55 -4.86,1.56 -9.91,3.5 -14.85,1.1 0.26,-1.8 0.52,-3.6 0.8,-5.4 1.22,-0.8 3.68,-2.45 4.9,-3.25 z"
       id="path8"
       inkscape:connector-curvature="0" />
    <path
       d="m 719.84,167.92 c 2.54,-1.46 5.82,-1.82 8.28,0.04 7.2,4.28 12.78,11.58 13.72,20.08 0.52,2.32 1,4.66 1.5,7 -3.08,3.88 -7.12,6.8 -11.82,8.4 -15.98,6.18 -31.66,13.12 -47.7,19.1 -9.16,3.48 -17.66,-2.2 -24.9,-7.14 -4.52,-3.24 -10.96,-6.56 -10.08,-13.14 11.12,-3.08 20.82,-9.46 31.38,-13.9 13.38,-6.5 26.36,-13.72 39.62,-20.44 z"
       id="path12"
       inkscape:connector-curvature="0"
       style="fill:#f5e5c1" />
    <path
       d="m 605.32,191.98 c 5.12,4.84 9.84,10.82 16.92,12.84 5.98,2.04 12.34,1.92 18.58,2.02 0.06,1.5 0.16,4.48 0.22,5.96 6.52,8.3 15,14.84 24.06,20.16 5.62,3.46 12.68,1.82 18.74,0.48 3.36,-0.3 6.72,-0.5 10.1,-0.66 -3.98,7.54 -9.42,15.4 -18.26,17.48 -16.9,4.88 -33.82,-4.84 -45.3,-16.66 -4.92,-5.84 -10.32,-11.34 -14.44,-17.78 -3.64,-6.46 -6.28,-13.46 -10.4,-19.64 -0.06,-1.06 -0.16,-3.16 -0.22,-4.2 z"
       id="path14"
       inkscape:connector-curvature="0"
       style="fill:#f5e5c1" />
    <path
       d="m 584.02,203.46 c 1.54,-0.3 3.08,-0.58 4.62,-0.88 0.28,1.34 0.8,4 1.06,5.32 0.74,2.8 1.36,5.6 1.98,8.44 -27.18,12.76 -54.52,25.16 -81.68,37.94 -36.02,16.46 -71.82,33.4 -107.84,49.84 -9.26,3.78 -12.36,14.48 -20.3,20.06 -0.48,-4.26 -4.2,-9.04 -1.32,-13.08 2.26,-5.12 7.3,-7.96 12.02,-10.44 17.78,-8.9 35.54,-17.8 53.16,-26.98 30.72,-15.16 61.1,-31.04 91.78,-46.32 15.44,-8.08 31.34,-15.3 46.52,-23.9 z"
       id="path16"
       inkscape:connector-curvature="0"
       style="fill:#f5e5c1" />
    <path
       style="fill:#f5e5c1"
       d="m 588.15,228.55 c -0.6775,0.008 -1.3225,0.06 -2,0.1 -6.28,1.74 -11.96,5.13 -17.9,7.75 -55.24,25.74 -110.45,51.43 -165.65,77.25 -6.3,3.06 -7.15,10.93 -10.65,16.35 -1.56,4.2 -2.27,9.36 1.45,12.7 10.74,10.72 22.34,20.6 34.1,30.2 13.54,5.46 28.26,3.91 42.5,4.25 6.8,0 13.83,0.46 20.35,-1.9 15.84,-5.12 31.58,-10.61 47.5,-15.55 25.36,-6.88 49.11,-18.6 71.45,-32.3 19.24,-9.92 36.57,-23.05 52.55,-37.55 7.86,-8.16 13.79,-17.91 21.45,-26.25 -0.06,-1.32 -0.24,-3.93 -0.3,-5.25 -6.32,1.72 -12.45,4.34 -19.05,4.8 -5.54,0.36 -10.77,-1.66 -15.95,-3.3 -12.26,-3.48 -22.9,-11.14 -31.3,-20.6 -3.84,-4.52 -8.78,-7.87 -14.3,-9.95 -4.7425,-0.14 -9.5075,-0.80523 -14.25,-0.75 z M 564.6,270.5 c 3.74,8.48 5.7,18.06 12.1,25.1 7.7,8.56 14.74,18.15 24.8,24.15 -0.22,0.68 -0.68,2.05 -0.9,2.75 -2.74,1 -5.44,2.21 -8.3,2.75 -15.04,-11.2 -27.83,-25.63 -35.15,-43.05 -0.18,-3.66 -0.31,-7.29 -0.35,-10.95 2.58,-0.24 5.2,-0.51 7.8,-0.75 z m -20.3,10 c 4.52,13 8.62,26.69 17.6,37.45 5.02,5.94 11.06,10.93 16.4,16.55 -3.9,1.62 -8.41,4.78 -12.65,2.2 -17.52,-12.94 -30.65,-33.27 -30.75,-55.55 3.14,-0.26 6.24,-0.49 9.4,-0.65 z m -28.2,10.35 c 1.16,0.7 3.49,2.15 4.65,2.85 1.84,14.3 7.14,28.2 16.3,39.4 4.74,5.22 10.02,9.97 14.7,15.25 -4.66,0.8 -10.73,5.24 -14.65,0.7 -5.56,-5.24 -10.14,-11.33 -14.9,-17.25 -6.16,-8.06 -7.72,-18.32 -10.8,-27.7 -0.3,-3.5 -0.53,-7 -0.75,-10.5 1.36,-0.68 4.09,-2.07 5.45,-2.75 z m -22.35,11.75 c 5.02,18.78 13.98,37.23 29.5,49.55 l 0.25,6.55 c -2.8,0.16 -5.57,0.29 -8.35,0.45 -16.2,-13.76 -29.22,-32.9 -30.7,-54.6 3.08,-0.78 6.16,-1.41 9.3,-1.95 z m -21.15,9.95 c 1.94,11.08 6.01,21.67 11.15,31.65 4.42,8.32 12.97,13.16 18.65,20.5 -4.88,0.5 -9.8,0.7 -14.7,0.7 -13.8,-13.88 -24.17,-32.18 -23.35,-52.3 2.72,-0.2 5.51,-0.37 8.25,-0.55 z m -22.4,10.05 c 0.4,2.48 0.78,4.97 1.2,7.45 6.08,15.76 14.74,30.88 28.3,41.4 -4.7,0 -9.37,-0.05 -14.05,-0.15 -13.42,-11.86 -23.56,-28.46 -25.4,-46.5 3.28,-0.86 6.61,-1.62 9.95,-2.2 z"
       id="path18"
       inkscape:connector-curvature="0" />
    <path
       d="m 221.72,391.46 c 4.58,-2 9.08,-5.18 14.34,-4.58 4.08,-0.46 4.98,4.38 7.1,6.9 -0.96,1.46 -1.92,2.96 -2.88,4.44 -6.2,2.34 -12.32,4.86 -18.4,7.5 -17.96,7.96 -36.1,15.5 -54.04,23.52 -2.36,-1.64 -4.68,-3.26 -7.04,-4.88 0.12,-1.48 0.22,-2.94 0.34,-4.42 20.4,-9.02 40.48,-18.8 60.58,-28.48 z"
       id="path36"
       inkscape:connector-curvature="0"
       style="fill:#f5e5c1" />
    <path
       style="fill:#3e3e3e"
       d="m 926,478.35 c -5.33531,-0.0231 -10.66499,0 -16,0.05 -14.74,0.46 -29.32,2.86 -44,4.1 -16.46,1.28 -32.31,6.12 -48.35,9.7 -13.6,3.46 -27.59,5.68 -40.75,10.7 -27.48,10.52 -54.98,21.09 -82.5,31.55 -6.6,2.6 -13.58,4.45 -19.7,8.15 -9.08,7.06 -10.91,21.66 -22.85,25.3 -81.16,27.06 -162.57,53.4 -243.95,79.8 -6.78,2.44 -14.32,3.57 -20.3,7.85 -6.36,6.96 -11.25,16.93 -7.75,26.45 6.48,19.98 14.17,39.56 20.25,59.7 -15.66,4.42 -31.99,7.14 -47.05,13.3 -12.12,18.8 -10.27,42.51 -5.85,63.45 4.56,14.98 6.85,31.15 16.05,44.25 5.14,7.54 8.98,16.04 15.2,22.8 6.38,4.5 13.97,7.26 21.55,9 12.32,-2.64 23.3,-9.43 35.1,-13.75 9.68,-3.44 19.12,-10.71 29.9,-8.35 26.08,4.9 52.2,9.35 78.3,14.25 5.84,1.18 12.03,1 17.45,-1.7 32.56,-14.34 65.42,-27.95 98,-42.25 1.7,4.5 3.4,8.98 5.1,13.5 -15.48,6.94 -26.75,19.75 -38.65,31.35 -0.22,8.04 -1.23,16.37 1.35,24.15 2.38,7.76 4.67,15.52 6.65,23.4 -14.84,5.48 -30.09,13.8 -37.75,28.3 -8.48,16.72 -4.57,36.35 1.35,53.25 -4.6,2.2 -9.07,4.71 -13.45,7.35 l 123.1,0 c 7.38,-3.84 14.66,-7.95 22.6,-10.55 1.32,3.52 2.6,7.07 4.1,10.55 l 7.85,0 14,0 147.35,0 12.75,0 20.25,0 c -7.68,-5.36 -14.59,-11.83 -22.45,-16.95 -29.66,-19.52 -58.56,-40.08 -88.2,-59.6 13.28,-4.9 26.63,-9.66 39.95,-14.5 3.26,-10.08 7.62,-20.12 7.6,-30.9 0.32,-9.52 -2.34,-19.33 1,-28.55 4.74,-14.06 9.89,-28.01 14.45,-42.15 1.5,-4.1 2.57,-8.59 5.35,-12.05 8,-4.8 17.87,-5.26 25.75,-10.3 7.1,-8.38 9.29,-19.77 15.95,-28.45 3.08,-3.6 7.99,-4.56 12.25,-6.1 12.8,-3.7 24.78,-9.62 37.1,-14.6 14.5,-5.72 27.16,-15.05 39.9,-23.85 l 0,-10.4 0,-11.5 0,-55.2 0,-37.2 0,-50.8 c -9.1,-25.48 -18.61,-50.85 -26.75,-76.65 -2.6,-9.96 -13.26,-16.25 -23.2,-15.65 -16.02,0.15 -32.04406,-0.18062 -48.05,-0.25 z m -115.1,323.4 c 4.6375,-0.1461 9.25,0.25 13.7,1.85 -3.16,8.76 -6.58,17.47 -11.3,25.55 -3.72,-8.84 -7.19,-17.75 -10.75,-26.65 2.76,-0.34501 5.5675,-0.66234 8.35,-0.75 z"
       id="path42"
       inkscape:connector-curvature="0" />
    <path
       style="fill:#f5e5c1"
       d="m 961.55,496.95 c -12.55406,0.0347 -25.11,0.28 -37.65,0.25 -17.2,-0.56 -33.91,3.89 -50.85,6.05 -0.7,3.64 -1.45,7.31 -2.25,10.95 -25.46,13.08 -54.42,19.04 -83,17 -1.02,-2.92 -2.07,-5.87 -3.15,-8.75 -15.48,4.48 -30.12,11.26 -45.1,17.1 -11.38,5.2 -23.18,9.36 -35.2,12.8 -13.82,5.58 -28.88,11.82 -36.3,25.7 24.86,4.76 49.53,10.61 74.35,15.65 3.4,0.96 7.36,1.21 9.9,4.05 3.52,3.84 3.8,9.37 4.8,14.25 4.42,29.42 9.17,58.81 13.55,88.25 0.82,5.84 3.01,11.66 7.25,15.9 3.44,4.3 9.49,2.76 14.25,2.7 20.9,-2.5 41.63,-6.51 61.95,-12.05 31.28,-7.36 62.54,-15.66 92,-28.7 12.74,-3.82 24,-10.93 36.3,-15.85 14.9,-8.38 30.6,-16.71 41.4,-30.35 -1.4,-7.42 -3.78,-14.58 -6.2,-21.7 -8.98,-29.48 -18.28,-58.89 -27.4,-88.35 -1.88,-6.08 -3.74,-12.15 -5.6,-18.25 -3.26,-2.44 -5.96,-6.9 -10.5,-6.6 -4.18501,-0.045 -8.36531,-0.0616 -12.55,-0.05 z m -29.1,5.7 c 0.52242,-0.0149 1.08501,0.008 1.65,0.1 0.74,3.74 1.46,7.49 2.6,11.15 0.22,3.3 0.4,6.58 0.5,9.9 -7.28,3 -14.22,6.68 -21.4,9.9 -2.5,0.88 -5.05,1.75 -7.55,2.65 -4.18,1.02 -8.29,2.25 -12.45,3.35 -5.2,1.64 -10.44,3.12 -15.6,4.8 -1.1,0.22 -3.3,0.68 -4.4,0.9 -3.2,1.04 -6.4,1.98 -9.6,3 -29.08,8.34 -58.62,15.24 -88.6,19.4 -7.78,1.54 -15.6,3.49 -23.6,3.05 -11.54,-0.68 -23.45,2.1 -34.65,-1.8 -1.52,-3.9 -3.11,-7.76 -4.75,-11.6 3.7,-7.68 11.36,-0.89 17.5,-1.75 18.8,-0.12 37.55,-2.93 55.75,-7.55 25.5,-5.28 50.91,-11.22 75.95,-18.4 1.98,-0.72 3.98,-1.4 6,-2.1 6.18,-1.74 12.36,-3.6 18.6,-5.2 12.16,-3.84 23.79,-9.13 35.45,-14.25 2.27499,-2.8875 4.94304,-5.44555 8.6,-5.55 z m 34.6,27.3 c -2.8,4.66 -6.03,9.24 -10.35,12.6 -6.44,3.06 -12.99,5.91 -19.35,9.15 -0.12,2.28 -0.25,4.55 -0.35,6.85 -1.26,0.7 -3.74,2.13 -5,2.85 -0.86,-0.66 -2.64,-1.99 -3.5,-2.65 -10.96,4.34 -22.31,7.6 -33.55,11.1 -0.08,1.18 -0.27,3.54 -0.35,4.7 -8.24,3.44 -16.2,7.57 -24.6,10.55 -4.06,-1.04 -3.57,-6.42 -5.05,-9.5 19.26,-8.2 38.95,-15.34 58.95,-21.5 12.4,-3.46 23.84,-10.16 33.1,-19.1 2.66,-2.86 6.37,-4.03 10.05,-5.05 z m -117.55,42.9 c 7.8,0.14 7.08,9.06 5.3,14.5 -1.46,-0.76 -4.34,-2.29 -5.8,-3.05 0.1,-3.82 0.26,-7.63 0.5,-11.45 z m -12.85,4 c 0.71488,-0.033 1.4625,0.02 2.2,0.1 0.54,6.56 -1.29,12.8 -4.45,18.5 -3.54,-1 -7.17,-1.75 -10.55,-3.25 -1.8,-3.2 -1.07,-7 -1.25,-10.5 4.58501,-1.82 9.04582,-4.61867 14.05,-4.85 z"
       id="path44"
       inkscape:connector-curvature="0" />
    <path
       style="fill:#f5e5c1"
       d="m 614.8,597.2 c -2.59794,0.0489 -5.08501,0.6125 -7.35,2.3 -8.5,4.92 -18.27,6.74 -27.35,10.2 -59.9,19.78 -119.64,40.1 -179.4,60.3 0.08,4.66 0.2,9.29 0.5,13.95 1.68,4 3.2,8.08 4.6,12.2 5.7,17.62 10.99,35.41 17.25,52.85 1.06,0.18 3.19,0.62 4.25,0.8 -2.48,-8.58 -5.07,-17.17 -7.55,-25.75 -4.3,-15.46 -9.11,-30.83 -12.85,-46.45 4.14,-3.96 9.96,-2.99 15.1,-2.45 22.3,2.96 44.61,5.91 66.95,8.55 4.62,3.02 5.12,9.58 6.8,14.5 l 0.6,1.6 c 10.84,39.54 22.36,78.88 33.3,118.4 2.52,8.66 4.83,17.4 7.55,26 -1.04,1.8 -2.05,3.61 -3.05,5.45 -12.86,-2.04 -25.26,-6.41 -38.1,-8.35 -7.82,2.48 -15.69,4.84 -23.35,7.8 -0.12,0.7 -0.41,2.05 -0.55,2.75 20.1,3.76 40.13,7.75 60.15,11.85 5.8,1.16 12.07,2.87 17.75,0.25 15.22,-6.14 30.39,-12.35 45.65,-18.35 19.94,-7.54 39.61,-15.83 59.55,-23.35 -6.72,-30.88 -13.78,-61.68 -20.7,-92.5 -2.14,-10.08 -5.24,-20.01 -5.8,-30.35 4.46,-4.96 8.67,-10.17 13.65,-14.65 5.32,-5.08 12.77,-6.58 19.45,-9.1 12.8,-4.3 25.52,-8.87 38.3,-13.25 7.28,-2.42 14.38,-5.53 21.9,-7.15 6,-1.34 11.28,2.33 15.8,5.75 4.96,-0.3 8.45,2.23 10.15,7.35 -3.52,-19.14 -5.74,-38.64 -12.8,-56.9 -4.02,-0.12 -5.66,-3.6 -7.2,-6.7 -14.36,-2.6 -29.03,-1.17 -43.45,-3.25 -18.88,-0.44 -37.67,-2.56 -56.55,-3 -4.2625,-0.025 -8.87011,-1.38144 -13.2,-1.3 z m 27.05,35.5 c 4.2,2.88 8.94,5.04 12.9,8.3 3.32,2.76 2.34,7.24 2.2,11 -5.5,-3.5 -11.75,-8.46 -18.65,-6.9 -27.02,8.52 -53.4,19.21 -80.7,26.75 -0.54,-1.46 -1.61,-4.39 -2.15,-5.85 0.42,-1.2 1.23,-3.62 1.65,-4.8 28.26,-9.46 56.27,-19.68 84.75,-28.5 z M 529.1,661 c 4.44,0.9 10.98,0.02 13,5.2 2.12,5.34 -1.98,13.46 -7.9,13.5 -6.26,-3.7 -8.66,-12.22 -5.1,-18.7 z"
       id="path54"
       inkscape:connector-curvature="0" />
    <path
       d="m 922.24,709.88 c 35.48,-13.4 71.98,-26.74 101.76,-50.98 l 0,55.18 c -10.8,7.58 -21.8,15.3 -34.56,19.24 -22.5,7.66 -43.94,18.7 -67.42,23.24 -43.16,9.8 -86.26,20.88 -130.46,24.86 -6.74,-12.5 -5.12,-26.78 -5.1,-40.4 18.82,-2.2 37.62,-4.9 56.06,-9.34 26.7,-6.8 53.64,-12.74 79.72,-21.8 z"
       id="path60"
       inkscape:connector-curvature="0"
       style="fill:#f5e5c1" />
    <path
       d="m 732.35,671 c -2.8,0.08 -5.6,0.18 -8.4,0.3 -21.14,8.04 -42.7,14.94 -64,22.5 -3.02,5.74 -8.78,11.14 -6.8,18.2 4.74,21.86 8.61,43.93 13.15,65.85 3.24,16.02 6.26,32.13 9.5,48.15 0.72,3.34 1.33,6.67 1.95,10.05 2.22,10.04 3.27,20.44 7.25,30 36.66,-12.02 71.96,-28.13 108.6,-40.25 -6.32,-18.18 -14.57,-35.63 -21.35,-53.65 -2.88,-12 0.5,-24.64 -2.1,-36.7 -3.88,-10.88 -11.34,-20.04 -18.8,-28.7 -8.64,-10.62 -11.8,-24.29 -19,-35.75 z m -3,22.05 c -0.02,0.94 -0.03,2.81 -0.05,3.75 -7.52,0.86 -15.67,1.45 -21.45,6.95 -10.84,6.64 -16.36,18.43 -22.3,29.15 -3.7,18.58 4.79,38.22 19.45,49.8 10,4.72 20.66,8.75 31.8,9.35 -12.88,4.38 -26.35,2.92 -39.45,0.7 -5.32,-3.32 -10.63,-6.69 -15.65,-10.45 -3.76,-11.08 -8.33,-21.86 -12.45,-32.8 -1.8,-4.5 0.38,-9.14 1.5,-13.5 2.16,-6.56 3.42,-13.76 8.1,-19.1 7.84,-9.02 13.83,-21.45 26.85,-23.55 7.88,0 15.75,-0.26 23.65,-0.3 z"
       id="path62"
       style="fill:#f5e5c1"
       inkscape:connector-curvature="0" />
    <path
       d="m 452,747.25 c -11.16,3.96 -22.35,7.9 -33.85,10.8 6.92,7.08 14.41,13.82 18.75,22.9 7.68,15.06 14.69,30.97 16.45,47.95 -2.06,1.88 -4.01,4.64 -7.25,3.8 -5.94,-6.26 -6.66,-15.41 -9.7,-23.15 -2.6,-6.26 -4.83,-12.67 -7.85,-18.75 -5.46,-10.4 -14.09,-18.58 -22.75,-26.3 -14.14,0.38 -26.8,7.65 -40.3,11.15 -3.82,13.3 -4.43,27.72 -0.65,41.1 3.88,14.82 8.64,29.94 18.6,41.9 4.68,5.42 8.37,14.15 16.65,14.15 19.22,-7.7 38.48,-15.37 57.7,-23.15 3.3,-1.34 6.6,-2.7 9.9,-4.1 6.5,-2.6 13.04,-5.12 19.7,-7.3 0,-10.74 0.46,-21.52 -0.5,-32.2 -3,-10.8 -7.58,-21.11 -10.8,-31.85 -2.6,-10.24 -11.33,-16.85 -17.55,-24.85 l -6.55,-2.1 z m -80.3,36.65 c 3.22,1.38 6.97,2.4 8.95,5.6 8.14,11.62 12.16,25.51 15.1,39.25 3,10.22 5.52,21.54 0.8,31.7 -3.1,-1.14 -6.89,-1.45 -8.65,-4.65 -11.86,-15.46 -18.08,-34.59 -20.4,-53.75 -1,-6.4 2.14,-12.33 4.2,-18.15 z"
       id="path68"
       style="fill:#f5e5c1"
       inkscape:connector-curvature="0" />
    <path
       style="fill:#f5e5c1"
       d="m 925.75,762.7 c -31.74,5.9 -63.48,11.98 -95,18.9 0.04,0.74 0.11,2.21 0.15,2.95 2.96,1.62 5.9,3.23 8.9,4.85 2.54,-2.96 4.36,-6.96 8.1,-8.6 7.1,-1.02 13.01,3.82 18.85,7 4.12,2.16 7.15,5.68 8.85,10 -0.88,1.34 -2.62,4.04 -3.5,5.4 -7.06,1.24 -13.08,-2.36 -18.4,-6.5 -11.06,19.48 -21.62,39.26 -32.4,58.9 -0.1,0.68 -0.27,2.02 -0.35,2.7 5.62,1.98 11.29,3.99 16.95,5.95 4.64,2.06 9.16,4.18 13.8,6.3 -6.56,2.98 -13.35,1 -20.05,0.1 -6.88,4.42 -10.23,11.79 -12.45,19.35 -1.24,13.62 3.26,28.18 13.9,37.2 6.42,-2.04 12.97,-3.76 19.35,-5.9 4.4,-12.44 7.31,-26.04 3.15,-39 -3.84,-10.42 5,-18.93 8.2,-28.15 6.46,-17.3 11.75,-34.97 17.95,-52.35 9.66,-2.64 19.06,-6.09 28.6,-9.15 5.16,-9.96 10.44,-19.89 15.4,-29.95 z M 842.9,880.9 c 9.76,6.6 9.7,19.61 7.6,29.95 -2.24,4.8 -9.09,8.37 -13.55,4.25 -9.74,-8.36 -10.93,-24.86 -1.55,-34 1.88,-0.06 5.62,-0.16 7.5,-0.2 z"
       id="path70"
       inkscape:connector-curvature="0" />
    <path
       d="m 690.32,881.8 c 31.98,-12.18 63.98,-24.3 95.86,-36.74 7.46,4.04 16.06,6.4 22.2,12.54 3.24,3.52 8.56,3.36 12.1,6.5 1.94,0.58 3.92,1.16 5.88,1.72 0.28,0.56 0.8,1.66 1.06,2.22 -6.98,4.54 -12.26,11.7 -13.4,20.08 -1,8.28 -2.62,17.72 2.24,25.14 2.56,4.08 5.34,8 7.86,12.12 -8.82,-1.92 -18.16,-3.94 -24.62,-10.76 -10.36,-10.46 -24.36,-15.52 -36.84,-22.8 -4.14,-2.2 -8.18,-4.68 -12.68,-6.04 -5.3,0.18 -10.6,1.12 -15.9,0.54 -13.5,-1.4 -27.08,-1.04 -40.62,-1.1 -1.04,-1.14 -2.1,-2.28 -3.14,-3.42 z"
       id="path76"
       inkscape:connector-curvature="0"
       style="fill:#f5e5c1" />
    <path
       d="m 638.48,906.42 c 27.74,4.86 59.44,2.98 81.92,-15.82 0.68,19.82 9.18,38.22 13.06,57.48 -19.32,13.38 -41.64,24.82 -65.62,25 -4.1,0.6 -7.3,-2.32 -8.32,-6.06 -7.24,-20.12 -13.82,-40.48 -21.04,-60.6 z"
       id="path80"
       inkscape:connector-curvature="0"
       style="fill:#f5e5c1" />
    <path
       d="m 745.7,922.54 c 5.68,1 11.36,2.2 17.08,3 0.78,0.66 2.36,1.98 3.14,2.64 4.94,9.56 10.72,18.74 14.84,28.7 2.26,6.54 -3.52,12.06 -7.42,16.56 -12.5,11.58 -26.6,22.34 -43.32,26.86 -10.08,1.34 -18.92,6.7 -28.78,8.82 -11,2.54 -21.94,5.26 -33.04,7.36 -16.72,0.26 -33.6,1.96 -50.2,-0.38 -7.44,-0.5 -11.58,-7.68 -12.64,-14.3 -1.52,-9.62 -4.64,-20.12 -0.02,-29.38 5.66,-11.9 17.96,-18.06 28.98,-24.08 3.42,9.88 7.16,19.68 9.56,29.88 0.9,5.02 4.08,9.38 8.4,12.04 18.94,2.22 38.46,-0.28 55.88,-8.22 16.86,-6.32 33.34,-15.24 44.98,-29.32 -0.16,-1.66 -0.52,-4.96 -0.68,-6.62 -1.66,-3.98 -3.12,-8.02 -4.54,-12.06 -0.74,-3.84 -1.46,-7.68 -2.22,-11.5 z"
       id="path82"
       inkscape:connector-curvature="0"
       style="fill:#f5e5c1" />
    <path
       d="m 807.5,960.66 c 0.8,0.02 2.42,0.02 3.22,0.04 27.14,18.84 55.92,35.2 83.84,52.88 3.84,2.36 5.42,6.78 7.78,10.42 L 755,1024 c -4.88,-1.46 -8.94,-4.62 -12.86,-7.74 12.7,-7.9 26.28,-14.62 37.64,-24.5 10.46,-9.18 19.5,-19.88 27.72,-31.1 z"
       id="path84"
       inkscape:connector-curvature="0"
       style="fill:#f5e5c1" />
  </g>
</svg>
