<?xml version="1.0" encoding="UTF-8" standalone="no"?>
<svg
   xmlns:dc="http://purl.org/dc/elements/1.1/"
   xmlns:cc="http://creativecommons.org/ns#"
   xmlns:rdf="http://www.w3.org/1999/02/22-rdf-syntax-ns#"
   xmlns:svg="http://www.w3.org/2000/svg"
   xmlns="http://www.w3.org/2000/svg"
   xmlns:sodipodi="http://sodipodi.sourceforge.net/DTD/sodipodi-0.dtd"
   xmlns:inkscape="http://www.inkscape.org/namespaces/inkscape"
   width="1280"
   height="1280"
   viewBox="0 0 1024 1024"
   version="1.1"
   id="svg2"
   inkscape:version="0.48.1 "
   sodipodi:docname="tank_damage.svg">
  <metadata
     id="metadata104">
    <rdf:RDF>
      <cc:Work
         rdf:about="">
        <dc:format>image/svg+xml</dc:format>
        <dc:type
           rdf:resource="http://purl.org/dc/dcmitype/StillImage" />
      </cc:Work>
    </rdf:RDF>
  </metadata>
  <defs
     id="defs102" />
  <sodipodi:namedview
     pagecolor="#ffffff"
     bordercolor="#666666"
     borderopacity="1"
     objecttolerance="10"
     gridtolerance="10"
     guidetolerance="10"
     inkscape:pageopacity="0"
     inkscape:pageshadow="2"
     inkscape:window-width="1920"
     inkscape:window-height="1018"
     id="namedview100"
     showgrid="false"
     inkscape:object-paths="false"
     fit-margin-top="0"
     fit-margin-left="0"
     fit-margin-right="0"
     fit-margin-bottom="0"
     inkscape:zoom="0.48125"
     inkscape:cx="434.90079"
     inkscape:cy="535.46255"
     inkscape:window-x="-8"
     inkscape:window-y="-8"
     inkscape:window-maximized="1"
     inkscape:current-layer="svg2" />
  <path
     d="m 0,0 1024,0 0,1024 L 0,1024 0,0 z"
     id="path4"
     style="fill:#3e3e3e"
     inkscape:connector-curvature="0" />
  <path
     style="fill:#f5e5c1"
     d="m 525.95,35.05 c -128.86,1.12 -257.69,2.6 -386.55,4.2 -6.16,10.28 -15.09,20.09 -15.45,32.65 -1.54,24.66 1.6,49.27 1.6,73.95 -0.42,7.3 2.85,15.64 -1.55,22.2 -7.56,6.34 -17.24,9.47 -25.7,14.45 -6.92,4.16 -14.85,5.84 -22.75,7 -5.74,14.28 -10.96,28.79 -17,42.95 -5.72,12.14 3.58,24.87 1.5,37.35 -1.26,6.16 -4.65,11.95 -4.55,18.35 2.38,10.14 8.99,18.52 13.15,27.9 3.14,6.44 -2.49,12.42 -2.35,18.8 3.94,12.96 13.35,23.92 15.15,37.6 -2.74,2.48 -5.51,5.4 -9.45,5.6 -11.04,1.4 -22.21,1.46 -33.25,2.9 -0.28,14.78 -0.99,29.66 0.05,44.4 10.62,6.26 22.12,10.9 32.9,16.9 2.86,1.66 6.08,4.01 5.8,7.75 0.64,8.1 -9.56,9.18 -15,12.1 1.64,10.32 4.61,20.36 7.15,30.5 3.12,1.42 6.74,2.19 9.2,4.75 1.36,3.44 0.76,7.23 0.1,10.75 -2.98,13.48 -7.2,26.64 -9.7,40.2 3.74,8.54 7.77,17.37 13.65,24.65 12.32,7.8 25.07,15 37.75,22.2 8.5,5.12 20.3,-5.33 27.6,2.85 3.32,7.54 4.47,15.84 5.05,24 0.62,8.92 3.25,18.06 0.65,26.9 -2.96,10.3 -6.4,20.47 -9.5,30.75 -2.26,7.22 -5.6,14.84 -3.1,22.5 4.74,18.08 9.75,36.1 14.35,54.2 1.36,9.94 11.08,15.03 18.6,20.05 11.2,1.36 22.54,0.36 33.8,1.2 25.2,2.22 50.58,0.46 75.8,2.8 22.7,0.84 45.46,0.14 68.1,2.1 24.62,0.4 49.24,0.7 73.8,2.2 -1.38,-5.5 -3.24,-10.88 -5.2,-16.2 -11.54,0.26 -22.98,-1.16 -34.5,-1 -46.66,0.02 -93.34,-1.05 -140,-1.15 -21.9,-1.34 -43.88,-0.68 -65.8,-1.5 -3.86,0.12 -5.23,-4.21 -6.55,-7.05 -5.64,-15.08 -10.99,-30.26 -16.75,-45.3 33.04,0.34 66.06,0.4 99.1,0.9 21.34,-0.16 42.66,1.58 64,1.1 28.76,-0.42 57.46,2 86.2,0.8 -1.8,-6.52 -3.7,-12.97 -5.9,-19.35 -0.66,1.54 -1.31,3.06 -1.95,4.6 -77.5,0.76 -155,0.2 -232.5,0.7 -4.26,-0.2 -9.46,0.75 -12.4,-3.15 -1.98,-4.86 0.53,-9.82 2.05,-14.4 4.36,-11.14 7.96,-22.59 12.5,-33.65 1.96,-5.66 8.62,-6.61 13.8,-6.65 17.34,-0.34 34.73,-0.28 52.05,-0.9 27.32,-2.44 54.8,-0.36 82.1,-2.9 23.72,-0.46 47.46,-0.77 71.2,-1.25 0,-1.92 0.03,-3.83 0.05,-5.75 -23.2,-0.42 -46.4,0.65 -69.6,1.05 -49.92,0.08 -99.83,0.81 -149.75,1.75 -3.64,-20.34 -6.75,-40.88 -6.95,-61.6 -2.18,-43.3 -4.97,-86.48 -6.75,-129.8 -0.64,-7.54 0.96,-14.98 3.2,-22.1 16.2,-0.58 32.42,-0.4 48.6,0.4 53.74,0.28 107.51,0.41 161.25,0.65 0.76,-3.88 1.52,-7.74 2.3,-11.6 -72.32,-0.16 -144.63,-0.47 -216.95,-0.55 0.04,-7.88 0.03,-15.72 0.15,-23.6 3.5,-2.76 6.95,-5.54 10.35,-8.4 -4.12,-52.24 -8.25,-104.52 -10.35,-156.9 -1.42,-7.8 -2.35,-15.66 -3.55,-23.5 33.58,-1.28 67.2,-0.54 100.8,-0.8 78.04,-0.14 156.06,-0.38 234.1,-0.7 11.7,-0.18 23.9,1.09 34.9,-3.85 -3.82,55.9 -6.91,111.83 -10.55,167.75 4.08,-1.22 8.23,-2.36 12.35,-3.5 -1.36,-8.7 6.51,-14.88 5.55,-23.4 0.28,-33.3 2.36,-66.57 2.9,-99.85 0.68,-6.3 2.44,-12.39 4.2,-18.45 7.7,7.14 11.33,17.19 17.25,25.65 5.18,7.98 11.86,14.82 18.4,21.7 6.4,5.68 4.64,15.31 3.8,22.85 -3.06,6.36 -10.42,9.16 -14.4,14.8 -1.58,4.32 -2.21,8.94 -2.85,13.5 -1.04,6.26 3.56,11.62 3.7,17.8 0.1,4.46 -0.32,8.92 -0.5,13.4 5.54,-1.9 11,-4 16.3,-6.5 0.56,-3.88 1.13,-7.74 1.65,-11.6 6.22,2.32 14.34,1.16 19.1,6.4 10.18,-4.26 21.23,-5.7 31.45,-9.7 1.74,-7.02 1.34,-14.39 1,-21.55 -1.86,-5.8 -8.11,-9.69 -8.15,-16.15 -0.12,-6.88 0.83,-14.96 6.75,-19.4 7.9,-6.1 18.02,-8.04 27,-12 11.18,-3.98 19.38,-13.38 24.7,-23.7 7.7,-10.9 10.61,-24.21 12.75,-37.15 0.08,-13.34 -0.01,-27.41 -6.55,-39.45 -4.3,-8.04 -6.26,-17.91 -13.8,-23.75 -9.32,-8.74 -21.18,-13.89 -32.7,-18.95 -13.1,-3.7 -27.11,-4.53 -40.45,-1.65 -11.72,2.44 -23.95,3.93 -34.75,9.35 -7.56,3.66 -11.6,11.37 -17.2,17.25 -1.88,-3.32 -3.9,-6.79 -3.6,-10.75 0.02,-18.68 0.77,-37.39 1.15,-56.05 -0.14,-3.82 0.39,-7.97 -1.75,-11.35 -4.88,-8.12 -10.79,-15.53 -15.85,-23.55 z m -7.75,17.6 c 2.76,4.96 5.54,9.89 8.5,14.75 -11.32,-2.88 -23.03,-1.45 -34.55,-1.65 -12.1,-0.18 -24.15,0.88 -36.25,0.6 -103.54,0.22 -207.09,-0.07 -310.65,0.85 4.3,-3.72 8.37,-9.38 14.75,-8.8 47.28,-2.56 94.72,-0.24 142,-2.8 72.08,-0.16 144.12,-2.19 216.2,-2.95 z m -8.8,17.8 c 2.4875,0.0024 4.98,0.16 7.4,0.75 9.74,8.84 14.68,21.58 15.6,34.5 0.64,22.2 -0.76,44.42 0.1,66.6 -12.02,3.52 -23.68,9.84 -36.5,9.3 -80.7,-0.06 -161.35,0.05 -242.05,0.15 -33.96,0.78 -67.92,0.54 -101.9,0.7 -7.02,1.24 -10.37,-6.73 -10.75,-12.45 -0.5,-11.34 -1.9,-22.56 -2.3,-33.9 0.2,-12.4 -3.34,-24.81 -1.5,-37.15 2.96,-8.16 3.41,-18.88 11.95,-23.5 4.36,-2.54 9.28,-4.51 14.4,-4.55 112.7,-0.2 225.4,-0.16 338.1,-0.4 2.47,0.06 4.9625,-0.05248 7.45,-0.05 z m 105.05,47.1 c 12.94686,-0.002 25.84875,3.5575 35.9,12 7.5,6.52 16.65,11.66 21.35,20.8 9.8,15.28 11.77,34.25 8.75,51.85 -4.7,22.36 -21.16,41.8 -42.4,50.2 -23.06,9.38 -50.99,5.64 -70.45,-10 -23.38,-17.96 -33.26,-51.98 -22,-79.4 8.72,-8.62 14.26,-19.91 23.1,-28.35 9.1,-5.52 17.91,-12.32 28.35,-15 5.6375,-1.3625 11.51506,-2.09932 17.4,-2.1 z M 116.7,183 c 4.11,0.0318 7.735,4.59 6.4,9.15 -0.94,7.9 -13.28,9.845 -16.6,2.425 -3.74,-4.66 2.42,-8.225 6.1,-9.925 1.315,-1.16 2.73,-1.66062 4.1,-1.65 z m 21.65,14.925 c 0.22,3.94 0.455,7.86 0.675,11.8 -11.2,3.28 -23,5.01 -33.7,9.75 -0.44,0.5 -1.335,1.495 -1.775,1.975 -5.74,17.58 -5.04,36.28 -6.1,54.5 2.7,14.16 6.755,28.08 10.475,42 6.98,17.92 10.785,36.855 17.025,54.975 1.52,5.34 7.205,6.705 11.825,8.125 5.16,8.72 3.59,18.905 4.25,28.525 3.4,2.62 4.02,6.495 3.4,10.475 -6.06,-8.22 -8.135,-18.415 -13.175,-27.175 -4.34,-8.02 -7.575,-16.58 -11.275,-24.9 -3.32,-7.74 -9.295,-14.13 -11.575,-22.35 -2.78,-9.24 -6.905,-18.08 -8.725,-27.6 -0.82,-6.64 -6.165,-11.595 -6.725,-18.275 -3.84,-24.6 -0.5,-49.525 0.1,-74.225 4.5,-4.56 8.64,-9.475 12.4,-14.675 2.98,-0.02 5.975,-0.005 8.975,-0.025 7.38,-5.34 15.765,-8.96 23.925,-12.9 z m -50.7,4.2 c 4.92,2.6 10.365,8.2 6.125,13.8 -3,5.08 -9.565,3.41 -13.625,0.75 2.16,-5 4.62,-9.91 7.5,-14.55 z m 44.9,28.275 c 0.70437,0.003 1.43,0.06 2.15,0.15 2.78,3.68 8.26,6.24 8.2,11.4 0.46,12.38 0.25,24.8 0.65,37.2 1.78,22.26 0.72,44.6 1.5,66.9 -0.26,4.04 1.26,9.69 -3.2,11.95 -4.16,3.1 -9.58,-0.99 -10.2,-5.55 -6,-24.86 -12.68,-49.57 -18.6,-74.45 -0.76,-14.36 3.75,-28.49 6.15,-42.55 3.92,-3.04501 8.41937,-5.07133 13.35,-5.05 z m -58.8,0.15 c 2.9,1.44 6.65,2.285 8.15,5.525 2.46,3.68 -0.17,8.38 -3.35,10.7 -3.1,0.66 -6.285,0.26 -9.425,0.2 -1.74,-6.02 1.965,-11.325 4.625,-16.425 z m 511.5,27.95 c 9.46,0.18 18.89,1.08 28.25,2.5 -3.28,12.4 -5.14,25.08 -8.3,37.5 -5.5,-0.94 -11.04,-1.54 -16.6,-1.8 -2.38,-8.82 -1.73,-17.98 -2.05,-27 l -1.1,-1.4 c -0.08,-3.26 -0.14,-6.54 -0.2,-9.8 z m -509.925,4.275 c 4.7168,-0.11512 10.19,1.655 10.225,7.15 1.22,6.46 -6.1,10.845 -11.7,8.425 -3.48,-4.32 -0.36,-10.36 -0.5,-15.4 0.625,-0.0875 1.301172,-0.15855 1.975,-0.175 z m 3.4,33.025 c 3.466992,-0.17305 6.737496,1.1875 8.225,5.075 2.38,6.38 -3.74,11.13 -9.6,11.05 -1.78,-4.72 -3.45,-9.495 -4.75,-14.375 1.89,-0.9975 4.044805,-1.64617 6.125,-1.75 z m 497.025,4.7 c 13.4,0.02 26.58,3.76 40,2.3 -1.42,6.92 -1.63,14.24 -4.05,20.9 -5.26,5.2 -13.46,2.79 -20,2.35 -7.12,-0.4 -12.46,-5.66 -17,-10.6 -0.1,-5 0.67,-9.97 1.05,-14.95 z m -489.3,28.05 c 4.2416,-0.2039 8.737504,2.5125 8.65,7.25 0.94,4.88 -4.1,7.095 -7,9.875 -4.24,-2.8 -11.87,-7.525 -7.95,-13.425 1.305,-2.4075 3.75504,-3.57766 6.3,-3.7 z m 13.3,36.025 c 3.56,0.28 8.02,-0.185 9.9,3.675 3.56,4.6 -0.39,10.95 -5.35,12.45 -3.52,0.82 -5.795,-1.945 -7.975,-4.125 1.22,-3.98 2.365,-7.98 3.425,-12 z m -41.775,22.3 c 0.565518,-0.0373 1.18375,0.0462 1.9,0.275 7.88,0.72 15.345,3.72 22.625,6.7 5.48,2.04 8.03,7.81 12.75,10.95 5.4,3.66 11.395,6.375 17.475,8.775 -1.68,4.7 -2.275,9.665 -2.375,14.625 -7.34,-6.2 -15.16,-11.85 -22.6,-17.95 -4.3,-3.26 -5.02,-9.38 -9.1,-12.7 -8.06,-3.04 -16.71,-4 -25.15,-5.6 0.86125,-2.5025 2.024424,-4.91358 4.475,-5.075 z m 56.975,2.4 c 4.39594,-0.0394 9.04,4.185 8.275,8.775 0.2,4.48 -4.585,8.18 -8.925,7.3 -7.24,0 -9.89,-10.995 -3.45,-14.475 1.2,-1.11 2.63469,-1.58687 4.1,-1.6 z m -57.725,19.1 c 6.442461,-0.13043 13.5525,5.11 11.575,12.075 -4.04,10.18 -22.265,3.935 -19.325,-6.525 1.18,-2.04 2.495,-4.75 5.075,-5.15 0.865,-0.2475 1.754649,-0.38137 2.675,-0.4 z m 73.075,8.2 c 2.92,2.6 7.78,4.735 7,9.475 0.44,7.7 -11.64,10.44 -14.9,3.7 -4.36,-6.04 2.42,-11.715 7.9,-13.175 z m -44.925,8.3 c 3.02,0 6.055,0.03 9.075,0.05 3.18,4.28 8.455,9.065 5.675,14.925 -1.08,3.84 -4.935,5.4 -8.075,7.2 -2.14,-0.98 -4.26,-1.955 -6.4,-2.875 -2.94,-6.04 -4.995,-13.56 -0.275,-19.3 z m 43.075,31.8 c 4.79687,-0.0138 9.605,0.01 14.4,0.1 0.34,8.8 0.76,17.605 0.9,26.425 -18.74,0.52 -37.465,1.97 -56.225,1.45 -0.9,-9.12 -1.05,-18.3 -2.25,-27.4 14.385,-0.12 28.78438,-0.53375 43.175,-0.575 z m 12.7,38.125 c 0.94,0.08 2.835,0.19 3.775,0.25 0.18,3.94 0.325,7.89 0.525,11.85 -2.48,0.82 -4.945,1.66 -7.425,2.5 0.9,-4.9 1.985,-9.76 3.125,-14.6 z m -18.4,0.35 c 2.22,0 6.66,0.005 8.9,0.025 -1.48,6.28 -4.095,12.455 -4.275,18.975 3,8.26 8.535,16.235 5.175,25.375 -6.18,-0.38 -12.31,-1.335 -18.35,-2.675 2.74,-6.08 6.89,-11.895 7.05,-18.775 0.3,-7.66 0.9,-15.285 1.5,-22.925 z m -10.375,6.425 c 0.22,5.5 0.74,11.095 -0.2,16.575 -2.32,7.6 -6.52,14.5 -9.4,21.9 0.72,1.16 2.15,3.495 2.85,4.675 9.8,1.82 19.55,4.18 29.55,4.6 -0.18,4.78 -5.84,7.075 -8.2,10.875 -2.8,-2.84 -5.135,-6.13 -8.375,-8.45 -6.26,-2.96 -12.97,-4.76 -19.35,-7.4 2.24,-5.04 1.22,-10.5 1.5,-15.8 1.02,-3.86 3.3,-7.23 4.9,-10.85 2.6,-5.26 2.285,-11.805 6.725,-16.125 z m -19.55,7.125 c 3.464296,-0.17073 6.728752,1.11875 8.225,5 2.3,8.54 -8.22,14.515 -15.4,11.175 -4.34,-3.48 -0.875,-9.175 -0.575,-13.675 2.231248,-1.3475 5.055544,-2.36721 7.75,-2.5 z m 49.95,13.375 c 1.68,1.52 4.98,2.425 4,5.525 0.46,8.86 0.38,17.765 0.8,26.625 -3.52,-2.08 -7.165,-3.94 -10.825,-5.8 6.64,-7 7.185,-17.29 6.025,-26.35 z m -57.8,20.65 c 4.706248,-0.23625 9.665,4.055 8.375,9.275 0.1,6.48 -10.07,9.79 -13.45,4.05 -2.48,-3.24 -2.6,-8.73 0.7,-11.45 1.27,-1.22 2.806248,-1.79625 4.375,-1.875 z m 24.075,15.45 c 4.27125,0.0947 8.44,3.205 8.425,7.825 1.06,6.7 -7.725,11.865 -13.025,7.625 -5.38,-3 -4.95,-11.715 0.45,-14.475 1.295,-0.695 2.72625,-1.00656 4.15,-0.975 z m 34.025,7.1 c 1.41038,-4.2e-4 2.83625,0.4775 4.175,1.55 3.24,1.92 3.64,5.865 4.2,9.225 -5.8,0.32 -11.33,2.02 -16.85,3.6 -3.39625,-5.63875 2.36335,-14.37316 8.475,-14.375 z"
     id="path6"
     inkscape:connector-curvature="0" />
  <path
     d="m 467.15,102.9 c -1.72187,0.0316 -3.4,0.105 -5.05,0.05 -88.76,0.1 -177.54,-0.03 -266.3,0.05 -9.46,-0.52 -14,9.98 -18.5,16.6 1.84,13.46 1.74,27.01 2.3,40.55 2.2,5.18 5.83,9.6 8.75,14.4 8.46,1.5 17.09,1.13 25.65,1.15 84.64,1.32 169.34,0.65 254,1.15 11,1.5 18.45,-8.63 24.15,-16.45 1.18,-14.24 0.85,-28.58 2.35,-42.8 -2.52,-4.96 -8.56,-7.55 -12.8,-11.15 -4.08,-3.57 -9.38437,-3.64469 -14.55,-3.55 z m -9.6,3.95 c 4.5475,-0.055 9.12,-0.06 13.65,0.35 5.36,2.38 9.59,6.7 14.25,10.2 -0.3,14.56 -1.37,29.08 -2.35,43.6 -4,4.02 -8.05,8 -12.35,11.7 -63.58,-0.78 -127.19,0.48 -190.75,-1.1 -28.12,-0.06 -56.28,0.17 -84.4,-0.15 -3.26,-5.5 -8.73,-10.41 -8.75,-17.25 -0.38,-7.06 -0.15,-14.14 -0.05,-21.2 l -1.7,0 c 0.06,-4.32 0.08,-8.6 0.1,-12.9 3.56,-4.32 7.11,-8.65 10.55,-13.05 82.72,-0.28 165.43,-0.07 248.15,-0.15 4.54,0.11 9.1025,0.005 13.65,-0.05 z"
     id="path12"
     style="fill:#f5e5c1"
     inkscape:connector-curvature="0" />
  <path
     d="m 188.26,126.02 c 5.24,-4.84 9.7,-12.24 17.68,-12.38 14.7,-0.2 29.46,-0.38 44.14,0.4 25.86,2.4 51.9,-0.22 77.72,2.54 18.06,0.6 36.18,-0.18 54.26,0.76 24.72,2.48 49.64,0.02 74.38,2.36 7.24,0.64 12.66,5.86 18.14,10.06 -0.08,6.84 -0.02,13.7 0.04,20.56 -4.9,6.24 -8.96,15.98 -18.54,14.9 -82.74,0.04 -165.5,0.02 -248.24,0.02 -7.04,0.22 -12.98,-4.12 -19.26,-6.66 1.18,-10.84 -0.2,-21.7 -0.32,-32.56 z"
     id="path16"
     inkscape:connector-curvature="0"
     style="fill:#f5e5c1" />
  <path
     d="m 601.06,135.58 c 16,-3.46 33.48,0.78 45.62,11.9 16.94,14.72 21.82,40.88 12,60.92 -8.5,18.26 -28.54,30.6 -48.74,28.98 -25.92,-0.38 -48.56,-23.7 -49,-49.46 -1.58,-24.14 16.52,-47.46 40.12,-52.34 z"
     id="path20"
     inkscape:connector-curvature="0"
     style="fill:#f5e5c1" />
  <path
     d="m 286.04,219.68 c 37.72,-12.18 80.38,-9.18 115.66,9.08 13.32,6.52 24.82,15.98 36.1,25.46 -0.86,2.16 -1.7,4.42 -3.46,6.04 -34.76,36.56 -69.78,72.9 -104.46,109.52 -2.66,2.5 -4.32,5.78 -5.68,9.12 -46.82,0.04 -93.64,0.22 -140.46,-0.08 -2.84,-32.66 3.9,-66.32 21.04,-94.44 18.4,-30.16 47.52,-53.86 81.26,-64.7 z"
     id="path28"
     inkscape:connector-curvature="0"
     style="fill:#f5e5c1" />
  <path
     d="m 340.82,379.04 c 36.1,-37.34 71.88,-75 107.62,-112.66 23.74,28.48 35.98,66 34.22,102.98 -12.3,2.92 -23.7,9.72 -36.62,9.58 -35.06,0.12 -70.14,-0.1 -105.22,0.1 z"
     id="path38"
     inkscape:connector-curvature="0"
     style="fill:#f5e5c1" />
  <path
     style="fill:#f5722c"
     d="m 683.275,326.175 c -5.5,3.52 -11.93,4.915 -18.15,6.675 -14.24,3.84 -27.915,9.44 -42.075,13.5 -16.68,3.86 -32.39,10.9 -48.95,15.1 -15.08,3.84 -29.55,9.685 -44.45,14.125 -22.2,5.7 -43.605,13.92 -65.425,20.8 -25.38,6.7 -49.9,16.185 -75.3,22.825 -1.26,4.84 -2.595,9.71 -2.575,14.75 -0.06,18.84 0.165,37.66 -0.075,56.5 l 3.8,31.8 c 2.52,25.76 6.655,51.315 11.275,76.775 3.42,31.44 13.35,61.65 19.05,92.65 4.64,17.66 9.795,35.195 15.075,52.675 2.32,12.92 6.97,25.235 10.75,37.775 7.34,19.08 11.175,39.385 19.475,58.125 2.02,4.5 3.275,9.265 4.075,14.125 10.34,7.6 17.27,18.675 27.35,26.575 11.88,12.26 25.965,21.92 39.125,32.7 5.68,4.68 12.86,6.905 18.9,11.025 34.56,21.6 70.435,41.06 107.075,58.9 7.66,3.46 14.895,9.275 23.775,8.575 5.58,0.44 10.77,-1.755 15.55,-4.375 34.44,-17.76 69.66,-34.46 101.59996,-56.6 31.46008,-21.66 63.62008,-42.49 92.80008,-67.25 3.74,-2.92 4.83504,-7.69 6.27496,-11.95 3.72008,-12.48 8.88504,-24.44 12.62504,-36.9 6.86,-24.16 16.64504,-47.425 22.32504,-71.925 4.62,-18.34 10.48,-36.355 15.2,-54.675 4.38,-27.98 14.15496,-54.885 17.07496,-83.125 6.32264,-34.20072 11.43208,-76.33561 16.25,-116.125 -0.0576,-20.04671 2.35568,-47.06214 -1.95,-69.575 -10.46,-4.86 -21.99,-6.4 -32.75,-10.4 -14.12,-4.96 -28.45504,-9.235 -42.87504,-13.175 -20.83992,-6.54 -41.36496,-14.225 -62.52496,-19.725 -16.32,-4.9 -32.23,-11.18 -48.75004,-15.4 -13.9,-3.54 -27.14,-9.175 -41,-12.875 -18.08,-4.46 -35.28,-11.85 -53.3,-16.55 -6.5,-1.6 -12.515,-4.97 -19.275,-5.35 z m 2.775,19.375 c 50.44,17 101.57,31.82 152.25,48.1 42.34,13.6 85.11,25.925 127.25,40.125 2.82,17.28 1.15496,34.855 1.57496,52.275 1.14,30.72 -5.06496,60.99 -7.82496,91.45 -1.24,12.04 -4.88504,23.685 -6.22496,35.725 -1.36008,13.54 -6.09,26.445 -7.85008,39.925 -9.5,40.2 -19.77992,80.24 -32.1,119.7 -5.01992,13.5 -7.95496,27.66 -13.17496,41.1 -5.12,12.72 -8.86,25.97 -14.1,38.65 -6.62,3.52 -12.18,8.595 -18,13.275 -41.6,32.38 -86.275,60.785 -133.375,84.525 -15.44,9.6 -32.825,15.415 -48.425,24.675 -19.38,-10.5 -39.96,-18.705 -59,-29.925 -27.84,-14 -55.09,-29.4 -80.15,-48 -16.42,-10.54 -32.675,-21.605 -46.575,-35.425 -6.26,-6.5 -15.095,-10.01 -20.875,-16.95 -4.78,-11.82 -5.425,-24.845 -9.725,-36.825 -21.18,-64.16 -39.04,-129.455 -51.5,-195.875 -1.52,-15.58 -5.78,-30.74 -7.4,-46.3 -1.5,-23.94 -6.495,-47.64 -5.875,-71.7 0.08,-8.14 -2.37,-16.205 -0.95,-24.325 1.78,-11.92 -0.035,-24.09 2.425,-35.95 64.72,-20.44 129.53,-40.64 194.25,-61 28.34,-9.42 57.195,-17.35 85.375,-27.25 z"
     id="path44"
     inkscape:connector-curvature="0" />
  <path
     style="fill:#f5722c"
     d="m 684.625,368.125 c -1.34171,0.054 -2.69625,0.25625 -4.05,0.65 -84.78,26.72 -169.595,53.375 -254.475,79.875 -3.92,25.04 -0.735,50.29 0.925,75.35 -0.4,21.64 5.665,42.61 7.525,64.05 1.22,11.06 4.575,21.73 6.075,32.75 1.5,13.8 6.59,26.86 8.45,40.6 6.34,24.84 11.98,49.87 19.6,74.35 8.58,31.3 19.605,61.855 28.725,92.975 2.56,5.58 6.75,10.355 11.45,14.275 29.9,23.08 59.365,47.125 92.625,65.325 27.82,15.24 55.295,31.35 84.575,43.65 33.72,-16.44 67.04,-33.74 99.6,-52.4 16.4,-8.4 31.33,-19.265 47.35,-28.325 13.54,-7.66 22.39,-21.1 35.25,-29.7 13.72,-35.84 25.25536,-72.465 35.87496,-109.325 9.5804,-32.06 16.45504,-64.815 24.47504,-97.275 2.16,-19.88 9.10536,-38.945 10.62496,-58.925 0.76016,-11.42 4.06504,-22.52 4.12504,-34 1.7,-31.12 7.21,-62.425 2.55,-93.525 -81.34,-25.8 -162.81,-50.87 -244.25,-76.35 -5.50875,-1.7225 -11.21093,-4.25904 -17.025,-4.025 z m -0.9,22.2 c 3.19599,0.0551 6.34687,0.87 8.775,3.075 7.42,5.58 6.585,18.59 -1.375,23.35 -8.4,5.36 -21.22,-0.44 -22,-10.6 -1.5,-6.76 3.285,-13.395 9.625,-15.375 1.16,-0.21 2.38344,-0.36875 3.6,-0.425 0.45621,-0.0211 0.91843,-0.0329 1.375,-0.025 z M 460.05,456.15 c 10.85631,-0.33009 21.16125,8.5075 21.85,19.6 1.34,14.2 -14.915,26.955 -28.275,20.975 -12.26,-3.26 -17.665,-19.345 -11.125,-29.825 2.64,-5.6 8.335,-9.03 14.175,-10.35 1.125,-0.23812 2.25194,-0.36585 3.375,-0.4 z m 451.25,0.4 c 0.28152,-0.007 0.56808,-0.006 0.85,0 10.89912,0.24155 21.43512,10.16062 20.27496,21.525 0.52032,12.96 -13.6,23.375 -25.9,19.475 -12.9,-2.74 -19.06496,-18.91 -13.02496,-30.15 2.8,-5.98 9.25472,-8.88 15.27504,-10.6 0.84208,-0.14344 1.6804,-0.22803 2.52496,-0.25 z M 529.75,788.275 c 12.98658,0.034 24.95062,12.425 23.575,25.6 -0.5,13.86 -17.91,23.425 -29.95,16.425 -12.26,-5.08 -18.5,-22.055 -10.3,-33.075 3.52,-5 9.36,-8.18 15.4,-8.9 0.42062,-0.025 0.85608,-0.0511 1.275,-0.05 z m 310.57496,0.1 c 8.02592,0.0734 16.55032,4.4625 19.4,12.3 5.64024,12.3 -2.53024,28.15 -15.54992,31.25 -6.48032,1.36 -13.78992,1.29 -19.55008,-2.35 -8.01968,-4.54 -12.33496,-15.08 -8.97496,-23.8 3.26,-9.78 13.37496,-15.65 23.07496,-17.35 0.52904,-0.0338 1.0652,-0.0549 1.6,-0.05 z M 686.325,892.2 c 7.90258,0.0339 15.55125,5.41375 16.575,13.75 -0.6,11.94 -16.63,23.34 -26.85,14 -9.04,-7.48 -6.23,-23.1 4.85,-26.9 1.77375,-0.5925 3.60133,-0.85784 5.425,-0.85 z"
     id="path52"
     inkscape:connector-curvature="0" />
  <path
     style="fill:#f5e5c1"
     d="m 287.65,427.1 c -26.56501,0.0475 -53.14,0.17 -79.7,0.25 -6.16,-0.56 -9.67,4.89 -13.05,9.05 1.26,14.46 -0.42,29.06 1.4,43.5 0.16,3.86 0.22,7.74 0.3,11.6 5.04,4.24 9.98,10.37 17.3,9.65 51.26,-0.12 102.49,-0.32 153.75,-0.6 0.02,-1.04 0.0301,-3.11 0.0499,-4.15 -8.82,0 -17.65,-0.16 -26.45,0.3 4.76,-4.36 9.27,-10.03 8.05,-16.95 0.34,-5.72 -4.64,-9.31 -8.1,-13.05 -0.1,-11.08 0.44,-22.17 0.2,-33.25 -7.88,-0.72 -15.63,0.97 -23.25,2.75 0.52,10.88 3.74,21.39 5.2,32.15 -3.96,4.32 -7.75,9.54 -6.75,15.8 -0.22,5.4 4.13,9.15 7.65,12.55 -15.88771,-0.2872 -31.80341,-0.11328 -47.7,0 -2.36861,0.0168 -4.73162,0.0378 -7.1,0.0499 l -42.8,0.35 c -1.2361,0.017 -2.46402,0.0563 -3.7,0.0499 -0.003,8e-5 -0.1,0 -0.1,0 -2.88946,-0.0162 -5.76322,-0.12288 -8.65,-0.3 -3.6,-1.26 -6.21,-4.45 -9.25,-6.65 -0.02,-17.44 -0.69,-34.88 -0.35,-52.3 -0.18,-3.8 3.77,-6.42 7.25,-6.3 51.1,-0.38 102.22,0.0699 153.3,-0.65 0.54,-0.94 1.66,-2.79 2.2,-3.75 -26.56,-0.11008 -53.13499,-0.14752 -79.7,-0.1 z m -40.1,9.65 c -7.10227,0.032 -12.46501,6.04499 -16.7,11.4 -0.14,5.54 1.09,10.98 2.15,16.4 -3.36,3.84 -7.68,7.75 -7.8,13.25 -0.95322,8.50203 6.00573,17.43078 14.2,18.4 5.44458,-0.41008 10.5677,-1.55707 14.35,-4.9 3.19798,-2.87891 4.7,-6.7 4.7,-6.7 0.19459,-0.7359 0.32909,-1.49646 0.35,-2.3 0.98,-6.76 -3.7,-12.21 -7.9,-16.85 -0.42,-9.44 -0.28,-18.91 -0.2,-28.35 -1.0875,-0.26 -2.13539,-0.35458 -3.15,-0.35 z m 85.4,1.45 c -0.14,8.84 -0.01,17.73 -0.75,26.55 -0.84,-3.52 -1.61,-7.07 -2.55,-10.55 -1.08,-5.06 -2.27,-10.09 -3.25,-15.15 z m -90.55,9.1 c -0.14,8.84 0.1,16.5 0.1,16.5 -1.47845,-6.0719 -1.7291,-7.57546 -2.65,-13.1 0.41378,-1.26702 1.09726,-2.86026 2.55,-3.4 z"
     id="path66"
     inkscape:connector-curvature="0"
     sodipodi:nodetypes="scccccccccccccccsccccccccccsscccccccccsccccccccc" />
  <path
     d="m 302,545.44 c 23.4,-0.64 46.72,-2.64 70.12,-3.14 0.66,4.86 1.36,9.7 1.86,14.6 -32,-0.16 -63.94,-2.06 -95.94,-1.5 -4.36,0.26 -8.62,1.26 -12.94,1.94 -4.04,4.18 -9.92,8.08 -10.18,14.48 -0.44,8.1 -0.24,16.2 -0.24,24.32 0.06,3.52 -0.08,7.8 3.34,9.94 6.32,2.66 13.36,2.54 20.1,2.56 34.48,-0.24 68.98,0.06 103.46,-0.32 0.7,3.6 1.44,7.18 2.2,10.76 -19.28,0.16 -38.46,-2.16 -57.74,-1.88 -24.12,0.24 -48.14,-1.9 -72.24,-2.24 -3.7,-4.9 -8.96,-9.12 -10.84,-15.12 -0.58,-10.62 0.12,-21.28 0.02,-31.92 -0.7,-7.5 4.88,-13.2 8.6,-19.06 16.64,-3.06 33.7,-1.16 50.42,-3.42 z"
     id="path88"
     inkscape:connector-curvature="0"
     style="fill:#f5e5c1" />
</svg>
