<?xml version="1.0" encoding="UTF-8" standalone="no"?>
<svg
   xmlns:dc="http://purl.org/dc/elements/1.1/"
   xmlns:cc="http://creativecommons.org/ns#"
   xmlns:rdf="http://www.w3.org/1999/02/22-rdf-syntax-ns#"
   xmlns:svg="http://www.w3.org/2000/svg"
   xmlns="http://www.w3.org/2000/svg"
   xmlns:sodipodi="http://sodipodi.sourceforge.net/DTD/sodipodi-0.dtd"
   xmlns:inkscape="http://www.inkscape.org/namespaces/inkscape"
   width="1280"
   height="1280"
   viewBox="0 0 1024 1024"
   version="1.1"
   id="svg2"
   inkscape:version="0.48.1 "
   sodipodi:docname="taunt_kill.svg">
  <metadata
     id="metadata64">
    <rdf:RDF>
      <cc:Work
         rdf:about="">
        <dc:format>image/svg+xml</dc:format>
        <dc:type
           rdf:resource="http://purl.org/dc/dcmitype/StillImage" />
      </cc:Work>
    </rdf:RDF>
  </metadata>
  <defs
     id="defs62" />
  <sodipodi:namedview
     pagecolor="#ffffff"
     bordercolor="#666666"
     borderopacity="1"
     objecttolerance="10"
     gridtolerance="10"
     guidetolerance="10"
     inkscape:pageopacity="0"
     inkscape:pageshadow="2"
     inkscape:window-width="1920"
     inkscape:window-height="1018"
     id="namedview60"
     showgrid="false"
     fit-margin-top="0"
     fit-margin-left="0"
     fit-margin-right="0"
     fit-margin-bottom="0"
     inkscape:snap-page="true"
     inkscape:zoom="0.6609375"
     inkscape:cx="466.00473"
     inkscape:cy="640"
     inkscape:window-x="-8"
     inkscape:window-y="-8"
     inkscape:window-maximized="1"
     inkscape:current-layer="layer1" />
  <g
     inkscape:groupmode="layer"
     id="layer1"
     inkscape:label="background"
     style="display:inline">
    <rect
       style="fill:#3e3e3e;fill-opacity:1;fill-rule:nonzero;stroke:none"
       id="rect3054"
       width="1280"
       height="1280"
       x="0"
       y="0"
       transform="scale(0.8,0.8)" />
  </g>
  <g
     inkscape:groupmode="layer"
     id="layer2"
     inkscape:label="foreground">
    <path
       style="fill:#f5e5c1"
       d="M 47.3125 0 L 49.625 0.03125 C 49 2.43125 47.71875 7.225 47.09375 9.625 C 53.14375 9.3 59.1875 8.875 65.1875 8 C 74.7125 14.8 81.83125 24.2 89.40625 33 C 110.08125 56.975 130.8375 80.825 151.4375 104.875 C 148.0625 110.45 145.24375 116.33125 142.59375 122.28125 C 136.96875 116.15625 131.475 109.9375 125.875 103.8125 C 119.6 103.5875 113.3375 103.4 107.0625 103.25 C 117.8375 115.2 127.2 128.69375 140.25 138.34375 C 202.05 250.39375 262.36875 363.24375 323.84375 475.46875 C 303.44375 485.49375 283.0125 495.50625 262.5625 505.40625 C 253.1125 509.60625 247.10625 518.2625 240.53125 525.8125 C 235.18125 532.1875 228.93125 537.91875 225.03125 545.34375 C 213.73125 567.89375 203.2375 590.875 195.0625 614.75 C 183.6625 642.175 190.0875 673.525 203.4375 699 C 222.0625 725.725 240.275 752.76875 257 780.71875 C 264.2 795.64375 273.2 810.44375 274.5 827.34375 C 276.6 845.71875 280.13125 863.925 281.53125 882.375 C 284.18125 924.1 286.45 965.8432 288.875 1007.5938 C 289.825 1039.8438 294.7875 1071.7625 299.8125 1103.5625 C 306.3125 1124.4875 314.6375 1144.8875 322.5625 1165.3125 C 333.0625 1184.0875 346.8125 1200.8625 358.4375 1218.9375 C 367.9375 1234.3625 383.9125 1243.6875 397.1875 1255.4375 C 408.6875 1265.7375 422.0875 1273.55 436.0625 1280 L 730.46875 1280 C 750.04375 1270.65 769.6375 1261.3125 788.9375 1251.4375 C 812.9375 1237.2625 836.13125 1221.75 859.90625 1207.25 C 884.30625 1193.375 903.4375 1172.4573 925.0625 1154.9062 C 941.1625 1142.2314 950.49375 1123.6625 961.84375 1107.0625 C 972.16875 1092.4875 973.3125 1074.1177 979.6875 1057.8438 C 985.2875 1043.3438 983.53125 1027.65 984.03125 1012.5 C 985.20625 987.15 979.2875 962.25625 976.9375 937.15625 C 976.3625 927.43125 972.95625 918.1875 967.28125 910.3125 C 953.80625 890.4875 943.1875 868.55625 926.5625 851.03125 C 909.8375 832.75625 895.33125 812.275 876.15625 796.375 C 845.65625 770.225 815.3875 743.79375 784.8125 717.71875 C 762.1625 695.44375 741.075 671.63125 718.875 648.90625 C 708.25 638.38125 699.96875 625.86875 691.21875 613.84375 C 685.04375 605.59375 682.55625 595.4625 679.53125 585.8125 C 675.55625 572.6375 670.18125 559.9875 664.90625 547.3125 C 659.85625 534.7125 649.6125 525.375 641.3125 515 C 635.6875 517.05 630.1125 519.1375 624.5625 521.3125 C 634.1375 532.5125 645.49375 542.85625 650.96875 556.90625 C 657.09375 571.20625 662.51875 585.8 666.84375 600.75 C 671.46875 618.85 684.89375 632.5 695.34375 647.375 C 717.49375 672.525 741.525 695.9625 764.125 720.6875 C 773.25 730.9125 784.5125 738.825 794.6875 747.875 C 820.9375 770.8 847.525 793.3625 873.75 816.3125 C 887.975 830.4125 900.0625 846.5125 913.5625 861.3125 C 929.7375 878.3875 940.1625 899.6875 953.1875 919.0625 C 961.4875 930.1125 960.75 944.475 962.75 957.5 C 964.625 974.95 968.43125 992.3568 967.65625 1010.0312 C 967.30625 1017.4812 967.1125 1024.9316 967.0625 1032.4062 C 967.4125 1049.0823 959.60625 1064.3375 955.15625 1080.0625 C 946.05625 1103.1375 931.38125 1124.0125 912.78125 1140.4375 C 894.80625 1160.9125 869.0625 1171.3066 846.9375 1186.4062 C 842.2125 1169.6323 836.71875 1153.0625 832.84375 1136.0625 C 836.01875 1132.0375 842.5125 1128.825 841.6875 1122.875 C 839.3125 1116.4 834.46875 1111.25 830.46875 1105.75 C 821.51875 1107.175 812.5625 1108.6625 803.5625 1109.6875 C 779.9875 1059.0375 755.7875 1008.6688 732.3125 957.96875 C 748.8125 950.79375 765.45 943.8625 781.875 936.4375 C 773.275 923.1875 764.20625 910.2125 753.65625 898.4375 C 738.28125 904.2875 722.75 909.7 707.25 915.125 C 690.45 887.975 674.10625 860.53125 657.03125 833.53125 C 673.73125 835.00625 688.825 827.21875 704.75 823.84375 C 714.45 822.04375 719.90625 812.96875 726.65625 806.71875 C 733.40625 800.69375 733.0125 790.90625 734.1875 782.65625 C 736.6375 766.95625 729.0125 752.05 721.1875 739 C 707.3125 719.575 693.0125 700.41875 679.1875 680.96875 C 669.5125 666.54375 653.88125 657.96875 642.40625 645.21875 C 624.88125 631.36875 604.73125 621.21875 586.03125 609.09375 C 564.40625 599.21875 541.56875 592.1875 519.46875 583.4375 C 525.34375 592.5375 529.88125 602.5125 536.40625 611.1875 C 544.25625 619.3125 555.4125 623.7625 562.0625 633.1875 C 572.1875 645.0625 580.025 659.30625 581.75 675.03125 C 581.775 684.00625 578.4375 692.49375 575.9375 700.96875 C 555.6125 667.71875 535.2375 634.525 514.9375 601.25 C 518.3625 602.7 521.7625 604.15 525.1875 605.625 C 486.3625 537.55 446.2625 470.1625 408.1875 401.6875 C 383.6125 361.2125 359.28125 320.575 334.90625 280 C 328.73125 268 322.80625 255.85625 314.65625 245.03125 C 287.60625 203.43125 263.1875 160.16875 237.0625 117.96875 C 234.6875 113.86875 231.8 109.93125 230.625 105.28125 C 231.25 98.60625 236.58125 91.6 232.15625 85.25 C 216.68125 56.85 201.45 28.275 185.75 0 L 166.71875 0 C 185.39375 28.25 203.69375 56.775 222.21875 85.125 C 220.74375 88.75 219.275 92.375 217.5 95.875 C 211.8 96.65 210.44375 90.5625 208.21875 86.6875 C 197.34375 62.7875 185.575 39.3125 174.875 15.3125 C 173.25 11.8625 171.4375 8.4875 168.9375 5.5625 C 164.4375 3.9375 159.95625 7.5375 162.15625 12.3125 C 171.00625 38.0625 180.125 63.74375 189.375 89.34375 C 155.5 60.76875 121.6375 32.1625 87.6875 3.6875 C 86.0125 3.8375 82.7125 4.1625 81.0625 4.3125 C 79.6875 3.2375 76.9375 1.075 75.5625 0 L 47.3125 0 z M 104 32.625 C 127.325 50.125 148.99375 69.7625 171.59375 88.1875 C 177.69375 92.4875 180.9875 99.25625 184.4375 105.65625 C 276.9875 268.98125 370.18125 431.96875 462.65625 595.34375 C 466.08125 598.04375 460.025 604.60625 458 599.90625 C 364.625 434.98125 270.65625 270.35 177.15625 105.5 C 174.25625 100.725 173.025 94.83125 168.875 90.90625 C 147.275 71.45625 124.2 53.575 104 32.625 z M 163.90625 93.28125 C 258.83125 261.83125 353.65 430.4125 448.625 598.9375 C 450.225 601.9375 451.2375 605.21875 452.1875 608.46875 C 450.8875 608.71875 448.275 609.1875 447 609.4375 C 352.375 440.4125 256.975 271.8125 162.125 102.9375 C 160.55 99.9375 159.1625 96.85 157.8125 93.75 C 159.3375 93.625 162.40625 93.40625 163.90625 93.28125 z M 187.09375 95.71875 C 189.4395 95.546059 190.77344 100.76953 192.53125 102.3125 C 285.98125 264.9875 379.2625 427.73125 472.6875 590.40625 C 475.5625 593.65625 473.29375 600.16875 468.71875 596.21875 C 374.49375 432.14375 280.50625 267.86875 186.15625 103.84375 C 185.83125 102.19375 185.16875 98.9375 184.84375 97.3125 C 185.69141 96.213281 186.43694 95.767104 187.09375 95.71875 z M 201.65625 95.875 C 296.55625 258.5 391.60625 421.05625 486.53125 583.65625 C 488.50625 587.15625 490.2125 590.7625 491.9375 594.4375 C 487.6875 594.9125 484.6125 593.4125 482.8125 589.9375 C 391.2875 433.0125 299.6125 276.20625 208.0625 119.28125 C 203.6625 112.00625 199.2625 104.69375 195.6875 96.96875 C 197.1625 96.69375 200.15625 96.15 201.65625 95.875 z M 209.125 96.59375 C 211.875 99.41875 214.7625 102.225 216.8125 105.625 C 310.1125 262.175 403.6875 418.56875 497.0625 575.09375 C 499.9125 580.46875 505.1875 584.61875 506.4375 590.71875 C 504.9375 591.01875 501.96875 591.6375 500.46875 591.9375 C 495.09375 585.3875 491.45 577.65 487 570.5 C 394.55 416.075 302.64375 261.31875 210.09375 106.96875 C 207.71875 103.94375 208.55 100.04375 209.125 96.59375 z M 159.34375 118.53125 C 163.36875 123.55625 167.6625 128.48125 170.8125 134.15625 C 244.0125 265.90625 317.2125 397.6875 390.4375 529.4375 C 404.1875 553.7875 417.20625 578.56875 431.53125 602.59375 C 426.05625 611.56875 422.625 621.5375 418.875 631.3125 C 414.325 642.0125 418.43125 653.64375 419.03125 664.71875 C 419.63125 673.41875 426.6 679.45625 431.625 685.90625 C 439.425 694.75625 445.775 705.375 456.375 711.25 C 467.375 717.725 477.78125 725.1125 488.78125 731.5625 C 497.60625 736.9875 508.25625 737.475 518.15625 739.5 C 554.95625 802.075 590.4375 865.41875 627.0625 928.09375 C 639.6125 942.56875 645.88125 961.0125 654.90625 977.6875 C 681.95625 1027.9375 709.68125 1077.8438 737.03125 1127.9688 C 742.13125 1137.4927 745.84375 1148.7625 754.59375 1155.5625 C 756.49375 1154.9875 760.3125 1153.825 762.1875 1153.25 C 758.8875 1147.6 754.9375 1141.8677 755.6875 1134.9688 C 754.8625 1133.7686 753.23125 1131.3875 752.40625 1130.1875 C 749.83125 1128.7125 747.2375 1127.0684 746.0625 1124.2188 C 722.2375 1080.4927 698.35 1036.7938 674.25 993.21875 C 671.25 988.06875 671.175 981.8375 668.5 976.5625 C 663.9 967.4125 654.975 961.15 651.625 951.25 C 649 942.9 643.2125 936.3375 638.6875 929.0625 C 604.9125 870.1625 571.06875 811.2875 537.21875 752.4375 C 535.24375 748.8875 533.45 745.2375 531.75 741.5625 C 535.475 741.7125 539.4875 742.0875 541.0625 746.0625 C 576.1625 806.8625 611.1375 867.78125 646.0625 928.65625 C 650.8375 942.93125 662.5375 953.23125 667.3125 967.53125 C 683.6125 993.60625 696.70625 1021.5125 711.53125 1048.4375 C 721.85625 1068.1375 732.5 1087.65 742.75 1107.375 C 748.75 1119.275 757.44375 1129.5375 763.46875 1141.4375 C 765.79375 1144.6125 766.9625 1150.4375 772.0625 1149.5625 C 775.6875 1143.5375 769.30625 1137.7625 767.28125 1132.3125 C 768.05625 1131.2875 769.6 1129.2375 770.375 1128.1875 C 768.55 1124.6875 766.74375 1121.1816 764.96875 1117.6562 C 763.71875 1118.0566 761.28125 1118.85 760.03125 1119.25 C 735.45625 1072.275 710.55625 1025.4563 685.40625 978.78125 C 686.95625 977.90625 690.0125 976.1875 691.5625 975.3125 C 688.3625 969.4875 685.24375 963.5875 682.21875 957.6875 C 680.31875 957.9375 676.525 958.40625 674.625 958.65625 C 671.525 953.18125 668.4625 947.7375 665.3125 942.3125 C 666.8875 941.6375 669.9875 940.3 671.5625 939.625 C 670.5125 936.275 669.25625 933.04375 667.90625 929.84375 C 665.78125 930.39375 661.53125 931.475 659.40625 932 C 622.25625 867.65 585.51875 803.04375 548.09375 738.84375 C 549.76875 738.51875 553.1375 737.8875 554.8125 737.5625 C 588.5625 794.7375 622.50625 851.85625 656.28125 909.03125 C 657.73125 911.93125 660.4875 913.6625 663.1875 915.3125 C 675.7875 935.3875 684.06875 958.06875 698.09375 977.21875 C 698.24375 982.09375 698.125 987.23125 700.875 991.53125 C 716.95 1022.3062 732.89375 1053.1436 748.59375 1084.0938 C 753.19375 1093.2686 760.66875 1100.6375 764.84375 1110.0625 C 771.96875 1122.3375 776.36875 1137.0375 788.21875 1145.8125 C 788.94375 1137.6625 784.06875 1130.75 782.21875 1123.125 C 780.86875 1116.2 774.23125 1112.4814 771.28125 1106.4062 C 747.98125 1061.5823 725.1125 1016.4625 701.6875 971.6875 C 703.0625 970.8375 705.8125 969.125 707.1875 968.25 C 704.1125 962.7 701.075 957.1125 698 951.5625 C 688.525 954.3375 687.66875 941.63125 683.21875 936.28125 C 684.61875 935.50625 687.4125 933.9625 688.8125 933.1875 C 686.7875 929.9125 684.7875 926.5875 682.8125 923.3125 C 681.5375 923.9625 678.95625 925.31875 677.65625 925.96875 C 641.20625 864.76875 604.28125 803.81875 566.78125 743.21875 C 564.78125 739.89375 563.40625 736.275 562.15625 732.625 C 563.73125 732.9 566.8625 733.48125 568.4375 733.78125 C 604.0125 791.60625 639.725 849.41875 675 907.46875 C 676.875 910.66875 679.76875 913.01875 682.59375 915.34375 C 691.24375 930.71875 699.15625 946.5375 707.78125 961.9375 C 712.18125 969.3875 712.1 978.45 716.375 986 C 732.675 1019.025 747.7125 1052.75 764.5625 1085.5 C 765.8125 1085.7 768.3125 1086.1436 769.5625 1086.3438 C 778.0125 1104.5427 786.0875 1122.9375 795.1875 1140.8125 C 800.7375 1134.7375 794.825 1127.9814 792.75 1121.9062 C 794.775 1121.8564 798.78125 1121.7375 800.78125 1121.6875 C 798.65625 1117.9125 796.60625 1114.15 794.53125 1110.375 C 792.53125 1104.5 790.40625 1098.525 786.28125 1093.75 C 788.40625 1100.175 791.06875 1106.3875 793.21875 1112.8125 C 789.84375 1112.1625 786.45625 1111.15 785.40625 1107.5 C 764.08125 1062.9 742.85625 1018.2375 721.40625 973.6875 C 717.83125 967.2125 719.3625 959.1 714.9375 953 C 710.3375 946.525 703.54375 941.6875 700.34375 934.1875 C 698.04375 931.8625 700.44375 929.2375 701.21875 926.9375 C 698.54375 921.6875 691.975 920.76875 689.125 915.84375 C 652.775 854.91875 615.99375 794.28125 578.59375 734.03125 C 576.34375 730.63125 574.2875 726.66875 576.9375 722.84375 C 583.2125 726.81875 585.95625 734.1125 589.90625 740.0625 C 616.45625 783.4875 643.075 826.8375 669.75 870.1875 C 678.05 883.5375 685.9125 897.23125 695.0625 910.03125 C 706.1375 929.03125 716.075 948.6125 727 967.6875 C 744.75 1010.5625 766.35625 1051.7875 785.28125 1094.1875 C 786.50625 1093.4125 788.9625 1091.8625 790.1875 1091.0625 C 794.6875 1101.0375 799.3625 1110.9625 803.5625 1121.0625 C 805.4375 1125.2125 807 1129.975 811.5 1132.125 C 811.3 1127.475 810.2375 1123.0427 808.3125 1118.8438 C 812.3375 1117.8184 816.35625 1116.8125 820.40625 1115.8125 C 822.13125 1118.0875 823.84375 1120.35 825.59375 1122.625 C 821.74375 1126.7 816.18125 1131.1625 818.40625 1137.5625 C 823.20625 1156.3625 829 1174.9 834.5 1193.5 C 826.175 1198.85 817.6875 1203.975 809.3125 1209.25 C 794.0125 1192.35 777.025 1176.7625 763.75 1158.1875 C 758.075 1157.1625 752.5125 1159.85 747.0625 1161 C 743.9375 1158.3 740.9125 1155.5427 737.9375 1152.7188 C 742.9125 1148.8677 741.81875 1144.15 738.34375 1139.5 C 730.69375 1146.35 722.9625 1153.0824 715.1875 1159.7812 C 720.0375 1165.6574 724.55 1171.8066 729.75 1177.4062 C 735.8 1185.6562 746.5375 1179.4625 754.5625 1178.5625 C 766.5625 1192.5375 778.8875 1206.2573 790.8125 1220.2812 C 775.9875 1228.3824 762.775 1240.5125 745.625 1243.3125 C 724.475 1247.8625 703.7625 1254.4125 682.4375 1257.9375 C 658.2125 1258.4625 633.8375 1260.5875 609.6875 1257.5625 C 594.3375 1255.8875 578.89375 1254.9927 563.59375 1253.0938 C 553.29375 1250.4927 543.9625 1245.2314 534.1875 1241.2812 C 523.3625 1236.2314 511.60625 1232.825 502.03125 1225.5 C 481.93125 1210.55 461.85 1195.5875 441.625 1180.8125 C 436.825 1177.3875 432.675 1173.1436 429.125 1168.4688 C 416.175 1151.4177 403.2125 1134.4 390.0625 1117.5 C 386.6625 1113.15 383.54375 1108.4927 381.84375 1103.2188 C 372.61875 1075.9434 363.06875 1048.75 353.71875 1021.5 C 350.99375 1013.825 351.3375 1005.5938 350.8125 997.59375 C 346.9125 941.69375 343.6625 885.73125 340.5625 829.78125 C 339.0875 814.80625 339.225 799.6875 336.875 784.8125 C 334.7 769.7125 330.2375 755.075 327.3125 740.125 C 324.6625 724.35 314.90625 711.24375 308.15625 697.09375 C 293.43125 667.34375 269.7375 643.5625 251.0625 616.4375 C 245.5375 605.5125 241.06875 593.9625 236.96875 582.4375 C 236.94375 572.6875 238.21875 562.73125 240.71875 553.28125 C 246.69375 543.68125 255.45 536.14375 262.375 527.21875 C 267.45 520.16875 275.98125 517.4375 283.40625 513.6875 C 306.48125 502.8125 328.925 490.6125 352.375 480.5625 C 349.45 475.6125 346.75625 470.5 343.15625 466 C 341.48125 466.8 338.10625 468.3875 336.40625 469.1875 C 275.80625 357.8625 215.175 246.55625 155 135.03125 C 156.475 129.53125 157.91875 124.03125 159.34375 118.53125 z M 483.125 595.9375 C 486.95 597.2625 489.6875 600.09375 491.5625 603.59375 C 509.1125 633.31875 526.925 662.91875 544.625 692.59375 C 549.625 700.99375 555.2875 709.1125 558.8125 718.3125 C 552.2875 716.9625 550.175 710.3375 547 705.4375 C 526.1 668.7375 503.1 633.1625 483.125 595.9375 z M 500.09375 597.46875 C 502.71875 600.71875 505.15 604.1375 507.375 607.6875 C 526 638.2125 544.7125 668.6875 563.5625 699.0625 C 565.8125 702.4625 566.9625 706.4375 567.6875 710.4375 C 558.1625 698.4375 551.55 684.4375 543.375 671.5625 C 529.2 646.7375 513.16875 622.89375 500.09375 597.46875 z M 469.90625 598.0625 C 473.03125 600.7125 475.7875 603.8375 477.8125 607.4375 C 499.9875 645.5375 522.9375 683.2125 544.9375 721.4375 L 538.4375 721.9375 C 517.0125 684.1125 495.1625 646.49375 473.4375 608.84375 C 471.4375 605.56875 470.63125 601.7625 469.90625 598.0625 z M 459.8125 604.4375 C 482.2625 643.8625 505.01875 683.11875 527.59375 722.46875 C 524.84375 722.09375 522.1375 721.71875 519.4375 721.34375 C 497.5875 683.46875 475.69375 645.625 454.09375 607.625 C 455.51875 606.825 458.3875 605.2375 459.8125 604.4375 z M 446.3125 614.84375 C 467.1125 649.29375 486.7875 684.4375 506.6875 719.4375 C 499.2125 717.2875 492.79375 712.95 486.46875 708.625 C 475.14375 700.95 462.025 695.19375 453.625 683.96875 C 448.275 676.94375 441.5875 670.79375 437.4375 662.96875 C 435.7375 655.41875 435.26875 647.5375 435.59375 639.8125 C 437.76875 630.9875 442.3375 622.96875 446.3125 614.84375 z M 745.9375 913.1875 C 750.3875 917.9375 754.53125 922.9625 758.28125 928.3125 C 746.48125 932.5625 734.7625 937.0625 722.9375 941.1875 C 719.7375 935.7125 716.525 930.2375 713.25 924.8125 C 724.25 921.2125 735.1625 917.4125 745.9375 913.1875 z "
       id="path6"
       transform="scale(0.8,0.8)" />
    <path
       d="m 155.26,1.4 c 10.9,-0.12 21.78,-1.08 32.68,-0.76 3.82,-0.3 5.66,3.46 7.6,6.02 3.1,4.2 5.52,8.98 5.48,14.34 C 188.94,21.48 177,19.16 164.94,18.78 161.58,13.04 158.44,7.22 155.26,1.4 z"
       id="path12"
       inkscape:connector-curvature="0"
       style="fill:#f5e5c1" />
    <path
       d="m 0,10.66 c 17.82,0.36 35.58,2.06 53.4,2.46 2.02,2.44 4.02,4.9 6,7.36 -8,0.24 -16.02,0.08 -24.04,0.2 C 26.88,29.3 14.08,29.82 3.3,33.86 2.48,32.72 0.82,30.44 0,29.3 L 0,10.66 z"
       id="path14"
       inkscape:connector-curvature="0"
       style="fill:#f5e5c1" />
    <path
       d="m 167.62,24.32 c 14.48,0.54 28.9,2.1 43.34,3.28 4.66,0.96 3.7,6.86 4.16,10.42 -0.18,5.18 1.8,12.96 -4.84,14.78 C 199.9,51.94 189.9,48.56 179.7,46.56 175.74,39.1 171.74,31.68 167.62,24.32 z"
       id="path16"
       inkscape:connector-curvature="0"
       style="fill:#f5e5c1" />
    <path
       d="m 40.22,25.34 c 4.76,0.08 9.5,0.18 14.26,0.22 3.22,3.64 6.4,7.34 9.52,11.08 -4.76,0.1 -9.54,0.16 -14.3,0.2 -3.14,-3.86 -6.3,-7.7 -9.48,-11.5 z"
       id="path18"
       inkscape:connector-curvature="0"
       style="fill:#f5e5c1" />
    <path
       d="m 552.02,33.84 c 9.16,-1.66 18.54,-3.96 27.88,-2.32 13.76,2 26,8.96 38.78,14 6.5,3.04 13.82,5.36 18.86,10.72 -0.46,8.98 -2.98,17.7 -4.42,26.52 -15.44,-2.24 -31.12,-6.2 -46.76,-3.18 -12.38,2.38 -25.8,2.78 -36.42,10.38 -9.62,6.8 -20.86,12.42 -27.02,22.94 -6.88,10.92 -15.06,23.46 -11.1,36.98 14.98,47.26 29.22,94.74 44,142.04 3.4,10.36 7.08,20.98 6.5,32.04 -1.04,23.32 -12.52,45.22 -28.58,61.76 -13.02,12.86 -29.34,23.4 -47.74,26.02 -14.8,2.58 -31.82,-2.46 -40.52,-15.26 -8.56,-12.2 -9.8,-28.2 -6.52,-42.4 6.08,-27.12 24.38,-50.96 48.24,-64.98 10.36,-6.18 22.16,-9.54 34.18,-10.32 -4.5,-11.28 -4.62,-23.64 -8.7,-35.02 -16.82,-56.16 -33.22,-112.42 -50.16,-168.54 12.16,-9.1 24.5,-18.72 39.12,-23.46 8.52,-3.08 16.3,-7.8 24.54,-11.5 8.16,-3.68 17.14,-4.62 25.84,-6.42 z"
       id="path22"
       inkscape:connector-curvature="0"
       style="fill:#f5722c" />
    <path
       d="m 18.16,42.64 c 20.08,-0.38 40.16,-1.16 60.26,-1.4 1.22,2.4 2.38,4.84 3.42,7.34 -8.62,0.54 -17.26,0.44 -25.88,1 -1.44,2.48 -2.68,5.1 -4.46,7.38 -7.66,2.38 -15.82,1.92 -23.74,2.56 -3.94,-5.14 -8.96,-10.06 -9.6,-16.88 z"
       id="path24"
       inkscape:connector-curvature="0"
       style="fill:#f5e5c1" />
    <path
       d="m 63.36,54.68 c 4.24,-0.32 8.48,-0.88 12.74,-0.72 4.16,1.9 6.2,6.5 9.3,9.62 -4.8,-0.16 -9.78,0.82 -14.5,-0.44 -2.78,-2.56 -5.1,-5.58 -7.54,-8.46 z"
       id="path26"
       inkscape:connector-curvature="0"
       style="fill:#f5e5c1" />
    <path
       d="m 187.76,62.42 c 11.64,0.52 23.4,-0.48 34.96,0.98 5.26,3.46 9.04,8.88 11.92,14.4 0.3,4.62 -4.54,7.8 -8.78,6.74 -11.74,-1.2 -23.54,-1.86 -35.26,-3.4 1.02,-3.62 2.02,-7.26 2.98,-10.9 -1.96,-2.58 -3.9,-5.18 -5.82,-7.82 z"
       id="path28"
       inkscape:connector-curvature="0"
       style="fill:#f5e5c1" />
    <path
       d="m 40.22,69.82 c 20.24,-0.38 40.5,-0.66 60.76,-1.3 0.18,2.92 0.3,5.84 0.38,8.76 -8.2,0.4 -16.38,-0.18 -24.58,-0.18 0.52,3.82 1.16,7.62 1.82,11.42 C 71.04,89.66 63.48,90.86 55.88,91.6 50.7,84.32 44.08,78 40.22,69.82 z"
       id="path30"
       inkscape:connector-curvature="0"
       style="fill:#f5e5c1" />
    <path
       d="m 951.94,151.8 c 4.48,-0.96 11.84,-3.28 14.28,2 -2.64,89.38 -5.7,178.78 -7.98,268.18 -0.12,2.6 -0.48,5.16 -1.04,7.7 -12.7,33.82 -45.26,58.58 -80.9,63.26 -13.18,1.42 -27.22,0.4 -38.9,-6.42 -10.84,-6.14 -18.78,-17.82 -18.98,-30.48 -1.34,-18.48 8.56,-35.66 20.94,-48.6 19.8,-20.18 48.08,-33.28 76.7,-30.94 6.68,0.12 13.04,2.3 19.2,4.74 2.34,-32.38 3.3,-64.84 5.42,-97.22 0.68,-21.66 2.7,-43.26 2.98,-64.92 -56.68,28.38 -113.5,56.5 -170.24,84.76 -2.4,48.14 -4.82,96.28 -7.14,144.44 -1.52,13.08 0.54,26.78 -4.46,39.28 -7.64,21.62 -25.2,38.46 -45.1,49.06 -18.94,9.76 -41.5,14.88 -62.4,8.76 -14.42,-4.1 -26.98,-16.2 -28.92,-31.46 -2.82,-20.48 8.52,-39.98 22.6,-53.94 23.12,-22.34 57.82,-35.82 89.62,-26.26 0.4,-11.32 3.46,-22.34 3.9,-33.64 2.8,-46 5.52,-92 8.32,-138 1.48,-15.1 0.9,-30.38 3.26,-45.38 5.56,-3.6 12.2,-4.92 18.4,-7.04 60.18,-19.16 120.28,-38.62 180.44,-57.88 z"
       id="path42"
       inkscape:connector-curvature="0"
       style="fill:#f5722c" />
    <path
       d="m 353.5,358.42 c 24.66,2.8 49.18,6.78 73.82,9.72 0.62,4.64 1.4,9.28 2.56,13.82 -22.8,-3 -45.58,-6.24 -68.36,-9.3 -2.74,-4.72 -5.48,-9.44 -8.02,-14.24 z"
       id="path44"
       inkscape:connector-curvature="0"
       style="fill:#f5e5c1" />
    <path
       d="m 451.94,773.3 c 17.76,-7.48 36.26,-13.04 54.24,-19.96 1.36,2.54 2.74,5.08 4.14,7.64 -14.92,6.06 -30.34,10.8 -45.4,16.46 2,5.16 3.9,10.36 6,15.5 15.58,-5.84 31,-12.24 46.96,-16.96 2.48,5.5 5.18,10.88 7.9,16.28 -17.22,7.4 -34.3,15.08 -51.68,22.08 -7.32,-13.72 -16.82,-26.36 -22.16,-41.04 z"
       id="path58"
       inkscape:connector-curvature="0"
       style="fill:#f5e5c1" />
  </g>
</svg>
