<?xml version="1.0" encoding="UTF-8" standalone="no"?>
<svg
   xmlns:dc="http://purl.org/dc/elements/1.1/"
   xmlns:cc="http://creativecommons.org/ns#"
   xmlns:rdf="http://www.w3.org/1999/02/22-rdf-syntax-ns#"
   xmlns:svg="http://www.w3.org/2000/svg"
   xmlns="http://www.w3.org/2000/svg"
   xmlns:sodipodi="http://sodipodi.sourceforge.net/DTD/sodipodi-0.dtd"
   xmlns:inkscape="http://www.inkscape.org/namespaces/inkscape"
   width="1280"
   height="1280"
   viewBox="0 0 1024 1024"
   version="1.1"
   id="svg2"
   inkscape:version="0.48.1 "
   sodipodi:docname="teleport_grind.svg">
  <metadata
     id="metadata56">
    <rdf:RDF>
      <cc:Work
         rdf:about="">
        <dc:format>image/svg+xml</dc:format>
        <dc:type
           rdf:resource="http://purl.org/dc/dcmitype/StillImage" />
      </cc:Work>
    </rdf:RDF>
  </metadata>
  <defs
     id="defs54" />
  <sodipodi:namedview
     pagecolor="#ffffff"
     bordercolor="#666666"
     borderopacity="1"
     objecttolerance="10"
     gridtolerance="10"
     guidetolerance="10"
     inkscape:pageopacity="0"
     inkscape:pageshadow="2"
     inkscape:window-width="1920"
     inkscape:window-height="1018"
     id="namedview52"
     showgrid="false"
     inkscape:snap-page="true"
     fit-margin-top="0"
     fit-margin-left="0"
     fit-margin-right="0"
     fit-margin-bottom="0"
     inkscape:zoom="0.6609375"
     inkscape:cx="466.00473"
     inkscape:cy="640"
     inkscape:window-x="-8"
     inkscape:window-y="-8"
     inkscape:window-maximized="1"
     inkscape:current-layer="layer1" />
  <g
     inkscape:groupmode="layer"
     id="layer1"
     inkscape:label="background"
     style="display:inline">
    <rect
       style="fill:#3e3e3e;fill-opacity:1;fill-rule:nonzero;stroke:none"
       id="rect3036"
       width="1024"
       height="1024"
       x="0"
       y="0" />
  </g>
  <g
     inkscape:groupmode="layer"
     id="layer2"
     inkscape:label="foreground">
    <path
       d="m 0,0 1024,0 0,34.26 C 1002.84,75.88 981.4,117.36 960.1,158.9 932.26,118.94 890.56,87.22 842.36,77.06 805.2,67.06 765.4,72.08 729.92,85.96 673.1,109.54 628.94,160.66 612.56,219.8 593,149.84 534.22,90.06 462,76.02 c -36.38,-8.8 -74.96,-3.2 -109.38,10.48 -64.58,27.18 -111.3,89.94 -122.06,158.8 2.9,-42.36 3.7,-84.84 6.04,-127.22 0.6,-9.68 0.46,-20.64 -6.32,-28.34 -5.5,-6.66 -14.6,-7.68 -22.62,-8.56 -24.7,-1.76 -49.44,-3.16 -74.14,-4.98 -10.18,-1.06 -21.1,1.28 -28.26,9.04 C 81.5,109.16 57.18,132.52 33.48,156.5 22.44,137.46 11.3,118.5 0,99.6 L 0,0 z"
       id="path4"
       inkscape:connector-curvature="0"
       style="fill:#f5722c" />
    <path
       d="m 421.95,95.8 c -6.96344,0.11469 -13.96,0.65 -20.85,1.6 -59.7,8.6 -110.94,52.43 -134.1,107.35 -20.42,46.74 -22.24,101.32 -5,149.3 12.44,35.12 35.44,66.43 65.6,88.35 28.24,20.7 63.23,32.55 98.35,31.65 33.02,0.4 65.65,-10.74 92.65,-29.5 32.4,-22.86 57.21,-56.29 69.65,-93.95 17.14,-50.64 13.25,-108.14 -10.85,-155.9 -19.52,-39.26 -53.28,-71.74 -94.2,-87.9 -19.42499,-7.815 -40.35968,-11.34406 -61.25,-11 z m 1.65,114.5 c 18.11589,-0.18846 36.1875,6.4025 50,18.2 24.82,20.54 35.68,54.08 33.9,85.6 -0.44,39.98 -28.09,79.48 -67.45,89.6 -22.16,5.88 -46,-2 -63.2,-16.4 -22.72,-18.54 -34.78,-48.16 -34.4,-77.2 -0.54,-25.24 6.55,-51.18 22.75,-70.9 11.46,-14.2 27.98,-24.21 45.9,-27.65 4.13626,-0.78374 8.31941,-1.20651 12.5,-1.25 z"
       id="path8"
       style="fill:#f5e5c1"
       inkscape:connector-curvature="0" />
    <path
       d="m 802.15,95.8 c -8.35762,-0.0661 -16.73125,0.46875 -25,1.6 -63.46,9.08 -116.93,57.86 -138.25,117.4 -17.88,48.16 -16.89,103.28 3.55,150.5 13.92,32.76 37.43,61.4 67.05,81.2 26.58,17.78 58.44,28.01 90.5,27.55 43.16,0.94 85.81,-17.42 116.35,-47.6 30.06,-28.48 49.39,-67.41 55.95,-108.15 5.68,-37.88 1.47,-77.44 -13.85,-112.7 -19.02,-45.08 -56.21,-82.9 -102.35,-100 -17.22875,-6.5175 -35.56325,-9.6545 -53.95,-9.8 z m -2.5,114.5 c 18.06771,-0.17805 36.07,6.38499 49.85,18.15 24.88,20.54 35.8,54.09 34,85.65 -0.46,39.96 -28.12,79.52 -67.5,89.6 -21.68,5.76 -44.99,-1.7 -62.05,-15.5 -21.76,-17.22 -34.29,-44.63 -35.35,-72.15 -1.38,-24.82 3.85,-50.64 18.35,-71.2 11.54,-17.1 29.93,-29.51 50.25,-33.35 4.12499,-0.77626 8.28053,-1.15891 12.45,-1.2 z"
       id="path10"
       style="fill:#f5e5c1"
       inkscape:connector-curvature="0" />
    <path
       d="m 124.38,99.82 c 29.58,1.68 59.16,3.76 88.72,5.78 -5.56,122.84 -10.5,245.7 -16.1,368.52 -31.82,-1.26 -63.6,-3.36 -95.4,-4.72 3.2,-85.36 6.52,-170.72 9.48,-256.08 -8.26,8 -16.38,16.18 -24.28,24.54 -15.38,-18.46 -30.78,-36.9 -46.14,-55.36 28.12,-27.34 56,-54.92 83.72,-82.68 z"
       id="path12"
       inkscape:connector-curvature="0"
       style="fill:#f5e5c1" />
    <path
       d="m 413.08,235.36 c 10.74,-1.68 22.44,-1.86 32.32,3.36 20.9,9.52 34.04,31.4 37.32,53.56 1.36,16.94 2.28,35.12 -5.88,50.64 -8.3,18.06 -24.2,33.1 -43.7,38.02 -8,1.2 -16.52,1.18 -24.08,-2.04 -22.92,-8.86 -38.92,-31.7 -41.9,-55.76 -1.56,-18.36 -1.32,-37.9 7.56,-54.58 7.24,-15.9 21.26,-28.84 38.36,-33.2 z"
       id="path18"
       inkscape:connector-curvature="0"
       style="fill:#f5722c" />
    <path
       d="m 789.08,235.36 c 10.72,-1.7 22.38,-1.84 32.24,3.32 20.96,9.48 34.12,31.4 37.38,53.6 1.4,16.92 2.3,35.12 -5.86,50.62 -8.28,18.08 -24.2,33.12 -43.7,38.04 -7.94,1.18 -16.4,1.18 -23.92,-1.98 -22.98,-8.8 -39,-31.66 -42.08,-55.72 -1.52,-18.36 -1.34,-37.9 7.52,-54.58 7.24,-15.94 21.26,-28.96 38.42,-33.3 z"
       id="path20"
       inkscape:connector-curvature="0"
       style="fill:#f5722c" />
    <path
       d="m 220.78,475.82 c 3.14,-52.98 4.18,-106.06 7.5,-159.02 4.44,22.32 9.6,44.76 19.54,65.36 21.76,45.72 60.22,83.9 107.52,102.64 28.74,10.64 59.84,16.08 90.44,12.16 25.5,-3.76 50.8,-10.94 73.04,-24.28 45.06,-26.36 79.18,-70.5 93.8,-120.56 14.06,49.44 47.72,92.96 91.8,119.38 24.62,15.3 53.26,22.78 81.8,26.3 C 758.78,551.18 731.44,604.6 704,657.96 582.02,664.1 460.04,670.04 338.06,676.1 299,609.32 259.7,542.68 220.78,475.82 z"
       id="path22"
       inkscape:connector-curvature="0"
       style="fill:#f5722c" />
    <path
       d="m 737.84,668.94 c 64.86,-6.74 129.7,-13.8 194.58,-20.44 2.76,3.1 5.5,6.2 8.26,9.32 -8.12,54.08 -14.04,108.54 -22.34,162.52 -8.14,9.88 -19.1,17.2 -28.84,25.48 -15.1,-3.8 -30.14,-7.88 -45.24,-11.72 5.92,-16.58 12.38,-32.96 18.1,-49.62 -6.3,-1.68 -12.58,-3.38 -18.84,-5.14 -6.54,16.7 -12.68,33.56 -19.2,50.28 -5.32,-1.7 -10.64,-3.3 -15.94,-4.94 6.84,-15.62 11.68,-32 17.24,-48.1 -5.54,-1.52 -11.1,-2.9 -16.66,-4.24 -5.58,16.32 -10.92,32.72 -16.48,49.06 -5.26,-1.76 -10.52,-3.46 -15.8,-5.1 4.24,-16.16 8.38,-32.34 12.62,-48.5 -6.08,-1.36 -12.14,-2.76 -18.26,-3.9 -4.3,15.84 -8.9,31.62 -13.14,47.48 -26.64,-6.58 -53.18,-13.66 -79.78,-20.4 -6.62,-1.54 -13.2,-4.14 -20.1,-3.38 -38.28,3.3 -76.66,5.44 -114.94,8.9 -0.5,-4.96 -1,-9.94 -1.58,-14.88 23.22,-11.54 46.48,-22.98 69.76,-34.42 2.1,-1.16 4.36,-2.2 6.04,-3.98 6.06,-13.52 4.48,-31.14 16.62,-41.42 8.74,-7.8 15.96,-17.46 25.58,-24.18 25.98,-3.74 52.26,-5.54 78.34,-8.68 z"
       id="path24"
       inkscape:connector-curvature="0"
       style="fill:#f5e5c1" />
    <path
       d="m 82.98,697.94 c -1.22,-5.16 0.26,-11.94 6.66,-12.08 87.52,2.02 175.08,4.68 262.62,6.86 7.76,-0.1 13.76,5.58 20.38,8.84 8.16,5.18 17.56,8.74 24.92,15 3.88,9.32 6.1,19.26 9.58,28.74 1.2,4.32 5.76,6.12 9.16,8.44 17.36,9.96 34.72,19.92 52.12,29.82 6.44,2.66 6.2,10.7 7.4,16.48 0.78,4.12 -4,6.98 -7.64,6.94 -40.82,2.8 -81.64,5.3 -122.46,8.14 -5.06,0.28 -9.9,1.88 -14.64,3.56 -23.12,8.24 -46.32,16.22 -69.4,24.52 -5.26,-17.32 -10.66,-34.6 -15.86,-51.94 -6.54,2.14 -13.04,4.48 -19.46,6.98 5.46,17.34 10.64,34.78 16.24,52.1 -5.02,1.58 -10.04,3.18 -15.06,4.8 -5.72,-16.86 -12.52,-33.34 -18.78,-50 -4.98,2.34 -9.98,4.66 -14.98,6.94 5,16.58 11.28,32.8 14.68,49.84 -5.12,1.78 -10.24,3.62 -15.34,5.48 -5.78,-16.64 -10.86,-33.5 -16.42,-50.18 -7.96,2.84 -15.96,5.56 -23.94,8.36 6.28,16.4 12.12,32.96 18.42,49.34 -10.5,3.8 -21.04,7.44 -31.54,11.22 -12.52,-6.92 -24.5,-14.76 -36.66,-22.28 -6.54,-55.32 -13.48,-110.6 -20,-165.92 z"
       id="path26"
       inkscape:connector-curvature="0"
       style="fill:#f5e5c1" />
    <path
       d="m 473.88,744.3 c 34.02,-2.16 68.14,-2.64 102.1,-5.46 0.42,5.14 0.86,10.28 1.4,15.44 -14.76,6.54 -28.86,14.82 -44.48,19.28 -3.12,1.34 -3.5,5.42 -3.18,8.38 0.6,8.52 1.18,17.04 1.8,25.54 13,-0.38 25.94,-1.76 38.92,-2.36 -0.22,6.86 -0.64,13.72 -1.18,20.58 -46.32,3.96 -92.64,8.12 -138.96,12.04 0.86,-6.7 -2.02,-17.7 6.84,-19.86 13.68,-1 27.44,-1.3 41.16,-1.5 2.2,-1.62 4.54,-3.08 6.52,-4.98 2.36,-11.7 2.6,-23.7 4.1,-35.52 -17.68,-9.22 -35.52,-18.1 -53.3,-27.12 1.34,-1.4 2.76,-2.74 4.18,-4.02 11.34,1.2 22.72,-0.14 34.08,-0.44 z"
       id="path28"
       inkscape:connector-curvature="0"
       style="fill:#f5e5c1" />
    <path
       d="m 565.74,833.28 c 22.84,-1.66 45.6,-4.22 68.46,-5.2 -0.54,3.24 1.5,7.6 -1.3,10.08 -83.82,7.18 -167.7,13.9 -251.54,20.9 -0.14,-3.4 -0.3,-6.78 -0.44,-10.16 61.6,-5.48 123.22,-10.36 184.82,-15.62 z"
       id="path30"
       inkscape:connector-curvature="0"
       style="fill:#f5e5c1" />
    <path
       d="m 656.46,839.64 c 39.42,15.74 78.44,32.46 117.72,48.5 6.98,3.02 14.34,6.04 19.84,11.44 3.06,5.82 6.24,11.96 7.18,18.5 -1.04,11.04 -2.96,22 -4.62,32.98 -45.54,-7.88 -91.08,-15.7 -136.62,-23.54 -6.02,-1.12 -12.2,-1.6 -18.02,-3.48 -7.06,-5.56 -12.4,-12.96 -18.72,-19.3 1.88,-11.1 1.14,-22.7 4.16,-33.54 9,-11.12 19.48,-20.96 29.08,-31.56 z"
       id="path32"
       inkscape:connector-curvature="0"
       style="fill:#f5e5c1" />
    <path
       d="m 385.84,865.22 c 83.12,-6.78 166.22,-14.08 249.38,-20.44 -2.98,12.66 -15.16,20.28 -20.12,31.94 -1.62,12.98 -2.74,26.18 -2.54,39.26 7.02,17.4 16.16,33.96 23.56,51.24 -23,-0.06 -46.02,-0.24 -69.02,-0.26 -4.52,-6.62 -9.64,-13.02 -16,-17.94 -6.66,-3.28 -13.8,-5.68 -21,-7.38 -9.38,-0.96 -18.74,0.8 -28.1,0.9 -13.24,0.36 -26.8,2.4 -38.48,8.98 -5.88,4.14 -8.2,11.28 -10.72,17.66 -21.76,3.24 -43.52,6.48 -65.3,9.62 0.14,-4.08 -0.54,-8.34 1,-12.22 4.22,-11.66 10.1,-22.72 13.76,-34.56 1.12,-17.26 -0.32,-34.58 -0.76,-51.86 -5.16,-5.04 -10.42,-9.98 -15.66,-14.94 z"
       id="path34"
       inkscape:connector-curvature="0"
       style="fill:#f5e5c1" />
    <path
       d="m 334.88,873.16 c 9.54,-3.3 18.64,-7.78 28.46,-10.28 9.66,7.88 19.72,15.24 29.48,22.96 -0.18,11.24 0.48,22.62 -1.32,33.76 -5.96,10.08 -14.28,18.54 -22,27.26 -48.84,5.58 -97.64,11.4 -146.5,16.86 0.7,-11.86 0.52,-23.8 2.14,-35.56 5.2,-8.72 9.76,-20.08 20.5,-22.98 29.78,-10.58 59.48,-21.4 89.24,-32.02 z"
       id="path36"
       inkscape:connector-curvature="0"
       style="fill:#f5e5c1" />
    <path
       d="m 740.78,948.46 c 10.6,1.82 21.16,3.94 31.82,5.42 0.4,3.14 0.78,6.28 1.18,9.44 -9.98,0.16 -19.94,0.46 -29.92,0.46 -1,-5.12 -2.04,-10.22 -3.08,-15.32 z"
       id="path38"
       inkscape:connector-curvature="0"
       style="fill:#f5e5c1" />
    <path
       d="m 290.16,964.46 c 9.46,-1.42 17.62,4.54 25.66,8.52 -29.28,2.36 -58.56,4.7 -87.84,6.78 -3.28,0.3 -6.44,1.08 -9.48,2.36 3.94,-5.66 11.44,-8.36 17.58,-11.22 17.94,-2.68 36.08,-4.16 54.08,-6.44 z"
       id="path40"
       inkscape:connector-curvature="0"
       style="fill:#f5e5c1" />
    <path
       d="m 718.28,971.52 c 26.62,-0.3 53.22,-0.44 79.84,-0.94 5.18,-0.88 8.86,3.22 12.7,5.92 -34.54,2.52 -69.12,4.38 -103.68,6.62 3.72,-3.86 7.46,-7.7 11.14,-11.6 z"
       id="path42"
       inkscape:connector-curvature="0"
       style="fill:#f5e5c1" />
    <path
       d="m 387.46,987.7 c 21.3,-3.12 42.62,-6.24 63.92,-9.48 0.26,8.98 0.84,17.98 0.74,26.98 -20.8,1.62 -41.6,3.28 -62.42,4.64 -0.66,-7.4 -1.38,-14.78 -2.24,-22.14 z"
       id="path44"
       inkscape:connector-curvature="0"
       style="fill:#f5e5c1" />
    <path
       d="m 569.36,978.32 c 22.12,-0.1 44.22,-0.9 66.34,-0.84 0.92,9.2 1.7,18.4 2.36,27.62 -22.88,0 -45.74,-0.02 -68.6,0 0.04,-8.92 0.08,-17.86 -0.1,-26.78 z"
       id="path46"
       inkscape:connector-curvature="0"
       style="fill:#f5e5c1" />
    <path
       d="m 212.6,986.38 c 38.4,-2.92 76.88,-5 115.34,-7.24 1.64,9.74 3.56,19.44 5.42,29.16 -40.52,1.12 -81.04,2.04 -121.56,3.04 -0.1,-8.34 -0.22,-16.68 0.8,-24.96 z"
       id="path48"
       inkscape:connector-curvature="0"
       style="fill:#f5e5c1" />
    <path
       d="m 702.56,991.72 c 36.74,-2.64 73.48,-5.34 110.2,-8.3 2,7.16 3.88,14.34 5.92,21.5 -39,1.3 -78.02,1.98 -117.04,2.52 0.06,-5.26 0.3,-10.5 0.92,-15.72 z"
       id="path50"
       inkscape:connector-curvature="0"
       style="fill:#f5e5c1" />
  </g>
</svg>
