<?xml version="1.0" encoding="UTF-8" standalone="no"?>
<svg
   xmlns:dc="http://purl.org/dc/elements/1.1/"
   xmlns:cc="http://creativecommons.org/ns#"
   xmlns:rdf="http://www.w3.org/1999/02/22-rdf-syntax-ns#"
   xmlns:svg="http://www.w3.org/2000/svg"
   xmlns="http://www.w3.org/2000/svg"
   xmlns:sodipodi="http://sodipodi.sourceforge.net/DTD/sodipodi-0.dtd"
   xmlns:inkscape="http://www.inkscape.org/namespaces/inkscape"
   width="1280"
   height="1280"
   viewBox="0 0 1024 1024"
   version="1.1"
   id="svg2"
   inkscape:version="0.48.1 "
   sodipodi:docname="upgrade_buildings.svg">
  <metadata
     id="metadata50">
    <rdf:RDF>
      <cc:Work
         rdf:about="">
        <dc:format>image/svg+xml</dc:format>
        <dc:type
           rdf:resource="http://purl.org/dc/dcmitype/StillImage" />
      </cc:Work>
    </rdf:RDF>
  </metadata>
  <defs
     id="defs48" />
  <sodipodi:namedview
     pagecolor="#ffffff"
     bordercolor="#666666"
     borderopacity="1"
     objecttolerance="10"
     gridtolerance="10"
     guidetolerance="10"
     inkscape:pageopacity="0"
     inkscape:pageshadow="2"
     inkscape:window-width="1920"
     inkscape:window-height="1018"
     id="namedview46"
     showgrid="false"
     inkscape:snap-page="true"
     fit-margin-top="0"
     fit-margin-left="0"
     fit-margin-right="0"
     fit-margin-bottom="0"
     inkscape:zoom="0.6609375"
     inkscape:cx="466.00473"
     inkscape:cy="640"
     inkscape:window-x="-8"
     inkscape:window-y="-8"
     inkscape:window-maximized="1"
     inkscape:current-layer="layer1" />
  <g
     inkscape:groupmode="layer"
     id="layer1"
     inkscape:label="background">
    <rect
       style="fill:#3e3e3e;fill-opacity:1;fill-rule:nonzero;stroke:none"
       id="rect3036"
       width="1024"
       height="1024"
       x="0"
       y="0" />
  </g>
  <g
     inkscape:groupmode="layer"
     id="layer2"
     inkscape:label="foreground">
    <path
       style="fill:#f5e5c1"
       d="m 482,0 c -4.34,7.36 -9.24,14.48 -12.5,22.4 -5.8,15.52 -9.78,31.64 -15.4,47.2 -4.66,8 -10.04,17.9 -20.1,19.5 -6.52,1.56 -13.15,4.57 -16.85,10.45 -6.6,9.68 -5.8,22.49 -1.9,33.05 15.14,2.72 31.96,8.94 46.4,0.5 10.96,-6.42 20.51,-15.5 27.65,-26 9.94,-19.88 17.14,-41.02 24.4,-62 2.08,-5.24 3.39,-11.51 8.25,-14.95 6.02,-3.78 13.29,-6.75 20.45,-4.65 26.64,6.52 53.13,13.55 79.75,20.05 4.94,1.46 10.58,2.53 14.1,6.65 2.7,9.08 -0.45,18.42 -2.45,27.3 -5.96,27.58 -12.95,56.39 -5.95,84.45 3.6,12.28 13.87,25.81 28.25,23.35 1.6,-1.72 3.26,-3.4 4.9,-5.1 0.14,-3.08 0.26,-6.2 0.4,-9.3 10.94,-11.02 18.93,-24.49 25.35,-38.55 -7,-12.66 -4.55,-27.81 -0.65,-41.05 C 689.68,80.52 691.98,67.34 691,54 691.64,42.22 686.09,31.45 680.55,21.45 677.27,15.05 670.06,12.69 663.9,10.05 650.78,5.01 637.01,1.66 623.05,0 L 482,0 z m 37.4,14.7 c 0.86,7.62 -7.96,10.13 -9.9,16.75 -9.02,24.48 -16.52,49.8 -29.5,72.6 -6.74,9.92 -15.79,19.02 -27.15,23.4 -8.6,3.64 -18.06,0.6 -26.2,-2.8 0.5,-4.48 -1.45,-10.15 2.25,-13.65 5.26,-6.78 15.71,-2.74 21.35,-8.9 8.54,-7.36 13.01,-17.9 18.05,-27.7 6.16,-12.68 8.6,-27.32 18.1,-38.2 7.18,-11.66 20.2,-18 33,-21.5 z m 153.05,32.85 c 3.06563,0.0687 6.0575,1.4 8.15,4.4 4.3,17.76 -4.63,34.7 -6.65,52.1 -3.56,13.32 2.91,26.59 1.25,39.95 -1.46,4 -5.95,5.29 -9.25,7.25 -6.1,-2.72 -12.03,-7.32 -13.65,-14.1 -1.72,-7.58 -3.86,-15.26 -3.5,-23.1 1.2,-19.7 5.42,-39.13 11.5,-57.85 1.6875,-5.325 7.04062,-8.76445 12.15,-8.65 z"
       id="path6"
       inkscape:connector-curvature="0" />
    <path
       d="m 313.9,53.3 c 7.34,-0.44 14.68,-0.2 22.02,-0.02 -6.72,4.9 -7.72,12.86 -8.14,20.56 -0.82,4.14 0.72,10 -4.28,11.88 -7.38,3.96 -13.56,10.76 -22.1,12.06 -0.06,-6.54 -0.92,-13.18 0.3,-19.64 3.06,-8.76 9.44,-15.92 12.2,-24.84 z"
       id="path12"
       inkscape:connector-curvature="0"
       style="fill:#f5e5c1" />
    <path
       d="m 364.15,60.9 c -6.18,2.78 -12.44,5.5 -19.2,6.6 -3.34,9.5 0.93,22.21 -8.85,28.65 -12.68,8.92 -26.48,16.18 -39,25.4 0.18,8.88 0,17.8 0.3,26.7 22.06,7.06 44.52,12.95 66.7,19.65 3.46,1.3 6.89,-0.68 10.05,-1.9 13.58,-6.44 26.82,-13.56 40.5,-19.8 0.04,-0.82 0.11,-2.46 0.15,-3.3 -13.02,3.96 -24.13,13.18 -37.75,15.1 -3.44,-6.48 -0.45,-13.7 -0.15,-20.5 6.84,-6.1 14.32,-11.37 22,-16.35 0.58,-6.16 0.3,-12.31 -0.1,-18.45 -17.16,-4.56 -34.64,-7.8 -51.9,-12 0.14,-5.56 0.29,-11.18 2.45,-16.4 17.82,1.9 35.14,6.96 52.7,10.5 3.48,-5.22 8.69,-8.76 14.65,-10.6 l 0.8,-2.65 C 399.56,68.85 382.09,63.36 364.15,60.9 z m -59.35,63.95 c 5.08,-0.04 10.26,0.11 15.2,1.45 16.54,4.22 33.27,7.7 49.45,13.2 0.28,5.74 0.15,11.48 -0.45,17.2 -6.86,1.46 -14.1,3.14 -20.9,0.5 -12.4,-4.12 -25.35,-6.7 -37.35,-11.9 -8.46,-3.32 -5.03,-13.49 -5.95,-20.45 z"
       id="path14"
       style="fill:#f5e5c1"
       inkscape:connector-curvature="0" />
    <path
       d="m 244.96,64.38 c 4.1,-1.78 8.42,-4.54 13.06,-2.98 12.36,3.06 24.26,7.68 36.68,10.6 -3.42,9.64 -3.5,19.84 -2.76,29.92 -0.84,14.76 -0.8,29.56 -1.1,44.34 0.48,4.72 -4.66,9.6 -9.34,7.64 -40.1,-11.34 -80.18,-22.78 -120.32,-34 -5.68,-2.24 -11.22,0.3 -15.5,4.08 -0.5,4.36 -1.3,8.72 -3.02,12.78 -12.1,29.28 -24.3,58.52 -36.32,87.82 -1.48,3.18 -1.08,6.74 -1.04,10.16 6.56,-7.56 8.78,-17.54 12.84,-26.44 11.3,-26.38 21.5,-53.24 33.16,-79.48 5.92,1.82 11.9,3.5 17.94,4.94 -0.22,2.4 -0.42,4.8 -0.64,7.2 5.62,2.18 11.64,2.64 17.62,2.7 0.84,-0.92 2.54,-2.76 3.4,-3.68 142,39.44 283.76,79.9 425.68,119.68 -0.08,3.6 -0.14,7.2 -0.14,10.8 1.68,0.08 3.36,0.16 5.04,0.26 1.94,-2.58 3.88,-5.16 5.82,-7.74 22.24,5.48 44.1,12.44 66.22,18.42 -2.14,3.2 -4.34,6.34 -6.4,9.58 2.76,0.94 5.6,1.58 8.52,1.94 3.44,-1.76 3.98,-5.82 5.48,-9 5.3,1.18 10.6,2.5 15.84,4 59.2,16.72 118.44,33.26 177.76,49.56 -0.22,3.52 -0.42,7.04 -0.5,10.58 9.22,-4.34 11.86,-16.3 12.18,-25.66 4.98,-4.68 10.18,-9.14 15.64,-13.26 5.54,0.08 10.82,-1.46 15.4,-4.58 -1.38,-1.62 -2.74,-3.24 -4.1,-4.86 16.34,-13.58 32.7,-27.16 49.36,-40.36 2.94,-2.18 4.7,-5.44 6.6,-8.48 -3.56,0.04 -7.28,0.38 -9.9,3.06 -25.52,20.66 -51.32,40.94 -77.18,61.16 -3.58,3.48 -8.76,1.54 -12.98,0.72 C 830.02,301.56 771.8,288.5 713.86,274.3 635.7,255.06 558.7,231.56 481.06,210.34 c -0.02,-3.58 -0.08,-7.16 -0.16,-10.74 -5.78,-1.56 -11.68,-2.7 -17.66,-2.96 -0.14,2.9 -0.28,5.82 -0.4,8.72 -27.14,-8.26 -54.54,-15.72 -81.9,-23.22 2.5,-3.82 5.32,-7.56 9.42,-9.76 19.98,-12.1 41.96,-22.78 65.7,-23.64 17.74,-4.56 34.68,-15.78 43,-32.56 38.68,8.86 76.92,19.7 115.38,29.5 5.04,13.32 8.92,27.02 13.52,40.5 2,5.72 3.36,11.78 2.38,17.88 -1.9,12.26 0.04,24.92 -3.44,36.96 2.96,2.96 6.16,5.9 10.42,6.82 28.2,8.04 56.44,16.08 84.6,24.32 4.92,1.32 10.7,2.36 15.18,-0.82 11.02,-7.16 21.74,-14.8 32.58,-22.24 10.8,0 21.6,-0.24 32.4,-0.02 10.82,0.18 21.88,4.56 32.54,0.84 6.9,-2.96 13.14,-7.54 18.08,-13.16 7.3,-9.4 14.16,-20.74 12.3,-33.16 8.78,3.34 18.02,5.2 27.1,7.54 36.28,9.58 72.58,19.14 108.92,28.48 3.14,0.84 6.44,2.02 8.32,4.9 5.14,6.64 9.8,13.64 14.66,20.48 l 0,19.64 c -4.12,-7.36 -7.74,-15.32 -13.88,-21.28 -4.9,-4.8 -11.52,-0.52 -15.68,3.06 -19.66,17.02 -39.78,33.52 -59.5,50.46 -4.4,3.76 -7.22,8.88 -9.54,14.1 -10.96,24.38 -22.64,48.44 -33.68,72.8 -3.7,8.06 -6.62,17.1 -14.2,22.48 -0.46,4.28 -0.34,8.78 -2.2,12.78 -4.6,10.06 -9.22,20.12 -14.44,29.9 -3.08,5.88 -3.56,12.64 -4.42,19.1 -4.18,30.78 -10.32,61.3 -12.2,92.36 10.14,-8.58 18.94,-18.58 28.74,-27.54 1.9,-2.3 5.08,-1.62 7.68,-2 -14.76,15.38 -29.68,30.72 -46.1,44.36 -0.72,-1.88 -1.44,-3.74 -2.14,-5.62 -23.5,-8.9 -47.72,-15.72 -71.48,-23.92 -74.54,-24.36 -149.1,-48.64 -223.58,-73.14 -4.2,-1.28 -8.6,-1.66 -12.94,-2.08 0.06,-1.14 0.18,-3.44 0.24,-4.58 85.58,26.16 170.68,53.92 256.06,80.7 14.5,4.3 28.66,9.9 43.48,13.1 2.7,-27.94 6.84,-55.72 10.96,-83.46 1.04,-7.12 2.72,-14.16 5.54,-20.8 9.26,-22.96 18.3,-46.02 28.5,-68.6 2.66,-5.9 4.68,-12.06 6.04,-18.38 -3.56,0.22 -6.66,1.64 -7.82,5.18 -12.04,25.76 -24.62,51.28 -37.36,76.7 -3.02,6.04 -5.16,12.44 -7.28,18.82 -11.2,-3.26 -22.58,-5.84 -33.94,-8.42 -1.02,-5.74 -2.16,-11.54 -4.86,-16.76 -1.32,-2.42 -2.56,-5.9 -6,-5.08 -5.34,-0.78 -7,5.32 -9.24,8.82 -5.1,-0.44 -10.12,-1.36 -15.18,-2.08 -4.76,0.1 -9.48,3 -14.14,0.64 -13.04,-4.76 -26.48,-8.38 -39.58,-12.92 -17.78,-8.84 -37.2,-13.4 -55.96,-19.6 -10.86,-3.88 -23.26,-5.44 -31.64,-14.12 -4.52,1.08 -9.22,1.26 -13.64,-0.36 C 539.5,400.4 480.4,381.5 421.26,362.66 375.74,350.14 330.88,335.32 285.54,322.1 221.82,302.8 158.08,283.52 94.32,264.34 c 4.88,29.38 11.08,58.56 16.9,87.78 18.08,7.74 36.8,13.9 55.56,19.76 54.46,17.62 108.92,35.28 163.68,51.96 0.96,2.54 1.92,5.1 2.9,7.64 C 293,419.4 253.24,405.42 213.08,392.7 179.44,381.34 145.26,371.36 112.04,358.86 c -7.52,-1.84 -7.98,6.76 -7.62,11.92 11.7,4.64 23.8,8.14 35.74,12.14 48.44,15.66 96.78,31.66 145.22,47.32 16.46,5.3 32.72,11.3 49.5,15.54 0.18,1.16 0.54,3.44 0.7,4.6 -22.66,-5.46 -44.8,-12.9 -67.16,-19.48 -50.76,-15.18 -101.56,-30.26 -152.26,-45.6 12.34,61.14 24.26,122.36 37.1,183.38 44.48,15.88 88.96,31.8 133.44,47.68 40.84,14.22 81.26,29.76 122.36,43.24 -6.72,3.28 -12.72,7.78 -19.3,11.26 -3.8,-0.1 -7.28,-1.76 -10.8,-2.96 C 298.56,638.5 217.7,610.32 137.44,580.52 118.68,477 100.14,373.46 81.28,269.98 c -1.3,-7.64 -3.84,-15.82 -0.08,-23.18 16.1,-36.44 32.34,-72.86 48.5,-109.3 4.38,-9.36 7.6,-20.66 17.34,-25.92 15.48,-8.2 31.68,-14.98 47.14,-23.18 16.3,-9.3 34.08,-15.54 50.78,-24.02 z"
       id="path16"
       inkscape:connector-curvature="0"
       style="fill:#f5e5c1" />
    <path
       style="fill:#f5e5c1"
       d="m 708.7,128.85 c -3.16688,-0.0188 -6.34501,0.995 -8.1,3.8 -6.66,9.36 -12.13,19.58 -16.25,30.3 -1.94,4.28 -3.03,9.43 -7.15,12.25 -10.18,7.32 -16.78,18.64 -27.8,25 -0.72,11.6 -2.34,23.14 -4.4,34.6 26.94,8.16 53.73,16.92 80.95,24.1 4.8,1.28 8.17,-3.72 11.95,-5.8 0.22,-1.04 0.7,-3.14 0.9,-4.2 -1.84,-0.04 -5.54,-0.08 -7.4,-0.1 -0.24,-9 0.33,-18.08 2.15,-26.9 5.68,-4.78 13.48,-6.23 19,-11.35 5.22,-3.56 8.81,-11.14 16.15,-9.5 0.58,7.16 1.38,14.3 2.4,21.4 -9.62,9.72 -20.8,17.91 -32.1,25.55 1.08,0.98 2.15,1.92 3.25,2.9 6.76,-5.68 16.16,-8.65 20.3,-17.05 3.4,-1.62 6.83,-3.21 10.25,-4.85 2.9,-21.06 5.2,-42.34 11.2,-62.8 4.16,-7.96 13.76,-10.46 19.6,-16.6 -2.8,-2.16 -5.75,-4.08 -8.65,-6.1 -27.7,-4.86 -55.45,-9.46 -83.15,-14.3 -0.99499,-0.205 -2.04437,-0.34375 -3.1,-0.35 z m 5.95,7.85 c 0.7813,-0.022 1.57062,-0.0119 2.35,0 3.1175,0.0475 6.21,0.38 9.25,1.2 19.34,5.36 39.46,7.07 59,11.55 l 0,6.6 c -4.1,3.5 -8.17,7.41 -10.15,12.55 -2.34,6.48 -2.64,13.51 -4.8,20.05 -4.34,1.52 -6.08,-2.3 -8,-5.3 -11.02,-1.74 -21.4,-6.22 -32.5,-7.5 -13.14,-1.46 -25.79,-5.56 -38.85,-7.4 4.7,-9.14 8.47,-19.18 16.45,-26.1 0.06,-1.26 0.19,-3.82 0.25,-5.1 2.3175,-0.2625 4.65613,-0.48402 7,-0.55 z m -53,68.15 c 21.84,6.1 43.74,11.98 65.4,18.7 0.3,9.36 -0.02,18.81 -2.2,27.95 -12.74,0.42 -24.65,-5.02 -36.75,-8.2 -10.82,-4.76 -22.54,-7.09 -33,-12.65 -0.04,-7.72 1.23,-15.32 2.45,-22.9 l 4.1,-2.9 z"
       id="path20"
       inkscape:connector-curvature="0" />
    <path
       d="m 806.25,168.8 c -0.72699,0.0164 -1.46875,0.0437 -2.2,0.1 -3.6,1.44 -6.54,4.96 -7,8.9 -3.8,17.88 -7.27,36.02 -8.05,54.3 8.38,0.92 16.69,2.27 25.05,3.25 13.06,2.14 25.51,-7.1 31.15,-18.4 3.46,-5.72 2.37,-12.63 2.25,-18.95 0.2,-8.58 -5.8,-15.25 -9.5,-22.45 -10.36875,-2.94374 -20.79512,-6.99667 -31.7,-6.75 z m 22.45,11.5 c 0.418,-0.0327 0.85374,-0.0263 1.3,0 8.44,-0.74 10.47,9.34 11.45,15.7 1.68,10.18 -4.54,19.43 -11.8,25.85 -2.76,2.46 -6.78,1.07 -10.1,1.35 -7.04,-8.64 -4.5,-20.34 -2,-30.2 1.72501,-5.34374 4.87995,-12.21002 11.15,-12.7 z"
       id="path24"
       style="fill:#f5e5c1"
       inkscape:connector-curvature="0" />
    <path
       d="m 381.4,373.62 c 4.52,-6.76 11.88,-15.8 21.1,-12.12 23.08,8.1 46.68,14.8 69.38,23.9 -2.9,5.44 -7.76,10.04 -8.3,16.5 -4.66,27.34 -11.22,54.36 -15.24,81.8 -3.34,-0.4 -6.72,-0.74 -9.92,-1.78 -19.88,-6.58 -39.82,-12.96 -59.84,-19.14 0.28,-29.74 0.5,-59.54 2.82,-89.16 z"
       id="path30"
       inkscape:connector-curvature="0"
       style="fill:#f5e5c1" />
    <path
       d="m 1024,385 c -3.06,11.6 -3,25.72 -13.1,33.9 -29.9,28.06 -58.74,57.23 -88.3,85.65 -13.78,14.02 -30.28,25.99 -39.2,44.05 26.08,-24.3 51.34,-49.41 76.9,-74.25 19.38,-18.02 38.06,-36.8 57,-55.3 0.96,-0.02 2.87,-0.03 3.85,-0.05 -0.08,0.9 -0.19,2.7 -0.25,3.6 -27.1,24.96 -52.63,51.54 -79.65,76.6 -32.1,31.96 -65.29,62.8 -97.35,94.8 -6.34,7.08 -17.26,7.96 -25.7,4.5 -89.66,-29.52 -179.37,-58.86 -269.15,-88.1 -9.06,-3.08 -18.14,-6.49 -27.7,-7.65 0.02,1.02 0.13,3.05 0.15,4.05 99.58,32.38 199.71,63.04 299.35,95.3 -8.66,65.28 -16.57,130.68 -25.75,195.9 -54.56,-19.2 -108.86,-39.16 -163.5,-58.1 3,7.5 6.06,14.98 9.3,22.4 52.6,18.4 104.84,37.79 157.4,56.35 5.32,2.56 9.6,-2.15 13.3,-5.25 51.02,-46.88 100.75,-95.19 151.25,-142.65 3.16,-3.02 5.49,-6.84 6.55,-11.1 12.12,-48.94 24.41,-97.83 36.65,-146.75 5.92,-24.58 12.97,-48.95 17.95,-73.75 l 0,-54.15 z m -12.85,52.9 c -18.36,72.88 -36.54,145.8 -54.8,218.7 -1.12,3.16 -4,5.27 -6.2,7.65 -41.84,40.16 -83.93,80.04 -125.85,120.1 -3.12,3.34 -6.39,7.09 -11.45,6.75 7.6,-38.06 11.23,-76.78 17.35,-115.1 2.84,-23.98 7.2,-47.77 9.8,-71.75 15.18,-16.18 31.57,-31.28 47.35,-46.9 30.56,-28.8 59.78,-58.91 90.4,-87.65 11.28,-10.44 21.4,-22.22 33.4,-31.8 z"
       id="path32"
       style="fill:#f5e5c1"
       inkscape:connector-curvature="0" />
    <path
       d="m 355.6,387.25 c -9.54,3.98 -14.78,13.96 -18.8,22.9 -0.68,11.48 3.69,22.52 4.65,33.9 8.46,52.24 17.72,104.37 28.1,156.25 11.18,6.02 23.15,10.4 34.85,15.3 18.9,7.58 37.57,15.77 56.45,23.35 6.18,2.26 11.73,-2.31 16.65,-5.35 7.26,-5.02 16.48,-9.92 18.3,-19.4 6.56,-38.66 11.22,-77.7 18.6,-116.2 0.4,-4.1 0.74,-8.2 1,-12.3 l 1.1,-1.5 c 0.3,-12.2 4.58,-24.26 2.4,-36.5 -0.52,-3.52 -2.71,-6.76 -5.95,-8.3 -10.54,-5.22 -21.35,-9.89 -31.95,-14.95 -2.76,-1.48 -6.29,-2.36 -9.05,-0.4 -6.02,2.84 -4.86,10.38 -6.1,15.8 -0.32,7.74 -3.62,15.36 -2.6,23.1 4.2,6.02 12.75,1.51 17.85,6.35 -2.44,8.7 -1.76,17.8 -2.7,26.7 -5.16,45.02 -8.31,90.25 -13.65,135.25 -3.52,-0.04 -7.2,0.31 -10.4,-1.45 -23.46,-10.7 -46.92,-21.43 -70.6,-31.65 -4.36,-1.8 -8.72,-5.13 -9,-10.25 -5.52,-29.52 -11.04,-59.03 -16.6,-88.55 -1.02,-3.2 -2.93,-6.01 -4.65,-8.85 0.7,-22.64 -7.42,-44.24 -10.8,-66.4 -0.4,-3.02 0.25,-6 0.55,-9 7.56,-0.08 13.59,5 19.85,8.5 0.36,-9.9 0.99,-19.8 1.45,-29.7 1.02,-5.04 -5.29,-6.45 -8.95,-6.65 z m 150.4,65.4 c 1.28,0.82 3.79,2.51 5.05,3.35 -7.26,52 -15.13,103.9 -22.55,155.9 -2.48,6.96 -6.85,13.36 -12.65,18 -2.38,-2.22 -3.53,-4.89 -3.45,-8.05 -0.28,-14.04 1.95,-27.93 3.25,-41.85 4.6,-39.46 8.18,-79.06 13.5,-118.4 5.38,-3.42 11.01,-6.43 16.85,-8.95 z"
       id="path34"
       style="fill:#f5e5c1"
       inkscape:connector-curvature="0" />
    <path
       d="m 479.45,659.8 c -4.99378,0.0611 -9.98875,0.39125 -14.95,0.95 -50.66,6.14 -94.93,41.6 -116.65,87.1 -20.1,41.5 -23.35,90.87 -8.45,134.55 10.1,30.52 29.27,58.06 54.75,77.7 24.46,18.76 54.93,30.29 85.95,29.95 31.7,0.92 63.31,-10.15 88.25,-29.55 25.32,-19.3 44.49,-46.4 54.75,-76.5 15,-42.38 12.71,-90.46 -5.75,-131.4 -15,-33.86 -41.75,-62.74 -75.15,-79 -19.45125,-9.62 -41.11034,-14.06501 -62.75,-13.8 z m 0.65,100.55 c 11.05594,-0.25219 22.13,2.18 31.85,7.55 23.16,12.04 37.54,36.9 40.8,62.3 2.02,18.5 1.09,38.09 -7.55,54.95 -10.12,21.44 -29.85,38.75 -53.35,43.55 -16.44,3.2 -33.57,-1.93 -47.05,-11.45 -18.64,-13 -30.63,-34.47 -33.55,-56.85 -2.28,-20.3 -0.37,-41.61 9.15,-59.95 9.4,-19.3 27.42,-34.75 48.7,-38.95 3.62499,-0.67501 7.31469,-1.06594 11,-1.15 z"
       id="path40"
       style="fill:#f4722b"
       inkscape:connector-curvature="0" />
    <path
       d="m 69.5,664.02 c 79.36,0 158.7,-0.08 238.04,0.04 -0.08,31.28 -0.08,62.58 0,93.88 -54,0.14 -108.02,0 -162.04,0.08 0,16.8 -0.02,33.62 0.02,50.42 27.1,0.22 54.86,1.56 80.5,11.1 14.96,5.6 29.5,14.94 37,29.52 11.68,23.26 12.5,51.88 1.4,75.54 -9.32,20 -25.9,36.04 -45.22,46.44 -25.06,13.64 -53.64,19.36 -81.9,21.24 -3.56,-18.36 -6.5,-36.82 -10.02,-55.16 18.06,-1.72 36.48,-4.4 52.84,-12.72 8.44,-4.38 16.32,-11.2 19.36,-20.48 2.12,-7.72 1.68,-17.12 -4.32,-23.04 -7.4,-7.52 -18.22,-9.86 -28.26,-11.44 -32.4,-3.86 -64.94,0.9 -97.4,0.58 0,-68.68 -0.02,-137.34 0,-206 z"
       id="path42"
       inkscape:connector-curvature="0"
       style="fill:#f5722c" />
  </g>
</svg>
