<?xml version="1.0" encoding="UTF-8" standalone="no"?>
<svg
   xmlns:dc="http://purl.org/dc/elements/1.1/"
   xmlns:cc="http://creativecommons.org/ns#"
   xmlns:rdf="http://www.w3.org/1999/02/22-rdf-syntax-ns#"
   xmlns:svg="http://www.w3.org/2000/svg"
   xmlns="http://www.w3.org/2000/svg"
   xmlns:sodipodi="http://sodipodi.sourceforge.net/DTD/sodipodi-0.dtd"
   xmlns:inkscape="http://www.inkscape.org/namespaces/inkscape"
   width="1280"
   height="1280"
   viewBox="0 0 1024 1024"
   version="1.1"
   id="svg2"
   inkscape:version="0.48.1 "
   sodipodi:docname="waste_metal_grind.svg">
  <metadata
     id="metadata86">
    <rdf:RDF>
      <cc:Work
         rdf:about="">
        <dc:format>image/svg+xml</dc:format>
        <dc:type
           rdf:resource="http://purl.org/dc/dcmitype/StillImage" />
      </cc:Work>
    </rdf:RDF>
  </metadata>
  <defs
     id="defs84" />
  <sodipodi:namedview
     pagecolor="#ffffff"
     bordercolor="#666666"
     borderopacity="1"
     objecttolerance="10"
     gridtolerance="10"
     guidetolerance="10"
     inkscape:pageopacity="0"
     inkscape:pageshadow="2"
     inkscape:window-width="1920"
     inkscape:window-height="1018"
     id="namedview82"
     showgrid="false"
     inkscape:snap-page="true"
     fit-margin-top="0"
     fit-margin-left="0"
     fit-margin-right="0"
     fit-margin-bottom="0"
     inkscape:zoom="0.6609375"
     inkscape:cx="466.00473"
     inkscape:cy="640"
     inkscape:window-x="-8"
     inkscape:window-y="-8"
     inkscape:window-maximized="1"
     inkscape:current-layer="layer1" />
  <g
     inkscape:groupmode="layer"
     id="layer1"
     inkscape:label="background">
    <rect
       style="fill:#3e3e3e;fill-opacity:1;fill-rule:nonzero;stroke:none"
       id="rect3081"
       width="1024"
       height="1024"
       x="5.3290705e-015"
       y="0" />
  </g>
  <g
     inkscape:groupmode="layer"
     id="layer2"
     inkscape:label="foreground">
    <path
       d="m 224.75,49.85 c -4.65968,0.12531 -9.32,0.605 -13.9,1.4 -17.16,3.24 -33.06,11.97 -45.6,24.05 -22.68,21.48 -33.79,53.88 -30.85,84.8 2.14,24.82 13.36,48.94 31.8,65.8 16.5,15.44 38.96,24.9 61.7,24.2 27.48,0.46 53.98,-13.91 70.6,-35.45 16.98,-21.38 24.36,-49.75 21.1,-76.75 -3.52,-33.2 -24.02,-64.64 -54.3,-79.3 -12.52499,-6.36 -26.57094,-9.12594 -40.55,-8.75 z m 2.7,60.45 c 10.48125,0.1275 20.85,4.41 28.35,11.85 20.56,20.32 21.26,57.71 0.6,78.25 -8.46,8.52 -20.35,14.31 -32.55,13.05 -14.28,-1.46 -26.87,-11.17 -33.65,-23.55 -7.56,-13.36 -8.31,-29.64 -4.65,-44.3 3.96,-15.56 15.62,-29.8 31.5,-34 3.42,-0.92 6.90626,-1.3425 10.4,-1.3 z"
       id="path6"
       style="fill:#f4722b"
       inkscape:connector-curvature="0" />
    <path
       style="fill:#f4722b"
       d="m 483.25,49.85 c -4.78688,0.10312 -9.59499,0.585 -14.3,1.4 -17.22,3.24 -33.17,11.98 -45.75,24.1 -22.16,21.06 -33.29,52.53 -30.95,82.85 1.72,24.98 12.57,49.44 30.85,66.7 16.64,16.1 39.65,25.94 62.95,25.2 27.48,0.42 53.95,-14.01 70.55,-35.55 16.96,-21.38 24.24,-49.77 21,-76.75 -3.52,-32.62 -23.33,-63.6 -52.85,-78.5 -12.73501,-6.795 -27.13938,-9.75937 -41.5,-9.45 z m 2.2,60.4 c 12.36454,0.15082 24.48,6.2675 32.15,16.05 16.42,20.7 16.22,53.75 -2.3,73.15 -9.28,9.96 -23.33,16.38 -37.05,13.5 -18.52,-3.9 -32.49,-20.56 -35.75,-38.8 -2.4,-13.94 -0.77,-28.96 6.25,-41.4 5.94,-10.58 16.13,-19.04 28.15,-21.6 2.83125,-0.63 5.69664,-0.9348 8.55,-0.9 z"
       id="path8"
       inkscape:connector-curvature="0" />
    <path
       style="fill:#f4722b"
       d="m 684.75,49.85 c -4.6575,0.1225 -9.27,0.61 -13.85,1.4 -19.54,3.68 -37.34,14.47 -50.6,29.15 -18.94,20.88 -28.19,49.8 -26.05,77.8 1.72,24.94 12.58,49.41 30.8,66.65 16.68,16.1 39.66,25.99 63,25.25 27.48,0.4 53.97,-14.02 70.55,-35.6 16.94,-21.38 24.21,-49.72 20.95,-76.7 C 775.99,104.66 755.6,73.22 725.3,58.6 712.79,52.24 698.7225,49.4825 684.75,49.85 z m 2.1,60.45 c 11.57965,-0.06 23.01626,5.105 30.8,13.75 18.38,20.42 18.85,55.23 -0.25,75.35 -8.52,9.1 -20.9,15.35 -33.6,14.05 -13.74,-1.4 -25.89,-10.5 -32.85,-22.2 -8.72,-14.54 -9.41,-32.89 -4.45,-48.85 4.7,-14.88 16.75,-27.9 32.35,-31.2 2.64374,-0.59625 5.32778,-0.88616 8,-0.9 z"
       id="path10"
       inkscape:connector-curvature="0" />
    <path
       style="fill:#f4722b"
       d="m 885.15,49.85 c -4.77718,0.10531 -9.55499,0.58 -14.25,1.4 -17.24,3.26 -33.17,11.99 -45.75,24.15 -22.64,21.5 -33.73,53.92 -30.75,84.8 2.1,24.24 12.9,47.8 30.6,64.6 16.66,16.12 39.68,26.02 63,25.3 27.52,0.42 54,-14.04 70.6,-35.6 16.96,-21.4 24.23,-49.75 20.95,-76.75 -3.52,-32.66 -23.37,-63.62 -52.95,-78.5 -12.72,-6.735 -27.11843,-9.71594 -41.45,-9.4 z m 2.35,60.45 c 10.49531,0.13688 20.85,4.445 28.35,11.9 20.5,20.34 21.21,57.63 0.55,78.15 -8.44,8.54 -20.36,14.36 -32.6,13.1 -13.78,-1.42 -25.98,-10.54 -32.9,-22.3 -8.38,-14.04 -9.26,-31.63 -4.9,-47.15 4.22,-14.98 15.73,-28.32 31.05,-32.4 3.42501,-0.925 6.95157,-1.34563 10.45,-1.3 z"
       id="path12"
       inkscape:connector-curvature="0" />
    <path
       d="m 66.36,51.92 c 15.8,0.54 31.54,2.14 47.34,2.72 -2.5,65.16 -5.7,130.3 -8.3,195.46 -17.12,-0.52 -34.2,-1.66 -51.28,-2.48 1.56,-45.14 3.62,-90.26 4.92,-135.4 -4.32,4.3 -8.5,8.72 -12.68,13.14 C 38.04,115.56 29.92,105.6 21.58,95.84 36.36,81.04 51.34,66.46 66.36,51.92 z"
       id="path14"
       inkscape:connector-curvature="0"
       style="fill:#f5722c" />
    <path
       d="m 339.5,215.7 c 7.82,-9.04 23.32,-9.4 31.64,-0.86 7.82,7.98 9.26,21.08 4.62,31.06 -6.02,12.62 -16.68,22.28 -27.7,30.54 -3.76,-3.52 -7.48,-7.1 -11.16,-10.7 5.22,-4.28 10.14,-8.88 14.76,-13.8 -5.44,-2.78 -11.76,-5.18 -15.06,-10.68 -4.54,-7.96 -3.48,-18.88 2.9,-25.56 z"
       id="path24"
       inkscape:connector-curvature="0"
       style="fill:#f5722c" />
    <path
       d="m 640.45,262.65 c -5.96813,0.003 -11.98501,3.06499 -17.7,4.55 -18.24,5.38 -33.89,19.98 -38.45,38.7 -1.9,8.82 -0.64,17.88 -1.2,26.8 8.28,5.44 17.69,8.68 26.15,13.8 4.12,2.3 8.12,4.95 12.6,6.55 10.94,-1.04 21.92,-4.09 31.5,-9.55 7.06,-5.56 14.84,-10.73 20.1,-18.15 4.6,-9.88 4.59,-21.13 5.95,-31.75 -6.18,-6.8 -12.8,-13.18 -18.5,-20.4 -3.56,-4.74 -8.94,-7.61 -14.5,-9.35 -1.97501,-0.84 -3.96062,-1.20094 -5.95,-1.2 z m -4.25,10.85 c 3.24,1.7 1.23,6.1 -0.25,8.4 -5.38,7.98 -10.09,16.5 -16.15,24 -6.64,7.12 -14.48,13.43 -23.6,17.05 -2.04,-0.94 -4.09,-1.87 -6.15,-2.75 0.98,-7 1.63,-14.48 6.05,-20.3 5.94,-9.9 15.74,-16.4 25.3,-22.4 4.42,-2.7 9.62,-4.08 14.8,-4 z"
       id="path26"
       style="fill:#f5e5c1"
       inkscape:connector-curvature="0" />
    <path
       style="fill:#f5e5c1"
       d="m 160.1,284.4 c -14.9,14.14 -29.77,28.29 -44.75,42.35 2.52,2.62 5.04,5.22 7.6,7.8 13.72,-12.1 25.29,-26.84 40.75,-36.8 4.72,4.34 9.51,8.93 11.65,15.15 9.38,23.92 18.77,47.86 28.35,71.7 1.48,4.04 3.01,8.54 1.45,12.8 -1.86,3.82 -5.29,6.56 -8.25,9.5 -23.06,20.88 -45.35,42.64 -66.65,65.3 -5.26,5.42 -9.79,11.6 -15.75,16.3 -4.82,2.38 -11.84,0.69 -13.6,-4.85 -5.58,-14.52 -9.7,-29.58 -14.7,-44.3 -1.98,-7.38 -8.91,-11.48 -14.15,-16.4 6.72,25.56 13.32,51.14 19.6,76.8 26.28,19.26 52.4,38.68 78.7,57.9 4.84,3.68 10.62,6.78 13.5,12.4 10.24,20.16 17.62,41.59 27.4,61.95 -3.7,8.48 -3.26,17.9 -4.7,26.9 -10.22,-15.84 -18.91,-32.56 -28.95,-48.5 -2.82,-4.08 -6.12,-9.14 -11.7,-9.1 -12.74,-1.1 -25.42,-2.94 -38.2,-3.3 -9.74,6.44 -14.56,19.11 -26.1,23.45 -19.28,7.82 -39.92,11.58 -59.4,18.8 -6.02,3.84 -8.83,11.04 -14.25,15.6 -5.26,4.32 -10.77,8.37 -15.65,13.15 -4.12,0.48 -8.2,0.95 -12.3,1.45 l 0,289 c 10.2,3.66 20.74,6.25 31.1,9.45 -4.86,-31.72 -9.51,-63.48 -14.35,-95.2 -1.36,-7.6 2.56,-14.5 5.7,-21.1 18.9,-38.7 37.28,-77.72 56.2,-116.4 2.44,-5.04 5.66,-10.56 11.5,-12 8.06,-2.1 16.51,-3.23 24.85,-2.55 8.32,1.22 13.83,8.31 20.05,13.25 42.26,35.1 84.27,70.45 126.45,105.65 4.22,3.76 9.88,7.15 10.8,13.25 1.32,6.08 -1.93,12.02 -6.15,16.2 -18.26,18.18 -35.68,37.3 -56,53.3 10.06,10.48 18.85,22.59 31.25,30.45 25.88,-19.72 53.08,-37.63 79.1,-57.15 11.82,-8.18 23.65,-16.36 35.15,-25 7.34,-5.36 15.06,-11.19 24.4,-12.25 6.76,-1.2 13.58,0.1 20.2,1.6 0.46,-2.94 0.91,-5.91 1.35,-8.85 -5.58,-2.82 -12.11,-4.48 -16.45,-9.2 -3.12,-5.46 -3.15,-12.05 -4.45,-18.05 -7.04,4.14 -14.2,9.02 -22.7,9 -14,0.5 -28.02,3.86 -42,1.4 -23.12,-3.34 -46.96,-7.84 -67.1,-20.3 -11.76,-9.52 -24.42,-18.1 -34.8,-29.2 -5.96,-6.2 -8.22,-15.35 -6,-23.65 3.28,-14.18 6.73,-28.36 9.85,-42.6 2.06,-10 8.52,-18.14 12.8,-27.2 1.16,-2.52 -0.1,-5.29 -1,-7.65 2.82,-3.46 5.61,-6.93 8.35,-10.45 7.14,-2.02 14.19,-5.13 21.75,-4.95 16.66,-0.16 33.62,-2.85 50,1.45 14.04,4.04 29.67,1.44 42.75,8.8 6.82,3.88 14.3,6.66 20.6,11.4 10.24,8.56 19.07,18.76 26.55,29.8 5.78,8.54 1.38,18.97 -0.7,27.95 2.22,0.68 4.43,1.35 6.65,2.05 4.68,-5.74 10.49,-11.7 18.35,-12.2 8.22,-0.18 16.13,2.76 24.15,4.2 8.54,-5.82 19.85,-7.61 26.15,-16.45 14.7,-17.96 31.05,-34.73 42.85,-54.85 1.18,-2.74 2.25,-5.55 3.25,-8.35 -8.84,1.12 -18.07,3.27 -26.75,0.15 -13.86,-4.56 -27.97,-9.9 -39.15,-19.6 -22.86,-16.82 -42.88,-37.33 -60.2,-59.75 -6.74,-7.52 -13.23,-15.28 -18.35,-24 -7.16,-12.08 -18.36,-21.77 -22.3,-35.65 -35.78,32.04 -73.19,62.4 -109.05,94.3 -1.5,12.24 1.11,24.51 3.55,36.45 -3.08,0.94 -6.2,1.88 -9.3,2.8 -9.58,-14.48 -18.31,-29.58 -25.25,-45.5 -4.06,-9.02 -5.23,-18.91 -7.45,-28.45 6.46,4.9 12.77,10.05 19.45,14.65 4.72,3.4 10.92,2.45 16.4,2.45 7.32,0.64 11.82,-6 16.8,-10.2 27.12,-25 54.73,-49.48 81.95,-74.4 1.16,-8.12 3.07,-16.15 3.65,-24.35 -2.02,-6.22 -5.81,-11.61 -8.85,-17.35 -8.96,-16.38 -18.06,-32.7 -27.2,-49 -5.18,-9.14 -9.59,-19.09 -17.65,-26.15 C 251.99,363.47 214.66,325.9 174.8,291.1 c -3.98,-3.9 -9.5,-5.28 -14.7,-6.7 z m 57.45,107.5 c 6.78,2.92 12.05,8.13 17.75,12.65 31.24,24.84 62.32,49.92 93.6,74.7 3.38,2.86 7.19,6.03 7.95,10.65 -0.88,6.34 -2.8,12.43 -4.3,18.65 -40.36,-32.78 -80.07,-66.39 -119.95,-99.75 2.06,-5.52 3.51,-11.2 4.95,-16.9 z m -92.9,103.05 c 40.16,30.58 78.87,63.08 118.85,93.9 -5.36,0.84 -10.76,1.72 -16.1,2.6 -40.26,-30.06 -80.74,-59.75 -120.8,-90.05 6.28,-1.34 12.67,-2.75 18.05,-6.45 z"
       id="path30"
       inkscape:connector-curvature="0" />
    <path
       d="m 52.78,316.7 c 7.52,-6.5 15.6,-13.36 25.34,-15.94 4.32,1.66 7.36,5.32 10.52,8.54 18.94,20.44 38.82,40 57.8,60.42 5.74,8.86 4.86,20.38 2.52,30.24 -5.34,11.62 -15.68,20.2 -26.66,26.3 -8.4,3.92 -17.3,8.86 -26.92,6.84 C 71.66,411.44 46.72,391.16 22.42,370.14 24.38,349.06 36.6,329.9 52.78,316.7 z"
       id="path32"
       inkscape:connector-curvature="0"
       style="fill:#f5e5c1" />
    <path
       d="m 695.95,320.85 c -13.62,13.54 -28.46,26.54 -46.8,33.2 9.1,7.34 19.03,13.49 28.75,19.95 10.66,8.36 25.17,4.99 37.35,2.65 -9.32,5.26 -18.79,11.38 -29.95,11.3 2.16,9.54 4.21,19.14 6.25,28.7 2,0.26 4.03,0.52 6.05,0.8 1.44,2.28 2.86,4.55 4.3,6.85 -4.22,6.34 -11.36,5.55 -17.9,4.25 -24.78,35.78 -49.4,71.67 -74.2,107.45 -3.6,5.12 -6.47,10.69 -9.15,16.35 -3.18,8.08 -12.16,10.82 -18.7,15.5 -16.1,10.58 -33.05,19.94 -48.65,31.2 -2.8,23.6 -0.41,47.42 0.05,71.1 -0.04,6.54 1.4,14.17 -3.8,19.25 -9.28,10.4 -19.12,20.28 -28.8,30.3 15.52,-3.16 31.43,-4.36 47.25,-4.4 27.82,3.76 54.15,14.44 81.95,18.4 17.72,2.52 35.09,6.66 52.65,10.1 25.5,-22.1 49.16,-46.22 73.5,-69.6 15.34,-15.2 31.52,-29.54 46.3,-45.3 4.62,5.2 9.22,10.46 13.8,15.7 -38.26,35.08 -76.84,69.82 -115.1,104.9 14.52,2.42 28.95,5.18 43.15,9.1 70.64,15.2 141.16,31.12 211.6,47.2 13.3,2.7 21.88,14.36 29.8,24.4 7.98,12.4 16.48,24.84 20.6,39.2 6.64,20.66 10.58,43.16 5.5,64.6 -1.18,8.8 -1.56,17.94 -5.7,26 -4,7.36 -4.44,16.24 -2.1,24.2 2.86,8.76 13.05,10.43 20.05,14.65 L 1024,832 c -0.56,-4.54 -0.68,-9.18 -1.9,-13.6 -5.16,-7.98 -14.68,-11.1 -21.5,-17.2 -11.26,-18.4 -19.5,-40.04 -38.5,-52.1 -5.12,-1.06 -9.28,3.21 -13.6,5.25 -9.06,5.76 -19.86,7.65 -29.2,12.85 -13.88,7.7 -29.84,9.91 -44.9,14.25 33.54,-28.12 67.2,-56.16 100.8,-84.2 6.12,-5.26 13.51,-9.78 16.65,-17.6 3.34,-7.7 7.98,-14.73 11.7,-22.25 2.86,-5.04 0.3,-10.85 -1.1,-15.95 -11.8,-33.02 -23.69,-66.01 -35.15,-99.15 -2.56,-11.08 -11.44,-18.85 -18.2,-27.45 -4.98,-6.04 -13.73,-5.06 -20.65,-7 -47.54,-8.94 -94.9,-18.82 -142.5,-27.5 -5.82,-0.78 -12.01,-3.1 -17.65,-0.4 -8.84,3.92 -19.4,6.8 -24.5,15.8 -27.96,43.42 -55.83,86.91 -83.75,130.35 -5.48,8.38 -10.35,17.2 -16.95,24.8 -1.72,-14.28 5.16,-27.42 8.9,-40.8 3.08,-11.3 5.89,-22.74 8.25,-34.2 1.7,-9.8 7.64,-18.01 10.9,-27.25 8.5,-18.82 20.62,-35.74 29.1,-54.6 10.2,-19.5 20.99,-38.74 31.45,-58.1 3.94,-7.48 10.14,-15.15 7.3,-24.15 -3.82,-16.96 -3.62,-35.82 -14.4,-50.3 -9.62,-13.5 -19.19,-27.03 -28.65,-40.65 z m 82.25,172.1 c 1.84781,0.005 3.74501,0.28 5.6,0.85 52.04,10.6 104.29,20.31 156.25,31.25 7.34,5.3 13.34,13.14 17.7,21.1 11.24,35.98 21.78,72.17 34.3,107.75 -4.12,5.8 -8.15,11.71 -11.55,17.95 -25.72,-5.16 -50.73,-13.37 -76.55,-18.15 -23.34,-4.18 -46.69,-8.27 -70.05,-12.35 -6.48,-0.58 -10.6,-5.98 -14.9,-10.2 -8.62,-8.9 -19.1,-16.94 -22.7,-29.4 -8,-26.74 -16.98,-53.21 -25.4,-79.85 -2.52,-8.32 -6.7,-16 -8.7,-24.5 5.04,-2.26499 10.45656,-4.46594 16,-4.45 z"
       id="path36"
       style="fill:#f5e5c1"
       inkscape:connector-curvature="0" />
    <path
       d="m 317.22,418.9 c 6.68,0.56 14.06,2.02 19.22,6.48 5.68,11.98 9.08,24.98 15.4,36.68 9.32,16.32 14.12,35.04 25.92,49.94 12.34,20.44 28.42,38.16 43.82,56.3 7.62,10.28 17.2,18.84 25.86,28.22 10.54,11.72 24.06,20.1 36.72,29.26 6.14,4.78 13.82,6.58 21.3,8.06 2.76,-4.12 5.72,-8.1 8.86,-11.92 5.82,7.62 4.18,17.64 4.4,26.56 -11.44,7.64 -25.66,2.98 -37.04,-2.24 -26.24,-16.08 -52.46,-33.9 -70.18,-59.64 -12.14,-18.32 -27.42,-34.26 -39,-52.96 -5.16,-9.2 -13.84,-16.82 -15.36,-27.72 -1.66,-7.38 -2,-15.12 -4.94,-22.16 -11.18,-21.86 -24.7,-42.58 -34.98,-64.86 z"
       id="path42"
       inkscape:connector-curvature="0"
       style="fill:#f5e5c1" />
    <path
       d="m 364.15,427.6 c -3.96,0.02 -7.88,0.84 -11.7,1.8 -2.08,10.08 4.21,19.64 7.75,28.8 9.2,23.18 23.36,43.82 36.9,64.6 12.72,17.24 25.08,34.85 40.8,49.55 17.42,20.42 40.5,34.57 62.7,49.15 3.04,-6.34 6.6,-12.55 8.5,-19.35 -2.94,-7.28 -7.17,-13.94 -10.55,-21 -12.38,-23.5 -23.6,-48.22 -42.1,-67.7 -14.18,-19.58 -31.14,-36.88 -47.5,-54.6 -6.7,-7.48 -15.48,-12.54 -23.5,-18.4 -6.86,-4.66 -13.38,-10.11 -21.3,-12.85 z m 53.7,60.2 c 8.66,0.9 15.45,7.01 20.75,13.45 7.14,9.36 16,17.7 20.5,28.8 0.26,2.46 0.4,4.92 0.4,7.4 -10.5,-3.26 -18.24,-11.74 -25.1,-19.9 -6.68,-9.18 -15.69,-17.75 -16.55,-29.75 z"
       id="path44"
       style="fill:#f5e5c1"
       inkscape:connector-curvature="0" />
    <path
       d="m 796.4,518.65 c -4.65843,0.0441 -9.29,2.04499 -13.4,4.1 -3.04,4.74 0.08,10.45 1.2,15.35 7.04,20.72 14.68,41.26 22,61.9 2,7.06 9.32,10.32 13.5,15.9 5.2,5.08 8.66,13.17 16.4,14.75 42.04,8.66 84.07,17.33 126.05,26.25 2.96,0.1 7.55,2.24 8.95,-1.6 4.86,-6.1 2.1,-14.02 -0.2,-20.5 -7.8,-22.8 -14.89,-45.83 -22.85,-68.55 -5.08,-8.24 -9.25,-19.45 -19.85,-21.55 3.38,6.72 8.25,13.44 7.45,21.4 -0.32,8.08 -7.11,16.47 -15.75,15.75 -6.66,-0.22 -11.9,-5.03 -15.7,-10.05 -6.86,-9.16 -11.84,-21.16 -8,-32.6 -13.58,-2.9 -27.22,-5.34 -40.8,-8.2 5.04,5.5 10.86,11.22 11.5,19.1 0.44,7.04 1.76,15.61 -3.9,21.05 -6.92,6.28 -18.12,4.55 -24.8,-1.25 -12.66,-10.28 -20.58,-29.41 -12.1,-44.65 -8.44,-1.6 -16.77,-3.71 -25.05,-5.95 -1.54499,-0.5 -3.09718,-0.66469 -4.65,-0.65 z m 55.75,62.4 c 3.16485,-0.13458 6.4125,0.7625 9.3,2 10.1,4.44 17.69,14.27 19.45,25.15 1.42,8 -3.88,16.18 -11.1,19.4 -4.46,2.26 -9.26,-0.05 -13.4,-1.85 -8.14,-3.48 -13.88,-11.1 -16.9,-19.2 -2.14,-8.28 -1.23,-19.45 7.15,-23.95 1.7175,-1.00501 3.60109,-1.46926 5.5,-1.55 z m 72.05,12.1 c 4.17419,-0.25958 8.56374,1.10626 12.4,2.55 9.2,3.8 13.92,13.46 16.5,22.5 2.66,10.28 -4.97,25.01 -17.15,22.35 -12.66,-1.66 -19.66,-13.83 -24,-24.55 -3.18,-7.48 -1.11,-17.71 6.75,-21.35 1.75626,-0.92501 3.60264,-1.382 5.5,-1.5 z"
       id="path52"
       style="fill:#f5e5c1"
       inkscape:connector-curvature="0" />
    <path
       d="m 291.25,680.65 c -17.57498,-0.0496 -35.17499,3.6075 -51.95,8.75 -5.94,23.4 -10.86,47.06 -16.7,70.5 -1.64,5.7 -3.05,13.02 2.25,17.3 13.44,12.1 26.69,25.39 43.75,32.25 14.76,7.48 31.49,9.02 47.55,11.9 11.84,2.72 23.81,-0.48 35.75,-0.6 6,-0.56 15.02,0.05 16.8,-7.45 7.18,-27.72 14.72,-55.4 20.7,-83.4 -6.74,-8.34 -12.3,-17.72 -20.6,-24.7 -6.1,-5.74 -14,-8.78 -21.2,-12.8 -9.88,-5.74 -21.57,-6.49 -32.45,-9.15 -7.9,-1.77499 -15.91138,-2.57744 -23.9,-2.6 z M 288,696 c 18.84168,-0.59299 37.91125,4.8175 54.6,13.3 9.34,5.66 19.65,11.99 23.45,22.85 1.5,4.2 2.68,9.74 -0.4,13.5 -10.92,9.12 -26.09,11.15 -39.75,8.55 -16.66,-1.26 -32.66,-8.04 -46,-17.9 -8.58,-5.8 -12.88,-16.17 -13.2,-26.25 -0.64,-5.54 3.23,-10.89 8.35,-12.65 4.2975,-0.81 8.60192,-1.26315 12.95,-1.4 z"
       id="path58"
       style="fill:#f4722b"
       inkscape:connector-curvature="0" />
    <path
       d="m 482.76,740.84 c 19.72,-11.32 43.12,-12.18 65.28,-11.72 19.34,3.18 38.2,8.88 57.18,13.66 14.28,7.66 17.32,25.16 22.94,38.94 5.54,21.6 7.72,44.02 8.16,66.3 -1.46,9.4 -3.86,18.72 -6.76,27.78 -8.58,18.12 -18.7,35.48 -29.24,52.54 -8.08,11.16 -19.28,19.56 -29.44,28.72 -8.62,6.68 -19.56,14.66 -31,10.4 -21.18,-5.22 -42.46,-10.12 -63.72,-15.12 -7.02,-1.82 -15.2,-2.26 -20.24,-8.18 -15.46,-17.56 -30.68,-36.82 -36.24,-60.06 -2.22,-8.78 -3.4,-17.78 -5.6,-26.54 6.88,-4.2 14.24,-7.84 19.96,-13.62 7.1,-6.96 14.98,-13.7 18.9,-23.08 4.66,-11.16 7.5,-23.02 9.06,-35 1.42,-11.44 -0.84,-22.9 -2.82,-34.14 7.28,-4.98 16.62,-5.36 23.58,-10.88 z"
       id="path62"
       inkscape:connector-curvature="0"
       style="fill:#f5722c" />
    <path
       style="fill:#f4722b"
       d="m 114,734.6 c -6.92,0.5 -13.85,1.2 -20.75,2.1 -18.1,37.38 -36.11,74.79 -54.25,112.15 -2.9,6.32 -6.88,12.29 -8.4,19.15 -0.9,8.66 1.65,17.19 2.65,25.75 4.4,31.36 9.36,62.64 13.9,94 1.72,12.3 4.89,24.37 8.55,36.25 l 226.4,0 c -7.46,-7.24 -14.54,-14.82 -21.1,-22.9 -21.46,-28.4 -47.55,-52.84 -71.25,-79.3 12.3,-10.34 25.33,-19.88 37.05,-30.9 11.3,-11.12 22.29,-22.54 33.15,-34.1 C 211.39,815.96 162.54,775.5 114,734.6 z m -8.35,17.5 c -0.64,5.52 -5.59,8.88 -7.45,13.8 2.18,5.88 6.26,14.22 13.8,13.4 5.1,0.76 9.86,-2.05 12.9,-5.95 1.66,-4.5 1.63,-9.39 2.35,-14.05 4.98,6.42 6.93,14.6 8.15,22.5 -3.2,4.92 -8.37,8.54 -13.45,11.4 -7.94,1.94 -16.09,-0.08 -24.05,-0.9 -4.02,-7.66 -7.62,-15.53 -10,-23.85 5.8,-5.56 10.37,-12.69 17.75,-16.35 z m 91.4,73 c 6.2,6.18 4.61,15.78 6.15,23.7 -5.52,2.34 -10.88,5.62 -16.9,6.4 -4.78,-1.8 -9.82,-4.08 -13.1,-8.1 -2.86,-6.46 -2.64,-13.78 -2.4,-20.7 1.88,3.22 3.51,6.6 5.05,10 6.8,4.38 14.63,3.34 21.55,-0.2 -0.18,-3.7 -0.31,-7.42 -0.35,-11.1 z m 26.9,16.9 c 4.3,4.2 8.47,8.48 12.45,13 -19.38,17.16 -38.61,34.48 -58.95,50.5 -5.46,4.34 -11.41,9.14 -13.25,16.2 3.28,6.98 9.12,12.29 14.2,17.95 20.3,21.34 40.09,43.14 59.95,64.9 -10.56,4.22 -21.86,7.95 -33.2,4.25 -13.48,-21.82 -26.98,-43.63 -40.1,-65.65 -5.06,-8.48 -9.9,-18.47 -19.2,-22.95 -35.34,-12.7 -70.78,-25.18 -106.1,-38 -0.92,-2.88 -1.83,-5.74 -2.75,-8.6 1.52,-3 3.04,-5.99 4.6,-8.95 34.9,12.48 69.98,24.5 104.9,36.9 2.88,0.5 6.65,3.31 9.05,0.35 22.86,-19.88 45.3,-40.28 68.4,-59.9 z"
       id="path64"
       inkscape:connector-curvature="0" />
    <path
       d="m 630.8,748.04 c 34.3,4.72 67.7,14.24 101.54,21.38 2.48,6.3 4.94,12.64 7.38,18.96 -18.9,-3.78 -37.82,-7.44 -56.64,-11.68 -0.26,6.52 -0.02,13.16 2.3,19.34 4.26,12.58 6.9,25.6 9.92,38.52 18.16,3.4 36.3,6.84 54.44,10.3 5.14,19.06 -3.62,38.24 -0.48,57.46 17.04,3.24 33.96,7.06 50.96,10.42 2.98,1.14 6.22,0.14 7.36,-3.02 6.96,-16.78 6.62,-35.54 4.1,-53.22 15.78,3.22 31.6,6.16 47.44,9.08 3.88,-18.2 -0.02,-38.28 -12.06,-52.7 -3.4,-4.7 -9.58,-5.08 -14.74,-6.26 -10.86,-1.94 -21.66,-4.16 -32.46,-6.36 -1.72,-5.62 -3.44,-11.24 -5.12,-16.88 52.78,12.1 105.64,23.9 158.46,35.82 4.24,0.98 7.88,3.5 10.9,6.54 9.92,9.28 16.28,21.5 22.98,33.14 6.02,10.48 8.66,22.4 11.56,34 2.88,11.92 2.66,24.38 0.24,36.36 -1.9,9.64 -1.58,20.04 -6.56,28.82 -5.4,9.8 -11.46,19.24 -17.38,28.76 -8.94,14.1 -20.94,25.86 -33.1,37.18 l -652.5,0 c -3.68,-11.6 -6.68,-23.58 -13.04,-34.1 -5.42,-9.08 -10.78,-18.44 -12.6,-29.02 4.34,-3.36 8.64,-6.78 13.16,-9.88 36,-24 70.98,-49.5 106.66,-73.96 7.48,4.62 16.2,8.84 20.28,17.12 5.7,11.88 7.08,25.34 12.9,37.2 4.92,8.64 11.14,17 20.02,21.9 10.84,6.04 19.86,15.84 32.52,18.1 12.9,2.7 25.54,6.56 38.56,8.66 16.04,1.66 32.12,2.96 48.16,4.8 28.2,2.26 56.34,7.26 84.74,5.82 -23.12,-3.92 -45.94,-9.32 -68.92,-13.92 1.48,-13.08 16.54,-15.94 24.08,-24.7 15.62,-17.3 33.08,-34.42 40.9,-56.94 5.44,-13.38 10.76,-27 13.5,-41.22 1.3,-13.26 0.26,-26.7 -1.14,-39.92 -4.08,-22.48 -8.86,-44.98 -18.32,-65.9 z"
       id="path66"
       inkscape:connector-curvature="0"
       style="fill:#f5722c" />
    <path
       d="m 412.68,762.42 c 3.64,-3.46 6.74,-7.78 11.38,-9.96 8.72,-0.42 17,3.22 25.44,4.96 2.7,22 2.28,46.42 -11.02,65.2 -7.2,7.84 -16.64,13.16 -24.48,20.32 -6.26,-3.08 -12.56,-6.1 -18.88,-9 0.84,-8.98 1.88,-17.96 1.9,-26.98 6.64,-3.62 13.88,-7.64 16.74,-15.14 4.88,-9.32 3.48,-20.26 -1.08,-29.4 z"
       id="path68"
       inkscape:connector-curvature="0"
       style="fill:#f5722c" />
    <path
       d="m 388.42,760.16 c 6.76,1.5 13.48,3.2 20.1,5.26 1.8,11.2 1,24.78 -9.42,31.68 -5.58,5.36 -12.8,-0.4 -18.86,-1.84 7.22,-10.14 11.28,-22.72 8.18,-35.1 z"
       id="path72"
       inkscape:connector-curvature="0"
       style="fill:#f5722c" />
    <path
       d="m 0,981.44 c 9.44,2.74 22.7,-2.16 28.54,8.04 8.4,11.5 16.56,23.18 25.18,34.52 L 0,1024 0,981.44 z"
       id="path78"
       inkscape:connector-curvature="0"
       style="fill:#f5722c" />
    <path
       d="m 983.62,1024 c 4.3,-5.48 8.08,-11.32 12.08,-17.02 9.36,5.7 19.02,10.92 28.3,16.76 l 0,0.26 -40.38,0 z"
       id="path80"
       inkscape:connector-curvature="0"
       style="fill:#f5722c" />
  </g>
</svg>
