<?xml version="1.0" encoding="UTF-8" ?>
<!DOCTYPE svg PUBLIC "-//W3C//DTD SVG 1.1//EN" "http://www.w3.org/Graphics/SVG/1.1/DTD/svg11.dtd">
<svg width="512pt" height="512pt" viewBox="0 0 512 512" version="1.1" xmlns="http://www.w3.org/2000/svg">
<path fill="#3e3e3e" opacity="1.00" d=" M 0.00 0.00 L 512.00 0.00 L 512.00 512.00 L 0.00 512.00 L 0.00 0.00 Z" />
<path fill="#f3722b" opacity="1.00" d=" M 69.43 22.13 C 74.52 20.81 78.91 24.54 82.90 27.13 C 93.48 36.77 100.76 49.27 109.54 60.45 C 122.92 78.91 135.63 97.91 146.83 117.78 C 149.01 117.01 151.14 116.08 153.38 115.51 C 156.77 114.73 160.17 115.86 163.47 116.52 C 165.79 121.54 166.08 128.57 171.82 131.04 C 171.12 131.06 169.72 131.11 169.02 131.13 C 171.74 141.25 175.92 151.03 177.36 161.45 C 176.90 163.75 176.16 167.28 173.58 167.85 C 172.18 160.12 170.79 152.37 167.98 145.00 C 164.75 136.34 162.61 126.82 156.67 119.52 C 153.57 119.38 150.46 119.76 147.36 119.46 C 150.55 124.70 152.57 130.51 154.66 136.24 C 156.76 142.24 159.90 147.79 162.38 153.63 C 164.87 159.48 167.21 165.39 169.69 171.24 C 170.74 174.13 172.10 177.22 171.41 180.35 C 170.03 181.86 168.19 182.83 166.45 183.86 C 166.34 185.87 166.27 187.88 166.18 189.90 C 163.38 188.86 160.75 187.45 158.37 185.67 C 150.86 180.03 142.61 175.50 134.89 170.17 C 122.85 163.08 110.70 156.18 98.38 149.60 C 91.22 145.63 83.34 143.22 75.40 141.36 C 77.39 154.18 80.17 166.86 82.87 179.54 C 84.27 184.92 86.56 190.11 86.56 195.77 C 94.04 193.55 101.91 193.39 109.49 191.67 C 110.69 183.24 110.65 174.69 110.29 166.19 C 111.75 166.25 113.20 166.29 114.66 166.32 C 114.62 174.46 114.45 182.60 114.21 190.74 C 134.82 189.97 155.58 188.37 176.04 191.88 C 175.54 192.10 174.54 192.55 174.04 192.78 C 169.52 194.48 165.08 196.91 160.08 196.55 C 144.58 196.35 129.09 197.00 113.60 197.53 C 113.22 201.34 112.75 205.15 112.42 208.96 C 124.81 205.77 137.19 202.23 149.97 200.96 C 156.38 200.09 162.87 200.94 169.17 202.15 C 163.38 204.65 156.97 204.10 150.86 205.01 C 139.87 206.27 129.05 208.66 118.35 211.41 C 116.38 211.97 114.35 212.49 112.60 213.59 C 110.85 219.19 111.64 225.25 110.51 230.99 C 121.94 224.47 133.66 218.46 145.33 212.36 C 152.14 209.10 158.75 204.32 166.68 204.77 C 164.22 208.53 161.14 212.03 157.08 214.09 C 143.86 220.89 130.31 227.05 117.31 234.25 C 114.24 236.21 110.00 238.07 109.76 242.26 C 108.14 256.32 106.73 270.41 105.73 284.53 C 114.76 273.64 121.20 260.90 129.53 249.52 C 139.20 239.49 147.38 228.12 157.38 218.39 C 161.43 214.45 165.05 210.02 169.64 206.67 C 171.48 205.26 173.84 205.04 176.08 205.02 C 175.63 208.08 172.98 209.93 170.94 211.96 C 165.54 216.90 161.06 222.72 156.16 228.15 C 149.04 236.38 141.35 244.18 135.29 253.26 C 131.55 259.10 126.31 263.80 122.81 269.80 C 117.67 278.44 112.54 287.08 107.76 295.93 C 106.61 297.00 105.43 298.06 104.23 299.09 C 102.72 299.70 101.15 300.18 99.61 300.69 C 99.47 299.24 99.36 297.80 99.25 296.35 C 98.06 294.69 96.77 292.98 96.54 290.88 C 94.97 282.10 95.97 273.00 93.62 264.33 C 92.65 261.74 91.22 259.35 90.08 256.83 C 89.14 257.37 88.21 257.91 87.27 258.46 C 87.45 269.52 91.39 280.16 91.41 291.24 C 91.32 293.98 93.42 296.01 94.76 298.20 C 90.21 296.74 85.87 294.75 81.85 292.17 C 78.23 289.60 73.87 291.79 69.88 291.67 C 70.65 289.99 71.14 287.72 73.22 287.22 C 77.58 285.23 82.09 287.53 85.99 289.45 C 84.51 281.53 82.41 273.76 79.76 266.16 C 77.92 267.37 76.19 268.80 74.13 269.63 C 71.81 269.10 70.09 267.16 69.14 265.06 C 71.38 262.28 74.22 260.08 76.87 257.72 C 74.53 248.09 71.72 238.55 68.35 229.22 C 59.73 233.15 51.08 237.06 42.89 241.84 C 50.21 251.51 56.44 262.04 61.17 273.21 C 58.51 271.56 55.39 270.09 53.98 267.10 C 49.88 259.17 44.42 252.08 39.05 244.99 C 33.69 246.38 29.53 251.02 23.77 250.87 C 27.66 247.21 31.66 243.68 35.62 240.10 C 30.44 232.24 23.48 225.76 18.30 217.92 C 21.16 218.68 24.41 219.16 26.45 221.53 C 31.19 226.82 35.54 232.44 40.12 237.86 C 48.97 233.21 58.26 229.51 67.22 225.11 C 64.57 218.52 61.81 211.95 58.30 205.76 C 55.56 200.83 53.98 195.38 51.81 190.20 C 50.37 185.98 45.81 184.04 44.09 179.97 C 39.97 171.62 35.52 163.42 30.32 155.68 C 25.10 148.12 21.32 139.64 15.46 132.51 C 18.19 131.88 20.96 131.42 23.74 131.06 C 34.08 142.58 42.04 155.94 49.64 169.35 C 56.36 179.19 60.12 190.61 65.04 201.37 C 69.97 200.10 74.92 198.87 79.79 197.39 C 78.44 186.77 76.59 176.21 75.12 165.60 C 73.62 157.01 72.97 148.23 70.37 139.88 C 66.95 138.98 63.55 137.94 60.48 136.16 C 63.57 135.73 66.69 135.61 69.80 135.57 C 68.33 131.47 67.14 127.26 66.54 122.93 C 68.46 124.44 70.52 125.88 71.92 127.93 C 73.08 130.95 73.17 134.33 74.75 137.20 C 79.43 139.51 84.97 138.96 89.61 141.41 C 97.93 145.42 106.13 149.66 114.58 153.40 C 123.27 157.19 130.82 163.06 139.32 167.21 C 138.59 163.83 138.23 159.98 135.39 157.62 C 126.28 149.40 117.41 140.93 108.35 132.66 C 98.47 124.51 88.41 116.59 78.39 108.61 C 66.51 99.78 54.40 91.27 42.43 82.56 C 31.89 75.62 21.03 69.16 10.53 62.15 C 11.07 61.12 11.61 60.10 12.14 59.07 C 21.17 64.33 30.24 69.54 39.36 74.65 C 42.53 76.56 46.79 74.59 49.64 77.30 C 64.51 89.00 79.18 100.97 94.11 112.60 C 95.56 112.16 97.02 111.72 98.48 111.29 C 109.44 120.72 120.54 130.01 131.07 139.91 C 134.41 143.26 137.79 146.60 141.67 149.32 C 132.44 136.04 122.30 123.40 112.34 110.66 C 106.24 103.47 100.76 95.59 93.28 89.72 C 91.09 87.95 89.05 86.01 87.11 83.98 C 89.83 83.17 93.13 81.00 95.73 83.27 C 101.29 87.32 105.47 92.88 110.03 97.96 C 114.63 103.05 118.19 109.06 123.44 113.56 C 127.83 117.04 129.59 122.60 133.40 126.58 C 138.25 131.99 142.98 137.52 147.85 142.92 C 144.75 132.24 139.92 122.14 134.47 112.48 C 123.48 94.29 112.55 76.03 100.47 58.53 C 94.31 49.22 87.30 40.48 79.67 32.32 C 76.73 29.15 73.30 26.46 69.44 24.49 C 69.44 23.90 69.43 22.72 69.43 22.13 Z" />
<path fill="#f3722b" opacity="1.00" d=" M 330.48 30.45 C 334.22 26.20 339.28 23.06 344.82 21.82 C 345.07 23.89 346.18 26.49 344.05 27.97 C 333.67 36.89 323.10 45.81 314.23 56.28 C 316.57 61.95 319.90 67.21 322.18 72.94 C 326.64 69.63 330.74 65.56 336.15 63.81 C 333.13 68.94 327.93 72.12 323.73 76.16 C 326.53 82.71 329.26 89.32 332.72 95.56 C 343.45 85.46 352.97 73.74 365.70 66.03 C 366.41 67.03 367.14 68.03 367.90 69.01 C 361.60 74.34 354.79 79.09 349.01 85.01 C 344.04 89.88 339.08 94.77 334.51 100.02 C 339.14 110.78 344.23 121.33 348.96 132.03 C 349.90 133.75 350.52 135.84 352.17 137.03 C 356.32 137.55 360.51 137.17 364.68 137.18 C 362.03 129.77 359.82 122.10 355.68 115.34 C 354.15 112.96 353.34 110.25 353.12 107.44 C 353.80 107.41 355.15 107.35 355.83 107.32 C 359.48 112.61 362.03 118.51 364.97 124.19 C 363.61 111.08 359.76 98.38 356.10 85.78 C 358.68 87.88 361.35 90.07 363.12 92.94 C 365.13 97.67 365.74 102.83 367.26 107.72 C 369.03 113.38 370.64 119.09 372.20 124.82 C 374.55 133.17 375.41 141.84 377.20 150.32 C 378.55 159.25 379.89 168.26 383.00 176.79 C 386.92 177.01 390.85 177.13 394.76 177.52 C 391.39 179.96 387.17 180.27 383.17 180.73 C 384.63 189.29 386.38 197.80 388.26 206.27 C 389.34 216.39 390.98 226.44 391.72 236.59 C 392.69 242.62 393.54 248.68 393.59 254.80 C 393.12 254.74 392.20 254.62 391.73 254.56 C 390.28 248.92 387.87 243.55 386.84 237.80 C 383.91 219.23 382.37 200.42 378.53 182.00 C 375.97 182.22 373.42 182.51 370.89 182.90 C 373.15 191.57 377.11 199.72 379.22 208.43 C 379.73 215.42 380.82 222.39 380.82 229.42 C 378.66 224.50 377.47 219.24 375.92 214.12 C 373.61 206.10 371.08 198.14 368.86 190.10 C 368.26 188.10 367.73 186.04 366.60 184.28 C 363.13 184.30 359.83 185.45 356.54 186.37 C 361.43 194.52 364.87 203.44 368.98 212.00 C 372.08 220.15 374.55 228.57 378.47 236.41 C 382.88 245.10 384.61 254.80 388.68 263.63 C 384.44 263.24 379.51 262.90 376.56 259.41 C 373.13 255.53 369.65 251.70 366.04 247.99 C 358.62 240.03 352.13 231.27 344.62 223.40 C 338.84 217.19 332.08 211.95 326.63 205.43 C 322.85 200.78 317.35 198.06 313.11 193.89 C 308.87 189.57 303.12 187.34 298.58 183.41 C 293.27 178.90 287.45 175.05 281.63 171.26 C 276.55 166.73 271.32 162.10 264.98 159.42 C 262.82 160.03 262.26 162.71 261.39 164.51 C 256.47 178.33 253.30 192.84 252.40 207.48 C 255.90 207.55 259.41 207.57 262.92 207.50 C 267.74 197.11 270.73 185.90 276.73 176.08 C 278.01 177.01 279.29 177.95 280.57 178.90 C 275.69 188.53 270.82 198.22 267.28 208.45 C 270.14 209.23 273.89 210.97 276.26 208.23 C 282.34 202.33 288.00 195.94 294.85 190.89 C 296.02 189.85 297.60 190.37 299.00 190.36 C 292.17 197.20 284.17 202.86 278.08 210.46 C 280.71 211.20 283.69 213.35 286.29 211.40 C 293.13 207.22 299.56 202.35 306.70 198.69 C 309.38 197.21 311.84 200.08 314.20 201.04 C 305.85 204.27 298.41 209.32 291.43 214.85 C 296.90 216.63 302.74 217.36 307.88 220.09 C 318.39 225.17 329.53 229.16 339.18 235.83 C 350.53 243.89 363.09 250.65 372.48 261.12 C 370.15 260.95 367.60 260.90 365.83 259.14 C 354.05 248.85 340.41 241.06 327.20 232.82 C 314.67 226.50 301.70 220.56 287.96 217.48 C 283.53 218.25 280.60 222.47 276.74 224.57 C 273.02 226.37 269.60 230.57 265.14 228.48 C 269.50 223.40 275.17 219.76 280.19 215.41 C 275.44 214.44 270.77 213.12 266.00 212.29 C 264.73 215.59 264.26 219.31 262.18 222.23 C 259.67 223.75 256.67 224.09 253.90 224.91 C 257.18 221.05 259.77 216.61 260.85 211.62 C 258.10 211.51 255.34 211.47 252.59 211.45 C 252.59 213.87 252.60 216.29 252.57 218.72 C 251.23 218.31 249.87 217.94 248.58 217.40 C 247.88 215.44 247.63 213.37 247.30 211.33 C 241.50 211.22 235.70 211.29 229.90 211.49 C 235.06 217.51 241.01 223.16 244.52 230.36 C 246.74 235.99 249.57 241.37 252.92 246.42 C 254.59 249.39 258.31 249.79 261.14 251.14 C 261.89 250.19 262.65 249.24 263.41 248.29 C 267.67 252.41 272.25 256.20 276.25 260.59 C 272.67 261.53 269.06 262.94 265.31 262.73 C 262.71 261.04 260.63 258.70 258.24 256.76 C 259.25 259.27 260.35 261.75 261.42 264.23 C 259.73 264.80 258.06 265.50 256.29 265.77 C 254.02 263.51 252.31 260.78 250.42 258.21 C 251.39 257.44 252.37 256.68 253.35 255.92 C 252.52 254.75 251.66 253.60 250.90 252.38 C 250.19 251.14 249.57 249.86 248.98 248.57 C 248.65 247.86 248.33 247.15 248.00 246.45 C 245.23 240.71 241.97 235.23 238.56 229.85 C 230.87 217.18 220.39 206.26 208.41 197.58 C 203.80 193.89 196.77 194.21 193.61 188.64 C 199.23 188.72 204.75 190.46 209.45 193.54 C 216.42 198.11 223.00 203.38 228.34 209.82 C 232.62 208.84 236.99 208.32 241.39 208.37 C 240.80 201.58 240.05 194.80 239.55 188.00 C 239.75 181.65 241.48 175.46 241.90 169.12 C 230.32 172.82 219.23 177.90 208.47 183.52 C 204.27 185.72 199.91 189.79 194.89 187.32 C 200.35 181.08 208.26 178.13 214.99 173.59 C 213.97 172.02 212.93 170.46 211.89 168.91 C 207.46 172.09 203.62 175.96 199.98 180.00 C 198.22 182.43 194.96 181.44 192.40 181.69 C 192.53 179.18 192.42 176.65 192.82 174.17 C 196.18 168.98 201.59 165.32 204.43 159.75 C 204.62 157.91 203.00 156.33 202.40 154.65 C 201.17 155.62 199.84 156.52 198.91 157.81 C 194.62 164.32 192.55 171.97 188.78 178.74 C 187.92 180.97 184.79 181.24 183.78 178.97 C 182.83 167.69 184.27 156.39 186.21 145.28 C 186.51 142.15 187.47 138.69 186.19 135.70 C 182.75 131.23 178.49 127.46 174.76 123.24 C 167.18 114.90 158.02 108.25 149.69 100.73 C 154.96 99.39 158.38 104.14 162.02 107.02 C 171.54 114.82 179.92 123.86 188.36 132.80 C 192.39 120.86 194.24 108.29 198.31 96.37 C 202.30 85.52 206.32 74.50 212.86 64.89 C 216.51 58.97 219.29 52.55 223.18 46.77 C 224.98 47.75 226.76 48.76 228.54 49.79 C 222.76 61.05 215.96 71.85 211.74 83.85 C 205.21 99.15 200.89 115.23 195.93 131.08 C 195.16 133.85 194.00 136.67 194.32 139.61 C 195.40 141.76 197.16 143.47 198.73 145.27 C 204.69 134.79 209.86 123.80 213.33 112.23 C 215.59 105.30 218.64 98.63 222.27 92.30 C 227.91 81.10 234.05 70.17 240.33 59.32 C 245.97 50.97 251.38 42.46 257.22 34.24 C 260.32 28.99 266.72 27.63 271.22 23.91 C 269.73 26.44 267.95 28.79 265.95 30.94 C 250.04 48.57 238.86 69.81 229.36 91.41 C 226.25 98.17 222.60 104.78 220.91 112.08 C 228.73 103.18 236.33 94.09 244.33 85.34 C 247.98 81.00 251.91 76.89 256.37 73.36 C 262.84 67.08 269.87 61.42 277.12 56.06 C 279.19 54.41 281.73 53.58 284.31 53.14 C 280.98 58.16 275.81 61.47 271.30 65.31 C 257.26 76.63 246.57 91.30 235.25 105.17 C 225.92 116.69 217.71 129.06 209.07 141.10 C 207.09 144.27 204.49 147.25 203.55 150.93 C 204.41 152.85 205.60 154.61 206.69 156.41 C 208.61 154.76 210.44 153.00 212.02 151.01 C 218.18 143.24 224.56 135.60 231.84 128.83 C 234.94 125.93 237.96 122.95 240.76 119.77 C 246.12 113.49 252.13 107.81 257.98 102.01 C 257.65 100.63 257.32 99.25 257.00 97.88 C 259.50 97.66 262.47 98.38 264.46 96.42 C 275.00 87.01 284.27 76.24 295.07 67.09 C 298.72 63.90 303.42 61.90 306.31 57.87 C 305.20 54.12 302.36 51.21 300.62 47.76 C 304.51 48.20 308.42 49.11 311.52 51.65 C 317.79 44.53 324.25 37.60 330.48 30.45 Z" />
<path fill="#f3722b" opacity="1.00" d=" M 451.78 60.67 C 454.15 52.26 455.88 43.67 458.65 35.38 C 460.43 35.79 462.22 36.21 464.01 36.62 C 462.62 44.12 460.42 51.43 458.96 58.92 C 456.77 70.80 452.86 82.27 450.35 94.08 C 448.43 102.02 446.24 109.89 444.05 117.76 C 440.95 128.23 439.05 139.01 435.64 149.39 C 440.59 142.50 444.25 134.82 448.52 127.51 C 450.68 123.39 455.68 121.70 457.35 117.20 C 459.12 114.60 459.10 111.46 457.56 108.78 C 466.38 95.56 474.85 82.09 483.87 69.01 C 485.40 70.00 486.97 70.96 488.39 72.12 C 486.92 75.81 484.41 78.93 482.28 82.24 C 476.99 90.30 471.69 98.35 466.47 106.45 C 462.79 112.18 458.25 117.56 456.39 124.24 C 454.69 130.62 450.53 135.91 447.89 141.89 C 453.15 137.51 457.97 132.64 463.19 128.23 C 473.08 121.36 482.93 114.41 493.28 108.24 C 496.57 106.20 500.41 105.32 504.26 105.30 C 500.23 108.40 495.52 110.41 491.41 113.39 C 483.91 118.88 476.27 124.20 469.01 130.02 C 462.98 134.61 457.56 139.92 451.70 144.72 C 446.05 149.25 442.71 155.79 438.64 161.63 C 431.87 170.79 427.96 181.61 422.51 191.54 C 417.19 201.05 413.80 211.49 411.34 222.06 C 410.32 226.55 409.29 231.05 407.60 235.34 C 404.96 230.16 407.70 224.45 408.12 219.07 C 409.18 209.18 411.90 199.57 415.26 190.24 C 416.50 187.82 414.89 185.51 413.30 183.76 C 410.51 180.47 407.07 177.72 404.77 174.02 C 409.81 176.42 413.46 180.74 417.08 184.83 C 419.56 179.40 424.16 174.44 423.51 168.07 C 423.00 151.04 425.79 134.00 423.81 117.00 C 422.98 91.08 421.01 65.20 420.29 39.26 C 422.23 39.22 424.16 39.18 426.10 39.16 C 427.44 60.77 428.11 82.41 429.46 104.01 C 429.45 116.71 431.35 129.35 430.52 142.06 C 437.32 114.86 444.72 87.80 451.78 60.67 Z" />
<path fill="#f3722b" opacity="1.00" d=" M 374.46 55.46 C 376.39 55.78 378.59 55.54 380.29 56.71 C 382.08 59.83 382.55 63.48 383.36 66.94 C 384.66 73.69 387.12 80.18 387.83 87.05 C 388.92 96.00 391.34 104.82 391.33 113.88 C 390.11 112.68 388.28 111.76 388.14 109.86 C 386.90 103.75 387.04 97.32 384.63 91.47 C 382.55 86.51 381.29 81.28 379.82 76.13 C 377.91 69.27 374.78 62.68 374.46 55.46 Z" />
<path fill="#3e3e3e" opacity="1.00" d=" M 297.33 77.35 C 301.16 71.88 304.62 66.12 309.23 61.24 C 312.45 65.57 316.44 69.67 317.97 74.95 C 317.35 77.07 315.48 78.47 314.03 80.02 C 302.37 91.29 292.13 103.90 281.93 116.46 C 279.24 114.16 276.75 111.65 274.37 109.03 C 280.75 97.62 289.25 87.56 297.33 77.35 Z" />
<path fill="#f3722b" opacity="1.00" d=" M 395.35 65.71 C 396.32 66.37 397.70 66.61 398.34 67.69 C 400.75 73.22 399.12 79.91 402.91 84.93 C 403.89 80.87 404.33 76.70 404.71 72.55 C 405.51 72.59 407.11 72.68 407.90 72.73 C 407.62 83.36 404.12 94.38 408.00 104.75 C 412.35 116.76 413.58 129.55 415.56 142.09 C 416.44 147.25 416.60 152.49 416.67 157.72 C 416.15 157.70 415.13 157.66 414.62 157.64 C 414.39 148.32 412.74 139.12 411.47 129.90 C 410.16 122.02 409.31 113.89 405.86 106.58 C 404.09 114.59 404.62 122.85 403.92 130.97 C 403.38 148.63 402.47 166.28 402.39 183.96 C 400.87 206.49 402.24 229.13 400.08 251.64 C 398.53 249.66 396.10 247.85 396.43 245.04 C 396.55 234.69 396.61 224.33 395.81 214.01 C 395.66 200.34 395.76 186.67 395.74 173.00 C 396.98 152.63 398.68 132.29 400.25 111.95 C 400.68 103.85 403.19 95.55 400.69 87.55 C 398.53 80.38 395.29 73.35 395.35 65.71 Z" />
<path fill="#f3722b" opacity="1.00" d=" M 363.02 76.76 C 364.51 76.10 366.01 75.46 367.53 74.85 C 370.24 79.48 372.91 84.22 374.44 89.40 C 375.45 93.43 375.34 97.65 375.18 101.77 C 372.98 98.75 371.62 95.26 370.20 91.83 C 368.07 86.68 365.41 81.78 363.02 76.76 Z" />
<path fill="#3e3e3e" opacity="1.00" d=" M 304.60 94.58 C 309.36 89.16 314.47 83.96 320.47 79.91 C 323.02 85.57 325.68 91.18 328.10 96.89 C 329.72 99.91 327.22 104.18 323.86 104.43 C 318.86 105.25 313.97 106.60 309.14 108.11 C 306.61 106.26 303.88 104.57 300.69 104.20 C 301.67 106.17 302.76 108.08 303.87 109.98 C 299.03 111.02 294.36 112.65 289.63 114.07 C 294.03 107.14 299.29 100.82 304.60 94.58 Z" />
<path fill="#3e3e3e" opacity="1.00" d=" M 265.92 101.37 C 268.47 98.69 271.16 96.14 274.18 93.98 C 272.58 97.41 270.56 100.62 268.42 103.73 C 267.80 103.14 266.54 101.96 265.92 101.37 Z" />
<path fill="#3e3e3e" opacity="1.00" d=" M 317.53 119.05 C 321.81 113.77 326.22 108.59 331.02 103.78 C 336.39 114.57 341.24 125.61 346.21 136.59 C 340.89 136.69 335.48 137.97 330.21 136.72 C 328.13 136.44 327.25 134.30 326.16 132.80 C 323.41 128.14 321.03 123.23 317.53 119.05 Z" />
<path fill="#3e3e3e" opacity="1.00" d=" M 231.73 136.74 C 242.43 126.29 252.05 114.74 263.32 104.87 C 264.00 105.93 264.72 106.95 265.49 107.96 C 262.33 114.68 260.49 122.08 256.25 128.25 C 253.73 130.97 250.15 132.32 246.83 133.76 C 242.05 135.65 238.12 139.04 234.01 142.02 C 226.73 147.75 219.46 153.52 211.78 158.72 C 218.27 151.25 224.64 143.65 231.73 136.74 Z" />
<path fill="#3e3e3e" opacity="1.00" d=" M 311.46 111.05 C 314.94 109.84 318.44 108.67 322.04 107.85 C 319.97 110.91 317.48 113.66 314.72 116.11 C 313.62 114.43 312.53 112.74 311.46 111.05 Z" />
<path fill="#3e3e3e" opacity="1.00" d=" M 286.67 121.12 C 293.57 118.22 300.40 115.08 307.63 113.08 C 309.16 115.06 310.70 117.04 312.22 119.03 C 308.63 124.92 304.57 130.51 300.38 135.99 C 296.30 130.58 290.74 126.54 286.67 121.12 Z" />
<path fill="#3e3e3e" opacity="1.00" d=" M 265.83 124.23 C 267.23 120.54 269.01 117.01 270.92 113.55 C 272.90 115.43 274.85 117.33 276.77 119.26 C 273.25 121.19 269.62 122.93 265.83 124.23 Z" />
<path fill="#3e3e3e" opacity="1.00" d=" M 303.02 138.92 C 306.91 133.47 310.10 127.50 314.66 122.54 C 317.66 127.08 321.02 131.44 323.18 136.47 C 316.33 136.02 309.70 137.78 303.02 138.92 Z" />
<path fill="#3e3e3e" opacity="1.00" d=" M 268.82 147.68 C 273.05 140.46 276.63 132.80 281.78 126.15 C 283.57 128.70 285.30 131.29 287.05 133.88 C 288.33 133.36 289.62 132.83 290.92 132.30 C 293.48 134.69 296.29 136.93 298.10 139.98 C 293.13 142.23 287.64 142.92 282.51 144.70 C 278.08 146.27 273.41 146.83 268.82 147.68 Z" />
<path fill="#3e3e3e" opacity="1.00" d=" M 261.60 134.60 C 265.26 131.72 269.78 130.24 273.92 128.19 C 271.66 132.84 269.20 137.39 267.17 142.14 C 265.57 145.61 264.25 149.29 261.85 152.32 C 259.42 152.24 257.27 150.95 255.07 150.08 C 257.01 144.85 258.46 139.27 261.60 134.60 Z" />
<path fill="#3e3e3e" opacity="1.00" d=" M 331.85 141.34 C 337.15 140.57 342.52 140.48 347.87 140.30 C 350.02 144.62 352.10 148.99 353.91 153.48 C 349.59 155.17 345.33 157.01 341.00 158.68 C 338.39 152.66 334.49 147.34 331.85 141.34 Z" />
<path fill="#3e3e3e" opacity="1.00" d=" M 352.83 139.96 C 356.93 139.77 361.03 139.46 365.14 139.54 C 367.11 142.12 367.93 145.33 369.08 148.32 C 365.52 149.67 361.88 150.79 358.24 151.90 C 356.26 148.00 354.39 144.04 352.83 139.96 Z" />
<path fill="#f3722b" opacity="1.00" d=" M 487.13 148.13 C 490.05 145.30 493.55 143.17 497.01 141.07 C 497.18 141.49 497.53 142.35 497.70 142.77 C 491.53 146.57 485.79 151.25 481.83 157.39 C 488.61 152.72 495.65 148.29 503.49 145.60 C 504.84 145.23 506.19 145.93 507.52 146.17 C 499.55 150.35 492.37 155.80 485.13 161.10 C 469.97 170.57 458.57 184.59 446.44 197.45 C 439.07 204.98 433.29 213.85 427.62 222.68 C 423.03 229.13 419.29 236.14 416.13 243.39 C 424.28 237.47 432.18 231.18 440.62 225.65 C 449.58 219.96 458.26 213.82 467.57 208.69 C 467.45 209.98 467.32 211.27 467.20 212.56 C 471.34 210.64 475.53 208.50 480.18 208.26 C 478.47 209.93 476.47 211.29 474.31 212.29 C 463.15 217.59 452.02 223.44 442.90 231.88 C 435.21 237.06 427.70 242.56 421.04 249.04 C 416.88 253.29 411.66 256.32 407.66 260.75 C 423.49 252.32 437.87 241.04 454.86 234.86 C 461.59 232.61 468.11 229.43 475.20 228.50 C 479.76 228.41 484.32 228.41 488.88 228.32 C 494.17 227.93 499.08 225.48 504.40 225.23 C 498.27 229.29 490.89 230.55 484.14 233.19 C 476.17 235.74 468.59 239.31 460.84 242.42 C 467.29 240.57 474.67 240.68 480.35 244.62 C 486.10 247.90 489.36 254.57 496.10 256.20 C 495.10 256.74 494.11 257.28 493.13 257.82 C 494.15 261.06 495.00 264.42 494.72 267.85 C 494.31 267.91 493.51 268.04 493.11 268.10 C 489.70 265.23 487.74 261.13 484.79 257.88 C 480.22 257.01 475.55 257.79 470.97 258.22 C 461.06 258.98 451.19 260.70 441.70 263.71 C 433.71 266.17 425.62 268.43 418.05 272.04 C 414.19 273.63 410.05 276.58 405.82 274.29 C 411.72 268.97 419.45 266.65 426.65 263.69 C 435.43 260.01 444.41 256.67 453.73 254.64 C 458.76 253.50 463.92 254.73 468.98 253.93 C 473.72 253.36 478.51 253.60 483.27 253.43 C 479.99 249.92 476.20 245.93 471.07 245.74 C 465.76 245.94 460.44 246.61 455.34 248.15 C 439.06 252.22 423.63 259.43 409.74 268.81 C 406.98 270.80 403.52 271.14 400.24 271.47 C 401.87 269.16 404.35 267.39 405.52 264.80 C 404.97 262.08 402.84 259.60 403.58 256.70 C 406.34 244.33 414.48 234.26 420.43 223.34 C 424.25 216.21 429.75 210.02 432.59 202.38 C 434.07 200.88 435.51 199.35 436.89 197.76 C 441.60 192.47 445.44 186.47 450.26 181.27 C 457.44 173.44 464.46 165.48 471.88 157.89 C 476.59 153.16 480.21 147.16 486.11 143.76 C 484.85 146.18 483.30 148.45 481.44 150.45 C 474.17 158.18 466.92 165.93 459.76 173.75 C 454.96 179.44 449.04 184.31 445.62 191.05 C 452.62 185.25 458.09 177.90 464.56 171.55 C 472.16 163.82 479.48 155.81 487.13 148.13 Z" />
<path fill="#3e3e3e" opacity="1.00" d=" M 308.83 145.74 C 314.91 143.98 321.16 142.81 327.45 142.13 C 337.17 157.83 348.43 172.94 354.43 190.59 C 356.60 199.56 361.58 207.41 365.24 215.79 C 369.25 225.44 375.10 234.62 375.71 245.33 C 371.00 241.72 370.27 235.51 367.52 230.60 C 362.54 218.60 353.90 208.67 347.50 197.46 C 344.36 192.91 342.33 187.59 338.35 183.65 C 333.15 178.39 329.73 171.71 324.66 166.33 C 318.86 159.88 314.01 152.68 308.83 145.74 Z" />
<path fill="#3e3e3e" opacity="1.00" d=" M 214.81 166.85 C 225.19 157.98 236.55 150.30 247.74 142.49 C 246.57 146.59 245.73 150.76 244.89 154.94 C 244.47 156.81 244.06 159.24 241.87 159.78 C 233.45 162.76 226.14 167.99 218.07 171.70 C 216.98 170.08 215.89 168.47 214.81 166.85 Z" />
<path fill="#3e3e3e" opacity="1.00" d=" M 192.63 143.59 C 194.00 145.08 195.58 146.47 196.53 148.30 C 196.77 149.72 195.86 151.02 195.36 152.30 C 193.02 156.89 190.68 161.48 188.29 166.04 C 187.99 158.24 192.12 151.29 192.63 143.59 Z" />
<path fill="#3e3e3e" opacity="1.00" d=" M 296.42 150.40 C 297.89 147.92 301.00 147.25 303.67 147.16 C 310.14 153.81 315.80 161.24 321.41 168.63 C 324.46 172.53 328.27 175.75 331.36 179.63 C 337.22 186.98 343.97 193.99 347.09 203.06 C 354.30 216.00 362.91 228.17 369.76 241.32 C 367.23 239.18 364.91 236.80 362.83 234.22 C 356.27 226.14 348.49 219.19 340.96 212.04 C 335.17 206.81 328.93 202.10 323.24 196.75 C 311.40 186.71 298.56 177.94 285.51 169.55 C 279.81 166.49 274.41 162.83 270.45 157.63 C 277.10 155.06 283.86 152.78 290.75 150.94 C 288.68 154.50 286.65 158.09 284.82 161.79 C 286.21 162.38 287.60 162.97 288.99 163.55 C 291.63 159.26 293.74 154.66 296.42 150.40 Z" />
<path fill="#3e3e3e" opacity="1.00" d=" M 359.48 154.79 C 362.83 153.20 366.26 151.76 369.75 150.48 C 373.07 158.60 375.98 166.94 377.08 175.68 C 374.15 175.91 371.22 176.16 368.29 176.28 C 365.85 168.91 362.57 161.88 359.48 154.79 Z" />
<path fill="#3e3e3e" opacity="1.00" d=" M 343.17 162.75 C 347.06 160.41 351.14 158.42 355.25 156.51 C 358.70 163.31 361.78 170.30 364.82 177.29 C 360.68 178.34 356.53 179.34 352.30 179.98 C 349.34 174.19 346.33 168.43 343.17 162.75 Z" />
<path fill="#f3722b" opacity="1.00" d=" M 330.50 164.29 C 332.24 163.49 334.00 162.73 335.77 161.99 C 336.32 163.43 336.86 164.86 337.39 166.31 C 334.74 167.02 332.25 166.47 330.50 164.29 Z" />
<path fill="#3e3e3e" opacity="1.00" d=" M 250.36 167.24 C 250.71 163.86 254.34 163.34 256.91 162.31 C 254.59 171.18 251.53 179.86 249.78 188.88 C 248.94 193.31 248.40 197.81 247.38 202.22 C 244.82 190.55 247.97 178.66 250.36 167.24 Z" />
<path fill="#f3722b" opacity="1.00" d=" M 448.42 164.36 C 449.20 164.51 449.98 164.67 450.76 164.83 C 446.92 170.12 444.52 176.36 440.22 181.32 C 440.59 174.75 445.32 169.80 448.42 164.36 Z" />
<path fill="#f3722b" opacity="1.00" d=" M 308.99 178.71 C 311.69 176.60 314.53 174.70 317.47 172.96 C 318.00 173.52 319.06 174.64 319.59 175.20 C 317.11 177.13 314.61 179.03 312.07 180.88 C 311.06 180.14 310.03 179.41 308.99 178.71 Z" />
<path fill="#f3722b" opacity="1.00" d=" M 220.05 180.90 C 221.08 180.41 222.11 179.92 223.14 179.43 C 228.47 186.32 232.83 193.90 236.96 201.55 C 235.02 201.45 232.55 201.68 231.67 199.47 C 227.98 193.17 224.39 186.80 220.05 180.90 Z" />
<path fill="#f3722b" opacity="1.00" d=" M 345.01 181.65 C 347.37 183.24 348.86 185.68 349.88 188.29 C 347.57 186.65 345.85 184.37 345.01 181.65 Z" />
<path fill="#f3722b" opacity="1.00" d=" M 324.32 189.88 C 326.44 189.17 328.58 188.52 330.74 187.93 C 331.88 189.59 333.01 191.26 334.12 192.95 C 332.75 193.41 331.38 193.91 329.97 194.24 C 327.76 193.27 326.10 191.43 324.32 189.88 Z" />
<path fill="#f4e4c0" opacity="1.00" d=" M 176.04 191.88 C 177.14 191.08 177.94 189.96 178.85 188.96 C 182.26 190.23 185.79 191.13 189.27 192.17 C 187.55 194.32 185.55 196.33 184.50 198.93 C 184.45 204.21 186.66 209.23 186.75 214.52 C 187.18 218.38 186.06 222.13 185.73 225.94 C 186.90 228.69 189.21 230.82 190.18 233.67 C 191.06 237.50 190.48 241.46 189.71 245.26 C 187.51 246.03 185.34 246.88 183.15 247.68 C 183.93 244.74 184.90 241.83 185.33 238.81 C 185.60 233.29 179.85 230.29 178.90 225.17 C 177.96 222.34 180.13 219.86 180.96 217.30 C 182.23 215.18 180.70 212.92 180.10 210.86 C 178.48 204.71 176.69 198.59 174.04 192.78 C 174.54 192.55 175.54 192.10 176.04 191.88 Z" />
<path fill="#f3722b" opacity="1.00" d=" M 424.25 201.82 C 425.15 198.12 427.21 194.72 429.02 191.38 C 429.00 195.11 430.87 201.33 425.86 202.59 C 425.46 202.40 424.65 202.01 424.25 201.82 Z" />
<path fill="#3e3e3e" opacity="1.00" d=" M 160.08 196.55 C 165.08 196.91 169.52 194.48 174.04 192.78 C 176.69 198.59 178.48 204.71 180.10 210.86 C 170.00 221.36 161.87 233.53 153.15 245.15 C 147.87 252.08 143.81 259.81 139.11 267.11 C 135.93 272.35 130.00 274.69 125.51 278.56 C 128.16 278.65 130.83 278.65 133.49 278.64 C 128.26 283.99 122.05 288.31 117.09 293.93 C 118.14 291.04 119.07 288.11 120.01 285.18 C 115.99 288.84 111.86 292.36 107.76 295.93 C 112.54 287.08 117.67 278.44 122.81 269.80 C 126.31 263.80 131.55 259.10 135.29 253.26 C 141.35 244.18 149.04 236.38 156.16 228.15 C 161.06 222.72 165.54 216.90 170.94 211.96 C 172.98 209.93 175.63 208.08 176.08 205.02 C 173.84 205.04 171.48 205.26 169.64 206.67 C 165.05 210.02 161.43 214.45 157.38 218.39 C 147.38 228.12 139.20 239.49 129.53 249.52 C 121.20 260.90 114.76 273.64 105.73 284.53 C 106.73 270.41 108.14 256.32 109.76 242.26 C 110.00 238.07 114.24 236.21 117.31 234.25 C 130.31 227.05 143.86 220.89 157.08 214.09 C 161.14 212.03 164.22 208.53 166.68 204.77 C 158.75 204.32 152.14 209.10 145.33 212.36 C 133.66 218.46 121.94 224.47 110.51 230.99 C 111.64 225.25 110.85 219.19 112.60 213.59 C 114.35 212.49 116.38 211.97 118.35 211.41 C 129.05 208.66 139.87 206.27 150.86 205.01 C 156.97 204.10 163.38 204.65 169.17 202.15 C 162.87 200.94 156.38 200.09 149.97 200.96 C 137.19 202.23 124.81 205.77 112.42 208.96 C 112.75 205.15 113.22 201.34 113.60 197.53 C 129.09 197.00 144.58 196.35 160.08 196.55 Z" />
<path fill="#f3722b" opacity="1.00" d=" M 196.54 194.66 C 200.43 196.03 204.20 197.89 207.18 200.80 C 218.96 211.71 228.39 225.29 234.00 240.37 C 236.43 246.49 240.11 252.13 241.90 258.48 C 241.84 258.76 241.74 259.32 241.68 259.60 C 239.54 260.71 237.41 261.97 235.84 263.85 C 227.89 273.45 222.55 284.82 215.35 294.93 C 218.10 296.00 220.92 296.88 223.78 297.65 C 227.36 289.58 230.49 281.29 234.34 273.33 C 235.48 270.66 237.77 268.82 240.29 267.52 C 238.91 279.34 235.86 290.89 234.49 302.72 C 237.17 301.36 240.07 300.26 242.35 298.24 C 243.79 296.55 243.93 294.19 244.40 292.11 C 245.72 283.68 246.80 275.22 248.00 266.77 C 247.44 277.15 244.56 287.25 244.29 297.63 C 254.84 292.50 265.58 287.57 277.06 284.94 C 286.10 280.73 296.15 279.85 305.49 276.53 C 318.92 273.14 332.82 271.92 346.28 268.62 C 335.31 266.68 324.16 265.34 313.00 265.70 C 306.75 265.89 300.44 264.99 294.24 266.08 C 283.56 267.75 272.91 269.76 262.44 272.46 C 258.04 273.58 253.18 276.16 248.89 273.21 C 258.30 267.44 269.24 265.31 279.84 262.85 C 292.66 259.68 305.96 260.56 319.04 260.44 C 326.67 260.36 334.21 261.60 341.77 262.47 C 347.13 263.22 352.28 265.00 357.63 265.82 C 354.93 262.66 351.76 259.77 347.80 258.31 C 334.33 253.09 320.91 247.72 307.43 242.50 C 300.27 239.61 292.57 238.56 285.08 236.84 C 281.11 235.81 276.59 236.07 273.23 233.37 C 285.80 233.57 298.24 236.09 310.56 238.41 C 324.48 240.81 337.35 246.95 349.89 253.20 C 359.87 258.30 369.67 263.89 378.54 270.77 C 378.49 271.62 378.37 273.32 378.31 274.17 C 365.99 273.90 353.72 274.90 341.46 275.82 C 327.15 278.07 312.75 280.15 298.85 284.40 C 298.11 287.36 295.81 289.07 293.03 289.99 C 291.77 289.07 290.51 288.16 289.26 287.24 C 289.63 288.52 290.00 289.79 290.37 291.08 C 288.66 291.43 286.97 291.91 285.23 292.04 C 283.96 291.43 282.82 290.59 281.65 289.83 C 279.51 290.59 277.38 291.36 275.25 292.15 C 275.24 293.56 275.23 294.98 275.23 296.40 C 273.86 296.74 272.51 297.16 271.11 297.36 C 269.89 296.79 268.86 295.89 267.77 295.12 C 265.21 296.05 262.69 297.11 260.09 297.90 C 256.68 298.95 252.99 298.29 249.63 299.51 C 247.14 300.42 244.82 301.68 242.43 302.79 C 239.59 304.09 236.79 305.49 234.10 307.07 C 236.82 307.46 239.56 307.73 242.30 308.05 C 247.18 308.54 252.04 309.82 256.97 309.41 C 264.26 307.00 270.13 301.48 277.57 299.46 C 284.95 297.23 291.82 293.55 299.28 291.57 C 311.96 288.99 323.89 283.54 336.68 281.40 C 344.44 280.09 352.02 277.48 359.95 277.48 C 363.88 277.42 368.45 276.39 371.51 279.58 C 364.82 282.06 357.54 280.90 350.70 282.60 C 344.09 283.95 337.72 286.35 330.99 287.07 C 324.71 287.67 318.68 289.64 312.46 290.65 C 304.45 292.84 296.93 296.52 288.92 298.76 C 282.94 300.34 277.84 304.01 272.00 305.95 C 268.68 307.10 265.65 308.93 262.89 311.07 C 266.46 311.90 270.09 312.54 273.76 312.74 C 274.70 310.33 276.57 308.64 278.99 307.82 C 279.83 309.97 280.05 312.55 281.65 314.32 C 284.41 316.26 287.48 317.74 290.28 319.66 C 287.63 319.47 284.99 319.17 282.36 318.87 C 283.21 321.83 284.12 324.79 285.48 327.57 C 288.34 333.03 289.20 339.24 291.58 344.90 C 289.02 347.33 286.48 349.78 283.90 352.18 C 281.74 341.26 279.04 330.45 276.16 319.69 C 264.44 317.19 252.50 315.78 240.68 313.82 C 238.04 313.37 235.39 312.95 232.74 312.61 C 229.59 312.21 226.43 311.94 223.27 311.71 C 221.28 318.45 219.39 325.23 218.14 332.15 C 216.47 332.21 214.80 332.27 213.14 332.34 C 214.68 325.18 217.29 318.32 218.94 311.19 C 212.31 309.70 205.52 309.22 198.74 309.44 C 197.01 309.42 195.28 309.38 193.56 309.35 C 184.69 309.07 175.81 309.34 166.94 309.53 C 161.94 309.56 157.03 310.73 152.03 310.66 C 144.35 310.80 136.67 309.86 129.00 310.57 C 130.27 308.44 130.89 305.35 133.66 304.72 C 144.67 301.53 155.88 299.10 167.24 297.61 C 168.63 297.29 170.02 296.96 171.41 296.62 C 174.47 296.59 177.53 296.44 180.57 296.07 C 182.10 295.96 183.63 295.83 185.15 295.70 C 186.84 295.55 188.53 295.36 190.21 295.14 C 192.26 294.86 194.31 294.60 196.37 294.34 C 202.06 293.62 207.75 292.81 213.43 291.95 C 214.86 285.89 217.63 280.27 221.23 275.22 C 226.09 268.07 230.92 260.91 235.98 253.91 C 234.97 253.00 233.95 252.09 232.94 251.18 C 221.81 257.55 212.70 266.72 203.99 275.99 C 201.57 278.54 199.35 281.28 197.50 284.28 C 195.29 284.61 193.07 284.88 190.84 284.91 C 190.38 284.89 189.47 284.85 189.01 284.82 C 189.38 284.32 190.11 283.33 190.48 282.83 C 192.16 280.62 193.87 278.44 195.72 276.38 C 205.09 267.50 214.67 258.77 225.16 251.22 C 227.30 249.72 230.06 249.90 232.53 249.46 C 226.49 238.89 220.78 228.11 214.02 217.97 C 208.79 210.62 204.34 201.84 195.60 198.08 C 195.84 197.22 196.31 195.51 196.54 194.66 Z" />
<path fill="#3e3e3e" opacity="1.00" d=" M 87.17 200.47 C 94.23 199.06 101.34 197.27 108.58 197.33 C 108.97 201.64 108.56 205.98 108.36 210.29 C 102.27 212.67 95.94 214.27 89.61 215.86 C 88.75 210.74 87.86 205.62 87.17 200.47 Z" />
<path fill="#f4e4c0" opacity="1.00" d=" M 429.39 202.20 C 431.63 200.33 433.98 198.47 436.89 197.76 C 435.51 199.35 434.07 200.88 432.59 202.38 C 429.80 204.19 427.62 206.74 424.96 208.71 C 421.62 207.93 418.46 204.66 418.21 201.21 C 420.28 200.65 421.94 202.30 423.41 203.50 C 425.35 202.84 427.56 203.16 429.39 202.20 Z" />
<path fill="#3e3e3e" opacity="1.00" d=" M 66.06 203.80 C 71.07 202.95 76.14 202.51 81.21 202.19 C 81.48 207.57 82.44 212.88 83.57 218.14 C 80.37 219.81 77.05 221.25 73.70 222.61 C 70.84 216.47 68.40 210.15 66.06 203.80 Z" />
<path fill="#f3722b" opacity="1.00" d=" M 190.74 206.73 C 192.95 206.63 195.45 206.11 197.33 207.64 C 200.63 210.02 203.00 213.45 205.16 216.85 C 207.19 219.72 206.33 223.37 206.46 226.65 C 205.04 226.64 203.62 226.67 202.20 226.73 C 200.39 222.35 198.85 217.79 196.09 213.90 C 194.36 211.47 192.42 209.20 190.74 206.73 Z" />
<path fill="#f3722b" opacity="1.00" d=" M 153.15 245.15 C 161.87 233.53 170.00 221.36 180.10 210.86 C 180.70 212.92 182.23 215.18 180.96 217.30 C 174.32 221.54 170.21 228.41 165.53 234.53 C 158.55 244.16 150.95 253.48 145.74 264.24 C 154.85 259.71 163.73 254.69 173.21 250.95 C 173.21 247.01 173.23 243.05 173.85 239.15 C 175.22 242.66 175.55 246.43 175.70 250.15 C 178.20 249.37 180.68 248.56 183.15 247.68 C 185.34 246.88 187.51 246.03 189.71 245.26 C 198.99 242.11 208.43 239.31 218.21 238.27 C 218.83 239.78 219.44 241.29 220.04 242.81 C 210.32 245.02 200.52 247.14 191.31 251.04 C 189.32 251.82 187.29 252.53 185.26 253.21 C 181.99 254.29 178.75 255.46 175.51 256.62 C 175.36 260.37 175.29 264.13 175.24 267.89 C 174.63 267.87 173.43 267.85 172.82 267.84 C 172.81 264.54 172.80 261.23 172.75 257.93 C 170.05 259.11 167.30 260.22 164.77 261.74 C 161.67 263.30 161.14 267.51 157.75 268.71 C 150.50 271.67 144.39 276.60 138.07 281.09 C 135.21 283.09 133.90 286.40 132.49 289.44 C 130.07 289.81 127.37 289.72 125.37 291.37 C 121.78 294.08 118.43 297.12 114.99 300.02 C 115.64 297.97 116.32 295.93 117.09 293.93 C 122.05 288.31 128.26 283.99 133.49 278.64 C 130.83 278.65 128.16 278.65 125.51 278.56 C 130.00 274.69 135.93 272.35 139.11 267.11 C 143.81 259.81 147.87 252.08 153.15 245.15 Z" />
<path fill="#3e3e3e" opacity="1.00" d=" M 93.40 219.37 C 98.06 217.56 102.90 216.24 107.68 214.78 C 106.73 221.22 106.85 227.88 105.09 234.17 C 101.91 237.34 97.66 239.12 93.90 241.49 C 92.91 234.96 91.59 228.49 90.90 221.92 C 90.44 220.32 92.35 219.88 93.40 219.37 Z" />
<path fill="#3e3e3e" opacity="1.00" d=" M 165.53 234.53 C 170.21 228.41 174.32 221.54 180.96 217.30 C 180.13 219.86 177.96 222.34 178.90 225.17 C 179.85 230.29 185.60 233.29 185.33 238.81 C 184.90 241.83 183.93 244.74 183.15 247.68 C 180.68 248.56 178.20 249.37 175.70 250.15 C 175.55 246.43 175.22 242.66 173.85 239.15 C 173.23 243.05 173.21 247.01 173.21 250.95 C 163.73 254.69 154.85 259.71 145.74 264.24 C 150.95 253.48 158.55 244.16 165.53 234.53 Z" />
<path fill="#3e3e3e" opacity="1.00" d=" M 75.07 226.33 C 78.09 225.27 81.09 224.15 84.09 223.05 C 85.34 230.08 86.88 237.06 88.13 244.09 C 88.70 246.08 87.63 247.94 87.01 249.77 C 86.40 249.71 85.18 249.59 84.57 249.53 C 83.30 244.49 83.46 238.42 79.30 234.69 C 76.94 232.48 76.10 229.27 75.07 226.33 Z" />
<path fill="#f4e4c0" opacity="1.00" d=" M 250.71 229.44 C 253.11 228.25 255.21 226.55 257.61 225.35 C 257.52 227.51 257.37 229.68 257.25 231.84 C 259.72 233.10 262.23 234.30 264.73 235.51 C 261.63 238.69 257.89 241.14 253.93 243.11 C 254.68 244.15 255.43 245.18 256.17 246.22 C 255.36 246.27 253.73 246.37 252.92 246.42 C 249.57 241.37 246.74 235.99 244.52 230.36 C 246.56 229.91 248.65 229.76 250.71 229.44 Z" />
<path fill="#f4e4c0" opacity="1.00" d=" M 234.60 230.92 C 235.59 230.65 237.57 230.12 238.56 229.85 C 241.97 235.23 245.23 240.71 248.00 246.45 C 245.56 247.41 242.95 247.71 240.37 247.97 C 241.55 246.13 242.84 244.35 244.08 242.55 C 241.50 241.16 238.90 239.81 236.21 238.64 C 236.82 237.79 237.44 236.94 238.06 236.09 C 236.87 234.39 235.67 232.69 234.60 230.92 Z" />
<path fill="#3e3e3e" opacity="1.00" d=" M 96.25 252.25 C 97.83 248.35 100.73 245.01 104.20 242.64 C 103.26 253.20 102.89 263.82 101.34 274.30 C 98.91 267.17 96.52 259.82 96.25 252.25 Z" />
<path fill="#f3722b" opacity="1.00" d=" M 269.43 244.19 C 271.67 244.17 274.29 243.19 276.26 244.72 C 281.09 248.23 284.13 253.54 287.30 258.47 C 285.09 258.49 282.26 259.49 280.89 257.13 C 277.33 252.58 272.80 248.89 269.43 244.19 Z" />
<path fill="#f4e4c0" opacity="1.00" d=" M 241.90 258.48 C 242.77 255.20 242.95 251.54 245.02 248.73 C 246.33 248.61 247.65 248.56 248.98 248.57 C 249.57 249.86 250.19 251.14 250.90 252.38 C 249.05 256.97 248.69 261.93 248.00 266.77 C 246.80 275.22 245.72 283.68 244.40 292.11 C 243.93 294.19 243.79 296.55 242.35 298.24 C 240.07 300.26 237.17 301.36 234.49 302.72 C 235.86 290.89 238.91 279.34 240.29 267.52 C 240.60 264.85 241.17 262.23 241.68 259.60 C 241.74 259.32 241.84 258.76 241.90 258.48 Z" />
<path fill="#f3722b" opacity="1.00" d=" M 304.89 250.95 C 310.95 250.34 317.10 250.88 323.05 252.13 C 325.83 252.58 328.12 254.30 330.30 255.97 C 323.86 255.64 317.49 254.58 311.12 253.65 C 308.81 253.40 306.78 252.22 304.89 250.95 Z" />
<path fill="#f4e4c0" opacity="1.00" d=" M 185.26 253.21 C 187.29 252.53 189.32 251.82 191.31 251.04 C 194.72 255.03 194.00 260.77 192.88 265.51 C 191.93 269.36 194.11 273.04 195.72 276.38 C 193.87 278.44 192.16 280.62 190.48 282.83 C 188.51 280.22 185.69 278.12 184.52 275.01 C 183.89 269.43 186.56 264.30 187.71 258.99 C 188.32 256.70 186.45 254.91 185.26 253.21 Z" />
<path fill="#3e3e3e" opacity="1.00" d=" M 203.99 275.99 C 212.70 266.72 221.81 257.55 232.94 251.18 C 233.95 252.09 234.97 253.00 235.98 253.91 C 230.92 260.91 226.09 268.07 221.23 275.22 C 217.63 280.27 214.86 285.89 213.43 291.95 C 207.75 292.81 202.06 293.62 196.37 294.34 C 197.29 291.06 197.64 287.67 197.50 284.28 C 199.35 281.28 201.57 278.54 203.99 275.99 Z" />
<path fill="#f3722b" opacity="1.00" d=" M 7.15 259.88 C 10.06 259.70 13.03 259.17 15.91 259.76 C 20.00 261.02 23.73 263.23 26.98 266.00 C 38.91 274.83 52.00 282.04 63.35 291.66 C 70.78 298.26 78.59 304.56 84.91 312.29 C 80.58 312.54 76.25 312.71 71.92 312.51 C 68.40 312.45 65.46 310.29 62.41 308.81 C 53.50 304.00 43.49 301.96 33.90 298.97 C 26.44 296.62 18.78 294.77 10.94 294.41 C 9.00 294.55 7.62 293.14 6.34 291.92 C 10.55 291.04 14.74 288.63 19.13 289.82 C 28.38 292.08 37.89 293.64 46.70 297.39 C 51.07 299.10 55.28 301.35 59.93 302.22 C 63.19 302.76 66.11 304.33 69.01 305.83 C 62.49 299.60 54.87 294.72 47.73 289.26 C 40.52 283.74 32.60 279.22 25.61 273.40 C 19.63 268.65 12.25 265.71 7.15 259.88 Z" />
<path fill="#3e3e3e" opacity="1.00" d=" M 235.84 263.85 C 237.41 261.97 239.54 260.71 241.68 259.60 C 241.17 262.23 240.60 264.85 240.29 267.52 C 237.77 268.82 235.48 270.66 234.34 273.33 C 230.49 281.29 227.36 289.58 223.78 297.65 C 220.92 296.88 218.10 296.00 215.35 294.93 C 222.55 284.82 227.89 273.45 235.84 263.85 Z" />
<path fill="#f4e4c0" opacity="1.00" d=" M 385.10 266.44 C 387.58 267.05 389.75 268.41 392.09 269.38 C 393.48 268.94 394.68 268.05 396.07 267.58 C 397.63 268.20 398.80 269.55 399.61 270.99 C 399.48 273.44 398.49 276.01 396.52 277.55 C 392.72 278.16 389.65 275.35 386.54 273.67 C 387.46 273.37 389.30 272.76 390.22 272.45 C 388.36 270.58 386.53 268.66 385.10 266.44 Z" />
<path fill="#f3722b" opacity="1.00" d=" M 439.13 269.50 C 445.11 269.43 451.02 268.54 456.99 268.26 C 467.01 268.44 477.24 270.15 486.08 275.13 C 485.14 275.94 484.20 276.75 483.27 277.57 C 488.02 281.54 494.16 284.70 495.97 291.11 C 495.25 291.16 493.83 291.25 493.12 291.29 C 488.85 286.67 483.95 282.53 478.28 279.75 C 470.51 276.14 462.35 273.12 453.78 272.21 C 441.49 270.28 429.38 274.20 417.09 274.11 C 423.90 270.66 431.70 270.40 439.13 269.50 Z" />
<path fill="#f3722b" opacity="1.00" d=" M 291.76 270.22 C 293.82 270.69 295.87 271.25 297.89 271.87 C 297.10 273.29 296.29 274.70 295.48 276.12 C 294.02 274.30 292.77 272.32 291.76 270.22 Z" />
<path fill="#f3722b" opacity="1.00" d=" M 274.07 275.08 C 278.50 273.99 282.94 272.98 287.42 272.15 C 288.26 273.83 289.12 275.50 289.99 277.17 C 285.71 278.43 281.41 279.67 277.05 280.60 C 276.04 278.76 275.04 276.92 274.07 275.08 Z" />
<path fill="#f4e4c0" opacity="1.00" d=" M 169.62 273.59 C 170.22 273.95 171.41 274.65 172.01 275.00 C 173.07 278.84 173.30 282.88 173.51 286.85 C 174.98 287.48 176.44 288.13 177.89 288.80 C 180.27 287.33 182.74 285.97 185.41 285.10 C 183.97 288.01 181.43 290.08 179.02 292.15 C 181.06 293.34 183.13 294.47 185.15 295.70 C 183.63 295.83 182.10 295.96 180.57 296.07 C 177.50 295.24 174.28 295.02 171.41 296.62 C 170.02 296.96 168.63 297.29 167.24 297.61 C 167.72 296.71 168.22 295.82 168.73 294.94 C 163.13 294.63 157.55 293.79 152.06 292.63 C 149.90 292.31 148.14 290.96 146.53 289.59 C 153.99 289.20 161.90 293.97 168.91 289.59 C 165.35 285.09 160.89 281.31 157.95 276.32 C 159.47 276.51 161.37 276.17 162.38 277.63 C 165.28 280.71 167.83 284.11 170.77 287.16 C 170.81 282.61 170.19 278.10 169.62 273.59 Z" />
<path fill="#f4e4c0" opacity="1.00" d=" M 175.99 276.37 C 178.16 278.59 177.57 281.71 177.49 284.51 C 176.92 284.57 175.78 284.68 175.21 284.74 C 175.26 281.93 175.43 279.12 175.99 276.37 Z" />
<path fill="#f3722b" opacity="1.00" d=" M 261.90 277.92 C 263.81 277.61 265.73 277.33 267.65 277.07 C 268.45 279.08 269.23 281.10 269.99 283.14 C 268.09 283.41 266.18 283.66 264.28 283.91 C 263.46 281.92 262.67 279.92 261.90 277.92 Z" />
<path fill="#f3722b" opacity="1.00" d=" M 415.16 280.43 C 417.76 279.14 420.18 277.25 423.07 276.67 C 430.73 277.78 438.14 280.48 445.04 283.97 C 448.04 285.43 450.41 287.86 452.43 290.48 C 447.68 291.30 443.77 288.04 439.60 286.42 C 431.85 282.98 423.45 281.72 415.16 280.43 Z" />
<path fill="#3e3e3e" opacity="1.00" d=" M 232.04 288.01 C 233.45 284.47 235.11 280.99 237.59 278.06 C 237.20 287.48 235.20 296.81 233.03 305.97 C 230.68 305.63 228.34 305.22 226.01 304.73 C 227.53 298.99 229.84 293.51 232.04 288.01 Z" />
<path fill="#f3722b" opacity="1.00" d=" M 373.46 282.46 C 376.39 281.99 379.22 283.10 382.10 283.45 C 385.22 283.73 388.36 283.37 391.50 283.37 C 387.61 289.18 382.90 294.40 379.48 300.53 C 370.52 314.13 363.68 328.93 356.39 343.45 C 351.49 353.48 346.23 363.34 341.52 373.46 C 339.97 376.81 338.29 380.11 336.28 383.20 C 335.42 375.87 339.80 369.59 341.94 362.90 C 344.30 355.76 348.25 349.32 351.60 342.63 C 357.27 331.36 362.90 320.06 369.03 309.03 C 363.80 313.82 359.31 319.32 354.42 324.44 C 351.02 328.05 347.38 331.52 344.75 335.76 C 339.24 344.60 333.91 353.56 328.32 362.34 C 324.88 367.38 322.69 373.14 319.17 378.13 C 315.22 385.12 311.46 392.23 306.99 398.92 C 306.12 398.87 304.40 398.77 303.53 398.72 C 305.28 392.49 307.24 386.23 310.73 380.71 C 314.28 375.07 316.89 368.91 320.22 363.16 C 326.64 354.04 331.98 344.24 337.74 334.71 C 344.80 323.77 353.59 314.03 360.51 302.99 C 354.59 305.58 348.55 308.30 343.73 312.72 C 327.24 327.23 310.91 341.90 294.44 356.44 C 289.77 360.73 284.66 364.72 281.10 370.07 C 276.02 377.90 270.21 385.22 264.81 392.83 C 261.47 397.31 258.55 402.15 254.48 406.04 C 253.89 401.74 256.92 398.34 258.83 394.82 C 263.31 387.60 266.87 379.81 271.97 373.00 C 278.94 364.36 285.64 355.39 294.06 348.08 C 303.49 338.83 313.08 329.75 322.51 320.51 C 332.99 311.39 344.96 304.13 355.48 295.07 C 345.52 296.63 336.12 300.32 326.73 303.81 C 316.51 308.47 309.22 317.95 298.79 322.15 C 302.45 316.73 308.31 313.44 313.02 309.04 C 320.82 301.80 330.75 297.62 340.39 293.44 C 345.65 291.11 351.25 289.69 356.61 287.60 C 362.12 285.59 367.62 283.32 373.46 282.46 Z" />
<path fill="#f3722b" opacity="1.00" d=" M 405.53 282.89 C 408.35 282.54 411.39 281.68 414.13 282.90 C 424.30 287.48 434.51 292.52 442.48 300.51 C 447.09 305.02 451.18 310.12 454.25 315.80 C 456.06 318.99 455.47 322.77 455.90 326.26 C 455.20 326.29 453.81 326.35 453.11 326.38 C 449.49 319.77 444.26 314.29 439.18 308.82 C 432.78 302.15 425.98 295.74 418.06 290.91 C 413.91 288.19 409.24 286.25 405.53 282.89 Z" />
<path fill="#f4e4c0" opacity="1.00" d=" M 190.84 284.91 C 193.07 284.88 195.29 284.61 197.50 284.28 C 197.64 287.67 197.29 291.06 196.37 294.34 C 194.31 294.60 192.26 294.86 190.21 295.14 C 190.59 291.74 190.77 288.33 190.84 284.91 Z" />
<path fill="#f4e4c0" opacity="1.00" d=" M 107.76 295.93 C 111.86 292.36 115.99 288.84 120.01 285.18 C 119.07 288.11 118.14 291.04 117.09 293.93 C 116.32 295.93 115.64 297.97 114.99 300.02 L 114.69 300.96 C 121.20 299.78 127.49 297.66 133.91 296.09 C 126.74 301.41 119.12 306.07 111.88 311.26 C 114.79 312.49 117.90 313.09 120.98 313.73 C 114.19 318.87 106.77 323.08 99.88 328.07 C 98.46 325.18 97.12 322.27 95.69 319.39 C 91.01 318.14 86.24 317.25 81.64 315.71 C 85.13 315.37 88.66 315.29 92.13 314.69 C 88.37 308.82 84.54 302.86 82.77 296.03 C 88.48 297.62 93.42 301.15 99.07 302.87 C 101.21 302.49 102.51 300.30 104.23 299.09 C 105.43 298.06 106.61 297.00 107.76 295.93 Z" />
<path fill="#f3722b" opacity="1.00" d=" M 400.21 286.77 C 402.75 287.18 405.41 287.77 407.11 289.89 C 411.91 295.12 417.95 299.54 420.70 306.31 C 424.88 315.78 430.73 324.55 433.45 334.63 C 436.67 344.97 439.02 355.56 441.96 365.99 C 442.88 369.92 444.36 373.81 444.35 377.89 C 443.30 379.66 441.34 380.60 439.78 381.84 C 437.07 374.08 436.93 365.69 434.15 357.95 C 431.12 349.25 427.95 340.61 425.02 331.89 C 423.83 328.20 421.38 325.11 418.67 322.41 C 420.02 332.60 422.99 342.47 425.57 352.39 C 428.47 363.19 428.02 374.46 428.81 385.52 C 429.74 392.32 429.30 399.21 430.10 406.02 C 430.16 408.14 430.78 410.56 429.44 412.43 C 427.61 415.32 424.47 416.89 421.41 418.16 C 421.36 414.16 421.01 410.18 420.63 406.21 C 420.50 395.85 420.96 385.48 420.50 375.13 C 419.31 365.05 417.44 355.03 414.65 345.26 C 411.70 334.68 409.34 323.91 405.50 313.60 C 403.73 308.51 401.75 303.48 400.01 298.38 C 400.89 296.78 403.00 295.39 402.44 293.36 C 401.95 291.08 400.97 288.96 400.21 286.77 Z" />
<path fill="#f4e4c0" opacity="1.00" d=" M 386.93 293.29 C 388.85 293.28 390.76 293.35 392.68 293.49 C 391.25 298.34 388.85 302.95 388.41 308.05 C 388.19 311.16 387.10 314.09 386.44 317.11 C 386.27 319.96 386.87 322.83 386.46 325.68 C 385.67 328.33 383.75 330.46 382.71 333.01 C 382.96 336.02 383.66 339.03 383.29 342.07 C 383.01 345.77 380.98 349.16 381.27 352.93 C 381.22 355.77 381.90 358.78 380.65 361.46 C 379.30 365.24 376.72 368.48 375.52 372.31 C 375.19 376.40 376.98 380.47 375.90 384.53 C 375.37 388.26 373.16 391.46 372.43 395.12 C 372.03 400.34 373.20 405.72 371.55 410.83 C 369.64 417.15 369.42 423.79 368.03 430.21 C 366.72 436.47 365.57 442.76 364.66 449.08 C 364.19 458.76 362.25 468.28 361.54 477.93 C 361.24 482.78 359.96 487.58 357.82 491.94 C 357.20 493.33 355.59 493.66 354.39 494.37 C 356.72 489.50 359.00 484.47 359.32 479.01 C 359.73 468.98 362.09 459.17 362.59 449.16 C 363.98 437.99 367.05 427.11 368.32 415.92 C 368.24 412.93 367.07 409.98 367.96 406.99 C 368.87 403.31 367.53 399.65 367.65 395.97 C 368.32 392.94 370.06 390.30 371.08 387.39 C 372.63 382.04 371.02 376.47 371.51 371.04 C 372.68 368.21 374.74 365.77 375.48 362.75 C 376.17 358.50 375.24 354.25 374.66 350.05 C 375.55 347.26 377.01 344.66 377.52 341.76 C 378.05 338.60 377.35 335.41 377.54 332.25 C 378.75 329.44 381.05 327.26 382.31 324.47 C 383.25 320.91 380.70 317.16 382.60 313.76 C 384.74 310.02 382.47 305.51 384.57 301.78 C 385.74 299.07 386.44 296.19 386.93 293.29 Z" />
<path fill="#3e3e3e" opacity="1.00" d=" M 171.41 296.62 C 174.28 295.02 177.50 295.24 180.57 296.07 C 177.53 296.44 174.47 296.59 171.41 296.62 Z" />
<path fill="#f3722b" opacity="1.00" d=" M 299.87 299.72 C 301.79 299.07 303.74 298.46 305.69 297.88 C 307.17 300.45 308.61 303.05 310.03 305.67 C 308.96 306.63 307.91 307.60 306.88 308.60 C 304.43 305.73 302.10 302.76 299.87 299.72 Z" />
<path fill="#3e3e3e" opacity="1.00" d=" M 196.10 301.25 C 205.33 300.70 214.34 297.70 223.64 298.65 C 222.97 300.61 222.30 302.56 221.61 304.52 C 213.32 304.02 204.99 305.97 196.77 304.50 C 196.55 303.41 196.33 302.33 196.10 301.25 Z" />
<path fill="#f3722b" opacity="1.00" d=" M 7.29 301.37 C 18.28 301.49 29.31 302.13 40.17 303.92 C 45.28 304.86 50.13 306.81 55.24 307.79 C 60.31 308.75 64.91 311.18 69.60 313.23 C 75.81 316.06 82.45 317.78 88.72 320.48 C 80.20 323.63 70.96 324.13 62.47 327.37 C 49.67 331.95 36.28 335.34 24.62 342.58 C 18.17 345.58 13.30 350.88 7.29 354.55 C 7.39 351.64 6.80 348.56 7.74 345.75 C 11.84 342.59 16.75 340.70 21.34 338.36 C 28.92 335.01 36.19 330.99 43.85 327.82 C 49.68 325.31 56.09 324.87 62.18 323.28 C 43.37 323.60 25.20 329.27 7.05 333.60 C 7.14 332.48 7.23 331.37 7.32 330.26 C 15.67 327.30 24.26 325.12 32.80 322.77 C 38.26 320.91 43.86 319.51 49.55 318.54 C 56.66 317.09 63.95 317.79 71.16 317.57 C 61.71 313.79 51.91 310.82 41.79 309.55 C 30.28 308.03 18.74 306.57 7.17 305.51 C 7.24 304.13 7.28 302.75 7.29 301.37 Z" />
<path fill="#f4e4c0" opacity="1.00" d=" M 189.49 302.38 C 191.67 301.90 193.88 301.53 196.10 301.25 C 196.33 302.33 196.55 303.41 196.77 304.50 L 196.94 305.36 C 194.26 304.91 191.57 304.24 189.49 302.38 Z" />
<path fill="#f3722b" opacity="1.00" d=" M 291.91 302.54 C 293.97 302.07 296.04 301.61 298.12 301.18 C 297.86 305.35 299.28 309.21 300.81 313.01 C 299.98 314.27 298.84 315.29 297.79 316.35 C 295.77 311.77 293.61 307.25 291.91 302.54 Z" />
<path fill="#f4e4c0" opacity="1.00" d=" M 234.10 307.07 C 236.79 305.49 239.59 304.09 242.43 302.79 C 242.41 304.54 242.36 306.30 242.30 308.05 C 239.56 307.73 236.82 307.46 234.10 307.07 Z" />
<path fill="#f4e4c0" opacity="1.00" d=" M 193.56 309.35 C 195.28 309.38 197.01 309.42 198.74 309.44 C 199.97 311.02 201.24 312.57 202.56 314.09 C 199.86 317.53 197.91 321.52 197.27 325.88 C 195.85 325.36 194.43 324.87 193.00 324.39 C 193.85 319.42 193.51 314.37 193.56 309.35 Z" />
<path fill="#3e3e3e" opacity="1.00" d=" M 198.74 309.44 C 205.52 309.22 212.31 309.70 218.94 311.19 C 217.29 318.32 214.68 325.18 213.14 332.34 C 214.80 332.27 216.47 332.21 218.14 332.15 C 219.39 325.23 221.28 318.45 223.27 311.71 C 226.43 311.94 229.59 312.21 232.74 312.61 C 232.42 315.10 231.96 317.57 231.72 320.08 C 231.16 323.57 233.89 326.52 233.58 330.00 C 233.53 338.39 231.39 346.57 230.39 354.86 C 230.20 359.34 226.08 361.75 222.83 364.05 C 225.17 360.32 228.03 356.88 229.70 352.76 C 225.79 354.84 222.83 358.17 219.74 361.25 C 217.54 358.87 215.62 356.25 214.14 353.37 C 213.65 353.31 212.67 353.20 212.17 353.14 C 210.82 357.33 210.07 361.68 210.29 366.09 C 207.49 363.15 204.09 360.73 201.77 357.39 C 200.33 350.31 200.44 343.04 200.31 335.85 C 205.51 338.24 211.01 339.93 216.56 341.27 C 218.97 341.87 221.11 340.20 223.24 339.34 C 215.41 333.42 206.28 329.59 197.27 325.88 C 197.91 321.52 199.86 317.53 202.56 314.09 C 201.24 312.57 199.97 311.02 198.74 309.44 Z" />
<path fill="#f4e4c0" opacity="1.00" d=" M 232.74 312.61 C 235.39 312.95 238.04 313.37 240.68 313.82 C 240.94 319.93 239.04 325.87 239.34 331.98 C 240.02 339.38 236.94 346.40 237.13 353.79 C 239.92 352.26 242.76 350.22 246.11 350.66 C 243.25 352.63 240.01 354.09 237.42 356.43 C 235.64 358.06 235.70 360.69 235.22 362.88 C 244.73 361.53 254.21 358.83 263.91 359.74 C 265.36 360.06 266.78 360.50 268.17 361.05 C 257.25 362.58 246.28 363.98 235.55 366.60 C 235.93 372.45 234.21 378.15 234.42 384.00 C 234.21 387.46 235.00 391.21 233.30 394.41 C 231.54 396.54 227.04 396.05 226.62 392.93 C 227.37 384.97 229.07 377.01 228.30 368.97 C 223.67 370.75 218.90 372.66 215.75 376.70 C 212.03 374.94 208.54 372.74 204.91 370.81 C 206.39 369.96 207.88 369.10 209.38 368.28 C 206.65 366.30 204.15 364.05 201.56 361.91 C 201.47 366.98 201.58 372.05 201.60 377.11 C 200.10 375.77 198.67 374.38 197.14 373.08 C 197.35 368.06 198.40 362.55 196.21 357.84 C 191.83 353.67 186.03 351.43 181.05 348.07 C 181.24 347.59 181.62 346.63 181.81 346.16 C 186.57 349.29 191.42 352.30 196.50 354.89 C 196.56 351.23 196.57 347.58 196.33 343.94 C 196.23 342.93 196.12 341.93 195.99 340.93 C 195.66 338.48 195.50 336.01 195.43 333.55 C 197.05 334.31 198.67 335.09 200.31 335.85 C 200.44 343.04 200.33 350.31 201.77 357.39 C 204.09 360.73 207.49 363.15 210.29 366.09 C 210.07 361.68 210.82 357.33 212.17 353.14 C 212.67 353.20 213.65 353.31 214.14 353.37 C 215.62 356.25 217.54 358.87 219.74 361.25 C 222.83 358.17 225.79 354.84 229.70 352.76 C 228.03 356.88 225.17 360.32 222.83 364.05 C 226.08 361.75 230.20 359.34 230.39 354.86 C 231.39 346.57 233.53 338.39 233.58 330.00 C 233.89 326.52 231.16 323.57 231.72 320.08 C 231.96 317.57 232.42 315.10 232.74 312.61 Z" />
<path fill="#f3722b" opacity="1.00" d=" M 117.91 321.86 C 121.85 319.38 125.55 316.28 130.08 314.92 C 136.68 313.99 143.41 314.60 150.02 315.22 C 164.73 315.93 179.09 319.75 193.00 324.39 C 194.43 324.87 195.85 325.36 197.27 325.88 C 206.28 329.59 215.41 333.42 223.24 339.34 C 221.11 340.20 218.97 341.87 216.56 341.27 C 211.01 339.93 205.51 338.24 200.31 335.85 C 198.67 335.09 197.05 334.31 195.43 333.55 C 188.44 329.83 180.61 328.33 173.21 325.71 C 165.70 322.79 157.64 321.18 149.57 321.64 C 157.58 325.35 166.70 325.38 174.68 329.22 C 182.49 331.77 188.79 337.18 195.99 340.93 C 196.12 341.93 196.23 342.93 196.33 343.94 C 184.34 342.23 174.31 334.70 162.87 331.20 C 153.47 328.45 143.89 326.19 134.15 325.01 C 136.48 327.99 138.78 331.02 140.56 334.37 C 142.16 337.00 143.41 340.09 146.10 341.81 C 163.57 351.46 180.81 361.59 197.14 373.08 C 198.67 374.38 200.10 375.77 201.60 377.11 C 207.31 382.45 214.05 386.61 219.30 392.46 C 218.53 392.57 216.98 392.80 216.21 392.92 C 212.11 387.89 207.01 383.72 201.37 380.54 C 201.77 382.90 202.11 385.40 203.61 387.37 C 207.97 393.50 212.89 399.21 217.69 405.00 C 217.49 405.51 217.08 406.52 216.88 407.02 C 211.44 401.47 207.26 394.83 201.73 389.37 C 202.84 402.30 201.76 415.29 202.65 428.23 C 200.28 415.63 202.69 402.71 201.33 390.02 C 201.02 387.64 199.15 385.94 197.78 384.13 C 193.68 378.31 188.47 373.45 182.77 369.23 C 176.88 364.78 171.48 359.63 165.04 355.94 C 157.21 351.43 149.85 346.00 141.44 342.58 C 136.91 340.51 132.06 339.24 127.62 336.97 C 130.86 336.13 134.15 336.74 137.36 337.36 C 132.52 330.42 125.21 325.84 117.91 321.86 Z" />
<path fill="#f3722b" opacity="1.00" d=" M 315.90 315.75 C 316.67 316.79 317.41 317.85 318.12 318.93 C 316.70 319.62 315.28 320.31 313.84 320.97 C 314.49 319.21 315.18 317.47 315.90 315.75 Z" />
<path fill="#3e3e3e" opacity="1.00" d=" M 149.57 321.64 C 157.64 321.18 165.70 322.79 173.21 325.71 C 180.61 328.33 188.44 329.83 195.43 333.55 C 195.50 336.01 195.66 338.48 195.99 340.93 C 188.79 337.18 182.49 331.77 174.68 329.22 C 166.70 325.38 157.58 325.35 149.57 321.64 Z" />
<path fill="#f3722b" opacity="1.00" d=" M 302.85 330.58 C 302.95 327.17 305.41 324.99 307.95 323.12 C 308.26 324.05 308.57 324.99 308.88 325.93 C 307.78 327.47 306.73 329.03 305.67 330.60 C 304.97 330.59 303.55 330.58 302.85 330.58 Z" />
<path fill="#3e3e3e" opacity="1.00" d=" M 134.15 325.01 C 143.89 326.19 153.47 328.45 162.87 331.20 C 174.31 334.70 184.34 342.23 196.33 343.94 C 196.57 347.58 196.56 351.23 196.50 354.89 C 191.42 352.30 186.57 349.29 181.81 346.16 C 181.62 346.63 181.24 347.59 181.05 348.07 C 186.03 351.43 191.83 353.67 196.21 357.84 C 198.40 362.55 197.35 368.06 197.14 373.08 C 180.81 361.59 163.57 351.46 146.10 341.81 C 143.41 340.09 142.16 337.00 140.56 334.37 C 138.78 331.02 136.48 327.99 134.15 325.01 Z" />
<path fill="#f3722b" opacity="1.00" d=" M 82.73 327.95 C 85.44 327.10 88.34 327.35 91.15 327.27 C 87.87 330.00 84.20 332.20 80.90 334.89 C 77.77 337.42 75.50 340.81 72.49 343.47 C 57.75 355.21 45.97 370.23 36.02 386.14 C 35.26 387.66 33.43 387.82 32.02 388.44 C 34.41 381.89 39.02 376.54 42.92 370.87 C 47.67 364.01 53.35 357.87 59.02 351.78 C 53.48 352.09 49.48 356.12 45.48 359.45 C 36.31 366.61 29.05 375.82 21.83 384.85 C 18.94 388.30 16.94 392.54 13.47 395.47 C 11.33 396.23 8.96 395.05 6.78 394.82 C 8.59 389.17 12.64 384.71 15.91 379.89 C 18.72 376.03 21.30 371.99 24.53 368.46 C 26.98 365.54 31.05 365.17 34.01 362.98 C 38.22 359.93 41.77 356.05 46.09 353.13 C 49.64 350.73 52.75 347.76 56.07 345.06 C 61.61 340.84 67.66 337.34 73.45 333.45 C 76.48 331.53 79.38 329.31 82.73 327.95 Z" />
<path fill="#f3722b" opacity="1.00" d=" M 107.35 327.90 C 110.62 326.68 113.49 329.21 115.62 331.37 C 123.19 339.23 127.30 349.50 132.03 359.15 C 138.57 373.97 144.56 389.09 148.06 404.96 C 145.98 405.70 143.59 409.70 141.62 407.44 C 138.47 393.64 134.56 379.97 129.17 366.86 C 126.08 357.34 120.75 348.82 115.86 340.16 C 113.48 335.75 109.84 332.22 107.35 327.90 Z" />
<path fill="#f3722b" opacity="1.00" d=" M 86.05 334.04 C 87.60 331.88 90.42 332.09 92.77 331.75 C 93.80 340.53 88.89 348.15 86.23 356.14 C 81.81 368.72 77.69 381.46 75.23 394.59 C 67.21 426.37 64.79 459.14 59.32 491.38 C 57.81 490.45 55.88 489.95 54.82 488.47 C 53.86 481.35 53.49 474.16 53.32 466.98 C 52.82 461.75 52.22 456.50 52.50 451.24 C 54.26 450.14 56.78 449.46 57.09 447.05 C 59.15 439.44 60.30 431.62 61.88 423.91 C 63.09 417.28 64.65 410.71 65.34 404.00 C 60.16 418.02 54.67 431.97 50.49 446.33 C 45.50 448.08 43.56 453.28 41.90 457.83 C 37.60 471.09 34.56 484.75 30.09 497.95 C 28.60 496.08 25.66 494.40 26.60 491.61 C 29.35 478.46 32.53 465.39 35.26 452.23 C 36.36 446.71 38.16 441.37 40.14 436.11 C 45.23 422.28 50.34 408.44 55.41 394.61 C 55.04 391.26 51.49 389.01 50.20 385.89 C 51.42 381.93 53.98 378.58 55.92 374.97 C 60.01 368.10 63.21 360.60 68.64 354.64 C 74.59 347.89 80.11 340.79 86.05 334.04 Z" />
<path fill="#f3722b" opacity="1.00" d=" M 99.41 335.64 C 102.68 336.67 107.48 336.18 109.26 339.71 C 118.56 360.83 125.59 382.83 133.24 404.58 C 135.01 409.91 135.92 415.47 137.16 420.93 C 139.29 431.19 142.32 441.27 143.65 451.68 C 144.85 461.22 146.15 470.73 147.35 480.27 C 146.49 480.30 144.78 480.36 143.92 480.38 C 142.12 476.72 140.24 473.06 139.11 469.12 C 137.74 464.02 137.60 458.69 136.41 453.56 C 135.78 450.60 133.76 448.10 133.53 445.05 C 132.81 433.86 129.57 423.07 126.99 412.22 C 123.91 399.92 120.94 387.53 116.32 375.70 C 114.27 370.31 112.58 364.74 109.76 359.68 C 109.61 370.26 109.28 380.90 110.87 391.40 C 112.61 403.19 112.55 415.12 113.53 426.98 C 114.59 437.34 112.86 447.68 112.60 458.04 C 112.46 463.19 111.94 468.32 111.48 473.45 C 109.48 471.89 107.03 470.66 105.71 468.43 C 103.85 462.46 104.57 456.12 104.08 449.98 C 101.85 418.68 104.49 387.26 102.63 355.95 C 102.82 349.02 100.34 342.43 99.41 335.64 Z" />
<path fill="#f3722b" opacity="1.00" d=" M 457.13 338.54 C 458.75 338.98 460.64 338.92 462.03 339.96 C 465.55 345.32 465.89 352.00 465.79 358.22 C 464.02 358.08 462.26 357.93 460.51 357.76 C 459.59 351.32 457.35 345.08 457.13 338.54 Z" />
<path fill="#f3722b" opacity="1.00" d=" M 311.75 350.11 C 312.64 348.74 313.77 347.56 314.85 346.35 C 316.22 349.26 317.78 352.13 318.55 355.28 C 319.22 357.82 316.97 359.80 315.86 361.84 C 313.71 358.27 312.19 354.26 311.75 350.11 Z" />
<path fill="#3e3e3e" opacity="1.00" d=" M 224.43 366.64 C 225.95 364.87 227.89 363.52 230.20 363.03 C 228.50 364.57 226.51 365.70 224.43 366.64 Z" />
<path fill="#f3722b" opacity="1.00" d=" M 286.96 374.17 C 289.31 369.61 293.42 366.31 297.21 362.98 C 297.73 364.75 298.27 366.53 298.80 368.32 C 297.62 368.46 296.45 368.61 295.28 368.77 C 295.29 372.43 295.58 376.33 293.70 379.66 C 291.78 382.99 292.39 386.93 292.36 390.60 C 291.47 390.56 289.69 390.47 288.80 390.43 C 287.88 385.08 285.77 379.62 286.96 374.17 Z" />
<path fill="#3e3e3e" opacity="1.00" d=" M 184.81 367.70 C 189.83 370.27 195.93 373.00 197.42 379.02 C 192.87 375.66 188.63 371.87 184.81 367.70 Z" />
<path fill="#f3722b" opacity="1.00" d=" M 323.49 383.53 C 322.66 380.60 324.33 377.93 325.69 375.48 C 329.12 384.01 331.15 393.06 332.60 402.11 C 330.63 403.26 328.60 401.74 326.69 401.26 C 327.15 395.12 324.79 389.40 323.49 383.53 Z" />
<path fill="#f4e4c0" opacity="1.00" d=" M 197.34 376.54 C 198.73 377.64 200.26 378.63 201.34 380.07 C 201.44 381.58 201.45 383.10 201.38 384.62 C 198.95 382.57 197.30 379.79 197.34 376.54 Z" />
<path fill="#f4e4c0" opacity="1.00" d=" M 197.78 384.13 C 199.15 385.94 201.02 387.64 201.33 390.02 C 202.69 402.71 200.28 415.63 202.65 428.23 C 204.62 435.47 202.75 443.08 204.22 450.39 C 206.90 459.10 203.84 468.15 204.55 477.05 C 205.37 484.27 201.32 490.64 200.05 497.53 C 198.74 497.54 197.43 497.55 196.12 497.58 C 197.95 490.55 198.58 483.25 198.33 476.00 C 198.55 461.34 198.57 446.68 198.32 432.02 C 197.31 421.05 197.68 410.01 197.39 399.00 C 197.44 394.04 197.06 389.05 197.78 384.13 Z" />
<path fill="#f3722b" opacity="1.00" d=" M 445.32 401.41 C 445.90 401.41 447.08 401.42 447.66 401.42 C 447.70 402.04 447.76 403.28 447.80 403.89 C 447.15 403.89 445.85 403.88 445.20 403.88 C 445.23 403.26 445.29 402.03 445.32 401.41 Z" />
<path fill="#f4e4c0" opacity="1.00" d=" M 225.23 404.08 C 226.16 400.91 229.46 401.25 232.09 401.61 C 233.43 403.70 232.26 406.47 232.35 408.82 C 229.82 407.50 227.10 406.31 225.23 404.08 Z" />
<path fill="#f4e4c0" opacity="1.00" d=" M 224.50 410.45 C 226.62 411.78 228.65 413.25 230.63 414.80 C 228.64 416.06 226.57 417.21 224.30 417.86 C 224.28 415.39 224.35 412.92 224.50 410.45 Z" />
<path fill="#f3722b" opacity="1.00" d=" M 292.46 434.75 C 288.07 428.50 293.05 420.71 297.17 415.69 C 299.64 420.32 297.51 425.33 295.69 429.74 C 294.83 431.52 294.20 433.61 292.46 434.75 Z" />
<path fill="#f4e4c0" opacity="1.00" d=" M 223.84 428.01 C 225.61 425.49 228.28 423.81 230.64 421.91 C 230.59 426.59 230.33 431.29 231.17 435.93 C 230.77 439.04 230.33 442.15 230.33 445.29 C 228.43 445.37 226.53 445.44 224.63 445.51 C 224.06 442.30 223.30 439.12 222.84 435.89 C 223.08 433.25 223.47 430.63 223.84 428.01 Z" />
<path fill="#f3722b" opacity="1.00" d=" M 156.04 438.06 C 157.73 438.57 159.83 438.46 161.07 439.92 C 163.04 442.34 163.87 445.43 164.56 448.42 C 165.54 453.05 166.70 457.79 165.89 462.55 C 164.18 462.62 162.48 462.71 160.77 462.80 C 160.55 459.20 160.58 455.58 159.86 452.04 C 158.96 447.28 156.97 442.81 156.04 438.06 Z" />
<path fill="#f3722b" opacity="1.00" d=" M 413.21 460.23 C 414.25 456.02 414.43 451.46 417.00 447.79 C 417.51 449.50 418.57 451.19 418.29 453.05 C 417.20 461.09 414.11 468.67 412.67 476.64 C 411.87 476.69 410.26 476.79 409.45 476.83 C 409.11 471.00 411.96 465.77 413.21 460.23 Z" />
<path fill="#f3722b" opacity="1.00" d=" M 430.55 461.23 C 431.14 461.27 432.31 461.34 432.89 461.38 C 431.84 465.15 430.69 469.20 427.28 471.56 C 428.21 468.06 429.46 464.67 430.55 461.23 Z" />
<path fill="#f3722b" opacity="1.00" d=" M 98.29 469.22 C 99.29 467.65 101.70 469.46 100.60 470.90 C 99.61 472.46 97.18 470.64 98.29 469.22 Z" />
<path fill="#f3722b" opacity="1.00" d=" M 123.15 472.19 C 124.70 472.16 126.25 472.14 127.80 472.12 C 128.96 476.16 130.22 480.19 130.88 484.35 C 124.98 483.76 124.60 476.66 123.15 472.19 Z" />
</svg>
