<?xml version="1.0" encoding="UTF-8" ?>
<!DOCTYPE svg PUBLIC "-//W3C//DTD SVG 1.1//EN" "http://www.w3.org/Graphics/SVG/1.1/DTD/svg11.dtd">
<svg width="512pt" height="512pt" viewBox="0 0 512 512" version="1.1" xmlns="http://www.w3.org/2000/svg">
<path fill="#3e3e3e" opacity="1.00" d=" M 0.00 0.00 L 512.00 0.00 L 512.00 512.00 L 0.00 512.00 L 0.00 0.00 Z" />
<path fill="#f5722c" opacity="1.00" d=" M 220.98 68.09 C 226.59 57.63 238.08 50.52 250.00 50.51 C 261.24 50.00 272.29 55.76 278.96 64.70 C 275.86 64.64 272.75 64.56 269.66 64.17 C 259.63 62.78 249.48 63.86 239.45 64.71 C 233.21 65.36 227.24 67.58 220.98 68.09 Z" />
<path fill="#f5722c" opacity="1.00" d=" M 288.92 66.72 C 293.55 61.93 300.55 60.22 306.97 59.59 C 322.19 58.39 337.38 68.68 341.73 83.35 C 342.43 86.32 344.17 89.79 342.31 92.65 C 326.92 79.86 308.19 71.68 288.92 66.72 Z" />
<path fill="#f5722c" opacity="1.00" d=" M 159.74 99.46 C 159.43 82.59 174.25 67.30 191.00 66.56 C 197.72 66.17 204.85 67.13 210.49 71.06 C 206.10 73.40 201.21 74.57 196.69 76.64 C 184.87 81.77 173.67 88.45 163.84 96.81 C 162.58 97.85 161.18 98.70 159.74 99.46 Z" />
<path fill="#f5722c" opacity="1.00" d=" M 233.43 72.78 C 237.60 72.18 241.80 71.69 246.02 71.58 C 257.92 71.40 270.01 71.02 281.62 74.11 C 327.37 82.78 366.72 118.14 380.46 162.59 C 383.97 171.71 385.54 181.41 386.47 191.09 C 387.19 205.30 387.18 219.75 383.59 233.61 C 377.21 261.25 361.60 286.64 339.85 304.84 C 315.82 325.00 284.43 336.48 253.00 335.51 C 230.49 335.92 208.24 329.21 188.71 318.25 C 161.16 302.51 139.66 276.49 129.55 246.39 C 125.40 235.40 123.93 223.66 122.76 212.04 C 120.93 182.76 128.68 152.69 145.64 128.62 C 152.28 118.83 160.24 109.88 169.44 102.41 C 187.38 86.70 210.05 76.94 233.43 72.78 Z" />
<path fill="#3e3e3e" opacity="1.00" d=" M 245.34 100.23 C 269.09 98.04 293.50 105.20 312.68 119.33 C 317.96 123.70 323.24 128.10 328.01 133.05 C 341.80 148.91 350.88 168.97 352.91 189.95 C 355.53 215.22 348.05 241.36 332.48 261.44 C 327.91 268.12 321.51 273.17 315.49 278.46 C 308.84 284.25 300.95 288.34 293.01 292.03 C 280.45 297.64 266.66 299.87 253.00 300.37 C 238.60 299.88 224.06 297.32 211.00 291.02 C 191.83 282.19 175.52 267.15 165.42 248.59 C 156.56 232.97 152.67 214.86 152.86 197.00 C 153.73 174.67 161.77 152.39 176.53 135.48 C 193.41 115.04 218.86 101.88 245.34 100.23 Z" />
<path fill="#f5722c" opacity="1.00" d=" M 351.81 99.83 C 358.98 99.01 366.39 100.79 372.58 104.43 C 380.34 109.77 386.94 117.68 388.51 127.21 C 389.31 134.82 389.32 143.04 384.96 149.68 C 383.80 147.88 382.74 146.01 381.91 144.04 C 377.69 134.13 372.01 124.91 365.73 116.19 C 361.47 110.41 355.95 105.70 351.81 99.83 Z" />
<path fill="#f5722c" opacity="1.00" d=" M 115.22 136.96 C 116.32 118.98 134.46 104.16 152.32 106.85 C 150.22 110.46 146.99 113.20 144.49 116.51 C 134.25 129.43 126.34 144.26 121.51 160.02 C 115.70 153.98 114.69 144.96 115.22 136.96 Z" />
<path fill="#f5e5c1" opacity="1.00" d=" M 240.45 110.69 C 248.52 109.97 256.67 110.05 264.75 110.60 C 283.55 113.11 301.59 121.55 315.34 134.65 C 331.19 149.60 341.46 170.29 343.48 192.00 C 343.71 198.57 343.80 205.17 343.32 211.73 C 341.23 227.27 335.44 242.41 325.99 254.98 C 314.24 270.75 297.36 282.65 278.53 288.35 C 258.23 294.50 235.71 293.36 216.27 284.76 C 190.52 273.61 171.22 249.66 164.68 222.51 C 161.72 212.02 162.12 201.02 162.61 190.26 C 165.10 170.45 173.94 151.28 188.12 137.11 C 201.96 122.79 220.78 113.54 240.45 110.69 Z" />
<path fill="#3e3e3e" opacity="1.00" d=" M 236.37 125.35 C 254.01 120.89 273.19 123.34 289.30 131.72 C 302.62 138.76 313.84 149.72 321.05 162.96 C 330.19 179.86 333.56 200.11 328.92 218.88 C 324.99 236.92 314.14 253.40 298.87 263.82 C 274.75 281.56 240.06 282.64 214.67 266.90 C 221.96 257.04 230.23 247.94 237.76 238.26 C 232.59 234.23 227.80 229.69 222.36 226.00 C 214.71 235.11 207.23 244.38 199.41 253.35 C 198.56 254.59 197.49 252.68 196.84 252.18 C 183.93 237.74 176.56 218.39 177.11 198.98 C 177.33 180.62 184.65 162.57 196.89 148.94 C 207.36 137.44 221.18 128.89 236.37 125.35 Z" />
<path fill="#f5e5c1" opacity="1.00" d=" M 285.47 150.76 C 285.49 145.60 290.48 143.29 293.95 140.46 C 298.80 144.61 303.68 148.73 308.36 153.07 C 306.37 156.95 305.40 162.87 300.08 163.27 C 300.07 165.96 301.04 168.96 299.45 171.39 C 292.58 183.01 285.52 194.51 278.68 206.15 C 277.07 205.17 275.53 204.10 274.12 202.87 C 265.77 195.54 257.03 188.66 248.71 181.31 C 247.37 180.40 249.01 179.33 249.66 178.67 C 259.40 170.09 269.11 161.46 278.80 152.82 C 280.57 151.06 283.16 151.08 285.47 150.76 Z" />
<path fill="#f5722c" opacity="1.00" d=" M 388.12 159.97 C 394.73 161.02 400.05 165.79 404.39 170.60 C 414.45 182.48 414.47 201.52 404.41 213.40 C 401.29 216.90 397.96 220.76 393.25 222.02 C 395.22 206.10 395.00 189.79 391.59 174.08 C 390.80 169.28 388.99 164.74 388.12 159.97 Z" />
<path fill="#f5722c" opacity="1.00" d=" M 101.99 185.98 C 105.46 179.02 110.74 172.27 118.30 169.61 C 115.93 181.59 114.14 193.74 114.47 206.00 C 114.22 213.77 115.37 221.46 115.92 229.19 C 107.43 225.14 101.97 216.44 99.66 207.56 C 98.77 200.37 98.47 192.57 101.99 185.98 Z" />
<path fill="#f5e5c1" opacity="1.00" d=" M 237.96 188.87 C 239.97 186.73 242.08 184.68 244.17 182.62 C 255.51 191.37 266.09 201.07 277.15 210.18 C 275.19 212.95 272.80 215.38 270.70 218.04 C 259.45 208.72 248.82 198.65 237.96 188.87 Z" />
<path fill="#f5e5c1" opacity="1.00" d=" M 237.01 205.84 C 237.33 202.66 237.62 199.43 238.85 196.44 C 245.57 201.93 252.01 207.74 258.69 213.28 C 260.29 214.59 261.79 216.04 263.14 217.63 C 259.79 218.72 256.39 219.63 252.99 220.57 C 247.64 215.68 242.32 210.76 237.01 205.84 Z" />
<path fill="#f5e5c1" opacity="1.00" d=" M 226.84 221.82 C 228.59 217.21 230.62 212.70 232.95 208.36 C 239.34 213.77 245.43 219.53 251.61 225.19 C 248.23 228.34 244.52 231.08 240.93 233.98 C 236.04 230.16 231.63 225.77 226.84 221.82 Z" />
<path fill="#f5722c" opacity="1.00" d=" M 391.74 229.94 C 401.99 240.72 403.34 258.71 395.10 271.08 C 389.32 280.17 378.79 286.66 367.92 286.70 C 369.47 282.87 372.19 279.70 374.14 276.09 C 382.32 261.76 389.14 246.34 391.74 229.94 Z" />
<path fill="#f5722c" opacity="1.00" d=" M 118.31 239.91 C 119.97 242.61 120.33 245.82 121.32 248.79 C 125.67 261.45 131.79 273.52 139.63 284.38 C 141.25 286.46 142.91 288.55 144.12 290.91 C 129.55 290.07 116.85 277.89 114.41 263.66 C 112.64 255.59 114.47 247.11 118.31 239.91 Z" />
<path fill="#f5722c" opacity="1.00" d=" M 297.64 337.66 C 314.25 332.26 329.67 323.49 343.07 312.33 C 350.29 323.87 356.20 336.20 363.00 348.00 C 378.15 375.53 393.13 403.16 408.31 430.69 C 410.57 435.27 413.62 439.48 415.30 444.35 C 399.71 441.21 384.43 436.65 368.93 433.11 C 353.05 428.95 337.09 425.15 321.16 421.18 C 312.50 441.72 304.37 462.49 295.73 483.04 C 293.06 478.84 291.55 474.05 289.44 469.56 C 282.50 454.15 276.75 438.25 270.46 422.58 C 262.75 402.65 254.93 382.77 247.20 362.86 C 244.92 356.62 241.91 350.61 240.62 344.05 C 250.07 344.51 259.58 344.80 269.02 343.80 C 278.83 343.37 288.34 340.64 297.64 337.66 Z" />
<path fill="#f5722c" opacity="1.00" d=" M 162.54 332.60 C 164.67 326.58 166.07 320.28 168.83 314.50 C 181.03 323.91 194.54 331.79 209.16 336.79 C 216.38 339.42 223.90 341.05 231.40 342.67 C 238.85 361.34 245.51 380.32 252.87 399.03 C 253.92 401.31 253.84 403.89 253.09 406.25 C 250.27 416.04 247.62 425.88 245.55 435.86 C 242.21 447.08 240.04 458.60 236.92 469.89 C 235.43 474.74 234.93 479.86 233.08 484.61 C 229.18 480.49 226.35 475.53 222.92 471.05 C 211.81 456.04 201.25 440.61 190.01 425.71 C 170.58 435.60 151.34 445.92 132.00 456.00 C 127.95 457.82 124.34 460.52 120.12 461.97 C 124.26 447.26 129.69 432.94 134.26 418.36 C 143.72 389.78 153.07 361.17 162.54 332.60 Z" />
</svg>
