<?xml version="1.0" encoding="UTF-8" standalone="no"?>
<svg
   xmlns:dc="http://purl.org/dc/elements/1.1/"
   xmlns:cc="http://creativecommons.org/ns#"
   xmlns:rdf="http://www.w3.org/1999/02/22-rdf-syntax-ns#"
   xmlns:svg="http://www.w3.org/2000/svg"
   xmlns="http://www.w3.org/2000/svg"
   xmlns:sodipodi="http://sodipodi.sourceforge.net/DTD/sodipodi-0.dtd"
   xmlns:inkscape="http://www.inkscape.org/namespaces/inkscape"
   width="1280"
   height="1280"
   viewBox="0 0 1024 1024"
   version="1.1"
   id="svg2"
   inkscape:version="0.48.1 "
   sodipodi:docname="assist_medic_uber.svg">
  <metadata
     id="metadata60">
    <rdf:RDF>
      <cc:Work
         rdf:about="">
        <dc:format>image/svg+xml</dc:format>
        <dc:type
           rdf:resource="http://purl.org/dc/dcmitype/StillImage" />
      </cc:Work>
    </rdf:RDF>
  </metadata>
  <defs
     id="defs58" />
  <sodipodi:namedview
     pagecolor="#ffffff"
     bordercolor="#666666"
     borderopacity="1"
     objecttolerance="10"
     gridtolerance="10"
     guidetolerance="10"
     inkscape:pageopacity="0"
     inkscape:pageshadow="2"
     inkscape:window-width="1920"
     inkscape:window-height="1018"
     id="namedview56"
     showgrid="false"
     inkscape:snap-page="true"
     fit-margin-top="0"
     fit-margin-left="0"
     fit-margin-right="0"
     fit-margin-bottom="0"
     inkscape:zoom="0.6609375"
     inkscape:cx="640"
     inkscape:cy="640"
     inkscape:window-x="-8"
     inkscape:window-y="-8"
     inkscape:window-maximized="1"
     inkscape:current-layer="svg2" />
  <rect
     style="fill:#3e3e3e;fill-opacity:1;fill-rule:nonzero;stroke:none"
     id="rect3037"
     width="1024"
     height="1024"
     x="0"
     y="2.2737368e-013" />
  <path
     d="M 0,0 0.36,0 C 0.26,0.1 0.08,0.28 0,0.38 L 0,0 z"
     id="path4"
     inkscape:connector-curvature="0"
     style="fill:#f4722b" />
  <path
     d="m 524.44,0 31.36,0 c 3.12,0.56 6.18,1.34 9.26,2.14 -0.4,9.4 -2,18.72 -2.02,28.14 10.24,2.66 20.52,5.34 30.36,9.26 -2.06,8.68 -0.82,18.5 -6.88,25.76 -8.42,-1.84 -17.12,-2.12 -25.38,-4.68 -2.78,11.42 -1.38,23.32 -4.02,34.76 -17.36,-4.2 -34.9,-7.92 -52.54,-10.7 0.04,-10.68 2.34,-21.2 4.3,-31.66 -9.88,-2.4 -20.06,-3.26 -30.12,-4.44 -0.5,-11.38 1.88,-22.58 3.06,-33.86 12.56,3.38 25.54,4.84 38.3,7.3 1.18,-7.38 2.84,-14.68 4.32,-22.02 z"
     id="path8"
     inkscape:connector-curvature="0"
     style="fill:#f5e5c1" />
  <path
     d="m 81.82,38 c 0.5,-0.36 1.52,-1.1 2.04,-1.48 20.64,5.76 40.96,12.74 61.58,18.64 -2.04,12.76 -6.58,24.98 -8.86,37.68 12.14,2.74 24.18,5.9 36.28,8.8 -3.44,12.94 -5.44,26.22 -8.68,39.22 -14.88,-4.64 -29.94,-8.92 -45.14,-12.42 -3.78,12.82 -8.5,25.36 -11.9,38.3 C 92.68,159.46 77.86,152.82 63,146.38 c 1.34,-10.94 3.46,-21.82 5.8,-32.6 -10.44,-4.66 -21.16,-8.74 -31.72,-13.18 -2.02,-0.6 -2.9,-2.6 -3.96,-4.2 3.76,-9.24 4.14,-19.44 7.56,-28.78 11.3,3 22.74,5.46 34.02,8.6 3.72,-12.4 4.8,-25.5 7.12,-38.22 z"
     id="path10"
     inkscape:connector-curvature="0"
     style="fill:#f5e5c1" />
  <path
     d="m 735.28,91.42 c 15.54,-17.98 32.42,-35 47.34,-53.36 -1.1,4.08 -3.66,7.4 -6.28,10.62 -15.56,22.36 -30.88,44.92 -46.1,67.52 -1.24,1.52 -2.68,4.36 -4.96,2.56 -15.18,-6.8 -30.18,-14 -45.52,-20.42 -8.62,-3.52 -16.56,-8.68 -25.58,-11.14 -2.44,17.08 -8.16,33.54 -10.22,50.7 7.44,-1.38 14.64,-3.74 22.06,-5.14 8.4,1.86 16.08,6 24.2,8.84 31.98,12.08 63.54,25.5 95.72,36.98 11.26,-2.34 22.14,-6.28 33.14,-9.62 16.6,-7.74 32.34,-17.26 48.84,-25.22 -2.96,4.32 -7.24,7.4 -11.22,10.68 -17.8,14.48 -34.68,30.08 -52.7,44.28 -40.06,-9.64 -79.94,-20.38 -119.96,-30.34 -22.56,-5.64 -44.56,-13.42 -67.28,-18.36 -8.44,32.16 -19.88,63.54 -28.08,95.74 9.66,18.02 20.18,35.64 30.34,53.44 4.16,6.5 1.84,14.56 2.36,21.82 -9.94,0.82 -20.16,1.26 -30.02,-0.1 -6.34,-18.24 -11.04,-37.08 -17,-55.5 -3.06,-7.42 -0.56,-15.3 0.46,-22.84 2.32,-17.52 6,-34.9 6.48,-52.62 0.34,-5.82 0.06,-11.74 1.46,-17.44 5.06,-14.38 12.94,-27.6 17.98,-41.96 -18.88,-2.02 -37.54,-6.4 -56.6,-6.64 2.2,-0.84 4.28,-2.3 6.72,-2.26 15.54,-0.34 31.06,-1.52 46.58,-2.18 11.2,-3.24 22,-7.76 33.18,-11.12 11.12,-14.38 20.3,-30.18 31.4,-44.6 21.28,11.08 43.22,20.84 64.6,31.72 3.54,2.24 6.56,-1.7 8.66,-4.04 z"
     id="path12"
     inkscape:connector-curvature="0"
     style="fill:#f4722b" />
  <path
     d="m 204.5,64.46 c 7.08,-1.36 14.24,0.28 21.34,0.58 -1.48,5.56 -3.86,10.82 -7.14,15.54 6.46,3.44 13.42,5.78 19.88,9.2 -2.72,5.44 -5.34,10.98 -6.68,16.94 -6.22,-0.72 -11.04,-5.12 -16.34,-7.98 -2.8,5.3 -5.7,10.64 -7.06,16.52 -5.12,1.52 -9.96,-0.84 -14.32,-3.3 -4.64,-2.84 -10.5,-2.7 -14.88,-6.02 3.44,-5.56 6.84,-11.18 10.44,-16.66 -4.26,-2.76 -8.7,-5.24 -13.32,-7.32 2.4,-3.76 4.78,-7.54 7.06,-11.38 5.34,0.34 10.44,1.96 15.64,3.04 1.66,-3.12 3.2,-6.34 5.38,-9.16 z"
     id="path14"
     inkscape:connector-curvature="0"
     style="fill:#f5e5c1" />
  <path
     d="m 902.48,89.14 c 6.7,-0.72 13.24,-3.4 20.08,-2.02 0.12,4.8 0.26,9.6 0.36,14.42 7.1,1.36 14.76,-2.44 21.38,-0.02 1.72,9.1 3.22,18.24 5.86,27.14 -6.52,0.06 -12.96,1.34 -19.46,1.06 -0.2,5.08 0.28,10.16 0.92,15.2 -4.3,0.06 -8.6,0.46 -12.88,0.04 -3.82,-3.04 -3.98,-8.44 -5.54,-12.72 -3.72,0 -7.42,0.04 -11.1,0.18 -5.38,-5.48 -9.16,-12.26 -12.04,-19.32 5.72,-0.24 11.1,-2.54 16.86,-2.42 -1.6,-7.16 -2.82,-14.4 -4.44,-21.54 z"
     id="path16"
     inkscape:connector-curvature="0"
     style="fill:#f5e5c1" />
  <path
     d="m 331.98,99.2 c 15,6.86 29.9,13.98 45.06,20.46 -1.36,10.92 -3.54,21.76 -5.86,32.52 11.62,5.74 24.4,9.08 35.62,15.62 -3,10.08 -4.16,20.64 -7.44,30.62 -11.28,-3.1 -22.82,-5.26 -33.96,-8.84 -3.62,12.86 -5.32,26.38 -7.08,39.66 -6.58,0.12 -12.56,-3.02 -18.78,-4.68 -15,-4.52 -29.92,-9.4 -44.98,-13.74 2.12,-12.72 6.48,-24.94 8.94,-37.6 -10.14,-2.4 -20.24,-4.94 -30.36,-7.36 -2.32,-0.38 -4.28,-1.72 -6.12,-3.1 3.1,-8 4.04,-16.64 6.06,-24.96 1.2,-4.3 0.8,-9.5 4.26,-12.82 13.86,5.88 28.94,8.52 43.36,12.84 3.7,-12.88 9.56,-25.26 11.28,-38.62 z"
     id="path18"
     inkscape:connector-curvature="0"
     style="fill:#f5e5c1" />
  <path
     d="m 23.64,195.4 c 27.86,6.4 55.36,14.48 83.02,21.74 15,38 29.12,76.4 42.86,114.9 6.9,-1.82 11.6,-7.46 17.28,-11.38 9.3,-6.48 18,-13.78 27.28,-20.3 2.56,-1.98 5.5,-3.7 7.32,-6.44 -7.48,-23.76 -18.26,-46.42 -25.64,-70.24 15.36,27.5 29.9,55.46 45.36,82.92 -19.32,15.64 -38.6,31.34 -58.3,46.48 -4.4,2.52 -0.76,7.9 -1.9,11.78 -2.04,2.98 -6.52,4.92 -5.84,9.14 1.22,13.38 0.74,26.86 2.4,40.2 1.26,9.38 -0.24,18.86 1.14,28.24 1.12,0.6 3.34,1.84 4.44,2.46 1.4,2.34 2.08,5.92 5.52,5.78 9.5,1.3 18.76,4.98 28.42,4.76 6,-0.7 7.66,-6.94 8.8,-11.84 30.84,-27.8 62.24,-55 93.26,-82.6 4.68,-4.62 3.72,-11.94 5.32,-17.88 6.32,-25.1 1,-51.02 2.8,-76.52 6.72,25.34 11.82,51.12 18.28,76.56 0.66,3.8 3.04,8.54 -0.56,11.58 -26.3,29.68 -52.42,59.54 -78.82,89.14 -3.2,3.96 -8.08,7.04 -9.74,11.98 2.12,3.66 5.68,6.14 8.64,9.08 8.04,7.34 15.22,15.66 23.8,22.36 14.56,0.76 29.3,-0.24 43.88,-0.98 11.34,-7.54 20.5,-17.98 31.26,-26.34 0.26,20.4 -0.2,40.82 0.26,61.22 -11.68,-1.38 -23.16,-4 -34.72,-6.12 -12.64,-2.66 -25.54,-4.04 -37.94,-7.74 18.38,25 38.2,48.92 56.88,73.72 7.56,-2.12 11.02,-9.62 15.86,-15.06 0.64,8.36 -7.7,11.5 -12.76,16.38 6.96,19.22 9.44,39.66 15.08,59.28 2.78,10.82 7.66,21.16 9.18,32.28 -0.06,14.68 -1.52,29.34 -1.6,44.04 17.58,-3.98 34.94,-8.96 52.66,-12.3 -13.52,7.42 -28.16,12.5 -42.04,19.14 -6.88,3.5 -11.96,9.48 -17.9,14.24 -4.2,3.74 -9.08,6.84 -12.54,11.34 -2.54,6.58 -3.38,13.66 -5.14,20.48 -2.06,10.2 -6.4,20.44 -4.2,31.02 0.7,7.9 4.48,16.22 1.04,23.94 -4.76,11.26 -9.6,22.52 -14.58,33.7 -2.5,4.46 0.52,9.16 2.16,13.32 8.16,17.38 14.68,35.66 23.2,52.74 12.74,-3.48 24.46,-9.88 36.88,-14.36 28.74,-10.84 57.4,-21.92 86.3,-32.32 15.74,11.5 32.58,21.42 48.16,33.1 -19.62,-6.96 -38.52,-17.62 -59.9,-17.68 -26.3,12.72 -51.7,27.4 -78.02,40.14 -4.9,-1.18 -9.92,-1.84 -14.96,-2.06 3.84,11.24 7.26,22.64 11.84,33.62 15.46,-9.34 30.76,-19.24 46.86,-27.3 14.34,16.16 28.14,32.86 42.52,49.02 -14.1,-10.02 -25.58,-23.2 -39.3,-33.68 -15.14,7.92 -29.28,17.92 -43.7,27.14 -8.48,-8.46 -15.36,-18.4 -23.8,-26.9 -19.5,-8.24 -41.36,-6.32 -61.66,-2.54 12,-6.22 25.74,-7.32 38.62,-10.88 -3.92,-10.42 -11.94,-18.78 -15.46,-29.36 -2.5,-11.76 -4.26,-23.68 -7.7,-35.22 -1.96,-8.44 -6.02,-16.86 -4.54,-25.7 2.92,-16.64 6.4,-33.18 8.82,-49.88 -20.56,-1.32 -41.1,-3.1 -61.62,-4.76 -8.76,22.4 -17.2,44.92 -25.54,67.48 -0.3,0.64 -1.8,5.2 -2.18,2.8 7.96,-30.48 14.24,-61.58 21.64,-92.28 26.64,1.54 53.3,2.4 79.92,4.14 -2.72,-17.36 -5.14,-34.76 -8.14,-52.06 -7.38,4.44 -13.56,11.54 -21.96,13.82 -41.82,0.52 -83.72,-0.42 -125.5,0.44 -9.92,6.44 -19,14.24 -28.1,21.78 -12.78,13.66 -24.36,28.4 -37.02,42.16 13.16,-25.6 27.08,-50.82 40.76,-76.14 40.56,-5.32 81.18,-9.9 121.74,-15.12 23.34,-2.8 46.8,-4.46 70.16,-7.06 -2.2,-30.74 -4.96,-61.42 -7.1,-92.16 -0.4,-3.78 -0.44,-8.24 -4.06,-10.5 -15.22,-12.1 -30.3,-24.38 -45.46,-36.54 -3.96,-2.74 -5.04,-7.6 -6.6,-11.84 -6.88,-19.54 -13.62,-39.14 -20.66,-58.62 2.62,-0.36 5.26,-0.7 7.88,-1.04 -15.56,-9.68 -29.38,-22.66 -46.62,-29.3 -1.72,5 -3.6,9.98 -5.8,14.8 -7.58,1.6 -12.22,8.06 -17.98,12.6 -13.6,11.12 -26.38,23.16 -39.86,34.4 -2.92,1.94 -4.54,5.52 -2.8,8.82 9.46,22.4 21.24,43.74 30.26,66.32 -17.74,-26.86 -34.5,-54.34 -52.26,-81.18 8.4,-10 19.16,-17.54 28.28,-26.8 7.02,-7.04 14.76,-13.3 22.26,-19.82 -14.22,-3.38 -28.42,-8.68 -43.1,-8.74 -13.2,21.7 -24.06,44.8 -37.58,66.3 10.74,-30.14 24,-59.36 34.84,-89.48 3.06,-0.18 6.12,-0.34 9.18,-0.5 -1.76,-23.06 -1.1,-46.2 -2,-69.28 -20.8,-5.46 -41.64,-10.74 -62.58,-15.64 -4.3,-0.96 -8.4,-2.52 -12.36,-4.4 23.22,3.7 46.8,5.08 70.06,8.68 C 128,357.2 127.34,352.4 126,347.76 120.36,325.68 115.98,303.22 109.58,281.34 72.64,272.96 36.9,259.78 0,251.26 l 0,-17.98 c 33.72,5.76 67.7,10.14 101.24,16.78 0,-2.26 0,-4.54 -0.02,-6.8 -9.74,-7 -18.66,-15.14 -28.56,-21.94 C 56.64,212.1 39.56,204.78 23.64,195.4 z"
     id="path20"
     inkscape:connector-curvature="0"
     style="fill:#f4722b" />
  <path
     d="m 942.42,223 c 4.62,-0.06 9.24,-0.06 13.88,-0.04 1.94,4.52 3.54,9.2 5,13.92 3.8,-0.1 7.62,-0.26 11.44,-0.5 4.98,5.3 8.12,11.9 11.4,18.3 -5.12,0.86 -10.14,2.78 -15.4,2.18 -1.28,7.46 1.48,14.74 2.8,22.02 -6.08,0.84 -12.16,1.9 -18.02,3.7 -4.22,-5.38 -0.18,-13.12 -4.7,-18.24 -4.8,2.58 -10.52,1.8 -15.3,4.22 -1.04,-0.52 -3.1,-1.56 -4.12,-2.06 -1.2,-7.94 -2.4,-15.9 -4.74,-23.58 0.18,-1.26 0.5,-3.78 0.68,-5.02 6.12,-0.04 12.26,-0.16 18.4,-0.24 -0.42,-4.88 -0.86,-9.78 -1.32,-14.66 z"
     id="path22"
     inkscape:connector-curvature="0"
     style="fill:#f5e5c1" />
  <path
     d="m 689,233.4 c 10.4,-1.84 20.6,-4.76 31.06,-6.4 3.06,6.12 5.16,13.32 9.7,18.36 7.62,-1.7 15.08,-3.98 22.62,-5.94 3,6.08 6.4,12.18 6.84,19.08 -6.24,3.34 -12.92,5.72 -19.32,8.7 4.04,7.64 7.7,15.48 11.84,23.1 -13.38,4.56 -26.48,9.88 -40.02,14 -2.94,-7.52 -6.02,-14.98 -9.26,-22.36 -7.36,3.16 -14.58,6.74 -22.26,9.12 -2.6,-7.82 -7.02,-14.86 -9.74,-22.62 8.84,-4.38 18.6,-6.78 27.38,-11.36 -3.24,-7.78 -5.32,-16 -8.84,-23.68 z"
     id="path24"
     inkscape:connector-curvature="0"
     style="fill:#f5e5c1" />
  <path
     d="m 806.94,324.86 c 7.84,-7.68 17.18,-13.6 25.42,-20.86 8.5,9.98 14.54,21.82 23.16,31.72 9.16,-6.2 18.18,-13.14 28.38,-17.44 4.42,12.38 11.18,23.76 16.44,35.8 -6.38,6.3 -14.38,11.08 -20.2,17.84 3.62,9.86 10.14,18.4 13.9,28.24 -7.46,4.72 -13.44,13.26 -23.04,13.12 -4.76,-7.22 -10.54,-13.72 -15.04,-21.12 -9.12,6.84 -17.62,14.5 -26.3,21.88 -10.24,-15.26 -20.1,-30.8 -30.24,-46.14 8,-5.68 15.96,-11.48 23.92,-17.26 1.64,-2.2 -0.44,-4.46 -1.6,-6.24 -5,-6.48 -9.58,-13.26 -14.8,-19.54 z"
     id="path26"
     inkscape:connector-curvature="0"
     style="fill:#f5e5c1" />
  <path
     d="m 416.62,310.6 c 3.08,1.02 1.24,6.2 2.1,8.76 1.24,2.74 -2.5,3.16 -2.6,0.44 -0.64,-2.94 -1.48,-6.6 0.5,-9.2 z"
     id="path28"
     inkscape:connector-curvature="0"
     style="fill:#f4722b" />
  <path
     d="m 365.98,343.52 c 86.86,-0.08 173.7,-0.1 260.56,0.02 -0.08,40.16 0.04,80.32 -0.06,120.46 -59.34,0.02 -118.68,-0.06 -178.02,0.06 0.08,21.46 0.06,42.92 0.02,64.38 28.6,-0.12 57.92,1.8 84.82,12.3 19.36,7.26 37.12,21.24 45.26,40.66 10.4,25.36 12.44,54.14 5.56,80.68 -8.3,32.26 -30.7,60.14 -59.62,76.42 -25.88,14.48 -55.44,22.2 -84.98,23.38 -3.08,-23.44 -7.1,-46.76 -10.56,-70.16 22.58,-1.58 46.12,-6.52 64.52,-20.4 14.26,-10.46 20.88,-31.4 12.42,-47.44 -7.22,-12.22 -21.98,-16.4 -35.14,-18.36 -34.86,-4.28 -69.86,1.2 -104.78,0.98 0.02,-87.66 0.02,-175.32 0,-262.98 z"
     id="path30"
     inkscape:connector-curvature="0"
     style="fill:#f5e5c1" />
  <path
     d="m 666.76,374.12 c 7.22,1.08 14,3.88 20.94,6.02 20.24,6.52 40.7,12.4 60.9,19.06 11.62,34.64 22.78,69.4 34.26,104.08 2.62,9.4 6.46,18.44 8.5,28.02 0.92,-0.06 2.74,-0.2 3.66,-0.28 5.64,-10.4 5.32,-22.88 8.34,-34.16 1.2,-19.78 0.02,-39.64 0.66,-59.44 1.02,2.3 2.18,4.56 2.76,7.06 4.94,24.56 10.54,49.02 15.88,73.5 0.58,2.6 -0.14,4.78 -2.12,6.54 -26.84,29.4 -53.62,58.84 -80.5,88.2 17.58,9.08 35.64,17.18 53.3,26.1 2.68,1.54 6.44,1.52 8.14,-1.44 14.42,-16.4 29.46,-32.2 43.62,-48.82 1.48,-1.74 3.52,-2.88 5.34,-4.22 -18.96,25.74 -36.24,52.88 -54.58,79.16 -14.58,-5.54 -28.32,-13.04 -42.8,-18.84 -10.14,-3.98 -19.48,-9.88 -29.94,-13.06 -2.22,7.58 -9.86,4.6 -14.98,2.6 -21.38,10.9 -41.32,24.54 -62.2,36.42 0.5,1.8 1.02,3.6 1.54,5.4 -1.12,0.48 -3.36,1.44 -4.46,1.92 2.42,10.96 5.66,21.7 8.46,32.58 6.18,5.82 14.44,0.34 21.3,4.18 37.68,14.88 75.48,29.5 113.16,44.36 14.6,-5.04 30.26,-7.42 43.72,-15.3 12.86,-6.52 25.32,-13.8 38.36,-19.92 -1.16,1.54 -2.44,2.98 -3.82,4.32 -20.24,16.68 -39.98,33.94 -60.1,50.74 -44.88,-11.26 -89.68,-22.94 -134.54,-34.26 -3.66,15.18 -9.68,29.76 -12.86,45.04 6.16,12.16 13.38,23.8 20.08,35.7 1.8,3.78 6.2,4.6 9.72,6.12 37.24,14.06 74,29.56 111.44,43.08 11.24,-2.46 22.22,-6.1 33.16,-9.62 16.72,-7.62 32.36,-17.48 49.02,-25.24 -1.22,1.56 -2.54,3.02 -3.96,4.38 -20.16,16.76 -39.92,34 -60.08,50.76 -42.46,-10.48 -84.7,-21.86 -127.2,-32.18 -0.6,19.04 -0.36,38.1 -1.84,57.12 -18.74,-7.24 -37.66,-14 -56.56,-20.72 -10.26,-4.24 -21.64,-6.32 -30.7,-13.06 10.72,4.5 22.36,5.76 33.6,8.44 12.24,2.36 24.3,5.86 36.7,7.48 -9.58,-33.34 -20.52,-66.36 -29.28,-99.84 3.12,-25.18 7.88,-50.22 9.08,-75.64 -5.94,0.32 -11.88,0.74 -17.82,0.7 -0.72,-0.96 -2.18,-2.88 -2.9,-3.84 -13.54,-5.62 -27.68,-10 -40.68,-16.8 4.22,-6.18 7.16,-13.1 10.78,-19.62 7.54,2.54 14.66,6.58 22.74,7.24 -0.9,-13.54 -6.08,-26.28 -8.72,-39.5 -1.16,-0.48 -3.5,-1.46 -4.66,-1.96 0.26,-3.14 0.54,-6.26 0.86,-9.38 7.56,-0.2 15.02,-1.4 22.52,-2.24 0.72,2.42 1.46,4.88 2.24,7.32 2.06,-0.52 4.12,-1.14 6.12,-1.88 18.36,-9.94 36.2,-20.96 54.98,-30.1 0.26,-7.58 -2.42,-14.76 -3.98,-22.06 -4.12,-18.22 -8.66,-36.36 -12.74,-54.58 0.54,0.02 1.6,0.08 2.14,0.1 -0.04,6.44 3.16,12.16 5.24,18.08 5.82,15.6 11.66,31.22 17.76,46.7 0.94,3.04 4.12,-0.4 5.52,-1.2 19.08,-16.62 38.56,-32.82 57.6,-49.5 -8.6,-43.04 -16.8,-86.16 -25.52,-129.18 -8.78,-7.16 -17.04,-14.94 -25.78,-22.12 -12.04,-7.58 -24.62,-14.26 -37,-21.28 -3.9,-2.46 -8.8,-3.6 -11.82,-7.24 z"
     id="path32"
     inkscape:connector-curvature="0"
     style="fill:#f4722b" />
  <path
     d="m 23.44,445.96 c 6.3,2.04 11.28,6.56 16.7,10.16 -2.6,5.08 -7.6,8.56 -9.86,13.78 3.7,5.1 10.3,6.92 14.8,11.22 0.52,3.8 -2.76,6.56 -4.66,9.46 -3.9,4.72 -6.8,10.14 -9.48,15.64 -6.16,-2.84 -10.54,-8.16 -15.5,-12.6 -3.46,3.72 -6.8,7.56 -9.94,11.56 -1.84,-1.76 -3.7,-3.5 -5.5,-5.3 L 0,485.7 c 3.64,0.56 3.82,-6 0,-5.04 l 0,-26.68 c 4.02,3.34 8.44,6.2 13.18,8.44 3.54,-5.42 7.24,-10.74 10.26,-16.46 z"
     id="path34"
     inkscape:connector-curvature="0"
     style="fill:#f5e5c1" />
  <path
     d="m 961.62,503.44 c 4.18,-4.94 6.94,-10.8 10.14,-16.36 5.14,4.24 10.08,8.72 14.76,13.48 3.5,-3.72 6.82,-7.62 9.8,-11.8 3.1,3.08 6.86,5.68 9.24,9.4 0.34,5.14 -3.66,8.96 -4.96,13.64 1.84,3.4 5.38,5.54 8.12,8.22 -0.98,6.94 -2.9,13.7 -4.72,20.46 -5.82,-1.18 -9.34,-8.48 -15.34,-8.06 -4.06,5.24 -7.78,10.76 -10.78,16.68 -5.22,-3.82 -10.5,-7.58 -15.96,-11.06 2.54,-5.4 7.16,-9.32 10.62,-14.06 -4.84,-4.06 -10.52,-6.94 -15.44,-10.86 -1.08,-3.92 2.58,-6.78 4.52,-9.68 z"
     id="path38"
     inkscape:connector-curvature="0"
     style="fill:#f5e5c1" />
  <path
     d="m 193.98,605.76 c 7.58,-4.56 13.46,-13.4 23.16,-12.96 4.62,7.26 10.5,13.64 14.84,21.1 9.1,-6.82 17.52,-14.52 26.22,-21.84 10.56,15.06 20.22,30.74 30.36,46.08 -8.22,5.98 -16.74,11.58 -24.58,18.02 3.18,9.86 12.24,16.74 17.08,25.9 -8.68,6.36 -17.14,13.06 -25.4,19.96 -8,-9.98 -14.98,-20.78 -22.02,-31.44 -10.2,5.22 -19.52,12.08 -29.26,18.12 -4.34,-12.8 -11.36,-24.48 -16.78,-36.84 6.38,-5.76 13.28,-10.94 19.7,-16.62 0.96,-2.48 -0.98,-4.76 -1.86,-6.9 -3.84,-7.52 -8.28,-14.74 -11.46,-22.58 z"
     id="path40"
     inkscape:connector-curvature="0"
     style="fill:#f5e5c1" />
  <path
     d="m 82.42,622.04 c 8.94,-5.7 16.1,-14.74 25.76,-18.82 6.02,5.78 15.94,10.84 16.2,20.06 -5.72,6.34 -11.82,12.36 -17.6,18.68 8.66,6.96 17.28,14 25.84,21.08 l 0.14,0.92 c -13.22,12.28 -25.92,25.1 -39.14,37.38 -8,-7.02 -15.34,-14.76 -23.5,-21.62 -6.74,6.82 -13.08,14.04 -19.62,21.02 -2.66,1.88 -4.52,-1.5 -6.46,-2.84 C 37.82,691.48 30.16,686.62 24.36,679.8 33.76,671.34 42,661.7 51.42,653.26 44.96,644.82 37,637.7 30.1,629.66 c 0.16,-0.62 0.5,-1.88 0.66,-2.5 10.36,-7.52 20.56,-15.32 31.14,-22.52 6.46,6.24 13.78,11.48 20.52,17.4 z"
     id="path42"
     inkscape:connector-curvature="0"
     style="fill:#f5e5c1" />
  <path
     d="m 931.84,718.34 c 7.48,-7.2 13.58,-15.82 21.76,-22.26 6.48,6.4 13.48,12.22 20.4,18.14 2.16,1.3 2.74,4.44 0.9,6.26 -7.98,8.54 -16.68,16.38 -24.44,25.12 8.08,7.36 14.48,16.38 22.92,23.38 -10.88,8.4 -21.98,16.62 -33.34,24.38 -6.36,-6.24 -13.7,-11.32 -20.22,-17.36 -9,5.98 -16.68,13.7 -25.78,19.54 -5.96,-6.4 -14.38,-11.04 -17.22,-19.78 5.84,-6.82 12.34,-13.02 18.4,-19.66 -8.7,-7.32 -17.96,-13.98 -26.08,-21.96 13.2,-12.4 26.2,-25.02 39.14,-37.7 7.88,7.26 15.52,14.8 23.56,21.9 z"
     id="path44"
     inkscape:connector-curvature="0"
     style="fill:#f5e5c1" />
  <path
     d="m 547.46,792.8 c 10.28,-2.24 18.22,7.28 28.26,8.12 -0.74,6.88 -6.38,11.86 -9.42,17.8 4.2,2.78 8.6,5.24 13.2,7.3 -2.36,3.8 -4.72,7.58 -7.02,11.4 -5.06,-0.18 -9.82,-1.92 -14.7,-2.96 -2.88,2.34 -3.86,6.42 -6.42,9.14 -7.18,1.22 -14.42,-0.16 -21.56,-1.02 2.3,-5.16 4.06,-10.6 7.52,-15.14 -6.08,-3.12 -12.36,-5.78 -18.68,-8.28 -0.1,-6.16 3.84,-12.72 7.16,-17.96 5.32,1.88 9.86,5.32 14.7,8.14 2.7,-5.34 5.6,-10.66 6.96,-16.54 z"
     id="path46"
     inkscape:connector-curvature="0"
     style="fill:#f5e5c1" />
  <path
     d="m 70.4,849.08 c 4.6,-0.1 9.22,-0.14 13.84,-0.16 2.06,4.5 3.68,9.2 5.06,13.98 3.66,-0.12 7.32,-0.3 10.98,-0.64 5.5,5.06 8.68,11.94 11.76,18.62 -5.78,0.18 -11.24,2.58 -17.06,2.46 1.82,7.12 3,14.38 4.52,21.58 -5.96,0.62 -11.72,2.24 -17.6,3.36 -5.82,-4.1 0.64,-13.8 -5.52,-17.34 -6.16,1.74 -12.5,2.76 -18.92,2.34 -0.94,-8.72 -2.36,-17.4 -5.38,-25.66 0.22,-0.56 0.68,-1.66 0.92,-2.22 6.14,-0.92 12.38,-0.54 18.58,-0.82 -0.2,-5.18 -0.58,-10.36 -1.18,-15.5 z"
     id="path48"
     inkscape:connector-curvature="0"
     style="fill:#f5e5c1" />
  <path
     d="m 545.42,932.68 c 2.74,-10.82 0.08,-23.14 3.68,-34.12 17,4.82 34.64,7.02 51.78,11.22 0.46,0.44 1.4,1.34 1.86,1.78 -3.2,9.48 -3.14,19.68 -5.7,29.34 9.74,2.72 20,2.68 29.88,4.82 0.28,0.54 0.88,1.64 1.16,2.18 -1.22,10.28 -2.88,20.56 -3.4,30.92 -12.86,-1.98 -25.58,-4.82 -38.5,-6.46 -2.58,10.88 -4.56,21.92 -7.24,32.8 -12.06,-5.9 -25.34,-8.66 -37.72,-13.66 -0.2,-9.38 2.36,-18.64 1.6,-28.04 -10.02,-1.46 -19.24,-6.24 -29.32,-7.38 -0.26,-9.22 -0.12,-19.78 6.08,-27.22 8.66,0.96 17.24,3.06 25.84,3.82 z"
     id="path50"
     inkscape:connector-curvature="0"
     style="fill:#f5e5c1" />
  <path
     d="m 896.96,907.46 c 10.34,-2 20.58,-4.62 30.94,-6.56 3.24,6.12 5.24,13.28 9.8,18.46 7.58,-1.68 15.06,-3.9 22.54,-6 3.18,6.06 6.52,12.28 6.96,19.28 -6.34,3.14 -12.92,5.68 -19.36,8.58 4.16,7.52 7.58,15.44 11.88,22.9 -13.2,4.94 -26.42,9.88 -39.84,14.2 -3.22,-7.42 -6.12,-14.98 -9.4,-22.36 -7.1,3.2 -14.4,5.98 -21.42,9.42 -3.8,-7.12 -7.06,-14.52 -10.3,-21.88 0.16,-0.46 0.46,-1.34 0.62,-1.78 8.76,-3.12 17.26,-7 26.16,-9.74 -2.24,-8.36 -5.08,-16.6 -8.58,-24.52 z"
     id="path52"
     inkscape:connector-curvature="0"
     style="fill:#f5e5c1" />
  <path
     d="m 178.48,923.22 c 6.62,-1.14 13.2,-3.34 20.02,-2.12 0.66,4.92 -0.86,10.7 1.58,15.12 6.72,0.62 13.56,-2.76 20.5,-1.32 0.72,9.52 3.64,18.6 5.1,27.98 -6.36,0.24 -12.72,0.38 -19.08,0.4 0.02,5.24 0.36,10.48 0.94,15.7 -4.58,0.04 -9.16,0.08 -13.74,0.16 -1.9,-4.08 -3.36,-8.32 -4.4,-12.68 -3.78,-0.2 -7.56,-0.22 -11.34,-0.06 -5.16,-5.66 -9.62,-12.18 -11.66,-19.62 5.66,0.2 10.94,-2.32 16.6,-2.1 -1.78,-7.1 -2.86,-14.34 -4.52,-21.46 z"
     id="path54"
     inkscape:connector-curvature="0"
     style="fill:#f5e5c1" />
</svg>
