<?xml version="1.0" encoding="UTF-8" ?>
<!DOCTYPE svg PUBLIC "-//W3C//DTD SVG 1.1//EN" "http://www.w3.org/Graphics/SVG/1.1/DTD/svg11.dtd">
<svg width="512pt" height="512pt" viewBox="0 0 512 512" version="1.1" xmlns="http://www.w3.org/2000/svg">
<path fill="#f4722b" opacity="1.00" d=" M 0.00 0.00 L 0.18 0.00 C 0.13 0.05 0.04 0.14 0.00 0.19 L 0.00 0.00 Z" />
<path fill="#3e3e3e" opacity="1.00" d=" M 0.18 0.00 L 262.22 0.00 C 261.48 3.67 260.65 7.32 260.06 11.01 C 253.68 9.78 247.19 9.05 240.91 7.36 C 240.32 13.00 239.13 18.60 239.38 24.29 C 244.41 24.88 249.50 25.31 254.44 26.51 C 253.46 31.74 252.31 37.00 252.29 42.34 C 261.11 43.73 269.88 45.59 278.56 47.69 C 279.88 41.97 279.18 36.02 280.57 30.31 C 284.70 31.59 289.05 31.73 293.26 32.65 C 296.29 29.02 295.67 24.11 296.70 19.77 C 291.78 17.81 286.64 16.47 281.52 15.14 C 281.53 10.43 282.33 5.77 282.53 1.07 C 280.99 0.67 279.46 0.28 277.90 0.00 L 512.00 0.00 L 512.00 512.00 L 0.00 512.00 L 0.00 249.94 C 0.90 250.84 1.83 251.71 2.75 252.59 C 4.32 250.59 5.99 248.67 7.72 246.81 C 10.20 249.03 12.39 251.69 15.47 253.11 C 16.81 250.36 18.26 247.65 20.21 245.29 C 21.16 243.84 22.80 242.46 22.54 240.56 C 20.29 238.41 16.99 237.50 15.14 234.95 C 16.27 232.34 18.77 230.60 20.07 228.06 C 17.36 226.26 14.87 224.00 11.72 222.98 C 10.21 225.84 8.36 228.50 6.59 231.21 C 4.22 230.09 2.01 228.66 0.00 226.99 L 0.00 125.63 C 18.45 129.89 36.32 136.48 54.79 140.67 C 57.99 151.61 60.18 162.84 63.00 173.88 C 63.67 176.20 64.00 178.60 63.94 181.01 C 52.31 179.21 40.52 178.52 28.91 176.67 C 30.89 177.61 32.94 178.39 35.09 178.87 C 45.56 181.32 55.98 183.96 66.38 186.69 C 66.83 198.23 66.50 209.80 67.38 221.33 C 65.85 221.41 64.32 221.49 62.79 221.58 C 57.37 236.64 50.74 251.25 45.37 266.32 C 52.13 255.57 57.56 244.02 64.16 233.17 C 71.50 233.20 78.60 235.85 85.71 237.54 C 81.96 240.80 78.09 243.93 74.58 247.45 C 70.02 252.08 64.64 255.85 60.44 260.85 C 69.32 274.27 77.70 288.01 86.57 301.44 C 82.06 290.15 76.17 279.48 71.44 268.28 C 70.57 266.63 71.38 264.84 72.84 263.87 C 79.58 258.25 85.97 252.23 92.77 246.67 C 95.65 244.40 97.97 241.17 101.76 240.37 C 102.86 237.96 103.80 235.47 104.66 232.97 C 113.28 236.29 120.19 242.78 127.97 247.62 C 126.66 247.79 125.34 247.96 124.03 248.14 C 127.55 257.88 130.92 267.68 134.36 277.45 C 135.14 279.57 135.68 282.00 137.66 283.37 C 145.24 289.45 152.78 295.59 160.39 301.64 C 162.20 302.77 162.22 305.00 162.42 306.89 C 163.49 322.26 164.87 337.60 165.97 352.97 C 154.29 354.27 142.56 355.10 130.89 356.50 C 110.61 359.11 90.30 361.40 70.02 364.06 C 63.18 376.72 56.22 389.33 49.64 402.13 C 55.97 395.25 61.76 387.88 68.15 381.05 C 72.70 377.28 77.24 373.38 82.20 370.16 C 103.09 369.73 124.04 370.20 144.95 369.94 C 149.15 368.80 152.24 365.25 155.93 363.03 C 157.43 371.68 158.64 380.38 160.00 389.06 C 146.69 388.19 133.36 387.76 120.04 386.99 C 116.34 402.34 113.20 417.89 109.22 433.13 C 109.41 434.33 110.16 432.05 110.31 431.73 C 114.48 420.45 118.70 409.19 123.08 397.99 C 133.34 398.82 143.61 399.71 153.89 400.37 C 152.68 408.72 150.94 416.99 149.48 425.31 C 148.74 429.73 150.77 433.94 151.75 438.16 C 153.47 443.93 154.35 449.89 155.60 455.77 C 157.36 461.06 161.37 465.24 163.33 470.45 C 156.89 472.23 150.02 472.78 144.02 475.89 C 154.17 474.00 165.10 473.04 174.85 477.16 C 179.07 481.41 182.51 486.38 186.75 490.61 C 193.96 486.00 201.03 481.00 208.60 477.04 C 215.46 482.28 221.20 488.87 228.25 493.88 C 221.06 485.80 214.16 477.45 206.99 469.37 C 198.94 473.40 191.29 478.35 183.56 483.02 C 181.27 477.53 179.56 471.83 177.64 466.21 C 180.16 466.32 182.67 466.65 185.12 467.24 C 198.28 460.87 210.98 453.53 224.13 447.17 C 234.82 447.20 244.27 452.53 254.08 456.01 C 246.29 450.17 237.87 445.21 230.00 439.46 C 215.55 444.66 201.22 450.20 186.85 455.62 C 180.64 457.86 174.78 461.06 168.41 462.80 C 164.15 454.26 160.89 445.12 156.81 436.43 C 155.99 434.35 154.48 432.00 155.73 429.77 C 158.22 424.18 160.64 418.55 163.02 412.92 C 164.74 409.06 162.85 404.90 162.50 400.95 C 161.40 395.66 163.57 390.54 164.60 385.44 C 165.48 382.03 165.90 378.49 167.17 375.20 C 168.90 372.95 171.34 371.40 173.44 369.53 C 176.41 367.15 178.95 364.16 182.39 362.41 C 189.33 359.09 196.65 356.55 203.41 352.84 C 194.55 354.51 185.87 357.00 177.08 358.99 C 177.12 351.64 177.85 344.31 177.88 336.97 C 177.12 331.41 174.68 326.24 173.29 320.83 C 170.47 311.02 169.23 300.80 165.75 291.19 C 168.28 288.75 172.45 287.18 172.13 283.00 C 169.71 285.72 167.98 289.47 164.20 290.53 C 154.86 278.13 144.95 266.17 135.76 253.67 C 141.96 255.52 148.41 256.21 154.73 257.54 C 160.51 258.60 166.25 259.91 172.09 260.60 C 171.86 250.40 172.09 240.19 171.96 229.99 C 166.58 234.17 162.00 239.39 156.33 243.16 C 149.04 243.53 141.67 244.03 134.39 243.65 C 130.10 240.30 126.51 236.14 122.49 232.47 C 121.01 231.00 119.23 229.76 118.17 227.93 C 119.00 225.46 121.44 223.92 123.04 221.94 C 136.24 207.14 149.30 192.21 162.45 177.37 C 164.25 175.85 163.06 173.48 162.73 171.58 C 159.50 158.86 156.95 145.97 153.59 133.30 C 152.69 146.05 155.35 159.01 152.19 171.56 C 151.39 174.53 151.87 178.19 149.53 180.50 C 134.02 194.30 118.32 207.90 102.90 221.80 C 102.33 224.25 101.50 227.37 98.50 227.72 C 93.67 227.83 89.04 225.99 84.29 225.34 C 82.57 225.41 82.23 223.62 81.53 222.45 C 80.98 222.14 79.87 221.52 79.31 221.22 C 78.62 216.53 79.37 211.79 78.74 207.10 C 77.91 200.43 78.15 193.69 77.54 187.00 C 77.20 184.89 79.44 183.92 80.46 182.43 C 81.03 180.49 79.21 177.80 81.41 176.54 C 91.26 168.97 100.90 161.12 110.56 153.30 C 102.83 139.57 95.56 125.59 87.88 111.84 C 91.57 123.75 96.96 135.08 100.70 146.96 C 99.79 148.33 98.32 149.19 97.04 150.18 C 92.40 153.44 88.05 157.09 83.40 160.33 C 80.56 162.29 78.21 165.11 74.76 166.02 C 67.89 146.77 60.83 127.57 53.33 108.57 C 39.50 104.94 25.75 100.90 11.82 97.70 C 19.78 102.39 28.32 106.05 36.33 110.66 C 41.28 114.06 45.74 118.13 50.61 121.63 C 50.62 122.76 50.62 123.90 50.62 125.03 C 33.85 121.71 16.86 119.52 0.00 116.64 L 0.00 0.19 C 0.04 0.14 0.13 0.05 0.18 0.00 Z" />
<path fill="#f5e5c1" opacity="1.00" d=" M 262.22 0.00 L 277.90 0.00 C 279.46 0.28 280.99 0.67 282.53 1.07 C 282.33 5.77 281.53 10.43 281.52 15.14 C 286.64 16.47 291.78 17.81 296.70 19.77 C 295.67 24.11 296.29 29.02 293.26 32.65 C 289.05 31.73 284.70 31.59 280.57 30.31 C 279.18 36.02 279.88 41.97 278.56 47.69 C 269.88 45.59 261.11 43.73 252.29 42.34 C 252.31 37.00 253.46 31.74 254.44 26.51 C 249.50 25.31 244.41 24.88 239.38 24.29 C 239.13 18.60 240.32 13.00 240.91 7.36 C 247.19 9.05 253.68 9.78 260.06 11.01 C 260.65 7.32 261.48 3.67 262.22 0.00 Z" />
<path fill="#f5e5c1" opacity="1.00" d=" M 40.91 19.00 C 41.16 18.82 41.67 18.45 41.93 18.26 C 52.25 21.14 62.41 24.63 72.72 27.58 C 71.70 33.96 69.43 40.07 68.29 46.42 C 74.36 47.79 80.38 49.37 86.43 50.82 C 84.71 57.29 83.71 63.93 82.09 70.43 C 74.65 68.11 67.12 65.97 59.52 64.22 C 57.63 70.63 55.27 76.90 53.57 83.37 C 46.34 79.73 38.93 76.41 31.50 73.19 C 32.17 67.72 33.23 62.28 34.40 56.89 C 29.18 54.56 23.82 52.52 18.54 50.30 C 17.53 50.00 17.09 49.00 16.56 48.20 C 18.44 43.58 18.63 38.48 20.34 33.81 C 25.99 35.31 31.71 36.54 37.35 38.11 C 39.21 31.91 39.75 25.36 40.91 19.00 Z" />
<path fill="#f4722b" opacity="1.00" d=" M 367.64 45.71 C 375.41 36.72 383.85 28.21 391.31 19.03 C 390.76 21.07 389.48 22.73 388.17 24.34 C 380.39 35.52 372.73 46.80 365.12 58.10 C 364.50 58.86 363.78 60.28 362.64 59.38 C 355.05 55.98 347.55 52.38 339.88 49.17 C 335.57 47.41 331.60 44.83 327.09 43.60 C 325.87 52.14 323.01 60.37 321.98 68.95 C 325.70 68.26 329.30 67.08 333.01 66.38 C 337.21 67.31 341.05 69.38 345.11 70.80 C 361.10 76.84 376.88 83.55 392.97 89.29 C 398.60 88.12 404.04 86.15 409.54 84.48 C 417.84 80.61 425.71 75.85 433.96 71.87 C 432.48 74.03 430.34 75.57 428.35 77.21 C 419.45 84.45 411.01 92.25 402.00 99.35 C 381.97 94.53 362.03 89.16 342.02 84.18 C 330.74 81.36 319.74 77.47 308.38 75.00 C 304.16 91.08 298.44 106.77 294.34 122.87 C 299.17 131.88 304.43 140.69 309.51 149.59 C 311.59 152.84 310.43 156.87 310.69 160.50 C 305.72 160.91 300.61 161.13 295.68 160.45 C 292.51 151.33 290.16 141.91 287.18 132.70 C 285.65 128.99 286.90 125.05 287.41 121.28 C 288.57 112.52 290.41 103.83 290.65 94.97 C 290.82 92.06 290.68 89.10 291.38 86.25 C 293.91 79.06 297.85 72.45 300.37 65.27 C 290.93 64.26 281.60 62.07 272.07 61.95 C 273.17 61.53 274.21 60.80 275.43 60.82 C 283.20 60.65 290.96 60.06 298.72 59.73 C 304.32 58.11 309.72 55.85 315.31 54.17 C 320.87 46.98 325.46 39.08 331.01 31.87 C 341.65 37.41 352.62 42.29 363.31 47.73 C 365.08 48.85 366.59 46.88 367.64 45.71 Z" />
<path fill="#f5e5c1" opacity="1.00" d=" M 102.25 32.23 C 105.79 31.55 109.37 32.37 112.92 32.52 C 112.18 35.30 110.99 37.93 109.35 40.29 C 112.58 42.01 116.06 43.18 119.29 44.89 C 117.93 47.61 116.62 50.38 115.95 53.36 C 112.84 53.00 110.43 50.80 107.78 49.37 C 106.38 52.02 104.93 54.69 104.25 57.63 C 101.69 58.39 99.27 57.21 97.09 55.98 C 94.77 54.56 91.84 54.63 89.65 52.97 C 91.37 50.19 93.07 47.38 94.87 44.64 C 92.74 43.26 90.52 42.02 88.21 40.98 C 89.41 39.10 90.60 37.21 91.74 35.29 C 94.41 35.46 96.96 36.27 99.56 36.81 C 100.39 35.25 101.16 33.64 102.25 32.23 Z" />
<path fill="#f5e5c1" opacity="1.00" d=" M 451.24 44.57 C 454.59 44.21 457.86 42.87 461.28 43.56 C 461.34 45.96 461.41 48.36 461.46 50.77 C 465.01 51.45 468.84 49.55 472.15 50.76 C 473.01 55.31 473.76 59.88 475.08 64.33 C 471.82 64.36 468.60 65.00 465.35 64.86 C 465.25 67.40 465.49 69.94 465.81 72.46 C 463.66 72.49 461.51 72.69 459.37 72.48 C 457.46 70.96 457.38 68.26 456.60 66.12 C 454.74 66.12 452.89 66.14 451.05 66.21 C 448.36 63.47 446.47 60.08 445.03 56.55 C 447.89 56.43 450.58 55.28 453.46 55.34 C 452.66 51.76 452.05 48.14 451.24 44.57 Z" />
<path fill="#f5e5c1" opacity="1.00" d=" M 165.99 49.60 C 173.49 53.03 180.94 56.59 188.52 59.83 C 187.84 65.29 186.75 70.71 185.59 76.09 C 191.40 78.96 197.79 80.63 203.40 83.90 C 201.90 88.94 201.32 94.22 199.68 99.21 C 194.04 97.66 188.27 96.58 182.70 94.79 C 180.89 101.22 180.04 107.98 179.16 114.62 C 175.87 114.68 172.88 113.11 169.77 112.28 C 162.27 110.02 154.81 107.58 147.28 105.41 C 148.34 99.05 150.52 92.94 151.75 86.61 C 146.68 85.41 141.63 84.14 136.57 82.93 C 135.41 82.74 134.43 82.07 133.51 81.38 C 135.06 77.38 135.53 73.06 136.54 68.90 C 137.14 66.75 136.94 64.15 138.67 62.49 C 145.60 65.43 153.14 66.75 160.35 68.91 C 162.20 62.47 165.13 56.28 165.99 49.60 Z" />
<path fill="#f4722b" opacity="1.00" d=" M 11.82 97.70 C 25.75 100.90 39.50 104.94 53.33 108.57 C 60.83 127.57 67.89 146.77 74.76 166.02 C 78.21 165.11 80.56 162.29 83.40 160.33 C 88.05 157.09 92.40 153.44 97.04 150.18 C 98.32 149.19 99.79 148.33 100.70 146.96 C 96.96 135.08 91.57 123.75 87.88 111.84 C 95.56 125.59 102.83 139.57 110.56 153.30 C 100.90 161.12 91.26 168.97 81.41 176.54 C 79.21 177.80 81.03 180.49 80.46 182.43 C 79.44 183.92 77.20 184.89 77.54 187.00 C 78.15 193.69 77.91 200.43 78.74 207.10 C 79.37 211.79 78.62 216.53 79.31 221.22 C 79.87 221.52 80.98 222.14 81.53 222.45 C 82.23 223.62 82.57 225.41 84.29 225.34 C 89.04 225.99 93.67 227.83 98.50 227.72 C 101.50 227.37 102.33 224.25 102.90 221.80 C 118.32 207.90 134.02 194.30 149.53 180.50 C 151.87 178.19 151.39 174.53 152.19 171.56 C 155.35 159.01 152.69 146.05 153.59 133.30 C 156.95 145.97 159.50 158.86 162.73 171.58 C 163.06 173.48 164.25 175.85 162.45 177.37 C 149.30 192.21 136.24 207.14 123.04 221.94 C 121.44 223.92 119.00 225.46 118.17 227.93 C 119.23 229.76 121.01 231.00 122.49 232.47 C 126.51 236.14 130.10 240.30 134.39 243.65 C 141.67 244.03 149.04 243.53 156.33 243.16 C 162.00 239.39 166.58 234.17 171.96 229.99 C 172.09 240.19 171.86 250.40 172.09 260.60 C 166.25 259.91 160.51 258.60 154.73 257.54 C 148.41 256.21 141.96 255.52 135.76 253.67 C 144.95 266.17 154.86 278.13 164.20 290.53 C 167.98 289.47 169.71 285.72 172.13 283.00 C 172.45 287.18 168.28 288.75 165.75 291.19 C 169.23 300.80 170.47 311.02 173.29 320.83 C 174.68 326.24 177.12 331.41 177.88 336.97 C 177.85 344.31 177.12 351.64 177.08 358.99 C 185.87 357.00 194.55 354.51 203.41 352.84 C 196.65 356.55 189.33 359.09 182.39 362.41 C 178.95 364.16 176.41 367.15 173.44 369.53 C 171.34 371.40 168.90 372.95 167.17 375.20 C 165.90 378.49 165.48 382.03 164.60 385.44 C 163.57 390.54 161.40 395.66 162.50 400.95 C 162.85 404.90 164.74 409.06 163.02 412.92 C 160.64 418.55 158.22 424.18 155.73 429.77 C 154.48 432.00 155.99 434.35 156.81 436.43 C 160.89 445.12 164.15 454.26 168.41 462.80 C 174.78 461.06 180.64 457.86 186.85 455.62 C 201.22 450.20 215.55 444.66 230.00 439.46 C 237.87 445.21 246.29 450.17 254.08 456.01 C 244.27 452.53 234.82 447.20 224.13 447.17 C 210.98 453.53 198.28 460.87 185.12 467.24 C 182.67 466.65 180.16 466.32 177.64 466.21 C 179.56 471.83 181.27 477.53 183.56 483.02 C 191.29 478.35 198.94 473.40 206.99 469.37 C 214.16 477.45 221.06 485.80 228.25 493.88 C 221.20 488.87 215.46 482.28 208.60 477.04 C 201.03 481.00 193.96 486.00 186.75 490.61 C 182.51 486.38 179.07 481.41 174.85 477.16 C 165.10 473.04 154.17 474.00 144.02 475.89 C 150.02 472.78 156.89 472.23 163.33 470.45 C 161.37 465.24 157.36 461.06 155.60 455.77 C 154.35 449.89 153.47 443.93 151.75 438.16 C 150.77 433.94 148.74 429.73 149.48 425.31 C 150.94 416.99 152.68 408.72 153.89 400.37 C 143.61 399.71 133.34 398.82 123.08 397.99 C 118.70 409.19 114.48 420.45 110.31 431.73 C 110.16 432.05 109.41 434.33 109.22 433.13 C 113.20 417.89 116.34 402.34 120.04 386.99 C 133.36 387.76 146.69 388.19 160.00 389.06 C 158.64 380.38 157.43 371.68 155.93 363.03 C 152.24 365.25 149.15 368.80 144.95 369.94 C 124.04 370.20 103.09 369.73 82.20 370.16 C 77.24 373.38 72.70 377.28 68.15 381.05 C 61.76 387.88 55.97 395.25 49.64 402.13 C 56.22 389.33 63.18 376.72 70.02 364.06 C 90.30 361.40 110.61 359.11 130.89 356.50 C 142.56 355.10 154.29 354.27 165.97 352.97 C 164.87 337.60 163.49 322.26 162.42 306.89 C 162.22 305.00 162.20 302.77 160.39 301.64 C 152.78 295.59 145.24 289.45 137.66 283.37 C 135.68 282.00 135.14 279.57 134.36 277.45 C 130.92 267.68 127.55 257.88 124.03 248.14 C 125.34 247.96 126.66 247.79 127.97 247.62 C 120.19 242.78 113.28 236.29 104.66 232.97 C 103.80 235.47 102.86 237.96 101.76 240.37 C 97.97 241.17 95.65 244.40 92.77 246.67 C 85.97 252.23 79.58 258.25 72.84 263.87 C 71.38 264.84 70.57 266.63 71.44 268.28 C 76.17 279.48 82.06 290.15 86.57 301.44 C 77.70 288.01 69.32 274.27 60.44 260.85 C 64.64 255.85 70.02 252.08 74.58 247.45 C 78.09 243.93 81.96 240.80 85.71 237.54 C 78.60 235.85 71.50 233.20 64.16 233.17 C 57.56 244.02 52.13 255.57 45.37 266.32 C 50.74 251.25 57.37 236.64 62.79 221.58 C 64.32 221.49 65.85 221.41 67.38 221.33 C 66.50 209.80 66.83 198.23 66.38 186.69 C 55.98 183.96 45.56 181.32 35.09 178.87 C 32.94 178.39 30.89 177.61 28.91 176.67 C 40.52 178.52 52.31 179.21 63.94 181.01 C 64.00 178.60 63.67 176.20 63.00 173.88 C 60.18 162.84 57.99 151.61 54.79 140.67 C 36.32 136.48 18.45 129.89 0.00 125.63 L 0.00 116.64 C 16.86 119.52 33.85 121.71 50.62 125.03 C 50.62 123.90 50.62 122.76 50.61 121.63 C 45.74 118.13 41.28 114.06 36.33 110.66 C 28.32 106.05 19.78 102.39 11.82 97.70 Z" />
<path fill="#f5e5c1" opacity="1.00" d=" M 471.21 111.50 C 473.52 111.47 475.83 111.47 478.15 111.48 C 479.12 113.74 479.92 116.08 480.65 118.44 C 482.55 118.39 484.46 118.31 486.37 118.19 C 488.86 120.84 490.43 124.14 492.07 127.34 C 489.51 127.77 487.00 128.73 484.37 128.43 C 483.73 132.16 485.11 135.80 485.77 139.44 C 482.73 139.86 479.69 140.39 476.76 141.29 C 474.65 138.60 476.67 134.73 474.41 132.17 C 472.01 133.46 469.15 133.07 466.76 134.28 C 466.24 134.02 465.21 133.50 464.70 133.25 C 464.10 129.28 463.50 125.30 462.33 121.46 C 462.42 120.83 462.58 119.57 462.67 118.95 C 465.73 118.93 468.80 118.87 471.87 118.83 C 471.66 116.39 471.44 113.94 471.21 111.50 Z" />
<path fill="#f5e5c1" opacity="1.00" d=" M 344.50 116.70 C 349.70 115.78 354.80 114.32 360.03 113.50 C 361.56 116.56 362.61 120.16 364.88 122.68 C 368.69 121.83 372.42 120.69 376.19 119.71 C 377.69 122.75 379.39 125.80 379.61 129.25 C 376.49 130.92 373.15 132.11 369.95 133.60 C 371.97 137.42 373.80 141.34 375.87 145.15 C 369.18 147.43 362.63 150.09 355.86 152.15 C 354.39 148.39 352.85 144.66 351.23 140.97 C 347.55 142.55 343.94 144.34 340.10 145.53 C 338.80 141.62 336.59 138.10 335.23 134.22 C 339.65 132.03 344.53 130.83 348.92 128.54 C 347.30 124.65 346.26 120.54 344.50 116.70 Z" />
<path fill="#f5e5c1" opacity="1.00" d=" M 403.47 162.43 C 407.39 158.59 412.06 155.63 416.18 152.00 C 420.43 156.99 423.45 162.91 427.76 167.86 C 432.34 164.76 436.85 161.29 441.95 159.14 C 444.16 165.33 447.54 171.02 450.17 177.04 C 446.98 180.19 442.98 182.58 440.07 185.96 C 441.88 190.89 445.14 195.16 447.02 200.08 C 443.29 202.44 440.30 206.71 435.50 206.64 C 433.12 203.03 430.23 199.78 427.98 196.08 C 423.42 199.50 419.17 203.33 414.83 207.02 C 409.71 199.39 404.78 191.62 399.71 183.95 C 403.71 181.11 407.69 178.21 411.67 175.32 C 412.49 174.22 411.45 173.09 410.87 172.20 C 408.37 168.96 406.08 165.57 403.47 162.43 Z" />
<path fill="#f4722b" opacity="1.00" d=" M 208.31 155.30 C 209.85 155.81 208.93 158.40 209.36 159.68 C 209.98 161.05 208.11 161.26 208.06 159.90 C 207.74 158.43 207.32 156.60 208.31 155.30 Z" />
<path fill="#f5e5c1" opacity="1.00" d=" M 182.99 171.76 C 226.42 171.72 269.84 171.71 313.27 171.77 C 313.23 191.85 313.29 211.93 313.24 232.00 C 283.57 232.01 253.90 231.97 224.23 232.03 C 224.27 242.76 224.26 253.49 224.24 264.22 C 238.54 264.16 253.20 265.12 266.65 270.37 C 276.33 274.00 285.21 280.99 289.28 290.70 C 294.48 303.38 295.50 317.77 292.06 331.04 C 287.91 347.17 276.71 361.11 262.25 369.25 C 249.31 376.49 234.53 380.35 219.76 380.94 C 218.22 369.22 216.21 357.56 214.48 345.86 C 225.77 345.07 237.54 342.60 246.74 335.66 C 253.87 330.43 257.18 319.96 252.95 311.94 C 249.34 305.83 241.96 303.74 235.38 302.76 C 217.95 300.62 200.45 303.36 182.99 303.25 C 183.00 259.42 183.00 215.59 182.99 171.76 Z" />
<path fill="#f4722b" opacity="1.00" d=" M 333.38 187.06 C 336.99 187.60 340.38 189.00 343.85 190.07 C 353.97 193.33 364.20 196.27 374.30 199.60 C 380.11 216.92 385.69 234.30 391.43 251.64 C 392.74 256.34 394.66 260.86 395.68 265.65 C 396.14 265.62 397.05 265.55 397.51 265.51 C 400.33 260.31 400.17 254.07 401.68 248.43 C 402.28 238.54 401.69 228.61 402.01 218.71 C 402.52 219.86 403.10 220.99 403.39 222.24 C 405.86 234.52 408.66 246.75 411.33 258.99 C 411.62 260.29 411.26 261.38 410.27 262.26 C 396.85 276.96 383.46 291.68 370.02 306.36 C 378.81 310.90 387.84 314.95 396.67 319.41 C 398.01 320.18 399.89 320.17 400.74 318.69 C 407.95 310.49 415.47 302.59 422.55 294.28 C 423.29 293.41 424.31 292.84 425.22 292.17 C 415.74 305.04 407.10 318.61 397.93 331.75 C 390.64 328.98 383.77 325.23 376.53 322.33 C 371.46 320.34 366.79 317.39 361.56 315.80 C 360.45 319.59 356.63 318.10 354.07 317.10 C 343.38 322.55 333.41 329.37 322.97 335.31 C 323.22 336.21 323.48 337.11 323.74 338.01 C 323.18 338.25 322.06 338.73 321.51 338.97 C 322.72 344.45 324.34 349.82 325.74 355.26 C 328.83 358.17 332.96 355.43 336.39 357.35 C 355.23 364.79 374.13 372.10 392.97 379.53 C 400.27 377.01 408.10 375.82 414.83 371.88 C 421.26 368.62 427.49 364.98 434.01 361.92 C 433.43 362.69 432.79 363.41 432.10 364.08 C 421.98 372.42 412.11 381.05 402.05 389.45 C 379.61 383.82 357.21 377.98 334.78 372.32 C 332.95 379.91 329.94 387.20 328.35 394.84 C 331.43 400.92 335.04 406.74 338.39 412.69 C 339.29 414.58 341.49 414.99 343.25 415.75 C 361.87 422.78 380.25 430.53 398.97 437.29 C 404.59 436.06 410.08 434.24 415.55 432.48 C 423.91 428.67 431.73 423.74 440.06 419.86 C 439.45 420.64 438.79 421.37 438.08 422.05 C 428.00 430.43 418.12 439.05 408.04 447.43 C 386.81 442.19 365.69 436.50 344.44 431.34 C 344.14 440.86 344.26 450.39 343.52 459.90 C 334.15 456.28 324.69 452.90 315.24 449.54 C 310.11 447.42 304.42 446.38 299.89 443.01 C 305.25 445.26 311.07 445.89 316.69 447.23 C 322.81 448.41 328.84 450.16 335.04 450.97 C 330.25 434.30 324.78 417.79 320.40 401.05 C 321.96 388.46 324.34 375.94 324.94 363.23 C 321.97 363.39 319.00 363.60 316.03 363.58 C 315.67 363.10 314.94 362.14 314.58 361.66 C 307.81 358.85 300.74 356.66 294.24 353.26 C 296.35 350.17 297.82 346.71 299.63 343.45 C 303.40 344.72 306.96 346.74 311.00 347.07 C 310.55 340.30 307.96 333.93 306.64 327.32 C 306.06 327.08 304.89 326.59 304.31 326.34 C 304.44 324.77 304.58 323.21 304.74 321.65 C 308.52 321.55 312.25 320.95 316.00 320.53 C 316.36 321.74 316.73 322.97 317.12 324.19 C 318.15 323.93 319.18 323.62 320.18 323.25 C 329.36 318.28 338.28 312.77 347.67 308.20 C 347.80 304.41 346.46 300.82 345.68 297.17 C 343.62 288.06 341.35 278.99 339.31 269.88 C 339.58 269.89 340.11 269.92 340.38 269.93 C 340.36 273.15 341.96 276.01 343.00 278.97 C 345.91 286.77 348.83 294.58 351.88 302.32 C 352.35 303.84 353.94 302.12 354.64 301.72 C 364.18 293.41 373.92 285.31 383.44 276.97 C 379.14 255.45 375.04 233.89 370.68 212.38 C 366.29 208.80 362.16 204.91 357.79 201.32 C 351.77 197.53 345.48 194.19 339.29 190.68 C 337.34 189.45 334.89 188.88 333.38 187.06 Z" />
<path fill="#f5e5c1" opacity="1.00" d=" M 11.72 222.98 C 14.87 224.00 17.36 226.26 20.07 228.06 C 18.77 230.60 16.27 232.34 15.14 234.95 C 16.99 237.50 20.29 238.41 22.54 240.56 C 22.80 242.46 21.16 243.84 20.21 245.29 C 18.26 247.65 16.81 250.36 15.47 253.11 C 12.39 251.69 10.20 249.03 7.72 246.81 C 5.99 248.67 4.32 250.59 2.75 252.59 C 1.83 251.71 0.90 250.84 0.00 249.94 L 0.00 242.85 C 1.82 243.13 1.91 239.85 0.00 240.33 L 0.00 226.99 C 2.01 228.66 4.22 230.09 6.59 231.21 C 8.36 228.50 10.21 225.84 11.72 222.98 Z" />
<path fill="#f4722b" opacity="1.00" d=" M 0.00 240.33 C 1.91 239.85 1.82 243.13 0.00 242.85 L 0.00 240.33 Z" />
<path fill="#f5e5c1" opacity="1.00" d=" M 480.81 251.72 C 482.90 249.25 484.28 246.32 485.88 243.54 C 488.45 245.66 490.92 247.90 493.26 250.28 C 495.01 248.42 496.67 246.47 498.16 244.38 C 499.71 245.92 501.59 247.22 502.78 249.08 C 502.95 251.65 500.95 253.56 500.30 255.90 C 501.22 257.60 502.99 258.67 504.36 260.01 C 503.87 263.48 502.91 266.86 502.00 270.24 C 499.09 269.65 497.33 266.00 494.33 266.21 C 492.30 268.83 490.44 271.59 488.94 274.55 C 486.33 272.64 483.69 270.76 480.96 269.02 C 482.23 266.32 484.54 264.36 486.27 261.99 C 483.85 259.96 481.01 258.52 478.55 256.56 C 478.01 254.60 479.84 253.17 480.81 251.72 Z" />
<path fill="#f5e5c1" opacity="1.00" d=" M 96.99 302.88 C 100.78 300.60 103.72 296.18 108.57 296.40 C 110.88 300.03 113.82 303.22 115.99 306.95 C 120.54 303.54 124.75 299.69 129.10 296.03 C 134.38 303.56 139.21 311.40 144.28 319.07 C 140.17 322.06 135.91 324.86 131.99 328.08 C 133.58 333.01 138.11 336.45 140.53 341.03 C 136.19 344.21 131.96 347.56 127.83 351.01 C 123.83 346.02 120.34 340.62 116.82 335.29 C 111.72 337.90 107.06 341.33 102.19 344.35 C 100.02 337.95 96.51 332.11 93.80 325.93 C 96.99 323.05 100.44 320.46 103.65 317.62 C 104.13 316.38 103.16 315.24 102.72 314.17 C 100.80 310.41 98.58 306.80 96.99 302.88 Z" />
<path fill="#f5e5c1" opacity="1.00" d=" M 41.21 311.02 C 45.68 308.17 49.26 303.65 54.09 301.61 C 57.10 304.50 62.06 307.03 62.19 311.64 C 59.33 314.81 56.28 317.82 53.39 320.98 C 57.72 324.46 62.03 327.98 66.31 331.52 L 66.38 331.98 C 59.77 338.12 53.42 344.53 46.81 350.67 C 42.81 347.16 39.14 343.29 35.06 339.86 C 31.69 343.27 28.52 346.88 25.25 350.37 C 23.92 351.31 22.99 349.62 22.02 348.95 C 18.91 345.74 15.08 343.31 12.18 339.90 C 16.88 335.67 21.00 330.85 25.71 326.63 C 22.48 322.41 18.50 318.85 15.05 314.83 C 15.13 314.52 15.30 313.89 15.38 313.58 C 20.56 309.82 25.66 305.92 30.95 302.32 C 34.18 305.44 37.84 308.06 41.21 311.02 Z" />
<path fill="#f5e5c1" opacity="1.00" d=" M 465.92 359.17 C 469.66 355.57 472.71 351.26 476.80 348.04 C 480.04 351.24 483.54 354.15 487.00 357.11 C 488.08 357.76 488.37 359.33 487.45 360.24 C 483.46 364.51 479.11 368.43 475.23 372.80 C 479.27 376.48 482.47 380.99 486.69 384.49 C 481.25 388.69 475.70 392.80 470.02 396.68 C 466.84 393.56 463.17 391.02 459.91 388.00 C 455.41 390.99 451.57 394.85 447.02 397.77 C 444.04 394.57 439.83 392.25 438.41 387.88 C 441.33 384.47 444.58 381.37 447.61 378.05 C 443.26 374.39 438.63 371.06 434.57 367.07 C 441.17 360.87 447.67 354.56 454.14 348.22 C 458.08 351.85 461.90 355.62 465.92 359.17 Z" />
<path fill="#f5e5c1" opacity="1.00" d=" M 273.73 396.40 C 278.87 395.28 282.84 400.04 287.86 400.46 C 287.49 403.90 284.67 406.39 283.15 409.36 C 285.25 410.75 287.45 411.98 289.75 413.01 C 288.57 414.91 287.39 416.80 286.24 418.71 C 283.71 418.62 281.33 417.75 278.89 417.23 C 277.45 418.40 276.96 420.44 275.68 421.80 C 272.09 422.41 268.47 421.72 264.90 421.29 C 266.05 418.71 266.93 415.99 268.66 413.72 C 265.62 412.16 262.48 410.83 259.32 409.58 C 259.27 406.50 261.24 403.22 262.90 400.60 C 265.56 401.54 267.83 403.26 270.25 404.67 C 271.60 402.00 273.05 399.34 273.73 396.40 Z" />
<path fill="#f5e5c1" opacity="1.00" d=" M 35.20 424.54 C 37.50 424.49 39.81 424.47 42.12 424.46 C 43.15 426.71 43.96 429.06 44.65 431.45 C 46.48 431.39 48.31 431.30 50.14 431.13 C 52.89 433.66 54.48 437.10 56.02 440.44 C 53.13 440.53 50.40 441.73 47.49 441.67 C 48.40 445.23 48.99 448.86 49.75 452.46 C 46.77 452.77 43.89 453.58 40.95 454.14 C 38.04 452.09 41.27 447.24 38.19 445.47 C 35.11 446.34 31.94 446.85 28.73 446.64 C 28.26 442.28 27.55 437.94 26.04 433.81 C 26.15 433.53 26.38 432.98 26.50 432.70 C 29.57 432.24 32.69 432.43 35.79 432.29 C 35.69 429.70 35.50 427.11 35.20 424.54 Z" />
<path fill="#f5e5c1" opacity="1.00" d=" M 272.71 466.34 C 274.08 460.93 272.75 454.77 274.55 449.28 C 283.05 451.69 291.87 452.79 300.44 454.89 C 300.67 455.11 301.14 455.56 301.37 455.78 C 299.77 460.52 299.80 465.62 298.52 470.45 C 303.39 471.81 308.52 471.79 313.46 472.86 C 313.60 473.13 313.90 473.68 314.04 473.95 C 313.43 479.09 312.60 484.23 312.34 489.41 C 305.91 488.42 299.55 487.00 293.09 486.18 C 291.80 491.62 290.81 497.14 289.47 502.58 C 283.44 499.63 276.80 498.25 270.61 495.75 C 270.51 491.06 271.79 486.43 271.41 481.73 C 266.40 481.00 261.79 478.61 256.75 478.04 C 256.62 473.43 256.69 468.15 259.79 464.43 C 264.12 464.91 268.41 465.96 272.71 466.34 Z" />
<path fill="#f5e5c1" opacity="1.00" d=" M 448.48 453.73 C 453.65 452.73 458.77 451.42 463.95 450.45 C 465.57 453.51 466.57 457.09 468.85 459.68 C 472.64 458.84 476.38 457.73 480.12 456.68 C 481.71 459.71 483.38 462.82 483.60 466.32 C 480.43 467.89 477.14 469.16 473.92 470.61 C 476.00 474.37 477.71 478.33 479.86 482.06 C 473.26 484.53 466.65 487.00 459.94 489.16 C 458.33 485.45 456.88 481.67 455.24 477.98 C 451.69 479.58 448.04 480.97 444.53 482.69 C 442.63 479.13 441.00 475.43 439.38 471.75 C 439.46 471.52 439.61 471.08 439.69 470.86 C 444.07 469.30 448.32 467.36 452.77 465.99 C 451.65 461.81 450.23 457.69 448.48 453.73 Z" />
<path fill="#f5e5c1" opacity="1.00" d=" M 89.24 461.61 C 92.55 461.04 95.84 459.94 99.25 460.55 C 99.58 463.01 98.82 465.90 100.04 468.11 C 103.40 468.42 106.82 466.73 110.29 467.45 C 110.65 472.21 112.11 476.75 112.84 481.44 C 109.66 481.56 106.48 481.63 103.30 481.64 C 103.31 484.26 103.48 486.88 103.77 489.49 C 101.48 489.51 99.19 489.53 96.90 489.57 C 95.95 487.53 95.22 485.41 94.70 483.23 C 92.81 483.13 90.92 483.12 89.03 483.20 C 86.45 480.37 84.22 477.11 83.20 473.39 C 86.03 473.49 88.67 472.23 91.50 472.34 C 90.61 468.79 90.07 465.17 89.24 461.61 Z" />
</svg>
