<?xml version="1.0" encoding="UTF-8" ?>
<!DOCTYPE svg PUBLIC "-//W3C//DTD SVG 1.1//EN" "http://www.w3.org/Graphics/SVG/1.1/DTD/svg11.dtd">
<svg width="512pt" height="512pt" viewBox="0 0 512 512" version="1.1" xmlns="http://www.w3.org/2000/svg">
<path fill="#3e3e3e" opacity="1.00" d=" M 0.00 0.00 L 510.25 0.00 C 465.86 44.48 421.67 89.17 377.39 133.76 C 375.57 133.07 373.77 132.35 371.97 131.64 C 375.19 129.36 378.44 127.14 381.69 124.90 C 375.22 123.19 368.64 121.90 362.15 120.29 C 380.09 106.66 397.96 92.91 416.15 79.59 C 392.56 82.57 368.90 84.96 345.30 87.87 C 361.65 65.84 378.19 43.94 394.21 21.68 C 371.03 32.82 348.08 44.44 324.93 55.62 C 324.31 42.06 323.28 28.51 322.23 14.97 C 318.75 21.44 315.66 28.11 312.16 34.57 C 310.13 28.50 308.05 22.45 305.97 16.41 C 295.92 46.52 286.28 76.78 276.14 106.86 C 283.71 105.37 291.18 103.44 298.79 102.12 C 294.39 109.04 290.41 116.22 286.29 123.31 C 297.66 122.14 309.05 121.06 320.44 120.20 C 311.13 126.60 301.34 132.29 292.10 138.80 C 299.43 141.05 306.66 143.63 313.96 145.95 C 319.79 147.86 326.01 146.95 332.03 147.27 C 342.38 147.70 352.76 147.25 363.09 148.05 C 263.39 248.70 163.50 349.15 63.73 449.73 C 43.07 470.47 22.54 491.34 1.81 512.00 L 0.00 512.00 L 0.00 0.00 Z" />
<path fill="#f5e5c1" opacity="1.00" d=" M 510.25 0.00 L 512.00 0.00 L 512.00 512.00 L 1.81 512.00 C 22.54 491.34 43.07 470.47 63.73 449.73 C 163.50 349.15 263.39 248.70 363.09 148.05 C 369.40 147.31 375.73 148.22 382.05 148.23 C 393.12 148.29 404.19 148.72 415.26 148.51 C 402.66 143.53 390.00 138.72 377.39 133.76 C 421.67 89.17 465.86 44.48 510.25 0.00 Z" />
<path fill="#f5722c" opacity="1.00" d=" M 312.16 34.57 C 315.66 28.11 318.75 21.44 322.23 14.97 C 323.28 28.51 324.31 42.06 324.93 55.62 C 348.08 44.44 371.03 32.82 394.21 21.68 C 378.19 43.94 361.65 65.84 345.30 87.87 C 368.90 84.96 392.56 82.57 416.15 79.59 C 397.96 92.91 380.09 106.66 362.15 120.29 C 368.64 121.90 375.22 123.19 381.69 124.90 C 378.44 127.14 375.19 129.36 371.97 131.64 C 373.77 132.35 375.57 133.07 377.39 133.76 C 390.00 138.72 402.66 143.53 415.26 148.51 C 404.19 148.72 393.12 148.29 382.05 148.23 C 375.73 148.22 369.40 147.31 363.09 148.05 C 352.76 147.25 342.38 147.70 332.03 147.27 C 326.01 146.95 319.79 147.86 313.96 145.95 C 306.66 143.63 299.43 141.05 292.10 138.80 C 301.34 132.29 311.13 126.60 320.44 120.20 C 309.05 121.06 297.66 122.14 286.29 123.31 C 290.41 116.22 294.39 109.04 298.79 102.12 C 291.18 103.44 283.71 105.37 276.14 106.86 C 286.28 76.78 295.92 46.52 305.97 16.41 C 308.05 22.45 310.13 28.50 312.16 34.57 Z" />
<path fill="#f5e5c1" opacity="1.00" d=" M 264.99 118.94 C 267.05 117.74 269.64 118.33 271.59 119.48 C 275.86 121.99 280.10 125.11 282.42 129.61 C 283.62 133.21 284.99 137.21 283.41 140.92 C 283.12 143.29 281.12 144.58 279.11 145.45 C 266.04 151.49 252.81 157.19 239.81 163.37 C 236.23 162.60 233.04 160.47 231.55 157.05 C 229.00 157.90 226.45 158.80 224.05 160.02 C 200.11 172.13 176.17 184.24 152.16 196.19 C 148.28 197.86 147.30 202.16 145.64 205.59 C 139.15 209.31 132.35 212.56 125.52 215.65 C 121.96 217.42 117.65 216.68 114.52 214.37 C 110.95 212.09 106.64 208.69 107.39 203.92 C 107.63 200.31 111.62 198.96 113.77 196.61 C 107.44 194.42 100.96 201.88 103.14 207.91 C 103.54 209.84 105.15 211.14 106.53 212.41 C 116.71 221.05 126.54 230.11 136.79 238.67 C 137.31 236.65 137.86 234.64 138.53 232.67 C 137.71 232.96 136.89 233.23 136.06 233.49 C 130.40 231.20 124.77 225.86 126.22 219.16 C 132.84 215.86 139.18 211.98 146.02 209.13 C 146.34 209.24 146.97 209.45 147.29 209.56 C 148.79 213.21 150.31 217.01 153.40 219.65 C 154.49 221.00 156.53 221.79 156.82 223.64 C 151.79 226.43 146.33 228.41 141.41 231.38 C 139.94 234.20 139.57 237.44 138.59 240.45 C 117.39 248.71 96.02 256.54 74.86 264.90 C 72.87 266.15 71.19 264.39 69.66 263.30 C 63.77 258.68 57.85 254.09 51.92 249.51 C 56.08 244.50 60.67 239.86 65.00 235.00 C 67.62 231.82 71.36 229.98 74.77 227.81 C 82.83 222.76 90.93 217.78 99.04 212.81 C 100.36 212.20 100.87 210.84 101.25 209.54 C 98.80 209.91 96.90 211.59 94.83 212.80 C 86.45 217.96 78.04 223.07 69.65 228.20 C 70.31 224.49 71.35 220.86 71.95 217.14 C 67.81 220.54 68.99 226.38 66.79 230.70 C 61.66 236.34 56.31 241.80 50.85 247.12 C 50.82 244.23 51.80 241.52 52.89 238.89 C 51.61 240.29 50.21 241.65 49.42 243.41 C 48.91 245.64 49.48 247.94 49.63 250.19 C 42.76 256.46 35.53 262.63 30.78 270.76 C 28.26 275.35 25.18 279.71 23.63 284.76 C 27.20 282.03 28.25 277.28 30.73 273.68 C 35.45 264.97 43.12 258.58 50.16 251.86 C 55.52 255.45 60.58 259.45 65.80 263.22 C 57.73 267.62 50.24 273.81 46.25 282.28 C 44.35 287.01 43.29 292.66 38.74 295.65 C 36.61 296.47 34.74 294.78 33.01 293.81 C 30.07 291.71 26.84 290.05 23.86 288.02 C 21.83 286.71 22.44 283.98 22.36 281.95 C 22.90 274.28 26.78 267.31 31.22 261.21 C 37.61 253.61 44.63 246.54 50.46 238.49 C 58.61 229.32 66.67 220.05 75.02 211.08 C 83.19 206.09 91.84 201.89 100.17 197.16 C 104.84 194.52 110.77 192.21 115.85 195.20 C 165.52 169.71 215.08 143.97 264.99 118.94 Z" />
<path fill="#3e3e3e" opacity="1.00" d=" M 267.46 121.46 C 269.60 120.77 271.75 122.35 273.52 123.41 C 278.06 126.88 282.10 132.34 281.02 138.37 C 280.52 140.42 279.11 143.68 276.42 142.52 C 270.45 140.45 266.34 134.80 264.59 128.92 C 263.65 126.15 265.39 123.22 267.46 121.46 Z" />
<path fill="#f5e5c1" opacity="1.00" d=" M 267.48 153.70 C 270.39 151.98 273.03 155.33 274.45 157.53 C 275.49 159.94 276.87 164.24 273.35 165.20 C 267.43 167.65 261.52 170.14 255.54 172.41 C 251.83 174.01 248.41 171.36 245.51 169.37 C 244.21 168.58 243.35 167.32 242.62 166.01 C 251.03 162.16 259.28 157.98 267.48 153.70 Z" />
<path fill="#f5e5c1" opacity="1.00" d=" M 227.74 161.97 C 229.58 163.53 231.16 165.56 233.52 166.35 C 235.47 166.92 237.53 166.70 239.54 166.72 C 240.87 171.36 245.13 174.09 249.06 176.39 C 252.24 177.12 255.53 176.26 258.74 176.16 C 256.76 180.90 251.47 183.88 246.41 182.38 C 237.01 179.66 230.89 170.77 227.74 161.97 Z" />
<path fill="#f5e5c1" opacity="1.00" d=" M 155.04 199.10 C 177.39 187.92 199.59 176.43 222.00 165.39 C 222.35 167.00 222.74 168.61 223.12 170.22 C 200.80 181.06 178.06 191.03 155.68 201.74 C 153.58 203.62 152.20 206.22 150.02 208.07 C 149.81 206.39 148.75 204.47 149.88 202.93 C 150.99 200.99 153.18 200.13 155.04 199.10 Z" />
<path fill="#f5e5c1" opacity="1.00" d=" M 219.36 175.29 C 222.36 173.64 226.05 174.84 229.04 175.91 C 233.21 179.82 237.30 184.33 243.12 185.68 C 246.96 187.49 251.00 186.23 254.82 185.18 C 254.88 185.51 255.00 186.17 255.06 186.50 C 248.64 196.28 239.32 203.79 229.02 209.20 C 220.81 214.30 211.96 218.36 202.61 220.86 C 195.08 222.78 187.96 227.11 179.97 226.45 C 175.16 226.22 169.88 227.00 165.55 224.44 C 161.86 221.86 158.65 218.69 155.36 215.64 C 154.16 214.47 152.41 212.90 153.34 211.04 C 154.24 208.92 154.79 206.40 156.42 204.73 C 177.34 194.80 198.41 185.17 219.36 175.29 Z" />
<path fill="#3e3e3e" opacity="1.00" d=" M 210.68 190.81 C 210.53 189.12 212.72 189.65 213.69 189.07 C 214.96 192.09 215.62 195.51 217.91 197.98 C 220.67 201.07 223.13 204.53 226.81 206.61 C 225.79 207.29 224.76 207.96 223.75 208.65 C 217.80 204.19 212.13 198.37 210.68 190.81 Z" />
<path fill="#3e3e3e" opacity="1.00" d=" M 203.58 196.00 C 202.80 193.90 204.02 192.28 206.18 192.08 C 208.06 196.39 209.25 201.08 212.07 204.93 C 213.74 207.25 216.04 208.99 217.96 211.08 C 217.50 212.31 216.14 212.56 215.11 213.11 C 209.34 209.09 204.67 203.08 203.58 196.00 Z" />
<path fill="#3e3e3e" opacity="1.00" d=" M 194.81 197.92 C 195.49 196.54 196.58 196.15 198.08 196.75 C 199.21 200.04 199.43 203.65 201.28 206.69 C 203.03 210.45 206.11 213.27 209.07 216.07 C 207.98 216.61 206.90 217.16 205.82 217.72 C 199.29 213.25 195.41 205.75 194.81 197.92 Z" />
<path fill="#3e3e3e" opacity="1.00" d=" M 185.54 201.57 C 186.60 201.08 187.66 200.60 188.73 200.12 C 190.11 203.98 191.46 207.91 193.63 211.42 C 195.45 214.34 198.43 216.32 200.08 219.37 C 199.28 219.63 197.68 220.15 196.88 220.41 C 190.83 215.85 186.92 208.97 185.54 201.57 Z" />
<path fill="#3e3e3e" opacity="1.00" d=" M 178.31 204.73 C 179.31 204.26 180.32 203.79 181.33 203.32 C 182.45 207.44 183.64 211.59 185.76 215.32 C 187.42 217.90 189.94 219.74 192.11 221.87 C 190.26 222.12 187.90 223.44 186.45 221.59 C 181.52 217.32 179.37 210.97 178.31 204.73 Z" />
<path fill="#3e3e3e" opacity="1.00" d=" M 170.60 208.13 C 171.27 207.87 172.61 207.35 173.28 207.08 C 175.45 213.71 178.70 220.13 184.21 224.61 C 178.75 225.94 175.44 220.81 173.18 216.75 C 171.85 214.09 170.28 211.19 170.60 208.13 Z" />
<path fill="#3e3e3e" opacity="1.00" d=" M 98.08 215.82 C 99.38 215.02 100.69 214.24 102.00 213.47 C 103.23 214.36 105.45 214.84 104.85 216.84 C 103.07 219.52 99.01 218.90 98.08 215.82 Z" />
<path fill="#3e3e3e" opacity="1.00" d=" M 95.30 224.32 C 98.27 222.21 102.07 223.72 105.06 225.03 C 108.91 226.69 108.59 233.49 104.43 234.43 C 94.55 238.34 84.91 242.84 74.93 246.49 C 72.52 245.10 68.66 243.53 69.45 240.04 C 69.50 237.52 72.01 236.60 73.86 235.58 C 81.06 231.94 88.23 228.22 95.30 224.32 Z" />
<path fill="#f5e5c1" opacity="1.00" d=" M 94.39 231.33 C 95.89 230.65 97.36 229.72 99.06 229.63 C 100.91 229.75 101.79 231.54 101.42 233.22 C 92.99 237.23 84.18 240.45 75.80 244.58 C 74.76 243.66 72.50 243.20 73.32 241.39 C 80.26 237.88 87.45 234.86 94.39 231.33 Z" />
<path fill="#3e3e3e" opacity="1.00" d=" M 124.23 240.81 C 121.50 237.74 127.49 235.21 129.69 237.28 C 131.29 238.02 130.48 240.05 130.57 241.40 C 128.50 242.16 125.78 242.92 124.23 240.81 Z" />
<path fill="#3e3e3e" opacity="1.00" d=" M 55.44 250.39 C 55.12 247.59 58.06 246.96 60.22 247.63 C 60.31 248.12 60.51 249.10 60.60 249.59 C 58.99 250.42 57.21 250.59 55.44 250.39 Z" />
<path fill="#3e3e3e" opacity="1.00" d=" M 264.95 282.04 C 268.71 277.95 272.39 273.78 276.00 269.56 C 280.66 272.30 285.60 274.53 290.50 276.81 C 290.59 278.26 290.70 279.72 290.79 281.18 C 303.96 286.39 317.17 291.52 330.44 296.47 C 334.06 298.35 336.48 301.83 339.60 304.39 C 347.10 310.86 353.86 318.15 361.38 324.61 C 364.23 327.22 366.36 330.49 368.71 333.53 C 373.54 339.91 378.39 346.27 383.24 352.65 C 385.96 356.23 388.48 360.16 392.31 362.71 C 393.85 362.60 395.55 360.56 396.90 362.00 C 402.81 367.80 408.91 373.41 415.01 379.02 C 416.60 380.01 416.34 381.94 416.53 383.56 C 435.13 399.59 453.26 416.17 471.69 432.39 C 473.15 433.49 474.75 431.88 476.14 431.44 C 479.01 433.86 481.90 436.27 484.93 438.50 C 486.24 438.07 487.54 437.59 488.89 437.26 C 490.51 438.09 491.40 439.89 492.72 441.14 C 492.81 442.66 492.36 444.13 491.57 445.43 C 489.23 449.39 487.84 454.05 484.26 457.16 C 477.28 463.56 471.40 471.19 463.45 476.47 C 462.18 478.04 460.19 477.82 458.43 477.45 C 458.40 475.48 458.37 473.52 458.40 471.56 C 456.04 468.04 451.99 465.85 450.02 462.12 C 450.39 461.63 451.11 460.64 451.48 460.14 C 451.48 459.83 451.49 459.22 451.50 458.91 C 432.79 443.19 414.56 426.89 396.05 410.94 C 394.66 409.87 392.75 410.45 391.14 410.24 C 384.18 404.87 377.49 399.14 370.37 393.99 C 370.45 392.28 370.53 390.58 370.60 388.87 C 369.54 388.52 368.52 388.10 367.54 387.61 C 355.00 380.04 342.26 372.80 329.73 365.22 C 319.84 356.79 309.87 348.42 300.00 339.95 C 298.58 338.64 297.00 337.44 295.94 335.81 C 289.09 323.02 282.07 310.32 275.04 297.63 C 273.78 297.88 272.63 298.71 271.32 298.60 C 268.60 294.31 266.45 289.67 263.73 285.37 C 262.82 284.09 264.24 282.96 264.95 282.04 Z" />
</svg>
