<?xml version="1.0" encoding="UTF-8" standalone="no"?>
<svg
   xmlns:dc="http://purl.org/dc/elements/1.1/"
   xmlns:cc="http://creativecommons.org/ns#"
   xmlns:rdf="http://www.w3.org/1999/02/22-rdf-syntax-ns#"
   xmlns:svg="http://www.w3.org/2000/svg"
   xmlns="http://www.w3.org/2000/svg"
   xmlns:sodipodi="http://sodipodi.sourceforge.net/DTD/sodipodi-0.dtd"
   xmlns:inkscape="http://www.inkscape.org/namespaces/inkscape"
   width="1280"
   height="1280"
   viewBox="0 0 1024 1024"
   version="1.1"
   id="svg2"
   inkscape:version="0.48.1 "
   sodipodi:docname="buff_friends.svg">
  <metadata
     id="metadata74">
    <rdf:RDF>
      <cc:Work
         rdf:about="">
        <dc:format>image/svg+xml</dc:format>
        <dc:type
           rdf:resource="http://purl.org/dc/dcmitype/StillImage" />
      </cc:Work>
    </rdf:RDF>
  </metadata>
  <defs
     id="defs72" />
  <sodipodi:namedview
     pagecolor="#ffffff"
     bordercolor="#666666"
     borderopacity="1"
     objecttolerance="10"
     gridtolerance="10"
     guidetolerance="10"
     inkscape:pageopacity="0"
     inkscape:pageshadow="2"
     inkscape:window-width="1920"
     inkscape:window-height="1018"
     id="namedview70"
     showgrid="false"
     inkscape:snap-page="true"
     fit-margin-top="0"
     fit-margin-left="0"
     fit-margin-right="0"
     fit-margin-bottom="0"
     inkscape:zoom="0.6609375"
     inkscape:cx="640"
     inkscape:cy="640"
     inkscape:window-x="-8"
     inkscape:window-y="-8"
     inkscape:window-maximized="1"
     inkscape:current-layer="svg2" />
  <rect
     style="fill:#3e3e3e;fill-opacity:1;fill-rule:nonzero;stroke:none"
     id="rect3052"
     width="1024"
     height="1024"
     x="0"
     y="0" />
  <path
     d="m 25.02,0 111.64,0 c 18.02,35.5 37.54,70.18 56.04,105.44 12.06,23.86 25.98,46.76 37.6,70.84 -13.4,2.46 -27,3.42 -40.5,5.1 -13.62,1.54 -27.2,3.72 -40.9,4.16 C 107.92,123.48 65.88,62.12 25.02,0 z"
     id="path6"
     inkscape:connector-curvature="0"
     style="fill:#6c4b38" />
  <path
     d="m 208.84,0 72.76,0 c 20.86,54.12 41.16,108.46 62.04,162.58 -18.84,4.46 -38.24,5.82 -57.48,7.24 C 262,118.52 239.3,66.52 215.12,15.22 212.9,10.2 211.04,5.04 208.84,0 z"
     id="path8"
     inkscape:connector-curvature="0"
     style="fill:#6c4b38" />
  <path
     d="m 391.6,0 69.84,0 c 3.92,36.68 8.74,73.28 12.78,109.94 1.32,9.66 2.66,19.38 2.1,29.16 -18.82,2.96 -37.44,7.18 -56.22,10.42 -3.9,-14.26 -5.76,-28.94 -8.8,-43.38 C 405.02,70.7 397.88,35.42 391.6,0 z"
     id="path10"
     inkscape:connector-curvature="0"
     style="fill:#6c4b38" />
  <path
     d="m 604.62,0 84.84,0 C 679.94,34.62 670.08,69.18 659.74,103.58 635.82,108.28 612,113.66 587.8,116.66 592.36,77.64 599.6,38.98 604.62,0 z"
     id="path12"
     inkscape:connector-curvature="0"
     style="fill:#6c4b38" />
  <path
     d="m 738.38,0 105.7,0 c -8.12,15.98 -15.82,32.2 -23.86,48.22 -4.62,8.86 -7.74,18.56 -13.42,26.82 -5.64,3.22 -12.44,3.34 -18.7,4.6 -28.48,4.14 -56.42,11.36 -84.94,15.26 1.66,-5.5 3.4,-10.96 5.48,-16.3 C 718.82,52.5 728.22,26.1 738.38,0 z"
     id="path14"
     inkscape:connector-curvature="0"
     style="fill:#6c4b38" />
  <path
     d="m 887.1,0 112.04,0 c -10.42,15.18 -19.46,31.4 -31.5,45.4 -9.16,-6.32 -20.94,-9.16 -31.74,-5.68 -14.74,3.98 -23.2,20.06 -38.98,21.3 -15.14,1.88 -29.96,5.8 -45.18,6.86 C 863.14,45.06 876.1,23.04 887.1,0 z"
     id="path16"
     inkscape:connector-curvature="0"
     style="fill:#6c4b38" />
  <path
     d="m 929.22,81.54 c 5.5,-4.22 11.1,-8.34 16.76,-12.36 2.7,5.54 5.36,11.12 7.96,16.7 -2.88,5.14 -5.26,10.6 -8.86,15.28 -2.64,2.4 -6.42,2.96 -9.58,4.44 -1.48,-8.18 -3.56,-16.22 -6.28,-24.06 z"
     id="path18"
     inkscape:connector-curvature="0"
     style="fill:#f5722c" />
  <path
     d="m 914.25,82.4 c -2.74,2.76 -5.01,6.03 -6.45,9.65 1.18,5.36 3.82,10.2 6.2,15.1 2.8,-0.22 4.6,0.95 5.4,3.55 2.28,6.86 2.66,14.19 2.2,21.35 -25.78,3.64 -51.45,8.12 -77.25,11.7 0.02,5.68 0.08,11.37 0.2,17.05 -3.54,-4.7 -6.65,-9.76 -9.15,-15.1 -3.08,1.04 -6.12,2.08 -9.2,3.1 1.06,8.38 1.76,16.82 1.7,25.3 -0.98,-0.1 -2.87,-0.27 -3.85,-0.35 -2.44,-8.66 -5.14,-17.27 -8.1,-25.75 -169.8,26.64 -339.92,51.43 -509.8,77.55 -4.68,0.68 -9.36,1.7 -13.6,3.9 -12.34,-1.44 -24.4,2.4 -36.6,3.6 -41.26,6.5 -82.63,12.44 -123.95,18.7 -2.14,-12.16 -6.66,-23.74 -9.3,-35.8 -2.96,-0.62 -5.96,-1.3 -8.9,-1.9 -1.58,2.86 -3.15,5.71 -4.75,8.55 1.24,6.88 3.29,13.73 6.95,19.75 0.98,0.06 2.95,0.19 3.95,0.25 0.76,3.7 1.53,7.38 2.25,11.1 -2.74,0.06 -5.48,0.15 -8.2,0.25 7.98,43.46 16.18,86.94 24.7,130.3 1.94,10.48 2.26,21.17 3.5,31.75 6.74,76.82 15.93,153.43 21.45,230.35 0.22,2.04 -0.52,3.69 -2.2,5.05 6.06,59.5 12.37,119 18.55,178.5 7.32,0.66 14.89,2.19 22.05,-0.35 9.66,-2.74 19.83,-3.34 29.45,-6.2 5.46,-4.4 9.33,-10.43 14.15,-15.45 7.2,-7.48 11.98,-17.32 21.1,-22.8 0.24,6 0.23,12 0.25,18 4.1,5.78 7.5,12.02 11.1,18.1 8.48,-2.7 17.05,-5.18 25.55,-7.8 3.96,-1.26 8.43,-1.71 12.15,0.55 8.06,3.24 15.67,8.23 24.25,9.75 24.8,-9.22 48.39,-21.48 71.55,-34.2 7.42,-4.62 16.24,-1.19 24.3,-0.85 11.32,0.52 22.58,2.61 33.9,2.55 14.56,-10.32 28.09,-22.09 42.75,-32.35 1.64,-6.56 3.07,-13.21 4.75,-19.75 4.68,3.8 9.02,8.98 10.2,15 -1.92,5.22 -4.7,10.06 -7.1,15.1 7.22,-0.08 14.42,-0.7 21.6,-1.6 10.62,-1.1 19.95,-7.14 30.45,-8.8 8.62,0.84 17,3.74 25.7,4.1 8.22,-1.78 15.75,-5.76 23.95,-7.6 11.38,-1.68 22.76,3.18 34.1,0.8 11.8,-1.76 23.6,-3.55 35.5,-4.55 -0.72,-5.98 -1.89,-11.9 -2.15,-17.9 1.42,-4.86 5.13,-8.69 6.65,-13.55 9.28,1.28 11.68,11.26 15.8,18.1 3.92,-4.14 7.7,-8.37 11.6,-12.55 8.22,-0.32 16.38,-1.61 24.6,-2.25 9.76,-12 21.03,-22.84 34.05,-31.3 6.56,-4.7 14.69,-6.09 22.05,-9.05 1.76,5.2 3.8,10.3 6.1,15.3 -3.9,2.8 -7.87,5.49 -11.95,8.05 0.26,3.16 0.49,6.37 0.75,9.55 8.4,-2.14 16.41,-5.57 24.75,-7.85 8.52,-1.24 17.18,-1.72 25.8,-1.7 12.28,1.28 24.83,6.61 37.15,3.05 4.06,-17.16 4.02,-34.84 5.4,-52.3 5.64,3.78 10.3,8.74 15.4,13.2 5.58,4.34 7.36,11.5 10.6,17.5 3.4,8.9 12.77,12.78 19.65,18.5 3.8,-5.62 4.68,-14.24 11.7,-16.9 1.92,5.16 3.93,10.29 5.95,15.45 4.44,-0.46 8.88,-0.97 13.3,-1.65 1.62,-5.78 3.66,-11.44 5.9,-17 -1.04,-5.72 -1.96,-11.48 -2.9,-17.2 -2.64,0.26 -5.28,0.55 -7.9,0.85 -2.54,-2.78 -5.33,-5.44 -7.25,-8.7 -0.94,-3.44 1.24,-6.58 2.3,-9.7 4.08,0.28 8.5,-1.1 12.4,0.5 3.78,4.72 6.17,10.32 8.85,15.7 1.56,-3.1 3.23,-6.1 4.95,-9.1 5.44,-8.56 9.34,-17.96 14.1,-26.9 -2.5,-5.78 -3.92,-12.21 -7.6,-17.35 -7.94,-5.76 -17.58,-9.03 -24.6,-16.05 8.06,-1.94 16.11,-3.96 24.15,-6 -2.22,-21.44 -1.24,-43.32 -7.7,-64.1 1.88,-15.58 2.35,-31.62 -2.45,-46.8 -5.44,-1.6 -10.86,-3.34 -16.2,-5.2 -5.7,-6 -12.55,-10.68 -19.95,-14.3 -0.28,-0.78 -0.82,-2.32 -1.1,-3.1 12.46,-2.8 24.93,0.56 37.45,1 -0.42,-10.86 -1.19,-21.88 -4.85,-32.2 -4.38,-14.08 -3.47,-28.93 -2.15,-43.35 -2.3,-20.06 -2.09,-40.58 -7.05,-60.2 -2.16,-9.4 -7.77,-17.32 -11.65,-26 5.4,-5.88 10.14,-12.33 15.6,-18.15 -6.84,-14.06 -10.82,-29.2 -15.2,-44.1 -1.28,-8.18 0.43,-16.56 -1.35,-24.7 -5.08,-27.2 -9.53,-54.52 -14.65,-81.7 -2.62,0.08 -5.22,0.16 -7.8,0.2 -5.38,-14.88 -1.65,-31.91 -10.05,-45.85 -2.64,-0.46 -5.25,-1.55 -7.95,-1.35 z m -169.5,112.95 c -3.18,13.64 -6.75,27.18 -10.35,40.7 15.92,-11.76 36.07,-17.93 55.85,-15.15 27.78,2.94 51.59,22.75 63.65,47.35 5.92,11.3 8.82,23.77 11.5,36.15 3.34,22.48 -1.68,45.53 -11,66.05 27.56,10.6 52.56,30.94 64.7,58.3 9.1,21.84 10.88,45.82 11.8,69.2 -1.26,12.46 -2.34,26.16 -10.7,36.2 -5.6,7.92 -14.6,12.94 -23.9,15.2 -10,2.54 -20.39,-1.43 -30.35,1.45 -4.52,1.54 -9.18,1.08 -13.7,-0.1 1.36,14.6 -0.12,29.85 -6.6,43.15 -5.02,10.2 -14.6,17.77 -25.6,20.55 -7.78,2.76 -16.1,0.64 -24.1,1.9 -8.84,1.18 -18.19,-2.6 -26.55,1.4 -32.64,11.92 -68.41,14.4 -102.45,7.6 -0.68,10.9 -1.29,21.77 -1.95,32.65 C 636.94,644.03 608.96,629.9 580.9,616 562.98,633.72 544.98,651.34 527,669 520.04,635.98 513.02,602.97 506,569.95 437.1,610.29 368.2,650.64 299.2,690.8 333.48,631.16 368.26,571.82 402.4,512.1 362.1,504 321.68,496.27 281.4,487.95 316.48,468.41 351.84,449.38 387,430 365.62,386.68 344.43,343.28 322.95,300 c 44.36,3 88.71,6.07 133.05,8.95 -0.94,-31.98 -2.04,-63.92 -3,-95.9 32.46,18.92 64.85,38.02 97.35,56.9 11.8,-23.44 32.8,-43.66 59.4,-48.2 27.64,-6.04 56.8,5.77 74.8,27.05 20.16,-17.7 39.98,-35.81 60.2,-53.45 z"
     id="path20"
     style="fill:#f5e5c1"
     inkscape:connector-curvature="0" />
  <path
     d="m 837.98,102.96 c 21.14,-3.6 42.26,-7.34 63.4,-10.88 2.46,7.54 5.56,14.84 8,22.38 -88.58,16.06 -177.16,32.14 -265.74,48.18 -84.36,15 -168.46,31.6 -253.28,43.92 -31.8,5.18 -63.74,9.42 -95.54,14.64 -51.92,6.94 -103.9,13.56 -155.9,20 -1.5,-7.14 -2.82,-14.32 -4.06,-21.52 71.66,-8.08 143.3,-16.34 214.92,-24.76 83.54,-15.62 166.98,-31.96 250.48,-47.8 79.2,-14.9 158.18,-31.06 237.72,-44.16 z"
     id="path22"
     inkscape:connector-curvature="0"
     style="fill:#f5722c" />
  <path
     d="m 0,107.46 c 12.44,14.98 25.66,29.34 37.54,44.76 -12.5,5.5 -26.78,7.46 -37.54,16.48 l 0,-61.24 z"
     id="path24"
     inkscape:connector-curvature="0"
     style="fill:#6c4b38" />
  <path
     d="m 962.02,180.14 c 20.92,-23.96 41.26,-48.46 61.98,-72.6 l 0,214.12 c -12.08,10.16 -25.34,18.82 -37.84,28.44 -2.4,1.2 -4.78,4.1 -7.64,3.28 -2.86,-10.04 -2.02,-20.74 -5.2,-30.72 -2.1,-8.1 -6.76,-15.18 -9.56,-23 2.76,-7.46 10.64,-11.92 12.82,-19.62 -5.12,-18.62 -15.12,-36.34 -15.06,-56.18 0.22,-11.44 -2.88,-22.52 -4.2,-33.8 -0.8,-4.02 2.52,-7 4.7,-9.92 z"
     id="path26"
     inkscape:connector-curvature="0"
     style="fill:#6c4b38" />
  <path
     d="m 15.28,199.38 c 8.82,-12.94 26.1,-13.04 39.12,-19.4 8.7,4.98 18.32,8.74 26.06,15.2 6.26,9.02 14.12,17.72 16.38,28.8 2.04,-0.1 4.1,-0.2 6.16,-0.32 1.7,7.34 4.12,14.48 6.92,21.48 -4.64,0.52 -9.26,1.04 -13.88,1.56 0,8.26 -0.66,16.6 0.7,24.78 1.52,8.78 7.74,18 1.62,26.38 3.92,13.72 8.44,27.26 12.52,40.92 -1.22,0.58 -3.64,1.72 -4.86,2.28 1.06,6.04 1.34,12.62 5.14,17.72 3.04,4.34 6.52,8.36 9.8,12.54 -2.58,4.82 -8.04,9.48 -6.24,15.48 1.94,10.16 7.24,19.3 9.52,29.36 -0.22,6.56 -4.88,12.88 -2.28,19.48 2.48,8.24 6.1,16.06 8.86,24.2 -1.5,4.64 -5.4,9.46 -3.38,14.5 3.74,10.22 8.3,20.1 12.48,30.14 -1.62,3.02 -3.24,6.06 -4.86,9.08 5.92,28.18 11.84,56.38 17.62,84.58 3.18,19.08 5.2,38.54 3.32,57.86 5.38,55.26 11.58,110.48 17.02,165.74 0.46,4.6 1.78,9.06 3.1,13.5 8.72,1.32 17.56,2.1 26.36,1.22 14.78,62.5 29.56,125.02 44.26,187.54 l -60.96,0 c -32.94,-167.3 -65,-334.8 -98,-502.08 0.28,-4.76 -4.5,-4.34 -7.78,-4.76 0,-11.06 0.04,-22.12 -0.06,-33.18 -2.6,-0.28 -5.22,-0.54 -7.84,-0.8 -0.84,-15.78 -1.16,-31.58 -2.5,-47.32 -2.86,-1.62 -5.7,-3.22 -8.56,-4.82 -0.74,-12.56 -1.38,-25.1 -2,-37.66 -1.5,-0.1 -4.54,-0.3 -6.06,-0.4 -1.34,-12.62 -2.6,-25.26 -3.98,-37.88 -2.02,-0.78 -4.04,-1.58 -6.06,-2.34 -2.18,-16.5 -4.8,-32.96 -6.72,-49.48 -2.7,-0.44 -5.38,-0.88 -8.08,-1.32 -0.7,-8.4 -0.22,-16.9 -1.48,-25.26 -3.94,-8.4 -13.26,-13.52 -15.5,-22.9 -1.6,-6.5 -3.24,-13.08 -3.6,-19.78 0.56,-7.34 2.88,-14.42 3.84,-21.7 0.92,-4.38 0.96,-9.28 3.88,-12.94 z"
     id="path28"
     inkscape:connector-curvature="0"
     style="fill:#f5722c" />
  <path
     d="m 692.14,258.16 c 10.66,-9.48 21.12,-19.22 32.1,-28.36 -3.06,9.08 -3.62,19.22 -9.36,27.22 -5.12,7.72 -9.94,15.82 -12.26,24.88 -1.7,-8.64 -6.42,-16.08 -10.48,-23.74 z"
     id="path32"
     inkscape:connector-curvature="0"
     style="fill:#f5722c" />
  <path
     d="m 465.52,234.22 c 26.78,15.48 53.34,31.34 80.16,46.76 -6.04,19.74 -8.94,40.98 -4.06,61.3 2.06,10.18 5.74,19.9 9.46,29.56 -24.48,10.56 -46.72,28.24 -58.84,52.38 -9.42,19.16 -12.54,40.78 -13.26,61.94 -1.08,16.08 -0.34,33.7 9.46,47.24 10.94,16.1 34.68,22 51.4,11.44 5.72,1.78 11.42,3.58 17.12,5.48 -0.94,19.74 0.46,42.5 16.46,56.46 -13.22,12.7 -25.88,25.98 -39.28,38.48 -5.92,-25.58 -10.88,-51.36 -16.56,-76.98 -1.62,-8.74 -13.58,-12.22 -20.36,-6.92 -55.26,32.44 -110.82,64.4 -165.9,97.18 26.92,-45.6 53.12,-91.64 79.76,-137.42 5.34,-7.2 1.86,-19.2 -7.46,-20.68 -29.54,-6.04 -59.14,-11.88 -88.76,-17.6 25.66,-13.48 50.92,-27.72 76.4,-41.56 7.38,-3.02 8.64,-12.98 5,-19.32 -17.7,-36.36 -35.48,-72.68 -53.78,-108.74 36.52,2.7 73.08,5.02 109.62,7.5 8.56,1.5 16.18,-6.18 15.66,-14.58 -0.38,-23.98 -1.3,-47.96 -2.24,-71.92 z"
     id="path34"
     inkscape:connector-curvature="0"
     style="fill:#f5722c" />
  <path
     d="m 580.7,260.72 c 12.6,-14.54 32.24,-23.06 51.54,-20.02 24.96,3.54 44.04,24.46 51.9,47.5 -26.16,6.44 -46.84,27.24 -57.2,51.6 -9,21.92 -12.74,46.72 -6.54,69.9 2.16,9.52 4.98,18.94 9.58,27.58 -25.28,10.94 -48.46,29.1 -60.42,54.44 -5.32,12.12 -8.7,25.06 -10.56,38.16 -5.18,-2.78 -10.82,-6.14 -12.78,-12.06 -3.58,-13 -1.72,-26.68 -3.96,-39.88 -2.46,13.88 0.08,28.76 -6.1,41.84 -4.22,1.98 -7.38,5.42 -9.66,9.42 -8.96,3.18 -19.38,-1.7 -23.5,-10.06 -5.72,-11.54 -4.58,-24.84 -3.72,-37.28 1.08,-18.84 3.94,-38.32 14.18,-54.6 15.48,-24.26 42.62,-38.66 69.94,-45.34 -30.96,-32.1 -32.5,-87.88 -2.7,-121.2 z"
     id="path36"
     inkscape:connector-curvature="0"
     style="fill:#f5e5c1" />
  <path
     d="m 750.86,249.08 c 16.88,-11.28 40.14,-11.92 57.6,-1.58 17.32,9.92 28.92,27.74 34.18,46.7 7.84,29.74 1.84,64.22 -20.08,86.7 27.28,6.6 54.56,19.9 71.1,43.38 12.1,16.66 14.94,37.76 16.12,57.76 1.96,12.6 1.78,26.14 -4.02,37.74 -5.4,10.32 -21.02,14.32 -29.58,5.82 -10.14,-13.88 -6.34,-31.86 -9.88,-47.7 -2.5,14.4 1.3,29.82 -4.9,43.5 -1.72,4.78 -6.92,6.32 -10.94,8.5 -3.08,-11.74 -3.54,-24.28 -9.38,-35.18 -12.28,-27.46 -37.16,-47.92 -64.9,-58.52 6.5,-15.28 11.3,-31.56 12.02,-48.22 -0.14,-27.58 -9.1,-55.72 -27.88,-76.32 -10.88,-10.96 -24.16,-19.92 -39.32,-23.58 6.12,-15.4 15.54,-30.1 29.86,-39 z"
     id="path38"
     inkscape:connector-curvature="0"
     style="fill:#f5e5c1" />
  <path
     d="m 657.82,327.72 c 11.28,-13.36 28.28,-22.64 46.1,-21.7 17.66,-0.2 34.04,9.76 44.9,23.2 26.58,33.3 25.26,86.46 -4.66,117.28 27.42,6.82 55.02,20.08 71.5,43.9 11.9,16.64 14.72,37.64 15.8,57.54 2.14,12.96 1.72,27.12 -4.8,38.82 -6.3,11.06 -26.58,13.04 -31.54,-0.08 -6.78,-13.26 -3.82,-28.66 -7.02,-42.8 -3.22,15.64 2.92,34.74 -8.5,47.74 -46.22,23.32 -103.24,23.06 -149.64,0.32 -5.34,-4.08 -6.48,-11.42 -7.16,-17.68 -0.68,-10.3 -1.08,-20.62 -2.1,-30.88 -2.92,16.54 0.4,34.86 -10.04,49.32 -7.1,3.32 -16.28,4.74 -22.84,-0.5 -10.02,-7.24 -11.02,-20.88 -11.02,-32.18 1.46,-22.7 2.28,-46.76 14.7,-66.64 15.42,-24.34 42.52,-39.06 69.94,-45.7 -29.96,-32.08 -32.28,-86.38 -3.62,-119.96 z"
     id="path40"
     inkscape:connector-curvature="0"
     style="fill:#f5e5c1" />
  <path
     d="m 0,452.14 c 12.92,5.76 26.04,11.12 38.86,17.1 1.04,9.5 1.88,19.2 6,27.96 3.78,7.86 3.02,16.76 4.48,25.14 1.5,10.98 11.14,18.64 12.46,29.68 5.18,28.62 11.74,57 16.22,85.74 -26.06,-1.26 -52,-4.1 -78.02,-5.74 L 0,452.14 z"
     id="path42"
     inkscape:connector-curvature="0"
     style="fill:#6c4b38" />
  <path
     d="M 976.58,472.96 C 992.32,465.84 1008.3,459.22 1024,452 l 0,180.14 c -5.96,0.34 -11.9,0.68 -17.82,1.02 -2.74,-7 -4.6,-14.42 -8.48,-20.88 -3.78,-4.64 -9.28,-7.36 -14.14,-10.66 4.02,-1.94 8.24,-3.6 11.8,-6.36 2.08,-3.36 1.46,-7.5 1.4,-11.22 -1.64,-18.78 -1.7,-37.76 -6.5,-56.08 0.18,-16.16 2.76,-33.12 -3.86,-48.48 -2.52,-3.1 -6.52,-4.46 -9.82,-6.52 z"
     id="path44"
     inkscape:connector-curvature="0"
     style="fill:#6c4b38" />
  <path
     d="m 607.3,616.04 c 10.48,0.9 21.02,6.6 31.28,1.42 5.58,1.62 11.1,3.46 16.6,5.36 -0.4,5.48 -0.72,10.98 -1.04,16.48 -15.54,-7.92 -31.12,-15.72 -46.84,-23.26 z"
     id="path46"
     inkscape:connector-curvature="0"
     style="fill:#f5722c" />
  <path
     d="m 896.8,683.9 c 4.28,0.04 8.56,0.08 12.86,0.12 4.68,12.28 14.44,22.04 26.42,27.28 5.32,0.68 8,-4.78 11,-8.12 4,5.48 9.98,9.16 17,7.24 11.7,0 12.66,-13.94 16.28,-22.14 14.56,0.22 29.06,1.88 43.64,2.1 l 0,104.1 c -90.54,-21.9 -181.02,-44.06 -271.4,-66.52 6.06,-7.68 12.4,-15.24 20.22,-21.24 8.26,-6.38 16.74,-13.56 27.38,-15.36 0.6,0.72 1.8,2.2 2.4,2.92 -2.5,4.06 -6.54,6.76 -9.48,10.46 -1.2,5.12 -0.88,11.42 2.8,15.52 5.26,3.1 11.22,-0.44 16.4,-1.96 16.5,-6.9 35.1,-7.38 52.34,-3.22 8.72,2.12 17.74,1.7 26.52,0.16 2.88,-10.24 4.54,-20.76 5.62,-31.34 z"
     id="path48"
     inkscape:connector-curvature="0"
     style="fill:#6c4b38" />
  <path
     d="m 0,690.44 c 29.22,-1.12 58.38,-3.78 87.62,-4.36 6.1,27.56 10.92,55.4 16.08,83.16 C 69.18,777.78 34.62,786.3 0,794.44 l 0,-104 z"
     id="path50"
     inkscape:connector-curvature="0"
     style="fill:#6c4b38" />
  <path
     d="m 696.26,735.5 c 9.86,5.82 20.78,9.18 31.6,12.7 98.56,40.44 197.5,79.98 296.14,120.2 l 0,100.86 C 921.88,909.06 819.92,848.6 717.94,788.18 c -15.46,-9.2 -31.28,-17.86 -46.26,-27.86 7.88,-1.42 15.8,-2.58 23.74,-3.5 2.2,-6.94 1.76,-14.22 0.84,-21.32 z"
     id="path52"
     inkscape:connector-curvature="0"
     style="fill:#6c4b38" />
  <path
     d="m 603.82,768.24 c 13.82,-6.56 31.92,-11.74 45.38,-1.58 38.44,31.64 77.28,62.84 116.04,94.12 55.52,45.96 112.16,90.5 167.74,136.36 10.74,8.98 22.1,17.22 32.26,26.86 l -156.8,0 C 763.96,969.62 720.54,914.32 676.44,859.62 652.42,829 627.42,799.16 603.82,768.24 z"
     id="path54"
     inkscape:connector-curvature="0"
     style="fill:#6c4b38" />
  <path
     d="m 558.5,769.04 c 6.28,-1.9 12.74,-4.88 19.46,-3.58 4.88,1.04 11.44,1.3 13.8,6.56 41.4,84 82.86,168.02 124.38,251.98 l -122.2,0 c -5.3,-31.16 -8.42,-62.64 -13.4,-93.82 -5.86,-40.66 -11.32,-81.36 -17.22,-122 -1.68,-13.04 -4.42,-25.96 -4.82,-39.14 z"
     id="path56"
     inkscape:connector-curvature="0"
     style="fill:#6c4b38" />
  <path
     d="m 480.72,790.62 c 11.22,-8.1 21.64,-17.22 32.98,-25.12 2.1,3.4 3.02,8.94 8,9.06 11.48,1.54 23,-1.38 34.22,-3.64 -2.24,84.36 -5,168.72 -7.6,253.08 l -83.8,0 c 1.82,-49.3 3.5,-98.6 5.48,-147.9 3.66,-25.14 1.62,-50.6 3,-75.88 0.12,-4.56 4.7,-6.92 7.72,-9.6 z"
     id="path58"
     inkscape:connector-curvature="0"
     style="fill:#6c4b38" />
  <path
     d="m 307.86,1024 c 38,-76.82 75.9,-153.72 113.88,-230.56 13.34,1.14 26.68,2.4 40.04,3.44 -3.24,29.8 -8.12,59.42 -12.1,89.16 -6.8,45.94 -12.56,92.06 -19.64,137.96 l -122.18,0 z"
     id="path60"
     inkscape:connector-curvature="0"
     style="fill:#6c4b38" />
  <path
     d="m 234.28,829.98 c 8.64,-10.02 17.62,-19.7 26.02,-29.9 1.62,4.04 3.26,8.1 4.92,12.16 -10.32,5.88 -19.92,13.14 -30.94,17.74 z"
     id="path62"
     inkscape:connector-curvature="0"
     style="fill:#6c4b38" />
  <path
     d="m 355.76,823.78 c 9.8,-3.74 18.98,-8.98 28.96,-12.22 -2.68,5.44 -6.56,10.1 -10.5,14.66 -36.24,45.16 -72.14,90.62 -108.76,135.46 -4.9,-9.92 -6,-21.1 -8.78,-31.7 -3.76,-18.08 -9.2,-35.78 -12.56,-53.92 -1.1,-2.82 1.98,-4.56 3.56,-6.26 19.4,-16 39.22,-31.48 58.6,-47.48 1.68,-1.08 3.16,-2.96 5.22,-3.2 9.14,2.74 17.24,8.38 26.6,10.46 6.38,0.36 11.86,-3.72 17.66,-5.8 z"
     id="path64"
     inkscape:connector-curvature="0"
     style="fill:#6c4b38" />
  <path
     d="m 0,868.48 c 37.98,-15.4 75.74,-31.34 114.02,-45.96 4.84,18.36 7.08,37.28 11.36,55.78 1.04,4.94 2.26,9.94 1.94,15.04 -2.72,2.62 -6.04,4.52 -9.28,6.44 C 78.58,922.68 39.44,946.16 0,969.1 L 0,868.48 z"
     id="path66"
     inkscape:connector-curvature="0"
     style="fill:#6c4b38" />
  <path
     d="m 108.68,982.6 c 10.42,-8.42 20.42,-17.5 31.9,-24.48 4.96,21.84 8.38,44.02 13.3,65.88 l -96.52,0 c 17.42,-13.4 34.42,-27.36 51.32,-41.4 z"
     id="path68"
     inkscape:connector-curvature="0"
     style="fill:#6c4b38" />
</svg>
