<?xml version="1.0" encoding="UTF-8" ?>
<!DOCTYPE svg PUBLIC "-//W3C//DTD SVG 1.1//EN" "http://www.w3.org/Graphics/SVG/1.1/DTD/svg11.dtd">
<svg width="512pt" height="512pt" viewBox="0 0 512 512" version="1.1" xmlns="http://www.w3.org/2000/svg">
<path fill="#3e3e3e" opacity="1.00" d=" M 0.00 0.00 L 12.51 0.00 C 32.94 31.06 53.96 61.74 74.45 92.77 C 81.30 92.55 88.09 91.46 94.90 90.69 C 101.65 89.85 108.45 89.37 115.15 88.14 C 109.34 76.10 102.38 64.65 96.35 52.72 C 87.10 35.09 77.34 17.75 68.33 0.00 L 104.42 0.00 C 105.52 2.52 106.45 5.10 107.56 7.61 C 119.65 33.26 131.00 59.26 143.08 84.91 C 152.70 84.20 162.40 83.52 171.82 81.29 C 161.38 54.23 151.23 27.06 140.80 0.00 L 195.80 0.00 C 198.94 17.71 202.51 35.35 205.65 53.07 C 207.17 60.29 208.10 67.63 210.05 74.76 C 219.44 73.14 228.75 71.03 238.16 69.55 C 238.44 64.66 237.77 59.80 237.11 54.97 C 235.09 36.64 232.68 18.34 230.72 0.00 L 302.31 0.00 C 299.80 19.49 296.18 38.82 293.90 58.33 C 306.00 56.83 317.91 54.14 329.87 51.79 C 335.04 34.59 339.97 17.31 344.73 0.00 L 369.19 0.00 C 364.11 13.05 359.41 26.25 354.32 39.30 C 353.28 41.97 352.41 44.70 351.58 47.45 C 365.84 45.50 379.81 41.89 394.05 39.82 C 397.18 39.19 400.58 39.13 403.40 37.52 C 406.24 33.39 407.80 28.54 410.11 24.11 C 414.13 16.10 417.98 7.99 422.04 0.00 L 443.55 0.00 C 438.05 11.52 431.57 22.53 425.87 33.94 C 433.48 33.41 440.89 31.45 448.46 30.51 C 456.35 29.89 460.58 21.85 467.95 19.86 C 473.35 18.12 479.24 19.54 483.82 22.70 C 489.84 15.70 494.36 7.59 499.57 0.00 L 512.00 0.00 L 512.00 53.77 C 501.64 65.84 491.47 78.09 481.01 90.07 C 479.92 91.53 478.26 93.02 478.66 95.03 C 479.32 100.67 480.87 106.21 480.76 111.93 C 480.73 121.85 485.73 130.71 488.29 140.02 C 487.20 143.87 483.26 146.10 481.88 149.83 C 483.28 153.74 485.61 157.28 486.66 161.33 C 488.25 166.32 487.83 171.67 489.26 176.69 C 490.69 177.10 491.88 175.65 493.08 175.05 C 499.33 170.24 505.96 165.91 512.00 160.83 L 512.00 226.00 C 504.15 229.61 496.16 232.92 488.29 236.48 C 489.94 237.51 491.94 238.19 493.20 239.74 C 496.51 247.42 495.22 255.90 495.13 263.98 C 497.53 273.14 497.56 282.63 498.38 292.02 C 498.41 293.88 498.72 295.95 497.68 297.63 C 495.90 299.01 493.79 299.84 491.78 300.81 C 494.21 302.46 496.96 303.82 498.85 306.14 C 500.79 309.37 501.72 313.08 503.09 316.58 C 506.05 316.41 509.02 316.24 512.00 316.07 L 512.00 345.19 C 504.71 345.08 497.46 344.25 490.18 344.14 C 488.37 348.24 487.89 355.21 482.04 355.21 C 478.53 356.17 475.54 354.33 473.54 351.59 C 472.04 353.26 470.70 355.99 468.04 355.65 C 462.05 353.03 457.17 348.15 454.83 342.01 C 452.68 341.99 450.54 341.97 448.40 341.95 C 447.86 347.24 447.03 352.50 445.59 357.62 C 441.20 358.39 436.69 358.60 432.33 357.54 C 423.71 355.46 414.41 355.70 406.16 359.15 C 403.57 359.91 400.59 361.68 397.96 360.13 C 396.12 358.08 395.96 354.93 396.56 352.37 C 398.03 350.52 400.05 349.17 401.30 347.14 C 401.00 346.78 400.40 346.04 400.10 345.68 C 394.78 346.58 390.54 350.17 386.41 353.36 C 382.50 356.36 379.33 360.14 376.30 363.98 C 421.49 375.21 466.73 386.29 512.00 397.24 L 512.00 434.20 C 462.68 414.09 413.21 394.32 363.93 374.10 C 358.52 372.34 353.06 370.66 348.13 367.75 C 348.59 371.30 348.81 374.94 347.71 378.41 C 343.74 378.87 339.78 379.45 335.84 380.16 C 343.33 385.16 351.24 389.49 358.97 394.09 C 409.96 424.30 460.94 454.53 512.00 484.63 L 512.00 512.00 L 482.62 512.00 C 477.54 507.18 471.86 503.06 466.49 498.57 C 438.70 475.64 410.38 453.37 382.62 430.39 C 363.24 414.75 343.82 399.15 324.60 383.33 C 317.87 378.25 308.82 380.84 301.91 384.12 C 313.71 399.58 326.21 414.50 338.22 429.81 C 360.27 457.16 381.98 484.81 404.22 512.00 L 358.07 512.00 C 337.31 470.02 316.58 428.01 295.88 386.01 C 294.70 383.38 291.42 383.25 288.98 382.73 C 285.62 382.08 282.39 383.57 279.25 384.52 C 279.45 391.11 280.82 397.57 281.66 404.09 C 284.61 424.41 287.34 444.76 290.27 465.09 C 292.76 480.68 294.32 496.42 296.97 512.00 L 274.16 512.00 C 275.46 469.82 276.84 427.64 277.96 385.46 C 272.35 386.59 266.59 388.05 260.85 387.28 C 258.36 387.22 257.90 384.45 256.85 382.75 C 251.18 386.70 245.97 391.26 240.36 395.31 C 238.85 396.65 236.56 397.83 236.50 400.11 C 235.81 412.75 236.83 425.48 235.00 438.05 C 234.01 462.70 233.17 487.35 232.26 512.00 L 215.02 512.00 C 218.56 489.05 221.44 465.99 224.84 443.02 C 226.83 428.15 229.27 413.34 230.89 398.44 C 224.21 397.92 217.54 397.29 210.87 396.72 C 191.88 435.14 172.93 473.59 153.93 512.00 L 123.37 512.00 C 116.02 480.74 108.63 449.48 101.24 418.23 C 96.84 418.67 92.42 418.28 88.06 417.62 C 87.40 415.40 86.74 413.17 86.51 410.87 C 83.79 383.24 80.69 355.63 78.00 328.00 C 78.94 318.34 77.93 308.61 76.34 299.07 C 73.45 284.97 70.49 270.87 67.53 256.78 C 68.34 255.27 69.15 253.75 69.96 252.24 C 67.87 247.22 65.59 242.28 63.72 237.17 C 62.71 234.65 64.66 232.24 65.41 229.92 C 64.03 225.85 62.22 221.94 60.98 217.82 C 59.68 214.52 62.01 211.36 62.12 208.08 C 60.98 203.05 58.33 198.48 57.36 193.40 C 56.46 190.40 59.19 188.07 60.48 185.66 C 58.84 183.57 57.10 181.56 55.58 179.39 C 53.68 176.84 53.54 173.55 53.01 170.53 C 53.62 170.25 54.83 169.68 55.44 169.39 C 53.40 162.56 51.14 155.79 49.18 148.93 C 52.24 144.74 49.13 140.13 48.37 135.74 C 47.69 131.65 48.02 127.48 48.02 123.35 C 50.33 123.09 52.64 122.83 54.96 122.57 C 53.56 119.07 52.35 115.50 51.50 111.83 C 50.47 111.89 49.44 111.94 48.42 111.99 C 47.29 106.45 43.36 102.10 40.23 97.59 C 36.36 94.36 31.55 92.48 27.20 89.99 C 20.69 93.17 12.05 93.22 7.64 99.69 C 6.18 101.52 6.16 103.97 5.70 106.16 C 5.22 109.80 4.06 113.34 3.78 117.01 C 3.96 120.36 4.78 123.65 5.58 126.90 C 6.70 131.59 11.36 134.15 13.33 138.35 C 13.96 142.53 13.72 146.78 14.07 150.98 C 15.42 151.20 16.76 151.42 18.11 151.64 C 19.07 159.90 20.38 168.13 21.47 176.38 C 22.48 176.76 23.49 177.16 24.50 177.55 C 25.19 183.86 25.82 190.18 26.49 196.49 C 27.25 196.54 28.77 196.64 29.52 196.69 C 29.83 202.97 30.15 209.24 30.52 215.52 C 31.95 216.32 33.37 217.12 34.80 217.93 C 35.47 225.80 35.63 233.70 36.05 241.59 C 37.36 241.72 38.67 241.85 39.97 241.99 C 40.02 247.52 40.00 253.05 40.00 258.58 C 41.64 258.79 44.03 258.58 43.89 260.96 C 60.39 344.60 76.42 428.35 92.89 512.00 L 76.94 512.00 C 74.48 501.07 72.77 489.98 70.29 479.06 C 64.55 482.55 59.55 487.09 54.34 491.30 C 45.89 498.32 37.39 505.30 28.68 512.00 L 0.00 512.00 L 0.00 484.55 C 19.72 473.08 39.29 461.34 59.02 449.89 C 60.64 448.93 62.30 447.98 63.66 446.67 C 63.82 444.12 63.21 441.62 62.69 439.15 C 60.55 429.90 59.43 420.44 57.01 411.26 C 37.87 418.57 18.99 426.54 0.00 434.24 L 0.00 397.22 C 17.31 393.15 34.59 388.89 51.85 384.62 C 49.27 370.74 46.86 356.82 43.81 343.04 C 29.19 343.33 14.61 344.66 0.00 345.22 L 0.00 316.01 C 13.01 316.83 25.98 318.25 39.01 318.88 C 36.77 304.51 33.49 290.32 30.90 276.01 C 30.24 270.49 25.42 266.66 24.67 261.17 C 23.94 256.98 24.32 252.53 22.43 248.60 C 20.37 244.22 19.95 239.37 19.43 234.62 C 13.02 231.63 6.46 228.95 0.00 226.07 L 0.00 84.35 C 5.38 79.84 12.52 78.86 18.77 76.11 C 12.83 68.40 6.22 61.22 0.00 53.73 L 0.00 0.00 Z" />
<path fill="#6c4b38" opacity="1.00" d=" M 12.51 0.00 L 68.33 0.00 C 77.34 17.75 87.10 35.09 96.35 52.72 C 102.38 64.65 109.34 76.10 115.15 88.14 C 108.45 89.37 101.65 89.85 94.90 90.69 C 88.09 91.46 81.30 92.55 74.45 92.77 C 53.96 61.74 32.94 31.06 12.51 0.00 Z" />
<path fill="#6c4b38" opacity="1.00" d=" M 104.42 0.00 L 140.80 0.00 C 151.23 27.06 161.38 54.23 171.82 81.29 C 162.40 83.52 152.70 84.20 143.08 84.91 C 131.00 59.26 119.65 33.26 107.56 7.61 C 106.45 5.10 105.52 2.52 104.42 0.00 Z" />
<path fill="#6c4b38" opacity="1.00" d=" M 195.80 0.00 L 230.72 0.00 C 232.68 18.34 235.09 36.64 237.11 54.97 C 237.77 59.80 238.44 64.66 238.16 69.55 C 228.75 71.03 219.44 73.14 210.05 74.76 C 208.10 67.63 207.17 60.29 205.65 53.07 C 202.51 35.35 198.94 17.71 195.80 0.00 Z" />
<path fill="#6c4b38" opacity="1.00" d=" M 302.31 0.00 L 344.73 0.00 C 339.97 17.31 335.04 34.59 329.87 51.79 C 317.91 54.14 306.00 56.83 293.90 58.33 C 296.18 38.82 299.80 19.49 302.31 0.00 Z" />
<path fill="#6c4b38" opacity="1.00" d=" M 369.19 0.00 L 422.04 0.00 C 417.98 7.99 414.13 16.10 410.11 24.11 C 407.80 28.54 406.24 33.39 403.40 37.52 C 400.58 39.13 397.18 39.19 394.05 39.82 C 379.81 41.89 365.84 45.50 351.58 47.45 C 352.41 44.70 353.28 41.97 354.32 39.30 C 359.41 26.25 364.11 13.05 369.19 0.00 Z" />
<path fill="#6c4b38" opacity="1.00" d=" M 443.55 0.00 L 499.57 0.00 C 494.36 7.59 489.84 15.70 483.82 22.70 C 479.24 19.54 473.35 18.12 467.95 19.86 C 460.58 21.85 456.35 29.89 448.46 30.51 C 440.89 31.45 433.48 33.41 425.87 33.94 C 431.57 22.53 438.05 11.52 443.55 0.00 Z" />
<path fill="#f5722c" opacity="1.00" d=" M 464.61 40.77 C 467.36 38.66 470.16 36.60 472.99 34.59 C 474.34 37.36 475.67 40.15 476.97 42.94 C 475.53 45.51 474.34 48.24 472.54 50.58 C 471.22 51.78 469.33 52.06 467.75 52.80 C 467.01 48.71 465.97 44.69 464.61 40.77 Z" />
<path fill="#f5e5c1" opacity="1.00" d=" M 457.13 41.20 C 458.48 41.10 459.77 41.64 461.09 41.87 C 465.29 48.84 463.44 57.35 466.13 64.79 C 467.42 64.77 468.72 64.74 470.03 64.70 C 472.59 78.29 474.82 91.95 477.36 105.55 C 478.25 109.62 477.38 113.82 478.02 117.91 C 480.21 125.36 482.21 132.92 485.63 139.95 C 482.90 142.86 480.52 146.08 477.82 149.02 C 479.76 153.36 482.58 157.32 483.66 162.02 C 486.14 171.83 486.02 182.09 487.17 192.12 C 486.51 199.33 486.06 206.75 488.25 213.79 C 490.08 218.95 490.47 224.46 490.68 229.89 C 484.42 229.67 478.17 228.00 471.94 229.40 C 472.08 229.79 472.35 230.56 472.49 230.95 C 476.19 232.76 479.63 235.11 482.48 238.11 C 485.15 239.04 487.85 239.90 490.57 240.70 C 492.97 248.29 492.74 256.30 491.80 264.09 C 495.03 274.48 494.54 285.44 495.65 296.16 C 491.63 297.18 487.60 298.17 483.57 299.14 C 487.08 302.65 491.90 304.29 495.87 307.17 C 497.71 309.74 498.42 312.96 499.67 315.85 C 497.29 320.32 495.35 325.02 492.63 329.30 C 491.77 330.80 490.93 332.31 490.15 333.86 C 488.81 331.17 487.62 328.37 485.73 326.01 C 483.78 325.21 481.56 325.90 479.52 325.76 C 478.99 327.32 477.91 328.89 478.38 330.61 C 479.34 332.24 480.73 333.56 482.00 334.95 C 483.31 334.80 484.64 334.66 485.96 334.53 C 486.43 337.39 486.87 340.26 487.39 343.12 C 486.27 345.90 485.27 348.73 484.46 351.62 C 482.25 351.96 480.02 352.23 477.80 352.46 C 476.79 349.88 475.79 347.31 474.83 344.73 C 471.32 346.06 470.88 350.36 468.98 353.17 C 465.54 350.31 460.85 348.38 459.15 343.93 C 457.53 340.93 456.63 337.35 453.84 335.18 C 451.29 332.95 448.97 330.46 446.15 328.57 C 445.46 337.30 445.48 346.14 443.45 354.72 C 437.29 356.50 431.02 353.83 424.88 353.19 C 420.57 353.18 416.23 353.43 411.97 354.05 C 407.80 355.19 403.80 356.90 399.60 357.97 C 399.47 356.38 399.35 354.79 399.22 353.21 C 401.26 351.93 403.24 350.57 405.19 349.17 C 404.04 346.67 403.03 344.12 402.15 341.52 C 398.47 343.00 394.41 343.71 391.13 346.06 C 384.62 350.29 378.98 355.69 374.10 361.69 C 369.99 362.01 365.92 362.66 361.81 362.82 C 359.86 364.91 357.96 367.03 356.00 369.10 C 353.94 365.68 352.74 360.69 348.10 360.05 C 347.34 362.48 345.48 364.40 344.77 366.83 C 344.90 369.83 345.50 372.79 345.86 375.78 C 339.91 376.28 334.01 377.18 328.11 378.06 C 322.44 379.25 316.75 376.82 311.06 377.66 C 306.96 378.58 303.18 380.56 299.07 381.45 C 294.72 381.27 290.54 379.83 286.23 379.41 C 280.98 380.24 276.31 383.26 271.00 383.81 C 267.41 384.26 263.80 384.55 260.19 384.59 C 261.39 382.07 262.80 379.65 263.76 377.04 C 263.17 374.03 261.00 371.46 258.66 369.56 C 257.82 372.83 257.09 376.14 256.27 379.42 C 248.94 384.55 242.17 390.45 234.89 395.61 C 229.23 395.64 223.62 394.59 217.96 394.33 C 213.93 394.16 209.51 392.44 205.80 394.75 C 194.22 401.11 182.43 407.24 170.03 411.85 C 165.74 411.09 161.92 408.60 157.89 406.98 C 156.03 405.85 153.80 406.07 151.82 406.70 C 147.57 408.01 143.30 409.24 139.06 410.59 C 137.26 407.55 135.55 404.45 133.50 401.56 C 133.49 398.56 133.50 395.55 133.38 392.55 C 128.82 395.29 126.43 400.22 122.83 403.96 C 120.42 406.47 118.47 409.47 115.74 411.67 C 110.93 413.10 105.86 413.40 101.03 414.77 C 97.45 416.04 93.66 415.29 90.00 414.96 C 86.91 385.21 83.76 355.46 80.73 325.71 C 81.57 325.03 81.93 324.19 81.82 323.17 C 79.06 284.71 74.47 246.40 71.10 207.99 C 70.48 202.70 70.32 197.36 69.35 192.12 C 65.09 170.44 61.00 148.71 57.01 126.98 C 58.37 126.93 59.73 126.89 61.10 126.86 C 60.74 125.00 60.36 123.15 59.98 121.30 C 59.48 121.27 58.50 121.20 58.01 121.17 C 56.18 118.16 55.15 114.75 54.53 111.31 C 55.33 109.89 56.12 108.46 56.91 107.03 C 58.38 107.33 59.86 107.67 61.34 107.98 C 62.66 114.01 64.93 119.79 66.00 125.87 C 86.66 122.74 107.34 119.77 127.97 116.52 C 134.07 115.92 140.11 114.01 146.28 114.73 C 148.40 113.63 150.74 113.11 153.08 112.77 C 238.02 99.71 323.07 87.33 407.97 74.01 C 409.45 78.25 410.80 82.54 412.02 86.87 C 412.51 86.91 413.47 87.00 413.96 87.05 C 413.99 82.81 413.62 78.60 413.09 74.41 C 414.63 73.90 416.16 73.38 417.70 72.86 C 418.95 75.53 420.50 78.05 422.27 80.40 C 422.21 77.56 422.18 74.72 422.17 71.88 C 435.07 70.09 447.90 67.85 460.79 66.03 C 461.02 62.45 460.85 58.79 459.71 55.36 C 459.31 54.06 458.40 53.47 457.00 53.58 C 455.81 51.13 454.48 48.70 453.89 46.02 C 454.61 44.21 455.76 42.58 457.13 41.20 Z" />
<path fill="#f5722c" opacity="1.00" d=" M 418.99 51.48 C 429.56 49.68 440.12 47.81 450.69 46.04 C 451.92 49.81 453.47 53.46 454.69 57.23 C 410.40 65.26 366.11 73.30 321.82 81.32 C 279.64 88.82 237.59 97.12 195.18 103.28 C 179.28 105.87 163.31 107.99 147.41 110.60 C 121.45 114.07 95.46 117.38 69.46 120.60 C 68.71 117.03 68.05 113.44 67.43 109.84 C 103.26 105.80 139.08 101.67 174.89 97.46 C 216.66 89.65 258.38 81.48 300.13 73.56 C 339.73 66.11 379.22 58.03 418.99 51.48 Z" />
<path fill="#6c4b38" opacity="1.00" d=" M 0.00 53.73 C 6.22 61.22 12.83 68.40 18.77 76.11 C 12.52 78.86 5.38 79.84 0.00 84.35 L 0.00 53.73 Z" />
<path fill="#6c4b38" opacity="1.00" d=" M 481.01 90.07 C 491.47 78.09 501.64 65.84 512.00 53.77 L 512.00 160.83 C 505.96 165.91 499.33 170.24 493.08 175.05 C 491.88 175.65 490.69 177.10 489.26 176.69 C 487.83 171.67 488.25 166.32 486.66 161.33 C 485.61 157.28 483.28 153.74 481.88 149.83 C 483.26 146.10 487.20 143.87 488.29 140.02 C 485.73 130.71 480.73 121.85 480.76 111.93 C 480.87 106.21 479.32 100.67 478.66 95.03 C 478.26 93.02 479.92 91.53 481.01 90.07 Z" />
<path fill="#f5722c" opacity="1.00" d=" M 7.64 99.69 C 12.05 93.22 20.69 93.17 27.20 89.99 C 31.55 92.48 36.36 94.36 40.23 97.59 C 43.36 102.10 47.29 106.45 48.42 111.99 C 49.44 111.94 50.47 111.89 51.50 111.83 C 52.35 115.50 53.56 119.07 54.96 122.57 C 52.64 122.83 50.33 123.09 48.02 123.35 C 48.02 127.48 47.69 131.65 48.37 135.74 C 49.13 140.13 52.24 144.74 49.18 148.93 C 51.14 155.79 53.40 162.56 55.44 169.39 C 54.83 169.68 53.62 170.25 53.01 170.53 C 53.54 173.55 53.68 176.84 55.58 179.39 C 57.10 181.56 58.84 183.57 60.48 185.66 C 59.19 188.07 56.46 190.40 57.36 193.40 C 58.33 198.48 60.98 203.05 62.12 208.08 C 62.01 211.36 59.68 214.52 60.98 217.82 C 62.22 221.94 64.03 225.85 65.41 229.92 C 64.66 232.24 62.71 234.65 63.72 237.17 C 65.59 242.28 67.87 247.22 69.96 252.24 C 69.15 253.75 68.34 255.27 67.53 256.78 C 70.49 270.87 73.45 284.97 76.34 299.07 C 77.93 308.61 78.94 318.34 78.00 328.00 C 80.69 355.63 83.79 383.24 86.51 410.87 C 86.74 413.17 87.40 415.40 88.06 417.62 C 92.42 418.28 96.84 418.67 101.24 418.23 C 108.63 449.48 116.02 480.74 123.37 512.00 L 92.89 512.00 C 76.42 428.35 60.39 344.60 43.89 260.96 C 44.03 258.58 41.64 258.79 40.00 258.58 C 40.00 253.05 40.02 247.52 39.97 241.99 C 38.67 241.85 37.36 241.72 36.05 241.59 C 35.63 233.70 35.47 225.80 34.80 217.93 C 33.37 217.12 31.95 216.32 30.52 215.52 C 30.15 209.24 29.83 202.97 29.52 196.69 C 28.77 196.64 27.25 196.54 26.49 196.49 C 25.82 190.18 25.19 183.86 24.50 177.55 C 23.49 177.16 22.48 176.76 21.47 176.38 C 20.38 168.13 19.07 159.90 18.11 151.64 C 16.76 151.42 15.42 151.20 14.07 150.98 C 13.72 146.78 13.96 142.53 13.33 138.35 C 11.36 134.15 6.70 131.59 5.58 126.90 C 4.78 123.65 3.96 120.36 3.78 117.01 C 4.06 113.34 5.22 109.80 5.70 106.16 C 6.16 103.97 6.18 101.52 7.64 99.69 Z" />
<path fill="#3e3e3e" opacity="1.00" d=" M 342.28 124.41 C 352.36 115.56 362.26 106.50 372.37 97.68 C 370.78 104.50 369.01 111.27 367.21 118.03 C 375.17 112.15 385.24 109.05 395.13 110.44 C 409.02 111.91 420.93 121.82 426.96 134.12 C 429.92 139.77 431.35 146.02 432.69 152.21 C 434.36 163.45 431.87 174.96 427.21 185.22 C 440.99 190.52 453.48 200.69 459.55 214.37 C 464.10 225.29 465.00 237.29 465.46 248.98 C 464.83 255.21 464.27 262.05 460.09 267.07 C 457.29 271.03 452.81 273.55 448.16 274.68 C 443.16 275.95 437.95 273.95 432.97 275.39 C 430.71 276.16 428.38 275.94 426.12 275.35 C 426.80 282.65 426.06 290.27 422.82 296.92 C 420.31 302.02 415.52 305.82 410.02 307.21 C 406.13 308.59 401.97 307.52 397.97 308.15 C 393.55 308.74 388.88 306.84 384.70 308.84 C 368.38 314.80 350.50 316.04 333.48 312.64 C 333.14 318.09 332.83 323.54 332.50 328.98 C 318.47 322.02 304.49 314.96 290.46 308.01 C 281.50 316.87 272.49 325.67 263.50 334.50 C 260.02 317.99 256.50 301.49 252.99 284.98 C 218.54 305.15 184.10 325.32 149.60 345.40 C 166.74 315.58 184.12 285.90 201.19 256.04 C 181.04 251.99 160.84 248.13 140.70 243.97 C 158.24 234.20 175.92 224.69 193.50 215.00 C 182.81 193.34 172.21 171.64 161.47 150.00 C 183.65 151.50 205.82 153.04 227.99 154.48 C 227.52 138.49 226.99 122.51 226.51 106.52 C 242.74 115.98 258.92 125.53 275.17 134.97 C 281.07 123.25 291.58 113.14 304.88 110.87 C 318.70 107.85 333.28 113.77 342.28 124.41 Z" />
<path fill="#f5722c" opacity="1.00" d=" M 346.07 129.08 C 351.40 124.34 356.63 119.47 362.12 114.90 C 360.59 119.44 360.31 124.51 357.44 128.51 C 354.88 132.37 352.47 136.42 351.31 140.95 C 350.46 136.63 348.10 132.91 346.07 129.08 Z" />
<path fill="#f5722c" opacity="1.00" d=" M 232.76 117.11 C 246.15 124.85 259.43 132.78 272.84 140.49 C 269.82 150.36 268.37 160.98 270.81 171.14 C 271.84 176.23 273.68 181.09 275.54 185.92 C 263.30 191.20 252.18 200.04 246.12 212.11 C 241.41 221.69 239.85 232.50 239.49 243.08 C 238.95 251.12 239.32 259.93 244.22 266.70 C 249.69 274.75 261.56 277.70 269.92 272.42 C 272.78 273.31 275.63 274.21 278.48 275.16 C 278.01 285.03 278.71 296.41 286.71 303.39 C 280.10 309.74 273.77 316.38 267.07 322.63 C 264.11 309.84 261.63 296.95 258.79 284.14 C 257.98 279.77 252.00 278.03 248.61 280.68 C 220.98 296.90 193.20 312.88 165.66 329.27 C 179.12 306.47 192.22 283.45 205.54 260.56 C 208.21 256.96 206.47 250.96 201.81 250.22 C 187.04 247.20 172.24 244.28 157.43 241.42 C 170.26 234.68 182.89 227.56 195.63 220.64 C 199.32 219.13 199.95 214.15 198.13 210.98 C 189.28 192.80 180.39 174.64 171.24 156.61 C 189.50 157.96 207.78 159.12 226.05 160.36 C 230.33 161.11 234.14 157.27 233.88 153.07 C 233.69 141.08 233.23 129.09 232.76 117.11 Z" />
<path fill="#f5e5c1" opacity="1.00" d=" M 290.35 130.36 C 296.65 123.09 306.47 118.83 316.12 120.35 C 328.60 122.12 338.14 132.58 342.07 144.10 C 328.99 147.32 318.65 157.72 313.47 169.90 C 308.97 180.86 307.10 193.26 310.20 204.85 C 311.28 209.61 312.69 214.32 314.99 218.64 C 302.35 224.11 290.76 233.19 284.78 245.86 C 282.12 251.92 280.43 258.39 279.50 264.94 C 276.91 263.55 274.09 261.87 273.11 258.91 C 271.32 252.41 272.25 245.57 271.13 238.97 C 269.90 245.91 271.17 253.35 268.08 259.89 C 265.97 260.88 264.39 262.60 263.25 264.60 C 258.77 266.19 253.56 263.75 251.50 259.57 C 248.64 253.80 249.21 247.15 249.64 240.93 C 250.18 231.51 251.61 221.77 256.73 213.63 C 264.47 201.50 278.04 194.30 291.70 190.96 C 276.22 174.91 275.45 147.02 290.35 130.36 Z" />
<path fill="#f5e5c1" opacity="1.00" d=" M 375.43 124.54 C 383.87 118.90 395.50 118.58 404.23 123.75 C 412.89 128.71 418.69 137.62 421.32 147.10 C 425.24 161.97 422.24 179.21 411.28 190.45 C 424.92 193.75 438.56 200.40 446.83 212.14 C 452.88 220.47 454.30 231.02 454.89 241.02 C 455.87 247.32 455.78 254.09 452.88 259.89 C 450.18 265.05 442.37 267.05 438.09 262.80 C 433.02 255.86 434.92 246.87 433.15 238.95 C 431.90 246.15 433.80 253.86 430.70 260.70 C 429.84 263.09 427.24 263.86 425.23 264.95 C 423.69 259.08 423.46 252.81 420.54 247.36 C 414.40 233.63 401.96 223.40 388.09 218.10 C 391.34 210.46 393.74 202.32 394.10 193.99 C 394.03 180.20 389.55 166.13 380.16 155.83 C 374.72 150.35 368.08 145.87 360.50 144.04 C 363.56 136.34 368.27 128.99 375.43 124.54 Z" />
<path fill="#f5e5c1" opacity="1.00" d=" M 328.91 163.86 C 334.55 157.18 343.05 152.54 351.96 153.01 C 360.79 152.91 368.98 157.89 374.41 164.61 C 387.70 181.26 387.04 207.84 372.08 223.25 C 385.79 226.66 399.59 233.29 407.83 245.20 C 413.78 253.52 415.19 264.02 415.73 273.97 C 416.80 280.45 416.59 287.53 413.33 293.38 C 410.18 298.91 400.04 299.90 397.56 293.34 C 394.17 286.71 395.65 279.01 394.05 271.94 C 392.44 279.76 395.51 289.31 389.80 295.81 C 366.69 307.47 338.18 307.34 314.98 295.97 C 312.31 293.93 311.74 290.26 311.40 287.13 C 311.06 281.98 310.86 276.82 310.35 271.69 C 308.89 279.96 310.55 289.12 305.33 296.35 C 301.78 298.01 297.19 298.72 293.91 296.10 C 288.90 292.48 288.40 285.66 288.40 280.01 C 289.13 268.66 289.54 256.63 295.75 246.69 C 303.46 234.52 317.01 227.16 330.72 223.84 C 315.74 207.80 314.58 180.65 328.91 163.86 Z" />
<path fill="#6c4b38" opacity="1.00" d=" M 0.00 226.07 C 6.46 228.95 13.02 231.63 19.43 234.62 C 19.95 239.37 20.37 244.22 22.43 248.60 C 24.32 252.53 23.94 256.98 24.67 261.17 C 25.42 266.66 30.24 270.49 30.90 276.01 C 33.49 290.32 36.77 304.51 39.01 318.88 C 25.98 318.25 13.01 316.83 0.00 316.01 L 0.00 226.07 Z" />
<path fill="#6c4b38" opacity="1.00" d=" M 488.29 236.48 C 496.16 232.92 504.15 229.61 512.00 226.00 L 512.00 316.07 C 509.02 316.24 506.05 316.41 503.09 316.58 C 501.72 313.08 500.79 309.37 498.85 306.14 C 496.96 303.82 494.21 302.46 491.78 300.81 C 493.79 299.84 495.90 299.01 497.68 297.63 C 498.72 295.95 498.41 293.88 498.38 292.02 C 497.56 282.63 497.53 273.14 495.13 263.98 C 495.22 255.90 496.51 247.42 493.20 239.74 C 491.94 238.19 489.94 237.51 488.29 236.48 Z" />
<path fill="#f5722c" opacity="1.00" d=" M 303.65 308.02 C 308.89 308.47 314.16 311.32 319.29 308.73 C 322.08 309.54 324.84 310.46 327.59 311.41 C 327.39 314.15 327.23 316.90 327.07 319.65 C 319.30 315.69 311.51 311.79 303.65 308.02 Z" />
<path fill="#6c4b38" opacity="1.00" d=" M 448.40 341.95 C 450.54 341.97 452.68 341.99 454.83 342.01 C 457.17 348.15 462.05 353.03 468.04 355.65 C 470.70 355.99 472.04 353.26 473.54 351.59 C 475.54 354.33 478.53 356.17 482.04 355.21 C 487.89 355.21 488.37 348.24 490.18 344.14 C 497.46 344.25 504.71 345.08 512.00 345.19 L 512.00 397.24 C 466.73 386.29 421.49 375.21 376.30 363.98 C 379.33 360.14 382.50 356.36 386.41 353.36 C 390.54 350.17 394.78 346.58 400.10 345.68 C 400.40 346.04 401.00 346.78 401.30 347.14 C 400.05 349.17 398.03 350.52 396.56 352.37 C 395.96 354.93 396.12 358.08 397.96 360.13 C 400.59 361.68 403.57 359.91 406.16 359.15 C 414.41 355.70 423.71 355.46 432.33 357.54 C 436.69 358.60 441.20 358.39 445.59 357.62 C 447.03 352.50 447.86 347.24 448.40 341.95 Z" />
<path fill="#6c4b38" opacity="1.00" d=" M 0.00 345.22 C 14.61 344.66 29.19 343.33 43.81 343.04 C 46.86 356.82 49.27 370.74 51.85 384.62 C 34.59 388.89 17.31 393.15 0.00 397.22 L 0.00 345.22 Z" />
<path fill="#6c4b38" opacity="1.00" d=" M 348.13 367.75 C 353.06 370.66 358.52 372.34 363.93 374.10 C 413.21 394.32 462.68 414.09 512.00 434.20 L 512.00 484.63 C 460.94 454.53 409.96 424.30 358.97 394.09 C 351.24 389.49 343.33 385.16 335.84 380.16 C 339.78 379.45 343.74 378.87 347.71 378.41 C 348.81 374.94 348.59 371.30 348.13 367.75 Z" />
<path fill="#6c4b38" opacity="1.00" d=" M 301.91 384.12 C 308.82 380.84 317.87 378.25 324.60 383.33 C 343.82 399.15 363.24 414.75 382.62 430.39 C 410.38 453.37 438.70 475.64 466.49 498.57 C 471.86 503.06 477.54 507.18 482.62 512.00 L 404.22 512.00 C 381.98 484.81 360.27 457.16 338.22 429.81 C 326.21 414.50 313.71 399.58 301.91 384.12 Z" />
<path fill="#6c4b38" opacity="1.00" d=" M 279.25 384.52 C 282.39 383.57 285.62 382.08 288.98 382.73 C 291.42 383.25 294.70 383.38 295.88 386.01 C 316.58 428.01 337.31 470.02 358.07 512.00 L 296.97 512.00 C 294.32 496.42 292.76 480.68 290.27 465.09 C 287.34 444.76 284.61 424.41 281.66 404.09 C 280.82 397.57 279.45 391.11 279.25 384.52 Z" />
<path fill="#6c4b38" opacity="1.00" d=" M 240.36 395.31 C 245.97 391.26 251.18 386.70 256.85 382.75 C 257.90 384.45 258.36 387.22 260.85 387.28 C 266.59 388.05 272.35 386.59 277.96 385.46 C 276.84 427.64 275.46 469.82 274.16 512.00 L 232.26 512.00 C 233.17 487.35 234.01 462.70 235.00 438.05 C 236.83 425.48 235.81 412.75 236.50 400.11 C 236.56 397.83 238.85 396.65 240.36 395.31 Z" />
<path fill="#6c4b38" opacity="1.00" d=" M 153.93 512.00 C 172.93 473.59 191.88 435.14 210.87 396.72 C 217.54 397.29 224.21 397.92 230.89 398.44 C 229.27 413.34 226.83 428.15 224.84 443.02 C 221.44 465.99 218.56 489.05 215.02 512.00 L 153.93 512.00 Z" />
<path fill="#6c4b38" opacity="1.00" d=" M 117.14 414.99 C 121.46 409.98 125.95 405.14 130.15 400.04 C 130.96 402.06 131.78 404.09 132.61 406.12 C 127.45 409.06 122.65 412.69 117.14 414.99 Z" />
<path fill="#6c4b38" opacity="1.00" d=" M 177.88 411.89 C 182.78 410.02 187.37 407.40 192.36 405.78 C 191.02 408.50 189.08 410.83 187.11 413.11 C 168.99 435.69 151.04 458.42 132.73 480.84 C 130.28 475.88 129.73 470.29 128.34 464.99 C 126.46 455.95 123.74 447.10 122.06 438.03 C 121.51 436.62 123.05 435.75 123.84 434.90 C 133.54 426.90 143.45 419.16 153.14 411.16 C 153.98 410.62 154.72 409.68 155.75 409.56 C 160.32 410.93 164.37 413.75 169.05 414.79 C 172.24 414.97 174.98 412.93 177.88 411.89 Z" />
<path fill="#6c4b38" opacity="1.00" d=" M 0.00 434.24 C 18.99 426.54 37.87 418.57 57.01 411.26 C 59.43 420.44 60.55 429.90 62.69 439.15 C 63.21 441.62 63.82 444.12 63.66 446.67 C 62.30 447.98 60.64 448.93 59.02 449.89 C 39.29 461.34 19.72 473.08 0.00 484.55 L 0.00 434.24 Z" />
<path fill="#6c4b38" opacity="1.00" d=" M 54.34 491.30 C 59.55 487.09 64.55 482.55 70.29 479.06 C 72.77 489.98 74.48 501.07 76.94 512.00 L 28.68 512.00 C 37.39 505.30 45.89 498.32 54.34 491.30 Z" />
</svg>
