<?xml version="1.0" encoding="UTF-8" ?>
<!DOCTYPE svg PUBLIC "-//W3C//DTD SVG 1.1//EN" "http://www.w3.org/Graphics/SVG/1.1/DTD/svg11.dtd">
<svg width="512pt" height="512pt" viewBox="0 0 512 512" version="1.1" xmlns="http://www.w3.org/2000/svg">
<path fill="#3e3e3e" opacity="1.00" d=" M 0.00 0.00 L 179.64 0.00 C 157.62 14.60 135.22 28.63 113.03 42.96 C 130.23 56.62 147.43 70.27 164.61 83.95 C 109.74 84.06 54.87 83.97 0.00 84.00 L 0.00 0.00 Z" />
<path fill="#f5722c" opacity="1.00" d=" M 179.64 0.00 L 179.84 0.00 C 180.24 10.30 179.82 20.61 180.05 30.92 C 181.33 30.37 182.61 29.83 183.91 29.32 C 187.88 31.57 192.73 29.73 196.82 31.80 C 206.80 33.09 217.04 31.36 226.98 33.40 C 242.02 35.67 256.76 39.72 271.02 44.99 C 281.93 49.36 292.60 54.32 303.61 58.47 C 316.96 64.29 329.97 71.38 340.90 81.11 C 349.56 88.78 358.36 96.29 367.03 103.95 C 376.48 113.50 386.45 122.59 395.05 132.93 C 406.14 144.39 414.63 157.95 424.28 170.57 C 439.44 190.35 451.62 212.46 459.96 235.96 C 463.56 245.98 466.32 256.27 469.32 266.48 C 470.66 272.32 472.60 278.06 473.32 284.03 C 467.56 301.35 461.78 318.66 456.01 335.98 C 430.55 324.49 405.10 312.98 379.66 301.44 C 374.67 281.99 368.05 263.02 360.51 244.42 C 356.65 234.05 351.25 224.35 346.25 214.50 C 339.75 203.46 333.14 192.48 326.61 181.45 C 320.96 172.02 314.90 162.68 307.00 154.95 C 290.84 138.10 273.73 122.07 255.15 107.89 C 243.20 99.70 230.72 92.31 218.36 84.74 C 209.03 79.30 200.19 72.84 189.91 69.22 C 186.22 67.11 181.90 66.92 178.12 65.08 C 177.39 71.37 177.20 77.70 176.64 84.00 C 176.40 86.68 176.28 89.37 176.09 92.06 L 175.49 92.68 C 175.26 92.50 174.78 92.14 174.55 91.95 C 171.25 89.27 167.99 86.53 164.61 83.95 C 147.43 70.27 130.23 56.62 113.03 42.96 C 135.22 28.63 157.62 14.60 179.64 0.00 Z" />
<path fill="#3e3e3e" opacity="1.00" d=" M 179.84 0.00 L 512.00 0.00 L 512.00 512.00 L 0.00 512.00 L 0.00 492.00 C 22.00 492.00 44.00 492.00 65.99 492.00 C 66.01 489.33 66.01 486.66 65.99 484.00 C 44.00 484.00 22.00 484.00 0.00 484.00 L 0.00 412.00 C 64.00 412.00 128.00 412.01 192.00 412.00 C 192.00 409.33 192.01 406.66 192.00 404.00 C 128.00 403.99 64.00 404.00 0.00 404.00 L 0.00 332.00 C 22.00 332.00 44.00 332.00 66.00 332.00 C 66.01 329.33 66.01 326.66 66.00 324.00 C 44.00 324.00 22.00 324.00 0.00 324.00 L 0.00 252.00 C 64.00 252.00 128.00 252.01 192.00 252.00 C 192.00 249.33 192.00 246.67 192.00 244.00 C 128.00 243.99 64.00 244.00 0.00 244.00 L 0.00 172.00 C 22.00 172.00 44.00 172.00 66.00 172.00 C 66.01 169.33 66.01 166.67 66.00 164.00 C 44.00 164.00 22.00 164.00 0.00 164.00 L 0.00 92.00 C 58.18 91.97 116.37 92.06 174.55 91.95 C 174.78 92.14 175.26 92.50 175.49 92.68 L 176.09 92.06 C 181.39 91.92 186.69 92.04 192.00 92.00 C 192.01 89.33 192.00 86.67 192.00 84.00 C 186.88 83.99 181.76 84.00 176.64 84.00 C 177.20 77.70 177.39 71.37 178.12 65.08 C 181.90 66.92 186.22 67.11 189.91 69.22 C 200.19 72.84 209.03 79.30 218.36 84.74 C 230.72 92.31 243.20 99.70 255.15 107.89 C 273.73 122.07 290.84 138.10 307.00 154.95 C 314.90 162.68 320.96 172.02 326.61 181.45 C 333.14 192.48 339.75 203.46 346.25 214.50 C 351.25 224.35 356.65 234.05 360.51 244.42 C 368.05 263.02 374.67 281.99 379.66 301.44 C 369.77 296.99 359.90 292.47 350.01 288.03 C 362.03 322.68 373.96 357.37 386.04 392.01 C 343.35 388.68 300.66 385.33 257.97 382.01 C 278.67 407.31 299.32 432.66 319.98 457.99 C 292.76 469.99 265.51 481.94 238.26 493.87 C 250.15 494.77 262.09 495.00 274.00 495.64 C 285.00 496.41 296.01 495.55 307.01 495.60 C 337.34 494.97 367.67 494.64 397.99 493.94 C 389.30 473.32 380.69 452.66 372.01 432.04 C 388.69 440.64 405.32 449.38 422.00 457.99 C 422.00 429.32 422.00 400.66 422.00 371.99 C 439.21 393.29 456.62 414.42 473.72 435.81 C 477.21 423.56 478.76 410.73 482.17 398.44 C 488.86 411.44 495.11 424.67 501.94 437.60 C 500.54 381.76 498.94 325.93 497.47 270.10 C 496.88 252.16 496.68 234.21 495.86 216.28 C 488.43 238.89 480.82 261.44 473.32 284.03 C 472.60 278.06 470.66 272.32 469.32 266.48 C 466.32 256.27 463.56 245.98 459.96 235.96 C 451.62 212.46 439.44 190.35 424.28 170.57 C 414.63 157.95 406.14 144.39 395.05 132.93 C 386.45 122.59 376.48 113.50 367.03 103.95 C 358.36 96.29 349.56 88.78 340.90 81.11 C 329.97 71.38 316.96 64.29 303.61 58.47 C 292.60 54.32 281.93 49.36 271.02 44.99 C 256.76 39.72 242.02 35.67 226.98 33.40 C 217.04 31.36 206.80 33.09 196.82 31.80 C 192.73 29.73 187.88 31.57 183.91 29.32 C 182.61 29.83 181.33 30.37 180.05 30.92 C 179.82 20.61 180.24 10.30 179.84 0.00 Z" />
<path fill="#f5e5c1" opacity="1.00" d=" M 0.00 84.00 C 54.87 83.97 109.74 84.06 164.61 83.95 C 167.99 86.53 171.25 89.27 174.55 91.95 C 116.37 92.06 58.18 91.97 0.00 92.00 L 0.00 84.00 Z" />
<path fill="#f5e5c1" opacity="1.00" d=" M 176.64 84.00 C 181.76 84.00 186.88 83.99 192.00 84.00 C 192.00 86.67 192.01 89.33 192.00 92.00 C 186.69 92.04 181.39 91.92 176.09 92.06 C 176.28 89.37 176.40 86.68 176.64 84.00 Z" />
<path fill="#f5e5c1" opacity="1.00" d=" M 0.00 164.00 C 22.00 164.00 44.00 164.00 66.00 164.00 C 66.01 166.67 66.01 169.33 66.00 172.00 C 44.00 172.00 22.00 172.00 0.00 172.00 L 0.00 164.00 Z" />
<path fill="#f5e5c1" opacity="1.00" d=" M 473.32 284.03 C 480.82 261.44 488.43 238.89 495.86 216.28 C 496.68 234.21 496.88 252.16 497.47 270.10 C 498.94 325.93 500.54 381.76 501.94 437.60 C 495.11 424.67 488.86 411.44 482.17 398.44 C 478.76 410.73 477.21 423.56 473.72 435.81 C 456.62 414.42 439.21 393.29 422.00 371.99 C 422.00 400.66 422.00 429.32 422.00 457.99 C 405.32 449.38 388.69 440.64 372.01 432.04 C 380.69 452.66 389.30 473.32 397.99 493.94 C 367.67 494.64 337.34 494.97 307.01 495.60 C 296.01 495.55 285.00 496.41 274.00 495.64 C 262.09 495.00 250.15 494.77 238.26 493.87 C 265.51 481.94 292.76 469.99 319.98 457.99 C 299.32 432.66 278.67 407.31 257.97 382.01 C 300.66 385.33 343.35 388.68 386.04 392.01 C 373.96 357.37 362.03 322.68 350.01 288.03 C 359.90 292.47 369.77 296.99 379.66 301.44 C 405.10 312.98 430.55 324.49 456.01 335.98 C 461.78 318.66 467.56 301.35 473.32 284.03 Z" />
<path fill="#f5e5c1" opacity="1.00" d=" M 0.00 244.00 C 64.00 244.00 128.00 243.99 192.00 244.00 C 192.00 246.67 192.00 249.33 192.00 252.00 C 128.00 252.01 64.00 252.00 0.00 252.00 L 0.00 244.00 Z" />
<path fill="#f5e5c1" opacity="1.00" d=" M 0.00 324.00 C 22.00 324.00 44.00 324.00 66.00 324.00 C 66.01 326.66 66.01 329.33 66.00 332.00 C 44.00 332.00 22.00 332.00 0.00 332.00 L 0.00 324.00 Z" />
<path fill="#f5e5c1" opacity="1.00" d=" M 0.00 404.00 C 64.00 404.00 128.00 403.99 192.00 404.00 C 192.01 406.66 192.00 409.33 192.00 412.00 C 128.00 412.01 64.00 412.00 0.00 412.00 L 0.00 404.00 Z" />
<path fill="#f5e5c1" opacity="1.00" d=" M 0.00 484.00 C 22.00 484.00 44.00 484.00 65.99 484.00 C 66.01 486.66 66.01 489.33 65.99 492.00 C 44.00 492.00 22.00 492.00 0.00 492.00 L 0.00 484.00 Z" />
</svg>
