<?xml version="1.0" encoding="UTF-8" ?>
<!DOCTYPE svg PUBLIC "-//W3C//DTD SVG 1.1//EN" "http://www.w3.org/Graphics/SVG/1.1/DTD/svg11.dtd">
<svg width="512pt" height="512pt" viewBox="0 0 512 512" version="1.1" xmlns="http://www.w3.org/2000/svg">
<path fill="#3e3e3e" opacity="1.00" d=" M 0.00 0.00 L 0.09 0.00 C 0.06 0.02 0.02 0.06 0.00 0.08 L 0.00 0.00 Z" />
<path fill="#6c4b38" opacity="1.00" d=" M 0.09 0.00 L 7.53 0.00 C 21.43 26.41 35.99 52.45 50.38 78.59 C 51.16 80.10 51.55 81.76 51.98 83.39 C 45.22 83.48 37.57 84.75 32.95 90.08 C 31.47 100.82 34.19 111.69 37.94 121.71 C 42.57 122.35 47.01 124.87 51.78 123.83 C 59.05 123.22 66.26 120.94 73.57 121.48 C 76.07 124.83 77.46 128.83 79.51 132.45 C 87.49 146.56 95.45 160.68 102.82 175.12 C 103.76 176.78 104.90 178.32 106.05 179.85 C 107.33 184.51 109.93 188.66 112.14 192.92 C 112.99 194.88 115.12 195.58 116.88 196.47 L 115.52 196.90 C 117.21 202.01 120.24 206.48 122.73 211.20 C 130.41 225.37 138.19 239.49 145.90 253.63 C 136.98 258.23 128.60 263.82 120.71 270.01 C 103.11 242.71 85.58 215.36 68.23 187.90 C 50.13 159.04 31.45 130.54 13.36 101.67 C 8.60 95.03 4.97 87.64 0.00 81.15 L 0.00 0.08 C 0.02 0.06 0.06 0.02 0.09 0.00 Z" />
<path fill="#3e3e3e" opacity="1.00" d=" M 7.53 0.00 L 41.01 0.00 C 43.19 3.42 44.80 7.16 46.39 10.88 C 44.87 11.13 43.34 11.38 41.82 11.63 C 43.66 12.09 45.50 12.55 47.33 13.01 C 47.04 22.33 46.66 31.65 46.34 40.97 C 46.96 41.28 48.19 41.91 48.81 42.23 C 49.32 44.01 49.81 45.80 50.31 47.58 C 51.19 46.64 52.06 45.70 52.93 44.76 C 51.60 42.69 49.69 40.69 49.94 38.03 C 49.80 31.73 49.85 25.43 49.77 19.14 C 54.39 25.65 57.08 33.25 60.91 40.22 C 64.65 48.42 69.43 56.16 72.48 64.67 C 70.47 65.33 68.47 66.01 66.47 66.70 C 61.10 60.99 55.94 55.10 50.64 49.34 C 50.25 49.54 49.48 49.96 49.10 50.16 C 54.66 56.29 60.13 62.49 65.66 68.65 C 74.45 66.08 83.13 63.14 91.99 60.80 L 92.87 62.51 C 83.31 65.75 73.78 69.05 64.19 72.17 C 62.46 72.68 60.87 73.56 59.57 74.81 C 62.34 74.35 65.02 73.53 67.67 72.63 C 78.43 69.02 89.24 65.57 100.01 62.00 C 101.63 66.82 102.99 71.73 104.81 76.49 L 106.17 76.17 C 108.93 72.08 108.02 66.24 112.11 62.87 C 113.73 62.94 115.36 62.94 116.98 62.89 C 156.79 60.01 196.57 56.52 236.40 53.83 C 236.35 54.30 236.25 55.23 236.20 55.69 C 234.29 56.01 232.35 56.14 230.48 56.65 C 228.08 57.68 226.96 60.22 225.84 62.39 C 228.51 62.66 231.18 63.02 233.84 63.45 C 233.47 63.99 232.72 65.08 232.35 65.62 C 198.94 68.72 165.47 71.29 132.03 74.19 C 126.27 74.77 120.45 74.89 114.75 75.96 C 116.36 76.71 118.06 77.35 119.87 77.03 C 157.25 73.84 194.63 70.72 232.00 67.54 C 231.87 68.33 231.61 69.91 231.47 70.70 C 193.76 73.70 156.03 76.42 118.30 79.19 C 120.04 83.79 121.09 88.60 121.72 93.47 C 157.54 89.78 193.37 86.10 229.19 82.38 C 229.16 86.45 229.10 90.53 228.96 94.61 C 227.83 95.78 226.71 96.95 225.61 98.14 C 222.80 98.32 220.01 98.64 217.24 99.14 C 217.27 103.41 217.07 107.69 216.50 111.93 C 215.31 112.73 214.11 113.52 212.94 114.34 C 212.29 117.32 210.66 119.96 209.84 122.87 C 210.75 124.12 211.90 125.19 213.00 126.28 C 211.54 128.24 209.81 130.01 207.43 130.81 C 207.60 132.43 207.80 134.05 207.98 135.67 C 201.61 136.90 195.11 137.71 188.62 136.99 C 188.45 135.24 188.30 133.48 188.15 131.72 C 190.76 131.81 193.38 131.93 196.00 132.03 C 195.99 129.69 196.00 127.34 196.00 125.00 C 192.28 123.85 188.63 122.49 185.10 120.83 C 184.65 119.66 184.20 118.49 183.75 117.32 C 180.93 117.57 178.12 117.81 175.31 118.04 C 174.07 121.57 172.54 125.27 173.85 129.03 C 175.80 129.43 177.76 129.84 179.72 130.26 C 178.69 134.12 177.07 137.90 176.86 141.92 C 177.25 147.67 178.36 153.35 178.71 159.11 C 177.69 157.80 176.35 156.67 175.81 155.05 C 170.66 139.79 165.55 124.52 160.42 109.26 C 154.74 110.48 149.03 111.62 143.27 112.42 C 142.47 116.18 142.11 120.02 142.02 123.87 C 140.78 124.93 139.52 125.99 138.28 127.05 C 138.21 127.84 138.07 129.40 138.00 130.18 C 137.89 131.33 137.79 132.48 137.69 133.63 C 129.97 134.68 122.34 136.63 114.52 136.64 C 114.38 134.64 114.51 132.58 113.96 130.63 C 112.50 128.88 110.45 127.69 109.15 125.80 C 107.45 123.09 106.65 119.86 104.61 117.36 C 102.70 117.12 100.78 117.21 98.86 117.21 C 101.69 123.66 105.24 129.77 107.72 136.37 C 105.93 136.26 104.13 136.15 102.34 136.04 C 101.99 140.28 101.65 144.53 101.38 148.78 C 102.90 149.35 104.42 149.93 105.95 150.51 C 105.81 155.67 105.14 160.81 105.12 165.98 C 105.25 170.61 105.85 175.22 106.05 179.85 C 104.90 178.32 103.76 176.78 102.82 175.12 C 95.45 160.68 87.49 146.56 79.51 132.45 C 77.46 128.83 76.07 124.83 73.57 121.48 C 66.26 120.94 59.05 123.22 51.78 123.83 C 47.01 124.87 42.57 122.35 37.94 121.71 C 34.19 111.69 31.47 100.82 32.95 90.08 C 37.57 84.75 45.22 83.48 51.98 83.39 C 51.55 81.76 51.16 80.10 50.38 78.59 C 35.99 52.45 21.43 26.41 7.53 0.00 Z" />
<path fill="#6c4b38" opacity="1.00" d=" M 41.01 0.00 L 123.84 0.00 C 130.62 19.75 137.09 39.62 143.72 59.43 C 135.49 60.07 127.27 60.73 119.03 61.30 C 116.66 61.45 114.27 61.81 112.11 62.87 C 108.02 66.24 108.93 72.08 106.17 76.17 C 104.37 70.73 102.97 65.16 101.31 59.67 C 98.49 60.62 95.68 61.56 92.87 62.51 L 91.99 60.80 C 91.73 60.27 91.20 59.21 90.94 58.68 C 84.78 60.65 78.63 62.67 72.48 64.67 C 69.43 56.16 64.65 48.42 60.91 40.22 C 57.08 33.25 54.39 25.65 49.77 19.14 C 49.72 16.21 49.65 13.28 49.59 10.36 C 48.52 10.53 47.46 10.71 46.39 10.88 C 44.80 7.16 43.19 3.42 41.01 0.00 Z" />
<path fill="#3e3e3e" opacity="1.00" d=" M 123.84 0.00 L 164.88 0.00 C 168.62 13.30 171.20 26.92 174.69 40.30 C 176.15 45.73 177.33 51.22 178.52 56.72 C 166.91 57.59 155.31 58.48 143.72 59.43 C 137.09 39.62 130.62 19.75 123.84 0.00 Z" />
<path fill="#6c4b38" opacity="1.00" d=" M 164.88 0.00 L 245.68 0.00 C 246.85 11.09 248.11 22.18 249.49 33.25 C 249.87 37.42 250.44 41.57 251.49 45.63 C 243.79 49.42 237.77 55.89 233.84 63.45 C 231.18 63.02 228.51 62.66 225.84 62.39 C 226.96 60.22 228.08 57.68 230.48 56.65 C 232.35 56.14 234.29 56.01 236.20 55.69 C 236.25 55.23 236.35 54.30 236.40 53.83 C 235.97 53.45 235.12 52.69 234.69 52.31 C 215.98 53.89 197.24 55.27 178.52 56.72 C 177.33 51.22 176.15 45.73 174.69 40.30 C 171.20 26.92 168.62 13.30 164.88 0.00 Z" />
<path fill="#3e3e3e" opacity="1.00" d=" M 245.68 0.00 L 295.16 0.00 C 294.87 11.36 295.77 22.78 294.47 34.10 C 294.11 39.61 294.26 45.15 293.75 50.67 C 290.64 48.45 287.08 47.01 283.70 45.27 C 273.88 39.65 261.37 40.64 251.49 45.63 C 250.44 41.57 249.87 37.42 249.49 33.25 C 248.11 22.18 246.85 11.09 245.68 0.00 Z" />
<path fill="#6c4b38" opacity="1.00" d=" M 295.16 0.00 L 365.12 0.00 C 364.11 5.55 363.52 11.16 362.55 16.72 C 359.61 16.79 356.67 17.15 353.82 17.89 C 349.81 18.65 346.13 20.49 342.95 23.00 C 339.25 25.91 334.22 27.63 332.11 32.16 C 328.95 38.43 325.64 44.68 323.67 51.46 C 320.74 51.70 317.80 52.18 315.11 53.42 C 314.82 53.52 314.25 53.74 313.96 53.85 C 314.33 53.56 315.06 52.98 315.42 52.69 C 312.67 50.61 309.18 49.15 307.68 45.83 C 309.74 45.18 312.49 45.20 313.10 42.59 C 311.75 41.50 310.13 40.92 308.46 40.55 L 308.50 39.33 C 308.38 38.70 308.18 38.08 308.01 37.46 C 307.21 37.51 305.60 37.61 304.79 37.65 C 303.55 36.95 302.30 36.27 301.06 35.59 C 299.90 36.52 298.75 37.47 297.64 38.46 C 297.63 38.60 297.62 38.89 297.62 39.04 C 297.76 42.84 297.90 46.65 297.79 50.46 C 296.99 50.76 295.41 51.36 294.61 51.66 C 294.40 51.42 293.97 50.92 293.75 50.67 C 294.26 45.15 294.11 39.61 294.47 34.10 C 295.77 22.78 294.87 11.36 295.16 0.00 Z" />
<path fill="#3e3e3e" opacity="1.00" d=" M 365.12 0.00 L 408.50 0.00 C 406.18 8.34 404.55 16.86 402.37 25.24 C 400.59 31.69 399.86 38.43 397.30 44.65 C 394.76 39.33 392.92 33.54 388.98 29.04 C 382.56 21.36 372.79 15.87 362.55 16.72 C 363.52 11.16 364.11 5.55 365.12 0.00 Z" />
<path fill="#6c4b38" opacity="1.00" d=" M 408.50 0.00 L 474.13 0.00 C 465.72 22.85 458.08 45.97 449.62 68.80 C 445.17 81.87 440.74 94.94 435.87 107.86 C 429.80 125.70 423.34 143.39 417.12 161.18 C 415.75 165.12 414.40 169.08 412.65 172.87 C 412.48 172.62 412.13 172.11 411.96 171.86 C 411.38 168.43 410.56 165.05 409.57 161.72 C 408.14 156.97 407.39 151.84 404.32 147.78 C 400.60 142.79 397.70 137.20 393.60 132.50 C 389.13 127.96 384.05 124.07 379.43 119.68 C 382.85 112.77 383.46 104.91 384.84 97.43 C 388.62 93.04 392.83 88.95 396.00 84.09 C 398.62 77.77 399.72 70.87 399.57 64.04 C 399.51 57.56 399.79 50.77 397.30 44.65 C 399.86 38.43 400.59 31.69 402.37 25.24 C 404.55 16.86 406.18 8.34 408.50 0.00 Z" />
<path fill="#3e3e3e" opacity="1.00" d=" M 474.13 0.00 L 495.48 0.00 C 488.21 17.04 481.75 34.42 474.48 51.45 C 469.75 64.15 464.04 76.45 459.27 89.13 C 446.11 120.80 433.46 152.68 420.40 184.39 C 418.34 189.76 419.13 195.64 419.34 201.24 C 425.38 188.42 430.26 175.09 436.09 162.18 C 456.24 114.03 476.82 66.07 496.66 17.78 C 499.11 11.84 501.21 5.73 504.15 0.00 L 512.00 0.00 L 512.00 91.52 C 507.58 98.06 503.65 104.89 499.64 111.68 C 481.77 140.52 464.05 169.46 446.50 198.50 C 440.77 207.48 435.59 216.81 429.64 225.65 C 425.97 223.16 422.27 220.70 418.63 218.17 C 405.05 221.72 391.56 225.66 378.14 229.75 C 380.40 231.87 382.69 233.94 385.01 236.00 C 399.24 232.92 413.46 229.82 427.69 226.72 C 431.09 237.38 434.60 248.00 437.98 258.66 C 436.86 259.11 435.75 259.56 434.65 260.02 C 435.39 262.80 436.15 265.57 436.92 268.35 C 434.01 269.09 431.11 269.88 428.22 270.70 C 429.59 273.90 430.96 277.12 432.32 280.33 C 434.76 279.65 437.19 278.94 439.63 278.24 C 442.34 288.62 445.21 298.96 448.00 309.33 C 447.00 310.10 446.02 310.88 445.03 311.66 C 446.46 311.33 447.89 311.00 449.34 310.68 C 448.33 306.66 447.27 302.65 446.20 298.65 C 450.96 295.17 456.58 293.32 461.84 290.78 C 478.55 282.98 495.33 275.32 512.00 267.43 L 512.00 512.00 L 0.00 512.00 L 0.00 283.44 C 36.74 293.71 73.32 304.51 110.04 314.84 C 115.08 316.24 120.02 318.02 125.17 318.99 C 124.27 316.97 123.24 314.71 120.81 314.26 C 88.59 304.61 56.52 294.42 24.28 284.83 C 16.27 282.00 7.93 280.21 0.00 277.18 L 0.00 205.24 C 7.99 210.37 15.19 216.61 22.91 222.11 C 44.38 238.33 65.97 254.39 87.48 270.56 C 94.47 275.90 101.67 280.98 108.42 286.63 C 109.28 283.08 110.91 279.77 111.82 276.24 C 110.36 274.03 108.33 272.31 106.48 270.45 C 99.82 263.80 93.30 257.01 86.98 250.04 C 75.01 238.02 63.81 225.26 51.63 213.44 C 45.50 206.24 38.75 199.61 32.11 192.88 C 26.96 187.06 21.60 181.43 16.08 175.95 C 10.49 170.59 5.77 164.41 0.00 159.24 L 0.00 81.15 C 4.97 87.64 8.60 95.03 13.36 101.67 C 31.45 130.54 50.13 159.04 68.23 187.90 C 85.58 215.36 103.11 242.71 120.71 270.01 C 128.60 263.82 136.98 258.23 145.90 253.63 C 138.19 239.49 130.41 225.37 122.73 211.20 C 120.24 206.48 117.21 202.01 115.52 196.90 L 116.88 196.47 C 123.78 200.21 131.72 200.24 139.29 201.29 C 139.41 202.31 139.52 203.34 139.64 204.37 C 140.51 204.66 141.39 204.95 142.26 205.24 C 148.69 219.58 155.90 233.55 162.91 247.60 C 177.09 243.24 192.44 244.14 206.65 247.92 C 206.16 245.73 205.74 243.53 205.49 241.30 C 211.56 244.19 217.68 246.98 223.75 249.85 C 224.71 252.20 225.33 254.93 227.48 256.53 C 230.59 259.06 234.05 261.14 236.94 263.95 C 245.83 272.40 251.64 283.70 254.23 295.63 C 257.40 295.96 260.58 296.33 263.75 296.72 C 267.22 291.19 269.80 285.10 273.95 279.99 C 275.46 277.77 277.81 275.54 277.37 272.61 C 276.51 264.61 275.28 256.66 274.50 248.65 C 279.35 246.81 284.09 244.70 288.93 242.84 C 289.47 242.88 290.55 242.98 291.09 243.03 C 291.40 249.06 291.04 255.09 291.19 261.13 C 293.54 259.77 295.82 258.28 298.03 256.70 C 305.08 251.70 313.26 248.52 321.68 246.70 C 316.61 244.51 311.93 241.55 307.25 238.66 C 304.83 239.93 302.42 241.21 300.02 242.51 C 299.52 241.34 299.02 240.16 298.52 238.99 C 309.27 235.04 320.35 232.06 331.16 228.32 C 335.51 226.54 339.95 224.68 343.65 221.72 C 356.61 209.52 368.99 196.69 382.17 184.73 C 372.03 196.28 361.53 207.52 351.36 219.05 C 366.68 211.90 381.67 204.05 397.02 196.97 C 390.01 202.62 383.07 208.35 376.18 214.14 C 370.54 219.04 362.64 219.52 356.32 223.19 C 362.18 223.34 368.05 223.03 373.92 222.84 C 377.90 222.79 381.47 220.86 385.01 219.28 C 390.25 216.87 395.58 214.64 400.84 212.28 C 404.93 210.81 405.93 206.16 408.01 202.83 C 411.74 196.81 412.57 189.66 414.01 182.87 C 414.71 180.07 413.83 177.29 413.11 174.61 C 412.99 174.18 412.76 173.31 412.65 172.87 C 414.40 169.08 415.75 165.12 417.12 161.18 C 423.34 143.39 429.80 125.70 435.87 107.86 C 440.74 94.94 445.17 81.87 449.62 68.80 C 458.08 45.97 465.72 22.85 474.13 0.00 Z" />
<path fill="#6c4b38" opacity="1.00" d=" M 495.48 0.00 L 504.15 0.00 C 501.21 5.73 499.11 11.84 496.66 17.78 C 476.82 66.07 456.24 114.03 436.09 162.18 C 430.26 175.09 425.38 188.42 419.34 201.24 C 419.13 195.64 418.34 189.76 420.40 184.39 C 433.46 152.68 446.11 120.80 459.27 89.13 C 464.04 76.45 469.75 64.15 474.48 51.45 C 481.75 34.42 488.21 17.04 495.48 0.00 Z" />
<path fill="#f5e5c1" opacity="1.00" d=" M 46.39 10.88 C 47.46 10.71 48.52 10.53 49.59 10.36 C 49.65 13.28 49.72 16.21 49.77 19.14 C 49.85 25.43 49.80 31.73 49.94 38.03 C 49.69 40.69 51.60 42.69 52.93 44.76 C 52.06 45.70 51.19 46.64 50.31 47.58 C 49.81 45.80 49.32 44.01 48.81 42.23 C 48.19 41.91 46.96 41.28 46.34 40.97 C 46.66 31.65 47.04 22.33 47.33 13.01 C 45.50 12.55 43.66 12.09 41.82 11.63 C 43.34 11.38 44.87 11.13 46.39 10.88 Z" />
<path fill="#f5e5c1" opacity="1.00" d=" M 353.82 17.89 C 356.67 17.15 359.61 16.79 362.55 16.72 C 372.79 15.87 382.56 21.36 388.98 29.04 C 392.92 33.54 394.76 39.33 397.30 44.65 C 399.79 50.77 399.51 57.56 399.57 64.04 C 399.72 70.87 398.62 77.77 396.00 84.09 C 392.83 88.95 388.62 93.04 384.84 97.43 C 381.51 100.80 377.01 102.57 373.02 104.99 C 377.07 101.75 380.97 98.32 384.91 94.95 C 389.67 91.22 392.50 85.68 395.22 80.41 C 396.62 74.09 398.65 67.59 397.46 61.06 C 396.08 51.89 394.89 42.30 389.77 34.33 C 387.15 30.67 385.02 26.38 381.02 23.99 C 378.37 22.32 375.88 20.32 372.96 19.13 C 366.72 17.56 360.20 16.80 353.82 17.89 Z" />
<path fill="#3e3e3e" opacity="1.00" d=" M 353.82 17.89 C 360.20 16.80 366.72 17.56 372.96 19.13 C 375.88 20.32 378.37 22.32 381.02 23.99 C 385.02 26.38 387.15 30.67 389.77 34.33 C 394.89 42.30 396.08 51.89 397.46 61.06 C 398.65 67.59 396.62 74.09 395.22 80.41 C 392.50 85.68 389.67 91.22 384.91 94.95 C 380.97 98.32 377.07 101.75 373.02 104.99 C 377.01 102.57 381.51 100.80 384.84 97.43 C 383.46 104.91 382.85 112.77 379.43 119.68 C 377.12 117.58 374.65 115.64 371.97 114.05 C 362.82 108.55 353.68 103.02 344.74 97.18 C 341.48 94.99 337.52 94.42 333.76 93.65 C 331.57 89.66 329.50 85.61 327.63 81.46 C 325.42 82.89 322.99 84.04 320.29 83.91 C 316.84 83.63 315.31 87.26 313.50 89.52 C 311.92 89.27 310.33 89.02 308.74 88.81 C 309.24 92.85 311.01 96.54 312.95 100.06 L 313.90 99.11 C 313.89 100.72 313.89 102.33 313.89 103.94 L 313.58 103.05 C 309.37 104.59 304.90 105.15 300.46 105.57 C 299.39 110.49 298.84 115.53 297.51 120.39 C 294.62 129.73 291.01 138.87 288.82 148.42 C 288.48 148.43 287.80 148.44 287.45 148.45 C 285.81 147.04 284.35 145.05 282.02 144.85 C 276.50 143.94 270.88 144.09 265.31 143.80 C 272.17 140.56 277.85 135.46 283.61 130.62 C 277.78 134.15 272.37 138.42 266.11 141.20 C 263.20 142.45 260.35 144.47 257.04 144.15 C 254.81 144.07 252.59 143.86 250.37 143.68 C 247.17 140.32 245.39 136.04 244.52 131.54 C 244.36 128.32 244.52 125.09 245.27 121.94 C 251.37 121.27 255.51 116.04 260.88 113.55 C 254.53 115.05 249.54 119.79 243.06 121.00 C 241.55 119.41 240.16 117.71 238.77 116.03 C 238.86 115.13 239.04 113.33 239.14 112.43 C 239.79 112.57 241.10 112.85 241.75 112.99 C 244.55 111.46 247.38 109.97 250.14 108.36 C 245.15 108.93 240.42 112.29 235.32 110.60 C 235.79 108.92 236.22 107.23 236.70 105.56 C 246.10 105.12 255.50 104.57 264.92 104.50 C 280.84 103.30 296.82 102.85 312.78 102.40 C 311.96 99.18 310.43 96.20 309.02 93.20 C 305.34 93.51 301.67 94.08 298.19 95.33 C 299.08 95.71 300.85 96.46 301.74 96.84 C 299.54 97.29 297.35 97.75 295.17 98.23 C 296.88 98.65 298.61 99.08 300.33 99.51 C 289.56 100.69 278.83 102.29 268.03 103.15 C 252.67 103.54 237.31 104.76 221.95 104.47 C 224.77 101.25 227.78 98.20 230.68 95.05 C 230.42 86.05 230.27 76.73 233.09 68.08 C 236.23 61.15 240.82 54.48 247.60 50.69 C 250.76 48.66 254.31 47.38 257.78 46.00 C 256.02 48.24 254.26 50.47 252.53 52.73 C 257.74 51.44 262.89 49.87 268.17 48.87 C 264.44 52.01 260.56 54.98 256.73 57.99 C 262.38 57.62 268.02 57.10 273.68 56.88 C 268.90 60.43 263.93 63.70 259.15 67.24 C 264.32 67.53 269.50 67.74 274.67 68.03 C 270.71 69.88 266.73 71.68 262.75 73.49 C 266.35 74.31 269.95 75.14 273.54 76.03 C 270.57 77.91 267.56 79.71 264.53 81.50 C 268.75 81.91 272.97 82.33 277.19 82.78 C 273.26 84.89 269.30 86.93 265.43 89.13 C 269.05 89.19 272.68 89.19 276.31 89.25 C 267.78 94.77 257.20 93.18 247.61 94.62 C 267.71 94.58 287.83 93.53 307.79 91.13 C 307.97 86.44 307.98 81.74 307.61 77.06 C 307.49 71.03 303.93 65.92 301.53 60.60 C 303.95 60.01 306.35 59.33 308.70 58.49 C 306.52 58.05 304.33 57.66 302.13 57.30 C 303.69 57.08 305.26 56.89 306.82 56.66 C 306.03 55.86 305.24 55.05 304.47 54.24 C 302.36 54.56 300.24 55.31 298.09 55.03 C 296.77 54.08 295.69 52.86 294.61 51.66 C 295.41 51.36 296.99 50.76 297.79 50.46 C 297.90 46.65 297.76 42.84 297.62 39.04 C 299.68 38.34 301.75 37.68 303.86 37.13 C 303.17 37.95 301.81 39.61 301.13 40.43 C 303.44 39.29 305.95 38.79 308.50 39.33 L 308.46 40.55 C 307.53 41.17 306.56 41.73 305.57 42.23 C 308.07 42.48 310.58 42.59 313.10 42.59 C 312.49 45.20 309.74 45.18 307.68 45.83 C 309.18 49.15 312.67 50.61 315.42 52.69 C 315.06 52.98 314.33 53.56 313.96 53.85 C 312.17 54.55 310.27 54.86 308.41 55.25 C 311.85 58.89 312.99 63.85 313.72 68.65 C 316.14 68.21 318.57 67.78 320.99 67.35 C 320.67 65.86 320.28 64.38 319.96 62.90 C 322.00 62.36 324.05 61.85 326.07 61.21 C 323.67 60.12 321.08 59.62 318.50 59.21 C 319.75 59.07 322.24 58.81 323.48 58.68 C 321.87 58.49 320.27 58.31 318.66 58.16 C 317.48 56.58 316.30 54.99 315.11 53.42 C 317.80 52.18 320.74 51.70 323.67 51.46 C 325.64 44.68 328.95 38.43 332.11 32.16 C 334.22 27.63 339.25 25.91 342.95 23.00 C 346.13 20.49 349.81 18.65 353.82 17.89 Z" />
<path fill="#f5e5c1" opacity="1.00" d=" M 333.79 52.58 C 343.75 45.99 353.97 39.82 363.99 33.32 C 364.50 33.61 365.52 34.17 366.03 34.46 C 355.98 40.86 346.10 47.53 336.13 54.05 C 335.54 53.68 334.38 52.95 333.79 52.58 Z" />
<path fill="#f5e5c1" opacity="1.00" d=" M 297.64 38.46 C 298.75 37.47 299.90 36.52 301.06 35.59 C 302.30 36.27 303.55 36.95 304.79 37.65 C 305.60 37.61 307.21 37.51 308.01 37.46 C 308.18 38.08 308.38 38.70 308.50 39.33 C 305.95 38.79 303.44 39.29 301.13 40.43 C 301.81 39.61 303.17 37.95 303.86 37.13 C 301.75 37.68 299.68 38.34 297.62 39.04 C 297.62 38.89 297.63 38.60 297.64 38.46 Z" />
<path fill="#f5e5c1" opacity="1.00" d=" M 337.43 55.15 C 348.20 49.02 358.92 42.79 369.73 36.74 C 372.07 39.24 374.88 41.36 376.74 44.26 C 378.23 47.14 379.78 50.02 380.84 53.09 C 382.04 59.32 381.45 65.68 380.49 71.90 C 367.32 70.56 354.16 69.26 341.00 67.93 C 341.83 63.34 340.26 58.75 337.43 55.15 Z" />
<path fill="#f5e5c1" opacity="1.00" d=" M 305.57 42.23 C 306.56 41.73 307.53 41.17 308.46 40.55 C 310.13 40.92 311.75 41.50 313.10 42.59 C 310.58 42.59 308.07 42.48 305.57 42.23 Z" />
<path fill="#f5e5c1" opacity="1.00" d=" M 251.49 45.63 C 261.37 40.64 273.88 39.65 283.70 45.27 C 287.08 47.01 290.64 48.45 293.75 50.67 C 293.97 50.92 294.40 51.42 294.61 51.66 C 295.69 52.86 296.77 54.08 298.09 55.03 C 300.24 55.31 302.36 54.56 304.47 54.24 C 305.24 55.05 306.03 55.86 306.82 56.66 C 305.26 56.89 303.69 57.08 302.13 57.30 C 304.33 57.66 306.52 58.05 308.70 58.49 C 306.35 59.33 303.95 60.01 301.53 60.60 C 303.93 65.92 307.49 71.03 307.61 77.06 C 307.98 81.74 307.97 86.44 307.79 91.13 C 287.83 93.53 267.71 94.58 247.61 94.62 C 257.20 93.18 267.78 94.77 276.31 89.25 C 272.68 89.19 269.05 89.19 265.43 89.13 C 269.30 86.93 273.26 84.89 277.19 82.78 C 272.97 82.33 268.75 81.91 264.53 81.50 C 267.56 79.71 270.57 77.91 273.54 76.03 C 269.95 75.14 266.35 74.31 262.75 73.49 C 266.73 71.68 270.71 69.88 274.67 68.03 C 269.50 67.74 264.32 67.53 259.15 67.24 C 263.93 63.70 268.90 60.43 273.68 56.88 C 268.02 57.10 262.38 57.62 256.73 57.99 C 260.56 54.98 264.44 52.01 268.17 48.87 C 262.89 49.87 257.74 51.44 252.53 52.73 C 254.26 50.47 256.02 48.24 257.78 46.00 C 254.31 47.38 250.76 48.66 247.60 50.69 C 240.82 54.48 236.23 61.15 233.09 68.08 C 230.27 76.73 230.42 86.05 230.68 95.05 C 227.78 98.20 224.77 101.25 221.95 104.47 C 237.31 104.76 252.67 103.54 268.03 103.15 C 278.83 102.29 289.56 100.69 300.33 99.51 C 298.61 99.08 296.88 98.65 295.17 98.23 C 297.35 97.75 299.54 97.29 301.74 96.84 C 300.85 96.46 299.08 95.71 298.19 95.33 C 301.67 94.08 305.34 93.51 309.02 93.20 C 310.43 96.20 311.96 99.18 312.78 102.40 C 296.82 102.85 280.84 103.30 264.92 104.50 C 255.50 104.57 246.10 105.12 236.70 105.56 C 231.18 105.33 224.97 107.78 220.10 104.22 C 221.93 102.19 223.76 100.16 225.61 98.14 C 226.71 96.95 227.83 95.78 228.96 94.61 C 229.10 90.53 229.16 86.45 229.19 82.38 C 193.37 86.10 157.54 89.78 121.72 93.47 C 121.09 88.60 120.04 83.79 118.30 79.19 C 156.03 76.42 193.76 73.70 231.47 70.70 C 231.61 69.91 231.87 68.33 232.00 67.54 C 194.63 70.72 157.25 73.84 119.87 77.03 C 118.06 77.35 116.36 76.71 114.75 75.96 C 120.45 74.89 126.27 74.77 132.03 74.19 C 165.47 71.29 198.94 68.72 232.35 65.62 C 232.72 65.08 233.47 63.99 233.84 63.45 C 237.77 55.89 243.79 49.42 251.49 45.63 Z" />
<path fill="#f5e5c1" opacity="1.00" d=" M 45.87 42.97 C 46.33 43.03 47.24 43.16 47.70 43.23 C 48.47 43.96 49.11 46.59 47.63 46.69 C 47.04 45.48 46.17 44.22 45.87 42.97 Z" />
<path fill="#f5e5c1" opacity="1.00" d=" M 49.10 50.16 C 49.48 49.96 50.25 49.54 50.64 49.34 C 55.94 55.10 61.10 60.99 66.47 66.70 C 68.47 66.01 70.47 65.33 72.48 64.67 C 78.63 62.67 84.78 60.65 90.94 58.68 C 91.20 59.21 91.73 60.27 91.99 60.80 C 83.13 63.14 74.45 66.08 65.66 68.65 C 60.13 62.49 54.66 56.29 49.10 50.16 Z" />
<path fill="#f5e5c1" opacity="1.00" d=" M 178.52 56.72 C 197.24 55.27 215.98 53.89 234.69 52.31 C 235.12 52.69 235.97 53.45 236.40 53.83 C 196.57 56.52 156.79 60.01 116.98 62.89 C 115.36 62.94 113.73 62.94 112.11 62.87 C 114.27 61.81 116.66 61.45 119.03 61.30 C 127.27 60.73 135.49 60.07 143.72 59.43 C 155.31 58.48 166.91 57.59 178.52 56.72 Z" />
<path fill="#f5e5c1" opacity="1.00" d=" M 308.41 55.25 C 310.27 54.86 312.17 54.55 313.96 53.85 C 314.25 53.74 314.82 53.52 315.11 53.42 C 316.30 54.99 317.48 56.58 318.66 58.16 C 320.27 58.31 321.87 58.49 323.48 58.68 C 322.24 58.81 319.75 59.07 318.50 59.21 C 321.08 59.62 323.67 60.12 326.07 61.21 C 324.05 61.85 322.00 62.36 319.96 62.90 C 320.28 64.38 320.67 65.86 320.99 67.35 C 318.57 67.78 316.14 68.21 313.72 68.65 C 312.99 63.85 311.85 58.89 308.41 55.25 Z" />
<path fill="#f5e5c1" opacity="1.00" d=" M 323.79 55.68 C 325.09 55.56 326.39 55.44 327.70 55.32 C 331.44 58.20 334.23 62.18 334.66 66.99 C 332.46 67.21 330.27 67.44 328.08 67.67 C 327.92 64.94 328.18 62.10 327.24 59.49 C 326.26 58.07 324.96 56.92 323.79 55.68 Z" />
<path fill="#f5e5c1" opacity="1.00" d=" M 331.30 55.05 C 334.42 53.89 336.36 56.89 338.04 58.96 C 340.11 61.42 339.99 64.75 340.34 67.75 C 339.12 67.68 337.90 67.54 336.70 67.35 C 335.94 65.09 335.93 62.68 335.64 60.34 C 334.15 58.61 332.67 56.87 331.30 55.05 Z" />
<path fill="#f5e5c1" opacity="1.00" d=" M 92.87 62.51 C 95.68 61.56 98.49 60.62 101.31 59.67 C 102.97 65.16 104.37 70.73 106.17 76.17 L 104.81 76.49 C 102.99 71.73 101.63 66.82 100.01 62.00 C 89.24 65.57 78.43 69.02 67.67 72.63 C 65.02 73.53 62.34 74.35 59.57 74.81 C 60.87 73.56 62.46 72.68 64.19 72.17 C 73.78 69.05 83.31 65.75 92.87 62.51 Z" />
<path fill="#f5e5c1" opacity="1.00" d=" M 88.95 71.70 C 90.09 73.02 91.01 74.57 92.39 75.68 C 93.68 75.87 94.98 76.03 96.29 76.17 C 94.67 76.67 92.97 76.65 91.30 76.67 C 90.51 75.01 89.71 73.36 88.95 71.70 Z" />
<path fill="#f5e5c1" opacity="1.00" d=" M 67.44 76.00 C 68.48 75.77 69.53 75.59 70.59 75.44 C 71.28 76.49 71.83 77.63 72.41 78.76 C 70.83 77.69 69.16 76.79 67.44 76.00 Z" />
<path fill="#6c4b38" opacity="1.00" d=" M 320.29 83.91 C 322.99 84.04 325.42 82.89 327.63 81.46 C 329.50 85.61 331.57 89.66 333.76 93.65 C 326.97 92.45 320.25 90.92 313.50 89.52 C 315.31 87.26 316.84 83.63 320.29 83.91 Z" />
<path fill="#f5e5c1" opacity="1.00" d=" M 44.75 90.12 C 49.17 89.31 53.58 88.38 58.00 87.52 C 59.71 90.06 60.33 94.14 63.83 94.77 C 66.70 95.69 69.60 96.54 72.44 97.56 C 64.30 97.61 56.16 97.83 48.03 98.04 C 46.93 95.40 45.83 92.76 44.75 90.12 Z" />
<path fill="#f5722c" opacity="1.00" d=" M 308.74 88.81 C 310.33 89.02 311.92 89.27 313.50 89.52 C 320.25 90.92 326.97 92.45 333.76 93.65 C 337.52 94.42 341.48 94.99 344.74 97.18 C 353.68 103.02 362.82 108.55 371.97 114.05 C 374.65 115.64 377.12 117.58 379.43 119.68 C 384.05 124.07 389.13 127.96 393.60 132.50 C 397.70 137.20 400.60 142.79 404.32 147.78 C 407.39 151.84 408.14 156.97 409.57 161.72 C 410.56 165.05 411.38 168.43 411.96 171.86 C 412.13 172.11 412.48 172.62 412.65 172.87 C 412.76 173.31 412.99 174.18 413.11 174.61 C 413.83 177.29 414.71 180.07 414.01 182.87 C 412.57 189.66 411.74 196.81 408.01 202.83 C 405.93 206.16 404.93 210.81 400.84 212.28 C 395.58 214.64 390.25 216.87 385.01 219.28 C 381.47 220.86 377.90 222.79 373.92 222.84 C 368.05 223.03 362.18 223.34 356.32 223.19 C 362.64 219.52 370.54 219.04 376.18 214.14 C 383.07 208.35 390.01 202.62 397.02 196.97 C 381.67 204.05 366.68 211.90 351.36 219.05 C 361.53 207.52 372.03 196.28 382.17 184.73 C 368.99 196.69 356.61 209.52 343.65 221.72 C 339.95 224.68 335.51 226.54 331.16 228.32 C 320.35 232.06 309.27 235.04 298.52 238.99 C 295.31 240.23 292.13 241.56 288.93 242.84 C 284.09 244.70 279.35 246.81 274.50 248.65 C 266.05 251.62 257.24 253.36 248.66 255.91 C 245.59 256.70 242.31 258.10 239.19 256.76 C 233.87 254.86 228.92 252.11 223.75 249.85 C 217.68 246.98 211.56 244.19 205.49 241.30 C 192.58 235.33 179.69 229.32 166.78 223.34 C 161.41 221.11 161.34 214.23 157.59 210.49 C 152.73 208.11 147.34 207.06 142.26 205.24 C 141.39 204.95 140.51 204.66 139.64 204.37 C 139.52 203.34 139.41 202.31 139.29 201.29 C 138.87 196.21 137.36 190.99 138.95 185.98 C 141.09 178.76 142.97 171.47 145.09 164.24 C 149.34 161.43 153.55 158.54 157.72 155.60 C 158.35 155.16 159.60 154.29 160.23 153.85 C 166.49 155.48 172.62 157.59 178.87 159.30 C 183.22 159.42 187.77 158.34 191.94 160.05 C 195.99 161.53 199.98 163.16 204.05 164.61 C 205.93 165.31 207.83 166.00 209.74 166.65 C 214.95 168.40 220.24 169.90 225.50 171.52 C 230.63 172.91 233.80 177.51 237.80 180.68 C 246.95 178.54 255.64 174.96 264.39 171.62 C 266.87 170.71 269.34 169.80 271.82 168.90 C 276.39 167.23 281.11 165.93 285.43 163.67 C 288.48 161.89 292.11 161.13 294.93 159.00 C 298.97 153.94 301.66 147.86 306.26 143.22 C 309.27 140.25 311.80 136.72 315.25 134.21 C 327.49 132.81 339.88 132.37 352.19 131.54 C 341.84 130.11 331.39 129.63 320.99 128.64 C 318.97 128.65 316.29 127.77 315.03 129.93 C 308.90 137.50 302.73 145.05 296.61 152.64 C 293.88 156.03 289.99 158.12 286.41 160.47 C 287.09 156.43 287.87 152.40 288.82 148.42 C 291.01 138.87 294.62 129.73 297.51 120.39 C 298.84 115.53 299.39 110.49 300.46 105.57 C 304.90 105.15 309.37 104.59 313.58 103.05 L 313.89 103.94 C 313.89 102.33 313.89 100.72 313.90 99.11 L 312.95 100.06 C 311.01 96.54 309.24 92.85 308.74 88.81 Z" />
<path fill="#6c4b38" opacity="1.00" d=" M 499.64 111.68 C 503.65 104.89 507.58 98.06 512.00 91.52 L 512.00 130.32 C 500.91 145.58 490.96 161.64 479.95 176.96 C 465.25 199.14 449.90 220.88 435.31 243.13 C 433.41 237.31 431.57 231.47 429.64 225.65 C 435.59 216.81 440.77 207.48 446.50 198.50 C 464.05 169.46 481.77 140.52 499.64 111.68 Z" />
<path fill="#f5e5c1" opacity="1.00" d=" M 36.57 94.42 C 37.72 94.13 38.87 93.84 40.02 93.56 C 40.67 95.70 41.33 97.84 41.98 99.99 C 40.66 100.33 39.34 100.67 38.02 101.01 C 37.54 98.81 37.06 96.62 36.57 94.42 Z" />
<path fill="#6c4b38" opacity="1.00" d=" M 217.24 99.14 C 220.01 98.64 222.80 98.32 225.61 98.14 C 223.76 100.16 221.93 102.19 220.10 104.22 C 224.97 107.78 231.18 105.33 236.70 105.56 C 236.22 107.23 235.79 108.92 235.32 110.60 C 236.33 111.16 237.35 111.71 238.37 112.26 C 233.81 114.46 229.41 117.17 224.37 118.16 C 221.83 115.99 219.17 113.95 216.50 111.93 C 217.07 107.69 217.27 103.41 217.24 99.14 Z" />
<path fill="#f5e5c1" opacity="1.00" d=" M 235.32 110.60 C 240.42 112.29 245.15 108.93 250.14 108.36 C 247.38 109.97 244.55 111.46 241.75 112.99 C 241.10 112.85 239.79 112.57 239.14 112.43 C 238.95 112.38 238.56 112.30 238.37 112.26 C 237.35 111.71 236.33 111.16 235.32 110.60 Z" />
<path fill="#6c4b38" opacity="1.00" d=" M 143.27 112.42 C 149.03 111.62 154.74 110.48 160.42 109.26 C 165.55 124.52 170.66 139.79 175.81 155.05 C 176.35 156.67 177.69 157.80 178.71 159.11 L 178.87 159.30 C 172.62 157.59 166.49 155.48 160.23 153.85 C 159.60 154.29 158.35 155.16 157.72 155.60 C 156.95 152.31 156.99 148.90 156.35 145.60 C 152.36 138.61 146.94 130.48 138.00 130.18 C 138.07 129.40 138.21 127.84 138.28 127.05 C 139.52 125.99 140.78 124.93 142.02 123.87 C 142.11 120.02 142.47 116.18 143.27 112.42 Z" />
<path fill="#f5e5c1" opacity="1.00" d=" M 257.33 108.52 C 259.70 109.39 262.28 109.90 264.42 111.32 C 266.35 113.80 266.56 116.99 265.61 119.91 C 265.07 117.79 264.69 115.65 264.38 113.49 C 262.08 111.76 259.70 110.15 257.33 108.52 Z" />
<path fill="#f5e5c1" opacity="1.00" d=" M 212.94 114.34 C 214.11 113.52 215.31 112.73 216.50 111.93 C 219.17 113.95 221.83 115.99 224.37 118.16 C 222.11 121.32 219.77 124.45 218.04 127.94 C 215.33 133.63 213.67 139.79 210.45 145.23 C 210.10 145.47 209.40 145.94 209.05 146.18 C 204.03 147.93 198.76 148.74 193.61 149.98 C 198.03 150.72 202.35 149.28 206.73 148.99 C 207.25 151.53 207.76 154.07 208.16 156.63 C 206.16 157.45 204.17 158.28 202.18 159.10 C 202.51 159.42 203.17 160.05 203.50 160.36 C 203.68 161.77 203.86 163.19 204.05 164.61 C 199.98 163.16 195.99 161.53 191.94 160.05 C 187.77 158.34 183.22 159.42 178.87 159.30 L 178.71 159.11 C 178.36 153.35 177.25 147.67 176.86 141.92 C 177.07 137.90 178.69 134.12 179.72 130.26 C 177.76 129.84 175.80 129.43 173.85 129.03 C 172.54 125.27 174.07 121.57 175.31 118.04 C 178.12 117.81 180.93 117.57 183.75 117.32 C 184.20 118.49 184.65 119.66 185.10 120.83 C 188.63 122.49 192.28 123.85 196.00 125.00 C 196.00 127.34 195.99 129.69 196.00 132.03 C 193.38 131.93 190.76 131.81 188.15 131.72 C 188.30 133.48 188.45 135.24 188.62 136.99 C 195.11 137.71 201.61 136.90 207.98 135.67 C 207.80 134.05 207.60 132.43 207.43 130.81 C 209.81 130.01 211.54 128.24 213.00 126.28 C 211.90 125.19 210.75 124.12 209.84 122.87 C 210.66 119.96 212.29 117.32 212.94 114.34 Z" />
<path fill="#985834" opacity="1.00" d=" M 238.37 112.26 C 238.56 112.30 238.95 112.38 239.14 112.43 C 239.04 113.33 238.86 115.13 238.77 116.03 C 240.16 117.71 241.55 119.41 243.06 121.00 C 243.61 121.23 244.72 121.71 245.27 121.94 C 244.52 125.09 244.36 128.32 244.52 131.54 C 244.53 133.63 244.35 135.73 244.58 137.82 C 245.97 140.84 248.38 143.25 250.30 145.94 C 255.36 145.97 260.88 146.88 265.31 143.80 C 270.88 144.09 276.50 143.94 282.02 144.85 C 284.35 145.05 285.81 147.04 287.45 148.45 C 287.80 148.44 288.48 148.43 288.82 148.42 C 287.87 152.40 287.09 156.43 286.41 160.47 C 285.76 161.42 285.56 162.55 285.43 163.67 C 281.11 165.93 276.39 167.23 271.82 168.90 C 269.57 167.86 267.31 166.84 264.99 165.97 C 264.00 165.61 263.01 165.25 262.03 164.90 C 261.23 162.75 260.48 160.59 259.69 158.44 C 254.11 159.23 248.68 157.60 243.89 154.80 C 243.83 153.22 243.80 151.63 243.74 150.05 C 241.48 152.38 239.46 155.01 236.73 156.82 C 232.87 157.61 228.90 156.95 224.99 157.22 C 219.63 157.53 214.31 158.27 208.94 158.34 C 208.41 154.60 207.83 150.85 207.83 147.06 C 208.14 146.84 208.75 146.40 209.05 146.18 C 209.40 145.94 210.10 145.47 210.45 145.23 C 213.67 139.79 215.33 133.63 218.04 127.94 C 219.77 124.45 222.11 121.32 224.37 118.16 C 229.41 117.17 233.81 114.46 238.37 112.26 Z" />
<path fill="#f5e5c1" opacity="1.00" d=" M 243.06 121.00 C 249.54 119.79 254.53 115.05 260.88 113.55 C 255.51 116.04 251.37 121.27 245.27 121.94 C 244.72 121.71 243.61 121.23 243.06 121.00 Z" />
<path fill="#6c4b38" opacity="1.00" d=" M 98.86 117.21 C 100.78 117.21 102.70 117.12 104.61 117.36 C 106.65 119.86 107.45 123.09 109.15 125.80 C 110.45 127.69 112.50 128.88 113.96 130.63 C 114.51 132.58 114.38 134.64 114.52 136.64 C 112.25 136.62 109.98 136.51 107.72 136.37 C 105.24 129.77 101.69 123.66 98.86 117.21 Z" />
<path fill="#3e3e3e" opacity="1.00" d=" M 315.03 129.93 C 316.29 127.77 318.97 128.65 320.99 128.64 C 331.39 129.63 341.84 130.11 352.19 131.54 C 339.88 132.37 327.49 132.81 315.25 134.21 C 311.80 136.72 309.27 140.25 306.26 143.22 C 301.66 147.86 298.97 153.94 294.93 159.00 C 292.11 161.13 288.48 161.89 285.43 163.67 C 285.56 162.55 285.76 161.42 286.41 160.47 C 289.99 158.12 293.88 156.03 296.61 152.64 C 302.73 145.05 308.90 137.50 315.03 129.93 Z" />
<path fill="#f5e5c1" opacity="1.00" d=" M 138.00 130.18 C 146.94 130.48 152.36 138.61 156.35 145.60 C 156.99 148.90 156.95 152.31 157.72 155.60 C 153.55 158.54 149.34 161.43 145.09 164.24 C 142.97 171.47 141.09 178.76 138.95 185.98 C 137.36 190.99 138.87 196.21 139.29 201.29 C 131.72 200.24 123.78 200.21 116.88 196.47 C 115.12 195.58 112.99 194.88 112.14 192.92 C 109.93 188.66 107.33 184.51 106.05 179.85 C 105.85 175.22 105.25 170.61 105.12 165.98 C 105.14 160.81 105.81 155.67 105.95 150.51 C 104.42 149.93 102.90 149.35 101.38 148.78 C 101.65 144.53 101.99 140.28 102.34 136.04 C 104.13 136.15 105.93 136.26 107.72 136.37 C 109.98 136.51 112.25 136.62 114.52 136.64 C 122.34 136.63 129.97 134.68 137.69 133.63 C 137.79 132.48 137.89 131.33 138.00 130.18 Z" />
<path fill="#f5e5c1" opacity="1.00" d=" M 245.38 131.63 C 248.63 131.67 251.88 131.45 255.11 131.09 C 252.55 132.11 249.98 133.09 247.37 133.96 C 246.70 133.18 246.04 132.40 245.38 131.63 Z" />
<path fill="#f5e5c1" opacity="1.00" d=" M 266.11 141.20 C 272.37 138.42 277.78 134.15 283.61 130.62 C 277.85 135.46 272.17 140.56 265.31 143.80 C 260.88 146.88 255.36 145.97 250.30 145.94 C 248.38 143.25 245.97 140.84 244.58 137.82 C 244.35 135.73 244.53 133.63 244.52 131.54 C 245.39 136.04 247.17 140.32 250.37 143.68 C 252.59 143.86 254.81 144.07 257.04 144.15 C 260.35 144.47 263.20 142.45 266.11 141.20 Z" />
<path fill="#3e3e3e" opacity="1.00" d=" M 479.95 176.96 C 490.96 161.64 500.91 145.58 512.00 130.32 L 512.00 215.47 C 497.78 227.49 482.82 238.61 468.43 250.42 C 458.81 257.90 449.63 265.97 439.66 272.97 C 438.60 269.18 437.57 265.37 436.79 261.50 C 438.07 260.91 439.36 260.31 440.65 259.72 C 438.92 254.17 437.09 248.66 435.31 243.13 C 449.90 220.88 465.25 199.14 479.95 176.96 Z" />
<path fill="#3e3e3e" opacity="1.00" d=" M 136.93 136.01 C 139.22 135.64 141.16 134.35 143.06 133.10 C 145.90 136.85 148.72 140.61 151.55 144.37 C 153.92 147.24 153.38 151.23 153.99 154.68 C 150.31 156.88 146.66 159.15 142.96 161.32 C 133.97 158.45 124.99 155.53 116.01 152.66 C 116.21 151.23 116.42 149.81 116.62 148.39 C 119.41 147.25 122.21 146.14 125.00 145.00 C 123.30 143.79 121.71 142.38 119.83 141.46 C 116.47 140.71 113.00 140.58 109.64 139.79 C 118.72 138.38 127.96 138.02 136.93 136.01 Z" />
<path fill="#3e3e3e" opacity="1.00" d=" M 319.96 138.64 C 328.24 137.26 336.62 136.47 344.99 135.84 C 350.24 136.92 355.26 139.00 360.29 140.84 C 346.83 140.36 333.42 138.92 319.96 138.64 Z" />
<path fill="#3e3e3e" opacity="1.00" d=" M 193.61 149.98 C 198.76 148.74 204.03 147.93 209.05 146.18 C 208.75 146.40 208.14 146.84 207.83 147.06 C 207.83 150.85 208.41 154.60 208.94 158.34 C 209.29 161.10 209.51 163.87 209.74 166.65 C 207.83 166.00 205.93 165.31 204.05 164.61 C 203.86 163.19 203.68 161.77 203.50 160.36 C 203.17 160.05 202.51 159.42 202.18 159.10 C 204.17 158.28 206.16 157.45 208.16 156.63 C 207.76 154.07 207.25 151.53 206.73 148.99 C 202.35 149.28 198.03 150.72 193.61 149.98 Z" />
<path fill="#6c4b38" opacity="1.00" d=" M 236.73 156.82 C 239.46 155.01 241.48 152.38 243.74 150.05 C 243.80 151.63 243.83 153.22 243.89 154.80 C 248.68 157.60 254.11 159.23 259.69 158.44 C 260.48 160.59 261.23 162.75 262.03 164.90 C 263.01 165.25 264.00 165.61 264.99 165.97 C 264.79 167.85 264.60 169.74 264.39 171.62 C 255.64 174.96 246.95 178.54 237.80 180.68 C 233.80 177.51 230.63 172.91 225.50 171.52 C 220.24 169.90 214.95 168.40 209.74 166.65 C 209.51 163.87 209.29 161.10 208.94 158.34 C 214.31 158.27 219.63 157.53 224.99 157.22 C 228.90 156.95 232.87 157.61 236.73 156.82 Z" />
<path fill="#6c4b38" opacity="1.00" d=" M 0.00 159.24 C 5.77 164.41 10.49 170.59 16.08 175.95 C 21.60 181.43 26.96 187.06 32.11 192.88 C 38.75 199.61 45.50 206.24 51.63 213.44 C 63.81 225.26 75.01 238.02 86.98 250.04 C 93.30 257.01 99.82 263.80 106.48 270.45 C 108.33 272.31 110.36 274.03 111.82 276.24 C 110.91 279.77 109.28 283.08 108.42 286.63 C 101.67 280.98 94.47 275.90 87.48 270.56 C 65.97 254.39 44.38 238.33 22.91 222.11 C 15.19 216.61 7.99 210.37 0.00 205.24 L 0.00 159.24 Z" />
<path fill="#3e3e3e" opacity="1.00" d=" M 264.99 165.97 C 267.31 166.84 269.57 167.86 271.82 168.90 C 269.34 169.80 266.87 170.71 264.39 171.62 C 264.60 169.74 264.79 167.85 264.99 165.97 Z" />
<path fill="#f5e5c1" opacity="1.00" d=" M 413.99 175.94 C 414.12 175.02 414.37 174.14 414.75 173.29 C 415.41 175.78 416.88 177.90 418.32 180.00 C 417.87 184.65 417.73 189.44 415.90 193.81 C 413.60 199.63 412.00 205.73 409.40 211.42 C 406.04 214.43 402.72 217.85 398.32 219.28 C 390.27 222.15 382.36 225.41 374.27 228.14 C 365.22 229.12 356.08 229.16 347.01 229.86 C 343.29 230.31 339.83 228.65 336.36 227.66 C 338.17 226.56 339.88 225.19 341.90 224.49 C 346.64 224.43 351.40 224.87 356.14 224.32 C 362.46 224.32 368.82 224.39 375.11 223.80 C 385.06 220.40 394.75 216.14 403.84 210.83 C 405.39 209.67 406.17 207.80 407.24 206.23 C 409.24 202.78 411.94 199.54 412.42 195.44 C 413.39 189.00 416.31 182.43 413.99 175.94 Z" />
<path fill="#6c4b38" opacity="1.00" d=" M 142.26 205.24 C 147.34 207.06 152.73 208.11 157.59 210.49 C 161.34 214.23 161.41 221.11 166.78 223.34 C 179.69 229.32 192.58 235.33 205.49 241.30 C 205.74 243.53 206.16 245.73 206.65 247.92 C 192.44 244.14 177.09 243.24 162.91 247.60 C 155.90 233.55 148.69 219.58 142.26 205.24 Z" />
<path fill="#f5e5c1" opacity="1.00" d=" M 416.51 210.14 C 417.45 210.48 418.39 210.83 419.34 211.18 C 418.76 212.67 418.20 214.17 417.64 215.66 C 416.10 216.32 414.55 216.97 413.03 217.63 C 414.21 215.15 415.39 212.66 416.51 210.14 Z" />
<path fill="#6c4b38" opacity="1.00" d=" M 468.43 250.42 C 482.82 238.61 497.78 227.49 512.00 215.47 L 512.00 227.30 C 503.33 232.72 495.30 239.08 486.69 244.60 C 471.33 255.23 456.06 266.02 440.51 276.37 C 440.22 275.23 439.95 274.10 439.66 272.97 C 449.63 265.97 458.81 257.90 468.43 250.42 Z" />
<path fill="#f5e5c1" opacity="1.00" d=" M 378.14 229.75 C 391.56 225.66 405.05 221.72 418.63 218.17 C 422.27 220.70 425.97 223.16 429.64 225.65 C 431.57 231.47 433.41 237.31 435.31 243.13 C 437.09 248.66 438.92 254.17 440.65 259.72 C 439.36 260.31 438.07 260.91 436.79 261.50 C 437.57 265.37 438.60 269.18 439.66 272.97 C 439.95 274.10 440.22 275.23 440.51 276.37 C 442.08 282.88 443.88 289.34 445.49 295.85 C 445.72 296.78 445.95 297.71 446.20 298.65 C 447.27 302.65 448.33 306.66 449.34 310.68 C 447.89 311.00 446.46 311.33 445.03 311.66 C 446.02 310.88 447.00 310.10 448.00 309.33 C 445.21 298.96 442.34 288.62 439.63 278.24 C 437.19 278.94 434.76 279.65 432.32 280.33 C 430.96 277.12 429.59 273.90 428.22 270.70 C 431.11 269.88 434.01 269.09 436.92 268.35 C 436.15 265.57 435.39 262.80 434.65 260.02 C 435.75 259.56 436.86 259.11 437.98 258.66 C 434.60 248.00 431.09 237.38 427.69 226.72 C 413.46 229.82 399.24 232.92 385.01 236.00 C 382.69 233.94 380.40 231.87 378.14 229.75 Z" />
<path fill="#3e3e3e" opacity="1.00" d=" M 486.69 244.60 C 495.30 239.08 503.33 232.72 512.00 227.30 L 512.00 264.07 C 489.89 274.77 467.82 285.60 445.49 295.85 C 443.88 289.34 442.08 282.88 440.51 276.37 C 456.06 266.02 471.33 255.23 486.69 244.60 Z" />
<path fill="#6c4b38" opacity="1.00" d=" M 288.93 242.84 C 292.13 241.56 295.31 240.23 298.52 238.99 C 299.02 240.16 299.52 241.34 300.02 242.51 C 298.74 247.47 297.17 252.34 295.82 257.28 C 296.37 257.13 297.47 256.84 298.03 256.70 C 295.82 258.28 293.54 259.77 291.19 261.13 C 291.04 255.09 291.40 249.06 291.09 243.03 C 290.55 242.98 289.47 242.88 288.93 242.84 Z" />
<path fill="#f5722c" opacity="1.00" d=" M 300.02 242.51 C 302.42 241.21 304.83 239.93 307.25 238.66 C 311.93 241.55 316.61 244.51 321.68 246.70 C 313.26 248.52 305.08 251.70 298.03 256.70 C 297.47 256.84 296.37 257.13 295.82 257.28 C 297.17 252.34 298.74 247.47 300.02 242.51 Z" />
<path fill="#f5722c" opacity="1.00" d=" M 365.06 251.04 C 370.21 250.06 375.24 248.51 380.46 247.94 C 381.10 252.71 381.86 257.45 382.70 262.19 C 377.09 258.07 371.41 253.95 365.06 251.04 Z" />
<path fill="#6c4b38" opacity="1.00" d=" M 248.66 255.91 C 257.24 253.36 266.05 251.62 274.50 248.65 C 275.28 256.66 276.51 264.61 277.37 272.61 C 277.81 275.54 275.46 277.77 273.95 279.99 C 269.80 285.10 267.22 291.19 263.75 296.72 C 260.58 296.33 257.40 295.96 254.23 295.63 C 251.64 283.70 245.83 272.40 236.94 263.95 C 234.05 261.14 230.59 259.06 227.48 256.53 C 225.33 254.93 224.71 252.20 223.75 249.85 C 228.92 252.11 233.87 254.86 239.19 256.76 C 242.31 258.10 245.59 256.70 248.66 255.91 Z" />
<path fill="#f5e5c1" opacity="1.00" d=" M 422.79 253.62 C 426.38 253.18 430.31 250.43 433.78 252.50 C 430.45 253.55 427.09 254.62 423.63 255.13 C 423.42 254.76 423.00 254.00 422.79 253.62 Z" />
<path fill="#f5722c" opacity="1.00" d=" M 158.39 260.47 C 174.90 253.91 193.76 254.73 210.34 260.60 C 222.51 264.82 233.20 273.56 238.88 285.22 C 246.11 300.03 247.31 318.51 239.23 333.25 C 231.99 346.54 219.37 355.81 206.02 362.35 C 215.31 366.17 223.57 373.43 227.03 383.03 C 230.04 391.11 229.24 400.19 226.25 408.16 C 221.84 419.62 211.66 428.17 200.27 432.28 C 178.64 440.39 152.37 434.30 136.91 417.01 C 141.00 408.55 145.33 400.22 149.44 391.77 C 158.57 397.93 168.68 403.92 180.04 403.95 C 186.03 403.70 192.84 401.39 195.67 395.67 C 197.25 392.85 196.22 389.54 195.04 386.79 C 192.91 382.16 188.29 379.24 183.60 377.69 C 174.47 374.83 164.78 375.13 155.33 375.33 C 155.36 366.14 154.92 356.97 155.04 347.79 C 167.32 347.88 180.19 346.36 190.88 339.86 C 196.35 336.55 200.87 330.69 200.44 324.01 C 199.89 318.46 196.99 312.58 191.66 310.22 C 186.67 307.97 180.92 308.53 175.73 309.77 C 163.46 312.91 152.74 320.19 143.17 328.26 C 135.60 314.34 127.86 300.50 120.40 286.53 C 119.39 285.01 121.46 284.17 122.26 283.18 C 133.04 273.86 144.99 265.55 158.39 260.47 Z" />
<path fill="#f5722c" opacity="1.00" d=" M 326.55 256.70 C 338.06 254.86 350.16 256.16 360.72 261.23 C 378.80 269.70 392.21 286.13 399.71 304.37 C 408.21 324.99 409.93 348.23 405.17 369.99 C 401.06 388.45 391.85 406.07 377.66 418.75 C 366.33 428.90 351.37 435.52 336.00 435.03 C 319.51 435.24 303.68 427.45 292.22 415.89 C 278.11 402.04 269.67 383.19 266.50 363.84 C 262.70 339.94 266.48 314.58 278.48 293.44 C 288.63 275.45 305.78 260.36 326.55 256.70 Z" />
<path fill="#f5e5c1" opacity="1.00" d=" M 399.23 258.93 C 402.61 258.47 406.26 255.73 409.54 257.81 C 406.58 258.81 403.63 260.08 400.50 260.43 C 400.06 259.93 399.64 259.43 399.23 258.93 Z" />
<path fill="#6c4b38" opacity="1.00" d=" M 445.49 295.85 C 467.82 285.60 489.89 274.77 512.00 264.07 L 512.00 267.43 C 495.33 275.32 478.55 282.98 461.84 290.78 C 456.58 293.32 450.96 295.17 446.20 298.65 C 445.95 297.71 445.72 296.78 445.49 295.85 Z" />
<path fill="#f5e5c1" opacity="1.00" d=" M 405.09 276.30 C 407.72 275.55 410.35 274.78 412.98 273.99 C 413.88 277.31 414.76 280.64 415.65 283.97 C 413.26 284.76 410.86 285.56 408.48 286.39 C 407.23 283.06 406.16 279.68 405.09 276.30 Z" />
<path fill="#6c4b38" opacity="1.00" d=" M 0.00 277.18 C 7.93 280.21 16.27 282.00 24.28 284.83 C 56.52 294.42 88.59 304.61 120.81 314.26 C 123.24 314.71 124.27 316.97 125.17 318.99 C 120.02 318.02 115.08 316.24 110.04 314.84 C 73.32 304.51 36.74 293.71 0.00 283.44 L 0.00 277.18 Z" />
<path fill="#3e3e3e" opacity="1.00" d=" M 331.42 310.66 C 340.20 308.82 349.46 312.11 355.85 318.22 C 363.71 325.39 368.01 335.72 369.63 346.08 C 371.41 358.14 370.50 370.99 364.81 381.95 C 360.11 391.32 351.96 399.57 341.58 402.23 C 333.35 404.22 324.70 400.92 318.48 395.52 C 309.08 387.46 304.10 375.20 303.12 363.05 C 301.99 350.08 304.10 336.40 311.22 325.31 C 315.81 318.18 322.93 312.27 331.42 310.66 Z" />
<path fill="#f5722c" opacity="1.00" d=" M 415.87 319.44 C 423.11 317.39 430.27 315.09 437.49 313.00 C 438.47 320.22 439.97 327.35 440.89 334.57 C 433.45 335.44 426.03 336.44 418.61 337.42 C 417.99 331.38 416.88 325.42 415.87 319.44 Z" />
<path fill="#f5e5c1" opacity="1.00" d=" M 238.33 383.48 C 245.46 383.50 252.60 383.13 259.72 383.47 C 261.04 384.47 260.96 386.65 261.67 388.12 C 254.26 388.09 246.85 388.19 239.44 388.07 C 239.06 386.53 238.70 385.01 238.33 383.48 Z" />
<path fill="#f5e5c1" opacity="1.00" d=" M 323.47 385.52 C 331.34 386.20 339.21 386.84 347.09 387.45 C 343.84 389.73 340.18 392.02 336.01 391.08 C 331.16 391.18 326.86 388.81 323.47 385.52 Z" />
<path fill="#f5e5c1" opacity="1.00" d=" M 162.48 387.28 C 169.63 387.72 177.54 385.20 183.79 389.95 C 179.51 390.15 175.24 390.51 170.97 390.67 C 167.88 390.38 165.26 388.48 162.48 387.28 Z" />
<path fill="#f5e5c1" opacity="1.00" d=" M 124.02 392.48 C 128.57 391.60 133.22 391.46 137.79 390.68 C 137.07 391.93 136.51 393.33 135.52 394.41 C 129.29 395.74 122.90 396.01 116.64 397.10 C 101.42 399.68 86.21 402.71 71.56 407.68 C 64.85 410.10 58.03 412.73 52.40 417.23 C 49.79 419.45 47.01 422.36 47.22 426.06 C 47.24 430.09 50.41 433.16 53.39 435.45 C 60.91 440.78 69.77 443.76 78.50 446.44 C 105.03 454.02 132.51 457.49 159.89 460.22 C 196.79 463.38 233.82 465.37 270.87 464.47 C 303.22 463.35 335.62 461.58 367.76 457.50 C 389.18 454.62 410.68 451.16 431.25 444.32 C 439.09 441.46 447.37 438.44 453.23 432.23 C 456.24 429.30 456.80 424.13 454.15 420.79 C 450.76 416.32 445.62 413.66 440.67 411.27 C 429.41 406.29 417.40 403.33 405.43 400.62 C 406.21 399.10 407.00 397.59 407.79 396.08 C 429.13 400.38 450.59 405.40 470.41 414.63 C 478.29 418.56 486.47 422.98 491.68 430.33 C 495.34 435.20 495.62 442.36 492.16 447.42 C 487.50 454.44 480.06 458.93 472.72 462.71 C 456.96 470.57 439.82 475.19 422.76 479.25 C 384.08 488.01 344.47 491.84 304.93 494.02 C 245.94 496.77 186.63 494.87 128.13 486.53 C 102.30 482.58 76.46 477.52 51.90 468.38 C 42.86 464.84 33.83 460.77 26.19 454.68 C 22.13 451.33 18.24 447.11 17.27 441.77 C 16.25 436.97 18.30 432.03 21.46 428.46 C 27.53 421.42 35.96 417.06 44.28 413.25 C 69.63 402.32 96.95 397.09 124.02 392.48 Z" />
<path fill="#f5e5c1" opacity="1.00" d=" M 239.89 391.70 C 247.60 391.33 255.32 391.29 263.03 391.70 C 263.50 392.64 263.97 393.58 264.44 394.54 C 256.31 394.56 248.17 394.54 240.04 394.54 C 240.00 393.83 239.92 392.41 239.89 391.70 Z" />
<path fill="#f5e5c1" opacity="1.00" d=" M 239.62 398.42 C 248.33 397.78 257.03 397.99 265.73 398.47 C 266.41 399.12 267.06 399.81 267.68 400.54 C 258.20 400.21 248.72 400.09 239.25 400.63 C 239.34 400.08 239.53 398.97 239.62 398.42 Z" />
<path fill="#f5e5c1" opacity="1.00" d=" M 121.13 401.00 C 125.17 400.11 129.39 400.75 133.36 399.46 C 132.48 401.13 131.62 402.81 130.76 404.49 C 118.99 407.69 106.94 410.35 95.94 415.78 C 91.88 417.85 87.85 420.28 85.00 423.90 C 82.01 427.35 82.52 433.09 85.88 436.13 C 92.10 442.52 100.82 445.58 109.08 448.39 C 102.60 447.55 96.32 445.68 90.04 443.94 C 82.08 441.49 73.94 438.90 67.07 434.05 C 64.07 431.78 60.54 428.32 61.80 424.18 C 64.01 418.80 69.60 415.99 74.54 413.57 C 89.31 406.97 105.35 404.06 121.13 401.00 Z" />
<path fill="#f5722c" opacity="1.00" d=" M 238.49 404.53 C 248.79 403.89 259.11 404.09 269.42 404.46 C 273.27 410.41 277.44 416.15 282.09 421.51 C 265.21 424.03 248.07 423.77 231.10 422.41 C 234.69 416.99 237.39 410.97 238.49 404.53 Z" />
<path fill="#f5e5c1" opacity="1.00" d=" M 398.26 412.12 C 399.80 409.83 401.34 407.54 402.92 405.27 C 413.49 407.96 424.23 410.77 433.72 416.30 C 437.01 418.35 440.65 420.96 441.44 425.02 C 441.99 429.40 438.19 432.63 434.94 434.85 C 426.93 439.85 417.81 442.67 408.76 445.12 C 403.56 446.42 398.40 448.17 393.00 448.37 C 398.43 447.23 403.45 444.76 408.40 442.36 C 412.77 439.97 417.42 437.01 419.36 432.20 C 420.71 428.45 418.82 424.45 416.03 421.92 C 411.00 417.27 404.55 414.58 398.26 412.12 Z" />
<path fill="#f5e5c1" opacity="1.00" d=" M 107.36 418.46 C 113.67 415.09 120.52 412.90 127.40 411.01 C 125.56 415.76 126.11 421.52 129.64 425.36 C 143.43 440.12 164.04 447.59 184.05 446.70 C 197.90 445.47 212.11 441.28 222.50 431.61 C 224.11 430.33 225.46 427.92 227.86 428.48 C 247.48 430.16 267.29 429.92 286.86 427.66 C 288.90 427.29 290.35 429.10 291.88 430.12 C 306.06 441.79 324.97 447.39 343.21 445.76 C 354.82 444.23 366.37 440.68 376.00 433.83 C 382.71 429.32 388.80 423.92 393.98 417.71 C 398.50 420.16 403.81 422.91 405.35 428.23 C 406.08 432.04 403.12 435.29 400.33 437.44 C 393.00 442.73 384.19 445.41 375.61 447.93 C 353.80 453.76 331.32 456.58 308.87 458.53 C 295.26 459.87 281.57 459.62 267.93 460.42 C 253.62 460.20 239.29 460.90 225.01 459.90 C 202.02 459.83 179.09 457.56 156.38 454.09 C 142.36 451.71 128.29 448.99 114.94 443.97 C 109.10 441.57 102.91 438.96 98.88 433.89 C 96.99 431.58 96.82 428.05 98.53 425.60 C 100.73 422.44 104.02 420.26 107.36 418.46 Z" />
</svg>
