<?xml version="1.0" encoding="UTF-8" standalone="no"?>
<svg
   xmlns:dc="http://purl.org/dc/elements/1.1/"
   xmlns:cc="http://creativecommons.org/ns#"
   xmlns:rdf="http://www.w3.org/1999/02/22-rdf-syntax-ns#"
   xmlns:svg="http://www.w3.org/2000/svg"
   xmlns="http://www.w3.org/2000/svg"
   xmlns:sodipodi="http://sodipodi.sourceforge.net/DTD/sodipodi-0.dtd"
   xmlns:inkscape="http://www.inkscape.org/namespaces/inkscape"
   width="1280"
   height="1280"
   viewBox="0 0 1024 1024"
   version="1.1"
   id="svg2"
   inkscape:version="0.48.1 "
   sodipodi:docname="destroy_stickies.svg">
  <metadata
     id="metadata110">
    <rdf:RDF>
      <cc:Work
         rdf:about="">
        <dc:format>image/svg+xml</dc:format>
        <dc:type
           rdf:resource="http://purl.org/dc/dcmitype/StillImage" />
      </cc:Work>
    </rdf:RDF>
  </metadata>
  <defs
     id="defs108" />
  <sodipodi:namedview
     pagecolor="#ffffff"
     bordercolor="#666666"
     borderopacity="1"
     objecttolerance="10"
     gridtolerance="10"
     guidetolerance="10"
     inkscape:pageopacity="0"
     inkscape:pageshadow="2"
     inkscape:window-width="1920"
     inkscape:window-height="1018"
     id="namedview106"
     showgrid="false"
     inkscape:snap-page="true"
     inkscape:zoom="0.6609375"
     inkscape:cx="640"
     inkscape:cy="640"
     inkscape:window-x="-8"
     inkscape:window-y="-8"
     inkscape:window-maximized="1"
     inkscape:current-layer="svg2"
     fit-margin-top="0"
     fit-margin-left="0"
     fit-margin-right="0"
     fit-margin-bottom="0" />
  <rect
     style="fill:#3e3e3e;fill-opacity:1;fill-rule:nonzero;stroke:none"
     id="rect3090"
     width="1024"
     height="1024"
     x="3.1974423e-014"
     y="0" />
  <path
     d="m 122.78,0 68.56,0 c 33.74,52.6 67.7,105.08 100.82,158.08 -14.08,-0.5 -28.18,-1.08 -42.22,-2.42 -3.62,0.06 -5.92,-2.92 -8.08,-5.36 C 202.32,100.08 162.46,50.1 122.78,0 z"
     id="path6"
     inkscape:connector-curvature="0"
     style="fill:#6c685f" />
  <path
     d="m 380.84,0 110.18,0 c 0.06,20.66 -0.14,41.32 0.16,61.98 0.02,5.48 0,11.3 -3.18,16.02 -6.72,10.92 -13.84,21.6 -20.76,32.38 C 440.66,85.68 416.12,58.92 391.66,32.16 383.22,23.62 383.5,10.94 380.84,0 z"
     id="path8"
     inkscape:connector-curvature="0"
     style="fill:#6c685f" />
  <path
     d="M 582.16,0 672,0 C 660.98,25.48 651.46,51.6 640.22,77 635.9,58.74 634.86,39.92 631.64,21.46 608.32,42.8 586.3,65.54 563.04,86.98 568.94,57.9 575.38,28.9 582.16,0 z"
     id="path10"
     inkscape:connector-curvature="0"
     style="fill:#6c685f" />
  <path
     d="m 760.44,0 2.4,0 c -33.14,51.22 -65.92,102.68 -98.88,154.02 -1.94,2.64 -4.36,4.86 -6.72,7.12 1.72,-8.44 7.08,-15.26 11.84,-22.18 C 699.54,92.66 729.68,46.12 760.44,0 z"
     id="path12"
     inkscape:connector-curvature="0"
     style="fill:#6c685f" />
  <path
     d="m 837.34,0 7.46,0 c -43.12,53.26 -85.76,106.92 -128.76,160.28 -4.48,6.3 -12.92,5.58 -19.68,6.76 9.14,-12.28 19.52,-23.54 29.32,-35.3 C 762.9,87.84 800.3,44.08 837.34,0 z"
     id="path14"
     inkscape:connector-curvature="0"
     style="fill:#6c685f" />
  <path
     d="m 899.54,0 124.46,0 0,33.82 c -7.8,6.98 -16.32,13.12 -24.46,19.68 -77.66,60.86 -154.76,122.48 -232.72,182.98 12.68,-29.38 28.04,-57.52 41.32,-86.62 -18.86,2.56 -37.6,6.04 -56.48,8.44 C 800.58,105.2 850.52,53.02 899.54,0 z"
     id="path16"
     inkscape:connector-curvature="0"
     style="fill:#6c685f" />
  <path
     d="m 543.34,118.7 c 26.78,-26.62 53.3,-53.48 79.84,-80.32 -10.04,34.98 -19.04,70.34 -29.68,105.12 -14.7,-1.6 -27.02,-12.38 -41.44,-15.84 -5.84,-2.22 -12.26,-5.38 -15.18,-11.2 1.62,0.56 4.84,1.68 6.46,2.24 z"
     id="path18"
     inkscape:connector-curvature="0"
     style="fill:#f5e5c1" />
  <path
     d="m 377.28,40.32 c 19.46,31.16 38.06,62.86 57.42,94.1 -11.82,4.42 -23.76,8.9 -34.42,15.78 -10.4,6.22 -20.18,14.7 -32.82,15.58 3.16,-41.84 6.5,-83.64 9.82,-125.46 z"
     id="path20"
     inkscape:connector-curvature="0"
     style="fill:#f5e5c1" />
  <path
     d="m 450.38,164.58 c 18.18,-31.54 36.38,-63.06 54.32,-94.74 8.3,45.56 15.78,91.26 24.1,136.84 -19.28,5.4 -39.92,2.72 -58.68,-3.52 -11.44,-3 -21.76,-11.74 -24.74,-23.42 -1.62,-5.66 2.62,-10.44 5,-15.16 z"
     id="path22"
     inkscape:connector-curvature="0"
     style="fill:#f5e5c1" />
  <path
     d="m 418.34,78.68 c 15.58,13.46 30,28.22 45.38,41.9 -2.74,1.72 -5.5,3.44 -8.24,5.18 -11.8,-16.12 -24.98,-31.22 -37.14,-47.08 z"
     id="path24"
     inkscape:connector-curvature="0"
     style="fill:#f5e5c1" />
  <path
     d="m 629.62,89.66 c 1.72,23.68 4.14,47.3 6.1,70.96 -4.42,-2 -8.86,-4.02 -13.3,-6 2.78,-21.6 3.84,-43.42 7.2,-64.96 z"
     id="path26"
     inkscape:connector-curvature="0"
     style="fill:#f5e5c1" />
  <path
     d="m 0,101.62 c 70.04,49.46 140.72,98.04 210.92,147.3 8.2,5.78 16.66,11.22 24.5,17.5 -5,0.7 -10.08,2.18 -15.14,1.38 -6.12,-2.96 -11.1,-7.7 -16.6,-11.6 C 141.84,210.72 80.14,165.06 18.38,119.48 12.24,114.88 5.88,110.52 0,105.54 l 0,-3.92 z"
     id="path28"
     inkscape:connector-curvature="0"
     style="fill:#6c685f" />
  <path
     d="m 524.14,101.32 c 11.98,18.96 22.98,38.52 34.92,57.54 3.86,5.9 3.54,13.3 2.18,19.96 -12.28,-25.88 -25.04,-51.54 -37.1,-77.5 z"
     id="path30"
     inkscape:connector-curvature="0"
     style="fill:#f5e5c1" />
  <path
     style="fill:#f4722b"
     d="m 464.2,130.3 c -18.14,7.02 -37.79,10.77 -54.35,21.45 -13.58,8.26 -26.92,19.6 -43.8,19.1 -8.54,-1.56 -13.36,7.07 -19,11.85 7.12,1.56 15.58,1.57 19.9,8.45 -0.76,9.92 0.91,20.12 -1.85,29.8 -4.7,13.5 -13.4,25.02 -20.8,37.1 -6.04,10.46 -16.23,17.38 -24.85,25.5 -7.96,7.84 -20.18,9.16 -30.8,7.9 -2.84,-3.96 -5.69,-7.93 -8.45,-11.95 -6.84,20.96 -2.34,43.54 5,63.7 5.12,11.44 11.22,22.57 19.9,31.75 11.54,15.26 26.2,28.07 42.9,37.45 9.92,6.22 19.6,13.06 30.7,17.1 13.12,4.88 25.47,12.11 39.35,14.75 15.44,3.08 30.61,7.91 46.35,9.35 11.8,1.06 23.59,2.68 35.45,3.1 17.1,-1.22 34.19,-2.42 51.25,-4.1 12.58,-2.2 24.95,-5.52 37.45,-8.1 12.5,-2.38 23.97,-8.25 36.25,-11.45 15.72,-3.86 28.64,-14.01 42.7,-21.55 16.48,-10.92 32.03,-24.31 42.15,-41.55 8.98,-11.9 15.43,-25.38 21.35,-39 3.22,-9.92 4.09,-20.44 4.75,-30.8 0.04,-10.02 1.5,-20.69 -3.3,-29.95 -3.74,4.92 -6.72,10.5 -11.2,14.8 -3.08,0.9 -6.38,0.78 -9.5,0.3 -40.02,-10.96 -69.34,-51.96 -67.2,-93.3 0.44,-6.6 8.55,-7.77 13.75,-7.65 0.3,-0.08 0.85,-0.27 1.15,-0.35 -0.06,-0.68 -0.19,-2.02 -0.25,-2.7 -5.46,-4.76 -11.14,-9.32 -17,-13.6 -4.98,-2.14 -10.8,-1.7 -15.6,-4.5 -25.16,-12.22 -51.29,-22.26 -77.25,-32.6 6.52,13.6 19.72,25.34 18.5,41.5 0.16,8.52 -2.33,17.25 -8.15,23.65 -13.1,13.06 -31.69,18.45 -49.75,19.45 -19.06,-0.14 -39.39,-2.52 -55.35,-13.8 -10.12,-7.6 -17.96,-21.89 -11.6,-34.25 7.04,-12.28 14.08,-24.59 21.2,-36.85 z m 138.05,145.1 c 11.34826,-0.35046 22.7875,1.96 32.55,7.9 15.76,9.64 28.06,25.45 32,43.65 2.48,15.84 1.32,32.85 -6.9,46.95 -8.12,13.62 -21.3,24.85 -37,28.35 -19.9,3.9 -42.54,0.98 -57.8,-13.4 -22.54,-18.78 -27.52,-53.05 -15.6,-79.05 7.62,-15.02 21.02,-27.79 37.5,-32.35 4.9625,-1.15626 10.0917,-1.8907 15.25,-2.05 z m -191.85,2.3 c 11.51299,0.0311 23.0475,2.76499 32.7,9.2 12.9,8.6 23.52,21.66 27,37 3.74,16.78 3.2,35.36 -5.7,50.5 -11.72,19.34 -33.2,33.8 -56.4,32.7 -32.18,1.7 -62.37,-26.79 -61.75,-59.15 -2.96,-30.58 18.73,-61.56 48.65,-68.7 5.06875,-1.00626 10.26682,-1.56413 15.5,-1.55 z"
     id="path32"
     inkscape:connector-curvature="0" />
  <path
     d="M 789.34,279.4 C 867.12,234.46 945.92,191.3 1024,146.88 l 0,141.86 c -70.5,20.2 -141.26,39.54 -211.74,59.74 -8.06,3.1 -14.92,-3.66 -21.56,-7.06 18.34,-14.5 38,-27.24 56.06,-42.1 -19.02,-6.96 -38.38,-12.98 -57.42,-19.92 z"
     id="path34"
     inkscape:connector-curvature="0"
     style="fill:#6c685f" />
  <path
     d="m 226.02,166.82 c 42.34,21.52 85.52,41.4 128.12,62.4 -4.54,8.82 -10.44,16.82 -15.62,25.26 -5.46,10.3 -15.62,16.5 -23.76,24.42 -5.42,5.56 -13.52,6.54 -20.84,7.6 -3.38,-0.24 -4.76,-3.64 -6.34,-6.08 -4.92,-9.04 -8.96,-18.56 -14.44,-27.3 -15.84,-28.7 -31.18,-57.66 -47.12,-86.3 z"
     id="path36"
     inkscape:connector-curvature="0"
     style="fill:#f5e5c1" />
  <path
     d="m 660.24,188.18 c 40.42,-7.28 80.74,-14.98 121.08,-22.68 -19.04,34.96 -37.98,69.96 -57,104.92 -1.88,3.26 -3.82,6.64 -6.78,9.02 -6.86,1.16 -12.92,-3.4 -19,-5.84 -22.42,-9.88 -37.22,-31.34 -45.54,-53.66 -2.94,-10.18 -3.82,-20.76 -4.68,-31.26 3.24,-1.62 6.5,-3.2 9.96,-4.32 0.3,-0.08 0.86,-0.26 1.16,-0.34 l 2.66,-0.78 c -0.46,1.24 -1.38,3.7 -1.86,4.94 z"
     id="path38"
     inkscape:connector-curvature="0"
     style="fill:#f5e5c1" />
  <path
     d="m 273.28,174.94 c 25.64,4 51.04,9.5 76.6,14 3.48,0.88 7.5,1.02 10.32,3.5 1.04,5.2 0.22,10.54 0.32,15.8 -29.02,-11.22 -58.1,-22.34 -87.24,-33.3 z"
     id="path40"
     inkscape:connector-curvature="0"
     style="fill:#f5e5c1" />
  <path
     d="m 0,224.64 c 49.22,22.74 98.8,44.7 148.12,67.24 9.6,4.64 20.78,7.46 27.64,16.24 11.04,13.08 22.24,26.02 33.62,38.84 -12.34,8.04 -25.42,14.82 -38.06,22.34 -4.68,3.26 -10.46,2.74 -15.68,1.32 C 103.84,357.76 51.8,345.94 0,333.14 l 0,-108.5 z"
     id="path42"
     inkscape:connector-curvature="0"
     style="fill:#6c685f" />
  <path
     d="m 182.56,301.9 c 25.62,-7.04 51.26,-14.08 76.86,-21.16 C 247.5,303.26 248.2,329.7 250.4,354.36 227.84,336.8 205.26,319.3 182.56,301.9 z"
     id="path48"
     inkscape:connector-curvature="0"
     style="fill:#f5e5c1" />
  <path
     d="m 553,314.8 c 7.16,-17.66 23.72,-30.98 42.6,-33.92 9.78,28.8 19.86,57.52 30,86.2 8.66,-20.34 16.04,-41.2 24.98,-61.42 6.7,10.94 11.92,23.3 11.5,36.38 -0.86,17.3 -8.56,34.94 -22.78,45.36 -18.62,14.16 -46.22,13.8 -65.42,0.96 C 550.42,373.08 541.78,340.14 553,314.8 z"
     id="path50"
     inkscape:connector-curvature="0"
     style="fill:#f5e5c1" />
  <path
     d="m 751,281.74 c 13.84,3.86 27.66,7.82 41.66,11.02 -12.92,0.26 -25.72,-1.88 -38.6,-2.6 -1.02,-2.82 -2.04,-5.62 -3.06,-8.42 z"
     id="path52"
     inkscape:connector-curvature="0"
     style="fill:#f5e5c1" />
  <path
     d="m 370.52,298.54 c 11.72,-11.7 28.76,-17.06 45.12,-15.52 -9.82,27.84 -19.42,55.76 -29.32,83.58 26.74,-9.14 53.5,-18.3 80.3,-27.28 -0.36,14.14 -4.14,28.6 -13.48,39.52 -11.06,13.3 -27.62,22.6 -45.18,22.46 -21.34,0.52 -42.6,-12.2 -51.52,-31.74 -11.5,-23.4 -5.06,-53.56 14.08,-71.02 z"
     id="path54"
     inkscape:connector-curvature="0"
     style="fill:#f5e5c1" />
  <path
     d="m 758.3,303.34 c 22.06,-0.46 44.12,-1.26 66.18,-1.82 -21.08,16.24 -41.46,33.48 -63.3,48.72 1.4,-15.66 1,-31.62 -2.88,-46.9 z"
     id="path56"
     inkscape:connector-curvature="0"
     style="fill:#f5e5c1" />
  <path
     d="m 185.48,376.74 c 17.06,-9.96 34.02,-20.06 51,-30.16 4.88,4 9.76,8.02 14.62,12.06 2.02,12.3 5.14,24.58 11.38,35.46 -3.62,4.26 -7.26,8.5 -10.92,12.74 -22.06,-9.96 -44.46,-19.26 -66.08,-30.1 z"
     id="path58"
     inkscape:connector-curvature="0"
     style="fill:#f5e5c1" />
  <path
     d="m 767.34,350.62 c 1.42,-1.16 2.84,-2.32 4.26,-3.5 11.78,7.2 23.86,13.92 35.66,21.14 -13.74,-4.88 -26.56,-11.9 -39.92,-17.64 z"
     id="path60"
     inkscape:connector-curvature="0"
     style="fill:#f5e5c1" />
  <path
     d="M 839.92,377.74 C 901.26,367.98 962.7,358.62 1024,348.56 l 0,3.92 c -70.14,13.54 -140.32,27.02 -210.58,39.88 8.2,-5.82 16.16,-13.12 26.5,-14.62 z"
     id="path62"
     inkscape:connector-curvature="0"
     style="fill:#6c685f" />
  <path
     d="m 759.82,363.58 c 18.56,4.26 37.28,7.84 55.94,11.68 1.84,0.54 3.6,1.28 5.3,2.22 -21.5,9.6 -42.84,19.54 -64.48,28.82 -3.04,-3.54 -6.14,-7.02 -9.3,-10.42 5.26,-10.3 10.74,-20.74 12.54,-32.3 z"
     id="path64"
     inkscape:connector-curvature="0"
     style="fill:#f5e5c1" />
  <path
     d="m 261.14,398.8 c 10.62,34.34 22.72,68.3 39.22,100.3 -44.42,-0.44 -88.84,-1.92 -133.26,-2.6 31.42,-32.5 62.92,-64.9 94.04,-97.7 z"
     id="path66"
     inkscape:connector-curvature="0"
     style="fill:#f5e5c1" />
  <path
     d="m 746.48,399.62 c 8.92,10.1 18.74,19.34 27.84,29.28 -11.02,-6.54 -21.92,-13.24 -32.78,-20.04 1.64,-3.08 3.3,-6.16 4.94,-9.24 z"
     id="path68"
     inkscape:connector-curvature="0"
     style="fill:#f5e5c1" />
  <path
     d="m 706.4,499.34 c 10.32,-22.2 18.96,-45.1 26.9,-68.24 14.66,10.96 30.86,19.58 46.44,29.12 20.08,12.1 40.4,23.82 60.38,36.1 -44.58,1.22 -89.16,1.92 -133.72,3.02 z"
     id="path70"
     inkscape:connector-curvature="0"
     style="fill:#f5e5c1" />
  <path
     d="m 0,441.22 c 66.3,-0.98 132.6,-2.66 198.92,-3.04 -2.88,3.22 -5.46,6.88 -9.1,9.28 -8.52,1.32 -17.18,0.1 -25.76,0.18 C 109.36,447 54.68,445.42 0,445.34 l 0,-4.12 z"
     id="path72"
     inkscape:connector-curvature="0"
     style="fill:#6c685f" />
  <path
     d="m 837.02,473.68 c 62.36,7.3 124.66,15.04 186.98,22.68 l 0,131.48 c -91.22,-35.72 -182.9,-70.3 -274.22,-105.76 -6.5,-2.54 -7.42,-10.4 -10.12,-16 43.78,1.88 87.58,4.02 131.36,5.88 -11.06,-13 -23.22,-25.04 -34,-38.28 z"
     id="path74"
     inkscape:connector-curvature="0"
     style="fill:#6c685f" />
  <path
     d="m 147.34,515.24 c 12.7,-2.7 25.48,-6.62 38.62,-5.1 29.7,2.86 59.48,4.92 89.16,8.06 -6.56,7.6 -11.28,18.5 -21.9,21 C 168.76,562.3 84.4,585.8 0,609.12 L 0,546.58 C 49.12,536.2 98.22,525.66 147.34,515.24 z"
     id="path76"
     inkscape:connector-curvature="0"
     style="fill:#6c685f" />
  <path
     d="m 718.68,520.52 c 2.4,-3.02 4.8,-6.04 7.22,-9.06 2.58,3.02 5.16,6.06 7.76,9.08 -5,0 -10,-0.02 -14.98,-0.02 z"
     id="path78"
     inkscape:connector-curvature="0"
     style="fill:#f5e5c1" />
  <path
     d="m 289.08,512.16 c 2.7,4.42 5.42,8.86 8.14,13.3 -4.72,0.68 -9.44,1.32 -14.16,1.92 2.02,-5.08 4.02,-10.14 6.02,-15.22 z"
     id="path80"
     inkscape:connector-curvature="0"
     style="fill:#f5e5c1" />
  <path
     d="m 377.3,521.44 c 8.66,-5.1 19.06,-4.06 28.68,-4.9 20.24,-1.16 40.24,5.4 57.24,16.12 7.28,5.3 14.36,11.74 17.98,20.16 1.56,3.44 -1.28,6.68 -3.62,8.88 -14.9,13.78 -29.72,27.62 -44.62,41.38 -8.06,8.08 -16.2,16.1 -24.98,23.4 0.46,-15.82 1.18,-31.62 1.72,-47.44 0.2,-7.16 -1.08,-15.14 -6.6,-20.24 -6.96,-7.18 -17.78,-6.54 -26.96,-7.54 -0.74,-7.8 -1.98,-15.56 -2.44,-23.38 -0.44,-2.68 1.28,-5.26 3.6,-6.44 z"
     id="path82"
     inkscape:connector-curvature="0"
     style="fill:#f5e5c1" />
  <path
     d="m 561.42,525.54 c 15.62,-7.7 33.46,-10.32 50.72,-8.62 8.32,0.68 18.02,0.76 24.5,6.76 2.42,5.38 -0.22,11.5 -0.66,17.14 -34.94,-3.8 -71.32,4.24 -101.2,22.8 -2,-2.6 -3.94,-5.22 -5.82,-7.88 5.32,-14.48 18.72,-24.32 32.46,-30.2 z"
     id="path84"
     inkscape:connector-curvature="0"
     style="fill:#f5e5c1" />
  <path
     d="m 719.18,558.64 c 7.08,-1.66 15.1,-6.72 22.12,-2.2 94.14,56.04 188.8,111.26 282.7,167.68 l 0,4.26 C 922.58,671.46 820.5,615.7 719.18,558.64 z"
     id="path86"
     inkscape:connector-curvature="0"
     style="fill:#6c685f" />
  <path
     d="m 266.74,560.74 c 4.22,-2.48 9.02,-1.8 13.5,-0.6 -19.86,23.46 -40.28,46.48 -60.44,69.7 -7.52,8.82 -17.38,17.34 -18.52,29.64 -0.84,8.74 5,16.06 9.56,22.92 C 140.76,716.32 70.32,749.56 0,783.02 L 0,680.28 C 88.7,640 177.94,600.84 266.74,560.74 z"
     id="path88"
     inkscape:connector-curvature="0"
     style="fill:#6c685f" />
  <path
     d="m 618,561.75 c -7.08374,-0.0272 -14.14,0.49 -21.15,1.55 -46.08,7.4 -85.14,39.2 -109.5,78 -25.16,39.94 -37.61,87.55 -36.85,134.65 -0.42,39.12 8.57,78.38 26.25,113.3 17.92,34.84 45.46,65.76 81,83.1 33.76,16.68 74.51,18.42 109.55,4.6 26.38,-10.36 49.32,-28.53 67,-50.55 25.16,-30.44 40.5,-68.18 47.2,-106.9 7.78,-47.5 3.2,-97.26 -14.9,-142 -16.88,-41.82 -46.64,-79.86 -87.2,-100.8 -18.9,-9.85499 -40.14875,-14.86843 -61.4,-14.95 z m -2.65,128.6 c 15.15763,-0.49366 30.34,4.74 42.3,14.1 20.26,15.58 32.02,39.88 37,64.5 6.22,33.28 3.54,69.67 -14.5,99.05 -11.76,19.42 -30.27,35.98 -52.95,40.8 -20.14,3.88 -40.37,-5.54 -54.75,-19.2 -22.92,-21.9 -33.49,-54.35 -33.45,-85.55 -0.8,-29.28 5.82,-59.65 23.4,-83.55 10.34,-14.1 25.34,-24.98 42.5,-28.9 3.45374,-0.74626 6.95208,-1.13608 10.45,-1.25 z"
     id="path90"
     style="fill:#f4722b"
     inkscape:connector-curvature="0" />
  <path
     d="m 222.48,660.26 c 26.92,-30.86 53.64,-61.88 80.74,-92.56 28.18,2.22 56.36,4.32 84.54,6.44 -4.86,137.26 -10.16,274.52 -15.2,411.78 -30.56,-0.98 -61.06,-3.68 -91.62,-5.14 2.78,-95.6 6.1,-191.18 9.12,-286.76 -7.66,9.3 -15.4,18.52 -23.28,27.64 -15.28,-20.06 -29.64,-40.88 -44.3,-61.4 z"
     id="path92"
     inkscape:connector-curvature="0"
     style="fill:#f5722c" />
  <path
     d="m 407.7,632.12 c 9.38,-8.04 18.66,-16.18 28.1,-24.12 8.82,2.54 17.88,4.24 27.02,5.16 -1.28,1.28 -3.84,3.88 -5.12,5.18 l -0.98,0.92 c -16.52,16.46 -33.76,32.18 -50.38,48.52 0.52,-11.88 1,-23.78 1.36,-35.66 z"
     id="path94"
     inkscape:connector-curvature="0"
     style="fill:#f5e5c1" />
  <path
     d="m 457.7,618.34 c 2.08,-1.8 4.26,-3.5 6.42,-5.2 4.92,0.7 9.86,1.32 14.8,1.88 -1.62,2.3 -3.22,4.6 -4.82,6.9 -5.86,-0.32 -11.82,-0.6 -17.38,-2.66 l 0.98,-0.92 z"
     id="path96"
     inkscape:connector-curvature="0"
     style="fill:#f5722c" />
  <path
     d="m 786.2,666.58 c 23.28,19.72 45.5,40.66 68.42,60.82 56.46,50.58 112.86,101.22 169.38,151.76 l 0,94.56 C 952.44,897.42 880.16,821.76 808.48,745.58 c -3.96,-4.14 -4.2,-10.08 -5.18,-15.38 -3.42,-21.74 -9.64,-42.94 -17.1,-63.62 z"
     id="path98"
     inkscape:connector-curvature="0"
     style="fill:#6c685f" />
  <path
     d="M 0,921.44 C 81,857.12 162.36,793.2 243.68,729.26 c 4.38,4.34 8.9,8.54 13.52,12.64 C 171.28,826.84 86.08,912.52 0,997.32 l 0,-75.88 z"
     id="path102"
     inkscape:connector-curvature="0"
     style="fill:#6c685f" />
  <path
     d="m 806.94,788.56 c 14.54,17.06 27.86,35.12 41.9,52.58 48.1,60.94 96.02,122.02 144.24,182.86 l -12.44,0 C 921.4,963.72 862.44,903.1 803.24,842.78 c -4.68,-3.82 -2.32,-9.94 -1.48,-14.86 3.02,-12.92 4.14,-26.16 5.18,-39.36 z"
     id="path104"
     inkscape:connector-curvature="0"
     style="fill:#6c685f" />
</svg>
