<?xml version="1.0" encoding="UTF-8" ?>
<!DOCTYPE svg PUBLIC "-//W3C//DTD SVG 1.1//EN" "http://www.w3.org/Graphics/SVG/1.1/DTD/svg11.dtd">
<svg width="512pt" height="512pt" viewBox="0 0 512 512" version="1.1" xmlns="http://www.w3.org/2000/svg">
<path fill="#995935" opacity="1.00" d=" M 0.00 0.00 L 16.78 0.00 C 17.07 16.02 16.80 32.06 17.09 48.08 C 18.58 56.33 18.31 64.74 18.34 73.08 C 18.51 74.57 17.15 75.46 16.02 76.05 C 12.22 78.23 8.35 80.31 4.74 82.80 C 3.95 85.06 4.51 87.61 4.28 89.99 C 4.36 95.34 3.53 100.71 4.09 106.04 C 9.52 101.64 13.31 95.59 18.67 91.12 C 18.73 99.41 19.08 107.70 19.12 115.98 C 14.71 118.36 10.09 120.33 5.63 122.59 C 1.75 124.04 3.38 129.27 3.33 132.47 C 8.67 134.80 14.22 136.80 19.26 139.73 C 19.88 143.08 20.14 146.88 19.31 150.24 C 12.84 156.59 6.89 163.51 0.00 169.41 L 0.00 125.07 C 1.09 124.70 2.17 124.34 3.26 123.98 C 3.42 118.38 3.43 112.77 3.76 107.17 C 2.51 108.21 1.26 109.24 0.00 110.28 L 0.00 0.00 Z" />
<path fill="#3e3e3e" opacity="1.00" d=" M 16.78 0.00 L 30.08 0.00 C 31.91 96.62 33.57 193.31 35.40 289.98 C 36.19 339.01 37.33 388.00 37.92 437.03 C 38.07 438.25 38.23 439.47 38.37 440.70 C 52.53 439.51 66.73 438.60 80.91 437.69 C 146.56 443.71 212.23 449.55 277.87 455.61 C 327.36 466.46 376.78 477.62 426.24 488.61 C 437.38 490.93 448.47 493.85 459.64 495.84 C 469.35 401.91 479.15 307.98 488.90 214.05 C 490.43 200.80 491.34 187.44 493.27 174.26 L 493.69 173.62 L 493.37 172.91 C 498.91 115.29 505.30 57.63 511.16 0.00 L 512.00 0.00 L 512.00 150.83 C 510.81 150.55 509.62 150.41 508.42 150.27 C 507.56 159.16 506.75 168.08 505.85 176.96 C 507.38 179.49 509.87 181.32 512.00 183.35 L 512.00 200.41 C 510.07 196.13 509.35 191.45 507.97 186.98 C 507.17 184.64 507.26 181.81 505.39 179.99 C 504.84 187.08 503.99 194.14 503.31 201.22 C 503.22 202.97 502.47 204.84 503.22 206.54 C 506.12 207.27 509.04 207.89 512.00 208.36 L 512.00 260.32 C 507.79 256.04 504.43 251.01 500.38 246.62 C 500.01 246.45 499.29 246.11 498.92 245.95 C 497.36 254.21 497.01 262.64 496.06 270.99 C 496.12 271.39 496.24 272.19 496.30 272.60 C 501.62 274.51 506.75 276.87 512.00 278.96 L 512.00 308.38 C 505.85 299.61 501.11 289.93 495.24 280.98 C 493.89 289.26 493.39 297.69 492.33 306.02 C 491.61 308.96 494.24 310.99 495.76 313.12 C 501.25 319.78 506.08 327.02 512.00 333.32 L 512.00 347.24 C 504.10 344.19 497.21 338.97 489.25 336.05 C 488.65 341.71 487.92 347.37 487.57 353.07 C 487.15 355.94 489.86 357.66 491.46 359.62 C 498.32 366.48 504.99 373.52 512.00 380.24 L 512.00 393.16 C 504.43 390.43 497.44 386.26 489.74 383.92 C 489.74 386.51 490.89 388.91 491.57 391.38 C 497.86 411.81 504.09 432.26 510.33 452.71 C 510.72 454.04 511.35 455.27 512.00 456.51 L 512.00 470.28 C 509.04 469.03 506.86 466.60 504.33 464.71 C 495.61 457.87 487.26 450.44 478.19 444.11 C 477.22 448.04 477.30 452.13 476.81 456.13 C 476.43 460.42 475.50 464.70 475.72 469.02 C 477.08 472.47 479.70 475.24 481.57 478.42 C 488.35 489.25 495.73 499.69 502.45 510.56 C 505.51 511.50 508.83 510.87 512.00 511.02 L 512.00 512.00 L 0.00 512.00 L 0.00 511.02 C 4.84 510.90 9.71 511.26 14.54 510.75 C 18.65 493.84 22.77 476.94 26.99 460.06 C 27.71 457.20 28.78 454.40 28.80 451.42 C 26.87 451.26 24.91 451.42 23.00 451.02 C 22.30 450.19 22.57 449.03 22.42 448.05 C 22.02 448.22 21.21 448.57 20.81 448.75 C 13.88 455.88 6.82 462.87 0.00 470.11 L 0.00 446.32 C 2.91 441.98 4.89 437.10 7.58 432.62 C 10.75 425.59 15.25 419.20 17.99 411.96 C 14.99 414.43 13.41 418.09 11.21 421.21 C 7.35 426.48 4.08 432.17 0.00 437.29 L 0.00 427.36 C 6.71 416.18 12.51 404.43 18.92 393.06 C 20.45 389.83 22.95 386.73 22.71 382.98 C 22.60 374.68 22.80 366.39 22.72 358.09 C 15.02 365.39 7.87 373.27 0.00 380.37 L 0.00 362.24 C 2.34 359.05 4.36 355.59 5.85 351.92 C 3.72 352.66 1.89 354.04 0.00 355.24 L 0.00 312.31 C 3.67 310.82 6.36 307.80 9.59 305.63 C 13.00 303.38 16.06 300.67 19.44 298.38 C 20.51 297.53 22.21 296.75 21.94 295.09 C 21.88 286.95 22.19 278.80 21.73 270.68 C 19.01 273.87 17.63 277.98 15.56 281.61 C 10.21 291.44 5.39 301.55 0.00 311.36 L 0.00 294.32 C 2.65 292.54 4.33 289.77 6.37 287.40 C 11.20 281.87 15.71 276.06 20.47 270.46 C 21.95 269.05 21.98 266.90 21.94 265.01 C 21.78 259.06 21.71 253.10 21.61 247.15 C 19.63 247.20 17.96 248.38 16.18 249.12 C 10.79 251.43 5.44 253.84 0.00 256.05 L 0.00 238.29 C 1.82 236.71 3.60 235.07 5.06 233.15 C 3.38 233.11 1.69 233.17 0.00 233.25 L 0.00 184.17 C 5.68 180.17 11.03 175.73 16.69 171.72 C 18.14 170.46 20.37 169.29 20.10 167.04 C 20.10 162.04 19.91 157.04 19.74 152.05 C 17.81 152.95 16.95 155.07 15.55 156.57 C 10.34 162.76 5.36 169.17 0.00 175.24 L 0.00 169.41 C 6.89 163.51 12.84 156.59 19.31 150.24 C 20.14 146.88 19.88 143.08 19.26 139.73 C 14.22 136.80 8.67 134.80 3.33 132.47 C 3.38 129.27 1.75 124.04 5.63 122.59 C 10.09 120.33 14.71 118.36 19.12 115.98 C 19.08 107.70 18.73 99.41 18.67 91.12 C 13.31 95.59 9.52 101.64 4.09 106.04 C 3.53 100.71 4.36 95.34 4.28 89.99 C 4.51 87.61 3.95 85.06 4.74 82.80 C 8.35 80.31 12.22 78.23 16.02 76.05 C 17.15 75.46 18.51 74.57 18.34 73.08 C 18.31 64.74 18.58 56.33 17.09 48.08 C 16.80 32.06 17.07 16.02 16.78 0.00 Z" />
<path fill="#f5e5c1" opacity="1.00" d=" M 30.08 0.00 L 511.16 0.00 C 505.30 57.63 498.91 115.29 493.37 172.91 C 482.91 169.54 472.83 165.04 462.54 161.19 C 463.93 144.90 465.36 128.61 466.76 112.33 C 476.31 104.55 486.26 97.16 496.30 90.03 C 486.97 91.12 477.61 92.21 468.26 93.27 C 470.39 64.38 472.66 35.48 474.47 6.57 C 334.56 6.61 194.64 6.65 54.72 6.55 L 54.44 7.25 C 54.40 108.85 54.43 210.46 54.43 312.06 C 54.52 313.52 54.19 315.04 54.68 316.45 C 78.43 316.36 102.18 316.39 125.93 316.43 C 182.61 320.91 239.29 325.33 295.96 329.89 C 342.65 336.89 389.33 344.00 436.03 351.04 C 439.36 351.69 442.87 351.70 446.05 353.01 C 450.98 293.23 456.49 233.38 461.39 173.59 C 472.02 173.82 482.65 173.89 493.27 174.26 C 491.34 187.44 490.43 200.80 488.90 214.05 C 479.15 307.98 469.35 401.91 459.64 495.84 C 448.47 493.85 437.38 490.93 426.24 488.61 C 376.78 477.62 327.36 466.46 277.87 455.61 C 212.23 449.55 146.56 443.71 80.91 437.69 C 66.73 438.60 52.53 439.51 38.37 440.70 C 38.23 439.47 38.07 438.25 37.92 437.03 C 37.33 388.00 36.19 339.01 35.40 289.98 C 33.57 193.31 31.91 96.62 30.08 0.00 Z" />
<path fill="#3e3e3e" opacity="1.00" d=" M 54.44 7.25 L 54.72 6.55 C 194.64 6.65 334.56 6.61 474.47 6.57 C 472.66 35.48 470.39 64.38 468.26 93.27 C 448.89 95.45 429.53 97.72 410.16 99.84 C 430.09 72.94 449.96 45.99 470.04 19.21 C 460.92 23.13 452.06 27.88 443.06 32.18 C 424.06 41.67 404.86 50.80 385.95 60.46 L 385.33 59.95 C 384.04 44.00 383.16 27.95 382.06 12.01 L 381.27 12.14 C 377.31 19.73 373.44 27.38 369.70 35.08 C 366.89 28.03 364.94 20.64 362.07 13.61 C 360.68 14.99 360.68 17.12 359.96 18.85 C 348.68 52.94 337.66 87.11 326.31 121.17 C 326.21 121.63 326.02 122.56 325.92 123.03 C 334.96 121.36 343.91 119.14 352.92 117.27 C 348.17 125.97 342.93 134.44 338.06 143.09 C 352.06 142.06 366.04 140.40 380.04 139.31 C 368.74 146.69 357.30 153.86 346.03 161.29 L 345.56 162.12 C 352.79 164.82 360.24 166.92 367.52 169.48 C 370.64 170.50 373.75 171.76 377.03 172.14 C 405.16 172.62 433.27 173.09 461.39 173.59 C 456.49 233.38 450.98 293.23 446.05 353.01 C 442.87 351.70 439.36 351.69 436.03 351.04 C 389.33 344.00 342.65 336.89 295.96 329.89 C 239.29 325.33 182.61 320.91 125.93 316.43 C 102.18 316.39 78.43 316.36 54.68 316.45 C 54.19 315.04 54.52 313.52 54.43 312.06 C 54.43 210.46 54.40 108.85 54.44 7.25 Z" />
<path fill="#f5722c" opacity="1.00" d=" M 381.27 12.14 L 382.06 12.01 C 383.16 27.95 384.04 44.00 385.33 59.95 L 385.95 60.46 C 404.86 50.80 424.06 41.67 443.06 32.18 C 452.06 27.88 460.92 23.13 470.04 19.21 C 449.96 45.99 430.09 72.94 410.16 99.84 C 429.53 97.72 448.89 95.45 468.26 93.27 C 477.61 92.21 486.97 91.12 496.30 90.03 C 486.26 97.16 476.31 104.55 466.76 112.33 C 454.56 120.87 442.94 130.24 430.98 139.12 L 431.26 139.77 C 438.54 141.53 445.88 143.09 453.17 144.86 C 453.34 145.06 453.70 145.45 453.87 145.64 C 450.30 147.75 447.04 150.33 443.55 152.56 C 443.43 152.86 443.19 153.45 443.07 153.75 C 449.65 156.00 456.02 158.79 462.54 161.19 C 472.83 165.04 482.91 169.54 493.37 172.91 L 493.69 173.62 L 493.27 174.26 C 482.65 173.89 472.02 173.82 461.39 173.59 C 433.27 173.09 405.16 172.62 377.03 172.14 C 373.75 171.76 370.64 170.50 367.52 169.48 C 360.24 166.92 352.79 164.82 345.56 162.12 L 346.03 161.29 C 357.30 153.86 368.74 146.69 380.04 139.31 C 366.04 140.40 352.06 142.06 338.06 143.09 C 342.93 134.44 348.17 125.97 352.92 117.27 C 343.91 119.14 334.96 121.36 325.92 123.03 C 326.02 122.56 326.21 121.63 326.31 121.17 C 337.66 87.11 348.68 52.94 359.96 18.85 C 360.68 17.12 360.68 14.99 362.07 13.61 C 364.94 20.64 366.89 28.03 369.70 35.08 C 373.44 27.38 377.31 19.73 381.27 12.14 Z" />
<path fill="#3e3e3e" opacity="1.00" d=" M 0.00 110.28 C 1.26 109.24 2.51 108.21 3.76 107.17 C 3.43 112.77 3.42 118.38 3.26 123.98 C 2.17 124.34 1.09 124.70 0.00 125.07 L 0.00 110.28 Z" />
<path fill="#3e3e3e" opacity="1.00" d=" M 430.98 139.12 C 442.94 130.24 454.56 120.87 466.76 112.33 C 465.36 128.61 463.93 144.90 462.54 161.19 C 456.02 158.79 449.65 156.00 443.07 153.75 C 443.19 153.45 443.43 152.86 443.55 152.56 C 447.04 150.33 450.30 147.75 453.87 145.64 C 453.70 145.45 453.34 145.06 453.17 144.86 C 445.88 143.09 438.54 141.53 431.26 139.77 L 430.98 139.12 Z" />
<path fill="#f5e5c1" opacity="1.00" d=" M 313.26 137.29 C 314.89 136.85 316.68 137.40 318.34 137.64 C 323.36 140.40 328.31 143.69 331.69 148.40 C 334.31 151.33 334.40 155.46 335.32 159.09 C 336.06 161.14 334.43 162.90 334.37 164.91 C 334.27 167.47 331.96 168.99 329.87 169.93 C 313.84 177.26 297.76 184.45 281.73 191.79 C 277.33 191.66 272.66 188.72 271.42 184.29 C 264.30 186.47 257.69 190.35 250.94 193.64 C 225.20 206.67 199.37 219.61 173.60 232.57 C 170.43 234.22 168.86 237.51 167.67 240.72 C 167.26 241.87 167.30 243.39 166.05 244.03 C 157.03 248.50 148.19 253.37 138.83 257.08 C 133.93 257.94 129.40 255.21 125.66 252.34 C 122.11 249.76 118.74 245.63 119.70 240.98 C 120.60 237.56 123.80 235.23 126.83 233.72 C 126.81 233.38 126.79 232.69 126.77 232.35 C 117.39 230.11 109.86 243.52 116.87 250.13 C 129.46 261.55 142.59 272.39 155.09 283.91 C 156.67 282.08 156.64 279.18 157.38 276.94 C 155.73 277.58 153.81 278.01 152.42 276.60 C 146.59 273.40 140.75 267.18 142.80 260.05 C 150.95 256.17 158.61 251.26 166.99 247.82 C 168.50 247.76 168.91 249.37 169.31 250.47 C 171.11 256.11 175.11 260.74 179.76 264.27 C 179.77 264.66 179.79 265.42 179.80 265.80 C 173.58 268.89 167.16 271.72 161.08 275.00 C 159.56 278.69 158.99 282.77 157.51 286.46 C 146.87 289.95 136.60 294.65 126.00 298.31 C 119.97 299.88 114.48 303.91 108.03 303.40 C 94.50 303.52 80.93 303.14 67.42 303.60 C 67.53 295.88 67.28 288.15 67.55 280.44 C 70.09 275.98 75.06 273.95 79.18 271.24 C 89.84 264.42 100.68 257.90 111.45 251.27 C 111.81 250.30 111.85 249.33 111.55 248.35 C 110.39 248.28 109.63 249.21 108.71 249.76 C 97.18 256.90 85.58 263.95 74.01 271.01 C 74.10 266.81 75.56 262.24 77.01 258.11 C 75.42 258.52 74.52 260.19 73.64 261.44 C 72.45 265.18 71.76 269.05 71.08 272.90 C 70.29 274.53 69.03 276.22 67.30 276.86 C 67.72 272.73 67.13 268.55 67.62 264.44 C 71.85 259.42 76.22 254.48 80.75 249.74 C 92.00 243.70 103.16 237.50 114.40 231.47 C 119.23 229.51 125.13 227.82 129.87 230.97 C 190.98 199.75 251.86 167.98 313.26 137.29 Z" />
<path fill="#3e3e3e" opacity="1.00" d=" M 314.39 141.48 C 315.46 139.94 317.17 140.66 318.52 141.30 C 322.84 142.97 326.33 146.25 328.73 150.16 C 332.39 154.58 332.83 161.72 329.22 166.31 C 327.09 167.74 324.75 166.13 322.75 165.28 C 316.88 161.75 312.90 155.61 311.23 149.04 C 310.88 146.16 312.51 143.51 314.39 141.48 Z" />
<path fill="#995935" opacity="1.00" d=" M 508.42 150.27 C 509.62 150.41 510.81 150.55 512.00 150.83 L 512.00 183.35 C 509.87 181.32 507.38 179.49 505.85 176.96 C 506.75 168.08 507.56 159.16 508.42 150.27 Z" />
<path fill="#995935" opacity="1.00" d=" M 15.55 156.57 C 16.95 155.07 17.81 152.95 19.74 152.05 C 19.91 157.04 20.10 162.04 20.10 167.04 C 20.37 169.29 18.14 170.46 16.69 171.72 C 11.03 175.73 5.68 180.17 0.00 184.17 L 0.00 175.24 C 5.36 169.17 10.34 162.76 15.55 156.57 Z" />
<path fill="#f5e5c1" opacity="1.00" d=" M 285.15 195.12 C 295.89 190.20 306.47 184.76 317.01 179.35 C 321.00 180.79 324.39 184.52 324.61 188.89 C 325.08 190.69 324.98 193.24 322.95 194.02 C 315.21 197.25 307.43 200.40 299.65 203.49 C 295.86 204.76 292.61 202.30 289.64 200.35 C 287.83 198.86 284.84 198.01 285.15 195.12 Z" />
<path fill="#995935" opacity="1.00" d=" M 505.39 179.99 C 507.26 181.81 507.17 184.64 507.97 186.98 C 509.35 191.45 510.07 196.13 512.00 200.41 L 512.00 208.36 C 509.04 207.89 506.12 207.27 503.22 206.54 C 502.47 204.84 503.22 202.97 503.31 201.22 C 503.99 194.14 504.84 187.08 505.39 179.99 Z" />
<path fill="#995935" opacity="1.00" d=" M 11.70 194.62 C 14.81 191.26 17.06 187.11 20.67 184.24 C 20.49 188.66 20.72 193.10 20.60 197.53 C 14.31 200.50 8.58 204.76 2.05 207.13 C 4.87 202.68 8.62 198.89 11.70 194.62 Z" />
<path fill="#f5e5c1" opacity="1.00" d=" M 266.50 190.52 C 267.89 190.46 268.20 192.24 269.11 193.00 C 272.43 196.03 277.10 196.93 281.45 196.31 C 281.77 201.70 287.12 204.26 290.99 207.03 C 294.77 210.30 299.87 207.10 304.07 207.80 C 302.24 213.09 296.64 216.44 291.10 215.64 C 284.32 214.49 278.41 210.07 274.46 204.56 C 270.51 200.74 268.67 195.37 266.50 190.52 Z" />
<path fill="#f5e5c1" opacity="1.00" d=" M 179.00 235.18 C 205.68 221.55 232.50 208.23 259.14 194.53 C 260.02 196.41 260.71 198.57 260.74 200.66 C 235.32 212.73 209.69 224.33 184.21 236.26 C 182.07 237.47 179.54 237.99 177.61 239.56 C 176.27 241.90 174.36 243.83 172.71 245.95 C 170.66 246.04 171.44 243.30 170.70 242.07 C 172.00 238.36 175.67 236.70 179.00 235.18 Z" />
<path fill="#f5e5c1" opacity="1.00" d=" M 179.44 242.56 C 205.93 230.11 232.49 217.84 258.97 205.39 C 261.68 205.68 264.32 206.42 267.05 206.66 C 271.47 209.61 274.43 214.28 279.18 216.85 C 284.97 219.37 292.06 222.60 298.04 218.72 C 298.49 218.86 299.40 219.14 299.85 219.28 L 299.98 220.06 C 297.07 224.06 294.08 228.12 290.77 231.85 C 284.99 236.76 279.28 241.85 272.54 245.47 C 263.04 251.01 253.53 256.72 242.97 260.01 C 234.07 262.73 225.29 265.84 216.40 268.58 C 213.48 269.40 210.37 269.15 207.39 268.86 C 201.92 268.60 196.03 269.55 191.03 266.91 C 185.89 263.14 181.32 258.67 176.65 254.35 C 175.71 253.08 174.62 251.28 175.87 249.82 C 177.24 247.51 177.69 244.53 179.44 242.56 Z" />
<path fill="#995935" opacity="1.00" d=" M 9.06 229.11 C 12.93 225.06 16.41 220.59 20.77 217.05 C 21.03 221.88 21.39 226.83 20.65 231.61 C 16.08 231.38 11.53 232.88 7.00 232.25 C 7.07 230.88 8.28 230.07 9.06 229.11 Z" />
<path fill="#3e3e3e" opacity="1.00" d=" M 245.65 225.86 C 245.99 224.33 247.50 223.06 249.14 223.56 C 251.41 226.91 251.47 231.50 254.56 234.39 C 257.96 237.72 260.40 242.12 264.78 244.31 L 265.03 244.99 C 264.02 246.08 262.55 246.71 261.13 247.02 C 254.22 241.52 247.70 234.74 245.65 225.86 Z" />
<path fill="#3e3e3e" opacity="1.00" d=" M 236.82 228.87 C 237.73 227.91 238.84 227.40 240.13 227.33 C 241.77 229.99 242.41 233.17 243.80 235.98 C 245.74 241.85 250.15 246.35 254.74 250.29 L 254.80 250.86 C 253.57 251.46 252.51 252.73 251.03 252.58 C 243.11 247.28 237.19 238.57 236.82 228.87 Z" />
<path fill="#995935" opacity="1.00" d=" M 0.00 233.25 C 1.69 233.17 3.38 233.11 5.06 233.15 C 3.60 235.07 1.82 236.71 0.00 238.29 L 0.00 233.25 Z" />
<path fill="#3e3e3e" opacity="1.00" d=" M 226.46 233.81 C 227.35 231.65 231.31 232.29 231.07 234.90 C 232.14 243.29 236.96 250.85 243.53 256.07 L 243.39 256.95 C 241.59 257.19 239.47 258.83 237.89 257.17 C 234.20 253.12 229.88 249.16 228.48 243.66 C 227.68 240.40 226.47 237.19 226.46 233.81 Z" />
<path fill="#3e3e3e" opacity="1.00" d=" M 215.80 237.96 C 216.87 237.65 217.95 237.34 219.02 237.03 C 219.78 240.05 221.35 242.76 222.36 245.69 C 224.36 251.00 228.28 255.28 232.44 259.03 L 232.67 260.13 C 231.57 260.97 230.33 261.40 228.95 261.44 C 222.68 257.14 218.32 250.31 216.18 243.07 C 215.99 241.41 214.88 239.54 215.80 237.96 Z" />
<path fill="#3e3e3e" opacity="1.00" d=" M 206.32 242.82 C 206.98 241.38 209.04 241.35 210.43 241.30 C 211.79 249.35 215.06 258.23 222.61 262.46 C 223.04 264.51 219.27 264.17 217.89 264.37 C 214.61 262.38 212.35 258.90 210.32 255.66 C 207.82 251.82 207.48 247.15 206.32 242.82 Z" />
<path fill="#3e3e3e" opacity="1.00" d=" M 196.66 246.87 C 197.84 246.44 199.01 245.97 200.16 245.46 C 202.77 252.89 205.95 260.72 212.46 265.58 C 212.61 265.88 212.89 266.48 213.04 266.77 C 210.58 266.58 207.71 267.36 206.00 265.11 C 201.09 260.33 197.22 253.74 196.66 246.87 Z" />
<path fill="#995935" opacity="1.00" d=" M 498.92 245.95 C 499.29 246.11 500.01 246.45 500.38 246.62 C 504.43 251.01 507.79 256.04 512.00 260.32 L 512.00 278.96 C 506.75 276.87 501.62 274.51 496.30 272.60 C 496.24 272.19 496.12 271.39 496.06 270.99 C 497.01 262.64 497.36 254.21 498.92 245.95 Z" />
<path fill="#995935" opacity="1.00" d=" M 16.18 249.12 C 17.96 248.38 19.63 247.20 21.61 247.15 C 21.71 253.10 21.78 259.06 21.94 265.01 C 21.98 266.90 21.95 269.05 20.47 270.46 C 15.71 276.06 11.20 281.87 6.37 287.40 C 4.33 289.77 2.65 292.54 0.00 294.32 L 0.00 256.05 C 5.44 253.84 10.79 251.43 16.18 249.12 Z" />
<path fill="#3e3e3e" opacity="1.00" d=" M 109.05 256.94 C 108.74 254.74 111.47 254.24 112.98 253.56 C 114.33 254.18 116.51 254.21 116.77 256.06 C 116.84 259.87 109.77 260.81 109.05 256.94 Z" />
<path fill="#3e3e3e" opacity="1.00" d=" M 107.18 265.30 C 111.19 264.98 116.03 266.00 119.04 268.97 C 121.17 271.61 120.09 274.93 118.67 277.59 C 106.89 282.75 94.85 287.49 83.01 292.58 C 78.21 294.28 71.32 289.30 73.94 284.05 C 74.09 282.30 76.02 281.99 77.19 281.18 C 87.16 275.83 97.27 270.77 107.18 265.30 Z" />
<path fill="#995935" opacity="1.00" d=" M 15.56 281.61 C 17.63 277.98 19.01 273.87 21.73 270.68 C 22.19 278.80 21.88 286.95 21.94 295.09 C 22.21 296.75 20.51 297.53 19.44 298.38 C 16.06 300.67 13.00 303.38 9.59 305.63 C 6.36 307.80 3.67 310.82 0.00 312.31 L 0.00 311.36 C 5.39 301.55 10.21 291.44 15.56 281.61 Z" />
<path fill="#f5e5c1" opacity="1.00" d=" M 80.90 285.94 C 89.98 281.76 98.93 277.25 108.06 273.21 C 110.83 272.02 114.00 275.28 111.89 277.76 C 101.85 281.92 91.94 286.36 81.94 290.61 C 80.05 291.56 78.44 289.41 77.61 287.99 C 78.42 286.91 79.76 286.53 80.90 285.94 Z" />
<path fill="#995935" opacity="1.00" d=" M 495.24 280.98 C 501.11 289.93 505.85 299.61 512.00 308.38 L 512.00 333.32 C 506.08 327.02 501.25 319.78 495.76 313.12 C 494.24 310.99 491.61 308.96 492.33 306.02 C 493.39 297.69 493.89 289.26 495.24 280.98 Z" />
<path fill="#3e3e3e" opacity="1.00" d=" M 141.25 282.17 C 143.63 280.52 148.60 281.54 148.37 285.01 C 147.98 289.22 141.46 289.39 139.86 285.89 C 138.67 284.45 139.79 282.76 141.25 282.17 Z" />
<path fill="#995935" opacity="1.00" d=" M 9.66 345.64 C 14.07 338.18 18.17 330.54 22.66 323.13 C 22.72 328.61 22.92 334.11 22.56 339.58 C 17.84 343.09 12.92 346.30 8.21 349.80 C 7.79 348.27 9.07 346.94 9.66 345.64 Z" />
<path fill="#995935" opacity="1.00" d=" M 489.25 336.05 C 497.21 338.97 504.10 344.19 512.00 347.24 L 512.00 380.24 C 504.99 373.52 498.32 366.48 491.46 359.62 C 489.86 357.66 487.15 355.94 487.57 353.07 C 487.92 347.37 488.65 341.71 489.25 336.05 Z" />
<path fill="#995935" opacity="1.00" d=" M 0.00 355.24 C 1.89 354.04 3.72 352.66 5.85 351.92 C 4.36 355.59 2.34 359.05 0.00 362.24 L 0.00 355.24 Z" />
<path fill="#995935" opacity="1.00" d=" M 0.00 380.37 C 7.87 373.27 15.02 365.39 22.72 358.09 C 22.80 366.39 22.60 374.68 22.71 382.98 C 22.95 386.73 20.45 389.83 18.92 393.06 C 12.51 404.43 6.71 416.18 0.00 427.36 L 0.00 380.37 Z" />
<path fill="#995935" opacity="1.00" d=" M 485.39 373.05 C 487.20 375.76 487.97 379.13 488.33 382.33 C 486.93 382.56 484.51 381.96 484.73 380.13 C 484.85 377.76 485.12 375.40 485.39 373.05 Z" />
<path fill="#995935" opacity="1.00" d=" M 489.74 383.92 C 497.44 386.26 504.43 390.43 512.00 393.16 L 512.00 456.51 C 511.35 455.27 510.72 454.04 510.33 452.71 C 504.09 432.26 497.86 411.81 491.57 391.38 C 490.89 388.91 489.74 386.51 489.74 383.92 Z" />
<path fill="#995935" opacity="1.00" d=" M 481.37 411.18 C 482.52 411.51 482.81 412.72 483.36 413.65 C 490.24 426.48 496.88 439.45 503.73 452.31 C 504.90 454.85 506.53 457.21 507.20 459.95 C 504.78 458.40 503.37 455.73 501.50 453.61 C 494.58 445.16 488.08 436.37 481.02 428.03 C 480.00 426.94 479.81 425.34 480.13 423.94 C 480.80 419.71 480.78 415.42 481.37 411.18 Z" />
<path fill="#995935" opacity="1.00" d=" M 11.21 421.21 C 13.41 418.09 14.99 414.43 17.99 411.96 C 15.25 419.20 10.75 425.59 7.58 432.62 C 4.89 437.10 2.91 441.98 0.00 446.32 L 0.00 437.29 C 4.08 432.17 7.35 426.48 11.21 421.21 Z" />
<path fill="#995935" opacity="1.00" d=" M 478.19 444.11 C 487.26 450.44 495.61 457.87 504.33 464.71 C 506.86 466.60 509.04 469.03 512.00 470.28 L 512.00 511.02 C 508.83 510.87 505.51 511.50 502.45 510.56 C 495.73 499.69 488.35 489.25 481.57 478.42 C 479.70 475.24 477.08 472.47 475.72 469.02 C 475.50 464.70 476.43 460.42 476.81 456.13 C 477.30 452.13 477.22 448.04 478.19 444.11 Z" />
<path fill="#995935" opacity="1.00" d=" M 20.81 448.75 C 21.21 448.57 22.02 448.22 22.42 448.05 C 22.57 449.03 22.30 450.19 23.00 451.02 C 24.91 451.42 26.87 451.26 28.80 451.42 C 28.78 454.40 27.71 457.20 26.99 460.06 C 22.77 476.94 18.65 493.84 14.54 510.75 C 9.71 511.26 4.84 510.90 0.00 511.02 L 0.00 470.11 C 6.82 462.87 13.88 455.88 20.81 448.75 Z" />
<path fill="#995935" opacity="1.00" d=" M 36.27 453.29 C 40.25 453.59 44.22 453.07 48.19 453.07 C 48.26 455.23 46.76 457.03 46.02 458.99 C 38.39 476.27 30.49 493.43 22.82 510.69 C 22.10 510.77 20.68 510.94 19.96 511.03 L 19.79 510.05 C 25.19 491.11 30.98 472.27 36.27 453.29 Z" />
<path fill="#995935" opacity="1.00" d=" M 56.66 453.64 C 56.99 453.40 57.64 452.91 57.96 452.67 C 66.25 452.50 74.51 453.07 82.79 453.37 C 76.86 472.54 69.47 491.29 63.40 510.43 C 59.49 511.59 55.17 510.92 51.12 510.79 C 54.22 500.95 58.26 491.40 61.56 481.61 C 64.61 472.67 68.59 464.01 71.00 454.87 C 69.08 456.05 68.26 458.29 66.93 460.01 C 61.59 468.39 55.63 476.35 50.54 484.88 C 50.17 483.95 50.13 483.00 50.42 482.03 C 52.64 472.60 54.57 463.09 56.66 453.64 Z" />
<path fill="#995935" opacity="1.00" d=" M 84.02 453.70 C 91.59 453.43 99.25 453.68 106.79 454.33 C 105.93 459.99 102.89 465.18 102.21 470.88 C 105.28 466.52 107.55 461.68 110.13 457.03 C 110.73 455.93 111.37 454.24 112.96 454.55 C 116.18 454.63 119.55 454.22 122.63 455.33 C 122.55 463.53 122.80 471.73 123.43 479.91 C 123.95 471.72 124.91 463.55 125.41 455.37 C 128.10 454.58 130.91 455.31 133.65 455.39 C 133.64 456.07 133.62 457.42 133.62 458.10 C 130.86 475.67 128.67 493.33 125.97 510.91 C 125.49 510.90 124.54 510.88 124.06 510.87 C 123.57 502.00 123.39 493.08 123.65 484.20 C 123.37 484.48 122.80 485.06 122.51 485.35 C 122.12 493.92 120.81 502.41 120.06 510.95 C 109.97 511.06 99.87 511.10 89.78 510.90 C 90.14 506.37 92.46 502.12 93.49 497.67 C 95.41 490.36 98.60 483.36 99.87 475.92 C 93.44 485.64 88.70 496.47 82.19 506.10 C 82.30 488.62 83.56 471.17 84.02 453.70 Z" />
<path fill="#995935" opacity="1.00" d=" M 153.74 464.94 C 154.66 462.46 154.90 459.35 156.98 457.56 C 161.60 464.99 164.04 473.64 168.82 481.03 C 173.91 490.41 179.68 499.41 184.52 508.92 C 184.45 509.42 184.31 510.41 184.24 510.90 C 169.15 511.06 154.04 511.13 138.96 510.85 C 138.76 509.16 139.70 507.61 140.14 506.04 C 144.68 492.34 149.26 478.65 153.74 464.94 Z" />
<path fill="#995935" opacity="1.00" d=" M 179.40 460.26 C 180.54 459.81 181.72 459.72 182.93 459.98 C 192.31 461.03 201.77 461.40 211.12 462.76 C 212.12 464.98 210.92 467.49 211.49 469.80 C 211.81 467.56 212.15 465.30 212.89 463.15 C 215.33 462.50 217.94 463.12 220.38 463.57 C 221.61 479.37 223.04 495.18 224.02 511.01 C 218.98 510.99 213.95 511.00 208.91 511.04 C 209.01 499.02 211.04 487.05 210.58 475.03 C 209.24 485.72 207.45 496.43 205.83 507.11 C 205.49 508.30 205.78 509.76 204.90 510.76 C 199.29 511.26 193.64 510.92 188.02 511.02 C 186.22 511.36 184.95 509.61 184.58 508.09 C 182.65 492.19 181.26 476.19 179.40 460.26 Z" />
<path fill="#995935" opacity="1.00" d=" M 234.85 464.91 C 240.20 464.84 245.56 465.79 250.91 466.23 C 251.07 468.34 249.97 470.26 249.28 472.20 C 246.40 480.09 243.49 487.98 240.70 495.91 L 239.96 496.51 C 238.08 492.62 238.52 487.85 237.47 483.63 C 236.68 477.39 234.87 471.14 234.85 464.91 Z" />
<path fill="#995935" opacity="1.00" d=" M 283.40 471.26 C 284.81 470.21 286.57 471.08 288.13 471.21 C 293.30 472.16 298.50 473.02 303.59 474.38 C 306.29 486.59 309.54 498.70 312.05 510.94 C 300.75 510.98 289.44 511.20 278.16 510.86 C 279.59 497.62 281.56 484.44 283.40 471.26 Z" />
<path fill="#995935" opacity="1.00" d=" M 266.75 476.96 C 266.92 475.95 267.21 474.98 267.64 474.05 C 268.72 486.28 269.26 498.57 269.82 510.81 C 267.01 511.07 264.02 511.32 261.27 510.65 C 263.14 499.42 264.94 488.19 266.75 476.96 Z" />
<path fill="#995935" opacity="1.00" d=" M 308.60 475.74 C 311.12 475.60 313.55 476.51 316.00 477.01 C 322.24 478.65 328.60 479.77 334.86 481.35 C 333.97 491.20 331.72 500.90 330.73 510.74 C 327.19 511.04 323.61 511.21 320.08 510.82 C 316.59 501.23 313.30 491.58 310.05 481.90 C 309.44 479.88 308.10 477.93 308.60 475.74 Z" />
<path fill="#995935" opacity="1.00" d=" M 474.11 485.02 L 474.98 484.77 C 482.14 493.54 489.63 502.04 496.85 510.75 C 490.28 511.17 483.64 511.14 477.06 510.83 C 475.21 506.08 474.25 500.90 472.96 495.94 C 472.87 492.30 473.33 488.56 474.11 485.02 Z" />
<path fill="#995935" opacity="1.00" d=" M 356.86 486.71 C 361.86 486.66 366.74 488.59 371.68 489.40 C 371.36 496.60 368.97 503.71 367.95 510.89 C 366.73 511.11 365.52 511.07 364.33 510.78 C 361.91 503.10 359.39 495.46 356.80 487.83 L 356.86 486.71 Z" />
<path fill="#995935" opacity="1.00" d=" M 48.24 488.13 L 49.08 487.94 C 47.57 495.59 46.11 503.38 43.99 510.82 C 40.39 511.08 36.73 511.17 33.13 510.73 C 38.12 503.17 43.16 495.63 48.24 488.13 Z" />
<path fill="#995935" opacity="1.00" d=" M 382.09 492.14 C 385.12 492.06 388.01 493.11 390.94 493.75 C 396.13 495.05 401.44 495.90 406.59 497.40 C 408.26 501.83 410.08 506.34 411.17 510.92 C 400.81 511.06 390.42 511.12 380.06 510.86 C 380.37 504.59 381.26 498.35 382.09 492.14 Z" />
<path fill="#995935" opacity="1.00" d=" M 239.46 499.13 C 241.12 502.71 241.01 506.84 241.79 510.67 C 239.67 511.16 237.46 511.04 235.32 510.76 C 236.67 506.87 238.18 503.04 239.46 499.13 Z" />
<path fill="#995935" opacity="1.00" d=" M 417.04 500.03 C 419.60 499.47 422.30 500.93 424.85 501.40 C 425.50 504.43 425.45 507.80 424.87 510.84 C 423.67 511.07 422.49 511.02 421.33 510.70 C 419.86 507.16 417.96 503.76 417.04 500.03 Z" />
<path fill="#995935" opacity="1.00" d=" M 460.26 508.36 C 464.02 508.42 466.89 506.23 469.72 504.09 C 470.57 506.31 471.33 508.57 471.99 510.86 C 468.08 511.11 464.13 511.08 460.24 510.72 C 460.25 510.13 460.26 508.95 460.26 508.36 Z" />
<path fill="#995935" opacity="1.00" d=" M 443.22 505.37 C 446.80 506.22 450.44 506.90 453.95 508.02 C 455.24 508.36 455.49 509.76 455.86 510.85 C 451.60 511.06 447.30 511.12 443.04 510.82 C 442.55 509.14 442.26 506.93 443.22 505.37 Z" />
<path fill="#995935" opacity="1.00" d=" M 81.18 508.20 C 82.81 508.12 82.62 511.25 81.00 511.13 C 79.35 510.90 80.04 508.60 81.18 508.20 Z" />
</svg>
