<?xml version="1.0" encoding="UTF-8" standalone="no"?>
<svg
   xmlns:dc="http://purl.org/dc/elements/1.1/"
   xmlns:cc="http://creativecommons.org/ns#"
   xmlns:rdf="http://www.w3.org/1999/02/22-rdf-syntax-ns#"
   xmlns:svg="http://www.w3.org/2000/svg"
   xmlns="http://www.w3.org/2000/svg"
   xmlns:sodipodi="http://sodipodi.sourceforge.net/DTD/sodipodi-0.dtd"
   xmlns:inkscape="http://www.inkscape.org/namespaces/inkscape"
   width="512pt"
   height="512pt"
   viewBox="0 0 512 512"
   version="1.1"
   id="svg2"
   inkscape:version="0.48.1 "
   sodipodi:docname="freezecam_gibs.svg">
  <metadata
     id="metadata158">
    <rdf:RDF>
      <cc:Work
         rdf:about="">
        <dc:format>image/svg+xml</dc:format>
        <dc:type
           rdf:resource="http://purl.org/dc/dcmitype/StillImage" />
      </cc:Work>
    </rdf:RDF>
  </metadata>
  <defs
     id="defs156" />
  <sodipodi:namedview
     pagecolor="#ffffff"
     bordercolor="#666666"
     borderopacity="1"
     objecttolerance="10"
     gridtolerance="10"
     guidetolerance="10"
     inkscape:pageopacity="0"
     inkscape:pageshadow="2"
     inkscape:window-width="1920"
     inkscape:window-height="1018"
     id="namedview154"
     showgrid="false"
     inkscape:snap-page="true"
     inkscape:zoom="0.9625"
     inkscape:cx="189.31549"
     inkscape:cy="317.52104"
     inkscape:window-x="-8"
     inkscape:window-y="-8"
     inkscape:window-maximized="1"
     inkscape:current-layer="svg2" />
  <rect
     style="fill:#3e3e3e;fill-opacity:1;fill-rule:nonzero;stroke:none"
     id="rect3138"
     width="640"
     height="640"
     x="0"
     y="0"
     transform="scale(0.8,0.8)" />
  <path
     fill="#f5e5c1"
     opacity="1.00"
     d=" M 0.74 0.00 L 173.77 0.00 C 173.41 2.54 173.05 5.08 172.67 7.62 C 127.60 7.57 82.52 7.62 37.45 7.60 C 39.11 30.84 40.64 54.09 42.54 77.31 C 32.39 72.95 22.39 68.27 12.15 64.14 C 22.73 77.74 33.96 90.84 44.59 104.40 C 45.79 121.16 47.50 137.89 48.73 154.66 C 40.82 156.99 32.92 159.34 25.06 161.83 C 33.36 164.08 41.76 165.95 50.09 168.09 C 50.17 169.33 50.26 170.57 50.35 171.81 C 44.38 175.56 38.21 179.00 32.47 183.09 C 38.81 183.63 45.13 184.33 51.47 184.83 C 56.06 241.27 61.46 297.67 65.89 354.12 C 69.11 352.78 72.61 352.55 76.02 352.03 C 118.50 345.60 160.99 339.18 203.48 332.76 C 208.60 332.04 213.68 331.05 218.84 330.66 C 204.03 344.92 188.91 358.86 173.99 373.01 C 171.30 375.73 168.21 378.06 165.85 381.09 C 192.04 370.71 217.90 359.46 244.02 348.88 C 254.06 373.27 263.94 397.73 273.96 422.13 C 281.46 398.72 288.99 375.32 296.33 351.87 C 312.38 366.09 328.06 380.73 344.14 394.93 C 341.00 376.07 337.16 357.34 333.93 338.50 C 360.76 345.05 387.38 352.54 414.23 359.03 C 396.09 345.77 377.84 332.66 359.68 319.43 C 371.11 318.91 382.48 317.14 393.94 317.39 C 415.13 317.42 436.33 317.36 457.53 317.42 C 457.62 262.60 457.56 207.78 457.56 152.96 C 464.75 153.36 471.93 153.97 479.13 154.19 L 479.12 154.67 C 477.50 243.11 475.82 331.55 474.31 419.98 C 474.15 427.21 474.53 434.47 473.67 441.66 C 459.48 440.65 445.29 439.45 431.08 438.75 C 367.72 444.39 304.38 450.23 241.03 455.94 C 237.96 456.20 234.88 456.40 231.87 457.04 C 172.05 470.36 112.24 483.73 52.41 497.03 C 35.17 331.35 17.97 165.68 0.74 0.00 Z"
     id="path6" />
  <path
     fill="#f5722c"
     opacity="1.00"
     d=" M 173.77 0.00 L 174.92 0.00 C 175.46 2.53 175.87 5.09 176.41 7.62 C 184.37 45.10 192.24 82.59 200.14 120.07 C 201.23 124.29 202.16 128.62 201.58 133.00 C 200.58 143.41 199.65 153.83 198.57 164.23 C 187.32 153.65 176.47 142.64 165.27 132.00 C 169.86 146.94 175.13 161.66 179.79 176.57 C 169.17 173.33 158.60 169.92 147.98 166.67 C 152.22 176.12 156.83 185.40 161.10 194.84 C 124.54 191.66 88.02 188.14 51.47 184.83 C 45.13 184.33 38.81 183.63 32.47 183.09 C 38.21 179.00 44.38 175.56 50.35 171.81 C 51.69 170.99 52.97 170.05 54.19 169.05 C 52.82 168.72 51.45 168.41 50.09 168.09 C 41.76 165.95 33.36 164.08 25.06 161.83 C 32.92 159.34 40.82 156.99 48.73 154.66 C 58.51 151.65 68.33 148.80 78.11 145.77 C 67.20 131.78 55.88 118.09 44.59 104.40 C 33.96 90.84 22.73 77.74 12.15 64.14 C 22.39 68.27 32.39 72.95 42.54 77.31 C 66.60 87.83 90.62 98.48 114.75 108.86 C 104.07 78.42 93.22 48.04 82.69 17.56 C 84.13 19.00 85.55 20.47 87.07 21.83 C 108.92 40.25 130.89 58.52 152.72 76.95 C 153.03 67.84 152.71 58.72 152.88 49.61 C 157.22 52.80 160.47 57.28 165.05 60.13 C 167.49 42.61 170.18 25.13 172.67 7.62 C 173.05 5.08 173.41 2.54 173.77 0.00 Z"
     id="path8" />
  <path
     fill="#f5e5c1"
     opacity="1.00"
     d=" M 174.92 0.00 L 291.63 0.00 C 292.76 2.51 293.70 5.09 294.73 7.64 C 255.29 7.57 215.85 7.60 176.41 7.62 C 175.87 5.09 175.46 2.53 174.92 0.00 Z"
     id="path10" />
  <path
     fill="#f5722c"
     opacity="1.00"
     d=" M 291.63 0.00 L 298.83 0.00 C 301.63 2.54 304.35 5.17 307.21 7.65 C 319.43 19.17 331.95 30.37 344.19 41.87 C 354.16 30.57 363.89 19.04 373.68 7.59 C 375.89 5.08 378.04 2.52 380.25 0.00 L 395.14 0.00 C 396.21 2.36 394.91 5.12 394.86 7.62 C 393.03 23.46 391.10 39.30 389.29 55.14 C 408.94 39.59 428.22 23.55 447.60 7.67 C 450.78 5.15 453.88 2.54 457.05 0.00 L 461.00 0.00 C 459.79 2.85 458.79 5.78 457.74 8.69 C 451.41 25.72 444.84 42.66 438.86 59.81 C 445.11 58.81 451.33 57.55 457.58 56.49 C 465.31 55.08 473.03 53.68 480.76 52.29 C 483.22 51.85 485.68 51.42 488.14 50.98 C 496.11 49.69 503.98 47.84 512.00 46.90 L 512.00 47.60 C 503.75 53.34 495.81 59.51 487.53 65.21 C 485.22 66.97 482.95 68.79 480.58 70.47 C 472.89 75.96 465.29 81.56 457.66 87.13 C 452.36 91.04 446.98 94.85 441.74 98.83 C 447.00 101.87 452.34 104.76 457.65 107.72 C 465.02 111.81 472.37 115.92 479.74 119.99 C 488.17 124.72 496.66 129.34 505.08 134.12 C 507.38 135.41 509.74 136.63 512.00 138.01 L 512.00 156.29 C 507.20 155.97 502.40 155.86 497.61 155.49 L 496.89 155.40 C 490.98 154.90 485.06 154.36 479.13 154.19 C 471.93 153.97 464.75 153.36 457.56 152.96 C 436.32 151.46 415.05 150.56 393.78 149.69 C 402.02 138.62 410.31 127.59 418.64 116.58 C 419.06 115.69 420.46 114.81 419.60 113.78 C 406.98 113.11 394.35 112.88 381.73 112.25 C 377.28 94.85 372.82 77.46 368.32 60.07 C 357.05 65.36 346.19 71.51 335.06 77.12 C 331.58 78.76 328.33 80.98 324.59 82.04 C 314.92 57.13 304.64 32.45 294.73 7.64 C 293.70 5.09 292.76 2.51 291.63 0.00 Z"
     id="path12" />
  <path
     fill="#f5e5c1"
     opacity="1.00"
     d=" M 298.83 0.00 L 380.25 0.00 C 378.04 2.52 375.89 5.08 373.68 7.59 C 351.53 7.64 329.37 7.54 307.21 7.65 C 304.35 5.17 301.63 2.54 298.83 0.00 Z"
     id="path14" />
  <path
     fill="#f5e5c1"
     opacity="1.00"
     d=" M 395.14 0.00 L 457.05 0.00 C 453.88 2.54 450.78 5.15 447.60 7.67 C 430.02 7.53 412.44 7.62 394.86 7.62 C 394.91 5.12 396.21 2.36 395.14 0.00 Z"
     id="path16" />
  <path
     fill="#f5e5c1"
     opacity="1.00"
     d=" M 461.00 0.00 L 482.37 0.00 C 481.31 5.96 481.80 12.02 481.59 18.03 C 481.31 29.45 481.52 40.88 480.76 52.29 C 473.03 53.68 465.31 55.08 457.58 56.49 C 457.67 40.56 457.36 24.62 457.74 8.69 C 458.79 5.78 459.79 2.85 461.00 0.00 Z"
     id="path18" />
  <path
     fill="#985834"
     opacity="1.00"
     d=" M 488.06 0.00 L 512.00 0.00 L 512.00 46.90 C 503.98 47.84 496.11 49.69 488.14 50.98 C 488.32 33.99 488.09 16.99 488.06 0.00 Z"
     id="path22" />
  <path
     d="M 345 46.21875 C 332.375 52.85625 319.64375 59.2375 307.03125 65.875 C 301.26875 69.975 296.13125 74.925 290.59375 79.3125 C 284.38125 84.9625 276.825 88.76875 269.3125 92.34375 C 267.6875 107.73125 265.6625 123.08125 263.875 138.46875 C 271.25 144.91875 278.69375 151.3125 286.09375 157.75 C 288.79375 160.075 291.325 162.75 294.6875 164.125 C 301.9 167.3625 309.0625 170.74375 316.25 174.03125 C 313.8 184.03125 311.25625 194 308.78125 204 C 316.15625 203.2 323.5875 202.925 330.9375 201.875 C 325.45 206.1625 319.84375 210.3375 314.84375 215.1875 C 321.56875 215.2625 328.30625 214.85625 335.03125 215.28125 C 341.26875 215.64375 347.75625 215.1375 353.65625 217.5625 L 352.875 215.3125 C 357.4625 215.1375 362.0875 215.31875 366.6875 215.21875 C 363.0875 209.93125 358.55625 205.3125 355.21875 199.875 C 360.93125 199.4125 366.61875 198.8375 372.34375 198.4375 C 372.81875 191.625 373.84375 184.80625 373.78125 177.96875 C 359.54375 177.49375 345.375 175.675 331.125 175.375 C 324.425 168.6375 317.03125 162.59375 310.03125 156.15625 C 317.04375 159.76875 323.2125 164.8375 330.125 168.625 C 344.6 170.5625 359.175 171.8875 373.6875 173.625 C 376.2 174.075 378.7125 173.46875 380.875 172.15625 C 388.925 167.66875 397.0125 163.175 405 158.5625 C 400.8875 151.1125 395.8375 144.25 391.375 137 C 391.65 136.45 392.225 135.33125 392.5 134.78125 C 386.5375 138.76875 378.3 136.58125 371.8125 139.34375 C 365.7125 144.05625 359.81875 149.0375 353.71875 153.75 C 355.39375 148.3 356.8125 142.75 358.5 137.3125 C 358.9 135.7875 360.38125 135.00625 361.46875 134.03125 C 367.15625 129.59375 372.7125 124.98125 378.4375 120.59375 C 376.4 118.03125 374.4 115.45 372.375 112.875 C 362.4 117.3375 352.40625 121.7875 342.46875 126.3125 C 342.05625 130.4625 341.66875 134.5875 341.28125 138.75 C 324.56875 133.4 307.775 128.2875 291.125 122.75 C 290.8875 122.3125 290.39375 121.4375 290.15625 121 C 291.13125 111.9125 292.6 102.85625 293.75 93.78125 C 291.9625 92.45625 289.06875 91.55 287.96875 89.9375 C 293.83125 83.8375 301.14375 78.9875 307.09375 72.875 C 306.40625 72.9375 305.0125 73.0625 304.3125 73.125 C 306.4 71.5125 308.6125 69.89375 311.3125 69.53125 C 321.7 67.59375 332.0875 65.6625 342.5 63.8125 C 343.325 57.95 344.1625 52.08125 345 46.21875 z M 285 130.1875 C 289.2625 132.45 286.3375 137.5 286.25 141.1875 C 289.125 143.775 292.075 146.2875 295.0625 148.75 C 298.7875 148.7125 302.5125 148.725 306.25 148.75 C 307.5125 150.4 308.75625 152.0875 310.03125 153.75 C 304.15625 153.3625 298.26875 152.95 292.40625 152.4375 C 289.10625 149.0875 285.75625 145.7875 282.46875 142.4375 C 283.35625 138.35 284.0625 134.2625 285 130.1875 z "
     transform="scale(0.8,0.8)"
     id="path34"
     style="fill:#f5e5c1" />
  <path
     fill="#985834"
     opacity="1.00"
     d=" M 487.53 65.21 C 495.81 59.51 503.75 53.34 512.00 47.60 L 512.00 111.52 C 510.78 110.37 509.52 109.27 508.27 108.18 C 508.40 113.54 508.64 118.89 508.69 124.26 C 502.70 122.34 497.35 118.94 491.57 116.52 C 490.50 115.78 488.36 115.53 488.44 113.88 C 488.39 104.89 488.40 95.89 488.41 86.90 C 495.45 93.20 501.07 100.92 508.03 107.32 C 508.12 99.91 507.76 92.50 507.50 85.11 C 507.54 83.53 505.78 82.95 504.76 82.14 C 499.30 79.00 493.88 75.79 488.47 72.57 C 488.40 70.09 488.45 67.55 487.53 65.21 Z"
     id="path36" />
  <path
     style="fill:#f5e5c1"
     d="M 355.59375 65.5 C 339.65625 67.5125 323.5875 69.05625 307.75 71.46875 C 307.85 72.84375 307.6125 74.19375 307 75.46875 C 305.225 75.45625 304.21875 77.01875 303.09375 78.09375 C 298.79375 82.53125 294.38125 86.8625 290.03125 91.25 C 293.35625 91.2625 296.6625 91.2625 300 91.25 C 297.9875 96.275 295.68125 101.18125 293.90625 106.28125 C 293.95625 111.15625 294.6375 115.99375 295.0625 120.84375 C 310.0625 125.49375 325.0125 130.3 340 135 C 340.4125 131.275 340.83125 127.55 341.21875 123.8125 C 350.40625 120.0125 359.6375 116.23125 368.875 112.53125 C 370.6375 112.33125 370.825 110.4125 371.8125 109.3125 C 376.0125 105.075 381.35 101.875 385 97.125 C 380.0875 95.8125 375.2 94.3375 370.3125 93 C 370.6 89.5 370.9 86 371.25 82.5 C 366.5 79.3375 361.50625 76.5 356.90625 73.125 C 355.70625 70.8375 356.08125 68 355.59375 65.5 z M 357.5 81.125 C 360.4125 82.4 363.3375 83.7125 366.25 85 C 367.1 87.5375 367.95 90.025 368.8125 92.5625 C 365.6 91.65 362.39375 90.75 359.21875 89.75 C 358.70625 86.8625 358.1125 83.9875 357.5 81.125 z M 336.25 85.125 C 340.8375 85.2 345.3625 85.95625 349.9375 86.28125 C 346.1375 91.45625 344.9 97.88125 342.5 103.71875 C 336.75 106.15625 331.1 108.825 325.25 111 C 329.3125 107.35 333.39375 103.7125 337.46875 100.0625 C 337.48125 99.125 337.4875 97.25 337.5 96.3125 C 329.925 95.4375 322.08125 96.25 314.65625 94.5 C 321.88125 91.4625 328.9125 87.875 336.25 85.125 z "
     transform="scale(0.8,0.8)"
     id="path38" />
  <path
     fill="#f5e5c1"
     opacity="1.00"
     d=" M 457.66 87.13 C 465.29 81.56 472.89 75.96 480.58 70.47 C 480.58 86.99 479.85 103.48 479.74 119.99 C 472.37 115.92 465.02 111.81 457.65 107.72 C 457.52 100.86 457.53 93.99 457.66 87.13 Z"
     id="path46" />
  <path
     fill="#985834"
     opacity="1.00"
     d=" M 0.00 75.39 C 2.04 87.85 2.65 100.51 4.12 113.05 C 4.85 117.07 2.03 120.31 0.00 123.43 L 0.00 75.39 Z"
     id="path48" />
  <path
     fill="#985834"
     opacity="1.00"
     d=" M 508.85 125.11 C 509.90 125.37 510.95 125.64 512.00 125.92 L 512.00 138.01 C 509.74 136.63 507.38 135.41 505.08 134.12 C 506.30 134.22 507.47 134.07 508.59 133.65 C 509.08 130.83 508.83 127.96 508.85 125.11 Z"
     id="path56" />
  <path
     fill="#985834"
     opacity="1.00"
     d=" M 0.00 152.20 C 2.54 151.06 5.18 150.15 7.78 149.15 C 8.19 154.12 8.77 159.08 9.23 164.04 C 9.72 168.45 7.97 172.64 7.09 176.88 C 8.09 175.96 9.08 175.03 10.07 174.11 C 11.43 184.76 12.39 195.47 13.39 206.16 C 9.00 207.56 4.47 208.39 0.00 209.45 L 0.00 201.74 C 2.66 194.19 4.50 186.37 6.32 178.59 C 4.16 180.52 1.99 182.44 0.00 184.56 L 0.00 152.20 Z"
     id="path58" />
  <path
     fill="#985834"
     opacity="1.00"
     d=" M 479.13 154.19 C 485.06 154.36 490.98 154.90 496.89 155.40 L 495.92 156.14 C 496.08 156.49 496.39 157.19 496.54 157.55 C 501.55 163.93 506.91 170.04 512.00 176.37 L 512.00 185.19 C 504.17 179.31 496.27 173.50 488.57 167.44 C 488.63 163.33 488.63 159.21 488.41 155.10 C 485.31 154.92 482.21 154.77 479.12 154.67 L 479.13 154.19 Z"
     id="path60" />
  <path
     fill="#985834"
     opacity="1.00"
     d=" M 497.61 155.49 C 502.40 155.86 507.20 155.97 512.00 156.29 L 512.00 170.83 C 507.12 165.80 501.70 161.22 497.61 155.49 Z"
     id="path64" />
  <path
     fill="#f5e5c1"
     opacity="1.00"
     d=" M 334.00 193.10 C 346.36 188.54 358.82 184.27 371.15 179.63 C 375.88 193.05 380.23 206.60 384.73 220.09 C 377.44 222.89 370.13 225.65 362.88 228.57 C 367.31 228.20 371.82 229.75 376.14 228.25 C 382.53 226.30 389.44 225.75 395.28 222.31 C 400.62 219.65 405.92 216.91 411.31 214.34 C 415.79 213.01 420.42 212.12 425.01 211.21 C 426.93 214.41 427.98 218.11 429.66 221.47 C 425.81 224.37 421.76 226.98 417.88 229.83 C 413.61 233.35 407.78 233.40 402.71 235.04 C 403.20 239.03 403.73 243.02 404.20 247.02 C 410.32 245.46 416.50 244.10 422.56 242.34 C 427.44 240.50 432.25 238.48 437.09 236.53 C 440.11 238.01 443.13 239.49 446.11 241.06 C 442.60 246.54 439.13 252.05 435.63 257.54 C 427.38 259.83 419.22 262.47 410.94 264.64 C 422.72 263.18 434.39 260.80 446.14 259.02 C 447.05 262.56 448.33 266.01 449.03 269.61 C 444.62 272.28 440.32 275.10 435.97 277.86 C 434.43 278.75 433.00 280.27 431.05 279.92 C 418.69 279.45 406.34 278.89 393.97 278.52 C 404.79 282.51 415.62 286.49 426.49 290.32 C 424.26 293.05 421.70 295.56 419.03 297.85 C 412.07 298.92 405.10 300.11 398.10 300.74 C 380.65 290.92 363.22 281.02 345.94 270.91 C 342.18 263.26 339.06 255.29 335.50 247.53 C 334.45 245.02 332.99 242.62 332.64 239.89 C 332.80 224.29 333.82 208.70 334.00 193.10 Z"
     id="path70" />
  <path
     fill="#f5722c"
     opacity="1.00"
     d=" M 217.10 206.96 C 227.45 195.22 241.68 186.82 257.05 183.73 C 268.81 182.58 281.00 183.16 292.03 187.75 C 304.02 191.86 314.04 201.77 317.52 214.05 C 319.09 220.22 320.16 226.90 317.89 233.05 C 314.11 244.86 303.52 253.13 292.40 257.68 C 292.07 257.93 291.42 258.42 291.09 258.66 C 298.29 261.40 305.61 266.16 308.10 273.83 C 309.74 280.00 308.21 287.06 303.75 291.72 C 298.31 297.31 290.67 300.51 283.00 301.42 C 275.94 301.42 268.70 302.15 261.84 300.13 C 255.79 298.32 249.81 295.92 244.80 292.01 C 244.71 291.76 244.52 291.28 244.43 291.03 C 246.61 286.47 248.70 281.86 250.71 277.21 C 253.09 277.27 254.93 278.95 257.05 279.83 C 264.09 283.08 272.23 285.10 279.89 282.93 C 282.31 281.90 285.34 280.07 284.84 276.98 C 284.39 273.14 280.86 270.59 277.50 269.32 C 269.84 266.62 261.61 266.93 253.62 266.68 C 253.05 260.90 251.85 255.20 251.31 249.42 C 259.12 249.21 267.17 248.60 274.48 245.64 C 278.83 243.82 283.48 240.85 284.46 235.87 C 284.90 230.12 280.46 224.46 274.83 223.30 C 270.03 221.93 265.04 223.32 260.42 224.73 C 252.89 227.15 246.43 231.81 240.18 236.51 C 232.55 226.61 224.92 216.71 217.10 206.96 Z"
     id="path72" />
  <path
     fill="#985834"
     opacity="1.00"
     d=" M 488.79 182.34 C 490.36 182.96 491.31 184.42 492.34 185.68 C 498.16 193.20 504.36 200.43 510.04 208.07 C 506.96 207.62 504.53 205.53 501.83 204.18 C 497.83 201.80 493.58 199.87 489.65 197.40 C 489.43 197.06 488.98 196.39 488.76 196.05 C 488.56 191.48 488.68 186.91 488.79 182.34 Z"
     id="path74" />
  <path
     fill="#f5e5c1"
     opacity="1.00"
     d=" M 194.17 211.31 C 197.73 211.05 201.28 211.56 204.82 211.80 C 205.82 216.32 206.34 220.93 207.44 225.43 C 211.05 225.70 214.84 225.54 218.31 226.66 C 220.46 229.51 222.48 232.45 224.64 235.30 C 218.47 235.84 212.25 236.35 206.14 237.30 C 200.50 241.50 195.34 246.39 189.97 250.95 C 190.77 255.74 193.03 260.18 193.76 264.97 C 185.33 272.12 176.21 278.59 167.75 285.76 C 158.64 295.37 149.26 304.74 140.40 314.60 C 135.28 312.21 129.87 310.50 124.66 308.36 C 121.67 306.01 119.76 302.58 117.05 299.93 C 120.22 292.85 126.10 287.42 130.20 280.89 C 126.92 283.16 124.12 286.03 120.96 288.46 C 113.84 285.40 106.20 283.62 98.91 280.97 C 91.20 271.48 83.25 262.06 75.45 252.59 C 74.60 251.60 74.04 250.39 73.91 249.09 C 73.40 244.69 72.68 240.31 72.09 235.92 C 70.62 231.37 73.78 227.27 75.10 223.09 C 77.08 221.41 79.59 220.46 81.85 219.19 C 84.31 221.65 86.77 224.16 88.83 226.97 C 90.78 230.93 92.05 235.20 93.67 239.30 C 93.96 232.58 90.98 226.46 89.07 220.20 C 91.24 219.87 94.64 218.36 95.91 221.02 C 100.33 229.33 104.78 237.62 109.06 246.00 C 114.56 249.07 120.10 252.08 125.52 255.29 C 126.88 256.15 128.51 255.65 129.97 255.35 C 136.63 253.15 143.48 251.52 150.12 249.24 C 153.45 240.55 156.82 231.87 160.23 223.22 C 160.60 221.87 162.20 221.70 163.29 221.23 C 166.70 220.11 170.03 218.73 173.58 218.07 C 176.58 223.86 180.23 229.29 183.36 235.01 C 187.71 231.75 191.22 227.50 195.34 223.96 C 195.21 219.72 194.55 215.52 194.17 211.31 Z"
     id="path76" />
  <path
     fill="#985834"
     opacity="1.00"
     d=" M 488.95 215.81 C 491.81 217.67 493.72 220.58 496.09 222.97 C 499.31 226.51 503.01 229.65 505.77 233.58 C 500.11 233.53 494.51 232.66 488.90 232.06 C 488.81 226.65 488.69 221.22 488.95 215.81 Z"
     id="path78" />
  <path
     fill="#985834"
     opacity="1.00"
     d=" M 506.88 234.22 C 508.58 234.20 510.28 234.20 512.00 234.19 L 512.00 239.53 C 510.29 237.76 508.54 236.03 506.88 234.22 Z"
     id="path80" />
  <path
     fill="#985834"
     opacity="1.00"
     d=" M 0.00 261.42 C 5.94 255.04 10.73 247.68 16.92 241.53 C 18.03 251.63 19.00 261.74 19.95 271.85 C 13.33 274.65 6.55 277.03 0.00 279.97 L 0.00 261.42 Z"
     id="path82" />
  <path
     fill="#985834"
     opacity="1.00"
     d=" M 488.89 247.44 C 496.80 250.11 504.21 254.04 512.00 257.05 L 512.00 296.27 C 504.80 287.49 497.68 278.62 490.11 270.16 C 497.35 284.28 504.64 298.37 512.00 312.43 L 512.00 313.69 C 504.76 308.41 497.51 303.14 490.45 297.64 C 488.80 296.67 488.99 294.67 488.97 293.04 C 489.02 277.84 488.92 262.64 488.89 247.44 Z"
     id="path84" />
  <path
     fill="#985834"
     opacity="1.00"
     d=" M 20.34 275.97 C 21.34 284.66 22.14 293.37 23.04 302.07 C 23.89 305.94 20.38 308.52 18.40 311.34 C 12.24 319.04 6.43 327.03 0.00 334.51 L 0.00 309.62 C 7.17 298.65 13.26 287.00 20.34 275.97 Z"
     id="path88" />
  <path
     fill="#f5722c"
     opacity="1.00"
     d=" M 315.16 323.00 C 319.39 314.15 323.61 305.29 327.88 296.46 C 338.52 304.06 349.07 311.79 359.68 319.43 C 377.84 332.66 396.09 345.77 414.23 359.03 C 387.38 352.54 360.76 345.05 333.93 338.50 C 337.16 357.34 341.00 376.07 344.14 394.93 C 328.06 380.73 312.38 366.09 296.33 351.87 C 288.99 375.32 281.46 398.72 273.96 422.13 C 263.94 397.73 254.06 373.27 244.02 348.88 C 217.90 359.46 192.04 370.71 165.85 381.09 C 168.21 378.06 171.30 375.73 173.99 373.01 C 188.91 358.86 204.03 344.92 218.84 330.66 C 226.23 324.14 233.10 317.07 240.47 310.53 C 241.49 309.26 243.02 310.30 243.78 311.27 C 248.65 316.65 253.51 322.04 258.36 327.44 C 262.61 332.00 266.67 336.74 271.00 341.22 C 273.02 336.17 274.94 331.09 276.95 326.04 C 278.78 321.56 280.44 317.02 282.27 312.55 C 284.82 312.42 287.43 311.47 289.95 311.99 C 294.67 315.55 298.77 319.88 303.29 323.69 C 306.01 326.02 308.67 328.41 311.32 330.82 C 312.62 328.23 313.92 325.63 315.16 323.00 Z"
     id="path90" />
  <path
     fill="#f5e5c1"
     opacity="1.00"
     d=" M 303.29 323.69 C 307.26 323.94 311.21 323.25 315.16 323.00 C 313.92 325.63 312.62 328.23 311.32 330.82 C 308.67 328.41 306.01 326.02 303.29 323.69 Z"
     id="path92" />
  <path
     fill="#985834"
     opacity="1.00"
     d=" M 489.48 340.54 C 488.97 335.07 488.96 329.47 489.43 323.99 C 493.75 331.49 497.92 339.08 502.31 346.54 C 503.13 347.87 503.66 349.34 504.02 350.87 C 499.18 347.42 494.16 344.19 489.48 340.54 Z"
     id="path94" />
  <path
     fill="#f5e5c1"
     opacity="1.00"
     d=" M 258.36 327.44 C 264.57 327.10 270.75 326.48 276.95 326.04 C 274.94 331.09 273.02 336.17 271.00 341.22 C 266.67 336.74 262.61 332.00 258.36 327.44 Z"
     id="path96" />
  <path
     fill="#985834"
     opacity="1.00"
     d=" M 22.08 336.99 C 23.42 336.29 24.89 335.86 26.34 335.46 C 26.85 340.65 27.46 345.84 27.88 351.04 C 28.33 352.96 26.61 354.19 25.52 355.47 C 16.98 364.04 8.60 372.76 0.00 381.28 L 0.00 348.43 C 7.45 344.80 14.72 340.80 22.08 336.99 Z"
     id="path98" />
  <path
     fill="#985834"
     opacity="1.00"
     d=" M 505.24 351.96 C 507.52 353.37 509.84 354.75 512.00 356.37 L 512.00 363.49 C 509.74 359.65 507.39 355.86 505.24 351.96 Z"
     id="path100" />
  <path
     fill="#985834"
     opacity="1.00"
     d=" M 489.31 359.64 C 497.46 366.26 504.10 374.55 512.00 381.47 L 512.00 428.62 C 505.32 417.27 499.49 405.45 493.04 393.97 C 491.46 390.83 489.15 387.74 489.28 384.05 C 489.35 375.92 489.17 367.78 489.31 359.64 Z"
     id="path102" />
  <path
     fill="#985834"
     opacity="1.00"
     d=" M 28.67 365.52 C 28.87 365.43 29.26 365.25 29.46 365.16 C 29.71 370.40 30.61 375.59 30.72 380.85 C 28.20 382.00 25.64 383.07 23.01 383.95 C 24.84 377.79 26.85 371.67 28.67 365.52 Z"
     id="path104" />
  <path
     fill="#985834"
     opacity="1.00"
     d=" M 0.00 394.29 C 7.64 391.28 14.85 387.08 22.77 384.86 C 16.72 404.47 10.77 424.11 4.72 443.71 C 3.12 448.36 2.19 453.24 0.00 457.67 L 0.00 394.29 Z"
     id="path106" />
  <path
     fill="#985834"
     opacity="1.00"
     d=" M 30.68 410.65 C 31.56 409.11 31.93 407.15 33.43 406.07 C 33.81 412.00 35.12 417.93 34.83 423.87 C 24.41 437.32 13.59 450.48 3.15 463.92 C 4.64 459.75 6.99 455.97 8.97 452.03 C 16.22 438.24 23.41 424.43 30.68 410.65 Z"
     id="path108" />
  <path
     fill="#985834"
     opacity="1.00"
     d=" M 493.08 411.05 C 499.62 420.01 505.46 429.45 512.00 438.41 L 512.00 447.68 C 505.48 435.58 498.95 423.47 493.08 411.05 Z"
     id="path110" />
  <path
     fill="#985834"
     opacity="1.00"
     d=" M 0.00 471.75 C 12.48 462.14 24.37 451.77 37.03 442.41 C 37.67 449.62 38.65 456.81 39.19 464.03 C 39.43 466.22 37.92 468.01 36.86 469.78 C 27.51 483.80 18.48 498.06 9.00 512.00 L 0.00 512.00 L 0.00 471.75 Z"
     id="path112" />
  <path
     fill="#985834"
     opacity="1.00"
     d=" M 489.56 448.19 C 497.11 455.77 504.58 463.45 512.00 471.16 L 512.00 512.00 L 497.52 512.00 C 492.77 492.10 487.52 472.29 483.09 452.33 C 485.15 452.23 487.20 452.14 489.27 452.05 C 489.36 450.76 489.46 449.47 489.56 448.19 Z"
     id="path114" />
  <path
     fill="#985834"
     opacity="1.00"
     d=" M 462.98 453.17 C 467.00 452.80 471.04 452.76 475.08 452.65 C 480.92 472.41 486.85 492.15 492.41 512.00 L 489.31 512.00 C 480.61 492.36 471.56 472.87 462.98 453.17 Z"
     id="path116" />
  <path
     fill="#985834"
     opacity="1.00"
     d=" M 429.01 454.31 C 437.39 454.07 445.77 453.45 454.16 453.52 L 454.94 453.98 C 456.51 458.16 456.93 462.67 458.06 466.99 C 459.27 473.38 461.04 479.67 461.94 486.12 C 454.56 476.11 448.59 465.07 440.80 455.38 C 441.32 457.66 442.00 459.90 442.85 462.08 C 449.09 478.68 454.96 495.41 461.22 512.00 L 448.96 512.00 C 442.32 492.77 435.53 473.58 429.01 454.31 Z"
     id="path118" />
  <path
     fill="#985834"
     opacity="1.00"
     d=" M 405.01 455.22 C 412.67 454.70 420.35 454.56 428.03 454.45 C 428.56 472.10 429.52 489.74 429.88 507.40 C 423.49 497.45 418.40 486.71 412.13 476.69 C 412.55 481.08 414.37 485.13 415.60 489.33 C 418.18 496.84 420.07 504.58 422.91 512.00 L 391.84 512.00 C 390.92 503.31 390.17 494.59 389.25 485.90 C 388.71 486.83 388.54 487.87 388.58 488.95 C 388.44 496.63 388.30 504.32 388.06 512.00 L 386.05 512.00 C 383.34 493.37 380.69 474.74 378.05 456.10 C 380.84 455.90 383.65 455.84 386.43 456.19 C 387.11 464.17 388.04 472.12 388.49 480.12 C 389.38 472.15 389.34 464.11 389.44 456.10 C 392.94 455.33 396.53 455.44 400.10 455.44 C 403.76 460.73 406.21 466.76 409.89 472.04 C 408.83 466.27 406.25 460.94 405.01 455.22 Z"
     id="path120" />
  <path
     fill="#985834"
     opacity="1.00"
     d=" M 300.00 461.31 C 310.88 459.79 321.78 457.31 332.83 457.94 C 331.54 471.98 329.80 485.97 328.48 500.01 C 327.97 504.04 328.18 508.31 326.23 512.00 L 306.76 512.00 C 304.91 499.97 303.00 487.95 301.37 475.89 C 301.22 487.94 302.79 499.95 303.19 512.00 L 287.94 512.00 C 289.04 495.51 290.53 479.05 291.62 462.56 C 294.05 462.03 296.53 461.73 299.02 461.61 C 299.59 464.74 300.15 467.88 300.74 471.01 C 300.60 467.76 300.24 464.54 300.00 461.31 Z"
     id="path122" />
  <path
     fill="#985834"
     opacity="1.00"
     d=" M 355.15 457.63 C 356.78 460.42 357.51 463.59 358.51 466.64 C 363.39 481.78 368.60 496.82 373.37 512.00 L 327.09 512.00 C 327.51 510.01 328.13 508.07 329.23 506.35 C 333.73 498.76 338.01 491.03 342.47 483.41 C 347.50 475.23 350.66 466.09 355.15 457.63 Z"
     id="path124" />
  <path
     fill="#985834"
     opacity="1.00"
     d=" M 260.71 466.92 C 266.35 466.19 271.96 465.24 277.61 464.53 C 276.56 473.52 274.80 482.40 273.45 491.34 C 273.06 494.50 271.91 497.75 272.86 500.91 C 273.96 504.69 275.41 508.37 276.94 512.00 L 270.15 512.00 C 270.31 506.65 273.50 501.16 271.07 495.99 C 267.51 486.34 263.75 476.74 260.71 466.92 Z"
     id="path126" />
  <path
     fill="#985834"
     opacity="1.00"
     d=" M 208.63 474.54 C 215.29 473.55 221.93 472.16 228.68 471.87 C 230.20 485.28 232.32 498.61 234.01 512.00 L 199.72 512.00 C 202.68 499.51 205.71 487.04 208.63 474.54 Z"
     id="path128" />
  <path
     fill="#985834"
     opacity="1.00"
     d=" M 244.42 474.73 C 247.24 487.02 248.40 499.64 250.88 512.00 L 242.01 512.00 C 242.80 499.57 243.35 487.13 244.42 474.73 Z"
     id="path130" />
  <path
     fill="#985834"
     opacity="1.00"
     d=" M 176.35 479.16 C 185.74 477.79 195.11 476.03 204.58 475.37 C 200.53 487.64 196.10 499.78 191.90 512.00 L 181.40 512.00 C 179.86 501.03 178.17 490.08 176.35 479.16 Z"
     id="path132" />
  <path
     fill="#985834"
     opacity="1.00"
     d=" M 30.97 493.02 C 34.27 489.26 37.12 485.05 40.97 481.82 C 41.51 485.06 41.50 488.39 40.59 491.57 C 38.74 498.38 37.08 505.25 34.98 512.00 L 14.83 512.00 C 20.33 505.78 25.53 499.30 30.97 493.02 Z"
     id="path136" />
  <path
     fill="#985834"
     opacity="1.00"
     d=" M 139.13 485.49 C 145.21 484.35 151.23 482.86 157.34 481.91 C 154.25 491.98 150.71 501.91 147.68 512.00 L 144.06 512.00 C 142.71 503.11 140.05 494.44 139.13 485.49 Z"
     id="path138" />
  <path
     fill="#985834"
     opacity="1.00"
     d=" M 107.50 492.53 C 114.75 490.70 122.06 488.89 129.49 488.04 C 130.29 496.03 131.16 504.02 132.16 512.00 L 100.62 512.00 C 102.84 505.48 105.01 498.95 107.50 492.53 Z"
     id="path142" />
  <path
     fill="#985834"
     opacity="1.00"
     d=" M 462.99 487.86 C 468.35 495.92 473.71 503.98 479.13 512.00 L 467.89 512.00 C 466.09 503.99 463.94 496.02 462.99 487.86 Z"
     id="path144" />
  <path
     fill="#985834"
     opacity="1.00"
     d=" M 87.19 496.46 C 90.79 495.85 94.36 495.04 97.99 494.59 C 95.76 500.48 92.84 506.08 90.68 512.00 L 86.83 512.00 C 86.95 506.82 86.40 501.60 87.19 496.46 Z"
     id="path146" />
  <path
     fill="#985834"
     opacity="1.00"
     d=" M 61.24 502.44 C 64.03 501.32 67.03 500.90 69.99 500.56 C 69.69 504.37 69.35 508.19 68.98 512.00 L 55.85 512.00 C 57.76 508.88 58.91 505.28 61.24 502.44 Z"
     id="path148" />
  <path
     fill="#985834"
     opacity="1.00"
     d=" M 42.08 505.48 C 46.20 505.72 50.17 504.50 54.19 503.83 C 53.36 506.56 52.62 509.31 51.66 512.00 L 39.91 512.00 C 40.69 509.84 41.36 507.65 42.08 505.48 Z"
     id="path150" />
  <path
     fill="#985834"
     opacity="1.00"
     d=" M 429.91 510.12 C 430.51 507.82 432.30 510.89 431.64 512.00 L 430.28 512.00 C 430.19 511.53 430.00 510.59 429.91 510.12 Z"
     id="path152" />
</svg>
