<?xml version="1.0" encoding="UTF-8" standalone="no"?>
<svg
   xmlns:dc="http://purl.org/dc/elements/1.1/"
   xmlns:cc="http://creativecommons.org/ns#"
   xmlns:rdf="http://www.w3.org/1999/02/22-rdf-syntax-ns#"
   xmlns:svg="http://www.w3.org/2000/svg"
   xmlns="http://www.w3.org/2000/svg"
   xmlns:sodipodi="http://sodipodi.sourceforge.net/DTD/sodipodi-0.dtd"
   xmlns:inkscape="http://www.inkscape.org/namespaces/inkscape"
   width="1280"
   height="1280"
   viewBox="0 0 1024 1024"
   version="1.1"
   id="svg2"
   inkscape:version="0.48.1 "
   sodipodi:docname="gib_grind.svg">
  <metadata
     id="metadata78">
    <rdf:RDF>
      <cc:Work
         rdf:about="">
        <dc:format>image/svg+xml</dc:format>
        <dc:type
           rdf:resource="http://purl.org/dc/dcmitype/StillImage" />
      </cc:Work>
    </rdf:RDF>
  </metadata>
  <defs
     id="defs76" />
  <sodipodi:namedview
     pagecolor="#ffffff"
     bordercolor="#666666"
     borderopacity="1"
     objecttolerance="10"
     gridtolerance="10"
     guidetolerance="10"
     inkscape:pageopacity="0"
     inkscape:pageshadow="2"
     inkscape:window-width="1920"
     inkscape:window-height="1018"
     id="namedview74"
     showgrid="false"
     inkscape:snap-page="true"
     fit-margin-top="0"
     fit-margin-left="0"
     fit-margin-right="0"
     fit-margin-bottom="0"
     inkscape:zoom="0.6609375"
     inkscape:cx="640"
     inkscape:cy="640"
     inkscape:window-x="-8"
     inkscape:window-y="-8"
     inkscape:window-maximized="1"
     inkscape:current-layer="svg2" />
  <rect
     style="fill:#3e3e3e;fill-opacity:1;fill-rule:nonzero;stroke:none"
     id="rect3058"
     width="1024"
     height="1024"
     x="0"
     y="0" />
  <path
     d="m 306.94,0 20,0 c 47.94,107.68 95.88,215.36 143.58,323.16 0.82,1.88 2.22,3.42 3.62,4.92 C 518.56,218.54 564.3,109.54 608.72,0 l 20.62,0 c 2.66,79.6 5.24,159.2 8.1,238.78 C 596.16,303.12 555.5,367.84 514.06,432.06 472.04,378.02 430.24,323.78 388.3,269.68 383.9,264.06 379.92,258.1 375,252.9 c -0.92,31.04 -2.68,62.06 -2.52,93.14 -1.56,19.34 -1.32,38.76 -2.06,58.12 -31.8,-20 -63.16,-40.7 -94.88,-60.88 4,-31.64 5.8,-63.52 9.2,-95.22 C 291.96,165.38 300.02,82.74 306.94,0 z"
     id="path6"
     inkscape:connector-curvature="0"
     style="fill:#9a9180" />
  <path
     d="m 559,0 23.98,0 C 574.16,16.68 567.56,34.54 557.62,50.56 556.94,33.7 559.24,16.88 559,0 z"
     id="path10"
     inkscape:connector-curvature="0"
     style="fill:#985834" />
  <path
     d="M 793.28,0 828.5,0 C 807.98,25.18 788.28,51.04 767.68,76.16 775.18,50.46 784.6,25.32 793.28,0 z"
     id="path14"
     inkscape:connector-curvature="0"
     style="fill:#f5722c" />
  <path
     d="m 250.86,13.8 c 1.5,1.08 2.54,2.5 3.06,4.28 6.72,17.94 13.48,35.86 20.46,53.68 1.58,3.22 -0.08,6.62 -0.92,9.78 -3.32,10.28 -6.1,20.72 -9.72,30.9 -7.24,-12.06 -11.22,-25.92 -17.36,-38.6 -3.14,-8.38 -8.2,-16.36 -9.76,-25.18 4.04,-11.86 9.38,-23.3 14.24,-34.86 z"
     id="path16"
     inkscape:connector-curvature="0"
     style="fill:#985834" />
  <path
     d="m 59.92,26.96 c 15.86,15.12 31.98,29.92 47.92,44.94 6,-5.96 11.86,-12.04 17.84,-18 0.18,9.94 0.1,19.88 -0.04,29.82 17.96,3.24 36,5.96 53.96,9.22 3.58,10.32 9.12,20.24 9.9,31.32 1.64,15.5 3.54,30.98 5.08,46.48 -25.36,-9.18 -50.78,-18.26 -76.22,-27.26 -3.06,-1.36 -7.14,-1.44 -9.04,-4.58 -10.54,-14.22 -21.08,-28.44 -31.84,-42.48 -5.9,0.56 -11.74,1.54 -17.6,2.5 0,-23.98 -0.06,-47.98 0.04,-71.96 z"
     id="path18"
     inkscape:connector-curvature="0"
     style="fill:#f5722c" />
  <path
     d="M 979.92,101.4 C 994.3,86.74 1009.4,72.8 1024,58.36 l 0,22.12 c -14.72,6.92 -29.36,14 -44.08,20.92 z"
     id="path20"
     inkscape:connector-curvature="0"
     style="fill:#f5722c" />
  <path
     d="m 449.2,95.8 c 7.92,11 15.66,22.18 24.06,32.82 8.74,3.34 17.72,6 26.58,9 -9.32,27.66 -19.72,54.96 -29.22,82.56 -1.92,-1.12 -2.6,-3.36 -3.48,-5.24 -8.52,-20.12 -17.42,-40.08 -26.1,-60.12 -1.14,-2.2 -0.48,-4.66 -0.16,-6.96 2.82,-17.34 5.36,-34.74 8.32,-52.06 z"
     id="path22"
     inkscape:connector-curvature="0"
     style="fill:#f5722c" />
  <path
     d="m 818.04,122.48 c 25.82,-6.58 51.42,-13.98 77.24,-20.54 -10.14,13.68 -19.64,27.84 -29.9,41.42 -13.4,10.06 -27.64,19.02 -41.32,28.72 -3.08,1.86 -6.16,5.32 -10.14,3.84 -8.76,-1.56 -17.48,-3.42 -26.18,-5.3 8.52,-9.14 17.88,-17.52 26.38,-26.7 2.56,-5.58 4,-11.64 5.96,-17.46 -0.5,-1 -1.52,-2.98 -2.04,-3.98 z"
     id="path24"
     inkscape:connector-curvature="0"
     style="fill:#f5722c" />
  <path
     d="m 879.48,207.64 c 32.24,-25.32 63.88,-51.46 96.54,-76.22 -4.12,10.98 -10.08,21.16 -14.74,31.9 -39.72,83.56 -79.52,167.06 -119.24,250.6 -3.98,8.48 -8.54,16.76 -11.44,25.7 -53.3,21.92 -106.8,43.38 -159.9,65.76 0.08,-14.46 0.56,-28.92 1.84,-43.34 0.1,-31.24 2.8,-62.36 2.9,-93.6 9.18,-4.7 16.46,-12.18 24.7,-18.24 59.76,-47.54 119.58,-95.02 179.34,-142.56 z"
     id="path26"
     inkscape:connector-curvature="0"
     style="fill:#9a9180" />
  <path
     d="m 637.44,238.78 c 15.22,-24.22 31,-48.12 45.8,-72.6 -0.02,27.34 -2.56,54.56 -2.56,81.92 -2.4,22.54 -0.7,45.32 -3.2,67.86 -0.88,17.48 0.16,35.08 -2.04,52.48 -0.1,31.24 -2.8,62.36 -2.9,93.6 -1.28,14.42 -1.76,28.88 -1.84,43.34 53.1,-22.38 106.6,-43.84 159.9,-65.76 33.76,-13.84 67.48,-27.78 101.3,-41.5 -19.6,24.74 -39.12,49.58 -59.04,74.08 -16.62,21.22 -33.42,42.32 -50.24,63.4 21.32,11.78 42.64,23.56 64.14,34.98 42.52,22.88 84.78,46.26 127.16,69.42 -38.34,6.76 -76.6,13.94 -115.02,20.28 -9.3,-35.1 -33.24,-66.9 -66.04,-83.1 -19.46,-8.26 -41.64,-12.26 -62.4,-6.7 -32.14,6.22 -58.18,30.08 -74.06,57.82 -5.88,10.9 -11.34,22.34 -13.3,34.7 -3.66,-20.96 -15.02,-39.64 -28.14,-56.04 -5.06,-6.18 -12.24,-10.78 -15.42,-18.36 -7.22,-16.92 -14.86,-33.68 -22.02,-50.62 -16.06,8.24 -29.84,20.62 -45.56,29.48 -11.76,1.54 -23.46,3.88 -34.6,8.04 -11.74,4.5 -21.58,12.54 -31.46,20.1 -23.98,-23.44 -47.1,-47.8 -71.44,-70.84 -9.8,18.16 -19.38,36.46 -29.8,54.3 -20.26,-9.8 -44.02,-14.38 -66.14,-8.6 -28.74,5.52 -52.92,25.38 -68.8,49.34 -7.24,9.8 -11.14,21.42 -16.9,32.04 -1.72,-17.82 1.32,-35.78 0.7,-53.64 -0.56,-5.6 -2.2,-11.34 -6.32,-15.38 -8.74,-9.94 -23.5,-7.32 -35.28,-9.04 -14.16,-0.24 -31.32,-5.9 -43,5 -12.88,13.14 -24.16,27.76 -36.64,41.28 -5.14,6.54 -12.12,12.32 -13.5,21 -23.46,-6.52 -47.48,-11.22 -70.56,-18.94 8.74,-2.28 16.36,-7.3 24.46,-11.12 18.36,-9.12 36.48,-18.72 54.9,-27.72 27.34,-13.94 54.8,-27.64 82.04,-41.76 -26.18,-86.04 -52.88,-171.96 -79.06,-258 -4.34,-13.84 -8.86,-27.64 -12.54,-41.7 52.54,33.76 105.04,67.6 157.52,101.46 31.72,20.18 63.08,40.88 94.88,60.88 0.74,-19.36 0.5,-38.78 2.06,-58.12 -0.16,-31.08 1.6,-62.1 2.52,-93.14 4.92,5.2 8.9,11.16 13.3,16.78 41.94,54.1 83.74,108.34 125.76,162.38 41.44,-64.22 82.1,-128.94 123.38,-193.28 z"
     id="path28"
     inkscape:connector-curvature="0"
     style="fill:#f5e5c1" />
  <path
     d="m 41.92,226.44 c 30.02,20.6 59.6,41.9 89.18,63.14 -0.12,-1.52 -0.4,-4.54 -0.54,-6.06 26.18,86.04 52.88,171.96 79.06,258 -27.24,14.12 -54.7,27.82 -82.04,41.76 -17.48,-7.72 -35.6,-13.84 -53.24,-21.16 -10.78,-4.6 -22.36,-7.5 -32.2,-14.1 33.24,-19.64 65.98,-40.12 99.04,-60.08 C 111.92,410.68 82.84,333.32 53.72,256 50.04,246.04 46.28,236.12 41.92,226.44 z"
     id="path30"
     inkscape:connector-curvature="0"
     style="fill:#9a9180" />
  <path
     d="m 991.18,311.24 c 10.98,-5.2 21.94,-10.42 32.82,-15.8 l 0,31.24 c -11.9,0.8 -23.78,1.76 -35.66,2.66 0.64,-6.08 1.68,-12.1 2.84,-18.1 z"
     id="path32"
     inkscape:connector-curvature="0"
     style="fill:#f5722c" />
  <path
     d="m 0,404.08 c 8.6,1.54 17.78,1.86 25.24,6.94 10.18,6.5 22.1,10.44 31.52,17.94 1.6,10.52 2.32,21.2 2.64,31.86 C 39.44,454 20.04,445.62 0,439.04 l 0,-34.96 z"
     id="path34"
     inkscape:connector-curvature="0"
     style="fill:#985834" />
  <path
     d="m 872.26,475.62 c 50.5,-8.74 101.3,-15.82 151.74,-24.8 l 0,35.2 c -45.62,28.4 -91.96,55.66 -137.24,84.56 -21.5,-11.42 -42.82,-23.2 -64.14,-34.98 16.82,-21.08 33.62,-42.18 50.24,-63.4 l -0.6,3.42 z"
     id="path36"
     inkscape:connector-curvature="0"
     style="fill:#9a9180" />
  <path
     d="m 961.86,593 c 5.88,-12.2 13.46,-23.6 21.08,-34.76 13.18,5.2 27.34,7.12 41.06,10.34 l 0,25.9 c -5.76,4.64 -11.82,8.92 -17.84,13.22 -14.86,-4.6 -29.54,-9.76 -44.3,-14.7 z"
     id="path38"
     inkscape:connector-curvature="0"
     style="fill:#985834" />
  <path
     d="m 358.2,589.8 c -3.29218,0.0288 -6.58374,0.26499 -9.85,0.7 -26.2,3.7 -48.15,21.97 -61.95,43.85 -21.48,34.62 -25.82,78.66 -14,117.4 7.06,22.74 20.38,43.99 39.6,58.35 20.02,15.56 47.94,20.5 71.9,12 20.38,-6.78 36.57,-22.42 48.15,-40.1 20.68,-33.4 25.45,-75.7 14.85,-113.3 -7.38,-27.2 -23.84,-52.62 -48,-67.7 -12.13875,-7.62125 -26.4339,-11.32486 -40.7,-11.2 z m 0.4,72.6 c 5.91563,-0.1275 11.85501,1.00499 17,4.05 14.64,7.9 23.1,23.81 26.2,39.65 4.18,20.9 0.99,44.16 -12.65,61.1 -8.3,10.22 -21.36,18.37 -35,16.05 -14.54,-2.96 -25.8,-14.53 -32,-27.55 -8.38,-17.96 -8.52,-39.03 -3,-57.85 4.58,-16.06 16.49,-31.45 33.55,-34.95 1.93499,-0.30501 3.92813,-0.4575 5.9,-0.5 z"
     id="path40"
     style="fill:#f4722b"
     inkscape:connector-curvature="0" />
  <path
     d="m 574.6,589.85 c -4.5575,0.0206 -9.11499,0.41499 -13.6,1.2 -29.14,5.82 -52.45,28.52 -64.95,54.7 -16.04,33.04 -18.28,72.26 -7.3,107.2 8.56,26.22 25.43,50.84 50.15,64.1 20.72,11.36 46.85,12.18 68.25,2.2 21.16,-9.88 37.25,-28.3 47.45,-49 15.34,-32.22 17.8,-70.2 7.5,-104.3 -7.8,-26.54 -24.38,-51.28 -48.4,-65.6 -11.71499,-7.15499 -25.4275,-10.56187 -39.1,-10.5 z m -0.75,72.5 c 11.89618,-0.45062 23.5825,5.7425 30.95,15 11.44,14.08 15.59,32.91 14.55,50.75 -0.74,18.58 -9,37.63 -24.4,48.65 -8.96,6.62 -21.43,9.29 -31.75,4.35 -17.14,-7.22 -27.45,-25.08 -30.55,-42.8 -2.46,-16.14 -1.28,-33.18 5.4,-48.2 5.58,-12.96 16.48,-24.31 30.7,-27.15 1.6975,-0.3475 3.40054,-0.53563 5.1,-0.6 z"
     id="path42"
     style="fill:#f4722b"
     inkscape:connector-curvature="0" />
  <path
     d="m 790.95,589.8 c -3.5876,-0.006 -7.1875,0.20875 -10.75,0.7 -25.2,3.6 -46.46,20.77 -60.3,41.45 -20.22,30.96 -26.24,70.1 -19,106.1 5.56,27.92 20.04,54.81 43.1,72.05 19.98,15.58 47.86,20.46 71.8,12 20.44,-6.78 36.7,-22.38 48.3,-40.1 16.54,-26.64 22.76,-59.03 19.3,-90.05 -3.64,-34.24 -19.91,-68.43 -48.65,-88.45 -12.75626,-9.03499 -28.25376,-13.67366 -43.8,-13.7 z m -0.3,72.6 c 5.89499,-0.11906 11.82,1.00499 16.95,4.05 14.6,7.88 23.08,23.73 26.2,39.55 4.3,21.3 0.83,45.15 -13.45,62.15 -8.32,9.76 -21.09,17.44 -34.35,15.1 -14.4,-3 -25.62,-14.45 -31.8,-27.35 -8.46,-18 -8.57,-39.19 -3.05,-58.05 4.58,-16.08 16.55,-31.47 33.65,-34.95 1.93,-0.3 3.88501,-0.46032 5.85,-0.5 z"
     id="path44"
     style="fill:#f4722b"
     inkscape:connector-curvature="0" />
  <path
     d="m 184.18,593.94 c 15.86,0.5 31.62,2.52 47.48,3.14 -2.28,76.34 -5.88,152.64 -8.16,228.98 -17.14,-0.54 -34.26,-2.06 -51.4,-2.76 1.44,-52.52 3.84,-105.04 4.72,-157.56 -4.98,3.9 -8.2,9.5 -12.52,14.06 -8.06,-11.34 -16.16,-22.68 -24.4,-33.88 13.6,-18.2 29.86,-34.38 44.28,-51.98 z"
     id="path46"
     inkscape:connector-curvature="0"
     style="fill:#f5722c" />
  <path
     d="m 88.72,640.56 c 1.96,-1.22 4.16,-3.02 6.58,-1.7 7.8,2.68 15.44,5.86 23.18,8.76 0.74,9.38 8.42,15.34 11.72,23.58 -4.12,3.4 -8.66,6.38 -14.02,7.3 C 95.38,683.6 74.8,689.64 53.9,694.26 47.58,688.7 41.68,682.66 36,676.44 53.74,664.7 71.08,652.4 88.72,640.56 z"
     id="path48"
     inkscape:connector-curvature="0"
     style="fill:#985834" />
  <path
     d="m 989.86,731.94 c 9.58,-2.98 18.98,-6.5 28.58,-9.46 3.24,-1.8 4.16,2.5 5.56,4.4 l 0,32.68 c -16.82,-5.84 -33.86,-11.08 -50.62,-17.04 5.16,-3.98 10.02,-8.78 16.48,-10.58 z"
     id="path56"
     inkscape:connector-curvature="0"
     style="fill:#f5722c" />
  <path
     d="m 260.44,854.56 c 6.78,-14.66 12.64,-29.7 19.4,-44.34 10.3,11.32 22.48,20.64 35.76,28.16 0.9,12.3 -0.84,24.98 -1.22,37.42 -4.56,25.4 -9.92,50.66 -14.78,76 -22.94,-2.86 -45.5,-8.16 -68.38,-11.28 0.2,-1.1 0.62,-3.26 0.84,-4.34 8.2,-22.4 16.6,-44.74 24.8,-67.14 2.02,-4.66 1.2,-10 3.58,-14.48 z"
     id="path58"
     inkscape:connector-curvature="0"
     style="fill:#985834" />
  <path
     d="m 943.16,828.62 c 2.3,2.52 4.82,4.96 8.12,6.14 24.28,10.56 48.52,21.26 72.72,32 l 0,68.54 c -4.04,9.58 -8.04,19.18 -11.94,28.8 -21.04,-26.42 -41.58,-53.24 -62.76,-79.56 -1.3,-1.98 -3.32,-3.82 -3.24,-6.38 -1.16,-16.5 -1.6,-33.04 -2.9,-49.54 z"
     id="path60"
     inkscape:connector-curvature="0"
     style="fill:#f5722c" />
  <path
     d="m 518.1,830.8 c 12.12,7.2 25.1,12.68 38.92,15.68 2.74,11.48 8.48,21.96 11.18,33.46 -15.7,-9.1 -31.76,-17.56 -47.24,-26.98 -1,-7.38 -2.2,-14.74 -2.86,-22.16 z"
     id="path62"
     inkscape:connector-curvature="0"
     style="fill:#985834" />
  <path
     d="m 748.72,865 c 1.64,-7.98 2.64,-16.1 4.68,-24 12.6,3.52 25.34,7.52 38.58,7.08 8.14,0.42 15.96,-1.98 23.94,-3.08 -1,16.2 10.16,28.8 15.78,43.08 -0.48,6.86 -5.66,12.6 -8.26,18.9 -8.66,-10.18 -16.92,-20.7 -25.54,-30.9 -1.74,-2.3 -4.9,-2.24 -7.4,-2.94 -13.94,-2.66 -27.96,-4.9 -41.78,-8.14 z"
     id="path64"
     inkscape:connector-curvature="0"
     style="fill:#985834" />
  <path
     d="m 36.32,892.08 c 17.88,-8.84 35.6,-18 53.56,-26.7 6.88,16.94 13.96,33.78 20.84,50.7 -16.84,16 -33.66,32.06 -50.76,47.78 -3.26,-13.78 -6.04,-27.68 -8.9,-41.54 -9.8,-1.28 -19.64,-1.98 -29.44,-3.16 3.98,-9.56 14.76,-16 14.7,-27.08 z"
     id="path66"
     inkscape:connector-curvature="0"
     style="fill:#f5722c" />
  <path
     d="m 404.26,934.22 c 1.46,-0.1 4.42,-0.26 5.9,-0.34 1.04,19.06 2,38.16 3.04,57.24 -8.82,0.92 -17.64,1.82 -26.44,2.98 4.9,-20.18 11.6,-39.94 17.5,-59.88 z"
     id="path68"
     inkscape:connector-curvature="0"
     style="fill:#f5722c" />
  <path
     d="m 706.72,946 c 10.96,0.06 21.94,-0.16 32.9,0.14 29.24,25.98 58.52,51.9 87.78,77.86 l -31.3,0 c -5.92,-2.66 -11.36,-6.26 -17.4,-8.62 -5.9,-1.86 -12.12,-2.28 -18.18,-3.2 -0.94,3.94 -1.82,7.9 -2.92,11.82 l -32.64,0 c -6.04,-26.02 -12.38,-51.96 -18.24,-78 z"
     id="path70"
     inkscape:connector-curvature="0"
     style="fill:#f5722c" />
</svg>
