<?xml version="1.0" encoding="UTF-8" ?>
<!DOCTYPE svg PUBLIC "-//W3C//DTD SVG 1.1//EN" "http://www.w3.org/Graphics/SVG/1.1/DTD/svg11.dtd">
<svg width="512pt" height="512pt" viewBox="0 0 512 512" version="1.1" xmlns="http://www.w3.org/2000/svg">
<path fill="#3e3e3e" opacity="1.00" d=" M 0.00 0.00 L 153.47 0.00 C 150.01 41.37 145.98 82.69 142.37 124.03 C 140.67 139.88 139.77 155.82 137.77 171.64 C 111.53 154.71 85.28 137.79 59.01 120.91 C 60.85 127.94 63.11 134.84 65.28 141.76 C 65.35 142.52 65.49 144.03 65.55 144.79 C 50.76 134.17 35.97 123.52 20.96 113.22 C 23.14 118.06 25.02 123.02 26.86 128.00 C 41.42 166.66 55.96 205.34 70.59 243.97 C 54.06 253.95 37.69 264.19 21.07 274.01 C 25.99 277.31 31.78 278.76 37.17 281.06 C 45.99 284.72 55.05 287.78 63.79 291.64 C 54.58 296.14 45.52 300.94 36.34 305.50 C 32.29 307.41 28.48 309.92 24.11 311.06 C 35.65 314.92 47.66 317.27 59.39 320.53 C 60.08 316.19 63.57 313.30 66.14 310.03 C 72.38 303.27 78.02 295.96 84.46 289.39 C 90.30 283.94 98.88 286.77 105.96 286.89 C 111.85 287.75 119.23 286.44 123.60 291.41 C 125.66 293.43 126.48 296.30 126.76 299.10 C 127.07 308.03 125.55 317.01 126.41 325.92 C 129.29 320.61 131.24 314.80 134.86 309.90 C 142.80 297.92 154.89 287.99 169.26 285.23 C 180.32 282.34 192.20 284.63 202.33 289.53 C 207.54 280.61 212.33 271.46 217.23 262.38 C 229.40 273.90 240.96 286.08 252.95 297.80 C 257.89 294.02 262.81 290.00 268.68 287.75 C 274.25 285.67 280.10 284.50 285.98 283.73 C 293.84 279.30 300.73 273.11 308.76 268.99 C 312.34 277.46 316.16 285.84 319.77 294.30 C 321.36 298.09 324.95 300.39 327.48 303.48 C 334.04 311.68 339.72 321.02 341.55 331.50 C 342.53 325.32 345.26 319.60 348.20 314.15 C 356.14 300.28 369.16 288.35 385.23 285.24 C 395.61 282.46 406.70 284.46 416.43 288.59 C 432.83 296.69 444.80 312.59 449.45 330.14 C 468.66 326.97 487.79 323.38 506.96 320.00 C 485.77 308.42 464.64 296.73 443.38 285.29 C 466.02 270.84 489.19 257.21 512.00 243.01 L 512.00 284.29 C 505.14 282.68 498.06 281.72 491.47 279.12 C 487.66 284.70 483.87 290.40 480.93 296.50 C 488.31 298.97 495.65 301.55 503.08 303.85 C 506.09 301.70 509.12 299.56 512.00 297.24 L 512.00 363.44 C 511.30 362.49 510.84 360.34 509.22 361.24 C 504.42 362.72 499.72 364.48 494.93 365.97 C 491.70 366.87 489.27 369.27 486.69 371.26 C 495.07 374.24 503.59 376.86 512.00 379.78 L 512.00 433.38 C 499.90 428.01 487.78 422.66 475.64 417.38 C 473.99 416.79 472.73 415.57 471.58 414.31 C 472.23 422.56 472.45 430.83 473.03 439.08 C 472.99 440.36 474.00 441.28 474.65 442.27 C 485.24 455.43 495.51 468.84 506.03 482.05 C 507.98 477.24 509.98 472.44 512.00 467.65 L 512.00 512.00 L 413.70 512.00 C 399.07 499.02 384.43 486.06 369.81 473.07 C 364.33 472.92 358.84 473.03 353.36 473.00 C 356.29 486.02 359.46 498.99 362.48 512.00 L 0.00 512.00 L 0.00 219.52 C 10.02 222.81 19.72 227.00 29.70 230.41 C 29.54 225.08 29.18 219.74 28.38 214.48 C 23.67 210.73 17.71 208.76 12.62 205.51 C 8.89 202.97 4.30 202.81 0.00 202.04 L 0.00 0.00 Z" />
<path fill="#9a9180" opacity="1.00" d=" M 153.47 0.00 L 163.47 0.00 C 187.44 53.84 211.41 107.68 235.26 161.58 C 235.67 162.52 236.37 163.29 237.07 164.04 C 259.28 109.27 282.15 54.77 304.36 0.00 L 314.67 0.00 C 316.00 39.80 317.29 79.60 318.72 119.39 C 298.08 151.56 277.75 183.92 257.03 216.03 C 236.02 189.01 215.12 161.89 194.15 134.84 C 191.95 132.03 189.96 129.05 187.50 126.45 C 187.04 141.97 186.16 157.48 186.24 173.02 C 185.46 182.69 185.58 192.40 185.21 202.08 C 169.31 192.08 153.63 181.73 137.77 171.64 C 139.77 155.82 140.67 139.88 142.37 124.03 C 145.98 82.69 150.01 41.37 153.47 0.00 Z" />
<path fill="#3e3e3e" opacity="1.00" d=" M 163.47 0.00 L 279.50 0.00 C 279.62 8.44 278.47 16.85 278.81 25.28 C 283.78 17.27 287.08 8.34 291.49 0.00 L 304.36 0.00 C 282.15 54.77 259.28 109.27 237.07 164.04 C 236.37 163.29 235.67 162.52 235.26 161.58 C 211.41 107.68 187.44 53.84 163.47 0.00 Z" />
<path fill="#985834" opacity="1.00" d=" M 279.50 0.00 L 291.49 0.00 C 287.08 8.34 283.78 17.27 278.81 25.28 C 278.47 16.85 279.62 8.44 279.50 0.00 Z" />
<path fill="#3e3e3e" opacity="1.00" d=" M 314.67 0.00 L 396.64 0.00 C 392.30 12.66 387.59 25.23 383.84 38.08 C 394.14 25.52 403.99 12.59 414.25 0.00 L 512.00 0.00 L 512.00 29.18 C 504.70 36.40 497.15 43.37 489.96 50.70 C 497.32 47.24 504.64 43.70 512.00 40.24 L 512.00 147.72 C 506.56 150.41 501.08 153.02 495.59 155.62 C 495.01 158.62 494.49 161.63 494.17 164.67 C 500.11 164.22 506.05 163.74 512.00 163.34 L 512.00 225.41 C 486.78 229.90 461.38 233.44 436.13 237.81 L 436.43 236.10 C 446.39 223.85 456.15 211.43 465.95 199.06 C 449.04 205.92 432.18 212.89 415.30 219.81 C 416.75 215.34 419.03 211.20 421.02 206.96 C 440.88 165.19 460.78 123.44 480.64 81.66 C 482.97 76.29 485.95 71.20 488.01 65.71 C 471.68 78.09 455.86 91.16 439.74 103.82 C 409.86 127.59 379.95 151.33 350.07 175.10 C 345.95 178.13 342.31 181.87 337.72 184.22 C 338.82 175.52 338.30 166.72 338.74 157.98 C 339.99 146.71 339.14 135.32 340.34 124.05 C 340.34 110.37 341.61 96.76 341.62 83.09 C 334.22 95.33 326.33 107.28 318.72 119.39 C 317.29 79.60 316.00 39.80 314.67 0.00 Z" />
<path fill="#f5722c" opacity="1.00" d=" M 396.64 0.00 L 414.25 0.00 C 403.99 12.59 394.14 25.52 383.84 38.08 C 387.59 25.23 392.30 12.66 396.64 0.00 Z" />
<path fill="#985834" opacity="1.00" d=" M 125.43 6.90 C 126.18 7.44 126.70 8.15 126.96 9.04 C 130.32 18.01 133.70 26.97 137.19 35.88 C 137.98 37.49 137.15 39.19 136.73 40.77 C 135.07 45.91 133.68 51.13 131.87 56.22 C 128.25 50.19 126.26 43.26 123.19 36.92 C 121.62 32.73 119.09 28.74 118.31 24.33 C 120.33 18.40 123.00 12.68 125.43 6.90 Z" />
<path fill="#f5722c" opacity="1.00" d=" M 29.96 13.48 C 37.89 21.04 45.95 28.44 53.92 35.95 C 56.92 32.97 59.85 29.93 62.84 26.95 C 62.93 31.92 62.89 36.89 62.82 41.86 C 71.80 43.48 80.82 44.84 89.80 46.47 C 91.59 51.63 94.36 56.59 94.75 62.13 C 95.57 69.88 96.52 77.62 97.29 85.37 C 84.61 80.78 71.90 76.24 59.18 71.74 C 57.65 71.06 55.61 71.02 54.66 69.45 C 49.39 62.34 44.12 55.23 38.74 48.21 C 35.79 48.49 32.87 48.98 29.94 49.46 C 29.94 37.47 29.91 25.47 29.96 13.48 Z" />
<path fill="#f5722c" opacity="1.00" d=" M 489.96 50.70 C 497.15 43.37 504.70 36.40 512.00 29.18 L 512.00 40.24 C 504.64 43.70 497.32 47.24 489.96 50.70 Z" />
<path fill="#f5722c" opacity="1.00" d=" M 224.60 47.90 C 228.56 53.40 232.43 58.99 236.63 64.31 C 241.00 65.98 245.49 67.31 249.92 68.81 C 245.26 82.64 240.06 96.29 235.31 110.09 C 234.35 109.53 234.01 108.41 233.57 107.47 C 229.31 97.41 224.86 87.43 220.52 77.41 C 219.95 76.31 220.28 75.08 220.44 73.93 C 221.85 65.26 223.12 56.56 224.60 47.90 Z" />
<path fill="#f5722c" opacity="1.00" d=" M 409.02 61.24 C 421.93 57.95 434.73 54.25 447.64 50.97 C 442.57 57.81 437.82 64.89 432.69 71.68 C 425.99 76.71 418.87 81.19 412.03 86.04 C 410.49 86.97 408.95 88.70 406.96 87.96 C 402.58 87.18 398.22 86.25 393.87 85.31 C 398.13 80.74 402.81 76.55 407.06 71.96 C 408.34 69.17 409.06 66.14 410.04 63.23 C 409.79 62.73 409.28 61.74 409.02 61.24 Z" />
<path fill="#9a9180" opacity="1.00" d=" M 439.74 103.82 C 455.86 91.16 471.68 78.09 488.01 65.71 C 485.95 71.20 482.97 76.29 480.64 81.66 C 460.78 123.44 440.88 165.19 421.02 206.96 C 419.03 211.20 416.75 215.34 415.30 219.81 C 388.65 230.77 361.90 241.50 335.35 252.69 C 335.39 245.46 335.63 238.23 336.27 231.02 C 336.32 215.40 337.67 199.84 337.72 184.22 C 342.31 181.87 345.95 178.13 350.07 175.10 C 379.95 151.33 409.86 127.59 439.74 103.82 Z" />
<path fill="#f5e5c1" opacity="1.00" d=" M 318.72 119.39 C 326.33 107.28 334.22 95.33 341.62 83.09 C 341.61 96.76 340.34 110.37 340.34 124.05 C 339.14 135.32 339.99 146.71 338.74 157.98 C 338.30 166.72 338.82 175.52 337.72 184.22 C 337.67 199.84 336.32 215.40 336.27 231.02 C 335.63 238.23 335.39 245.46 335.35 252.69 C 361.90 241.50 388.65 230.77 415.30 219.81 C 432.18 212.89 449.04 205.92 465.95 199.06 C 456.15 211.43 446.39 223.85 436.43 236.10 C 428.12 246.71 419.72 257.26 411.31 267.80 C 421.97 273.69 432.63 279.58 443.38 285.29 C 464.64 296.73 485.77 308.42 506.96 320.00 C 487.79 323.38 468.66 326.97 449.45 330.14 C 444.80 312.59 432.83 296.69 416.43 288.59 C 406.70 284.46 395.61 282.46 385.23 285.24 C 369.16 288.35 356.14 300.28 348.20 314.15 C 345.26 319.60 342.53 325.32 341.55 331.50 C 339.72 321.02 334.04 311.68 327.48 303.48 C 324.95 300.39 321.36 298.09 319.77 294.30 C 316.16 285.84 312.34 277.46 308.76 268.99 C 300.73 273.11 293.84 279.30 285.98 283.73 C 280.10 284.50 274.25 285.67 268.68 287.75 C 262.81 290.00 257.89 294.02 252.95 297.80 C 240.96 286.08 229.40 273.90 217.23 262.38 C 212.33 271.46 207.54 280.61 202.33 289.53 C 192.20 284.63 180.32 282.34 169.26 285.23 C 154.89 287.99 142.80 297.92 134.86 309.90 C 131.24 314.80 129.29 320.61 126.41 325.92 C 125.55 317.01 127.07 308.03 126.76 299.10 C 126.48 296.30 125.66 293.43 123.60 291.41 C 119.23 286.44 111.85 287.75 105.96 286.89 C 98.88 286.77 90.30 283.94 84.46 289.39 C 78.02 295.96 72.38 303.27 66.14 310.03 C 63.57 313.30 60.08 316.19 59.39 320.53 C 47.66 317.27 35.65 314.92 24.11 311.06 C 28.48 309.92 32.29 307.41 36.34 305.50 C 45.52 300.94 54.58 296.14 63.79 291.64 C 77.46 284.67 91.19 277.82 104.81 270.76 C 91.72 227.74 78.37 184.78 65.28 141.76 C 63.11 134.84 60.85 127.94 59.01 120.91 C 85.28 137.79 111.53 154.71 137.77 171.64 C 153.63 181.73 169.31 192.08 185.21 202.08 C 185.58 192.40 185.46 182.69 186.24 173.02 C 186.16 157.48 187.04 141.97 187.50 126.45 C 189.96 129.05 191.95 132.03 194.15 134.84 C 215.12 161.89 236.02 189.01 257.03 216.03 C 277.75 183.92 298.08 151.56 318.72 119.39 Z" />
<path fill="#9a9180" opacity="1.00" d=" M 20.96 113.22 C 35.97 123.52 50.76 134.17 65.55 144.79 C 65.49 144.03 65.35 142.52 65.28 141.76 C 78.37 184.78 91.72 227.74 104.81 270.76 C 91.19 277.82 77.46 284.67 63.79 291.64 C 55.05 287.78 45.99 284.72 37.17 281.06 C 31.78 278.76 25.99 277.31 21.07 274.01 C 37.69 264.19 54.06 253.95 70.59 243.97 C 55.96 205.34 41.42 166.66 26.86 128.00 C 25.02 123.02 23.14 118.06 20.96 113.22 Z" />
<path fill="#f5722c" opacity="1.00" d=" M 495.59 155.62 C 501.08 153.02 506.56 150.41 512.00 147.72 L 512.00 163.34 C 506.05 163.74 500.11 164.22 494.17 164.67 C 494.49 161.63 495.01 158.62 495.59 155.62 Z" />
<path fill="#985834" opacity="1.00" d=" M 0.00 202.04 C 4.30 202.81 8.89 202.97 12.62 205.51 C 17.71 208.76 23.67 210.73 28.38 214.48 C 29.18 219.74 29.54 225.08 29.70 230.41 C 19.72 227.00 10.02 222.81 0.00 219.52 L 0.00 202.04 Z" />
<path fill="#9a9180" opacity="1.00" d=" M 436.13 237.81 C 461.38 233.44 486.78 229.90 512.00 225.41 L 512.00 243.01 C 489.19 257.21 466.02 270.84 443.38 285.29 C 432.63 279.58 421.97 273.69 411.31 267.80 C 419.72 257.26 428.12 246.71 436.43 236.10 L 436.13 237.81 Z" />
<path fill="#985834" opacity="1.00" d=" M 480.93 296.50 C 483.87 290.40 487.66 284.70 491.47 279.12 C 498.06 281.72 505.14 282.68 512.00 284.29 L 512.00 297.24 C 509.12 299.56 506.09 301.70 503.08 303.85 C 495.65 301.55 488.31 298.97 480.93 296.50 Z" />
<path fill="#f5722c" opacity="1.00" d=" M 174.18 295.26 C 182.89 294.10 191.97 295.82 199.44 300.51 C 211.52 308.05 219.75 320.76 223.44 334.36 C 228.74 353.16 226.37 374.30 216.03 391.00 C 210.24 399.84 202.14 407.65 191.95 411.04 C 179.97 415.29 166.01 412.84 156.00 405.06 C 146.39 397.88 139.72 387.25 136.19 375.88 C 130.28 356.51 132.45 334.48 143.19 317.17 C 150.09 306.23 161.08 297.11 174.18 295.26 Z" />
<path fill="#f5722c" opacity="1.00" d=" M 280.51 295.53 C 289.48 293.96 299.03 295.41 306.84 300.18 C 318.85 307.34 327.15 319.71 331.05 332.98 C 336.20 350.03 334.98 369.01 327.31 385.12 C 322.21 395.47 314.15 404.69 303.57 409.63 C 292.87 414.62 279.80 414.21 269.44 408.53 C 257.08 401.90 248.65 389.58 244.37 376.47 C 238.88 359.00 240.01 339.40 248.03 322.88 C 254.28 309.79 265.94 298.44 280.51 295.53 Z" />
<path fill="#f5722c" opacity="1.00" d=" M 390.11 295.26 C 399.61 293.95 409.52 296.20 417.37 301.76 C 431.74 311.77 439.88 328.85 441.70 345.97 C 443.43 361.48 440.31 377.67 432.04 390.99 C 426.24 399.85 418.12 407.67 407.90 411.06 C 395.93 415.29 381.99 412.84 372.00 405.05 C 360.47 396.43 353.23 382.98 350.45 369.02 C 346.83 351.02 349.84 331.45 359.95 315.97 C 366.87 305.63 377.51 297.06 390.11 295.26 Z" />
<path fill="#f5722c" opacity="1.00" d=" M 92.09 296.97 C 100.02 297.22 107.90 298.23 115.83 298.54 C 114.69 336.71 112.89 374.86 111.75 413.03 C 103.18 412.76 94.62 412.00 86.05 411.65 C 86.77 385.39 87.97 359.13 88.41 332.87 C 85.92 334.82 84.31 337.62 82.15 339.90 C 78.12 334.23 74.07 328.56 69.95 322.96 C 76.75 313.86 84.88 305.77 92.09 296.97 Z" />
<path fill="#985834" opacity="1.00" d=" M 44.36 320.28 C 45.34 319.67 46.44 318.77 47.65 319.43 C 51.55 320.77 55.37 322.36 59.24 323.81 C 59.61 328.50 63.45 331.48 65.10 335.60 C 63.04 337.30 60.77 338.79 58.09 339.25 C 47.69 341.80 37.40 344.82 26.95 347.13 C 23.79 344.35 20.84 341.33 18.00 338.22 C 26.87 332.35 35.54 326.20 44.36 320.28 Z" />
<path fill="#3e3e3e" opacity="1.00" d=" M 176.36 331.46 C 180.23 330.85 184.37 331.20 187.80 333.23 C 195.12 337.18 199.36 345.12 200.91 353.04 C 203.00 363.49 201.39 375.14 194.57 383.61 C 190.42 388.72 183.90 392.79 177.08 391.63 C 169.81 390.15 164.17 384.37 161.07 377.86 C 156.88 368.88 156.82 358.33 159.58 348.92 C 161.87 340.89 167.83 333.21 176.36 331.46 Z" />
<path fill="#3e3e3e" opacity="1.00" d=" M 284.38 331.47 C 291.17 330.08 298.18 333.39 302.39 338.68 C 308.11 345.72 310.19 355.14 309.67 364.06 C 309.30 373.35 305.18 382.87 297.48 388.38 C 293.00 391.69 286.76 393.01 281.60 390.54 C 273.03 386.93 267.87 378.02 266.32 369.16 C 265.09 361.09 265.69 352.57 269.03 345.06 C 271.82 338.58 277.27 332.89 284.38 331.47 Z" />
<path fill="#3e3e3e" opacity="1.00" d=" M 392.39 331.45 C 396.25 330.85 400.37 331.20 403.79 333.23 C 411.09 337.17 415.34 345.08 416.90 352.99 C 419.05 363.64 417.32 375.58 410.18 384.08 C 406.02 388.96 399.64 392.79 393.01 391.62 C 385.81 390.12 380.20 384.40 377.11 377.95 C 372.88 368.95 372.82 358.35 375.58 348.92 C 377.87 340.88 383.84 333.19 392.39 331.45 Z" />
<path fill="#f5722c" opacity="1.00" d=" M 494.93 365.97 C 499.72 364.48 504.42 362.72 509.22 361.24 C 510.84 360.34 511.30 362.49 512.00 363.44 L 512.00 379.78 C 503.59 376.86 495.07 374.24 486.69 371.26 C 489.27 369.27 491.70 366.87 494.93 365.97 Z" />
<path fill="#985834" opacity="1.00" d=" M 130.22 427.28 C 133.61 419.95 136.54 412.43 139.92 405.11 C 145.07 410.77 151.16 415.43 157.80 419.19 C 158.25 425.34 157.38 431.68 157.19 437.90 C 154.91 450.60 152.23 463.23 149.80 475.90 C 138.33 474.47 127.05 471.82 115.61 470.26 C 115.71 469.71 115.92 468.63 116.03 468.09 C 120.13 456.89 124.33 445.72 128.43 434.52 C 129.44 432.19 129.03 429.52 130.22 427.28 Z" />
<path fill="#f5722c" opacity="1.00" d=" M 471.58 414.31 C 472.73 415.57 473.99 416.79 475.64 417.38 C 487.78 422.66 499.90 428.01 512.00 433.38 L 512.00 467.65 C 509.98 472.44 507.98 477.24 506.03 482.05 C 495.51 468.84 485.24 455.43 474.65 442.27 C 474.00 441.28 472.99 440.36 473.03 439.08 C 472.45 430.83 472.23 422.56 471.58 414.31 Z" />
<path fill="#985834" opacity="1.00" d=" M 259.05 415.40 C 265.11 419.00 271.60 421.74 278.51 423.24 C 279.88 428.98 282.75 434.22 284.10 439.97 C 276.25 435.42 268.22 431.19 260.48 426.48 C 259.98 422.79 259.38 419.11 259.05 415.40 Z" />
<path fill="#985834" opacity="1.00" d=" M 374.36 432.50 C 375.18 428.51 375.68 424.45 376.70 420.50 C 383.00 422.26 389.37 424.26 395.99 424.04 C 400.06 424.25 403.97 423.05 407.96 422.50 C 407.46 430.60 413.04 436.90 415.85 444.04 C 415.61 447.47 413.02 450.34 411.72 453.49 C 407.39 448.40 403.26 443.14 398.95 438.04 C 398.08 436.89 396.50 436.92 395.25 436.57 C 388.28 435.24 381.27 434.12 374.36 432.50 Z" />
<path fill="#f5722c" opacity="1.00" d=" M 18.16 446.04 C 27.10 441.62 35.96 437.04 44.94 432.69 C 48.38 441.16 51.92 449.58 55.36 458.04 C 46.94 466.04 38.53 474.07 29.98 481.93 C 28.35 475.04 26.96 468.09 25.53 461.16 C 20.63 460.52 15.71 460.17 10.81 459.58 C 12.80 454.80 18.19 451.58 18.16 446.04 Z" />
<path fill="#f5722c" opacity="1.00" d=" M 202.13 467.11 C 202.86 467.06 204.34 466.98 205.08 466.94 C 205.60 476.47 206.08 486.02 206.60 495.56 C 202.19 496.02 197.78 496.47 193.38 497.05 C 195.83 486.96 199.18 477.08 202.13 467.11 Z" />
<path fill="#f5722c" opacity="1.00" d=" M 353.36 473.00 C 358.84 473.03 364.33 472.92 369.81 473.07 C 384.43 486.06 399.07 499.02 413.70 512.00 L 398.05 512.00 C 395.09 510.67 392.37 508.87 389.35 507.69 C 386.40 506.76 383.29 506.55 380.26 506.09 C 379.79 508.06 379.35 510.04 378.80 512.00 L 362.48 512.00 C 359.46 498.99 356.29 486.02 353.36 473.00 Z" />
<path fill="#3e3e3e" opacity="1.00" d=" M 380.26 506.09 C 383.29 506.55 386.40 506.76 389.35 507.69 C 392.37 508.87 395.09 510.67 398.05 512.00 L 378.80 512.00 C 379.35 510.04 379.79 508.06 380.26 506.09 Z" />
</svg>
