<?xml version="1.0" encoding="UTF-8" ?>
<!DOCTYPE svg PUBLIC "-//W3C//DTD SVG 1.1//EN" "http://www.w3.org/Graphics/SVG/1.1/DTD/svg11.dtd">
<svg width="512pt" height="512pt" viewBox="0 0 512 512" version="1.1" xmlns="http://www.w3.org/2000/svg">
<path fill="#3e3e3e" opacity="1.00" d=" M 0.00 0.00 L 215.06 0.00 L 214.24 0.03 C 215.65 27.96 217.13 55.90 218.56 83.83 C 171.13 69.37 123.71 54.88 76.30 40.38 C 104.28 71.83 132.26 103.29 160.17 134.80 C 123.77 134.80 87.36 134.79 50.96 134.81 C 74.37 167.23 97.82 199.63 121.26 232.03 C 86.85 242.06 52.40 251.92 18.03 262.06 C 47.45 280.49 76.87 298.93 106.27 317.39 C 81.34 327.87 56.39 338.32 31.46 348.82 C 67.37 360.31 103.30 371.77 139.21 383.26 C 105.97 422.44 72.78 461.67 39.50 500.83 C 104.67 488.09 169.84 475.35 235.01 462.59 C 213.58 452.60 192.12 442.66 170.70 432.66 C 195.62 418.15 220.61 403.75 245.53 389.23 C 213.06 368.33 180.67 347.31 148.21 326.39 C 176.63 320.36 205.07 314.43 233.49 308.40 C 211.62 282.42 189.61 256.56 167.73 230.59 C 198.65 226.52 229.58 222.61 260.51 218.55 C 257.00 188.12 253.49 157.68 250.00 127.25 C 260.97 131.76 271.96 136.22 282.92 140.72 C 286.96 115.78 290.92 90.83 294.94 65.89 C 314.40 86.35 333.86 106.80 353.32 127.26 C 379.75 116.30 406.16 105.27 432.61 94.37 C 420.18 123.31 407.67 152.23 395.22 181.17 C 422.68 181.62 450.14 182.19 477.60 182.64 C 459.66 196.11 441.67 209.51 423.78 223.05 C 453.19 223.83 482.59 224.51 512.00 225.24 L 512.00 512.00 L 0.00 512.00 L 0.00 0.00 Z" />
<path fill="#f5e5c1" opacity="1.00" d=" M 215.06 0.00 L 260.75 0.00 C 277.69 10.88 294.49 21.99 311.40 32.92 C 314.90 21.96 318.30 10.97 321.81 0.01 L 320.94 0.00 L 366.15 0.00 C 377.49 20.88 388.48 41.95 399.74 62.87 C 437.15 56.19 474.62 49.76 512.00 42.91 L 512.00 96.87 C 503.09 107.05 494.05 117.13 485.07 127.25 C 494.00 134.79 503.20 142.01 512.00 149.70 L 512.00 225.24 C 482.59 224.51 453.19 223.83 423.78 223.05 C 441.67 209.51 459.66 196.11 477.60 182.64 C 450.14 182.19 422.68 181.62 395.22 181.17 C 407.67 152.23 420.18 123.31 432.61 94.37 C 406.16 105.27 379.75 116.30 353.32 127.26 C 333.86 106.80 314.40 86.35 294.94 65.89 C 290.92 90.83 286.96 115.78 282.92 140.72 C 271.96 136.22 260.97 131.76 250.00 127.25 C 253.49 157.68 257.00 188.12 260.51 218.55 C 229.58 222.61 198.65 226.52 167.73 230.59 C 189.61 256.56 211.62 282.42 233.49 308.40 C 205.07 314.43 176.63 320.36 148.21 326.39 C 180.67 347.31 213.06 368.33 245.53 389.23 C 220.61 403.75 195.62 418.15 170.70 432.66 C 192.12 442.66 213.58 452.60 235.01 462.59 C 169.84 475.35 104.67 488.09 39.50 500.83 C 72.78 461.67 105.97 422.44 139.21 383.26 C 103.30 371.77 67.37 360.31 31.46 348.82 C 56.39 338.32 81.34 327.87 106.27 317.39 C 76.87 298.93 47.45 280.49 18.03 262.06 C 52.40 251.92 86.85 242.06 121.26 232.03 C 97.82 199.63 74.37 167.23 50.96 134.81 C 87.36 134.79 123.77 134.80 160.17 134.80 C 132.26 103.29 104.28 71.83 76.30 40.38 C 123.71 54.88 171.13 69.37 218.56 83.83 C 217.13 55.90 215.65 27.96 214.24 0.03 L 215.06 0.00 Z" />
<path fill="#3e3e3e" opacity="1.00" d=" M 260.75 0.00 L 320.94 0.00 L 321.81 0.01 C 318.30 10.97 314.90 21.96 311.40 32.92 C 294.49 21.99 277.69 10.88 260.75 0.00 Z" />
<path fill="#3e3e3e" opacity="1.00" d=" M 366.15 0.00 L 512.00 0.00 L 512.00 42.91 C 474.62 49.76 437.15 56.19 399.74 62.87 C 388.48 41.95 377.49 20.88 366.15 0.00 Z" />
<path fill="#3e3e3e" opacity="1.00" d=" M 485.07 127.25 C 494.05 117.13 503.09 107.05 512.00 96.87 L 512.00 149.70 C 503.20 142.01 494.00 134.79 485.07 127.25 Z" />
<path fill="#f5722c" opacity="1.00" d=" M 315.08 133.09 C 319.89 129.53 326.44 127.77 332.24 129.79 C 337.70 131.31 341.61 136.17 343.52 141.31 C 344.93 150.34 341.49 159.71 345.04 168.50 L 345.22 169.32 C 342.84 173.52 340.49 177.79 337.42 181.54 C 335.07 184.44 331.31 185.48 327.96 186.75 C 326.97 184.61 326.01 182.45 324.92 180.37 L 323.77 181.07 C 320.97 183.90 317.10 185.01 313.18 184.83 C 313.26 184.34 313.41 183.36 313.48 182.88 C 317.75 181.58 321.98 179.77 324.84 176.20 C 323.62 173.64 322.37 171.10 321.08 168.58 C 316.57 169.07 311.95 169.24 307.70 170.95 C 306.04 167.65 306.73 164.04 308.54 160.97 C 311.59 162.33 314.51 164.27 317.88 164.73 C 320.29 163.70 322.55 162.24 324.47 160.46 C 324.93 158.85 324.40 157.13 324.36 155.49 C 318.56 154.26 312.69 155.31 306.86 155.52 C 305.78 153.89 304.56 152.05 305.27 150.00 C 306.80 143.61 309.92 137.31 315.08 133.09 Z" />
<path fill="#f5722c" opacity="1.00" d=" M 346.72 163.15 C 346.54 162.67 346.19 161.71 346.01 161.23 C 349.12 161.99 352.17 163.25 354.47 165.56 C 358.02 168.99 362.22 171.74 365.32 175.63 C 368.07 178.95 370.12 182.79 372.86 186.13 C 379.50 194.20 382.05 204.62 387.32 213.52 C 389.92 218.54 390.79 224.26 393.64 229.17 C 400.04 240.77 399.89 254.39 402.47 267.07 C 403.71 272.30 405.65 277.33 407.35 282.42 C 408.84 286.92 411.84 290.64 414.38 294.57 C 419.55 302.67 427.25 308.68 433.32 316.03 C 433.42 320.34 428.89 323.29 425.63 325.53 C 415.89 329.94 404.39 335.42 393.86 330.24 C 378.69 325.40 364.69 316.79 353.95 304.99 C 351.93 303.04 351.20 299.18 347.88 299.15 C 349.75 305.61 354.75 310.23 359.31 314.85 C 359.57 317.32 360.08 319.76 360.67 322.18 C 347.13 331.18 333.72 340.62 322.45 352.44 C 317.03 357.61 312.21 363.47 308.42 369.93 C 310.98 377.73 313.52 385.71 313.39 394.03 C 313.15 402.37 313.38 410.70 313.43 419.04 C 313.53 427.69 314.95 436.37 313.85 445.01 C 313.66 446.43 312.88 447.65 312.30 448.93 C 309.41 448.09 306.51 447.33 303.61 446.59 C 297.37 444.92 290.88 445.96 284.53 445.33 C 284.83 440.14 286.42 435.16 287.26 430.05 C 288.96 419.13 290.53 408.13 290.45 397.06 C 290.39 392.68 290.73 388.33 291.21 383.99 C 291.88 376.96 290.41 369.96 290.68 362.94 C 290.69 361.53 292.30 360.91 293.06 359.92 C 298.37 347.90 305.04 336.46 312.98 325.99 C 317.69 318.81 323.43 312.37 327.88 305.02 C 329.04 303.14 330.35 301.36 331.71 299.62 C 336.49 299.06 341.26 298.52 346.06 298.19 C 355.89 296.62 365.77 298.59 375.55 299.61 C 375.00 287.35 377.53 275.23 377.73 262.99 C 379.47 247.99 378.53 232.80 376.89 217.83 C 375.64 227.88 377.64 237.92 377.41 247.98 C 377.07 264.60 375.81 281.19 374.23 297.74 C 361.88 295.35 349.30 296.67 336.91 297.90 C 327.47 299.06 317.88 299.17 308.57 301.27 C 306.61 301.49 303.47 302.88 302.65 300.17 C 302.45 297.02 302.88 293.83 302.24 290.71 C 301.39 285.16 299.30 279.92 297.47 274.65 C 297.35 274.09 297.10 272.98 296.97 272.42 C 307.19 270.48 317.66 272.76 327.97 272.08 C 335.11 271.47 342.28 271.40 349.41 270.69 C 350.19 257.70 352.39 242.89 344.19 231.67 C 344.73 234.63 345.88 237.42 346.76 240.28 C 348.86 247.84 348.59 255.76 348.62 263.52 C 347.06 259.92 345.00 256.52 342.15 253.79 C 335.13 247.08 333.30 237.09 331.31 228.02 C 329.34 221.71 328.73 214.96 329.13 208.42 C 331.24 203.48 332.32 198.01 335.67 193.69 C 338.86 189.45 341.84 185.06 344.76 180.64 C 346.61 177.79 348.95 175.17 350.06 171.91 C 350.82 168.54 348.90 165.50 346.72 163.15 Z" />
<path fill="#f5e5c1" opacity="1.00" d=" M 345.04 168.50 C 344.96 166.49 343.41 163.06 346.72 163.15 C 348.90 165.50 350.82 168.54 350.06 171.91 C 348.95 175.17 346.61 177.79 344.76 180.64 C 341.84 185.06 338.86 189.45 335.67 193.69 C 332.32 198.01 331.24 203.48 329.13 208.42 C 327.41 202.36 328.88 196.19 330.87 190.41 C 329.48 190.39 328.10 190.37 326.73 190.37 C 325.35 194.89 324.83 199.62 323.46 204.14 C 322.74 197.34 324.55 190.59 323.91 183.80 C 323.88 183.12 323.80 181.75 323.77 181.07 L 324.92 180.37 C 326.01 182.45 326.97 184.61 327.96 186.75 C 331.31 185.48 335.07 184.44 337.42 181.54 C 340.49 177.79 342.84 173.52 345.22 169.32 L 345.04 168.50 Z" />
<path fill="#f5e5c1" opacity="1.00" d=" M 302.49 180.58 C 305.65 179.20 308.72 177.29 312.25 177.05 C 312.29 177.56 312.38 178.59 312.42 179.10 C 307.21 182.06 301.66 184.91 295.69 185.89 C 296.76 182.93 299.96 181.93 302.49 180.58 Z" />
<path fill="#f5722c" opacity="1.00" d=" M 319.60 184.26 C 321.04 184.09 322.47 183.94 323.91 183.80 C 324.55 190.59 322.74 197.34 323.46 204.14 C 324.32 218.74 329.61 232.52 334.83 246.01 C 333.73 249.61 328.93 254.49 325.21 250.96 C 320.69 246.97 316.42 242.49 311.04 239.64 C 309.60 239.01 307.15 237.98 309.00 236.17 C 313.42 230.67 319.82 227.33 324.84 222.46 C 322.25 209.88 318.34 197.25 319.60 184.26 Z" />
<path fill="#3e3e3e" opacity="1.00" d=" M 364.74 199.19 C 369.27 200.64 371.94 204.77 374.46 208.50 C 374.50 209.22 374.58 210.65 374.62 211.36 C 372.98 206.09 368.23 203.10 364.74 199.19 Z" />
<path fill="#3e3e3e" opacity="1.00" d=" M 343.97 215.19 C 346.06 207.51 352.88 200.49 361.10 199.99 C 353.66 202.68 347.59 208.18 343.97 215.19 Z" />
<path fill="#f5e5c1" opacity="1.00" d=" M 247.41 237.56 C 253.70 237.70 259.84 239.27 266.08 239.93 C 273.77 241.90 281.68 243.50 288.96 246.69 C 287.66 248.32 287.26 251.45 284.74 251.55 C 277.16 252.39 269.75 249.72 262.16 250.22 C 257.21 248.57 253.60 244.41 250.00 240.81 C 249.13 240.42 248.26 240.02 247.40 239.63 C 247.40 239.12 247.41 238.08 247.41 237.56 Z" />
<path fill="#f5e5c1" opacity="1.00" d=" M 311.04 239.64 C 316.42 242.49 320.69 246.97 325.21 250.96 C 325.31 251.71 325.52 253.19 325.63 253.93 C 320.99 252.73 317.39 249.47 314.03 246.26 C 312.37 244.54 310.74 242.79 309.18 240.98 L 311.04 239.64 Z" />
<path fill="#f5722c" opacity="1.00" d=" M 299.52 246.74 C 302.52 244.54 305.52 242.35 308.74 240.47 L 309.18 240.98 C 310.74 242.79 312.37 244.54 314.03 246.26 C 313.52 247.18 312.97 248.08 312.38 248.95 C 315.11 252.11 319.67 253.77 320.94 258.02 C 318.32 260.39 316.13 263.22 313.36 265.42 C 311.08 266.16 308.69 264.78 306.82 263.54 C 304.85 263.29 302.55 263.47 301.25 261.67 C 299.71 260.44 300.92 258.42 301.47 257.02 C 298.67 257.79 295.68 259.43 292.77 258.20 C 291.46 254.64 296.17 253.86 298.38 252.37 C 298.75 250.49 299.13 248.61 299.52 246.74 Z" />
<path fill="#f5e5c1" opacity="1.00" d=" M 293.31 272.05 C 294.96 272.45 296.68 272.96 297.47 274.65 C 299.30 279.92 301.39 285.16 302.24 290.71 C 302.76 294.19 302.51 297.76 301.33 301.09 C 300.14 300.31 299.49 299.24 299.40 297.85 C 298.45 290.58 296.37 283.56 293.65 276.77 C 293.14 275.25 293.35 273.62 293.31 272.05 Z" />
<path fill="#f5722c" opacity="1.00" d=" M 262.07 282.59 C 261.73 278.87 265.48 277.21 268.06 275.44 C 276.56 272.19 285.07 277.02 293.65 276.77 C 296.37 283.56 298.45 290.58 299.40 297.85 C 295.94 299.85 291.88 299.73 288.07 300.46 C 282.47 301.36 277.07 303.22 271.45 303.98 C 271.46 302.85 271.48 301.72 271.49 300.60 C 274.98 299.42 278.51 298.33 281.86 296.76 C 275.13 296.41 268.87 299.80 262.12 299.64 C 263.02 297.47 264.35 295.55 265.85 293.76 C 270.42 292.52 275.15 291.57 279.38 289.36 C 272.41 288.67 265.88 291.67 259.13 292.72 C 256.49 293.30 257.18 289.55 258.93 288.94 C 264.44 285.35 270.99 283.94 277.13 281.84 C 272.16 280.20 267.06 282.01 262.07 282.59 Z" />
<path fill="#f5722c" opacity="1.00" d=" M 360.87 316.19 C 364.94 319.45 368.38 323.46 372.80 326.29 C 380.09 331.62 388.30 335.44 396.30 339.54 C 399.86 341.27 403.66 342.99 407.73 342.58 C 407.77 349.08 408.79 355.52 408.77 362.03 C 413.38 359.82 417.78 357.15 422.62 355.43 C 427.43 353.71 432.23 351.90 436.84 349.67 C 441.89 347.24 447.51 346.40 453.08 346.39 C 455.47 343.71 458.19 339.02 462.46 340.54 C 465.54 343.53 465.90 348.02 465.73 352.07 C 465.54 354.56 467.11 356.64 468.11 358.79 C 470.44 363.63 473.10 368.54 473.54 373.99 C 473.93 377.73 473.82 381.50 473.52 385.25 C 470.70 383.68 470.37 380.05 468.28 377.81 C 465.25 374.43 462.53 370.81 459.60 367.35 C 458.17 367.26 456.85 367.94 455.52 368.37 C 449.90 370.54 443.87 371.10 437.99 372.20 C 429.47 374.06 421.33 377.34 413.58 381.29 C 410.30 382.96 406.12 384.70 402.76 382.24 C 398.80 379.27 394.03 376.80 391.71 372.20 C 388.15 366.74 384.02 361.66 380.62 356.07 C 374.21 345.00 368.14 333.73 362.63 322.19 C 361.76 320.29 361.34 318.20 360.87 316.19 Z" />
<path fill="#f5722c" opacity="1.00" d=" M 283.44 447.71 C 288.68 446.91 294.03 447.44 299.31 447.56 C 302.87 447.94 307.01 447.46 309.82 450.13 C 308.95 454.80 308.42 459.52 308.16 464.27 C 307.66 464.54 306.65 465.09 306.15 465.36 C 302.07 464.26 296.57 464.63 294.82 459.86 C 289.09 456.93 283.04 461.01 277.14 459.95 C 272.11 458.21 266.73 458.14 261.64 456.70 C 257.44 455.59 253.33 454.16 249.31 452.50 C 249.34 452.03 249.40 451.08 249.42 450.61 C 260.81 452.81 272.38 450.52 283.44 447.71 Z" />
</svg>
