<?xml version="1.0" encoding="UTF-8" standalone="no"?>
<svg
   xmlns:dc="http://purl.org/dc/elements/1.1/"
   xmlns:cc="http://creativecommons.org/ns#"
   xmlns:rdf="http://www.w3.org/1999/02/22-rdf-syntax-ns#"
   xmlns:svg="http://www.w3.org/2000/svg"
   xmlns="http://www.w3.org/2000/svg"
   xmlns:sodipodi="http://sodipodi.sourceforge.net/DTD/sodipodi-0.dtd"
   xmlns:inkscape="http://www.inkscape.org/namespaces/inkscape"
   width="1280"
   height="1280"
   viewBox="0 0 1024 1024"
   version="1.1"
   id="svg2"
   inkscape:version="0.48.1 "
   sodipodi:docname="kill_twenty_from_above.svg">
  <metadata
     id="metadata108">
    <rdf:RDF>
      <cc:Work
         rdf:about="">
        <dc:format>image/svg+xml</dc:format>
        <dc:type
           rdf:resource="http://purl.org/dc/dcmitype/StillImage" />
      </cc:Work>
    </rdf:RDF>
  </metadata>
  <defs
     id="defs106" />
  <sodipodi:namedview
     pagecolor="#ffffff"
     bordercolor="#666666"
     borderopacity="1"
     objecttolerance="10"
     gridtolerance="10"
     guidetolerance="10"
     inkscape:pageopacity="0"
     inkscape:pageshadow="2"
     inkscape:window-width="1920"
     inkscape:window-height="1018"
     id="namedview104"
     showgrid="false"
     inkscape:snap-page="true"
     inkscape:zoom="0.6609375"
     inkscape:cx="640"
     inkscape:cy="640"
     inkscape:window-x="-8"
     inkscape:window-y="-8"
     inkscape:window-maximized="1"
     inkscape:current-layer="svg2"
     fit-margin-top="0"
     fit-margin-left="0"
     fit-margin-right="0"
     fit-margin-bottom="0" />
  <rect
     style="fill:#3e3e3e;fill-opacity:1;fill-rule:nonzero;stroke:none"
     id="rect3086"
     width="1024"
     height="1024"
     x="0"
     y="0" />
  <path
     d="M 0,0 0.1,0 C 0.06,0.06 0.02,0.16 0,0.22 L 0,0 z"
     id="path4"
     inkscape:connector-curvature="0"
     style="fill:#f5e5c1" />
  <path
     d="m 73.88,0 5.08,0 c 0.32,25.38 0.62,50.76 0.92,76.14 -1.64,0.04 -4.94,0.12 -6.6,0.16 0.18,-25.44 0.48,-50.86 0.6,-76.3 z"
     id="path8"
     inkscape:connector-curvature="0"
     style="fill:#f5722c" />
  <path
     d="m 108.94,0 2.08,0 c -0.48,22.62 -1.04,45.24 -1.32,67.88 -0.54,3.4 1.02,8.08 -2.54,10.22 -0.1,-26.04 1.54,-52.06 1.78,-78.1 z"
     id="path10"
     inkscape:connector-curvature="0"
     style="fill:#f5722c" />
  <path
     d="m 125.86,0 6.02,0 c -0.38,26.74 -0.84,53.48 -1.24,80.22 -2.62,-0.42 -5.26,-0.84 -7.88,-1.24 0.86,-26.34 2.06,-52.66 3.1,-78.98 z"
     id="path12"
     inkscape:connector-curvature="0"
     style="fill:#f5722c" />
  <path
     d="m 211.32,0 53.5,0 c 0.2,30.66 0.58,61.32 0.8,91.96 0.3,7.54 -1.88,16.5 4.8,21.98 0.78,14.12 1.38,28.24 2.42,42.34 -2,1 -4,1.98 -5.98,2.96 3.7,17.1 7,34.3 10.32,51.48 1.66,9.04 4.36,17.94 4.46,27.18 0.14,21.68 0.56,43.34 0.26,65 -25.74,6.1 -50.22,17.1 -72.08,31.98 -3.2,-8.28 -5.82,-16.8 -9.72,-24.8 -1.66,-3.06 -2.06,-6.56 -1.94,-9.98 0.24,-20.16 0.64,-40.3 0.88,-60.44 0.04,-5.9 2.28,-11.42 3.38,-17.14 2.94,-14.84 5.62,-29.74 8.8,-44.54 1.26,-5.42 1.46,-10.98 1.48,-16.52 -1.98,-0.62 -3.98,-1.22 -5.98,-1.84 0.3,-14.66 0.8,-29.3 0.9,-43.96 1.24,-1.42 2.5,-2.82 3.74,-4.24 C 211.26,74.28 211.34,37.14 211.32,0 z"
     id="path14"
     inkscape:connector-curvature="0"
     style="fill:#f5e5c1" />
  <path
     d="m 361.64,0 15.54,0 c 0.12,23.52 0.34,47.04 0.94,70.54 -5.66,-0.14 -11.32,-0.24 -16.98,-0.34 0.12,-23.4 0.42,-46.8 0.5,-70.2 z"
     id="path16"
     inkscape:connector-curvature="0"
     style="fill:#f5722c" />
  <path
     d="m 386.72,0 6.02,0 c -0.58,23.76 -0.72,47.54 -1.66,71.28 -2.14,-0.3 -4.26,-0.6 -6.38,-0.92 0.88,-23.44 1.6,-46.9 2.02,-70.36 z"
     id="path18"
     inkscape:connector-curvature="0"
     style="fill:#f5722c" />
  <path
     d="m 397.14,0 18.58,0 c -0.2,24.54 -1.18,49.08 -0.88,73.62 C 408.1,72.76 401.38,71.58 394.6,71.04 395.26,47.36 397,23.7 397.14,0 z"
     id="path20"
     inkscape:connector-curvature="0"
     style="fill:#f5722c" />
  <path
     d="m 484.18,0 53.08,0 c -0.14,38.34 1.36,76.64 1.24,114.96 1.5,1.52 3,3.04 4.5,4.56 0.4,14.32 1.82,28.58 2.3,42.92 -1.94,1 -3.88,2 -5.82,3 4.64,21.2 8.4,42.6 12.8,63.84 1.28,5.48 2.9,10.96 2.82,16.64 0.14,20.04 0.58,40.08 0.74,60.1 0.5,7.24 -3.9,13.36 -5.94,20.02 -5.86,17.32 -12.64,34.34 -18.04,51.8 1.4,0.48 4.18,1.44 5.58,1.9 -3.12,8.6 -6.24,17.2 -8.9,25.96 -10.42,0.12 -20.84,0.1 -31.26,0 -1.96,-8.08 -4.04,-16.16 -6.58,-24.08 1.52,-2.32 3.04,-4.66 4.58,-6.98 -7.4,-18.18 -13.8,-36.74 -20.96,-54.98 -1.82,-4.32 -2.52,-9 -2.4,-13.66 0.12,-21.3 0.34,-42.6 0.82,-63.9 1.44,-12.7 4.92,-25.08 7.02,-37.68 1.92,-12.36 6.08,-24.46 5.4,-37.1 -1.44,-0.28 -4.34,-0.86 -5.8,-1.14 -0.34,-14.88 1.24,-29.7 1.34,-44.56 4.98,-4.6 2.66,-11.7 3.1,-17.64 C 483.9,69.32 483.36,34.66 484.18,0 z"
     id="path22"
     inkscape:connector-curvature="0"
     style="fill:#f5e5c1" />
  <path
     d="m 631.62,0 10.7,0 c 0.18,25.44 0.72,50.86 0.84,76.3 -4.06,-0.02 -8.1,-0.06 -12.14,-0.08 0.16,-25.42 0.42,-50.82 0.6,-76.22 z"
     id="path24"
     inkscape:connector-curvature="0"
     style="fill:#f5722c" />
  <path
     d="m 660.5,0 4.92,0 c -0.6,25.66 -0.96,51.32 -1.58,76.98 -1.16,0.02 -3.5,0.06 -4.66,0.08 0.38,-20.32 1.2,-40.6 1.68,-60.92 C 660.9,10.78 661.88,5.28 660.5,0 z"
     id="path26"
     inkscape:connector-curvature="0"
     style="fill:#f5722c" />
  <path
     d="m 674.6,0 12.9,0 c -0.48,26.64 -0.86,53.26 -1.34,79.9 -4.84,-0.94 -9.68,-1.84 -14.54,-2.68 0.96,-25.74 2.32,-51.46 2.98,-77.22 z"
     id="path28"
     inkscape:connector-curvature="0"
     style="fill:#f5722c" />
  <path
     d="m 779.32,0 53.5,0 c 0.2,30.68 0.56,61.36 0.78,92.06 0.3,7.46 -1.84,16.3 4.74,21.72 0.88,14.24 1.48,28.48 2.5,42.72 -1.46,0.52 -4.38,1.58 -5.84,2.1 2.94,16.3 6.54,32.48 9.5,48.76 1.9,10.86 5.32,21.54 5.18,32.64 0.08,16.7 0.36,33.4 0.32,50.1 -0.1,7.34 0.86,14.96 -1.8,22 -5.52,15.34 -11.14,30.64 -16.34,46.1 -14,-15.56 -30.32,-29.02 -48.26,-39.78 -5.48,-3.38 -11.62,-5.72 -16.6,-9.86 -1.26,-4.7 -0.74,-9.64 -0.8,-14.44 0.42,-19.36 0.4,-38.74 1.08,-58.08 4.76,-19.5 7.86,-39.36 12.16,-58.98 1.12,-5.12 1.2,-10.38 1.24,-15.58 -2.04,-0.66 -4.08,-1.34 -6.1,-2.02 0.6,-14.54 0.84,-29.1 1.06,-43.66 1.22,-1.48 2.48,-2.96 3.72,-4.44 C 779.24,74.24 779.34,37.12 779.32,0 z"
     id="path30"
     inkscape:connector-curvature="0"
     style="fill:#f5e5c1" />
  <path
     d="m 918.52,0 12.28,0 c 0.34,23.26 0.58,46.52 0.88,69.78 -4.38,0.56 -8.74,1.14 -13.1,1.72 0.44,-21.16 0.22,-42.34 0.74,-63.52 C 919.36,5.3 919.1,2.62 918.52,0 z"
     id="path32"
     inkscape:connector-curvature="0"
     style="fill:#f5722c" />
  <path
     d="m 948.08,0 4.48,0 c -0.6,23.48 -0.94,46.96 -1.52,70.46 -1.22,0.08 -3.66,0.24 -4.88,0.32 0.46,-23.6 1.28,-47.18 1.92,-70.78 z"
     id="path34"
     inkscape:connector-curvature="0"
     style="fill:#f5722c" />
  <path
     d="m 960.64,0 14.08,0 c -0.4,23.98 -0.7,47.96 -1.22,71.94 -5.14,-0.32 -10.26,-0.64 -15.4,-1 0.68,-23.64 2.4,-47.28 2.54,-70.94 z"
     id="path36"
     inkscape:connector-curvature="0"
     style="fill:#f5722c" />
  <path
     d="m 417.8,68.14 c 1.5,-0.08 4.54,-0.24 6.06,-0.32 -0.04,2.9 -0.08,5.82 -0.08,8.74 -1.46,-0.34 -4.38,-1.04 -5.86,-1.38 -0.04,-2.36 -0.08,-4.7 -0.12,-7.04 z"
     id="path38"
     inkscape:connector-curvature="0"
     style="fill:#f5722c" />
  <path
     d="m 339.04,97.28 c 8.22,-2.08 16.36,-5.36 24.98,-5.1 17.74,0.5 35.78,0.06 53,5.06 2.1,4.98 -2.7,7.94 -5.86,10.82 -0.6,6.42 -0.58,12.88 -1.26,19.3 -1.4,0.32 -4.22,0.98 -5.64,1.3 -1.38,8.96 -0.04,18.14 0.2,27.16 0.36,30.82 0.42,61.66 0.88,92.5 1.68,2.08 4.54,3.72 4.76,6.64 0.9,12.3 0.62,24.7 1.86,36.98 1.36,3.72 -2.48,5.46 -5.34,6.14 0.58,3.62 0.98,7.3 0.86,11 -19.38,-8 -40.3,-11.78 -61.16,-13.08 0.22,-13.74 0.78,-27.46 0.86,-41.2 1.22,-1.34 2.46,-2.68 3.7,-4.02 -0.26,-39.82 -0.16,-79.66 -0.04,-119.5 -1.96,-0.9 -3.9,-1.8 -5.86,-2.7 -0.38,-6.46 0.08,-13.06 -1.58,-19.38 -1.32,-0.16 -3.96,-0.46 -5.3,-0.6 0.32,-3.78 0.62,-7.56 0.94,-11.32 z"
     id="path40"
     inkscape:connector-curvature="0"
     style="fill:#f5e5c1" />
  <path
     d="m 907.04,97.3 c 8.2,-2.06 16.28,-5.48 24.9,-5.08 17.78,0.44 35.84,0.04 53.1,5.04 2.24,5.28 -3.64,7.82 -5.96,11.64 -0.7,6.06 -0.48,12.2 -1.1,18.3 -2.66,0.38 -7.3,0.5 -6.22,4.58 1.2,38.76 1.06,77.56 1.5,116.36 1.9,2.22 4.82,4.12 4.8,7.42 1.1,12.14 0.6,24.36 1.94,36.48 1.42,3.74 -2.62,5.44 -5.46,5.88 3.48,19.9 7.7,39.66 11.5,59.5 1.2,6.84 3.26,13.6 3.2,20.6 0.16,20.64 0.64,41.28 0.74,61.9 0.16,4.02 -1.02,7.9 -2.42,11.62 -7.16,19.62 -13.94,39.4 -21.16,59.02 1.88,0.9 3.78,1.8 5.7,2.7 -2.88,8.16 -5.96,16.26 -8.44,24.56 -10.62,0.36 -21.24,0.2 -31.86,0.06 -1.78,-7.94 -4.16,-15.74 -6.24,-23.62 1.44,-2.02 3.26,-3.86 4.24,-6.2 -7.5,-21 -15.78,-41.76 -23.34,-62.72 -0.66,-16.42 0.26,-32.88 0.36,-49.3 0.46,-9.84 -0.76,-19.9 2,-29.5 3.4,-16.4 6.38,-32.88 9.76,-49.28 1.24,-5.46 1.18,-11.1 1.02,-16.66 -1.32,-0.38 -4,-1.16 -5.34,-1.54 0.22,-14.76 0.84,-29.5 0.9,-44.26 1.22,-1.34 2.46,-2.68 3.7,-4.02 -0.24,-39.86 -0.12,-79.74 -0.04,-119.6 -1.96,-0.84 -3.9,-1.68 -5.82,-2.52 -0.88,-6.28 0.94,-13.48 -2.24,-19.12 -7.3,0.2 -3.52,-7.88 -3.72,-12.24 z"
     id="path42"
     inkscape:connector-curvature="0"
     style="fill:#f5e5c1" />
  <path
     d="m 54.44,103.3 c 8.46,-1.92 16.64,-5.78 25.5,-5.1 17.12,0.54 34.62,-0.08 51.12,5.18 4.74,4.2 -2.86,7.7 -4.7,11.2 -1.66,6.12 -0.9,12.64 -1.46,18.94 -1.46,0.22 -4.42,0.68 -5.88,0.92 0.24,39.72 0.76,79.42 1.5,119.1 0.28,2.44 2.86,3.64 4.26,5.44 0.42,14.4 2,28.74 2.22,43.16 -2.08,0.82 -4.06,1.82 -5.94,3 4.98,19.74 8.04,39.92 12.26,59.84 0.84,6.98 4.28,13.5 3.76,20.68 0.08,20.74 0.74,41.5 0.68,62.26 0.28,3.84 -2.08,7.02 -3.42,10.44 -7.22,19.3 -13.46,38.98 -21.08,58.12 1.96,0.98 3.94,1.98 5.94,2.98 -3.16,8 -5.82,16.18 -8.46,24.36 -10.6,0.38 -21.22,0.12 -31.82,0.14 -2.14,-7.96 -4.36,-15.92 -6.36,-23.92 1.54,-1.86 3.1,-3.74 4.66,-5.6 -7.16,-17.62 -13.38,-35.6 -20.26,-53.34 -1.38,-3.6 -2.98,-7.26 -2.96,-11.18 -0.14,-18.68 0.16,-37.36 0.36,-56.02 0.06,-6.94 -0.22,-13.96 1.32,-20.78 3.84,-17.64 6.86,-35.42 10.64,-53.08 0.76,-4.26 0.64,-8.6 0.68,-12.88 -2,-0.72 -4,-1.44 -6,-2.16 0.68,-14.8 0.12,-29.7 1.76,-44.44 3.96,-3.06 2.84,-8.16 2.92,-12.5 -0.14,-36.96 0.04,-73.9 -0.1,-110.86 -1.96,-0.92 -3.92,-1.84 -5.88,-2.76 -0.48,-6.24 0.28,-12.7 -1.36,-18.74 -1.08,-0.24 -3.26,-0.7 -4.36,-0.94 0.06,-3.82 0.22,-7.66 0.46,-11.46 z"
     id="path44"
     inkscape:connector-curvature="0"
     style="fill:#f5e5c1" />
  <path
     d="m 611.06,103.54 c 8.32,-1.72 16.26,-5.68 24.92,-5.34 17.72,0.36 35.7,0.1 52.92,5.04 0.4,1.1 1.22,3.3 1.64,4.4 -2.66,3.12 -7.54,5.4 -7.2,10.12 -0.44,5.22 -0.5,10.44 -0.8,15.66 -1.98,0.38 -3.96,0.76 -5.92,1.14 0.46,39.78 0.92,79.56 1.02,119.32 1.62,1.86 3.28,3.72 4.94,5.58 0.62,12.34 0.56,24.76 2.18,37.04 -20.74,3.68 -41.74,8.46 -60.12,19.12 0.02,-2.72 0.04,-5.44 0.08,-8.16 -2.02,-0.82 -4.04,-1.64 -6.04,-2.46 0.46,-14.84 0.76,-29.68 1.04,-44.54 0.9,-0.8 2.72,-2.42 3.62,-3.22 -0.04,-39.96 -0.1,-79.92 0.04,-119.86 -2,-0.92 -4,-1.82 -5.98,-2.74 -0.2,-6.38 -0.32,-12.8 -1.12,-19.14 -1.52,-0.18 -4.58,-0.52 -6.12,-0.7 0.26,-3.76 0.56,-7.5 0.9,-11.26 z"
     id="path46"
     inkscape:connector-curvature="0"
     style="fill:#f5e5c1" />
  <path
     d="m 314.44,318.7 c 34.16,-2.64 70.58,0.08 100.4,18.58 28.46,17.24 45.66,48.08 54,79.5 7.06,26 10.06,53.68 4.04,80.18 -9.08,42.28 -32.28,79.86 -58.02,113.98 -15.42,20.34 -32.78,39.14 -50.98,57.02 28.34,0.04 56.68,0.12 85.02,-0.04 0.32,26.08 0.34,52.14 1.28,78.2 -74.08,-0.24 -148.18,-0.14 -222.26,-0.04 0.16,-23.68 0.08,-47.36 0.06,-71.04 20.56,-3.16 38.88,-13.8 56.06,-25 34.68,-24.18 65.66,-55.14 85.04,-93.08 11.84,-23.46 17.54,-52.16 6.82,-77.1 -6.38,-13.84 -16.44,-27.84 -31.68,-32.48 -14.1,-3.86 -29.18,-1.14 -42.58,4.1 -22.3,8.78 -41.16,24.34 -57.5,41.56 -20.88,-34.44 -41.56,-68.98 -62.56,-103.36 4.78,-7.68 11.66,-13.72 18.16,-19.88 32.18,-27.62 72.42,-46.34 114.7,-51.1 z"
     id="path48"
     inkscape:connector-curvature="0"
     style="fill:#f5722c" />
  <path
     d="m 697.95,317.8 c -5.7953,0.13517 -11.60875,0.63374 -17.35,1.5 -54.14,8.4 -97.94,49.19 -122.3,96.65 -25.84,50.02 -33.35,108.56 -24.35,163.9 8.42,50.36 32.02,99.36 71.1,133 26.62,23.1 61.35,38.14 96.95,37.2 38.88,0.82 76.33,-17.46 103.65,-44.4 29.6,-28.68 49.39,-66.46 59.15,-106.3 12.8,-52.28 9.96,-108.56 -9.3,-158.9 C 839.22,397.83 810.28,358.64 770.1,336 748.27626,323.43875 723.06298,317.21424 697.95,317.8 z m 3.8,130.45 c 18.13227,0.19931 35.89125,8.53374 48.55,21.55 24,23.94 33.25,59.08 32.75,92.2 0.38,28.68 -8.55,57.83 -26.95,80.05 -11.82,14.32 -28.1,25.72 -46.6,29 -20.16,3.18 -40.16,-6.41 -54.6,-19.95 -24.12,-23.34 -35.05,-57.94 -33.95,-91 -0.48,-24.82 5.09,-50.02 17.55,-71.6 10.94,-18.9 28.98,-34.49 50.7,-39.05 4.17,-0.85875 8.36563,-1.246 12.55,-1.2 z"
     id="path50"
     style="fill:#f4722b"
     inkscape:connector-curvature="0" />
  <path
     d="m 504.9,427.86 c 1.34,-0.04 4.06,-0.1 5.42,-0.12 -0.78,33.42 -1.46,66.86 -2.3,100.28 -1.48,-0.02 -4.44,-0.04 -5.92,-0.04 0.78,-33.38 1.88,-66.74 2.8,-100.12 z"
     id="path52"
     inkscape:connector-curvature="0"
     style="fill:#f5722c" />
  <path
     d="m 516.5,427.7 c 4.04,0.02 8.08,0.04 12.12,0.04 -6.32,15.98 -10.2,32.74 -14.56,49.32 1.34,-16.42 1.46,-32.92 2.44,-49.36 z"
     id="path54"
     inkscape:connector-curvature="0"
     style="fill:#f5722c" />
  <path
     d="m 673.02,481.02 c 3.76,-3.48 8.46,-5.66 13.18,-7.54 -4.66,14.5 -9.88,28.84 -15.3,43.08 1.98,0.96 3.98,1.92 5.98,2.9 -3.34,8.02 -5.88,16.34 -8.76,24.54 -8.24,0 -16.48,-0.02 -24.7,0 2.26,-23.38 11.46,-47.34 29.6,-62.98 z"
     id="path58"
     inkscape:connector-curvature="0"
     style="fill:#f5e5c1" />
  <path
     d="m 350.58,478.56 c 4.9,7.02 7.64,15.5 9.2,23.88 -2.26,-5.32 -4.02,-10.84 -5.96,-16.26 -2.38,-1.86 -4.16,-4.48 -3.24,-7.62 z"
     id="path60"
     inkscape:connector-curvature="0"
     style="fill:#f5e5c1" />
  <path
     d="m 216.24,489.6 c 3.78,5.66 6.92,11.76 10.98,17.24 2.54,3.24 8.16,4.38 7.54,9.38 -6.12,-0.22 -12.2,0.38 -18.24,1.4 0.14,-9.34 1.02,-18.74 -0.28,-28.02 z"
     id="path62"
     inkscape:connector-curvature="0"
     style="fill:#f5722c" />
  <path
     d="m 248.02,515.34 c 8.7,-3.84 15.6,-10.14 22.06,-17.02 -0.16,6.38 -0.22,12.78 -0.04,19.18 -10.18,0.28 -20.26,-1.72 -30.42,-0.86 -0.02,-0.84 -0.08,-2.54 -0.12,-3.38 2.82,0.72 5.66,1.42 8.52,2.08 z"
     id="path64"
     inkscape:connector-curvature="0"
     style="fill:#f5722c" />
  <path
     d="m 486.68,528.18 c 2.54,-7.92 4.62,-15.96 7.26,-23.84 -0.96,7.8 -0.7,15.66 -0.44,23.48 -2.28,0.12 -4.54,0.24 -6.82,0.36 z"
     id="path66"
     inkscape:connector-curvature="0"
     style="fill:#f5722c" />
  <path
     d="m 358.04,512.8 c 2.66,0.28 3.16,1.7 1.46,4.22 -2.68,-0.3 -3.16,-1.72 -1.46,-4.22 z"
     id="path68"
     inkscape:connector-curvature="0"
     style="fill:#f5e5c1" />
  <path
     d="m 679.8,561.98 c 9.76,-6.72 11.76,-19.16 15.46,-29.56 0.78,10.48 1.44,21.3 -1.16,31.58 -0.26,28.26 -0.9,56.54 -1.2,84.82 -5.86,-2 -11.32,-4.88 -16.44,-8.3 1.26,-26.18 2.16,-52.36 3.34,-78.54 z"
     id="path70"
     inkscape:connector-curvature="0"
     style="fill:#f5722c" />
  <path
     d="m 205.4,543.62 c 7.08,-0.82 13.42,-4.58 20.5,-5.3 19.04,-0.2 38.28,0.02 56.76,5.16 0.5,1.08 1.5,3.24 2,4.34 -2.48,2.44 -4.92,4.94 -7.28,7.5 -0.18,6.36 -0.58,12.72 -0.92,19.08 -1.44,0.02 -4.32,0.06 -5.76,0.08 0.16,19.24 0.38,38.48 0.48,57.72 -16.34,11.08 -34.36,20.12 -54,23.36 0.22,-26 0.14,-52 0.06,-77.98 -2,-0.92 -3.98,-1.88 -5.94,-2.86 -0.02,-6.06 -0.4,-12.1 -0.6,-18.16 -2.18,-0.58 -4.38,-1.14 -6.56,-1.68 0.2,-3.78 0.6,-7.54 1.26,-11.26 z"
     id="path72"
     inkscape:connector-curvature="0"
     style="fill:#f5e5c1" />
  <path
     d="m 477,553.24 c 9.84,-4.78 21.34,-3.3 31.92,-2.78 1.8,38.68 12.38,76.84 28.78,111.82 1.5,14.1 0.44,28.4 0.76,42.58 1.48,1.5 2.98,3 4.5,4.52 0.48,14.4 1.86,28.74 2.34,43.14 -2,0.96 -3.96,1.92 -5.94,2.9 5.8,24.86 9.52,50.18 15.48,75 0.52,22.54 0.82,45.1 0.96,67.64 0.28,4.9 -2.7,9.04 -4.24,13.5 -6.7,18.58 -13.06,37.32 -20.06,55.78 1.46,0.62 4.38,1.84 5.86,2.44 -2.88,8.62 -6.28,17.06 -8.72,25.84 -10.46,0.28 -20.94,0.18 -31.42,0.04 -1.98,-8.16 -3.88,-16.34 -6.68,-24.26 1.48,-1.86 3,-3.7 4.56,-5.5 -6.74,-21.1 -15.72,-41.46 -22.78,-62.44 -0.88,-17.08 0.02,-34.24 0.08,-51.34 0.38,-9.42 -0.64,-19 1.5,-28.26 3.68,-17.22 6.64,-34.58 10.3,-51.78 1.06,-4.88 0.92,-9.88 0.88,-14.82 -1.42,-0.26 -4.3,-0.78 -5.72,-1.02 -0.34,-14.98 1.46,-29.88 1.26,-44.84 4.08,-2.52 3.14,-7.34 3.2,-11.38 0.58,-24 0.18,-48.02 0.3,-72.02 -0.12,-13.52 0.38,-27.08 -0.78,-40.54 -1.16,-0.5 -3.44,-1.5 -4.58,-2 -1.7,-6.02 -1.26,-12.38 -1.58,-18.56 -1.38,-0.44 -4.14,-1.34 -5.54,-1.8 1.14,-4.2 2.72,-8.34 5.36,-11.86 z"
     id="path74"
     inkscape:connector-curvature="0"
     style="fill:#f5e5c1" />
  <path
     d="m 968.98,559.02 c 5.52,-2.12 10.34,-5.62 14.08,-10.22 -0.86,36.62 -1.32,73.28 -1.88,109.9 -5.38,-0.86 -10.74,-1.7 -16.12,-2.52 1.24,-32.38 2.72,-64.78 3.92,-97.16 z"
     id="path76"
     inkscape:connector-curvature="0"
     style="fill:#f5722c" />
  <path
     d="m 927.28,558.98 c 3.76,0.7 8.12,0.16 11.54,1.96 0.4,31.68 0.86,63.38 1.14,95.06 -4.54,0.02 -9.06,-0.04 -13.6,-0.12 0.48,-32.3 0.56,-64.6 0.92,-96.9 z"
     id="path78"
     inkscape:connector-curvature="0"
     style="fill:#f5722c" />
  <path
     d="m 956.08,560 c 1.1,0 3.3,0 4.4,0 -0.6,32.04 -1.26,64.08 -1.96,96.12 -1.26,0 -3.82,0 -5.08,0 0.7,-32.04 1.82,-64.08 2.64,-96.12 z"
     id="path80"
     inkscape:connector-curvature="0"
     style="fill:#f5722c" />
  <path
     d="m 69.04,563.24 c 5.62,1.38 11.26,2.74 17.08,2.86 -0.16,30.04 0.6,60.08 0.84,90.12 -6.36,-0.12 -12.74,0.02 -19.04,1 1.28,-31.28 0.82,-62.66 1.12,-93.98 z"
     id="path82"
     inkscape:connector-curvature="0"
     style="fill:#f5722c" />
  <path
     d="m 102.6,566.48 c 6.94,-0.46 13.76,-1.92 20.32,-4.2 -0.86,31.78 -1.3,63.58 -1.6,95.38 -7.28,-0.02 -14.52,-0.56 -21.76,-1.08 0.32,-30.06 2.26,-60.06 3.04,-90.1 z"
     id="path84"
     inkscape:connector-curvature="0"
     style="fill:#f5722c" />
  <path
     d="m 92.82,566.34 c 1.62,-0.12 4.86,-0.38 6.48,-0.5 -0.2,30.22 -1.9,60.44 -0.76,90.66 -2.02,-0.02 -6.04,-0.06 -8.04,-0.06 0.52,-30.04 1.84,-60.06 2.32,-90.1 z"
     id="path86"
     inkscape:connector-curvature="0"
     style="fill:#f5722c" />
  <path
     d="m 642.96,565.78 c 2.82,0.18 5.66,0.34 8.5,0.52 -0.4,13.82 0.36,27.66 0.22,41.5 -6.6,-12.98 -8.68,-27.62 -8.72,-42.02 z"
     id="path88"
     inkscape:connector-curvature="0"
     style="fill:#f5722c" />
  <path
     d="m 666.96,566.22 c 1.22,-0.32 3.66,-0.98 4.88,-1.32 -0.38,23.34 -1.06,46.66 -1.32,70 -3.5,0.08 -4.3,-4.2 -5.08,-6.8 0.22,-20.64 1.38,-41.24 1.52,-61.88 z"
     id="path90"
     inkscape:connector-curvature="0"
     style="fill:#f5722c" />
  <path
     d="m 55,683.26 c 8.2,-2.1 16.3,-5.32 24.9,-5.06 17.72,0.48 35.72,0.04 52.92,5 0.22,1.12 0.66,3.4 0.88,4.54 -2.14,2.08 -4.42,4.08 -6.2,6.52 -1.42,6.16 -0.94,12.58 -1.38,18.86 -1.54,0.34 -4.64,0.98 -6.18,1.3 0.9,39.8 0.86,79.64 1.36,119.46 1.88,2.42 4.76,4.52 4.76,7.9 1.04,12.1 0.76,24.3 1.88,36.42 1.2,3.7 -2.84,4.9 -5.38,6.04 4.36,24.86 9.96,49.52 14.32,74.38 0.9,21.76 0.72,43.58 1.08,65.38 l -83.74,0 c 0.28,-21.12 0.4,-42.24 1.08,-63.34 3.7,-19.82 7.88,-39.56 11.64,-59.36 0.8,-4.8 0.78,-9.64 0.84,-14.48 -1.4,-0.48 -4.2,-1.44 -5.58,-1.94 0.48,-13.74 0.64,-27.48 1,-41.2 -0.3,-2.94 2.12,-4.98 3.46,-7.26 0.2,-39.74 -0.06,-79.5 0.14,-119.24 -1.92,-0.84 -3.86,-1.68 -5.78,-2.5 -1.38,-7.04 2.78,-18.64 -6.62,-20.92 -0.12,-3.52 0.3,-7.02 0.6,-10.5 z"
     id="path92"
     inkscape:connector-curvature="0"
     style="fill:#f5e5c1" />
  <path
     d="m 906.9,681.54 c 15.86,-5.26 32.66,-3.3 49.06,-3.4 9.28,0.32 19.16,0.38 27.66,4.44 3.94,4.44 -4.06,7.72 -5.56,11.72 -0.9,6.02 -0.72,12.16 -1.04,18.24 -1.46,0.06 -4.38,0.16 -5.84,0.22 -0.02,40.1 1.6,80.16 1.36,120.26 1.48,1.52 2.98,3.06 4.5,4.62 0.36,14.28 1.84,28.52 2.24,42.82 -1.94,0.98 -3.86,1.96 -5.78,2.96 5.38,24.78 9.56,49.84 15.16,74.56 0.96,21.98 0.8,44.02 1.14,66.02 l -83.8,0 c -0.12,-18 0.38,-36 0.46,-53.98 -0.54,-15.66 4.52,-30.66 7,-45.96 1.98,-12.9 6.34,-25.54 5.7,-38.72 -1.46,-0.3 -4.38,-0.92 -5.84,-1.22 -0.24,-14.88 1.22,-29.7 1.32,-44.58 2.56,-2.56 4.04,-5.82 3.52,-9.5 -1.42,-38.14 1,-76.32 -0.5,-114.46 -1.1,-0.4 -3.3,-1.2 -4.4,-1.6 -2.46,-6.04 -1.68,-12.8 -2.12,-19.2 -1.34,-0.44 -3.98,-1.3 -5.32,-1.74 0.28,-3.86 0.62,-7.68 1.08,-11.5 z"
     id="path94"
     inkscape:connector-curvature="0"
     style="fill:#f5e5c1" />
  <path
     d="m 817.22,725.04 c 6.02,-5.9 11.94,-11.9 17.72,-18.06 3.26,3.56 2.02,8.68 2.48,13.08 0.68,10.78 1.48,21.56 1.86,32.38 -1.98,1.02 -3.94,2.04 -5.9,3.08 5.76,24.78 9.5,50.04 15.48,74.78 0.46,22.52 0.84,45.08 0.92,67.64 0.34,4.92 -2.62,9.08 -4.2,13.54 -6.64,18.6 -13.1,37.28 -20.02,55.8 1.46,0.62 4.36,1.9 5.8,2.52 -2.94,8.62 -6.38,17.06 -8.7,25.88 -10.5,0.14 -21,0.2 -31.5,-0.06 -1.86,-8.16 -3.86,-16.32 -6.62,-24.22 1.48,-1.86 2.98,-3.66 4.56,-5.44 -6.68,-21.16 -15.8,-41.54 -22.78,-62.6 -0.88,-17.1 0.04,-34.26 0.06,-51.36 0.4,-9.42 -0.62,-19 1.54,-28.26 3.74,-17.2 6.62,-34.56 10.32,-51.76 1.04,-4.82 0.88,-9.76 0.88,-14.64 -1.4,-0.32 -4.18,-0.98 -5.56,-1.3 15.3,-9.16 30.56,-18.74 43.66,-31 z"
     id="path96"
     inkscape:connector-curvature="0"
     style="fill:#f5e5c1" />
  <path
     d="m 624.7,752.92 c 16.76,9.14 35.34,14.06 54,17.64 0.3,21.16 0.32,42.32 0.6,63.48 2.16,2.6 5.24,5.1 4.98,8.86 0.6,11.74 0.64,23.5 1.68,35.24 1.18,3.72 -2.82,5 -5.38,6.12 4.36,24.76 9.86,49.34 14.28,74.1 0.92,21.84 0.72,43.76 1.1,65.64 l -83.76,0 c 0.14,-18.64 0.64,-37.28 0.78,-55.92 -0.2,-11.56 3.88,-22.58 5.48,-33.94 2.56,-15.74 7.76,-31.22 7.28,-47.32 -1.38,-0.46 -4.14,-1.36 -5.52,-1.8 0.38,-14.68 0.8,-29.34 0.98,-44 1.2,-1.52 2.42,-3 3.64,-4.48 -0.28,-27.88 0,-55.76 -0.14,-83.62 z"
     id="path98"
     inkscape:connector-curvature="0"
     style="fill:#f5e5c1" />
  <path
     d="m 205.12,823.3 c 4.4,-19.34 7.96,-38.92 11.78,-58.4 4.9,1.4 9.84,3.06 15.02,3.1 15.24,0.1 30.48,-0.16 45.7,0.1 3.06,16.72 6.8,33.32 9.7,50.06 0.82,23.22 0.56,46.5 0.72,69.74 0.2,4.6 -1.32,8.98 -2.94,13.2 -6.94,18.5 -12.82,37.4 -20.3,55.68 2,1 4,2.02 6.02,3.06 -2.98,7.86 -5.92,15.74 -8.16,23.86 -10.74,0.62 -21.5,0.24 -32.24,0.24 -2.08,-7.98 -4.64,-15.84 -6.14,-23.92 1.12,-1.18 3.34,-3.52 4.46,-4.7 -8.14,-21.2 -15.48,-42.78 -24.36,-63.64 -0.38,-22.78 0.54,-45.6 0.74,-68.38 z"
     id="path100"
     inkscape:connector-curvature="0"
     style="fill:#f5e5c1" />
  <path
     d="m 356.72,768.04 c 18,-0.06 35.98,-0.08 53.98,0 0.26,21.98 0.28,43.98 0.6,65.96 1.78,2.32 4.62,4.28 4.74,7.48 1.06,12.2 0.78,24.46 1.86,36.66 1.04,3.7 -3.3,4.86 -5.18,7.14 4.38,24.4 9.8,48.64 14.12,73.04 0.96,21.86 0.72,43.78 1.14,65.68 l -83.76,0 c 0.1,-18.68 0.66,-37.36 0.76,-56.06 -0.18,-11.52 3.86,-22.5 5.5,-33.8 2.56,-15.76 7.7,-31.24 7.26,-47.32 -1.36,-0.46 -4.12,-1.34 -5.48,-1.78 0.24,-14.72 0.8,-29.44 0.92,-44.16 1.2,-1.4 2.4,-2.8 3.62,-4.2 -0.14,-22.88 0,-45.76 -0.08,-68.64 z"
     id="path102"
     inkscape:connector-curvature="0"
     style="fill:#f5e5c1" />
</svg>
