<?xml version="1.0" encoding="UTF-8" ?>
<!DOCTYPE svg PUBLIC "-//W3C//DTD SVG 1.1//EN" "http://www.w3.org/Graphics/SVG/1.1/DTD/svg11.dtd">
<svg width="512pt" height="512pt" viewBox="0 0 512 512" version="1.1" xmlns="http://www.w3.org/2000/svg">
<path fill="#3e3e3e" opacity="1.00" d=" M 0.00 0.00 L 512.00 0.00 L 512.00 281.46 C 505.13 276.53 497.91 272.11 490.97 267.27 C 490.85 264.12 491.52 260.72 490.09 257.77 C 480.63 239.85 471.61 221.68 462.24 203.70 C 460.88 200.98 458.88 198.13 459.99 194.96 C 467.91 154.79 475.42 114.54 483.35 74.37 C 454.65 87.05 425.87 99.57 397.06 112.02 C 385.38 77.05 373.34 42.21 361.65 7.25 C 354.41 55.18 348.30 103.28 341.30 151.26 C 349.24 148.54 357.21 145.86 365.11 143.01 C 365.77 153.37 366.42 163.73 366.96 174.10 C 377.45 169.40 387.76 164.32 398.18 159.47 C 395.36 173.87 392.83 188.32 389.97 202.72 C 402.20 201.69 414.44 200.83 426.67 199.92 C 421.74 224.08 416.73 248.22 412.05 272.43 C 423.04 276.97 434.06 281.44 444.95 286.21 C 434.49 301.45 424.19 316.81 413.71 332.04 C 416.62 331.56 419.53 331.07 422.44 330.58 C 421.60 331.70 420.78 332.83 419.96 333.97 C 450.66 328.02 481.32 321.91 512.00 315.87 L 512.00 512.00 L 362.53 512.00 C 373.03 503.34 383.64 494.80 394.14 486.14 C 408.48 489.28 422.97 491.66 437.33 494.67 C 443.96 495.90 450.51 497.67 457.26 498.19 C 451.26 481.99 445.42 465.73 439.23 449.60 C 441.11 449.17 443.15 448.97 444.69 447.67 C 460.35 435.04 475.99 422.38 491.73 409.84 C 491.36 408.37 491.01 406.90 490.67 405.44 C 458.21 392.70 425.89 379.62 393.46 366.82 C 394.86 383.31 395.77 399.84 397.24 416.34 C 381.66 412.67 366.06 409.11 350.53 405.24 C 347.08 420.20 343.78 435.20 340.29 450.15 C 324.11 438.56 308.12 426.70 291.96 415.09 C 290.07 413.08 287.88 414.93 286.10 416.06 C 271.00 426.36 255.63 436.26 240.55 446.59 C 227.55 434.52 214.86 422.12 201.94 409.96 C 184.18 417.51 166.46 425.14 148.78 432.88 C 141.35 414.30 133.61 395.84 126.44 377.16 C 122.65 375.68 118.80 377.25 115.09 378.13 C 84.54 385.52 53.92 392.66 23.23 399.48 C 46.75 412.35 70.19 425.36 93.67 438.31 C 97.33 440.44 101.68 439.14 105.65 439.11 C 104.05 445.10 102.22 451.03 100.66 457.04 C 100.29 458.68 99.45 460.14 98.46 461.48 C 89.60 473.15 80.82 484.89 72.05 496.63 C 74.94 497.30 77.91 498.12 80.88 497.52 C 105.91 492.97 130.96 488.53 155.99 483.99 C 166.76 493.38 177.50 502.80 188.42 512.00 L 0.00 512.00 L 0.00 320.07 C 32.80 324.16 65.77 327.03 98.44 332.12 C 88.14 316.72 77.53 301.54 67.27 286.11 C 78.28 281.52 89.41 277.18 100.25 272.20 C 95.10 248.19 90.65 224.04 85.42 200.04 C 97.70 200.96 109.96 202.00 122.24 202.77 C 119.35 188.50 116.77 174.16 114.13 159.85 C 124.51 164.55 134.74 169.58 145.06 174.40 C 145.78 163.99 146.44 153.58 146.93 143.17 C 154.86 146.07 162.90 148.64 170.84 151.50 C 167.33 126.01 163.60 100.55 160.22 75.05 C 157.13 52.33 153.60 29.66 150.78 6.91 C 146.41 17.32 143.24 28.19 139.57 38.85 C 131.26 63.17 123.01 87.51 114.79 111.86 C 86.05 99.28 57.26 86.82 28.54 74.20 C 36.51 115.47 44.33 156.76 52.48 197.99 C 46.55 208.75 42.15 220.51 34.22 230.05 C 22.81 245.09 11.30 260.05 0.00 275.16 L 0.00 0.00 Z" />
<path fill="#c7bba1" opacity="1.00" d=" M 139.57 38.85 C 143.24 28.19 146.41 17.32 150.78 6.91 C 153.60 29.66 157.13 52.33 160.22 75.05 C 163.60 100.55 167.33 126.01 170.84 151.50 C 162.90 148.64 154.86 146.07 146.93 143.17 C 146.44 153.58 145.78 163.99 145.06 174.40 C 134.74 169.58 124.51 164.55 114.13 159.85 C 116.77 174.16 119.35 188.50 122.24 202.77 C 109.96 202.00 97.70 200.96 85.42 200.04 C 90.65 224.04 95.10 248.19 100.25 272.20 C 89.41 277.18 78.28 281.52 67.27 286.11 C 77.53 301.54 88.14 316.72 98.44 332.12 C 65.77 327.03 32.80 324.16 0.00 320.07 L 0.00 275.16 C 11.30 260.05 22.81 245.09 34.22 230.05 C 42.15 220.51 46.55 208.75 52.48 197.99 C 44.33 156.76 36.51 115.47 28.54 74.20 C 57.26 86.82 86.05 99.28 114.79 111.86 C 123.01 87.51 131.26 63.17 139.57 38.85 Z" />
<path fill="#c7bba1" opacity="1.00" d=" M 341.30 151.26 C 348.30 103.28 354.41 55.18 361.65 7.25 C 373.34 42.21 385.38 77.05 397.06 112.02 C 425.87 99.57 454.65 87.05 483.35 74.37 C 475.42 114.54 467.91 154.79 459.99 194.96 C 458.88 198.13 460.88 200.98 462.24 203.70 C 471.61 221.68 480.63 239.85 490.09 257.77 C 491.52 260.72 490.85 264.12 490.97 267.27 C 497.91 272.11 505.13 276.53 512.00 281.46 L 512.00 315.87 C 481.32 321.91 450.66 328.02 419.96 333.97 C 420.78 332.83 421.60 331.70 422.44 330.58 C 419.53 331.07 416.62 331.56 413.71 332.04 C 424.19 316.81 434.49 301.45 444.95 286.21 C 434.06 281.44 423.04 276.97 412.05 272.43 C 416.73 248.22 421.74 224.08 426.67 199.92 C 414.44 200.83 402.20 201.69 389.97 202.72 C 392.83 188.32 395.36 173.87 398.18 159.47 C 387.76 164.32 377.45 169.40 366.96 174.10 C 366.42 163.73 365.77 153.37 365.11 143.01 C 357.21 145.86 349.24 148.54 341.30 151.26 Z" />
<path fill="#f5e5c1" opacity="1.00" d=" M 210.05 120.08 C 212.86 118.37 215.40 115.36 219.03 116.00 C 248.19 117.30 277.30 119.34 306.44 121.12 C 306.43 122.05 306.43 123.90 306.42 124.83 C 280.96 124.00 255.49 123.29 230.03 122.46 C 226.58 122.33 223.13 122.19 219.68 122.39 C 221.84 123.30 224.05 124.07 226.25 124.88 C 224.16 125.79 221.99 126.49 219.84 127.24 C 222.20 128.57 224.80 129.38 227.31 130.38 C 225.61 131.59 223.88 132.78 222.14 133.94 C 223.89 135.20 225.71 136.39 227.37 137.78 C 225.62 138.93 223.87 140.08 222.12 141.23 C 224.35 142.08 226.62 142.84 228.80 143.84 C 227.84 145.94 225.41 147.05 223.78 148.65 C 229.86 148.81 235.95 148.62 242.01 149.18 C 256.69 149.53 271.38 149.54 286.06 149.84 C 293.33 150.48 300.64 150.21 307.94 150.40 C 308.94 149.23 309.95 148.06 310.96 146.89 C 310.26 141.20 309.16 135.58 308.39 129.90 C 310.32 137.67 312.01 145.49 313.89 153.28 C 310.11 157.03 306.10 160.62 301.75 163.68 C 288.26 170.25 274.60 176.47 261.05 182.91 C 253.95 185.31 250.25 192.32 245.00 197.16 C 235.84 198.70 226.70 200.30 217.54 201.81 C 201.26 245.16 185.10 288.55 168.95 331.94 C 164.62 330.79 160.32 329.51 156.03 328.21 C 156.65 302.51 157.31 276.81 157.83 251.10 C 157.86 249.02 158.41 247.00 159.19 245.09 C 174.09 205.43 188.92 165.75 203.83 126.10 C 204.62 123.05 207.79 121.86 210.05 120.08 Z" />
<path fill="#3e3e3e" opacity="1.00" d=" M 201.93 141.09 C 203.99 135.69 205.92 129.92 210.23 125.84 C 210.74 129.18 208.84 132.03 207.40 134.85 C 208.44 134.68 210.52 134.34 211.56 134.17 C 210.34 136.14 209.04 138.06 207.77 140.00 C 208.76 139.46 210.75 138.38 211.75 137.84 C 210.34 140.54 208.89 143.21 207.39 145.86 C 208.89 145.28 210.39 144.70 211.90 144.12 C 209.81 146.20 207.73 148.28 205.66 150.37 C 207.54 150.88 209.42 151.37 211.32 151.84 C 209.61 153.29 207.25 154.11 206.09 156.11 C 190.87 193.71 176.12 231.52 160.73 269.06 C 161.11 262.34 162.21 255.69 162.61 248.98 C 162.89 245.67 163.07 242.29 164.15 239.14 C 176.83 206.49 189.30 173.76 201.93 141.09 Z" />
<path fill="#f5e5c1" opacity="1.00" d=" M 301.88 193.16 C 304.80 194.20 306.97 196.61 309.51 198.31 C 316.31 203.59 323.58 208.30 330.10 213.91 C 333.58 222.23 336.22 230.90 339.34 239.37 C 341.82 245.14 341.85 251.60 341.95 257.75 C 330.96 270.17 319.44 282.15 308.24 294.40 C 282.87 295.55 257.51 296.81 232.14 298.06 C 220.88 287.94 209.60 277.84 198.28 267.80 C 204.03 250.37 209.83 232.96 215.69 215.56 C 238.14 214.63 260.60 213.93 283.06 212.94 C 289.53 213.09 295.06 209.23 300.99 207.21 C 301.31 202.53 301.43 197.83 301.88 193.16 Z" />
<path fill="#f5722c" opacity="1.00" d=" M 344.79 263.96 C 344.66 274.96 344.54 285.99 343.85 296.95 C 336.39 307.31 327.97 317.00 320.22 327.16 C 318.86 328.98 317.35 330.70 315.64 332.20 C 315.54 321.91 316.61 311.66 316.46 301.37 C 325.98 288.96 335.66 276.66 344.79 263.96 Z" />
<path fill="#f5722c" opacity="1.00" d=" M 189.96 277.08 C 199.28 285.04 208.31 293.34 217.56 301.38 C 219.52 303.27 222.47 304.86 222.32 308.00 C 223.11 316.64 224.17 325.25 224.72 333.91 C 223.20 333.86 221.69 333.81 220.18 333.77 C 211.96 326.02 204.03 317.99 195.96 310.09 C 193.91 308.20 192.14 305.69 189.26 305.07 C 189.83 302.76 190.13 300.38 190.06 298.00 C 189.88 291.03 190.00 284.06 189.96 277.08 Z" />
<path fill="#f5722c" opacity="1.00" d=" M 231.23 307.28 C 256.62 306.19 282.02 305.48 307.40 304.46 C 306.29 314.84 305.68 325.26 304.52 335.63 C 283.19 337.09 261.85 338.43 240.51 339.84 C 238.67 339.86 236.69 340.56 234.94 339.87 C 233.55 329.03 232.48 318.14 231.23 307.28 Z" />
<path fill="#f5722c" opacity="1.00" d=" M 337.15 310.95 C 337.99 309.43 339.58 308.85 341.26 308.90 C 330.36 326.68 319.45 344.45 308.22 362.01 C 310.20 355.96 311.56 349.69 313.75 343.71 C 321.44 332.72 329.33 321.86 337.15 310.95 Z" />
<path fill="#f5722c" opacity="1.00" d=" M 200.79 333.08 C 197.94 326.07 194.76 319.21 192.14 312.11 C 201.98 322.22 211.74 332.40 221.62 342.47 C 223.62 344.45 224.18 347.30 225.12 349.86 C 226.33 353.65 227.85 357.33 229.02 361.14 C 229.80 362.38 228.32 363.30 227.53 363.99 C 220.79 356.56 214.04 349.13 207.39 341.63 C 205.00 338.94 202.08 336.53 200.79 333.08 Z" />
<path fill="#f5722c" opacity="1.00" d=" M 235.89 348.52 C 258.52 347.27 281.16 346.19 303.78 344.77 C 300.01 352.99 296.32 361.25 292.72 369.55 C 277.10 369.55 261.48 369.64 245.86 369.50 C 242.55 362.50 239.17 355.53 235.89 348.52 Z" />
<path fill="#f5e5c1" opacity="1.00" d=" M 297.09 376.74 C 305.13 370.34 312.10 362.64 320.09 356.14 C 313.62 365.10 307.30 374.17 301.00 383.25 C 282.04 384.00 263.07 384.41 244.10 385.16 C 237.80 379.81 231.59 374.36 225.21 369.11 C 229.64 370.73 233.72 373.14 237.95 375.23 C 240.49 376.49 243.04 378.24 246.04 377.85 C 263.05 377.28 280.10 377.60 297.09 376.74 Z" />
<path fill="#f5e5c1" opacity="1.00" d=" M 218.09 363.23 C 220.21 364.65 222.18 366.30 223.99 368.10 C 221.44 367.25 218.95 365.97 218.09 363.23 Z" />
<path fill="#c7bba1" opacity="1.00" d=" M 393.46 366.82 C 425.89 379.62 458.21 392.70 490.67 405.44 C 491.01 406.90 491.36 408.37 491.73 409.84 C 475.99 422.38 460.35 435.04 444.69 447.67 C 443.15 448.97 441.11 449.17 439.23 449.60 C 445.42 465.73 451.26 481.99 457.26 498.19 C 450.51 497.67 443.96 495.90 437.33 494.67 C 422.97 491.66 408.48 489.28 394.14 486.14 C 383.64 494.80 373.03 503.34 362.53 512.00 L 317.13 512.00 C 307.50 500.70 297.66 489.59 288.02 478.30 C 273.93 489.54 259.83 500.75 245.76 512.00 L 188.42 512.00 C 177.50 502.80 166.76 493.38 155.99 483.99 C 130.96 488.53 105.91 492.97 80.88 497.52 C 77.91 498.12 74.94 497.30 72.05 496.63 C 80.82 484.89 89.60 473.15 98.46 461.48 C 99.45 460.14 100.29 458.68 100.66 457.04 C 102.22 451.03 104.05 445.10 105.65 439.11 C 101.68 439.14 97.33 440.44 93.67 438.31 C 70.19 425.36 46.75 412.35 23.23 399.48 C 53.92 392.66 84.54 385.52 115.09 378.13 C 118.80 377.25 122.65 375.68 126.44 377.16 C 133.61 395.84 141.35 414.30 148.78 432.88 C 166.46 425.14 184.18 417.51 201.94 409.96 C 214.86 422.12 227.55 434.52 240.55 446.59 C 255.63 436.26 271.00 426.36 286.10 416.06 C 287.88 414.93 290.07 413.08 291.96 415.09 C 308.12 426.70 324.11 438.56 340.29 450.15 C 343.78 435.20 347.08 420.20 350.53 405.24 C 366.06 409.11 381.66 412.67 397.24 416.34 C 395.77 399.84 394.86 383.31 393.46 366.82 Z" />
<path fill="#3e3e3e" opacity="1.00" d=" M 245.76 512.00 C 259.83 500.75 273.93 489.54 288.02 478.30 C 297.66 489.59 307.50 500.70 317.13 512.00 L 245.76 512.00 Z" />
</svg>
