<?xml version="1.0" encoding="UTF-8" standalone="no"?>
<svg
   xmlns:dc="http://purl.org/dc/elements/1.1/"
   xmlns:cc="http://creativecommons.org/ns#"
   xmlns:rdf="http://www.w3.org/1999/02/22-rdf-syntax-ns#"
   xmlns:svg="http://www.w3.org/2000/svg"
   xmlns="http://www.w3.org/2000/svg"
   xmlns:sodipodi="http://sodipodi.sourceforge.net/DTD/sodipodi-0.dtd"
   xmlns:inkscape="http://www.inkscape.org/namespaces/inkscape"
   width="1280"
   height="1280"
   viewBox="0 0 1024 1024"
   version="1.1"
   id="svg2"
   inkscape:version="0.48.1 "
   sodipodi:docname="kill_demoman_grind.svg">
  <metadata
     id="metadata42">
    <rdf:RDF>
      <cc:Work
         rdf:about="">
        <dc:format>image/svg+xml</dc:format>
        <dc:type
           rdf:resource="http://purl.org/dc/dcmitype/StillImage" />
      </cc:Work>
    </rdf:RDF>
  </metadata>
  <defs
     id="defs40" />
  <sodipodi:namedview
     pagecolor="#ffffff"
     bordercolor="#666666"
     borderopacity="1"
     objecttolerance="10"
     gridtolerance="10"
     guidetolerance="10"
     inkscape:pageopacity="0"
     inkscape:pageshadow="2"
     inkscape:window-width="1920"
     inkscape:window-height="1018"
     id="namedview38"
     showgrid="false"
     inkscape:snap-page="true"
     fit-margin-top="0"
     fit-margin-left="0"
     fit-margin-right="0"
     fit-margin-bottom="0"
     inkscape:zoom="0.6609375"
     inkscape:cx="640"
     inkscape:cy="640"
     inkscape:window-x="-8"
     inkscape:window-y="-8"
     inkscape:window-maximized="1"
     inkscape:current-layer="svg2" />
  <rect
     style="fill:#3e3e3e;fill-opacity:1;fill-rule:nonzero;stroke:none"
     id="rect3021"
     width="1024"
     height="1024"
     x="3.5527137e-015"
     y="0" />
  <path
     d="m 59.86,0 101.68,0 c 25.68,53.92 50.76,108.14 76.34,162.12 3.56,7.46 8.08,15.24 6.68,23.86 -1.42,11.28 -1.66,22.66 -1.62,34.02 -0.4,3.9 0.98,9.3 -3.5,11.3 -7.66,4.56 -16.28,8.28 -20.86,16.46 1.6,7.54 2.7,15.16 3.28,22.84 C 167.64,180.54 114,90.12 59.86,0 z"
     id="path6"
     inkscape:connector-curvature="0"
     style="fill:#9d9582" />
  <path
     d="m 215.4,0 94.44,0 c 3.06,10.38 5.5,20.94 8.04,31.46 C 307.36,44.4 296.66,57.2 286.22,70.22 281.16,76.6 275,82.36 271.98,90.1 c -4.14,9.96 -8.08,20 -12.12,30 C 244.94,80.1 230.5,39.92 215.4,0 z"
     id="path8"
     inkscape:connector-curvature="0"
     style="fill:#9d9582" />
  <path
     d="m 692.08,0 94.54,0 c -9.88,25.62 -19,51.54 -28.7,77.22 C 750.98,61.78 736.4,52.56 724.3,41.56 712.7,31.06 700.6,21.12 689.2,10.42 690.1,6.94 691,3.44 692.08,0 z"
     id="path10"
     inkscape:connector-curvature="0"
     style="fill:#9d9582" />
  <path
     d="M 840.42,0 942.2,0 c -44.14,73.32 -87.84,146.92 -131.9,220.3 -1.5,2.22 -3.04,4.42 -4.58,6.6 -1.72,-25.06 -5.24,-49.98 -7.3,-75.04 -0.12,-12.28 -9.38,-21.2 -14.52,-31.6 C 802.64,80.14 821.48,40.04 840.42,0 z"
     id="path12"
     inkscape:connector-curvature="0"
     style="fill:#9d9582" />
  <path
     d="M 827.14,296.98 C 892.88,222.14 958.16,146.9 1024,72.16 l 0,142.1 c -67.34,61.02 -135.02,121.66 -202.48,182.54 -2.46,-1.9 -5.8,-3.5 -6.06,-7 -2.04,-11.26 -3.24,-22.64 -5.06,-33.94 3.04,-4.46 7.7,-8.48 8.18,-14.16 0.92,-11.26 2.2,-22.48 2.66,-33.78 -0.14,-4.46 3.32,-7.72 5.9,-10.94 z"
     id="path14"
     inkscape:connector-curvature="0"
     style="fill:#9d9582" />
  <path
     d="m 0,96.98 c 77.76,89.22 155.78,178.22 233.66,267.34 8.3,9 4.46,22.36 6.04,33.48 C 227.24,404.12 214.46,409.74 202,416 134.48,355.66 67.48,294.72 0,234.34 L 0,96.98 z"
     id="path16"
     inkscape:connector-curvature="0"
     style="fill:#9d9582" />
  <path
     d="M 859.48,427.36 C 914.14,396.6 969.36,366.84 1024,336.04 l 0,247.04 c -16.88,-2.42 -33.74,-4.96 -50.64,-7.2 -5.04,-22.44 -7.76,-45.34 -12.2,-67.9 -0.82,-7.06 -8.24,-9.98 -13.04,-14.06 -29.48,-22.26 -59.8,-43.48 -88.64,-66.56 z"
     id="path18"
     inkscape:connector-curvature="0"
     style="fill:#9d9582" />
  <path
     d="m 0,348.3 c 53.54,29.84 107.32,59.3 160.88,89.1 -18.86,13.36 -39.36,24.28 -58.82,36.78 -6.66,4.26 -9.38,12.08 -13.4,18.54 -12.58,21.4 -24.66,43.12 -37.68,64.26 -1.98,5.04 0.58,10.46 1.76,15.44 -17.6,2.44 -35.22,4.8 -52.74,7.66 L 0,348.3 z"
     id="path20"
     inkscape:connector-curvature="0"
     style="fill:#9d9582" />
  <path
     d="m 326.96,449.02 c 2.52,-12 14.62,-21.46 26.64,-22.66 -0.18,3.9 -0.42,7.8 -0.54,11.72 3.92,4.96 7.66,10.06 11.86,14.82 6.38,0.58 12.84,0.96 19.16,-0.28 2,-1 4.06,-1.88 6.16,-2.64 6.42,-5.06 8.34,-13.22 8.74,-21 9.58,5.56 19.7,12.5 23.16,23.6 -26.6,8.36 -55.34,8.96 -82.34,2.04 -3.94,-2.44 -9.58,-2.72 -12.84,-5.6 z"
     id="path22"
     inkscape:connector-curvature="0"
     style="fill:#f5e5c1" />
  <path
     d="m 488.7,599.8 c -6.62374,-0.0328 -13.25,0.43 -19.8,1.45 -40.28,6.36 -74.34,33.75 -96.7,66.85 -27.1,40.92 -38.56,91.13 -35.5,139.85 2.7,46.68 19.42,93.39 50.9,128.45 25.2,28.32 61.72,48.42 100.3,47.7 30.44,0.8 60.12,-11.62 83.3,-30.9 25.78,-21.64 44.81,-50.77 55.85,-82.45 18.9,-53.86 17.35,-114.73 -4.35,-167.55 -15.02,-36.84 -41.38,-70.06 -76.8,-89 -17.52,-9.495 -37.32876,-14.30156 -57.2,-14.4 z m -0.45,116.55 c 11.27344,0.0684 22.475,3.39 31.85,9.75 21.72,14.12 33.9,39.09 38.4,63.95 4.04,25.42 2.91,52.63 -8.45,76.15 -9.22,20.2 -25.74,38.02 -47.2,45.1 -15.52,5.18 -32.9,1.14 -46.1,-8 C 436.37,889.68 424,866.56 419.1,843 c -5.5,-30.08 -2.62,-62.64 12.4,-89.7 9.62,-17.34 25.76,-31.75 45.5,-35.95 3.7,-0.705 7.4922,-1.02282 11.25,-1 z"
     id="path24"
     style="fill:#f4722b"
     inkscape:connector-curvature="0" />
  <path
     d="m 839.55,599.8 c -6.265,0.0284 -12.56,0.5 -18.75,1.45 -28.14,4.56 -54.06,19.38 -73.9,39.6 -28.96,28.06 -46.45,66.29 -54.25,105.45 -9.66,50.18 -3.83,103.8 19.35,149.6 15.64,30.56 39.34,57.73 70,73.85 28.52,15.24 63.18,18.66 94.1,9.2 28.2,-8.46 52.55,-27.11 70.75,-49.95 22.26,-27.26 35.75,-60.84 41.85,-95.3 7.96,-47.64 2.1,-97.92 -18.9,-141.6 -16.1,-33.54 -42.12,-63.27 -75.8,-79.85 -16.86,-8.445 -35.655,-12.53532 -54.45,-12.45 z m 0.65,116.55 c 11.25282,0.062 22.49,3.355 31.85,9.7 21.8,14.12 33.93,39.15 38.45,64.05 4,25.4 2.94,52.52 -8.4,76 -9.2,20.22 -25.76,38.1 -47.2,45.2 -15.5,5.18 -32.85,1.17 -46.05,-7.95 -20.42,-13.58 -32.78,-36.69 -37.7,-60.25 -5.52,-30.14 -2.71,-62.7 12.35,-89.8 9.62,-17.32 25.76,-31.77 45.5,-35.95 3.695,-0.705 7.44906,-1.02062 11.2,-1 z"
     id="path26"
     style="fill:#f4722b"
     inkscape:connector-curvature="0" />
  <path
     d="m 49.96,603.42 c 79.46,0.18 158.94,0.02 238.42,0.08 0.2,36.82 0.2,73.66 0,110.48 -54.32,0.12 -108.66,-0.14 -162.98,0.14 0.14,19.56 0.12,39.12 0,58.68 27.1,0.82 55,2.04 80.26,12.88 16.62,6.82 31.56,19.24 38.6,36.06 9.52,22.7 11.18,48.42 5.72,72.34 -6.62,28.18 -24.88,53.02 -49.12,68.68 -24.9,15.82 -54.34,23.84 -83.66,25.2 -2.48,-21.62 -7.28,-42.96 -9.14,-64.66 20.96,-1.46 42.86,-6.28 59.68,-19.54 12.72,-10.22 18.1,-30.36 8.88,-44.46 -6.9,-9.76 -19.16,-13.26 -30.42,-14.96 -31.94,-4.18 -64.06,1.22 -96.1,0.66 -0.28,-80.52 0.02,-161.04 -0.14,-241.58 z"
     id="path28"
     inkscape:connector-curvature="0"
     style="fill:#f5722c" />
  <path
     d="m 0,623 c 9.26,-2.96 18.62,-5.54 27.96,-8.22 0.02,52.24 0.3,104.5 -0.14,156.74 C 18.52,776.48 9.04,781.1 0,786.54 L 0,623 z"
     id="path30"
     inkscape:connector-curvature="0"
     style="fill:#9d9582" />
  <path
     d="m 981.34,616.8 c 14.2,4.26 28.52,8.22 42.66,12.7 l 0,168.76 c -3.18,-1.88 -6.46,-3.58 -9.72,-5.28 -0.44,-35.5 -7.82,-70.96 -21.6,-103.68 -3,-8.04 -8.56,-15.02 -10.74,-23.34 -0.94,-16.36 0.92,-32.8 -0.6,-49.16 z"
     id="path32"
     inkscape:connector-curvature="0"
     style="fill:#9d9582" />
</svg>
