<?xml version="1.0" encoding="UTF-8" ?>
<!DOCTYPE svg PUBLIC "-//W3C//DTD SVG 1.1//EN" "http://www.w3.org/Graphics/SVG/1.1/DTD/svg11.dtd">
<svg width="512pt" height="512pt" viewBox="0 0 512 512" version="1.1" xmlns="http://www.w3.org/2000/svg">
<path fill="#3e3e3e" opacity="1.00" d=" M 0.00 0.00 L 512.00 0.00 L 512.00 512.00 L 0.00 512.00 L 0.00 0.00 Z" />
<path fill="#f5e5c1" opacity="1.00" d=" M 235.45 31.55 C 235.87 29.87 236.40 28.22 236.92 26.57 C 238.04 37.77 240.08 48.84 241.58 59.99 C 244.92 82.96 248.34 105.91 251.71 128.88 C 258.12 122.79 264.71 116.88 271.18 110.85 C 271.26 125.78 271.15 140.71 271.24 155.64 C 301.51 130.10 331.92 104.73 362.24 79.25 C 369.95 72.45 378.57 66.57 385.15 58.58 C 384.94 59.31 384.52 60.78 384.31 61.52 C 367.24 110.15 350.02 158.74 332.98 207.39 C 388.61 182.87 444.35 158.63 499.98 134.13 C 464.07 178.47 427.93 222.63 392.08 267.03 C 415.44 273.91 438.72 281.02 462.05 288.00 C 467.44 289.82 473.05 290.98 478.35 293.11 C 462.53 297.12 446.66 300.95 430.81 304.85 C 442.69 312.59 454.83 319.95 466.92 327.37 C 397.18 334.05 327.38 340.06 257.66 346.79 C 262.87 335.91 267.92 324.95 273.08 314.04 C 275.27 309.47 277.18 304.76 279.94 300.49 C 262.48 306.16 244.95 311.59 227.41 316.99 C 234.31 296.34 241.07 275.64 247.94 254.98 C 249.10 251.59 250.25 248.19 251.05 244.69 C 236.78 258.54 222.55 272.44 208.33 286.34 C 204.52 289.91 200.99 293.78 196.93 297.08 C 195.95 282.72 194.26 268.42 193.07 254.08 C 192.45 246.82 191.25 239.38 193.11 232.20 C 207.30 165.33 221.35 98.44 235.45 31.55 Z" />
<path fill="#f5722c" opacity="1.00" d=" M 54.16 190.11 C 67.81 181.50 81.49 172.92 95.14 164.31 C 104.45 170.65 113.93 176.76 123.13 183.27 C 87.76 204.45 52.15 225.21 16.92 246.61 C 16.59 245.96 15.92 244.64 15.59 243.98 C 17.80 238.99 21.22 234.72 24.15 230.15 C 31.71 218.72 39.29 207.31 46.82 195.87 C 48.48 193.09 51.55 191.79 54.16 190.11 Z" />
<path fill="#f5722c" opacity="1.00" d=" M 17.31 247.03 C 53.11 226.84 88.36 205.66 124.02 185.21 C 127.39 192.89 128.87 201.20 131.29 209.20 C 118.16 216.40 105.43 224.34 92.14 231.25 C 87.88 226.82 84.73 221.44 80.28 217.17 C 83.01 221.69 86.05 226.01 89.00 230.39 C 68.62 242.66 48.26 254.97 27.88 267.24 C 26.39 265.57 25.02 263.78 24.14 261.71 C 21.95 256.78 19.35 252.03 17.31 247.03 Z" />
<path fill="#f5722c" opacity="1.00" d=" M 33.33 267.09 C 66.21 248.56 99.01 229.88 131.84 211.25 C 136.15 217.32 140.33 223.50 144.58 229.62 C 125.93 240.52 107.53 251.89 88.79 262.59 C 71.07 265.47 53.31 268.38 35.52 270.81 C 34.79 269.57 34.06 268.33 33.33 267.09 Z" />
<path fill="#f5722c" opacity="1.00" d=" M 98.64 258.60 C 114.16 249.48 129.46 239.97 145.12 231.10 C 145.38 231.24 145.91 231.51 146.17 231.65 C 147.97 239.43 149.33 247.31 150.83 255.16 C 153.06 254.51 155.28 253.83 157.51 253.16 C 159.67 256.38 161.89 259.57 164.02 262.82 C 147.55 272.46 130.97 281.93 114.44 291.45 C 111.66 293.02 109.49 295.40 107.32 297.69 C 107.66 300.05 107.95 302.42 108.19 304.80 C 105.96 303.98 105.27 301.61 104.37 299.66 C 102.69 295.90 101.36 291.97 99.31 288.40 C 96.42 285.93 92.94 284.27 89.87 282.07 C 75.26 283.93 60.75 286.49 46.14 288.30 C 43.14 283.33 40.26 278.27 37.05 273.43 C 53.90 270.28 70.87 267.66 87.76 264.72 C 91.67 263.25 94.99 260.59 98.64 258.60 Z" />
<path fill="#f5722c" opacity="1.00" d=" M 115.00 293.06 C 131.66 283.58 148.20 273.89 164.89 264.46 C 166.18 268.19 167.54 271.91 168.78 275.66 C 166.99 276.78 165.18 277.89 163.38 279.02 C 199.25 323.03 234.66 367.41 270.39 411.52 C 279.32 423.24 289.87 433.82 296.76 446.97 C 295.91 452.13 295.78 457.42 294.47 462.49 C 291.20 466.20 287.08 469.05 283.55 472.52 C 281.56 474.15 279.87 476.74 277.03 476.73 C 270.47 477.39 263.92 478.14 257.35 478.74 C 234.29 442.08 210.96 405.60 187.81 368.99 C 183.70 373.59 177.75 375.60 172.57 378.67 C 171.32 379.22 169.87 380.44 168.51 379.45 C 165.24 377.55 161.59 375.72 159.73 372.24 C 156.50 366.86 153.12 361.57 149.79 356.25 C 156.71 351.39 163.73 346.67 170.63 341.78 C 167.73 337.54 164.79 333.33 161.79 329.15 C 160.91 327.41 158.76 327.68 157.15 327.25 C 149.62 316.51 142.51 305.48 134.83 294.84 C 134.21 297.15 133.62 299.47 133.07 301.80 C 139.62 310.39 145.69 319.34 152.11 328.04 C 153.97 330.84 157.72 330.77 160.70 330.50 C 162.49 334.70 165.85 338.37 166.85 342.78 C 161.07 347.53 154.78 351.65 148.77 356.11 C 150.32 359.06 151.95 361.98 153.68 364.83 C 149.44 365.34 145.38 364.19 141.70 362.15 C 139.24 356.83 136.94 351.44 134.62 346.05 C 135.36 344.37 136.10 342.69 136.84 341.02 C 131.04 331.50 125.46 321.86 119.82 312.25 C 117.87 308.79 113.75 307.56 111.28 304.60 C 110.29 302.83 109.92 300.81 109.35 298.89 C 110.93 296.68 112.47 294.28 115.00 293.06 Z" />
</svg>
