<?xml version="1.0" encoding="UTF-8" ?>
<!DOCTYPE svg PUBLIC "-//W3C//DTD SVG 1.1//EN" "http://www.w3.org/Graphics/SVG/1.1/DTD/svg11.dtd">
<svg width="512pt" height="512pt" viewBox="0 0 512 512" version="1.1" xmlns="http://www.w3.org/2000/svg">
<path fill="#878171" opacity="1.00" d=" M 0.00 0.00 L 0.34 0.00 C 0.25 0.08 0.08 0.25 0.00 0.33 L 0.00 0.00 Z" />
<path fill="#3e3e3e" opacity="1.00" d=" M 0.34 0.00 L 512.00 0.00 L 512.00 512.00 L 0.00 512.00 L 0.00 0.33 C 0.08 0.25 0.25 0.08 0.34 0.00 Z" />
<path fill="#f5e5c1" opacity="1.00" d=" M 349.49 15.62 C 352.17 15.10 356.23 13.69 358.12 16.22 C 359.93 28.15 361.43 40.14 363.06 52.10 C 363.51 55.02 364.02 58.04 363.32 60.97 C 361.70 67.44 359.65 73.81 357.92 80.26 C 357.14 82.05 358.00 83.85 358.77 85.47 C 361.62 77.91 364.11 70.22 366.80 62.60 C 367.45 60.20 369.74 58.97 371.55 57.53 C 377.04 53.59 382.39 49.46 387.80 45.41 C 390.94 46.24 394.16 46.71 397.40 46.95 C 396.55 61.87 395.06 76.75 394.07 91.67 C 393.64 94.43 393.71 97.34 392.61 99.95 C 389.41 107.14 384.72 113.64 382.17 121.12 C 386.97 115.11 390.79 108.41 394.98 101.98 C 396.39 99.85 397.74 97.34 400.35 96.51 C 406.33 94.09 412.26 91.51 418.18 88.94 C 422.09 87.08 426.05 89.94 429.45 91.68 C 429.77 92.82 429.53 94.00 429.19 95.11 C 424.39 109.56 419.49 123.99 414.65 138.43 C 413.62 141.27 411.50 143.50 409.67 145.83 C 410.30 145.73 411.57 145.51 412.20 145.41 C 416.24 142.02 420.58 139.01 424.66 135.67 C 432.14 135.28 439.60 134.19 447.09 134.75 C 450.83 135.27 452.74 139.05 455.44 141.27 C 445.97 153.49 436.14 165.45 426.49 177.53 C 421.10 182.59 413.88 185.10 407.68 189.00 C 410.72 187.52 413.78 186.05 416.93 184.79 C 418.15 184.24 419.37 183.68 420.60 183.14 C 424.96 182.53 428.87 180.50 432.94 178.98 C 435.63 177.77 438.44 179.33 441.13 179.76 C 446.76 181.25 452.47 182.38 458.12 183.79 C 459.74 186.58 461.31 189.41 462.74 192.31 C 449.99 201.06 437.51 210.18 424.83 219.01 C 422.69 220.46 420.16 221.15 417.68 221.77 C 416.93 222.04 415.42 222.57 414.66 222.83 C 414.90 222.99 415.37 223.31 415.61 223.47 C 419.36 222.66 423.74 221.57 427.23 223.74 C 432.56 226.76 437.95 229.66 443.32 232.58 C 447.42 234.45 447.03 239.62 447.79 243.38 C 438.64 246.59 429.62 250.22 420.33 252.99 C 415.66 254.29 411.11 256.07 406.91 258.49 C 411.43 258.79 415.97 258.62 420.46 257.99 C 424.67 257.53 428.91 257.46 433.10 256.78 C 434.57 256.51 435.81 257.59 437.09 258.14 C 441.45 260.70 446.03 262.90 450.25 265.72 C 450.59 267.85 451.03 269.96 451.48 272.07 C 442.38 275.06 433.48 278.62 424.37 281.59 C 422.47 282.23 420.65 283.09 418.85 283.97 C 424.61 285.95 430.45 287.65 436.18 289.71 C 440.33 295.62 445.45 300.82 449.29 306.95 C 448.98 309.60 448.24 312.18 447.57 314.76 C 433.52 314.54 419.54 313.22 405.52 312.57 C 408.08 316.02 412.37 317.55 415.05 320.83 C 416.95 325.16 418.42 329.69 420.17 334.09 C 421.48 336.82 419.42 339.42 418.44 341.88 C 416.98 341.71 415.53 341.54 414.08 341.36 C 407.52 338.30 400.58 336.17 394.05 333.05 C 396.11 335.20 398.56 337.03 400.22 339.53 C 402.19 344.15 403.64 348.97 405.35 353.69 C 415.26 354.28 425.18 354.68 435.11 354.54 C 441.43 355.19 447.80 355.44 454.13 355.07 C 456.35 354.05 456.13 350.06 458.96 349.91 C 463.54 349.59 468.14 349.70 472.73 349.53 C 473.13 347.82 473.52 346.10 473.91 344.39 C 476.78 344.96 479.66 345.49 482.58 345.78 C 483.21 347.37 483.81 348.95 484.43 350.55 C 481.73 351.58 478.88 352.11 476.00 352.17 C 476.69 354.75 477.34 357.35 478.00 359.95 C 480.80 359.76 483.60 359.48 486.39 359.15 C 488.12 365.03 486.49 371.05 486.41 377.01 C 485.66 387.45 485.50 398.07 482.21 408.11 C 481.45 409.29 480.07 409.84 479.00 410.69 C 476.93 408.72 474.90 406.71 472.99 404.60 C 467.56 404.45 462.20 403.48 456.77 403.31 C 456.97 401.75 457.16 400.18 457.35 398.62 C 448.89 398.38 440.41 398.73 431.96 398.28 C 424.66 397.56 417.32 398.00 410.00 397.88 C 393.97 397.87 377.94 397.86 361.92 397.80 C 359.05 397.48 356.98 399.57 355.18 401.47 C 346.18 403.01 337.00 401.92 327.96 403.02 C 325.19 403.34 322.40 403.33 319.62 403.41 C 319.09 402.02 318.55 400.62 318.06 399.23 C 315.68 399.25 313.30 399.38 310.92 399.53 C 294.31 402.99 277.52 405.56 260.86 408.83 C 252.68 410.16 244.34 410.24 236.06 410.20 C 223.64 410.27 211.23 410.22 198.81 410.29 C 197.96 409.81 197.12 409.34 196.27 408.87 C 178.70 402.50 161.22 395.89 143.72 389.33 C 143.19 390.84 142.66 392.35 142.15 393.87 C 135.38 391.89 128.82 389.25 122.20 386.85 C 119.91 386.27 120.86 383.60 120.64 381.92 C 120.89 375.09 120.54 368.23 120.98 361.41 C 127.49 359.11 134.34 357.82 141.01 356.06 C 143.60 355.84 145.25 357.77 146.95 359.36 C 161.82 354.08 176.64 348.68 191.53 343.43 C 193.75 342.64 195.91 341.67 198.01 340.58 C 203.99 340.69 209.97 340.65 215.95 340.80 C 220.66 341.33 225.40 341.57 230.15 341.60 C 235.08 341.73 240.03 341.48 244.93 342.16 C 249.74 342.75 254.68 342.08 259.41 343.34 C 268.95 345.51 278.60 347.22 288.06 349.73 C 290.65 350.57 292.72 348.87 293.89 346.74 C 303.87 331.53 314.85 317.01 324.94 301.87 C 329.83 295.14 334.48 288.24 339.48 281.59 C 340.71 279.80 342.45 277.74 341.24 275.48 C 334.91 258.79 328.81 242.01 322.95 225.15 C 317.74 209.01 313.36 192.62 308.29 176.44 C 306.83 171.70 308.53 166.82 308.56 162.01 C 308.81 147.44 310.11 132.92 310.85 118.37 C 311.47 113.12 311.57 107.83 311.70 102.55 C 312.08 102.61 312.82 102.72 313.20 102.78 C 314.43 107.65 316.00 112.43 317.67 117.16 C 318.35 119.02 319.10 120.85 319.86 122.68 C 320.41 120.67 320.93 118.67 321.44 116.65 C 324.26 105.20 327.60 93.84 329.14 82.13 C 330.92 66.40 333.17 50.73 334.92 35.00 C 335.12 30.79 338.73 28.18 341.10 25.11 C 344.05 22.08 346.37 18.47 349.49 15.62 Z" />
<path fill="#878171" opacity="1.00" d=" M 230.38 98.41 C 232.41 96.71 235.05 95.98 237.41 94.86 C 242.97 102.22 248.13 109.87 253.66 117.25 C 257.46 121.98 255.76 128.43 256.52 133.98 C 256.43 135.49 257.68 136.45 258.55 137.50 C 259.12 131.68 258.30 125.83 258.81 120.03 C 259.58 116.86 262.20 114.61 264.12 112.10 C 266.67 109.28 268.41 105.80 271.16 103.17 C 273.88 101.82 277.05 101.49 280.06 101.67 C 282.53 105.29 282.97 109.79 284.65 113.77 C 287.45 120.40 290.41 127.03 292.36 133.98 C 292.25 140.11 290.06 146.04 290.35 152.22 C 293.27 145.51 293.08 137.84 296.23 131.26 C 300.74 126.59 306.15 122.86 310.85 118.37 C 310.11 132.92 308.81 147.44 308.56 162.01 C 308.53 166.82 306.83 171.70 308.29 176.44 C 313.36 192.62 317.74 209.01 322.95 225.15 C 328.81 242.01 334.91 258.79 341.24 275.48 C 342.45 277.74 340.71 279.80 339.48 281.59 C 334.48 288.24 329.83 295.14 324.94 301.87 C 314.85 317.01 303.87 331.53 293.89 346.74 C 292.72 348.87 290.65 350.57 288.06 349.73 L 287.82 349.12 C 292.55 331.59 297.60 314.14 302.36 296.61 C 304.56 289.74 306.70 282.83 307.92 275.70 C 305.35 273.36 302.63 271.19 299.91 269.03 C 296.43 266.31 294.08 262.40 290.42 259.92 C 287.19 257.74 283.77 255.71 281.26 252.66 C 278.15 248.75 273.66 246.29 270.50 242.43 C 261.51 234.15 253.08 225.29 244.46 216.63 C 240.50 213.06 240.08 207.48 237.91 202.90 C 233.55 193.53 231.76 183.17 227.01 173.96 C 225.46 170.91 224.38 167.65 223.57 164.33 C 229.45 166.04 232.55 171.80 236.75 175.79 C 236.95 170.40 234.86 165.30 234.77 159.94 C 234.66 151.90 232.25 144.11 229.61 136.59 C 228.46 131.76 227.75 126.81 225.89 122.17 C 224.72 118.21 222.35 113.73 224.67 109.73 C 226.57 105.96 228.02 101.93 230.38 98.41 Z" />
<path fill="#3e3e3e" opacity="1.00" d=" M 345.82 128.07 C 345.33 122.86 340.72 118.94 340.13 113.66 C 344.06 116.42 347.72 119.56 351.88 122.01 C 348.94 130.27 344.75 138.05 341.01 145.97 C 342.57 140.00 344.60 134.12 345.82 128.07 Z" />
<path fill="#878171" opacity="1.00" d=" M 317.67 117.16 C 318.61 117.04 320.50 116.78 321.44 116.65 C 320.93 118.67 320.41 120.67 319.86 122.68 C 319.10 120.85 318.35 119.02 317.67 117.16 Z" />
<path fill="#3e3e3e" opacity="1.00" d=" M 362.18 119.51 C 368.63 119.81 374.85 122.01 381.35 121.74 C 381.87 129.97 384.54 137.87 385.53 146.04 C 385.09 145.00 384.65 143.96 384.23 142.92 C 381.61 137.99 379.45 132.84 377.15 127.76 C 372.15 125.03 367.08 122.43 362.18 119.51 Z" />
<path fill="#f5722c" opacity="1.00" d=" M 164.06 188.91 C 171.78 174.81 179.52 160.69 187.77 146.88 C 186.24 153.16 185.35 159.57 184.28 165.94 C 177.40 208.47 170.24 250.96 163.47 293.51 C 151.17 288.29 139.00 282.75 126.55 277.91 C 126.90 294.09 127.17 310.27 127.04 326.46 C 115.28 325.40 103.59 323.60 91.80 323.01 C 93.07 333.16 94.84 343.24 96.24 353.37 C 96.69 357.05 97.55 360.67 98.87 364.13 C 90.97 375.11 82.99 386.03 75.00 396.94 C 82.27 398.27 89.62 399.12 96.93 400.10 C 99.01 401.76 100.17 404.27 101.71 406.40 C 106.87 414.17 112.19 421.83 117.28 429.64 C 123.35 422.27 129.86 415.27 136.05 408.00 C 137.98 405.54 142.65 404.26 144.64 407.22 C 154.10 417.82 163.63 428.35 173.21 438.83 C 176.94 431.70 179.89 424.20 183.42 416.98 C 187.81 418.38 191.88 420.75 196.41 421.69 C 201.92 422.11 207.47 421.56 212.99 421.99 C 214.34 421.96 215.46 422.75 216.48 423.53 C 246.43 447.00 276.21 470.68 306.22 494.07 C 268.15 482.09 230.50 468.82 192.47 456.76 C 192.18 473.25 192.38 489.76 191.62 506.24 C 178.12 493.43 164.55 480.71 151.01 467.95 C 148.20 465.39 145.73 462.43 142.61 460.24 C 138.45 460.17 134.43 461.44 130.35 462.10 C 118.08 464.29 105.85 466.69 93.55 468.73 C 93.63 454.37 93.51 440.00 93.71 425.64 C 71.49 426.64 49.33 428.69 27.13 429.94 C 43.19 412.98 59.55 396.28 75.63 379.34 C 72.54 377.05 68.69 376.18 65.23 374.63 C 49.29 368.03 33.18 361.85 17.37 354.98 C 33.91 346.78 50.80 339.27 67.38 331.14 C 65.07 328.56 62.73 325.91 59.65 324.23 C 48.84 318.12 37.91 312.21 27.14 306.02 C 47.18 297.39 67.30 288.96 87.42 280.52 C 88.75 279.89 90.52 279.29 90.23 277.47 C 91.56 256.90 93.26 236.36 94.72 215.80 C 106.15 227.74 117.59 239.69 128.80 251.85 C 140.61 230.90 152.18 209.82 164.06 188.91 Z" />
<path fill="#3e3e3e" opacity="1.00" d=" M 370.30 168.36 C 372.69 164.94 374.26 161.05 376.17 157.35 C 376.53 160.40 376.96 163.45 377.46 166.49 C 372.33 171.44 367.57 176.77 362.20 181.46 C 363.96 176.56 367.52 172.67 370.30 168.36 Z" />
<path fill="#3e3e3e" opacity="1.00" d=" M 388.98 193.94 C 392.80 189.19 395.30 183.47 399.56 179.05 C 397.75 184.79 395.26 190.28 393.19 195.93 C 392.39 198.81 389.38 199.79 387.06 201.14 C 380.54 204.53 374.46 208.76 367.68 211.62 C 373.83 204.68 382.43 200.46 388.98 193.94 Z" />
<path fill="#3e3e3e" opacity="1.00" d=" M 367.93 237.58 C 370.77 229.97 376.27 223.57 378.01 215.49 C 379.69 217.91 381.26 220.41 382.69 222.99 C 377.70 227.78 373.47 233.40 367.93 237.58 Z" />
<path fill="#3e3e3e" opacity="1.00" d=" M 394.29 233.06 C 399.17 228.79 402.38 222.83 407.78 219.11 C 404.42 225.10 400.27 230.59 396.51 236.32 C 389.63 239.24 382.56 241.79 376.02 245.43 C 377.94 243.95 379.81 242.41 381.61 240.79 C 385.82 238.17 390.24 235.91 394.29 233.06 Z" />
<path fill="#878171" opacity="1.00" d=" M 406.91 258.49 C 411.11 256.07 415.66 254.29 420.33 252.99 C 420.36 254.66 420.40 256.32 420.46 257.99 C 415.97 258.62 411.43 258.79 406.91 258.49 Z" />
<path fill="#3e3e3e" opacity="1.00" d=" M 401.62 259.63 C 403.58 257.95 405.81 256.63 408.01 255.28 C 404.18 261.51 398.77 266.58 394.53 272.54 C 392.71 275.45 389.20 276.01 386.21 277.06 C 384.10 277.60 381.94 278.84 379.78 277.85 C 387.06 271.78 394.55 265.96 401.62 259.63 Z" />
<path fill="#3e3e3e" opacity="1.00" d=" M 370.00 261.21 C 373.87 259.73 377.91 258.77 381.85 257.51 C 381.11 259.11 380.32 260.78 378.84 261.84 C 374.12 265.62 370.04 270.12 365.36 273.95 C 366.63 269.62 367.94 265.23 370.00 261.21 Z" />
<path fill="#3e3e3e" opacity="1.00" d=" M 383.80 310.52 C 385.13 305.21 385.85 299.76 386.85 294.38 C 389.56 297.93 392.53 301.34 394.79 305.21 C 395.49 306.83 394.02 307.99 393.06 309.05 C 390.20 311.90 387.24 314.65 384.47 317.60 C 384.04 317.56 383.18 317.48 382.75 317.44 C 379.02 314.95 374.96 313.02 371.18 310.62 C 375.38 310.06 379.59 310.75 383.80 310.52 Z" />
<path fill="#3e3e3e" opacity="1.00" d=" M 348.90 322.04 C 349.12 319.51 349.22 316.98 349.41 314.45 C 354.21 315.27 359.09 315.27 363.95 315.35 C 359.80 318.49 355.07 320.72 350.84 323.74 C 350.36 323.32 349.39 322.47 348.90 322.04 Z" />
<path fill="#3e3e3e" opacity="1.00" d=" M 366.27 325.89 C 364.30 324.97 363.99 322.46 365.74 321.15 C 366.04 322.71 366.19 324.29 366.27 325.89 Z" />
<path fill="#3e3e3e" opacity="1.00" d=" M 364.24 343.22 C 365.22 338.40 364.86 333.24 367.00 328.73 C 368.33 333.59 369.30 338.53 370.53 343.42 C 366.53 346.35 362.51 349.24 358.76 352.48 C 356.77 349.95 353.82 347.86 353.02 344.61 C 356.69 343.72 360.47 343.44 364.24 343.22 Z" />
<path fill="#3e3e3e" opacity="1.00" d=" M 149.29 364.80 C 164.92 359.38 180.42 353.57 196.00 348.00 C 197.01 352.33 198.00 356.66 198.99 361.00 C 183.00 363.69 167.00 366.32 151.02 369.02 C 150.44 367.61 149.87 366.20 149.29 364.80 Z" />
<path fill="#3e3e3e" opacity="1.00" d=" M 205.58 349.90 C 222.04 350.50 238.51 350.56 254.97 351.03 C 255.67 354.69 256.35 358.36 257.00 362.04 C 241.00 361.59 224.99 361.42 208.98 360.96 C 207.85 357.27 206.71 353.59 205.58 349.90 Z" />
<path fill="#878171" opacity="1.00" d=" M 377.32 351.10 C 380.25 351.15 382.99 352.19 385.37 353.85 C 382.38 354.05 378.99 354.05 377.32 351.10 Z" />
<path fill="#3e3e3e" opacity="1.00" d=" M 264.95 355.46 C 268.13 357.78 272.21 357.54 275.93 358.08 C 281.13 358.54 286.27 359.45 291.33 360.69 C 294.12 363.15 296.92 365.61 299.88 367.86 C 288.20 366.69 276.64 364.57 265.01 362.99 C 265.00 360.48 264.99 357.97 264.95 355.46 Z" />
<path fill="#3e3e3e" opacity="1.00" d=" M 136.98 358.97 C 139.15 358.27 141.51 357.24 143.77 358.18 C 145.33 359.30 146.32 361.14 146.50 363.05 C 144.95 364.84 142.44 364.81 140.31 365.30 C 134.91 366.09 129.53 366.94 124.18 368.04 C 124.00 366.30 123.81 364.57 123.57 362.85 C 128.07 361.66 132.61 360.58 136.98 358.97 Z" />
<path fill="#3e3e3e" opacity="1.00" d=" M 461.02 359.02 C 464.67 358.65 468.33 358.27 471.99 357.92 C 471.99 359.93 472.00 361.95 472.00 363.97 C 469.00 364.33 465.99 364.67 463.00 365.02 C 462.34 363.02 461.68 361.01 461.02 359.02 Z" />
<path fill="#3e3e3e" opacity="1.00" d=" M 334.54 365.46 C 337.02 362.88 339.68 360.47 342.66 358.49 C 342.51 361.92 342.37 365.39 341.59 368.76 C 338.79 369.13 336.73 366.79 334.54 365.46 Z" />
<path fill="#3e3e3e" opacity="1.00" d=" M 410.21 364.00 C 423.81 364.01 437.40 364.00 451.00 364.00 C 451.33 366.32 451.65 368.64 451.98 370.96 C 437.32 371.43 422.65 371.59 407.99 372.04 C 408.75 369.36 409.52 366.69 410.21 364.00 Z" />
</svg>
