<?xml version="1.0" encoding="UTF-8" ?>
<!DOCTYPE svg PUBLIC "-//W3C//DTD SVG 1.1//EN" "http://www.w3.org/Graphics/SVG/1.1/DTD/svg11.dtd">
<svg width="512pt" height="512pt" viewBox="0 0 512 512" version="1.1" xmlns="http://www.w3.org/2000/svg">
<path fill="#3e3e3e" opacity="1.00" d=" M 0.00 0.00 L 512.00 0.00 L 512.00 123.23 C 493.09 109.60 472.45 98.48 451.30 88.73 C 446.91 86.78 442.66 84.34 437.96 83.23 C 435.65 83.49 433.72 85.07 431.66 86.05 C 432.58 89.72 433.56 93.38 434.68 97.00 C 453.44 105.01 471.87 113.92 489.17 124.76 C 497.21 129.08 504.00 135.31 512.00 139.69 L 512.00 207.57 C 508.04 208.81 504.12 210.15 500.16 211.39 C 492.62 213.78 484.65 214.17 476.98 216.00 C 474.60 216.21 473.40 218.74 473.24 220.86 C 476.35 224.74 480.22 227.95 483.64 231.56 C 493.17 229.64 502.78 227.79 512.00 224.65 L 512.00 512.00 L 0.00 512.00 L 0.00 0.00 Z" />
<path fill="#f5722b" opacity="1.00" d=" M 91.87 28.85 C 103.47 26.67 115.16 24.89 126.96 24.35 C 142.93 22.86 159.00 23.62 175.02 23.56 C 188.03 24.41 201.08 24.91 214.06 26.38 C 225.92 27.55 237.72 29.32 249.57 30.59 C 271.27 33.78 292.67 38.64 314.17 42.85 C 324.98 45.56 335.74 48.48 346.50 51.37 C 354.27 52.84 361.71 55.53 369.24 57.85 C 374.92 59.18 377.79 64.74 381.52 68.68 C 380.64 71.11 379.82 73.56 379.04 76.02 C 367.41 72.40 355.63 69.32 343.97 65.79 C 335.66 63.66 327.47 61.04 318.97 59.75 C 302.72 55.69 286.39 51.84 269.82 49.39 C 240.44 44.28 210.80 40.46 180.99 39.27 C 167.00 39.25 153.00 39.27 139.01 39.26 C 115.29 40.38 91.30 43.46 69.13 52.41 C 64.71 54.40 60.49 56.82 56.60 59.72 C 55.87 56.62 54.89 52.86 51.65 51.49 C 47.65 49.43 42.12 50.88 39.95 54.90 C 37.18 59.96 33.96 64.78 30.21 69.18 C 33.39 56.75 43.02 47.07 54.06 41.12 C 66.11 35.57 78.59 30.43 91.87 28.85 Z" />
<path fill="#f5722b" opacity="1.00" d=" M 396.47 49.51 C 399.47 42.49 401.67 35.16 404.13 27.94 C 406.57 35.71 408.61 43.60 410.86 51.43 C 426.93 54.61 443.25 56.42 459.31 59.62 C 446.92 66.90 434.86 74.74 422.48 82.03 C 424.57 92.81 428.23 103.25 430.05 114.08 C 423.17 106.05 415.89 98.38 408.79 90.54 C 397.65 97.32 386.62 104.30 375.37 110.90 C 380.35 96.95 385.08 82.92 389.99 68.95 C 391.39 66.63 389.06 64.79 387.79 63.09 C 382.43 57.32 377.32 51.32 371.92 45.60 C 380.14 46.60 388.33 47.95 396.47 49.51 Z" />
<path fill="#f5722b" opacity="1.00" d=" M 47.34 58.71 C 49.02 60.81 48.57 63.72 49.01 66.23 C 49.91 73.54 50.39 80.90 51.75 88.14 C 59.16 89.71 66.73 90.64 74.02 92.75 C 66.71 94.39 59.73 97.19 52.45 98.92 C 54.01 107.90 54.87 116.99 55.78 126.06 C 47.89 118.58 40.26 110.83 32.24 103.49 C 25.85 105.11 19.67 107.41 13.30 109.05 C 16.73 104.31 19.97 99.43 23.52 94.77 C 19.80 90.88 15.68 87.39 11.95 83.51 C 17.44 84.43 22.98 85.14 28.41 86.41 C 34.81 77.25 41.75 68.40 47.34 58.71 Z" />
<path fill="#f5722b" opacity="1.00" d=" M 431.66 86.05 C 433.72 85.07 435.65 83.49 437.96 83.23 C 442.66 84.34 446.91 86.78 451.30 88.73 C 472.45 98.48 493.09 109.60 512.00 123.23 L 512.00 139.69 C 504.00 135.31 497.21 129.08 489.17 124.76 C 471.87 113.92 453.44 105.01 434.68 97.00 C 433.56 93.38 432.58 89.72 431.66 86.05 Z" />
<path fill="#f5722b" opacity="1.00" d=" M 187.06 94.82 C 198.53 93.40 210.13 94.33 221.66 93.93 C 221.51 99.19 221.30 104.44 221.02 109.70 C 198.92 109.50 176.83 110.55 154.91 113.33 C 145.01 114.87 134.95 115.51 125.24 118.12 C 114.86 120.14 104.99 123.99 95.11 127.65 C 90.21 124.02 84.05 121.54 80.20 116.81 C 87.14 112.84 94.63 109.97 102.12 107.19 C 129.81 99.77 158.40 95.43 187.06 94.82 Z" />
<path fill="#f5e5c1" opacity="1.00" d=" M 231.00 98.75 C 278.96 98.71 326.92 98.84 374.88 98.69 C 373.74 102.52 372.31 106.25 371.00 110.03 C 372.67 112.02 374.34 114.01 376.01 115.99 C 380.76 115.32 385.52 114.73 390.24 113.88 C 390.70 115.19 391.14 116.53 391.03 117.95 C 390.97 136.30 391.03 154.65 390.99 173.00 C 354.58 173.02 318.17 172.98 281.75 173.02 C 281.75 180.96 281.77 188.90 281.74 196.85 C 264.85 191.73 247.92 186.74 231.03 181.63 C 230.96 154.00 231.01 126.38 231.00 98.75 Z" />
<path fill="#f5722b" opacity="1.00" d=" M 62.14 108.75 C 80.00 125.52 101.42 137.78 123.02 149.03 C 138.46 156.65 154.31 163.39 170.31 169.76 C 181.83 173.43 192.88 178.47 204.54 181.74 C 217.96 185.78 231.20 190.54 244.93 193.48 C 260.21 197.49 275.44 201.94 291.10 204.27 C 306.61 207.78 322.28 210.57 338.01 212.87 C 356.67 214.87 375.25 217.69 394.01 218.49 C 399.77 218.89 405.56 218.96 411.32 219.33 C 412.42 221.74 413.69 224.43 416.29 225.53 C 421.11 227.16 426.12 228.23 430.81 230.23 C 431.72 231.85 431.72 233.78 432.09 235.56 C 426.40 235.55 420.68 235.86 415.05 234.86 C 382.56 234.20 350.16 230.48 318.16 224.79 C 309.99 223.20 301.69 222.41 293.58 220.49 C 275.68 216.34 257.69 212.52 239.94 207.73 C 231.47 205.12 222.98 202.56 214.40 200.36 C 203.83 197.12 193.52 193.11 182.95 189.90 C 155.01 179.63 127.48 168.04 101.46 153.53 C 88.38 145.89 75.32 138.01 63.78 128.15 C 63.90 121.64 62.90 115.20 62.14 108.75 Z" />
<path fill="#f5722b" opacity="1.00" d=" M 411.36 121.02 C 424.71 125.12 438.11 129.27 450.87 135.05 C 467.39 142.05 483.85 150.54 496.26 163.81 C 500.75 168.30 503.38 174.19 506.10 179.83 C 506.60 183.89 506.54 188.04 506.16 192.12 C 503.40 197.95 500.21 204.20 494.55 207.69 C 489.22 209.31 483.54 209.45 478.14 210.86 C 481.21 205.64 485.37 200.31 484.98 193.93 C 488.50 190.48 492.01 185.86 490.65 180.60 C 488.59 174.53 483.74 169.90 478.61 166.29 C 468.95 158.63 457.57 153.64 446.44 148.55 C 434.88 144.09 423.28 139.64 411.36 136.22 C 411.32 131.15 411.34 126.08 411.36 121.02 Z" />
<path fill="#f5722b" opacity="1.00" d=" M 61.33 138.95 C 61.22 137.15 62.01 135.52 62.80 133.97 C 67.31 137.38 71.84 140.77 76.61 143.82 C 75.57 150.37 80.04 156.24 84.81 160.20 C 94.99 169.19 107.49 174.84 119.67 180.52 C 128.66 183.79 137.43 187.65 146.56 190.54 C 155.02 192.98 163.50 195.34 171.94 197.84 C 191.81 203.32 212.19 206.51 232.37 210.58 C 252.26 216.40 272.60 220.48 292.76 225.26 C 300.72 227.23 308.92 227.96 316.97 229.51 C 329.60 231.78 342.31 233.59 355.01 235.32 C 347.37 236.00 339.68 235.42 332.02 235.59 C 323.38 234.76 314.71 234.18 306.04 233.93 C 272.45 232.05 239.13 226.97 206.04 221.04 C 189.62 217.43 173.26 213.56 157.06 209.09 C 141.55 203.85 125.71 199.33 110.97 192.09 C 101.52 188.39 92.93 182.91 84.39 177.50 C 75.62 171.00 67.04 163.38 62.74 153.09 C 60.72 148.65 61.22 143.68 61.33 138.95 Z" />
<path fill="#f5722b" opacity="1.00" d=" M 433.05 195.96 C 436.94 199.92 440.97 203.75 444.92 207.67 C 455.49 203.40 466.54 200.29 476.84 195.35 C 472.80 204.51 466.97 212.79 463.15 222.05 C 467.27 228.25 473.89 232.54 478.23 238.65 C 471.23 236.21 464.18 233.83 457.01 231.93 C 453.70 240.41 448.19 247.78 444.58 256.11 C 442.31 245.40 440.45 234.60 438.20 223.88 C 432.15 221.58 425.93 219.79 419.78 217.82 C 424.72 215.04 430.33 213.84 435.53 211.67 C 435.58 206.38 433.39 201.26 433.05 195.96 Z" />
<path fill="#f5722b" opacity="1.00" d=" M 500.16 211.39 C 504.12 210.15 508.04 208.81 512.00 207.57 L 512.00 224.65 C 502.78 227.79 493.17 229.64 483.64 231.56 C 480.22 227.95 476.35 224.74 473.24 220.86 C 473.40 218.74 474.60 216.21 476.98 216.00 C 484.65 214.17 492.62 213.78 500.16 211.39 Z" />
<path fill="#f5e5c1" opacity="1.00" d=" M 230.99 232.40 C 261.63 235.46 292.23 239.28 323.01 240.62 C 334.97 240.36 346.94 240.39 358.89 239.96 C 366.01 253.03 368.28 268.40 366.93 283.12 C 364.97 303.89 353.65 323.46 336.90 335.83 C 319.50 348.81 297.72 354.67 276.31 356.06 C 274.14 341.66 271.93 327.26 269.69 312.87 C 283.32 311.79 297.45 308.91 308.71 300.73 C 315.81 295.63 320.11 286.81 319.05 278.04 C 318.69 273.19 316.06 268.65 312.15 265.80 C 306.64 261.69 299.67 260.30 293.00 259.45 C 272.34 257.45 251.65 260.28 230.97 260.54 C 231.03 251.16 230.99 241.78 230.99 232.40 Z" />
<path fill="#c7bba1" opacity="1.00" d=" M 212.72 244.49 C 222.09 290.81 232.18 336.99 241.80 383.26 C 242.99 389.82 245.41 396.32 244.66 403.09 C 243.67 415.74 242.23 428.36 241.22 441.01 C 228.07 428.33 215.10 415.47 201.88 402.86 C 207.41 420.35 213.40 437.68 218.99 455.14 C 206.28 451.56 193.70 447.44 181.14 443.37 C 186.73 454.40 191.79 465.70 197.04 476.90 C 146.42 472.34 95.83 467.47 45.20 463.05 C 53.80 457.41 62.72 452.26 71.31 446.61 C 59.85 443.62 48.32 440.89 36.83 438.04 C 57.66 431.41 78.69 425.33 99.62 419.03 C 73.42 387.02 47.49 354.78 21.26 322.79 C 40.90 330.94 60.23 339.81 79.76 348.22 C 100.70 357.43 121.68 366.54 142.60 375.79 C 129.70 339.76 117.13 303.61 104.37 267.53 C 106.37 269.61 108.27 271.78 110.46 273.66 C 136.10 295.13 161.70 316.64 187.34 338.12 C 187.43 327.28 187.31 316.44 187.40 305.60 C 192.01 310.03 196.82 314.24 201.45 318.65 C 205.03 295.27 208.35 271.84 211.83 248.44 C 212.09 247.11 212.38 245.80 212.72 244.49 Z" />
<path fill="#c7bba1" opacity="1.00" d=" M 301.41 399.45 C 338.31 359.71 375.04 319.82 411.96 280.11 C 402.32 310.06 392.67 340.01 383.02 369.96 C 421.71 357.07 460.33 343.95 499.01 331.03 C 471.93 363.63 445.07 396.41 417.94 428.98 C 442.32 427.11 466.67 424.85 491.05 423.12 C 471.93 436.57 453.04 450.34 434.06 464.00 C 456.22 471.33 478.41 478.58 500.59 485.86 C 446.41 485.49 392.21 484.65 338.02 483.95 C 349.35 469.99 360.68 456.04 371.95 442.03 C 353.95 448.01 335.97 454.02 317.97 460.01 C 319.71 449.03 321.29 438.03 323.02 427.05 C 313.81 422.38 304.56 417.78 295.31 413.17 C 297.75 408.78 298.18 403.37 301.41 399.45 Z" />
</svg>
