<?xml version="1.0" encoding="UTF-8" ?>
<!DOCTYPE svg PUBLIC "-//W3C//DTD SVG 1.1//EN" "http://www.w3.org/Graphics/SVG/1.1/DTD/svg11.dtd">
<svg width="512pt" height="512pt" viewBox="0 0 512 512" version="1.1" xmlns="http://www.w3.org/2000/svg">
<path fill="#3e3e3e" opacity="1.00" d=" M 0.00 0.00 L 91.62 0.00 C 96.12 11.59 102.09 22.55 107.10 33.93 C 112.61 45.96 118.55 57.80 123.82 69.94 C 82.54 57.83 41.28 45.66 0.00 33.53 L 0.00 0.00 Z" />
<path fill="#6c685f" opacity="1.00" d=" M 91.62 0.00 L 227.13 0.00 C 250.33 10.57 273.86 20.42 297.14 30.82 C 298.32 31.16 300.01 32.48 300.75 30.77 C 306.02 22.69 310.61 14.14 316.09 6.19 C 330.69 15.99 345.24 25.89 359.69 35.93 C 360.90 31.39 361.06 26.67 361.68 22.04 C 362.49 14.69 363.64 7.37 364.25 0.00 L 403.98 0.00 C 396.87 47.82 390.21 95.70 383.00 143.50 C 374.27 134.31 366.51 124.21 357.99 114.82 C 353.95 130.86 351.66 147.37 348.02 163.53 C 289.59 120.94 231.53 77.83 173.15 35.18 C 189.45 93.79 206.07 152.31 222.57 210.86 C 158.50 188.44 94.56 165.62 30.47 143.26 C 38.10 157.15 47.42 170.09 55.07 184.00 C 90.21 239.64 124.48 295.85 159.31 351.69 C 160.42 353.43 161.42 355.23 162.41 357.04 C 119.12 367.72 75.78 378.16 32.52 388.95 C 33.56 389.75 34.60 390.57 35.72 391.28 C 53.21 401.77 70.66 412.33 88.13 422.85 C 71.04 429.78 53.62 435.89 36.58 442.94 C 87.73 446.41 138.91 449.48 190.07 452.72 C 189.85 453.14 189.42 453.98 189.21 454.41 C 126.13 451.57 63.07 448.17 0.00 445.05 L 0.00 429.36 C 6.32 426.25 12.80 423.49 19.13 420.41 C 13.09 417.82 6.32 417.67 0.00 415.97 L 0.00 281.16 C 13.99 280.67 27.98 280.53 41.96 279.92 C 27.92 252.11 14.32 224.08 0.00 196.41 L 0.00 33.53 C 41.28 45.66 82.54 57.83 123.82 69.94 C 118.55 57.80 112.61 45.96 107.10 33.93 C 102.09 22.55 96.12 11.59 91.62 0.00 Z" />
<path fill="#3e3e3e" opacity="1.00" d=" M 227.13 0.00 L 364.25 0.00 C 363.64 7.37 362.49 14.69 361.68 22.04 C 361.06 26.67 360.90 31.39 359.69 35.93 C 345.24 25.89 330.69 15.99 316.09 6.19 C 310.61 14.14 306.02 22.69 300.75 30.77 C 300.01 32.48 298.32 31.16 297.14 30.82 C 273.86 20.42 250.33 10.57 227.13 0.00 Z" />
<path fill="#b1a690" opacity="1.00" d=" M 403.98 0.00 L 417.16 0.00 C 421.08 18.42 424.47 36.96 428.52 55.35 C 432.03 62.39 431.66 70.48 433.25 78.04 C 438.22 105.83 444.25 133.41 449.68 161.12 C 455.86 191.33 461.72 221.61 468.09 251.79 C 474.42 239.14 480.28 226.24 486.84 213.71 C 481.88 254.14 476.58 294.53 471.52 334.96 C 470.88 339.68 470.19 344.41 470.09 349.19 C 467.88 359.50 467.38 370.10 465.23 380.40 C 464.09 376.37 465.28 372.22 465.61 368.16 C 466.74 357.46 467.55 346.74 468.56 336.04 C 469.15 331.54 468.03 327.12 467.05 322.77 C 450.56 244.83 434.18 166.86 417.70 88.92 C 416.17 81.87 415.00 74.73 413.03 67.78 C 406.72 109.96 400.59 152.16 394.40 194.36 C 385.92 187.55 378.36 179.66 370.12 172.55 C 369.89 191.00 370.20 209.45 369.96 227.90 C 325.83 191.11 281.93 154.04 237.85 117.19 C 234.10 114.33 231.29 110.55 228.16 107.08 C 229.63 112.63 231.82 117.95 233.69 123.38 C 245.79 158.06 258.24 192.63 270.18 227.37 C 259.30 226.58 248.21 226.63 237.60 229.45 C 221.64 232.88 206.48 239.57 192.96 248.66 C 168.18 237.47 143.16 226.79 118.30 215.75 C 107.49 211.23 96.92 206.10 85.99 201.87 C 112.68 235.22 139.85 268.20 166.71 301.42 C 167.85 302.67 168.70 304.58 170.62 304.75 C 177.72 317.82 184.77 330.93 191.95 343.98 C 194.55 349.73 201.28 353.90 207.54 351.42 C 209.82 354.54 212.25 357.54 214.85 360.40 C 211.71 362.60 209.82 366.06 209.35 369.83 C 185.54 376.68 161.89 384.09 138.12 391.09 C 129.63 393.93 120.85 395.87 112.46 399.04 C 131.95 404.25 151.62 408.78 171.19 413.69 C 168.67 416.13 165.45 417.61 162.55 419.52 C 150.71 426.97 138.67 434.13 126.99 441.82 C 144.97 443.64 162.96 445.28 180.96 446.79 C 184.86 447.23 188.77 447.73 192.70 447.57 C 191.84 449.30 190.95 451.00 190.07 452.72 C 138.91 449.48 87.73 446.41 36.58 442.94 C 53.62 435.89 71.04 429.78 88.13 422.85 C 70.66 412.33 53.21 401.77 35.72 391.28 C 34.60 390.57 33.56 389.75 32.52 388.95 C 75.78 378.16 119.12 367.72 162.41 357.04 C 161.42 355.23 160.42 353.43 159.31 351.69 C 124.48 295.85 90.21 239.64 55.07 184.00 C 47.42 170.09 38.10 157.15 30.47 143.26 C 94.56 165.62 158.50 188.44 222.57 210.86 C 206.07 152.31 189.45 93.79 173.15 35.18 C 231.53 77.83 289.59 120.94 348.02 163.53 C 351.66 147.37 353.95 130.86 357.99 114.82 C 366.51 124.21 374.27 134.31 383.00 143.50 C 390.21 95.70 396.87 47.82 403.98 0.00 Z" />
<path fill="#6c685f" opacity="1.00" d=" M 417.16 0.00 L 457.66 0.00 C 463.67 16.24 469.51 32.54 475.56 48.76 C 475.82 48.75 476.32 48.73 476.57 48.71 C 480.62 41.90 484.00 34.71 487.85 27.78 C 492.68 18.50 497.90 9.42 502.47 0.00 L 512.00 0.00 L 512.00 175.44 C 500.60 221.54 489.96 267.83 478.89 314.01 C 475.86 325.71 473.76 337.67 470.09 349.19 C 470.19 344.41 470.88 339.68 471.52 334.96 C 476.58 294.53 481.88 254.14 486.84 213.71 C 480.28 226.24 474.42 239.14 468.09 251.79 C 461.72 221.61 455.86 191.33 449.68 161.12 C 444.25 133.41 438.22 105.83 433.25 78.04 C 431.66 70.48 432.03 62.39 428.52 55.35 C 424.47 36.96 421.08 18.42 417.16 0.00 Z" />
<path fill="#3e3e3e" opacity="1.00" d=" M 457.66 0.00 L 502.47 0.00 C 497.90 9.42 492.68 18.50 487.85 27.78 C 484.00 34.71 480.62 41.90 476.57 48.71 C 476.32 48.73 475.82 48.75 475.56 48.76 C 469.51 32.54 463.67 16.24 457.66 0.00 Z" />
<path fill="#f5e5c1" opacity="1.00" d=" M 413.03 67.78 C 415.00 74.73 416.17 81.87 417.70 88.92 C 434.18 166.86 450.56 244.83 467.05 322.77 C 468.03 327.12 469.15 331.54 468.56 336.04 C 467.55 346.74 466.74 357.46 465.61 368.16 C 465.28 372.22 464.09 376.37 465.23 380.40 C 464.08 384.10 464.86 388.07 463.80 391.79 C 462.76 395.83 462.67 400.02 462.23 404.15 C 439.74 382.42 417.31 360.63 395.05 338.67 C 395.84 343.27 397.74 347.57 399.12 352.00 C 407.54 377.65 416.09 403.26 424.51 428.92 C 402.64 422.03 380.76 415.22 358.89 408.34 C 360.09 409.75 361.23 411.24 361.99 412.96 C 370.29 430.57 378.45 448.24 386.87 465.80 C 368.56 464.18 350.24 462.50 331.89 461.49 C 333.48 456.44 334.76 451.30 335.80 446.12 C 338.20 434.54 335.80 422.46 331.29 411.71 C 327.14 403.81 321.59 396.55 314.63 390.91 C 321.69 386.42 328.38 381.26 334.10 375.11 C 345.25 364.27 353.87 350.45 357.10 335.11 C 362.21 316.83 358.55 297.32 352.03 279.89 C 345.70 265.15 335.22 252.05 321.53 243.53 C 306.25 233.67 288.13 229.07 270.18 227.37 C 258.24 192.63 245.79 158.06 233.69 123.38 C 231.82 117.95 229.63 112.63 228.16 107.08 C 231.29 110.55 234.10 114.33 237.85 117.19 C 281.93 154.04 325.83 191.11 369.96 227.90 C 370.20 209.45 369.89 191.00 370.12 172.55 C 378.36 179.66 385.92 187.55 394.40 194.36 C 400.59 152.16 406.72 109.96 413.03 67.78 Z" />
<path fill="#3e3e3e" opacity="1.00" d=" M 478.89 314.01 C 489.96 267.83 500.60 221.54 512.00 175.44 L 512.00 512.00 L 0.00 512.00 L 0.00 445.05 C 63.07 448.17 126.13 451.57 189.21 454.41 C 189.42 453.98 189.85 453.14 190.07 452.72 C 190.95 451.00 191.84 449.30 192.70 447.57 C 195.91 441.18 198.96 434.70 202.35 428.40 C 204.42 424.19 209.25 421.80 213.83 422.40 C 219.16 422.99 222.72 427.40 227.25 429.78 C 237.07 435.52 248.28 441.07 260.00 439.07 C 263.16 438.08 266.71 436.90 268.54 433.92 C 267.89 427.60 261.71 424.38 256.30 422.70 C 245.46 419.72 234.09 420.32 222.97 420.26 C 219.28 420.08 215.07 419.50 212.56 416.47 C 210.47 414.16 209.88 410.97 209.55 407.98 C 209.40 395.27 209.00 382.55 209.35 369.83 C 209.82 366.06 211.71 362.60 214.85 360.40 C 217.74 359.22 220.85 358.61 223.98 358.73 C 238.65 358.71 253.95 356.58 266.51 348.48 C 271.09 345.65 274.99 340.51 273.98 334.85 C 273.03 330.55 270.49 325.89 265.82 324.90 C 259.54 323.83 253.01 324.90 247.12 327.25 C 236.10 331.34 225.87 337.41 216.67 344.70 C 213.69 347.01 211.01 349.81 207.54 351.42 C 201.28 353.90 194.55 349.73 191.95 343.98 C 184.77 330.93 177.72 317.82 170.62 304.75 C 167.30 298.90 164.11 292.98 160.91 287.08 C 158.50 282.47 158.50 276.26 162.40 272.45 C 171.46 263.20 182.21 255.81 192.96 248.66 C 206.48 239.57 221.64 232.88 237.60 229.45 C 248.21 226.63 259.30 226.58 270.18 227.37 C 288.13 229.07 306.25 233.67 321.53 243.53 C 335.22 252.05 345.70 265.15 352.03 279.89 C 358.55 297.32 362.21 316.83 357.10 335.11 C 353.87 350.45 345.25 364.27 334.10 375.11 C 328.38 381.26 321.69 386.42 314.63 390.91 C 321.59 396.55 327.14 403.81 331.29 411.71 C 335.80 422.46 338.20 434.54 335.80 446.12 C 334.76 451.30 333.48 456.44 331.89 461.49 C 350.24 462.50 368.56 464.18 386.87 465.80 C 378.45 448.24 370.29 430.57 361.99 412.96 C 361.23 411.24 360.09 409.75 358.89 408.34 C 380.76 415.22 402.64 422.03 424.51 428.92 C 416.09 403.26 407.54 377.65 399.12 352.00 C 397.74 347.57 395.84 343.27 395.05 338.67 C 417.31 360.63 439.74 382.42 462.23 404.15 C 462.67 400.02 462.76 395.83 463.80 391.79 C 464.86 388.07 464.08 384.10 465.23 380.40 C 467.38 370.10 467.88 359.50 470.09 349.19 C 473.76 337.67 475.86 325.71 478.89 314.01 Z" />
<path fill="#3e3e3e" opacity="1.00" d=" M 0.00 196.41 C 14.32 224.08 27.92 252.11 41.96 279.92 C 27.98 280.53 13.99 280.67 0.00 281.16 L 0.00 196.41 Z" />
<path fill="#f5e5c1" opacity="1.00" d=" M 85.99 201.87 C 96.92 206.10 107.49 211.23 118.30 215.75 C 143.16 226.79 168.18 237.47 192.96 248.66 C 182.21 255.81 171.46 263.20 162.40 272.45 C 158.50 276.26 158.50 282.47 160.91 287.08 C 164.11 292.98 167.30 298.90 170.62 304.75 C 168.70 304.58 167.85 302.67 166.71 301.42 C 139.85 268.20 112.68 235.22 85.99 201.87 Z" />
<path fill="#f5722c" opacity="1.00" d=" M 205.02 254.01 C 218.82 246.05 234.02 240.03 249.95 238.30 C 272.23 236.69 295.51 240.38 314.77 252.21 C 329.05 260.87 339.48 275.17 344.48 291.01 C 349.59 307.62 350.46 326.14 343.50 342.37 C 334.19 364.70 314.12 380.75 292.55 390.56 C 305.20 395.77 316.47 405.27 322.03 417.96 C 327.95 431.40 326.36 447.19 320.26 460.27 C 312.90 475.35 298.67 486.27 282.96 491.57 C 252.40 502.22 215.92 493.24 194.23 469.09 C 200.18 457.02 206.30 445.03 212.22 432.95 C 223.29 440.69 235.30 447.89 248.88 449.94 C 256.69 451.29 265.09 450.09 271.84 445.80 C 275.52 443.21 278.87 439.57 279.47 434.93 C 279.53 428.34 276.20 421.94 271.01 417.93 C 267.16 414.96 262.58 413.06 257.90 411.85 C 245.73 408.81 233.09 409.14 220.65 409.35 C 220.32 396.27 220.08 383.18 220.32 370.10 L 220.72 369.75 C 236.96 369.96 253.70 367.76 268.29 360.22 C 274.96 356.65 281.26 351.38 283.85 344.05 C 286.82 335.72 284.10 326.11 278.19 319.76 C 274.08 315.31 267.84 313.69 261.98 313.51 C 254.43 313.34 247.06 315.51 240.09 318.18 C 226.46 323.69 214.17 332.07 203.12 341.68 C 192.21 321.11 180.73 300.84 169.81 280.27 C 180.51 270.22 192.46 261.58 205.02 254.01 Z" />
<path fill="#f5e5c1" opacity="1.00" d=" M 247.12 327.25 C 253.01 324.90 259.54 323.83 265.82 324.90 C 270.49 325.89 273.03 330.55 273.98 334.85 C 274.99 340.51 271.09 345.65 266.51 348.48 C 253.95 356.58 238.65 358.71 223.98 358.73 C 220.85 358.61 217.74 359.22 214.85 360.40 C 212.25 357.54 209.82 354.54 207.54 351.42 C 211.01 349.81 213.69 347.01 216.67 344.70 C 225.87 337.41 236.10 331.34 247.12 327.25 Z" />
<path fill="#f5e5c1" opacity="1.00" d=" M 138.12 391.09 C 161.89 384.09 185.54 376.68 209.35 369.83 C 209.00 382.55 209.40 395.27 209.55 407.98 C 209.88 410.97 210.47 414.16 212.56 416.47 C 215.07 419.50 219.28 420.08 222.97 420.26 C 234.09 420.32 245.46 419.72 256.30 422.70 C 261.71 424.38 267.89 427.60 268.54 433.92 C 266.71 436.90 263.16 438.08 260.00 439.07 C 248.28 441.07 237.07 435.52 227.25 429.78 C 222.72 427.40 219.16 422.99 213.83 422.40 C 209.25 421.80 204.42 424.19 202.35 428.40 C 198.96 434.70 195.91 441.18 192.70 447.57 C 188.77 447.73 184.86 447.23 180.96 446.79 C 162.96 445.28 144.97 443.64 126.99 441.82 C 138.67 434.13 150.71 426.97 162.55 419.52 C 165.45 417.61 168.67 416.13 171.19 413.69 C 151.62 408.78 131.95 404.25 112.46 399.04 C 120.85 395.87 129.63 393.93 138.12 391.09 Z" />
<path fill="#3e3e3e" opacity="1.00" d=" M 0.00 415.97 C 6.32 417.67 13.09 417.82 19.13 420.41 C 12.80 423.49 6.32 426.25 0.00 429.36 L 0.00 415.97 Z" />
</svg>
