<?xml version="1.0" encoding="UTF-8" ?>
<!DOCTYPE svg PUBLIC "-//W3C//DTD SVG 1.1//EN" "http://www.w3.org/Graphics/SVG/1.1/DTD/svg11.dtd">
<svg width="512pt" height="512pt" viewBox="0 0 512 512" version="1.1" xmlns="http://www.w3.org/2000/svg">
<path fill="#3e3e3e" opacity="1.00" d=" M 0.00 0.00 L 48.78 0.00 C 51.07 7.60 52.72 15.40 55.42 22.88 C 51.55 21.80 47.82 20.26 43.90 19.38 C 41.77 20.22 39.90 21.57 37.97 22.78 C 42.57 33.26 47.09 43.79 51.76 54.24 C 55.59 59.38 61.11 62.97 65.43 67.67 C 66.33 68.72 66.69 70.09 67.24 71.32 C 61.62 67.54 56.75 62.78 51.37 58.69 C 50.18 57.65 48.54 57.69 47.07 57.54 C 41.40 57.17 35.77 56.36 30.09 56.05 C 28.10 57.84 26.17 59.72 24.34 61.67 C 30.85 70.28 37.02 79.14 43.41 87.84 C 45.65 90.78 47.39 94.32 50.66 96.28 C 55.69 99.33 60.81 102.23 65.77 105.40 C 69.47 102.27 73.20 99.17 76.94 96.09 C 74.83 100.15 71.94 103.84 70.29 108.11 C 70.23 113.50 71.40 118.83 71.78 124.20 C 69.28 117.96 67.17 111.58 64.69 105.33 C 58.88 102.81 53.21 99.99 47.51 97.24 C 44.91 95.69 41.86 96.55 39.07 96.92 C 34.40 97.72 29.70 98.39 24.99 98.92 C 23.45 101.20 21.94 103.50 20.46 105.83 C 30.39 114.18 40.26 122.58 50.18 130.94 C 53.56 133.80 58.13 134.27 62.25 135.39 C 55.59 134.81 48.91 134.32 42.26 133.58 C 37.48 136.47 32.53 139.07 27.60 141.69 C 24.15 143.03 24.69 147.39 23.63 150.33 C 34.41 154.37 45.29 158.16 56.08 162.17 C 63.05 165.12 70.73 162.92 78.00 162.68 C 69.91 164.15 61.73 165.37 53.74 167.23 C 48.74 171.44 44.21 176.24 39.54 180.83 C 39.66 183.30 39.72 185.78 39.77 188.26 C 51.87 189.41 64.01 190.06 76.13 190.94 C 81.21 191.74 85.69 188.50 90.49 187.42 C 86.69 189.68 82.39 191.10 78.82 193.74 C 75.58 198.29 73.26 203.43 70.28 208.16 C 68.21 211.18 70.86 214.58 71.70 217.57 C 82.34 215.03 93.16 213.35 103.75 210.64 C 104.39 211.06 105.02 211.49 105.65 211.93 C 100.10 214.11 94.96 217.19 89.53 219.64 C 84.74 221.41 83.65 227.00 80.91 230.78 C 78.77 233.11 80.33 236.04 80.98 238.64 C 88.93 237.12 96.84 235.38 104.79 233.84 C 106.57 233.41 108.60 233.31 109.92 231.83 C 106.64 236.16 102.53 239.82 99.42 244.28 C 98.26 250.03 97.90 255.91 97.26 261.74 C 98.78 263.37 100.29 265.02 101.79 266.68 C 107.79 262.51 113.79 258.33 119.81 254.20 C 132.93 302.56 146.69 350.74 160.06 399.03 C 170.59 436.68 181.03 474.35 191.55 512.00 L 171.25 512.00 C 116.23 382.34 60.91 252.81 5.78 123.20 C 4.03 118.82 2.14 114.49 0.00 110.28 L 0.00 0.00 Z" />
<path fill="#985834" opacity="1.00" d=" M 48.78 0.00 L 118.77 0.00 C 124.15 32.63 128.84 65.37 134.18 98.01 C 134.52 100.20 134.63 102.42 134.73 104.64 C 124.92 91.07 116.04 76.81 105.94 63.45 C 106.74 69.40 108.35 75.19 109.67 81.03 C 101.14 72.67 92.18 64.65 84.77 55.23 C 77.15 45.54 69.37 35.96 61.79 26.23 C 60.39 24.04 57.68 23.66 55.42 22.88 C 52.72 15.40 51.07 7.60 48.78 0.00 Z" />
<path fill="#3e3e3e" opacity="1.00" d=" M 118.77 0.00 L 164.94 0.00 C 167.88 31.86 171.40 63.65 174.51 95.50 C 176.07 106.74 176.30 118.13 178.29 129.32 C 187.93 122.27 197.59 114.98 208.79 110.54 C 209.21 101.68 208.83 92.80 208.66 83.94 C 208.81 80.39 206.38 77.54 205.59 74.23 C 204.70 70.38 204.79 66.40 204.58 62.48 C 202.61 60.79 200.29 59.25 199.31 56.73 C 197.37 52.74 198.33 48.24 198.65 44.02 C 199.02 40.86 199.03 37.47 200.69 34.64 C 201.99 32.41 204.50 31.41 206.64 30.18 C 206.98 20.11 205.65 10.07 205.93 0.00 L 298.11 0.00 C 297.98 5.66 298.04 11.31 298.06 16.97 C 298.09 22.02 296.80 27.02 297.23 32.07 C 298.10 34.89 300.43 37.09 300.85 40.08 C 301.43 43.68 301.24 47.49 299.93 50.91 C 298.89 53.38 296.06 55.05 296.20 57.96 C 295.90 75.20 294.66 92.44 295.13 109.70 C 300.17 112.97 305.45 115.99 309.81 120.18 C 316.08 126.14 320.72 133.55 324.75 141.15 C 329.58 94.10 334.45 47.06 339.15 0.00 L 385.31 0.00 C 381.72 19.85 379.18 39.88 375.81 59.78 C 370.73 93.05 365.45 126.31 360.40 159.59 C 358.18 172.98 356.44 186.46 353.93 199.82 C 346.49 203.04 339.07 206.34 331.64 209.59 C 326.20 230.32 314.53 248.69 301.72 265.62 C 299.64 268.97 295.88 271.63 295.81 275.90 C 300.31 276.05 304.82 275.92 309.33 275.93 C 312.89 276.41 316.15 277.98 319.12 279.94 C 319.47 277.42 319.93 274.93 320.54 272.47 C 323.89 277.05 327.36 281.55 330.86 286.01 C 332.24 284.97 334.12 284.33 334.99 282.75 C 335.96 278.84 336.46 274.83 337.37 270.91 C 336.29 268.98 335.21 267.06 334.14 265.13 C 336.76 268.95 339.60 272.62 342.40 276.31 C 341.06 282.22 340.46 288.27 339.43 294.24 C 328.30 366.84 316.70 439.37 305.79 512.00 L 286.74 512.00 C 289.25 491.39 290.89 470.65 293.23 450.01 C 294.03 441.00 295.55 432.05 295.72 423.00 C 292.89 432.74 288.59 441.94 285.67 451.66 C 284.23 455.49 287.17 459.11 287.15 462.96 C 286.98 468.94 284.00 474.31 282.55 480.00 C 281.75 490.63 282.09 501.33 282.04 512.00 L 221.94 512.00 C 221.99 501.34 222.11 490.66 221.54 480.01 C 221.37 474.11 217.14 469.03 217.92 463.01 C 218.05 459.85 220.58 456.89 219.39 453.72 C 216.99 446.52 214.95 439.17 211.75 432.28 C 210.22 428.94 209.30 425.39 208.23 421.89 C 208.03 428.65 209.50 435.27 210.04 441.98 C 212.31 465.33 214.76 488.66 217.09 512.00 L 198.11 512.00 C 195.22 489.58 191.20 467.32 187.98 444.94 C 179.38 389.91 170.85 334.86 162.32 279.81 C 161.58 275.85 160.96 271.86 160.67 267.84 C 162.71 265.18 164.78 262.54 166.88 259.92 C 165.19 263.95 161.77 268.03 163.11 272.63 C 163.91 275.99 164.32 279.44 165.21 282.78 C 166.25 284.54 168.42 285.09 170.09 286.08 C 175.26 279.06 180.88 272.36 185.83 265.17 C 184.76 267.08 183.69 269.00 182.62 270.92 C 183.54 274.85 184.06 278.87 185.01 282.79 C 185.94 284.32 187.75 284.99 189.14 286.03 C 190.28 284.55 191.40 283.05 192.53 281.56 C 195.43 280.60 198.42 279.92 201.41 279.23 C 203.60 278.64 205.69 277.76 207.79 276.91 C 209.15 270.93 209.85 264.81 211.36 258.85 C 210.69 257.47 210.01 256.08 209.33 254.71 C 209.37 254.37 209.46 253.69 209.51 253.35 C 207.40 250.33 206.42 246.68 206.50 243.02 C 206.59 234.53 206.79 226.04 206.81 217.55 C 206.83 215.16 206.86 212.77 206.87 210.38 C 203.59 209.24 199.90 208.10 198.27 204.71 C 193.32 196.15 187.49 188.09 183.26 179.13 C 183.69 188.99 185.23 198.74 186.01 208.57 C 177.01 204.66 168.10 200.53 158.98 196.90 C 155.27 178.71 152.30 160.34 147.46 142.40 C 144.82 132.34 142.22 122.28 139.58 112.22 C 138.82 109.23 136.39 107.13 134.73 104.64 C 134.63 102.42 134.52 100.20 134.18 98.01 C 128.84 65.37 124.15 32.63 118.77 0.00 Z" />
<path fill="#985834" opacity="1.00" d=" M 164.94 0.00 L 205.93 0.00 C 205.65 10.07 206.98 20.11 206.64 30.18 C 204.50 31.41 201.99 32.41 200.69 34.64 C 199.03 37.47 199.02 40.86 198.65 44.02 C 198.33 48.24 197.37 52.74 199.31 56.73 C 200.29 59.25 202.61 60.79 204.58 62.48 C 204.79 66.40 204.70 70.38 205.59 74.23 C 206.38 77.54 208.81 80.39 208.66 83.94 C 208.83 92.80 209.21 101.68 208.79 110.54 C 197.59 114.98 187.93 122.27 178.29 129.32 C 176.30 118.13 176.07 106.74 174.51 95.50 C 171.40 63.65 167.88 31.86 164.94 0.00 Z" />
<path fill="#985834" opacity="1.00" d=" M 298.11 0.00 L 339.15 0.00 C 334.45 47.06 329.58 94.10 324.75 141.15 C 320.72 133.55 316.08 126.14 309.81 120.18 C 305.45 115.99 300.17 112.97 295.13 109.70 C 294.66 92.44 295.90 75.20 296.20 57.96 C 296.06 55.05 298.89 53.38 299.93 50.91 C 301.24 47.49 301.43 43.68 300.85 40.08 C 300.43 37.09 298.10 34.89 297.23 32.07 C 296.80 27.02 298.09 22.02 298.06 16.97 C 298.04 11.31 297.98 5.66 298.11 0.00 Z" />
<path fill="#985834" opacity="1.00" d=" M 385.31 0.00 L 455.26 0.00 C 451.57 12.83 448.16 25.74 444.44 38.56 C 443.80 40.81 443.41 43.12 442.98 45.42 C 437.18 52.74 431.60 60.30 424.87 66.81 C 420.02 71.57 415.27 76.43 410.27 81.04 C 411.69 75.18 413.27 69.34 414.06 63.36 C 402.67 78.62 392.69 94.92 381.22 110.12 C 377.90 120.51 375.63 131.25 372.70 141.77 C 367.80 159.92 364.76 178.49 361.02 196.89 C 358.65 197.84 356.28 198.81 353.93 199.82 C 356.44 186.46 358.18 172.98 360.40 159.59 C 365.45 126.31 370.73 93.05 375.81 59.78 C 379.18 39.88 381.72 19.85 385.31 0.00 Z" />
<path fill="#3e3e3e" opacity="1.00" d=" M 455.26 0.00 L 512.00 0.00 L 512.00 512.00 L 424.42 512.00 C 443.78 494.13 463.80 476.95 483.39 459.32 C 492.25 451.90 500.50 443.78 509.36 436.36 C 511.54 434.99 510.86 432.23 511.03 430.07 C 510.86 416.66 511.15 403.25 510.86 389.84 C 499.78 400.78 489.74 412.70 478.89 423.85 C 471.31 432.28 463.30 440.31 455.81 448.81 C 449.01 455.37 443.18 462.84 436.43 469.45 C 427.20 479.55 417.90 489.57 408.53 499.54 C 404.75 503.82 400.95 508.10 396.77 512.00 L 372.65 512.00 C 417.60 445.50 462.57 379.02 507.54 312.54 C 508.68 310.76 510.27 309.16 510.82 307.08 C 511.29 302.98 510.92 298.84 510.81 294.73 C 468.19 359.52 426.14 424.71 383.72 489.64 C 378.78 497.08 374.23 504.78 368.98 512.00 L 341.49 512.00 C 364.92 463.07 389.07 414.48 412.65 365.62 C 445.36 298.99 477.62 232.14 510.36 165.53 C 511.36 162.81 510.93 159.84 511.02 157.01 C 510.82 135.95 511.27 114.87 510.75 93.81 C 504.00 109.42 497.57 125.17 490.63 140.69 C 486.55 138.75 482.74 136.30 478.71 134.26 C 477.38 133.42 475.79 133.78 474.34 133.89 C 468.84 134.53 463.32 134.88 457.81 135.40 C 461.92 134.25 466.50 133.80 469.86 130.89 C 479.79 122.59 489.59 114.13 499.55 105.86 C 498.06 103.53 496.55 101.22 495.02 98.93 C 488.96 98.33 482.98 97.11 476.95 96.40 C 474.56 95.92 472.44 97.31 470.37 98.24 C 464.58 101.21 458.59 103.74 452.79 106.68 C 450.58 112.49 448.49 118.34 446.29 124.15 C 446.57 118.77 447.73 113.46 447.80 108.07 C 445.97 103.87 443.21 100.14 441.07 96.10 C 445.09 99.37 449.03 102.75 453.06 106.03 C 458.46 102.77 463.88 99.54 469.30 96.31 C 472.61 94.34 474.36 90.76 476.63 87.79 C 483.00 79.10 489.17 70.26 495.66 61.66 C 493.82 59.71 491.90 57.84 489.91 56.05 C 483.62 56.44 477.37 57.25 471.10 57.73 C 469.74 57.76 468.67 58.63 467.66 59.41 C 462.78 63.36 458.07 67.54 453.02 71.27 C 453.21 70.44 453.45 69.61 453.74 68.80 C 458.69 62.12 467.55 58.40 470.13 50.01 C 474.09 40.93 478.08 31.86 482.03 22.77 C 480.08 21.57 478.21 20.17 476.05 19.39 C 470.44 20.76 465.07 22.95 459.52 24.51 C 454.10 31.55 448.56 38.50 442.98 45.42 C 443.41 43.12 443.80 40.81 444.44 38.56 C 448.16 25.74 451.57 12.83 455.26 0.00 Z" />
<path fill="#f5e5c1" opacity="1.00" d=" M 37.97 22.78 C 39.90 21.57 41.77 20.22 43.90 19.38 C 47.82 20.26 51.55 21.80 55.42 22.88 C 57.68 23.66 60.39 24.04 61.79 26.23 C 69.37 35.96 77.15 45.54 84.77 55.23 C 92.18 64.65 101.14 72.67 109.67 81.03 C 108.35 75.19 106.74 69.40 105.94 63.45 C 116.04 76.81 124.92 91.07 134.73 104.64 C 136.39 107.13 138.82 109.23 139.58 112.22 C 142.22 122.28 144.82 132.34 147.46 142.40 C 152.30 160.34 155.27 178.71 158.98 196.90 C 168.10 200.53 177.01 204.66 186.01 208.57 C 192.96 211.53 199.78 214.79 206.81 217.55 C 206.79 226.04 206.59 234.53 206.50 243.02 C 206.42 246.68 207.40 250.33 209.51 253.35 C 209.46 253.69 209.37 254.37 209.33 254.71 C 210.01 256.08 210.69 257.47 211.36 258.85 C 209.85 264.81 209.15 270.93 207.79 276.91 C 205.69 277.76 203.60 278.64 201.41 279.23 C 200.05 277.17 199.99 274.63 199.64 272.27 C 197.37 275.45 194.89 278.46 192.53 281.56 C 191.40 283.05 190.28 284.55 189.14 286.03 C 187.75 284.99 185.94 284.32 185.01 282.79 C 184.06 278.87 183.54 274.85 182.62 270.92 C 183.69 269.00 184.76 267.08 185.83 265.17 C 180.88 272.36 175.26 279.06 170.09 286.08 C 168.42 285.09 166.25 284.54 165.21 282.78 C 164.32 279.44 163.91 275.99 163.11 272.63 C 161.77 268.03 165.19 263.95 166.88 259.92 C 164.78 262.54 162.71 265.18 160.67 267.84 C 157.78 271.61 154.90 275.40 152.00 279.16 C 150.02 277.82 146.91 277.05 146.76 274.20 C 146.12 270.75 145.38 267.29 145.10 263.79 C 144.79 260.56 146.62 257.72 147.93 254.93 C 143.42 261.09 138.58 267.00 134.04 273.14 C 132.39 272.10 130.39 271.41 129.14 269.87 C 128.24 266.18 127.68 262.42 127.15 258.66 C 126.52 254.41 129.26 250.78 130.59 246.95 C 126.86 249.15 123.38 251.75 119.81 254.20 C 113.79 258.33 107.79 262.51 101.79 266.68 C 100.29 265.02 98.78 263.37 97.26 261.74 C 97.90 255.91 98.26 250.03 99.42 244.28 C 102.53 239.82 106.64 236.16 109.92 231.83 C 108.60 233.31 106.57 233.41 104.79 233.84 C 96.84 235.38 88.93 237.12 80.98 238.64 C 80.33 236.04 78.77 233.11 80.91 230.78 C 83.65 227.00 84.74 221.41 89.53 219.64 C 94.96 217.19 100.10 214.11 105.65 211.93 C 105.02 211.49 104.39 211.06 103.75 210.64 C 93.16 213.35 82.34 215.03 71.70 217.57 C 70.86 214.58 68.21 211.18 70.28 208.16 C 73.26 203.43 75.58 198.29 78.82 193.74 C 82.39 191.10 86.69 189.68 90.49 187.42 C 85.69 188.50 81.21 191.74 76.13 190.94 C 64.01 190.06 51.87 189.41 39.77 188.26 C 39.72 185.78 39.66 183.30 39.54 180.83 C 44.21 176.24 48.74 171.44 53.74 167.23 C 61.73 165.37 69.91 164.15 78.00 162.68 C 70.73 162.92 63.05 165.12 56.08 162.17 C 45.29 158.16 34.41 154.37 23.63 150.33 C 24.69 147.39 24.15 143.03 27.60 141.69 C 32.53 139.07 37.48 136.47 42.26 133.58 C 48.91 134.32 55.59 134.81 62.25 135.39 C 58.13 134.27 53.56 133.80 50.18 130.94 C 40.26 122.58 30.39 114.18 20.46 105.83 C 21.94 103.50 23.45 101.20 24.99 98.92 C 29.70 98.39 34.40 97.72 39.07 96.92 C 41.86 96.55 44.91 95.69 47.51 97.24 C 53.21 99.99 58.88 102.81 64.69 105.33 C 67.17 111.58 69.28 117.96 71.78 124.20 C 71.40 118.83 70.23 113.50 70.29 108.11 C 71.94 103.84 74.83 100.15 76.94 96.09 C 73.20 99.17 69.47 102.27 65.77 105.40 C 60.81 102.23 55.69 99.33 50.66 96.28 C 47.39 94.32 45.65 90.78 43.41 87.84 C 37.02 79.14 30.85 70.28 24.34 61.67 C 26.17 59.72 28.10 57.84 30.09 56.05 C 35.77 56.36 41.40 57.17 47.07 57.54 C 48.54 57.69 50.18 57.65 51.37 58.69 C 56.75 62.78 61.62 67.54 67.24 71.32 C 66.69 70.09 66.33 68.72 65.43 67.67 C 61.11 62.97 55.59 59.38 51.76 54.24 C 47.09 43.79 42.57 33.26 37.97 22.78 Z" />
<path fill="#f5e5c1" opacity="1.00" d=" M 459.52 24.51 C 465.07 22.95 470.44 20.76 476.05 19.39 C 478.21 20.17 480.08 21.57 482.03 22.77 C 478.08 31.86 474.09 40.93 470.13 50.01 C 467.55 58.40 458.69 62.12 453.74 68.80 C 453.45 69.61 453.21 70.44 453.02 71.27 C 458.07 67.54 462.78 63.36 467.66 59.41 C 468.67 58.63 469.74 57.76 471.10 57.73 C 477.37 57.25 483.62 56.44 489.91 56.05 C 491.90 57.84 493.82 59.71 495.66 61.66 C 489.17 70.26 483.00 79.10 476.63 87.79 C 474.36 90.76 472.61 94.34 469.30 96.31 C 463.88 99.54 458.46 102.77 453.06 106.03 C 449.03 102.75 445.09 99.37 441.07 96.10 C 443.21 100.14 445.97 103.87 447.80 108.07 C 447.73 113.46 446.57 118.77 446.29 124.15 C 448.49 118.34 450.58 112.49 452.79 106.68 C 458.59 103.74 464.58 101.21 470.37 98.24 C 472.44 97.31 474.56 95.92 476.95 96.40 C 482.98 97.11 488.96 98.33 495.02 98.93 C 496.55 101.22 498.06 103.53 499.55 105.86 C 489.59 114.13 479.79 122.59 469.86 130.89 C 466.50 133.80 461.92 134.25 457.81 135.40 C 463.32 134.88 468.84 134.53 474.34 133.89 C 475.79 133.78 477.38 133.42 478.71 134.26 C 482.74 136.30 486.55 138.75 490.63 140.69 C 491.97 141.49 493.58 142.09 494.53 143.40 C 495.41 145.60 495.81 147.95 496.40 150.24 C 492.51 151.89 488.49 153.21 484.52 154.66 C 476.94 157.43 469.35 160.17 461.77 162.92 C 455.42 164.87 448.86 162.72 442.50 162.24 C 442.55 162.59 442.65 163.30 442.70 163.65 C 444.13 163.62 445.56 163.56 446.99 163.46 C 453.38 164.93 459.95 165.58 466.28 167.24 C 469.64 169.67 472.22 173.00 475.28 175.78 C 476.96 177.50 479.13 178.88 480.22 181.07 C 480.48 183.45 480.30 185.84 480.29 188.22 C 476.75 188.56 473.20 188.76 469.67 189.11 C 460.45 189.65 451.26 190.72 442.02 190.81 C 437.45 190.83 433.37 188.47 429.08 187.23 C 433.00 189.62 437.49 191.02 441.20 193.75 C 444.32 198.08 446.47 203.05 449.38 207.54 C 451.93 210.66 449.32 214.37 448.33 217.56 C 439.88 215.60 431.34 214.08 422.88 212.16 C 419.64 211.42 416.32 211.09 413.00 210.97 C 419.23 214.20 425.57 217.23 431.86 220.36 C 433.89 221.20 434.76 223.34 435.83 225.10 C 437.27 227.79 438.99 230.33 440.27 233.11 C 440.23 235.01 439.46 236.80 439.03 238.63 C 429.46 236.47 419.60 235.32 410.26 232.30 C 413.08 235.03 415.45 238.18 418.08 241.09 C 419.29 242.58 420.93 243.97 420.98 246.05 C 421.67 251.25 422.24 256.47 422.76 261.69 C 421.23 263.35 419.71 265.01 418.21 266.69 C 408.53 259.89 398.74 253.26 389.08 246.44 C 390.70 250.89 394.44 255.25 392.77 260.21 C 391.99 263.39 391.65 266.66 390.80 269.82 C 389.72 271.55 387.56 272.10 385.90 273.11 C 384.45 271.15 383.02 269.18 381.53 267.27 C 378.36 263.14 375.08 259.09 372.01 254.89 C 373.37 257.70 375.24 260.58 374.90 263.86 C 374.48 267.88 373.80 271.90 372.79 275.82 C 371.66 277.45 369.60 278.09 367.99 279.14 C 362.97 272.42 357.61 265.96 352.78 259.11 C 354.76 263.29 357.67 267.63 356.75 272.49 C 356.21 275.94 355.75 279.43 354.78 282.79 C 353.65 284.42 351.61 285.09 350.01 286.16 C 347.51 282.85 344.96 279.58 342.40 276.31 C 339.60 272.62 336.76 268.95 334.14 265.13 C 335.21 267.06 336.29 268.98 337.37 270.91 C 336.46 274.83 335.96 278.84 334.99 282.75 C 334.12 284.33 332.24 284.97 330.86 286.01 C 327.36 281.55 323.89 277.05 320.54 272.47 C 319.93 274.93 319.47 277.42 319.12 279.94 C 316.15 277.98 312.89 276.41 309.33 275.93 C 306.77 272.51 304.05 269.20 301.72 265.62 C 314.53 248.69 326.20 230.32 331.64 209.59 C 339.07 206.34 346.49 203.04 353.93 199.82 C 356.28 198.81 358.65 197.84 361.02 196.89 C 364.76 178.49 367.80 159.92 372.70 141.77 C 375.63 131.25 377.90 120.51 381.22 110.12 C 392.69 94.92 402.67 78.62 414.06 63.36 C 413.27 69.34 411.69 75.18 410.27 81.04 C 415.27 76.43 420.02 71.57 424.87 66.81 C 431.60 60.30 437.18 52.74 442.98 45.42 C 448.56 38.50 454.10 31.55 459.52 24.51 Z" />
<path fill="#f5e5c1" opacity="1.00" d=" M 229.28 35.71 C 231.79 34.92 234.44 35.02 237.03 35.20 C 249.34 35.92 261.67 36.38 273.96 37.49 C 278.95 38.68 284.10 39.32 288.96 40.97 C 289.44 42.32 289.74 43.74 290.12 45.13 C 287.97 47.55 285.33 49.55 283.40 52.16 C 282.40 58.63 282.55 65.22 282.06 71.74 C 280.10 71.77 278.14 71.82 276.18 71.92 C 276.45 82.41 276.34 92.91 276.49 103.41 C 266.49 101.00 256.13 100.70 245.89 101.11 C 237.80 101.60 229.94 103.71 222.10 105.68 C 221.97 95.33 222.52 84.94 221.80 74.62 C 219.99 74.12 218.19 73.59 216.42 73.01 C 215.90 66.54 215.32 60.08 215.25 53.58 C 213.21 52.91 211.12 52.43 209.00 52.17 C 209.39 49.16 209.07 45.98 210.31 43.14 C 210.36 42.54 210.47 41.33 210.52 40.72 C 216.77 39.03 223.05 37.44 229.28 35.71 Z" />
<path fill="#3e3e3e" opacity="1.00" d=" M 101.69 82.64 C 102.63 86.68 102.61 90.84 102.97 94.94 C 106.53 98.36 110.30 101.55 113.79 105.03 C 108.04 101.59 102.59 97.67 97.00 93.97 C 98.63 90.22 100.13 86.42 101.69 82.64 Z" />
<path fill="#3e3e3e" opacity="1.00" d=" M 426.97 95.03 C 427.46 90.93 427.29 86.74 428.31 82.70 C 429.91 86.45 431.39 90.24 433.00 93.98 C 427.34 97.65 421.93 101.72 416.05 105.04 C 419.69 101.70 423.36 98.40 426.97 95.03 Z" />
<path fill="#985834" opacity="1.00" d=" M 490.63 140.69 C 497.57 125.17 504.00 109.42 510.75 93.81 C 511.27 114.87 510.82 135.95 511.02 157.01 C 510.93 159.84 511.36 162.81 510.36 165.53 C 477.62 232.14 445.36 298.99 412.65 365.62 C 389.07 414.48 364.92 463.07 341.49 512.00 L 332.68 512.00 C 376.63 408.83 420.51 305.62 464.50 202.46 C 466.27 198.03 468.48 193.75 469.67 189.11 C 473.20 188.76 476.75 188.56 480.29 188.22 C 480.30 185.84 480.48 183.45 480.22 181.07 C 479.13 178.88 476.96 177.50 475.28 175.78 C 479.20 169.16 481.84 161.85 484.52 154.66 C 488.49 153.21 492.51 151.89 496.40 150.24 C 495.81 147.95 495.41 145.60 494.53 143.40 C 493.58 142.09 491.97 141.49 490.63 140.69 Z" />
<path fill="#985834" opacity="1.00" d=" M 0.00 110.28 C 2.14 114.49 4.03 118.82 5.78 123.20 C 60.91 252.81 116.23 382.34 171.25 512.00 L 162.58 512.00 C 127.55 439.61 92.05 367.43 56.93 295.09 C 45.38 271.61 34.07 248.02 22.48 224.56 C 14.97 209.48 8.13 194.03 0.00 179.27 L 0.00 110.28 Z" />
<path fill="#f5722c" opacity="1.00" d=" M 184.86 138.83 C 201.03 124.54 221.48 114.84 242.98 112.38 C 261.05 110.91 280.55 112.55 295.83 123.22 C 312.38 134.64 320.19 154.81 323.07 174.02 C 326.41 192.56 321.21 211.44 312.91 227.98 C 301.50 250.06 285.76 269.69 267.94 286.93 C 282.14 287.22 296.36 286.73 310.56 287.18 C 310.43 300.10 310.76 313.02 311.02 325.94 C 274.01 326.07 237.01 325.97 200.01 326.00 C 200.03 314.14 199.92 302.28 200.06 290.43 C 209.82 289.06 218.59 284.09 226.74 278.83 C 244.73 266.81 260.50 250.86 270.51 231.55 C 276.49 219.84 279.24 205.48 274.00 192.99 C 270.55 185.70 265.14 178.17 256.79 176.33 C 247.78 174.49 238.56 177.46 230.61 181.60 C 222.24 186.15 214.79 192.27 208.41 199.32 C 206.90 197.83 205.85 195.98 204.82 194.15 C 195.52 178.78 186.18 163.40 177.00 147.96 C 178.59 144.19 182.09 141.70 184.86 138.83 Z" />
<path fill="#3e3e3e" opacity="1.00" d=" M 95.08 128.07 C 101.13 132.85 108.61 135.01 115.20 138.84 C 109.39 137.90 103.72 136.27 97.99 134.99 C 96.98 132.70 96.01 130.39 95.08 128.07 Z" />
<path fill="#3e3e3e" opacity="1.00" d=" M 414.84 138.72 C 421.51 135.09 428.89 132.78 434.95 128.07 C 433.97 130.38 432.99 132.69 432.00 135.00 C 426.27 136.20 420.66 138.04 414.84 138.72 Z" />
<path fill="#3e3e3e" opacity="1.00" d=" M 76.00 153.10 C 82.03 154.26 86.89 158.90 93.11 159.39 C 100.42 160.06 107.68 161.34 115.03 161.63 C 106.41 162.78 97.63 162.66 88.95 162.85 C 84.50 159.80 80.43 156.20 76.00 153.10 Z" />
<path fill="#3e3e3e" opacity="1.00" d=" M 423.94 159.50 C 430.54 159.20 435.75 154.54 441.98 152.92 C 437.77 156.42 433.30 159.59 429.02 163.01 C 420.40 162.41 411.65 162.97 403.11 161.56 C 410.10 161.41 416.99 160.12 423.94 159.50 Z" />
<path fill="#3e3e3e" opacity="1.00" d=" M 461.77 162.92 C 469.35 160.17 476.94 157.43 484.52 154.66 C 481.84 161.85 479.20 169.16 475.28 175.78 C 472.22 173.00 469.64 169.67 466.28 167.24 C 459.95 165.58 453.38 164.93 446.99 163.46 C 445.56 163.56 444.13 163.62 442.70 163.65 C 442.65 163.30 442.55 162.59 442.50 162.24 C 448.86 162.72 455.42 164.87 461.77 162.92 Z" />
<path fill="#3e3e3e" opacity="1.00" d=" M 118.02 169.03 C 123.07 173.56 129.16 176.61 135.04 179.89 C 129.18 179.69 123.70 177.22 118.01 176.02 C 118.00 173.69 118.01 171.36 118.02 169.03 Z" />
<path fill="#3e3e3e" opacity="1.00" d=" M 395.51 180.04 C 400.82 176.11 407.12 173.63 411.97 169.03 C 411.98 171.35 412.00 173.68 412.00 176.00 C 406.50 177.30 401.13 179.30 395.51 180.04 Z" />
<path fill="#985834" opacity="1.00" d=" M 186.01 208.57 C 185.23 198.74 183.69 188.99 183.26 179.13 C 187.49 188.09 193.32 196.15 198.27 204.71 C 199.90 208.10 203.59 209.24 206.87 210.38 C 206.86 212.77 206.83 215.16 206.81 217.55 C 199.78 214.79 192.96 211.53 186.01 208.57 Z" />
<path fill="#3e3e3e" opacity="1.00" d=" M 0.00 179.27 C 8.13 194.03 14.97 209.48 22.48 224.56 C 34.07 248.02 45.38 271.61 56.93 295.09 C 92.05 367.43 127.55 439.61 162.58 512.00 L 135.01 512.00 C 126.90 500.33 119.46 488.20 111.60 476.36 C 83.35 432.94 55.14 389.49 26.80 346.13 C 17.98 332.23 8.66 318.65 0.00 304.66 L 0.00 179.27 Z" />
<path fill="#3e3e3e" opacity="1.00" d=" M 87.34 183.96 C 92.75 184.45 97.60 187.31 102.96 187.97 C 108.68 188.17 114.44 187.68 120.14 188.46 C 114.08 188.88 108.13 190.23 102.10 190.87 C 97.06 188.87 92.13 186.50 87.34 183.96 Z" />
<path fill="#3e3e3e" opacity="1.00" d=" M 416.14 187.85 C 420.90 186.79 425.40 184.72 430.22 183.91 C 425.86 186.86 420.78 188.73 415.97 190.87 C 409.94 190.26 403.98 188.91 397.92 188.45 C 403.97 187.59 410.08 188.31 416.14 187.85 Z" />
<path fill="#f5e5c1" opacity="1.00" d=" M 244.36 187.65 C 249.09 186.47 255.28 185.63 258.84 189.79 C 266.80 197.48 267.39 209.91 263.65 219.79 C 259.02 232.00 251.18 242.79 242.00 251.99 C 235.59 258.57 228.55 264.60 220.82 269.58 C 222.56 262.14 223.85 254.60 223.22 246.93 C 221.31 246.61 219.41 246.29 217.51 245.97 C 217.64 232.19 217.60 218.36 218.78 204.65 C 225.51 196.83 234.61 190.98 244.36 187.65 Z" />
<path fill="#3e3e3e" opacity="1.00" d=" M 429.08 187.23 C 433.37 188.47 437.45 190.83 442.02 190.81 C 451.26 190.72 460.45 189.65 469.67 189.11 C 468.48 193.75 466.27 198.03 464.50 202.46 C 420.51 305.62 376.63 408.83 332.68 512.00 L 312.47 512.00 C 334.95 431.01 357.64 350.07 380.17 269.10 C 380.51 268.64 381.19 267.73 381.53 267.27 C 383.02 269.18 384.45 271.15 385.90 273.11 C 387.56 272.10 389.72 271.55 390.80 269.82 C 391.65 266.66 391.99 263.39 392.77 260.21 C 394.44 255.25 390.70 250.89 389.08 246.44 C 398.74 253.26 408.53 259.89 418.21 266.69 C 419.71 265.01 421.23 263.35 422.76 261.69 C 422.24 256.47 421.67 251.25 420.98 246.05 C 420.93 243.97 419.29 242.58 418.08 241.09 C 415.45 238.18 413.08 235.03 410.26 232.30 C 419.60 235.32 429.46 236.47 439.03 238.63 C 439.46 236.80 440.23 235.01 440.27 233.11 C 438.99 230.33 437.27 227.79 435.83 225.10 C 434.76 223.34 433.89 221.20 431.86 220.36 C 425.57 217.23 419.23 214.20 413.00 210.97 C 416.32 211.09 419.64 211.42 422.88 212.16 C 431.34 214.08 439.88 215.60 448.33 217.56 C 449.32 214.37 451.93 210.66 449.38 207.54 C 446.47 203.05 444.32 198.08 441.20 193.75 C 437.49 191.02 433.00 189.62 429.08 187.23 Z" />
<path fill="#3e3e3e" opacity="1.00" d=" M 131.91 200.13 C 135.38 198.46 139.32 198.15 142.98 197.00 C 145.78 199.21 148.62 201.37 151.22 203.83 C 144.77 202.64 138.33 201.45 131.91 200.13 Z" />
<path fill="#3e3e3e" opacity="1.00" d=" M 378.79 203.83 C 381.34 201.35 384.23 199.26 386.98 197.02 C 390.68 197.95 394.42 198.77 398.10 199.84 C 391.84 201.83 385.21 202.44 378.79 203.83 Z" />
<path fill="#3e3e3e" opacity="1.00" d=" M 103.02 209.00 C 109.14 208.99 115.12 210.55 121.18 211.27 C 124.80 211.95 128.59 211.92 132.06 213.24 C 128.37 214.18 124.66 215.06 120.97 216.01 C 116.16 214.42 111.56 211.99 106.53 211.16 C 105.59 210.11 104.24 209.61 103.02 209.00 Z" />
<path fill="#3e3e3e" opacity="1.00" d=" M 410.33 209.23 C 411.88 209.24 414.93 208.15 414.98 210.57 C 408.58 210.51 403.08 214.44 396.99 215.86 C 393.24 215.29 389.60 214.11 385.92 213.18 C 393.92 211.25 402.22 210.68 410.33 209.23 Z" />
<path fill="#3e3e3e" opacity="1.00" d=" M 169.09 231.99 C 172.69 229.64 176.32 227.35 179.94 225.02 C 180.53 227.23 183.96 229.84 182.07 231.92 C 177.75 232.15 173.41 231.93 169.09 231.99 Z" />
<path fill="#3e3e3e" opacity="1.00" d=" M 350.08 225.17 C 353.83 227.23 357.28 229.76 360.95 231.96 C 356.40 231.85 351.81 232.39 347.30 231.68 C 347.29 229.25 348.94 227.20 350.08 225.17 Z" />
<path fill="#3e3e3e" opacity="1.00" d=" M 132.00 238.99 C 132.35 235.02 132.41 231.01 133.19 227.09 C 136.04 230.46 139.05 233.70 142.01 236.99 C 144.84 235.12 147.61 233.15 150.58 231.50 C 148.84 235.10 146.93 238.61 144.87 242.04 C 140.60 240.95 136.29 240.02 132.00 238.99 Z" />
<path fill="#3e3e3e" opacity="1.00" d=" M 376.00 237.00 C 379.00 233.69 381.93 230.32 385.03 227.10 C 385.42 231.05 385.67 235.01 386.02 238.97 C 381.74 240.05 377.40 240.89 373.14 242.05 C 370.95 238.51 369.09 234.78 367.09 231.13 C 370.08 233.04 373.04 235.02 376.00 237.00 Z" />
<path fill="#3e3e3e" opacity="1.00" d=" M 159.24 236.00 C 160.95 237.44 160.85 239.72 161.12 241.75 C 164.04 244.59 166.40 247.92 169.02 251.03 C 172.00 249.67 174.99 248.34 177.98 246.99 C 177.67 249.67 177.35 252.34 177.01 255.01 C 173.00 254.67 168.99 254.38 164.99 253.97 C 163.27 247.91 160.47 242.19 159.24 236.00 Z" />
<path fill="#3e3e3e" opacity="1.00" d=" M 358.71 236.14 C 358.08 238.33 357.63 240.58 357.77 242.88 L 357.15 241.40 C 355.83 245.61 354.39 249.79 353.02 253.99 C 349.01 254.36 345.00 254.65 341.00 255.02 C 340.65 252.34 340.33 249.67 340.03 246.99 C 343.00 248.35 345.99 249.68 348.98 251.01 C 351.35 247.98 354.08 245.22 356.12 241.95 C 357.45 240.17 356.58 237.38 358.71 236.14 Z" />
<path fill="#985834" opacity="1.00" d=" M 119.81 254.20 C 123.38 251.75 126.86 249.15 130.59 246.95 C 129.26 250.78 126.52 254.41 127.15 258.66 C 127.68 262.42 128.24 266.18 129.14 269.87 C 130.39 271.41 132.39 272.10 134.04 273.14 C 138.58 267.00 143.42 261.09 147.93 254.93 C 146.62 257.72 144.79 260.56 145.10 263.79 C 145.38 267.29 146.12 270.75 146.76 274.20 C 146.91 277.05 150.02 277.82 152.00 279.16 C 154.90 275.40 157.78 271.61 160.67 267.84 C 160.96 271.86 161.58 275.85 162.32 279.81 C 170.85 334.86 179.38 389.91 187.98 444.94 C 191.20 467.32 195.22 489.58 198.11 512.00 L 191.55 512.00 C 181.03 474.35 170.59 436.68 160.06 399.03 C 146.69 350.74 132.93 302.56 119.81 254.20 Z" />
<path fill="#3e3e3e" opacity="1.00" d=" M 188.83 251.15 C 191.85 253.15 195.59 253.18 199.01 254.01 C 198.02 255.96 197.04 257.92 196.05 259.88 C 193.54 257.06 191.48 253.85 188.83 251.15 Z" />
<path fill="#3e3e3e" opacity="1.00" d=" M 319.00 254.01 C 322.39 253.13 326.15 253.20 329.13 251.16 C 326.52 253.89 324.44 257.07 321.95 259.90 C 320.95 257.94 319.98 255.98 319.00 254.01 Z" />
<path fill="#985834" opacity="1.00" d=" M 372.01 254.89 C 375.08 259.09 378.36 263.14 381.53 267.27 C 381.19 267.73 380.51 268.64 380.17 269.10 C 357.64 350.07 334.95 431.01 312.47 512.00 L 305.79 512.00 C 316.70 439.37 328.30 366.84 339.43 294.24 C 340.46 288.27 341.06 282.22 342.40 276.31 C 344.96 279.58 347.51 282.85 350.01 286.16 C 351.61 285.09 353.65 284.42 354.78 282.79 C 355.75 279.43 356.21 275.94 356.75 272.49 C 357.67 267.63 354.76 263.29 352.78 259.11 C 357.61 265.96 362.97 272.42 367.99 279.14 C 369.60 278.09 371.66 277.45 372.79 275.82 C 373.80 271.90 374.48 267.88 374.90 263.86 C 375.24 260.58 373.37 257.70 372.01 254.89 Z" />
<path fill="#985834" opacity="1.00" d=" M 295.81 275.90 C 295.88 271.63 299.64 268.97 301.72 265.62 C 304.05 269.20 306.77 272.51 309.33 275.93 C 304.82 275.92 300.31 276.05 295.81 275.90 Z" />
<path fill="#985834" opacity="1.00" d=" M 192.53 281.56 C 194.89 278.46 197.37 275.45 199.64 272.27 C 199.99 274.63 200.05 277.17 201.41 279.23 C 198.42 279.92 195.43 280.60 192.53 281.56 Z" />
<path fill="#985834" opacity="1.00" d=" M 383.72 489.64 C 426.14 424.71 468.19 359.52 510.81 294.73 C 510.92 298.84 511.29 302.98 510.82 307.08 C 510.27 309.16 508.68 310.76 507.54 312.54 C 462.57 379.02 417.60 445.50 372.65 512.00 L 368.98 512.00 C 374.23 504.78 378.78 497.08 383.72 489.64 Z" />
<path fill="#985834" opacity="1.00" d=" M 0.00 304.66 C 8.66 318.65 17.98 332.23 26.80 346.13 C 55.14 389.49 83.35 432.94 111.60 476.36 C 119.46 488.20 126.90 500.33 135.01 512.00 L 131.36 512.00 C 101.59 467.98 71.81 423.96 42.06 379.93 C 27.94 359.43 14.46 338.49 0.00 318.23 L 0.00 304.66 Z" />
<path fill="#3e3e3e" opacity="1.00" d=" M 0.00 318.23 C 14.46 338.49 27.94 359.43 42.06 379.93 C 71.81 423.96 101.59 467.98 131.36 512.00 L 107.19 512.00 C 92.54 496.89 78.61 481.09 64.07 465.87 C 42.89 442.68 21.14 420.00 0.00 396.75 L 0.00 318.23 Z" />
<path fill="#f5e5c1" opacity="1.00" d=" M 209.72 337.44 C 211.45 337.18 213.20 336.96 214.95 336.97 C 237.30 337.03 259.64 336.98 281.99 337.00 C 286.09 337.02 290.20 336.82 294.29 337.30 C 294.39 353.20 294.71 369.09 294.90 384.98 C 294.86 388.42 295.60 392.10 293.73 395.21 C 285.76 416.78 278.43 438.58 270.43 460.14 C 272.44 460.98 274.43 461.86 276.40 462.81 C 272.97 471.40 270.19 480.25 267.08 488.97 C 256.70 489.05 246.33 488.95 235.95 489.03 C 233.76 480.67 231.15 472.41 229.18 464.01 C 230.01 461.61 232.18 459.98 233.72 458.04 C 225.79 437.36 218.17 416.55 210.30 395.85 C 209.25 394.84 208.94 393.40 209.02 392.01 C 209.23 373.82 209.61 355.63 209.72 337.44 Z" />
<path fill="#985834" opacity="1.00" d=" M 478.89 423.85 C 489.74 412.70 499.78 400.78 510.86 389.84 C 511.15 403.25 510.86 416.66 511.03 430.07 C 510.86 432.23 511.54 434.99 509.36 436.36 C 500.50 443.78 492.25 451.90 483.39 459.32 C 463.80 476.95 443.78 494.13 424.42 512.00 L 396.77 512.00 C 400.95 508.10 404.75 503.82 408.53 499.54 C 417.90 489.57 427.20 479.55 436.43 469.45 C 443.18 462.84 449.01 455.37 455.81 448.81 C 463.30 440.31 471.31 432.28 478.89 423.85 Z" />
<path fill="#985834" opacity="1.00" d=" M 0.00 396.75 C 21.14 420.00 42.89 442.68 64.07 465.87 C 78.61 481.09 92.54 496.89 107.19 512.00 L 79.65 512.00 C 55.97 490.46 31.85 469.41 7.91 448.16 C 5.45 445.67 2.79 443.37 0.00 441.26 L 0.00 396.75 Z" />
<path fill="#985834" opacity="1.00" d=" M 208.23 421.89 C 209.30 425.39 210.22 428.94 211.75 432.28 C 214.95 439.17 216.99 446.52 219.39 453.72 C 220.58 456.89 218.05 459.85 217.92 463.01 C 217.14 469.03 221.37 474.11 221.54 480.01 C 222.11 490.66 221.99 501.34 221.94 512.00 L 217.09 512.00 C 214.76 488.66 212.31 465.33 210.04 441.98 C 209.50 435.27 208.03 428.65 208.23 421.89 Z" />
<path fill="#985834" opacity="1.00" d=" M 295.72 423.00 C 295.55 432.05 294.03 441.00 293.23 450.01 C 290.89 470.65 289.25 491.39 286.74 512.00 L 282.04 512.00 C 282.09 501.33 281.75 490.63 282.55 480.00 C 284.00 474.31 286.98 468.94 287.15 462.96 C 287.17 459.11 284.23 455.49 285.67 451.66 C 288.59 441.94 292.89 432.74 295.72 423.00 Z" />
<path fill="#3e3e3e" opacity="1.00" d=" M 0.00 441.26 C 2.79 443.37 5.45 445.67 7.91 448.16 C 31.85 469.41 55.97 490.46 79.65 512.00 L 0.00 512.00 L 0.00 441.26 Z" />
</svg>
