<?xml version="1.0" encoding="UTF-8" ?>
<!DOCTYPE svg PUBLIC "-//W3C//DTD SVG 1.1//EN" "http://www.w3.org/Graphics/SVG/1.1/DTD/svg11.dtd">
<svg width="512pt" height="512pt" viewBox="0 0 512 512" version="1.1" xmlns="http://www.w3.org/2000/svg">
<path fill="#3e3e3e" opacity="1.00" d=" M 0.00 0.00 L 512.00 0.00 L 512.00 161.44 C 495.28 162.29 478.57 163.12 461.85 163.76 C 452.31 164.87 442.67 164.12 433.13 165.11 C 426.40 165.69 419.63 165.36 412.91 166.03 C 405.64 166.70 398.32 166.34 391.04 166.99 C 383.71 167.68 376.32 167.29 368.99 167.99 C 361.68 168.68 354.32 168.28 347.01 168.92 C 338.06 169.79 329.05 169.28 320.11 170.26 C 306.18 170.52 292.28 172.19 278.34 171.46 C 291.70 159.67 305.23 148.07 318.67 136.37 C 317.80 135.59 316.94 134.82 316.07 134.04 C 304.86 145.16 293.26 155.88 282.04 166.98 C 279.39 169.52 276.40 171.66 273.76 174.21 C 282.19 175.67 291.05 173.17 299.18 176.36 C 306.06 178.72 313.35 179.42 320.55 180.04 C 384.33 185.17 448.13 190.12 512.00 193.76 L 512.00 203.52 C 456.40 197.50 400.71 192.30 345.08 186.54 C 318.54 183.71 291.91 181.64 265.44 178.24 C 281.60 162.61 298.09 147.31 314.50 131.93 C 313.11 129.49 311.79 127.02 310.51 124.52 C 294.11 140.79 278.11 157.44 261.92 173.92 C 257.71 178.29 253.19 182.38 249.36 187.10 C 251.47 187.89 253.59 188.70 255.80 189.18 C 300.88 197.07 345.96 205.03 391.04 212.93 C 411.22 216.23 431.28 220.27 451.50 223.23 C 448.76 223.43 446.01 223.75 443.27 223.91 C 381.35 214.01 319.35 204.56 257.21 196.07 C 248.79 193.84 240.44 191.28 232.17 188.52 C 257.76 166.29 283.31 144.00 308.74 121.59 C 307.96 120.32 307.18 119.04 306.42 117.77 C 275.80 143.93 245.07 169.95 214.56 196.23 C 228.38 199.28 242.40 201.46 256.03 205.32 C 257.44 205.70 258.64 206.46 259.63 207.58 C 254.13 208.05 248.84 206.25 243.55 205.08 C 229.37 201.85 215.12 198.95 201.03 195.39 C 232.35 172.00 263.36 148.18 294.59 124.64 C 298.64 121.42 303.25 118.78 306.50 114.66 C 300.95 117.17 296.15 121.00 291.02 124.23 C 251.57 149.81 212.26 175.59 172.76 201.09 C 196.25 206.38 219.76 211.54 243.27 216.72 C 247.41 217.64 251.43 219.03 255.55 220.06 C 274.62 224.37 293.58 229.19 312.62 233.67 L 311.12 234.30 C 317.94 234.29 324.41 236.68 330.99 238.18 C 391.36 252.62 451.64 267.38 512.00 281.86 L 512.00 333.34 C 427.67 321.95 343.37 310.45 259.05 299.00 C 241.58 296.83 224.20 293.90 206.68 292.14 C 211.22 293.25 215.55 295.02 219.62 297.31 C 225.25 300.48 231.79 300.90 238.03 301.93 C 329.34 316.79 420.70 331.35 512.00 346.31 L 512.00 352.36 C 447.46 341.27 382.86 330.45 318.32 319.38 C 320.53 323.29 322.18 327.49 323.32 331.84 C 386.20 344.78 449.14 357.42 512.00 370.45 L 512.00 372.86 C 449.01 359.98 385.96 347.31 322.93 334.61 C 322.75 336.48 322.57 338.36 322.41 340.24 C 385.60 355.64 448.83 370.89 512.00 386.34 L 512.00 395.68 C 449.06 377.95 385.98 360.69 322.99 343.13 C 322.30 345.24 321.61 347.34 320.91 349.45 C 384.63 369.45 448.36 389.44 512.00 409.69 L 512.00 421.31 C 469.98 407.81 427.84 394.65 385.76 381.30 C 369.40 376.25 353.17 370.75 336.72 365.99 C 365.88 380.82 395.26 395.22 424.36 410.15 C 407.33 404.29 390.65 397.43 373.73 391.23 C 354.26 383.77 334.72 376.52 315.26 369.03 C 313.95 371.42 312.71 373.85 311.64 376.35 C 350.72 391.53 389.68 407.01 428.71 422.31 C 456.46 433.30 484.32 444.03 512.00 455.18 L 512.00 461.40 C 444.73 433.89 377.31 406.72 309.94 379.45 C 307.91 382.78 305.36 385.76 302.42 388.33 C 372.28 420.22 442.21 451.94 512.00 483.97 L 512.00 492.44 C 420.20 450.45 328.42 408.42 236.60 366.45 C 227.94 362.20 218.29 360.82 209.18 357.87 C 203.57 355.79 197.55 357.36 191.74 356.90 C 214.00 367.64 236.70 377.46 259.11 387.88 C 333.52 421.83 407.91 455.79 482.32 489.72 C 492.19 494.32 502.20 498.62 512.00 503.37 L 512.00 507.44 C 405.99 457.90 299.78 408.75 193.72 359.30 C 188.86 357.04 184.05 354.60 178.89 353.09 C 174.92 351.88 170.53 352.12 166.87 349.96 C 164.02 348.33 161.04 346.76 157.72 346.41 C 151.02 345.62 144.27 344.93 137.51 345.12 C 222.12 385.65 306.90 425.85 391.56 466.29 C 423.40 481.55 455.41 496.45 487.11 512.00 L 0.00 512.00 L 0.00 0.00 Z" />
<path fill="#f5e5c1" opacity="1.00" d=" M 455.77 25.10 C 459.25 24.49 462.69 23.63 466.07 22.60 C 468.44 25.91 470.54 29.40 472.93 32.70 C 469.77 35.47 467.54 40.63 462.71 40.32 C 457.23 47.29 451.95 54.42 446.55 61.45 C 443.02 64.05 439.01 65.90 435.29 68.20 C 429.05 71.49 423.22 75.63 416.44 77.77 C 409.70 80.47 402.65 82.46 396.26 85.96 C 396.26 86.67 396.27 88.08 396.27 88.79 C 391.35 91.52 386.49 94.39 381.72 97.39 C 381.09 97.36 379.84 97.30 379.21 97.27 C 366.12 105.63 352.80 113.63 339.67 121.92 C 339.70 122.56 339.75 123.85 339.78 124.49 C 337.90 125.69 336.04 126.92 334.16 128.12 C 334.31 128.84 334.61 130.26 334.76 130.97 C 333.42 131.50 332.09 132.02 330.76 132.56 C 327.72 129.82 324.57 127.04 322.68 123.34 C 319.83 117.91 316.01 112.87 314.52 106.83 C 315.88 105.14 318.05 106.31 319.86 106.15 C 322.03 105.28 323.98 103.97 326.01 102.80 C 326.41 103.28 327.20 104.24 327.60 104.72 C 340.74 96.24 354.03 87.96 367.03 79.27 C 367.52 78.14 367.83 76.80 368.99 76.14 C 373.08 73.25 377.31 70.55 381.23 67.41 C 381.87 67.70 383.15 68.27 383.79 68.56 C 391.02 61.91 398.12 55.11 405.47 48.60 C 410.54 44.97 415.95 41.82 421.13 38.35 C 424.33 36.39 427.30 33.85 431.04 33.00 C 439.26 31.13 447.49 29.27 455.78 27.70 C 455.78 27.05 455.77 25.75 455.77 25.10 Z" />
<path fill="#f4722b" opacity="1.00" d=" M 291.02 124.23 C 296.15 121.00 300.95 117.17 306.50 114.66 C 303.25 118.78 298.64 121.42 294.59 124.64 C 263.36 148.18 232.35 172.00 201.03 195.39 C 215.12 198.95 229.37 201.85 243.55 205.08 C 248.84 206.25 254.13 208.05 259.63 207.58 C 258.64 206.46 257.44 205.70 256.03 205.32 C 242.40 201.46 228.38 199.28 214.56 196.23 C 245.07 169.95 275.80 143.93 306.42 117.77 C 307.18 119.04 307.96 120.32 308.74 121.59 C 283.31 144.00 257.76 166.29 232.17 188.52 C 240.44 191.28 248.79 193.84 257.21 196.07 C 319.35 204.56 381.35 214.01 443.27 223.91 C 457.98 227.43 473.11 228.85 488.01 231.39 C 495.96 232.89 504.13 233.13 512.00 235.04 L 512.00 246.49 C 430.65 233.11 349.21 220.29 267.84 207.07 C 264.72 206.52 261.55 206.29 258.39 206.31 C 260.93 209.85 265.51 210.24 269.39 211.25 C 338.04 223.28 406.66 235.49 475.30 247.53 C 487.56 249.49 499.69 252.19 512.00 253.86 L 512.00 281.86 C 451.64 267.38 391.36 252.62 330.99 238.18 C 324.41 236.68 317.94 234.29 311.12 234.30 L 312.62 233.67 C 293.58 229.19 274.62 224.37 255.55 220.06 C 251.43 219.03 247.41 217.64 243.27 216.72 C 219.76 211.54 196.25 206.38 172.76 201.09 C 212.26 175.59 251.57 149.81 291.02 124.23 Z" />
<path fill="#f4722b" opacity="1.00" d=" M 261.92 173.92 C 278.11 157.44 294.11 140.79 310.51 124.52 C 311.79 127.02 313.11 129.49 314.50 131.93 C 298.09 147.31 281.60 162.61 265.44 178.24 C 291.91 181.64 318.54 183.71 345.08 186.54 C 400.71 192.30 456.40 197.50 512.00 203.52 L 512.00 233.90 C 491.85 230.32 471.79 226.04 451.50 223.23 C 431.28 220.27 411.22 216.23 391.04 212.93 C 345.96 205.03 300.88 197.07 255.80 189.18 C 253.59 188.70 251.47 187.89 249.36 187.10 C 253.19 182.38 257.71 178.29 261.92 173.92 Z" />
<path fill="#f4722b" opacity="1.00" d=" M 282.04 166.98 C 293.26 155.88 304.86 145.16 316.07 134.04 C 316.94 134.82 317.80 135.59 318.67 136.37 C 305.23 148.07 291.70 159.67 278.34 171.46 C 292.28 172.19 306.18 170.52 320.11 170.26 C 329.05 169.28 338.06 169.79 347.01 168.92 C 354.32 168.28 361.68 168.68 368.99 167.99 C 376.32 167.29 383.71 167.68 391.04 166.99 C 398.32 166.34 405.64 166.70 412.91 166.03 C 419.63 165.36 426.40 165.69 433.13 165.11 C 442.67 164.12 452.31 164.87 461.85 163.76 C 478.57 163.12 495.28 162.29 512.00 161.44 L 512.00 173.38 C 481.66 173.43 451.33 173.53 420.99 173.68 C 408.66 173.71 396.32 173.50 384.00 174.23 C 364.34 174.35 344.67 174.21 325.01 174.39 C 318.19 174.50 311.35 174.20 304.56 174.94 C 311.67 175.87 318.85 175.27 325.99 175.73 C 339.95 176.75 353.96 176.24 367.93 176.86 C 380.95 177.81 394.01 177.18 407.05 177.87 C 418.67 178.71 430.34 178.27 441.97 178.76 C 457.95 179.95 474.00 179.01 489.97 180.26 C 497.31 180.46 504.66 180.46 512.00 180.65 L 512.00 193.76 C 448.13 190.12 384.33 185.17 320.55 180.04 C 313.35 179.42 306.06 178.72 299.18 176.36 C 291.05 173.17 282.19 175.67 273.76 174.21 C 276.40 171.66 279.39 169.52 282.04 166.98 Z" />
<path fill="#3e3e3e" opacity="1.00" d=" M 420.99 173.68 C 451.33 173.53 481.66 173.43 512.00 173.38 L 512.00 180.65 C 504.66 180.46 497.31 180.46 489.97 180.26 C 474.00 179.01 457.95 179.95 441.97 178.76 C 430.34 178.27 418.67 178.71 407.05 177.87 C 394.01 177.18 380.95 177.81 367.93 176.86 C 353.96 176.24 339.95 176.75 325.99 175.73 C 318.85 175.27 311.67 175.87 304.56 174.94 C 311.35 174.20 318.19 174.50 325.01 174.39 C 344.67 174.21 364.34 174.35 384.00 174.23 C 396.32 173.50 408.66 173.71 420.99 173.68 Z" />
<path fill="#3e3e3e" opacity="1.00" d=" M 258.39 206.31 C 261.55 206.29 264.72 206.52 267.84 207.07 C 349.21 220.29 430.65 233.11 512.00 246.49 L 512.00 253.86 C 499.69 252.19 487.56 249.49 475.30 247.53 C 406.66 235.49 338.04 223.28 269.39 211.25 C 265.51 210.24 260.93 209.85 258.39 206.31 Z" />
<path fill="#995834" opacity="1.00" d=" M 451.50 223.23 C 471.79 226.04 491.85 230.32 512.00 233.90 L 512.00 235.04 C 504.13 233.13 495.96 232.89 488.01 231.39 C 473.11 228.85 457.98 227.43 443.27 223.91 C 446.01 223.75 448.76 223.43 451.50 223.23 Z" />
<path fill="#f5e5c1" opacity="1.00" d=" M 28.11 265.99 C 31.32 265.11 34.72 265.78 38.00 265.85 C 40.63 266.35 43.31 266.40 45.98 266.51 C 46.51 267.55 47.13 268.53 47.85 269.45 C 54.94 270.31 61.93 268.41 69.00 268.29 C 74.60 267.31 80.31 267.71 85.91 266.87 C 89.60 266.49 93.44 265.79 97.04 267.11 C 98.01 267.31 98.99 267.52 99.97 267.72 C 102.47 268.93 105.15 269.66 107.84 270.32 C 114.20 272.69 120.73 274.56 127.14 276.79 C 130.16 277.72 133.17 278.71 136.17 279.71 C 149.20 285.89 162.01 292.58 174.83 299.18 C 176.63 299.65 178.40 300.22 180.23 300.58 C 181.19 299.80 182.11 298.98 183.00 298.12 C 188.95 298.63 194.32 301.43 200.05 302.85 C 201.06 303.13 202.08 303.42 203.11 303.71 C 204.33 304.21 205.57 304.70 206.81 305.19 C 209.67 304.89 211.28 307.07 213.08 308.84 C 217.54 310.73 222.50 311.18 226.95 313.14 C 232.76 314.30 238.39 316.22 244.07 317.89 C 250.06 319.55 256.06 321.24 262.05 322.95 C 263.05 323.24 264.06 323.52 265.08 323.79 C 267.38 324.49 269.67 325.24 271.94 326.03 C 276.02 326.86 280.06 327.95 283.97 329.41 C 286.27 329.73 289.29 330.23 290.14 327.34 C 294.44 328.30 298.72 329.53 303.16 329.64 C 303.30 328.81 303.58 327.15 303.72 326.33 C 305.46 326.94 307.21 327.55 308.99 328.05 C 310.32 328.91 310.92 330.38 310.75 331.95 C 310.73 336.00 310.85 340.09 310.23 344.09 C 308.54 350.55 305.96 356.72 304.02 363.10 C 302.49 368.76 299.90 374.18 296.26 378.79 C 295.64 378.42 294.42 377.66 293.81 377.28 C 292.53 375.35 291.70 372.77 289.40 371.81 C 286.08 370.52 282.64 369.60 279.28 368.42 C 279.44 367.12 279.60 365.82 279.76 364.53 C 276.83 363.60 273.88 362.75 270.99 361.72 C 269.97 361.57 268.96 361.42 267.94 361.28 C 265.39 360.25 262.72 359.55 260.00 359.09 C 257.69 358.28 255.33 357.57 252.92 357.14 C 250.59 356.46 248.26 355.77 245.90 355.20 C 244.27 354.72 242.64 354.27 241.02 353.76 C 239.98 353.57 238.95 353.39 237.92 353.22 C 235.34 352.41 232.74 351.64 230.16 350.85 C 222.67 349.13 215.28 347.06 207.90 344.93 C 206.38 344.46 204.78 344.43 203.20 344.35 C 200.83 346.51 197.68 345.21 194.97 344.66 C 191.01 343.64 187.05 342.63 183.05 341.78 C 179.54 341.23 176.09 340.37 172.68 339.40 C 172.63 338.14 172.57 336.89 172.52 335.63 C 170.01 335.50 167.49 335.36 165.03 334.83 C 161.38 334.52 157.71 334.46 154.07 334.17 C 150.42 333.16 146.56 333.85 142.93 332.85 C 136.16 332.52 129.42 331.85 122.68 331.20 C 113.74 328.85 104.80 326.47 95.86 324.12 C 92.24 323.17 88.63 322.20 85.10 320.94 C 75.92 319.93 69.67 312.40 62.07 308.01 C 60.80 306.95 59.51 305.94 58.19 304.97 C 52.12 301.16 46.57 296.59 40.86 292.28 C 39.90 293.19 38.94 294.12 37.99 295.07 C 32.79 292.62 28.74 288.24 23.37 286.01 C 23.73 279.11 26.87 272.74 28.11 265.99 Z" />
<path fill="#995834" opacity="1.00" d=" M 206.68 292.14 C 224.20 293.90 241.58 296.83 259.05 299.00 C 343.37 310.45 427.67 321.95 512.00 333.34 L 512.00 346.31 C 420.70 331.35 329.34 316.79 238.03 301.93 C 231.79 300.90 225.25 300.48 219.62 297.31 C 215.55 295.02 211.22 293.25 206.68 292.14 Z" />
<path fill="#995834" opacity="1.00" d=" M 261.42 310.11 C 267.33 310.38 273.08 311.87 278.92 312.75 C 285.65 314.09 292.59 314.53 299.15 316.65 C 297.08 316.40 295.03 316.02 293.00 315.57 C 288.97 314.50 284.87 316.51 280.81 315.50 C 274.24 314.13 267.99 311.54 261.42 310.11 Z" />
<path fill="#995834" opacity="1.00" d=" M 318.32 319.38 C 382.86 330.45 447.46 341.27 512.00 352.36 L 512.00 370.45 C 449.14 357.42 386.20 344.78 323.32 331.84 C 322.18 327.49 320.53 323.29 318.32 319.38 Z" />
<path fill="#f4722b" opacity="1.00" d=" M 322.93 334.61 C 385.96 347.31 449.01 359.98 512.00 372.86 L 512.00 386.34 C 448.83 370.89 385.60 355.64 322.41 340.24 C 322.57 338.36 322.75 336.48 322.93 334.61 Z" />
<path fill="#f4722b" opacity="1.00" d=" M 322.99 343.13 C 385.98 360.69 449.06 377.95 512.00 395.68 L 512.00 409.69 C 448.36 389.44 384.63 369.45 320.91 349.45 C 321.61 347.34 322.30 345.24 322.99 343.13 Z" />
<path fill="#995834" opacity="1.00" d=" M 137.51 345.12 C 144.27 344.93 151.02 345.62 157.72 346.41 C 161.04 346.76 164.02 348.33 166.87 349.96 C 170.53 352.12 174.92 351.88 178.89 353.09 C 184.05 354.60 188.86 357.04 193.72 359.30 C 299.78 408.75 405.99 457.90 512.00 507.44 L 512.00 512.00 L 487.11 512.00 C 455.41 496.45 423.40 481.55 391.56 466.29 C 306.90 425.85 222.12 385.65 137.51 345.12 Z" />
<path fill="#995834" opacity="1.00" d=" M 191.74 356.90 C 197.55 357.36 203.57 355.79 209.18 357.87 C 218.29 360.82 227.94 362.20 236.60 366.45 C 328.42 408.42 420.20 450.45 512.00 492.44 L 512.00 503.37 C 502.20 498.62 492.19 494.32 482.32 489.72 C 407.91 455.79 333.52 421.83 259.11 387.88 C 236.70 377.46 214.00 367.64 191.74 356.90 Z" />
<path fill="#f4722b" opacity="1.00" d=" M 317.21 359.58 C 317.75 358.76 318.29 357.94 318.84 357.13 C 323.98 359.67 329.15 362.17 334.25 364.81 C 328.47 363.40 322.87 361.38 317.21 359.58 Z" />
<path fill="#f4722b" opacity="1.00" d=" M 336.72 365.99 C 353.17 370.75 369.40 376.25 385.76 381.30 C 427.84 394.65 469.98 407.81 512.00 421.31 L 512.00 443.69 C 484.34 433.13 456.72 422.46 428.91 412.30 C 456.59 426.28 484.41 439.97 512.00 454.11 L 512.00 455.18 C 484.32 444.03 456.46 433.30 428.71 422.31 C 389.68 407.01 350.72 391.53 311.64 376.35 C 312.71 373.85 313.95 371.42 315.26 369.03 C 334.72 376.52 354.26 383.77 373.73 391.23 C 390.65 397.43 407.33 404.29 424.36 410.15 C 395.26 395.22 365.88 380.82 336.72 365.99 Z" />
<path fill="#f4722b" opacity="1.00" d=" M 302.42 388.33 C 305.36 385.76 307.91 382.78 309.94 379.45 C 377.31 406.72 444.73 433.89 512.00 461.40 L 512.00 483.97 C 442.21 451.94 372.28 420.22 302.42 388.33 Z" />
<path fill="#3e3e3e" opacity="1.00" d=" M 428.91 412.30 C 456.72 422.46 484.34 433.13 512.00 443.69 L 512.00 454.11 C 484.41 439.97 456.59 426.28 428.91 412.30 Z" />
</svg>
