<?xml version="1.0" encoding="UTF-8" ?>
<!DOCTYPE svg PUBLIC "-//W3C//DTD SVG 1.1//EN" "http://www.w3.org/Graphics/SVG/1.1/DTD/svg11.dtd">
<svg width="512pt" height="512pt" viewBox="0 0 512 512" version="1.1" xmlns="http://www.w3.org/2000/svg">
<path fill="#3e3e3e" opacity="1.00" d=" M 0.00 0.00 L 481.19 0.00 C 439.16 46.26 396.94 92.34 354.93 138.62 C 359.49 139.68 363.74 141.75 367.24 144.88 C 413.34 96.69 459.28 48.32 505.24 0.00 L 512.00 0.00 L 512.00 16.38 C 485.56 41.14 459.43 66.22 433.01 91.00 C 412.87 110.35 392.34 129.29 372.25 148.69 C 373.24 149.51 374.22 150.34 375.21 151.17 C 389.10 138.40 402.24 124.85 415.96 111.90 C 447.96 80.80 479.90 49.63 512.00 18.64 L 512.00 20.74 C 475.25 56.74 438.93 93.18 402.28 129.28 C 394.25 137.60 385.53 145.25 377.80 153.85 C 378.81 155.32 379.81 156.80 380.82 158.28 C 403.25 140.24 425.56 122.03 447.90 103.87 C 454.69 98.66 460.88 92.68 467.95 87.84 C 445.61 110.85 422.50 133.14 399.89 155.91 C 395.88 160.02 391.40 163.71 387.89 168.28 C 390.84 166.93 393.37 164.88 395.84 162.81 C 434.57 132.71 473.24 102.53 512.00 72.46 L 512.00 87.61 C 474.14 114.23 436.42 141.03 398.58 167.67 C 396.29 169.38 393.54 170.69 391.87 173.09 C 392.71 176.56 395.24 179.28 396.38 182.62 C 397.05 185.07 397.05 187.64 397.27 190.16 C 435.51 166.69 473.82 143.32 512.00 119.75 L 512.00 512.00 L 0.00 512.00 L 0.00 0.00 Z" />
<path fill="#985834" opacity="1.00" d=" M 481.19 0.00 L 505.24 0.00 C 459.28 48.32 413.34 96.69 367.24 144.88 C 363.74 141.75 359.49 139.68 354.93 138.62 C 396.94 92.34 439.16 46.26 481.19 0.00 Z" />
<path fill="#985834" opacity="1.00" d=" M 433.01 91.00 C 459.43 66.22 485.56 41.14 512.00 16.38 L 512.00 18.64 C 479.90 49.63 447.96 80.80 415.96 111.90 C 402.24 124.85 389.10 138.40 375.21 151.17 C 374.22 150.34 373.24 149.51 372.25 148.69 C 392.34 129.29 412.87 110.35 433.01 91.00 Z" />
<path fill="#985834" opacity="1.00" d=" M 402.28 129.28 C 438.93 93.18 475.25 56.74 512.00 20.74 L 512.00 44.49 C 499.71 56.70 487.25 68.75 475.09 81.10 C 477.81 79.57 480.36 77.78 482.70 75.72 C 492.24 67.44 502.33 59.83 512.00 51.71 L 512.00 72.46 C 473.24 102.53 434.57 132.71 395.84 162.81 C 393.37 164.88 390.84 166.93 387.89 168.28 C 391.40 163.71 395.88 160.02 399.89 155.91 C 422.50 133.14 445.61 110.85 467.95 87.84 C 460.88 92.68 454.69 98.66 447.90 103.87 C 425.56 122.03 403.25 140.24 380.82 158.28 C 379.81 156.80 378.81 155.32 377.80 153.85 C 385.53 145.25 394.25 137.60 402.28 129.28 Z" />
<path fill="#c7bba1" opacity="1.00" d=" M 386.82 51.62 C 389.92 49.62 393.00 47.60 395.97 45.41 C 373.26 85.81 350.22 126.03 327.47 166.41 C 325.01 170.75 321.18 174.14 317.32 177.21 C 311.11 180.83 307.01 187.03 301.02 190.96 C 296.75 193.62 293.89 197.97 289.61 200.61 C 287.76 201.73 286.13 203.14 284.64 204.69 C 282.74 206.86 279.39 206.38 277.26 208.21 C 274.53 210.54 271.62 212.66 268.95 215.08 C 266.83 216.97 264.04 217.97 262.10 220.09 C 258.50 223.95 253.19 226.84 252.32 232.55 C 248.95 234.66 245.72 237.11 241.95 238.51 C 238.32 239.65 235.39 242.17 232.27 244.25 C 215.95 232.50 196.84 224.92 177.07 221.50 C 161.84 219.26 146.26 219.32 131.06 221.77 C 131.62 221.65 132.75 221.42 133.32 221.30 C 144.05 167.93 154.27 114.45 165.02 61.08 C 172.18 76.26 179.65 91.29 187.03 106.36 C 192.68 90.61 198.31 74.85 203.96 59.10 C 204.90 56.69 205.41 54.05 207.02 51.96 C 213.31 86.69 220.42 121.26 226.71 155.97 C 227.48 155.68 228.24 155.34 228.97 154.96 C 281.57 120.49 334.21 86.08 386.82 51.62 Z" />
<path fill="#3e3e3e" opacity="1.00" d=" M 475.09 81.10 C 487.25 68.75 499.71 56.70 512.00 44.49 L 512.00 51.71 C 502.33 59.83 492.24 67.44 482.70 75.72 C 480.36 77.78 477.81 79.57 475.09 81.10 Z" />
<path fill="#985834" opacity="1.00" d=" M 398.58 167.67 C 436.42 141.03 474.14 114.23 512.00 87.61 L 512.00 119.75 C 473.82 143.32 435.51 166.69 397.27 190.16 C 397.05 187.64 397.05 185.07 396.38 182.62 C 395.24 179.28 392.71 176.56 391.87 173.09 C 393.54 170.69 396.29 169.38 398.58 167.67 Z" />
<path fill="#f5e5c1" opacity="1.00" d=" M 349.53 153.85 C 351.35 152.70 353.19 151.57 354.96 150.32 C 359.15 152.88 363.29 155.67 367.00 158.90 C 372.05 165.57 377.31 172.10 382.02 179.02 C 383.27 182.18 386.55 185.01 385.49 188.64 C 383.22 188.85 380.95 188.76 378.69 188.52 C 375.36 190.88 372.07 193.30 368.87 195.83 C 368.44 195.14 367.57 193.77 367.14 193.08 C 365.38 193.92 363.95 195.25 362.55 196.57 C 345.21 211.61 327.88 226.68 310.55 241.73 C 310.32 243.28 310.82 245.19 309.44 246.32 C 303.63 251.90 297.64 257.28 291.96 262.99 C 290.55 264.65 288.50 262.70 286.94 262.36 C 280.17 271.99 272.34 280.86 265.16 290.20 C 262.00 293.99 259.32 298.22 255.52 301.44 C 245.48 310.07 235.86 319.21 225.71 327.70 C 211.93 332.96 198.10 338.20 184.30 343.43 C 184.38 344.71 184.93 345.88 185.37 347.08 C 180.01 348.89 174.93 351.49 169.47 353.00 C 165.24 348.40 161.50 343.37 157.17 338.88 C 160.07 334.44 163.34 330.26 165.95 325.64 C 167.64 325.54 169.34 325.47 171.05 325.39 C 176.41 314.49 182.90 304.15 188.56 293.39 C 189.71 291.03 190.83 288.52 192.96 286.88 C 201.56 279.81 210.23 272.84 218.94 265.91 C 221.51 263.76 224.01 261.49 226.97 259.89 C 237.21 254.13 247.50 248.45 257.72 242.67 C 259.89 241.29 262.32 240.01 263.79 237.83 C 263.69 236.41 263.43 235.02 263.25 233.62 C 270.10 228.77 276.43 223.21 283.03 218.03 C 284.13 216.84 285.80 217.20 287.23 217.32 C 306.07 201.18 325.04 185.20 343.92 169.11 C 343.54 168.29 342.78 166.64 342.40 165.82 C 345.20 163.20 347.81 160.38 350.85 158.02 C 350.45 156.62 350.00 155.23 349.53 153.85 Z" />
<path fill="#c7bba1" opacity="1.00" d=" M 359.20 216.23 C 396.48 207.38 433.69 198.19 470.98 189.46 C 468.13 191.83 464.82 193.59 462.12 196.14 C 422.49 234.67 382.75 273.09 343.10 311.60 C 360.44 313.60 377.82 315.24 395.18 317.13 C 387.80 324.47 379.53 330.87 372.04 338.09 C 386.08 341.16 399.94 345.05 413.90 348.49 C 438.09 354.57 462.23 360.85 486.45 366.84 C 487.66 367.20 488.86 367.68 490.05 368.16 C 421.18 375.24 352.36 382.78 283.49 389.72 C 286.45 379.08 288.12 368.05 288.02 356.99 C 288.06 345.62 288.07 334.06 285.08 323.01 C 282.64 313.57 279.82 304.15 275.44 295.42 C 278.69 291.60 281.95 287.75 284.66 283.52 C 286.80 280.23 290.24 278.06 292.29 274.70 C 298.51 273.39 302.53 268.04 306.97 263.96 C 311.09 259.42 316.55 256.24 320.17 251.24 C 321.47 249.41 321.03 246.44 323.29 245.36 C 328.32 242.55 331.52 237.55 336.15 234.25 C 344.52 229.14 349.82 219.78 359.20 216.23 Z" />
<path fill="#f5722b" opacity="1.00" d=" M 131.06 221.77 C 146.26 219.32 161.84 219.26 177.07 221.50 C 196.84 224.92 215.95 232.50 232.27 244.25 C 226.00 246.97 220.32 250.80 214.78 254.74 C 213.64 255.90 212.22 254.48 211.08 254.08 C 195.16 244.90 177.08 239.48 158.72 238.62 C 158.69 246.26 158.90 253.91 158.61 261.55 C 163.08 262.50 168.58 260.32 172.19 263.92 C 173.55 266.33 172.87 270.10 169.86 270.90 C 166.24 271.75 162.40 271.04 158.69 271.39 C 158.79 281.05 158.75 290.71 158.71 300.36 C 162.61 300.87 166.52 301.49 170.25 302.79 C 169.08 305.05 167.94 307.33 166.83 309.62 C 164.14 309.04 161.44 308.31 158.66 308.53 C 158.75 311.36 158.80 314.20 158.79 317.04 C 155.41 321.45 152.08 325.99 149.55 330.95 C 149.58 328.74 149.60 326.53 149.62 324.32 C 141.30 326.01 133.82 331.23 129.53 338.56 C 127.59 341.90 126.64 345.69 125.67 349.40 C 133.23 349.30 140.79 349.32 148.35 349.38 C 149.06 348.97 149.76 348.56 150.47 348.15 C 153.31 351.39 156.56 354.29 158.86 357.97 C 158.59 365.78 158.86 373.59 158.68 381.40 C 170.34 380.40 179.74 370.84 182.92 359.92 C 187.71 358.29 193.00 356.43 195.49 351.63 C 199.58 350.24 203.26 347.91 207.31 346.43 C 207.39 347.16 207.56 348.63 207.65 349.36 C 214.18 349.29 220.71 349.38 227.25 349.34 C 227.22 346.01 227.21 342.67 227.27 339.35 C 229.57 338.14 231.83 336.85 234.07 335.54 C 237.93 339.14 235.83 344.79 236.46 349.42 C 246.75 349.26 257.05 349.35 267.34 349.38 C 267.04 336.88 264.60 324.42 260.24 312.69 C 263.21 309.50 266.47 306.59 269.42 303.37 C 271.68 300.91 273.04 297.77 275.44 295.42 C 279.82 304.15 282.64 313.57 285.08 323.01 C 288.07 334.06 288.06 345.62 288.02 356.99 C 288.12 368.05 286.45 379.08 283.49 389.72 C 277.70 409.82 267.36 428.68 253.02 443.94 C 248.34 448.29 244.30 453.35 239.03 457.03 C 229.87 464.63 219.41 470.52 208.72 475.66 C 196.57 480.29 184.08 484.49 171.06 485.64 C 160.39 486.21 149.68 486.15 139.01 485.67 C 96.62 480.99 57.28 454.32 37.51 416.49 C 31.17 405.91 27.67 393.91 24.61 382.04 C 21.66 368.90 21.73 355.34 22.14 341.94 C 22.65 330.70 25.41 319.71 28.97 309.09 C 38.26 281.82 56.94 257.99 80.87 242.00 C 85.82 238.81 91.00 236.03 96.11 233.13 C 107.25 227.94 119.03 224.22 131.06 221.77 Z" />
<path fill="#3e3e3e" opacity="1.00" d=" M 66.69 278.66 C 87.02 254.39 117.90 239.64 149.50 238.55 C 149.70 246.29 149.49 254.04 149.62 261.79 C 145.67 262.20 141.31 260.83 137.66 262.77 C 134.16 264.43 135.17 270.36 138.94 270.99 C 142.44 271.65 146.05 271.14 149.60 271.29 C 149.60 281.03 149.51 290.77 149.64 300.52 C 145.59 301.37 141.46 301.94 137.54 303.30 C 124.84 307.67 113.99 317.12 107.93 329.11 C 104.65 335.39 103.06 342.40 102.30 349.40 C 95.06 349.29 87.82 349.38 80.58 349.33 C 80.48 345.69 80.91 342.00 80.33 338.39 C 79.36 334.26 72.57 334.27 71.67 338.44 C 71.05 342.02 71.53 345.70 71.46 349.32 C 60.87 349.38 50.27 349.31 39.68 349.36 C 40.24 323.65 49.93 298.19 66.69 278.66 Z" />
<path fill="#3e3e3e" opacity="1.00" d=" M 109.58 349.36 C 111.02 328.46 128.70 310.16 149.60 308.25 C 149.58 311.94 149.57 315.64 149.59 319.34 C 138.67 320.85 128.89 328.20 124.14 338.10 C 122.27 341.65 121.63 345.63 120.62 349.47 C 116.94 349.31 113.26 349.34 109.58 349.36 Z" />
<path fill="#3e3e3e" opacity="1.00" d=" M 39.71 358.55 C 50.30 358.53 60.89 358.52 71.48 358.54 C 71.47 362.55 71.15 366.57 71.58 370.57 C 71.80 372.89 74.14 373.75 75.99 374.49 C 77.81 373.76 80.13 372.94 80.42 370.67 C 80.84 366.64 80.52 362.58 80.56 358.55 C 87.84 358.48 95.12 358.61 102.40 358.49 C 104.01 372.29 110.71 385.68 121.80 394.25 C 129.59 400.84 139.51 404.47 149.56 405.72 C 149.63 416.02 149.52 426.33 149.61 436.64 C 145.83 436.88 141.85 435.95 138.20 437.18 C 135.65 438.02 135.48 440.93 135.56 443.19 C 138.82 447.52 144.82 445.29 149.40 445.67 C 149.73 452.58 149.65 459.50 149.43 466.41 C 125.06 465.19 100.92 456.61 82.00 441.08 C 56.98 421.25 41.42 390.37 39.71 358.55 Z" />
<path fill="#3e3e3e" opacity="1.00" d=" M 110.01 358.68 C 113.71 358.46 117.42 358.51 121.12 358.56 C 123.11 372.90 135.13 385.07 149.51 386.99 C 149.62 390.51 149.61 394.04 149.58 397.57 C 129.59 395.56 112.07 378.80 110.01 358.68 Z" />
<path fill="#3e3e3e" opacity="1.00" d=" M 126.21 358.53 C 133.99 358.51 141.77 358.55 149.55 358.54 C 149.58 366.25 149.65 373.96 149.51 381.67 C 138.09 379.30 128.36 370.11 126.21 358.53 Z" />
<path fill="#3e3e3e" opacity="1.00" d=" M 188.90 358.57 C 192.24 358.53 195.59 358.53 198.93 358.56 C 196.65 378.84 179.04 395.89 158.72 397.62 C 158.77 394.30 158.78 390.99 158.69 387.68 C 162.71 386.42 166.96 385.78 170.71 383.77 C 180.37 378.95 187.26 369.21 188.90 358.57 Z" />
<path fill="#3e3e3e" opacity="1.00" d=" M 207.66 358.51 C 214.19 358.58 220.73 358.43 227.26 358.63 C 227.33 363.10 226.92 367.61 227.48 372.07 C 228.71 375.86 234.96 375.75 236.01 371.89 C 236.89 367.54 236.12 362.96 236.42 358.52 C 246.74 358.59 257.06 358.46 267.38 358.59 C 265.68 382.49 257.08 406.16 241.55 424.56 C 223.71 446.75 197.08 461.46 168.92 465.28 C 165.81 465.62 162.69 465.87 159.61 466.42 C 158.26 464.55 158.81 462.15 158.72 460.01 C 158.85 455.61 158.60 451.20 158.76 446.80 C 161.55 444.07 166.55 447.33 169.67 444.78 C 171.54 443.76 171.35 441.50 171.57 439.70 C 168.76 435.16 163.09 436.99 158.67 436.48 C 158.83 427.32 158.72 418.15 158.71 408.99 C 158.72 407.83 158.92 406.71 159.32 405.63 C 174.82 404.74 189.64 396.20 198.35 383.38 C 203.66 376.12 206.31 367.31 207.66 358.51 Z" />
</svg>
