<?xml version="1.0" encoding="UTF-8" ?>
<!DOCTYPE svg PUBLIC "-//W3C//DTD SVG 1.1//EN" "http://www.w3.org/Graphics/SVG/1.1/DTD/svg11.dtd">
<svg width="512pt" height="512pt" viewBox="0 0 512 512" version="1.1" xmlns="http://www.w3.org/2000/svg">
<path fill="#3e3e3e" opacity="1.00" d=" M 0.00 0.00 L 155.97 0.00 C 157.09 9.16 157.55 19.77 164.50 26.65 C 176.54 36.06 188.08 46.43 196.90 59.00 C 203.23 68.35 208.33 79.32 207.48 90.88 C 206.87 102.51 199.62 112.70 190.78 119.78 C 185.59 123.87 178.23 126.06 171.93 123.30 C 164.47 119.76 159.97 112.19 157.27 104.68 C 152.04 89.67 152.29 72.77 158.03 57.93 C 146.29 69.67 135.47 84.07 133.75 101.09 C 132.32 114.54 137.95 127.64 145.72 138.32 C 153.61 149.25 163.30 158.68 171.86 169.06 C 180.05 179.37 186.04 191.74 187.60 204.91 C 189.13 216.86 185.76 229.56 177.73 238.67 C 172.89 244.44 166.46 248.51 159.86 251.97 C 168.04 249.46 176.33 247.19 184.85 246.23 C 198.79 245.45 213.44 246.64 225.97 253.31 C 234.27 257.50 240.77 264.50 245.40 272.48 C 247.67 276.64 249.01 281.21 250.89 285.55 C 254.75 279.61 258.39 273.46 263.42 268.40 C 278.49 252.15 301.71 243.06 323.77 246.89 C 341.67 249.55 357.91 259.89 368.79 274.21 C 378.98 287.16 383.99 303.55 385.25 319.81 C 385.80 336.92 381.25 354.31 371.66 368.56 C 361.89 383.14 346.85 394.49 329.61 398.45 C 305.87 404.78 279.40 395.98 263.01 377.95 C 260.90 375.51 258.09 373.62 256.73 370.61 C 253.32 364.78 249.42 359.15 247.36 352.65 C 245.07 347.11 244.55 341.03 242.22 335.53 C 237.01 343.45 231.12 350.90 224.69 357.86 C 224.47 358.07 224.03 358.50 223.81 358.71 C 228.80 358.89 234.31 357.48 238.85 360.17 C 241.94 361.88 243.02 365.66 242.99 368.98 C 243.11 376.95 243.57 384.96 243.09 392.92 C 242.56 397.75 237.32 399.82 233.03 399.76 C 207.00 399.75 180.97 399.75 154.95 399.76 C 150.73 399.89 145.80 397.57 145.11 393.01 C 144.28 386.39 144.97 379.67 144.72 373.01 C 144.70 369.07 144.84 363.90 148.94 361.93 C 152.93 360.58 157.20 360.10 161.07 358.33 C 171.12 354.03 179.92 347.20 187.97 339.89 C 193.67 334.09 199.18 327.56 201.47 319.60 C 203.19 313.48 200.49 306.26 194.66 303.48 C 185.53 301.85 176.81 306.44 169.67 311.64 C 165.98 314.44 162.35 319.38 157.08 317.84 C 152.44 317.00 150.53 312.36 148.03 308.97 C 145.07 304.90 142.46 300.58 139.44 296.56 C 136.01 291.97 132.80 287.22 129.49 282.55 C 126.85 279.01 127.43 273.61 130.49 270.50 C 132.48 268.29 134.69 266.27 137.09 264.50 C 142.79 260.55 148.71 256.85 155.12 254.13 C 150.19 255.52 144.46 257.11 139.74 254.24 C 135.01 251.22 133.69 245.22 133.62 239.97 C 133.62 233.94 134.50 227.68 137.36 222.30 C 144.98 210.40 148.88 196.04 147.94 181.92 C 147.58 175.07 145.22 168.37 141.21 162.80 C 134.54 153.20 122.17 150.11 115.04 140.92 C 109.10 134.52 106.96 124.77 110.91 116.78 C 105.21 118.50 100.22 122.90 98.73 128.79 C 96.15 138.40 99.64 148.13 102.99 157.07 C 105.42 164.38 107.61 172.78 104.05 180.11 C 101.11 185.96 94.27 188.36 88.10 188.72 C 82.16 189.76 76.47 186.56 72.38 182.52 C 66.88 176.97 64.99 168.57 66.29 161.01 C 68.07 149.23 74.19 138.67 80.85 129.00 C 84.15 123.98 88.47 119.68 91.19 114.29 C 99.20 99.36 104.06 81.94 100.79 65.00 C 97.51 46.32 85.28 30.62 71.35 18.37 C 76.47 28.51 81.94 39.28 81.08 50.99 C 80.02 64.25 71.63 75.10 65.11 86.16 C 53.06 105.45 44.37 126.91 40.50 149.35 C 37.92 164.52 37.99 180.66 44.03 195.04 C 49.18 208.27 58.39 219.51 62.93 233.00 C 67.27 245.78 66.78 259.88 62.81 272.68 C 59.46 283.04 52.67 293.03 42.36 297.40 C 33.62 301.31 23.12 299.96 15.17 294.82 C 8.91 290.75 3.82 285.03 0.00 278.64 L 0.00 244.21 C 7.00 233.68 16.00 224.18 20.10 211.97 C 23.49 203.47 22.45 193.88 19.47 185.42 C 15.21 173.34 8.05 162.47 0.00 152.60 L 0.00 0.00 Z" />
<path fill="#f5722c" opacity="1.00" d=" M 155.97 0.00 L 166.03 0.00 C 167.04 7.39 166.84 16.58 173.74 21.26 C 189.66 33.64 204.49 48.49 212.86 67.10 C 216.41 76.22 219.08 86.32 216.84 96.10 C 214.80 108.53 207.20 119.56 197.44 127.29 C 190.08 133.12 179.88 136.48 170.69 133.39 C 161.36 130.73 154.64 122.83 150.52 114.38 C 147.57 108.80 146.55 102.52 144.58 96.58 C 142.97 104.41 143.21 112.92 146.85 120.18 C 154.63 138.18 170.82 150.31 182.03 165.93 C 190.97 177.81 196.53 192.17 197.86 206.97 C 198.59 215.42 196.67 223.87 193.74 231.75 C 191.80 237.15 187.97 241.51 184.85 246.23 C 176.33 247.19 168.04 249.46 159.86 251.97 C 166.46 248.51 172.89 244.44 177.73 238.67 C 185.76 229.56 189.13 216.86 187.60 204.91 C 186.04 191.74 180.05 179.37 171.86 169.06 C 163.30 158.68 153.61 149.25 145.72 138.32 C 137.95 127.64 132.32 114.54 133.75 101.09 C 135.47 84.07 146.29 69.67 158.03 57.93 C 152.29 72.77 152.04 89.67 157.27 104.68 C 159.97 112.19 164.47 119.76 171.93 123.30 C 178.23 126.06 185.59 123.87 190.78 119.78 C 199.62 112.70 206.87 102.51 207.48 90.88 C 208.33 79.32 203.23 68.35 196.90 59.00 C 188.08 46.43 176.54 36.06 164.50 26.65 C 157.55 19.77 157.09 9.16 155.97 0.00 Z" />
<path fill="#975734" opacity="1.00" d=" M 166.03 0.00 L 173.79 0.00 C 174.19 6.27 178.90 10.81 183.27 14.77 C 193.20 23.40 205.22 29.31 217.71 33.25 C 225.98 35.80 233.80 39.94 240.21 45.79 C 258.10 61.21 270.09 82.21 279.11 103.76 C 285.66 120.57 291.12 138.86 287.82 157.04 C 286.17 166.65 288.83 177.28 295.81 184.29 C 308.60 196.19 330.52 196.15 343.39 184.40 C 349.02 179.13 350.07 171.19 351.36 164.00 C 352.93 155.23 350.79 146.12 346.63 138.35 C 340.61 127.03 331.50 117.70 325.43 106.40 C 320.50 97.40 316.14 87.53 316.67 77.03 C 316.38 72.33 318.26 67.96 320.46 63.93 C 321.01 71.56 323.32 79.49 329.02 84.91 C 336.09 91.55 347.01 93.27 356.06 90.13 C 370.03 86.64 382.75 77.02 388.39 63.57 C 390.64 57.27 392.15 50.57 391.59 43.85 C 391.36 39.15 389.48 34.74 389.04 30.07 C 393.66 34.39 398.64 38.61 401.72 44.24 C 404.96 50.02 407.70 56.24 408.45 62.89 C 411.25 82.40 406.51 102.08 399.13 120.08 C 388.95 144.39 379.75 169.24 374.18 195.06 C 369.88 213.93 366.81 233.98 372.15 252.97 C 375.11 265.93 385.02 277.68 398.33 280.55 C 409.81 283.88 421.89 281.34 433.07 278.08 C 443.38 274.94 452.84 266.98 455.17 256.11 C 457.71 247.39 455.13 238.29 451.96 230.12 C 448.27 221.41 442.95 213.49 437.15 206.06 C 444.37 209.23 452.44 210.92 460.29 209.38 C 471.53 207.25 483.02 204.24 492.44 197.46 C 499.86 192.21 506.33 185.07 509.27 176.33 C 510.20 173.19 510.91 169.98 512.00 166.88 L 512.00 260.97 C 506.13 259.52 500.24 258.12 494.27 257.20 C 493.81 270.70 487.96 283.38 480.44 294.37 C 470.00 309.09 454.76 321.00 436.91 324.98 C 419.70 329.47 401.56 326.06 385.25 319.81 C 383.99 303.55 378.98 287.16 368.79 274.21 C 357.91 259.89 341.67 249.55 323.77 246.89 C 323.06 236.82 325.37 226.53 330.95 218.06 C 325.32 218.79 319.60 220.03 313.95 218.80 C 297.24 215.39 282.67 205.08 271.78 192.23 C 266.34 185.55 261.66 178.06 259.39 169.68 C 257.84 164.83 258.57 159.69 258.22 154.69 C 254.87 157.50 252.33 161.25 248.40 163.32 C 240.02 168.51 229.73 169.08 220.16 168.15 C 230.34 180.97 237.49 196.50 238.65 212.95 C 239.17 222.51 237.95 232.25 234.28 241.13 C 232.54 245.33 231.06 249.77 228.08 253.29 C 227.55 253.30 226.49 253.31 225.97 253.31 C 213.44 246.64 198.79 245.45 184.85 246.23 C 187.97 241.51 191.80 237.15 193.74 231.75 C 196.67 223.87 198.59 215.42 197.86 206.97 C 196.53 192.17 190.97 177.81 182.03 165.93 C 170.82 150.31 154.63 138.18 146.85 120.18 C 143.21 112.92 142.97 104.41 144.58 96.58 C 146.55 102.52 147.57 108.80 150.52 114.38 C 154.64 122.83 161.36 130.73 170.69 133.39 C 179.88 136.48 190.08 133.12 197.44 127.29 C 207.20 119.56 214.80 108.53 216.84 96.10 C 219.08 86.32 216.41 76.22 212.86 67.10 C 204.49 48.49 189.66 33.64 173.74 21.26 C 166.84 16.58 167.04 7.39 166.03 0.00 Z" />
<path fill="#f5722c" opacity="1.00" d=" M 173.79 0.00 L 183.40 0.00 C 190.86 10.19 202.19 16.60 213.71 21.22 C 220.18 23.87 227.09 25.47 233.26 28.82 C 241.37 32.92 248.17 39.08 254.56 45.45 C 269.29 61.03 280.16 79.92 288.24 99.70 C 294.71 116.31 300.00 134.05 298.67 152.06 C 297.38 159.66 296.01 168.42 301.07 175.01 C 309.02 185.06 325.26 185.70 335.15 178.22 C 340.25 174.52 340.61 167.70 341.51 162.02 C 342.65 155.28 340.83 148.39 337.48 142.54 C 331.22 131.38 322.25 121.99 316.30 110.64 C 310.28 99.51 305.54 86.95 306.73 74.10 C 307.47 65.40 311.81 57.08 318.62 51.59 C 326.06 45.10 335.55 41.49 345.04 39.21 C 339.71 42.35 334.96 46.78 332.76 52.69 C 329.73 60.18 329.50 69.64 334.70 76.24 C 338.42 81.16 345.31 82.54 351.08 81.20 C 361.16 78.93 370.83 73.33 376.59 64.57 C 382.05 56.20 382.79 45.41 380.02 35.96 C 377.32 26.44 371.49 18.15 364.86 10.94 C 380.28 11.32 394.72 19.88 404.69 31.32 C 416.08 44.19 420.22 62.07 419.21 78.92 C 418.32 97.40 412.28 115.15 405.04 132.02 C 397.93 149.44 391.54 167.19 386.65 185.37 C 382.07 203.14 378.23 221.49 379.81 239.94 C 380.60 249.00 383.22 258.56 389.97 265.05 C 396.03 270.88 404.89 272.66 413.05 271.98 C 421.16 271.17 429.47 269.72 436.60 265.55 C 442.99 261.86 446.90 254.37 446.15 247.00 C 445.20 236.38 439.62 226.88 433.76 218.24 C 429.29 211.42 422.85 205.88 419.88 198.14 C 416.84 190.82 417.66 182.29 421.28 175.33 C 425.76 166.58 433.24 159.61 441.63 154.64 C 444.20 153.09 447.01 151.87 450.06 151.78 C 441.65 159.51 436.02 170.46 435.40 181.93 C 435.02 187.79 437.21 194.38 442.61 197.34 C 448.53 200.50 455.61 200.32 462.01 198.94 C 473.30 196.63 484.80 192.47 492.90 183.92 C 500.36 176.50 503.44 165.16 501.16 154.93 C 498.50 141.82 489.74 130.78 479.51 122.55 C 470.27 115.18 460.72 107.11 456.22 95.86 C 452.88 87.21 455.07 77.47 459.84 69.82 C 463.64 63.24 468.70 57.52 473.85 51.98 C 474.12 58.09 471.28 63.90 471.92 70.04 C 472.29 76.18 476.09 81.59 480.98 85.10 C 490.10 91.77 501.21 94.85 512.00 97.61 L 512.00 107.72 C 499.72 104.84 487.18 101.51 476.64 94.31 C 471.82 91.39 468.33 86.95 465.02 82.50 C 464.40 86.75 464.56 91.30 466.89 95.05 C 474.58 108.79 489.98 115.42 499.03 128.02 C 503.86 134.30 508.01 141.29 509.88 149.06 C 510.48 151.59 511.22 154.09 512.00 156.58 L 512.00 166.88 C 510.91 169.98 510.20 173.19 509.27 176.33 C 506.33 185.07 499.86 192.21 492.44 197.46 C 483.02 204.24 471.53 207.25 460.29 209.38 C 452.44 210.92 444.37 209.23 437.15 206.06 C 442.95 213.49 448.27 221.41 451.96 230.12 C 455.13 238.29 457.71 247.39 455.17 256.11 C 452.84 266.98 443.38 274.94 433.07 278.08 C 421.89 281.34 409.81 283.88 398.33 280.55 C 385.02 277.68 375.11 265.93 372.15 252.97 C 366.81 233.98 369.88 213.93 374.18 195.06 C 379.75 169.24 388.95 144.39 399.13 120.08 C 406.51 102.08 411.25 82.40 408.45 62.89 C 407.70 56.24 404.96 50.02 401.72 44.24 C 398.64 38.61 393.66 34.39 389.04 30.07 C 389.48 34.74 391.36 39.15 391.59 43.85 C 392.15 50.57 390.64 57.27 388.39 63.57 C 382.75 77.02 370.03 86.64 356.06 90.13 C 347.01 93.27 336.09 91.55 329.02 84.91 C 323.32 79.49 321.01 71.56 320.46 63.93 C 318.26 67.96 316.38 72.33 316.67 77.03 C 316.14 87.53 320.50 97.40 325.43 106.40 C 331.50 117.70 340.61 127.03 346.63 138.35 C 350.79 146.12 352.93 155.23 351.36 164.00 C 350.07 171.19 349.02 179.13 343.39 184.40 C 330.52 196.15 308.60 196.19 295.81 184.29 C 288.83 177.28 286.17 166.65 287.82 157.04 C 291.12 138.86 285.66 120.57 279.11 103.76 C 270.09 82.21 258.10 61.21 240.21 45.79 C 233.80 39.94 225.98 35.80 217.71 33.25 C 205.22 29.31 193.20 23.40 183.27 14.77 C 178.90 10.81 174.19 6.27 173.79 0.00 Z" />
<path fill="#3e3e3e" opacity="1.00" d=" M 183.40 0.00 L 512.00 0.00 L 512.00 97.61 C 501.21 94.85 490.10 91.77 480.98 85.10 C 476.09 81.59 472.29 76.18 471.92 70.04 C 471.28 63.90 474.12 58.09 473.85 51.98 C 468.70 57.52 463.64 63.24 459.84 69.82 C 455.07 77.47 452.88 87.21 456.22 95.86 C 460.72 107.11 470.27 115.18 479.51 122.55 C 489.74 130.78 498.50 141.82 501.16 154.93 C 503.44 165.16 500.36 176.50 492.90 183.92 C 484.80 192.47 473.30 196.63 462.01 198.94 C 455.61 200.32 448.53 200.50 442.61 197.34 C 437.21 194.38 435.02 187.79 435.40 181.93 C 436.02 170.46 441.65 159.51 450.06 151.78 C 447.01 151.87 444.20 153.09 441.63 154.64 C 433.24 159.61 425.76 166.58 421.28 175.33 C 417.66 182.29 416.84 190.82 419.88 198.14 C 422.85 205.88 429.29 211.42 433.76 218.24 C 439.62 226.88 445.20 236.38 446.15 247.00 C 446.90 254.37 442.99 261.86 436.60 265.55 C 429.47 269.72 421.16 271.17 413.05 271.98 C 404.89 272.66 396.03 270.88 389.97 265.05 C 383.22 258.56 380.60 249.00 379.81 239.94 C 378.23 221.49 382.07 203.14 386.65 185.37 C 391.54 167.19 397.93 149.44 405.04 132.02 C 412.28 115.15 418.32 97.40 419.21 78.92 C 420.22 62.07 416.08 44.19 404.69 31.32 C 394.72 19.88 380.28 11.32 364.86 10.94 C 371.49 18.15 377.32 26.44 380.02 35.96 C 382.79 45.41 382.05 56.20 376.59 64.57 C 370.83 73.33 361.16 78.93 351.08 81.20 C 345.31 82.54 338.42 81.16 334.70 76.24 C 329.50 69.64 329.73 60.18 332.76 52.69 C 334.96 46.78 339.71 42.35 345.04 39.21 C 335.55 41.49 326.06 45.10 318.62 51.59 C 311.81 57.08 307.47 65.40 306.73 74.10 C 305.54 86.95 310.28 99.51 316.30 110.64 C 322.25 121.99 331.22 131.38 337.48 142.54 C 340.83 148.39 342.65 155.28 341.51 162.02 C 340.61 167.70 340.25 174.52 335.15 178.22 C 325.26 185.70 309.02 185.06 301.07 175.01 C 296.01 168.42 297.38 159.66 298.67 152.06 C 300.00 134.05 294.71 116.31 288.24 99.70 C 280.16 79.92 269.29 61.03 254.56 45.45 C 248.17 39.08 241.37 32.92 233.26 28.82 C 227.09 25.47 220.18 23.87 213.71 21.22 C 202.19 16.60 190.86 10.19 183.40 0.00 Z" />
<path fill="#f5722c" opacity="1.00" d=" M 71.35 18.37 C 85.28 30.62 97.51 46.32 100.79 65.00 C 104.06 81.94 99.20 99.36 91.19 114.29 C 88.47 119.68 84.15 123.98 80.85 129.00 C 74.19 138.67 68.07 149.23 66.29 161.01 C 64.99 168.57 66.88 176.97 72.38 182.52 C 76.47 186.56 82.16 189.76 88.10 188.72 C 94.27 188.36 101.11 185.96 104.05 180.11 C 107.61 172.78 105.42 164.38 102.99 157.07 C 99.64 148.13 96.15 138.40 98.73 128.79 C 100.22 122.90 105.21 118.50 110.91 116.78 C 106.96 124.77 109.10 134.52 115.04 140.92 C 122.17 150.11 134.54 153.20 141.21 162.80 C 145.22 168.37 147.58 175.07 147.94 181.92 C 148.88 196.04 144.98 210.40 137.36 222.30 C 134.50 227.68 133.62 233.94 133.62 239.97 C 133.69 245.22 135.01 251.22 139.74 254.24 C 144.46 257.11 150.19 255.52 155.12 254.13 C 148.71 256.85 142.79 260.55 137.09 264.50 C 133.22 261.97 129.28 259.15 127.10 254.96 C 122.56 245.60 122.72 234.65 125.76 224.86 C 126.96 218.52 131.55 213.69 133.74 207.75 C 137.41 199.05 138.79 189.42 137.70 180.04 C 136.73 172.39 131.81 165.63 125.25 161.71 C 120.78 159.10 116.72 155.90 112.42 153.04 C 113.87 159.65 116.39 166.20 115.92 173.07 C 115.30 179.22 113.63 185.65 109.13 190.15 C 103.97 195.69 96.36 197.85 89.09 198.75 C 75.03 200.15 61.12 189.96 57.58 176.40 C 55.64 170.15 55.35 163.46 56.87 157.09 C 59.70 142.39 67.85 129.44 76.71 117.65 C 83.01 110.18 86.76 100.97 89.68 91.75 C 92.30 81.58 92.56 70.60 89.47 60.50 C 86.36 72.41 78.87 82.38 72.82 92.90 C 60.73 112.65 51.89 134.78 49.43 157.91 C 48.62 168.45 48.58 179.46 52.53 189.44 C 56.49 199.86 62.90 209.08 67.93 218.98 C 75.89 234.88 78.36 253.63 73.58 270.87 C 69.98 287.82 58.06 304.21 40.61 308.53 C 38.58 307.01 36.00 307.74 33.79 308.38 C 33.74 308.76 33.63 309.52 33.58 309.90 C 26.23 309.76 18.77 308.30 12.29 304.72 C 7.71 302.41 3.91 298.91 0.00 295.65 L 0.00 278.64 C 3.82 285.03 8.91 290.75 15.17 294.82 C 23.12 299.96 33.62 301.31 42.36 297.40 C 52.67 293.03 59.46 283.04 62.81 272.68 C 66.78 259.88 67.27 245.78 62.93 233.00 C 58.39 219.51 49.18 208.27 44.03 195.04 C 37.99 180.66 37.92 164.52 40.50 149.35 C 44.37 126.91 53.06 105.45 65.11 86.16 C 71.63 75.10 80.02 64.25 81.08 50.99 C 81.94 39.28 76.47 28.51 71.35 18.37 Z" />
<path fill="#975734" opacity="1.00" d=" M 89.47 60.50 C 92.56 70.60 92.30 81.58 89.68 91.75 C 86.76 100.97 83.01 110.18 76.71 117.65 C 67.85 129.44 59.70 142.39 56.87 157.09 C 55.35 163.46 55.64 170.15 57.58 176.40 C 61.12 189.96 75.03 200.15 89.09 198.75 C 96.36 197.85 103.97 195.69 109.13 190.15 C 113.63 185.65 115.30 179.22 115.92 173.07 C 116.39 166.20 113.87 159.65 112.42 153.04 C 116.72 155.90 120.78 159.10 125.25 161.71 C 131.81 165.63 136.73 172.39 137.70 180.04 C 138.79 189.42 137.41 199.05 133.74 207.75 C 131.55 213.69 126.96 218.52 125.76 224.86 C 122.72 234.65 122.56 245.60 127.10 254.96 C 129.28 259.15 133.22 261.97 137.09 264.50 C 134.69 266.27 132.48 268.29 130.49 270.50 C 127.43 273.61 126.85 279.01 129.49 282.55 C 132.80 287.22 136.01 291.97 139.44 296.56 C 137.97 296.52 136.45 296.54 135.09 295.92 C 125.90 292.17 117.46 286.58 110.36 279.65 C 106.80 276.64 104.18 272.75 100.73 269.64 C 100.33 274.03 102.11 278.27 102.40 282.63 C 104.98 305.27 105.95 328.69 99.82 350.86 C 98.10 357.71 94.42 363.77 91.61 370.17 C 89.66 369.87 87.70 369.59 85.73 369.38 C 84.45 364.41 82.93 359.51 81.84 354.50 C 78.77 354.81 76.20 353.33 74.15 351.19 C 67.02 353.45 59.75 355.28 52.70 357.78 C 48.81 352.37 45.70 346.46 42.08 340.87 C 42.45 339.56 42.80 338.25 43.16 336.94 C 42.55 335.44 41.44 333.97 41.80 332.27 C 42.69 325.18 44.07 318.15 44.63 311.02 C 43.29 310.19 41.96 309.34 40.61 308.53 C 58.06 304.21 69.98 287.82 73.58 270.87 C 78.36 253.63 75.89 234.88 67.93 218.98 C 62.90 209.08 56.49 199.86 52.53 189.44 C 48.58 179.46 48.62 168.45 49.43 157.91 C 51.89 134.78 60.73 112.65 72.82 92.90 C 78.87 82.38 86.36 72.41 89.47 60.50 Z" />
<path fill="#975734" opacity="1.00" d=" M 465.02 82.50 C 468.33 86.95 471.82 91.39 476.64 94.31 C 487.18 101.51 499.72 104.84 512.00 107.72 L 512.00 156.58 C 511.22 154.09 510.48 151.59 509.88 149.06 C 508.01 141.29 503.86 134.30 499.03 128.02 C 489.98 115.42 474.58 108.79 466.89 95.05 C 464.56 91.30 464.40 86.75 465.02 82.50 Z" />
<path fill="#f5722c" opacity="1.00" d=" M 0.00 152.60 C 8.05 162.47 15.21 173.34 19.47 185.42 C 22.45 193.88 23.49 203.47 20.10 211.97 C 16.00 224.18 7.00 233.68 0.00 244.21 L 0.00 227.01 C 5.26 219.78 10.84 212.10 12.06 203.01 C 13.09 190.67 6.40 179.52 0.00 169.54 L 0.00 152.60 Z" />
<path fill="#6c4b38" opacity="1.00" d=" M 248.40 163.32 C 252.33 161.25 254.87 157.50 258.22 154.69 C 258.57 159.69 257.84 164.83 259.39 169.68 C 261.66 178.06 266.34 185.55 271.78 192.23 C 282.67 205.08 297.24 215.39 313.95 218.80 C 319.60 220.03 325.32 218.79 330.95 218.06 C 325.37 226.53 323.06 236.82 323.77 246.89 C 301.71 243.06 278.49 252.15 263.42 268.40 C 258.39 273.46 254.75 279.61 250.89 285.55 C 249.01 281.21 247.67 276.64 245.40 272.48 C 240.77 264.50 234.27 257.50 225.97 253.31 C 226.49 253.31 227.55 253.30 228.08 253.29 C 231.06 249.77 232.54 245.33 234.28 241.13 C 237.95 232.25 239.17 222.51 238.65 212.95 C 237.49 196.50 230.34 180.97 220.16 168.15 C 229.73 169.08 240.02 168.51 248.40 163.32 Z" />
<path fill="#975734" opacity="1.00" d=" M 0.00 169.54 C 6.40 179.52 13.09 190.67 12.06 203.01 C 10.84 212.10 5.26 219.78 0.00 227.01 L 0.00 169.54 Z" />
<path fill="#f5722c" opacity="1.00" d=" M 149.79 265.74 C 168.25 254.83 190.96 251.14 211.84 256.20 C 223.03 258.94 233.14 266.23 238.48 276.54 C 244.42 287.91 247.32 301.65 243.29 314.13 C 238.57 329.90 227.78 342.91 216.66 354.67 C 212.56 358.92 208.03 362.72 203.72 366.75 C 214.13 366.74 224.54 366.77 234.96 366.71 C 235.15 375.08 235.31 383.46 235.33 391.84 C 207.84 391.66 180.35 391.76 152.86 391.79 C 152.59 384.13 152.84 376.47 152.74 368.82 C 161.21 367.63 168.92 363.58 176.15 359.21 C 187.74 351.75 198.52 342.42 205.52 330.40 C 209.48 323.43 211.61 314.61 208.16 307.01 C 205.33 301.14 200.03 295.50 193.10 295.29 C 180.09 294.48 168.17 301.86 158.95 310.37 C 150.80 299.47 143.16 288.17 135.43 276.97 C 139.44 272.34 144.54 268.83 149.79 265.74 Z" />
<path fill="#f5722c" opacity="1.00" d=" M 304.49 254.71 C 317.90 252.55 332.04 255.26 343.69 262.26 C 357.48 270.51 368.09 283.86 373.17 299.09 C 378.67 314.82 378.64 332.42 373.13 348.14 C 367.66 363.88 356.35 377.62 341.65 385.54 C 328.36 392.66 312.30 394.48 297.79 390.36 C 282.68 386.27 269.63 375.89 261.25 362.79 C 244.96 337.66 246.50 302.51 264.87 278.86 C 274.55 266.37 288.74 257.12 304.49 254.71 Z" />
<path fill="#6c4b38" opacity="1.00" d=" M 494.27 257.20 C 500.24 258.12 506.13 259.52 512.00 260.97 L 512.00 512.00 L 499.54 512.00 C 491.55 506.26 483.90 499.40 479.66 490.35 C 476.30 482.31 474.31 473.68 473.74 464.99 C 473.48 461.06 474.00 457.06 473.00 453.20 C 477.56 445.56 481.83 437.75 485.44 429.61 C 486.88 426.11 489.17 422.90 489.75 419.10 C 490.91 411.73 492.03 404.35 493.24 396.98 C 493.97 392.67 492.92 388.36 492.57 384.07 C 491.57 375.36 491.00 366.59 489.73 357.92 C 487.37 350.52 484.90 343.10 482.06 335.87 C 479.22 332.08 476.29 328.31 473.02 324.89 C 468.82 323.85 464.40 323.72 460.11 323.12 C 455.61 326.49 452.90 331.48 450.27 336.31 C 448.80 340.77 448.41 345.52 447.29 350.08 C 432.80 357.68 418.18 365.02 403.77 372.78 C 402.91 371.68 402.12 370.54 401.15 369.55 C 398.30 368.91 395.31 369.38 392.42 369.26 C 392.02 369.71 391.24 370.61 390.85 371.06 C 390.05 370.55 389.26 370.04 388.47 369.53 C 385.46 369.38 382.46 369.28 379.45 369.24 C 379.18 369.86 378.64 371.11 378.37 371.73 C 376.17 370.59 373.93 369.53 371.66 368.56 C 381.25 354.31 385.80 336.92 385.25 319.81 C 401.56 326.06 419.70 329.47 436.91 324.98 C 454.76 321.00 470.00 309.09 480.44 294.37 C 487.96 283.38 493.81 270.70 494.27 257.20 Z" />
<path fill="#6c4b38" opacity="1.00" d=" M 102.40 282.63 C 102.11 278.27 100.33 274.03 100.73 269.64 C 104.18 272.75 106.80 276.64 110.36 279.65 C 117.46 286.58 125.90 292.17 135.09 295.92 C 136.45 296.54 137.97 296.52 139.44 296.56 C 142.46 300.58 145.07 304.90 148.03 308.97 C 150.53 312.36 152.44 317.00 157.08 317.84 C 162.35 319.38 165.98 314.44 169.67 311.64 C 176.81 306.44 185.53 301.85 194.66 303.48 C 200.49 306.26 203.19 313.48 201.47 319.60 C 199.18 327.56 193.67 334.09 187.97 339.89 C 179.92 347.20 171.12 354.03 161.07 358.33 C 159.15 357.52 157.06 357.70 155.04 357.71 C 137.26 357.89 119.48 357.45 101.69 357.74 C 103.34 359.71 105.44 361.17 107.41 362.79 C 108.59 364.39 108.57 366.59 109.13 368.47 C 105.48 368.29 101.88 367.54 98.24 367.29 C 97.76 368.36 97.29 369.44 96.83 370.52 C 95.08 370.48 93.34 370.37 91.61 370.17 C 94.42 363.77 98.10 357.71 99.82 350.86 C 105.95 328.69 104.98 305.27 102.40 282.63 Z" />
<path fill="#975734" opacity="1.00" d=" M 0.00 295.65 C 3.91 298.91 7.71 302.41 12.29 304.72 C 18.77 308.30 26.23 309.76 33.58 309.90 C 32.63 316.27 31.08 322.53 30.17 328.91 C 29.98 330.75 28.16 331.76 27.05 333.06 C 27.18 334.60 27.24 336.15 27.55 337.67 C 29.08 339.40 31.16 340.65 32.19 342.80 C 35.12 348.10 38.16 353.35 40.96 358.73 C 39.79 359.27 38.59 359.76 37.41 360.30 C 37.50 363.76 37.71 367.21 37.75 370.67 C 34.17 372.87 30.34 374.61 26.60 376.50 C 25.82 379.05 24.96 381.58 24.43 384.20 C 15.67 381.72 7.90 376.91 0.00 372.55 L 0.00 295.65 Z" />
<path fill="#3e3e3e" opacity="1.00" d=" M 310.13 296.24 C 318.91 294.99 327.98 298.61 334.07 304.93 C 347.01 318.82 347.58 342.70 334.83 356.91 C 329.50 362.75 322.03 366.94 314.02 367.28 C 305.67 367.20 297.67 362.92 292.34 356.60 C 286.25 349.63 283.42 340.21 283.75 331.04 C 283.77 320.77 287.55 310.27 295.17 303.20 C 299.45 299.65 304.57 296.97 310.13 296.24 Z" />
<path fill="#6c4b38" opacity="1.00" d=" M 309.27 304.42 C 316.02 302.76 323.09 305.41 328.09 309.97 C 331.57 314.23 334.72 319.09 335.45 324.68 C 336.67 332.65 336.30 341.62 331.29 348.32 C 327.18 354.77 319.93 360.00 311.97 359.20 C 305.35 358.13 299.28 353.92 295.96 348.09 C 291.84 341.95 291.44 334.17 292.03 327.02 C 292.92 317.11 299.16 306.95 309.27 304.42 Z" />
<path fill="#f5e5c1" opacity="1.00" d=" M 33.79 308.38 C 36.00 307.74 38.58 307.01 40.61 308.53 C 41.96 309.34 43.29 310.19 44.63 311.02 C 44.07 318.15 42.69 325.18 41.80 332.27 C 41.44 333.97 42.55 335.44 43.16 336.94 C 42.80 338.25 42.45 339.56 42.08 340.87 C 45.70 346.46 48.81 352.37 52.70 357.78 C 59.75 355.28 67.02 353.45 74.15 351.19 C 76.20 353.33 78.77 354.81 81.84 354.50 C 82.93 359.51 84.45 364.41 85.73 369.38 C 87.70 369.59 89.66 369.87 91.61 370.17 C 93.34 370.37 95.08 370.48 96.83 370.52 C 97.29 369.44 97.76 368.36 98.24 367.29 C 101.88 367.54 105.48 368.29 109.13 368.47 C 108.57 366.59 108.59 364.39 107.41 362.79 C 105.44 361.17 103.34 359.71 101.69 357.74 C 119.48 357.45 137.26 357.89 155.04 357.71 C 157.06 357.70 159.15 357.52 161.07 358.33 C 157.20 360.10 152.93 360.58 148.94 361.93 C 144.84 363.90 144.70 369.07 144.72 373.01 C 144.97 379.67 144.28 386.39 145.11 393.01 C 145.80 397.57 150.73 399.89 154.95 399.76 C 180.97 399.75 207.00 399.75 233.03 399.76 C 237.32 399.82 242.56 397.75 243.09 392.92 C 243.57 384.96 243.11 376.95 242.99 368.98 C 243.02 365.66 241.94 361.88 238.85 360.17 C 234.31 357.48 228.80 358.89 223.81 358.71 C 224.03 358.50 224.47 358.07 224.69 357.86 C 229.05 357.81 233.42 357.70 237.77 357.97 C 239.74 358.15 241.71 358.25 243.68 358.40 C 245.08 359.07 246.37 359.95 247.67 360.81 C 247.36 364.33 247.05 367.88 247.30 371.43 C 250.42 370.94 253.56 370.59 256.73 370.61 C 258.09 373.62 260.90 375.51 263.01 377.95 C 279.40 395.98 305.87 404.78 329.61 398.45 C 346.85 394.49 361.89 383.14 371.66 368.56 C 373.93 369.53 376.17 370.59 378.37 371.73 C 378.64 371.11 379.18 369.86 379.45 369.24 C 382.46 369.28 385.46 369.38 388.47 369.53 C 389.26 370.04 390.05 370.55 390.85 371.06 C 391.24 370.61 392.02 369.71 392.42 369.26 C 395.31 369.38 398.30 368.91 401.15 369.55 C 402.12 370.54 402.91 371.68 403.77 372.78 C 418.18 365.02 432.80 357.68 447.29 350.08 C 448.41 345.52 448.80 340.77 450.27 336.31 C 452.90 331.48 455.61 326.49 460.11 323.12 C 464.40 323.72 468.82 323.85 473.02 324.89 C 476.29 328.31 479.22 332.08 482.06 335.87 C 484.90 343.10 487.37 350.52 489.73 357.92 C 491.00 366.59 491.57 375.36 492.57 384.07 C 492.92 388.36 493.97 392.67 493.24 396.98 C 492.03 404.35 490.91 411.73 489.75 419.10 C 489.17 422.90 486.88 426.11 485.44 429.61 C 481.83 437.75 477.56 445.56 473.00 453.20 C 472.75 453.57 472.25 454.31 472.01 454.68 C 470.50 454.93 469.01 455.20 467.50 455.35 C 464.46 455.38 460.99 456.63 458.37 454.49 C 456.10 452.91 453.24 451.93 451.44 449.82 C 448.98 442.78 446.68 435.68 444.23 428.64 C 431.34 420.92 418.22 413.56 405.07 406.29 C 404.55 407.36 404.02 408.43 403.49 409.50 C 400.65 409.43 397.81 409.41 394.97 409.42 C 394.59 408.35 394.21 407.28 393.84 406.22 C 392.38 406.24 390.92 406.27 389.47 406.32 C 388.78 408.09 388.07 409.87 387.35 411.64 C 384.32 411.37 381.32 410.91 378.32 410.45 C 377.66 409.37 377.00 408.29 376.35 407.22 C 372.03 409.71 367.49 411.76 363.08 414.07 C 361.36 414.81 360.53 416.58 359.45 417.99 L 359.03 418.54 C 357.85 418.23 356.70 417.90 355.54 417.56 C 356.34 422.39 355.91 427.25 354.49 431.93 C 355.13 432.01 356.42 432.18 357.06 432.26 C 358.45 435.46 359.13 438.92 360.48 442.15 C 360.01 443.00 359.53 443.86 359.06 444.72 C 356.67 444.98 353.56 445.15 352.14 442.79 C 350.86 439.88 349.68 436.92 348.68 433.90 C 348.33 428.38 347.69 422.88 347.42 417.36 C 346.39 415.81 344.62 414.93 343.20 413.80 C 317.76 411.55 292.32 409.65 266.89 407.40 C 263.52 407.05 259.83 407.84 256.81 405.92 C 256.85 406.78 256.92 408.52 256.95 409.38 C 242.83 409.61 228.69 408.87 214.58 409.45 C 215.32 412.60 215.61 415.83 215.86 419.06 C 213.40 421.50 210.83 423.83 208.27 426.18 C 208.29 430.50 208.28 434.82 208.29 439.14 C 206.46 440.92 203.78 442.14 202.51 444.31 C 202.70 462.20 203.60 480.09 203.95 497.98 C 200.36 501.25 195.30 499.64 190.94 500.00 C 186.80 499.64 182.09 501.13 178.53 498.39 C 179.10 480.66 179.31 462.94 179.64 445.21 C 179.00 445.13 177.72 444.98 177.08 444.90 C 177.17 444.29 177.34 443.07 177.42 442.46 C 173.45 445.11 167.80 446.04 163.60 443.42 C 158.77 441.59 155.73 435.98 156.64 430.92 C 156.97 426.98 159.59 423.71 161.85 420.64 C 161.06 417.51 160.17 414.41 159.30 411.31 C 148.65 411.29 138.00 411.31 127.34 411.31 C 126.21 414.85 125.50 418.52 124.12 421.99 C 123.05 422.61 121.98 423.24 120.91 423.88 C 120.82 430.91 120.81 437.93 120.74 444.96 C 120.63 459.33 120.51 473.71 120.44 488.09 C 120.71 490.38 118.10 492.29 115.95 491.60 C 109.60 490.50 103.30 489.15 96.95 488.04 C 95.00 487.91 93.69 486.40 92.35 485.18 C 93.17 475.38 94.14 465.60 95.01 455.80 C 95.87 446.13 96.79 436.47 97.67 426.80 C 91.86 422.77 91.52 415.18 88.40 409.36 C 71.89 409.42 55.43 410.63 38.92 410.47 C 34.90 409.14 31.45 406.34 27.57 404.59 C 26.62 401.33 25.17 398.21 24.52 394.86 C 24.27 391.31 24.43 387.75 24.43 384.20 C 24.96 381.58 25.82 379.05 26.60 376.50 C 30.34 374.61 34.17 372.87 37.75 370.67 C 37.71 367.21 37.50 363.76 37.41 360.30 C 38.59 359.76 39.79 359.27 40.96 358.73 C 38.16 353.35 35.12 348.10 32.19 342.80 C 31.16 340.65 29.08 339.40 27.55 337.67 C 27.24 336.15 27.18 334.60 27.05 333.06 C 28.16 331.76 29.98 330.75 30.17 328.91 C 31.08 322.53 32.63 316.27 33.58 309.90 C 33.63 309.52 33.74 308.76 33.79 308.38 Z" />
<path fill="#6c4b38" opacity="1.00" d=" M 224.69 357.86 C 231.12 350.90 237.01 343.45 242.22 335.53 C 244.55 341.03 245.07 347.11 247.36 352.65 C 249.42 359.15 253.32 364.78 256.73 370.61 C 253.56 370.59 250.42 370.94 247.30 371.43 C 247.05 367.88 247.36 364.33 247.67 360.81 C 246.37 359.95 245.08 359.07 243.68 358.40 C 243.40 355.67 242.14 353.21 240.63 350.97 C 239.45 353.20 238.53 355.56 237.77 357.97 C 233.42 357.70 229.05 357.81 224.69 357.86 Z" />
<path fill="#3e3e3e" opacity="1.00" d=" M 237.77 357.97 C 238.53 355.56 239.45 353.20 240.63 350.97 C 242.14 353.21 243.40 355.67 243.68 358.40 C 241.71 358.25 239.74 358.15 237.77 357.97 Z" />
<path fill="#6c4b38" opacity="1.00" d=" M 0.00 372.55 C 7.90 376.91 15.67 381.72 24.43 384.20 C 24.43 387.75 24.27 391.31 24.52 394.86 C 25.17 398.21 26.62 401.33 27.57 404.59 C 31.45 406.34 34.90 409.14 38.92 410.47 C 55.43 410.63 71.89 409.42 88.40 409.36 C 91.52 415.18 91.86 422.77 97.67 426.80 C 96.79 436.47 95.87 446.13 95.01 455.80 C 74.88 461.38 53.81 463.97 32.97 461.83 C 29.00 461.29 25.08 460.44 21.09 460.14 C 22.57 464.67 24.38 469.17 24.73 473.98 C 25.99 487.04 22.22 499.87 17.78 512.00 L 0.00 512.00 L 0.00 372.55 Z" />
<path fill="#3e3e3e" opacity="1.00" d=" M 256.81 405.92 C 259.83 407.84 263.52 407.05 266.89 407.40 C 292.32 409.65 317.76 411.55 343.20 413.80 C 344.62 414.93 346.39 415.81 347.42 417.36 C 347.69 422.88 348.33 428.38 348.68 433.90 C 349.68 436.92 350.86 439.88 352.14 442.79 C 353.56 445.15 356.67 444.98 359.06 444.72 C 359.53 443.86 360.01 443.00 360.48 442.15 C 359.13 438.92 358.45 435.46 357.06 432.26 C 356.42 432.18 355.13 432.01 354.49 431.93 C 355.91 427.25 356.34 422.39 355.54 417.56 C 356.70 417.90 357.85 418.23 359.03 418.54 L 359.45 417.99 C 357.86 419.69 358.20 421.96 358.82 424.00 C 362.56 439.28 372.14 453.08 385.27 461.76 C 404.88 476.10 432.86 478.13 453.99 465.93 C 458.88 462.99 464.46 460.45 467.50 455.35 C 469.01 455.20 470.50 454.93 472.01 454.68 C 472.25 454.31 472.75 453.57 473.00 453.20 C 474.00 457.06 473.48 461.06 473.74 464.99 C 474.31 473.68 476.30 482.31 479.66 490.35 C 483.90 499.40 491.55 506.26 499.54 512.00 L 17.78 512.00 C 22.22 499.87 25.99 487.04 24.73 473.98 C 24.38 469.17 22.57 464.67 21.09 460.14 C 25.08 460.44 29.00 461.29 32.97 461.83 C 53.81 463.97 74.88 461.38 95.01 455.80 C 94.14 465.60 93.17 475.38 92.35 485.18 C 93.69 486.40 95.00 487.91 96.95 488.04 C 103.30 489.15 109.60 490.50 115.95 491.60 C 118.10 492.29 120.71 490.38 120.44 488.09 C 120.51 473.71 120.63 459.33 120.74 444.96 C 130.68 439.29 140.44 432.64 147.31 423.32 C 150.01 419.75 151.90 415.67 154.01 411.75 C 155.77 411.60 157.54 411.46 159.30 411.31 C 160.17 414.41 161.06 417.51 161.85 420.64 C 159.59 423.71 156.97 426.98 156.64 430.92 C 155.73 435.98 158.77 441.59 163.60 443.42 C 167.80 446.04 173.45 445.11 177.42 442.46 C 177.34 443.07 177.17 444.29 177.08 444.90 C 177.72 444.98 179.00 445.13 179.64 445.21 C 179.31 462.94 179.10 480.66 178.53 498.39 C 182.09 501.13 186.80 499.64 190.94 500.00 C 195.30 499.64 200.36 501.25 203.95 497.98 C 203.60 480.09 202.70 462.20 202.51 444.31 C 203.78 442.14 206.46 440.92 208.29 439.14 C 208.28 434.82 208.29 430.50 208.27 426.18 C 210.83 423.83 213.40 421.50 215.86 419.06 C 215.61 415.83 215.32 412.60 214.58 409.45 C 228.69 408.87 242.83 409.61 256.95 409.38 C 256.92 408.52 256.85 406.78 256.81 405.92 Z" />
<path fill="#6c4b38" opacity="1.00" d=" M 389.47 406.32 C 390.92 406.27 392.38 406.24 393.84 406.22 C 394.21 407.28 394.59 408.35 394.97 409.42 C 397.81 409.41 400.65 409.43 403.49 409.50 C 404.02 408.43 404.55 407.36 405.07 406.29 C 418.22 413.56 431.34 420.92 444.23 428.64 C 446.68 435.68 448.98 442.78 451.44 449.82 C 453.24 451.93 456.10 452.91 458.37 454.49 C 460.99 456.63 464.46 455.38 467.50 455.35 C 464.46 460.45 458.88 462.99 453.99 465.93 C 432.86 478.13 404.88 476.10 385.27 461.76 C 372.14 453.08 362.56 439.28 358.82 424.00 C 358.20 421.96 357.86 419.69 359.45 417.99 C 360.53 416.58 361.36 414.81 363.08 414.07 C 367.49 411.76 372.03 409.71 376.35 407.22 C 377.00 408.29 377.66 409.37 378.32 410.45 C 381.32 410.91 384.32 411.37 387.35 411.64 C 388.07 409.87 388.78 408.09 389.47 406.32 Z" />
<path fill="#6c4b38" opacity="1.00" d=" M 127.34 411.31 C 138.00 411.31 148.65 411.29 159.30 411.31 C 157.54 411.46 155.77 411.60 154.01 411.75 C 151.90 415.67 150.01 419.75 147.31 423.32 C 140.44 432.64 130.68 439.29 120.74 444.96 C 120.81 437.93 120.82 430.91 120.91 423.88 C 121.98 423.24 123.05 422.61 124.12 421.99 C 125.50 418.52 126.21 414.85 127.34 411.31 Z" />
</svg>
