<?xml version="1.0" encoding="UTF-8" ?>
<!DOCTYPE svg PUBLIC "-//W3C//DTD SVG 1.1//EN" "http://www.w3.org/Graphics/SVG/1.1/DTD/svg11.dtd">
<svg width="512pt" height="512pt" viewBox="0 0 512 512" version="1.1" xmlns="http://www.w3.org/2000/svg">
<path fill="#3e3e3e" opacity="1.00" d=" M 0.00 0.00 L 512.00 0.00 L 512.00 512.00 L 0.00 512.00 L 0.00 0.00 Z" />
<path fill="#f5722c" opacity="1.00" d=" M 241.08 23.53 C 254.24 21.53 268.09 20.09 281.01 24.05 C 280.82 25.37 280.64 26.69 280.46 28.01 C 295.95 29.43 311.54 29.45 327.02 30.94 C 335.71 31.81 344.51 31.83 353.05 33.79 C 359.18 35.21 365.49 35.93 371.52 37.75 C 376.68 40.28 382.42 43.00 384.47 48.82 C 377.35 47.73 370.14 47.60 362.95 47.58 C 336.79 48.07 310.55 48.25 284.54 51.46 C 282.16 55.99 278.68 60.27 278.72 65.66 C 277.32 66.80 275.92 67.94 274.52 69.07 C 274.55 81.75 274.52 94.43 274.54 107.10 C 275.73 107.38 276.92 107.66 278.12 107.95 C 277.50 110.50 276.75 113.06 275.20 115.23 C 274.54 123.37 274.79 131.56 274.55 139.72 C 265.27 139.30 255.97 139.44 246.69 139.83 C 246.66 131.46 246.58 123.09 246.51 114.72 C 245.90 114.44 244.68 113.88 244.07 113.60 C 243.87 112.11 243.68 110.61 243.49 109.11 C 244.31 108.39 245.14 107.67 245.98 106.95 C 246.19 94.31 246.32 81.66 246.51 69.02 C 245.00 68.01 243.50 67.00 242.00 65.99 C 241.67 63.19 242.17 60.04 240.47 57.60 C 238.23 54.24 235.75 50.63 231.72 49.31 C 225.01 45.78 217.30 46.47 209.99 46.09 C 202.73 45.98 195.43 45.02 188.20 46.20 C 177.51 47.82 166.75 48.91 156.01 50.10 C 151.97 50.68 147.78 49.73 144.21 47.80 C 142.09 45.92 140.72 43.37 139.10 41.09 C 140.97 40.53 142.84 39.98 144.71 39.42 C 141.95 38.77 139.19 38.13 136.43 37.48 C 135.97 36.15 135.51 34.83 135.04 33.51 C 148.02 31.54 160.98 29.40 173.99 27.60 C 187.65 26.89 201.35 26.90 215.01 26.12 C 219.74 25.46 223.45 29.26 227.95 29.73 C 232.86 29.28 237.61 27.83 242.47 27.07 C 242.00 25.89 241.54 24.71 241.08 23.53 Z" />
<path fill="#f5722c" opacity="1.00" d=" M 332.24 56.49 C 333.34 56.30 334.17 57.26 335.05 57.77 C 344.42 64.84 353.99 71.65 363.38 78.68 C 371.88 86.10 379.85 94.10 388.12 101.77 C 391.55 105.02 396.07 107.62 397.61 112.35 C 398.84 114.98 399.29 118.33 401.97 119.97 C 405.58 122.55 409.34 124.90 413.12 127.22 C 413.51 126.38 414.28 124.71 414.67 123.87 C 419.23 127.81 424.44 130.99 428.61 135.39 C 433.58 140.81 439.67 145.58 442.16 152.78 C 441.16 153.46 440.16 154.15 439.18 154.84 C 444.55 161.41 450.35 167.61 455.98 173.96 C 464.05 182.60 471.52 191.77 479.24 200.71 C 485.31 207.84 489.92 216.04 495.28 223.68 C 498.36 229.44 500.27 236.40 498.27 242.83 C 497.97 242.66 497.38 242.31 497.09 242.14 C 490.93 234.00 483.51 226.88 476.06 219.94 C 465.80 209.84 455.61 199.65 444.59 190.38 C 438.12 185.03 432.19 179.02 425.20 174.33 C 421.43 175.41 417.67 176.53 413.92 177.69 C 413.28 178.54 412.64 179.40 412.01 180.26 C 409.96 180.06 407.91 179.85 405.87 179.64 C 398.28 187.16 391.06 195.08 383.06 202.16 C 378.32 193.78 373.17 185.61 367.26 178.00 C 372.98 172.48 378.84 167.10 384.45 161.46 C 386.66 159.64 385.24 156.59 385.24 154.19 C 386.64 152.61 388.06 151.04 389.49 149.49 C 390.27 144.87 391.70 139.87 389.56 135.41 C 387.17 127.92 380.96 122.81 375.93 117.12 C 370.87 112.17 366.51 106.44 360.74 102.24 C 351.92 95.77 343.43 88.87 334.93 81.99 C 331.88 79.59 330.28 75.98 328.43 72.68 C 328.79 69.83 329.26 66.99 329.70 64.15 C 331.63 65.13 333.56 66.12 335.48 67.12 C 333.76 64.75 332.13 62.32 330.42 59.95 C 330.99 58.78 331.60 57.63 332.24 56.49 Z" />
<path fill="#f5722c" opacity="1.00" d=" M 170.04 75.14 C 176.52 70.28 185.23 67.33 193.20 69.85 C 187.66 74.00 182.81 78.98 177.75 83.69 C 164.85 97.46 151.13 110.48 139.02 124.99 C 134.21 130.91 128.46 136.18 124.56 142.79 C 125.12 146.69 126.63 150.37 127.75 154.13 C 128.59 154.75 129.43 155.38 130.28 156.00 C 130.06 158.03 129.83 160.05 129.62 162.08 C 138.48 170.88 147.48 179.56 156.05 188.65 C 156.70 188.55 157.99 188.35 158.63 188.25 C 153.57 197.51 149.36 207.22 145.07 216.86 C 144.21 216.14 143.35 215.42 142.48 214.72 C 140.23 214.72 138.10 214.08 136.17 212.95 C 136.18 211.65 136.20 210.34 136.21 209.04 C 128.50 201.33 120.97 193.43 113.47 185.51 C 112.33 184.39 111.27 183.12 109.84 182.37 C 107.92 182.23 106.01 182.56 104.12 182.75 C 102.58 181.36 101.05 179.96 99.53 178.55 C 96.18 177.96 92.81 177.18 89.39 177.31 C 83.24 178.52 77.71 181.88 73.35 186.33 C 65.20 194.17 56.16 201.28 49.69 210.66 C 44.37 217.95 38.51 224.82 32.94 231.92 C 30.38 235.30 26.81 237.95 22.76 239.25 C 19.85 239.54 16.98 238.69 14.13 238.27 C 15.12 236.30 16.11 234.33 17.13 232.37 C 14.87 234.16 12.50 235.79 10.13 237.42 C 8.77 236.90 7.40 236.38 6.03 235.87 C 9.78 229.80 14.34 224.30 18.47 218.50 C 23.19 212.22 27.41 205.52 32.89 199.85 C 41.09 191.07 49.59 182.57 57.48 173.50 C 60.74 169.18 67.66 170.31 70.37 165.47 C 72.75 162.01 74.99 158.46 77.19 154.89 C 76.36 154.49 74.71 153.68 73.88 153.28 C 77.81 148.73 81.00 143.55 85.38 139.39 C 90.78 134.37 95.68 128.43 102.77 125.75 C 103.37 126.79 103.97 127.84 104.58 128.88 C 114.30 121.24 123.11 112.52 132.41 104.37 C 138.90 98.89 145.39 93.39 151.80 87.82 C 157.51 83.07 163.99 79.40 170.04 75.14 Z" />
<path fill="#f5e5c1" opacity="1.00" d=" M 253.16 149.54 C 263.36 148.28 273.88 146.51 284.00 149.24 C 295.12 152.13 306.57 153.81 317.40 157.78 C 322.95 159.81 328.84 161.00 334.07 163.86 C 338.74 166.37 342.59 170.07 346.79 173.25 C 350.49 175.95 352.72 180.02 355.42 183.61 C 359.57 189.20 363.39 195.02 367.30 200.78 C 370.69 205.56 371.16 211.60 372.50 217.14 C 373.19 224.06 372.72 231.06 373.66 237.99 C 373.86 252.62 374.70 267.40 378.58 281.59 C 382.46 295.58 385.04 309.99 390.50 323.49 C 394.01 327.66 398.54 330.80 402.46 334.54 C 405.11 336.93 405.54 340.65 405.91 343.99 C 401.36 341.93 396.90 339.66 392.30 337.68 C 384.05 333.57 374.71 332.77 365.82 330.78 C 350.38 327.65 334.59 328.57 318.95 328.25 C 301.93 328.22 285.01 325.71 267.98 326.29 C 242.91 325.74 217.94 328.12 192.96 329.78 C 176.87 331.51 160.97 334.65 144.99 337.15 C 140.49 337.39 136.27 339.17 132.41 341.39 C 127.42 344.27 122.36 347.03 117.25 349.70 C 118.58 341.93 126.20 338.40 130.97 333.01 C 134.03 329.49 138.53 327.12 140.67 322.90 C 143.75 309.86 146.34 296.60 147.05 283.20 C 148.86 265.81 149.31 248.29 151.98 231.00 C 153.04 224.64 154.16 218.19 157.38 212.51 C 160.96 201.50 167.20 191.47 174.74 182.73 C 181.72 174.74 191.16 169.62 200.05 164.10 C 209.14 158.53 219.63 156.09 229.85 153.53 C 237.48 151.46 245.40 150.91 253.16 149.54 Z" />
<path fill="#f5e5c1" opacity="1.00" d=" M 172.29 341.89 C 196.90 339.24 221.59 336.76 246.37 336.72 C 245.23 341.12 243.21 345.89 245.68 350.24 C 247.97 348.08 249.91 345.30 253.00 344.20 C 257.13 342.55 260.67 339.61 265.01 338.44 C 271.89 340.02 278.07 343.97 282.08 349.83 C 282.92 348.93 283.77 348.04 284.63 347.15 C 284.18 343.41 282.44 340.06 280.74 336.77 C 289.17 336.80 297.56 337.57 305.95 338.30 C 318.88 338.95 331.80 339.85 344.62 341.74 C 339.75 343.62 334.66 344.89 329.85 346.86 C 322.98 352.31 319.48 360.69 316.65 368.74 C 315.50 372.72 315.97 376.92 315.78 381.01 C 313.44 381.79 310.98 383.44 308.46 382.45 C 306.50 381.40 306.37 378.93 305.84 377.03 C 304.75 379.47 303.90 382.09 302.25 384.23 C 299.71 386.59 294.88 385.42 293.66 382.19 C 291.94 378.16 291.36 373.77 291.02 369.44 C 289.41 374.05 287.86 378.89 284.77 382.75 C 282.93 384.79 279.22 386.67 277.07 384.02 C 274.91 380.45 271.24 377.79 270.29 373.56 C 269.89 377.17 270.79 381.91 267.47 384.37 C 265.52 384.91 263.51 384.19 261.59 383.86 C 259.18 383.24 256.22 383.27 254.63 381.01 C 254.21 376.55 253.71 372.10 252.89 367.69 C 252.91 370.69 252.96 373.76 251.71 376.57 C 250.47 379.57 250.87 384.08 247.14 385.33 C 242.82 386.31 241.22 381.53 239.40 378.69 C 237.53 376.31 236.75 373.40 236.38 370.45 C 236.58 373.72 237.85 377.63 235.39 380.36 C 233.59 381.87 231.14 382.53 228.81 382.35 C 224.95 379.58 222.05 375.29 220.90 370.67 C 220.48 374.49 220.27 379.29 216.56 381.49 C 214.96 381.82 213.32 381.64 211.70 381.65 C 209.82 378.59 209.09 375.06 208.33 371.61 C 207.06 365.73 203.39 360.84 200.15 355.92 C 197.47 351.18 192.16 348.93 187.41 346.85 C 182.07 346.18 177.26 343.78 172.29 341.89 Z" />
<path fill="#f5e5c1" opacity="1.00" d=" M 163.14 352.95 C 165.54 353.37 167.91 354.01 170.10 355.13 C 172.06 355.89 174.53 356.36 175.37 358.59 C 180.29 369.07 181.60 380.78 185.73 391.54 C 187.85 395.34 192.82 396.12 195.41 399.52 C 198.57 403.78 200.35 408.85 201.88 413.89 C 203.57 419.44 205.82 424.81 208.38 430.02 C 208.87 424.02 208.63 417.98 209.09 411.98 C 209.58 405.16 209.13 398.20 210.72 391.50 C 212.08 388.31 215.77 387.14 219.00 387.42 C 219.39 388.00 220.16 389.16 220.55 389.74 C 219.45 396.11 219.93 402.58 220.86 408.93 C 222.81 405.15 224.97 401.34 225.44 397.03 C 225.69 394.20 226.77 391.57 228.52 389.35 C 231.09 389.30 234.64 389.30 235.34 392.46 C 236.16 397.67 236.92 402.91 237.36 408.17 C 237.52 401.88 239.11 395.53 242.19 390.05 C 245.09 388.86 250.09 387.54 251.33 391.59 C 252.53 397.32 251.96 403.30 252.88 409.10 C 254.45 405.50 256.83 402.09 257.06 398.05 C 257.43 395.52 256.83 392.15 259.49 390.68 C 262.01 389.62 264.99 389.54 267.50 390.67 C 270.36 392.37 269.85 396.12 269.68 398.95 C 269.21 402.88 268.94 406.83 269.25 410.79 C 270.89 404.43 274.58 398.77 275.56 392.22 C 276.20 388.50 280.87 387.00 283.77 389.22 C 286.56 390.66 286.24 394.14 286.55 396.78 C 287.34 398.37 288.02 400.02 288.51 401.74 C 289.01 398.05 290.50 394.58 292.31 391.36 C 293.75 388.34 298.98 388.70 300.09 391.85 C 301.80 396.12 304.26 400.09 305.41 404.58 C 306.26 400.76 307.17 396.89 306.78 392.96 C 306.50 391.04 306.94 389.17 307.60 387.39 C 311.10 387.12 315.19 388.33 316.51 391.93 C 316.67 402.97 313.88 414.11 315.83 425.12 C 316.26 425.34 317.12 425.78 317.54 426.00 C 318.60 420.29 320.70 414.81 324.10 410.07 C 325.79 408.05 325.96 405.35 327.01 403.04 C 330.26 399.49 334.51 397.11 338.47 394.46 C 339.79 393.56 341.09 392.47 341.55 390.88 C 345.05 381.26 346.55 371.03 350.34 361.51 C 350.80 360.39 351.27 359.13 352.46 358.59 C 356.13 356.49 360.11 354.99 364.06 353.50 C 362.94 360.46 362.11 367.58 359.53 374.19 C 351.99 395.49 343.81 416.70 339.34 438.92 C 338.24 442.62 337.72 447.91 333.60 449.47 C 323.65 451.32 315.14 457.26 306.94 462.87 C 301.34 466.32 295.57 469.51 289.96 472.97 C 286.30 475.12 282.48 477.91 277.97 477.22 C 265.23 476.11 252.47 474.88 239.80 473.10 C 235.46 472.66 231.98 469.83 228.31 467.76 C 216.43 461.36 206.01 451.47 192.29 449.14 C 188.83 446.01 188.24 441.08 187.19 436.79 C 182.40 413.65 173.44 391.71 165.85 369.41 C 164.78 363.97 163.25 358.53 163.14 352.95 Z" />
</svg>
