<?xml version="1.0" encoding="UTF-8" ?>
<!DOCTYPE svg PUBLIC "-//W3C//DTD SVG 1.1//EN" "http://www.w3.org/Graphics/SVG/1.1/DTD/svg11.dtd">
<svg width="512pt" height="512pt" viewBox="0 0 512 512" version="1.1" xmlns="http://www.w3.org/2000/svg">
<path fill="#3e3e3e" opacity="1.00" d=" M 0.00 0.00 L 29.93 0.00 C 57.00 45.06 83.82 90.27 110.93 135.30 C 110.64 131.46 110.09 127.65 109.29 123.88 C 111.58 119.79 115.89 117.93 119.72 115.65 C 121.96 114.65 121.27 111.95 121.47 110.00 C 121.45 104.32 121.57 98.63 122.28 92.99 C 122.98 88.68 120.72 84.79 118.94 81.06 C 106.15 54.07 93.61 26.96 80.77 0.00 L 107.70 0.00 C 115.25 19.96 122.47 40.05 129.93 60.05 C 131.95 55.05 133.92 50.03 135.99 45.05 C 137.50 41.18 140.58 38.30 143.11 35.11 C 148.33 28.60 153.68 22.20 158.94 15.73 C 157.67 10.47 156.45 5.19 154.92 0.00 L 346.04 0.00 C 345.50 1.72 345.05 3.47 344.60 5.21 C 350.30 10.56 356.35 15.53 362.15 20.78 C 368.20 26.28 375.49 30.89 378.96 38.61 C 383.81 25.77 388.37 12.81 393.31 0.00 L 420.21 0.00 C 410.74 20.02 401.32 40.07 391.95 60.13 C 394.52 65.33 399.15 69.79 399.21 75.93 C 400.24 88.46 402.00 100.92 402.86 113.45 C 403.63 112.36 404.40 111.26 405.15 110.15 C 427.18 73.46 449.03 36.66 471.10 0.00 L 512.00 0.00 L 512.00 36.08 C 479.08 73.45 446.44 111.07 413.57 148.49 C 412.28 150.10 410.55 151.73 410.62 153.96 C 410.39 159.61 409.75 165.22 409.29 170.85 C 409.05 173.69 406.72 175.70 405.20 177.93 C 406.11 183.58 406.71 189.27 407.73 194.90 C 407.86 196.65 409.53 197.45 410.76 198.40 C 444.49 167.96 478.33 137.64 512.00 107.13 L 512.00 168.02 C 484.68 183.42 457.07 198.30 429.74 213.68 C 444.16 225.22 459.32 235.83 474.06 246.96 C 476.46 249.00 480.17 250.46 480.58 253.99 C 482.80 265.27 484.16 276.72 486.68 287.94 C 495.13 289.06 503.56 290.33 512.00 291.54 L 512.00 314.75 C 504.93 312.51 497.77 310.53 490.67 308.40 C 491.43 316.58 490.50 324.80 490.97 332.98 C 492.06 337.14 494.84 340.63 496.34 344.65 C 503.23 361.01 506.92 378.74 507.14 396.49 C 508.77 397.34 510.41 398.19 512.00 399.13 L 512.00 512.00 L 0.00 512.00 L 0.00 393.27 C 4.52 390.55 9.26 388.24 13.91 385.76 C 14.13 359.64 13.99 333.51 13.98 307.39 C 9.31 308.73 4.63 310.02 0.00 311.50 L 0.00 290.04 C 8.76 288.61 17.57 287.43 26.37 286.21 C 25.78 283.72 24.50 281.01 25.49 278.49 C 32.00 267.92 38.04 257.06 44.33 246.36 C 46.34 243.13 47.70 239.22 51.03 237.09 C 60.76 230.84 71.01 225.38 80.44 218.70 C 53.66 203.80 26.77 189.07 0.00 174.15 L 0.00 117.17 C 33.74 147.36 67.24 177.83 101.00 208.00 C 107.23 204.87 113.62 202.06 119.85 198.90 C 119.06 193.34 120.98 186.66 116.83 182.16 C 77.89 137.60 38.88 93.10 0.00 48.49 L 0.00 0.00 Z" />
<path fill="#9d9582" opacity="1.00" d=" M 29.93 0.00 L 80.77 0.00 C 93.61 26.96 106.15 54.07 118.94 81.06 C 120.72 84.79 122.98 88.68 122.28 92.99 C 121.57 98.63 121.45 104.32 121.47 110.00 C 121.27 111.95 121.96 114.65 119.72 115.65 C 115.89 117.93 111.58 119.79 109.29 123.88 C 110.09 127.65 110.64 131.46 110.93 135.30 C 83.82 90.27 57.00 45.06 29.93 0.00 Z" />
<path fill="#9d9582" opacity="1.00" d=" M 107.70 0.00 L 154.92 0.00 C 156.45 5.19 157.67 10.47 158.94 15.73 C 153.68 22.20 148.33 28.60 143.11 35.11 C 140.58 38.30 137.50 41.18 135.99 45.05 C 133.92 50.03 131.95 55.05 129.93 60.05 C 122.47 40.05 115.25 19.96 107.70 0.00 Z" />
<path fill="#9d9582" opacity="1.00" d=" M 346.04 0.00 L 393.31 0.00 C 388.37 12.81 383.81 25.77 378.96 38.61 C 375.49 30.89 368.20 26.28 362.15 20.78 C 356.35 15.53 350.30 10.56 344.60 5.21 C 345.05 3.47 345.50 1.72 346.04 0.00 Z" />
<path fill="#9d9582" opacity="1.00" d=" M 420.21 0.00 L 471.10 0.00 C 449.03 36.66 427.18 73.46 405.15 110.15 C 404.40 111.26 403.63 112.36 402.86 113.45 C 402.00 100.92 400.24 88.46 399.21 75.93 C 399.15 69.79 394.52 65.33 391.95 60.13 C 401.32 40.07 410.74 20.02 420.21 0.00 Z" />
<path fill="#9d9582" opacity="1.00" d=" M 413.57 148.49 C 446.44 111.07 479.08 73.45 512.00 36.08 L 512.00 107.13 C 478.33 137.64 444.49 167.96 410.76 198.40 C 409.53 197.45 407.86 196.65 407.73 194.90 C 406.71 189.27 406.11 183.58 405.20 177.93 C 406.72 175.70 409.05 173.69 409.29 170.85 C 409.75 165.22 410.39 159.61 410.62 153.96 C 410.55 151.73 412.28 150.10 413.57 148.49 Z" />
<path fill="#9d9582" opacity="1.00" d=" M 0.00 48.49 C 38.88 93.10 77.89 137.60 116.83 182.16 C 120.98 186.66 119.06 193.34 119.85 198.90 C 113.62 202.06 107.23 204.87 101.00 208.00 C 67.24 177.83 33.74 147.36 0.00 117.17 L 0.00 48.49 Z" />
<path fill="#9d9582" opacity="1.00" d=" M 429.74 213.68 C 457.07 198.30 484.68 183.42 512.00 168.02 L 512.00 291.54 C 503.56 290.33 495.13 289.06 486.68 287.94 C 484.16 276.72 482.80 265.27 480.58 253.99 C 480.17 250.46 476.46 249.00 474.06 246.96 C 459.32 235.83 444.16 225.22 429.74 213.68 Z" />
<path fill="#9d9582" opacity="1.00" d=" M 0.00 174.15 C 26.77 189.07 53.66 203.80 80.44 218.70 C 71.01 225.38 60.76 230.84 51.03 237.09 C 47.70 239.22 46.34 243.13 44.33 246.36 C 38.04 257.06 32.00 267.92 25.49 278.49 C 24.50 281.01 25.78 283.72 26.37 286.21 C 17.57 287.43 8.76 288.61 0.00 290.04 L 0.00 174.15 Z" />
<path fill="#f5e5c1" opacity="1.00" d=" M 163.48 224.51 C 164.74 218.51 170.79 213.78 176.80 213.18 C 176.71 215.13 176.59 217.08 176.53 219.04 C 178.49 221.52 180.36 224.07 182.46 226.45 C 185.65 226.74 188.88 226.93 192.04 226.31 C 193.04 225.81 194.07 225.37 195.12 224.99 C 198.33 222.46 199.29 218.38 199.49 214.49 C 204.28 217.27 209.34 220.74 211.07 226.29 C 197.77 230.47 183.40 230.77 169.90 227.31 C 167.93 226.09 165.11 225.95 163.48 224.51 Z" />
<path fill="#f5722c" opacity="1.00" d=" M 234.44 300.63 C 247.54 298.59 261.27 300.77 272.95 307.10 C 290.66 316.57 303.84 333.18 311.35 351.60 C 322.20 378.01 322.97 408.44 313.52 435.37 C 308.00 451.21 298.50 465.79 285.61 476.61 C 274.02 486.25 259.16 492.44 243.94 492.04 C 224.65 492.40 206.41 482.35 193.81 468.19 C 178.07 450.66 169.69 427.31 168.34 403.97 C 166.81 379.61 172.54 354.50 186.09 334.04 C 197.27 317.49 214.30 303.81 234.44 300.63 Z" />
<path fill="#f5722c" opacity="1.00" d=" M 410.41 300.63 C 422.79 298.73 435.76 300.49 447.00 306.12 C 463.84 314.41 476.84 329.29 484.89 346.06 C 495.39 367.90 498.34 393.03 494.36 416.85 C 491.31 434.08 484.55 450.88 473.42 464.51 C 464.32 475.93 452.15 485.25 438.05 489.48 C 422.59 494.21 405.27 492.50 391.01 484.88 C 375.68 476.82 363.81 463.24 355.99 447.96 C 344.40 425.06 341.49 398.24 346.32 373.15 C 350.22 353.57 358.96 334.45 373.44 320.42 C 383.36 310.31 396.34 302.91 410.41 300.63 Z" />
<path fill="#f5722c" opacity="1.00" d=" M 24.98 301.71 C 64.71 301.80 104.45 301.72 144.19 301.75 C 144.29 320.16 144.29 338.58 144.19 356.99 C 117.03 357.05 89.86 356.92 62.70 357.06 C 62.77 366.84 62.76 376.62 62.70 386.40 C 76.25 386.81 90.20 387.42 102.83 392.84 C 111.14 396.25 118.61 402.46 122.13 410.87 C 126.89 422.22 127.72 435.08 124.99 447.04 C 121.68 461.13 112.55 473.55 100.43 481.38 C 87.98 489.29 73.26 493.30 58.60 493.98 C 57.36 483.17 54.96 472.50 54.03 461.65 C 64.51 460.92 75.46 458.51 83.87 451.88 C 90.23 446.77 92.92 436.70 88.31 429.65 C 84.86 424.77 78.73 423.02 73.10 422.17 C 57.13 420.08 41.07 422.78 25.05 422.50 C 24.91 382.24 25.06 341.98 24.98 301.71 Z" />
<path fill="#9d9582" opacity="1.00" d=" M 0.00 311.50 C 4.63 310.02 9.31 308.73 13.98 307.39 C 13.99 333.51 14.13 359.64 13.91 385.76 C 9.26 388.24 4.52 390.55 0.00 393.27 L 0.00 311.50 Z" />
<path fill="#9d9582" opacity="1.00" d=" M 490.67 308.40 C 497.77 310.53 504.93 312.51 512.00 314.75 L 512.00 399.13 C 510.41 398.19 508.77 397.34 507.14 396.49 C 506.92 378.74 503.23 361.01 496.34 344.65 C 494.84 340.63 492.06 337.14 490.97 332.98 C 490.50 324.80 491.43 316.58 490.67 308.40 Z" />
<path fill="#3e3e3e" opacity="1.00" d=" M 238.51 358.68 C 245.91 357.27 253.81 358.80 260.06 363.04 C 270.92 370.10 276.99 382.59 279.24 395.02 C 281.26 407.73 280.71 421.33 275.03 433.09 C 270.42 443.19 262.15 452.12 251.42 455.66 C 243.66 458.25 234.98 456.22 228.38 451.65 C 218.19 444.84 212.01 433.28 209.56 421.50 C 206.81 406.46 208.23 390.18 215.74 376.65 C 220.55 367.98 228.64 360.78 238.51 358.68 Z" />
<path fill="#3e3e3e" opacity="1.00" d=" M 414.51 358.68 C 421.90 357.27 429.78 358.79 436.02 363.02 C 446.92 370.08 452.99 382.60 455.25 395.05 C 457.25 407.75 456.71 421.32 451.04 433.06 C 446.44 443.17 438.16 452.11 427.44 455.66 C 419.69 458.25 411.03 456.24 404.43 451.68 C 394.22 444.89 388.03 433.33 385.57 421.55 C 382.81 406.48 384.22 390.19 391.75 376.64 C 396.56 367.98 404.64 360.77 414.51 358.68 Z" />
</svg>
