<?xml version="1.0" encoding="UTF-8" ?>
<!DOCTYPE svg PUBLIC "-//W3C//DTD SVG 1.1//EN" "http://www.w3.org/Graphics/SVG/1.1/DTD/svg11.dtd">
<svg width="512pt" height="512pt" viewBox="0 0 512 512" version="1.1" xmlns="http://www.w3.org/2000/svg">
<path fill="#3e3e3e" opacity="1.00" d=" M 0.00 0.00 L 12.54 0.00 C 24.99 19.25 38.10 38.07 50.69 57.24 C 60.87 72.09 70.57 87.28 80.88 102.05 C 81.14 85.70 80.90 69.34 80.99 52.99 C 81.14 46.33 80.03 39.29 83.07 33.07 C 84.15 31.20 83.84 29.08 82.73 27.30 C 77.84 18.25 72.98 9.18 68.33 0.00 L 104.48 0.00 C 106.69 5.79 109.23 11.45 112.00 16.99 C 113.82 20.53 114.98 24.42 117.27 27.69 C 128.52 28.40 139.86 27.90 151.14 27.91 C 148.18 18.44 144.31 9.29 140.84 0.00 L 195.80 0.00 C 197.37 9.29 199.48 18.50 200.68 27.85 C 211.74 28.11 222.80 28.10 233.86 27.83 C 232.96 18.54 231.61 9.30 230.71 0.00 L 302.41 0.00 C 301.03 9.28 299.57 18.56 298.32 27.87 C 311.16 28.02 324.02 28.21 336.86 27.80 C 339.70 18.60 342.16 9.28 344.74 0.00 L 369.22 0.00 C 365.72 9.26 361.89 18.42 358.95 27.87 C 372.63 28.19 386.33 27.88 400.02 28.03 C 402.64 28.04 405.28 28.17 407.88 27.79 C 410.21 25.21 411.15 21.73 412.78 18.71 C 415.98 12.53 418.78 6.14 422.06 0.00 L 443.52 0.00 C 436.84 13.94 429.07 27.32 421.88 40.99 C 419.18 45.53 420.09 50.97 419.99 55.99 C 419.98 71.99 420.06 87.99 419.96 103.98 C 420.02 109.32 418.14 115.99 412.15 117.23 C 403.03 118.89 393.65 117.52 384.42 118.09 C 383.05 125.25 378.75 131.24 375.64 137.69 C 358.69 171.83 341.45 205.84 324.60 240.03 C 327.68 242.55 330.90 244.90 334.36 246.89 C 379.48 179.21 424.93 111.75 470.03 44.06 C 479.93 29.42 489.86 14.80 499.51 0.00 L 512.00 0.00 L 512.00 53.76 C 457.54 117.72 403.18 181.76 348.79 245.78 C 346.64 248.44 343.95 250.74 342.43 253.84 C 343.35 255.98 345.36 257.41 346.91 259.10 C 351.40 263.30 354.92 268.39 359.10 272.89 C 392.07 249.37 424.37 224.92 457.25 201.26 C 472.97 189.64 488.70 178.03 504.59 166.62 C 507.09 164.75 509.63 162.92 512.00 160.89 L 512.00 226.01 C 464.37 246.89 416.82 267.99 369.09 288.64 C 370.84 293.15 373.33 297.33 375.07 301.85 C 377.96 309.69 380.59 317.63 382.39 325.80 C 403.62 324.82 424.78 322.60 445.99 321.16 C 467.99 319.44 489.99 317.63 512.00 316.04 L 512.00 345.25 C 476.66 343.36 441.33 341.27 405.99 339.37 C 398.90 338.93 391.80 338.28 384.69 338.53 C 384.95 347.73 385.15 356.94 384.81 366.14 C 427.20 376.52 469.56 387.04 512.00 397.24 L 512.00 434.16 C 474.01 418.77 436.01 403.41 398.02 388.01 C 392.84 386.00 387.78 383.69 382.50 381.97 C 381.25 389.46 378.46 396.54 376.47 403.82 C 379.06 406.65 382.76 408.06 385.96 410.06 C 427.92 435.01 469.98 459.79 512.00 484.64 L 512.00 512.00 L 483.31 512.00 C 470.79 502.48 458.95 492.12 446.62 482.38 C 430.10 468.93 413.45 455.64 396.97 442.14 C 387.69 434.81 378.93 426.77 369.25 419.97 C 365.06 425.91 361.80 432.50 357.07 438.05 C 355.21 440.33 353.03 442.40 351.65 445.03 C 351.20 446.50 352.67 447.57 353.31 448.73 C 370.40 469.72 387.00 491.10 404.18 512.00 L 358.08 512.00 C 349.59 495.56 342.01 478.66 333.31 462.34 C 321.27 471.84 307.55 479.02 293.19 484.33 C 294.02 493.60 295.55 502.80 296.94 512.00 L 274.68 512.00 C 274.06 504.48 275.16 496.95 274.45 489.44 C 260.87 492.17 246.91 492.46 233.15 491.22 C 232.69 498.14 232.53 505.07 232.28 512.00 L 215.05 512.00 C 216.28 504.18 217.62 496.36 218.07 488.45 C 202.70 485.02 188.00 479.03 174.59 470.77 C 167.15 484.23 161.08 498.41 153.90 512.00 L 107.83 512.00 C 123.23 493.04 138.56 474.01 153.59 454.75 C 146.19 446.47 138.28 438.51 132.49 428.94 C 130.38 429.95 128.32 431.09 126.54 432.62 C 108.76 447.54 90.53 461.91 72.54 476.57 C 57.80 488.23 43.57 500.51 28.70 512.00 L 0.00 512.00 L 0.00 484.48 C 22.88 471.28 45.54 457.71 68.28 444.27 C 86.37 433.41 104.78 423.07 122.65 411.86 C 119.71 404.00 117.04 396.04 114.64 388.00 C 97.71 394.29 81.08 401.43 64.31 408.16 C 42.85 416.77 21.42 425.48 0.00 434.21 L 0.00 397.18 C 30.94 389.94 61.76 382.14 92.64 374.64 C 98.91 372.96 105.32 371.82 111.54 369.90 C 110.62 359.67 111.17 349.41 111.18 339.17 C 74.11 340.94 37.07 343.36 0.00 345.24 L 0.00 316.02 C 37.92 318.77 75.81 322.16 113.75 324.69 C 116.89 313.16 120.19 301.50 126.04 290.99 C 127.43 288.42 128.77 285.83 130.04 283.20 C 86.76 263.99 43.30 245.17 0.00 226.01 L 0.00 160.87 C 16.85 173.79 34.29 185.93 51.27 198.69 C 65.33 208.95 79.44 219.16 93.40 229.55 C 110.04 241.35 126.07 253.98 142.91 265.48 C 147.68 260.73 152.05 255.56 157.22 251.24 C 159.01 249.68 160.95 248.27 162.49 246.47 C 162.79 245.37 161.96 244.50 161.40 243.67 C 107.64 180.32 53.82 117.01 0.00 53.71 L 0.00 0.00 Z" />
<path fill="#6c4b38" opacity="1.00" d=" M 12.54 0.00 L 68.33 0.00 C 72.98 9.18 77.84 18.25 82.73 27.30 C 83.84 29.08 84.15 31.20 83.07 33.07 C 80.03 39.29 81.14 46.33 80.99 52.99 C 80.90 69.34 81.14 85.70 80.88 102.05 C 70.57 87.28 60.87 72.09 50.69 57.24 C 38.10 38.07 24.99 19.25 12.54 0.00 Z" />
<path fill="#6c4b38" opacity="1.00" d=" M 104.48 0.00 L 140.84 0.00 C 144.31 9.29 148.18 18.44 151.14 27.91 C 139.86 27.90 128.52 28.40 117.27 27.69 C 114.98 24.42 113.82 20.53 112.00 16.99 C 109.23 11.45 106.69 5.79 104.48 0.00 Z" />
<path fill="#6c4b38" opacity="1.00" d=" M 195.80 0.00 L 230.71 0.00 C 231.61 9.30 232.96 18.54 233.86 27.83 C 222.80 28.10 211.74 28.11 200.68 27.85 C 199.48 18.50 197.37 9.29 195.80 0.00 Z" />
<path fill="#6c4b38" opacity="1.00" d=" M 302.41 0.00 L 344.74 0.00 C 342.16 9.28 339.70 18.60 336.86 27.80 C 324.02 28.21 311.16 28.02 298.32 27.87 C 299.57 18.56 301.03 9.28 302.41 0.00 Z" />
<path fill="#6c4b38" opacity="1.00" d=" M 369.22 0.00 L 422.06 0.00 C 418.78 6.14 415.98 12.53 412.78 18.71 C 411.15 21.73 410.21 25.21 407.88 27.79 C 405.28 28.17 402.64 28.04 400.02 28.03 C 386.33 27.88 372.63 28.19 358.95 27.87 C 361.89 18.42 365.72 9.26 369.22 0.00 Z" />
<path fill="#6c4b38" opacity="1.00" d=" M 443.52 0.00 L 499.51 0.00 C 489.86 14.80 479.93 29.42 470.03 44.06 C 424.93 111.75 379.48 179.21 334.36 246.89 C 330.90 244.90 327.68 242.55 324.60 240.03 C 341.45 205.84 358.69 171.83 375.64 137.69 C 378.75 131.24 383.05 125.25 384.42 118.09 C 393.65 117.52 403.03 118.89 412.15 117.23 C 418.14 115.99 420.02 109.32 419.96 103.98 C 420.06 87.99 419.98 71.99 419.99 55.99 C 420.09 50.97 419.18 45.53 421.88 40.99 C 429.07 27.32 436.84 13.94 443.52 0.00 Z" />
<path fill="#f5e5c1" opacity="1.00" d=" M 92.00 39.00 C 197.67 38.99 303.34 39.00 409.00 39.00 C 409.00 61.66 409.01 84.33 409.00 107.00 C 303.33 107.00 197.67 106.98 92.00 107.01 C 92.00 84.34 92.00 61.67 92.00 39.00 Z" />
<path fill="#6c4b38" opacity="1.00" d=" M 0.00 53.71 C 53.82 117.01 107.64 180.32 161.40 243.67 C 161.96 244.50 162.79 245.37 162.49 246.47 C 160.95 248.27 159.01 249.68 157.22 251.24 C 152.05 255.56 147.68 260.73 142.91 265.48 C 126.07 253.98 110.04 241.35 93.40 229.55 C 79.44 219.16 65.33 208.95 51.27 198.69 C 34.29 185.93 16.85 173.79 0.00 160.87 L 0.00 53.71 Z" />
<path fill="#6c4b38" opacity="1.00" d=" M 348.79 245.78 C 403.18 181.76 457.54 117.72 512.00 53.76 L 512.00 160.89 C 509.63 162.92 507.09 164.75 504.59 166.62 C 488.70 178.03 472.97 189.64 457.25 201.26 C 424.37 224.92 392.07 249.37 359.10 272.89 C 354.92 268.39 351.40 263.30 346.91 259.10 C 345.36 257.41 343.35 255.98 342.43 253.84 C 343.95 250.74 346.64 248.44 348.79 245.78 Z" />
<path fill="#6c4b38" opacity="1.00" d=" M 91.87 118.27 C 99.47 117.86 107.10 117.86 114.70 118.23 C 115.27 120.57 115.73 123.00 116.91 125.14 C 120.54 131.35 123.75 137.81 126.78 144.34 C 140.50 171.59 154.10 198.91 167.77 226.19 C 169.76 230.53 172.43 234.55 174.00 239.08 C 171.22 238.41 170.19 235.50 168.65 233.43 C 146.93 200.77 124.98 168.29 103.24 135.66 C 99.57 129.78 95.20 124.34 91.87 118.27 Z" />
<path fill="#f5722c" opacity="1.00" d=" M 126.06 118.21 C 161.21 117.94 196.37 118.15 231.53 118.11 C 231.46 152.24 231.37 186.37 231.58 220.50 C 216.77 224.56 201.86 228.20 187.03 232.14 C 185.88 232.26 184.61 233.10 183.51 232.53 C 181.81 230.01 180.68 227.17 179.30 224.48 C 162.88 191.65 146.47 158.82 130.05 126.00 C 128.76 123.38 127.94 120.50 126.06 118.21 Z" />
<path fill="#f5722c" opacity="1.00" d=" M 267.84 118.13 C 297.22 118.03 326.61 118.12 356.00 118.09 C 361.88 118.15 367.76 117.92 373.64 118.28 C 372.91 118.97 372.18 119.67 371.46 120.36 C 370.14 124.96 367.60 129.06 365.55 133.35 C 349.05 166.54 332.26 199.60 315.92 232.87 C 304.46 230.39 293.23 227.00 281.84 224.26 C 277.17 222.84 272.30 222.10 267.74 220.32 C 267.96 186.26 267.77 152.20 267.84 118.13 Z" />
<path fill="#6c4b38" opacity="1.00" d=" M 242.79 118.22 C 244.51 119.19 244.65 121.26 244.97 122.98 C 248.68 154.36 252.30 185.74 255.97 217.12 C 251.55 217.18 247.13 217.13 242.72 216.98 C 242.33 189.64 242.68 162.29 242.52 134.94 C 242.58 129.37 242.32 123.78 242.79 118.22 Z" />
<path fill="#6c4b38" opacity="1.00" d=" M 0.00 226.01 C 43.30 245.17 86.76 263.99 130.04 283.20 C 128.77 285.83 127.43 288.42 126.04 290.99 C 120.19 301.50 116.89 313.16 113.75 324.69 C 75.81 322.16 37.92 318.77 0.00 316.02 L 0.00 226.01 Z" />
<path fill="#6c4b38" opacity="1.00" d=" M 369.09 288.64 C 416.82 267.99 464.37 246.89 512.00 226.01 L 512.00 316.04 C 489.99 317.63 467.99 319.44 445.99 321.16 C 424.78 322.60 403.62 324.82 382.39 325.80 C 380.59 317.63 377.96 309.69 375.07 301.85 C 373.33 297.33 370.84 293.15 369.09 288.64 Z" />
<path fill="#f5e5c1" opacity="1.00" d=" M 234.55 228.76 C 260.43 225.99 287.13 231.38 309.81 244.19 C 336.52 259.09 357.44 284.01 367.39 312.94 C 371.05 323.92 373.79 335.35 373.94 346.97 C 374.15 358.63 374.28 370.46 371.37 381.85 C 364.00 415.89 341.73 446.30 311.56 463.68 C 294.41 473.70 274.87 479.45 255.07 480.71 C 225.70 482.36 195.87 473.33 172.34 455.69 C 144.25 434.82 125.42 401.82 122.29 366.92 C 121.81 353.91 121.36 340.67 124.42 327.91 C 130.67 298.32 148.02 271.29 172.28 253.26 C 190.31 239.66 212.09 231.15 234.55 228.76 Z" />
<path fill="#3e3e3e" opacity="1.00" d=" M 278.01 274.12 C 290.50 273.15 303.40 276.37 313.94 283.20 C 331.53 294.48 343.11 313.72 347.18 334.00 C 352.11 353.08 349.63 373.41 342.65 391.65 C 335.60 408.80 322.59 424.03 305.37 431.49 C 294.18 435.85 281.60 437.68 269.88 434.35 C 253.37 431.01 239.70 419.32 230.52 405.60 C 223.52 395.50 219.80 383.61 217.55 371.64 C 213.99 354.30 216.77 336.26 222.73 319.78 C 229.19 303.23 241.10 288.45 257.01 280.21 C 263.53 276.83 270.79 275.18 278.01 274.12 Z" />
<path fill="#3e3e3e" opacity="1.00" d=" M 174.82 275.78 C 179.75 274.23 184.92 275.58 189.94 275.74 C 197.12 276.55 204.57 276.10 211.47 278.53 C 215.95 280.37 217.87 285.47 217.59 290.03 C 215.98 334.04 214.27 378.04 212.71 422.05 C 212.49 426.33 211.52 431.13 207.59 433.58 C 201.45 437.63 193.79 435.26 186.97 435.26 C 180.26 434.55 173.30 435.24 166.83 433.04 C 161.76 430.89 159.76 425.13 159.99 419.98 C 160.72 395.71 161.71 371.45 162.23 347.18 C 160.10 345.97 157.96 344.64 156.55 342.58 C 152.21 336.54 147.83 330.52 143.50 324.47 C 141.35 321.36 140.14 317.25 141.32 313.54 C 142.41 309.42 145.74 306.51 148.46 303.42 C 154.71 296.07 161.19 288.91 167.43 281.53 C 169.55 279.26 171.68 276.61 174.82 275.78 Z" />
<path fill="#f5722c" opacity="1.00" d=" M 275.32 285.50 C 284.54 284.05 294.26 285.19 302.63 289.43 C 316.83 296.30 327.23 309.48 332.90 324.00 C 341.23 345.09 340.73 369.59 331.29 390.23 C 325.57 402.59 316.28 413.70 304.05 419.99 C 291.35 426.68 275.46 426.79 262.61 420.41 C 250.50 414.44 241.05 403.83 235.24 391.75 C 226.63 374.34 224.95 353.85 229.37 335.04 C 232.84 320.47 240.31 306.57 251.83 296.81 C 258.49 291.08 266.64 287.00 275.32 285.50 Z" />
<path fill="#f5722c" opacity="1.00" d=" M 178.11 285.95 C 187.63 286.45 197.11 287.35 206.62 288.01 C 205.07 333.65 203.16 379.27 201.63 424.91 C 191.46 424.84 181.32 423.71 171.15 423.36 C 170.84 418.34 171.31 413.32 171.38 408.30 C 172.28 381.54 173.04 354.77 174.01 328.01 C 171.24 330.90 169.20 334.58 165.99 336.97 C 161.09 330.31 156.33 323.53 151.48 316.83 C 160.10 306.31 169.42 296.40 178.11 285.95 Z" />
<path fill="#3e3e3e" opacity="1.00" d=" M 278.43 327.65 C 284.82 326.25 291.73 328.02 296.71 332.24 C 303.05 337.41 306.80 345.14 308.45 353.03 C 310.34 363.06 309.95 373.94 305.19 383.16 C 301.69 390.50 295.48 396.87 287.56 399.21 C 280.95 401.05 273.86 398.53 268.88 394.08 C 260.35 386.72 256.50 375.07 256.72 364.03 C 256.52 355.61 258.34 347.02 262.74 339.78 C 266.26 334.03 271.72 329.15 278.43 327.65 Z" />
<path fill="#f5e5c1" opacity="1.00" d=" M 280.36 338.47 C 283.75 337.62 287.48 338.53 290.00 340.99 C 296.99 347.14 299.02 357.04 298.47 365.98 C 298.51 372.96 295.45 379.72 290.86 384.87 C 288.07 387.25 284.38 389.83 280.53 388.44 C 273.67 385.96 270.10 378.76 268.31 372.16 C 267.41 364.33 266.93 355.86 270.52 348.59 C 272.40 344.21 275.70 340.03 280.36 338.47 Z" />
<path fill="#6c4b38" opacity="1.00" d=" M 0.00 345.24 C 37.07 343.36 74.11 340.94 111.18 339.17 C 111.17 349.41 110.62 359.67 111.54 369.90 C 105.32 371.82 98.91 372.96 92.64 374.64 C 61.76 382.14 30.94 389.94 0.00 397.18 L 0.00 345.24 Z" />
<path fill="#6c4b38" opacity="1.00" d=" M 384.69 338.53 C 391.80 338.28 398.90 338.93 405.99 339.37 C 441.33 341.27 476.66 343.36 512.00 345.25 L 512.00 397.24 C 469.56 387.04 427.20 376.52 384.81 366.14 C 385.15 356.94 384.95 347.73 384.69 338.53 Z" />
<path fill="#6c4b38" opacity="1.00" d=" M 382.50 381.97 C 387.78 383.69 392.84 386.00 398.02 388.01 C 436.01 403.41 474.01 418.77 512.00 434.16 L 512.00 484.64 C 469.98 459.79 427.92 435.01 385.96 410.06 C 382.76 408.06 379.06 406.65 376.47 403.82 C 378.46 396.54 381.25 389.46 382.50 381.97 Z" />
<path fill="#6c4b38" opacity="1.00" d=" M 64.31 408.16 C 81.08 401.43 97.71 394.29 114.64 388.00 C 117.04 396.04 119.71 404.00 122.65 411.86 C 104.78 423.07 86.37 433.41 68.28 444.27 C 45.54 457.71 22.88 471.28 0.00 484.48 L 0.00 434.21 C 21.42 425.48 42.85 416.77 64.31 408.16 Z" />
<path fill="#6c4b38" opacity="1.00" d=" M 369.25 419.97 C 378.93 426.77 387.69 434.81 396.97 442.14 C 413.45 455.64 430.10 468.93 446.62 482.38 C 458.95 492.12 470.79 502.48 483.31 512.00 L 404.18 512.00 C 387.00 491.10 370.40 469.72 353.31 448.73 C 352.67 447.57 351.20 446.50 351.65 445.03 C 353.03 442.40 355.21 440.33 357.07 438.05 C 361.80 432.50 365.06 425.91 369.25 419.97 Z" />
<path fill="#6c4b38" opacity="1.00" d=" M 126.54 432.62 C 128.32 431.09 130.38 429.95 132.49 428.94 C 138.28 438.51 146.19 446.47 153.59 454.75 C 138.56 474.01 123.23 493.04 107.83 512.00 L 28.70 512.00 C 43.57 500.51 57.80 488.23 72.54 476.57 C 90.53 461.91 108.76 447.54 126.54 432.62 Z" />
<path fill="#6c4b38" opacity="1.00" d=" M 293.19 484.33 C 307.55 479.02 321.27 471.84 333.31 462.34 C 342.01 478.66 349.59 495.56 358.08 512.00 L 296.94 512.00 C 295.55 502.80 294.02 493.60 293.19 484.33 Z" />
<path fill="#6c4b38" opacity="1.00" d=" M 153.90 512.00 C 161.08 498.41 167.15 484.23 174.59 470.77 C 188.00 479.03 202.70 485.02 218.07 488.45 C 217.62 496.36 216.28 504.18 215.05 512.00 L 153.90 512.00 Z" />
<path fill="#6c4b38" opacity="1.00" d=" M 233.15 491.22 C 246.91 492.46 260.87 492.17 274.45 489.44 C 275.16 496.95 274.06 504.48 274.68 512.00 L 232.28 512.00 C 232.53 505.07 232.69 498.14 233.15 491.22 Z" />
</svg>
