<?xml version="1.0" encoding="UTF-8" ?>
<!DOCTYPE svg PUBLIC "-//W3C//DTD SVG 1.1//EN" "http://www.w3.org/Graphics/SVG/1.1/DTD/svg11.dtd">
<svg width="512pt" height="512pt" viewBox="0 0 512 512" version="1.1" xmlns="http://www.w3.org/2000/svg">
<path fill="#3e3e3e" opacity="1.00" d=" M 0.00 0.00 L 74.82 0.00 C 78.09 35.66 81.68 71.30 84.95 106.96 C 56.62 102.07 28.29 97.20 0.00 92.15 L 0.00 0.00 Z" />
<path fill="#f3722e" opacity="1.00" d=" M 74.82 0.00 L 83.69 0.00 C 104.40 17.08 125.12 34.14 145.79 51.26 C 148.60 53.74 152.50 54.32 156.11 54.52 C 157.83 53.10 159.05 51.20 160.35 49.42 C 172.31 32.90 184.65 16.65 196.43 0.00 L 228.10 0.00 C 237.26 16.87 246.05 33.95 255.08 50.90 C 256.86 54.26 258.50 57.71 260.64 60.86 C 262.77 59.16 264.93 56.91 267.91 57.26 C 276.92 47.81 285.44 37.90 294.29 28.31 C 302.70 18.85 311.43 9.67 319.60 0.00 L 329.43 0.00 C 332.56 20.33 335.82 40.64 339.01 60.96 C 364.35 53.07 389.61 44.95 414.94 37.06 C 406.63 60.66 398.22 84.24 389.84 107.81 C 389.22 109.33 389.47 110.97 389.55 112.56 C 394.76 112.66 399.93 111.96 405.12 111.57 C 431.41 109.43 457.68 107.13 483.98 105.05 C 478.71 139.71 473.27 174.35 468.04 209.01 C 482.69 211.13 497.32 213.48 512.00 215.43 L 512.00 241.66 C 498.09 251.84 484.00 261.79 470.09 271.97 C 482.22 286.46 494.70 300.67 506.91 315.10 C 508.52 317.02 510.28 318.81 512.00 320.64 L 512.00 321.00 C 483.01 326.04 453.99 330.94 425.02 336.07 C 438.79 351.61 452.49 367.22 466.25 382.78 C 474.73 392.54 483.56 402.01 491.76 412.01 C 467.23 416.81 442.53 420.95 418.05 425.93 C 419.01 437.40 421.30 448.75 422.75 460.18 C 424.50 472.11 426.23 484.04 428.02 495.96 C 389.33 484.08 350.72 471.95 312.04 460.04 C 302.61 473.29 293.39 486.69 284.00 499.97 C 261.27 486.15 238.83 471.80 215.98 458.20 C 192.63 475.22 169.44 492.53 146.33 509.89 C 144.51 506.26 143.59 502.30 142.33 498.47 C 138.80 487.40 135.20 476.36 131.76 465.27 C 131.08 465.16 129.71 464.93 129.03 464.82 C 127.95 457.82 127.21 450.70 124.95 443.95 C 122.39 436.14 120.00 428.28 117.35 420.51 C 91.93 428.50 66.68 437.03 41.18 444.77 C 52.97 418.80 65.11 392.99 76.95 367.04 C 51.30 366.94 25.65 367.07 0.00 366.97 L 0.00 366.69 C 13.32 343.98 26.22 321.01 39.18 298.10 C 26.10 288.24 13.29 278.02 0.00 268.45 L 0.00 214.28 C 12.29 203.51 24.65 192.82 36.94 182.06 C 24.78 156.49 12.34 131.06 0.00 105.58 L 0.00 92.15 C 28.29 97.20 56.62 102.07 84.95 106.96 C 81.68 71.30 78.09 35.66 74.82 0.00 Z" />
<path fill="#3e3e3e" opacity="1.00" d=" M 83.69 0.00 L 196.43 0.00 C 184.65 16.65 172.31 32.90 160.35 49.42 C 159.05 51.20 157.83 53.10 156.11 54.52 C 152.50 54.32 148.60 53.74 145.79 51.26 C 125.12 34.14 104.40 17.08 83.69 0.00 Z" />
<path fill="#3e3e3e" opacity="1.00" d=" M 228.10 0.00 L 319.60 0.00 C 311.43 9.67 302.70 18.85 294.29 28.31 C 285.44 37.90 276.92 47.81 267.91 57.26 C 264.93 56.91 262.77 59.16 260.64 60.86 C 258.50 57.71 256.86 54.26 255.08 50.90 C 246.05 33.95 237.26 16.87 228.10 0.00 Z" />
<path fill="#3e3e3e" opacity="1.00" d=" M 329.43 0.00 L 512.00 0.00 L 512.00 215.43 C 497.32 213.48 482.69 211.13 468.04 209.01 C 473.27 174.35 478.71 139.71 483.98 105.05 C 457.68 107.13 431.41 109.43 405.12 111.57 C 399.93 111.96 394.76 112.66 389.55 112.56 C 389.47 110.97 389.22 109.33 389.84 107.81 C 398.22 84.24 406.63 60.66 414.94 37.06 C 389.61 44.95 364.35 53.07 339.01 60.96 C 335.82 40.64 332.56 20.33 329.43 0.00 Z" />
<path fill="#3e3e3e" opacity="1.00" d=" M 105.40 61.44 C 110.36 56.79 115.22 51.54 121.14 48.30 C 125.95 50.10 130.95 51.20 135.96 52.23 C 143.25 55.80 150.68 59.10 158.05 62.52 C 162.78 64.31 165.04 69.16 168.48 72.52 C 182.62 72.78 196.78 72.47 210.91 73.13 C 239.29 73.43 267.68 73.38 296.07 73.21 C 300.71 73.46 305.36 73.32 309.98 72.73 C 322.99 72.61 336.01 72.49 349.03 72.40 C 350.71 72.04 351.70 73.26 352.38 74.59 C 385.34 131.32 418.16 188.13 451.13 244.86 C 452.45 247.60 454.61 250.01 455.38 252.97 C 437.10 285.72 418.39 318.24 400.01 350.94 C 385.16 376.76 370.79 402.87 355.81 428.61 C 344.22 427.68 332.56 428.61 320.95 427.85 C 284.98 427.76 249.01 427.29 213.04 427.23 C 207.35 427.80 201.65 427.58 195.98 426.91 C 181.22 426.64 166.44 426.76 151.68 426.55 C 122.13 375.99 92.71 325.36 63.28 274.73 C 58.47 265.42 52.52 256.80 47.51 247.61 C 46.63 246.44 47.33 245.11 47.88 243.99 C 66.48 207.30 84.98 170.56 103.60 133.87 C 108.53 123.98 114.84 114.85 119.75 104.95 C 119.03 103.53 117.25 103.31 116.02 102.52 C 110.17 105.48 104.18 108.13 98.47 111.37 C 98.30 106.85 99.49 102.43 99.66 97.93 C 101.23 87.02 102.24 76.04 103.73 65.12 C 103.89 63.75 104.29 62.33 105.40 61.44 Z" />
<path fill="#f5e5c1" opacity="1.00" d=" M 109.76 63.75 C 114.56 60.24 119.10 56.34 124.03 53.02 C 136.23 57.39 148.11 62.66 160.18 67.39 C 159.41 68.19 158.58 68.95 157.61 69.50 C 139.39 80.73 121.55 92.56 103.08 103.36 C 104.27 91.84 106.20 80.41 107.61 68.92 C 107.87 67.07 107.91 64.79 109.76 63.75 Z" />
<path fill="#f5e5c1" opacity="1.00" d=" M 130.70 110.92 C 130.68 98.26 139.24 86.38 150.53 81.07 C 155.79 93.77 161.56 106.25 167.01 118.88 C 167.80 120.89 169.10 122.76 169.39 124.93 C 165.57 144.37 162.11 163.89 158.26 183.33 C 150.17 183.43 142.10 184.18 134.01 184.24 C 135.48 167.48 137.52 150.77 138.58 133.98 C 138.70 132.08 138.46 129.49 140.62 128.64 C 143.30 127.22 145.77 124.71 149.05 125.10 C 153.62 125.10 158.19 125.12 162.76 125.15 L 162.19 124.06 C 158.42 122.44 154.12 122.41 150.16 121.30 C 146.22 120.02 142.80 123.25 138.96 123.61 C 136.67 119.09 133.56 115.07 130.70 110.92 Z" />
<path fill="#f3722e" opacity="1.00" d=" M 170.27 106.45 C 226.51 102.98 282.77 99.43 339.04 96.25 C 341.06 99.35 343.24 102.36 345.03 105.61 C 339.86 105.76 333.27 105.15 329.95 110.01 C 328.29 113.28 327.74 116.97 326.58 120.43 C 325.78 123.34 322.49 124.83 322.11 127.97 C 321.22 136.50 321.79 145.21 320.70 153.69 C 316.62 155.41 311.76 152.61 307.76 154.81 C 304.01 156.81 300.05 158.39 296.41 160.59 C 283.04 168.43 269.92 176.67 256.64 184.66 C 252.83 186.84 249.29 189.50 245.23 191.21 C 244.04 186.55 245.97 180.68 241.84 177.14 C 237.62 173.49 231.78 175.82 226.93 176.45 C 210.50 178.46 194.22 181.50 177.82 183.73 C 175.36 180.55 171.32 179.73 167.51 179.71 C 169.90 164.07 173.30 148.59 176.05 133.01 C 176.38 129.65 178.60 126.25 177.12 122.91 C 174.85 117.41 172.45 111.98 170.27 106.45 Z" />
<path fill="#3e3e3e" opacity="1.00" d=" M 0.00 105.58 C 12.34 131.06 24.78 156.49 36.94 182.06 C 24.65 192.82 12.29 203.51 0.00 214.28 L 0.00 105.58 Z" />
<path fill="#f5e5c1" opacity="1.00" d=" M 337.03 114.08 C 344.36 113.56 351.76 113.82 359.12 113.66 C 360.84 113.40 361.99 114.99 362.97 116.15 C 364.05 120.53 364.71 125.00 365.52 129.44 C 354.85 127.88 344.13 126.72 333.44 125.33 C 334.77 121.63 335.50 117.71 337.03 114.08 Z" />
<path fill="#f5e5c1" opacity="1.00" d=" M 329.73 134.99 C 329.79 133.09 329.63 131.12 330.42 129.35 C 343.19 131.47 356.05 133.02 368.88 134.69 C 367.24 144.55 363.84 154.08 361.56 163.82 C 350.57 162.14 339.70 159.73 328.72 157.96 C 329.03 150.30 329.59 142.65 329.73 134.99 Z" />
<path fill="#f3722e" opacity="1.00" d=" M 108.47 182.43 C 116.66 170.67 124.50 158.64 132.85 146.99 C 134.46 147.86 133.67 149.68 133.60 151.05 C 131.79 161.68 130.12 172.35 128.74 183.04 C 128.78 185.05 126.42 184.84 125.04 185.06 C 118.69 185.38 112.39 186.31 106.05 186.79 C 106.62 185.21 107.51 183.79 108.47 182.43 Z" />
<path fill="#f3722e" opacity="1.00" d=" M 373.59 149.91 C 374.46 150.59 375.20 151.39 375.74 152.37 C 379.67 158.64 383.80 164.79 387.83 171.00 C 384.30 169.50 381.56 166.58 377.94 165.26 C 375.52 164.37 373.02 163.73 370.52 163.11 C 370.70 158.57 372.65 154.33 373.59 149.91 Z" />
<path fill="#f5e5c1" opacity="1.00" d=" M 300.04 168.01 C 306.81 164.58 314.07 161.42 321.84 162.09 C 321.90 165.67 322.09 169.32 321.19 172.83 C 319.60 178.42 320.99 184.24 321.26 189.92 C 321.33 198.35 323.32 206.59 324.60 214.89 C 325.88 219.04 327.25 223.17 327.79 227.52 C 329.84 234.30 332.94 240.72 335.33 247.39 C 328.22 247.44 321.15 246.66 314.05 246.62 C 303.66 246.19 293.12 246.41 282.92 244.15 C 279.85 242.24 276.39 240.66 273.86 238.06 C 273.60 235.48 273.84 232.89 273.56 230.32 C 272.76 228.70 270.91 227.38 269.03 227.67 C 265.35 227.72 261.70 228.30 258.02 228.34 C 255.21 225.42 252.22 222.64 249.69 219.47 C 247.37 213.30 247.30 206.63 247.16 200.13 C 264.78 189.42 282.40 178.70 300.04 168.01 Z" />
<path fill="#f5e5c1" opacity="1.00" d=" M 325.65 178.08 C 326.32 172.65 327.12 167.15 329.67 162.23 C 339.65 164.10 349.66 165.82 359.62 167.80 C 365.04 169.65 370.61 171.08 375.97 173.09 C 382.33 176.99 388.51 181.20 394.70 185.36 C 394.59 189.10 391.41 192.34 390.44 196.03 C 389.27 200.95 388.47 205.98 387.73 210.98 C 388.31 215.66 389.57 220.22 390.45 224.85 C 390.61 227.68 393.08 229.35 394.37 231.64 C 398.40 239.40 405.55 244.84 410.61 251.86 C 405.86 258.36 401.62 265.22 397.06 271.86 C 394.15 270.53 391.10 269.42 388.39 267.69 C 381.47 261.49 376.15 253.30 367.93 248.68 C 359.39 248.29 350.84 248.01 342.29 247.67 C 338.27 236.59 332.63 226.14 328.48 215.12 C 326.52 202.93 323.05 190.45 325.65 178.08 Z" />
<path fill="#3e3e3e" opacity="1.00" d=" M 331.41 166.24 C 332.95 168.17 335.03 170.35 334.33 173.05 C 333.32 174.90 330.38 173.95 330.24 172.03 C 329.72 170.01 330.74 168.08 331.41 166.24 Z" />
<path fill="#f5e5c1" opacity="1.00" d=" M 177.76 191.90 C 197.27 189.28 216.62 185.48 236.18 183.34 C 236.81 203.49 238.02 223.61 238.82 243.76 C 221.26 243.21 203.70 242.67 186.16 241.79 C 183.11 225.20 180.60 208.52 177.76 191.90 Z" />
<path fill="#f5e5c1" opacity="1.00" d=" M 103.90 191.80 C 125.42 190.89 146.90 189.25 168.42 188.23 C 170.39 194.23 171.92 200.37 173.69 206.43 C 150.15 207.72 126.59 208.70 103.05 209.93 C 101.59 210.07 100.12 210.09 98.70 209.70 C 98.52 205.81 97.59 202.02 97.43 198.14 C 99.61 196.04 101.65 193.82 103.90 191.80 Z" />
<path fill="#f5e5c1" opacity="1.00" d=" M 392.44 211.02 C 393.57 203.72 394.38 195.55 400.11 190.20 C 404.47 193.49 406.80 198.66 410.22 202.81 C 413.49 206.58 413.86 211.76 415.95 216.13 C 417.88 220.75 420.62 225.84 418.51 230.90 C 416.69 236.33 416.89 244.05 410.89 246.72 C 406.48 242.14 403.18 236.68 399.51 231.53 C 397.56 228.56 394.89 225.80 394.46 222.13 C 393.86 218.41 392.76 214.77 392.44 211.02 Z" />
<path fill="#3e3e3e" opacity="1.00" d=" M 332.02 213.16 C 331.38 210.96 330.33 207.30 333.09 206.18 C 335.48 205.39 336.03 208.26 335.79 209.97 C 335.59 211.88 333.60 212.67 332.02 213.16 Z" />
<path fill="#f5e5c1" opacity="1.00" d=" M 135.02 215.04 C 145.98 214.03 156.93 212.86 167.88 211.79 C 167.79 221.94 167.82 232.09 167.86 242.24 C 153.27 242.13 138.68 241.67 124.07 241.66 C 126.71 249.49 125.36 257.89 126.32 265.98 C 127.47 272.91 128.04 279.93 128.31 286.95 C 126.75 284.91 126.41 282.28 125.73 279.88 C 121.05 262.47 116.02 245.15 111.33 227.75 L 111.67 227.04 C 117.19 223.37 122.93 220.03 128.61 216.61 C 130.49 215.30 132.83 215.30 135.02 215.04 Z" />
<path fill="#f3722e" opacity="1.00" d=" M 86.01 216.99 C 86.95 215.59 87.63 213.82 89.29 213.11 C 89.53 214.56 88.96 216.60 90.54 217.47 C 93.25 219.20 96.72 218.58 99.76 219.18 C 104.88 237.72 109.79 256.32 114.89 274.87 C 112.18 274.07 109.48 272.97 106.60 273.23 C 103.69 281.67 100.59 290.04 97.34 298.35 C 113.04 307.90 129.39 316.38 145.19 325.77 C 146.72 328.96 146.65 333.11 149.25 335.65 C 160.92 336.57 172.65 336.21 184.31 337.10 C 183.85 343.22 182.60 349.27 181.40 355.28 C 176.35 356.19 170.92 356.94 166.38 359.19 C 165.69 364.44 165.68 369.76 165.49 375.05 C 165.15 376.61 166.67 377.61 167.33 378.84 C 164.47 384.65 164.90 391.25 166.38 397.37 C 162.91 397.03 159.45 396.68 155.96 396.68 C 124.65 349.53 93.72 302.13 62.39 254.99 C 69.96 242.14 78.25 229.73 86.01 216.99 Z" />
<path fill="#f3722e" opacity="1.00" d=" M 423.16 232.07 C 424.26 230.51 426.96 230.16 427.91 232.12 C 432.27 239.07 436.88 245.87 441.15 252.87 C 433.88 262.85 427.73 273.61 420.87 283.88 C 397.63 319.99 374.41 356.12 351.21 392.26 C 347.81 397.30 344.84 402.63 340.99 407.35 C 329.75 406.73 318.52 405.93 307.27 405.46 C 309.71 400.05 311.24 394.22 311.57 388.30 C 315.08 387.50 319.44 386.72 320.87 382.89 C 322.59 377.78 322.19 372.26 323.08 366.99 C 323.93 362.24 321.65 356.59 316.54 355.53 C 310.78 354.92 304.90 356.04 299.19 354.90 C 300.12 349.70 300.95 344.48 302.19 339.35 C 315.48 338.95 328.76 339.77 342.05 339.89 C 346.87 339.72 352.21 341.23 356.55 338.45 C 357.79 334.64 357.68 330.25 359.81 326.84 C 370.79 321.97 381.98 317.54 393.01 312.78 C 393.97 307.82 393.29 302.54 393.48 297.46 C 396.09 296.53 399.16 296.86 401.58 295.53 C 404.43 290.75 407.21 285.91 409.78 280.98 C 408.71 277.66 406.34 274.88 404.65 271.84 C 408.05 265.38 412.70 259.66 416.13 253.22 C 418.58 246.21 421.18 239.23 423.16 232.07 Z" />
<path fill="#f5e5c1" opacity="1.00" d=" M 250.46 233.85 C 256.92 233.33 263.30 232.10 269.72 231.29 C 269.27 262.22 267.95 293.12 267.28 324.05 C 266.95 325.89 268.96 326.80 270.44 327.06 C 270.40 324.50 270.41 321.94 270.47 319.38 C 293.94 319.56 317.39 320.18 340.85 320.41 C 340.51 322.62 340.04 324.81 339.73 327.04 C 340.76 328.45 343.76 327.96 344.28 326.17 C 348.24 306.12 352.54 286.12 356.58 266.08 C 357.02 262.48 358.81 259.23 359.10 255.60 C 362.40 255.43 365.69 255.70 368.98 255.81 C 369.77 257.71 370.42 259.68 370.35 261.77 C 372.08 263.34 373.93 264.82 376.04 265.86 C 384.53 270.15 393.14 274.21 401.60 278.55 C 401.16 282.48 398.02 286.09 396.68 289.96 C 388.38 286.15 380.47 281.51 372.40 277.26 C 373.38 273.94 374.33 270.60 374.88 267.18 C 373.29 266.10 371.40 266.02 369.57 266.39 C 366.21 281.73 362.74 297.06 359.13 312.34 C 360.54 312.82 361.96 313.32 363.38 313.82 C 364.16 310.76 364.70 307.64 365.67 304.63 C 372.00 300.59 379.16 297.85 386.26 295.44 C 386.44 299.33 386.81 303.20 387.17 307.08 C 385.46 308.55 383.24 309.21 381.24 310.17 C 372.03 314.34 362.83 318.53 353.65 322.77 C 352.93 325.94 352.20 329.12 351.26 332.24 C 332.50 332.58 313.72 330.68 295.00 332.37 C 292.27 332.59 289.74 331.20 287.02 331.26 C 276.44 331.27 265.88 330.73 255.30 330.73 C 254.23 314.15 253.68 297.54 252.67 280.96 C 252.15 265.24 250.78 249.57 250.46 233.85 Z" />
<path fill="#3e3e3e" opacity="1.00" d=" M 342.74 240.97 C 343.73 239.14 345.96 238.85 347.69 238.07 C 348.85 241.01 349.04 246.26 345.01 246.86 C 343.04 245.79 342.36 243.06 342.74 240.97 Z" />
<path fill="#3e3e3e" opacity="1.00" d=" M 470.09 271.97 C 484.00 261.79 498.09 251.84 512.00 241.66 L 512.00 320.64 C 510.28 318.81 508.52 317.02 506.91 315.10 C 494.70 300.67 482.22 286.46 470.09 271.97 Z" />
<path fill="#f5e5c1" opacity="1.00" d=" M 129.57 245.52 C 135.60 245.55 141.61 246.14 147.64 246.29 C 153.70 270.37 160.59 294.27 165.58 318.60 C 166.39 320.81 168.00 322.95 170.36 323.63 C 170.02 321.42 169.62 319.22 169.22 317.03 C 173.65 318.42 178.36 318.01 182.94 318.19 C 204.10 318.58 225.29 318.44 246.44 319.10 C 246.55 320.43 246.45 321.80 246.80 323.11 C 248.79 325.66 252.65 326.79 252.77 330.56 C 244.16 330.77 235.55 330.25 226.96 330.79 C 217.34 329.75 207.65 330.53 198.01 329.88 C 183.66 329.68 169.31 329.53 154.97 329.28 C 153.72 329.36 152.93 328.80 152.61 327.60 C 144.56 300.35 137.08 272.93 129.57 245.52 Z" />
<path fill="#f5e5c1" opacity="1.00" d=" M 159.19 249.25 C 178.82 249.88 198.44 250.64 218.07 251.36 C 226.55 251.74 235.05 251.55 243.51 252.35 C 243.66 259.15 245.11 265.83 245.72 272.59 C 232.81 273.17 219.92 271.38 207.00 271.44 C 191.59 270.66 176.16 270.57 160.75 269.59 C 160.57 262.78 159.56 256.04 159.19 249.25 Z" />
<path fill="#f5e5c1" opacity="1.00" d=" M 275.35 256.15 C 301.05 256.36 326.77 256.55 352.46 257.37 C 351.48 262.00 350.61 266.67 349.88 271.35 C 340.59 271.74 331.31 270.61 322.02 270.53 C 306.50 269.69 290.93 269.60 275.42 268.47 C 275.36 264.36 275.43 260.26 275.35 256.15 Z" />
<path fill="#3e3e3e" opacity="1.00" d=" M 0.00 268.45 C 13.29 278.02 26.10 288.24 39.18 298.10 C 26.22 321.01 13.32 343.98 0.00 366.69 L 0.00 268.45 Z" />
<path fill="#f5e5c1" opacity="1.00" d=" M 163.48 275.26 C 190.52 275.12 217.57 275.81 244.60 276.37 C 244.36 281.25 245.56 286.13 245.12 290.98 C 239.79 291.58 234.36 290.95 228.99 291.14 C 207.89 290.52 186.77 290.76 165.66 290.37 C 164.94 285.33 164.44 280.26 163.48 275.26 Z" />
<path fill="#f5e5c1" opacity="1.00" d=" M 275.41 291.52 C 275.49 286.57 275.18 281.61 275.58 276.67 C 296.03 277.36 316.50 277.44 336.96 277.77 C 340.86 277.89 344.79 277.55 348.65 278.29 C 347.39 282.93 347.31 287.83 345.72 292.39 C 322.29 291.85 298.85 291.67 275.41 291.52 Z" />
<path fill="#f5e5c1" opacity="1.00" d=" M 107.20 281.06 C 114.42 282.49 120.77 286.56 127.39 289.61 C 131.84 291.24 133.91 295.77 136.85 299.13 C 139.67 303.25 144.17 306.69 144.50 312.05 C 144.22 313.79 143.59 315.47 143.05 317.15 C 140.90 315.91 138.93 314.38 136.76 313.17 C 125.19 307.32 113.37 301.98 101.95 295.82 C 103.27 290.76 105.58 286.03 107.20 281.06 Z" />
<path fill="#f5e5c1" opacity="1.00" d=" M 372.54 293.02 C 373.95 290.07 375.06 286.98 376.68 284.13 C 381.07 286.07 385.47 288.01 390.04 289.49 C 389.52 290.72 388.77 291.83 387.92 292.86 C 383.31 292.63 379.41 295.82 375.05 296.95 C 374.21 295.64 373.37 294.33 372.54 293.02 Z" />
<path fill="#f5e5c1" opacity="1.00" d=" M 275.42 301.41 C 298.45 301.30 321.45 300.62 344.48 300.44 C 343.79 304.77 342.83 309.05 342.35 313.41 C 320.06 313.74 297.75 313.46 275.45 313.54 C 275.42 309.49 275.43 305.45 275.42 301.41 Z" />
<path fill="#f5e5c1" opacity="1.00" d=" M 167.25 302.62 C 186.15 302.97 205.07 302.25 223.97 302.19 C 231.20 302.29 238.41 301.72 245.63 301.73 C 245.78 305.63 246.03 309.52 246.43 313.41 C 220.55 313.74 194.67 313.47 168.79 313.45 C 168.43 309.82 167.86 306.21 167.25 302.62 Z" />
<path fill="#3e3e3e" opacity="1.00" d=" M 425.02 336.07 C 453.99 330.94 483.01 326.04 512.00 321.00 L 512.00 512.00 L 0.00 512.00 L 0.00 366.97 C 25.65 367.07 51.30 366.94 76.95 367.04 C 65.11 392.99 52.97 418.80 41.18 444.77 C 66.68 437.03 91.93 428.50 117.35 420.51 C 120.00 428.28 122.39 436.14 124.95 443.95 C 127.21 450.70 127.95 457.82 129.03 464.82 C 129.71 464.93 131.08 465.16 131.76 465.27 C 135.20 476.36 138.80 487.40 142.33 498.47 C 143.59 502.30 144.51 506.26 146.33 509.89 C 169.44 492.53 192.63 475.22 215.98 458.20 C 238.83 471.80 261.27 486.15 284.00 499.97 C 293.39 486.69 302.61 473.29 312.04 460.04 C 350.72 471.95 389.33 484.08 428.02 495.96 C 426.23 484.04 424.50 472.11 422.75 460.18 C 421.30 448.75 419.01 437.40 418.05 425.93 C 442.53 420.95 467.23 416.81 491.76 412.01 C 483.56 402.01 474.73 392.54 466.25 382.78 C 452.49 367.22 438.79 351.61 425.02 336.07 Z" />
<path fill="#f5e5c1" opacity="1.00" d=" M 228.08 341.85 C 249.92 340.91 271.75 339.76 293.58 338.75 C 293.09 345.05 290.78 351.06 290.07 357.34 C 256.44 357.39 222.80 357.33 189.18 356.82 C 188.42 354.19 188.45 351.20 189.78 348.78 C 193.43 346.82 197.27 345.19 201.09 343.56 C 210.00 342.17 219.11 342.73 228.08 341.85 Z" />
<path fill="#f5e5c1" opacity="1.00" d=" M 172.64 363.49 C 220.04 363.00 267.50 363.52 314.92 363.23 C 314.72 368.77 313.85 374.26 313.48 379.80 C 266.50 377.26 219.45 375.78 172.45 373.61 C 172.61 370.29 171.40 366.58 172.64 363.49 Z" />
<path fill="#f5e5c1" opacity="1.00" d=" M 172.76 385.49 C 175.59 385.57 178.43 385.65 181.27 385.70 C 181.88 387.80 181.69 390.35 182.94 392.15 C 196.00 392.60 209.09 392.57 222.15 392.96 C 217.10 404.64 202.94 410.32 190.89 407.28 C 200.41 415.26 215.97 413.23 224.02 404.02 C 228.09 399.59 230.27 393.66 230.60 387.70 C 232.99 387.78 235.40 387.83 237.79 387.51 C 239.25 391.99 237.41 396.50 235.63 400.58 C 230.50 411.53 219.09 419.26 206.98 419.71 C 194.10 420.48 181.38 412.62 176.00 400.96 C 173.69 396.16 172.81 390.79 172.76 385.49 Z" />
<path fill="#f5e5c1" opacity="1.00" d=" M 238.81 390.93 C 238.94 389.77 239.44 388.81 240.31 388.04 C 242.99 388.25 245.69 388.31 248.38 388.32 C 249.04 390.72 249.65 393.14 250.21 395.57 C 261.80 396.16 273.40 396.71 284.99 397.48 C 280.35 403.59 272.68 407.53 264.93 406.71 C 259.68 406.42 254.96 403.71 251.08 400.32 C 255.40 407.92 264.30 412.63 273.03 411.72 C 283.94 410.98 293.49 401.36 293.84 390.37 C 297.10 390.24 300.36 390.33 303.63 390.39 C 302.64 397.49 299.75 404.46 294.65 409.59 C 286.54 418.34 273.41 421.93 261.97 418.58 C 249.57 415.21 239.91 403.75 238.81 390.93 Z" />
</svg>
