<?xml version="1.0" encoding="UTF-8" ?>
<!DOCTYPE svg PUBLIC "-//W3C//DTD SVG 1.1//EN" "http://www.w3.org/Graphics/SVG/1.1/DTD/svg11.dtd">
<svg width="512pt" height="512pt" viewBox="0 0 512 512" version="1.1" xmlns="http://www.w3.org/2000/svg">
<path fill="#3e3e3e" opacity="1.00" d=" M 0.00 0.00 L 512.00 0.00 L 512.00 512.00 L 0.00 512.00 L 0.00 0.00 Z" />
<path fill="#f5722c" opacity="1.00" d=" M 305.16 17.99 C 307.35 14.76 309.02 11.24 310.72 7.74 C 310.63 18.64 310.32 29.56 309.69 40.45 C 309.32 53.28 309.42 66.12 308.81 78.95 C 308.78 92.33 307.65 105.68 307.53 119.05 C 332.59 107.11 357.98 95.84 383.10 84.01 C 379.70 90.40 374.91 95.91 370.93 101.93 C 364.70 110.99 358.11 119.78 351.99 128.91 C 370.29 140.68 389.24 151.47 407.40 163.45 C 393.53 166.23 379.66 169.06 365.78 171.73 C 363.09 171.22 361.43 168.29 359.34 166.64 C 346.27 167.88 333.18 168.98 320.09 170.10 C 316.14 170.37 312.20 171.24 308.23 171.00 C 303.91 162.76 301.67 153.64 297.65 145.26 C 295.58 140.03 294.24 134.49 291.41 129.57 C 281.88 137.33 271.94 144.59 262.18 152.06 C 254.06 143.19 246.27 134.01 238.08 125.20 C 236.57 129.75 234.34 133.99 232.04 138.17 C 228.42 146.47 223.98 154.35 220.34 162.63 C 204.62 164.67 188.82 166.10 173.10 168.12 C 169.08 168.56 164.91 169.33 160.95 168.12 C 149.09 164.57 137.18 161.22 125.30 157.73 C 141.16 149.12 156.74 139.98 172.42 131.04 C 171.59 128.18 170.89 125.28 170.28 122.37 C 168.62 114.77 165.54 107.56 164.05 99.92 C 162.55 92.12 159.38 84.75 157.80 76.96 C 156.28 68.84 152.88 61.22 151.31 53.11 C 149.95 46.12 147.37 39.45 145.52 32.58 C 146.75 33.29 147.99 33.99 149.17 34.78 C 169.97 49.95 190.86 64.99 211.69 80.13 C 214.31 81.96 216.87 83.88 219.30 85.96 C 220.70 69.31 220.08 52.57 220.82 35.88 C 234.54 55.40 247.76 75.30 261.52 94.78 C 276.37 69.37 290.60 43.57 305.16 17.99 Z" />
<path fill="#f5e5c1" opacity="1.00" d=" M 76.22 169.02 C 78.51 168.16 80.71 167.09 83.03 166.34 C 87.48 167.79 91.57 170.21 95.90 171.99 C 98.00 173.11 100.69 173.64 102.00 175.81 C 110.73 189.82 119.28 203.95 128.10 217.90 C 134.55 226.97 141.66 235.55 148.77 244.11 C 148.51 237.83 147.94 231.51 146.59 225.37 C 147.01 225.37 147.87 225.36 148.29 225.36 C 156.76 241.68 165.41 257.90 173.92 274.19 C 175.71 277.76 178.81 280.81 179.02 285.02 C 181.53 306.38 185.57 327.57 186.85 349.06 C 187.93 360.09 188.30 371.17 189.50 382.19 C 200.49 388.15 211.13 394.73 221.94 401.01 C 229.76 405.69 237.79 410.04 245.42 415.03 C 245.81 413.56 246.25 412.06 247.78 411.41 C 247.41 383.28 247.54 355.14 246.87 327.02 C 246.89 303.93 246.61 280.84 246.38 257.76 C 245.83 257.52 244.74 257.06 244.19 256.83 C 243.96 255.47 243.73 254.11 243.51 252.76 C 244.29 252.12 245.08 251.48 245.87 250.85 C 246.11 239.24 246.32 227.64 246.39 216.03 C 245.07 214.98 243.35 214.27 242.40 212.86 C 242.03 210.91 241.96 208.91 241.55 206.97 C 240.20 204.30 238.35 201.87 236.29 199.72 C 231.96 197.18 227.08 195.23 221.99 195.33 C 211.31 195.21 200.53 193.54 189.94 195.48 C 181.69 196.73 173.39 197.48 165.11 198.46 C 161.75 198.86 158.27 198.90 155.08 197.62 C 151.43 196.83 150.03 193.04 147.98 190.37 C 149.70 189.84 151.43 189.34 153.15 188.80 C 150.68 188.20 148.20 187.65 145.70 187.18 C 145.12 185.93 144.55 184.69 143.99 183.45 C 156.15 181.56 168.29 179.58 180.48 177.84 C 189.31 177.41 198.16 177.47 206.99 177.19 C 211.33 176.96 215.67 176.35 220.03 176.65 C 223.15 177.42 225.99 178.99 228.95 180.21 C 233.57 179.20 238.22 178.37 242.83 177.31 C 242.26 176.37 241.70 175.43 241.14 174.50 C 246.41 173.55 251.72 172.70 257.07 172.51 C 264.14 172.69 271.41 172.26 278.14 174.82 C 277.97 175.69 277.62 177.44 277.45 178.31 C 293.93 179.73 310.49 179.88 326.95 181.57 C 338.19 181.94 349.09 184.80 360.06 186.96 C 365.16 189.21 370.86 191.92 372.91 197.55 C 359.37 195.44 345.61 196.75 331.97 196.73 C 316.94 196.86 301.94 197.90 286.97 199.11 C 284.81 199.71 281.58 198.75 280.50 201.31 C 278.43 204.90 275.63 208.48 276.02 212.88 C 274.78 213.80 273.54 214.72 272.29 215.64 C 272.13 227.34 272.24 239.05 272.23 250.76 C 273.30 251.13 274.37 251.51 275.44 251.88 C 274.56 255.32 272.09 258.34 272.40 262.02 C 272.33 271.68 272.39 281.35 271.76 290.99 C 271.66 322.35 270.62 353.69 270.36 385.05 C 270.41 395.12 269.42 405.18 269.88 415.25 C 271.42 416.01 272.93 414.72 274.27 414.10 C 292.57 403.38 310.69 392.33 329.24 382.03 C 330.52 361.20 331.68 340.33 334.65 319.65 C 336.46 307.04 338.06 294.37 340.05 281.80 C 347.78 268.65 354.46 254.89 361.70 241.47 C 364.38 236.15 367.40 231.00 369.84 225.57 C 370.32 225.48 371.27 225.30 371.74 225.20 C 370.49 231.56 369.82 238.05 369.45 244.51 C 376.30 236.04 383.29 227.65 389.67 218.81 C 399.21 204.24 407.82 189.04 417.43 174.53 C 422.24 171.76 427.57 169.93 432.50 167.34 C 435.94 164.95 439.41 168.26 442.54 169.62 C 438.24 182.14 434.84 195.00 430.72 207.56 C 425.99 214.46 419.19 219.85 415.32 227.34 C 415.95 227.35 416.59 227.37 417.24 227.38 C 422.28 221.51 427.87 216.15 433.28 210.63 C 435.87 210.18 438.45 209.59 440.99 208.92 C 446.03 208.17 450.92 206.14 456.06 206.32 C 458.41 207.65 460.53 209.34 462.78 210.84 C 461.62 214.33 459.50 217.36 457.73 220.56 C 452.59 230.03 447.19 239.36 442.02 248.82 C 440.90 250.98 439.40 252.96 437.41 254.39 C 432.21 258.32 426.92 262.13 422.14 266.55 C 421.62 266.56 420.57 266.56 420.05 266.57 C 415.16 264.28 411.31 260.25 406.29 258.18 C 409.30 262.17 412.22 266.24 415.39 270.11 C 415.53 276.12 415.21 282.14 415.63 288.14 C 417.65 281.42 418.78 274.49 420.68 267.75 C 428.21 263.70 435.19 258.72 442.47 254.25 C 444.07 253.02 446.15 253.41 448.02 253.35 C 454.38 253.49 460.75 253.54 467.11 253.60 C 468.66 256.32 472.88 258.16 472.49 261.54 C 462.93 271.96 453.19 282.21 443.54 292.55 C 441.50 295.02 438.56 296.36 435.71 297.64 C 434.80 298.29 433.89 298.94 432.98 299.60 C 439.86 297.97 446.74 295.52 453.87 295.51 C 456.45 296.98 459.22 298.07 461.98 299.16 C 465.37 300.53 468.76 301.92 472.27 302.95 C 473.44 305.72 474.52 308.54 475.66 311.33 C 464.01 317.69 451.96 323.28 440.17 329.39 C 434.56 332.57 427.86 332.22 421.64 332.88 C 429.24 333.64 436.89 333.89 444.50 334.57 C 450.03 339.18 455.81 343.48 461.52 347.86 C 461.65 350.82 461.78 353.78 461.83 356.74 C 449.95 358.91 438.09 361.27 426.20 363.40 C 422.16 364.40 417.91 365.22 413.82 364.00 C 411.62 363.55 409.42 363.19 407.23 362.72 C 407.26 362.41 407.31 361.81 407.33 361.50 C 406.69 362.11 406.05 362.72 405.40 363.33 C 406.08 363.37 407.44 363.44 408.12 363.48 C 409.81 364.29 411.67 364.53 413.53 364.72 C 413.53 365.07 413.54 365.77 413.55 366.12 C 415.44 366.50 417.32 366.95 419.18 367.48 C 423.09 373.11 427.35 378.48 431.38 384.01 C 432.41 387.18 431.04 390.51 430.38 393.64 C 418.02 392.51 405.63 391.78 393.31 390.31 C 392.65 390.91 392.01 391.53 391.37 392.15 C 399.12 394.12 406.42 397.45 414.05 399.80 C 416.80 403.40 419.43 407.08 422.23 410.65 C 424.29 412.76 423.12 415.82 423.11 418.42 C 416.68 419.11 410.36 417.43 403.94 417.42 C 399.51 417.20 395.15 416.05 390.69 416.50 C 394.74 420.44 399.15 424.00 403.12 428.04 C 404.09 434.51 406.16 440.77 407.48 447.18 C 406.09 448.83 404.85 450.59 403.80 452.47 C 402.77 452.37 401.64 452.69 400.72 452.14 C 394.26 448.52 387.60 445.27 381.13 441.68 C 376.99 439.68 373.19 436.91 368.70 435.72 C 369.87 438.98 371.68 441.95 373.55 444.85 C 373.46 450.12 372.80 455.36 372.31 460.60 C 370.98 462.30 369.31 464.20 367.08 464.59 C 362.16 459.41 357.26 454.19 352.15 449.19 C 354.61 454.87 353.42 461.05 353.30 467.01 C 353.46 470.50 350.31 473.10 347.13 473.69 C 341.86 467.40 335.85 461.76 330.02 456.01 C 331.24 458.80 332.64 461.53 334.48 463.98 C 334.51 467.03 334.38 470.07 334.28 473.12 L 333.69 473.91 C 333.64 476.13 333.58 478.37 333.52 480.60 C 331.81 481.80 330.30 483.69 328.07 483.80 C 321.69 478.25 316.76 471.17 309.92 466.14 C 310.71 467.31 311.51 468.49 312.30 469.68 C 311.30 474.04 311.55 478.54 311.30 482.98 C 309.83 484.25 308.37 485.54 306.92 486.84 C 302.40 482.33 297.84 477.85 293.66 473.02 C 292.95 476.03 292.59 479.11 292.47 482.20 C 291.04 483.29 289.62 484.39 288.20 485.50 C 283.30 479.75 277.34 474.99 272.67 469.04 C 270.06 470.08 269.57 473.05 267.85 474.93 C 262.50 476.96 256.48 476.85 250.90 475.96 C 247.86 475.27 246.84 471.96 246.37 469.26 C 246.05 469.38 245.41 469.61 245.09 469.72 C 240.66 475.06 235.18 479.43 230.96 484.96 C 228.78 484.57 226.37 483.40 225.70 481.13 C 225.36 478.53 225.43 475.91 225.35 473.30 C 225.02 473.43 224.35 473.70 224.02 473.83 C 220.20 478.14 215.78 481.88 212.21 486.41 C 211.83 486.41 211.07 486.40 210.69 486.39 C 209.23 484.90 207.24 483.58 206.99 481.33 C 206.42 476.76 206.53 472.14 206.51 467.55 C 207.34 466.46 208.16 465.37 208.95 464.26 C 203.42 471.16 196.50 476.80 190.97 483.69 C 187.53 483.76 184.13 480.53 184.56 477.01 C 184.53 472.70 183.89 468.36 184.37 464.07 C 185.34 461.94 186.53 459.89 187.02 457.58 C 180.96 462.14 176.57 468.54 170.92 473.54 C 168.77 473.56 167.33 471.27 165.59 470.20 C 165.56 464.79 163.96 459.43 164.68 454.03 C 165.89 451.29 167.51 448.77 168.95 446.15 C 166.72 449.48 163.39 451.80 160.78 454.80 C 157.65 458.30 154.30 461.58 151.00 464.92 C 149.21 463.49 147.02 462.35 145.85 460.31 C 145.35 455.51 145.60 450.66 144.82 445.88 C 145.90 442.24 148.45 439.28 149.99 435.85 C 146.11 436.37 142.96 438.72 139.60 440.49 C 133.02 443.97 126.40 447.39 119.87 450.98 C 118.35 451.85 116.70 452.48 114.97 452.81 C 113.70 450.30 110.67 448.10 111.49 445.01 C 112.84 439.14 114.12 433.20 115.86 427.44 C 119.63 423.71 124.06 420.63 127.31 416.38 C 116.73 416.68 106.24 418.57 95.64 418.60 C 95.63 415.94 94.34 412.72 96.38 410.47 C 99.18 407.03 101.48 403.16 104.49 399.91 C 112.83 396.84 121.16 393.63 129.70 391.20 C 124.90 389.41 119.51 390.93 114.53 391.32 C 105.57 391.75 96.67 393.20 87.67 392.82 C 87.23 390.19 86.68 387.57 86.26 384.94 C 90.67 379.37 94.65 373.46 99.12 367.96 C 102.64 365.98 106.63 365.06 110.32 363.44 C 105.98 363.69 101.71 365.20 97.33 364.46 C 87.88 362.74 78.48 360.73 69.00 359.17 C 64.89 358.21 60.73 357.40 56.51 357.16 C 56.86 353.66 55.18 348.96 58.53 346.55 C 63.65 342.57 68.95 338.82 73.83 334.54 C 78.63 334.50 83.37 333.64 88.16 333.46 C 90.26 332.15 92.67 331.60 95.08 331.26 C 90.79 331.62 86.36 332.15 82.14 331.12 C 69.01 325.08 56.39 317.92 43.21 311.98 C 43.65 308.86 44.77 305.92 45.93 303.02 C 52.84 301.07 59.19 297.58 66.00 295.41 C 70.76 295.62 75.28 297.37 79.95 298.19 C 82.04 298.59 84.09 299.12 86.15 299.68 C 82.11 297.15 77.22 295.73 74.13 291.92 C 69.41 286.30 64.11 281.23 59.12 275.88 C 54.65 270.85 50.12 265.85 45.23 261.22 C 46.91 258.39 49.08 255.92 51.36 253.57 C 57.93 253.57 64.51 253.47 71.09 253.34 C 72.69 253.38 74.48 253.14 75.86 254.17 C 83.05 258.69 90.04 263.56 97.57 267.54 C 99.67 273.22 99.86 279.44 102.25 285.02 C 102.45 285.81 102.83 287.39 103.03 288.18 C 103.53 282.09 103.04 275.99 103.25 269.90 C 105.80 266.08 109.61 263.01 110.99 258.51 C 106.25 261.19 102.17 264.98 97.09 267.06 C 92.09 262.58 86.62 258.69 81.31 254.61 C 79.37 253.18 77.74 251.35 76.61 249.22 C 70.00 237.29 63.34 225.39 56.69 213.49 C 54.67 209.73 60.07 208.38 62.01 206.21 C 69.95 206.63 77.52 209.38 85.34 210.66 C 91.22 216.35 96.24 222.95 102.62 228.11 C 102.43 223.74 98.59 221.04 96.15 217.84 C 93.19 213.98 89.33 210.71 87.18 206.30 C 83.71 193.82 79.28 181.61 76.22 169.02 Z" />
<path fill="#3e3e3e" opacity="1.00" d=" M 128.05 245.07 L 128.68 245.22 C 128.95 249.58 128.54 253.96 128.47 258.32 C 132.62 262.52 136.14 267.28 140.11 271.65 C 134.18 266.96 128.35 262.14 122.76 257.05 C 121.81 256.22 122.57 254.96 123.04 254.11 C 124.87 251.18 126.31 248.05 128.05 245.07 Z" />
<path fill="#3e3e3e" opacity="1.00" d=" M 389.58 244.51 C 392.31 248.13 394.22 252.27 396.52 256.16 C 390.73 261.54 384.70 266.74 378.47 271.64 C 382.12 267.30 385.85 263.00 389.42 258.59 C 390.20 253.99 389.04 249.18 389.58 244.51 Z" />
<path fill="#3e3e3e" opacity="1.00" d=" M 393.84 301.83 C 397.42 299.83 400.37 296.95 403.44 294.27 C 402.25 297.14 402.28 300.91 399.89 303.01 C 394.02 305.29 388.17 307.72 382.13 309.53 C 385.62 306.38 389.78 304.16 393.84 301.83 Z" />
<path fill="#3e3e3e" opacity="1.00" d=" M 115.18 294.77 C 121.18 300.14 128.21 304.01 135.12 308.06 C 135.27 308.45 135.57 309.24 135.73 309.63 C 129.76 307.44 123.94 304.83 117.83 303.05 C 116.75 300.36 115.81 297.61 115.18 294.77 Z" />
<path fill="#3e3e3e" opacity="1.00" d=" M 104.06 321.40 C 104.45 321.62 105.23 322.06 105.62 322.28 C 111.48 325.20 116.34 330.24 122.99 331.40 C 130.11 332.97 137.19 334.70 144.31 336.28 C 135.38 337.14 126.48 335.47 117.60 334.78 C 117.04 334.76 115.91 334.72 115.34 334.70 C 115.47 334.42 115.73 333.86 115.86 333.58 C 112.04 329.41 107.27 326.10 104.06 321.40 Z" />
<path fill="#3e3e3e" opacity="1.00" d=" M 400.52 329.75 C 405.12 327.21 409.44 324.17 413.92 321.42 C 413.75 321.85 413.42 322.71 413.25 323.14 C 409.77 326.37 406.39 329.70 403.03 333.05 C 401.07 335.40 397.76 335.05 395.01 335.37 C 389.10 335.39 383.26 337.21 377.34 336.23 C 384.65 332.75 393.09 332.89 400.52 329.75 Z" />
<path fill="#3e3e3e" opacity="1.00" d=" M 366.53 357.02 C 372.12 353.25 378.13 349.66 382.15 344.11 C 382.45 344.50 383.06 345.27 383.36 345.66 C 383.41 347.79 383.49 349.91 383.51 352.05 C 377.64 353.91 372.07 356.53 366.38 358.84 C 366.42 358.39 366.49 357.47 366.53 357.02 Z" />
<path fill="#3e3e3e" opacity="1.00" d=" M 135.69 343.90 C 140.63 349.78 147.40 353.53 153.07 358.59 C 146.62 357.42 141.02 353.59 134.67 351.99 C 134.91 349.28 135.30 346.59 135.69 343.90 Z" />
<path fill="#3e3e3e" opacity="1.00" d=" M 112.15 358.43 C 117.01 358.62 121.09 361.57 125.44 363.39 C 131.48 366.46 138.60 364.61 144.82 367.15 C 139.91 367.93 134.93 367.71 130.00 368.22 C 128.54 368.51 127.29 367.57 126.08 366.94 C 121.40 364.16 116.86 361.16 112.15 358.43 Z" />
<path fill="#3e3e3e" opacity="1.00" d=" M 388.73 364.85 C 394.84 363.63 399.72 358.77 406.05 358.41 C 400.80 361.85 395.35 364.96 390.09 368.39 C 388.69 368.24 387.29 368.07 385.91 367.89 C 381.86 367.82 377.79 367.80 373.78 367.19 C 378.53 365.09 383.76 365.79 388.73 364.85 Z" />
<path fill="#3e3e3e" opacity="1.00" d=" M 147.65 379.78 C 151.92 379.92 156.27 378.86 160.47 379.47 C 163.43 382.00 166.05 384.90 168.75 387.71 C 161.66 385.71 154.75 383.10 147.64 381.16 C 147.65 380.81 147.65 380.12 147.65 379.78 Z" />
<path fill="#3e3e3e" opacity="1.00" d=" M 349.98 387.67 C 352.28 384.53 355.20 381.95 357.89 379.16 C 361.61 379.44 365.38 379.30 369.06 379.97 L 370.29 381.19 C 363.53 383.36 356.75 385.49 349.98 387.67 Z" />
<path fill="#3e3e3e" opacity="1.00" d=" M 125.88 388.71 C 130.85 388.12 135.36 390.62 140.08 391.68 C 146.42 393.61 153.08 394.54 159.18 397.19 C 154.82 397.85 150.45 398.76 146.02 398.60 C 139.09 395.74 132.80 391.54 125.88 388.71 Z" />
<path fill="#3e3e3e" opacity="1.00" d=" M 361.68 395.81 C 371.89 394.15 381.53 389.82 391.77 388.56 C 390.61 390.06 388.90 390.91 387.16 391.55 C 382.26 393.48 377.78 396.29 372.99 398.44 C 368.96 399.03 364.89 397.99 360.90 397.50 C 361.10 397.07 361.49 396.23 361.68 395.81 Z" />
<path fill="#3e3e3e" opacity="1.00" d=" M 351.01 425.56 C 354.22 421.47 357.02 417.08 360.12 412.91 C 361.11 417.36 362.07 421.81 362.84 426.30 C 357.84 427.77 353.18 430.64 347.88 430.88 C 346.09 427.74 343.97 424.79 341.55 422.11 C 341.53 421.62 341.50 420.63 341.48 420.13 C 344.67 421.90 347.91 423.61 351.01 425.56 Z" />
<path fill="#3e3e3e" opacity="1.00" d=" M 157.79 413.92 C 158.65 414.36 159.73 414.58 160.24 415.51 C 162.59 418.77 164.58 422.30 167.27 425.30 C 170.88 423.86 173.94 421.24 177.77 420.34 C 175.13 423.82 172.98 427.77 169.93 430.88 C 164.84 430.38 160.24 427.74 155.42 426.19 C 156.43 422.15 157.38 418.07 157.79 413.92 Z" />
<path fill="#3e3e3e" opacity="1.00" d=" M 186.18 420.72 C 190.30 419.27 194.15 417.17 198.10 415.34 C 198.43 417.98 201.75 421.24 199.54 423.48 C 195.24 423.22 191.01 422.19 186.67 422.31 C 186.55 421.91 186.30 421.12 186.18 420.72 Z" />
<path fill="#3e3e3e" opacity="1.00" d=" M 319.75 416.10 C 324.49 416.26 328.18 419.70 332.66 420.84 C 332.53 421.19 332.25 421.87 332.11 422.21 C 327.42 422.37 322.80 423.14 318.14 423.63 C 318.43 421.07 319.07 418.58 319.75 416.10 Z" />
<path fill="#3e3e3e" opacity="1.00" d=" M 187.50 433.29 C 187.87 433.45 188.61 433.75 188.98 433.90 C 191.20 437.40 193.12 441.10 195.51 444.50 C 199.17 444.27 202.50 442.38 206.15 441.96 C 205.61 444.83 204.92 447.67 204.20 450.51 C 199.71 449.41 195.16 448.63 190.70 447.44 C 189.76 442.70 188.92 437.92 187.50 433.29 Z" />
<path fill="#3e3e3e" opacity="1.00" d=" M 322.92 444.70 C 325.31 440.67 327.54 436.50 330.57 432.89 C 330.07 437.88 328.53 442.68 327.57 447.58 C 323.20 448.51 318.81 449.29 314.53 450.58 C 313.52 447.75 312.64 444.86 312.11 441.90 C 315.76 442.63 319.32 443.73 322.92 444.70 Z" />
<path fill="#3e3e3e" opacity="1.00" d=" M 220.71 451.70 C 219.28 451.09 216.93 448.45 218.70 447.37 C 221.73 449.37 224.83 451.32 228.53 451.83 C 228.52 452.22 228.50 452.99 228.48 453.38 C 227.57 454.84 226.70 456.32 225.86 457.84 C 222.98 457.11 222.40 453.75 220.71 451.70 Z" />
<path fill="#3e3e3e" opacity="1.00" d=" M 297.44 449.49 C 298.10 448.57 298.79 447.67 299.44 446.75 C 299.55 447.85 299.71 448.95 299.82 450.06 C 296.68 451.27 295.91 455.05 294.16 457.59 C 293.76 457.61 292.96 457.65 292.56 457.67 C 291.37 455.83 290.24 453.97 289.28 452.01 C 292.03 451.29 294.74 450.41 297.44 449.49 Z" />
</svg>
