<?xml version="1.0" encoding="UTF-8" ?>
<!DOCTYPE svg PUBLIC "-//W3C//DTD SVG 1.1//EN" "http://www.w3.org/Graphics/SVG/1.1/DTD/svg11.dtd">
<svg width="512pt" height="512pt" viewBox="0 0 512 512" version="1.1" xmlns="http://www.w3.org/2000/svg">
<path fill="#3e3e3e" opacity="1.00" d=" M 0.00 0.00 L 463.43 0.00 C 422.15 36.47 381.24 73.38 340.04 109.94 C 346.58 77.50 353.33 45.11 359.81 12.67 C 356.52 16.51 353.60 20.64 350.62 24.72 C 339.22 40.15 327.87 55.60 316.42 70.99 C 310.42 50.82 304.32 30.69 298.10 10.59 C 292.98 24.74 289.05 39.29 284.24 53.56 C 283.40 56.44 281.94 59.61 283.45 62.53 C 286.13 68.87 288.97 75.13 291.67 81.46 C 294.40 75.07 297.20 68.71 299.82 62.27 C 304.37 76.33 307.23 90.84 310.68 105.19 C 315.88 100.26 320.84 95.09 325.98 90.09 C 326.04 107.38 325.96 124.68 326.01 141.98 C 327.99 142.65 329.97 143.33 331.95 144.02 C 366.67 110.79 401.18 77.35 435.93 44.16 C 425.37 90.81 414.60 137.41 403.99 184.05 C 439.98 176.89 476.01 169.91 512.00 162.72 L 512.00 180.29 C 495.95 183.79 480.06 187.97 464.04 191.65 C 438.02 197.76 412.01 203.89 386.00 210.01 C 395.34 167.34 404.67 124.68 414.00 82.01 C 388.00 110.02 361.99 138.00 336.00 166.02 C 338.69 171.34 341.33 176.67 344.01 182.00 C 359.36 163.36 374.61 144.65 390.01 126.05 C 382.65 160.04 375.31 194.02 368.02 228.02 C 402.66 220.64 437.33 213.37 471.97 206.00 C 446.67 228.69 421.32 251.33 396.00 274.00 C 423.94 288.65 451.90 303.25 479.82 317.94 C 451.91 321.47 423.95 324.61 396.02 328.02 C 407.97 349.34 420.00 370.62 431.95 391.95 C 396.61 374.03 361.33 355.98 326.01 338.01 C 326.65 365.34 327.36 392.67 327.99 420.00 C 308.01 399.32 287.98 378.69 268.03 358.00 C 253.34 365.99 238.66 374.00 223.99 382.02 C 225.36 366.68 226.64 351.34 228.02 336.00 C 210.67 338.68 193.32 341.32 175.98 344.03 C 183.97 338.01 191.99 332.04 199.96 326.01 C 192.65 323.29 185.31 320.67 177.98 318.02 C 169.86 330.53 161.72 343.03 153.62 355.56 C 151.85 358.49 148.79 360.19 146.00 361.98 C 168.68 360.05 191.35 357.97 214.03 356.02 C 207.97 380.66 202.01 405.33 196.02 429.99 C 218.68 413.33 241.35 396.68 264.00 380.01 C 289.99 404.68 316.00 429.34 342.00 454.01 C 342.01 425.34 342.00 396.68 342.00 368.01 C 383.99 389.99 425.97 412.00 467.97 433.98 C 452.01 400.65 435.99 367.34 420.01 334.02 C 450.65 329.98 481.21 325.30 512.00 322.57 L 512.00 333.93 C 489.57 339.14 466.64 341.79 444.04 346.14 C 452.57 363.28 460.96 380.49 469.49 397.63 C 476.56 413.82 484.92 429.40 492.66 445.28 C 499.20 458.10 505.51 471.03 512.00 483.88 L 512.00 488.48 C 503.52 482.38 494.62 476.85 486.19 470.67 C 481.15 466.88 475.48 464.09 470.13 460.79 C 434.77 439.84 399.36 418.98 364.03 397.99 C 363.80 411.35 365.12 424.66 365.14 438.02 C 365.91 460.07 367.02 482.11 367.59 504.17 C 333.68 471.50 299.76 438.82 266.08 405.91 C 232.52 430.75 198.75 455.30 164.96 479.82 C 173.64 446.56 182.09 413.23 191.24 380.09 C 150.90 384.00 110.57 388.07 70.22 391.94 C 95.81 371.40 121.73 351.28 147.35 330.77 C 135.73 329.09 124.06 327.83 112.43 326.30 C 96.47 323.88 80.28 324.77 64.22 323.92 C 74.71 317.18 85.41 310.76 95.88 304.00 C 88.63 299.28 81.31 294.66 74.02 289.99 C 54.72 305.30 35.39 320.56 16.15 335.95 C 41.74 338.32 67.34 340.44 92.94 342.70 C 62.91 365.35 32.33 387.26 2.33 409.93 C 57.50 405.44 112.67 400.79 167.83 396.16 C 149.24 434.76 130.88 473.47 112.16 512.00 L 0.00 512.00 L 0.00 0.00 Z" />
<path fill="#9a9180" opacity="1.00" d=" M 463.43 0.00 L 467.51 0.00 C 463.10 7.92 462.39 17.10 460.45 25.79 C 451.72 69.59 442.86 113.37 434.22 157.20 C 460.14 151.38 486.11 145.75 512.00 139.79 L 512.00 162.72 C 476.01 169.91 439.98 176.89 403.99 184.05 C 414.60 137.41 425.37 90.81 435.93 44.16 C 401.18 77.35 366.67 110.79 331.95 144.02 C 329.97 143.33 327.99 142.65 326.01 141.98 C 325.96 124.68 326.04 107.38 325.98 90.09 C 320.84 95.09 315.88 100.26 310.68 105.19 C 307.23 90.84 304.37 76.33 299.82 62.27 C 297.20 68.71 294.40 75.07 291.67 81.46 C 288.97 75.13 286.13 68.87 283.45 62.53 C 281.94 59.61 283.40 56.44 284.24 53.56 C 289.05 39.29 292.98 24.74 298.10 10.59 C 304.32 30.69 310.42 50.82 316.42 70.99 C 327.87 55.60 339.22 40.15 350.62 24.72 C 353.60 20.64 356.52 16.51 359.81 12.67 C 353.33 45.11 346.58 77.50 340.04 109.94 C 381.24 73.38 422.15 36.47 463.43 0.00 Z" />
<path fill="#3e3e3e" opacity="1.00" d=" M 467.51 0.00 L 512.00 0.00 L 512.00 139.79 C 486.11 145.75 460.14 151.38 434.22 157.20 C 442.86 113.37 451.72 69.59 460.45 25.79 C 462.39 17.10 463.10 7.92 467.51 0.00 Z" />
<path fill="#f5722c" opacity="1.00" d=" M 180.67 7.07 C 182.59 6.80 184.93 5.88 186.49 7.51 C 194.90 15.42 203.37 23.28 211.93 31.03 C 214.44 33.28 215.43 36.82 218.30 38.72 C 235.77 51.22 253.09 63.94 270.56 76.46 C 272.48 77.80 274.32 79.35 275.50 81.42 C 280.67 89.96 285.78 98.53 291.02 107.03 C 292.09 108.89 293.33 110.78 293.61 112.96 C 294.61 122.15 293.38 131.55 290.18 140.21 C 286.26 147.31 281.18 153.78 275.60 159.63 C 270.47 163.59 265.84 168.65 259.40 170.43 C 253.96 172.13 248.82 175.29 242.96 175.15 C 236.65 175.02 230.09 176.39 224.02 174.10 C 220.78 172.78 216.70 172.57 214.47 169.57 C 209.21 163.09 204.06 156.52 198.83 150.03 C 196.78 147.45 194.28 145.05 193.38 141.79 C 187.04 120.40 180.96 98.94 174.57 77.57 C 180.36 75.51 186.53 74.18 191.74 70.78 C 195.63 68.22 199.71 65.91 203.31 62.93 C 195.78 65.79 188.85 70.21 180.99 72.25 C 175.83 72.58 170.71 71.23 166.04 69.10 C 163.01 60.04 159.99 50.99 156.99 41.93 C 155.49 37.12 150.95 33.27 151.52 27.90 C 152.04 23.57 155.27 20.32 157.90 17.09 C 155.38 21.68 152.00 27.14 154.37 32.46 C 156.13 36.64 161.15 36.22 164.91 36.55 C 170.40 37.12 174.98 33.68 179.84 31.77 C 184.72 30.00 188.44 25.15 188.47 19.89 C 188.86 16.07 187.86 12.30 186.95 8.63 C 184.85 8.15 182.75 7.63 180.67 7.07 Z" />
<path fill="#9a9180" opacity="1.00" d=" M 132.07 56.14 C 144.24 66.89 156.31 77.77 168.44 88.57 C 170.11 89.90 170.51 92.08 171.06 94.03 C 173.30 103.37 175.71 112.67 177.97 122.00 C 173.34 121.37 168.72 120.68 164.10 120.00 C 171.82 139.35 180.11 158.47 187.83 177.82 C 172.47 172.14 157.34 165.86 142.03 160.06 C 143.96 167.34 146.07 174.58 147.86 181.91 C 137.89 177.30 127.93 172.67 117.99 167.99 C 114.62 158.01 111.38 147.99 107.99 138.02 C 125.35 139.95 142.68 142.06 160.03 143.98 C 150.64 114.73 141.36 85.43 132.07 56.14 Z" />
<path fill="#f5e5c1" opacity="1.00" d=" M 336.00 166.02 C 361.99 138.00 388.00 110.02 414.00 82.01 C 404.67 124.68 395.34 167.34 386.00 210.01 C 412.01 203.89 438.02 197.76 464.04 191.65 C 480.06 187.97 495.95 183.79 512.00 180.29 L 512.00 186.41 C 482.87 211.83 453.28 236.73 424.03 262.02 C 442.36 272.67 460.71 283.28 479.04 293.93 C 484.44 297.19 490.11 300.00 495.23 303.71 C 500.64 307.44 506.55 310.37 512.00 314.04 L 512.00 322.57 C 481.21 325.30 450.65 329.98 420.01 334.02 C 435.99 367.34 452.01 400.65 467.97 433.98 C 425.97 412.00 383.99 389.99 342.00 368.01 C 342.00 396.68 342.01 425.34 342.00 454.01 C 316.00 429.34 289.99 404.68 264.00 380.01 C 241.35 396.68 218.68 413.33 196.02 429.99 C 202.01 405.33 207.97 380.66 214.03 356.02 C 191.35 357.97 168.68 360.05 146.00 361.98 C 148.79 360.19 151.85 358.49 153.62 355.56 C 161.72 343.03 169.86 330.53 177.98 318.02 C 185.31 320.67 192.65 323.29 199.96 326.01 C 191.99 332.04 183.97 338.01 175.98 344.03 C 193.32 341.32 210.67 338.68 228.02 336.00 C 226.64 351.34 225.36 366.68 223.99 382.02 C 238.66 374.00 253.34 365.99 268.03 358.00 C 287.98 378.69 308.01 399.32 327.99 420.00 C 327.36 392.67 326.65 365.34 326.01 338.01 C 361.33 355.98 396.61 374.03 431.95 391.95 C 420.00 370.62 407.97 349.34 396.02 328.02 C 423.95 324.61 451.91 321.47 479.82 317.94 C 451.90 303.25 423.94 288.65 396.00 274.00 C 421.32 251.33 446.67 228.69 471.97 206.00 C 437.33 213.37 402.66 220.64 368.02 228.02 C 375.31 194.02 382.65 160.04 390.01 126.05 C 374.61 144.65 359.36 163.36 344.01 182.00 C 341.33 176.67 338.69 171.34 336.00 166.02 Z" />
<path fill="#f5722c" opacity="1.00" d=" M 299.29 120.70 C 303.57 127.79 307.79 134.91 312.20 141.92 C 313.27 143.59 314.07 145.42 314.42 147.38 C 316.57 159.56 318.35 171.82 320.94 183.92 C 321.06 188.81 325.94 192.04 325.50 197.06 C 325.29 203.18 325.13 210.05 320.88 214.92 C 317.01 219.69 312.58 224.41 306.74 226.68 C 299.25 229.39 290.93 229.95 283.26 227.70 C 280.61 226.51 278.20 224.83 275.84 223.16 C 273.70 221.63 272.90 218.84 270.64 217.45 C 258.60 209.75 246.48 202.15 234.57 194.27 C 230.00 189.67 226.41 184.17 222.17 179.27 C 226.46 180.05 230.76 180.91 235.12 181.29 C 243.62 181.57 251.97 179.68 260.11 177.44 C 261.89 176.93 263.52 176.05 265.05 175.04 C 272.81 170.01 280.65 164.89 286.97 158.06 C 289.81 154.85 293.90 152.38 295.02 148.00 C 297.74 139.16 298.17 129.82 299.29 120.70 Z" />
<path fill="#f5722c" opacity="1.00" d=" M 30.74 165.87 C 32.72 164.81 34.96 165.64 37.00 166.05 C 45.30 168.03 53.70 169.62 62.01 171.60 C 66.29 172.41 68.41 177.54 73.07 177.32 C 92.20 179.10 111.32 180.95 130.45 182.75 C 132.72 182.93 134.77 184.00 136.61 185.28 C 145.40 191.19 154.33 196.87 163.21 202.64 C 167.00 205.00 168.58 209.41 170.89 213.02 C 173.10 217.31 175.89 221.41 177.33 226.04 C 177.16 234.15 175.19 242.07 173.79 250.02 C 172.91 255.80 169.15 260.47 166.32 265.40 C 161.58 273.61 153.01 278.21 145.56 283.57 C 137.78 288.99 128.02 289.69 118.85 289.80 C 112.87 288.16 107.21 285.51 101.35 283.49 C 97.28 281.77 92.47 281.05 89.49 277.50 C 75.17 262.21 60.37 247.37 46.08 232.06 C 49.31 230.77 52.73 229.66 55.42 227.36 C 60.58 222.91 66.27 218.96 70.31 213.37 C 72.31 211.29 71.76 208.21 72.04 205.59 C 69.14 212.09 64.89 217.94 59.90 222.98 C 52.88 227.66 44.25 229.20 35.93 229.06 C 31.03 223.65 25.81 218.55 20.81 213.23 C 17.91 210.09 13.50 208.25 11.84 204.08 C 10.75 201.57 11.57 198.79 12.07 196.24 C 13.01 199.43 13.06 203.01 15.02 205.82 C 16.16 207.54 18.38 207.80 20.12 208.59 C 26.11 204.53 33.34 201.65 37.31 195.28 C 41.50 190.54 40.02 183.74 40.17 177.97 C 40.48 174.31 38.08 171.42 36.15 168.60 C 33.52 168.67 30.80 168.55 28.30 169.51 C 25.27 170.58 23.15 173.11 20.81 175.18 C 21.84 170.32 26.49 167.61 30.74 165.87 Z" />
<path fill="#f5722c" opacity="1.00" d=" M 321.01 180.91 C 322.99 181.84 325.16 182.80 326.15 184.91 C 331.63 194.08 336.98 203.34 342.57 212.46 C 345.02 215.70 342.92 220.27 345.52 223.44 C 353.81 235.65 361.27 248.44 369.90 260.40 C 370.06 261.52 370.17 262.64 370.23 263.77 C 374.14 269.67 374.25 277.25 371.71 283.69 C 368.79 290.16 362.88 294.56 356.95 298.10 C 350.33 301.25 342.91 299.15 336.20 297.51 C 332.80 294.76 329.82 291.45 327.01 288.10 C 323.57 282.33 319.07 277.32 314.97 272.02 C 310.38 266.26 305.92 260.38 301.29 254.65 C 298.27 250.88 293.03 249.79 290.24 245.78 C 285.31 239.19 280.08 232.83 275.25 226.17 C 279.64 229.32 284.53 231.94 289.91 232.82 C 297.26 233.31 304.87 232.72 311.59 229.47 C 317.23 225.94 322.00 221.19 325.35 215.43 C 329.27 210.94 329.56 204.75 330.14 199.11 C 330.04 191.85 323.74 187.15 321.01 180.91 Z" />
<path fill="#3e3e3e" opacity="1.00" d=" M 424.03 262.02 C 453.28 236.73 482.87 211.83 512.00 186.41 L 512.00 214.29 C 504.93 220.16 497.94 226.16 490.36 231.38 C 478.83 240.87 467.38 250.48 455.89 260.03 C 474.64 272.44 493.43 284.80 512.00 297.48 L 512.00 314.04 C 506.55 310.37 500.64 307.44 495.23 303.71 C 490.11 300.00 484.44 297.19 479.04 293.93 C 460.71 283.28 442.36 272.67 424.03 262.02 Z" />
<path fill="#f5722c" opacity="1.00" d=" M 175.34 210.55 C 182.11 215.19 189.29 219.25 195.87 224.16 C 200.18 228.91 203.61 234.38 207.71 239.30 C 211.04 243.06 212.21 248.66 216.83 251.21 C 218.92 252.68 221.66 253.74 222.53 256.37 C 223.92 259.85 225.77 263.23 226.49 266.93 C 226.29 272.10 225.95 277.31 225.16 282.42 C 223.31 286.32 220.77 289.89 218.24 293.39 C 214.59 297.26 209.80 299.88 205.02 302.11 C 201.24 304.16 196.99 302.31 193.02 302.04 C 188.27 301.71 183.69 300.31 178.97 299.90 C 167.97 299.61 156.98 299.34 145.98 299.10 C 141.54 299.09 137.59 296.81 133.43 295.58 C 148.25 293.47 160.58 284.07 170.63 273.55 C 173.96 268.82 176.92 263.72 178.35 258.07 C 180.64 250.43 183.09 242.81 184.60 234.96 C 185.07 233.11 184.09 231.38 183.43 229.72 C 180.64 223.37 177.90 216.99 175.34 210.55 Z" />
<path fill="#9a9180" opacity="1.00" d=" M 490.36 231.38 C 497.94 226.16 504.93 220.16 512.00 214.29 L 512.00 233.34 C 504.92 241.39 496.51 248.29 490.39 257.17 C 497.51 262.91 504.93 268.27 512.00 274.08 L 512.00 297.48 C 493.43 284.80 474.64 272.44 455.89 260.03 C 467.38 250.48 478.83 240.87 490.36 231.38 Z" />
<path fill="#3e3e3e" opacity="1.00" d=" M 490.39 257.17 C 496.51 248.29 504.92 241.39 512.00 233.34 L 512.00 274.08 C 504.93 268.27 497.51 262.91 490.39 257.17 Z" />
<path fill="#f5722c" opacity="1.00" d=" M 223.74 250.61 C 230.10 254.85 236.69 258.74 243.15 262.83 C 246.24 264.51 245.93 269.19 249.51 270.32 C 260.28 275.10 270.38 281.16 279.91 288.06 C 284.90 290.60 286.21 296.46 288.30 301.17 C 288.93 305.43 288.54 309.83 288.21 314.11 C 286.43 318.04 283.63 321.50 280.89 324.80 C 277.19 327.13 273.20 329.27 269.00 330.47 C 247.84 331.00 230.44 316.55 210.15 313.17 C 202.95 311.00 196.23 307.50 189.04 305.27 C 194.24 305.49 199.86 307.48 204.74 304.83 C 207.73 303.44 210.75 302.14 213.72 300.72 C 217.27 299.12 219.32 295.63 221.86 292.87 C 224.02 290.13 226.77 287.82 228.50 284.76 C 229.49 278.94 230.27 273.00 230.37 267.10 C 228.67 261.44 227.02 255.60 223.74 250.61 Z" />
<path fill="#f5722c" opacity="1.00" d=" M 369.83 258.18 C 374.66 258.30 377.30 262.49 380.48 265.43 C 384.39 269.02 385.48 274.46 387.79 279.05 C 389.56 282.19 388.33 285.77 387.78 289.06 C 387.10 292.31 386.91 295.69 385.78 298.84 C 384.24 301.50 381.95 303.61 380.03 305.98 C 377.17 309.17 374.80 313.33 370.33 314.42 C 365.12 315.91 360.20 319.44 354.57 318.65 C 349.72 318.12 344.87 317.52 340.02 317.00 C 336.55 312.86 332.31 309.31 329.46 304.69 C 327.46 300.35 324.49 296.00 325.30 290.99 C 327.00 294.80 328.61 298.70 331.12 302.07 C 334.66 306.90 337.59 312.84 343.43 315.25 C 350.97 317.23 359.28 316.62 366.36 313.37 C 370.69 310.45 376.56 309.04 379.07 304.05 C 382.91 297.40 387.79 290.24 386.44 282.15 C 385.29 277.88 383.98 273.60 382.21 269.54 C 378.71 265.14 373.89 262.04 369.83 258.18 Z" />
<path fill="#f5722c" opacity="1.00" d=" M 370.67 263.13 C 371.08 262.59 371.51 262.06 371.95 261.54 C 374.39 267.49 379.57 271.93 381.75 278.06 C 381.34 284.71 381.36 291.87 377.64 297.69 C 375.88 301.45 372.15 303.57 369.03 306.06 C 365.40 309.11 360.54 309.86 356.03 310.72 C 351.67 310.71 347.31 309.90 343.08 308.90 C 337.72 306.15 333.78 301.31 330.76 296.21 C 336.67 301.77 345.17 303.39 353.04 302.82 C 357.73 301.52 362.09 298.96 365.46 295.43 C 368.59 292.18 372.50 289.31 374.10 284.93 C 375.64 277.66 376.15 268.95 370.67 263.13 Z" />
<path fill="#f5722c" opacity="1.00" d=" M 273.84 281.00 C 277.20 280.51 280.61 279.96 284.02 280.23 C 288.88 282.41 293.27 285.54 298.01 287.98 C 300.42 294.02 303.65 299.75 305.74 305.91 C 305.87 310.93 305.53 316.02 304.76 320.98 C 303.40 324.66 301.19 327.95 299.41 331.42 C 297.86 334.98 293.81 335.93 290.72 337.66 C 286.92 339.33 283.40 342.21 279.04 342.01 C 274.26 342.07 269.28 342.44 264.79 340.47 C 270.54 340.24 276.27 341.13 282.01 340.82 C 284.96 339.80 287.41 337.77 290.10 336.24 C 292.88 334.42 296.37 333.06 297.68 329.73 C 299.55 325.61 302.45 321.73 302.65 317.07 C 302.88 312.75 303.69 308.43 303.39 304.11 C 301.62 299.28 299.43 294.60 297.14 290.00 C 294.00 286.92 289.55 285.53 285.89 283.11 C 282.34 280.59 277.87 281.73 273.84 281.00 Z" />
<path fill="#f5722c" opacity="1.00" d=" M 278.35 283.84 C 280.90 284.06 283.17 285.22 285.09 286.85 C 288.36 289.56 292.59 291.60 294.23 295.79 C 295.71 299.19 297.91 302.34 298.78 305.98 C 298.62 310.10 298.36 314.31 297.21 318.28 C 295.42 321.68 293.66 325.20 291.18 328.15 C 287.26 330.77 283.22 333.33 278.99 335.42 C 274.02 335.81 269.04 335.19 264.06 335.15 C 259.60 335.16 255.64 332.90 251.69 331.15 C 255.18 331.54 258.56 332.56 262.04 333.10 C 268.30 333.50 274.16 330.90 279.90 328.78 C 282.59 328.03 283.74 325.30 285.27 323.25 C 286.95 320.50 289.28 318.05 290.28 314.95 C 290.67 310.33 291.02 305.66 290.78 301.02 C 289.43 296.99 287.65 293.05 285.60 289.33 C 283.45 287.17 280.68 285.78 278.35 283.84 Z" />
<path fill="#9a9180" opacity="1.00" d=" M 16.15 335.95 C 35.39 320.56 54.72 305.30 74.02 289.99 C 81.31 294.66 88.63 299.28 95.88 304.00 C 85.41 310.76 74.71 317.18 64.22 323.92 C 80.28 324.77 96.47 323.88 112.43 326.30 C 124.06 327.83 135.73 329.09 147.35 330.77 C 121.73 351.28 95.81 371.40 70.22 391.94 C 110.57 388.07 150.90 384.00 191.24 380.09 C 182.09 413.23 173.64 446.56 164.96 479.82 C 198.75 455.30 232.52 430.75 266.08 405.91 C 299.76 438.82 333.68 471.50 367.59 504.17 C 367.02 482.11 365.91 460.07 365.14 438.02 C 365.12 424.66 363.80 411.35 364.03 397.99 C 399.36 418.98 434.77 439.84 470.13 460.79 C 475.48 464.09 481.15 466.88 486.19 470.67 C 494.62 476.85 503.52 482.38 512.00 488.48 L 512.00 512.00 L 505.72 512.00 C 466.06 488.56 426.58 464.80 386.93 441.35 C 388.00 464.90 388.82 488.45 389.94 512.00 L 325.74 512.00 C 312.61 499.21 299.76 486.14 286.71 473.26 C 277.54 464.58 268.87 455.40 259.86 446.55 C 241.56 468.20 223.82 490.32 205.57 512.00 L 112.16 512.00 C 130.88 473.47 149.24 434.76 167.83 396.16 C 112.67 400.79 57.50 405.44 2.33 409.93 C 32.33 387.26 62.91 365.35 92.94 342.70 C 67.34 340.44 41.74 338.32 16.15 335.95 Z" />
<path fill="#9a9180" opacity="1.00" d=" M 444.04 346.14 C 466.64 341.79 489.57 339.14 512.00 333.93 L 512.00 353.44 C 500.85 359.27 489.42 364.54 478.33 370.50 C 489.93 386.58 500.52 403.36 512.00 419.54 L 512.00 483.88 C 505.51 471.03 499.20 458.10 492.66 445.28 C 484.92 429.40 476.56 413.82 469.49 397.63 C 460.96 380.49 452.57 363.28 444.04 346.14 Z" />
<path fill="#3e3e3e" opacity="1.00" d=" M 478.33 370.50 C 489.42 364.54 500.85 359.27 512.00 353.44 L 512.00 419.54 C 500.52 403.36 489.93 386.58 478.33 370.50 Z" />
<path fill="#3e3e3e" opacity="1.00" d=" M 386.93 441.35 C 426.58 464.80 466.06 488.56 505.72 512.00 L 389.94 512.00 C 388.82 488.45 388.00 464.90 386.93 441.35 Z" />
<path fill="#3e3e3e" opacity="1.00" d=" M 205.57 512.00 C 223.82 490.32 241.56 468.20 259.86 446.55 C 268.87 455.40 277.54 464.58 286.71 473.26 C 299.76 486.14 312.61 499.21 325.74 512.00 L 205.57 512.00 Z" />
</svg>
