<?xml version="1.0" encoding="UTF-8" ?>
<!DOCTYPE svg PUBLIC "-//W3C//DTD SVG 1.1//EN" "http://www.w3.org/Graphics/SVG/1.1/DTD/svg11.dtd">
<svg width="512pt" height="512pt" viewBox="0 0 512 512" version="1.1" xmlns="http://www.w3.org/2000/svg">
<path fill="#3e3e3e" opacity="1.00" d=" M 0.00 0.00 L 512.00 0.00 L 512.00 331.64 C 501.01 310.09 489.97 288.57 478.93 267.05 C 478.21 265.78 477.89 264.35 478.31 262.93 C 486.85 218.65 495.38 174.36 503.90 130.08 C 472.61 143.84 441.26 157.45 409.92 171.09 C 397.00 132.97 384.16 94.82 371.09 56.75 C 363.53 109.09 356.47 161.52 349.09 213.89 C 357.71 210.89 366.34 207.91 374.97 204.96 C 375.83 216.26 376.40 227.58 377.02 238.90 C 388.38 233.61 399.68 228.18 411.06 222.93 C 408.13 238.63 405.06 254.32 402.07 270.01 C 415.39 268.86 428.73 267.89 442.08 267.01 C 436.74 293.32 431.44 319.64 426.08 345.94 C 438.06 350.98 450.08 355.93 462.07 360.97 C 450.82 377.73 439.36 394.36 428.05 411.08 C 456.03 406.42 484.02 401.79 512.00 397.07 L 512.00 512.00 L 0.00 512.00 L 0.00 397.27 C 28.06 401.82 56.05 406.82 84.15 411.13 C 72.88 394.40 61.44 377.78 50.16 361.05 C 62.12 355.98 74.18 351.12 86.11 345.98 C 80.71 319.68 75.49 293.34 70.06 267.04 C 83.40 268.10 96.74 269.18 110.09 269.99 C 107.08 254.37 104.12 238.74 101.11 223.13 C 112.39 228.48 123.70 233.79 135.00 239.10 C 135.85 227.79 136.41 216.45 137.04 205.12 C 145.71 208.11 154.36 211.14 163.04 214.09 C 156.03 162.66 148.72 111.28 141.65 59.87 C 141.44 58.76 141.09 57.69 140.79 56.61 C 127.69 94.65 114.91 132.81 101.94 170.90 C 70.61 157.22 39.30 143.49 7.92 129.93 C 16.56 174.92 25.19 219.92 33.93 264.89 C 22.63 286.90 11.56 309.04 0.00 330.92 L 0.00 0.00 Z" />
<path fill="#f5722c" opacity="1.00" d=" M 236.17 17.35 C 249.86 13.85 264.23 14.60 278.10 16.55 C 295.79 19.68 313.49 26.80 326.11 39.98 C 339.38 53.84 345.95 73.06 346.49 92.03 C 347.07 108.01 341.40 123.99 331.49 136.46 C 320.95 150.14 306.42 160.21 290.86 167.42 C 301.07 172.33 310.83 179.07 316.77 188.96 C 325.07 201.41 325.42 217.76 320.58 231.59 C 315.40 246.87 302.88 258.89 288.41 265.54 C 256.62 280.55 215.74 272.28 192.26 246.12 C 198.16 233.99 204.34 222.01 210.27 209.89 C 222.58 218.83 236.61 226.67 252.13 227.46 C 260.28 227.60 269.21 225.13 274.49 218.53 C 277.22 215.39 278.18 210.87 276.85 206.90 C 274.99 198.82 268.08 192.92 260.47 190.31 C 247.07 185.52 232.59 186.22 218.59 186.30 C 218.49 173.09 217.80 159.84 218.53 146.64 C 230.81 147.05 243.24 145.63 254.98 141.93 C 264.60 138.71 274.62 133.96 280.01 124.91 C 287.56 112.81 280.29 93.85 265.89 91.22 C 253.70 88.78 241.45 93.33 230.60 98.57 C 220.21 103.70 210.73 110.48 201.90 117.93 C 201.57 117.83 200.92 117.62 200.59 117.51 C 189.67 97.41 178.50 77.41 167.84 57.18 C 187.53 39.49 210.14 23.76 236.17 17.35 Z" />
<path fill="#c7bba1" opacity="1.00" d=" M 140.79 56.61 C 141.09 57.69 141.44 58.76 141.65 59.87 C 148.72 111.28 156.03 162.66 163.04 214.09 C 154.36 211.14 145.71 208.11 137.04 205.12 C 136.41 216.45 135.85 227.79 135.00 239.10 C 123.70 233.79 112.39 228.48 101.11 223.13 C 104.12 238.74 107.08 254.37 110.09 269.99 C 96.74 269.18 83.40 268.10 70.06 267.04 C 75.49 293.34 80.71 319.68 86.11 345.98 C 74.18 351.12 62.12 355.98 50.16 361.05 C 61.44 377.78 72.88 394.40 84.15 411.13 C 56.05 406.82 28.06 401.82 0.00 397.27 L 0.00 330.92 C 11.56 309.04 22.63 286.90 33.93 264.89 C 25.19 219.92 16.56 174.92 7.92 129.93 C 39.30 143.49 70.61 157.22 101.94 170.90 C 114.91 132.81 127.69 94.65 140.79 56.61 Z" />
<path fill="#c7bba1" opacity="1.00" d=" M 371.09 56.75 C 384.16 94.82 397.00 132.97 409.92 171.09 C 441.26 157.45 472.61 143.84 503.90 130.08 C 495.38 174.36 486.85 218.65 478.31 262.93 C 477.89 264.35 478.21 265.78 478.93 267.05 C 489.97 288.57 501.01 310.09 512.00 331.64 L 512.00 397.07 C 484.02 401.79 456.03 406.42 428.05 411.08 C 439.36 394.36 450.82 377.73 462.07 360.97 C 450.08 355.93 438.06 350.98 426.08 345.94 C 431.44 319.64 436.74 293.32 442.08 267.01 C 428.73 267.89 415.39 268.86 402.07 270.01 C 405.06 254.32 408.13 238.63 411.06 222.93 C 399.68 228.18 388.38 233.61 377.02 238.90 C 376.40 227.58 375.83 216.26 374.97 204.96 C 366.34 207.91 357.71 210.89 349.09 213.89 C 356.47 161.52 363.53 109.09 371.09 56.75 Z" />
<path fill="#f5e5c1" opacity="1.00" d=" M 327.31 243.63 C 349.41 257.76 366.99 278.78 377.00 303.02 C 387.56 328.12 389.80 356.58 383.49 383.05 C 375.70 416.40 354.09 446.23 324.77 463.94 C 305.67 475.63 283.51 482.29 261.12 482.92 C 237.17 483.75 213.04 477.71 192.28 465.75 C 172.62 454.52 156.02 438.05 144.68 418.46 C 132.30 397.28 126.09 372.52 127.11 348.00 C 128.12 318.71 139.51 289.89 158.82 267.83 C 165.36 259.83 173.40 253.23 181.57 246.96 C 182.06 252.57 186.82 255.89 190.40 259.61 C 194.20 263.39 198.77 266.23 203.04 269.42 C 181.42 282.94 165.96 305.45 160.05 330.16 C 157.82 338.57 157.95 347.32 158.00 355.96 C 157.48 376.15 165.16 395.94 176.90 412.13 C 192.30 433.25 216.45 447.71 242.29 451.49 C 249.66 453.44 257.38 453.07 264.92 452.72 C 273.36 451.24 281.94 450.05 289.98 446.93 C 308.93 440.30 325.85 427.85 337.54 411.50 C 345.47 400.64 351.11 388.11 354.14 375.01 C 355.48 367.71 357.40 360.45 356.96 352.95 C 357.42 345.87 355.61 339.01 354.37 332.11 C 348.66 305.07 331.13 280.84 307.21 266.97 C 315.50 260.80 322.55 252.82 327.31 243.63 Z" />
<path fill="#f5e5c1" opacity="1.00" d=" M 251.02 283.93 C 264.00 284.55 276.79 281.42 289.06 277.47 C 306.68 285.01 321.57 298.77 330.14 315.94 C 338.32 331.85 340.81 350.47 337.62 368.04 C 334.11 387.02 323.66 404.65 308.60 416.73 C 294.42 428.25 276.29 434.89 258.00 434.93 C 239.73 435.31 221.45 429.16 207.01 417.98 C 194.86 408.77 185.54 395.97 180.19 381.72 C 172.55 361.47 173.42 338.17 182.58 318.56 C 190.71 301.08 205.09 286.21 222.92 278.65 C 232.02 281.55 241.45 283.58 251.02 283.93 Z" />
<path fill="#3e3e3e" opacity="1.00" d=" M 251.14 301.19 C 257.79 300.98 264.61 300.65 271.07 302.59 C 286.07 306.60 298.95 317.65 305.18 331.88 C 309.34 341.60 311.33 352.65 308.80 363.08 C 305.95 378.30 296.02 392.10 282.29 399.36 C 270.41 405.84 255.99 407.82 242.97 403.79 C 225.84 399.06 211.69 385.05 206.85 367.95 C 204.64 361.17 204.94 353.95 205.21 346.93 C 207.45 323.49 227.67 303.29 251.14 301.19 Z" />
<path fill="#f5722c" opacity="1.00" d=" M 252.20 316.24 C 263.83 314.95 275.93 319.54 283.59 328.42 C 296.39 342.03 296.00 365.53 282.62 378.60 C 272.70 389.45 255.94 392.90 242.39 387.42 C 233.17 383.79 225.56 376.26 221.78 367.11 C 217.73 357.28 218.12 345.66 223.05 336.22 C 228.60 325.24 239.88 317.28 252.20 316.24 Z" />
</svg>
