<?xml version="1.0" encoding="UTF-8" standalone="no"?>
<svg
   xmlns:dc="http://purl.org/dc/elements/1.1/"
   xmlns:cc="http://creativecommons.org/ns#"
   xmlns:rdf="http://www.w3.org/1999/02/22-rdf-syntax-ns#"
   xmlns:svg="http://www.w3.org/2000/svg"
   xmlns="http://www.w3.org/2000/svg"
   xmlns:sodipodi="http://sodipodi.sourceforge.net/DTD/sodipodi-0.dtd"
   xmlns:inkscape="http://www.inkscape.org/namespaces/inkscape"
   width="1280"
   height="1280"
   viewBox="0 0 1024 1024"
   version="1.1"
   id="svg2"
   inkscape:version="0.48.1 "
   sodipodi:docname="achieve_progress2.svg">
  <metadata
     id="metadata68">
    <rdf:RDF>
      <cc:Work
         rdf:about="">
        <dc:format>image/svg+xml</dc:format>
        <dc:type
           rdf:resource="http://purl.org/dc/dcmitype/StillImage" />
      </cc:Work>
    </rdf:RDF>
  </metadata>
  <defs
     id="defs66" />
  <sodipodi:namedview
     pagecolor="#ffffff"
     bordercolor="#666666"
     borderopacity="1"
     objecttolerance="10"
     gridtolerance="10"
     guidetolerance="10"
     inkscape:pageopacity="0"
     inkscape:pageshadow="2"
     inkscape:window-width="1920"
     inkscape:window-height="1018"
     id="namedview64"
     showgrid="false"
     fit-margin-top="0"
     fit-margin-left="0"
     fit-margin-right="0"
     fit-margin-bottom="0"
     inkscape:zoom="0.6609375"
     inkscape:cx="640"
     inkscape:cy="640"
     inkscape:window-x="-8"
     inkscape:window-y="-8"
     inkscape:window-maximized="1"
     inkscape:current-layer="svg2" />
  <path
     d="m 0,0 1024,0 0,1024 L 0,1024 0,0 z"
     id="path4"
     inkscape:connector-curvature="0"
     style="fill:#3e3e3e" />
  <path
     style="fill:#f4722b"
     d="M 693.25 56.90625 C 672.92036 57.010986 652.90313 63.326563 633.6875 69.5625 C 603.3625 82.3375 574.6375 101.20625 554.5625 127.65625 C 537.4375 147.93125 522.49375 170.2625 511.71875 194.5625 C 497.86875 228.2375 494.3875 266.05625 502.0625 301.65625 C 505.5875 330.63125 517.26875 357.8375 531.96875 382.8125 C 553.81875 414.6625 579.95625 444.7625 614.03125 463.9375 C 636.15625 475.6625 658.8125 488 683.9375 491.5 C 683.8625 492.2 683.6375 493.61875 683.5625 494.34375 C 692.1125 493.44375 700.90625 493.6 709.53125 492.875 C 733.23125 486.3 756.18125 475.825 775.53125 460.5 C 805.98125 434.975 834.2375 404.9125 850.0625 367.9375 C 864.6375 339.1375 873.55 307.25625 873.875 274.90625 C 871.075 254.85625 872.53125 234.3125 866.90625 214.6875 C 861.53125 195.2125 857.7875 174.9 847.6875 157.125 C 837.2875 136.35 824.71875 115.9 805.84375 101.75 C 778.34375 77.9 744.15 60.15625 707.375 57.90625 C 702.65937 57.189062 697.94146 56.88208 693.25 56.90625 z M 715.40625 86.5 C 721.00912 86.480235 726.58906 87.047656 731.9375 88.125 C 739.8125 91.4 746.14375 100.25 743.59375 109 C 742.36875 114.725 736.84375 117.725 732.71875 121.25 C 758.69375 126.475 784.38125 142.54375 794.28125 168.09375 C 798.85625 181.44375 798.3625 196.2 795.4375 209.875 C 794.1625 216.925 787.9125 221.3875 785.3125 227.8125 C 786.4625 233.6375 788.7375 239.19375 790.0625 244.96875 C 799.6375 282.66875 787.1375 324.825 759.0625 351.625 C 738.5875 372.625 709.375 384.5 680.125 384.625 C 649.375 385.1 618.725 372.1875 597.375 350.0625 C 573.575 326.0125 562.0125 290.71875 566.1875 257.21875 C 568.9875 231.69375 580.99375 207.41875 599.59375 189.71875 C 618.01875 170.59375 643.9375 159.95625 670.0625 157.15625 C 706.9875 153.98125 744.2875 170.6875 767.6875 199.1875 C 767.4875 191.9125 768.31875 184.2 765.21875 177.375 C 760.46875 166.85 750.89375 158.9875 740.21875 154.9375 C 718.29375 147.1125 693.80625 150 672.40625 140.375 C 661.83125 135.775 655.31875 120.5125 663.59375 111.0625 C 675.03906 93.992188 695.39599 86.570591 715.40625 86.5 z "
     transform="scale(0.8,0.8)"
     id="path6" />
  <path
     d="m 537.48,93.54 c 9.32,-14.48 28.62,-17.82 44.5,-15.38 4.16,0.5 6.12,4.8 5,8.56 -5.42,1.9 -11.24,-0.28 -16.82,0.48 -9.32,1.02 -20.24,1.98 -25.88,10.62 16.04,4.26 32.98,4 48.76,9.3 15.88,5.78 31.6,16.94 35.98,34.16 2.24,12.54 1.96,27.92 -9.1,36.44 -13.68,9.96 -28.46,18.32 -42.36,27.98 -1.48,-1.72 -2.88,-3.5 -4.18,-5.36 13.28,-9 26.2,-18.58 39.76,-27.18 8.82,-5.74 10.82,-17.46 9,-27.14 -3.04,-15.08 -16.08,-26.3 -30.22,-30.94 -15.58,-4.64 -32.3,-3.74 -47.74,-8.92 -5.2,-1.36 -10.28,-7.36 -6.7,-12.62 z"
     id="path10"
     inkscape:connector-curvature="0"
     style="fill:#f5e5c1" />
  <path
     style="fill:#f5e5c1"
     d="M 1205.125 108.71875 C 1200.3682 108.73729 1195.6719 109.20469 1191.1875 110.8125 C 1171.1375 125.5625 1153.4125 145.4625 1146.6875 169.9375 C 1146.3375 179.0125 1148.125 187.95 1149.625 196.875 C 1116.225 209.5 1086.4688 229.6625 1057.9688 250.8125 C 1038.6437 266.4625 1022.5938 285.6875 1009.2188 306.5625 C 1008.7938 314.2875 1009.1562 322.01875 1009.7812 329.71875 C 1014.8563 340.26875 1024.7875 346.7875 1034.3125 352.9375 C 1003.9125 369.4875 974.56875 388.26875 947.96875 410.46875 C 939.79375 417.46875 933.2625 426.0875 926.4375 434.3125 C 926.2875 435.3875 925.96875 437.51875 925.84375 438.59375 C 934.69375 440.96875 943.9 440.5375 953 440.4375 C 957.025 437.8375 960.975 435.1375 964.875 432.3125 C 967.35 428.2625 969.9875 424.26875 973.1875 420.71875 C 994.7625 397.84375 1020.3125 379.1125 1047.4375 363.4375 C 1059.7875 367.8875 1072.1875 372.70625 1085.3125 374.40625 L 1087.3125 375.8125 C 1105.8875 377.4875 1128.2125 378.85625 1141.6875 363.28125 C 1142.5875 348.63125 1129.6125 338.2125 1116.8125 334.4375 C 1093.1875 326.0375 1068.7125 337.2125 1047.1875 346.5625 C 1040.7875 342.5375 1033.3375 339.1125 1029.5625 332.1875 C 1027.3875 323.2125 1028.6125 313.8125 1028.6875 304.6875 C 1038.1125 292.9875 1046.3625 280.21875 1057.3125 269.84375 C 1078.3375 248.11875 1105.8687 234.8625 1131.3438 219.3125 C 1140.5187 213.6125 1150.975 210.5875 1161.125 207.0625 C 1170.425 209.8375 1179.5687 214.9875 1189.5938 213.8125 C 1196.2687 213.3375 1201.4437 208.725 1206.3438 204.625 C 1206.3687 201.15 1206.4188 197.66875 1206.4688 194.21875 C 1194.8687 187.54375 1181.3563 188.73125 1168.5312 188.90625 C 1168.4562 180.25625 1166.7625 170.925 1170.8125 162.875 C 1182.0625 140.075 1200.7438 121.1 1223.4688 109.625 C 1217.4641 109.44219 1211.2409 108.69491 1205.125 108.71875 z M 1102.4375 343.90625 C 1108.7375 344.18125 1113.875 348.83125 1119.125 351.90625 C 1118.95 354.75625 1118.8063 357.59375 1118.6562 360.46875 C 1101.5312 367.84375 1083.1563 361.6625 1066.7812 355.4375 C 1076.9313 347.5125 1090.0375 345.63125 1102.4375 343.90625 z "
     transform="scale(0.8,0.8)"
     id="path12" />
  <path
     d="m 532.04,134.54 c 29.78,-4.64 60.84,9.32 78.62,33.36 -10.28,6.36 -20.66,12.58 -30.84,19.1 -4.56,-3.46 -11.76,-6.56 -16.3,-1.32 -10.58,12.52 -2.44,35.7 14.5,37.14 5.68,-2.66 8.04,-8.62 9.36,-14.36 10.68,-8.04 21.8,-15.48 33,-22.8 5.32,14.68 7.84,30.72 4.46,46.14 -4.38,24.08 -19.96,45.82 -41.48,57.5 -21.46,12.04 -48.4,13.56 -71.16,4.26 -21.2,-8.46 -38.5,-26.22 -46.44,-47.62 -8.58,-22.34 -6.74,-48.4 4.96,-69.28 12.26,-22.7 35.76,-38.76 61.32,-42.12 z"
     id="path14"
     inkscape:connector-curvature="0"
     style="fill:#f5e5c1" />
  <path
     style="fill:#f4722b"
     d="M 380.8125 196.125 C 370.4267 196.10152 360.02812 197.08906 349.8125 199.15625 C 306.3125 209.75625 267.9125 238.9 245.9375 277.875 C 236.4875 299.175 229.66875 321.65 226.46875 344.75 C 221.81875 390.325 235.6125 436.3125 259.4375 474.9375 C 273.0625 496.0875 291.8875 513.33125 312.3125 527.78125 C 330.4625 542.98125 352.84375 551.35625 374.59375 559.90625 C 391.66875 565.58125 409.74375 567.49375 427.59375 568.84375 C 454.54375 569.31875 476.325 549.7625 491.375 529.3125 C 500.375 514.8875 509.4375 500.3875 516.8125 485.0625 C 520.9125 471.4125 528.975 459.2125 531.5 445.0625 C 533.45 435.7375 534.35 426.2375 536.375 416.9375 C 531.225 408.7125 523.8625 402.14375 519.0625 393.71875 C 508.2375 372.29375 495.3625 351.45 490.4375 327.625 C 480.5625 296.775 478.75 263.5375 484.375 231.6875 C 455 209.14844 417.90463 196.20885 380.8125 196.125 z M 336.0625 237.09375 C 347.46293 236.5134 352.32734 250.65156 348.71875 260 C 360.36875 259.575 372.40625 259.66875 383.40625 264.09375 C 390.08125 267.09375 396.025 271.43125 402.375 275.03125 C 413.2 289.38125 422.06875 307.825 415.96875 326 C 426.41875 339.125 437.1875 353.50625 439.1875 370.65625 C 444.0875 396.38125 439.1625 424.575 422.6875 445.375 C 409.2375 464.7 387.475 476.66875 364.875 481.96875 C 339.75 486.11875 313.3125 479.5625 292.6875 464.6875 C 279.9125 453.7375 267 441.56875 262.25 424.84375 C 250.675 403.19375 254.06875 376.98125 262.34375 354.78125 C 270.96875 332.03125 290.05 314.78125 311.5 304.15625 C 336.675 293.53125 366.11875 294.9875 390.46875 307.1875 C 385.39375 299.8375 379.5125 291.81875 370.1875 289.84375 C 347.9625 283.49375 327.3125 299.45 305.0625 297.875 C 294.5625 298.475 285.1625 287.85 287.0625 277.5 C 290.2625 254.6 313.0875 238.8875 334.9375 237.1875 C 335.31875 237.1375 335.69474 237.11247 336.0625 237.09375 z "
     transform="scale(0.8,0.8)"
     id="path16" />
  <path
     d="m 237.44,224.2 c 1.7,-14.28 15.6,-23.06 28.56,-25.94 3.6,-1.12 6.7,2.14 5.78,5.68 -10.68,4.02 -24.28,7.78 -28.14,19.94 16.32,-1.92 32.02,-9.56 48.72,-7.16 13.22,1.06 26.74,8.82 31.2,21.84 3.54,7.14 3.94,15.84 -0.44,22.72 -7.16,11.18 -15.22,21.78 -22.82,32.66 -1.08,-0.64 -3.24,-1.92 -4.32,-2.56 6.78,-10.9 13.9,-21.58 21.16,-32.16 3.08,-4.34 3.88,-10.04 2.1,-15.06 -2.9,-12.24 -15,-20.26 -27.04,-21.42 -15.98,-1.86 -30.64,6.64 -46.4,7.44 -3.48,-0.14 -8.32,-1.76 -8.36,-5.98 z"
     id="path20"
     inkscape:connector-curvature="0"
     style="fill:#f5e5c1" />
  <path
     d="m 251.72,251.68 c 19.78,-9.12 43.52,-6.66 62.16,4.1 -5.6,7.86 -11.36,15.58 -17.12,23.3 -4.22,-0.66 -10.26,-1.44 -12.22,3.52 -4.6,12.3 8.02,27.46 21.12,23.84 5.32,-4.48 1.44,-12.26 5.4,-17.42 4.82,-7.8 10.14,-15.3 15.3,-22.86 8.36,9.5 14.92,20.86 17.1,33.44 4.7,23.12 -4.3,48.28 -22.52,63.24 -18.86,16.14 -46.98,19.98 -69.5,9.56 -22.6,-10.02 -38.66,-33.52 -38.94,-58.36 -1.18,-26.24 15.16,-51.96 39.22,-62.36 z"
     id="path22"
     inkscape:connector-curvature="0"
     style="fill:#f5e5c1" />
  <path
     d="m 516.96,402.56 c 4.94,-3.2 11.36,-4.28 17.14,-3.22 10.28,3.82 19.28,11.72 30.7,11.98 3.78,-5.22 9.32,-7.86 15.78,-6.6 2.88,6.2 6.98,12.24 7.18,19.3 -2.26,1.66 -4.92,3.28 -7.86,2.66 -9.46,-0.86 -18.92,-2.22 -28.1,-4.66 -12.24,-3.18 -23.32,-9.46 -35.26,-13.46 0.06,-2 0.2,-4 0.42,-6 z"
     id="path26"
     inkscape:connector-curvature="0"
     style="fill:#f4722b" />
  <path
     style="fill:#f4722b"
     d="M 1032.6875 508.78125 C 1026.3777 508.83641 1020.1133 509.20703 1013.9375 509.8125 C 993.5375 512.5625 973.41875 518.2875 954.96875 527.4375 C 936.39375 536.2875 919.94375 548.8 903.59375 561.125 C 890.04375 570.95 880.88125 585.24375 870.65625 598.21875 C 856.78125 616.01875 848.5125 637.125 839.9375 657.75 C 829.6125 687.35 830.15625 719.16875 831.78125 750.09375 C 835.53125 769.04375 842.2625 787.3125 849.8125 805.0625 C 861.3875 828.8875 874.8625 852.68125 895.4375 869.90625 C 903.5875 875.08125 913.3125 876.7125 922.4375 879.4375 C 950.0875 887.3375 979.13125 883.23125 1007.2812 881.28125 C 1026.5062 876.70625 1045.1312 869.38125 1063.0312 861.03125 C 1085.1312 851.13125 1102.6937 834.0125 1120.8438 818.4375 C 1128.6937 809.6625 1136.525 800.8875 1144.625 792.3125 C 1164.1 764.0125 1179.6437 731.9875 1183.9688 697.5625 C 1184.4938 682.5625 1184.7875 667.45 1183.3125 652.5 C 1179.4625 635.1 1174.0187 618.06875 1168.2188 601.21875 C 1158.8187 578.41875 1144.3125 557.93125 1127.4375 540.03125 C 1101.8086 516.80703 1066.7604 508.48338 1032.6875 508.78125 z M 1039.75 524.78125 C 1052.5801 524.67693 1065.393 529.2375 1076.1562 536.28125 C 1080.5312 539.80625 1083.6312 544.8625 1084.9062 550.3125 C 1084.8812 558.9875 1078.4 565.7125 1070.625 568.5625 C 1091.55 583.0375 1106.7375 608.8125 1102.5625 634.9375 C 1100.4625 643.7375 1096.0188 651.69375 1092.4688 659.96875 C 1090.0438 667.31875 1081.5375 668.925 1076.1875 673.5 C 1073.4625 688.625 1071.8937 704.19375 1065.8438 718.46875 C 1059.3688 730.46875 1051.4437 741.875 1041.0938 750.875 C 1029.2938 763.5 1012.2813 769.0625 996.28125 774.1875 C 968.55625 782.8875 938.44375 775.24375 914.09375 760.84375 C 895.74375 749.51875 882.93125 731.2 873.90625 712 C 866.95625 692.475 865.1875 671.175 868.4375 650.75 C 874.4125 632.075 882.53125 613.175 897.53125 599.875 C 921.20625 576.25 956.725 564.5125 989.75 571.3125 C 1007.225 572.3125 1022.0062 582.25625 1035.9062 591.90625 C 1051.4813 604.48125 1062.6688 621.875 1069.3438 640.625 C 1075.7938 628.6 1073.8563 612.78125 1064.6562 602.65625 C 1049.5562 585.93125 1026.0625 580.6625 1010.4375 564.5625 C 1006.0625 559.1625 1002.6437 552.0125 1004.3438 544.9375 C 1005.6437 534.6375 1016.7375 531.0125 1024.8125 527.1875 C 1029.7203 525.59141 1034.7295 524.82207 1039.75 524.78125 z "
     transform="scale(0.8,0.8)"
     id="path28" />
  <path
     d="m 537.12,429.02 c 1.86,0.2 3.72,0.4 5.6,0.58 0.08,1.06 0.26,3.2 0.36,4.26 -19.76,28.7 -43.12,55.18 -58.34,86.76 -3.7,6.62 -1.78,14.56 -1.96,21.8 16.08,26.22 39.56,46.58 57.82,71.12 18.34,21.46 38.96,42.1 49.68,68.72 7.52,12.56 8.98,28.22 4.56,42.1 -2.78,4.86 -7.42,7.92 -12.3,10.4 -11.84,7.44 -25.8,9.84 -38.66,14.96 -11.18,3.94 -21.04,10.64 -31.88,15.32 -32.74,14.28 -65.6,28.44 -96.96,45.62 -13.7,7.3 -25.26,17.8 -38.24,26.22 -10.82,7.46 -19.08,17.9 -29.08,26.32 -4.5,1.48 -6.14,-3.86 -8.8,-6.24 0.06,-0.96 0.22,-2.86 0.3,-3.8 23.72,-21.74 50.8,-39.5 79.12,-54.68 28.6,-16.88 59.32,-29.6 89.58,-43.14 1.1,-0.18 3.28,-0.56 4.38,-0.74 10.54,-3.76 20.18,-10.1 31.38,-11.84 6.76,-1.68 12.52,-5.88 18.94,-8.46 8.14,-3.38 12.7,-11.64 15.98,-19.34 2.92,-14.88 -1.04,-30.4 -8.18,-43.54 -12.02,-18.18 -25.46,-35.44 -40.2,-51.48 -10.18,-11.8 -20.24,-23.74 -31.2,-34.82 -9.7,-10.56 -17.94,-22.36 -26.26,-34 -5.16,-6.52 -4.28,-15.18 -4.28,-22.98 -0.08,-5.9 1.92,-11.56 4.8,-16.64 9.38,-16.82 19.24,-33.58 32.14,-47.98 10.14,-11.88 20.48,-23.64 31.7,-34.5 z"
     id="path32"
     inkscape:connector-curvature="0"
     style="fill:#f5e5c1" />
  <path
     d="m 813.96,433.96 c 13.16,-9.06 30.76,-4.98 43.36,3.08 2.1,1.76 1.34,5.04 1.98,7.46 -1.2,0.2 -3.64,0.58 -4.86,0.76 -10.58,-6.3 -24.64,-11.76 -36.44,-5.6 12.26,9.52 27.22,15.08 38.78,25.56 10.92,10.4 19.84,25.14 17.22,40.8 -2.56,10.86 -8.04,23.02 -19.76,26.3 -14.78,3.74 -29.94,5.9 -44.9,8.74 -0.6,-1.34 -1.8,-4.02 -2.38,-5.34 14.02,-3.22 28.02,-6.6 42.18,-9.14 9.26,-1.4 15.06,-10.14 17.32,-18.56 3.1,-12.68 -2.7,-26 -11.6,-34.96 -11.66,-11 -27.66,-15.9 -39.74,-26.38 -3.56,-3.08 -6.22,-9.68 -1.16,-12.72 z"
     id="path34"
     inkscape:connector-curvature="0"
     style="fill:#f5e5c1" />
  <path
     d="m 412.74,447.26 c 4.5,-0.1 8.98,-0.16 13.48,-0.24 4.96,3 9.84,6.14 14.66,9.34 0.18,3.88 0.32,7.78 0.42,11.68 -11.98,15.8 -28.48,27.12 -43.32,39.96 -10.52,10.8 -22.32,20.54 -31.06,32.92 -3.62,5.08 -8.04,9.56 -11.3,14.88 -2.96,6.38 0.68,14.58 6.9,17.48 23.1,11.16 47,20.58 69.88,32.2 13.72,8.1 27.4,18.98 32.04,34.94 -0.12,5.92 -2,11.9 -4.5,17.26 -17.72,21.58 -36.6,42.26 -56.96,61.42 -16.3,14.62 -27.52,33.66 -41.78,50.08 -11.08,15.04 -23.08,29.56 -32.38,45.82 -3.24,5.06 -4.04,11.04 -4.58,16.92 -3.02,11.32 -1.8,24.4 6.42,33.34 16.88,20.34 40.06,35.82 65.36,43.6 -0.82,-0.56 -2.44,-1.7 -3.26,-2.26 -0.08,-1.84 -0.16,-3.68 -0.24,-5.5 3.54,-0.06 7.1,-0.1 10.66,-0.14 2.68,3.1 5.14,6.6 4.14,10.96 -10.68,5.52 -22.82,1.6 -33.02,-3 -23.76,-10.14 -44.44,-26.66 -60.6,-46.7 -6.8,-9.36 -5.46,-21.58 -4.34,-32.38 3.74,-12.06 10.86,-22.68 16.84,-33.7 13.32,-19.72 27.66,-38.78 43.22,-56.8 6.12,-5.84 12.04,-11.84 17.58,-18.24 11.5,-10.52 23.38,-20.76 33.36,-32.8 8.62,-9.92 18.14,-19.24 24.94,-30.58 7.18,-11.46 4.16,-28.04 -6.6,-36.22 -15.9,-14.32 -36.84,-20.62 -55.62,-30.08 -11.32,-5.86 -23.74,-9.46 -34.64,-16.1 -3.94,-3.1 -8.18,-7.56 -7.92,-12.9 2.02,-10.36 10.82,-17.08 16.52,-25.38 6.46,-9.4 15.32,-16.66 23.14,-24.86 12.28,-13.2 28.66,-22.14 39.62,-36.66 3.1,-5.22 6.68,-12.14 3,-17.96 -3.46,-1.16 -6.9,-2.4 -10.06,-4.22 -0.24,-2.02 -0.24,-4.04 0,-6.08 z"
     id="path36"
     inkscape:connector-curvature="0"
     style="fill:#f5e5c1" />
  <path
     d="m 363.98,453.7 c 12.52,-4.88 26.6,-7.56 39.64,-2.98 -0.26,9.18 -8.86,14.54 -14.7,20.44 -12.56,8.46 -28.82,6.58 -43.14,5.6 6.24,-7.56 13.66,-14.2 18.2,-23.06 z"
     id="path38"
     inkscape:connector-curvature="0"
     style="fill:#f4722b" />
  <path
     d="m 735.96,475.94 c 24.98,-16.34 59.94,-15.8 84.12,1.86 14.78,10.16 24.74,26.08 29.58,43.18 -10.66,2.04 -21.4,3.52 -32.04,5.48 -3.08,-4 -7.72,-9.84 -13.38,-6.74 -8.78,5.14 -13.1,17.5 -8.84,26.9 1.42,3.82 4.6,6.54 7.2,9.56 5.6,-0.96 10.4,-4.04 13.4,-8.88 11.66,-3.52 23.68,-5.52 35.56,-8.08 -0.14,20.42 -8.9,40.52 -23.9,54.38 -13.92,12.82 -32.72,20.4 -51.72,19.92 -26.1,0.28 -51.5,-14.82 -64.24,-37.52 -8.66,-15.34 -12.22,-33.84 -8.52,-51.18 3.44,-19.94 15.96,-37.82 32.78,-48.88 z"
     id="path40"
     inkscape:connector-curvature="0"
     style="fill:#f5e5c1" />
  <path
     d="m 182.7,471.02 c 14.9,12 27.72,26.56 41.34,40.02 3.3,-0.42 6.6,-0.88 9.88,-1.38 11.62,-0.78 23.28,-1.06 34.92,-1.2 -7.28,7.52 -14.78,14.88 -21.74,22.68 -1.52,2.08 0.58,4.26 1.54,6.02 6.18,9.38 11.92,19.06 17.58,28.76 -15.1,-1 -29.1,-8.34 -44.08,-9.28 -10.3,6.14 -18.64,15.02 -29,21.1 -0.42,0.34 -1.28,1 -1.7,1.34 -0.12,-11.14 -1.84,-22.16 -3.08,-33.2 -11.98,-2.64 -23.54,-6.94 -35.6,-9.28 -0.1,-0.86 -0.32,-2.6 -0.42,-3.48 11.74,-2.38 23.44,-5.08 34.96,-8.42 -1.88,-10.9 -2.62,-21.94 -2.7,-32.98 l -1.12,-1.46 c -0.26,-6.42 -0.66,-12.82 -0.78,-19.24 z"
     id="path42"
     inkscape:connector-curvature="0"
     style="fill:#f5e5c1" />
  <path
     d="m 317,633.18 c 7.32,-0.24 14.64,-0.86 21.86,-2.08 2.76,14.56 0.92,29.6 4.22,44.04 -7.5,2.8 -15.6,1.84 -23.46,1.84 -0.32,-14.62 -0.2,-29.34 -2.62,-43.8 z"
     id="path44"
     inkscape:connector-curvature="0"
     style="fill:#f5e5c1" />
  <path
     d="m 162.72,675.26 c 2.84,-8.3 8.66,-15.46 12.86,-23.2 44.08,26.02 88.4,51.7 132.74,77.28 -3.54,8.34 -8.38,16.02 -13.32,23.6 -43.76,-26.44 -88.66,-51.12 -132.28,-77.68 z"
     id="path46"
     inkscape:connector-curvature="0"
     style="fill:#f5e5c1" />
  <path
     d="m 747.14,712.38 c 2.66,0.82 5.24,1.8 7.78,2.94 2.48,5.1 4.18,10.56 6.66,15.68 -5.44,2.42 -10.92,6.84 -17.22,5.22 -11.62,-2.84 -21.58,-9.88 -32.1,-15.24 11.5,-0.4 23.04,0.98 34.54,-0.28 0.08,-2.78 0.2,-5.56 0.34,-8.32 z"
     id="path48"
     inkscape:connector-curvature="0"
     style="fill:#f4722b" />
  <path
     d="m 770.76,722.46 c 5.76,-1.06 8.66,4.34 11.68,8.18 0.92,2.5 1.78,5.04 2.58,7.6 -1.16,12.12 -14.9,14.56 -24.44,17.02 -17.34,3.48 -35.06,4.66 -52.58,6.94 -20.38,3.24 -40.32,8.88 -59.66,16 -9.62,2.74 -17.84,8.62 -26.72,12.98 -14.38,7.2 -27.42,17.92 -34.78,32.48 0.34,3.96 -1.7,8.68 0.76,12.18 13.84,12.26 32.54,15.54 48.7,23.52 14.98,4.94 29.5,12.7 39.92,24.76 5.36,10.44 -0.32,22.58 -7.9,30.26 -11.34,10.58 -25.86,16.9 -40.34,21.94 -15.62,3.22 -30.1,9.7 -44.82,15.58 -0.14,2.44 -0.3,4.86 -0.44,7.32 5.52,0.06 11.04,-0.16 16.56,-0.48 -0.2,0.94 -0.56,2.82 -0.74,3.76 -4.62,2.1 -9.58,2.94 -14.62,2.68 -4.34,-3.64 -8.18,-7.82 -10.9,-12.8 11.2,-13.38 29.16,-16.32 45,-20.96 15.14,-2.68 29.86,-9.68 40.24,-21.2 4.24,-6.14 7.98,-13.78 6.4,-21.42 -2.28,-6.4 -8.5,-10.12 -14.18,-13.14 -12.86,-6.34 -25.24,-13.7 -38.66,-18.84 -12.8,-6.04 -27.26,-10.6 -36.66,-21.78 -4.8,-7.88 -3.02,-19.58 4.26,-25.52 17.08,-14.34 36.3,-25.88 56.02,-36.16 9.14,-3.78 18.42,-7.48 28.18,-9.26 12.24,-2.64 23.66,-8.98 36.38,-9.22 6.84,-0.12 13.26,-2.94 20.06,-3.48 5.32,-0.56 10.76,-0.28 16,-1.62 11.2,-3.22 23.28,-2.58 33.98,-7.66 6.4,-4.56 2.52,-13.66 0.72,-19.66 z"
     id="path50"
     inkscape:connector-curvature="0"
     style="fill:#f5e5c1" />
  <path
     d="m 88.34,783.78 c 11.86,7.14 22.86,15.6 34.34,23.34 5.02,3.2 9.38,7.82 15.12,9.62 13.14,-7.26 26.86,-13.66 39.34,-22.04 -3.54,13.1 -10.7,24.94 -16.08,37.36 7.4,5.12 14.08,11.28 21.78,16 0.26,1.46 0.52,2.94 0.78,4.42 -12.64,1.36 -25.22,3.68 -37.5,6.84 -4.48,8.74 -10.96,16.2 -16.22,24.46 -2.24,3.14 -3.94,7.2 -8.04,8.26 -4,-11.24 -8.28,-22.36 -12.94,-33.34 -11.9,0.68 -23.68,3 -35.64,2.46 7.56,-9.92 20.04,-15.06 27.56,-24.74 -3.46,-17.7 -9.34,-34.88 -12.5,-52.64 z"
     id="path52"
     inkscape:connector-curvature="0"
     style="fill:#f5e5c1" />
  <path
     d="m 827.74,793.08 c 0.8,-0.16 2.38,-0.48 3.16,-0.62 0.34,1.38 1.02,4.14 1.34,5.52 2.44,13.82 6,27.42 9.16,41.08 17.46,-0.26 34.78,2.76 52.26,1.9 -0.1,0.86 -0.3,2.58 -0.4,3.44 -15.9,9.1 -30.56,20.24 -46.32,29.58 -0.68,15.5 0.76,31.02 0.14,46.52 -10.14,-11.14 -20.46,-22.14 -30.04,-33.78 -7.2,-0.68 -14.2,1.1 -20.88,3.58 -4.76,1.14 -9.44,2.5 -14.1,3.98 -6.02,1.92 -12.08,3.66 -18.14,5.44 -2.08,0.52 -6.26,1.58 -8.34,2.12 5.12,-12.14 14.74,-21.5 22.7,-31.78 1.76,-2.64 4.88,-4.92 5.18,-8.24 -9.78,-8.3 -20.16,-15.9 -29.74,-24.42 -0.48,-1.24 -1.46,-3.72 -1.94,-4.96 12.74,0.1 25.6,-0.2 38.2,1.78 4.74,0.42 9.5,0.7 14.26,0.9 7.96,-13.94 16.5,-27.58 23.5,-42.04 z"
     id="path54"
     inkscape:connector-curvature="0"
     style="fill:#f5e5c1" />
  <path
     d="m 481.18,855.18 c 2.06,-1.74 4.82,-0.16 5.92,1.9 3.5,4.38 6.78,8.94 10.44,13.2 -8.76,7.08 -17.92,13.6 -26.66,20.7 -1.74,1.36 -3.68,3.22 -6.06,2.08 -4.38,-4.96 -8,-10.56 -12.44,-15.48 9.58,-7.5 18.9,-15.34 28.8,-22.4 z"
     id="path56"
     inkscape:connector-curvature="0"
     style="fill:#f5e5c1" />
  <path
     style="fill:#f5e5c1"
     d="M 387 1095.3438 C 362.55 1116.3937 338.76875 1139.0875 321.84375 1166.8125 C 320.69375 1176.2625 318.375 1185.5875 318.875 1195.1875 C 322.675 1203.5625 326.80625 1212.8125 335.65625 1216.9375 C 346.00625 1221.4625 357.7125 1222.2125 368.8125 1220.8125 L 368.59375 1220.7188 C 375.03066 1222.0728 381.26364 1217.8367 387.125 1215.3125 C 384.575 1208.3125 378.8875 1203.0187 371.3125 1202.2188 C 361.1625 1201.5687 349.15625 1198.8812 341.03125 1206.7812 C 336.23125 1199.5312 331.775 1191.2 334.25 1182.25 C 335.325 1164.775 347.6625 1151.0688 358.8125 1138.7188 C 371.3125 1126.1188 382.7375 1112.325 397.3125 1102 C 394.1875 1099.275 390.85 1096.8688 387 1095.3438 z M 368.03125 1202.7812 C 369.27031 1202.7637 370.50313 1202.7844 371.75 1202.8438 C 373.875 1207.0938 376.00625 1211.3563 378.28125 1215.5312 C 373.95625 1216.9063 369.6625 1218.3625 365.3125 1219.5625 C 361.5875 1219.1125 357.88125 1218.7813 354.15625 1218.5312 C 350.35625 1215.1562 346.58125 1211.7625 342.90625 1208.3125 C 350.89062 1204.8781 359.35781 1202.9043 368.03125 1202.7812 z "
     transform="scale(0.8,0.8)"
     id="path58" />
  <path
     d="m 452.38,944.98 c 17.78,-6.56 35.8,-12.54 53.82,-18.48 2.42,8.66 6.06,16.98 7.56,25.88 -18.2,4.6 -35.22,13.2 -53.6,16.86 -2,-8.28 -5.14,-16.2 -7.78,-24.26 z"
     id="path60"
     inkscape:connector-curvature="0"
     style="fill:#f5e5c1" />
</svg>
