<?xml version="1.0" encoding="UTF-8" ?>
<!DOCTYPE svg PUBLIC "-//W3C//DTD SVG 1.1//EN" "http://www.w3.org/Graphics/SVG/1.1/DTD/svg11.dtd">
<svg width="512pt" height="512pt" viewBox="0 0 512 512" version="1.1" xmlns="http://www.w3.org/2000/svg">
<path fill="#3e3e3e" opacity="1.00" d=" M 0.00 0.00 L 512.00 0.00 L 512.00 512.00 L 0.00 512.00 L 0.00 0.00 Z" />
<path fill="#f4722b" opacity="1.00" d=" M 253.47 27.83 C 262.93 24.76 272.89 21.63 282.95 23.16 C 297.66 24.06 311.34 31.16 322.34 40.70 C 329.89 46.36 334.91 54.54 339.07 62.85 C 343.11 69.96 344.61 78.09 346.76 85.88 C 349.01 93.73 348.43 101.94 349.55 109.96 C 349.42 122.90 345.86 135.66 340.03 147.18 C 333.70 161.97 322.39 173.99 310.21 184.20 C 302.47 190.33 293.29 194.52 283.81 197.15 C 280.36 197.44 276.85 197.38 273.43 197.74 C 273.46 197.45 273.54 196.88 273.57 196.60 C 263.52 195.20 254.46 190.27 245.61 185.58 C 231.98 177.91 221.53 165.87 212.79 153.13 C 206.91 143.14 202.24 132.25 200.83 120.66 C 197.76 106.42 199.15 91.29 204.69 77.82 C 209.00 68.10 214.98 59.17 221.83 51.06 C 229.86 40.48 241.34 32.94 253.47 27.83 Z" />
<path fill="#3e3e3e" opacity="1.00" d=" M 265.44 44.42 C 271.30 35.68 282.99 33.28 292.77 35.25 C 295.92 36.56 298.46 40.10 297.44 43.60 C 296.95 45.89 294.74 47.09 293.09 48.50 C 303.48 50.59 313.75 57.02 317.71 67.24 C 319.54 72.58 319.35 78.48 318.18 83.95 C 317.67 86.77 315.16 88.56 314.12 91.13 C 314.58 93.46 315.49 95.68 316.02 97.99 C 319.85 113.07 314.85 129.93 303.62 140.65 C 295.43 149.05 283.75 153.80 272.05 153.85 C 259.75 154.04 247.49 148.88 238.95 140.03 C 229.43 130.41 224.80 116.29 226.47 102.89 C 227.59 92.68 232.40 82.97 239.84 75.89 C 247.21 68.24 257.58 63.98 268.03 62.86 C 282.80 61.59 297.72 68.27 307.08 79.67 C 307.00 76.76 307.33 73.68 306.09 70.95 C 304.19 66.74 300.36 63.59 296.09 61.97 C 287.32 58.84 277.52 60.00 268.96 56.15 C 264.73 54.31 262.13 48.20 265.44 44.42 Z" />
<path fill="#f5e5c1" opacity="1.00" d=" M 268.74 46.77 C 273.40 39.53 283.05 37.86 290.99 39.08 C 293.07 39.33 294.05 41.48 293.49 43.36 C 290.78 44.31 287.87 43.22 285.08 43.60 C 280.42 44.11 274.96 44.59 272.14 48.91 C 280.16 51.04 288.63 50.91 296.52 53.56 C 304.46 56.45 312.32 62.03 314.51 70.64 C 315.63 76.91 315.49 84.60 309.96 88.86 C 303.12 93.84 295.73 98.02 288.78 102.85 C 288.04 101.99 287.34 101.10 286.69 100.17 C 293.33 95.67 299.79 90.88 306.57 86.58 C 310.98 83.71 311.98 77.85 311.07 73.01 C 309.55 65.47 303.03 59.86 295.96 57.54 C 288.17 55.22 279.81 55.67 272.09 53.08 C 269.49 52.40 266.95 49.40 268.74 46.77 Z" />
<path fill="#f5e5c1" opacity="1.00" d=" M 476.48 44.33 C 480.58 42.86 485.12 43.72 489.39 43.85 C 480.30 48.44 472.83 56.03 468.33 65.15 C 466.71 68.37 467.38 72.10 467.41 75.56 C 472.54 75.49 477.95 75.02 482.59 77.69 C 482.57 79.07 482.55 80.46 482.54 81.85 C 480.58 83.49 478.51 85.33 475.84 85.52 C 471.83 85.99 468.17 83.94 464.45 82.83 C 460.39 84.24 456.21 85.45 452.54 87.73 C 442.35 93.95 431.33 99.25 422.92 107.94 C 418.54 112.09 415.25 117.19 411.48 121.87 C 411.45 125.52 410.95 129.28 411.82 132.87 C 413.33 135.64 416.32 137.01 418.88 138.62 C 427.49 134.88 437.28 130.42 446.73 133.78 C 451.85 135.29 457.04 139.45 456.68 145.31 C 451.29 151.54 442.36 150.99 434.93 150.32 L 434.12 149.76 C 428.87 149.08 423.92 147.15 418.98 145.37 C 408.13 151.64 397.91 159.14 389.28 168.29 C 388.00 169.71 386.94 171.30 385.95 172.92 C 384.39 174.05 382.81 175.14 381.20 176.18 C 377.56 176.22 373.88 176.39 370.34 175.44 C 370.39 175.01 370.51 174.15 370.57 173.72 C 373.30 170.43 375.92 166.99 379.19 164.19 C 389.83 155.31 401.56 147.80 413.72 141.18 C 409.91 138.72 405.94 136.11 403.91 131.89 C 403.66 128.81 403.52 125.72 403.69 122.63 C 409.04 114.28 415.46 106.59 423.19 100.33 C 434.59 91.87 446.49 83.80 459.85 78.75 C 459.25 75.18 458.54 71.61 458.68 67.98 C 461.37 58.19 468.46 50.23 476.48 44.33 Z" />
<path fill="#f5e5c1" opacity="1.00" d=" M 266.02 67.27 C 280.91 64.95 296.44 71.93 305.33 83.95 C 300.19 87.13 295.00 90.24 289.91 93.50 C 287.63 91.77 284.03 90.22 281.76 92.84 C 276.47 99.10 280.54 110.69 289.01 111.41 C 291.85 110.08 293.03 107.10 293.69 104.23 C 299.03 100.21 304.59 96.49 310.19 92.83 C 312.85 100.17 314.11 108.19 312.42 115.90 C 310.23 127.94 302.44 138.81 291.68 144.65 C 280.95 150.67 267.48 151.43 256.10 146.78 C 245.50 142.55 236.85 133.67 232.88 122.97 C 228.59 111.80 229.51 98.77 235.36 88.33 C 241.49 76.98 253.24 68.95 266.02 67.27 Z" />
<path fill="#f4722b" opacity="1.00" d=" M 139.93 79.66 C 158.61 75.88 178.71 81.14 193.75 92.68 C 191.50 105.42 192.22 118.71 196.17 131.05 C 198.14 140.58 203.29 148.92 207.62 157.49 C 209.54 160.86 212.49 163.48 214.55 166.77 C 213.74 170.49 213.38 174.29 212.60 178.02 C 211.59 183.68 208.36 188.56 206.72 194.02 C 203.77 200.15 200.15 205.96 196.55 211.73 C 190.53 219.91 181.82 227.73 171.04 227.54 C 163.90 227.00 156.67 226.23 149.84 223.96 C 141.14 220.54 132.19 217.19 124.93 211.11 C 116.76 205.33 109.22 198.43 103.77 189.97 C 94.24 174.52 88.73 156.13 90.59 137.90 C 91.87 128.66 94.60 119.67 98.38 111.15 C 107.17 95.56 122.53 83.90 139.93 79.66 Z" />
<path fill="#3e3e3e" opacity="1.00" d=" M 114.82 111.00 C 116.10 101.84 125.23 95.56 133.97 94.88 C 138.85 94.24 140.98 100.14 139.49 104.00 C 144.15 103.83 148.96 103.87 153.36 105.64 C 156.03 106.84 158.41 108.57 160.95 110.01 C 165.28 115.75 168.83 123.13 166.39 130.40 C 170.57 135.65 174.87 141.40 175.67 148.26 C 177.63 158.55 175.67 169.83 169.08 178.15 C 163.70 185.88 154.99 190.67 145.95 192.79 C 135.90 194.45 125.32 191.83 117.07 185.88 C 111.96 181.50 106.80 176.63 104.90 169.94 C 100.27 161.28 101.63 150.79 104.94 141.91 C 108.39 132.81 116.02 125.91 124.60 121.66 C 134.67 117.41 146.45 118.00 156.19 122.88 C 154.16 119.94 151.80 116.73 148.07 115.94 C 139.18 113.40 130.92 119.78 122.02 119.15 C 117.82 119.39 114.06 115.14 114.82 111.00 Z" />
<path fill="#f5e5c1" opacity="1.00" d=" M 118.72 112.10 C 119.57 104.96 126.52 100.57 133.00 99.13 C 134.80 98.57 136.35 100.20 135.89 101.97 C 130.55 103.98 123.75 105.86 121.82 111.94 C 129.98 110.98 137.83 107.16 146.18 108.36 C 152.79 108.89 159.55 112.77 161.78 119.28 C 163.55 122.85 163.75 127.20 161.56 130.64 C 157.98 136.23 153.95 141.53 150.15 146.97 C 149.61 146.65 148.53 146.01 147.99 145.69 C 151.38 140.24 154.94 134.90 158.57 129.61 C 160.11 127.44 160.51 124.59 159.62 122.08 C 158.17 115.96 152.12 111.95 146.10 111.37 C 138.11 110.44 130.78 114.69 122.90 115.09 C 121.16 115.02 118.74 114.21 118.72 112.10 Z" />
<path fill="#f5e5c1" opacity="1.00" d=" M 125.86 125.84 C 135.75 121.28 147.62 122.51 156.94 127.89 C 154.14 131.82 151.26 135.68 148.38 139.54 C 146.27 139.21 143.25 138.82 142.27 141.30 C 139.97 147.45 146.28 155.03 152.83 153.22 C 155.49 150.98 153.55 147.09 155.53 144.51 C 157.94 140.61 160.60 136.86 163.18 133.08 C 167.36 137.83 170.64 143.51 171.73 149.80 C 174.08 161.36 169.58 173.94 160.47 181.42 C 151.04 189.49 136.98 191.41 125.72 186.20 C 114.42 181.19 106.39 169.44 106.25 157.02 C 105.66 143.90 113.83 131.04 125.86 125.84 Z" />
<path fill="#3e3e3e" opacity="1.00" d=" M 426.71 142.17 C 430.77 139.00 436.02 138.25 440.98 137.56 C 443.50 137.67 445.55 139.53 447.65 140.76 C 447.58 141.90 447.52 143.04 447.46 144.19 C 440.61 147.14 433.26 144.66 426.71 142.17 Z" />
<path fill="#f4722b" opacity="1.00" d=" M 258.48 201.28 C 260.95 199.68 264.16 199.14 267.05 199.67 C 272.19 201.58 276.69 205.53 282.40 205.66 C 284.29 203.05 287.06 201.73 290.29 202.36 C 291.73 205.46 293.78 208.48 293.88 212.01 C 292.75 212.84 291.42 213.65 289.95 213.34 C 285.22 212.91 280.49 212.23 275.90 211.01 C 269.78 209.42 264.24 206.28 258.27 204.28 C 258.30 203.28 258.37 202.28 258.48 201.28 Z" />
<path fill="#f4722b" opacity="1.00" d=" M 405.57 203.92 C 421.38 202.37 438.83 205.00 450.98 216.01 C 457.73 223.17 463.53 231.37 467.29 240.49 C 469.61 247.23 471.79 254.04 473.33 261.00 C 473.92 266.98 473.80 273.02 473.59 279.02 C 471.86 292.79 465.64 305.60 457.85 316.92 C 454.61 320.35 451.48 323.87 448.34 327.38 C 441.08 333.61 434.05 340.45 425.21 344.41 C 418.05 347.75 410.60 350.68 402.91 352.51 C 391.65 353.29 380.04 354.93 368.98 351.77 C 365.33 350.68 361.43 350.03 358.17 347.96 C 349.94 341.07 344.56 331.56 339.93 322.03 C 336.91 314.93 334.21 307.62 332.71 300.04 C 332.06 287.67 331.84 274.94 335.97 263.10 C 339.40 254.85 342.71 246.41 348.26 239.29 C 352.35 234.10 356.02 228.38 361.44 224.45 C 367.98 219.52 374.56 214.51 381.99 210.97 C 389.37 207.31 397.41 205.02 405.57 203.92 Z" />
<path fill="#3e3e3e" opacity="1.00" d=" M 409.92 210.87 C 416.90 208.60 424.47 210.59 430.46 214.51 C 432.21 215.92 433.45 217.95 433.96 220.13 C 433.95 223.60 431.36 226.29 428.25 227.43 C 436.62 233.22 442.70 243.52 441.03 253.97 C 440.19 257.49 438.41 260.68 436.99 263.99 C 436.02 266.93 432.62 267.57 430.48 269.40 C 429.39 275.45 428.76 281.68 426.34 287.39 C 423.75 292.19 420.58 296.75 416.44 300.35 C 411.72 305.40 404.91 307.63 398.51 309.68 C 387.42 313.16 375.38 310.10 365.64 304.34 C 358.30 299.81 353.17 292.48 349.56 284.80 C 346.78 276.99 346.08 268.47 347.38 260.30 C 349.77 252.83 353.01 245.27 359.01 239.95 C 368.48 230.50 382.69 225.80 395.90 228.52 C 402.89 228.92 408.80 232.90 414.36 236.76 C 420.59 241.79 425.07 248.75 427.74 256.25 C 430.32 251.44 429.54 245.11 425.86 241.06 C 419.82 234.37 410.42 232.27 404.17 225.83 C 402.42 223.67 401.06 220.81 401.74 217.98 C 402.26 213.86 406.69 212.40 409.92 210.87 Z" />
<path fill="#f5e5c1" opacity="1.00" d=" M 268.56 214.51 C 269.49 214.61 270.42 214.71 271.36 214.80 C 271.40 215.33 271.49 216.40 271.54 216.93 C 261.66 231.28 249.98 244.52 242.37 260.31 C 240.52 263.62 241.48 267.59 241.39 271.21 C 249.43 284.32 261.17 294.50 270.30 306.77 C 279.47 317.50 289.78 327.82 295.14 341.13 C 298.90 347.41 299.63 355.24 297.42 362.18 C 296.03 364.61 293.71 366.14 291.27 367.38 C 285.35 371.10 278.37 372.30 271.94 374.86 C 266.35 376.83 261.42 380.18 256.00 382.52 C 239.63 389.66 223.20 396.74 207.52 405.33 C 200.67 408.98 194.89 414.23 188.40 418.44 C 182.99 422.17 178.86 427.39 173.86 431.60 C 171.61 432.34 170.79 429.67 169.46 428.48 C 169.49 428.00 169.57 427.05 169.61 426.58 C 181.47 415.71 195.01 406.83 209.17 399.24 C 223.47 390.80 238.83 384.44 253.96 377.67 C 254.51 377.58 255.60 377.39 256.15 377.30 C 261.42 375.42 266.24 372.25 271.84 371.38 C 275.22 370.54 278.10 368.44 281.31 367.15 C 285.38 365.46 287.66 361.33 289.30 357.48 C 290.76 350.04 288.78 342.28 285.21 335.71 C 279.20 326.62 272.48 317.99 265.11 309.97 C 260.02 304.07 254.99 298.10 249.51 292.56 C 244.66 287.28 240.54 281.38 236.38 275.56 C 233.80 272.30 234.24 267.97 234.24 264.07 C 234.20 261.12 235.20 258.29 236.64 255.75 C 241.33 247.34 246.26 238.96 252.71 231.76 C 257.78 225.82 262.95 219.94 268.56 214.51 Z" />
<path fill="#f5e5c1" opacity="1.00" d=" M 406.98 216.98 C 413.56 212.45 422.36 214.49 428.66 218.52 C 429.71 219.40 429.33 221.04 429.65 222.25 C 429.05 222.35 427.83 222.54 427.22 222.63 C 421.93 219.48 414.90 216.75 409.00 219.83 C 415.13 224.59 422.61 227.37 428.39 232.61 C 433.85 237.81 438.31 245.18 437.00 253.01 C 435.72 258.44 432.98 264.52 427.12 266.16 C 419.73 268.03 412.15 269.11 404.67 270.53 C 404.37 269.86 403.77 268.52 403.48 267.86 C 410.49 266.25 417.49 264.56 424.57 263.29 C 429.20 262.59 432.10 258.22 433.23 254.01 C 434.78 247.67 431.88 241.01 427.43 236.53 C 421.60 231.03 413.60 228.58 407.56 223.34 C 405.78 221.80 404.45 218.50 406.98 216.98 Z" />
<path fill="#f5e5c1" opacity="1.00" d=" M 206.37 223.63 C 208.62 223.58 210.86 223.55 213.11 223.51 C 215.59 225.01 218.03 226.58 220.44 228.18 C 220.53 230.12 220.60 232.07 220.65 234.02 C 214.66 241.92 206.41 247.58 198.99 254.00 C 193.73 259.40 187.83 264.27 183.46 270.46 C 181.65 273.00 179.44 275.24 177.81 277.90 C 176.33 281.09 178.15 285.19 181.26 286.64 C 192.81 292.22 204.76 296.93 216.20 302.74 C 223.06 306.79 229.90 312.23 232.22 320.21 C 232.16 323.17 231.22 326.16 229.97 328.84 C 221.11 339.63 211.67 349.97 201.49 359.55 C 193.34 366.86 187.73 376.38 180.60 384.59 C 175.06 392.11 169.06 399.37 164.41 407.50 C 162.79 410.03 162.39 413.02 162.12 415.96 C 160.61 421.62 161.22 428.16 165.33 432.63 C 173.77 442.80 185.36 450.54 198.01 454.43 C 197.60 454.15 196.79 453.58 196.38 453.30 C 196.34 452.38 196.30 451.46 196.26 450.55 C 198.03 450.52 199.81 450.50 201.59 450.48 C 202.93 452.03 204.16 453.78 203.66 455.96 C 198.32 458.72 192.25 456.76 187.15 454.46 C 175.27 449.39 164.93 441.13 156.85 431.11 C 153.45 426.43 154.12 420.32 154.68 414.92 C 156.55 408.89 160.11 403.58 163.10 398.07 C 169.76 388.21 176.93 378.68 184.71 369.67 C 187.77 366.75 190.73 363.75 193.50 360.55 C 199.25 355.29 205.19 350.17 210.18 344.15 C 214.49 339.19 219.25 334.53 222.65 328.86 C 226.24 323.13 224.73 314.84 219.35 310.75 C 211.40 303.59 200.93 300.44 191.54 295.71 C 185.88 292.78 179.67 290.98 174.22 287.66 C 172.25 286.11 170.13 283.88 170.26 281.21 C 171.27 276.03 175.67 272.67 178.52 268.52 C 181.75 263.82 186.18 260.19 190.09 256.09 C 196.23 249.49 204.42 245.02 209.90 237.76 C 211.45 235.15 213.24 231.69 211.40 228.78 C 209.67 228.20 207.95 227.58 206.37 226.67 C 206.25 225.66 206.25 224.65 206.37 223.63 Z" />
<path fill="#f4722b" opacity="1.00" d=" M 181.99 226.85 C 188.25 224.41 195.29 223.07 201.81 225.36 C 201.68 229.95 197.38 232.63 194.46 235.58 C 188.18 239.81 180.05 238.87 172.89 238.38 C 176.01 234.60 179.72 231.28 181.99 226.85 Z" />
<path fill="#f5e5c1" opacity="1.00" d=" M 367.98 237.97 C 380.47 229.80 397.95 230.07 410.04 238.90 C 417.43 243.98 422.41 251.94 424.83 260.49 C 419.50 261.51 414.13 262.25 408.81 263.23 C 407.27 261.23 404.95 258.31 402.12 259.86 C 397.73 262.43 395.57 268.61 397.70 273.31 C 398.41 275.22 400.00 276.58 401.30 278.09 C 404.10 277.61 406.50 276.07 408.00 273.65 C 413.83 271.89 419.84 270.89 425.78 269.61 C 425.71 279.82 421.33 289.87 413.83 296.80 C 406.87 303.21 397.47 307.00 387.97 306.76 C 374.92 306.90 362.22 299.35 355.85 288.00 C 351.52 280.33 349.74 271.08 351.59 262.41 C 353.31 252.44 359.57 243.50 367.98 237.97 Z" />
<path fill="#f5e5c1" opacity="1.00" d=" M 91.35 235.51 C 98.80 241.51 105.21 248.79 112.02 255.52 C 113.67 255.31 115.32 255.08 116.96 254.83 C 122.77 254.44 128.60 254.30 134.42 254.23 C 130.78 257.99 127.03 261.67 123.55 265.57 C 122.79 266.61 123.84 267.70 124.32 268.58 C 127.41 273.27 130.28 278.11 133.11 282.96 C 125.56 282.46 118.56 278.79 111.07 278.32 C 105.92 281.39 101.75 285.83 96.57 288.87 C 96.36 289.04 95.93 289.37 95.72 289.54 C 95.66 283.97 94.80 278.46 94.18 272.94 C 88.19 271.62 82.41 269.47 76.38 268.30 C 76.33 267.87 76.22 267.00 76.17 266.56 C 82.04 265.37 87.89 264.02 93.65 262.35 C 92.71 256.90 92.34 251.38 92.30 245.86 L 91.74 245.13 C 91.61 241.92 91.41 238.72 91.35 235.51 Z" />
<path fill="#f5e5c1" opacity="1.00" d=" M 158.50 316.59 C 162.16 316.47 165.82 316.16 169.43 315.55 C 170.81 322.83 169.89 330.35 171.54 337.57 C 167.79 338.97 163.74 338.49 159.81 338.49 C 159.65 331.18 159.71 323.82 158.50 316.59 Z" />
<path fill="#f5e5c1" opacity="1.00" d=" M 81.36 337.63 C 82.78 333.48 85.69 329.90 87.79 326.03 C 109.83 339.04 131.99 351.88 154.16 364.67 C 152.39 368.84 149.97 372.68 147.50 376.47 C 125.62 363.25 103.17 350.91 81.36 337.63 Z" />
<path fill="#f4722b" opacity="1.00" d=" M 373.57 356.19 C 374.90 356.60 376.19 357.09 377.46 357.66 C 378.70 360.21 379.55 362.94 380.79 365.50 C 378.07 366.71 375.33 368.92 372.18 368.11 C 366.37 366.69 361.39 363.17 356.13 360.49 C 361.88 360.29 367.65 360.98 373.40 360.35 C 373.44 358.96 373.50 357.57 373.57 356.19 Z" />
<path fill="#f5e5c1" opacity="1.00" d=" M 385.38 361.23 C 388.26 360.70 389.71 363.40 391.22 365.32 C 391.68 366.57 392.11 367.84 392.51 369.12 C 391.93 375.18 385.06 376.40 380.29 377.63 C 371.62 379.37 362.76 379.96 354.00 381.10 C 343.81 382.72 333.84 385.54 324.17 389.10 C 319.36 390.47 315.25 393.41 310.81 395.59 C 303.62 399.19 297.10 404.55 293.42 411.83 C 293.59 413.81 292.57 416.17 293.80 417.92 C 300.72 424.05 310.07 425.69 318.15 429.68 C 325.64 432.15 332.90 436.03 338.11 442.06 C 340.79 447.28 337.95 453.35 334.16 457.19 C 328.49 462.48 321.23 465.64 313.99 468.16 C 306.18 469.77 298.94 473.01 291.58 475.95 C 291.51 477.17 291.43 478.38 291.36 479.61 C 294.12 479.64 296.88 479.53 299.64 479.37 C 299.54 479.84 299.36 480.78 299.27 481.25 C 296.96 482.30 294.48 482.72 291.96 482.59 C 289.79 480.77 287.87 478.68 286.51 476.19 C 292.11 469.50 301.09 468.03 309.01 465.71 C 316.58 464.37 323.94 460.87 329.13 455.11 C 331.25 452.04 333.12 448.22 332.33 444.40 C 331.19 441.20 328.08 439.34 325.24 437.83 C 318.81 434.66 312.62 430.98 305.91 428.41 C 299.51 425.39 292.28 423.11 287.58 417.52 C 285.18 413.58 286.07 407.73 289.71 404.76 C 298.25 397.59 307.86 391.82 317.72 386.68 C 322.29 384.79 326.93 382.94 331.81 382.05 C 337.93 380.73 343.64 377.56 350.00 377.44 C 353.42 377.38 356.63 375.97 360.03 375.70 C 362.69 375.42 365.41 375.56 368.03 374.89 C 373.63 373.28 379.67 373.60 385.02 371.06 C 388.22 368.78 386.28 364.23 385.38 361.23 Z" />
<path fill="#f5e5c1" opacity="1.00" d=" M 44.17 391.89 C 50.10 395.46 55.60 399.69 61.34 403.56 C 63.85 405.16 66.03 407.47 68.90 408.37 C 75.47 404.74 82.33 401.54 88.57 397.35 C 86.80 403.90 83.22 409.82 80.53 416.03 C 84.23 418.59 87.57 421.67 91.42 424.03 C 91.55 424.76 91.68 425.50 91.81 426.24 C 85.49 426.92 79.20 428.08 73.06 429.66 C 70.82 434.03 67.58 437.76 64.95 441.89 C 63.83 443.46 62.98 445.49 60.93 446.02 C 58.93 440.40 56.79 434.84 54.46 429.35 C 48.51 429.69 42.62 430.85 36.64 430.58 C 40.42 425.62 46.66 423.05 50.42 418.21 C 48.69 409.36 45.75 400.77 44.17 391.89 Z" />
<path fill="#f5e5c1" opacity="1.00" d=" M 413.87 396.54 C 414.27 396.46 415.06 396.30 415.45 396.23 C 415.62 396.92 415.96 398.30 416.12 398.99 C 417.34 405.90 419.12 412.70 420.70 419.53 C 429.43 419.40 438.09 420.91 446.83 420.48 C 446.78 420.91 446.68 421.77 446.63 422.20 C 438.68 426.75 431.35 432.32 423.47 436.99 C 423.13 444.74 423.85 452.50 423.54 460.25 C 418.47 454.68 413.31 449.18 408.52 443.36 C 404.92 443.02 401.42 443.91 398.08 445.15 C 395.70 445.72 393.36 446.40 391.03 447.14 C 388.02 448.10 384.99 448.97 381.96 449.86 C 380.92 450.12 378.83 450.65 377.79 450.92 C 380.35 444.85 385.16 440.17 389.14 435.03 C 390.02 433.71 391.58 432.57 391.73 430.91 C 386.84 426.76 381.65 422.96 376.86 418.70 C 376.62 418.08 376.13 416.84 375.89 416.22 C 382.26 416.27 388.69 416.12 394.99 417.11 C 397.36 417.32 399.74 417.46 402.12 417.56 C 406.10 410.59 410.37 403.77 413.87 396.54 Z" />
<path fill="#f5e5c1" opacity="1.00" d=" M 240.59 427.59 C 241.62 426.72 243.00 427.51 243.55 428.54 C 245.30 430.73 246.94 433.01 248.77 435.14 C 244.39 438.68 239.81 441.94 235.44 445.49 C 234.57 446.17 233.60 447.10 232.41 446.53 C 230.22 444.05 228.41 441.25 226.19 438.79 C 230.98 435.04 235.64 431.12 240.59 427.59 Z" />
<path fill="#f5e5c1" opacity="1.00" d=" M 154.80 438.14 C 156.34 438.75 157.68 439.71 158.93 440.80 C 153.10 444.93 148.52 450.45 143.52 455.49 C 139.06 460.43 134.13 465.91 133.70 472.90 C 132.71 476.48 134.49 479.81 136.41 482.71 C 139.66 479.55 144.46 480.63 148.52 480.89 C 151.55 481.21 153.83 483.32 154.85 486.12 C 152.11 487.30 149.17 489.44 146.13 487.82 C 147.87 487.34 149.58 486.76 151.31 486.21 C 150.40 484.54 149.55 482.84 148.70 481.14 C 144.71 480.95 140.81 481.76 137.16 483.33 C 138.63 484.71 140.14 486.06 141.66 487.41 C 143.15 487.51 144.64 487.64 146.13 487.82 L 147.53 488.32 C 143.09 488.88 138.40 488.59 134.26 486.78 C 130.72 485.13 129.07 481.43 127.55 478.08 C 127.35 474.24 128.28 470.50 128.74 466.72 C 135.51 455.63 145.02 446.56 154.80 438.14 Z" />
<path fill="#f5e5c1" opacity="1.00" d=" M 226.19 472.49 C 235.08 469.21 244.09 466.22 253.10 463.25 C 254.31 467.58 256.13 471.74 256.88 476.19 C 247.78 478.49 239.27 482.79 230.08 484.62 C 229.08 480.48 227.51 476.52 226.19 472.49 Z" />
<path fill="#3e3e3e" opacity="1.00" d=" M 137.16 483.33 C 140.81 481.76 144.71 480.95 148.70 481.14 C 149.55 482.84 150.40 484.54 151.31 486.21 C 149.58 486.76 147.87 487.34 146.13 487.82 C 144.64 487.64 143.15 487.51 141.66 487.41 C 140.14 486.06 138.63 484.71 137.16 483.33 Z" />
</svg>
