<?xml version="1.0" encoding="UTF-8" standalone="no"?>
<svg
   xmlns:dc="http://purl.org/dc/elements/1.1/"
   xmlns:cc="http://creativecommons.org/ns#"
   xmlns:rdf="http://www.w3.org/1999/02/22-rdf-syntax-ns#"
   xmlns:svg="http://www.w3.org/2000/svg"
   xmlns="http://www.w3.org/2000/svg"
   xmlns:sodipodi="http://sodipodi.sourceforge.net/DTD/sodipodi-0.dtd"
   xmlns:inkscape="http://www.inkscape.org/namespaces/inkscape"
   width="1280"
   height="1280"
   viewBox="0 0 1024 1024"
   version="1.1"
   id="svg2"
   inkscape:version="0.48.1 "
   sodipodi:docname="air_burst_kills.svg">
  <metadata
     id="metadata52">
    <rdf:RDF>
      <cc:Work
         rdf:about="">
        <dc:format>image/svg+xml</dc:format>
        <dc:type
           rdf:resource="http://purl.org/dc/dcmitype/StillImage" />
      </cc:Work>
    </rdf:RDF>
  </metadata>
  <defs
     id="defs50" />
  <sodipodi:namedview
     pagecolor="#ffffff"
     bordercolor="#666666"
     borderopacity="1"
     objecttolerance="10"
     gridtolerance="10"
     guidetolerance="10"
     inkscape:pageopacity="0"
     inkscape:pageshadow="2"
     inkscape:window-width="1920"
     inkscape:window-height="1018"
     id="namedview48"
     showgrid="false"
     inkscape:zoom="0.6609375"
     inkscape:cx="640"
     inkscape:cy="640"
     inkscape:window-x="-8"
     inkscape:window-y="-8"
     inkscape:window-maximized="1"
     inkscape:current-layer="svg2"
     fit-margin-top="0"
     fit-margin-left="0"
     fit-margin-right="0"
     fit-margin-bottom="0" />
  <path
     d="m 0,0 1024,0 0,1024 L 0,1024 0,0 z"
     id="path4"
     style="fill:#3e3e3e"
     inkscape:connector-curvature="0" />
  <path
     d="m 293.55,54.95 c -1.16027,0.0117 -2.36499,0.3775 -3.25,1.15 -19.6,14.72 -38.69,30.24 -58.45,44.7 -23.92,0.12 -47.37,5.64 -69.45,14.5 -19.8,-3.56 -38.96,-10.45 -58.7,-14.45 -2.26,-0.2 -4.54,-0.27 -6.8,-0.25 -1.4,23.36 0.8,46.88 -0.5,70.2 -12.16,19.04 -21.68,39.91 -25.7,62.25 -16.8,13 -31.58,28.3 -47.5,42.3 -3.46,1.96 -2.64,7.24 0.9,8.6 16.52,10.78 33.31,21.14 49.85,31.9 4.7,2.48 5.65,8.05 7.75,12.45 8.56,19.9 21.35,38.01 37.25,52.75 4.72,4.56 10.43,8.71 12.35,15.35 3.66,11.5 7.44,23.01 12.4,34.05 5.56,12.62 9.88,25.87 16.4,38.05 0.98,0.12 2.97,0.3 3.95,0.4 19.56,-14.02 37.92,-29.62 57.3,-43.9 8.84,0.22 17.71,0.12 26.55,-0.3 -7.12,-11.96 -16.27,-22.6 -23.35,-34.6 12.5,-10.94 25.73,-20.98 37.95,-32.2 3.14,-2.44 -0.02,-6.15 -0.9,-8.95 -14.02,-29.46 -27.8,-58.99 -42,-88.35 -2.02,-4.08 -3.8,-8.33 -5.2,-12.65 26.5,-6.52 52.36,-15.6 78.9,-21.9 -4.54,-19.12 -12.78,-37.14 -18.3,-56 17.44,-6.04 34.56,-12.9 51.8,-19.5 0.94,-4.82 1.96,-9.66 2.7,-14.5 -6.48,-8.8 -7.78,-19.94 -12,-29.8 -6.64,-16.02 -12.82,-32.24 -19.8,-48.1 -0.3625,-2.1875 -2.21621,-3.21953 -4.15,-3.2 z m -1,16.6 c 8.88,22.88 18.28,45.59 26.7,68.65 -0.68,1.22 -2.07,3.63 -2.75,4.85 -9.64,2.06 -19.52,0.61 -29.1,-0.95 -16.58,-3.62 -32.88,-9.32 -47.4,-18.2 -3.82,-2.46 -9.48,-5.65 -7.1,-11.15 2.44,-3.5 6.47,-5.61 9.85,-8.15 16.82,-11.38 32.62,-24.23 49.8,-35.05 z m -183.4,40.9 c 22.76,5.8 45.32,12.54 68,18.7 3.6,0.36 4.37,4.29 6.15,6.75 -9.46,16.7 -25.1,28.49 -40.9,38.75 -8.82,5.4 -18.2,10.6 -28.5,12.5 -3.56,1.18 -5.38,-2.42 -6.1,-5.2 -1.14,-9.28 0.73,-18.6 0.75,-27.9 0.1,-14.54 0.66,-29.06 0.6,-43.6 z m 92.85,13.7 c 11.58,6.1 21.69,14.51 32.95,21.15 7.38,4.22 13.03,10.77 17.75,17.75 7.46,11.92 5.72,28 -2.1,39.3 -15.48,22.92 -51.69,28.11 -72.35,9.35 -14.06,-12.16 -16.09,-35.16 -5.05,-49.9 9.2,-12.86 19.7,-24.73 28.8,-37.65 z M 96.35,229 c 11.14,21.02 12.16,45.59 10.6,68.85 -0.24,6.68 -2.22,13.1 -4.3,19.4 -2.94,-0.18 -6.24,0.75 -8.8,-1.15 C 75.39,303.44 57.12,290.39 38.3,278.25 l 0.1,-3.1 c 16.32,-14.66 32.86,-29.08 49,-43.9 2.28,-2.66 5.85,-1.93 8.95,-2.25 z m 74.85,36.05 c 0.69877,-0.0232 1.40013,-0.016 2.1,0 9.33165,0.21387 18.6875,3.8375 25.9,9.65 18.48,14.28 25.66,42.76 13.1,63.1 -9.2,15.16 -29.7,21.35 -46,14.65 -14.44,-6 -28.99,-11.87 -43.15,-18.55 4.3,-13.92 8.96,-27.72 13.7,-41.5 4.38,-9.46 10.35,-19.22 20.15,-23.8 4.46907,-2.24438 9.30866,-3.38781 14.2,-3.55 z M 150.75,378.2 c 11.74312,0.18 23.42,2.18499 34.55,6.1 13.1,4.56 26.94,9.15 37.4,18.65 3.28,5.18 -2.38,9.36 -6.2,11.9 -17.8,12.3 -34.77,25.83 -52.95,37.55 -8.42,-21.52 -17.04,-43 -25.5,-64.5 -1.82,-3.1 -0.03,-6.32 0.95,-9.3 3.91,-0.34499 7.83563,-0.46 11.75,-0.4 z"
     id="path6"
     style="fill:#f5e5c1"
     inkscape:connector-curvature="0" />
  <path
     d="M 648.32,256.78 C 699.54,203.32 751.08,150.16 801.96,96.4 777.42,166.3 752.14,235.94 727.64,305.86 701.06,289.76 674.7,273.24 648.32,256.78 z"
     id="path10"
     inkscape:connector-curvature="0"
     style="fill:#f4722b" />
  <path
     d="m 457.86,196.06 c 27.56,-9.64 58.94,-4.56 82.96,11.74 -16.76,-2.28 -33.68,-6.26 -50.68,-3.86 -24.36,2.38 -49.34,11.5 -65.64,30.44 -12.04,13.9 -16.96,33.72 -11.56,51.44 -12.64,-8.42 -27.52,-14.8 -43.02,-13.42 -15.96,0.54 -30.5,12.12 -34.94,27.4 -6,18.94 -0.1,39.16 8.94,56.12 -13.96,11.56 -13.72,32.58 -5.44,47.42 1.9,4.52 6.16,8.04 7,12.96 -12.82,5.58 -26.24,10.76 -36.98,19.98 -12.72,12.3 -22.82,27.86 -26.08,45.48 -4.6,24.34 -0.72,49.96 9.6,72.38 -20.56,-18.86 -30.7,-48.4 -25.72,-75.88 5.36,-32.9 31.16,-60.48 62.88,-69.9 -11.72,-8.16 -17.42,-24.52 -11.82,-37.92 2,-6.96 7.88,-11.46 12.44,-16.68 -2.94,-5.44 -7.62,-9.72 -10.24,-15.36 -5.4,-11.2 -7.8,-24.32 -4.64,-36.52 4.72,-23.5 25.48,-42 48.92,-45.64 11.62,-2.68 23.38,0.24 34.58,3.4 6.9,-29.74 30.52,-54.3 59.44,-63.58 z"
     id="path16"
     inkscape:connector-curvature="0"
     style="fill:#f5e5c1" />
  <path
     d="m 507.98,310.04 c 11.92,-12.94 31.3,-17.66 48.02,-12.54 7.64,2.98 14.46,7.64 20.24,13.46 -0.88,-0.44 -2.62,-1.34 -3.48,-1.78 -15,-0.98 -30.74,-1.66 -44.64,5.1 -8.14,3.44 -14.74,9.56 -20.28,16.34 -23.94,-6.96 -50.46,-7.2 -73.38,3.46 -17.36,7.74 -32.08,24.04 -32.88,43.74 -0.3,19.9 12.72,37.5 28.7,48.24 -14.56,4.74 -28.44,15.9 -30.8,31.8 -2.64,17.74 9.9,33.84 24.62,42.16 -14.18,-4.66 -27.06,-14.58 -32.74,-28.7 -6.86,-18.16 -2.6,-40.4 12.34,-53.4 -12.2,-15.52 -19.42,-35.98 -14.96,-55.68 5.68,-32.08 36.98,-56.38 69.28,-55.62 15.18,-0.84 29.46,5.22 42.18,12.9 3.22,-2.54 4.92,-6.56 7.78,-9.48 z"
     id="path22"
     inkscape:connector-curvature="0"
     style="fill:#f5e5c1" />
  <path
     d="m 666.48,440.82 c 3.14,-0.42 6.3,-0.58 9.46,-0.86 l -3.72,1.62 c 27.78,4.48 42.1,39.88 28.54,63.5 -0.82,1.38 -2.58,4.5 0.2,5 21.12,8.1 35.4,27.62 43.62,47.98 0.18,1.14 0.58,3.42 0.78,4.56 l 1.12,1.28 c 3.72,14.38 5.52,29.28 3.94,44.14 -1.52,7.82 -3.14,15.66 -4.2,23.58 -0.18,-0.96 -0.56,-2.92 -0.76,-3.9 -0.2,1.62 -0.62,4.86 -0.82,6.48 -6.14,16.52 -15.16,32.2 -28.34,44.12 -7.32,5.94 -10.76,14.88 -15.7,22.62 -5.98,11.48 -8.46,24.66 -16.2,35.26 -11.02,16 -29.68,24.7 -48.28,28.34 -20.24,2.1 -41.96,-1.58 -58.2,-14.52 -2.26,-1.4 -5.3,-5.14 -7.82,-2.18 -26.4,23.68 -69.08,21.7 -96.26,0.44 -15.02,-11.08 -26.42,-29.06 -25.36,-48.22 0.04,-4.2 0.4,-8.4 0.82,-12.54 3.68,1.36 3.76,5.62 5.1,8.7 7.38,22.82 22.52,44.46 45.14,54.16 2.12,0.7 4.26,1.44 6.4,2.22 11.72,1.34 24.38,2.04 34.96,-4.16 13.2,-7.56 23.74,-19.94 29.26,-34.12 8.64,12.92 19,25.6 33.5,32.14 17.74,8.96 40.5,5.64 55.28,-7.56 19.04,-16.72 27.04,-42.62 28.24,-67.26 17.4,-4.7 30.72,-18.96 37.24,-35.38 10.88,-27.04 9.02,-58.72 -3.74,-84.8 -8.04,-15.52 -20.2,-30.58 -37.68,-35.5 0.12,-0.52 0.4,-1.56 0.54,-2.08 17.24,-20.66 12.28,-56.7 -10.9,-70.96 -2.42,1.02 -5.04,0.32 -6.16,-2.1 z"
     id="path26"
     inkscape:connector-curvature="0"
     style="fill:#f5e5c1" />
  <path
     d="m 550.82,450.26 c 27.12,-10.4 59.76,4.52 72.52,29.98 11.16,21.02 7.68,50.66 -11.16,66.16 13.8,4.06 26.94,12.44 34,25.28 6.52,11.16 7.14,25.9 0.52,37.16 -6.7,12.14 -20.18,19.28 -33.62,21.1 -9.98,2.04 -19.9,-1.16 -29.54,-3.44 -2.82,31.28 -41.84,52.26 -69.42,37.38 -9.74,-5 -15.88,-15.04 -17.42,-25.7 5.88,11.32 17.06,19.84 29.62,22.32 11.38,1.98 23.12,-3.02 30.8,-11.4 9.82,-9.82 13.82,-23.66 16.06,-37 11.76,2.26 22.78,7.72 34.78,8.84 9.06,0.34 16.08,-7.42 19.1,-15.28 5.6,-15.44 2.08,-34.9 -11.1,-45.44 -8.98,-5.74 -19.84,-7.16 -29.64,-11 1.96,-4.16 6.04,-6.74 8.9,-10.22 10.28,-11.66 17.52,-27.08 16.18,-42.94 -0.52,-17.52 -13.72,-32.46 -29.34,-39.06 -9.76,-4.66 -20.68,-5.38 -31.24,-6.74 z"
     id="path28"
     inkscape:connector-curvature="0"
     style="fill:#f5e5c1" />
  <path
     d="m 772.98,484.56 c 42.28,-6.4 84.7,-11.94 127.14,-17.12 -24.02,14.64 -49.18,27.36 -73.62,41.3 -14.94,8.68 -30.6,16.02 -45.34,25.06 -7,-13.68 -12.82,-27.96 -18.3,-42.32 2.44,-3.48 5.56,-6.74 10.12,-6.92 z"
     id="path30"
     inkscape:connector-curvature="0"
     style="fill:#f4722b" />
  <path
     d="m 67.4,549.84 c 41.1,-10.82 82.38,-20.92 123.56,-31.44 2.34,15.9 5.44,31.7 7.1,47.7 -25.5,-2.2 -50.82,-6.2 -76.26,-9.1 -18.12,-2.46 -36.36,-4.1 -54.4,-7.16 z"
     id="path32"
     inkscape:connector-curvature="0"
     style="fill:#f4722b" />
  <path
     style="fill:#f5e5c1"
     d="m 923.8,569.75 c -2.46,4.4 -4.91,8.81 -7.35,13.25 -18.42,1.96 -36.95,3.32 -55.45,4.3 0.36,19.38 2.08,38.72 2.5,58.1 -27.72,-0.2 -55.43,-0.28 -83.15,-0.5 5.18,33.58 10.29,67.17 15.45,100.75 0.72,5.8 2.45,11.64 1.55,17.5 -15.84,6.64 -31.55,13.59 -47.25,20.55 3.32,13.38 8.32,26.3 12.7,39.4 25.82,4.42 52.82,2.99 77.8,-5.15 3.42,-1.64 6.7,0.46 9.8,1.8 15.22,7.64 31.83,11.89 47.75,17.75 7.4,2.32 14.59,6.13 22.55,5.65 3.3,-30.28 3.9,-60.79 6.3,-91.15 8.16,-11.22 13.38,-24.22 18.3,-37.1 4.4,-7.92 12.72,-12.34 19.4,-18.1 15,-13.52 29.54,-27.58 44.7,-40.9 -0.06,-3.04 -0.12,-6.46 -3.4,-7.8 -19.72,-12.62 -40.07,-24.22 -59.75,-36.9 -2.74,-1.84 -3.31,-5.42 -4.65,-8.2 -4.38,-11.86 -10.88,-22.71 -17.8,-33.25 z m 8.05,46.8 c 1.56499,0.03 3.11,0.32 4.45,1.3 19.38,12.44 38.15,25.76 57.65,38 -14,13.4 -28.64,26.13 -42.9,39.25 -5.2,4.5 -9.71,11.52 -17.55,10.4 -10.46,-17.92 -11.44,-39.36 -11.2,-59.6 0.08,-9.94 1.13,-19.92 4.85,-29.2 1.52,0.06 3.13501,-0.18 4.7,-0.15 z m -77.05,40.5 c 11.538,-0.45443 23.2425,4.56 30.1,14.05 7.68,8.72 8.92,20.72 10.9,31.7 1.64,10.5 4.08,20.86 5.5,31.4 -21.76,3.88 -42.97,14.98 -65.55,10.5 -10.98,-3.28 -19.71,-12.44 -23.55,-23.1 -9.48,-25.74 8.14,-57.21 34.7,-63.35 2.58,-0.70125 5.23738,-1.09514 7.9,-1.2 z m 54.95,96.1 c 3.93832,-0.20726 6.4375,5.16 5.65,8.8 -2,22.74 -4.28,45.48 -6.5,68.2 -23.2,-7.3 -45.78,-16.49 -68.9,-24.05 -1.02,-2.14 -2.05,-4.26 -3.05,-6.4 9.14,-13.76 22.77,-23.58 36.85,-31.8 10.68,-6.22 21.98,-11.94 34.2,-14.3 0.61499,-0.28 1.18738,-0.42038 1.75,-0.45 z"
     id="path34"
     inkscape:connector-curvature="0" />
  <path
     d="m 286.34,652.22 c 3.5,-3.28 7.52,-5.9 11.72,-8.18 14.82,24.26 30.4,48.1 44.38,72.84 C 258.76,753.86 175.18,791.1 91.48,828 155.98,768.92 221.26,710.66 286.34,652.22 z"
     id="path38"
     inkscape:connector-curvature="0"
     style="fill:#f4722b" />
  <path
     d="m 650.28,790.1 c 16.22,-8.94 32.54,-17.74 48.96,-26.32 8.98,44.72 18.24,89.42 26.36,134.3 -23.92,-33.88 -50.34,-65.94 -74.3,-99.78 -1.48,-2.22 -4.58,-6.4 -1.02,-8.2 z"
     id="path44"
     inkscape:connector-curvature="0"
     style="fill:#f4722b" />
  <path
     d="m 496.04,811.34 c 27.48,-4.96 54.9,-10.26 82.46,-14.82 -1.48,36.46 -1.48,72.98 -2.22,109.46 -1.2,23.44 -0.96,46.94 -1.74,70.4 -26.7,-54.74 -52.46,-109.98 -78.5,-165.04 z"
     id="path46"
     inkscape:connector-curvature="0"
     style="fill:#f4722b" />
</svg>
