<?xml version="1.0" encoding="UTF-8" ?>
<!DOCTYPE svg PUBLIC "-//W3C//DTD SVG 1.1//EN" "http://www.w3.org/Graphics/SVG/1.1/DTD/svg11.dtd">
<svg width="512pt" height="512pt" viewBox="0 0 512 512" version="1.1" xmlns="http://www.w3.org/2000/svg">
<path fill="#3e3e3e" opacity="1.00" d=" M 0.00 0.00 L 512.00 0.00 L 512.00 340.93 C 500.31 330.90 484.08 326.51 468.93 329.27 C 451.85 332.07 436.72 344.14 429.95 360.04 C 427.19 366.17 426.28 372.91 424.13 379.24 C 410.77 381.85 398.21 389.26 390.37 400.51 C 381.20 413.64 378.18 430.64 381.52 446.22 C 375.82 449.91 370.68 454.77 368.00 461.13 C 365.05 467.56 364.68 474.97 366.38 481.79 C 357.10 477.00 345.34 476.89 336.26 482.20 C 325.80 487.99 319.40 500.08 320.45 512.00 L 0.00 512.00 L 0.00 248.47 C 1.71 261.29 2.80 274.19 4.20 287.05 C 4.33 290.94 4.91 294.89 7.02 298.24 C 14.45 287.97 21.08 277.14 28.09 266.57 C 28.51 280.47 28.92 294.37 29.26 308.27 C 48.44 296.17 67.40 283.72 86.73 271.87 C 81.07 287.10 75.54 302.38 69.97 317.65 C 80.43 317.82 90.83 316.31 101.29 316.78 C 87.76 323.48 74.39 330.52 60.87 337.24 C 61.51 338.53 62.14 339.82 62.88 341.06 C 70.80 353.49 78.79 365.86 86.69 378.30 C 88.29 381.06 91.17 382.57 93.84 384.08 C 108.63 392.65 123.35 401.36 138.18 409.85 C 128.50 395.47 118.70 381.14 108.72 366.96 C 114.52 362.48 119.71 356.89 122.21 349.88 C 127.43 336.81 124.03 321.06 114.24 311.03 C 120.79 299.70 121.78 285.35 116.72 273.28 C 110.15 257.01 92.42 246.31 74.99 247.94 C 68.40 248.72 61.82 250.55 56.25 254.27 C 54.91 254.85 53.31 256.61 51.90 255.24 C 46.87 251.13 40.63 248.26 34.03 248.45 C 28.12 248.27 22.58 250.75 17.75 253.94 C 12.01 242.79 5.83 231.86 0.00 220.76 L 0.00 0.00 Z" />
<path fill="#f5e5c1" opacity="1.00" d=" M 391.01 11.68 C 401.46 8.85 412.36 8.61 423.11 8.24 C 427.86 8.19 432.37 9.81 436.79 11.36 C 442.00 13.31 447.50 14.73 452.22 17.78 C 461.86 24.27 472.13 30.62 478.76 40.43 C 482.98 51.87 482.35 65.02 477.25 76.10 C 475.24 80.34 473.62 84.90 470.37 88.39 C 465.69 93.41 460.17 97.53 454.99 101.99 C 449.31 106.75 446.64 114.98 448.93 122.10 C 450.02 125.36 450.56 128.76 450.90 132.18 C 445.23 134.37 439.64 136.95 433.60 137.94 C 432.70 134.54 431.85 131.13 431.19 127.67 C 429.76 126.87 428.30 126.10 426.86 125.34 C 424.17 129.88 425.85 135.47 424.67 140.43 C 418.44 141.85 412.12 142.76 405.77 143.34 C 405.26 143.03 404.23 142.41 403.72 142.11 C 402.14 138.72 402.80 134.95 402.42 131.36 C 402.34 128.58 397.67 128.16 396.65 130.51 C 394.82 134.86 393.74 139.50 391.67 143.76 C 386.49 143.70 381.34 142.85 376.35 141.51 C 374.99 140.93 373.24 140.64 372.43 139.29 C 372.75 135.07 374.74 131.18 375.03 126.94 C 375.63 120.68 377.61 114.30 376.08 108.05 C 374.78 105.01 370.98 105.65 368.49 104.37 C 364.64 102.62 360.64 101.13 357.06 98.84 C 353.24 96.37 351.05 92.26 348.04 88.98 C 345.30 85.71 342.02 82.48 341.29 78.08 C 339.78 71.38 336.87 64.94 336.67 57.99 C 336.46 53.55 338.65 49.50 340.65 45.69 C 342.96 41.79 345.15 37.63 348.78 34.77 C 352.62 31.63 356.15 28.13 360.14 25.20 C 369.56 18.94 380.16 14.70 391.01 11.68 Z" />
<path fill="#f4722b" opacity="1.00" d=" M 249.39 15.75 C 251.70 14.24 254.67 14.20 256.67 16.24 C 279.79 35.17 302.92 54.09 326.00 73.07 C 328.46 74.83 329.22 78.15 327.85 80.85 C 316.84 107.41 305.72 133.92 294.72 160.48 C 293.91 162.32 293.04 164.49 290.91 165.12 C 288.03 166.33 285.27 163.62 284.80 160.90 C 280.05 144.98 276.57 128.72 272.57 112.60 C 264.89 80.30 256.88 48.08 249.39 15.75 Z" />
<path fill="#3e3e3e" opacity="1.00" d=" M 434.42 44.62 C 439.48 43.24 444.80 43.40 449.99 43.60 C 456.71 44.45 463.57 48.80 465.25 55.71 C 468.60 66.39 459.96 78.40 449.03 79.47 C 444.45 79.88 439.63 78.87 435.86 76.19 C 432.37 73.80 431.32 69.41 428.46 66.46 C 424.97 62.67 423.31 57.25 424.36 52.19 C 426.21 48.21 430.53 46.13 434.42 44.62 Z" />
<path fill="#3e3e3e" opacity="1.00" d=" M 374.58 47.85 C 381.08 46.99 389.05 45.69 394.34 50.56 C 399.61 55.31 397.95 63.31 395.46 69.07 C 392.31 75.09 389.98 82.11 384.17 86.16 C 381.75 87.85 379.30 90.49 376.05 89.47 C 368.69 87.93 363.01 82.09 358.94 76.07 C 355.25 70.72 355.51 63.40 358.87 57.97 C 362.70 52.87 368.51 49.55 374.58 47.85 Z" />
<path fill="#f4722b" opacity="1.00" d=" M 244.34 67.20 C 246.01 66.50 247.83 66.28 249.62 66.01 C 250.96 68.30 252.21 70.66 252.84 73.25 C 256.61 87.53 260.63 101.75 264.35 116.04 C 265.39 119.13 263.33 122.46 260.17 123.05 C 248.45 126.01 236.66 128.70 224.94 131.69 C 218.48 133.42 211.92 135.36 206.39 139.26 C 196.24 144.25 186.78 150.82 178.93 158.99 C 175.91 161.94 172.82 164.82 169.69 167.66 C 164.85 172.07 161.25 177.71 158.67 183.69 C 155.60 191.26 151.47 198.37 148.75 206.08 C 144.23 223.23 139.27 240.28 134.61 257.41 C 134.12 259.95 133.30 263.44 135.82 265.21 C 137.28 266.34 138.92 268.11 140.97 267.36 C 144.11 265.91 147.14 264.23 150.45 263.19 C 168.64 256.81 187.74 253.17 206.92 251.54 C 213.33 251.72 219.65 250.29 226.06 250.65 C 271.90 250.78 317.41 262.76 358.15 283.64 C 365.66 287.97 373.53 291.62 380.91 296.18 C 397.51 306.33 413.57 317.44 428.54 329.90 C 423.13 342.03 417.98 354.27 412.62 366.42 C 411.18 369.30 410.64 373.15 407.39 374.64 C 396.41 380.90 385.47 387.22 374.51 393.52 C 371.35 410.11 368.82 426.82 365.54 443.38 C 362.30 444.15 359.06 444.91 355.80 445.57 C 340.95 414.39 323.60 384.17 301.46 357.55 C 285.97 339.34 268.41 322.58 248.02 309.94 C 218.23 291.10 182.05 282.18 146.96 286.45 C 142.39 286.88 137.79 287.34 133.34 288.51 C 133.62 281.70 134.39 274.70 132.50 268.05 C 130.13 258.67 125.00 249.81 117.41 243.74 C 113.16 241.87 108.51 240.30 105.43 236.59 C 106.36 227.43 106.50 218.05 108.86 209.06 C 110.23 197.47 115.04 186.72 117.67 175.42 C 119.65 169.09 123.73 163.74 127.10 158.12 C 130.55 151.99 134.94 146.47 138.54 140.42 C 144.86 131.91 152.42 124.43 160.07 117.12 C 171.89 107.87 183.92 98.85 196.25 90.29 C 212.22 82.47 228.20 74.67 244.34 67.20 Z" />
<path fill="#3e3e3e" opacity="1.00" d=" M 419.14 89.35 C 423.11 87.98 426.33 91.57 429.17 93.78 C 431.52 96.29 435.09 99.13 434.27 102.99 C 432.83 106.92 429.77 110.02 426.84 112.91 C 424.77 115.14 420.73 113.76 420.14 110.87 C 418.75 105.84 418.06 100.63 417.21 95.49 C 416.95 93.38 416.64 90.25 419.14 89.35 Z" />
<path fill="#3e3e3e" opacity="1.00" d=" M 400.98 93.02 C 402.96 90.69 406.05 91.47 408.28 92.92 C 409.26 97.91 408.78 103.02 409.15 108.06 C 409.38 109.93 408.74 111.72 408.24 113.48 C 406.39 113.41 404.36 113.42 403.11 111.82 C 400.92 109.35 397.70 107.77 395.99 104.94 C 396.92 100.77 398.27 96.39 400.98 93.02 Z" />
<path fill="#f5e5c1" opacity="1.00" d=" M 327.43 135.44 C 330.42 131.50 336.57 130.52 340.57 133.48 C 343.54 136.26 345.19 140.13 348.16 142.93 C 357.04 151.68 364.76 161.88 375.49 168.52 C 384.24 174.45 393.70 179.22 402.77 184.63 C 398.81 186.74 394.95 189.03 391.13 191.40 C 384.07 187.60 377.14 183.58 369.95 180.03 C 361.34 175.77 352.63 171.64 344.56 166.39 C 342.53 165.24 340.47 163.50 337.98 163.93 C 333.08 164.28 327.33 165.11 323.24 161.76 C 319.60 159.22 318.66 153.75 320.79 149.96 C 321.86 147.16 324.67 145.82 326.99 144.22 C 326.30 141.36 325.86 138.08 327.43 135.44 Z" />
<path fill="#f5e5c1" opacity="1.00" d=" M 475.51 141.43 C 479.02 138.56 484.39 137.27 488.49 139.62 C 491.59 142.40 492.73 146.65 493.30 150.64 C 500.34 153.12 505.66 161.75 502.04 168.88 C 498.55 174.40 491.21 174.29 485.53 173.18 C 481.39 172.66 477.09 169.99 473.00 172.03 C 452.64 179.87 432.41 188.33 413.67 199.58 C 405.72 203.32 398.55 208.44 390.97 212.84 C 379.24 219.73 368.50 228.21 356.37 234.43 C 354.17 235.73 351.37 236.65 350.28 239.18 C 348.19 243.18 346.39 247.79 342.44 250.34 C 338.27 253.01 332.26 251.64 329.59 247.50 C 327.62 245.10 327.73 241.87 327.61 238.96 C 324.55 238.32 321.54 236.65 319.96 233.87 C 317.94 228.51 321.90 221.38 327.90 221.30 C 330.78 220.96 333.69 220.81 336.52 220.15 C 346.98 217.29 357.81 215.73 367.87 211.55 C 383.49 204.54 397.48 194.52 412.59 186.54 C 425.60 179.05 438.88 171.98 452.40 165.43 C 456.21 163.70 459.62 161.23 463.33 159.31 C 468.97 154.52 469.83 146.21 475.51 141.43 Z" />
<path fill="#f5e5c1" opacity="1.00" d=" M 56.19 182.06 C 56.49 180.35 56.74 178.63 57.04 176.92 C 57.91 181.39 56.64 185.84 56.53 190.31 C 56.39 193.88 56.45 197.46 55.98 201.02 C 55.20 206.95 55.66 212.96 54.90 218.90 C 54.21 226.22 54.48 233.60 53.43 240.90 C 59.52 230.09 65.19 219.04 70.95 208.05 C 70.05 219.84 69.02 231.64 67.88 243.41 C 62.79 244.80 56.88 243.40 52.38 246.49 C 48.97 245.04 45.45 243.88 41.85 243.04 C 41.76 242.79 41.59 242.28 41.50 242.02 C 43.20 241.14 43.34 239.16 43.76 237.51 C 47.57 219.62 51.70 201.79 55.50 183.90 C 55.68 183.44 56.02 182.52 56.19 182.06 Z" />
<path fill="#f5e5c1" opacity="1.00" d=" M 415.95 205.46 C 419.55 203.11 423.46 201.28 427.04 198.89 C 439.86 206.13 451.53 215.28 464.50 222.22 C 470.57 223.78 476.86 221.87 482.99 222.86 C 488.10 223.79 492.71 227.76 493.58 233.00 C 493.28 237.48 489.75 240.86 486.42 243.48 C 487.82 250.87 482.96 259.74 474.95 260.30 C 468.75 259.96 465.01 254.06 463.21 248.72 C 461.38 244.85 461.81 239.64 458.02 236.94 C 445.18 226.70 432.34 216.38 418.38 207.71 C 417.50 207.04 416.26 206.62 415.95 205.46 Z" />
<path fill="#f5e5c1" opacity="1.00" d=" M 0.00 220.76 C 5.83 231.86 12.01 242.79 17.75 253.94 C 22.58 250.75 28.12 248.27 34.03 248.45 C 40.63 248.26 46.87 251.13 51.90 255.24 C 53.31 256.61 54.91 254.85 56.25 254.27 C 61.82 250.55 68.40 248.72 74.99 247.94 C 92.42 246.31 110.15 257.01 116.72 273.28 C 121.78 285.35 120.79 299.70 114.24 311.03 C 124.03 321.06 127.43 336.81 122.21 349.88 C 119.71 356.89 114.52 362.48 108.72 366.96 C 118.70 381.14 128.50 395.47 138.18 409.85 C 123.35 401.36 108.63 392.65 93.84 384.08 C 91.17 382.57 88.29 381.06 86.69 378.30 C 78.79 365.86 70.80 353.49 62.88 341.06 C 62.14 339.82 61.51 338.53 60.87 337.24 C 74.39 330.52 87.76 323.48 101.29 316.78 C 90.83 316.31 80.43 317.82 69.97 317.65 C 75.54 302.38 81.07 287.10 86.73 271.87 C 67.40 283.72 48.44 296.17 29.26 308.27 C 28.92 294.37 28.51 280.47 28.09 266.57 C 21.08 277.14 14.45 287.97 7.02 298.24 C 4.91 294.89 4.33 290.94 4.20 287.05 C 2.80 274.19 1.71 261.29 0.00 248.47 L 0.00 220.76 Z" />
<path fill="#f5e5c1" opacity="1.00" d=" M 412.18 264.02 C 427.76 283.15 443.05 302.52 458.63 321.65 C 453.72 325.12 448.98 328.83 444.03 332.22 C 433.53 309.43 422.49 286.89 412.18 264.02 Z" />
<path fill="#f5e5c1" opacity="1.00" d=" M 494.03 268.83 C 499.43 286.72 503.87 304.91 508.94 322.90 C 498.34 321.47 487.70 320.22 477.13 318.57 C 483.01 302.08 488.51 285.45 494.03 268.83 Z" />
<path fill="#f5e5c1" opacity="1.00" d=" M 127.96 319.89 C 142.70 319.69 157.47 319.57 172.21 319.96 C 159.05 325.03 145.83 330.00 132.85 335.52 C 130.98 330.74 129.28 325.89 127.61 321.04 L 127.96 319.89 Z" />
<path fill="#f5e5c1" opacity="1.00" d=" M 429.95 360.04 C 436.72 344.14 451.85 332.07 468.93 329.27 C 484.08 326.51 500.31 330.90 512.00 340.93 L 512.00 395.71 C 501.65 383.50 491.13 371.43 480.79 359.22 C 479.18 357.28 477.41 355.50 475.55 353.82 C 477.41 379.41 479.45 404.98 481.55 430.55 C 463.68 427.43 446.11 422.74 428.36 418.99 C 437.24 436.00 445.88 453.13 454.72 470.17 C 455.51 471.76 456.20 473.40 456.88 475.05 C 434.82 477.86 412.87 481.58 390.89 484.97 C 400.51 493.91 409.92 503.07 419.56 512.00 L 320.45 512.00 C 319.40 500.08 325.80 487.99 336.26 482.20 C 345.34 476.89 357.10 477.00 366.38 481.79 C 364.68 474.97 365.05 467.56 368.00 461.13 C 370.68 454.77 375.82 449.91 381.52 446.22 C 378.18 430.64 381.20 413.64 390.37 400.51 C 398.21 389.26 410.77 381.85 424.13 379.24 C 426.28 372.91 427.19 366.17 429.95 360.04 Z" />
<path fill="#3e3e3e" opacity="1.00" d=" M 475.55 353.82 C 477.41 355.50 479.18 357.28 480.79 359.22 C 491.13 371.43 501.65 383.50 512.00 395.71 L 512.00 512.00 L 419.56 512.00 C 409.92 503.07 400.51 493.91 390.89 484.97 C 412.87 481.58 434.82 477.86 456.88 475.05 C 456.20 473.40 455.51 471.76 454.72 470.17 C 445.88 453.13 437.24 436.00 428.36 418.99 C 446.11 422.74 463.68 427.43 481.55 430.55 C 479.45 404.98 477.41 379.41 475.55 353.82 Z" />
<path fill="#f5e5c1" opacity="1.00" d=" M 251.47 420.66 C 275.80 435.99 299.80 451.83 324.02 467.33 C 323.06 457.77 322.15 448.17 321.86 438.57 C 331.54 448.63 341.14 458.77 351.02 468.64 C 339.71 466.66 327.46 470.05 319.34 478.30 C 310.66 486.56 307.19 499.65 310.47 511.16 C 286.50 503.87 262.63 496.22 238.56 489.25 C 262.14 488.65 285.73 489.32 309.31 488.91 C 289.92 466.25 270.57 443.56 251.47 420.66 Z" />
</svg>
