<?xml version="1.0" encoding="UTF-8" standalone="no"?>
<svg
   xmlns:dc="http://purl.org/dc/elements/1.1/"
   xmlns:cc="http://creativecommons.org/ns#"
   xmlns:rdf="http://www.w3.org/1999/02/22-rdf-syntax-ns#"
   xmlns:svg="http://www.w3.org/2000/svg"
   xmlns="http://www.w3.org/2000/svg"
   xmlns:sodipodi="http://sodipodi.sourceforge.net/DTD/sodipodi-0.dtd"
   xmlns:inkscape="http://www.inkscape.org/namespaces/inkscape"
   width="1280"
   height="1280"
   viewBox="0 0 1024 1024"
   version="1.1"
   id="svg2"
   inkscape:version="0.48.1 "
   sodipodi:docname="bounce_and_kill.svg">
  <metadata
     id="metadata46">
    <rdf:RDF>
      <cc:Work
         rdf:about="">
        <dc:format>image/svg+xml</dc:format>
        <dc:type
           rdf:resource="http://purl.org/dc/dcmitype/StillImage" />
      </cc:Work>
    </rdf:RDF>
  </metadata>
  <defs
     id="defs44" />
  <sodipodi:namedview
     pagecolor="#ffffff"
     bordercolor="#666666"
     borderopacity="1"
     objecttolerance="10"
     gridtolerance="10"
     guidetolerance="10"
     inkscape:pageopacity="0"
     inkscape:pageshadow="2"
     inkscape:window-width="1920"
     inkscape:window-height="1018"
     id="namedview42"
     showgrid="false"
     inkscape:snap-page="true"
     fit-margin-top="0"
     fit-margin-left="0"
     fit-margin-right="0"
     fit-margin-bottom="0"
     inkscape:zoom="0.6609375"
     inkscape:cx="640"
     inkscape:cy="640"
     inkscape:window-x="-8"
     inkscape:window-y="-8"
     inkscape:window-maximized="1"
     inkscape:current-layer="svg2" />
  <rect
     style="fill:#3e3e3e;fill-opacity:1;fill-rule:nonzero;stroke:none"
     id="rect3027"
     width="1024"
     height="1024"
     x="0"
     y="0" />
  <path
     d="m 846.2,16.5 c -21.5,0.74 -43.3,1.19 -64.2,6.85 -21.7,6.04 -42.86,14.53 -61.7,27.05 -7.98,5.86 -15.07,12.87 -22.75,19.15 -7.26,5.72 -11.63,14.05 -16.25,21.85 -4,7.62 -8.37,15.72 -7.95,24.6 0.4,13.9 6.23,26.75 9.25,40.15 1.46,8.8 8.02,15.26 13.5,21.8 6.02,6.56 10.36,14.81 18,19.75 7.16,4.58 15.2,7.55 22.9,11.05 4.98,2.56 12.55,1.27 15.15,7.35 3.06,12.5 -0.9,25.28 -2.1,37.8 -0.58,8.48 -4.56,16.26 -5.2,24.7 1.62,2.7 5.13,3.24 7.85,4.4 9.98,2.68 20.29,4.38 30.65,4.5 4.14,-8.52 6.29,-17.8 9.95,-26.5 2.04,-4.7 11.39,-3.86 11.55,1.7 0.76,7.18 -0.56,14.72 2.6,21.5 1.02,0.6 3.08,1.88 4.1,2.5 12.7,-1.16 25.34,-3.01 37.8,-5.85 2.36,-9.92 -1.03,-21.07 4.35,-30.15 2.88,1.52 5.84,3.05 8.7,4.65 1.32,6.92 3,13.75 4.8,20.55 12.08,-1.98 23.26,-7.17 34.6,-11.55 -0.68,-6.84 -1.77,-13.63 -3.95,-20.15 -4.58,-14.24 0.79,-30.68 12.15,-40.2 10.36,-8.92 21.39,-17.16 30.75,-27.2 6.5,-6.98 9.73,-16.12 13.75,-24.6 10.2,-22.16 11.44,-48.47 3,-71.35 C 944.24,61.23 923.73,48.53 904.45,35.55 895.01,29.45 884.02,26.6 873.6,22.7 864.76,19.6 855.7,16.4 846.2,16.5 z m 42.05,70.45 c 3.9245,-0.0307 7.8575,0.1 11.75,0.25 13.44,1.7 27.14,10.38 30.5,24.2 6.7,21.36 -10.59,45.41 -32.45,47.55 -9.16,0.82 -18.81,-1.19 -26.35,-6.55 -6.98,-4.78 -9.08,-13.6 -14.8,-19.5 -6.98,-7.58 -10.3,-18.38 -8.2,-28.5 3.7,-7.96 12.37,-12.13 20.15,-15.15 6.32501,-1.725 12.85918,-2.24883 19.4,-2.3 z m -121.05,7.1 c 7.8659,0.0227 15.54875,1.57125 21.5,7.05 10.54,9.5 7.18,25.53 2.2,37.05 -6.3,12.04 -10.93,26.05 -22.55,34.15 -4.84,3.38 -9.75,8.69 -16.25,6.65 -14.72,-3.08 -26.06,-14.76 -34.2,-26.8 -7.38,-10.7 -6.87,-25.34 -0.15,-36.2 7.66,-10.2 19.26,-16.85 31.4,-20.25 5.6875,-0.7525 11.93208,-1.66767 18.05,-1.65 z m 74,84.05 c 6.62949,-0.40086 12.18,5.5825 17.15,9.45 4.7,5.02 11.84,10.73 10.2,18.45 -2.88,7.86 -8.99,14.02 -14.85,19.8 -4.14,4.46 -12.22,1.73 -13.4,-4.05 -2.78,-10.06 -4.2,-20.47 -5.9,-30.75 -0.52,-4.22 -1.1,-10.5 3.9,-12.3 0.9925,-0.3425 1.95293,-0.54274 2.9,-0.6 z m -33.1,5 c 2.89595,-0.0853 5.94125,1.11875 8.45,2.75 1.96,9.98 1.01,20.17 1.75,30.25 0.46,3.74 -0.8,7.33 -1.8,10.85 -3.7,-0.14 -7.8,-0.1 -10.3,-3.3 -4.38,-4.94 -10.78,-8.09 -14.2,-13.75 1.86,-8.34 4.53,-17.11 9.95,-23.85 1.7325,-2.03875 3.8976,-2.8837 6.15,-2.95 z"
     id="path6"
     style="fill:#f5e5c1"
     inkscape:connector-curvature="0" />
  <path
     d="m 498.78,31.5 c 4.62,-3.02 10.56,-3.1 14.56,0.98 46.24,37.86 92.5,75.7 138.66,113.66 4.92,3.52 6.44,10.16 3.7,15.56 -22.02,53.12 -44.26,106.14 -66.26,159.26 -1.62,3.68 -3.36,8.02 -7.62,9.28 -5.76,2.42 -11.28,-3 -12.22,-8.44 -9.5,-31.84 -16.46,-64.36 -24.46,-96.6 C 529.78,160.6 513.76,96.16 498.78,31.5 z"
     id="path8"
     inkscape:connector-curvature="0"
     style="fill:#f4722b" />
  <path
     d="m 488.68,134.4 c 3.34,-1.4 6.98,-1.84 10.56,-2.38 2.68,4.58 5.18,9.3 6.44,14.48 7.54,28.56 15.58,57 23.02,85.58 2.08,6.18 -2.04,12.84 -8.36,14.02 -23.44,5.92 -47.02,11.3 -70.46,17.28 -12.92,3.46 -26.04,7.34 -37.1,15.14 -20.3,9.98 -39.22,23.12 -54.92,39.46 -6.04,5.9 -12.22,11.66 -18.48,17.34 -9.68,8.82 -16.88,20.1 -22.04,32.06 -6.14,15.14 -14.4,29.36 -19.84,44.78 -9.04,34.3 -18.96,68.4 -28.28,102.66 -0.98,5.08 -2.62,12.06 2.42,15.6 2.92,2.26 6.2,5.8 10.3,4.3 6.28,-2.9 12.34,-6.26 18.96,-8.34 36.38,-12.76 74.58,-20.04 112.94,-23.3 12.82,0.36 25.46,-2.5 38.28,-1.78 91.68,0.26 182.7,24.22 264.18,65.98 15.02,8.66 30.76,15.96 45.52,25.08 33.2,20.3 65.32,42.52 95.26,67.44 -10.82,24.26 -21.12,48.74 -31.84,73.04 -2.88,5.76 -3.96,13.46 -10.46,16.44 -21.96,12.52 -43.84,25.16 -65.76,37.76 -6.32,33.18 -11.38,66.6 -17.94,99.72 -6.48,1.54 -12.96,3.06 -19.48,4.38 C 681.9,828.78 647.2,768.34 602.92,715.1 571.94,678.68 536.82,645.16 496.04,619.88 436.46,582.2 364.1,564.36 293.92,572.9 c -9.14,0.86 -18.34,1.78 -27.24,4.12 0.56,-13.62 2.1,-27.62 -1.68,-40.92 -4.74,-18.76 -15,-36.48 -30.18,-48.62 -8.5,-3.74 -17.8,-6.88 -23.96,-14.3 1.86,-18.32 2.14,-37.08 6.86,-55.06 2.74,-23.18 12.36,-44.68 17.62,-67.28 3.96,-12.66 12.12,-23.36 18.86,-34.6 6.9,-12.26 15.68,-23.3 22.88,-35.4 12.64,-17.02 27.76,-31.98 43.06,-46.6 23.64,-18.5 47.7,-36.54 72.36,-53.66 31.94,-15.64 63.9,-31.24 96.18,-46.18 z"
     id="path14"
     inkscape:connector-curvature="0"
     style="fill:#f4722b" />
  <path
     d="m 654.86,270.88 c 5.98,-7.88 18.28,-9.84 26.28,-3.92 5.94,5.56 9.24,13.3 15.18,18.9 17.76,17.5 33.2,37.9 54.66,51.18 17.5,11.86 36.42,21.4 54.56,32.22 -7.92,4.22 -15.64,8.8 -23.28,13.54 -14.12,-7.6 -27.98,-15.64 -42.36,-22.74 -17.22,-8.52 -34.64,-16.78 -50.78,-27.28 -4.06,-2.3 -8.18,-5.78 -13.16,-4.92 -9.8,0.7 -21.3,2.36 -29.48,-4.34 -7.28,-5.08 -9.16,-16.02 -4.9,-23.6 2.14,-5.6 7.76,-8.28 12.4,-11.48 -1.38,-5.72 -2.26,-12.28 0.88,-17.56 z"
     id="path20"
     inkscape:connector-curvature="0"
     style="fill:#f5e5c1" />
  <path
     d="m 951.02,282.86 c 7.02,-5.74 17.76,-8.32 25.96,-3.62 6.2,5.56 8.48,14.06 9.62,22.04 14.08,4.96 24.72,22.22 17.48,36.48 -6.98,11.04 -21.66,10.82 -33.02,8.6 -8.28,-1.04 -16.88,-6.38 -25.06,-2.3 -40.72,15.68 -81.18,32.6 -118.66,55.1 -15.9,7.48 -30.24,17.72 -45.4,26.52 -23.46,13.78 -44.94,30.74 -69.2,43.18 -4.4,2.6 -10,4.44 -12.18,9.5 -4.18,8 -7.78,17.22 -15.68,22.32 -8.34,5.34 -20.36,2.6 -25.7,-5.68 -3.94,-4.8 -3.72,-11.26 -3.96,-17.08 -6.12,-1.28 -12.14,-4.62 -15.3,-10.18 -4.04,-10.72 3.88,-24.98 15.88,-25.14 5.76,-0.68 11.58,-0.98 17.24,-2.3 20.92,-5.72 42.58,-8.84 62.7,-17.2 31.24,-14.02 59.22,-34.06 89.44,-50.02 26.02,-14.98 52.58,-29.12 79.62,-42.22 7.62,-3.46 14.44,-8.4 21.86,-12.24 11.28,-9.58 13,-26.2 24.36,-35.76 z"
     id="path22"
     inkscape:connector-curvature="0"
     style="fill:#f5e5c1" />
  <path
     d="m 112.38,364.12 c 0.6,-3.42 1.1,-6.86 1.7,-10.28 1.74,8.94 -0.8,17.84 -1.02,26.78 -0.28,7.14 -0.16,14.3 -1.1,21.42 -1.56,11.86 -0.64,23.88 -2.16,35.76 -1.38,14.64 -0.84,29.4 -2.94,44 12.18,-21.62 23.52,-43.72 35.04,-65.7 -1.8,23.58 -3.86,47.18 -6.14,70.72 -10.18,2.78 -22,-0.02 -31,6.16 -6.82,-2.9 -13.86,-5.22 -21.06,-6.9 -0.18,-0.5 -0.52,-1.52 -0.7,-2.04 3.4,-1.76 3.68,-5.72 4.52,-9.02 7.62,-35.78 15.88,-71.44 23.48,-107.22 0.36,-0.92 1.04,-2.76 1.38,-3.68 z"
     id="path24"
     inkscape:connector-curvature="0"
     style="fill:#f5e5c1" />
  <path
     d="m 831.9,410.92 c 7.2,-4.7 15.02,-8.36 22.18,-13.14 25.64,14.48 48.98,32.78 74.92,46.66 12.14,3.12 24.72,-0.7 36.98,1.28 10.22,1.86 19.44,9.8 21.18,20.28 -0.6,8.96 -7.66,15.72 -14.32,20.96 2.8,14.78 -6.92,32.52 -22.94,33.64 -12.4,-0.68 -19.88,-12.48 -23.48,-23.16 -3.66,-7.74 -2.8,-18.16 -10.38,-23.56 -25.68,-20.48 -51.36,-41.12 -79.28,-58.46 -1.76,-1.34 -4.24,-2.18 -4.86,-4.5 z"
     id="path26"
     inkscape:connector-curvature="0"
     style="fill:#f5e5c1" />
  <path
     d="m 0,441.52 c 11.66,22.2 24.02,44.06 35.5,66.36 9.66,-6.38 20.74,-11.34 32.56,-10.98 13.2,-0.38 25.68,5.36 35.74,13.58 2.82,2.74 6.02,-0.78 8.7,-1.94 11.14,-7.44 24.3,-11.1 37.48,-12.66 34.86,-3.26 70.32,18.14 83.46,50.68 10.12,24.14 8.14,52.84 -4.96,75.5 19.58,20.06 26.38,51.56 15.94,77.7 -5,14.02 -15.38,25.2 -26.98,34.16 19.96,28.36 39.56,57.02 58.92,85.78 -29.66,-16.98 -59.1,-34.4 -88.68,-51.54 -5.34,-3.02 -11.1,-6.04 -14.3,-11.56 -15.8,-24.88 -31.78,-49.62 -47.62,-74.48 -1.48,-2.48 -2.74,-5.06 -4.02,-7.64 27.04,-13.44 53.78,-27.52 80.84,-40.92 -20.92,-0.94 -41.72,2.08 -62.64,1.74 11.14,-30.54 22.2,-61.1 33.52,-91.56 -38.66,23.7 -76.58,48.6 -114.94,72.8 -0.68,-27.8 -1.5,-55.6 -2.34,-83.4 C 42.16,554.28 28.9,575.94 14.04,596.48 9.82,589.78 8.66,581.88 8.4,574.1 5.6,548.38 3.42,522.58 0,496.94 l 0,-55.42 z"
     id="path28"
     inkscape:connector-curvature="0"
     style="fill:#f5e5c1" />
  <path
     d="m 824.36,528.04 c 31.16,38.26 61.74,77 92.9,115.26 -9.82,6.94 -19.3,14.36 -29.2,21.14 -21,-45.58 -43.08,-90.66 -63.7,-136.4 z"
     id="path30"
     inkscape:connector-curvature="0"
     style="fill:#f5e5c1" />
  <path
     d="m 988.06,537.66 c 10.8,35.78 19.68,72.16 29.82,108.14 -21.2,-2.86 -42.48,-5.36 -63.62,-8.66 11.76,-32.98 22.76,-66.24 33.8,-99.48 z"
     id="path32"
     inkscape:connector-curvature="0"
     style="fill:#f5e5c1" />
  <path
     d="m 255.92,639.78 c 29.48,-0.4 59.02,-0.64 88.5,0.14 -26.32,10.14 -52.76,20.08 -78.72,31.12 -3.74,-9.56 -7.14,-19.26 -10.48,-28.96 l 0.7,-2.3 z"
     id="path34"
     inkscape:connector-curvature="0"
     style="fill:#f5e5c1" />
  <path
     d="m 859.9,720.08 c 13.54,-31.8 43.8,-55.94 77.96,-61.54 30.3,-5.52 62.76,3.26 86.14,23.32 l 0,109.56 c -20.7,-24.42 -41.74,-48.56 -62.42,-72.98 -3.22,-3.88 -6.76,-7.44 -10.48,-10.8 3.72,51.18 7.8,102.32 12,153.46 -35.74,-6.24 -70.88,-15.62 -106.38,-23.12 17.76,34.02 35.04,68.28 52.72,102.36 1.58,3.18 2.96,6.46 4.32,9.76 -44.12,5.62 -88.02,13.06 -131.98,19.84 19.24,17.88 38.06,36.2 57.34,54.06 l -198.22,0 c -2.1,-23.84 10.7,-48.02 31.62,-59.6 18.16,-10.62 41.68,-10.4 60.24,-0.82 -3.4,-13.64 -2.66,-28.46 3.24,-41.32 5.36,-12.72 15.64,-22.44 27.04,-29.82 -6.68,-31.16 -0.64,-65.16 17.7,-91.42 15.68,-22.5 40.8,-37.32 67.52,-42.54 4.3,-12.66 6.12,-26.14 11.64,-38.4 z"
     id="path36"
     inkscape:connector-curvature="0"
     style="fill:#f5e5c1" />
  <path
     d="m 502.94,841.32 c 48.66,30.66 96.66,62.34 145.1,93.34 -1.92,-19.12 -3.74,-38.32 -4.32,-57.52 19.36,20.12 38.56,40.4 58.32,60.14 -22.62,-3.96 -47.12,2.82 -63.36,19.32 -17.36,16.52 -24.3,42.7 -17.74,65.72 -47.94,-14.58 -95.68,-29.88 -143.82,-43.82 47.16,-1.2 94.34,0.14 141.5,-0.68 -38.78,-45.32 -77.48,-90.7 -115.68,-136.5 z"
     id="path40"
     inkscape:connector-curvature="0"
     style="fill:#f5e5c1" />
</svg>
