<?xml version="1.0" encoding="UTF-8" ?>
<!DOCTYPE svg PUBLIC "-//W3C//DTD SVG 1.1//EN" "http://www.w3.org/Graphics/SVG/1.1/DTD/svg11.dtd">
<svg width="512pt" height="512pt" viewBox="0 0 512 512" version="1.1" xmlns="http://www.w3.org/2000/svg">
<path fill="#3e3e3e" opacity="1.00" d=" M 0.00 0.00 L 512.00 0.00 L 512.00 512.00 L 0.00 512.00 L 0.00 0.00 Z" />
<path fill="#f5e5c1" opacity="1.00" d=" M 213.02 22.22 C 221.68 21.29 230.34 20.24 239.01 19.43 C 241.09 19.09 242.79 20.46 244.43 21.51 C 248.95 24.55 253.26 28.19 258.64 29.59 C 263.11 30.83 267.40 32.86 272.00 33.51 C 276.92 31.24 280.99 27.38 286.05 25.42 C 290.81 24.86 295.62 25.69 300.29 26.58 C 301.96 28.03 303.77 29.30 305.76 30.27 C 322.50 38.57 339.14 47.08 355.87 55.40 C 359.93 57.37 363.37 60.32 366.94 63.04 C 374.85 69.14 382.84 75.12 390.73 81.26 C 396.87 86.45 402.80 91.90 408.95 97.09 C 410.75 98.60 412.30 100.39 413.51 102.41 C 421.02 114.60 428.88 126.58 436.28 138.84 C 441.86 149.17 446.56 159.93 451.46 170.60 C 456.21 184.13 459.84 198.07 464.62 211.59 C 467.55 214.69 472.58 214.35 476.43 215.79 C 476.93 228.86 474.98 241.93 475.87 254.97 C 478.78 263.43 482.67 271.53 485.81 279.91 C 486.57 281.47 485.99 283.17 485.59 284.74 C 478.70 308.43 471.98 332.18 465.11 355.87 C 464.45 357.61 465.04 359.44 465.36 361.19 C 458.62 374.92 450.65 388.03 443.34 401.46 C 439.82 407.45 437.22 414.22 431.87 418.90 C 419.80 430.13 408.20 441.85 396.33 453.30 C 393.60 455.89 390.89 458.59 387.57 460.44 C 373.75 468.03 359.88 475.54 346.08 483.17 C 343.53 484.57 340.89 485.95 337.96 486.34 C 319.98 488.86 302.00 491.37 284.03 493.97 C 279.97 494.72 275.91 493.61 271.87 493.31 C 255.89 491.24 239.81 489.79 223.88 487.43 C 210.04 483.09 196.39 478.15 182.60 473.65 C 177.25 472.25 173.62 467.83 169.40 464.58 C 162.96 459.03 156.07 453.97 149.94 448.09 C 147.39 442.54 147.16 436.18 145.24 430.38 C 138.83 431.07 132.51 432.65 126.05 432.82 C 123.63 432.98 122.44 430.43 120.91 429.01 C 105.36 410.87 89.74 392.80 74.06 374.79 C 72.18 372.78 73.86 370.02 75.30 368.31 C 78.01 365.04 80.13 361.12 83.69 358.67 C 86.99 356.51 92.42 358.56 94.32 354.33 C 96.34 352.06 94.88 349.18 94.15 346.71 C 92.79 345.02 93.04 342.74 92.61 340.74 C 93.33 340.69 94.05 340.66 94.77 340.63 C 94.30 341.62 93.84 342.62 93.38 343.62 C 93.97 344.38 94.57 345.14 95.18 345.90 C 97.88 345.20 100.56 344.40 103.23 343.55 C 103.62 345.36 104.16 347.15 104.31 349.00 C 102.86 353.34 99.79 356.90 97.96 361.08 C 106.17 364.85 114.33 368.73 122.52 372.55 C 127.93 374.59 128.46 381.17 130.84 385.70 C 135.62 385.70 140.36 385.12 145.10 384.62 C 146.63 384.33 148.12 384.78 149.39 385.63 C 170.21 399.11 190.77 413.00 211.79 426.16 C 223.27 430.35 235.37 432.75 247.09 436.25 C 259.58 439.30 271.93 444.37 285.01 443.64 C 292.70 443.41 300.34 442.47 308.02 442.14 C 311.84 441.51 316.01 442.27 319.52 440.35 C 329.15 435.34 338.70 430.19 348.38 425.27 C 351.39 423.80 354.34 422.01 356.19 419.12 C 359.31 414.66 363.06 410.62 365.89 405.96 L 365.79 405.17 C 354.41 400.21 342.63 396.16 331.10 391.55 C 316.77 386.09 302.54 380.37 288.14 375.08 C 288.32 372.98 288.68 370.90 289.46 368.94 C 279.08 363.53 268.86 357.79 258.54 352.27 C 257.26 351.59 255.84 351.02 254.40 351.55 C 248.37 353.00 242.12 352.32 236.01 353.07 C 231.32 353.31 226.45 354.27 221.91 352.63 C 215.34 350.48 208.74 348.43 202.15 346.37 C 197.77 345.06 194.30 341.97 190.59 339.46 C 183.02 334.29 175.60 328.90 167.93 323.86 C 172.54 322.22 177.25 320.90 181.91 319.42 C 183.63 320.93 185.46 322.32 187.46 323.43 C 195.74 328.11 203.97 332.88 212.19 337.66 C 216.52 340.35 221.73 340.66 226.57 341.82 C 231.36 342.67 236.06 344.26 240.94 344.52 C 245.38 343.85 249.59 342.19 253.93 341.08 C 259.31 339.40 265.43 338.83 269.53 334.55 C 276.00 328.45 284.97 324.08 288.20 315.28 C 290.33 310.12 292.70 305.05 294.86 299.89 C 295.85 297.71 295.57 295.26 295.62 292.94 C 295.49 282.63 295.65 272.31 295.35 261.99 C 295.32 260.24 294.69 258.57 294.01 256.98 C 288.31 244.94 282.67 232.88 277.04 220.81 C 276.24 218.82 274.64 217.34 272.84 216.25 C 265.94 211.84 259.08 207.37 252.25 202.85 C 246.67 198.72 239.54 198.10 233.13 195.93 C 227.20 194.59 221.36 191.33 215.13 192.75 C 209.80 193.81 204.45 194.73 199.10 195.67 C 195.20 196.34 191.86 198.57 188.47 200.46 C 183.59 203.27 178.63 205.94 173.77 208.77 C 172.28 209.55 171.22 210.88 170.44 212.34 C 166.51 219.44 162.75 226.63 158.72 233.67 C 157.71 235.62 156.27 237.62 156.69 239.94 C 157.64 248.35 158.87 256.73 159.79 265.14 C 160.54 266.35 161.29 267.56 162.01 268.79 C 164.23 268.76 166.45 268.74 168.68 268.70 C 171.47 261.59 174.27 254.44 176.16 247.03 C 176.86 244.16 179.13 242.11 181.06 240.04 C 185.76 235.39 190.24 230.52 195.04 225.97 C 197.70 223.41 201.52 223.05 204.95 222.29 C 209.66 221.52 214.24 219.86 219.02 219.63 C 224.15 220.37 229.18 221.74 234.25 222.79 C 237.72 223.41 240.02 226.27 242.55 228.46 C 247.17 232.53 251.78 236.63 256.38 240.74 C 257.96 250.12 264.01 257.96 266.51 267.03 C 266.29 273.88 266.10 280.78 265.40 287.59 C 263.34 292.68 259.20 296.56 256.13 301.04 C 252.56 305.38 249.79 311.14 244.08 312.99 C 238.04 314.95 231.89 316.58 225.84 318.51 C 219.73 320.68 213.26 318.60 207.00 318.62 C 201.69 318.66 196.50 317.30 191.20 317.06 C 198.48 313.88 206.33 312.39 213.73 309.54 C 219.70 306.64 226.59 310.01 232.62 307.37 C 237.05 305.49 241.91 304.47 246.06 302.02 C 249.11 298.04 251.14 293.36 254.38 289.50 C 257.08 286.68 256.08 282.55 256.37 279.03 C 256.28 274.41 257.34 269.71 256.45 265.14 C 253.61 259.53 248.96 254.86 247.22 248.68 C 242.70 245.30 238.59 241.43 234.46 237.60 C 230.07 233.30 223.53 233.19 218.04 231.11 C 212.21 228.89 206.24 231.81 200.48 232.78 C 196.72 233.25 194.58 236.62 192.04 239.01 C 187.02 243.61 185.15 250.36 181.98 256.18 C 179.98 260.86 175.58 263.70 172.06 267.14 C 163.76 275.12 154.68 282.24 146.09 289.90 C 149.55 280.71 154.25 271.95 156.70 262.42 C 149.54 264.36 147.89 272.10 145.41 278.04 C 134.83 274.09 124.79 268.84 114.48 264.27 C 113.20 270.17 111.98 276.08 110.85 282.00 C 110.20 284.17 111.81 286.33 111.32 288.46 C 109.47 292.32 104.84 292.92 101.44 294.79 C 100.73 295.80 101.90 296.70 102.30 297.58 C 103.90 300.16 106.11 302.35 107.44 305.10 C 107.40 310.90 107.67 316.76 107.30 322.55 C 102.16 327.49 96.15 331.65 92.02 337.62 C 91.32 334.06 90.01 330.62 89.69 327.00 C 91.12 322.90 95.54 321.52 99.28 320.38 C 99.65 316.72 100.82 313.08 100.49 309.38 C 98.03 305.65 94.66 302.63 91.87 299.15 C 90.65 297.60 88.44 295.94 89.67 293.73 C 92.45 289.08 98.36 288.39 102.59 285.59 C 105.26 276.46 105.60 266.65 109.84 257.97 C 102.33 254.64 94.95 251.01 87.45 247.66 C 85.08 246.33 81.76 245.81 80.66 243.00 C 76.49 234.19 72.76 225.17 68.44 216.44 C 62.34 217.66 56.25 219.43 50.02 219.68 C 46.26 217.20 44.26 212.89 40.80 210.09 C 39.11 209.08 37.15 208.61 35.41 207.70 C 35.05 205.05 36.16 202.52 36.85 200.03 C 42.33 181.85 47.76 163.67 53.18 145.48 C 54.57 141.02 56.90 136.95 58.94 132.78 C 63.67 123.22 68.42 113.67 73.14 104.10 C 74.95 100.42 76.57 96.52 79.52 93.57 C 85.83 87.19 92.50 81.15 98.30 74.29 C 101.38 70.64 105.41 68.02 109.21 65.21 C 117.74 59.07 125.94 52.45 134.65 46.56 C 143.81 41.61 153.29 37.25 162.54 32.43 C 166.97 30.00 172.05 29.42 176.92 28.43 C 188.94 26.29 200.81 23.13 213.02 22.22 Z" />
<path fill="#3e3e3e" opacity="1.00" d=" M 217.97 30.86 C 222.62 30.77 227.26 30.09 231.90 30.23 C 239.43 33.37 245.58 39.55 253.75 41.27 C 258.53 42.34 263.11 44.43 268.03 44.77 C 273.20 43.53 276.92 38.99 282.08 37.65 C 283.74 37.27 285.43 36.99 287.11 36.68 C 287.58 36.93 288.51 37.43 288.97 37.68 C 289.96 38.80 290.99 39.92 292.27 40.73 C 307.21 50.10 322.30 59.26 337.14 68.80 C 352.75 81.18 368.11 93.88 383.67 106.33 C 385.52 107.78 387.27 109.40 388.61 111.36 C 400.10 127.53 411.69 143.62 423.20 159.78 C 425.50 163.09 428.23 166.19 429.78 169.96 C 436.12 185.88 442.07 201.97 448.70 217.77 C 433.85 221.48 418.74 224.13 403.84 227.68 C 398.17 212.83 392.37 198.02 386.67 183.17 C 385.22 179.44 384.02 175.55 381.79 172.18 C 376.30 163.86 370.81 155.55 365.38 147.19 C 367.04 138.68 369.07 130.22 370.35 121.64 C 363.01 122.53 358.89 129.19 353.06 132.72 C 340.11 122.44 327.37 111.87 314.51 101.46 C 311.60 99.07 307.91 98.10 304.47 96.74 C 292.93 92.33 281.37 87.94 269.85 83.48 C 267.63 82.63 265.35 81.90 263.01 81.47 C 248.46 78.87 233.88 76.37 219.34 73.66 C 215.18 72.89 211.05 74.17 206.96 74.72 C 194.27 76.89 181.47 78.50 168.83 80.89 C 159.64 84.98 151.13 90.48 142.22 95.15 C 136.19 98.73 129.31 101.22 124.44 106.47 C 117.98 112.99 111.43 119.43 104.93 125.91 C 101.34 129.37 99.80 134.23 97.58 138.56 C 93.76 146.72 89.34 154.63 86.34 163.16 C 83.48 170.92 80.58 178.67 77.68 186.41 C 75.64 191.93 74.72 197.78 73.33 203.48 C 67.59 205.43 61.83 207.31 55.95 208.80 C 55.46 206.75 54.90 204.73 54.34 202.70 C 52.49 202.14 50.63 201.59 48.77 201.07 C 47.74 198.17 46.47 195.03 47.70 191.97 C 51.31 180.33 54.87 168.67 58.52 157.04 C 59.96 152.91 61.19 148.56 63.80 144.99 C 68.78 147.95 73.13 151.85 78.10 154.82 C 80.07 155.75 82.92 156.56 84.55 154.60 C 87.18 151.53 89.32 147.91 90.66 144.09 C 90.78 140.23 89.82 136.32 88.48 132.72 C 85.40 130.07 81.70 128.16 78.02 126.48 C 75.31 126.86 72.83 128.10 70.29 129.05 C 72.71 123.61 75.39 118.30 78.22 113.07 C 81.25 107.55 83.57 101.56 87.73 96.74 C 93.23 90.20 98.43 83.40 104.02 76.93 C 113.30 68.33 123.92 61.37 134.60 54.63 C 141.30 49.78 149.14 46.99 156.49 43.34 C 165.65 38.39 176.19 37.38 186.08 34.55 C 196.43 31.39 207.33 32.02 217.97 30.86 Z" />
<path fill="#3e3e3e" opacity="1.00" d=" M 315.25 47.54 C 316.51 46.89 317.81 47.44 318.79 48.32 C 322.47 51.44 327.39 52.28 331.41 54.85 C 338.18 58.94 345.36 62.42 351.58 67.37 C 361.20 74.74 371.41 81.39 380.21 89.77 C 385.85 95.12 392.59 99.49 396.77 106.20 C 406.62 119.78 416.50 133.33 425.67 147.39 C 428.74 152.23 432.40 156.72 435.01 161.84 C 442.25 179.01 449.65 196.18 454.47 214.22 C 447.40 198.05 441.47 181.38 434.84 165.02 C 434.17 163.47 433.25 162.05 432.29 160.67 C 419.37 142.63 406.44 124.59 393.55 106.53 C 392.02 104.39 390.05 102.62 388.00 100.99 C 372.62 88.66 357.43 76.09 341.99 63.83 C 334.72 58.98 327.21 54.47 319.74 49.92 C 318.05 49.54 316.69 48.44 315.25 47.54 Z" />
<path fill="#f5e5c1" opacity="1.00" d=" M 277.20 61.26 C 280.01 56.49 285.81 54.26 291.15 54.48 C 295.89 56.78 299.76 60.56 304.60 62.70 C 305.12 65.90 306.26 69.31 305.25 72.48 C 302.57 76.61 299.02 80.11 295.64 83.66 C 292.98 86.81 288.54 85.59 285.01 85.18 C 280.31 84.91 277.66 80.57 274.70 77.49 C 273.67 72.11 273.67 65.83 277.20 61.26 Z" />
<path fill="#f5e5c1" opacity="1.00" d=" M 143.59 56.93 C 145.25 56.28 146.95 57.19 148.56 57.56 C 151.43 58.58 154.54 59.13 157.17 60.73 C 159.33 63.79 160.29 67.52 161.36 71.07 C 161.14 73.96 159.18 76.35 158.01 78.93 C 156.57 81.47 156.00 84.82 153.21 86.32 C 150.39 87.80 147.18 88.94 143.96 88.67 C 141.54 88.05 139.35 86.77 137.14 85.65 C 133.01 83.77 132.31 78.75 130.77 74.96 C 130.30 71.18 130.88 67.03 132.67 63.64 C 135.48 60.35 139.70 58.61 143.59 56.93 Z" />
<path fill="#3e3e3e" opacity="1.00" d=" M 185.93 90.88 C 193.07 89.01 200.49 87.23 207.90 88.56 C 218.23 90.29 228.59 91.81 238.89 93.68 C 253.61 97.33 268.27 101.23 282.98 104.94 C 287.92 106.01 291.89 109.32 296.24 111.72 C 302.60 115.70 309.41 119.01 315.27 123.75 C 324.23 130.78 333.23 137.77 342.21 144.79 C 343.72 146.24 346.12 146.06 347.62 144.69 C 351.20 141.84 354.26 138.38 357.93 135.62 C 356.38 142.04 353.19 148.01 352.34 154.61 C 348.19 152.76 344.01 150.89 339.66 149.59 C 329.73 148.61 319.73 148.68 309.78 148.11 C 308.17 149.33 307.01 150.94 307.09 153.04 C 310.04 153.78 312.95 154.68 315.81 155.73 C 330.03 160.96 344.35 165.95 358.57 171.18 C 361.32 171.87 362.20 174.73 363.20 177.03 C 365.07 181.66 367.21 186.19 368.96 190.87 C 311.64 170.91 254.40 150.72 197.11 130.64 C 192.95 129.06 188.87 127.17 185.14 124.76 C 183.17 123.40 183.21 120.18 180.84 119.34 C 168.21 114.56 155.47 110.04 142.90 105.10 C 148.46 100.79 155.47 99.44 161.94 97.06 C 165.46 96.15 169.08 93.62 172.77 95.17 C 184.85 99.21 197.11 102.78 209.08 107.14 C 211.97 108.17 215.27 109.84 218.28 108.29 C 219.92 107.55 220.33 105.76 220.63 104.17 C 218.23 103.79 215.80 103.47 213.52 102.59 C 204.19 99.01 195.13 94.76 185.93 90.88 Z" />
<path fill="#f4722b" opacity="1.00" d=" M 232.54 104.98 C 238.85 105.77 244.81 108.06 250.96 109.52 C 259.38 111.63 267.78 113.80 276.24 115.74 C 281.45 116.91 285.80 120.14 290.39 122.69 C 297.05 126.90 304.54 130.05 310.07 135.83 C 306.29 137.26 302.14 138.30 299.17 141.24 C 296.30 143.98 295.51 148.02 294.40 151.66 C 285.50 147.84 276.09 145.43 267.11 141.80 C 253.95 137.42 240.99 132.50 227.78 128.26 C 216.53 123.72 204.55 120.94 193.82 115.18 C 202.91 117.17 212.05 123.39 221.51 119.69 C 228.05 117.87 232.10 111.54 232.54 104.98 Z" />
<path fill="#3e3e3e" opacity="1.00" d=" M 144.06 108.13 C 151.56 110.72 158.67 114.27 166.07 117.10 C 170.89 119.05 175.88 120.58 180.58 122.80 C 176.50 122.17 172.84 120.15 169.03 118.68 C 160.63 115.36 152.49 111.41 144.06 108.13 Z" />
<path fill="#3e3e3e" opacity="1.00" d=" M 126.12 119.12 C 127.96 115.80 130.91 113.46 134.12 111.53 C 146.90 116.47 159.69 121.38 172.39 126.53 C 177.59 128.70 183.08 130.21 187.97 133.09 C 193.94 136.72 200.80 138.38 207.29 140.84 C 261.91 160.26 316.60 179.47 371.20 198.92 C 367.43 200.83 363.82 203.02 360.20 205.18 C 358.20 206.62 355.81 205.30 353.80 204.59 C 328.17 194.06 302.19 184.36 276.72 173.44 C 275.34 174.79 273.47 175.92 273.04 177.94 C 273.69 179.05 274.94 179.51 276.03 180.08 C 287.86 185.53 299.36 191.63 311.12 197.21 C 306.71 198.69 298.71 197.06 298.17 203.42 C 311.37 207.96 323.93 214.16 336.86 219.41 C 342.88 222.22 349.46 224.03 354.81 228.11 C 366.80 235.82 378.99 243.23 391.01 250.91 C 393.44 252.50 395.87 254.11 398.49 255.39 C 400.01 265.88 401.02 276.44 402.25 286.97 C 401.49 298.62 400.20 310.24 399.32 321.88 C 398.09 321.10 396.91 320.22 395.59 319.62 C 393.25 319.30 390.71 320.07 388.56 318.80 C 366.46 308.02 344.28 297.42 322.14 286.72 C 317.59 284.67 313.30 281.89 308.35 280.87 C 307.28 275.31 307.56 269.61 306.80 264.01 C 306.16 258.75 306.90 253.22 304.79 248.22 C 301.44 240.58 298.06 232.94 294.78 225.27 C 292.47 219.36 288.47 214.31 284.43 209.51 C 280.30 205.92 275.67 202.95 271.37 199.57 C 267.62 196.87 264.16 193.62 259.82 191.87 C 253.34 189.13 246.77 186.60 240.30 183.81 C 237.66 182.75 234.99 181.37 232.06 181.50 C 225.36 181.51 218.67 181.72 211.97 181.70 C 209.59 181.74 207.10 181.60 204.89 182.63 C 198.05 185.66 191.62 189.58 184.76 192.56 C 171.95 187.87 159.33 182.61 146.45 178.06 C 146.52 176.92 146.58 175.79 146.66 174.66 C 140.05 169.49 133.46 164.29 126.82 159.16 C 124.91 157.74 123.36 155.92 121.92 154.05 C 119.10 155.22 115.66 157.31 116.08 160.87 C 120.59 164.63 125.40 168.04 129.90 171.83 C 126.72 170.33 123.51 168.78 120.05 168.02 C 113.82 166.85 108.06 164.11 102.12 162.03 C 100.83 161.36 99.06 161.07 98.29 159.75 C 98.15 157.66 99.27 155.75 99.90 153.82 C 101.46 150.15 102.39 146.09 105.03 142.99 C 112.01 134.99 119.11 127.09 126.12 119.12 Z" />
<path fill="#f4722b" opacity="1.00" d=" M 136.15 125.89 C 149.56 131.26 163.22 136.04 176.62 141.44 C 182.34 144.02 187.38 148.05 193.60 149.48 C 216.47 157.44 239.29 165.53 262.07 173.75 C 261.61 175.45 261.16 177.16 260.72 178.87 C 254.04 176.45 247.65 173.32 241.01 170.83 C 234.57 168.63 227.66 169.80 221.01 169.61 C 213.96 169.96 206.53 168.74 199.88 171.71 C 194.87 174.01 189.91 176.44 185.17 179.27 C 177.10 176.16 169.05 173.01 160.93 170.03 C 156.41 168.69 154.19 164.17 150.46 161.65 C 143.73 156.74 137.17 151.58 131.06 145.91 C 128.55 143.37 124.79 143.22 121.49 142.58 C 126.22 136.88 131.46 131.63 136.15 125.89 Z" />
<path fill="#3e3e3e" opacity="1.00" d=" M 324.01 153.59 C 329.36 153.65 335.03 152.71 340.04 155.12 C 344.99 157.20 350.12 158.84 355.02 161.03 C 356.91 161.81 357.29 164.01 358.15 165.64 C 346.81 161.51 335.56 157.11 324.01 153.59 Z" />
<path fill="#3e3e3e" opacity="1.00" d=" M 96.54 163.18 C 102.30 165.37 108.07 167.53 113.87 169.59 C 113.73 170.27 113.46 171.64 113.32 172.32 C 131.21 182.00 148.80 192.27 166.90 201.57 C 168.02 200.07 170.32 198.76 169.61 196.58 C 160.74 191.95 152.07 186.93 143.17 182.35 C 146.63 183.94 150.11 185.51 153.72 186.74 C 162.11 189.71 170.24 193.40 178.76 196.03 C 173.80 199.95 167.41 202.44 164.15 208.17 C 159.91 215.27 154.35 221.70 151.71 229.65 C 150.06 234.03 148.52 238.46 146.61 242.75 C 132.31 235.82 117.74 229.44 103.43 222.51 C 100.03 221.05 97.17 217.26 93.09 218.37 C 90.21 219.59 88.14 222.32 87.88 225.45 C 95.42 228.63 101.59 234.08 108.07 238.94 C 106.90 239.88 105.78 240.88 104.52 241.70 C 99.75 238.47 95.09 235.00 90.63 231.36 C 85.51 225.01 81.13 218.03 77.38 210.79 C 78.28 208.64 79.84 206.84 80.70 204.66 C 85.98 190.84 91.11 176.95 96.54 163.18 Z" />
<path fill="#f4722b" opacity="1.00" d=" M 103.07 179.91 C 108.71 185.35 116.30 187.93 122.77 192.18 C 132.04 196.97 141.08 202.18 150.25 207.13 C 147.02 213.43 141.98 218.85 140.52 225.96 C 130.62 221.43 120.91 216.52 110.94 212.16 C 107.30 210.46 104.15 207.66 100.15 206.80 C 97.77 206.28 95.31 206.26 92.89 206.08 C 96.25 197.35 99.42 188.53 103.07 179.91 Z" />
<path fill="#f4722b" opacity="1.00" d=" M 306.19 220.15 C 313.63 223.23 321.13 226.17 328.44 229.57 C 334.62 232.27 341.21 234.23 346.80 238.13 C 354.05 242.98 361.74 247.14 368.95 252.06 C 374.60 255.75 380.69 258.80 386.06 262.93 C 387.62 264.07 387.56 266.21 387.84 267.93 C 388.20 272.69 388.79 277.42 389.47 282.15 C 390.77 289.73 389.39 297.39 388.67 304.95 C 365.64 293.76 342.52 282.78 319.55 271.48 C 317.91 261.65 319.48 251.24 315.55 241.86 C 312.46 234.61 309.40 227.35 306.19 220.15 Z" />
<path fill="#3e3e3e" opacity="1.00" d=" M 405.48 232.46 C 420.42 228.95 435.55 226.24 450.44 222.53 C 453.86 224.91 456.92 228.12 458.57 231.98 C 463.16 248.58 467.61 265.22 471.90 281.90 C 472.47 284.54 473.87 287.24 472.95 289.97 C 467.79 310.68 462.70 331.40 457.61 352.12 C 456.66 356.08 455.90 360.15 453.98 363.79 C 447.48 376.11 441.06 388.47 434.62 400.82 C 432.46 404.81 430.81 409.22 427.52 412.46 C 416.11 423.74 404.61 434.94 393.14 446.15 C 390.07 449.05 387.35 452.45 383.57 454.46 C 380.37 456.23 377.04 457.75 373.90 459.62 C 376.85 457.07 380.22 454.59 381.78 450.90 C 382.43 447.69 382.39 444.31 381.90 441.08 C 380.69 438.13 378.02 436.08 376.12 433.58 C 371.76 432.76 367.36 431.78 362.92 431.72 C 358.60 433.83 355.12 437.53 352.78 441.68 C 351.88 443.93 350.32 446.74 351.98 449.02 C 353.82 451.76 355.47 454.77 358.03 456.92 C 361.44 459.02 365.20 460.47 368.91 461.98 C 361.24 466.37 353.30 470.26 345.52 474.45 C 342.46 476.17 338.89 476.29 335.50 476.78 C 319.62 479.01 303.75 481.26 287.87 483.53 C 284.22 484.15 280.53 483.63 276.88 483.24 C 279.96 479.33 280.46 473.63 277.78 469.38 C 275.58 464.27 269.83 462.48 265.01 460.76 C 260.82 460.65 256.87 463.21 254.28 466.38 C 252.24 468.78 252.30 472.11 251.64 475.03 C 252.30 476.88 252.94 478.74 253.61 480.60 C 246.13 479.62 238.48 479.49 231.13 477.71 C 217.46 472.88 203.88 467.76 190.18 462.97 C 184.73 461.16 180.56 457.03 176.11 453.59 C 178.20 450.12 183.24 448.39 183.54 443.96 C 182.36 439.61 180.87 435.25 178.67 431.31 C 174.51 427.96 168.93 425.63 163.51 426.77 C 161.90 427.66 160.52 429.03 159.67 430.67 C 159.03 434.03 159.58 437.48 159.37 440.89 C 154.57 436.87 153.68 430.35 151.35 424.89 C 150.16 423.11 147.80 423.82 146.01 423.59 C 141.12 423.68 136.31 422.67 131.43 422.43 C 119.28 408.29 105.91 395.18 94.82 380.14 C 91.81 375.88 87.76 372.26 85.77 367.34 C 90.91 366.27 95.28 369.43 99.73 371.39 C 100.08 374.85 100.22 378.33 100.47 381.80 C 103.86 380.97 106.24 378.40 106.87 374.95 C 109.60 376.93 112.61 378.63 114.90 381.15 C 117.99 385.27 119.85 390.18 123.09 394.19 C 128.28 395.56 134.33 393.72 138.94 397.03 C 157.32 408.85 176.04 420.12 194.76 431.38 C 201.48 435.98 208.82 439.48 216.10 443.08 C 217.96 443.96 220.03 444.10 222.04 444.41 C 228.27 445.12 233.78 448.52 239.92 449.62 C 252.32 451.90 264.76 453.99 277.13 456.43 C 283.07 457.30 288.76 454.92 294.51 453.86 C 302.71 451.80 311.13 450.60 319.18 448.03 C 331.39 442.12 343.26 435.50 355.37 429.36 C 361.10 426.65 364.16 420.81 368.35 416.36 C 375.69 408.34 383.62 400.88 391.24 393.13 C 392.81 391.53 393.47 389.32 394.24 387.27 C 396.90 379.51 399.75 371.81 402.45 364.06 C 404.22 358.85 406.89 353.71 406.40 348.03 C 407.65 330.68 409.41 313.36 410.78 296.02 C 411.07 291.67 411.98 287.31 411.42 282.94 C 409.39 266.12 407.43 249.29 405.48 232.46 Z" />
<path fill="#3e3e3e" opacity="1.00" d=" M 110.59 243.31 C 112.35 241.68 114.09 240.03 115.81 238.36 C 121.44 241.10 127.18 243.62 132.83 246.31 C 137.20 248.28 141.44 250.77 146.26 251.48 C 146.43 255.70 147.99 259.96 146.78 264.16 C 146.83 262.78 146.93 261.40 146.90 260.02 C 144.45 258.73 141.37 262.03 138.91 260.06 C 133.57 256.77 128.37 253.28 123.06 249.95 C 119.05 247.48 115.31 244.33 110.59 243.31 Z" />
<path fill="#f5e5c1" opacity="1.00" d=" M 216.34 249.65 C 218.25 245.31 222.14 242.42 226.19 240.22 C 229.61 242.18 232.78 244.56 235.90 246.97 C 234.58 253.28 227.91 255.53 222.70 257.78 C 220.47 255.16 218.42 252.39 216.34 249.65 Z" />
<path fill="#f5e5c1" opacity="1.00" d=" M 429.41 241.46 C 432.27 240.77 435.12 242.00 437.97 242.25 C 440.74 242.76 444.41 241.93 445.91 245.00 C 447.99 248.66 452.23 252.54 450.01 257.09 C 448.29 263.88 442.99 269.49 436.89 272.52 C 431.65 271.59 426.72 269.41 421.53 268.24 C 420.06 263.91 418.59 259.57 417.50 255.13 C 416.49 251.27 418.32 246.76 421.92 244.92 C 424.31 243.57 426.78 242.29 429.41 241.46 Z" />
<path fill="#f5e5c1" opacity="1.00" d=" M 178.84 269.83 C 187.21 262.50 196.01 255.64 204.05 247.93 C 205.78 255.30 208.15 262.50 210.05 269.82 C 211.54 276.87 218.87 280.07 222.49 285.82 C 219.89 291.03 219.67 297.03 217.27 302.31 C 215.56 303.43 213.52 303.87 211.60 304.50 C 176.00 315.18 140.55 326.40 104.91 336.96 C 110.18 330.56 116.39 325.06 122.45 319.44 C 140.32 301.87 159.84 286.14 178.84 269.83 Z" />
<path fill="#f5e5c1" opacity="1.00" d=" M 229.70 266.70 C 234.39 264.10 239.16 261.62 243.94 259.17 C 246.25 262.38 248.51 265.67 250.40 269.15 C 251.21 272.48 250.60 275.97 250.53 279.35 C 242.61 281.08 234.80 283.38 226.74 284.38 C 225.91 281.08 225.15 277.76 224.71 274.39 C 223.89 270.92 227.17 268.40 229.70 266.70 Z" />
<path fill="#f4722b" opacity="1.00" d=" M 123.77 282.43 C 127.41 284.03 130.98 285.77 134.47 287.66 C 134.21 289.31 133.96 290.98 133.71 292.64 C 128.98 296.93 124.44 301.42 119.48 305.44 C 119.01 303.36 118.54 301.29 118.07 299.21 C 119.97 297.00 122.24 294.93 123.15 292.08 C 124.25 288.98 123.95 285.64 123.77 282.43 Z" />
<path fill="#3e3e3e" opacity="1.00" d=" M 306.66 288.01 C 319.93 294.25 333.18 300.55 346.30 307.12 C 349.01 308.54 352.16 309.09 354.73 310.74 C 338.67 304.88 322.49 299.36 306.33 293.76 C 306.42 291.84 306.53 289.92 306.66 288.01 Z" />
<path fill="#f5e5c1" opacity="1.00" d=" M 430.38 290.35 C 433.40 288.70 436.78 290.06 439.92 290.55 C 442.96 291.10 446.28 292.25 447.86 295.14 C 450.24 299.70 453.72 304.43 452.50 309.89 C 450.91 314.19 446.70 316.92 442.55 318.43 C 438.17 320.15 433.41 319.10 428.94 318.44 C 425.96 317.22 423.67 314.78 421.57 312.42 C 419.39 310.27 419.54 307.02 418.45 304.35 C 418.10 303.11 416.69 301.84 417.72 300.53 C 421.03 296.20 425.04 292.03 430.38 290.35 Z" />
<path fill="#3e3e3e" opacity="1.00" d=" M 304.91 301.15 C 308.71 303.07 312.77 304.35 316.86 305.50 C 313.58 304.86 310.40 303.31 307.02 303.43 C 304.82 304.44 303.02 306.10 301.20 307.65 C 302.55 305.55 303.76 303.36 304.91 301.15 Z" />
<path fill="#3e3e3e" opacity="1.00" d=" M 336.27 316.39 C 340.27 315.70 343.59 318.33 347.10 319.73 C 343.57 318.33 339.78 317.83 336.27 316.39 Z" />
<path fill="#3e3e3e" opacity="1.00" d=" M 279.74 334.78 C 284.16 332.19 288.02 328.75 290.76 324.39 C 319.45 336.93 348.37 348.93 377.14 361.28 C 381.52 363.15 384.37 367.27 386.95 371.07 C 384.75 378.03 382.13 385.12 377.69 391.00 C 339.79 375.83 301.82 360.84 264.06 345.34 C 269.30 341.83 274.75 338.66 279.74 334.78 Z" />
<path fill="#f4722b" opacity="1.00" d=" M 139.04 339.24 C 146.04 337.47 152.72 334.38 159.87 333.29 C 167.95 338.82 175.94 344.52 184.06 350.02 C 187.23 352.23 190.13 354.99 193.88 356.23 C 203.21 359.43 212.62 362.37 222.06 365.23 C 226.60 366.76 231.34 364.96 235.98 365.17 C 241.35 365.38 246.66 364.59 251.99 364.18 C 254.74 363.75 257.00 365.58 259.28 366.80 C 263.90 369.65 269.02 371.56 273.63 374.43 C 277.06 375.91 276.77 380.37 279.28 382.77 C 283.26 387.68 289.78 388.62 295.32 390.85 C 312.50 397.97 330.10 404.03 347.23 411.29 C 344.25 414.25 340.35 415.87 336.64 417.68 C 329.59 421.70 322.30 425.26 315.20 429.14 C 310.55 429.98 305.76 430.09 301.05 430.52 C 294.98 430.50 289.00 431.79 282.94 431.67 C 276.07 431.67 269.32 430.16 262.81 428.11 C 249.23 424.36 235.64 420.70 222.07 416.94 C 216.24 415.47 211.78 411.27 206.76 408.24 C 194.58 400.87 183.07 392.46 170.99 384.95 C 165.28 381.43 159.89 377.41 154.18 373.90 C 149.56 371.02 144.05 372.81 139.05 373.19 C 137.76 369.49 135.87 365.72 132.26 363.82 C 126.74 360.75 121.04 357.96 115.12 355.76 C 115.68 352.57 116.14 349.36 116.45 346.14 C 124.03 344.00 131.40 341.18 139.04 339.24 Z" />
<path fill="#f4722b" opacity="1.00" d=" M 294.04 339.11 C 312.32 347.28 330.93 354.68 349.27 362.72 C 357.12 366.43 365.41 369.15 373.14 373.10 C 372.67 374.00 372.41 374.98 372.35 376.03 C 357.82 369.41 342.75 364.05 328.00 357.98 C 315.44 352.81 302.81 347.85 290.24 342.74 C 291.50 341.52 292.77 340.32 294.04 339.11 Z" />
<path fill="#3e3e3e" opacity="1.00" d=" M 376.41 339.14 C 377.77 338.73 378.23 339.23 377.78 340.64 C 376.39 341.04 375.93 340.54 376.41 339.14 Z" />
<path fill="#3e3e3e" opacity="1.00" d=" M 296.54 367.28 C 299.24 367.42 301.63 368.91 304.14 369.82 C 325.53 378.43 346.95 387.00 368.37 395.55 C 370.06 396.25 371.64 397.15 373.21 398.10 C 371.50 398.53 369.87 398.42 368.30 397.77 C 343.89 388.20 319.38 378.90 294.95 369.37 C 295.46 368.66 295.99 367.96 296.54 367.28 Z" />
</svg>
