<?xml version="1.0" encoding="UTF-8" ?>
<!DOCTYPE svg PUBLIC "-//W3C//DTD SVG 1.1//EN" "http://www.w3.org/Graphics/SVG/1.1/DTD/svg11.dtd">
<svg width="512pt" height="512pt" viewBox="0 0 512 512" version="1.1" xmlns="http://www.w3.org/2000/svg">
<path fill="#3e3e3e" opacity="1.00" d=" M 0.00 0.00 L 512.00 0.00 L 512.00 512.00 L 0.00 512.00 L 0.00 0.00 Z" />
<path fill="#f4722b" opacity="1.00" d=" M 273.97 43.48 C 317.92 40.80 362.09 41.81 405.90 46.23 C 422.45 47.88 438.97 49.96 455.33 53.00 C 399.21 104.17 342.76 154.99 286.49 206.00 C 269.58 185.69 249.86 167.64 227.64 153.27 C 201.19 135.76 171.22 123.78 140.18 117.38 C 99.07 108.94 56.13 109.65 15.26 119.16 C 39.31 103.55 65.36 91.27 91.99 80.76 C 150.11 58.53 211.99 47.28 273.97 43.48 Z" />
<path fill="#f5e5c1" opacity="1.00" d=" M 496.07 46.99 C 497.84 46.77 499.60 47.27 501.34 47.54 C 502.38 53.28 504.03 59.68 501.15 65.14 C 496.11 73.56 487.78 79.16 481.01 86.06 C 468.31 98.70 454.64 110.33 442.05 123.07 C 431.47 132.48 421.29 142.32 410.95 151.99 C 406.49 150.88 401.77 147.80 397.17 149.51 C 398.91 153.29 400.64 157.09 402.20 160.96 C 374.35 186.89 346.43 212.75 318.53 238.63 C 311.60 246.33 303.38 252.71 296.00 259.96 C 291.13 264.75 285.56 268.80 280.95 273.86 C 277.99 277.29 274.12 279.74 271.03 283.05 C 259.78 292.78 249.15 303.20 238.13 313.19 C 235.52 315.76 232.47 317.96 230.30 320.93 C 230.04 325.39 230.66 329.85 230.65 334.31 C 221.63 342.15 212.05 349.32 203.02 357.14 C 201.68 359.33 201.61 362.11 200.35 364.38 C 198.34 366.06 195.49 366.10 193.18 367.21 C 191.64 369.82 191.48 373.20 189.24 375.38 C 186.73 376.10 184.08 375.65 181.52 375.57 C 174.72 382.33 168.57 389.70 161.93 396.61 C 167.76 405.77 174.68 414.20 180.74 423.20 C 182.80 426.65 177.79 428.78 175.93 431.00 C 161.32 415.88 148.04 399.51 133.89 383.96 C 131.76 381.70 129.84 379.24 128.33 376.52 C 122.82 366.77 117.28 357.03 111.71 347.31 C 110.99 346.00 110.24 344.61 110.28 343.06 C 112.14 341.20 115.23 337.69 117.95 339.96 C 123.81 346.34 128.85 353.44 134.70 359.84 C 140.34 356.18 145.51 351.87 150.97 347.97 C 152.38 346.84 154.02 345.90 155.04 344.38 C 155.29 342.83 155.34 341.25 155.49 339.69 C 158.27 338.40 161.14 337.36 164.02 336.33 C 165.13 333.76 165.72 330.81 167.65 328.69 C 170.39 327.02 173.76 326.38 175.98 323.91 C 181.63 318.24 187.35 312.63 193.00 306.96 C 194.71 305.32 196.37 303.31 198.88 303.00 C 201.20 302.33 203.88 302.48 205.87 300.95 C 292.49 221.23 379.16 141.54 465.78 61.81 C 468.84 59.18 471.63 56.18 475.06 54.02 C 481.57 50.45 488.72 48.03 496.07 46.99 Z" />
<path fill="#3e3e3e" opacity="1.00" d=" M 471.46 64.42 C 477.37 59.02 484.78 55.31 492.68 53.98 C 488.39 56.93 484.40 60.28 480.74 63.98 C 480.66 64.64 480.49 65.98 480.40 66.65 C 394.60 145.77 308.69 224.76 222.92 303.92 C 219.81 306.73 216.93 309.84 213.49 312.25 C 210.82 313.85 208.76 310.62 207.11 309.03 C 209.39 305.98 212.23 303.44 215.05 300.92 C 300.43 221.99 385.86 143.11 471.46 64.42 Z" />
<path fill="#3e3e3e" opacity="1.00" d=" M 198.49 311.45 C 199.64 310.12 201.22 309.36 202.88 308.90 C 206.89 313.31 210.93 317.77 215.82 321.24 C 218.75 323.24 220.79 326.17 222.75 329.06 C 220.91 332.94 217.31 335.40 214.26 338.25 C 209.00 343.01 203.87 347.91 198.51 352.55 C 196.70 353.95 195.95 356.13 195.13 358.17 C 189.95 359.53 186.44 363.92 183.93 368.39 C 176.94 369.57 172.96 375.69 168.08 380.11 C 164.00 384.04 159.92 387.98 155.89 391.95 C 154.82 391.46 153.78 390.96 152.74 390.43 C 150.31 391.92 148.25 393.90 146.39 396.05 C 146.06 395.06 145.40 393.09 145.07 392.10 C 147.04 390.79 149.00 389.46 150.94 388.11 C 150.12 384.02 145.80 380.29 147.68 375.96 C 149.52 370.74 155.00 368.38 158.39 364.37 C 158.64 363.27 158.85 362.17 159.02 361.06 C 157.90 361.15 156.79 361.30 155.69 361.50 C 151.16 364.31 147.72 368.64 142.97 371.12 C 140.17 371.92 137.89 369.49 135.22 369.21 C 133.42 370.09 132.00 371.57 130.48 372.85 C 130.01 371.21 129.53 369.59 129.07 367.95 C 130.40 366.99 131.72 366.03 133.04 365.06 C 134.62 365.71 136.38 367.52 138.14 366.31 C 143.56 362.39 148.57 357.93 153.88 353.86 C 157.32 350.92 162.18 348.68 162.62 343.59 C 167.69 342.19 173.04 338.61 173.89 333.05 C 175.69 332.20 177.64 331.52 179.10 330.10 C 185.55 323.87 192.15 317.79 198.49 311.45 Z" />
<path fill="#f5e5c1" opacity="1.00" d=" M 209.44 336.05 C 208.73 331.67 213.45 329.24 214.75 325.43 C 215.76 325.53 217.78 325.73 218.79 325.83 C 217.27 330.36 212.75 332.90 209.44 336.05 Z" />
<path fill="#f5e5c1" opacity="1.00" d=" M 196.06 332.65 C 196.57 332.62 197.58 332.55 198.08 332.52 C 200.26 334.84 202.66 337.01 205.74 338.05 C 205.68 338.75 205.63 339.47 205.58 340.19 C 203.65 340.94 201.80 341.89 199.89 342.72 C 198.34 339.47 196.94 336.15 196.06 332.65 Z" />
<path fill="#f5e5c1" opacity="1.00" d=" M 176.50 343.69 C 177.63 343.05 178.45 340.74 180.03 341.86 C 183.58 344.48 186.00 348.35 189.49 351.08 C 189.47 351.86 189.46 352.65 189.46 353.44 C 188.83 353.53 187.58 353.70 186.95 353.79 C 183.47 350.41 180.07 346.97 176.50 343.69 Z" />
<path fill="#f5e5c1" opacity="1.00" d=" M 174.67 357.55 C 176.91 359.15 179.24 360.99 179.94 363.80 C 177.18 365.66 174.76 368.28 171.36 368.93 C 172.46 365.14 173.59 361.35 174.67 357.55 Z" />
<path fill="#f5e5c1" opacity="1.00" d=" M 99.22 404.15 C 108.81 396.79 118.50 389.54 128.00 382.06 C 130.80 385.59 134.07 388.74 136.84 392.30 C 136.08 395.00 133.00 396.20 131.15 398.11 C 132.12 399.05 133.04 400.06 134.10 400.92 C 136.65 400.31 138.16 397.78 140.10 396.21 C 141.20 397.12 142.30 398.03 143.41 398.94 C 143.46 399.70 143.50 400.46 143.55 401.23 C 135.71 409.16 128.08 417.29 120.46 425.43 C 116.49 429.82 111.73 433.38 107.32 437.30 C 105.17 439.10 103.16 441.30 100.29 441.87 C 93.94 435.47 85.92 430.15 82.36 421.51 C 81.30 419.70 83.42 418.50 84.45 417.34 C 89.35 412.92 94.10 408.33 99.22 404.15 Z" />
<path fill="#3e3e3e" opacity="1.00" d=" M 125.64 402.64 C 126.94 401.61 128.17 400.32 129.87 400.01 C 130.89 400.88 131.84 401.83 132.82 402.75 C 123.53 414.33 112.10 423.93 101.94 434.72 C 100.10 432.31 98.13 430.03 96.15 427.75 C 105.85 419.23 115.91 411.13 125.64 402.64 Z" />
<path fill="#f5e5c1" opacity="1.00" d=" M 50.13 452.12 C 59.23 442.96 67.36 432.84 76.95 424.17 C 79.24 428.90 82.60 432.96 86.00 436.93 C 75.63 447.10 65.39 457.41 54.88 467.44 C 56.05 469.29 57.25 471.12 58.45 472.95 C 69.37 463.31 80.29 453.67 91.17 444.00 C 92.40 442.45 94.25 443.91 95.69 444.28 C 95.47 445.99 96.26 448.29 94.57 449.48 C 85.01 457.97 75.21 466.20 65.59 474.62 C 63.54 476.62 61.66 478.82 59.23 480.38 C 52.97 474.71 47.55 467.63 46.27 459.05 C 45.46 456.02 48.50 454.16 50.13 452.12 Z" />
<path fill="#f5e5c1" opacity="1.00" d=" M 31.06 465.25 C 34.34 464.15 37.52 462.77 40.42 460.87 C 41.71 466.23 44.23 471.12 46.81 475.94 C 43.74 479.65 40.16 482.97 36.35 485.92 C 36.24 488.93 36.38 491.95 36.41 494.97 C 38.64 495.37 40.87 495.82 43.09 496.31 C 48.77 493.81 50.69 487.76 53.19 482.62 C 54.71 483.13 56.24 483.61 57.79 484.08 C 57.55 488.01 56.46 491.98 54.44 495.37 C 50.35 498.67 45.85 502.98 40.13 502.02 C 33.73 502.18 28.56 497.83 24.88 493.03 C 20.13 488.82 19.15 481.78 20.66 475.87 C 21.78 470.73 26.23 466.89 31.06 465.25 Z" />
</svg>
