<?xml version="1.0" encoding="UTF-8" ?>
<!DOCTYPE svg PUBLIC "-//W3C//DTD SVG 1.1//EN" "http://www.w3.org/Graphics/SVG/1.1/DTD/svg11.dtd">
<svg width="512pt" height="512pt" viewBox="0 0 512 512" version="1.1" xmlns="http://www.w3.org/2000/svg">
<path fill="#3e3e3e" opacity="1.00" d=" M 0.00 0.00 L 512.00 0.00 L 512.00 512.00 L 0.00 512.00 L 0.00 0.00 Z" />
<path fill="#f1e1be" opacity="1.00" d=" M 98.62 13.30 C 102.49 10.28 107.81 11.65 112.15 12.76 C 114.20 16.17 115.68 19.86 117.35 23.46 C 124.97 39.62 132.45 55.85 140.02 72.03 C 141.09 73.88 140.69 76.02 140.50 78.02 C 143.64 79.64 144.39 83.36 146.02 86.21 C 152.37 99.50 159.30 112.52 165.37 125.94 C 164.72 127.95 164.00 129.95 163.63 132.03 C 163.59 133.96 164.67 135.67 165.15 137.49 C 165.86 139.41 165.06 141.45 165.28 143.44 C 174.30 152.84 182.98 162.60 192.11 171.90 C 192.60 164.85 194.71 158.05 195.48 151.05 C 195.66 145.90 195.56 140.74 195.49 135.58 C 197.76 132.59 201.33 131.21 204.44 129.33 C 212.16 125.07 219.25 119.75 225.88 113.98 C 228.21 112.16 226.53 108.53 228.72 106.69 C 231.36 104.49 234.64 103.33 237.84 102.23 C 237.43 100.29 236.92 98.38 236.38 96.47 C 239.05 97.12 241.39 96.18 243.07 94.07 C 244.18 95.24 245.22 96.48 246.46 97.52 C 251.07 96.93 255.69 96.01 260.37 96.30 C 260.46 96.90 260.65 98.08 260.74 98.67 C 264.34 102.52 267.28 108.04 266.16 113.41 C 273.51 114.97 280.89 116.45 288.20 118.17 C 294.01 120.38 299.51 123.32 305.12 125.99 C 313.69 151.86 321.81 177.88 330.31 203.78 C 333.70 212.94 337.06 222.11 340.55 231.23 C 342.08 234.97 341.97 239.10 342.28 243.06 C 342.57 260.04 342.67 277.02 342.76 294.00 C 343.61 304.45 343.45 314.94 343.53 325.42 C 338.94 329.54 333.86 333.09 329.07 336.97 C 326.85 338.64 324.70 341.03 321.65 340.64 C 319.94 338.92 317.96 337.45 316.49 335.53 C 315.94 333.86 317.33 332.46 317.79 330.96 C 316.97 329.24 315.59 327.85 314.59 326.26 C 316.22 319.99 316.83 313.48 316.55 307.01 C 316.16 303.08 319.12 300.08 320.72 296.77 C 319.40 296.10 318.04 295.52 316.60 295.17 C 315.27 292.31 315.64 289.09 315.04 286.07 C 312.67 272.38 310.50 258.64 307.86 244.99 C 307.61 243.01 307.44 241.00 306.81 239.10 C 306.28 236.23 305.53 233.41 304.74 230.61 C 308.12 254.02 311.47 277.44 314.94 300.85 C 315.31 302.37 314.89 303.88 314.43 305.33 C 310.18 306.81 305.65 307.54 301.62 309.61 C 301.86 334.40 301.65 359.20 301.72 384.00 C 301.68 385.81 302.17 387.57 302.75 389.28 C 309.06 407.79 315.41 426.29 321.70 444.81 C 322.53 447.55 324.22 450.39 323.40 453.34 C 322.16 454.70 320.37 455.54 319.35 457.09 C 319.15 460.08 319.25 463.17 319.99 466.09 C 321.73 469.88 326.12 472.07 326.87 476.40 C 327.74 480.92 328.28 485.50 329.23 490.01 C 328.11 495.34 327.03 500.67 326.11 506.04 C 325.56 506.42 324.47 507.18 323.92 507.56 C 319.59 504.87 315.96 501.25 311.92 498.16 C 310.15 496.61 307.82 495.31 307.26 492.86 C 305.76 487.86 303.82 482.99 302.50 477.95 C 301.92 472.16 302.41 466.33 302.25 460.52 C 297.39 461.06 292.56 462.10 287.64 461.77 C 286.74 458.67 286.52 455.45 286.17 452.26 C 284.26 436.16 282.57 420.03 280.66 403.94 C 280.34 399.85 277.38 396.69 276.19 392.87 C 267.13 365.54 257.97 338.23 249.05 310.85 C 248.19 310.57 247.33 310.29 246.47 310.02 C 241.75 329.06 237.46 348.20 232.86 367.27 C 231.82 371.42 232.51 375.70 232.55 379.92 C 232.78 385.25 232.51 390.59 233.12 395.90 C 233.93 404.61 233.32 413.38 234.28 422.08 C 234.61 430.15 235.01 438.24 234.63 446.32 C 231.99 446.80 229.34 447.24 226.68 447.57 C 226.30 456.12 227.16 464.82 225.21 473.23 C 220.70 474.00 216.13 474.24 211.59 474.63 C 206.62 477.56 202.40 481.61 197.56 484.73 C 195.91 485.79 193.84 485.40 191.99 485.54 C 184.73 485.49 177.47 485.78 170.21 485.56 C 170.29 484.11 169.76 482.25 171.35 481.43 C 175.93 477.63 181.22 474.63 185.16 470.09 C 188.62 466.48 191.55 462.09 196.24 459.96 C 198.22 458.76 200.75 458.07 202.03 456.02 C 202.77 453.54 202.60 450.90 202.82 448.35 C 199.54 447.51 196.13 447.49 192.77 447.43 C 192.02 446.40 191.66 445.28 191.70 444.08 C 193.96 427.38 196.22 410.69 198.44 393.99 C 198.76 389.03 200.38 384.31 202.06 379.68 C 203.51 375.78 200.88 371.98 200.72 368.09 C 200.61 361.05 200.61 353.99 201.24 346.98 C 201.55 331.55 201.57 316.13 201.61 300.70 C 198.85 300.30 196.12 299.80 193.37 299.40 C 192.90 299.06 191.96 298.39 191.49 298.05 C 193.81 272.32 196.35 246.63 198.54 220.90 C 188.69 213.91 178.75 207.06 168.81 200.18 C 158.03 193.22 148.94 184.08 139.03 176.00 C 136.32 173.27 131.87 171.45 131.72 167.06 C 131.56 164.47 129.01 163.15 127.58 161.26 C 128.41 158.53 129.43 155.79 129.50 152.91 C 127.16 149.14 123.56 146.00 122.81 141.42 C 122.00 137.21 119.91 133.12 119.84 128.84 C 124.64 122.09 130.82 116.41 135.80 109.80 C 134.45 102.55 130.65 95.90 128.53 88.82 C 127.79 86.97 128.43 85.07 129.52 83.52 C 128.11 83.21 126.73 82.82 125.38 82.34 C 124.21 80.78 123.48 78.96 122.63 77.22 C 114.34 59.67 106.06 42.11 97.71 24.59 C 95.66 21.04 97.36 16.82 98.62 13.30 Z" />
<path fill="#3e3e3e" opacity="1.00" d=" M 101.46 15.75 C 104.22 15.70 107.64 15.02 109.85 17.01 C 117.52 33.63 125.38 50.19 133.03 66.83 C 134.22 69.55 135.89 72.08 136.64 74.97 C 136.18 77.40 135.25 79.78 135.54 82.30 C 136.89 82.40 138.23 82.50 139.58 82.60 C 146.47 96.32 153.10 110.17 160.03 123.86 C 161.51 126.20 159.97 128.80 159.59 131.23 C 158.96 133.97 160.66 136.42 161.29 138.99 C 161.11 141.11 159.55 143.36 160.67 145.43 C 162.64 147.07 164.75 148.57 166.44 150.53 C 174.01 158.94 181.96 167.01 189.49 175.47 C 190.65 177.12 192.45 177.78 194.42 177.75 C 196.61 171.34 197.02 164.49 198.51 157.90 C 200.29 151.02 199.54 143.90 199.72 136.88 C 204.52 134.07 209.14 130.71 214.76 129.78 C 218.28 127.25 221.47 124.25 225.23 122.03 C 226.00 123.35 226.84 124.63 227.84 125.80 C 228.43 125.35 229.63 124.45 230.22 124.00 C 230.70 119.32 231.53 114.68 231.64 109.98 C 235.28 108.89 238.59 106.45 242.52 106.63 C 241.30 106.90 240.06 107.13 238.84 107.35 C 238.22 107.71 237.00 108.42 236.39 108.78 C 236.41 109.73 236.45 111.62 236.47 112.57 C 240.34 113.06 243.32 110.28 246.46 108.53 C 250.07 106.46 253.92 104.77 257.18 102.13 C 258.21 103.46 259.23 104.79 260.25 106.14 C 260.32 109.30 260.35 112.62 261.69 115.56 C 262.75 116.80 264.47 117.12 265.98 117.52 C 272.07 118.81 278.15 120.14 284.24 121.44 C 288.87 122.33 292.93 124.84 297.22 126.65 C 299.21 127.71 301.99 128.35 302.49 130.92 C 309.47 152.63 316.46 174.35 323.49 196.04 C 327.50 209.18 332.83 221.88 337.41 234.82 C 338.84 239.05 338.08 243.59 338.28 247.96 C 338.54 264.64 338.19 281.35 339.27 298.00 C 339.23 306.61 339.45 315.21 339.34 323.82 C 334.15 327.74 329.02 331.75 323.92 335.79 C 323.35 335.72 322.20 335.59 321.63 335.52 C 321.58 335.12 321.47 334.31 321.42 333.91 C 324.29 331.56 327.32 329.26 329.32 326.07 C 328.22 323.38 329.43 317.57 324.87 318.64 C 323.30 320.76 322.76 323.40 321.91 325.85 C 320.92 319.25 321.96 312.52 320.52 305.97 C 321.85 302.19 325.31 299.14 324.69 294.80 C 327.82 293.84 333.41 294.04 332.96 289.42 C 328.77 287.77 324.56 290.23 320.36 290.68 C 319.90 289.20 319.47 287.71 319.18 286.19 C 316.42 270.13 313.67 254.06 310.93 238.00 C 308.20 227.59 304.24 217.55 301.25 207.22 C 300.05 207.30 298.84 207.40 297.64 207.51 C 298.65 217.37 300.72 227.10 301.50 236.99 C 303.81 253.36 306.28 269.71 308.62 286.07 C 309.32 291.46 310.54 296.79 310.71 302.23 C 306.29 303.65 301.54 304.33 297.48 306.69 C 298.31 331.79 297.44 356.93 297.90 382.05 C 297.15 388.42 300.34 394.20 302.08 400.13 C 308.04 417.09 313.62 434.19 319.59 451.15 C 317.68 452.94 314.24 454.61 314.97 457.76 C 315.94 461.93 314.43 466.96 317.65 470.35 C 319.46 472.79 322.43 474.65 322.96 477.85 C 323.62 481.54 324.37 485.23 324.74 488.97 C 324.83 493.32 323.52 497.54 322.50 501.73 C 319.55 498.85 316.21 496.42 313.05 493.79 C 310.98 492.32 310.60 489.64 309.79 487.42 C 308.54 482.99 306.61 478.74 305.87 474.18 C 305.46 468.27 306.16 462.33 305.45 456.44 C 300.51 456.39 295.68 457.69 290.73 457.70 C 289.02 439.73 286.77 421.81 284.83 403.86 C 284.47 398.84 281.05 394.89 279.60 390.22 C 270.74 363.43 261.90 336.63 252.92 309.89 C 251.80 306.10 247.03 305.71 243.73 305.34 C 241.90 309.70 241.25 314.41 240.05 318.95 C 236.66 333.43 233.20 347.88 229.84 362.36 C 227.14 370.88 228.72 379.89 228.63 388.65 C 230.01 398.72 228.84 408.93 230.20 419.00 C 230.87 426.81 229.73 434.79 231.36 442.50 C 228.86 443.23 226.25 443.41 223.67 443.59 C 221.59 452.03 222.66 460.87 222.20 469.48 C 216.84 470.33 210.52 469.19 206.22 473.19 C 202.62 475.94 199.00 478.66 195.33 481.33 C 189.29 481.37 183.25 481.66 177.21 481.43 C 184.10 478.28 188.82 472.15 193.80 466.70 C 197.19 463.49 201.75 462.00 205.56 459.38 C 206.06 454.50 208.31 449.31 206.40 444.54 C 202.96 444.24 199.53 443.79 196.10 443.43 C 198.01 425.89 200.78 408.46 202.99 390.95 C 203.47 386.13 206.42 381.89 206.66 377.06 C 206.05 372.37 204.24 367.79 205.13 362.99 C 205.09 341.21 205.86 319.43 205.62 297.66 C 202.42 296.33 198.90 296.36 195.59 295.46 C 197.33 282.56 198.01 269.53 199.44 256.59 C 200.38 244.00 202.13 231.46 202.63 218.85 C 189.96 209.60 176.89 200.90 164.07 191.86 C 155.09 184.57 146.51 176.81 137.60 169.42 C 135.60 167.92 135.68 165.18 135.16 162.97 C 134.26 162.14 133.34 161.34 132.53 160.43 C 132.34 157.42 134.27 154.49 133.50 151.45 C 131.60 147.87 128.03 145.25 127.01 141.18 C 126.08 137.50 124.70 133.91 124.29 130.12 C 128.91 123.22 135.35 117.64 140.26 110.92 C 140.28 110.43 140.32 109.44 140.34 108.94 C 138.03 102.04 135.17 95.32 132.72 88.47 C 131.80 85.92 134.70 83.51 133.33 80.95 C 132.46 78.50 129.43 79.05 127.40 78.55 C 118.40 60.19 109.62 41.73 100.61 23.37 C 98.96 20.94 100.96 18.23 101.46 15.75 Z" />
<path fill="#f3722b" opacity="1.00" d=" M 205.59 33.99 C 205.66 28.51 212.38 25.18 217.22 26.63 C 219.55 28.34 221.29 30.68 223.18 32.84 C 227.76 38.24 233.08 43.09 236.83 49.15 C 241.17 56.71 242.04 65.79 241.32 74.33 C 240.77 71.29 240.07 68.20 238.35 65.58 C 233.13 56.86 227.45 47.47 217.88 43.00 C 213.46 40.59 206.97 39.69 205.59 33.99 Z" />
<path fill="#f3722b" opacity="1.00" d=" M 206.10 67.26 C 206.79 65.45 208.58 62.96 210.79 63.99 C 217.42 65.84 222.84 70.45 227.69 75.15 C 231.74 79.36 235.73 83.68 239.04 88.52 C 231.01 81.41 220.13 79.12 209.99 76.78 C 206.21 75.66 204.51 70.74 206.10 67.26 Z" />
</svg>
