<?xml version="1.0" encoding="UTF-8" standalone="no"?>
<svg
   xmlns:dc="http://purl.org/dc/elements/1.1/"
   xmlns:cc="http://creativecommons.org/ns#"
   xmlns:rdf="http://www.w3.org/1999/02/22-rdf-syntax-ns#"
   xmlns:svg="http://www.w3.org/2000/svg"
   xmlns="http://www.w3.org/2000/svg"
   xmlns:sodipodi="http://sodipodi.sourceforge.net/DTD/sodipodi-0.dtd"
   xmlns:inkscape="http://www.inkscape.org/namespaces/inkscape"
   width="1280"
   height="1280"
   viewBox="0 0 1024 1024"
   version="1.1"
   id="svg2"
   inkscape:version="0.48.1 "
   sodipodi:docname="decapitate_nemesis.svg">
  <metadata
     id="metadata38">
    <rdf:RDF>
      <cc:Work
         rdf:about="">
        <dc:format>image/svg+xml</dc:format>
        <dc:type
           rdf:resource="http://purl.org/dc/dcmitype/StillImage" />
      </cc:Work>
    </rdf:RDF>
  </metadata>
  <defs
     id="defs36" />
  <sodipodi:namedview
     pagecolor="#ffffff"
     bordercolor="#666666"
     borderopacity="1"
     objecttolerance="10"
     gridtolerance="10"
     guidetolerance="10"
     inkscape:pageopacity="0"
     inkscape:pageshadow="2"
     inkscape:window-width="1920"
     inkscape:window-height="1018"
     id="namedview34"
     showgrid="false"
     inkscape:snap-page="true"
     fit-margin-top="0"
     fit-margin-left="0"
     fit-margin-right="0"
     fit-margin-bottom="0"
     inkscape:zoom="0.6609375"
     inkscape:cx="640"
     inkscape:cy="640"
     inkscape:window-x="-8"
     inkscape:window-y="-8"
     inkscape:window-maximized="1"
     inkscape:current-layer="svg2" />
  <rect
     style="fill:#3e3e3e;fill-opacity:1;fill-rule:nonzero;stroke:none"
     id="rect3015"
     width="1024"
     height="1024"
     x="0"
     y="2.2737368e-013" />
  <path
     d="M 0,0 0.12,0 C 0.1,0.04 0.04,0.1 0,0.12 L 0,0 z"
     id="path4"
     inkscape:connector-curvature="0"
     style="fill:#f5e5c1" />
  <path
     style="fill:#f5e5c1"
     d="M 306.25 0 C 306.55 54.975 307.35 109.9625 307.125 164.9375 C 309.825 224.4375 308.45625 284.04375 309.65625 343.59375 C 304.55625 347.51875 299.2875 352.45625 292.3125 351.78125 C 224.0875 351.83125 155.85 352.06875 87.625 351.59375 C 68.975 351.51875 50.28125 350.9875 31.78125 348.3125 C 25.73125 362.9875 29.5375 378.8 32.8125 393.625 C 112.5125 400.15 192.23125 406.8875 271.90625 413.8125 C 285.88125 414.5125 298.13125 422.48125 312.03125 423.65625 C 326.00625 425.40625 339.96875 427.26875 353.96875 428.96875 C 348.24375 516.29375 341.51875 603.6125 335.46875 690.9375 C 334.24375 699.2875 334.0625 707.8125 337.1875 715.8125 C 332.0375 719.8375 324.575 722.825 323 729.875 C 320.925 739.825 321.6 750.0875 321.5 760.1875 C 328.375 762.3125 335.24375 764.48125 342.09375 766.65625 C 339.49375 783.53125 341.6875 800.55625 343.0625 817.40625 C 343.5125 831.63125 343.45625 845.875 343.90625 860.125 C 345.50625 883.35 346.275 906.60625 346.75 929.90625 C 349.625 954.78125 347.91875 979.9125 349.84375 1004.8125 C 352.96875 1013.3625 361.48125 1018.3875 367.28125 1025.0625 C 363.18125 1033.8625 355.95 1040.4375 348.625 1046.5625 C 348.35 1061.0625 350.19375 1075.65 348.59375 1090.125 C 343.26875 1105 332.69375 1117.4 326.71875 1132 C 325.16875 1137.925 326.425 1144.125 326.875 1150.125 C 328.775 1163.625 328.8 1177.3316 331.25 1190.7812 C 340.225 1199.4566 348.8375 1208.4814 357.6875 1217.2812 C 367.7625 1228.4814 384.2 1226.3185 397.625 1229.4688 C 416.55 1234.0435 435.9125 1230.0815 455.0625 1230.5312 C 465.1375 1225.3815 474.91875 1219.6315 485.21875 1214.9062 C 496.59375 1207.4814 506.2625 1197.7066 516.6875 1189.0312 C 524.1375 1183.1316 524.325 1172.8625 526.875 1164.4375 C 529.05 1153.8625 533.5625 1143.6934 533.9375 1132.8438 C 532.2375 1121.9688 528.6375 1111.5066 525.8125 1100.9062 C 522.4625 1087.9062 508.5125 1081.6625 503.1875 1069.9375 C 502.4875 1004.2875 506.61875 938.64375 506.84375 872.96875 C 508.84375 843.81875 508.76875 814.60625 509.21875 785.40625 C 510.11875 779.90625 504.875 776.8 502 773 C 509.025 766.325 519.5375 762.1875 523.3125 752.8125 C 523.0875 738.9625 521.0375 725.20625 518.9375 711.53125 C 517.1375 711.40625 513.55 711.15625 511.75 711.03125 C 510.675 659.05625 512.825 606.9625 509.375 555.0625 C 509.475 542.5125 509.16875 529.9875 509.46875 517.4375 C 511.79375 487.1875 509.98125 456.8 510.28125 426.5 C 519.83125 423.125 529.25625 419.41875 538.90625 416.34375 C 553.53125 411.61875 569.0375 411.94375 584.1875 410.59375 C 668.2375 403.44375 752.3875 397.0875 836.4375 389.5625 C 839.7625 375.1875 837.79375 360.2375 834.46875 346.0625 C 807.96875 345.8375 781.45 346.49375 755 344.84375 C 725.825 343.91875 696.70625 346.1375 667.53125 345.4375 C 629.65625 343.2875 591.6875 344.5875 553.8125 343.4375 C 550.5875 309.9625 551.45 276.3 550.375 242.75 C 548.65 223.675 548.88125 204.50625 548.40625 185.40625 C 547.45625 174.55625 555.875 165.9625 556.875 155.5625 C 554.575 148.4875 549.775 142.15 549.375 134.5 C 548.8 125.7 548.50625 116.8875 548.53125 108.0625 C 548.15625 97.2375 556.625 88.4625 556.875 77.8125 C 555.1 64.6875 545.93125 53.5125 545.78125 40.0625 C 545.50625 26.6875 545.90625 13.35 545.78125 0 L 514.6875 0 C 518.6875 0.775 522.6875 1.6125 526.6875 2.4375 C 526.7375 7.08125 526.75859 11.733984 526.75 16.375 C 526.74375 21.017187 526.70625 25.640625 526.65625 30.28125 C 526.55005 39.569783 526.38772 48.839602 526.1875 58.125 C 513.4625 60.95 500.8375 64.5125 489.0625 70.1875 C 491.26562 71.021875 493.4912 71.736353 495.75 72.34375 C 497.24608 72.746051 498.76597 73.120831 500.28125 73.4375 C 500.29116 73.439571 500.30259 73.435433 500.3125 73.4375 C 501.06542 73.59427 501.83686 73.73727 502.59375 73.875 C 507.18387 74.710458 511.86203 75.219398 516.53125 75.53125 C 516.54157 75.531939 516.55218 75.530562 516.5625 75.53125 C 519.67247 75.737824 522.8041 75.850291 525.90625 75.9375 C 528.88125 78.8875 531.86875 81.825 534.84375 84.75 C 533.26875 87.95 531.64688 91.196875 530.40625 94.5625 C 530.09727 95.403125 529.81575 96.237598 529.5625 97.09375 C 529.55969 97.103176 529.5653 97.115572 529.5625 97.125 C 529.5357 97.215858 529.52608 97.315203 529.5 97.40625 C 529.3042 98.089798 529.12028 98.773965 528.96875 99.46875 C 528.95235 99.543924 528.92208 99.612187 528.90625 99.6875 C 528.81142 100.13455 528.73012 100.57921 528.65625 101.03125 C 528.58438 101.47299 528.51891 101.89692 528.46875 102.34375 C 528.46759 102.35394 528.4699 102.3648 528.46875 102.375 C 528.42026 102.81164 528.36986 103.24574 528.34375 103.6875 C 528.31569 104.15008 528.3141 104.59413 528.3125 105.0625 C 527.9375 119.8125 527.2375 134.5875 526.1875 149.3125 C 510.00625 149.15625 493.83477 149.12207 477.65625 149.1875 C 469.55775 149.22049 461.47266 149.27252 453.375 149.34375 C 429.10884 149.55608 404.85684 149.93467 380.59375 150.28125 C 364.41836 150.5123 348.2375 150.73125 332.0625 150.90625 C 332.32311 149.51826 332.5578 148.14304 332.75 146.75 C 332.76276 146.65744 332.76877 146.56133 332.78125 146.46875 C 332.78262 146.45858 332.77988 146.44767 332.78125 146.4375 C 332.97978 144.96077 333.14778 143.48131 333.28125 142 C 333.28218 141.98969 333.28032 141.97906 333.28125 141.96875 C 333.68227 137.5043 333.81317 133.01804 333.84375 128.53125 C 333.84383 128.52084 333.84367 128.51041 333.84375 128.5 C 333.87393 124.00278 333.82187 119.52188 333.8125 115.03125 C 333.79219 114.27656 333.78278 113.51219 333.78125 112.75 C 333.77053 107.41464 334.14727 101.91641 333.84375 96.5625 C 333.75645 95.022525 333.5996 93.508947 333.375 92 C 332.76298 87.888195 331.54888 83.898981 329.21875 80.21875 C 329.0064 79.883363 328.79375 79.549219 328.5625 79.21875 C 329.09817 78.437305 329.6399 77.669889 330.25 76.96875 C 330.55127 76.620215 330.86072 76.307739 331.1875 76 C 331.51538 75.692627 331.86016 75.408594 332.21875 75.15625 C 332.57617 74.903516 332.95056 74.683521 333.34375 74.5 C 333.73804 74.316846 334.15879 74.162305 334.59375 74.0625 C 335.02783 73.962402 335.4574 73.908716 335.9375 73.90625 C 335.95747 73.906147 335.97995 73.906171 336 73.90625 C 336.46207 73.908074 336.9596 73.957674 337.46875 74.0625 C 353.29375 74.025 369.10781 73.975 384.9375 74 C 392.85234 74.0125 400.77324 74.035156 408.6875 74.09375 C 408.69791 74.093825 408.70834 74.093674 408.71875 74.09375 C 412.66547 74.123007 416.61615 74.174239 420.5625 74.21875 C 424.52985 74.263109 428.47084 74.312336 432.4375 74.375 C 434.05 74.384375 435.6575 74.42854 437.28125 74.46875 C 441.35048 74.569716 445.42651 74.708783 449.5 74.65625 C 451.93842 74.624234 454.36818 74.511267 456.78125 74.28125 C 458.38997 74.127905 460.00381 73.937207 461.59375 73.65625 C 464.77305 73.094922 467.9 72.23125 470.96875 70.96875 C 469.74844 70.540625 468.51309 70.163593 467.28125 69.8125 C 466.66533 69.636954 466.05609 69.470223 465.4375 69.3125 C 462.34457 68.523884 459.21118 67.946045 456.0625 67.53125 C 448.50566 66.535742 440.82554 66.45083 433.125 66.4375 C 429.27528 66.432483 425.43262 66.445029 421.59375 66.375 C 419.0345 66.328314 416.48039 66.246051 413.9375 66.09375 C 412.66601 66.017462 411.39062 65.926563 410.125 65.8125 C 408.55781 65.654687 406.9749 65.505084 405.40625 65.375 C 400.70017 64.984335 395.99702 64.712549 391.28125 64.5 C 384.99355 64.216602 378.69922 64.060156 372.40625 63.875 C 366.10368 63.691886 359.82558 63.492027 353.53125 63.15625 C 351.96011 63.072119 350.41383 62.978342 348.84375 62.875 C 345.69354 62.668356 342.55105 62.401789 339.40625 62.09375 C 337.83893 61.940286 336.28438 61.778125 334.71875 61.59375 C 334.76875 51.33125 334.675 41.076563 334.5625 30.8125 C 334.44687 20.546875 334.31875 10.275 334.28125 0 L 306.25 0 z M 393.84375 155.875 C 390.36875 156.975 386.95625 158.14375 383.53125 159.34375 C 388.85625 161.04375 394.2875 162.75625 399.9375 162.53125 C 436.5875 162.38125 473.2875 162.5125 509.9375 162.4375 C 517.6125 162.3875 525.2875 163.0375 532.9375 163.8125 C 530.3625 173.1375 527.5875 182.60625 528.4375 192.40625 C 529.7125 245.18125 530.85 297.91875 531.25 350.71875 C 524.625 351.59375 517.9625 352.2125 511.3125 352.6875 C 524.5375 353.3125 538.025 350.10625 551 353.90625 C 555.7 368.35625 552.7625 383.9875 551.4375 398.8125 C 530.4125 408.7875 506.79375 409.61875 484.21875 413.46875 C 483.64375 415.14375 482.48125 418.48125 481.90625 420.15625 C 483.78125 431.70625 488.2375 442.7625 489.1875 454.4375 C 487.4375 460.4875 481.45 464.8625 475.25 465.4375 C 459 467.9875 442.5875 469.7 426.3125 472.25 C 415.9625 474.4 406.5125 468.2875 396.8125 465.8125 C 392.9125 464.0875 387.58125 463.9625 385.03125 460.1875 C 385.03125 445.4625 385.91875 430.6625 384.84375 415.9375 C 362.34375 414.9125 339.94375 412.5125 317.71875 408.9375 C 314.64375 408.2375 311.8125 406.86875 308.9375 405.71875 C 309.0125 392.96875 310.9875 380.3625 313.0625 367.8125 C 314.3625 363.7375 314.94375 356.34375 320.59375 356.46875 C 340.26875 355.96875 359.83125 353.45 379.40625 351.5 C 385.15625 351.375 388.6 346.125 392.5 342.625 C 398.475 336.075 405.7625 330.53125 410.4375 322.90625 C 414.3625 296.60625 415.2125 269.9 419.1875 243.625 C 420.2625 234.175 430.45 230.3125 438.5 228.5625 C 440.925 260.0875 433.475 291.35625 430.625 322.65625 C 430.3 331.93125 422.025 337.4 416.375 343.625 C 408.875 350.725 402.54375 359.10625 394.21875 365.28125 C 372.71875 367.30625 350.9625 368.0875 329.3125 368.5625 C 328.2125 377.0875 326.75625 385.60625 325.65625 394.15625 C 350.38125 397.58125 375.46875 395.8875 400.21875 398.9375 C 419.84375 402.2625 439.8875 402.525 459.6875 401.375 C 485.3625 398.125 510.91875 393.99375 536.59375 390.84375 C 537.84375 382.89375 538.3875 374.8375 538.5625 366.8125 C 525.8625 366.2375 511.7125 369.76875 500.5625 361.96875 C 487.4375 353.99375 474.225 346.1625 460.875 338.5625 C 462.125 326.2875 457.2625 314.66875 457.1875 302.46875 C 456.7125 285.19375 456.8375 267.89375 456.5625 250.59375 C 457.5375 239.39375 447.2 231.89375 440.75 224.09375 C 429.05 219.79375 420.38125 230.95 412.03125 237.125 C 411.48125 243.125 410.95 249.09375 410.5 255.09375 L 409.28125 256.71875 C 407.28125 277.89375 402.65 298.7625 400.375 319.9375 C 391.95 328.6875 383.55 337.4625 375.375 346.4375 C 361.375 349.3375 346.98125 348.4375 332.90625 350.8125 C 333.60625 292.9875 334.2 235.16875 334.5 177.34375 C 334.65 170.16875 331.8875 163.45625 330.0625 156.65625 C 351.3125 156.13125 372.59375 156.975 393.84375 155.875 z M 439.3125 490.21875 C 442.03418 490.18696 444.7625 490.25937 447.5 490.4375 C 459.475 490.7875 471.41875 491.9125 483.34375 493.1875 C 484.01875 526.3125 483.51875 559.4875 485.34375 592.5625 C 485.56875 628.4375 485.6 664.3125 486.125 700.1875 C 486.3 706.6625 485.525 713.1375 483.875 719.4375 C 468.45 721.1625 453.225 724.6125 437.625 723.3125 C 418.8 725.1625 400.3875 720.875 382.3125 716.25 C 377.8625 709.025 372.6375 701.5375 374.1875 692.5625 C 376.9375 627.7125 380.05 562.8875 382.75 498.0625 C 401.5625 495.30625 420.26074 490.44126 439.3125 490.21875 z M 379.5625 751 C 387.9875 753.25 396.3875 756.0625 405.1875 756.5625 C 420.4875 757.6625 435.73125 760.29375 451.15625 759.84375 C 463.85625 759.94375 476.2125 756.21875 488.9375 756.21875 C 491.5125 831.61875 489.93125 907.1125 490.53125 982.5625 C 490.30625 997.5875 490.98125 1012.6312 490.53125 1027.6562 C 487.70625 1042.5812 488.6875 1057.8625 489.6875 1072.9375 C 495.4125 1091.0125 508.10625 1106.2875 512.53125 1124.9375 C 514.38125 1132.4125 518.175 1140.1875 515.5 1147.9375 C 510.85 1165.5125 501.39375 1183.5563 484.71875 1192.2812 C 474.06875 1199.1313 461.1125 1200.2125 449.4375 1204.5625 C 437.4625 1209.1375 424.79375 1205.1438 412.46875 1205.4688 C 404.54375 1205.3188 396.36875 1206.6625 388.71875 1203.9375 C 380.26875 1201.6875 374.55625 1194.7 368.03125 1189.375 C 357.13125 1181.175 354.6125 1166.7875 350.6875 1154.5625 C 348.9125 1129.7375 365.55625 1108.9125 375.65625 1087.5625 C 379.55625 1076.8125 372.7875 1063.1437 381.5625 1054.2188 C 385.9625 1048.5938 391.55 1043.675 394.375 1037 C 396.025 1030.85 395.75625 1024.4375 396.28125 1018.1875 C 391.30625 1016.2375 386.35 1014.2875 381.375 1012.4375 C 378.425 995.0375 379.0625 977.3625 378.1875 959.8125 C 376.6125 929.0875 376.79375 898.28125 375.96875 867.53125 C 375.91875 845.80625 373.9875 824.1375 374.3125 802.4375 C 374.7375 785.1875 371.0125 766.925 379.5625 751 z "
     transform="scale(0.8,0.8)"
     id="path8" />
  <path
     d="m 458.22,189.76 c 55.08,-28.94 117.56,-43.86 179.82,-41.48 71.64,2.14 142.32,26.88 199.84,69.6 53.54,39.58 95.64,94.5 119.7,156.6 31.94,81 32.46,173.82 1.48,255.2 -26.32,70.38 -75.74,131.84 -138.82,172.66 -68.8,45.16 -153.64,64.94 -235.32,55.2 -55.86,-6.26 -110.04,-26.34 -156.78,-57.52 -2.6,-2.04 -6.22,-3.36 -7.76,-6.4 -1.68,-11.9 2.62,-23.58 1.72,-35.5 0.58,-22.02 -1.5,-44.22 1.82,-66.08 0.3,-5.42 0.18,-10.86 0.2,-16.26 42.74,51.48 105.62,85.8 172.16,93.3 79.44,10.14 162.88,-18.7 218.96,-75.92 55.5,-54.44 84.28,-134.6 76.6,-211.9 C 886.32,418.44 857.2,358.02 811.54,314.5 769.76,273.96 714.14,248.1 656.26,241.92 619.62,238.3 582.1,241.5 547.02,253 c -6.82,2.2 -13.56,5.42 -20.9,5.04 -22.04,-0.12 -44.06,-0.14 -66.08,-0.12 -1.1,-5.22 -1.86,-10.5 -1.78,-15.84 0.06,-17.44 -0.6,-34.88 -0.04,-52.32 z"
     id="path14"
     inkscape:connector-curvature="0"
     style="fill:#f5e5c1" />
  <path
     style="fill:#f5e5c1"
     d="M 858.375 369.8125 C 859.125 384.3625 856.5125 402.23125 842.5625 410.03125 C 831.0625 414.78125 818.2375 411.11875 806.3125 413.84375 C 741.7375 419.44375 677.05 423.98125 612.5 430.03125 C 605.575 430.85625 596.9875 428.14375 591.8125 434.21875 C 568.9875 456.39375 550.025 482.5375 535.875 511.0625 C 533.575 515.3375 532.4875 520.1875 532.5625 525.0625 C 532.5875 584.2625 532.7375 643.45 532.6875 702.625 C 532.0625 708.8 536.04375 713.8375 538.09375 719.3125 C 543.99375 734.1375 534.8875 751.8375 544.6875 765.4375 C 576.1125 819.8375 626.625 863.1375 685.75 884.6875 C 733.125 902.4875 785.575 906.275 835.125 896.125 C 898.35 883.3 956.5875 847.0625 995.6875 795.6875 C 1031.8875 748.7375 1052.575 689.55625 1051.75 630.15625 C 1052.575 578.43125 1036.925 526.85 1009.125 483.375 C 974.625 429.1 920.1 387.9375 858.375 369.8125 z M 780.46875 465.34375 C 811.88647 465.03978 843.41562 473.19688 870.1875 489.8125 C 908.6875 512.7375 936.83125 551.8875 947.03125 595.4375 C 955.95625 631.4625 951.75 670.275 936.5 704 C 910.25 762.85 847.66875 805.125 782.59375 802.375 C 707.86875 805.7 637.2875 749.675 619.1875 677.875 C 606.0125 630.8 615.53125 578.3375 643.40625 538.3125 C 669.55625 499.7125 712.6625 473.30625 758.8125 466.90625 C 765.99375 465.93594 773.21851 465.4139 780.46875 465.34375 z "
     transform="scale(0.8,0.8)"
     id="path16" />
  <path
     d="m 343.24,339.42 c 9.8,-0.82 19.68,-1.5 29.48,-0.32 0.18,7.14 0.92,14.24 1.66,21.32 -1.36,2.68 -4.44,2.64 -7,3.12 -8.34,1.14 -16.68,2.14 -25.02,3.28 0.28,-9.14 0.82,-18.26 0.88,-27.4 z"
     id="path18"
     inkscape:connector-curvature="0"
     style="fill:#f5e5c1" />
  <path
     d="m 346.42,397.78 c 10.36,-0.16 20.72,-0.32 31.08,-0.86 1.66,8.34 -0.2,16.78 0.6,25.18 0.66,15.3 0.44,30.64 -0.48,45.94 1.9,32.42 1.2,64.96 3.22,97.4 -10.88,3.12 -22.36,1.88 -33.54,1.64 0.64,-27.78 -2.54,-55.42 -1.58,-83.18 1.52,-28.66 -0.4,-57.44 0.7,-86.12 z"
     id="path24"
     inkscape:connector-curvature="0"
     style="fill:#f5e5c1" />
  <path
     d="m 610.6,408.84 c 23.1,-3.42 47.42,0.8 67.28,13.36 28.38,17.32 47.44,50.28 45.54,83.82 2.66,48.78 -39.32,94.28 -87.8,97.04 -12.58,0.16 -25.46,0.84 -37.58,-3.2 -40.98,-11.36 -72.34,-52.52 -69.46,-95.42 -2.04,-46.54 36.26,-89.66 82.02,-95.6 z"
     id="path26"
     inkscape:connector-curvature="0"
     style="fill:#f4722b" />
  <path
     d="m 348.7,624.38 c 8.26,-2.14 16.62,-3.92 24.9,-5.92 -0.42,41.88 1.98,83.7 1.96,125.58 0.04,22.98 0.28,45.94 0.2,68.92 -10.62,-1.44 -21.46,-1.08 -31.9,-3.64 -0.88,-13.74 -1.92,-27.5 -1.94,-41.26 1.48,-12.46 1,-25.02 1.76,-37.52 1.86,-16.86 0.74,-33.88 2.64,-50.74 0.78,-18.48 0.58,-37 2.38,-55.42 z"
     id="path30"
     inkscape:connector-curvature="0"
     style="fill:#f5e5c1" />
  <path
     d="m 365.34,831.24 c 4.44,-1.28 9.04,-0.78 13.5,0.12 0.6,9.48 0.64,19 0.74,28.5 -0.3,9.2 5.68,16.92 7.02,25.82 1.62,7.38 1.06,15.6 5.64,22.02 2.48,4.74 6.46,9.84 4.84,15.5 -3.54,13.54 -17.64,20.44 -29.94,24.28 -11.46,4.08 -23.68,1.68 -35.26,-0.4 3.32,-26.92 5,-53.98 5.86,-81.08 0.9,-10.56 0.62,-21.32 3.62,-31.58 7.72,-2.82 16.1,-0.96 23.98,-3.18 z"
     id="path32"
     inkscape:connector-curvature="0"
     style="fill:#f5e5c1" />
</svg>
