<?xml version="1.0" encoding="UTF-8" ?>
<!DOCTYPE svg PUBLIC "-//W3C//DTD SVG 1.1//EN" "http://www.w3.org/Graphics/SVG/1.1/DTD/svg11.dtd">
<svg width="512pt" height="512pt" viewBox="0 0 512 512" version="1.1" xmlns="http://www.w3.org/2000/svg">
<path fill="#3e3e3e" opacity="1.00" d=" M 0.00 0.00 L 512.00 0.00 L 512.00 512.00 L 0.00 512.00 L 0.00 0.00 Z" />
<path fill="#f5e5c1" opacity="1.00" d=" M 253.76 18.76 C 263.84 11.56 277.07 8.94 289.12 11.82 C 302.21 14.54 313.71 23.59 319.70 35.50 C 328.31 52.06 325.35 74.10 311.85 87.18 C 310.68 82.46 308.71 77.93 307.89 73.14 C 310.35 67.72 312.75 62.05 312.48 55.95 C 312.64 41.84 302.75 28.37 289.20 24.38 C 274.60 19.45 257.28 26.76 250.28 40.41 C 243.68 52.28 245.70 68.12 254.93 78.04 C 258.29 81.94 262.76 84.59 267.30 86.89 C 267.58 87.90 267.87 88.91 268.17 89.91 C 269.17 93.27 270.20 96.61 271.06 100.01 C 250.55 97.21 234.35 77.50 234.33 56.99 C 233.63 42.01 241.43 27.16 253.76 18.76 Z" />
<path fill="#f4722b" opacity="1.00" d=" M 133.75 30.68 C 136.71 26.04 143.59 27.78 146.35 31.73 C 150.65 37.58 149.59 45.33 148.39 52.02 C 145.56 66.61 136.99 79.29 126.41 89.45 C 121.45 93.68 118.47 99.70 116.83 105.91 C 116.79 114.07 118.99 122.41 124.02 128.95 C 119.03 123.93 113.37 119.08 110.64 112.37 C 107.50 103.59 110.78 94.02 115.39 86.40 C 119.65 77.69 122.27 68.17 122.49 58.45 C 123.81 63.60 124.72 68.84 125.12 74.14 C 128.73 68.67 130.03 62.18 131.93 56.02 C 134.24 47.72 129.26 38.55 133.75 30.68 Z" />
<path fill="#f4722b" opacity="1.00" d=" M 93.45 39.70 C 97.09 37.37 101.93 39.85 103.48 43.55 C 107.42 52.28 103.33 61.95 105.80 70.96 C 100.28 64.47 94.30 58.12 90.86 50.20 C 89.71 46.65 89.83 41.80 93.45 39.70 Z" />
<path fill="#f5e5c1" opacity="1.00" d=" M 258.33 49.98 C 270.72 46.91 282.75 42.49 295.12 39.31 C 295.58 41.23 296.09 43.15 296.59 45.08 C 284.20 48.41 272.07 52.68 259.65 55.88 C 259.14 53.93 258.65 51.97 258.33 49.98 Z" />
<path fill="#f5e5c1" opacity="1.00" d=" M 292.92 49.12 C 294.45 48.65 296.02 48.21 297.64 48.31 C 299.84 54.94 301.53 61.74 303.78 68.36 C 291.55 72.34 279.16 75.83 266.86 79.58 C 265.09 72.57 262.25 65.85 261.05 58.70 C 271.70 55.59 282.32 52.39 292.92 49.12 Z" />
<path fill="#f5e5c1" opacity="1.00" d=" M 274.24 82.92 C 282.66 80.54 291.07 78.07 299.38 75.34 C 302.37 84.55 305.16 93.83 307.79 103.14 C 299.17 104.80 290.69 107.28 282.60 110.67 C 279.62 101.49 276.90 92.21 274.24 82.92 Z" />
<path fill="#f5e5c1" opacity="1.00" d=" M 253.47 132.52 C 276.63 117.61 303.56 108.77 330.99 106.55 C 338.96 106.21 346.96 106.26 354.94 106.53 C 387.01 108.74 418.36 120.57 443.83 140.19 C 477.38 165.64 500.25 204.45 506.70 246.02 C 510.30 269.23 509.20 293.29 502.81 315.93 C 493.29 351.07 471.62 382.72 442.39 404.40 C 406.45 431.45 359.23 442.75 314.93 435.11 C 269.11 427.27 226.81 399.29 202.77 359.37 C 202.40 354.89 204.86 350.56 205.29 346.07 C 206.05 337.49 211.05 329.72 210.46 320.97 C 210.33 318.26 211.15 315.65 211.84 313.06 C 217.55 333.00 228.65 351.21 242.66 366.40 C 267.36 392.74 302.79 408.84 338.93 409.61 C 376.37 410.90 414.11 396.07 440.55 369.49 C 464.83 345.47 479.67 312.12 480.94 277.96 C 482.79 237.70 466.11 196.85 436.10 169.83 C 414.51 149.94 386.29 137.40 357.10 134.53 C 337.45 132.31 317.40 134.99 298.70 141.27 C 268.51 151.34 242.18 172.38 225.60 199.54 C 215.15 216.64 208.11 236.02 206.21 256.02 C 204.02 252.50 200.95 249.41 199.89 245.30 C 196.74 233.70 194.14 221.96 191.09 210.34 C 190.70 208.81 190.47 207.15 191.22 205.70 C 204.05 175.82 226.13 150.07 253.47 132.52 Z" />
<path fill="#f5e5c1" opacity="1.00" d=" M 104.34 127.92 C 106.46 128.70 108.28 130.04 109.96 131.52 C 110.69 131.46 112.14 131.34 112.86 131.28 C 115.85 134.57 120.43 136.39 124.85 135.43 C 127.70 133.88 130.00 131.19 133.45 130.94 C 133.46 133.96 133.49 136.98 133.56 140.00 C 136.21 140.70 140.28 144.80 142.25 141.13 C 147.69 142.74 152.62 145.78 157.46 148.70 C 157.43 149.34 157.39 150.64 157.36 151.29 C 161.65 153.57 166.13 155.45 170.43 157.70 C 173.42 159.23 174.27 162.75 175.76 165.49 C 180.46 174.00 180.44 184.10 184.15 192.98 C 184.54 194.28 185.41 195.52 185.25 196.93 C 184.28 198.93 181.85 200.60 182.77 203.10 C 185.02 214.59 186.35 226.30 189.50 237.60 C 191.56 242.61 194.73 247.04 197.22 251.82 C 198.54 255.37 198.38 259.22 198.97 262.91 C 200.89 276.22 201.70 289.69 204.39 302.88 C 205.09 309.45 207.36 315.97 206.68 322.60 C 204.79 324.99 202.52 327.05 200.61 329.44 C 200.57 330.73 200.53 332.03 200.50 333.34 C 197.90 335.53 194.74 337.32 193.29 340.55 C 192.21 342.99 190.46 345.00 188.05 346.19 C 187.16 345.87 186.27 345.56 185.38 345.26 C 184.70 341.50 187.04 338.48 188.26 335.17 C 188.21 331.23 186.65 327.47 185.08 323.92 C 183.86 327.07 182.22 330.04 180.03 332.62 C 179.33 332.64 177.93 332.69 177.23 332.71 C 178.16 329.55 178.93 326.30 178.40 323.00 C 177.67 319.66 179.77 316.85 181.04 313.96 C 183.30 309.35 183.99 303.94 187.65 300.09 C 187.53 294.62 185.80 289.37 185.18 283.96 C 182.63 276.64 177.93 269.92 177.60 261.97 C 176.87 254.63 176.22 247.28 175.25 239.97 C 170.86 230.56 168.28 220.46 165.17 210.59 C 164.54 210.58 163.27 210.56 162.64 210.54 C 161.74 208.22 160.93 205.87 160.20 203.50 C 159.83 203.46 159.08 203.39 158.71 203.35 C 157.47 207.29 156.37 211.29 154.61 215.03 C 154.08 218.68 154.30 222.38 154.83 226.02 C 155.86 230.90 155.98 235.91 156.78 240.83 C 157.25 243.26 160.27 244.52 160.38 247.02 C 159.49 248.70 158.35 250.23 157.54 251.94 C 157.18 255.74 157.82 259.55 158.62 263.26 C 158.91 263.71 159.50 264.61 159.79 265.06 C 160.33 273.73 161.11 282.42 162.18 291.03 C 162.38 293.46 162.45 295.91 162.50 298.36 C 163.45 299.20 164.39 300.06 165.34 300.91 C 165.56 306.94 165.34 313.00 166.15 318.99 C 166.70 323.98 166.28 329.03 167.05 334.01 C 167.78 338.99 167.02 344.09 168.14 349.02 C 168.53 355.34 168.68 361.67 168.75 368.00 C 168.88 372.88 166.88 377.43 165.56 382.04 C 167.64 385.73 169.95 389.33 171.60 393.24 C 171.89 396.46 169.73 399.25 168.36 402.00 C 168.92 404.25 170.64 406.21 170.57 408.59 C 169.09 409.47 167.52 410.17 165.95 410.88 C 165.59 411.30 164.88 412.16 164.52 412.58 C 164.22 421.05 164.73 429.56 163.70 437.99 C 163.64 444.64 162.92 451.38 164.27 457.95 C 164.90 461.22 164.62 464.56 164.50 467.87 C 166.96 472.22 170.56 475.86 172.89 480.32 C 176.70 481.72 180.54 483.10 184.54 483.92 C 184.96 488.78 184.23 493.63 184.34 498.50 C 176.20 498.65 168.06 498.64 159.92 498.50 C 158.90 496.56 157.88 494.62 156.94 492.65 C 153.48 492.23 149.99 492.24 146.51 492.40 C 146.09 485.31 147.52 478.08 145.67 471.13 C 145.44 470.04 145.33 468.94 145.22 467.85 C 145.79 467.41 146.94 466.51 147.52 466.06 C 147.08 452.99 147.69 439.68 144.16 426.97 C 142.63 421.38 141.74 415.63 139.97 410.12 C 137.37 407.87 134.09 406.56 131.37 404.43 C 133.39 398.36 134.33 391.99 136.42 385.93 C 135.02 383.24 133.39 380.63 132.44 377.73 C 132.73 374.82 134.48 372.07 133.64 369.04 C 131.41 356.93 128.54 344.93 126.18 332.84 C 122.07 329.86 116.53 331.42 113.72 335.39 C 113.51 338.97 112.73 342.48 112.04 345.99 C 111.63 347.98 111.37 349.99 111.08 352.00 C 110.67 353.98 110.31 355.98 109.88 357.97 C 109.65 362.42 108.29 366.68 107.50 371.04 C 106.79 373.61 109.02 375.60 109.40 378.02 C 108.29 380.84 106.49 383.35 105.52 386.23 C 106.22 392.90 109.60 399.14 109.58 405.93 C 106.92 407.19 104.37 408.65 101.78 410.06 C 99.13 419.95 96.72 429.94 94.87 440.02 C 94.21 448.33 94.68 456.70 94.31 465.04 C 94.04 466.82 95.67 467.88 96.63 469.12 C 96.08 472.45 94.57 475.60 94.60 479.02 C 94.38 483.54 95.43 487.99 95.53 492.50 C 92.16 492.55 88.79 492.55 85.42 492.58 C 84.16 494.50 83.01 496.48 81.97 498.52 C 73.78 498.81 65.59 498.61 57.40 498.64 C 57.72 494.00 56.34 489.49 56.45 484.86 C 60.72 483.51 65.15 482.51 69.13 480.41 C 71.31 475.99 74.57 472.24 77.50 468.32 C 77.47 468.01 77.41 467.38 77.37 467.07 C 75.51 464.29 77.26 460.98 77.46 457.99 C 78.61 452.14 78.44 446.16 77.76 440.27 C 77.46 431.34 77.40 422.39 77.38 413.46 C 75.76 411.36 73.45 410.07 71.05 409.05 C 71.87 406.58 73.34 404.40 74.43 402.05 C 74.48 400.03 73.21 398.30 72.45 396.53 C 70.29 392.52 69.41 388.00 67.55 383.86 C 69.77 380.68 73.15 377.28 72.07 373.03 C 70.15 360.37 72.45 347.66 72.83 334.98 C 73.99 322.73 74.76 310.42 75.68 298.13 C 77.49 296.41 79.01 294.43 80.30 292.30 C 80.35 285.87 80.24 279.40 81.25 273.04 C 81.67 269.69 79.20 266.08 81.37 263.01 C 81.57 259.17 81.58 255.33 81.60 251.49 C 79.58 249.80 77.46 248.22 75.21 246.86 C 75.44 245.92 75.43 244.88 76.02 244.08 C 78.55 240.27 81.30 236.62 84.13 233.03 C 86.00 230.74 85.21 227.52 85.93 224.83 C 87.41 217.24 83.46 210.24 81.43 203.18 C 81.03 203.29 80.24 203.53 79.84 203.65 C 79.21 206.02 78.43 208.35 77.49 210.63 C 76.86 210.62 75.60 210.60 74.97 210.59 C 71.87 220.50 69.15 230.55 65.04 240.11 C 63.41 248.88 63.19 257.87 62.06 266.71 C 60.50 271.64 58.11 276.26 56.08 281.01 C 54.25 287.27 52.70 293.73 52.51 300.28 C 54.19 302.23 55.84 304.31 56.42 306.89 C 57.74 311.80 60.32 316.21 62.28 320.87 C 61.11 324.95 61.66 329.07 62.85 333.09 C 59.87 332.89 58.26 330.38 56.80 328.15 C 56.31 326.62 55.69 325.14 55.02 323.70 C 52.78 328.50 50.83 334.49 53.72 339.44 C 54.88 341.35 54.61 343.63 54.65 345.77 C 53.70 345.69 51.79 345.52 50.84 345.44 C 48.40 344.41 47.67 341.57 46.30 339.53 C 44.98 337.00 42.20 335.82 40.42 333.70 C 39.55 331.73 39.29 329.52 38.20 327.64 C 36.90 325.76 35.03 324.40 33.25 323.00 C 32.75 317.93 34.13 312.98 34.90 308.01 C 36.18 301.38 37.23 294.71 38.14 288.03 C 39.07 280.02 39.94 271.99 41.13 264.03 C 41.68 259.50 41.33 254.63 43.64 250.53 C 46.12 246.08 49.07 241.84 50.85 237.04 C 51.76 233.75 52.25 230.36 53.19 227.07 C 54.63 218.35 56.35 209.67 57.59 200.92 C 54.98 198.53 54.94 195.09 56.04 191.97 C 58.22 184.33 59.48 176.28 63.12 169.17 C 66.20 164.79 68.10 158.99 73.26 156.59 C 83.42 151.27 93.56 145.91 103.62 140.41 C 104.71 136.32 104.23 132.09 104.34 127.92 Z" />
<path fill="#f4722b" opacity="1.00" d=" M 324.20 145.99 C 327.48 145.66 330.78 145.47 334.08 145.42 C 337.08 163.67 340.64 181.83 343.87 200.03 C 344.34 203.32 345.81 206.71 344.53 210.00 C 340.18 223.99 335.80 237.97 331.56 252.00 C 331.04 253.61 330.37 255.18 329.69 256.73 C 328.31 228.48 326.44 200.25 325.11 172.00 C 324.30 163.36 324.12 154.66 324.20 145.99 Z" />
<path fill="#f5e5c1" opacity="1.00" d=" M 301.37 149.07 C 304.46 148.48 307.49 147.57 310.44 146.46 C 312.44 151.63 313.67 157.05 315.46 162.29 C 315.76 163.47 316.37 164.66 316.17 165.91 C 313.13 167.03 309.99 167.86 306.88 168.77 C 305.23 162.15 302.74 155.76 301.37 149.07 Z" />
<path fill="#f5e5c1" opacity="1.00" d=" M 367.85 147.10 C 371.20 147.41 374.49 148.17 377.78 148.86 C 374.80 170.00 370.65 190.97 367.28 212.06 C 363.57 233.63 359.89 255.21 356.25 276.79 C 347.87 274.96 339.60 272.65 331.17 271.10 C 331.31 266.85 333.09 262.94 334.19 258.89 C 345.36 221.61 356.91 184.44 367.85 147.10 Z" />
<path fill="#f5e5c1" opacity="1.00" d=" M 391.19 172.35 C 394.45 166.75 397.28 160.91 400.62 155.37 C 403.31 157.12 406.14 158.64 409.05 160.01 C 406.24 165.76 403.00 171.28 400.08 176.97 C 397.11 175.43 394.17 173.86 391.19 172.35 Z" />
<path fill="#f5e5c1" opacity="1.00" d=" M 227.02 215.06 C 228.32 211.94 229.94 208.96 231.73 206.10 C 237.77 209.62 243.97 212.88 250.21 216.06 C 248.81 218.98 247.31 221.86 245.93 224.81 C 239.38 222.07 233.46 218.05 227.02 215.06 Z" />
<path fill="#f5e5c1" opacity="1.00" d=" M 448.33 234.95 C 454.41 233.23 460.51 231.51 466.48 229.43 C 467.69 232.60 468.66 235.85 469.56 239.12 C 463.30 240.68 457.22 242.86 450.99 244.51 C 450.28 241.27 449.30 238.11 448.33 234.95 Z" />
<path fill="#f5e5c1" opacity="1.00" d=" M 303.55 279.97 C 299.73 263.75 307.31 245.05 322.08 236.98 C 322.39 241.00 322.66 245.03 323.41 249.00 C 317.21 254.94 313.26 263.38 313.64 272.05 C 314.15 279.29 317.08 286.52 322.39 291.56 C 328.90 298.24 338.87 301.35 348.02 299.57 C 357.14 298.10 365.24 291.78 369.19 283.46 C 373.99 273.43 372.35 260.96 365.55 252.24 C 366.76 248.18 367.64 244.05 368.70 239.96 C 378.00 247.81 383.64 259.82 383.43 272.01 C 383.11 282.26 378.96 292.46 371.58 299.66 C 363.49 308.06 351.53 312.39 339.93 311.49 C 322.62 310.47 307.09 296.93 303.55 279.97 Z" />
<path fill="#f5e5c1" opacity="1.00" d=" M 218.97 303.88 C 225.47 302.16 231.86 300.03 238.33 298.18 C 239.31 301.43 240.43 304.66 240.78 308.06 C 234.29 309.48 227.99 311.63 221.65 313.60 C 220.60 310.40 219.61 307.19 218.97 303.88 Z" />
<path fill="#f5e5c1" opacity="1.00" d=" M 443.40 320.13 C 448.89 322.91 454.23 325.96 459.68 328.84 C 458.00 331.72 456.39 334.64 454.78 337.55 C 449.61 334.53 444.32 331.70 438.93 329.07 C 440.14 325.95 441.80 323.05 443.40 320.13 Z" />
<path fill="#f5e5c1" opacity="1.00" d=" M 280.41 378.46 C 282.94 374.10 285.05 369.52 287.70 365.23 C 290.36 367.02 293.16 368.59 296.06 369.97 C 293.40 376.00 289.71 381.50 286.99 387.50 C 286.60 387.56 285.82 387.68 285.43 387.73 C 283.08 386.32 280.66 385.02 278.14 383.93 C 278.54 381.97 279.40 380.16 280.41 378.46 Z" />
<path fill="#f5e5c1" opacity="1.00" d=" M 370.11 378.61 C 373.36 377.65 376.61 376.58 380.00 376.25 C 381.10 382.61 384.21 388.50 384.70 394.96 C 381.65 395.50 378.66 396.37 375.77 397.49 C 373.87 391.20 371.91 384.93 370.11 378.61 Z" />
</svg>
