<?xml version="1.0" encoding="UTF-8" ?>
<!DOCTYPE svg PUBLIC "-//W3C//DTD SVG 1.1//EN" "http://www.w3.org/Graphics/SVG/1.1/DTD/svg11.dtd">
<svg width="512pt" height="512pt" viewBox="0 0 512 512" version="1.1" xmlns="http://www.w3.org/2000/svg">
<path fill="#f4722b" opacity="1.00" d=" M 0.00 0.00 L 26.02 0.00 C 41.32 15.06 56.56 30.19 72.35 44.73 C 84.27 56.12 96.41 67.27 108.23 78.77 C 149.56 119.76 190.83 160.83 232.05 201.94 C 235.04 205.29 240.08 205.57 242.95 209.05 C 249.85 216.48 256.34 224.30 263.85 231.13 C 267.90 234.75 271.17 239.12 275.01 242.94 C 277.18 245.33 280.82 244.89 283.35 246.63 C 285.32 250.54 286.73 254.83 290.04 257.90 C 292.48 261.41 297.45 261.69 299.75 265.29 C 303.25 270.36 308.00 274.34 312.35 278.65 C 319.32 284.96 326.03 291.56 332.60 298.29 C 350.78 280.93 368.77 263.36 386.47 245.50 C 387.81 244.29 389.07 242.75 390.89 242.29 C 393.84 244.13 396.83 246.31 398.61 249.37 C 399.57 250.85 398.12 252.09 397.34 253.24 C 381.06 272.34 364.95 291.60 348.71 310.73 C 345.67 314.68 342.35 318.52 340.18 323.03 C 342.46 327.94 348.80 330.39 349.42 336.37 C 350.01 336.16 351.19 335.74 351.78 335.53 C 357.94 341.27 364.07 347.04 370.01 352.99 C 379.32 362.26 389.64 370.56 398.09 380.65 C 399.65 380.84 401.25 380.92 402.80 381.33 C 404.39 382.53 405.54 384.20 406.78 385.74 C 406.83 387.50 406.84 389.28 407.10 391.04 C 409.79 392.98 413.27 393.82 415.36 396.56 C 421.78 404.13 429.12 410.84 435.67 418.30 C 441.45 424.86 448.09 430.62 453.60 437.42 C 456.55 442.03 460.59 445.75 465.05 448.86 C 469.60 452.23 475.87 452.01 480.26 455.65 C 485.22 459.70 489.10 465.11 491.39 471.09 C 492.11 476.31 492.19 481.75 490.95 486.90 C 489.99 491.07 486.36 493.69 483.56 496.62 C 479.44 501.07 473.58 503.23 467.96 505.08 C 463.40 505.68 458.13 505.47 454.44 502.38 C 452.07 500.56 449.53 498.85 447.62 496.54 C 444.90 491.33 444.86 485.13 442.03 479.98 C 438.94 475.96 433.98 473.19 433.04 467.80 C 429.13 465.16 425.46 462.19 422.07 458.92 C 408.90 447.07 395.78 435.15 382.53 423.40 C 379.50 420.90 378.83 416.88 377.20 413.52 C 375.93 411.30 373.88 409.69 372.08 407.92 C 369.61 407.27 366.79 406.99 365.03 404.93 C 352.66 391.02 340.06 377.30 327.65 363.43 C 326.41 361.96 325.64 360.18 324.81 358.47 C 323.80 358.39 322.78 358.31 321.77 358.24 C 319.28 355.30 316.86 352.30 314.47 349.28 C 293.86 366.03 273.45 383.04 253.17 400.20 C 249.40 403.05 246.24 406.80 242.02 408.97 C 238.26 407.25 234.34 404.43 233.20 400.25 C 250.60 385.01 266.32 367.98 282.91 351.87 C 284.93 350.11 286.10 347.69 286.77 345.13 C 273.46 332.82 260.81 319.83 247.85 307.17 C 229.51 289.52 211.42 271.62 193.33 253.72 C 193.43 252.05 193.54 250.39 193.65 248.73 C 167.67 222.58 141.02 197.10 114.55 171.45 C 76.40 134.43 38.08 97.59 0.00 60.51 L 0.00 40.93 C 39.20 81.08 78.75 120.90 118.09 160.92 C 143.72 186.88 169.52 212.67 195.12 238.67 C 201.34 238.90 204.80 233.37 208.85 229.64 C 208.44 226.00 208.99 221.74 206.24 218.87 C 171.87 183.88 137.19 149.18 102.61 114.40 C 78.83 89.87 54.55 65.81 30.50 41.53 C 20.67 30.80 10.10 20.79 0.00 10.32 L 0.00 0.00 Z" />
<path fill="#3e3e3e" opacity="1.00" d=" M 26.02 0.00 L 404.29 0.00 C 402.57 1.50 400.81 3.05 399.67 5.06 C 399.28 7.04 399.71 9.06 399.94 11.04 C 401.13 18.88 401.91 26.84 404.29 34.45 C 409.12 51.79 414.30 69.04 418.73 86.48 C 419.86 98.27 420.19 110.14 420.78 121.97 C 421.05 125.64 421.69 129.33 421.27 133.01 C 419.41 137.26 416.28 140.83 413.72 144.66 C 409.73 150.71 400.34 150.72 398.02 158.22 C 381.35 162.49 364.60 166.40 347.95 170.70 C 343.10 172.19 338.15 170.39 333.28 170.00 C 332.15 172.93 331.98 177.09 328.54 178.31 C 323.19 180.00 317.55 180.46 312.09 181.68 C 306.02 183.05 299.81 183.57 293.60 183.57 C 296.55 185.20 299.70 186.52 302.42 188.53 C 304.17 192.65 298.73 194.89 296.87 197.91 C 293.70 203.47 296.03 210.87 292.21 216.24 C 290.17 219.29 287.98 222.25 285.98 225.33 C 293.27 226.19 300.59 227.20 307.94 227.44 C 316.40 226.52 324.68 224.34 333.05 222.81 C 336.40 221.97 338.95 225.02 342.01 225.81 C 346.87 225.04 350.86 221.62 355.79 221.02 C 372.16 218.50 388.55 216.11 404.92 213.59 C 407.41 212.93 409.67 214.23 411.86 215.22 C 416.71 217.73 422.89 215.11 427.42 218.59 C 429.94 221.61 431.56 225.26 433.72 228.53 C 435.78 231.82 438.04 235.14 438.63 239.06 C 442.94 261.01 447.74 282.86 451.84 304.85 L 452.12 304.24 C 453.47 313.55 455.77 322.70 457.49 331.95 C 459.96 342.90 460.86 354.76 467.77 364.10 C 471.03 361.38 475.11 358.57 475.56 353.96 C 476.77 346.01 478.87 338.12 478.64 330.02 C 478.33 311.99 478.32 293.94 476.69 275.97 C 475.46 261.51 474.25 247.05 473.06 232.58 C 472.25 224.72 472.20 216.81 472.39 208.92 C 475.48 208.60 479.85 208.92 481.09 205.26 C 481.62 201.16 480.52 197.05 480.25 192.96 C 478.79 181.98 478.04 170.90 476.28 159.97 C 474.02 152.24 470.95 144.76 468.22 137.18 C 464.99 137.96 461.78 138.77 458.55 139.49 C 456.07 127.17 456.14 114.55 455.02 102.08 C 454.45 96.75 454.85 91.25 453.14 86.09 C 447.59 68.47 442.30 50.76 437.04 33.05 C 433.21 21.99 429.06 11.05 425.19 0.00 L 512.00 0.00 L 512.00 512.00 L 0.00 512.00 L 0.00 60.51 C 38.08 97.59 76.40 134.43 114.55 171.45 C 141.02 197.10 167.67 222.58 193.65 248.73 C 193.54 250.39 193.43 252.05 193.33 253.72 C 211.42 271.62 229.51 289.52 247.85 307.17 C 260.81 319.83 273.46 332.82 286.77 345.13 C 286.10 347.69 284.93 350.11 282.91 351.87 C 266.32 367.98 250.60 385.01 233.20 400.25 C 234.34 404.43 238.26 407.25 242.02 408.97 C 246.24 406.80 249.40 403.05 253.17 400.20 C 273.45 383.04 293.86 366.03 314.47 349.28 C 316.86 352.30 319.28 355.30 321.77 358.24 C 322.78 358.31 323.80 358.39 324.81 358.47 C 325.64 360.18 326.41 361.96 327.65 363.43 C 340.06 377.30 352.66 391.02 365.03 404.93 C 366.79 406.99 369.61 407.27 372.08 407.92 C 373.88 409.69 375.93 411.30 377.20 413.52 C 378.83 416.88 379.50 420.90 382.53 423.40 C 395.78 435.15 408.90 447.07 422.07 458.92 C 425.46 462.19 429.13 465.16 433.04 467.80 C 433.98 473.19 438.94 475.96 442.03 479.98 C 444.86 485.13 444.90 491.33 447.62 496.54 C 449.53 498.85 452.07 500.56 454.44 502.38 C 458.13 505.47 463.40 505.68 467.96 505.08 C 473.58 503.23 479.44 501.07 483.56 496.62 C 486.36 493.69 489.99 491.07 490.95 486.90 C 492.19 481.75 492.11 476.31 491.39 471.09 C 489.10 465.11 485.22 459.70 480.26 455.65 C 475.87 452.01 469.60 452.23 465.05 448.86 C 460.59 445.75 456.55 442.03 453.60 437.42 C 448.09 430.62 441.45 424.86 435.67 418.30 C 429.12 410.84 421.78 404.13 415.36 396.56 C 413.27 393.82 409.79 392.98 407.10 391.04 C 406.84 389.28 406.83 387.50 406.78 385.74 C 405.54 384.20 404.39 382.53 402.80 381.33 C 401.25 380.92 399.65 380.84 398.09 380.65 C 389.64 370.56 379.32 362.26 370.01 352.99 C 364.07 347.04 357.94 341.27 351.78 335.53 C 351.19 335.74 350.01 336.16 349.42 336.37 C 348.80 330.39 342.46 327.94 340.18 323.03 C 342.35 318.52 345.67 314.68 348.71 310.73 C 364.95 291.60 381.06 272.34 397.34 253.24 C 398.12 252.09 399.57 250.85 398.61 249.37 C 396.83 246.31 393.84 244.13 390.89 242.29 C 389.07 242.75 387.81 244.29 386.47 245.50 C 368.77 263.36 350.78 280.93 332.60 298.29 C 326.03 291.56 319.32 284.96 312.35 278.65 C 308.00 274.34 303.25 270.36 299.75 265.29 C 297.45 261.69 292.48 261.41 290.04 257.90 C 286.73 254.83 285.32 250.54 283.35 246.63 C 280.82 244.89 277.18 245.33 275.01 242.94 C 271.17 239.12 267.90 234.75 263.85 231.13 C 256.34 224.30 249.85 216.48 242.95 209.05 C 240.08 205.57 235.04 205.29 232.05 201.94 C 190.83 160.83 149.56 119.76 108.23 78.77 C 96.41 67.27 84.27 56.12 72.35 44.73 C 56.56 30.19 41.32 15.06 26.02 0.00 Z" />
<path fill="#f5e5c1" opacity="1.00" d=" M 404.29 0.00 L 425.19 0.00 C 429.06 11.05 433.21 21.99 437.04 33.05 C 442.30 50.76 447.59 68.47 453.14 86.09 C 454.85 91.25 454.45 96.75 455.02 102.08 C 456.14 114.55 456.07 127.17 458.55 139.49 C 461.78 138.77 464.99 137.96 468.22 137.18 C 470.95 144.76 474.02 152.24 476.28 159.97 C 478.04 170.90 478.79 181.98 480.25 192.96 C 480.52 197.05 481.62 201.16 481.09 205.26 C 479.85 208.92 475.48 208.60 472.39 208.92 C 472.20 216.81 472.25 224.72 473.06 232.58 C 474.25 247.05 475.46 261.51 476.69 275.97 C 478.32 293.94 478.33 311.99 478.64 330.02 C 478.87 338.12 476.77 346.01 475.56 353.96 C 475.11 358.57 471.03 361.38 467.77 364.10 C 460.86 354.76 459.96 342.90 457.49 331.95 C 455.77 322.70 453.47 313.55 452.12 304.24 L 451.84 304.85 C 447.74 282.86 442.94 261.01 438.63 239.06 C 438.04 235.14 435.78 231.82 433.72 228.53 C 431.56 225.26 429.94 221.61 427.42 218.59 C 422.89 215.11 416.71 217.73 411.86 215.22 C 409.67 214.23 407.41 212.93 404.92 213.59 C 388.55 216.11 372.16 218.50 355.79 221.02 C 350.86 221.62 346.87 225.04 342.01 225.81 C 338.95 225.02 336.40 221.97 333.05 222.81 C 324.68 224.34 316.40 226.52 307.94 227.44 C 300.59 227.20 293.27 226.19 285.98 225.33 C 287.98 222.25 290.17 219.29 292.21 216.24 C 296.03 210.87 293.70 203.47 296.87 197.91 C 298.73 194.89 304.17 192.65 302.42 188.53 C 299.70 186.52 296.55 185.20 293.60 183.57 C 299.81 183.57 306.02 183.05 312.09 181.68 C 317.55 180.46 323.19 180.00 328.54 178.31 C 331.98 177.09 332.15 172.93 333.28 170.00 C 338.15 170.39 343.10 172.19 347.95 170.70 C 364.60 166.40 381.35 162.49 398.02 158.22 C 400.34 150.72 409.73 150.71 413.72 144.66 C 416.28 140.83 419.41 137.26 421.27 133.01 C 421.69 129.33 421.05 125.64 420.78 121.97 C 420.19 110.14 419.86 98.27 418.73 86.48 C 414.30 69.04 409.12 51.79 404.29 34.45 C 401.91 26.84 401.13 18.88 399.94 11.04 C 399.71 9.06 399.28 7.04 399.67 5.06 C 400.81 3.05 402.57 1.50 404.29 0.00 Z" />
<path fill="#3e3e3e" opacity="1.00" d=" M 0.00 10.32 C 10.10 20.79 20.67 30.80 30.50 41.53 C 54.55 65.81 78.83 89.87 102.61 114.40 C 137.19 149.18 171.87 183.88 206.24 218.87 C 208.99 221.74 208.44 226.00 208.85 229.64 C 204.80 233.37 201.34 238.90 195.12 238.67 C 169.52 212.67 143.72 186.88 118.09 160.92 C 78.75 120.90 39.20 81.08 0.00 40.93 L 0.00 10.32 Z" />
<path fill="#3e3e3e" opacity="1.00" d=" M 418.52 19.83 C 423.19 37.84 429.62 55.35 434.82 73.21 C 436.61 78.97 436.42 85.07 437.13 91.01 C 437.43 96.69 438.33 102.33 438.34 108.02 C 437.85 112.18 436.69 116.22 435.82 120.31 C 434.72 107.20 433.44 94.11 432.30 81.01 C 428.41 68.09 425.04 55.01 421.28 42.05 C 419.13 34.86 418.44 27.31 418.52 19.83 Z" />
<path fill="#3e3e3e" opacity="1.00" d=" M 409.62 34.01 C 410.67 32.38 412.12 29.16 414.11 29.41 C 414.65 33.30 414.50 37.29 415.67 41.08 C 419.28 54.11 423.04 67.10 426.68 80.12 C 427.95 84.62 428.37 89.31 428.57 93.97 C 430.10 109.95 431.33 125.95 432.67 141.95 C 434.64 141.63 436.88 140.86 437.42 138.68 C 439.36 131.07 440.86 123.36 442.81 115.75 C 445.10 107.58 442.76 99.15 442.30 90.89 C 441.48 84.89 441.34 78.80 440.19 72.84 C 437.75 64.53 434.79 56.36 432.48 48.02 C 431.80 46.16 434.02 45.45 435.06 44.39 C 435.36 45.93 435.67 47.47 436.03 49.00 C 437.87 54.29 439.36 59.69 441.18 64.99 C 441.31 65.53 441.59 66.60 441.72 67.14 C 443.30 71.72 444.60 76.39 446.16 80.98 C 446.30 81.52 446.58 82.60 446.72 83.14 C 450.22 91.32 450.19 100.33 450.64 109.06 C 451.42 117.36 451.80 125.68 452.45 133.99 C 452.21 140.92 454.61 147.49 456.24 154.12 C 457.29 158.25 458.29 162.40 459.53 166.48 C 445.57 169.77 431.43 172.27 417.44 175.46 C 417.43 179.44 417.75 183.42 417.68 187.42 C 418.37 188.47 419.06 189.52 419.76 190.58 C 434.28 187.53 448.80 184.47 463.32 181.40 C 464.35 194.44 465.88 207.44 466.71 220.49 C 461.77 222.01 456.61 222.41 451.56 223.35 C 450.78 221.56 451.21 218.70 449.04 217.91 C 441.08 215.21 433.16 212.34 424.98 210.39 C 420.49 209.58 416.52 206.89 413.78 203.31 C 413.29 190.56 413.52 177.52 409.81 165.17 C 409.14 162.56 408.33 159.94 408.30 157.23 C 411.73 154.66 416.50 153.73 418.76 149.78 C 421.04 146.16 424.45 143.16 425.89 139.08 C 426.71 132.12 426.24 125.06 426.32 118.05 C 425.14 109.01 424.22 99.91 424.20 90.77 C 424.05 90.69 423.75 90.51 423.60 90.42 C 423.84 86.21 423.43 81.98 421.92 78.02 C 417.91 63.33 413.47 48.74 409.62 34.01 Z" />
<path fill="#3e3e3e" opacity="1.00" d=" M 459.33 148.10 C 459.60 146.06 461.68 145.16 463.08 143.98 C 464.32 146.95 465.95 149.82 466.64 153.00 C 466.95 155.22 464.21 155.90 462.88 157.03 C 461.61 154.09 460.07 151.22 459.33 148.10 Z" />
<path fill="#f5e5c1" opacity="1.00" d=" M 250.09 152.83 C 255.03 151.54 260.31 152.40 265.00 154.25 C 263.74 157.72 260.46 160.29 260.25 164.16 C 257.09 165.04 253.80 164.95 250.60 164.39 C 250.42 160.54 250.28 156.68 250.09 152.83 Z" />
<path fill="#3e3e3e" opacity="1.00" d=" M 402.35 160.70 C 405.16 167.19 406.47 174.20 407.87 181.10 C 409.02 189.58 408.75 198.17 408.64 206.70 C 406.45 206.41 404.23 206.31 402.05 206.66 C 386.01 209.15 369.96 211.56 353.91 213.98 C 349.53 214.75 345.75 217.26 341.69 218.92 C 341.47 211.41 341.90 203.88 341.44 196.38 C 339.86 189.86 337.44 183.58 335.39 177.19 C 339.29 177.16 343.10 178.69 346.98 178.27 C 364.70 173.88 382.46 169.60 400.19 165.22 C 400.91 163.71 401.63 162.20 402.35 160.70 Z" />
<path fill="#3e3e3e" opacity="1.00" d=" M 467.35 175.03 C 467.88 173.35 469.95 173.06 471.25 172.19 C 472.91 180.69 473.23 189.39 474.39 197.96 C 474.90 200.44 472.18 201.72 470.67 203.06 C 468.88 197.91 469.18 192.34 468.32 187.01 C 467.97 183.02 467.04 179.04 467.35 175.03 Z" />
<path fill="#f5e5c1" opacity="1.00" d=" M 351.90 186.84 C 368.63 183.83 385.41 181.12 402.15 178.21 C 403.29 182.76 404.97 187.30 404.46 192.07 C 385.10 195.80 365.78 199.78 346.44 203.61 C 345.20 199.18 344.18 194.56 344.44 189.93 C 346.14 187.62 349.35 187.51 351.90 186.84 Z" />
<path fill="#f5e5c1" opacity="1.00" d=" M 263.32 198.26 C 269.47 195.23 275.27 191.56 281.34 188.39 C 281.83 190.14 282.23 191.93 282.67 193.70 C 283.09 194.27 283.50 194.84 283.91 195.41 C 278.95 196.86 274.25 199.09 269.21 200.26 C 264.94 201.34 260.91 203.81 256.36 203.29 C 257.86 200.66 260.82 199.65 263.32 198.26 Z" />
<path fill="#3e3e3e" opacity="1.00" d=" M 229.81 214.75 C 231.10 213.61 232.21 212.02 233.96 211.60 C 237.86 212.06 240.52 215.22 242.90 218.03 C 246.20 222.07 249.84 225.82 253.08 229.92 C 248.06 235.55 240.73 239.13 237.36 246.17 C 244.50 244.04 251.14 240.60 258.06 237.90 C 259.39 237.54 261.05 236.45 262.20 237.79 C 265.50 240.74 268.27 244.24 271.62 247.16 C 269.90 250.24 268.21 253.37 267.19 256.77 C 271.13 255.96 274.73 254.12 278.29 252.32 C 281.70 256.85 285.10 261.39 288.56 265.88 C 276.77 277.88 264.93 289.84 253.22 301.92 C 249.82 297.51 245.64 293.82 241.73 289.90 C 243.19 286.69 244.58 283.43 246.49 280.46 C 251.69 272.56 260.52 267.73 265.28 259.51 C 260.38 260.45 257.52 264.95 253.90 267.95 C 247.82 273.16 242.19 278.87 236.02 283.98 C 225.17 273.15 214.32 262.32 203.42 251.53 C 202.53 250.60 201.34 249.45 202.06 248.02 C 202.89 244.61 203.73 240.93 206.30 238.38 C 213.99 230.36 222.14 222.79 229.81 214.75 Z" />
<path fill="#f5e5c1" opacity="1.00" d=" M 134.39 217.45 C 135.69 217.90 136.99 218.34 138.30 218.78 C 139.78 225.40 142.22 231.78 144.99 237.96 C 148.90 235.96 151.89 231.41 156.79 232.29 C 155.57 236.26 154.42 240.26 153.32 244.27 C 155.54 244.38 157.75 244.55 159.97 244.64 C 165.40 245.09 170.33 241.49 175.81 242.50 C 171.11 250.29 166.75 258.29 161.81 265.93 C 156.63 276.03 152.92 286.80 148.39 297.20 C 146.66 300.91 146.04 304.97 144.86 308.86 C 133.73 339.85 123.09 371.02 112.24 402.11 C 110.67 406.19 110.09 411.50 105.52 413.41 C 103.80 412.94 102.07 412.53 100.34 412.17 C 99.43 415.77 101.80 418.55 103.88 421.15 C 102.34 425.27 97.83 426.31 94.65 428.73 C 93.10 431.28 92.16 434.17 91.12 436.95 C 91.36 439.44 93.21 441.43 93.66 443.87 C 92.22 447.13 89.24 449.44 87.32 452.44 C 84.61 455.70 82.39 460.84 77.36 460.49 C 77.72 465.35 78.58 470.17 78.57 475.05 C 78.85 476.35 77.70 477.16 76.96 477.99 C 72.40 482.44 67.54 486.61 63.63 491.67 C 58.14 491.60 52.59 492.05 47.15 491.16 C 40.61 489.01 34.38 485.95 28.50 482.40 C 25.17 479.39 22.73 475.47 20.53 471.60 C 20.15 467.73 21.27 463.88 21.42 460.02 C 21.73 457.56 21.42 454.90 22.56 452.62 C 26.04 448.49 31.22 445.98 34.02 441.23 C 33.10 440.56 32.19 439.89 31.27 439.23 C 32.51 435.25 33.62 431.16 35.64 427.49 C 37.30 424.52 41.17 424.68 43.66 422.88 C 43.70 420.87 42.85 418.78 43.65 416.86 C 45.60 412.18 48.06 407.73 50.11 403.09 C 51.94 397.98 51.70 392.40 53.27 387.24 C 55.07 382.12 62.74 383.36 64.36 378.17 C 81.59 339.07 98.85 299.97 116.11 260.89 C 122.22 246.41 129.35 232.35 134.39 217.45 Z" />
<path fill="#3e3e3e" opacity="1.00" d=" M 437.20 219.50 C 439.86 220.54 442.85 221.04 445.19 222.76 C 446.35 225.01 446.87 227.54 447.32 230.02 C 452.04 261.02 457.43 291.92 462.26 322.91 C 462.58 325.40 462.63 327.93 462.56 330.45 C 457.95 308.67 454.38 286.66 449.72 264.88 C 447.25 254.72 445.55 244.41 443.58 234.16 C 442.79 228.77 439.48 224.31 437.20 219.50 Z" />
<path fill="#3e3e3e" opacity="1.00" d=" M 149.22 251.15 C 152.36 252.30 155.46 253.51 158.56 254.75 C 155.07 262.66 151.71 270.63 148.34 278.60 C 146.92 281.97 144.31 284.70 143.10 288.19 C 128.57 325.16 114.01 362.12 99.48 399.09 C 98.53 401.53 97.20 405.15 93.85 404.37 C 91.76 403.21 89.96 401.49 88.67 399.48 C 87.37 396.84 88.63 393.93 89.53 391.39 C 102.08 359.66 114.34 327.82 126.87 296.09 C 129.64 288.69 132.25 281.16 136.37 274.38 C 140.56 266.58 145.04 258.95 149.22 251.15 Z" />
<path fill="#3e3e3e" opacity="1.00" d=" M 457.26 259.67 C 461.61 259.63 465.98 259.60 470.34 259.62 C 471.47 276.77 473.73 293.86 473.54 311.07 C 473.61 318.88 473.78 326.69 473.80 334.50 C 471.75 334.57 469.70 334.66 467.66 334.74 C 467.51 329.48 467.65 324.19 466.80 318.99 C 463.71 299.20 460.26 279.47 457.26 259.67 Z" />
<path fill="#3e3e3e" opacity="1.00" d=" M 273.41 287.42 C 279.26 281.79 284.68 275.69 290.81 270.35 C 294.26 272.05 298.02 273.43 300.75 276.26 C 307.76 283.26 314.86 290.17 321.90 297.15 C 324.76 299.88 327.61 302.66 330.02 305.82 C 332.35 304.03 333.94 300.83 337.02 300.34 C 339.88 302.66 342.55 305.31 344.58 308.39 C 345.26 309.82 343.89 311.05 343.24 312.17 C 340.24 316.16 337.38 320.24 334.24 324.12 C 336.47 329.71 341.94 332.81 345.81 337.14 C 340.85 342.43 335.34 347.16 329.90 351.95 C 328.58 353.17 326.68 353.22 325.04 353.72 C 322.05 351.07 319.07 348.36 316.82 345.02 C 310.44 347.66 306.22 353.63 300.02 356.57 C 298.46 356.89 297.65 355.26 296.68 354.39 C 294.52 351.92 292.68 349.19 291.23 346.26 C 294.72 342.71 297.78 338.78 300.96 334.96 C 304.56 331.31 303.44 325.57 302.67 321.03 C 298.70 314.60 292.91 309.50 288.76 303.20 C 287.36 301.27 288.47 298.96 289.62 297.24 C 295.98 303.66 301.34 310.97 306.69 318.22 C 307.88 322.29 307.56 326.74 307.48 330.96 C 304.35 336.39 299.06 340.14 295.40 345.14 C 295.35 347.81 298.25 349.82 299.60 352.06 C 304.04 349.11 307.71 345.23 311.83 341.88 C 317.70 336.40 324.38 331.68 329.17 325.15 C 333.06 319.79 337.20 314.61 340.93 309.14 C 339.29 307.37 337.66 305.59 336.03 303.82 C 333.07 306.78 330.15 310.26 325.88 311.26 C 322.59 312.00 319.37 313.06 316.04 313.62 C 308.95 309.36 303.50 303.04 297.58 297.37 C 295.27 294.83 291.40 295.11 288.29 295.36 C 285.26 296.88 286.04 301.11 285.42 303.94 C 289.79 309.22 293.58 314.94 297.77 320.36 C 300.76 323.84 299.42 328.76 299.81 332.94 C 297.45 335.80 295.02 338.61 292.48 341.31 C 282.39 330.18 271.59 319.72 261.03 309.03 C 263.10 304.39 265.17 299.76 267.08 295.06 C 268.35 291.90 271.08 289.76 273.41 287.42 Z" />
<path fill="#f4722b" opacity="1.00" d=" M 325.34 337.02 C 327.71 334.25 330.31 331.69 333.03 329.27 C 335.67 331.52 338.57 333.55 340.79 336.25 C 341.17 337.48 339.71 338.22 339.11 339.09 C 337.02 341.15 334.85 343.13 332.80 345.23 C 330.23 342.56 327.78 339.80 325.34 337.02 Z" />
<path fill="#3e3e3e" opacity="1.00" d=" M 342.70 345.67 C 344.62 343.31 347.16 341.61 349.83 340.20 C 363.88 354.14 378.44 367.57 392.33 381.66 C 393.00 382.38 393.61 383.15 394.16 383.98 C 391.83 388.77 387.68 392.29 384.06 396.08 C 381.21 399.14 377.50 401.12 374.03 403.36 C 367.61 402.25 364.43 396.00 360.22 391.75 C 354.13 385.49 348.58 378.74 342.46 372.50 C 338.39 367.61 333.58 363.38 329.75 358.28 C 334.48 354.52 338.77 350.25 342.70 345.67 Z" />
<path fill="#f4722b" opacity="1.00" d=" M 348.38 342.59 C 352.32 345.64 355.54 349.45 359.16 352.85 C 369.63 363.09 380.24 373.22 390.81 383.35 C 389.26 387.18 385.70 389.66 382.86 392.50 C 368.46 379.17 354.73 365.13 340.38 351.75 C 342.89 348.56 345.65 345.59 348.38 342.59 Z" />
<path fill="#3e3e3e" opacity="1.00" d=" M 63.79 389.05 C 74.11 396.31 83.80 404.44 94.34 411.40 C 87.59 411.35 80.44 412.09 74.12 409.20 C 69.08 407.04 64.04 404.88 58.90 402.97 C 60.18 398.21 62.28 393.73 63.79 389.05 Z" />
<path fill="#3e3e3e" opacity="1.00" d=" M 381.18 411.31 C 389.29 406.57 395.51 399.28 402.03 392.64 C 402.32 393.57 402.61 394.50 402.91 395.44 C 399.63 398.06 396.91 401.30 394.76 404.90 C 399.51 408.54 403.20 413.29 407.29 417.62 C 415.77 426.65 423.95 435.97 432.53 444.91 C 431.22 446.40 430.04 448.01 429.00 449.70 C 431.86 453.96 434.26 458.52 436.93 462.91 C 438.08 461.76 439.52 460.79 440.24 459.28 C 441.33 457.58 439.59 455.92 439.09 454.33 C 441.11 453.24 443.11 452.11 445.10 450.96 C 446.13 451.95 447.16 452.93 448.20 453.93 C 449.65 452.49 451.71 451.21 451.90 448.98 C 452.41 446.32 450.10 444.55 448.58 442.77 C 436.27 429.98 423.67 417.47 411.47 404.57 C 408.72 401.70 405.72 399.03 403.53 395.69 C 406.61 397.01 408.61 399.77 410.84 402.14 C 424.27 416.14 437.23 430.59 450.85 444.41 C 451.94 445.51 452.84 446.78 453.78 448.03 C 454.82 447.24 455.85 446.45 456.89 445.66 C 459.80 448.25 462.68 450.90 465.89 453.12 C 470.18 455.96 475.87 455.81 479.85 459.21 C 482.57 461.31 484.98 463.81 486.77 466.76 C 486.43 467.52 485.75 469.05 485.41 469.81 C 489.02 475.18 487.69 482.65 484.23 487.76 C 482.52 486.37 481.27 483.86 478.95 483.56 C 477.94 484.47 477.16 485.59 476.36 486.67 C 477.53 488.15 478.70 489.65 479.87 491.15 C 480.94 490.56 482.03 489.98 483.12 489.41 C 480.22 493.72 475.31 495.72 470.78 497.81 C 464.69 500.18 457.49 498.67 452.68 494.32 C 448.37 489.34 448.00 482.40 445.30 476.64 C 442.35 472.50 436.86 469.97 436.42 464.36 C 426.77 457.93 418.62 449.60 410.30 441.59 C 402.99 434.26 395.08 427.57 387.85 420.16 C 385.31 417.47 381.77 415.25 381.18 411.31 Z" />
<path fill="#3e3e3e" opacity="1.00" d=" M 56.35 407.16 C 61.13 409.68 66.19 411.61 71.17 413.72 C 77.86 416.78 85.44 415.94 92.51 417.37 C 92.59 418.05 92.75 419.39 92.84 420.06 C 91.18 421.78 89.53 423.51 87.92 425.28 C 82.39 425.66 76.78 424.88 71.88 422.19 C 64.82 419.55 60.52 413.03 56.35 407.16 Z" />
<path fill="#3e3e3e" opacity="1.00" d=" M 53.23 413.15 C 57.68 417.47 60.61 423.84 66.87 425.85 C 69.74 426.98 72.46 428.51 75.43 429.33 C 79.12 429.78 82.84 429.59 86.54 429.81 C 85.15 432.09 83.73 434.36 82.28 436.60 C 75.91 436.64 69.61 435.62 63.27 435.20 C 59.06 430.01 54.60 425.03 50.25 419.96 C 51.24 417.69 52.25 415.42 53.23 413.15 Z" />
<path fill="#3e3e3e" opacity="1.00" d=" M 45.97 430.26 C 49.76 433.38 53.18 436.90 56.78 440.22 C 57.99 441.20 59.13 442.69 60.88 442.50 C 67.35 442.77 73.87 442.37 80.29 443.38 C 78.66 445.98 77.79 449.37 75.17 451.20 C 70.79 451.76 66.22 451.61 62.03 450.09 C 56.92 448.27 52.14 445.53 46.80 444.38 C 45.63 442.68 44.37 441.01 43.59 439.09 C 44.06 436.07 45.14 433.19 45.97 430.26 Z" />
<path fill="#f4722b" opacity="1.00" d=" M 446.81 459.51 C 448.97 455.37 451.76 451.32 455.68 448.68 C 461.36 453.28 467.42 457.36 473.12 461.93 C 475.69 464.07 478.97 464.95 482.14 465.81 C 485.20 469.69 485.50 475.15 483.47 479.54 C 482.58 481.38 480.63 480.25 479.25 479.82 C 477.68 479.13 475.94 479.39 474.28 479.39 C 474.50 482.71 475.64 486.41 472.92 489.07 C 468.28 484.59 465.44 478.67 460.99 474.03 C 456.25 469.20 452.21 463.66 446.81 459.51 Z" />
<path fill="#3e3e3e" opacity="1.00" d=" M 46.51 452.42 C 51.35 453.72 55.81 456.86 60.98 456.43 C 63.88 456.40 66.79 456.20 69.68 456.44 C 71.71 461.60 71.31 467.26 71.76 472.69 C 67.43 476.47 63.65 480.83 59.64 484.94 C 59.24 484.79 58.43 484.49 58.03 484.34 C 53.25 479.51 46.16 476.05 44.41 468.97 C 44.54 463.41 45.42 457.87 46.51 452.42 Z" />
</svg>
