<?xml version="1.0" encoding="UTF-8" ?>
<!DOCTYPE svg PUBLIC "-//W3C//DTD SVG 1.1//EN" "http://www.w3.org/Graphics/SVG/1.1/DTD/svg11.dtd">
<svg width="512pt" height="512pt" viewBox="0 0 512 512" version="1.1" xmlns="http://www.w3.org/2000/svg">
<path fill="#f5e5c1" opacity="1.00" d=" M 0.00 0.00 L 0.06 0.00 C 0.05 0.02 0.02 0.05 0.00 0.06 L 0.00 0.00 Z" />
<path fill="#3e3e3e" opacity="1.00" d=" M 0.06 0.00 L 122.50 0.00 C 122.62 21.99 122.94 43.99 122.85 65.98 C 123.93 89.78 123.38 113.62 123.86 137.44 C 121.82 139.01 119.72 140.98 116.93 140.71 C 89.64 140.73 62.34 140.83 35.05 140.64 C 27.59 140.61 20.11 140.39 12.71 139.32 C 10.29 145.19 11.82 151.52 13.13 157.45 C 45.01 160.06 76.89 162.76 108.76 165.53 C 114.35 165.81 119.25 168.99 124.81 169.46 C 130.40 170.16 135.99 170.91 141.59 171.59 C 139.30 206.52 136.61 241.44 134.19 276.37 C 133.70 279.71 133.62 283.12 134.87 286.32 C 132.81 287.93 129.83 289.13 129.20 291.95 C 128.37 295.93 128.64 300.03 128.60 304.07 C 131.35 304.92 134.10 305.79 136.84 306.66 C 135.80 313.41 136.68 320.22 137.23 326.96 C 137.41 332.65 137.38 338.35 137.56 344.05 C 138.20 353.34 138.51 362.64 138.70 371.96 C 139.85 381.91 139.17 391.97 139.94 401.93 C 141.19 405.35 144.59 407.36 146.91 410.03 C 145.27 413.55 142.38 416.17 139.45 418.62 C 139.34 424.42 140.08 430.26 139.44 436.05 C 137.31 442.00 133.08 446.96 130.69 452.80 C 130.07 455.17 130.57 457.65 130.75 460.05 C 131.51 465.45 131.52 470.93 132.50 476.31 C 136.09 479.78 139.54 483.39 143.08 486.91 C 147.11 491.39 153.68 490.53 159.05 491.79 C 166.62 493.62 174.36 492.03 182.02 492.21 C 186.05 490.15 189.97 487.85 194.09 485.96 C 198.64 482.99 202.50 479.08 206.67 475.61 C 209.65 473.25 209.73 469.15 210.75 465.78 C 211.62 461.55 213.43 457.48 213.58 453.14 C 212.90 448.79 211.46 444.60 210.33 440.36 C 208.99 435.16 203.41 432.67 201.28 427.98 C 201.00 401.72 202.65 375.46 202.74 349.19 C 203.54 337.53 203.51 325.84 203.69 314.16 C 204.05 311.96 201.95 310.72 200.80 309.20 C 203.61 306.53 207.82 304.88 209.33 301.13 C 209.24 295.59 208.41 290.08 207.57 284.61 C 206.85 284.56 205.42 284.46 204.70 284.41 C 204.27 263.62 205.13 242.79 203.75 222.03 C 203.79 217.01 203.67 211.99 203.79 206.97 C 204.72 194.87 203.99 182.72 204.11 170.60 C 207.93 169.25 211.70 167.77 215.56 166.54 C 221.41 164.65 227.62 164.78 233.68 164.24 C 267.30 161.38 300.96 158.84 334.58 155.83 C 335.91 150.08 335.12 144.10 333.79 138.43 C 323.19 138.34 312.58 138.60 302.00 137.94 C 290.33 137.57 278.68 138.45 267.01 138.17 C 251.86 137.31 236.68 137.84 221.53 137.38 C 220.24 123.99 220.58 110.52 220.15 97.10 C 219.46 89.47 219.55 81.80 219.36 74.16 C 218.98 69.82 222.35 66.38 222.75 62.22 C 221.83 59.39 219.91 56.86 219.75 53.80 C 219.52 50.28 219.40 46.75 219.41 43.22 C 219.26 38.89 222.65 35.39 222.75 31.13 C 222.04 25.88 218.37 21.41 218.31 16.03 C 218.20 10.68 218.36 5.34 218.31 0.00 L 512.00 0.00 L 512.00 512.00 L 0.00 512.00 L 0.00 0.06 C 0.02 0.05 0.05 0.02 0.06 0.00 Z" />
<path fill="#f5e5c1" opacity="1.00" d=" M 122.50 0.00 L 133.71 0.00 C 133.74 8.22 133.93 16.43 133.89 24.64 C 143.91 25.82 154.02 25.31 164.05 26.32 C 172.15 27.05 180.58 25.65 188.39 28.39 C 183.48 30.41 178.14 29.78 172.98 29.75 C 160.32 29.55 147.65 29.60 134.99 29.63 C 133.29 29.28 132.27 30.45 131.42 31.69 C 134.38 35.92 133.39 41.18 133.52 46.01 C 133.53 50.80 133.72 55.62 132.83 60.36 C 158.71 60.08 184.58 59.47 210.47 59.72 C 210.89 53.83 211.17 47.93 211.32 42.03 C 211.33 39.10 212.68 36.46 213.94 33.90 C 212.75 32.73 211.55 31.56 210.36 30.38 C 205.38 30.24 200.32 29.86 195.62 28.08 C 200.33 25.81 205.38 24.38 210.47 23.25 C 210.63 15.83 210.76 8.41 210.68 0.98 C 209.08 0.65 207.48 0.31 205.88 0.00 L 218.31 0.00 C 218.36 5.34 218.20 10.68 218.31 16.03 C 218.37 21.41 222.04 25.88 222.75 31.13 C 222.65 35.39 219.26 38.89 219.41 43.22 C 219.40 46.75 219.52 50.28 219.75 53.80 C 219.91 56.86 221.83 59.39 222.75 62.22 C 222.35 66.38 218.98 69.82 219.36 74.16 C 219.55 81.80 219.46 89.47 220.15 97.10 C 220.58 110.52 220.24 123.99 221.53 137.38 C 236.68 137.84 251.86 137.31 267.01 138.17 C 278.68 138.45 290.33 137.57 302.00 137.94 C 312.58 138.60 323.19 138.34 333.79 138.43 C 335.12 144.10 335.91 150.08 334.58 155.83 C 300.96 158.84 267.30 161.38 233.68 164.24 C 227.62 164.78 221.41 164.65 215.56 166.54 C 211.70 167.77 207.93 169.25 204.11 170.60 C 203.99 182.72 204.72 194.87 203.79 206.97 C 203.67 211.99 203.79 217.01 203.75 222.03 C 205.13 242.79 204.27 263.62 204.70 284.41 C 205.42 284.46 206.85 284.56 207.57 284.61 C 208.41 290.08 209.24 295.59 209.33 301.13 C 207.82 304.88 203.61 306.53 200.80 309.20 C 201.95 310.72 204.05 311.96 203.69 314.16 C 203.51 325.84 203.54 337.53 202.74 349.19 C 202.65 375.46 201.00 401.72 201.28 427.98 C 203.41 432.67 208.99 435.16 210.33 440.36 C 211.46 444.60 212.90 448.79 213.58 453.14 C 213.43 457.48 211.62 461.55 210.75 465.78 C 209.73 469.15 209.65 473.25 206.67 475.61 C 202.50 479.08 198.64 482.99 194.09 485.96 C 189.97 487.85 186.05 490.15 182.02 492.21 C 174.36 492.03 166.62 493.62 159.05 491.79 C 153.68 490.53 147.11 491.39 143.08 486.91 C 139.54 483.39 136.09 479.78 132.50 476.31 C 131.52 470.93 131.51 465.45 130.75 460.05 C 130.57 457.65 130.07 455.17 130.69 452.80 C 133.08 446.96 137.31 442.00 139.44 436.05 C 140.08 430.26 139.34 424.42 139.45 418.62 C 142.38 416.17 145.27 413.55 146.91 410.03 C 144.59 407.36 141.19 405.35 139.94 401.93 C 139.17 391.97 139.85 381.91 138.70 371.96 C 138.51 362.64 138.20 353.34 137.56 344.05 C 137.38 338.35 137.41 332.65 137.23 326.96 C 136.68 320.22 135.80 313.41 136.84 306.66 C 134.10 305.79 131.35 304.92 128.60 304.07 C 128.64 300.03 128.37 295.93 129.20 291.95 C 129.83 289.13 132.81 287.93 134.87 286.32 C 133.62 283.12 133.70 279.71 134.19 276.37 C 136.61 241.44 139.30 206.52 141.59 171.59 C 135.99 170.91 130.40 170.16 124.81 169.46 C 119.25 168.99 114.35 165.81 108.76 165.53 C 76.89 162.76 45.01 160.06 13.13 157.45 C 11.82 151.52 10.29 145.19 12.71 139.32 C 20.11 140.39 27.59 140.61 35.05 140.64 C 62.34 140.83 89.64 140.73 116.93 140.71 C 119.72 140.98 121.82 139.01 123.86 137.44 C 123.38 113.62 123.93 89.78 122.85 65.98 C 122.94 43.99 122.62 21.99 122.50 0.00 Z" />
<path fill="#3e3e3e" opacity="1.00" d=" M 133.71 0.00 L 205.88 0.00 C 207.48 0.31 209.08 0.65 210.68 0.98 C 210.76 8.41 210.63 15.83 210.47 23.25 C 205.38 24.38 200.33 25.81 195.62 28.08 C 200.32 29.86 205.38 30.24 210.36 30.38 C 211.55 31.56 212.75 32.73 213.94 33.90 C 212.68 36.46 211.33 39.10 211.32 42.03 C 211.17 47.93 210.89 53.83 210.47 59.72 C 184.58 59.47 158.71 60.08 132.83 60.36 C 133.72 55.62 133.53 50.80 133.52 46.01 C 133.39 41.18 134.38 35.92 131.42 31.69 C 132.27 30.45 133.29 29.28 134.99 29.63 C 147.65 29.60 160.32 29.55 172.98 29.75 C 178.14 29.78 183.48 30.41 188.39 28.39 C 180.58 25.65 172.15 27.05 164.05 26.32 C 154.02 25.31 143.91 25.82 133.89 24.64 C 133.93 16.43 133.74 8.22 133.71 0.00 Z" />
<path fill="#3e3e3e" opacity="1.00" d=" M 132.03 62.66 C 140.53 62.45 149.04 62.79 157.54 62.35 C 156.15 62.79 154.78 63.26 153.41 63.74 C 155.54 64.42 157.72 65.10 159.98 65.01 C 174.64 64.95 189.31 65.00 203.97 64.97 C 207.04 64.95 210.11 65.22 213.17 65.53 C 212.14 69.26 211.03 73.04 211.37 76.96 C 211.88 98.07 212.34 119.17 212.50 140.29 C 209.85 140.64 207.19 140.88 204.53 141.07 C 209.82 141.32 215.21 140.04 220.40 141.56 C 222.28 147.34 221.10 153.59 220.57 159.52 C 212.16 163.51 202.72 163.85 193.69 165.39 C 193.46 166.06 192.99 167.39 192.76 168.06 C 193.51 172.68 195.29 177.11 195.67 181.78 C 194.97 184.20 192.58 185.95 190.10 186.18 C 183.60 187.20 177.04 187.88 170.53 188.90 C 166.39 189.76 162.61 187.32 158.73 186.33 C 157.17 185.64 155.03 185.58 154.01 184.07 C 154.01 178.18 154.37 172.27 153.94 166.38 C 144.94 165.97 135.98 165.01 127.09 163.58 C 125.86 163.30 124.72 162.75 123.57 162.29 C 123.60 157.19 124.40 152.14 125.23 147.12 C 125.75 145.49 125.98 142.54 128.24 142.59 C 136.11 142.39 143.93 141.38 151.76 140.60 C 154.06 140.55 155.44 138.45 157.00 137.05 C 159.39 134.43 162.31 132.21 164.18 129.16 C 165.75 118.64 166.08 107.96 167.67 97.45 C 168.10 93.67 172.18 92.12 175.40 91.42 C 176.37 104.03 173.39 116.54 172.25 129.06 C 172.12 132.77 168.81 134.96 166.55 137.45 C 163.55 140.29 161.02 143.64 157.69 146.11 C 149.09 146.92 140.39 147.24 131.73 147.43 C 131.29 150.84 130.70 154.24 130.26 157.66 C 140.15 159.03 150.19 158.35 160.09 159.57 C 167.94 160.90 175.96 161.01 183.88 160.55 C 194.15 159.25 204.37 157.60 214.64 156.34 C 215.14 153.16 215.36 149.94 215.43 146.73 C 210.35 146.50 204.68 147.91 200.22 144.79 C 194.97 141.60 189.69 138.47 184.35 135.43 C 184.85 130.52 182.91 125.87 182.88 120.99 C 182.69 114.08 182.74 107.16 182.63 100.24 C 183.02 95.76 178.88 92.76 176.30 89.64 C 171.62 87.92 168.15 92.38 164.81 94.85 C 164.59 97.25 164.38 99.64 164.20 102.04 L 163.71 102.69 C 162.91 111.16 161.06 119.50 160.15 127.97 C 156.78 131.47 153.42 134.98 150.15 138.57 C 144.55 139.73 138.79 139.38 133.16 140.33 C 133.44 117.20 133.68 94.07 133.80 70.94 C 133.86 68.07 132.76 65.38 132.03 62.66 Z" />
<path fill="#f5e5c1" opacity="1.00" d=" M 229.11 94.88 C 256.65 80.41 287.89 72.95 319.02 74.14 C 354.84 75.21 390.18 87.58 418.94 108.94 C 445.71 128.73 466.76 156.19 478.79 187.24 C 494.76 227.74 495.02 274.15 479.53 314.84 C 466.37 350.03 441.66 380.76 410.12 401.17 C 375.72 423.75 333.30 433.64 292.46 428.77 C 264.53 425.64 237.44 415.60 214.07 400.01 C 212.77 398.99 210.96 398.33 210.19 396.81 C 209.35 390.86 211.50 385.02 211.05 379.06 C 211.34 368.05 210.30 356.95 211.96 346.02 C 212.11 343.31 212.05 340.59 212.06 337.89 C 233.43 363.63 264.87 380.79 298.14 384.54 C 337.86 389.61 379.58 375.19 407.62 346.58 C 435.37 319.36 449.76 279.28 445.92 240.63 C 443.16 209.22 428.60 179.01 405.77 157.25 C 384.88 136.98 357.07 124.05 328.13 120.96 C 309.81 119.15 291.05 120.75 273.51 126.50 C 270.10 127.60 266.73 129.21 263.06 129.02 C 252.04 128.96 241.03 128.95 230.02 128.96 C 229.47 126.35 229.09 123.71 229.13 121.04 C 229.16 112.32 228.83 103.60 229.11 94.88 Z" />
<path fill="#f5e5c1" opacity="1.00" d=" M 343.35 147.92 C 368.04 155.17 389.85 171.64 403.65 193.35 C 414.77 210.74 421.03 231.37 420.70 252.06 C 421.03 275.82 412.76 299.49 398.28 318.27 C 382.64 338.82 359.34 353.32 334.05 358.45 C 314.23 362.51 293.25 360.99 274.30 353.87 C 250.65 345.25 230.44 327.93 217.87 306.17 C 213.95 300.73 217.60 293.66 215.24 287.73 C 214.42 285.54 212.82 283.52 213.07 281.05 C 213.09 257.38 213.04 233.70 213.03 210.02 C 213.00 208.07 213.43 206.14 214.35 204.43 C 220.01 193.02 227.59 182.56 236.72 173.69 C 238.79 171.26 242.23 172.34 245.00 172.01 C 270.82 169.59 296.69 167.78 322.52 165.54 C 327.29 164.45 332.43 165.91 337.03 164.01 C 342.61 160.89 343.65 153.74 343.35 147.92 Z" />
<path fill="#f5e5c1" opacity="1.00" d=" M 171.62 169.71 C 176.52 169.30 181.46 168.96 186.36 169.55 C 186.45 173.12 186.82 176.67 187.19 180.21 C 186.51 181.55 184.97 181.53 183.69 181.77 C 179.52 182.34 175.35 182.84 171.18 183.41 C 171.32 178.84 171.59 174.28 171.62 169.71 Z" />
<path fill="#3e3e3e" opacity="1.00" d=" M 303.52 186.76 C 318.84 184.69 334.89 187.74 348.07 195.92 C 363.47 205.09 374.73 220.76 378.81 238.18 C 382.38 252.59 380.70 268.11 374.60 281.60 C 364.10 305.14 339.07 322.05 313.04 320.95 C 283.15 322.28 254.92 299.87 247.68 271.15 C 242.41 252.32 246.21 231.33 257.36 215.32 C 267.82 199.88 285.06 189.32 303.52 186.76 Z" />
<path fill="#3e3e3e" opacity="1.00" d=" M 153.10 199.23 C 161.70 197.97 170.24 195.60 179.00 196.17 C 183.79 196.31 188.57 196.77 193.34 197.28 C 193.61 210.53 193.41 223.79 194.14 237.02 C 194.23 251.37 194.24 265.73 194.45 280.08 C 194.52 282.67 194.21 285.26 193.55 287.78 C 187.38 288.47 181.29 289.85 175.05 289.33 C 167.52 290.07 160.16 288.35 152.93 286.50 C 151.15 283.61 149.06 280.62 149.68 277.03 C 150.78 251.09 152.02 225.16 153.10 199.23 Z" />
<path fill="#f5e5c1" opacity="1.00" d=" M 173.21 198.89 C 178.39 198.81 183.57 198.73 188.75 198.46 C 189.58 202.63 188.65 206.85 189.05 211.05 C 189.38 218.70 189.27 226.37 188.81 234.02 C 189.76 250.23 189.41 266.50 190.42 282.72 C 184.98 284.28 179.24 283.66 173.65 283.54 C 173.97 269.65 172.38 255.83 172.86 241.95 C 173.62 227.62 172.66 213.23 173.21 198.89 Z" />
<path fill="#f4722b" opacity="1.00" d=" M 305.30 204.42 C 316.85 202.71 329.01 204.82 338.94 211.10 C 353.13 219.76 362.66 236.24 361.71 253.01 C 363.04 277.40 342.05 300.15 317.81 301.53 C 311.52 301.61 305.08 301.95 299.02 299.93 C 278.53 294.25 262.85 273.67 264.29 252.22 C 263.27 228.95 282.42 207.39 305.30 204.42 Z" />
<path fill="#3e3e3e" opacity="1.00" d=" M 149.73 320.98 C 149.90 314.08 148.41 306.77 151.83 300.40 C 155.20 301.30 158.56 302.42 162.08 302.62 C 168.20 303.06 174.29 304.12 180.46 303.94 C 185.54 303.98 190.48 302.49 195.57 302.49 C 196.60 332.65 195.97 362.84 196.21 393.02 C 196.12 399.03 196.39 405.05 196.21 411.06 C 195.08 417.03 195.47 423.14 195.87 429.17 C 198.16 436.40 203.24 442.52 205.01 449.98 C 205.75 452.97 207.27 456.08 206.20 459.18 C 204.34 466.21 200.56 473.42 193.89 476.91 C 189.63 479.65 184.45 480.08 179.78 481.82 C 174.99 483.65 169.92 482.06 164.99 482.19 C 161.82 482.13 158.55 482.66 155.49 481.57 C 152.11 480.67 149.82 477.88 147.21 475.75 C 142.85 472.47 141.85 466.72 140.28 461.83 C 139.57 451.90 146.22 443.56 150.26 435.02 C 151.82 430.72 149.12 425.26 152.63 421.69 C 154.39 419.44 156.62 417.47 157.75 414.80 C 158.41 412.34 158.30 409.77 158.51 407.27 C 156.52 406.49 154.54 405.72 152.55 404.98 C 151.37 398.02 151.62 390.94 151.27 383.92 C 150.64 371.63 150.72 359.31 150.39 347.01 C 150.37 338.32 149.60 329.66 149.73 320.98 Z" />
<path fill="#f5e5c1" opacity="1.00" d=" M 174.35 312.19 C 178.48 311.12 182.66 310.23 186.80 309.23 C 186.59 330.17 187.79 351.08 187.78 372.02 C 187.80 383.51 187.92 394.99 187.88 406.48 C 182.57 405.76 177.15 405.94 171.93 404.66 C 171.49 397.79 170.97 390.91 170.96 384.03 C 171.70 377.80 171.46 371.52 171.84 365.27 C 172.77 356.84 172.21 348.33 173.16 339.90 C 173.55 330.66 173.45 321.40 174.35 312.19 Z" />
<path fill="#f5e5c1" opacity="1.00" d=" M 182.67 415.62 C 184.89 414.98 187.19 415.23 189.42 415.68 C 189.72 420.42 189.74 425.18 189.79 429.93 C 189.64 434.53 192.63 438.39 193.30 442.84 C 194.11 446.53 193.83 450.64 196.12 453.85 C 197.36 456.22 199.35 458.77 198.54 461.60 C 196.77 468.37 189.72 471.82 183.57 473.74 C 177.84 475.78 171.73 474.58 165.94 473.54 C 167.60 460.08 168.44 446.55 168.87 433.00 C 169.32 427.72 169.18 422.34 170.68 417.21 C 174.54 415.80 178.73 416.73 182.67 415.62 Z" />
</svg>
