<?xml version="1.0" encoding="UTF-8" ?>
<!DOCTYPE svg PUBLIC "-//W3C//DTD SVG 1.1//EN" "http://www.w3.org/Graphics/SVG/1.1/DTD/svg11.dtd">
<svg width="512pt" height="512pt" viewBox="0 0 512 512" version="1.1" xmlns="http://www.w3.org/2000/svg">
<path fill="#3e3e3e" opacity="1.00" d=" M 0.00 0.00 L 512.00 0.00 L 512.00 247.42 C 508.13 247.04 503.77 247.19 500.99 243.99 C 496.34 240.97 493.17 236.47 489.51 232.47 C 484.76 230.22 479.48 229.36 474.52 227.67 C 468.31 225.58 461.53 224.65 456.03 220.87 C 452.15 218.20 450.16 213.51 446.20 211.01 C 439.77 211.20 433.38 212.11 426.98 212.66 C 423.70 212.78 422.03 216.03 420.41 218.41 C 415.06 227.41 409.82 236.48 404.57 245.53 C 401.94 250.18 397.05 252.74 393.16 256.19 C 388.42 260.31 382.86 263.28 377.23 265.98 C 382.17 261.32 386.40 256.00 390.88 250.90 C 393.41 247.96 394.85 244.32 396.62 240.92 C 399.00 236.06 402.29 231.73 404.78 226.94 C 408.58 219.68 411.05 211.83 414.62 204.46 C 416.54 200.59 417.67 195.96 421.38 193.35 C 435.66 182.90 449.87 172.36 464.15 161.92 C 467.32 149.08 470.61 136.28 473.97 123.49 C 471.55 125.78 468.37 127.64 467.20 130.92 C 464.35 138.70 462.45 146.85 459.20 154.48 C 458.11 157.04 455.02 156.48 452.80 156.72 C 439.80 142.23 425.95 128.52 411.53 115.45 C 410.03 113.98 408.35 112.58 407.41 110.67 C 406.57 108.30 407.58 105.83 408.40 103.61 C 411.90 94.99 415.27 86.33 418.70 77.68 C 421.17 71.73 422.68 64.91 428.15 60.86 C 435.97 65.88 441.67 73.47 448.83 79.34 C 449.96 77.99 451.09 76.63 452.22 75.28 C 444.76 68.28 437.35 61.24 429.94 54.19 C 427.05 54.92 424.14 55.90 422.01 58.08 C 402.16 75.50 383.48 94.20 364.15 112.18 C 360.39 115.66 358.31 120.42 355.82 124.79 C 350.98 133.36 346.23 141.98 341.46 150.59 C 339.85 153.84 336.92 157.08 338.08 160.97 C 338.92 164.78 338.38 169.54 341.81 172.20 C 353.72 182.96 365.63 193.74 377.54 204.51 C 380.41 207.02 382.91 210.02 386.18 212.03 C 389.32 212.66 392.73 212.81 395.84 211.94 C 399.82 209.72 403.21 206.59 406.89 203.92 C 405.81 208.67 405.19 213.59 403.19 218.08 C 397.91 230.10 391.09 241.58 381.99 251.12 C 385.81 241.58 388.28 231.34 387.88 221.01 C 375.22 210.73 363.07 199.84 350.62 189.32 C 344.81 184.21 338.74 179.40 333.12 174.08 C 331.22 181.08 325.52 185.91 321.96 192.00 C 318.27 198.40 312.83 203.50 308.47 209.41 C 299.42 220.08 289.12 229.75 277.51 237.57 C 272.61 240.25 267.40 242.40 262.02 243.89 C 257.80 245.11 253.44 243.91 249.21 243.34 C 251.56 248.79 255.21 253.52 258.66 258.31 C 265.56 266.60 272.47 274.89 279.53 283.05 C 273.53 278.92 267.90 274.28 262.08 269.91 C 252.51 263.49 243.84 253.22 244.76 241.00 C 244.55 231.30 243.99 221.62 243.65 211.94 C 243.61 204.85 239.20 198.91 236.78 192.50 C 231.30 190.06 225.96 187.31 220.77 184.31 C 217.25 184.42 215.72 187.32 214.86 190.31 C 193.88 160.90 173.62 130.97 153.02 101.29 C 149.73 101.92 146.18 102.29 144.04 99.17 C 144.77 98.00 145.50 96.82 146.23 95.65 C 146.96 95.61 148.41 95.51 149.14 95.46 C 150.24 90.65 151.26 85.82 152.32 81.00 C 146.75 80.99 142.03 77.96 137.36 75.34 C 143.45 76.46 150.68 78.18 156.01 74.03 C 160.88 70.81 165.85 67.71 170.39 64.03 C 161.26 60.66 153.83 54.19 147.01 47.43 C 142.31 54.20 137.56 60.94 132.77 67.66 C 127.16 75.22 127.27 85.08 125.35 93.93 C 125.07 95.66 125.08 97.49 125.96 99.06 C 133.30 112.99 141.31 126.59 148.22 140.75 C 156.52 155.49 164.84 170.22 173.00 185.03 C 175.60 189.82 178.90 194.43 179.85 199.91 C 181.01 205.49 182.38 211.02 183.85 216.52 C 185.72 223.41 189.31 230.13 188.47 237.48 C 187.11 235.83 185.81 234.13 184.64 232.34 C 169.30 208.35 153.86 184.42 138.49 160.44 C 136.99 158.00 134.95 155.89 132.26 154.79 C 128.49 153.19 124.62 150.50 120.34 151.62 C 94.50 156.16 68.84 161.66 43.04 166.42 C 41.01 166.88 38.86 167.07 36.98 168.01 C 34.27 170.30 32.31 173.32 30.01 176.00 C 27.04 179.24 26.35 183.72 24.82 187.70 C 20.07 200.94 15.44 214.24 10.64 227.47 C 9.37 231.23 7.52 234.98 7.60 239.03 C 8.65 242.19 10.63 244.92 12.13 247.87 C 13.82 251.03 14.99 254.68 17.95 256.94 C 36.27 272.16 54.54 287.44 72.81 302.72 C 65.27 300.58 57.32 299.45 50.38 295.63 C 45.43 292.94 39.77 291.87 35.04 288.75 C 33.13 287.85 31.23 285.99 28.98 286.55 C 20.36 292.01 16.00 301.53 11.22 310.13 C 9.05 314.88 3.32 316.02 0.00 319.75 L 0.00 0.00 Z" />
<path fill="#f5e5c1" opacity="1.00" d=" M 164.56 23.58 C 167.04 20.42 171.04 18.74 174.93 18.26 C 183.52 19.80 192.28 23.12 197.99 30.03 C 199.76 32.41 201.07 35.10 202.24 37.81 C 204.03 42.81 203.13 48.19 203.45 53.37 C 197.36 56.82 191.00 59.74 184.92 63.21 C 180.96 63.88 176.85 62.16 173.06 60.97 C 168.34 59.52 164.76 55.99 161.08 52.88 C 155.50 48.29 156.33 40.27 155.30 33.82 C 158.39 30.41 161.68 27.18 164.56 23.58 Z" />
<path fill="#3e3e3e" opacity="1.00" d=" M 175.29 24.58 C 178.02 23.34 181.11 23.99 183.65 25.40 C 189.54 28.84 195.41 33.07 198.39 39.43 C 199.33 41.88 199.61 44.51 199.99 47.08 C 198.95 47.54 197.92 48.01 196.89 48.48 C 186.32 44.34 180.48 34.01 175.29 24.58 Z" />
<path fill="#f5e5c1" opacity="1.00" d=" M 147.01 47.43 C 153.83 54.19 161.26 60.66 170.39 64.03 C 165.85 67.71 160.88 70.81 156.01 74.03 C 150.68 78.18 143.45 76.46 137.36 75.34 C 142.03 77.96 146.75 80.99 152.32 81.00 C 151.26 85.82 150.24 90.65 149.14 95.46 C 148.41 95.51 146.96 95.61 146.23 95.65 C 145.50 96.82 144.77 98.00 144.04 99.17 C 146.18 102.29 149.73 101.92 153.02 101.29 C 173.62 130.97 193.88 160.90 214.86 190.31 C 215.72 187.32 217.25 184.42 220.77 184.31 C 225.96 187.31 231.30 190.06 236.78 192.50 C 239.20 198.91 243.61 204.85 243.65 211.94 C 243.99 221.62 244.55 231.30 244.76 241.00 C 243.84 253.22 252.51 263.49 262.08 269.91 C 267.90 274.28 273.53 278.92 279.53 283.05 C 272.47 274.89 265.56 266.60 258.66 258.31 C 255.21 253.52 251.56 248.79 249.21 243.34 C 253.44 243.91 257.80 245.11 262.02 243.89 C 267.40 242.40 272.61 240.25 277.51 237.57 C 289.12 229.75 299.42 220.08 308.47 209.41 C 312.83 203.50 318.27 198.40 321.96 192.00 C 325.52 185.91 331.22 181.08 333.12 174.08 C 338.74 179.40 344.81 184.21 350.62 189.32 C 363.07 199.84 375.22 210.73 387.88 221.01 C 388.28 231.34 385.81 241.58 381.99 251.12 C 391.09 241.58 397.91 230.10 403.19 218.08 C 405.19 213.59 405.81 208.67 406.89 203.92 C 403.21 206.59 399.82 209.72 395.84 211.94 C 392.73 212.81 389.32 212.66 386.18 212.03 C 382.91 210.02 380.41 207.02 377.54 204.51 C 365.63 193.74 353.72 182.96 341.81 172.20 C 338.38 169.54 338.92 164.78 338.08 160.97 C 336.92 157.08 339.85 153.84 341.46 150.59 C 346.23 141.98 350.98 133.36 355.82 124.79 C 358.31 120.42 360.39 115.66 364.15 112.18 C 383.48 94.20 402.16 75.50 422.01 58.08 C 424.14 55.90 427.05 54.92 429.94 54.19 C 437.35 61.24 444.76 68.28 452.22 75.28 C 451.09 76.63 449.96 77.99 448.83 79.34 C 441.67 73.47 435.97 65.88 428.15 60.86 C 422.68 64.91 421.17 71.73 418.70 77.68 C 415.27 86.33 411.90 94.99 408.40 103.61 C 407.58 105.83 406.57 108.30 407.41 110.67 C 408.35 112.58 410.03 113.98 411.53 115.45 C 425.95 128.52 439.80 142.23 452.80 156.72 C 455.02 156.48 458.11 157.04 459.20 154.48 C 462.45 146.85 464.35 138.70 467.20 130.92 C 468.37 127.64 471.55 125.78 473.97 123.49 C 470.61 136.28 467.32 149.08 464.15 161.92 C 449.87 172.36 435.66 182.90 421.38 193.35 C 417.67 195.96 416.54 200.59 414.62 204.46 C 411.05 211.83 408.58 219.68 404.78 226.94 C 402.29 231.73 399.00 236.06 396.62 240.92 C 394.85 244.32 393.41 247.96 390.88 250.90 C 386.40 256.00 382.17 261.32 377.23 265.98 C 382.86 263.28 388.42 260.31 393.16 256.19 C 397.05 252.74 401.94 250.18 404.57 245.53 C 409.82 236.48 415.06 227.41 420.41 218.41 C 422.03 216.03 423.70 212.78 426.98 212.66 C 433.38 212.11 439.77 211.20 446.20 211.01 C 450.16 213.51 452.15 218.20 456.03 220.87 C 461.53 224.65 468.31 225.58 474.52 227.67 C 479.48 229.36 484.76 230.22 489.51 232.47 C 493.17 236.47 496.34 240.97 500.99 243.99 C 503.77 247.19 508.13 247.04 512.00 247.42 L 512.00 402.62 C 504.26 381.90 496.15 361.30 488.26 340.63 C 486.99 337.61 485.97 333.84 482.69 332.41 C 478.66 330.87 474.32 330.11 470.01 330.02 C 466.08 330.04 463.24 333.15 460.16 335.17 C 436.54 351.86 412.90 368.53 389.32 385.28 C 385.22 387.65 385.12 393.66 388.04 397.01 C 396.44 407.12 404.56 417.54 414.29 426.44 C 409.81 430.94 405.18 435.34 400.13 439.18 C 398.92 440.32 397.14 440.10 396.02 438.99 C 379.70 425.33 363.57 411.44 347.23 397.80 C 343.03 394.39 339.25 390.10 334.02 388.27 C 330.27 386.94 326.23 387.29 322.36 387.77 C 322.10 386.33 321.84 384.89 321.59 383.46 C 324.55 382.21 327.92 381.58 330.37 379.39 C 332.14 377.15 332.24 374.13 332.87 371.45 C 333.30 371.38 334.16 371.23 334.59 371.16 C 337.21 373.56 340.29 375.63 343.94 375.91 C 351.29 376.81 358.55 379.08 366.04 378.39 C 377.54 377.55 389.46 376.29 399.79 370.78 C 406.29 366.35 413.24 362.44 418.89 356.90 C 421.98 353.77 422.45 349.10 421.69 344.96 C 419.74 333.00 418.34 320.94 416.17 309.01 C 415.71 305.81 413.66 302.81 410.56 301.69 C 403.50 299.24 396.33 297.00 388.93 295.84 C 379.95 294.86 370.92 295.80 362.01 296.96 C 355.63 297.64 349.95 300.83 344.10 303.18 C 337.85 306.96 332.66 312.30 328.05 317.92 C 325.01 322.04 326.60 327.35 327.26 331.95 C 326.43 332.12 324.77 332.46 323.95 332.63 C 321.62 329.23 318.40 325.74 313.98 325.58 C 310.24 325.74 306.56 326.54 302.82 326.83 C 294.99 320.94 286.29 316.23 277.15 312.70 C 269.93 310.73 262.40 310.10 254.98 309.31 C 245.14 309.40 235.54 312.01 225.85 313.49 C 215.61 315.21 205.17 315.28 194.92 316.90 C 180.92 318.74 166.93 320.68 153.00 323.02 C 121.07 327.26 89.17 331.74 57.29 336.33 C 51.70 337.55 45.37 336.94 40.52 340.43 C 32.94 345.62 27.82 353.46 22.83 361.00 C 17.49 371.09 13.93 382.38 13.88 393.88 C 14.86 400.13 13.93 406.68 16.23 412.70 C 18.17 417.35 18.05 423.58 14.36 427.32 C 9.87 430.07 4.57 431.18 0.00 433.81 L 0.00 319.75 C 3.32 316.02 9.05 314.88 11.22 310.13 C 16.00 301.53 20.36 292.01 28.98 286.55 C 31.23 285.99 33.13 287.85 35.04 288.75 C 39.77 291.87 45.43 292.94 50.38 295.63 C 57.32 299.45 65.27 300.58 72.81 302.72 C 54.54 287.44 36.27 272.16 17.95 256.94 C 14.99 254.68 13.82 251.03 12.13 247.87 C 10.63 244.92 8.65 242.19 7.60 239.03 C 7.52 234.98 9.37 231.23 10.64 227.47 C 15.44 214.24 20.07 200.94 24.82 187.70 C 26.35 183.72 27.04 179.24 30.01 176.00 C 32.31 173.32 34.27 170.30 36.98 168.01 C 38.86 167.07 41.01 166.88 43.04 166.42 C 68.84 161.66 94.50 156.16 120.34 151.62 C 124.62 150.50 128.49 153.19 132.26 154.79 C 134.95 155.89 136.99 158.00 138.49 160.44 C 153.86 184.42 169.30 208.35 184.64 232.34 C 185.81 234.13 187.11 235.83 188.47 237.48 C 189.31 230.13 185.72 223.41 183.85 216.52 C 182.38 211.02 181.01 205.49 179.85 199.91 C 178.90 194.43 175.60 189.82 173.00 185.03 C 164.84 170.22 156.52 155.49 148.22 140.75 C 141.31 126.59 133.30 112.99 125.96 99.06 C 125.08 97.49 125.07 95.66 125.35 93.93 C 127.27 85.08 127.16 75.22 132.77 67.66 C 137.56 60.94 142.31 54.20 147.01 47.43 Z" />
<path fill="#f5e5c1" opacity="1.00" d=" M 467.13 65.15 C 468.64 63.79 470.57 61.43 472.80 62.89 C 478.95 65.76 483.98 70.48 488.77 75.19 C 494.02 81.36 498.13 88.85 498.79 97.07 C 486.65 107.59 474.16 117.72 462.31 128.56 C 457.50 129.50 453.05 127.13 448.87 125.14 C 443.37 122.08 438.16 117.78 435.52 111.95 C 434.22 106.43 433.74 99.47 438.23 95.22 C 447.87 85.21 457.60 75.28 467.13 65.15 Z" />
<path fill="#3e3e3e" opacity="1.00" d=" M 469.38 68.58 C 471.83 67.50 474.87 68.46 476.85 70.17 C 483.52 75.55 489.67 82.01 492.78 90.13 C 493.43 91.89 493.94 94.04 492.65 95.65 C 491.14 98.62 487.24 97.99 484.63 97.19 C 476.68 92.27 469.03 85.42 466.76 75.96 C 465.77 73.26 467.03 70.14 469.38 68.58 Z" />
<path fill="#3e3e3e" opacity="1.00" d=" M 440.44 106.35 C 448.63 99.04 455.49 90.36 463.76 83.14 C 465.10 84.85 466.46 86.54 467.85 88.21 C 466.36 92.29 462.78 94.87 459.76 97.76 C 453.42 103.32 447.92 109.84 441.14 114.87 C 439.96 113.16 438.78 111.45 437.59 109.75 C 438.45 108.55 439.31 107.32 440.44 106.35 Z" />
<path fill="#3e3e3e" opacity="1.00" d=" M 392.28 114.33 C 395.13 112.03 397.86 109.50 401.20 107.88 C 401.94 110.75 402.68 113.63 403.69 116.43 C 385.57 131.74 367.23 146.80 349.07 162.06 C 347.37 163.51 345.71 165.03 343.73 166.10 C 342.84 163.10 342.00 160.07 341.61 156.97 C 341.91 154.63 343.88 153.07 345.54 151.64 C 361.17 139.27 376.68 126.75 392.28 114.33 Z" />
<path fill="#f5e5c1" opacity="1.00" d=" M 340.79 126.77 C 342.11 122.40 347.65 122.00 351.45 121.45 C 346.20 132.56 339.50 142.97 333.88 153.91 C 331.52 159.61 332.51 166.48 328.66 171.61 C 324.60 177.27 320.94 183.23 316.83 188.85 C 308.51 198.00 302.77 209.28 293.48 217.58 C 287.36 223.61 279.93 227.99 272.91 232.85 C 268.54 235.95 263.32 237.75 258.01 238.32 C 254.70 238.56 250.51 237.24 249.47 233.72 C 248.76 229.81 250.81 226.12 252.85 222.95 C 254.41 224.89 255.90 226.89 257.32 228.94 C 265.69 228.01 271.83 221.90 278.44 217.33 C 283.29 213.92 287.05 209.29 291.22 205.14 C 296.79 199.66 301.41 193.33 306.56 187.47 C 313.34 180.09 318.77 171.65 324.28 163.32 C 327.89 157.31 329.94 150.52 333.35 144.40 C 336.48 138.81 338.45 132.70 340.79 126.77 Z" />
<path fill="#f5e5c1" opacity="1.00" d=" M 313.13 135.13 C 318.01 131.97 322.41 127.88 327.92 125.81 C 329.91 125.80 331.88 126.23 333.81 126.71 C 334.72 131.49 331.99 136.01 330.25 140.31 C 325.39 152.60 317.95 163.60 310.66 174.53 C 305.51 181.08 301.06 188.23 295.03 194.05 C 290.03 199.03 285.59 204.63 279.84 208.79 C 273.56 214.06 266.43 218.15 259.68 222.75 C 258.20 219.55 256.34 216.46 255.48 213.01 C 262.14 200.05 268.18 186.60 276.71 174.70 C 283.15 167.44 288.54 159.29 295.40 152.39 C 301.14 146.48 306.08 139.60 313.13 135.13 Z" />
<path fill="#3e3e3e" opacity="1.00" d=" M 285.24 169.23 C 289.91 164.19 293.60 156.98 301.05 155.79 C 300.71 158.98 299.59 162.06 297.52 164.54 C 292.75 170.79 288.02 178.06 280.25 180.76 C 279.63 176.24 282.78 172.63 285.24 169.23 Z" />
<path fill="#3e3e3e" opacity="1.00" d=" M 42.85 173.80 C 68.28 168.83 93.68 163.74 119.09 158.72 C 122.48 157.87 125.76 159.41 128.85 160.61 C 127.99 164.88 125.83 168.72 124.57 172.88 C 121.07 183.96 117.39 194.99 113.91 206.08 C 112.53 210.92 111.25 216.02 107.99 219.99 C 105.63 222.62 102.99 224.97 100.56 227.53 C 98.40 229.64 96.32 232.36 93.08 232.67 C 81.53 234.71 69.97 236.71 58.43 238.79 C 45.39 241.19 32.74 245.27 19.77 247.94 C 18.04 244.83 16.04 241.87 13.98 238.98 C 19.93 221.81 25.23 204.43 30.44 187.02 C 31.60 182.55 35.17 179.35 38.05 175.95 C 39.19 174.43 41.14 174.19 42.85 173.80 Z" />
<path fill="#3e3e3e" opacity="1.00" d=" M 388.26 206.42 C 408.24 191.00 427.60 174.78 447.65 159.47 C 450.31 161.37 453.54 161.98 456.68 162.65 C 436.73 177.91 416.39 192.66 396.29 207.72 C 393.61 207.28 390.94 206.84 388.26 206.42 Z" />
<path fill="#f5e5c1" opacity="1.00" d=" M 96.96 174.63 C 102.04 173.85 106.90 172.01 111.99 171.27 C 115.03 171.76 120.50 172.63 118.96 177.01 C 115.82 188.60 111.07 199.71 107.25 211.10 C 106.33 215.35 102.04 217.25 99.63 220.53 C 97.27 222.92 95.61 226.59 92.02 227.31 C 72.64 231.35 53.23 235.26 33.87 239.43 C 31.02 239.99 28.17 240.86 25.23 240.72 C 23.19 238.49 22.45 235.28 23.60 232.44 C 27.43 220.69 31.36 208.98 35.17 197.23 C 36.38 193.45 38.82 190.25 41.13 187.09 C 42.14 185.37 44.23 185.05 45.91 184.32 C 44.22 187.67 41.78 191.04 42.17 195.01 C 42.33 198.69 45.07 202.55 48.94 202.89 C 52.12 203.27 55.00 201.37 56.97 199.04 C 60.98 194.30 63.88 187.83 61.96 181.58 C 68.72 180.15 75.52 178.92 82.28 177.50 C 79.78 180.25 76.87 183.12 76.54 187.05 C 76.32 190.55 75.67 194.78 78.43 197.52 C 81.90 200.76 87.60 199.85 90.96 196.89 C 97.26 191.75 101.17 182.23 96.96 174.63 Z" />
<path fill="#3e3e3e" opacity="1.00" d=" M 79.27 203.52 C 82.82 201.57 87.92 202.46 89.65 206.39 C 93.23 214.04 87.60 223.32 79.93 225.64 C 74.93 228.02 69.74 222.75 69.46 217.92 C 69.50 211.76 73.72 206.00 79.27 203.52 Z" />
<path fill="#3e3e3e" opacity="1.00" d=" M 42.34 209.59 C 45.37 208.53 49.14 207.82 51.84 210.07 C 55.13 212.52 55.37 217.31 53.71 220.78 C 51.53 225.87 48.05 231.52 42.02 232.28 C 36.26 233.57 32.48 226.87 33.32 221.89 C 34.43 216.85 37.16 211.43 42.34 209.59 Z" />
<path fill="#3e3e3e" opacity="1.00" d=" M 101.92 234.39 C 104.18 231.69 106.46 229.02 108.83 226.42 C 110.19 227.96 111.59 229.48 113.06 230.92 C 130.70 247.87 148.27 264.90 165.83 281.94 C 163.93 283.71 161.97 285.42 159.99 287.11 C 140.55 269.63 121.32 251.92 101.92 234.39 Z" />
<path fill="#3e3e3e" opacity="1.00" d=" M 362.01 296.96 C 370.92 295.80 379.95 294.86 388.93 295.84 C 396.33 297.00 403.50 299.24 410.56 301.69 C 413.66 302.81 415.71 305.81 416.17 309.01 C 418.34 320.94 419.74 333.00 421.69 344.96 C 422.45 349.10 421.98 353.77 418.89 356.90 C 413.24 362.44 406.29 366.35 399.79 370.78 C 389.46 376.29 377.54 377.55 366.04 378.39 C 358.55 379.08 351.29 376.81 343.94 375.91 C 340.29 375.63 337.21 373.56 334.59 371.16 C 334.16 371.23 333.30 371.38 332.87 371.45 C 332.24 374.13 332.14 377.15 330.37 379.39 C 327.92 381.58 324.55 382.21 321.59 383.46 C 321.84 384.89 322.10 386.33 322.36 387.77 C 326.23 387.29 330.27 386.94 334.02 388.27 C 339.25 390.10 343.03 394.39 347.23 397.80 C 363.57 411.44 379.70 425.33 396.02 438.99 C 397.14 440.10 398.92 440.32 400.13 439.18 C 405.18 435.34 409.81 430.94 414.29 426.44 C 404.56 417.54 396.44 407.12 388.04 397.01 C 385.12 393.66 385.22 387.65 389.32 385.28 C 412.90 368.53 436.54 351.86 460.16 335.17 C 463.24 333.15 466.08 330.04 470.01 330.02 C 474.32 330.11 478.66 330.87 482.69 332.41 C 485.97 333.84 486.99 337.61 488.26 340.63 C 496.15 361.30 504.26 381.90 512.00 402.62 L 512.00 413.12 C 508.38 427.55 505.24 442.09 501.70 456.55 C 505.14 455.86 508.59 455.23 512.00 454.38 L 512.00 464.20 C 509.00 464.48 505.19 463.28 503.04 466.03 C 497.53 472.03 492.54 478.50 486.92 484.41 C 488.88 478.29 491.40 472.34 492.77 466.04 C 496.26 450.72 500.00 435.46 503.44 420.14 C 504.36 415.75 505.85 411.45 506.22 406.97 C 505.73 403.29 503.96 399.97 502.69 396.53 C 496.32 380.07 489.93 363.62 483.59 347.15 C 482.40 344.22 481.65 341.02 479.74 338.46 C 476.61 337.29 473.25 336.99 469.99 336.41 C 444.09 354.85 418.01 373.03 392.16 391.52 C 396.92 397.18 401.58 402.94 406.36 408.59 C 411.92 415.12 418.55 420.61 424.58 426.69 C 411.13 439.19 396.88 450.89 384.57 464.56 C 379.11 469.52 373.96 474.79 368.55 479.80 C 370.05 475.01 372.01 470.40 373.91 465.77 C 376.99 457.67 383.92 451.65 386.23 443.18 C 380.85 438.01 374.74 433.70 369.04 428.91 C 355.98 418.12 342.93 407.32 329.92 396.47 C 325.99 398.41 321.57 400.19 319.12 404.04 C 314.93 410.85 314.11 419.44 308.61 425.50 C 306.09 428.74 302.74 431.17 299.05 432.91 C 294.08 435.29 289.66 439.17 284.02 439.86 C 275.69 440.95 267.44 442.99 258.99 442.78 C 238.29 443.05 217.56 444.21 196.86 443.07 C 208.58 441.29 220.38 440.07 232.13 438.42 C 231.49 431.90 224.35 429.82 220.88 425.10 C 213.72 415.85 205.76 406.56 202.81 394.97 C 200.05 385.62 196.50 375.91 198.31 366.03 C 198.88 355.70 202.35 345.94 205.43 336.17 C 207.09 331.32 209.59 326.82 211.84 322.23 C 206.92 322.46 201.98 322.68 197.10 323.42 C 184.84 325.22 172.55 326.89 160.29 328.69 C 158.82 331.72 157.36 334.75 155.92 337.79 C 165.53 336.77 175.12 335.60 184.71 334.35 C 184.65 340.59 181.50 346.08 179.60 351.86 C 178.40 355.37 177.38 358.94 176.30 362.49 C 167.07 363.79 157.76 364.44 148.51 365.64 C 145.46 374.95 148.92 384.81 146.53 394.22 C 138.34 395.15 130.15 396.19 121.97 397.24 C 120.29 397.30 117.68 398.02 117.26 395.72 C 114.34 387.11 115.24 377.72 117.24 369.00 C 109.24 369.70 101.27 370.63 93.29 371.50 C 92.37 362.21 94.70 352.25 101.50 345.55 C 103.28 343.56 106.10 343.59 108.54 343.23 C 114.16 342.66 119.78 342.00 125.40 341.33 C 126.52 338.62 127.61 335.90 128.69 333.18 C 103.80 336.59 78.94 340.26 54.04 343.68 C 50.29 344.26 46.06 344.27 43.04 346.92 C 36.57 352.29 31.81 359.41 27.60 366.60 C 23.32 375.74 19.74 385.74 20.89 395.99 C 21.61 401.72 20.82 407.84 23.55 413.16 C 28.50 423.25 33.32 433.66 41.07 441.98 C 47.59 449.37 54.76 457.88 65.02 459.55 C 84.76 457.52 104.42 454.56 124.15 452.32 C 110.83 457.02 97.49 461.67 84.19 466.41 C 73.72 470.71 62.20 470.55 51.18 472.34 C 46.58 468.42 41.98 464.48 37.79 460.11 C 33.91 456.05 29.05 452.84 26.13 447.94 C 23.84 444.09 21.74 440.15 19.36 436.36 C 12.99 439.68 6.36 442.49 0.00 445.84 L 0.00 433.81 C 4.57 431.18 9.87 430.07 14.36 427.32 C 18.05 423.58 18.17 417.35 16.23 412.70 C 13.93 406.68 14.86 400.13 13.88 393.88 C 13.93 382.38 17.49 371.09 22.83 361.00 C 27.82 353.46 32.94 345.62 40.52 340.43 C 45.37 336.94 51.70 337.55 57.29 336.33 C 89.17 331.74 121.07 327.26 153.00 323.02 C 166.93 320.68 180.92 318.74 194.92 316.90 C 205.17 315.28 215.61 315.21 225.85 313.49 C 235.54 312.01 245.14 309.40 254.98 309.31 C 262.40 310.10 269.93 310.73 277.15 312.70 C 286.29 316.23 294.99 320.94 302.82 326.83 C 306.56 326.54 310.24 325.74 313.98 325.58 C 318.40 325.74 321.62 329.23 323.95 332.63 C 324.77 332.46 326.43 332.12 327.26 331.95 C 326.60 327.35 325.01 322.04 328.05 317.92 C 332.66 312.30 337.85 306.96 344.10 303.18 C 349.95 300.83 355.63 297.64 362.01 296.96 Z" />
<path fill="#f4722b" opacity="1.00" d=" M 360.92 304.13 C 367.89 303.05 374.93 302.02 382.01 302.32 C 391.47 302.41 400.52 305.58 409.30 308.83 C 411.31 321.25 413.02 333.72 415.00 346.15 C 415.54 348.57 415.15 351.40 413.11 353.04 C 408.75 356.78 403.87 359.87 399.18 363.17 C 389.02 369.64 376.73 370.83 364.99 371.53 C 358.61 372.00 352.37 370.22 346.09 369.43 C 344.04 368.97 341.37 368.90 340.34 366.74 C 339.27 364.26 339.14 361.51 338.64 358.89 C 336.59 346.98 334.45 335.08 332.79 323.10 C 337.77 317.38 342.67 310.98 349.96 308.10 C 353.59 306.73 357.03 304.72 360.92 304.13 Z" />
<path fill="#3e3e3e" opacity="1.00" d=" M 369.53 310.83 C 376.56 309.92 383.88 309.04 390.78 311.26 C 393.11 312.09 394.97 314.43 394.81 316.98 C 394.69 322.25 392.01 327.64 387.43 330.40 C 377.92 336.54 366.25 338.72 355.09 337.33 C 350.87 336.46 346.57 334.61 343.74 331.26 C 342.33 327.33 344.96 323.33 347.52 320.52 C 353.73 315.28 361.57 312.19 369.53 310.83 Z" />
<path fill="#f4722b" opacity="1.00" d=" M 225.83 320.36 C 237.86 318.72 249.93 314.75 262.16 316.90 C 266.67 317.57 271.32 317.81 275.60 319.53 C 283.17 322.54 290.51 326.21 297.11 331.03 C 293.32 342.94 293.70 356.05 298.29 367.68 C 302.30 374.99 308.36 381.12 315.42 385.55 C 312.67 394.07 310.97 403.22 305.53 410.57 C 302.15 414.83 299.04 419.36 295.01 423.06 C 292.34 425.60 289.85 428.99 285.90 429.44 C 272.27 431.39 258.67 433.73 245.02 435.54 C 238.95 434.79 234.34 430.00 230.27 425.80 C 225.83 420.81 220.60 416.29 218.01 409.97 C 213.16 399.34 206.77 388.97 205.61 377.11 C 204.59 371.10 205.54 364.99 206.62 359.06 C 208.57 350.84 209.73 342.28 213.74 334.72 C 216.37 329.12 219.17 322.00 225.83 320.36 Z" />
<path fill="#f4722b" opacity="1.00" d=" M 197.10 323.42 C 201.98 322.68 206.92 322.46 211.84 322.23 C 209.59 326.82 207.09 331.32 205.43 336.17 C 202.35 345.94 198.88 355.70 198.31 366.03 C 196.50 375.91 200.05 385.62 202.81 394.97 C 205.76 406.56 213.72 415.85 220.88 425.10 C 224.35 429.82 231.49 431.90 232.13 438.42 C 220.38 440.07 208.58 441.29 196.86 443.07 C 217.56 444.21 238.29 443.05 258.99 442.78 C 267.44 442.99 275.69 440.95 284.02 439.86 C 289.66 439.17 294.08 435.29 299.05 432.91 C 302.74 431.17 306.09 428.74 308.61 425.50 C 314.11 419.44 314.93 410.85 319.12 404.04 C 321.57 400.19 325.99 398.41 329.92 396.47 C 342.93 407.32 355.98 418.12 369.04 428.91 C 374.74 433.70 380.85 438.01 386.23 443.18 C 383.92 451.65 376.99 457.67 373.91 465.77 C 372.01 470.40 370.05 475.01 368.55 479.80 C 373.96 474.79 379.11 469.52 384.57 464.56 C 396.88 450.89 411.13 439.19 424.58 426.69 C 418.55 420.61 411.92 415.12 406.36 408.59 C 401.58 402.94 396.92 397.18 392.16 391.52 C 418.01 373.03 444.09 354.85 469.99 336.41 C 473.25 336.99 476.61 337.29 479.74 338.46 C 481.65 341.02 482.40 344.22 483.59 347.15 C 489.93 363.62 496.32 380.07 502.69 396.53 C 503.96 399.97 505.73 403.29 506.22 406.97 C 505.85 411.45 504.36 415.75 503.44 420.14 C 500.00 435.46 496.26 450.72 492.77 466.04 C 491.40 472.34 488.88 478.29 486.92 484.41 C 492.54 478.50 497.53 472.03 503.04 466.03 C 505.19 463.28 509.00 464.48 512.00 464.20 L 512.00 512.00 L 0.00 512.00 L 0.00 445.84 C 6.36 442.49 12.99 439.68 19.36 436.36 C 21.74 440.15 23.84 444.09 26.13 447.94 C 29.05 452.84 33.91 456.05 37.79 460.11 C 41.98 464.48 46.58 468.42 51.18 472.34 C 62.20 470.55 73.72 470.71 84.19 466.41 C 97.49 461.67 110.83 457.02 124.15 452.32 C 104.42 454.56 84.76 457.52 65.02 459.55 C 54.76 457.88 47.59 449.37 41.07 441.98 C 33.32 433.66 28.50 423.25 23.55 413.16 C 20.82 407.84 21.61 401.72 20.89 395.99 C 19.74 385.74 23.32 375.74 27.60 366.60 C 31.81 359.41 36.57 352.29 43.04 346.92 C 46.06 344.27 50.29 344.26 54.04 343.68 C 78.94 340.26 103.80 336.59 128.69 333.18 C 127.61 335.90 126.52 338.62 125.40 341.33 C 119.78 342.00 114.16 342.66 108.54 343.23 C 106.10 343.59 103.28 343.56 101.50 345.55 C 94.70 352.25 92.37 362.21 93.29 371.50 C 101.27 370.63 109.24 369.70 117.24 369.00 C 115.24 377.72 114.34 387.11 117.26 395.72 C 117.68 398.02 120.29 397.30 121.97 397.24 C 130.15 396.19 138.34 395.15 146.53 394.22 C 148.92 384.81 145.46 374.95 148.51 365.64 C 157.76 364.44 167.07 363.79 176.30 362.49 C 177.38 358.94 178.40 355.37 179.60 351.86 C 181.50 346.08 184.65 340.59 184.71 334.35 C 175.12 335.60 165.53 336.77 155.92 337.79 C 157.36 334.75 158.82 331.72 160.29 328.69 C 172.55 326.89 184.84 325.22 197.10 323.42 Z" />
<path fill="#f4722b" opacity="1.00" d=" M 301.55 334.36 C 305.69 333.62 309.81 332.48 314.04 332.42 C 316.58 333.62 318.12 336.11 319.92 338.16 C 317.05 342.74 316.28 348.61 318.54 353.60 C 319.82 356.99 323.00 359.01 325.84 360.97 C 325.55 365.32 325.84 369.68 325.66 374.04 C 322.95 376.23 319.22 376.81 316.03 378.16 C 312.28 374.19 307.47 371.21 304.35 366.68 C 298.69 356.86 300.06 345.09 301.55 334.36 Z" />
<path fill="#f4722b" opacity="1.00" d=" M 322.13 340.03 C 325.28 338.63 328.83 338.65 332.18 338.07 C 330.06 344.14 331.67 350.64 334.82 356.02 C 332.35 356.49 329.94 357.29 327.43 357.51 C 321.01 354.41 319.84 346.15 322.13 340.03 Z" />
<path fill="#3e3e3e" opacity="1.00" d=" M 472.86 346.32 C 474.21 346.17 475.56 346.40 476.26 347.71 C 478.13 349.99 479.81 352.41 481.61 354.74 C 479.83 358.46 477.91 362.10 475.79 365.63 C 471.65 366.24 467.46 366.29 463.33 365.55 C 461.30 363.49 459.21 361.49 457.11 359.52 C 458.37 355.44 459.58 351.19 462.45 347.90 C 462.54 350.36 462.56 352.83 462.53 355.30 C 464.95 358.01 468.63 359.81 472.24 358.36 C 474.04 356.75 475.42 354.75 476.95 352.89 C 475.56 350.71 474.16 348.54 472.86 346.32 Z" />
<path fill="#3e3e3e" opacity="1.00" d=" M 421.00 389.98 C 421.68 385.78 421.85 381.23 424.68 377.80 C 424.58 379.75 424.43 381.71 424.27 383.66 C 426.17 384.55 428.08 385.45 429.99 386.35 C 431.69 385.72 433.39 385.09 435.08 384.44 C 435.96 382.91 436.88 381.41 437.89 379.97 C 437.43 384.20 437.87 390.42 432.93 392.09 C 431.61 392.73 430.26 393.29 428.93 393.89 C 426.27 392.61 423.63 391.30 421.00 389.98 Z" />
<path fill="#3e3e3e" opacity="1.00" d=" M 404.00 391.25 C 406.31 389.35 408.58 387.42 410.85 385.47 C 421.64 396.67 432.54 407.76 443.21 419.07 C 461.93 414.66 480.44 409.37 499.10 404.71 C 501.36 403.67 501.83 406.55 502.31 408.05 C 502.47 410.23 501.47 413.24 498.96 413.59 C 481.83 418.19 464.69 422.78 447.54 427.34 C 443.65 428.29 441.04 431.61 438.61 434.56 C 430.41 446.35 421.79 457.85 413.35 469.46 C 407.56 470.57 402.10 468.51 396.99 466.03 C 407.18 456.19 417.74 446.72 428.18 437.15 C 431.69 434.15 435.17 431.07 437.75 427.20 C 434.93 421.59 429.78 417.86 425.49 413.46 C 418.16 406.23 410.88 398.93 404.00 391.25 Z" />
<path fill="#f5e5c1" opacity="1.00" d=" M 501.70 456.55 C 505.24 442.09 508.38 427.55 512.00 413.12 L 512.00 454.38 C 508.59 455.23 505.14 455.86 501.70 456.55 Z" />
</svg>
