<?xml version="1.0" encoding="UTF-8" ?>
<!DOCTYPE svg PUBLIC "-//W3C//DTD SVG 1.1//EN" "http://www.w3.org/Graphics/SVG/1.1/DTD/svg11.dtd">
<svg width="512pt" height="512pt" viewBox="0 0 512 512" version="1.1" xmlns="http://www.w3.org/2000/svg">
<path fill="#3e3e3e" opacity="1.00" d=" M 0.00 0.00 L 512.00 0.00 L 512.00 512.00 L 0.00 512.00 L 0.00 0.00 Z" />
<path fill="#f5e5c1" opacity="1.00" d=" M 303.01 4.89 C 311.95 8.23 319.40 15.29 323.10 24.10 C 327.49 34.31 326.89 45.93 324.17 56.49 C 321.89 64.98 318.79 73.40 313.58 80.56 C 309.74 86.64 303.21 90.18 298.73 95.72 C 293.49 100.96 289.55 107.63 288.40 115.02 C 286.88 125.45 288.45 135.96 288.95 146.40 C 279.83 132.55 275.45 115.46 277.50 98.94 C 279.13 85.56 285.18 72.99 293.54 62.53 C 301.22 53.01 309.75 43.48 313.31 31.53 C 315.88 21.40 309.89 11.79 303.01 4.89 Z" />
<path fill="#f5e5c1" opacity="1.00" d=" M 270.89 170.02 C 272.59 164.41 271.25 158.35 272.92 152.74 C 273.46 152.66 274.55 152.50 275.09 152.42 C 278.34 155.97 280.33 160.43 282.96 164.42 C 286.31 160.23 289.56 155.96 292.96 151.80 C 295.22 158.67 297.49 165.53 299.81 172.37 C 306.13 168.71 312.54 165.20 318.86 161.55 C 316.43 185.52 313.93 209.49 311.35 233.46 C 305.28 234.53 299.17 235.57 292.99 235.50 C 285.83 235.37 278.44 236.13 271.55 233.69 C 265.64 231.56 259.86 228.91 254.65 225.38 C 256.34 208.02 257.93 190.64 259.64 173.28 C 262.27 175.55 264.89 177.82 267.52 180.10 C 268.70 176.76 269.90 173.42 270.89 170.02 Z" />
<path fill="#3e3e3e" opacity="1.00" d=" M 272.86 189.89 C 278.52 181.34 283.90 172.59 289.76 164.18 C 291.12 168.92 292.23 173.73 293.80 178.41 C 294.48 180.60 296.96 181.39 299.03 181.46 C 304.08 182.27 306.76 177.07 310.20 174.39 C 308.29 190.82 306.60 207.27 304.92 223.72 C 296.94 224.52 288.92 224.70 280.93 225.35 C 275.58 226.04 270.84 222.89 266.19 220.74 C 265.44 210.43 266.10 200.04 265.66 189.70 C 267.82 190.81 271.08 192.57 272.86 189.89 Z" />
<path fill="#f5e5c1" opacity="1.00" d=" M 218.04 221.15 C 226.97 216.36 237.19 214.92 247.10 213.61 C 248.95 213.06 251.02 214.07 251.59 215.94 C 251.81 220.53 249.61 225.04 250.33 229.59 C 253.90 232.89 258.85 233.95 263.19 235.89 C 267.41 237.34 271.42 240.10 276.07 239.68 C 289.23 239.07 302.52 240.21 315.53 237.70 C 316.34 232.30 316.93 226.86 317.79 221.46 C 317.95 219.62 319.69 218.63 320.87 217.43 C 331.13 219.99 341.73 222.44 350.75 228.23 C 354.37 230.61 358.08 234.28 357.53 239.02 C 356.67 247.78 355.26 256.48 354.18 265.21 C 339.84 268.34 325.82 273.45 311.09 274.33 C 310.17 272.19 309.25 270.05 308.33 267.93 C 320.42 267.19 332.43 265.29 344.15 262.23 C 344.67 257.73 345.33 253.25 345.89 248.76 C 333.46 253.28 320.13 254.42 307.01 255.07 C 290.29 255.53 273.51 254.53 256.99 251.82 C 244.95 249.84 232.92 247.01 221.83 241.78 C 221.86 246.01 221.87 250.25 221.79 254.49 C 234.76 260.22 248.68 263.52 262.63 265.88 C 262.97 267.92 263.30 269.96 263.62 272.01 C 254.26 270.00 244.60 269.10 235.61 265.67 C 227.62 262.80 219.59 260.07 211.64 257.10 C 211.42 248.03 211.82 238.95 211.32 229.89 C 211.22 225.83 214.84 222.98 218.04 221.15 Z" />
<path fill="#f5e5c1" opacity="1.00" d=" M 268.30 262.46 C 273.38 260.93 278.73 261.67 283.95 261.53 C 288.62 261.63 293.31 261.25 297.97 261.71 C 299.75 261.69 300.76 263.21 301.32 264.69 C 313.25 292.35 325.28 319.98 337.19 347.66 C 338.57 350.99 340.36 354.18 341.13 357.73 C 346.79 383.18 352.54 408.61 358.22 434.06 C 359.16 436.16 357.62 437.83 356.26 439.22 C 360.91 442.70 364.16 448.18 364.23 454.06 C 363.41 459.83 358.73 464.06 354.14 467.16 C 349.86 468.20 345.21 469.65 340.92 467.83 C 337.17 466.94 334.36 464.21 331.60 461.70 C 330.94 458.06 330.68 454.35 331.57 450.72 C 329.06 450.23 326.20 449.59 325.12 446.96 C 313.06 425.01 301.04 403.03 288.98 381.08 C 287.75 378.71 286.11 376.49 285.46 373.88 C 279.72 336.75 274.08 299.59 268.30 262.46 Z" />
<path fill="#3e3e3e" opacity="1.00" d=" M 278.14 268.48 C 281.05 266.70 284.58 267.50 287.81 267.39 C 298.20 298.67 308.08 330.11 318.36 361.43 C 325.59 382.96 332.83 404.48 340.04 426.02 C 341.23 429.62 342.61 433.16 343.97 436.70 C 340.47 438.49 336.96 440.25 333.43 441.97 C 320.72 418.87 308.08 395.73 295.38 372.63 C 294.23 370.55 293.90 368.17 293.53 365.86 C 288.53 333.38 282.87 301.00 278.14 268.48 Z" />
<path fill="#f5e5c1" opacity="1.00" d=" M 216.43 271.48 C 218.66 270.69 220.21 268.84 222.08 267.48 C 230.23 269.59 238.04 272.98 246.04 275.64 C 245.31 277.25 245.01 279.34 243.35 280.30 C 240.36 281.87 237.01 282.57 233.85 283.69 C 188.21 298.59 142.52 313.35 96.92 328.36 C 93.74 329.55 91.20 326.80 88.60 325.47 C 83.53 322.86 78.37 320.44 73.16 318.13 C 61.33 326.01 49.34 333.64 37.50 341.52 C 35.80 342.73 33.83 343.46 31.79 343.84 C 31.64 345.60 31.49 347.37 31.34 349.14 C 33.98 352.60 38.23 353.53 42.22 354.51 C 52.02 348.59 61.68 342.46 71.41 336.43 C 73.07 335.50 74.86 334.17 76.85 334.97 C 89.34 338.16 101.79 341.51 114.26 344.75 C 116.87 345.55 119.52 344.49 122.07 343.97 C 170.72 332.46 219.45 321.20 268.08 309.64 C 270.55 311.34 271.12 314.35 271.58 317.10 C 266.19 318.40 260.81 319.76 255.40 320.98 C 254.49 335.93 253.91 350.89 253.31 365.85 C 260.92 368.77 269.24 369.17 277.27 368.22 C 277.47 369.93 277.68 371.65 277.88 373.38 C 268.07 374.39 257.46 374.18 248.65 369.25 C 247.91 367.58 248.17 365.70 248.14 363.94 C 248.64 350.07 249.45 336.21 249.97 322.34 C 207.08 332.62 164.20 342.95 121.32 353.29 C 118.10 353.97 114.73 355.44 111.44 354.31 C 99.62 350.38 87.96 345.93 76.09 342.24 C 66.50 347.40 57.41 353.54 48.06 359.14 C 41.47 364.24 30.11 362.43 26.31 354.73 C 23.69 349.37 24.27 343.05 25.67 337.44 C 26.06 335.17 28.11 333.91 29.87 332.76 C 41.28 325.54 52.64 318.24 64.00 310.95 C 66.44 309.74 68.70 306.98 71.61 307.46 C 78.14 310.38 84.15 314.36 90.60 317.45 C 92.30 318.38 94.12 317.22 95.80 316.83 C 114.17 310.58 132.90 305.33 150.83 297.84 C 172.69 289.02 194.55 280.22 216.43 271.48 Z" />
<path fill="#f5e5c1" opacity="1.00" d=" M 349.46 271.80 C 352.76 271.02 356.05 270.17 359.25 269.05 C 369.63 275.88 379.82 283.00 390.16 289.89 C 392.50 291.45 394.85 293.04 396.76 295.12 C 408.41 307.86 420.08 320.59 431.78 333.28 C 432.91 334.61 434.80 336.50 433.26 338.26 C 429.65 342.41 425.47 346.04 421.44 349.77 C 425.57 349.54 430.18 349.66 433.41 352.64 C 435.98 355.16 437.81 358.53 438.55 362.06 C 438.33 364.52 437.12 366.75 436.22 369.02 C 431.05 372.83 424.06 373.58 418.05 371.48 C 414.80 370.54 414.13 366.67 412.97 363.96 C 411.83 361.86 412.82 359.65 413.52 357.61 C 410.51 358.64 407.00 358.75 404.55 356.42 C 388.41 343.25 372.33 329.98 356.17 316.84 C 352.97 314.31 350.82 310.79 348.36 307.59 C 340.85 297.61 333.41 287.58 325.85 277.63 C 329.06 276.81 332.27 276.01 335.48 275.18 C 342.67 284.47 349.61 293.96 356.70 303.34 C 359.30 306.70 361.55 310.42 364.85 313.17 C 379.68 325.33 394.56 337.44 409.35 349.66 C 413.84 345.36 418.20 340.93 422.77 336.71 C 410.77 323.53 398.82 310.31 386.58 297.36 C 374.49 288.46 361.65 280.58 349.46 271.80 Z" />
<path fill="#3e3e3e" opacity="1.00" d=" M 430.53 356.39 C 433.23 358.30 435.78 361.35 434.28 364.87 C 431.51 370.64 422.36 371.16 418.12 366.79 C 415.76 364.20 416.85 360.52 418.51 357.88 C 418.97 361.46 421.99 365.27 425.98 364.13 C 429.51 363.32 430.45 359.52 430.53 356.39 Z" />
<path fill="#f5e5c1" opacity="1.00" d=" M 404.78 364.68 C 405.95 364.04 407.13 363.40 408.31 362.77 C 409.66 366.52 410.77 370.55 413.35 373.67 C 418.75 377.17 425.68 377.10 431.80 375.91 C 435.22 374.34 439.52 372.74 440.76 368.80 C 441.58 366.77 442.19 364.67 442.82 362.58 C 449.20 364.36 455.57 366.73 460.68 371.10 C 459.72 378.21 458.32 385.26 457.26 392.37 C 440.29 401.00 419.92 396.76 403.52 388.81 C 403.70 380.75 404.59 372.73 404.78 364.68 Z" />
<path fill="#3e3e3e" opacity="1.00" d=" M 412.26 380.77 C 423.85 385.52 436.63 386.85 449.04 385.57 C 448.59 389.75 444.17 389.81 440.95 390.29 C 431.06 391.37 421.19 388.77 412.20 384.78 C 412.21 383.44 412.24 382.10 412.26 380.77 Z" />
<path fill="#f5e5c1" opacity="1.00" d=" M 137.85 396.84 C 139.27 395.83 141.29 396.38 142.11 397.89 C 147.10 405.00 151.21 412.70 156.29 419.74 C 163.39 426.69 171.24 432.86 178.52 439.64 C 179.42 440.44 179.95 441.66 179.68 442.88 C 179.56 445.13 176.79 445.38 175.12 445.90 C 162.69 448.58 150.29 451.34 137.87 454.06 C 133.89 454.83 129.99 456.14 125.93 456.34 C 123.31 454.82 123.39 451.34 122.39 448.82 C 114.79 458.07 107.03 467.19 99.41 476.42 C 98.43 477.34 97.59 478.89 96.06 478.87 C 94.09 479.22 92.97 477.33 91.81 476.11 C 85.14 467.76 78.51 459.37 71.87 451.00 C 70.58 449.31 68.93 447.93 67.04 446.96 C 61.23 443.81 55.44 440.60 49.64 437.42 C 46.53 435.68 42.88 434.34 41.20 430.94 C 43.93 427.73 48.15 426.76 51.84 425.12 C 63.96 420.33 75.86 415.02 88.07 410.47 C 93.97 413.19 99.27 417.05 105.13 419.82 C 116.38 412.73 126.73 404.18 137.85 396.84 Z" />
<path fill="#3e3e3e" opacity="1.00" d=" M 111.02 423.39 C 120.14 416.56 129.46 410.00 138.72 403.36 C 143.21 410.19 147.20 417.39 152.06 423.96 C 158.10 429.84 164.77 435.05 170.90 440.85 C 156.76 443.65 142.77 447.13 128.63 449.92 C 128.83 444.62 129.30 439.17 128.13 433.95 C 123.21 429.41 116.62 427.03 111.02 423.39 Z" />
<path fill="#3e3e3e" opacity="1.00" d=" M 84.19 418.24 C 85.80 417.68 87.69 416.52 89.30 417.74 C 99.88 423.80 110.47 429.85 121.03 435.95 C 122.64 436.53 122.78 438.16 122.96 439.61 C 118.92 443.38 115.67 447.87 112.06 452.02 C 106.66 458.56 101.14 464.99 95.78 471.57 C 89.08 463.16 82.36 454.77 75.69 446.35 C 72.79 442.60 68.14 441.06 64.22 438.69 C 60.16 436.27 55.69 434.46 51.94 431.55 C 62.64 427.01 73.46 422.72 84.19 418.24 Z" />
<path fill="#f5e5c1" opacity="1.00" d=" M 261.53 431.53 C 265.62 429.58 267.13 434.62 268.60 437.35 C 270.50 441.77 274.54 446.33 272.27 451.41 C 265.91 461.25 259.04 470.77 252.68 480.62 C 251.44 482.26 250.23 484.57 247.89 484.63 C 219.90 485.37 191.88 485.46 163.88 485.77 C 161.28 486.23 158.52 483.96 159.47 481.23 C 160.38 477.96 160.01 473.17 163.30 471.37 C 179.94 470.46 196.44 468.08 212.96 465.98 C 217.10 465.22 221.49 466.43 225.45 464.67 C 234.37 461.35 243.56 458.75 252.40 455.22 C 256.19 447.66 257.50 438.98 261.53 431.53 Z" />
<path fill="#3e3e3e" opacity="1.00" d=" M 258.21 457.38 C 260.21 452.00 262.00 446.53 263.92 441.12 C 265.03 443.42 266.16 445.72 267.31 448.01 C 260.67 458.35 253.63 468.44 246.84 478.70 C 224.56 479.57 202.25 479.03 179.99 480.31 C 175.08 480.22 169.88 481.66 165.21 479.52 C 166.07 478.07 165.86 475.37 168.00 475.12 C 174.64 474.11 181.43 474.63 188.12 473.93 C 197.47 473.67 206.77 472.68 216.06 471.65 C 227.71 471.12 238.46 466.16 249.42 462.69 C 252.51 461.37 257.02 461.10 258.21 457.38 Z" />
<path fill="#3e3e3e" opacity="1.00" d=" M 354.42 452.03 C 354.75 450.32 354.78 448.58 354.89 446.85 C 356.60 449.86 358.24 453.40 356.81 456.87 C 355.07 462.82 347.14 465.60 342.11 461.91 C 339.00 460.01 338.01 456.37 337.45 453.01 C 338.98 454.75 340.49 456.80 342.91 457.30 C 347.32 458.17 352.25 456.01 354.42 452.03 Z" />
<path fill="#f5e5c1" opacity="1.00" d=" M 306.98 464.79 C 310.73 457.97 319.71 457.38 326.52 455.66 C 327.07 458.36 327.23 461.17 328.16 463.79 C 332.31 468.99 338.54 472.08 345.06 473.04 C 348.56 472.67 352.00 471.84 355.43 471.12 C 360.79 468.04 365.18 463.34 367.81 457.73 C 372.71 459.34 377.95 460.66 381.94 464.12 C 383.58 465.54 384.76 467.76 384.06 469.96 C 382.45 479.07 380.79 488.17 379.20 497.29 C 371.64 500.82 363.29 502.40 354.99 502.60 C 339.51 503.14 324.09 500.43 309.21 496.35 C 308.27 485.85 307.57 475.31 306.98 464.79 Z" />
<path fill="#f5e5c1" opacity="1.00" d=" M 452.30 457.44 C 454.09 456.60 456.08 457.32 457.59 458.38 C 464.80 463.19 471.99 468.04 479.24 472.79 C 481.00 473.90 482.46 475.40 483.82 476.97 C 482.84 477.97 482.37 479.68 480.90 480.09 C 477.52 480.61 474.09 480.43 470.69 480.60 C 469.39 481.70 468.24 484.17 466.20 482.97 C 456.65 478.98 446.96 475.32 437.32 471.58 C 435.13 471.06 434.47 468.34 435.60 466.58 C 437.30 465.27 439.71 465.68 441.54 464.59 C 445.28 462.45 448.42 459.35 452.30 457.44 Z" />
<path fill="#3e3e3e" opacity="1.00" d=" M 446.14 468.75 C 448.75 466.85 451.40 465.00 454.06 463.16 C 459.78 466.95 465.47 470.78 471.21 474.55 C 467.24 474.60 463.06 475.37 459.29 473.76 C 454.92 472.06 450.59 470.24 446.14 468.75 Z" />
<path fill="#3e3e3e" opacity="1.00" d=" M 316.33 475.49 C 328.66 479.92 341.95 480.96 354.96 480.54 C 361.13 480.42 367.25 479.43 373.25 478.02 C 372.47 482.84 372.31 487.76 371.32 492.55 C 366.12 495.45 359.84 495.65 354.02 496.18 C 341.48 496.39 328.96 494.45 316.86 491.30 C 316.79 486.02 316.52 480.76 316.33 475.49 Z" />
</svg>
