<?xml version="1.0" encoding="UTF-8" ?>
<!DOCTYPE svg PUBLIC "-//W3C//DTD SVG 1.1//EN" "http://www.w3.org/Graphics/SVG/1.1/DTD/svg11.dtd">
<svg width="512pt" height="512pt" viewBox="0 0 512 512" version="1.1" xmlns="http://www.w3.org/2000/svg">
<path fill="#3e3e3e" opacity="1.00" d=" M 0.00 0.00 L 512.00 0.00 L 512.00 512.00 L 0.00 512.00 L 0.00 0.00 Z" />
<path fill="#f4722b" opacity="1.00" d=" M 231.54 34.06 C 232.67 28.95 231.98 23.56 233.67 18.57 C 278.35 18.74 323.04 18.46 367.72 18.71 C 345.44 52.13 323.50 85.79 301.35 119.30 C 297.90 124.42 294.75 129.74 290.96 134.62 C 308.71 133.40 326.36 130.61 344.11 129.26 C 311.02 182.42 277.97 235.62 244.89 288.79 C 242.83 292.35 240.52 295.75 238.11 299.09 C 248.49 260.64 257.95 221.95 268.36 183.52 C 249.67 186.40 231.02 189.52 212.28 192.05 C 218.68 139.38 225.18 86.74 231.54 34.06 Z" />
<path fill="#f5e5c1" opacity="1.00" d=" M 124.71 125.82 C 126.28 124.36 128.42 122.70 130.56 124.25 C 147.28 133.28 164.36 141.68 180.69 151.38 C 183.99 153.78 187.27 156.28 191.07 157.86 C 193.07 158.57 195.11 159.15 197.16 159.70 C 198.68 162.84 200.42 165.86 202.05 168.94 C 202.81 170.14 202.82 171.75 202.06 172.96 C 194.38 186.18 187.31 199.76 179.45 212.88 C 179.51 213.59 179.57 214.30 179.63 215.01 C 182.08 215.70 184.11 217.25 186.24 218.57 C 195.71 224.13 205.05 229.93 214.51 235.52 C 217.09 237.11 219.57 238.94 222.49 239.89 C 222.50 240.69 222.52 241.50 222.53 242.30 C 218.56 247.19 215.42 252.67 211.76 257.79 C 203.02 270.70 194.30 283.64 185.54 296.54 C 184.25 298.56 182.05 300.36 182.44 303.01 C 187.57 304.26 192.11 307.13 196.93 309.20 C 201.03 310.88 204.94 313.00 209.01 314.77 C 213.68 316.82 218.25 319.11 222.90 321.20 C 227.06 322.88 230.92 325.19 235.12 326.78 C 236.46 327.44 237.80 328.11 239.15 328.77 C 242.14 330.08 245.08 331.50 248.07 332.81 C 248.99 333.30 249.91 333.79 250.83 334.28 C 254.70 335.51 258.13 337.74 261.87 339.27 C 266.31 341.02 270.43 343.48 274.92 345.14 C 278.70 345.56 277.65 349.41 276.86 351.98 C 276.26 355.97 275.53 359.95 274.84 363.93 C 273.69 369.56 272.95 375.27 271.77 380.89 C 271.18 385.09 270.26 389.24 270.21 393.50 C 270.64 393.55 271.50 393.66 271.93 393.71 C 279.51 396.19 287.34 397.86 294.98 400.17 C 297.29 400.74 299.59 401.37 301.93 401.88 C 302.69 402.15 304.21 402.69 304.97 402.96 C 300.04 408.41 294.36 413.12 288.55 417.61 C 286.19 419.23 286.47 422.38 285.82 424.85 C 283.95 433.92 281.89 442.95 279.88 452.00 C 278.43 459.40 276.53 466.70 275.21 474.13 L 274.80 474.87 C 274.57 477.64 273.68 480.29 272.19 482.64 C 269.93 482.61 267.54 482.63 265.57 481.34 C 249.64 472.56 233.07 464.88 217.53 455.48 C 213.56 452.02 208.72 449.89 204.04 447.58 C 196.40 447.33 188.72 446.99 181.18 445.78 C 164.72 443.62 148.74 438.32 134.00 430.71 C 131.43 429.50 129.06 426.97 125.97 427.62 C 111.76 429.74 97.39 430.91 83.23 433.30 C 80.83 433.50 78.34 433.36 76.04 434.20 C 73.36 434.51 70.58 434.85 67.95 434.09 C 66.16 428.53 67.98 422.68 68.47 417.05 C 69.80 406.00 71.66 395.01 72.74 383.93 C 73.96 379.15 76.27 373.33 72.90 368.94 C 71.13 365.70 69.63 362.32 68.21 358.93 C 67.47 357.26 66.80 355.57 66.27 353.83 C 65.74 352.57 65.21 351.33 64.68 350.09 C 64.59 349.55 64.42 348.48 64.34 347.95 C 61.57 341.61 60.61 334.66 59.10 327.95 C 58.35 323.87 58.26 319.70 57.38 315.63 C 44.53 300.77 31.96 285.67 19.13 270.80 C 17.26 267.96 19.26 264.99 21.85 263.59 C 22.42 263.53 23.55 263.39 24.11 263.32 C 31.08 259.26 38.66 256.36 45.87 252.72 C 47.27 252.22 48.64 251.62 49.86 250.77 C 53.64 249.33 57.20 247.38 60.88 245.72 C 62.63 244.92 64.38 244.12 66.12 243.29 C 67.68 242.37 69.36 241.71 71.06 241.11 C 78.39 225.41 88.80 211.23 101.17 199.13 C 104.09 196.15 107.92 193.94 110.24 190.47 C 113.81 174.64 117.25 158.77 120.87 142.95 C 121.94 138.32 122.88 133.65 123.87 129.00 C 124.16 127.94 124.44 126.89 124.71 125.82 Z" />
<path fill="#3e3e3e" opacity="1.00" d=" M 133.63 137.42 C 134.47 137.38 135.31 137.34 136.15 137.31 C 150.46 145.23 164.85 153.04 179.21 160.87 C 183.06 163.42 187.64 164.82 191.15 167.87 C 192.97 169.43 192.51 171.97 192.49 174.09 C 183.07 184.15 170.47 190.51 157.89 195.69 C 156.90 196.08 155.91 196.46 154.93 196.84 C 150.79 198.70 146.34 199.69 142.08 201.23 C 135.08 202.83 128.03 204.32 120.79 203.62 C 119.79 201.95 118.07 200.35 118.47 198.22 C 119.12 193.36 121.14 188.79 121.83 183.93 L 122.25 183.21 C 125.78 167.88 130.57 152.85 133.63 137.42 Z" />
<path fill="#f5e5c1" opacity="1.00" d=" M 387.59 141.56 C 388.39 141.57 389.19 141.59 389.99 141.61 C 391.43 143.41 393.56 144.38 395.37 145.74 C 403.60 152.13 411.25 159.31 418.04 167.22 C 420.83 168.61 424.04 168.25 426.96 169.22 C 429.44 169.52 431.98 169.68 434.34 170.60 C 437.08 171.78 440.17 171.15 442.95 172.19 C 446.58 172.74 450.19 173.42 453.84 173.91 C 457.31 174.88 460.82 175.78 464.46 175.58 L 464.55 176.39 C 468.10 176.35 471.51 177.37 474.98 177.89 C 476.95 178.43 479.00 178.61 480.95 179.25 C 481.57 179.32 482.81 179.45 483.42 179.52 C 484.48 180.31 485.54 181.10 486.62 181.88 C 486.54 183.21 486.37 184.53 486.11 185.84 C 480.59 197.01 475.26 208.29 469.63 219.41 C 468.46 221.19 467.48 223.10 467.18 225.23 C 464.04 229.83 462.25 235.19 458.83 239.61 C 456.32 244.17 453.42 248.79 452.56 254.00 C 452.68 266.01 452.82 278.28 449.54 289.93 C 449.21 292.23 450.32 294.20 451.28 296.18 C 452.63 301.20 453.94 306.24 455.82 311.10 C 457.08 314.66 457.98 318.35 459.18 321.94 C 459.52 322.93 459.87 323.93 460.23 324.94 C 460.68 326.69 461.22 328.43 461.82 330.15 C 462.14 331.13 462.46 332.12 462.78 333.11 C 465.00 339.69 466.86 346.39 469.17 352.93 C 470.25 358.12 473.17 362.91 472.70 368.37 C 471.53 369.08 470.53 370.33 469.07 370.35 C 464.69 370.71 460.28 370.39 455.89 370.73 C 455.44 370.86 454.53 371.13 454.07 371.26 C 436.27 371.61 418.46 371.86 400.67 371.55 C 391.00 380.24 379.58 386.69 368.02 392.48 C 367.74 392.47 367.17 392.45 366.89 392.45 C 365.28 393.97 363.01 394.22 361.13 395.27 C 359.69 395.73 358.25 396.19 356.83 396.70 C 352.26 398.25 347.72 400.05 342.93 400.82 C 340.39 401.88 337.62 401.74 334.94 401.61 C 328.05 392.58 320.40 384.14 313.46 375.15 C 313.44 374.61 313.38 373.54 313.35 373.00 C 315.46 371.58 317.18 369.72 318.88 367.85 C 327.55 359.17 336.32 350.57 345.07 341.97 C 345.93 341.22 345.36 339.94 345.50 338.96 C 341.72 334.60 339.76 329.04 336.60 324.26 C 325.44 304.77 314.25 285.30 303.04 265.84 C 301.88 263.97 300.70 262.09 300.05 259.98 C 297.18 256.72 295.60 252.55 293.33 248.88 C 294.01 248.64 295.38 248.16 296.06 247.92 C 297.04 247.53 298.01 247.14 298.99 246.74 C 299.51 246.61 300.57 246.36 301.09 246.24 C 302.99 245.40 304.94 244.66 306.84 243.81 C 308.26 243.29 309.69 242.79 311.13 242.31 C 317.67 239.69 324.35 237.44 330.88 234.77 C 332.29 234.25 333.72 233.76 335.16 233.30 C 336.39 232.76 337.63 232.26 338.88 231.76 C 340.32 231.29 341.73 230.76 343.14 230.22 C 344.10 229.85 345.07 229.49 346.04 229.15 C 347.71 228.47 349.40 227.82 351.11 227.23 C 352.36 226.72 353.62 226.22 354.88 225.73 C 356.63 225.21 358.35 224.56 359.98 223.72 C 360.46 223.65 361.42 223.53 361.90 223.46 C 361.68 221.21 361.13 219.01 360.26 216.92 C 358.14 213.46 356.87 209.56 355.23 205.86 C 353.91 202.87 352.45 199.95 351.30 196.89 C 349.94 194.41 349.18 191.65 347.77 189.18 C 346.24 184.34 342.93 180.04 342.40 174.93 C 346.96 173.62 350.84 170.69 355.39 169.36 L 355.64 168.68 C 362.71 166.16 369.15 162.10 376.12 159.30 C 377.04 158.76 377.95 158.23 378.88 157.70 C 381.50 156.82 383.97 155.53 386.38 154.18 C 387.13 150.01 387.84 145.81 387.59 141.56 Z" />
<path fill="#3e3e3e" opacity="1.00" d=" M 406.45 178.90 C 408.40 176.84 411.14 175.69 413.99 176.48 C 422.38 178.27 430.75 180.22 439.18 181.82 L 439.88 182.21 C 448.62 184.09 457.34 186.08 466.11 187.82 C 468.64 188.65 471.28 189.04 473.90 189.56 C 472.14 194.78 469.18 199.51 466.78 204.45 C 461.45 215.48 455.81 226.34 450.40 237.33 C 448.36 240.72 447.27 244.69 444.76 247.78 C 443.37 249.53 441.06 249.42 439.07 249.48 C 426.89 239.67 420.06 225.07 413.80 211.10 C 413.22 209.37 412.55 207.68 411.70 206.07 C 411.60 205.54 411.40 204.47 411.31 203.94 C 410.73 202.68 410.21 201.40 409.72 200.11 C 408.66 196.12 407.94 192.04 406.74 188.10 C 406.39 185.04 406.39 181.97 406.45 178.90 Z" />
<path fill="#3e3e3e" opacity="1.00" d=" M 113.95 223.79 C 122.64 223.06 131.32 221.93 139.95 220.79 C 143.01 220.46 146.10 220.51 149.17 220.62 L 149.89 221.21 C 155.03 221.84 160.51 222.08 165.02 224.93 C 173.65 229.44 179.39 238.37 181.16 247.82 C 184.75 267.65 172.30 288.27 153.90 295.79 C 142.45 300.56 128.13 299.79 118.36 291.67 C 112.82 287.52 109.66 281.18 106.69 275.11 C 106.73 271.68 105.60 268.40 105.47 265.00 C 105.52 251.50 103.89 238.04 104.51 224.53 C 107.66 224.54 110.88 224.69 113.95 223.79 Z" />
<path fill="#3e3e3e" opacity="1.00" d=" M 366.07 233.20 C 369.60 232.07 373.38 232.47 377.02 232.70 C 379.34 233.43 381.74 233.89 384.03 234.74 C 390.24 237.54 395.87 241.67 399.81 247.28 C 407.33 258.66 413.77 270.76 421.56 281.97 C 421.55 282.74 421.53 284.27 421.52 285.04 C 418.56 286.38 416.09 288.52 413.48 290.39 C 405.82 296.04 397.99 301.43 390.37 307.14 C 388.72 308.33 386.83 309.10 384.94 309.84 C 383.67 310.35 382.37 310.78 381.08 311.19 C 378.96 311.62 377.18 312.93 375.11 313.47 C 370.73 313.90 366.29 313.82 361.92 313.31 C 350.37 310.31 341.00 301.13 337.19 289.90 C 333.78 280.58 334.24 270.34 336.76 260.86 C 340.26 250.21 347.68 240.65 357.91 235.77 C 359.60 235.18 361.23 234.45 362.83 233.65 C 363.91 233.51 364.99 233.36 366.07 233.20 Z" />
<path fill="#3e3e3e" opacity="1.00" d=" M 74.62 249.57 C 80.23 247.70 85.43 244.81 90.90 242.58 C 93.09 241.87 95.20 243.06 97.22 243.78 C 99.54 249.92 98.58 256.60 98.57 263.01 C 97.87 270.06 96.69 277.08 94.84 283.92 C 93.90 287.28 93.19 290.73 91.87 293.97 C 88.80 303.03 85.12 312.09 79.08 319.62 C 76.67 319.60 73.58 320.35 71.94 318.04 C 68.95 314.05 65.36 310.55 62.65 306.35 C 55.75 297.55 48.52 289.00 41.83 280.04 C 39.14 276.66 36.53 273.22 33.50 270.14 C 33.53 269.41 33.57 268.68 33.61 267.96 C 37.65 266.79 41.44 264.84 45.02 262.69 C 45.55 262.63 46.61 262.50 47.14 262.44 C 51.42 260.27 55.74 258.15 60.13 256.22 C 62.75 255.11 65.38 254.04 67.93 252.77 C 69.68 252.26 71.48 251.76 72.86 250.49 C 73.23 250.52 73.97 250.59 74.34 250.62 L 74.62 249.57 Z" />
<path fill="#3e3e3e" opacity="1.00" d=" M 431.13 300.16 C 433.45 298.59 436.19 296.42 439.17 297.58 C 441.27 298.60 442.62 300.60 443.31 302.78 C 445.63 312.57 448.55 322.24 451.27 331.93 C 451.40 332.46 451.65 333.51 451.78 334.04 C 452.31 335.64 452.73 337.28 453.20 338.91 C 454.54 341.49 454.57 344.45 455.43 347.19 C 456.95 351.94 458.19 356.77 459.67 361.53 C 455.46 361.68 451.23 361.50 447.08 362.28 C 434.40 362.48 421.70 362.54 409.02 362.77 C 404.23 363.45 399.41 363.43 394.59 363.50 C 393.15 362.19 391.75 360.86 390.35 359.53 C 391.50 350.52 395.94 342.36 400.58 334.71 C 409.03 321.84 418.74 309.47 431.13 300.16 Z" />
<path fill="#3e3e3e" opacity="1.00" d=" M 159.53 340.47 C 164.02 335.14 170.41 331.89 176.94 329.74 C 182.24 328.49 187.69 328.23 193.11 328.71 C 196.10 329.41 199.17 329.80 202.11 330.73 C 212.72 334.48 222.19 341.90 227.47 351.96 C 232.01 360.14 232.80 370.09 230.22 379.03 C 227.21 386.89 221.49 393.95 213.98 397.84 C 209.28 400.38 204.13 401.61 199.13 403.35 C 198.60 403.46 197.52 403.69 196.98 403.81 C 187.26 406.43 177.87 410.84 167.77 411.64 C 165.30 403.93 161.68 396.63 159.22 388.92 C 155.95 381.27 152.12 373.50 152.28 364.97 C 150.24 356.26 153.75 347.03 159.53 340.47 Z" />
<path fill="#3e3e3e" opacity="1.00" d=" M 85.61 362.12 C 85.75 359.61 87.74 357.46 90.07 356.70 C 92.40 356.21 94.45 357.69 96.49 358.58 C 108.36 364.73 117.89 374.37 126.93 384.04 C 132.67 390.83 138.15 397.97 142.23 405.90 C 142.94 407.98 144.33 409.92 144.33 412.18 C 143.64 414.01 142.03 415.21 140.60 416.46 C 134.76 417.47 128.77 417.15 122.97 418.20 C 114.75 418.78 106.58 419.69 98.40 420.55 C 95.96 420.74 93.37 420.18 91.08 421.28 C 87.77 421.61 84.42 421.44 81.11 421.84 C 79.87 422.26 78.59 422.56 77.28 422.73 C 77.30 415.09 79.01 407.57 80.14 400.04 C 81.79 387.38 83.91 374.78 85.61 362.12 Z" />
<path fill="#3e3e3e" opacity="1.00" d=" M 250.98 407.12 C 256.78 405.01 262.90 404.07 268.91 402.79 C 271.62 402.63 274.42 402.27 277.08 403.02 C 281.47 406.63 278.63 412.31 277.52 416.74 C 273.34 434.43 268.19 451.88 264.41 469.65 C 263.58 469.60 262.75 469.55 261.92 469.51 C 244.30 459.22 226.01 450.04 208.18 440.07 C 206.76 439.22 205.63 437.78 205.50 436.10 C 204.69 433.17 207.35 431.03 209.14 429.15 C 216.82 422.42 225.83 417.36 235.10 413.16 C 237.40 412.05 239.77 411.08 242.19 410.27 C 244.05 409.35 246.00 408.63 248.02 408.12 C 249.01 407.79 250.00 407.45 250.98 407.12 Z" />
</svg>
