<?xml version="1.0" encoding="UTF-8" ?>
<!DOCTYPE svg PUBLIC "-//W3C//DTD SVG 1.1//EN" "http://www.w3.org/Graphics/SVG/1.1/DTD/svg11.dtd">
<svg width="512pt" height="512pt" viewBox="0 0 512 512" version="1.1" xmlns="http://www.w3.org/2000/svg">
<path fill="#3e3e3e" opacity="1.00" d=" M 0.00 0.00 L 512.00 0.00 L 512.00 512.00 L 0.00 512.00 L 0.00 0.00 Z" />
<path fill="#f5e5c1" opacity="1.00" d=" M 156.89 38.93 C 184.93 20.16 218.23 9.36 251.96 8.17 C 283.76 6.90 315.86 14.06 344.06 28.84 C 369.68 42.15 392.04 61.63 408.79 85.14 C 426.59 110.07 438.08 139.50 441.64 169.93 C 443.86 187.68 443.22 205.71 440.38 223.35 C 437.73 221.42 435.07 219.35 431.91 218.33 C 425.64 217.17 418.63 218.34 413.88 222.85 C 409.68 226.17 407.76 231.30 404.43 235.33 C 402.37 238.51 404.32 242.42 407.60 243.74 C 407.17 246.77 406.62 250.05 408.22 252.86 C 409.65 255.47 410.22 258.38 410.60 261.31 C 406.90 268.32 397.39 266.92 392.37 272.31 C 389.27 275.93 383.47 276.66 381.62 281.41 C 378.88 288.81 375.30 295.87 371.97 303.01 C 369.71 307.30 364.54 309.47 363.43 314.38 C 361.97 319.40 356.26 323.26 358.47 329.04 C 354.93 336.38 353.48 344.59 349.69 351.79 C 346.12 354.51 341.90 356.25 337.85 358.13 C 336.69 352.44 336.47 346.63 335.88 340.87 C 335.70 338.44 334.46 335.67 331.92 335.00 C 329.53 334.40 327.05 334.67 324.62 334.70 C 323.75 332.65 322.91 330.60 322.11 328.54 C 322.67 326.77 323.49 324.86 322.70 323.02 C 321.48 320.87 319.84 318.99 318.56 316.88 C 345.07 304.26 367.43 283.06 381.07 257.02 C 395.18 230.61 400.10 199.47 395.05 169.97 C 390.43 141.95 376.66 115.56 356.51 95.58 C 334.29 73.47 304.30 59.25 273.05 56.44 C 244.09 53.51 214.26 60.27 189.34 75.30 C 162.62 91.25 141.65 116.59 131.09 145.87 C 121.08 172.97 120.13 203.27 128.16 231.00 C 137.93 265.14 161.54 295.09 192.61 312.33 C 194.22 312.93 194.89 314.24 193.75 315.71 C 192.75 318.22 190.89 320.24 189.55 322.56 C 188.47 324.53 189.12 326.81 189.39 328.90 C 184.92 338.05 183.27 348.31 178.03 357.12 C 173.83 355.05 169.39 353.22 165.74 350.26 C 164.85 346.29 165.71 341.90 163.82 338.18 C 161.79 334.62 157.07 335.59 153.66 335.60 C 152.87 333.58 152.04 331.58 151.17 329.59 C 151.62 327.80 152.50 325.91 151.74 324.08 C 150.93 322.39 149.62 321.02 148.66 319.43 C 147.14 317.07 146.76 314.17 145.21 311.84 C 143.34 309.66 140.57 308.47 138.68 306.32 C 136.94 303.59 135.77 300.56 134.08 297.81 C 130.71 292.58 129.48 286.37 127.26 280.65 C 124.75 277.74 120.77 276.61 118.32 273.62 C 115.27 270.08 110.39 269.67 106.54 267.48 C 103.97 266.23 102.76 263.54 101.30 261.25 C 103.04 258.07 103.82 254.55 104.08 250.96 C 105.75 249.75 108.37 249.28 108.90 246.98 C 109.72 244.68 108.59 242.39 107.27 240.55 C 106.34 234.12 104.10 227.36 98.82 223.19 C 96.60 221.64 94.33 220.10 91.85 218.97 C 86.96 217.68 81.81 218.98 77.28 220.97 C 71.62 185.14 76.65 147.64 92.01 114.75 C 106.09 84.13 128.84 57.59 156.89 38.93 Z" />
<path fill="#f5e5c1" opacity="1.00" d=" M 195.00 99.05 C 216.17 84.63 242.37 77.71 267.89 80.10 C 294.41 82.25 319.92 94.43 338.48 113.47 C 358.55 133.93 370.36 162.30 370.45 190.98 C 370.83 216.98 361.62 242.95 345.14 263.05 C 334.12 276.72 319.70 287.47 303.76 294.73 C 301.10 290.04 300.25 284.65 298.22 279.73 C 295.69 276.80 291.68 275.68 289.21 272.66 C 284.92 267.64 276.26 268.78 273.44 262.15 C 288.88 258.90 303.16 250.29 313.08 238.00 C 323.22 225.75 328.87 209.89 328.88 194.00 C 328.97 179.47 324.33 164.95 315.86 153.14 C 305.59 138.65 289.56 128.33 272.08 125.14 C 255.37 121.94 237.49 125.02 222.95 133.90 C 208.58 142.46 197.55 156.41 192.49 172.34 C 187.67 187.07 188.04 203.38 193.41 217.91 C 201.00 238.97 219.36 255.78 241.09 261.28 C 237.78 268.64 227.62 266.90 222.77 272.71 C 219.96 276.02 214.57 276.41 212.83 280.69 C 211.19 284.62 209.47 288.53 207.88 292.49 C 183.77 280.55 164.32 259.61 154.20 234.69 C 143.65 209.31 143.02 180.01 152.32 154.17 C 160.24 131.90 175.39 112.27 195.00 99.05 Z" />
<path fill="#f4722b" opacity="1.00" d=" M 230.07 151.11 C 236.58 146.66 244.10 143.65 251.93 142.59 C 256.61 142.34 261.32 142.34 266.00 142.58 C 280.14 144.52 293.45 152.65 301.23 164.67 C 305.67 171.33 308.63 179.05 309.37 187.03 C 309.44 191.35 309.57 195.69 309.27 200.00 C 307.36 213.87 299.46 226.95 287.77 234.74 C 284.80 236.79 281.56 238.41 278.34 240.04 C 277.37 232.29 274.07 223.98 266.72 220.25 C 262.79 217.37 257.66 217.67 253.11 218.44 C 246.71 219.85 241.65 224.84 238.61 230.46 C 237.45 232.96 234.95 234.47 233.76 236.95 C 219.95 229.29 210.33 214.66 208.64 198.98 C 208.53 194.66 208.45 190.32 208.71 186.00 C 210.51 172.08 218.44 159.00 230.07 151.11 Z" />
<path fill="#f4722b" opacity="1.00" d=" M 253.32 223.43 C 256.98 222.80 261.22 222.26 264.42 224.59 C 269.90 227.63 272.82 233.98 272.80 240.09 C 272.68 242.08 274.52 243.30 275.57 244.75 C 273.59 244.72 271.62 244.71 269.65 244.71 C 269.69 247.89 270.06 251.09 269.69 254.27 C 266.55 255.50 268.31 259.56 266.82 262.02 C 268.89 263.78 270.05 266.25 271.52 268.48 C 274.50 270.74 277.84 272.66 281.49 273.59 C 284.50 274.16 285.93 277.12 288.32 278.69 C 290.28 279.98 292.31 281.19 294.22 282.57 C 295.95 292.00 301.17 300.14 305.63 308.45 C 306.79 310.55 310.49 310.98 309.79 313.95 C 310.37 313.89 311.53 313.77 312.11 313.71 C 313.68 317.76 315.37 321.80 318.19 325.18 C 317.35 325.85 316.51 326.52 315.67 327.19 C 317.92 331.25 319.69 335.55 321.45 339.84 C 324.57 339.71 327.69 339.64 330.82 339.60 C 331.43 348.10 332.20 356.63 334.17 364.94 C 335.41 369.87 338.72 374.03 339.94 378.95 C 339.18 382.23 337.88 385.37 336.25 388.32 C 334.70 390.96 334.37 394.12 332.81 396.74 C 330.22 399.53 326.88 401.48 323.92 403.84 C 323.08 401.87 322.26 399.90 321.44 397.93 C 323.29 395.56 325.01 393.09 326.45 390.46 C 324.95 390.74 323.45 391.02 321.96 391.31 C 320.66 386.93 324.62 384.50 327.34 381.93 C 326.83 380.09 325.90 378.42 324.18 377.49 C 323.15 378.57 321.46 379.35 321.44 381.05 C 320.92 384.91 319.54 388.54 318.08 392.12 C 316.53 391.98 314.99 391.85 313.45 391.72 C 313.03 388.10 311.99 384.56 311.88 380.91 C 312.25 378.14 313.29 375.52 314.08 372.85 C 311.12 367.55 308.40 362.10 305.07 357.01 C 304.37 355.75 303.36 354.58 303.11 353.14 C 304.10 351.57 305.37 350.19 306.57 348.78 C 304.10 345.33 301.75 341.79 299.85 338.00 C 298.76 337.87 297.67 337.74 296.59 337.62 C 295.95 334.07 294.66 330.66 292.50 327.75 C 292.92 326.80 293.34 325.85 293.77 324.90 C 292.70 323.02 291.59 321.17 290.42 319.36 C 286.69 328.38 285.45 339.15 289.67 348.21 C 288.29 349.47 286.91 350.71 285.53 351.97 C 285.94 352.46 286.76 353.44 287.17 353.93 C 287.20 356.86 286.61 359.86 287.15 362.76 C 289.84 365.83 293.71 367.55 296.53 370.47 C 297.17 373.34 298.08 376.13 299.00 378.92 C 298.15 389.49 296.09 399.93 295.19 410.50 C 292.90 410.80 290.61 411.09 288.33 411.36 C 287.82 415.60 287.49 419.86 287.27 424.13 C 288.79 425.19 290.30 426.27 291.83 427.33 C 291.42 428.81 291.00 430.29 290.60 431.78 C 289.59 431.36 288.58 430.94 287.58 430.52 C 289.72 437.86 292.33 445.29 292.04 453.04 C 292.01 458.56 293.30 464.13 292.06 469.61 C 293.13 471.28 295.28 472.72 294.87 474.96 C 294.34 480.21 293.15 485.38 292.53 490.62 C 292.12 491.02 291.31 491.82 290.91 492.22 C 293.64 496.67 295.67 501.55 296.04 506.81 C 288.11 506.67 280.14 507.40 272.25 506.52 C 271.72 505.10 271.20 503.68 270.67 502.27 C 269.68 501.57 268.70 500.88 267.72 500.19 C 267.79 498.18 267.85 496.18 267.91 494.18 C 266.64 492.92 264.77 491.90 264.60 489.94 C 263.73 484.01 262.69 478.10 262.01 472.15 C 262.81 471.52 263.62 470.91 264.43 470.30 C 264.35 463.52 262.52 456.69 264.02 449.97 C 264.89 443.61 266.39 437.36 267.12 430.99 C 267.50 428.47 265.90 426.35 264.87 424.21 C 262.13 419.10 261.02 413.34 258.91 407.97 C 256.92 407.94 254.92 407.84 252.94 408.05 C 250.84 410.66 250.56 414.27 249.35 417.35 C 248.25 421.37 246.00 424.96 244.94 428.98 C 244.04 438.43 248.01 447.51 248.00 456.92 C 247.73 461.61 247.62 466.31 247.36 471.01 C 247.85 471.28 248.85 471.82 249.35 472.09 C 248.89 477.77 247.65 483.36 247.00 489.02 C 247.08 491.48 245.06 492.95 243.43 494.40 C 243.46 496.39 243.51 498.40 243.50 500.41 C 241.19 501.68 240.09 504.03 239.48 506.49 C 231.45 507.05 223.31 507.21 215.30 506.44 C 215.94 501.58 217.34 496.93 219.99 492.79 C 217.71 487.47 217.66 481.57 216.52 475.96 C 215.44 472.83 219.71 471.17 219.12 468.16 C 218.55 462.78 219.49 457.39 219.34 452.00 C 218.98 444.53 222.26 437.61 223.65 430.42 C 222.04 431.30 220.47 432.25 218.92 433.23 C 218.34 431.82 217.77 430.41 217.19 429.01 C 219.54 427.43 221.84 425.79 224.11 424.10 C 223.73 421.16 223.52 418.20 223.45 415.24 C 222.31 414.38 221.17 413.52 220.04 412.68 C 220.52 410.44 221.05 408.21 221.58 405.99 C 217.93 409.85 214.32 413.80 210.08 417.02 C 208.99 418.00 207.46 417.81 206.12 418.02 C 205.97 416.98 205.81 415.94 205.66 414.91 C 204.18 414.01 202.13 413.10 202.45 410.99 C 204.00 397.21 212.31 385.65 218.43 373.61 C 219.99 369.41 221.18 365.08 222.60 360.84 C 223.11 353.57 222.05 346.28 222.48 339.00 C 222.01 336.04 224.19 333.37 223.37 330.45 C 222.74 327.33 221.91 324.26 221.18 321.17 C 220.10 322.40 219.03 323.65 217.96 324.89 C 218.25 325.41 218.83 326.46 219.12 326.99 C 217.49 330.50 215.93 334.05 214.33 337.58 C 213.77 337.65 212.67 337.81 212.11 337.89 C 206.96 347.88 199.24 356.28 194.19 366.32 C 194.12 368.63 195.39 370.73 195.91 372.95 C 197.08 378.80 198.23 384.69 197.58 390.70 C 196.06 390.58 194.41 390.87 193.01 390.15 C 191.34 387.53 191.10 384.37 190.30 381.44 C 189.98 379.98 188.36 379.32 187.01 379.30 C 185.58 379.90 185.40 381.64 184.69 382.85 C 186.45 384.53 188.19 386.24 189.93 387.94 C 189.89 388.93 189.80 390.91 189.76 391.89 C 188.69 391.66 186.55 391.19 185.48 390.95 C 186.66 392.96 188.06 394.86 188.99 397.01 C 189.01 398.64 188.79 400.26 188.63 401.89 C 187.38 401.83 185.96 401.96 185.45 400.53 C 183.64 397.13 180.03 395.04 178.84 391.29 C 177.45 387.23 174.87 383.50 174.30 379.21 C 175.51 374.28 178.26 369.94 180.46 365.41 C 181.82 362.61 182.36 359.49 183.76 356.71 C 188.58 347.63 190.45 337.36 195.13 328.22 C 192.31 325.03 196.15 322.29 197.44 319.44 C 198.81 317.20 198.79 313.88 201.48 312.68 C 203.99 309.37 207.09 306.37 208.66 302.45 C 211.39 296.25 214.43 290.19 216.83 283.86 C 217.68 281.08 220.79 280.31 222.99 278.92 C 225.95 277.75 227.24 274.23 230.45 273.53 C 234.69 272.57 238.53 270.44 242.25 268.27 C 244.05 266.50 245.32 264.26 247.05 262.43 C 246.37 260.16 245.87 257.84 245.82 255.47 C 244.39 252.38 241.43 248.78 243.93 245.43 C 243.69 245.05 243.22 244.28 242.98 243.90 C 243.30 243.38 243.95 242.33 244.27 241.81 C 242.90 239.93 240.79 238.96 238.68 238.16 C 239.39 237.72 240.81 236.85 241.52 236.41 C 243.33 230.72 247.58 225.44 253.32 223.43 Z" />
<path fill="#f4722b" opacity="1.00" d=" M 421.71 223.70 C 425.73 222.63 430.55 222.21 434.07 224.87 C 439.26 227.93 441.97 234.09 442.04 239.96 C 441.90 241.96 443.64 243.28 444.63 244.81 C 442.67 244.77 440.72 244.73 438.77 244.70 C 438.49 248.20 440.82 253.38 437.05 255.57 C 436.90 257.78 436.60 259.98 436.17 262.16 C 437.87 263.75 439.05 265.75 440.19 267.75 C 443.79 272.07 449.84 272.61 454.37 275.51 C 456.42 278.88 460.39 280.16 463.39 282.48 C 465.17 291.80 470.20 299.89 474.64 308.11 C 475.77 310.37 479.29 310.87 479.08 313.85 C 479.64 313.82 480.77 313.75 481.33 313.72 C 482.94 317.74 484.54 321.82 487.38 325.18 C 486.53 325.85 485.68 326.53 484.83 327.21 C 487.13 331.23 488.93 335.50 490.64 339.80 C 493.70 339.76 496.77 339.66 499.84 339.52 C 500.88 348.47 501.24 357.59 503.80 366.30 C 505.48 370.58 507.55 374.69 509.51 378.86 C 508.12 382.07 507.07 385.42 505.38 388.49 C 503.88 391.15 503.58 394.33 501.92 396.90 C 499.26 399.55 496.12 401.68 492.96 403.69 C 492.22 401.76 491.45 399.84 490.68 397.93 C 492.50 395.58 494.18 393.11 495.67 390.53 C 494.16 390.76 492.65 391.00 491.16 391.24 C 491.12 389.89 491.09 388.53 491.06 387.19 C 492.81 385.48 494.69 383.89 496.22 381.97 C 496.57 380.10 494.97 378.81 493.96 377.50 C 492.66 378.45 490.62 379.08 490.70 381.06 C 490.21 384.83 488.77 388.35 487.49 391.90 C 486.01 391.91 484.52 391.95 483.05 391.80 C 480.74 385.78 480.54 378.89 483.25 372.90 C 479.80 366.16 475.96 359.65 472.04 353.17 C 473.29 351.73 474.53 350.29 475.78 348.85 C 473.30 345.35 470.96 341.74 469.02 337.91 C 468.26 337.89 466.73 337.84 465.97 337.81 C 465.09 334.25 463.93 330.73 461.76 327.73 C 462.17 326.78 462.59 325.83 463.01 324.88 C 461.93 323.03 460.82 321.18 459.70 319.36 C 457.75 324.34 455.90 329.54 456.42 334.98 C 455.70 339.54 457.01 344.06 458.91 348.18 C 457.50 349.46 456.09 350.73 454.68 352.00 C 455.08 352.44 455.86 353.32 456.25 353.76 C 456.25 356.74 456.23 359.72 456.12 362.70 C 459.30 365.61 462.96 367.93 466.18 370.80 C 466.04 373.66 467.39 376.19 468.23 378.84 C 467.40 389.43 465.34 399.89 464.44 410.48 C 462.18 410.81 459.91 411.07 457.64 411.29 C 456.99 415.54 456.72 419.84 456.50 424.14 C 457.98 425.19 459.47 426.24 460.97 427.29 C 460.61 428.76 460.24 430.23 459.88 431.71 C 459.10 431.42 457.54 430.83 456.75 430.53 C 459.20 438.12 461.58 445.97 461.27 454.03 C 461.36 459.21 462.37 464.45 461.25 469.60 C 462.31 470.99 463.37 472.39 464.43 473.79 C 463.41 479.44 462.47 485.10 461.67 490.78 C 461.28 491.14 460.50 491.86 460.11 492.22 C 462.81 496.62 464.60 501.43 465.58 506.49 C 457.57 507.15 449.44 507.10 441.42 506.51 C 440.88 505.04 440.33 503.58 439.80 502.13 C 438.89 501.60 438.00 501.07 437.10 500.56 C 437.06 498.43 437.07 496.31 437.13 494.20 C 433.03 492.00 433.53 487.13 432.80 483.20 C 432.24 479.53 431.69 475.86 431.14 472.19 C 431.98 471.56 432.82 470.93 433.66 470.30 C 433.45 463.20 431.70 456.03 433.38 448.99 C 434.14 442.95 435.70 437.03 436.25 430.97 C 436.63 428.41 435.05 426.25 433.99 424.07 C 431.31 418.94 430.28 413.18 428.00 407.89 C 426.03 407.92 424.05 407.85 422.09 408.09 C 420.23 410.32 420.02 413.49 418.99 416.15 C 417.80 420.59 415.37 424.56 414.07 428.94 C 413.23 438.09 416.90 446.91 417.22 456.01 C 416.95 461.06 416.83 466.12 416.53 471.17 C 417.08 471.38 418.18 471.81 418.74 472.03 C 417.67 478.56 416.80 485.12 415.69 491.65 C 414.68 492.51 413.66 493.38 412.66 494.26 C 412.66 497.17 413.70 501.03 410.22 502.38 C 409.65 503.75 409.12 505.13 408.59 506.53 C 400.61 506.95 392.48 507.34 384.54 506.36 C 385.41 501.62 386.43 496.93 389.15 492.86 C 386.88 487.50 386.86 481.57 385.74 475.94 C 385.02 473.40 387.19 471.59 388.48 469.75 C 387.59 463.85 388.61 457.91 388.53 451.99 C 388.30 444.56 391.16 437.54 393.09 430.49 C 391.35 431.33 389.65 432.23 387.96 433.15 C 387.45 431.76 386.94 430.38 386.44 429.00 C 388.74 427.41 391.04 425.79 393.32 424.14 C 392.94 421.18 392.76 418.20 392.63 415.22 C 391.43 414.25 390.25 413.29 389.06 412.32 C 389.73 410.20 390.36 408.08 390.93 405.95 C 387.12 409.77 383.54 413.88 379.17 417.09 C 378.08 417.99 376.60 417.84 375.29 418.05 C 375.20 417.28 375.03 415.73 374.94 414.96 C 373.35 414.03 371.22 413.03 371.65 410.79 C 372.70 400.59 378.12 391.62 382.49 382.56 C 384.37 378.21 387.98 374.67 388.89 369.91 C 390.23 363.57 390.38 357.04 391.92 350.73 C 391.11 349.87 390.31 349.01 389.51 348.15 C 391.22 344.35 391.96 340.28 391.87 336.13 C 394.08 331.21 391.23 326.16 390.49 321.24 C 389.37 322.44 388.26 323.65 387.15 324.87 C 387.47 325.38 388.10 326.42 388.42 326.94 C 386.73 330.42 385.14 333.96 383.55 337.49 C 382.99 337.62 381.86 337.87 381.30 338.00 C 376.12 347.83 368.58 356.17 363.54 366.07 C 362.96 368.38 364.71 370.61 365.12 372.88 C 366.26 378.79 367.40 384.76 366.67 390.81 C 365.54 390.75 364.42 390.66 363.30 390.53 C 358.67 388.60 362.22 379.31 355.99 379.32 C 354.85 380.15 354.52 381.60 353.86 382.78 C 355.63 384.53 357.40 386.28 359.19 388.02 C 359.10 389.31 359.02 390.61 358.95 391.91 C 357.87 391.67 355.72 391.18 354.65 390.94 C 355.86 392.95 357.13 394.95 358.44 396.91 C 358.18 398.65 357.91 400.39 357.64 402.13 C 355.09 402.22 354.25 399.70 352.92 398.03 C 351.57 396.10 349.39 394.79 348.57 392.51 C 346.94 388.31 344.86 384.29 343.51 380.00 C 344.48 373.49 349.05 368.19 350.98 361.96 C 352.23 357.46 354.89 353.53 356.38 349.12 C 358.83 342.01 361.10 334.81 364.46 328.06 C 364.05 327.48 363.24 326.33 362.84 325.76 C 365.15 321.96 367.46 318.17 369.03 314.00 C 372.08 311.73 373.99 308.31 376.40 305.42 C 379.74 298.39 383.08 291.34 385.96 284.10 C 386.78 281.00 390.25 280.23 392.63 278.67 C 395.43 277.30 396.88 273.90 400.16 273.39 C 404.20 272.47 407.81 270.34 411.38 268.32 C 413.35 266.53 414.59 264.09 416.36 262.11 C 415.57 260.08 415.07 257.95 415.18 255.76 C 413.71 252.57 410.64 249.03 412.95 245.47 C 412.77 245.08 412.40 244.29 412.22 243.89 C 412.52 243.38 413.13 242.35 413.43 241.83 C 412.13 239.87 409.94 238.98 407.86 238.13 C 408.55 237.73 409.92 236.93 410.61 236.54 C 412.36 231.03 416.38 226.04 421.71 223.70 Z" />
<path fill="#f4722b" opacity="1.00" d=" M 74.74 229.76 C 78.30 225.01 84.30 222.98 90.09 223.43 C 92.74 225.23 95.81 226.58 97.82 229.16 C 100.69 232.84 102.17 237.58 101.74 242.24 C 102.71 243.31 103.68 244.37 104.65 245.45 C 102.63 245.64 100.61 245.69 98.58 245.66 C 98.16 249.09 100.75 254.35 96.94 256.39 C 96.85 258.64 96.58 260.88 95.85 263.01 C 98.00 264.69 99.08 267.20 100.57 269.39 C 103.56 271.64 106.88 273.59 110.54 274.50 C 113.55 275.06 114.97 278.02 117.35 279.58 C 119.32 280.87 121.34 282.09 123.26 283.48 C 124.88 292.68 130.01 300.56 134.25 308.69 C 135.13 310.59 137.06 311.53 138.72 312.61 C 138.72 313.22 138.71 314.44 138.71 315.05 C 139.32 314.88 140.54 314.52 141.15 314.35 C 142.50 318.58 144.44 322.62 147.23 326.10 C 146.37 326.75 145.52 327.40 144.67 328.05 C 146.95 332.12 148.72 336.45 150.49 340.77 C 153.60 340.59 156.72 340.49 159.84 340.46 C 160.44 348.99 161.21 357.55 163.22 365.89 C 164.50 370.55 167.30 374.61 168.89 379.16 C 168.61 383.01 166.62 386.53 164.90 389.93 C 163.62 392.41 163.29 395.31 161.79 397.69 C 159.19 400.43 155.91 402.39 152.95 404.71 C 152.11 402.76 151.29 400.81 150.46 398.86 C 152.30 396.47 154.02 393.99 155.47 391.34 C 154.01 391.61 152.55 391.88 151.10 392.16 C 151.02 390.80 150.94 389.43 150.87 388.07 C 152.60 386.37 154.49 384.81 155.98 382.88 C 156.56 380.85 154.62 379.33 153.09 378.43 C 152.07 379.44 150.59 380.25 150.52 381.87 C 149.91 385.73 148.60 389.41 147.10 393.01 C 145.54 392.88 143.99 392.76 142.44 392.63 C 142.14 387.91 139.81 383.11 141.67 378.46 C 142.04 376.79 142.98 375.13 142.80 373.40 C 139.56 366.77 135.70 360.46 131.87 354.16 C 133.11 352.67 134.35 351.17 135.59 349.69 C 133.15 346.24 130.77 342.74 128.92 338.93 C 127.83 338.80 126.73 338.68 125.64 338.56 C 124.96 334.84 123.46 331.36 121.44 328.19 C 121.79 327.62 122.51 326.48 122.86 325.91 C 121.78 323.98 120.64 322.08 119.43 320.24 C 115.71 329.28 114.46 340.04 118.69 349.12 C 117.33 350.34 115.95 351.56 114.58 352.78 C 114.98 353.31 115.78 354.37 116.18 354.90 C 116.32 357.83 115.49 360.93 116.29 363.75 C 118.98 366.79 122.80 368.51 125.62 371.42 C 126.15 374.31 127.15 377.07 128.03 379.86 C 127.13 390.41 125.15 400.86 124.20 411.41 C 121.90 411.69 119.61 411.97 117.32 412.27 C 116.87 416.52 116.48 420.79 116.33 425.07 C 117.84 426.11 119.35 427.17 120.86 428.23 C 120.43 429.70 120.01 431.16 119.59 432.64 C 118.84 432.39 117.35 431.90 116.60 431.65 C 118.88 438.90 121.32 446.34 121.06 454.03 C 121.05 459.54 122.30 465.09 121.08 470.55 C 122.16 471.94 123.22 473.34 124.28 474.75 C 123.19 480.34 122.35 485.96 121.53 491.60 C 121.13 491.97 120.32 492.72 119.91 493.10 C 122.68 497.58 124.66 502.49 125.16 507.78 C 117.22 507.62 109.24 508.26 101.33 507.44 C 100.78 506.02 100.23 504.59 99.69 503.18 C 98.71 502.49 97.73 501.81 96.75 501.14 C 96.83 499.13 96.90 497.14 96.98 495.15 C 95.73 493.86 93.81 492.84 93.63 490.87 C 92.74 484.91 91.75 478.97 91.00 473.00 C 91.80 472.43 92.60 471.87 93.40 471.31 C 93.42 464.50 91.56 457.66 93.03 450.91 C 93.90 444.58 95.40 438.34 96.12 432.00 C 96.57 429.45 94.98 427.31 93.92 425.16 C 91.16 420.03 90.04 414.26 87.94 408.87 C 85.80 409.05 83.39 408.38 81.44 409.38 C 79.53 413.41 78.76 417.88 77.04 422.00 C 75.86 425.31 73.65 428.39 73.78 432.04 C 73.71 438.27 75.47 444.31 76.32 450.44 C 77.90 457.54 76.21 464.78 76.52 471.94 C 77.01 472.21 77.99 472.75 78.48 473.02 C 77.56 479.04 76.77 485.08 75.79 491.08 C 75.64 493.05 73.66 493.99 72.43 495.26 C 72.49 497.22 72.55 499.19 72.58 501.16 C 70.34 502.55 69.12 504.84 68.49 507.34 C 60.50 508.09 52.36 508.06 44.36 507.40 C 44.93 502.53 46.29 497.86 49.02 493.75 C 46.70 488.45 46.73 482.51 45.55 476.92 C 44.82 474.30 47.16 472.39 48.37 470.36 C 47.27 464.61 48.57 458.79 48.35 453.00 C 48.00 445.51 51.22 438.54 52.69 431.34 C 51.07 432.22 49.47 433.15 47.88 434.10 C 47.33 432.70 46.78 431.31 46.22 429.93 C 48.56 428.32 50.86 426.69 53.12 424.98 C 52.72 422.25 52.71 419.47 52.42 416.73 C 51.75 415.17 50.12 414.30 48.95 413.15 C 49.59 411.07 50.15 408.96 50.66 406.85 C 46.93 410.71 43.30 414.74 38.99 418.00 C 37.94 418.84 36.52 418.76 35.27 419.01 C 35.07 417.92 34.87 416.84 34.66 415.76 C 33.25 414.86 31.21 414.12 31.46 412.06 C 32.72 400.23 39.20 389.88 44.45 379.47 C 50.52 371.46 51.06 361.12 51.77 351.48 C 50.94 350.70 50.11 349.91 49.29 349.13 C 50.97 345.31 51.84 341.25 51.63 337.07 C 53.86 332.11 51.04 327.02 50.23 322.08 C 49.18 323.19 48.14 324.32 47.09 325.44 C 47.41 326.29 47.74 327.14 48.06 327.99 C 46.47 331.48 44.93 334.99 43.33 338.48 C 42.77 338.56 41.66 338.73 41.10 338.81 C 35.98 348.80 28.23 357.16 23.23 367.21 C 23.14 369.56 24.45 371.69 24.96 373.95 C 26.09 379.81 27.33 385.70 26.52 391.71 C 24.97 391.56 23.43 391.40 21.89 391.23 C 20.66 388.38 19.99 385.35 19.31 382.34 C 19.02 380.92 17.46 380.20 16.13 380.23 C 14.56 380.64 14.41 382.51 13.71 383.72 C 15.49 385.43 17.24 387.17 19.00 388.92 C 18.89 390.23 18.79 391.55 18.69 392.86 C 17.64 392.60 15.54 392.08 14.49 391.82 C 16.67 395.01 19.74 399.17 17.01 403.00 C 14.06 402.82 13.58 399.06 11.49 397.47 C 8.15 394.71 7.32 390.30 5.49 386.59 C 4.70 384.48 3.41 382.45 3.31 380.16 C 4.81 373.67 9.24 368.37 11.09 362.01 C 12.35 357.59 15.02 353.75 16.44 349.39 C 18.79 342.53 20.94 335.57 24.22 329.07 C 23.71 328.08 23.21 327.10 22.71 326.12 C 25.40 322.58 27.61 318.69 28.80 314.39 C 29.26 314.29 30.17 314.10 30.63 314.00 C 32.34 310.37 35.80 307.91 37.31 304.16 C 40.13 297.68 43.36 291.37 45.85 284.74 C 46.80 281.82 50.15 281.08 52.45 279.56 C 55.11 278.29 56.42 275.10 59.43 274.47 C 63.67 273.52 67.46 271.33 71.19 269.20 C 73.09 267.36 74.60 265.12 76.06 262.93 C 75.48 260.78 74.80 258.64 74.84 256.40 C 73.45 253.30 70.61 249.90 72.77 246.47 C 72.26 245.07 72.61 243.63 72.76 242.21 C 71.86 240.30 69.45 240.02 67.74 239.18 C 71.73 237.43 71.66 232.45 74.74 229.76 Z" />
<path fill="#f5e5c1" opacity="1.00" d=" M 291.74 339.35 C 293.09 340.92 294.80 342.10 296.73 342.88 C 297.93 344.70 299.11 346.55 300.30 348.39 C 298.97 350.46 297.37 353.04 298.64 355.54 C 301.10 360.41 304.20 364.93 306.80 369.73 C 305.30 370.10 303.80 370.46 302.30 370.83 C 301.16 365.76 295.71 363.90 292.14 360.82 C 292.10 358.18 292.08 355.54 292.11 352.91 C 296.40 349.13 293.18 343.67 291.74 339.35 Z" />
<path fill="#f5e5c1" opacity="1.00" d=" M 206.58 355.55 C 210.34 350.74 212.63 344.95 216.64 340.31 C 215.85 350.35 217.13 360.73 214.00 370.47 C 209.24 369.24 204.55 367.80 199.89 366.26 C 201.93 362.58 203.99 358.89 206.58 355.55 Z" />
</svg>
