<?xml version="1.0" encoding="UTF-8" ?>
<!DOCTYPE svg PUBLIC "-//W3C//DTD SVG 1.1//EN" "http://www.w3.org/Graphics/SVG/1.1/DTD/svg11.dtd">
<svg width="512pt" height="512pt" viewBox="0 0 512 512" version="1.1" xmlns="http://www.w3.org/2000/svg">
<path fill="#3e3e3e" opacity="1.00" d=" M 0.00 0.00 L 308.01 0.00 C 290.85 9.08 273.55 18.31 256.34 27.45 C 253.94 28.41 253.16 30.99 252.22 33.15 C 247.06 45.42 241.34 57.47 236.80 69.99 C 233.92 81.60 231.62 93.36 229.17 105.07 C 228.33 108.87 228.06 112.84 226.34 116.39 C 233.96 122.86 241.70 129.20 249.36 135.62 C 253.70 139.48 259.34 141.20 264.50 143.64 C 266.93 144.64 269.30 146.02 271.96 146.33 C 284.33 147.49 296.69 148.83 309.05 150.06 C 313.07 150.73 317.25 150.34 321.14 151.70 C 321.38 155.68 322.43 159.57 322.54 163.56 C 325.99 164.18 329.47 163.44 332.93 163.29 C 344.94 162.06 356.97 161.07 368.98 159.91 C 372.13 159.61 375.37 158.86 378.49 159.72 C 390.86 163.37 403.53 165.88 416.19 168.30 C 418.93 166.75 420.21 163.53 422.28 161.24 C 428.15 154.05 433.28 146.24 439.53 139.39 C 416.68 138.90 393.83 137.65 370.97 137.93 C 362.28 139.50 354.09 143.09 345.61 145.49 C 343.10 146.09 340.47 145.87 337.94 145.55 C 320.29 142.66 302.62 139.92 284.97 137.04 C 283.18 136.75 281.43 136.16 279.95 135.09 C 268.68 127.34 257.62 119.27 246.12 111.85 C 243.72 110.55 243.20 107.53 243.62 105.05 C 244.61 98.02 245.60 90.99 246.46 83.95 C 246.75 81.61 247.14 79.25 248.21 77.13 C 254.89 64.14 261.44 51.08 268.07 38.06 C 269.81 35.02 271.35 31.40 274.83 30.00 C 290.86 22.05 306.85 14.00 322.71 5.71 C 326.00 4.12 329.32 1.92 333.14 2.24 C 335.20 2.32 337.00 3.47 338.91 4.13 C 347.76 7.19 356.79 9.84 365.40 13.55 C 371.41 17.42 376.61 22.40 382.22 26.82 C 384.18 28.00 384.06 30.67 383.23 32.51 C 381.12 35.47 378.55 38.05 376.35 40.94 C 382.55 54.80 389.06 68.53 395.35 82.36 C 397.47 87.77 392.23 91.80 389.89 96.07 C 392.54 97.67 394.93 100.02 398.03 100.67 C 413.36 101.03 428.69 101.32 444.04 101.38 C 446.78 101.47 449.81 101.17 452.20 102.83 C 453.14 104.08 453.19 105.96 452.26 107.22 C 450.54 108.74 448.11 108.54 445.98 108.63 C 431.63 108.54 417.28 108.43 402.92 108.36 C 400.23 108.26 397.88 109.72 395.49 110.72 C 395.52 113.64 396.05 116.51 396.73 119.34 C 412.11 123.18 427.62 126.57 443.07 130.15 C 454.21 133.01 465.99 128.86 477.07 131.88 C 479.84 132.13 477.67 134.93 477.46 136.42 C 475.15 137.67 472.56 138.23 469.95 138.22 C 464.23 138.31 458.53 138.80 452.84 139.25 C 449.70 139.72 446.14 140.45 444.09 143.10 C 439.62 148.62 434.95 153.97 430.40 159.43 C 427.26 162.76 424.88 166.91 420.83 169.28 C 424.56 170.05 428.28 170.85 432.03 171.50 C 436.35 167.94 441.59 165.87 446.60 163.52 C 452.46 160.85 458.03 157.54 464.00 155.13 C 467.62 154.34 471.38 154.61 475.07 154.77 C 478.61 158.74 475.43 164.03 474.62 168.43 C 472.91 172.89 473.45 179.28 468.39 181.56 C 464.43 183.88 460.61 186.47 456.51 188.55 C 455.12 189.38 453.49 189.16 452.05 188.63 C 441.19 185.20 430.24 182.04 419.34 178.74 C 416.81 177.95 414.22 177.41 411.59 177.14 C 410.38 180.63 407.55 183.95 408.62 187.86 C 409.90 194.94 410.99 202.05 412.36 209.12 C 411.57 210.44 410.96 212.75 408.99 212.53 C 406.59 212.92 405.13 210.69 403.23 209.71 C 400.51 208.14 396.49 207.64 395.59 204.09 C 395.60 199.79 396.65 195.55 396.74 191.24 C 395.01 191.42 392.97 191.28 391.78 192.81 C 386.57 198.30 381.75 204.15 376.61 209.70 C 374.15 212.29 372.20 215.46 369.14 217.41 C 366.65 217.88 364.23 216.97 361.86 216.36 C 353.42 214.09 344.95 211.89 336.51 209.61 C 335.02 209.02 332.91 208.52 332.55 206.69 C 331.42 201.65 330.99 196.48 330.07 191.41 C 322.39 191.67 314.68 191.41 307.05 192.31 C 308.89 201.55 312.32 210.41 314.62 219.54 C 315.21 223.39 319.00 225.10 321.49 227.59 C 325.62 231.45 330.26 234.79 334.07 238.98 C 340.65 252.38 346.88 265.97 353.26 279.47 C 361.07 281.69 369.72 281.98 377.46 279.34 C 380.57 275.99 383.49 272.47 386.59 269.11 C 383.36 262.82 381.68 255.64 377.35 249.98 C 377.92 246.43 379.18 243.01 380.66 239.75 C 382.37 237.88 384.27 236.16 385.66 234.01 C 386.46 238.06 384.89 244.26 389.82 246.11 C 395.62 247.82 401.60 248.84 407.40 250.57 C 408.09 254.56 406.95 260.52 411.80 262.16 C 416.68 262.91 421.66 262.43 426.55 263.15 C 429.51 263.35 433.36 264.27 435.34 261.36 C 438.20 256.12 440.15 249.84 438.63 243.90 C 435.46 229.74 432.46 215.55 429.38 201.37 C 428.52 197.25 427.39 193.18 427.03 188.97 C 429.10 189.49 432.17 189.29 433.10 191.65 C 437.47 204.26 442.22 216.74 446.75 229.29 C 448.41 233.74 446.59 238.39 446.32 242.91 C 445.89 247.32 446.94 251.88 445.34 256.14 C 443.79 260.65 443.80 265.47 442.68 270.08 C 445.37 272.49 449.03 273.08 452.09 274.85 C 447.03 277.02 441.84 278.84 436.74 280.90 C 433.60 282.00 430.44 283.69 427.01 283.14 C 419.97 282.16 412.98 280.78 405.97 279.62 C 402.52 278.83 399.64 281.23 396.82 282.79 C 392.49 285.51 387.72 287.53 383.58 290.52 C 381.15 292.43 382.89 296.76 385.92 296.57 C 390.69 296.07 395.31 294.63 400.04 293.81 C 404.98 292.96 409.89 291.05 414.98 291.82 C 419.90 292.26 424.94 293.54 429.84 292.38 C 437.69 289.39 445.38 285.98 453.29 283.15 C 454.10 286.39 454.52 289.71 455.32 292.96 C 454.74 294.78 454.36 296.65 454.12 298.54 C 450.66 298.24 447.47 296.09 443.95 296.61 C 439.44 297.97 435.55 300.94 430.95 302.01 C 420.62 302.63 410.26 302.81 399.91 302.78 C 395.02 303.42 389.81 303.63 385.75 306.81 C 389.28 310.48 393.58 313.24 397.57 316.37 C 400.10 318.20 402.52 320.70 405.87 320.80 C 410.73 321.33 415.85 322.10 420.56 320.37 C 429.72 317.29 438.98 314.52 447.99 311.01 C 449.59 310.15 451.38 310.39 453.09 310.73 C 453.41 311.81 453.58 312.90 453.59 314.03 C 452.32 325.65 451.98 337.35 451.38 349.03 C 450.60 356.32 450.16 363.72 450.84 371.04 C 450.95 372.16 450.96 374.00 449.50 374.23 C 441.24 375.41 432.93 376.24 424.70 377.55 C 423.27 382.63 421.47 387.67 421.03 392.96 C 423.05 392.72 425.07 392.40 427.01 391.75 C 436.92 388.71 446.92 385.99 456.79 382.87 C 458.73 382.38 459.70 380.51 460.90 379.10 C 460.44 360.72 461.33 342.35 461.44 323.97 C 461.21 313.30 465.84 303.35 467.63 293.00 C 466.65 285.29 464.79 277.68 463.48 270.01 C 462.48 264.09 465.53 258.67 466.98 253.11 C 470.37 241.34 474.09 229.65 477.35 217.85 C 478.12 206.56 476.34 195.22 476.80 183.92 C 479.30 177.60 486.08 173.23 486.60 166.02 C 486.70 157.90 484.32 150.00 483.67 141.95 C 484.21 138.19 485.61 134.58 487.00 131.06 C 488.63 127.69 492.70 127.48 495.43 125.63 C 494.33 119.38 493.32 113.11 492.23 106.86 C 487.67 103.19 482.36 100.66 477.51 97.41 C 475.28 96.15 475.23 93.33 474.42 91.18 C 470.42 79.23 466.27 67.31 461.09 55.82 C 458.20 48.52 450.88 44.68 445.15 39.89 C 435.77 34.96 427.35 28.46 418.90 22.12 C 411.53 17.16 403.58 13.00 395.23 9.95 C 389.83 8.16 384.38 6.53 379.00 4.72 C 374.20 2.94 369.17 1.26 364.00 1.37 C 361.44 1.46 359.13 0.11 356.60 0.00 L 512.00 0.00 L 512.00 226.72 C 505.49 220.98 498.70 215.58 492.12 209.93 C 489.95 207.87 487.11 206.77 484.20 206.31 C 484.24 210.42 483.94 214.58 484.47 218.67 C 486.99 222.33 490.50 225.19 493.41 228.55 C 499.48 235.47 505.96 242.02 512.00 248.97 L 512.00 353.93 C 501.32 350.36 490.56 347.01 480.10 342.83 C 475.89 340.99 470.84 341.30 467.00 343.85 C 481.92 352.16 497.11 360.00 512.00 368.37 L 512.00 512.00 L 385.81 512.00 C 380.82 505.02 376.20 497.79 371.18 490.82 C 369.84 489.19 370.11 486.93 370.44 485.01 C 372.07 478.32 373.97 471.69 376.06 465.13 C 379.06 455.30 380.82 444.87 386.30 436.00 C 392.52 426.00 398.70 415.98 404.91 405.96 C 405.67 404.38 407.38 403.78 408.82 402.98 C 404.36 401.60 401.38 397.81 397.75 395.11 C 363.14 366.09 328.46 337.14 293.82 308.13 C 292.24 307.01 290.24 306.74 288.43 306.16 C 288.44 310.19 288.50 314.23 288.57 318.26 C 314.93 346.64 340.99 375.30 367.32 403.72 C 369.86 406.21 371.64 409.85 375.22 411.00 C 376.87 416.25 376.33 421.79 377.04 427.16 C 378.43 430.07 376.13 432.68 374.91 435.18 C 369.98 443.56 364.74 451.77 359.65 460.07 C 358.41 462.18 356.75 464.09 356.07 466.49 C 354.93 466.55 353.77 466.64 352.71 466.17 C 329.13 457.99 305.21 450.80 281.87 441.95 C 278.49 440.69 275.02 441.93 271.78 442.96 C 273.00 445.31 275.88 445.83 277.98 447.13 C 295.93 456.75 313.79 466.54 331.74 476.17 C 333.56 477.24 335.74 478.10 336.76 480.11 C 342.34 489.23 347.89 498.37 353.52 507.45 C 354.45 509.06 355.37 510.72 356.76 512.00 L 213.94 512.00 L 213.19 511.58 C 217.51 493.62 222.70 475.87 226.46 457.77 C 176.34 415.77 125.84 374.23 75.82 332.12 C 60.40 319.60 45.40 306.56 29.95 294.07 C 28.61 293.28 28.48 291.68 28.14 290.33 C 26.23 290.46 24.42 291.06 22.61 291.65 C 20.55 297.43 19.19 303.51 16.50 309.05 C 64.50 347.91 112.89 386.30 161.00 425.02 C 178.34 438.70 194.96 453.26 211.68 467.67 C 211.15 472.69 208.32 477.08 206.79 481.84 C 203.58 492.01 198.69 501.65 196.12 512.00 L 84.27 512.00 C 94.44 508.10 104.65 504.29 114.87 500.50 C 117.91 499.29 121.53 500.33 124.31 498.31 C 126.76 496.54 129.40 495.06 132.18 493.84 C 122.48 484.85 113.47 475.13 104.09 465.79 C 87.91 449.04 71.43 432.60 55.10 415.99 C 52.16 413.30 50.90 408.93 47.24 407.05 C 44.93 405.79 42.79 407.93 40.69 408.66 C 32.87 411.16 26.01 415.83 19.02 420.01 C 30.56 440.57 39.68 462.33 49.60 483.69 C 53.92 493.13 58.17 502.61 62.59 512.00 L 0.00 512.00 L 0.00 250.40 C 2.15 246.88 4.52 243.47 7.04 240.21 C 14.65 235.35 22.61 230.97 30.49 226.56 C 43.84 231.70 56.63 238.43 70.04 243.47 C 74.48 244.97 79.25 244.07 83.80 244.95 C 89.70 246.01 95.74 245.03 101.65 246.00 C 108.60 247.25 115.76 245.94 122.67 247.61 C 126.63 251.43 125.77 257.19 127.20 262.04 C 127.26 262.70 127.38 264.03 127.44 264.70 C 130.53 265.78 133.80 266.57 137.09 266.03 C 145.34 264.72 153.69 264.20 161.92 262.79 C 168.87 262.53 175.81 260.26 182.78 261.79 C 190.89 264.03 199.09 265.94 207.20 268.16 C 211.44 269.51 216.03 270.21 220.19 268.19 C 227.45 259.07 234.40 249.72 241.58 240.54 C 242.25 239.73 242.66 238.76 243.06 237.80 C 241.37 237.42 239.72 236.91 238.02 236.59 C 234.86 236.71 232.17 239.11 228.90 238.49 C 212.65 236.95 196.28 237.71 179.97 237.46 C 172.81 236.88 166.11 240.15 159.02 240.53 C 135.96 240.62 112.79 239.48 90.15 234.95 C 86.52 233.87 83.16 232.04 79.97 230.05 C 69.39 223.50 58.78 217.00 48.29 210.30 C 48.64 201.14 50.19 192.09 50.73 182.95 C 51.10 179.95 52.27 177.14 53.72 174.52 C 59.61 162.73 65.48 150.93 71.34 139.13 C 72.81 135.47 76.73 133.89 79.76 131.77 C 96.83 123.40 113.82 114.80 130.95 106.56 C 138.26 106.25 145.54 107.19 152.84 107.41 C 162.09 110.07 171.05 114.33 178.46 120.56 C 181.53 123.07 184.63 125.55 187.56 128.21 C 187.55 128.51 187.52 129.12 187.50 129.42 C 185.14 132.21 182.66 134.93 180.59 137.97 C 179.76 139.88 181.21 141.61 181.84 143.33 C 187.33 157.17 193.81 170.59 199.48 184.36 C 201.53 189.38 195.63 191.73 194.06 195.69 C 197.33 197.26 200.04 200.56 203.94 200.34 C 219.66 200.44 235.37 200.54 251.08 200.77 C 253.42 200.98 256.39 201.30 257.40 203.82 C 258.11 206.89 254.69 208.86 252.03 208.58 C 236.69 208.63 221.35 208.43 206.01 208.46 C 203.82 208.39 201.93 209.63 200.03 210.52 C 200.34 214.11 200.53 217.74 201.53 221.22 C 203.96 222.14 206.38 223.21 208.99 223.54 C 222.18 225.68 235.09 229.20 248.00 232.64 C 253.19 234.28 258.65 233.03 263.95 232.79 C 270.17 232.60 276.40 232.48 282.62 232.09 C 282.59 232.95 282.54 234.68 282.51 235.54 C 279.22 236.95 275.45 236.14 272.05 237.30 C 267.60 237.28 263.37 238.75 258.93 238.77 C 255.15 239.47 250.57 239.85 248.21 243.31 C 241.67 251.06 235.19 258.87 228.51 266.50 C 227.12 268.53 223.11 268.57 223.29 271.46 C 227.17 273.03 231.76 273.66 235.53 271.44 C 237.83 269.76 239.96 267.78 242.66 266.72 C 251.21 262.89 259.59 258.67 268.15 254.86 C 271.93 254.36 275.77 254.80 279.57 254.63 C 279.48 257.93 279.73 261.27 279.28 264.56 C 278.01 269.13 276.27 273.57 275.26 278.22 C 274.75 279.39 273.36 279.76 272.41 280.47 C 268.06 282.99 263.91 285.83 259.61 288.43 C 257.92 289.61 255.93 288.47 254.24 287.90 C 245.83 284.48 237.39 281.11 228.94 277.76 C 224.48 275.98 219.54 273.02 214.77 275.65 C 213.91 278.50 212.59 281.18 211.60 283.99 C 211.15 287.98 211.59 292.02 212.29 295.97 C 212.57 301.22 212.55 306.48 212.78 311.74 C 209.63 308.98 205.48 307.22 202.93 303.88 C 201.89 299.52 206.10 295.30 204.34 290.81 C 201.68 288.79 198.11 289.42 195.11 290.19 C 191.96 291.04 190.32 294.12 188.33 296.42 C 184.16 301.24 179.80 305.89 175.87 310.90 C 175.15 311.64 174.49 313.15 173.19 312.60 C 162.75 309.55 152.30 306.49 141.93 303.19 C 139.31 298.10 136.92 292.87 134.06 287.91 C 131.45 283.66 125.95 286.03 121.99 286.18 C 118.42 286.84 113.47 285.59 111.30 289.35 C 109.26 291.84 111.59 294.77 112.39 297.26 C 114.65 304.80 116.57 312.43 118.71 320.00 C 119.58 323.84 123.60 325.35 126.27 327.73 C 130.60 331.52 135.46 334.82 139.13 339.30 C 144.76 351.81 150.83 364.15 156.04 376.86 C 156.82 379.06 158.56 381.30 161.04 381.56 C 166.71 382.18 172.42 382.67 178.14 382.57 C 181.22 382.71 183.03 379.79 184.88 377.80 C 187.02 374.98 189.84 372.71 191.70 369.68 C 192.75 368.11 192.50 366.06 191.59 364.49 C 188.93 359.19 186.36 353.85 183.68 348.56 C 183.10 347.19 181.81 345.59 182.87 344.12 C 185.14 339.84 188.20 336.03 191.23 332.27 C 191.38 335.27 191.42 338.28 191.44 341.29 C 198.08 345.00 205.57 346.84 212.72 349.27 C 214.47 350.54 215.25 352.74 216.94 354.08 C 224.34 357.83 232.95 358.58 241.06 357.28 C 242.06 353.26 243.06 349.05 241.87 344.95 C 237.24 325.60 232.74 306.21 227.71 286.97 C 226.52 283.41 231.23 280.86 233.89 282.98 C 236.08 285.50 236.51 288.99 237.70 292.02 C 242.06 304.41 246.69 316.72 251.21 329.06 C 252.17 333.30 251.50 337.73 250.70 341.95 C 249.89 346.49 251.40 351.27 249.75 355.68 C 248.21 360.33 247.93 365.28 247.27 370.11 C 250.02 371.90 253.08 373.11 256.26 373.89 C 256.45 375.46 256.64 377.05 256.83 378.63 C 247.07 376.54 238.73 384.90 228.98 383.03 C 224.03 382.17 219.01 381.81 214.07 380.88 C 209.76 380.14 205.25 381.06 201.65 383.56 C 197.00 386.74 192.00 389.43 187.58 392.94 C 190.33 393.72 193.10 394.94 196.04 394.43 C 202.38 393.09 208.71 391.61 215.11 390.54 C 221.65 390.38 228.44 392.25 234.79 389.85 C 242.56 387.03 250.30 384.16 258.15 381.57 C 258.32 384.18 258.44 386.82 259.21 389.35 C 260.50 393.79 258.29 398.11 257.28 402.37 C 256.87 402.54 256.06 402.89 255.65 403.06 C 255.49 401.91 255.34 400.76 255.20 399.62 C 248.89 396.25 242.32 400.26 236.49 402.69 C 233.16 404.37 229.51 402.27 226.01 402.62 C 214.00 402.79 201.31 400.83 190.13 406.36 C 195.52 411.05 201.20 415.51 207.08 419.55 C 212.73 419.96 218.45 419.69 224.10 419.32 C 231.39 417.45 238.40 414.59 245.61 412.43 C 249.15 411.64 251.63 407.95 255.61 409.43 C 254.69 429.26 253.19 449.06 252.24 468.90 C 252.46 470.34 251.06 471.12 249.89 471.49 C 243.09 473.87 236.20 476.03 229.45 478.58 C 228.36 481.88 227.50 485.25 227.09 488.71 C 228.46 488.60 229.86 488.59 231.16 488.09 C 239.57 485.23 248.15 482.83 256.93 481.43 C 259.60 481.06 262.05 479.88 264.57 479.00 C 264.53 460.34 264.39 441.66 264.77 423.00 C 265.08 412.65 269.42 403.09 271.24 393.05 C 270.20 383.02 266.25 373.15 267.49 362.97 C 272.14 347.84 276.65 332.66 281.08 317.46 C 282.18 311.32 280.45 305.15 280.64 298.99 C 280.69 293.62 280.22 288.23 280.62 282.86 C 283.93 276.63 290.40 271.65 290.45 264.04 C 289.63 257.73 288.83 251.40 287.64 245.14 C 287.18 242.37 287.37 239.49 288.44 236.88 C 289.60 234.01 289.91 230.51 292.48 228.44 C 294.11 226.93 296.35 226.46 298.47 226.05 C 298.75 219.65 296.78 213.30 295.91 207.00 C 291.37 202.36 284.77 200.28 279.87 195.99 C 274.91 181.58 270.14 167.00 263.64 153.17 C 260.85 148.76 256.45 145.75 252.48 142.51 C 248.14 138.58 242.42 136.77 237.91 133.07 C 230.29 128.40 223.91 121.92 215.87 117.90 C 209.65 114.30 203.14 111.11 196.28 108.91 C 187.19 106.13 178.82 101.52 170.21 97.56 C 168.59 96.75 166.76 96.60 164.98 96.60 C 150.33 96.58 135.67 96.56 121.01 96.52 C 117.92 96.55 114.58 96.09 111.86 97.91 C 105.45 101.81 99.03 105.71 92.65 109.67 C 80.60 116.85 68.11 123.24 55.81 129.97 C 51.41 140.35 47.93 151.09 43.81 161.58 C 39.18 173.36 37.26 185.95 33.93 198.11 C 32.13 207.26 28.04 215.73 24.05 224.09 C 16.03 228.72 7.98 233.29 0.00 237.98 L 0.00 0.00 Z" />
<path fill="#f4722b" opacity="1.00" d=" M 308.01 0.00 L 356.60 0.00 C 359.13 0.11 361.44 1.46 364.00 1.37 C 369.17 1.26 374.20 2.94 379.00 4.72 C 384.38 6.53 389.83 8.16 395.23 9.95 C 403.58 13.00 411.53 17.16 418.90 22.12 C 427.35 28.46 435.77 34.96 445.15 39.89 C 450.88 44.68 458.20 48.52 461.09 55.82 C 466.27 67.31 470.42 79.23 474.42 91.18 C 475.23 93.33 475.28 96.15 477.51 97.41 C 482.36 100.66 487.67 103.19 492.23 106.86 C 493.32 113.11 494.33 119.38 495.43 125.63 C 492.70 127.48 488.63 127.69 487.00 131.06 C 485.61 134.58 484.21 138.19 483.67 141.95 C 484.32 150.00 486.70 157.90 486.60 166.02 C 486.08 173.23 479.30 177.60 476.80 183.92 C 476.34 195.22 478.12 206.56 477.35 217.85 C 474.09 229.65 470.37 241.34 466.98 253.11 C 465.53 258.67 462.48 264.09 463.48 270.01 C 464.79 277.68 466.65 285.29 467.63 293.00 C 465.84 303.35 461.21 313.30 461.44 323.97 C 461.33 342.35 460.44 360.72 460.90 379.10 C 459.70 380.51 458.73 382.38 456.79 382.87 C 446.92 385.99 436.92 388.71 427.01 391.75 C 425.07 392.40 423.05 392.72 421.03 392.96 C 421.47 387.67 423.27 382.63 424.70 377.55 C 432.93 376.24 441.24 375.41 449.50 374.23 C 450.96 374.00 450.95 372.16 450.84 371.04 C 450.16 363.72 450.60 356.32 451.38 349.03 C 451.98 337.35 452.32 325.65 453.59 314.03 C 453.58 312.90 453.41 311.81 453.09 310.73 C 451.38 310.39 449.59 310.15 447.99 311.01 C 438.98 314.52 429.72 317.29 420.56 320.37 C 415.85 322.10 410.73 321.33 405.87 320.80 C 402.52 320.70 400.10 318.20 397.57 316.37 C 393.58 313.24 389.28 310.48 385.75 306.81 C 389.81 303.63 395.02 303.42 399.91 302.78 C 410.26 302.81 420.62 302.63 430.95 302.01 C 435.55 300.94 439.44 297.97 443.95 296.61 C 447.47 296.09 450.66 298.24 454.12 298.54 C 454.36 296.65 454.74 294.78 455.32 292.96 C 454.52 289.71 454.10 286.39 453.29 283.15 C 445.38 285.98 437.69 289.39 429.84 292.38 C 424.94 293.54 419.90 292.26 414.98 291.82 C 409.89 291.05 404.98 292.96 400.04 293.81 C 395.31 294.63 390.69 296.07 385.92 296.57 C 382.89 296.76 381.15 292.43 383.58 290.52 C 387.72 287.53 392.49 285.51 396.82 282.79 C 399.64 281.23 402.52 278.83 405.97 279.62 C 412.98 280.78 419.97 282.16 427.01 283.14 C 430.44 283.69 433.60 282.00 436.74 280.90 C 441.84 278.84 447.03 277.02 452.09 274.85 C 449.03 273.08 445.37 272.49 442.68 270.08 C 443.80 265.47 443.79 260.65 445.34 256.14 C 446.94 251.88 445.89 247.32 446.32 242.91 C 446.59 238.39 448.41 233.74 446.75 229.29 C 442.22 216.74 437.47 204.26 433.10 191.65 C 432.17 189.29 429.10 189.49 427.03 188.97 C 427.39 193.18 428.52 197.25 429.38 201.37 C 432.46 215.55 435.46 229.74 438.63 243.90 C 440.15 249.84 438.20 256.12 435.34 261.36 C 433.36 264.27 429.51 263.35 426.55 263.15 C 421.66 262.43 416.68 262.91 411.80 262.16 C 406.95 260.52 408.09 254.56 407.40 250.57 C 401.60 248.84 395.62 247.82 389.82 246.11 C 384.89 244.26 386.46 238.06 385.66 234.01 C 384.27 236.16 382.37 237.88 380.66 239.75 C 379.18 243.01 377.92 246.43 377.35 249.98 C 381.68 255.64 383.36 262.82 386.59 269.11 C 383.49 272.47 380.57 275.99 377.46 279.34 C 369.72 281.98 361.07 281.69 353.26 279.47 C 346.88 265.97 340.65 252.38 334.07 238.98 C 330.26 234.79 325.62 231.45 321.49 227.59 C 319.00 225.10 315.21 223.39 314.62 219.54 C 312.32 210.41 308.89 201.55 307.05 192.31 C 314.68 191.41 322.39 191.67 330.07 191.41 C 330.99 196.48 331.42 201.65 332.55 206.69 C 332.91 208.52 335.02 209.02 336.51 209.61 C 344.95 211.89 353.42 214.09 361.86 216.36 C 364.23 216.97 366.65 217.88 369.14 217.41 C 372.20 215.46 374.15 212.29 376.61 209.70 C 381.75 204.15 386.57 198.30 391.78 192.81 C 392.97 191.28 395.01 191.42 396.74 191.24 C 396.65 195.55 395.60 199.79 395.59 204.09 C 396.49 207.64 400.51 208.14 403.23 209.71 C 405.13 210.69 406.59 212.92 408.99 212.53 C 410.96 212.75 411.57 210.44 412.36 209.12 C 410.99 202.05 409.90 194.94 408.62 187.86 C 407.55 183.95 410.38 180.63 411.59 177.14 C 414.22 177.41 416.81 177.95 419.34 178.74 C 430.24 182.04 441.19 185.20 452.05 188.63 C 453.49 189.16 455.12 189.38 456.51 188.55 C 460.61 186.47 464.43 183.88 468.39 181.56 C 473.45 179.28 472.91 172.89 474.62 168.43 C 475.43 164.03 478.61 158.74 475.07 154.77 C 471.38 154.61 467.62 154.34 464.00 155.13 C 458.03 157.54 452.46 160.85 446.60 163.52 C 441.59 165.87 436.35 167.94 432.03 171.50 C 428.28 170.85 424.56 170.05 420.83 169.28 C 424.88 166.91 427.26 162.76 430.40 159.43 C 434.95 153.97 439.62 148.62 444.09 143.10 C 446.14 140.45 449.70 139.72 452.84 139.25 C 458.53 138.80 464.23 138.31 469.95 138.22 C 472.56 138.23 475.15 137.67 477.46 136.42 C 477.67 134.93 479.84 132.13 477.07 131.88 C 465.99 128.86 454.21 133.01 443.07 130.15 C 427.62 126.57 412.11 123.18 396.73 119.34 C 396.05 116.51 395.52 113.64 395.49 110.72 C 397.88 109.72 400.23 108.26 402.92 108.36 C 417.28 108.43 431.63 108.54 445.98 108.63 C 448.11 108.54 450.54 108.74 452.26 107.22 C 453.19 105.96 453.14 104.08 452.20 102.83 C 449.81 101.17 446.78 101.47 444.04 101.38 C 428.69 101.32 413.36 101.03 398.03 100.67 C 394.93 100.02 392.54 97.67 389.89 96.07 C 392.23 91.80 397.47 87.77 395.35 82.36 C 389.06 68.53 382.55 54.80 376.35 40.94 C 378.55 38.05 381.12 35.47 383.23 32.51 C 384.06 30.67 384.18 28.00 382.22 26.82 C 376.61 22.40 371.41 17.42 365.40 13.55 C 356.79 9.84 347.76 7.19 338.91 4.13 C 337.00 3.47 335.20 2.32 333.14 2.24 C 329.32 1.92 326.00 4.12 322.71 5.71 C 306.85 14.00 290.86 22.05 274.83 30.00 C 271.35 31.40 269.81 35.02 268.07 38.06 C 261.44 51.08 254.89 64.14 248.21 77.13 C 247.14 79.25 246.75 81.61 246.46 83.95 C 245.60 90.99 244.61 98.02 243.62 105.05 C 243.20 107.53 243.72 110.55 246.12 111.85 C 257.62 119.27 268.68 127.34 279.95 135.09 C 281.43 136.16 283.18 136.75 284.97 137.04 C 302.62 139.92 320.29 142.66 337.94 145.55 C 340.47 145.87 343.10 146.09 345.61 145.49 C 354.09 143.09 362.28 139.50 370.97 137.93 C 393.83 137.65 416.68 138.90 439.53 139.39 C 433.28 146.24 428.15 154.05 422.28 161.24 C 420.21 163.53 418.93 166.75 416.19 168.30 C 403.53 165.88 390.86 163.37 378.49 159.72 C 375.37 158.86 372.13 159.61 368.98 159.91 C 356.97 161.07 344.94 162.06 332.93 163.29 C 329.47 163.44 325.99 164.18 322.54 163.56 C 322.43 159.57 321.38 155.68 321.14 151.70 C 317.25 150.34 313.07 150.73 309.05 150.06 C 296.69 148.83 284.33 147.49 271.96 146.33 C 269.30 146.02 266.93 144.64 264.50 143.64 C 259.34 141.20 253.70 139.48 249.36 135.62 C 241.70 129.20 233.96 122.86 226.34 116.39 C 228.06 112.84 228.33 108.87 229.17 105.07 C 231.62 93.36 233.92 81.60 236.80 69.99 C 241.34 57.47 247.06 45.42 252.22 33.15 C 253.16 30.99 253.94 28.41 256.34 27.45 C 273.55 18.31 290.85 9.08 308.01 0.00 Z" />
<path fill="#f5e5c1" opacity="1.00" d=" M 111.86 97.91 C 114.58 96.09 117.92 96.55 121.01 96.52 C 135.67 96.56 150.33 96.58 164.98 96.60 C 166.76 96.60 168.59 96.75 170.21 97.56 C 178.82 101.52 187.19 106.13 196.28 108.91 C 203.14 111.11 209.65 114.30 215.87 117.90 C 223.91 121.92 230.29 128.40 237.91 133.07 C 242.42 136.77 248.14 138.58 252.48 142.51 C 256.45 145.75 260.85 148.76 263.64 153.17 C 270.14 167.00 274.91 181.58 279.87 195.99 C 284.77 200.28 291.37 202.36 295.91 207.00 C 296.78 213.30 298.75 219.65 298.47 226.05 C 296.35 226.46 294.11 226.93 292.48 228.44 C 289.91 230.51 289.60 234.01 288.44 236.88 C 287.37 239.49 287.18 242.37 287.64 245.14 C 288.83 251.40 289.63 257.73 290.45 264.04 C 290.40 271.65 283.93 276.63 280.62 282.86 C 280.22 288.23 280.69 293.62 280.64 298.99 C 280.45 305.15 282.18 311.32 281.08 317.46 C 276.65 332.66 272.14 347.84 267.49 362.97 C 266.25 373.15 270.20 383.02 271.24 393.05 C 269.42 403.09 265.08 412.65 264.77 423.00 C 264.39 441.66 264.53 460.34 264.57 479.00 C 262.05 479.88 259.60 481.06 256.93 481.43 C 248.15 482.83 239.57 485.23 231.16 488.09 C 229.86 488.59 228.46 488.60 227.09 488.71 C 227.50 485.25 228.36 481.88 229.45 478.58 C 236.20 476.03 243.09 473.87 249.89 471.49 C 251.06 471.12 252.46 470.34 252.24 468.90 C 253.19 449.06 254.69 429.26 255.61 409.43 C 251.63 407.95 249.15 411.64 245.61 412.43 C 238.40 414.59 231.39 417.45 224.10 419.32 C 218.45 419.69 212.73 419.96 207.08 419.55 C 201.20 415.51 195.52 411.05 190.13 406.36 C 201.31 400.83 214.00 402.79 226.01 402.62 C 229.51 402.27 233.16 404.37 236.49 402.69 C 242.32 400.26 248.89 396.25 255.20 399.62 C 255.34 400.76 255.49 401.91 255.65 403.06 C 256.06 402.89 256.87 402.54 257.28 402.37 C 258.29 398.11 260.50 393.79 259.21 389.35 C 258.44 386.82 258.32 384.18 258.15 381.57 C 250.30 384.16 242.56 387.03 234.79 389.85 C 228.44 392.25 221.65 390.38 215.11 390.54 C 208.71 391.61 202.38 393.09 196.04 394.43 C 193.10 394.94 190.33 393.72 187.58 392.94 C 192.00 389.43 197.00 386.74 201.65 383.56 C 205.25 381.06 209.76 380.14 214.07 380.88 C 219.01 381.81 224.03 382.17 228.98 383.03 C 238.73 384.90 247.07 376.54 256.83 378.63 C 256.64 377.05 256.45 375.46 256.26 373.89 C 253.08 373.11 250.02 371.90 247.27 370.11 C 247.93 365.28 248.21 360.33 249.75 355.68 C 251.40 351.27 249.89 346.49 250.70 341.95 C 251.50 337.73 252.17 333.30 251.21 329.06 C 246.69 316.72 242.06 304.41 237.70 292.02 C 236.51 288.99 236.08 285.50 233.89 282.98 C 231.23 280.86 226.52 283.41 227.71 286.97 C 232.74 306.21 237.24 325.60 241.87 344.95 C 243.06 349.05 242.06 353.26 241.06 357.28 C 232.95 358.58 224.34 357.83 216.94 354.08 C 215.25 352.74 214.47 350.54 212.72 349.27 C 205.57 346.84 198.08 345.00 191.44 341.29 C 191.42 338.28 191.38 335.27 191.23 332.27 C 188.20 336.03 185.14 339.84 182.87 344.12 C 181.81 345.59 183.10 347.19 183.68 348.56 C 186.36 353.85 188.93 359.19 191.59 364.49 C 192.50 366.06 192.75 368.11 191.70 369.68 C 189.84 372.71 187.02 374.98 184.88 377.80 C 183.03 379.79 181.22 382.71 178.14 382.57 C 172.42 382.67 166.71 382.18 161.04 381.56 C 158.56 381.30 156.82 379.06 156.04 376.86 C 150.83 364.15 144.76 351.81 139.13 339.30 C 135.46 334.82 130.60 331.52 126.27 327.73 C 123.60 325.35 119.58 323.84 118.71 320.00 C 116.57 312.43 114.65 304.80 112.39 297.26 C 111.59 294.77 109.26 291.84 111.30 289.35 C 113.47 285.59 118.42 286.84 121.99 286.18 C 125.95 286.03 131.45 283.66 134.06 287.91 C 136.92 292.87 139.31 298.10 141.93 303.19 C 152.30 306.49 162.75 309.55 173.19 312.60 C 174.49 313.15 175.15 311.64 175.87 310.90 C 179.80 305.89 184.16 301.24 188.33 296.42 C 190.32 294.12 191.96 291.04 195.11 290.19 C 198.11 289.42 201.68 288.79 204.34 290.81 C 206.10 295.30 201.89 299.52 202.93 303.88 C 205.48 307.22 209.63 308.98 212.78 311.74 C 212.55 306.48 212.57 301.22 212.29 295.97 C 211.59 292.02 211.15 287.98 211.60 283.99 C 212.59 281.18 213.91 278.50 214.77 275.65 C 219.54 273.02 224.48 275.98 228.94 277.76 C 237.39 281.11 245.83 284.48 254.24 287.90 C 255.93 288.47 257.92 289.61 259.61 288.43 C 263.91 285.83 268.06 282.99 272.41 280.47 C 273.36 279.76 274.75 279.39 275.26 278.22 C 276.27 273.57 278.01 269.13 279.28 264.56 C 279.73 261.27 279.48 257.93 279.57 254.63 C 275.77 254.80 271.93 254.36 268.15 254.86 C 259.59 258.67 251.21 262.89 242.66 266.72 C 239.96 267.78 237.83 269.76 235.53 271.44 C 231.76 273.66 227.17 273.03 223.29 271.46 C 223.11 268.57 227.12 268.53 228.51 266.50 C 235.19 258.87 241.67 251.06 248.21 243.31 C 250.57 239.85 255.15 239.47 258.93 238.77 C 263.37 238.75 267.60 237.28 272.05 237.30 C 275.45 236.14 279.22 236.95 282.51 235.54 C 282.54 234.68 282.59 232.95 282.62 232.09 C 276.40 232.48 270.17 232.60 263.95 232.79 C 258.65 233.03 253.19 234.28 248.00 232.64 C 235.09 229.20 222.18 225.68 208.99 223.54 C 206.38 223.21 203.96 222.14 201.53 221.22 C 200.53 217.74 200.34 214.11 200.03 210.52 C 201.93 209.63 203.82 208.39 206.01 208.46 C 221.35 208.43 236.69 208.63 252.03 208.58 C 254.69 208.86 258.11 206.89 257.40 203.82 C 256.39 201.30 253.42 200.98 251.08 200.77 C 235.37 200.54 219.66 200.44 203.94 200.34 C 200.04 200.56 197.33 197.26 194.06 195.69 C 195.63 191.73 201.53 189.38 199.48 184.36 C 193.81 170.59 187.33 157.17 181.84 143.33 C 181.21 141.61 179.76 139.88 180.59 137.97 C 182.66 134.93 185.14 132.21 187.50 129.42 C 187.52 129.12 187.55 128.51 187.56 128.21 C 184.63 125.55 181.53 123.07 178.46 120.56 C 171.05 114.33 162.09 110.07 152.84 107.41 C 145.54 107.19 138.26 106.25 130.95 106.56 C 113.82 114.80 96.83 123.40 79.76 131.77 C 76.73 133.89 72.81 135.47 71.34 139.13 C 65.48 150.93 59.61 162.73 53.72 174.52 C 52.27 177.14 51.10 179.95 50.73 182.95 C 50.19 192.09 48.64 201.14 48.29 210.30 C 58.78 217.00 69.39 223.50 79.97 230.05 C 83.16 232.04 86.52 233.87 90.15 234.95 C 112.79 239.48 135.96 240.62 159.02 240.53 C 166.11 240.15 172.81 236.88 179.97 237.46 C 196.28 237.71 212.65 236.95 228.90 238.49 C 232.17 239.11 234.86 236.71 238.02 236.59 C 239.72 236.91 241.37 237.42 243.06 237.80 C 242.66 238.76 242.25 239.73 241.58 240.54 C 234.40 249.72 227.45 259.07 220.19 268.19 C 216.03 270.21 211.44 269.51 207.20 268.16 C 199.09 265.94 190.89 264.03 182.78 261.79 C 175.81 260.26 168.87 262.53 161.92 262.79 C 153.69 264.20 145.34 264.72 137.09 266.03 C 133.80 266.57 130.53 265.78 127.44 264.70 C 127.38 264.03 127.26 262.70 127.20 262.04 C 125.77 257.19 126.63 251.43 122.67 247.61 C 115.76 245.94 108.60 247.25 101.65 246.00 C 95.74 245.03 89.70 246.01 83.80 244.95 C 79.25 244.07 74.48 244.97 70.04 243.47 C 56.63 238.43 43.84 231.70 30.49 226.56 C 22.61 230.97 14.65 235.35 7.04 240.21 C 4.52 243.47 2.15 246.88 0.00 250.40 L 0.00 237.98 C 7.98 233.29 16.03 228.72 24.05 224.09 C 28.04 215.73 32.13 207.26 33.93 198.11 C 37.26 185.95 39.18 173.36 43.81 161.58 C 47.93 151.09 51.41 140.35 55.81 129.97 C 68.11 123.24 80.60 116.85 92.65 109.67 C 99.03 105.71 105.45 101.81 111.86 97.91 Z" />
<path fill="#f4722b" opacity="1.00" d=" M 484.20 206.31 C 487.11 206.77 489.95 207.87 492.12 209.93 C 498.70 215.58 505.49 220.98 512.00 226.72 L 512.00 248.97 C 505.96 242.02 499.48 235.47 493.41 228.55 C 490.50 225.19 486.99 222.33 484.47 218.67 C 483.94 214.58 484.24 210.42 484.20 206.31 Z" />
<path fill="#f4722b" opacity="1.00" d=" M 294.26 250.94 C 298.46 253.91 302.22 257.45 306.10 260.82 C 344.76 292.92 383.40 325.02 422.00 357.20 C 423.22 357.90 422.62 359.39 422.46 360.49 C 418.49 375.75 414.32 390.96 410.59 406.27 C 410.02 399.14 411.14 392.06 411.40 384.98 C 410.05 380.09 411.22 374.74 408.66 370.17 C 406.57 364.50 400.46 362.46 396.35 358.64 C 385.52 349.12 374.54 339.78 363.29 330.76 C 342.21 313.83 321.11 296.94 300.00 280.05 C 299.09 279.27 298.17 278.51 297.39 277.61 C 297.47 273.74 298.14 269.82 297.28 265.98 C 295.88 261.07 294.20 256.11 294.26 250.94 Z" />
<path fill="#f5e5c1" opacity="1.00" d=" M 22.61 291.65 C 24.42 291.06 26.23 290.46 28.14 290.33 C 28.48 291.68 28.61 293.28 29.95 294.07 C 45.40 306.56 60.40 319.60 75.82 332.12 C 125.84 374.23 176.34 415.77 226.46 457.77 C 222.70 475.87 217.51 493.62 213.19 511.58 L 213.94 512.00 L 196.12 512.00 C 198.69 501.65 203.58 492.01 206.79 481.84 C 208.32 477.08 211.15 472.69 211.68 467.67 C 194.96 453.26 178.34 438.70 161.00 425.02 C 112.89 386.30 64.50 347.91 16.50 309.05 C 19.19 303.51 20.55 297.43 22.61 291.65 Z" />
<path fill="#f5e5c1" opacity="1.00" d=" M 288.43 306.16 C 290.24 306.74 292.24 307.01 293.82 308.13 C 328.46 337.14 363.14 366.09 397.75 395.11 C 401.38 397.81 404.36 401.60 408.82 402.98 C 407.38 403.78 405.67 404.38 404.91 405.96 C 398.70 415.98 392.52 426.00 386.30 436.00 C 380.82 444.87 379.06 455.30 376.06 465.13 C 373.97 471.69 372.07 478.32 370.44 485.01 C 370.11 486.93 369.84 489.19 371.18 490.82 C 376.20 497.79 380.82 505.02 385.81 512.00 L 356.76 512.00 C 355.37 510.72 354.45 509.06 353.52 507.45 C 347.89 498.37 342.34 489.23 336.76 480.11 C 335.74 478.10 333.56 477.24 331.74 476.17 C 313.79 466.54 295.93 456.75 277.98 447.13 C 275.88 445.83 273.00 445.31 271.78 442.96 C 275.02 441.93 278.49 440.69 281.87 441.95 C 305.21 450.80 329.13 457.99 352.71 466.17 C 353.77 466.64 354.93 466.55 356.07 466.49 C 356.75 464.09 358.41 462.18 359.65 460.07 C 364.74 451.77 369.98 443.56 374.91 435.18 C 376.13 432.68 378.43 430.07 377.04 427.16 C 376.33 421.79 376.87 416.25 375.22 411.00 C 371.64 409.85 369.86 406.21 367.32 403.72 C 340.99 375.30 314.93 346.64 288.57 318.26 C 288.50 314.23 288.44 310.19 288.43 306.16 Z" />
<path fill="#f4722b" opacity="1.00" d=" M 467.00 343.85 C 470.84 341.30 475.89 340.99 480.10 342.83 C 490.56 347.01 501.32 350.36 512.00 353.93 L 512.00 368.37 C 497.11 360.00 481.92 352.16 467.00 343.85 Z" />
<path fill="#f5e5c1" opacity="1.00" d=" M 40.69 408.66 C 42.79 407.93 44.93 405.79 47.24 407.05 C 50.90 408.93 52.16 413.30 55.10 415.99 C 71.43 432.60 87.91 449.04 104.09 465.79 C 113.47 475.13 122.48 484.85 132.18 493.84 C 129.40 495.06 126.76 496.54 124.31 498.31 C 121.53 500.33 117.91 499.29 114.87 500.50 C 104.65 504.29 94.44 508.10 84.27 512.00 L 62.59 512.00 C 58.17 502.61 53.92 493.13 49.60 483.69 C 39.68 462.33 30.56 440.57 19.02 420.01 C 26.01 415.83 32.87 411.16 40.69 408.66 Z" />
</svg>
