<?xml version="1.0" encoding="UTF-8" ?>
<!DOCTYPE svg PUBLIC "-//W3C//DTD SVG 1.1//EN" "http://www.w3.org/Graphics/SVG/1.1/DTD/svg11.dtd">
<svg width="512pt" height="512pt" viewBox="0 0 512 512" version="1.1" xmlns="http://www.w3.org/2000/svg">
<path fill="#3e3e3e" opacity="1.00" d=" M 0.00 0.00 L 325.21 0.00 C 321.56 3.10 318.04 6.33 314.50 9.55 C 310.23 13.42 306.95 18.20 303.48 22.75 C 296.63 21.65 289.93 19.75 283.03 19.03 C 275.70 18.18 268.39 17.29 261.07 16.41 C 258.57 15.99 256.08 16.66 253.94 17.96 C 242.46 24.47 230.92 30.88 219.46 37.42 C 216.29 39.54 212.40 37.95 208.90 38.43 C 207.05 39.29 205.56 40.74 204.08 42.12 C 196.99 49.02 189.95 55.97 182.71 62.72 C 177.67 67.42 178.62 75.21 174.63 80.57 C 162.56 96.22 150.65 112.01 138.68 127.75 C 135.71 131.63 131.11 133.62 127.16 136.30 C 124.07 138.29 122.76 141.91 120.72 144.80 C 118.35 149.20 113.49 153.36 114.92 158.83 C 116.83 167.85 118.60 176.91 120.37 185.96 C 121.09 189.49 121.42 193.36 123.87 196.21 C 129.98 203.77 135.73 211.61 141.88 219.13 C 140.10 220.60 138.10 221.92 136.77 223.84 C 135.35 226.48 137.14 229.27 138.26 231.64 C 141.64 238.10 144.21 244.97 147.93 251.25 C 143.64 256.18 138.66 260.55 135.15 266.12 C 129.72 274.64 123.15 282.51 119.05 291.81 C 111.42 307.88 103.26 323.70 96.00 339.93 C 103.50 347.50 110.98 355.09 118.54 362.60 C 119.92 374.70 118.92 386.91 119.96 399.03 C 120.31 402.85 120.31 406.69 120.33 410.53 C 118.76 412.55 117.07 414.49 115.79 416.72 C 114.37 419.25 114.68 422.26 114.55 425.06 C 114.64 431.79 113.52 438.47 113.56 445.20 C 106.03 446.43 103.37 454.24 99.62 459.80 C 94.71 466.19 96.78 474.66 96.72 482.10 C 99.47 487.72 105.40 490.62 110.93 492.86 C 114.63 494.65 118.23 491.45 121.92 491.08 C 125.38 494.17 126.61 498.91 129.56 502.40 C 131.68 503.89 134.49 503.60 136.94 504.12 C 141.66 504.56 146.33 505.91 151.10 505.61 C 155.17 504.87 159.01 503.24 162.95 502.05 C 166.02 501.14 169.24 499.25 170.21 496.00 C 170.71 492.34 170.79 488.58 170.31 484.91 C 168.76 481.61 166.14 478.89 165.01 475.38 C 163.02 469.64 161.23 463.84 159.17 458.14 C 158.20 455.13 156.75 452.05 157.36 448.83 C 158.88 439.97 158.06 430.95 159.06 422.05 C 159.30 418.14 160.58 413.14 156.28 410.94 C 156.42 405.93 156.26 400.92 156.63 395.93 C 157.64 390.28 161.16 385.45 162.50 379.90 C 163.00 375.88 162.63 371.83 162.62 367.80 C 168.72 363.48 176.14 360.71 180.77 354.59 C 181.92 353.33 181.16 351.48 181.17 349.99 C 179.42 336.31 177.25 322.68 176.08 308.94 C 184.68 302.66 193.39 296.31 203.23 292.10 C 210.18 288.83 216.98 285.27 223.91 281.95 C 228.30 279.93 231.56 276.25 234.70 272.69 C 240.19 266.36 245.84 260.17 251.34 253.84 C 253.39 270.30 256.77 286.59 259.24 302.99 C 259.30 305.81 259.00 308.63 259.16 311.45 C 262.41 313.42 265.91 314.92 269.54 316.06 C 265.91 332.15 262.42 348.27 258.49 364.28 C 265.38 370.45 272.38 376.51 279.32 382.64 C 282.11 392.29 284.58 402.03 287.30 411.71 C 288.67 415.17 284.47 417.45 284.34 420.81 C 283.25 429.61 282.01 438.42 281.19 447.26 C 280.55 450.68 284.62 451.89 286.68 453.75 C 285.16 459.13 283.65 464.51 282.09 469.88 C 279.26 478.60 281.27 487.94 279.58 496.83 C 279.12 498.81 276.93 500.57 278.02 502.68 C 279.46 505.60 279.52 508.83 279.17 512.00 L 0.00 512.00 L 0.00 0.00 Z" />
<path fill="#f5e5c1" opacity="1.00" d=" M 325.21 0.00 L 361.51 0.00 C 364.63 1.55 367.85 3.17 370.37 5.63 C 374.91 13.66 375.49 23.08 376.48 32.06 C 376.88 34.65 375.34 36.89 374.23 39.08 C 371.46 44.14 369.76 49.72 366.65 54.59 C 364.12 58.53 361.21 62.21 358.29 65.86 C 360.33 73.90 362.31 81.96 364.30 90.01 C 365.02 92.11 364.01 94.16 363.48 96.16 C 374.39 104.96 385.03 114.15 396.14 122.70 C 406.10 128.04 416.17 133.23 426.41 138.00 C 427.95 142.51 427.10 147.43 428.78 151.90 C 430.21 156.78 433.14 161.91 430.71 166.98 C 432.41 170.60 435.32 173.88 435.79 177.94 C 434.83 182.84 431.46 186.81 429.66 191.41 C 428.30 195.20 425.82 198.39 423.22 201.40 C 421.09 201.62 418.96 201.83 416.83 202.05 C 415.11 209.92 411.90 218.19 404.73 222.63 C 397.11 227.17 387.82 228.96 379.05 228.03 C 371.42 225.99 367.35 218.58 363.90 212.10 C 362.96 205.02 360.64 198.15 360.39 190.98 C 360.15 188.08 361.82 185.59 362.64 182.93 C 360.71 178.12 358.79 172.57 354.06 169.82 C 338.36 159.68 323.14 148.79 307.33 138.82 C 306.14 142.66 304.94 146.49 303.39 150.20 C 301.39 154.64 301.53 159.67 299.56 164.12 C 301.95 169.40 304.74 174.54 306.47 180.09 C 308.41 186.22 310.27 192.37 312.21 198.50 C 314.98 206.35 315.03 214.77 316.53 222.88 C 317.69 229.18 317.22 235.61 317.98 241.96 C 318.73 248.64 318.11 255.39 318.89 262.08 C 319.85 269.99 319.01 278.01 320.10 285.92 C 320.87 290.71 319.42 295.91 321.69 300.39 C 329.48 316.04 336.51 332.06 344.24 347.75 C 344.83 349.32 346.35 351.24 344.89 352.80 C 340.11 359.79 333.52 365.57 329.63 373.14 C 327.75 383.56 326.93 394.15 325.36 404.63 C 327.09 405.65 328.81 406.68 330.54 407.71 C 330.51 417.81 330.41 427.92 330.29 438.02 C 330.06 443.13 332.81 447.65 333.96 452.51 C 336.38 452.50 338.80 452.47 341.23 452.43 C 345.62 455.92 350.02 459.41 354.49 462.82 C 354.77 465.77 355.16 468.72 355.53 471.68 C 356.31 471.63 357.87 471.53 358.65 471.48 C 358.56 475.06 359.02 478.72 358.29 482.25 C 354.40 487.64 349.00 491.74 343.98 496.03 C 341.42 498.57 337.63 498.16 334.34 498.44 C 330.49 503.26 326.31 507.81 321.79 512.00 L 310.10 512.00 C 313.33 511.03 316.61 510.15 319.70 508.79 C 322.22 507.40 323.96 505.02 325.96 503.02 C 325.67 501.10 325.39 499.17 325.12 497.26 C 318.41 499.35 312.50 503.43 305.80 505.44 C 299.28 505.51 292.82 504.05 286.27 504.34 C 286.46 507.94 289.74 509.80 292.10 512.00 L 279.17 512.00 C 279.52 508.83 279.46 505.60 278.02 502.68 C 276.93 500.57 279.12 498.81 279.58 496.83 C 281.27 487.94 279.26 478.60 282.09 469.88 C 283.65 464.51 285.16 459.13 286.68 453.75 C 284.62 451.89 280.55 450.68 281.19 447.26 C 282.01 438.42 283.25 429.61 284.34 420.81 C 284.47 417.45 288.67 415.17 287.30 411.71 C 284.58 402.03 282.11 392.29 279.32 382.64 C 272.38 376.51 265.38 370.45 258.49 364.28 C 262.42 348.27 265.91 332.15 269.54 316.06 C 265.91 314.92 262.41 313.42 259.16 311.45 C 259.00 308.63 259.30 305.81 259.24 302.99 C 256.77 286.59 253.39 270.30 251.34 253.84 C 245.84 260.17 240.19 266.36 234.70 272.69 C 231.56 276.25 228.30 279.93 223.91 281.95 C 216.98 285.27 210.18 288.83 203.23 292.10 C 193.39 296.31 184.68 302.66 176.08 308.94 C 177.25 322.68 179.42 336.31 181.17 349.99 C 181.16 351.48 181.92 353.33 180.77 354.59 C 176.14 360.71 168.72 363.48 162.62 367.80 C 162.63 371.83 163.00 375.88 162.50 379.90 C 161.16 385.45 157.64 390.28 156.63 395.93 C 156.26 400.92 156.42 405.93 156.28 410.94 C 160.58 413.14 159.30 418.14 159.06 422.05 C 158.06 430.95 158.88 439.97 157.36 448.83 C 156.75 452.05 158.20 455.13 159.17 458.14 C 161.23 463.84 163.02 469.64 165.01 475.38 C 166.14 478.89 168.76 481.61 170.31 484.91 C 170.79 488.58 170.71 492.34 170.21 496.00 C 169.24 499.25 166.02 501.14 162.95 502.05 C 159.01 503.24 155.17 504.87 151.10 505.61 C 146.33 505.91 141.66 504.56 136.94 504.12 C 134.49 503.60 131.68 503.89 129.56 502.40 C 126.61 498.91 125.38 494.17 121.92 491.08 C 118.23 491.45 114.63 494.65 110.93 492.86 C 105.40 490.62 99.47 487.72 96.72 482.10 C 96.78 474.66 94.71 466.19 99.62 459.80 C 103.37 454.24 106.03 446.43 113.56 445.20 C 113.52 438.47 114.64 431.79 114.55 425.06 C 114.68 422.26 114.37 419.25 115.79 416.72 C 117.07 414.49 118.76 412.55 120.33 410.53 C 120.31 406.69 120.31 402.85 119.96 399.03 C 118.92 386.91 119.92 374.70 118.54 362.60 C 110.98 355.09 103.50 347.50 96.00 339.93 C 103.26 323.70 111.42 307.88 119.05 291.81 C 123.15 282.51 129.72 274.64 135.15 266.12 C 138.66 260.55 143.64 256.18 147.93 251.25 C 144.21 244.97 141.64 238.10 138.26 231.64 C 137.14 229.27 135.35 226.48 136.77 223.84 C 138.10 221.92 140.10 220.60 141.88 219.13 C 135.73 211.61 129.98 203.77 123.87 196.21 C 121.42 193.36 121.09 189.49 120.37 185.96 C 118.60 176.91 116.83 167.85 114.92 158.83 C 113.49 153.36 118.35 149.20 120.72 144.80 C 122.76 141.91 124.07 138.29 127.16 136.30 C 131.11 133.62 135.71 131.63 138.68 127.75 C 150.65 112.01 162.56 96.22 174.63 80.57 C 178.62 75.21 177.67 67.42 182.71 62.72 C 189.95 55.97 196.99 49.02 204.08 42.12 C 205.56 40.74 207.05 39.29 208.90 38.43 C 212.40 37.95 216.29 39.54 219.46 37.42 C 230.92 30.88 242.46 24.47 253.94 17.96 C 256.08 16.66 258.57 15.99 261.07 16.41 C 268.39 17.29 275.70 18.18 283.03 19.03 C 289.93 19.75 296.63 21.65 303.48 22.75 C 306.95 18.20 310.23 13.42 314.50 9.55 C 318.04 6.33 321.56 3.10 325.21 0.00 Z" />
<path fill="#3e3e3e" opacity="1.00" d=" M 361.51 0.00 L 512.00 0.00 L 512.00 512.00 L 321.79 512.00 C 326.31 507.81 330.49 503.26 334.34 498.44 C 337.63 498.16 341.42 498.57 343.98 496.03 C 349.00 491.74 354.40 487.64 358.29 482.25 C 359.02 478.72 358.56 475.06 358.65 471.48 C 357.87 471.53 356.31 471.63 355.53 471.68 C 355.16 468.72 354.77 465.77 354.49 462.82 C 350.02 459.41 345.62 455.92 341.23 452.43 C 338.80 452.47 336.38 452.50 333.96 452.51 C 332.81 447.65 330.06 443.13 330.29 438.02 C 330.41 427.92 330.51 417.81 330.54 407.71 C 328.81 406.68 327.09 405.65 325.36 404.63 C 326.93 394.15 327.75 383.56 329.63 373.14 C 333.52 365.57 340.11 359.79 344.89 352.80 C 346.35 351.24 344.83 349.32 344.24 347.75 C 336.51 332.06 329.48 316.04 321.69 300.39 C 319.42 295.91 320.87 290.71 320.10 285.92 C 319.01 278.01 319.85 269.99 318.89 262.08 C 318.11 255.39 318.73 248.64 317.98 241.96 C 317.22 235.61 317.69 229.18 316.53 222.88 C 315.03 214.77 314.98 206.35 312.21 198.50 C 310.27 192.37 308.41 186.22 306.47 180.09 C 304.74 174.54 301.95 169.40 299.56 164.12 C 301.53 159.67 301.39 154.64 303.39 150.20 C 304.94 146.49 306.14 142.66 307.33 138.82 C 323.14 148.79 338.36 159.68 354.06 169.82 C 358.79 172.57 360.71 178.12 362.64 182.93 C 361.82 185.59 360.15 188.08 360.39 190.98 C 360.64 198.15 362.96 205.02 363.90 212.10 C 367.35 218.58 371.42 225.99 379.05 228.03 C 387.82 228.96 397.11 227.17 404.73 222.63 C 411.90 218.19 415.11 209.92 416.83 202.05 C 418.96 201.83 421.09 201.62 423.22 201.40 C 425.82 198.39 428.30 195.20 429.66 191.41 C 431.46 186.81 434.83 182.84 435.79 177.94 C 435.32 173.88 432.41 170.60 430.71 166.98 C 433.14 161.91 430.21 156.78 428.78 151.90 C 427.10 147.43 427.95 142.51 426.41 138.00 C 416.17 133.23 406.10 128.04 396.14 122.70 C 385.03 114.15 374.39 104.96 363.48 96.16 C 364.01 94.16 365.02 92.11 364.30 90.01 C 362.31 81.96 360.33 73.90 358.29 65.86 C 361.21 62.21 364.12 58.53 366.65 54.59 C 369.76 49.72 371.46 44.14 374.23 39.08 C 375.34 36.89 376.88 34.65 376.48 32.06 C 375.49 23.08 374.91 13.66 370.37 5.63 C 367.85 3.17 364.63 1.55 361.51 0.00 Z" />
<path fill="#3e3e3e" opacity="1.00" d=" M 320.40 10.51 C 325.11 5.38 332.19 2.93 339.08 3.29 C 347.73 2.57 356.39 5.68 363.43 10.59 C 365.46 11.61 365.49 13.98 365.94 15.90 C 359.39 13.64 353.05 10.86 346.50 8.63 C 344.35 8.08 342.11 8.42 339.94 8.56 C 333.44 9.36 326.90 9.78 320.40 10.51 Z" />
<path fill="#3e3e3e" opacity="1.00" d=" M 334.67 11.84 C 338.48 11.45 342.34 11.07 346.16 11.63 C 352.33 14.45 358.82 16.50 365.16 18.93 C 366.92 19.48 367.97 21.05 369.00 22.48 C 365.27 23.24 362.34 20.13 358.98 19.08 C 353.84 17.35 348.34 16.89 342.98 16.24 C 332.89 16.07 322.91 17.83 312.86 18.43 C 314.34 16.69 315.66 14.56 317.86 13.67 C 323.42 12.70 329.09 12.66 334.67 11.84 Z" />
<path fill="#3e3e3e" opacity="1.00" d=" M 337.14 23.14 C 341.46 23.13 345.68 24.24 349.96 24.75 C 354.53 25.23 358.38 27.92 362.52 29.67 C 366.31 31.27 369.52 35.90 368.22 40.03 C 365.97 37.87 364.09 35.26 361.24 33.84 C 357.22 31.66 353.82 28.42 349.67 26.52 C 345.24 26.28 338.32 24.89 337.30 30.96 C 339.75 32.05 342.09 33.36 344.38 34.74 C 348.79 37.39 353.97 38.38 358.96 39.13 C 360.29 44.54 359.04 50.52 359.56 56.15 C 358.66 57.48 357.76 58.81 356.88 60.15 C 353.72 58.41 351.54 55.46 348.87 53.13 C 339.56 44.78 330.92 35.73 321.58 27.42 C 319.63 25.62 316.89 25.47 314.44 24.94 C 322.03 24.59 329.55 23.48 337.14 23.14 Z" />
<path fill="#3e3e3e" opacity="1.00" d=" M 233.62 35.52 C 240.78 31.55 247.81 27.30 255.07 23.51 C 262.75 23.43 270.32 25.36 278.00 25.72 C 286.78 26.80 295.35 29.12 304.04 30.72 C 309.22 31.83 314.54 32.58 319.47 34.62 C 322.68 36.59 325.23 39.45 328.02 41.96 C 335.43 48.55 342.81 55.17 350.14 61.84 C 352.81 64.10 354.21 67.64 354.60 71.04 C 354.89 73.89 350.88 74.53 349.21 72.84 C 336.65 62.74 323.94 52.80 311.41 42.65 C 309.84 41.40 308.11 40.24 306.08 39.93 C 295.39 37.90 284.71 35.81 274.02 33.76 C 268.61 32.43 263.31 34.89 258.19 36.33 C 253.97 37.47 249.58 41.17 250.55 46.00 C 251.89 54.94 251.16 64.04 252.61 72.97 C 252.58 79.36 254.14 85.68 253.50 92.07 C 241.46 92.90 229.52 94.90 217.56 96.55 C 213.72 91.21 212.10 84.69 208.98 78.96 C 208.47 78.01 207.72 77.32 206.72 76.87 C 206.50 74.96 206.14 73.04 206.38 71.12 C 211.15 59.51 220.32 50.72 227.77 40.87 C 229.35 38.73 231.20 36.72 233.62 35.52 Z" />
<path fill="#f4722b" opacity="1.00" d=" M 391.10 25.74 C 420.65 25.43 450.20 25.35 479.75 25.15 C 480.50 33.24 480.45 41.39 480.68 49.51 C 473.80 49.64 466.92 49.59 460.06 49.85 C 445.06 50.96 429.99 50.09 415.00 51.26 C 405.01 51.47 395.01 51.53 385.01 51.71 C 386.62 46.99 389.79 42.88 390.65 37.89 C 391.69 33.92 391.32 29.79 391.10 25.74 Z" />
<path fill="#f4722b" opacity="1.00" d=" M 86.02 27.80 C 123.49 27.86 160.95 27.49 198.42 27.20 C 192.26 32.09 187.39 38.40 181.14 43.20 C 176.87 48.28 171.19 51.98 167.35 57.46 C 139.24 58.16 111.12 58.90 83.01 59.76 C 68.64 59.78 54.31 60.96 39.94 60.84 C 32.75 61.30 25.56 61.29 18.36 61.41 C 17.30 56.01 17.95 50.50 17.78 45.04 C 17.91 39.55 17.18 33.95 18.65 28.57 C 41.11 28.23 63.58 28.62 86.02 27.80 Z" />
<path fill="#3e3e3e" opacity="1.00" d=" M 207.72 45.74 C 210.03 45.28 212.55 46.36 214.93 46.55 C 211.30 51.72 207.20 56.65 204.69 62.50 C 202.13 68.22 199.32 73.82 196.82 79.56 C 195.87 81.61 196.16 83.94 197.05 85.94 C 198.97 90.65 200.44 95.54 202.45 100.22 C 198.44 101.65 194.38 102.94 190.49 104.66 C 190.47 104.00 190.43 102.68 190.41 102.01 C 188.43 100.88 185.97 99.93 185.31 97.50 C 183.50 92.75 181.34 88.13 179.86 83.26 C 182.22 77.53 182.02 70.37 186.97 65.96 C 193.95 59.28 200.58 52.23 207.72 45.74 Z" />
<path fill="#3e3e3e" opacity="1.00" d=" M 284.85 69.83 C 289.21 69.00 293.49 66.93 298.01 67.82 C 302.95 68.58 308.00 69.22 312.99 68.50 C 317.48 67.87 321.84 69.47 326.10 70.66 C 328.58 74.58 330.07 79.27 333.58 82.43 C 350.47 96.17 367.26 110.05 384.14 123.80 C 386.98 126.04 389.54 128.70 392.80 130.34 C 402.09 135.06 411.46 139.64 420.65 144.54 C 420.75 147.36 420.86 150.20 420.51 153.01 C 411.18 153.97 408.58 165.01 400.56 168.37 C 397.07 169.89 394.03 173.02 389.97 172.66 C 383.82 172.60 377.68 172.62 371.53 172.44 C 367.97 169.66 364.51 166.75 361.28 163.60 C 357.01 157.57 353.65 150.81 348.40 145.51 C 340.16 135.93 338.23 123.08 335.29 111.22 C 332.65 110.98 330.91 112.86 329.42 114.76 C 329.48 118.32 329.50 121.89 329.42 125.46 C 323.88 124.75 319.32 121.28 314.89 118.15 C 311.52 115.19 307.62 112.52 305.33 108.58 C 303.39 103.58 301.54 98.53 300.09 93.37 C 297.73 93.08 295.56 94.35 294.61 96.51 C 293.46 99.47 292.92 102.61 292.18 105.68 C 291.83 105.62 291.13 105.49 290.78 105.42 C 285.75 101.47 280.49 97.83 275.26 94.15 C 277.56 89.78 276.55 84.72 276.81 79.99 C 277.02 77.34 276.20 74.14 278.19 71.98 C 280.15 70.64 282.61 70.45 284.85 69.83 Z" />
<path fill="#f4722b" opacity="1.00" d=" M 18.24 85.12 C 57.52 85.80 96.76 87.97 136.02 88.88 C 140.40 89.28 144.80 89.44 149.19 89.55 C 143.69 95.10 140.15 102.17 134.94 107.95 C 130.91 112.84 128.07 119.20 122.03 122.00 C 117.15 124.43 112.60 128.05 110.28 133.11 C 107.56 139.14 102.18 143.74 100.55 150.31 C 98.17 157.86 100.86 165.62 102.13 173.10 C 104.79 181.60 105.70 190.51 108.13 199.07 C 109.21 203.14 112.26 206.23 114.99 209.27 C 82.79 210.95 50.63 214.09 18.42 215.79 C 18.53 172.24 18.14 128.68 18.24 85.12 Z" />
<path fill="#3e3e3e" opacity="1.00" d=" M 146.26 125.96 C 155.40 113.60 164.69 101.33 174.20 89.24 C 174.41 95.92 174.55 102.73 176.87 109.08 C 166.47 114.32 156.38 120.19 146.26 125.96 Z" />
<path fill="#3e3e3e" opacity="1.00" d=" M 253.04 96.75 C 255.40 96.68 257.71 94.82 260.05 95.90 C 263.09 97.14 266.35 98.03 269.12 99.85 C 275.54 104.42 281.86 109.11 288.33 113.61 C 290.09 114.84 291.75 116.27 292.93 118.09 C 296.72 123.68 300.57 129.23 304.12 134.99 C 299.03 130.38 295.11 124.67 290.39 119.72 C 289.49 118.90 288.24 118.70 287.11 118.44 C 279.39 116.94 271.67 115.43 263.97 113.84 C 256.34 112.18 248.59 114.07 240.94 114.49 C 231.61 115.42 222.27 116.26 212.94 117.20 C 206.94 117.39 201.72 120.72 196.16 122.57 C 187.45 125.70 179.09 129.86 170.11 132.17 C 166.29 133.78 162.39 135.38 159.21 138.11 C 150.58 143.66 141.28 148.15 132.63 153.68 C 129.28 157.28 126.77 161.62 123.72 165.49 C 123.05 161.35 121.72 157.31 121.50 153.12 C 123.62 149.21 125.87 145.21 128.93 141.94 C 139.90 133.00 152.84 127.03 165.06 120.07 C 169.51 117.70 173.74 114.83 178.58 113.27 C 187.64 110.17 196.67 106.99 205.71 103.81 C 208.34 102.84 211.10 102.26 213.88 101.90 C 226.94 100.23 239.99 98.53 253.04 96.75 Z" />
<path fill="#f4722b" opacity="1.00" d=" M 390.26 98.21 C 408.18 98.35 426.07 99.62 444.00 99.76 C 451.65 100.35 459.32 100.56 466.99 100.63 C 472.07 100.71 477.20 100.43 482.19 101.61 C 482.38 113.74 482.62 125.87 482.72 138.01 C 483.88 152.83 483.28 167.72 483.92 182.57 C 472.42 184.02 460.76 183.89 449.27 185.41 C 451.48 178.29 450.42 170.46 446.81 163.98 C 446.90 158.74 445.31 153.76 443.45 148.93 C 442.49 142.94 442.35 136.69 439.99 131.01 C 435.86 123.14 426.05 122.43 419.41 117.63 C 414.06 113.58 406.91 112.62 402.03 107.86 C 398.33 104.38 393.85 101.83 390.26 98.21 Z" />
<path fill="#3e3e3e" opacity="1.00" d=" M 206.99 126.27 C 222.30 124.45 237.61 122.57 252.92 120.70 C 255.71 120.29 258.39 121.32 261.07 121.96 C 267.76 123.65 274.48 125.26 281.19 126.88 C 282.33 127.27 283.76 127.38 284.46 128.52 C 288.35 133.66 291.99 138.99 295.85 144.15 C 297.88 146.39 296.29 150.53 294.04 151.81 C 289.86 149.48 286.36 146.09 282.08 143.91 C 277.50 141.58 272.89 139.24 267.94 137.79 C 263.70 136.50 259.59 134.36 255.05 134.54 C 246.40 134.56 237.76 134.20 229.12 134.36 C 221.72 135.14 214.38 136.48 207.04 137.65 C 200.55 138.65 194.49 141.25 188.45 143.69 C 180.73 146.87 173.02 150.10 165.47 153.68 C 159.77 156.69 154.78 160.85 149.41 164.39 C 144.66 167.28 142.03 172.34 138.54 176.47 C 135.04 180.62 132.08 185.20 128.46 189.23 C 127.63 185.70 127.02 182.12 126.40 178.55 C 128.53 175.89 130.41 173.04 132.14 170.10 C 135.56 164.05 141.49 160.13 146.41 155.41 C 150.89 151.87 154.89 147.42 160.38 145.44 C 172.28 140.35 184.16 135.21 196.07 130.14 C 199.64 128.67 203.08 126.65 206.99 126.27 Z" />
<path fill="#3e3e3e" opacity="1.00" d=" M 200.89 147.39 C 206.27 145.83 211.51 143.72 216.98 142.51 C 231.61 142.13 246.21 143.21 260.83 143.41 C 270.40 151.16 280.55 158.21 290.00 166.08 C 292.89 171.33 295.22 176.91 297.75 182.35 C 301.40 193.16 304.48 204.17 308.04 215.03 C 310.13 220.44 309.04 226.36 309.57 232.02 C 310.39 241.14 310.65 250.33 310.43 259.49 C 310.79 258.11 310.10 254.60 312.52 255.65 L 311.10 256.22 C 311.49 264.78 311.10 273.39 312.13 281.91 C 312.49 287.51 312.30 293.13 312.69 298.73 C 307.85 299.65 302.86 299.48 298.06 300.66 C 300.71 299.64 302.29 297.19 301.83 294.30 C 294.37 295.96 286.95 298.34 280.38 302.34 C 278.74 303.46 276.75 303.47 274.85 303.54 C 271.59 301.18 269.77 297.42 266.56 295.05 C 264.32 282.80 262.26 270.50 260.38 258.19 C 262.16 260.27 264.69 261.43 266.78 263.16 C 271.97 268.23 277.87 272.51 282.81 277.85 C 285.24 276.88 288.74 274.64 287.35 271.56 C 280.53 264.58 273.27 257.88 268.16 249.46 C 278.19 250.94 288.06 253.53 298.12 254.68 C 300.05 252.79 301.98 250.90 303.87 248.96 C 303.75 248.45 303.50 247.42 303.38 246.90 C 291.14 243.51 279.18 239.20 267.11 235.24 C 267.98 233.15 269.05 231.13 269.70 228.96 C 269.99 226.80 268.89 224.83 268.10 222.90 C 265.33 216.41 262.61 209.90 260.06 203.32 C 258.33 204.41 255.96 205.54 256.18 207.99 C 256.58 213.68 259.26 219.22 258.08 225.00 C 257.23 229.29 257.73 233.72 257.00 238.00 C 254.49 242.09 249.38 243.00 245.97 246.08 C 239.51 251.37 231.79 254.91 223.65 256.71 C 223.62 256.01 223.55 254.60 223.51 253.89 C 219.47 255.45 217.22 259.42 213.68 261.74 C 210.43 263.97 207.44 266.65 203.91 268.42 C 197.70 269.80 191.27 269.50 184.99 270.40 C 182.64 270.22 181.51 272.59 180.11 274.02 C 180.99 275.01 181.88 276.01 182.78 277.01 C 176.45 278.84 170.60 282.66 163.84 282.75 C 160.83 282.53 158.64 285.55 158.54 288.33 C 166.37 289.28 174.27 288.68 182.09 287.95 C 179.13 289.45 175.98 290.46 172.84 291.52 C 169.94 292.55 169.30 296.08 166.99 297.81 C 158.09 300.26 149.37 296.84 140.86 294.54 C 138.32 293.33 134.58 296.08 135.76 298.84 C 145.39 304.55 154.59 310.97 164.03 317.00 C 165.33 317.96 167.05 317.52 168.55 317.74 C 169.49 322.84 169.86 328.01 170.74 333.12 C 166.86 329.98 161.69 329.86 156.95 329.66 C 145.87 332.49 134.60 336.68 123.00 334.88 C 118.17 334.31 112.91 335.68 108.44 333.30 C 107.33 332.82 106.19 332.39 105.04 332.03 C 112.41 315.65 120.70 299.68 128.36 283.43 C 132.78 276.00 137.91 269.01 142.77 261.86 C 150.79 252.21 160.07 243.68 168.57 234.47 C 169.48 233.42 169.75 232.01 170.25 230.76 C 167.31 230.59 166.72 227.47 165.47 225.41 C 163.02 220.01 159.08 215.19 158.15 209.20 C 156.84 202.59 155.29 196.03 153.82 189.45 C 153.52 187.73 153.00 185.77 154.10 184.21 C 156.91 179.28 159.89 174.44 162.70 169.51 C 163.95 167.19 166.22 165.73 168.40 164.38 C 174.82 160.48 181.17 156.47 187.54 152.48 C 191.55 149.79 196.42 149.01 200.89 147.39 Z" />
<path fill="#f4722b" opacity="1.00" d=" M 317.05 163.99 C 320.52 165.71 323.96 167.58 326.94 170.09 C 332.79 175.16 340.27 177.93 345.94 183.23 C 345.27 186.32 344.97 189.47 344.89 192.63 C 338.97 192.82 333.08 194.01 327.14 193.62 C 324.71 186.18 322.91 178.53 320.54 171.06 C 319.47 168.66 317.92 166.48 317.05 163.99 Z" />
<path fill="#3e3e3e" opacity="1.00" d=" M 423.82 171.98 C 426.26 175.12 429.34 178.97 428.37 183.19 C 420.70 184.92 412.88 186.57 404.99 185.25 C 407.21 184.60 409.39 183.74 411.19 182.25 C 415.46 178.90 419.68 175.49 423.82 171.98 Z" />
<path fill="#3e3e3e" opacity="1.00" d=" M 375.91 190.55 C 378.57 191.61 381.36 192.29 384.11 193.09 C 384.70 194.18 385.25 195.29 385.75 196.44 C 382.75 198.24 378.55 199.61 375.47 197.27 C 372.97 195.71 375.70 192.66 375.91 190.55 Z" />
<path fill="#3e3e3e" opacity="1.00" d=" M 378.87 205.93 C 382.43 205.03 386.08 203.83 388.32 200.70 C 389.35 201.55 390.29 202.49 391.15 203.51 C 397.73 204.23 404.22 202.38 410.79 202.24 C 409.17 208.24 407.96 216.10 401.21 218.44 C 394.80 220.58 387.53 222.51 380.90 220.33 C 378.15 218.08 375.51 215.70 373.17 213.02 C 376.17 214.83 379.39 216.63 382.97 216.76 C 386.13 216.30 388.43 213.04 388.42 209.92 C 385.05 209.08 381.77 207.87 378.87 205.93 Z" />
<path fill="#f4722b" opacity="1.00" d=" M 425.55 222.37 C 430.08 222.30 434.63 222.37 439.16 221.91 C 446.41 221.20 453.71 221.59 460.98 221.11 C 469.03 220.25 477.15 220.49 485.24 220.26 C 485.24 229.45 485.55 238.64 485.56 247.82 C 484.23 248.59 482.47 248.08 480.99 248.26 C 432.04 248.22 383.11 249.32 334.17 249.40 C 332.37 241.84 333.92 233.97 332.04 226.45 C 339.32 225.95 346.63 225.67 353.93 225.60 C 357.37 232.33 363.45 237.19 369.76 241.09 C 374.00 242.63 378.58 242.88 383.03 243.49 C 392.05 242.96 401.18 241.37 409.45 237.60 C 415.85 233.79 420.93 228.13 425.55 222.37 Z" />
<path fill="#f4722b" opacity="1.00" d=" M 18.46 239.60 C 53.16 237.99 87.88 236.57 122.59 235.21 C 125.51 239.63 127.84 244.38 129.89 249.25 C 128.73 250.07 127.68 251.40 126.09 251.23 C 107.05 251.41 88.01 251.59 68.97 251.81 C 52.18 251.77 35.39 251.83 18.60 252.26 C 18.37 248.04 18.42 243.82 18.46 239.60 Z" />
<path fill="#f4722b" opacity="1.00" d=" M 18.50 282.55 C 27.01 282.66 35.49 283.46 44.00 283.24 C 64.63 283.90 85.25 284.50 105.89 284.97 C 101.21 292.11 98.79 300.36 94.80 307.87 C 91.32 313.50 88.78 319.65 86.14 325.70 C 75.10 325.77 64.05 325.53 53.04 324.79 C 41.56 324.80 30.10 324.32 18.64 323.75 C 18.36 310.01 18.54 296.28 18.50 282.55 Z" />
<path fill="#f4722b" opacity="1.00" d=" M 232.36 294.40 C 235.60 292.83 238.21 290.27 241.17 288.27 C 242.18 293.52 242.91 298.82 244.11 304.04 C 244.47 308.15 243.99 312.39 245.27 316.40 C 246.07 320.19 248.99 322.93 251.76 325.40 C 251.26 327.35 250.76 329.30 250.26 331.26 C 237.22 329.97 224.09 330.80 211.04 329.71 C 205.58 329.50 200.11 329.44 194.65 329.38 C 193.24 324.97 192.96 320.34 191.92 315.85 C 198.03 312.27 203.51 307.53 210.33 305.28 C 218.05 302.39 224.77 297.57 232.36 294.40 Z" />
<path fill="#f4722b" opacity="1.00" d=" M 335.58 291.49 C 339.72 291.54 343.87 291.54 348.01 291.71 C 362.26 292.96 376.61 291.93 390.86 293.20 C 402.57 293.45 414.29 293.30 425.97 294.17 C 437.98 294.29 450.00 294.46 462.00 295.18 C 470.38 295.16 478.75 295.43 487.12 295.72 C 487.06 310.01 487.98 324.29 488.06 338.57 C 479.04 338.40 470.06 337.41 461.04 337.64 C 425.91 336.47 390.78 335.40 355.64 334.37 C 354.14 331.19 353.03 327.82 351.19 324.80 C 346.79 317.55 344.28 309.36 340.24 301.92 C 338.19 298.68 336.66 295.16 335.58 291.49 Z" />
<path fill="#3e3e3e" opacity="1.00" d=" M 293.94 308.98 C 300.61 307.54 307.23 305.85 314.09 305.61 C 314.77 307.41 315.46 309.21 316.12 311.02 C 309.80 312.99 302.72 314.94 296.47 311.65 C 295.54 310.84 294.76 309.89 293.94 308.98 Z" />
<path fill="#3e3e3e" opacity="1.00" d=" M 274.74 321.79 C 276.20 320.72 277.65 319.64 279.10 318.55 C 282.14 319.39 285.18 320.30 288.02 321.72 C 286.19 324.64 283.89 327.26 282.26 330.32 C 279.85 335.97 274.02 339.35 272.32 345.45 C 274.26 345.59 276.20 345.68 278.15 345.77 C 278.34 346.12 278.72 346.83 278.91 347.18 C 275.00 348.92 271.24 350.99 267.57 353.20 C 269.93 342.73 272.23 332.24 274.74 321.79 Z" />
<path fill="#3e3e3e" opacity="1.00" d=" M 310.72 322.73 C 313.90 321.19 317.26 318.94 320.94 319.59 C 323.26 326.46 326.89 332.78 329.90 339.36 C 324.53 341.88 318.13 342.08 312.94 339.00 C 309.78 336.62 305.66 337.73 302.01 337.46 C 297.26 337.12 292.39 337.70 287.79 336.22 C 294.01 329.55 303.09 327.26 310.72 322.73 Z" />
<path fill="#3e3e3e" opacity="1.00" d=" M 158.22 345.10 C 162.58 343.23 167.27 342.20 171.51 340.01 C 171.79 342.55 172.20 345.07 172.59 347.60 C 169.69 347.08 166.79 346.58 163.87 346.26 L 163.11 345.75 C 161.47 345.54 159.84 345.33 158.22 345.10 Z" />
<path fill="#3e3e3e" opacity="1.00" d=" M 126.56 358.66 C 133.25 359.72 140.05 359.12 146.76 359.81 C 151.61 360.90 156.59 361.62 161.14 363.72 C 159.16 365.72 156.65 367.40 155.38 369.97 C 154.92 374.79 155.91 379.66 155.24 384.46 C 153.31 390.01 150.41 395.20 148.84 400.87 C 148.52 403.69 148.64 406.54 148.56 409.38 C 141.63 409.39 134.71 409.89 127.78 409.66 C 127.31 398.26 127.85 386.83 126.75 375.47 C 126.62 369.87 126.33 364.26 126.56 358.66 Z" />
<path fill="#3e3e3e" opacity="1.00" d=" M 290.26 366.88 C 295.21 366.16 299.95 362.69 305.04 364.41 C 310.84 365.58 316.62 366.92 322.48 367.82 C 321.45 372.45 321.25 377.19 321.36 381.93 C 320.36 390.07 319.34 398.23 318.23 406.36 C 310.80 406.84 303.39 407.89 295.92 407.59 C 294.87 399.29 292.21 391.29 291.19 382.99 C 290.44 377.66 290.22 372.26 290.26 366.88 Z" />
<path fill="#f4722b" opacity="1.00" d=" M 18.63 400.86 C 22.44 398.66 26.83 399.92 30.93 400.21 C 55.57 401.87 80.17 404.08 104.81 405.61 C 100.86 410.82 99.15 417.42 99.58 423.92 C 99.25 429.00 99.94 435.08 95.83 438.89 C 90.81 444.50 87.18 451.15 83.80 457.83 C 81.83 462.96 81.41 468.52 81.64 473.97 C 81.64 480.58 81.47 488.04 85.87 493.46 C 63.49 493.37 41.10 493.65 18.73 493.35 C 18.59 462.52 18.57 431.69 18.63 400.86 Z" />
<path fill="#f4722b" opacity="1.00" d=" M 174.34 411.14 C 203.26 412.99 232.13 415.43 261.03 417.53 C 263.90 417.54 266.80 417.67 269.60 418.42 C 267.91 427.89 267.54 437.52 266.11 447.03 C 265.30 451.55 266.43 456.40 269.25 460.04 C 267.90 465.64 266.28 471.22 265.69 476.98 C 265.41 482.15 265.46 487.34 265.30 492.52 C 238.69 492.88 212.08 492.62 185.47 492.79 C 185.52 488.86 185.78 484.87 184.87 481.01 C 184.13 475.91 179.64 472.56 178.20 467.72 C 176.48 462.31 174.62 456.90 173.34 451.37 C 173.40 445.57 173.38 439.76 173.52 433.96 C 174.90 426.43 174.25 418.75 174.34 411.14 Z" />
<path fill="#3e3e3e" opacity="1.00" d=" M 291.77 415.36 C 300.82 414.23 309.99 413.79 319.11 413.34 C 320.28 414.44 321.46 415.55 322.65 416.65 C 322.86 425.89 322.43 435.14 322.45 444.39 C 318.32 445.47 314.16 446.46 310.00 447.40 C 304.19 448.72 298.54 446.20 292.88 445.30 C 291.40 444.62 289.94 443.94 288.48 443.25 C 289.59 433.95 290.96 424.68 291.77 415.36 Z" />
<path fill="#3e3e3e" opacity="1.00" d=" M 121.53 417.42 C 129.68 417.13 137.86 417.60 145.98 416.77 C 148.37 416.41 150.62 417.31 152.62 418.54 C 152.48 428.06 151.58 437.54 151.29 447.06 C 149.79 447.48 148.30 447.90 146.81 448.34 C 138.29 444.11 129.35 440.79 120.63 437.01 C 120.31 430.45 121.36 423.96 121.53 417.42 Z" />
<path fill="#f4722b" opacity="1.00" d=" M 345.28 424.14 C 393.80 427.19 442.21 431.45 490.71 434.84 C 490.80 454.02 492.05 473.18 491.83 492.37 C 450.90 492.64 409.97 492.50 369.04 492.57 C 371.73 489.32 373.20 485.27 373.55 481.09 C 373.82 474.23 374.51 466.61 370.20 460.75 C 368.69 457.12 367.91 452.96 364.53 450.44 C 358.61 445.85 353.16 439.89 345.73 437.87 C 344.90 433.34 345.32 428.71 345.28 424.14 Z" />
<path fill="#3e3e3e" opacity="1.00" d=" M 127.61 447.02 C 131.26 448.22 134.21 450.76 137.39 452.81 C 137.42 454.07 137.45 455.33 137.49 456.61 C 141.79 456.59 145.96 455.29 150.26 455.25 C 152.80 463.54 155.76 471.69 158.41 479.94 C 159.03 482.15 160.41 484.00 161.48 485.99 C 161.86 487.88 159.21 488.11 158.01 488.84 C 148.85 492.58 138.88 489.73 129.80 487.23 C 128.25 485.49 126.95 483.40 124.83 482.31 C 117.72 478.53 110.60 474.78 103.41 471.18 C 103.34 468.59 103.01 465.97 103.48 463.42 C 104.73 460.74 106.48 458.32 107.92 455.74 C 110.53 454.86 113.26 454.49 116.00 454.71 C 117.56 458.77 119.99 462.56 120.59 466.93 C 120.80 468.31 121.20 469.63 121.80 470.91 C 123.03 469.79 124.55 468.89 125.41 467.43 C 125.88 465.65 125.69 463.78 125.73 461.96 C 125.56 456.90 127.00 452.00 127.61 447.02 Z" />
<path fill="#3e3e3e" opacity="1.00" d=" M 304.91 452.66 C 310.88 452.04 316.52 449.49 322.57 449.32 C 320.83 454.12 319.81 459.76 321.69 464.65 C 326.58 465.26 330.36 461.37 334.91 460.31 C 339.48 462.86 343.36 466.54 347.42 469.83 C 347.49 472.29 347.57 474.76 347.68 477.23 C 346.04 479.08 344.47 481.02 342.54 482.59 C 338.77 485.50 333.77 486.12 329.94 488.89 C 327.75 490.77 325.63 492.80 322.90 493.86 C 317.85 495.97 313.04 498.64 307.91 500.52 C 301.39 500.92 294.94 499.48 288.44 499.29 C 286.94 499.46 286.16 498.14 285.28 497.21 C 288.49 493.89 287.38 489.09 287.69 484.93 C 287.99 479.68 288.07 474.40 288.53 469.17 C 290.10 463.09 291.87 457.07 293.61 451.04 C 297.42 451.28 301.09 452.61 304.91 452.66 Z" />
<path fill="#3e3e3e" opacity="1.00" d=" M 103.10 477.21 C 108.49 479.46 113.30 482.88 118.79 484.91 C 118.62 485.29 118.27 486.06 118.10 486.45 C 112.28 485.31 106.25 482.49 103.10 477.21 Z" />
<path fill="#3e3e3e" opacity="1.00" d=" M 338.12 490.80 C 343.21 487.80 347.66 483.82 351.32 479.20 C 351.25 481.10 351.42 483.05 351.03 484.94 C 349.65 487.15 347.51 488.81 345.41 490.31 C 343.07 491.01 340.53 490.63 338.12 490.80 Z" />
<path fill="#3e3e3e" opacity="1.00" d=" M 143.95 495.33 C 151.08 496.43 157.89 493.39 164.41 490.96 C 164.19 492.48 163.96 494.01 163.73 495.54 C 160.16 496.50 156.75 498.15 153.07 498.61 C 146.99 498.17 140.97 497.09 134.95 496.18 C 134.41 495.27 133.87 494.38 133.33 493.48 C 136.74 494.70 140.42 494.66 143.95 495.33 Z" />
<path fill="#3e3e3e" opacity="1.00" d=" M 305.80 505.44 C 312.50 503.43 318.41 499.35 325.12 497.26 C 325.39 499.17 325.67 501.10 325.96 503.02 C 323.96 505.02 322.22 507.40 319.70 508.79 C 316.61 510.15 313.33 511.03 310.10 512.00 L 292.10 512.00 C 289.74 509.80 286.46 507.94 286.27 504.34 C 292.82 504.05 299.28 505.51 305.80 505.44 Z" />
</svg>
