<?xml version="1.0" encoding="UTF-8" ?>
<!DOCTYPE svg PUBLIC "-//W3C//DTD SVG 1.1//EN" "http://www.w3.org/Graphics/SVG/1.1/DTD/svg11.dtd">
<svg width="512pt" height="512pt" viewBox="0 0 512 512" version="1.1" xmlns="http://www.w3.org/2000/svg">
<path fill="#3e3e3e" opacity="1.00" d=" M 0.00 0.00 L 512.00 0.00 L 512.00 512.00 L 0.00 512.00 L 0.00 0.00 Z" />
<path fill="#f5e5c1" opacity="1.00" d=" M 314.61 37.31 C 324.74 35.08 334.92 33.08 345.04 30.84 C 346.75 30.43 348.53 30.42 350.29 30.40 C 352.65 34.97 351.40 40.16 350.97 45.01 C 349.09 65.09 347.07 85.15 345.24 105.23 C 345.02 107.19 344.60 109.12 344.16 111.04 C 387.20 109.76 430.21 106.95 473.00 102.00 C 476.87 155.28 479.22 208.70 478.42 262.13 C 477.52 309.65 474.71 357.41 464.89 404.02 C 460.91 422.08 455.93 440.10 447.75 456.74 C 444.60 462.96 441.08 469.14 436.04 474.02 C 332.33 474.13 228.30 468.73 125.89 451.63 C 91.55 445.61 57.20 438.81 24.01 428.00 C 43.11 404.37 55.46 376.21 66.10 347.99 C 81.57 305.71 92.41 261.90 101.50 217.85 C 109.57 177.85 116.17 137.53 121.01 97.01 C 147.11 101.87 173.44 105.44 199.90 107.63 C 214.89 109.09 229.94 109.52 244.97 110.43 C 252.39 110.85 259.82 111.24 267.26 111.21 C 269.94 87.78 273.64 64.45 276.76 41.06 C 277.20 37.80 278.64 32.39 283.04 33.40 C 291.36 34.66 299.63 36.20 307.93 37.52 C 310.15 37.89 312.42 37.80 314.61 37.31 Z" />
<path fill="#3e3e3e" opacity="1.00" d=" M 314.99 47.94 C 324.81 45.73 334.71 43.91 344.50 41.59 C 342.84 59.05 341.18 76.50 339.49 93.96 C 339.02 99.71 338.09 105.44 338.29 111.23 C 316.69 112.01 295.09 111.68 273.49 111.44 C 273.96 109.22 274.41 106.99 274.71 104.74 C 277.43 84.65 280.34 64.58 283.02 44.49 C 291.03 45.81 299.04 47.17 307.05 48.49 C 309.70 48.97 312.40 48.55 314.99 47.94 Z" />
<path fill="#3e3e3e" opacity="1.00" d=" M 284.97 157.54 C 293.94 156.62 302.88 155.11 311.92 155.26 C 320.98 155.30 330.05 154.99 339.09 155.61 C 354.38 157.40 369.68 159.98 384.36 164.70 C 395.94 169.23 407.53 174.31 417.24 182.23 C 415.19 180.00 412.76 178.21 410.55 176.17 C 409.87 173.09 409.56 169.14 412.14 166.83 C 414.66 165.72 416.53 168.30 418.37 169.60 C 425.41 176.13 431.09 184.12 435.40 192.68 C 438.11 197.28 439.67 202.58 443.34 206.58 C 447.93 211.87 451.44 217.96 455.01 223.95 C 460.38 233.41 463.15 244.14 464.55 254.86 C 465.56 274.29 464.40 294.22 457.69 312.65 C 455.98 317.38 454.92 322.32 453.02 326.99 C 448.47 337.51 441.95 347.01 435.24 356.25 C 429.66 362.96 423.61 369.29 417.35 375.37 C 410.98 380.64 405.41 386.87 398.55 391.54 C 396.64 392.89 394.27 392.82 392.08 392.36 C 386.21 396.09 379.60 398.34 373.44 401.51 C 368.25 404.01 363.12 406.65 357.83 408.95 C 338.85 415.66 319.12 421.16 298.90 421.94 C 288.65 423.04 278.30 422.65 268.05 421.71 C 250.72 421.51 233.54 418.37 216.93 413.53 C 205.60 410.67 194.95 405.73 184.63 400.33 C 174.52 394.99 164.64 389.19 155.20 382.73 C 148.59 377.41 142.34 371.61 136.64 365.33 C 126.80 352.71 117.03 338.69 115.89 322.19 C 115.42 311.19 113.97 299.80 117.45 289.12 C 119.42 282.66 121.07 276.06 123.92 269.91 C 128.29 260.66 132.76 251.33 139.28 243.38 C 144.58 236.97 150.19 230.84 155.65 224.57 C 165.93 212.48 178.38 202.47 191.16 193.15 C 204.55 185.00 218.21 176.87 233.28 172.20 C 250.16 166.25 267.08 159.70 284.97 157.54 Z" />
<path fill="#f5e5c1" opacity="1.00" d=" M 295.59 167.10 C 324.23 163.63 353.46 166.79 381.05 175.03 C 392.59 179.41 403.98 184.60 413.76 192.25 C 421.19 198.06 428.90 203.83 434.73 211.32 C 440.30 221.38 443.36 232.61 446.56 243.59 C 449.80 262.51 450.47 282.05 446.94 300.98 C 446.12 309.16 443.47 317.00 440.71 324.70 C 438.74 329.88 435.84 334.65 433.87 339.85 C 431.57 345.78 426.90 350.26 423.55 355.56 C 416.60 364.91 407.52 372.72 397.30 378.30 C 391.96 381.31 386.89 384.88 381.15 387.14 C 370.34 391.68 360.34 398.21 348.91 401.20 C 326.55 409.01 302.72 412.56 279.05 411.46 C 271.99 411.51 265.00 410.37 257.95 410.35 C 244.75 409.20 231.72 406.46 219.01 402.76 C 206.42 399.62 194.77 393.74 183.40 387.66 C 174.87 383.03 166.55 378.00 158.58 372.47 C 150.26 365.50 141.96 358.18 135.99 349.01 C 129.30 339.94 123.32 329.61 122.69 318.10 C 122.61 308.81 120.80 299.19 124.14 290.23 C 126.98 279.09 131.88 268.63 137.75 258.79 C 141.17 253.04 145.77 248.14 150.12 243.10 C 154.84 237.80 159.47 232.42 164.21 227.14 C 173.10 218.29 182.80 210.30 192.98 202.99 C 201.13 197.60 209.88 193.21 218.52 188.67 C 225.34 185.28 232.72 183.27 239.84 180.60 C 253.26 175.78 266.82 171.01 280.96 168.81 C 285.83 168.16 290.70 167.58 295.59 167.10 Z" />
<path fill="#3e3e3e" opacity="1.00" d=" M 342.49 227.76 C 346.92 226.78 351.56 227.32 356.07 227.33 C 363.65 227.69 369.56 233.51 373.29 239.66 C 375.94 244.59 378.65 250.21 377.28 255.96 C 375.92 261.81 372.11 266.82 367.75 270.81 C 362.54 274.39 356.29 276.00 350.56 278.55 C 343.88 281.57 335.56 281.89 329.28 277.73 C 325.43 275.62 322.76 271.79 321.83 267.53 C 320.07 258.99 320.96 249.76 324.86 241.92 C 328.77 235.27 335.38 230.53 342.49 227.76 Z" />
<path fill="#3e3e3e" opacity="1.00" d=" M 206.42 228.62 C 210.70 226.25 215.94 227.94 220.00 230.03 C 224.52 233.30 227.75 238.35 228.57 243.91 C 230.38 253.63 230.90 264.27 226.47 273.40 C 223.82 279.25 219.39 284.53 213.53 287.32 C 205.17 289.61 196.52 282.23 195.24 274.10 C 193.27 263.17 191.09 250.97 196.65 240.70 C 198.96 236.07 201.59 231.06 206.42 228.62 Z" />
<path fill="#f5e5c1" opacity="1.00" d=" M 206.34 236.43 C 208.29 234.89 211.03 235.76 212.14 237.85 C 213.89 240.91 216.28 244.18 215.51 247.91 C 215.12 251.37 212.87 255.33 209.02 255.55 C 206.44 255.60 203.15 256.10 201.50 253.59 C 199.05 250.71 200.46 246.73 201.54 243.59 C 202.71 240.99 203.76 237.97 206.34 236.43 Z" />
<path fill="#f5e5c1" opacity="1.00" d=" M 341.39 254.37 C 337.15 247.21 341.37 236.36 350.02 235.41 C 356.24 234.94 358.77 242.91 357.34 247.88 C 356.54 255.29 347.05 256.86 341.39 254.37 Z" />
<path fill="#f5e5c1" opacity="1.00" d=" M 455.70 259.05 C 455.33 252.26 454.22 245.54 453.30 238.80 C 454.41 243.55 455.97 248.18 456.85 252.98 C 458.97 264.23 458.35 275.78 456.81 287.06 C 456.07 293.05 455.09 299.04 453.21 304.79 C 453.95 297.86 455.77 291.04 455.76 284.03 C 455.80 275.71 455.88 267.38 455.70 259.05 Z" />
<path fill="#3e3e3e" opacity="1.00" d=" M 392.54 266.46 C 394.36 264.89 397.56 264.90 398.93 267.07 C 401.35 270.28 404.15 273.17 406.82 276.18 C 408.98 279.03 412.30 281.90 411.51 285.89 C 411.40 289.30 408.62 291.47 406.51 293.78 C 405.25 295.46 403.08 294.34 401.41 294.20 C 398.38 297.22 395.16 300.06 392.38 303.33 C 384.91 311.90 375.33 318.29 367.56 326.57 C 363.26 331.90 358.37 336.71 353.06 341.04 C 348.17 345.99 342.14 349.51 336.55 353.58 C 326.41 360.77 314.71 365.18 303.81 371.04 C 294.83 375.66 284.86 377.63 275.05 379.65 C 267.15 381.59 258.93 380.68 250.94 379.81 C 243.67 379.71 236.58 377.78 229.67 375.71 C 221.39 372.36 213.92 367.36 206.47 362.52 C 192.69 352.59 178.88 342.02 169.15 327.87 C 165.26 321.95 162.14 315.57 158.41 309.55 C 155.63 303.95 153.62 298.01 151.69 292.09 C 148.62 293.55 145.25 294.42 142.45 296.41 C 141.38 297.31 140.02 297.55 138.67 297.69 C 137.19 294.68 137.14 290.92 139.17 288.15 C 141.74 284.88 145.87 283.56 149.04 281.01 C 154.02 277.08 160.03 274.57 166.23 273.31 C 168.47 277.33 168.07 282.58 165.19 286.17 C 163.70 288.03 161.09 288.06 158.98 288.72 C 160.32 293.25 162.03 297.68 164.12 301.92 C 167.95 308.10 171.08 314.70 175.21 320.69 C 184.92 334.00 198.24 344.03 211.56 353.46 C 218.42 357.72 225.13 362.46 232.76 365.28 C 240.30 367.58 248.11 369.12 256.01 369.36 C 260.74 369.46 265.47 370.93 270.18 369.81 C 281.70 367.58 293.59 365.70 304.05 360.08 C 312.33 355.53 321.22 352.19 329.30 347.26 C 342.56 338.96 355.17 329.30 365.10 317.11 C 371.19 310.83 378.21 305.53 384.55 299.51 C 388.60 295.71 391.90 291.19 396.21 287.66 C 393.52 284.37 389.21 282.64 387.03 278.95 C 385.47 274.09 388.81 269.28 392.54 266.46 Z" />
</svg>
