<?xml version="1.0" encoding="UTF-8" ?>
<!DOCTYPE svg PUBLIC "-//W3C//DTD SVG 1.1//EN" "http://www.w3.org/Graphics/SVG/1.1/DTD/svg11.dtd">
<svg width="512pt" height="512pt" viewBox="0 0 512 512" version="1.1" xmlns="http://www.w3.org/2000/svg">
<path fill="#3e3e3e" opacity="1.00" d=" M 0.00 0.00 L 512.00 0.00 L 512.00 512.00 L 0.00 512.00 L 0.00 0.00 Z" />
<path fill="#f5e5c1" opacity="1.00" d=" M 56.86 20.91 C 63.61 15.15 70.91 10.06 77.87 4.55 C 91.94 10.29 106.10 15.83 120.12 21.68 C 121.49 22.47 125.07 24.12 123.01 25.91 C 98.58 41.15 74.46 56.91 49.66 71.56 C 52.60 54.77 54.43 37.79 56.86 20.91 Z" />
<path fill="#f4722b" opacity="1.00" d=" M 237.52 44.46 C 241.94 36.45 245.28 27.85 249.90 19.92 C 256.30 24.84 262.28 30.29 268.30 35.66 C 269.02 36.43 269.90 36.84 270.95 36.90 C 278.16 37.82 285.42 39.16 292.09 42.16 C 293.99 42.89 295.93 44.09 298.05 43.58 C 306.25 42.12 314.40 40.39 322.52 38.53 C 324.26 37.90 325.68 39.12 327.04 40.01 C 326.79 40.59 326.29 41.74 326.04 42.32 C 326.17 42.72 326.41 43.52 326.53 43.92 C 325.31 52.82 325.54 61.93 323.35 70.70 C 326.38 76.55 328.42 82.85 329.47 89.36 C 335.38 94.43 340.93 99.93 347.17 104.62 C 348.93 106.17 351.99 107.86 350.78 110.70 C 346.27 115.13 340.21 117.44 335.16 121.16 C 331.48 123.97 327.10 125.69 323.40 128.44 C 321.83 130.58 320.74 133.03 319.17 135.17 C 316.80 138.72 313.03 141.52 312.46 146.02 C 308.87 155.92 308.73 166.84 304.26 176.42 C 295.15 172.36 286.57 167.15 278.12 161.87 C 276.72 161.05 275.04 161.53 273.52 161.59 C 267.69 162.48 261.84 161.44 256.01 161.13 C 249.21 159.12 242.50 156.86 236.19 153.59 C 226.97 155.35 217.84 157.76 208.49 158.67 C 208.58 148.06 209.65 137.46 210.95 126.94 C 210.66 122.77 208.24 119.07 207.42 114.98 C 205.15 107.57 205.44 99.78 205.63 92.15 C 201.84 85.20 197.16 78.72 193.45 71.71 C 193.19 70.59 193.02 69.46 192.93 68.32 C 201.06 65.64 209.39 63.65 217.62 61.32 C 220.78 58.64 223.03 55.01 226.36 52.47 C 229.56 49.10 233.95 47.34 237.52 44.46 Z" />
<path fill="#3e3e3e" opacity="1.00" d=" M 252.16 27.08 C 255.96 30.91 260.19 34.29 263.96 38.16 C 266.72 41.06 270.57 42.82 272.91 46.13 C 274.30 48.05 271.60 49.42 270.24 50.21 C 262.09 54.04 252.89 55.24 243.97 54.72 C 242.45 54.49 240.47 54.75 239.55 53.22 C 238.87 51.60 240.26 50.18 240.87 48.79 C 245.13 41.84 249.05 34.62 252.16 27.08 Z" />
<path fill="#f5e5c1" opacity="1.00" d=" M 95.19 56.18 C 100.09 50.42 105.55 44.68 112.76 41.89 C 120.69 61.09 129.62 79.88 137.57 99.06 C 132.96 124.88 127.69 150.61 123.17 176.46 C 112.47 176.91 101.79 177.74 91.07 177.66 C 92.38 161.09 94.48 144.58 95.64 128.00 C 96.40 120.61 96.76 113.20 97.63 105.83 C 101.00 103.76 104.39 101.74 107.77 99.69 C 113.51 99.77 119.25 99.68 124.99 99.79 C 126.33 99.65 127.96 100.16 129.08 99.15 C 126.24 97.01 122.50 97.10 119.19 96.29 C 115.46 95.70 111.79 94.20 107.98 94.52 C 104.46 95.52 101.19 97.33 97.54 97.92 C 94.44 91.91 90.24 86.58 86.56 80.95 C 86.53 71.99 90.07 63.41 95.19 56.18 Z" />
<path fill="#3e3e3e" opacity="1.00" d=" M 295.31 48.63 C 303.91 47.13 312.53 45.55 321.22 44.67 C 321.41 53.92 320.53 63.18 319.25 72.32 C 317.57 75.07 314.45 72.58 312.45 71.56 C 305.03 66.49 297.93 60.34 293.71 52.27 C 292.71 50.85 293.48 48.73 295.31 48.63 Z" />
<path fill="#3e3e3e" opacity="1.00" d=" M 265.41 55.57 C 270.84 52.84 276.29 50.15 281.92 47.85 C 285.43 54.87 291.09 61.06 292.28 69.05 C 293.13 74.65 289.54 80.12 284.76 82.76 C 275.35 87.97 261.71 83.30 258.25 72.90 C 255.74 66.36 259.29 58.62 265.41 55.57 Z" />
<path fill="#3e3e3e" opacity="1.00" d=" M 199.89 71.34 C 208.44 67.95 217.48 66.18 226.24 63.47 C 228.64 66.11 227.62 69.79 226.95 72.90 C 225.11 79.75 222.42 86.48 218.30 92.29 C 217.15 93.72 216.04 95.53 214.11 95.90 C 211.11 94.15 210.22 90.40 208.39 87.64 C 205.14 82.42 203.13 76.56 199.89 71.34 Z" />
<path fill="#f5e5c1" opacity="1.00" d=" M 358.06 85.52 C 368.45 85.04 378.84 84.68 389.24 84.65 C 390.61 85.99 392.55 87.06 393.03 89.05 C 394.28 94.51 395.02 100.07 396.28 105.53 C 382.20 103.72 368.12 101.90 354.03 100.22 C 355.22 95.28 357.08 90.52 358.06 85.52 Z" />
<path fill="#3e3e3e" opacity="1.00" d=" M 218.90 105.11 C 225.33 99.42 230.39 91.31 239.07 88.88 C 246.95 87.22 254.56 93.59 256.35 101.06 C 259.42 110.59 253.40 122.79 242.96 124.05 C 236.45 124.90 231.06 120.41 227.40 115.53 C 224.49 112.12 221.56 108.72 218.90 105.11 Z" />
<path fill="#3e3e3e" opacity="1.00" d=" M 318.71 99.04 C 319.41 95.77 320.81 92.70 322.78 90.00 C 330.39 95.66 336.89 102.69 343.39 109.56 C 338.86 114.23 332.99 117.17 327.64 120.74 C 324.81 122.52 322.06 124.85 318.54 124.90 C 315.61 116.53 316.80 107.49 318.71 99.04 Z" />
<path fill="#3e3e3e" opacity="1.00" d=" M 271.72 117.04 C 273.25 107.72 282.42 99.79 292.07 101.22 C 298.93 101.85 304.21 108.36 304.40 115.07 C 304.62 121.12 304.44 127.17 304.52 133.22 C 296.50 133.37 288.27 135.97 280.39 133.42 C 273.85 131.23 270.36 123.58 271.72 117.04 Z" />
<path fill="#f5e5c1" opacity="1.00" d=" M 354.54 106.25 C 369.98 108.51 385.45 110.57 400.91 112.67 C 398.02 125.46 394.05 137.99 391.08 150.76 C 376.50 148.79 362.11 145.53 347.60 143.13 C 347.81 135.41 348.63 127.72 348.64 119.99 C 348.25 115.69 354.39 115.10 354.80 111.06 C 355.01 109.45 354.69 107.85 354.54 106.25 Z" />
<path fill="#3e3e3e" opacity="1.00" d=" M 214.70 127.07 C 214.77 125.54 215.90 124.38 216.64 123.13 C 223.93 126.00 230.00 131.16 235.17 136.94 C 237.67 139.95 240.59 143.03 241.36 146.99 C 239.91 149.10 237.08 148.85 234.88 149.40 C 227.38 150.44 219.97 152.12 212.43 152.83 C 213.53 144.28 214.14 135.67 214.70 127.07 Z" />
<path fill="#3e3e3e" opacity="1.00" d=" M 279.54 150.53 C 287.09 145.45 295.88 141.74 305.04 141.17 C 306.65 140.71 308.80 141.99 308.13 143.84 C 306.03 152.40 303.75 160.96 300.25 169.07 C 292.32 165.48 284.79 161.06 277.32 156.60 C 274.42 154.61 277.61 151.79 279.54 150.53 Z" />
<path fill="#f5e5c1" opacity="1.00" d=" M 326.22 149.63 C 330.24 148.34 334.51 148.62 338.67 148.44 C 338.69 151.64 338.84 154.85 338.57 158.05 C 338.25 162.08 336.39 165.89 336.60 169.97 C 336.77 174.22 337.45 178.42 337.50 182.67 C 337.69 194.29 340.17 205.68 341.96 217.11 C 342.71 221.90 345.34 226.19 345.70 231.08 C 347.51 241.66 353.17 251.06 356.27 261.26 C 347.52 260.31 338.71 260.62 329.93 260.19 C 317.63 259.21 305.21 259.92 292.99 257.88 C 286.36 257.73 281.25 253.03 275.93 249.69 C 273.92 245.51 277.52 239.11 272.84 236.11 C 271.82 235.15 270.35 235.27 269.08 235.24 C 264.07 235.32 259.08 235.71 254.07 235.72 C 250.94 232.57 247.94 229.30 244.92 226.05 C 242.77 223.95 242.37 220.85 241.68 218.08 C 240.23 211.76 240.42 205.23 240.10 198.80 C 255.25 189.58 270.35 180.28 285.59 171.21 C 290.15 173.72 294.67 176.29 299.27 178.72 C 302.33 180.36 307.14 180.44 308.77 176.79 C 311.67 169.45 312.48 161.51 314.49 153.93 C 318.45 152.63 322.25 150.90 326.22 149.63 Z" />
<path fill="#f5e5c1" opacity="1.00" d=" M 342.74 175.08 C 344.27 166.29 344.61 157.09 348.76 148.99 C 356.36 149.93 363.83 151.66 371.38 152.93 C 378.95 154.52 386.77 155.13 394.03 157.98 C 400.79 160.49 408.35 161.33 414.27 165.75 C 421.22 170.54 428.45 174.91 435.32 179.82 C 432.54 186.07 428.50 191.97 427.75 198.92 C 427.18 203.98 425.52 208.92 425.52 214.04 C 426.07 218.81 427.54 223.43 428.34 228.17 C 429.01 231.06 429.08 234.41 431.43 236.55 C 434.32 239.55 435.66 243.59 438.18 246.86 C 443.90 253.58 450.04 259.94 455.61 266.80 C 450.40 273.99 445.73 281.53 440.69 288.84 C 439.64 290.34 438.77 291.96 438.04 293.64 C 433.99 291.43 429.41 290.12 425.69 287.33 C 419.14 280.86 413.11 273.86 406.36 267.60 C 403.34 265.24 400.19 262.04 396.03 262.47 C 385.83 262.60 375.69 261.43 365.50 261.49 C 362.07 251.31 357.02 241.79 352.90 231.89 C 350.85 226.57 347.69 221.63 346.74 215.94 C 344.82 202.40 341.11 188.86 342.74 175.08 Z" />
<path fill="#3e3e3e" opacity="1.00" d=" M 349.60 163.19 C 349.18 160.00 349.75 156.83 351.43 154.07 C 353.37 156.51 354.84 159.28 355.67 162.30 C 354.87 163.12 354.03 163.89 353.15 164.61 C 351.94 164.18 350.76 163.71 349.60 163.19 Z" />
<path fill="#f5e5c1" opacity="1.00" d=" M 225.35 176.31 C 227.10 202.98 227.45 229.73 229.40 256.38 C 215.29 255.68 201.16 255.54 187.05 254.70 C 177.91 254.48 168.76 254.38 159.64 253.61 C 155.73 231.74 152.39 209.76 148.62 187.86 C 165.14 185.51 181.63 182.97 198.13 180.42 C 207.11 178.44 216.33 178.07 225.35 176.31 Z" />
<path fill="#f5e5c1" opacity="1.00" d=" M 67.88 186.88 C 90.77 185.75 113.62 184.02 136.52 183.26 C 138.58 191.27 141.49 199.08 142.96 207.24 C 131.61 207.46 120.32 208.59 108.97 208.70 C 99.69 209.72 90.33 209.29 81.06 210.28 C 68.92 210.50 56.84 211.57 44.71 211.84 C 44.11 206.82 43.14 201.85 42.69 196.81 C 45.06 193.52 48.03 190.64 51.15 188.07 C 56.66 187.19 62.33 187.51 67.88 186.88 Z" />
<path fill="#f5e5c1" opacity="1.00" d=" M 432.15 209.48 C 433.78 201.08 434.69 190.78 442.61 185.74 C 445.38 188.90 447.90 192.26 450.31 195.70 C 453.90 200.96 458.53 205.81 459.88 212.26 C 461.89 220.82 468.72 228.63 466.33 237.85 C 464.20 244.71 464.03 252.48 459.19 258.21 C 458.12 260.28 455.00 259.98 453.92 258.05 C 447.79 250.73 442.80 242.53 437.20 234.81 C 434.35 231.30 434.22 226.63 433.29 222.41 C 432.52 218.15 430.89 213.81 432.15 209.48 Z" />
<path fill="#3e3e3e" opacity="1.00" d=" M 352.22 215.81 C 350.07 212.47 350.57 205.53 355.98 206.52 C 356.45 208.07 356.93 209.63 357.44 211.17 C 356.31 213.26 354.95 215.81 352.22 215.81 Z" />
<path fill="#f5e5c1" opacity="1.00" d=" M 94.08 218.26 C 107.92 216.88 121.76 215.59 135.59 214.11 C 135.58 227.53 135.61 240.96 135.57 254.39 C 128.73 254.31 121.87 254.44 115.05 253.81 C 102.60 253.57 90.15 253.90 77.71 253.43 C 82.16 265.41 78.84 278.57 81.69 290.84 C 79.51 288.60 77.32 286.36 74.79 284.51 C 70.97 271.37 67.55 258.12 63.68 244.99 C 63.02 241.45 61.14 237.95 61.41 234.36 C 68.53 229.43 76.13 225.21 83.50 220.67 C 86.61 218.55 90.47 218.54 94.08 218.26 Z" />
<path fill="#f5e5c1" opacity="1.00" d=" M 244.34 243.46 C 252.82 242.26 261.28 240.87 269.81 240.06 C 269.83 262.04 268.57 283.98 268.29 305.95 C 267.39 325.12 267.39 344.32 266.38 363.49 C 267.73 364.57 269.14 365.57 270.59 366.52 C 270.66 363.11 270.67 359.69 270.66 356.28 C 298.17 356.17 325.70 356.71 353.21 357.19 C 350.92 360.34 350.58 364.84 347.12 367.09 C 344.24 369.05 341.79 372.58 337.95 372.29 C 326.28 372.14 314.60 372.22 302.95 372.89 C 299.57 373.16 296.41 371.71 293.07 371.55 C 278.95 371.15 264.80 371.60 250.68 370.76 C 250.62 364.54 249.86 358.32 250.44 352.11 C 250.23 353.13 250.03 354.15 249.82 355.18 C 249.29 336.78 247.84 318.44 247.27 300.05 C 246.26 291.06 246.70 281.98 245.69 272.99 C 245.59 263.13 244.51 253.32 244.34 243.46 Z" />
<path fill="#3e3e3e" opacity="1.00" d=" M 370.47 249.56 C 371.56 248.92 373.60 249.22 373.35 250.92 C 373.97 254.18 373.66 257.93 370.86 260.12 C 367.33 261.49 366.06 256.62 366.10 254.03 C 365.68 251.34 368.49 250.37 370.47 249.56 Z" />
<path fill="#f5e5c1" opacity="1.00" d=" M 85.18 258.53 C 93.15 258.72 101.09 259.42 109.06 259.58 C 112.15 272.69 115.86 285.64 118.95 298.75 C 115.93 298.98 112.98 300.01 109.94 299.93 C 107.60 299.34 105.42 298.29 103.13 297.58 C 100.55 296.27 97.68 295.83 94.93 295.03 C 91.94 282.80 88.48 270.68 85.18 258.53 Z" />
<path fill="#f5e5c1" opacity="1.00" d=" M 124.18 263.46 C 136.14 263.68 148.07 264.70 160.04 264.65 C 170.41 265.41 180.82 265.50 191.21 265.74 C 201.44 266.66 211.72 266.38 221.98 266.86 C 226.42 267.29 230.88 267.38 235.34 267.49 C 235.62 276.49 237.10 285.40 238.45 294.30 C 228.31 295.33 218.20 293.51 208.06 293.49 C 201.02 293.67 194.05 292.40 187.01 292.68 C 179.71 292.15 172.36 292.73 165.08 291.77 C 159.05 291.62 153.02 291.56 146.99 291.30 C 140.13 291.59 133.33 290.29 126.47 290.52 C 125.65 281.50 124.83 272.49 124.18 263.46 Z" />
<path fill="#f5e5c1" opacity="1.00" d=" M 277.40 272.37 C 302.61 272.58 327.81 273.33 353.03 273.57 C 361.61 273.81 370.23 273.42 378.79 274.27 C 377.60 280.40 376.54 286.56 375.38 292.70 C 365.59 292.66 355.79 292.53 346.03 291.69 C 337.36 291.40 328.66 291.53 320.03 290.66 C 311.33 290.37 302.60 290.46 293.93 289.62 C 288.39 289.35 282.80 289.77 277.32 288.67 C 277.41 283.24 277.36 277.80 277.40 272.37 Z" />
<path fill="#f5e5c1" opacity="1.00" d=" M 387.89 271.60 C 392.14 271.79 396.44 271.72 400.64 272.46 C 401.45 274.50 403.55 277.18 401.60 279.17 C 404.26 281.64 407.07 284.02 410.37 285.61 C 421.64 291.17 432.90 296.78 444.21 302.28 C 442.08 307.46 439.35 312.36 437.02 317.45 C 426.43 311.76 415.76 306.21 405.22 300.42 C 406.50 295.96 407.79 291.49 408.57 286.91 C 406.32 285.88 403.93 285.51 401.51 286.10 C 399.28 296.71 396.73 307.23 394.33 317.80 C 390.09 313.97 384.73 311.63 379.17 310.48 C 381.14 301.21 383.22 291.96 384.96 282.64 C 385.86 278.94 387.53 275.44 387.89 271.60 Z" />
<path fill="#f4722b" opacity="1.00" d=" M 51.20 306.10 C 55.36 297.77 59.10 289.21 63.75 281.14 C 70.22 286.81 77.02 292.12 83.13 298.18 C 90.78 298.67 98.42 300.28 105.48 303.33 C 107.37 304.08 109.33 305.01 111.43 304.74 C 120.76 303.67 129.78 300.69 139.09 299.54 C 139.98 301.52 139.94 303.74 140.16 305.86 C 139.31 312.55 139.04 319.31 138.10 325.99 C 137.72 328.87 136.65 332.01 138.22 334.72 C 140.66 339.52 142.17 344.73 142.83 350.06 C 147.03 354.60 152.04 358.26 156.57 362.46 C 159.68 365.33 164.43 367.37 164.95 372.09 C 158.99 376.61 152.21 379.85 146.16 384.25 C 142.35 387.03 136.54 388.04 135.16 393.19 C 132.49 398.04 127.29 401.42 126.21 407.08 C 122.85 417.13 121.96 427.80 118.36 437.79 C 111.52 435.35 105.58 431.07 99.12 427.83 C 95.95 426.38 93.47 423.27 90.05 422.58 C 78.39 424.42 66.25 422.45 55.58 417.46 C 53.18 416.35 50.72 414.83 47.97 415.37 C 39.34 416.46 31.01 419.53 22.26 419.79 C 22.15 413.49 22.90 407.21 22.78 400.91 C 22.95 400.76 23.29 400.45 23.46 400.30 C 23.21 395.83 24.71 391.48 24.55 387.05 C 22.25 379.89 19.35 372.72 19.28 365.07 C 18.91 361.09 19.79 357.05 19.15 353.10 C 15.06 345.25 8.69 338.39 6.29 329.76 C 14.37 327.10 22.59 324.66 30.95 323.11 C 36.79 316.47 43.13 310.01 51.20 306.10 Z" />
<path fill="#3e3e3e" opacity="1.00" d=" M 58.90 302.90 C 61.09 297.94 64.22 293.43 65.90 288.25 C 72.02 294.08 77.95 300.15 84.67 305.30 C 86.16 306.37 87.41 308.27 86.37 310.10 C 80.24 313.97 72.93 315.16 65.87 316.11 C 61.66 316.71 57.41 316.22 53.29 315.33 C 52.65 310.34 57.14 307.13 58.90 302.90 Z" />
<path fill="#f5e5c1" opacity="1.00" d=" M 142.56 297.48 C 173.91 298.44 205.29 298.30 236.65 299.28 C 236.61 305.76 237.52 312.19 237.61 318.66 C 206.08 318.34 174.54 318.60 143.03 317.74 C 143.20 311.01 147.68 303.43 142.56 297.48 Z" />
<path fill="#f5e5c1" opacity="1.00" d=" M 277.40 299.76 C 300.93 300.41 324.49 300.52 348.03 300.89 C 356.60 301.35 365.19 301.30 373.77 301.43 C 372.72 307.74 371.66 314.05 370.36 320.31 C 362.23 320.24 354.11 320.38 346.00 319.76 C 323.14 319.59 300.27 319.48 277.40 319.31 C 277.36 312.79 277.37 306.27 277.40 299.76 Z" />
<path fill="#3e3e3e" opacity="1.00" d=" M 107.49 309.85 C 116.61 308.93 125.55 306.66 134.71 306.10 C 134.95 313.06 134.52 320.01 133.75 326.92 C 133.33 329.41 133.96 332.29 132.39 334.45 C 129.89 335.25 127.50 333.77 125.48 332.49 C 118.67 327.79 112.29 322.14 108.07 314.94 C 106.99 313.43 107.40 311.55 107.49 309.85 Z" />
<path fill="#3e3e3e" opacity="1.00" d=" M 93.67 309.83 C 96.06 308.27 96.76 311.62 97.88 313.09 C 101.04 319.12 106.04 324.79 105.82 332.00 C 106.36 338.43 100.88 343.75 95.05 345.38 C 84.84 348.96 71.44 341.33 71.25 330.03 C 70.77 324.16 74.82 318.80 79.96 316.36 C 84.52 314.16 89.05 311.89 93.67 309.83 Z" />
<path fill="#f5e5c1" opacity="1.00" d=" M 405.31 322.32 C 406.64 317.86 408.74 313.69 410.71 309.48 C 416.73 312.12 422.80 314.63 428.98 316.89 C 427.74 318.34 426.51 319.79 425.27 321.23 C 421.66 320.10 418.56 323.42 414.92 322.78 C 411.75 322.19 408.52 322.01 405.31 322.32 Z" />
<path fill="#f4722b" opacity="1.00" d=" M 377.99 318.04 C 378.26 316.60 379.55 315.78 380.51 314.82 C 387.84 318.95 395.39 322.75 402.36 327.47 C 404.82 327.40 407.29 327.25 409.75 326.98 C 414.16 327.46 418.67 327.01 422.98 328.27 C 425.12 328.66 427.29 329.88 429.50 329.21 C 437.96 326.63 446.10 323.04 454.70 320.92 C 455.83 329.51 456.37 338.16 456.69 346.82 C 463.01 353.80 467.51 362.24 470.83 371.01 C 478.28 375.53 485.26 380.78 492.78 385.21 C 494.54 385.86 494.69 387.69 495.00 389.28 C 488.75 394.22 482.94 399.68 476.67 404.60 C 473.86 406.66 470.26 408.37 469.43 412.10 C 468.07 417.27 464.53 421.38 462.27 426.10 C 461.75 435.10 463.40 444.07 463.77 453.05 C 464.04 454.62 462.76 456.72 461.00 456.42 C 454.26 455.73 447.89 453.14 441.17 452.31 C 436.28 451.64 431.39 448.11 426.48 450.41 C 422.10 451.53 417.55 451.59 413.17 452.61 C 403.37 457.00 394.82 463.61 385.61 469.05 C 384.85 469.27 383.34 469.70 382.59 469.92 C 379.96 464.57 379.06 458.62 377.17 453.01 C 375.73 448.79 375.26 444.30 373.97 440.05 C 370.63 437.05 366.81 434.52 364.19 430.78 C 357.54 423.71 353.60 414.65 350.52 405.57 C 343.59 401.22 336.86 396.54 330.04 392.01 C 328.59 391.25 327.22 389.16 329.00 387.96 C 334.13 383.09 339.60 378.56 345.03 374.01 C 348.05 371.33 352.32 369.65 353.71 365.55 C 357.18 357.38 362.20 349.80 368.93 343.95 C 370.41 342.49 372.53 341.31 372.91 339.09 C 374.45 332.04 376.09 325.00 377.99 318.04 Z" />
<path fill="#3e3e3e" opacity="1.00" d=" M 383.18 321.26 C 383.58 321.72 384.37 322.63 384.77 323.09 C 391.29 324.89 396.57 329.30 402.55 332.26 C 404.41 333.34 407.40 334.07 406.90 336.88 C 405.42 339.73 402.25 341.19 399.64 342.85 C 392.13 346.74 383.96 350.54 375.27 349.59 C 376.27 339.76 380.70 330.74 383.18 321.26 Z" />
<path fill="#3e3e3e" opacity="1.00" d=" M 13.67 332.55 C 21.92 329.57 30.39 327.12 38.96 325.33 C 42.08 324.82 41.60 329.06 41.26 331.03 C 39.58 339.59 36.30 348.05 30.95 355.01 C 30.00 356.62 28.10 356.70 26.45 356.93 C 21.88 348.96 17.68 340.81 13.67 332.55 Z" />
<path fill="#3e3e3e" opacity="1.00" d=" M 424.69 335.71 C 433.72 333.41 442.85 331.12 451.40 327.37 C 451.56 335.24 451.48 343.15 452.49 350.98 C 452.61 353.18 453.25 356.06 450.95 357.44 C 446.75 356.67 442.88 354.71 439.26 352.53 C 433.22 348.68 427.49 344.08 423.54 338.03 C 423.83 337.45 424.40 336.29 424.69 335.71 Z" />
<path fill="#f5e5c1" opacity="1.00" d=" M 295.02 332.23 C 319.47 331.24 343.96 331.56 368.42 331.15 C 367.85 334.00 367.65 336.94 366.70 339.69 C 364.86 342.43 362.35 344.64 360.06 347.00 C 359.06 348.26 357.42 348.37 355.93 348.35 C 329.77 348.34 303.62 348.31 277.46 348.36 C 277.40 343.01 277.42 337.65 277.40 332.30 C 283.27 332.25 289.15 332.22 295.02 332.23 Z" />
<path fill="#f5e5c1" opacity="1.00" d=" M 162.02 333.73 C 187.47 333.59 212.92 333.16 238.37 333.18 C 238.49 338.23 238.70 343.28 238.83 348.34 C 208.39 348.35 177.94 348.34 147.50 348.30 C 145.02 343.85 145.95 338.23 142.65 334.26 C 149.11 334.43 155.57 334.15 162.02 333.73 Z" />
<path fill="#3e3e3e" opacity="1.00" d=" M 53.60 349.91 C 63.39 348.86 71.31 358.73 70.70 368.05 C 71.15 377.35 62.72 386.69 53.11 385.29 C 45.65 384.20 41.66 377.15 37.01 372.06 C 35.66 370.16 33.21 368.62 33.17 366.09 C 35.65 362.95 38.79 360.40 41.52 357.47 C 44.82 354.01 48.79 350.85 53.60 349.91 Z" />
<path fill="#3e3e3e" opacity="1.00" d=" M 135.38 352.05 C 139.29 352.03 141.44 355.60 144.10 357.88 C 148.67 362.03 153.35 366.12 156.96 371.17 C 149.99 377.26 141.70 381.54 134.00 386.60 C 133.44 386.23 132.33 385.49 131.77 385.12 C 128.97 374.14 130.92 362.32 135.38 352.05 Z" />
<path fill="#f5e5c1" opacity="1.00" d=" M 153.25 354.36 C 181.98 354.47 210.69 355.15 239.42 355.54 C 239.41 357.28 239.40 359.02 239.38 360.77 C 241.61 362.92 244.02 364.88 246.57 366.64 C 246.66 368.04 246.75 369.44 246.84 370.85 C 235.91 370.73 224.95 370.23 214.04 371.07 C 203.75 369.72 193.36 370.54 183.02 370.02 C 178.40 369.74 173.77 369.78 169.15 369.72 C 167.53 366.47 164.91 363.94 162.86 361.00 C 159.54 358.96 156.10 357.05 153.25 354.36 Z" />
<path fill="#3e3e3e" opacity="1.00" d=" M 423.86 362.95 C 427.09 357.09 434.71 355.15 440.84 356.98 C 446.47 358.79 451.90 361.19 457.56 362.93 C 455.41 370.19 454.81 378.18 450.55 384.63 C 447.18 390.02 439.82 391.94 434.05 389.54 C 423.61 386.18 418.04 372.42 423.86 362.95 Z" />
<path fill="#3e3e3e" opacity="1.00" d=" M 372.43 359.34 C 379.13 359.37 385.87 358.90 392.54 359.66 C 398.31 360.42 403.17 365.14 404.04 370.90 C 406.22 381.92 396.18 393.23 385.01 392.63 C 377.68 392.90 371.08 386.25 370.99 379.00 C 370.92 372.42 371.85 365.88 372.43 359.34 Z" />
<path fill="#3e3e3e" opacity="1.00" d=" M 85.26 381.98 C 84.50 371.17 95.01 360.84 105.89 362.47 C 112.58 363.20 117.60 369.52 118.03 376.03 C 118.51 382.13 118.11 388.26 118.29 394.38 C 111.19 394.84 104.09 396.29 96.97 395.42 C 90.42 394.75 85.11 388.52 85.26 381.98 Z" />
<path fill="#3e3e3e" opacity="1.00" d=" M 352.28 373.21 C 353.92 371.68 355.94 370.66 358.11 370.10 C 362.62 380.88 362.92 393.42 359.34 404.51 C 358.36 404.52 357.38 404.54 356.41 404.56 C 349.13 399.02 341.47 394.01 334.24 388.41 C 340.38 383.50 346.37 378.40 352.28 373.21 Z" />
<path fill="#3e3e3e" opacity="1.00" d=" M 463.50 373.30 C 465.08 371.47 467.07 373.56 468.52 374.46 C 474.79 379.37 481.63 383.53 487.63 388.77 C 481.73 394.90 475.10 400.23 468.57 405.66 C 467.39 406.77 465.67 406.58 464.20 406.87 C 461.24 399.64 460.92 391.71 461.22 384.01 C 461.45 380.37 461.78 376.58 463.50 373.30 Z" />
<path fill="#f5e5c1" opacity="1.00" d=" M 212.01 385.74 C 241.91 384.56 271.78 382.52 301.69 381.74 C 300.15 389.49 298.02 397.14 297.01 404.99 C 296.62 405.33 295.84 406.00 295.45 406.34 C 284.95 406.09 274.42 406.55 263.94 405.81 C 230.55 405.71 197.17 405.61 163.78 405.44 C 163.49 404.02 163.20 402.60 162.90 401.19 C 163.66 398.70 162.75 394.93 165.86 393.94 C 170.52 391.83 175.09 389.45 179.88 387.65 C 190.53 386.38 201.32 386.65 212.01 385.74 Z" />
<path fill="#3e3e3e" opacity="1.00" d=" M 28.69 385.41 C 30.45 385.48 32.36 385.10 33.98 386.01 C 41.84 390.47 48.67 396.79 53.53 404.44 C 54.52 405.90 54.58 407.70 54.87 409.39 C 45.45 411.46 35.81 412.40 26.39 414.48 C 26.91 404.77 27.94 395.10 28.69 385.41 Z" />
<path fill="#3e3e3e" opacity="1.00" d=" M 408.56 401.77 C 417.81 399.49 429.78 405.62 429.85 415.98 C 430.53 424.11 423.34 429.19 418.42 434.46 C 416.68 435.93 415.34 438.39 413.03 438.86 C 409.44 436.98 406.75 433.80 403.55 431.37 C 398.90 427.62 394.20 422.38 394.84 415.96 C 395.46 408.73 401.72 403.22 408.56 401.77 Z" />
<path fill="#3e3e3e" opacity="1.00" d=" M 106.78 404.96 C 111.50 403.24 116.48 402.22 121.53 402.42 C 122.04 407.08 120.06 411.41 118.99 415.84 C 117.84 420.59 115.93 425.09 114.48 429.75 C 113.97 429.71 112.97 429.64 112.47 429.61 C 106.11 426.98 100.36 423.18 94.31 419.95 C 92.38 418.88 90.61 417.54 88.98 416.06 C 93.43 410.38 100.24 407.49 106.78 404.96 Z" />
<path fill="#f5e5c1" opacity="1.00" d=" M 141.14 414.89 C 141.57 414.60 142.42 414.02 142.84 413.74 C 205.10 413.71 267.36 413.88 329.61 413.65 C 329.11 421.05 327.97 428.38 327.25 435.75 C 317.54 434.14 307.67 434.79 297.89 434.13 C 288.70 433.16 279.42 433.78 270.23 432.82 C 227.35 431.12 184.48 429.21 141.59 427.46 C 141.39 423.27 141.24 419.07 141.14 414.89 Z" />
<path fill="#3e3e3e" opacity="1.00" d=" M 447.85 425.17 C 450.35 423.71 453.00 422.20 456.00 422.17 C 457.48 423.31 457.32 425.33 457.43 427.00 C 457.49 434.86 458.12 442.75 457.29 450.59 C 448.18 449.93 439.45 447.05 430.52 445.32 C 430.21 444.72 429.59 443.53 429.28 442.94 C 433.45 435.24 440.51 429.66 447.85 425.17 Z" />
<path fill="#3e3e3e" opacity="1.00" d=" M 377.14 434.55 C 381.01 433.14 385.10 434.31 388.88 435.43 C 395.18 437.55 401.45 440.16 406.70 444.33 C 407.88 445.34 409.24 446.45 409.54 448.09 C 407.72 450.77 404.41 451.75 401.78 453.42 C 396.37 456.71 390.69 459.52 384.79 461.85 C 381.63 452.94 378.97 443.83 377.14 434.55 Z" />
<path fill="#f5e5c1" opacity="1.00" d=" M 142.15 443.16 C 145.89 443.26 149.62 443.37 153.36 443.45 C 153.85 446.22 154.35 448.98 154.81 451.76 C 172.26 452.73 189.75 452.41 207.22 452.87 C 203.39 461.83 195.11 468.37 185.94 471.26 C 179.11 473.38 171.78 473.10 164.90 471.41 C 172.75 477.49 183.45 480.05 193.10 477.37 C 207.03 474.12 218.07 460.83 217.94 446.40 C 225.82 446.03 233.69 446.76 241.57 446.69 C 242.58 449.82 243.35 453.02 243.91 456.26 C 259.27 457.19 274.63 458.06 290.01 458.72 C 285.24 465.14 278.08 469.84 270.08 470.91 C 260.86 472.46 251.56 468.56 244.88 462.31 C 249.26 469.52 256.33 475.06 264.58 477.05 C 271.79 478.52 279.60 477.78 286.06 474.09 C 295.11 469.29 301.17 459.57 301.78 449.37 C 306.03 449.45 310.29 449.53 314.55 449.52 C 313.04 461.50 306.85 472.96 296.94 480.01 C 285.49 488.35 269.87 490.80 256.57 485.71 C 241.28 480.28 229.91 465.28 229.05 449.05 C 228.95 448.21 228.07 448.50 227.50 448.48 L 228.94 449.27 C 227.26 463.09 218.76 475.84 206.58 482.59 C 194.64 489.50 179.41 490.15 166.97 484.14 C 151.45 477.04 141.37 460.17 142.15 443.16 Z" />
</svg>
