<?xml version="1.0" encoding="UTF-8" ?>
<!DOCTYPE svg PUBLIC "-//W3C//DTD SVG 1.1//EN" "http://www.w3.org/Graphics/SVG/1.1/DTD/svg11.dtd">
<svg width="512pt" height="512pt" viewBox="0 0 512 512" version="1.1" xmlns="http://www.w3.org/2000/svg">
<path fill="#f4722b" opacity="1.00" d=" M 0.00 0.00 L 122.83 0.00 C 164.44 15.38 206.04 30.83 247.66 46.17 C 249.83 47.04 252.69 48.28 252.71 51.04 C 253.14 53.46 251.16 55.17 249.52 56.55 C 220.57 78.82 191.42 100.85 162.58 123.25 C 195.41 123.54 228.25 123.27 261.08 123.39 C 263.68 123.17 266.51 125.21 266.37 127.97 C 266.42 130.28 264.34 131.72 262.48 132.59 C 234.59 144.91 206.68 157.23 178.81 169.63 C 175.67 170.69 172.79 174.70 169.27 172.94 C 165.28 171.04 161.24 169.23 157.00 167.95 C 121.70 155.60 86.44 143.15 51.16 130.78 C 48.19 129.83 44.90 127.52 45.37 123.98 C 45.65 120.15 49.72 118.68 52.81 117.63 C 95.87 103.07 138.79 88.03 181.90 73.61 C 156.18 65.83 130.12 59.31 103.89 53.53 C 81.37 48.24 58.78 43.17 36.27 37.83 C 24.17 35.03 12.00 32.52 0.00 29.32 L 0.00 0.00 Z" />
<path fill="#3e3e3e" opacity="1.00" d=" M 122.83 0.00 L 307.57 0.00 C 324.08 7.52 340.40 15.47 356.93 22.98 C 358.41 23.68 359.90 24.46 361.11 25.60 C 353.07 34.40 342.51 40.19 332.65 46.67 C 319.49 55.18 306.28 63.60 293.14 72.13 C 290.59 73.42 289.28 76.66 290.86 79.19 C 292.76 81.73 296.21 81.34 298.99 81.21 C 309.64 80.29 320.35 80.79 331.02 80.12 C 342.32 79.28 353.67 79.82 364.97 78.95 C 375.30 78.42 385.66 78.62 395.99 78.10 C 408.13 77.42 420.27 78.25 432.41 78.52 C 446.58 111.70 460.51 144.99 474.59 178.21 C 475.55 180.91 477.99 183.49 481.14 182.42 C 483.68 180.94 485.43 178.49 487.31 176.29 C 495.44 166.26 503.94 156.54 512.00 146.45 L 512.00 326.30 C 486.62 301.27 461.16 276.30 435.75 251.29 C 433.78 249.11 430.77 247.20 427.82 248.74 C 425.00 251.34 424.80 255.52 423.70 258.99 C 411.87 303.37 399.93 347.71 388.07 392.08 C 387.57 394.07 387.12 396.08 386.69 398.10 C 382.72 371.24 378.94 344.35 375.14 317.47 C 374.74 315.55 374.47 313.39 372.98 311.98 C 370.60 310.40 367.14 311.21 365.73 313.72 C 339.06 351.56 312.43 389.44 285.78 427.30 C 283.55 423.08 282.06 418.49 279.62 414.39 C 277.85 411.12 272.12 412.25 271.76 415.95 C 270.36 425.89 271.01 435.95 270.87 445.94 C 270.94 450.32 270.51 454.74 271.25 459.08 C 271.77 462.48 275.77 464.68 278.93 463.18 C 282.36 461.30 284.61 457.97 287.24 455.18 C 310.32 429.85 333.38 404.49 356.50 379.19 C 369.00 411.13 381.37 443.12 393.82 475.07 C 395.29 478.99 396.35 483.07 398.14 486.87 C 401.97 495.06 404.66 503.72 408.29 512.00 L 0.00 512.00 L 0.00 29.32 C 12.00 32.52 24.17 35.03 36.27 37.83 C 58.78 43.17 81.37 48.24 103.89 53.53 C 130.12 59.31 156.18 65.83 181.90 73.61 C 138.79 88.03 95.87 103.07 52.81 117.63 C 49.72 118.68 45.65 120.15 45.37 123.98 C 44.90 127.52 48.19 129.83 51.16 130.78 C 86.44 143.15 121.70 155.60 157.00 167.95 C 161.24 169.23 165.28 171.04 169.27 172.94 C 172.79 174.70 175.67 170.69 178.81 169.63 C 206.68 157.23 234.59 144.91 262.48 132.59 C 264.34 131.72 266.42 130.28 266.37 127.97 C 266.51 125.21 263.68 123.17 261.08 123.39 C 228.25 123.27 195.41 123.54 162.58 123.25 C 191.42 100.85 220.57 78.82 249.52 56.55 C 251.16 55.17 253.14 53.46 252.71 51.04 C 252.69 48.28 249.83 47.04 247.66 46.17 C 206.04 30.83 164.44 15.38 122.83 0.00 Z" />
<path fill="#f4722b" opacity="1.00" d=" M 307.57 0.00 L 512.00 0.00 L 512.00 146.45 C 503.94 156.54 495.44 166.26 487.31 176.29 C 485.43 178.49 483.68 180.94 481.14 182.42 C 477.99 183.49 475.55 180.91 474.59 178.21 C 460.51 144.99 446.58 111.70 432.41 78.52 C 420.27 78.25 408.13 77.42 395.99 78.10 C 385.66 78.62 375.30 78.42 364.97 78.95 C 353.67 79.82 342.32 79.28 331.02 80.12 C 320.35 80.79 309.64 80.29 298.99 81.21 C 296.21 81.34 292.76 81.73 290.86 79.19 C 289.28 76.66 290.59 73.42 293.14 72.13 C 306.28 63.60 319.49 55.18 332.65 46.67 C 342.51 40.19 353.07 34.40 361.11 25.60 C 359.90 24.46 358.41 23.68 356.93 22.98 C 340.40 15.47 324.08 7.52 307.57 0.00 Z" />
<path fill="#f5e5c1" opacity="1.00" d=" M 282.01 142.00 C 291.82 140.39 301.33 137.32 311.08 135.45 C 319.05 134.97 327.05 135.39 335.03 135.24 C 344.37 134.87 353.60 136.76 362.78 138.20 C 372.34 141.59 381.42 146.36 389.66 152.29 C 393.45 154.53 395.27 158.70 398.00 161.96 C 400.17 164.89 403.28 167.38 404.07 171.11 C 405.44 177.03 406.41 183.04 407.73 188.97 C 409.41 195.85 408.47 202.97 408.20 209.95 C 407.11 218.12 408.14 226.48 406.32 234.56 C 404.03 241.92 400.70 248.92 398.58 256.34 C 397.19 261.45 394.79 266.29 391.58 270.49 C 383.80 279.40 375.23 287.60 367.29 296.38 C 334.94 330.34 302.79 364.49 270.40 398.42 C 268.57 400.30 266.60 402.27 263.99 402.98 C 258.04 404.79 251.94 406.08 246.03 408.00 C 242.55 409.64 239.54 412.23 236.92 415.01 C 232.06 423.61 230.86 434.39 223.37 441.38 C 216.78 448.13 210.70 455.37 204.05 462.07 C 202.25 464.10 199.57 464.78 196.99 465.16 C 188.67 466.44 180.34 467.70 172.02 469.06 C 165.32 470.29 158.69 468.12 152.07 467.37 C 146.86 466.29 141.03 466.65 136.54 463.39 C 128.09 457.54 119.61 451.74 111.17 445.87 C 104.05 440.37 97.97 433.67 91.22 427.74 C 86.64 423.35 81.70 419.30 77.61 414.45 C 71.22 405.44 65.11 396.23 58.77 387.18 C 56.85 384.54 55.32 381.62 54.39 378.48 C 50.55 366.29 46.67 354.12 42.78 341.95 C 41.89 339.19 41.22 336.36 40.84 333.49 C 39.53 322.63 38.11 311.78 36.69 300.94 C 35.84 295.19 38.85 289.96 40.47 284.64 C 42.59 279.18 43.64 273.19 47.12 268.36 C 48.69 265.61 50.42 262.77 53.33 261.26 C 66.92 253.47 80.70 245.99 94.32 238.25 C 97.78 236.51 101.00 233.72 105.03 233.59 C 109.42 233.80 113.66 235.10 118.00 235.70 C 120.01 232.62 122.43 229.61 122.97 225.84 C 133.42 218.63 144.88 213.09 156.06 207.12 C 194.08 187.14 232.07 167.11 270.08 147.12 C 273.93 145.15 277.62 142.56 282.01 142.00 Z" />
<path fill="#3e3e3e" opacity="1.00" d=" M 299.95 151.37 C 303.97 151.38 308.06 150.22 312.03 151.36 C 320.63 153.42 329.32 155.12 337.88 157.33 C 344.67 160.18 350.88 164.26 357.46 167.57 C 362.37 169.77 365.12 174.58 368.59 178.42 C 371.77 182.38 375.77 185.91 377.42 190.86 C 379.34 195.85 381.17 200.88 383.18 205.84 C 384.31 208.76 385.66 211.73 385.53 214.94 C 385.60 224.95 385.68 234.97 385.80 244.99 C 385.84 249.64 386.66 254.31 386.13 258.96 C 384.78 261.80 382.10 263.68 380.06 266.00 C 340.15 308.14 300.22 350.27 260.31 392.40 C 256.19 395.29 250.78 395.57 246.03 397.01 C 252.86 385.54 259.64 374.03 266.53 362.59 C 268.21 360.05 268.73 356.98 268.39 353.99 C 267.38 344.35 266.54 334.70 265.52 325.06 C 265.17 320.63 265.10 315.98 262.93 311.98 C 255.47 298.18 247.95 284.42 240.47 270.63 C 239.23 268.26 237.50 266.19 235.47 264.47 C 224.88 255.40 214.33 246.27 203.76 237.18 C 201.85 235.49 199.51 234.34 196.98 233.96 C 185.66 231.93 174.33 229.90 163.01 227.85 C 158.84 226.82 154.85 228.69 151.08 230.22 C 143.44 233.32 135.71 236.20 128.09 239.35 C 130.29 236.51 131.14 232.48 134.16 230.39 C 181.17 205.62 228.21 180.90 275.22 156.13 C 278.32 154.58 281.33 152.31 284.96 152.40 C 289.97 152.23 294.93 151.45 299.95 151.37 Z" />
<path fill="#f5e5c1" opacity="1.00" d=" M 315.24 159.21 C 318.55 157.29 322.32 154.19 326.19 156.71 C 326.60 157.86 327.03 159.00 327.48 160.15 C 326.40 162.07 325.06 163.90 323.03 164.91 C 287.87 185.44 252.82 206.17 217.67 226.72 C 215.58 228.05 212.48 228.30 210.72 226.33 C 209.01 224.70 209.19 221.53 211.24 220.26 C 245.92 199.95 280.61 179.62 315.24 159.21 Z" />
<path fill="#f5e5c1" opacity="1.00" d=" M 330.63 163.80 C 332.87 162.92 335.54 163.14 337.55 164.50 C 341.36 166.95 344.96 169.71 348.66 172.33 C 350.83 173.84 352.99 176.13 352.59 179.01 C 352.47 181.72 350.14 183.55 348.05 184.91 C 317.41 203.98 286.84 223.19 256.19 242.27 C 252.88 244.22 249.76 246.45 246.63 248.68 C 244.22 250.52 240.33 249.75 239.01 246.95 C 236.45 242.24 231.37 239.63 228.78 234.98 C 227.33 231.61 229.46 228.07 232.42 226.42 C 251.32 214.31 270.24 202.22 289.15 190.11 C 303.01 181.40 316.60 172.22 330.63 163.80 Z" />
<path fill="#3e3e3e" opacity="1.00" d=" M 103.21 245.16 C 106.15 243.30 109.69 244.87 112.84 245.21 C 119.60 246.12 126.31 247.48 133.13 247.77 C 136.71 248.08 140.34 248.69 143.55 250.38 C 154.84 256.17 165.71 262.73 176.50 269.39 C 180.53 271.97 185.09 274.00 188.18 277.78 C 194.39 285.22 200.15 293.04 206.75 300.13 C 209.81 304.66 211.69 309.87 213.96 314.82 C 219.10 325.76 224.29 336.67 229.45 347.60 C 230.85 350.59 232.71 353.59 232.49 357.03 C 232.48 370.35 232.45 383.68 232.50 397.00 C 232.57 399.87 232.10 402.70 231.54 405.50 C 229.79 407.13 228.01 408.82 227.08 411.07 C 224.64 416.74 222.47 422.52 220.06 428.20 C 218.57 432.02 215.26 434.61 212.62 437.60 C 207.86 442.85 203.06 448.06 198.19 453.20 C 196.92 454.80 194.80 454.99 192.93 455.34 C 185.73 456.34 178.56 457.57 171.37 458.66 C 165.49 459.66 159.66 457.85 153.85 457.16 C 149.57 456.27 144.76 456.58 141.06 453.91 C 133.56 448.71 126.05 443.52 118.52 438.36 C 114.01 435.32 110.35 431.27 106.36 427.62 C 102.40 423.97 98.39 420.36 94.53 416.61 C 91.16 413.29 87.29 410.40 84.62 406.44 C 79.71 399.29 74.81 392.13 69.88 384.99 C 67.89 382.07 65.59 379.27 64.47 375.88 C 60.42 363.19 56.41 350.49 52.34 337.82 C 50.82 332.51 50.63 326.94 49.78 321.51 C 49.02 314.66 47.90 307.86 47.24 301.01 C 46.60 296.74 48.67 292.83 49.97 288.91 C 51.79 284.00 53.22 278.95 55.10 274.07 C 58.34 271.31 61.43 268.25 65.30 266.36 C 77.97 259.35 90.56 252.19 103.21 245.16 Z" />
<path fill="#f4722b" opacity="1.00" d=" M 427.82 248.74 C 430.77 247.20 433.78 249.11 435.75 251.29 C 461.16 276.30 486.62 301.27 512.00 326.30 L 512.00 362.22 C 484.05 342.41 455.88 322.89 427.84 303.20 C 426.19 345.78 424.79 388.36 423.12 430.94 C 422.37 457.96 420.88 484.97 420.43 512.00 L 408.29 512.00 C 404.66 503.72 401.97 495.06 398.14 486.87 C 396.35 483.07 395.29 478.99 393.82 475.07 C 381.37 443.12 369.00 411.13 356.50 379.19 C 333.38 404.49 310.32 429.85 287.24 455.18 C 284.61 457.97 282.36 461.30 278.93 463.18 C 275.77 464.68 271.77 462.48 271.25 459.08 C 270.51 454.74 270.94 450.32 270.87 445.94 C 271.01 435.95 270.36 425.89 271.76 415.95 C 272.12 412.25 277.85 411.12 279.62 414.39 C 282.06 418.49 283.55 423.08 285.78 427.30 C 312.43 389.44 339.06 351.56 365.73 313.72 C 367.14 311.21 370.60 310.40 372.98 311.98 C 374.47 313.39 374.74 315.55 375.14 317.47 C 378.94 344.35 382.72 371.24 386.69 398.10 C 387.12 396.08 387.57 394.07 388.07 392.08 C 399.93 347.71 411.87 303.37 423.70 258.99 C 424.80 255.52 425.00 251.34 427.82 248.74 Z" />
<path fill="#f5e5c1" opacity="1.00" d=" M 133.19 272.15 C 136.55 267.80 141.35 264.87 145.19 260.97 C 148.16 262.26 151.04 263.73 153.94 265.18 C 148.82 269.23 144.31 274.06 138.96 277.82 C 135.55 280.32 130.70 275.57 133.19 272.15 Z" />
<path fill="#f5e5c1" opacity="1.00" d=" M 145.70 279.91 C 148.73 275.07 154.25 272.40 157.10 267.38 C 167.47 273.94 179.28 279.16 186.86 289.20 C 188.73 291.65 190.96 293.84 192.60 296.47 C 193.55 298.22 191.42 299.35 190.37 300.35 C 186.91 302.81 183.63 305.51 180.53 308.41 C 178.46 310.40 175.23 309.48 173.34 307.71 C 165.36 300.99 157.53 294.07 149.53 287.38 C 147.33 285.52 144.65 283.13 145.70 279.91 Z" />
<path fill="#f5e5c1" opacity="1.00" d=" M 91.46 296.75 C 95.63 296.25 99.84 296.69 104.03 296.78 C 108.30 297.11 112.79 297.18 116.66 299.27 C 120.89 301.41 125.13 303.52 129.38 305.63 C 133.92 307.86 137.07 311.96 140.66 315.38 C 145.41 320.29 150.67 324.76 154.65 330.36 C 158.72 335.91 162.91 341.39 167.15 346.82 C 171.12 355.74 174.78 365.04 175.64 374.86 C 176.13 380.32 179.28 385.45 178.20 391.04 C 177.45 395.72 176.72 400.40 175.96 405.09 C 175.41 409.64 171.99 412.95 169.48 416.52 C 167.34 419.26 165.42 422.69 161.83 423.68 C 157.28 425.02 152.64 426.08 148.02 427.17 C 143.66 428.12 139.59 425.74 135.55 424.52 C 130.06 422.37 124.06 421.15 119.18 417.72 C 113.61 411.94 107.12 407.17 101.09 401.90 C 97.08 398.28 91.98 395.46 89.63 390.37 C 85.52 382.14 81.43 373.90 77.28 365.69 C 74.75 360.75 73.98 355.19 72.59 349.88 C 71.34 344.24 69.68 338.69 68.67 333.00 C 68.33 327.83 70.47 322.91 71.41 317.90 C 72.66 313.45 72.73 307.77 77.22 305.18 C 81.94 302.36 86.24 298.61 91.46 296.75 Z" />
<path fill="#3e3e3e" opacity="1.00" d=" M 427.84 303.20 C 455.88 322.89 484.05 342.41 512.00 362.22 L 512.00 512.00 L 420.43 512.00 C 420.88 484.97 422.37 457.96 423.12 430.94 C 424.79 388.36 426.19 345.78 427.84 303.20 Z" />
<path fill="#3e3e3e" opacity="1.00" d=" M 105.51 335.29 C 108.24 334.26 111.42 335.09 113.94 333.41 C 121.97 338.23 129.78 343.85 135.71 351.19 C 139.74 355.64 141.46 361.50 144.42 366.60 C 147.70 371.72 146.89 378.65 143.59 383.57 C 141.86 386.09 140.38 389.51 137.02 390.09 C 131.93 391.54 126.09 392.66 121.29 389.70 C 111.15 384.18 105.88 373.44 99.69 364.23 C 95.86 358.63 94.61 351.64 95.64 344.98 C 96.87 342.84 97.81 340.49 99.42 338.59 C 101.27 337.19 103.35 336.10 105.51 335.29 Z" />
</svg>
