<?xml version="1.0" encoding="UTF-8" standalone="no"?>
<svg
   xmlns:dc="http://purl.org/dc/elements/1.1/"
   xmlns:cc="http://creativecommons.org/ns#"
   xmlns:rdf="http://www.w3.org/1999/02/22-rdf-syntax-ns#"
   xmlns:svg="http://www.w3.org/2000/svg"
   xmlns="http://www.w3.org/2000/svg"
   xmlns:sodipodi="http://sodipodi.sourceforge.net/DTD/sodipodi-0.dtd"
   xmlns:inkscape="http://www.inkscape.org/namespaces/inkscape"
   width="1280"
   height="1280"
   viewBox="0 0 1024 1024"
   version="1.1"
   id="svg2"
   inkscape:version="0.48.1 "
   sodipodi:docname="kill_x_with_directpipe.svg">
  <metadata
     id="metadata36">
    <rdf:RDF>
      <cc:Work
         rdf:about="">
        <dc:format>image/svg+xml</dc:format>
        <dc:type
           rdf:resource="http://purl.org/dc/dcmitype/StillImage" />
      </cc:Work>
    </rdf:RDF>
  </metadata>
  <defs
     id="defs34" />
  <sodipodi:namedview
     pagecolor="#ffffff"
     bordercolor="#666666"
     borderopacity="1"
     objecttolerance="10"
     gridtolerance="10"
     guidetolerance="10"
     inkscape:pageopacity="0"
     inkscape:pageshadow="2"
     inkscape:window-width="1920"
     inkscape:window-height="1018"
     id="namedview32"
     showgrid="false"
     inkscape:snap-page="true"
     inkscape:zoom="0.6609375"
     inkscape:cx="640"
     inkscape:cy="640"
     inkscape:window-x="-8"
     inkscape:window-y="-8"
     inkscape:window-maximized="1"
     inkscape:current-layer="svg2"
     fit-margin-top="0"
     fit-margin-left="0"
     fit-margin-right="0"
     fit-margin-bottom="0" />
  <rect
     style="fill:#3e3e3e;fill-opacity:1;fill-rule:nonzero;stroke:none"
     id="rect3013"
     width="1024"
     height="1024"
     x="0"
     y="2.2737368e-013" />
  <path
     d="m 0,0 245.66,0 c 83.22,30.76 166.42,61.66 249.66,92.34 4.34,1.74 10.06,4.22 10.1,9.74 0.86,4.84 -3.1,8.26 -6.38,11.02 -57.9,44.54 -116.2,88.6 -173.88,133.4 65.66,0.58 131.34,0.04 197,0.28 5.2,-0.44 10.86,3.64 10.58,9.16 0.1,4.62 -4.06,7.5 -7.78,9.24 -55.78,24.64 -111.6,49.28 -167.34,74.08 -6.28,2.12 -12.04,10.14 -19.08,6.62 -7.98,-3.8 -16.06,-7.42 -24.54,-9.98 -70.6,-24.7 -141.12,-49.6 -211.68,-74.34 -5.94,-1.9 -12.52,-6.52 -11.58,-13.6 0.56,-7.66 8.7,-10.6 14.88,-12.7 86.12,-29.12 171.96,-59.2 258.18,-88.04 C 312.36,131.66 260.24,118.62 207.78,107.06 162.74,96.48 117.56,86.34 72.54,75.66 48.34,70.06 24,65.04 0,58.64 L 0,0 z"
     id="path4"
     inkscape:connector-curvature="0"
     style="fill:#f4722b" />
  <path
     d="m 615.14,0 408.86,0 0,292.9 c -16.12,20.18 -33.12,39.62 -49.38,59.68 -3.76,4.4 -7.26,9.3 -12.34,12.26 -6.3,2.14 -11.18,-3.02 -13.1,-8.42 -28.16,-66.44 -56.02,-133.02 -84.36,-199.38 -24.28,-0.54 -48.56,-2.2 -72.84,-0.84 -20.66,1.04 -41.38,0.64 -62.04,1.7 -22.6,1.74 -45.3,0.66 -67.9,2.34 -21.34,1.34 -42.76,0.34 -64.06,2.18 -5.56,0.26 -12.46,1.04 -16.26,-4.04 -3.16,-5.06 -0.54,-11.54 4.56,-14.12 26.28,-17.06 52.7,-33.9 79.02,-50.92 19.72,-12.96 40.84,-24.54 56.92,-42.14 -2.42,-2.28 -5.4,-3.84 -8.36,-5.24 C 680.8,30.94 648.16,15.04 615.14,0 z"
     id="path8"
     inkscape:connector-curvature="0"
     style="fill:#f4722b" />
  <path
     style="fill:#f5e5c1"
     d="m 673.55,270.4 c -1.16581,0.0123 -2.3325,0.0537 -3.5,0.1 -15.96,0.3 -31.96,-0.56 -47.9,0.4 -19.5,3.74 -38.53,9.88 -58.15,13.1 -8.78,1.12 -16.15,6.31 -23.85,10.25 -76.02,39.98 -152.01,80.04 -228.05,120 -22.36,11.94 -45.25,23.03 -66.15,37.45 -1.08,7.54 -5.93,13.54 -9.95,19.7 -8.68,-1.2 -17.17,-3.78 -25.95,-4.2 -8.06,0.26 -14.48,5.82 -21.4,9.3 -27.24,15.48 -54.82,30.42 -82,46 -5.82,3.02 -9.26,8.7 -12.4,14.2 -6.96,9.66 -9.06,21.68 -13.3,32.6 -3.24,10.64 -9.25,21.1 -7.55,32.6 2.84,21.68 5.68,43.38 8.3,65.1 0.76,5.74 2.07,11.38 3.85,16.9 7.78,24.34 15.57,48.67 23.25,73.05 1.86,6.28 4.91,12.12 8.75,17.4 12.68,18.1 24.87,36.53 37.65,54.55 8.18,9.7 18.09,17.82 27.25,26.6 13.5,11.86 25.66,25.25 39.9,36.25 16.88,11.74 33.85,23.35 50.75,35.05 8.98,6.52 20.63,5.79 31.05,7.95 13.24,1.5 26.5,5.81 39.9,3.35 16.64,-2.72 33.31,-5.24 49.95,-7.8 5.16,-0.76 10.5,-2.09 14.1,-6.15 13.3,-13.4 25.47,-27.9 38.65,-41.4 14.98,-13.98 17.38,-35.55 27.1,-52.75 5.24,-5.56 11.24,-10.72 18.2,-14 11.82,-3.84 24.05,-6.43 35.95,-10.05 5.22,-1.42 9.14,-5.34 12.8,-9.1 64.78,-67.86 129.1,-136.18 193.8,-204.1 15.88,-17.56 32.99,-33.93 48.55,-51.75 6.42,-8.4 11.22,-18.08 14,-28.3 4.24,-14.84 10.92,-28.88 15.5,-43.6 3.64,-16.16 1.57,-32.86 3.75,-49.2 0.54,-13.96 2.41,-28.19 -0.95,-41.95 -2.64,-11.86 -4.56,-23.91 -7.3,-35.75 -1.58,-7.46 -7.81,-12.44 -12.15,-18.3 -5.46,-6.52 -9.12,-14.82 -16.7,-19.3 -16.48,-11.86 -34.63,-21.42 -53.75,-28.2 -17.2125,-2.7 -34.51285,-6.1839 -52,-6 z m -58.5,31.35 c 3.02496,-0.0728 6.0225,0.095 9,0.95 17.2,4.12 34.58,7.53 51.7,11.95 13.58,5.7 25.99,13.88 39.15,20.5 9.82,4.4 15.36,14.02 22.3,21.7 6.36,7.92 14.35,14.95 17.65,24.85 3.84,9.98 7.48,20.08 11.5,30 2.26,5.84 4.96,11.78 4.7,18.2 0.14,20.02 0.31,40.06 0.55,60.1 0.08,9.3 1.71,18.6 0.65,27.9 -2.7,5.68 -8.07,9.46 -12.15,14.1 -79.82,84.28 -159.68,168.54 -239.5,252.8 -8.24,5.78 -19.05,6.32 -28.55,9.2 13.66,-22.94 27.22,-45.92 41,-68.8 3.36,-5.08 4.43,-11.22 3.75,-17.2 -2.02,-19.28 -3.71,-38.62 -5.75,-57.9 -0.7,-8.86 -0.86,-18.15 -5.2,-26.15 -14.92,-27.6 -29.94,-55.12 -44.9,-82.7 -2.48,-4.74 -5.94,-8.86 -10,-12.3 -21.18,-18.14 -42.31,-36.42 -63.45,-54.6 -3.82,-3.38 -8.49,-5.69 -13.55,-6.45 -22.64,-4.06 -45.31,-8.1 -67.95,-12.2 -8.34,-2.06 -16.31,1.69 -23.85,4.75 -15.28,6.2 -30.71,11.95 -45.95,18.25 4.4,-5.68 6.06,-13.72 12.1,-17.9 94.02,-49.54 188.13,-99.01 282.15,-148.55 6.2,-3.1 12.19,-7.63 19.45,-7.45 10.02,-0.34 19.96,-1.89 30,-2.05 5.02499,0.0125 10.1084,-0.8787 15.15,-1 z M 212.2,488.55 c 4.42518,-0.23558 9.16875,1.3825 13.5,1.85 13.52,1.82 26.91,4.57 40.55,5.15 7.16,0.62 14.43,1.82 20.85,5.2 22.58,11.58 44.32,24.73 65.9,38.05 8.06,5.16 17.17,9.19 23.35,16.75 12.42,14.88 23.95,30.52 37.15,44.7 6.12,9.06 9.86,19.5 14.4,29.4 10.28,21.88 20.68,43.69 31,65.55 2.8,5.98 6.54,11.97 6.1,18.85 -0.02,26.64 -0.1,53.31 0,79.95 0.14,5.74 -0.78,11.4 -1.9,17 -3.5,3.26 -7.09,6.65 -8.95,11.15 -4.88,11.34 -9.23,22.89 -14.05,34.25 -2.98,7.64 -9.57,12.82 -14.85,18.8 -9.52,10.5 -19.11,20.92 -28.85,31.2 -2.54,3.2 -6.81,3.6 -10.55,4.3 -14.4,2 -28.72,4.42 -43.1,6.6 -11.76,2 -23.43,-1.62 -35.05,-3 -8.56,-1.78 -18.2,-1.16 -25.6,-6.5 -15,-10.4 -29.99,-20.78 -45.05,-31.1 -9.02,-6.08 -16.37,-14.15 -24.35,-21.45 -7.92,-7.3 -15.93,-14.55 -23.65,-22.05 -6.74,-6.64 -14.46,-12.38 -19.8,-20.3 -9.82,-14.3 -19.64,-28.62 -29.5,-42.9 -3.98,-5.84 -8.56,-11.47 -10.8,-18.25 -8.1,-25.38 -16.11,-50.76 -24.25,-76.1 -3.04,-10.62 -3.45,-21.79 -5.15,-32.65 -1.52,-13.7 -3.73,-27.3 -5.05,-41 -1.28,-8.54 2.85,-16.36 5.45,-24.2 3.64,-9.82 6.49,-19.89 10.25,-29.65 6.48,-5.52 12.66,-11.67 20.4,-15.45 25.34,-14.02 50.5,-28.34 75.8,-42.4 1.8375,-1.1625 3.78854,-1.64291 5.8,-1.75 z"
     id="path10"
     inkscape:connector-curvature="0" />
  <path
     d="m 630.48,318.42 c 6.62,-3.84 14.16,-10.04 21.9,-5 0.82,2.3 1.68,4.58 2.58,6.88 -2.16,3.84 -4.84,7.5 -8.9,9.52 -70.32,41.06 -140.42,82.52 -210.72,123.62 -4.18,2.66 -10.38,3.16 -13.9,-0.78 -3.42,-3.26 -3.06,-9.6 1.04,-12.14 69.36,-40.62 138.74,-81.28 208,-122.1 z"
     id="path14"
     inkscape:connector-curvature="0"
     style="fill:#f5e5c1" />
  <path
     d="m 661.26,327.6 c 4.48,-1.76 9.82,-1.32 13.84,1.4 7.62,4.9 14.82,10.42 22.22,15.66 4.34,3.02 8.66,7.6 7.86,13.36 -0.24,5.42 -4.9,9.08 -9.08,11.8 -61.28,38.14 -122.42,76.56 -183.72,114.72 -6.62,3.9 -12.86,8.36 -19.12,12.82 -4.82,3.68 -12.6,2.14 -15.24,-3.46 -5.12,-9.42 -15.28,-14.64 -20.46,-23.94 -2.9,-6.74 1.36,-13.82 7.28,-17.12 37.8,-24.22 75.64,-48.4 113.46,-72.62 27.72,-17.42 54.9,-35.78 82.96,-52.62 z"
     id="path16"
     inkscape:connector-curvature="0"
     style="fill:#f5e5c1" />
  <path
     d="m 855.64,497.48 c 5.9,-3.08 11.92,0.74 15.86,5.1 50.82,50.02 101.74,99.96 152.5,150.02 l 0,71.84 C 968.1,684.82 911.76,645.78 855.68,606.4 c -3.3,85.16 -6.1,170.32 -9.44,255.48 -1.5,54.04 -4.48,108.06 -5.38,162.12 l -24.28,0 c -7.26,-16.56 -12.64,-33.88 -20.3,-50.26 -3.58,-7.6 -5.7,-15.76 -8.64,-23.6 C 762.74,886.24 738,822.26 713,758.38 c -46.24,50.6 -92.36,101.32 -138.52,151.98 -5.26,5.58 -9.76,12.24 -16.62,16 -6.32,3 -14.32,-1.4 -15.36,-8.2 -1.48,-8.68 -0.62,-17.52 -0.76,-26.28 0.28,-19.98 -1.02,-40.1 1.78,-59.98 0.72,-7.4 12.18,-9.66 15.72,-3.12 4.88,8.2 7.86,17.38 12.32,25.82 53.3,-75.72 106.56,-151.48 159.9,-227.16 2.82,-5.02 9.74,-6.64 14.5,-3.48 2.98,2.82 3.52,7.14 4.32,10.98 7.6,53.76 15.16,107.54 23.1,161.26 0.86,-4.04 1.76,-8.06 2.76,-12.04 23.72,-88.74 47.6,-177.42 71.26,-266.18 2.2,-6.94 2.6,-15.3 8.24,-20.5 z"
     id="path20"
     inkscape:connector-curvature="0"
     style="fill:#f4722b" />
  <path
     d="m 266.38,544.3 c 6.72,-8.7 16.32,-14.56 24,-22.36 5.94,2.58 11.7,5.52 17.5,8.42 -10.24,8.1 -19.26,17.76 -29.96,25.28 -6.82,5 -16.52,-4.5 -11.54,-11.34 z"
     id="path22"
     inkscape:connector-curvature="0"
     style="fill:#f5e5c1" />
  <path
     d="m 291.4,559.82 c 6.06,-9.68 17.1,-15.02 22.8,-25.06 20.74,13.12 44.36,23.56 59.52,43.64 3.74,4.9 8.2,9.28 11.48,14.54 1.9,3.5 -2.36,5.76 -4.46,7.76 -6.92,4.92 -13.48,10.32 -19.68,16.12 -4.14,3.98 -10.6,2.14 -14.38,-1.4 -15.96,-13.44 -31.62,-27.28 -47.62,-40.66 -4.4,-3.72 -9.76,-8.5 -7.66,-14.94 z"
     id="path24"
     inkscape:connector-curvature="0"
     style="fill:#f5e5c1" />
  <path
     d="m 189.2,593.05 c -2.09312,0.0553 -4.21501,0.2 -6.3,0.45 -10.44,3.72 -19.01,11.21 -28.45,16.85 -8.98,5.18 -9.15,16.55 -11.65,25.45 -1.88,10.02 -6.13,19.86 -5.45,30.2 2.02,11.38 5.35,22.47 7.85,33.75 2.78,10.62 4.29,21.77 9.35,31.65 8.3,16.42 16.48,32.89 24.7,49.35 4.7,10.18 14.93,15.81 22.95,23.05 12.06,10.54 25.01,20.09 36.15,31.65 9.76,6.86 21.77,9.3 32.75,13.6 8.08,2.44 16.23,7.2 24.95,5.3 9.24,-2.18 18.5,-4.32 27.6,-7 7.18,-1.98 11.02,-8.82 15.3,-14.3 5.02,-7.14 11.85,-13.75 12.95,-22.85 1.52,-9.38 3,-18.74 4.5,-28.1 2.16,-11.18 -4.12,-21.48 -5.1,-32.4 -1.72,-19.64 -9.06,-38.21 -17,-56.05 -8.48,-10.86 -16.86,-21.85 -25,-32.95 -7.96,-11.2 -18.5,-20.13 -28,-29.95 -7.18,-6.84 -13.47,-15.04 -22.55,-19.5 -8.5,-4.22 -16.99,-8.42 -25.45,-12.7 -7.74,-4.18 -16.71,-4.34 -25.25,-5 -6.28499,-0.13499 -12.57062,-0.66594 -18.85,-0.5 z m 38.7,73.75 c 16.06,9.64 31.64,20.92 43.5,35.6 8.06,8.9 11.53,20.6 17.45,30.8 6.56,10.24 4.95,24.11 -1.65,33.95 -3.46,5.04 -6.43,11.89 -13.15,13.05 -10.18,2.9 -21.85,5.12 -31.45,-0.8 -20.28,-11.04 -30.82,-32.53 -43.2,-50.95 -7.66,-11.2 -10.16,-25.18 -8.1,-38.5 2.46,-4.28 4.33,-8.95 7.55,-12.75 3.7,-2.8 7.83,-4.98 12.15,-6.6 5.46,-2.06 11.86,-0.44 16.9,-3.8 z"
     id="path26"
     style="fill:#f5e5c1"
     inkscape:connector-curvature="0" />
</svg>
