<?xml version="1.0" encoding="UTF-8" ?>
<!DOCTYPE svg PUBLIC "-//W3C//DTD SVG 1.1//EN" "http://www.w3.org/Graphics/SVG/1.1/DTD/svg11.dtd">
<svg width="512pt" height="512pt" viewBox="0 0 512 512" version="1.1" xmlns="http://www.w3.org/2000/svg">
<path fill="#3e3e3e" opacity="1.00" d=" M 0.00 0.00 L 512.00 0.00 L 512.00 512.00 L 0.00 512.00 L 0.00 470.90 C 22.05 477.61 44.06 484.48 66.14 491.09 C 65.53 486.10 64.40 480.97 65.98 476.03 C 67.90 465.30 75.49 455.97 85.39 451.55 C 91.91 448.23 99.36 447.94 106.52 448.47 C 97.33 438.11 87.37 428.45 77.75 418.50 C 78.05 428.06 78.86 437.63 79.90 447.15 C 60.50 434.50 40.98 422.05 21.58 409.42 C 18.06 407.23 14.81 404.23 10.51 403.72 C 11.30 405.14 12.10 406.57 13.13 407.84 C 30.53 428.12 47.68 448.60 65.06 468.89 C 43.37 468.81 21.69 468.88 0.00 468.86 L 0.00 0.00 Z" />
<path fill="#f5e5c1" opacity="1.00" d=" M 243.55 24.51 C 247.69 17.19 255.60 12.36 263.87 11.35 C 269.37 11.88 274.84 13.46 279.55 16.41 C 285.05 20.82 287.22 27.71 288.84 34.30 C 289.92 34.41 291.01 34.52 292.10 34.63 C 292.30 38.16 292.58 41.68 293.16 45.17 C 290.91 49.79 292.39 55.02 292.98 59.84 C 297.04 64.20 300.61 69.05 305.05 73.05 C 307.61 74.57 310.41 75.69 313.21 76.71 C 315.72 76.21 318.14 73.28 320.75 75.13 C 327.92 79.66 335.08 84.20 342.27 88.71 C 346.70 91.18 350.65 94.65 355.70 95.85 C 355.45 98.64 354.38 101.33 354.31 104.13 C 360.28 109.48 367.02 113.89 373.23 118.95 C 379.64 128.16 384.76 138.26 391.57 147.21 C 389.86 148.71 388.15 150.22 386.43 151.72 C 386.82 154.01 387.05 156.34 387.67 158.58 C 392.99 167.27 396.92 176.73 400.77 186.16 C 403.47 192.53 403.74 199.98 408.29 205.47 C 413.30 214.03 417.80 222.88 422.73 231.49 C 424.27 234.09 424.31 237.15 424.58 240.06 C 425.93 250.61 427.69 261.11 429.18 271.64 C 430.00 276.07 430.73 280.53 430.80 285.06 C 431.92 292.23 434.51 299.07 436.11 306.14 C 437.70 313.60 440.18 320.82 442.29 328.14 C 442.79 330.48 441.67 332.81 440.70 334.89 C 434.81 344.90 428.58 354.71 422.86 364.82 C 420.37 366.69 416.85 367.20 414.89 369.89 C 411.86 373.71 408.25 377.14 403.74 379.14 C 402.71 379.56 401.80 378.61 400.87 378.33 C 400.48 377.25 400.08 376.18 399.67 375.13 C 399.56 372.97 399.51 370.82 399.45 368.67 C 401.87 365.67 404.83 363.21 407.50 360.45 C 408.62 359.62 408.59 358.19 408.87 356.97 C 406.36 357.27 403.72 358.89 401.25 357.71 C 399.60 357.07 398.60 355.51 397.43 354.29 C 397.41 352.80 397.38 351.31 397.35 349.82 C 401.43 344.94 407.36 342.22 412.03 337.99 C 414.91 335.82 412.26 332.09 411.32 329.51 C 408.36 325.01 402.14 326.76 399.25 330.35 C 395.21 335.70 393.67 342.34 391.37 348.48 C 388.70 350.22 385.04 348.89 381.98 349.27 C 381.64 348.72 380.95 347.63 380.61 347.08 C 380.72 344.36 380.93 341.64 380.64 338.93 C 380.26 335.93 378.65 332.95 379.59 329.90 C 380.50 327.34 381.87 324.93 382.24 322.19 C 383.08 318.37 382.36 314.28 383.74 310.60 C 386.23 307.21 388.87 303.90 391.82 300.90 C 390.27 297.33 391.02 293.20 389.11 289.78 C 385.55 281.82 381.56 274.00 379.23 265.56 C 376.62 256.33 374.01 247.11 371.76 237.80 C 371.50 231.69 371.17 225.56 370.18 219.53 C 366.12 208.56 359.59 198.76 354.27 188.39 C 353.84 188.39 352.99 188.38 352.57 188.38 C 349.89 192.42 348.59 197.11 346.82 201.57 C 346.41 205.69 346.78 209.89 345.86 213.96 C 345.44 223.68 344.29 233.34 343.68 243.05 C 343.75 251.23 343.58 259.48 342.34 267.57 C 340.10 272.41 337.20 276.99 335.59 282.09 C 335.14 289.40 335.62 296.74 335.38 304.05 C 334.89 304.28 333.91 304.72 333.42 304.94 C 333.08 312.45 334.26 319.90 334.32 327.39 C 328.19 328.55 322.10 330.34 316.77 333.68 C 311.17 329.99 304.62 327.92 297.96 327.45 C 292.85 327.22 287.96 328.99 283.17 330.49 C 274.90 313.63 256.13 304.20 238.00 302.63 C 220.01 301.38 201.97 308.99 189.74 322.13 C 188.04 313.17 187.47 304.05 186.02 295.05 C 184.46 288.31 186.16 281.40 185.22 274.59 C 184.37 269.76 184.65 264.84 184.37 259.97 C 179.72 258.18 174.74 257.07 170.48 254.36 C 170.58 243.06 170.54 231.75 170.51 220.45 C 174.28 216.81 177.89 213.00 181.78 209.49 C 182.72 208.60 183.93 207.59 183.54 206.11 C 183.20 200.43 183.27 193.50 177.86 190.05 C 172.68 199.56 167.00 208.84 162.93 218.91 C 161.31 224.80 161.62 230.96 161.31 237.01 C 159.87 245.89 156.41 254.28 154.43 263.03 C 152.99 270.03 149.59 276.37 147.01 282.97 C 145.46 286.99 142.48 290.57 142.35 295.05 C 142.34 297.04 141.36 298.92 141.50 300.92 C 143.71 304.50 147.51 307.03 149.05 311.02 C 149.74 315.36 149.74 319.77 150.31 324.13 C 150.27 326.85 153.10 328.29 153.79 330.78 C 154.84 333.10 153.77 335.60 153.64 338.00 C 152.90 342.84 155.30 347.72 153.28 352.40 C 149.78 352.37 146.29 352.35 142.80 352.32 C 140.86 349.14 139.22 345.79 137.55 342.47 C 135.84 339.26 135.95 335.51 134.89 332.11 C 133.67 329.32 130.81 327.58 128.06 326.53 C 122.51 325.00 118.49 331.90 119.44 336.63 C 123.85 340.59 128.89 343.78 133.55 347.44 C 133.51 350.49 133.48 353.55 133.36 356.60 C 129.91 356.11 126.51 355.27 123.02 355.12 C 123.05 358.03 125.54 359.75 127.24 361.77 C 128.99 363.77 130.66 365.86 132.49 367.79 C 132.46 371.66 132.74 375.68 131.17 379.32 C 129.67 379.37 128.17 379.43 126.67 379.51 C 122.85 375.57 119.60 371.09 115.53 367.40 C 113.51 366.13 110.68 365.95 109.48 363.63 C 104.26 355.13 99.33 346.46 94.00 338.03 C 92.17 335.07 90.28 331.72 90.54 328.13 C 93.98 314.78 97.96 301.57 101.11 288.15 C 103.71 273.03 105.42 257.78 107.90 242.64 C 114.46 227.68 121.32 212.83 128.12 197.98 C 129.86 193.62 130.19 188.80 132.34 184.58 C 136.54 175.69 139.47 165.98 145.47 158.08 C 145.66 155.68 145.69 153.27 145.61 150.86 C 144.08 149.62 142.59 148.33 141.13 147.02 C 145.48 140.09 150.33 133.46 154.57 126.46 C 157.04 121.82 159.86 117.14 164.54 114.42 C 172.61 107.77 181.06 101.60 189.21 95.04 C 189.32 94.51 189.55 93.46 189.67 92.93 C 194.09 89.92 198.65 87.12 203.04 84.07 C 203.88 84.22 204.72 84.37 205.56 84.53 C 211.26 81.12 217.17 78.08 223.03 74.96 C 225.49 73.56 228.04 71.94 229.19 69.21 C 231.35 64.30 235.97 60.55 236.45 54.95 C 236.51 52.38 237.67 49.01 235.46 47.05 C 235.91 42.57 237.09 38.17 236.74 33.62 C 237.82 33.54 238.91 33.45 240.00 33.37 C 241.53 30.56 242.34 27.45 243.55 24.51 Z" />
<path fill="#f4722b" opacity="1.00" d=" M 477.59 147.85 C 478.24 145.91 478.85 143.77 480.78 142.72 C 480.72 147.19 479.62 151.54 478.92 155.93 C 472.07 196.15 464.92 236.32 458.22 276.57 C 450.39 274.16 442.81 271.03 435.04 268.46 C 448.85 228.14 463.54 188.10 477.59 147.85 Z" />
<path fill="#f4722b" opacity="1.00" d=" M 27.03 261.83 C 47.70 291.30 67.79 321.18 88.30 350.76 C 89.30 352.39 90.92 353.89 90.96 355.92 C 85.18 360.58 79.16 365.01 73.01 369.19 C 57.71 333.39 42.12 297.72 27.03 261.83 Z" />
<path fill="#f4722b" opacity="1.00" d=" M 223.13 309.63 C 241.83 305.45 262.50 312.63 274.49 327.58 C 276.99 331.14 278.78 335.14 280.84 338.96 C 287.17 334.40 295.47 332.20 303.14 334.20 C 308.05 335.12 312.25 338.01 316.01 341.16 C 327.89 332.59 344.18 330.43 357.71 336.18 C 368.23 340.59 376.73 349.57 380.51 360.33 C 384.74 371.97 383.43 385.36 377.22 396.05 C 388.28 407.15 390.89 425.49 383.24 439.18 C 380.55 444.35 376.23 448.39 371.73 451.98 C 373.34 454.08 374.81 456.50 377.35 457.60 C 397.50 467.80 417.51 478.28 437.65 488.50 C 439.37 489.38 441.00 490.43 442.60 491.52 C 437.27 493.45 431.56 493.43 425.98 493.70 C 418.33 494.00 410.67 493.98 403.02 493.99 C 396.64 494.01 390.30 494.91 383.93 494.81 C 380.20 495.02 377.89 491.57 374.72 490.24 C 359.99 483.33 345.37 476.15 330.85 468.80 C 331.61 467.31 332.51 465.89 333.67 464.69 C 341.16 456.50 348.34 448.04 355.84 439.86 C 357.01 438.53 358.31 436.94 357.89 435.03 C 357.94 432.97 355.75 432.39 354.20 431.82 C 344.37 428.70 334.56 425.52 324.76 422.30 C 327.53 420.04 330.92 418.80 334.04 417.11 C 343.95 411.98 353.98 407.07 363.85 401.86 C 353.54 401.27 343.26 402.53 332.96 402.67 C 338.49 387.43 344.06 372.20 349.65 356.99 C 333.53 366.61 317.95 377.14 302.00 387.05 C 298.79 388.88 295.97 391.66 292.19 392.23 C 291.98 384.18 292.41 376.10 291.63 368.08 C 291.19 362.67 291.65 357.22 290.89 351.84 C 285.41 360.38 279.82 368.85 274.25 377.33 C 273.87 378.19 272.80 379.36 272.01 378.11 C 261.67 367.72 251.74 356.91 242.30 345.69 C 238.75 341.76 235.69 337.38 231.66 333.92 C 233.22 359.45 235.48 384.97 237.47 410.49 C 232.26 409.95 227.19 408.59 222.09 407.49 C 209.53 404.61 196.95 401.85 184.40 398.98 C 194.00 417.49 203.38 436.11 213.02 454.60 C 191.04 458.42 168.88 461.21 146.88 464.98 C 156.42 473.92 165.96 482.87 175.34 491.97 C 142.38 492.03 109.43 491.99 76.48 491.99 C 75.03 477.47 85.14 462.96 99.25 459.30 C 106.92 457.24 115.25 458.14 122.34 461.72 C 119.99 452.54 121.88 442.29 127.79 434.81 C 130.36 431.26 133.98 428.71 137.54 426.23 C 133.91 409.48 137.76 391.01 148.58 377.60 C 156.47 367.88 168.01 361.72 180.17 359.20 C 182.39 352.55 183.34 345.48 186.37 339.10 C 193.06 324.23 207.11 312.84 223.13 309.63 Z" />
<path fill="#f4722b" opacity="1.00" d=" M 10.51 403.72 C 14.81 404.23 18.06 407.23 21.58 409.42 C 40.98 422.05 60.50 434.50 79.90 447.15 C 78.86 437.63 78.05 428.06 77.75 418.50 C 87.37 428.45 97.33 438.11 106.52 448.47 C 99.36 447.94 91.91 448.23 85.39 451.55 C 75.49 455.97 67.90 465.30 65.98 476.03 C 64.40 480.97 65.53 486.10 66.14 491.09 C 44.06 484.48 22.05 477.61 0.00 470.90 L 0.00 468.86 C 21.69 468.88 43.37 468.81 65.06 468.89 C 47.68 448.60 30.53 428.12 13.13 407.84 C 12.10 406.57 11.30 405.14 10.51 403.72 Z" />
<path fill="#f4722b" opacity="1.00" d=" M 390.75 405.04 C 403.92 405.03 417.09 404.95 430.26 405.08 C 430.16 406.31 429.53 407.10 428.38 407.46 C 417.56 411.75 406.65 415.84 395.88 420.26 C 394.07 415.23 391.82 410.30 390.75 405.04 Z" />
<path fill="#f4722b" opacity="1.00" d=" M 440.89 446.83 C 458.63 443.38 476.26 439.37 494.03 436.15 C 478.28 446.82 463.04 458.24 447.35 469.00 C 445.19 461.61 442.49 454.37 440.89 446.83 Z" />
</svg>
