<?xml version="1.0" encoding="UTF-8" ?>
<!DOCTYPE svg PUBLIC "-//W3C//DTD SVG 1.1//EN" "http://www.w3.org/Graphics/SVG/1.1/DTD/svg11.dtd">
<svg width="512pt" height="512pt" viewBox="0 0 512 512" version="1.1" xmlns="http://www.w3.org/2000/svg">
<path fill="#3e3e3e" opacity="1.00" d=" M 0.00 0.00 L 512.00 0.00 L 512.00 512.00 L 0.00 512.00 L 0.00 0.00 Z" />
<path fill="#f4722b" opacity="1.00" d=" M 253.73 18.31 C 255.91 18.23 258.10 18.23 260.28 18.31 C 263.30 21.40 268.02 21.56 271.92 22.90 C 310.44 35.14 349.08 46.98 387.61 59.22 C 415.28 67.43 442.69 76.59 470.37 84.76 C 470.36 86.58 470.36 88.41 470.40 90.23 C 471.33 90.91 471.77 91.80 471.74 92.91 C 471.77 107.35 471.66 121.79 471.79 136.23 C 471.43 136.44 470.71 136.87 470.35 137.08 C 470.39 141.15 470.35 145.21 470.44 149.28 C 470.15 149.69 469.59 150.52 469.31 150.93 C 469.67 161.06 467.40 171.00 466.47 181.06 C 461.08 222.91 451.74 264.16 440.67 304.84 C 432.59 334.90 422.81 364.43 412.79 393.89 C 411.29 397.48 410.44 401.66 407.07 404.05 C 387.83 420.51 366.54 434.29 345.80 448.73 C 337.53 454.23 329.44 460.03 320.73 464.85 C 301.50 475.37 282.22 485.84 262.42 495.24 C 258.84 495.85 255.05 495.87 251.48 495.21 C 239.84 489.73 228.51 483.59 216.90 478.04 C 211.69 475.74 207.15 472.23 201.90 470.02 C 186.94 461.91 172.34 453.16 157.79 444.34 C 152.43 441.96 148.24 437.81 143.51 434.46 C 131.38 425.06 119.43 415.22 109.33 403.62 C 107.15 401.20 104.45 399.33 102.19 397.01 C 100.55 392.05 98.97 387.06 96.91 382.25 C 78.92 328.70 63.59 274.17 53.32 218.57 C 52.09 209.66 49.95 200.86 49.16 191.90 C 47.87 184.88 46.55 177.75 46.39 170.59 C 44.91 167.62 45.98 164.20 45.06 161.10 C 44.17 158.02 45.01 154.77 44.27 151.68 C 42.94 147.19 43.79 142.45 43.65 137.85 C 43.29 137.70 42.58 137.39 42.23 137.23 C 42.32 122.45 42.24 107.67 42.26 92.89 C 42.25 91.81 42.68 90.91 43.57 90.21 C 43.58 88.70 43.58 87.20 43.55 85.69 C 45.01 84.93 46.50 84.22 48.07 83.73 C 61.17 80.29 73.84 75.38 86.89 71.76 C 125.60 59.53 164.37 47.51 203.05 35.22 C 217.20 31.14 231.05 26.10 245.22 22.12 C 248.10 20.96 251.57 20.78 253.73 18.31 Z" />
<path fill="#3e3e3e" opacity="1.00" d=" M 233.88 40.99 C 241.54 38.48 249.25 36.05 256.95 33.74 C 323.36 54.34 389.73 75.27 456.19 95.82 C 456.12 99.92 457.60 103.87 457.24 107.99 C 456.66 116.20 458.54 124.37 457.51 132.57 C 456.57 139.24 457.95 146.04 456.72 152.67 C 453.03 206.05 441.55 258.74 427.11 310.23 C 421.32 330.66 415.08 350.96 408.19 371.05 C 404.85 379.09 402.99 387.74 398.92 395.47 C 390.59 400.32 383.68 407.25 375.79 412.78 C 363.15 421.52 350.88 430.83 337.70 438.75 C 322.79 448.04 307.56 456.84 291.82 464.63 C 285.61 468.41 278.95 471.37 272.50 474.73 C 267.22 477.03 261.88 479.24 256.93 482.23 C 250.72 478.39 243.71 476.18 237.33 472.67 C 224.65 466.53 212.31 459.76 199.91 453.11 C 186.77 445.79 173.63 438.39 161.52 429.43 C 150.70 421.67 138.90 415.05 129.44 405.56 C 123.88 399.96 117.05 395.89 110.91 390.99 C 109.32 389.89 109.38 387.79 108.91 386.13 C 105.01 367.09 97.85 348.97 92.50 330.35 C 76.08 275.75 63.09 219.81 57.89 162.98 C 57.27 160.08 57.91 157.10 57.44 154.20 C 55.74 147.29 57.44 140.12 56.40 133.14 C 54.92 125.14 57.39 117.09 56.69 109.04 C 56.19 104.76 57.60 100.65 57.65 96.40 C 109.40 79.69 161.43 63.91 213.22 47.33 C 220.26 45.71 226.84 42.60 233.88 40.99 Z" />
<path fill="#f4722b" opacity="1.00" d=" M 70.21 106.33 C 131.79 86.98 193.40 67.67 254.98 48.37 C 256.49 48.17 258.04 48.16 259.54 48.48 C 307.70 63.72 356.01 78.59 404.22 93.69 C 417.33 97.95 430.61 101.68 443.63 106.23 C 443.20 110.21 444.74 114.03 444.54 117.99 C 444.32 124.68 444.77 131.39 444.34 138.06 C 442.79 143.91 444.47 150.02 442.99 155.88 C 442.24 169.31 440.64 182.72 438.71 196.06 C 438.41 203.88 436.17 211.42 434.94 219.11 C 432.75 228.80 431.30 238.65 428.77 248.26 C 427.01 258.23 424.26 268.00 421.86 277.84 C 416.44 300.17 409.84 322.19 403.01 344.12 C 398.06 358.45 393.68 373.00 388.02 387.06 C 384.12 391.16 379.06 394.08 375.29 398.36 C 368.21 406.27 358.64 411.16 349.80 416.77 C 334.49 426.43 318.53 434.98 302.71 443.76 C 287.25 451.06 272.58 459.94 256.96 466.92 C 240.09 459.67 224.02 450.71 207.87 442.03 C 179.10 427.03 153.11 407.42 128.00 387.04 C 125.32 384.06 122.45 380.99 120.93 377.24 C 119.76 371.69 118.66 366.10 116.19 360.95 C 112.49 348.90 108.48 336.94 104.82 324.87 C 89.09 272.34 76.61 218.63 71.21 163.98 C 70.94 161.15 71.38 158.26 70.64 155.48 C 69.71 151.33 70.59 147.07 70.15 142.89 C 68.62 135.33 69.71 127.59 69.34 119.94 C 68.95 115.35 70.73 110.93 70.21 106.33 Z" />
<path fill="#3e3e3e" opacity="1.00" d=" M 251.74 65.79 C 255.23 64.85 259.44 65.23 261.94 68.13 C 264.69 70.64 265.12 74.72 264.18 78.14 C 262.51 81.63 258.96 84.67 254.89 84.41 C 250.03 84.27 245.51 79.94 245.54 75.00 C 245.34 71.00 248.29 67.47 251.74 65.79 Z" />
<path fill="#3e3e3e" opacity="1.00" d=" M 92.61 113.08 C 99.37 111.20 106.91 115.48 109.32 121.93 C 110.14 126.42 110.48 131.74 107.38 135.49 C 103.95 140.11 97.53 142.45 92.00 140.64 C 84.90 138.77 80.05 130.74 82.06 123.60 C 83.31 118.52 87.53 114.32 92.61 113.08 Z" />
<path fill="#3e3e3e" opacity="1.00" d=" M 414.33 113.54 C 422.95 110.47 432.97 117.95 432.62 127.05 C 432.98 134.19 427.04 140.67 420.01 141.35 C 412.28 142.39 404.33 135.95 404.32 128.03 C 403.60 121.59 408.21 115.31 414.33 113.54 Z" />
<path fill="#3e3e3e" opacity="1.00" d=" M 141.47 350.64 C 151.45 347.68 162.10 356.87 161.49 366.99 C 161.27 373.35 156.18 378.95 150.00 380.15 C 140.29 382.13 130.28 372.70 131.41 362.91 C 131.77 357.27 136.11 352.22 141.47 350.64 Z" />
<path fill="#3e3e3e" opacity="1.00" d=" M 363.41 350.70 C 368.15 349.58 373.64 350.19 377.19 353.82 C 383.17 358.89 383.08 368.60 378.38 374.49 C 372.28 382.84 357.69 382.81 351.98 374.03 C 348.42 368.95 348.92 361.62 353.00 356.98 C 355.72 353.88 359.56 352.00 363.41 350.70 Z" />
<path fill="#3e3e3e" opacity="1.00" d=" M 254.36 424.60 C 257.99 423.79 262.20 424.27 264.96 426.97 C 268.16 429.63 268.44 434.42 267.10 438.10 C 264.69 442.62 259.48 446.63 254.11 445.07 C 248.53 443.65 245.48 437.06 247.23 431.75 C 248.07 428.27 250.91 425.47 254.36 424.60 Z" />
</svg>
