<?xml version="1.0" encoding="UTF-8" ?>
<!DOCTYPE svg PUBLIC "-//W3C//DTD SVG 1.1//EN" "http://www.w3.org/Graphics/SVG/1.1/DTD/svg11.dtd">
<svg width="512pt" height="512pt" viewBox="0 0 512 512" version="1.1" xmlns="http://www.w3.org/2000/svg">
<path fill="#3e3e3e" opacity="1.00" d=" M 0.00 0.00 L 512.00 0.00 L 512.00 185.26 C 496.98 183.48 482.01 181.28 466.99 179.58 C 461.37 179.34 455.80 178.61 450.21 178.05 C 451.26 192.61 452.32 207.17 453.43 221.73 C 472.88 225.62 492.49 228.64 512.00 232.23 L 512.00 270.05 C 501.05 267.43 490.00 265.23 479.01 262.75 C 470.43 260.96 461.90 258.56 453.10 258.15 C 449.20 260.94 446.72 266.68 441.06 266.19 C 432.15 265.39 424.54 259.81 415.95 257.67 C 405.27 260.69 395.05 265.26 384.43 268.53 C 379.87 269.78 375.17 268.57 370.59 268.13 C 417.74 280.73 464.90 293.33 512.00 306.12 L 512.00 470.17 C 504.93 466.68 496.85 466.39 489.48 463.78 C 477.57 460.54 465.34 458.64 453.30 455.96 C 409.42 446.68 365.42 437.86 321.89 426.99 C 308.51 423.74 295.15 420.43 281.76 417.21 C 278.95 423.00 276.70 429.06 273.74 434.77 C 272.28 437.79 268.95 439.02 265.95 439.91 C 258.17 442.15 250.36 444.29 242.59 446.58 C 237.72 455.14 233.17 463.89 228.54 472.58 C 227.16 475.11 225.39 477.73 222.49 478.63 C 217.69 480.33 212.66 481.22 207.77 482.59 C 202.39 483.89 196.85 486.04 191.26 484.68 C 184.07 482.91 177.18 480.01 169.99 478.27 C 161.75 478.23 153.56 481.98 145.32 479.79 C 127.55 475.25 109.79 470.64 92.01 466.15 C 87.66 465.24 83.19 463.76 80.40 460.06 C 71.62 462.53 62.91 465.28 54.22 468.06 C 77.55 477.43 100.99 486.52 124.36 495.78 C 138.70 501.16 152.69 507.57 167.36 512.00 L 0.00 512.00 L 0.00 0.00 Z" />
<path fill="#f5e5c1" opacity="1.00" d=" M 127.45 48.32 C 130.77 46.22 134.44 49.11 137.43 50.58 C 141.80 52.61 141.24 58.03 141.59 62.01 C 142.38 66.26 141.74 70.92 144.14 74.71 C 146.78 80.35 150.43 85.70 151.38 91.97 C 151.81 94.64 152.56 97.29 152.45 100.02 C 152.32 103.12 150.81 105.96 150.50 109.04 C 150.83 113.53 153.94 117.43 153.80 121.96 C 152.15 124.75 150.00 127.49 147.23 129.24 C 144.80 129.32 142.50 128.34 140.08 128.25 C 137.62 129.82 136.03 132.61 133.12 133.54 C 128.21 135.46 123.56 138.36 118.20 138.82 C 114.26 139.51 110.16 139.20 106.32 140.42 C 100.87 144.12 96.51 149.34 90.92 152.85 C 86.67 154.11 80.75 152.38 78.78 148.10 C 78.01 141.58 77.75 135.00 77.24 128.47 C 74.34 120.96 70.09 114.00 67.24 106.46 C 66.11 103.66 65.16 100.78 63.71 98.13 C 61.26 94.08 57.87 90.65 55.64 86.47 C 54.78 83.02 56.53 79.66 57.58 76.46 C 58.14 74.61 59.65 73.21 61.53 72.74 C 67.10 71.26 72.89 70.74 78.47 69.28 C 80.65 68.38 82.29 66.59 84.11 65.15 C 88.61 61.15 94.56 59.53 100.12 57.61 C 106.31 55.38 113.52 58.18 119.20 54.34 C 122.18 52.66 124.51 50.07 127.45 48.32 Z" />
<path fill="#3e3e3e" opacity="1.00" d=" M 127.88 54.61 C 130.57 53.12 133.31 55.15 135.41 56.72 C 137.05 57.49 136.56 59.47 136.72 60.93 C 136.73 66.59 137.00 72.28 136.28 77.91 C 132.51 76.75 128.76 75.50 125.11 74.02 C 120.08 71.60 115.85 67.85 111.08 65.00 C 111.28 64.47 111.68 63.42 111.88 62.89 C 117.23 60.16 122.50 57.28 127.88 54.61 Z" />
<path fill="#3e3e3e" opacity="1.00" d=" M 88.69 75.18 C 86.67 72.27 90.41 69.48 93.01 69.13 C 98.75 70.49 101.87 76.22 106.68 79.20 C 113.50 83.22 120.25 87.44 127.70 90.23 C 132.56 92.97 138.17 93.47 143.43 95.06 C 144.33 97.48 144.62 100.09 143.79 102.59 C 136.66 101.51 129.70 99.60 122.86 97.35 C 114.88 94.41 107.87 89.52 100.38 85.60 C 95.59 83.28 91.89 79.33 88.69 75.18 Z" />
<path fill="#3e3e3e" opacity="1.00" d=" M 63.78 79.66 C 68.95 77.60 74.66 77.81 80.05 76.65 C 82.47 75.96 85.73 76.49 86.72 79.10 C 86.41 86.95 84.71 95.82 77.87 100.65 C 75.00 101.96 73.18 99.14 71.72 97.19 C 68.97 93.39 65.11 90.52 62.51 86.62 C 62.11 84.23 63.19 81.93 63.78 79.66 Z" />
<path fill="#3e3e3e" opacity="1.00" d=" M 110.68 107.68 C 113.08 104.95 115.41 101.78 118.99 100.54 C 123.12 100.91 126.95 102.83 131.08 103.36 C 132.09 106.24 134.49 108.79 134.13 112.01 C 134.04 115.38 132.51 118.71 130.05 121.00 C 124.20 124.33 117.42 122.07 111.37 120.65 C 108.50 116.90 108.53 111.75 110.68 107.68 Z" />
<path fill="#3e3e3e" opacity="1.00" d=" M 73.62 103.44 C 78.40 102.78 80.43 108.63 84.00 110.84 C 94.80 116.90 105.99 122.66 118.13 125.58 C 120.98 126.04 123.83 126.58 126.47 127.81 C 123.55 129.14 120.55 131.49 117.17 130.44 C 112.79 129.26 108.13 128.98 104.03 126.90 C 96.13 122.81 88.21 118.75 80.50 114.33 C 77.19 111.58 73.42 108.13 73.62 103.44 Z" />
<path fill="#3e3e3e" opacity="1.00" d=" M 85.45 129.21 C 89.79 132.26 94.72 134.33 100.02 134.91 C 97.00 137.94 93.54 140.47 90.40 143.37 C 89.40 144.49 87.93 144.79 86.51 144.99 C 86.55 139.70 85.72 134.47 85.45 129.21 Z" />
<path fill="#f5e5c1" opacity="1.00" d=" M 386.29 140.13 C 390.64 138.53 394.46 135.67 399.03 134.59 C 400.76 135.28 402.45 136.10 404.00 137.14 C 408.99 140.59 415.03 141.79 420.47 144.30 C 424.93 145.20 429.54 145.14 434.07 144.86 C 439.34 145.15 442.57 149.85 445.80 153.41 C 448.55 156.06 446.48 159.89 446.13 163.05 C 445.26 168.31 443.35 173.56 444.17 178.95 C 444.45 185.92 444.55 192.90 445.34 199.85 C 446.08 205.62 444.09 211.28 444.46 217.02 C 446.44 222.58 449.35 227.76 451.66 233.20 C 452.93 236.41 455.58 239.72 454.31 243.35 C 452.33 246.58 449.59 249.24 447.22 252.18 C 445.67 254.04 443.73 256.18 441.03 255.73 C 433.30 254.82 425.77 252.60 418.09 251.37 C 413.98 250.58 410.45 253.29 406.78 254.62 C 402.76 256.10 399.01 258.34 394.83 259.34 C 388.87 259.78 382.88 260.00 376.92 260.41 C 373.51 260.91 370.67 264.46 367.02 263.07 C 362.90 261.26 357.67 259.78 355.91 255.14 C 355.32 253.80 354.54 252.50 353.17 251.86 C 349.78 250.03 346.87 247.42 343.42 245.72 C 338.29 244.41 332.19 246.96 327.78 243.15 C 325.51 241.33 322.15 239.40 322.55 236.02 C 323.08 232.05 325.89 228.82 326.70 224.93 C 327.08 213.23 325.83 201.58 325.40 189.91 C 325.07 186.51 324.76 183.00 323.24 179.89 C 319.76 172.39 316.48 164.79 313.02 157.27 C 312.22 155.55 311.96 153.48 312.68 151.69 C 314.65 149.03 317.11 146.78 319.18 144.19 C 320.94 142.15 322.94 139.50 325.97 139.75 C 335.73 141.10 345.45 142.74 355.19 144.21 C 358.33 144.71 361.37 143.64 364.41 143.06 C 371.69 141.96 379.03 141.33 386.29 140.13 Z" />
<path fill="#f4722b" opacity="1.00" d=" M 123.29 144.22 C 128.11 142.95 131.74 138.27 137.03 138.65 C 193.97 145.77 250.92 152.93 307.86 160.04 C 308.91 160.21 309.97 160.40 311.02 160.61 C 313.94 168.24 316.78 175.91 319.73 183.52 C 321.69 188.10 320.10 193.15 320.33 197.95 C 319.20 197.91 318.09 197.84 316.98 197.74 C 243.03 184.76 169.12 171.53 95.15 158.67 C 99.27 155.04 102.68 150.60 107.10 147.33 C 112.40 145.85 117.96 145.58 123.29 144.22 Z" />
<path fill="#3e3e3e" opacity="1.00" d=" M 390.83 146.97 C 393.21 145.78 395.52 144.43 398.01 143.45 C 399.89 143.72 401.34 145.13 402.99 146.00 C 402.48 151.60 399.19 156.38 398.06 161.83 C 396.51 166.24 394.78 170.60 392.99 174.93 C 390.29 180.11 386.90 184.91 384.00 189.99 C 381.58 194.43 377.17 197.14 373.60 200.55 C 365.93 207.99 357.10 214.06 348.88 220.85 C 346.83 222.57 344.49 223.91 342.08 225.07 C 340.84 221.57 339.60 218.06 338.33 214.57 C 343.55 211.00 349.92 208.98 354.19 204.13 C 360.78 197.08 367.55 190.18 373.89 182.90 C 377.85 177.06 381.07 170.75 384.79 164.75 C 388.31 159.43 388.86 152.90 390.83 146.97 Z" />
<path fill="#3e3e3e" opacity="1.00" d=" M 323.87 150.91 C 325.08 149.81 326.01 147.84 327.94 148.18 C 338.26 149.03 348.39 151.70 358.74 152.36 C 356.95 157.91 356.32 164.00 352.85 168.86 C 350.91 171.87 348.22 174.33 345.14 176.14 C 341.21 178.46 337.92 181.71 333.84 183.78 C 329.83 174.41 325.37 165.22 321.41 155.84 C 320.44 153.69 322.79 152.39 323.87 150.91 Z" />
<path fill="#3e3e3e" opacity="1.00" d=" M 407.84 158.95 C 416.15 155.20 425.35 151.90 434.56 153.50 C 436.25 154.80 438.45 156.57 437.63 159.01 C 436.27 167.36 434.25 175.61 433.27 184.03 C 430.16 185.98 427.08 189.30 423.02 188.10 C 419.12 187.11 414.49 186.54 412.04 182.95 C 407.06 176.26 404.56 166.86 407.84 158.95 Z" />
<path fill="#f4722b" opacity="1.00" d=" M 450.21 178.05 C 455.80 178.61 461.37 179.34 466.99 179.58 C 482.01 181.28 496.98 183.48 512.00 185.26 L 512.00 232.23 C 492.49 228.64 472.88 225.62 453.43 221.73 C 452.32 207.17 451.26 192.61 450.21 178.05 Z" />
<path fill="#3e3e3e" opacity="1.00" d=" M 423.97 211.98 C 428.03 205.59 432.59 199.54 436.37 192.97 C 436.47 198.33 438.13 204.27 435.00 209.10 C 430.59 217.27 426.07 225.71 419.09 232.00 C 412.85 238.57 406.23 244.90 398.41 249.54 C 395.39 251.35 391.90 251.99 388.42 251.74 C 396.67 244.23 404.43 236.15 411.50 227.51 C 415.71 222.37 420.49 217.67 423.97 211.98 Z" />
<path fill="#f5e5c1" opacity="1.00" d=" M 263.90 203.82 C 267.83 202.39 272.86 200.86 276.49 203.78 C 280.17 206.63 284.01 209.28 287.76 212.05 C 292.65 215.50 294.75 221.37 298.53 225.81 C 299.32 230.37 296.96 234.46 295.31 238.52 C 289.10 254.30 282.79 270.03 276.55 285.78 C 274.90 289.90 272.04 294.43 274.17 298.93 C 275.80 303.78 276.33 308.94 276.30 314.04 C 276.28 330.71 276.57 347.39 276.36 364.06 C 276.48 366.38 275.06 368.31 273.11 369.42 C 272.41 369.44 270.99 369.50 270.29 369.53 C 270.56 374.71 270.43 379.93 271.53 385.03 C 272.63 388.52 269.80 391.54 270.16 395.00 C 269.94 400.28 273.90 405.29 271.85 410.55 C 270.03 414.17 268.79 418.14 266.39 421.44 C 263.66 424.16 260.36 426.23 257.24 428.47 C 254.13 428.48 251.02 428.45 247.92 428.18 C 245.03 427.27 241.98 427.20 238.98 427.36 C 237.06 429.94 234.91 432.36 232.51 434.50 C 230.39 436.43 227.34 436.36 224.66 436.58 C 222.39 442.25 222.67 448.58 220.74 454.35 C 218.41 458.34 214.66 461.24 211.48 464.53 C 208.46 467.69 203.76 467.49 200.02 469.28 C 196.69 469.66 193.33 469.60 190.00 469.25 C 188.99 468.87 187.98 468.49 186.96 468.13 C 183.63 466.68 180.46 464.85 177.07 463.55 C 170.61 462.05 164.27 464.61 157.97 465.60 C 150.80 465.44 144.04 462.52 137.07 461.13 C 125.38 458.07 113.68 455.04 101.94 452.20 C 97.39 451.06 93.84 447.88 90.11 445.25 C 87.91 445.31 85.68 445.44 83.58 446.20 C 77.13 448.34 70.53 450.01 64.07 452.16 C 62.02 452.70 59.98 453.27 57.94 453.84 C 52.63 455.44 47.41 457.39 41.98 458.52 C 39.03 459.12 36.48 457.27 34.08 455.87 C 30.11 453.43 25.29 451.80 22.78 447.59 C 20.71 444.09 18.08 440.85 16.55 437.08 C 16.30 431.77 19.62 427.07 20.86 422.01 C 24.34 412.38 27.60 402.68 31.19 393.09 C 31.99 390.00 33.42 387.12 34.35 384.08 C 34.93 381.33 33.61 378.67 32.81 376.10 C 32.22 374.08 31.64 372.07 31.12 370.04 C 28.90 364.59 28.03 358.84 28.18 352.98 C 26.99 348.72 27.55 344.22 27.26 339.86 L 26.76 339.08 C 26.78 332.05 25.82 325.03 26.36 318.00 C 26.86 307.65 29.05 297.39 28.49 287.02 C 24.95 277.90 21.94 268.57 18.43 259.43 C 17.28 255.98 15.33 252.71 15.25 248.99 C 15.07 245.23 15.94 241.52 16.84 237.90 C 18.26 235.35 20.58 233.45 22.30 231.10 C 24.99 227.52 29.36 226.00 32.99 223.60 C 37.26 223.18 41.59 223.42 45.54 225.23 C 54.33 226.64 63.15 227.96 72.00 228.86 C 76.78 229.73 82.42 231.84 86.72 228.54 C 92.02 225.06 98.30 222.66 102.30 217.52 C 103.97 215.11 104.42 210.89 107.92 210.45 C 118.58 209.77 129.27 209.21 139.96 209.40 C 149.63 209.58 159.36 209.00 168.96 210.49 C 181.37 212.48 193.75 214.70 206.13 216.82 C 208.57 217.00 210.17 218.98 211.66 220.69 C 212.76 220.42 213.86 220.14 214.95 219.84 C 217.93 218.83 220.94 217.90 223.91 216.87 C 224.92 216.53 225.94 216.18 226.95 215.82 C 230.01 214.99 233.00 213.93 236.00 212.88 C 245.33 209.97 254.59 206.81 263.90 203.82 Z" />
<path fill="#3e3e3e" opacity="1.00" d=" M 266.87 210.76 C 268.29 210.30 269.72 209.87 271.17 209.49 C 274.77 212.29 278.51 214.90 282.21 217.57 C 285.93 220.09 287.93 224.27 290.38 227.89 C 290.63 231.80 287.92 235.21 286.77 238.86 C 285.58 242.25 284.20 245.57 282.81 248.89 C 281.69 251.98 280.38 255.00 279.17 258.06 C 277.77 261.71 276.33 265.35 274.87 268.97 C 273.70 272.05 272.34 275.04 271.22 278.13 C 269.29 282.71 267.75 287.46 265.56 291.93 C 264.89 295.37 265.82 298.77 266.93 302.00 C 267.46 303.57 267.65 305.21 267.81 306.85 C 264.44 306.28 261.26 305.00 257.99 304.10 C 253.27 303.11 248.85 301.03 245.72 297.27 C 238.30 291.33 231.67 284.52 224.59 278.22 C 221.74 274.81 219.30 271.05 216.04 268.01 C 208.08 260.65 202.89 251.02 196.96 242.12 C 194.86 237.65 194.28 232.68 192.72 228.04 C 192.61 227.16 192.41 225.41 192.31 224.53 C 196.55 225.37 200.86 225.80 205.11 226.57 C 207.46 229.58 211.63 228.95 214.80 227.81 C 222.79 225.00 230.92 222.62 238.93 219.85 C 248.27 216.92 257.55 213.77 266.87 210.76 Z" />
<path fill="#3e3e3e" opacity="1.00" d=" M 111.39 217.68 C 117.32 216.90 123.29 216.57 129.27 216.66 C 130.50 222.85 130.82 229.24 132.78 235.27 C 135.82 242.85 138.93 250.40 141.82 258.04 C 143.79 263.62 148.10 267.83 151.43 272.58 C 158.30 281.06 164.64 289.95 171.50 298.43 C 181.52 309.74 191.98 320.65 202.14 331.84 C 208.80 339.62 217.58 345.10 225.15 351.91 C 229.34 355.02 232.91 359.17 237.94 360.97 C 241.03 362.16 244.04 363.55 247.10 364.82 C 251.82 367.63 257.54 365.47 262.34 367.70 C 262.43 372.13 262.27 376.62 263.32 380.97 C 263.38 382.40 264.16 384.61 262.55 385.49 C 258.43 388.05 254.14 391.35 249.06 391.30 C 242.21 389.64 236.75 384.92 230.98 381.14 C 221.23 374.70 212.32 367.11 203.11 359.95 C 198.85 356.56 194.38 353.37 190.67 349.35 C 181.92 340.10 172.96 331.03 163.99 322.00 C 155.75 314.43 149.96 304.75 143.06 296.04 C 141.03 293.44 138.85 290.78 138.29 287.42 C 135.42 284.76 133.62 281.29 131.95 277.82 C 125.64 266.19 119.54 254.45 113.26 242.81 C 111.61 236.96 108.88 231.18 109.38 224.96 C 109.42 222.47 108.89 219.23 111.39 217.68 Z" />
<path fill="#3e3e3e" opacity="1.00" d=" M 362.45 217.60 C 369.50 216.22 376.58 219.13 382.65 222.51 C 387.68 225.07 392.55 229.33 393.55 235.15 C 388.77 241.10 382.60 245.91 377.79 251.90 C 374.06 253.60 369.52 256.16 365.52 253.76 C 362.26 251.81 358.24 249.29 358.38 244.96 C 358.73 238.03 358.67 231.09 358.82 224.16 C 358.94 221.59 359.47 218.26 362.45 217.60 Z" />
<path fill="#3e3e3e" opacity="1.00" d=" M 418.66 243.38 C 426.07 236.99 430.98 228.45 437.05 220.90 C 439.78 226.61 442.19 232.48 445.03 238.14 C 447.43 241.99 442.64 244.84 440.55 247.50 C 433.17 246.80 425.97 244.63 418.66 243.38 Z" />
<path fill="#3e3e3e" opacity="1.00" d=" M 335.09 225.11 C 336.44 229.39 337.66 233.75 339.93 237.67 C 336.86 237.58 333.23 238.16 331.18 235.28 C 332.73 232.00 334.37 228.70 335.09 225.11 Z" />
<path fill="#3e3e3e" opacity="1.00" d=" M 23.69 241.65 C 26.66 238.12 29.17 233.35 34.03 232.27 C 44.84 231.79 55.36 234.94 66.08 235.72 C 70.63 236.77 75.40 236.60 79.81 238.28 C 84.28 240.17 89.25 238.82 93.87 239.98 C 96.55 240.59 99.32 240.64 102.07 240.77 C 102.64 240.97 103.79 241.37 104.36 241.57 C 105.71 246.06 108.37 249.95 110.38 254.13 C 110.89 257.44 109.65 260.70 109.53 263.99 C 109.55 268.24 107.68 272.17 105.67 275.80 C 101.38 282.42 97.40 289.26 92.48 295.44 C 85.96 302.73 77.96 308.58 69.43 313.30 C 65.95 315.27 61.88 315.65 57.95 315.69 C 56.65 315.89 55.78 314.79 54.89 314.08 C 49.77 309.64 47.02 303.31 43.60 297.62 C 41.06 293.08 38.00 288.79 36.19 283.88 C 34.80 280.90 33.29 277.96 32.20 274.85 C 30.66 271.30 29.10 267.76 27.79 264.11 C 26.25 260.36 24.65 256.64 23.14 252.88 C 21.45 249.22 23.85 245.43 23.69 241.65 Z" />
<path fill="#f4722b" opacity="1.00" d=" M 384.43 268.53 C 395.05 265.26 405.27 260.69 415.95 257.67 C 424.54 259.81 432.15 265.39 441.06 266.19 C 446.72 266.68 449.20 260.94 453.10 258.15 C 461.90 258.56 470.43 260.96 479.01 262.75 C 490.00 265.23 501.05 267.43 512.00 270.05 L 512.00 306.12 C 464.90 293.33 417.74 280.73 370.59 268.13 C 375.17 268.57 379.87 269.78 384.43 268.53 Z" />
<path fill="#3e3e3e" opacity="1.00" d=" M 35.64 305.66 C 39.55 310.90 40.50 317.98 45.49 322.49 C 50.29 327.10 52.10 333.75 56.17 338.88 C 63.38 348.66 70.37 358.59 77.59 368.35 C 85.71 378.25 93.88 388.12 102.06 397.98 C 107.33 403.72 113.49 408.54 119.13 413.90 C 124.56 418.13 128.91 423.60 134.73 427.35 C 141.31 433.48 148.47 438.94 155.19 444.92 C 157.19 446.66 159.41 448.11 161.76 449.34 C 163.81 450.35 164.68 452.65 166.22 454.24 C 164.65 454.49 163.38 455.40 162.21 456.43 C 156.87 457.37 152.01 454.68 146.98 453.45 C 138.85 451.02 130.72 448.52 122.75 445.60 C 117.80 443.87 114.21 439.91 110.16 436.79 C 100.73 428.87 91.74 420.44 82.74 412.04 C 80.26 409.91 77.66 407.89 75.64 405.30 C 70.42 398.58 65.20 391.88 60.00 385.15 C 52.31 376.06 47.55 365.02 41.26 355.01 C 38.28 350.48 37.48 345.04 36.23 339.87 C 32.35 332.14 33.76 323.24 34.40 314.95 C 34.53 311.82 35.16 308.75 35.64 305.66 Z" />
<path fill="#3e3e3e" opacity="1.00" d=" M 167.72 374.57 C 173.89 372.37 180.41 371.27 186.92 370.67 C 191.34 370.45 195.93 370.14 200.15 371.74 C 202.44 372.58 204.90 372.49 207.30 372.53 C 210.58 375.59 214.06 378.44 217.66 381.13 C 221.01 383.24 221.23 387.59 222.57 390.97 C 225.07 397.13 222.77 403.74 221.80 409.96 C 221.52 411.63 221.32 413.31 221.15 415.01 C 220.70 416.99 220.30 418.98 219.88 420.98 C 219.67 424.42 218.51 427.71 218.30 431.16 C 215.36 436.26 215.56 442.43 214.27 448.05 C 213.97 452.54 209.80 455.02 207.09 458.10 C 204.31 461.27 199.69 460.92 196.01 462.30 C 191.23 461.71 186.65 460.04 182.57 457.50 C 181.67 456.31 180.95 455.00 180.15 453.75 C 178.18 453.44 176.32 452.67 174.82 451.35 C 164.38 442.41 153.72 433.71 143.35 424.67 C 141.25 422.87 139.94 420.41 138.41 418.16 C 138.56 416.44 138.78 414.72 139.12 413.04 C 139.36 409.28 139.55 405.49 140.64 401.86 C 144.03 397.17 147.12 392.26 150.62 387.65 C 155.49 382.38 160.81 377.04 167.72 374.57 Z" />
<path fill="#3e3e3e" opacity="1.00" d=" M 39.77 391.88 C 40.54 389.98 41.27 388.07 41.89 386.13 C 44.81 391.76 48.46 396.97 51.50 402.53 C 53.65 406.55 57.00 409.67 59.78 413.20 C 66.68 422.92 75.77 430.78 84.99 438.19 C 80.55 439.05 76.36 440.82 71.97 441.87 C 62.89 444.65 53.76 447.27 44.69 450.10 C 42.85 450.68 40.63 451.06 38.92 449.89 C 36.29 448.26 33.44 446.94 30.98 445.06 C 28.28 442.54 27.02 438.92 24.63 436.13 C 24.65 435.39 24.67 434.66 24.70 433.94 C 28.86 423.45 32.33 412.69 36.16 402.07 C 37.47 398.71 38.53 395.26 39.77 391.88 Z" />
<path fill="#3e3e3e" opacity="1.00" d=" M 258.73 398.71 C 259.67 397.76 260.96 397.50 262.22 397.28 C 262.61 400.85 264.41 404.16 264.50 407.76 C 263.70 410.17 262.36 412.35 261.39 414.69 C 260.27 417.49 257.40 418.91 255.19 420.73 C 250.09 420.60 244.98 420.36 239.98 419.33 C 245.97 412.24 251.50 404.62 258.73 398.71 Z" />
<path fill="#f4722b" opacity="1.00" d=" M 273.74 434.77 C 276.70 429.06 278.95 423.00 281.76 417.21 C 295.15 420.43 308.51 423.74 321.89 426.99 C 365.42 437.86 409.42 446.68 453.30 455.96 C 465.34 458.64 477.57 460.54 489.48 463.78 C 496.85 466.39 504.93 466.68 512.00 470.17 L 512.00 512.00 L 167.36 512.00 C 152.69 507.57 138.70 501.16 124.36 495.78 C 100.99 486.52 77.55 477.43 54.22 468.06 C 62.91 465.28 71.62 462.53 80.40 460.06 C 83.19 463.76 87.66 465.24 92.01 466.15 C 109.79 470.64 127.55 475.25 145.32 479.79 C 153.56 481.98 161.75 478.23 169.99 478.27 C 177.18 480.01 184.07 482.91 191.26 484.68 C 196.85 486.04 202.39 483.89 207.77 482.59 C 212.66 481.22 217.69 480.33 222.49 478.63 C 225.39 477.73 227.16 475.11 228.54 472.58 C 233.17 463.89 237.72 455.14 242.59 446.58 C 250.36 444.29 258.17 442.15 265.95 439.91 C 268.95 439.02 272.28 437.79 273.74 434.77 Z" />
</svg>
