<?xml version="1.0" encoding="UTF-8" ?>
<!DOCTYPE svg PUBLIC "-//W3C//DTD SVG 1.1//EN" "http://www.w3.org/Graphics/SVG/1.1/DTD/svg11.dtd">
<svg width="512pt" height="512pt" viewBox="0 0 512 512" version="1.1" xmlns="http://www.w3.org/2000/svg">
<path fill="#f4722b" opacity="1.00" d=" M 0.00 0.00 L 512.00 0.00 L 512.00 4.87 C 466.47 93.75 421.06 182.70 375.64 271.64 C 374.93 273.09 373.84 274.46 372.04 274.22 C 298.01 278.93 223.97 283.64 149.94 288.41 C 99.86 193.37 50.14 98.14 0.00 3.13 L 0.00 0.00 Z" />
<path fill="#3e3e3e" opacity="1.00" d=" M 0.00 3.13 C 50.14 98.14 99.86 193.37 149.94 288.41 C 223.97 283.64 298.01 278.93 372.04 274.22 C 373.84 274.46 374.93 273.09 375.64 271.64 C 421.06 182.70 466.47 93.75 512.00 4.87 L 512.00 512.00 L 0.00 512.00 L 0.00 3.13 Z" />
<path fill="#3e3e3e" opacity="1.00" d=" M 198.72 7.74 C 199.22 6.38 200.66 5.83 202.00 5.71 C 207.97 6.79 212.49 11.18 217.88 13.60 C 219.23 13.49 220.56 13.26 221.88 12.93 C 242.73 7.65 264.95 7.86 285.73 13.39 C 290.18 14.57 295.12 14.31 299.09 16.95 C 302.47 19.07 306.06 20.85 309.80 22.29 C 316.51 20.38 323.06 17.73 329.97 16.59 C 332.63 16.38 337.20 16.13 337.27 19.88 C 337.77 26.52 337.13 33.19 337.47 39.84 C 337.36 41.38 338.65 42.36 339.59 43.37 C 357.24 59.90 369.66 82.02 374.28 105.78 C 374.91 108.51 374.83 111.84 377.36 113.65 C 383.02 118.49 389.84 122.29 393.77 128.88 C 388.11 136.73 381.43 143.78 375.37 151.32 C 373.18 153.99 372.77 157.53 371.78 160.73 C 367.60 175.06 360.54 188.52 351.30 200.23 C 349.67 202.32 347.74 204.18 346.31 206.42 C 344.59 217.87 343.52 229.42 342.92 240.99 C 342.51 245.21 343.04 250.31 339.38 253.30 C 337.11 255.28 337.35 259.22 334.31 260.41 C 330.87 261.83 327.31 259.89 324.01 258.97 C 310.94 254.92 297.85 250.86 284.67 247.18 C 283.18 246.57 282.20 245.19 281.04 244.14 C 259.37 248.97 236.43 248.23 215.23 241.54 C 212.52 240.79 209.56 239.20 206.82 240.75 C 195.79 245.46 184.69 250.00 173.67 254.72 C 171.46 255.63 168.94 256.49 166.59 255.55 C 165.37 253.85 165.25 251.68 164.91 249.69 C 163.55 238.13 162.05 226.59 160.69 215.04 C 160.17 211.38 160.51 207.16 157.78 204.28 C 153.04 198.88 149.06 192.91 145.16 186.89 C 141.69 182.82 140.51 177.52 138.24 172.80 C 131.82 157.79 128.75 141.36 129.27 125.04 C 129.17 123.49 129.47 121.77 128.66 120.37 C 125.39 114.97 120.96 110.33 117.97 104.76 C 117.07 103.34 118.26 101.44 119.57 100.72 C 124.15 97.98 129.43 96.63 133.99 93.85 C 134.74 92.85 135.13 91.65 135.58 90.51 C 144.92 62.99 165.08 39.50 190.44 25.42 C 191.55 24.63 193.07 24.10 193.64 22.76 C 195.73 17.89 196.44 12.53 198.72 7.74 Z" />
<path fill="#f5e5c1" opacity="1.00" d=" M 202.70 15.60 C 204.11 14.95 205.75 13.53 207.28 14.76 C 216.29 20.38 225.22 26.15 234.35 31.56 C 236.84 32.64 239.14 34.65 241.94 34.70 C 256.09 33.57 270.48 34.92 284.01 39.31 C 294.61 35.35 305.26 31.53 315.84 27.53 C 320.84 25.66 325.86 23.18 331.33 23.33 C 331.36 30.53 331.50 37.72 331.60 44.92 C 332.08 52.61 333.69 60.23 333.72 67.96 C 333.88 71.66 333.64 75.80 336.10 78.87 C 340.72 85.33 344.27 92.52 347.02 99.97 C 347.60 101.29 347.97 102.89 349.26 103.73 C 361.53 112.11 375.01 118.86 386.07 128.91 C 377.90 138.72 370.07 148.99 359.95 156.91 C 355.29 160.86 349.03 163.84 346.95 169.99 C 344.44 176.76 341.24 183.28 337.27 189.31 C 335.51 191.83 334.74 194.88 334.56 197.91 C 333.81 210.27 332.65 222.61 332.21 234.99 C 331.91 239.54 331.99 244.21 330.50 248.59 C 324.71 247.98 319.47 245.32 314.02 243.51 C 303.00 239.68 292.18 235.23 281.05 231.74 C 272.42 233.35 263.79 235.41 254.93 235.36 C 242.91 235.66 230.86 233.69 219.51 229.71 C 217.44 228.77 215.34 229.77 213.39 230.48 C 202.00 234.84 190.56 239.04 179.16 243.36 C 177.78 243.80 176.40 244.41 174.92 244.35 C 173.24 243.61 172.80 241.73 172.69 240.08 C 171.81 229.39 170.72 218.72 169.87 208.02 C 169.46 203.05 170.11 198.04 169.46 193.08 C 169.11 189.87 167.00 187.31 165.48 184.59 C 157.82 171.29 153.43 156.17 152.47 140.87 C 152.53 139.17 151.35 137.88 150.36 136.64 C 144.37 129.59 138.36 122.56 132.77 115.18 C 130.29 111.83 127.49 108.65 125.86 104.76 C 138.74 99.07 151.53 93.18 164.28 87.24 C 170.53 75.73 179.00 65.47 189.12 57.15 C 192.07 55.14 192.23 51.34 193.32 48.24 C 196.39 37.35 200.35 26.69 202.70 15.60 Z" />
<path fill="#3e3e3e" opacity="1.00" d=" M 196.82 60.05 C 201.13 47.81 205.14 35.46 209.46 23.22 C 217.27 28.51 225.43 33.28 233.03 38.87 C 237.59 42.05 242.75 44.34 247.07 47.87 C 248.33 49.24 248.83 51.83 247.10 53.08 C 241.34 58.60 233.77 61.70 226.42 64.51 C 217.34 67.63 207.77 70.27 198.09 69.63 C 196.20 69.75 195.28 67.60 195.14 66.02 C 195.40 63.96 196.16 62.01 196.82 60.05 Z" />
<path fill="#3e3e3e" opacity="1.00" d=" M 286.43 45.57 C 299.43 41.42 312.31 36.87 325.35 32.87 C 326.41 47.96 327.52 63.04 328.58 78.13 C 327.70 79.12 326.83 80.11 325.95 81.10 C 317.71 80.13 310.34 75.99 303.41 71.70 C 295.86 66.75 288.60 61.09 282.98 53.98 C 281.97 52.40 280.06 50.41 281.54 48.54 C 282.37 46.60 284.68 46.27 286.43 45.57 Z" />
<path fill="#3e3e3e" opacity="1.00" d=" M 237.57 65.59 C 245.56 59.71 253.91 54.33 261.94 48.49 C 267.82 55.85 273.95 63.02 279.73 70.46 C 282.88 76.07 286.21 82.44 284.79 89.09 C 283.36 98.76 275.22 106.39 266.00 108.83 C 252.58 112.83 236.10 106.80 230.19 93.69 C 225.57 84.11 229.14 71.84 237.57 65.59 Z" />
<path fill="#3e3e3e" opacity="1.00" d=" M 174.59 89.54 C 177.06 87.90 180.70 89.99 180.57 92.95 C 181.79 104.13 179.48 115.38 176.06 125.99 C 174.12 131.42 172.14 137.02 168.55 141.61 C 167.03 144.01 163.52 142.73 162.28 140.69 C 153.47 129.48 144.63 118.28 135.87 107.02 C 148.80 101.24 161.66 95.32 174.59 89.54 Z" />
<path fill="#3e3e3e" opacity="1.00" d=" M 335.79 111.58 C 336.47 109.84 336.64 107.05 338.97 106.79 C 340.77 106.15 342.35 107.29 343.78 108.23 C 354.85 115.86 365.97 123.42 377.06 131.02 C 376.63 134.66 373.21 136.51 370.78 138.77 C 362.47 146.13 354.15 153.49 345.83 160.84 C 344.39 162.46 342.23 162.00 340.33 161.80 C 336.26 154.54 334.87 146.16 334.25 137.97 C 333.35 129.17 333.81 120.20 335.79 111.58 Z" />
<path fill="#3e3e3e" opacity="1.00" d=" M 192.56 134.48 C 197.07 129.92 202.32 125.16 209.01 124.53 C 216.64 123.51 224.40 126.83 229.56 132.41 C 239.80 143.11 240.93 161.69 231.12 173.03 C 225.82 179.36 216.94 182.75 208.83 180.63 C 202.97 179.74 198.30 175.84 193.99 172.06 C 188.16 166.94 181.92 162.28 176.51 156.71 C 181.81 149.27 187.13 141.83 192.56 134.48 Z" />
<path fill="#3e3e3e" opacity="1.00" d=" M 264.24 156.93 C 266.54 143.29 278.79 131.29 292.99 131.42 C 303.70 131.23 313.31 139.76 315.39 150.09 C 317.26 159.82 318.70 169.64 320.46 179.39 C 311.58 181.57 302.74 183.86 293.86 186.00 C 287.22 186.85 279.77 186.94 274.10 182.85 C 265.84 177.33 262.25 166.47 264.24 156.93 Z" />
<path fill="#3e3e3e" opacity="1.00" d=" M 175.27 191.97 C 174.80 189.71 175.91 187.65 177.91 186.58 C 184.09 187.13 189.80 189.92 195.19 192.82 C 204.29 197.96 212.87 204.27 219.78 212.16 C 221.09 214.17 223.97 216.59 222.14 219.12 C 221.44 220.55 219.79 220.96 218.44 221.51 C 205.13 225.95 191.81 230.36 178.53 234.90 C 177.46 220.59 176.28 206.28 175.27 191.97 Z" />
<path fill="#3e3e3e" opacity="1.00" d=" M 305.04 199.08 C 312.03 195.53 319.33 191.88 327.31 191.54 C 327.39 197.37 326.55 203.16 326.67 208.99 C 326.80 219.71 325.50 230.36 325.60 241.07 C 310.49 235.73 295.42 230.26 280.41 224.65 C 280.39 222.83 280.36 221.02 280.29 219.21 C 286.48 210.35 295.76 204.30 305.04 199.08 Z" />
<path fill="#f4722b" opacity="1.00" d=" M 155.13 298.49 C 226.98 292.41 298.88 286.86 370.75 281.03 C 366.88 288.34 363.63 296.05 359.21 303.03 C 294.85 308.65 230.41 313.68 166.03 319.08 C 162.36 312.24 158.83 305.32 155.13 298.49 Z" />
<path fill="#f4722b" opacity="1.00" d=" M 170.39 327.53 C 231.79 322.25 293.25 317.48 354.68 312.50 C 352.58 316.79 350.36 321.03 348.20 325.30 C 290.46 329.02 232.68 332.29 174.93 336.03 C 173.40 333.20 171.90 330.37 170.39 327.53 Z" />
<path fill="#f5e5c1" opacity="1.00" d=" M 331.95 338.37 C 376.68 333.68 421.40 328.93 466.13 324.22 C 467.54 325.76 468.93 327.32 470.34 328.86 C 466.76 353.50 463.68 378.21 460.36 402.88 C 459.71 406.07 460.30 410.07 457.42 412.31 C 453.28 415.92 449.10 419.51 444.77 422.91 C 437.22 421.03 429.72 418.95 422.17 417.08 C 425.03 408.75 428.34 400.58 431.18 392.24 C 428.04 391.40 424.90 390.55 421.77 389.67 C 418.49 398.01 415.42 406.44 412.17 414.79 C 409.52 413.95 406.85 413.16 404.19 412.35 C 407.57 404.45 410.23 396.27 412.73 388.06 C 409.91 387.49 407.12 386.82 404.29 386.31 C 401.80 394.49 398.93 402.55 396.26 410.68 C 393.63 409.82 391.00 408.98 388.36 408.18 C 390.41 400.07 392.58 391.99 394.63 383.88 C 391.60 383.23 388.58 382.54 385.55 381.93 C 383.36 389.85 381.08 397.74 378.97 405.68 C 362.94 401.93 347.13 397.09 331.02 393.76 C 311.21 395.20 291.38 396.53 271.60 398.27 C 271.32 395.79 271.04 393.31 270.72 390.84 C 282.33 385.03 293.99 379.33 305.63 373.60 C 306.68 373.03 307.76 372.48 308.64 371.65 C 310.94 365.96 311.26 359.56 314.11 354.09 C 317.37 350.06 321.42 346.75 324.95 342.94 C 326.96 341.03 328.88 338.38 331.95 338.37 Z" />
<path fill="#f5e5c1" opacity="1.00" d=" M 43.31 343.32 C 45.49 342.93 47.72 343.07 49.93 343.09 C 91.98 343.99 134.01 345.35 176.06 346.36 C 179.18 346.21 181.73 348.23 184.34 349.64 C 188.75 352.28 193.36 354.57 197.71 357.30 C 198.94 357.91 199.22 359.35 199.68 360.52 C 201.10 365.01 202.59 369.49 203.94 374.02 C 214.23 381.02 225.59 386.33 236.04 393.06 C 237.38 395.47 237.73 398.33 237.98 401.05 C 237.23 402.53 235.71 403.51 234.05 403.49 C 213.67 404.90 193.27 406.14 172.89 407.56 C 169.50 407.77 166.32 409.07 163.15 410.19 C 152.39 414.01 141.59 417.73 130.84 421.60 C 128.21 412.94 125.50 404.31 122.92 395.64 C 119.64 396.71 116.40 397.87 113.19 399.10 C 115.89 407.78 118.51 416.49 121.29 425.15 C 118.79 425.96 116.28 426.75 113.78 427.58 C 110.93 419.13 107.48 410.91 104.40 402.56 C 101.90 403.73 99.40 404.89 96.90 406.04 C 99.42 414.32 102.45 422.46 104.29 430.93 C 101.71 431.84 99.14 432.76 96.56 433.70 C 93.67 425.38 91.15 416.95 88.33 408.61 C 84.36 410.04 80.37 411.40 76.39 412.78 C 79.51 420.98 82.44 429.26 85.59 437.46 C 80.61 439.16 75.71 441.14 70.68 442.68 C 69.21 443.19 67.93 441.91 66.68 441.36 C 61.60 438.21 56.48 435.11 51.46 431.87 C 48.26 404.54 44.85 377.23 41.57 349.90 C 41.47 347.61 40.63 344.46 43.31 343.32 Z" />
<path fill="#f5e5c1" opacity="1.00" d=" M 236.99 372.15 C 253.98 371.08 271.02 370.81 287.99 369.43 C 288.21 372.00 288.42 374.57 288.68 377.14 C 281.30 380.43 274.24 384.54 266.44 386.80 C 264.90 387.46 264.71 389.48 264.86 390.96 C 265.15 395.22 265.45 399.48 265.76 403.74 C 272.26 403.54 278.73 402.88 285.23 402.55 C 285.12 406.02 284.90 409.48 284.58 412.93 C 261.42 414.73 238.30 416.98 215.14 418.86 C 215.59 415.52 214.15 410.10 218.50 408.94 C 225.34 408.41 232.22 408.36 239.07 408.14 C 240.23 407.35 241.40 406.57 242.57 405.79 C 243.31 399.85 243.85 393.89 244.46 387.94 C 235.63 383.33 226.71 378.89 217.83 374.38 C 218.50 373.70 219.18 373.04 219.87 372.38 C 225.57 372.96 231.29 372.31 236.99 372.15 Z" />
<path fill="#f5e5c1" opacity="1.00" d=" M 190.46 424.45 C 232.61 420.86 274.77 417.16 316.96 413.97 C 316.93 415.64 316.94 417.33 316.79 419.01 C 274.78 422.72 232.71 425.98 190.68 429.54 C 190.61 427.84 190.53 426.14 190.46 424.45 Z" />
<path fill="#f5e5c1" opacity="1.00" d=" M 328.24 419.81 C 347.45 427.50 366.48 435.64 385.64 443.46 C 389.51 445.06 393.50 446.68 396.71 449.45 C 398.53 452.33 399.99 455.61 400.60 458.97 C 400.13 464.51 399.13 470.01 398.30 475.52 C 375.48 471.59 352.67 467.66 329.85 463.74 C 326.90 463.19 323.85 462.95 320.99 462.02 C 317.44 459.26 314.75 455.54 311.61 452.34 C 312.38 447.23 312.40 442.03 313.27 436.93 C 313.48 435.27 314.86 434.16 315.86 432.94 C 319.98 428.56 324.12 424.20 328.24 419.81 Z" />
<path fill="#f5e5c1" opacity="1.00" d=" M 192.95 432.59 C 234.52 429.24 276.06 425.55 317.64 422.40 C 316.08 428.71 310.07 432.52 307.55 438.34 C 306.73 442.83 306.77 447.43 306.37 451.97 C 306.26 454.62 305.69 457.48 306.97 459.96 C 310.65 467.86 314.55 475.65 318.05 483.62 C 306.56 483.58 295.08 483.47 283.59 483.49 C 281.28 480.20 278.75 476.96 275.53 474.51 C 272.20 472.84 268.61 471.66 264.98 470.82 C 260.30 470.35 255.63 471.21 250.95 471.27 C 244.35 471.46 237.58 472.48 231.76 475.78 C 228.82 477.83 227.66 481.41 226.40 484.59 C 215.51 486.21 204.63 487.83 193.73 489.41 C 193.11 480.58 199.72 473.44 201.26 465.04 C 201.45 457.70 201.19 450.34 200.87 443.00 C 201.14 438.09 195.60 435.99 192.95 432.59 Z" />
<path fill="#f5e5c1" opacity="1.00" d=" M 122.83 452.58 C 142.38 445.60 161.93 438.63 181.37 431.39 C 186.44 435.15 191.41 439.05 196.41 442.91 C 196.32 448.56 196.68 454.28 195.70 459.88 C 192.71 464.90 188.58 469.14 184.68 473.46 C 160.28 476.20 135.90 479.15 111.50 481.86 C 111.86 475.92 111.74 469.92 112.59 464.03 C 115.16 459.67 117.50 454.06 122.83 452.58 Z" />
<path fill="#f5e5c1" opacity="1.00" d=" M 370.39 474.24 C 375.68 475.14 380.96 476.20 386.29 476.94 C 386.49 478.51 386.69 480.08 386.89 481.66 C 381.90 481.75 376.92 481.89 371.93 481.90 C 371.43 479.34 370.91 476.78 370.39 474.24 Z" />
<path fill="#f5e5c1" opacity="1.00" d=" M 145.13 482.23 C 149.72 481.57 153.78 484.28 157.55 486.49 C 145.72 487.59 133.85 488.28 122.01 489.35 C 117.74 489.81 113.27 489.32 109.21 491.02 C 111.34 488.25 114.97 486.82 118.11 485.44 C 127.08 484.12 136.13 483.35 145.13 482.23 Z" />
<path fill="#f5e5c1" opacity="1.00" d=" M 359.09 485.77 C 372.39 485.60 385.70 485.55 399.00 485.29 C 401.58 484.87 403.47 486.87 405.41 488.20 C 388.20 489.56 370.96 490.44 353.73 491.52 C 355.49 489.58 357.30 487.69 359.09 485.77 Z" />
<path fill="#f5e5c1" opacity="1.00" d=" M 193.75 493.85 C 204.40 492.29 215.05 490.72 225.70 489.11 C 225.84 493.60 226.04 498.10 226.08 502.60 C 215.66 503.39 205.26 504.28 194.83 504.89 C 194.51 501.20 194.16 497.52 193.75 493.85 Z" />
<path fill="#f5e5c1" opacity="1.00" d=" M 284.67 489.18 C 295.74 489.19 306.80 488.67 317.87 488.76 C 318.32 493.35 318.71 497.96 318.99 502.57 C 307.57 502.52 296.15 502.55 284.73 502.55 C 284.75 498.09 284.77 493.63 284.67 489.18 Z" />
<path fill="#f5e5c1" opacity="1.00" d=" M 106.30 493.19 C 125.50 491.73 144.74 490.70 163.96 489.56 C 164.79 494.44 165.75 499.29 166.67 504.15 C 146.41 504.71 126.15 505.16 105.89 505.67 C 105.85 501.51 105.84 497.33 106.30 493.19 Z" />
<path fill="#f5e5c1" opacity="1.00" d=" M 351.26 495.86 C 369.64 494.54 388.01 493.20 406.37 491.70 C 407.38 495.28 408.34 498.88 409.33 502.47 C 389.83 503.10 370.31 503.45 350.80 503.72 C 350.86 501.09 351.00 498.47 351.26 495.86 Z" />
</svg>
