<?xml version="1.0" encoding="UTF-8" ?>
<!DOCTYPE svg PUBLIC "-//W3C//DTD SVG 1.1//EN" "http://www.w3.org/Graphics/SVG/1.1/DTD/svg11.dtd">
<svg width="512pt" height="512pt" viewBox="0 0 512 512" version="1.1" xmlns="http://www.w3.org/2000/svg">
<path fill="#3e3e3e" opacity="1.00" d=" M 0.00 0.00 L 512.00 0.00 L 512.00 512.00 L 0.00 512.00 L 0.00 0.00 Z" />
<path fill="#f5e5c1" opacity="1.00" d=" M 131.19 16.17 C 133.45 11.85 138.53 10.66 142.23 7.96 C 145.50 7.98 148.83 7.88 152.01 8.80 C 158.19 12.05 163.15 17.47 166.17 23.75 C 168.72 29.66 166.54 36.07 165.35 42.02 C 164.87 45.95 164.01 49.93 164.42 53.91 C 165.39 55.49 166.83 56.72 167.84 58.27 C 167.92 59.90 167.68 61.53 167.56 63.15 C 170.96 65.72 174.19 68.58 177.95 70.63 C 181.91 69.70 184.48 66.16 187.85 64.11 C 193.54 67.66 199.21 71.23 204.81 74.91 C 204.42 78.72 203.59 82.46 202.68 86.18 C 206.14 89.15 210.25 91.49 212.97 95.24 C 214.48 98.53 215.39 102.06 216.67 105.45 C 222.08 115.16 227.63 124.84 231.97 135.09 C 235.28 140.60 237.30 146.76 240.71 152.21 C 244.66 159.56 248.64 166.90 252.81 174.13 C 255.64 179.12 256.71 184.83 259.08 190.03 C 261.18 194.59 261.93 199.59 262.44 204.54 C 263.15 205.31 263.85 206.08 264.56 206.86 C 265.26 206.88 266.65 206.91 267.34 206.93 C 268.89 217.59 270.39 228.25 271.85 238.92 C 272.62 250.20 275.98 261.06 277.86 272.16 C 278.51 276.71 279.89 281.11 280.81 285.61 C 279.78 286.99 278.58 288.30 277.99 289.95 C 274.62 299.30 271.71 308.82 268.48 318.22 C 265.27 316.62 261.99 315.18 258.67 313.86 C 259.18 311.38 259.75 308.90 260.18 306.40 C 257.32 307.78 254.79 309.71 252.32 311.68 C 251.55 307.87 250.89 304.03 250.25 300.20 C 254.41 296.12 258.43 291.88 262.87 288.11 C 261.17 283.43 259.19 278.84 256.70 274.53 C 254.12 276.45 251.07 278.55 250.85 282.09 C 250.30 287.89 247.36 292.95 244.28 297.75 C 242.44 297.22 240.60 296.70 238.76 296.17 C 236.55 286.85 236.17 277.27 235.18 267.79 C 234.58 262.46 241.59 258.79 239.49 253.39 C 237.55 247.90 236.23 242.20 234.20 236.75 C 231.22 230.01 228.37 223.22 225.05 216.65 C 225.88 215.71 227.28 214.83 226.64 213.37 C 225.53 208.59 224.29 203.82 222.58 199.22 C 220.00 192.42 220.55 184.98 219.00 177.97 C 216.95 173.28 213.75 169.20 211.39 164.66 C 208.78 160.85 207.05 156.27 203.39 153.30 C 202.32 158.47 201.82 163.73 201.18 168.96 C 200.71 172.74 202.40 176.29 202.97 179.96 C 204.15 186.68 204.96 193.46 206.17 200.18 C 203.81 201.25 201.46 202.33 199.14 203.49 C 201.38 210.71 202.28 218.24 203.72 225.65 C 204.25 227.41 203.10 228.96 202.32 230.42 C 204.27 240.33 206.91 250.09 208.96 259.97 C 212.01 278.33 214.50 296.83 215.28 315.44 C 201.99 321.29 190.99 332.11 185.48 345.60 C 183.25 350.99 181.97 356.71 180.56 362.36 C 176.94 363.26 173.40 364.44 169.94 365.82 C 170.67 361.64 167.18 358.86 165.85 355.26 C 164.26 351.28 162.24 347.48 160.64 343.51 C 159.27 339.07 160.53 334.26 159.19 329.80 C 158.02 324.62 155.47 319.93 153.41 315.08 C 148.55 314.26 143.55 314.14 138.69 315.05 C 136.59 323.69 132.48 332.16 133.63 341.26 C 129.27 347.65 127.77 355.58 123.02 361.72 C 128.05 378.31 134.40 394.71 136.37 412.04 C 132.61 412.70 128.85 413.32 125.10 414.00 C 123.54 425.44 123.82 437.08 122.31 448.52 C 120.14 449.90 117.54 450.37 115.14 451.19 C 105.74 442.15 97.50 432.03 88.00 423.10 C 86.14 421.07 83.25 421.33 80.76 421.40 C 80.76 419.88 80.77 418.37 80.79 416.86 C 77.96 415.06 75.15 413.22 72.46 411.22 C 74.26 404.65 74.54 397.68 77.41 391.43 C 78.61 389.44 76.68 387.58 76.02 385.77 C 78.36 375.45 81.82 365.36 83.85 354.98 C 81.99 343.56 78.62 332.33 78.26 320.68 C 75.96 320.32 73.62 320.18 71.37 319.59 C 69.43 317.62 67.84 314.94 68.40 312.08 C 69.26 300.37 71.11 288.77 72.03 277.07 C 70.27 276.16 68.39 275.43 66.81 274.23 C 68.19 259.65 69.12 245.02 70.96 230.49 C 76.22 230.00 81.54 229.67 86.79 230.51 C 88.26 223.37 88.70 216.07 89.75 208.87 C 86.83 207.67 83.99 206.31 81.14 204.97 C 82.36 200.50 84.78 196.44 85.91 191.96 C 85.61 184.96 83.51 178.16 83.16 171.14 C 84.32 169.94 85.47 168.73 86.60 167.50 C 85.77 163.27 85.04 159.02 84.08 154.81 C 82.47 156.35 81.08 158.12 80.07 160.11 C 76.96 166.18 73.07 171.82 70.03 177.93 C 68.23 185.29 69.09 193.21 66.24 200.35 C 64.70 205.12 62.52 209.89 62.26 214.93 C 62.66 215.36 63.46 216.22 63.86 216.64 C 60.49 224.93 55.92 232.73 53.40 241.36 C 51.97 246.23 49.84 250.94 49.06 255.98 C 49.54 260.07 53.78 262.78 54.06 266.94 C 53.28 276.75 52.17 286.54 50.17 296.19 C 48.36 296.72 46.55 297.23 44.73 297.75 C 43.27 295.06 41.69 292.44 40.21 289.77 C 38.40 286.61 38.55 282.82 37.54 279.40 C 36.43 277.23 34.15 276.02 32.28 274.59 C 30.24 279.04 27.56 283.27 26.26 288.04 C 30.45 292.02 34.71 295.95 38.69 300.16 C 38.08 303.96 37.51 307.76 36.82 311.55 C 34.36 309.59 31.87 307.56 28.88 306.45 C 30.42 311.21 30.44 316.20 29.72 321.12 C 26.89 321.17 24.05 321.20 21.22 321.23 C 19.22 313.68 16.38 306.40 14.11 298.94 C 12.55 294.28 11.36 289.29 7.95 285.58 C 11.23 272.90 13.82 260.08 16.14 247.20 C 18.23 233.86 19.71 220.44 21.34 207.04 C 22.78 206.79 24.21 206.53 25.64 206.29 C 27.69 199.98 28.47 193.32 31.12 187.20 C 33.18 178.53 38.59 171.31 42.39 163.39 C 45.31 157.39 48.85 151.71 51.72 145.68 C 57.87 132.16 64.57 118.89 71.97 106.00 C 74.23 102.27 75.46 98.06 77.12 94.06 C 78.91 91.27 81.68 89.26 84.14 87.08 C 88.23 83.04 93.03 79.81 97.14 75.78 C 98.20 71.47 101.85 68.72 104.97 65.89 C 105.98 64.93 107.31 64.44 108.63 64.07 C 110.53 66.99 114.09 66.24 116.90 65.41 C 119.16 64.90 120.35 62.75 121.74 61.12 C 118.98 56.52 116.47 51.77 114.66 46.71 C 118.00 45.34 121.30 43.88 124.63 42.50 C 125.46 43.82 126.53 44.95 127.96 45.61 C 126.75 39.17 124.70 32.62 125.99 26.01 C 126.99 22.39 129.39 19.40 131.19 16.17 Z" />
<path fill="#f5e5c1" opacity="1.00" d=" M 384.26 15.26 C 386.76 11.12 391.69 9.62 396.07 8.38 C 400.68 8.28 405.33 8.67 409.88 9.40 C 414.96 12.60 418.87 17.42 424.17 20.36 C 422.27 26.69 422.14 33.40 423.25 39.88 C 425.13 41.54 427.79 41.86 430.06 42.75 C 428.90 49.60 429.34 57.66 423.74 62.71 C 422.30 62.68 420.88 62.57 419.46 62.40 C 418.31 65.72 416.93 68.94 415.38 72.08 C 418.71 73.65 422.05 75.21 425.33 76.88 C 426.24 75.94 427.09 73.47 428.79 74.33 C 433.97 76.73 439.03 79.42 444.06 82.12 C 446.18 83.16 445.18 86.52 447.43 87.44 C 452.24 90.05 457.35 92.07 462.19 94.62 C 464.34 95.57 465.04 97.99 466.07 99.90 C 467.93 104.11 470.27 108.13 471.59 112.56 C 474.11 122.18 475.51 132.15 479.70 141.25 C 478.26 143.66 475.41 145.93 476.38 149.06 C 478.98 162.68 480.82 176.46 484.21 189.92 C 486.61 196.10 490.43 201.60 493.55 207.43 C 495.14 210.40 494.98 213.88 495.44 217.13 C 497.42 232.40 499.07 247.72 501.10 262.98 C 503.11 272.84 504.77 282.79 506.11 292.76 C 503.77 295.15 501.12 297.28 499.13 299.97 C 498.07 302.15 497.89 304.63 496.95 306.86 C 494.71 309.32 491.16 310.52 489.73 313.72 C 488.09 316.39 487.19 320.05 483.84 321.09 C 482.32 321.91 479.73 321.78 479.43 319.72 C 478.02 314.98 483.31 311.63 482.75 306.99 C 482.31 302.93 480.81 299.06 479.66 295.17 C 478.42 296.14 477.74 297.49 477.44 299.01 C 475.69 302.16 473.62 306.19 469.41 305.98 C 470.11 303.25 470.88 300.53 471.69 297.83 C 471.22 295.57 470.55 293.32 470.58 291.00 C 472.13 286.85 474.36 282.99 475.88 278.82 C 477.26 274.53 478.86 270.32 481.54 266.64 C 482.60 261.51 480.69 256.25 479.97 251.15 C 478.65 242.52 473.59 235.15 471.10 226.90 C 469.67 220.36 469.53 213.64 468.70 207.02 C 468.02 201.61 468.28 195.94 465.94 190.88 C 461.40 180.27 458.55 169.07 454.99 158.12 C 454.23 158.16 452.71 158.25 451.95 158.29 C 450.69 154.91 449.54 151.49 448.14 148.17 C 445.93 153.40 444.32 158.85 442.31 164.16 C 440.63 167.92 442.30 171.99 442.46 175.90 C 444.48 191.16 444.63 206.61 446.85 221.85 C 447.40 222.15 448.50 222.76 449.05 223.06 C 448.46 230.42 449.85 237.73 450.35 245.05 C 450.69 251.39 451.80 257.66 451.92 264.01 C 452.88 264.76 453.85 265.51 454.83 266.27 C 455.86 274.45 455.72 282.71 456.41 290.92 C 457.29 301.92 457.58 312.96 458.47 323.96 C 458.55 332.69 460.33 341.35 459.72 350.09 C 458.81 355.15 457.14 360.04 455.80 364.99 C 458.38 369.71 460.85 374.49 463.45 379.20 C 462.01 382.83 460.51 386.43 459.08 390.07 C 460.12 392.28 461.23 394.47 462.35 396.66 C 459.31 398.36 455.37 399.36 454.01 402.95 C 444.54 403.08 435.08 403.61 425.62 403.58 C 434.10 388.13 442.94 372.87 451.62 357.54 C 453.19 354.77 455.10 351.51 453.59 348.29 C 452.23 344.34 446.57 344.01 444.00 346.95 C 438.52 352.50 433.81 358.78 428.58 364.57 C 425.13 368.76 421.34 372.67 418.16 377.07 C 418.83 374.67 419.64 372.27 419.82 369.77 C 418.80 366.01 416.65 362.66 415.08 359.11 C 416.20 356.52 418.51 353.93 417.50 350.93 C 414.33 335.95 411.05 320.99 408.02 305.97 C 406.11 304.96 404.19 303.96 402.28 302.96 C 399.76 304.17 396.97 304.96 394.74 306.70 C 392.55 309.19 392.87 312.85 392.09 315.91 C 389.64 327.93 388.26 340.14 385.46 352.08 C 384.89 354.24 386.29 356.17 387.01 358.11 C 378.49 342.13 359.64 333.39 341.88 335.17 C 343.63 311.23 345.02 287.24 347.20 263.34 C 349.52 261.26 352.23 258.93 352.14 255.51 C 352.71 245.34 353.52 235.15 353.26 224.96 C 355.17 208.92 356.80 192.83 359.41 176.88 C 361.50 166.89 356.51 157.47 353.36 148.30 C 351.71 151.50 350.55 154.93 349.43 158.34 C 348.68 158.27 347.18 158.13 346.43 158.06 C 343.88 165.96 341.53 173.92 338.93 181.81 C 337.18 187.27 334.08 192.35 333.54 198.15 C 332.52 206.78 331.92 215.45 330.88 224.06 C 329.41 232.19 324.50 239.16 322.26 247.05 C 321.20 252.31 320.09 257.59 319.39 262.91 C 318.33 266.89 322.33 269.33 323.35 272.80 C 325.41 279.11 328.04 285.23 331.07 291.13 C 330.63 293.12 330.11 295.09 329.88 297.12 C 330.15 300.29 331.26 303.32 331.72 306.47 C 326.46 305.28 323.96 299.95 322.73 295.20 C 320.05 297.70 319.85 301.69 318.93 305.04 C 317.05 310.77 323.87 315.05 321.59 320.80 C 319.39 322.52 316.40 320.92 314.72 319.20 C 313.00 316.86 312.11 314.02 310.34 311.71 C 308.61 309.94 306.45 308.68 304.45 307.26 C 303.69 304.78 303.30 302.15 302.13 299.83 C 300.08 297.15 297.46 294.98 295.09 292.59 C 296.66 282.69 298.35 272.80 300.09 262.93 C 302.76 245.35 304.37 227.62 306.88 210.03 C 309.42 203.10 314.33 197.24 317.06 190.35 C 320.67 176.01 322.62 161.31 325.32 146.78 C 324.17 144.99 322.99 143.23 321.82 141.46 C 324.36 132.15 326.60 122.76 329.40 113.52 C 330.76 108.96 333.86 105.26 336.18 101.18 C 337.85 98.62 339.11 95.47 342.02 94.07 C 356.22 86.46 370.56 79.13 384.61 71.27 C 384.28 67.36 381.53 64.39 380.55 60.69 C 379.17 60.71 377.78 60.89 376.43 60.65 C 374.17 58.76 372.47 56.31 370.61 54.06 C 370.61 50.32 370.61 46.59 370.61 42.86 C 373.11 41.98 375.92 41.66 378.07 40.00 C 379.57 34.84 378.55 29.42 378.24 24.17 C 379.72 20.89 382.23 18.21 384.26 15.26 Z" />
<path fill="#f4722b" opacity="1.00" d=" M 227.07 317.85 C 244.90 313.52 264.64 319.50 277.17 332.87 C 281.03 336.86 283.21 342.05 285.79 346.88 C 292.35 342.44 300.68 340.10 308.49 342.28 C 313.31 343.12 317.04 346.37 321.06 348.86 C 325.86 346.56 330.31 343.37 335.63 342.28 C 344.52 340.26 354.21 340.47 362.66 344.16 C 373.77 348.78 382.60 358.52 386.08 370.04 C 389.63 381.27 388.07 393.80 382.28 404.02 C 386.62 408.86 390.14 414.55 391.56 420.96 C 394.24 431.57 391.86 443.40 385.06 452.00 C 382.64 455.07 379.62 457.57 376.65 460.08 C 378.46 462.33 380.29 464.73 383.01 465.95 C 402.04 475.55 420.91 485.45 439.92 495.10 C 442.60 496.44 445.20 497.93 447.74 499.53 C 441.07 501.68 434.00 501.57 427.07 501.83 C 416.73 502.14 406.36 501.66 396.05 502.61 C 392.25 502.60 387.95 503.73 384.62 501.36 C 382.14 499.77 379.69 498.13 377.00 496.92 C 363.06 490.43 349.28 483.60 335.57 476.63 C 344.48 465.46 354.77 455.45 363.56 444.19 C 363.05 443.07 362.54 441.95 362.03 440.84 C 351.12 437.16 340.12 433.72 329.18 430.14 C 342.47 423.35 355.78 416.59 369.07 409.81 C 358.68 409.36 348.33 410.44 337.95 410.70 C 343.48 395.39 349.14 380.14 354.66 364.84 C 338.87 374.59 323.35 384.77 307.64 394.65 C 304.34 396.87 300.98 399.06 297.25 400.50 C 297.29 386.88 296.54 373.29 296.05 359.68 C 290.03 368.82 284.13 378.04 278.01 387.11 C 268.01 377.07 258.33 366.71 249.18 355.88 C 245.00 351.16 241.21 346.07 236.57 341.78 C 238.30 367.39 240.45 392.98 242.46 418.57 C 224.64 415.36 207.09 410.77 189.39 406.98 C 199.01 425.49 208.37 444.14 218.04 462.62 C 196.05 466.39 173.91 469.21 151.92 472.99 C 161.46 481.94 170.96 490.93 180.40 499.98 C 147.41 500.01 114.41 500.00 81.41 499.99 C 80.72 489.82 84.98 479.43 93.02 473.09 C 102.41 465.22 116.39 464.18 127.20 469.65 C 125.56 461.82 126.28 453.33 130.41 446.37 C 133.17 441.23 137.75 437.45 142.50 434.22 C 139.02 417.69 142.62 399.54 153.12 386.17 C 161.01 376.13 172.78 369.75 185.18 367.21 C 186.74 362.21 187.82 357.08 189.41 352.09 C 194.94 335.21 209.72 321.73 227.07 317.85 Z" />
<path fill="#f4722b" opacity="1.00" d=" M 394.04 413.95 C 412.20 392.94 430.14 371.75 448.40 350.85 C 437.46 370.68 426.08 390.27 415.00 410.03 C 439.00 409.30 463.00 408.71 486.99 407.99 C 470.37 423.58 453.88 439.31 437.12 454.75 C 451.06 452.24 465.01 449.78 478.94 447.27 C 487.27 445.89 495.52 443.98 503.93 443.07 C 485.93 456.70 467.98 470.38 449.98 484.01 C 440.77 479.84 431.47 475.87 422.29 471.63 C 413.17 467.13 404.10 462.54 395.00 458.00 C 397.67 451.99 400.35 445.99 403.01 439.98 C 400.62 431.68 398.40 423.33 396.06 415.01 C 395.56 414.75 394.55 414.21 394.04 413.95 Z" />
<path fill="#f4722b" opacity="1.00" d=" M 15.38 411.60 C 20.37 412.53 24.20 416.01 28.38 418.60 C 47.20 430.82 66.11 442.89 84.90 455.15 C 83.85 445.62 83.09 436.04 82.70 426.46 C 92.38 436.40 102.26 446.15 111.57 456.44 C 103.16 455.71 94.38 456.68 87.11 461.27 C 74.14 468.56 67.62 484.76 71.15 499.10 C 52.42 493.43 33.69 487.75 15.01 481.92 C 10.13 480.38 5.09 479.30 0.44 477.10 C 23.64 476.56 46.86 476.96 70.07 476.90 C 52.85 456.80 35.85 436.52 18.64 416.42 C 17.42 414.91 16.38 413.26 15.38 411.60 Z" />
<path fill="#f5e5c1" opacity="1.00" d=" M 449.17 489.71 C 454.97 489.54 458.70 484.24 463.32 481.39 C 463.60 482.00 464.16 483.22 464.44 483.83 C 469.44 485.23 474.40 486.78 479.25 488.64 C 478.57 494.28 478.69 500.06 477.63 505.62 C 468.10 506.19 458.52 505.57 448.97 505.92 C 451.20 503.90 453.94 501.35 452.95 497.99 C 452.39 493.37 447.36 491.98 443.88 490.10 C 439.92 487.82 435.01 486.72 432.11 482.96 C 438.05 484.55 443.21 488.20 449.17 489.71 Z" />
</svg>
