<?xml version="1.0" encoding="UTF-8" ?>
<!DOCTYPE svg PUBLIC "-//W3C//DTD SVG 1.1//EN" "http://www.w3.org/Graphics/SVG/1.1/DTD/svg11.dtd">
<svg width="512pt" height="512pt" viewBox="0 0 512 512" version="1.1" xmlns="http://www.w3.org/2000/svg">
<path fill="#3e3e3e" opacity="1.00" d=" M 0.00 0.00 L 512.00 0.00 L 512.00 340.93 C 501.84 332.25 488.28 327.72 474.94 328.57 C 457.58 329.38 441.13 339.68 432.59 354.78 C 427.99 362.24 426.72 371.01 424.13 379.24 C 410.56 381.89 397.80 389.51 390.00 401.05 C 381.12 414.10 378.23 430.84 381.52 446.21 C 375.83 449.91 370.68 454.76 368.00 461.13 C 365.04 467.56 364.71 474.96 366.33 481.79 C 357.08 476.95 345.32 476.93 336.25 482.21 C 325.78 487.99 319.43 500.09 320.44 512.00 L 0.00 512.00 L 0.00 248.45 C 1.86 262.87 3.17 277.35 4.65 291.80 C 4.88 294.13 6.02 296.20 7.02 298.27 C 14.44 287.93 21.16 277.11 28.12 266.46 C 28.44 280.41 28.99 294.36 29.27 308.31 C 48.41 296.18 67.35 283.70 86.71 271.93 C 81.04 287.14 75.54 302.41 69.97 317.65 C 80.34 317.82 90.67 316.33 101.03 316.79 C 88.44 323.36 75.70 329.66 63.08 336.18 C 62.42 336.75 60.32 337.45 61.37 338.59 C 69.56 351.70 78.06 364.62 86.29 377.71 C 87.53 379.79 89.28 381.51 91.40 382.67 C 107.00 391.70 122.52 400.86 138.13 409.85 C 128.57 395.41 118.62 381.22 108.80 366.96 C 114.54 362.39 119.77 356.84 122.24 349.80 C 127.42 336.74 124.00 321.05 114.25 311.03 C 120.12 300.81 121.52 288.22 118.06 276.96 C 114.42 265.09 105.13 255.15 93.54 250.70 C 85.80 247.56 77.12 247.61 69.00 248.95 C 63.16 249.92 58.28 253.29 53.10 255.86 C 49.74 254.08 46.98 251.23 43.27 250.10 C 34.82 246.75 25.04 248.64 17.82 253.95 C 11.96 242.84 5.86 231.86 0.00 220.75 L 0.00 0.00 Z" />
<path fill="#f5e5c1" opacity="1.00" d=" M 350.95 3.15 C 351.81 0.69 354.75 1.31 356.11 2.94 C 364.64 10.16 372.66 18.01 381.35 25.04 C 385.11 26.36 389.22 26.03 393.14 26.55 C 402.87 27.94 412.20 31.29 421.06 35.46 C 427.75 34.90 434.30 32.96 440.94 31.86 C 448.68 30.19 456.54 29.19 464.28 27.48 C 464.91 28.49 466.13 29.35 466.02 30.68 C 465.03 42.39 464.62 54.14 463.21 65.82 C 462.68 70.18 460.68 74.92 462.85 79.12 C 466.14 86.10 468.46 93.51 469.94 101.09 C 470.37 104.94 474.34 106.64 476.79 109.13 C 485.13 116.87 494.10 123.89 502.34 131.73 C 503.98 133.16 503.07 135.38 501.37 136.25 C 492.26 142.16 483.17 148.13 473.96 153.89 C 468.92 156.99 462.41 158.82 459.47 164.40 C 456.17 170.25 452.23 175.73 447.68 180.66 C 446.00 182.13 446.00 184.45 445.45 186.44 C 441.82 201.19 438.24 215.95 434.56 230.68 C 433.46 233.51 430.25 231.67 428.44 230.63 C 417.50 224.24 405.86 219.00 395.59 211.52 C 394.00 210.17 391.90 210.12 389.94 210.41 C 372.32 212.69 354.06 209.48 338.12 201.69 C 335.80 200.70 333.58 198.59 330.89 199.42 C 319.27 201.64 307.68 204.07 296.08 206.40 C 294.39 206.60 292.53 207.22 290.94 206.33 C 289.54 203.78 290.59 200.71 290.51 197.95 C 291.63 187.02 291.45 175.97 293.54 165.15 C 294.18 161.73 294.82 158.03 293.32 154.72 C 287.01 140.07 284.91 123.76 286.40 107.95 C 281.30 97.11 274.30 87.15 268.39 76.70 C 267.75 75.46 266.40 73.34 268.35 72.51 C 270.03 71.50 271.99 71.08 273.86 70.54 C 284.26 67.80 294.43 64.18 305.01 62.11 C 312.14 52.91 320.88 44.88 330.94 38.99 C 332.54 37.96 334.43 37.05 335.19 35.18 C 340.49 24.52 345.46 13.70 350.95 3.15 Z" />
<path fill="#3e3e3e" opacity="1.00" d=" M 337.35 44.40 C 343.51 32.97 349.57 21.49 355.64 10.02 C 365.64 19.15 375.76 28.15 385.71 37.34 C 387.22 38.41 386.75 40.42 386.99 42.00 C 380.52 46.68 372.66 48.76 364.93 50.24 C 357.14 51.77 349.12 52.18 341.22 51.38 C 339.43 51.00 336.69 50.85 336.46 48.55 C 335.86 47.09 336.74 45.68 337.35 44.40 Z" />
<path fill="#3e3e3e" opacity="1.00" d=" M 418.71 42.57 C 432.37 39.99 446.17 38.27 459.84 35.74 C 459.04 49.22 457.60 62.65 456.46 76.10 C 456.54 78.28 454.05 80.45 451.94 79.58 C 445.35 77.34 439.83 72.83 434.58 68.40 C 427.47 61.74 420.25 54.51 416.72 45.24 C 417.38 44.35 418.04 43.46 418.71 42.57 Z" />
<path fill="#3e3e3e" opacity="1.00" d=" M 382.13 49.39 C 388.06 46.54 393.98 43.69 399.93 40.89 C 404.21 48.61 408.92 56.10 413.06 63.89 C 414.67 68.65 416.44 73.72 415.41 78.81 C 414.14 85.55 409.20 91.26 403.06 94.13 C 394.18 98.33 383.20 97.26 375.07 91.85 C 368.12 87.39 363.13 79.42 363.48 71.01 C 363.57 65.16 366.69 59.76 370.84 55.81 C 374.16 52.97 378.23 51.27 382.13 49.39 Z" />
<path fill="#f4722b" opacity="1.00" d=" M 283.20 48.20 C 285.63 47.39 288.72 46.28 291.00 48.02 C 293.46 50.94 294.29 54.85 295.04 58.51 C 285.03 61.38 275.05 64.34 265.03 67.14 C 262.67 67.86 259.80 68.56 258.82 71.13 C 257.74 73.14 259.12 75.27 260.07 77.02 C 266.09 86.99 272.21 96.92 277.84 107.11 C 278.80 112.52 277.21 118.18 275.10 123.20 C 267.87 123.42 260.48 122.56 253.45 124.71 C 240.55 128.08 227.35 130.44 214.75 134.87 C 209.43 136.86 204.93 140.47 199.74 142.75 C 192.43 147.23 185.35 152.27 179.42 158.51 C 176.25 161.65 172.96 164.67 169.67 167.68 C 164.45 172.43 160.73 178.60 158.08 185.08 C 154.43 193.89 149.19 202.14 147.31 211.60 C 143.59 225.09 139.83 238.57 136.07 252.05 C 135.19 255.33 133.95 258.62 134.13 262.08 C 134.22 264.75 136.93 266.13 138.91 267.38 C 142.06 267.85 144.57 265.15 147.47 264.31 C 164.32 257.94 182.12 254.26 199.99 252.22 C 206.63 251.24 213.38 251.65 220.04 250.70 C 263.19 249.85 306.30 259.59 345.50 277.52 C 355.69 281.95 365.23 287.65 375.07 292.78 C 393.85 303.67 411.80 316.05 428.54 329.89 C 422.44 343.67 416.53 357.54 410.51 371.35 C 409.64 373.81 407.05 374.76 405.01 376.04 C 394.77 381.77 384.65 387.71 374.47 393.57 C 371.40 410.14 368.75 426.79 365.57 443.34 C 362.33 444.16 359.06 444.89 355.79 445.58 C 341.28 415.04 324.32 385.47 302.87 359.24 C 281.42 333.59 255.55 310.54 224.31 297.69 C 195.90 285.37 163.61 282.43 133.32 288.48 C 133.70 281.35 134.39 273.99 132.23 267.05 C 130.16 259.35 126.13 252.21 120.55 246.51 C 116.59 241.53 108.36 241.86 105.37 235.99 C 106.56 227.00 106.45 217.83 108.87 209.03 C 110.09 198.62 114.13 188.87 116.81 178.80 C 118.45 170.09 124.29 163.15 128.60 155.66 C 131.53 150.61 135.23 146.06 138.15 141.00 C 144.49 132.21 152.28 124.59 160.08 117.11 C 167.59 111.24 175.17 105.45 183.06 100.09 C 188.47 96.07 193.81 91.91 199.73 88.64 C 211.89 78.51 226.35 71.76 240.12 64.18 C 254.18 58.09 268.80 53.39 283.20 48.20 Z" />
<path fill="#3e3e3e" opacity="1.00" d=" M 276.12 75.77 C 288.70 72.30 301.29 68.86 313.90 65.47 C 316.81 64.09 319.83 67.03 319.17 69.98 C 318.02 82.86 312.82 95.15 305.92 105.98 C 304.21 108.55 302.38 111.16 299.78 112.91 C 297.98 113.23 296.26 112.14 295.49 110.54 C 288.94 99.01 282.74 87.27 276.12 75.77 Z" />
<path fill="#3e3e3e" opacity="1.00" d=" M 324.00 109.00 C 328.70 105.66 333.95 102.10 339.99 102.44 C 348.87 102.45 356.80 108.74 360.22 116.71 C 366.01 129.05 361.90 145.82 349.64 152.58 C 342.59 156.71 333.55 155.57 326.98 151.07 C 323.22 148.13 320.31 144.31 317.19 140.73 C 313.41 136.17 309.28 131.88 305.97 126.95 C 312.02 121.00 317.92 114.91 324.00 109.00 Z" />
<path fill="#3e3e3e" opacity="1.00" d=" M 452.57 133.98 C 453.46 124.21 455.03 114.13 459.98 105.49 C 461.51 105.61 463.36 105.10 464.56 106.40 C 474.55 115.46 483.98 125.13 494.03 134.14 C 482.57 141.36 471.17 148.65 459.69 155.82 C 458.22 157.08 456.08 156.59 454.75 155.39 C 451.82 148.68 452.34 141.12 452.57 133.98 Z" />
<path fill="#3e3e3e" opacity="1.00" d=" M 406.09 121.53 C 412.27 119.77 419.20 120.89 424.48 124.54 C 429.96 128.56 433.67 135.14 433.70 142.01 C 433.75 151.05 434.01 160.10 433.69 169.14 C 421.62 169.07 409.32 173.02 397.48 169.21 C 389.65 166.34 384.58 158.13 384.44 149.94 C 384.00 137.00 393.54 124.60 406.09 121.53 Z" />
<path fill="#3e3e3e" opacity="1.00" d=" M 299.68 158.13 C 299.67 156.26 301.69 155.45 302.81 154.27 C 312.25 157.53 320.04 164.14 327.01 171.08 C 332.04 176.48 337.09 182.19 339.71 189.20 C 338.46 190.55 337.21 192.19 335.19 192.25 C 322.23 194.38 309.25 196.46 296.31 198.71 C 297.39 185.18 298.58 171.66 299.68 158.13 Z" />
<path fill="#f5e5c1" opacity="1.00" d=" M 57.01 176.89 C 57.90 181.39 56.67 185.88 56.52 190.38 C 56.46 198.60 55.26 206.75 55.24 214.98 C 54.18 222.92 54.77 230.98 53.49 238.90 C 53.90 238.77 54.71 238.50 55.11 238.36 C 60.14 228.14 65.79 218.23 70.96 208.08 C 70.03 219.86 69.03 231.65 67.87 243.41 C 62.74 244.76 56.90 243.50 52.29 246.46 C 48.91 245.03 45.43 243.88 41.87 243.02 C 41.78 242.78 41.59 242.30 41.50 242.06 C 44.01 240.19 43.66 236.60 44.54 233.88 C 48.44 216.61 51.91 199.21 56.17 182.05 C 56.49 180.33 56.75 178.61 57.01 176.89 Z" />
<path fill="#3e3e3e" opacity="1.00" d=" M 413.76 185.82 C 420.93 183.19 428.41 180.77 436.12 180.73 C 438.29 180.47 439.84 183.10 439.39 185.00 C 436.10 197.92 432.03 210.65 429.01 223.64 C 428.60 223.65 427.78 223.69 427.37 223.71 C 416.24 217.04 404.80 210.87 393.59 204.33 C 391.79 203.61 391.50 201.63 390.97 200.01 C 396.98 193.14 405.47 189.21 413.76 185.82 Z" />
<path fill="#f5e5c1" opacity="1.00" d=" M 0.00 220.75 C 5.86 231.86 11.96 242.84 17.82 253.95 C 25.04 248.64 34.82 246.75 43.27 250.10 C 46.98 251.23 49.74 254.08 53.10 255.86 C 58.28 253.29 63.16 249.92 69.00 248.95 C 77.12 247.61 85.80 247.56 93.54 250.70 C 105.13 255.15 114.42 265.09 118.06 276.96 C 121.52 288.22 120.12 300.81 114.25 311.03 C 124.00 321.05 127.42 336.74 122.24 349.80 C 119.77 356.84 114.54 362.39 108.80 366.96 C 118.62 381.22 128.57 395.41 138.13 409.85 C 122.52 400.86 107.00 391.70 91.40 382.67 C 89.28 381.51 87.53 379.79 86.29 377.71 C 78.06 364.62 69.56 351.70 61.37 338.59 C 60.32 337.45 62.42 336.75 63.08 336.18 C 75.70 329.66 88.44 323.36 101.03 316.79 C 90.67 316.33 80.34 317.82 69.97 317.65 C 75.54 302.41 81.04 287.14 86.71 271.93 C 67.35 283.70 48.41 296.18 29.27 308.31 C 28.99 294.36 28.44 280.41 28.12 266.46 C 21.16 277.11 14.44 287.93 7.02 298.27 C 6.02 296.20 4.88 294.13 4.65 291.80 C 3.17 277.35 1.86 262.87 0.00 248.45 L 0.00 220.75 Z" />
<path fill="#f5e5c1" opacity="1.00" d=" M 412.14 263.99 C 427.74 283.14 443.07 302.51 458.63 321.69 C 453.69 325.10 449.01 328.85 444.03 332.19 C 433.49 309.42 422.51 286.85 412.14 263.99 Z" />
<path fill="#f5e5c1" opacity="1.00" d=" M 494.03 268.86 C 499.48 286.72 503.87 304.92 508.94 322.90 C 498.33 321.47 487.70 320.22 477.13 318.58 C 483.01 302.09 488.48 285.46 494.03 268.86 Z" />
<path fill="#f5e5c1" opacity="1.00" d=" M 127.27 320.59 C 130.29 319.17 133.71 319.88 136.93 319.75 C 148.65 319.93 160.38 319.38 172.08 320.03 C 158.94 325.04 145.78 330.05 132.83 335.52 C 130.83 330.59 129.36 325.48 127.27 320.59 Z" />
<path fill="#f5e5c1" opacity="1.00" d=" M 432.59 354.78 C 441.13 339.68 457.58 329.38 474.94 328.57 C 488.28 327.72 501.84 332.25 512.00 340.93 L 512.00 395.73 C 504.14 386.37 496.06 377.20 488.17 367.87 C 483.98 363.16 480.19 358.07 475.57 353.75 C 477.37 379.38 479.48 404.98 481.55 430.59 C 463.69 427.39 446.11 422.76 428.36 418.99 C 437.91 437.65 447.80 456.16 456.93 475.02 C 434.82 477.85 412.85 481.66 390.80 484.91 C 400.48 493.84 409.89 503.07 419.57 512.00 L 320.44 512.00 C 319.43 500.09 325.78 487.99 336.25 482.21 C 345.32 476.93 357.08 476.95 366.33 481.79 C 364.71 474.96 365.04 467.56 368.00 461.13 C 370.68 454.76 375.83 449.91 381.52 446.21 C 378.23 430.84 381.12 414.10 390.00 401.05 C 397.80 389.51 410.56 381.89 424.13 379.24 C 426.72 371.01 427.99 362.24 432.59 354.78 Z" />
<path fill="#3e3e3e" opacity="1.00" d=" M 481.55 430.59 C 479.48 404.98 477.37 379.38 475.57 353.75 C 480.19 358.07 483.98 363.16 488.17 367.87 C 496.06 377.20 504.14 386.37 512.00 395.73 L 512.00 512.00 L 419.57 512.00 C 409.89 503.07 400.48 493.84 390.80 484.91 C 412.85 481.66 434.82 477.85 456.93 475.02 C 447.80 456.16 437.91 437.65 428.36 418.99 C 446.11 422.76 463.69 427.39 481.55 430.59 Z" />
<path fill="#f5e5c1" opacity="1.00" d=" M 250.90 420.25 C 275.38 435.77 299.62 451.69 324.02 467.33 C 323.06 457.77 322.15 448.18 321.85 438.58 C 331.55 448.62 341.13 458.77 351.02 468.63 C 339.71 466.67 327.46 470.04 319.34 478.29 C 310.66 486.56 307.21 499.64 310.46 511.15 C 286.48 503.92 262.66 496.13 238.56 489.32 C 262.14 488.55 285.75 489.37 309.34 488.90 C 289.67 466.18 270.47 443.06 250.90 420.25 Z" />
</svg>
