<?xml version="1.0" encoding="UTF-8" ?>
<!DOCTYPE svg PUBLIC "-//W3C//DTD SVG 1.1//EN" "http://www.w3.org/Graphics/SVG/1.1/DTD/svg11.dtd">
<svg width="512pt" height="512pt" viewBox="0 0 512 512" version="1.1" xmlns="http://www.w3.org/2000/svg">
<path fill="#3e3e3e" opacity="1.00" d=" M 0.00 0.00 L 512.00 0.00 L 512.00 512.00 L 0.00 512.00 L 0.00 0.00 Z" />
<path fill="#f5e5c1" opacity="1.00" d=" M 146.07 47.03 C 183.27 24.43 227.68 13.86 271.06 17.47 C 298.61 19.48 325.52 27.55 350.24 39.75 C 379.90 55.08 405.73 77.64 425.27 104.69 C 440.18 124.92 450.80 148.20 457.29 172.44 C 460.50 186.78 463.27 201.31 463.67 216.05 C 464.15 233.46 463.85 251.10 459.55 268.08 C 455.50 287.35 448.79 306.08 439.40 323.40 C 432.10 319.25 424.13 316.40 415.95 314.57 C 418.90 309.30 421.35 303.76 424.42 298.55 C 428.23 289.96 431.73 281.07 433.10 271.73 C 440.73 242.50 441.25 211.43 434.12 182.05 C 427.27 153.30 413.53 126.19 394.20 103.82 C 377.22 84.00 355.87 67.97 332.26 56.86 C 313.43 48.64 293.59 42.28 273.04 40.47 C 247.93 37.86 222.19 40.31 198.15 48.13 C 193.42 49.62 188.68 51.15 184.15 53.20 C 142.43 69.71 107.61 102.46 87.65 142.56 C 74.16 169.52 67.75 199.89 68.56 230.00 C 69.36 254.33 74.90 278.49 84.80 300.74 C 86.35 299.62 87.91 298.50 89.57 297.55 C 112.04 284.70 134.31 271.48 156.76 258.59 C 157.74 257.99 158.68 257.32 159.61 256.65 C 160.12 256.57 161.15 256.41 161.66 256.33 C 169.53 268.98 175.68 282.66 183.72 295.19 C 181.50 297.73 178.28 298.94 175.52 300.75 C 167.25 305.59 159.23 310.83 150.97 315.68 C 145.43 312.74 139.05 313.98 133.06 313.75 C 110.82 313.60 88.56 314.02 66.35 313.54 C 54.72 289.64 47.71 263.35 46.29 236.76 C 46.20 228.18 46.08 219.58 46.52 211.01 C 49.00 174.29 61.02 138.14 81.73 107.67 C 89.86 96.35 98.40 85.17 108.88 75.91 C 115.23 69.46 122.19 63.68 129.42 58.26 C 134.54 53.91 140.22 50.30 146.07 47.03 Z" />
<path fill="#f5e5c1" opacity="1.00" d=" M 382.28 125.23 C 385.54 124.40 388.60 122.65 392.02 122.52 C 392.30 123.10 392.86 124.28 393.14 124.87 C 399.86 136.50 406.60 148.13 413.46 159.68 C 413.72 160.52 413.56 161.26 412.97 161.90 C 409.29 165.95 404.92 169.28 401.04 173.12 C 399.83 174.22 398.74 175.55 397.18 176.18 C 394.03 176.55 390.83 176.36 387.66 176.58 C 385.10 182.04 383.23 187.88 380.03 193.02 C 376.77 196.36 372.82 198.95 369.50 202.23 C 347.73 220.14 326.54 238.80 304.82 256.75 C 304.36 257.01 303.44 257.54 302.99 257.80 C 287.19 230.22 271.35 202.66 255.61 175.05 C 255.96 174.48 256.67 173.34 257.02 172.77 C 284.35 161.98 311.62 151.06 338.86 140.03 C 343.36 138.54 347.61 136.28 352.19 135.09 C 356.04 135.87 359.27 138.62 362.65 140.59 C 364.94 136.91 366.97 133.06 369.56 129.59 C 373.48 127.42 378.10 126.83 382.28 125.23 Z" />
<path fill="#f5e5c1" opacity="1.00" d=" M 232.92 181.84 C 237.33 180.43 241.36 177.93 245.94 177.06 C 261.61 204.40 277.50 231.61 293.31 258.87 C 294.43 260.93 296.01 262.80 296.61 265.10 C 290.59 269.53 283.36 272.06 277.24 276.35 C 276.40 276.46 275.58 276.57 274.75 276.68 C 259.01 247.37 243.12 218.14 227.29 188.87 C 226.61 187.62 226.33 186.20 225.94 184.84 C 228.29 183.91 230.61 182.89 232.92 181.84 Z" />
<path fill="#f5e5c1" opacity="1.00" d=" M 218.82 202.33 C 219.19 202.38 219.93 202.47 220.29 202.52 C 233.74 224.86 247.37 247.08 260.82 269.41 C 256.99 270.13 253.10 269.45 249.27 269.05 C 244.47 268.27 239.50 268.77 234.81 267.28 C 227.14 252.81 218.69 238.73 210.73 224.41 C 209.94 223.12 210.72 221.71 211.19 220.48 C 213.75 214.44 216.71 208.55 218.82 202.33 Z" />
<path fill="#f5e5c1" opacity="1.00" d=" M 196.94 225.51 C 197.40 225.44 198.33 225.29 198.79 225.22 C 205.50 237.26 211.82 249.53 218.48 261.60 C 221.27 267.59 225.26 273.00 227.55 279.22 C 216.72 282.31 205.83 285.18 195.04 288.38 C 194.28 288.40 192.76 288.46 192.00 288.48 C 190.73 284.50 188.15 281.17 186.31 277.46 C 181.33 267.91 175.63 258.73 170.92 249.05 C 179.66 241.27 188.43 233.54 196.94 225.51 Z" />
<path fill="#f4722b" opacity="1.00" d=" M 223.46 321.63 C 236.55 319.81 250.18 321.33 262.30 326.74 C 281.87 335.27 297.27 352.29 304.85 372.15 C 316.40 401.37 311.44 436.84 290.93 460.90 C 280.20 473.60 265.50 483.13 249.14 486.57 C 234.18 489.64 218.21 488.13 204.31 481.71 C 187.22 473.92 173.34 459.64 165.45 442.65 C 149.91 410.28 156.36 368.41 182.05 343.05 C 193.18 331.86 207.79 323.98 223.46 321.63 Z" />
<path fill="#f4722b" opacity="1.00" d=" M 389.43 321.64 C 402.29 319.85 415.67 321.25 427.63 326.46 C 446.29 334.36 461.27 350.00 469.34 368.49 C 482.32 397.54 478.61 433.66 458.71 458.72 C 447.57 472.86 431.63 483.46 413.82 486.84 C 399.98 489.36 385.33 488.15 372.34 482.59 C 354.56 475.15 340.02 460.67 331.77 443.32 C 317.12 413.39 321.26 375.25 342.32 349.36 C 354.04 334.92 370.91 324.40 389.43 321.64 Z" />
<path fill="#f4722b" opacity="1.00" d=" M 25.01 321.75 C 65.14 321.71 105.27 321.81 145.40 321.71 C 145.61 337.89 145.49 354.08 145.46 370.26 C 118.06 370.25 90.66 370.25 63.26 370.26 C 63.25 378.75 63.25 387.25 63.26 395.75 C 76.71 395.63 90.43 396.45 103.24 400.89 C 110.92 403.59 118.41 408.16 122.58 415.38 C 127.91 425.10 129.12 436.89 126.39 447.59 C 123.14 459.83 114.47 470.19 103.71 476.65 C 90.32 484.76 74.60 488.21 59.11 489.08 C 57.47 479.71 55.77 470.36 54.16 460.99 C 63.72 460.18 73.53 458.70 82.02 453.96 C 86.50 451.42 90.64 447.29 91.28 441.95 C 92.20 437.34 89.92 432.43 85.77 430.20 C 78.29 425.90 69.31 426.17 60.96 425.80 C 48.96 425.89 36.99 426.78 25.01 427.04 C 25.00 391.94 24.99 356.85 25.01 321.75 Z" />
<path fill="#3e3e3e" opacity="1.00" d=" M 228.51 371.62 C 236.24 370.33 244.38 371.81 251.05 375.94 C 261.34 382.08 267.92 393.27 269.84 404.93 C 271.66 415.57 270.76 427.00 265.55 436.61 C 260.61 446.05 252.01 453.78 241.67 456.73 C 234.70 458.82 227.03 457.79 220.57 454.56 C 208.32 448.69 200.10 436.05 198.33 422.75 C 196.53 409.71 198.94 395.62 207.05 384.99 C 212.23 378.09 219.98 373.12 228.51 371.62 Z" />
<path fill="#3e3e3e" opacity="1.00" d=" M 394.42 371.64 C 402.15 370.32 410.32 371.78 417.00 375.91 C 427.31 382.04 433.91 393.24 435.83 404.91 C 437.66 415.55 436.76 427.00 431.55 436.62 C 426.61 446.05 418.01 453.77 407.69 456.73 C 400.71 458.82 393.03 457.79 386.56 454.56 C 374.31 448.68 366.08 436.02 364.33 422.70 C 362.53 409.68 364.95 395.60 373.05 384.99 C 378.21 378.11 385.93 373.16 394.42 371.64 Z" />
</svg>
