<?xml version="1.0" encoding="UTF-8" ?>
<!DOCTYPE svg PUBLIC "-//W3C//DTD SVG 1.1//EN" "http://www.w3.org/Graphics/SVG/1.1/DTD/svg11.dtd">
<svg width="512pt" height="512pt" viewBox="0 0 512 512" version="1.1" xmlns="http://www.w3.org/2000/svg">
<path fill="#3e3e3e" opacity="1.00" d=" M 0.00 0.00 L 512.00 0.00 L 512.00 512.00 L 229.83 512.00 C 246.10 503.70 261.79 494.27 278.09 486.00 C 279.83 479.68 280.84 473.19 281.57 466.69 C 259.76 463.48 238.12 459.24 216.41 455.41 C 220.03 443.12 223.90 430.90 227.57 418.62 C 229.37 412.32 230.35 405.79 230.53 399.24 C 206.76 407.58 183.08 416.18 159.00 423.57 C 150.19 426.29 141.40 429.09 132.58 431.76 C 128.11 414.87 124.15 397.83 119.38 381.02 C 115.71 384.45 111.86 387.69 108.56 391.49 C 94.32 407.53 80.06 423.54 65.72 439.48 C 62.53 435.32 60.05 430.69 58.00 425.88 C 45.88 398.92 33.61 372.01 21.74 344.94 C 14.34 360.25 7.38 375.76 0.00 391.07 L 0.00 0.00 Z" />
<path fill="#f5e5c1" opacity="1.00" d=" M 204.02 26.98 C 215.29 20.83 227.80 16.55 240.67 15.89 C 247.61 17.22 254.91 17.09 261.59 19.47 C 300.61 40.72 339.58 62.05 378.60 83.30 C 382.11 85.41 384.19 89.10 386.99 92.00 C 391.75 97.03 394.01 103.72 397.45 109.62 C 400.53 114.72 400.89 120.79 402.39 126.43 C 404.53 134.12 403.32 142.15 403.66 150.01 C 404.04 156.87 402.32 163.56 401.33 170.30 C 422.79 187.73 444.41 204.95 466.68 221.34 C 470.23 223.80 474.45 225.29 477.51 228.45 C 480.12 230.87 480.54 234.67 482.54 237.50 C 485.56 240.75 489.82 242.76 492.27 246.57 C 496.59 252.40 495.65 260.14 495.48 266.96 C 492.57 277.23 487.35 286.72 481.28 295.46 C 479.23 298.01 476.43 299.81 473.85 301.78 C 468.40 305.63 463.09 309.88 456.92 312.51 C 453.04 313.24 448.61 312.94 445.35 310.48 C 443.21 309.05 441.29 307.30 439.04 306.04 C 434.98 304.05 429.64 305.23 426.29 301.76 C 423.46 299.26 420.67 296.72 417.96 294.10 C 414.90 291.48 414.91 286.80 411.64 284.36 C 392.62 269.01 373.65 253.60 354.59 238.31 C 351.72 235.84 348.18 238.18 345.37 239.48 C 337.88 243.57 329.14 243.80 321.03 245.94 C 312.68 248.38 303.87 247.29 295.37 246.32 C 288.15 244.24 280.58 242.78 274.04 238.90 C 271.13 237.27 267.80 236.05 265.69 233.34 C 235.20 194.80 204.86 156.14 174.53 117.47 C 172.63 114.90 169.97 112.54 169.60 109.20 C 169.03 103.13 167.85 96.99 169.19 90.93 C 170.16 81.35 172.74 72.05 175.69 62.91 C 177.40 57.87 180.31 53.35 182.56 48.55 C 184.02 45.24 186.34 42.43 189.14 40.16 C 194.22 35.91 198.67 30.90 204.02 26.98 Z" />
<path fill="#3e3e3e" opacity="1.00" d=" M 177.23 83.31 C 180.14 82.80 183.32 83.43 185.12 85.97 C 212.06 116.25 238.82 146.71 265.84 176.94 C 265.66 170.08 268.49 163.77 270.44 157.35 C 271.56 153.82 272.99 150.34 275.28 147.39 C 280.28 140.70 284.43 133.32 290.38 127.38 C 298.10 118.39 306.84 110.24 316.52 103.40 C 321.13 99.72 326.70 97.60 332.13 95.47 C 345.99 90.64 361.37 89.84 375.43 94.31 C 383.75 98.17 387.32 106.99 391.72 114.40 C 394.79 119.64 394.98 125.89 396.57 131.63 C 398.72 138.91 397.75 146.58 397.91 154.06 C 398.00 158.32 396.51 162.84 392.31 164.63 C 388.21 161.45 384.51 156.98 379.03 156.35 C 372.79 154.38 366.56 157.31 360.96 159.87 C 354.22 163.86 347.19 168.08 342.83 174.81 C 340.72 178.27 338.33 181.79 337.81 185.90 C 337.47 189.24 337.66 192.59 337.74 195.93 C 340.17 197.13 342.49 198.54 344.60 200.24 C 347.97 202.96 351.85 204.98 355.00 207.97 C 360.82 213.65 367.75 217.97 374.06 223.06 C 388.38 234.44 402.69 245.85 417.21 256.98 C 423.32 247.07 428.61 236.20 438.01 228.92 C 443.31 225.45 448.79 221.97 454.89 220.12 C 457.09 221.02 458.85 222.67 460.76 224.05 C 452.72 226.04 445.27 229.89 438.42 234.48 C 435.22 236.55 432.99 239.71 430.47 242.50 C 427.87 245.51 425.26 248.82 424.51 252.83 C 423.82 256.58 423.04 260.34 422.81 264.16 C 422.93 267.98 423.66 271.77 424.38 275.52 C 429.40 270.00 430.42 262.03 435.22 256.32 C 439.56 251.27 442.94 245.38 448.16 241.14 C 455.89 233.45 468.67 229.77 478.74 234.88 C 478.56 236.58 478.37 238.28 478.16 239.98 C 471.06 236.81 462.63 237.33 455.81 240.96 C 451.07 243.23 447.39 247.12 443.81 250.87 C 438.80 257.18 433.94 264.06 432.37 272.12 C 434.95 273.74 437.54 275.33 440.15 276.92 C 440.52 277.57 441.27 278.88 441.64 279.53 C 443.25 276.87 444.76 274.15 446.43 271.52 C 451.74 265.16 457.90 259.57 464.13 254.12 C 466.68 251.74 470.38 251.72 473.50 250.48 C 477.26 249.03 481.26 248.39 485.29 248.38 C 488.23 250.96 491.03 253.98 492.18 257.81 C 492.50 260.83 492.62 263.89 492.38 266.92 C 490.04 275.17 485.32 282.49 480.54 289.52 C 476.94 293.23 473.16 296.90 468.91 299.86 C 463.54 302.16 457.91 304.45 451.98 304.43 C 451.50 304.74 450.54 305.36 450.06 305.67 C 447.06 304.75 444.28 303.26 441.81 301.33 C 438.71 298.83 434.68 298.17 430.94 297.20 C 427.24 293.85 423.49 290.55 419.97 287.01 C 417.77 284.78 416.94 281.51 414.48 279.50 C 396.74 265.26 379.06 250.94 361.34 236.68 C 358.48 234.49 355.92 231.89 352.79 230.09 C 344.90 232.10 338.30 237.76 330.11 238.90 C 320.26 241.13 309.97 242.40 299.96 240.65 C 291.87 237.91 283.29 236.32 275.83 231.97 C 272.75 230.19 269.06 229.18 266.70 226.38 C 237.15 189.56 207.54 152.78 177.96 115.99 C 175.15 112.73 175.56 108.16 174.66 104.20 C 173.48 98.62 173.12 92.83 174.28 87.22 C 174.94 85.72 175.95 84.34 177.23 83.31 Z" />
<path fill="#f5e5c1" opacity="1.00" d=" M 321.97 105.94 C 327.21 103.65 332.36 100.90 338.09 100.04 C 345.07 118.27 352.53 136.33 359.83 154.44 C 356.07 157.11 352.24 159.70 348.30 162.09 C 341.83 151.77 335.30 141.48 328.85 131.14 C 324.44 124.35 318.94 118.21 315.09 111.09 C 316.85 108.76 319.30 107.08 321.97 105.94 Z" />
<path fill="#f4722b" opacity="1.00" d=" M 146.30 156.34 C 153.29 146.06 161.27 136.46 170.12 127.73 C 190.04 155.54 209.54 183.66 229.31 211.59 C 232.92 216.87 236.85 221.95 240.20 227.42 C 212.54 245.86 190.69 272.17 175.53 301.61 C 157.19 337.18 147.32 376.72 143.88 416.48 C 141.87 417.17 139.88 417.92 137.91 418.71 C 133.18 400.24 128.12 381.84 123.04 363.47 C 120.15 365.34 117.45 367.45 115.04 369.91 C 103.75 379.96 92.42 389.98 81.16 400.07 C 81.12 398.04 81.11 396.02 81.16 394.00 C 84.76 347.37 91.18 300.79 103.45 255.60 C 113.11 220.81 126.06 186.45 146.30 156.34 Z" />
<path fill="#f5e5c1" opacity="1.00" d=" M 448.05 282.61 C 452.95 285.64 457.53 289.14 461.82 292.98 C 461.42 296.54 459.70 300.14 456.10 301.38 C 453.52 301.59 451.18 300.12 448.81 299.32 C 446.50 294.02 445.36 288.02 448.05 282.61 Z" />
<path fill="#f5e5c1" opacity="1.00" d=" M 466.01 294.05 C 468.17 292.18 471.17 291.63 473.74 290.48 C 474.52 295.36 469.51 298.15 465.26 297.85 C 465.44 296.90 465.82 295.00 466.01 294.05 Z" />
<path fill="#f5e5c1" opacity="1.00" d=" M 0.00 391.07 C 7.38 375.76 14.34 360.25 21.74 344.94 C 33.61 372.01 45.88 398.92 58.00 425.88 C 60.05 430.69 62.53 435.32 65.72 439.48 C 80.06 423.54 94.32 407.53 108.56 391.49 C 111.86 387.69 115.71 384.45 119.38 381.02 C 124.15 397.83 128.11 414.87 132.58 431.76 C 141.40 429.09 150.19 426.29 159.00 423.57 C 183.08 416.18 206.76 407.58 230.53 399.24 C 230.35 405.79 229.37 412.32 227.57 418.62 C 223.90 430.90 220.03 443.12 216.41 455.41 C 238.12 459.24 259.76 463.48 281.57 466.69 C 280.84 473.19 279.83 479.68 278.09 486.00 C 261.79 494.27 246.10 503.70 229.83 512.00 L 200.24 512.00 C 201.07 510.91 201.65 509.48 203.02 508.94 C 217.00 501.75 230.59 493.82 244.43 486.38 C 246.75 485.40 248.00 483.27 248.81 481.01 C 233.48 478.69 218.27 475.63 202.97 473.14 C 203.53 456.30 210.83 440.83 215.30 424.84 C 184.25 434.07 153.34 443.81 122.42 453.47 C 118.01 438.31 114.88 422.79 110.47 407.63 C 94.66 425.13 78.71 442.51 62.79 459.92 C 45.84 437.91 29.35 415.54 12.34 393.58 C 8.22 399.87 3.97 406.08 0.00 412.46 L 0.00 391.07 Z" />
<path fill="#3e3e3e" opacity="1.00" d=" M 12.34 393.58 C 29.35 415.54 45.84 437.91 62.79 459.92 C 78.71 442.51 94.66 425.13 110.47 407.63 C 114.88 422.79 118.01 438.31 122.42 453.47 C 153.34 443.81 184.25 434.07 215.30 424.84 C 210.83 440.83 203.53 456.30 202.97 473.14 C 218.27 475.63 233.48 478.69 248.81 481.01 C 248.00 483.27 246.75 485.40 244.43 486.38 C 230.59 493.82 217.00 501.75 203.02 508.94 C 201.65 509.48 201.07 510.91 200.24 512.00 L 0.00 512.00 L 0.00 412.46 C 3.97 406.08 8.22 399.87 12.34 393.58 Z" />
</svg>
