<?xml version="1.0" encoding="UTF-8" ?>
<!DOCTYPE svg PUBLIC "-//W3C//DTD SVG 1.1//EN" "http://www.w3.org/Graphics/SVG/1.1/DTD/svg11.dtd">
<svg width="512pt" height="512pt" viewBox="0 0 512 512" version="1.1" xmlns="http://www.w3.org/2000/svg">
<path fill="#3e3e3e" opacity="1.00" d=" M 0.00 0.00 L 512.00 0.00 L 512.00 512.00 L 229.79 512.00 C 246.08 503.70 261.84 494.31 278.11 485.93 C 279.83 479.62 280.99 473.15 281.44 466.62 C 259.67 463.53 238.10 459.16 216.43 455.45 C 220.13 442.62 224.26 429.91 228.00 417.10 C 229.40 411.27 230.56 405.31 230.42 399.29 C 198.06 410.88 165.52 421.96 132.56 431.74 C 128.08 414.85 124.20 397.79 119.33 381.01 C 115.79 384.56 111.77 387.62 108.56 391.50 C 94.33 407.56 80.00 423.54 65.71 439.54 C 61.60 434.41 57.74 429.03 54.98 423.03 C 44.58 401.52 34.03 380.07 23.70 358.52 C 22.86 359.81 22.04 361.14 21.50 362.60 C 14.40 381.61 7.07 400.53 0.00 419.55 L 0.00 0.00 Z" />
<path fill="#f5e5c1" opacity="1.00" d=" M 329.97 14.96 C 330.54 13.61 331.93 13.00 333.03 12.17 C 341.77 18.98 349.91 26.53 358.43 33.61 C 361.05 35.60 363.25 39.07 366.95 38.72 C 379.31 39.13 391.53 42.05 402.78 47.17 C 404.76 48.01 406.79 49.36 409.04 48.63 C 422.66 45.89 436.24 42.92 449.91 40.46 C 451.86 40.09 454.02 39.99 455.48 41.58 C 454.66 47.75 454.36 53.98 453.41 60.14 C 452.02 68.68 453.25 77.42 451.66 85.93 C 451.22 89.14 450.68 92.71 452.31 95.69 C 456.69 103.83 459.05 112.87 460.88 121.88 C 471.70 131.50 483.23 140.40 492.97 151.16 C 493.89 151.83 494.19 153.43 493.13 154.13 C 482.71 163.52 472.20 173.17 459.48 179.38 C 456.33 181.12 453.04 182.99 450.73 185.78 C 446.98 192.45 442.87 198.97 437.71 204.65 C 432.82 209.20 432.68 216.40 431.19 222.48 C 428.33 234.25 425.88 246.12 423.52 258.01 C 423.25 259.72 422.24 261.15 421.30 262.56 C 419.67 262.35 418.03 262.07 416.59 261.26 C 403.44 254.12 390.33 246.91 377.19 239.77 C 373.78 237.62 369.69 239.39 366.00 239.36 C 348.22 239.97 330.19 236.08 314.53 227.57 C 313.46 226.82 312.31 226.62 311.07 226.97 C 297.76 229.78 284.45 232.60 271.14 235.38 C 269.16 236.17 267.53 234.94 266.55 233.33 C 267.60 221.23 267.82 209.08 269.05 197.00 C 269.43 191.14 271.92 185.07 269.77 179.31 C 263.21 164.53 260.38 148.13 261.53 132.00 C 261.54 130.10 262.15 127.98 260.83 126.35 C 254.23 115.40 247.36 104.59 241.72 93.10 C 241.16 92.07 240.83 90.77 241.99 90.00 C 255.09 85.90 268.41 82.50 281.50 78.41 C 289.40 68.04 299.22 59.04 310.53 52.49 C 311.72 51.79 312.94 50.96 313.47 49.60 C 318.96 38.05 324.49 26.52 329.97 14.96 Z" />
<path fill="#3e3e3e" opacity="1.00" d=" M 335.52 22.02 C 346.51 31.49 357.30 41.19 368.09 50.87 C 370.10 52.21 370.74 56.01 368.35 57.23 C 359.92 62.82 349.73 64.87 339.89 66.38 C 331.86 67.20 323.23 68.54 315.55 65.35 C 315.40 63.72 314.68 61.98 315.66 60.46 C 322.17 47.59 329.04 34.91 335.52 22.02 Z" />
<path fill="#3e3e3e" opacity="1.00" d=" M 405.97 56.10 C 420.13 53.53 434.39 51.48 448.50 48.63 C 448.05 63.79 446.14 78.89 445.26 94.05 C 444.20 94.94 443.14 95.83 442.10 96.73 C 434.05 94.49 427.40 89.16 421.10 83.91 C 414.09 77.46 407.28 70.44 402.95 61.86 C 401.15 59.50 403.37 56.37 405.97 56.10 Z" />
<path fill="#3e3e3e" opacity="1.00" d=" M 357.87 67.65 C 366.46 63.32 375.13 59.13 383.80 54.94 C 388.17 62.28 392.44 69.68 396.85 77.00 C 399.38 80.90 400.02 85.59 401.20 89.99 C 402.22 98.94 396.68 107.63 388.97 111.84 C 376.32 118.80 359.07 115.11 350.23 103.75 C 346.25 98.82 344.12 92.34 344.77 86.01 C 345.81 78.26 350.88 71.17 357.87 67.65 Z" />
<path fill="#3e3e3e" opacity="1.00" d=" M 250.22 93.83 C 264.15 89.97 278.05 85.94 292.00 82.13 C 293.74 81.50 295.09 83.16 296.48 83.88 C 297.21 92.22 294.63 100.35 291.87 108.10 C 288.44 116.65 284.49 125.27 278.21 132.14 C 276.62 134.79 272.72 134.06 271.59 131.39 C 264.42 118.89 257.48 106.27 250.22 93.83 Z" />
<path fill="#3e3e3e" opacity="1.00" d=" M 309.68 124.69 C 314.26 121.61 320.20 121.80 325.40 122.84 C 337.44 126.22 344.87 138.91 344.55 151.00 C 344.61 162.59 337.46 174.77 325.95 178.12 C 320.78 179.89 315.10 179.12 310.15 177.03 C 305.07 175.19 301.61 170.81 298.12 166.93 C 293.14 160.90 287.48 155.42 283.09 148.93 C 289.16 142.71 295.33 136.58 301.34 130.31 C 303.68 127.84 306.80 126.40 309.68 124.69 Z" />
<path fill="#3e3e3e" opacity="1.00" d=" M 449.43 124.54 C 451.09 123.86 453.37 123.88 454.68 125.30 C 465.09 134.89 475.36 144.66 485.80 154.24 C 485.75 154.56 485.66 155.20 485.61 155.52 C 473.53 163.07 461.64 170.94 449.65 178.63 C 448.16 179.91 446.00 179.51 444.50 178.48 C 442.65 175.32 442.27 171.58 441.79 168.03 C 440.96 157.84 441.98 147.54 444.30 137.60 C 445.56 133.10 446.64 128.38 449.43 124.54 Z" />
<path fill="#f4722b" opacity="1.00" d=" M 133.87 192.89 C 165.32 162.56 205.30 142.29 246.96 130.03 C 248.95 148.31 253.32 166.23 257.99 183.98 C 241.15 189.31 226.14 199.39 213.11 211.15 C 187.02 235.17 169.74 267.44 159.47 301.09 C 149.77 332.11 145.60 364.61 144.35 397.00 C 144.14 404.89 143.93 412.78 143.53 420.66 C 141.53 421.73 139.52 422.76 137.49 423.77 C 135.35 401.53 133.21 379.29 130.97 357.07 C 113.94 374.67 97.02 392.39 79.98 409.97 C 74.37 415.05 69.53 420.94 63.77 425.84 C 62.17 415.24 61.01 404.58 59.73 393.95 C 57.91 354.31 63.92 314.18 78.16 277.09 C 90.39 245.47 109.25 216.28 133.87 192.89 Z" />
<path fill="#3e3e3e" opacity="1.00" d=" M 368.24 170.93 C 368.44 154.36 384.34 139.29 401.08 141.39 C 412.32 142.38 421.16 152.89 421.41 163.95 C 421.57 173.72 421.91 183.50 421.65 193.27 C 412.08 193.61 402.59 195.21 393.03 195.59 C 387.79 194.97 382.12 194.54 377.76 191.23 C 371.28 186.79 367.80 178.68 368.24 170.93 Z" />
<path fill="#3e3e3e" opacity="1.00" d=" M 276.62 182.02 C 276.90 180.35 278.82 179.66 279.91 178.58 C 290.49 181.98 299.11 189.46 306.92 197.11 C 312.06 202.76 317.55 208.58 320.03 215.98 C 318.93 217.24 317.96 218.92 316.10 219.09 C 301.87 221.69 287.58 223.96 273.37 226.68 C 274.33 211.79 275.59 196.91 276.62 182.02 Z" />
<path fill="#3e3e3e" opacity="1.00" d=" M 414.99 207.00 C 418.85 206.26 422.86 205.13 426.77 206.28 C 424.25 222.07 420.71 237.68 418.14 253.45 C 417.95 253.80 417.56 254.51 417.37 254.86 C 403.57 246.72 389.13 239.70 375.36 231.52 C 375.72 229.82 376.01 228.10 376.51 226.44 C 379.80 222.29 384.41 219.44 388.96 216.86 C 397.14 212.41 405.87 208.91 414.99 207.00 Z" />
<path fill="#f5e5c1" opacity="1.00" d=" M 21.50 362.60 C 22.04 361.14 22.86 359.81 23.70 358.52 C 34.03 380.07 44.58 401.52 54.98 423.03 C 57.74 429.03 61.60 434.41 65.71 439.54 C 80.00 423.54 94.33 407.56 108.56 391.50 C 111.77 387.62 115.79 384.56 119.33 381.01 C 124.20 397.79 128.08 414.85 132.56 431.74 C 165.52 421.96 198.06 410.88 230.42 399.29 C 230.56 405.31 229.40 411.27 228.00 417.10 C 224.26 429.91 220.13 442.62 216.43 455.45 C 238.10 459.16 259.67 463.53 281.44 466.62 C 280.99 473.15 279.83 479.62 278.11 485.93 C 261.84 494.31 246.08 503.70 229.79 512.00 L 200.71 512.00 C 201.07 510.98 201.44 509.96 201.82 508.95 C 203.40 508.57 205.01 508.16 206.44 507.34 C 219.64 499.90 233.01 492.76 246.20 485.31 C 247.92 484.50 248.14 482.54 248.51 480.91 C 233.33 478.77 218.33 475.55 203.18 473.23 C 203.11 456.28 211.20 440.85 215.18 424.69 C 184.30 434.31 153.32 443.66 122.50 453.47 C 117.94 438.21 114.85 422.54 110.61 407.19 C 95.15 424.43 79.63 441.63 63.93 458.66 C 49.62 440.47 35.12 422.43 20.93 404.15 C 18.49 405.13 16.23 406.75 15.42 409.38 C 10.24 422.41 5.18 435.50 0.00 448.53 L 0.00 419.55 C 7.07 400.53 14.40 381.61 21.50 362.60 Z" />
<path fill="#3e3e3e" opacity="1.00" d=" M 15.42 409.38 C 16.23 406.75 18.49 405.13 20.93 404.15 C 35.12 422.43 49.62 440.47 63.93 458.66 C 79.63 441.63 95.15 424.43 110.61 407.19 C 114.85 422.54 117.94 438.21 122.50 453.47 C 153.32 443.66 184.30 434.31 215.18 424.69 C 211.20 440.85 203.11 456.28 203.18 473.23 C 218.33 475.55 233.33 478.77 248.51 480.91 C 248.14 482.54 247.92 484.50 246.20 485.31 C 233.01 492.76 219.64 499.90 206.44 507.34 C 205.01 508.16 203.40 508.57 201.82 508.95 C 201.44 509.96 201.07 510.98 200.71 512.00 L 0.00 512.00 L 0.00 448.53 C 5.18 435.50 10.24 422.41 15.42 409.38 Z" />
</svg>
