<?xml version="1.0" encoding="UTF-8" standalone="no"?>
<svg
   xmlns:dc="http://purl.org/dc/elements/1.1/"
   xmlns:cc="http://creativecommons.org/ns#"
   xmlns:rdf="http://www.w3.org/1999/02/22-rdf-syntax-ns#"
   xmlns:svg="http://www.w3.org/2000/svg"
   xmlns="http://www.w3.org/2000/svg"
   xmlns:sodipodi="http://sodipodi.sourceforge.net/DTD/sodipodi-0.dtd"
   xmlns:inkscape="http://www.inkscape.org/namespaces/inkscape"
   width="1280"
   height="1280"
   viewBox="0 0 1024 1024"
   version="1.1"
   id="svg2"
   inkscape:version="0.48.1 "
   sodipodi:docname="stickyjump_cap.svg">
  <metadata
     id="metadata24">
    <rdf:RDF>
      <cc:Work
         rdf:about="">
        <dc:format>image/svg+xml</dc:format>
        <dc:type
           rdf:resource="http://purl.org/dc/dcmitype/StillImage" />
      </cc:Work>
    </rdf:RDF>
  </metadata>
  <defs
     id="defs22" />
  <sodipodi:namedview
     pagecolor="#ffffff"
     bordercolor="#666666"
     borderopacity="1"
     objecttolerance="10"
     gridtolerance="10"
     guidetolerance="10"
     inkscape:pageopacity="0"
     inkscape:pageshadow="2"
     inkscape:window-width="1920"
     inkscape:window-height="1018"
     id="namedview20"
     showgrid="false"
     inkscape:snap-page="true"
     fit-margin-top="0"
     fit-margin-left="0"
     fit-margin-right="0"
     fit-margin-bottom="0"
     inkscape:zoom="0.6609375"
     inkscape:cx="640"
     inkscape:cy="640"
     inkscape:window-x="-8"
     inkscape:window-y="-8"
     inkscape:window-maximized="1"
     inkscape:current-layer="svg2" />
  <rect
     style="fill:#3e3e3e;fill-opacity:1;fill-rule:nonzero;stroke:none"
     id="rect3001"
     width="1024"
     height="1024"
     x="0"
     y="0" />
  <path
     d="m 0,0 312.68,0 c 80.68,107.92 142.78,228.84 191.06,354.36 29.56,77.42 54.04,156.76 73.6,237.26 -44.84,7.3 -89.58,15.06 -134.42,22.34 C 424.72,550 394.62,489.68 356.64,435.2 313.62,373.86 258.82,320.8 195.9,280.14 148.94,249.86 97.6,226.52 44.18,210.2 29.54,205.86 14.7,202.2 0,198.04 L 0,0 z"
     id="path4"
     inkscape:connector-curvature="0"
     style="fill:#f4722b" />
  <path
     d="m 251.34,657.24 c 158.1,-25.52 316.3,-50.52 474.42,-75.92 -35.48,41.98 -70.84,84.12 -108.06,124.6 -27.16,29.6 -53.9,59.62 -81.34,88.98 -94.9,-46.12 -189.92,-92 -285.02,-137.66 z"
     id="path8"
     inkscape:connector-curvature="0"
     style="fill:#f4722b" />
  <path
     d="m 578.4,778.44 c 36.54,1.14 73.08,3.22 109.5,6.28 19.48,1.16 38.82,4.26 58.32,5.2 15.66,2.88 31.54,4.42 47.3,6.68 34.94,7.5 70.26,13.52 104.64,23.52 31.52,9.3 63.52,19.76 90.64,38.9 11.16,8.42 23.36,19.8 23.08,34.94 1.04,15.88 -11.82,27.76 -23.4,36.56 -30.72,21.3 -67.1,32.26 -102.78,42.06 -95.24,24.36 -193.66,33.28 -291.6,37.82 -127.68,4.14 -256.12,-0.36 -382.24,-21.84 -46.74,-8.44 -93.5,-18.78 -137.6,-36.8 C 56.04,943.84 37.62,934.88 23.38,920.66 15,912.26 8.64,900.1 11.8,888 c 3.48,-13.36 14.3,-23.06 25.16,-30.7 24.5,-16.62 52.78,-26.38 80.86,-35.04 34.1,-10.08 68.96,-17.4 104.02,-23.2 23.08,-5.2 46.54,-9.2 70.24,-10 45.22,-4.96 90.62,-8.22 136.08,-10.04 9.66,-1.4 17.32,5.68 26.24,7.9 -42.98,1.6 -85.98,2.98 -128.84,6.76 -12.38,2.26 -24.96,2.5 -37.46,3.68 -21.08,0.6 -41.64,5.6 -62.52,8.06 -38.62,6.4 -77.54,13.68 -114,28.36 -12.7,5.5 -26.18,11.74 -34.32,23.44 -5.64,8 -2.3,19 4.78,24.96 13.76,12.6 31.9,18.86 49.24,24.86 51.58,16.08 105.36,23.54 158.9,29.54 80.36,7.84 161.08,12.22 241.84,11.2 67.12,-1.96 134.28,-5.58 201.02,-13.2 42.12,-5.16 84.22,-11.62 125.2,-22.82 18.24,-5.16 36.5,-11.04 52.98,-20.56 8.22,-5.04 17.04,-11.36 19.58,-21.22 1.66,-7.8 -3.28,-14.98 -8.84,-19.9 -8.96,-7.82 -19.9,-12.92 -30.82,-17.38 -31.34,-12.4 -64.56,-18.82 -97.52,-25.28 -33.68,-5.02 -67.42,-9.8 -101.38,-12.7 -16.66,-2.38 -33.48,-3.16 -50.26,-3.76 -23.94,-1.82 -47.92,-2.22 -71.86,-3.38 2.7,-3.1 5.48,-6.14 8.28,-9.14 z"
     id="path10"
     inkscape:connector-curvature="0"
     style="fill:#f5e5c1" />
  <path
     d="m 316.14,803.24 c 47.8,-4.62 95.8,-7.24 143.78,-8.18 8.66,-1.08 16.22,3.46 24.1,6.16 -43.38,-0.94 -86.76,2.16 -129.96,5.88 -21.34,2.08 -42.66,4.54 -63.8,8 -17.98,4.22 -36.94,3.94 -54.34,10.58 -23.76,5.94 -47.94,12.34 -69.02,25.22 -7.62,5 -15.84,11.44 -17.54,20.96 -1.46,9.96 6.5,17.72 13.78,23.14 12.38,8.64 26.6,14.46 41.1,18.48 -12.42,-1 -24.32,-4.86 -36.32,-7.94 -17.54,-5.12 -35.38,-10.66 -50.7,-20.88 -6.92,-4.86 -14.92,-12.44 -12.12,-21.8 4.44,-11.1 16.08,-16.8 26.18,-21.82 38.8,-17.44 81.5,-22.46 122.52,-32.26 20.54,-4.04 41.56,-3.5 62.34,-5.54 z"
     id="path12"
     inkscape:connector-curvature="0"
     style="fill:#f5e5c1" />
  <path
     d="m 558.38,801.32 c 1.88,-2.06 3.78,-4.12 5.72,-6.14 39.38,2.14 78.88,3.24 118.14,7.54 21.08,4.1 42.8,3.14 63.84,7.6 13.58,2.82 27.66,2.54 40.94,6.9 16.74,2.14 33.18,6.14 49.46,10.54 18.04,5.28 36.46,10.86 52.18,21.5 6.58,4.72 13.96,11.9 11.86,20.84 -2.64,8.08 -9.96,13.24 -16.9,17.44 -15.96,9.18 -33.76,14.56 -51.42,19.44 -10.7,2.58 -21.28,6.16 -32.36,6.46 14.66,-3.68 28.88,-9.7 41.36,-18.24 6.9,-5.02 14.34,-12.02 14.12,-21.24 -0.1,-9.14 -7.6,-15.92 -14.44,-20.94 -21.78,-14.88 -47.96,-20.64 -72.9,-27.78 -15.36,-2.36 -30.4,-6.44 -45.74,-8.92 -54.16,-9 -109.04,-13.02 -163.86,-15 z"
     id="path14"
     inkscape:connector-curvature="0"
     style="fill:#f5e5c1" />
  <path
     d="m 270.32,828.76 c 72.9,-14.7 147.48,-19.64 221.74,-20.2 5.22,-0.44 9.94,2.1 14.6,4.04 -23.02,0.6 -46.16,1.54 -68.82,6 -11.18,2.24 -22.62,4.82 -32.42,10.92 -9.22,6.26 -18.54,12.98 -24.72,22.46 2.5,4.04 6.24,7.08 10.7,8.7 14.08,5.62 29.24,7.54 44.14,9.68 47.92,5.52 96.48,5.4 144.36,-0.28 14.86,-2.18 30.04,-4.26 43.86,-10.44 3.1,-1.78 7.62,-3.76 7.6,-7.96 0.26,-4.04 -3.92,-6.06 -6.38,-8.5 -8,-5.94 -14.5,-14.08 -23.98,-17.78 -16.22,-6.46 -33.72,-8.6 -50.94,-10.72 1.16,-1.86 2.32,-3.72 3.48,-5.56 51.7,2.22 103.44,6.08 154.52,14.66 30.1,5.34 60.44,11.44 88.62,23.62 10.2,4.96 21.56,10.3 27.12,20.78 3.96,7.5 -0.94,15.88 -6.82,20.68 -10.9,9.02 -24.32,14.22 -37.54,18.86 -32.32,10.7 -66.02,16.5 -99.68,21.24 -39.7,5.26 -79.7,8.72 -119.76,9 -30.62,1.92 -61.3,0.68 -91.94,1.04 -21.66,-1.04 -43.34,-1.36 -65,-2.34 -47.72,-3.22 -95.44,-8.6 -142.16,-19.02 -21.54,-5.16 -43.32,-10.86 -62.84,-21.6 -7.84,-4.62 -16.46,-10.42 -18.62,-19.86 -0.98,-10.38 8.56,-17.46 16.32,-22.44 22.9,-13.2 49,-19.28 74.56,-24.98 z"
     id="path16"
     inkscape:connector-curvature="0"
     style="fill:#f5e5c1" />
  <path
     d="m 479.12,821.54 c 13.54,-0.66 27.12,-1.24 40.66,-0.54 5.06,0.28 9.26,3.8 14.26,4.28 4.72,-0.56 8.98,-3.66 13.9,-2.74 15.64,1.42 31.44,3.5 46.36,8.6 4.76,1.92 10.42,3.8 12.82,8.76 1.04,3.06 -2.08,5.26 -4.08,6.98 -8.68,5.56 -19.14,7.16 -29.04,9.34 -30.92,5.52 -62.5,5.94 -93.8,4.58 -19.44,-1.34 -39.04,-3.3 -57.76,-8.98 -5.64,-2.12 -12.4,-3.98 -15.4,-9.74 0.06,-5.9 6.6,-8.14 11.08,-10.18 19.5,-7.12 40.46,-8.78 61,-10.36 z"
     id="path18"
     inkscape:connector-curvature="0"
     style="fill:#f4722b" />
</svg>
