<?xml version="1.0" encoding="UTF-8" ?>
<!DOCTYPE svg PUBLIC "-//W3C//DTD SVG 1.1//EN" "http://www.w3.org/Graphics/SVG/1.1/DTD/svg11.dtd">
<svg width="512pt" height="512pt" viewBox="0 0 512 512" version="1.1" xmlns="http://www.w3.org/2000/svg">
<path fill="#f4722b" opacity="1.00" d=" M 0.00 0.00 L 156.34 0.00 C 196.68 53.96 227.73 114.42 251.87 177.18 C 266.65 215.89 278.89 255.56 288.67 295.81 C 266.25 299.46 243.88 303.34 221.46 306.98 C 212.36 275.00 197.31 244.84 178.32 217.60 C 156.81 186.93 129.41 160.40 97.95 140.07 C 74.47 124.93 48.80 113.26 22.09 105.10 C 14.77 102.93 7.35 101.10 0.00 99.02 L 0.00 0.00 Z" />
<path fill="#3e3e3e" opacity="1.00" d=" M 156.34 0.00 L 512.00 0.00 L 512.00 512.00 L 0.00 512.00 L 0.00 99.02 C 7.35 101.10 14.77 102.93 22.09 105.10 C 48.80 113.26 74.47 124.93 97.95 140.07 C 129.41 160.40 156.81 186.93 178.32 217.60 C 197.31 244.84 212.36 275.00 221.46 306.98 C 243.88 303.34 266.25 299.46 288.67 295.81 C 278.89 255.56 266.65 215.89 251.87 177.18 C 227.73 114.42 196.68 53.96 156.34 0.00 Z" />
<path fill="#f4722b" opacity="1.00" d=" M 125.67 328.62 C 204.72 315.86 283.82 303.36 362.88 290.66 C 345.14 311.65 327.46 332.72 308.85 352.96 C 295.27 367.76 281.90 382.77 268.18 397.45 C 220.73 374.39 173.22 351.45 125.67 328.62 Z" />
<path fill="#f5e5c1" opacity="1.00" d=" M 289.20 389.22 C 307.47 389.79 325.74 390.83 343.95 392.36 C 353.69 392.94 363.36 394.49 373.11 394.96 C 380.94 396.40 388.88 397.17 396.76 398.30 C 414.23 402.05 431.89 405.06 449.08 410.06 C 464.84 414.71 480.84 419.94 494.40 429.51 C 499.98 433.72 506.08 439.41 505.94 446.98 C 506.46 454.92 500.03 460.86 494.24 465.26 C 478.88 475.91 460.69 481.39 442.85 486.29 C 395.23 498.47 346.02 502.93 297.05 505.20 C 233.21 507.27 168.99 505.02 105.93 494.28 C 82.56 490.06 59.18 484.89 37.13 475.88 C 28.02 471.92 18.81 467.44 11.69 460.33 C 7.50 456.13 4.32 450.05 5.90 444.00 C 7.64 437.32 13.05 432.47 18.48 428.65 C 30.73 420.34 44.87 415.46 58.91 411.13 C 75.96 406.09 93.39 402.43 110.92 399.53 C 122.46 396.93 134.19 394.93 146.04 394.53 C 168.65 392.05 191.35 390.42 214.08 389.51 C 218.91 388.81 222.74 392.35 227.20 393.46 C 205.71 394.26 184.21 394.95 162.78 396.84 C 156.59 397.97 150.30 398.09 144.05 398.68 C 133.51 398.98 123.23 401.48 112.79 402.71 C 93.48 405.91 74.02 409.55 55.79 416.89 C 49.44 419.64 42.70 422.76 38.63 428.61 C 35.81 432.61 37.48 438.11 41.02 441.09 C 47.90 447.39 56.97 450.52 65.64 453.52 C 91.43 461.56 118.32 465.29 145.09 468.29 C 185.27 472.21 225.63 474.40 266.01 473.89 C 299.57 472.91 333.15 471.10 366.52 467.29 C 387.58 464.71 408.63 461.48 429.12 455.88 C 438.24 453.30 447.37 450.36 455.61 445.60 C 459.72 443.08 464.13 439.92 465.40 434.99 C 466.23 431.09 463.76 427.50 460.98 425.04 C 456.50 421.13 451.03 418.58 445.57 416.35 C 429.90 410.15 413.29 406.94 396.81 403.71 C 379.97 401.20 363.10 398.81 346.12 397.36 C 337.79 396.17 329.38 395.78 320.99 395.48 C 309.02 394.57 297.03 394.37 285.06 393.79 C 286.41 392.24 287.80 390.72 289.20 389.22 Z" />
<path fill="#f5e5c1" opacity="1.00" d=" M 158.07 401.62 C 181.97 399.31 205.97 398.00 229.96 397.53 C 234.29 396.99 238.07 399.26 242.01 400.61 C 220.32 400.14 198.63 401.69 177.03 403.55 C 166.36 404.59 155.70 405.82 145.13 407.55 C 136.14 409.66 126.66 409.52 117.96 412.84 C 106.08 415.81 93.99 419.01 83.45 425.45 C 79.64 427.95 75.53 431.17 74.68 435.93 C 73.95 440.91 77.93 444.79 81.57 447.50 C 87.76 451.82 94.87 454.73 102.12 456.74 C 95.91 456.24 89.96 454.31 83.96 452.77 C 75.19 450.21 66.27 447.44 58.61 442.33 C 55.15 439.90 51.15 436.11 52.55 431.43 C 54.77 425.88 60.59 423.03 65.64 420.52 C 85.04 411.80 106.39 409.29 126.90 404.39 C 137.17 402.37 147.68 402.64 158.07 401.62 Z" />
<path fill="#f5e5c1" opacity="1.00" d=" M 279.19 400.66 C 280.13 399.63 281.08 398.60 282.05 397.59 C 301.74 398.66 321.49 399.21 341.12 401.36 C 351.66 403.41 362.52 402.93 373.04 405.16 C 379.83 406.57 386.87 406.43 393.51 408.61 C 401.88 409.68 410.10 411.68 418.24 413.88 C 427.26 416.52 436.47 419.31 444.33 424.63 C 447.62 426.99 451.31 430.58 450.26 435.05 C 448.94 439.09 445.28 441.67 441.81 443.77 C 433.83 448.36 424.93 451.05 416.10 453.49 C 410.75 454.78 405.46 456.57 399.92 456.72 C 407.25 454.88 414.36 451.87 420.60 447.60 C 424.05 445.09 427.77 441.59 427.66 436.98 C 427.61 432.41 423.86 429.02 420.44 426.51 C 409.55 419.07 396.46 416.19 383.99 412.62 C 376.31 411.44 368.79 409.40 361.12 408.16 C 334.04 403.66 306.60 401.65 279.19 400.66 Z" />
<path fill="#f5e5c1" opacity="1.00" d=" M 135.16 414.38 C 171.61 407.03 208.90 404.56 246.03 404.28 C 248.64 404.06 251.00 405.33 253.33 406.30 C 241.82 406.60 230.25 407.07 218.92 409.30 C 213.33 410.42 207.61 411.71 202.71 414.76 C 198.10 417.89 193.44 421.25 190.35 425.99 C 191.60 428.01 193.47 429.53 195.70 430.34 C 202.74 433.15 210.32 434.11 217.77 435.18 C 241.73 437.94 266.01 437.88 289.95 435.04 C 297.38 433.95 304.97 432.91 311.88 429.82 C 313.43 428.93 315.69 427.94 315.68 425.84 C 315.81 423.82 313.72 422.81 312.49 421.59 C 308.49 418.62 305.24 414.55 300.50 412.70 C 292.39 409.47 283.64 408.40 275.03 407.34 C 275.61 406.41 276.19 405.48 276.77 404.56 C 302.62 405.67 328.49 407.60 354.03 411.89 C 369.08 414.56 384.25 417.61 398.34 423.70 C 403.44 426.18 409.12 428.85 411.90 434.09 C 413.88 437.84 411.43 442.03 408.49 444.43 C 403.04 448.94 396.33 451.54 389.72 453.86 C 373.56 459.21 356.71 462.11 339.88 464.48 C 320.03 467.11 300.03 468.84 280.00 468.98 C 264.69 469.94 249.35 469.32 234.03 469.50 C 223.20 468.98 212.36 468.82 201.53 468.33 C 177.67 466.72 153.81 464.03 130.45 458.82 C 119.68 456.24 108.79 453.39 99.03 448.02 C 95.11 445.71 90.80 442.81 89.72 438.09 C 89.23 432.90 94.00 429.36 97.88 426.87 C 109.33 420.27 122.38 417.23 135.16 414.38 Z" />
<path fill="#f4722b" opacity="1.00" d=" M 239.56 410.77 C 246.33 410.44 253.12 410.15 259.89 410.50 C 262.42 410.64 264.52 412.40 267.02 412.64 C 269.38 412.36 271.51 410.81 273.97 411.27 C 281.79 411.98 289.69 413.02 297.15 415.57 C 299.53 416.53 302.36 417.47 303.56 419.95 C 304.08 421.48 302.52 422.58 301.52 423.44 C 297.18 426.22 291.95 427.02 287.00 428.11 C 271.54 430.87 255.75 431.08 240.10 430.40 C 230.38 429.73 220.58 428.75 211.22 425.91 C 208.40 424.85 205.02 423.92 203.52 421.04 C 203.55 418.09 206.82 416.97 209.06 415.95 C 218.81 412.39 229.29 411.56 239.56 410.77 Z" />
</svg>
