<?xml version="1.0" encoding="UTF-8" ?>
<!DOCTYPE svg PUBLIC "-//W3C//DTD SVG 1.1//EN" "http://www.w3.org/Graphics/SVG/1.1/DTD/svg11.dtd">
<svg width="512pt" height="512pt" viewBox="0 0 512 512" version="1.1" xmlns="http://www.w3.org/2000/svg">
<path fill="#3e3e3e" opacity="1.00" d=" M 0.00 0.00 L 203.48 0.00 C 203.51 11.78 203.57 23.56 204.46 35.31 C 209.10 35.29 213.74 35.29 218.38 35.26 C 218.38 23.51 218.33 11.75 218.29 0.00 L 255.16 0.00 C 255.19 11.60 255.05 23.19 254.88 34.79 C 271.78 34.72 288.69 34.46 305.58 33.72 C 304.73 22.48 304.27 11.23 303.42 0.00 L 512.00 0.00 L 512.00 512.00 L 0.00 512.00 L 0.00 0.00 Z" />
<path fill="#f4e5c1" opacity="1.00" d=" M 203.48 0.00 L 218.29 0.00 C 218.33 11.75 218.38 23.51 218.38 35.26 C 213.74 35.29 209.10 35.29 204.46 35.31 C 203.57 23.56 203.51 11.78 203.48 0.00 Z" />
<path fill="#f4e5c1" opacity="1.00" d=" M 255.16 0.00 L 303.42 0.00 C 304.27 11.23 304.73 22.48 305.58 33.72 C 288.69 34.46 271.78 34.72 254.88 34.79 C 255.05 23.19 255.19 11.60 255.16 0.00 Z" />
<path fill="#f4e5c1" opacity="1.00" d=" M 219.05 41.28 C 239.07 41.45 259.05 39.93 279.06 40.17 C 292.28 40.42 305.81 38.09 318.77 41.71 C 318.71 44.87 318.57 48.04 318.04 51.16 C 315.73 67.12 313.32 83.06 310.86 98.99 C 310.70 100.07 310.54 101.14 310.39 102.22 C 309.71 105.08 309.43 108.01 309.41 110.94 C 311.52 113.04 313.53 115.23 315.57 117.41 C 313.31 119.97 311.03 122.53 308.57 124.90 C 307.27 128.78 307.52 132.92 307.51 136.96 C 309.88 138.38 312.22 139.88 314.55 141.38 C 314.53 141.85 314.49 142.78 314.47 143.24 C 312.67 146.26 309.86 149.18 310.26 152.96 C 310.68 163.59 311.64 174.18 312.58 184.77 C 308.33 184.87 304.08 184.89 299.82 184.79 C 299.91 173.52 299.43 162.25 299.35 150.98 C 299.24 148.34 300.32 145.90 301.13 143.45 C 293.16 141.94 285.02 142.97 276.97 142.75 C 262.31 143.59 247.62 142.97 232.95 143.55 C 226.72 143.76 220.50 143.85 214.27 143.92 C 214.64 158.53 213.80 173.12 213.63 187.73 C 209.26 187.83 204.89 187.85 200.52 187.69 C 200.43 180.81 200.50 173.92 200.15 167.05 C 199.16 160.94 199.83 154.72 199.36 148.57 C 197.93 134.11 199.36 119.50 197.63 105.06 C 197.48 102.68 197.38 100.29 197.22 97.91 C 196.45 92.59 195.83 87.25 195.24 81.90 C 194.09 74.59 193.08 67.25 192.17 59.90 C 191.31 54.59 190.54 49.27 190.10 43.91 C 192.54 42.60 195.04 41.00 197.93 41.15 C 204.97 41.14 212.02 41.05 219.05 41.28 Z" />
<path fill="#3e3e3e" opacity="1.00" d=" M 217.52 48.60 C 219.96 46.01 223.84 47.06 226.99 46.71 C 245.30 45.63 263.65 46.38 281.98 46.16 C 284.83 46.25 287.76 45.86 290.56 46.55 C 293.68 48.25 296.95 50.10 299.17 52.93 C 299.56 60.51 299.18 68.11 299.34 75.69 C 286.19 75.76 273.06 76.10 259.91 76.29 C 256.78 76.07 254.36 78.98 254.22 81.94 C 269.22 86.76 283.94 92.44 298.80 97.65 C 298.71 100.68 298.55 103.70 298.41 106.73 C 293.43 108.36 288.18 108.78 283.12 110.08 C 280.50 110.58 279.45 113.28 278.56 115.46 C 285.85 116.01 292.61 118.90 299.64 120.64 C 298.92 124.72 298.61 128.84 298.54 132.97 C 296.55 134.37 294.70 136.51 292.07 136.42 C 284.40 136.87 276.71 136.76 269.03 136.89 C 250.51 137.78 231.98 137.66 213.46 138.38 C 213.51 133.20 213.52 127.42 217.55 123.54 C 233.91 121.07 250.44 119.55 266.86 117.49 C 269.44 117.30 271.09 115.17 272.77 113.48 C 272.68 113.00 272.50 112.03 272.41 111.55 C 261.61 111.21 250.77 111.87 240.00 110.76 C 231.49 110.46 222.98 110.30 214.47 110.22 C 214.18 95.83 214.33 81.43 214.22 67.04 C 214.26 62.37 213.33 57.71 213.91 53.04 C 214.59 51.21 216.13 49.90 217.52 48.60 Z" />
<path fill="#f4e5c1" opacity="1.00" d=" M 248.29 162.30 C 252.43 159.74 256.40 156.82 261.01 155.14 C 263.85 157.53 267.05 159.58 269.46 162.44 C 270.80 175.62 271.13 188.91 272.51 202.09 C 276.29 203.76 280.03 205.51 283.80 207.21 C 289.91 210.27 296.94 209.76 303.56 210.47 C 303.30 212.75 302.96 215.02 302.56 217.28 C 293.64 217.79 284.79 219.01 275.90 219.83 C 263.68 221.52 251.31 220.48 239.06 219.77 C 229.47 219.56 219.89 219.03 210.32 218.38 C 211.13 215.57 210.54 211.87 212.86 209.80 C 221.14 209.37 229.46 209.64 237.75 209.17 C 241.72 208.94 244.67 205.95 247.53 203.53 C 249.69 201.42 251.99 199.04 252.39 195.91 C 253.65 187.03 254.87 178.13 256.06 169.24 C 256.31 167.44 256.89 165.70 257.52 164.00 C 255.61 165.26 253.64 166.44 251.72 167.69 C 249.86 176.81 249.03 186.10 247.43 195.27 C 241.95 199.02 237.21 205.32 229.98 205.17 C 222.56 205.32 215.14 205.88 207.72 205.68 C 207.21 205.98 206.21 206.60 205.71 206.91 C 204.16 211.92 203.08 217.10 203.26 222.36 C 213.77 225.53 225.02 224.20 235.68 226.56 C 235.20 231.50 235.29 236.47 235.64 241.42 C 241.34 242.02 247.07 241.77 252.79 241.84 C 252.92 237.57 252.48 233.26 253.13 229.02 C 253.99 225.59 257.78 224.27 260.98 224.74 C 274.71 225.69 288.34 223.28 301.98 222.10 C 304.68 221.89 307.45 221.41 309.52 219.51 C 309.61 214.52 309.93 209.52 309.52 204.54 C 304.96 204.62 300.42 204.23 295.90 203.73 C 289.46 203.46 284.05 199.61 278.18 197.43 C 277.90 195.36 277.64 193.28 277.40 191.21 C 287.29 191.30 297.17 190.70 307.07 190.62 C 331.72 191.27 356.38 190.10 381.04 190.18 C 399.00 189.52 416.98 190.04 434.95 189.61 C 443.91 189.52 452.88 189.21 461.85 189.40 C 462.45 199.27 462.22 209.22 462.01 219.09 C 461.58 222.05 458.99 224.64 455.92 224.66 C 401.09 229.05 346.25 233.45 291.41 237.84 C 291.90 239.75 292.37 241.66 292.75 243.60 C 290.77 244.71 288.80 245.85 286.84 246.99 C 288.55 249.69 290.50 252.23 292.59 254.65 C 293.91 262.37 293.21 270.23 293.83 278.01 C 295.25 286.59 293.74 295.38 295.19 303.95 C 295.53 308.53 295.48 313.12 295.56 317.70 C 292.79 320.19 289.98 322.62 287.14 325.00 C 288.61 325.88 290.09 326.77 291.57 327.66 C 291.47 329.97 291.37 332.29 291.32 334.61 C 289.38 336.63 287.31 338.50 285.17 340.29 C 287.94 342.27 290.79 344.16 293.70 345.93 C 293.46 355.61 293.84 365.34 292.76 374.98 C 292.44 383.98 292.55 393.00 292.17 402.01 C 291.18 408.34 291.70 414.79 291.37 421.18 C 289.77 422.45 288.19 423.76 286.68 425.15 C 286.90 429.32 286.52 433.53 286.92 437.70 C 288.50 441.11 291.94 443.05 294.79 445.29 C 298.03 447.83 301.58 450.00 304.57 452.85 C 304.99 462.24 303.92 471.59 303.59 480.95 C 297.49 484.70 291.21 488.22 285.67 492.78 C 277.70 498.77 267.71 501.36 257.88 501.95 C 259.77 502.23 263.55 502.79 265.45 503.07 C 257.78 503.95 250.00 504.04 242.32 503.19 C 243.49 502.86 245.84 502.21 247.01 501.88 C 242.90 501.46 238.87 500.57 234.90 499.45 C 231.34 498.43 227.44 497.95 224.44 495.61 C 218.02 490.87 214.07 483.72 208.47 478.14 C 207.83 475.45 207.35 472.72 206.96 469.99 C 206.61 468.27 206.27 466.56 205.84 464.87 C 205.68 463.47 205.53 462.08 205.40 460.69 C 209.95 456.13 213.94 451.06 218.44 446.46 C 222.18 443.20 220.32 437.85 220.61 433.55 C 223.00 431.27 224.90 428.56 226.94 425.98 C 224.29 424.19 221.90 422.08 219.53 419.97 C 217.80 412.16 219.05 404.11 217.90 396.24 C 217.08 389.53 217.86 382.73 216.91 376.03 C 216.06 369.72 216.82 363.32 215.95 357.02 C 215.37 352.69 215.42 348.31 215.40 343.95 C 219.65 339.25 224.38 334.96 228.32 330.00 L 228.38 328.97 C 224.79 324.58 220.56 320.74 216.36 316.94 C 216.21 311.22 216.45 305.50 216.67 299.79 C 217.85 294.21 217.26 288.47 217.70 282.81 C 218.83 277.23 218.30 271.51 218.73 265.87 C 219.55 261.79 219.49 257.62 219.52 253.48 C 222.44 251.08 225.35 248.65 227.96 245.91 C 225.85 244.54 223.77 242.90 221.19 242.58 C 163.04 235.80 104.86 229.28 46.72 222.39 C 45.39 214.91 44.37 207.38 43.32 199.86 C 42.31 196.47 45.63 193.04 49.00 193.29 C 90.68 193.32 132.37 193.48 174.05 193.55 C 179.05 193.50 184.03 194.47 189.04 194.00 C 204.71 193.06 220.42 193.39 236.10 192.65 C 238.42 192.46 240.76 190.43 240.86 188.02 C 241.30 181.40 242.46 174.85 243.57 168.32 C 243.97 165.61 246.06 163.65 248.29 162.30 Z" />
<path fill="#3e3e3e" opacity="1.00" d=" M 313.50 197.72 C 354.00 197.59 394.51 197.57 435.01 197.46 C 441.03 197.50 447.06 197.29 453.09 197.60 C 453.46 204.12 453.23 210.70 454.31 217.17 C 404.48 221.09 354.70 225.63 304.89 229.85 C 299.73 230.51 294.50 230.41 289.40 231.44 C 288.16 230.18 287.61 228.55 287.50 226.82 C 300.30 225.11 313.13 223.84 326.04 223.40 C 354.71 221.67 383.37 219.73 412.05 218.15 C 419.16 217.10 426.45 217.96 433.50 216.38 C 434.22 215.69 434.56 214.85 434.53 213.84 C 434.69 210.05 434.28 206.25 433.27 202.59 C 409.50 202.35 385.72 202.41 361.94 202.31 C 354.30 202.17 346.64 202.55 339.02 201.85 C 330.57 201.51 322.10 201.91 313.65 201.51 C 313.62 200.56 313.54 198.67 313.50 197.72 Z" />
<path fill="#3e3e3e" opacity="1.00" d=" M 52.57 199.38 C 70.36 198.82 88.16 199.77 105.96 199.76 C 120.96 200.28 135.97 200.67 150.98 200.79 C 167.99 201.94 185.07 201.06 202.06 202.57 C 199.95 203.97 197.50 204.66 194.96 204.49 C 163.24 204.42 131.52 204.60 99.81 204.36 C 93.76 204.00 87.73 203.51 81.67 203.37 C 79.13 207.83 80.96 212.84 81.73 217.50 C 87.35 219.11 93.28 218.10 99.00 219.02 C 128.35 220.84 157.69 222.70 187.04 224.60 C 199.75 226.08 212.59 226.17 225.27 227.84 C 225.43 230.15 224.24 232.24 223.51 234.36 C 177.00 229.48 130.42 225.08 83.89 220.27 C 74.14 219.03 64.25 218.59 54.59 216.77 C 54.26 210.95 53.79 205.09 52.57 199.38 Z" />
<path fill="#3e3e3e" opacity="1.00" d=" M 235.39 248.24 C 241.85 247.03 248.45 247.84 254.98 247.88 C 262.06 248.41 269.18 247.96 276.27 248.42 C 274.85 249.80 273.82 252.13 271.55 252.17 C 266.52 252.60 261.46 252.53 256.43 252.89 C 256.81 266.26 256.29 279.66 257.35 292.99 C 257.50 301.49 257.59 309.99 257.68 318.50 C 267.12 318.83 276.56 318.22 286.00 318.36 C 285.74 321.48 283.98 324.05 282.05 326.37 C 269.29 326.53 256.53 326.45 243.78 326.52 C 239.78 322.69 235.63 318.98 231.99 314.81 C 231.17 311.28 232.15 307.63 232.30 304.07 C 233.03 289.34 233.97 274.63 234.88 259.91 C 235.33 256.02 234.61 252.10 235.39 248.24 Z" />
<path fill="#3e3e3e" opacity="1.00" d=" M 231.51 342.04 C 231.23 339.25 232.65 336.80 233.82 334.40 C 238.16 335.22 242.48 336.29 246.92 336.38 C 255.20 336.60 263.50 338.22 271.77 336.94 C 275.27 336.37 278.84 336.27 282.38 336.55 C 282.47 337.16 282.66 338.38 282.76 338.99 C 281.79 340.44 280.83 341.89 279.90 343.35 C 277.69 344.07 275.40 344.53 273.07 344.49 C 268.17 344.48 263.34 345.41 258.46 345.66 C 256.57 359.00 257.10 372.55 255.78 385.95 C 255.43 398.84 254.68 411.75 255.42 424.65 C 263.78 426.07 272.29 424.96 280.73 425.29 C 281.05 427.96 280.97 430.67 280.34 433.30 C 273.54 433.11 266.76 432.62 259.98 432.18 C 257.10 431.70 254.09 433.97 253.89 436.92 C 253.39 444.09 254.21 451.34 253.24 458.48 C 251.55 464.22 249.61 469.93 247.25 475.43 C 244.59 478.07 241.18 480.20 237.71 481.62 C 233.18 481.06 229.63 477.50 226.06 474.90 C 223.10 470.92 219.87 465.81 221.71 460.66 C 223.78 455.45 227.20 450.93 230.57 446.51 C 234.41 442.23 232.14 436.08 232.92 430.93 C 232.81 428.43 235.10 426.98 236.54 425.30 C 235.87 421.16 234.26 417.23 233.84 413.05 C 232.84 397.70 232.64 382.33 232.22 366.96 C 231.54 358.67 231.72 350.35 231.51 342.04 Z" />
</svg>
