<?xml version="1.0" encoding="UTF-8" standalone="no"?>
<svg
   xmlns:dc="http://purl.org/dc/elements/1.1/"
   xmlns:cc="http://creativecommons.org/ns#"
   xmlns:rdf="http://www.w3.org/1999/02/22-rdf-syntax-ns#"
   xmlns:svg="http://www.w3.org/2000/svg"
   xmlns="http://www.w3.org/2000/svg"
   xmlns:sodipodi="http://sodipodi.sourceforge.net/DTD/sodipodi-0.dtd"
   xmlns:inkscape="http://www.inkscape.org/namespaces/inkscape"
   width="1280"
   height="1280"
   viewBox="0 0 1024 1024"
   version="1.1"
   id="svg2"
   inkscape:version="0.48.1 "
   sodipodi:docname="burn_rj_soldier.svg">
  <metadata
     id="metadata26">
    <rdf:RDF>
      <cc:Work
         rdf:about="">
        <dc:format>image/svg+xml</dc:format>
        <dc:type
           rdf:resource="http://purl.org/dc/dcmitype/StillImage" />
      </cc:Work>
    </rdf:RDF>
  </metadata>
  <defs
     id="defs24" />
  <sodipodi:namedview
     pagecolor="#ffffff"
     bordercolor="#666666"
     borderopacity="1"
     objecttolerance="10"
     gridtolerance="10"
     guidetolerance="10"
     inkscape:pageopacity="0"
     inkscape:pageshadow="2"
     inkscape:window-width="1920"
     inkscape:window-height="1018"
     id="namedview22"
     showgrid="false"
     inkscape:zoom="0.6609375"
     inkscape:cx="640"
     inkscape:cy="640"
     inkscape:window-x="-8"
     inkscape:window-y="-8"
     inkscape:window-maximized="1"
     inkscape:current-layer="svg2"
     fit-margin-top="0"
     fit-margin-left="0"
     fit-margin-right="0"
     fit-margin-bottom="0" />
  <path
     d="m 0,0 1024,0 0,1024 L 0,1024 0,0 z"
     id="path4"
     inkscape:connector-curvature="0"
     style="fill:#3e3e3e" />
  <path
     d="m 440.75,18.9 c -0.87397,0.0128 -1.77,0.035 -2.65,0.1 -8.14,1.28 -16.99,2.01 -23.55,7.55 -6.98,5.72 -14.87,10.49 -20.95,17.25 -10.56,10.36 -13.06,26.02 -13.1,40.2 -0.52,13.42 4.06,26.51 2.4,39.95 -1.16,9.62 -1.84,19.75 -6.5,28.45 -8.16,12.08 -20.32,21.54 -34.2,26.1 -7.82,2.82 -15.62,6.35 -24,7.05 -10.78,0.78 -21.39,-1.56 -32.05,-2.7 -18.54,-0.7 -38.12,-0.91 -55.2,7.45 -6.4,3.08 -14.33,3.73 -19.25,9.35 -9.06,9.94 -18.2,20.53 -22.2,33.65 -3.8,11.9 -7.34,24.09 -7.8,36.65 0.56,20.96 13.68,39.11 15,59.95 0.4,9.7 1.87,19.58 -0.05,29.2 -7.42,23.32 -26.89,39.61 -46.25,53.15 -12.12,7.26 -26.29,11.15 -40.45,10.55 -19.16,-0.7 -38.41,-0.17 -57.45,2.25 -7.2,1.6 -13.45,6.06 -19.05,10.7 -8.08,8.8 -8.93,23.18 -2.75,33.3 6.14,12.64 16.16,22.77 23.3,34.75 5.12,11.24 11.43,22.13 14.25,34.25 1.58,13.58 1.65,27.36 3.55,40.9 4.98,13.52 14.62,25.51 27.8,31.75 10.66,6.16 23.66,6.43 34,13.25 6.56,4.2 12.88,8.78 19,13.6 11.38,9.88 15.73,25.13 25.85,36.05 8.52,9.54 16.63,19.43 24.95,29.15 6.38,7.52 10.43,16.84 17.65,23.7 -2.66,-13.62 -6.97,-26.83 -9.65,-40.45 -2.96,-11.04 -4.64,-22.91 -1.8,-34.15 1.32,-5.54 6.62,-9.73 12.4,-9.35 12.32,-0.84 18.97,11.51 26.65,19.05 12.84,19.1 31.87,33.49 52.55,43.25 9.62,4.72 17.86,11.7 27.4,16.6 8.72,4.46 17.99,7.85 27.35,10.75 -2.86,-6.02 -5.72,-12.01 -8.5,-18.05 -4.26,-9.34 -10.68,-17.62 -14,-27.4 -1.7,-4.96 -3.57,-10.82 -0.35,-15.6 4.12,-6.78 13.1,-8.54 20.4,-6.9 11.9,1.04 20.92,10.33 32.9,11.25 -8.78,-20.5 -17.54,-43.12 -12.4,-65.7 3.6,-13.88 23.19,-18.7 33.55,-9.4 6.64,5.3 13.78,10.09 19.5,16.45 7.28,7.5 12.53,16.77 19.95,24.15 8.02,8.1 17.23,15.36 27.95,19.5 7.4,2.28 15.39,1.52 22.75,4 17.72,5.66 35.75,11.85 50.95,22.85 8.52,6.08 12.31,16.15 16.65,25.25 5.24,11.38 14.09,21.46 25.75,26.5 16.24,7.18 33.31,12.97 51.05,14.95 8.36,1.58 19.41,4.34 21.65,13.9 3.28,10.62 2.38,22.26 -1.5,32.6 -7.68,21.78 -5.98,45.41 -2.5,67.85 3.5,15.9 11.85,31.24 24.95,41.2 13.86,12.3 30.95,20.85 49.15,24.35 11.9,1.64 23.9,2.65 35.9,3.25 14.4,2.36 27.34,9.84 39.4,17.7 16.42,10.94 22.81,30.6 33.65,46.2 7.52,-8.14 2.4,-19.29 1.5,-28.85 -1.72,-13.1 -2.98,-28.12 4.3,-39.8 3.94,0.16 6.54,3.5 9.3,5.9 8.62,8.74 17.72,17.43 28.9,22.85 5.34,2.9 11.62,2.14 17.4,1.4 7.52,-1.18 13.83,-7.02 21.75,-6.2 14.44,1.62 28.24,9.1 37.3,20.5 7.86,8.36 17.25,15.17 25.35,23.35 -0.64,-21.28 -10.79,-41.07 -22.35,-58.45 -7.98,-13.1 -20.84,-21.82 -31.8,-32.2 -16.14,-12.58 -29.41,-29.61 -34.65,-49.65 -5.4,-19.66 -14.67,-39.88 -10.35,-60.6 9.72,-5.34 22.17,-6.34 32.05,-0.8 11.82,6.4 22.36,14.96 33,23.1 2.92,-12.28 -4.49,-23.66 -10.05,-34 -8.84,-17.1 -20.21,-32.75 -32.45,-47.55 -10.96,-10.96 -21.6,-23.25 -36.3,-29.25 -8.26,-3.4 -15.45,-8.8 -23.25,-13.1 -7.72,-4.56 -16.09,-7.82 -23.85,-12.3 -14.1,-8.34 -30.37,-11.57 -45.85,-16.35 -12.62,-5.36 -26.22,-9.61 -36,-19.75 -8.8,-7.12 -8.33,-19.18 -10.85,-29.2 -3.06,-10.44 -4.42,-21.75 -11.4,-30.55 -15.34,-23.32 -41.83,-34.71 -66.25,-45.95 -7.66,-3.04 -13.45,-9.35 -17.65,-16.25 -4.42,-7.38 -9.92,-14.51 -11.2,-23.25 -3.18,-19.16 -13.89,-36.32 -27.35,-50 -10.12,-12.62 -23.81,-21.7 -33.35,-34.8 -14.38,-18.26 -31.97,-34.06 -43.45,-54.5 -9.44,-13.62 -14.67,-29.45 -21.35,-44.45 -3.38,-8.16 -9.87,-14.35 -14.45,-21.75 -6.3,-9.56 -7.76,-22.23 -3.3,-32.85 3.18,-8.76 11.52,-14.1 19.5,-18 11.84,-4.98 25.45,-2.01 36.25,4.15 16,9.38 31.26,20.76 42.8,35.4 9.22,13.86 17.27,28.58 23.15,44.2 0.64,-28.94 -17.83,-56.38 -10.35,-85.5 1.42,-8.52 9.38,-16.45 18.5,-14.55 14.24,3.54 27.28,10.59 40,17.75 -3.12,-11.9 -6.48,-23.85 -12.7,-34.55 C 635.28,200.23 629.93,184.56 622.85,169.7 614.41,146.88 601.94,125.82 588,106 579.88,96.24 572.75,85.3 562.15,78 551.57,70.6 542.83,60.73 531.25,54.75 513.91,45.55 496.68,35.95 478.3,28.95 466.3,24.16875 453.85962,18.70774 440.75,18.9 z m 5.65,25.6 c 8.8225,0.0275 17.62,0.76 26.25,2.85 15.42,2.48 29.41,9.82 43.05,17 12.56,9.22 25.24,18.58 35.7,30.2 7.8,10.44 16.42,20.59 21.4,32.75 7.18,15.2 12.43,31.77 11.85,48.75 -2.68,14.32 -15.51,27.5 -30.65,27.5 -14.4,1.06 -27.71,-5.72 -41.75,-7.1 -11.14,2.5 -22.18,7.38 -30.3,15.6 -12.06,11.3 -24.65,22.04 -36.85,33.2 -4.7,4.36 -10.6,7.71 -14,13.25 -1.1,7.9 -0.6,15.93 -1.6,23.85 6.5,1.7 13.16,2.92 19.5,5.2 6.36,3.16 10.25,9.41 14.85,14.55 8.24,9.02 12.46,20.8 16.2,32.2 5.1,15.24 12.68,29.59 16.2,45.35 2.8,12.88 4.09,26.02 6.85,38.9 12.26,5.04 25.3,7.81 37.6,12.65 21.16,12.9 37.32,32.2 56.9,47.2 6.98,6.28 15.93,12.4 17.45,22.4 1.48,7.18 -1.69,14.09 -4.65,20.45 10.3,17.86 21.23,35.37 31.15,53.45 19.98,6.4 40.37,11.29 60.45,17.35 7.76,2.32 13.64,9.19 15.3,17.05 3.42,14.68 1.35,29.98 3.75,44.8 2.06,5.22 6.33,9.17 9.35,13.85 5.68,7.56 10.33,16.05 16.95,22.85 16.9,4.52 30.71,15.71 46.15,23.45 9.3,5.56 20.25,12.45 21.65,24.25 1.74,10.76 -5.76,19.65 -9.8,28.95 -4.74,8.02 -7.05,17.57 -13.75,24.35 -3.9,4.04 -9.53,5.34 -14.65,7.1 -1.8,13.86 -11.51,24.14 -19.95,34.5 -8.8,12.4 -19.03,23.72 -27.75,36.2 -7.46,10.74 -23.71,12.81 -34.25,5.55 -4.7,-3.34 -7.05,-8.82 -10.95,-12.9 -4.84,-4.26 -11.61,-7.35 -13.35,-14.15 -2.84,-7.16 0.49,-14.5 1.15,-21.7 1.1,-7.96 -0.43,-16.86 4.45,-23.8 4.44,-6.66 9.19,-13.09 13.15,-20.05 -0.54,-7.14 -0.3,-14.31 -0.3,-21.45 -9.26,-10.44 -17.62,-21.61 -27,-31.95 -12.68,-1.48 -25.47,-1.21 -38.15,-2.75 -5.16,-0.36 -9.63,-3.35 -12.95,-7.15 -12.4,-14.42 -24.35,-29.21 -36.35,-43.95 -3.86,-4.56 -6.95,-9.86 -11.55,-13.7 -6.86,-1.58 -14.21,-0.98 -20.65,-4.1 -6.52,-3 -11.02,-8.82 -15.5,-14.2 -8.08,-8.92 -15.25,-18.61 -23.85,-27.05 -6.76,4.5 -14.3,10.83 -23,8.25 -8.64,-1.8 -12.79,-10.38 -17.95,-16.6 -11.4,-13.8 -21.9,-28.31 -34,-41.55 -5.94,-1.26 -13.26,-1.64 -16.9,-7.3 -6.82,-9.94 -11.04,-21.36 -16.8,-31.9 -5.32,-9.88 -8.91,-21.29 -17.95,-28.55 -5.52,12.88 -9.29,26.48 -14.95,39.3 -7.18,10.74 -17.67,19.46 -29.75,24.2 -6.72,2.54 -13.26,5.56 -19.7,8.7 -2.8,14.42 -10.33,28.38 -22.15,37.3 -10.58,7.14 -23.44,2.5 -34.2,-1.5 -8.3,4.24 -19,7.13 -27.2,1.05 -10.38,-8.22 -19.05,-18.32 -28.25,-27.8 -5.48,-4.92 -10.31,-10.57 -14.05,-16.95 -7.02,8.06 -13.18,17.05 -21.3,24.05 -8.68,7.26 -20.76,3.68 -30.3,0.4 -11.02,-5.9 -17.36,-17.23 -26.6,-25.25 -5.14,-4.66 -11.16,-10.21 -10.4,-17.85 1.46,-12.28 2.47,-24.87 7.15,-36.45 -7.22,-1.8 -14.79,-3.25 -20.95,-7.65 -8.18,-5.7 -14.73,-13.28 -22.65,-19.3 -5.36,-4.48 -11.99,-8.2 -14.85,-14.9 -4.8,-11.02 -1.28,-25.7 9.5,-31.8 7.66,-3.88 17.45,-3.45 24.55,1.45 12.32,8.22 22.6,19.32 35.9,26.1 3.94,-8.58 7.01,-17.54 11.25,-26 4.02,-8.28 13.54,-12.2 22.3,-12.6 7.26,0.5 13.72,4.22 20.3,7 19,-22.26 37.34,-45.14 56.2,-67.5 -2.16,-7.74 -0.49,-15.55 2.35,-22.85 -7.82,-9.7 -16.23,-19.01 -22.65,-29.75 -8.26,-16.44 -12.7,-35.67 -8,-53.85 2.12,-14.54 11.6,-26.36 21.3,-36.8 24.38,-22.54 65.45,-25.28 91.55,-4.1 5.1,3.88 9.52,8.61 13.9,13.25 4.5,-6.82 9.35,-14.36 17.35,-17.4 5.64,-2.44 11.84,-2.04 17.8,-1.5 9.54,-14.2 19.61,-28.04 29.05,-42.3 5.28,-8.12 12.34,-15.18 16,-24.3 2.38,-5.98 4.1,-12.19 6.2,-18.25 -4.12,-4.36 -8.66,-8.79 -10.3,-14.75 -3.9,-13.52 -7.13,-27.63 -5.65,-41.75 1.52,-12.22 12.53,-21.63 24.65,-22.25 8.76,-0.64 17.6275,-1.3275 26.45,-1.3 z"
     id="path6"
     style="fill:#f4722b"
     inkscape:connector-curvature="0" />
  <path
     d="m 444.6,62.2 c -7.93406,-0.0359 -15.8475,0.475 -23.7,1.15 -3.46,0.68 -7.26,2.96 -7.9,6.7 -1.04,8.7 0.22,17.5 2.5,25.9 1.68,10.4 10.03,17.61 14.85,26.55 -4.94,13.34 -7.45,28.01 -16.25,39.55 -15.82,22.48 -31.36,45.16 -47.1,67.7 -6.9,-0.58 -15.95,-6.63 -21.25,0.15 -6.6,8.58 -11.78,18.16 -18,27 -8.12,-8.78 -16.47,-17.38 -24.95,-25.8 -12.84,-11.98 -32.13,-15.42 -48.85,-11.1 -19.68,4.92 -35.62,21.91 -39.3,41.85 -3.52,13.78 1.41,27.95 7.25,40.35 8.04,12.4 18.95,22.82 26.75,35.4 -0.52,5.08 -1.64,10.06 -2.4,15.1 3.2,-1.04 6.35,-2.15 9.55,-3.25 -1.88,4.14 -3.39,8.57 -6.25,12.15 -24.9,29.9 -49.58,59.96 -74.4,89.9 -9.52,-3.84 -18.71,-10.47 -29.25,-10.45 -8.2,12.1 -11.91,26.68 -18.25,39.8 -10.08,-1.88 -20.87,-3.01 -29.45,-9.15 -8.4,-6.12 -16.14,-13.07 -24.4,-19.35 -2.34,-1.48 -4.83,-3.87 -7.85,-3.05 -2.08,1.94 -3.71,4.23 -5.45,6.45 6.08,7.22 13.95,12.51 20.75,18.95 5.34,4.62 10.07,10.51 17.05,12.65 8.02,2.62 15.96,5.28 23.9,8.1 2.12,4.16 4.22,8.32 6.3,12.5 -3.66,5.22 -9.98,9.27 -10.7,16.05 -0.88,6.64 -1.58,13.33 -2.8,19.95 9.46,8.84 17.99,18.58 26.95,27.9 4.44,-0.12 9.48,1.7 13.6,0 9.96,-10.42 18.56,-22.12 28.5,-32.6 6.56,2.06 13.07,4.2 19.55,6.5 -0.14,3.42 -0.48,6.86 -0.1,10.3 4.34,6.94 11.02,12 16.4,18.1 6.64,6.44 12.25,14.06 19.95,19.3 5.58,-1.46 10.73,-4.07 15.85,-6.65 7.06,3.4 14.36,6.94 22.3,7.5 7.6,-3.54 10.9,-12.37 14.9,-19.25 2.9,-6.2 -4.08,-9.75 -8,-12.95 11.7,-4.56 23.2,-9.67 34.8,-14.45 12.9,-4.24 25.44,-12.91 29.4,-26.55 5.76,-15.98 11.69,-31.88 17.35,-47.9 9.6,5.86 20.14,10.42 28.9,17.5 11.02,18.82 19.69,38.98 30.05,58.2 2.8,-1.66 5.58,-3.33 8.4,-4.95 16.84,21.26 33.96,42.33 51,63.45 7.4,-5.26 15.19,-9.96 23.15,-14.3 11.96,14.98 24.73,29.28 37.15,43.9 6.7,9.24 20.06,3.79 28.8,9.05 17.78,20.3 33.45,42.63 52.05,62.15 14.84,2.8 30.37,1.14 45.25,3.6 12.3,13.7 23.62,28.32 35.4,42.5 -0.32,11.3 1.13,22.62 0.15,33.9 -3.92,7.96 -9.69,14.85 -14.25,22.45 -5.6,8.22 -1.84,18.54 -1.8,27.7 -0.22,8.64 10.41,11.27 12.65,19.05 1.58,5.82 9.95,5.42 12.55,0.6 13.5,-17.88 27.56,-35.32 40.9,-53.3 3.32,-8.54 3.78,-17.96 6.6,-26.7 5.34,0.6 12.64,6.19 16.3,-0.05 5.52,-9.5 9.88,-19.6 15,-29.3 1.28,-3.18 4.09,-7.06 1.75,-10.4 -3.04,-4.04 -7.75,-6.11 -11.95,-8.65 -12.02,-6.58 -23.56,-14.11 -35.8,-20.25 -2.98,0.74 -5.92,1.48 -8.9,2.2 -12.04,-17.08 -24.87,-33.68 -36.25,-51.2 -1.84,-15.06 -1.04,-30.46 -2.7,-45.6 -0.44,-4.46 -5.19,-6.14 -8.85,-7.2 -19.24,-5.46 -38.57,-10.69 -57.75,-16.35 -5.1,-1.02 -6.93,-6.39 -9.45,-10.25 -11.46,-20.58 -24.1,-40.48 -35.1,-61.3 0.3,-5.74 9.38,-9.91 7.4,-16.65 -4.86,-6.48 -11.67,-11.12 -17.55,-16.6 -15.52,-12.94 -29.33,-28.17 -46.45,-39.05 -15,-5.58 -30.46,-9.99 -45.7,-14.85 -2.04,-14.06 -4.54,-28.06 -6.8,-42.1 -2.94,-19.82 -13.93,-37.13 -19.35,-56.25 -3.4,-12.24 -10.93,-23.03 -20.95,-30.75 -12.8,-3.9 -26.05,-6.2 -39.05,-9.3 4.02,-5.74 9.82,-10.84 11.2,-18 0.84,-8.88 0.49,-17.8 0.85,-26.7 19.68,-17.04 39.04,-34.4 58.5,-51.7 10.32,-10.52 24.84,-15 38.3,-20 14.18,1.72 27.64,7.5 41.9,8.7 9.64,0.66 16.07,-9.66 14.85,-18.4 C 565.33,153.46 559.2,139.96 552.8,127 544.02,113.54 534.51,100.15 521.05,90.95 510.21,80.93 496.98,74.24 483.5,68.5 470.9875,63.825 457.82344,62.25977 444.6,62.2 z M 312.9,387.85 c -6.84,28.24 -13.7,56.48 -20.6,84.7 -10.18,7.82 -20.76,15.13 -31.7,21.85 -8.88,4.76 -18.47,8.16 -27.05,13.5 -5.56,-2.14 -10.91,-4.83 -15.65,-8.45 31.6,-37.22 63.36,-74.38 95,-111.6 z"
     id="path10"
     style="fill:#f5e5c1"
     inkscape:connector-curvature="0" />
  <path
     d="m 634.76,357.76 c 1.46,-13.3 6.62,-25.82 11.08,-38.32 3.24,6.96 5.12,14.42 7.74,21.62 5.3,13.32 14.74,24.6 25.6,33.76 6.38,4.96 14.38,6.9 21.54,10.42 16.46,6.94 29.6,19.66 41.36,32.78 11.26,13.2 13.54,31.24 13.54,47.96 -0.7,12.54 -0.36,25.36 -4.48,37.4 -9.86,-14.18 -12.88,-32.62 -25.74,-44.78 -8.44,-8.28 -18.02,-15.3 -27.5,-22.28 -13.32,-7.74 -27.52,-13.88 -41.06,-21.24 -8.6,-4.68 -12.78,-14.2 -16.7,-22.66 -2.7,-11.38 -6.8,-22.8 -5.38,-34.66 z"
     id="path12"
     inkscape:connector-curvature="0"
     style="fill:#f4722b" />
  <path
     d="m 266.14,469.6 c 3.86,-5.18 8.18,-10 13.02,-14.28 -0.98,7.24 -7.08,11.2 -13.02,14.28 z"
     id="path16"
     inkscape:connector-curvature="0"
     style="fill:#f4722b" />
  <path
     d="m 383.44,748.22 c 27.02,-3.86 56.88,-7.18 81.6,7 9.68,8.86 17.66,19.54 26.18,29.56 12.54,18.42 35.6,25.22 49.58,42.22 6.66,8.58 10.82,18.78 12.98,29.38 -31.54,-13.94 -63.12,-28.16 -96.38,-37.62 -7.96,-2.3 -16.26,-5.76 -21.26,-12.72 -7.68,-10.46 -9.36,-24.22 -17.94,-34.16 -4.62,-5.34 -8.7,-11.46 -14.92,-15.1 -6.04,-4.06 -13.22,-5.74 -19.84,-8.56 z"
     id="path18"
     inkscape:connector-curvature="0"
     style="fill:#f4722b" />
  <path
     d="m 285.94,761.5 c 8.36,-1.06 17.22,-2 25.18,1.48 10.36,4.32 20.54,9.52 29.48,16.34 9.12,10.12 18.06,20.54 28.7,29.12 4.96,3.66 9.76,7.5 14.48,11.48 -15.24,-0.48 -30.92,-2.52 -44.92,-8.76 -12.92,-5.98 -15.22,-21.7 -25.5,-30.38 -8.36,-7.46 -15.82,-16.9 -27.42,-19.28 z"
     id="path20"
     inkscape:connector-curvature="0"
     style="fill:#f4722b" />
</svg>
