<?xml version="1.0" encoding="UTF-8" standalone="no"?>
<svg
   xmlns:dc="http://purl.org/dc/elements/1.1/"
   xmlns:cc="http://creativecommons.org/ns#"
   xmlns:rdf="http://www.w3.org/1999/02/22-rdf-syntax-ns#"
   xmlns:svg="http://www.w3.org/2000/svg"
   xmlns="http://www.w3.org/2000/svg"
   xmlns:sodipodi="http://sodipodi.sourceforge.net/DTD/sodipodi-0.dtd"
   xmlns:inkscape="http://www.inkscape.org/namespaces/inkscape"
   width="1280"
   height="1280"
   viewBox="0 0 1024 1024"
   version="1.1"
   id="svg2"
   inkscape:version="0.48.1 "
   sodipodi:docname="burn_medicpair.svg">
  <metadata
     id="metadata22">
    <rdf:RDF>
      <cc:Work
         rdf:about="">
        <dc:format>image/svg+xml</dc:format>
        <dc:type
           rdf:resource="http://purl.org/dc/dcmitype/StillImage" />
      </cc:Work>
    </rdf:RDF>
  </metadata>
  <defs
     id="defs20" />
  <sodipodi:namedview
     pagecolor="#ffffff"
     bordercolor="#666666"
     borderopacity="1"
     objecttolerance="10"
     gridtolerance="10"
     guidetolerance="10"
     inkscape:pageopacity="0"
     inkscape:pageshadow="2"
     inkscape:window-width="1920"
     inkscape:window-height="1018"
     id="namedview18"
     showgrid="false"
     inkscape:zoom="0.6609375"
     inkscape:cx="640"
     inkscape:cy="640"
     inkscape:window-x="-8"
     inkscape:window-y="-8"
     inkscape:window-maximized="1"
     inkscape:current-layer="svg2"
     fit-margin-top="0"
     fit-margin-left="0"
     fit-margin-right="0"
     fit-margin-bottom="0" />
  <path
     d="m 0,0 1024,0 0,1024 L 0,1024 0,0 z"
     id="path4"
     inkscape:connector-curvature="0"
     style="fill:#3e3e3e" />
  <path
     d="m 371.56,43.62 c 24.26,-2.68 48.48,-5.7 72.72,-8.5 8.38,-1.3 17.52,4.38 18.3,13.22 2.16,18.44 2.16,37.1 4.18,55.58 12.38,-0.76 24.82,-0.38 37.2,-1.3 6.28,-0.4 13.72,0.12 18.02,5.36 4.12,5.08 3.86,12.04 2.86,18.14 -2.58,17.32 -4.48,34.72 -7.22,52 -0.48,7.1 -6.32,13.04 -13.32,13.88 -10.66,1.18 -21.42,0.18 -32.12,0.52 1.28,15.1 1.94,30.26 3.12,45.38 0.24,6.72 1.48,14.64 -3.48,20.08 -4.3,5.08 -11.42,5.4 -17.52,6.18 -30.76,2.14 -61.48,5.2 -92.24,7.14 -9.66,0.98 -17.12,-8.2 -16.62,-17.38 -0.06,-20.46 0.22,-40.94 0.38,-61.42 -16.68,0.14 -33.38,0.1 -49.98,-1.64 -6.74,-0.98 -14.86,-3.6 -16.7,-11.06 -4.04,-16.6 -7.88,-33.26 -11.8,-49.88 -2.4,-9.1 5.1,-19.38 14.7,-19.22 21.5,-1.26 43.02,-1.72 64.54,-2.34 0.16,-14.86 0.26,-29.7 0.46,-44.54 0.04,-5.46 0.88,-11.58 5.3,-15.34 5.02,-5.2 12.72,-3.98 19.22,-4.86 z"
     id="path6"
     inkscape:connector-curvature="0"
     style="fill:#f5e5c1" />
  <path
     d="m 362.28,59.22 c 28.74,-1.72 57.18,-6.96 85.9,-9.14 1.16,23.18 2.62,46.36 4.5,69.5 19.44,-0.74 38.88,-1.24 58.3,-2.26 -2.84,20 -5.52,40.06 -8.12,60.1 -15.56,0.06 -31.12,-0.02 -46.66,0.04 1.58,23.6 3.18,47.22 4.6,70.86 -33.4,3.1 -66.88,5.38 -100.32,8.28 0,-26.44 0.68,-52.88 0.64,-79.32 -22.7,0.04 -45.56,1.18 -68.08,-2.08 -3.7,-16.6 -7.78,-33.08 -11.56,-49.64 26.68,-0.92 53.38,-1.8 80.06,-2.88 -0.02,-21.16 0.12,-42.3 0.74,-63.46 z"
     id="path8"
     style="fill:#f4722b"
     inkscape:connector-curvature="0" />
  <path
     d="m 727.7,205.58 c 4.04,-4.58 10.62,-4.82 16.28,-4.82 41.36,-0.42 82.7,-0.8 124.04,-1.64 7.9,-0.68 17.6,2.58 19.64,11.14 2.88,14.06 1,28.58 2.52,42.78 0.6,25.86 1.72,51.72 2.58,77.58 28.4,0.54 56.84,0.7 85.26,0.82 9.9,-0.56 18.42,8.64 16.78,18.5 -4.1,30.12 -8.3,60.26 -12.34,90.4 -1.2,6.7 -1.14,13.84 -4.06,20.1 -3.6,6.6 -11.62,8.08 -18.48,8.3 -20.86,0.28 -41.68,1.66 -62.52,2.4 1.54,35.56 2.32,71.14 3.84,106.7 -0.06,6.84 1.02,13.88 -0.96,20.56 -2.04,6.18 -8.32,10.14 -14.72,10.22 -48.58,2.58 -97.2,4.82 -145.8,7.34 -7.96,0.2 -16.6,2 -24.02,-1.74 -6.36,-3.68 -7.82,-11.52 -7.16,-18.26 1.4,-39.18 2.78,-78.34 4.6,-117.5 -30.42,1 -60.82,2.52 -91.26,3.5 -9.04,0.12 -18.6,2.58 -27.28,-0.98 -6.42,-2.82 -9.32,-10.12 -8.68,-16.8 2.48,-38.84 4.92,-77.68 7.48,-116.52 0.64,-5.34 0.5,-11.56 4.78,-15.48 3.58,-3.62 8.94,-3.94 13.72,-3.92 35.56,0.12 71.1,1 106.66,0.96 1.64,-33.72 2.46,-67.48 4.08,-101.2 0.34,-7.56 -0.96,-16.6 5.02,-22.44 z"
     id="path10"
     style="fill:#f5e5c1"
     inkscape:connector-curvature="0" />
  <path
     d="m 738.16,215.68 c 45.1,-0.42 90.2,-0.58 135.28,-1.44 2.16,43.74 2.94,87.56 4.78,131.32 33.94,-0.1 67.88,1.14 101.82,1 -4.62,35.64 -9.58,71.22 -14.54,106.82 -27.82,1.04 -55.66,1.92 -83.46,3.34 1.2,45.62 3.36,91.2 4.36,136.8 -54.38,2.72 -108.76,5.64 -163.14,7.98 2,-46.3 3.62,-92.6 5.34,-138.9 -42.54,2.06 -85.12,3.34 -127.66,5.28 1.92,-36.66 4.76,-73.26 6.8,-109.9 0.26,-4.88 1,-9.74 2.02,-14.52 41.14,-0.52 82.26,1.06 123.38,1.04 1.8,-42.94 3.24,-85.88 5.02,-128.82 z"
     id="path12"
     style="fill:#f4722b"
     inkscape:connector-curvature="0" />
  <path
     d="m 183.88,502.46 c 68.72,-4.26 137.42,-8.82 206.14,-13.08 7.4,-0.74 16.24,2.62 17.94,10.62 1.64,9.92 0.28,20.08 0.98,30.08 1.2,11.88 0.44,23.84 1.88,35.7 -0.18,26.56 1.64,53.06 1.6,79.62 47.1,-0.32 94.2,0.76 141.3,1.28 9,0.08 16.26,8.24 15.64,17.16 0.56,50.7 1.38,101.42 1.62,152.14 0.44,9.38 -7.18,17.98 -16.88,17.22 -46.82,-3.1 -93.62,-6.44 -140.44,-9.74 0.6,40.88 0.44,81.78 1.04,122.68 0.22,6.94 -2.26,14.74 -9.1,17.76 -7.48,2.5 -15.52,2.46 -23.32,3.1 -52.4,4.18 -104.78,8.44 -157.16,12.62 -5.74,0.32 -12.28,0.12 -16.7,-4.08 -4.34,-3.8 -4.82,-9.92 -5.34,-15.28 -4.78,-50.82 -9.54,-101.62 -14.28,-152.44 -37.56,-2.58 -75.12,-5.2 -112.68,-7.84 -11.34,-1.16 -22.86,-0.76 -34.06,-3.08 -7.42,-1.82 -11.34,-9.76 -10.96,-16.96 0,-40.62 -0.12,-81.26 0.06,-121.88 -0.36,-7.62 5.14,-15.02 12.86,-15.94 11.96,-1.38 24.04,0.04 36.04,0.12 31.1,-0.06 62.22,0.22 93.32,0.66 -4,-40.28 -7.52,-80.6 -11.46,-120.88 -0.86,-6.34 1.84,-13.32 7.44,-16.68 4.42,-2.4 9.6,-2.52 14.52,-2.88 z"
     id="path14"
     inkscape:connector-curvature="0"
     style="fill:#f5e5c1" />
  <path
     d="m 176.7,517.78 c 72.02,-3.96 143.96,-9.28 215.96,-13.42 1.74,51.94 4.36,103.84 4.88,155.82 52.3,0.24 104.6,0.9 156.9,1.4 0.6,52.32 0.8,104.64 1.5,156.94 -52.42,-4 -104.88,-7.5 -157.32,-11.02 0.58,47.68 0.2,95.38 0.94,143.06 -60.32,4.74 -120.64,9.82 -180.98,14.4 C 213.22,907.9 207.92,850.84 202.48,793.78 150.4,790.04 98.3,786.48 46.2,782.84 c 0.06,-42 0.08,-84.02 -0.02,-126.02 47.82,0.88 95.68,-0.2 143.48,1.62 -3.98,-46.92 -8.84,-93.76 -12.96,-140.66 z"
     id="path16"
     style="fill:#f4722b"
     inkscape:connector-curvature="0" />
</svg>
