<?xml version="1.0" encoding="UTF-8" standalone="no"?>
<svg
   xmlns:dc="http://purl.org/dc/elements/1.1/"
   xmlns:cc="http://creativecommons.org/ns#"
   xmlns:rdf="http://www.w3.org/1999/02/22-rdf-syntax-ns#"
   xmlns:svg="http://www.w3.org/2000/svg"
   xmlns="http://www.w3.org/2000/svg"
   xmlns:sodipodi="http://sodipodi.sourceforge.net/DTD/sodipodi-0.dtd"
   xmlns:inkscape="http://www.inkscape.org/namespaces/inkscape"
   width="1280"
   height="1280"
   viewBox="0 0 1024 1024"
   version="1.1"
   id="svg2"
   inkscape:version="0.48.1 "
   sodipodi:docname="damage_grind.svg">
  <metadata
     id="metadata140">
    <rdf:RDF>
      <cc:Work
         rdf:about="">
        <dc:format>image/svg+xml</dc:format>
        <dc:type
           rdf:resource="http://purl.org/dc/dcmitype/StillImage" />
      </cc:Work>
    </rdf:RDF>
  </metadata>
  <defs
     id="defs138" />
  <sodipodi:namedview
     pagecolor="#ffffff"
     bordercolor="#666666"
     borderopacity="1"
     objecttolerance="10"
     gridtolerance="10"
     guidetolerance="10"
     inkscape:pageopacity="0"
     inkscape:pageshadow="2"
     inkscape:window-width="1920"
     inkscape:window-height="1018"
     id="namedview136"
     showgrid="false"
     inkscape:zoom="0.6609375"
     inkscape:cx="466.00473"
     inkscape:cy="640"
     inkscape:window-x="-8"
     inkscape:window-y="-8"
     inkscape:window-maximized="1"
     inkscape:current-layer="layer1"
     fit-margin-top="0"
     fit-margin-left="0"
     fit-margin-right="0"
     fit-margin-bottom="0"
     inkscape:snap-page="true" />
  <g
     inkscape:groupmode="layer"
     id="layer1"
     inkscape:label="background">
    <rect
       style="fill:#3e3e3e;fill-opacity:1;fill-rule:nonzero;stroke:none"
       id="rect3058"
       width="1280"
       height="1280"
       x="0"
       y="0"
       transform="scale(0.8,0.8)" />
  </g>
  <g
     inkscape:groupmode="layer"
     id="layer2"
     inkscape:label="foreground">
    <path
       d="m 912.5,118.22 c 13.46,-31.94 41.24,-58.44 75.36,-66.68 5.36,16.5 10.62,33.06 15.5,49.72 -18.62,4.8 -37.42,13.12 -49.5,28.66 -6.5,7.94 -10.36,17.6 -12.64,27.52 14.8,-6.22 33.16,-7.5 46.42,2.94 13.24,9.54 18.34,26.24 18.3,41.96 -10.24,0.12 -20.48,0 -30.68,-0.72 -3.78,-5 -8.04,-11.3 -15.22,-10.66 -7.62,-0.64 -12.68,5.6 -17.16,10.72 -13.58,0.6 -27.18,0.34 -40.78,0.2 -5.12,-28.1 -0.56,-57.46 10.4,-83.66 z"
       id="path6"
       style="fill:#5f5a50;fill-opacity:1"
       inkscape:connector-curvature="0" />
    <path
       style="fill:#5f5a50;fill-opacity:1"
       d="m 219.95,59.9 c -4.05667,0.0277 -8.12875,0.5175 -12.1,1.5 -15.5,3.6 -28.28,15.39 -34.3,29.95 -12.08,27.1 -6.05,64.21 20.45,80.55 13.56,8.98 30.9,6.96 44.9,0.2 -3.54,12.46 -11.37,22.87 -19.05,33.05 11.86,4.64 22.2,12.1 31.4,20.8 13.72,-19.9 26.35,-41.69 29.05,-66.15 3.34,-26.24 1.02,-55.08 -14.8,-77.2 C 255.08374,68.31625 237.52894,59.77997 219.95,59.9 z m 2.15,51.5 c 8.08984,-0.10791 16.08626,6.115 16.85,14.5 1.5,9.7 -7.48,18.68 -17,18.6 -8.46,0.52 -16.53,-6.08 -17.85,-14.4 -0.84,-7.9 5.3,-15.11 12.5,-17.55 1.78875,-0.75 3.63312,-1.1251 5.5,-1.15 z"
       id="path8"
       inkscape:connector-curvature="0" />
    <path
       style="fill:#5f5a50;fill-opacity:1"
       d="m 355.35,59.9 c -2.51141,-0.0394 -5.04499,0.125 -7.55,0.45 -17.84,1.86 -33.55,14.45 -40.25,30.95 -11.82,26.72 -6.38,63.2 19.3,79.9 13.66,9.64 31.62,7.96 46,0.9 -3.52,12.44 -11.19,22.93 -19.05,32.95 11.86,4.72 22.31,12.11 31.45,20.95 12.26,-17.88 23.79,-37.07 27.85,-58.65 5.02,-28.1 3.6,-59.43 -12.8,-83.75 C 390.18501,69.145 372.92984,60.17563 355.35,59.9 z m 0.8,51.45 c 10.17651,-0.12017 19.84312,10.25375 16.35,20.75 -3.38,13.82 -24.2,16.9 -31.6,4.8 -6.98,-8.66 -0.06,-21.44 9.6,-24.3 1.84062,-0.80625 3.76546,-1.22775 5.65,-1.25 z"
       id="path10"
       inkscape:connector-curvature="0" />
    <path
       style="fill:#5f5a50;fill-opacity:1"
       d="m 489.45,59.9 c -4.0508,-0.0864 -8.1025,0.2875 -12.1,1.15 -16.14,3.2 -29.63,15.34 -35.85,30.4 -11.76,26.66 -6.34,62.93 19.2,79.65 13.7,9.68 31.78,8.16 46.2,1 -3.54,12.48 -11.4,22.87 -19.1,33.05 11.7,4.7 22.31,11.73 31.05,20.85 8.72,-11.52 16.07,-24.1 21.75,-37.4 7.9,-18.44 9.85,-38.92 8.65,-58.8 -1.26,-16.18 -5.62,-32.6 -14.9,-46.1 -10.09125,-14.495 -27.34651,-23.42574 -44.9,-23.8 z m 0.95,51.5 c 8.65731,0.0911 17.1375,7.43375 16.65,16.55 0.18,9 -8.22,16.55 -17,16.55 -8.54,0.6 -16.74,-6.12 -18,-14.5 -0.8,-7.86 5.39,-14.91 12.45,-17.45 1.9125,-0.8175 3.90216,-1.17102 5.9,-1.15 z"
       id="path12"
       inkscape:connector-curvature="0" />
    <path
       style="fill:#5f5a50;fill-opacity:1"
       d="m 683.35,59.9 c -4.04859,-0.0787 -8.10626,0.32625 -12.1,1.2 -16.08,3.2 -29.5,15.29 -35.7,30.25 -12.04,27.1 -6.12,64.25 20.4,80.55 13.56,8.96 30.93,7 44.95,0.2 -3.58,12.44 -11.32,22.92 -19.1,33 11.88,4.64 22.26,12.12 31.5,20.8 13.24,-19.28 25.51,-40.22 28.65,-63.8 3.8,-26.54 1.81,-55.71 -13.65,-78.45 C 718.17626,69.1875 700.8939,60.24093 683.35,59.9 z m 0.7,51.5 c 8.1335,-0.12772 16.23499,6.215 16.95,14.6 1.18,8.9 -6.22,17.47 -15,18.35 -9.12,1.68 -18.57,-5.27 -19.95,-14.35 -0.7,-7.82 5.35,-14.88 12.45,-17.4 1.7925,-0.7725 3.67304,-1.17053 5.55,-1.2 z"
       id="path14"
       inkscape:connector-curvature="0" />
    <path
       style="fill:#5f5a50;fill-opacity:1"
       d="m 815.6,59.9 c -1.24672,0.0252 -2.50374,0.0838 -3.75,0.2 -18.12,1.12 -34.64,13.36 -41.7,30 -12.64,26.88 -7.36,64.1 18.7,81.1 13.68,9.58 31.67,8 46.05,0.9 -3.62,12.3 -10.94,22.91 -19.2,32.55 11.64,5.3 22.38,12.38 31.6,21.3 8.34,-12.24 16.25,-24.87 21.85,-38.65 6.96,-16.78 8.89,-35.26 8.35,-53.3 C 876.82,116.82 872.59,99.39 863.15,84.85 852.8,69.26875 834.3007,59.52251 815.6,59.9 z m 2.5,51.5 c 8.10792,-0.0881 16.13501,6.215 16.85,14.6 1.42,9.72 -7.49,18.68 -17.05,18.5 -8.48,0.5 -16.56,-6.17 -17.8,-14.55 -0.68,-7.8 5.31,-14.94 12.45,-17.4 1.78875,-0.75 3.67894,-1.12967 5.55,-1.15 z"
       id="path16"
       inkscape:connector-curvature="0" />
    <path
       d="m 570.36,236.1 c -2.68,-10.74 3.54,-24.84 15.62,-25.7 12.9,-1.6 22.72,13.28 18.9,24.9 -4.76,14.12 -9.34,30.04 -22.94,38.24 -4.1,-1.28 -6.22,-6 -9.2,-8.94 3.76,-4.34 7.46,-8.74 11.06,-13.18 -5.48,-3.98 -12.52,-7.88 -13.44,-15.32 z"
       id="path28"
       inkscape:connector-curvature="0"
       style="fill:#5f5a50" />
    <path
       style="fill:#857e71;fill-opacity:1"
       d="m 197.35,213.95 c -1.18402,0.027 -2.3675,0.0913 -3.55,0.2 -15.04,1 -29.23,9.52 -37.35,22.2 -12.76,19.82 -14.38,46.22 -4.3,67.5 6.8,13.86 19.83,25.49 35.45,27.75 10.44,2.04 20.6,-1.72 29.8,-6.3 -3.86,11.84 -10.41,22.48 -18.35,32 11.62,5.14 21.33,13.56 29.35,23.3 11.46,-15.52 21.46,-32.54 26.8,-51.2 7.42,-30.74 6.88,-66.13 -11.7,-92.95 -10.65,-14.23125 -28.38965,-22.90474 -46.15,-22.5 z m 2.6,51.45 c 8.16734,-0.16282 16.33499,6.03374 17.05,14.5 1.28,8.92 -6.2,17.6 -15,18.5 -9.08,1.52 -18.65,-5.33 -19.95,-14.45 -0.72,-7.78 5.23,-14.91 12.35,-17.35 1.78875,-0.76501 3.66523,-1.16243 5.55,-1.2 z"
       id="path30"
       inkscape:connector-curvature="0" />
    <path
       style="fill:#857e71;fill-opacity:1"
       d="m 331.45,213.95 c -1.18387,0.0267 -2.3675,0.0913 -3.55,0.2 -15.1,0.98 -29.38,9.51 -37.5,22.25 -12.74,19.8 -14.32,46.26 -4.2,67.5 6.82,13.92 19.9,25.52 35.6,27.7 10.38,1.98 20.48,-1.74 29.6,-6.3 -3.86,11.84 -10.43,22.48 -18.35,32 11.62,5.14 21.31,13.58 29.35,23.3 11.4,-15.52 21.46,-32.46 26.8,-51.1 7.44,-30.76 6.86,-66.14 -11.7,-93 -10.6125,-14.23125 -28.292,-22.95034 -46.05,-22.55 z m 2.6,51.45 c 8.14582,-0.11058 16.28374,6.1 16.95,14.55 1.26,8.94 -6.28,17.61 -15.1,18.45 -9,1.46 -18.42,-5.28 -19.8,-14.3 -0.82,-7.88 5.16,-15.13 12.4,-17.55 1.78875,-0.75 3.67019,-1.12448 5.55,-1.15 z"
       id="path32"
       inkscape:connector-curvature="0" />
    <path
       style="fill:#857e71;fill-opacity:1"
       d="m 465.5,213.95 c -1.18138,0.0256 -2.32,0.0925 -3.5,0.2 -15.1,0.96 -29.41,9.48 -37.55,22.2 -12.78,19.84 -14.39,46.3 -4.25,67.6 6.82,13.86 19.89,25.47 35.55,27.65 10.38,2.04 20.52,-1.76 29.7,-6.3 -3.88,11.84 -10.45,22.49 -18.35,32.05 11.62,5.14 21.28,13.53 29.3,23.25 12.12,-16.46 22.74,-34.6 27.7,-54.6 6.3,-29.84 5.38,-63.73 -12.6,-89.55 -10.6125,-14.19374 -28.27934,-22.88402 -46,-22.5 z m 2.55,51.45 c 8.17578,-0.13114 16.35,6.10125 17,14.6 1.2,8.92 -6.35,17.58 -15.15,18.4 -8.98,1.44 -18.38,-5.27 -19.8,-14.25 -0.86,-7.88 5.13,-15.16 12.35,-17.6 1.7925,-0.76125 3.71328,-1.11974 5.6,-1.15 z"
       id="path34"
       inkscape:connector-curvature="0" />
    <path
       style="fill:#857e71;fill-opacity:1"
       d="m 659.35,213.95 c -1.18387,0.0292 -2.3675,0.0888 -3.55,0.2 -15.06,0.98 -29.28,9.53 -37.4,22.25 -12.72,19.78 -14.29,46.16 -4.25,67.4 6.8,13.94 19.88,25.58 35.6,27.8 10.38,2 20.49,-1.74 29.65,-6.3 -3.84,11.84 -10.45,22.49 -18.35,32.05 11.64,5.12 21.29,13.55 29.35,23.25 12.06,-16.5 22.78,-34.58 27.7,-54.6 6.3,-29.86 5.39,-63.78 -12.65,-89.6 -10.65,-14.19374 -28.34184,-22.88784 -46.1,-22.45 z m 2.85,51.4 c 10.1383,-0.11083 19.69062,10.15374 16.4,20.65 -3.3,13.32 -22.64,17.04 -30.8,6.1 -8.3,-8.48 -1.62,-22.72 8.8,-25.6 1.8375,-0.79688 3.72254,-1.12947 5.6,-1.15 z"
       id="path36"
       inkscape:connector-curvature="0" />
    <path
       style="fill:#857e71;fill-opacity:1"
       d="m 793.45,213.95 c -1.18498,0.0265 -2.36626,0.0913 -3.55,0.2 -15.06,0.96 -29.33,9.5 -37.45,22.2 -12.78,19.8 -14.38,46.24 -4.3,67.5 6.84,13.96 19.94,25.62 35.7,27.8 10.34,1.96 20.46,-1.81 29.6,-6.35 -3.88,11.84 -10.45,22.49 -18.35,32.05 11.62,5.12 21.26,13.53 29.3,23.25 14.86,-20.18 27.6,-43.14 30.1,-68.5 3,-25.76 0.41,-53.86 -14.95,-75.6 -10.63125,-14.25 -28.32544,-22.94806 -46.1,-22.55 z m 2.65,51.45 c 8.17051,-0.0998 16.3325,6.20125 16.95,14.7 1.18,8.9 -6.31,17.42 -15.05,18.3 -9.04,1.48 -18.59,-5.32 -19.95,-14.4 -0.76,-7.86 5.28,-15.05 12.5,-17.45 1.79626,-0.75374 3.6645,-1.12698 5.55,-1.15 z"
       id="path38"
       inkscape:connector-curvature="0" />
    <path
       d="m 878.02,214 c 42.14,0.26 84.28,-0.6 126.4,0.6 -0.06,11.78 0.42,23.54 0.06,35.32 -0.02,5.6 -2.58,10.7 -5.1,15.56 -15.96,31 -31.04,62.46 -46.74,93.58 -11.84,-5.94 -24.86,-9.16 -38.12,-9.6 14.64,-28.08 29.28,-56.16 43.38,-84.5 -26.42,0.28 -52.84,1.74 -79.26,2.14 -0.52,-17.68 -0.84,-35.4 -0.62,-53.1 z"
       id="path40"
       style="fill:#857e71;fill-opacity:1"
       inkscape:connector-curvature="0" />
    <path
       d="m 915.6,361.75 c -18.56962,0.19331 -37.1875,8.3075 -49,22.85 -13.68,16.12 -18.16,39.2 -12.3,59.4 3.36,11.82 11.47,21.33 19.75,30.05 -8.3,10.78 -13.82,23.8 -13.3,37.6 11.38,-2.12 23.18,-2.36 34.3,1.2 -1.12,-5.88 -2.45,-12.76 1.75,-17.8 8.84,-12.38 32.05,-6.61 33.25,8.85 0.52,8.96 -7.49,14.8 -14.85,18 9.24,7.1 17.17,15.84 22.75,26.1 13.54,-8.04 24.19,-21.91 25.05,-38.05 1.32,-12.08 -4.16,-23.39 -11,-32.95 13.46,-9.74 23.4,-24.48 26.1,-41 4.68,-26.86 -9.98,-55.58 -34.3,-67.8 -8.74501,-4.45501 -18.47306,-6.55126 -28.2,-6.45 z m -2.2,48.65 c 6.63374,-0.25125 13.40499,1.27501 18.7,5.4 8.58,6.64 11.28,20.2 4.9,29.2 -9.96,14 -34.18,14.4 -43.8,-0.2 -8.32,-12.08 -0.5,-30.52 13.7,-33.6 2.12499,-0.44499 4.28875,-0.71626 6.5,-0.8 z"
       id="path52"
       style="fill:#b3a994;fill-opacity:1"
       inkscape:connector-curvature="0" />
    <path
       style="fill:#b3a994;fill-opacity:1"
       d="m 172.2,363.9 c -3.38061,0.005 -6.7625,0.33626 -10.1,1 -13.4,2.52 -25.41,11.06 -32.45,22.7 -12.26,20.1 -13.44,46.58 -2.8,67.6 7.84,15.18 23.55,27.2 41.15,26.9 8.48,0.36 16.26,-3.4 23.6,-7.2 -4.8,14.78 -13.64,27.83 -24.7,38.65 12.18,4.86 23.05,12.55 31.45,22.65 9.14,-11.9 17.37,-24.56 23.85,-38.1 10.28,-20.96 12.74,-44.98 10.7,-68 -2.1,-18.06 -7.79,-36.81 -20.95,-49.95 -10.48125,-10.28626 -25.10069,-16.2721 -39.75,-16.25 z m 1.9,51.5 c 8.19494,-0.10581 16.36499,6.18499 16.95,14.7 1.16,8.84 -6.3,17.42 -15,18.3 -9.04,1.54 -18.58,-5.26 -20,-14.3 -0.8,-7.88 5.23,-15.11 12.45,-17.55 1.8,-0.76125 3.70886,-1.12558 5.6,-1.15 z"
       id="path54"
       inkscape:connector-curvature="0" />
    <path
       style="fill:#b3a994;fill-opacity:1"
       d="m 305.3,363.95 c -4.49469,0.0816 -8.94499,0.70501 -13.3,1.95 -11.74,3.3 -22.01,11.3 -28.35,21.7 -12.26,20.14 -13.47,46.66 -2.75,67.7 7.82,15.12 23.51,27.05 41.05,26.75 8.5,0.38 16.31,-3.35 23.65,-7.15 -4.82,14.76 -13.61,27.86 -24.75,38.6 12.18,4.96 23.11,12.6 31.55,22.7 9.34,-12.32 17.88,-25.36 24.4,-39.4 10.3,-21.84 12.51,-46.84 9.65,-70.6 -2.7,-18.08 -9.27,-36.98 -23.75,-49 -10.32,-8.73 -23.91594,-13.49469 -37.4,-13.25 z m 2.7,51.45 c 8.18651,-0.14269 16.4,6.15125 17.05,14.65 1.22,8.92 -6.35,17.55 -15.15,18.35 -9.04,1.46 -18.53,-5.41 -19.85,-14.45 -0.68,-7.8 5.24,-14.93 12.4,-17.35 1.79626,-0.76875 3.6608,-1.16707 5.55,-1.2 z"
       id="path56"
       inkscape:connector-curvature="0" />
    <path
       style="fill:#b3a994;fill-opacity:1"
       d="m 439.7,363.95 c -4.60906,0.0481 -9.18,0.68 -13.65,1.95 -11.76,3.3 -22.06,11.25 -28.4,21.65 -12.28,20.08 -13.47,46.56 -2.85,67.6 7.82,15.18 23.53,27.25 41.15,26.95 8.48,0.36 16.31,-3.38 23.65,-7.2 -4.76,14.88 -13.8,27.83 -24.7,38.85 12.34,4.56 23.02,12.47 31.5,22.45 9.9,-13.12 18.98,-27.05 25.6,-42.15 8.86,-19.96 10.74,-42.39 8.9,-63.95 -2.22,-18.96 -8.38,-38.93 -23.1,-51.95 -10.36499,-9.21 -24.27282,-14.34437 -38.1,-14.2 z m 2.3,51.45 c 8.19146,-0.14765 16.4,6.10125 17.05,14.6 1.22,8.92 -6.35,17.58 -15.15,18.4 -9,1.46 -18.43,-5.32 -19.85,-14.3 -0.8,-7.86 5.15,-15.06 12.35,-17.5 1.79626,-0.76875 3.70966,-1.16592 5.6,-1.2 z"
       id="path58"
       inkscape:connector-curvature="0" />
    <path
       d="m 548.32,389.96 c -2.86,-11.28 4.68,-26.24 17.58,-25.6 8.44,-0.58 13.74,6.84 17.28,13.42 -4.22,7.94 -8.5,16.02 -10.48,24.88 -1.4,5.42 -1.84,11.14 -4,16.34 -2.46,3.66 -5.92,6.5 -9.02,9.6 -3.08,-3.4 -6.18,-6.82 -9.24,-10.24 3.98,-4.22 7.88,-8.52 11.7,-12.9 -5.82,-3.8 -12.98,-7.82 -13.82,-15.5 z"
       id="path60"
       style="fill:#857e71;fill-opacity:1"
       inkscape:connector-curvature="0" />
    <path
       style="fill:#b3a994;fill-opacity:1"
       d="m 634.35,363.9 c -3.36707,-9.3e-4 -6.72374,0.3475 -10.05,1 -13.48,2.46 -25.62,11.03 -32.7,22.75 -12.24,20.08 -13.39,46.53 -2.75,67.55 7.84,15.18 23.53,27.19 41.15,26.85 8.46,0.38 16.28,-3.35 23.6,-7.15 -4.8,14.8 -13.66,27.84 -24.7,38.7 12.22,4.8 23.02,12.56 31.5,22.6 8.74,-11.54 16.72,-23.73 23.1,-36.75 10.78,-21.26 13.53,-45.75 11.45,-69.25 -2.12,-18.1 -7.83,-36.98 -21.05,-50.1 -10.4325,-10.25374 -24.95934,-16.196 -39.55,-16.2 z m 1.7,51.4 c 10.19389,-0.20083 19.87374,10.13626 16.6,20.7 -3.36,13.3 -22.69,17.03 -30.85,6.05 -8.26,-8.4 -1.7,-22.49 8.6,-25.45 1.84374,-0.82187 3.76224,-1.26282 5.65,-1.3 z"
       id="path62"
       inkscape:connector-curvature="0" />
    <path
       style="fill:#b3a994;fill-opacity:1"
       d="m 768.25,363.9 c -2.16046,0.0119 -4.2975,0.16501 -6.45,0.45 -14.78,1.56 -28.44,10.47 -36.1,23.15 -12.34,20.14 -13.5,46.72 -2.8,67.8 7.86,15.12 23.54,27.09 41.1,26.75 8.48,0.38 16.26,-3.35 23.6,-7.15 -4.78,14.86 -13.83,27.85 -24.75,38.85 12.34,4.56 23.05,12.45 31.55,22.45 14.1,-18.98 27.31,-39.58 32.35,-63 3.7,-19.48 4.19,-39.88 -0.75,-59.2 -3.3,-11.94 -8.25,-23.89 -17.05,-32.85 -10.5525,-10.85 -25.57672,-17.33312 -40.7,-17.25 z m 1.85,51.45 c 10.12243,-0.17802 19.73875,9.95374 16.6,20.45 -3.22,13.4 -22.7,17.32 -30.9,6.3 -8.28,-8.44 -1.66,-22.65 8.7,-25.55 1.83125,-0.80626 3.72547,-1.16704 5.6,-1.2 z"
       id="path64"
       inkscape:connector-curvature="0" />
    <path
       d="m 522.38,540.2 c -2.7,-10.66 3.48,-24.78 15.44,-25.76 9.14,-1.46 17.02,6 19.12,14.4 1.84,4.44 -2.3,8.1 -4.02,11.84 -4.94,7.58 -7.3,16.36 -9.54,25.02 -1.22,5.52 -5.96,9.04 -9.62,12.98 -3.14,-3.44 -6.26,-6.9 -9.36,-10.38 4.06,-4.16 8,-8.46 11.82,-12.86 -5.82,-3.68 -12.96,-7.62 -13.84,-15.24 z"
       id="path78"
       style="fill:#b3a994;fill-opacity:1"
       inkscape:connector-curvature="0" />
    <path
       d="m 144.25,521.9 c -2.15551,0.01 -4.3025,0.17 -6.45,0.45 -14.3,1.54 -27.64,9.95 -35.4,22.05 -13.02,20.24 -14.41,47.37 -3.55,68.85 7.58,14.5 22.25,26.17 39.05,26.75 9.18,0.78 17.92,-2.7 25.7,-7.2 -8.32,26.84 -30.4,46.56 -53.7,60.8 8.08,11.64 16.18,23.27 24.2,34.95 23.34,-16.08 41.58,-38.6 55.3,-63.2 15.66,-26.6 19.51,-59.13 13.65,-89.15 -3.16,-13.5 -8.34,-27.09 -18.2,-37.15 -10.53501,-10.7975 -25.51144,-17.21864 -40.6,-17.15 z m 2.65,51.45 c 9.18353,0.3325 17.83875,8.93125 16.1,18.6 -1.54,14.56 -22.55,19.85 -31.15,8.15 -8.36,-8.44 -1.7,-22.67 8.7,-25.55 2.05125,-0.88875 4.23072,-1.27674 6.35,-1.2 z"
       id="path80"
       style="fill:#f5e5c1"
       inkscape:connector-curvature="0" />
    <path
       style="fill:#f5e5c1"
       d="m 278.25,521.9 c -2.15797,0.0111 -4.3,0.1675 -6.45,0.45 -14.34,1.52 -27.66,9.98 -35.4,22.1 -12.98,20.26 -14.4,47.41 -3.5,68.85 7.58,14.5 22.25,26.14 39.05,26.7 9.16,0.78 17.87,-2.72 25.65,-7.2 -8.32,26.84 -30.4,46.56 -53.7,60.8 8.08,11.64 16.18,23.27 24.2,34.95 23.34,-16.06 41.58,-38.6 55.3,-63.2 15.7,-26.66 19.52,-59.27 13.6,-89.35 -3.16,-13.4 -8.32,-26.92 -18.1,-36.9 -10.53501,-10.8325 -25.54422,-17.27766 -40.65,-17.2 z m 2.55,51.45 c 9.24258,0.29574 18.02,8.95 16.2,18.7 -1.64,14.48 -22.57,19.69 -31.15,8.05 -8.34,-8.4 -1.78,-22.58 8.6,-25.5 2.0625,-0.91125 4.2171,-1.31824 6.35,-1.25 z"
       id="path82"
       inkscape:connector-curvature="0" />
    <path
       style="fill:#f5e5c1"
       d="m 412,521.9 c -3.29243,0.0195 -6.54875,0.35875 -9.8,1 -13.4,2.5 -25.44,11.01 -32.5,22.65 -12.3,20.12 -13.51,46.59 -2.85,67.65 7.58,14.56 22.29,26.28 39.15,26.8 9.14,0.76 17.84,-2.72 25.6,-7.2 -8.32,26.86 -30.42,46.55 -53.7,60.85 8.1,11.6 16.16,23.24 24.2,34.9 23.32,-16.08 41.58,-38.63 55.3,-63.25 15.64,-26.58 19.49,-59 13.65,-89 -3.32,-14.36 -9.04,-28.94 -20.1,-39.1 -10.4325,-9.7825 -24.68282,-15.38437 -38.95,-15.3 z m 2.9,51.45 c 9.19312,0.3537 17.87125,8.96501 16.1,18.65 -1.6,14.54 -22.64,19.77 -31.2,8.05 -8.34,-8.46 -1.6,-22.67 8.8,-25.55 2.05501,-0.88501 4.17851,-1.23162 6.3,-1.15 z"
       id="path84"
       inkscape:connector-curvature="0" />
    <path
       style="fill:#f5e5c1"
       d="m 607.25,521.95 c -4.60843,-0.0778 -9.24499,0.41 -13.75,1.55 -12.38,3.04 -23.32,11.27 -29.9,22.15 -12.24,20.12 -13.39,46.53 -2.75,67.55 7.56,14.54 22.29,26.26 39.15,26.8 9.14,0.78 17.84,-2.72 25.6,-7.2 -8.32,26.84 -30.4,46.56 -53.7,60.8 8.08,11.64 16.18,23.27 24.2,34.95 25.78,-17.82 45.5,-43.38 59.5,-71.2 10.74,-21.3 13.4,-45.83 11.3,-69.35 -2.2,-18.46 -8.08,-37.81 -22,-50.85 -10.11,-9.49499 -23.82469,-14.96656 -37.65,-15.2 z m 0.8,51.45 c 8.11237,-0.12416 16.2025,6.08125 16.95,14.45 1.32,8.92 -6.15,17.65 -14.95,18.55 -9.72,1.72 -20.18,-6.48 -20.1,-16.5 0.58,-7.08 5.93,-13.13 12.55,-15.35 1.78125,-0.75374 3.67792,-1.12134 5.55,-1.15 z"
       id="path86"
       inkscape:connector-curvature="0" />
    <path
       style="fill:#f5e5c1"
       d="m 738.9,521.95 c -1.0411,0.0339 -2.06,0.1025 -3.1,0.2 -15.06,1 -29.3,9.57 -37.4,22.25 -13.02,20.26 -14.41,47.39 -3.55,68.85 7.56,14.5 22.22,26.15 39,26.75 9.2,0.8 17.95,-2.7 25.75,-7.2 -8.32,26.82 -30.35,46.6 -53.65,60.8 7.98,11.7 16.15,23.27 24.15,34.95 25.76,-17.82 45.45,-43.35 59.45,-71.15 10.72,-21.22 13.46,-45.64 11.4,-69.1 -2.04,-17.64 -7.49,-35.94 -19.95,-49.1 -10.85626,-11.17499 -26.48338,-17.75786 -42.1,-17.25 z m 3.9,51.4 c 9.19458,0.30171 17.90626,8.86501 16.2,18.55 -1.48,14.6 -22.6,19.94 -31.2,8.2 -8.3,-8.44 -1.64,-22.63 8.7,-25.55 2.05125,-0.89626 4.17818,-1.26963 6.3,-1.2 z"
       id="path88"
       inkscape:connector-curvature="0" />
    <path
       style="fill:#f5e5c1"
       d="m 874.9,521.95 c -1.03752,0.0342 -2.06374,0.1025 -3.1,0.2 -15.06,1 -29.3,9.55 -37.4,22.25 -12.98,20.22 -14.42,47.31 -3.6,68.75 7.58,14.62 22.38,26.38 39.3,26.9 9.1,0.74 17.76,-2.79 25.5,-7.25 -8.32,26.84 -30.4,46.56 -53.7,60.8 8.06,11.64 16.18,23.27 24.2,34.95 24.96,-17.22 44.14,-41.75 58.1,-68.45 12.34,-23.14 15.42,-50.27 12.2,-76.05 -2.46,-16.24 -7.92,-32.87 -19.5,-44.95 -10.85626,-11.11875 -26.4372,-17.66248 -42,-17.15 z m 3.2,51.45 c 8.17845,-0.102 16.36501,6.2175 16.95,14.7 1.18,8.84 -6.3,17.4 -15,18.3 -9.72,1.72 -20.16,-6.45 -20.1,-16.45 0.58,-7.08 5.91,-13.18 12.55,-15.4 1.7925,-0.76125 3.71267,-1.12646 5.6,-1.15 z"
       id="path90"
       inkscape:connector-curvature="0" />
    <path
       d="m 494.4,698.28 c -3.1,-11.42 4.62,-26.78 17.74,-25.9 11.04,-0.24 17.82,11.42 17.86,21.36 1.22,17.82 -12.5,31.66 -24.6,42.82 -3.02,-3.46 -6.02,-6.9 -9,-10.36 4.16,-4.08 8.08,-8.4 11.88,-12.84 -5.92,-3.5 -12.96,-7.52 -13.88,-15.08 z"
       id="path104"
       style="fill:#f5e5c1"
       inkscape:connector-curvature="0" />
    <path
       style="fill:#f4722b"
       d="m 184.6,753.75 c -2.64018,0.0751 -5.2825,0.43626 -7.9,1.1 -19.72,5.42 -32.51,23.51 -40.75,41.15 -14.32,32.48 -17.04,69.37 -11.1,104.15 4.7,25.3 14.47,51.51 34.85,68.35 12.38,10.56 31.28,12.98 45.5,4.8 15.3,-8.72 25.3,-24.24 32.2,-40 13.3,-32.14 15.6,-68.26 9.4,-102.3 -4.58,-23.64 -13.57,-47.6 -31.25,-64.6 -8.2225,-7.99501 -19.50923,-12.97544 -30.95,-12.65 z m 1.25,68.6 c 5.10563,0.015 10.13499,2.29 13.75,5.95 9.74,9.48 13.71,23.22 15.65,36.3 2.26,20.84 0.96,43.66 -11.4,61.4 -4.78,6.76 -12.69,13.39 -21.55,11.15 -9.98,-3 -16.1,-12.52 -20,-21.6 -7.78,-19.48 -7.91,-41.44 -3.25,-61.7 3.24,-12.14 9.17,-25.91 21.75,-30.75 1.66501,-0.54 3.34813,-0.75499 5.05,-0.75 z"
       id="path106"
       inkscape:connector-curvature="0" />
    <path
       style="fill:#f4722b"
       d="m 330.55,753.75 c -2.65592,0.0785 -5.3175,0.47499 -7.95,1.15 -19.14,5.28 -31.75,22.59 -39.95,39.65 -14.46,31.56 -17.51,67.55 -12.45,101.65 4.26,26.2 13.74,53.43 34.3,71.35 11.76,10.6 29.78,13.94 44.2,7 16.24,-7.94 26.84,-23.85 34.1,-39.85 13.72,-32.12 16.18,-68.37 10.2,-102.55 -4.5,-24 -13.45,-48.39 -31.35,-65.65 -8.23875,-8.07626 -19.59101,-13.08992 -31.1,-12.75 z m 1.35,68.6 c 5.11781,0.0291 10.17,2.39 13.8,6.05 9.7,9.52 13.68,23.22 15.6,36.3 2.24,20.84 0.88,43.63 -11.5,61.35 -4.8,6.74 -12.72,13.42 -21.6,11.1 -9.92,-3.06 -16,-12.53 -19.9,-21.55 -7.8,-19.54 -7.9,-41.57 -3.2,-61.85 3.24,-12.14 9.12,-25.87 21.7,-30.65 1.67501,-0.54501 3.39406,-0.75968 5.1,-0.75 z"
       id="path108"
       inkscape:connector-curvature="0" />
    <path
       style="fill:#f4722b"
       d="m 478.85,753.75 c -2.72901,0.0569 -5.43875,0.40626 -8.15,1.1 -18.72,5.08 -31.25,21.85 -39.45,38.45 -14.68,31.1 -18.01,66.7 -13.45,100.5 3.96,26.58 13.19,54.19 33.55,72.75 11.8,11.26 30.35,15.23 45.25,8.05 16.28,-7.92 26.92,-23.83 34.2,-39.85 13.72,-32.12 16.18,-68.35 10.2,-102.55 -4.4,-23.6 -13.16,-47.5 -30.4,-64.8 -8.30374,-8.45 -19.92432,-13.89674 -31.75,-13.65 z m 0.95,68.6 c 5.12626,-0.005 10.17,2.29 13.8,5.95 9.72,9.46 13.71,23.19 15.65,36.25 2.3,20.88 0.95,43.74 -11.45,61.5 -4.8,6.76 -12.72,13.4 -21.6,11.1 -9.94,-3.02 -16,-12.56 -19.9,-21.6 -7.78,-19.48 -7.9,-41.46 -3.2,-61.7 3.22,-12.14 9.08,-25.84 21.6,-30.7 1.67,-0.55499 3.39125,-0.79843 5.1,-0.8 z"
       id="path110"
       inkscape:connector-curvature="0" />
    <path
       style="fill:#f4722b"
       d="m 626.55,753.75 c -2.65117,0.0784 -5.32125,0.47875 -7.95,1.15 -20.2,5.62 -33.05,24.36 -41.25,42.5 -14.96,35.24 -16.96,75.33 -8.5,112.45 5.5,22.28 15.36,44.97 33.9,59.45 12.76,10.36 31.97,11.94 45.95,3.1 14.4,-8.88 23.97,-23.7 30.65,-38.9 13.36,-32.26 15.66,-68.54 9.4,-102.7 -4.58,-23.54 -13.55,-47.41 -31.15,-64.35 -8.23875,-8.06 -19.56163,-13.03966 -31.05,-12.7 z m 1.35,68.6 c 5.08594,0.0169 10.08499,2.30501 13.7,5.95 9.74,9.48 13.71,23.2 15.65,36.3 2.28,20.88 0.99,43.74 -11.45,61.5 -4.78,6.72 -12.71,13.35 -21.55,11.05 -9.94,-3 -16.05,-12.56 -19.95,-21.6 -7.8,-19.5 -7.88,-41.49 -3.2,-61.75 3.24,-12.14 9.12,-25.9 21.7,-30.7 1.66,-0.53501 3.40469,-0.75563 5.1,-0.75 z"
       id="path112"
       inkscape:connector-curvature="0" />
    <path
       style="fill:#f4722b"
       d="m 774.7,753.75 c -2.64251,0.0678 -5.27875,0.44 -7.9,1.1 -19.28,5.18 -31.96,22.61 -40.2,39.75 -14.68,32.2 -17.64,69 -12.1,103.7 4.44,25.48 13.95,51.8 33.95,69.2 12.08,10.94 30.85,14.18 45.45,6.5 15.62,-8.22 25.85,-23.72 32.95,-39.4 13.84,-32.52 16.22,-69.24 9.9,-103.8 -4.6,-23.5 -13.52,-47.38 -31.1,-64.3 -8.20626,-8.0275 -19.49909,-13.04378 -30.95,-12.75 z m 1.1,68.6 c 5.14968,-0.006 10.25501,2.31 13.9,6 9.68,9.48 13.61,23.19 15.55,36.25 2.28,20.88 0.97,43.69 -11.45,61.45 -4.8,6.76 -12.72,13.42 -21.6,11.1 -9.88,-3.04 -16,-12.55 -19.9,-21.55 -7.8,-19.5 -7.9,-41.47 -3.2,-61.75 3.22,-12.12 9.08,-25.82 21.6,-30.7 1.68,-0.56 3.38344,-0.79813 5.1,-0.8 z"
       id="path114"
       inkscape:connector-curvature="0" />
    <path
       style="fill:#f4722b"
       d="m 924.25,753.75 c -2.61928,-0.0389 -5.27499,0.2025 -7.9,0.75 -19.06,4.22 -32.05,20.91 -40.45,37.45 -15.3,31.4 -18.67,67.63 -14.05,101.95 3.96,26.56 13.21,54.14 33.55,72.7 11.8,11.22 30.28,15.18 45.2,8 15.8,-7.68 26.27,-22.97 33.55,-38.45 14.3,-32.46 16.93,-69.33 10.85,-104.05 -4.42,-23.58 -13.14,-47.49 -30.4,-64.75 -7.99501,-8.07626 -18.99976,-13.4316 -30.35,-13.6 z m -0.35,68.6 c 5.10469,0.0263 10.15,2.34 13.75,6 9.68,9.48 13.66,23.16 15.6,36.2 2.28,20.92 0.99,43.77 -11.45,61.55 -4.8,6.74 -12.74,13.35 -21.6,11.05 -9.92,-3.04 -16,-12.56 -19.9,-21.6 -7.78,-19.46 -7.91,-41.38 -3.25,-61.6 3.22,-12.2 9.14,-26.05 21.8,-30.85 1.66499,-0.54 3.34843,-0.75875 5.05,-0.75 z"
       id="path116"
       inkscape:connector-curvature="0" />
    <path
       d="m 64.5,757.8 c 10.86,0.96 21.7,2.2 32.54,3.36 -1.42,72.34 -3.82,144.66 -5.64,217 -11.82,-0.78 -23.64,-1.88 -35.46,-2.8 1.48,-50.04 2.42,-100.1 3.6,-150.14 -2.94,4.72 -5.84,9.46 -8.74,14.22 C 45.08,828.48 39.32,817.56 33.76,806.52 44,790.26 54.34,774.1 64.5,757.8 z"
       id="path118"
       inkscape:connector-curvature="0"
       style="fill:#f4722b" />
    <path
       d="m 105.92,970.04 c -1.76,-10.82 8.64,-22.84 19.96,-19.12 10.12,3.16 12.92,15.6 11.36,24.94 -2.36,12.72 -12.22,22.06 -21.12,30.68 -2.74,-3 -5.48,-6 -8.22,-8.96 3.5,-3.64 6.94,-7.36 10.38,-11.04 -5.76,-3.9 -12.82,-8.54 -12.36,-16.5 z"
       id="path132"
       inkscape:connector-curvature="0"
       style="fill:#f4722b" />
    <path
       d="m 533.94,972.24 c -1.68,-10.18 7.28,-21.96 18.2,-19.66 8.94,1.22 13.52,11.06 13.42,19.28 0.72,15.36 -11.28,26.88 -21.44,36.74 -2.74,-3.08 -5.46,-6.14 -8.2,-9.2 3.5,-3.58 6.96,-7.2 10.4,-10.82 -5.7,-3.9 -12.76,-8.46 -12.38,-16.34 z"
       id="path134"
       style="fill:#f4722b"
       inkscape:connector-curvature="0" />
  </g>
</svg>
