<?xml version="1.0" encoding="UTF-8" standalone="no"?>
<svg
   xmlns:dc="http://purl.org/dc/elements/1.1/"
   xmlns:cc="http://creativecommons.org/ns#"
   xmlns:rdf="http://www.w3.org/1999/02/22-rdf-syntax-ns#"
   xmlns:svg="http://www.w3.org/2000/svg"
   xmlns="http://www.w3.org/2000/svg"
   xmlns:sodipodi="http://sodipodi.sourceforge.net/DTD/sodipodi-0.dtd"
   xmlns:inkscape="http://www.inkscape.org/namespaces/inkscape"
   width="1280"
   height="1280"
   viewBox="0 0 1024 1024"
   version="1.1"
   id="svg2"
   inkscape:version="0.48.1 "
   sodipodi:docname="defend_points.svg">
  <metadata
     id="metadata18">
    <rdf:RDF>
      <cc:Work
         rdf:about="">
        <dc:format>image/svg+xml</dc:format>
        <dc:type
           rdf:resource="http://purl.org/dc/dcmitype/StillImage" />
      </cc:Work>
    </rdf:RDF>
  </metadata>
  <defs
     id="defs16" />
  <sodipodi:namedview
     pagecolor="#ffffff"
     bordercolor="#666666"
     borderopacity="1"
     objecttolerance="10"
     gridtolerance="10"
     guidetolerance="10"
     inkscape:pageopacity="0"
     inkscape:pageshadow="2"
     inkscape:window-width="1920"
     inkscape:window-height="1018"
     id="namedview14"
     showgrid="false"
     inkscape:zoom="0.6609375"
     inkscape:cx="466.00473"
     inkscape:cy="640"
     inkscape:window-x="-8"
     inkscape:window-y="-8"
     inkscape:window-maximized="1"
     inkscape:current-layer="layer1"
     fit-margin-top="0"
     fit-margin-left="0"
     fit-margin-right="0"
     fit-margin-bottom="0"
     inkscape:snap-page="true" />
  <g
     inkscape:groupmode="layer"
     id="layer1"
     inkscape:label="background">
    <rect
       style="fill:#3e3e3e;fill-opacity:1;fill-rule:nonzero;stroke:none"
       id="rect2999"
       width="1280"
       height="1280"
       x="0"
       y="0"
       transform="scale(0.8,0.8)" />
  </g>
  <g
     inkscape:groupmode="layer"
     id="layer2"
     inkscape:label="foreground">
    <path
       d="M 844,29.5 C 619.3,29.52 394.57,29.51 169.85,29.55 166.01,29.59 162.2,30 158.4,30.5 120.64,34.14 84.56,53.14 60.6,82.6 39.56,107.96 27.48,140.89 28.4,173.95 l 0,666.2 c -1.2,38.26 14.9,76.47 42.3,103.05 25.56,25.66 61.25,40.64 97.35,41.8 226,0.02 451.97,-0.02 677.95,0 30.38,1.04 61.08,-7.6 86.3,-24.6 31.44,-21.04 54.36,-54.81 61.1,-92.15 2.9,-13.26 2.1,-26.86 2.2,-40.3 l 0,-660.1 C 994.84,122.01 969.04,78.1 930.7,53.4 905.2,36.6 874.38,28.8 844,29.5 z M 504.35,60.65 c 111.8825,0.035 223.77,0.12 335.65,0 26.14,-0.12 53.06,5.01 74.8,20.25 24.82,16.66 42.46,43.63 47.5,73.15 2.82,19.86 1.84,39.95 2,59.95 0,204.02 -0.04,408.03 0,612.05 0.24,9.94 -0.55,19.85 -1.35,29.75 -4.08,35.04 -26.33,67.18 -57.45,83.7 -16.9,9.4 -36.23,14.02 -55.55,13.9 -5.44,-0.38 -10.62,1.63 -16,1.95 -216.62,-0.12 -433.23,0.02 -649.85,-0.1 -19,0.18 -38.77,-0.65 -56.15,-9.15 C 101.73,936.02 79.3,916.21 67,890.85 58.36,873.99 55.27,854.9 55.25,836.1 55.33,615.4 55.16,394.7 55.3,174 c 0.04,-33.34 15.24,-66.49 41.5,-87.25 20.1,-16.7 46,-24.92 71.9,-25.8 111.87,-0.32 223.7675,-0.335 335.65,-0.3 z"
       id="path6"
       style="fill:#f5e5c1"
       inkscape:connector-curvature="0" />
    <path
       d="m 177.78,107.8 c 18.3,-7.98 38.38,-11.18 58.28,-11.06 87.5,0.02 175.02,-0.04 262.54,0.02 -38.94,51.08 -77.36,102.58 -116.3,153.64 44.04,50.36 88.18,100.66 132.24,151 4.32,5.1 8.76,10.12 13.5,14.86 -47.86,101.24 -94.98,202.84 -143.18,303.9 35,65.96 71.34,131.22 106.74,196.98 -86.5,0.12 -173.02,0.04 -259.52,0.04 -35.14,0.68 -70.3,-13.34 -95.36,-37.98 -21.74,-20.82 -36.22,-49.28 -39.58,-79.24 -0.5,-7.3 -1.3,-14.58 -1.44,-21.9 0.04,-175.32 0,-350.64 0.02,-525.98 -0.14,-20.86 -0.02,-42.24 6.76,-62.22 11.5,-36.64 39.96,-67.24 75.3,-82.06 z"
       id="path10"
       inkscape:connector-curvature="0"
       style="fill:#f5e5c1" />
    <path
       d="m 556.74,96.8 c 77.04,-0.16 154.1,-0.02 231.14,-0.06 19.94,-0.16 40.06,3.08 58.42,11.06 47.38,19.58 81.68,68.48 81.24,120.1 0.06,185.34 0.02,370.68 0.02,556.02 0.82,35.1 -14.22,69.9 -39.26,94.32 -25.08,25.26 -60.72,39.62 -96.3,38.94 -79.78,0.06 -159.58,-0.04 -239.36,0.06 C 509.48,851 466.72,784.54 423.84,718.14 476.84,613.52 530.02,508.96 582.98,404.3 529.56,352.02 476.16,299.72 422.68,247.5 467.26,197.18 511.98,146.98 556.74,96.8 z"
       id="path12"
       inkscape:connector-curvature="0"
       style="fill:#f4722b" />
  </g>
</svg>
