<?xml version="1.0" encoding="UTF-8" standalone="no"?>
<svg
   xmlns:dc="http://purl.org/dc/elements/1.1/"
   xmlns:cc="http://creativecommons.org/ns#"
   xmlns:rdf="http://www.w3.org/1999/02/22-rdf-syntax-ns#"
   xmlns:svg="http://www.w3.org/2000/svg"
   xmlns="http://www.w3.org/2000/svg"
   xmlns:sodipodi="http://sodipodi.sourceforge.net/DTD/sodipodi-0.dtd"
   xmlns:inkscape="http://www.inkscape.org/namespaces/inkscape"
   width="1280"
   height="1280"
   viewBox="0 0 1024 1024"
   version="1.1"
   id="svg2"
   inkscape:version="0.48.1 "
   sodipodi:docname="double_ko.svg">
  <metadata
     id="metadata52">
    <rdf:RDF>
      <cc:Work
         rdf:about="">
        <dc:format>image/svg+xml</dc:format>
        <dc:type
           rdf:resource="http://purl.org/dc/dcmitype/StillImage" />
      </cc:Work>
    </rdf:RDF>
  </metadata>
  <defs
     id="defs50" />
  <sodipodi:namedview
     pagecolor="#ffffff"
     bordercolor="#666666"
     borderopacity="1"
     objecttolerance="10"
     gridtolerance="10"
     guidetolerance="10"
     inkscape:pageopacity="0"
     inkscape:pageshadow="2"
     inkscape:window-width="1920"
     inkscape:window-height="1018"
     id="namedview48"
     showgrid="false"
     fit-margin-top="0"
     fit-margin-left="0"
     fit-margin-right="0"
     fit-margin-bottom="0"
     inkscape:zoom="0.6609375"
     inkscape:cx="466.00473"
     inkscape:cy="640"
     inkscape:window-x="-8"
     inkscape:window-y="-8"
     inkscape:window-maximized="1"
     inkscape:current-layer="layer1"
     inkscape:snap-page="true" />
  <g
     inkscape:groupmode="layer"
     id="layer1"
     inkscape:label="background">
    <rect
       style="fill:#3e3e3e;fill-opacity:1;fill-rule:nonzero;stroke:none"
       id="rect3024"
       width="1280"
       height="1280"
       x="0"
       y="0"
       transform="scale(0.8,0.8)" />
  </g>
  <g
     inkscape:groupmode="layer"
     id="layer2"
     inkscape:label="foreground">
    <path
       d="m 317.16,63.1 c 19.4,-27.42 53.32,-43.3 86.74,-41.94 19.64,1.54 39.14,7.94 55,19.82 26.04,18.82 42.12,50.82 40.94,83.02 0.36,35.52 -20.62,69.48 -51.3,86.9 -0.1,-11.04 0.06,-22.08 -0.12,-33.12 10.04,-9.72 18.16,-21.68 21.7,-35.32 C 477.96,115.6 468.9,84.7 447.46,66.66 426.1,47.52 393.26,43.32 367.48,55.6 342.9,67 325.72,92.76 325.18,119.94 c -1.04,23.12 9.8,45.96 27.72,60.46 0.14,10.78 0.08,21.56 0.04,32.34 -22.98,-12.12 -41.42,-32.86 -49.6,-57.64 -10.48,-30.5 -5.42,-66 13.82,-92 z"
       id="path6"
       inkscape:connector-curvature="0"
       style="fill:#f5e5c1" />
    <path
       d="m 357.28,96.36 c 28.66,0.74 57.34,-0.26 85.98,0.5 -0.18,4.42 -0.28,8.82 -0.34,13.24 -28.62,-0.32 -57.24,-0.26 -85.86,0.02 -0.18,-4.6 -0.12,-9.18 0.22,-13.76 z"
       id="path8"
       inkscape:connector-curvature="0"
       style="fill:#f5e5c1" />
    <path
       d="m 356.98,116.72 c 28.68,0.04 57.36,0.04 86.04,-0.02 0.02,16.16 0,32.32 0,48.46 -28.68,-0.06 -57.36,-0.04 -86.04,0 0.02,-16.14 0.02,-32.3 0,-48.44 z"
       id="path10"
       inkscape:connector-curvature="0"
       style="fill:#f5e5c1" />
    <path
       d="m 370.4,177.3 c 19.7,-0.12 39.42,-0.02 59.12,-0.06 -0.06,21.52 0,43.02 -0.04,64.54 -19.62,-1.66 -39.38,-1.8 -59.02,-0.18 0,-21.44 0.1,-42.88 -0.06,-64.3 z"
       id="path12"
       inkscape:connector-curvature="0"
       style="fill:#f5e5c1" />
    <path
       d="m 880.26,225.82 c 3.32,0 6.64,-0.02 10,-0.04 38.44,59.3 76.46,118.92 115.02,178.16 0.04,1.52 0.14,4.56 0.18,6.08 -13.86,19.6 -25.76,40.54 -38.82,60.68 -25.52,40.54 -50.96,81.12 -76.5,121.64 -3.32,-0.02 -6.64,-0.02 -9.92,0 0,-122.18 -0.08,-244.34 0.04,-366.52 z"
       id="path14"
       inkscape:connector-curvature="0"
       style="fill:#f4722b" />
    <path
       d="m 395.75,255.65 c -12.94179,0.0193 -25.88312,0.7025 -38.75,2.05 -76.44,8.04 -150.17,40.4 -207.35,91.8 -72.54,64.16 -117.9,157.9 -123,254.6 -1.5,13.86 -1.89,27.89 -0.15,41.75 3.42,68.46 26.33,135.89 65.65,192.05 37.5,54.4 90.1,98.33 150.3,125.55 88.54,40.72 193.28,44.39 284.4,9.85 72.08,-26.66 135.29,-76.69 177.75,-140.75 51.08,-75.46 72.06,-170.31 58.6,-260.35 -9.52,-66.7 -37.94,-130.54 -80.9,-182.4 -39.98,-48.4 -92.38,-86.46 -151,-109 -43.0625,-16.85938 -89.32931,-25.2191 -135.55,-25.15 z m 0.05,61.9 c 50.29438,-0.0845 100.60626,12.0225 145.05,35.65 46.88,24.7 87.25,61.72 115.75,106.4 31.02,48.18 47.85,105.24 48.45,162.5 0.9,59.42 -15.61,119.14 -47.55,169.3 C 608.46,869.92 522.21,923.78 430.05,933 373.27,939.2 314.7,929.54 263.2,904.7 213.88,881.3 171.16,844.3 140.6,799.1 106.3,748.4 87.62,687.24 88.2,626 c -0.62,-71.68 25.28,-143.22 71.5,-198 49.94,-60.16 123.63,-99.82 201.35,-108.4 11.53125,-1.32374 23.1436,-2.0305 34.75,-2.05 z"
       id="path16"
       style="fill:#f5e5c1"
       inkscape:connector-curvature="0" />
    <path
       d="m 585.82,274.56 c 90.84,-0.32 181.68,-0.02 272.52,-0.16 0.06,89.52 0.04,179.02 0.02,268.54 -22.14,0.02 -44.26,0.06 -66.38,-0.04 -4.22,-12.1 -8.78,-24.08 -12.24,-36.44 C 749.04,407.58 677.6,322.42 585.82,274.56 z"
       id="path18"
       inkscape:connector-curvature="0"
       style="fill:#f4722b" />
    <path
       d="m 385.4,336.9 c 7.4,-0.08 14.82,-0.06 22.24,-0.04 -0.08,15.12 0.06,30.22 -0.1,45.32 -7.34,-0.12 -14.68,-0.02 -22.02,0.28 -0.22,-15.18 0,-30.36 -0.12,-45.56 z"
       id="path22"
       inkscape:connector-curvature="0"
       style="fill:#f5e5c1" />
    <path
       d="m 435.52,344.68 c 7.5,1.36 15,2.64 22.48,4.08 -4.48,45.1 -10.02,90.1 -14.86,135.16 -0.16,3.62 -1.02,7.16 -3.32,10.02 -20.96,30.62 -41.14,61.8 -62.44,92.18 19.26,-80.5 38.7,-160.98 58.14,-241.44 z"
       id="path24"
       inkscape:connector-curvature="0"
       style="fill:#f4722b" />
    <path
       d="m 370.3,615.94 c 53.6,-80.52 106.7,-161.4 160.62,-241.7 6.36,4.04 13.12,7.42 19.38,11.64 -43.36,86.4 -85.66,173.32 -129.26,259.58 -16.7,-10.18 -33.82,-19.68 -50.74,-29.52 z"
       id="path26"
       inkscape:connector-curvature="0"
       style="fill:#f5e5c1" />
    <path
       d="m 183.94,429.46 c 5.18,-5.36 10.44,-10.64 15.78,-15.84 11.06,11.46 22.6,22.44 33.7,33.84 -5.5,4.94 -10.66,10.26 -15.56,15.8 -11.34,-11.26 -22.46,-22.7 -33.92,-33.8 z"
       id="path28"
       inkscape:connector-curvature="0"
       style="fill:#f5e5c1" />
    <path
       d="m 563.6,444.16 c 10.26,-10 20.4,-20.16 30.46,-30.38 5.3,5.26 10.6,10.54 15.84,15.84 -10.26,9.88 -20.32,19.94 -30.24,30.16 -5.22,-5.36 -10.52,-10.62 -16.06,-15.62 z"
       id="path30"
       inkscape:connector-curvature="0"
       style="fill:#f5e5c1" />
    <path
       d="m 320.42,576.26 c 12,-19.04 31.44,-32.84 53.04,-38.88 -1.52,9.16 -3.18,18.3 -4.76,27.46 -18.44,9.04 -32.52,26.6 -36.24,46.92 -5.64,26.88 8.12,56.3 32.26,69.32 24.12,13.94 56.86,9.84 76.74,-9.66 19.28,-17.74 25.66,-47.58 15.62,-71.74 4.84,-8.42 9.62,-16.84 14.72,-25.1 12.42,19.24 17.92,43.02 13.82,65.66 -4.54,27.26 -22.38,51.92 -46.94,64.62 -23.44,12.56 -52.5,13.84 -76.98,3.46 -22.98,-9.5 -41.62,-28.96 -50.02,-52.38 -9.64,-26 -6.38,-56.42 8.74,-79.68 z"
       id="path32"
       inkscape:connector-curvature="0"
       style="fill:#f5e5c1" />
    <path
       d="m 109.08,615.14 c 15.32,0.14 30.64,0.06 45.98,0.04 -0.3,7.38 -0.36,14.76 -0.08,22.14 -15.22,0.2 -30.48,-0.16 -45.7,0.22 -0.24,-7.48 -0.1,-14.94 -0.2,-22.4 z"
       id="path34"
       inkscape:connector-curvature="0"
       style="fill:#f5e5c1" />
    <path
       d="m 645.44,615.2 c 14.4,0 28.8,0.04 43.22,-0.02 0.02,7.4 0,14.82 0.06,22.22 -14.44,-0.16 -28.88,0.22 -43.32,-0.2 0.42,-7.34 0.32,-14.68 0.04,-22 z"
       id="path36"
       inkscape:connector-curvature="0"
       style="fill:#f5e5c1" />
    <path
       d="m 866.76,639.96 c 3.76,-0.06 7.54,-0.1 11.34,-0.12 37.4,58 74.76,116.04 112.18,174.04 2.5,3.22 2.98,7.96 0.54,11.38 -37.2,59.44 -74.78,118.66 -111.86,178.18 -4.08,0 -8.14,0 -12.22,0.02 -0.04,-121.16 -0.06,-242.32 0.02,-363.5 z"
       id="path38"
       inkscape:connector-curvature="0"
       style="fill:#f5e5c1" />
    <path
       d="m 791.74,696.9 c 18.56,-0.06 37.14,0.04 55.7,-0.06 0.1,85.9 -0.02,171.78 0.06,257.68 -72.82,0.08 -145.62,0.06 -218.42,0.02 57.26,-40.74 103.58,-96.68 132.5,-160.74 14.04,-30.88 24.22,-63.52 30.16,-96.9 z"
       id="path40"
       inkscape:connector-curvature="0"
       style="fill:#f5e5c1" />
    <path
       d="m 184.24,823.62 c 11.04,-10.84 21.82,-21.92 32.86,-32.76 4.98,5.46 10.16,10.72 15.52,15.82 -10.74,11 -21.88,21.56 -32.62,32.56 -5.16,-5.28 -10.36,-10.56 -15.76,-15.62 z"
       id="path42"
       inkscape:connector-curvature="0"
       style="fill:#f5e5c1" />
    <path
       d="m 564.4,809.9 c 5.48,-5.02 10.82,-10.18 15.82,-15.68 9.76,9.72 19.46,19.48 29.22,29.2 -5.34,5.12 -10.58,10.34 -15.72,15.66 -9.7,-9.8 -19.48,-19.52 -29.32,-29.18 z"
       id="path44"
       inkscape:connector-curvature="0"
       style="fill:#f5e5c1" />
    <path
       d="m 385.46,872.42 c 7.38,0.42 14.78,0.5 22.18,0.38 -0.02,14.52 -0.04,29.06 0,43.6 -7.4,0.02 -14.8,0.02 -22.2,0.02 0,-14.66 -0.04,-29.34 0.02,-44 z"
       id="path46"
       inkscape:connector-curvature="0"
       style="fill:#f5e5c1" />
  </g>
</svg>
