<?xml version="1.0" encoding="UTF-8" standalone="no"?>
<svg
   xmlns:dc="http://purl.org/dc/elements/1.1/"
   xmlns:cc="http://creativecommons.org/ns#"
   xmlns:rdf="http://www.w3.org/1999/02/22-rdf-syntax-ns#"
   xmlns:svg="http://www.w3.org/2000/svg"
   xmlns="http://www.w3.org/2000/svg"
   xmlns:sodipodi="http://sodipodi.sourceforge.net/DTD/sodipodi-0.dtd"
   xmlns:inkscape="http://www.inkscape.org/namespaces/inkscape"
   width="1280"
   height="1280"
   viewBox="0 0 1024 1024"
   version="1.1"
   id="svg2"
   inkscape:version="0.48.1 "
   sodipodi:docname="freezecam_taunts.svg">
  <metadata
     id="metadata78">
    <rdf:RDF>
      <cc:Work
         rdf:about="">
        <dc:format>image/svg+xml</dc:format>
        <dc:type
           rdf:resource="http://purl.org/dc/dcmitype/StillImage" />
      </cc:Work>
    </rdf:RDF>
  </metadata>
  <defs
     id="defs76" />
  <sodipodi:namedview
     pagecolor="#ffffff"
     bordercolor="#666666"
     borderopacity="1"
     objecttolerance="10"
     gridtolerance="10"
     guidetolerance="10"
     inkscape:pageopacity="0"
     inkscape:pageshadow="2"
     inkscape:window-width="1920"
     inkscape:window-height="1018"
     id="namedview74"
     showgrid="false"
     inkscape:snap-page="true"
     inkscape:zoom="0.6609375"
     inkscape:cx="466.00473"
     inkscape:cy="640"
     inkscape:window-x="-8"
     inkscape:window-y="-8"
     inkscape:window-maximized="1"
     inkscape:current-layer="layer1"
     fit-margin-top="0"
     fit-margin-left="0"
     fit-margin-right="0"
     fit-margin-bottom="0" />
  <g
     inkscape:groupmode="layer"
     id="layer1"
     inkscape:label="background"
     style="display:inline">
    <rect
       style="fill:#3e3e3e;fill-opacity:1"
       id="rect3057"
       width="1024"
       height="1024"
       x="0"
       y="0" />
  </g>
  <g
     inkscape:groupmode="layer"
     id="layer2"
     inkscape:label="foreground"
     style="display:inline">
    <path
       d="m 17.75,0 c 9.94,39.9 20.63,79.59 31.45,119.25 9.42,37.56 18.52,75.18 27.7,112.8 7.3,33.2 14.14,66.51 21.3,99.75 8.36,38.02 14.86,76.42 22.4,114.6 3.72,16.26 2.07,33.05 3.55,49.55 0.78,21.3 1.41,42.63 2.25,63.95 -1.28,21.32 -1.37,42.71 -2.75,64.05 -0.74,13.48 -0.27,27.05 -2.25,40.45 -4.38,31.76 -8.14,63.61 -12.7,95.35 -5.8,26.16 -12.6,52.14 -18.5,78.3 -3.08,15.3 -10.14,29.33 -16.3,43.55 -3.74,9.18 -10.34,16.78 -14.6,25.7 -9.02,18.36 -17.95,36.82 -26.95,55.2 129.2,21.24 258.44,42.08 387.9,61.5 l 535.9,0 c 4.52,-19.9 10.08,-39.54 16.5,-58.9 4,-19.36 5.3,-39.18 8.6,-58.7 6.72,-34.76 13.18,-69.58 19.6,-104.4 5.44,-40.64 10.25,-81.32 15.45,-122 1.7,-26.62 -0.68,-53.44 2.1,-80 1.04,-13.98 0.1,-27.97 0.2,-41.95 -0.44,-16.02 0.4,-32.05 -0.7,-48.05 -0.8,-13.28 0.6,-26.71 -2,-39.85 -7.02,-41.42 -12.78,-83.03 -19.8,-124.45 C 987.68,313 978.63,280.4 969.75,247.8 958.57,214.58 946.92,181.54 935.5,148.4 925.34,121.26 914.94,94.22 905,67 891.4,64.2 877.54,63.41 863.8,61.65 761.82,50.19 659.85,38.52 557.95,26.5 482.77,17.9 407.7,8.36 332.5,0 L 17.75,0 z M 80.1,20.95 c 255.92,26.56 511.86,52.87 767.8,79.25 3.58,0.38 7.23,0.63 10.85,0.85 8.4,20.68 15.62,41.8 23.7,62.6 12.46,30.78 20.68,63.09 32.4,94.15 7.28,17.54 10.94,36.2 16.1,54.4 5.22,21.8 12.27,43.24 15.35,65.5 3.62,22.14 7,44.34 10.6,66.5 4.66,24.34 3.54,49.22 5.7,73.8 0.06,22 3.38,43.95 1.9,65.95 -1.78,22.64 -1.7,45.4 -4.1,68 -4.12,28.92 -7.52,57.95 -13.6,86.55 -35.02,-2.7 -69.95,-6.84 -104.85,-10.9 -39.22,-4.8 -78.74,-6.8 -118,-11.4 C 663.37,707.98 602.58,701.62 541.9,694.2 421.06,679.42 300,666.43 179,652.95 c 5.72,-37.42 3.52,-75.34 3.2,-113 -0.86,-25.38 -5.75,-50.37 -8.45,-75.55 C 169.59,436.6 167.56,408.5 161.6,381 153.28,338.04 144.91,295.1 136.25,252.2 123.19,199.72 111.21,146.9 96.25,94.9 92.69,80.58 87.74,66.57 85.6,51.95 85.08,41.37 80.52,31.55 80.1,20.95 z"
       id="path6"
       style="fill:#f5e5c1"
       inkscape:connector-curvature="0" />
    <path
       d="m 104.72,44.1 c 29,1.84 57.82,5.7 86.74,8.2 -3.26,3.8 -6.82,7.46 -9.08,11.98 -8.68,23.2 -3.02,49.7 -14.22,72.14 -5.96,14.76 -10.08,30.24 -11.54,46.1 -5.06,18.1 -3.26,36.98 -3.42,55.54 -3.86,-15.98 -7.02,-32.14 -11.96,-47.82 -5.14,-19.76 -9.3,-39.74 -14.46,-59.48 -6.94,-28.98 -18.04,-57 -22.06,-86.66 z"
       id="path12"
       inkscape:connector-curvature="0"
       style="fill:#f4722b" />
    <path
       d="m 211.84,73.84 c 5.7,-4.56 10.68,-10.04 12.18,-17.44 11.06,1.28 22.12,2.66 33.24,3.32 0.02,14.22 2.2,28.3 3.52,42.42 0.58,7.2 0.04,14.5 1.6,21.58 5.44,-20.88 0.46,-42.18 -0.02,-63.28 6.98,0.42 13.94,1.18 20.94,1.48 -0.06,21.38 -0.64,42.78 -0.7,64.16 -0.28,5.08 4.28,8.46 6.88,12.28 -0.9,11.2 -12.38,18.68 -10.44,30.32 11.88,-5.34 13.12,-19.42 15.56,-30.62 1.12,-3.62 0.66,-8.68 4.5,-10.68 5.44,-3.14 10.94,-6.32 16.86,-8.46 6.88,3.84 15.32,8.9 17.1,17.14 -2.74,6.54 -7.4,12.08 -10,18.7 -1.86,7.24 1.34,16 -4.02,22.16 -10.34,13.58 -21.94,26.14 -32.54,39.52 -3.48,4.3 -4.34,9.88 -5.32,15.16 4.9,-4.6 9.52,-9.52 15.04,-13.38 4.12,8.7 5.36,18.3 7.9,27.5 3.62,13.58 -1.34,27.42 -5.04,40.44 -1.52,6.6 -7.38,10.54 -11.8,15.16 -3.86,3.58 -7.12,7.9 -11.6,10.74 -12.36,2.94 -25,4.7 -37.46,7.24 -8.28,1.32 -17.36,4.68 -25.22,0.02 -6.88,-3.98 -15.42,-5.64 -21.16,-11.16 -1.28,-11.46 -2.14,-22.98 -4.32,-34.34 -0.78,-13.3 -4.98,-26.2 -4.54,-39.58 -1.32,-17.5 1.68,-34.86 3.38,-52.2 0.46,-19.34 11.46,-36.1 16.06,-54.46 1.64,-12.58 2.8,-25.2 4.28,-37.8 0.76,-5.5 -0.04,-12.3 5.14,-15.94 z"
       id="path14"
       inkscape:connector-curvature="0"
       style="fill:#f5e5c1" />
    <path
       d="m 312.72,64.84 c 44.96,5.28 90.14,8.9 135.08,14.4 28.64,4.12 57.62,5.26 86.32,8.82 48.68,4.92 97.46,9.1 145.98,15.46 37.34,3.48 74.64,7.44 112,10.82 17.52,1.72 34.98,4.32 52.6,5.06 6.3,15.3 10.6,31.34 17.34,46.46 7.24,16.38 12.32,33.54 17.62,50.62 7.34,18.48 11.96,37.92 19.48,56.36 2.66,6.1 3.28,12.76 4.82,19.18 7.44,20.18 12.04,41.26 17.34,62.06 3.22,11.82 4.06,24.06 6.36,36.04 3.6,14.34 5.02,29.12 7.52,43.68 1.52,9.98 3.74,19.86 4.42,29.94 -12.84,-6.7 -27.38,-7.68 -41.5,-8.86 -7.92,0.1 -15.8,2.16 -23.68,0.64 -13.1,-0.48 -25.2,-6.3 -38.38,-6.44 -10.1,-5.68 -20.22,-12.6 -32.1,-13.72 -6.6,0.1 -13.02,2.32 -18.7,5.58 -9.06,-4.72 -14.24,-14.84 -24.52,-17.5 -16.08,-17.2 -25.6,-39 -36.96,-59.3 -4.04,-8.68 -9.74,-16.54 -17.24,-22.56 -9.14,-7.56 -16.84,-18.26 -29.08,-20.8 -19.4,-4.7 -38.86,-9.08 -58.22,-13.96 1.66,-6.9 4.32,-13.74 4.24,-20.94 -0.8,-8.94 -3.56,-17.56 -6.1,-26.12 7.14,-12.52 8.96,-28.18 4.14,-41.86 -4.26,-20.24 -19.16,-38.6 -39.18,-44.82 -6.68,-2.78 -14.14,-0.88 -20.86,-2.54 -9.76,-7 -21.54,-10.24 -33.38,-11.44 -14.02,0.82 -28.16,4.92 -38.98,14.18 -11.24,4.26 -21.56,11.76 -26.72,22.92 -5.2,12.46 -6.98,26.14 -6.78,39.56 -8.34,14.64 -12.5,32.48 -8.38,49.1 -5,-1.32 -10.08,-2.34 -15.2,-3.08 -10.8,-1.3 -19.72,-8.26 -30.1,-10.92 -6.82,-2.06 -13.92,-2.82 -20.9,-4.12 -5.3,-2.04 -9.28,-6.66 -14.86,-8.06 -10.02,-3.18 -20.62,-2.28 -30.94,-2.06 -1.52,-13.02 -5.3,-25.62 -7.82,-38.46 7.16,-7.34 14.9,-14.78 18.4,-24.68 3.16,-8.84 4.76,-18.18 6.1,-27.46 0.38,-7.54 7.16,-12.58 8.16,-19.96 3.6,-9.74 0.7,-20.08 -2.8,-29.38 -4.08,-8.3 -12.34,-13.24 -19.24,-18.94 -7.18,-6.06 -16.86,-6.88 -25.72,-8.38 0.3,-8.16 0.34,-16.34 0.42,-24.52 z"
       id="path16"
       inkscape:connector-curvature="0"
       style="fill:#f4722b" />
    <path
       d="m 527.55,188.25 c -2.22038,-0.0253 -4.51499,0.28499 -6.8,0.95 -7,1.86 -13.69,6.32 -17.35,12.6 -1.74,14.2 6.42,27 15.9,36.7 13.4,6.12 34.77,-2.29 35.45,-18.65 1.43501,-15.50501 -11.65726,-31.42282 -27.2,-31.6 z m 2,11.3 c 11.21203,-0.0878 20.1175,15.6275 13.1,25.2 -6.5,5.88 -18.15,8.76 -24.55,1.2 -8.12,-7.64 -2.67,-21.34 6.55,-25.3 1.6575,-0.72 3.29829,-1.08746 4.9,-1.1 z"
       id="path18"
       style="fill:#f5e5c1"
       inkscape:connector-curvature="0" />
    <path
       d="m 489.64,207.56 c 1.76,-3.92 5.9,-5.38 9.76,-6.34 -0.28,6.1 -0.64,12.32 1.08,18.26 2.1,8.68 8.62,15.2 12.74,22.92 -8.46,0.26 -16.94,0.76 -25.42,0.4 -4.1,-11.34 -3.74,-24.48 1.84,-35.24 z"
       id="path22"
       inkscape:connector-curvature="0"
       style="fill:#f5e5c1" />
    <path
       d="m 571,201 c -2.06406,-0.0275 -4.10501,0.53 -6.1,1.8 -11.26,11.04 -5.75,31.62 6.85,39.5 5.56,4.44 13.18,3.66 19.8,3 6.42,-10.84 2.04,-24.64 -4.6,-34.3 -3.63,-4.83 -9.75781,-9.9175 -15.95,-10 z m 1.4,7.45 c 3.7636,-0.25648 7.2825,2.76 9.4,5.7 4.26,5.88 8.04,13.91 4.8,21.05 -4.04,5.38 -11.25,0.89 -14.45,-3.15 -5.68,-5.9 -8.8,-17.59 -1.4,-23.25 0.5425,-0.18 1.11234,-0.31336 1.65,-0.35 z"
       id="path24"
       style="fill:#f5e5c1"
       inkscape:connector-curvature="0" />
    <path
       d="m 555.84,232.24 c 2.36,1.58 3.48,4.46 5.32,6.58 5.74,8.2 15.34,11.96 23.08,17.8 -12.28,-3.02 -26.54,-3.92 -36.96,4.58 -7.78,8.08 -11.38,19.72 -10.96,30.82 2.08,9.56 9.72,16.08 15.9,23.08 -21,0.62 -42.4,1.76 -62.7,-4.7 -2.22,-2.18 -0.38,-6.1 -0.64,-8.96 12.5,0.2 25,0.16 37.5,0.26 4.78,-11.36 7.18,-23.58 8.04,-35.84 -0.64,-7.42 -4,-14.18 -7.58,-20.56 10.58,-1.22 23.98,-1.8 29,-13.06 z"
       id="path28"
       inkscape:connector-curvature="0"
       style="fill:#f5e5c1" />
    <path
       d="m 478.34,285.4 c -6.5,-12.44 -3.46,-28.08 5.36,-38.58 13.46,1.04 27.58,-1.92 40.5,2.74 7.44,14.42 9.14,35.82 -4,47.42 -10.74,0.4 -21.54,0.02 -32.28,-0.32 -5.74,-0.36 -7.42,-7 -9.58,-11.26 z"
       id="path30"
       inkscape:connector-curvature="0"
       style="fill:#f5e5c1" />
    <path
       d="m 559.12,259.52 c 8.02,-2.22 16.64,-0.04 23.86,3.66 8.98,7.16 13.06,20.18 9.24,31.1 -2.8,6.66 -7.06,13.98 -14.74,15.54 -7.6,1.62 -16.3,2.3 -23.1,-2.16 -17.94,-10.08 -14.74,-41.78 4.74,-48.14 z"
       id="path32"
       inkscape:connector-curvature="0"
       style="fill:#f5e5c1" />
    <path
       d="m 307.2,287.16 c 13.6,-0.12 27.16,-1.08 40.74,-1.66 10.8,-1.12 18,8.62 26.14,14.06 6.64,-0.12 13.32,-1.06 19.94,-0.26 10.34,4.16 20.64,8.5 31.02,12.6 -0.06,20.72 -1.4,41.4 -1.84,62.12 -0.02,20.44 -2.62,40.74 -4.74,61.04 -3.88,24.28 -16.98,45.52 -26.94,67.62 -4.14,-7.92 -5.38,-16.92 -8,-25.38 -2.44,-10.52 -7.6,-20.26 -9.02,-31.02 -15.96,-17.54 -32.7,-34.32 -49.86,-50.68 6.46,-4.52 13.46,-9.58 15.56,-17.64 -8.98,4.66 -17.68,10.86 -28.12,11.58 -13.18,1.26 -26.54,1.64 -39.76,1 -12.36,-3.34 -24.22,-8.3 -36.56,-11.74 -12.44,-3.32 -22.14,-12.52 -30.82,-21.54 -2.8,-5.62 -2.98,-15.9 4.92,-17.28 22.42,-5.3 45.28,-8.84 67.46,-15.06 7.7,-6.1 14.24,-13.58 21.54,-20.16 5.4,-4.3 6.16,-11.5 8.34,-17.6 z"
       id="path34"
       inkscape:connector-curvature="0"
       style="fill:#f5e5c1" />
    <path
       d="m 430.52,418.02 c 0.7,-35.6 1.66,-71.18 2.98,-106.74 5.7,1.32 11.42,2.7 17.1,4.16 0.02,37.5 0.72,75.02 0.2,112.54 -1.7,12.82 -4.24,25.76 -9.12,37.78 -8.72,18.4 -13.54,38.66 -25.22,55.58 -7.18,-0.14 -14.36,-0.4 -21.52,-0.86 6.06,-20.74 21.34,-37.64 27.08,-58.58 3.98,-14.36 7.96,-28.9 8.5,-43.88 z"
       id="path36"
       inkscape:connector-curvature="0"
       style="fill:#f5e5c1" />
    <path
       d="m 529.7,325.22 c 12.16,0.8 22.82,-5.86 34.42,-8.18 0.68,0.68 2.06,2.02 2.74,2.68 -3.1,8.54 -4.12,17.72 -7.88,26 -11.06,-7.36 -25,-4.88 -36.74,-0.72 2.62,-6.54 5.02,-13.16 7.46,-19.78 z"
       id="path38"
       inkscape:connector-curvature="0"
       style="fill:#f5e5c1" />
    <path
       d="m 461.2,318.78 c 5.68,1.34 11.52,1.88 17.36,1.46 4.04,13.82 6.16,28.12 9.98,42 -9.6,0.76 -19.9,1.68 -26.98,9.02 -0.32,-17.5 -0.28,-34.98 -0.36,-52.48 z"
       id="path40"
       inkscape:connector-curvature="0"
       style="fill:#f5e5c1" />
    <path
       d="m 488.4,320.46 c 7.4,0.86 14.76,2.02 22.12,3.12 2.12,7.94 3.4,16.06 4.32,24.22 -6,4.28 -8.2,13.92 -16.82,13.42 -3.22,-13.58 -7.12,-27 -9.62,-40.76 z"
       id="path42"
       inkscape:connector-curvature="0"
       style="fill:#f5e5c1" />
    <path
       d="m 565.18,347.2 c 2.06,-6.68 3.38,-13.54 4.72,-20.4 32.6,4.38 64.2,13.82 96.24,20.98 6.08,0.94 10,6.02 14.36,9.82 5.36,5.2 11.8,9.64 15.18,16.52 5.98,11.28 12.1,22.52 18.2,33.76 5.28,9.84 12.48,18.44 18.26,27.98 1.46,1.86 0.82,4.24 0.76,6.42 -8.98,1.98 -18.82,4.34 -24.98,11.72 -6,6.66 -12.26,13.1 -17.94,20.06 -5.86,9.2 -8.9,19.92 -14.6,29.22 -3.34,2.94 -7.68,4.4 -11.58,6.46 -6.24,-6.34 -11.44,-13.66 -18.06,-19.62 -0.86,11.52 3.3,22.24 6.58,33.02 -15.76,4.28 -32.18,3.76 -48.3,5.38 -25.34,1.32 -50.62,3.98 -76.02,4.46 -19.92,0.56 -39.86,1.24 -59.76,2.1 -12.96,4.1 -25.02,10.78 -38.1,14.6 -3.56,-7.96 -9.42,-17.76 -4.68,-26.32 7.12,-16.68 14.62,-33.2 22.6,-49.48 4.42,-8.68 5.86,-18.42 8.78,-27.62 2.94,-8.9 2.48,-18.38 4,-27.54 8,16.6 16.32,33.06 24.84,49.4 1.88,2.76 2.98,6.88 6.62,7.8 12.6,3.3 26.74,1.56 37.72,-5.64 7.16,-4.72 10.4,-13 13.34,-20.66 5.3,2.74 9.68,7.32 15.6,8.8 10.82,2.24 22.64,0.58 31.98,-5.46 5.32,-3.66 8.22,-9.62 10.94,-15.26 5.84,1.98 11.88,4.08 18.16,3.66 12.02,-2.3 23.16,-11.1 26.28,-23.24 -0.3,-6.1 -1.06,-12.62 -4.54,-17.84 -11.42,-15.9 -23.24,-31.52 -35.04,-47.16 -8.28,-14 -29.36,-15.56 -41.56,-5.92 z"
       id="path44"
       inkscape:connector-curvature="0"
       style="fill:#f5e5c1" />
    <path
       d="m 174.18,342.98 c -0.62,-4.14 -1.16,-8.28 -1.7,-12.42 1.12,0.9 3.36,2.66 4.48,3.54 -0.92,2.96 -1.84,5.92 -2.78,8.88 z"
       id="path46"
       inkscape:connector-curvature="0"
       style="fill:#f4722b" />
    <path
       d="m 575.5,351.44 c 7.02,-2.08 17.64,-4.78 22.04,3.12 10.84,15.24 22.42,29.94 32.84,45.48 -6.44,0.46 -13.3,0.08 -19.08,3.42 -4.76,2.32 -7.82,6.78 -11.06,10.78 -11.26,-14.28 -21.84,-29.08 -32.78,-43.58 -5.96,-6.66 0.2,-17.44 8.04,-19.22 z"
       id="path48"
       inkscape:connector-curvature="0"
       style="fill:#f5e5c1" />
    <path
       d="m 510.6,375.74 c 2.34,-8.94 9.3,-18.22 19.32,-18.48 6.5,-0.04 14.58,-1.82 19.74,3.12 12.42,19.08 25.72,37.58 38.4,56.48 -16.38,-5.68 -39.92,-0.36 -44.48,18.58 -5.24,-6.8 -8.7,-14.7 -12.88,-22.14 -6.62,-12.56 -13.86,-24.82 -20.1,-37.56 z"
       id="path50"
       inkscape:connector-curvature="0"
       style="fill:#f5e5c1" />
    <path
       d="m 180.14,373.98 c 8.66,9.24 17.4,18.78 28.36,25.34 8.94,5.46 19.44,7.16 29.12,10.8 10.68,3.62 21.24,8.04 32.46,9.7 11.96,1.32 23.98,-0.24 35.96,0.3 14.4,10.84 26.22,24.9 38.86,37.74 -3.94,4.3 -8.74,8.42 -10.26,14.3 -2.1,8.4 -4.14,17.1 -2.8,25.8 0.84,5.98 -0.68,11.94 -0.84,17.94 -0.58,8.58 0.12,17.3 -1.4,25.8 -4.62,4.06 -10.64,6.4 -14.5,11.32 -5.32,6.34 -6.58,14.94 -7.5,22.9 -0.36,14.02 0.14,28.08 -0.1,42.12 -0.24,10.32 1.38,21.34 8.26,29.48 -38.18,-3.16 -76.2,-8.14 -114.36,-11.72 -0.34,-11.3 1.44,-22.52 1.3,-33.8 -0.12,-22.02 -0.2,-44.02 -0.64,-66.04 -1.46,-26.74 -6.34,-53.14 -8.78,-79.8 -5.58,-27.2 -6.62,-55.14 -13.14,-82.18 z"
       id="path52"
       inkscape:connector-curvature="0"
       style="fill:#f4722b" />
    <path
       d="m 465.34,385.34 c 8.44,-11.7 27.26,-13.9 38.22,-4.78 9.36,16.9 18.16,34.2 26.66,51.58 -8.04,0.24 -16.76,-0.34 -23.86,4.1 -6.54,3.62 -11.02,9.74 -15.46,15.56 -9,-16.64 -17.96,-33.32 -26.96,-49.94 -3.06,-5.08 -1.36,-11.66 1.4,-16.52 z"
       id="path54"
       inkscape:connector-curvature="0"
       style="fill:#f5e5c1" />
    <path
       d="m 713.04,471.1 c 9.08,-8.34 21.18,-12.02 31.2,-18.98 10.06,5.98 19.82,12.46 30.02,18.24 -6,1.8 -12.96,1.84 -18.06,5.78 -6.52,8.3 -12.3,17.54 -14.08,28.14 -20.02,4.64 -40.18,8.58 -60.32,12.66 5.88,-10.5 11.44,-21.16 17.36,-31.64 3.18,-5.98 9.04,-9.72 13.88,-14.2 z"
       id="path56"
       inkscape:connector-curvature="0"
       style="fill:#f5e5c1" />
    <path
       d="m 795.74,478.14 c 4.58,-3.74 9.54,-6.98 14.64,-9.98 7.18,4.26 15.06,8.68 18.74,16.62 4.64,9.7 10.28,19.26 11.22,30.24 3.96,-2.28 6.32,-6.42 6.82,-10.92 -1.94,-8.64 -5.5,-16.82 -8.14,-25.24 5.06,0.4 11.82,0.4 13.72,6.28 4.88,10.88 11.82,21.2 13.98,33.06 -0.02,16.84 1.48,33.82 0.02,50.58 -7.6,10 -19.46,15.46 -31.2,18.88 -12.3,3.4 -25.1,1.06 -37.62,1.16 -11.58,0.24 -22.42,-5.22 -34.04,-4.62 -13.68,0.16 -27.76,1.36 -40.98,-3 -9.58,-2.68 -15.62,-11.16 -22.6,-17.62 13.42,-5.04 27.5,-8.02 41.2,-12.2 8.36,-2.32 16.6,-5.26 25.24,-6.42 -0.98,5 -2.06,9.98 -3.14,14.96 9.96,-0.04 20.36,-3.88 26.96,-11.5 4.44,-9.38 4.92,-20.42 3.82,-30.6 -4,-9.28 -14.78,-12.06 -22.4,-17.56 -4.76,-4.6 -11.04,-0.76 -16.52,-0.06 2.92,-4.56 5,-10.72 10.36,-12.88 8.58,-0.2 17.36,-0.58 25.84,0.66 10.54,6.7 19.3,15.96 26.54,26.08 1.1,-1 3.34,-3 4.46,-4 -2.94,-7.56 -6.74,-14.8 -11,-21.68 -4.56,-4.38 -10.72,-6.72 -15.92,-10.24 z"
       id="path58"
       inkscape:connector-curvature="0"
       style="fill:#f5e5c1" />
    <path
       d="m 360.68,511.84 c -0.42,-10.68 7.98,-18.4 13.16,-26.88 5.66,16.4 10,33.26 16.02,49.5 7.12,2.24 15.16,0.78 22.62,1.14 1.56,3.74 3,7.52 4.22,11.4 12.34,38.92 24.92,77.74 37.2,116.68 -20.36,-1.84 -40.62,-4.6 -60.92,-6.94 -11.1,-1.52 -22.4,-1.64 -33.34,-4.2 -0.6,-13.48 -2.62,-26.94 -1.48,-40.44 0.94,-33.42 0.64,-66.88 2.52,-100.26 z"
       id="path60"
       inkscape:connector-curvature="0"
       style="fill:#f5e5c1" />
    <path
       d="m 870.22,485.32 c 15.1,1.6 30.4,-1.34 45.54,0.5 8.88,2.74 17,7.42 25.62,10.84 -0.02,8.54 2.1,17.04 1.04,25.56 -3.24,12.64 -13.96,20.62 -22.4,29.72 -2.66,2.96 -6.88,1.5 -9.94,0.14 -9.38,-4.16 -18.96,-7.82 -28.34,-11.98 -0.32,-7.92 0.6,-15.84 0.24,-23.74 -2.92,-10.7 -8.68,-20.38 -11.76,-31.04 z"
       id="path62"
       inkscape:connector-curvature="0"
       style="fill:#f5e5c1" />
    <path
       d="m 644.18,539.16 c 39.38,-8.18 78.36,-18.52 117.76,-26.38 6.8,3.74 12,10.52 12.26,18.46 -69.8,16.02 -139.82,31.1 -209.32,48.34 -24.7,9 -48.8,19.66 -73.18,29.48 -14.02,1.5 -28.32,0.18 -42.44,0.16 -6.22,-15.08 -10.68,-30.82 -16.22,-46.14 7.82,-4.14 16.54,-6 24.82,-8.96 6,-1.9 11.9,-4.5 18.26,-5.02 41.98,-2.14 83.94,-4.62 125.9,-6.96 14.04,-1.3 28.22,-0.7 42.16,-2.98 z"
       id="path64"
       inkscape:connector-curvature="0"
       style="fill:#f5e5c1" />
    <path
       d="m 337.62,572.12 c 4,-3.22 8.56,-5.62 12.96,-8.26 2.88,7.06 1.68,14.74 1.82,22.14 -0.26,15.46 0.4,30.94 -0.16,46.4 -4.52,3.74 -11.3,-2.24 -15.1,-5.12 -0.56,-15.78 -0.06,-31.58 -0.4,-47.36 0.28,-2.56 -0.52,-5.52 0.88,-7.8 z"
       id="path66"
       inkscape:connector-curvature="0"
       style="fill:#f5e5c1" />
    <path
       d="m 924.14,582.28 c 8.42,-1.22 14.68,-7.34 21.02,-12.48 -2.3,27.66 -1.72,55.5 -4.88,83.08 -2.98,21.32 -5.3,42.76 -9.52,63.86 -53.2,-3.88 -105.98,-12.16 -159.22,-15.82 -0.86,-13.68 -11.48,-22.96 -19.54,-32.88 -7.24,-8.78 -13.96,-17.98 -21.52,-26.5 -10.86,-12.46 -19.08,-27.1 -31.06,-38.58 11.32,5.72 23.78,8.7 36.34,10.26 13.28,1.68 26.82,-1.64 39.98,1.68 14.42,3.5 29.36,3.72 44.14,4.24 21.1,-1.9 43.46,-7.08 59.56,-21.76 6.46,-5.26 12.24,-11.72 14.92,-19.76 9.2,4.26 19.66,7.58 29.78,4.66 z"
       id="path68"
       inkscape:connector-curvature="0"
       style="fill:#f4722b" />
    <path
       d="m 587.94,588.06 c 18.32,-4 36.3,-9.86 54.98,-12.04 0.46,5.44 1.22,10.88 1.28,16.36 -2.14,3.26 -6.5,4.1 -9.7,6.04 -23.44,10.84 -45.9,24.02 -70.58,31.88 -22.4,8.58 -46.02,13.52 -69.7,17 -11.02,1.04 -22.12,0.02 -33.16,0.24 -2.7,-8.36 -5.5,-16.68 -8.08,-25.06 15.82,-1.62 31.92,-0.76 47.52,-4.14 15.38,-4.14 31,-7.56 45.8,-13.56 14.32,-4.52 26.82,-13.64 41.64,-16.72 z"
       id="path70"
       inkscape:connector-curvature="0"
       style="fill:#f5e5c1" />
    <path
       d="m 622.04,618.04 c 11.34,-4.28 21.96,-10.56 33.96,-12.96 5.42,3.52 11.9,5.72 16.08,10.86 21.66,27.16 43.32,54.34 65.36,81.18 -67.22,-8.06 -134.62,-14.76 -201.68,-24.22 -22.82,-2.7 -45.84,-4.48 -68.54,-7.92 -0.7,-0.94 -2.06,-2.8 -2.76,-3.74 15.74,-2.02 31.8,-0.66 47.34,-4.14 19.24,-3.92 38.54,-8.66 56.46,-16.9 17.8,-7.7 35.72,-15.12 53.78,-22.16 z"
       id="path72"
       inkscape:connector-curvature="0"
       style="fill:#f5e5c1" />
  </g>
</svg>
