<?xml version="1.0" encoding="UTF-8" standalone="no"?>
<svg
   xmlns:dc="http://purl.org/dc/elements/1.1/"
   xmlns:cc="http://creativecommons.org/ns#"
   xmlns:rdf="http://www.w3.org/1999/02/22-rdf-syntax-ns#"
   xmlns:svg="http://www.w3.org/2000/svg"
   xmlns="http://www.w3.org/2000/svg"
   xmlns:sodipodi="http://sodipodi.sourceforge.net/DTD/sodipodi-0.dtd"
   xmlns:inkscape="http://www.inkscape.org/namespaces/inkscape"
   width="1280"
   height="1280"
   viewBox="0 0 1024 1024"
   version="1.1"
   id="svg2"
   inkscape:version="0.48.1 "
   sodipodi:docname="kill_ubercharge.svg">
  <metadata
     id="metadata66">
    <rdf:RDF>
      <cc:Work
         rdf:about="">
        <dc:format>image/svg+xml</dc:format>
        <dc:type
           rdf:resource="http://purl.org/dc/dcmitype/StillImage" />
      </cc:Work>
    </rdf:RDF>
  </metadata>
  <defs
     id="defs64" />
  <sodipodi:namedview
     pagecolor="#ffffff"
     bordercolor="#666666"
     borderopacity="1"
     objecttolerance="10"
     gridtolerance="10"
     guidetolerance="10"
     inkscape:pageopacity="0"
     inkscape:pageshadow="2"
     inkscape:window-width="1920"
     inkscape:window-height="1018"
     id="namedview62"
     showgrid="false"
     inkscape:snap-page="true"
     fit-margin-top="0"
     fit-margin-left="0"
     fit-margin-right="0"
     fit-margin-bottom="0"
     inkscape:zoom="0.6609375"
     inkscape:cx="466.00473"
     inkscape:cy="640"
     inkscape:window-x="-8"
     inkscape:window-y="-8"
     inkscape:window-maximized="1"
     inkscape:current-layer="layer1" />
  <g
     inkscape:groupmode="layer"
     id="layer1"
     inkscape:label="background">
    <rect
       style="fill:#3e3e3e;fill-opacity:1"
       id="rect3048"
       width="1024"
       height="1024"
       x="2.8421709e-014"
       y="0" />
  </g>
  <g
     inkscape:groupmode="layer"
     id="layer2"
     inkscape:label="foreground">
    <path
       d="m 125.12,29.06 c 13.16,-5.84 26.36,-12.68 40.74,-14.7 4.14,2.78 6.74,7.24 9.94,10.96 1.88,-3.88 2.86,-8.5 6.14,-11.54 10.58,-1.76 21.32,-0.32 31.98,-0.02 8.78,0.26 17.34,3.02 25.08,7.1 4.26,3.12 10.1,6.82 8.7,13 -2.84,54.1 -6.44,108.14 -9.44,162.24 -0.88,7.64 -9.12,11.84 -16.24,10.92 -5.56,1.16 -13.94,-2.28 -17.04,4 -3.08,4.44 -1.54,9.98 -1.16,14.92 1.8,16.72 3.5,33.44 5.14,50.16 1.4,4.2 -5.64,5.26 -6.52,1.46 -8.86,-14.46 -19.46,-27.82 -27.76,-42.62 -5.88,-14.26 -14.1,-27.76 -16.98,-43.1 -11.34,-46.74 -22.62,-93.48 -34.46,-140.1 -1.4,-5.92 -3.52,-11.72 -4.16,-17.8 0.3,-3.02 3.98,-3.42 6.04,-4.88 z"
       id="path6"
       inkscape:connector-curvature="0"
       style="fill:#f4722b" />
    <path
       d="m 665.7,45.5 c 6.46,-1.94 13.72,-0.38 20.48,-0.98 0.6,4.22 2.5,8.64 1.2,12.86 -5.46,9.72 -12.96,18.16 -18.22,27.98 -1.48,10.02 -1.36,20.24 -1.78,30.36 -4.54,-2.32 -9.8,-3.68 -13.6,-7.2 -1.46,-11.36 -6.24,-23.74 -0.74,-34.7 4.48,-9.3 6.78,-19.78 12.66,-28.32 z"
       id="path8"
       inkscape:connector-curvature="0"
       style="fill:#f4722b" />
    <path
       d="m 698.7,54.9 c 5.34,-0.42 10.72,-0.52 16.08,-0.36 -0.12,6.02 -0.12,12.06 0.1,18.08 4.8,-5.32 8.52,-11.46 12.58,-17.34 3.92,0.18 7.82,0.56 11.74,0.78 0.66,4.8 1.28,9.62 1.82,14.44 6.04,-4.42 8.96,-11.66 13.6,-17.38 4.84,1.94 9.62,4.06 14.36,6.28 -0.3,3.98 0.2,8.22 -1.66,11.92 -7.22,15.42 -14.48,30.84 -21.86,46.18 -2.98,8.34 -17.2,10.4 -21.26,1.98 0.02,-7.76 6.3,-14 7.12,-21.66 -0.88,-0.94 -2.66,-2.82 -3.56,-3.76 -3.76,7.78 -5.92,16.22 -9.8,23.94 -6.48,4.24 -14.64,4.56 -21.92,6.68 -5.14,-1.76 -10.48,-2.98 -15.48,-5.12 -2.98,-10.44 -6.52,-20.84 -8.36,-31.54 7.72,-11.82 17.86,-21.94 26.5,-33.12 z"
       id="path10"
       inkscape:connector-curvature="0"
       style="fill:#f4722b" />
    <path
       d="m 532.08,86.04 c 37.46,-8.28 75.64,-13 113.92,-15.28 -6.32,10.94 -1.26,23.14 -0.22,34.68 -5.34,0.06 -10.72,-0.14 -16.02,0.4 -8.3,1.14 -13.22,10.02 -21.66,10.56 -36.86,3.56 -72.88,12.38 -108.98,20.18 -11.34,3.38 -23.28,2.58 -34.92,3.46 -8.92,-2.1 -17.82,-4.32 -26.96,-5.32 0.18,-9.74 0.06,-19.5 0.12,-29.26 12.58,0.18 24.54,-4.04 36.7,-6.58 19,-5.74 38.66,-8.66 58.02,-12.84 z"
       id="path12"
       inkscape:connector-curvature="0"
       style="fill:#f4722b" />
    <path
       d="m 773.02,76.16 c 18.64,5.34 37.36,10.66 55.6,17.22 11.66,6.7 25.82,10.52 34.1,21.84 2.64,3.46 5.18,7.1 6.8,11.18 0.54,12.54 -6.98,24.82 -17.6,31.22 -7.18,3.76 -15.26,-0.04 -19.6,-6.2 -6.28,-9.04 -15.52,-15.44 -24.9,-20.9 -16.74,-6.74 -34.42,-10.66 -51.72,-15.68 5.38,-13.06 11.74,-25.7 17.32,-38.68 z"
       id="path14"
       inkscape:connector-curvature="0"
       style="fill:#f4722b" />
    <path
       d="m 351.36,89.34 c 2.64,-4.38 6.42,-9.8 12.32,-8.78 5.18,-0.12 6.34,6.18 8.6,9.58 3.6,-3.46 5.76,-10.8 11.84,-9.78 6.22,-0.78 8.96,5.94 12.74,9.58 -1,18 -3.1,35.92 -4.26,53.92 0.16,8.18 -7.1,13.5 -12.54,18.48 -12.92,-1.5 -27.88,-0.6 -38,-10.26 -2.12,-10.06 1.7,-20.7 -1.72,-30.5 -3.52,7.76 -4.5,16.5 -8.52,24.02 -5.54,7.06 -16.66,3.52 -20.9,-3.28 4.2,-13.14 8.54,-26.24 12.18,-39.54 1.44,-5.28 3.28,-10.8 7.54,-14.5 2.96,-2.82 7.52,-1.5 11.16,-2.1 -0.26,10.1 -1.82,20.16 -1.08,30.26 3.22,-9.14 6.42,-18.36 10.64,-27.1 z"
       id="path16"
       inkscape:connector-curvature="0"
       style="fill:#f4722b" />
    <path
       d="m 403.42,83.24 c 6.64,0.16 13.22,-0.74 19.52,-2.82 2.3,15.94 3.48,32.02 6.1,47.9 -5.64,8.6 -11.28,17.18 -17.14,25.62 -3.06,5.22 -9.98,3.08 -14.92,3.92 2.86,-11.82 6.56,-23.62 5.68,-35.98 1.3,-12.88 -0.78,-25.8 0.76,-38.64 z"
       id="path18"
       inkscape:connector-curvature="0"
       style="fill:#f4722b" />
    <path
       d="m 107.28,99.36 c 4.78,-2.5 9.8,-4.4 14.88,-6.12 5.1,22.16 10.12,44.32 15.36,66.44 -8.14,-3.12 -16.32,-6.08 -24.46,-9.14 -2.72,-16.96 -3.44,-34.18 -5.78,-51.18 z"
       id="path20"
       inkscape:connector-curvature="0"
       style="fill:#f4722b" />
    <path
       d="m 257.84,104.36 c 17.18,-0.04 34.34,0.26 51.5,-0.18 -5.26,16.6 -11.44,32.9 -17.46,49.24 -11.48,-0.32 -22.96,-0.12 -34.42,-0.68 0.32,-16.12 -0.14,-32.26 0.38,-48.38 z"
       id="path22"
       inkscape:connector-curvature="0"
       style="fill:#f4722b" />
    <path
       d="m 617.9,121.94 c 6.54,-6.98 16.78,-9.74 26.08,-8.28 9.34,3.66 17.44,9.9 26.82,13.44 7.68,2.02 15.48,3.7 23.28,5.14 7.12,-0.7 13.86,-3.44 21,-4.18 5.62,8.54 17.76,10.46 26.62,6.14 6,-2.42 8.52,-8.8 11.68,-13.94 7.36,2.36 15.08,4.4 21.44,8.98 2.22,6.42 -0.9,13.82 2.4,20.02 6,11.9 12.14,23.78 17.36,36.08 16.46,31.46 33.06,62.88 49.44,94.4 0.84,2.16 3.12,5.1 0.74,7.12 -5.34,5.94 -10.56,12.02 -16.44,17.42 -14.62,10.02 -32.92,12.14 -50.18,12.94 -21.2,2.34 -42.74,2.82 -63.66,-1.88 -2.04,-42.52 -1.2,-85.14 -3.24,-127.64 -1.46,-6.58 -5.38,-12.42 -9,-18 -6.12,-2.56 -13.56,-0.72 -19.2,-4.74 -6.12,-3.96 -12.5,-7.48 -18.62,-11.4 -3.66,-2.18 -3.22,-7.12 -5.52,-10.32 -7.02,-5.78 -15.46,-10.34 -24.72,-10.74 -4.88,1.28 -9.08,4.42 -14.08,5.32 -2.6,-0.7 -4.92,-2.1 -7.3,-3.3 1.58,-4.22 2.52,-8.82 5.1,-12.58 z"
       id="path24"
       inkscape:connector-curvature="0"
       style="fill:#f4722b" />
    <path
       d="m 409.72,161.58 c 7.06,-5.58 12.84,-12.76 17.84,-20.24 7.56,1.32 15.3,1.08 22.86,2.26 4.52,3.42 7.8,8.3 10.7,13.1 0.5,3 0.06,7.48 -3.18,8.74 -4.68,0.36 -9.38,-0.26 -14.04,0.06 -6.52,1.8 -12.4,5.28 -18.6,7.88 -0.66,8.54 -1.94,17.02 -2.54,25.56 -6.76,5.82 -13.46,11.72 -20.04,17.76 -9.14,9.94 -24.06,6.5 -35.88,10.1 5.34,2.94 11.62,4.18 16.48,7.9 2.62,4.84 0.32,10.84 0.48,16.12 -0.5,26.5 -0.92,53.02 -1.52,79.52 0,4.56 -5.02,5.9 -8.34,7.52 -13.32,5.26 -27.22,8.84 -40.84,13.24 13.08,2.14 26.44,2.16 39.64,1.42 1.02,4.08 1.26,8.98 5.1,11.58 7.06,5.66 13.82,11.74 21.3,16.84 7.96,3.9 16.92,5.08 25.12,8.4 7.34,2.56 12,9.38 18.84,12.78 10.78,2.38 21.92,3.26 32.58,6.2 11.18,13.62 17.98,30.86 31.88,42.22 9.7,8.2 19.18,16.68 29.5,24.08 -11.1,-16.44 -20.54,-33.9 -30.94,-50.8 -6.28,-9.9 -10.18,-21.02 -14.56,-31.82 -1.92,-3.58 2.64,-6.68 5.82,-5.46 8.08,1.76 16.08,4 24.02,6.38 3.36,0.8 5.12,4.04 7.18,6.5 12.44,17.08 25.72,33.54 38.12,50.66 3.84,-16.56 6.52,-33.36 9.38,-50.1 0.82,-9.3 11.44,-11.46 17.9,-15.94 8.46,-3.72 15.6,-11.82 25.34,-11.46 0.84,7.2 -2.32,13.88 -4.06,20.7 -4.02,14.88 -7.9,29.78 -12.16,44.6 1.6,-1.18 3.38,-2.22 4.4,-4 6.8,-10.64 12.8,-21.78 20.1,-32.1 18.82,-3.18 37.44,-8.12 55.24,-14.94 15.12,-9.78 29.24,-21.7 46.98,-26.56 10.34,8.62 23.8,11.08 36.16,15.62 2.88,1.78 6.98,0.88 5.82,-3.2 -5.8,-5.72 -14.12,-8.92 -18.18,-16.3 -3.78,-6.7 -8.24,-13.04 -11.08,-20.24 20.68,-9.92 43.62,-13.4 65.98,-17.4 9.74,-1.6 19.34,-4.22 29.24,-4.88 4.38,7.32 9.78,14.16 12.78,22.2 1.62,8.66 -0.06,17.56 -1.2,26.18 -3.18,15.32 -4.54,30.92 -6.62,46.42 -13.64,8.28 -29.5,13.52 -40.6,25.46 -13.3,14.16 -25.96,28.9 -37.6,44.44 -5.1,6.18 -9.06,13.66 -16.16,17.82 -8.02,5.1 -16.06,10.12 -23.86,15.5 0.96,-15.34 3.44,-30.6 5.76,-45.8 6.1,-18.88 13.16,-37.46 19.38,-56.32 -7.48,7.04 -17.28,12.68 -20.92,22.82 -5.68,12.8 -12.02,25.32 -17.66,38.14 -3.66,11.4 -5.18,23.38 -8.1,35 -2.9,14.08 -7.58,28.58 -4.3,43.02 1.36,6.6 5.08,12.58 5.92,19.28 -2.78,4.56 -7.58,7.32 -11.56,10.72 -1.26,11.8 -3.5,23.44 -5.3,35.16 -1,6.02 -0.12,12.42 2.24,18.02 4.16,4.56 9.2,8.22 13.82,12.32 4.26,4.44 10.9,3.54 16.26,5.64 4.26,4.5 5.68,10.88 8.26,16.4 -6.36,4.06 -13.16,7.32 -20.08,10.28 -14.28,-4.56 -29.06,-8.22 -44.16,-7.36 -17.88,1.46 -36.14,2.04 -53.3,7.74 -9.06,4.22 -18.34,8 -27.16,12.74 -7.98,4.28 -13.84,13.3 -23.62,13.5 -24.72,1.76 -49.64,-0.2 -73.88,-5.14 -10.62,-3.02 -21.14,-6.34 -31.62,-9.76 -1.34,-11.96 -10.7,-20.54 -15.68,-30.96 -1.24,-9.66 0.82,-19.54 -0.76,-29.2 -2.18,-7.02 -7,-12.92 -8.94,-20.02 5.14,-18.28 12.02,-36.08 17.88,-54.14 -9.24,-18.46 -18.22,-37.04 -27.42,-55.5 -3.46,-6.26 -9.6,-10.32 -14.62,-15.2 -8.4,-7.18 -16.26,-14.94 -24.8,-21.94 9.38,15.32 23.26,27.68 30.16,44.5 4.28,9.5 9.84,18.52 12.82,28.54 -4.36,0.32 -9,0.32 -12.24,-3.08 -12.54,-10.8 -26,-20.58 -37.98,-32.04 -13.44,-15.32 -26.28,-31.18 -39.66,-46.58 -4.08,-5.04 -11.1,-5.32 -16.78,-7.42 -10.5,-3.52 -21.46,-5.86 -31.58,-10.36 -11.14,-9.62 -19.56,-21.98 -30.62,-31.72 2.02,-14.78 5.52,-29.32 7.18,-44.16 21.52,-3.54 43.24,-5.84 64.76,-9.22 -13.94,-3.08 -29.08,-1.02 -42.06,-7.86 -9.6,-4.84 -20.54,-7.14 -29.2,-13.68 14.02,-37.28 28.72,-74.32 42.92,-111.54 6.7,0.74 13.32,2.88 20.12,2.32 -5.1,-5.22 -10.38,-10.26 -15.16,-15.76 0.02,-9.52 -3.32,-19.34 0.02,-28.62 1.86,-5.88 3.9,-11.72 6.14,-17.46 8.82,0.08 17.64,-1.4 26.44,-0.66 6.92,2.54 12.62,9.28 20.6,7.92 7.68,-1.22 14.96,1.28 22.1,3.78 3.46,1.8 5.92,-2 8.4,-3.72 7.76,-0.56 15.66,-0.82 23.2,-2.94 z"
       id="path26"
       inkscape:connector-curvature="0"
       style="fill:#f4722b" />
    <path
       style="fill:#f4722b"
       d="m 570.9,217.6 c -5.08629,-0.021 -10.2275,0.7775 -14.9,2 -1.64,3.98 -4.02,7.84 -4.4,12.2 2.3,4.38 5.05,8.57 8.35,12.25 6.26,5.38 14.87,6.83 21.25,12.05 -7.84,-0.02 -15.43,-1.97 -22.95,-3.95 -7.42,-1.84 -12.28,-8.27 -17.7,-13.15 -4.02,5.14 -8.29,10.22 -13.95,13.6 -7.14,5.02 -16.3,4.51 -24.5,6.35 7.32,-4.18 15.39,-7.34 21.35,-13.5 4.52,-4 5.77,-10.17 7.85,-15.55 -1.24,-2.32 -2.37,-4.74 -3.85,-6.9 -9.78,-3.42 -20.7,-1.52 -30,2.5 -7.94,4.14 -11.83,12.73 -16.05,20.15 3.36,5.8 6.59,11.69 9.25,17.85 -1.48,5.92 -2.69,11.86 -3.95,17.8 5.18,-0.06 10.84,-2.03 15.8,-0.05 10.58,15.46 10.44,35.01 11.9,52.95 -1.66,7.5 -6.34,13.8 -10.9,19.8 1.72,6.62 3.51,13.26 5.25,19.9 10.64,2.9 21.93,3.36 32.25,7.2 6.64,8.3 10.57,18.5 16.95,27 5.64,-7.46 8.14,-16.9 14,-24.2 8.04,-5.54 17.09,-9.51 25.45,-14.55 0.18,-9.12 -0.76,-18.25 -0.1,-27.35 1.84,-9.62 6.71,-18.36 8.75,-27.9 -0.38,-10.84 -1.97,-21.6 -2.95,-32.4 -0.18,-7.46 -6.67,-12.18 -10.75,-17.7 3.04,-6.04 7.42,-11.52 9.5,-18 -0.04,-7.24 -4.15,-13.82 -8.55,-19.3 -5.65,-6.7 -13.92285,-9.06504 -22.4,-9.1 z m -2.65,4.7 c 12.94699,-0.30187 26.33,7.38 29.9,20.4 -12.72,3.22 -25.2,-4.27 -34.7,-12.05 -2.92,-1.54 -4.89,-6.42 -0.65,-7.7 1.8025,-0.37499 3.60043,-0.60688 5.45,-0.65 z m -54.7,4.05 c 3.52395,0.003 7.10499,0.4125 10.45,0.75 -4.56,14.44 -20.7,21 -34.8,19.6 -0.68,-6.28 3.78,-11.47 8.1,-15.45 4.6125,-3.8625 10.37675,-4.90469 16.25,-4.9 z m 37.5,45.95 c 9.23507,-0.3297 18.56875,2.82 25.15,9.45 9.32,8.44 12.78,22.05 10,34.15 -2.42,10.18 -5.79,21.06 -14.15,28 -9.38,9.24 -24.65,7.32 -35.35,1.5 -12.14,-6.58 -16.12,-21.16 -18.3,-33.8 -3,-17.12 9.34,-34.98 26.3,-38.5 2.08125,-0.4425 4.21883,-0.72392 6.35,-0.8 z"
       id="path28"
       inkscape:connector-curvature="0" />
    <path
       d="m 540.86,281.34 c 16.1,-7.86 37.56,4.78 38.1,22.76 1.18,14.64 -12.48,27.5 -26.74,27.5 -13.98,0.74 -28.12,-11.22 -27.78,-25.6 -0.4,-10.64 6.86,-20.52 16.42,-24.66 z"
       id="path36"
       inkscape:connector-curvature="0"
       style="fill:#f4722b" />
    <path
       d="m 466.3,282.35 c -8.04,3.72 -7.12,14.13 -7.2,21.55 1.24,17.38 4.83,36.37 17.95,48.95 2.88,3.96 10.44,3.05 12.1,-1.55 2.36,-20.44 -4.23,-40.34 -11.55,-59.1 -2.36,-4.34 -5.62,-10.11 -11.3,-9.85 z m 0.7,13.25 c 10.98,13.68 14.43,32.72 13.85,50 -4.28,-2.06 -5.99,-6.7 -7.85,-10.7 -4.96,-12.42 -7.64,-25.94 -6,-39.3 z"
       id="path38"
       style="fill:#f4722b"
       inkscape:connector-curvature="0" />
    <path
       d="m 484.84,289.54 c 3.22,-0.8 6.44,-1.58 9.66,-2.38 8.92,13.1 12.24,29.18 12.44,44.8 -0.44,6.88 -3.58,15.7 -11.68,16.02 2.58,-19.8 0.8,-41.36 -10.42,-58.44 z"
       id="path40"
       inkscape:connector-curvature="0"
       style="fill:#f4722b" />
    <path
       d="m 117.04,441.84 c 36.86,-4.52 74.1,-4.62 111.12,-2.68 10.74,1.94 21.88,2.82 32.14,6.6 2.56,4.22 0.98,9.44 0.84,14.06 -0.92,5.42 -0.3,12.3 -5.46,15.78 -9.76,7.68 -19.8,15.02 -29.56,22.7 -2.9,1.82 -6.12,5.16 -9.84,3.58 -21.3,-7.08 -44.16,-8.64 -66.44,-7.1 -9.14,0.66 -18.52,0.22 -27.26,3.34 -19.62,6.52 -40.02,12.96 -56.2,26.34 -6.76,5.08 -13.58,10.06 -20.36,15.12 -15.34,-0.36 -30.68,-0.1 -46.02,-0.5 l 0,-49.72 c 8.48,-7.08 17.98,-12.86 27.98,-17.58 28,-14.36 58.34,-23.48 89.06,-29.94 z"
       id="path44"
       inkscape:connector-curvature="0"
       style="fill:#f5e5c1" />
    <path
       d="m 99.16,521.38 c 10.12,-5.84 21.32,-9.3 32.5,-12.46 16.6,-3.88 33.76,-1.82 50.52,-0.12 9.12,0.8 17.66,4.42 26.42,6.88 -5.62,20.52 -11.76,40.92 -16.52,61.68 -6.58,-1.58 -13.22,-3.6 -20.08,-3.2 -10.68,0.6 -21.6,-0.74 -32.04,2.2 -8.68,2.2 -17.46,4.38 -25.58,8.2 -11.1,6.54 -22.68,12.92 -30.52,23.48 C 73.7,589.5 63.62,570.88 53.4,552.36 65.92,538.46 82.58,529.52 99.16,521.38 z"
       id="path46"
       inkscape:connector-curvature="0"
       style="fill:#f5e5c1" />
    <path
       d="m 330,509.2 c -9.68,-0.2 -17.26,6.66 -25.7,10.3 1.42,6.14 0.68,13.83 6.4,17.95 13.1,11.38 23.44,25.96 27.8,42.9 -0.24,0.86 -0.74,2.59 -1,3.45 -4.9,-4.4 -7.14,-10.84 -11.5,-15.7 -14.32,-16.48 -28.62,-33.02 -41.2,-50.9 -8.24,-3.64 -16.79,1.44 -21.15,8.5 -1.16,6.66 -2,14.36 2.9,19.8 14.84,20.16 33.19,37.58 48.05,57.7 -14.78,-9.5 -27.27,-22.26 -42.05,-31.7 -14.64,-1.96 -31.45,-2.32 -43.55,7.4 -3.1,6.76 -4.89,14.12 -6.25,21.4 0.84,8.46 10.16,11.28 17.4,10.6 4.24,-1 4.51,-6.07 6.05,-9.35 6.42,0.32 13.89,-1.67 19.25,2.95 9.02,6.58 17.84,13.45 26.6,20.35 -9.94,-2.14 -21.78,-1.82 -29.4,5.8 -10.62,7.94 -17.16,20.43 -20,33.15 6.48,2.66 13.69,7.46 20.65,3.3 5.26,-4.08 8.18,-10.39 12.4,-15.45 3.76,-0.98 7.54,-2.03 11.3,-3.05 6.88,10.1 11.95,21.4 19.25,31.2 8.76,6.86 18.93,11.76 28.15,18 6.24,4.88 14.41,2.68 21.65,2.4 11.48,-0.9 21.12,-7.96 32.1,-10.7 4.72,-0.7 3.62,6.2 2.2,8.8 -16.44,14.48 -37.49,21.59 -57.05,30.75 1.68,6.98 2.4,14.26 4.7,21.1 4.28,3.26 9.74,-0.47 14.3,-1.35 19.4,-5.08 36.88,-15.22 55.1,-23.3 -1.7,3.94 -3.92,7.77 -7.6,10.15 -12.74,9.46 -25.4,19.07 -37.9,28.85 5.92,16.98 17.26,32.81 16.7,51.45 0.06,16.68 -0.1,33.34 0,50 -2.16,-5.64 -4.28,-11.32 -6.3,-17 -9.42,-1.36 -18.66,1.45 -27.8,3.35 -5.5,1.06 -8.46,6.3 -12,10.1 -16.18,19.02 -32.32,38.1 -49,56.7 -0.02,18.96 -2.09,37.87 -3.65,56.75 C 265.91,915.41 253.4,854.63 240,794.05 c -1.94,-7.5 -2.5,-15.42 -5.5,-22.6 -8.12,-4.32 -17.58,-4.6 -26.5,-5.8 -12.72,-1.84 -25.62,-0.46 -38.3,1 -13.32,1.26 -25.06,8.26 -36.4,14.8 -5.7,3.16 -10.77,7.38 -15.05,12.3 7.54,49.44 15.04,98.88 22.7,148.3 0.4,2.74 0.53,5.52 0.35,8.3 -3.42,2.92 -6.31,-0.79 -7.65,-3.75 -9.76,-18.84 -19.62,-37.7 -29.5,-56.5 -7.7,1.16 -16.8,-0.78 -23.2,4.7 -13.36,10.7 -26.19,22.13 -39.85,32.45 -13.08,6.92 -27.56,10.8 -41.1,16.8 l 0,79.95 1024,0 0,-99.7 c -4.04,-4.06 -8.64,-7.53 -12.3,-11.95 -6.86,-8.76 -11.28,-19.21 -18.3,-27.85 -5.2,-1.56 -10.79,-0.64 -16.15,-0.8 3.12,-27.04 5.41,-54.19 8.25,-81.25 1.56,-12.32 -8.63,-22.19 -8.45,-34.35 -0.66,-9.36 0.89,-18.95 -1.15,-28.15 -4.72,-9.34 -12.17,-16.96 -18.15,-25.5 -15.88,-1.48 -31.85,-1.4 -47.75,-2.7 -7.86,-0.28 -15.78,-1.45 -23.6,-0.45 -6.06,1.88 -12.03,4.41 -17.25,8.05 -3.26,4.7 -6.51,10.69 -5.65,16.55 5.1,5.68 12.57,9.54 15.15,17.2 3.88,6.68 -0.01,14.19 -1.15,21.05 -5.22,23.82 -10.92,47.55 -15.8,71.45 -2.3,20.14 -3.27,40.41 -4.85,60.65 -0.14,8.1 -6.35,14.13 -9.75,21.05 -4.04,-12.42 -8.16,-24.82 -13.4,-36.8 -1.7,-4.24 -5.1,-7.4 -8.3,-10.5 -21.82,4.04 -43.26,9.76 -65.1,13.6 19.08,-16.24 40.47,-29.59 59.45,-45.95 8.5,-11.2 17.61,-23.22 19.05,-37.7 -0.58,-6.02 -2.08,-12.31 -5.5,-17.35 -6,-5.08 -13.06,-9.94 -21.2,-10.2 -22.9,-2.66 -45.9,1.27 -68.3,5.85 -20.84,4.28 -40.53,12.51 -60.55,19.45 20.72,-14.84 42.76,-27.82 65.9,-38.5 9.22,-4.04 19.13,-6.1 28.75,-9 -3.46,-12.44 -7.64,-24.94 -14,-36.2 -8.6,-9.32 -16.8,-19.73 -28.6,-25.15 -18.02,-10.72 -38.76,-15.94 -59.3,-19.2 -18.14,-0.3 -36.22,2.41 -54,5.85 -20.52,4.48 -37.77,17.33 -52.75,31.45 -6.28,8.04 -11.87,16.73 -16.45,25.85 -4.84,16.2 -11.08,32.15 -12.7,49.15 -2.64,13.92 -3.06,28.08 -2.4,42.2 1.34,9.28 -7.21,15.15 -12.85,21.05 -13.1,-0.9 -25.81,-4.8 -38.75,-7 -15.46,-42.94 -30.14,-86.14 -45.6,-129.1 -1.34,-0.26 -4.04,-0.79 -5.4,-1.05 -0.5,-6.14 4.05,-10.03 7.75,-14.15 -2.02,-10.62 -3.59,-23.14 -13.65,-29.4 -7.18,-0.04 -12.67,11.02 -20.45,7.9 0.66,-7.62 7.41,-13.04 9.45,-20.3 2.8,-9.26 6.11,-18.45 7.45,-28.05 -2.4,-12.24 -14.41,-20.91 -13.95,-33.95 -0.46,-6.4 1.1,-14.79 -6.1,-18.05 -7.94,-5 -13.64,5.78 -19.2,9.8 -0.24,9.44 -0.24,18.88 -0.1,28.3 2.66,2.74 5.35,5.48 8.05,8.2 -1.18,3.42 -2.35,6.85 -3.55,10.25 -6.66,-0.36 -13.58,-1.35 -20.1,0.55 -9.12,6.06 -16.5,14.57 -21.8,24.15 -1.2,3.46 -7.3,3.32 -6,-1.3 2.8,-7.96 6.64,-15.56 10.2,-23.2 5,-9.84 20.26,-8.45 23.5,-19.75 1.74,-9.88 0.49,-20.17 -0.15,-30.15 -3.46,-12 -8.31,-23.61 -12.05,-35.55 -1.7,-7.32 -8.36,-11.39 -13.5,-16.15 -9.06,-7.6 -14.2,-18.5 -20.9,-28 z m 469.25,289.55 c 3.62219,-0.0225 7.28,0.24 10.9,0.85 4.56,0.64 8.72,3.22 11.6,6.8 3.68,8.76 -0.65,18.11 -7.25,24.15 -17.82,23 -46,33.1 -69.3,49.1 -2.68,-5.52 -3.18,-12.73 -9,-16.05 -11.34,-9.74 -25.84,-14.07 -38.9,-20.85 -13.26,-7.58 -29.14,-4.96 -43.6,-7.9 17.4,-6.68 35.5,-11.6 53.2,-17.5 19.92,-5.04 40.01,-9.36 60.05,-13.9 10.60499,-2.16 21.43344,-4.6325 32.3,-4.7 z"
       id="path48"
       style="fill:#f5e5c1"
       inkscape:connector-curvature="0" />
    <path
       d="m 940.28,527.36 c 13.6,-2.78 27.44,-0.4 41.16,-0.04 -0.56,8.22 -1.42,16.46 -3.28,24.5 -1.72,2.5 -5.48,1.44 -8.06,2.22 -26.96,1.96 -53.92,3.94 -80.88,5.9 -2.62,0.34 -5.32,0.5 -7.8,1.44 -16.68,8.28 -32.18,18.96 -49.06,26.78 -29.16,5.26 -58.7,8.78 -87.76,14.4 -7.88,8.14 -13.82,17.98 -21.14,26.64 -4.74,-0.46 -11.18,2.48 -14.42,-2.24 -2.5,-2.86 -4.68,-5.96 -6.98,-8.94 0.64,-9.56 1.62,-19.08 2.88,-28.58 6.7,-5 13.38,-10.58 21.9,-12.08 13.66,-2.98 26.78,-10.36 41.1,-8.52 14.7,0.7 29.34,1.98 44.04,2.58 3.92,0.06 8.18,0.86 11.66,-1.48 20.7,-11.28 40.98,-23.44 61.94,-34.2 18.12,-3.34 36.48,-5.48 54.7,-8.38 z"
       id="path50"
       inkscape:connector-curvature="0"
       style="fill:#f5e5c1" />
    <path
       d="m 891.02,573.66 c 27.18,-2.84 54.3,-6.68 81.5,-9.3 3.44,5.1 5.18,11.54 6.4,17.58 -2.44,11.36 -5.66,22.58 -8,33.96 -0.88,2.7 0.42,5.36 1.2,7.9 8.1,22.06 15.66,44.34 23.78,66.4 3.8,2.8 8.88,4.04 11.58,8.22 3.32,3.92 6.22,10.62 1.6,14.74 -5.98,5 -14.2,6.08 -21.44,8.4 -3.46,-5.54 -6.02,-11.74 -10.36,-16.66 -6.86,-2.76 -14.24,-4.34 -21.5,-5.64 -24.62,-0.86 -49.26,-0.34 -73.86,-1.34 -4.26,0.06 -9.16,-1.4 -12.86,1.38 -4.6,3.54 -8.2,8.16 -11.68,12.76 -2.06,-0.94 -5.02,-0.82 -6.24,-3.02 -3.76,-6.38 -5.5,-13.66 -7.36,-20.72 6.18,-3.18 12,-7.38 18.72,-9.38 13.78,-1.06 27.64,-2.64 41.46,-1.54 13.98,1.52 28.04,1.94 42.02,3.56 2.96,-0.12 6.9,1.32 9.1,-1.44 1.24,-3.62 -1.9,-6.4 -5.22,-6.84 -19.46,-4.78 -38.98,-9.32 -58.42,-14.16 -14.08,-4.46 -28.6,0.98 -42.86,1.26 8.66,-12.12 13.58,-26.24 19.38,-39.82 1.54,-3.3 1.64,-6.98 1.96,-10.54 -2.86,1.12 -6.7,1.08 -8.32,4.14 -8.52,13.3 -17.48,26.38 -27.1,38.92 -7.22,9.5 -19.26,13.16 -30.38,15.78 -10.78,2.48 -21.42,-1.12 -31.92,-3.22 -13.66,-3.36 -26.56,-12.08 -32.68,-25.06 -2.02,-6.74 2.88,-12.76 6.32,-18.08 2.4,-3.56 5.5,-7.26 10.14,-7.64 27.88,-4.64 55.8,-9.26 83.7,-13.78 3.28,-0.44 6.34,-1.86 9.06,-3.68 10.02,-6.68 20.06,-13.32 30.12,-19.92 3.54,-2.52 8,-2.62 12.16,-3.22 z"
       id="path52"
       inkscape:connector-curvature="0"
       style="fill:#f5e5c1" />
    <path
       d="m 89.16,633.72 c 10.38,-19.82 29.88,-34.1 51.2,-40.3 17.82,-3.04 37.4,-4.02 54.04,4.08 4.52,7.46 6.26,16.22 8.34,24.6 1.32,2.98 -1.16,7.24 -4.58,6.72 -11.4,-0.7 -22.52,-4.9 -34.02,-3.52 -16.96,1.4 -33.7,6.04 -48.58,14.38 -6.86,4.58 -13.34,9.7 -20.22,14.26 -2.6,-6.58 -4.08,-13.5 -6.18,-20.22 z"
       id="path54"
       inkscape:connector-curvature="0"
       style="fill:#f5e5c1" />
    <path
       d="m 147.56,643.6 c 16.34,-4.24 34.9,-5.58 50.22,2.68 7.54,5.1 14.4,11.18 21.34,17.08 -0.44,28.62 -2.66,57.24 -1.92,85.88 -22.3,-2.12 -45.52,-4.84 -67.2,2.58 -12.58,4.06 -23.86,11.26 -34.04,19.58 -7.52,-19.42 -15.78,-38.52 -23.64,-57.78 -1.88,-4.9 -5.24,-9.98 -3.32,-15.4 2.36,-7.94 3.86,-16.26 7.12,-23.88 14.46,-14 31.76,-25.62 51.44,-30.74 z"
       id="path56"
       inkscape:connector-curvature="0"
       style="fill:#f5e5c1" />
    <path
       d="m 457.14,703.54 c 13.94,2.94 26.62,10.24 40.94,11.6 17.1,3.74 34.62,4.28 51.98,6.1 -14.62,22.08 -22.82,48.32 -23.12,74.8 -0.58,12.06 -1.9,24.06 -3.04,36.08 -0.02,4.88 -4.24,7.86 -7.22,11.12 -5.3,-1.48 -10.6,-2.9 -15.92,-4.26 -14.84,-45.04 -28.96,-90.34 -43.62,-135.44 z"
       id="path58"
       inkscape:connector-curvature="0"
       style="fill:#f4722b" />
  </g>
</svg>
