<?xml version="1.0" encoding="UTF-8" standalone="no"?>
<svg
   xmlns:dc="http://purl.org/dc/elements/1.1/"
   xmlns:cc="http://creativecommons.org/ns#"
   xmlns:rdf="http://www.w3.org/1999/02/22-rdf-syntax-ns#"
   xmlns:svg="http://www.w3.org/2000/svg"
   xmlns="http://www.w3.org/2000/svg"
   xmlns:sodipodi="http://sodipodi.sourceforge.net/DTD/sodipodi-0.dtd"
   xmlns:inkscape="http://www.inkscape.org/namespaces/inkscape"
   width="1280"
   height="1280"
   viewBox="0 0 1024 1024"
   version="1.1"
   id="svg2"
   inkscape:version="0.48.1 "
   sodipodi:docname="kill_spies.svg">
  <metadata
     id="metadata54">
    <rdf:RDF>
      <cc:Work
         rdf:about="">
        <dc:format>image/svg+xml</dc:format>
        <dc:type
           rdf:resource="http://purl.org/dc/dcmitype/StillImage" />
      </cc:Work>
    </rdf:RDF>
  </metadata>
  <defs
     id="defs52" />
  <sodipodi:namedview
     pagecolor="#ffffff"
     bordercolor="#666666"
     borderopacity="1"
     objecttolerance="10"
     gridtolerance="10"
     guidetolerance="10"
     inkscape:pageopacity="0"
     inkscape:pageshadow="2"
     inkscape:window-width="1920"
     inkscape:window-height="1018"
     id="namedview50"
     showgrid="false"
     inkscape:snap-page="true"
     fit-margin-top="0"
     fit-margin-left="0"
     fit-margin-right="0"
     fit-margin-bottom="0"
     inkscape:zoom="0.6609375"
     inkscape:cx="466.00473"
     inkscape:cy="640"
     inkscape:window-x="-8"
     inkscape:window-y="-8"
     inkscape:window-maximized="1"
     inkscape:current-layer="layer1" />
  <g
     inkscape:groupmode="layer"
     id="layer1"
     inkscape:label="background"
     style="display:inline">
    <rect
       style="fill:#3e3e3e;fill-opacity:1"
       id="rect3034"
       width="1024"
       height="1024"
       x="0"
       y="0" />
  </g>
  <g
     inkscape:groupmode="layer"
     id="layer2"
     inkscape:label="foreground">
    <path
       d="m 519.12,10.66 c 4.46,-0.14 8.94,-0.14 13.42,0 12.76,6.86 27.4,8.52 40.78,13.8 97.56,30.24 194.82,61.44 292.5,91.18 37.7,11.86 75.4,23.68 113.16,35.34 0.04,3.68 0.1,7.38 0.28,11.08 1.28,2.38 2.48,4.9 2.28,7.7 0,30.18 -0.08,60.36 0,90.54 -0.64,0.58 -1.94,1.74 -2.58,2.32 0.16,10.46 0.68,20.98 -1.48,31.3 -0.54,13.3 -1.7,26.62 -3.9,39.76 -2.84,27.46 -6.72,54.86 -11.54,82.06 -0.64,3.98 -1.22,7.96 -1.98,11.92 -20,109.48 -48.76,217.26 -83.78,322.84 -9.06,25.66 -16.5,51.88 -26.7,77.12 -1.9,4.42 -5.12,8.08 -8.62,11.32 -15.98,13.82 -33.28,26 -49.7,39.24 -6.04,-3.9 -12.9,-6.08 -19.86,-7.64 -4.5,-0.68 -7.04,-4.62 -9.82,-7.74 19.22,-12.86 37.46,-27.1 55.26,-41.86 4.72,-4.04 10.54,-7.46 12.88,-13.56 5.52,-12.92 9.72,-26.36 14.16,-39.66 10.06,-24.8 16.72,-50.74 25.46,-75.98 39.02,-128.88 71.52,-260.76 80.84,-395.44 2.5,-15.36 -0.64,-31.06 2.1,-46.42 2.26,-15.3 -2.2,-30.48 -1.14,-45.78 0.68,-10.28 -0.88,-20.44 -2.78,-30.5 -21.02,-4.82 -41.14,-12.78 -61.9,-18.54 C 784.32,122.9 682.06,91.16 579.84,59.28 562.96,54.18 546.18,48.78 529.46,43.2 c -5.92,-1.82 -11.6,1.6 -17.1,3.28 -136.54,43.08 -273.26,85.62 -409.8,128.78 -2.34,12.76 -2.38,25.7 -2.08,38.62 -1.06,12.96 -3.12,26.04 -0.98,39.04 2.46,14.52 -0.7,29.36 2.02,43.86 5.44,90.46 23.38,179.7 44.6,267.64 20.68,79.86 44.1,159.14 73.06,236.42 -7.06,5.94 -13.7,12.38 -20.34,18.78 C 172.62,748.54 151,675.92 131.04,602.86 114.78,541.1 100.22,478.82 89.82,415.82 c -0.76,-3.98 -1.34,-7.96 -1.94,-11.96 -3.76,-23.26 -8,-46.56 -9.72,-70.08 -1.68,-5.82 -1.68,-11.88 -1.94,-17.88 -2.5,-16.54 -3.8,-33.36 -3.78,-50.16 -1.1,-3.14 -2.06,-6.36 -2,-9.72 0,-26.64 0.16,-53.3 -0.04,-79.94 -0.1,-7.42 1.24,-14.74 2.68,-21.98 0.28,-1.84 1.4,-3 3.32,-3.46 132.88,-41.48 265.74,-83.1 398.5,-125.04 14.62,-5.34 30.32,-7.7 44.22,-14.94 z"
       id="path6"
       inkscape:connector-curvature="0"
       style="fill:#f4722b" />
    <path
       d="m 501.56,79.84 c 9.4,-2.66 18.68,-8.28 28.76,-6.28 115.76,36.32 231.66,72.28 347.48,108.5 14.8,5.24 30.28,8.5 44.82,14.58 -0.46,9.88 2.5,19.52 1.98,29.4 -0.64,14.3 1.14,28.74 -1.34,42.92 -1.46,10.66 0.56,21.54 -1.82,32.12 -3.14,49.22 -10.72,98.06 -19.68,146.52 -22.68,116.44 -55.16,230.92 -95.84,342.3 -1.38,5.42 -6.62,8.02 -10.48,11.44 -17.68,15.04 -36.72,28.34 -55.54,41.86 -64.42,-53.24 -127.3,-108.34 -191.76,-161.52 -4.48,-4.6 -6.76,-10.76 -9.78,-16.3 -4.26,-7.04 1.06,-14.8 2.96,-21.74 8.34,-19.86 4.6,-43.76 -8.4,-60.76 -11.64,-15.94 -31.14,-22.62 -48.36,-30.6 1.86,-3.66 3.66,-7.36 5.42,-11.06 16.1,13.54 32.14,27.18 48.9,39.94 4.94,3.72 11.8,3.62 16.52,7.74 6.36,5.22 12.94,10.74 21.18,12.6 12.88,3.16 27.02,3.7 39.46,-1.44 15.54,-8.26 29.16,-23.54 29.62,-41.92 1.16,-5.34 -0.76,-12.32 4.26,-16 11.62,-11.14 23.28,-22.24 34.58,-33.68 4.64,-5.04 12.18,-4.54 17.62,-8.32 6.92,-4.98 16.28,-3.76 23.18,-8.8 10.74,-7.02 21.14,-14.8 29.9,-24.22 5.52,-5.7 6.28,-13.92 7.76,-21.3 33.02,-0.04 66.04,0.08 99.06,-0.04 9.2,-0.08 19.58,-0.48 26.66,-7.22 13.14,-13.58 16.1,-34.46 11.1,-52.22 -4.12,-14.5 -5.22,-29.64 -10.04,-43.94 -2.8,-14.16 -5.44,-28.38 -9.76,-42.18 -2.84,-11.96 -4,-24.28 -8,-35.98 -5.84,-18.08 -5.64,-38.18 -15.84,-54.74 -4.02,-8.94 -12.7,-13.98 -20.54,-19.1 -7.68,-4.62 -16.56,-7.4 -25.58,-7.36 -71.32,0.04 -142.66,0.04 -214,0 -10.26,0.1 -21.4,-1.08 -30.58,4.48 -8.76,5.2 -16.92,11.36 -25.12,17.4 -33.4,-0.94 -66.86,-0.14 -100.28,-0.5 -10,-0.4 -20.28,2.84 -26.32,11.24 -33.92,0.14 -67.84,0.04 -101.76,-0.04 -8.16,0.2 -17.3,0.86 -23.42,6.96 -6.16,5.82 -12.22,11.74 -17.9,18.04 -6.68,7.52 -5.98,18.36 -6.14,27.74 -16.08,2.78 -32.46,-0.16 -48.6,1.74 -14.72,3.28 -30.76,-2.14 -44.66,5.22 -8.78,5.64 -17.68,13.72 -18.94,24.68 -1.4,10.62 -0.42,21.38 -0.66,32.06 0.26,10.74 -0.9,21.6 0.94,32.24 1.48,9.74 9.72,16.28 16.74,22.3 5.62,5.06 13.16,7.22 20.62,7.2 25.84,0.18 51.72,-0.14 77.58,0.14 5.86,11.74 16.3,23.64 30.38,24.18 13.14,0.74 26.3,0.08 39.46,0.22 -3.78,11.62 -4.84,23.84 -7.46,35.74 -2.6,10.28 -0.06,22.78 9.16,29 9.8,6.12 21.98,4.52 32.98,4.54 -4.82,8.64 -5.98,18.52 -6.62,28.22 0.1,5.76 -6.84,6.44 -10.56,9.1 -8.18,3.62 -12.68,11.68 -16.58,19.26 -5.7,11.04 -11.92,21.82 -17.42,32.96 -7.82,13.54 -17.6,26.88 -19.16,42.94 -1.78,16.6 0.22,33.56 4.6,49.64 3.18,12.52 11.74,22.64 19.78,32.38 -27.86,26.38 -56.44,51.98 -84.54,78.1 C 235.06,759.08 226.12,738.76 220.4,717.38 197.18,647.54 177.34,576.52 161.4,504.66 145.48,434 133.92,362.22 128.78,289.98 c 1.12,-13.4 -2.66,-26.54 -1.78,-39.96 0.52,-13.26 -1.06,-26.66 1.2,-39.82 0.68,-4.46 0.66,-8.96 0.66,-13.44 124.2,-39.04 248.44,-78.02 372.7,-116.92 z"
       id="path8"
       inkscape:connector-curvature="0"
       style="fill:#f4722b" />
    <path
       d="m 576.42,210.32 c 2.18,-1.72 5,-1.72 7.64,-1.78 76,0.1 151.98,-0.02 227.98,0.06 5.62,-0.26 9,5.16 13.18,8.08 4.86,4.68 12.22,8.02 13.28,15.42 12.62,56.06 26.38,111.92 38.58,168.08 -3.2,7.74 -9.54,13.84 -14.04,20.92 -106.84,-0.02 -213.72,0.06 -320.56,-0.04 -5.04,-5.82 -9.28,-12.36 -13,-19.08 -0.16,-4.64 1,-9.2 1.54,-13.78 7.64,-53.54 14.38,-107.2 21.98,-160.74 7.6,-5.98 15.22,-12 23.42,-17.14 z"
       id="path10"
       inkscape:connector-curvature="0"
       style="fill:#f5e5c1" />
    <path
       d="m 434.66,300.82 c 0.18,-23.92 0.18,-47.84 0.14,-71.76 33.68,0.48 67.36,-0.06 101.02,0.58 -5.82,59.4 -14.8,118.48 -21.02,177.86 -8.62,1.62 -17.4,0.86 -26.02,-0.28 -3.94,-4.72 -7.96,-9.58 -9.74,-15.58 -8.74,-25.76 -17.22,-51.62 -26.08,-77.34 -1.7,-5.1 -5.06,-9.4 -8.3,-13.6 -3.34,0.02 -6.68,0.06 -10,0.12 z"
       id="path12"
       inkscape:connector-curvature="0"
       style="fill:#f5e5c1" />
    <path
       d="m 290.8,256.56 c 4.18,-5.88 9.82,-10.52 14.8,-15.7 28.82,0.1 57.64,0.22 86.48,0.42 9.16,0.1 18.38,-0.5 27.46,1.14 0.16,20.16 -2.44,40.18 -3.08,60.32 -13.48,2.36 -27.18,3.2 -40.76,4.82 -5.52,28.6 -12.26,56.94 -18.86,85.3 -19.7,-0.1 -39.4,-0.04 -59.12,-0.04 -2.14,-2.22 -4.3,-4.46 -6.44,-6.68 -1.86,-28.66 -0.38,-57.44 -0.86,-86.14 0.32,-14.48 -0.6,-29.02 0.38,-43.44 z"
       id="path14"
       inkscape:connector-curvature="0"
       style="fill:#f5e5c1" />
    <path
       d="m 216.48,294.8 c 20.04,-0.62 40.08,-0.18 60.14,-0.3 -0.02,24.88 -0.06,49.74 0.02,74.62 -28.28,0.06 -56.54,0.02 -84.82,0.06 -6.36,0.76 -10.06,-5.4 -14.6,-8.72 0.08,-19.44 0.1,-38.88 0.12,-58.32 2.3,-2.16 4.58,-4.32 6.88,-6.5 4.3,0 8.6,0 12.92,-0.02 0,15.12 -0.06,30.26 0,45.38 5.88,0.6 11.92,1.36 17.76,0.08 1.84,-2.7 1.34,-6.1 1.56,-9.16 0.14,-12.38 0.12,-24.74 0.02,-37.12 z"
       id="path16"
       inkscape:connector-curvature="0"
       style="fill:#f5e5c1" />
    <path
       d="m 425.15,314.65 c -13.34437,9.4e-4 -26.65,0.14499 -40,0.25 -10.32,49.38 -20.26,98.86 -30.7,148.2 39.54,0.04 79.11,0.13 118.65,-0.15 -12.1,-49.28 -21.08,-99.31 -34.6,-148.25 -4.45,-0.05 -8.90187,-0.0503 -13.35,-0.05 z m -6.45,38.7 c 4.1257,0.0524 8.1725,0.5975 12.05,2.15 8.16,9.6 14.55,20.69 22.45,30.55 -4.96,11.74 -9.91,23.71 -16.75,34.45 -13.76,3.64 -28.19,1.75 -42.25,2.15 -7.24,-10.5 -12.15,-22.42 -15.75,-34.6 2.16,-8.32 6.63,-15.87 9.95,-23.75 2.08,-4.02 3.96,-10.09 9.6,-9.45 6.7375,-0.27499 13.82382,-1.58731 20.7,-1.5 z"
       id="path18"
       style="fill:#f5e5c1"
       inkscape:connector-curvature="0" />
    <path
       d="m 393,390.02 c 4.46,-10.62 9.82,-20.92 15.96,-30.68 3.86,0.04 7.72,0.06 11.58,0.06 6.08,9.16 11.4,18.76 16.82,28.32 -4.58,5.74 -8.9,11.66 -13.22,17.6 -8.78,-0.32 -17.56,-0.48 -26.34,-0.56 -1.72,-4.86 -3.78,-9.66 -4.8,-14.74 z"
       id="path22"
       inkscape:connector-curvature="0"
       style="fill:#f5e5c1" />
    <path
       d="m 501.38,433.24 c 5.64,-0.88 11.38,-0.2 17.04,0.32 4.66,5.48 10.56,10.36 17.94,11.36 14.42,2.06 29.04,0.2 43.54,1.12 2.62,8.44 5.14,17.02 9.72,24.66 -2.14,6.38 -4.84,12.56 -7.78,18.64 -14.34,-2.12 -25.44,-12.32 -37.04,-20.14 -6.56,-7.42 -17.38,-8.7 -23.34,-16.72 -5.24,-6.48 -13.08,-9.72 -21.02,-11.46 0.22,-2.6 0.22,-5.26 0.94,-7.78 z"
       id="path24"
       inkscape:connector-curvature="0"
       style="fill:#f4722b" />
    <path
       d="m 604.08,434.92 c 10.5,-2.32 21.32,-1.48 31.98,-1.88 34.28,-0.06 68.52,-2.72 102.8,-1.98 -1.22,7.82 0.76,18.02 -6.54,23.32 -7.32,5.64 -13.84,13.04 -22.54,16.42 -19.94,0.84 -39.98,-0.72 -59.86,-2.12 -13.64,-4.22 -26.98,-9.42 -40.6,-13.76 -2.28,-6.52 -4.62,-13.08 -5.24,-20 z"
       id="path26"
       inkscape:connector-curvature="0"
       style="fill:#f5e5c1" />
    <path
       d="m 490.12,464.22 c 27.66,17.42 54.82,35.66 82.08,53.76 -2.86,9.2 -11.92,15 -13.88,24.58 -1.86,6.44 1.24,13.34 -1.64,19.6 -9.82,-5.42 -17.72,-13.52 -26.6,-20.24 -16.44,-14.16 -34.02,-27.02 -49.88,-41.84 3.32,-11.94 7.14,-23.76 9.92,-35.86 z"
       id="path28"
       inkscape:connector-curvature="0"
       style="fill:#f5e5c1" />
    <path
       d="m 619.72,467.92 c 10.16,2.92 19.84,7.34 30.08,9.98 9.6,1.46 19.38,0.84 29.08,1.3 -18.22,17.62 -36.68,34.96 -54.76,52.72 -6.26,-8.64 -15.88,-13.94 -26.32,-15.64 7,-16.26 14.74,-32.18 21.92,-48.36 z"
       id="path30"
       inkscape:connector-curvature="0"
       style="fill:#f5e5c1" />
    <path
       d="m 395.9,497.86 c 6.98,-7.22 14.76,-14.14 24.12,-18.04 15.5,-1.06 31.12,0.14 46.66,-0.9 -0.26,15.88 -0.12,31.78 0.04,47.66 -7.28,5.4 -15.58,9.48 -24.46,11.38 -7.92,2.3 -16.02,-0.32 -23.88,-1.56 -9.88,-1.64 -18.62,-6.78 -27.8,-10.5 0.3,-9.42 -1.96,-20.54 5.32,-28.04 z"
       id="path32"
       inkscape:connector-curvature="0"
       style="fill:#f5e5c1" />
    <path
       d="m 586.68,526.34 c 15.4,-3.38 36.28,8.12 34.66,25.74 0.62,17.44 -18.84,31.82 -35.32,25.94 -14.78,-3.22 -22.46,-20.76 -18.4,-34.52 2.9,-8.5 10.78,-14.42 19.06,-17.16 z"
       id="path34"
       inkscape:connector-curvature="0"
       style="fill:#f5e5c1" />
    <path
       d="m 368.08,546.44 c 7.14,-2.94 14.34,-6.14 21.94,-7.72 6.18,1.68 11.88,4.74 17.74,7.32 21.8,9.8 43.68,19.4 65.54,29.02 10.38,4.6 21.02,8.74 30.68,14.8 14.42,8.86 20.02,28.66 13.98,44.2 -3.22,10.32 -7.94,20.8 -6.72,31.84 6.14,15.88 14.08,32.48 29.06,41.82 61.68,51.58 122.76,103.88 184.18,155.74 10.68,8.88 20.32,18.9 30.14,28.7 -2.88,5.88 -5.76,11.8 -8.54,17.74 -8.74,-0.98 -17.88,-1.72 -25.56,-6.38 -75.6,-41.66 -151.12,-83.5 -226.66,-125.24 -14.88,-8.6 -30.46,-16.06 -44.92,-25.32 -8.14,-8.3 -19.44,-16.24 -19.96,-28.94 1.72,-13.18 10.38,-24.2 19.6,-33.28 5.98,-6.34 14.84,-9.02 20.54,-15.68 11.5,-12.54 16.02,-31.2 10.84,-47.5 -1.38,-7.82 -7.56,-13.34 -13.4,-18.1 -14.36,-11.66 -37.26,-12.82 -51.62,-0.56 -6.48,5.48 -12.66,12.02 -15.18,20.34 -1.8,6.32 -1.24,12.96 -1.18,19.46 -17.78,12.4 -35.94,24.24 -53.88,36.42 -7.86,-9.02 -15.38,-19.34 -16.28,-31.68 -1,-11.4 -5.16,-23.2 -1,-34.4 4.06,-11.06 10.94,-20.74 16.3,-31.14 5.92,-11.5 12.06,-22.9 18.18,-34.3 1.62,-2.7 2.94,-6.06 6.18,-7.16 z"
       id="path36"
       inkscape:connector-curvature="0"
       style="fill:#f5e5c1" />
    <path
       d="m 428.86,615.02 c 14.78,-6.58 33.84,1.44 39.22,16.74 6.7,15.52 -3.06,34.96 -19.22,39.42 -17.52,6.12 -38.2,-8.52 -38.22,-27.06 -1.16,-12.38 6.9,-24.44 18.22,-29.1 z"
       id="path38"
       inkscape:connector-curvature="0"
       style="fill:#f5e5c1" />
    <path
       d="m 403.24,659.76 c 4.22,11.64 14.96,18.92 25.68,23.98 -1.54,6.48 -1.44,13.74 -5.78,19.18 -33.26,48.14 -65.02,97.32 -99.84,144.34 -3.56,4.6 -9.06,6.98 -13.62,10.42 -20.58,14.72 -41.18,29.4 -61.66,44.26 -6.38,4.52 -12.28,10.28 -20.16,11.98 -9.38,2.26 -18.44,5.88 -27.98,7.5 -13.2,0.66 -26.44,0.02 -39.64,0.28 3.7,-13.22 7.64,-26.38 11.42,-39.58 1.4,-7.08 7.96,-10.96 12.76,-15.62 71.26,-65.46 142.34,-131.1 213.62,-196.5 3.24,-2.52 4.6,-6.34 5.2,-10.24 z"
       id="path40"
       inkscape:connector-curvature="0"
       style="fill:#f5e5c1" />
    <path
       d="m 392.1,794 c 8.18,-12.62 16.32,-25.32 25.5,-37.24 6.88,7.04 12.86,15.28 21.62,20.14 71.82,39.84 143.7,79.5 215.6,119.18 -42.46,23.38 -84.76,47.22 -129,67.12 -28,-12.3 -55.1,-26.56 -82,-41.02 -34.52,-18.04 -68.28,-37.58 -101.18,-58.46 7.26,-11.58 16.24,-21.92 23.86,-33.26 8.42,-12.22 17.12,-24.28 25.6,-36.46 z"
       id="path42"
       inkscape:connector-curvature="0"
       style="fill:#f4722b" />
    <path
       d="m 292.8,900.72 c 8.72,-6.02 17.2,-12.36 26.02,-18.22 53.14,34.56 109.06,64.68 165.7,93.04 13.56,7.08 28.08,12.2 41.24,20.1 23.36,-13.04 48.64,-22.28 71.66,-36 26.26,-13.46 52.3,-27.4 77.64,-42.56 3.86,-1.72 8.32,-5.9 12.58,-2.86 8.76,4.54 17.2,9.7 26,14.2 -57.68,35.04 -117.28,66.96 -178.36,95.58 l -18.54,0 c -24.88,-10.64 -48.46,-24.12 -72.9,-35.74 -51.58,-26.94 -102.16,-55.9 -151.04,-87.54 z"
       id="path44"
       inkscape:connector-curvature="0"
       style="fill:#f4722b" />
    <path
       d="m 770.1,895 c 31.44,21.02 63.12,41.68 94.5,62.8 -2.24,13.72 -2.34,27.76 -5.6,41.3 -14.96,2.06 -30.1,1.62 -45.14,1.76 -4.58,0.26 -6.58,-4.74 -9.08,-7.66 -16.4,-23.8 -34.14,-46.68 -49.9,-70.88 5.06,-9.12 10.26,-18.16 15.22,-27.32 z"
       id="path46"
       inkscape:connector-curvature="0"
       style="fill:#f5e5c1" />
    <path
       d="m 115.16,965.82 c 10.48,-7.86 19.52,-17.62 30.5,-24.72 12.74,-0.24 25.52,0.3 38.22,1.32 13.08,0.78 26.4,-0.2 39.26,2.78 8.5,5.12 15.9,11.9 24.06,17.56 -0.02,7.98 -0.02,15.98 0,23.96 -44,-0.06 -88,-0.1 -132,-0.12 -0.04,-6.94 0,-13.86 -0.04,-20.78 z"
       id="path48"
       inkscape:connector-curvature="0"
       style="fill:#f5e5c1" />
  </g>
</svg>
