<?xml version="1.0" encoding="UTF-8" standalone="no"?>
<svg
   xmlns:dc="http://purl.org/dc/elements/1.1/"
   xmlns:cc="http://creativecommons.org/ns#"
   xmlns:rdf="http://www.w3.org/1999/02/22-rdf-syntax-ns#"
   xmlns:svg="http://www.w3.org/2000/svg"
   xmlns="http://www.w3.org/2000/svg"
   xmlns:sodipodi="http://sodipodi.sourceforge.net/DTD/sodipodi-0.dtd"
   xmlns:inkscape="http://www.inkscape.org/namespaces/inkscape"
   width="1280"
   height="1280"
   viewBox="0 0 1024 1024"
   version="1.1"
   id="svg2"
   inkscape:version="0.48.1 "
   sodipodi:docname="kill_from_behind.svg">
  <metadata
     id="metadata18">
    <rdf:RDF>
      <cc:Work
         rdf:about="">
        <dc:format>image/svg+xml</dc:format>
        <dc:type
           rdf:resource="http://purl.org/dc/dcmitype/StillImage" />
      </cc:Work>
    </rdf:RDF>
  </metadata>
  <defs
     id="defs16" />
  <sodipodi:namedview
     pagecolor="#ffffff"
     bordercolor="#666666"
     borderopacity="1"
     objecttolerance="10"
     gridtolerance="10"
     guidetolerance="10"
     inkscape:pageopacity="0"
     inkscape:pageshadow="2"
     inkscape:window-width="1920"
     inkscape:window-height="1018"
     id="namedview14"
     showgrid="false"
     fit-margin-top="0"
     fit-margin-left="0"
     fit-margin-right="0"
     fit-margin-bottom="0"
     inkscape:zoom="0.6609375"
     inkscape:cx="640"
     inkscape:cy="640"
     inkscape:window-x="-8"
     inkscape:window-y="-8"
     inkscape:window-maximized="1"
     inkscape:current-layer="svg2" />
  <path
     d="m 0,0 1024,0 0,1024 L 0,1024 0,0 z"
     id="path4"
     inkscape:connector-curvature="0"
     style="fill:#3e3e3e" />
  <path
     d="m 103.92,65.84 c 26.38,-17.3 58.62,-22.04 89.62,-21.54 -18.52,6.04 -35.42,19.04 -41.88,37.94 -10.54,30.16 -2.98,62.9 6.1,92.42 19.08,57.92 49,111.46 79.86,163.78 30.84,44.58 60.96,89.66 91.64,134.36 11.06,15.74 23.12,30.74 34.7,46.1 19.4,-17.1 38.3,-35.02 60.5,-48.52 19.98,-15.34 41.22,-28.88 62.02,-43.08 0.38,11.04 -3.08,21.7 -3.42,32.68 -5.8,63.24 -5.66,127.02 0.12,190.26 4.04,40.84 9.28,81.76 19.08,121.66 -28.16,-5.8 -56.38,-11.32 -84.54,-16.82 -24.82,-2.36 -48.88,-9.66 -73.84,-10.82 -14.76,-0.42 -29.04,-5.24 -43.82,-5.24 -48,-5.48 -96.3,-9.78 -144.66,-11.36 5.68,-6.54 10.5,-13.76 15.84,-20.56 20.46,-26.58 42.72,-51.68 65.84,-75.94 4.1,-4.18 8.56,-8 12.98,-11.82 C 222.68,572.5 194.66,526 166.06,479.9 142.5,440.68 120.08,400.76 100.28,359.52 83.62,324.08 67.94,287.96 57.82,250.04 49.58,220.84 45.36,190.32 47.98,159.98 51.96,122.58 71.56,86.02 103.92,65.84 z"
     id="path6"
     inkscape:connector-curvature="0"
     style="fill:#f3722c" />
  <path
     d="m 199.3,61.2 c 16.06,-4.48 32.74,-0.28 48.88,1.64 34.38,6.44 69.22,13.04 101.08,28.02 49.36,20.94 96.78,46.02 144.1,71.12 -24.62,39.38 -49.7,78.46 -74.6,117.66 -60.12,-32.22 -121.2,-63.9 -186.66,-83.94 -16.42,-4.2 -32.92,-9.16 -50.02,-9.28 -5.36,-16.16 -13.3,-31.58 -15.82,-48.56 -1.46,-8.54 -4.22,-17.04 -3.18,-25.8 1.08,-10.56 2.06,-21.84 8.08,-30.94 5.94,-10.4 17.74,-15.2 28.14,-19.92 z"
     id="path8"
     inkscape:connector-curvature="0"
     style="fill:#f3722c" />
  <path
     d="m 522.98,246.3 c 35.54,7.26 70.92,15.2 106.88,19.88 14.44,3.68 29.3,5.06 44.02,7.22 16.14,0.32 31.86,4.54 47.92,5.7 49.06,4.68 98.3,10.9 147.66,10.86 -22.86,30.66 -47.02,60.42 -73.54,88 -7.92,8.84 -16.5,17.02 -25.6,24.62 7.72,11.26 15.78,22.28 23.76,33.36 25.08,39.62 51.18,78.66 74.8,119.22 6.58,12.02 15.6,22.68 20.48,35.62 31.52,57.84 61.62,117.28 78.72,181.18 7.94,29.26 11.4,59.84 8.22,90.06 -4.28,27.6 -15.6,54.76 -35.94,74.4 -19.22,19.28 -45.34,30.98 -72.14,34.76 -12.04,2.32 -24.36,1.68 -36.54,2.48 17.02,-5.56 32.8,-16.96 40.04,-33.78 11.18,-25.38 6.88,-54.26 0.36,-80.26 -13.58,-49.98 -37.42,-96.36 -62.28,-141.52 -10.26,-17.52 -19.46,-35.76 -31.7,-52.04 -28.36,-41.7 -56.74,-83.38 -85.04,-125.14 -9.32,-14.94 -22.4,-26.94 -33.84,-40.2 -18.92,16.64 -37.72,33.6 -59.18,47 -19.72,15.42 -41.2,28.4 -61.52,43 10.68,-84.44 10.32,-170.26 0.16,-254.76 -4.04,-30.08 -8.34,-60.2 -15.7,-89.66 z"
     id="path10"
     inkscape:connector-curvature="0"
     style="fill:#f5e5c1" />
  <path
     d="m 605.98,737.5 c 32.4,16.5 64.4,33.86 97.56,48.84 17.36,9.4 36.34,15.12 54.3,23.14 28.52,9.82 57.66,20.48 88.26,19.82 8.1,21.56 17.02,43.38 17.74,66.72 0.18,13.76 0.38,28.42 -6.6,40.8 -2.68,6.52 -9.12,9.98 -14.32,14.22 -5.18,4.48 -12.4,4.46 -18.74,5.92 -37.88,4.14 -75.42,-5.56 -111.04,-17.56 -35.52,-12.84 -70.88,-26.48 -104.4,-44.02 -26.56,-12.68 -51.88,-27.74 -77.7,-41.84 3.62,-6.34 8.08,-12.12 12.48,-17.92 20.76,-32.74 41.66,-65.38 62.46,-98.12 z"
     id="path12"
     inkscape:connector-curvature="0"
     style="fill:#f5e5c1" />
</svg>
