<?xml version="1.0" encoding="UTF-8" standalone="no"?>
<svg
   xmlns:dc="http://purl.org/dc/elements/1.1/"
   xmlns:cc="http://creativecommons.org/ns#"
   xmlns:rdf="http://www.w3.org/1999/02/22-rdf-syntax-ns#"
   xmlns:svg="http://www.w3.org/2000/svg"
   xmlns="http://www.w3.org/2000/svg"
   xmlns:sodipodi="http://sodipodi.sourceforge.net/DTD/sodipodi-0.dtd"
   xmlns:inkscape="http://www.inkscape.org/namespaces/inkscape"
   width="1280"
   height="1280"
   viewBox="0 0 1024 1024"
   version="1.1"
   id="svg2"
   inkscape:version="0.48.1 "
   sodipodi:docname="kill_grind_large.svg">
  <metadata
     id="metadata34">
    <rdf:RDF>
      <cc:Work
         rdf:about="">
        <dc:format>image/svg+xml</dc:format>
        <dc:type
           rdf:resource="http://purl.org/dc/dcmitype/StillImage" />
      </cc:Work>
    </rdf:RDF>
  </metadata>
  <defs
     id="defs32" />
  <sodipodi:namedview
     pagecolor="#ffffff"
     bordercolor="#666666"
     borderopacity="1"
     objecttolerance="10"
     gridtolerance="10"
     guidetolerance="10"
     inkscape:pageopacity="0"
     inkscape:pageshadow="2"
     inkscape:window-width="1920"
     inkscape:window-height="1018"
     id="namedview30"
     showgrid="false"
     fit-margin-top="0"
     fit-margin-left="0"
     fit-margin-right="0"
     fit-margin-bottom="0"
     inkscape:zoom="0.6609375"
     inkscape:cx="640"
     inkscape:cy="640"
     inkscape:window-x="-8"
     inkscape:window-y="-8"
     inkscape:window-maximized="1"
     inkscape:current-layer="layer1"
     inkscape:snap-page="true" />
  <g
     inkscape:groupmode="layer"
     id="layer1"
     inkscape:label="background">
    <rect
       style="fill:#3e3e3e;fill-opacity:1;fill-rule:nonzero;stroke:none"
       id="rect3002"
       width="1280"
       height="1280"
       x="0"
       y="0"
       transform="scale(0.8,0.8)" />
  </g>
  <g
     inkscape:groupmode="layer"
     id="layer2"
     inkscape:label="foreground">
    <path
       d="m 592.48,42.42 c 16.38,-3.6 32.52,-9.58 49.52,-9.34 15.38,-0.06 30.78,-0.92 46.14,-0.26 27.64,6.86 54.08,18.08 78.74,32.3 8.36,5 18.08,7.86 25.36,14.58 9,8.22 18.86,15.66 26.3,25.4 -13.52,-0.06 -27.12,0.82 -40.56,-1.1 -14.56,-1.9 -29.5,-1.74 -43.66,-5.96 -14.16,-3.44 -28.3,-6.9 -42.42,-10.5 -8.14,-2.24 -18.24,0.24 -21.68,8.64 -10.76,21.2 -21.1,42.6 -32.8,63.3 -4.56,6.62 -3.46,15.02 -6.4,22.24 -7.24,21.34 -12.52,43.36 -21.1,64.22 -4.38,17.22 -8.54,34.52 -12.2,51.92 -3.72,16.3 -5.38,33.36 -13.32,48.36 -7.62,14.94 -11.88,32.06 -23.9,44.3 -6.62,6.68 -12.24,14.86 -20.98,18.94 -6.86,3.36 -13.4,8.16 -21.32,8.52 -9.94,0.66 -20,3.56 -29.92,1.28 -11.74,-2.46 -23.78,-3.62 -35.34,-6.94 -10.04,-3.28 -19.58,-7.86 -29.22,-12.14 -10.76,-5.42 -23.12,-5.48 -34.34,-9.5 -16.32,-3.34 -32.92,-5.06 -49.38,-7.68 -11.38,-0.96 -22.7,-3.44 -34.18,-2.24 -18.4,1.64 -36.76,3.54 -55.2,4.76 5.48,-9.3 10.08,-19.04 14,-29.08 15.68,-32.98 33.7,-64.78 50.7,-97.06 4.46,-8.14 8.3,-16.72 14.16,-23.98 14.14,-17.82 28.2,-35.72 42.34,-53.54 5.32,-6.66 10.2,-13.8 16.88,-19.24 20.16,-17.24 40,-34.9 61,-51.1 15.06,-10.4 30.92,-19.6 46.34,-29.46 9.32,-5.56 18.08,-12.28 28.36,-16 22.54,-8.28 44.42,-18.78 68.08,-23.64 z"
       id="path6"
       inkscape:connector-curvature="0"
       style="fill:#f5e5c1" />
    <path
       d="m 862.62,114.56 c 10.2,-1.96 19.5,-6.82 29.48,-9.58 5.86,-1.5 11.3,2.2 16.42,4.52 1.48,3.84 2.82,7.72 3.56,11.76 4.08,25.7 8,51.42 12.6,77.02 1.86,17.66 6.14,35.04 6.82,52.84 -26.08,-6 -52.62,-9.68 -78.6,-16.06 -11.6,-28.82 -22.02,-58.12 -34.32,-86.62 -9.74,0.36 -17.62,7.84 -22.48,15.7 -11.4,24.12 -22.76,48.28 -34.06,72.44 -21.92,3.82 -43.96,7.04 -66,10.04 -10.58,0.18 -20.74,3.08 -31.08,5 -8.26,1.92 -10.54,11.44 -11.86,18.62 17.74,24.06 38.08,46.24 56.34,69.92 0.72,5.84 -1.6,11.58 -2.68,17.26 -12.92,57.38 -25.6,114.8 -38.52,172.16 -1.42,4.36 -0.88,8.88 1.14,12.94 2.18,0.72 4.34,1.44 6.52,2.2 12.42,-2.66 22.2,-11.2 30.44,-20.4 28.14,-30.6 56.3,-61.16 84.2,-91.98 21.48,13.44 42.78,27.14 63.84,41.22 8.22,6.8 18.06,11.06 26.84,17.02 4.16,2.94 8.26,-1.74 10.42,-4.96 2.08,-2.66 0.26,-6.26 0.1,-9.26 -7.74,-43.4 -15.26,-86.86 -22.98,-130.26 -0.2,-2.82 -1.26,-6.1 0.54,-8.62 19.9,-28.08 39.62,-56.4 62.86,-81.86 -0.18,14.8 1.42,29.72 -1,44.38 0.14,14.22 0.52,28.48 -0.16,42.7 -2.24,18.62 -2.88,37.44 -6.34,55.9 -3.08,16.74 -2.5,33.98 -6.04,50.62 -3.82,8.82 -2.9,18.5 -4.22,27.8 -3.8,18.68 -6.54,37.58 -8.16,56.58 -0.66,8.72 -4.58,17.1 -3.58,25.94 -11.34,7.38 -23.28,14.06 -36.5,17.44 -32.76,7.14 -66.66,10.32 -100.1,6.42 -8.1,-0.7 -16.08,1.14 -24.14,1.28 -13.84,-0.78 -27.62,-2.96 -40.76,-7.44 -16.7,-6.54 -34.82,-9 -50.92,-17.12 -15.48,-6.1 -29.68,-14.86 -43.38,-24.18 0.04,-16 0.58,-32 1.8,-47.94 0.14,-25.4 2.02,-50.72 2.52,-76.1 3.06,-38 9.22,-75.64 14.88,-113.32 2.16,-12.28 3.26,-24.8 7.02,-36.74 8.78,-29.56 16.78,-59.34 25.8,-88.8 8.1,-18.72 16.04,-37.54 24.14,-56.28 1.98,-6.1 9,-8.28 14.86,-7.74 11.82,-0.56 22.8,4.5 34.34,6.18 12.94,2.08 25.66,6.08 38.9,5.94 17.62,0.02 35.26,2.62 52.86,0.68 12.88,-2.46 25.98,-3.72 38.64,-7.26 z"
       id="path8"
       inkscape:connector-curvature="0"
       style="fill:#f5e5c1" />
    <path
       d="m 808.82,170.4 c 4.28,7.14 7.44,14.9 10.06,22.8 6.2,19.14 12.38,38.3 18.76,57.38 14.62,1.82 29.2,3.98 43.8,6 10.8,1.42 21.72,0.54 32.56,0.68 -12.38,15.84 -24.7,31.76 -38.04,46.8 -7.46,10.38 -16.16,19.76 -24.56,29.34 -2.28,2.78 -5.82,5.68 -4.28,9.72 6.78,31.56 13.58,63.12 20.2,94.74 1.8,10.88 5.24,21.5 5.78,32.58 -26,-23.92 -50.08,-49.86 -75.52,-74.4 -34.32,38.16 -67.5,77.4 -101.36,116.02 -4.36,4.54 -8.1,11.84 -15.4,11.24 2.06,-11.12 6.94,-21.36 10.64,-31.98 17.18,-49.9 34.86,-99.62 52.02,-149.54 -21.8,-21.98 -43.8,-43.78 -65.64,-65.7 -3.62,-2.58 -0.88,-8.42 2.92,-9.16 20.98,-2.8 42.2,-1.18 63.2,-3.46 9.78,-0.76 19.62,0.14 29.38,-0.82 1.5,-1.84 2.16,-4.2 3.04,-6.36 7.74,-22.18 15.86,-44.22 23.58,-66.4 1.92,-6.92 4.4,-13.76 8.86,-19.48 z"
       id="path10"
       inkscape:connector-curvature="0"
       style="fill:#f4722b" />
    <path
       d="m 249.96,408.46 c 21.54,-6.06 44.1,-3.04 66.1,-5.1 13.26,1.82 26.66,1.46 40.02,2.02 8.72,1.52 17.16,4.44 26.02,5.28 24.28,3.34 46.02,15.38 68.12,25.18 22,6.94 41.22,20.04 61.74,30.22 9.94,5.7 17.78,14.24 26.5,21.52 8.68,7.3 16.36,15.68 23.58,24.4 9.88,12.3 15.46,27.24 23.4,40.72 9.1,13.32 22.4,22.82 33.24,34.58 14.98,11.8 30.28,23.24 45.8,34.32 14.94,8.5 29.42,17.96 44.86,25.5 25.98,7.06 51.54,16.6 78.6,18.5 -23.4,19.2 -40.32,45.78 -50.18,74.24 -6.48,-0.36 -12.92,-1.04 -19.24,-2.46 -13.56,-38.16 -40.84,-72.56 -77.72,-90.3 -23.16,-10.1 -49.68,-14.76 -74.48,-8.24 -4.14,0.98 -8.28,1.94 -12.44,2.84 -9.24,-8.66 -20.74,-14.86 -28.26,-25.3 -10.22,-14.3 -22.9,-26.56 -33.26,-40.74 -8.18,-11.08 -17.5,-21.28 -24.96,-32.88 -5.32,-8.58 -13.6,-14.54 -20.18,-22.02 -16.28,-19.54 -30.3,-41.42 -50.32,-57.48 -16.82,-18.94 -41.18,-28.98 -65.02,-35.88 -20.06,-7 -41.88,-5.52 -62.6,-2.86 -24.4,5.26 -49.56,9.26 -72.08,20.54 -14.98,7.1 -30.44,13.22 -45.08,21.02 -13.24,8 -27.24,14.86 -39.36,24.6 -9.96,8 -21.6,14.3 -29.14,24.94 -7.64,10.38 -18.4,19 -22.08,31.84 -4.46,10.68 -8.58,21.48 -10.1,33.02 5.04,-8.58 8.78,-17.98 15.12,-25.74 6.92,-9.08 15.42,-16.98 25.12,-23.02 23.48,-17.68 48.88,-33.16 76.12,-44.34 21.7,-6.14 43.62,-12.28 66.16,-14.32 15.4,-0.48 30.84,-0.58 46.24,-0.22 11.24,0 22.2,4.86 30.06,12.82 11.9,8.64 23.66,17.62 33.86,28.3 10.2,10.2 16.78,23.22 25.06,34.88 5.58,7.84 10.86,15.86 15.92,24.02 7.32,11.9 11.78,25.24 18.32,37.56 8.22,15.82 16.42,31.88 20.54,49.36 -8.44,2.82 -16.92,5.52 -25.42,8.1 -11.82,-9.46 -24.3,-18.42 -38.6,-23.72 -19.4,-6.9 -40.48,-10.7 -60.96,-6.8 -10.42,2.24 -20.94,4.48 -30.72,8.88 -25.54,11.6 -46.48,31.6 -61.84,54.86 -11,-0.6 -21.9,-2.32 -32.92,-2.56 -0.76,-12.9 2.82,-26.16 -0.8,-38.78 -2.56,-8.2 -10.3,-14.18 -18.8,-15 -16.5,-2.1 -33.16,-2.6 -49.72,-4.22 -7.66,-0.8 -15.9,-1.02 -22.86,2.82 -5.84,3.84 -10.14,9.44 -15.02,14.32 -4.12,-3.2 -8.34,-6.52 -10.94,-11.16 -6.8,-11.14 -13.78,-22.2 -20.64,-33.3 -2.74,-3.9 -1.6,-8.9 -1.86,-13.34 0.48,-10.72 -1.32,-21.8 2.22,-32.16 4,-11.98 5.3,-25.16 12.64,-35.74 6.52,-9.44 11.36,-20.38 20.54,-27.68 12.28,-10.36 23.76,-21.64 35.1,-33.02 7.54,-7.8 18.24,-10.92 27.22,-16.6 28.32,-14.5 57.5,-27.26 87.18,-38.74 10.62,-2.98 21.5,-4.84 32.2,-7.48 z"
       id="path12"
       inkscape:connector-curvature="0"
       style="fill:#f5e5c1" />
    <path
       d="m 929.72,477.26 c 0.28,-5.94 5,-10.34 10.48,-11.84 0.24,1.3 0.72,3.88 0.94,5.18 4.76,4.66 9.56,9.4 13.1,15.1 5.4,8.7 12.22,16.64 15.8,26.38 4.22,9.44 5.84,19.8 10.32,29.12 4.1,9.84 1.9,20.66 3.78,30.9 1.76,10.66 -0.1,21.5 -2.48,31.9 -5.6,13.3 -10.46,26.9 -15.56,40.4 -3.82,9.18 -10.4,16.8 -16.22,24.74 -13.04,-11.1 -27.46,-20.82 -43.74,-26.44 16.02,-17.24 22.56,-41.7 21.24,-64.8 -2.22,-10.38 -2.98,-21 -6.22,-31.14 2.42,-23.2 6.06,-46.3 8.56,-69.5 z"
       id="path14"
       inkscape:connector-curvature="0"
       style="fill:#f5e5c1" />
    <path
       style="fill:#f4722b"
       d="m 318.325,657.8 c -5.87864,-0.093 -11.76875,0.3375 -17.575,1.225 -34.78,5.96 -63.28,31.425 -80.3,61.425 -30.82,55.38 -30.165,127.62 3.475,181.6 15.02,23.54 37.135,43.52 64.175,51.9 24.5,7.52 52.035,5.085 74.575,-7.275 29.16,-15.76 50.175,-43.95 61.375,-74.75 16.42,-44.64 14.605,-95.765 -4.975,-139.125 -12.96,-28.24 -34.5,-53.65 -63.2,-66.55 -11.7425,-5.555 -24.617,-8.24547 -37.55,-8.45 z m -2.625,90.575 c 8.7525,-0.16218 17.545,2.29 24.925,7.075 16.9,10.54 26.445,29.68 30.325,48.7 4.1,22.22 2.725,46.335 -8.275,66.475 -7.76,14.46 -20.425,27.185 -36.525,31.725 -11.58,3.34 -24.125,-0.08 -33.825,-6.8 -16.7,-11.2 -26.37,-30.495 -29.85,-49.875 -3.38,-21.72 -1.565,-44.845 8.275,-64.725 7.12,-14.8 19.915,-27.725 36.275,-31.525 2.86,-0.65 5.7575,-0.99594 8.675,-1.05 z"
       id="path16"
       inkscape:connector-curvature="0" />
    <path
       style="fill:#f4722b"
       d="m 590.6,657.8 c -5.91811,0.0129 -11.83125,0.54375 -17.65,1.55 -32.02,6.14 -58.615,28.86 -75.475,56 -22.54,36.76 -29.905,81.88 -22.925,124.2 5.32,31.82 19.01,62.9 42.05,85.9 19.02,19.66 45.635,33.07 73.375,32.65 22.56,0.72 44.775,-7.805 62.375,-21.625 26.18,-20.3 43.275,-50.56 51.275,-82.4 10.06,-40.56 6.485,-84.675 -11.175,-122.675 -13.2,-28.08 -35.045,-53.27 -63.925,-65.75 -11.89375,-5.40375 -24.90514,-7.87825 -37.925,-7.85 z m -0.575,90.55 c 9.1275,-0.0956 18.25,2.725 25.825,7.9 16.62,11.08 25.845,30.365 29.425,49.525 3.58,21.28 2.235,44.17 -7.925,63.55 -7.4,14.42 -19.52,27.245 -35.2,32.425 -11.04,3.88 -23.47,1.465 -33.25,-4.575 -17.84,-10.58 -28.34,-30.345 -32.2,-50.225 -3.48,-20.74 -2.165,-42.735 6.275,-62.175 6.88,-16.36 20.175,-31.165 37.975,-35.325 2.985,-0.695 6.0325,-1.06813 9.075,-1.1 z"
       id="path18"
       inkscape:connector-curvature="0" />
    <path
       style="fill:#f4722b"
       d="m 866.1,657.8 c -5.76672,0.0464 -11.53752,0.575 -17.2,1.55 -34.46,6.66 -62.465,32.3 -79.125,62.3 -30.82,56.46 -29.245,130.215 6.575,184.075 19.5,29.08 51.63496,52.15 87.67496,52.35 24.22,1.2 48.15008,-8.11 66.65008,-23.45 26.23992,-21.36 42.87,-52.78 50.14992,-85.5 8.68008,-40.14 4.38504,-83.355 -13.67496,-120.375 -13.5,-27.42 -35.38,-51.84 -64,-63.7 -11.66,-5.10125 -24.36312,-7.3521 -37.05,-7.25 z m -0.42496,90.575 c 8.78712,-0.1725 17.57992,2.3 24.97496,7.1 16.92,10.58 26.47,29.74 30.35,48.8 4.04,22.16 2.66,46.22 -8.3,66.3 -7.76,14.46 -20.40496,27.235 -36.52496,31.775 -11.56,3.34 -24.10008,-0.075 -33.8,-6.775 -16.72008,-11.18 -26.42008,-30.5 -29.9,-49.9 C 808.77496,821.995 811.3,796.47 823.7,775.55 c 7.26,-12.44 19.03,-22.74 33.25,-26.1 2.87,-0.66 5.79592,-1.0175 8.72504,-1.075 z"
       id="path20"
       inkscape:connector-curvature="0" />
    <path
       d="m 92.22,661.82 c 20.12,1.2 40.18,3.1 60.28,4.46 -3.56,97.18 -7.38,194.36 -10.68,291.58 -21.8,-0.3 -43.54,-2.52 -65.32,-3.5 2.4,-67.52 4.4,-135.04 6.6,-202.56 -5.62,6.34 -11.02,12.9 -16.4,19.44 -10.66,-14.44 -20.88,-29.22 -31.44,-43.72 18.78,-22.08 38,-43.78 56.96,-65.7 z"
       id="path22"
       inkscape:connector-curvature="0"
       style="fill:#f4722b" />
  </g>
</svg>
