<?xml version="1.0" encoding="UTF-8" standalone="no"?>
<svg
   xmlns:dc="http://purl.org/dc/elements/1.1/"
   xmlns:cc="http://creativecommons.org/ns#"
   xmlns:rdf="http://www.w3.org/1999/02/22-rdf-syntax-ns#"
   xmlns:svg="http://www.w3.org/2000/svg"
   xmlns="http://www.w3.org/2000/svg"
   xmlns:sodipodi="http://sodipodi.sourceforge.net/DTD/sodipodi-0.dtd"
   xmlns:inkscape="http://www.inkscape.org/namespaces/inkscape"
   width="1280"
   height="1280"
   viewBox="0 0 1024 1024"
   version="1.1"
   id="svg2"
   inkscape:version="0.48.1 "
   sodipodi:docname="kill_taunt.svg">
  <metadata
     id="metadata24">
    <rdf:RDF>
      <cc:Work
         rdf:about="">
        <dc:format>image/svg+xml</dc:format>
        <dc:type
           rdf:resource="http://purl.org/dc/dcmitype/StillImage" />
      </cc:Work>
    </rdf:RDF>
  </metadata>
  <defs
     id="defs22" />
  <sodipodi:namedview
     pagecolor="#ffffff"
     bordercolor="#666666"
     borderopacity="1"
     objecttolerance="10"
     gridtolerance="10"
     guidetolerance="10"
     inkscape:pageopacity="0"
     inkscape:pageshadow="2"
     inkscape:window-width="1920"
     inkscape:window-height="1018"
     id="namedview20"
     showgrid="false"
     inkscape:snap-page="true"
     fit-margin-top="0"
     fit-margin-left="0"
     fit-margin-right="0"
     fit-margin-bottom="0"
     inkscape:zoom="0.6609375"
     inkscape:cx="640"
     inkscape:cy="640"
     inkscape:window-x="-8"
     inkscape:window-y="-8"
     inkscape:window-maximized="1"
     inkscape:current-layer="svg2" />
  <rect
     style="fill:#3e3e3e;fill-opacity:1"
     id="rect3004"
     width="1024"
     height="1024"
     x="0"
     y="0" />
  <path
     d="m 476.98,28.4 c 27.16,-5.86 55.38,-3.9 83.02,-4.28 101.32,3.62 200.94,40.74 280.36,103.66 77.78,61.1 135.78,146.82 163.86,241.62 10.98,35.82 16.66,73 19.78,110.26 l 0,56.14 c -1.24,9.48 -1.68,19.04 -2.86,28.54 -8.84,76.62 -36.38,151 -79.64,214.86 -36.86,54.84 -85.18,101.82 -140.92,137.28 -71.66,45.8 -155.64,72.34 -240.66,75.4 -22.12,-0.42 -44.44,1.28 -66.4,-2 68.28,-9.32 134.8,-32.46 193.32,-69 61.84,-38.3 114.84,-90.8 153.68,-152.32 4.6,-7.66 13.82,-10.12 20.56,-15.4 13.98,-10.56 28.86,-20.18 40.92,-33.06 35.92,-34.54 63.44,-78.16 77.3,-126.14 16.62,-55.06 16.96,-115.08 0.44,-170.2 -15.44,-55.56 -49.56,-105 -93.36,-142.12 -13.52,-9.98 -26.58,-20.68 -41.4,-28.74 -6.64,-3.2 -9.88,-10.08 -13.9,-15.82 C 788.06,174.06 729.86,121.48 662.76,85.14 605.52,53.88 541.86,34.74 476.98,28.4 z"
     id="path6"
     inkscape:connector-curvature="0"
     style="fill:#f5e5c1" />
  <path
     d="m 447.56,109.5 c 6.06,-6.86 11.04,-14.86 18.38,-20.5 8.34,1.52 15.7,6.4 23.44,9.76 4.34,0.94 3.44,5.78 3.76,9.08 0.26,16.06 1.56,32.08 1.78,48.14 -8.5,11.1 -17.16,22.08 -25.72,33.12 -7.16,8.36 -7.48,19.88 -10.44,30 -2.24,11.62 -7.24,22.92 -6.44,34.94 1.42,22.6 4.78,45.12 5.26,67.72 -17.72,30.98 -32.38,63.7 -48.72,95.44 -1.22,2.68 -4.12,3.66 -6.56,4.9 -48.2,21.06 -96.28,42.4 -144.44,63.54 -6.46,2.6 -12.44,7.36 -19.76,6.8 C 158.72,492.34 79.36,492.42 0,492.4 L 0,236.24 c 59.18,26.88 118.56,53.32 177.82,80.02 8.42,3.94 17.48,6.88 24.8,12.84 -3.38,25.9 -7.36,51.78 -9.34,77.82 3.12,-2.02 5.98,-4.54 7.38,-8.06 7.92,-17.3 15.98,-34.54 23.82,-51.88 5.62,-15.66 24.26,-19.76 34,-31.96 20.8,-49.64 41.12,-99.48 61.72,-149.2 2.6,-5.96 4.46,-12.3 7.88,-17.84 3.86,-3.66 8.96,-5.58 13.44,-8.28 21.22,-12.16 42.42,-24.34 63.54,-36.62 4.02,-2.26 8.22,-4.62 12.92,-4.92 6.9,-0.62 13.12,3.02 19.36,5.4 -7.22,9.2 -15.28,17.8 -21.92,27.42 -3.28,13.4 -4,27.32 -5.68,41 -0.54,6 -5.1,10.44 -8.18,15.28 -2.02,2.28 -3.64,6.56 -7.46,5.52 -12.12,-4.46 -23.46,-10.88 -35.82,-14.76 9.02,11.56 18.32,22.94 28.02,33.94 0.64,8.32 -0.22,16.96 -1.24,25.28 -8.16,15.5 -17.86,30.22 -26.32,45.6 -2.14,3.72 -3.9,7.88 -7.48,10.48 -9.02,6.92 -18.36,13.42 -27.36,20.34 12.02,-3.8 24.02,-7.72 36.06,-11.5 3.86,-7.42 7.4,-15.08 12.34,-21.86 6.04,-8.72 13.52,-16.62 17.54,-26.58 10.16,-24.06 19.46,-48.56 32.7,-71.16 5.28,-7.9 4.6,-17.66 5.84,-26.64 1.2,-8.86 1.36,-17.92 3.36,-26.66 4.5,-7.14 10.66,-13.08 15.82,-19.76 z"
     id="path8"
     inkscape:connector-curvature="0"
     style="fill:#f5e5c1" />
  <path
     d="m 474.56,196.84 c 6.38,-8.76 12.52,-17.72 18.94,-26.44 8.74,8.74 17.62,17.32 26.46,25.94 -4.46,17.2 -9.34,34.3 -13.66,51.54 -0.84,8.28 -11.1,9.14 -14.74,15.64 -5.12,9.42 -8.04,19.88 -13.38,29.2 -5.92,-4.34 -12.48,-7.84 -17.96,-12.76 -0.92,-8.56 -1.4,-17.24 -0.9,-25.82 3.38,-16.16 7.44,-32.16 10.96,-48.28 0.58,-3.36 2.28,-6.34 4.28,-9.02 z"
     id="path10"
     inkscape:connector-curvature="0"
     style="fill:#f5e5c1" />
  <path
     d="m 694.6,243.95 c -9.8575,0.0775 -19.7,0.55 -29.5,1.6 -35.54,4.64 -70.16,16.39 -101,34.65 -50.78,29.72 -90.9,76.99 -112.1,131.85 -17.6,44.86 -22.3,94.56 -14,142 11.48,66.02 49.2,127.05 103.3,166.65 43.9,32.78 98.17,50.52 152.75,52.3 70.12,0.5 140.47,-26.92 190.15,-76.7 56.94,-55.38 86.36,-137.58 77.3,-216.5 -6.06,-58.2 -32.28,-114.08 -73.2,-155.9 -43,-44.76 -102.37,-73.35 -164.15,-79.15 -9.83,-0.58 -19.6925,-0.8775 -29.55,-0.8 z m 36.55,37.6 c 26.3625,-0.0778 52.74499,5.71 76.7,16.75 34.38,15.82 63.47,42.76 81.95,75.8 19.34,34.34 27.07,75.15 21.35,114.15 -5.52,39.72 -24.79,77.41 -53.85,105.05 -33.1,32.14 -78.99,50.76 -125.15,50.4 -37.28,0.42 -74.45,-11.62 -104.85,-33.1 -30.72,-21.68 -54.42,-53.1 -66.6,-88.7 -12.5,-35.78 -13.25,-75.51 -2.15,-111.75 10.94,-36.24 33.57,-68.92 63.85,-91.7 24,-18.3 52.66,-30.33 82.5,-34.85 8.69499,-1.35501 17.4625,-2.02406 26.25,-2.05 z"
     id="path12"
     style="fill:#f4722b"
     inkscape:connector-curvature="0" />
  <path
     d="m 0,524.76 c 75.34,-0.02 150.68,0.02 226.02,-0.02 5.76,0.08 11.56,-0.44 17.28,0.44 50.12,22.46 100.54,44.44 150.82,66.58 4.36,2.22 9.76,3.26 13.1,7 16.52,31.06 30.24,63.62 48.24,93.88 2.28,3.38 1.28,7.52 1.1,11.3 -1.9,18.04 -3.12,36.16 -4.94,54.22 -2.52,14.4 4.14,28.04 6.68,41.96 2.56,8.96 2.96,19.04 9.02,26.6 7.54,9.84 15.22,19.56 22.86,29.34 1.7,2.34 3.88,4.76 3.52,7.92 -0.2,13.38 -1.08,26.72 -1.24,40.1 -0.3,4.18 0.1,8.62 -1.44,12.6 -6.26,3.62 -12.98,6.36 -19.5,9.46 -2.58,0.9 -5.84,3.04 -8.22,0.54 -6.76,-5.94 -11.76,-13.58 -17.68,-20.32 -4.88,-6.32 -10.74,-11.9 -14.92,-18.7 -2.46,-13.08 -3.02,-26.46 -4.68,-39.66 -0.54,-9.5 -7.02,-17 -10.82,-25.34 -11.8,-21.18 -19.04,-44.5 -29.76,-66.18 -9.14,-13.62 -19.92,-26.22 -26.38,-41.5 -11.76,-3.8 -23.46,-7.92 -35.42,-11.06 7.7,5.84 15.56,11.5 23.36,17.22 3,2.24 6.14,4.58 7.9,8.02 8.84,15.74 18.12,31.2 27.28,46.74 4.02,5.94 2.32,13.42 3.12,20.14 -0.16,3.76 1.52,8.44 -1.82,11.3 -9.34,10.06 -17.7,20.96 -26.22,31.72 12.64,-4 24.14,-10.82 36.68,-14.98 7,2.86 10.24,11.48 14.24,17.62 2.16,14.6 2.8,29.52 6.04,43.96 6.52,9.92 15.1,18.32 21.94,28.04 -5.3,1.96 -10.46,4.44 -16.08,5.3 -6.82,0.56 -12.86,-3.3 -18.52,-6.52 -23.68,-13.72 -47.36,-27.48 -71.22,-40.86 -3.18,-1.54 -4.74,-4.78 -6.02,-7.86 C 303.8,813.62 282.96,763.6 262.4,713.48 c -2.04,-4.56 -3.3,-9.62 -6.44,-13.56 -7.6,-6.98 -17.08,-11.7 -24.48,-18.9 -4.34,-16.08 -6.94,-32.62 -10.66,-48.86 -2.08,-8.26 -2.44,-17.06 -6.38,-24.74 -2.2,3.16 -5.72,6.14 -5.1,10.42 -0.16,21.44 -0.48,42.86 -0.82,64.28 C 139.3,714.8 69.4,746.04 0,778.34 L 0,524.76 z"
     id="path16"
     inkscape:connector-curvature="0"
     style="fill:#f5e5c1" />
  <path
     d="m 459.1,736.74 c 6.06,-4.2 12.02,-8.6 18.38,-12.4 4.8,9.48 8.06,19.66 13.04,29.04 3.3,6.32 12.9,7.08 14.44,14.54 4.6,17.5 9.08,35.06 14.18,52.44 -8.64,8.78 -17.72,17.12 -26.28,26 -8.06,-9.74 -15.2,-20.3 -22.18,-30.82 -4.34,-15.02 -7.04,-30.48 -10.9,-45.62 -3.06,-10.84 -0.8,-22.14 -0.68,-33.18 z"
     id="path18"
     inkscape:connector-curvature="0"
     style="fill:#f5e5c1" />
</svg>
