<?xml version="1.0" encoding="UTF-8" standalone="no"?>
<svg
   xmlns:dc="http://purl.org/dc/elements/1.1/"
   xmlns:cc="http://creativecommons.org/ns#"
   xmlns:rdf="http://www.w3.org/1999/02/22-rdf-syntax-ns#"
   xmlns:svg="http://www.w3.org/2000/svg"
   xmlns="http://www.w3.org/2000/svg"
   xmlns:sodipodi="http://sodipodi.sourceforge.net/DTD/sodipodi-0.dtd"
   xmlns:inkscape="http://www.inkscape.org/namespaces/inkscape"
   width="1280"
   height="1280"
   viewBox="0 0 1024 1024"
   version="1.1"
   id="svg2"
   inkscape:version="0.48.1 "
   sodipodi:docname="kill_axe_small.svg">
  <metadata
     id="metadata22">
    <rdf:RDF>
      <cc:Work
         rdf:about="">
        <dc:format>image/svg+xml</dc:format>
        <dc:type
           rdf:resource="http://purl.org/dc/dcmitype/StillImage" />
      </cc:Work>
    </rdf:RDF>
  </metadata>
  <defs
     id="defs20" />
  <sodipodi:namedview
     pagecolor="#ffffff"
     bordercolor="#666666"
     borderopacity="1"
     objecttolerance="10"
     gridtolerance="10"
     guidetolerance="10"
     inkscape:pageopacity="0"
     inkscape:pageshadow="2"
     inkscape:window-width="1920"
     inkscape:window-height="1018"
     id="namedview18"
     showgrid="false"
     fit-margin-top="0"
     fit-margin-left="0"
     fit-margin-right="0"
     fit-margin-bottom="0"
     inkscape:zoom="0.6609375"
     inkscape:cx="640"
     inkscape:cy="640"
     inkscape:window-x="-8"
     inkscape:window-y="-8"
     inkscape:window-maximized="1"
     inkscape:current-layer="svg2" />
  <path
     d="m 0,0 1024,0 0,1024 L 0,1024 0,0 z"
     id="path4"
     inkscape:connector-curvature="0"
     style="fill:#3e3e3e" />
  <path
     d="m 565.45,20.35 c -1.41032,-0.0203 -2.83,0.09 -4.25,0.25 -9.2,9.98 -17.34,24.16 -32.4,24.9 -3.72,-5.94 -6.83,-12.25 -10.45,-18.25 -7.38,-1.4 -14.95,-5.74 -22.45,-2.9 -8.8,2.6 -15.76,9.11 -24.2,12.45 -10.42,2.2 -21.2,1.74 -31.8,2.2 -8.66,0.96 -15.29,-7.24 -23.95,-5.9 -15.6,1.84 -31.35,2.65 -46.95,4.55 -9.44,3.88 -17.8,9.88 -27,14.3 -5.06,2.94 -12.19,4.92 -13.05,11.7 -2.38,10.12 -7.37,19.71 -8.55,30.05 4.92,11.12 8.97,23.26 17.85,32 16.98,18.62 33.58,37.57 50.5,56.25 -10.5,8.5 -18.29,19.7 -27.15,29.8 -3.58,3.78 -4.35,9.07 -5.45,13.95 -2.6,12.1 -5.64,24.1 -8.3,36.2 -0.92,3.88 -1.59,8.31 -5.05,10.85 -16.96,14.3 -32.32,30.39 -47.9,46.15 -13.38,16.86 -27.45,33.19 -40.15,50.55 69.3,61.3 137.57,123.77 206.95,184.95 14.78,-20.88 30.04,-41.43 44.9,-62.25 -15.98,-28.98 -31.74,-58.06 -47.8,-87 -3.54,-6.48 -5.64,-14.31 -3.3,-21.55 1.46,-9.14 9.89,-14.13 16.15,-19.85 14.26,-13.38 30.1,-24.91 46,-36.25 22.82,-15.88 46.22,-31.21 71.7,-42.55 4.22,-1.8 8.34,-3.85 12.2,-6.35 -16.86,-25.04 -35.19,-49.12 -52.95,-73.5 0.28,-7.88 5.94,-14.84 8.5,-22.3 8.16,-2.2 16.61,-1.5 24.95,-1.2 6.74,0.62 11.11,-5.14 15.35,-9.4 -1.46,-3.4 -2.88,-6.8 -4.3,-10.2 3.66,-9.54 10.47,-17.78 12.35,-28 1.2,-5.3 3.01,-10.48 3.75,-15.9 -0.94,-6.1 -2.95,-12.02 -4.45,-18 -1.42,-6.62 -7.19,-10.71 -11.65,-15.25 -9.88,-9.28 -24.17,-11.65 -37.15,-9.15 -8.98,0.2 -15.69,6.61 -22.45,11.65 -0.64,-1.42 -1.96,-4.28 -2.6,-5.7 13.92,-19.2 31.12,-35.86 44.6,-55.4 -1.90499,-4.575 -5.81906,-5.83906 -10.05,-5.9 z m -83.55,69.3 c 1.24211,-0.044 2.44499,-0.04 3.7,0.05 11.82,4.66 24.13,7.89 36.25,11.65 -3.86,3.06 -7.69,6.15 -11.65,9.05 -5.5,-2.38 -10.79,0.2 -12.65,5.8 -2.82,11.54 5.47,20.98 12.05,29.4 -5.76,5.54 -10.43,12.12 -16.25,17.6 -3.02,1.22 -6.16,0.08 -8.1,-2.4 -10.6,-11.26 -19.8,-24.74 -34,-31.8 -3.1,-2.12 -6.61,-1.25 -9.65,0.45 -5.46,-6.58 -10.14,-13.77 -15.5,-20.45 5.22,-1.52 10.61,-2.42 16.05,-2.3 3.7,-5 6.57,-12.52 13.95,-12.4 8.64499,-1.085 17.10523,-4.34211 25.8,-4.65 z"
     id="path6"
     style="fill:#f5e5c1"
     inkscape:connector-curvature="0" />
  <path
     d="m 545.18,335.2 c 43.78,-29.44 93.76,-51.8 146.74,-56.7 41.16,-2.22 83.14,1.76 122.18,15.52 25.8,9.38 50.86,22.02 71.26,40.62 35.84,31.98 56.96,78.34 62.08,125.74 5.9,40.76 -3.18,83.24 -24.72,118.28 -28.56,45.62 -73.28,78.98 -121.78,101.06 30.86,13 58.8,34.88 74.54,64.88 16.28,30.82 16.48,68.14 5.98,100.84 -8.86,28.34 -27.44,53.04 -50.66,71.28 -35.64,28.24 -81.6,41.62 -126.72,41.5 -61.2,0.36 -122.24,-25.6 -163.66,-70.8 15.76,-32.14 31.96,-64.04 47.92,-96.08 29.14,21.62 62.02,40.12 98.4,45.44 20.56,3.1 42.66,-0.2 60.14,-11.86 9.64,-6.6 18.2,-16.68 19.16,-28.74 0.3,-16.68 -7.98,-33 -20.86,-43.44 -15.56,-12.86 -35.78,-18.04 -55.34,-21 -26.38,-4.32 -53.16,-3.06 -79.78,-3.24 -0.78,-34.34 -0.6,-68.68 -1.02,-103 35.44,0.44 71.42,-3.28 104.96,-15.3 23.18,-8.24 46.42,-21.16 59.32,-42.9 16.04,-26.54 5.86,-64.12 -19.36,-81.14 -21.46,-13.06 -48.34,-10.22 -71.52,-3.86 -44.3,12.96 -83.68,38.86 -118.4,68.74 -29.6,-53.7 -58.98,-107.5 -88.48,-161.24 21.38,-20.42 44.88,-38.48 69.62,-54.6 z"
     id="path10"
     inkscape:connector-curvature="0"
     style="fill:#f4722b" />
  <path
     d="m 137.86,326.52 c 23.14,8.34 45.7,18.14 68.68,26.88 4.66,1.66 9.1,4 12.72,7.42 74.42,65.02 149.28,129.54 223.52,194.78 -76.94,-5.84 -153.86,-12.2 -230.84,-17.6 -36.58,2.66 -73.16,6.28 -109.76,9.18 -9,0.66 -17.98,2.14 -27.04,1.58 7.36,-4.44 15.62,-6.88 23.54,-10.02 17.98,-6.94 36,-13.78 54,-20.7 -20.4,-9.12 -41.2,-17.34 -61.38,-26.96 27.66,-4.88 55.76,-7 83.54,-11.16 -3.42,-3.32 -8.1,-4.48 -12.42,-6.08 -54.18,-19.92 -108.16,-40.38 -162.4,-60.1 19.36,-0.26 38.72,-0.16 58.08,0.02 27.22,2.04 54.54,0.08 81.78,1.54 15.56,0.54 31.14,0.18 46.72,0.26 -16.32,-29.64 -32.96,-59.1 -48.74,-89.04 z"
     id="path12"
     inkscape:connector-curvature="0"
     style="fill:#f4722b" />
  <path
     d="m 186.6,551.55 c -1.92,14.6 -2.03,29.37 -3.35,44.05 11.76,7.32 23.71,14.42 35.25,22.1 3.38,20.72 6.98,41.41 10.3,62.15 1.22,8.2 0.13,16.51 0.75,24.75 3.06,5.8 7.89,10.37 11.95,15.45 -5.94,24.26 -12.48,48.35 -18.6,72.55 7.38,6.12 18.19,6.61 24.75,13.75 8.02,18.04 15.52,36.37 23.5,54.45 3.34,6.58 1.95,14.15 2.45,21.25 -0.12,5.28 1.3,11.07 -1.7,15.85 -5.4,9.96 -10.75,19.97 -16.15,29.95 -5.28,8.98 -8.36,20.05 -8.1,30.15 7.2,3.58 15.51,3.6 23.15,5.8 7.36,2.12 15.12,2.72 22.7,1.7 6,-2.16 10.33,-7.22 15.25,-11.1 0.02,-7.48 -0.72,-14.94 -0.4,-22.4 1.48,-2.54 4.4,-3.84 6.6,-5.7 2.02,9.34 2.13,18.99 4.45,28.25 1.96,3.24 4.6,6.2 7.9,8.1 12.96,2.68 26,-1.23 38.8,-3.15 4.5,-0.9 9.41,-1.16 13.25,-3.9 0.32,-8.26 0.92,-16.69 -0.3,-24.85 -5.9,-12.5 -12.67,-24.59 -18.85,-36.95 0.42,-9.96 1.88,-19.96 -0.4,-29.8 2.6,-17.42 12.11,-32.78 19.65,-48.4 4.28,-1.3 8.85,-2.68 11.35,-6.7 6.76,-9.08 14.6,-17.42 20.8,-26.9 -0.12,-14.04 -3.82,-27.78 -5.3,-41.7 -1.22,-12.04 -5.43,-24.08 -2.75,-36.2 5,-29.72 9.26,-59.56 14.1,-89.3 7.56,0.14 15.29,1.16 22.75,-0.5 7.42,-3.58 13.53,-9.26 20.35,-13.8 3.18,-10.98 5.85,-22.1 8.95,-33.1 -14.24,-3.88 -29.2,-1.8 -43.7,-3.8 -34.5,-0.92 -68.8,-4.59 -103.3,-4.75 1.26,-0.44 3.82,-1.36 5.1,-1.8 -12.58,1.58 -25.22,0.03 -37.8,-0.45 -34.46,-2.04 -68.9,-3.79 -103.4,-5.05 z m 135.6,87.75 c 4.58,19.14 5.51,38.96 8.45,58.4 0.94,12.66 5.29,25.64 1.35,38.2 -1.7,6.26 -3.25,12.6 -4.85,18.9 -2.3,9.34 -6.22,18.68 -4.3,28.5 3.98,3.56 7.99,7.14 12.25,10.4 -0.48,14.88 -1.04,29.78 -2.5,44.6 -3.7,6.82 -9,12.65 -12.8,19.45 -5.82,-7.3 -12.72,-13.65 -18.4,-21.05 -4.08,-9.9 -4.88,-20.87 -8.2,-31.05 6.3,-5.54 14.49,-7.92 21.95,-11.4 -3.52,-27.6 -8.96,-54.93 -14.2,-82.25 5.34,-7.18 6.86,-16.2 10.3,-24.3 6.08,-15.44 9.45,-31.9 10.95,-48.4 z"
     id="path14"
     style="fill:#f5e5c1"
     inkscape:connector-curvature="0" />
</svg>
