<?xml version="1.0" encoding="UTF-8" standalone="no"?>
<svg
   xmlns:dc="http://purl.org/dc/elements/1.1/"
   xmlns:cc="http://creativecommons.org/ns#"
   xmlns:rdf="http://www.w3.org/1999/02/22-rdf-syntax-ns#"
   xmlns:svg="http://www.w3.org/2000/svg"
   xmlns="http://www.w3.org/2000/svg"
   xmlns:sodipodi="http://sodipodi.sourceforge.net/DTD/sodipodi-0.dtd"
   xmlns:inkscape="http://www.inkscape.org/namespaces/inkscape"
   width="1280"
   height="1280"
   viewBox="0 0 1024 1024"
   version="1.1"
   id="svg2"
   inkscape:version="0.48.1 "
   sodipodi:docname="kill_axe_large.svg">
  <metadata
     id="metadata24">
    <rdf:RDF>
      <cc:Work
         rdf:about="">
        <dc:format>image/svg+xml</dc:format>
        <dc:type
           rdf:resource="http://purl.org/dc/dcmitype/StillImage" />
      </cc:Work>
    </rdf:RDF>
  </metadata>
  <defs
     id="defs22" />
  <sodipodi:namedview
     pagecolor="#ffffff"
     bordercolor="#666666"
     borderopacity="1"
     objecttolerance="10"
     gridtolerance="10"
     guidetolerance="10"
     inkscape:pageopacity="0"
     inkscape:pageshadow="2"
     inkscape:window-width="1920"
     inkscape:window-height="1018"
     id="namedview20"
     showgrid="false"
     fit-margin-top="0"
     fit-margin-left="0"
     fit-margin-right="0"
     fit-margin-bottom="0"
     inkscape:zoom="0.6609375"
     inkscape:cx="466.00473"
     inkscape:cy="640"
     inkscape:window-x="-8"
     inkscape:window-y="-8"
     inkscape:window-maximized="1"
     inkscape:current-layer="layer1"
     inkscape:snap-page="true" />
  <g
     inkscape:groupmode="layer"
     id="layer1"
     inkscape:label="background">
    <rect
       style="fill:#3e3e3e;fill-opacity:1;fill-rule:nonzero;stroke:none"
       id="rect2992"
       width="1280"
       height="1280"
       x="0"
       y="0"
       transform="scale(0.8,0.8)" />
  </g>
  <g
     inkscape:groupmode="layer"
     id="layer2"
     inkscape:label="foreground">
    <path
       d="m 565.45,20.35 c -1.40688,-0.0331 -2.88,0.1 -4.3,0.25 -9.12,10.04 -17.23,23.98 -32.25,24.9 -3.8,-5.94 -6.95,-12.24 -10.55,-18.3 -6.02,-1.42 -11.95,-3.6 -18.15,-3.9 -10.68,1.64 -18.73,9.56 -28.45,13.5 -10.48,2.3 -21.29,1.74 -31.95,2.2 -8.52,0.76 -15.22,-6.95 -23.7,-5.85 -15.28,1.72 -30.62,2.64 -45.9,4.3 -5.6,1.34 -10.35,4.88 -15.35,7.5 -7.82,4.88 -16.77,8.02 -23.95,13.8 -3.8,11.5 -8.59,23.01 -10.45,34.95 4.8,11.16 8.97,23.22 17.75,32 17.02,18.6 33.61,37.59 50.55,56.25 -9.08,7.24 -15.9,16.67 -23.5,25.35 -3.16,3.8 -6.87,7.57 -7.75,12.65 -3.34,14.54 -6.71,29.08 -10.05,43.6 -1.26,9.82 -11.47,13.81 -17.45,20.45 -15.18,15.46 -31.92,29.56 -44.9,47 -10,12.9 -20.94,25.1 -30.4,38.4 69.24,61.38 137.63,123.72 206.95,185 24.6,-34.3 49.51,-68.31 74.15,-102.55 4.76,-6.94 10.26,-13.57 13.2,-21.55 11.76,-31.76 23.99,-63.35 35.65,-95.15 4.96,-12.98 11.46,-25.35 16.6,-38.25 1.02,-6.44 -0.7,-12.97 -0.6,-19.45 -15.74,-23.4 -32.51,-46.09 -49.55,-68.55 -1.22,-1.54 -2.19,-3.2 -2.85,-5 2.04,-7.4 5.98,-14.12 8.9,-21.2 8.18,-1.98 16.61,-1.4 24.95,-1.1 6.7,0.6 11.09,-5.24 15.35,-9.4 -1.46,-3.44 -2.91,-6.83 -4.35,-10.25 3.5,-8.86 9.54,-16.61 11.8,-25.95 1.4,-5.98 3.48,-11.8 4.3,-17.9 -1.5,-7.78 -3.27,-15.67 -6.45,-22.95 -5.88,-7.4 -12.89,-14.63 -22.05,-17.75 -8.4,-3.98 -17.97,-2.5 -26.85,-1.4 -8.1,0.72 -14.07,6.82 -20.35,11.3 -0.66,-1.42 -1.94,-4.23 -2.6,-5.65 14.02,-19.16 31.09,-35.95 44.65,-55.45 -2.01,-4.47 -5.87938,-5.75063 -10.1,-5.85 z m -84.4,69.35 c 3.77469,-0.0917 7.51875,0.54375 11.15,2.4 9.66,3.74 19.81,5.98 29.65,9.2 -5.58,5.12 -11.67,10.32 -19.85,8.5 -1.74,2.38 -3.46,4.75 -5.2,7.15 0.58,4.68 0.64,9.49 2.4,13.95 2.82,5.3 6.94,9.8 10.4,14.7 -5.78,5.64 -10.49,12.23 -16.45,17.65 -2.94,1.08 -5.92,-0.04 -7.8,-2.4 -10.86,-11.4 -20.17,-25.25 -34.85,-32.15 -2.86,-2 -6.15,-0.24 -9.05,0.6 -5.38,-6.62 -10.13,-13.66 -15.35,-20.4 5.22,-1.38 10.58,-2.25 16,-2.25 3.76,-4.96 6.63,-12.39 13.95,-12.35 8.19499,-0.83875 16.6957,-4.39815 25,-4.6 z"
       id="path6"
       style="fill:#f5e5c1"
       inkscape:connector-curvature="0" />
    <path
       d="m 845.95,265.6 c -77.78,18.54 -148.13,63.95 -199.25,125.15 -41.94,49.08 -71.88,107.73 -90.2,169.45 -16.66,54.92 -24.26,112.41 -24,169.75 0.86,58.78 18.66,118.2 54.7,165.1 20.76,26.96 48.49,48.76 80.15,61.4 35.82,13.9 76.1,14.13 112.9,3.95 39.66,-11.8 75.01,-37.84 97.95,-72.3 20.84,-31.02 32.44,-68.64 30.7,-106.1 -2.24,-34.68 -12.38,-69.53 -33.2,-97.75 -16.58,-23.38 -40.45,-41.44 -67.55,-50.8 -31,-10.74 -65.2,-10.63 -96.7,-2.05 -12.06,3.12 -22.45,10.18 -33.45,15.7 9.06,-58.9 42.97,-113.2 91.45,-147.7 38.54,-29.24 84.46,-47.49 131.6,-57.35 -18.32,-58.82 -36.62,-117.67 -55.1,-176.45 z m -100.5,492.45 c 10.66688,-0.16406 21.42501,2.25 30.5,7.95 14.22,8.68 22.57,25.46 22.35,41.9 -2.34,30.6 -29.23,57.98 -60.15,59.5 -17.66,1.14 -36.35,-6.24 -46.65,-21 -8.64,-12 -8.97,-28 -5.15,-41.8 5.56,-22.68 25.47,-41.67 48.55,-45.55 3.47501,-0.60501 6.99437,-0.94531 10.55,-1 z"
       id="path10"
       style="fill:#f4722b"
       inkscape:connector-curvature="0" />
    <path
       d="m 137.88,326.52 c 22.16,7.94 43.76,17.36 65.76,25.74 5.52,2.04 11.1,4.3 15.46,8.4 74.54,65.08 149.4,129.78 223.84,194.96 -74.28,-5.78 -148.56,-11.54 -222.86,-17.18 -11.38,-1.24 -22.72,0.74 -34.04,1.62 -29.32,2.46 -58.62,5.02 -87.92,7.48 -7.6,0.74 -15.24,1.6 -22.88,1.22 7.86,-4.66 16.64,-7.34 25.12,-10.64 17.42,-6.76 34.9,-13.4 52.34,-20.08 -20.36,-9.18 -41.28,-17.2 -61.32,-27.08 27.72,-4.7 55.86,-6.84 83.66,-11.16 -4.58,-3.34 -9.96,-5.1 -15.24,-6.92 C 106.54,453.24 53.42,433.2 0.1,413.72 c 19.3,-0.22 38.64,-0.18 57.96,0.06 25.2,1.86 50.5,0.32 75.74,1.26 17.6,0.92 35.22,0.42 52.82,0.52 -16.36,-29.62 -32.98,-59.1 -48.74,-89.04 z"
       id="path12"
       inkscape:connector-curvature="0"
       style="fill:#f4722b" />
    <path
       d="m 186.7,551.6 c -2.18,14.56 -2.01,29.36 -3.45,44 11.76,7.36 23.67,14.39 35.25,22.05 3.38,20.7 7,41.38 10.3,62.1 1.4,8.5 -0.28,17.24 1.1,25.7 3.3,5.3 7.69,9.85 11.65,14.65 -6,24.26 -12.49,48.4 -18.65,72.6 7.34,5.5 16.92,6.75 24,12.65 2.54,3.66 3.87,7.97 5.65,12.05 6.54,16.3 14.3,32.17 20.4,48.65 0.66,9.18 1.06,18.45 0.6,27.65 -6.22,14.52 -15.1,27.76 -21.8,42.1 -2.64,7.2 -3.59,14.88 -4.95,22.4 15.32,3.46 30.8,9.16 46.7,7.3 6,-2.18 10.33,-7.19 15.25,-11.05 -0.16,-7.8 -0.42,-15.6 -0.5,-23.4 2.28,-1.54 4.54,-3.06 6.8,-4.6 1.92,9.36 1.97,19.09 4.45,28.35 2.74,4.24 6.7,8.94 12.3,8.6 16.14,0.3 32.3,-3.02 47.8,-7.3 -0.74,-10.62 2.62,-22.4 -3.6,-31.9 -5.44,-10.06 -10.5,-20.28 -15.8,-30.4 0.22,-8.46 1.66,-17.03 0.2,-25.45 -1.44,-6.88 1.14,-13.75 3.5,-20.15 4.8,-10.98 9.78,-21.94 15.5,-32.5 3.66,-1.42 7.93,-2.25 10.35,-5.65 5.8,-7 11.26,-14.29 17.1,-21.25 2.32,-3.18 5.88,-6.32 4.8,-10.7 -2.36,-20.16 -5.91,-40.23 -8.75,-60.35 -0.74,-5 0.03,-10.01 0.85,-14.95 4.96,-29.28 9.08,-58.7 13.9,-88 7.54,0.14 15.31,1.2 22.75,-0.5 7.44,-3.52 13.53,-9.24 20.35,-13.8 3.16,-11.02 5.87,-22.16 8.95,-33.2 -14.28,-3.64 -29.18,-1.82 -43.7,-3.7 -34.32,-0.96 -68.44,-4.52 -102.8,-4.8 1.56,-0.64 3.09,-1.25 4.65,-1.85 -12.58,1.7 -25.25,0.13 -37.85,-0.35 -34.42,-2.04 -68.86,-3.76 -103.3,-5 z m 135.7,87.8 c 4.16,19.24 5.48,38.97 8.3,58.45 0.96,12.58 5.2,25.55 1.3,38.05 -2.8,10.7 -5.52,21.42 -8.4,32.1 -1.56,4.96 -1.26,10.2 -0.8,15.3 4.04,3.54 8.04,7.08 12.3,10.4 -0.38,14.54 -1.16,29.1 -2.3,43.6 -3.08,7.46 -9.12,13.3 -13,20.4 -5.98,-7.78 -13.77,-14.12 -19.05,-22.4 -2.82,-8.96 -4.85,-18.21 -6.45,-27.45 -1.1,-2.9 1.56,-4.71 3.7,-5.85 5.5,-3 11.43,-5.17 17.15,-7.75 -3.54,-27.58 -8.99,-54.87 -14.15,-82.15 5.08,-7.36 6.93,-16.24 10.25,-24.4 6.16,-15.42 9.21,-31.88 11.15,-48.3 z"
       id="path14"
       style="fill:#f5e5c1"
       inkscape:connector-curvature="0" />
  </g>
</svg>
