<?xml version="1.0" encoding="UTF-8" standalone="no"?>
<svg
   xmlns:dc="http://purl.org/dc/elements/1.1/"
   xmlns:cc="http://creativecommons.org/ns#"
   xmlns:rdf="http://www.w3.org/1999/02/22-rdf-syntax-ns#"
   xmlns:svg="http://www.w3.org/2000/svg"
   xmlns="http://www.w3.org/2000/svg"
   xmlns:sodipodi="http://sodipodi.sourceforge.net/DTD/sodipodi-0.dtd"
   xmlns:inkscape="http://www.inkscape.org/namespaces/inkscape"
   width="1280"
   height="1280"
   viewBox="0 0 1024 1024"
   version="1.1"
   id="svg2"
   inkscape:version="0.48.1 "
   sodipodi:docname="kill_underwater.svg">
  <metadata
     id="metadata74">
    <rdf:RDF>
      <cc:Work
         rdf:about="">
        <dc:format>image/svg+xml</dc:format>
        <dc:type
           rdf:resource="http://purl.org/dc/dcmitype/StillImage" />
      </cc:Work>
    </rdf:RDF>
  </metadata>
  <defs
     id="defs72" />
  <sodipodi:namedview
     pagecolor="#ffffff"
     bordercolor="#666666"
     borderopacity="1"
     objecttolerance="10"
     gridtolerance="10"
     guidetolerance="10"
     inkscape:pageopacity="0"
     inkscape:pageshadow="2"
     inkscape:window-width="1920"
     inkscape:window-height="1018"
     id="namedview70"
     showgrid="false"
     inkscape:snap-page="true"
     inkscape:zoom="0.6609375"
     inkscape:cx="466.00473"
     inkscape:cy="640"
     inkscape:window-x="-8"
     inkscape:window-y="-8"
     inkscape:window-maximized="1"
     inkscape:current-layer="layer1"
     fit-margin-top="0"
     fit-margin-left="0"
     fit-margin-right="0"
     fit-margin-bottom="0" />
  <g
     inkscape:groupmode="layer"
     id="layer1"
     inkscape:label="background">
    <rect
       style="fill:#3e3e3e;fill-opacity:1"
       id="rect3070"
       width="1024"
       height="1024"
       x="0"
       y="0" />
  </g>
  <g
     inkscape:groupmode="layer"
     id="layer2"
     inkscape:label="foreground">
    <path
       style="fill:#f4722b"
       d="m 0,127.3 0,896.7 127.05,0 c -0.25,-6.02 -1.0325,-11.9525 -1.9,-17.9 -0.002,-0.016 0.002,-0.034 0,-0.05 -0.4325,-2.9763 -0.89188,-5.9209 -1.3,-8.9 -0.40906,-2.97718 -0.785,-5.95499 -1.05,-8.95 -1.205,-14.37 -2.50844,-28.75094 -3.9,-43.1 -1.39184,-14.33256 -2.88296,-28.67523 -4.35,-43 -0.002,-0.0165 0.002,-0.0335 0,-0.05 -2.20144,-21.49539 -4.3969,-42.98531 -6.45,-64.5 -0.002,-0.0165 0.002,-0.0335 0,-0.05 -0.6848,-7.17707 -1.36,-14.3175 -2,-21.5 -0.39541,-2.98421 -0.69684,-6.10934 -1.2,-9.15 -0.003,-0.0161 0.003,-0.0339 0,-0.05 -0.1693,-1.01875 -0.37625,-1.9975 -0.6,-3 -0.22375,-1.0025 -0.5007,-2.02499 -0.8,-3 -0.0982,-0.31989 -0.19216,-0.63387 -0.3,-0.95 -0.0559,-0.16349 -0.0914,-0.3376 -0.15,-0.5 -0.34498,-0.95702 -0.74783,-1.88734 -1.2,-2.8 -0.45217,-0.91266 -0.96955,-1.79298 -1.55,-2.65 -0.29022,-0.42851 -0.57375,-0.8375 -0.9,-1.25 -9.4,-12.6875 -19.008594,-25.25976 -28.35,-38 -3.736563,-5.0961 -7.423437,-10.22766 -11.05,-15.4 -1.813282,-2.58618 -3.625,-5.1875 -5.4,-7.8 -5.625,-8.2125 -8.922578,-17.41018 -11.2,-26.95 -0.760986,-3.17717 -1.417344,-6.37805 -2,-9.6 -0.0029,-0.0162 0.0029,-0.0338 0,-0.05 -0.384581,-2.13318 -0.758003,-4.2663 -1.1,-6.4 -0.0026,-0.0163 0.0026,-0.0337 0,-0.05 -0.344374,-2.14984 -0.67,-4.26499 -1,-6.4 -0.128018,-1.05614 -0.216464,-2.1451 -0.3,-3.2 -0.0013,-0.0164 0.0013,-0.0336 0,-0.05 -0.587787,-7.48203 -0.103944,-14.93965 0.9,-22.35 0.0022,-0.0163 -0.0022,-0.0337 0,-0.05 0.285912,-2.10557 0.644253,-4.20109 1,-6.3 0.0027,-0.0161 -0.0028,-0.0339 0,-0.05 1.076835,-6.34534 2.412499,-12.6225 3.65,-18.9 1.81056,-6.2397 3.498861,-12.58899 5.35,-18.85 0.0045,-0.0153 -0.0045,-0.0347 0,-0.05 1.237656,-4.18406 2.529843,-8.30344 4,-12.4 2.205234,-6.14485 4.79,-12.17 8,-17.9 7.98,-15.07501 16.490938,-29.92626 26.15,-44 3.217813,-4.69125 6.555,-9.30501 10.05,-13.8 1.255,-1.2525 2.4925,-2.54645 3.7,-3.85 3.62414,-3.91067 7.06875,-7.99187 10.65,-11.95 2.97301,-3.28933 6.0453,-6.51867 9.35,-9.45 0.66343,-0.5876 1.36535,-1.13541 2.05,-1.7 1.36875,-1.12918 2.78,-2.23 4.25,-3.25 3.075,-2.06 6.05219,-4.25157 9,-6.5 4.42031,-3.37547 8.74102,-6.88675 13.2,-10.2 0.0108,-0.008 0.0392,0.008 0.05,0 4.44874,-3.30434 9.02186,-6.44395 13.9,-9.1 1.85499,-0.7575 3.72262,-1.26266 5.6,-1.6 1.87794,-0.33734 3.75453,-0.48688 5.65,-0.5 2.8432,-0.0197 5.7325,0.26002 8.6,0.7 4.7761,0.7333 9.57304,1.88906 14.35,2.7 1.91171,0.32437 3.7977,0.58109 5.7,0.75 1.9023,0.16891 3.8125,0.2325 5.7,0.15 0.76626,-0.22875 1.54917,-0.48584 2.3,-0.75 1.50168,-0.5283 2.94707,-1.10989 4.4,-1.75 0.72704,-0.32062 1.43179,-0.65875 2.15,-1 2.87,-1.36219 5.6875,-2.85875 8.5,-4.35 1.40813,-0.7475 2.83059,-1.48 4.25,-2.2 1.91558,-0.97168 3.87758,-1.86398 5.85,-2.7 0.93851,-0.39672 1.89131,-0.85035 2.85,-1.2 1.49285,-0.54499 2.99499,-1.0025 4.55,-1.4 11.18,-3.43 22.61968,-6.56406 34.2,-9.1 8.68523,-1.90195 17.44757,-3.46336 26.25,-4.6 2.91778,-0.37677 5.87611,-0.72378 8.8,-1 1.47046,-0.13875 2.97864,-0.23824 4.45,-0.35 22.06582,-1.67413 44.20312,-0.27187 65.7,6 12.7575,2.00374 25.06506,5.56973 37.2,9.75 5.18598,1.78648 10.36048,3.71094 15.5,5.65 0.0146,0.005 0.0354,-0.005 0.05,0 3.4208,1.29174 6.83472,2.59525 10.25,3.9 0.0146,0.006 0.0354,-0.006 0.05,0 3.41528,1.3047 6.82822,2.62582 10.25,3.9 3.45118,1.28499 6.88034,2.53989 10.35,3.75 9.99,-1.96499 19.97843,-3.94344 30.05,-5.45 3.35626,-0.50406 6.72499,-0.97 10.1,-1.35 0.63627,-0.078 1.31011,-0.12106 1.95,-0.15 1.31304,-0.0551 2.64382,1.6e-4 3.95,0.15 0.6525,0.0732 1.30501,0.17688 1.95,0.3 1.93501,0.36938 3.85,0.94082 5.65,1.75 0.6,0.26973 1.1725,0.5825 1.75,0.9 1.7475,1.02499 3.46187,2.092 5.15,3.2 3.36506,2.20867 6.63909,4.5744 9.85,7 0.0107,0.008 0.0393,-0.008 0.05,0 1.59994,1.20818 3.1679,2.46624 4.75,3.7 0.0104,0.008 0.0396,-0.008 0.05,0 4.7775,3.72938 9.48813,7.52786 14.35,11.15 1.62062,1.20738 3.2425,2.3925 4.9,3.55 0.94499,0.6475 1.83336,1.32298 2.7,2.05 0.86664,0.72702 1.69469,1.51062 2.5,2.3 0.81459,0.79733 1.58075,1.60645 2.35,2.45 3.80507,4.17266 7.17501,8.7875 11.15,12.8 1.13,1.18501 2.29906,2.3275 3.45,3.5 1.15094,1.17062 2.28626,2.3475 3.4,3.55 2.23666,2.41803 4.31365,4.92968 6.05,7.75 0.89499,1.5025 1.82829,3.01382 2.75,4.5 0.92254,1.48618 1.85797,2.92531 2.8,4.4 1.88858,2.96139 3.78232,5.9057 5.7,8.85 1.91374,2.9325 3.82094,5.84563 5.7,8.8 0.007,0.0118 -0.007,0.0382 0,0.05 1.87123,2.94266 3.72717,5.89714 5.5,8.9 1.08,1.97 2.10062,3.94157 3.1,5.95 3.01142,6.03798 5.74309,12.18194 8.9,18.15 0.3925,0.73626 0.78499,1.45326 1.15,2.2 0.37206,0.75957 0.70398,1.53062 1.05,2.3 0.67949,1.51266 1.30829,3.00437 1.9,4.55 1.78566,4.6476 3.18802,9.43443 4.5,14.25 1.30794,4.8007 2.4875,9.6225 3.8,14.4 0.92499,3.49499 1.74246,7.04723 2.45,10.6 0.70754,3.55277 1.32234,7.10766 1.8,10.7 0.95531,7.18469 1.43875,14.41626 1.4,21.65 -0.0775,14.4675 -2.25,28.91 -6.9,42.7 -0.58626,1.77499 -1.21142,3.48504 -1.9,5.2 -0.006,0.0144 0.006,0.0356 0,0.05 -0.33891,0.84286 -0.68818,1.67058 -1.05,2.5 -0.009,0.02 -0.0413,0.03 -0.05,0.05 -1.83394,4.19629 -3.97277,8.24376 -6.3,12.15 -0.007,0.0124 0.007,0.0376 0,0.05 -0.92859,1.55747 -1.91024,3.07859 -2.9,4.6 -0.008,0.0119 0.008,0.0381 0,0.05 -0.99035,1.52139 -2.00835,3.00891 -3.05,4.5 -0.008,0.0114 0.008,0.0386 0,0.05 -0.43544,0.62304 -0.90682,1.23155 -1.35,1.85 -1.68614,2.35301 -3.42685,4.69874 -5.2,7 -2.2475,2.91688 -4.53453,5.77442 -6.85,8.65 -0.008,0.0102 0.008,0.0398 0,0.05 -6.93856,8.61646 -14.04466,17.16315 -20.15,26.25 2.86,0.7 5.77,1.43 8.65,2.15 1.14,-1.3425 2.3191,-2.61312 3.55,-3.85 2.46179,-2.47374 5.08382,-4.77125 7.8,-6.95 1.35808,-1.08938 2.75563,-2.1525 4.15,-3.2 5.5775,-4.19 11.37,-8.13 16.8,-12.5 1.28,-0.84499 2.59989,-1.49274 3.95,-2 1.35067,-0.50808 2.74734,-0.87766 4.15,-1.1 1.40171,-0.22094 2.8152,-0.31398 4.25,-0.3 0.71798,0.006 1.42718,0.0448 2.15,0.1 0.72221,0.0561 1.42531,0.15125 2.15,0.25 0.74155,0.0991 1.45826,0.21293 2.2,0.35 0.72486,0.13499 1.42728,0.2852 2.15,0.45 4.35602,0.98362 8.61808,2.44294 12.6,3.7 3.56499,1.25501 7.11906,2.48813 10.7,3.7 10.75755,3.64387 21.54512,7.11498 32.3,10.75 5.7075,2.2275 11.60206,4.30683 17.35,6.65 1.91598,0.78106 3.82437,1.59312 5.7,2.45 6.56469,2.99906 12.79762,6.55435 18.25,11.35 0.77891,0.68509 1.55501,1.4125 2.3,2.15 0.72499,0.7225 1.43722,1.4383 2.1,2.2 0.008,0.009 -0.008,0.041 0,0.05 4.62557,5.32547 7.7877,11.5297 10.1,18.15 0.005,0.0146 -0.005,0.0354 0,0.05 0.65566,1.88072 1.26533,3.82091 1.8,5.75 0.96574,3.47574 1.74658,7.02923 2.45,10.55 0.0797,0.40019 0.17243,0.80027 0.25,1.2 0.003,0.016 -0.003,0.034 0,0.05 0.37816,1.9505 0.75534,3.92589 1.1,5.85 0.0875,2.0925 0.19989,4.15742 0.35,6.25 10e-4,0.0166 -0.001,0.0334 0,0.05 1.05226,14.63155 3.26307,29.28405 1.55,43.95 -1.21875,16.89374 -0.56373,34.09848 -4.25,50.7 -0.24582,1.10677 -0.51374,2.19875 -0.8,3.3 -1.12501,6.28501 -2.36656,12.56531 -3.75,18.8 -2.76688,12.46938 -6.06813,24.80563 -10,36.95 -1.96594,6.0722 -4.11,12.09 -6.4,18.05 l 277.7,0 0,-892.8 c -28.28,29.64 -63,54.68 -102.9,65.6 -27.94,7.7 -58.62,5.72 -84.9,-6.7 -28.1,-13 -50.62,-35.42 -69,-59.9 -28.68,30.08 -63.86,55.85 -104.7,66.05 -27.36,6.68 -57.06,4.13 -82.4,-8.35 -27.04,-13.16 -49.06,-34.72 -66.8,-58.7 -26.64,27.9 -58.22,52.42 -95.2,64.7 -26.92,9.12 -56.99,9.83 -83.75,-0.35 -32.56,-12.08 -58.67,-36.83 -79.05,-64.35 -23.84,24.34 -51.56,45.62 -83.6,57.9 -27.08,10.56 -57.79,13.56 -85.75,4.6 C 50.67,181.38 22.24,155.68 0,127.3 z m 716.25,133.05 c 17.36531,0.23906 34.66,4.53 49.75,13.35 16.5,8.04 29.15,21.82 39.75,36.5 20.56,34.06 20.72,79.36 -0.2,113.3 -7.54,10.26 -15.6,20.39 -25.8,28.15 -24.94,17.8 -57.35,26.72 -87.55,19.1 -17.52,-4.82 -34.59,-12.62 -48.15,-24.9 -7.46,-7.18 -14.1,-15.25 -19.7,-23.95 -9.66,-14.82 -13.18,-32.6 -15.1,-49.9 -0.22,-24.86 5.96,-51 22.5,-70.2 16.04,-21.54 41.16,-35.19 67.2,-40.35 5.73501,-0.80501 11.51157,-1.17968 17.3,-1.1 z m 182.3,170.75 c 0.95035,-0.0127 1.89923,-0.0161 2.85,0 16.73349,0.28326 33.41125,4.90125 47.45,14.1 24.42,13.68 41.7,39.12 45.7,66.8 0.88,5.88 3,11.73 2.2,17.75 -1.9,13.8 -4.75,27.66 -10.35,40.5 -15.78,33.24 -51.86,54.79 -88.4,54.85 -22.74,-0.88 -44.9,-10.17 -62.2,-24.85 -8.84,-7.98 -15.98,-17.69 -22.1,-27.85 -13.34,-26.14 -13.47,-57.86 -1.95,-84.7 13,-26.64 37.95,-47.74 67.05,-54.3 6.46406,-1.42734 13.09758,-2.21131 19.75,-2.3 z M 862.4,701.4 c 15.68344,-0.13594 31.43,4.97501 44.45,13.6 14.86,11.6 26.49,28.1 30.35,46.7 8.56,38.02 -18.12,81.17 -57,88.05 -20.62,6.08 -43.24,0.68 -61,-10.7 -7.8,-4.74 -13.24,-12.25 -18.7,-19.35 -16.42,-21.3 -17.43,-51.83 -6.15,-75.65 7.98,-13.3 17.68,-26.8 32.1,-33.6 6.34,-3.5 13.34,-5.56 20.4,-7.1 5.10499,-1.28 10.32219,-1.90469 15.55,-1.95 z"
       id="path6"
       inkscape:connector-curvature="0" />
    <path
       d="m 713.05,279.15 c -4.26512,0.11363 -8.5425,0.5775 -12.75,1.35 -32.6,5.46 -60.75,30.74 -69.35,62.7 -7.5,26.08 -1.83,55.47 14.75,76.95 16.64,22.26 44.57,35.24 72.25,34.5 22.86,-0.96 45.55,-10.58 61.15,-27.5 19.92,-20.64 28.4,-51.46 21.9,-79.4 -4.58,-21.38 -17.8,-40.51 -35.7,-52.95 -15.19374,-10.54626 -33.76784,-16.14238 -52.25,-15.65 z m -2.5,21.2 c -8.28,4.7 -16.37,10.74 -20.15,19.8 -6.54,13.9 -3.54,31.49 7.2,42.45 10.14,10.76 26.8,15.1 40.7,9.6 14.96,-5.14 25.67,-20.44 25.15,-36.3 0.28,-8.8 -3.31,-17.12 -8.55,-24 15.46,10.18 27,26.16 31.4,44.2 5.88,21.58 0.46,45.5 -13,63.2 -12.24,15.96 -31.14,26.6 -51.2,28.5 -30.82,3.72 -62.63,-14.55 -75.05,-42.95 -8.74,-18.82 -8.84,-41.39 -0.5,-60.35 10.66,-25.18 36.54,-43.47 64,-44.15 z"
       id="path10"
       style="fill:#f5e5c1"
       inkscape:connector-curvature="0" />
    <path
       d="m 899.25,449.85 c -1.99312,0.0185 -3.9625,0.1125 -5.95,0.3 -13.56,0.7 -26.48,6.02 -37.7,13.4 -24.38,16.48 -38.09,47.55 -32.95,76.65 4.88,34.74 36.11,63.68 71.25,65.4 23.76,1.94 48.28,-7.67 64,-25.65 13.18,-14.6 20.45,-34.42 19.65,-54.1 -0.2,-26.46 -15.49,-51.99 -38.35,-65.15 -12.0225,-7.03501 -25.99813,-10.97933 -39.95,-10.85 z m -0.55,19.7 c 1.67304,-0.019 3.33,0.035 5,0.15 -8.02,2.14 -15.63,6.65 -20.05,13.85 -9.94,14.26 -5.73,36.31 9.15,45.55 12.68,8.78 31.25,6.73 41.75,-4.55 11.08,-11.02 12.47,-30.66 2.15,-42.6 12.9,9.68 22,24.41 24.6,40.35 3.2,16.98 -1.65,35.1 -12.05,48.8 -16.48,21.84 -47.59,31.26 -73.35,22 -17.66,-6.18 -32.09,-20.98 -37.55,-38.9 -8.88,-27.18 2.48,-59.88 27.1,-74.8 9.87,-6.3175 21.53867,-9.71683 33.25,-9.85 z"
       id="path18"
       style="fill:#f5e5c1"
       inkscape:connector-curvature="0" />
    <path
       style="fill:#f5e5c1"
       d="m 332.65,457.25 c -9.20062,0.14214 -18.4125,1.0325 -27.45,2.75 -16,1.38 -31.59,5.5 -46.95,10 -14.82,4.16 -28.15,12.04 -42.25,18 -6.06,2.94 -12.76,0.54 -19,-0.4 -8.2,-1.28 -16.44,-3.82 -24.8,-3 -6.66,3.54 -12.3,8.7 -18.4,13.1 -8.84,7.14 -18.98,12.82 -26.5,21.5 -7.98,9.42 -17.22,17.87 -23.6,28.55 -12.4,18.28 -23.29,37.59 -32.15,57.85 -7.72,20.64 -13.15,42.34 -14.35,64.4 0.84,18.74 3.34,38.54 14.6,54.2 14.28,19.66 28.34,39.49 43.3,58.65 7.22,7.22 8.05,17.56 8.55,27.2 7.16,71.34 14.5,142.65 22,213.95 l 63.35,0 c 0.15501,-0.9 0.33678,-1.7749 0.55,-2.65 0.42643,-1.7503 0.9753,-3.4845 1.6,-5.15 0.31235,-0.8327 0.64672,-1.6348 1,-2.45 0.35282,-0.8152 0.7121,-1.5998 1.1,-2.4 1.16534,-2.4005 2.47187,-4.7409 3.85,-7.05 3.67,-6.1575 7.84,-12.13 11,-18.5 3.8,-8.38 11.57,-13.76 17.05,-20.9 0.5225,-0.73501 1.04448,-1.4463 1.6,-2.15 1.11835,-1.41666 2.31242,-2.74933 3.55,-4.05 0.60666,-0.63758 1.21819,-1.2877 1.85,-1.9 1.9193,-1.8607 3.9416,-3.59123 6.05,-5.25 2.11024,-1.6597 4.31483,-3.24402 6.55,-4.75 2.97789,-2.0068 6.03274,-3.91634 9.1,-5.75 1.53418,-0.9171 3.0725,-1.80499 4.6,-2.7 2.06806,-0.77707 4.1472,-1.61254 6.2,-2.45 2.0668,-0.84277 4.13843,-1.68453 6.2,-2.55 4.10984,-1.72778 8.2484,-3.50454 12.4,-5.1 2.0825,-0.79813 4.19133,-1.54192 6.3,-2.25 2.10926,-0.70984 4.25422,-1.36813 6.4,-1.95 2.14578,-0.58187 4.30731,-1.0839 6.5,-1.5 2.19269,-0.4161 4.4,-0.7375 6.65,-0.95 2.3925,-0.48 4.80946,-0.83661 7.2,-1.05 2.39054,-0.21339 4.76282,-0.31016 7.15,-0.3 1.19382,0.005 2.35725,0.0476 3.55,0.1 0.0165,7.2e-4 0.0335,-7.4e-4 0.05,0 2.36858,0.10506 4.73682,0.28798 7.1,0.55 10.72437,1.18904 21.36517,3.78317 31.9,5.8 0.8975,0.16374 1.76502,0.34795 2.65,0.55 3.55565,0.80882 6.98202,1.91733 10.35,3.25 1.98811,0.78667 3.91922,1.67238 5.85,2.6 0.51152,0.24576 1.04224,0.44573 1.55,0.7 0.0136,0.007 0.0365,-0.007 0.05,0 4.8347,2.42357 9.50258,5.27883 14.05,8.2 0.0118,0.008 0.0382,-0.008 0.05,0 1.50795,0.96902 3.01656,1.9627 4.5,2.95 1.7825,1.3425 3.46507,2.76402 5.1,4.25 0.82634,0.75106 1.60731,1.51672 2.4,2.3 0.38392,0.37902 0.7735,0.76394 1.15,1.15 0.38453,0.39461 0.7729,0.7984 1.15,1.2 0.76256,0.81146 1.51571,1.61219 2.25,2.45 1.4531,1.65798 2.84174,3.35616 4.2,5.1 0.67914,0.87192 1.34062,1.76094 2,2.65 2.6375,3.55626 5.12312,7.23469 7.55,10.95 2.42688,3.71531 4.81499,7.46 7.2,11.15 1.99499,2.88501 3.71718,5.90344 5.3,9 1.58187,3.09563 3.00501,6.285 4.35,9.5 2.01938,4.8244 3.86894,9.7147 5.85,14.55 0.66008,1.6115 1.35,3.21 2.05,4.8 l 33.25,0 c -0.69499,-2.93 -1.35875,-5.8678 -2.05,-8.8 -0.68941,-2.9183 -1.39709,-5.8492 -2.15,-8.75 -0.004,-0.015 0.004,-0.035 0,-0.05 -0.37875,-1.4581 -0.79274,-2.9004 -1.2,-4.35 -0.81453,-2.89914 -1.67171,-5.75149 -2.65,-8.6 -0.48914,-1.42426 -1.0075,-2.8425 -1.55,-4.25 -2.37763,-6.40018 -4.88936,-12.8644 -7.15,-19.35 -0.007,-0.0199 -0.0431,-0.0301 -0.05,-0.05 -2.27154,-6.52152 -4.27354,-13.07523 -5.7,-19.8 -0.23835,-1.11899 -0.4468,-2.2237 -0.65,-3.35 -0.40525,-2.25109 -0.7549,-4.51571 -1,-6.8 -0.12277,-1.14243 -0.2225,-2.29875 -0.3,-3.45 0.0152,-1.28157 0.0401,-2.52187 0.1,-3.8 0.0586,-1.26165 0.15813,-2.49094 0.25,-3.75 0.3675,-5.03626 0.9625,-10.07374 1.45,-15.1 0.24374,-2.51312 0.45,-5.03 0.6,-7.55 0.0707,-1.6991 0.24309,-3.34722 0.5,-5 0.12653,-0.81851 0.28466,-1.59115 0.45,-2.4 0.16835,-0.82454 0.34621,-1.6343 0.55,-2.45 0.19954,-0.80032 0.42091,-1.55709 0.65,-2.35 0.23315,-0.80794 0.44102,-1.59858 0.7,-2.4 0.50323,-1.55838 1.076,-3.1096 1.65,-4.65 0.005,-0.0145 -0.005,-0.0355 0,-0.05 0.57458,-1.54046 1.19098,-3.06862 1.8,-4.6 0.006,-0.0144 -0.006,-0.0357 0,-0.05 0.61493,-1.54578 1.23718,-3.05437 1.85,-4.6 1.22469,-3.09125 2.40501,-6.20499 3.4,-9.35 0.54189,-1.85501 1.17813,-3.63734 1.9,-5.4 0.35709,-0.87453 0.70538,-1.6948 1.1,-2.55 2.77078,-5.9988 6.40323,-11.55589 10.15,-17.05 1.05923,-1.55517 2.14091,-3.0952 3.2,-4.65 0.008,-0.0115 -0.008,-0.0385 0,-0.05 1.06672,-1.56626 2.11894,-3.11594 3.15,-4.7 1.0316,-1.58406 2.04,-3.18 3,-4.8 0.36333,-0.4887 0.7123,-0.97834 1.05,-1.5 0.32371,-0.49613 0.63766,-0.98784 0.95,-1.5 0.007,-0.012 -0.007,-0.038 0,-0.05 0.63938,-1.04938 1.2875,-2.1175 1.95,-3.15 0.6503,-1.02614 1.33466,-1.99981 2.1,-2.9 0.008,-0.009 -0.008,-0.041 0,-0.05 0.77563,-0.90813 1.66,-1.68501 2.65,-2.35 4.96522,1.56638 9.86909,3.1876 14.8,4.85 14.71238,4.96013 29.32995,10.2521 43.95,15.45 -6.3,10.17 -12.27499,20.58 -17.7,31.25 -2.7125,5.33501 -5.28688,10.72501 -7.7,16.2 -2.41312,5.47499 -4.69,11.02501 -6.75,16.65 -1.50501,5.19 -2.76282,10.46157 -3.85,15.75 -0.5436,2.64422 -1.04786,5.28738 -1.5,7.95 -0.9043,5.32523 -1.60946,10.67602 -2.2,16.05 -0.29528,2.68699 -0.57016,5.35702 -0.8,8.05 -10e-4,0.0165 10e-4,0.0335 0,0.05 -0.45754,5.36946 -0.80077,10.78154 -1.05,16.15 0.003,1.21499 0.0197,2.38706 0.05,3.6 4.2e-4,0.0166 -4.2e-4,0.0334 0,0.05 0.0302,1.19634 0.0961,2.40541 0.15,3.6 7.5e-4,0.0166 -7.5e-4,0.0334 0,0.05 0.10909,2.40562 0.26565,4.79989 0.45,7.2 10e-4,0.0166 -0.001,0.0334 0,0.05 0.74293,9.65019 1.94896,19.30467 2.8,28.95 0.42718,4.8291 0.78,9.645 0.9,14.5 l 20.85,0 c -0.30328,-1.5013 -0.57328,-2.9879 -0.8,-4.5 -0.21883,-1.4811 -0.39118,-2.9615 -0.55,-4.45 -0.002,-0.016 0.002,-0.034 0,-0.05 -0.32,-3.01 -0.57,-5.99 -0.75,-9 -0.23,-4.9375 -0.36149,-9.89008 -0.4,-14.85 -0.0385,-4.95992 0.0259,-9.93594 0.2,-14.9 0.17301,-4.94608 0.44502,-9.91829 0.85,-14.85 0.001,-0.0165 -10e-4,-0.0335 0,-0.05 0.0178,-0.21678 0.0317,-0.43326 0.05,-0.65 0.37814,-4.46398 0.86461,-8.91237 1.45,-13.35 0.0329,-0.24974 0.0664,-0.50037 0.1,-0.75 0.002,-0.0163 -0.002,-0.0337 0,-0.05 0.66187,-4.91563 1.46222,-9.78496 2.4,-14.65 0.93835,-4.8668 2.01469,-9.70219 3.25,-14.5 2.46968,-9.59282 5.56499,-19.04 9.35,-28.25 0.77589,-1.9095 1.43998,-3.83587 2.1,-5.8 0.6503,-1.93414 1.31979,-3.87822 2,-5.8 0.005,-0.0147 -0.005,-0.0353 0,-0.05 0.34312,-0.96813 0.67184,-1.89762 1.05,-2.85 0.38363,-0.96613 0.76146,-1.90874 1.2,-2.85 0.43141,-0.92829 0.89715,-1.80418 1.4,-2.7 0.50285,-0.89582 1.0575,-1.79501 1.65,-2.65 6.83,-11.21 13.25501,-22.83501 20.4,-33.95 1.78626,-2.77688 3.60696,-5.50355 5.5,-8.2 0.0134,-0.0191 0.0366,-0.0309 0.05,-0.05 0.93867,-1.33792 1.87866,-2.63738 2.85,-3.95 0.008,-0.0106 -0.008,-0.0394 0,-0.05 3.91184,-5.28378 8.13507,-10.3249 12.75,-15.05 1.16434,-1.19213 2.32987,-2.3529 3.55,-3.5 0.68198,-0.68198 1.41571,-1.4584 2.15,-2.2 1.30872,-1.32178 2.71514,-2.57293 4.35,-3.1 0.46402,-0.1496 0.9491,-0.22962 1.45,-0.25 0.75134,-0.0306 1.5525,0.10875 2.4,0.45 5.92499,1.6275 11.86515,3.20992 17.8,4.9 3.95656,1.12672 7.88594,2.29078 11.8,3.55 1.95702,0.62962 3.91062,1.27157 5.85,1.95 3.87875,1.35688 7.72,2.83501 11.5,4.45 -1.72501,1.91499 -3.51094,3.74437 -5.35,5.55 -1.83906,1.80282 -3.74875,3.56125 -5.6,5.35 -0.91712,0.88818 -1.8487,1.84726 -2.75,2.75 -1.81914,1.82203 -3.57149,3.64672 -5.25,5.6 -0.83926,0.97664 -1.66499,1.9725 -2.45,3 -1.1,1.43626 -2.17021,2.87464 -3.2,4.35 -0.008,0.011 0.008,0.039 0,0.05 -2.05987,2.95029 -3.98926,5.96307 -5.8,9.05 -0.90499,1.54403 -1.74962,3.0764 -2.6,4.65 -0.007,0.0128 0.007,0.0372 0,0.05 -0.84296,1.56085 -1.7056,3.11322 -2.5,4.7 -4.01622,8.00798 -7.43122,16.32002 -10.6,24.75 -3.79277,10.10461 -7.1925,20.37 -10.8,30.45 -1.05499,2.76 -1.99656,5.52688 -2.85,8.35 -0.005,0.0151 0.005,0.0349 0,0.05 -0.84806,2.80806 -1.62547,5.66794 -2.4,8.5 -1.55501,5.6925 -3.08,11.39 -5.1,16.95 -1.0275,3.16499 -1.90918,6.34062 -2.65,9.55 -0.74109,3.20938 -1.34875,6.45499 -1.85,9.7 -0.50125,3.24501 -0.89203,6.47813 -1.2,9.75 -1.22954,13.0875 -1.09922,26.3825 -1.1,39.55 -4.6e-4,3.2919 -0.01,6.575 -0.05,9.85 l 21,0 c -0.14187,-1.195 -0.28782,-2.4065 -0.4,-3.6 -0.22432,-2.387 -0.38829,-4.7689 -0.5,-7.15 -0.16757,-3.5716 -0.21237,-7.142 -0.15,-10.7 0.0832,-4.74402 0.36638,-9.43035 0.8,-14.15 1.94984,-21.22245 7.11702,-42.23776 12.45,-62.95 0.004,-0.0156 -0.004,-0.0343 0,-0.05 1.18605,-4.6061 2.38,-9.17 3.55,-13.75 0.30147,-1.33933 0.65613,-2.69152 1.05,-4 0.005,-0.0151 -0.005,-0.0349 0,-0.05 0.39941,-1.32347 0.83485,-2.59859 1.3,-3.9 0.92843,-2.60187 1.98125,-5.18 3,-7.75 1.02125,-2.57125 2.01718,-5.13469 2.9,-7.75 0.88094,-2.61437 1.63501,-5.26499 2.15,-8 0.58221,-3.25442 1.49061,-6.432 2.6,-9.5 0.005,-0.0145 -0.005,-0.0355 0,-0.05 0.27395,-0.75594 0.59971,-1.50411 0.9,-2.25 0.006,-0.0141 -0.006,-0.0359 0,-0.05 0.91403,-2.26611 1.9348,-4.46736 3.05,-6.65 0.007,-0.0129 -0.007,-0.0371 0,-0.05 1.49102,-2.91483 3.18126,-5.75482 4.9,-8.55 0.007,-0.012 -0.007,-0.038 0,-0.05 1.72688,-2.80688 3.54499,-5.53 5.35,-8.25 1.49282,-2.11482 3.12838,-4.27091 4.9,-6.3 0.008,-0.009 -0.008,-0.0409 0,-0.05 0.89078,-1.01891 1.8345,-2.00246 2.8,-2.95 4.82754,-4.7377 10.5875,-8.37501 17.5,-8.85 0.9425,-0.0925 1.84878,-0.0414 2.7,0.1 0.85094,0.14114 1.63813,0.36109 2.4,0.7 2.28702,1.01813 4.16918,2.84702 5.7,5 1.02054,1.43531 1.89133,3.01968 2.6,4.6 0.35434,0.79016 0.67,1.5775 0.95,2.35 0.48501,1.46125 0.9395,2.92726 1.35,4.4 0.82101,2.94547 1.49094,5.91507 2.05,8.9 0.27952,1.49246 0.52696,2.9993 0.75,4.5 0.22374,1.50094 0.42662,2.99187 0.6,4.5 0.34515,3.01571 0.62072,6.06218 0.8,9.1 0.0906,1.51922 0.14187,3.02688 0.2,4.55 0.11437,3.04563 0.17941,6.09528 0.2,9.15 0.0447,6.11062 -0.0559,12.25563 -0.1,18.35 -0.0229,3.04691 -0.0275,6.07 0,9.1 -0.008,1.4425 -0.0495,2.86166 -0.1,4.3 -0.19979,5.76976 -0.75189,11.5 -1.55,17.2 -0.39952,2.84237 -0.82853,5.67536 -1.35,8.5 -2.33834,12.70811 -5.8475,25.22 -9.65,37.55 -0.5775,1.86 -1.12507,3.71946 -1.65,5.6 -1.57477,5.64165 -2.95626,11.35626 -4.55,17 -0.53125,1.8812 -1.11195,3.7888 -1.7,5.65 -0.58805,1.8612 -1.17781,3.6691 -1.85,5.5 -1.00829,2.7464 -2.1255,5.4502 -3.4,8.1 -0.42483,0.8833 -0.88875,1.78 -1.35,2.65 l 19.7,0 c 3.7,-10.6 7.55,-21.15 11.25,-31.75 5.14,-18.48 8.45,-37.39 12.35,-56.15 2.14,-26.64 4.63,-53.49 1.25,-80.15 -1.26,-16.98 -4.66,-37.45 -20.6,-46.95 -4.56,-3.02 -9.7,-4.93 -14.8,-6.75 -20,-7.02 -39.95,-14.07 -59.95,-21.05 -4.52,-1.44 -9.15,-3.12 -13.95,-2.7 -13.1,10.34 -27.5,19.71 -37.2,33.65 -14.98,-4.52 -29.16,-11.21 -43.7,-16.85 15.38,-21.1 32.18,-41.17 48,-61.95 13,-18.4 18.64,-40.95 19.1,-63.25 -2.02,-36.98 -15.16,-72.67 -34.8,-103.85 -8.72,-14.22 -17.45,-28.61 -29.45,-40.35 -10.84,-14.16 -26.48,-23.12 -40.2,-34.1 -4.74,-3.18 -9.23,-8.58 -15.55,-7.4 -13.62,1.48 -26.92,4.92 -40.5,6.7 -5.44,0.84 -10.2,-2.61 -15.1,-4.35 -15.94,-6.18 -32.3,-11.13 -48.3,-17.15 -8.56,-3.14 -17.67,-4.19 -26.45,-6.55 -14.7875,-4.1 -30.16563,-6.03691 -45.5,-5.8 z m -6.7,30.45 c 17.96,0.94 36.28,-0.98 53.9,3.3 9,3.32 18.07,6.59 27.35,9.05 -3.72,7.34 -7.64,14.58 -11.6,21.8 -6.98,12.2 -7.28,26.61 -8.5,40.25 -0.68,26.68 -1.85,53.71 3.35,80.05 1.82,14.48 7.96,27.85 11.7,41.85 1.96,13.38 8.74,25.33 14.9,37.15 8.92,13.64 17.08,27.79 27,40.75 15.36,17.38 31.03,35 50.85,47.5 3.08,2.58 7.98,4.4 8.9,8.6 -3.16,8.84 -9.88,15.78 -13.5,24.4 -7.82,16.92 -16.75,33.48 -21.25,51.7 -2.6,13.82 -5.2,27.86 -4.3,42 -5.7,-3.84 -11.55,-7.61 -16.65,-12.25 -6.2,-5.64 -14.52,-7.85 -21.3,-12.65 -9.44,-5.38 -18.05,-12.72 -28.85,-15.2 -15.12,-4 -30.13,-9.48 -45.95,-9.5 -23.06,-3.22 -46.76,0.28 -67.8,10.3 -11.94,2.44 -22.36,8.74 -32.9,14.5 -18.06,7.22 -30.57,22.68 -44.25,35.8 -9.7,9.1 -16.54,20.65 -24.6,31.15 -8.42,11.26 -12.02,25.01 -16.9,37.95 -4.1,-64.76 -7.61,-129.5 -11.15,-194.3 12.46,-3.68 24.56,-8.52 36.7,-13.1 14.48,-8.92 27.15,-20.58 38.15,-33.5 16.46,-15.54 27.29,-35.68 39.45,-54.5 5.14,-9.98 11.05,-19.86 13.55,-30.9 2.46,-14.44 9.29,-27.62 11.95,-42 2.42,-13.2 4.65,-26.51 4.75,-39.95 0.4,-23.34 0.88,-46.87 -3.1,-69.95 -2.2,-12.98 -10.87,-23.39 -15.75,-35.35 14.3,-7.52 29.27,-15.17 45.85,-14.95 z M 172,504.7 c 8.12,-0.04 16,2.52 24.1,3.1 -10.5,7.04 -21.56,13.24 -31.9,20.5 -7.72,5.58 -13,13.64 -19.1,20.8 -15.46,17.36 -26.26,38.27 -34.6,59.85 -9.82,20.52 -12.46,43.25 -17.1,65.25 -1.36,13.24 -1.7,26.65 0.1,39.85 -1.02,3.58 -5.18,0.53 -6.6,-1.05 -3.82,-4.44 -6.62,-9.68 -8.8,-15.1 -7.22,-27.1 -1.53,-55.58 6.15,-81.9 10.68,-24.98 22.13,-50.68 41.55,-70.2 12.32,-16.68 28.78,-30.08 46.2,-41.1 z m 340.45,0.05 c 0.51125,-0.002 1.04626,0.0225 1.55,0.05 13.9,8.68 26.6,19.41 38,31.15 8.2,10.98 18.58,20.27 25.6,32.15 9.6,16.94 19.1,34.12 25.4,52.6 5.36,22.6 10.84,46.2 6.1,69.4 -0.82,8 -4.5,15.38 -9.3,21.7 -1.7,2.2 -4.03,4.56 -7.05,3.4 -2.46,-3.36 0.57,-7.34 0.55,-11 0.2,-12.46 0.26,-25.13 -2.5,-37.35 -3.5,-14.92 -4.98,-30.33 -10.4,-44.75 -9.42,-24.52 -19.68,-49.36 -37,-69.5 -6.84,-7.84 -12.46,-16.83 -20.7,-23.35 -10.4,-7.88 -22.32,-13.63 -32.7,-21.45 7.0175,-0.49 13.9325,-2.73586 20.95,-3 0.50125,-0.0189 0.98875,-0.0478 1.5,-0.05 z M 461.4,513 c -9.12,9.76 -16.04,21.89 -17.9,35.25 -1.28,9.34 -3.51,18.52 -4.45,27.9 -1,21.46 3.28,42.69 7.8,63.55 6.96,22.64 17.11,44.18 28.65,64.8 4.9,9.44 14.17,15.15 20.85,23.15 5.44,6.54 12.42,11.47 18.8,17.05 12.36,10.5 29.58,9.64 44.6,12.9 -9.7,10.04 -16.66,22.7 -28,31.1 -21.02,-5.28 -38.4,-19.98 -53.9,-34.6 -17.08,-19.74 -34.17,-40.34 -43.15,-65.2 -8.52,-19.42 -11.41,-40.55 -16.55,-60.95 -2.08,-13.96 -5.69,-27.75 -5.55,-41.95 -2.94,-22.96 1.38,-46.9 14.2,-66.4 11.56,-2.06 23.14,-3.96 34.6,-6.6 z m -236.65,1.75 c 11.48,0.44 22.7,2.89 34,4.75 6.46,11.22 12.45,23.12 13.85,36.2 3.06,26.28 -1.08,52.72 -6.6,78.4 -4.48,18.36 -7.19,37.32 -15.05,54.7 -8.76,24.46 -25.51,44.62 -42.05,64.2 -15.72,15.42 -33.64,29.5 -54.9,36.3 -10.98,-9.06 -18.55,-21.28 -28.05,-31.7 11.4,-2.24 23.21,-2.88 34.25,-6.7 17.08,-8.14 28.52,-24 42.3,-36.4 10.88,-10.92 14.86,-26.26 23.3,-38.8 3.86,-13.58 11.2,-25.99 13.9,-39.95 3.88,-20.28 8.37,-40.89 6.65,-61.65 -3.66,-20.6 -4.14,-44.85 -21.6,-59.35 z"
       id="path20"
       inkscape:connector-curvature="0" />
    <path
       d="m 861.2,719.45 c -2.9211,0.0983 -5.83813,0.42374 -8.75,1.05 -22.66,3.8 -41.64,22.66 -45.9,45.2 -5.1,22.82 6.21,47.79 26.05,59.85 21.3,13.62 51.5,10.53 69.5,-7.25 13.1,-12.18 19.65,-30.68 17.35,-48.4 -2.55563,-28.6375 -30.01267,-51.40046 -58.25,-50.45 z m -2.6,12.85 c 21.88485,-0.64586 43.31499,15.7025 47.2,37.7 6.1,26.12 -15.04,54.19 -41.8,55.55 -23.04,2.68 -45.8,-14.73 -49.8,-37.45 -5.28,-23.76 11.35,-49.29 35.05,-54.45 3.09501,-0.8175 6.2236,-1.25773 9.35,-1.35 z"
       id="path36"
       style="fill:#f5e5c1"
       inkscape:connector-curvature="0" />
    <path
       d="m 859.04,737.34 c 12.66,-7.56 30.88,1.82 32.1,16.46 1.6,10.24 -5.46,20.58 -15.2,23.58 -11.3,4.04 -24.78,-3.68 -27.56,-15.24 -3.16,-9.48 2.2,-20.1 10.66,-24.8 z"
       id="path40"
       inkscape:connector-curvature="0"
       style="fill:#f5e5c1" />
    <path
       d="m 266.6,762.34 c 6,0 12,0 17.98,-0.04 0.2,26.5 0.02,53 0.1,79.5 -6.02,-0.02 -12.04,-0.02 -18.04,-0.04 0.08,-26.48 0.12,-52.94 -0.04,-79.42 z"
       id="path42"
       inkscape:connector-curvature="0"
       style="fill:#f5e5c1" />
    <path
       d="m 296.62,762.36 c 15.26,-0.02 30.52,-0.02 45.78,0 -0.02,26.46 0.04,52.92 -0.04,79.4 -15.24,0.04 -30.5,0 -45.74,0.02 0.08,-26.48 0.08,-52.94 0,-79.42 z"
       id="path44"
       inkscape:connector-curvature="0"
       style="fill:#f5e5c1" />
    <path
       d="m 355.68,762.38 c 2.92,-0.02 5.86,-0.06 8.78,-0.06 -0.02,26.44 -0.12,52.9 -0.08,79.38 -2.92,0.02 -5.86,0.06 -8.78,0.1 0.14,-26.48 -0.02,-52.94 0.08,-79.42 z"
       id="path46"
       inkscape:connector-curvature="0"
       style="fill:#f5e5c1" />
    <path
       d="m 377.06,762.42 c 8.38,-0.12 16.76,-0.12 25.16,0.04 1.14,26.44 0.76,52.92 0.74,79.4 -8.84,-0.14 -17.7,-0.08 -26.54,-0.08 -0.44,-26.46 0.88,-52.9 0.64,-79.36 z"
       id="path48"
       inkscape:connector-curvature="0"
       style="fill:#f5e5c1" />
    <path
       d="m 411.8,762.38 c 3.78,-0.02 7.58,-0.04 11.36,-0.02 -0.08,26.46 -0.1,52.92 0.02,79.38 -3.78,0.02 -7.56,0.02 -11.32,0.04 -0.24,-26.48 -0.12,-52.94 -0.06,-79.4 z"
       id="path50"
       inkscape:connector-curvature="0"
       style="fill:#f5e5c1" />
    <path
       d="m 288.6,969.96 c 8.68,-2.04 17.64,-1.94 26.4,-0.5 -0.6,18.18 -0.1,36.36 -0.34,54.54 l -25.9,0 c -0.04,-18.02 0.18,-36.04 -0.16,-54.04 z"
       id="path60"
       inkscape:connector-curvature="0"
       style="fill:#f5e5c1" />
    <path
       d="m 419.24,970.88 c 8.46,-2.78 17.56,-2.56 26.12,-0.28 -0.1,17.8 -0.04,35.6 -0.04,53.4 l -25.92,0 c -0.12,-17.7 0.18,-35.42 -0.16,-53.12 z"
       id="path62"
       inkscape:connector-curvature="0"
       style="fill:#f5e5c1" />
    <path
       d="m 246.46,971.4 c 8.66,-1.52 17.52,-1.52 26.16,0.16 -0.1,17.48 0,34.96 -0.06,52.44 l -26.14,0 c 0,-17.54 -0.06,-35.06 0.04,-52.6 z"
       id="path64"
       inkscape:connector-curvature="0"
       style="fill:#f5e5c1" />
    <path
       d="m 330.8,970.84 c 8.66,-2.36 17.76,-2.44 26.38,0.04 0.42,17.7 0.16,35.42 0.22,53.12 l -26.7,0 c 0.08,-17.72 -0.14,-35.44 0.1,-53.16 z"
       id="path66"
       inkscape:connector-curvature="0"
       style="fill:#f5e5c1" />
    <path
       d="m 375.94,970.44 c 8.46,-1.94 17.26,-2.04 25.7,0.08 -0.54,17.84 1.36,35.64 0.7,53.48 l -26.92,0 c 0,-17.86 0.1,-35.72 0.52,-53.56 z"
       id="path68"
       inkscape:connector-curvature="0"
       style="fill:#f5e5c1" />
  </g>
</svg>
