<?xml version="1.0" encoding="UTF-8" standalone="no"?>
<svg
   xmlns:dc="http://purl.org/dc/elements/1.1/"
   xmlns:cc="http://creativecommons.org/ns#"
   xmlns:rdf="http://www.w3.org/1999/02/22-rdf-syntax-ns#"
   xmlns:svg="http://www.w3.org/2000/svg"
   xmlns="http://www.w3.org/2000/svg"
   xmlns:sodipodi="http://sodipodi.sourceforge.net/DTD/sodipodi-0.dtd"
   xmlns:inkscape="http://www.inkscape.org/namespaces/inkscape"
   width="1280"
   height="1280"
   viewBox="0 0 1024 1024"
   version="1.1"
   id="svg2"
   inkscape:version="0.48.1 "
   sodipodi:docname="kill_heavies.svg">
  <metadata
     id="metadata34">
    <rdf:RDF>
      <cc:Work
         rdf:about="">
        <dc:format>image/svg+xml</dc:format>
        <dc:type
           rdf:resource="http://purl.org/dc/dcmitype/StillImage" />
      </cc:Work>
    </rdf:RDF>
  </metadata>
  <defs
     id="defs32" />
  <sodipodi:namedview
     pagecolor="#ffffff"
     bordercolor="#666666"
     borderopacity="1"
     objecttolerance="10"
     gridtolerance="10"
     guidetolerance="10"
     inkscape:pageopacity="0"
     inkscape:pageshadow="2"
     inkscape:window-width="1920"
     inkscape:window-height="1018"
     id="namedview30"
     showgrid="false"
     fit-margin-top="0"
     fit-margin-left="0"
     fit-margin-right="0"
     fit-margin-bottom="0"
     inkscape:zoom="0.6609375"
     inkscape:cx="466.00473"
     inkscape:cy="640"
     inkscape:window-x="-8"
     inkscape:window-y="-8"
     inkscape:window-maximized="1"
     inkscape:current-layer="layer1"
     inkscape:snap-page="true" />
  <g
     inkscape:groupmode="layer"
     id="layer1"
     inkscape:label="background">
    <rect
       style="fill:#3e3e3e;fill-opacity:1;fill-rule:nonzero;stroke:none"
       id="rect3004"
       width="1280"
       height="1280"
       x="0"
       y="0"
       transform="scale(0.8,0.8)" />
  </g>
  <g
     inkscape:groupmode="layer"
     id="layer2"
     inkscape:label="foreground">
    <path
       d="m 916.65,30.6 c -3.54688,0.009 -7.06499,0.495 -10.45,1.4 -9.46,2.46 -19.46,6.66 -24.6,15.5 -9.18,15.06 -12.51,32.68 -19.05,48.9 -5,12.24 -8.35,25.24 -15.65,36.4 -6.96,10.9 -12.44,23.03 -22.2,31.85 -11.46,13.52 -26.68,22.85 -41.4,32.35 -27.06,13.98 -53.16,29.63 -79.3,45.25 -10.4,6.7 -20.11,14.37 -30.25,21.45 -9.08,6.08 -15.15,15.38 -22.45,23.3 -7.74,9.32 -16.26,18.01 -23.2,27.95 28.08,6.42 56.02,13.6 83.3,22.9 6.02,-12.9 13.67,-24.91 21.65,-36.65 11.14,-16.66 27.24,-29.14 43.2,-40.9 19.58,-15.26 42.2,-25.79 63.2,-38.85 24.4,-15.16 51.42,-27.41 70.9,-49.15 9.38,-9.56 14.15,-22.25 19.75,-34.15 9.56,-21.18 14.2,-44.17 17.4,-67.05 6.22,10.08 13.16,20.6 13.4,32.9 -1.52,32.54 -16.22,64.36 -40.5,86.2 -9.74,10.74 -22.62,17.55 -34.3,25.85 -23.78,14.34 -47.72,28.45 -71.8,42.25 -26.1,13.38 -46.15,35.67 -63.35,58.95 -5.88,9.52 -10.03,20.01 -14.25,30.35 6.42,2.5 12.8,5.2 19.1,8 8.62,-19.54 18.31,-39.09 32.75,-55.05 16.62,-15.96 36.37,-28.13 56.25,-39.55 26.98,-16.78 54.76,-32.64 79.4,-52.8 22.3,-17.84 37.92,-43.11 45.7,-70.45 3.56,-12.22 6.22,-24.97 5.2,-37.75 -0.74,-8.08 -5.58,-14.85 -9.2,-21.85 -6.78,-11.86 -12.31,-24.58 -21.05,-35.2 -6.85499,-8.325 -17.55938,-12.37812 -28.2,-12.35 z m -8.8,18.25 c 5.51826,-0.26485 11.22499,2.22375 14.25,7.05 5.66,7.84 3.3,20.1 -5.3,24.8 -8.48,5.4 -20.88,0.64 -24,-8.8 -3.32,-7.7 0.82,-16.97 7.9,-20.95 2.1875,-1.2875 4.6417,-1.97961 7.15,-2.1 z"
       id="path6"
       style="fill:#f5e5c1"
       inkscape:connector-curvature="0" />
    <path
       d="m 476.8,318.25 c -9.46848,-0.0215 -18.94499,0.1225 -28.4,0.45 -64.24,2.24 -128.36,12.98 -189.2,33.9 -38.8,13.5 -76.42,31.04 -110.1,54.7 -29.88,20.96 -56,47.62 -74.8,79 -19.38,32.68 -29.88,71.58 -24.6,109.6 7.1,42.04 31.98,79.02 62.6,107.8 48.74,45.28 110.5,74.05 173.8,92.65 63.5,18.46 129.86,26.3 195.9,25.9 63.22,-0.84 126.58,-9.2 187.2,-27.5 59.14,-17.98 116.7,-44.99 163.2,-86.35 26.22,-23.48 48.61,-52.26 60.65,-85.6 8.84,-23.8 8.97,-50.04 4.65,-74.8 C 890.02,504.2 864.8,465.24 833,434.9 788.78,391.68 731.26,365.12 672.9,346.8 609.4975,327.2525 543.07933,318.40038 476.8,318.25 z m -1.8,12.5 c 81.99082,-0.29261 164.56875,12.85626 240.75,43.7 51.18,21.14 100.49,50.79 135.65,94.35 24.18,29.88 39.6,68.14 37,107 -1.92,30.54 -14.25,59.74 -32.45,84.1 -24.54,33.06 -58.07,58.38 -93.85,78.2 -81.22,44.24 -174.25,62.78 -266.05,65.7 -20.68,1.78 -41.34,-0.48 -62,-1.1 -80.28,-5.26 -160.8,-23.01 -232.6,-60.15 C 157.27,719.27 115.46,687.99 89.2,644.75 70.56,614.37 62.16,577.29 69,542.05 c 6.96,-38.02 29.6,-71.42 57.3,-97.6 32.4,-30.4 71.52,-52.73 112.4,-69.65 69.64,-28.46 144.9,-41.76 219.9,-43.8 5.45875,-0.1375 10.93395,-0.2305 16.4,-0.25 z"
       id="path10"
       style="fill:#f5e5c1"
       inkscape:connector-curvature="0" />
    <path
       d="m 257.4,387.44 c 65.38,-26.94 136.16,-39.14 206.64,-40.78 80.26,-1.44 161.44,10.76 235.88,41.54 -5.02,46.64 -11.8,93.08 -17.48,139.64 -6.78,-3.5 -13.66,-6.76 -20.6,-9.92 4.22,-16.3 3.66,-33.28 4.98,-49.94 0.22,-19.72 0.48,-39.8 -4.4,-59.04 -3.94,-10.24 -17.76,-9.52 -25.26,-3.76 -15.82,10.7 -33.64,19.38 -53.12,19.66 -12.8,1.12 -25.36,-1.66 -38.06,-2.5 -10.38,-0.86 -20.1,-4.88 -30.18,-7.12 -10.78,-2.96 -21.82,-10.88 -33.24,-6.42 -6.16,2.14 -8.26,9.3 -7.88,15.22 0.52,10.14 2.02,20.22 4.28,30.12 1.8,8.34 1.38,16.96 3.02,25.34 -13.4,-0.76 -26.68,1.58 -40.06,1.3 -61.12,3.8 -122.06,18.52 -176.66,46.66 -28.82,15.12 -56.2,33.74 -78.62,57.5 -3.6,-50.56 -6.64,-101.14 -10.46,-151.68 24.6,-19.18 52.52,-33.78 81.22,-45.82 z"
       id="path14"
       inkscape:connector-curvature="0"
       style="fill:#f5e5c1" />
    <path
       d="m 725.06,399.68 c 5.36,2.84 10.72,5.7 16.08,8.56 -4.48,49.22 -9.34,98.4 -13.96,147.6 -6.48,-4.86 -13.1,-9.54 -20,-13.76 5.04,-47.56 11.84,-94.96 17.88,-142.4 z"
       id="path16"
       inkscape:connector-curvature="0"
       style="fill:#f5e5c1" />
    <path
       d="m 603.46,435.84 c 17.26,-3.24 31.62,-13.78 46.62,-22.16 5.06,27.14 3.72,55.04 1.44,82.42 -0.68,10.9 -3.54,21.46 -5.84,32.08 -2.86,15.38 -10.44,29.48 -19.18,42.28 -8.94,13.34 -22.54,22.7 -36.76,29.64 -17.18,8.24 -37.18,9.72 -53.2,20.42 -8.56,7.46 -15.78,16.88 -20.38,27.3 -4.88,14.8 -7.3,30.32 -11.34,45.36 -4.76,13.98 -11.58,27.4 -21.14,38.72 -8.72,10.46 -17.6,21.16 -29.1,28.68 -12.94,7 -26.58,12.88 -40.76,16.9 -9.2,2.36 -18.58,-0.3 -27.76,-1.32 -15.72,-1.74 -31.46,-3.7 -46.8,-7.68 11.1,-10.72 25.82,-15.98 40.12,-20.9 14.04,-5.66 28.32,-12.12 39.14,-23.04 8.4,-7.3 14.46,-16.82 19.44,-26.66 6.1,-13.4 6.26,-28.5 11.14,-42.3 4.34,-14.16 12.22,-27.34 23.12,-37.44 10.94,-9.72 24.16,-16.26 37.1,-22.86 15.38,-8.22 32.34,-12.7 48.32,-19.54 12.9,-6.16 24.56,-15.84 31.44,-28.52 7.78,-14.26 13.36,-29.76 16.3,-45.74 3.74,-21.8 -0.22,-43.84 -1.92,-65.64 z"
       id="path18"
       inkscape:connector-curvature="0"
       style="fill:#f4722b" />
    <path
       d="m 488.52,419.94 c 17.1,6.72 34.68,12.14 52.78,15.52 5.04,17.66 4.48,36.24 3.38,54.4 -0.7,14.08 -7.06,26.94 -13.48,39.2 -6.06,9.02 -13.92,16.76 -22.06,23.92 -17.08,12.88 -36.74,21.78 -56.48,29.74 -11.74,6.6 -25.18,11.4 -33.92,22.14 -9.58,11.1 -12.96,25.8 -18.5,39.04 -7.7,21.88 -13.14,45.58 -28.92,63.42 -15.74,15.26 -38.04,19.06 -57.1,28.46 -10.5,4.42 -19.8,11.16 -27.78,19.24 -20.38,-6.48 -40.46,-13.86 -60.38,-21.6 -3.26,-0.52 -0.72,-3.82 0.7,-4.76 15.48,-13.8 35.5,-21.12 55.18,-26.58 19.5,-5.96 38.14,-15.4 53.94,-28.32 12.3,-9.82 20.22,-24.5 23.18,-39.82 3.88,-16.66 8.02,-34.16 19.42,-47.48 7.36,-7.5 15.54,-14.84 25.72,-18.16 13.5,-4.36 26.86,-9.2 40.32,-13.74 15.12,-7.06 30.26,-16.08 39.44,-30.48 12.04,-15.1 12.58,-35.54 10.58,-53.88 -1.68,-16.8 -5.92,-33.3 -6.02,-50.26 z"
       id="path20"
       inkscape:connector-curvature="0"
       style="fill:#f4722b" />
    <path
       d="m 816.64,467.72 c 25.36,28.36 42.52,65.66 40.74,104.26 -0.88,38.32 -20.42,73.64 -46.04,101.16 -3.9,-16.14 -10.32,-31.6 -18.62,-45.96 -1.78,-2.64 -2.38,-5.72 -1.62,-8.82 8.54,-50.2 16.92,-100.44 25.54,-150.64 z"
       id="path22"
       inkscape:connector-curvature="0"
       style="fill:#f5e5c1" />
    <path
       d="m 253.66,555.68 c 67.46,-42.32 148.24,-60.22 227.32,-59.38 -2.34,16.4 -14.16,30.26 -28.26,38.26 -12.8,8.78 -28.2,12.1 -42.66,17.14 -18,4.1 -33.22,15.52 -44.98,29.4 -10.36,14.4 -15.36,31.72 -19.08,48.84 -2.48,11.7 -7.7,23.24 -16.82,31.28 -13.98,11.52 -30.1,20.62 -47.22,26.52 -25.22,8 -52.9,15.82 -70.26,37.26 -21.18,-12.14 -41.18,-26.38 -58.96,-43.14 14.18,-54.04 54.8,-96.82 100.92,-126.18 z"
       id="path24"
       inkscape:connector-curvature="0"
       style="fill:#f5e5c1" />
    <path
       d="m 658.54,535.3 c 30.72,15.1 60.32,33.4 84.58,57.74 25.94,25.54 46.28,57.54 54.68,93.2 -30.48,27.4 -66.76,47.64 -104.64,62.9 -83.08,33.2 -173.96,42.86 -262.82,37.42 15.98,-6.28 32.72,-12.7 44.96,-25.22 15.28,-15.1 29.94,-31.78 37.88,-52.02 8.12,-18.38 9.72,-38.72 16.24,-57.6 5.46,-9.88 12.28,-20.48 23.32,-24.7 9.74,-4.1 20.5,-4.98 30.06,-9.64 19.94,-6.52 38.86,-18.04 51.64,-34.92 11.32,-13.76 18.86,-30.24 24.1,-47.16 z"
       id="path26"
       inkscape:connector-curvature="0"
       style="fill:#f5e5c1" />
    <path
       d="m 785.56,769.54 c 25.78,-15.62 50.46,-33.8 70.16,-56.78 -6.42,27.34 -13.52,54.52 -21.14,81.56 -4.74,16.28 -8.5,33.06 -16.04,48.34 -15.6,26.12 -37.92,47.66 -62.5,65.3 -55.68,39.42 -122.2,60.68 -188.98,71.64 -43.5,6.38 -87.68,10.26 -131.58,6.32 -31.3,-2.66 -62.64,-6.16 -93.32,-13.12 -35.34,-7.96 -70.7,-17.38 -103.32,-33.46 -22.02,-12.04 -44.1,-24.5 -62.92,-41.3 -32.08,-26.04 -59.04,-60.8 -67.74,-101.92 -6.24,-26.3 -12.98,-52.5 -19.34,-78.8 2.78,3.12 5.4,6.4 8.58,9.16 29.98,24.22 63.6,43.78 98.86,59.26 2.34,1.3 5.9,2 6.02,5.3 6.94,35.54 13.78,71.1 20.7,106.66 1.3,5.84 1.48,12.02 3.78,17.6 12.08,7.68 25.18,13.74 38.74,18.34 -4.34,-42.42 -9.34,-84.78 -14.54,-127.1 7.08,2.28 14.22,4.4 21.3,6.7 4.18,36.48 8.94,72.88 13.36,109.32 1.04,6.32 0.96,12.9 2.94,19.02 7.44,3.86 15.84,5.28 23.78,7.76 -5.04,-43.12 -9.64,-86.28 -14.66,-129.38 48.66,11.22 98.32,18.24 148.26,19.76 28.06,2.64 56.18,0.08 84.22,-1.26 35.46,-2.66 70.8,-7.34 105.54,-15 -2.34,41.88 -4.98,83.74 -7.12,125.62 40.92,-10.52 79.92,-28.06 115.18,-51.34 3.84,-2.7 8.02,-5.1 11.16,-8.66 2.12,-4.06 2.66,-8.7 3.58,-13.12 5.72,-32.76 12.08,-65.44 19.44,-97.88 0.3,-4.4 4.3,-6.48 7.6,-8.54 z"
       id="path28"
       inkscape:connector-curvature="0"
       style="fill:#f5e5c1" />
  </g>
</svg>
