<?xml version="1.0" encoding="UTF-8" standalone="no"?>
<svg
   xmlns:dc="http://purl.org/dc/elements/1.1/"
   xmlns:cc="http://creativecommons.org/ns#"
   xmlns:rdf="http://www.w3.org/1999/02/22-rdf-syntax-ns#"
   xmlns:svg="http://www.w3.org/2000/svg"
   xmlns="http://www.w3.org/2000/svg"
   xmlns:sodipodi="http://sodipodi.sourceforge.net/DTD/sodipodi-0.dtd"
   xmlns:inkscape="http://www.inkscape.org/namespaces/inkscape"
   width="1280"
   height="1280"
   viewBox="0 0 1024 1024"
   version="1.1"
   id="svg2"
   inkscape:version="0.48.1 "
   sodipodi:docname="simulburn_scouts.svg">
  <metadata
     id="metadata22">
    <rdf:RDF>
      <cc:Work
         rdf:about="">
        <dc:format>image/svg+xml</dc:format>
        <dc:type
           rdf:resource="http://purl.org/dc/dcmitype/StillImage" />
      </cc:Work>
    </rdf:RDF>
  </metadata>
  <defs
     id="defs20" />
  <sodipodi:namedview
     pagecolor="#ffffff"
     bordercolor="#666666"
     borderopacity="1"
     objecttolerance="10"
     gridtolerance="10"
     guidetolerance="10"
     inkscape:pageopacity="0"
     inkscape:pageshadow="2"
     inkscape:window-width="1920"
     inkscape:window-height="1018"
     id="namedview18"
     showgrid="false"
     fit-margin-top="0"
     fit-margin-left="0"
     fit-margin-right="0"
     fit-margin-bottom="0"
     inkscape:zoom="0.6609375"
     inkscape:cx="640"
     inkscape:cy="640"
     inkscape:window-x="-8"
     inkscape:window-y="-8"
     inkscape:window-maximized="1"
     inkscape:current-layer="svg2" />
  <path
     d="m 0,0 1024,0 0,1024 L 0,1024 0,0 z"
     id="path4"
     inkscape:connector-curvature="0"
     style="fill:#3e3e3e" />
  <path
     d="m 139.66,32.54 c -1.9,-3.52 -0.98,-7.28 1.32,-10.34 68.6,42.42 137.76,83.9 206.32,126.38 28.22,17.48 55.9,35.82 84.32,52.96 6.2,-9 10.52,-19.04 14.76,-29.04 12.12,-23.06 20.92,-47.64 31.96,-71.2 4.28,2.34 8.46,4.9 12.16,8.1 31.08,26.48 63.72,51.04 95.86,76.16 7.56,5.6 14.54,11.88 21.34,18.34 -10.06,12.92 -19.98,25.96 -29.3,39.44 -11.88,-12.16 -24.94,-23.06 -38.32,-33.5 -15.6,-14.32 -32.82,-26.96 -46.54,-43.24 0.54,13.94 -3.5,27.38 -5.92,40.94 -4.2,22.84 -9,45.56 -13.16,68.4 C 382.54,214.88 290.8,153.54 198.68,92.76 c 5.32,14.58 9.76,29.56 17.1,43.3 18.42,36.36 37.36,72.46 54.7,109.36 15.88,33.8 32.14,67.42 47.86,101.28 -59.16,-7.18 -118.16,-15.96 -177.38,-22.5 0.06,1.3 0.18,3.9 0.24,5.2 13.18,8.3 23.34,20.5 36.3,29.16 34.82,23.9 69.36,48.24 104.48,71.72 -8.16,0.08 -15.36,4.22 -22.88,6.8 -13.5,4.94 -26.84,10.36 -40.5,14.86 -13.02,-15.74 -28.04,-29.7 -41.86,-44.74 -37.7,-39.6 -78.78,-75.8 -117.5,-114.36 -4.78,-3.36 -0.82,-10.56 4.58,-9.32 22.74,0.06 45.44,1.62 68.18,1.86 33.64,0.66 67.32,3.5 100.92,0.88 C 201.7,201.74 170.82,117.1 139.66,32.54 z"
     id="path6"
     inkscape:connector-curvature="0"
     style="fill:#f5e5c1" />
  <path
     d="m 809.3,117.3 c -4.9025,0.1775 -9.81,0.9 -14.55,1.9 -9.62,3.12 -18.85,8.4 -25.35,16.3 -11,13.36 -20.82,27.7 -28.9,43 -18.82,35.66 -44.31,67.14 -70.25,97.8 -10.44,12.28 -19.86,25.43 -30.7,37.35 -10.34,9.66 -20.99,19 -31.75,28.2 -29.46,22.76 -59.85,44.28 -90.65,65.2 -15.54,11.4 -33.57,18.49 -50.45,27.55 -28.26,13.8 -54.64,31.03 -82.4,45.75 -18.18,9.06 -36.18,18.47 -54.4,27.45 -17.92,8.18 -36.17,15.74 -54.25,23.6 -24.1,10.78 -49.14,19.16 -73.7,28.8 -25.16,10.06 -51.71,16.42 -76.55,27.3 -12.22,6.1 -23.45,13.91 -35.05,21.05 -8.96,6.2 -19.36,11.04 -25.9,20.1 -5.66,7.84 -13.1,14.84 -15.8,24.4 -3.22,10.72 -5.69,21.68 -7.65,32.7 -4.7,21.42 -2.63,44.48 6.45,64.5 3.02,7.48 5.26,15.5 10.4,21.9 11.44,14.26 22.41,30.8 40.45,37.2 11.16,3.04 22.04,8.05 33.8,7.95 11.96,0 23.92,1.79 35.9,1.05 20.2,-0.96 40.01,-5.35 59.55,-10.25 19.24,-6.86 39.23,-13.97 54.45,-28.15 15.48,-12.4 30.14,-26.15 41.3,-42.65 6.46,-7.98 11.9,-16.72 15.4,-26.4 5.3,-14.66 15.55,-27.4 17.85,-43.1 1.6,-11.32 4.63,-22.37 6.25,-33.65 0.44,-15.84 1.98,-31.63 5.7,-47.05 0.78,-13.88 5.06,-27.22 11,-39.7 4.86,-8.4 13,-14.28 21.5,-18.6 30.98,-16.66 61.02,-34.9 91.8,-51.9 16.6,-8.76 33.28,-17.51 49.9,-26.25 16.86,-8.36 31.56,-20.25 47.3,-30.45 16.84,-10.9 32.05,-24.02 47.95,-36.2 14.34,-10.88 27.15,-23.59 40.65,-35.45 7.56,-6.54 13.32,-14.76 19.7,-22.4 22.98,-27.2 39.04,-59.22 55.2,-90.7 7.56,-16.34 22.64,-27.4 37.5,-36.7 14,-7.68 30.51,-8.86 46.15,-7.4 5.24,-11.74 11.15,-24.06 9.45,-37.3 -1.18,-14.22 -8.03,-30.62 -22.75,-35.3 -4.75,-1.25 -9.6475,-1.6275 -14.55,-1.45 z M 153.4,606.8 c -5.06,6.52 -10.34,12.95 -14.1,20.35 -5.36,10.44 -12.29,20.1 -16.35,31.2 -4.72,13.36 -11.35,26.01 -14.35,39.95 9.6,8.64 22.32,12.59 32.1,20.95 9.8,6.8 15.91,17.22 22.65,26.8 -10.5,-7.16 -20.34,-16.26 -33.2,-18.8 -11.06,-2.36 -22.67,-5.53 -33.95,-2.85 -13.56,10.84 -16.01,29.17 -20.65,44.85 -3.46,-3.68 -5.47,-8.36 -5.75,-13.4 -1.52,-15.92 0.82,-31.92 3.9,-47.5 -6.7,-6.8 -10.46,-15.58 -14.6,-24 -5.44,-10.04 -5.57,-21.77 -6.75,-32.85 7.02,8.08 10.09,18.79 17.55,26.55 4,4.28 9.16,7.11 14.2,9.95 7.14,-12.68 13.99,-25.58 22.25,-37.6 12.92,-17.16 27.81,-33.46 47.05,-43.6 z"
     id="path8"
     style="fill:#f4722b"
     inkscape:connector-curvature="0" />
  <path
     d="m 812.9,213.44 c 9.82,-2.1 20.9,-1.84 29.28,4.36 9.16,6.82 10.82,19.1 11.96,29.68 1.06,25.52 1.58,51.08 1.18,76.62 -2.1,21.76 -2.42,43.88 -8.4,65.06 -9.08,42.04 -20.56,83.54 -32.96,124.72 -6.84,17.98 -12.32,36.5 -20.06,54.1 -12.6,23.04 -26.68,45.24 -39.8,67.98 -6.84,12.66 -17.2,22.78 -26.28,33.78 -11.76,13.56 -23.02,27.58 -35.08,40.9 -17.78,18.22 -36.02,36 -53.88,54.16 -7,7.16 -15.22,12.9 -23.16,18.94 -26.7,19.92 -53.08,40.3 -79.92,60.02 -15.24,9.64 -29.02,22.14 -46.42,27.86 -13.24,4.76 -25.96,11.78 -40.26,12.82 -16.36,1.52 -32.6,5.7 -49.12,4 -14.48,-1.48 -29.18,-0.54 -43.56,-2.78 -17.1,-4.62 -34.82,-7.6 -51.06,-14.86 -14.46,-8.06 -30.92,-12.1 -44.74,-21.34 -6.44,-5.52 -4.9,-16.44 2.34,-20.64 28.68,-17.44 63.84,-23.5 89.16,-46.62 6.56,-6.76 14.12,-12.86 19.22,-20.88 7.96,-16.2 13.88,-33.46 17.56,-51.14 1.78,-16.7 4.54,-33.56 2.68,-50.38 -1.52,-15.9 -0.66,-31.88 -1.16,-47.82 -0.42,-11.48 2.38,-22.7 2.84,-34.12 0.52,-14.46 11.58,-26 23.34,-33.08 37.84,-20.78 74.54,-43.6 113.08,-63.1 15.42,-8.54 31.74,-15.56 46.06,-25.98 17.62,-12.38 36.14,-23.54 52.88,-37.18 7.4,-5.9 14.88,-11.74 22.34,-17.58 16.26,-12.26 30.62,-26.76 45.96,-40.1 21.08,-22.86 39.36,-48.24 54.6,-75.34 7.64,-14.44 15,-29.02 22.7,-43.42 3.3,-6.34 8.78,-11.12 14.18,-15.64 7.32,-5.68 15.14,-11.42 24.5,-13 z"
     id="path10"
     inkscape:connector-curvature="0"
     style="fill:#f5e5c1" />
  <path
     d="m 674.44,214.26 c 6.72,-2.86 18.22,-0.56 18.56,8.14 -7.44,11.22 -16.78,21.06 -24.8,31.88 -13.42,17.74 -29.7,32.98 -44.78,49.26 -6.46,6.88 -12.88,13.84 -20.4,19.6 -33.48,27.04 -68.68,51.92 -104.96,75.06 -31.96,16.84 -64.44,32.66 -96.54,49.24 -26,14.46 -53.12,26.78 -79.52,40.46 -52.1,23.5 -105.12,44.98 -159.2,63.52 -4.32,1.3 -10.72,3.9 -13.56,-1.18 0.86,-8.74 7.84,-15.4 13.12,-21.96 12.7,-14.24 31.8,-18.64 48.72,-25.64 31.58,-12.38 63.2,-24.66 94.78,-37.04 54.56,-25.5 108.64,-52.02 162.24,-79.5 22,-13.28 43.84,-26.86 65.64,-40.5 12.12,-9.04 23.18,-19.46 34.98,-28.92 13.16,-10.82 24,-24.08 35.72,-36.38 13.7,-15.76 24.76,-33.64 38.22,-49.62 8.74,-8.32 20.34,-13.08 31.78,-16.42 z"
     id="path12"
     inkscape:connector-curvature="0"
     style="fill:#f5e5c1" />
  <path
     d="m 857.18,515.36 c 30.18,44.9 60.14,89.98 90.08,135.06 -31.2,6.36 -62.98,9.5 -94.34,14.9 -2.42,0.6 -4.8,1.3 -7.14,2.06 36.74,75.44 73.84,150.7 110.76,226.04 4.1,9.32 9.8,18 12.92,27.72 -3.96,2.9 -9,2.52 -13.42,1.06 -78.44,-23.36 -156.94,-46.48 -235.36,-69.88 0.14,47.04 1.12,94.06 1.12,141.1 -71.34,-26.74 -142.64,-53.62 -213.9,-80.58 9.48,-5.76 20.12,-9.34 29.42,-15.4 8.8,-6.66 16.92,-14.18 25.56,-21.04 47.4,28.08 94,57.54 141.02,86.26 -9.04,-56.48 -18.74,-112.86 -27.82,-169.34 86.6,33.88 173.32,67.52 259.94,101.4 -44.84,-85.34 -89.8,-170.62 -134.62,-255.98 39.1,-0.4 78.18,-1.06 117.26,-1.5 -27.94,-20.5 -55.6,-41.36 -83.52,-61.88 3.24,-6.92 7.12,-13.68 8.62,-21.26 2.66,-13.48 8.74,-25.9 13.42,-38.74 z"
     id="path14"
     inkscape:connector-curvature="0"
     style="fill:#f5e5c1" />
</svg>
