<?xml version="1.0" encoding="UTF-8" ?>
<!DOCTYPE svg PUBLIC "-//W3C//DTD SVG 1.1//EN" "http://www.w3.org/Graphics/SVG/1.1/DTD/svg11.dtd">
<svg width="512pt" height="512pt" viewBox="0 0 512 512" version="1.1" xmlns="http://www.w3.org/2000/svg">
<path fill="#3e3e3e" opacity="1.00" d=" M 0.00 0.00 L 512.00 0.00 L 512.00 512.00 L 0.00 512.00 L 0.00 0.00 Z" />
<path fill="#f3722b" opacity="1.00" d=" M 69.19 22.38 C 72.09 21.03 74.93 21.80 77.30 23.76 C 84.10 26.43 88.27 32.73 92.95 37.99 C 112.06 63.82 131.30 89.73 146.83 117.93 C 149.19 117.07 151.46 115.91 153.91 115.31 C 157.21 114.88 160.46 115.89 163.64 116.60 C 164.90 121.34 167.41 125.60 168.78 130.31 C 170.23 130.35 171.70 130.40 173.16 130.49 C 172.17 130.64 170.19 130.94 169.20 131.09 C 171.46 141.98 176.59 152.25 177.74 163.42 C 177.13 163.73 175.89 164.35 175.27 164.65 C 175.43 165.96 175.58 167.28 175.74 168.59 C 175.22 168.58 174.19 168.56 173.68 168.55 C 171.86 155.00 167.28 142.08 162.38 129.38 C 160.80 125.49 158.73 121.80 156.11 118.50 C 153.34 120.16 150.17 120.78 147.26 119.10 C 151.39 126.29 153.69 134.35 156.90 141.96 C 161.67 151.45 165.62 161.32 169.62 171.15 C 170.88 174.12 171.68 177.27 171.68 180.51 C 170.04 181.88 168.21 183.00 166.24 183.81 C 166.33 185.67 166.46 187.54 166.61 189.40 C 163.28 189.95 160.89 187.37 158.39 185.64 C 151.04 180.13 142.94 175.72 135.41 170.48 C 123.01 163.14 110.48 156.03 97.75 149.27 C 90.72 145.47 83.02 143.13 75.27 141.32 C 77.15 149.84 78.03 158.56 80.43 166.96 C 82.17 173.29 82.29 180.03 84.89 186.13 C 86.28 189.17 86.41 192.54 86.38 195.83 C 93.05 193.81 100.03 193.37 106.88 192.35 C 108.63 192.14 110.41 190.78 110.22 188.86 C 110.39 181.34 110.76 173.80 110.22 166.28 C 111.72 166.26 113.21 166.25 114.71 166.24 C 114.62 174.39 114.45 182.54 114.23 190.70 C 121.17 190.53 128.09 190.16 135.01 189.79 C 142.67 190.90 150.34 188.76 158.01 190.06 C 164.30 189.90 170.42 191.36 176.65 191.87 C 175.84 192.33 175.03 192.80 174.23 193.27 C 172.42 193.25 170.61 193.22 168.80 193.19 C 168.58 194.25 168.37 195.31 168.16 196.38 C 149.98 196.61 131.79 196.53 113.63 197.61 C 113.47 201.37 113.16 205.13 112.64 208.86 C 126.58 205.30 140.59 201.32 155.04 200.60 C 159.54 200.91 164.03 201.43 168.54 201.49 C 167.21 204.37 163.84 203.53 161.28 203.85 C 144.81 205.12 128.61 208.55 112.72 212.99 C 111.72 218.81 111.27 224.71 111.31 230.61 C 124.16 223.10 137.49 216.47 150.71 209.64 C 155.28 207.34 159.88 204.78 165.10 204.40 C 165.36 205.01 165.88 206.23 166.14 206.84 C 163.31 209.01 161.01 211.84 157.95 213.69 C 145.29 220.08 132.49 226.19 119.95 232.81 C 116.50 235.12 111.68 236.56 109.87 240.55 C 108.95 252.05 107.16 263.47 106.51 275.00 C 106.34 278.38 105.43 281.80 106.33 285.15 C 111.17 276.57 117.17 268.74 122.36 260.38 C 124.84 256.55 126.84 252.36 129.93 248.97 C 140.06 239.00 147.99 227.02 158.37 217.26 C 162.68 213.34 166.31 208.50 171.41 205.55 C 173.35 204.15 175.35 205.46 177.07 206.48 C 168.29 213.20 161.63 222.12 154.29 230.28 C 148.48 236.77 142.55 243.20 137.33 250.19 C 134.62 253.86 132.48 257.99 129.15 261.18 C 125.73 264.56 123.44 268.84 120.97 272.92 C 116.48 280.62 111.81 288.22 107.58 296.08 C 106.50 297.09 105.40 298.09 104.27 299.05 C 102.55 299.65 100.02 301.39 98.77 299.16 C 97.60 297.67 100.07 296.87 100.68 295.80 C 99.36 295.30 98.05 294.80 96.74 294.31 C 95.20 283.73 95.70 272.96 93.52 262.45 C 92.99 262.13 91.93 261.48 91.40 261.16 C 91.31 259.51 91.21 257.85 91.10 256.21 C 89.67 257.23 87.08 257.76 87.33 259.98 C 87.71 268.75 89.74 277.37 91.20 286.02 C 91.67 288.15 90.84 290.24 90.79 292.36 C 92.05 294.57 93.71 296.51 95.14 298.60 C 92.81 297.57 90.43 296.66 88.06 295.73 C 84.57 294.33 81.84 291.36 78.07 290.60 C 75.39 290.75 72.85 291.97 70.11 291.76 C 70.29 289.81 71.02 287.73 73.16 287.23 C 77.74 285.09 82.51 287.52 86.54 289.71 C 85.41 286.54 84.62 283.27 83.95 279.97 C 83.04 275.12 81.02 270.60 79.63 265.88 C 77.46 267.30 75.53 270.56 72.59 269.26 C 71.07 268.18 69.93 266.64 69.10 265.00 C 71.14 262.16 74.47 260.60 76.59 257.85 C 76.69 255.20 75.61 252.71 74.93 250.21 C 72.90 243.14 70.97 236.03 68.42 229.12 C 60.04 233.09 51.51 236.86 43.42 241.41 C 43.07 243.05 44.64 244.24 45.41 245.51 C 52.21 253.79 56.12 263.89 61.74 272.91 C 59.15 272.29 57.10 270.48 54.81 269.21 C 52.73 263.69 49.15 258.94 45.84 254.11 C 43.38 250.76 41.25 247.11 38.18 244.25 C 36.54 246.81 33.01 246.71 30.89 248.79 C 28.97 250.75 26.29 250.90 23.72 250.57 C 27.79 247.31 31.49 243.63 35.56 240.37 C 30.77 232.16 23.71 225.57 17.81 218.17 C 20.59 218.56 23.93 218.64 25.90 220.94 C 30.54 226.61 35.55 231.98 40.00 237.81 C 48.75 233.41 57.77 229.56 66.67 225.51 C 66.93 223.46 65.79 221.60 65.09 219.75 C 63.43 216.27 62.11 212.62 60.39 209.17 C 55.40 202.25 53.59 193.71 50.11 186.01 C 48.27 185.23 46.21 184.51 45.42 182.48 C 40.31 172.43 35.05 162.43 28.70 153.10 C 24.04 146.41 21.18 138.47 15.19 132.74 C 18.65 131.62 24.16 129.48 26.31 133.70 C 35.34 145.13 42.97 157.57 49.96 170.34 C 56.96 179.53 59.93 190.93 65.06 201.13 C 70.01 200.53 74.81 198.62 79.68 197.37 C 77.36 182.97 75.29 168.54 73.34 154.08 C 72.54 149.27 71.97 144.39 70.41 139.74 C 67.06 138.77 63.29 138.51 60.59 136.08 C 63.64 135.56 66.74 135.56 69.83 135.66 C 68.66 132.15 67.30 128.62 67.28 124.86 C 69.01 125.74 70.73 126.65 72.45 127.56 C 72.96 131.26 72.28 137.20 77.07 138.14 C 79.29 139.00 81.67 139.28 84.03 139.51 C 86.78 139.57 89.03 141.30 91.44 142.38 C 99.16 145.96 106.72 149.87 114.48 153.38 C 123.11 157.13 130.63 162.91 139.01 167.14 C 138.55 163.99 138.50 160.33 135.82 158.14 C 129.61 152.37 123.42 146.58 117.18 140.85 C 105.54 129.34 92.12 119.90 79.54 109.49 C 67.31 100.31 54.77 91.55 42.41 82.55 C 31.88 75.62 21.01 69.18 10.55 62.14 C 10.92 61.39 11.65 59.90 12.02 59.15 C 21.86 64.55 31.49 70.33 41.34 75.71 C 43.62 76.79 46.55 74.30 48.51 76.46 C 64.16 88.74 79.68 101.19 95.23 113.60 C 95.33 111.50 97.24 111.57 98.84 111.38 C 102.49 115.37 107.04 118.37 111.01 122.01 C 121.65 130.88 131.53 140.61 141.83 149.86 C 138.76 144.51 134.70 139.82 131.05 134.87 C 123.56 124.82 115.87 114.93 107.95 105.22 C 103.51 99.97 99.31 94.40 93.84 90.16 C 91.57 88.35 89.27 86.55 87.31 84.41 C 89.56 82.62 93.18 81.07 95.68 83.26 C 101.53 87.39 105.60 93.41 110.49 98.54 C 115.49 103.90 118.94 110.70 125.01 115.02 C 128.35 117.32 128.81 121.71 131.57 124.48 C 137.04 130.58 142.38 136.80 147.88 142.87 C 145.88 138.36 145.55 133.27 142.78 129.09 C 135.63 112.37 125.06 97.47 115.90 81.84 C 103.85 63.37 92.21 44.26 76.15 28.92 C 74.41 27.05 72.13 25.88 69.77 25.01 C 69.57 24.13 69.38 23.25 69.19 22.38 Z" />
<path fill="#f3722b" opacity="1.00" d=" M 338.37 24.27 C 340.43 22.67 342.85 21.86 345.45 22.50 C 345.45 23.86 345.51 25.23 345.39 26.59 C 343.69 28.81 341.22 30.25 339.14 32.06 C 330.74 39.31 322.65 46.94 315.06 55.04 C 313.67 56.03 314.37 57.74 315.18 58.85 C 318.03 63.23 319.97 68.08 322.01 72.87 C 326.82 70.12 330.42 65.02 336.15 64.09 C 333.21 69.14 327.78 71.98 323.76 76.07 C 326.44 82.73 329.34 89.33 332.75 95.66 C 340.70 87.66 348.52 79.51 357.06 72.13 C 359.95 69.91 362.70 67.28 366.26 66.16 C 366.63 66.89 367.37 68.37 367.74 69.10 C 362.42 73.68 356.68 77.75 351.54 82.53 C 345.74 88.24 339.87 93.87 334.49 99.98 C 340.10 112.49 345.55 125.09 351.73 137.32 C 356.09 137.14 360.45 137.15 364.81 137.33 C 361.69 129.27 359.51 120.73 354.61 113.48 C 353.09 111.63 353.37 109.22 353.48 107.00 C 354.74 107.46 356.32 107.61 356.95 109.00 C 360.12 113.79 362.49 119.05 364.70 124.34 C 365.12 124.48 365.97 124.76 366.39 124.90 C 363.24 115.89 362.10 106.36 359.57 97.18 C 358.60 93.31 356.54 89.76 356.19 85.74 C 358.93 87.47 360.45 90.55 363.33 92.10 C 366.09 107.89 372.92 122.66 375.12 138.58 C 376.20 145.74 377.86 152.81 378.67 160.02 C 379.98 165.65 380.65 171.51 383.10 176.80 C 387.31 177.09 391.54 177.13 395.74 177.57 C 395.69 173.19 395.86 168.80 395.51 164.43 C 395.77 164.47 396.29 164.54 396.55 164.58 C 396.98 150.03 398.62 135.52 399.47 120.98 C 400.01 113.28 400.75 105.60 401.69 97.94 C 402.92 86.85 395.33 77.28 395.28 66.32 C 396.26 66.43 397.25 66.53 398.24 66.64 C 399.12 70.41 399.96 74.19 400.21 78.06 C 400.49 80.61 400.76 83.70 403.23 85.14 C 403.83 80.93 404.26 76.70 404.66 72.47 C 405.66 72.46 406.67 72.44 407.68 72.43 C 408.03 81.64 404.99 90.81 406.68 100.00 C 407.97 105.10 409.60 110.11 411.12 115.16 C 413.04 124.99 414.16 134.96 416.00 144.82 C 416.64 149.06 416.48 153.37 416.72 157.65 C 416.19 157.64 415.12 157.62 414.59 157.61 C 414.86 149.99 412.90 142.58 412.30 135.03 C 410.87 125.05 409.65 114.76 405.65 105.45 C 404.17 113.89 404.68 122.49 403.92 131.00 C 403.37 149.01 402.51 167.01 402.36 185.04 C 401.30 199.01 401.69 213.02 401.34 227.02 C 401.58 235.11 400.41 243.15 400.38 251.24 C 399.01 250.11 397.69 248.93 396.40 247.72 C 396.58 239.47 396.76 231.22 395.84 223.01 C 395.61 208.01 395.73 193.00 395.76 177.99 C 391.68 179.69 387.19 179.58 383.03 180.98 C 384.97 187.94 385.44 195.19 387.43 202.13 C 389.05 208.24 388.58 214.65 389.92 220.82 C 391.26 226.88 390.13 233.23 392.09 239.18 C 393.75 244.19 393.22 249.51 393.55 254.70 C 393.03 254.70 391.97 254.72 391.45 254.73 C 391.40 253.15 391.36 251.57 391.32 249.99 C 390.93 249.61 390.16 248.84 389.77 248.46 C 387.11 241.63 385.73 234.35 385.31 227.05 C 382.97 212.09 381.80 196.93 378.55 182.12 C 376.12 182.22 373.70 182.38 371.29 182.59 C 371.42 184.47 371.66 186.37 372.39 188.13 C 374.60 193.72 376.36 199.47 378.42 205.11 C 379.88 208.59 379.38 212.41 379.82 216.07 C 380.51 221.67 381.13 227.28 381.64 232.90 C 376.57 216.81 371.85 200.59 367.23 184.36 C 363.46 184.41 359.75 185.23 356.18 186.38 C 357.32 188.12 358.78 189.66 359.62 191.59 C 362.89 199.41 366.92 206.90 370.12 214.74 C 373.95 228.90 382.05 241.47 385.43 255.76 C 386.35 258.36 387.56 260.85 388.58 263.42 C 385.10 263.84 381.66 262.83 378.56 261.32 C 375.61 258.92 373.45 255.72 370.79 253.04 C 360.44 242.40 351.66 230.36 341.20 219.84 C 337.00 215.97 332.83 212.08 328.81 208.04 C 327.02 206.22 326.06 203.65 323.85 202.25 C 319.74 199.38 315.53 196.59 312.06 192.93 C 308.57 189.15 303.38 187.74 299.63 184.30 C 295.21 180.41 290.30 177.16 285.63 173.59 C 284.11 173.17 282.62 172.67 281.16 172.11 C 279.01 167.24 273.86 165.02 269.81 162.04 C 268.08 161.09 266.52 159.29 264.41 159.42 C 262.79 160.47 262.19 162.41 261.52 164.11 C 256.47 178.05 253.31 192.74 252.37 207.54 C 255.81 207.56 259.24 207.59 262.68 207.62 C 267.78 197.40 270.78 186.24 276.38 176.25 C 277.94 176.84 279.29 177.83 280.69 178.72 C 275.73 188.44 270.68 198.22 267.17 208.57 C 270.05 209.32 273.95 211.04 276.26 208.29 C 282.31 201.98 288.48 195.72 295.41 190.36 C 296.64 189.30 297.87 189.47 299.11 190.88 C 291.79 197.02 284.00 202.92 278.20 210.57 C 280.95 211.76 284.44 213.40 287.04 211.01 C 293.85 206.16 301.10 202.01 308.22 197.64 C 310.00 198.67 311.77 199.72 313.55 200.76 C 313.46 201.08 313.28 201.72 313.19 202.05 C 306.18 203.34 300.80 208.31 294.95 211.98 C 293.84 212.81 292.19 213.31 292.06 214.91 C 295.54 216.61 299.48 216.79 303.14 217.93 C 311.79 222.02 320.60 225.75 329.23 229.89 C 337.05 233.72 343.74 239.36 351.18 243.83 C 358.56 249.16 366.42 254.09 372.46 261.01 C 370.30 261.27 367.99 261.27 366.39 259.59 C 359.56 253.59 352.18 248.24 344.38 243.57 C 333.32 236.31 322.05 229.17 309.52 224.70 C 302.37 221.25 294.69 219.12 287.03 217.16 C 282.12 219.88 278.61 224.81 273.07 226.35 C 271.56 226.78 270.91 228.36 269.93 229.43 C 268.51 229.32 267.10 229.21 265.69 229.09 C 266.25 227.93 266.59 226.59 267.59 225.71 C 271.59 221.91 276.40 219.07 280.28 215.14 C 275.62 215.06 271.34 212.82 266.80 212.45 C 263.39 214.80 264.95 220.36 261.65 222.85 C 260.15 223.99 257.49 222.82 256.55 224.72 C 257.39 225.24 258.24 225.76 259.08 226.30 C 257.78 227.83 257.19 229.68 257.38 231.68 C 256.82 231.26 256.29 230.83 255.75 230.40 C 256.17 229.37 257.11 228.44 256.79 227.26 C 256.32 227.01 255.39 226.49 254.92 226.24 C 254.46 225.64 253.99 225.04 253.52 224.45 C 257.56 221.21 259.96 216.55 260.87 211.50 C 258.08 211.46 255.29 211.45 252.50 211.43 C 252.55 213.79 252.60 216.15 252.65 218.51 C 251.28 218.43 249.90 218.35 248.54 218.27 C 248.10 215.95 247.68 213.63 247.31 211.31 C 241.52 211.22 235.73 211.32 229.95 211.45 C 235.21 217.99 242.04 223.74 244.90 231.84 C 247.14 236.95 250.09 241.72 252.98 246.49 C 253.58 247.42 254.22 248.31 254.87 249.21 C 257.09 249.28 259.18 250.01 261.06 251.19 C 261.97 250.43 262.88 249.65 263.89 249.03 C 268.25 252.62 272.49 256.44 276.26 260.66 C 272.76 261.41 269.35 262.50 265.84 263.18 C 262.61 261.35 260.48 257.99 257.34 255.94 C 258.78 258.60 260.15 261.31 261.39 264.08 C 259.68 264.82 258.00 265.81 256.10 265.89 C 253.95 263.34 252.27 260.44 250.17 257.85 C 251.41 257.30 252.65 256.74 253.90 256.20 C 252.64 254.43 251.26 252.75 249.99 251.00 C 249.75 250.51 249.26 249.53 249.02 249.04 C 248.53 247.88 248.05 246.72 247.58 245.56 C 245.02 240.24 241.77 235.26 238.77 230.18 C 230.94 217.18 220.16 205.99 207.83 197.18 C 204.96 195.00 201.53 193.68 197.95 193.30 C 196.47 191.95 195.00 190.56 193.81 188.95 C 202.89 188.05 210.78 194.12 217.54 199.45 C 221.45 202.16 224.55 205.76 227.83 209.16 C 228.70 210.31 230.19 209.35 231.29 209.22 C 234.61 208.22 238.11 208.44 241.54 208.40 C 240.62 201.30 240.06 194.15 239.47 187.02 C 240.30 181.03 240.89 174.93 242.58 169.10 C 233.09 171.72 224.03 175.71 215.27 180.15 C 210.15 182.10 205.69 185.33 200.81 187.75 C 199.26 188.59 195.58 188.87 196.14 186.21 C 201.14 180.42 208.82 178.22 214.71 173.59 C 214.15 171.92 213.27 169.44 211.24 169.36 C 206.87 172.57 203.01 176.44 199.50 180.55 C 197.82 182.68 194.75 181.33 192.44 181.54 C 192.57 179.04 192.48 176.54 192.60 174.05 C 196.42 169.21 201.19 165.11 204.57 159.91 C 204.80 157.84 203.00 154.64 200.48 155.45 C 195.14 163.13 192.33 172.20 188.06 180.46 C 186.59 180.13 183.71 181.16 183.63 178.94 C 183.06 166.88 184.15 154.82 186.41 142.97 C 186.70 140.25 187.67 136.83 185.47 134.64 C 174.51 122.76 163.26 110.90 149.89 101.67 C 151.26 100.71 153.38 99.82 154.85 101.11 C 165.59 109.62 175.74 118.91 184.81 129.21 C 185.99 130.59 187.33 131.84 188.71 133.03 C 191.21 122.33 194.06 111.72 196.86 101.11 C 201.12 88.18 205.75 75.08 213.60 63.83 C 217.05 58.18 219.26 51.69 223.76 46.73 C 225.35 47.78 226.95 48.83 228.56 49.88 C 222.86 60.90 216.09 71.44 212.02 83.22 C 204.90 100.05 200.02 117.71 194.70 135.16 C 193.05 139.06 195.48 143.54 199.27 144.97 C 202.93 137.42 206.92 130.02 209.95 122.19 C 212.25 117.18 213.10 111.66 215.35 106.63 C 218.80 97.75 223.92 89.69 228.05 81.14 C 232.25 73.63 236.37 66.08 240.74 58.67 C 247.49 48.95 253.66 38.83 260.83 29.40 C 265.57 30.25 267.25 25.07 271.20 23.85 C 269.31 28.13 265.47 31.01 262.65 34.63 C 255.65 43.50 248.78 52.56 243.59 62.64 C 238.84 71.72 233.50 80.61 230.14 90.33 C 225.74 97.75 222.94 105.96 219.51 113.84 C 226.72 105.60 233.68 97.13 241.05 89.01 C 245.89 83.85 250.13 78.05 255.91 73.86 C 262.75 67.02 270.40 61.06 278.15 55.30 C 279.71 53.95 281.70 53.44 283.71 53.18 C 283.67 53.70 283.60 54.76 283.56 55.28 C 279.76 57.84 276.61 61.20 272.99 63.98 C 266.41 68.96 260.66 74.93 255.08 80.98 C 243.89 94.25 232.76 107.60 222.74 121.79 C 218.32 127.19 214.90 133.31 210.63 138.83 C 208.19 142.05 205.97 145.44 204.01 148.96 C 202.46 151.13 204.73 153.35 206.00 155.01 C 206.65 156.00 208.24 156.00 208.88 155.00 C 215.37 146.50 222.25 138.25 229.81 130.67 C 240.07 121.63 248.27 110.56 258.58 101.55 C 257.77 100.24 257.02 98.90 256.25 97.58 C 258.21 97.78 260.17 98.25 262.15 98.12 C 265.80 95.87 268.53 92.45 271.67 89.58 C 280.55 81.19 288.60 71.87 298.43 64.54 C 301.68 62.65 304.65 60.29 306.80 57.16 C 304.49 54.11 302.22 51.02 300.47 47.61 C 304.32 48.13 308.38 48.75 311.17 51.74 C 315.71 47.73 319.09 42.60 323.47 38.40 C 328.35 33.61 331.82 27.05 338.37 24.27 Z" />
<path fill="#f3722b" opacity="1.00" d=" M 458.85 35.61 C 460.56 35.79 462.24 36.19 463.93 36.53 C 462.90 43.44 460.73 50.10 459.39 56.95 C 457.36 68.10 453.98 78.95 451.58 90.02 C 449.46 99.84 446.40 109.41 443.96 119.14 C 441.05 129.10 439.18 139.36 435.47 149.07 C 441.81 141.52 445.25 131.94 450.87 123.88 C 456.29 122.40 457.06 116.12 459.81 112.01 C 458.92 111.07 458.04 110.13 457.16 109.19 C 466.24 95.95 474.71 82.29 483.74 69.02 C 485.42 69.97 487.11 70.92 488.80 71.88 C 482.62 82.17 475.74 92.03 469.23 102.11 C 464.81 109.42 459.28 116.04 455.97 123.99 C 456.27 125.50 456.05 127.01 455.22 128.32 C 452.73 132.81 449.95 137.16 448.01 141.93 C 454.88 136.16 460.80 129.21 468.54 124.54 C 474.54 120.58 480.28 116.21 486.45 112.51 C 491.88 109.19 497.42 104.71 504.20 105.42 C 501.96 107.23 499.42 108.58 496.88 109.91 C 493.04 111.92 489.72 114.74 486.19 117.20 C 476.48 124.03 466.88 131.09 458.20 139.20 C 454.19 142.87 449.55 145.92 446.25 150.31 C 443.67 153.76 441.51 157.51 439.07 161.06 C 432.06 170.30 428.11 181.34 422.55 191.44 C 415.03 204.74 411.70 219.83 408.41 234.60 C 407.87 234.60 406.78 234.62 406.23 234.62 C 405.96 227.67 408.18 221.02 408.77 214.15 C 410.02 205.98 412.45 198.03 415.28 190.28 C 415.65 189.08 416.15 187.62 415.32 186.49 C 412.96 182.69 409.55 179.74 406.33 176.69 C 405.48 176.06 405.19 175.23 405.48 174.20 C 410.28 176.65 413.70 181.11 417.07 185.21 C 418.85 181.01 421.34 177.17 423.23 173.04 C 423.85 162.11 423.34 151.12 423.99 140.19 C 424.85 133.50 424.73 126.74 423.87 120.06 C 422.91 93.12 421.17 66.20 420.25 39.25 C 422.28 39.25 424.31 39.25 426.34 39.28 C 426.77 55.86 427.88 72.42 428.63 88.99 C 429.95 98.58 428.95 108.31 430.19 117.92 C 430.91 124.41 429.92 131.06 431.38 137.46 C 439.99 106.49 447.78 75.28 456.09 44.22 C 456.97 41.35 457.04 38.12 458.85 35.61 Z" />
<path fill="#f3722b" opacity="1.00" d=" M 374.53 55.53 C 376.56 55.83 379.49 55.07 380.63 57.33 C 382.27 60.68 382.66 64.45 383.52 68.03 C 384.64 73.76 386.98 79.20 387.53 85.05 C 388.55 94.59 391.23 103.94 391.41 113.57 C 390.31 112.73 388.48 112.36 388.28 110.74 C 386.95 104.51 387.10 97.94 384.93 91.89 C 382.01 85.96 381.02 79.37 378.90 73.16 C 377.20 67.35 374.44 61.70 374.53 55.53 Z" />
<path fill="#3e3e3e" opacity="1.00" d=" M 308.93 61.13 C 312.06 64.09 314.18 67.89 316.59 71.41 C 317.88 73.19 318.68 76.01 316.56 77.51 C 304.21 89.25 293.30 102.42 282.59 115.63 C 278.84 115.80 276.99 111.15 274.36 108.98 C 276.55 104.23 279.96 100.22 282.92 95.94 C 287.46 89.22 292.76 83.09 297.83 76.78 C 301.26 71.37 304.97 66.16 308.93 61.13 Z" />
<path fill="#f3722b" opacity="1.00" d=" M 363.68 75.55 C 365.00 75.45 366.32 75.28 367.65 75.36 C 370.82 80.15 373.41 85.50 374.95 91.03 C 374.52 94.82 375.36 98.55 375.59 102.32 C 374.75 101.45 373.81 100.60 373.40 99.43 C 370.53 92.05 367.25 84.82 363.43 77.87 C 363.49 77.29 363.62 76.13 363.68 75.55 Z" />
<path fill="#3e3e3e" opacity="1.00" d=" M 317.83 81.75 C 318.69 81.25 319.47 80.19 320.57 80.36 C 323.00 84.55 324.38 89.24 326.63 93.53 C 327.79 96.12 329.96 99.23 327.67 101.87 C 326.19 105.51 321.91 104.25 318.91 105.27 C 315.29 105.99 311.80 108.17 308.05 107.67 C 305.95 105.83 303.85 103.84 300.79 104.17 C 301.56 106.32 302.77 108.27 304.02 110.17 C 298.57 110.82 293.54 113.03 288.41 114.83 C 297.73 103.41 306.05 90.88 317.83 81.75 Z" />
<path fill="#3e3e3e" opacity="1.00" d=" M 266.02 101.15 C 268.56 98.59 271.18 96.08 274.10 93.96 C 272.70 97.56 270.57 100.81 268.21 103.85 C 267.48 102.95 266.75 102.05 266.02 101.15 Z" />
<path fill="#3e3e3e" opacity="1.00" d=" M 262.45 104.46 C 263.52 105.56 264.58 106.66 265.65 107.77 C 262.24 114.72 260.32 122.44 255.91 128.88 C 252.20 131.95 247.50 133.26 243.26 135.32 C 232.26 142.81 222.37 151.85 211.14 159.02 C 213.85 156.39 216.50 153.68 218.75 150.64 C 226.15 141.77 234.82 134.09 242.54 125.52 C 248.06 120.03 253.21 114.17 258.96 108.92 C 260.34 107.61 261.40 106.02 262.45 104.46 Z" />
<path fill="#3e3e3e" opacity="1.00" d=" M 317.40 119.11 C 321.84 113.89 326.16 108.54 331.05 103.71 C 336.31 114.59 341.36 125.59 346.19 136.67 C 340.32 136.54 334.41 138.01 328.62 136.45 C 324.36 130.97 322.31 124.12 317.40 119.11 Z" />
<path fill="#3e3e3e" opacity="1.00" d=" M 311.42 111.01 C 315.24 109.78 319.01 108.41 322.87 107.29 C 320.62 110.03 318.19 112.61 316.06 115.44 C 315.64 115.49 314.79 115.60 314.37 115.65 C 313.38 114.11 312.38 112.56 311.42 111.01 Z" />
<path fill="#3e3e3e" opacity="1.00" d=" M 271.17 113.24 C 273.02 115.23 274.85 117.23 276.65 119.26 C 273.12 121.21 269.50 123.01 265.86 124.75 C 266.94 120.62 269.14 116.95 271.17 113.24 Z" />
<path fill="#3e3e3e" opacity="1.00" d=" M 305.47 113.62 C 308.06 112.42 309.52 115.52 310.94 117.11 C 312.72 118.90 311.06 121.21 309.91 122.80 C 306.77 127.10 303.92 131.62 300.58 135.77 C 298.74 134.95 297.95 132.84 296.54 131.50 C 293.52 127.80 288.74 125.42 287.04 120.76 C 293.27 118.60 299.17 115.59 305.47 113.62 Z" />
<path fill="#3e3e3e" opacity="1.00" d=" M 303.54 137.64 C 307.94 133.10 309.95 126.73 314.81 122.58 C 317.33 127.40 321.56 131.31 323.08 136.62 C 316.39 136.07 309.64 137.05 303.42 139.56 C 303.45 139.08 303.51 138.12 303.54 137.64 Z" />
<path fill="#3e3e3e" opacity="1.00" d=" M 278.94 129.94 C 279.78 128.50 280.89 127.24 282.05 126.05 C 283.65 128.32 285.21 130.67 286.01 133.37 C 287.68 133.85 289.15 133.04 290.54 132.18 C 293.25 134.70 296.81 136.74 298.05 140.43 C 292.32 142.08 286.49 143.42 280.85 145.37 C 276.68 147.00 271.83 145.98 268.09 148.80 C 271.59 142.45 275.25 136.19 278.94 129.94 Z" />
<path fill="#3e3e3e" opacity="1.00" d=" M 261.57 134.45 C 265.28 131.74 269.74 130.26 273.84 128.23 C 270.64 134.32 267.94 140.63 265.04 146.86 C 263.94 148.87 263.22 151.34 261.15 152.59 C 259.09 151.95 257.15 151.01 255.20 150.14 C 256.73 144.71 258.83 139.38 261.57 134.45 Z" />
<path fill="#3e3e3e" opacity="1.00" d=" M 331.40 141.43 C 336.86 140.64 342.39 140.47 347.90 140.31 C 350.08 144.63 352.14 149.01 353.91 153.51 C 349.47 155.08 345.21 157.10 340.80 158.74 C 338.81 152.38 334.60 147.17 331.40 141.43 Z" />
<path fill="#3e3e3e" opacity="1.00" d=" M 352.94 140.23 C 357.15 140.30 361.38 140.17 365.49 139.17 C 366.92 142.23 368.07 145.41 368.95 148.68 C 365.37 149.72 361.79 150.76 358.23 151.87 C 356.29 148.07 354.45 144.22 352.94 140.23 Z" />
<path fill="#f3722b" opacity="1.00" d=" M 477.75 157.69 C 484.23 151.90 489.38 143.74 498.13 141.17 C 496.49 144.52 492.69 145.69 490.08 148.09 C 486.91 150.96 483.81 153.98 481.53 157.62 C 485.69 155.67 488.75 151.99 493.02 150.25 C 497.52 148.47 501.61 145.34 506.60 145.13 C 506.61 145.70 506.63 146.84 506.64 147.40 C 505.26 147.84 503.86 148.18 502.55 148.78 C 495.14 153.52 488.33 159.11 480.94 163.89 C 469.09 172.18 459.71 183.32 449.81 193.73 C 441.50 202.28 434.22 211.79 428.11 222.04 C 423.22 228.82 419.15 236.21 415.97 243.94 C 430.81 231.38 447.47 221.28 463.76 210.75 C 465.14 209.86 466.73 209.42 468.31 209.01 C 467.22 210.44 466.01 211.78 464.81 213.11 C 470.25 212.34 474.56 207.79 480.27 208.40 C 477.13 211.56 472.60 212.59 468.88 214.89 C 462.00 218.08 455.73 222.36 449.29 226.34 C 446.73 227.77 445.47 230.68 442.85 232.04 C 433.51 237.72 425.19 244.90 417.36 252.47 C 413.76 255.14 410.24 257.90 407.06 261.06 C 405.74 262.76 402.56 261.49 403.26 259.23 C 404.75 247.74 411.73 238.11 417.54 228.42 C 419.86 224.25 422.15 220.04 424.99 216.19 C 427.78 212.55 429.79 208.30 433.31 205.25 C 432.94 204.28 432.58 203.30 432.22 202.33 C 434.24 200.88 436.12 199.20 437.71 197.27 C 450.47 179.14 466.88 164.07 481.33 147.36 C 482.61 145.81 484.16 144.45 486.15 143.93 C 484.45 147.47 481.52 150.16 478.95 153.05 C 468.86 163.95 458.64 174.73 448.81 185.87 C 446.89 188.07 445.22 190.48 443.80 193.03 C 447.24 190.07 450.35 186.75 453.45 183.44 C 461.24 174.57 469.84 166.46 477.75 157.69 Z" />
<path fill="#3e3e3e" opacity="1.00" d=" M 246.79 142.69 C 247.23 142.54 248.11 142.24 248.55 142.10 C 245.69 147.05 245.70 152.90 244.08 158.25 C 243.75 159.64 242.05 159.65 241.02 160.19 C 232.75 162.90 225.83 168.47 217.82 171.79 C 216.85 170.12 215.87 168.46 214.88 166.81 C 224.82 157.88 236.41 151.06 246.79 142.69 Z" />
<path fill="#3e3e3e" opacity="1.00" d=" M 308.91 145.34 C 314.62 144.29 320.30 142.98 326.06 142.23 C 327.45 141.85 327.99 143.62 328.82 144.39 C 337.83 158.42 347.39 172.28 353.56 187.87 C 355.05 191.92 355.62 196.29 357.73 200.11 C 363.06 210.62 367.71 221.43 372.63 232.13 C 374.79 236.10 374.55 240.77 375.88 245.02 C 374.12 243.69 371.29 242.80 371.48 240.08 C 370.93 240.06 369.85 240.02 369.30 240.00 L 369.65 241.77 C 366.10 238.11 362.79 234.23 359.62 230.24 C 349.38 219.52 338.45 209.45 326.92 200.13 C 320.91 193.98 313.54 189.49 307.11 183.84 C 304.60 181.98 301.68 180.77 299.22 178.82 C 292.51 173.67 285.26 169.31 277.98 165.01 C 274.68 163.34 273.18 159.67 270.13 157.66 C 277.00 155.02 284.12 153.11 291.00 150.48 C 288.89 154.23 286.47 157.83 284.84 161.83 C 286.10 162.48 287.34 163.19 288.68 163.67 C 291.74 159.51 293.36 154.47 296.45 150.31 C 297.88 147.91 300.97 147.73 303.30 146.63 C 307.13 150.51 310.40 154.88 313.97 159.00 C 318.34 164.02 321.58 170.01 326.70 174.36 C 332.98 181.45 339.23 188.63 344.34 196.64 C 345.97 199.26 346.21 202.51 348.02 205.06 C 351.74 210.66 355.06 216.52 358.65 222.21 C 361.86 228.11 365.94 233.50 368.79 239.60 C 369.46 238.93 370.13 238.26 370.80 237.58 C 369.07 233.06 366.30 229.03 364.74 224.43 C 357.88 212.83 349.62 202.09 343.25 190.20 C 341.93 186.36 338.35 184.13 335.95 181.03 C 331.64 175.97 328.55 169.96 323.71 165.36 C 318.58 158.85 313.26 152.40 308.91 145.34 Z" />
<path fill="#3e3e3e" opacity="1.00" d=" M 192.52 143.26 C 193.90 144.83 195.48 146.27 196.52 148.10 C 196.89 149.86 195.71 151.40 195.01 152.91 C 192.63 157.16 190.60 161.59 188.41 165.94 C 188.45 161.94 188.85 157.93 190.00 154.08 C 190.75 153.44 191.55 152.88 192.41 152.38 C 191.07 149.43 191.86 146.27 192.52 143.26 Z" />
<path fill="#3e3e3e" opacity="1.00" d=" M 359.96 154.44 C 363.05 153.17 366.07 151.69 369.24 150.62 C 373.57 158.11 375.81 167.00 376.98 175.62 C 374.15 175.74 370.96 177.04 368.32 175.68 C 366.76 172.73 365.92 169.47 364.61 166.42 C 363.05 162.43 360.66 158.73 359.96 154.44 Z" />
<path fill="#3e3e3e" opacity="1.00" d=" M 343.27 162.78 C 347.00 160.35 351.15 157.84 355.58 157.16 C 358.96 163.76 361.92 170.59 364.85 177.39 C 360.66 178.33 356.50 179.37 352.25 179.95 C 349.50 174.10 346.17 168.55 343.27 162.78 Z" />
<path fill="#3e3e3e" opacity="1.00" d=" M 250.51 166.91 C 251.16 163.13 255.58 162.66 258.65 162.25 C 257.39 163.42 256.08 164.65 255.73 166.42 C 252.86 176.74 249.47 187.00 248.32 197.70 L 246.48 197.73 C 246.15 187.33 248.03 176.97 250.51 166.91 Z" />
<path fill="#f3722b" opacity="1.00" d=" M 330.69 164.23 C 332.41 163.38 334.23 161.77 336.28 162.66 C 336.58 163.95 336.72 165.28 336.88 166.60 C 334.39 167.07 331.91 166.67 330.69 164.23 Z" />
<path fill="#f3722b" opacity="1.00" d=" M 447.29 166.15 C 447.86 164.49 449.35 164.41 450.84 164.65 C 447.63 169.68 444.16 174.62 441.95 180.21 C 441.50 180.37 440.60 180.70 440.15 180.86 C 440.55 175.20 444.70 170.93 447.29 166.15 Z" />
<path fill="#f3722b" opacity="1.00" d=" M 309.08 178.81 C 311.58 176.82 313.98 174.49 317.02 173.35 C 318.03 173.80 319.01 174.32 319.96 174.93 C 317.42 177.01 314.78 178.95 312.08 180.81 C 311.33 180.31 309.83 179.31 309.08 178.81 Z" />
<path fill="#f3722b" opacity="1.00" d=" M 220.00 180.48 C 221.41 180.31 223.40 178.84 224.29 180.70 C 228.81 187.45 233.14 194.36 236.86 201.59 C 235.88 201.51 233.91 201.35 232.93 201.27 C 230.80 198.51 229.45 195.27 227.59 192.34 C 225.28 188.25 222.16 184.67 220.00 180.48 Z" />
<path fill="#f3722b" opacity="1.00" d=" M 344.90 181.99 C 348.04 182.33 348.72 185.74 349.82 188.12 C 347.29 186.94 345.97 184.43 344.90 181.99 Z" />
<path fill="#f4e4c0" opacity="1.00" d=" M 177.50 188.06 C 178.97 188.74 180.43 189.46 181.89 190.20 C 184.20 190.68 186.49 191.25 188.80 191.78 C 188.77 193.17 188.45 194.45 186.90 194.82 C 186.00 196.18 185.14 197.56 184.28 198.95 C 185.25 206.93 188.27 215.00 186.00 223.05 C 184.75 226.27 187.21 229.12 189.31 231.25 C 191.20 235.81 190.86 240.90 189.21 245.47 C 187.43 246.00 185.63 246.50 183.85 247.00 C 184.39 244.62 185.34 242.35 185.76 239.94 C 185.79 237.25 184.66 234.71 184.03 232.13 C 183.20 231.73 182.37 231.32 181.55 230.92 C 179.67 228.37 178.61 225.25 178.54 222.10 C 179.62 220.36 181.15 218.91 182.00 217.03 C 181.76 215.37 182.06 213.32 180.38 212.31 C 179.58 208.98 179.06 205.57 177.92 202.33 C 176.74 199.29 175.46 196.29 174.23 193.27 C 175.03 192.80 175.84 192.33 176.65 191.87 L 177.62 191.31 C 177.59 190.50 177.53 188.87 177.50 188.06 Z" />
<path fill="#f3722b" opacity="1.00" d=" M 324.68 189.44 C 326.43 188.97 328.18 188.38 329.99 188.18 C 331.72 189.11 333.24 190.74 333.69 192.70 C 332.50 193.49 331.22 194.14 329.98 194.83 C 327.98 193.27 326.01 191.63 324.68 189.44 Z" />
<path fill="#f3722b" opacity="1.00" d=" M 425.79 198.41 C 426.47 195.43 427.72 192.63 429.26 190.00 C 429.35 193.59 429.30 197.18 429.19 200.78 L 430.97 200.82 C 428.53 202.59 425.45 202.88 422.60 203.50 C 422.55 203.36 422.47 203.10 422.43 202.97 C 424.35 202.14 425.51 200.47 425.79 198.41 Z" />
<path fill="#3e3e3e" opacity="1.00" d=" M 168.80 193.19 C 170.61 193.22 172.42 193.25 174.23 193.27 C 175.46 196.29 176.74 199.29 177.92 202.33 C 178.72 205.39 178.99 208.55 179.14 211.70 C 169.65 222.18 161.56 233.82 153.13 245.14 C 147.54 252.50 143.25 260.71 138.24 268.44 C 135.18 273.34 128.77 274.38 125.45 279.04 C 128.44 279.19 131.35 278.50 134.11 277.42 C 129.32 283.76 122.30 287.87 117.11 293.85 C 118.16 290.99 119.10 288.09 119.98 285.18 C 115.92 288.90 111.76 292.49 107.58 296.08 C 111.81 288.22 116.48 280.62 120.97 272.92 C 123.44 268.84 125.73 264.56 129.15 261.18 C 132.48 257.99 134.62 253.86 137.33 250.19 C 142.55 243.20 148.48 236.77 154.29 230.28 C 161.63 222.12 168.29 213.20 177.07 206.48 C 175.35 205.46 173.35 204.15 171.41 205.55 C 166.31 208.50 162.68 213.34 158.37 217.26 C 147.99 227.02 140.06 239.00 129.93 248.97 C 126.84 252.36 124.84 256.55 122.36 260.38 C 117.17 268.74 111.17 276.57 106.33 285.15 C 105.43 281.80 106.34 278.38 106.51 275.00 C 107.16 263.47 108.95 252.05 109.87 240.55 C 111.68 236.56 116.50 235.12 119.95 232.81 C 132.49 226.19 145.29 220.08 157.95 213.69 C 161.01 211.84 163.31 209.01 166.14 206.84 C 165.88 206.23 165.36 205.01 165.10 204.40 C 159.88 204.78 155.28 207.34 150.71 209.64 C 137.49 216.47 124.16 223.10 111.31 230.61 C 111.27 224.71 111.72 218.81 112.72 212.99 C 128.61 208.55 144.81 205.12 161.28 203.85 C 163.84 203.53 167.21 204.37 168.54 201.49 C 164.03 201.43 159.54 200.91 155.04 200.60 C 140.59 201.32 126.58 205.30 112.64 208.86 C 113.16 205.13 113.47 201.37 113.63 197.61 C 131.79 196.53 149.98 196.61 168.16 196.38 C 168.37 195.31 168.58 194.25 168.80 193.19 Z" />
<path fill="#f3722b" opacity="1.00" d=" M 196.88 194.73 C 200.16 195.97 203.44 197.40 206.05 199.82 C 218.75 211.08 228.67 225.54 234.38 241.54 C 236.36 245.47 238.40 249.37 239.90 253.52 C 240.44 255.27 242.33 256.81 241.76 258.76 C 240.81 259.22 239.85 259.66 238.87 260.07 C 230.87 269.75 224.12 280.42 218.17 291.45 C 217.14 292.62 215.73 293.37 214.45 294.24 C 215.58 294.96 216.71 295.71 217.82 296.48 C 219.98 296.83 222.16 297.00 224.36 296.99 C 227.66 287.12 232.45 277.85 236.76 268.41 C 237.97 268.40 239.18 268.39 240.39 268.39 C 240.28 270.76 239.85 273.10 239.30 275.41 C 237.03 284.25 236.17 293.36 234.97 302.38 C 237.80 301.04 240.60 299.63 243.33 298.10 C 245.47 284.79 247.36 271.44 249.12 258.08 C 248.39 264.41 248.02 270.78 246.85 277.05 C 246.16 283.98 244.21 290.76 244.23 297.76 C 247.53 296.31 250.74 294.67 253.92 292.98 C 258.03 290.73 262.75 289.97 266.89 287.77 C 270.33 285.96 274.45 286.53 277.90 284.71 C 282.67 282.44 287.79 281.00 292.98 280.04 C 299.28 278.89 305.16 276.18 311.49 275.16 C 320.86 273.66 330.11 271.53 339.51 270.21 C 341.57 269.88 343.73 269.58 345.52 268.42 C 334.12 266.55 322.57 265.24 310.99 265.71 C 305.65 265.87 300.26 265.00 294.95 265.96 C 281.99 268.01 269.00 270.30 256.45 274.20 C 253.89 274.95 250.79 275.17 248.88 272.94 C 259.75 266.93 272.03 264.63 284.01 261.93 C 294.59 260.28 305.33 260.36 316.01 260.43 C 325.25 260.15 334.38 261.53 343.51 262.68 C 348.42 263.51 353.10 265.47 358.10 265.85 C 355.17 263.13 352.28 260.17 348.53 258.60 C 333.69 252.79 318.85 246.95 303.98 241.21 C 300.39 239.92 296.59 239.39 292.88 238.55 C 286.75 237.32 280.72 235.32 274.41 235.30 C 274.32 234.70 274.15 233.50 274.07 232.90 C 293.38 235.53 313.19 237.18 331.41 244.61 C 347.26 251.36 362.67 259.30 376.76 269.26 C 378.53 270.31 378.46 272.38 378.53 274.19 C 370.52 274.32 362.49 273.97 354.52 274.87 C 349.05 275.68 343.46 275.11 338.05 276.39 C 324.68 278.39 311.28 280.54 298.35 284.55 C 298.32 285.60 298.42 286.65 298.50 287.70 C 296.61 288.42 294.72 289.14 292.84 289.87 C 291.59 289.02 290.34 288.17 289.09 287.32 C 289.72 288.32 290.36 289.32 290.99 290.33 C 289.00 291.15 287.03 292.11 284.89 292.49 C 283.84 291.62 282.91 290.63 281.96 289.66 C 279.77 290.47 277.41 291.01 275.46 292.34 C 275.30 293.55 275.27 294.78 275.07 295.99 C 273.41 296.97 271.49 297.38 269.66 297.90 C 269.50 297.14 269.18 295.62 269.03 294.86 C 266.14 295.62 263.34 296.65 260.58 297.77 C 257.58 299.11 254.21 298.32 251.06 298.86 C 248.08 299.82 245.47 301.63 242.56 302.78 C 239.44 303.92 236.39 305.30 233.72 307.31 C 236.57 307.56 239.43 307.70 242.28 307.96 C 247.21 308.41 252.07 309.60 257.03 309.55 C 262.72 307.06 268.14 303.92 273.44 300.70 C 283.88 298.40 293.05 292.08 303.70 290.66 C 310.60 288.66 317.46 286.52 324.29 284.30 C 332.96 281.54 342.08 280.66 350.87 278.37 C 355.18 277.29 359.67 277.70 364.07 277.35 C 366.66 277.23 370.48 276.80 370.89 280.25 C 364.68 282.05 358.10 280.80 351.85 282.37 C 345.19 283.95 338.49 285.39 331.98 287.51 C 331.26 287.30 329.82 286.89 329.10 286.68 C 323.54 288.57 317.80 289.77 312.02 290.76 C 303.62 293.11 295.75 297.15 287.27 299.27 C 281.86 300.72 277.44 304.48 272.05 305.97 C 269.11 306.89 266.47 308.47 263.76 309.90 C 263.62 310.27 263.33 311.01 263.19 311.38 C 266.95 312.06 270.74 312.61 274.56 312.81 C 274.49 312.03 274.36 310.47 274.30 309.69 C 275.94 309.10 277.60 308.55 279.27 308.07 C 279.78 310.08 280.14 312.16 280.93 314.09 C 283.80 316.38 287.78 316.98 290.36 319.77 C 287.66 319.57 284.99 319.06 282.35 318.48 C 283.32 322.03 283.82 325.88 286.11 328.89 C 288.81 332.62 288.17 337.65 290.48 341.58 C 290.87 342.68 292.15 343.95 291.28 345.15 C 289.04 347.71 286.36 349.84 283.76 352.03 C 281.60 341.16 279.12 330.35 276.18 319.66 C 273.87 319.07 271.53 318.54 269.14 318.48 C 269.01 317.92 268.76 316.78 268.63 316.21 C 270.28 316.23 271.93 316.25 273.59 316.27 C 273.57 316.16 273.52 315.93 273.49 315.82 C 271.51 315.68 269.50 314.87 267.54 315.29 C 267.43 316.14 267.44 317.01 267.35 317.87 C 266.37 317.79 264.40 317.62 263.42 317.53 C 263.27 317.16 262.96 316.42 262.80 316.05 C 262.90 315.13 263.58 314.63 264.84 314.55 C 262.93 314.55 261.02 314.46 259.13 314.26 C 260.34 314.30 260.92 314.83 260.87 315.87 C 259.47 317.10 257.64 316.45 256.01 316.23 C 251.22 315.36 246.42 314.54 241.56 314.22 C 241.33 314.17 240.88 314.06 240.65 314.01 C 238.01 313.38 235.34 312.89 232.66 312.45 C 229.47 311.92 226.24 311.78 223.01 311.73 C 221.13 318.44 220.20 325.43 217.96 332.02 C 216.38 332.28 214.81 332.48 213.22 332.61 C 214.18 325.23 217.69 318.51 218.93 311.18 C 212.47 309.85 205.90 309.21 199.30 309.45 C 197.31 309.41 195.33 309.33 193.35 309.20 C 188.58 308.73 183.78 308.53 179.02 309.09 C 173.01 309.75 166.95 309.27 160.94 309.81 C 152.39 311.26 143.64 310.62 135.05 309.96 C 133.06 310.13 131.10 310.50 129.13 310.77 C 130.24 308.72 130.40 305.42 133.11 304.90 C 144.27 301.91 155.45 298.73 167.01 297.80 C 167.50 297.72 168.48 297.55 168.97 297.47 C 173.88 296.91 178.89 297.67 183.74 296.55 L 184.81 296.24 C 186.34 295.76 187.89 295.33 189.48 295.11 C 191.65 294.80 193.84 294.59 196.03 294.32 C 202.06 293.57 208.06 292.51 214.14 292.15 C 214.19 288.77 214.99 285.44 216.71 282.52 C 220.40 276.11 224.63 270.01 229.01 264.05 C 231.44 260.84 233.01 256.87 236.47 254.57 C 234.06 252.46 232.52 249.65 231.18 246.79 C 224.47 235.89 219.18 224.05 211.17 213.95 C 207.19 207.63 202.74 200.76 195.32 198.18 C 195.84 197.03 196.36 195.88 196.88 194.73 Z" />
<path fill="#f4e4c0" opacity="1.00" d=" M 430.97 200.82 C 433.03 199.32 435.19 197.88 437.71 197.27 C 436.12 199.20 434.24 200.88 432.22 202.33 C 428.94 203.77 427.69 208.39 423.96 208.62 C 420.95 207.16 418.87 204.33 417.89 201.19 C 419.24 201.27 420.59 201.36 421.95 201.46 L 422.43 202.97 C 422.47 203.10 422.55 203.36 422.60 203.50 C 425.45 202.88 428.53 202.59 430.97 200.82 Z" />
<path fill="#3e3e3e" opacity="1.00" d=" M 87.19 200.37 C 94.35 199.04 101.56 197.31 108.88 197.41 C 108.60 201.62 108.90 205.87 108.14 210.03 C 102.43 213.16 95.82 213.95 89.66 215.88 C 88.79 210.71 87.65 205.59 87.19 200.37 Z" />
<path fill="#3e3e3e" opacity="1.00" d=" M 66.21 203.67 C 71.14 202.43 76.24 202.64 81.27 202.31 C 81.51 207.74 82.80 213.04 83.54 218.41 C 80.25 219.87 76.93 221.26 73.60 222.64 C 71.07 216.35 68.07 210.20 66.21 203.67 Z" />
<path fill="#f3722b" opacity="1.00" d=" M 177.92 202.33 C 179.06 205.57 179.58 208.98 180.38 212.31 C 182.06 213.32 181.76 215.37 182.00 217.03 C 179.31 218.12 176.77 219.68 175.08 222.11 C 164.34 235.86 153.55 249.72 144.97 264.96 C 154.06 259.99 163.12 254.91 172.83 251.21 C 172.83 247.62 172.79 244.03 172.72 240.45 C 173.33 240.38 174.54 240.24 175.14 240.17 C 175.31 243.48 175.42 246.79 175.51 250.10 C 178.19 249.43 180.81 248.56 183.34 247.46 C 183.88 243.34 186.03 239.13 184.54 234.97 C 184.07 233.29 182.58 232.23 181.55 230.92 C 182.37 231.32 183.20 231.73 184.03 232.13 C 184.66 234.71 185.79 237.25 185.76 239.94 C 185.34 242.35 184.39 244.62 183.85 247.00 C 185.63 246.50 187.43 246.00 189.21 245.47 C 198.73 242.33 208.38 238.91 218.47 238.47 C 219.14 239.88 219.58 241.38 220.05 242.88 C 209.78 245.08 199.42 247.35 189.80 251.67 C 188.37 252.16 186.94 252.65 185.51 253.13 C 182.21 254.28 178.75 255.10 175.68 256.84 C 174.98 260.39 175.58 264.05 175.13 267.64 C 174.65 267.79 173.67 268.09 173.18 268.24 C 173.26 264.80 173.28 261.35 172.99 257.91 C 168.55 259.52 164.48 261.95 160.29 264.09 C 160.86 264.92 161.43 265.76 162.00 266.60 C 157.00 269.48 151.24 271.02 146.84 274.86 C 141.62 279.09 133.85 281.85 133.02 289.50 C 131.16 289.66 129.31 289.66 127.46 289.53 C 123.50 292.86 119.67 296.36 115.37 299.26 C 115.90 297.43 116.44 295.62 117.11 293.85 C 122.30 287.87 129.32 283.76 134.11 277.42 C 131.35 278.50 128.44 279.19 125.45 279.04 C 128.77 274.38 135.18 273.34 138.24 268.44 C 143.25 260.71 147.54 252.50 153.13 245.14 C 161.56 233.82 169.65 222.18 179.14 211.70 C 178.99 208.55 178.72 205.39 177.92 202.33 Z" />
<path fill="#f3722b" opacity="1.00" d=" M 194.88 212.16 C 193.47 210.35 191.23 208.85 191.30 206.29 C 193.83 206.38 196.63 206.54 198.50 208.51 C 202.05 212.06 205.02 216.26 207.10 220.84 C 206.83 221.38 206.31 222.45 206.05 222.99 C 206.27 224.22 206.49 225.46 206.71 226.70 C 205.07 226.63 203.43 226.56 201.80 226.48 C 200.34 221.37 198.30 216.30 194.88 212.16 Z" />
<path fill="#3e3e3e" opacity="1.00" d=" M 229.95 211.45 C 235.73 211.32 241.52 211.22 247.31 211.31 C 247.68 213.63 248.10 215.95 248.54 218.27 C 249.90 218.35 251.28 218.43 252.65 218.51 C 252.60 216.15 252.55 213.79 252.50 211.43 C 255.29 211.45 258.08 211.46 260.87 211.50 C 259.96 216.55 257.56 221.21 253.52 224.45 C 253.99 225.04 254.46 225.64 254.92 226.24 C 253.38 227.59 251.90 229.01 250.40 230.42 C 248.88 229.99 247.36 229.57 245.83 229.17 C 245.52 230.06 245.21 230.95 244.90 231.84 C 242.04 223.74 235.21 217.99 229.95 211.45 Z" />
<path fill="#3e3e3e" opacity="1.00" d=" M 90.57 220.07 C 96.36 218.63 101.84 216.14 107.70 214.98 C 106.83 221.39 106.99 228.05 105.18 234.27 C 101.78 237.10 97.83 239.46 93.72 241.15 C 92.76 234.11 90.98 227.17 90.57 220.07 Z" />
<path fill="#3e3e3e" opacity="1.00" d=" M 175.08 222.11 C 176.77 219.68 179.31 218.12 182.00 217.03 C 181.15 218.91 179.62 220.36 178.54 222.10 C 178.61 225.25 179.67 228.37 181.55 230.92 C 182.58 232.23 184.07 233.29 184.54 234.97 C 186.03 239.13 183.88 243.34 183.34 247.46 C 180.81 248.56 178.19 249.43 175.51 250.10 C 175.42 246.79 175.31 243.48 175.14 240.17 C 174.54 240.24 173.33 240.38 172.72 240.45 C 172.79 244.03 172.83 247.62 172.83 251.21 C 163.12 254.91 154.06 259.99 144.97 264.96 C 153.55 249.72 164.34 235.86 175.08 222.11 Z" />
<path fill="#3e3e3e" opacity="1.00" d=" M 75.07 226.32 C 78.15 225.68 80.83 223.90 83.88 223.21 C 85.58 230.78 86.94 238.46 88.43 246.08 C 88.98 248.19 86.27 249.03 85.06 250.24 C 84.10 245.32 82.68 240.51 81.34 235.68 C 80.16 235.29 78.98 234.89 77.81 234.50 C 77.02 231.73 76.11 229.00 75.07 226.32 Z" />
<path fill="#f3722b" opacity="1.00" d=" M 502.69 224.83 C 503.60 224.48 504.11 225.50 504.76 225.94 C 493.55 230.14 482.11 233.70 470.96 238.07 C 468.87 238.87 466.93 240.03 465.02 241.19 C 470.32 241.12 475.92 241.42 480.37 244.67 C 483.34 247.04 486.79 249.01 488.89 252.29 C 490.40 255.09 494.09 254.68 496.44 256.44 C 495.57 256.71 493.82 257.24 492.95 257.51 C 494.43 260.99 494.98 264.75 494.58 268.51 C 494.11 268.48 493.17 268.40 492.70 268.37 C 491.86 266.50 490.56 264.97 488.75 264.01 C 487.59 261.92 486.59 259.72 485.18 257.79 C 479.11 256.85 473.01 258.14 466.96 258.56 C 452.78 259.88 439.17 264.30 425.75 268.80 C 420.63 270.42 416.03 273.26 410.98 275.02 C 409.17 275.97 407.30 275.13 405.78 274.07 C 412.65 268.24 421.59 266.10 429.63 262.44 C 438.81 258.81 448.18 255.44 457.97 253.87 C 461.14 253.38 464.29 254.95 467.46 254.18 C 472.60 253.04 477.87 253.72 483.07 253.47 C 479.56 248.97 474.09 244.34 467.98 245.97 C 460.33 246.22 453.14 248.95 445.81 250.83 C 433.15 255.38 420.84 261.12 409.77 268.83 C 407.10 270.88 403.62 271.11 400.39 271.34 C 401.71 268.77 404.01 267.02 406.37 265.48 C 406.25 264.42 406.14 263.35 406.04 262.30 C 416.28 255.66 426.81 249.47 437.24 243.13 C 443.72 239.77 450.18 236.20 457.20 234.05 C 463.35 231.83 469.43 229.17 475.95 228.22 C 477.68 227.78 479.15 229.23 479.76 230.69 C 475.61 232.04 471.66 234.08 467.27 234.56 C 466.16 234.96 464.16 234.75 464.34 236.41 C 470.38 235.85 475.49 231.89 481.63 231.77 C 481.27 230.60 480.95 229.42 480.65 228.24 C 483.41 228.19 486.17 228.39 488.94 228.38 C 493.69 227.97 498.09 225.95 502.69 224.83 Z" />
<path fill="#f4e4c0" opacity="1.00" d=" M 254.92 226.24 C 255.39 226.49 256.32 227.01 256.79 227.26 C 257.11 228.44 256.17 229.37 255.75 230.40 C 256.29 230.83 256.82 231.26 257.38 231.68 C 259.30 233.21 261.65 233.99 263.90 234.90 C 262.68 239.45 257.42 240.88 253.80 243.11 C 254.65 244.14 255.51 245.16 256.37 246.20 C 255.52 246.27 253.83 246.42 252.98 246.49 C 250.09 241.72 247.14 236.95 244.90 231.84 C 245.21 230.95 245.52 230.06 245.83 229.17 C 247.36 229.57 248.88 229.99 250.40 230.42 C 251.90 229.01 253.38 227.59 254.92 226.24 Z" />
<path fill="#f4e4c0" opacity="1.00" d=" M 234.80 230.70 C 236.12 230.52 237.44 230.34 238.77 230.18 C 241.77 235.26 245.02 240.24 247.58 245.56 C 247.57 246.05 247.55 247.02 247.55 247.50 C 245.00 247.56 242.46 247.65 239.92 247.65 C 241.09 245.92 243.91 244.69 243.58 242.39 C 241.24 240.75 238.56 239.68 235.96 238.53 C 236.87 237.70 237.77 236.87 238.69 236.04 C 237.31 234.79 235.94 233.53 234.55 232.29 C 234.62 231.89 234.74 231.09 234.80 230.70 Z" />
<path fill="#3e3e3e" opacity="1.00" d=" M 95.77 251.95 C 98.82 249.06 99.98 244.23 104.45 243.05 C 102.63 254.16 102.74 265.44 101.29 276.59 C 101.18 276.60 100.95 276.60 100.84 276.61 C 99.91 268.25 96.93 260.28 95.77 251.95 Z" />
<path fill="#f3722b" opacity="1.00" d=" M 270.27 244.40 C 271.53 243.25 273.49 243.97 275.05 243.69 C 279.76 248.00 284.35 252.68 287.10 258.53 C 285.74 258.82 284.39 259.05 283.02 259.24 C 279.28 256.20 277.13 251.61 273.18 248.75 C 272.02 247.48 269.55 246.48 270.27 244.40 Z" />
<path fill="#f4e4c0" opacity="1.00" d=" M 244.60 248.55 C 246.12 248.41 247.60 248.58 249.02 249.04 C 249.26 249.53 249.75 250.51 249.99 251.00 C 250.19 251.44 250.60 252.31 250.80 252.75 C 250.01 254.45 249.43 256.23 249.12 258.08 C 247.36 271.44 245.47 284.79 243.33 298.10 C 240.60 299.63 237.80 301.04 234.97 302.38 C 236.17 293.36 237.03 284.25 239.30 275.41 C 239.85 273.10 240.28 270.76 240.39 268.39 C 239.53 263.85 243.24 260.36 242.74 255.93 C 242.97 253.39 243.88 250.98 244.60 248.55 Z" />
<path fill="#f3722b" opacity="1.00" d=" M 223.44 252.45 C 225.60 250.35 228.46 249.19 231.50 249.84 C 232.86 251.49 230.51 252.50 229.49 253.32 C 219.86 259.48 211.77 267.68 204.02 276.01 C 201.94 278.29 199.47 280.27 197.88 282.95 C 197.57 285.84 198.11 288.82 197.22 291.66 C 197.22 289.67 197.12 287.67 197.10 285.68 C 195.19 285.47 193.28 285.28 191.37 285.10 C 191.29 286.94 191.28 288.79 191.11 290.63 C 190.81 288.13 190.36 285.65 189.68 283.23 L 190.29 282.63 C 191.90 281.05 193.48 279.43 194.94 277.70 C 203.48 268.28 213.43 260.26 223.44 252.45 Z" />
<path fill="#f3722b" opacity="1.00" d=" M 304.47 251.01 C 310.98 249.98 317.68 250.92 324.05 252.40 C 326.23 252.81 328.15 254.02 329.86 255.39 C 329.69 255.62 329.34 256.09 329.16 256.32 C 322.47 255.24 315.77 254.25 309.05 253.34 C 307.25 253.22 305.78 252.14 304.47 251.01 Z" />
<path fill="#f4e4c0" opacity="1.00" d=" M 185.51 253.13 C 186.94 252.65 188.37 252.16 189.80 251.67 C 190.46 251.66 191.77 251.63 192.43 251.61 C 193.08 255.50 194.15 259.49 193.27 263.44 C 191.33 268.11 194.09 272.57 195.61 276.86 L 194.94 277.70 C 193.48 279.43 191.90 281.05 190.29 282.63 C 188.42 280.26 186.11 278.21 184.62 275.56 C 183.83 269.42 186.39 263.52 188.41 257.85 C 187.45 256.27 186.49 254.69 185.51 253.13 Z" />
<path fill="#f3722b" opacity="1.00" d=" M 192.43 251.61 C 194.80 255.15 194.26 259.50 194.38 263.54 C 194.10 263.51 193.55 263.47 193.27 263.44 C 194.15 259.49 193.08 255.50 192.43 251.61 Z" />
<path fill="#f3722b" opacity="1.00" d=" M 7.01 259.85 C 9.96 259.70 12.99 259.08 15.93 259.70 C 18.40 260.80 20.84 262.00 23.46 262.74 C 25.61 265.25 28.20 267.31 31.07 268.94 C 41.33 276.00 51.96 282.55 61.76 290.25 C 69.67 297.45 78.29 304.05 84.99 312.44 C 80.66 312.53 76.34 312.62 72.01 312.53 C 68.44 312.56 65.60 310.07 62.46 308.74 C 53.65 304.20 43.95 301.97 34.51 299.17 C 25.80 296.35 16.75 294.19 7.54 294.38 C 7.40 293.20 7.26 292.03 7.12 290.86 C 9.26 291.02 11.40 291.26 13.51 291.66 C 13.38 290.83 13.24 290.01 13.10 289.19 C 20.04 289.41 26.65 291.81 33.41 293.18 C 42.10 294.84 50.02 298.97 58.16 302.17 C 62.20 301.87 65.58 303.94 68.89 305.94 C 65.77 302.39 61.87 299.70 58.08 296.93 C 48.74 289.85 39.18 283.07 29.44 276.55 C 22.80 269.89 13.31 266.89 7.01 259.85 Z" />
<path fill="#f4e4c0" opacity="1.00" d=" M 385.05 266.46 C 388.13 266.30 390.07 269.02 392.82 269.74 C 393.65 268.93 394.44 268.10 395.20 267.22 C 396.96 268.03 398.69 269.08 399.61 270.87 C 399.63 273.36 398.17 275.47 397.15 277.64 C 393.08 278.02 389.56 275.81 386.58 273.30 C 387.97 273.02 389.37 272.76 390.78 272.50 C 388.63 270.74 386.24 269.07 385.05 266.46 Z" />
<path fill="#f3722b" opacity="1.00" d=" M 447.98 269.12 C 453.67 268.23 459.49 267.77 465.18 268.99 C 471.30 269.43 477.30 270.92 482.90 273.44 C 484.44 273.95 485.29 275.34 486.10 276.67 C 483.06 277.09 480.51 275.46 477.90 274.25 C 482.77 277.27 487.28 280.77 491.84 284.23 C 493.89 285.96 495.52 288.54 495.38 291.32 C 493.42 292.05 492.16 290.15 490.93 289.05 C 485.92 283.62 479.34 279.86 472.48 277.28 C 460.14 271.78 446.07 270.45 432.82 272.86 C 427.56 273.61 422.21 273.52 416.99 274.65 L 417.88 273.28 C 427.59 270.24 437.85 269.37 447.98 269.12 Z" />
<path fill="#f3722b" opacity="1.00" d=" M 292.00 270.57 C 293.27 270.53 294.55 270.48 295.83 270.44 C 296.44 271.30 297.06 272.17 297.60 273.09 C 296.91 274.19 295.92 275.06 295.05 276.02 C 293.79 274.34 292.70 272.55 292.00 270.57 Z" />
<path fill="#f3722b" opacity="1.00" d=" M 274.68 274.89 C 279.26 273.67 283.93 272.68 288.66 272.18 C 288.47 272.56 288.09 273.33 287.90 273.71 C 288.63 274.89 289.36 276.08 290.09 277.28 C 285.94 278.18 281.94 279.64 277.79 280.52 C 276.24 279.19 274.05 277.10 274.68 274.89 Z" />
<path fill="#f4e4c0" opacity="1.00" d=" M 169.41 274.02 C 170.08 274.19 171.42 274.54 172.09 274.71 C 172.94 278.80 173.33 282.98 173.57 287.14 C 175.20 287.53 176.77 288.68 178.50 288.47 C 180.55 287.34 182.51 286.05 184.60 285.00 C 184.60 285.63 184.59 286.89 184.58 287.52 C 182.81 288.84 181.06 290.20 179.32 291.56 C 179.44 291.93 179.67 292.66 179.79 293.03 C 181.44 294.03 184.65 293.86 184.81 296.24 L 183.74 296.55 C 180.67 296.31 177.69 295.51 174.71 294.76 C 172.90 295.86 171.03 296.92 168.97 297.47 C 168.48 297.55 167.50 297.72 167.01 297.80 C 167.13 296.06 168.63 295.56 170.06 295.09 C 164.00 294.68 157.97 293.82 152.02 292.64 C 149.90 292.38 148.14 291.12 146.63 289.69 C 154.01 288.95 162.13 294.28 168.92 289.48 C 165.36 285.01 160.74 281.37 157.98 276.30 C 159.47 276.47 161.40 276.03 162.36 277.55 C 165.17 280.72 167.79 284.06 170.75 287.11 C 170.82 282.70 170.32 278.32 169.41 274.02 Z" />
<path fill="#f3722b" opacity="1.00" d=" M 420.69 276.42 C 425.68 276.56 430.43 278.24 435.15 279.75 C 440.95 281.84 446.76 284.28 451.49 288.33 C 451.54 288.97 451.64 290.26 451.69 290.90 C 446.71 290.81 442.79 287.36 438.25 285.83 C 431.32 283.43 424.19 280.83 416.73 281.43 C 416.52 280.91 416.10 279.89 415.88 279.37 C 417.16 279.15 418.45 278.94 419.74 278.73 C 419.97 278.15 420.45 276.99 420.69 276.42 Z" />
<path fill="#f4e4c0" opacity="1.00" d=" M 175.54 277.30 C 176.47 277.47 177.40 277.65 178.34 277.82 C 177.95 280.09 177.57 282.35 177.25 284.63 C 176.76 284.66 175.79 284.72 175.31 284.75 C 175.30 282.26 175.39 279.78 175.54 277.30 Z" />
<path fill="#3e3e3e" opacity="1.00" d=" M 233.90 283.79 C 234.89 281.41 236.16 279.15 237.63 277.03 C 237.96 282.07 236.52 286.97 235.81 291.91 C 235.15 296.51 234.39 301.09 233.36 305.63 C 230.85 305.80 228.38 305.34 225.98 304.66 C 227.91 297.45 231.04 290.66 233.90 283.79 Z" />
<path fill="#f3722b" opacity="1.00" d=" M 261.89 277.92 C 263.78 277.60 265.69 277.30 267.59 277.03 C 268.36 278.85 269.55 280.61 269.63 282.65 C 268.35 284.02 266.12 283.72 264.39 283.69 C 263.12 281.99 262.62 279.87 261.89 277.92 Z" />
<path fill="#f3722b" opacity="1.00" d=" M 353.87 288.63 C 361.39 285.79 368.97 282.87 377.00 281.85 C 381.01 284.69 386.07 283.73 390.53 282.71 C 391.59 286.09 387.79 287.76 386.30 290.24 C 380.57 298.31 375.51 306.86 370.53 315.41 C 361.78 332.46 353.33 349.66 344.73 366.79 C 341.89 372.20 339.74 377.96 336.53 383.18 C 336.29 380.45 335.86 377.56 337.14 375.01 C 339.72 369.13 341.85 363.08 344.13 357.09 C 352.45 341.10 360.33 324.88 368.96 309.06 C 364.10 313.51 359.94 318.65 355.40 323.41 C 351.70 327.44 347.53 331.12 344.69 335.85 C 338.11 346.51 331.59 357.22 324.94 367.82 C 322.95 373.50 318.66 377.88 316.20 383.31 C 313.52 388.91 309.85 393.93 306.82 399.33 C 305.64 399.01 304.47 398.68 303.30 398.36 C 305.51 393.11 306.63 387.39 309.69 382.52 C 313.16 376.64 316.52 370.69 319.32 364.46 C 326.45 354.36 332.39 343.47 338.85 332.94 C 346.25 322.51 354.11 312.42 361.62 302.08 C 355.59 305.50 348.78 307.82 343.75 312.77 C 332.72 322.75 321.12 332.13 310.48 342.53 C 304.98 346.60 300.29 351.61 294.99 355.93 C 289.05 361.33 282.64 366.50 278.72 373.67 C 270.77 384.46 263.20 395.55 254.92 406.08 C 252.85 403.74 255.17 401.38 256.26 399.26 C 261.21 391.14 265.52 382.63 270.69 374.65 C 278.41 365.12 285.71 355.08 295.15 347.13 C 299.77 342.47 304.47 337.88 309.19 333.31 C 315.32 328.07 320.44 321.74 326.84 316.80 C 336.58 309.49 346.42 302.30 356.18 295.02 C 347.85 296.27 339.74 298.81 331.96 302.00 C 322.74 304.05 316.07 311.26 308.46 316.34 C 305.27 318.30 302.76 321.74 298.75 321.98 C 301.13 317.61 305.97 315.72 309.20 312.16 C 311.30 309.87 314.37 308.80 316.38 306.40 C 318.14 304.38 320.49 303.04 322.87 301.86 C 332.67 296.32 343.15 292.04 353.87 288.63 Z" />
<path fill="#f3722b" opacity="1.00" d=" M 406.04 282.59 C 408.88 282.48 412.01 281.65 414.65 283.13 C 422.79 287.07 431.39 290.59 438.12 296.80 C 444.77 301.82 449.88 308.56 454.25 315.59 C 456.45 318.77 454.98 322.83 456.23 326.33 C 455.40 326.35 453.75 326.40 452.93 326.43 C 450.48 321.36 446.76 317.11 443.00 312.99 C 434.47 303.45 425.03 294.50 413.76 288.26 C 411.11 286.49 407.42 285.78 406.04 282.59 Z" />
<path fill="#f4e4c0" opacity="1.00" d=" M 107.58 296.08 C 111.76 292.49 115.92 288.90 119.98 285.18 C 119.10 288.09 118.16 290.99 117.11 293.85 C 116.44 295.62 115.90 297.43 115.37 299.26 L 114.88 301.01 C 121.26 299.62 127.51 297.68 133.87 296.15 C 126.68 301.40 119.12 306.12 111.83 311.23 C 114.72 312.74 117.99 313.07 121.16 313.61 C 114.32 318.83 106.79 323.05 99.82 328.09 C 98.37 325.27 97.39 322.17 95.58 319.55 C 90.85 317.63 85.40 317.71 81.10 314.69 C 84.61 314.98 88.96 316.60 91.92 314.12 C 88.26 308.49 84.12 302.76 83.04 295.97 C 88.65 298.06 93.97 300.85 99.39 303.38 C 101.02 301.95 102.63 300.48 104.27 299.05 C 105.40 298.09 106.50 297.09 107.58 296.08 Z" />
<path fill="#f4e4c0" opacity="1.00" d=" M 191.37 285.10 C 193.28 285.28 195.19 285.47 197.10 285.68 C 197.12 287.67 197.22 289.67 197.22 291.66 C 196.92 292.33 196.32 293.65 196.03 294.32 C 193.84 294.59 191.65 294.80 189.48 295.11 C 190.07 293.64 190.65 292.15 191.11 290.63 C 191.28 288.79 191.29 286.94 191.37 285.10 Z" />
<path fill="#f3722b" opacity="1.00" d=" M 400.04 287.28 C 401.54 287.29 403.06 287.32 404.57 287.35 C 409.98 293.72 417.70 298.45 420.76 306.54 C 424.10 313.68 427.96 320.57 431.16 327.78 C 435.37 339.62 438.11 351.91 441.39 364.02 C 442.45 368.35 443.98 372.61 444.46 377.06 C 444.33 379.69 441.52 380.49 439.70 381.71 C 437.21 374.75 437.06 367.24 434.86 360.21 C 431.75 350.77 428.11 341.51 425.09 332.04 C 423.89 328.03 421.16 324.76 418.37 321.74 C 418.93 326.89 420.58 331.83 421.52 336.91 C 423.53 346.63 427.50 356.01 427.66 366.06 C 428.13 372.36 428.51 378.67 428.64 384.99 C 429.54 393.96 430.00 403.01 429.65 412.02 C 427.66 414.93 424.87 417.67 421.14 417.91 C 421.24 414.60 421.38 411.30 421.45 408.00 C 420.82 407.79 419.56 407.36 418.93 407.14 C 419.36 406.76 420.22 406.01 420.66 405.63 C 420.65 395.77 420.79 385.90 420.60 376.05 C 418.97 361.97 415.76 348.13 411.74 334.55 C 409.02 323.17 405.17 312.09 400.89 301.21 C 400.30 299.86 400.33 298.38 400.25 296.95 C 405.07 295.50 401.28 290.19 400.04 287.28 Z" />
<path fill="#f4e4c0" opacity="1.00" d=" M 388.58 292.71 C 390.02 292.38 391.35 293.39 392.70 293.73 C 391.24 298.81 388.30 303.57 388.40 308.99 C 388.41 310.92 388.06 312.83 387.19 314.56 C 385.20 318.28 387.49 322.57 386.31 326.48 C 385.32 328.79 383.76 330.78 382.42 332.89 C 384.00 337.84 383.85 343.41 381.88 348.23 C 380.43 351.94 381.91 355.96 381.27 359.78 C 380.02 364.13 377.21 367.81 375.50 371.96 C 375.24 375.01 376.17 378.00 376.30 381.04 C 376.25 384.91 375.06 388.69 373.29 392.12 C 371.81 394.83 372.41 398.02 372.41 400.98 C 373.17 408.84 369.45 416.18 369.29 424.01 C 367.21 434.26 364.87 444.54 364.24 455.03 C 363.40 462.00 362.37 468.95 361.66 475.94 C 361.36 481.65 360.22 487.45 357.52 492.54 C 356.98 493.87 355.28 493.52 354.18 493.90 C 360.77 484.96 358.24 473.33 361.15 463.21 C 361.59 458.78 362.45 454.38 362.50 449.92 C 362.92 441.43 365.68 433.31 367.11 424.98 C 367.53 421.30 367.61 417.57 368.51 413.97 C 366.90 411.54 367.69 408.61 367.73 405.91 C 367.98 402.24 367.38 398.57 367.76 394.91 C 368.75 391.47 371.48 388.64 371.59 384.93 C 372.20 380.32 371.14 375.70 371.42 371.09 C 372.33 368.52 374.36 366.49 375.30 363.92 C 376.34 359.28 375.32 354.56 374.47 349.99 C 375.17 347.98 376.38 346.18 376.98 344.13 C 378.36 340.26 377.40 336.14 377.46 332.16 C 378.64 329.51 380.82 327.47 382.20 324.94 C 383.14 321.69 381.79 318.37 381.49 315.12 C 383.54 312.73 384.84 309.43 383.66 306.34 C 382.74 303.69 385.19 301.55 385.63 299.06 C 386.53 296.93 386.01 293.74 388.58 292.71 Z" />
<path fill="#3e3e3e" opacity="1.00" d=" M 168.97 297.47 C 171.03 296.92 172.90 295.86 174.71 294.76 C 177.69 295.51 180.67 296.31 183.74 296.55 C 178.89 297.67 173.88 296.91 168.97 297.47 Z" />
<path fill="#f3722b" opacity="1.00" d=" M 300.30 299.50 C 301.85 298.40 303.81 298.18 305.66 298.32 C 307.64 300.64 308.97 303.45 309.84 306.36 C 308.80 307.08 307.77 307.81 306.75 308.54 C 304.57 305.57 301.60 303.02 300.30 299.50 Z" />
<path fill="#3e3e3e" opacity="1.00" d=" M 212.11 299.06 C 215.93 298.19 219.87 298.46 223.75 298.65 C 223.02 300.61 222.26 302.57 221.48 304.53 C 215.67 304.65 209.84 304.41 204.06 305.12 C 201.90 305.22 199.57 305.74 197.53 304.77 C 196.97 303.65 196.43 302.53 195.91 301.40 C 201.29 300.49 206.77 300.27 212.11 299.06 Z" />
<path fill="#f4e4c0" opacity="1.00" d=" M 190.05 302.85 C 191.30 300.93 193.98 301.76 195.91 301.40 C 196.43 302.53 196.97 303.65 197.53 304.77 C 195.02 304.38 191.48 305.67 190.05 302.85 Z" />
<path fill="#f3722b" opacity="1.00" d=" M 291.99 302.44 C 294.07 302.05 296.22 300.98 298.36 301.70 C 298.74 303.17 297.98 304.55 297.70 305.97 C 298.52 308.36 300.44 310.33 300.83 312.86 C 300.93 314.80 298.83 315.42 297.42 316.05 C 296.27 311.24 293.04 307.27 291.99 302.44 Z" />
<path fill="#f3722b" opacity="1.00" d=" M 7.14 305.60 C 7.14 304.19 6.83 302.66 7.75 301.44 C 15.08 301.17 22.40 302.03 29.70 302.57 C 35.49 303.46 41.48 303.52 47.00 305.70 C 50.72 307.12 54.69 307.57 58.54 308.48 C 65.45 311.04 71.91 314.71 78.97 316.88 C 82.12 318.17 85.83 318.55 88.31 321.09 C 81.07 322.38 74.00 324.40 66.80 325.83 C 53.37 330.98 39.01 334.06 26.57 341.54 C 22.59 343.85 18.33 345.81 14.91 348.96 C 12.61 351.07 10.12 352.97 7.28 354.31 C 7.26 351.46 7.28 348.63 7.29 345.79 C 13.14 342.39 19.13 339.23 25.33 336.53 C 31.84 333.50 38.13 329.97 44.88 327.47 C 50.38 325.17 56.45 325.10 62.11 323.33 C 56.70 323.26 51.26 323.55 45.97 324.75 C 35.27 327.12 24.32 328.56 13.89 332.05 C 11.74 332.64 9.50 332.78 7.29 333.04 C 7.34 332.27 7.44 330.73 7.49 329.96 C 15.97 327.42 24.47 324.98 33.03 322.72 C 39.82 320.29 46.93 318.92 54.04 317.82 C 59.99 317.37 65.96 317.81 71.91 317.44 C 63.28 315.01 54.97 311.19 45.96 310.30 C 33.03 308.62 20.15 306.50 7.14 305.60 Z" />
<path fill="#f4e4c0" opacity="1.00" d=" M 233.72 307.31 C 236.39 305.30 239.44 303.92 242.56 302.78 C 242.48 304.51 242.38 306.23 242.28 307.96 C 239.43 307.70 236.57 307.56 233.72 307.31 Z" />
<path fill="#f4e4c0" opacity="1.00" d=" M 193.35 309.20 C 195.33 309.33 197.31 309.41 199.30 309.45 C 199.48 310.38 199.65 311.30 199.83 312.24 C 200.88 312.71 201.92 313.18 202.97 313.66 C 200.04 317.17 197.59 321.21 197.29 325.89 C 195.78 325.38 194.27 324.89 192.76 324.41 C 194.06 319.43 193.56 314.27 193.35 309.20 Z" />
<path fill="#3e3e3e" opacity="1.00" d=" M 199.30 309.45 C 205.90 309.21 212.47 309.85 218.93 311.18 C 217.69 318.51 214.18 325.23 213.22 332.61 C 214.81 332.48 216.38 332.28 217.96 332.02 C 220.20 325.43 221.13 318.44 223.01 311.73 C 226.24 311.78 229.47 311.92 232.66 312.45 C 232.60 315.03 232.58 317.61 232.47 320.19 C 232.45 319.33 232.43 317.61 232.42 316.75 C 231.95 316.61 231.49 316.48 231.03 316.37 C 231.80 319.13 231.57 322.01 231.40 324.84 C 232.02 325.05 233.25 325.45 233.86 325.66 C 233.48 329.91 233.59 334.19 233.02 338.43 C 231.83 344.80 230.62 351.19 230.29 357.67 C 228.08 360.08 225.63 362.25 222.91 364.05 C 224.97 360.12 228.11 356.92 230.34 353.10 C 225.59 353.45 223.38 358.28 220.01 361.00 C 218.62 359.79 217.23 358.58 215.83 357.39 C 215.45 356.00 215.07 354.62 214.68 353.25 C 214.08 353.23 212.87 353.19 212.26 353.17 C 210.72 357.32 209.87 361.70 210.47 366.13 C 207.54 363.32 204.59 360.53 201.51 357.88 C 201.48 350.50 199.96 343.22 200.28 335.82 C 205.34 338.56 211.09 339.50 216.50 341.35 C 219.06 342.43 221.20 340.17 223.30 339.07 C 215.29 333.48 206.29 329.55 197.29 325.89 C 197.59 321.21 200.04 317.17 202.97 313.66 C 201.92 313.18 200.88 312.71 199.83 312.24 C 199.65 311.30 199.48 310.38 199.30 309.45 Z" />
<path fill="#f4e4c0" opacity="1.00" d=" M 232.66 312.45 C 235.34 312.89 238.01 313.38 240.65 314.01 C 240.84 320.06 238.90 325.93 239.34 332.00 C 240.16 339.49 236.62 346.53 237.24 354.05 C 239.93 352.29 242.65 349.95 246.12 350.56 C 243.16 352.85 239.55 354.23 236.90 356.92 C 235.74 358.60 235.66 360.77 235.15 362.71 C 240.21 362.88 244.91 360.58 249.92 360.35 C 256.01 359.98 262.37 358.48 268.26 360.84 C 257.40 362.76 246.25 363.89 235.48 366.66 C 235.59 370.45 235.59 374.26 234.94 378.00 C 233.90 383.79 235.15 389.81 233.24 395.46 C 231.08 395.44 228.92 395.39 226.76 395.30 C 226.71 386.55 228.88 377.88 228.42 369.08 C 225.25 370.19 222.18 371.55 219.12 372.92 C 217.94 374.18 217.16 376.95 214.96 376.35 C 211.47 374.85 208.42 372.48 205.01 370.82 C 206.27 370.06 207.56 369.33 208.78 368.49 C 206.68 365.91 203.98 363.93 201.45 361.81 C 201.49 366.84 201.75 371.87 201.38 376.89 C 200.09 375.84 198.80 374.82 197.51 373.79 C 197.31 368.86 197.91 363.83 196.97 358.97 C 193.23 352.87 183.98 352.62 180.76 346.06 C 186.33 348.46 191.04 352.41 196.53 354.98 C 196.55 351.27 196.45 347.55 196.60 343.85 C 196.62 343.36 196.64 342.40 196.65 341.92 C 196.41 341.70 195.91 341.26 195.67 341.04 C 195.57 338.45 195.44 335.86 195.31 333.27 C 196.99 334.07 198.62 334.96 200.28 335.82 C 199.96 343.22 201.48 350.50 201.51 357.88 C 204.59 360.53 207.54 363.32 210.47 366.13 C 209.87 361.70 210.72 357.32 212.26 353.17 C 212.87 353.19 214.08 353.23 214.68 353.25 C 215.07 354.62 215.45 356.00 215.83 357.39 C 217.23 358.58 218.62 359.79 220.01 361.00 C 223.38 358.28 225.59 353.45 230.34 353.10 C 228.11 356.92 224.97 360.12 222.91 364.05 C 225.63 362.25 228.08 360.08 230.29 357.67 C 230.62 351.19 231.83 344.80 233.02 338.43 C 233.59 334.19 233.48 329.91 233.86 325.66 C 233.25 325.45 232.02 325.05 231.40 324.84 C 231.57 322.01 231.80 319.13 231.03 316.37 C 231.49 316.48 231.95 316.61 232.42 316.75 C 232.43 317.61 232.45 319.33 232.47 320.19 C 232.58 317.61 232.60 315.03 232.66 312.45 Z" />
<path fill="#f3722b" opacity="1.00" d=" M 117.76 321.95 C 121.75 319.42 125.57 316.46 130.02 314.78 C 136.34 314.27 142.73 314.36 149.03 315.18 C 164.01 315.75 178.65 319.58 192.76 324.41 C 194.27 324.89 195.78 325.38 197.29 325.89 C 206.29 329.55 215.29 333.48 223.30 339.07 C 221.20 340.17 219.06 342.43 216.50 341.35 C 211.09 339.50 205.34 338.56 200.28 335.82 C 198.62 334.96 196.99 334.07 195.31 333.27 C 187.63 329.47 179.06 328.19 171.17 324.97 C 163.75 322.11 155.71 321.83 147.91 320.83 C 145.17 320.47 142.40 320.55 139.66 320.87 C 144.13 321.70 148.91 320.76 153.08 322.92 C 158.76 325.61 165.35 325.02 171.01 327.76 C 176.01 330.12 181.63 331.34 186.07 334.79 C 189.10 337.13 192.42 339.03 195.67 341.04 C 195.91 341.26 196.41 341.70 196.65 341.92 C 196.64 342.40 196.62 343.36 196.60 343.85 C 190.35 343.97 185.11 340.38 179.50 338.21 C 173.20 335.64 167.26 332.12 160.60 330.50 C 151.75 328.34 142.93 325.70 133.79 325.19 C 138.73 329.57 141.38 335.66 144.51 341.33 C 152.43 344.34 159.13 349.65 166.61 353.52 C 177.24 359.74 187.75 366.27 197.51 373.79 C 198.80 374.82 200.09 375.84 201.38 376.89 C 206.05 381.18 211.12 384.99 215.99 389.05 C 217.31 390.08 218.35 391.43 219.23 392.85 C 215.27 393.89 214.01 389.61 211.40 387.70 C 208.12 385.09 204.80 382.54 201.60 379.85 C 200.13 378.67 198.65 377.52 197.23 376.31 C 192.39 371.71 186.68 368.15 180.91 364.86 C 186.25 369.93 192.12 374.40 197.47 379.47 C 198.44 381.45 199.90 383.12 201.40 384.73 C 205.10 388.73 207.86 393.49 211.44 397.59 C 213.73 400.31 216.27 402.90 217.88 406.12 C 217.44 406.17 216.56 406.28 216.12 406.33 C 213.74 403.86 211.86 400.97 209.52 398.46 C 206.71 395.48 205.01 391.52 201.59 389.12 C 200.77 387.07 199.23 385.46 197.66 383.97 C 196.74 397.99 198.12 412.01 198.34 426.03 C 198.70 430.75 199.09 435.50 198.55 440.23 C 197.46 431.54 197.86 422.74 197.50 414.00 C 196.16 404.05 197.09 394.00 196.65 384.00 C 196.71 381.67 194.83 380.08 193.43 378.48 C 187.29 372.25 180.01 367.31 173.34 361.68 C 168.69 357.81 163.30 354.97 158.17 351.81 C 149.23 346.00 139.63 340.81 129.21 338.30 C 129.20 337.76 129.20 336.67 129.19 336.13 C 131.91 336.39 134.57 337.00 137.21 337.66 C 132.95 330.25 125.11 325.81 117.76 321.95 Z" />
<path fill="#f3722b" opacity="1.00" d=" M 314.06 320.77 C 314.01 318.41 314.96 316.33 317.55 316.18 C 317.46 317.52 317.37 318.86 317.28 320.21 C 316.20 320.39 315.13 320.58 314.06 320.77 Z" />
<path fill="#3e3e3e" opacity="1.00" d=" M 139.66 320.87 C 142.40 320.55 145.17 320.47 147.91 320.83 C 155.71 321.83 163.75 322.11 171.17 324.97 C 179.06 328.19 187.63 329.47 195.31 333.27 C 195.44 335.86 195.57 338.45 195.67 341.04 C 192.42 339.03 189.10 337.13 186.07 334.79 C 181.63 331.34 176.01 330.12 171.01 327.76 C 165.35 325.02 158.76 325.61 153.08 322.92 C 148.91 320.76 144.13 321.70 139.66 320.87 Z" />
<path fill="#3e3e3e" opacity="1.00" d=" M 133.79 325.19 C 142.93 325.70 151.75 328.34 160.60 330.50 C 167.26 332.12 173.20 335.64 179.50 338.21 C 185.11 340.38 190.35 343.97 196.60 343.85 C 196.45 347.55 196.55 351.27 196.53 354.98 C 191.04 352.41 186.33 348.46 180.76 346.06 C 183.98 352.62 193.23 352.87 196.97 358.97 C 197.91 363.83 197.31 368.86 197.51 373.79 C 187.75 366.27 177.24 359.74 166.61 353.52 C 159.13 349.65 152.43 344.34 144.51 341.33 C 141.38 335.66 138.73 329.57 133.79 325.19 Z" />
<path fill="#f3722b" opacity="1.00" d=" M 303.21 330.75 C 302.97 328.06 303.41 325.50 306.52 324.89 C 306.58 326.72 306.58 328.56 306.52 330.40 C 305.41 330.52 304.31 330.63 303.21 330.75 Z" />
<path fill="#f3722b" opacity="1.00" d=" M 80.86 328.81 C 83.82 326.96 87.49 327.09 90.81 327.65 C 87.26 330.54 83.23 332.78 79.77 335.79 C 76.48 338.50 74.57 342.57 70.87 344.84 C 66.45 347.70 63.28 351.96 59.49 355.52 C 55.26 359.63 51.35 364.09 47.97 368.93 C 43.82 374.85 38.97 380.33 35.75 386.86 C 35.36 388.48 33.34 388.77 32.17 387.75 C 33.84 383.00 37.23 379.15 40.00 375.03 C 45.63 366.80 51.83 358.91 59.08 352.04 C 56.61 352.23 53.91 352.26 52.03 354.14 C 46.01 359.08 39.66 363.72 34.54 369.65 C 29.12 375.86 23.64 382.06 18.86 388.80 C 16.81 391.63 15.12 395.05 11.88 396.72 C 10.23 396.18 8.68 395.41 7.09 394.72 C 7.40 393.00 7.72 391.22 8.88 389.84 C 14.31 382.31 19.31 374.43 25.49 367.47 C 27.23 364.97 30.65 365.53 32.92 363.90 C 37.69 360.41 41.68 355.94 46.64 352.71 C 48.88 351.24 50.99 349.58 52.85 347.65 C 55.81 344.54 59.69 342.57 63.18 340.14 C 69.07 336.36 74.82 332.35 80.86 328.81 Z" />
<path fill="#f3722b" opacity="1.00" d=" M 107.59 329.06 C 106.78 326.46 110.54 327.54 111.65 328.25 C 116.51 330.99 119.38 336.00 122.52 340.42 C 131.29 355.64 137.58 372.11 143.70 388.53 C 144.82 394.33 147.33 399.81 147.91 405.72 C 146.92 406.01 145.93 406.31 144.94 406.62 C 144.74 408.32 142.31 409.71 141.50 407.62 C 140.44 404.84 140.66 401.77 139.77 398.95 C 136.59 388.89 134.34 378.53 129.95 368.88 C 126.39 357.48 120.00 347.34 113.98 337.13 C 112.40 334.01 109.60 331.85 107.59 329.06 Z" />
<path fill="#f3722b" opacity="1.00" d=" M 86.54 333.54 C 87.97 331.32 90.78 332.51 92.93 332.39 C 93.70 341.59 88.23 349.37 85.65 357.82 C 82.67 365.42 80.92 373.41 78.16 381.09 C 76.90 385.59 76.38 390.26 75.19 394.79 C 71.84 408.01 69.79 421.51 67.34 434.92 C 64.88 453.67 62.40 472.43 59.40 491.11 C 57.84 490.33 55.76 490.07 54.71 488.59 C 54.31 481.69 53.24 474.83 53.41 467.90 C 52.98 462.16 52.02 456.45 52.44 450.66 C 53.83 450.28 55.21 449.90 56.60 449.53 C 60.05 434.60 62.70 419.50 65.57 404.45 C 65.39 404.43 65.04 404.39 64.86 404.37 C 60.46 418.94 53.91 432.82 50.27 447.63 C 49.52 447.58 48.02 447.49 47.27 447.44 L 46.77 447.75 C 45.07 451.06 43.06 454.24 41.87 457.79 C 37.64 471.08 34.50 484.71 30.17 497.96 C 28.71 496.19 25.60 494.75 26.52 491.99 C 29.50 477.90 32.74 463.86 35.87 449.80 C 36.75 445.33 38.26 441.03 39.89 436.79 C 45.28 422.51 50.22 408.05 55.83 393.85 C 53.93 391.20 51.69 388.78 50.08 385.94 C 51.25 382.20 53.74 379.08 55.54 375.65 C 59.93 368.39 63.28 360.39 69.12 354.11 C 75.00 347.32 80.59 340.27 86.54 333.54 Z" />
<path fill="#f3722b" opacity="1.00" d=" M 99.36 335.51 C 102.37 336.17 105.36 336.96 108.35 337.74 C 117.61 358.26 124.50 379.71 131.94 400.92 C 135.62 410.60 136.83 420.95 139.43 430.93 C 143.86 447.16 145.02 464.00 147.35 480.60 C 142.54 481.25 141.90 475.74 140.32 472.50 C 137.11 465.52 138.16 457.44 135.53 450.36 C 132.27 446.59 134.03 441.46 132.79 437.02 C 129.61 422.45 126.03 407.97 122.16 393.57 C 119.62 383.76 115.73 374.39 112.31 364.88 C 111.60 362.89 110.64 361.01 109.57 359.20 C 110.00 368.14 109.11 377.13 110.32 386.03 C 111.85 397.63 112.73 409.31 113.03 421.01 C 114.96 434.99 112.80 449.03 112.40 463.03 C 112.28 466.49 111.89 469.93 111.53 473.38 C 109.57 472.08 107.42 470.92 105.94 469.05 C 104.04 463.57 104.47 457.65 104.20 451.95 C 101.62 417.94 104.79 383.78 102.29 349.79 C 101.40 345.01 99.93 340.35 99.36 335.51 Z" />
<path fill="#f3722b" opacity="1.00" d=" M 458.35 347.05 C 457.85 344.34 456.12 341.24 457.89 338.67 C 459.84 338.16 461.95 339.17 462.75 341.02 C 465.39 346.37 466.23 352.49 465.55 358.39 C 463.86 358.05 461.11 358.84 460.28 356.84 C 459.37 353.63 459.40 350.23 458.35 347.05 Z" />
<path fill="#f3722b" opacity="1.00" d=" M 311.30 349.84 C 312.52 348.77 313.76 347.73 314.99 346.68 C 316.33 349.72 318.07 352.67 318.69 355.97 C 319.02 358.48 317.03 360.65 314.62 360.97 C 313.63 357.22 312.58 353.50 311.30 349.84 Z" />
<path fill="#f3722b" opacity="1.00" d=" M 286.64 373.67 C 290.03 369.98 293.18 366.02 297.20 362.98 C 297.74 364.84 298.29 366.71 298.84 368.57 C 297.94 368.51 296.14 368.37 295.24 368.31 C 295.22 371.71 295.23 375.12 295.37 378.53 C 294.36 379.26 293.36 379.99 292.36 380.73 C 292.33 384.02 292.36 387.31 292.49 390.60 C 291.23 390.60 289.98 390.60 288.73 390.61 C 287.33 385.05 286.06 379.46 286.64 373.67 Z" />
<path fill="#3e3e3e" opacity="1.00" d=" M 180.91 364.86 C 186.68 368.15 192.39 371.71 197.23 376.31 C 197.29 377.10 197.41 378.68 197.47 379.47 C 192.12 374.40 186.25 369.93 180.91 364.86 Z" />
<path fill="#f3722b" opacity="1.00" d=" M 323.43 383.10 C 322.65 379.81 324.90 376.97 326.10 374.11 C 327.95 383.74 331.75 393.03 332.70 402.87 C 330.48 402.64 328.40 401.88 326.41 400.92 C 327.43 394.76 324.51 389.02 323.43 383.10 Z" />
<path fill="#f4e4c0" opacity="1.00" d=" M 197.23 376.31 C 198.65 377.52 200.13 378.67 201.60 379.85 C 201.55 381.47 201.48 383.10 201.40 384.73 C 199.90 383.12 198.44 381.45 197.47 379.47 C 197.41 378.68 197.29 377.10 197.23 376.31 Z" />
<path fill="#f4e4c0" opacity="1.00" d=" M 197.66 383.97 C 199.23 385.46 200.77 387.07 201.59 389.12 C 201.99 397.06 202.81 405.03 201.80 412.97 C 202.30 417.29 202.28 421.62 202.41 425.96 C 204.51 433.85 203.13 442.07 203.85 450.11 C 204.29 451.18 204.79 452.22 205.37 453.24 C 204.29 461.09 204.82 469.06 204.55 476.96 C 205.04 480.89 203.18 484.57 203.48 488.49 C 203.01 488.84 202.08 489.55 201.61 489.90 C 200.80 492.31 200.50 494.83 200.41 497.37 C 198.95 497.45 197.49 497.53 196.04 497.61 C 198.89 489.05 198.21 479.84 198.36 470.95 C 198.70 460.71 198.32 450.46 198.55 440.23 C 199.09 435.50 198.70 430.75 198.34 426.03 C 198.12 412.01 196.74 397.99 197.66 383.97 Z" />
<path fill="#f4e4c0" opacity="1.00" d=" M 225.64 401.71 C 227.97 401.57 230.31 401.51 232.66 401.51 C 232.66 403.97 232.56 406.43 232.44 408.90 C 229.61 407.25 224.57 405.99 225.64 401.71 Z" />
<path fill="#f3722b" opacity="1.00" d=" M 445.27 401.47 C 445.87 401.46 447.06 401.46 447.66 401.46 C 447.64 402.46 447.63 403.47 447.63 404.48 C 447.07 404.47 445.96 404.44 445.40 404.42 C 445.35 403.43 445.31 402.45 445.27 401.47 Z" />
<path fill="#f4e4c0" opacity="1.00" d=" M 224.41 410.80 C 226.80 411.68 228.86 413.19 230.74 414.87 C 228.74 416.13 226.66 417.33 224.33 417.87 C 224.27 415.51 224.31 413.15 224.41 410.80 Z" />
<path fill="#f3722b" opacity="1.00" d=" M 296.10 416.82 C 297.63 414.82 298.93 418.70 298.48 419.95 C 298.06 424.86 295.84 429.41 293.56 433.71 C 291.86 434.22 291.27 432.16 290.55 431.07 C 290.89 425.98 292.75 420.68 296.10 416.82 Z" />
<path fill="#f4e4c0" opacity="1.00" d=" M 224.26 427.11 C 226.24 425.26 228.45 423.66 230.60 422.03 C 230.65 426.74 230.18 431.49 231.35 436.12 C 230.64 439.16 230.23 442.25 230.41 445.38 C 228.17 445.47 225.90 445.50 223.78 444.67 C 223.98 440.92 222.78 437.33 222.50 433.63 C 223.13 432.81 223.77 431.99 224.41 431.18 C 223.93 429.92 222.49 428.05 224.26 427.11 Z" />
<path fill="#f3722b" opacity="1.00" d=" M 156.09 438.33 C 157.46 438.43 158.83 438.55 160.21 438.67 C 164.72 444.47 165.21 452.03 166.38 459.01 C 167.01 461.32 164.86 462.51 163.11 463.28 C 162.46 463.00 161.16 462.44 160.51 462.16 C 161.46 453.86 157.97 446.19 156.09 438.33 Z" />
<path fill="#f3722b" opacity="1.00" d=" M 413.81 458.07 C 414.93 454.90 413.72 450.37 416.93 448.33 C 419.64 450.24 418.08 453.72 417.68 456.36 C 416.41 463.35 413.68 469.97 412.63 477.01 C 411.55 476.85 410.52 476.58 409.53 476.20 C 408.85 469.82 412.97 464.27 413.81 458.07 Z" />
<path fill="#f3722b" opacity="1.00" d=" M 430.59 461.11 C 431.15 461.18 432.26 461.31 432.81 461.38 C 432.17 464.61 430.87 467.65 429.37 470.57 C 428.79 470.63 427.64 470.74 427.06 470.79 C 428.50 467.67 429.69 464.43 430.59 461.11 Z" />
<path fill="#f3722b" opacity="1.00" d=" M 98.26 469.16 C 99.56 467.62 101.81 470.00 100.54 471.37 C 99.25 472.72 96.96 470.52 98.26 469.16 Z" />
<path fill="#f3722b" opacity="1.00" d=" M 123.79 472.06 C 125.52 471.23 128.32 471.89 128.43 474.12 C 129.02 477.36 130.51 480.42 130.73 483.73 C 128.84 485.29 126.98 483.24 126.34 481.50 C 125.08 478.55 123.13 475.35 123.79 472.06 Z" />
</svg>
