<?xml version="1.0" encoding="UTF-8" ?>
<!DOCTYPE svg PUBLIC "-//W3C//DTD SVG 1.1//EN" "http://www.w3.org/Graphics/SVG/1.1/DTD/svg11.dtd">
<svg width="512pt" height="512pt" viewBox="0 0 512 512" version="1.1" xmlns="http://www.w3.org/2000/svg">
<path fill="#3e3e3e" opacity="1.00" d=" M 0.00 0.00 L 512.00 0.00 L 512.00 512.00 L 0.00 512.00 L 0.00 0.00 Z" />
<path fill="#f4722b" opacity="1.00" d=" M 241.03 51.81 C 254.72 47.48 270.48 53.06 278.80 64.67 C 273.51 64.64 268.30 63.55 263.02 63.52 C 248.65 63.12 234.29 65.18 220.38 68.71 C 224.88 60.77 232.18 54.35 241.03 51.81 Z" />
<path fill="#f4722b" opacity="1.00" d=" M 289.28 65.67 C 295.20 62.00 301.94 59.33 309.01 59.48 C 320.43 59.38 331.82 65.46 337.89 75.19 C 341.39 80.50 343.10 86.82 343.49 93.13 C 340.73 91.40 338.18 89.39 335.57 87.46 C 321.62 77.90 305.95 70.70 289.40 67.12 C 289.37 66.76 289.31 66.03 289.28 65.67 Z" />
<path fill="#f4722b" opacity="1.00" d=" M 184.79 67.54 C 193.63 65.10 203.22 66.67 211.21 71.05 C 197.75 75.74 184.58 81.55 172.90 89.82 C 168.21 93.02 163.96 96.79 159.45 100.23 C 159.46 85.28 170.29 71.22 184.79 67.54 Z" />
<path fill="#f4722b" opacity="1.00" d=" M 238.67 72.18 C 259.46 69.81 280.83 72.00 300.48 79.33 C 332.88 91.05 360.12 116.14 374.58 147.38 C 390.79 181.94 391.00 223.59 375.16 258.32 C 362.63 286.12 340.05 309.26 312.58 322.51 C 277.00 339.92 233.52 340.17 197.81 322.96 C 171.60 310.66 149.80 289.35 136.73 263.53 C 126.66 243.66 121.73 221.24 122.49 198.99 C 123.39 172.10 132.58 145.45 148.88 124.00 C 170.05 95.40 203.35 76.30 238.67 72.18 Z" />
<path fill="#3e3e3e" opacity="1.00" d=" M 243.25 100.35 C 277.39 96.51 313.01 112.17 333.36 139.86 C 346.13 156.80 353.09 177.88 353.42 199.06 C 353.44 218.07 348.29 237.16 338.09 253.26 C 324.47 275.53 301.53 291.68 276.16 297.58 C 259.86 301.46 242.65 301.16 226.51 296.66 C 203.15 290.31 182.19 275.23 169.14 254.79 C 153.87 231.53 148.95 201.73 156.14 174.83 C 160.16 158.75 168.52 143.95 179.62 131.70 C 196.15 114.08 219.13 102.50 243.25 100.35 Z" />
<path fill="#f4722b" opacity="1.00" d=" M 350.85 99.64 C 361.69 98.48 372.97 102.57 380.18 110.82 C 389.99 121.04 391.45 137.35 385.29 149.83 C 384.96 149.69 384.31 149.39 383.98 149.25 C 377.07 130.38 365.15 113.63 350.85 99.64 Z" />
<path fill="#f4722b" opacity="1.00" d=" M 118.08 126.19 C 123.93 113.02 138.78 104.77 153.06 106.65 C 138.40 121.85 127.63 140.55 121.12 160.59 C 114.42 150.62 113.06 137.15 118.08 126.19 Z" />
<path fill="#f5e5c1" opacity="1.00" d=" M 229.92 112.84 C 240.67 109.89 251.89 109.91 262.94 110.48 C 267.37 110.86 271.71 111.94 276.05 112.85 C 304.99 120.24 329.38 142.80 338.90 171.12 C 350.00 202.99 341.89 240.98 317.55 264.63 C 294.83 288.51 258.44 297.39 227.03 287.93 C 212.47 283.58 198.94 275.64 188.40 264.65 C 174.30 250.97 165.74 232.29 162.77 213.00 C 161.55 198.91 162.26 184.49 167.05 171.07 C 176.59 142.76 200.98 120.21 229.92 112.84 Z" />
<path fill="#3e3e3e" opacity="1.00" d=" M 235.18 123.28 C 242.50 121.91 249.68 119.64 257.13 119.08 C 263.43 119.28 268.76 123.05 274.35 125.49 C 279.56 127.57 280.92 133.63 282.35 138.45 C 285.31 138.81 288.38 138.89 291.20 139.96 C 294.35 141.56 296.60 144.41 299.11 146.82 C 301.25 149.13 304.01 151.28 304.67 154.54 C 305.25 157.19 305.08 159.93 305.09 162.64 C 309.13 163.26 313.81 163.99 316.34 167.61 C 319.02 171.52 322.40 175.01 324.44 179.32 C 326.24 183.28 324.72 187.52 324.00 191.54 C 329.36 195.02 332.48 200.74 336.34 205.66 C 340.21 210.71 338.18 217.21 337.28 222.87 C 335.98 228.08 335.86 234.54 331.00 237.92 C 316.79 249.07 302.39 260.01 288.05 271.02 C 284.04 274.19 279.63 278.58 274.01 277.17 C 265.60 275.10 258.67 269.35 250.55 266.48 C 242.21 262.53 233.73 258.82 225.64 254.36 C 221.58 252.65 216.95 251.53 213.98 248.02 C 210.07 243.33 206.30 238.51 202.22 233.97 C 199.26 235.05 196.12 236.73 192.90 235.78 C 188.40 235.07 186.10 230.73 183.34 227.64 C 179.98 223.42 173.91 222.67 170.61 218.43 C 168.70 214.66 168.56 210.24 166.65 206.45 C 164.13 201.20 163.55 194.79 166.63 189.63 C 170.76 182.37 171.32 172.67 178.55 167.48 C 188.49 161.14 198.35 154.66 208.28 148.30 C 214.41 144.93 217.96 138.66 222.85 133.89 C 226.72 130.16 229.40 124.32 235.18 123.28 Z" />
<path fill="#f4722b" opacity="1.00" d=" M 238.37 131.67 C 243.55 130.54 248.74 129.41 253.94 128.40 C 260.35 126.77 265.54 131.92 271.17 134.02 C 272.78 138.04 273.67 142.39 275.90 146.14 C 279.63 147.68 283.83 147.16 287.66 148.30 C 290.74 150.57 293.07 153.68 295.82 156.30 C 295.90 160.48 295.13 164.71 295.86 168.85 C 299.19 171.85 304.44 171.03 308.56 172.42 C 311.14 176.01 313.79 179.57 316.53 183.05 C 315.86 188.01 314.21 192.89 314.20 197.92 C 314.87 200.94 318.93 200.03 321.26 200.51 C 324.19 204.39 327.01 208.35 329.94 212.25 C 328.80 218.22 327.61 224.18 326.38 230.13 C 309.61 242.98 292.93 255.94 276.14 268.77 C 271.03 266.24 265.79 263.99 260.76 261.29 C 270.52 250.89 280.08 240.30 289.82 229.88 C 290.94 228.70 292.61 226.44 290.84 225.10 C 289.57 223.35 287.13 224.58 286.09 225.97 C 275.98 236.96 265.83 247.93 255.72 258.92 C 247.82 255.39 240.16 251.35 232.24 247.85 C 242.94 235.70 254.21 224.06 265.08 212.06 C 267.58 209.22 270.54 206.76 272.61 203.58 C 273.82 201.56 271.42 200.23 270.11 199.21 C 265.32 203.43 261.36 208.45 256.93 213.02 C 246.95 223.76 237.06 234.59 227.04 245.30 C 224.36 243.99 221.38 242.92 219.47 240.49 C 215.65 235.94 212.01 231.24 208.10 226.75 C 221.97 212.06 236.07 197.59 249.94 182.91 C 251.38 181.70 251.55 179.91 250.35 178.44 C 246.87 176.95 244.80 180.75 242.68 182.75 C 230.51 195.45 218.49 208.30 206.13 220.81 C 203.94 214.82 201.32 209.02 198.98 203.10 C 203.42 194.06 207.57 184.88 212.02 175.84 C 213.63 172.12 216.85 168.19 214.17 164.16 C 212.19 165.14 210.22 166.36 209.48 168.57 C 204.07 180.13 198.40 191.58 193.05 203.17 C 196.05 210.08 198.87 217.07 201.78 224.02 C 199.46 225.08 197.14 226.16 194.84 227.25 C 191.18 223.57 188.59 218.54 183.64 216.37 C 181.54 215.03 178.23 214.53 177.68 211.69 C 176.38 206.82 174.82 202.01 173.41 197.18 C 176.06 190.84 178.73 184.50 181.23 178.09 C 181.91 175.94 183.98 174.85 185.72 173.67 C 195.27 167.58 204.69 161.30 214.23 155.20 C 216.44 153.81 218.56 152.25 220.29 150.27 C 224.66 145.32 229.11 140.43 233.45 135.45 C 234.88 133.97 236.21 132.07 238.37 131.67 Z" />
<path fill="#f4722b" opacity="1.00" d=" M 387.64 159.17 C 397.16 162.33 405.50 169.39 409.27 178.79 C 412.00 184.77 412.06 191.53 411.41 197.96 C 409.78 208.55 402.49 217.53 393.30 222.71 C 396.04 201.44 394.16 179.61 387.64 159.17 Z" />
<path fill="#f4722b" opacity="1.00" d=" M 99.07 201.95 C 97.87 188.22 106.33 174.62 118.77 168.98 C 113.98 188.96 112.89 209.83 116.40 230.11 C 106.64 224.13 99.27 213.64 99.07 201.95 Z" />
<path fill="#f4722b" opacity="1.00" d=" M 391.96 230.01 C 399.12 238.10 402.17 249.66 399.69 260.20 C 396.51 274.78 382.84 286.52 367.79 286.68 C 378.83 269.27 388.18 250.43 391.96 230.01 Z" />
<path fill="#f4722b" opacity="1.00" d=" M 113.69 257.06 C 113.66 251.00 115.75 245.20 118.22 239.75 C 120.35 244.66 121.49 249.92 123.56 254.85 C 128.69 268.08 136.09 280.37 144.98 291.40 C 135.86 290.31 127.04 285.95 121.32 278.66 C 116.40 272.61 113.80 264.83 113.69 257.06 Z" />
<path fill="#f4722b" opacity="1.00" d=" M 240.00 343.56 C 276.82 348.16 315.16 336.07 343.35 312.06 C 367.52 356.33 391.80 400.53 416.00 444.77 C 384.28 437.12 352.70 428.82 320.96 421.23 C 312.73 441.96 304.08 462.52 295.78 483.23 C 290.20 472.40 285.77 461.01 281.14 449.75 C 271.29 424.86 261.71 399.87 251.89 374.97 C 248.02 364.47 243.42 354.22 240.00 343.56 Z" />
<path fill="#f4722b" opacity="1.00" d=" M 148.57 374.86 C 155.34 354.62 161.80 334.27 168.75 314.09 C 186.57 328.98 208.58 338.51 231.37 342.62 C 237.78 358.71 243.67 375.01 249.82 391.21 C 251.02 394.82 252.81 398.24 253.67 401.97 C 253.62 404.75 252.62 407.39 251.96 410.07 C 245.68 435.13 239.54 460.24 233.10 485.26 C 218.74 465.34 204.41 445.40 190.02 425.51 C 166.70 437.74 143.48 450.20 120.00 462.14 C 129.15 432.93 139.17 403.99 148.57 374.86 Z" />
</svg>
