<?xml version="1.0" encoding="UTF-8" standalone="no"?>
<svg
   xmlns:dc="http://purl.org/dc/elements/1.1/"
   xmlns:cc="http://creativecommons.org/ns#"
   xmlns:rdf="http://www.w3.org/1999/02/22-rdf-syntax-ns#"
   xmlns:svg="http://www.w3.org/2000/svg"
   xmlns="http://www.w3.org/2000/svg"
   xmlns:sodipodi="http://sodipodi.sourceforge.net/DTD/sodipodi-0.dtd"
   xmlns:inkscape="http://www.inkscape.org/namespaces/inkscape"
   width="1280"
   height="1280"
   viewBox="0 0 1024 1024"
   version="1.1"
   id="svg2"
   inkscape:version="0.48.1 "
   sodipodi:docname="assist_medic_large.svg">
  <metadata
     id="metadata16">
    <rdf:RDF>
      <cc:Work
         rdf:about="">
        <dc:format>image/svg+xml</dc:format>
        <dc:type
           rdf:resource="http://purl.org/dc/dcmitype/StillImage" />
      </cc:Work>
    </rdf:RDF>
  </metadata>
  <defs
     id="defs14" />
  <sodipodi:namedview
     pagecolor="#ffffff"
     bordercolor="#666666"
     borderopacity="1"
     objecttolerance="10"
     gridtolerance="10"
     guidetolerance="10"
     inkscape:pageopacity="0"
     inkscape:pageshadow="2"
     inkscape:window-width="1920"
     inkscape:window-height="1018"
     id="namedview12"
     showgrid="false"
     inkscape:snap-page="true"
     fit-margin-top="0"
     fit-margin-left="0"
     fit-margin-right="0"
     fit-margin-bottom="0"
     inkscape:zoom="0.6609375"
     inkscape:cx="640"
     inkscape:cy="640"
     inkscape:window-x="-8"
     inkscape:window-y="-8"
     inkscape:window-maximized="1"
     inkscape:current-layer="svg2" />
  <rect
     style="fill:#3e3e3e;fill-opacity:1"
     id="rect2993"
     width="1024"
     height="1024"
     x="0"
     y="0" />
  <path
     d="m 706.12,66.1 c 3.92,-3.84 6.94,-8.86 11.82,-11.56 16.88,-2.38 31.78,8.22 48.42,8.98 0.44,4.08 0.76,8.18 0.98,12.28 2.58,5.42 5.1,10.86 7.48,16.38 -0.26,1.6 -0.5,3.22 -0.74,4.84 1.08,0.1 3.24,0.28 4.32,0.38 -0.42,6.8 1.98,13.14 5.1,19.04 -2.74,1.18 -5.48,2.34 -8.2,3.48 3.32,11.86 1.26,24.18 1.64,36.28 -3.06,0.72 -6.06,1.44 -9.1,2.18 -5.64,-1.48 -11.32,-2.8 -17,-4.08 -5.2,4.3 -10.12,8.98 -14.28,14.32 4.52,4.06 11.34,6.92 12.46,13.54 1.38,6.54 3.84,13.16 10.34,16.14 4.46,-5.78 8.1,-12.52 14.16,-16.82 28.14,-1.2 56.38,-0.34 84.58,-0.92 3.68,0.3 8.26,-0.82 11.04,2.32 2.94,2.54 5.58,5.44 8.86,7.58 3.2,0.96 6.56,-0.16 9.82,-0.44 11,-1.66 22.18,-1.08 33.26,-1.42 0,7.04 1.12,14.1 4.6,20.32 5.8,0.32 11.6,0.66 17.4,1.02 1.18,-6.18 2.04,-12.42 2.72,-18.66 7.76,-0.38 15.52,-0.08 23.28,0.26 2.42,6.18 2.82,12.8 2.62,19.36 5.7,0.72 13.54,-2.02 17.2,3.92 4.02,3.98 2.44,10.08 2.82,15.14 -0.42,9.6 0.62,19.34 -0.94,28.86 -3.94,5.92 -12.32,3.72 -18.34,4.92 -2.56,9.26 -13.3,5.44 -20.34,6.06 -1.48,-3.04 -2.44,-6.5 -4.72,-9.04 -4.7,-1.76 -9.82,-1.6 -14.7,-2.14 -0.7,13.6 -0.14,27.22 -0.78,40.82 -8.92,0.24 -17.92,-0.46 -26.74,1.2 -1.64,5.32 -1.86,12.26 -7.44,15.16 -12.58,7.1 -25.04,15.3 -39.58,17.6 -6.06,13.72 -11.96,27.74 -21.06,39.8 -1.96,3.08 -6.08,2.14 -9.12,2.52 -13.32,-0.08 -26.62,-0.12 -39.92,-0.2 -3.16,-0.34 -6.8,0.24 -9.5,-1.76 -8.02,-6.78 -13.28,-16.14 -16.3,-26.08 -1.74,2.28 -5.62,4.18 -3.4,7.48 5.34,13.06 10.78,26.12 16.08,39.22 -1.18,1.84 -2.36,3.66 -3.52,5.5 3.8,17.34 7.36,34.78 9.82,52.34 -3.02,4.52 -7.36,8.22 -12.14,10.76 -3.88,0.64 -7.82,0.48 -11.72,0.64 14.4,16.92 22.74,37.68 34.24,56.5 8.98,17.4 19.68,33.86 28.88,51.14 8.4,17.88 12.9,37.22 18.16,56.16 1.46,6.68 3.98,13.14 4.74,19.94 -8.98,10.34 -19.76,18.98 -28.76,29.3 -4.16,4.88 -8.42,9.66 -13.18,13.96 -3.04,13.56 -3.28,27.52 -2.86,41.34 0.56,12.68 -3.72,25.4 -0.48,37.98 2.64,9.04 3.32,18.6 6.64,27.44 14.62,14.3 31.86,25.6 48,38.1 10.52,-0.08 21.04,-0.98 31.48,-2.36 6.14,4.56 9.98,11.04 10.46,18.74 -1.54,1.38 -3.08,2.78 -4.6,4.2 -14.76,1.02 -29.1,5.34 -43.88,5.92 -15.26,-2.52 -29.94,-7.84 -45.28,-10.1 0.12,2.98 0.24,5.96 0.38,8.94 -14.2,9.02 -31.74,4.22 -47.38,3.48 -5.24,-0.72 -13.48,-0.32 -14.18,-7.32 -0.38,-11.06 1.82,-22.04 2.02,-33.1 -0.5,-14.6 16.7,-22.82 15.66,-37.54 -4.54,-21.92 -7.7,-44.08 -11.5,-66.12 -1.22,-7.8 -5.7,-14.48 -9.18,-21.36 -0.28,12.02 -2.18,23.92 -2.22,35.96 -13.66,0.86 -27.24,-2.5 -40.82,-3.68 -24.7,-1.86 -47.82,-11.54 -71.98,-16.18 -3.12,-0.48 -6.16,0.66 -9.16,1.24 -9.74,22.22 -13.7,46.28 -20.82,69.36 -4.1,13.26 -4.36,27.22 -6.38,40.88 5.08,9.46 9,19.8 16.36,27.84 6.4,7 11.88,14.84 18.62,21.52 3.62,3.72 9.22,2.56 13.78,4.02 6,5.56 6.1,14.16 8.84,21.36 -2.9,1.16 -5.66,2.98 -8.84,3.16 -17.7,0.74 -35.42,0 -53,-2.18 -7.7,-1.82 -13.24,-8 -19.12,-12.86 -6.48,1.48 -13.18,2.94 -19.78,1.44 -6.42,-15.78 -11.02,-33.44 -6.56,-50.34 8.28,-4.24 20.06,-7.48 21.04,-18.52 0.92,-11.88 -3.76,-23.52 -8.46,-34.24 2.86,-8.98 0.26,-18.4 1.86,-27.56 1.34,-10.5 0.48,-21.28 2.72,-31.62 10.76,-16.24 24.66,-30.18 35.06,-46.66 4.8,-8.42 11.28,-15.72 16.08,-24.12 10.98,-20.82 18.76,-43.62 20.42,-67.2 6.44,-8.16 16.34,-14.24 18.88,-24.96 2.68,-15.58 -7.02,-31.24 -1.82,-46.62 1.68,-4.66 -1.06,-9.24 -2.54,-13.54 2.86,-4.52 6.22,-8.7 9.72,-12.74 5.98,-5.8 2.84,-14.96 6.58,-21.84 7.52,-15.88 12.62,-32.74 18,-49.4 2.22,-11.68 6.9,-23.5 4.22,-35.5 -1.92,-7.88 -3.36,-15.86 -4.48,-23.9 -0.96,-6.78 -6.18,-11.7 -10,-17 -13.02,-17.58 -26.7,-34.66 -40.32,-51.76 -4.38,-5.58 -9.74,-10.22 -14.68,-15.26 -4.36,-3.28 -2.54,-9.22 -4.06,-13.8 -1.76,-5.54 -4.68,-10.92 -9.06,-14.84 -11.22,-9.6 -22.66,-18.94 -33.76,-28.68 -4.46,-4 -9.72,-6.9 -15.12,-9.42 2.16,-7.78 5.56,-15.1 9.04,-22.34 3.82,-7.92 6.22,-16.88 12.74,-23.16 7.96,-8.02 16.04,-15.94 23.96,-24.02 2.78,-2.5 5.38,-5.66 9.12,-6.72 5.74,-1.32 10.92,2.24 15.96,4.32 5.52,-9.7 9.9,-20.04 15.8,-29.52 3.04,-5.58 10.4,-4.64 15.66,-6.3 7.94,4.24 17,5.42 25.24,8.88 8,5.76 -0.12,15.56 -2.76,22.24 1.62,1.9 3.26,3.82 4.9,5.72 5.84,-7.54 17.16,-6.74 22.72,-14.34 4.62,-10.88 -4.02,-21.22 -3.44,-32.24 -2.08,-10.62 4.14,-20.38 11.24,-27.64 z"
     id="path6"
     inkscape:connector-curvature="0"
     style="fill:#f4722b" />
  <path
     d="M 22.3,80.65 C 14.18,88.71 6.5,97.26 0,106.7 l 0,114.9 c 11.32,8.08 23.2,15.37 34.3,23.75 2.74,1.94 3.8,5.35 5.4,8.15 2.98,2.14 5.92,4.21 8.9,6.35 4.64,-2.66 9.11,-5.67 13.85,-8.15 2.6,0.02 4.32,2.44 6.4,3.7 10.22,8.04 20.56,15.92 31.2,23.4 -0.98,3.88 -1.96,7.77 -2.9,11.65 4.12,2.78 8.25,5.55 12.45,8.25 2.86,-1.98 5.71,-3.95 8.55,-5.95 3.96,2.86 7.89,5.85 11.85,8.75 -0.56,4.06 -1.24,8.11 -2,12.15 3.94,2.68 7.68,5.69 12,7.75 3.22,-1.5 6.16,-3.52 9.2,-5.3 17.14,12.54 33.63,26.02 51.05,38.2 -1.22,5.08 -2.19,10.35 -5.25,14.75 -8.76,13.32 -17.74,26.54 -26.3,40 -5.9,8.84 -2.45,19.73 -1.45,29.45 17.06,10.5 34.53,20.34 51.55,30.9 7.78,4.64 6.28,14.79 7.2,22.45 1.32,32.7 3,65.37 4.6,98.05 0.66,9.32 -1.23,19.67 3.45,28.15 8.98,7.18 19.93,11.53 28.95,18.75 -5.44,19.88 -11.7,39.49 -17.6,59.25 -1.14,3.92 -2.76,7.7 -4.5,11.4 -0.6,5.48 -1.31,10.95 -1.65,16.45 -0.58,24.46 -3,48.85 -5.7,73.15 5.32,8.66 3.35,18.68 1.95,28.1 9.1,2 18.38,3.3 27.3,6.1 4.38,14.16 5.72,29.88 0.7,44.1 -0.98,2.8 -2.8,5.2 -4.9,7.3 -9.54,9.5 -20.94,16.85 -31.7,24.85 -15,-1.08 -28.93,4.9 -43.25,8.2 -4.26,5.3 -6.47,11.73 -4.45,18.45 -0.4,2.82 -0.82,5.63 -1.2,8.45 6.38,2.96 12.86,5.8 19.4,8.4 18.02,-2.94 36.62,-1.74 54.2,-7.2 9.72,-1.44 17.85,-6.96 26.45,-11.2 9.62,6.02 21.11,4.8 31.95,4.4 8.66,-0.62 16.63,-4.2 24.85,-6.7 -0.6,-4.72 -1.08,-9.45 -1.6,-14.15 -1.36,-0.82 -2.74,-1.62 -4.1,-2.4 1.1,-9.06 -3.11,-16.91 -7.25,-24.55 -1.36,-6.28 -0.41,-12.85 -1.75,-19.15 -3.76,-17.2 -1.27,-34.86 -2.25,-52.3 7.26,-3.9 15.18,-7.27 20.4,-13.95 -4.48,-16.74 -10.1,-33.14 -15.1,-49.7 -2.22,-6.86 -2.16,-14.05 -2.1,-21.15 -1.94,-1.86 -3.86,-3.73 -5.8,-5.55 -0.82,-5.26 -1.67,-10.47 -2.35,-15.75 11.4,-10.86 21.89,-22.71 34.15,-32.65 9.74,-7.98 16.51,-21.04 30.25,-22.5 10.7,8.52 20.62,18.13 32.4,25.25 -0.1,6.3 -0.15,12.55 -0.25,18.85 11.8,7.78 26.2,13.94 32.2,27.7 5.72,8.78 -4.23,18.8 0.05,27.9 2.58,5.66 5.59,11.17 8.15,16.85 -2.54,12.72 -3.74,25.65 -4.9,38.55 5.38,7.1 10.16,14.66 15.6,21.7 2.56,3.72 7.43,4.2 11.35,5.6 1.7,9.88 5.93,19.94 2.95,30 -2.06,6.9 -0.95,14.3 -2.95,21.2 -5.1,13.32 -8.49,27.51 -8.25,41.85 7.14,2.94 14.51,5.29 22.25,5.75 0.96,2 1.97,4.03 2.95,6.05 -0.72,2.62 -1.45,5.24 -2.15,7.9 7.66,3.54 14.95,8.51 23.35,10.05 17.22,-1.02 34.39,-3.31 51.65,-2.85 0.78,-3.84 1.47,-7.74 2.15,-11.6 -6.02,-8.16 -7.35,-18.71 -13.65,-26.75 -4.8,-1.2 -9.53,-2.57 -14.25,-3.95 -5.76,-15.4 -13.95,-30.05 -16.25,-46.55 -3.5,-13.26 -0.11,-26.77 0.25,-40.15 7.46,-3.12 14.81,-6.44 22.05,-10 -2.18,-11.28 -6.11,-22.11 -11.25,-32.35 1.3,-3.22 2.64,-6.42 4,-9.6 -3.52,-13.68 -9.77,-26.58 -11.85,-40.6 20.36,-26.52 42.07,-51.96 61.75,-79 14.68,-22.68 24.82,-49.64 23.5,-77 8.06,-4.72 15.69,-11.01 19.85,-19.55 -1.06,-13.9 -3.38,-27.71 -5.7,-41.45 1.52,-1.46 3.06,-2.96 4.6,-4.4 -3.68,-3.62 -7.34,-7.23 -11,-10.85 8.96,-5.74 14.37,-15.01 20.25,-23.55 0,-12.8 8.75,-23.24 12.15,-35.2 4.16,-14.3 11.95,-28.07 11.25,-43.35 0.74,-0.54 2.16,-1.64 2.9,-2.2 -0.04,-4.42 -0.02,-8.88 0,-13.3 -0.74,-0.6 -2.18,-1.8 -2.9,-2.4 -0.16,-7.04 -0.97,-14.02 -1.95,-21 -16.44,-21.5 -32.81,-43.11 -49.95,-64.05 -7,-7.76 -14.72,-14.82 -22,-22.3 1.4,-2.7 2.81,-5.37 4.25,-8.05 -7.28,-12.98 -20.93,-20.28 -31.45,-30.3 -6.96,-6.74 -14.84,-12.49 -24.1,-15.65 -10.36,-3.54 -17.65,-11.87 -25.55,-18.95 0.02,-2.92 0.01,-5.83 0.05,-8.75 -28.78,-4.58 -57.8,-8.53 -87,-8.75 -3.28,-0.22 -6.66,0 -9.8,-1.1 -5.66,-8.06 -12.27,-16.24 -13.75,-26.3 -0.62,-5.74 -5.45,-9.41 -8.55,-13.85 -4.88,-6.24 -8.29,-14.31 -16.05,-17.55 -7.86,-4.86 -17.33,-4.54 -26.15,-5.6 -11.84,-1.32 -21.73,7.79 -27.65,17.05 -3.08,7.32 -4.33,15.28 -6.85,22.8 1.62,1.96 3.26,3.94 4.9,5.9 0.08,4.3 0.17,8.58 0.35,12.9 6.68,9.78 2.76,22.18 7.1,32.8 -3.08,3.12 -6.29,6.14 -9.45,9.2 1.44,4.24 2.81,8.49 4.25,12.75 -22.1,11.02 -44.28,21.94 -65.9,33.9 0.02,2.48 0.03,4.97 0.05,7.45 -2.58,1.52 -5.14,3.03 -7.7,4.55 -14.74,-12.1 -29.79,-23.81 -44.65,-35.75 0.5,-4.16 1.07,-8.36 1.65,-12.5 -3.78,-2.52 -6.96,-6.32 -11.4,-7.6 -3.54,1.08 -6.78,2.9 -10.1,4.5 -3.68,-2.96 -7.39,-5.89 -11.05,-8.85 1.06,-3.76 2.19,-7.5 3.35,-11.2 -3.84,-2.96 -7.6,-5.95 -11.3,-9.05 -4.22,1.76 -9.17,7.13 -13.55,2.85 -11.46,-8.16 -22.15,-17.3 -33.05,-26.2 1.66,-4.88 3.23,-9.8 4.85,-14.7 -2.94,-3.48 -5.93,-6.9 -8.95,-10.3 -2.54,0.12 -5.06,0.23 -7.6,0.35 C 77.94,128.72 50,104.79 22.3,80.65 z M 549.6,345.6 c 9.8,11.86 19.98,23.41 31,34.15 -4.3,11.44 -8.55,22.9 -13.45,34.1 -4.38,-1.08 -8.75,-3.5 -13.35,-2.5 -4.58,1.72 -8.87,4.19 -13.25,6.35 -0.46,-1.14 -1.39,-3.46 -1.85,-4.6 -3.64,-18.9 -8.02,-37.87 -14.7,-55.95 6.16,-0.66 12.4,-1.01 18.4,-2.65 2.78,-2.64 4.88,-5.88 7.2,-8.9 z"
     id="path8"
     style="fill:#f5e5c1"
     inkscape:connector-curvature="0" />
</svg>
