<?xml version="1.0" encoding="UTF-8" ?>
<!DOCTYPE svg PUBLIC "-//W3C//DTD SVG 1.1//EN" "http://www.w3.org/Graphics/SVG/1.1/DTD/svg11.dtd">
<svg width="512pt" height="512pt" viewBox="0 0 512 512" version="1.1" xmlns="http://www.w3.org/2000/svg">
<path fill="#3e3e3e" opacity="1.00" d=" M 0.00 0.00 L 512.00 0.00 L 512.00 512.00 L 0.00 512.00 L 0.00 110.81 C 5.66 114.85 11.61 118.49 17.16 122.68 C 18.53 123.65 19.04 125.34 19.84 126.74 C 21.33 127.81 22.82 128.86 24.31 129.93 C 26.63 128.60 28.85 127.08 31.22 125.84 C 32.52 125.85 33.38 127.07 34.42 127.70 C 39.53 131.72 44.71 135.65 50.03 139.39 C 49.54 141.33 49.05 143.28 48.58 145.22 C 50.64 146.61 52.70 148.01 54.80 149.36 C 56.23 148.37 57.66 147.38 59.08 146.38 C 61.06 147.81 63.01 149.29 64.99 150.74 C 64.71 152.77 64.37 154.80 63.99 156.82 C 65.96 158.16 67.84 159.67 70.00 160.70 C 71.61 159.95 73.08 158.95 74.60 158.06 C 83.17 164.33 91.41 171.05 100.12 177.14 C 99.51 179.68 99.02 182.33 97.49 184.53 C 93.11 191.19 88.62 197.79 84.34 204.52 C 81.39 208.94 83.13 214.40 83.63 219.26 C 92.16 224.51 100.90 229.43 109.41 234.71 C 113.30 237.03 112.55 242.10 113.01 245.93 C 113.67 262.28 114.51 278.62 115.31 294.96 C 115.64 299.62 114.68 304.78 117.02 309.02 C 121.51 312.61 126.98 314.78 131.49 318.39 C 128.77 328.33 125.65 338.15 122.70 348.03 C 122.13 349.99 121.33 351.87 120.46 353.72 C 120.16 356.46 119.79 359.20 119.62 361.95 C 119.33 374.18 118.12 386.37 116.77 398.52 C 119.43 402.85 118.45 407.86 117.75 412.57 C 122.30 413.57 126.95 414.23 131.41 415.63 C 133.60 422.71 134.25 430.56 131.74 437.67 C 131.25 439.07 130.34 440.27 129.29 441.32 C 124.52 446.07 118.84 449.74 113.46 453.74 C 105.96 453.20 98.98 456.21 91.82 457.86 C 89.69 460.51 88.58 463.71 89.59 467.07 C 89.39 468.48 89.20 469.89 89.01 471.30 C 92.20 472.78 95.43 474.19 98.70 475.49 C 107.71 474.02 117.01 474.62 125.80 471.89 C 130.66 471.17 134.73 468.41 139.03 466.29 C 143.84 469.30 149.57 468.71 154.99 468.51 C 159.32 468.20 163.32 466.39 167.43 465.14 C 167.13 462.78 166.88 460.42 166.62 458.07 C 165.94 457.66 165.26 457.26 164.58 456.87 C 165.13 452.34 163.03 448.41 160.96 444.59 C 160.28 441.45 160.74 438.18 160.07 435.03 C 158.19 426.43 159.45 417.59 158.96 408.87 C 162.59 406.92 166.53 405.24 169.14 401.90 C 166.90 393.53 164.09 385.34 161.59 377.06 C 160.48 373.63 160.52 370.02 160.55 366.47 C 159.58 365.54 158.61 364.62 157.64 363.71 C 157.23 361.08 156.82 358.46 156.48 355.82 C 162.18 350.39 167.41 344.48 173.54 339.51 C 178.41 335.52 181.81 328.98 188.68 328.25 C 194.03 332.51 198.98 337.31 204.87 340.87 C 204.82 344.02 204.79 347.16 204.74 350.31 C 210.64 354.20 217.84 357.27 220.84 364.15 C 223.70 368.54 218.74 373.56 220.88 378.11 C 222.17 380.94 223.66 383.69 224.94 386.53 C 223.67 392.89 223.09 399.36 222.51 405.81 C 225.20 409.36 227.59 413.14 230.31 416.66 C 231.59 418.52 234.01 418.74 235.97 419.44 C 236.82 424.38 238.95 429.43 237.46 434.46 C 236.43 437.91 236.98 441.60 235.98 445.05 C 233.43 451.71 231.72 458.81 231.84 465.98 C 235.41 467.45 239.11 468.62 242.98 468.85 C 243.46 469.85 243.95 470.86 244.44 471.87 C 244.08 473.18 243.72 474.50 243.37 475.83 C 247.20 477.60 250.84 480.07 255.04 480.84 C 263.65 480.33 272.25 479.19 280.88 479.42 C 281.27 477.50 281.62 475.56 281.96 473.63 C 278.95 469.55 278.27 464.28 275.12 460.26 C 272.72 459.66 270.36 458.97 268.00 458.28 C 265.12 450.58 261.02 443.26 259.87 435.01 C 258.12 428.38 259.81 421.61 259.99 414.92 C 263.72 413.36 267.40 411.70 271.02 409.92 C 269.93 404.28 267.97 398.88 265.40 393.76 C 266.05 392.15 266.72 390.55 267.40 388.96 C 265.64 382.12 262.52 375.67 261.48 368.66 C 271.66 355.40 282.52 342.67 292.36 329.15 C 299.70 317.81 304.77 304.34 304.11 290.66 C 308.14 288.30 311.95 285.14 314.03 280.87 C 313.50 273.92 312.33 267.01 311.17 260.14 C 311.93 259.41 312.70 258.68 313.47 257.96 C 311.63 256.15 309.80 254.34 307.97 252.53 C 312.45 249.66 315.15 245.01 318.09 240.74 C 318.09 234.34 322.48 229.12 324.18 223.14 C 326.26 215.99 330.14 209.11 329.79 201.47 C 330.16 201.20 330.89 200.65 331.26 200.37 C 331.24 198.16 331.24 195.94 331.25 193.73 C 330.88 193.43 330.15 192.83 329.79 192.53 C 329.71 189.01 329.31 185.51 328.82 182.02 C 320.60 171.27 312.42 160.48 303.85 150.01 C 300.35 146.13 296.48 142.60 292.84 138.86 C 293.54 137.51 294.26 136.17 294.98 134.83 C 291.34 128.34 284.52 124.68 279.26 119.67 C 275.78 116.30 271.82 113.42 267.19 111.84 C 262.01 110.07 258.37 105.91 254.42 102.37 C 254.43 100.91 254.44 99.46 254.46 98.00 C 240.07 95.71 225.56 93.73 210.96 93.62 C 209.32 93.51 207.62 93.62 206.05 93.07 C 203.22 89.04 199.92 84.96 199.18 79.93 C 198.87 77.06 196.46 75.22 194.91 73.00 C 192.47 69.88 190.75 65.84 186.87 64.22 C 182.94 61.79 178.22 61.96 173.81 61.43 C 167.89 60.77 162.93 65.31 159.97 69.94 C 158.43 73.60 157.81 77.58 156.55 81.34 C 157.36 82.32 158.18 83.31 159.00 84.29 C 159.04 86.44 159.08 88.59 159.17 90.75 C 162.51 95.64 160.55 101.84 162.72 107.15 C 161.18 108.71 159.57 110.21 157.99 111.74 C 158.71 113.86 159.40 116.00 160.12 118.13 C 149.07 123.64 137.99 129.10 127.18 135.08 C 127.19 136.32 127.19 137.56 127.20 138.80 C 125.91 139.56 124.62 140.32 123.34 141.08 C 115.97 135.03 108.46 129.16 101.03 123.19 C 101.28 121.11 101.55 119.02 101.84 116.95 C 99.95 115.69 98.37 113.79 96.15 113.15 C 94.38 113.69 92.75 114.59 91.09 115.39 C 89.25 113.91 87.41 112.45 85.58 110.97 C 86.11 109.09 86.68 107.23 87.26 105.38 C 85.34 103.90 83.44 102.40 81.59 100.85 C 79.48 101.73 77.01 104.42 74.82 102.28 C 69.09 98.20 63.74 93.62 58.29 89.17 C 59.12 86.73 59.91 84.28 60.72 81.83 C 59.25 80.09 57.76 78.38 56.25 76.68 C 54.98 76.74 53.72 76.79 52.45 76.85 C 38.97 64.36 25.01 52.40 11.16 40.33 C 7.10 44.36 3.25 48.63 0.00 53.35 L 0.00 0.00 Z" />
<path fill="#f4722b" opacity="1.00" d=" M 353.06 33.05 C 355.02 31.13 356.53 28.62 358.97 27.27 C 367.41 26.08 374.86 31.38 383.18 31.76 C 383.40 33.80 383.56 35.85 383.67 37.90 C 384.96 40.61 386.22 43.33 387.41 46.09 C 387.28 46.89 387.16 47.70 387.04 48.51 C 387.58 48.56 388.66 48.65 389.20 48.70 C 388.99 52.10 390.19 55.27 391.75 58.22 C 390.38 58.81 389.01 59.39 387.65 59.96 C 389.31 65.89 388.28 72.05 388.47 78.10 C 386.94 78.46 385.44 78.82 383.92 79.19 C 381.10 78.45 378.26 77.79 375.42 77.15 C 372.82 79.30 370.36 81.64 368.28 84.31 C 370.54 86.34 373.95 87.77 374.51 91.08 C 375.20 94.35 376.43 97.66 379.68 99.15 C 381.91 96.26 383.73 92.89 386.76 90.74 C 400.83 90.14 414.95 90.57 429.05 90.28 C 430.89 90.43 433.18 89.87 434.57 91.44 C 436.04 92.71 437.36 94.16 439.00 95.23 C 440.60 95.71 442.28 95.15 443.91 95.01 C 449.41 94.18 455.00 94.47 460.54 94.30 C 460.54 97.82 461.10 101.35 462.84 104.46 C 465.74 104.62 468.64 104.79 471.54 104.97 C 472.13 101.88 472.56 98.76 472.90 95.64 C 476.78 95.45 480.66 95.60 484.54 95.77 C 485.75 98.86 485.95 102.17 485.85 105.45 C 488.70 105.81 492.62 104.44 494.45 107.41 C 496.46 109.40 495.67 112.45 495.86 114.98 C 495.65 119.78 496.17 124.65 495.39 129.41 C 493.42 132.37 489.23 131.27 486.22 131.87 C 484.94 136.50 479.57 134.59 476.05 134.90 C 475.31 133.38 474.83 131.65 473.69 130.38 C 471.34 129.50 468.78 129.58 466.34 129.31 C 465.99 136.11 466.27 142.92 465.95 149.72 C 461.49 149.84 456.99 149.49 452.58 150.32 C 451.76 152.98 451.65 156.45 448.86 157.90 C 442.57 161.45 436.34 165.55 429.07 166.70 C 426.04 173.56 423.09 180.57 418.54 186.60 C 417.56 188.14 415.50 187.67 413.98 187.86 C 407.32 187.82 400.67 187.80 394.02 187.76 C 392.44 187.59 390.62 187.88 389.27 186.88 C 385.26 183.49 382.63 178.81 381.12 173.84 C 380.25 174.98 378.31 175.93 379.42 177.58 C 382.09 184.11 384.81 190.64 387.46 197.19 C 386.87 198.11 386.28 199.02 385.70 199.94 C 387.60 208.61 389.38 217.33 390.61 226.11 C 389.10 228.37 386.93 230.22 384.54 231.49 C 382.60 231.81 380.63 231.73 378.68 231.81 C 385.88 240.27 390.05 250.65 395.80 260.06 C 400.29 268.76 405.64 276.99 410.24 285.63 C 414.44 294.57 416.69 304.24 419.32 313.71 C 420.05 317.05 421.31 320.28 421.69 323.68 C 417.20 328.85 411.81 333.17 407.31 338.33 C 405.23 340.77 403.10 343.16 400.72 345.31 C 399.20 352.09 399.08 359.07 399.29 365.98 C 399.57 372.32 397.43 378.68 399.05 384.97 C 400.37 389.49 400.71 394.27 402.37 398.69 C 409.68 405.84 418.30 411.49 426.37 417.74 C 431.63 417.70 436.89 417.25 442.11 416.56 C 445.18 418.84 447.10 422.08 447.34 425.93 C 446.57 426.62 445.80 427.32 445.04 428.03 C 437.66 428.54 430.49 430.70 423.10 430.99 C 415.47 429.73 408.13 427.07 400.46 425.94 C 400.52 427.43 400.58 428.92 400.65 430.41 C 393.55 434.92 384.78 432.52 376.96 432.15 C 374.34 431.79 370.22 431.99 369.87 428.49 C 369.68 422.96 370.78 417.47 370.88 411.94 C 370.63 404.64 379.23 400.53 378.71 393.17 C 376.44 382.21 374.86 371.13 372.96 360.11 C 372.35 356.21 370.11 352.87 368.37 349.43 C 368.23 355.44 367.28 361.39 367.26 367.41 C 360.43 367.84 353.64 366.16 346.85 365.57 C 334.50 364.64 322.94 359.80 310.86 357.48 C 309.30 357.24 307.78 357.81 306.28 358.10 C 301.41 369.21 299.43 381.24 295.87 392.78 C 293.82 399.41 293.69 406.39 292.68 413.22 C 295.22 417.95 297.18 423.12 300.86 427.14 C 304.06 430.64 306.80 434.56 310.17 437.90 C 311.98 439.76 314.78 439.18 317.06 439.91 C 320.06 442.69 320.11 446.99 321.48 450.59 C 320.03 451.17 318.65 452.08 317.06 452.17 C 308.21 452.54 299.35 452.17 290.56 451.08 C 286.71 450.17 283.94 447.08 281.00 444.65 C 277.76 445.39 274.41 446.12 271.11 445.37 C 267.90 437.48 265.60 428.65 267.83 420.20 C 271.97 418.08 277.86 416.46 278.35 410.94 C 278.81 405.00 276.47 399.18 274.12 393.82 C 275.55 389.33 274.25 384.62 275.05 380.04 C 275.72 374.79 275.29 369.40 276.41 364.23 C 281.79 356.11 288.74 349.14 293.94 340.90 C 296.34 336.69 299.58 333.04 301.98 328.84 C 307.47 318.43 311.36 307.03 312.19 295.24 C 315.41 291.16 320.36 288.12 321.63 282.76 C 322.97 274.97 318.12 267.14 320.72 259.45 C 321.56 257.12 320.19 254.83 319.45 252.68 C 320.88 250.42 322.56 248.33 324.31 246.31 C 327.30 243.41 325.73 238.83 327.60 235.39 C 331.36 227.45 333.91 219.02 336.60 210.69 C 337.71 204.85 340.05 198.94 338.71 192.94 C 337.75 189.00 337.03 185.01 336.47 180.99 C 335.99 177.60 333.38 175.14 331.47 172.49 C 324.96 163.70 318.12 155.16 311.31 146.61 C 309.12 143.82 306.44 141.50 303.97 138.98 C 301.79 137.34 302.70 134.37 301.94 132.08 C 301.06 129.31 299.60 126.62 297.41 124.66 C 291.80 119.86 286.08 115.19 280.53 110.32 C 278.30 108.32 275.67 106.87 272.97 105.61 C 274.05 101.72 275.75 98.06 277.49 94.44 C 279.40 90.48 280.60 86.00 283.86 82.86 C 287.84 78.85 291.88 74.89 295.84 70.85 C 297.23 69.60 298.53 68.02 300.40 67.49 C 303.27 66.83 305.86 68.61 308.38 69.65 C 311.14 64.80 313.33 59.63 316.28 54.89 C 317.80 52.10 321.48 52.57 324.11 51.74 C 328.08 53.86 332.61 54.45 336.73 56.18 C 340.73 59.06 336.67 63.96 335.35 67.30 C 336.16 68.25 336.98 69.21 337.80 70.16 C 340.72 66.39 346.38 66.79 349.16 62.99 C 351.47 57.55 347.15 52.38 347.44 46.87 C 346.40 41.56 349.51 36.68 353.06 33.05 Z" />
<path fill="#f5e5c1" opacity="1.00" d=" M 0.00 53.35 C 3.25 48.63 7.10 44.36 11.16 40.33 C 25.01 52.40 38.97 64.36 52.45 76.85 C 53.72 76.79 54.98 76.74 56.25 76.68 C 57.76 78.38 59.25 80.09 60.72 81.83 C 59.91 84.28 59.12 86.73 58.29 89.17 C 63.74 93.62 69.09 98.20 74.82 102.28 C 77.01 104.42 79.48 101.73 81.59 100.85 C 83.44 102.40 85.34 103.90 87.26 105.38 C 86.68 107.23 86.11 109.09 85.58 110.97 C 87.41 112.45 89.25 113.91 91.09 115.39 C 92.75 114.59 94.38 113.69 96.15 113.15 C 98.37 113.79 99.95 115.69 101.84 116.95 C 101.55 119.02 101.28 121.11 101.03 123.19 C 108.46 129.16 115.97 135.03 123.34 141.08 C 124.62 140.32 125.91 139.56 127.20 138.80 C 127.19 137.56 127.19 136.32 127.18 135.08 C 137.99 129.10 149.07 123.64 160.12 118.13 C 159.40 116.00 158.71 113.86 157.99 111.74 C 159.57 110.21 161.18 108.71 162.72 107.15 C 160.55 101.84 162.51 95.64 159.17 90.75 C 159.08 88.59 159.04 86.44 159.00 84.29 C 158.18 83.31 157.36 82.32 156.55 81.34 C 157.81 77.58 158.43 73.60 159.97 69.94 C 162.93 65.31 167.89 60.77 173.81 61.43 C 178.22 61.96 182.94 61.79 186.87 64.22 C 190.75 65.84 192.47 69.88 194.91 73.00 C 196.46 75.22 198.87 77.06 199.18 79.93 C 199.92 84.96 203.22 89.04 206.05 93.07 C 207.62 93.62 209.32 93.51 210.96 93.62 C 225.56 93.73 240.07 95.71 254.46 98.00 C 254.44 99.46 254.43 100.91 254.42 102.37 C 258.37 105.91 262.01 110.07 267.19 111.84 C 271.82 113.42 275.78 116.30 279.26 119.67 C 284.52 124.68 291.34 128.34 294.98 134.83 C 294.26 136.17 293.54 137.51 292.84 138.86 C 296.48 142.60 300.35 146.13 303.85 150.01 C 312.42 160.48 320.60 171.27 328.82 182.02 C 329.31 185.51 329.71 189.01 329.79 192.53 C 330.15 192.83 330.88 193.43 331.25 193.73 C 331.24 195.94 331.24 198.16 331.26 200.37 C 330.89 200.65 330.16 201.20 329.79 201.47 C 330.14 209.11 326.26 215.99 324.18 223.14 C 322.48 229.12 318.09 234.34 318.09 240.74 C 315.15 245.01 312.45 249.66 307.97 252.53 C 309.80 254.34 311.63 256.15 313.47 257.96 C 312.70 258.68 311.93 259.41 311.17 260.14 C 312.33 267.01 313.50 273.92 314.03 280.87 C 311.95 285.14 308.14 288.30 304.11 290.66 C 304.77 304.34 299.70 317.81 292.36 329.15 C 282.52 342.67 271.66 355.40 261.48 368.66 C 262.52 375.67 265.64 382.12 267.40 388.96 C 266.72 390.55 266.05 392.15 265.40 393.76 C 267.97 398.88 269.93 404.28 271.02 409.92 C 267.40 411.70 263.72 413.36 259.99 414.92 C 259.81 421.61 258.12 428.38 259.87 435.01 C 261.02 443.26 265.12 450.58 268.00 458.28 C 270.36 458.97 272.72 459.66 275.12 460.26 C 278.27 464.28 278.95 469.55 281.96 473.63 C 281.62 475.56 281.27 477.50 280.88 479.42 C 272.25 479.19 263.65 480.33 255.04 480.84 C 250.84 480.07 247.20 477.60 243.37 475.83 C 243.72 474.50 244.08 473.18 244.44 471.87 C 243.95 470.86 243.46 469.85 242.98 468.85 C 239.11 468.62 235.41 467.45 231.84 465.98 C 231.72 458.81 233.43 451.71 235.98 445.05 C 236.98 441.60 236.43 437.91 237.46 434.46 C 238.95 429.43 236.82 424.38 235.97 419.44 C 234.01 418.74 231.59 418.52 230.31 416.66 C 227.59 413.14 225.20 409.36 222.51 405.81 C 223.09 399.36 223.67 392.89 224.94 386.53 C 223.66 383.69 222.17 380.94 220.88 378.11 C 218.74 373.56 223.70 368.54 220.84 364.15 C 217.84 357.27 210.64 354.20 204.74 350.31 C 204.79 347.16 204.82 344.02 204.87 340.87 C 198.98 337.31 194.03 332.51 188.68 328.25 C 181.81 328.98 178.41 335.52 173.54 339.51 C 167.41 344.48 162.18 350.39 156.48 355.82 C 156.82 358.46 157.23 361.08 157.64 363.71 C 158.61 364.62 159.58 365.54 160.55 366.47 C 160.52 370.02 160.48 373.63 161.59 377.06 C 164.09 385.34 166.90 393.53 169.14 401.90 C 166.53 405.24 162.59 406.92 158.96 408.87 C 159.45 417.59 158.19 426.43 160.07 435.03 C 160.74 438.18 160.28 441.45 160.96 444.59 C 163.03 448.41 165.13 452.34 164.58 456.87 C 165.26 457.26 165.94 457.66 166.62 458.07 C 166.88 460.42 167.13 462.78 167.43 465.14 C 163.32 466.39 159.32 468.20 154.99 468.51 C 149.57 468.71 143.84 469.30 139.03 466.29 C 134.73 468.41 130.66 471.17 125.80 471.89 C 117.01 474.62 107.71 474.02 98.70 475.49 C 95.43 474.19 92.20 472.78 89.01 471.30 C 89.20 469.89 89.39 468.48 89.59 467.07 C 88.58 463.71 89.69 460.51 91.82 457.86 C 98.98 456.21 105.96 453.20 113.46 453.74 C 118.84 449.74 124.52 446.07 129.29 441.32 C 130.34 440.27 131.25 439.07 131.74 437.67 C 134.25 430.56 133.60 422.71 131.41 415.63 C 126.95 414.23 122.30 413.57 117.75 412.57 C 118.45 407.86 119.43 402.85 116.77 398.52 C 118.12 386.37 119.33 374.18 119.62 361.95 C 119.79 359.20 120.16 356.46 120.46 353.72 C 121.33 351.87 122.13 349.99 122.70 348.03 C 125.65 338.15 128.77 328.33 131.49 318.39 C 126.98 314.78 121.51 312.61 117.02 309.02 C 114.68 304.78 115.64 299.62 115.31 294.96 C 114.51 278.62 113.67 262.28 113.01 245.93 C 112.55 242.10 113.30 237.03 109.41 234.71 C 100.90 229.43 92.16 224.51 83.63 219.26 C 83.13 214.40 81.39 208.94 84.34 204.52 C 88.62 197.79 93.11 191.19 97.49 184.53 C 99.02 182.33 99.51 179.68 100.12 177.14 C 91.41 171.05 83.17 164.33 74.60 158.06 C 73.08 158.95 71.61 159.95 70.00 160.70 C 67.84 159.67 65.96 158.16 63.99 156.82 C 64.37 154.80 64.71 152.77 64.99 150.74 C 63.01 149.29 61.06 147.81 59.08 146.38 C 57.66 147.38 56.23 148.37 54.80 149.36 C 52.70 148.01 50.64 146.61 48.58 145.22 C 49.05 143.28 49.54 141.33 50.03 139.39 C 44.71 135.65 39.53 131.72 34.42 127.70 C 33.38 127.07 32.52 125.85 31.22 125.84 C 28.85 127.08 26.63 128.60 24.31 129.93 C 22.82 128.86 21.33 127.81 19.84 126.74 C 19.04 125.34 18.53 123.65 17.16 122.68 C 11.61 118.49 5.66 114.85 0.00 110.81 L 0.00 53.35 Z" />
<path fill="#3e3e3e" opacity="1.00" d=" M 271.20 177.25 C 272.59 175.93 273.64 174.31 274.80 172.80 C 279.70 178.73 284.80 184.50 290.31 189.87 C 288.16 195.59 286.03 201.32 283.58 206.92 C 281.39 206.38 279.19 205.18 276.89 205.68 C 274.60 206.54 272.47 207.76 270.28 208.84 C 270.05 208.27 269.57 207.11 269.34 206.54 C 267.52 197.09 265.33 187.62 261.99 178.58 C 265.07 178.25 268.20 178.07 271.20 177.25 Z" />
</svg>
