<?xml version="1.0" encoding="UTF-8" ?>
<!DOCTYPE svg PUBLIC "-//W3C//DTD SVG 1.1//EN" "http://www.w3.org/Graphics/SVG/1.1/DTD/svg11.dtd">
<svg width="512pt" height="512pt" viewBox="0 0 512 512" version="1.1" xmlns="http://www.w3.org/2000/svg">
<path fill="#3e3e3e" opacity="1.00" d=" M 0.00 0.00 L 512.00 0.00 L 512.00 215.77 C 473.16 148.87 434.40 81.92 395.75 14.91 C 357.81 14.67 319.86 14.96 281.92 14.76 C 258.29 13.98 234.64 14.74 211.01 13.90 C 195.31 13.66 179.61 14.05 163.92 13.56 C 152.60 13.31 141.28 13.34 129.95 13.30 C 124.84 13.22 119.70 13.14 114.62 13.88 C 120.81 17.46 127.48 20.05 133.91 23.14 C 138.27 25.28 143.29 26.64 146.60 30.41 C 149.96 33.70 152.34 39.67 158.01 38.69 C 169.02 38.75 180.04 38.58 191.04 39.10 C 235.37 39.74 279.70 39.59 324.02 39.22 C 339.98 38.23 355.99 38.79 371.97 38.36 C 374.21 38.59 377.44 37.64 378.50 40.32 C 420.83 113.26 463.04 186.28 505.42 259.19 C 464.92 331.07 424.03 402.73 383.50 474.59 C 372.34 473.99 361.16 474.34 350.00 474.18 C 320.99 473.35 291.96 473.92 262.95 473.36 C 246.31 473.14 229.66 473.47 213.03 472.83 C 208.33 472.74 203.68 473.58 198.99 473.56 C 177.06 471.84 155.02 472.91 133.04 472.27 C 90.24 398.75 47.51 325.18 4.59 251.72 C 26.61 207.49 49.10 163.49 71.34 119.36 C 78.37 105.19 86.69 91.72 94.39 77.91 C 92.37 77.10 90.34 75.07 88.04 76.07 C 84.42 77.54 81.27 79.93 78.03 82.07 C 73.52 84.97 72.68 90.71 69.96 94.98 C 46.67 135.30 23.32 175.59 0.00 215.89 L 0.00 0.00 Z" />
<path fill="#f3722d" opacity="1.00" d=" M 114.62 13.88 C 119.70 13.14 124.84 13.22 129.95 13.30 C 141.28 13.34 152.60 13.31 163.92 13.56 C 179.61 14.05 195.31 13.66 211.01 13.90 C 234.64 14.74 258.29 13.98 281.92 14.76 C 319.86 14.96 357.81 14.67 395.75 14.91 C 434.40 81.92 473.16 148.87 512.00 215.77 L 512.00 296.02 C 474.43 360.79 436.92 425.61 399.47 490.45 C 397.67 492.91 396.83 497.43 393.01 497.07 C 307.34 497.17 221.65 497.09 135.97 497.11 C 129.48 496.83 122.88 497.76 116.45 496.65 C 113.82 493.41 112.17 489.53 110.00 485.99 C 73.29 422.73 36.85 359.32 0.00 296.14 L 0.00 215.89 C 23.32 175.59 46.67 135.30 69.96 94.98 C 72.68 90.71 73.52 84.97 78.03 82.07 C 81.27 79.93 84.42 77.54 88.04 76.07 C 90.34 75.07 92.37 77.10 94.39 77.91 C 86.69 91.72 78.37 105.19 71.34 119.36 C 49.10 163.49 26.61 207.49 4.59 251.72 C 47.51 325.18 90.24 398.75 133.04 472.27 C 155.02 472.91 177.06 471.84 198.99 473.56 C 203.68 473.58 208.33 472.74 213.03 472.83 C 229.66 473.47 246.31 473.14 262.95 473.36 C 291.96 473.92 320.99 473.35 350.00 474.18 C 361.16 474.34 372.34 473.99 383.50 474.59 C 424.03 402.73 464.92 331.07 505.42 259.19 C 463.04 186.28 420.83 113.26 378.50 40.32 C 377.44 37.64 374.21 38.59 371.97 38.36 C 355.99 38.79 339.98 38.23 324.02 39.22 C 279.70 39.59 235.37 39.74 191.04 39.10 C 180.04 38.58 169.02 38.75 158.01 38.69 C 152.34 39.67 149.96 33.70 146.60 30.41 C 143.29 26.64 138.27 25.28 133.91 23.14 C 127.48 20.05 120.81 17.46 114.62 13.88 Z" />
<path fill="#f5e5c1" opacity="1.00" d=" M 82.44 27.36 C 87.99 23.06 93.65 18.92 99.09 14.49 C 114.12 20.37 129.12 26.34 143.96 32.68 C 120.34 47.22 97.17 62.48 73.31 76.63 C 75.63 61.48 77.39 46.24 79.65 31.08 C 79.77 29.38 81.26 28.36 82.44 27.36 Z" />
<path fill="#f5e5c1" opacity="1.00" d=" M 107.40 84.93 C 107.73 69.58 118.10 55.80 131.47 48.94 C 138.91 65.77 146.24 82.66 153.74 99.47 C 154.36 100.90 154.98 102.44 154.55 104.03 C 150.08 127.45 145.70 150.89 141.25 174.32 C 131.24 174.48 121.26 175.36 111.25 175.46 C 113.93 153.25 115.67 130.95 117.60 108.67 C 121.59 106.51 125.17 102.71 130.01 102.85 C 135.71 102.77 141.42 102.98 147.12 102.86 C 144.71 100.34 141.06 100.47 137.92 99.70 C 134.59 99.16 131.33 98.03 127.94 98.10 C 124.45 98.52 121.44 100.64 117.95 101.09 C 115.32 98.23 113.96 94.47 111.54 91.45 C 110.16 89.29 108.04 87.45 107.40 84.93 Z" />
<path fill="#f3722d" opacity="1.00" d=" M 156.01 80.20 C 224.83 75.88 293.67 71.66 362.51 67.54 C 365.08 71.42 367.63 75.30 370.15 79.21 C 364.73 79.34 358.71 78.74 353.97 81.89 C 349.42 85.56 349.31 91.94 347.42 97.05 C 346.73 100.08 343.87 101.78 342.57 104.45 C 341.47 107.51 341.63 110.80 341.48 114.00 C 341.24 122.16 340.48 130.30 340.47 138.47 C 335.80 138.81 331.11 138.10 326.46 138.58 C 316.72 142.59 307.61 148.02 298.61 153.48 C 281.67 163.84 264.67 174.10 247.74 184.48 C 246.48 178.73 248.39 171.68 243.89 167.09 C 239.58 162.91 233.15 164.32 227.91 165.47 C 213.77 167.53 199.61 169.46 185.50 171.73 C 178.76 173.10 171.91 173.88 165.09 174.78 C 161.98 170.90 157.00 170.02 152.31 169.74 C 155.88 150.19 159.59 130.67 163.31 111.15 C 163.90 107.51 165.91 103.64 164.16 100.02 C 161.47 93.40 158.42 86.93 156.01 80.20 Z" />
<path fill="#f5e5c1" opacity="1.00" d=" M 360.20 89.59 C 369.13 89.15 378.10 89.21 387.04 89.06 C 389.83 88.86 392.08 91.49 392.44 94.08 C 393.37 98.80 394.18 103.53 395.03 108.26 C 381.97 106.54 368.88 105.01 355.82 103.24 C 357.39 98.73 358.23 93.96 360.20 89.59 Z" />
<path fill="#f5e5c1" opacity="1.00" d=" M 351.59 108.36 C 367.60 110.50 383.58 112.84 399.61 114.87 C 396.56 126.80 393.27 138.66 390.16 150.56 C 376.86 148.02 363.47 145.87 350.22 143.10 C 350.16 131.51 351.25 119.94 351.59 108.36 Z" />
<path fill="#f3722d" opacity="1.00" d=" M 107.73 132.77 C 108.69 131.74 109.55 129.30 111.41 130.71 C 109.46 145.81 106.52 160.79 104.73 175.92 C 95.42 176.75 86.14 177.80 76.83 178.63 C 86.77 163.10 97.60 148.17 107.73 132.77 Z" />
<path fill="#f3722d" opacity="1.00" d=" M 405.08 133.05 C 411.03 141.61 416.71 150.37 422.20 159.24 C 418.67 157.36 415.52 154.86 411.99 152.98 C 408.41 151.32 404.52 150.49 400.80 149.23 C 402.09 143.80 403.54 138.41 405.08 133.05 Z" />
<path fill="#f5e5c1" opacity="1.00" d=" M 328.92 149.65 C 332.98 148.08 337.42 148.44 341.68 148.22 C 342.31 154.59 340.83 160.78 339.74 166.98 C 340.58 176.70 340.37 186.53 342.11 196.17 C 343.01 201.74 343.86 207.33 344.87 212.89 C 345.47 215.98 346.96 218.81 347.61 221.90 C 348.99 232.82 354.51 242.54 358.10 252.81 C 351.72 252.53 345.33 252.43 338.95 252.15 C 324.18 251.17 309.23 251.98 294.64 249.07 C 290.50 247.18 286.67 244.57 282.97 241.93 C 282.45 238.42 282.61 234.86 282.53 231.34 C 281.36 230.45 280.21 229.54 278.94 228.82 C 273.82 228.38 268.71 229.36 263.59 229.53 C 260.00 226.07 256.28 222.67 253.30 218.66 C 250.02 211.37 250.83 203.20 249.68 195.47 C 251.00 194.52 252.30 193.55 253.69 192.69 C 273.19 180.87 292.69 169.02 312.17 157.15 C 317.35 153.82 323.19 151.78 328.92 149.65 Z" />
<path fill="#f5e5c1" opacity="1.00" d=" M 350.93 148.55 C 361.60 150.29 372.18 152.46 382.84 154.26 C 388.38 155.12 393.57 157.30 398.94 158.86 C 402.91 160.10 407.10 161.00 410.60 163.40 C 417.54 167.99 424.46 172.60 431.44 177.14 C 429.00 182.97 425.21 188.37 424.48 194.79 C 423.83 200.82 421.29 206.90 423.01 212.97 C 424.35 218.08 424.74 223.49 426.65 228.43 C 429.85 232.04 431.81 236.50 434.71 240.32 C 439.81 246.12 444.90 251.94 450.17 257.59 C 445.68 265.47 440.20 272.75 435.27 280.37 C 434.58 281.28 434.29 282.31 434.39 283.46 C 430.70 281.02 426.23 279.98 422.67 277.35 C 416.39 271.31 410.78 264.57 404.34 258.69 C 401.87 256.80 399.37 254.24 396.05 254.26 C 386.25 253.82 376.44 253.45 366.63 253.25 C 361.75 239.72 354.88 226.97 349.75 213.54 C 347.17 198.52 343.25 183.14 346.22 167.86 C 346.99 161.25 348.16 154.66 350.93 148.55 Z" />
<path fill="#3e3e3e" opacity="1.00" d=" M 353.17 153.47 C 355.12 155.73 357.80 158.44 356.66 161.72 C 356.09 163.51 353.95 162.98 352.71 162.33 C 350.47 159.64 352.26 156.29 353.17 153.47 Z" />
<path fill="#f5e5c1" opacity="1.00" d=" M 165.14 184.80 C 188.92 181.48 212.57 177.32 236.36 174.14 C 237.70 198.90 238.74 223.67 239.81 248.45 C 218.86 247.68 197.92 246.81 176.97 246.13 C 174.76 246.46 175.11 243.89 174.64 242.50 C 171.47 223.27 168.16 204.05 165.14 184.80 Z" />
<path fill="#f5e5c1" opacity="1.00" d=" M 89.11 183.95 C 110.66 182.78 132.20 181.36 153.76 180.42 C 155.86 187.79 158.04 195.15 160.01 202.56 C 129.52 204.30 99.01 205.65 68.50 207.10 C 67.78 202.35 67.21 197.59 66.47 192.86 C 69.03 190.25 71.31 187.32 74.25 185.13 C 79.12 184.16 84.17 184.46 89.11 183.95 Z" />
<path fill="#f5e5c1" opacity="1.00" d=" M 428.16 207.95 C 429.41 199.07 430.35 188.68 437.92 182.69 C 442.69 187.54 446.15 193.46 450.28 198.83 C 453.68 203.08 454.25 208.68 456.40 213.53 C 458.71 219.19 462.19 225.22 460.22 231.53 C 458.19 238.13 457.92 245.68 452.97 250.99 C 450.05 252.86 448.23 249.28 446.63 247.45 C 441.46 240.28 436.21 233.13 431.56 225.63 C 429.96 219.87 428.64 213.92 428.16 207.95 Z" />
<path fill="#3e3e3e" opacity="1.00" d=" M 353.70 203.62 C 354.42 202.05 356.40 202.49 357.78 202.09 C 358.17 203.89 359.01 205.75 358.51 207.61 C 357.79 209.52 355.67 210.21 354.08 211.21 C 353.55 208.75 352.56 206.05 353.70 203.62 Z" />
<path fill="#f5e5c1" opacity="1.00" d=" M 111.98 213.23 C 125.65 211.98 139.29 210.56 152.95 209.21 C 152.87 221.64 152.86 234.07 152.95 246.51 C 135.06 246.23 117.17 246.10 99.29 245.64 C 102.67 255.43 100.81 265.93 102.07 276.03 C 103.52 284.37 104.18 292.84 104.34 301.30 C 101.98 296.88 101.34 291.85 99.85 287.13 C 94.50 267.42 88.82 247.81 83.51 228.09 C 90.87 223.63 98.12 218.98 105.59 214.70 C 107.52 213.55 109.81 213.47 111.98 213.23 Z" />
<path fill="#f3722d" opacity="1.00" d=" M 53.07 214.96 C 53.99 213.42 55.15 212.05 56.23 210.63 C 56.95 212.74 56.65 215.88 59.23 216.77 C 62.54 217.93 66.14 217.81 69.58 218.27 C 75.79 241.01 81.81 263.81 88.12 286.52 C 84.92 285.38 81.62 284.58 78.28 284.03 C 74.43 294.59 70.15 305.01 66.79 315.74 C 86.32 326.64 105.79 337.66 125.22 348.75 C 126.53 352.43 127.33 356.32 129.01 359.86 C 129.80 361.27 131.64 360.94 132.98 361.15 C 141.64 361.62 150.32 361.56 158.98 362.11 C 163.85 362.33 168.83 361.86 173.58 363.23 C 172.12 370.36 171.01 377.56 169.78 384.73 C 163.55 386.13 157.15 387.09 151.18 389.41 C 150.01 396.75 150.55 404.31 150.09 411.73 C 150.69 412.01 151.88 412.59 152.48 412.87 C 151.09 417.11 149.36 421.40 149.53 425.94 C 149.68 429.50 150.49 432.99 151.21 436.47 C 146.83 436.22 142.46 435.87 138.09 435.51 C 100.08 377.55 61.80 319.77 23.72 261.87 C 33.41 246.17 43.37 230.65 53.07 214.96 Z" />
<path fill="#f3722d" opacity="1.00" d=" M 465.68 233.17 C 467.81 232.86 470.52 231.76 471.64 234.35 C 477.05 242.75 482.40 251.20 487.83 259.59 C 485.24 262.46 483.15 265.73 481.14 269.02 C 448.14 320.36 415.14 371.69 382.14 423.02 C 376.45 431.57 371.38 440.54 365.09 448.67 C 351.37 448.07 337.67 446.98 323.95 446.43 C 326.53 439.61 328.53 432.54 329.08 425.24 C 332.52 424.44 336.60 424.10 338.94 421.08 C 341.92 417.43 341.61 412.42 342.14 408.01 C 342.39 403.07 343.79 398.09 342.84 393.15 C 341.96 388.65 337.69 385.11 333.09 385.17 C 326.73 384.97 320.36 385.43 314.02 384.84 C 314.71 378.32 316.05 371.91 317.32 365.49 C 328.86 364.61 340.41 365.95 351.96 365.73 C 360.95 365.85 369.94 366.61 378.94 366.19 C 380.79 366.04 382.76 365.46 383.98 363.97 C 385.92 359.59 385.34 354.08 388.02 350.16 C 401.62 344.16 415.41 338.52 429.14 332.79 C 429.40 326.54 429.37 320.29 429.39 314.04 C 432.53 313.23 435.97 313.23 438.93 311.99 C 442.91 306.23 445.76 299.74 449.57 293.86 C 447.65 289.86 444.55 286.40 443.25 282.14 C 448.24 272.57 456.24 264.52 459.17 253.92 C 461.33 247.00 464.32 240.32 465.68 233.17 Z" />
<path fill="#f5e5c1" opacity="1.00" d=" M 254.08 236.43 C 261.94 235.25 269.82 234.18 277.71 233.14 C 277.70 253.08 276.51 272.99 276.27 292.92 C 275.49 311.32 275.34 329.73 274.55 348.12 C 275.84 349.09 277.13 350.04 278.44 350.99 C 278.48 347.70 278.55 344.42 278.59 341.14 C 307.35 341.33 336.11 341.75 364.86 342.31 C 364.33 345.34 363.75 348.36 363.45 351.43 C 365.60 351.40 367.67 350.94 369.32 349.51 C 369.63 343.94 371.24 338.57 372.33 333.12 C 376.16 314.10 380.15 295.11 384.03 276.10 C 384.80 271.47 386.47 267.08 387.62 262.55 C 391.50 262.72 395.38 262.97 399.27 263.26 C 399.96 264.99 400.66 266.73 401.38 268.46 C 401.04 268.74 400.36 269.30 400.02 269.58 C 405.47 275.15 412.93 277.72 419.68 281.25 C 426.39 284.69 433.32 287.72 439.88 291.44 C 437.45 295.92 435.27 300.52 433.06 305.12 C 423.15 299.97 413.28 294.74 403.48 289.38 C 404.59 285.42 405.63 281.43 406.73 277.47 C 404.90 275.98 402.47 274.98 400.22 276.25 C 395.58 294.86 391.76 313.69 387.23 332.34 C 388.92 332.94 390.62 333.55 392.32 334.18 C 393.46 330.36 393.91 326.30 395.51 322.63 C 403.24 317.80 411.97 314.91 420.33 311.36 C 420.66 316.36 421.25 321.35 421.57 326.35 C 407.94 332.56 394.36 338.85 380.69 344.94 C 379.67 348.81 378.72 352.69 377.75 356.58 C 354.83 356.97 331.90 355.24 309.01 356.78 C 305.26 357.10 301.75 355.40 298.03 355.44 C 285.31 355.22 272.57 355.37 259.85 354.75 C 258.19 315.30 255.70 275.89 254.08 236.43 Z" />
<path fill="#3e3e3e" opacity="1.00" d=" M 367.87 243.85 C 369.56 242.76 371.46 242.07 373.29 241.25 C 373.98 244.52 375.08 248.56 372.21 251.14 C 371.44 252.58 369.62 252.61 368.68 251.34 C 367.28 249.25 366.34 246.08 367.87 243.85 Z" />
<path fill="#f5e5c1" opacity="1.00" d=" M 106.13 250.48 C 113.51 250.63 120.87 251.24 128.25 251.44 C 134.71 277.66 142.13 303.65 148.03 330.02 C 149.36 335.91 149.42 343.48 155.80 346.41 C 155.57 343.39 155.12 340.39 154.50 337.43 C 156.22 338.34 157.94 339.49 159.99 339.30 C 189.76 339.57 219.51 340.24 249.28 340.58 C 249.37 342.20 249.34 343.86 249.60 345.48 C 251.33 347.76 253.82 349.27 256.10 350.94 C 256.26 352.24 256.43 353.54 256.60 354.85 C 248.09 354.69 239.56 354.49 231.05 354.72 C 227.03 355.20 223.03 354.78 219.03 354.40 C 192.70 353.97 166.36 353.47 140.02 353.22 C 138.42 353.14 136.77 353.27 135.24 352.73 C 133.59 350.51 133.42 347.54 132.52 344.99 C 123.26 313.61 114.60 282.07 106.13 250.48 Z" />
<path fill="#f5e5c1" opacity="1.00" d=" M 142.33 255.05 C 176.70 256.25 211.06 257.57 245.43 258.64 C 246.12 266.98 247.09 275.30 248.54 283.54 C 246.32 283.81 244.09 284.07 241.85 284.00 C 209.43 282.31 176.99 281.38 144.55 280.26 C 143.63 271.87 143.00 263.46 142.33 255.05 Z" />
<path fill="#f5e5c1" opacity="1.00" d=" M 284.60 263.36 C 316.01 263.64 347.42 264.42 378.83 264.83 C 377.89 270.71 376.90 276.60 375.57 282.41 C 351.36 281.63 327.17 280.48 302.96 279.58 C 296.83 279.09 290.65 279.53 284.57 278.51 C 284.62 273.46 284.60 268.41 284.60 263.36 Z" />
<path fill="#f5e5c1" opacity="1.00" d=" M 147.65 286.62 C 180.69 287.14 213.74 287.53 246.78 288.25 C 247.44 294.29 247.38 300.38 247.68 306.45 C 234.81 306.29 221.93 306.27 209.05 306.18 C 189.48 305.47 169.89 305.85 150.31 305.47 C 149.32 299.20 148.61 292.89 147.65 286.62 Z" />
<path fill="#f5e5c1" opacity="1.00" d=" M 284.61 288.78 C 314.51 289.48 344.43 289.63 374.34 290.38 C 373.23 296.12 372.24 301.89 371.25 307.65 C 342.36 307.52 313.47 307.19 284.59 306.76 C 284.60 300.76 284.59 294.77 284.61 288.78 Z" />
<path fill="#f5e5c1" opacity="1.00" d=" M 72.00 311.90 C 74.26 305.78 76.57 299.68 78.91 293.59 C 85.43 295.99 91.89 298.58 98.01 301.89 C 102.04 304.15 107.01 305.37 109.71 309.42 C 113.91 315.13 118.67 320.45 122.65 326.32 C 125.03 330.04 124.19 334.43 122.60 338.27 C 118.33 335.50 114.06 332.66 109.36 330.64 C 96.93 324.35 84.14 318.74 72.00 311.90 Z" />
<path fill="#3e3e3e" opacity="1.00" d=" M 0.00 296.14 C 36.85 359.32 73.29 422.73 110.00 485.99 C 112.17 489.53 113.82 493.41 116.45 496.65 C 122.88 497.76 129.48 496.83 135.97 497.11 C 221.65 497.09 307.34 497.17 393.01 497.07 C 396.83 497.43 397.67 492.91 399.47 490.45 C 436.92 425.61 474.43 360.79 512.00 296.02 L 512.00 512.00 L 0.00 512.00 L 0.00 296.14 Z" />
<path fill="#f5e5c1" opacity="1.00" d=" M 408.44 297.95 C 414.25 300.04 419.86 302.66 425.66 304.78 C 424.54 306.00 423.43 307.23 422.32 308.46 C 416.74 308.42 411.97 311.92 406.80 313.59 C 405.76 311.97 404.71 310.36 403.67 308.75 C 405.26 305.15 406.80 301.53 408.44 297.95 Z" />
<path fill="#f5e5c1" opacity="1.00" d=" M 343.99 318.26 C 352.37 318.27 360.75 317.44 369.13 317.88 C 368.55 323.22 367.40 328.48 366.48 333.77 C 339.21 333.81 311.95 333.75 284.68 333.80 C 284.65 328.82 284.62 323.84 284.65 318.86 C 304.43 318.82 324.21 318.32 343.99 318.26 Z" />
<path fill="#f5e5c1" opacity="1.00" d=" M 170.02 320.59 C 184.66 320.20 199.32 320.56 213.95 319.85 C 225.42 319.78 236.89 319.70 248.37 319.48 C 248.55 324.25 248.74 329.02 248.87 333.79 C 217.30 333.77 185.72 333.81 154.14 333.69 C 153.53 329.29 152.95 324.88 152.21 320.50 C 158.13 320.97 164.08 320.63 170.02 320.59 Z" />
<path fill="#f5e5c1" opacity="1.00" d=" M 299.08 365.13 C 301.71 364.92 304.35 364.97 306.98 365.11 C 305.86 372.68 303.88 380.10 302.35 387.60 C 265.58 387.43 228.80 387.30 192.02 387.15 C 187.63 387.08 183.26 386.82 178.88 386.79 C 178.51 383.59 177.94 379.69 179.91 376.98 C 186.33 373.97 192.65 369.66 200.01 369.80 C 233.04 368.41 266.05 366.53 299.08 365.13 Z" />
<path fill="#f5e5c1" opacity="1.00" d=" M 158.56 407.45 C 158.75 403.33 157.13 398.71 158.91 394.92 C 177.25 394.43 195.64 394.86 214.00 394.72 C 253.77 394.66 293.53 394.82 333.30 394.64 C 332.51 401.44 331.93 408.26 331.25 415.08 C 321.55 414.00 311.77 413.96 302.04 413.49 C 254.21 411.46 206.39 409.39 158.56 407.45 Z" />
<path fill="#f5e5c1" opacity="1.00" d=" M 159.05 421.88 C 162.52 422.13 166.00 422.25 169.48 422.32 C 169.94 424.92 170.39 427.54 170.84 430.16 C 187.12 430.64 203.42 430.54 219.70 431.22 C 215.18 439.99 206.86 446.80 197.12 448.79 C 191.47 450.22 185.63 449.51 180.01 448.37 C 188.44 454.57 199.91 456.62 209.76 452.76 C 221.37 448.58 229.39 436.92 229.79 424.67 C 232.91 424.75 236.03 424.87 239.15 424.62 C 240.11 431.46 237.39 438.12 234.04 443.95 C 226.35 456.98 211.03 465.16 195.89 463.75 C 179.24 462.70 164.28 449.91 160.34 433.75 C 159.27 429.88 159.12 425.85 159.05 421.88 Z" />
<path fill="#f5e5c1" opacity="1.00" d=" M 240.23 428.54 C 240.18 427.37 240.33 426.20 240.56 425.06 C 244.30 425.25 248.04 425.36 251.78 425.57 C 252.40 428.47 253.05 431.38 253.72 434.28 C 267.90 434.98 282.08 435.81 296.26 436.54 C 290.48 444.82 279.91 449.48 269.92 447.71 C 264.17 446.99 259.21 443.75 254.80 440.21 C 258.71 446.45 264.81 451.43 272.02 453.25 C 282.37 456.17 294.15 452.36 300.92 444.03 C 304.86 439.46 306.81 433.58 307.53 427.67 C 311.38 427.78 315.23 427.85 319.09 427.85 C 317.88 441.39 309.22 453.94 296.95 459.81 C 289.34 463.71 280.50 464.71 272.11 463.41 C 260.01 461.34 249.18 453.20 243.76 442.19 C 241.74 437.93 239.95 433.34 240.23 428.54 Z" />
</svg>
