<?xml version="1.0" encoding="UTF-8" ?>
<!DOCTYPE svg PUBLIC "-//W3C//DTD SVG 1.1//EN" "http://www.w3.org/Graphics/SVG/1.1/DTD/svg11.dtd">
<svg width="512pt" height="512pt" viewBox="0 0 512 512" version="1.1" xmlns="http://www.w3.org/2000/svg">
<path fill="#3e3e3e" opacity="1.00" d=" M 0.00 0.00 L 512.00 0.00 L 512.00 512.00 L 0.00 512.00 L 0.00 0.00 Z" />
<path fill="#f4722b" opacity="1.00" d=" M 231.57 34.01 C 232.40 28.88 232.37 23.64 233.57 18.58 C 278.29 18.71 323.01 18.49 367.73 18.69 C 341.95 57.23 316.88 96.26 290.99 134.72 C 308.80 133.21 326.51 130.70 344.32 129.20 C 313.33 178.33 282.93 227.82 252.17 277.09 C 247.51 284.43 243.13 291.97 238.22 299.16 C 248.31 260.61 258.08 221.98 268.33 183.47 C 249.66 186.55 230.92 189.31 212.21 192.20 C 218.75 139.48 225.09 86.73 231.57 34.01 Z" />
<path fill="#f5e5c1" opacity="1.00" d=" M 124.69 125.67 C 126.06 124.83 127.49 124.11 128.88 123.31 C 133.14 125.75 137.57 127.88 141.87 130.24 C 151.00 135.04 160.10 139.91 169.20 144.78 C 176.47 148.32 182.89 153.30 189.84 157.39 C 191.24 157.87 192.63 158.38 194.02 158.88 C 195.06 159.17 196.10 159.45 197.15 159.73 C 198.83 163.10 200.78 166.33 202.39 169.74 C 203.15 171.31 202.04 172.88 201.34 174.23 C 193.92 187.06 187.02 200.19 179.45 212.93 C 179.52 213.57 179.58 214.21 179.65 214.86 C 194.23 222.71 207.88 232.21 222.48 240.01 C 222.49 240.76 222.50 241.51 222.52 242.26 C 209.25 260.90 196.92 280.20 183.81 298.95 C 182.94 300.08 182.49 301.42 182.27 302.81 C 187.10 304.26 191.51 306.75 196.10 308.78 C 204.77 312.76 213.40 316.82 222.08 320.78 C 226.73 322.85 231.26 325.18 235.93 327.21 C 236.99 327.71 238.06 328.22 239.14 328.74 C 242.11 330.10 245.09 331.44 248.06 332.81 C 248.99 333.28 249.92 333.75 250.85 334.22 C 254.61 335.72 258.19 337.60 261.87 339.28 C 265.99 340.99 269.96 343.06 274.04 344.88 C 275.23 345.26 276.43 345.63 277.64 345.99 C 277.52 348.00 277.32 350.01 276.95 352.00 C 276.22 355.97 275.59 359.96 274.81 363.92 C 273.28 373.78 270.89 383.52 270.17 393.48 C 270.60 393.54 271.46 393.66 271.89 393.72 C 279.50 396.17 287.32 397.86 294.97 400.17 C 297.29 400.71 299.59 401.33 301.90 401.89 C 302.67 402.16 304.21 402.70 304.98 402.97 C 300.66 407.65 295.89 411.91 290.84 415.79 C 289.11 417.18 286.88 418.51 286.62 420.95 C 284.52 431.33 282.17 441.66 279.88 451.99 C 278.41 459.39 276.56 466.71 275.21 474.13 L 274.87 474.87 C 274.51 477.64 273.54 480.26 272.26 482.73 C 267.27 483.13 263.26 479.94 259.07 477.80 C 245.21 470.44 230.98 463.71 217.61 455.46 C 213.47 452.19 208.77 449.81 204.03 447.55 C 200.36 447.39 196.68 447.36 193.00 447.15 C 189.07 446.40 185.04 446.60 181.11 445.84 C 170.50 444.34 160.06 441.65 150.04 437.85 C 142.32 435.25 135.26 431.10 127.98 427.59 C 120.73 428.20 113.48 429.22 106.26 430.25 C 104.17 430.44 102.09 430.75 100.04 431.19 C 94.36 431.57 88.72 432.34 83.11 433.26 C 80.73 433.45 78.34 433.63 76.01 434.19 C 73.23 434.38 70.02 435.21 67.59 433.39 C 67.31 432.55 66.73 430.88 66.45 430.04 C 68.38 422.13 68.43 413.85 70.05 405.85 C 70.66 398.52 72.23 391.30 72.76 383.96 C 73.80 380.03 75.22 375.84 74.34 371.76 C 72.21 367.52 69.99 363.33 68.17 358.95 C 67.51 357.25 66.88 355.54 66.26 353.83 C 65.73 352.58 65.21 351.34 64.68 350.10 C 64.58 349.58 64.38 348.53 64.27 348.01 C 61.69 341.57 60.57 334.69 59.06 327.95 C 58.50 323.84 58.10 319.70 57.38 315.61 C 44.98 301.35 32.93 286.77 20.54 272.49 C 18.99 270.94 18.45 268.81 18.25 266.69 C 19.45 265.65 20.64 264.62 21.84 263.59 C 22.39 263.52 23.50 263.38 24.05 263.31 C 31.10 259.36 38.61 256.29 45.89 252.77 C 47.22 252.10 48.58 251.50 49.92 250.85 C 53.59 249.16 57.25 247.47 60.88 245.71 C 62.64 244.95 64.35 244.08 66.09 243.28 C 67.73 242.52 69.37 241.78 71.01 241.03 C 78.72 225.04 89.27 210.39 102.20 198.20 C 104.81 195.59 108.25 193.63 110.19 190.44 C 113.91 174.66 117.21 158.76 120.87 142.96 C 121.92 138.32 122.89 133.66 123.89 129.01 C 124.17 127.90 124.44 126.79 124.69 125.67 Z" />
<path fill="#3e3e3e" opacity="1.00" d=" M 133.74 137.39 C 134.53 137.37 135.31 137.35 136.10 137.33 C 152.08 146.06 168.05 154.81 184.03 163.53 C 186.48 164.84 189.07 165.98 191.14 167.87 C 192.93 169.43 192.44 171.96 192.59 174.06 C 183.07 184.06 170.54 190.53 157.89 195.66 C 156.91 196.07 155.93 196.48 154.94 196.89 C 150.72 198.53 146.39 199.84 142.07 201.18 C 135.07 202.97 127.95 204.24 120.70 203.64 C 119.80 201.92 118.13 200.30 118.48 198.19 C 119.17 193.34 121.04 188.75 121.89 183.92 L 122.23 183.21 C 125.88 167.89 130.42 152.79 133.74 137.39 Z" />
<path fill="#f5e5c1" opacity="1.00" d=" M 387.69 141.52 C 388.42 141.58 389.15 141.63 389.89 141.69 C 400.21 149.09 409.76 157.57 418.06 167.19 C 419.03 167.52 420.02 167.85 420.99 168.20 C 423.00 168.45 425.00 168.77 426.99 169.14 C 432.39 169.80 437.54 171.68 442.98 172.12 C 446.62 172.83 450.28 173.48 453.98 173.86 C 457.37 175.05 460.93 175.63 464.53 175.64 L 464.49 176.31 C 468.03 176.49 471.50 177.26 474.98 177.89 C 476.97 178.36 478.97 178.76 480.96 179.25 C 481.58 179.32 482.82 179.47 483.44 179.54 C 484.52 180.34 485.61 181.13 486.72 181.92 C 486.47 183.81 486.25 185.75 485.33 187.46 C 481.05 195.86 477.21 204.48 472.87 212.85 C 471.06 217.04 468.39 220.84 467.06 225.23 C 465.64 227.80 464.14 230.33 462.87 232.98 C 459.18 239.80 453.98 246.14 452.59 253.95 C 452.61 266.01 452.90 278.32 449.46 290.01 C 449.64 291.33 449.89 292.64 450.20 293.94 C 451.54 296.81 452.32 299.89 453.08 302.95 C 453.91 305.70 454.85 308.40 455.82 311.10 C 457.01 314.69 458.07 318.32 459.15 321.95 C 459.52 322.95 459.91 323.96 460.31 324.97 C 460.42 325.49 460.63 326.53 460.74 327.05 C 461.45 329.06 462.14 331.08 462.79 333.12 C 464.45 338.45 466.29 343.72 467.81 349.10 C 468.26 350.37 468.69 351.66 469.15 352.95 C 470.14 357.71 472.89 362.15 472.64 367.12 C 472.83 368.88 471.03 369.84 469.65 370.31 C 465.09 370.83 460.44 370.08 455.93 371.10 C 437.54 371.74 419.13 371.81 400.73 371.54 C 391.11 379.78 380.31 386.83 368.64 391.80 L 368.34 392.64 C 368.01 392.61 367.36 392.55 367.03 392.52 C 365.35 393.35 363.67 394.19 361.92 394.85 C 360.61 395.38 359.30 395.90 358.00 396.45 C 357.75 396.48 357.26 396.53 357.02 396.55 C 353.73 397.85 350.37 398.96 346.97 399.91 C 345.63 400.26 344.29 400.59 342.96 400.94 C 340.35 401.60 337.66 401.78 334.99 401.69 C 328.54 393.22 321.47 385.26 314.82 376.97 C 313.84 375.91 313.36 374.57 313.19 373.17 C 316.77 370.46 319.63 366.95 322.87 363.87 C 330.22 356.52 337.69 349.29 345.04 341.95 C 346.72 340.18 344.41 338.09 343.64 336.47 C 331.11 314.80 318.76 293.03 306.21 271.38 C 304.17 267.52 301.55 263.95 300.00 259.85 C 299.76 259.68 299.28 259.36 299.04 259.19 C 297.25 255.71 295.24 252.36 293.34 248.94 C 295.23 248.22 297.11 247.48 298.99 246.74 C 299.51 246.62 300.56 246.37 301.09 246.25 C 303.00 245.42 304.92 244.62 306.84 243.82 C 308.27 243.32 309.69 242.80 311.13 242.30 C 317.68 239.71 324.36 237.43 330.89 234.77 C 332.31 234.28 333.72 233.77 335.15 233.29 C 336.39 232.77 337.63 232.27 338.88 231.76 C 340.30 231.27 341.72 230.76 343.15 230.27 C 344.38 229.76 345.63 229.26 346.88 228.76 C 348.29 228.26 349.71 227.74 351.13 227.24 C 352.38 226.75 353.63 226.27 354.89 225.79 C 356.60 225.12 358.32 224.44 360.02 223.74 C 360.51 223.67 361.48 223.51 361.97 223.43 C 361.67 221.90 361.36 220.37 361.01 218.85 C 360.81 218.39 360.40 217.48 360.20 217.03 C 359.52 215.64 358.82 214.26 358.15 212.87 C 357.19 210.53 356.20 208.20 355.22 205.87 C 353.87 202.90 352.54 199.93 351.28 196.93 C 350.22 194.61 349.19 192.27 348.20 189.93 C 346.20 184.99 343.45 180.31 342.24 175.09 C 346.73 173.43 350.88 170.97 355.35 169.26 L 355.66 168.79 C 362.63 165.94 369.22 162.25 376.13 159.25 C 377.04 158.76 377.96 158.26 378.88 157.76 C 381.44 156.73 383.94 155.53 386.38 154.22 C 387.19 150.03 387.69 145.79 387.69 141.52 Z" />
<path fill="#3e3e3e" opacity="1.00" d=" M 406.40 178.80 C 410.32 174.52 416.19 176.96 420.97 177.99 C 436.03 181.21 451.02 184.74 466.09 187.87 C 468.72 188.52 471.37 189.10 474.02 189.68 C 465.12 208.45 455.47 226.86 446.31 245.52 C 445.14 248.45 442.17 249.77 439.15 249.57 C 427.22 239.90 420.27 225.69 414.21 211.92 C 413.40 209.95 412.58 207.99 411.71 206.05 C 411.61 205.53 411.40 204.48 411.30 203.95 C 410.76 202.68 410.24 201.39 409.72 200.12 C 408.04 193.12 405.79 186.11 406.40 178.80 Z" />
<path fill="#3e3e3e" opacity="1.00" d=" M 131.01 221.82 C 134.01 221.63 137.03 221.46 139.98 220.78 C 143.04 220.53 146.12 220.50 149.19 220.59 L 149.86 221.18 C 155.02 221.80 160.47 222.13 165.01 224.92 C 175.48 230.45 181.80 242.34 181.67 254.03 C 182.28 271.98 170.22 288.91 153.93 295.83 C 140.48 301.52 123.09 298.97 113.75 287.13 C 110.78 283.53 108.76 279.28 106.74 275.11 C 105.96 269.10 105.09 263.09 105.36 257.01 C 104.50 246.24 104.43 235.44 104.38 224.64 C 107.59 224.59 110.82 224.47 113.97 223.83 C 119.66 223.30 125.37 222.76 131.01 221.82 Z" />
<path fill="#3e3e3e" opacity="1.00" d=" M 362.88 233.72 C 367.51 232.62 372.27 232.18 377.01 232.63 C 379.68 233.38 382.33 234.17 384.94 235.13 C 389.34 237.48 393.80 240.03 397.04 243.93 C 401.60 248.93 404.51 255.11 408.21 260.72 C 412.52 268.24 417.51 275.38 421.70 282.96 C 421.62 283.43 421.45 284.36 421.37 284.83 C 413.59 290.17 406.05 295.85 398.35 301.31 C 393.97 304.27 390.03 308.01 384.99 309.87 C 383.69 310.35 382.38 310.82 381.10 311.32 C 380.57 311.43 379.51 311.65 378.98 311.76 C 373.89 314.94 367.56 313.49 361.91 313.39 C 350.34 310.24 341.11 301.13 337.09 289.93 C 335.79 286.11 335.34 282.10 334.64 278.15 C 334.30 272.30 335.43 266.52 336.72 260.85 C 340.29 250.22 347.66 240.68 357.90 235.77 C 359.57 235.11 361.23 234.42 362.88 233.72 Z" />
<path fill="#3e3e3e" opacity="1.00" d=" M 74.61 249.64 C 80.20 247.66 85.40 244.76 90.93 242.63 C 93.09 241.79 95.22 243.19 97.28 243.72 C 98.31 247.06 98.87 250.52 98.74 254.02 C 99.11 267.08 96.27 279.99 92.44 292.40 C 89.19 302.01 85.40 311.66 79.06 319.70 C 76.65 319.51 73.58 320.35 71.96 318.02 C 64.59 309.36 57.94 300.13 50.68 291.37 C 44.80 284.40 39.79 276.72 33.49 270.10 C 33.53 269.41 33.57 268.73 33.62 268.06 C 37.58 266.71 41.31 264.81 45.02 262.89 C 46.02 262.56 47.02 262.24 48.03 261.92 C 50.69 260.66 53.36 259.41 56.01 258.14 C 57.38 257.47 58.75 256.80 60.12 256.16 C 62.76 255.12 65.37 254.00 67.94 252.79 C 69.41 252.28 70.88 251.75 72.35 251.25 L 72.56 250.34 C 73.00 250.42 73.88 250.59 74.32 250.67 L 74.61 249.64 Z" />
<path fill="#3e3e3e" opacity="1.00" d=" M 425.61 304.59 C 428.82 301.88 432.06 299.03 435.98 297.41 C 438.47 296.57 440.43 298.58 442.29 299.87 C 445.53 311.25 448.58 322.69 451.85 334.07 C 452.21 335.37 452.55 336.67 452.91 337.99 C 455.04 344.16 456.23 350.62 458.23 356.85 C 458.71 358.41 459.22 359.96 459.74 361.53 C 452.81 361.39 445.95 362.68 439.02 362.39 C 427.69 362.68 416.32 362.22 405.03 363.30 C 401.53 363.46 398.03 363.40 394.54 363.48 C 393.11 362.14 391.70 360.80 390.29 359.46 C 391.74 350.03 396.31 341.47 401.35 333.51 C 408.32 323.01 416.21 313.03 425.61 304.59 Z" />
<path fill="#3e3e3e" opacity="1.00" d=" M 152.46 353.96 C 155.13 341.98 165.40 333.00 176.94 329.76 C 178.64 329.44 180.33 329.09 182.01 328.68 C 185.71 328.47 189.42 328.50 193.12 328.65 C 196.12 329.30 199.11 329.97 202.09 330.73 C 214.58 335.10 225.52 344.74 229.85 357.44 C 232.35 364.37 232.07 371.99 230.28 379.05 C 227.49 386.44 222.18 392.44 215.91 397.10 C 214.96 397.46 214.02 397.83 213.08 398.20 C 210.78 399.25 208.48 400.27 206.15 401.22 C 203.75 401.74 201.40 402.49 199.09 403.31 C 198.57 403.44 197.51 403.69 196.99 403.81 C 187.28 406.44 177.91 410.72 167.84 411.71 C 167.16 409.84 166.49 407.99 165.81 406.13 C 163.82 401.10 161.86 396.06 159.84 391.04 C 159.50 390.06 159.15 389.08 158.80 388.10 C 156.34 381.53 152.72 375.15 152.49 367.98 C 152.16 363.31 150.83 358.54 152.46 353.96 Z" />
<path fill="#3e3e3e" opacity="1.00" d=" M 85.75 361.45 C 86.04 359.03 88.36 357.79 89.94 356.25 C 98.11 358.17 104.85 363.56 111.29 368.69 C 123.49 379.32 134.55 391.55 142.28 405.87 C 143.04 407.95 144.13 409.96 144.39 412.20 C 143.53 413.91 142.03 415.16 140.66 416.45 C 135.13 417.15 129.59 417.59 124.03 417.86 C 113.07 419.32 101.98 419.92 91.02 421.24 C 86.40 421.48 81.75 421.65 77.23 422.70 C 77.33 419.79 77.46 416.87 77.90 413.99 C 80.69 396.50 83.12 378.96 85.75 361.45 Z" />
<path fill="#3e3e3e" opacity="1.00" d=" M 250.97 407.04 C 257.44 405.04 264.07 403.55 270.79 402.67 C 273.30 402.26 275.79 402.85 278.18 403.62 C 280.98 408.29 278.25 413.32 277.19 418.06 C 273.04 435.32 268.19 452.41 264.30 469.73 C 263.71 469.66 262.54 469.52 261.95 469.46 C 250.46 462.69 238.54 456.68 226.86 450.24 C 220.87 446.94 214.80 443.77 208.82 440.45 C 206.38 439.32 205.02 436.69 205.37 434.05 C 206.51 431.52 208.57 429.57 210.66 427.81 C 215.71 423.67 221.24 420.14 227.03 417.14 C 229.67 415.71 232.35 414.36 235.08 413.11 C 237.42 412.12 239.77 411.15 242.16 410.27 C 243.40 409.72 244.64 409.19 245.88 408.63 C 246.41 408.54 247.48 408.35 248.01 408.25 C 249.00 407.84 249.98 407.44 250.97 407.04 Z" />
</svg>
