<?xml version="1.0" encoding="UTF-8" standalone="no"?>
<svg
   xmlns:dc="http://purl.org/dc/elements/1.1/"
   xmlns:cc="http://creativecommons.org/ns#"
   xmlns:rdf="http://www.w3.org/1999/02/22-rdf-syntax-ns#"
   xmlns:svg="http://www.w3.org/2000/svg"
   xmlns="http://www.w3.org/2000/svg"
   xmlns:sodipodi="http://sodipodi.sourceforge.net/DTD/sodipodi-0.dtd"
   xmlns:inkscape="http://www.inkscape.org/namespaces/inkscape"
   width="1280"
   height="1280"
   viewBox="0 0 1024 1024"
   version="1.1"
   id="svg2"
   inkscape:version="0.48.1 "
   sodipodi:docname="damage_taken.svg">
  <metadata
     id="metadata16">
    <rdf:RDF>
      <cc:Work
         rdf:about="">
        <dc:format>image/svg+xml</dc:format>
        <dc:type
           rdf:resource="http://purl.org/dc/dcmitype/StillImage" />
      </cc:Work>
    </rdf:RDF>
  </metadata>
  <defs
     id="defs14" />
  <sodipodi:namedview
     pagecolor="#ffffff"
     bordercolor="#666666"
     borderopacity="1"
     objecttolerance="10"
     gridtolerance="10"
     guidetolerance="10"
     inkscape:pageopacity="0"
     inkscape:pageshadow="2"
     inkscape:window-width="1920"
     inkscape:window-height="1018"
     id="namedview12"
     showgrid="false"
     fit-margin-top="0"
     fit-margin-left="0"
     fit-margin-right="0"
     fit-margin-bottom="0"
     inkscape:zoom="0.48125"
     inkscape:cx="1070.5393"
     inkscape:cy="523.50375"
     inkscape:window-x="-8"
     inkscape:window-y="-8"
     inkscape:window-maximized="1"
     inkscape:current-layer="svg2" />
  <path
     d="m 0,0 1024,0 0,1024 L 0,1024 0,0 z"
     id="path4"
     style="fill:#3e3e3e"
     inkscape:connector-curvature="0" />
  <path
     d="m 726.65,48.9 c -124.18,5.14 -248.34,10.58 -372.5,15.8 6.2,93.78 13.1,187.44 19.4,281.2 -114.5,6.36 -229.04,11.92 -343.5,18.6 4.16,106.82 8.12,213.58 12.4,320.4 118.1,-1.74 236.22,-3.66 354.3,-5.8 2.48,48.6 9.89,96.75 15.55,145.05 6.44,53.8 13.66,107.54 19.6,161.4 34.08,-0.86 68.07,-3.58 102.15,-4.9 49.42,-2.74 98.86,-5.02 148.3,-7.8 4.6,-99.5 9.41,-199.02 14.25,-298.5 99.66,-1.8 199.34,-3.28 299,-4.9 4.86,-119.08 9.38,-238.17 13.9,-357.25 -98.82,4.9 -197.58,10.6 -296.4,15.5 4.72,-92.92 8.65,-185.88 13.55,-278.8 z m -323.9,55.3 c 61.8,2.54 123.52,6.63 185.3,9.55 30.58,1.94 61.22,3.01 91.8,5.15 -3.56,81.86 -7.1,163.69 -10.7,245.55 92.42,-2.98 184.86,-5.93 277.3,-8.15 2.26,93.78 4.87,187.57 6.85,281.35 -91.82,2.12 -183.66,3.93 -275.5,5.85 C 666.44,740.94 654.6,838.33 643,935.75 583.94,945.81 524.8,955.5 465.7,965.4 459.76,855.16 452.75,744.97 446.65,634.75 333.99,639.85 221.36,645.05 108.7,649.95 100.3,562.79 92.66,475.5 84.5,388.3 c 107.62,2.84 215.23,5.73 322.85,8.75 -1.36,-97.62 -3.12,-195.23 -4.6,-292.85 z"
     id="path6"
     style="fill:#f5e5c1"
     inkscape:connector-curvature="0" />
  <path
     d="m 468.72,759.12 c 60.68,-0.02 121.34,-0.02 182.02,0 -6.54,55.68 -12.22,111.46 -18.6,167.14 -2.18,1.78 -5.44,1.34 -8.04,2.04 -49.7,6.78 -99.38,13.62 -149.04,20.74 -2.18,-63.3 -4.16,-126.62 -6.34,-189.92 z"
     id="path10"
     inkscape:connector-curvature="0"
     style="fill:#f4722b" />
</svg>
