<?xml version="1.0" encoding="UTF-8" ?>
<!DOCTYPE svg PUBLIC "-//W3C//DTD SVG 1.1//EN" "http://www.w3.org/Graphics/SVG/1.1/DTD/svg11.dtd">
<svg width="512pt" height="512pt" viewBox="0 0 512 512" version="1.1" xmlns="http://www.w3.org/2000/svg">
<path fill="#3e3e3e" opacity="1.00" d=" M 0.00 0.00 L 512.00 0.00 L 512.00 363.67 C 509.59 360.87 507.06 358.17 504.55 355.47 C 501.62 351.79 496.19 352.46 492.13 353.35 C 485.68 356.00 479.50 359.30 473.26 362.40 C 464.63 352.77 457.37 341.96 448.21 332.80 C 447.38 331.93 446.66 330.95 446.16 329.86 C 425.39 281.93 404.87 233.89 383.90 186.05 C 382.39 182.21 379.45 179.24 377.38 175.74 C 376.87 167.50 378.55 159.29 378.43 151.05 C 377.71 137.32 375.52 123.05 367.60 111.45 C 363.11 105.24 358.98 98.76 354.35 92.64 C 348.84 86.49 343.20 80.43 337.64 74.31 C 334.96 71.24 331.16 69.55 328.04 67.00 C 320.82 61.31 313.65 55.30 305.08 51.72 C 300.55 49.87 296.86 46.24 291.93 45.36 C 284.96 43.84 278.04 42.07 271.03 40.73 C 262.72 39.61 254.37 38.84 246.04 37.87 C 236.39 36.87 226.69 35.20 216.97 36.32 C 203.72 37.85 190.48 39.55 177.24 41.12 C 173.63 41.49 169.94 41.94 166.68 43.65 C 157.12 48.44 147.60 53.32 138.01 58.07 C 136.10 59.03 134.18 60.07 132.73 61.68 C 121.74 73.71 110.53 85.56 99.63 97.66 C 93.28 108.64 86.93 119.62 80.79 130.71 C 78.53 135.02 73.90 137.16 70.76 140.67 C 68.80 146.96 70.05 153.77 68.44 160.18 C 70.90 163.52 73.61 166.70 75.76 170.26 C 77.86 173.51 76.83 177.81 74.92 180.91 C 69.62 189.96 64.48 199.11 59.20 208.16 C 56.56 212.56 55.85 217.74 54.29 222.55 C 52.18 230.43 49.68 238.20 47.73 246.11 C 48.00 250.71 49.10 255.49 51.23 259.59 C 56.77 261.87 63.00 261.68 68.64 263.69 C 71.05 265.76 72.47 268.75 74.40 271.26 C 71.46 277.98 68.36 284.62 65.24 291.26 C 63.27 294.57 64.38 299.46 66.94 302.05 C 76.41 302.42 86.45 299.45 95.48 303.51 C 100.08 305.43 105.58 305.99 109.03 309.96 C 112.54 313.75 117.81 317.14 123.16 315.33 C 123.16 313.04 123.21 310.76 123.27 308.48 C 124.86 308.67 126.44 309.13 127.40 310.50 C 131.03 314.65 134.78 318.71 138.44 322.84 C 137.87 325.51 137.45 328.20 137.11 330.91 C 124.54 324.90 112.27 318.28 99.49 312.71 C 93.19 311.03 86.54 311.33 80.10 310.47 C 74.39 310.10 68.71 309.17 62.99 309.14 C 59.65 310.72 58.07 315.15 59.39 318.54 C 69.66 321.46 80.78 320.61 90.99 324.06 C 98.70 326.64 106.79 328.14 114.26 331.36 C 111.50 332.50 108.56 332.04 105.74 331.41 C 99.12 330.09 92.45 329.08 85.83 327.77 C 79.78 326.54 73.61 327.36 67.52 327.67 C 69.85 335.70 71.81 343.83 74.04 351.89 C 74.30 353.35 75.04 354.98 74.40 356.44 C 70.97 361.58 64.12 364.47 63.08 371.04 C 60.34 382.03 57.45 392.99 54.66 403.97 C 56.61 408.56 58.65 413.10 60.51 417.73 C 62.37 418.53 64.23 419.36 66.24 419.73 C 88.50 423.53 110.78 427.29 133.04 431.13 C 135.56 431.41 137.02 433.70 138.71 435.31 C 139.83 436.75 141.77 437.95 141.65 439.99 C 141.88 448.00 141.54 456.02 142.15 464.02 C 142.32 480.01 142.39 496.01 142.54 512.00 L 0.00 512.00 L 0.00 0.00 Z" />
<path fill="#f5e5c1" opacity="1.00" d=" M 177.24 41.12 C 190.48 39.55 203.72 37.85 216.97 36.32 C 226.69 35.20 236.39 36.87 246.04 37.87 C 254.37 38.84 262.72 39.61 271.03 40.73 C 278.04 42.07 284.96 43.84 291.93 45.36 C 296.86 46.24 300.55 49.87 305.08 51.72 C 313.65 55.30 320.82 61.31 328.04 67.00 C 331.16 69.55 334.96 71.24 337.64 74.31 C 343.20 80.43 348.84 86.49 354.35 92.64 C 358.98 98.76 363.11 105.24 367.60 111.45 C 375.52 123.05 377.71 137.32 378.43 151.05 C 378.55 159.29 376.87 167.50 377.38 175.74 C 379.45 179.24 382.39 182.21 383.90 186.05 C 404.87 233.89 425.39 281.93 446.16 329.86 C 446.66 330.95 447.38 331.93 448.21 332.80 C 457.37 341.96 464.63 352.77 473.26 362.40 C 479.50 359.30 485.68 356.00 492.13 353.35 C 496.19 352.46 501.62 351.79 504.55 355.47 C 507.06 358.17 509.59 360.87 512.00 363.67 L 512.00 512.00 L 230.75 512.00 C 318.65 463.15 406.55 414.28 494.45 365.43 C 496.00 364.63 497.61 363.96 499.22 363.29 C 497.78 361.79 496.36 360.27 494.94 358.75 C 488.17 361.92 481.56 365.42 475.03 369.05 C 384.25 416.81 293.63 464.87 202.52 512.00 L 179.45 512.00 C 182.58 510.04 186.21 508.47 188.30 505.27 C 206.01 478.99 223.76 452.74 241.51 426.48 C 243.01 424.10 245.11 421.92 245.66 419.07 C 252.85 374.03 260.09 328.99 267.29 283.96 C 267.32 282.16 268.93 281.19 270.15 280.17 C 275.99 275.71 281.57 270.92 287.35 266.39 C 291.30 266.54 295.11 265.32 298.92 264.48 C 303.82 263.54 307.75 260.31 311.97 257.88 C 318.27 252.65 321.00 244.48 323.01 236.82 C 326.87 224.90 327.00 212.22 329.48 200.00 C 331.56 191.12 331.50 181.32 327.53 172.98 C 327.84 179.36 328.20 185.88 326.36 192.09 C 323.75 201.53 321.47 211.08 318.36 220.37 C 314.33 229.92 308.08 238.48 300.76 245.77 C 296.96 248.68 292.83 251.22 288.59 253.44 C 277.04 256.72 264.06 254.72 254.10 247.95 C 255.65 253.25 259.66 257.00 263.81 260.36 C 263.76 270.59 263.21 280.81 262.61 291.02 C 262.44 294.56 261.12 297.89 260.16 301.27 C 254.53 320.59 248.84 339.90 243.21 359.23 C 242.63 361.94 240.21 363.53 238.32 365.32 C 235.64 367.58 233.33 370.49 229.90 371.64 C 202.70 381.75 175.39 391.52 148.12 401.43 C 145.46 402.36 142.85 403.59 140.03 403.97 C 117.52 405.21 94.97 405.46 72.44 406.42 C 72.60 408.13 72.76 409.85 72.92 411.57 C 82.40 413.61 91.87 415.74 101.43 417.37 C 114.26 419.37 127.15 421.01 140.00 422.91 C 143.44 423.49 147.14 422.86 150.31 424.62 C 152.34 453.78 154.75 482.91 157.50 512.00 L 142.54 512.00 C 142.39 496.01 142.32 480.01 142.15 464.02 C 141.54 456.02 141.88 448.00 141.65 439.99 C 141.77 437.95 139.83 436.75 138.71 435.31 C 137.02 433.70 135.56 431.41 133.04 431.13 C 110.78 427.29 88.50 423.53 66.24 419.73 C 64.23 419.36 62.37 418.53 60.51 417.73 C 58.65 413.10 56.61 408.56 54.66 403.97 C 57.45 392.99 60.34 382.03 63.08 371.04 C 64.12 364.47 70.97 361.58 74.40 356.44 C 75.04 354.98 74.30 353.35 74.04 351.89 C 71.81 343.83 69.85 335.70 67.52 327.67 C 73.61 327.36 79.78 326.54 85.83 327.77 C 92.45 329.08 99.12 330.09 105.74 331.41 C 108.56 332.04 111.50 332.50 114.26 331.36 C 106.79 328.14 98.70 326.64 90.99 324.06 C 80.78 320.61 69.66 321.46 59.39 318.54 C 58.07 315.15 59.65 310.72 62.99 309.14 C 68.71 309.17 74.39 310.10 80.10 310.47 C 86.54 311.33 93.19 311.03 99.49 312.71 C 112.27 318.28 124.54 324.90 137.11 330.91 C 137.45 328.20 137.87 325.51 138.44 322.84 C 134.78 318.71 131.03 314.65 127.40 310.50 C 126.44 309.13 124.86 308.67 123.27 308.48 C 123.21 310.76 123.16 313.04 123.16 315.33 C 117.81 317.14 112.54 313.75 109.03 309.96 C 105.58 305.99 100.08 305.43 95.48 303.51 C 86.45 299.45 76.41 302.42 66.94 302.05 C 64.38 299.46 63.27 294.57 65.24 291.26 C 68.36 284.62 71.46 277.98 74.40 271.26 C 72.47 268.75 71.05 265.76 68.64 263.69 C 63.00 261.68 56.77 261.87 51.23 259.59 C 49.10 255.49 48.00 250.71 47.73 246.11 C 49.68 238.20 52.18 230.43 54.29 222.55 C 55.85 217.74 56.56 212.56 59.20 208.16 C 64.48 199.11 69.62 189.96 74.92 180.91 C 76.83 177.81 77.86 173.51 75.76 170.26 C 73.61 166.70 70.90 163.52 68.44 160.18 C 70.05 153.77 68.80 146.96 70.76 140.67 C 73.90 137.16 78.53 135.02 80.79 130.71 C 86.93 119.62 93.28 108.64 99.63 97.66 C 110.53 85.56 121.74 73.71 132.73 61.68 C 134.18 60.07 136.10 59.03 138.01 58.07 C 147.60 53.32 157.12 48.44 166.68 43.65 C 169.94 41.94 173.63 41.49 177.24 41.12 Z" />
<path fill="#3e3e3e" opacity="1.00" d=" M 366.59 127.78 C 371.18 132.11 371.63 139.03 371.71 144.96 C 371.97 154.02 371.17 163.06 370.19 172.06 C 364.02 173.91 357.90 175.90 351.78 177.89 C 349.18 178.82 346.39 178.52 343.77 177.93 C 348.15 173.27 353.67 169.76 358.35 165.48 C 361.06 155.45 362.98 145.20 365.73 135.17 C 366.42 132.76 366.44 130.25 366.59 127.78 Z" />
<path fill="#3e3e3e" opacity="1.00" d=" M 96.08 162.05 C 103.76 160.69 111.04 155.60 119.08 157.79 C 128.73 163.72 137.67 170.71 146.92 177.23 C 143.70 179.41 140.29 181.29 137.09 183.51 C 135.98 183.12 134.87 182.73 133.76 182.33 C 130.61 175.50 121.52 174.97 115.23 177.09 C 115.43 178.47 115.65 179.85 115.87 181.23 C 111.61 181.60 107.24 181.59 103.14 182.96 C 102.93 191.67 103.04 200.36 102.96 209.07 C 103.28 212.25 105.11 216.12 108.63 216.60 C 116.27 217.61 124.07 217.24 131.64 218.72 C 129.57 226.71 128.13 234.83 126.91 242.99 C 117.27 233.59 108.05 223.75 98.58 214.17 C 97.09 203.68 98.06 192.98 96.14 182.54 C 94.90 178.19 93.69 173.82 92.41 169.47 C 89.04 167.54 85.55 170.34 82.23 170.06 C 80.44 167.62 79.13 164.87 77.89 162.12 C 83.96 162.02 90.02 162.29 96.08 162.05 Z" />
<path fill="#3e3e3e" opacity="1.00" d=" M 287.23 169.29 C 291.40 166.70 296.45 168.08 300.99 168.60 C 303.45 169.47 305.84 170.63 308.08 171.94 C 311.31 176.00 314.51 180.16 317.30 184.53 C 317.89 188.54 319.24 192.97 317.90 196.88 C 317.60 196.80 316.99 196.63 316.68 196.55 C 314.37 193.13 312.42 189.34 308.95 186.91 C 301.63 182.29 292.16 178.87 283.88 183.23 C 287.35 189.96 291.41 196.38 295.12 202.99 C 296.82 206.12 299.58 209.26 298.63 213.11 C 297.84 215.86 298.06 219.42 295.57 221.25 C 295.54 217.98 295.07 214.57 292.92 211.96 C 289.78 207.17 280.89 206.64 278.49 212.40 C 277.73 217.20 279.63 222.57 276.52 226.88 C 277.45 230.60 279.04 235.64 275.67 238.60 C 272.00 241.21 267.56 237.47 266.19 234.03 C 263.96 228.15 268.86 222.22 274.33 220.66 C 275.12 215.42 273.68 210.23 273.72 205.00 C 273.77 201.68 273.48 198.36 273.60 195.05 C 274.21 191.50 275.15 188.00 275.54 184.41 C 274.64 184.48 272.85 184.62 271.95 184.69 C 269.15 190.50 269.84 196.97 269.57 203.21 C 267.30 203.16 267.73 200.71 267.08 199.29 C 265.46 194.22 266.56 188.74 267.68 183.70 C 270.34 181.03 273.34 178.72 276.02 176.06 C 279.13 172.89 283.42 171.42 287.23 169.29 Z" />
<path fill="#3e3e3e" opacity="1.00" d=" M 327.53 172.98 C 331.50 181.32 331.56 191.12 329.48 200.00 C 327.00 212.22 326.87 224.90 323.01 236.82 C 321.00 244.48 318.27 252.65 311.97 257.88 C 307.75 260.31 303.82 263.54 298.92 264.48 C 295.11 265.32 291.30 266.54 287.35 266.39 C 281.57 270.92 275.99 275.71 270.15 280.17 C 268.93 281.19 267.32 282.16 267.29 283.96 C 260.09 328.99 252.85 374.03 245.66 419.07 C 245.11 421.92 243.01 424.10 241.51 426.48 C 223.76 452.74 206.01 478.99 188.30 505.27 C 186.21 508.47 182.58 510.04 179.45 512.00 L 157.50 512.00 C 154.75 482.91 152.34 453.78 150.31 424.62 C 147.14 422.86 143.44 423.49 140.00 422.91 C 127.15 421.01 114.26 419.37 101.43 417.37 C 91.87 415.74 82.40 413.61 72.92 411.57 C 72.76 409.85 72.60 408.13 72.44 406.42 C 94.97 405.46 117.52 405.21 140.03 403.97 C 142.85 403.59 145.46 402.36 148.12 401.43 C 175.39 391.52 202.70 381.75 229.90 371.64 C 233.33 370.49 235.64 367.58 238.32 365.32 C 240.21 363.53 242.63 361.94 243.21 359.23 C 248.84 339.90 254.53 320.59 260.16 301.27 C 261.12 297.89 262.44 294.56 262.61 291.02 C 263.21 280.81 263.76 270.59 263.81 260.36 C 259.66 257.00 255.65 253.25 254.10 247.95 C 264.06 254.72 277.04 256.72 288.59 253.44 C 292.83 251.22 296.96 248.68 300.76 245.77 C 308.08 238.48 314.33 229.92 318.36 220.37 C 321.47 211.08 323.75 201.53 326.36 192.09 C 328.20 185.88 327.84 179.36 327.53 172.98 Z" />
<path fill="#3e3e3e" opacity="1.00" d=" M 169.53 268.44 C 186.32 252.97 203.73 238.14 221.10 223.30 C 214.63 233.02 207.57 242.34 200.77 251.83 C 190.31 264.39 180.15 277.22 169.29 289.42 C 169.42 282.44 168.90 275.37 169.53 268.44 Z" />
<path fill="#3e3e3e" opacity="1.00" d=" M 86.83 238.82 C 88.11 237.33 89.67 235.10 91.95 235.85 C 94.57 236.26 97.52 236.45 99.40 238.58 C 107.21 246.07 116.26 252.51 122.28 261.67 C 124.81 265.44 128.06 268.63 131.01 272.06 C 136.49 280.74 141.98 289.65 144.39 299.76 C 148.47 301.28 152.77 302.28 156.67 304.23 C 159.77 306.82 163.05 309.45 165.25 312.88 C 165.60 315.59 165.52 318.35 165.64 321.08 C 165.70 326.77 167.17 332.44 166.18 338.13 C 166.24 339.94 164.18 340.36 162.84 340.70 C 160.04 333.44 162.81 325.22 159.79 317.95 C 158.49 312.60 153.33 309.76 148.96 307.14 C 144.88 304.38 139.87 303.95 135.25 302.60 C 133.93 298.87 132.83 295.07 131.75 291.27 C 130.11 283.87 125.33 277.80 121.86 271.22 C 118.25 266.45 115.32 261.16 111.13 256.86 C 104.62 248.97 95.50 243.94 86.83 238.82 Z" />
<path fill="#3e3e3e" opacity="1.00" d=" M 54.42 250.46 C 59.95 249.86 65.49 249.23 71.04 248.91 C 75.65 248.56 79.82 250.84 84.23 251.67 C 88.15 252.30 92.12 252.40 96.07 252.57 C 92.15 255.52 88.10 258.32 84.11 261.18 C 82.31 262.57 79.89 261.58 77.84 261.53 C 71.03 260.45 64.00 260.33 57.37 258.36 C 55.94 255.95 55.70 252.98 54.42 250.46 Z" />
<path fill="#3e3e3e" opacity="1.00" d=" M 118.18 358.49 C 121.89 356.47 125.43 354.16 129.11 352.09 C 131.19 350.70 133.68 351.77 135.73 352.63 C 135.65 356.06 132.91 358.51 131.41 361.40 C 130.20 363.00 129.42 365.66 127.07 365.82 C 122.52 365.83 117.94 365.82 113.40 365.56 C 110.15 363.64 107.35 361.05 104.26 358.88 C 104.77 357.74 105.27 356.60 105.76 355.46 C 109.94 356.27 114.05 357.42 118.18 358.49 Z" />
<path fill="#3e3e3e" opacity="1.00" d=" M 475.03 369.05 C 481.56 365.42 488.17 361.92 494.94 358.75 C 496.36 360.27 497.78 361.79 499.22 363.29 C 497.61 363.96 496.00 364.63 494.45 365.43 C 406.55 414.28 318.65 463.15 230.75 512.00 L 202.52 512.00 C 293.63 464.87 384.25 416.81 475.03 369.05 Z" />
</svg>
