<?xml version="1.0" encoding="UTF-8" ?>
<!DOCTYPE svg PUBLIC "-//W3C//DTD SVG 1.1//EN" "http://www.w3.org/Graphics/SVG/1.1/DTD/svg11.dtd">
<svg width="512pt" height="512pt" viewBox="0 0 512 512" version="1.1" xmlns="http://www.w3.org/2000/svg">
<path fill="#3e3e3e" opacity="1.00" d=" M 0.00 0.00 L 512.00 0.00 L 512.00 512.00 L 0.00 512.00 L 0.00 0.00 Z" />
<path fill="#f5e5c1" opacity="1.00" d=" M 158.97 29.05 C 212.15 27.33 265.35 25.93 318.53 24.22 C 320.78 51.49 322.86 78.78 325.10 106.05 C 325.42 109.37 323.77 112.53 324.19 115.87 C 325.22 132.90 326.81 149.90 328.24 166.90 C 322.76 170.32 315.86 172.82 313.06 179.14 C 308.54 129.78 303.20 80.49 298.46 31.15 C 275.96 31.35 253.47 31.55 230.97 31.73 C 219.06 31.80 207.15 32.36 195.24 31.98 C 197.02 37.43 195.93 43.19 195.88 48.79 C 194.61 92.48 193.36 136.17 192.05 179.86 C 187.44 180.07 182.82 180.30 178.21 180.50 C 176.95 177.62 176.48 174.16 174.23 171.84 C 168.78 168.75 162.79 166.69 157.19 163.87 C 157.25 152.23 157.87 140.59 157.78 128.95 C 157.50 113.96 158.17 98.98 158.26 83.99 C 158.51 65.68 158.67 47.36 158.97 29.05 Z" />
<path fill="#f4722b" opacity="1.00" d=" M 230.97 31.73 C 253.47 31.55 275.96 31.35 298.46 31.15 C 303.20 80.49 308.54 129.78 313.06 179.14 C 312.34 184.64 309.26 190.01 310.54 195.65 C 311.71 199.63 316.17 200.71 319.57 202.03 C 317.10 206.22 312.34 209.71 312.77 215.05 C 313.29 221.00 319.51 223.70 323.00 227.82 C 319.33 231.19 315.65 234.57 312.26 238.23 C 309.87 240.69 309.51 244.80 311.13 247.76 C 313.34 251.49 317.86 252.35 321.54 253.97 C 318.79 256.74 315.89 259.36 313.13 262.12 C 309.09 265.55 309.39 273.13 314.09 275.86 C 316.94 277.52 320.00 278.79 322.89 280.38 C 318.86 283.86 314.86 287.40 311.33 291.38 C 308.62 294.28 308.50 299.62 311.70 302.22 C 315.87 305.93 321.00 308.35 325.18 312.04 C 321.47 317.40 315.40 320.73 311.59 326.08 C 311.05 328.09 312.61 329.83 313.74 331.31 C 316.81 334.67 320.58 337.30 324.15 340.10 L 324.13 340.32 C 323.78 343.93 323.43 347.54 323.06 351.15 C 320.40 353.46 317.37 355.35 314.96 357.93 C 313.67 359.04 313.70 361.12 314.69 362.42 C 316.57 365.01 319.00 367.12 321.13 369.49 C 320.48 374.57 320.11 379.69 319.67 384.80 C 317.02 388.37 311.86 390.86 312.30 396.00 C 311.77 400.15 314.15 403.80 317.16 406.41 C 315.08 427.25 312.83 448.07 310.59 468.89 C 268.40 466.12 226.20 463.46 184.00 460.65 C 184.74 424.79 186.07 388.95 186.99 353.09 C 187.01 352.57 187.04 351.53 187.06 351.01 C 187.44 340.39 187.68 329.76 187.88 319.14 C 187.88 319.00 187.89 318.73 187.90 318.59 C 188.07 315.80 188.27 313.02 188.44 310.24 C 185.75 310.38 183.06 310.54 180.38 310.72 L 180.14 310.73 C 177.75 308.58 175.50 306.27 173.78 303.55 C 177.98 300.18 182.19 296.80 186.21 293.23 C 189.23 291.02 188.58 286.28 185.96 284.02 C 181.75 280.11 176.98 276.85 172.76 272.95 C 176.11 270.50 179.87 268.66 183.20 266.18 C 185.30 264.74 186.25 261.49 184.51 259.41 C 181.15 254.81 176.36 251.51 172.70 247.15 C 176.79 244.68 183.47 243.68 184.05 237.95 C 184.52 236.59 183.34 235.48 182.60 234.51 C 178.58 230.32 174.10 226.61 169.87 222.63 C 172.64 218.51 176.45 215.17 179.02 210.92 C 177.81 205.71 173.35 202.05 171.27 197.20 C 175.04 195.09 180.47 193.22 180.57 188.05 C 180.08 185.45 179.06 182.99 178.21 180.50 C 182.82 180.30 187.44 180.07 192.05 179.86 C 193.36 136.17 194.61 92.48 195.88 48.79 C 195.93 43.19 197.02 37.43 195.24 31.98 C 207.15 32.36 219.06 31.80 230.97 31.73 Z" />
<path fill="#f5e5c1" opacity="1.00" d=" M 131.14 107.87 C 131.93 100.91 139.49 94.52 146.57 96.63 C 151.28 99.32 152.75 105.11 153.82 110.06 C 152.55 108.14 151.44 106.06 149.58 104.64 C 149.02 106.38 148.33 108.10 148.06 109.92 C 149.08 113.21 151.52 115.82 152.70 119.04 C 152.91 123.44 152.42 127.83 152.19 132.22 C 146.28 126.34 141.02 119.83 135.35 113.71 C 133.86 111.85 131.82 110.22 131.14 107.87 Z" />
<path fill="#f5e5c1" opacity="1.00" d=" M 339.77 96.73 C 346.22 94.94 352.84 99.73 355.29 105.52 C 356.71 108.26 354.12 110.58 352.73 112.69 C 345.67 121.46 339.03 130.57 331.79 139.20 C 331.52 135.50 330.86 131.77 331.25 128.06 C 333.06 122.50 335.82 117.29 337.92 111.83 C 338.72 110.31 338.74 107.96 336.92 107.14 C 333.94 111.07 332.61 115.93 330.19 120.19 C 330.04 115.43 332.29 111.11 333.47 106.61 C 334.70 102.96 336.09 98.58 339.77 96.73 Z" />
<path fill="#3e3e3e" opacity="1.00" d=" M 139.46 100.45 C 142.09 98.48 146.66 99.30 147.22 102.92 C 147.32 107.84 141.41 112.68 136.73 110.23 C 133.27 107.33 136.19 102.15 139.46 100.45 Z" />
<path fill="#3e3e3e" opacity="1.00" d=" M 341.14 100.18 C 345.58 98.25 351.12 102.35 351.61 106.95 C 351.97 109.87 348.63 112.00 346.01 111.22 C 342.36 110.28 338.52 107.00 339.15 102.87 C 339.26 101.68 340.07 100.68 341.14 100.18 Z" />
<path fill="#f5e5c1" opacity="1.00" d=" M 358.56 116.54 C 361.77 113.08 366.95 110.22 371.66 112.43 C 379.30 115.50 385.22 125.19 381.18 133.13 C 379.88 137.05 375.71 138.49 372.61 140.66 C 360.05 148.81 347.29 156.65 334.67 164.72 C 333.96 161.20 333.68 157.63 333.63 154.05 C 341.87 146.11 350.02 138.08 358.22 130.11 C 360.62 128.34 358.83 125.43 357.20 123.86 C 350.05 131.15 342.95 138.47 335.92 145.86 C 335.02 146.58 334.32 147.90 333.01 147.82 C 332.04 146.51 333.78 145.46 334.34 144.42 C 342.41 135.13 350.50 125.84 358.56 116.54 Z" />
<path fill="#f5e5c1" opacity="1.00" d=" M 106.72 131.01 C 105.32 123.65 110.25 115.85 117.14 113.21 C 120.87 111.71 125.25 113.03 127.96 115.89 C 135.57 123.34 142.99 130.98 150.54 138.49 C 152.16 139.83 151.54 142.13 151.86 143.96 C 149.88 140.26 145.76 138.82 142.43 136.65 C 137.02 133.49 132.84 128.70 127.80 125.05 C 127.02 126.83 125.67 128.93 126.90 130.85 C 128.93 132.64 131.41 133.80 133.70 135.22 C 140.30 138.93 145.48 144.54 151.28 149.30 C 151.17 152.68 150.87 156.04 150.66 159.41 C 137.56 152.51 124.63 145.29 111.62 138.22 C 108.84 136.87 107.72 133.72 106.72 131.01 Z" />
<path fill="#3e3e3e" opacity="1.00" d=" M 365.42 116.56 C 371.33 115.05 378.10 119.96 378.57 126.01 C 378.98 129.54 375.02 131.81 371.91 131.09 C 367.09 130.25 362.14 126.21 362.18 120.99 C 362.05 118.97 363.52 117.14 365.42 116.56 Z" />
<path fill="#3e3e3e" opacity="1.00" d=" M 117.45 117.69 C 120.20 116.50 123.58 117.17 125.39 119.62 C 127.63 126.52 119.30 133.78 112.70 131.37 C 109.80 130.09 109.76 126.31 110.91 123.80 C 112.27 121.08 114.64 118.85 117.45 117.69 Z" />
<path fill="#f5e5c1" opacity="1.00" d=" M 391.38 139.54 C 398.78 137.70 405.49 143.45 407.79 150.10 C 409.26 153.60 408.68 157.45 408.19 161.09 C 406.68 162.60 405.25 164.30 403.22 165.13 C 381.85 174.45 360.48 183.78 339.10 193.08 C 336.46 194.20 333.91 195.58 331.13 196.32 C 326.76 195.92 322.66 194.25 318.50 192.99 C 319.44 188.81 320.38 184.63 321.49 180.50 C 344.70 166.70 368.19 153.38 391.38 139.54 Z" />
<path fill="#f5e5c1" opacity="1.00" d=" M 82.76 158.91 C 81.78 150.18 89.16 139.25 98.83 141.42 C 122.27 153.22 145.93 164.63 169.27 176.63 C 170.43 180.52 171.63 184.39 172.87 188.25 C 168.02 189.92 162.79 193.76 157.57 191.52 C 134.71 183.25 111.79 175.11 88.91 166.88 C 85.50 165.73 82.69 162.66 82.76 158.91 Z" />
<path fill="#3e3e3e" opacity="1.00" d=" M 393.32 145.21 C 397.14 142.81 401.42 146.46 403.30 149.72 C 405.53 153.24 405.84 159.60 401.08 161.13 C 393.64 161.99 387.37 150.41 393.32 145.21 Z" />
<path fill="#3e3e3e" opacity="1.00" d=" M 93.36 146.49 C 97.28 145.10 100.54 149.46 99.74 153.09 C 99.49 158.03 94.89 164.27 89.43 162.39 C 83.56 158.24 87.54 148.65 93.36 146.49 Z" />
<path fill="#3e3e3e" opacity="1.00" d=" M 103.51 147.14 C 107.53 148.11 111.04 150.39 114.72 152.19 C 130.48 160.17 146.21 168.23 162.00 176.14 C 164.76 177.65 169.11 178.60 168.63 182.67 C 167.25 182.39 165.91 182.00 164.60 181.50 C 144.78 172.51 124.83 163.83 104.99 154.91 C 101.71 153.67 103.20 149.70 103.51 147.14 Z" />
<path fill="#3e3e3e" opacity="1.00" d=" M 383.71 147.76 C 384.85 147.01 387.41 145.47 387.60 147.99 C 387.78 149.99 387.61 152.47 385.46 153.32 C 364.89 164.84 344.29 176.31 323.65 187.71 C 323.38 187.00 322.85 185.59 322.59 184.89 C 323.71 182.53 326.34 181.63 328.40 180.30 C 346.85 169.47 365.30 158.66 383.71 147.76 Z" />
<path fill="#f5e5c1" opacity="1.00" d=" M 412.16 170.09 C 415.96 168.42 420.67 166.91 424.38 169.66 C 432.20 175.10 435.52 187.62 429.60 195.51 C 396.52 205.13 363.08 213.63 329.91 223.01 C 326.83 220.25 323.94 217.30 320.85 214.56 C 323.29 210.90 325.31 206.42 329.29 204.22 C 356.90 192.82 384.49 181.37 412.16 170.09 Z" />
<path fill="#f5e5c1" opacity="1.00" d=" M 69.82 171.81 C 73.53 169.33 77.80 171.58 81.59 172.60 C 106.48 180.89 131.35 189.25 156.21 197.64 C 158.97 198.61 161.86 199.28 164.49 200.61 C 167.33 203.12 169.34 206.43 171.96 209.18 C 169.35 212.23 166.67 215.21 163.95 218.16 C 131.92 211.83 99.94 205.23 67.93 198.83 C 66.52 198.49 64.80 198.33 64.12 196.83 C 59.19 188.84 61.85 176.84 69.82 171.81 Z" />
<path fill="#f5e5c1" opacity="1.00" d=" M 436.97 171.32 C 460.25 171.51 483.54 171.50 506.82 171.57 C 504.82 224.36 502.86 277.14 500.79 329.92 C 488.66 329.16 476.52 328.42 464.39 327.62 C 463.97 324.08 464.00 320.27 462.02 317.17 C 460.44 314.85 458.52 312.81 456.73 310.67 C 462.42 310.94 468.11 310.97 473.81 311.21 C 476.86 268.16 479.88 225.11 482.82 182.06 C 468.73 182.16 454.64 181.69 440.55 181.68 C 439.72 178.11 438.61 174.60 436.97 171.32 Z" />
<path fill="#f5e5c1" opacity="1.00" d=" M 3.47 176.60 C 21.45 175.70 39.45 175.06 57.43 174.15 C 55.38 177.99 54.36 182.22 53.85 186.52 C 48.75 186.63 43.63 186.74 38.60 187.65 C 31.94 188.90 25.11 188.22 18.45 189.44 C 17.96 230.95 18.44 272.47 18.20 313.98 C 18.29 316.35 18.00 318.85 18.88 321.11 C 19.94 322.90 22.22 322.22 23.93 322.30 C 29.56 321.86 35.18 321.38 40.82 321.04 C 40.51 324.45 40.41 327.87 40.40 331.29 C 29.57 331.79 18.77 332.84 7.94 333.40 C 5.05 333.68 4.57 330.18 4.61 328.06 C 4.17 290.37 3.46 252.68 3.21 214.98 C 2.66 204.33 2.86 193.67 2.68 183.02 C 2.59 180.84 2.90 178.69 3.47 176.60 Z" />
<path fill="#3e3e3e" opacity="1.00" d=" M 416.46 174.66 C 424.62 171.71 433.39 183.39 428.43 190.46 C 424.73 193.88 419.12 190.75 416.81 187.16 C 414.25 183.76 412.39 177.60 416.46 174.66 Z" />
<path fill="#3e3e3e" opacity="1.00" d=" M 71.32 177.26 C 74.42 175.14 78.84 177.16 79.24 180.88 C 79.60 186.82 75.44 194.13 68.95 194.35 C 64.66 193.98 63.40 188.84 64.60 185.37 C 65.61 181.90 68.12 178.91 71.32 177.26 Z" />
<path fill="#3e3e3e" opacity="1.00" d=" M 329.73 206.91 C 355.55 196.97 381.27 186.74 407.08 176.77 C 410.33 175.54 409.21 180.23 409.40 182.03 C 381.98 192.24 354.53 202.37 327.13 212.64 C 326.65 212.24 325.70 211.46 325.22 211.06 C 326.60 209.58 327.71 207.61 329.73 206.91 Z" />
<path fill="#3e3e3e" opacity="1.00" d=" M 81.96 178.06 C 85.28 178.38 88.42 179.62 91.61 180.52 C 113.03 186.82 134.46 193.11 155.88 199.40 C 158.29 200.16 160.84 200.62 163.06 201.86 C 164.32 203.55 165.46 205.71 164.74 207.86 C 140.85 200.97 116.64 195.05 92.62 188.54 C 88.65 187.30 84.16 187.10 80.87 184.29 C 81.21 182.21 81.39 180.09 81.96 178.06 Z" />
<path fill="#f4722b" opacity="1.00" d=" M 440.55 181.68 C 454.64 181.69 468.73 182.16 482.82 182.06 C 479.88 225.11 476.86 268.16 473.81 311.21 C 468.11 310.97 462.42 310.94 456.73 310.67 L 456.01 310.64 C 464.87 299.61 464.09 282.54 454.55 272.19 C 460.35 265.91 461.28 256.46 458.59 248.59 C 456.72 241.37 449.87 236.91 443.33 234.32 C 451.86 223.78 448.28 206.65 437.26 199.29 C 440.55 194.04 441.23 187.72 440.55 181.68 Z" />
<path fill="#f4722b" opacity="1.00" d=" M 38.60 187.65 C 43.63 186.74 48.75 186.63 53.85 186.52 C 53.92 192.09 55.01 197.83 58.65 202.24 C 50.41 208.34 47.35 219.82 50.50 229.42 C 51.52 232.17 53.42 234.45 54.90 236.95 C 49.85 238.66 45.74 242.47 42.68 246.72 C 38.00 255.35 39.07 267.36 46.59 274.11 C 37.62 284.43 37.95 301.23 47.41 311.14 C 44.84 314.17 42.17 317.23 40.82 321.04 C 35.18 321.38 29.56 321.86 23.93 322.30 C 22.22 322.22 19.94 322.90 18.88 321.11 C 18.00 318.85 18.29 316.35 18.20 313.98 C 18.44 272.47 17.96 230.95 18.45 189.44 C 25.11 188.22 31.94 188.90 38.60 187.65 Z" />
<path fill="#f5e5c1" opacity="1.00" d=" M 337.08 229.28 C 367.04 221.26 397.00 213.23 426.95 205.15 C 430.65 204.16 434.23 206.81 436.33 209.66 C 440.15 214.96 441.33 222.88 437.48 228.47 C 435.48 231.49 431.60 231.57 428.41 232.18 C 398.59 237.70 368.74 243.10 339.02 249.10 C 336.57 249.43 333.95 250.79 331.61 249.38 C 327.21 247.44 322.83 245.48 318.34 243.77 C 322.26 239.86 326.18 235.94 330.20 232.13 C 332.00 230.24 334.70 229.98 337.08 229.28 Z" />
<path fill="#f5e5c1" opacity="1.00" d=" M 64.01 207.94 C 66.61 206.44 69.66 207.52 72.39 208.01 C 101.61 213.82 130.84 219.61 160.07 225.36 C 161.72 225.59 163.25 226.34 164.48 227.48 C 168.40 230.86 172.41 234.15 176.19 237.71 C 171.39 239.94 166.66 242.30 162.05 244.89 C 129.43 240.44 96.70 236.81 64.00 232.99 C 59.35 232.30 57.22 227.20 56.84 223.03 C 56.57 217.31 58.85 210.93 64.01 207.94 Z" />
<path fill="#3e3e3e" opacity="1.00" d=" M 425.59 224.41 C 421.97 219.75 422.35 211.07 428.98 209.40 C 435.39 211.61 438.57 220.65 434.07 225.98 C 431.68 228.95 427.30 227.17 425.59 224.41 Z" />
<path fill="#3e3e3e" opacity="1.00" d=" M 332.59 234.84 C 361.92 226.75 391.07 218.00 420.43 210.04 C 421.01 212.28 420.38 214.46 419.55 216.54 C 389.71 224.30 359.75 231.60 329.89 239.30 C 328.01 240.09 326.07 239.17 326.72 236.92 C 328.57 235.97 330.59 235.40 332.59 234.84 Z" />
<path fill="#3e3e3e" opacity="1.00" d=" M 60.53 220.02 C 60.88 216.13 63.48 212.89 67.03 211.42 C 75.48 213.66 74.08 227.57 66.05 229.32 C 61.67 228.88 59.87 223.83 60.53 220.02 Z" />
<path fill="#3e3e3e" opacity="1.00" d=" M 76.27 211.23 C 103.19 216.45 130.10 221.71 157.03 226.88 C 158.51 227.22 160.32 227.39 161.07 228.95 C 162.18 229.94 162.40 233.22 160.13 232.52 C 132.75 227.92 105.28 223.68 77.91 219.01 C 76.75 216.62 76.86 213.80 76.27 211.23 Z" />
<path fill="#f5e5c1" opacity="1.00" d=" M 330.81 256.93 C 366.80 251.80 402.92 247.53 438.98 242.90 C 442.93 241.86 446.01 244.99 448.70 247.37 C 451.63 251.13 452.28 256.33 451.43 260.92 C 450.59 264.45 448.10 268.38 444.07 268.44 C 407.35 271.07 370.62 273.67 333.90 276.19 C 328.61 274.00 323.63 271.09 318.37 268.80 C 322.51 264.87 326.09 260.11 330.81 256.93 Z" />
<path fill="#f5e5c1" opacity="1.00" d=" M 48.38 253.10 C 49.24 249.23 52.75 246.78 55.89 244.80 C 63.26 244.26 70.61 245.61 77.98 245.67 C 107.29 247.67 136.66 248.88 165.93 251.33 C 169.85 254.93 173.97 258.30 177.89 261.89 C 172.92 264.49 168.26 267.71 163.19 270.08 C 147.46 270.28 131.71 270.20 115.98 269.87 C 96.65 269.86 77.33 269.76 58.00 269.75 C 55.84 269.69 53.37 269.88 51.66 268.28 C 47.46 264.55 46.79 258.23 48.38 253.10 Z" />
<path fill="#3e3e3e" opacity="1.00" d=" M 428.12 247.13 C 429.79 246.76 433.06 246.15 432.83 248.83 C 431.96 251.01 430.71 253.95 427.97 254.00 C 394.94 257.74 361.87 261.11 328.87 265.11 C 327.58 264.42 327.24 263.36 327.86 261.93 C 331.31 260.93 334.93 260.76 338.47 260.21 C 368.35 255.87 398.24 251.54 428.12 247.13 Z" />
<path fill="#3e3e3e" opacity="1.00" d=" M 439.21 247.20 C 442.68 245.37 445.92 248.79 447.22 251.74 C 449.59 255.76 449.07 262.72 444.00 264.35 C 436.03 264.51 432.55 251.34 439.21 247.20 Z" />
<path fill="#3e3e3e" opacity="1.00" d=" M 65.32 247.51 C 72.72 249.27 80.43 248.90 87.98 249.47 C 113.00 250.81 138.04 251.96 163.06 253.42 C 166.26 253.40 166.75 257.38 167.07 259.81 C 148.35 259.36 129.69 257.44 110.99 256.44 C 96.61 255.40 82.21 254.57 67.84 253.51 C 66.57 251.70 65.25 249.82 65.32 247.51 Z" />
<path fill="#3e3e3e" opacity="1.00" d=" M 55.21 249.13 C 57.78 247.41 61.19 249.13 62.18 251.83 C 63.71 256.04 63.07 261.47 59.51 264.49 C 57.65 266.22 54.42 266.13 52.81 264.11 C 49.08 259.70 50.79 252.37 55.21 249.13 Z" />
<path fill="#f5e5c1" opacity="1.00" d=" M 414.06 278.33 C 423.04 277.41 432.09 277.27 441.02 275.90 C 445.63 274.91 449.75 278.41 451.63 282.32 C 455.27 289.94 454.55 299.74 448.93 306.23 C 411.29 306.39 373.65 306.53 336.01 306.54 C 333.85 306.35 331.38 306.98 329.52 305.57 C 325.38 302.71 321.36 299.66 317.37 296.58 C 321.33 293.14 324.84 289.18 328.99 285.96 C 335.26 284.83 341.70 284.78 348.04 284.02 C 370.05 282.13 392.04 280.01 414.06 278.33 Z" />
<path fill="#f5e5c1" opacity="1.00" d=" M 48.48 286.88 C 49.33 282.41 52.29 277.83 56.97 276.79 C 60.99 276.54 64.99 277.36 69.01 277.27 C 101.03 277.27 133.03 278.46 165.04 278.85 C 166.71 278.95 168.59 278.89 169.93 280.05 C 173.59 282.95 177.08 286.05 180.75 288.92 C 176.53 292.38 172.39 295.93 168.17 299.37 C 130.06 301.92 91.93 304.24 53.82 306.75 C 48.55 301.77 46.76 293.81 48.48 286.88 Z" />
<path fill="#3e3e3e" opacity="1.00" d=" M 57.44 281.59 C 61.67 280.14 65.31 284.19 66.24 287.96 C 67.61 293.26 66.34 300.30 60.92 302.81 C 57.20 304.55 53.50 301.08 52.29 297.77 C 50.20 292.21 51.53 284.19 57.44 281.59 Z" />
<path fill="#3e3e3e" opacity="1.00" d=" M 439.27 281.13 C 442.39 279.40 446.09 281.49 447.85 284.21 C 451.28 289.36 451.52 297.37 446.60 301.67 C 443.73 304.15 439.14 302.78 437.21 299.78 C 433.23 294.39 433.06 284.93 439.27 281.13 Z" />
<path fill="#3e3e3e" opacity="1.00" d=" M 70.24 288.64 C 68.14 286.94 67.16 284.31 67.46 281.65 C 76.64 282.25 85.85 282.11 95.04 282.20 C 118.36 282.47 141.69 282.60 165.01 282.76 C 166.52 282.82 168.12 282.71 169.50 283.46 C 169.68 284.49 169.78 285.52 169.79 286.57 C 139.18 287.35 108.58 288.15 77.97 288.88 C 75.41 288.85 72.72 289.49 70.24 288.64 Z" />
<path fill="#3e3e3e" opacity="1.00" d=" M 341.05 288.40 C 370.02 286.34 399.00 284.41 427.97 282.37 C 429.62 282.42 432.00 281.65 432.51 283.90 C 432.13 285.51 431.55 287.13 430.54 288.47 C 427.11 289.25 423.56 289.17 420.06 289.27 C 389.54 290.39 359.03 291.80 328.56 293.81 C 327.95 292.65 327.36 291.48 326.80 290.30 C 331.35 288.59 336.26 288.67 341.05 288.40 Z" />
<path fill="#f5e5c1" opacity="1.00" d=" M 138.58 308.79 C 147.74 308.50 156.86 307.48 166.02 307.44 C 170.06 309.19 173.13 312.75 176.81 315.20 C 178.75 316.58 182.14 319.08 179.60 321.55 C 175.31 324.97 170.89 328.35 166.17 331.16 C 160.87 332.37 155.37 332.27 149.99 333.00 C 122.31 335.69 94.64 338.44 66.97 341.18 C 62.11 341.53 56.51 343.18 52.43 339.54 C 47.80 335.20 47.52 328.27 48.57 322.40 C 50.76 318.01 54.47 313.68 59.82 313.72 C 86.04 311.60 112.34 310.66 138.58 308.79 Z" />
<path fill="#3e3e3e" opacity="1.00" d=" M 149.55 311.83 C 154.40 311.57 159.25 311.18 164.10 311.12 C 166.53 311.06 169.64 312.36 169.67 315.19 C 167.49 316.84 164.59 316.25 162.05 316.57 C 131.70 318.87 101.34 321.11 70.99 323.46 C 67.02 324.41 66.71 319.48 65.54 316.92 C 65.75 314.00 69.26 316.94 71.00 316.59 C 97.19 315.16 123.37 313.44 149.55 311.83 Z" />
<path fill="#f5e5c1" opacity="1.00" d=" M 180.38 310.72 C 183.06 310.54 185.75 310.38 188.44 310.24 C 188.27 313.02 188.07 315.80 187.90 318.59 C 185.43 315.93 182.87 313.35 180.38 310.72 Z" />
<path fill="#f5e5c1" opacity="1.00" d=" M 393.59 314.01 C 408.40 313.64 423.21 313.78 438.01 313.64 C 441.63 313.76 445.47 313.60 448.86 315.06 C 452.31 317.69 456.03 321.18 455.92 325.90 C 457.52 332.78 453.91 342.27 445.97 342.70 C 409.96 341.73 373.95 340.40 337.94 339.41 C 334.09 339.57 331.18 336.68 328.05 334.91 C 325.29 332.97 321.93 331.70 319.80 329.00 C 318.78 326.60 321.33 325.23 322.74 323.78 C 326.40 320.86 329.45 317.12 333.46 314.68 C 353.49 314.01 373.56 314.45 393.59 314.01 Z" />
<path fill="#3e3e3e" opacity="1.00" d=" M 334.85 319.59 C 364.89 318.90 394.93 318.16 424.97 317.45 C 429.45 317.47 433.96 316.96 438.43 317.51 C 439.52 320.43 436.95 323.15 435.51 325.50 C 424.05 326.02 412.54 325.01 401.06 325.18 C 378.36 324.90 355.66 325.63 332.96 325.48 C 329.98 326.20 330.45 322.59 329.74 320.76 C 331.40 320.23 333.07 319.61 334.85 319.59 Z" />
<path fill="#3e3e3e" opacity="1.00" d=" M 55.51 318.62 C 59.92 316.66 63.66 321.24 64.70 325.06 C 66.35 330.30 63.53 338.96 56.95 338.33 C 48.69 335.85 48.59 322.69 55.51 318.62 Z" />
<path fill="#3e3e3e" opacity="1.00" d=" M 444.35 318.41 C 446.59 317.79 449.00 318.70 450.47 320.46 C 453.58 324.06 454.31 329.42 452.83 333.86 C 451.66 337.42 447.51 340.13 443.85 338.47 C 436.77 334.37 436.78 321.95 444.35 318.41 Z" />
<path fill="#f5e5c1" opacity="1.00" d=" M 170.12 336.76 C 175.91 330.75 182.51 325.55 187.88 319.14 C 187.68 329.76 187.44 340.39 187.06 351.01 C 181.43 346.24 175.51 341.80 170.12 336.76 Z" />
<path fill="#f5e5c1" opacity="1.00" d=" M 324.13 340.32 C 326.35 341.81 328.51 343.41 330.63 345.06 C 328.16 347.16 325.61 349.15 323.06 351.15 C 323.43 347.54 323.78 343.93 324.13 340.32 Z" />
<path fill="#f5e5c1" opacity="1.00" d=" M 82.98 346.40 C 111.32 344.86 139.69 343.61 168.05 342.43 C 172.16 345.47 176.32 348.45 180.52 351.37 C 177.14 354.74 173.80 358.15 170.26 361.34 C 168.59 363.02 166.08 362.93 163.92 363.35 C 127.62 368.25 91.30 372.94 54.98 377.65 C 49.73 373.02 47.39 365.79 48.40 358.92 C 48.75 353.72 52.14 347.61 57.93 347.45 C 66.30 347.64 74.62 346.61 82.98 346.40 Z" />
<path fill="#3e3e3e" opacity="1.00" d=" M 120.01 348.40 C 136.04 347.54 152.08 346.78 168.11 345.87 C 169.71 345.63 171.08 347.51 170.37 349.00 C 169.13 349.94 167.44 349.74 165.99 350.00 C 134.31 352.01 102.68 354.99 70.99 356.96 C 69.77 355.10 66.04 353.02 68.27 350.65 C 85.54 350.52 102.76 349.02 120.01 348.40 Z" />
<path fill="#f5e5c1" opacity="1.00" d=" M 334.07 350.71 C 366.05 349.93 398.03 349.26 430.01 348.75 C 435.68 348.82 441.34 348.68 447.00 348.35 C 452.04 347.86 455.91 352.28 457.21 356.74 C 459.70 364.25 458.46 373.91 451.97 379.05 C 413.01 376.63 374.01 374.41 335.08 371.43 C 330.20 368.63 326.15 364.38 321.86 360.72 C 326.00 357.48 330.00 354.05 334.07 350.71 Z" />
<path fill="#3e3e3e" opacity="1.00" d=" M 56.49 352.62 C 59.17 351.32 62.61 352.20 64.32 354.64 C 68.47 359.98 68.32 369.39 62.20 373.22 C 58.18 375.32 53.98 371.85 52.74 368.09 C 50.57 362.93 51.62 355.87 56.49 352.62 Z" />
<path fill="#3e3e3e" opacity="1.00" d=" M 444.41 353.45 C 447.20 352.37 450.41 353.54 452.05 355.98 C 456.18 361.43 455.92 370.96 449.77 374.82 C 445.57 377.22 441.02 373.23 439.82 369.27 C 438.24 363.85 438.79 356.32 444.41 353.45 Z" />
<path fill="#f5e5c1" opacity="1.00" d=" M 174.72 366.74 C 178.80 362.18 182.92 357.66 186.99 353.09 C 186.07 388.95 184.74 424.79 184.00 460.65 C 226.20 463.46 268.40 466.12 310.59 468.89 C 312.83 448.07 315.08 427.25 317.16 406.41 C 321.02 408.67 324.70 411.22 328.48 413.61 C 334.73 417.96 342.75 416.78 349.93 417.44 C 350.03 438.88 349.94 460.31 350.06 481.75 C 283.07 479.20 216.09 476.24 149.10 473.59 C 149.41 439.94 149.88 406.29 150.35 372.64 C 156.61 371.89 162.90 371.34 169.16 370.52 C 171.60 370.42 173.13 368.31 174.72 366.74 Z" />
<path fill="#3e3e3e" opacity="1.00" d=" M 332.95 354.71 C 337.09 352.86 341.65 353.58 346.03 353.51 C 375.03 353.61 404.02 354.25 433.01 354.39 C 434.51 354.59 436.88 353.94 437.44 355.93 C 437.78 358.03 435.91 359.70 435.12 361.53 C 402.41 360.40 369.70 358.94 336.99 357.66 C 334.91 357.93 333.47 356.64 332.95 354.71 Z" />
<path fill="#f5e5c1" opacity="1.00" d=" M 321.13 369.49 C 323.52 372.27 326.10 374.88 328.86 377.31 C 325.81 379.82 323.07 382.73 319.67 384.80 C 320.11 379.69 320.48 374.57 321.13 369.49 Z" />
<path fill="#f5e5c1" opacity="1.00" d=" M 333.36 384.37 C 334.98 383.19 337.19 383.81 339.07 383.65 C 372.05 384.07 405.02 384.47 438.01 384.76 C 441.88 384.98 446.00 384.80 449.65 386.30 C 453.40 388.97 457.00 393.03 456.70 397.96 C 457.89 404.70 454.36 413.06 447.00 414.16 C 410.64 412.10 374.25 410.50 337.89 408.53 C 334.84 408.58 332.54 406.32 330.08 404.86 C 326.91 402.59 323.23 400.93 320.55 398.05 C 319.52 395.55 322.03 394.10 323.57 392.65 C 326.92 390.00 329.94 386.94 333.36 384.37 Z" />
<path fill="#3e3e3e" opacity="1.00" d=" M 330.93 389.06 C 332.23 387.89 333.54 386.74 334.86 385.59 C 338.86 386.24 342.93 386.18 346.97 386.29 C 376.66 387.08 406.34 388.06 436.03 388.88 C 440.91 389.14 437.26 395.84 433.99 395.49 C 400.98 394.21 367.97 392.51 334.96 391.24 C 333.19 391.49 332.07 390.14 330.93 389.06 Z" />
<path fill="#3e3e3e" opacity="1.00" d=" M 444.21 390.16 C 449.23 387.58 453.62 393.46 454.05 398.00 C 455.43 403.28 452.22 410.87 445.94 410.32 C 437.75 407.59 437.11 394.54 444.21 390.16 Z" />
</svg>
