<?xml version="1.0" encoding="UTF-8" standalone="no"?>
<svg
   xmlns:dc="http://purl.org/dc/elements/1.1/"
   xmlns:cc="http://creativecommons.org/ns#"
   xmlns:rdf="http://www.w3.org/1999/02/22-rdf-syntax-ns#"
   xmlns:svg="http://www.w3.org/2000/svg"
   xmlns="http://www.w3.org/2000/svg"
   xmlns:sodipodi="http://sodipodi.sourceforge.net/DTD/sodipodi-0.dtd"
   xmlns:inkscape="http://www.inkscape.org/namespaces/inkscape"
   width="1280"
   height="1280"
   viewBox="0 0 1024 1024"
   version="1.1"
   id="svg2"
   inkscape:version="0.48.1 "
   sodipodi:docname="eat_sandwiches.svg">
  <metadata
     id="metadata26">
    <rdf:RDF>
      <cc:Work
         rdf:about="">
        <dc:format>image/svg+xml</dc:format>
        <dc:type
           rdf:resource="http://purl.org/dc/dcmitype/StillImage" />
      </cc:Work>
    </rdf:RDF>
  </metadata>
  <defs
     id="defs24" />
  <sodipodi:namedview
     pagecolor="#ffffff"
     bordercolor="#666666"
     borderopacity="1"
     objecttolerance="10"
     gridtolerance="10"
     guidetolerance="10"
     inkscape:pageopacity="0"
     inkscape:pageshadow="2"
     inkscape:window-width="1920"
     inkscape:window-height="1018"
     id="namedview22"
     showgrid="false"
     fit-margin-top="0"
     fit-margin-left="0"
     fit-margin-right="0"
     fit-margin-bottom="0"
     inkscape:zoom="0.6609375"
     inkscape:cx="640"
     inkscape:cy="640"
     inkscape:window-x="-8"
     inkscape:window-y="-8"
     inkscape:window-maximized="1"
     inkscape:current-layer="svg2" />
  <path
     d="m 0,0 1024,0 0,1024 L 0,1024 0,0 z"
     id="path4"
     style="fill:#3e3e3e"
     inkscape:connector-curvature="0" />
  <path
     d="m 101.3,180.15 c -0.45743,-0.0135 -0.9325,0.001 -1.4,0.05 -6.1,-0.04 -10.72,5.24 -13.2,10.3 -1.76,11.08 0,22.34 -0.7,33.5 0.22,28 -0.26,56 0,84 -0.12,9 1.38,18.8 -3.5,26.9 -4.98,-0.06 -9.97,-0.03 -14.95,0.05 -3.48,-6.4 -4.89,-13.71 -4.85,-20.95 -0.02,-38.68 0.01,-77.37 0.05,-116.05 0.54,-7.42 -6.99,-15.38 -14.65,-12.7 -4.82,2.26 -8.2,7.35 -7.8,12.75 0.32,55.38 -0.88,110.77 -0.4,166.15 1.98,11.28 11.6,19.02 17.8,28.1 7.04,9.7 17.5,18.81 17.1,31.85 -0.08,120.66 0.03,241.34 -0.05,362 -0.18,6.88 1.23,14.01 5.55,19.55 6.56,9.02 19.34,12.33 29.6,8.25 9.4,-3.86 16.34,-13.55 15.9,-23.85 0.06,-118.02 0,-236 0,-354 0.16,-7.36 -0.96,-15.07 2,-22.05 3.56,-10.74 12.82,-17.93 19.5,-26.65 5.98,-7.78 15.42,-14.7 15.7,-25.3 0.02,-52.68 -0.06,-105.34 0.1,-158 0.2,-7.14 -2.32,-15.43 -9.2,-18.75 -7.72,-2.58 -16.26,4.85 -16.1,12.65 -0.08,40.68 -0.02,81.37 0,122.05 0.16,4.5 -0.94,8.84 -2.3,13.1 -6.36,0.06 -12.72,0.06 -19.1,0.1 -3.88,-8.56 -2.64,-18.07 -2.8,-27.15 -0.02,-37.36 0.08,-74.69 0,-112.05 0.15,-6.67499 -5.43852,-13.64704 -12.3,-13.85 z m -37.45,172.1 c 3.126563,-0.1725 6.285,0.90499 8.25,3.5 7.46,8.58 14.6,17.45 22.3,25.85 3.62,4.22 8.24,8.25 9.1,14.05 2.58,18.06 -0.63,36.2 -0.05,54.3 0,112.02 0.02,224.03 0,336.05 0.16,6.12 -2.04,12.93 -7.7,16.05 -5.4,2.62 -12.07,-2.53 -12.55,-8.05 0.64,-127.32 1.88,-254.66 1.9,-382 0.56,-5.18 -3.48,-8.99 -6.1,-12.95 -7.18,-10.14 -14.88,-19.85 -22.5,-29.65 -4.34,-5.18 -2.36,-14.41 4.3,-16.55 0.98,-0.31501 2.007813,-0.5425 3.05,-0.6 z"
     id="path6"
     style="fill:#f5e5c1"
     inkscape:connector-curvature="0" />
  <path
     d="m 903.6,179.55 c -11.38555,0.21933 -22.7375,3.55 -32.5,9.45 -20.62,12.18 -34.6,33.04 -43.1,55 -14.38,37.92 -14.54,81.08 -0.7,119.2 9.14,24.8 25.56,48.2 49.8,60.1 0.2,126.18 0,252.34 0.1,378.5 -0.9,13.86 10.95,27 24.95,26.9 13.3,0.46 25.54,-11.17 25.4,-24.55 0.36,-126.08 -0.19,-252.14 0.25,-378.2 4.4,-3.86 10.41,-5.51 15.05,-9.15 24.66,-17.4 38.7,-46.23 45.1,-75.05 7.88,-37.94 4.12,-79.1 -14.2,-113.6 C 962.91,208.01 946,189.82 923.8,182.6 c -6.5325,-2.1975 -13.36867,-3.1816 -20.2,-3.05 z m -9.9,17.3 c 9.67027,-0.34622 19.45626,2.50501 27.5,7.95 16.48,10.96 26.5,29.36 31.6,48.1 7.44,28.14 5,59.3 -8.7,85.2 -8.1,15.06 -21.22,28.66 -38.3,32.8 -15.14,3.98 -31.45,-1.58 -42.75,-11.9 -15.58,-14 -24.02,-34.4 -27.4,-54.7 -3.72,-25.32 -0.67,-52.24 11.95,-74.8 7.44,-13.16 18.63,-24.96 33.15,-30.1 4.17499,-1.5375 8.55442,-2.39262 12.95,-2.55 z m 0.8,229.6 c 0.56763,-0.0571 1.12429,-0.0449 1.65,0 7.35984,0.62808 10.8725,10.69499 10.4,17.45 0.08,117.34 0.03,234.66 0.05,352 -0.06,6.38 -1.16,14.14 -7.2,17.7 -5.16,3.52 -13.1,-1.68 -12.3,-7.7 -0.14,-122.62 -0.01,-245.28 -0.85,-367.9 -0.58,-4.68 1.98,-9.6 6.5,-11.2 0.60374,-0.16624 1.18237,-0.29285 1.75,-0.35 z"
     id="path8"
     style="fill:#f5e5c1"
     inkscape:connector-curvature="0" />
  <path
     d="m 495.95,216.1 c -9.63918,0.062 -19.2625,0.5875 -28.85,1.55 -54.72,5.58 -107.63,26.71 -151.35,60.05 -33.34,25.54 -61.33,58.05 -81.25,95.05 -30.52,55.5 -42.02,120.8 -33.8,183.5 6.58,51 26.74,100.14 57.7,141.2 45.66,61.32 115.87,103.53 191.35,115.55 56.22,9.22 115.04,2.18 167.4,-20.3 47.24,-20.18 89.13,-52.69 120.25,-93.55 30.8,-40.42 51.24,-88.68 58.4,-139 8.56,-58.32 -0.38,-119.14 -25.7,-172.4 -26.32,-56 -70.44,-103.49 -124.6,-133.45 -45.34312,-25.75125 -97.49842,-38.53506 -149.55,-38.2 z m 2.25,25.2 c 51.0568,-1.9e-4 102.11125,14.09501 145.45,41.2 43.98,26.98 79.91,66.89 102.35,113.35 23.32,47.46 31.95,101.81 25.65,154.25 -7.06,59.04 -33.82,115.6 -75.5,158.1 -31.96,33.26 -72.65,57.98 -116.75,71.4 -53.78,16.44 -112.55,16.04 -166.05,-1.3 -60.86,-19.48 -114.46,-61.07 -148.1,-115.45 -28.66,-45.3 -43.12,-99.26 -41.9,-152.8 1.24,-50.88 16.56,-101.49 44.6,-144.05 42.86,-66.82 116.26,-112.65 195,-122.45 11.68501,-1.51875 23.46766,-2.24995 35.25,-2.25 z"
     id="path12"
     style="fill:#f5e5c1"
     inkscape:connector-curvature="0" />
  <path
     d="m 461.06,317.6 c 41.58,-7.02 85.34,-0.66 123.02,18.32 40.02,19.92 72.88,53.78 91.6,94.38 16.98,36.54 22.46,78.26 15.64,117.96 -7.52,45.12 -31.22,87.34 -65.9,117.16 -31.02,27.02 -70.62,44.08 -111.6,47.76 -42.54,4.32 -86.44,-5.62 -122.96,-27.88 -38.56,-23.26 -68.82,-60 -84.02,-102.4 -13.38,-36.6 -15.6,-77.14 -6.54,-115.04 10.14,-43 35.12,-82.36 69.82,-109.72 26.2,-20.94 57.84,-35 90.94,-40.54 z"
     id="path16"
     inkscape:connector-curvature="0"
     style="fill:#f5e5c1" />
</svg>
