<?xml version="1.0" encoding="UTF-8" ?>
<!DOCTYPE svg PUBLIC "-//W3C//DTD SVG 1.1//EN" "http://www.w3.org/Graphics/SVG/1.1/DTD/svg11.dtd">
<svg width="512pt" height="512pt" viewBox="0 0 512 512" version="1.1" xmlns="http://www.w3.org/2000/svg">
<path fill="#3e3e3e" opacity="1.00" d=" M 0.00 0.00 L 512.00 0.00 L 512.00 512.00 L 0.00 512.00 L 0.00 0.00 Z" />
<path fill="#f5e5c1" opacity="1.00" d=" M 43.34 95.24 C 44.58 92.71 46.91 90.07 49.96 90.09 C 53.70 89.70 56.88 93.43 56.80 96.99 C 56.84 115.67 56.80 134.34 56.81 153.02 C 56.89 157.56 56.26 162.33 58.20 166.61 C 61.39 166.59 64.57 166.59 67.75 166.56 C 68.43 164.43 68.99 162.24 68.91 159.99 C 68.90 139.65 68.87 119.31 68.91 98.97 C 68.83 95.07 73.08 91.35 76.94 92.64 C 80.38 94.30 81.64 98.45 81.54 102.02 C 81.46 128.35 81.52 154.69 81.51 181.03 C 81.37 186.33 76.65 189.78 73.66 193.67 C 70.32 198.03 65.69 201.62 63.91 206.99 C 62.43 210.48 62.99 214.34 62.91 218.02 C 62.91 277.02 62.93 336.02 62.90 395.03 C 63.12 400.18 59.66 405.02 54.96 406.95 C 49.83 408.99 43.43 407.33 40.15 402.82 C 37.99 400.05 37.28 396.48 37.37 393.04 C 37.41 332.71 37.36 272.37 37.40 212.04 C 37.60 205.52 32.36 200.97 28.84 196.12 C 25.74 191.58 20.95 187.71 19.96 182.07 C 19.72 154.38 20.32 126.69 20.16 99.00 C 19.96 96.30 21.63 93.75 24.04 92.62 C 27.87 91.28 31.64 95.26 31.37 98.97 C 31.35 118.31 31.34 137.66 31.35 157.00 C 31.33 160.62 32.03 164.27 33.77 167.47 C 36.26 167.43 38.76 167.42 41.25 167.45 C 43.69 163.40 42.94 158.51 43.00 154.01 C 42.87 140.01 43.10 125.99 42.99 111.99 C 43.34 106.41 42.46 100.78 43.34 95.24 Z" />
<path fill="#f5e5c1" opacity="1.00" d=" M 435.55 94.50 C 443.36 89.78 453.19 88.38 461.90 91.31 C 473.00 94.92 481.46 104.01 486.88 114.08 C 496.04 131.33 497.92 151.91 493.98 170.88 C 490.78 185.29 483.76 199.71 471.43 208.41 C 469.11 210.23 466.11 211.04 463.91 212.97 C 463.69 276.00 463.96 339.04 463.78 402.08 C 463.85 408.77 457.72 414.58 451.07 414.35 C 444.07 414.40 438.15 407.84 438.60 400.91 C 438.55 337.83 438.65 274.74 438.55 211.65 C 426.43 205.70 418.21 193.99 413.64 181.59 C 406.72 162.53 406.80 140.97 413.99 122.01 C 418.24 111.03 425.24 100.59 435.55 94.50 Z" />
<path fill="#3e3e3e" opacity="1.00" d=" M 440.37 99.69 C 447.05 97.23 454.74 98.45 460.59 102.41 C 468.83 107.89 473.85 117.08 476.40 126.45 C 480.12 140.52 478.91 156.10 472.06 169.05 C 468.01 176.58 461.44 183.39 452.90 185.46 C 445.33 187.45 437.18 184.65 431.53 179.49 C 423.74 172.49 419.52 162.31 417.83 152.16 C 415.97 139.50 417.50 126.04 423.81 114.76 C 427.53 108.18 433.11 102.26 440.37 99.69 Z" />
<path fill="#f5e5c1" opacity="1.00" d=" M 233.55 108.83 C 264.23 105.75 295.89 111.90 322.76 127.16 C 349.84 142.14 371.90 165.87 385.06 193.87 C 397.72 220.50 402.17 250.91 397.89 280.07 C 394.31 305.23 384.09 329.36 368.69 349.57 C 353.13 370.00 332.19 386.26 308.57 396.35 C 282.39 407.59 252.99 411.11 224.88 406.50 C 187.14 400.49 152.02 379.38 129.19 348.72 C 113.71 328.19 103.64 303.62 100.35 278.12 C 96.24 246.77 101.99 214.12 117.25 186.37 C 127.21 167.87 141.21 151.61 157.88 138.84 C 179.74 122.17 206.19 111.62 233.55 108.83 Z" />
<path fill="#3e3e3e" opacity="1.00" d=" M 231.47 121.78 C 262.63 117.73 295.16 124.58 321.83 141.26 C 343.82 154.75 361.77 174.69 372.99 197.92 C 384.65 221.65 388.97 248.82 385.82 275.04 C 382.29 304.56 368.91 332.86 348.07 354.11 C 332.09 370.74 311.75 383.10 289.70 389.81 C 262.81 398.03 233.42 397.81 206.67 389.14 C 176.24 379.40 149.45 358.61 132.63 331.42 C 118.30 308.77 111.07 281.79 111.68 255.02 C 112.30 229.58 119.95 204.27 133.97 182.99 C 155.40 149.58 192.10 126.68 231.47 121.78 Z" />
<path fill="#f5e5c1" opacity="1.00" d=" M 230.53 158.80 C 251.32 155.29 273.20 158.47 292.04 167.96 C 312.05 177.92 328.48 194.85 337.84 215.15 C 346.33 233.42 349.07 254.28 345.66 274.13 C 341.90 296.69 330.05 317.80 312.71 332.71 C 297.20 346.22 277.40 354.75 256.91 356.59 C 235.64 358.75 213.69 353.78 195.43 342.65 C 176.15 331.02 161.02 312.65 153.42 291.45 C 146.73 273.15 145.62 252.88 150.15 233.93 C 155.22 212.43 167.71 192.75 185.06 179.07 C 198.16 168.60 213.98 161.57 230.53 158.80 Z" />
<path fill="#3e3e3e" opacity="1.00" d=" M 30.39 176.42 C 32.35 175.79 34.75 176.14 36.06 177.87 C 39.79 182.16 43.36 186.59 47.21 190.79 C 49.02 192.90 51.32 194.93 51.75 197.83 C 53.04 206.86 51.44 215.93 51.73 224.98 C 51.73 280.99 51.74 337.00 51.73 393.01 C 51.81 396.07 50.71 399.47 47.88 401.03 C 45.18 402.34 41.84 399.76 41.60 397.00 C 41.92 333.34 42.53 269.66 42.54 205.99 C 42.82 203.40 40.82 201.50 39.51 199.52 C 35.92 194.45 32.06 189.59 28.25 184.69 C 26.08 182.10 27.06 177.49 30.39 176.42 Z" />
<path fill="#3e3e3e" opacity="1.00" d=" M 446.38 213.41 C 451.21 212.08 453.55 218.10 453.28 221.96 C 453.32 280.63 453.29 339.29 453.30 397.96 C 453.27 401.15 452.72 405.03 449.70 406.81 C 447.12 408.57 443.15 405.95 443.55 402.94 C 443.48 341.63 443.54 280.31 443.12 219.00 C 442.83 216.66 444.12 214.21 446.38 213.41 Z" />
</svg>
