<?xml version="1.0" encoding="UTF-8" ?>
<!DOCTYPE svg PUBLIC "-//W3C//DTD SVG 1.1//EN" "http://www.w3.org/Graphics/SVG/1.1/DTD/svg11.dtd">
<svg width="512pt" height="512pt" viewBox="0 0 512 512" version="1.1" xmlns="http://www.w3.org/2000/svg">
<path fill="#3e3e3e" opacity="1.00" d=" M 0.00 0.00 L 512.00 0.00 L 512.00 512.00 L 0.00 512.00 L 0.00 0.00 Z" />
<path fill="#f5e5c1" opacity="1.00" d=" M 245.54 42.40 C 251.14 32.87 256.63 22.44 266.22 16.33 C 270.39 19.61 273.76 23.85 276.67 28.26 C 280.75 36.30 284.56 44.52 287.56 53.03 C 290.99 69.11 289.89 85.67 290.14 101.99 C 290.33 107.34 289.49 112.86 291.15 118.05 C 296.13 134.77 300.87 151.55 305.82 168.28 C 307.33 173.06 306.94 178.14 306.80 183.08 C 306.07 239.36 305.25 295.64 304.60 351.91 C 304.57 358.84 299.29 364.54 293.39 367.49 C 282.61 372.95 270.26 374.09 258.35 374.14 C 259.02 370.20 259.37 366.22 259.60 362.24 C 258.15 362.16 256.70 362.09 255.26 362.02 C 254.80 365.97 254.43 369.94 254.65 373.92 C 252.61 373.60 250.57 373.32 248.53 373.05 C 248.38 369.28 248.66 365.51 248.87 361.75 C 243.86 361.26 239.05 359.76 234.22 358.42 C 234.18 362.12 234.20 365.83 234.37 369.53 C 227.12 366.64 220.02 361.11 218.82 352.96 C 218.77 344.66 218.67 336.35 219.16 328.06 C 219.68 278.01 220.72 227.97 221.29 177.93 C 221.36 175.12 221.82 172.33 222.69 169.66 C 227.17 155.49 231.48 141.27 235.97 127.11 C 238.51 120.35 236.88 113.02 237.60 106.00 C 237.65 94.98 238.28 83.99 238.21 72.97 C 238.32 62.39 241.45 52.07 245.54 42.40 Z" />
<path fill="#3e3e3e" opacity="1.00" d=" M 247.58 54.15 C 251.17 42.58 258.18 32.45 266.18 23.48 C 270.05 28.96 274.34 34.35 276.42 40.82 C 281.00 52.64 283.88 65.21 283.61 77.93 C 270.67 80.17 257.49 79.34 244.59 77.28 C 244.15 69.44 245.98 61.76 247.58 54.15 Z" />
<path fill="#3e3e3e" opacity="1.00" d=" M 249.36 123.06 C 249.42 109.33 249.34 95.60 249.40 81.87 C 252.13 82.17 254.87 82.40 257.61 82.56 C 257.60 96.30 257.61 110.04 257.60 123.78 C 258.35 123.83 259.85 123.92 260.60 123.97 C 260.24 110.12 259.60 96.27 259.47 82.42 C 260.87 82.46 262.27 82.54 263.68 82.61 C 264.35 96.37 264.60 110.15 264.86 123.93 C 272.08 123.77 279.29 122.88 286.29 121.04 C 286.86 122.95 287.44 124.85 287.99 126.77 C 272.98 132.86 256.52 129.95 241.01 127.86 C 241.34 125.79 241.67 123.72 241.96 121.65 C 244.42 122.14 246.89 122.61 249.36 123.06 Z" />
<path fill="#3e3e3e" opacity="1.00" d=" M 246.52 132.46 C 250.62 133.24 254.77 133.71 258.94 133.86 C 256.81 144.87 255.33 155.99 253.53 167.06 C 252.81 171.06 252.75 175.13 253.27 179.15 C 255.06 179.20 256.85 179.26 258.64 179.31 C 260.35 164.16 261.43 148.94 262.81 133.76 C 264.30 133.89 265.80 134.03 267.30 134.16 C 265.87 149.27 264.49 164.40 263.31 179.53 C 276.38 179.54 289.55 178.32 302.05 174.35 C 301.93 176.36 301.98 178.39 301.65 180.39 C 289.70 184.78 276.83 185.92 264.19 186.18 C 262.55 239.11 260.99 292.05 259.36 344.98 C 259.38 347.05 259.05 349.22 259.80 351.22 C 273.42 351.65 287.67 349.51 299.58 342.52 C 299.54 345.27 299.53 348.01 299.51 350.76 C 281.85 359.80 261.14 359.28 241.95 356.92 C 235.63 355.43 228.78 354.34 223.53 350.24 C 223.58 347.57 223.60 344.91 223.60 342.26 C 227.24 344.45 231.12 346.21 235.13 347.63 C 235.17 321.20 235.12 294.77 235.43 268.34 C 235.61 239.88 235.35 211.42 235.91 182.97 C 232.58 182.08 229.28 181.11 226.00 180.05 C 226.06 177.92 226.10 175.79 226.19 173.66 C 229.72 174.60 233.22 175.63 236.73 176.62 C 239.89 161.88 243.75 147.28 246.52 132.46 Z" />
<path fill="#f5e5c1" opacity="1.00" d=" M 253.60 185.41 C 255.35 185.53 257.10 185.65 258.85 185.76 C 257.73 240.90 255.75 296.01 254.45 351.15 C 252.79 350.96 251.12 350.78 249.47 350.61 C 250.79 305.05 251.85 259.48 253.05 213.92 C 253.30 204.42 253.70 194.92 253.60 185.41 Z" />
<path fill="#f5e5c1" opacity="1.00" d=" M 122.15 291.46 C 151.60 287.00 181.66 285.57 210.45 277.42 C 210.41 281.06 210.36 284.71 210.33 288.36 C 174.91 293.01 139.51 297.75 104.09 302.37 C 85.44 303.86 66.72 304.21 48.03 305.01 C 42.05 305.36 36.24 303.54 30.28 303.34 C 35.13 308.63 40.03 313.87 44.94 319.11 C 49.72 324.41 55.61 328.54 61.51 332.50 C 68.48 337.51 75.42 342.56 82.38 347.59 C 93.03 355.52 104.48 362.29 115.73 369.31 C 119.32 371.85 122.91 374.37 126.74 376.53 C 154.20 365.82 181.80 355.48 209.32 344.95 C 209.04 350.97 209.10 357.35 212.35 362.67 C 216.67 371.65 226.06 376.52 235.12 379.51 C 253.44 385.02 273.47 384.64 291.57 378.44 C 298.97 375.74 306.26 371.37 310.31 364.38 C 312.70 360.73 313.62 356.34 313.84 352.03 C 314.36 342.24 314.11 332.42 314.33 322.62 C 330.88 325.47 347.47 328.12 364.04 330.84 C 369.41 331.61 374.49 333.95 380.02 333.62 C 390.08 333.38 400.27 333.80 410.15 331.60 C 420.40 329.45 430.91 328.69 441.01 325.81 C 448.40 324.30 455.45 321.58 462.79 319.85 C 469.18 318.39 474.73 314.71 480.98 312.84 C 487.69 310.73 494.19 308.04 500.82 305.72 C 499.29 309.72 497.84 313.81 495.53 317.45 C 489.10 327.37 483.06 337.63 475.16 346.49 C 480.73 347.10 486.34 347.12 491.93 347.57 C 493.31 347.33 493.99 348.82 493.67 349.99 C 488.82 371.77 484.41 393.65 479.70 415.46 C 479.04 418.39 478.48 421.34 478.08 424.32 C 441.18 444.71 404.18 464.96 367.25 485.32 C 364.81 486.64 362.46 488.15 359.87 489.16 C 356.63 489.85 353.27 489.55 349.98 489.71 C 339.33 489.77 328.67 490.92 318.04 490.19 C 296.20 487.69 273.98 487.43 252.58 482.01 C 245.92 479.20 238.93 477.34 232.06 475.14 C 206.39 467.16 180.73 459.16 155.07 451.17 C 145.62 448.02 135.72 445.91 126.95 441.03 C 117.71 436.11 107.92 432.31 98.75 427.26 C 88.60 421.70 78.04 416.89 68.18 410.80 C 64.77 408.54 60.51 408.13 57.14 405.81 C 53.24 403.21 49.41 400.52 45.56 397.84 C 42.41 382.57 38.40 367.48 33.55 352.66 C 31.25 345.73 29.77 338.57 27.19 331.73 C 22.62 319.28 18.62 306.65 14.42 294.08 C 23.57 295.12 32.76 295.71 41.93 296.57 C 68.78 297.86 95.47 293.75 122.15 291.46 Z" />
<path fill="#3e3e3e" opacity="1.00" d=" M 388.18 382.10 C 421.27 360.57 454.27 338.92 487.34 317.37 C 488.65 318.36 490.40 320.01 488.84 321.66 C 482.95 329.81 476.43 337.50 470.79 345.82 C 468.55 348.02 465.64 349.36 463.05 351.08 C 427.86 373.20 392.64 395.29 357.47 417.43 C 355.89 418.40 354.21 419.20 352.52 419.96 C 352.49 417.86 352.37 415.57 354.08 414.06 C 360.32 406.97 366.44 399.77 372.75 392.74 C 377.41 388.56 382.99 385.56 388.18 382.10 Z" />
<path fill="#3e3e3e" opacity="1.00" d=" M 32.07 317.78 C 36.72 322.19 40.60 327.40 45.70 331.34 C 55.37 338.97 65.00 346.67 74.64 354.34 C 77.84 356.89 81.48 358.81 84.98 360.90 C 93.96 366.18 102.58 372.03 111.39 377.58 C 115.57 380.21 120.22 382.02 124.36 384.72 C 124.96 386.03 124.93 387.55 125.14 388.98 C 126.25 403.24 127.70 417.47 128.83 431.74 C 121.40 428.46 114.22 424.65 106.96 421.02 C 99.02 416.45 90.30 413.38 82.62 408.33 C 75.82 403.78 67.84 401.49 60.94 397.12 C 58.40 395.48 55.45 394.64 52.90 393.03 C 51.81 391.24 51.70 389.06 51.15 387.09 C 55.06 388.82 58.85 391.07 63.17 391.63 C 63.97 390.53 64.45 388.88 63.11 387.98 C 58.48 383.89 53.41 380.30 48.61 376.40 C 48.01 374.32 47.40 372.24 46.80 370.16 C 59.13 379.53 71.71 388.63 85.15 396.33 C 86.16 395.69 87.10 394.96 87.97 394.16 C 80.86 388.31 72.50 384.25 65.12 378.76 C 59.04 374.20 52.89 369.75 46.83 365.17 C 44.77 363.91 44.34 361.44 43.70 359.31 C 42.64 355.39 41.52 351.49 40.41 347.59 C 43.24 350.02 45.77 352.89 49.11 354.66 C 50.28 354.18 50.90 353.33 50.97 352.09 C 47.57 347.80 42.78 344.90 39.04 340.93 C 37.71 339.16 37.38 336.86 36.65 334.82 C 41.62 339.02 46.18 343.72 51.51 347.49 C 56.80 351.26 61.71 355.59 67.33 358.86 C 68.02 357.49 69.56 355.64 67.55 354.62 C 60.37 348.69 52.38 343.78 45.57 337.40 C 42.64 334.64 39.60 332.01 36.62 329.31 C 33.29 326.48 33.31 321.65 32.07 317.78 Z" />
<path fill="#3e3e3e" opacity="1.00" d=" M 429.12 336.97 C 437.11 334.97 444.99 332.47 453.08 330.88 C 449.64 333.99 445.46 336.06 441.58 338.54 C 426.34 348.08 410.86 357.22 395.31 366.25 C 383.25 373.44 370.80 380.05 359.57 388.52 C 350.46 394.61 340.46 399.25 330.38 403.49 C 319.16 407.26 307.71 410.42 296.04 412.50 C 290.12 413.74 284.02 412.58 278.10 413.75 C 272.48 415.14 266.64 414.37 260.93 414.21 C 259.13 414.21 257.95 412.64 258.53 410.93 C 268.19 406.49 277.01 400.46 286.24 395.20 C 313.03 379.32 339.81 363.42 366.60 347.55 C 368.33 346.50 369.78 345.08 371.20 343.66 C 380.03 342.18 388.99 342.85 397.87 342.19 C 408.30 340.54 418.97 340.07 429.12 336.97 Z" />
<path fill="#3e3e3e" opacity="1.00" d=" M 412.02 403.10 C 436.77 388.10 461.54 373.12 486.27 358.08 C 485.88 359.80 485.51 361.54 485.13 363.27 C 477.52 369.57 471.09 377.15 463.86 383.88 C 462.60 385.41 460.15 386.75 460.57 389.04 C 461.58 389.94 463.01 391.31 464.46 390.41 C 470.37 387.05 475.89 383.03 481.71 379.50 C 480.67 384.40 479.66 389.32 478.54 394.20 C 472.26 399.02 465.96 403.85 459.91 408.95 C 457.66 409.95 460.00 413.69 461.88 412.22 C 466.99 409.45 471.73 406.05 476.71 403.05 C 475.59 407.54 475.24 412.25 473.54 416.58 C 471.68 418.45 469.18 419.51 466.96 420.87 C 435.25 439.19 403.60 457.61 371.89 475.91 C 370.22 477.25 367.59 476.38 367.72 474.03 C 367.03 471.33 369.89 470.07 371.50 468.53 C 378.12 463.51 384.24 457.83 391.07 453.10 C 405.88 445.53 420.76 438.09 435.61 430.59 C 438.44 429.08 441.53 427.99 444.12 426.07 C 445.78 425.07 444.57 423.05 443.18 422.51 C 439.37 423.67 435.93 425.72 432.33 427.36 C 411.95 436.95 391.55 446.51 371.16 456.08 C 371.56 453.83 371.99 451.58 372.45 449.34 C 381.48 444.73 390.68 440.42 399.63 435.66 C 402.08 434.76 400.58 430.99 398.13 432.16 C 390.00 434.77 382.11 438.12 374.05 440.95 C 374.28 439.50 374.52 438.07 374.76 436.63 C 391.47 427.37 408.30 418.32 425.05 409.14 C 428.04 407.42 431.34 406.15 434.00 403.91 C 434.47 401.58 432.38 400.34 430.44 401.55 C 412.47 410.06 394.53 418.64 376.53 427.11 C 376.73 426.28 377.14 424.63 377.34 423.81 C 389.16 417.37 400.42 409.94 412.02 403.10 Z" />
<path fill="#3e3e3e" opacity="1.00" d=" M 133.39 380.42 C 135.29 378.98 137.82 379.39 139.98 379.87 C 175.65 388.61 211.32 397.37 247.01 406.06 C 250.02 406.63 253.30 408.59 253.54 411.97 C 254.03 415.57 250.54 418.98 246.96 418.50 C 242.88 417.97 238.96 416.68 234.96 415.77 C 201.25 407.57 167.56 399.19 133.83 391.10 C 129.59 389.26 129.44 382.67 133.39 380.42 Z" />
<path fill="#3e3e3e" opacity="1.00" d=" M 333.91 411.55 C 342.68 409.06 350.57 404.42 358.52 400.08 C 353.52 407.77 345.92 413.10 339.55 419.52 C 336.27 423.17 332.88 426.75 328.90 429.65 C 340.57 428.35 352.26 427.15 363.94 425.86 C 365.46 425.78 367.44 425.22 368.14 427.08 C 368.42 428.87 367.54 430.62 367.19 432.37 C 355.72 434.64 344.41 437.69 332.97 440.11 C 326.32 440.77 319.59 439.95 312.94 440.90 C 304.76 442.03 296.41 442.09 288.34 443.91 C 291.43 445.07 294.75 444.76 297.98 444.78 C 308.64 444.66 319.31 444.89 329.97 444.67 C 341.59 443.54 353.12 441.54 364.77 440.72 C 364.10 442.68 363.61 444.73 362.69 446.61 C 349.75 451.68 335.67 451.78 322.06 453.63 C 320.06 454.16 316.54 453.44 316.11 456.17 C 316.33 458.59 319.27 458.26 321.01 458.09 C 334.17 456.82 347.44 456.73 360.53 454.80 C 359.57 457.98 358.62 461.17 357.60 464.34 C 352.34 464.49 347.02 463.87 341.82 464.63 C 339.95 465.58 340.78 467.00 342.04 468.05 C 346.87 468.49 351.72 468.14 356.56 468.23 C 355.24 472.50 354.27 476.93 352.16 480.92 C 338.28 480.77 324.39 481.17 310.52 480.71 C 290.37 478.38 270.08 476.95 250.12 473.20 C 252.15 455.70 254.14 438.20 256.40 420.73 C 260.91 421.18 265.45 421.66 269.99 421.33 C 283.36 420.21 296.73 419.05 310.11 418.04 C 318.46 417.77 326.00 413.78 333.91 411.55 Z" />
</svg>
