<?xml version="1.0" encoding="UTF-8" ?>
<!DOCTYPE svg PUBLIC "-//W3C//DTD SVG 1.1//EN" "http://www.w3.org/Graphics/SVG/1.1/DTD/svg11.dtd">
<svg width="512pt" height="512pt" viewBox="0 0 512 512" version="1.1" xmlns="http://www.w3.org/2000/svg">
<path fill="#3e3e3e" opacity="1.00" d=" M 0.00 0.00 L 512.00 0.00 L 512.00 512.00 L 0.00 512.00 L 0.00 0.00 Z" />
<path fill="#f5e5c1" opacity="1.00" d=" M 331.40 6.54 C 337.64 4.87 344.30 6.40 350.00 9.14 C 355.99 12.19 359.34 18.29 361.99 24.17 C 367.09 30.28 366.32 38.75 367.60 46.13 C 368.68 49.68 370.17 53.09 371.39 56.59 C 374.15 57.81 376.95 58.96 379.75 60.08 C 383.02 58.88 386.78 58.03 389.92 60.09 C 398.42 65.57 406.80 71.26 415.43 76.56 C 418.07 78.25 421.33 79.08 423.51 81.44 C 425.61 83.89 424.54 87.32 424.18 90.18 C 428.93 94.30 434.31 97.66 438.87 101.97 C 444.20 109.54 448.37 117.87 453.55 125.54 C 454.96 127.80 456.92 130.11 456.66 132.95 C 456.58 135.80 454.26 137.73 452.54 139.71 C 457.41 147.54 460.69 156.19 464.21 164.68 C 466.19 169.38 466.77 174.55 468.88 179.19 C 474.04 187.84 478.50 196.88 483.33 205.71 C 484.90 208.51 485.77 211.65 486.16 214.83 C 488.18 229.93 490.41 245.01 492.30 260.13 C 494.84 272.53 498.44 284.70 501.69 296.94 C 503.03 301.22 501.64 305.82 499.61 309.66 C 494.43 318.47 489.20 327.26 484.17 336.16 C 482.19 339.98 477.12 340.23 474.83 343.77 C 472.27 347.25 468.69 349.83 464.92 351.86 C 461.21 353.45 456.06 352.86 453.64 349.35 C 450.49 343.87 449.72 336.54 453.49 331.15 C 451.96 329.24 450.58 327.23 449.36 325.12 C 445.28 325.03 440.85 325.78 437.05 323.99 C 433.51 321.89 434.06 317.45 434.19 313.96 C 434.45 310.22 433.08 306.65 432.73 302.97 C 432.62 298.39 435.86 294.58 436.05 290.04 C 436.55 286.19 436.05 281.81 438.63 278.58 C 440.63 275.66 444.39 273.01 442.91 268.98 C 440.76 262.11 437.01 255.81 434.84 248.92 C 432.02 240.40 430.08 231.62 427.63 222.99 C 425.49 216.11 426.05 208.82 425.10 201.77 C 423.15 195.51 419.87 189.77 416.84 183.99 C 415.60 202.32 413.95 220.63 413.57 239.01 C 413.75 246.07 408.80 251.71 406.86 258.21 C 405.56 266.10 408.32 274.55 405.04 282.10 C 405.40 294.74 405.63 307.39 406.19 320.02 C 406.85 330.80 403.41 341.25 402.91 351.96 C 404.02 357.46 406.22 362.65 408.26 367.86 C 411.76 379.08 415.05 390.40 416.62 402.07 C 416.81 405.65 414.00 408.29 412.09 411.00 C 412.22 412.61 412.33 414.23 412.42 415.86 C 414.05 419.00 416.25 422.25 415.64 425.99 C 415.53 429.39 413.64 433.32 409.99 433.96 C 406.15 434.76 402.42 435.96 398.79 437.41 C 396.94 443.42 396.13 449.79 396.88 456.06 C 398.75 460.61 401.28 464.86 403.42 469.30 C 407.48 469.73 412.24 469.51 415.25 472.79 C 419.44 476.30 419.98 482.05 422.27 486.71 C 423.68 489.74 424.96 493.26 423.65 496.57 C 422.77 499.32 419.81 500.78 417.06 500.68 C 405.03 500.77 393.01 500.65 380.99 500.73 C 376.72 500.99 372.72 499.02 369.31 496.67 C 366.89 494.95 366.36 491.83 365.42 489.22 C 361.20 487.62 354.96 486.39 354.54 480.86 C 354.46 474.37 354.54 467.51 357.69 461.63 C 359.41 458.36 358.05 454.59 358.70 451.11 C 359.34 448.50 360.69 446.15 361.43 443.58 C 361.89 440.81 361.63 437.98 361.68 435.20 C 357.38 431.90 350.43 429.40 350.45 423.00 C 351.44 415.46 353.91 408.20 355.93 400.89 C 356.82 398.10 355.59 395.26 355.34 392.47 C 354.33 386.30 356.85 380.23 356.44 374.09 C 352.29 359.11 345.88 344.90 340.31 330.43 C 338.88 330.36 337.45 330.28 336.03 330.21 C 330.80 343.67 324.99 356.93 320.77 370.75 C 318.96 376.08 321.35 381.54 321.65 386.91 C 322.22 391.31 320.50 395.55 320.44 399.91 C 322.16 407.65 325.23 415.14 325.92 423.09 C 325.49 429.28 318.80 431.62 314.56 434.92 C 314.56 437.66 314.41 440.41 314.71 443.15 C 315.37 445.88 316.91 448.31 317.52 451.06 C 318.07 454.76 316.82 458.78 318.81 462.21 C 321.80 468.00 321.75 474.71 321.63 481.06 C 321.09 486.52 314.91 487.65 310.76 489.40 C 309.85 492.01 309.36 495.17 306.88 496.82 C 303.64 498.90 299.99 500.81 296.02 500.71 C 284.00 500.71 271.98 500.70 259.96 500.72 C 257.43 500.78 254.53 500.12 253.17 497.75 C 251.25 494.39 252.28 490.24 253.86 486.95 C 256.20 482.25 256.72 476.43 260.96 472.87 C 263.94 469.54 268.69 469.67 272.78 469.34 C 274.93 464.91 277.45 460.65 279.32 456.10 C 279.86 449.92 279.50 443.61 277.48 437.71 C 271.41 435.57 264.55 434.10 260.11 429.06 C 258.50 422.71 263.60 417.67 265.88 412.23 C 263.67 409.32 260.70 406.67 259.89 402.98 C 259.72 399.89 260.75 396.87 261.42 393.89 C 265.13 380.86 268.51 367.73 272.78 354.87 C 274.38 350.99 273.07 346.85 272.62 342.89 C 271.99 337.40 270.83 332.00 270.15 326.52 C 265.18 327.02 258.54 328.61 255.16 323.74 C 251.52 315.53 249.09 306.81 247.55 297.97 C 247.16 294.45 243.92 292.20 243.29 288.76 C 241.49 280.45 242.27 271.54 245.86 263.80 C 247.10 261.26 249.27 259.06 252.10 258.41 C 256.89 257.17 261.74 256.21 266.56 255.08 C 266.17 252.12 265.76 249.15 265.31 246.20 C 265.09 242.91 261.34 241.44 260.86 238.22 C 257.94 225.30 255.31 212.30 252.02 199.47 C 250.59 207.26 251.49 215.38 249.13 223.02 C 247.44 229.35 245.64 235.65 244.04 242.01 C 241.94 250.30 238.31 258.09 234.83 265.87 C 233.83 268.05 233.80 270.48 233.50 272.82 C 235.48 275.38 237.86 277.72 239.22 280.70 C 240.52 284.85 240.01 289.30 240.81 293.53 C 241.97 296.62 244.01 299.46 244.07 302.89 C 244.06 307.58 243.59 312.27 243.85 316.98 C 243.98 320.60 243.88 325.21 240.21 327.16 C 235.53 329.35 230.17 327.97 225.24 327.68 C 224.37 328.67 223.50 329.67 222.63 330.66 C 225.97 335.15 224.76 341.09 224.26 346.25 C 223.62 350.25 220.07 353.14 216.04 353.10 C 212.07 354.17 208.48 351.79 206.20 348.75 C 203.18 345.43 200.70 341.36 196.45 339.47 C 193.95 338.39 192.36 336.15 191.15 333.81 C 186.41 325.03 180.96 316.65 176.22 307.87 C 174.98 304.57 173.02 300.93 174.47 297.38 C 177.90 285.68 180.92 273.86 183.80 262.01 C 185.61 251.35 186.90 240.60 188.47 229.89 C 189.26 224.70 189.54 219.33 191.68 214.46 C 197.30 201.85 202.82 189.20 208.46 176.60 C 211.91 163.58 217.38 151.15 223.81 139.34 C 222.20 137.47 220.12 135.68 219.77 133.09 C 219.26 130.26 221.07 127.79 222.47 125.52 C 227.00 118.67 231.22 111.64 235.49 104.62 C 236.83 102.35 238.48 100.23 240.68 98.72 C 246.30 94.76 251.16 89.86 256.67 85.75 C 270.80 74.24 286.49 64.80 302.64 56.44 C 304.38 52.24 306.21 47.64 305.35 43.02 C 304.66 38.45 306.46 34.04 307.79 29.76 C 308.43 27.30 310.31 25.55 312.17 23.97 C 315.33 15.58 322.43 8.36 331.40 6.54 Z" />
<path fill="#f5e5c1" opacity="1.00" d=" M 51.48 7.48 C 127.49 7.51 203.51 7.51 279.52 7.48 C 279.49 12.83 279.49 18.17 279.52 23.52 C 208.32 23.50 137.12 23.49 65.92 23.52 C 66.15 111.69 65.88 199.87 66.09 288.05 C 96.37 287.94 126.64 288.07 156.92 287.94 C 157.20 292.80 157.02 297.66 156.69 302.52 C 121.62 302.49 86.55 302.49 51.48 302.52 C 51.51 248.98 51.51 195.45 51.48 141.91 C 36.69 142.15 21.89 141.82 7.10 142.09 C 6.87 136.22 6.88 130.35 7.03 124.48 C 21.86 124.52 36.68 124.47 51.51 124.51 C 51.47 85.50 51.53 46.49 51.48 7.48 Z" />
<path fill="#3e3e3e" opacity="1.00" d=" M 346.78 14.10 C 352.19 17.32 355.13 23.08 356.97 28.89 C 357.71 29.71 358.94 30.24 359.28 31.37 C 360.37 35.79 360.97 40.34 360.91 44.89 C 362.24 50.50 364.81 55.73 366.59 61.20 C 370.24 62.72 373.84 64.35 377.47 65.91 C 380.57 64.51 384.25 62.14 387.53 64.45 C 398.95 71.39 410.33 78.42 421.71 85.44 C 422.04 89.29 422.20 93.18 423.09 96.96 C 415.18 109.04 409.10 122.20 401.46 134.45 C 399.26 137.93 397.17 141.47 395.16 145.06 C 395.40 147.07 395.63 149.07 395.87 151.08 C 397.57 150.92 399.81 151.73 400.80 149.84 C 406.47 142.80 412.00 135.63 417.65 128.57 C 418.69 126.80 420.84 126.96 422.60 126.61 C 422.20 130.71 421.17 134.74 421.03 138.86 C 423.34 142.86 427.20 145.64 430.32 148.98 C 434.32 145.38 438.14 141.59 442.06 137.92 C 443.20 136.74 444.81 136.30 446.29 135.74 C 445.90 140.76 448.31 145.05 450.82 149.17 C 454.95 158.18 459.26 167.23 461.58 176.92 C 462.15 179.01 462.81 181.09 463.89 182.97 C 468.38 190.05 471.96 197.65 476.00 204.98 C 477.31 207.61 479.07 210.11 479.67 213.04 C 480.74 226.13 482.79 239.13 485.16 252.04 C 485.77 262.95 489.51 273.29 491.70 283.91 C 492.77 289.39 495.26 294.50 496.11 300.04 C 496.31 303.03 494.76 305.79 493.33 308.31 C 488.75 316.08 484.09 323.81 479.73 331.70 C 478.13 335.21 473.53 335.33 471.37 338.35 C 468.40 341.91 464.90 346.27 459.99 346.63 C 456.51 344.85 457.36 339.96 457.17 336.68 C 459.08 337.53 460.91 338.56 462.69 339.70 C 466.42 336.39 470.24 333.19 473.95 329.86 C 475.42 328.71 475.87 326.85 476.42 325.16 C 479.47 314.99 482.58 304.84 485.74 294.71 C 486.33 292.88 486.74 290.97 486.45 289.05 C 485.78 282.96 485.10 276.86 484.39 270.77 C 480.86 267.96 477.31 265.18 473.73 262.43 C 470.83 262.38 467.93 262.23 465.05 261.93 C 466.94 258.30 472.41 257.10 472.23 252.50 C 472.75 245.66 473.97 238.84 473.63 231.95 C 473.40 224.33 473.49 216.67 472.30 209.12 C 471.91 207.01 470.47 205.32 469.38 203.54 C 466.29 199.04 463.31 194.42 459.67 190.33 C 457.73 191.21 456.76 193.26 455.44 194.81 C 453.68 186.66 451.47 178.62 449.73 170.47 C 449.22 168.78 449.20 166.50 447.24 165.80 C 442.46 163.19 437.54 160.86 432.78 158.22 C 430.41 159.65 426.48 160.48 426.64 163.94 C 426.52 167.92 424.53 172.41 427.08 175.98 C 430.68 182.09 434.23 188.23 437.80 194.36 C 435.99 198.32 435.99 202.76 435.78 207.03 C 435.68 211.43 435.26 216.00 436.88 220.20 C 441.53 232.63 446.18 245.07 450.68 257.56 C 451.68 260.69 454.49 262.61 456.96 264.55 C 455.14 267.47 453.15 270.29 451.12 273.07 C 450.64 272.61 449.69 271.68 449.21 271.21 C 449.49 265.32 445.79 260.46 443.84 255.17 C 438.92 244.39 436.72 232.69 433.42 221.38 C 431.24 214.17 432.42 206.48 430.78 199.21 C 426.99 188.97 421.33 179.58 416.13 170.03 C 413.45 175.32 410.53 180.83 410.50 186.91 C 410.11 194.63 409.41 202.33 408.82 210.04 C 407.91 220.36 408.00 230.73 407.28 241.06 C 406.24 246.67 401.88 251.22 401.35 256.97 C 401.22 279.33 401.51 301.70 401.23 324.05 C 398.99 332.21 398.14 340.64 396.94 349.00 C 396.01 354.55 399.10 359.66 400.44 364.89 C 405.38 377.04 408.52 389.84 410.69 402.76 C 408.21 405.83 405.84 408.98 403.37 412.06 C 405.52 417.16 410.46 421.70 409.37 427.64 C 404.14 428.83 399.12 430.73 394.08 432.48 C 392.93 437.93 389.66 443.19 390.40 448.83 C 393.88 457.54 398.02 465.97 401.72 474.59 C 404.91 475.33 408.26 475.54 411.31 476.82 C 413.21 478.76 413.80 481.59 414.63 484.10 C 415.43 487.74 417.75 490.80 418.52 494.48 C 409.66 494.65 400.85 493.44 392.01 492.95 C 387.78 492.40 383.39 492.88 379.26 491.64 C 376.72 489.97 375.54 486.69 372.62 485.48 C 368.62 483.67 364.44 482.28 360.46 480.46 C 360.31 476.16 359.78 471.89 359.48 467.61 C 361.14 465.13 363.02 462.77 364.32 460.07 C 364.15 457.40 363.33 454.80 363.30 452.13 C 364.19 448.70 366.28 445.74 367.53 442.44 C 368.76 439.53 368.24 436.30 368.30 433.24 C 364.16 430.20 360.10 427.06 355.99 423.98 C 357.49 416.86 359.39 409.83 361.28 402.80 C 362.77 398.14 359.74 393.60 360.37 388.91 C 360.98 383.90 362.75 379.03 362.68 373.95 C 361.45 368.38 359.17 363.09 357.13 357.78 C 352.56 346.68 348.07 335.54 343.43 324.46 C 339.53 324.48 335.62 324.50 331.72 324.48 C 325.55 340.61 318.39 356.41 313.80 373.09 C 313.67 379.61 316.61 386.00 315.31 392.54 C 314.88 395.64 313.74 398.80 314.58 401.93 C 316.42 408.89 318.87 415.74 319.84 422.90 C 317.29 427.20 311.42 428.28 308.57 432.37 C 307.62 435.51 308.41 438.87 308.36 442.10 C 308.33 445.74 310.58 448.79 311.50 452.20 C 311.81 455.11 311.29 458.06 311.72 460.98 C 312.76 464.36 315.00 467.38 315.19 471.02 C 315.42 474.27 315.94 477.58 315.45 480.84 C 311.76 482.68 307.66 483.66 304.23 486.03 C 304.13 487.86 304.83 490.01 303.55 491.59 C 300.82 493.80 297.33 494.94 293.81 494.56 C 294.29 491.49 295.40 488.29 294.34 485.22 C 293.69 482.89 292.90 480.61 292.20 478.31 C 294.90 476.57 298.11 476.95 301.14 477.20 C 303.44 475.13 305.97 473.27 307.88 470.82 C 308.67 468.80 308.67 466.59 308.97 464.47 C 304.82 463.53 300.56 462.89 296.59 461.29 C 300.09 460.22 303.68 459.52 307.19 458.51 C 307.78 457.03 308.38 455.56 308.99 454.09 C 308.16 451.63 307.59 449.04 306.29 446.77 C 301.41 444.94 296.00 445.27 290.87 445.35 C 289.61 451.47 289.72 458.06 286.52 463.61 C 284.16 467.97 282.75 472.81 280.09 477.00 C 277.40 478.05 273.94 477.55 271.98 480.04 C 270.37 481.56 270.11 483.87 269.45 485.87 C 267.98 487.04 266.51 488.20 265.02 489.34 C 264.65 490.98 264.31 492.62 263.98 494.28 C 261.96 494.49 259.94 494.63 257.91 494.73 C 258.22 491.88 259.27 489.20 261.15 487.03 C 261.44 483.01 263.05 478.87 266.33 476.38 C 269.10 475.50 272.05 475.54 274.90 475.17 C 277.17 471.01 279.59 466.94 281.86 462.78 C 284.74 458.04 284.67 452.31 285.31 446.98 C 285.83 442.88 284.67 438.91 283.57 435.02 C 277.92 432.71 272.18 430.62 266.50 428.39 C 266.38 426.95 266.26 425.50 266.16 424.07 C 267.35 422.48 268.54 420.88 269.73 419.30 C 279.04 424.41 288.41 429.43 297.77 434.45 C 302.63 431.68 307.53 428.99 312.42 426.28 C 312.61 424.16 312.75 422.02 312.86 419.90 C 306.48 421.09 300.08 424.35 293.49 422.54 C 296.46 417.94 299.77 413.58 302.87 409.08 C 297.10 404.45 291.33 399.82 285.61 395.11 C 290.45 391.16 295.40 387.33 300.12 383.24 C 296.87 381.34 293.35 379.87 290.33 377.62 C 288.49 372.20 287.84 366.35 287.51 360.65 C 289.19 363.78 290.71 367.01 292.72 369.97 C 297.58 367.30 302.79 365.31 307.59 362.53 C 308.89 361.85 308.79 360.18 309.22 358.98 C 311.33 350.01 312.66 340.89 314.75 331.92 C 312.81 329.25 310.85 326.60 308.92 323.93 C 313.38 322.57 317.74 320.90 322.17 319.44 C 328.24 318.21 334.52 319.46 340.61 318.34 C 342.86 317.72 344.82 316.40 346.86 315.30 C 350.86 323.49 354.92 331.65 359.06 339.77 C 361.49 347.37 363.18 355.22 364.31 363.12 C 364.97 367.71 368.88 371.73 367.34 376.54 C 366.28 380.67 367.41 384.86 367.77 389.00 C 368.61 395.28 368.43 401.65 369.19 407.95 C 370.00 414.15 368.01 420.19 366.99 426.24 C 372.78 428.08 378.34 430.55 384.02 432.72 C 389.88 429.48 396.21 427.01 401.54 422.88 C 399.78 419.25 397.34 415.89 396.21 412.01 C 397.47 405.56 399.86 399.37 401.34 392.97 C 400.77 388.60 399.86 384.09 398.02 380.06 C 393.49 374.47 389.19 368.68 384.42 363.28 C 387.99 349.58 390.51 335.60 394.57 322.03 C 394.65 313.52 393.51 305.05 393.37 296.54 C 389.13 292.15 385.83 286.93 381.54 282.59 C 378.59 281.12 375.15 280.91 371.92 280.50 C 368.56 280.10 365.77 282.35 362.95 283.79 C 358.77 285.78 356.51 290.02 353.15 292.99 C 346.40 292.53 339.61 292.58 332.87 291.99 C 325.94 290.63 319.04 288.54 313.10 284.60 C 313.16 282.23 313.24 279.87 313.33 277.50 C 308.50 275.91 303.64 274.40 298.78 272.88 C 298.38 273.85 297.97 274.82 297.57 275.79 C 298.93 278.50 300.43 281.17 301.43 284.05 C 300.58 289.49 298.81 294.74 297.62 300.12 C 295.53 307.32 296.93 314.90 296.04 322.25 C 294.53 325.77 291.90 328.70 289.84 331.91 C 287.37 335.94 281.84 334.93 277.83 335.88 C 277.06 332.25 276.48 328.59 276.23 324.90 C 278.76 324.33 281.24 323.55 283.65 322.57 C 281.70 307.58 279.95 292.56 278.10 277.56 C 281.94 276.16 285.89 275.07 289.67 273.50 C 291.45 272.89 291.01 270.59 291.56 269.16 C 285.23 266.85 278.64 265.22 272.46 262.54 C 273.03 255.16 271.63 247.88 271.59 240.51 C 268.58 238.94 263.15 238.82 262.87 234.56 C 261.02 220.02 259.11 205.48 257.25 190.94 C 259.48 189.27 262.36 188.25 264.04 185.98 C 263.42 181.14 263.02 175.91 259.32 172.29 C 254.62 181.36 249.11 190.08 245.79 199.79 C 244.51 207.15 245.42 214.82 243.16 222.03 C 239.42 234.65 237.32 248.00 230.53 259.48 C 227.92 263.83 226.88 268.78 226.49 273.78 C 228.78 276.92 231.64 279.67 233.54 283.08 C 234.44 287.65 234.29 292.34 234.91 296.95 C 236.85 299.19 238.49 301.92 237.93 305.03 C 237.19 310.76 237.48 316.54 237.25 322.31 C 233.81 322.18 230.40 321.71 226.96 321.73 C 225.27 318.49 223.58 315.25 222.17 311.88 C 220.78 308.59 220.89 304.85 219.32 301.64 C 217.23 299.03 213.13 296.92 210.01 299.04 C 207.85 300.96 206.78 304.12 206.95 306.97 C 210.93 310.76 215.68 313.66 219.88 317.21 C 219.73 320.18 219.43 323.15 219.05 326.12 C 215.88 325.65 212.73 325.02 209.57 324.47 C 212.33 328.56 215.66 332.21 218.83 335.98 C 218.76 339.52 218.54 343.07 218.00 346.57 C 216.36 346.81 214.72 347.04 213.09 347.28 C 210.12 344.09 207.47 340.62 204.49 337.45 C 202.30 334.89 198.23 334.56 196.76 331.31 C 192.00 322.50 186.68 314.02 181.74 305.32 C 180.63 304.01 181.59 302.55 182.03 301.21 C 184.17 304.31 185.62 307.94 188.36 310.60 C 193.25 315.41 198.17 320.19 203.01 325.05 C 204.19 326.31 205.67 327.22 207.30 327.80 C 202.93 320.42 200.07 312.33 196.35 304.64 C 195.69 299.75 195.24 294.80 195.14 289.86 C 199.43 289.36 203.75 289.81 208.05 289.86 C 212.30 289.89 215.08 293.71 218.77 295.28 C 222.02 296.59 225.44 297.42 228.77 298.50 C 229.17 293.67 229.46 288.83 229.75 283.99 C 223.66 275.86 217.57 267.57 209.98 260.77 C 213.03 258.07 216.83 256.45 220.00 253.94 C 221.95 248.49 222.89 242.68 225.05 237.26 C 222.11 237.07 219.16 236.83 216.24 236.39 C 221.42 224.57 226.80 212.84 232.06 201.06 C 233.08 198.77 233.69 196.32 234.36 193.91 C 231.43 190.48 228.37 187.16 225.75 183.49 C 229.46 181.92 233.36 180.80 237.05 179.18 C 238.33 178.76 238.75 177.34 239.41 176.32 C 240.90 173.29 242.55 170.28 243.30 166.97 C 241.40 157.30 236.36 148.62 233.16 139.36 C 239.48 144.88 245.65 150.58 252.26 155.75 C 252.89 155.44 253.53 155.13 254.17 154.82 C 256.53 150.38 260.31 146.97 263.43 143.09 C 262.83 137.93 259.15 134.05 257.18 129.43 C 261.81 131.73 266.04 134.77 270.36 137.57 C 273.42 142.41 276.09 147.51 278.77 152.57 C 290.88 151.20 303.02 150.08 315.14 148.72 C 316.63 148.73 317.49 147.38 318.45 146.47 C 324.43 139.68 330.60 133.05 336.60 126.28 C 336.79 120.81 334.98 114.95 337.05 109.74 C 339.89 112.45 340.69 116.53 342.53 119.88 C 347.31 111.08 351.91 102.19 356.60 93.34 C 352.25 91.65 347.66 90.55 343.48 88.46 C 341.83 85.70 341.62 82.13 339.24 79.81 C 334.57 75.36 329.53 71.30 324.94 66.76 C 330.33 65.52 335.80 66.85 341.18 67.52 C 342.26 64.49 343.75 61.49 343.82 58.23 C 339.30 57.18 334.46 57.93 330.15 55.86 C 334.07 51.58 340.35 54.23 345.39 53.13 C 341.80 51.59 337.77 52.31 333.98 52.14 C 330.93 51.91 328.49 54.06 325.84 55.20 C 326.11 54.12 326.38 53.04 326.67 51.96 C 332.09 51.09 337.57 51.09 343.04 51.02 C 344.92 51.20 345.74 49.30 346.87 48.19 C 345.79 47.71 344.70 47.24 343.62 46.77 C 342.02 47.28 340.40 47.67 338.76 47.97 C 338.44 48.15 337.79 48.50 337.46 48.68 C 335.80 47.27 334.05 45.95 332.28 44.69 C 334.03 44.01 335.82 43.44 337.63 42.92 C 337.65 40.89 337.68 38.87 337.74 36.84 C 338.30 35.59 338.87 34.34 339.29 33.03 C 338.17 32.54 337.00 32.15 335.85 31.75 C 335.04 33.37 333.53 34.19 331.91 34.78 C 330.80 33.95 329.64 33.22 328.43 32.58 C 327.77 33.11 326.46 34.16 325.81 34.69 C 325.44 33.95 324.71 32.46 324.35 31.72 C 330.41 32.38 336.29 30.47 342.35 30.76 C 344.04 29.56 345.80 28.45 347.57 27.36 C 347.16 26.85 346.32 25.85 345.91 25.34 C 347.15 21.72 347.45 17.87 346.78 14.10 Z" />
<path fill="#f5e5c1" opacity="1.00" d=" M 351.33 31.48 C 351.80 34.65 352.17 37.88 351.82 41.09 C 351.00 42.29 349.86 43.22 348.87 44.26 C 347.46 43.59 346.06 42.92 344.66 42.25 C 344.58 40.66 344.64 39.05 344.36 37.48 C 343.23 35.75 341.75 34.27 340.49 32.63 C 344.13 32.12 348.64 35.06 351.33 31.48 Z" />
<path fill="#f5e5c1" opacity="1.00" d=" M 370.29 81.37 C 374.31 76.64 377.07 69.60 383.74 68.18 C 392.21 72.64 400.34 77.76 408.70 82.43 C 411.31 84.02 414.21 85.23 416.50 87.29 C 416.84 90.00 417.03 93.00 415.30 95.31 C 406.62 108.79 398.95 122.88 390.69 136.61 C 382.80 148.38 374.61 159.95 366.66 171.68 C 362.95 177.49 357.23 181.52 352.56 186.48 C 347.75 191.04 343.85 196.69 338.05 200.10 C 325.08 208.26 311.83 215.97 298.55 223.62 C 289.70 227.52 280.54 230.69 271.60 234.39 C 269.04 219.76 266.11 205.19 264.05 190.49 C 276.84 182.78 289.71 175.20 302.58 167.63 C 305.67 165.77 308.98 164.16 311.56 161.57 C 314.69 158.32 318.73 156.11 321.62 152.62 C 326.03 147.66 329.90 142.26 334.45 137.42 C 338.51 132.46 343.36 128.08 346.52 122.44 C 354.46 108.76 362.07 94.88 370.29 81.37 Z" />
<path fill="#f5e5c1" opacity="1.00" d=" M 282.94 167.67 C 290.82 164.71 298.97 162.31 307.26 160.79 C 296.62 168.09 285.11 174.06 274.14 180.85 C 274.37 174.06 275.05 167.30 275.54 160.54 C 278.46 162.40 280.96 164.82 282.94 167.67 Z" />
<path fill="#f5e5c1" opacity="1.00" d=" M 381.20 170.24 C 385.71 166.51 391.93 165.86 397.41 167.56 C 394.97 186.20 393.01 204.93 390.26 223.51 C 381.13 235.84 370.96 247.43 361.44 259.49 C 359.68 261.58 357.99 264.38 354.90 264.36 C 338.60 265.60 322.32 267.46 305.98 268.08 C 296.35 266.48 287.67 261.76 278.66 258.26 C 280.78 253.03 282.50 247.65 284.51 242.38 C 285.39 239.74 288.31 238.81 290.39 237.31 C 308.91 225.68 327.57 214.27 345.93 202.40 C 349.86 196.33 355.65 191.79 360.36 186.36 C 365.94 179.39 374.23 175.58 381.20 170.24 Z" />
<path fill="#3e3e3e" opacity="1.00" d=" M 457.53 290.66 C 460.09 288.69 462.95 287.13 465.65 285.36 C 465.43 286.26 464.99 288.05 464.77 288.95 C 468.34 293.26 472.82 296.58 477.12 300.07 C 474.78 307.31 472.09 314.54 468.00 321.00 C 466.47 323.48 465.33 327.05 461.92 327.35 C 457.08 328.35 453.12 322.10 456.11 318.17 C 460.16 313.97 465.57 311.31 469.63 307.11 C 469.32 303.94 468.33 299.92 464.96 298.73 C 462.22 297.97 459.44 299.60 457.62 301.52 C 453.89 306.77 452.55 313.20 450.30 319.13 C 446.91 319.10 443.52 319.04 440.13 318.88 C 440.14 318.22 440.16 316.90 440.16 316.24 C 442.39 315.94 444.62 315.63 446.84 315.25 C 449.12 310.74 451.54 306.31 453.90 301.85 C 453.56 300.50 453.22 299.16 452.88 297.82 C 454.44 295.45 455.61 292.77 457.53 290.66 Z" />
<path fill="#f4722b" opacity="1.00" d=" M 67.98 325.62 C 100.68 325.35 133.39 325.56 166.09 325.52 C 165.95 331.32 165.90 337.13 166.08 342.93 C 139.89 343.05 113.71 342.98 87.52 342.94 C 87.49 385.32 87.48 427.70 87.52 470.09 C 132.85 469.91 178.18 470.13 223.50 469.95 C 223.64 475.16 223.27 480.37 222.85 485.56 C 171.37 485.43 119.89 485.50 68.42 485.53 C 67.41 475.38 68.38 465.17 67.97 455.00 C 67.99 441.64 68.05 428.29 67.91 414.93 C 49.91 415.02 31.91 415.08 13.91 414.93 C 14.11 408.46 14.09 401.99 13.91 395.52 C 31.95 395.48 49.99 395.51 68.04 395.50 C 67.97 372.21 67.98 348.91 67.98 325.62 Z" />
<path fill="#f5e5c1" opacity="1.00" d=" M 369.87 447.16 C 374.34 446.53 378.84 444.78 383.39 445.55 C 385.00 447.75 385.91 450.36 387.06 452.83 C 390.33 460.43 393.79 467.94 397.18 475.49 C 390.13 476.03 382.18 473.67 376.17 478.52 C 372.34 477.35 368.41 476.57 364.53 475.62 C 364.47 472.89 363.95 470.13 364.45 467.44 C 365.74 464.76 367.70 462.48 369.47 460.11 C 368.74 457.77 367.81 455.44 367.65 452.98 C 368.18 450.96 369.07 449.07 369.87 447.16 Z" />
<path fill="#f5e5c1" opacity="1.00" d=" M 391.46 478.60 C 396.46 477.33 401.70 477.38 406.84 477.54 C 408.26 480.29 409.19 483.26 409.76 486.31 C 400.01 486.12 390.28 485.65 380.54 485.31 C 384.03 482.87 387.45 480.17 391.46 478.60 Z" />
</svg>
