<?xml version="1.0" encoding="UTF-8" ?>
<!DOCTYPE svg PUBLIC "-//W3C//DTD SVG 1.1//EN" "http://www.w3.org/Graphics/SVG/1.1/DTD/svg11.dtd">
<svg width="512pt" height="512pt" viewBox="0 0 512 512" version="1.1" xmlns="http://www.w3.org/2000/svg">
<path fill="#3e3e3e" opacity="1.00" d=" M 0.00 0.00 L 512.00 0.00 L 512.00 512.00 L 0.00 512.00 L 0.00 0.00 Z" />
<path fill="#f5e5c1" opacity="1.00" d=" M 47.22 17.26 C 71.83 16.91 96.45 17.18 121.07 17.12 C 138.28 17.36 153.50 32.77 153.60 49.97 C 153.59 73.67 153.61 97.38 153.59 121.09 C 153.30 138.17 138.10 153.29 121.03 153.59 C 97.34 153.61 73.64 153.60 49.95 153.59 C 35.96 153.40 22.94 143.43 18.68 130.18 C 16.66 124.66 17.13 118.72 17.10 112.96 C 17.11 94.65 17.11 76.34 17.10 58.02 C 17.16 52.37 16.62 46.56 18.50 41.11 C 22.29 28.44 34.03 18.58 47.22 17.26 Z" />
<path fill="#f5e5c1" opacity="1.00" d=" M 217.27 17.33 C 241.85 16.81 266.47 17.25 291.07 17.11 C 308.18 16.99 323.57 31.92 324.24 48.97 C 324.30 72.99 324.25 97.02 324.26 121.04 C 323.99 138.05 308.99 153.10 292.02 153.58 C 268.00 153.61 243.97 153.62 219.95 153.57 C 202.97 153.08 187.97 137.99 187.74 120.98 C 187.71 97.99 187.77 75.00 187.71 52.01 C 186.83 35.13 200.53 19.21 217.27 17.33 Z" />
<path fill="#f5e5c1" opacity="1.00" d=" M 388.30 17.29 C 408.85 16.86 429.43 17.23 450.00 17.11 C 457.64 17.29 465.62 16.20 472.89 19.21 C 485.81 23.94 495.25 37.15 494.91 51.01 C 494.87 74.34 494.92 97.67 494.89 121.00 C 494.74 138.24 479.24 153.46 462.05 153.59 C 438.36 153.60 414.67 153.61 390.98 153.59 C 373.88 153.30 358.64 138.12 358.41 121.00 C 358.39 97.30 358.40 73.60 358.40 49.90 C 358.57 33.64 372.16 18.94 388.30 17.29 Z" />
<path fill="#3e3e3e" opacity="1.00" d=" M 62.08 25.08 C 64.06 22.86 67.31 22.99 70.03 22.87 C 80.35 22.90 90.67 22.88 101.00 22.88 C 103.47 23.00 106.33 22.93 108.24 24.78 C 110.32 26.54 110.46 29.46 110.47 31.99 C 110.44 41.41 110.45 50.83 110.44 60.25 C 119.63 60.21 128.82 60.27 138.01 60.21 C 140.67 60.22 143.76 60.15 145.73 62.28 C 147.79 64.26 147.73 67.33 147.77 69.97 C 147.72 80.32 147.73 90.66 147.76 101.01 C 147.74 103.64 147.67 106.69 145.55 108.58 C 143.56 110.57 140.55 110.44 137.95 110.48 C 128.77 110.41 119.60 110.48 110.42 110.42 C 110.40 120.62 110.56 130.82 110.37 141.01 C 110.44 144.58 107.37 147.62 103.83 147.64 C 92.92 147.91 81.99 147.63 71.07 147.77 C 68.10 147.70 64.58 148.06 62.28 145.76 C 60.16 143.78 60.22 140.69 60.21 138.03 C 60.26 128.83 60.22 119.63 60.25 110.43 C 50.82 110.46 41.39 110.43 31.95 110.47 C 29.66 110.42 27.05 110.40 25.28 108.70 C 23.00 106.86 22.98 103.69 22.88 101.01 C 22.88 90.68 22.90 80.34 22.87 70.01 C 23.00 67.32 22.87 64.12 25.04 62.14 C 26.85 60.35 29.55 60.22 31.94 60.21 C 41.38 60.25 50.81 60.23 60.24 60.24 C 60.23 50.80 60.25 41.35 60.22 31.90 C 60.22 29.54 60.36 26.90 62.08 25.08 Z" />
<path fill="#3e3e3e" opacity="1.00" d=" M 232.95 24.92 C 234.73 22.98 237.60 23.02 240.03 22.88 C 250.37 22.87 260.70 22.92 271.03 22.87 C 273.77 23.00 277.06 22.76 279.10 24.97 C 281.26 26.99 281.08 30.22 281.17 32.93 C 281.12 42.03 281.17 51.14 281.13 60.24 C 290.41 60.23 299.70 60.25 308.99 60.21 C 311.41 60.25 314.19 60.19 316.08 61.98 C 318.17 63.65 318.41 66.52 318.42 69.00 C 318.41 79.67 318.38 90.33 318.43 101.00 C 318.39 103.55 318.38 106.51 316.41 108.43 C 314.52 110.45 311.56 110.45 309.00 110.47 C 299.70 110.43 290.41 110.46 281.12 110.44 C 281.18 119.62 281.12 128.80 281.17 137.98 C 281.07 140.50 281.20 143.40 279.40 145.42 C 277.60 147.54 274.61 147.75 272.02 147.76 C 261.70 147.74 251.38 147.71 241.05 147.77 C 238.35 147.74 235.26 147.85 233.10 145.93 C 230.84 143.97 230.90 140.72 230.83 137.99 C 230.88 128.81 230.81 119.63 230.89 110.44 C 220.59 110.36 210.29 110.62 199.99 110.34 C 196.17 110.32 193.40 106.68 193.63 103.02 C 193.51 92.00 193.66 80.98 193.57 69.97 C 193.58 67.19 193.55 63.87 195.94 61.96 C 197.81 60.20 200.54 60.25 202.94 60.21 C 212.25 60.25 221.56 60.23 230.87 60.24 C 230.84 50.83 230.85 41.42 230.84 32.01 C 230.92 29.56 230.97 26.70 232.95 24.92 Z" />
<path fill="#3e3e3e" opacity="1.00" d=" M 403.29 25.26 C 405.13 23.00 408.28 22.98 410.95 22.88 C 421.31 22.88 431.68 22.90 442.04 22.87 C 444.74 22.99 447.95 22.88 449.92 25.08 C 451.65 26.91 451.78 29.58 451.79 31.97 C 451.75 41.39 451.77 50.82 451.76 60.24 C 461.84 60.28 471.93 60.15 482.01 60.28 C 485.70 60.14 489.03 63.18 488.95 66.93 C 489.36 77.61 488.96 88.32 489.14 99.01 C 489.00 102.31 489.50 106.39 486.67 108.75 C 484.87 110.44 482.23 110.42 479.93 110.47 C 470.53 110.44 461.14 110.44 451.74 110.45 C 451.73 120.61 451.86 130.76 451.70 140.91 C 451.79 144.58 448.62 147.72 444.97 147.66 C 432.98 147.83 420.97 147.74 408.98 147.71 C 405.19 147.93 401.53 144.95 401.63 141.02 C 401.43 130.83 401.59 120.62 401.58 110.42 C 392.37 110.48 383.16 110.41 373.95 110.48 C 371.38 110.44 368.41 110.54 366.46 108.58 C 364.32 106.68 364.25 103.61 364.24 100.98 C 364.26 90.65 364.28 80.33 364.23 70.00 C 364.27 67.34 364.20 64.22 366.31 62.24 C 368.26 60.16 371.30 60.23 373.93 60.21 C 383.14 60.26 392.35 60.22 401.57 60.25 C 401.54 50.82 401.57 41.39 401.53 31.96 C 401.57 29.66 401.60 27.05 403.29 25.26 Z" />
<path fill="#f4722b" opacity="1.00" d=" M 66.61 29.36 C 79.00 29.39 91.39 29.20 103.78 29.43 C 104.53 41.79 103.90 54.24 104.06 66.63 C 116.48 66.64 128.90 66.64 141.32 66.63 C 141.31 79.12 141.35 91.61 141.30 104.10 C 128.90 104.09 116.49 104.10 104.09 104.09 C 104.10 116.50 104.09 128.90 104.10 141.31 C 91.61 141.35 79.12 141.31 66.63 141.33 C 66.66 128.93 66.58 116.53 66.68 104.13 C 54.24 104.03 41.79 104.15 29.35 104.06 C 29.28 91.61 29.43 79.16 29.28 66.70 C 41.73 66.56 54.19 66.67 66.65 66.65 C 66.61 54.22 66.68 41.79 66.61 29.36 Z" />
<path fill="#f4722b" opacity="1.00" d=" M 237.29 29.34 C 249.76 29.34 262.24 29.34 274.71 29.34 C 274.66 41.76 274.73 54.19 274.66 66.61 C 287.09 66.68 299.52 66.61 311.96 66.65 C 311.89 79.13 312.01 91.62 311.91 104.11 C 299.51 104.06 287.10 104.13 274.69 104.07 C 274.72 116.47 274.63 128.87 274.75 141.27 C 262.26 141.38 249.77 141.31 237.28 141.31 C 237.34 128.90 237.30 116.49 237.31 104.07 C 224.90 104.12 212.49 104.08 200.08 104.10 C 199.98 91.61 200.14 79.13 200.04 66.65 C 212.47 66.60 224.91 66.68 237.34 66.61 C 237.26 54.19 237.34 41.76 237.29 29.34 Z" />
<path fill="#f4722b" opacity="1.00" d=" M 407.91 29.36 C 420.40 29.33 432.90 29.33 445.39 29.36 C 445.33 41.79 445.39 54.22 445.35 66.64 C 457.80 66.66 470.25 66.58 482.71 66.68 C 482.60 79.14 482.70 91.60 482.65 104.06 C 470.22 104.13 457.79 104.10 445.37 104.07 C 445.36 116.49 445.36 128.91 445.37 141.33 C 432.88 141.31 420.39 141.35 407.90 141.31 C 407.91 128.90 407.90 116.50 407.91 104.09 C 395.50 104.10 383.10 104.09 370.69 104.10 C 370.65 91.61 370.69 79.12 370.68 66.63 C 383.10 66.63 395.52 66.64 407.94 66.63 C 407.87 54.21 407.91 41.78 407.91 29.36 Z" />
<path fill="#f5e5c1" opacity="1.00" d=" M 43.38 188.57 C 45.87 187.99 48.44 187.70 51.00 187.72 C 74.67 187.79 98.33 187.65 122.00 187.79 C 139.33 188.62 154.23 204.59 153.62 221.99 C 153.56 245.37 153.64 268.75 153.58 292.13 C 153.08 309.12 137.93 323.99 120.94 324.26 C 99.63 324.28 78.31 324.25 56.99 324.27 C 52.22 324.27 47.36 324.55 42.70 323.27 C 27.96 319.68 16.51 305.28 17.09 289.99 C 17.14 266.63 17.07 243.27 17.12 219.91 C 17.55 205.14 29.04 191.76 43.38 188.57 Z" />
<path fill="#f5e5c1" opacity="1.00" d=" M 213.47 188.80 C 217.22 187.84 221.10 187.66 224.95 187.72 C 247.29 187.81 269.64 187.62 291.98 187.81 C 308.87 188.35 323.67 203.16 324.21 220.05 C 324.33 243.70 324.25 267.36 324.25 291.01 C 324.11 304.66 314.79 317.54 301.98 322.12 C 297.55 323.83 292.75 324.35 288.03 324.28 C 265.67 324.22 243.31 324.32 220.95 324.24 C 207.02 324.06 193.93 314.37 189.56 301.17 C 188.19 297.27 187.68 293.12 187.72 289.01 C 187.77 266.34 187.70 243.67 187.75 221.00 C 187.88 206.10 199.01 192.26 213.47 188.80 Z" />
<path fill="#f5e5c1" opacity="1.00" d=" M 383.47 188.88 C 388.19 187.49 393.15 187.70 398.01 187.73 C 419.66 187.77 441.31 187.68 462.96 187.77 C 479.67 188.41 494.46 203.15 494.88 219.91 C 494.91 243.98 494.91 268.04 494.88 292.10 C 494.47 309.21 479.03 324.17 461.96 324.26 C 438.30 324.26 414.65 324.28 391.00 324.26 C 374.00 323.96 358.86 309.03 358.42 292.03 C 358.37 268.34 358.42 244.65 358.39 220.97 C 358.40 206.25 369.31 192.59 383.47 188.88 Z" />
<path fill="#3e3e3e" opacity="1.00" d=" M 60.32 200.13 C 60.34 196.61 63.44 193.61 66.96 193.67 C 77.97 193.44 89.00 193.70 100.02 193.56 C 102.87 193.62 106.21 193.37 108.40 195.54 C 110.45 197.45 110.45 200.43 110.47 203.03 C 110.43 212.31 110.46 221.60 110.44 230.89 C 119.64 230.82 128.85 230.88 138.06 230.83 C 140.54 230.92 143.40 230.82 145.39 232.59 C 147.53 234.39 147.75 237.41 147.76 240.01 C 147.74 250.34 147.71 260.68 147.77 271.02 C 147.74 273.71 147.83 276.79 145.89 278.93 C 143.93 281.18 140.69 281.08 137.96 281.17 C 128.78 281.12 119.61 281.18 110.44 281.12 C 110.37 291.39 110.60 301.68 110.35 311.95 C 110.36 315.82 106.68 318.64 102.97 318.38 C 92.00 318.48 81.02 318.34 70.04 318.44 C 67.23 318.41 63.85 318.47 61.93 316.04 C 60.17 314.16 60.26 311.42 60.21 309.03 C 60.25 299.73 60.23 290.43 60.24 281.13 C 51.17 281.17 42.10 281.12 33.03 281.17 C 30.28 281.08 26.99 281.28 24.94 279.06 C 22.99 277.27 23.03 274.40 22.89 271.97 C 22.87 261.64 22.92 251.30 22.87 240.97 C 23.00 238.25 22.78 235.00 24.94 232.95 C 26.96 230.74 30.22 230.91 32.96 230.83 C 42.05 230.88 51.15 230.83 60.24 230.87 C 60.31 220.62 60.09 210.37 60.32 200.13 Z" />
<path fill="#3e3e3e" opacity="1.00" d=" M 232.76 195.78 C 234.53 193.71 237.47 193.60 239.99 193.57 C 250.67 193.60 261.36 193.60 272.04 193.57 C 274.54 193.60 277.43 193.72 279.21 195.74 C 281.10 197.63 281.08 200.50 281.17 202.98 C 281.14 212.28 281.16 221.57 281.13 230.86 C 290.40 230.84 299.67 230.86 308.93 230.83 C 311.43 230.91 314.32 230.88 316.22 232.79 C 318.27 234.55 318.40 237.47 318.43 239.98 C 318.40 250.64 318.40 261.29 318.43 271.95 C 318.40 274.48 318.29 277.44 316.22 279.22 C 314.34 281.10 311.48 281.08 309.01 281.17 C 299.71 281.14 290.42 281.15 281.13 281.14 C 281.16 290.43 281.14 299.73 281.17 309.02 C 281.08 311.48 281.11 314.31 279.26 316.20 C 277.48 318.28 274.52 318.40 271.99 318.43 C 261.34 318.40 250.69 318.39 240.04 318.43 C 237.51 318.40 234.56 318.30 232.77 316.24 C 230.90 314.36 230.91 311.51 230.84 309.04 C 230.86 299.74 230.84 290.44 230.87 281.14 C 221.57 281.15 212.27 281.14 202.97 281.17 C 200.49 281.08 197.62 281.09 195.75 279.19 C 193.73 277.43 193.60 274.54 193.57 272.06 C 193.60 261.36 193.60 250.65 193.57 239.95 C 193.60 237.44 193.73 234.54 195.79 232.78 C 197.65 230.90 200.50 230.92 202.96 230.83 C 212.26 230.86 221.56 230.85 230.87 230.86 C 230.84 221.57 230.86 212.28 230.83 203.00 C 230.92 200.52 230.89 197.67 232.76 195.78 Z" />
<path fill="#3e3e3e" opacity="1.00" d=" M 403.55 195.58 C 405.76 193.35 409.16 193.62 412.05 193.56 C 423.03 193.70 434.02 193.45 445.00 193.67 C 448.51 193.59 451.64 196.56 451.67 200.09 C 451.91 210.34 451.69 220.61 451.76 230.87 C 460.84 230.83 469.93 230.88 479.02 230.83 C 481.75 230.91 485.03 230.73 487.06 232.95 C 489.21 234.98 489.00 238.23 489.13 240.95 C 489.00 251.99 489.29 263.04 488.99 274.08 C 489.13 277.86 485.96 281.16 482.15 281.05 C 472.03 281.30 461.89 281.08 451.76 281.13 C 451.77 290.42 451.75 299.71 451.79 309.00 C 451.74 311.43 451.83 314.21 450.02 316.10 C 448.10 318.46 444.79 318.41 442.02 318.43 C 431.01 318.34 419.99 318.48 408.98 318.37 C 405.28 318.62 401.64 315.80 401.65 311.95 C 401.39 301.68 401.63 291.39 401.56 281.12 C 392.36 281.18 383.16 281.12 373.96 281.17 C 371.25 281.09 368.05 281.15 366.11 278.93 C 364.18 276.80 364.26 273.74 364.23 271.05 C 364.28 260.70 364.26 250.34 364.24 239.99 C 364.25 237.39 364.47 234.37 366.62 232.57 C 368.62 230.81 371.49 230.92 373.99 230.83 C 383.18 230.88 392.37 230.82 401.56 230.88 C 401.54 221.58 401.57 212.28 401.53 202.97 C 401.54 200.42 401.56 197.48 403.55 195.58 Z" />
<path fill="#f4722b" opacity="1.00" d=" M 66.65 199.93 C 79.13 200.16 91.61 200.00 104.10 200.10 C 104.08 212.50 104.12 224.90 104.07 237.30 C 116.48 237.30 128.89 237.33 141.30 237.28 C 141.36 249.75 141.31 262.23 141.32 274.70 C 128.91 274.68 116.49 274.69 104.07 274.70 C 104.12 287.10 104.09 299.51 104.09 311.92 C 91.61 312.01 79.13 311.82 66.65 312.08 C 66.63 299.62 66.61 287.16 66.66 274.70 C 54.22 274.68 41.77 274.70 29.33 274.69 C 29.35 262.23 29.35 249.77 29.33 237.31 C 41.75 237.32 54.18 237.27 66.61 237.34 C 66.68 224.87 66.60 212.40 66.65 199.93 Z" />
<path fill="#f4722b" opacity="1.00" d=" M 237.32 199.98 C 249.78 200.05 262.23 200.09 274.69 200.06 C 274.69 212.48 274.69 224.89 274.69 237.31 C 287.11 237.31 299.53 237.29 311.95 237.32 C 311.90 249.79 311.96 262.25 311.94 274.71 C 299.52 274.67 287.11 274.71 274.69 274.69 C 274.69 287.10 274.69 299.52 274.69 311.93 C 262.23 311.96 249.77 311.92 237.31 311.94 C 237.31 299.52 237.31 287.10 237.31 274.69 C 224.89 274.69 212.47 274.71 200.05 274.68 C 200.00 262.26 200.25 249.83 199.89 237.42 C 212.36 237.17 224.84 237.37 237.31 237.31 C 237.31 224.87 237.29 212.42 237.32 199.98 Z" />
<path fill="#f4722b" opacity="1.00" d=" M 407.90 200.09 C 420.39 199.89 432.87 200.12 445.36 200.05 C 445.34 212.45 445.43 224.85 445.31 237.25 C 457.76 237.38 470.22 237.27 482.67 237.31 C 482.65 249.77 482.65 262.23 482.67 274.69 C 470.25 274.67 457.82 274.73 445.40 274.66 C 445.32 287.09 445.39 299.52 445.36 311.95 C 432.88 311.81 420.41 312.11 407.94 311.93 C 407.88 299.52 407.90 287.11 407.93 274.70 C 395.52 274.71 383.12 274.65 370.72 274.73 C 370.63 262.25 370.68 249.77 370.69 237.29 C 383.10 237.33 395.51 237.30 407.93 237.30 C 407.87 224.90 407.92 212.49 407.90 200.09 Z" />
<path fill="#f5e5c1" opacity="1.00" d=" M 46.49 358.65 C 66.97 358.06 87.49 358.57 107.99 358.40 C 115.32 358.63 122.90 357.54 129.99 359.98 C 143.23 364.13 153.30 377.04 153.59 390.99 C 153.63 413.97 153.56 436.96 153.62 459.95 C 154.69 478.25 138.39 495.28 120.03 494.90 C 99.02 494.90 78.01 494.89 57.00 494.90 C 51.94 494.88 46.77 495.24 41.87 493.71 C 27.96 489.95 17.14 476.51 17.10 462.00 C 17.11 438.32 17.09 414.64 17.11 390.96 C 17.34 374.93 30.67 360.59 46.49 358.65 Z" />
<path fill="#f5e5c1" opacity="1.00" d=" M 218.34 358.52 C 242.56 358.24 266.79 358.48 291.02 358.40 C 308.38 358.33 323.99 373.62 324.26 390.98 C 324.27 414.66 324.25 438.34 324.27 462.02 C 324.18 479.13 309.10 494.50 291.99 494.87 C 267.98 494.91 243.97 494.92 219.96 494.87 C 202.85 494.46 187.79 479.08 187.73 461.98 C 187.75 438.29 187.72 414.60 187.74 390.92 C 188.06 374.50 202.02 359.89 218.34 358.52 Z" />
<path fill="#f5e5c1" opacity="1.00" d=" M 388.42 358.58 C 408.93 358.16 429.46 358.52 449.98 358.40 C 457.23 358.59 464.74 357.57 471.71 360.12 C 485.09 364.47 495.13 377.84 494.91 392.00 C 494.89 413.02 494.89 434.03 494.90 455.05 C 494.87 460.19 495.26 465.47 493.65 470.44 C 489.59 484.91 475.10 495.68 460.01 494.91 C 436.98 494.86 413.95 494.93 390.93 494.88 C 373.74 494.64 358.49 479.24 358.40 462.06 C 358.41 438.35 358.39 414.65 358.41 390.94 C 358.71 374.73 372.34 360.23 388.42 358.58 Z" />
<path fill="#3e3e3e" opacity="1.00" d=" M 62.24 366.28 C 64.22 364.21 67.29 364.27 69.93 364.23 C 80.98 364.32 92.03 364.18 103.08 364.30 C 106.87 364.09 110.51 367.11 110.38 371.05 C 110.56 381.22 110.40 391.40 110.42 401.58 C 119.63 401.52 128.84 401.58 138.05 401.52 C 140.61 401.56 143.58 401.46 145.54 403.41 C 147.92 405.56 147.73 409.04 147.77 411.97 C 147.64 422.95 147.88 433.94 147.66 444.91 C 147.72 448.55 144.63 451.76 140.96 451.70 C 130.79 451.88 120.61 451.71 110.43 451.75 C 110.46 461.16 110.43 470.57 110.47 479.98 C 110.42 482.28 110.41 484.91 108.74 486.71 C 106.89 489.00 103.70 489.02 101.01 489.12 C 90.69 489.12 80.37 489.10 70.05 489.13 C 67.33 489.00 64.08 489.15 62.09 486.93 C 60.34 485.10 60.22 482.42 60.21 480.05 C 60.25 470.61 60.23 461.19 60.24 451.76 C 50.47 451.75 40.70 451.79 30.92 451.76 C 28.16 451.84 25.06 450.84 23.79 448.18 C 22.86 445.92 22.91 443.41 22.86 441.01 C 22.92 431.00 22.87 420.99 22.88 410.99 C 22.98 408.31 23.00 405.15 25.27 403.30 C 27.06 401.58 29.70 401.57 32.02 401.53 C 41.43 401.56 50.84 401.54 60.25 401.56 C 60.21 392.36 60.26 383.15 60.21 373.95 C 60.22 371.31 60.17 368.25 62.24 366.28 Z" />
<path fill="#3e3e3e" opacity="1.00" d=" M 233.03 366.13 C 234.89 364.39 237.58 364.26 239.98 364.24 C 250.35 364.26 260.71 364.28 271.07 364.23 C 273.74 364.26 276.79 364.17 278.92 366.08 C 281.17 368.04 281.09 371.28 281.17 374.01 C 281.12 383.19 281.19 392.38 281.11 401.56 C 291.39 401.63 301.68 401.39 311.96 401.65 C 315.80 401.66 318.60 405.29 318.37 408.98 C 318.49 419.99 318.34 431.00 318.43 442.02 C 318.41 444.77 318.46 448.07 316.12 449.99 C 314.23 451.81 311.44 451.74 309.01 451.79 C 299.71 451.75 290.42 451.77 281.13 451.76 C 281.16 461.18 281.15 470.60 281.16 480.01 C 281.06 482.43 281.04 485.27 279.10 487.03 C 277.32 489.01 274.43 488.97 271.99 489.12 C 261.65 489.13 251.31 489.08 240.97 489.13 C 238.23 488.99 234.95 489.24 232.91 487.04 C 230.97 485.28 230.93 482.45 230.84 480.04 C 230.85 470.61 230.84 461.18 230.87 451.76 C 220.67 451.70 210.46 451.88 200.27 451.69 C 196.68 451.70 193.59 448.58 193.67 444.98 C 193.44 434.67 193.70 424.36 193.57 414.05 C 193.64 411.13 193.27 408.08 194.38 405.30 C 195.50 402.75 198.35 401.51 201.03 401.58 C 210.98 401.49 220.94 401.59 230.89 401.56 C 230.81 392.37 230.88 383.18 230.83 373.99 C 230.91 371.28 230.83 368.09 233.03 366.13 Z" />
<path fill="#3e3e3e" opacity="1.00" d=" M 403.42 366.44 C 405.31 364.30 408.37 364.25 411.01 364.24 C 421.70 364.28 432.39 364.25 443.08 364.25 C 445.63 364.24 448.58 364.59 450.23 366.81 C 451.89 368.81 451.73 371.56 451.79 374.01 C 451.74 383.19 451.78 392.38 451.75 401.57 C 460.85 401.53 469.94 401.58 479.04 401.52 C 481.65 401.58 484.67 401.37 486.73 403.30 C 489.01 405.16 489.01 408.34 489.12 411.03 C 489.12 421.35 489.10 431.68 489.13 442.01 C 488.99 444.70 489.12 447.91 486.94 449.88 C 485.11 451.66 482.41 451.78 480.01 451.79 C 470.59 451.75 461.17 451.77 451.76 451.76 C 451.77 461.18 451.75 470.61 451.79 480.03 C 451.78 482.41 451.66 485.08 449.92 486.92 C 447.96 489.12 444.74 489.00 442.04 489.13 C 431.70 489.10 421.36 489.11 411.02 489.12 C 408.34 489.02 405.16 489.02 403.29 486.75 C 401.60 484.96 401.57 482.33 401.53 480.03 C 401.57 470.60 401.54 461.18 401.56 451.75 C 392.02 451.77 382.48 451.76 372.95 451.78 C 370.60 451.77 367.96 451.56 366.27 449.72 C 363.98 447.46 364.29 443.98 364.23 441.04 C 364.37 430.14 364.10 419.23 364.34 408.33 C 364.34 404.75 367.35 401.56 370.98 401.63 C 381.17 401.43 391.38 401.60 401.58 401.58 C 401.52 392.38 401.58 383.18 401.52 373.99 C 401.55 371.40 401.45 368.42 403.42 366.44 Z" />
<path fill="#f4722b" opacity="1.00" d=" M 66.63 370.67 C 79.12 370.69 91.61 370.65 104.10 370.69 C 104.09 383.10 104.10 395.51 104.09 407.91 C 116.50 407.90 128.90 407.91 141.31 407.90 C 141.35 420.39 141.31 432.88 141.33 445.37 C 128.91 445.37 116.49 445.36 104.06 445.37 C 104.12 457.79 104.10 470.22 104.08 482.64 C 91.59 482.68 79.11 482.66 66.62 482.65 C 66.66 470.22 66.61 457.79 66.65 445.35 C 54.20 445.35 41.75 445.40 29.31 445.33 C 29.36 432.90 29.36 420.47 29.30 408.04 C 41.75 407.74 54.20 407.97 66.65 407.92 C 66.62 395.50 66.65 383.09 66.63 370.67 Z" />
<path fill="#f4722b" opacity="1.00" d=" M 237.27 370.71 C 249.75 370.64 262.24 370.68 274.72 370.69 C 274.66 383.10 274.70 395.52 274.70 407.93 C 287.10 407.87 299.51 407.92 311.92 407.90 C 312.03 420.38 311.79 432.87 312.03 445.35 C 299.58 445.41 287.12 445.31 274.66 445.39 C 274.74 457.81 274.66 470.24 274.71 482.66 C 262.24 482.66 249.76 482.66 237.29 482.66 C 237.36 470.25 237.23 457.83 237.36 445.42 C 224.89 445.27 212.42 445.43 199.95 445.34 C 200.22 432.86 199.95 420.38 200.11 407.90 C 212.51 407.92 224.91 407.87 237.31 407.93 C 237.29 395.52 237.35 383.12 237.27 370.71 Z" />
<path fill="#f4722b" opacity="1.00" d=" M 407.90 370.69 C 420.39 370.65 432.88 370.69 445.37 370.68 C 445.35 383.09 445.36 395.51 445.37 407.93 C 457.77 407.85 470.17 407.96 482.57 407.87 C 482.75 420.37 482.65 432.89 482.62 445.40 C 470.20 445.32 457.77 445.39 445.35 445.36 C 445.40 457.78 445.32 470.21 445.39 482.64 C 432.91 482.68 420.42 482.66 407.94 482.65 C 407.87 470.22 407.89 457.80 407.94 445.37 C 395.51 445.36 383.09 445.36 370.68 445.37 C 370.69 432.88 370.65 420.39 370.70 407.90 C 383.10 407.91 395.50 407.90 407.91 407.91 C 407.90 395.51 407.91 383.10 407.90 370.69 Z" />
</svg>
