<?xml version="1.0" encoding="UTF-8" ?>
<!DOCTYPE svg PUBLIC "-//W3C//DTD SVG 1.1//EN" "http://www.w3.org/Graphics/SVG/1.1/DTD/svg11.dtd">
<svg width="512pt" height="512pt" viewBox="0 0 512 512" version="1.1" xmlns="http://www.w3.org/2000/svg">
<path fill="#3e3e3e" opacity="1.00" d=" M 0.00 0.00 L 512.00 0.00 L 512.00 512.00 L 0.00 512.00 L 0.00 0.00 Z" />
<path fill="#f3722c" opacity="1.00" d=" M 256.11 11.72 C 271.97 63.32 288.02 114.85 303.86 166.45 C 357.99 166.48 412.12 166.67 466.25 166.69 C 425.49 195.06 384.76 223.49 344.01 251.88 C 340.45 254.40 336.76 256.76 333.39 259.54 C 348.00 303.66 362.23 347.90 376.75 392.05 C 378.98 399.33 381.67 406.47 383.56 413.86 C 340.36 381.34 297.41 348.48 254.12 316.09 C 223.54 338.58 192.99 361.09 162.41 383.58 C 149.36 393.01 136.63 402.93 123.37 412.05 C 140.73 360.71 158.45 309.49 175.74 258.13 C 133.13 227.82 90.76 197.18 48.18 166.83 C 47.13 166.04 46.18 165.14 45.24 164.24 C 64.81 164.21 84.39 164.53 103.96 164.54 C 114.32 165.01 124.70 164.21 135.02 165.31 C 159.01 165.08 183.04 165.96 206.99 165.38 C 207.65 161.54 209.07 157.90 210.29 154.21 C 223.93 111.72 237.78 69.29 251.42 26.80 C 253.07 21.80 254.87 16.84 256.11 11.72 Z" />
<path fill="#3e3e3e" opacity="1.00" d=" M 224.20 190.39 C 234.56 158.70 244.56 126.89 255.11 95.26 C 265.23 126.98 274.84 158.87 284.72 190.67 C 318.32 190.76 351.93 190.74 385.54 190.83 C 358.15 210.15 330.55 229.16 303.11 248.40 C 313.44 280.33 323.95 312.21 334.29 344.14 C 331.50 342.55 328.98 340.55 326.47 338.58 C 302.29 320.24 278.03 302.00 253.89 283.61 C 226.81 303.51 199.85 323.61 172.61 343.30 C 183.37 311.44 194.26 279.63 205.17 247.81 C 178.00 228.29 150.82 208.76 123.58 189.35 C 157.12 189.34 190.66 190.01 224.20 190.39 Z" />
<path fill="#f5e5c1" opacity="1.00" d=" M 158.90 393.25 C 221.07 387.33 283.80 387.15 346.02 392.63 C 349.99 392.63 352.05 396.69 355.29 398.36 C 329.63 395.47 303.80 394.41 278.01 393.60 C 255.35 393.84 232.67 393.10 210.03 394.13 C 190.29 394.65 170.58 396.14 150.90 397.83 C 153.39 396.06 155.59 393.30 158.90 393.25 Z" />
<path fill="#f5e5c1" opacity="1.00" d=" M 145.95 402.86 C 195.10 397.45 244.63 396.29 294.00 398.16 C 316.94 399.14 339.86 400.80 362.64 403.61 C 365.10 406.06 368.16 407.74 370.96 409.75 C 331.70 402.88 291.78 400.05 251.95 400.50 C 214.16 400.09 176.25 402.34 138.93 408.53 C 137.93 408.61 136.94 408.63 135.94 408.59 C 139.20 406.60 141.89 403.07 145.95 402.86 Z" />
<path fill="#f5e5c1" opacity="1.00" d=" M 383.00 396.72 C 407.12 400.32 431.22 404.56 454.58 411.67 C 468.90 416.22 483.44 421.31 495.58 430.41 C 500.70 434.46 506.10 439.93 505.94 446.95 C 506.45 455.16 499.68 461.23 493.65 465.68 C 478.36 476.06 460.41 481.48 442.76 486.31 C 395.18 498.47 346.02 502.94 297.08 505.19 C 254.06 506.58 210.92 506.07 168.03 502.21 C 131.70 498.91 95.32 493.97 60.18 483.89 C 45.58 479.48 30.87 474.45 18.17 465.78 C 12.45 461.69 6.62 456.31 5.60 448.98 C 4.77 441.96 9.49 435.84 14.59 431.61 C 24.28 423.73 36.00 418.94 47.65 414.77 C 72.28 406.30 97.96 401.34 123.68 397.54 C 123.16 398.80 122.65 400.07 122.13 401.34 C 103.54 403.96 84.98 407.30 67.01 412.83 C 58.83 415.51 50.52 418.42 43.52 423.55 C 40.02 426.21 36.38 430.12 37.32 434.91 C 38.45 439.98 43.11 443.19 47.30 445.72 C 58.70 452.16 71.51 455.49 84.14 458.57 C 128.71 468.65 174.51 471.22 220.01 473.44 C 260.03 474.87 300.09 473.15 339.99 469.93 C 365.04 467.83 390.06 464.76 414.65 459.45 C 425.56 457.00 436.47 454.20 446.83 449.91 C 452.42 447.52 458.11 444.80 462.38 440.36 C 465.16 437.54 466.68 433.00 464.50 429.37 C 460.86 423.21 453.95 420.09 447.70 417.23 C 428.05 409.18 406.97 405.49 386.12 402.10 C 383.44 401.98 383.86 398.55 383.00 396.72 Z" />
<path fill="#f5e5c1" opacity="1.00" d=" M 224.46 404.64 C 251.96 403.94 279.51 404.08 306.95 406.33 C 329.23 408.06 351.50 410.71 373.29 415.75 C 383.23 418.15 393.23 420.88 402.32 425.67 C 406.26 427.88 410.51 430.51 412.26 434.91 C 413.69 439.09 410.55 442.99 407.38 445.33 C 400.18 450.59 391.56 453.38 383.11 455.92 C 364.21 461.24 344.72 464.09 325.23 466.24 C 294.59 469.60 263.72 469.60 232.93 469.48 C 218.09 468.68 203.21 468.81 188.41 467.36 C 163.48 464.97 138.40 461.90 114.40 454.47 C 107.10 452.00 99.61 449.29 93.65 444.26 C 90.90 441.91 88.47 437.93 90.29 434.32 C 92.73 429.52 97.71 426.77 102.34 424.46 C 113.93 419.06 126.47 416.16 138.94 413.60 C 167.13 408.14 195.81 405.83 224.46 404.64 Z" />
<path fill="#3e3e3e" opacity="1.00" d=" M 222.47 408.67 C 236.50 406.45 250.76 406.06 264.93 406.67 C 276.18 407.34 287.56 408.34 298.32 411.86 C 304.67 413.74 308.98 419.00 314.03 422.93 C 316.31 424.23 316.15 427.65 313.75 428.73 C 306.62 432.91 298.12 433.72 290.11 435.02 C 262.52 438.17 234.40 438.20 206.99 433.49 C 201.15 432.00 194.01 431.40 190.31 426.02 C 193.46 421.29 198.08 417.86 202.75 414.75 C 208.69 411.09 215.71 409.88 222.47 408.67 Z" />
<path fill="#f5e5c1" opacity="1.00" d=" M 66.95 419.92 C 83.95 412.71 102.29 409.49 120.38 406.32 C 119.74 408.40 119.14 410.49 118.65 412.61 C 106.76 415.58 94.69 418.82 84.04 425.08 C 80.02 427.62 75.64 430.91 74.69 435.88 C 73.92 440.84 77.87 444.74 81.50 447.44 C 87.74 451.83 94.93 454.75 102.25 456.77 C 95.72 456.18 89.44 454.20 83.13 452.53 C 74.65 450.02 66.04 447.29 58.62 442.35 C 54.95 439.85 50.76 435.57 52.79 430.74 C 55.61 425.23 61.61 422.45 66.95 419.92 Z" />
<path fill="#f5e5c1" opacity="1.00" d=" M 386.34 407.07 C 402.71 409.86 419.16 413.15 434.59 419.42 C 439.84 421.76 445.41 424.33 448.94 429.07 C 450.76 431.41 450.95 434.87 449.21 437.33 C 446.23 441.76 441.23 444.23 436.55 446.49 C 424.28 451.96 411.08 454.90 398.00 457.69 C 406.47 454.86 415.21 451.95 422.29 446.30 C 425.57 443.67 428.57 439.61 427.47 435.17 C 426.07 430.25 421.57 427.09 417.41 424.57 C 408.42 419.48 398.45 416.40 388.48 413.87 C 387.79 411.59 387.06 409.33 386.34 407.07 Z" />
<path fill="#f3722c" opacity="1.00" d=" M 243.40 410.57 C 259.32 410.03 275.43 410.48 291.05 413.81 C 295.25 414.96 300.05 415.80 303.12 419.15 C 304.69 421.02 302.40 422.90 300.92 423.84 C 296.43 426.37 291.25 427.20 286.27 428.25 C 271.02 430.86 255.47 431.09 240.05 430.39 C 230.34 429.72 220.54 428.75 211.20 425.91 C 208.40 424.85 204.99 423.93 203.55 421.04 C 203.60 417.82 207.36 416.74 209.80 415.66 C 220.59 412.01 232.10 411.23 243.40 410.57 Z" />
</svg>
