<?xml version="1.0" encoding="UTF-8" ?>
<!DOCTYPE svg PUBLIC "-//W3C//DTD SVG 1.1//EN" "http://www.w3.org/Graphics/SVG/1.1/DTD/svg11.dtd">
<svg width="512pt" height="512pt" viewBox="0 0 512 512" version="1.1" xmlns="http://www.w3.org/2000/svg">
<path fill="#3e3e3e" opacity="1.00" d=" M 0.00 0.00 L 425.15 0.00 L 423.52 1.04 C 431.14 2.14 438.84 2.04 446.49 2.63 C 446.52 1.97 446.57 0.66 446.60 0.00 L 512.00 0.00 L 512.00 512.00 L 0.00 512.00 L 0.00 0.00 Z" />
<path fill="#f5e5c1" opacity="1.00" d=" M 425.15 0.00 L 446.60 0.00 C 446.57 0.66 446.52 1.97 446.49 2.63 C 438.84 2.04 431.14 2.14 423.52 1.04 L 425.15 0.00 Z" />
<path fill="#f5e5c1" opacity="1.00" d=" M 419.23 27.70 C 426.44 27.35 433.59 28.59 440.79 28.41 C 438.23 38.51 435.92 48.68 433.36 58.79 C 426.27 58.01 419.13 58.16 412.02 58.15 C 414.18 47.95 416.88 37.86 419.23 27.70 Z" />
<path fill="#f5e5c1" opacity="1.00" d=" M 132.83 41.45 C 141.56 39.18 150.43 37.45 159.31 35.87 C 158.98 41.04 158.44 46.20 158.34 51.39 C 152.91 52.13 147.55 54.29 142.12 54.35 C 138.77 50.24 135.81 45.82 132.83 41.45 Z" />
<path fill="#f5e5c1" opacity="1.00" d=" M 187.12 52.42 C 187.71 46.74 187.44 40.99 188.29 35.33 C 196.90 37.06 205.69 37.92 214.20 40.13 C 212.19 46.12 209.39 51.79 207.05 57.64 C 200.84 54.45 193.89 53.62 187.12 52.42 Z" />
<path fill="#f5e5c1" opacity="1.00" d=" M 235.13 70.21 C 239.05 64.54 242.70 58.69 246.72 53.08 C 254.50 57.19 259.05 65.17 265.19 71.20 C 258.47 74.62 251.58 77.67 244.85 81.07 C 241.51 77.55 238.25 73.93 235.13 70.21 Z" />
<path fill="#f5e5c1" opacity="1.00" d=" M 86.95 70.99 C 92.91 64.07 101.65 60.63 109.05 55.55 C 112.10 59.76 115.12 63.99 118.16 68.20 C 113.39 71.78 107.05 73.63 103.89 79.02 C 98.21 76.42 92.57 73.72 86.95 70.99 Z" />
<path fill="#f5e5c1" opacity="1.00" d=" M 397.73 105.93 C 400.65 98.58 404.29 91.45 405.77 83.61 C 412.76 84.71 419.76 85.83 426.78 86.77 C 424.23 95.32 420.24 103.35 417.06 111.67 C 410.59 109.83 404.20 107.74 397.73 105.93 Z" />
<path fill="#f5e5c1" opacity="1.00" d=" M 65.42 106.55 C 67.04 99.52 71.99 94.08 75.74 88.13 C 81.12 90.71 86.51 93.27 91.88 95.85 C 89.56 99.85 87.32 103.89 85.08 107.94 C 78.51 107.69 71.97 107.06 65.42 106.55 Z" />
<path fill="#f5e5c1" opacity="1.00" d=" M 258.09 99.00 C 265.07 95.91 272.19 93.16 279.15 90.04 C 282.44 98.68 286.05 107.20 289.02 115.96 C 281.59 117.69 274.28 119.86 266.89 121.71 C 263.98 114.13 261.07 106.55 258.09 99.00 Z" />
<path fill="#f5e5c1" opacity="1.00" d=" M 60.02 141.60 C 58.24 136.30 60.50 130.91 61.53 125.70 C 67.69 125.71 73.85 126.07 79.98 126.70 C 80.75 132.84 82.06 138.91 82.84 145.05 C 76.16 146.51 69.58 148.42 62.90 149.91 C 61.50 147.31 60.89 144.39 60.02 141.60 Z" />
<path fill="#f5e5c1" opacity="1.00" d=" M 381.95 140.93 C 384.07 138.85 385.38 136.17 386.59 133.50 C 392.86 135.78 399.18 137.88 405.48 140.05 C 403.67 142.67 401.68 145.17 399.45 147.45 C 393.99 153.07 388.84 158.99 383.37 164.59 C 378.29 161.59 372.94 159.06 367.88 156.03 C 372.53 150.97 377.17 145.89 381.95 140.93 Z" />
<path fill="#f5e5c1" opacity="1.00" d=" M 273.35 142.64 C 280.69 140.40 288.09 138.39 295.48 136.34 C 296.22 146.03 297.33 155.70 297.76 165.42 C 290.31 165.71 282.90 166.57 275.44 166.66 C 274.66 158.66 274.07 150.64 273.35 142.64 Z" />
<path fill="#f5e5c1" opacity="1.00" d=" M 68.92 170.07 C 76.12 167.79 83.27 165.37 90.47 163.09 C 91.65 168.94 95.71 173.33 99.35 177.80 C 96.34 181.30 93.57 185.04 90.18 188.18 C 87.66 189.74 84.73 190.43 81.98 191.47 C 77.05 184.72 70.10 178.82 68.92 170.07 Z" />
<path fill="#f5e5c1" opacity="1.00" d=" M 351.48 173.72 C 355.95 177.40 360.58 180.90 364.92 184.74 C 362.37 186.72 359.67 188.54 356.71 189.87 C 347.67 194.04 338.59 198.12 329.56 202.32 C 328.67 197.09 327.55 191.90 327.12 186.61 C 333.25 183.97 339.28 181.10 345.38 178.38 C 347.81 177.42 349.69 175.56 351.48 173.72 Z" />
<path fill="#f5e5c1" opacity="1.00" d=" M 276.71 191.38 C 283.32 189.89 290.03 188.89 296.68 187.56 C 296.49 195.88 296.38 204.21 296.34 212.53 C 289.51 213.63 282.64 214.42 275.80 215.38 C 275.17 207.36 275.37 199.31 276.71 191.38 Z" />
<path fill="#f5e5c1" opacity="1.00" d=" M 103.88 211.12 C 107.32 205.72 111.10 200.56 114.75 195.31 C 122.63 198.31 130.51 201.37 138.47 204.16 C 136.03 209.85 133.12 215.32 130.53 220.94 C 121.56 217.90 112.80 214.29 103.88 211.12 Z" />
<path fill="#f5e5c1" opacity="1.00" d=" M 167.17 212.06 C 175.37 213.24 183.21 216.44 191.53 216.78 C 191.73 221.89 191.76 227.00 191.77 232.12 C 186.85 232.04 181.92 232.35 177.01 231.93 C 172.78 231.38 168.67 230.16 164.52 229.23 C 165.53 223.52 166.34 217.79 167.17 212.06 Z" />
<path fill="#f5e5c1" opacity="1.00" d=" M 218.73 217.20 C 219.11 214.66 222.06 213.91 224.23 213.73 C 231.86 213.25 239.50 213.12 247.14 213.19 C 247.51 218.70 248.27 224.18 248.73 229.69 C 245.48 230.27 242.18 230.38 238.89 230.56 C 232.05 230.97 225.21 232.45 218.36 231.53 C 218.04 226.76 218.12 221.95 218.73 217.20 Z" />
<path fill="#f5e5c1" opacity="1.00" d=" M 275.67 227.78 C 281.80 227.37 287.83 226.17 293.92 225.46 C 292.95 230.92 292.88 236.62 290.78 241.83 C 289.16 246.06 287.46 250.26 285.93 254.52 C 280.57 254.65 275.22 254.23 269.90 253.66 C 268.49 253.54 267.28 252.70 266.24 251.80 C 265.77 249.12 267.33 246.67 268.21 244.25 C 270.70 238.76 272.30 232.83 275.67 227.78 Z" />
<path fill="#f5e5c1" opacity="1.00" d=" M 243.95 305.26 C 248.51 297.15 250.90 288.06 254.64 279.56 C 261.40 280.73 268.21 281.55 274.97 282.68 C 270.96 292.41 268.23 302.82 262.10 311.52 C 256.07 309.39 249.97 307.43 243.95 305.26 Z" />
<path fill="#f5e5c1" opacity="1.00" d=" M 214.85 353.03 C 219.22 345.07 224.25 337.48 228.94 329.71 C 235.21 331.49 241.47 333.26 247.78 334.91 C 243.19 342.29 238.76 349.76 234.12 357.11 C 227.70 355.72 221.31 354.21 214.85 353.03 Z" />
<path fill="#f5e5c1" opacity="1.00" d=" M 186.21 399.29 C 191.18 391.77 195.34 383.67 200.62 376.39 C 207.10 377.51 213.49 379.08 219.91 380.51 C 215.12 388.03 210.54 395.68 205.88 403.28 C 199.33 401.93 192.73 400.79 186.21 399.29 Z" />
<path fill="#f5e5c1" opacity="1.00" d=" M 113.97 423.93 C 116.21 422.18 118.90 419.76 121.97 420.84 C 130.05 422.88 137.97 425.51 145.87 428.15 C 145.41 428.49 144.49 429.15 144.02 429.48 C 136.98 428.35 130.00 425.66 122.80 426.32 C 117.16 426.68 113.40 431.81 112.48 437.00 C 112.49 440.29 115.01 442.97 117.91 444.18 C 122.37 444.66 126.78 443.44 131.22 443.12 C 130.56 444.28 129.91 445.43 129.25 446.60 C 124.14 447.59 119.11 449.11 113.93 449.71 C 110.12 447.20 108.75 442.36 108.75 438.03 C 108.78 432.96 109.82 427.31 113.97 423.93 Z" />
<path fill="#f5e5c1" opacity="1.00" d=" M 147.80 430.79 C 153.85 426.18 162.15 426.22 169.26 427.86 C 175.67 429.67 180.46 435.71 180.43 442.46 C 187.51 446.26 195.61 448.78 201.10 454.98 C 204.52 458.26 204.57 463.76 202.80 467.90 C 198.10 477.02 187.40 480.70 177.93 482.48 C 175.69 482.99 172.23 482.03 172.81 479.12 C 173.27 473.39 172.10 467.76 169.87 462.51 C 166.16 465.87 161.12 466.60 156.42 467.63 C 155.81 474.21 151.52 479.90 145.77 482.94 C 140.01 484.66 133.01 485.13 128.23 480.82 C 123.62 478.36 122.43 472.84 122.26 468.05 C 122.13 464.36 124.18 461.09 126.54 458.44 C 128.61 456.13 131.80 455.56 134.55 454.43 C 135.24 449.60 135.54 444.46 138.30 440.26 C 140.45 436.22 144.19 433.45 147.80 430.79 Z" />
<path fill="#3e3e3e" opacity="1.00" d=" M 164.84 445.72 C 167.43 443.01 171.85 441.86 175.21 443.83 C 180.18 446.71 185.52 449.21 189.60 453.37 C 193.57 456.98 197.14 461.49 197.71 467.02 C 193.27 472.57 186.60 477.94 179.01 476.18 C 176.74 474.14 177.59 470.75 176.90 468.09 C 174.91 459.71 170.21 452.34 164.84 445.72 Z" />
</svg>
