<?xml version="1.0" encoding="UTF-8" ?>
<!DOCTYPE svg PUBLIC "-//W3C//DTD SVG 1.1//EN" "http://www.w3.org/Graphics/SVG/1.1/DTD/svg11.dtd">
<svg width="512pt" height="512pt" viewBox="0 0 512 512" version="1.1" xmlns="http://www.w3.org/2000/svg">
<path fill="#3e3e3e" opacity="1.00" d=" M 0.00 0.00 L 326.75 0.00 C 299.45 13.15 277.04 36.23 264.96 64.06 C 256.19 83.60 253.02 105.31 254.45 126.61 C 260.19 122.96 266.40 120.16 272.79 117.89 C 282.31 113.50 291.67 108.73 301.03 104.01 C 302.92 103.14 303.74 101.15 304.60 99.40 C 312.46 81.54 327.57 67.08 345.64 59.77 C 358.32 54.47 372.40 53.04 385.97 54.79 C 402.31 57.08 417.86 64.76 429.53 76.44 C 441.34 88.06 449.14 103.63 451.50 120.03 C 454.50 139.74 449.44 160.55 437.71 176.68 C 429.26 188.45 417.38 197.73 403.92 203.09 C 399.50 204.92 394.52 205.59 390.67 208.63 C 376.65 219.21 362.32 229.37 348.30 239.96 C 372.18 246.36 397.86 246.09 421.45 238.60 C 449.32 229.92 473.98 211.38 490.01 186.97 C 506.52 162.17 513.88 131.49 510.55 101.89 C 507.41 71.69 493.02 42.88 470.88 22.12 C 461.24 13.22 450.38 5.53 438.46 0.00 L 512.00 0.00 L 512.00 512.00 L 87.16 512.00 C 82.29 495.14 79.21 477.70 72.34 461.48 C 65.28 442.19 57.23 423.28 50.04 404.03 C 47.72 397.42 44.41 391.10 43.16 384.15 C 44.64 385.60 46.11 387.12 47.11 388.96 C 66.50 425.56 86.11 462.04 105.52 498.63 C 106.20 499.84 106.99 501.09 108.36 501.63 C 113.40 504.04 118.67 505.94 123.74 508.30 C 129.05 503.77 133.85 498.61 139.42 494.43 C 148.71 492.25 158.79 495.51 167.93 492.10 C 179.46 488.13 191.06 484.38 202.58 480.38 C 207.23 478.77 211.40 476.10 215.68 473.74 C 228.50 466.57 241.31 459.38 254.14 452.24 C 259.00 449.49 263.40 446.05 267.99 442.91 C 283.83 431.79 299.66 420.66 315.53 409.58 C 319.07 407.16 320.97 403.01 322.09 399.01 C 323.43 390.07 322.23 380.97 319.87 372.31 C 318.58 367.74 316.20 363.54 315.21 358.88 C 314.44 352.49 310.27 347.34 307.46 341.75 C 305.18 341.37 302.92 340.94 300.67 340.47 C 298.18 341.94 295.72 343.45 293.31 345.04 C 297.74 340.20 301.89 335.10 306.11 330.08 C 309.70 326.11 308.21 320.22 307.10 315.56 C 303.56 306.23 299.66 297.02 296.09 287.70 C 294.92 284.47 292.42 282.06 290.29 279.47 C 287.51 278.75 284.73 277.87 281.85 277.74 C 276.53 278.87 271.74 281.59 266.81 283.76 C 264.42 280.52 262.50 276.98 260.58 273.46 C 256.22 265.48 249.03 259.60 244.01 252.09 C 249.46 255.83 254.20 260.50 259.24 264.77 C 262.95 268.24 267.90 270.40 272.94 270.87 C 277.03 270.17 280.76 268.19 284.67 266.86 C 288.74 265.22 293.09 264.16 296.88 261.88 C 314.51 249.62 331.60 236.62 348.85 223.85 C 361.36 214.67 373.82 205.42 386.28 196.18 C 391.16 192.46 396.61 189.28 400.27 184.23 C 404.34 178.84 410.64 174.34 411.15 167.07 C 412.07 163.64 409.28 160.94 407.77 158.18 C 402.35 149.87 397.71 141.02 391.91 132.98 C 386.01 133.41 379.39 132.63 374.33 136.30 C 365.60 141.93 356.62 147.17 347.94 152.89 C 330.86 164.82 313.76 176.74 296.70 188.71 C 290.00 193.52 282.63 197.29 275.69 201.75 C 257.74 212.31 239.76 222.84 222.39 234.35 C 220.55 235.75 218.15 236.48 216.02 235.21 C 214.48 231.49 214.30 227.37 213.32 223.48 C 211.97 214.65 204.19 208.40 203.36 199.38 C 204.80 199.48 206.60 198.96 207.59 200.37 C 212.59 205.30 216.62 211.62 223.13 214.72 C 228.86 215.50 234.99 215.93 240.47 213.71 C 247.91 210.94 255.62 208.63 262.37 204.33 C 273.48 197.46 285.13 191.39 295.59 183.50 C 315.10 169.40 334.51 155.14 354.03 141.05 C 358.20 138.56 358.14 133.15 359.32 128.98 C 357.23 123.68 353.72 119.05 351.15 113.98 C 348.90 109.48 345.71 105.08 340.91 103.12 C 337.23 102.06 333.01 101.70 329.56 103.66 C 311.94 112.32 294.67 121.68 276.85 129.92 C 270.75 132.00 264.99 134.92 259.58 138.41 C 240.01 148.64 221.01 159.91 201.73 170.69 C 195.85 174.16 189.67 177.16 184.09 181.10 C 180.19 183.86 175.33 184.49 170.95 186.16 C 163.81 188.61 158.13 193.78 152.13 198.15 C 147.09 201.77 142.70 206.16 138.07 210.27 C 135.61 208.28 133.33 206.01 130.57 204.45 C 123.97 203.17 117.65 205.99 111.41 207.68 C 103.40 210.20 94.81 211.79 88.01 217.05 C 77.26 223.25 67.32 230.70 57.38 238.10 C 58.30 243.77 60.18 249.27 60.68 255.00 C 60.30 262.38 58.43 269.62 58.11 277.02 C 57.64 281.33 57.95 285.76 56.93 290.00 C 52.26 300.38 44.37 308.85 38.78 318.69 C 36.20 322.86 38.19 328.57 35.08 332.38 C 31.38 332.45 27.80 331.01 24.10 331.26 C 21.93 332.26 21.08 335.35 22.56 337.29 C 26.19 343.66 30.08 349.87 33.76 356.22 C 35.56 359.37 36.90 362.83 37.10 366.49 C 30.73 360.66 25.27 353.92 18.96 348.05 C 17.18 346.07 14.91 348.27 13.45 349.48 C 9.24 353.24 4.48 356.27 0.00 359.68 L 0.00 0.00 Z" />
<path fill="#f4722b" opacity="1.00" d=" M 326.75 0.00 L 438.46 0.00 C 450.38 5.53 461.24 13.22 470.88 22.12 C 493.02 42.88 507.41 71.69 510.55 101.89 C 513.88 131.49 506.52 162.17 490.01 186.97 C 473.98 211.38 449.32 229.92 421.45 238.60 C 397.86 246.09 372.18 246.36 348.30 239.96 C 362.32 229.37 376.65 219.21 390.67 208.63 C 394.52 205.59 399.50 204.92 403.92 203.09 C 417.38 197.73 429.26 188.45 437.71 176.68 C 449.44 160.55 454.50 139.74 451.50 120.03 C 449.14 103.63 441.34 88.06 429.53 76.44 C 417.86 64.76 402.31 57.08 385.97 54.79 C 372.40 53.04 358.32 54.47 345.64 59.77 C 327.57 67.08 312.46 81.54 304.60 99.40 C 303.74 101.15 302.92 103.14 301.03 104.01 C 291.67 108.73 282.31 113.50 272.79 117.89 C 266.40 120.16 260.19 122.96 254.45 126.61 C 253.02 105.31 256.19 83.60 264.96 64.06 C 277.04 36.23 299.45 13.15 326.75 0.00 Z" />
<path fill="#f5e5c1" opacity="1.00" d=" M 329.56 103.66 C 333.01 101.70 337.23 102.06 340.91 103.12 C 345.71 105.08 348.90 109.48 351.15 113.98 C 353.72 119.05 357.23 123.68 359.32 128.98 C 358.14 133.15 358.20 138.56 354.03 141.05 C 334.51 155.14 315.10 169.40 295.59 183.50 C 285.13 191.39 273.48 197.46 262.37 204.33 C 255.62 208.63 247.91 210.94 240.47 213.71 C 234.99 215.93 228.86 215.50 223.13 214.72 C 216.62 211.62 212.59 205.30 207.59 200.37 C 206.60 198.96 204.80 199.48 203.36 199.38 C 204.19 208.40 211.97 214.65 213.32 223.48 C 214.30 227.37 214.48 231.49 216.02 235.21 C 218.15 236.48 220.55 235.75 222.39 234.35 C 239.76 222.84 257.74 212.31 275.69 201.75 C 282.63 197.29 290.00 193.52 296.70 188.71 C 313.76 176.74 330.86 164.82 347.94 152.89 C 356.62 147.17 365.60 141.93 374.33 136.30 C 379.39 132.63 386.01 133.41 391.91 132.98 C 397.71 141.02 402.35 149.87 407.77 158.18 C 409.28 160.94 412.07 163.64 411.15 167.07 C 410.64 174.34 404.34 178.84 400.27 184.23 C 396.61 189.28 391.16 192.46 386.28 196.18 C 373.82 205.42 361.36 214.67 348.85 223.85 C 331.60 236.62 314.51 249.62 296.88 261.88 C 293.09 264.16 288.74 265.22 284.67 266.86 C 280.76 268.19 277.03 270.17 272.94 270.87 C 267.90 270.40 262.95 268.24 259.24 264.77 C 254.20 260.50 249.46 255.83 244.01 252.09 C 249.03 259.60 256.22 265.48 260.58 273.46 C 262.50 276.98 264.42 280.52 266.81 283.76 C 271.74 281.59 276.53 278.87 281.85 277.74 C 284.73 277.87 287.51 278.75 290.29 279.47 C 292.42 282.06 294.92 284.47 296.09 287.70 C 299.66 297.02 303.56 306.23 307.10 315.56 C 308.21 320.22 309.70 326.11 306.11 330.08 C 301.89 335.10 297.74 340.20 293.31 345.04 C 295.72 343.45 298.18 341.94 300.67 340.47 C 302.92 340.94 305.18 341.37 307.46 341.75 C 310.27 347.34 314.44 352.49 315.21 358.88 C 316.20 363.54 318.58 367.74 319.87 372.31 C 322.23 380.97 323.43 390.07 322.09 399.01 C 320.97 403.01 319.07 407.16 315.53 409.58 C 299.66 420.66 283.83 431.79 267.99 442.91 C 263.40 446.05 259.00 449.49 254.14 452.24 C 241.31 459.38 228.50 466.57 215.68 473.74 C 211.40 476.10 207.23 478.77 202.58 480.38 C 191.06 484.38 179.46 488.13 167.93 492.10 C 158.79 495.51 148.71 492.25 139.42 494.43 C 133.85 498.61 129.05 503.77 123.74 508.30 C 118.67 505.94 113.40 504.04 108.36 501.63 C 106.99 501.09 106.20 499.84 105.52 498.63 C 86.11 462.04 66.50 425.56 47.11 388.96 C 46.11 387.12 44.64 385.60 43.16 384.15 C 44.41 391.10 47.72 397.42 50.04 404.03 C 57.23 423.28 65.28 442.19 72.34 461.48 C 79.21 477.70 82.29 495.14 87.16 512.00 L 0.00 512.00 L 0.00 359.68 C 4.48 356.27 9.24 353.24 13.45 349.48 C 14.91 348.27 17.18 346.07 18.96 348.05 C 25.27 353.92 30.73 360.66 37.10 366.49 C 36.90 362.83 35.56 359.37 33.76 356.22 C 30.08 349.87 26.19 343.66 22.56 337.29 C 21.08 335.35 21.93 332.26 24.10 331.26 C 27.80 331.01 31.38 332.45 35.08 332.38 C 38.19 328.57 36.20 322.86 38.78 318.69 C 44.37 308.85 52.26 300.38 56.93 290.00 C 57.95 285.76 57.64 281.33 58.11 277.02 C 58.43 269.62 60.30 262.38 60.68 255.00 C 60.18 249.27 58.30 243.77 57.38 238.10 C 67.32 230.70 77.26 223.25 88.01 217.05 C 94.81 211.79 103.40 210.20 111.41 207.68 C 117.65 205.99 123.97 203.17 130.57 204.45 C 133.33 206.01 135.61 208.28 138.07 210.27 C 142.70 206.16 147.09 201.77 152.13 198.15 C 158.13 193.78 163.81 188.61 170.95 186.16 C 175.33 184.49 180.19 183.86 184.09 181.10 C 189.67 177.16 195.85 174.16 201.73 170.69 C 221.01 159.91 240.01 148.64 259.58 138.41 C 264.99 134.92 270.75 132.00 276.85 129.92 C 294.67 121.68 311.94 112.32 329.56 103.66 Z" />
<path fill="#f5e5c1" opacity="1.00" d=" M 28.74 150.75 C 31.58 147.18 33.89 143.16 37.10 139.91 C 45.37 139.57 54.02 138.94 61.96 141.79 C 66.73 143.21 72.02 142.81 76.33 145.64 C 82.89 149.70 90.06 152.97 95.80 158.23 C 103.25 163.89 107.96 172.13 113.87 179.22 C 117.57 183.38 118.61 189.00 120.57 194.04 C 108.41 201.30 95.39 206.84 82.44 212.48 C 76.12 216.86 68.85 219.48 62.01 222.91 C 59.59 216.56 58.70 209.30 53.91 204.15 C 45.16 193.18 36.56 182.11 27.84 171.12 C 25.36 168.03 21.07 165.47 21.72 160.89 C 23.50 157.16 26.41 154.13 28.74 150.75 Z" />
<path fill="#3e3e3e" opacity="1.00" d=" M 167.86 197.81 C 171.31 195.02 175.93 194.70 179.94 193.11 C 183.35 191.64 187.11 194.15 188.93 196.99 C 192.26 202.28 196.29 207.08 199.79 212.26 C 201.98 216.37 203.07 220.96 204.82 225.26 C 207.20 230.61 206.72 236.59 207.52 242.27 C 200.41 248.46 193.35 254.72 186.27 260.95 C 186.89 262.88 188.08 264.51 189.80 265.63 C 193.58 262.65 197.85 260.41 201.94 257.91 C 209.64 253.41 217.14 248.56 225.01 244.37 C 230.90 246.50 235.37 250.96 239.96 255.02 C 248.64 262.55 254.12 272.86 259.46 282.84 C 253.29 288.54 247.45 294.59 241.24 300.24 C 238.58 302.89 235.58 305.24 233.32 308.26 C 232.89 309.73 234.18 311.00 234.62 312.34 C 235.19 312.46 236.33 312.70 236.90 312.81 C 245.51 307.79 254.00 302.53 262.80 297.83 C 269.37 303.77 278.22 307.20 283.05 314.94 C 287.26 319.40 288.92 325.36 290.67 331.07 C 291.11 332.86 291.74 334.98 290.50 336.61 C 282.90 348.51 275.03 360.24 267.49 372.18 C 268.22 373.47 268.95 374.76 269.69 376.05 C 275.01 371.50 280.32 366.90 285.87 362.64 C 289.43 363.64 293.83 363.54 296.36 366.62 C 299.32 369.98 302.83 372.94 304.98 376.95 C 306.33 379.55 308.47 381.94 308.73 384.98 C 309.28 389.98 309.61 395.02 310.05 400.04 C 310.47 402.27 308.31 403.59 306.89 404.85 C 299.55 410.62 291.65 415.62 283.98 420.93 C 269.69 430.18 256.14 440.53 241.98 449.98 C 233.72 455.27 224.75 459.28 216.29 464.20 C 211.59 466.70 207.13 469.75 201.97 471.27 C 189.62 475.28 177.43 479.77 165.02 483.58 C 159.70 484.39 154.23 486.67 148.86 485.03 C 144.45 483.75 139.94 482.84 135.57 481.46 C 132.66 480.68 131.11 477.90 129.24 475.80 C 124.94 470.74 120.63 465.68 116.41 460.56 C 114.80 458.75 113.25 456.39 110.49 456.55 C 111.73 460.64 114.10 464.23 116.01 468.01 C 119.87 475.43 123.95 482.73 127.72 490.19 C 130.00 494.04 125.02 496.42 122.91 498.87 C 120.18 497.41 116.54 496.88 114.75 494.15 C 88.52 445.40 62.32 396.63 36.08 347.88 C 33.82 344.69 36.71 340.50 39.93 339.52 C 43.55 339.80 46.82 341.70 50.28 342.71 C 48.56 339.27 45.68 336.64 43.61 333.44 C 42.25 331.30 43.64 328.83 44.85 326.99 C 50.40 318.85 56.13 310.84 61.58 302.65 C 67.30 293.02 72.91 283.32 78.49 273.61 C 81.40 268.65 83.37 263.22 85.88 258.06 C 79.71 264.30 73.39 270.40 67.54 276.94 C 68.36 269.23 69.06 261.50 70.47 253.87 C 71.35 248.89 69.16 243.62 70.75 238.81 C 76.37 234.01 82.69 230.01 88.74 225.76 C 97.23 222.16 106.24 219.85 114.90 216.68 C 117.34 215.99 120.01 214.44 122.55 215.54 C 124.41 217.12 125.06 219.64 126.10 221.77 C 119.25 229.37 112.98 237.50 105.59 244.60 C 102.91 247.35 99.89 249.80 97.59 252.90 C 97.19 255.03 100.17 258.38 102.00 255.95 C 116.97 241.27 131.75 226.37 147.43 212.45 C 154.05 207.31 161.19 202.88 167.86 197.81 Z" />
<path fill="#f5e5c1" opacity="1.00" d=" M 95.50 315.44 C 100.89 309.83 108.56 307.52 115.07 303.54 C 122.60 310.46 130.15 317.35 137.63 324.32 C 141.43 327.87 145.70 331.05 148.57 335.47 C 153.94 343.43 159.36 351.35 164.76 359.29 C 167.45 363.31 170.52 367.15 172.28 371.72 C 177.40 384.42 184.02 396.65 186.57 410.24 C 184.58 413.00 181.05 414.35 178.45 416.56 C 172.79 421.19 166.07 424.17 159.72 427.68 C 154.55 430.60 148.85 432.32 143.24 434.16 C 133.67 424.59 123.81 415.28 114.44 405.51 C 107.58 394.93 101.44 383.86 94.84 373.10 C 91.58 368.03 89.45 362.36 86.94 356.90 C 83.74 349.75 80.33 342.63 78.25 335.06 C 79.68 331.79 81.96 328.95 83.95 326.01 C 87.30 321.98 91.79 319.12 95.50 315.44 Z" />
</svg>
