<?xml version="1.0" encoding="UTF-8" ?>
<!DOCTYPE svg PUBLIC "-//W3C//DTD SVG 1.1//EN" "http://www.w3.org/Graphics/SVG/1.1/DTD/svg11.dtd">
<svg width="512pt" height="512pt" viewBox="0 0 512 512" version="1.1" xmlns="http://www.w3.org/2000/svg">
<path fill="#f5e5c1" opacity="1.00" d=" M 0.00 0.00 L 428.87 0.00 C 427.44 10.21 424.18 20.02 421.81 30.02 C 420.83 34.15 419.56 38.22 417.88 42.12 C 413.35 52.45 410.44 63.43 405.72 73.68 C 401.96 81.00 397.56 88.03 392.40 94.44 C 384.96 102.80 379.46 112.65 372.13 121.11 C 362.72 131.77 351.87 141.16 339.98 148.94 C 334.39 153.10 328.87 157.46 322.58 160.56 C 311.35 165.92 300.64 172.42 288.87 176.61 C 280.45 180.76 271.21 182.56 262.21 184.96 C 254.14 187.84 245.49 188.07 237.06 189.07 C 224.66 189.23 212.29 192.18 199.92 190.39 C 186.53 188.91 173.12 187.67 159.74 186.14 C 145.32 183.46 131.06 179.94 116.65 177.21 C 128.93 184.76 141.39 192.09 154.39 198.32 C 166.36 201.12 178.64 202.55 190.73 204.83 C 183.55 208.46 175.94 211.19 168.17 213.30 C 161.54 215.10 154.93 217.26 148.05 217.84 C 141.04 218.15 134.02 218.49 127.00 218.81 C 120.98 219.08 115.02 218.08 109.04 217.54 C 87.12 216.58 65.69 209.29 46.96 198.03 C 40.88 193.15 34.68 188.29 29.40 182.54 C 21.73 172.56 13.74 162.80 6.95 152.19 C 5.10 148.05 1.93 144.71 0.00 140.62 L 0.00 0.00 Z" />
<path fill="#3e3e3e" opacity="1.00" d=" M 428.87 0.00 L 512.00 0.00 L 512.00 50.61 C 511.98 57.41 510.83 64.13 510.81 70.92 C 510.66 78.99 508.78 86.91 508.86 94.99 C 509.05 103.42 506.71 111.59 505.80 119.92 C 504.63 125.82 503.27 131.70 501.49 137.45 C 498.79 144.53 497.38 152.07 493.98 158.89 C 485.53 173.63 476.43 188.29 464.03 200.09 C 456.75 206.09 451.98 214.70 443.89 219.81 C 436.12 226.37 427.70 232.29 418.10 235.88 C 426.45 232.86 435.33 231.46 443.23 227.23 C 449.83 225.19 455.14 220.71 460.46 216.49 C 473.25 205.25 484.90 192.71 494.78 178.83 C 497.39 174.98 500.91 171.57 502.17 166.96 C 503.40 162.71 505.26 158.68 506.58 154.45 C 509.30 144.26 510.26 133.73 512.00 123.35 L 512.00 512.00 L 476.51 512.00 C 479.16 495.05 481.46 478.04 483.87 461.05 C 485.08 455.49 480.89 451.19 477.88 447.13 C 474.04 451.86 470.48 456.83 466.41 461.37 C 460.04 468.03 453.47 474.48 447.19 481.22 C 444.92 483.60 442.63 486.22 439.34 487.14 C 431.51 489.71 423.85 492.85 415.95 495.21 C 413.27 495.47 412.21 491.79 414.44 490.48 C 420.50 485.80 427.45 482.30 433.09 477.08 C 435.78 474.73 438.91 472.84 441.14 470.00 C 449.45 459.67 457.78 449.34 466.14 439.05 C 468.80 435.96 469.21 431.75 470.32 427.98 C 472.03 420.96 474.01 414.02 475.95 407.06 C 476.91 403.78 478.06 400.47 477.88 397.00 C 477.76 390.34 478.05 383.64 477.12 377.02 C 474.43 353.64 471.86 330.25 469.22 306.86 C 466.08 304.56 463.02 302.10 460.49 299.12 C 451.02 300.03 442.27 304.28 433.07 306.47 C 418.05 309.86 402.96 312.95 387.91 316.21 C 384.48 317.07 380.41 316.96 378.00 319.98 C 366.88 329.20 355.53 338.16 344.47 347.46 C 338.64 352.64 331.14 355.38 323.87 357.88 C 317.22 359.73 310.84 362.62 303.95 363.55 C 301.18 363.99 298.44 364.56 295.71 365.12 C 294.06 369.23 295.00 373.68 295.07 377.96 C 295.78 398.95 296.57 419.93 297.31 440.92 C 300.15 440.76 303.35 441.52 305.83 439.75 C 322.71 428.53 339.64 417.38 356.50 406.13 C 350.49 425.85 345.43 445.86 341.79 466.16 C 339.66 481.39 341.76 496.72 341.30 512.00 L 318.01 512.00 C 313.79 498.91 309.92 485.71 305.71 472.62 C 305.86 471.87 306.17 470.37 306.32 469.62 C 305.36 468.78 304.54 467.36 303.06 467.57 C 292.22 467.66 281.67 470.58 270.93 471.72 C 265.29 471.86 259.66 471.43 254.02 471.36 C 249.92 471.13 245.68 471.60 241.72 470.28 C 234.29 467.78 226.93 465.08 219.47 462.65 C 217.57 461.72 215.86 463.04 214.32 464.01 C 212.74 475.84 209.90 487.45 207.63 499.15 C 207.01 503.40 207.45 507.72 207.39 512.00 L 190.75 512.00 C 190.31 502.67 188.70 493.42 186.81 484.29 C 183.90 474.84 183.50 464.74 179.60 455.59 C 177.85 450.00 175.21 444.77 172.27 439.72 C 170.75 437.64 171.81 435.18 172.45 433.00 C 168.02 422.88 161.10 414.23 154.81 405.26 C 164.62 411.40 174.03 418.23 184.07 423.99 C 198.95 429.33 214.09 433.98 229.03 439.17 C 231.59 440.15 234.32 440.56 237.06 440.48 C 246.39 440.37 255.70 440.89 265.02 440.88 C 267.50 440.84 269.89 441.58 272.20 442.41 C 276.75 441.03 278.41 436.28 280.80 432.67 C 282.55 429.58 285.06 426.66 285.33 422.98 C 286.02 406.32 286.68 389.66 287.47 373.00 C 287.79 370.61 286.83 368.42 285.50 366.50 C 276.72 367.88 267.78 367.92 258.95 367.14 C 251.32 367.18 243.76 366.15 236.37 364.31 C 236.70 383.53 237.45 402.74 237.83 421.96 C 237.72 425.48 238.69 429.20 237.46 432.60 C 236.17 434.90 232.26 433.57 232.51 430.93 C 231.59 408.35 231.32 385.73 230.56 363.14 C 222.21 361.09 213.53 359.99 205.69 356.25 C 196.34 352.02 186.29 349.12 177.74 343.27 C 173.26 340.38 168.64 337.70 164.20 334.75 C 158.04 330.63 155.17 323.40 150.08 318.27 C 141.44 317.84 132.73 318.62 124.12 317.48 C 115.73 316.56 107.27 316.14 98.93 314.78 C 88.99 312.95 79.11 310.74 69.13 309.14 C 66.82 312.17 64.77 315.39 62.29 318.30 C 60.91 319.97 59.26 321.63 59.06 323.93 C 55.98 340.63 52.91 357.34 49.79 374.03 C 48.92 379.01 50.06 384.02 50.41 388.99 C 51.29 397.04 51.62 405.16 52.87 413.17 C 56.09 425.46 59.67 437.67 62.90 449.97 C 64.81 462.81 70.95 474.46 75.90 486.33 C 71.56 479.86 66.67 473.71 63.37 466.61 C 60.00 459.65 55.82 453.06 53.11 445.79 C 51.78 442.72 49.92 439.91 48.90 436.71 C 46.53 441.62 43.41 446.14 41.22 451.15 C 39.92 453.98 40.64 457.15 41.18 460.08 C 44.68 477.37 47.83 494.73 51.41 512.00 L 0.00 512.00 L 0.00 140.62 C 1.93 144.71 5.10 148.05 6.95 152.19 C 13.74 162.80 21.73 172.56 29.40 182.54 C 34.68 188.29 40.88 193.15 46.96 198.03 C 65.69 209.29 87.12 216.58 109.04 217.54 C 115.02 218.08 120.98 219.08 127.00 218.81 C 134.02 218.49 141.04 218.15 148.05 217.84 C 154.93 217.26 161.54 215.10 168.17 213.30 C 175.94 211.19 183.55 208.46 190.73 204.83 C 178.64 202.55 166.36 201.12 154.39 198.32 C 141.39 192.09 128.93 184.76 116.65 177.21 C 131.06 179.94 145.32 183.46 159.74 186.14 C 173.12 187.67 186.53 188.91 199.92 190.39 C 212.29 192.18 224.66 189.23 237.06 189.07 C 245.49 188.07 254.14 187.84 262.21 184.96 C 271.21 182.56 280.45 180.76 288.87 176.61 C 300.64 172.42 311.35 165.92 322.58 160.56 C 328.87 157.46 334.39 153.10 339.98 148.94 C 351.87 141.16 362.72 131.77 372.13 121.11 C 379.46 112.65 384.96 102.80 392.40 94.44 C 397.56 88.03 401.96 81.00 405.72 73.68 C 410.44 63.43 413.35 52.45 417.88 42.12 C 419.56 38.22 420.83 34.15 421.81 30.02 C 424.18 20.02 427.44 10.21 428.87 0.00 Z" />
<path fill="#f5e5c1" opacity="1.00" d=" M 510.81 70.92 C 510.83 64.13 511.98 57.41 512.00 50.61 L 512.00 123.35 C 510.26 133.73 509.30 144.26 506.58 154.45 C 505.26 158.68 503.40 162.71 502.17 166.96 C 500.91 171.57 497.39 174.98 494.78 178.83 C 484.90 192.71 473.25 205.25 460.46 216.49 C 455.14 220.71 449.83 225.19 443.23 227.23 C 435.33 231.46 426.45 232.86 418.10 235.88 C 427.70 232.29 436.12 226.37 443.89 219.81 C 451.98 214.70 456.75 206.09 464.03 200.09 C 476.43 188.29 485.53 173.63 493.98 158.89 C 497.38 152.07 498.79 144.53 501.49 137.45 C 503.27 131.70 504.63 125.82 505.80 119.92 C 506.71 111.59 509.05 103.42 508.86 94.99 C 508.78 86.91 510.66 78.99 510.81 70.92 Z" />
<path fill="#f4722b" opacity="1.00" d=" M 461.95 224.00 C 467.92 218.83 472.87 212.64 477.17 206.05 C 477.46 215.07 475.79 224.01 475.24 232.99 C 474.35 241.95 474.29 250.97 473.45 259.92 C 471.89 265.85 470.20 271.90 467.21 277.29 C 461.26 285.42 453.30 292.74 443.41 295.56 C 433.63 298.98 423.41 300.88 413.40 303.51 C 405.68 305.64 397.70 306.45 389.81 307.75 C 380.00 309.26 370.19 310.84 360.36 312.25 C 365.75 302.09 369.15 290.65 368.23 279.07 C 367.83 275.36 368.02 271.51 366.60 268.00 C 365.20 264.39 363.10 261.12 361.16 257.79 C 358.95 253.82 355.00 251.39 351.90 248.23 C 360.64 248.56 369.25 246.80 377.95 246.25 C 390.71 244.50 403.53 243.08 416.12 240.25 C 423.59 239.29 430.72 236.93 437.95 234.95 C 446.21 231.94 454.84 229.38 461.95 224.00 Z" />
<path fill="#f4722b" opacity="1.00" d=" M 57.55 216.87 C 62.42 220.21 66.78 224.30 71.99 227.14 C 78.46 231.06 85.56 233.90 92.90 235.69 C 104.31 238.42 115.23 243.11 126.94 244.53 C 138.09 246.49 149.18 248.90 160.52 249.60 C 155.60 255.15 151.95 261.82 149.97 268.97 C 148.43 273.50 146.72 278.15 147.30 283.03 C 148.03 288.71 147.74 294.55 149.40 300.08 C 150.26 303.16 151.17 306.23 152.05 309.32 C 133.56 306.83 115.03 304.66 96.55 302.13 C 88.92 300.03 80.69 299.93 73.54 296.27 C 66.42 291.23 61.72 282.78 61.43 274.03 C 60.11 254.98 58.89 235.92 57.55 216.87 Z" />
<path fill="#f4722b" opacity="1.00" d=" M 241.12 225.26 C 265.74 222.87 291.14 225.46 314.21 234.71 C 330.43 241.30 346.17 251.48 355.16 266.93 C 362.01 278.42 363.06 293.20 357.50 305.42 C 351.11 319.89 338.23 330.31 324.53 337.55 C 300.80 349.82 273.50 353.78 247.03 352.30 C 221.97 350.42 196.36 343.53 176.36 327.73 C 164.30 318.22 154.43 303.90 155.02 287.98 C 154.80 275.15 161.66 263.30 170.50 254.45 C 189.37 236.32 215.57 227.98 241.12 225.26 Z" />
<path fill="#3e3e3e" opacity="1.00" d=" M 241.50 238.81 C 266.86 236.55 293.28 239.37 316.40 250.54 C 327.30 255.97 337.87 263.70 343.21 274.97 C 347.32 283.41 346.63 293.79 341.79 301.78 C 335.25 312.85 324.01 320.16 312.50 325.28 C 294.46 333.11 274.62 336.15 255.04 335.90 C 233.45 335.55 211.40 331.32 192.52 320.45 C 182.25 314.40 172.51 305.61 169.38 293.70 C 166.75 284.12 170.38 273.90 176.66 266.56 C 185.31 256.40 197.50 249.99 209.91 245.62 C 220.11 242.05 230.77 239.93 241.50 238.81 Z" />
<path fill="#f4722b" opacity="1.00" d=" M 240.51 250.78 C 264.28 248.74 288.92 250.55 311.09 259.90 C 320.49 263.99 329.79 269.64 335.48 278.42 C 340.02 285.26 340.17 294.71 335.73 301.64 C 330.23 310.62 320.80 316.30 311.40 320.47 C 297.99 326.26 283.47 329.04 268.97 330.16 C 249.09 331.39 228.80 329.65 209.89 323.12 C 198.94 319.22 187.97 313.70 180.63 304.40 C 176.05 298.66 174.04 290.68 176.54 283.62 C 179.53 275.07 186.84 268.94 194.40 264.43 C 208.43 256.30 224.53 252.54 240.51 250.78 Z" />
<path fill="#f5e5c1" opacity="1.00" d=" M 433.07 306.47 C 442.27 304.28 451.02 300.03 460.49 299.12 C 463.02 302.10 466.08 304.56 469.22 306.86 C 471.86 330.25 474.43 353.64 477.12 377.02 C 478.05 383.64 477.76 390.34 477.88 397.00 C 478.06 400.47 476.91 403.78 475.95 407.06 C 474.01 414.02 472.03 420.96 470.32 427.98 C 469.21 431.75 468.80 435.96 466.14 439.05 C 457.78 449.34 449.45 459.67 441.14 470.00 C 438.91 472.84 435.78 474.73 433.09 477.08 C 427.45 482.30 420.50 485.80 414.44 490.48 C 412.21 491.79 413.27 495.47 415.95 495.21 C 423.85 492.85 431.51 489.71 439.34 487.14 C 442.63 486.22 444.92 483.60 447.19 481.22 C 453.47 474.48 460.04 468.03 466.41 461.37 C 470.48 456.83 474.04 451.86 477.88 447.13 C 480.89 451.19 485.08 455.49 483.87 461.05 C 481.46 478.04 479.16 495.05 476.51 512.00 L 341.30 512.00 C 341.76 496.72 339.66 481.39 341.79 466.16 C 345.43 445.86 350.49 425.85 356.50 406.13 C 339.64 417.38 322.71 428.53 305.83 439.75 C 303.35 441.52 300.15 440.76 297.31 440.92 C 296.57 419.93 295.78 398.95 295.07 377.96 C 295.00 373.68 294.06 369.23 295.71 365.12 C 298.44 364.56 301.18 363.99 303.95 363.55 C 310.84 362.62 317.22 359.73 323.87 357.88 C 331.14 355.38 338.64 352.64 344.47 347.46 C 355.53 338.16 366.88 329.20 378.00 319.98 C 380.41 316.96 384.48 317.07 387.91 316.21 C 402.96 312.95 418.05 309.86 433.07 306.47 Z" />
<path fill="#f5e5c1" opacity="1.00" d=" M 69.13 309.14 C 79.11 310.74 88.99 312.95 98.93 314.78 C 107.27 316.14 115.73 316.56 124.12 317.48 C 132.73 318.62 141.44 317.84 150.08 318.27 C 155.17 323.40 158.04 330.63 164.20 334.75 C 168.64 337.70 173.26 340.38 177.74 343.27 C 186.29 349.12 196.34 352.02 205.69 356.25 C 213.53 359.99 222.21 361.09 230.56 363.14 C 231.32 385.73 231.59 408.35 232.51 430.93 C 232.26 433.57 236.17 434.90 237.46 432.60 C 238.69 429.20 237.72 425.48 237.83 421.96 C 237.45 402.74 236.70 383.53 236.37 364.31 C 243.76 366.15 251.32 367.18 258.95 367.14 C 267.78 367.92 276.72 367.88 285.50 366.50 C 286.83 368.42 287.79 370.61 287.47 373.00 C 286.68 389.66 286.02 406.32 285.33 422.98 C 285.06 426.66 282.55 429.58 280.80 432.67 C 278.41 436.28 276.75 441.03 272.20 442.41 C 269.89 441.58 267.50 440.84 265.02 440.88 C 255.70 440.89 246.39 440.37 237.06 440.48 C 234.32 440.56 231.59 440.15 229.03 439.17 C 214.09 433.98 198.95 429.33 184.07 423.99 C 174.03 418.23 164.62 411.40 154.81 405.26 C 161.10 414.23 168.02 422.88 172.45 433.00 C 171.81 435.18 170.75 437.64 172.27 439.72 C 175.21 444.77 177.85 450.00 179.60 455.59 C 183.50 464.74 183.90 474.84 186.81 484.29 C 188.70 493.42 190.31 502.67 190.75 512.00 L 51.41 512.00 C 47.83 494.73 44.68 477.37 41.18 460.08 C 40.64 457.15 39.92 453.98 41.22 451.15 C 43.41 446.14 46.53 441.62 48.90 436.71 C 49.92 439.91 51.78 442.72 53.11 445.79 C 55.82 453.06 60.00 459.65 63.37 466.61 C 66.67 473.71 71.56 479.86 75.90 486.33 C 70.95 474.46 64.81 462.81 62.90 449.97 C 59.67 437.67 56.09 425.46 52.87 413.17 C 51.62 405.16 51.29 397.04 50.41 388.99 C 50.06 384.02 48.92 379.01 49.79 374.03 C 52.91 357.34 55.98 340.63 59.06 323.93 C 59.26 321.63 60.91 319.97 62.29 318.30 C 64.77 315.39 66.82 312.17 69.13 309.14 Z" />
<path fill="#3e3e3e" opacity="1.00" d=" M 405.38 320.98 C 411.50 319.45 417.59 317.80 423.64 316.03 C 422.87 319.74 424.83 323.29 424.40 327.01 C 423.61 336.45 422.95 345.90 422.31 355.36 C 436.85 362.96 451.63 370.13 466.14 377.77 C 469.13 379.17 467.08 383.95 463.98 382.86 C 446.82 377.55 429.85 371.57 412.68 366.24 C 409.91 365.46 410.88 362.05 410.48 359.92 C 409.20 346.90 406.79 334.00 405.38 320.98 Z" />
<path fill="#3e3e3e" opacity="1.00" d=" M 101.25 379.10 C 107.09 362.07 113.51 345.23 118.79 328.02 C 122.03 328.32 125.29 328.55 128.54 328.75 C 124.64 346.88 120.64 364.98 116.76 383.11 C 116.16 386.43 114.12 389.52 111.20 391.24 C 99.22 398.85 87.38 406.69 75.36 414.24 C 69.15 416.38 62.48 416.61 56.03 417.66 C 62.86 415.10 68.61 410.35 75.00 406.88 C 81.37 403.58 85.58 397.58 91.11 393.19 C 94.03 390.81 96.88 388.31 99.28 385.40 C 100.72 383.62 100.51 381.16 101.25 379.10 Z" />
<path fill="#f5e5c1" opacity="1.00" d=" M 214.32 464.01 C 215.86 463.04 217.57 461.72 219.47 462.65 C 226.93 465.08 234.29 467.78 241.72 470.28 C 245.68 471.60 249.92 471.13 254.02 471.36 C 259.66 471.43 265.29 471.86 270.93 471.72 C 281.67 470.58 292.22 467.66 303.06 467.57 C 304.54 467.36 305.36 468.78 306.32 469.62 C 306.17 470.37 305.86 471.87 305.71 472.62 C 309.92 485.71 313.79 498.91 318.01 512.00 L 301.40 512.00 C 298.78 504.32 296.59 496.50 294.12 488.77 C 292.54 484.04 291.61 479.03 289.05 474.69 C 280.11 476.14 271.17 478.20 262.04 477.40 C 250.67 478.48 239.25 479.22 227.82 479.77 C 225.90 490.53 222.91 501.16 221.63 512.00 L 207.39 512.00 C 207.45 507.72 207.01 503.40 207.63 499.15 C 209.90 487.45 212.74 475.84 214.32 464.01 Z" />
<path fill="#3e3e3e" opacity="1.00" d=" M 262.04 477.40 C 271.17 478.20 280.11 476.14 289.05 474.69 C 291.61 479.03 292.54 484.04 294.12 488.77 C 296.59 496.50 298.78 504.32 301.40 512.00 L 221.63 512.00 C 222.91 501.16 225.90 490.53 227.82 479.77 C 239.25 479.22 250.67 478.48 262.04 477.40 Z" />
</svg>
