<?xml version="1.0" encoding="UTF-8" ?>
<!DOCTYPE svg PUBLIC "-//W3C//DTD SVG 1.1//EN" "http://www.w3.org/Graphics/SVG/1.1/DTD/svg11.dtd">
<svg width="512pt" height="512pt" viewBox="0 0 512 512" version="1.1" xmlns="http://www.w3.org/2000/svg">
<path fill="#3e3e3e" opacity="1.00" d=" M 0.00 0.00 L 512.00 0.00 L 512.00 512.00 L 0.00 512.00 L 0.00 0.00 Z" />
<path fill="#f5e5c1" opacity="1.00" d=" M 320.96 66.34 C 342.80 62.65 364.71 58.11 386.98 58.74 C 393.67 59.94 400.72 62.38 405.21 67.75 C 416.49 86.48 427.59 105.33 438.88 124.06 C 439.80 125.60 440.53 127.27 440.98 129.02 C 448.32 156.34 455.73 183.65 463.09 210.97 C 464.86 218.00 467.27 224.90 468.22 232.12 C 470.22 245.05 472.31 257.96 474.34 270.89 C 475.64 281.19 475.05 291.59 475.45 301.94 C 475.74 313.65 476.16 325.41 474.91 337.08 C 474.44 340.39 472.70 343.32 471.60 346.43 C 468.34 355.28 465.33 364.22 462.20 373.11 C 461.79 375.57 459.02 375.57 457.15 376.21 C 455.62 374.89 453.70 373.90 452.72 372.08 C 448.57 363.88 443.31 356.30 438.57 348.44 C 434.74 342.12 429.23 337.14 424.08 331.94 C 414.50 321.49 405.02 310.94 395.40 300.52 C 385.78 291.83 375.94 283.37 366.24 274.75 C 360.06 269.11 352.92 264.68 346.37 259.50 C 348.61 246.10 349.51 232.51 351.47 219.06 C 363.58 229.80 375.36 240.90 387.48 251.62 C 393.98 257.76 401.21 263.16 406.91 270.09 C 415.17 279.79 423.64 289.30 431.88 299.00 C 439.15 308.46 446.28 318.02 453.48 327.53 C 454.89 329.27 456.56 331.25 458.94 331.51 C 461.00 330.95 463.96 330.48 464.50 327.99 C 465.73 317.02 465.90 305.95 465.21 294.94 C 464.38 282.97 464.32 270.93 463.00 259.00 C 459.49 242.89 455.40 226.90 451.48 210.89 C 445.97 188.04 439.54 165.44 434.10 142.58 C 433.41 139.82 432.86 136.97 431.48 134.45 C 420.36 114.67 409.60 94.67 397.73 75.32 C 394.98 71.56 390.12 70.41 385.92 69.03 C 380.18 67.04 374.05 67.72 368.09 67.45 C 358.97 68.29 350.07 70.64 341.03 72.02 C 303.38 79.50 265.74 87.03 228.11 94.60 C 177.87 106.88 127.69 119.40 77.46 131.72 C 73.84 132.59 69.75 133.23 67.34 136.39 C 65.54 138.77 63.11 141.42 63.42 144.60 C 65.52 146.40 68.06 148.13 70.94 148.13 C 86.62 148.63 102.27 149.68 117.92 150.66 C 144.47 152.85 171.05 154.84 197.46 158.35 C 196.73 172.19 196.03 186.02 195.31 199.86 C 174.25 194.37 153.16 188.94 132.10 183.45 C 129.12 182.56 126.01 182.64 122.95 182.51 C 100.36 179.97 77.98 175.43 55.24 174.34 C 51.38 171.11 52.66 165.52 51.63 161.10 C 50.12 153.08 49.63 144.64 52.84 136.95 C 54.38 133.97 57.44 132.21 60.59 131.39 C 82.78 124.67 104.90 117.73 127.10 111.08 C 156.28 103.89 185.31 96.05 214.70 89.77 C 250.10 81.89 285.51 74.02 320.96 66.34 Z" />
<path fill="#f5e5c1" opacity="1.00" d=" M 361.86 76.34 C 370.86 74.43 380.41 76.13 388.42 80.55 C 391.57 82.18 392.71 85.73 394.41 88.59 C 403.76 105.26 413.00 121.99 422.27 138.71 C 423.21 140.39 423.93 142.19 424.45 144.05 C 434.29 181.21 443.35 218.58 452.62 255.89 C 453.42 259.19 454.53 262.47 454.62 265.91 C 455.38 281.43 456.30 296.94 456.86 312.47 C 451.28 304.64 445.78 296.75 440.09 289.00 C 435.30 283.74 429.79 279.20 424.68 274.26 C 417.80 267.83 412.67 259.72 405.35 253.74 C 391.25 241.21 377.31 228.52 363.38 215.81 C 366.64 200.54 371.69 185.54 373.28 169.94 C 374.89 164.04 374.58 157.88 374.03 151.86 C 373.29 148.35 371.26 145.30 369.86 142.04 C 369.07 140.33 368.18 138.48 366.28 137.80 C 357.59 133.61 349.25 128.43 339.66 126.51 C 330.80 123.13 321.23 123.92 311.95 123.36 C 304.92 122.98 297.98 124.34 291.01 124.93 C 283.99 125.92 276.73 125.80 269.95 128.13 C 255.35 132.56 240.74 136.95 226.12 141.33 C 218.57 143.64 211.73 147.89 204.15 150.04 C 197.40 149.63 190.82 147.79 184.06 147.42 C 153.14 143.89 122.04 142.48 91.08 139.38 C 111.69 133.68 131.78 126.17 152.66 121.47 C 177.41 115.41 202.17 109.39 226.92 103.32 C 251.70 96.92 276.98 92.81 302.02 87.59 C 321.90 83.50 341.95 80.29 361.86 76.34 Z" />
<path fill="#f5e5c1" opacity="1.00" d=" M 274.21 134.89 C 284.49 134.18 294.75 133.13 305.03 132.45 C 314.06 133.03 323.02 134.56 332.03 135.46 C 340.91 135.94 349.01 140.11 356.67 144.28 C 359.16 146.71 360.55 150.13 362.05 153.24 C 363.23 163.88 362.85 174.81 360.17 185.22 C 358.83 181.58 358.80 177.00 355.33 174.59 C 350.54 169.80 344.21 166.63 337.49 165.76 C 332.66 165.11 327.83 163.79 322.92 164.36 C 309.57 165.79 296.13 166.64 282.95 169.29 C 272.66 172.50 262.38 175.79 252.16 179.25 C 236.16 185.56 220.17 191.92 204.22 198.36 C 204.47 184.91 204.85 171.46 205.38 158.02 C 211.61 154.99 217.79 151.82 224.19 149.19 C 235.67 145.60 247.23 142.25 258.73 138.73 C 263.84 137.27 268.84 135.19 274.21 134.89 Z" />
<path fill="#f4722b" opacity="1.00" d=" M 305.05 176.61 C 314.48 176.50 323.92 173.36 333.27 175.74 C 341.46 176.34 349.49 181.31 352.56 189.10 C 354.54 198.00 348.46 205.62 346.52 213.88 C 343.66 231.26 340.53 248.59 337.87 265.99 C 343.48 270.84 349.65 274.99 355.50 279.55 C 366.32 288.71 376.79 298.28 387.48 307.60 C 396.88 317.52 405.92 327.77 415.08 337.91 C 419.61 343.02 425.18 347.24 428.94 353.02 C 433.81 360.59 438.70 368.17 442.75 376.23 C 444.62 380.17 448.03 383.08 451.61 385.44 C 456.91 388.31 463.58 386.87 468.04 383.08 C 469.54 393.05 467.14 403.01 467.17 413.00 C 466.14 425.91 465.96 438.87 465.03 451.79 C 462.89 453.51 460.38 454.70 458.04 456.12 C 454.79 457.94 451.83 460.47 448.08 461.22 C 444.79 452.75 441.71 444.10 436.24 436.74 C 429.91 425.20 420.49 415.90 412.25 405.76 C 409.19 401.86 405.60 398.42 401.80 395.25 C 390.61 385.34 378.74 376.25 367.01 367.00 C 358.72 361.17 349.95 356.04 341.58 350.33 C 336.48 346.64 331.52 342.74 326.43 339.05 C 327.16 317.01 328.69 295.00 329.66 272.97 C 329.84 268.86 328.32 264.96 327.34 261.04 C 325.38 254.15 324.33 246.78 320.32 240.69 C 316.43 237.81 312.16 235.43 307.98 233.01 C 303.09 231.48 298.20 229.78 293.14 228.89 C 274.10 227.48 254.72 226.83 235.96 231.06 C 225.93 234.32 215.93 237.67 205.94 241.07 C 192.48 245.28 180.86 253.63 167.89 258.96 C 165.15 260.22 162.21 258.82 159.48 258.27 C 150.37 255.49 141.27 252.64 132.22 249.69 C 119.19 244.35 105.70 240.16 91.99 236.99 C 84.56 234.61 76.68 235.07 69.00 234.65 C 62.95 234.77 56.84 234.19 50.86 235.35 C 41.10 237.10 31.29 238.58 21.55 240.41 C 20.21 235.02 20.39 229.41 19.52 223.95 C 19.26 220.68 18.27 217.36 18.87 214.10 C 20.30 212.10 22.50 210.86 24.40 209.35 C 34.98 201.22 45.38 192.87 56.00 184.79 C 80.59 186.34 104.78 191.64 129.30 193.62 C 145.95 198.15 162.71 202.19 179.45 206.38 C 184.61 207.56 189.63 209.43 194.90 210.11 C 207.01 209.78 217.75 203.75 228.98 199.96 C 244.84 193.67 260.52 186.88 276.94 182.16 C 285.90 178.58 295.57 177.80 305.05 176.61 Z" />
<path fill="#3e3e3e" opacity="1.00" d=" M 268.58 212.29 C 273.01 211.58 277.52 211.27 281.99 211.86 C 288.51 212.64 295.11 212.64 301.60 213.69 C 305.49 214.88 309.45 216.07 313.00 218.10 C 315.84 220.20 318.73 222.30 321.21 224.82 C 323.05 228.91 323.85 233.38 325.07 237.68 C 318.18 233.04 311.39 227.53 303.00 226.00 C 297.66 224.96 292.63 222.29 287.07 222.60 C 277.73 222.67 268.32 221.69 259.04 223.03 C 251.32 224.22 243.38 224.30 235.92 226.83 C 226.94 229.78 217.49 231.21 208.76 234.93 C 194.16 240.84 179.52 246.63 164.94 252.60 C 139.62 246.14 116.47 232.98 90.87 227.54 C 79.60 227.19 68.18 225.78 57.01 228.01 C 46.92 229.76 36.69 230.22 26.50 230.93 C 25.79 225.95 25.32 220.93 25.08 215.90 C 47.69 214.88 70.33 214.46 92.95 215.57 C 102.13 215.11 110.77 218.53 119.57 220.58 C 133.30 223.81 146.55 228.69 160.01 232.84 C 163.54 233.75 167.15 236.03 170.85 234.60 C 185.71 229.95 200.49 225.03 215.25 220.10 C 221.43 218.39 227.72 217.05 234.02 215.91 C 245.54 214.73 257.11 213.97 268.58 212.29 Z" />
<path fill="#f5e5c1" opacity="1.00" d=" M 258.96 238.90 C 270.88 237.28 282.87 235.16 294.93 235.73 C 301.20 237.98 307.18 241.00 313.31 243.61 C 315.69 248.44 318.82 252.92 320.70 257.98 C 321.81 263.61 322.79 269.30 323.49 275.01 C 323.13 283.68 322.05 292.31 321.45 300.98 C 320.67 312.71 318.41 324.30 317.64 336.02 C 318.77 339.21 320.48 342.15 321.83 345.25 C 322.96 347.61 323.85 350.29 326.09 351.87 C 341.45 363.83 356.87 375.73 372.16 387.77 C 381.85 396.06 390.48 405.52 399.97 414.02 C 406.27 419.45 410.78 426.55 416.89 432.17 C 418.60 432.18 420.31 432.21 422.02 432.24 C 422.16 431.50 422.42 430.04 422.56 429.31 C 424.79 432.62 427.15 435.84 429.61 438.99 C 429.28 442.04 429.14 445.16 428.13 448.09 C 423.72 459.62 419.06 471.06 414.84 482.67 C 412.57 482.54 410.29 482.43 408.03 482.20 C 404.83 477.38 400.33 473.67 396.82 469.12 C 392.23 463.08 387.02 457.55 382.41 451.53 C 379.50 447.79 377.19 443.55 373.69 440.28 C 355.09 422.90 336.38 405.64 317.75 388.28 C 313.70 384.82 310.22 380.68 305.71 377.78 C 307.15 360.86 309.69 344.04 311.44 327.16 C 311.60 320.87 315.13 315.33 315.66 309.10 C 317.42 300.51 317.46 291.74 317.57 283.01 C 316.48 276.18 314.99 268.38 308.69 264.35 C 302.45 261.73 295.52 262.35 288.92 262.33 C 285.36 262.25 282.10 263.83 278.79 264.90 C 268.90 268.41 258.87 271.59 249.10 275.43 C 238.05 281.12 227.49 287.71 216.45 293.43 C 207.68 297.74 198.77 301.74 190.00 306.04 C 188.69 306.48 187.42 307.66 185.97 307.17 C 185.46 306.17 185.11 305.11 184.92 304.00 C 182.46 291.61 179.94 279.23 177.39 266.86 C 191.34 260.95 205.33 255.12 219.28 249.19 C 224.76 246.77 230.73 245.87 236.48 244.29 C 243.98 242.55 251.37 240.26 258.96 238.90 Z" />
<path fill="#f5e5c1" opacity="1.00" d=" M 44.46 244.33 C 47.24 243.67 50.02 243.00 52.78 242.22 C 51.84 244.63 51.63 247.21 51.53 249.77 C 61.54 250.06 71.54 250.94 81.52 251.78 C 95.36 253.78 109.20 255.82 123.00 258.02 C 133.73 261.28 144.36 264.86 155.10 268.09 C 160.11 269.45 165.25 270.24 170.27 271.56 C 172.13 283.52 174.38 295.44 175.87 307.46 C 171.32 306.87 167.18 304.81 162.87 303.37 C 153.76 300.20 144.76 296.67 135.58 293.70 C 125.37 291.37 115.09 289.34 104.85 287.12 C 94.01 284.35 82.71 284.88 71.63 284.08 C 61.93 283.30 52.13 283.64 42.47 282.42 C 42.26 282.11 41.83 281.48 41.62 281.17 C 42.79 268.91 42.81 256.53 44.46 244.33 Z" />
<path fill="#f5e5c1" opacity="1.00" d=" M 246.41 317.41 C 251.19 316.87 256.07 319.00 259.72 322.05 C 259.09 326.86 254.45 329.21 251.14 332.07 C 247.87 334.13 244.63 337.13 240.50 336.88 C 240.34 333.66 237.82 331.09 237.68 327.96 C 239.42 323.74 242.26 319.53 246.41 317.41 Z" />
<path fill="#3e3e3e" opacity="1.00" d=" M 332.14 318.01 C 335.10 322.43 340.06 324.71 344.26 327.72 C 370.68 344.52 395.15 364.10 420.45 382.51 C 424.65 385.33 427.36 389.68 430.57 393.48 C 438.54 403.20 446.30 413.09 454.12 422.93 C 455.34 424.46 456.21 426.23 456.77 428.10 C 458.67 434.12 460.51 440.16 462.50 446.15 C 459.81 449.49 456.11 451.74 452.55 454.03 C 449.50 447.23 446.56 440.36 443.38 433.63 C 439.32 427.65 435.09 421.79 431.30 415.64 C 429.50 412.53 426.72 410.21 424.21 407.71 C 418.87 402.03 413.79 396.00 407.51 391.31 C 398.47 384.08 389.06 377.29 380.48 369.50 C 372.86 362.23 363.71 356.92 355.24 350.76 C 347.95 345.69 340.69 340.58 333.37 335.57 C 332.27 334.65 330.35 333.81 330.92 332.01 C 331.27 327.34 331.69 322.68 332.14 318.01 Z" />
<path fill="#f5e5c1" opacity="1.00" d=" M 151.89 389.91 C 156.34 382.67 163.48 376.63 172.19 375.75 C 177.55 377.97 181.30 382.68 185.51 386.49 C 186.01 390.65 182.38 394.11 179.15 396.18 C 170.58 399.82 161.18 401.29 151.90 400.22 C 151.12 396.87 149.97 393.09 151.89 389.91 Z" />
<path fill="#f5e5c1" opacity="1.00" d=" M 227.31 385.41 C 231.22 383.73 234.42 380.19 238.96 380.29 C 242.55 379.57 244.74 383.85 243.66 386.87 C 242.23 391.42 238.68 395.40 234.27 397.25 C 229.32 398.41 224.21 397.09 219.31 396.26 C 219.28 391.36 223.00 387.25 227.31 385.41 Z" />
<path fill="#f5e5c1" opacity="1.00" d=" M 281.71 417.14 C 281.93 412.35 286.91 408.69 291.57 409.43 C 291.68 413.37 288.96 416.82 285.48 418.37 C 284.10 419.01 282.08 418.92 281.71 417.14 Z" />
<path fill="#f5e5c1" opacity="1.00" d=" M 147.28 475.31 C 146.74 467.49 155.23 462.03 162.37 462.26 C 161.95 465.14 165.64 467.11 164.11 469.88 C 162.06 474.03 157.96 478.08 153.00 477.79 C 150.92 477.42 149.19 476.12 147.28 475.31 Z" />
</svg>
