<?xml version="1.0" encoding="UTF-8" ?>
<!DOCTYPE svg PUBLIC "-//W3C//DTD SVG 1.1//EN" "http://www.w3.org/Graphics/SVG/1.1/DTD/svg11.dtd">
<svg width="512pt" height="512pt" viewBox="0 0 512 512" version="1.1" xmlns="http://www.w3.org/2000/svg">
<path fill="#3e3e3e" opacity="1.00" d=" M 0.00 0.00 L 72.64 0.00 C 89.69 37.45 106.64 74.95 123.68 112.42 C 144.66 93.47 169.51 78.53 196.65 70.33 C 168.65 46.92 140.70 23.46 112.75 0.00 L 239.88 0.00 C 230.61 21.85 221.86 43.93 212.70 65.82 C 225.95 63.02 239.45 61.35 252.99 60.85 C 271.20 60.81 289.40 63.28 306.98 68.00 C 303.68 45.30 299.93 22.67 296.41 0.00 L 512.00 0.00 L 512.00 22.06 C 460.11 44.46 408.13 66.65 356.17 88.91 C 391.99 110.18 420.54 143.38 436.24 181.96 C 461.50 134.70 486.89 87.51 512.00 40.18 L 512.00 460.28 C 487.59 414.56 463.15 368.85 438.73 323.14 C 426.87 355.82 405.74 384.99 378.77 406.87 C 423.17 428.72 467.66 450.38 512.00 472.34 L 512.00 512.00 L 276.61 512.00 C 289.76 488.36 302.76 464.63 315.82 440.93 C 300.73 445.72 285.01 447.89 269.68 451.66 C 261.25 452.23 252.71 452.29 244.29 451.68 C 232.61 448.68 220.58 447.49 208.87 444.64 C 215.63 467.16 222.91 489.52 229.82 512.00 L 0.00 512.00 L 0.00 464.09 C 44.25 444.97 88.54 425.94 132.77 406.79 C 100.79 381.12 77.60 344.90 67.09 305.30 C 44.79 334.57 22.24 363.65 0.00 392.96 L 0.00 230.62 C 20.53 246.10 41.29 261.28 61.89 276.66 C 60.36 266.62 58.96 256.44 60.32 246.28 C 61.79 236.72 62.47 227.04 64.47 217.55 C 66.32 209.33 68.34 201.14 71.05 193.15 C 47.35 195.26 23.70 197.81 0.00 199.92 L 0.00 0.00 Z" />
<path fill="#f4722b" opacity="1.00" d=" M 72.64 0.00 L 112.75 0.00 C 140.70 23.46 168.65 46.92 196.65 70.33 C 169.51 78.53 144.66 93.47 123.68 112.42 C 106.64 74.95 89.69 37.45 72.64 0.00 Z" />
<path fill="#f4722b" opacity="1.00" d=" M 239.88 0.00 L 296.41 0.00 C 299.93 22.67 303.68 45.30 306.98 68.00 C 289.40 63.28 271.20 60.81 252.99 60.85 C 239.45 61.35 225.95 63.02 212.70 65.82 C 221.86 43.93 230.61 21.85 239.88 0.00 Z" />
<path fill="#f4722b" opacity="1.00" d=" M 356.17 88.91 C 408.13 66.65 460.11 44.46 512.00 22.06 L 512.00 40.18 C 486.89 87.51 461.50 134.70 436.24 181.96 C 420.54 143.38 391.99 110.18 356.17 88.91 Z" />
<path fill="#f4722b" opacity="1.00" d=" M 317.74 71.08 C 325.57 64.83 334.04 59.44 342.07 53.46 C 340.82 61.95 338.62 70.26 337.12 78.71 C 330.72 76.01 324.27 73.46 317.74 71.08 Z" />
<path fill="#f5e5c1" opacity="1.00" d=" M 255.02 70.98 C 284.04 71.17 313.12 77.64 339.02 90.87 C 386.30 114.43 422.41 159.20 435.13 210.50 C 446.45 255.07 440.43 303.85 418.13 344.12 C 400.24 376.92 372.13 404.02 338.70 420.70 C 298.41 441.10 250.54 445.77 207.01 433.83 C 175.66 425.33 146.58 408.41 123.90 385.13 C 99.14 360.35 81.88 328.21 74.68 293.94 C 68.55 265.17 69.49 234.96 77.33 206.61 C 85.96 175.19 103.17 146.19 126.59 123.53 C 153.32 97.38 188.20 79.68 225.12 73.64 C 235.00 71.88 245.02 71.38 255.02 70.98 Z" />
<path fill="#3e3e3e" opacity="1.00" d=" M 246.19 80.33 C 275.54 78.82 305.26 84.49 331.75 97.29 C 362.21 111.79 388.27 135.31 405.90 164.07 C 431.72 205.62 438.58 258.19 424.69 305.06 C 413.37 344.05 387.91 378.66 354.21 401.27 C 318.69 425.45 274.09 435.69 231.58 429.67 C 201.36 425.63 172.32 413.41 148.21 394.78 C 125.81 377.57 107.66 354.89 95.80 329.25 C 83.66 303.03 78.18 273.75 80.02 244.91 C 81.69 216.28 90.63 188.14 105.71 163.75 C 124.33 133.50 152.32 109.10 184.89 94.88 C 204.22 86.37 225.11 81.45 246.19 80.33 Z" />
<path fill="#f5e5c1" opacity="1.00" d=" M 244.22 94.30 C 255.77 94.37 267.44 93.47 278.88 95.50 C 309.20 99.63 338.21 112.69 361.47 132.55 C 383.73 151.37 400.63 176.39 409.95 204.00 C 418.14 228.37 420.49 254.69 416.61 280.11 C 410.22 324.87 383.78 366.21 345.97 390.98 C 322.58 406.55 295.04 415.81 267.01 417.60 C 255.97 417.94 244.85 418.14 233.90 416.48 C 202.18 412.31 171.83 398.37 147.94 377.09 C 122.57 354.67 104.59 324.08 97.36 291.00 C 93.70 273.67 92.23 255.72 94.57 238.10 C 97.72 208.32 109.48 179.53 127.99 156.00 C 155.71 120.24 199.09 97.26 244.22 94.30 Z" />
<path fill="#f4722b" opacity="1.00" d=" M 44.20 99.43 C 67.88 106.37 91.54 113.37 115.22 120.29 C 112.93 123.58 109.80 126.16 107.38 129.35 C 94.41 144.54 83.73 161.71 76.00 180.14 C 65.38 153.24 54.80 126.33 44.20 99.43 Z" />
<path fill="#3e3e3e" opacity="1.00" d=" M 245.39 113.76 C 255.93 110.85 267.60 112.51 276.96 118.12 C 292.05 126.88 300.04 146.03 295.41 162.90 C 292.34 175.73 282.42 186.64 270.00 191.04 C 261.09 194.37 250.98 194.39 242.06 191.06 C 229.96 186.79 220.18 176.34 216.86 163.92 C 214.19 154.80 215.04 144.76 218.96 136.12 C 223.85 125.23 233.82 116.75 245.39 113.76 Z" />
<path fill="#3e3e3e" opacity="1.00" d=" M 157.58 163.92 C 167.08 162.21 177.25 163.56 185.61 168.52 C 196.17 174.40 203.75 185.22 205.69 197.15 C 208.88 214.43 199.08 232.99 183.17 240.36 C 172.40 245.65 159.28 245.73 148.45 240.58 C 136.63 235.24 127.68 223.91 125.51 211.08 C 124.00 203.87 124.94 196.29 127.46 189.42 C 132.27 176.52 144.04 166.50 157.58 163.92 Z" />
<path fill="#3e3e3e" opacity="1.00" d=" M 337.53 164.75 C 346.28 163.35 355.55 164.33 363.43 168.55 C 376.58 175.10 385.47 189.30 385.58 204.00 C 385.90 215.43 380.91 226.82 372.48 234.51 C 365.06 241.36 355.05 245.26 344.95 245.34 C 334.15 245.32 323.36 240.92 315.88 233.08 C 307.51 224.78 303.22 212.65 304.39 200.92 C 305.67 183.19 320.10 167.76 337.53 164.75 Z" />
<path fill="#f4722b" opacity="1.00" d=" M 0.00 199.92 C 23.70 197.81 47.35 195.26 71.05 193.15 C 68.34 201.14 66.32 209.33 64.47 217.55 C 62.47 227.04 61.79 236.72 60.32 246.28 C 58.96 256.44 60.36 266.62 61.89 276.66 C 41.29 261.28 20.53 246.10 0.00 230.62 L 0.00 199.92 Z" />
<path fill="#3e3e3e" opacity="1.00" d=" M 248.23 224.24 C 263.22 220.23 280.14 228.73 286.05 243.03 C 292.81 257.67 286.47 276.56 272.36 284.29 C 259.14 292.30 240.63 288.98 230.91 276.99 C 222.80 267.58 220.91 253.34 226.35 242.16 C 230.44 233.29 238.74 226.52 248.23 224.24 Z" />
<path fill="#f4722b" opacity="1.00" d=" M 449.09 231.26 C 461.85 238.91 474.56 246.67 487.36 254.26 C 475.06 259.00 462.69 263.53 450.40 268.26 C 452.15 255.96 450.70 243.49 449.09 231.26 Z" />
<path fill="#f5e5c1" opacity="1.00" d=" M 249.37 236.55 C 256.36 234.07 264.62 235.85 270.00 240.95 C 275.92 246.27 278.15 255.18 275.48 262.67 C 272.39 272.18 261.72 278.35 251.94 276.15 C 242.59 274.42 235.17 265.52 235.43 255.98 C 235.23 247.38 241.23 239.20 249.37 236.55 Z" />
<path fill="#3e3e3e" opacity="1.00" d=" M 335.38 267.63 C 345.84 265.02 357.31 266.94 366.41 272.70 C 374.64 277.78 380.99 285.89 383.80 295.16 C 386.83 304.80 385.99 315.58 381.56 324.65 C 377.26 333.55 369.65 340.86 360.49 344.60 C 349.99 349.05 337.56 348.69 327.32 343.66 C 315.57 338.20 306.89 326.75 304.76 313.97 C 303.57 306.22 304.32 298.05 307.60 290.87 C 312.61 279.39 323.14 270.41 335.38 267.63 Z" />
<path fill="#3e3e3e" opacity="1.00" d=" M 155.39 268.70 C 165.61 266.07 176.88 267.51 185.97 272.92 C 196.20 278.74 203.51 289.29 205.58 300.85 C 207.68 311.45 204.92 322.79 198.67 331.55 C 190.54 343.08 176.09 349.80 162.02 348.49 C 144.46 347.24 128.75 333.28 125.65 315.92 C 123.29 305.11 125.94 293.37 132.40 284.43 C 137.86 276.67 146.24 271.10 155.39 268.70 Z" />
<path fill="#f4722b" opacity="1.00" d=" M 0.00 392.96 C 22.24 363.65 44.79 334.57 67.09 305.30 C 77.60 344.90 100.79 381.12 132.77 406.79 C 88.54 425.94 44.25 444.97 0.00 464.09 L 0.00 392.96 Z" />
<path fill="#3e3e3e" opacity="1.00" d=" M 247.55 319.85 C 255.67 318.24 264.31 318.90 271.93 322.24 C 283.60 327.01 292.57 337.65 295.50 349.89 C 298.61 362.12 295.49 375.72 287.42 385.41 C 280.92 393.33 271.33 398.62 261.15 399.82 C 243.61 402.42 225.18 391.88 218.54 375.43 C 213.10 362.91 214.66 347.71 222.50 336.53 C 228.27 327.99 237.51 322.01 247.55 319.85 Z" />
<path fill="#f4722b" opacity="1.00" d=" M 438.73 323.14 C 463.15 368.85 487.59 414.56 512.00 460.28 L 512.00 472.34 C 467.66 450.38 423.17 428.72 378.77 406.87 C 405.74 384.99 426.87 355.82 438.73 323.14 Z" />
<path fill="#f4722b" opacity="1.00" d=" M 357.17 422.16 C 363.33 418.09 369.53 414.06 375.33 409.48 C 382.49 435.83 389.96 462.11 396.93 488.51 C 375.39 470.60 353.61 452.99 331.98 435.20 C 340.48 431.06 349.11 427.14 357.17 422.16 Z" />
<path fill="#f4722b" opacity="1.00" d=" M 143.12 414.66 C 160.16 426.56 179.00 436.03 199.01 441.80 C 184.30 450.46 169.82 459.51 155.04 468.06 C 151.94 452.28 147.59 436.70 145.10 420.84 C 144.35 418.81 143.66 416.75 143.12 414.66 Z" />
<path fill="#f4722b" opacity="1.00" d=" M 269.68 451.66 C 285.01 447.89 300.73 445.72 315.82 440.93 C 302.76 464.63 289.76 488.36 276.61 512.00 L 229.82 512.00 C 222.91 489.52 215.63 467.16 208.87 444.64 C 220.58 447.49 232.61 448.68 244.29 451.68 C 252.71 452.29 261.25 452.23 269.68 451.66 Z" />
</svg>
