<?xml version="1.0" encoding="UTF-8" ?>
<!DOCTYPE svg PUBLIC "-//W3C//DTD SVG 1.1//EN" "http://www.w3.org/Graphics/SVG/1.1/DTD/svg11.dtd">
<svg width="512pt" height="512pt" viewBox="0 0 512 512" version="1.1" xmlns="http://www.w3.org/2000/svg">
<path fill="#3e3e3e" opacity="1.00" d=" M 0.00 0.00 L 512.00 0.00 L 512.00 512.00 L 0.00 512.00 L 0.00 0.00 Z" />
<path fill="#f5e5c1" opacity="1.00" d=" M 163.64 38.96 C 166.74 30.03 174.12 21.61 184.04 20.79 C 191.74 20.01 200.95 21.56 205.47 28.56 C 208.80 32.81 208.25 38.55 210.76 43.16 C 213.49 48.84 216.21 54.54 218.80 60.29 C 221.57 65.55 225.90 69.77 229.99 74.01 C 235.17 80.50 240.13 87.17 245.34 93.64 C 246.27 94.92 247.51 96.15 247.55 97.84 C 248.65 115.23 249.36 132.65 250.58 150.03 C 250.73 152.93 250.77 155.92 249.67 158.67 C 247.14 165.77 244.62 172.87 242.07 179.97 C 240.62 184.01 241.67 188.46 240.35 192.54 C 238.53 197.93 236.61 203.29 234.84 208.70 C 232.56 216.08 234.60 223.96 233.40 231.42 C 227.28 241.05 224.46 252.52 217.26 261.50 C 217.78 265.33 221.13 269.95 217.77 273.21 C 218.79 282.81 218.82 292.48 219.39 302.11 C 218.65 306.99 215.64 311.20 214.28 315.93 C 213.57 318.86 210.75 320.47 209.42 323.02 C 208.66 328.33 210.16 333.63 210.66 338.91 C 211.67 345.08 211.64 351.47 213.60 357.46 C 216.03 363.65 218.53 369.81 220.99 375.99 C 223.53 382.06 223.75 388.74 224.89 395.15 C 225.53 400.40 226.74 405.61 226.85 410.92 C 226.13 413.44 224.32 415.47 223.46 417.94 C 223.49 419.56 223.72 421.17 223.90 422.79 C 222.03 423.98 219.06 424.37 218.50 426.87 C 216.89 432.75 217.45 438.95 217.06 444.98 C 216.91 448.32 216.35 451.70 216.77 455.05 C 218.56 459.04 221.51 462.40 223.30 466.40 C 224.17 468.99 224.43 471.73 224.86 474.42 L 222.87 474.81 C 223.36 475.00 224.32 475.37 224.81 475.56 C 224.76 478.01 224.73 480.46 224.66 482.91 C 221.66 483.27 218.33 479.80 216.06 482.98 C 214.12 483.10 212.18 483.20 210.23 483.23 C 208.60 481.54 206.54 481.65 204.91 483.29 C 204.04 483.33 203.17 483.37 202.30 483.42 C 202.24 481.75 202.15 480.08 202.08 478.42 C 197.73 479.46 193.50 480.93 189.22 482.23 C 188.89 482.61 188.23 483.37 187.90 483.74 C 179.30 483.65 170.71 484.29 162.12 484.28 C 156.95 482.56 152.17 479.86 147.09 477.91 C 149.18 475.20 150.26 471.90 152.20 469.10 C 153.62 468.23 155.32 468.02 156.89 467.52 C 162.41 469.60 169.30 470.00 174.06 466.00 C 179.32 461.90 185.32 458.70 190.13 454.09 C 193.13 445.91 193.03 437.08 191.20 428.65 C 185.64 425.30 179.24 423.75 173.39 421.03 C 174.44 418.02 175.66 415.07 176.87 412.12 C 176.01 410.51 174.72 409.05 174.36 407.24 C 175.82 402.40 179.04 398.12 179.37 392.94 C 179.90 385.96 182.80 378.55 179.51 371.84 C 177.62 370.79 174.63 370.43 174.28 367.85 C 172.42 360.85 170.82 353.76 168.32 346.93 C 172.87 345.41 178.17 345.71 182.29 343.17 C 186.56 335.21 189.57 326.59 193.42 318.40 C 194.39 315.85 196.24 313.34 195.75 310.48 C 194.95 303.94 193.60 297.45 193.14 290.86 C 193.67 286.90 195.38 283.22 196.48 279.40 C 202.50 259.76 209.26 240.37 216.02 220.99 C 217.30 218.06 215.35 215.08 213.94 212.59 C 208.96 224.49 204.46 236.58 199.36 248.42 C 195.51 256.88 191.57 265.31 187.62 273.72 C 186.73 275.36 186.58 277.22 186.66 279.06 C 185.68 277.55 184.65 276.08 183.57 274.65 C 184.44 278.52 187.58 281.22 189.07 284.77 C 189.92 290.48 190.29 296.26 191.12 301.98 C 191.41 305.57 192.52 309.40 190.93 312.86 C 187.87 319.81 184.70 326.71 181.67 333.67 C 180.98 334.86 180.68 336.63 179.10 336.95 C 174.99 338.22 170.74 339.03 166.61 340.28 C 164.88 339.59 163.14 338.91 161.43 338.17 C 161.57 336.37 161.65 334.57 161.67 332.78 C 160.12 335.26 159.17 338.04 158.25 340.80 C 154.38 341.13 150.67 339.94 146.99 338.97 C 146.52 338.08 146.05 337.20 145.59 336.33 C 147.21 330.34 150.24 324.76 151.01 318.55 C 146.45 326.18 144.09 334.95 139.71 342.69 C 138.41 345.05 135.31 344.94 133.09 345.87 C 131.10 344.91 128.91 344.24 127.18 342.82 C 125.01 336.25 129.50 330.35 131.41 324.35 C 133.79 316.99 135.49 309.42 137.58 301.97 C 131.64 306.49 130.98 314.37 127.08 320.27 C 125.12 320.62 123.12 320.44 121.15 320.37 C 121.27 312.88 121.33 305.40 121.63 297.93 C 121.63 296.27 122.89 295.08 123.81 293.85 C 127.27 289.62 130.81 285.47 134.24 281.21 C 137.49 276.34 144.13 276.98 148.69 274.01 C 150.07 268.61 151.64 263.26 153.11 257.89 C 153.50 255.30 153.52 252.68 153.85 250.09 C 156.70 241.36 159.10 232.48 161.80 223.69 C 164.73 211.29 172.19 200.72 177.41 189.24 C 172.09 194.35 167.80 200.36 163.11 206.01 C 161.04 208.29 160.35 211.35 159.36 214.18 C 153.93 230.16 148.30 246.07 142.88 262.05 C 142.33 263.27 142.12 264.95 140.65 265.42 C 137.55 266.97 134.28 268.12 131.02 269.26 C 128.52 248.81 125.76 228.38 123.31 207.93 C 127.09 194.49 133.48 181.81 138.91 168.92 C 140.29 165.39 142.43 161.94 142.50 158.06 C 141.30 153.20 139.26 148.59 137.62 143.86 C 143.26 134.38 148.63 124.74 154.27 115.27 C 156.18 112.25 159.08 110.08 161.55 107.56 C 166.84 102.81 171.43 97.25 177.25 93.12 C 177.19 87.82 177.09 82.52 177.19 77.22 C 172.09 76.64 166.97 76.18 161.90 75.36 C 163.15 70.57 164.28 65.65 162.40 60.83 C 163.36 58.52 164.39 56.24 165.50 53.99 C 164.05 53.59 162.61 53.17 161.17 52.73 C 161.78 48.49 163.20 44.42 165.68 40.89 C 165.17 40.41 164.15 39.44 163.64 38.96 Z" />
<path fill="#f5e5c1" opacity="1.00" d=" M 331.88 29.82 C 334.96 27.15 339.06 26.40 342.83 25.20 C 349.22 27.75 355.43 31.36 362.50 31.43 C 362.57 32.83 362.64 34.22 362.70 35.62 C 365.50 39.92 366.58 45.05 366.47 50.14 C 365.69 51.41 365.17 52.80 365.75 54.30 C 366.52 52.56 367.25 50.79 368.05 49.06 C 367.78 51.02 367.41 52.96 366.96 54.89 C 367.97 57.93 369.54 60.80 370.05 63.99 C 369.17 65.36 367.24 65.33 365.88 65.98 C 366.24 68.52 366.46 71.07 366.63 73.63 C 365.50 76.18 365.81 78.96 365.65 81.65 C 361.60 85.82 355.15 83.42 350.02 84.32 C 349.96 85.58 349.91 86.84 349.86 88.09 C 352.53 89.68 355.79 90.77 357.47 93.58 C 361.60 100.13 365.61 106.75 369.71 113.31 C 371.44 115.87 371.87 118.97 372.52 121.92 C 375.44 136.25 379.04 150.49 380.41 165.08 C 380.51 172.78 379.52 180.52 380.72 188.18 C 380.10 189.19 379.48 190.21 378.87 191.23 C 379.86 191.46 380.85 191.68 381.85 191.92 C 381.87 196.70 381.67 201.47 381.43 206.24 C 375.22 201.55 368.49 197.52 362.48 192.59 C 360.89 189.05 360.06 185.22 358.84 181.55 C 356.00 171.99 352.67 162.58 350.14 152.94 C 349.69 151.03 348.82 149.27 347.78 147.63 C 350.40 162.76 354.60 177.56 357.73 192.59 C 358.25 196.89 362.42 199.01 365.25 201.72 C 375.60 209.97 385.55 218.71 395.88 226.99 C 400.92 226.84 406.00 225.94 411.03 226.66 C 414.72 230.21 417.47 234.58 420.29 238.81 C 424.20 244.46 430.67 247.77 434.37 253.58 C 433.03 255.94 431.73 258.32 430.48 260.72 C 428.70 261.08 426.93 261.44 425.16 261.79 C 423.87 260.98 422.59 260.18 421.31 259.38 C 421.42 260.55 421.53 261.73 421.65 262.91 C 419.06 265.07 417.34 269.61 413.28 268.67 C 413.13 269.20 412.84 270.26 412.70 270.80 C 408.56 272.69 404.42 274.72 399.95 275.68 C 397.82 275.37 396.14 273.77 394.29 272.78 C 391.19 270.67 387.70 269.31 384.38 267.62 C 378.83 263.41 375.91 256.79 371.41 251.63 C 361.92 243.75 352.23 236.08 342.68 228.27 C 335.98 223.05 330.33 216.66 324.51 210.51 C 324.03 210.53 323.06 210.58 322.58 210.60 C 321.57 209.68 320.56 208.78 319.54 207.89 C 320.49 212.22 323.68 215.28 326.91 218.06 C 342.50 232.53 356.80 248.33 371.72 263.48 C 371.88 272.79 365.31 280.65 365.57 290.00 C 363.93 305.62 364.63 321.33 363.78 336.99 C 363.66 350.89 363.13 364.78 362.79 378.68 C 353.99 384.71 344.90 390.28 335.97 396.11 C 338.48 404.81 340.03 413.75 341.37 422.70 C 336.73 422.19 332.16 421.27 327.58 420.38 C 325.48 431.26 322.22 442.26 323.63 453.45 C 327.80 457.28 332.56 460.45 336.95 464.04 C 339.84 466.48 343.51 468.27 345.28 471.78 C 348.10 473.04 350.94 474.37 353.99 475.02 C 359.32 475.05 364.61 474.11 369.95 474.03 C 371.11 477.00 372.39 479.93 373.55 482.91 C 366.68 483.78 359.97 486.05 352.98 485.77 C 346.00 485.75 339.02 485.39 332.05 485.42 C 324.23 485.98 317.73 479.98 309.88 480.63 C 309.74 482.08 309.60 483.53 309.46 484.99 C 303.20 484.93 296.94 484.90 290.68 484.83 C 290.71 481.74 290.97 478.66 291.49 475.61 C 290.67 471.41 291.04 467.09 291.44 462.86 C 292.16 457.05 296.81 452.85 298.32 447.33 C 302.02 436.69 301.04 425.28 300.79 414.23 C 294.18 412.22 287.87 409.33 281.70 406.23 C 275.74 402.84 270.05 398.99 264.14 395.51 C 274.58 368.78 285.18 342.12 295.69 315.41 C 297.25 311.25 299.26 307.23 300.25 302.88 C 303.52 285.89 306.88 268.91 310.27 251.94 C 311.36 247.29 309.66 242.64 309.62 237.97 C 309.62 234.96 309.78 231.95 309.51 228.95 C 305.36 228.60 301.19 228.46 297.09 227.81 C 295.29 227.63 294.14 225.68 294.29 223.99 C 294.50 216.96 295.47 209.96 295.34 202.92 C 294.66 203.68 293.31 205.19 292.64 205.95 C 293.52 200.85 293.33 195.58 294.49 190.54 C 296.96 187.66 299.90 185.23 302.62 182.59 C 304.31 180.53 307.15 181.32 309.48 181.14 C 310.20 182.45 310.94 183.77 311.69 185.08 C 311.37 180.06 310.10 175.09 310.54 170.04 C 310.88 164.99 310.47 159.91 309.80 154.91 C 308.59 149.26 304.76 144.51 303.59 138.86 C 303.23 128.93 303.78 118.98 303.81 109.04 C 303.89 107.17 303.38 105.09 304.52 103.44 C 307.52 98.53 310.95 93.89 314.06 89.05 C 317.31 83.53 319.35 76.72 324.71 72.84 C 324.80 68.54 325.02 64.23 325.23 59.93 C 325.70 55.67 322.08 52.28 322.35 48.05 C 322.53 44.52 322.00 40.96 322.49 37.45 C 325.20 34.45 328.77 32.39 331.88 29.82 Z" />
<path fill="#f4722b" opacity="1.00" d=" M 412.29 125.48 C 443.02 165.05 473.72 204.64 504.54 244.14 C 481.32 281.73 458.43 319.53 435.07 357.03 C 432.87 333.23 430.26 309.48 428.16 285.67 C 409.84 285.66 391.52 285.65 373.21 285.68 C 374.74 281.20 376.33 276.73 377.85 272.25 C 382.18 275.06 387.13 276.71 391.40 279.61 C 394.29 281.37 397.45 283.68 401.03 282.94 C 408.01 281.42 414.63 278.39 420.53 274.41 C 423.19 272.67 424.65 269.11 428.06 268.64 C 430.88 267.84 434.32 267.77 436.15 265.11 C 439.26 260.63 442.91 254.99 440.39 249.39 C 438.33 245.38 434.39 242.85 431.24 239.76 C 424.77 234.40 421.81 225.97 415.30 220.66 C 411.20 218.53 406.37 218.85 401.90 219.02 C 399.77 217.64 397.50 216.51 395.04 215.88 C 392.20 215.15 390.28 212.78 388.13 210.97 C 389.33 201.78 389.94 192.36 387.31 183.35 C 397.53 183.31 407.76 183.36 417.98 183.33 C 416.02 164.05 414.12 144.77 412.29 125.48 Z" />
<path fill="#f4722b" opacity="1.00" d=" M 8.19 232.86 C 30.44 201.17 52.49 169.34 74.65 137.59 C 76.20 152.83 77.79 168.07 79.23 183.33 C 94.36 183.34 109.50 183.34 124.63 183.33 C 121.62 189.42 119.81 196.00 117.20 202.26 C 115.83 205.36 115.97 208.82 116.40 212.12 C 118.87 230.84 121.15 249.59 123.61 268.32 C 123.86 271.77 126.00 274.52 128.52 276.72 C 126.00 279.73 123.50 282.76 120.91 285.71 C 110.49 285.61 100.06 285.69 89.64 285.66 C 92.26 311.61 94.93 337.55 97.49 363.51 C 67.68 319.99 38.02 276.37 8.19 232.86 Z" />
<path fill="#f4722b" opacity="1.00" d=" M 248.64 183.35 C 262.76 183.29 276.89 183.40 291.01 183.29 C 285.29 188.13 286.96 196.16 285.64 202.73 C 284.96 205.77 285.99 208.73 287.64 211.26 C 287.77 217.34 285.86 223.85 288.34 229.64 C 290.84 234.86 297.08 235.38 302.15 235.75 C 302.03 241.46 304.23 247.16 302.73 252.81 C 300.52 263.76 298.42 274.73 296.18 285.68 C 272.81 285.65 249.44 285.68 226.08 285.66 C 225.78 281.60 225.03 277.44 226.11 273.43 C 227.08 269.52 227.61 265.43 226.28 261.54 C 230.90 254.35 233.67 246.19 237.72 238.69 C 238.89 236.49 240.54 234.45 240.93 231.93 C 241.92 224.12 239.86 215.97 242.62 208.40 C 245.33 200.24 249.12 192.17 248.64 183.35 Z" />
</svg>
