<?xml version="1.0" encoding="UTF-8" ?>
<!DOCTYPE svg PUBLIC "-//W3C//DTD SVG 1.1//EN" "http://www.w3.org/Graphics/SVG/1.1/DTD/svg11.dtd">
<svg width="512pt" height="512pt" viewBox="0 0 512 512" version="1.1" xmlns="http://www.w3.org/2000/svg">
<path fill="#3e3e3e" opacity="1.00" d=" M 0.00 0.00 L 366.67 0.00 C 373.27 1.86 380.08 2.64 386.92 2.94 C 393.57 3.18 399.88 5.43 406.07 7.68 C 408.15 5.09 410.17 2.46 412.41 0.00 L 422.02 0.00 C 419.14 3.34 416.53 6.89 413.71 10.28 C 418.33 13.38 423.13 16.21 427.81 19.24 C 431.67 21.72 434.79 25.32 439.03 27.24 C 441.09 27.95 442.33 25.80 443.57 24.57 C 450.23 16.41 456.64 8.05 463.42 0.00 L 474.78 0.00 C 465.14 10.00 456.93 21.21 448.46 32.18 C 453.64 41.28 461.23 48.94 465.26 58.72 C 466.06 60.12 466.38 62.30 468.18 62.77 C 470.32 63.28 471.60 61.10 472.77 59.72 C 485.76 41.96 499.04 24.42 512.00 6.65 L 512.00 21.84 C 498.52 40.64 484.75 59.23 471.19 77.98 C 472.29 81.82 473.41 85.66 474.61 89.48 C 487.00 72.23 499.65 55.18 512.00 37.90 L 512.00 512.00 L 0.00 512.00 L 0.00 0.00 Z" />
<path fill="#f5e5c1" opacity="1.00" d=" M 366.67 0.00 L 412.41 0.00 C 410.17 2.46 408.15 5.09 406.07 7.68 C 399.88 5.43 393.57 3.18 386.92 2.94 C 380.08 2.64 373.27 1.86 366.67 0.00 Z" />
<path fill="#f5e5c1" opacity="1.00" d=" M 422.02 0.00 L 463.42 0.00 C 456.64 8.05 450.23 16.41 443.57 24.57 C 442.33 25.80 441.09 27.95 439.03 27.24 C 434.79 25.32 431.67 21.72 427.81 19.24 C 423.13 16.21 418.33 13.38 413.71 10.28 C 416.53 6.89 419.14 3.34 422.02 0.00 Z" />
<path fill="#f5e5c1" opacity="1.00" d=" M 474.78 0.00 L 512.00 0.00 L 512.00 6.65 C 499.04 24.42 485.76 41.96 472.77 59.72 C 471.60 61.10 470.32 63.28 468.18 62.77 C 466.38 62.30 466.06 60.12 465.26 58.72 C 461.23 48.94 453.64 41.28 448.46 32.18 C 456.93 21.21 465.14 10.00 474.78 0.00 Z" />
<path fill="#f5e5c1" opacity="1.00" d=" M 346.36 9.56 C 355.24 7.67 364.43 6.22 373.48 7.80 C 381.94 9.31 390.47 10.77 398.70 13.28 C 407.90 17.93 416.71 23.30 425.78 28.21 C 441.18 36.74 452.50 51.12 460.05 66.77 C 463.22 74.41 465.15 82.46 467.22 90.44 C 469.16 98.10 470.75 106.18 469.06 114.04 C 468.13 120.09 464.88 125.45 461.51 130.45 C 455.56 139.56 449.41 148.55 443.44 157.65 C 441.57 155.42 439.82 153.11 438.04 150.82 C 440.41 146.12 443.17 141.41 443.76 136.09 C 444.60 130.10 444.82 124.01 444.56 117.98 C 443.34 110.31 439.79 103.29 436.89 96.16 C 434.12 89.95 429.56 84.81 426.14 78.97 C 423.60 74.63 419.93 71.15 416.59 67.45 C 412.90 63.46 409.24 59.28 404.52 56.47 C 399.60 53.59 394.92 50.17 389.40 48.49 C 379.66 44.58 369.45 41.55 358.95 40.77 C 349.33 40.97 339.69 42.09 330.38 44.57 C 325.50 45.63 321.74 49.08 317.60 51.62 C 311.18 55.41 307.01 61.98 304.14 68.68 C 300.91 67.45 297.70 66.16 294.51 64.85 C 299.30 52.28 309.18 42.87 317.80 32.92 C 325.69 23.49 334.35 13.58 346.36 9.56 Z" />
<path fill="#f4722b" opacity="1.00" d=" M 108.98 24.80 C 168.53 22.49 228.07 19.66 287.62 17.46 C 271.04 28.92 254.19 39.99 237.80 51.71 C 267.39 63.02 296.87 74.66 326.60 85.62 C 333.34 88.23 340.19 90.73 346.40 94.49 C 354.15 99.09 362.22 103.18 369.62 108.36 C 379.53 115.12 389.57 121.68 399.42 128.53 C 408.73 135.87 417.78 143.55 427.02 150.98 C 431.72 154.67 434.73 159.91 438.36 164.55 C 443.68 171.96 449.74 178.91 453.84 187.12 C 457.83 194.92 463.06 202.14 465.69 210.57 C 467.95 217.48 470.78 224.22 472.70 231.24 C 475.67 245.22 478.77 259.61 476.75 273.94 C 473.61 284.24 469.86 294.37 466.34 304.56 C 463.36 314.63 457.93 323.74 454.71 333.72 C 452.78 339.79 449.17 345.12 446.93 351.06 C 443.47 360.06 437.18 367.55 430.67 374.51 C 425.60 381.09 419.62 386.86 413.56 392.50 C 409.39 397.39 403.22 399.62 398.01 403.13 C 394.32 405.33 391.00 408.20 387.02 409.91 C 378.70 413.06 370.43 416.36 361.93 418.97 C 351.51 421.01 340.80 421.04 330.22 420.87 C 330.22 419.70 330.23 418.54 330.24 417.38 C 340.45 415.76 351.14 417.00 360.94 413.20 C 369.04 411.25 376.44 407.39 383.96 403.91 C 387.45 402.26 389.83 399.12 392.41 396.38 C 396.17 392.13 400.52 388.25 402.94 383.00 C 405.83 376.77 410.58 371.10 411.00 363.98 C 411.66 356.67 413.28 349.43 413.37 342.08 C 412.79 334.85 412.08 327.62 411.30 320.40 C 408.81 307.95 404.15 295.99 402.24 283.42 C 401.37 280.39 399.34 277.87 398.32 274.90 C 388.64 248.50 371.05 225.37 349.33 207.67 C 323.93 186.79 293.68 172.61 262.55 162.54 C 258.29 161.33 254.34 159.29 250.09 158.04 C 212.42 147.45 174.81 136.60 137.13 126.03 C 135.74 127.34 134.35 128.66 132.77 129.74 C 114.61 141.44 96.65 153.46 78.54 165.23 C 69.41 119.31 60.76 73.30 51.48 27.43 C 70.63 26.14 89.83 25.92 108.98 24.80 Z" />
<path fill="#f5e5c1" opacity="1.00" d=" M 471.19 77.98 C 484.75 59.23 498.52 40.64 512.00 21.84 L 512.00 37.90 C 499.65 55.18 487.00 72.23 474.61 89.48 C 473.41 85.66 472.29 81.82 471.19 77.98 Z" />
<path fill="#f5e5c1" opacity="1.00" d=" M 334.37 51.53 C 338.29 50.12 342.67 48.63 346.78 50.12 C 352.59 51.90 357.47 56.11 360.76 61.16 C 354.91 68.70 349.10 76.26 343.27 83.81 C 333.74 79.07 323.62 75.78 313.72 71.99 C 317.23 68.08 320.80 64.21 324.32 60.30 C 327.31 57.01 329.99 53.07 334.37 51.53 Z" />
<path fill="#f5e5c1" opacity="1.00" d=" M 379.03 54.04 C 385.18 52.83 391.02 55.91 396.41 58.45 C 401.37 60.74 404.60 65.67 405.55 70.95 C 397.31 82.69 388.26 93.86 379.78 105.44 C 370.31 98.79 360.25 93.10 350.20 87.40 C 358.06 77.53 365.79 67.57 373.64 57.70 C 375.04 56.02 376.64 54.08 379.03 54.04 Z" />
<path fill="#f5e5c1" opacity="1.00" d=" M 407.31 92.35 C 409.49 89.43 413.54 90.04 416.68 90.61 C 421.20 92.19 426.18 93.80 429.07 97.91 C 432.67 101.76 434.55 107.68 432.75 112.73 C 428.09 119.79 423.08 126.62 418.23 133.55 C 409.84 126.04 400.74 119.41 391.35 113.22 C 396.82 106.39 401.76 99.13 407.31 92.35 Z" />
<path fill="#f5e5c1" opacity="1.00" d=" M 426.02 139.85 C 429.35 135.67 432.04 131.03 435.33 126.82 C 435.05 133.12 434.53 139.49 433.21 145.66 C 430.79 143.75 428.43 141.77 426.02 139.85 Z" />
<path fill="#f5e5c1" opacity="1.00" d=" M 233.48 162.01 C 239.85 163.33 246.32 164.88 252.08 168.00 C 258.19 170.16 264.42 171.97 270.60 173.94 C 266.56 179.22 262.02 184.09 258.04 189.42 C 245.94 184.20 233.35 180.35 220.71 176.69 C 225.01 171.83 229.18 166.86 233.48 162.01 Z" />
<path fill="#f5e5c1" opacity="1.00" d=" M 267.30 193.32 C 271.86 188.45 275.55 182.87 279.85 177.77 C 291.38 181.93 302.45 187.32 313.01 193.54 C 308.04 199.90 303.28 206.41 297.98 212.51 C 293.80 209.15 289.81 205.47 285.04 202.94 C 279.12 199.74 273.23 196.50 267.30 193.32 Z" />
<path fill="#f5e5c1" opacity="1.00" d=" M 198.35 185.46 C 203.56 185.35 208.75 184.92 213.95 184.50 C 224.10 186.16 234.17 188.60 243.94 191.90 C 253.57 194.32 261.83 200.05 270.69 204.29 C 281.14 209.25 289.98 216.81 298.68 224.29 C 305.85 231.19 312.10 238.95 318.31 246.70 C 327.42 259.53 332.26 274.70 336.20 289.78 C 337.54 295.08 338.20 300.52 338.96 305.93 C 340.31 315.53 337.41 325.24 332.69 333.55 C 311.36 371.96 290.12 410.42 268.81 448.84 C 262.93 459.73 256.41 470.70 246.56 478.48 C 229.36 492.43 206.84 498.52 184.96 498.51 C 150.20 497.44 116.77 482.81 90.16 460.82 C 74.43 447.75 60.80 431.99 50.97 414.00 C 43.08 400.21 38.10 384.85 36.16 369.10 C 35.06 351.71 37.39 333.51 45.94 318.09 C 48.41 312.86 52.59 308.75 56.07 304.20 C 88.05 273.15 120.08 242.15 152.05 211.09 C 157.56 205.95 162.80 200.48 168.68 195.76 C 177.43 189.76 187.86 186.63 198.35 185.46 Z" />
<path fill="#f5e5c1" opacity="1.00" d=" M 314.04 216.05 C 317.93 210.95 321.74 205.79 325.65 200.71 C 336.15 207.59 346.21 215.24 355.14 224.07 C 348.29 234.17 341.24 244.14 334.20 254.12 C 330.08 246.68 325.22 239.67 319.73 233.18 C 316.65 229.81 312.82 226.69 311.64 222.08 C 311.23 219.76 312.81 217.82 314.04 216.05 Z" />
<path fill="#f5e5c1" opacity="1.00" d=" M 338.68 263.66 C 346.48 252.71 354.10 241.64 361.89 230.68 C 364.09 233.70 366.47 236.58 369.09 239.25 C 360.19 252.69 351.09 266.00 341.90 279.24 C 339.61 275.87 338.39 271.93 337.27 268.05 C 336.57 266.40 337.87 264.95 338.68 263.66 Z" />
<path fill="#3e3e3e" opacity="1.00" d=" M 108.19 309.27 C 134.87 306.06 161.85 314.48 184.30 328.66 C 203.20 340.60 219.42 356.86 230.78 376.15 C 239.08 391.02 245.10 407.87 243.95 425.13 C 243.95 434.69 239.98 443.56 237.47 452.62 C 235.75 455.98 233.64 459.20 231.15 462.05 C 224.71 467.37 217.18 471.14 209.62 474.61 C 204.17 476.29 198.48 477.12 192.90 478.27 C 179.75 479.11 166.68 476.74 153.85 474.09 C 146.32 471.31 138.41 469.41 131.19 465.90 C 122.55 460.22 113.02 455.76 105.35 448.72 C 100.45 444.56 95.57 440.38 90.63 436.28 C 86.57 432.99 83.86 428.45 80.56 424.47 C 76.88 419.48 72.42 414.97 69.80 409.27 C 66.87 403.19 63.47 397.34 60.75 391.16 C 56.16 379.06 55.35 365.61 57.90 352.95 C 60.93 338.20 70.51 324.93 83.68 317.59 C 91.12 313.06 99.67 310.75 108.19 309.27 Z" />
<path fill="#f4722b" opacity="1.00" d=" M 393.02 314.96 C 393.93 313.37 395.67 312.70 397.26 311.98 C 398.96 316.50 400.23 321.21 400.51 326.05 C 401.06 333.87 402.73 341.72 401.41 349.56 C 400.56 354.67 400.33 359.88 399.25 364.96 C 397.95 369.11 395.37 372.70 393.51 376.61 C 390.96 382.08 386.27 386.02 382.41 390.52 C 379.59 394.02 375.17 395.37 371.29 397.31 C 364.75 400.62 357.59 402.40 350.56 404.34 C 344.92 404.85 339.24 405.03 333.61 405.65 C 353.54 375.50 373.12 345.13 393.02 314.96 Z" />
</svg>
