<?xml version="1.0" encoding="UTF-8" standalone="no"?>
<svg
   xmlns:dc="http://purl.org/dc/elements/1.1/"
   xmlns:cc="http://creativecommons.org/ns#"
   xmlns:rdf="http://www.w3.org/1999/02/22-rdf-syntax-ns#"
   xmlns:svg="http://www.w3.org/2000/svg"
   xmlns="http://www.w3.org/2000/svg"
   xmlns:sodipodi="http://sodipodi.sourceforge.net/DTD/sodipodi-0.dtd"
   xmlns:inkscape="http://www.inkscape.org/namespaces/inkscape"
   width="1280"
   height="1280"
   viewBox="0 0 1024 1024"
   version="1.1"
   id="svg2"
   inkscape:version="0.48.1 "
   sodipodi:docname="kill_dominated.svg">
  <metadata
     id="metadata28">
    <rdf:RDF>
      <cc:Work
         rdf:about="">
        <dc:format>image/svg+xml</dc:format>
        <dc:type
           rdf:resource="http://purl.org/dc/dcmitype/StillImage" />
      </cc:Work>
    </rdf:RDF>
  </metadata>
  <defs
     id="defs26" />
  <sodipodi:namedview
     pagecolor="#ffffff"
     bordercolor="#666666"
     borderopacity="1"
     objecttolerance="10"
     gridtolerance="10"
     guidetolerance="10"
     inkscape:pageopacity="0"
     inkscape:pageshadow="2"
     inkscape:window-width="1920"
     inkscape:window-height="1018"
     id="namedview24"
     showgrid="false"
     fit-margin-top="0"
     fit-margin-left="0"
     fit-margin-right="0"
     fit-margin-bottom="0"
     inkscape:zoom="0.6609375"
     inkscape:cx="640"
     inkscape:cy="640"
     inkscape:window-x="-8"
     inkscape:window-y="-8"
     inkscape:window-maximized="1"
     inkscape:current-layer="svg2" />
  <path
     d="m 0,0 1024,0 0,1024 L 0,1024 0,0 z"
     id="path4"
     style="fill:#3e3e3e"
     inkscape:connector-curvature="0" />
  <path
     d="m 241.8,27.74 c 18.94,0.32 38.98,6.28 52.38,20.2 12.62,13.18 12.76,34 5.52,49.86 -9.18,11.72 -25.18,16.62 -39.6,14.58 C 251.3,111.5 243.26,102.16 247.48,93.4 254.34,79.08 259.96,62.48 255,46.66 252.86,39.02 247.36,33.1 241.8,27.74 z"
     id="path6"
     inkscape:connector-curvature="0"
     style="fill:#f4722b" />
  <path
     style="fill:#f5e5c1"
     d="m 299.45,110.6 c -7.02,4 -14.81,6.43 -22.85,7.15 5.22,6.3 9.41,13.38 12.45,21 -10.86,2.92 -24.18,5.85 -30.2,16.25 8,46.4 16.71,92.75 24.85,139.15 -36.6,6.7 -73.14,16.12 -106.5,33 -13.5,7.12 -26.66,15.73 -36.3,27.75 -4.54,5.48 -7.04,12.21 -10.7,18.25 -0.32,9.78 1.8,19.33 3.8,28.85 4.76,31.34 9.44,62.68 14.3,94 12,79.22 22.24,158.71 33.5,238.05 3.14,9.84 9.55,18.43 14.95,27.15 9.72,9.64 20.44,18.32 31.2,26.8 20.9,11.92 42.27,23.06 63.35,34.7 9.82,5.6 20.96,8.24 31.5,12.1 13.16,4.2 25.48,10.6 38.9,14 12.4,3.14 23.69,9.84 36.45,11.7 11.14,1.9 22.23,4.18 33.35,6.1 21.02,2.34 42.36,5.98 63.4,2 11.56,-5.32 14.8,-19.32 15.6,-30.9 12.94,-99.26 26.31,-198.46 39.35,-297.7 1.38,-13.3 4.56,-26.72 2.4,-40.1 -5.12,-18.68 -14.72,-35.71 -22.5,-53.35 -4.1,-9.72 -8.47,-19.42 -14.35,-28.2 -12.98,-16.76 -26.06,-33.53 -41.4,-48.25 9.68,1.68 19.46,3.07 29,5.55 20.18,7.2 40.7,13.52 61.1,20.1 34.44,9.68 66.13,26.62 98.25,42 24.92,14.44 50.03,29.13 71.95,47.95 4.12,3.26 9.32,5.14 12.8,9.2 3.48,4.94 4.07,11.19 4.45,17.05 0.68,10.06 1.91,20.1 1.85,30.2 -1.18,35.4 -4.62,70.64 -7.9,105.9 -1.06,15.5 -4.56,30.71 -6.2,46.15 -2.4,16.68 -3.8,33.55 -7.9,49.95 -2.82,15.28 -4.92,30.71 -8,45.95 -0.9,7.22 -8.87,11.49 -15.65,10.55 -51.2,-38.46 -103.54,-75.43 -155,-113.55 -1.3,9.12 -2.07,18.35 -3.55,27.45 18.76,12.7 37.68,25.12 56.5,37.7 29.72,20.16 60.4,38.96 88.5,61.4 8.74,5.84 16.38,14.58 27.4,15.8 9.92,-6.26 21.43,-9.89 30.25,-17.85 10.2,-7.54 18.83,-16.96 26.35,-27.1 4.06,-9.84 9.6,-19.06 12.6,-29.3 5.9,-18.42 12.42,-36.66 17.9,-55.2 9.62,-40.92 19.72,-81.75 31.3,-122.15 1.88,-26.5 8.33,-52.49 11.65,-78.85 2.96,-24.4 6.26,-48.76 8.8,-73.2 0.74,-8.04 1.15,-16.4 -1.65,-24.1 C 853.94,387.84 843.34,377 832.1,368 806.4,347.92 775.95,335.1 745.35,324.5 670.01,299.44 590.82,287.97 511.8,282.95 c -40.6,-0.46 -81.2,-0.04 -121.8,-0.2 -14.22,-0.24 -28.39,1.61 -42.55,2.65 -3.72,-46.28 -9.79,-92.42 -11.95,-138.8 -7.74,-8.34 -19.23,-9.93 -30.05,-9.85 -1.3,-8.86 -3,-17.69 -6,-26.15 z m 5.7,30.75 c 6.62,0.34 14.3,-0.27 19.5,4.65 2.26,5.24 -3.29,9.34 -7.25,11.6 -11.42,5.78 -24.77,8.01 -37.45,6.35 -4.1,-0.8 -10.37,-2.43 -9.85,-7.75 3.1,-7.16 11.62,-9.18 18.1,-12.1 0.2,3.44 1.09,7.43 5.55,6.35 6.28,1.58 10.54,-3.42 11.4,-9.1 z m 18.95,26.5 c 5.94,64.14 12.73,128.2 19.05,192.3 1.2,4.74 -2.97,8.16 -6.45,10.5 -6.6,4.08 -15.07,6 -22.55,3.4 -3.72,-1.18 -6.13,-4.63 -6.75,-8.35 -11.68,-64.44 -23.14,-128.96 -34.8,-193.4 17.28,3.74 34.82,0.37 51.5,-4.45 z M 169.45,497.8 c 6.86,6.74 14.21,12.99 20.85,19.95 6.46,8.9 13.14,17.63 18.9,27.05 5.46,9.54 12.93,18.35 23.45,22.45 14.2,4.62 28.78,-1.23 43.2,-0.45 20,0.26 39.24,10.49 51.6,26.05 6.52,6.84 9.87,16.47 18.05,21.75 10.88,7.76 20.62,17.14 32.3,23.7 14.04,5.22 29.46,2.67 44.1,2.75 9.48,0.74 18.88,3.36 27.4,7.6 7.46,3.54 12.59,10.86 20.65,13.3 12.06,4.8 25.23,0.41 37.55,3.85 -5.24,46.26 -12.37,92.37 -18.35,138.55 -2.14,12.8 -2.48,25.95 -6.2,38.45 -27,-2.86 -54.13,-4.91 -81.15,-7.55 -6.2,-0.44 -11.89,-3.08 -17.65,-5.1 -21,-7.62 -42,-15.17 -63,-22.75 -7.3,-2.68 -14.9,-4.88 -21.5,-9.1 -20.26,-12.48 -40.93,-24.3 -61.05,-37 -12.3,-11 -23.92,-22.84 -35.6,-34.5 -4.3,-7.58 -6.93,-16.18 -9.15,-24.6 -8.24,-68.14 -16.2,-136.26 -24.4,-204.4 z M 813.1,625.4 c -6.68,27.4 -12.84,54.92 -19.6,82.3 -5.24,17.22 -11.31,34.22 -16.75,51.4 -2.66,8.36 -5.97,17.02 -12.05,23.5 -9.3,5.06 -19.14,9.01 -28.6,13.75 7.98,-44.84 16.49,-89.62 24.85,-134.4 6.8,-1.06 11.07,-6.57 16.25,-10.45 13.72,-5.98 24.04,-17.26 35.9,-26.1 z"
     id="path8"
     inkscape:connector-curvature="0" />
  <path
     d="m 574.82,523.98 c 8.28,4.8 17.4,7.78 26.22,11.38 46.54,18.62 93.16,37.04 139.66,55.76 -0.7,5.24 -1.28,10.5 -1.72,15.78 -6.64,-2.58 -13.3,-5.12 -19.7,-8.26 -46.8,-22 -93.74,-43.72 -140.52,-65.74 -3.8,-1.18 -2.68,-6.04 -3.94,-8.92 z"
     id="path16"
     inkscape:connector-curvature="0"
     style="fill:#f5e5c1" />
  <path
     d="m 562.88,603.74 c 45.62,27.58 91.48,54.78 137.18,82.22 9.54,5.54 18.7,11.78 28.76,16.38 -0.54,4.82 -1.16,9.64 -1.64,14.48 C 672.26,682 616.62,648.28 561.38,613.94 c 0.5,-3.4 1,-6.8 1.5,-10.2 z"
     id="path18"
     inkscape:connector-curvature="0"
     style="fill:#f5e5c1" />
  <path
     d="m 846.2,635.12 c 26.96,18.78 51.58,42.04 67.78,70.92 13.88,25.26 20.98,55.42 14.48,83.94 -7.64,40.16 -35.12,73.24 -66.22,98.26 -49,38.78 -108.18,62.46 -168.14,78.34 C 628.9,983.8 561.32,990.62 494.02,990.6 399.82,989.42 304.48,974.54 217.8,936.34 171.96,915.62 127.42,887.96 96.82,847.22 79.54,823.9 67.78,795.42 68.84,766.04 c -0.22,-38.94 21.14,-74.5 48.12,-101.12 10.18,-9.96 20.96,-19.46 32.92,-27.24 4.4,36.26 10.32,72.34 14.6,108.6 -2.66,7.84 -6.46,15.4 -7.22,23.78 -2.98,20 4.86,40.08 17.14,55.64 17.72,22.26 42.1,38.06 67.36,50.56 53.9,26.16 113.22,39.06 172.4,46.14 87.5,9.58 176.92,5.84 262.62,-14.88 39.56,-9.94 78.74,-23.48 113.54,-45.14 19.96,-12.68 38.92,-28.34 50.66,-49.2 7.92,-14.12 11.66,-31 8.18,-47 -3.12,-16.66 -12.98,-31 -24.02,-43.48 7.26,-29.12 14.28,-58.32 21.06,-87.58 z"
     id="path22"
     inkscape:connector-curvature="0"
     style="fill:#f5e5c1" />
</svg>
