<?xml version="1.0" encoding="UTF-8" ?>
<!DOCTYPE svg PUBLIC "-//W3C//DTD SVG 1.1//EN" "http://www.w3.org/Graphics/SVG/1.1/DTD/svg11.dtd">
<svg width="512pt" height="512pt" viewBox="0 0 512 512" version="1.1" xmlns="http://www.w3.org/2000/svg">
<path fill="#3e3e3e" opacity="1.00" d=" M 0.00 0.00 L 512.00 0.00 L 512.00 116.44 C 505.87 110.34 500.20 103.68 495.53 96.40 C 486.76 107.37 476.30 117.31 463.70 123.74 C 457.60 126.87 450.81 128.47 444.03 129.22 C 430.71 129.19 417.95 122.68 409.32 112.68 C 404.79 107.51 400.25 102.29 396.66 96.41 C 386.70 108.68 374.17 119.42 359.19 124.94 C 352.99 126.51 346.46 128.24 340.06 126.86 C 328.06 125.36 317.36 118.22 309.68 109.12 C 309.89 115.10 309.79 121.08 309.96 127.06 C 309.74 131.13 313.65 133.42 316.24 135.88 C 326.13 144.48 339.96 149.55 353.00 146.44 C 361.35 145.50 368.58 140.88 375.54 136.53 C 383.59 131.04 390.37 123.93 396.79 116.67 C 400.45 122.98 405.46 128.33 410.19 133.84 C 418.59 142.86 430.42 149.27 443.00 148.94 C 456.49 149.13 468.73 142.06 478.90 133.82 C 484.80 128.52 490.57 123.03 495.36 116.68 C 500.40 123.72 505.80 130.56 512.00 136.62 L 512.00 145.11 C 504.03 143.36 500.25 135.57 495.07 130.12 C 485.93 139.57 475.60 148.25 463.31 153.28 C 451.04 158.50 436.58 158.99 424.24 153.75 C 417.69 151.65 412.50 146.97 407.19 142.81 C 403.43 138.55 398.75 135.04 396.07 129.92 C 389.50 136.54 382.54 142.97 374.16 147.21 C 365.55 152.88 355.23 155.54 345.00 155.77 C 332.16 155.80 319.90 150.36 310.31 142.02 C 310.31 152.49 310.78 162.94 310.76 173.41 C 316.25 173.33 321.88 172.92 327.17 174.74 C 333.72 176.97 341.32 177.42 346.41 182.68 C 351.18 187.70 355.02 193.87 356.47 200.71 C 358.70 208.44 360.27 216.34 361.33 224.31 C 362.68 236.30 365.20 248.12 366.73 260.08 C 367.87 268.18 369.82 276.23 369.27 284.47 C 380.09 285.86 390.98 286.72 401.77 288.31 C 417.63 292.07 433.63 295.49 448.99 301.06 C 456.33 302.87 462.27 307.69 468.89 311.08 C 472.04 312.75 475.34 314.49 477.51 317.44 C 483.67 325.80 490.06 334.16 494.21 343.76 C 496.40 351.69 497.81 359.98 496.95 368.23 C 496.05 378.05 494.64 388.43 488.77 396.67 C 478.11 412.35 461.31 422.42 444.53 430.44 C 433.12 435.17 421.40 439.16 409.53 442.55 C 390.44 447.97 370.72 450.66 351.06 453.02 C 343.33 453.46 335.72 455.27 327.95 455.09 C 305.61 455.07 283.27 455.08 260.94 455.08 C 256.59 455.11 252.29 454.48 247.97 454.23 C 225.90 454.07 203.81 453.01 181.88 450.46 C 168.46 448.75 154.96 447.45 141.76 444.40 C 132.67 442.69 123.84 439.98 114.86 437.84 C 105.13 454.53 95.86 471.48 86.16 488.19 C 83.66 492.74 78.02 495.39 72.94 494.00 C 62.85 491.50 52.80 488.85 42.72 486.33 C 38.90 485.48 35.49 482.57 34.46 478.74 C 32.94 473.85 34.37 468.77 34.86 463.84 C 36.27 451.21 38.30 438.65 39.50 426.00 C 35.43 418.64 36.50 409.03 40.90 402.07 C 33.19 394.42 27.86 383.98 27.92 372.97 C 28.39 363.42 32.14 353.61 39.69 347.45 C 39.07 342.93 37.71 338.50 37.75 333.91 C 37.81 328.60 35.80 323.61 34.60 318.52 C 31.72 306.33 28.55 294.21 25.98 281.94 C 25.11 278.13 26.76 274.43 27.77 270.82 C 28.99 267.08 29.86 262.76 33.28 260.33 C 36.87 257.81 41.27 256.88 45.25 255.16 C 50.37 253.26 55.98 250.54 61.47 252.68 C 67.67 255.27 72.39 260.62 75.42 266.51 C 83.48 280.97 92.48 294.89 100.19 309.55 C 110.83 305.20 121.47 300.79 132.51 297.55 C 147.33 293.37 162.18 289.23 177.31 286.36 C 183.57 285.26 189.70 282.96 196.13 283.19 C 197.93 257.13 200.27 231.11 202.22 205.06 C 202.67 200.65 203.24 195.82 206.67 192.62 C 210.86 188.49 214.15 182.37 220.50 181.43 C 229.93 179.74 239.52 179.20 249.02 177.98 C 250.02 177.60 252.28 177.96 252.11 176.31 C 252.55 169.95 252.64 163.57 253.17 157.22 C 244.99 157.34 236.29 158.16 228.78 154.22 C 216.42 150.25 207.51 140.24 199.46 130.58 C 188.41 142.92 173.95 152.90 157.58 156.42 C 146.78 157.95 135.38 156.69 125.79 151.22 C 122.72 149.33 119.61 147.49 116.71 145.34 C 111.21 141.08 107.15 135.35 102.60 130.16 C 96.64 135.73 91.01 141.75 84.07 146.13 C 74.08 152.93 62.24 157.79 49.98 157.36 C 36.22 157.64 23.19 150.97 13.43 141.64 C 9.94 137.38 5.49 133.91 2.92 128.94 C 2.19 129.13 0.73 129.50 0.00 129.69 L 0.00 121.58 C 1.32 119.88 2.74 118.26 4.14 116.63 C 10.89 126.39 18.29 136.14 28.39 142.66 C 40.20 150.18 55.67 150.85 68.37 145.20 C 82.23 138.97 93.65 128.36 103.05 116.59 C 106.52 122.41 111.19 127.33 115.51 132.51 C 120.12 138.00 126.24 141.94 132.53 145.26 C 142.22 149.35 153.45 149.65 163.33 146.04 C 178.25 140.45 190.37 129.38 200.11 117.04 C 205.93 125.03 211.67 133.28 219.55 139.43 C 228.99 146.97 241.62 150.98 253.63 148.46 C 254.09 141.84 254.66 135.21 254.34 128.58 C 251.58 128.39 248.86 129.50 246.07 129.27 C 234.10 129.00 222.66 123.19 214.41 114.67 C 208.78 109.46 204.83 102.85 200.09 96.91 C 188.68 111.42 173.64 124.41 155.11 128.25 C 151.02 128.38 146.93 128.37 142.85 128.25 C 139.26 127.12 135.43 126.66 132.06 124.90 C 126.40 121.80 120.81 118.34 116.48 113.47 C 111.78 107.97 106.88 102.59 103.04 96.41 C 97.63 103.43 91.24 109.64 84.44 115.31 C 76.55 121.20 67.86 126.57 57.99 128.20 C 49.32 130.57 40.18 128.20 32.18 124.67 C 20.12 118.48 11.71 107.35 4.17 96.44 C 2.76 98.09 1.33 99.72 0.00 101.43 L 0.00 0.00 Z" />
<path fill="#f5e5c1" opacity="1.00" d=" M 226.35 17.48 C 230.73 15.86 235.50 16.85 240.05 16.57 C 248.37 16.08 256.00 21.86 259.55 29.09 C 263.74 39.18 263.85 50.87 260.18 61.13 C 258.57 65.20 256.77 69.46 253.37 72.36 C 249.64 75.40 244.90 77.37 240.04 77.15 C 235.12 76.96 229.91 77.85 225.29 75.70 C 216.58 72.09 211.35 63.08 209.64 54.15 C 208.55 46.80 208.83 39.01 211.88 32.14 C 214.62 25.68 219.61 19.87 226.35 17.48 Z" />
<path fill="#3e3e3e" opacity="1.00" d=" M 223.45 22.62 C 226.19 21.59 229.48 22.21 231.52 24.35 C 237.03 29.64 238.58 37.70 238.96 45.03 C 239.15 52.53 238.01 60.46 233.74 66.81 C 231.69 69.97 227.85 72.51 223.98 71.24 C 219.81 69.55 217.36 65.38 215.80 61.37 C 212.77 52.91 212.60 43.47 214.95 34.83 C 216.43 30.09 218.70 24.85 223.45 22.62 Z" />
<path fill="#f5e5c1" opacity="1.00" d=" M 265.16 29.31 C 270.77 33.16 277.53 35.70 281.59 41.44 C 285.32 46.33 291.26 50.35 291.87 56.95 C 293.58 67.28 295.27 77.61 297.13 87.92 C 297.59 93.60 297.99 99.29 298.30 104.99 C 298.20 129.87 299.11 154.73 299.43 179.60 C 287.37 180.16 275.33 181.14 263.27 181.63 C 264.93 153.10 266.47 124.57 268.24 96.06 C 269.68 86.66 264.46 78.11 263.14 69.02 C 269.85 56.99 270.88 41.94 265.16 29.31 Z" />
<path fill="#f5e5c1" opacity="1.00" d=" M 0.00 101.43 C 1.33 99.72 2.76 98.09 4.17 96.44 C 11.71 107.35 20.12 118.48 32.18 124.67 C 40.18 128.20 49.32 130.57 57.99 128.20 C 67.86 126.57 76.55 121.20 84.44 115.31 C 91.24 109.64 97.63 103.43 103.04 96.41 C 106.88 102.59 111.78 107.97 116.48 113.47 C 120.81 118.34 126.40 121.80 132.06 124.90 C 135.43 126.66 139.26 127.12 142.85 128.25 C 146.93 128.37 151.02 128.38 155.11 128.25 C 173.64 124.41 188.68 111.42 200.09 96.91 C 204.83 102.85 208.78 109.46 214.41 114.67 C 222.66 123.19 234.10 129.00 246.07 129.27 C 248.86 129.50 251.58 128.39 254.34 128.58 C 254.66 135.21 254.09 141.84 253.63 148.46 C 241.62 150.98 228.99 146.97 219.55 139.43 C 211.67 133.28 205.93 125.03 200.11 117.04 C 190.37 129.38 178.25 140.45 163.33 146.04 C 153.45 149.65 142.22 149.35 132.53 145.26 C 126.24 141.94 120.12 138.00 115.51 132.51 C 111.19 127.33 106.52 122.41 103.05 116.59 C 93.65 128.36 82.23 138.97 68.37 145.20 C 55.67 150.85 40.20 150.18 28.39 142.66 C 18.29 136.14 10.89 126.39 4.14 116.63 C 2.74 118.26 1.32 119.88 0.00 121.58 L 0.00 101.43 Z" />
<path fill="#f5e5c1" opacity="1.00" d=" M 359.19 124.94 C 374.17 119.42 386.70 108.68 396.66 96.41 C 400.25 102.29 404.79 107.51 409.32 112.68 C 417.95 122.68 430.71 129.19 444.03 129.22 C 450.81 128.47 457.60 126.87 463.70 123.74 C 476.30 117.31 486.76 107.37 495.53 96.40 C 500.20 103.68 505.87 110.34 512.00 116.44 L 512.00 136.62 C 505.80 130.56 500.40 123.72 495.36 116.68 C 490.57 123.03 484.80 128.52 478.90 133.82 C 468.73 142.06 456.49 149.13 443.00 148.94 C 430.42 149.27 418.59 142.86 410.19 133.84 C 405.46 128.33 400.45 122.98 396.79 116.67 C 390.37 123.93 383.59 131.04 375.54 136.53 C 368.58 140.88 361.35 145.50 353.00 146.44 C 339.96 149.55 326.13 144.48 316.24 135.88 C 313.65 133.42 309.74 131.13 309.96 127.06 C 309.79 121.08 309.89 115.10 309.68 109.12 C 317.36 118.22 328.06 125.36 340.06 126.86 C 346.46 128.24 352.99 126.51 359.19 124.94 Z" />
<path fill="#f4722b" opacity="1.00" d=" M 0.00 129.69 C 0.73 129.50 2.19 129.13 2.92 128.94 C 5.49 133.91 9.94 137.38 13.43 141.64 C 23.19 150.97 36.22 157.64 49.98 157.36 C 62.24 157.79 74.08 152.93 84.07 146.13 C 91.01 141.75 96.64 135.73 102.60 130.16 C 107.15 135.35 111.21 141.08 116.71 145.34 C 119.61 147.49 122.72 149.33 125.79 151.22 C 135.38 156.69 146.78 157.95 157.58 156.42 C 173.95 152.90 188.41 142.92 199.46 130.58 C 207.51 140.24 216.42 150.25 228.78 154.22 C 236.29 158.16 244.99 157.34 253.17 157.22 C 252.64 163.57 252.55 169.95 252.11 176.31 C 252.28 177.96 250.02 177.60 249.02 177.98 C 239.52 179.20 229.93 179.74 220.50 181.43 C 214.15 182.37 210.86 188.49 206.67 192.62 C 203.24 195.82 202.67 200.65 202.22 205.06 C 200.27 231.11 197.93 257.13 196.13 283.19 C 189.70 282.96 183.57 285.26 177.31 286.36 C 162.18 289.23 147.33 293.37 132.51 297.55 C 121.47 300.79 110.83 305.20 100.19 309.55 C 92.48 294.89 83.48 280.97 75.42 266.51 C 72.39 260.62 67.67 255.27 61.47 252.68 C 55.98 250.54 50.37 253.26 45.25 255.16 C 41.27 256.88 36.87 257.81 33.28 260.33 C 29.86 262.76 28.99 267.08 27.77 270.82 C 26.76 274.43 25.11 278.13 25.98 281.94 C 28.55 294.21 31.72 306.33 34.60 318.52 C 35.80 323.61 37.81 328.60 37.75 333.91 C 37.71 338.50 39.07 342.93 39.69 347.45 C 32.14 353.61 28.39 363.42 27.92 372.97 C 27.86 383.98 33.19 394.42 40.90 402.07 C 36.50 409.03 35.43 418.64 39.50 426.00 C 38.30 438.65 36.27 451.21 34.86 463.84 C 34.37 468.77 32.94 473.85 34.46 478.74 C 35.49 482.57 38.90 485.48 42.72 486.33 C 52.80 488.85 62.85 491.50 72.94 494.00 C 78.02 495.39 83.66 492.74 86.16 488.19 C 95.86 471.48 105.13 454.53 114.86 437.84 C 123.84 439.98 132.67 442.69 141.76 444.40 C 154.96 447.45 168.46 448.75 181.88 450.46 C 203.81 453.01 225.90 454.07 247.97 454.23 C 252.29 454.48 256.59 455.11 260.94 455.08 C 283.27 455.08 305.61 455.07 327.95 455.09 C 335.72 455.27 343.33 453.46 351.06 453.02 C 370.72 450.66 390.44 447.97 409.53 442.55 C 421.40 439.16 433.12 435.17 444.53 430.44 C 461.31 422.42 478.11 412.35 488.77 396.67 C 494.64 388.43 496.05 378.05 496.95 368.23 C 497.81 359.98 496.40 351.69 494.21 343.76 C 490.06 334.16 483.67 325.80 477.51 317.44 C 475.34 314.49 472.04 312.75 468.89 311.08 C 462.27 307.69 456.33 302.87 448.99 301.06 C 433.63 295.49 417.63 292.07 401.77 288.31 C 390.98 286.72 380.09 285.86 369.27 284.47 C 369.82 276.23 367.87 268.18 366.73 260.08 C 365.20 248.12 362.68 236.30 361.33 224.31 C 360.27 216.34 358.70 208.44 356.47 200.71 C 355.02 193.87 351.18 187.70 346.41 182.68 C 341.32 177.42 333.72 176.97 327.17 174.74 C 321.88 172.92 316.25 173.33 310.76 173.41 C 310.78 162.94 310.31 152.49 310.31 142.02 C 319.90 150.36 332.16 155.80 345.00 155.77 C 355.23 155.54 365.55 152.88 374.16 147.21 C 382.54 142.97 389.50 136.54 396.07 129.92 C 398.75 135.04 403.43 138.55 407.19 142.81 C 412.50 146.97 417.69 151.65 424.24 153.75 C 436.58 158.99 451.04 158.50 463.31 153.28 C 475.60 148.25 485.93 139.57 495.07 130.12 C 500.25 135.57 504.03 143.36 512.00 145.11 L 512.00 512.00 L 0.00 512.00 L 0.00 129.69 Z" />
<path fill="#f5e5c1" opacity="1.00" d=" M 282.99 186.25 C 291.33 185.80 299.68 184.42 308.03 185.18 C 313.71 185.44 319.57 183.86 325.06 185.96 C 329.61 187.75 335.22 187.50 338.76 191.30 C 344.79 197.60 346.21 206.50 348.13 214.66 C 351.23 234.82 354.37 254.98 357.45 275.14 C 357.89 281.90 357.09 288.67 357.30 295.44 C 352.76 297.35 347.99 298.64 343.35 300.24 C 339.63 301.38 336.00 303.12 332.04 303.16 C 318.59 303.53 305.14 303.56 291.71 304.48 C 302.81 305.54 313.93 306.26 325.02 307.39 C 333.36 308.46 341.69 306.70 350.01 306.18 C 354.66 304.96 358.88 302.44 363.20 300.38 C 363.63 298.74 364.08 297.12 364.54 295.50 C 376.48 297.30 388.55 298.04 400.51 299.70 C 406.87 301.10 413.18 302.68 419.52 304.16 C 428.96 306.16 437.92 309.85 447.13 312.64 C 452.00 314.00 456.03 317.17 460.42 319.55 C 463.06 321.23 466.07 322.43 468.38 324.59 C 473.88 331.86 479.50 339.19 483.23 347.56 C 484.50 353.61 486.23 359.70 485.52 365.95 C 484.54 374.22 484.28 383.18 479.19 390.20 C 469.49 404.54 453.83 413.36 438.40 420.36 C 408.61 433.22 376.31 439.19 344.14 442.14 C 340.69 442.17 337.35 443.03 333.97 443.45 C 307.99 443.44 282.02 443.43 256.04 443.45 C 253.98 443.45 252.03 442.64 249.99 442.56 C 211.05 442.69 171.96 439.45 133.91 430.94 C 127.38 429.68 121.32 426.81 114.84 425.37 C 116.35 422.23 117.86 419.11 119.37 415.98 C 102.25 411.23 85.13 406.44 68.07 401.47 C 71.50 404.02 75.42 405.75 79.09 407.90 C 89.05 413.42 98.96 419.05 108.98 424.47 C 98.22 444.20 86.84 463.59 75.89 483.22 C 65.66 480.58 55.43 477.97 45.20 475.36 C 47.83 451.20 51.29 427.13 54.30 403.02 C 54.17 397.39 48.89 394.29 45.86 390.19 C 39.44 382.63 37.17 371.19 42.34 362.36 C 44.57 356.93 50.16 354.49 54.47 351.03 C 49.56 330.69 44.31 310.43 39.44 290.08 C 38.76 286.40 37.51 282.80 37.23 279.06 C 38.08 275.93 39.29 272.91 39.96 269.74 C 45.73 267.38 51.60 265.16 57.55 263.32 C 59.98 264.87 62.31 266.76 63.71 269.32 C 71.92 284.00 80.89 298.24 88.96 312.99 C 91.92 318.87 95.78 324.23 98.87 330.05 C 88.63 338.03 78.17 345.73 68.12 353.95 C 80.58 347.44 93.77 342.52 106.43 336.43 C 104.91 331.36 103.68 326.20 102.55 321.03 C 116.41 315.39 130.30 309.37 145.08 306.53 C 162.10 303.02 179.04 299.02 196.08 295.70 C 202.55 298.64 208.66 302.37 215.13 305.33 C 229.77 304.88 244.43 303.85 259.07 303.09 C 246.10 301.59 232.98 301.20 219.95 300.11 C 215.27 299.22 210.88 297.20 206.43 295.55 C 208.97 267.41 211.01 239.22 213.41 211.07 C 213.76 207.85 213.40 204.47 214.51 201.40 C 216.76 198.34 219.48 195.67 222.00 192.85 C 242.32 190.55 262.53 187.09 282.99 186.25 Z" />
<path fill="#3e3e3e" opacity="1.00" d=" M 309.60 191.38 C 315.35 191.26 321.12 191.10 326.86 191.42 C 329.88 192.40 332.84 193.67 335.65 195.15 C 338.41 198.83 341.37 202.82 341.73 207.57 C 342.58 213.85 344.11 220.02 344.66 226.34 C 341.74 220.50 339.48 214.34 336.37 208.60 C 334.34 205.97 332.16 203.43 329.79 201.11 C 323.71 196.64 316.33 194.61 309.60 191.38 Z" />
<path fill="#3e3e3e" opacity="1.00" d=" M 382.63 309.30 C 382.60 308.70 382.60 308.11 382.62 307.53 L 383.31 308.78 C 390.81 307.30 398.40 308.80 405.91 309.28 C 411.25 309.96 416.80 309.33 421.97 311.14 C 440.92 316.86 459.57 326.04 472.95 340.99 C 476.67 344.75 477.44 350.19 479.01 355.03 C 457.23 331.67 426.90 317.98 396.06 311.33 C 391.62 310.43 387.17 309.41 382.63 309.30 Z" />
</svg>
