<?xml version="1.0" encoding="UTF-8" ?>
<!DOCTYPE svg PUBLIC "-//W3C//DTD SVG 1.1//EN" "http://www.w3.org/Graphics/SVG/1.1/DTD/svg11.dtd">
<svg width="512pt" height="512pt" viewBox="0 0 512 512" version="1.1" xmlns="http://www.w3.org/2000/svg">
<path fill="#3e3e3e" opacity="1.00" d=" M 0.00 0.00 L 512.00 0.00 L 512.00 512.00 L 0.00 512.00 L 0.00 0.00 Z" />
<path fill="#f5e5c1" opacity="1.00" d=" M 376.52 61.87 C 395.82 59.14 416.77 59.87 434.00 69.96 C 448.19 78.13 457.57 93.05 460.69 108.93 C 464.47 127.93 462.11 147.62 457.30 166.22 C 450.17 193.29 438.03 218.78 423.86 242.83 C 397.26 287.30 363.23 327.09 324.99 361.96 C 289.38 394.06 249.84 422.45 205.84 441.90 C 180.99 452.60 154.33 460.93 127.00 460.17 C 110.69 459.67 93.73 454.84 81.82 443.19 C 69.09 431.15 63.59 413.23 63.37 396.08 C 62.57 373.73 68.36 351.75 76.07 330.96 C 88.74 297.72 107.24 266.97 128.36 238.45 C 150.94 208.09 176.83 180.23 205.03 155.03 C 233.18 130.10 263.76 107.72 296.98 90.01 C 321.93 76.91 348.49 66.01 376.52 61.87 Z" />
<path fill="#3e3e3e" opacity="1.00" d=" M 370.44 81.77 C 386.50 80.31 403.74 81.51 417.70 90.36 C 429.64 97.68 437.44 110.50 440.17 124.07 C 443.83 141.29 441.37 159.15 437.02 176.00 C 429.24 205.00 415.33 231.98 399.15 257.13 C 371.46 299.62 336.56 337.24 297.33 369.30 C 275.01 387.35 251.09 403.56 225.42 416.45 C 201.81 428.16 176.48 437.74 149.95 439.37 C 132.30 440.54 113.01 436.86 100.01 424.02 C 87.56 411.93 83.52 393.84 83.79 377.04 C 85.01 348.74 95.03 321.66 107.64 296.59 C 123.98 264.48 145.29 235.09 169.17 208.19 C 196.11 178.01 226.50 150.80 260.01 128.09 C 286.24 110.52 314.48 95.32 345.00 86.73 C 353.33 84.40 361.84 82.71 370.44 81.77 Z" />
<path fill="#f5e5c1" opacity="1.00" d=" M 65.12 101.39 C 86.77 91.95 110.64 89.17 134.05 88.86 C 174.61 89.10 214.82 97.19 253.30 109.71 C 245.43 115.46 237.35 120.95 229.74 127.06 C 190.94 115.80 150.59 107.95 110.02 109.92 C 91.81 111.02 73.36 113.91 56.71 121.71 C 48.39 125.78 40.06 131.32 35.93 139.92 C 30.51 151.12 30.93 164.21 33.82 176.04 C 37.61 191.20 45.21 205.12 54.12 217.85 C 67.37 236.67 83.83 252.99 101.26 267.93 C 96.84 275.24 92.47 282.59 88.50 290.15 C 84.27 287.27 80.63 283.64 76.72 280.36 C 60.38 265.61 45.10 249.47 32.98 231.02 C 22.20 214.56 13.66 195.89 12.65 175.98 C 11.83 160.12 17.16 144.28 26.55 131.58 C 36.28 118.18 49.99 107.95 65.12 101.39 Z" />
<path fill="#f5e5c1" opacity="1.00" d=" M 257.85 136.55 C 266.02 130.83 274.45 125.48 283.00 120.35 C 333.15 140.27 380.97 167.14 421.76 202.69 C 418.30 210.86 414.66 218.99 410.28 226.72 C 385.73 204.11 357.90 185.26 328.75 169.12 C 305.98 156.47 282.12 145.93 257.85 136.55 Z" />
<path fill="#f4722b" opacity="1.00" d=" M 253.27 191.33 C 279.68 186.59 308.09 201.66 318.76 226.31 C 328.46 247.00 325.34 273.11 310.63 290.67 C 300.23 304.02 283.74 312.16 266.94 313.20 C 251.21 314.39 235.17 309.04 223.12 298.88 C 212.23 289.63 204.81 276.49 202.42 262.41 C 200.00 249.23 202.37 235.32 208.49 223.44 C 217.10 206.36 234.40 194.14 253.27 191.33 Z" />
<path fill="#3e3e3e" opacity="1.00" d=" M 279.42 207.53 C 289.40 204.70 300.63 212.57 300.85 223.03 C 302.02 233.23 292.59 241.74 282.99 242.50 C 279.16 242.70 275.35 241.06 272.75 238.28 C 269.15 234.42 266.23 229.46 266.46 224.02 C 266.38 216.41 272.07 209.32 279.42 207.53 Z" />
<path fill="#f5e5c1" opacity="1.00" d=" M 429.57 244.56 C 433.86 237.11 438.02 229.58 441.93 221.92 C 456.04 236.92 468.94 253.36 477.90 272.00 C 483.95 284.77 488.23 298.74 487.84 313.00 C 487.97 329.61 480.85 345.66 470.18 358.16 C 457.47 373.26 439.61 383.32 420.82 388.79 C 382.02 399.85 340.80 396.60 301.61 389.36 C 309.32 383.32 316.82 377.00 324.09 370.44 C 356.43 375.65 389.94 377.97 422.14 370.60 C 435.38 367.30 448.93 362.54 458.99 352.95 C 467.74 344.11 469.60 330.85 468.53 318.96 C 466.92 304.19 460.89 290.27 453.34 277.61 C 446.83 266.79 439.15 256.68 430.67 247.32 C 430.11 246.51 428.71 245.66 429.57 244.56 Z" />
<path fill="#3e3e3e" opacity="1.00" d=" M 209.24 249.72 C 212.11 261.46 218.46 272.47 227.65 280.37 C 238.06 289.85 251.92 295.38 265.96 296.03 C 280.84 296.69 295.83 291.73 307.46 282.43 C 297.91 296.62 281.26 305.88 264.07 305.88 C 250.02 306.38 235.88 300.94 225.81 291.12 C 214.63 280.66 207.90 265.10 209.24 249.72 Z" />
<path fill="#f5e5c1" opacity="1.00" d=" M 121.22 283.59 C 154.23 307.70 190.47 327.25 228.34 342.58 C 249.85 351.23 271.89 358.65 294.44 364.08 C 286.84 370.46 278.89 376.41 270.84 382.20 C 213.23 366.36 158.09 340.91 109.33 306.30 C 112.92 298.54 116.99 291.01 121.22 283.59 Z" />
</svg>
