<?xml version="1.0" encoding="UTF-8" ?>
<!DOCTYPE svg PUBLIC "-//W3C//DTD SVG 1.1//EN" "http://www.w3.org/Graphics/SVG/1.1/DTD/svg11.dtd">
<svg width="512pt" height="512pt" viewBox="0 0 512 512" version="1.1" xmlns="http://www.w3.org/2000/svg">
<path fill="#3e3e3e" opacity="1.00" d=" M 0.00 0.00 L 512.00 0.00 L 512.00 417.01 C 502.88 412.34 493.43 408.34 484.29 403.72 C 476.92 399.83 472.80 392.22 468.64 385.38 C 466.02 380.36 463.67 375.20 461.07 370.19 C 459.69 363.50 459.62 356.56 457.59 350.00 C 455.13 341.35 455.20 332.18 452.28 323.65 C 448.85 311.95 445.66 300.00 439.79 289.22 C 435.60 282.84 431.05 276.65 426.14 270.82 C 420.40 266.23 414.15 262.28 408.48 257.59 C 403.73 253.59 397.60 251.19 393.85 246.07 C 390.32 241.33 385.89 237.14 383.57 231.61 C 380.93 225.04 378.63 218.29 377.61 211.27 C 373.82 207.52 368.76 205.22 364.25 202.40 C 365.77 213.67 368.10 225.09 373.93 235.01 C 377.74 240.50 381.00 246.49 386.02 251.02 C 389.92 254.58 393.08 259.41 398.47 260.87 C 404.88 264.02 410.56 268.51 416.40 272.61 C 421.95 278.08 428.14 283.27 431.68 290.37 C 434.75 296.02 438.66 301.32 440.27 307.64 C 442.90 317.09 446.82 326.23 448.08 336.02 C 449.91 347.29 451.60 358.59 453.58 369.83 C 455.07 375.34 456.44 380.96 458.86 386.14 C 461.91 391.03 464.96 395.97 468.56 400.48 C 470.56 403.12 474.18 405.23 473.91 408.98 C 474.23 411.33 471.69 412.17 470.06 413.08 C 431.02 431.35 392.05 449.78 353.00 468.06 C 349.99 469.57 346.44 470.56 344.38 473.43 C 342.31 476.23 340.23 479.29 340.01 482.88 C 339.21 491.61 338.69 500.36 337.86 509.09 C 322.38 499.66 307.09 489.91 291.69 480.36 C 281.52 473.46 269.81 469.45 258.87 463.99 C 252.94 461.04 246.59 458.79 241.28 454.74 C 231.53 447.46 221.57 440.45 211.88 433.10 C 204.44 426.58 197.63 419.38 190.41 412.63 C 185.27 408.06 182.36 401.59 177.21 397.02 C 181.11 390.60 182.34 383.02 184.89 376.04 C 170.65 370.23 156.43 364.38 142.14 358.69 C 130.48 355.01 118.43 352.74 106.59 349.70 C 93.97 347.00 81.15 345.47 68.38 343.69 C 67.97 345.62 67.34 347.55 67.37 349.54 C 69.41 352.18 71.87 354.46 74.24 356.80 C 76.84 359.39 80.69 359.78 83.99 361.02 C 90.59 363.43 97.62 364.33 104.21 366.75 C 111.81 369.45 119.42 372.10 127.13 374.46 C 137.62 377.31 147.05 383.04 156.03 389.00 C 171.09 398.41 179.87 414.45 192.32 426.66 C 198.47 432.54 204.15 438.94 210.98 444.08 C 217.41 449.00 223.44 454.53 230.54 458.52 C 237.86 462.79 245.07 467.27 252.44 471.46 C 261.31 475.88 270.87 478.81 279.69 483.34 C 295.25 492.81 310.66 502.53 326.21 512.00 L 0.00 512.00 L 0.00 0.00 Z" />
<path fill="#f5e5c1" opacity="1.00" d=" M 161.52 27.77 C 189.45 25.23 218.14 31.53 242.34 45.76 C 269.96 61.80 291.55 87.89 302.07 118.05 C 308.89 137.18 311.04 157.85 308.95 178.01 C 305.77 208.17 292.01 237.07 270.64 258.58 C 247.20 282.57 214.53 297.41 180.98 298.87 C 155.22 300.35 129.07 294.24 106.67 281.40 C 79.83 266.24 58.50 241.62 47.27 212.92 C 36.93 186.71 35.01 157.28 41.98 129.97 C 49.85 98.10 69.90 69.52 96.99 51.02 C 116.03 37.88 138.50 29.87 161.52 27.77 Z" />
<path fill="#3e3e3e" opacity="1.00" d=" M 165.36 55.53 C 188.79 53.72 212.77 59.62 232.45 72.52 C 255.44 87.35 272.52 111.17 278.78 137.84 C 284.86 162.80 281.68 189.93 269.77 212.71 C 256.01 239.62 230.42 260.16 201.13 267.67 C 180.45 273.11 158.20 272.21 138.04 265.08 C 111.68 255.93 89.29 236.06 77.00 211.03 C 65.03 187.09 62.63 158.64 70.13 132.97 C 77.39 107.75 94.29 85.50 116.56 71.63 C 131.21 62.43 148.11 56.85 165.36 55.53 Z" />
<path fill="#f5e5c1" opacity="1.00" d=" M 166.37 74.58 C 184.81 73.19 203.66 77.11 219.77 86.26 C 239.00 97.03 254.22 115.01 261.07 136.02 C 267.01 153.74 266.90 173.37 260.85 191.05 C 254.96 208.45 243.41 223.81 228.51 234.52 C 211.44 246.89 190.04 253.09 169.01 251.97 C 150.26 251.02 131.80 244.39 116.93 232.88 C 101.41 221.03 89.89 203.97 84.98 185.05 C 79.44 163.74 82.28 140.32 93.08 121.09 C 107.63 94.54 136.24 76.69 166.37 74.58 Z" />
<path fill="#3e3e3e" opacity="1.00" d=" M 164.53 97.78 C 178.58 95.86 193.24 98.47 205.64 105.41 C 218.97 112.74 229.58 124.84 235.07 139.03 C 239.92 151.33 240.92 165.10 237.91 177.97 C 234.51 192.82 225.75 206.39 213.57 215.55 C 202.04 224.32 187.56 229.22 173.05 228.91 C 154.62 228.97 136.45 220.55 124.33 206.72 C 115.54 196.83 109.84 184.22 108.30 171.07 C 105.90 152.62 111.93 133.28 124.34 119.42 C 134.59 107.72 149.13 99.94 164.53 97.78 Z" />
<path fill="#f4722b" opacity="1.00" d=" M 165.62 122.84 C 174.45 121.32 183.80 122.18 191.93 126.07 C 205.10 132.09 214.78 145.39 215.75 159.93 C 216.56 169.27 213.93 178.83 208.51 186.47 C 202.34 195.33 192.55 201.51 181.96 203.51 C 167.73 206.45 152.14 201.35 142.41 190.54 C 132.80 180.29 129.25 164.83 133.47 151.41 C 137.77 136.86 150.78 125.59 165.62 122.84 Z" />
<path fill="#f5e5c1" opacity="1.00" d=" M 345.87 210.00 C 350.66 207.58 355.41 205.08 360.28 202.84 C 361.86 211.29 362.63 220.03 366.32 227.92 C 368.35 234.79 372.91 240.36 376.74 246.27 C 379.77 250.92 384.08 254.49 387.97 258.38 C 382.11 261.61 376.03 264.57 370.74 268.71 C 372.95 273.72 375.28 278.68 377.25 283.78 C 378.87 288.19 375.59 292.21 374.11 296.15 C 371.07 303.67 366.84 310.64 363.50 318.02 C 364.46 329.42 366.71 340.70 367.79 352.10 C 361.94 358.07 355.40 363.65 347.83 367.30 C 350.37 361.66 353.83 356.49 356.43 350.88 C 355.58 339.88 353.54 328.93 352.14 317.97 C 352.10 314.91 353.98 312.29 355.01 309.51 C 350.02 305.87 345.09 302.06 339.43 299.49 C 332.23 296.01 324.99 292.45 319.20 286.81 C 309.00 279.84 297.98 274.13 287.43 267.69 C 288.49 266.58 289.56 265.48 290.64 264.38 C 299.89 268.82 309.57 272.39 318.39 277.70 C 328.90 283.55 339.44 289.33 349.94 295.21 C 353.31 297.17 357.18 297.94 360.95 298.77 C 362.75 294.56 364.71 290.42 366.48 286.20 C 363.99 280.64 361.50 275.08 359.33 269.39 C 358.19 266.47 356.06 264.14 354.27 261.63 C 347.99 251.48 343.68 240.00 342.82 228.03 C 343.15 221.93 344.44 215.92 345.87 210.00 Z" />
<path fill="#f5e5c1" opacity="1.00" d=" M 364.25 202.40 C 368.76 205.22 373.82 207.52 377.61 211.27 C 378.63 218.29 380.93 225.04 383.57 231.61 C 385.89 237.14 390.32 241.33 393.85 246.07 C 397.60 251.19 403.73 253.59 408.48 257.59 C 414.15 262.28 420.40 266.23 426.14 270.82 C 431.05 276.65 435.60 282.84 439.79 289.22 C 445.66 300.00 448.85 311.95 452.28 323.65 C 455.20 332.18 455.13 341.35 457.59 350.00 C 459.62 356.56 459.69 363.50 461.07 370.19 C 463.67 375.20 466.02 380.36 468.64 385.38 C 472.80 392.22 476.92 399.83 484.29 403.72 C 493.43 408.34 502.88 412.34 512.00 417.01 L 512.00 512.00 L 326.21 512.00 C 310.66 502.53 295.25 492.81 279.69 483.34 C 270.87 478.81 261.31 475.88 252.44 471.46 C 245.07 467.27 237.86 462.79 230.54 458.52 C 223.44 454.53 217.41 449.00 210.98 444.08 C 204.15 438.94 198.47 432.54 192.32 426.66 C 179.87 414.45 171.09 398.41 156.03 389.00 C 147.05 383.04 137.62 377.31 127.13 374.46 C 119.42 372.10 111.81 369.45 104.21 366.75 C 97.62 364.33 90.59 363.43 83.99 361.02 C 80.69 359.78 76.84 359.39 74.24 356.80 C 71.87 354.46 69.41 352.18 67.37 349.54 C 67.34 347.55 67.97 345.62 68.38 343.69 C 81.15 345.47 93.97 347.00 106.59 349.70 C 118.43 352.74 130.48 355.01 142.14 358.69 C 156.43 364.38 170.65 370.23 184.89 376.04 C 182.34 383.02 181.11 390.60 177.21 397.02 C 182.36 401.59 185.27 408.06 190.41 412.63 C 197.63 419.38 204.44 426.58 211.88 433.10 C 221.57 440.45 231.53 447.46 241.28 454.74 C 246.59 458.79 252.94 461.04 258.87 463.99 C 269.81 469.45 281.52 473.46 291.69 480.36 C 307.09 489.91 322.38 499.66 337.86 509.09 C 338.69 500.36 339.21 491.61 340.01 482.88 C 340.23 479.29 342.31 476.23 344.38 473.43 C 346.44 470.56 349.99 469.57 353.00 468.06 C 392.05 449.78 431.02 431.35 470.06 413.08 C 471.69 412.17 474.23 411.33 473.91 408.98 C 474.18 405.23 470.56 403.12 468.56 400.48 C 464.96 395.97 461.91 391.03 458.86 386.14 C 456.44 380.96 455.07 375.34 453.58 369.83 C 451.60 358.59 449.91 347.29 448.08 336.02 C 446.82 326.23 442.90 317.09 440.27 307.64 C 438.66 301.32 434.75 296.02 431.68 290.37 C 428.14 283.27 421.95 278.08 416.40 272.61 C 410.56 268.51 404.88 264.02 398.47 260.87 C 393.08 259.41 389.92 254.58 386.02 251.02 C 381.00 246.49 377.74 240.50 373.93 235.01 C 368.10 225.09 365.77 213.67 364.25 202.40 Z" />
<path fill="#f5e5c1" opacity="1.00" d=" M 267.83 285.71 C 273.00 281.27 278.40 277.07 283.24 272.26 C 292.21 276.43 301.14 280.67 310.07 284.91 C 311.71 285.68 313.84 286.92 313.33 289.11 C 312.50 291.14 310.19 291.68 308.39 292.52 C 303.86 294.24 299.48 296.33 294.93 297.95 C 293.22 298.75 291.53 297.70 290.01 297.01 C 282.62 293.24 275.24 289.43 267.83 285.71 Z" />
<path fill="#f5e5c1" opacity="1.00" d=" M 71.86 291.85 C 75.20 289.54 79.06 288.12 82.72 286.38 C 90.81 292.72 99.74 297.89 108.91 302.50 C 102.72 301.05 96.44 300.02 90.21 298.77 C 83.76 297.41 77.19 298.65 70.68 298.71 C 70.42 296.39 69.71 293.53 71.86 291.85 Z" />
<path fill="#f5e5c1" opacity="1.00" d=" M 261.48 290.07 C 269.37 294.25 277.36 298.28 285.12 302.71 C 282.69 306.13 278.77 307.94 275.51 310.42 C 271.30 313.06 267.56 316.61 263.08 318.69 C 255.56 314.74 248.36 310.19 240.91 306.11 C 239.88 305.36 238.31 305.00 237.94 303.64 C 246.18 299.84 254.08 295.34 261.48 290.07 Z" />
<path fill="#f5e5c1" opacity="1.00" d=" M 71.35 304.51 C 76.22 303.77 81.13 304.50 86.02 304.54 C 92.17 304.57 98.12 306.26 104.15 307.29 C 114.42 309.32 124.79 311.03 134.79 314.16 C 145.99 317.69 157.36 320.82 168.05 325.77 C 182.48 332.45 196.89 339.18 211.43 345.63 C 215.71 347.15 213.70 352.64 214.24 356.06 C 193.66 348.99 173.15 341.75 152.58 334.63 C 143.59 331.27 134.22 329.13 125.19 325.86 C 109.31 321.37 93.05 318.16 76.63 316.52 C 75.04 312.44 73.01 308.55 71.35 304.51 Z" />
<path fill="#f5e5c1" opacity="1.00" d=" M 216.83 311.34 C 221.52 309.75 226.26 308.31 230.90 306.58 C 237.87 310.35 244.49 314.73 251.44 318.54 C 253.40 319.66 256.56 321.18 255.16 324.00 C 253.27 326.62 249.87 325.20 247.42 324.34 C 237.14 320.21 226.67 316.47 216.83 311.34 Z" />
<path fill="#f5e5c1" opacity="1.00" d=" M 183.04 317.50 C 189.68 316.71 196.29 315.51 202.91 314.49 C 205.38 313.99 207.68 315.30 209.98 316.01 C 216.67 318.58 223.59 320.64 229.94 324.02 C 235.20 326.75 240.44 329.50 245.71 332.21 C 240.45 336.55 234.90 340.52 229.63 344.84 C 206.17 335.20 182.95 324.95 159.03 316.49 C 166.92 318.19 175.04 317.38 183.04 317.50 Z" />
<path fill="#f5e5c1" opacity="1.00" d=" M 69.60 338.21 C 70.05 331.09 77.51 326.94 83.99 326.80 C 88.36 327.24 92.75 327.34 97.12 327.74 C 112.26 330.24 127.35 333.07 142.26 336.73 C 163.27 343.72 184.08 351.33 204.68 359.44 C 207.38 360.03 207.67 364.24 205.01 365.09 C 200.13 367.45 195.11 369.52 190.03 371.42 C 173.83 364.64 157.65 357.69 140.86 352.49 C 128.84 349.64 117.03 345.94 105.02 343.04 C 93.22 341.44 81.38 339.97 69.60 338.21 Z" />
</svg>
