<?xml version="1.0" encoding="UTF-8" standalone="no"?>
<svg
   xmlns:dc="http://purl.org/dc/elements/1.1/"
   xmlns:cc="http://creativecommons.org/ns#"
   xmlns:rdf="http://www.w3.org/1999/02/22-rdf-syntax-ns#"
   xmlns:svg="http://www.w3.org/2000/svg"
   xmlns="http://www.w3.org/2000/svg"
   xmlns:sodipodi="http://sodipodi.sourceforge.net/DTD/sodipodi-0.dtd"
   xmlns:inkscape="http://www.inkscape.org/namespaces/inkscape"
   width="1280"
   height="1280"
   viewBox="0 0 1024 1024"
   version="1.1"
   id="svg2"
   inkscape:version="0.48.1 "
   sodipodi:docname="take_multi_damage.svg">
  <metadata
     id="metadata40">
    <rdf:RDF>
      <cc:Work
         rdf:about="">
        <dc:format>image/svg+xml</dc:format>
        <dc:type
           rdf:resource="http://purl.org/dc/dcmitype/StillImage" />
      </cc:Work>
    </rdf:RDF>
  </metadata>
  <defs
     id="defs38" />
  <sodipodi:namedview
     pagecolor="#ffffff"
     bordercolor="#666666"
     borderopacity="1"
     objecttolerance="10"
     gridtolerance="10"
     guidetolerance="10"
     inkscape:pageopacity="0"
     inkscape:pageshadow="2"
     inkscape:window-width="1920"
     inkscape:window-height="1018"
     id="namedview36"
     showgrid="false"
     inkscape:snap-page="true"
     fit-margin-top="0"
     fit-margin-left="0"
     fit-margin-right="0"
     fit-margin-bottom="0"
     inkscape:zoom="0.6609375"
     inkscape:cx="640"
     inkscape:cy="640"
     inkscape:window-x="-8"
     inkscape:window-y="-8"
     inkscape:window-maximized="1"
     inkscape:current-layer="svg2" />
  <rect
     style="fill:#3e3e3e;fill-opacity:1;stroke:none"
     id="rect3022"
     width="1024"
     height="1024"
     x="0"
     y="0" />
  <path
     d="m 460.68,46.42 c 11.28,-4.3 23.54,-3.06 35.36,-3.12 33.3,-0.02 66.6,0.06 99.92,-0.04 9.16,0.08 18.94,-1.1 27.42,3.22 44.2,21.9 88.54,43.6 132.78,65.42 8.78,3.58 11.24,13.4 14.88,21.18 22.9,51.64 45.96,103.2 68.98,154.78 4.14,9.38 6.24,19.46 8.8,29.36 3.44,13.94 7.74,27.68 10,41.9 12.24,8.3 26,14.64 37.22,24.26 6.1,28.6 9.98,57.76 15.36,86.54 1.4,8.82 4.36,17.98 1.2,26.76 -7.9,25.36 -15.62,50.76 -23.5,76.14 -2.68,8.8 -6.54,17.74 -5.26,27.16 9.9,95.94 19.34,191.94 29.22,287.86 0.9,7.86 -0.44,15.72 -2.22,23.38 -7.5,37.98 -17.94,75.3 -27.52,112.78 l -184.28,0 c 4.66,-5.48 8.98,-12.48 7.6,-19.98 -2.1,-9.56 -7.2,-18.06 -10.92,-27.04 44.48,-35.92 89.1,-71.68 133.64,-107.56 7.4,-5.9 15.48,-11.5 20.32,-19.86 7.42,-11.08 7.38,-24.82 9.86,-37.46 1.6,-11.58 5.36,-23.28 2.98,-35.02 -12,-57.78 -24.64,-115.42 -35.9,-173.34 -0.52,-3.38 -1.58,-7.24 1.08,-10.04 7.98,-11.32 16.58,-22.24 24.54,-33.58 4.08,-5.82 6.8,-12.96 5.82,-20.14 -1.14,-7.84 -5.14,-14.8 -8.24,-21.96 -9.54,-21.26 -18.04,-42.96 -27.24,-64.36 -4.1,-8.64 -3.16,-18.36 -2.98,-27.62 1.42,-31.38 0.52,-62.78 1.52,-94.16 0.48,-8.04 -2.56,-15.64 -5.98,-22.72 -25.88,-54.08 -48.12,-109.8 -71.74,-164.88 -4.4,-10.64 -16.42,-13.62 -25.84,-18.16 -15.76,-7.5 -32.18,-13.64 -47.34,-22.38 -5.12,-2.8 -10.74,-4.48 -16.3,-6.08 -21.5,-6.08 -42.78,-12.84 -64.2,-19.16 -12.22,-3.7 -25.12,-2.06 -37.68,-2.34 -16.96,0.36 -33.98,-0.82 -50.9,0.66 -29.78,4.74 -59.5,10 -89.28,14.76 -7.74,0.98 -15.12,4.02 -21.12,9.02 -25.42,20.66 -50.8,41.36 -76.34,61.84 -10.76,7.38 -18.12,18.6 -21.24,31.22 -14.52,44.96 -30.5,89.44 -45,134.4 -4.24,17.5 -4.12,35.68 -6.74,53.42 -4.66,22.84 2.74,45.78 1.68,68.76 -1.1,3.96 -3.72,7.3 -5.94,10.72 -9.98,14.18 -19.56,28.64 -29.48,42.86 -4.16,6.18 -8.86,12.48 -9.94,20.06 -1.14,6.42 1.08,12.8 3.6,18.64 10.58,23.56 20.58,47.36 31.18,70.9 3.76,7.68 3.24,16.44 2.52,24.7 -5.58,56.56 -10.48,113.18 -16,169.74 -1.48,12.58 -1.72,25.58 1.98,37.82 1.02,3.6 3.5,6.54 6.12,9.12 35.9,32.78 71.4,66.02 107.32,98.78 7.26,5.8 8.32,15.44 9.78,23.96 -9.22,6.98 -19.36,15.8 -19.86,28.28 -0.88,6.6 2.3,12.64 5.44,18.18 l -204.22,0 c -1.14,-14.02 -2.54,-28.02 -3.92,-42.02 -1.74,-16.62 0.02,-33.32 0.56,-49.96 1.58,-28.32 0.16,-57.06 6.42,-84.92 13.06,-72.98 26.02,-145.98 39.14,-218.94 0.98,-4.24 0.28,-8.56 -1.5,-12.46 -8.82,-20.58 -17.96,-41.02 -26.3,-61.8 -1.78,-3.76 -1.3,-7.96 -0.76,-11.94 9,-56.6 17.64,-113.28 26.44,-169.9 0.72,-8.22 5.88,-16.12 13.94,-18.68 11.52,-3.74 23.54,-5.66 35.22,-8.84 9.24,-40.64 18.42,-81.32 27.42,-122.02 2.16,-9.24 6.64,-17.68 9.72,-26.6 4.82,-13.8 15.56,-24.18 25.18,-34.74 13.64,-14.38 26.6,-29.38 40.58,-43.46 10.14,-10.22 22.98,-17 35.06,-24.6 12.26,-7.42 24.02,-15.92 37.62,-20.8 23.42,-8.6 46.84,-17.24 70.26,-25.9 z"
     id="path6"
     inkscape:connector-curvature="0"
     style="fill:#f4722b" />
  <path
     style="fill:#f5e5c1"
     d="m 568.2,93.05 c -6.7525,-0.04 -13.55,0.4 -20.25,0.15 -18.58,0.54 -37.42,-1.53 -55.8,2.05 -26.12,4.5 -52.28,8.68 -78.4,13.1 -5.48,0.7 -10.32,3.54 -14.5,7 -25.68,20.96 -51.46,41.82 -77.2,62.7 -5.06,3.98 -8.98,9.27 -10.9,15.45 -15.12,44.86 -30.13,89.76 -45.35,134.6 -4.36,12.76 -4.07,26.43 -5.85,39.65 -0.98,12.72 -4.01,25.45 -2.55,38.25 1.52,16.62 2.3,33.26 3.5,49.9 -13.7,19.96 -27.24,40.08 -41,60 -2.1,3.28 -4.51,6.52 -5.35,10.4 0.06,3.56 1.73,6.81 3.05,10.05 10.68,23.7 20.72,47.7 31.4,71.4 6.26,12.56 3,27.04 2,40.4 -5.02,52.62 -9.73,105.28 -14.75,157.9 -1.02,9.98 -2.23,20.18 -0.15,30.1 0.34,2.96 2.48,5.15 4.5,7.15 38.84,36.06 78.02,71.76 116.7,108 1.24,11.3 3.77,22.46 4.75,33.8 -8.38,6.82 -19.31,12.62 -21.55,24.2 8.42,3.82 16.97,7.34 25.45,11 -1.58,0.94 -4.77,2.78 -6.35,3.7 l 33.9,0 c -2.94,-0.78 -5.9,-1.56 -8.8,-2.4 1.7,-2 3.38,-3.99 5.1,-5.95 7,2.84 13.98,5.81 21.1,8.35 l 75.6,0 c -10.26,-9.2 -19.63,-19.31 -29.95,-28.45 -15.6,-3.22 -30.27,-9.75 -45.45,-14.45 -10.32,-3.02 -20.25,-8.95 -31.35,-7.65 -0.7,-5.18 -1.44,-10.37 -2.2,-15.55 18.22,2.4 36.14,7.19 54.5,8.55 27.3,0.1 54.58,0.9 81.9,1 9.88,-0.1 20.13,1.25 29.65,-2.15 24.02,-7.9 48.16,-15.48 72.2,-23.4 5.72,-2.16 11.94,-1.31 17.9,-2.15 5.08,-1.7 8.28,-6.41 11.3,-10.55 9.94,-14.7 20.82,-28.71 31,-43.25 2.02,-3.34 5.4,-8.25 1.9,-11.75 -12.58,-14 -25.63,-27.62 -38.55,-41.3 3.34,-5.24 7.69,-10.48 7.85,-17 0.34,-6.76 -1,-13.45 -2.3,-20.05 -2.32,-10.4 -4.02,-20.99 -7.6,-31.05 -9.08,0.82 -18.16,1.58 -27.2,2.6 -7.66,0.82 -14.63,4.46 -22.25,5.5 -25.24,3.94 -50.48,7.8 -75.7,11.9 -9.52,1.88 -18.99,-0.88 -28.25,-2.8 -18.14,-4.06 -36.37,-7.74 -54.55,-11.5 -2.7,-0.96 -6.36,-0.88 -7.9,-3.7 -4.8,-7.54 -8.22,-15.94 -13.9,-22.9 -1.96,-12 -4.05,-23.96 -5.75,-36 -2.16,-7.3 5.63,-12.66 12.05,-13.3 11.56,-1.28 23.06,-3.17 34.5,-5.25 18.48,-2.14 37.14,-1.97 55.7,-3.45 17.36,0.44 34.69,2.17 52.05,3.05 17.8,0.94 35.05,6.98 52.95,6.2 -6.08,-17.12 -10.43,-34.93 -17.55,-51.65 -19.32,0.26 -38.35,5.32 -57.65,6.5 -0.22,-4.02 -0.45,-8 -0.65,-12 14.24,-3.5 28.62,-6.67 42.8,-10.45 10.06,-2.56 19.12,-13.85 15.1,-24.35 -13.48,-44.28 -25.15,-89.08 -39.25,-133.2 -3.4,-11.32 -8.74,-23.35 -4.6,-35.25 3.8,-6.76 10.19,-11.56 14.85,-17.7 5.68,2.9 10.95,8 17.55,8.3 8.5,-2.48 15.37,-8.47 22.95,-12.85 7.44,-4.34 14.38,-10.89 23.5,-11.05 21.34,-1.5 42.66,-3.05 64,-4.75 3.78,-0.08 7.75,-0.8 11.45,0.3 5.56,3.82 10.21,8.72 15.25,13.2 -6.9,7.3 -14.13,14.32 -20.35,22.2 -1.78,2.7 -4.42,5.96 -3.1,9.4 3.94,11.18 9.72,21.62 14.4,32.5 -4.02,8 -8.16,16 -11.1,24.5 9.28,3.34 19.02,5.18 28.7,7.1 -8.48,5.98 -17.04,11.87 -25.5,17.85 -27.22,-2.18 -54.37,-4.99 -81.55,-7.45 -8.72,-11.94 -17.08,-24.09 -26.3,-35.65 -7.26,3.54 -17.04,9.83 -14.1,19.35 4.38,17.22 7.58,34.76 13.3,51.6 10.24,-2.2 19.84,-9.6 30.7,-7 23.18,4.1 46.42,7.9 69.6,12 10.8,2.66 19.03,-6.58 27.75,-11.2 11.1,-7.84 26.28,-12.88 31.2,-26.8 3.86,-10.58 7.71,-21.15 10.95,-31.95 -6.76,-0.24 -12.72,2.97 -18.2,6.55 -0.06,-14.42 -0.81,-28.8 -0.85,-43.2 0.2,-9.76 -3.47,-18.92 -7.05,-27.8 4.3,-4.24 11.69,-8.59 10.05,-15.65 -14.52,-15.88 -34.57,-26.93 -44.65,-46.65 2.16,-14.46 14.91,-24.5 19.75,-38 0.92,-3.32 -0.37,-6.69 -0.85,-9.95 -5.1,-22 -9.95,-44.03 -14.95,-66.05 5.08,-5.62 12.19,-11.3 11.65,-19.7 -0.68,-12.96 -0.4,-26.09 -2.1,-38.95 -4.74,-10.06 -11.86,-18.79 -17.5,-28.35 4.66,2.16 9.32,4.34 14,6.5 22.22,52.28 44.28,104.62 66.5,156.9 3.12,7.64 7.57,15.16 7.45,23.7 -0.08,37.38 0,74.8 -0.1,112.2 -0.18,4.88 1.07,9.68 3.15,14.1 11.96,26.66 23.37,53.54 35.35,80.2 -9.02,12.52 -18.22,24.95 -27.4,37.35 -3.28,4.7 -7.53,10.03 -5.65,16.15 11.98,60.7 24.02,121.37 36.1,182.05 1.7,8.64 -0.91,17.29 -1.95,25.85 -1.6,8.78 -1.9,17.88 -4.3,26.5 -3.3,4.54 -8.26,7.52 -12.5,11.1 -35.86,28.72 -71.65,57.62 -107.45,86.4 -5.28,4.08 -10.02,8.9 -15.9,12.1 -8.48,2.34 -18.01,-0.25 -26.05,3.85 -5.26,3.38 -11.52,9.85 -8.2,16.55 5.26,12.84 11.11,25.42 16.45,38.2 -5.4,4.3 -10.13,9.38 -13.55,15.4 l 25.65,0 c -0.68,-1.06 -2.02,-3.16 -2.7,-4.2 5.16,-4.12 16.74,-7.93 12.9,-16.35 -4.9,-11.6 -10.3,-22.93 -15.6,-34.35 11.76,-2.62 20.03,-11.75 29.15,-18.85 38.46,-30.96 76.9,-61.95 115.4,-92.85 8.08,-6.48 17.37,-12.78 20.75,-23.1 2.92,-9.82 3.6,-20.16 5.6,-30.2 1.26,-8.46 4.04,-17.06 1.8,-25.6 -13.22,-61.64 -25.62,-123.46 -38.4,-185.2 9.64,-13.66 19.78,-26.98 29.6,-40.5 3.08,-4.14 6.07,-9.48 3.05,-14.5 -11.84,-27.04 -23.36,-54.25 -34.8,-81.45 -3.06,-6.48 -2.35,-13.81 -2.35,-20.75 0.48,-34.76 0.96,-69.49 1.1,-104.25 0.2,-4.98 -1.66,-9.67 -3.8,-14.05 -25.26,-53.66 -47.79,-108.52 -70.95,-163.1 -1.28,-3.72 -4.16,-6.5 -7.8,-7.9 -16.12,-7.28 -32.28,-14.48 -48.4,-21.8 -7.38,-3.3 -14.06,-8.07 -21.9,-10.35 -20.94,-6.22 -41.9,-12.41 -62.8,-18.85 -6.49,-2.17 -13.1975,-2.71 -19.95,-2.75 z m -286.1,266.3 c 1.36,11.68 8.85,24.03 3.25,35.55 -5.3,13.16 -10.1,26.54 -15.6,39.6 -0.14,-12.8 -0.87,-25.6 -0.95,-38.4 8.64,-10.32 9,-24.49 13.3,-36.75 z m 162.1,32.75 c 7.12,6.72 15.31,12.44 21.45,20.1 5.58,11.18 9.73,23.04 15.15,34.3 -7.26,17.32 -14.7,34.54 -22.1,51.8 -1.62,4.3 -5.92,6.42 -9.4,9 -9.54,6.36 -18.92,13.08 -28.5,19.4 -4.32,3.02 -9.8,2.76 -14.8,3.6 -18.02,1.88 -35.96,4.7 -54,6.4 -11.12,-1.62 -21.83,-5.52 -32.75,-8.2 -4.04,-26.84 -7.73,-53.72 -11.45,-80.6 0.52,-9.86 5.73,-18.86 8.05,-28.4 42.72,-9.44 85.57,-18.26 128.35,-27.4 z m 78.9,82.2 c 2.3725,-0.0125 4.84,0.41 7.15,0.55 3.68,11.16 7.23,22.39 11.15,33.45 0.72,2.62 3.25,3.92 5.15,5.6 2.36,6.04 4.48,12.16 6.6,18.3 -0.9,2.44 -2.09,4.83 -2.45,7.45 7.38,21.22 13.2,42.97 19.4,64.55 -32.62,3 -65.14,7.14 -97.8,9.7 -4.48,-7.8 -9.14,-15.49 -13.5,-23.35 13.66,-32.98 27.04,-66.12 40.5,-99.2 2.74,-7.6 11.26,-10.25 17.2,-14.85 1.94,-1.71 4.2275,-2.1875 6.6,-2.2 z m -254,148.2 c 19.18,4.94 37.86,11.59 56.9,17.05 4.2,1.46 9.61,2.01 11.75,6.55 9.72,15.8 19.27,31.72 29.05,47.5 -4.86,5.02 -11.25,10.58 -9.85,18.4 1.44,18.66 2.84,37.34 4.2,56 0.04,3.42 1.6,6.48 3.4,9.3 6.54,10.34 13.39,20.48 19.65,31 -11.18,-5.74 -22.24,-11.66 -33.4,-17.4 -8,-5.12 -16.42,4.02 -19.1,11.1 0.36,16.4 3.74,32.63 4.5,49.05 -2.28,-1.58 -4.2,-3.61 -5.1,-6.25 -6.88,-16.36 -13.74,-32.76 -20.7,-49.1 -2.64,-6.36 -6,-12.62 -6.6,-19.6 -4.24,-42.78 -8.89,-85.52 -13.15,-128.3 -0.28,-2.14 -0.6,-4.45 -2.2,-6.05 -6.18,-6.68 -13.81,-11.97 -19.35,-19.25 z"
     id="path10"
     inkscape:connector-curvature="0" />
  <path
     d="m 737.2,551.26 c 4.48,-3.2 9.42,-5.74 14.94,-6.44 4.58,23.66 8.12,47.52 12.44,71.22 3.46,10.88 -7.82,21.88 -18.52,20.72 -21.04,-0.04 -42.08,-0.04 -63.1,-0.02 -2.34,-9.68 -1.04,-21.88 7.36,-28.36 3.82,-3 8.5,-4.56 12.94,-6.46 0.54,-11.18 -5.06,-25.42 5,-33.84 8.68,-7.12 19.68,-10.56 28.94,-16.82 z"
     id="path20"
     inkscape:connector-curvature="0"
     style="fill:#f5e5c1" />
  <path
     d="m 494.2,695.25 c -12.44,0.58 -24.8,2.47 -37.2,3.75 -2.52,2.94 -5.34,5.61 -8.6,7.75 -1.38,-2.58 -2.72,-5.14 -4.1,-7.7 -11.42,1.12 -22.79,2.7 -34.05,4.8 1.24,9.26 2.73,18.48 4.15,27.7 0.84,0.46 2.53,1.39 3.35,1.85 -0.26,1.82 -0.82,5.46 -1.1,7.3 2,0.08 6,0.27 8,0.35 -2.58,0.16 -5.19,0.37 -7.75,0.55 3.96,7.08 7.99,14.13 11.55,21.45 23.8,5.54 47.71,10.53 71.55,15.95 7.3,1.7 14.74,-0.03 22,-1.15 20.7,-3.3 41.38,-6.57 62.1,-9.75 3.8,-0.9 8.93,-0.81 10.95,-4.85 2.36,-5.04 2.97,-10.68 4.45,-16 -10.8,-3.7 -22.32,-2.45 -33.5,-2.95 -4.44,-0.62 -6.46,4.06 -9.2,6.6 -5.32,-2.74 -11.11,-4.34 -16.95,-5.4 -5.62,-0.92 -11.48,-3.19 -17,-0.65 -1.5,-1.7 -3,-3.37 -4.5,-5.05 -7.54,-0.54 -15.03,-1.76 -22.55,-2.3 -4.98,-0.68 -7.76,4.3 -11.2,7 0.3,-3.56 0.6,-7.11 0.9,-10.65 4.44,-3.2 9.55,-6.48 11.25,-12 1.74,-8.88 1.93,-18.46 -2.55,-26.6 z m -43.45,16.95 c 1.58,6.78 2.89,13.61 4.25,20.45 1.12,0.46 3.33,1.39 4.45,1.85 -3.04,1.82 -6.69,3.3 -7.45,7.2 -4.06,-3.26 -8.88,-4.86 -14.1,-4.3 8.26,-5.86 10.75,-15.9 12.85,-25.2 z"
     id="path24"
     style="fill:#f5e5c1"
     inkscape:connector-curvature="0" />
  <path
     d="m 526.26,695.34 c 11.46,1.2 23,1.66 34.5,2.3 1.56,2.68 3.1,5.34 4.68,8.02 2.76,-2.06 5.14,-4.76 8.36,-6.12 12.4,-0.48 24.7,2.76 37.14,1.7 2.72,8.36 5.94,16.58 8.14,25.1 1.44,6.6 -4.82,11.18 -8.82,15.4 -3.96,-0.6 -7.88,-1.16 -11.82,-1.7 0.1,-1.92 0.32,-5.78 0.44,-7.72 -3.16,2.24 -6.2,4.64 -9.14,7.16 -7.64,-0.26 -15.26,-0.68 -22.88,-0.82 0.08,-1.48 0.26,-4.44 0.36,-5.92 -9.62,13.76 -27.94,7.84 -41.64,5.64 -0.44,-14.36 1.02,-28.68 0.68,-43.04 z"
     id="path26"
     inkscape:connector-curvature="0"
     style="fill:#f5e5c1" />
  <path
     d="m 931.28,939.68 c 4.12,-10.04 5.74,-20.82 7.7,-31.42 28.28,12.96 56.86,25.24 85.02,38.42 l 0,77.32 -125.26,0 c 11.16,-27.98 21.52,-56.28 32.54,-84.32 z"
     id="path30"
     inkscape:connector-curvature="0"
     style="fill:#f4722b" />
  <path
     d="m 0,961.42 c 25.8,-9.12 51.82,-17.62 77.76,-26.4 3.58,14.32 5.26,29.44 12.62,42.5 8.24,15.38 15.66,31.18 24.06,46.48 L 0,1024 0,961.42 z"
     id="path32"
     inkscape:connector-curvature="0"
     style="fill:#f4722b" />
</svg>
