<?xml version="1.0" encoding="UTF-8" ?>
<!DOCTYPE svg PUBLIC "-//W3C//DTD SVG 1.1//EN" "http://www.w3.org/Graphics/SVG/1.1/DTD/svg11.dtd">
<svg width="512pt" height="512pt" viewBox="0 0 512 512" version="1.1" xmlns="http://www.w3.org/2000/svg">
<path fill="#3e3e3e" opacity="1.00" d=" M 0.00 0.00 L 368.42 0.00 C 327.16 53.60 286.39 107.58 245.12 161.17 C 242.79 152.75 239.57 144.61 237.42 136.13 C 235.74 131.03 234.30 125.84 232.40 120.82 C 231.58 118.03 228.81 116.75 226.40 115.59 C 216.09 110.48 204.20 111.47 193.30 108.54 C 191.46 108.09 190.58 106.23 189.36 104.98 C 190.26 104.05 191.17 103.13 192.08 102.20 C 188.22 96.33 188.62 89.19 187.20 82.58 C 186.47 78.65 187.50 74.29 185.09 70.81 C 182.39 66.68 181.93 60.32 176.65 58.50 C 172.30 56.94 167.71 54.99 163.00 55.67 C 158.91 56.85 154.84 58.26 151.02 60.16 C 149.11 62.73 148.00 65.92 147.23 69.03 C 147.08 73.09 148.73 76.95 149.67 80.85 C 149.24 81.66 148.37 83.29 147.94 84.10 C 149.91 88.57 152.09 93.59 156.95 95.56 C 157.53 97.45 158.10 99.33 158.66 101.22 C 156.43 104.50 155.26 108.54 152.42 111.37 C 144.95 116.46 136.30 119.72 129.02 125.09 C 126.83 129.23 128.53 134.38 127.48 138.88 C 125.59 147.96 123.24 156.94 121.46 166.05 C 114.69 161.82 110.05 155.13 104.38 149.64 C 99.57 145.15 96.14 139.40 91.10 135.15 C 91.73 133.92 92.37 132.70 93.01 131.48 C 91.89 128.48 90.67 125.52 89.28 122.63 C 90.52 120.69 92.60 118.45 91.05 116.05 C 84.37 101.80 77.49 87.65 70.92 73.36 C 69.55 73.83 68.19 74.30 66.82 74.77 C 66.68 74.15 66.41 72.90 66.27 72.27 C 66.86 69.97 68.00 67.51 66.89 65.17 C 64.34 58.31 60.74 51.88 57.87 45.15 C 54.28 35.74 49.27 26.95 45.62 17.56 C 44.27 14.11 42.39 9.61 38.00 9.57 C 33.27 8.72 29.61 14.20 31.63 18.38 C 39.09 35.79 47.10 52.97 54.82 70.27 C 56.06 73.96 60.97 73.08 62.90 76.01 C 61.93 77.21 60.83 78.30 59.74 79.40 C 63.14 86.65 66.18 94.07 69.99 101.13 C 65.32 106.08 61.08 111.50 55.56 115.55 C 53.33 117.13 52.09 119.60 50.83 121.95 C 52.22 126.02 53.42 130.16 54.85 134.22 C 56.16 138.43 60.40 140.52 63.66 143.04 C 61.58 146.30 60.15 149.93 59.77 153.80 C 60.99 154.78 62.21 155.77 63.43 156.76 C 63.39 158.02 63.36 159.27 63.33 160.53 C 72.89 168.02 81.87 176.29 92.13 182.84 C 98.93 187.26 104.95 192.75 111.69 197.25 C 117.61 200.91 123.74 204.23 129.71 207.80 C 127.45 225.52 124.52 243.17 123.74 261.03 C 123.51 268.40 123.10 275.76 122.79 283.12 C 124.58 285.07 127.09 286.13 129.37 287.40 C 131.01 287.74 133.05 287.51 134.15 289.07 C 134.15 293.99 133.57 298.90 133.60 303.83 C 133.71 306.97 131.79 309.57 130.08 312.00 C 94.25 358.85 58.50 405.75 22.68 452.60 C 20.31 455.83 16.81 458.42 15.58 462.37 C 14.29 467.26 17.92 471.58 21.56 474.33 C 29.32 480.10 38.64 483.23 47.78 486.08 C 70.39 492.66 93.81 495.93 117.18 498.33 C 162.97 502.68 209.14 502.88 254.98 499.24 C 277.45 497.31 299.92 494.53 321.91 489.40 C 336.47 485.86 351.34 481.63 363.48 472.49 C 412.98 333.99 462.47 195.48 512.00 56.99 L 512.00 512.00 L 0.00 512.00 L 0.00 0.00 Z" />
<path fill="#f5e5c1" opacity="1.00" d=" M 368.42 0.00 L 512.00 0.00 L 512.00 56.99 C 462.47 195.48 412.98 333.99 363.48 472.49 C 351.34 481.63 336.47 485.86 321.91 489.40 C 299.92 494.53 277.45 497.31 254.98 499.24 C 209.14 502.88 162.97 502.68 117.18 498.33 C 93.81 495.93 70.39 492.66 47.78 486.08 C 38.64 483.23 29.32 480.10 21.56 474.33 C 17.92 471.58 14.29 467.26 15.58 462.37 C 16.81 458.42 20.31 455.83 22.68 452.60 C 58.50 405.75 94.25 358.85 130.08 312.00 C 131.79 309.57 133.71 306.97 133.60 303.83 C 133.57 298.90 134.15 293.99 134.15 289.07 C 133.05 287.51 131.01 287.74 129.37 287.40 C 127.09 286.13 124.58 285.07 122.79 283.12 C 123.10 275.76 123.51 268.40 123.74 261.03 C 124.52 243.17 127.45 225.52 129.71 207.80 C 123.74 204.23 117.61 200.91 111.69 197.25 C 104.95 192.75 98.93 187.26 92.13 182.84 C 81.87 176.29 72.89 168.02 63.33 160.53 C 63.36 159.27 63.39 158.02 63.43 156.76 C 62.21 155.77 60.99 154.78 59.77 153.80 C 60.15 149.93 61.58 146.30 63.66 143.04 C 60.40 140.52 56.16 138.43 54.85 134.22 C 53.42 130.16 52.22 126.02 50.83 121.95 C 52.09 119.60 53.33 117.13 55.56 115.55 C 61.08 111.50 65.32 106.08 69.99 101.13 C 66.18 94.07 63.14 86.65 59.74 79.40 C 60.83 78.30 61.93 77.21 62.90 76.01 C 60.97 73.08 56.06 73.96 54.82 70.27 C 47.10 52.97 39.09 35.79 31.63 18.38 C 29.61 14.20 33.27 8.72 38.00 9.57 C 42.39 9.61 44.27 14.11 45.62 17.56 C 49.27 26.95 54.28 35.74 57.87 45.15 C 60.74 51.88 64.34 58.31 66.89 65.17 C 68.00 67.51 66.86 69.97 66.27 72.27 C 66.41 72.90 66.68 74.15 66.82 74.77 C 68.19 74.30 69.55 73.83 70.92 73.36 C 77.49 87.65 84.37 101.80 91.05 116.05 C 92.60 118.45 90.52 120.69 89.28 122.63 C 90.67 125.52 91.89 128.48 93.01 131.48 C 92.37 132.70 91.73 133.92 91.10 135.15 C 96.14 139.40 99.57 145.15 104.38 149.64 C 110.05 155.13 114.69 161.82 121.46 166.05 C 123.24 156.94 125.59 147.96 127.48 138.88 C 128.53 134.38 126.83 129.23 129.02 125.09 C 136.30 119.72 144.95 116.46 152.42 111.37 C 155.26 108.54 156.43 104.50 158.66 101.22 C 158.10 99.33 157.53 97.45 156.95 95.56 C 152.09 93.59 149.91 88.57 147.94 84.10 C 148.37 83.29 149.24 81.66 149.67 80.85 C 148.73 76.95 147.08 73.09 147.23 69.03 C 148.00 65.92 149.11 62.73 151.02 60.16 C 154.84 58.26 158.91 56.85 163.00 55.67 C 167.71 54.99 172.30 56.94 176.65 58.50 C 181.93 60.32 182.39 66.68 185.09 70.81 C 187.50 74.29 186.47 78.65 187.20 82.58 C 188.62 89.19 188.22 96.33 192.08 102.20 C 191.17 103.13 190.26 104.05 189.36 104.98 C 190.58 106.23 191.46 108.09 193.30 108.54 C 204.20 111.47 216.09 110.48 226.40 115.59 C 228.81 116.75 231.58 118.03 232.40 120.82 C 234.30 125.84 235.74 131.03 237.42 136.13 C 239.57 144.61 242.79 152.75 245.12 161.17 C 286.39 107.58 327.16 53.60 368.42 0.00 Z" />
<path fill="#3e3e3e" opacity="1.00" d=" M 138.53 300.57 C 174.13 254.33 209.72 208.07 245.30 161.81 C 248.03 171.22 250.72 180.64 253.09 190.14 C 254.32 195.86 258.56 200.30 260.01 205.95 C 262.32 214.51 266.16 222.98 265.46 232.03 C 265.43 257.02 265.41 282.01 265.52 307.00 C 266.03 311.56 263.10 315.47 260.88 319.18 C 258.63 319.79 256.28 319.95 253.97 320.23 C 252.68 321.30 251.40 322.36 250.12 323.43 C 248.61 323.44 247.11 323.45 245.60 323.46 C 245.06 322.06 244.51 320.67 243.97 319.27 C 246.20 317.80 248.70 316.64 250.58 314.71 C 252.25 312.09 252.70 308.95 252.87 305.90 C 252.08 307.89 251.37 309.90 250.68 311.93 C 248.94 312.63 247.20 313.42 245.35 313.78 C 245.20 310.16 245.85 306.58 246.10 302.99 C 246.26 299.66 244.70 296.39 245.53 293.08 C 246.15 290.20 247.91 287.77 248.91 285.05 C 247.51 283.36 246.75 281.34 246.35 279.21 C 245.26 279.05 244.17 278.90 243.09 278.75 C 240.73 267.15 238.21 255.58 236.03 243.94 C 234.66 236.32 234.62 228.47 232.50 220.98 C 230.32 212.85 227.87 204.80 225.93 196.61 L 224.31 196.73 C 227.49 222.27 232.33 247.59 235.79 273.10 C 236.97 278.82 238.22 284.55 238.49 290.40 C 233.91 292.01 229.11 292.81 224.43 294.08 C 224.36 303.39 225.07 312.69 224.80 322.00 C 225.66 331.97 225.31 341.98 225.37 351.98 C 225.33 357.30 225.62 362.64 224.97 367.94 C 224.13 373.36 227.44 378.09 229.05 383.02 C 232.92 391.34 235.04 400.29 237.79 409.00 C 240.52 417.90 243.71 426.69 245.71 435.79 C 243.59 437.26 242.49 439.59 241.51 441.88 C 242.30 444.53 242.78 447.31 243.95 449.85 C 245.07 451.64 247.26 452.43 248.51 454.12 C 249.81 459.05 251.83 463.85 252.37 468.96 C 251.90 472.28 251.33 475.61 251.42 478.99 C 251.17 481.36 251.63 484.62 249.06 485.87 C 245.51 482.41 242.58 478.35 238.57 475.38 C 233.92 469.44 231.44 462.18 229.26 455.04 C 229.39 450.68 231.82 446.25 229.38 442.08 C 225.21 442.56 221.02 442.81 216.83 442.95 C 214.46 424.93 211.51 407.00 208.92 389.01 C 208.46 385.18 206.69 381.73 205.62 378.08 C 205.27 375.33 205.04 372.53 203.93 369.95 C 198.11 354.39 195.33 337.85 188.70 322.59 C 185.36 313.17 181.61 303.92 178.23 294.52 C 176.51 294.37 174.80 294.22 173.08 294.07 C 167.70 314.92 163.62 336.08 157.94 356.84 C 157.59 372.88 157.90 388.95 157.79 405.01 C 158.38 412.04 158.34 419.11 158.93 426.15 C 156.27 427.43 153.50 428.48 150.60 429.04 C 149.77 436.62 151.79 444.29 150.77 451.77 C 147.40 452.88 143.60 451.99 140.31 453.48 C 134.63 456.19 129.97 460.67 124.26 463.29 C 117.78 464.00 111.36 465.27 104.88 466.05 C 103.61 465.93 102.33 465.83 101.06 465.74 C 105.02 461.60 110.35 459.38 114.83 455.99 C 120.51 449.27 128.37 445.02 136.06 441.09 C 136.19 437.36 137.10 433.10 134.87 429.80 C 131.61 428.29 127.79 429.72 124.37 428.88 C 121.95 427.47 124.51 424.94 124.75 423.04 C 125.88 417.09 126.35 411.03 127.58 405.09 C 129.74 394.83 128.79 384.21 130.84 373.94 C 131.46 370.17 133.41 366.81 134.20 363.11 C 133.90 361.03 133.24 358.98 133.50 356.86 C 134.14 349.49 131.57 342.27 132.20 334.89 C 132.80 326.24 132.34 317.51 133.73 308.94 C 133.96 305.52 136.65 303.18 138.53 300.57 Z" />
</svg>
