<?xml version="1.0" encoding="UTF-8" standalone="no"?>
<svg
   xmlns:dc="http://purl.org/dc/elements/1.1/"
   xmlns:cc="http://creativecommons.org/ns#"
   xmlns:rdf="http://www.w3.org/1999/02/22-rdf-syntax-ns#"
   xmlns:svg="http://www.w3.org/2000/svg"
   xmlns="http://www.w3.org/2000/svg"
   xmlns:sodipodi="http://sodipodi.sourceforge.net/DTD/sodipodi-0.dtd"
   xmlns:inkscape="http://www.inkscape.org/namespaces/inkscape"
   width="1280"
   height="720"
   viewBox="0 0 1024 576"
   version="1.1"
   id="svg2"
   inkscape:version="0.47 r22583"
   sodipodi:docname="assist_capturer.svg">
  <metadata
     id="metadata38">
    <rdf:RDF>
      <cc:Work
         rdf:about="">
        <dc:format>image/svg+xml</dc:format>
        <dc:type
           rdf:resource="http://purl.org/dc/dcmitype/StillImage" />
        <dc:title></dc:title>
      </cc:Work>
    </rdf:RDF>
  </metadata>
  <defs
     id="defs36">
    <inkscape:perspective
       sodipodi:type="inkscape:persp3d"
       inkscape:vp_x="0 : 263.75 : 1"
       inkscape:vp_y="0 : 1000 : 0"
       inkscape:vp_z="527.5 : 263.75 : 1"
       inkscape:persp3d-origin="263.75 : 175.83333 : 1"
       id="perspective40" />
  </defs>
  <sodipodi:namedview
     pagecolor="#ffffff"
     bordercolor="#666666"
     borderopacity="1"
     objecttolerance="10"
     gridtolerance="10"
     guidetolerance="10"
     inkscape:pageopacity="0"
     inkscape:pageshadow="2"
     inkscape:window-width="1280"
     inkscape:window-height="738"
     id="namedview34"
     showgrid="false"
     inkscape:snap-global="true"
     inkscape:snap-page="true"
     inkscape:zoom="0.47584683"
     inkscape:cx="640.00002"
     inkscape:cy="350.58938"
     inkscape:window-x="-8"
     inkscape:window-y="-8"
     inkscape:window-maximized="1"
     inkscape:current-layer="svg2" />
  <path
     d="M 5.5e-6,-31.999997 1024,-31.999997 1024,608 l -1023.9999945,0 0,-639.999997 z"
     id="path4"
     style="fill:#3e3e3e" />
  <path
     d="m 442.09922,49.902689 c 2.80949,-0.828433 5.79906,-0.468245 8.68057,-0.5523 43.64298,0.084 87.28594,-0.024 130.92892,0.048 3.26571,-0.552289 5.97915,2.413267 5.95513,5.546922 0.15607,21.995578 0.036,43.991156 0.06,65.974719 -9.74913,7.73207 -15.7763,18.68184 -22.54786,28.85119 -7.7921,-5.31881 -16.00442,-9.96524 -24.37284,-14.29952 -14.21547,-6.79558 -29.58357,-10.52954 -44.63948,-14.91186 -8.1763,-2.42526 -16.26857,-5.09067 -24.40886,-7.61201 -9.35291,-2.47329 -16.82084,-9.04075 -23.89257,-15.308041 -3.74597,-3.121656 -6.55545,-7.287845 -8.41643,-11.7662 -0.50426,-9.8692 -0.048,-19.786411 -0.20411,-29.679622 -0.25213,-2.461289 0.80443,-4.874567 2.85751,-6.2913 z"
     id="path6"
     style="fill:#f4722b" />
  <path
     d="m 420.24772,58.451189 c 2.31721,1.872978 2.6414,5.078667 3.95008,7.624011 2.14913,4.442333 3.76998,9.112789 5.85909,13.579144 4.80252,8.764612 10.60158,17.036956 17.56524,24.240756 9.65309,9.3049 22.67994,13.36303 34.98641,17.81739 7.44393,2.71342 15.41612,3.56587 22.88405,6.21927 13.1109,4.53838 26.36588,8.77661 38.90048,14.77977 5.06666,2.80948 10.09731,5.71501 15.16397,8.53649 0.97252,4.29827 -1.78893,8.05625 -3.46982,11.7662 -4.56241,7.85214 -10.60158,14.85181 -17.62529,20.61485 -3.67392,3.27772 -7.66002,6.35134 -12.23442,8.23633 -3.13365,0.91248 -6.44739,0.24012 -9.54502,-0.46824 -18.70585,-4.7425 -37.54377,-8.9207 -56.4057,-13.02686 -6.23128,-0.9365 -10.00127,-6.4714 -13.90331,-10.81769 -3.46984,-3.38578 -6.12324,-7.49194 -8.35641,-11.7662 -4.2022,-8.50047 -9.9052,-16.32858 -12.59463,-25.52543 -3.95006,-9.89321 -7.55196,-20.08657 -8.63253,-30.74818 -0.20411,-6.759556 -0.37219,-13.543133 0.61232,-20.242656 0.42021,-7.0237 2.8695,-13.759244 2.84549,-20.818955 z"
     id="path8"
     style="fill:#f5e5c1" />
  <path
     d="m 630.76652,105.15577 c 10.50552,-3.50586 21.64739,-2.2692 32.52512,-2.42528 9.42496,1.15261 18.76587,3.33775 27.78263,6.30331 7.55197,4.10617 13.77124,10.18137 20.47077,15.48816 3.58988,2.70142 5.43887,7.85213 10.24139,8.7406 4.89858,0.27614 10.08531,-0.79242 14.59969,1.7049 -5.81108,6.6275 -14.20348,9.97725 -20.72291,15.74028 -6.54344,7.9842 -12.78673,16.28056 -18.20158,25.09322 -11.06983,18.40567 -14.28752,39.98103 -19.63033,60.45181 -2.24518,14.51564 -6.08721,28.81516 -12.01832,42.27424 -10.4455,26.94219 -25.20127,52.08341 -42.73049,75.01549 -8.65657,12.3545 -20.15862,22.2357 -30.7602,32.82527 -12.71469,11.12986 -26.36588,21.19115 -40.65339,30.2199 -5.76304,3.09763 -11.7662,5.72703 -17.6613,8.57253 -12.46256,6.00316 -26.2218,8.84864 -39.95703,9.85718 -15.33207,-0.27615 -29.31944,-8.02022 -41.52985,-16.65276 -8.75261,-6.47141 -15.70428,-15.03192 -21.56335,-24.13271 -9.78516,-13.20694 -18.51375,-27.15829 -26.84614,-41.32574 -7.91216,-16.76083 -19.05403,-31.85277 -31.99684,-45.04771 -4.63445,-5.1147 -12.04235,-6.38737 -18.6338,-5.90712 -12.21043,2.79748 -22.07962,11.30996 -34.01391,14.79178 -7.25181,-16.11248 -15.48815,-31.79273 -22.09162,-48.20536 -5.40284,-17.06098 -8.5485,-34.7823 -10.06129,-52.59968 0.39621,-17.07299 -1.34471,-34.26605 0.84044,-51.26699 4.08215,-0.75639 7.25181,2.23318 10.57757,4.03413 9.16081,5.66698 18.66982,10.80568 27.66255,16.74881 10.18136,8.59653 19.94249,17.72133 30.39999,26.00569 5.41486,3.66192 11.08185,7.4199 17.62529,8.63254 3.83001,0.76841 7.57598,1.99304 11.45402,2.52133 4.71849,0.67235 9.67709,-0.39621 14.15546,1.62084 8.42842,11.30996 15.84833,23.44835 25.41737,33.86984 7.66003,7.23981 14.85182,15.4041 24.39684,20.21864 0.25213,-1.44077 0.51627,-2.89353 0.78042,-4.32228 -7.98421,-4.1782 -13.8553,-11.17787 -19.84645,-17.69731 -5.33081,-5.1387 -9.40096,-11.35798 -14.11943,-17.02496 -8.69258,-10.54156 -17.19306,-21.61137 -22.07962,-34.49416 -8.40443,-15.45213 -15.00791,-31.84076 -20.27868,-48.61358 -3.14566,-8.89669 -3.36176,-18.50174 -3.5899,-27.84265 0.46826,-8.27236 -0.10811,-16.67679 1.7049,-24.82907 2.91755,5.93111 4.38232,12.5466 8.12829,18.06951 6.93966,12.94281 18.57377,22.28372 28.74313,32.54912 7.0357,7.72007 16.60474,12.30648 24.99716,18.32164 6.37535,4.64645 14.4556,5.37884 21.4913,8.58453 9.54502,4.59842 20.48278,3.95008 30.44802,7.11974 10.09733,3.40979 20.78294,4.68247 30.7602,8.48847 12.3665,3.45782 25.34535,7.52797 34.61422,16.89289 5.93113,7.29984 10.76966,15.80032 12.43854,25.16524 0.62433,6.6515 2.38926,13.15893 2.6534,19.85846 0.70837,-0.012 2.11311,-0.036 2.82148,-0.048 -0.13206,-16.22054 -2.38926,-33.98989 -14.17946,-46.17631 -7.64803,-7.62401 -17.4692,-12.89479 -27.78262,-16.00442 13.60316,-7.68405 25.10521,-19.15008 33.31753,-32.44107 5.03065,-7.04771 10.28941,-13.95134 14.52765,-21.52733 13.37504,-18.2376 32.54913,-33.49764 55.37314,-37.19558 z"
     id="path10"
     style="fill:#f5e5c1" />
  <path
     d="m 671.7561,126.80316 c 5.06667,-1.27267 9.86919,5.23475 6.99968,9.6891 -1.7169,3.57788 -6.98767,4.5624 -9.77314,1.71691 -3.70996,-3.20569 -2.0771,-10.22939 2.77346,-11.40601 z"
     id="path12"
     style="fill:#3e3e3e" />
  <path
     d="m 275.29543,219.53997 c -0.51626,-3.85403 3.24171,-5.54693 6.2553,-6.4714 1.38073,9.36492 2.68941,18.74185 3.84201,28.1308 2.01707,9.84517 4.65846,19.5703 7.7681,29.10331 7.87615,17.75735 16.1485,35.34661 23.9646,53.11596 1.65688,0.012 3.38579,0.012 4.86257,-0.82843 8.5485,-4.23823 17.07299,-8.48847 25.63349,-12.67868 6.54343,-3.28973 15.17599,-3.46983 21.01106,1.38073 3.4098,3.0256 6.42337,6.50742 9.04075,10.2534 8.75261,13.45908 17.44519,26.95418 26.26983,40.36524 -40.46128,0.10811 -80.92258,0 -121.38388,0.048 -2.94155,0.22812 -6.55546,-1.12859 -7.09574,-4.3823 -0.39621,-3.16968 -0.1921,-6.37536 -0.21611,-9.55702 0.06,-42.82656 -0.036,-85.65309 0.048,-128.47964 z"
     id="path14"
     style="fill:#f4722b" />
  <path
     d="m 367.99622,213.64487 c 8.47646,-0.3602 16.95292,-0.10811 25.42939,-0.1801 0.36019,1.96903 0.72038,3.92606 1.08057,5.90711 -9.18484,0.16809 -18.10554,-2.14912 -26.50996,-5.72701 z"
     id="path16"
     style="fill:#f4722b" />
  <path
     d="m 687.65247,214.04108 c 2.07709,-0.99654 4.51437,-0.46825 6.75955,-0.61232 16.43665,0.096 32.8853,0.024 49.32197,0.024 2.50931,-0.012 5.53491,0.30015 7.05971,2.60536 2.41327,3.50585 1.68089,7.93618 1.78894,11.94629 -0.048,41.62591 -0.036,83.25181 0,124.88973 0.12007,3.45783 -1.45276,7.45594 -4.89858,8.7406 -2.88152,0.56429 -5.84707,0.28816 -8.75262,0.33618 -38.7564,-0.084 -77.51278,0.048 -116.26918,-0.06 12.11438,-15.5842 23.95261,-31.50458 33.17346,-49.0098 9.44897,-17.15702 17.51721,-35.17851 22.76398,-54.07645 3.20568,-14.87583 5.79904,-29.91975 9.05277,-44.78357 z"
     id="path18"
     style="fill:#f4722b" />
  <path
     d="m 505.16842,270.30268 c 8.41644,-2.25718 17.84138,-0.70838 24.91311,4.46635 9.06477,6.30333 14.02338,17.98547 12.10238,28.8872 -2.04108,13.79527 -14.92387,25.15326 -28.97127,24.75704 -15.88434,0.7564 -30.70014,-13.67519 -29.72763,-29.67963 -0.60032,-13.06286 9.20885,-25.20126 21.68341,-28.43096 z"
     id="path20"
     style="fill:#3e3e3e" />
  <path
     d="m 662.10301,374.4575 c 3.28973,2.96557 6.02718,6.61549 9.74913,9.07678 12.22245,5.48689 26.46193,2.6654 38.5763,8.5605 2.85752,1.26068 3.86605,4.64645 3.73397,7.53998 0.48026,5.25876 -4.01011,9.13681 -8.03222,11.67014 -8.52448,3.84201 -19.46225,2.25719 -26.19779,-4.39431 -10.0733,-7.7801 -16.05246,-20.01455 -17.82939,-32.45309 z"
     id="path22"
     style="fill:#f4722b" />
  <path
     d="m 349.33841,382.20158 c 2.68941,-2.1011 3.66192,-6.12322 7.47993,-6.65149 -0.43222,6.50741 -3.78198,12.22242 -7.07172,17.67329 -3.34976,6.41138 -8.98072,11.36999 -15.04391,15.17599 -6.78358,4.26224 -15.63223,4.92259 -23.08817,2.0891 -4.34627,-2.32923 -8.89667,-6.67551 -8.14027,-12.07836 -0.084,-4.65845 4.68246,-8.30837 9.1248,-8.17631 8.50047,0 17.109,-0.06 25.46541,-1.88498 4.31026,-0.81644 7.94816,-3.43381 11.27393,-6.14724 z"
     id="path24"
     style="fill:#f4722b" />
  <path
     d="m 550.33619,423.34723 c 13.1109,-8.06824 26.42591,-16.12447 37.44772,-26.9782 -0.14409,41.13367 0.036,82.27931 -0.084,123.42497 0.45625,4.04612 -3.39779,6.93964 -7.17977,6.62749 -44.48342,0.0721 -88.96683,0.024 -133.45024,0.024 -2.96557,0.12007 -6.2553,-0.99653 -7.50396,-3.90206 -0.37218,-1.7169 -0.32416,-3.48183 -0.34816,-5.19873 0.12005,-35.05846 -0.084,-70.1049 0.096,-105.15134 4.56241,4.71848 8.18831,10.42148 13.75924,14.08341 13.53112,10.4455 30.91628,16.77283 48.13334,14.39559 8.1643,-1.40475 16.68878,-2.05309 24.22875,-5.72703 8.39242,-3.67393 16.74882,-7.43191 24.9011,-11.59811 z"
     id="path26"
     style="fill:#f4722b" />
  <path
     d="m 401.03762,439.68783 c 0.61231,-0.012 1.83697,-0.024 2.44929,-0.024 0.49226,6.35135 0.36018,12.77471 -1.21264,18.98199 -1.96904,12.1624 -7.64803,24.82907 -18.86193,31.04834 -4.26224,2.97756 -10.12133,2.60536 -14.58768,0.27614 -3.40979,-2.20916 -4.70648,-6.31532 -6.21928,-9.88119 0.96051,-3.57789 1.94503,-7.49195 5.19874,-9.72512 5.96715,-4.43035 13.50711,-6.09922 19.49826,-10.57758 7.14376,-4.31027 12.77474,-11.68214 13.73524,-20.09858 z"
     id="path28"
     style="fill:#f4722b" />
  <path
     d="m 614.50998,440.54028 2.70141,0.43223 c 1.50079,4.81453 1.74091,10.14535 4.71849,14.39558 2.64139,4.87455 8.30838,6.37535 12.85876,8.83665 6.23127,3.4338 13.8913,4.55039 18.8259,10.03728 4.57442,5.55894 1.53682,14.88784 -5.30678,16.92891 -5.10269,1.16461 -10.88974,0.79243 -15.09195,-2.62939 -4.73049,-4.17818 -9.3289,-8.81263 -11.83822,-14.70774 -4.80255,-10.36144 -6.74756,-21.92353 -6.86761,-33.29352 z"
     id="path30"
     style="fill:#f4722b" />
  <path
     d="m 500.7501,463.52038 2.32921,-0.108 c 0.40822,3.10962 0.84046,6.23126 0.79243,9.37692 -0.25213,9.13681 3.49385,17.70932 5.11469,26.55798 0.39621,5.76303 -0.39621,13.00285 -5.85907,16.26856 -2.48532,2.00506 -5.59496,0.31217 -8.18832,-0.49225 -1.03255,-2.76146 -2.0651,-5.60696 -1.90901,-8.59653 0.70838,-14.65972 8.40441,-28.19085 7.72007,-43.00664 z"
     id="path32"
     style="fill:#3e3e3e" />
</svg>
