<?xml version="1.0" encoding="UTF-8" standalone="no"?>
<svg
   xmlns:dc="http://purl.org/dc/elements/1.1/"
   xmlns:cc="http://creativecommons.org/ns#"
   xmlns:rdf="http://www.w3.org/1999/02/22-rdf-syntax-ns#"
   xmlns:svg="http://www.w3.org/2000/svg"
   xmlns="http://www.w3.org/2000/svg"
   xmlns:sodipodi="http://sodipodi.sourceforge.net/DTD/sodipodi-0.dtd"
   xmlns:inkscape="http://www.inkscape.org/namespaces/inkscape"
   width="1280"
   height="1280"
   viewBox="0 0 1024 1024"
   version="1.1"
   id="svg3180"
   inkscape:version="0.47 r22583"
   sodipodi:docname="assist_heavy_long.svg">
  <metadata
     id="metadata3268">
    <rdf:RDF>
      <cc:Work
         rdf:about="">
        <dc:format>image/svg+xml</dc:format>
        <dc:type
           rdf:resource="http://purl.org/dc/dcmitype/StillImage" />
      </cc:Work>
    </rdf:RDF>
  </metadata>
  <defs
     id="defs3266">
    <inkscape:perspective
       sodipodi:type="inkscape:persp3d"
       inkscape:vp_x="0 : 263.75 : 1"
       inkscape:vp_y="0 : 1000 : 0"
       inkscape:vp_z="527.5 : 263.75 : 1"
       inkscape:persp3d-origin="263.75 : 175.83333 : 1"
       id="perspective3270" />
  </defs>
  <sodipodi:namedview
     pagecolor="#ffffff"
     bordercolor="#666666"
     borderopacity="1"
     objecttolerance="10"
     gridtolerance="10"
     guidetolerance="10"
     inkscape:pageopacity="0"
     inkscape:pageshadow="2"
     inkscape:window-width="1280"
     inkscape:window-height="738"
     id="namedview3264"
     showgrid="false"
     inkscape:zoom="0.36"
     inkscape:cx="452.98729"
     inkscape:cy="665.4321"
     inkscape:window-x="-8"
     inkscape:window-y="-8"
     inkscape:window-maximized="1"
     inkscape:current-layer="svg3180" />
  <path
     d="m 0,0 1024,0 0,1024 L 0,1024 0,0 z"
     id="path3182"
     style="fill:#3e3e3e" />
  <path
     d="m 656.20929,67.16664 c 13.4673,-3.42143 25.06616,7.35241 38.3636,7.76492 3.66408,4.22218 9.65763,8.27451 8.17744,14.7291 -1.3346,8.27451 -4.53763,16.16076 -5.82369,24.45953 9.19658,3.30009 23.14919,1.69858 27.4199,12.47242 1.3346,9.05099 -2.76626,17.73801 -5.09573,26.30369 -2.6692,8.15318 -5.16854,19.36379 -15.57839,20.31015 -7.81346,-1.74711 -15.11735,-5.12 -22.61536,-7.7892 -5.38692,10.99223 -4.75602,27.61403 -18.36891,32.24872 -15.82104,-3.88246 -35.16057,-5.24133 -45.32777,-19.82483 2.98464,-9.58484 5.92076,-19.16967 8.39583,-28.9001 -10.33706,-3.44568 -26.69194,-1.94123 -29.72512,-15.40853 -1.06768,-7.86199 2.62066,-15.38426 4.46483,-22.88227 2.5964,-8.00759 4.51337,-18.22332 13.44304,-21.57195 9.70616,-0.21838 18.61156,4.78029 27.58976,7.88626 4.46483,-9.85175 3.83393,-24.411 14.68057,-29.79791 z"
     id="path3184"
     style="fill:#f4722b" />
  <path
     d="m 468.22521,99.14844 c 6.06635,-5.04721 14.68057,-2.71773 21.91166,-3.61555 8.32304,0.29119 19.31526,-2.47507 24.62939,6.01782 4.17365,8.12891 2.66919,17.64095 3.22729,26.44929 10.50692,0.0728 22.66389,-3.66408 31.25384,4.4163 1.60152,13.20038 4.31925,26.8618 1.57725,40.03792 -5.82369,11.25914 -20.16455,7.30388 -30.35601,8.37156 -0.0728,8.88114 1.2618,17.90787 -0.36399,26.69195 -4.02805,9.65763 -16.37914,8.97819 -25.06616,9.60909 -9.17232,-0.16985 -22.59109,2.49934 -27.03166,-8.05611 -1.52872,-8.58995 -1.2618,-17.42256 -2.66919,-26.03678 -9.05099,0.24266 -18.27185,1.67432 -27.22578,-0.0485 -5.07147,-4.56189 -6.57593,-11.62313 -6.89138,-18.15052 -0.41251,-11.18635 -2.69346,-23.85289 5.50825,-33.00095 9.29365,0.19413 18.56303,-0.58237 27.75962,-1.98976 -0.21839,-10.02161 -6.09061,-23.53744 3.73687,-30.69573 z"
     id="path3186"
     style="fill:#f4722b" />
  <path
     d="m 329.76682,157.21555 c 5.67811,-2.71773 12.76361,-8.25024 18.80569,-3.39716 6.28474,5.14426 9.14806,13.10332 13.05479,19.97043 8.37156,-3.39716 18.53877,-15.02029 27.25005,-6.93991 6.50312,8.29877 11.74445,17.81081 15.26293,27.75962 2.74199,11.13782 -9.77895,16.20929 -18.00492,19.41232 1.09194,9.26939 9.48777,16.84019 7.86199,26.35223 -6.16342,10.84664 -19.19394,15.26294 -30.01631,20.09175 -12.95772,4.12512 -16.30635,-12.22976 -22.68815,-19.67924 -8.39583,1.01915 -14.92322,8.32304 -23.53744,8.2745 -6.91564,-2.23241 -10.07014,-9.36644 -13.63716,-15.06881 -3.90673,-7.18256 -9.4635,-15.06882 -6.64872,-23.65877 5.99356,-5.50824 13.68569,-8.54142 20.69839,-12.52095 -3.61554,-8.46862 -11.93858,-16.96151 -8.58995,-26.7162 4.87735,-6.77005 13.34597,-9.58484 20.18881,-13.87981 z"
     id="path3188"
     style="fill:#f4722b" />
  <path
     d="m 911.52986,212.5164 c 17.30123,-24.94484 57.26635,-29.09422 79.03241,-7.74067 -15.79677,-3.59128 -34.55393,-5.82369 -48.36094,4.58617 -6.93991,5.0472 -13.61289,10.70104 -18.75716,17.61668 -5.55678,7.37668 -6.67299,16.79166 -7.98332,25.64853 4.92588,5.09573 9.94882,10.09441 15.16588,14.89896 -4.75602,0.94635 -9.48777,1.98976 -14.21953,2.98464 -12.01137,-9.41498 -24.62938,-20.28588 -40.57175,-21.37782 -17.22844,-2.25668 -34.23848,5.70237 -46.34692,17.56815 -12.90919,13.80702 -16.11223,34.16569 -12.15697,52.14635 1.94124,7.03697 4.73176,13.80702 6.74579,20.81972 -10.91944,-10.09441 -21.91166,-22.93081 -22.5183,-38.55773 -2.69346,-20.89251 10.07014,-41.22692 27.46844,-51.95222 12.98199,-9.09953 28.92436,-12.9092 44.59981,-13.32171 10.09441,0.12133 19.50938,4.17365 29.09422,6.86711 1.38312,-10.38559 2.69346,-21.32929 8.80834,-30.18616 z"
     id="path3190"
     style="fill:#f5e5c1" />
  <path
     d="m 234.8891,208.731 c 9.80322,0 17.05858,6.91564 24.45953,12.32682 13.51582,10.45839 20.98957,26.3037 29.40966,40.74161 9.53631,16.33062 15.62692,35.71867 12.25403,54.69422 -7.61933,13.07905 -19.26673,23.75583 -25.62426,37.53858 8.2745,33.02521 17.03431,66.02616 26.95886,98.61459 -18.32038,-2.5236 -36.88341,-2.378 -55.10673,-5.70237 -11.25915,-38.9945 -23.94995,-77.67355 -34.06863,-116.95924 6.28474,-40.52322 14.75337,-80.80379 21.71754,-121.25421 z"
     id="path3192"
     style="fill:#f5e5c1" />
  <path
     d="m 887.19166,357.42938 c 8.10464,-18.92701 22.13005,-36.08265 42.17327,-42.82843 15.96663,-3.1545 36.30104,-0.65517 45.06085,14.94749 -13.00625,1.91696 -22.2999,-10.82237 -35.25763,-9.6819 -13.00625,1.69858 -23.17346,11.23488 -29.60379,22.13005 -9.6819,11.98711 -6.06635,28.41478 -4.90161,42.51298 -1.52872,-0.0243 -4.61043,-0.0485 -6.16341,-0.0728 -7.93479,-7.81346 -18.07773,-14.89896 -29.67659,-14.51071 -15.04455,-0.0728 -27.39564,9.82748 -38.16948,19.16966 -10.99223,9.07527 -14.38938,24.11982 -25.74559,32.90389 1.8199,-19.16967 11.72019,-36.83488 26.30369,-49.21024 15.84531,-11.79298 36.17972,-18.56303 55.98029,-15.36 z"
     id="path3194"
     style="fill:#f5e5c1" />
  <path
     d="m 654.24379,339.35166 c 9.07526,-2.86332 18.41744,-4.82882 27.83242,-6.16341 4.78028,4.90161 9.19659,10.1672 13.20038,15.72398 -0.38825,7.66786 -0.6309,15.33573 -0.58237,23.02786 -2.08683,0.26692 -6.26048,0.84929 -8.3473,1.11621 -0.99488,-1.67431 -2.96038,-5.02294 -3.95526,-6.72151 -5.79943,0.87355 -11.23488,3.27583 -17.03431,3.95526 -4.61043,-1.65005 -8.90541,-4.00379 -13.34598,-6.01782 -0.38824,-2.42654 -0.77649,-4.87735 -1.14047,-7.30389 0.77649,-1.14047 2.32948,-3.42142 3.10597,-4.56189 0.0485,-4.34351 0.12133,-8.71128 0.26692,-13.05479 z"
     id="path3196"
     style="fill:#f5e5c1" />
  <path
     d="m 656.88872,346.48569 c 4.58616,-8.39583 15.16588,-7.66787 23.34332,-8.08038 7.49801,6.18768 11.86578,15.14161 9.56057,24.99336 -3.2273,-4.17365 -6.16342,-8.56568 -9.09953,-12.93346 -1.23753,-0.12132 -3.73687,-0.38824 -4.99867,-0.53384 -0.12133,1.81991 -0.36398,5.45972 -0.48531,7.25536 -4.78028,-5.6781 -11.33194,-8.75981 -18.32038,-10.70104 z"
     id="path3198"
     style="fill:#3e3e3e" />
  <path
     d="m 762.27336,354.78445 c 13.20038,-10.26426 31.03546,-13.80701 47.29328,-10.50691 10.02161,2.23241 17.49535,9.63336 23.19772,17.73801 -14.51071,-6.13915 -30.6472,-12.49669 -46.46825,-7.2311 -13.29744,2.86332 -21.54767,16.03944 -23.68303,28.65745 -1.9655,13.63715 4.51337,26.13383 8.37156,38.77611 -4.73175,-2.08683 -8.8326,-5.28986 -12.35109,-9.02673 -10.50691,-7.91052 -15.09308,-22.03299 -11.67165,-34.651 3.37289,-8.80834 7.5708,-17.93213 15.31146,-23.75583 z"
     id="path3200"
     style="fill:#f5e5c1" />
  <path
     d="m 395.06502,380.69991 c 17.47109,-10.91944 38.80038,-10.55546 58.67375,-11.13782 10.8709,0.21838 23.29478,1.06767 32.05459,8.10464 7.40095,13.4673 9.41498,29.26408 10.77384,44.35716 -16.549,-2.96038 -33.19507,-5.70237 -50.05952,-5.62958 -19.48512,-0.75222 -38.70332,3.15451 -57.6546,7.18256 -0.7037,-14.63204 4.39204,-28.53611 6.21194,-42.87696 z"
     id="path3202"
     style="fill:#f5e5c1" />
  <path
     d="m 655.9181,382.95659 c 3.17877,-2.93612 6.30901,-5.92076 9.46351,-8.88114 2.25668,2.49934 4.53763,5.0472 6.77005,7.61934 2.62066,1.09194 5.24133,2.20815 7.86199,3.30009 2.18389,-2.40227 4.34351,-4.82881 6.50313,-7.27962 2.88758,-0.58237 5.77516,-1.16474 8.68701,-1.74711 -1.74711,14.94749 1.84417,29.48247 2.93612,44.2601 -9.051,2.13535 -18.34465,3.49421 -27.29858,0.0971 0.29118,-4.44057 0.5581,-8.88114 0.82502,-13.29744 -5.0472,-1.3346 -10.09441,-2.64493 -15.14161,-3.95526 -0.26692,-6.69725 -0.46104,-13.41877 -0.60664,-20.11602 z"
     id="path3204"
     style="fill:#f5e5c1" />
  <path
     d="m 916.60133,404.74692 c 12.56948,-16.01517 34.23848,-23.14919 54.03905,-19.65498 6.96417,1.98977 15.23867,4.00379 18.80569,11.06503 4.65895,7.27962 5.33838,16.11222 3.90673,24.48379 -6.84285,-9.51204 -14.02541,-20.72266 -26.3037,-23.41612 -13.00626,-1.79564 -27.97801,-1.91696 -38.58199,7.0855 -11.35621,11.06503 -17.81081,26.42503 -20.38294,41.88209 -1.09194,-0.16986 -3.30009,-0.50958 -4.4163,-0.67943 -1.43166,-14.70484 2.54786,-29.94351 12.93346,-40.76588 z"
     id="path3206"
     style="fill:#f5e5c1" />
  <path
     d="m 660.38294,391.42521 c 1.65005,0 4.95014,0 6.60019,0 -0.12133,1.31034 -0.33972,3.90673 -0.46104,5.21706 -1.26181,-0.0728 -3.80967,-0.21838 -5.07147,-0.29118 -0.26692,-1.23754 -0.80076,-3.68834 -1.06768,-4.92588 z"
     id="path3208"
     style="fill:#3e3e3e" />
  <path
     d="m 537.11469,442.98919 c 2.88758,-18.32037 18.5873,-35.30616 37.99962,-34.79658 18.75716,-1.98977 36.10692,8.17744 49.04038,20.86824 18.27185,16.91299 26.03678,43.5564 21.8146,67.84607 -3.54275,14.53498 -14.14673,29.28834 -29.70085,31.83621 -2.81479,-2.69346 -4.87735,-6.04209 -7.06124,-9.24512 6.23621,-3.08171 12.01138,-6.98844 17.03432,-11.81725 -8.88114,-6.40607 -17.88361,-12.64228 -26.66768,-19.16967 2.06256,-2.37801 4.14938,-4.75602 6.23621,-7.10976 8.25023,6.50312 16.76739,12.6908 25.69706,18.22331 2.66919,-15.62691 1.28607,-31.78767 -5.38692,-46.24985 -7.66787,5.09573 -14.00114,11.93857 -21.64474,17.08284 -2.66919,-1.3346 -5.28986,-2.79052 -7.81346,-4.36777 7.66787,-7.23109 15.9181,-13.83128 23.53744,-21.1109 -13.97687,-13.75849 -34.33554,-27.39564 -54.52436,-18.5873 7.95905,12.86066 15.96664,25.72133 24.2654,38.38787 -2.08682,0.65516 -6.28474,2.01402 -8.39583,2.69346 -9.65763,-10.65252 -14.38938,-24.84778 -24.31393,-35.25763 -9.51204,9.87601 -11.429,23.82862 -10.21573,36.93194 9.63336,0.24265 19.31526,0.0728 28.90009,1.09194 2.11109,3.7854 -2.64493,6.28474 -4.27071,9.19659 -7.91052,0 -17.13137,-3.03318 -23.90142,2.5236 -1.72285,-0.0971 -5.14427,-0.24265 -6.84285,-0.31545 -3.10597,-12.56948 -7.42521,-25.69706 -3.7854,-38.65479 z"
     id="path3210"
     style="fill:#f5e5c1" />
  <path
     d="m 710.29687,412.29346 c 8.15318,-2.03829 16.57327,-4.82882 25.06616,-2.91185 14.24379,2.57213 22.27564,16.30635 35.69441,20.84398 -4.85308,3.03318 -10.11867,5.45972 -15.94237,5.60531 -6.91564,-6.13915 -13.75848,-12.78787 -22.25137,-16.67033 -7.57081,-0.92209 -15.67545,1.23753 -22.42124,-3.34863 -0.0485,-0.87355 -0.12132,-2.62066 -0.14559,-3.51848 z"
     id="path3212"
     style="fill:#f5e5c1" />
  <path
     d="m 643.34863,415.13251 c 5.45971,-2.54787 12.10843,-0.87355 18.02919,-1.50445 0.5581,7.66786 1.77137,15.2872 2.45081,22.95507 11.3562,9.39071 25.01763,15.40853 37.80549,22.56682 3.88247,3.03318 7.93479,-0.46104 11.0165,-2.74199 -10.11868,-5.89649 -20.38294,-11.67166 -29.94351,-18.4417 -0.19412,-0.7037 -0.55811,-2.06256 -0.75223,-2.76626 7.13403,-5.07147 14.94749,-9.051 22.03299,-14.21953 13.3217,7.95906 29.11848,11.98711 40.3291,23.12493 -15.9909,9.09953 -33.21934,15.91811 -49.01612,25.38161 l -1.09194,-1.48019 c -0.75223,-7.13402 -7.06123,-12.39962 -13.97687,-8.71127 0.0243,3.17876 0,6.3818 0.0971,9.58483 2.79052,0.67943 5.58104,1.48019 8.3473,2.37801 0.0971,0.60663 0.31545,1.86843 0.43678,2.47507 -8.80835,5.41118 -18.15053,16.88872 -29.38541,10.89517 0.84929,-18.27185 -10.77384,-33.24361 -18.41744,-48.84626 -4.17365,-6.50313 -0.70369,-14.31659 2.0383,-20.64986 z"
     id="path3214"
     style="fill:#f5e5c1" />
  <path
     d="m 667.71109,425.44531 c 4.51336,0.48531 8.9054,1.65005 12.93346,3.80967 -3.8582,0.70369 -8.05611,5.43545 -11.91431,2.15962 -0.24266,-1.50446 -0.75223,-4.46484 -1.01915,-5.96929 z"
     id="path3216"
     style="fill:#f5e5c1" />
  <path
     d="m 416.15166,433.52569 c 17.54389,-7.35242 38.2908,-11.45327 56.12588,-2.6692 -3.20304,34.31128 -4.05233,68.79242 -7.1583,103.12797 -0.41251,8.15317 -10.28853,9.82748 -16.06369,13.10331 -10.60399,0.60664 -24.72645,-1.79564 -28.07508,-13.63715 -2.57213,-33.24361 -2.79052,-66.6328 -4.82881,-99.92493 z"
     id="path3218"
     style="fill:#f5e5c1" />
  <path
     d="m 798.50161,442.13991 c 12.22976,-1.06768 23.82863,3.51848 35.50029,6.43033 25.23601,6.89137 50.90881,12.32682 75.90218,20.14028 15.67545,4.51337 26.06104,20.16455 26.76474,36.08265 -9.29365,-4.07658 -18.75716,-9.07526 -29.21555,-8.56568 -27.25005,0.84929 -54.69422,6.74578 -78.74123,19.94616 -29.4582,14.94749 -57.04796,33.82597 -80.14863,57.53327 -13.58862,11.76872 -24.94483,25.93972 -33.19507,41.93062 -31.22957,-9.82749 -62.33782,-19.9947 -93.64019,-29.67659 -7.23109,-2.25669 -14.70483,-4.02806 -21.45061,-7.61934 1.91696,-11.45327 10.38559,-20.09175 16.81592,-29.23981 20.74692,-27.20152 49.25877,-46.56531 76.82427,-66.12322 11.91431,-7.7164 24.99336,-13.37024 37.41725,-20.16455 21.54767,-9.17232 43.24094,-20.04322 67.16663,-20.67412 z"
     id="path3220"
     style="fill:#f5e5c1" />
  <path
     d="m 234.54938,460.50882 c 11.5746,-2.86332 23.29479,0.0485 34.84512,1.45592 45.49763,5.12 90.84967,11.55033 136.44436,15.82104 2.81479,21.98446 2.57214,44.55128 8.25024,66.05043 12.86066,6.60019 27.37137,13.07905 42.10047,9.43924 4.97441,-2.01403 9.17233,-5.62957 12.54522,-9.73043 4.07658,-4.65895 3.10597,-11.28341 4.07658,-16.98578 1.9655,-13.34597 2.08683,-26.83753 2.13536,-40.30483 17.3255,-0.19413 34.43261,2.76625 51.70957,3.49422 14.07394,2.42654 29.16702,0.0971 42.41593,6.35753 19.12113,10.67678 30.16189,30.0891 42.29459,47.43886 -16.23355,12.01138 -27.44417,30.01631 -33.12227,49.21024 7.66787,0.24265 15.36,0.31545 23.05213,0.46104 -0.14559,4.61043 -0.24265,9.24512 -0.38824,13.87981 -20.72266,-2.5236 -41.44531,1.09195 -62.16797,-1.14047 -38.82464,0.0485 -77.64929,-0.7037 -116.47393,-0.92209 -31.08398,-0.16985 -62.09517,-2.13535 -93.17915,-1.67431 0.26692,-11.91431 -1.23753,-23.73156 -3.37289,-35.42749 -4.65895,-22.59109 -15.09308,-43.36227 -27.34711,-62.67753 -7.61933,-10.28853 -17.32549,-18.95128 -28.02654,-25.91545 -11.30767,-7.49801 -24.79924,-10.84664 -35.79147,-18.82995 z"
     id="path3222"
     style="fill:#f5e5c1" />
  <path
     d="m 169.76076,465.58028 c 17.9564,-2.71772 36.22824,-0.77649 53.7236,3.8582 23.24626,4.80455 45.78882,15.91811 61.39147,34.14142 12.27829,15.21441 19.75204,33.48626 29.31261,50.37498 -1.74711,1.74711 -3.51849,3.49422 -5.2656,5.24133 -22.10578,-1.11621 -44.30862,0.53384 -66.36587,-1.60152 -52.92285,-0.31545 -105.84569,-0.80076 -158.768534,-1.09194 -0.703697,-24.70218 9.706161,-49.47716 28.293464,-65.80777 16.86445,-12.93346 37.17459,-20.26162 57.67886,-25.1147 z"
     id="path3224"
     style="fill:#f5e5c1" />
  <path
     d="m 662.83374,474.80114 c 3.08171,-3.63981 7.18256,-7.59507 12.18124,-4.63469 1.77137,3.46995 1.16474,7.44947 1.31033,11.18635 -2.15962,-0.0728 -6.50313,-0.19413 -8.66275,-0.26692 -1.21327,-1.57725 -3.61555,-4.70749 -4.82882,-6.28474 z"
     id="path3226"
     style="fill:#3e3e3e" />
  <path
     d="m 576.23052,483.94919 c 3.8582,-4.4163 7.61934,-8.9054 11.35621,-13.41876 3.37289,1.189 8.15318,1.09194 9.00246,5.48398 -0.14559,7.20682 -7.25535,11.35621 -11.23488,16.57327 -3.05744,-2.88759 -6.09061,-5.77517 -9.12379,-8.63849 z"
     id="path3228"
     style="fill:#f5e5c1" />
  <path
     d="m 956.97896,550.77611 c 3.90673,0.0485 7.83772,0.12133 11.76872,0.19413 12.95772,31.3509 15.94237,65.61365 17.44682,99.1727 0.60664,18.80569 -1.8927,37.44151 -4.29497,56.05308 -2.81479,46.92929 -17.51962,92.7181 -40.01365,133.84796 -16.42768,38.12095 -48.28815,66.80266 -81.60455,90.2673 -15.36,9.09953 -31.93327,17.64095 -49.71981,20.33441 -51.22427,-10.79811 -102.20588,-22.93081 -153.1147,-35.2091 -13.49156,-2.40228 -21.32928,-14.68057 -28.92436,-24.84777 -8.73554,-11.50181 -14.99601,-24.82351 -25.16322,-35.18484 -20.94104,3.42142 -42.149,4.92588 -63.23564,7.0855 -3.27583,21.42635 -6.81858,43.24095 -17.56815,62.43488 -8.54142,20.11602 -24.36246,35.98559 -41.88209,48.53081 -15.82104,9.77895 -35.01497,16.69459 -53.7236,12.32682 -11.08929,-2.93611 -21.96019,-6.72152 -32.56417,-11.11355 -17.47109,-7.35242 -35.7672,-12.49669 -53.38388,-19.46086 -14.94749,-5.36265 -20.48,-22.13004 -25.35735,-35.74294 -2.91185,-6.77004 -1.69858,-18.34464 -10.91943,-20.09175 -27.15299,-3.95526 -54.76702,-3.56701 -81.94427,-7.35242 -10.99222,20.50427 -26.49782,41.0328 -49.38009,48.70067 -15.82104,5.77516 -33.02521,4.65895 -49.54995,4.10085 C 98.614597,940.52701 72.869005,929.53479 57.921517,907.76872 45.788815,888.96303 38.606256,866.83299 37.926825,844.41175 39.237156,815.9727 49.185972,787.9219 66.729858,765.42787 c 5.071469,-5.94503 10.506919,-12.95773 19.048341,-13.27318 0.194123,4.58616 0.339716,9.17232 0.461043,13.75849 -16.912986,17.98066 -28.851564,41.34824 -29.458199,66.36587 0.04853,12.88493 -1.091943,26.35223 4.052322,38.53346 6.01782,13.44304 12.642275,27.10446 23.149194,37.65991 13.540095,11.38047 29.239811,20.96531 46.856491,24.2654 17.44683,1.31033 36.03413,-1.01915 50.88455,-10.9437 14.77763,-10.45839 25.76986,-25.86692 31.3509,-43.07109 34.26275,0.84929 68.28285,5.60531 102.52133,6.47887 2.30521,0.43677 5.89649,0.14559 6.74578,2.98464 4.5619,23.41611 11.72019,50.86028 34.74806,62.65327 18.00493,7.83773 37.12606,12.7636 55.54351,19.55792 17.49535,6.60018 37.95109,6.18767 54.3545,-3.27583 23.73156,-13.92835 43.4108,-36.13119 51.10294,-62.89593 7.59507,-18.32038 7.35241,-38.58199 6.77004,-58.04284 24.94484,-0.67943 49.67128,-4.68322 74.59185,-6.09062 5.04721,0.14559 11.79299,-1.28606 14.77763,4.05232 12.49668,17.85934 25.40588,36.00986 42.90123,49.35583 3.97953,3.00891 9.00247,3.76114 13.68569,5.07147 43.41081,10.48266 86.94294,20.45574 130.54787,30.11337 25.6,6.45459 49.2345,-9.82749 68.74389,-24.36247 17.8836,-11.79298 32.4671,-27.68682 45.66748,-44.40568 8.03185,-10.96797 13.75849,-23.34332 20.94105,-34.84512 12.44815,-20.28588 18.92701,-43.38654 25.50293,-66.07469 6.30901,-21.08664 10.45839,-42.94977 10.21574,-65.03128 3.8582,-32.24872 1.189,-64.76436 -1.40739,-96.98882 -3.2273,-15.77251 -6.81858,-31.69061 -14.04967,-46.20133 z"
     id="path3230"
     style="fill:#f5e5c1" />
  <path
     d="m 126.95659,566.45156 c 8.03185,-1.79564 16.25782,-2.15962 24.43526,-2.15962 0.33971,6.93991 0.6309,13.87981 0.82502,20.81972 l 1.35886,1.77137 c 0.19413,34.18996 4.70749,68.13725 5.62958,102.30294 2.47507,19.70351 1.67431,39.60114 4.24644,59.30465 0.0243,18.75715 2.5964,37.36872 3.13024,56.12587 -8.32303,-0.75222 -16.57327,-1.91696 -24.8963,-2.5236 -4.99868,-57.82445 -7.18256,-115.81877 -11.74446,-173.66749 -0.21839,-20.69839 -3.34862,-41.22692 -2.98464,-61.97384 z"
     id="path3232"
     style="fill:#f5e5c1" />
  <path
     d="m 89.005498,563.80664 c 8.104644,-0.0971 16.209292,0.0728 24.313932,0.46104 3.20303,66.77839 9.19659,133.38692 12.59375,200.14104 1.79564,12.44815 1.94123,25.0419 1.79564,37.61137 -5.65384,-0.80075 -11.25915,-1.67431 -16.88873,-2.49933 C 105.36038,731.99014 98.930047,664.53232 93.203412,597.00171 91.796019,585.93668 90.898199,574.79886 89.005498,563.80664 z"
     id="path3234"
     style="fill:#f5e5c1" />
  <path
     d="m 163.62161,566.01479 c 11.42901,-0.19413 22.83375,0.24265 34.26275,0.29118 0.5581,28.00228 -0.75223,56.12588 1.43166,84.05536 0.75223,52.26767 1.23753,104.55962 1.38313,156.8273 -8.03185,-0.41252 -16.03943,-1.38313 -23.92569,-2.98465 -0.50957,-43.33801 -4.61043,-86.48189 -6.52739,-129.72284 -2.47507,-36.13119 -4.10086,-72.33517 -6.62446,-108.46635 z"
     id="path3236"
     style="fill:#f5e5c1" />
  <path
     d="m 831.28417,567.42218 c 10.3128,-3.8582 21.71754,-7.03697 32.6855,-4.12512 23.05213,4.75602 39.72246,24.53232 48.43374,45.42484 19.63071,44.76966 19.09687,96.06673 7.81346,142.97175 -6.64872,33.68038 -19.92189,66.41441 -40.96,93.73725 -14.29232,18.17479 -33.26787,34.67526 -56.73251,38.70332 -21.49915,3.51848 -42.56152,-8.95394 -54.71848,-26.06104 -16.7674,-23.8529 -23.46465,-53.14124 -26.06105,-81.75015 -3.1545,-48.11829 6.28474,-97.08587 26.91034,-140.64227 14.21952,-27.5655 33.60758,-55.00967 62.629,-68.25858 z"
     id="path3238"
     style="fill:#f5e5c1" />
  <path
     d="m 207.66332,566.54863 c 8.9054,0.16985 17.83507,0.24265 26.74047,0.12132 -0.21839,22.25138 2.37801,44.38142 1.8927,66.65706 0.58237,27.49271 -0.12132,55.0582 2.13536,82.50237 0.46104,31.10825 0.84929,62.2165 1.11621,93.32474 -9.02673,0.0485 -18.12626,0.0971 -27.0074,-1.62578 -0.75222,-30.55014 0.31545,-61.17308 -2.01402,-91.67469 -0.58237,-33.19507 -0.7765,-66.39014 -1.28607,-99.56095 -1.60152,-16.549 -1.35886,-33.1708 -1.57725,-49.74407 z"
     id="path3240"
     style="fill:#f5e5c1" />
  <path
     d="m 244.18275,568.05308 c 10.19147,-1.9655 20.50426,-0.50957 30.6472,0.94635 0.43678,61.14882 1.60152,122.27337 4.02806,183.34939 1.86844,19.99469 1.06768,40.11071 1.98976,60.15393 -9.92455,-0.43678 -19.87336,-1.04341 -29.82218,-1.31033 -1.91696,-39.86806 -2.32948,-79.76038 -2.83905,-119.67697 -3.66408,-41.05706 0.0243,-82.45384 -4.00379,-123.46237 z"
     id="path3242"
     style="fill:#f5e5c1" />
  <path
     d="m 284.8273,568.63545 c 9.51204,0.16986 19.04834,0.16986 28.56038,0.50957 0.92208,61.02749 0.12132,122.10351 2.69346,183.08247 0.14559,20.79545 0.24265,41.5909 0.65516,62.36208 -8.58995,-0.14559 -17.27696,0.46105 -25.72132,-1.189 -1.48019,-29.21555 -0.94635,-58.52815 -1.67432,-87.79223 -2.15962,-27.54123 -1.189,-55.22806 -2.35374,-82.81782 -2.30521,-24.65365 -1.23754,-49.45289 -2.15962,-74.15507 z"
     id="path3244"
     style="fill:#f5e5c1" />
  <path
     d="m 331.05289,612.31317 c 40.45043,-2.81478 81.16777,-0.84928 121.71526,-1.48018 0.65517,41.93061 0.53384,83.90976 0.0728,125.86464 -14.41365,-2.57213 -29.04569,-6.77005 -43.75052,-3.83393 -15.40853,1.33459 -31.73915,5.24132 -42.9255,16.67033 -10.74957,10.09441 -17.78654,23.53744 -21.88739,37.58711 -4.19792,0.0971 -8.39583,0.19412 -12.59375,0.31545 -0.50957,-58.38256 0.21839,-116.76512 -0.6309,-175.12342 z"
     id="path3246"
     style="fill:#f5e5c1" />
  <path
     d="m 466.52664,612.48303 c 51.90369,0.6309 103.80739,-0.0728 155.71109,0.41251 -8.44437,20.09176 -18.46598,39.72247 -22.39697,61.39147 -4.5619,28.92436 -5.7509,58.40683 -4.07659,87.64664 1.77138,17.2527 4.36777,34.45687 5.14427,51.8309 -24.70218,2.62066 -49.62275,3.73687 -74.13081,7.98332 -1.84417,-2.06256 -3.68834,-4.10086 -5.55678,-6.11488 -4.99867,-31.08399 -22.59109,-62.04664 -52.02502,-75.70806 -2.86332,-42.39166 -1.28607,-84.97744 -2.66919,-127.4419 z"
     id="path3248"
     style="fill:#f5e5c1" />
  <path
     d="m 845.28531,646.62445 c 10.84663,-4.92587 23.29478,0.0243 30.86559,8.4201 11.5018,12.47242 15.40853,29.74938 17.42256,46.10427 1.8927,21.57194 -2.18389,43.4108 -9.19659,63.79374 -7.0127,18.29611 -19.19393,37.29592 -38.94597,43.28948 -13.37024,3.7854 -26.37649,-6.01782 -32.83109,-17.05858 -13.17611,-20.89251 -12.30256,-46.6381 -10.67678,-70.32114 2.47507,-18.05346 8.00759,-36.08265 17.90787,-51.49118 6.52739,-9.34218 14.51071,-18.61157 25.45441,-22.73669 z"
     id="path3250"
     style="fill:#3e3e3e" />
  <path
     d="m 850.74502,665.11469 c 9.34218,-3.34862 18.85422,3.25157 24.11981,10.57972 11.06503,15.52986 11.06503,35.57308 9.82749,53.7964 -2.01403,17.49535 -7.23109,35.37895 -18.85422,48.99184 -6.74578,7.95906 -17.42255,14.0982 -28.1236,10.8709 -8.51715,-3.32436 -14.26805,-11.33194 -17.68948,-19.50938 -9.94881,-26.52208 -6.40606,-56.97517 6.5274,-81.82294 5.45971,-9.73042 13.10331,-19.55791 24.1926,-22.90654 z"
     id="path3252"
     style="fill:#f5e5c1" />
  <path
     d="m 443.03773,761.30275 c 10.94369,-1.3346 23.05213,-1.31033 32.49137,5.24133 21.59621,13.87981 31.47223,39.91658 34.79659,64.37611 3.56701,35.54881 -3.54275,73.5727 -25.79413,102.27867 -10.28853,13.24891 -25.6,24.48379 -42.97402,24.65365 -16.93726,1.23754 -32.10313,-10.21573 -40.98427,-23.80436 -12.71507,-19.92189 -17.81081,-44.1145 -16.549,-67.57915 -0.58237,-23.5617 5.43545,-47.14767 16.6218,-67.8218 9.26938,-16.67033 23.48891,-32.10312 42.39166,-37.34445 z"
     id="path3254"
     style="fill:#f5e5c1" />
  <path
     d="m 107.32588,809.12986 c 70.83071,4.95014 141.61289,10.04587 212.46786,14.80189 -0.26692,11.69593 0.7765,23.51318 -1.189,35.11204 -1.48019,8.03185 -9.85175,13.61289 -17.78654,12.56948 -58.69801,-5.92076 -117.49308,-10.91943 -176.21536,-16.549 -4.14938,-4.10086 -9.34218,-7.7164 -11.13782,-13.51583 -3.13023,-10.55545 -4.92587,-21.47489 -6.13914,-32.41858 z"
     id="path3256"
     style="fill:#f5e5c1" />
  <path
     d="m 449.83204,811.84758 c 6.98843,-1.43166 15.57839,-2.20815 21.30502,2.98465 11.5018,9.39071 15.86958,24.9691 15.4328,39.33422 0.33971,17.95639 -6.28474,37.05327 -20.64986,48.50654 -6.04209,5.02293 -14.58351,5.28985 -21.86313,3.51848 -6.69725,-2.83905 -11.45327,-8.9054 -14.6563,-15.23867 -7.74066,-16.0637 -7.1583,-35.03925 -1.67431,-51.73384 3.85819,-11.18635 10.84663,-22.49403 22.10578,-27.37138 z"
     id="path3258"
     style="fill:#3e3e3e" />
  <path
     d="m 455.53441,819.87943 c 8.75981,-2.15962 16.96151,4.63469 20.91677,11.91431 6.91564,13.83128 6.4546,30.50162 1.21327,44.79394 -3.34862,9.09952 -9.82748,17.76227 -19.26672,21.01384 -7.01271,2.83905 -14.85043,-1.65005 -19.14541,-7.18256 -8.05611,-11.76872 -10.40986,-27.12872 -6.45459,-40.81441 2.66919,-12.44815 9.5363,-26.06104 22.73668,-29.72512 z"
     id="path3260"
     style="fill:#f5e5c1" />
  <path
     d="m 93.810047,828.46938 c 5.483981,8.71128 8.905403,18.44171 13.491563,27.61403 2.37801,6.04209 9.77896,5.92076 15.09308,7.42522 26.27943,3.25156 52.65593,5.72663 78.88683,9.36644 -3.59128,19.04834 -17.54389,35.7672 -34.94218,43.96891 -15.21441,7.59507 -34.26275,3.46995 -46.44398,-7.91052 -22.348441,-19.72777 -29.312611,-51.8309 -26.085313,-80.46408 z"
     id="path3262"
     style="fill:#f5e5c1" />
</svg>
