<?xml version="1.0" encoding="UTF-8" ?>
<!DOCTYPE svg PUBLIC "-//W3C//DTD SVG 1.1//EN" "http://www.w3.org/Graphics/SVG/1.1/DTD/svg11.dtd">
<svg width="422pt" height="422pt" viewBox="0 0 422 422" version="1.1" xmlns="http://www.w3.org/2000/svg">
<path fill="#3e3e3e" opacity="1.00" d=" M 0.00 0.00 L 422.00 0.00 L 422.00 422.00 L 0.00 422.00 L 0.00 0.00 Z" />
<path fill="#f4722b" opacity="1.00" d=" M 225.81 138.86 C 259.21 94.64 292.63 50.42 325.99 6.16 C 327.01 6.87 328.02 7.59 329.04 8.30 C 327.55 12.33 325.60 16.22 324.80 20.47 C 322.98 31.61 325.26 43.00 329.28 53.42 C 337.92 75.87 352.93 95.25 369.65 112.29 C 379.02 121.38 388.93 129.95 399.76 137.26 C 404.06 140.27 409.63 140.40 414.00 143.21 C 413.87 144.94 411.96 145.76 410.81 146.79 C 402.77 151.95 395.38 158.02 387.74 163.73 C 376.17 172.54 364.58 181.33 353.02 190.15 C 349.70 192.87 346.32 195.51 342.60 197.67 C 325.77 208.52 308.82 219.18 292.14 230.26 C 279.65 238.66 267.49 247.53 255.18 256.19 C 249.86 259.76 245.08 264.05 240.46 268.46 C 236.34 271.67 232.21 274.88 228.23 278.26 C 226.16 251.50 224.21 224.72 221.93 197.98 C 219.58 185.95 216.59 174.05 214.02 162.06 C 212.78 161.19 211.53 160.32 210.29 159.45 C 215.03 152.27 220.66 145.75 225.81 138.86 Z" />
<path fill="#f5e5c1" opacity="1.00" d=" M 135.13 147.13 C 141.27 144.15 149.09 144.22 154.83 148.07 C 158.24 150.19 157.75 154.65 158.20 158.10 C 158.40 171.75 158.46 185.42 158.59 199.08 C 160.44 200.51 162.28 201.96 164.11 203.42 C 164.46 191.64 164.45 179.85 164.75 168.07 C 165.16 163.08 165.75 158.09 165.55 153.07 C 167.82 151.50 169.88 149.15 172.84 149.09 C 178.98 148.38 185.96 148.53 190.82 152.89 C 190.65 160.91 190.65 168.95 190.75 176.97 C 191.76 187.64 191.04 198.37 191.27 209.07 C 190.87 212.38 194.63 213.69 196.45 215.81 C 196.23 197.74 196.38 179.66 196.46 161.58 C 201.16 160.00 207.08 162.21 209.45 166.58 C 211.77 175.10 213.44 183.79 215.42 192.39 C 216.73 196.78 217.58 201.30 217.82 205.89 C 219.36 229.62 220.76 253.35 222.31 277.08 C 222.62 281.43 221.81 285.76 220.87 289.98 C 217.36 298.41 209.65 304.84 208.04 314.10 C 199.27 348.34 190.36 382.54 181.65 416.79 C 126.49 416.80 71.32 416.81 16.15 416.79 C 16.37 414.63 15.71 412.11 17.32 410.36 C 40.64 380.24 63.66 349.90 87.12 319.87 C 90.06 321.12 93.11 322.07 96.24 322.71 C 97.54 326.36 99.49 330.01 102.77 332.23 C 109.44 335.93 117.30 338.29 124.90 336.34 C 132.78 325.81 141.57 315.97 149.30 305.32 C 156.95 293.59 164.20 281.61 171.72 269.80 C 175.11 264.61 177.89 258.96 179.50 252.96 C 178.14 249.50 176.08 246.27 173.27 243.80 C 169.89 240.67 165.38 239.35 161.30 237.44 C 163.93 234.25 167.58 231.37 168.24 227.05 C 168.86 222.18 167.80 216.46 163.51 213.48 C 159.82 210.19 154.83 209.31 150.12 208.54 C 145.95 208.10 144.92 203.32 141.83 201.19 C 138.72 197.91 134.34 196.82 130.08 196.01 C 132.08 192.66 131.22 188.70 131.22 185.01 C 130.44 174.71 130.79 164.37 130.52 154.05 C 130.23 151.00 132.28 148.11 135.13 147.13 Z" />
<path fill="#f5e5c1" opacity="1.00" d=" M 114.04 148.94 C 118.39 147.61 122.22 152.08 122.66 156.08 C 124.64 167.06 124.86 178.25 125.91 189.34 C 123.41 188.62 121.29 187.10 119.01 185.93 C 116.07 185.29 112.97 185.67 110.06 186.29 C 104.74 188.05 100.89 192.35 96.67 195.82 C 96.51 185.56 96.39 175.30 96.26 165.05 C 96.14 161.21 96.80 157.20 98.84 153.89 C 102.72 149.77 108.89 150.02 114.04 148.94 Z" />
<path fill="#f5e5c1" opacity="1.00" d=" M 39.69 170.84 C 43.14 167.23 47.82 164.25 52.99 164.53 C 58.35 164.77 63.82 165.73 68.58 168.31 C 73.40 170.84 77.52 174.50 82.41 176.94 C 78.51 178.29 74.41 178.76 70.39 179.54 C 65.60 181.77 61.95 185.78 57.76 188.90 C 52.23 182.41 46.59 175.96 39.69 170.84 Z" />
<path fill="#f4722b" opacity="1.00" d=" M 76.89 181.86 C 81.78 181.58 86.55 179.82 91.49 180.62 C 91.80 188.21 92.68 195.90 91.15 203.42 C 87.19 208.45 81.61 211.86 76.18 215.11 C 68.64 219.81 60.16 222.63 51.88 225.70 C 46.04 227.83 40.26 230.44 34.00 231.09 C 29.14 231.84 24.36 230.31 19.65 229.34 C 17.80 225.81 17.23 221.86 17.62 217.92 C 25.51 215.09 33.03 211.37 40.54 207.69 C 50.67 201.38 59.55 193.33 68.24 185.22 C 70.41 182.76 73.77 182.11 76.89 181.86 Z" />
<path fill="#f4722b" opacity="1.00" d=" M 111.58 190.50 C 117.71 188.23 121.65 194.98 124.86 199.03 C 108.32 220.14 91.07 240.69 74.65 261.89 C 75.97 262.98 77.29 264.08 78.62 265.16 C 94.54 245.20 110.60 225.36 126.54 205.42 C 127.78 203.77 129.73 202.42 131.89 202.81 C 137.07 203.73 141.58 207.23 143.98 211.88 C 128.03 233.51 111.82 254.96 95.71 276.48 C 96.67 277.30 97.62 278.13 98.57 278.97 C 114.61 257.77 130.68 236.61 146.68 215.39 C 151.66 214.62 157.03 215.74 160.99 218.92 C 163.12 221.27 162.72 224.79 163.38 227.73 C 147.92 248.80 132.50 269.90 117.07 290.98 C 117.87 291.44 119.48 292.36 120.28 292.82 C 130.23 279.26 140.24 265.73 150.15 252.15 C 152.58 248.67 155.81 245.89 158.93 243.05 C 162.54 243.93 166.35 244.52 169.52 246.59 C 172.52 249.34 175.41 253.37 173.61 257.62 C 171.39 262.63 169.30 267.78 166.33 272.41 C 153.48 290.17 140.58 307.89 127.78 325.68 C 125.88 328.10 124.50 331.42 121.41 332.52 C 112.98 333.79 103.14 328.67 102.17 319.55 C 99.72 317.34 97.35 314.65 93.96 314.02 C 89.54 313.25 86.28 309.85 83.51 306.57 C 81.91 304.77 82.38 302.21 82.20 300.01 C 78.48 296.34 72.79 297.21 68.69 294.25 C 65.02 292.27 62.79 288.37 63.10 284.19 C 60.62 282.05 58.41 279.08 54.91 278.71 C 50.90 277.76 46.03 277.26 43.66 273.38 C 41.92 270.69 40.44 266.61 42.96 263.94 C 48.19 257.83 53.83 252.06 58.57 245.54 C 61.85 240.89 66.43 237.41 70.12 233.12 C 78.06 224.05 86.08 215.04 94.04 205.98 C 99.21 200.16 104.51 194.05 111.58 190.50 Z" />
<path fill="#f5e5c1" opacity="1.00" d=" M 71.77 220.77 C 74.50 217.60 78.29 214.93 82.71 215.76 C 79.86 220.31 77.03 225.91 71.72 227.83 C 71.63 225.50 70.90 223.02 71.77 220.77 Z" />
</svg>
