<?xml version="1.0" encoding="UTF-8" ?>
<!DOCTYPE svg PUBLIC "-//W3C//DTD SVG 1.1//EN" "http://www.w3.org/Graphics/SVG/1.1/DTD/svg11.dtd">
<svg width="422pt" height="422pt" viewBox="0 0 422 422" version="1.1" xmlns="http://www.w3.org/2000/svg">
<path fill="#3e3e3e" opacity="1.00" d=" M 0.00 0.00 L 422.00 0.00 L 422.00 422.00 L 0.00 422.00 L 0.00 0.00 Z" />
<path fill="#f5e5c1" opacity="1.00" d=" M 71.70 10.93 C 72.68 10.41 73.67 9.90 74.65 9.38 C 94.95 50.08 115.18 90.82 135.46 131.53 C 139.87 140.84 144.62 149.96 148.85 159.35 C 145.55 162.05 141.39 163.51 137.13 163.47 C 112.18 114.13 86.58 65.11 62.54 15.32 C 64.02 14.60 65.51 13.88 66.99 13.16 C 87.20 54.87 107.36 96.60 127.55 138.32 C 131.20 145.54 134.43 153.06 138.92 159.80 C 141.09 159.98 143.01 158.83 144.93 158.02 C 120.45 109.03 96.16 59.94 71.70 10.93 Z" />
<path fill="#f5e5c1" opacity="1.00" d=" M 284.07 48.04 C 286.76 49.33 288.96 51.36 291.35 53.11 C 277.43 77.77 263.32 102.32 249.48 127.03 C 247.90 126.13 246.33 125.22 244.78 124.28 C 258.11 98.99 270.92 73.43 284.07 48.04 Z" />
<path fill="#f5e5c1" opacity="1.00" d=" M 217.21 87.04 C 218.89 87.19 220.58 87.33 222.26 87.48 C 221.21 99.66 220.31 111.86 219.20 124.03 C 217.55 123.85 215.89 123.67 214.24 123.50 C 215.24 111.35 216.29 99.20 217.21 87.04 Z" />
<path fill="#f5e5c1" opacity="1.00" d=" M 287.10 144.83 C 308.67 126.32 329.39 106.84 350.58 87.90 C 352.63 90.05 354.54 92.33 356.33 94.71 C 334.37 112.75 312.23 130.58 290.46 148.85 C 289.34 147.51 288.21 146.17 287.10 144.83 Z" />
<path fill="#f5e5c1" opacity="1.00" d=" M 146.25 143.72 C 150.02 143.26 154.05 142.75 157.58 144.54 C 163.76 147.23 166.52 153.97 168.89 159.81 C 167.34 160.31 165.76 160.69 164.15 160.95 C 161.47 155.57 158.58 149.03 152.04 147.66 C 150.27 147.56 148.50 147.46 146.74 147.34 C 146.57 146.13 146.40 144.93 146.25 143.72 Z" />
<path fill="#f5e5c1" opacity="1.00" d=" M 118.65 165.08 C 118.96 160.67 120.85 156.12 124.81 153.83 C 125.44 154.90 126.06 155.97 126.69 157.05 C 124.57 160.57 123.59 164.84 124.59 168.89 C 125.74 173.02 128.66 176.27 130.72 179.94 C 129.24 180.95 127.76 181.96 126.28 182.97 C 122.42 177.78 117.60 172.01 118.65 165.08 Z" />
<path fill="#f5e5c1" opacity="1.00" d=" M 149.46 154.89 C 151.25 154.72 152.97 154.19 154.69 153.70 C 156.48 156.90 158.30 160.09 160.07 163.31 C 158.41 163.98 156.75 164.65 155.09 165.32 C 153.18 161.86 151.29 158.39 149.46 154.89 Z" />
<path fill="#f5e5c1" opacity="1.00" d=" M 157.18 168.01 C 189.13 152.96 228.92 156.78 257.40 177.68 C 278.24 192.64 292.90 215.93 297.12 241.26 C 301.99 267.87 295.11 296.05 279.28 317.89 C 277.52 317.63 275.85 317.02 274.27 316.22 C 282.71 306.59 287.73 294.38 291.24 282.18 C 294.22 271.05 294.01 259.46 293.55 248.04 C 291.27 225.89 280.73 204.70 264.50 189.45 C 250.48 176.01 232.15 167.15 212.93 164.41 C 189.63 160.92 165.07 166.38 145.60 179.69 C 122.79 194.98 107.20 220.61 104.47 247.96 C 104.10 253.62 103.05 259.29 104.19 264.94 C 104.93 283.02 112.00 300.33 122.19 315.11 C 120.77 315.65 119.35 316.18 117.93 316.71 C 99.16 290.53 94.13 255.18 105.15 224.88 C 113.92 199.96 133.13 178.94 157.18 168.01 Z" />
<path fill="#f5e5c1" opacity="1.00" d=" M 130.03 165.54 C 131.07 164.78 132.10 164.01 133.13 163.24 C 135.35 166.37 137.53 169.53 139.58 172.78 C 138.37 173.92 137.17 175.06 135.96 176.20 C 133.93 172.67 131.94 169.13 130.03 165.54 Z" />
<path fill="#f5e5c1" opacity="1.00" d=" M 309.45 181.40 C 322.46 176.77 334.61 170.05 347.23 164.49 C 348.65 167.42 349.64 170.53 350.47 173.68 C 337.63 177.82 324.60 181.45 311.99 186.26 C 310.00 185.81 310.25 182.94 309.45 181.40 Z" />
<path fill="#f4722b" opacity="1.00" d=" M 205.99 190.98 C 211.58 189.42 217.19 187.64 223.00 187.15 C 225.88 186.80 228.98 188.02 230.31 190.71 C 234.27 197.55 238.24 204.46 240.95 211.91 C 248.36 211.11 255.69 209.63 262.92 207.81 C 264.43 207.48 266.00 207.09 267.56 207.38 C 271.08 209.72 272.86 213.74 274.66 217.41 C 277.05 222.12 279.04 227.03 280.45 232.12 C 281.52 236.60 284.10 240.73 283.81 245.48 C 275.24 247.49 266.87 250.12 258.63 253.20 C 258.53 254.78 258.32 256.41 259.00 257.92 C 260.74 262.92 262.63 267.92 263.58 273.15 C 264.31 279.03 264.62 284.96 265.84 290.78 C 253.03 296.71 239.05 300.02 225.06 301.80 C 222.89 302.19 220.73 301.70 218.66 301.07 C 217.89 291.06 215.62 281.02 211.12 271.99 C 210.12 271.50 209.13 271.01 208.14 270.52 C 201.37 272.57 194.53 274.41 187.98 277.11 C 184.03 278.86 179.64 278.25 175.53 277.56 C 173.78 273.07 171.05 269.01 169.59 264.40 C 167.50 257.99 165.21 251.63 162.23 245.57 C 161.32 243.85 160.83 241.97 160.42 240.08 C 171.16 234.02 183.46 231.77 194.96 227.59 C 193.48 221.20 190.66 215.26 187.93 209.33 C 186.39 206.18 184.21 203.35 183.28 199.93 C 190.94 197.16 198.15 193.26 205.99 190.98 Z" />
<path fill="#f5e5c1" opacity="1.00" d=" M 322.95 206.94 C 327.39 204.55 332.52 206.07 337.02 207.44 C 355.35 211.05 373.70 214.54 392.04 218.10 C 395.72 218.94 400.51 218.64 402.02 222.94 C 400.62 234.29 399.10 245.63 397.63 256.98 C 397.45 259.17 395.59 260.64 394.08 262.00 C 389.81 265.46 385.22 268.52 381.13 272.21 C 360.76 269.12 340.37 266.09 319.99 263.00 C 315.98 262.26 311.52 262.78 308.16 260.05 C 308.18 246.11 308.22 232.17 308.14 218.23 C 313.19 214.61 317.92 210.58 322.95 206.94 Z" />
<path fill="#3e3e3e" opacity="1.00" d=" M 311.71 219.74 C 314.91 217.63 318.28 215.78 321.63 213.90 C 322.24 223.33 323.12 232.75 323.76 242.18 C 324.07 243.73 323.54 245.96 325.43 246.62 C 327.56 247.49 329.88 247.69 332.13 248.14 C 348.42 251.07 364.70 254.08 381.00 257.04 C 384.11 257.58 387.25 258.08 390.28 259.04 C 387.09 262.38 383.78 265.59 380.26 268.57 C 357.47 264.91 334.64 261.48 311.83 257.91 C 311.65 245.19 311.88 232.46 311.71 219.74 Z" />
<path fill="#f5e5c1" opacity="1.00" d=" M 33.43 241.39 C 34.93 240.80 36.56 240.72 38.15 240.53 C 41.75 250.59 44.85 260.84 48.79 270.77 C 48.36 276.10 47.92 281.44 47.83 286.80 C 41.14 289.25 34.62 292.18 27.98 294.74 C 20.36 296.38 12.72 297.95 5.02 299.20 C 5.05 283.64 4.85 268.07 5.13 252.51 C 14.64 249.00 23.98 245.05 33.43 241.39 Z" />
<path fill="#3e3e3e" opacity="1.00" d=" M 7.34 292.25 C 19.30 285.74 32.10 280.80 43.80 273.82 C 44.18 277.48 44.33 281.16 44.40 284.84 C 36.72 287.73 29.43 291.86 21.25 293.25 C 16.46 294.26 11.67 295.33 6.88 296.34 C 6.89 294.96 7.05 293.59 7.34 292.25 Z" />
<path fill="#f5e5c1" opacity="1.00" d=" M 399.70 293.85 C 405.14 292.23 410.69 290.95 416.01 288.95 C 415.96 303.48 416.05 318.00 415.97 332.53 C 395.26 338.48 374.71 344.98 354.07 351.18 C 352.92 350.22 351.26 349.53 351.02 347.86 C 348.01 337.59 344.78 327.39 341.79 317.12 C 340.98 314.92 342.50 312.53 344.24 311.31 C 348.68 309.42 353.12 307.51 357.58 305.66 C 371.69 302.01 385.65 297.77 399.70 293.85 Z" />
<path fill="#f5e5c1" opacity="1.00" d=" M 60.23 290.18 C 61.85 289.69 63.55 289.85 65.20 290.06 C 68.77 300.46 72.81 310.71 76.29 321.12 C 73.90 325.47 72.51 330.27 70.77 334.90 C 48.86 341.96 26.93 348.98 5.00 356.00 C 5.02 354.26 5.03 352.52 5.05 350.79 C 6.82 350.88 8.62 350.78 10.30 350.15 C 29.66 343.87 49.16 338.03 68.46 331.59 C 69.02 328.67 70.78 325.72 70.01 322.72 C 68.43 322.75 66.90 323.14 65.38 323.53 C 45.28 328.79 25.09 333.72 4.99 338.97 C 5.01 327.67 4.99 316.37 5.00 305.07 C 23.41 300.10 41.81 295.11 60.23 290.18 Z" />
<path fill="#f5e5c1" opacity="1.00" d=" M 166.73 305.65 C 168.03 304.89 169.20 305.86 170.35 306.41 C 174.91 317.65 179.05 329.06 183.58 340.32 C 181.14 342.72 177.65 343.32 174.59 344.59 C 159.11 350.57 143.44 356.06 127.94 362.01 C 121.20 365.36 113.55 365.66 106.28 367.09 C 102.51 356.57 98.72 346.06 94.95 335.54 C 98.42 333.14 101.02 329.74 104.39 327.24 C 125.16 320.03 145.95 312.83 166.73 305.65 Z" />
<path fill="#f5e5c1" opacity="1.00" d=" M 235.50 311.23 C 237.60 310.30 239.76 309.52 241.95 308.82 C 263.15 317.25 284.23 325.99 305.41 334.48 C 307.41 335.16 308.98 336.59 310.52 337.99 C 302.03 353.65 291.73 368.27 282.74 383.65 C 281.06 383.65 279.19 384.34 277.74 383.20 C 259.27 371.66 240.85 360.03 222.37 348.52 C 223.42 342.54 222.83 336.15 225.57 330.58 C 228.43 323.90 232.02 317.59 235.50 311.23 Z" />
<path fill="#3e3e3e" opacity="1.00" d=" M 344.24 314.51 C 348.66 312.42 353.28 310.76 357.82 308.95 C 361.01 320.64 364.51 332.26 367.48 344.01 C 362.82 345.17 358.42 347.99 353.51 347.72 C 350.35 337.09 346.67 326.61 343.59 315.96 C 343.75 315.60 344.08 314.87 344.24 314.51 Z" />
<path fill="#f5e5c1" opacity="1.00" d=" M 301.95 313.41 C 302.82 311.98 303.69 310.56 304.57 309.15 C 313.42 314.82 322.27 320.49 331.11 326.17 C 330.18 327.56 329.26 328.95 328.33 330.35 C 319.58 324.64 310.77 319.01 301.95 313.41 Z" />
<path fill="#3e3e3e" opacity="1.00" d=" M 99.04 336.38 C 101.56 335.17 103.86 331.41 106.88 333.08 C 111.35 342.25 115.24 351.72 119.50 361.00 C 116.07 361.97 112.64 362.94 109.18 363.80 C 105.69 354.70 102.33 345.56 99.04 336.38 Z" />
<path fill="#3e3e3e" opacity="1.00" d=" M 225.46 339.06 C 230.00 340.84 234.25 343.24 238.62 345.39 C 254.58 353.46 270.61 361.40 286.55 369.54 C 286.65 370.06 286.86 371.09 286.96 371.61 C 284.57 374.75 282.59 378.21 280.04 381.22 C 279.25 382.34 277.97 381.31 277.11 380.91 C 259.16 369.66 241.34 358.19 223.36 346.98 C 223.76 344.27 224.56 341.64 225.46 339.06 Z" />
<path fill="#f5e5c1" opacity="1.00" d=" M 55.43 343.61 C 60.04 342.16 64.94 343.02 69.69 342.79 C 70.08 343.30 70.86 344.31 71.25 344.82 C 71.23 351.97 71.21 359.12 71.26 366.27 C 70.90 366.65 70.17 367.43 69.80 367.81 C 48.21 367.79 26.62 367.81 5.04 367.80 C 5.06 365.70 5.08 363.60 5.14 361.51 C 21.95 355.66 38.67 349.57 55.43 343.61 Z" />
<path fill="#f5e5c1" opacity="1.00" d=" M 166.13 352.85 C 168.37 351.96 170.57 350.89 172.93 350.36 C 175.69 350.53 178.33 351.43 181.04 351.92 C 189.25 353.61 197.68 353.81 206.02 353.38 C 210.09 353.19 214.10 352.03 218.20 352.47 C 219.58 353.33 220.94 354.23 222.25 355.21 C 203.84 360.24 184.20 358.41 166.13 352.85 Z" />
<path fill="#f5e5c1" opacity="1.00" d=" M 341.17 356.97 C 341.03 355.39 341.97 354.08 342.65 352.74 C 367.10 352.88 391.55 352.76 416.00 352.80 C 416.00 365.19 416.00 377.57 416.00 389.96 C 391.68 389.63 367.34 389.82 343.03 389.87 C 341.68 389.55 340.75 388.49 341.10 387.06 C 341.43 377.03 341.06 367.00 341.17 356.97 Z" />
<path fill="#f5e5c1" opacity="1.00" d=" M 5.09 371.02 C 13.41 371.24 21.74 371.29 30.06 371.07 C 31.77 370.68 33.55 372.18 33.21 373.98 C 33.30 382.41 33.17 390.84 33.26 399.28 C 32.90 399.66 32.17 400.43 31.81 400.81 C 23.17 400.80 14.54 400.79 5.91 400.81 C 5.40 398.91 4.98 396.97 5.05 395.00 C 5.09 387.01 5.04 379.01 5.09 371.02 Z" />
<path fill="#f5e5c1" opacity="1.00" d=" M 36.74 376.02 C 36.43 373.84 37.01 370.48 39.92 370.82 C 65.96 370.70 92.00 370.96 118.03 370.68 C 119.27 370.53 121.12 371.56 120.90 372.98 C 120.63 381.86 120.91 390.74 120.66 399.62 C 117.18 400.55 113.56 400.14 110.01 400.20 C 87.35 400.21 64.69 400.17 42.03 400.22 C 40.52 400.21 39.04 399.97 37.56 399.73 C 35.95 391.94 37.13 383.91 36.74 376.02 Z" />
<path fill="#f5e5c1" opacity="1.00" d=" M 218.07 374.54 C 219.52 373.68 220.97 372.83 222.42 371.99 C 229.91 384.49 237.41 396.99 244.92 409.48 C 243.47 410.32 242.01 411.16 240.56 412.00 C 233.09 399.50 225.60 387.01 218.07 374.54 Z" />
<path fill="#f5e5c1" opacity="1.00" d=" M 294.21 394.06 C 321.80 394.33 349.40 394.21 376.98 394.13 C 377.98 394.66 379.01 395.69 378.89 396.93 C 378.68 404.23 378.84 411.55 378.70 418.86 C 352.14 419.21 325.56 418.87 299.00 419.03 C 297.41 418.96 295.76 419.15 294.25 418.61 C 293.38 416.87 294.13 414.88 294.13 413.05 C 294.41 406.73 294.11 400.39 294.21 394.06 Z" />
<path fill="#f5e5c1" opacity="1.00" d=" M 383.20 395.29 C 394.08 394.22 405.07 395.07 416.00 394.80 C 416.00 402.87 416.00 410.93 416.00 419.00 C 405.97 418.97 395.94 419.06 385.92 418.97 C 384.39 419.14 382.39 417.82 382.82 416.12 C 383.55 409.20 383.15 402.23 383.20 395.29 Z" />
<path fill="#f5e5c1" opacity="1.00" d=" M 6.22 405.20 C 6.62 404.85 7.40 404.14 7.79 403.78 C 30.49 403.82 53.18 403.78 75.87 403.80 C 77.04 405.12 78.81 406.16 79.12 408.04 C 79.43 411.68 79.17 415.34 79.23 419.00 C 54.82 419.00 30.42 419.01 6.01 418.99 C 6.19 414.39 6.30 409.80 6.22 405.20 Z" />
<path fill="#f5e5c1" opacity="1.00" d=" M 85.38 404.25 C 107.26 404.13 129.14 404.23 151.02 404.18 C 153.23 404.19 156.40 404.53 157.11 407.06 C 157.44 411.02 157.15 415.01 157.23 419.00 C 132.67 419.00 108.11 419.01 83.55 418.99 C 83.78 414.89 83.87 410.77 83.50 406.67 C 84.13 405.86 84.75 405.05 85.38 404.25 Z" />
</svg>
