<?xml version="1.0" encoding="UTF-8" standalone="no"?>
<svg
   xmlns:dc="http://purl.org/dc/elements/1.1/"
   xmlns:cc="http://creativecommons.org/ns#"
   xmlns:rdf="http://www.w3.org/1999/02/22-rdf-syntax-ns#"
   xmlns:svg="http://www.w3.org/2000/svg"
   xmlns="http://www.w3.org/2000/svg"
   xmlns:sodipodi="http://sodipodi.sourceforge.net/DTD/sodipodi-0.dtd"
   xmlns:inkscape="http://www.inkscape.org/namespaces/inkscape"
   width="1280"
   height="1280"
   viewBox="0 0 1024 1024"
   version="1.1"
   id="svg2"
   inkscape:version="0.47 r22583"
   sodipodi:docname="assist_soldier.svg">
  <metadata
     id="metadata34">
    <rdf:RDF>
      <cc:Work
         rdf:about="">
        <dc:format>image/svg+xml</dc:format>
        <dc:type
           rdf:resource="http://purl.org/dc/dcmitype/StillImage" />
      </cc:Work>
    </rdf:RDF>
  </metadata>
  <defs
     id="defs32" />
  <sodipodi:namedview
     pagecolor="#ffffff"
     bordercolor="#666666"
     borderopacity="1"
     objecttolerance="10"
     gridtolerance="10"
     guidetolerance="10"
     inkscape:pageopacity="0"
     inkscape:pageshadow="2"
     inkscape:window-width="1280"
     inkscape:window-height="738"
     id="namedview30"
     showgrid="false"
     inkscape:zoom="0.44739336"
     inkscape:cx="263.75"
     inkscape:cy="274.869"
     inkscape:window-x="-8"
     inkscape:window-y="-8"
     inkscape:window-maximized="1"
     inkscape:current-layer="svg2" />
  <path
     d="m 0,0 1024,0 0,1024 L 0,1024 0,0 z"
     id="path4"
     style="fill:#3e3e3e" />
  <path
     d="m 284.51185,34.48114 c 19.36379,-3.2273 38.67905,1.62578 57.82445,4.22218 17.49536,5.38692 35.86427,9.07526 51.80664,18.49023 10.48265,5.45972 21.1837,10.74958 30.76853,17.76228 16.47621,15.89384 35.2091,29.43393 50.59336,46.49251 10.3128,13.78275 22.5183,25.98825 34.40835,38.38787 8.15317,10.50692 16.30635,21.06237 23.82862,32.03033 8.37156,6.79431 18.5873,10.89517 27.85668,16.30635 8.25024,4.99867 18.6601,4.17365 26.71621,9.48777 8.29877,7.37669 9.85176,19.53365 9.22086,30.01631 -6.91564,24.94483 -26.27944,43.16815 -43.702,61.17308 -9.97308,8.88113 -19.48511,18.24758 -29.23981,27.37137 -1.77137,-0.77649 -5.31412,-2.35374 -7.10976,-3.13024 11.42901,-9.58483 21.25649,-20.79545 31.90901,-31.18104 12.22976,-11.38047 22.34843,-24.87204 31.2053,-38.9945 6.16342,-9.85175 9.19659,-22.05725 5.04721,-33.29213 -7.81346,-10.04588 -21.1109,-8.29877 -32.39432,-8.05612 -13.61289,0.65517 -26.47355,5.94503 -38.87317,11.18635 -31.18104,11.74446 -60.51792,27.83242 -89.44228,44.2601 -21.81459,14.14673 -45.35203,25.45441 -66.39014,40.83867 -24.28967,14.60777 -45.95867,33.04948 -69.0108,49.42863 -10.72531,9.51204 -22.05725,18.32038 -32.70977,27.92948 -13.56436,13.9526 -27.63829,27.37137 -41.10559,41.4453 -18.07772,16.7674 -30.18616,38.75185 -39.72246,61.22162 -2.98465,8.71127 -3.44569,21.91165 5.94502,26.81327 12.01137,3.13023 23.7801,-1.65005 35.69441,-2.5964 0.46104,1.8199 1.38313,5.48398 1.86843,7.30388 -16.16075,5.70237 -34.82085,9.051 -50.44777,0 -7.69213,-19.50938 -2.83905,-40.69308 -6.01782,-60.85763 -10.31279,-20.89251 -20.64986,-41.83355 -30.50161,-62.99298 -13.87981,-26.64341 -28.48758,-53.38389 -36.325308,-82.57517 -2.936113,-8.32303 -5.920758,-16.67033 -7.23109,-25.43014 -2.11109,-17.47109 -6.284739,-34.86938 -4.440568,-52.58313 1.916966,-13.4673 1.431658,-27.25005 5.459715,-40.37763 1.261801,-20.67412 10.798101,-39.45554 17.907871,-58.55242 12.73933,-27.97801 33.21933,-51.70957 56.75677,-71.17042 17.47109,-12.05991 35.47602,-24.21687 56.32,-29.55526 20.50427,-6.72152 41.88209,-11.11356 63.52683,-10.82237 z"
     id="path6"
     style="fill:#f5e5c1" />
  <path
     d="m 323.04531,102.69118 c 9.29365,-6.69725 20.16455,-12.30255 31.93327,-11.89004 9.80322,8.29877 16.81592,19.24246 26.08531,28.07507 10.60398,-3.3001 20.38293,-9.94882 31.61782,-10.57972 11.55033,4.17365 20.84398,15.96664 23.36758,27.83242 -9.24512,5.7509 -19.97043,8.9782 -28.39052,15.96664 7.40095,7.08549 14.0254,14.92322 20.89251,22.51829 -0.21839,3.39716 -0.41251,6.79431 -0.60664,10.19147 -9.24511,4.22218 -18.56303,8.39583 -28.02654,12.1327 -4.70748,2.01403 -9.12379,-1.57725 -12.98199,-3.80967 -8.29876,-4.90161 -12.54521,-13.92834 -18.80568,-20.86825 -11.5018,3.2273 -21.49915,10.57972 -33.3892,12.54522 -12.81213,-0.41251 -17.27696,-14.34086 -26.01251,-21.35356 4.92588,-13.54009 22.59109,-14.85042 31.08398,-25.04189 -4.73175,-9.87602 -13.20038,-17.34977 -18.27185,-27.0074 -0.33971,-2.81478 -1.28606,-6.81857 1.50446,-8.71128 z"
     id="path8"
     style="fill:#f4722b" />
  <path
     d="m 759.21592,231.78313 c 1.14048,0.0243 3.44569,0.0971 4.58617,0.12132 -10.82237,40.69309 -24.411,80.68247 -35.42749,121.35128 -13.56436,-5.62957 -25.43015,-16.37914 -41.1056,-15.45706 3.54275,-9.43924 11.16209,-16.47621 16.40342,-24.92057 18.29611,-27.17725 38.12094,-53.35962 55.5435,-81.09497 z"
     id="path10"
     style="fill:#f5e5c1" />
  <path
     d="m 788.94104,362.03981 c 15.65119,-6.35754 32.00607,-11.01649 46.92929,-19.07261 -17.51962,18.17479 -35.71867,35.69441 -53.04417,54.06332 -2.74199,2.96038 -5.7509,5.58104 -8.95393,8.00758 -4.82882,-11.25914 -7.93479,-24.31393 -18.61157,-31.69061 10.82237,-4.99867 22.71242,-6.79431 33.68038,-11.30768 z"
     id="path12"
     style="fill:#f5e5c1" />
  <path
     d="m 462.32872,353.32853 c 30.59867,-13.75848 70.10275,-6.72152 92.16,19.19393 3.49422,3.25157 7.95905,10.9437 13.29744,6.35754 10.91943,-11.96284 25.91545,-18.66009 40.20777,-25.6 12.59375,-5.62957 26.54635,-4.92588 39.91659,-6.96417 34.40834,0.0728 71.63147,9.73043 94.8292,36.88341 13.61289,16.01517 19.60644,36.49517 24.70218,56.41706 1.33459,22.76095 1.35886,46.24986 -5.96929,68.08872 -0.41252,2.76626 -2.91185,7.03697 0.33971,9.00247 24.67792,4.70749 48.48228,13.3217 73.28152,17.54388 -0.7037,1.06768 -2.06256,3.20304 -2.76626,4.27071 -40.35336,15.02029 -80.12436,31.59356 -120.25933,47.24475 -3.8582,1.48018 -7.44948,-1.50446 -11.06503,-2.35375 -15.9181,-4.95014 -31.88474,-9.77896 -47.87564,-14.46218 -9.34218,-2.74199 -18.4417,-6.55166 -28.17213,-7.6436 -1.94123,-2.35374 -5.94502,-3.97953 -5.26559,-7.57081 8.46862,-11.23488 19.33952,-20.81971 26.37649,-33.02521 -6.60019,-1.48019 -13.27317,-2.76626 -19.87336,-4.27071 -9.7547,-0.77649 -19.41233,-2.45081 -29.09422,-3.68834 11.98711,-27.32285 24.14407,-54.66996 35.35469,-82.35678 -26.18237,20.96531 -52.34047,41.97915 -78.74123,62.67754 -4.99868,3.68834 -8.9782,9.22085 -15.31147,10.62824 -6.79431,-24.70218 -11.45327,-50.05952 -19.46085,-74.34919 -4.68323,24.99336 -10.28854,49.7926 -15.89384,74.56758 -28.70598,-7.54654 -57.33915,-15.45706 -85.97233,-23.27052 1.89271,5.12 4.68323,9.85175 7.64361,14.41365 8.9782,14.60777 16.59753,30.04057 26.61914,43.96891 -23.51317,12.88493 -45.15791,28.77877 -67.84606,42.99829 -14.00114,9.65763 -29.19128,17.59242 -42.39166,28.39052 -41.76076,2.57214 -83.37593,8.32304 -125.25801,7.98332 -20.31014,1.84417 -40.69308,2.57213 -61.00322,4.34351 24.53232,-5.65384 48.94331,-11.76872 73.47564,-17.51962 13.20037,-4.63469 26.81327,-8.44436 40.8144,-9.58484 24.04702,-4.9744 47.80285,-11.18635 71.72853,-16.67033 -17.27696,-1.57725 -34.23848,-5.92076 -51.10293,-9.82749 -0.29119,-14.14673 -1.11621,-28.31772 -0.0485,-42.41592 4.5619,-21.28076 8.9782,-43.75052 23.00361,-61.14882 7.95905,-9.65763 15.55412,-20.55279 27.20151,-26.01251 7.52228,-3.8582 16.0637,-4.75602 24.07128,-7.25535 11.42901,-3.88247 23.22199,0.82502 34.79659,1.35886 0.29119,-4.65896 0.65517,-9.31792 1.01915,-13.95261 3.61554,-11.62312 8.46862,-23.17346 16.59753,-32.39431 13.37024,-13.58863 27.22578,-28.09934 45.93441,-33.99583 z"
     id="path14"
     style="fill:#f5e5c1" />
  <path
     d="m 216.3018,463.49346 c 5.16853,-5.14427 9.63337,-12.25403 17.03431,-14.21953 8.4201,28.97289 21.13517,56.4656 31.83621,84.61346 1.14048,5.67811 -0.0728,11.47754 -0.67943,17.15564 -1.67431,11.23488 -0.84929,22.63962 -2.15962,33.87451 -0.5581,0.75222 -1.67431,2.20815 -2.23242,2.93611 -7.93478,2.47507 -16.18502,3.66408 -24.21687,5.8237 2.15962,-17.54389 2.5964,-35.2819 4.95014,-52.77726 -8.17744,-25.79412 -16.69459,-51.49118 -24.53232,-77.40663 z"
     id="path16"
     style="fill:#f5e5c1" />
  <path
     d="m 645.36265,625.22237 c 35.06351,-10.70104 70.02996,-21.66901 104.94787,-32.70976 11.33194,18.05346 13.20038,42.31886 3.83393,61.58559 -11.18635,18.75716 -30.21042,33.19507 -51.97649,36.93194 -0.24265,15.86958 1.62578,32.24872 -3.76114,47.53593 -3.61554,10.0944 -5.53251,21.25649 -13.03052,29.3854 -7.6436,8.54142 -14.85042,18.19905 -25.69706,22.88227 -6.55166,4.17365 -14.0254,6.33327 -21.1109,9.34218 -13.10332,7.18256 -28.22066,8.80835 -41.90635,14.53498 -9.02673,18.90275 -20.38294,36.61649 -29.84644,55.32512 -0.84929,0.26692 -2.5964,0.77649 -3.44569,1.04341 -8.78408,-11.72019 -16.37915,-24.2654 -24.94484,-36.13118 -28.09933,39.33421 -55.66483,79.12948 -83.35166,118.73061 -0.16985,-5.31412 2.30522,-10.04587 4.14939,-14.87469 28.31772,-84.07962 56.2472,-168.3291 84.5164,-252.45725 0.92208,-3.13024 1.52872,-6.33327 2.15962,-9.51204 0.70369,-0.36398 2.06256,-1.09194 2.76625,-1.45592 6.13915,11.38047 10.21574,23.85289 17.47109,34.60246 0.72797,-26.25516 -0.29118,-52.5346 0.46105,-78.78976 25.47867,15.26294 50.90881,30.62294 76.38748,45.88588 -6.55165,-13.73422 -18.17478,-24.411 -25.57573,-37.68417 -0.16986,-2.08683 -0.16986,-4.17365 -0.0243,-6.26048 9.6091,-1.52872 18.68436,-5.14426 27.97801,-7.91052 z"
     id="path18"
     style="fill:#f5e5c1" />
  <path
     d="M 91.698957,755.21213 C 219.86882,701.31867 347.43204,645.92076 475.67469,592.26995 c -5.6781,20.98958 -12.39962,41.68796 -18.32038,62.60474 -4.61042,12.59375 -6.18767,26.35223 -12.90919,38.12095 18.15052,-14.0982 38.53346,-25.01763 57.60606,-37.78123 2.88759,-2.11109 6.16342,-3.59128 9.65764,-4.34351 -14.55925,23.87716 -24.75072,50.13232 -38.99451,74.2036 -47.09914,82.76929 -93.51886,165.95109 -141.07905,248.45346 1.60152,-4.12512 3.2273,-8.22597 4.19792,-12.54521 11.79298,-53.67507 22.56682,-107.54427 34.28701,-161.2436 -19.26673,1.67431 -37.1746,-6.79432 -52.97137,-16.88872 -7.30389,0.6309 -12.982,6.62445 -19.26673,10.02161 -15.38427,10.33706 -32.03034,18.87848 -46.32266,30.76853 -0.6309,0.0243 -1.91697,0.0971 -2.54787,0.12133 15.60266,-21.47489 31.86048,-42.51299 46.95356,-64.32759 -1.48019,-3.2273 -5.02294,-4.63469 -7.61934,-6.74578 -9.80322,-6.35753 -17.13137,-15.57839 -24.28967,-24.62938 -2.18388,-3.13024 -6.52739,-1.57725 -9.6091,-1.35887 -53.6508,10.50692 -107.4472,20.18882 -160.976678,31.20531 l -8.153176,0.53384 6.381801,-3.2273 z"
     id="path20"
     style="fill:#f5e5c1" />
  <path
     d="m 776.2745,609.52265 c 12.30256,1.09195 24.58086,1.50446 36.90768,0.58237 40.45043,3.73688 81.02218,6.50313 121.42408,10.84664 -18.6601,8.12891 -37.99962,14.55924 -56.87811,22.15431 42.87697,16.81593 86.21498,32.44284 129.06765,49.2345 -46.73514,3.63981 -93.61589,4.4891 -140.42386,7.35242 11.0165,10.99223 21.8874,22.13005 33.29214,32.73403 -21.74181,-8.54142 -41.85782,-20.74692 -62.99299,-30.69574 -17.83507,-9.22085 -36.17972,-17.49535 -53.7964,-27.12872 12.52095,-4.12511 24.82351,-8.88113 37.41725,-12.73933 -13.00625,-18.68436 -29.77365,-34.5782 -44.01744,-52.34048 z"
     id="path22"
     style="fill:#f5e5c1" />
  <path
     d="m 229.62351,624.95545 c 10.1672,-2.66919 20.72265,-1.9655 31.10824,-2.47507 -0.24265,6.57592 0.80076,13.56436 -2.37801,19.63071 -9.70616,-1.28607 -19.43658,-2.62066 -29.23981,-2.74199 0.16986,-4.82882 0.36398,-9.6091 0.50958,-14.41365 z"
     id="path24"
     style="fill:#f5e5c1" />
  <path
     d="m 719.49346,705.90483 c 12.03564,-3.68834 21.35355,-13.10331 27.78389,-23.61023 50.95734,56.1744 101.55071,112.76132 152.60511,168.8872 -6.81857,-2.01403 -12.54521,-6.28474 -18.58729,-9.82749 -18.46598,-10.36132 -36.95621,-20.81971 -54.4273,-32.87962 -3.2273,-2.15962 -6.64872,-4.46483 -10.72531,-4.34351 6.26047,13.97688 10.9437,28.60891 18.12626,42.17327 -1.21327,-0.33971 -3.66408,-1.04341 -4.87735,-1.38312 -40.47469,-23.7801 -81.09498,-47.36607 -121.59393,-71.09763 0.0485,-1.09195 0.12132,-3.3001 0.16985,-4.39204 9.36645,-19.8491 9.70616,-42.10048 11.52607,-63.52683 z"
     id="path26"
     style="fill:#f5e5c1" />
  <path
     d="m 213.97232,760.23507 c 5.41119,-3.27583 10.16721,-8.00758 16.57327,-9.24512 -0.77649,0.7037 -2.30521,2.11109 -3.05744,2.81479 -24.45952,35.23336 -49.9382,69.81156 -74.93156,104.70521 9.41497,-0.0485 18.63583,-2.23241 27.88095,-3.73687 27.54123,-4.68322 55.03393,-9.58483 82.5509,-14.34085 0.14559,13.97687 0.53383,27.95374 0.75222,41.93061 8.22598,-1.50445 16.23356,-4.07658 24.43526,-5.70237 -11.76872,33.46199 -23.44037,66.94825 -35.45175,100.31318 -2.69346,7.03697 -3.56701,14.92322 -8.22597,21.06237 -3.59128,-19.53365 -5.28986,-39.38275 -8.3473,-58.9892 -8.08038,9.22086 -16.18502,18.41745 -23.90142,27.95375 -2.01403,2.69346 -4.73175,4.65896 -7.7164,6.11488 6.40607,-25.76986 10.38559,-52.07355 15.62692,-78.08607 -7.0127,3.90673 -12.64227,9.70617 -18.63583,14.92323 -19.46085,16.59753 -38.77611,33.36493 -57.99431,50.20512 10.77384,-22.88228 21.08663,-46.05574 33.14654,-68.30711 -16.96152,-4.73176 -35.33043,-0.75223 -52.68019,-4.14939 -34.602466,-0.50957 -69.059338,-4.58616 -103.686068,-3.66407 0.218389,-0.89782 0.655166,-2.6692 0.849289,-3.54275 C 85.82673,841.0146 149.71754,800.32152 213.97232,760.23507 z"
     id="path28"
     style="fill:#f5e5c1" />
</svg>
