<?xml version="1.0" encoding="UTF-8" ?>
<!DOCTYPE svg PUBLIC "-//W3C//DTD SVG 1.1//EN" "http://www.w3.org/Graphics/SVG/1.1/DTD/svg11.dtd">
<svg width="422pt" height="422pt" viewBox="0 0 422 422" version="1.1" xmlns="http://www.w3.org/2000/svg">
<path fill="#3e3e3e" opacity="1.00" d=" M 0.00 0.00 L 422.00 0.00 L 422.00 422.00 L 0.00 422.00 L 0.00 0.00 Z" />
<path fill="#f5e5c1" opacity="1.00" d=" M 117.25 14.21 C 125.23 12.88 133.19 14.88 141.08 15.95 C 148.29 18.17 155.86 19.69 162.43 23.57 C 166.75 25.82 171.16 28.00 175.11 30.89 C 181.90 37.44 189.62 43.02 195.96 50.05 C 200.21 55.73 205.24 60.76 210.14 65.87 C 213.50 70.20 216.86 74.55 219.96 79.07 C 223.41 81.87 227.62 83.56 231.44 85.79 C 234.84 87.85 239.13 87.51 242.45 89.70 C 245.87 92.74 246.51 97.75 246.25 102.07 C 243.40 112.35 235.42 119.86 228.24 127.28 C 224.13 130.94 220.21 134.80 216.19 138.56 C 215.46 138.24 214.00 137.59 213.26 137.27 C 217.97 133.32 222.02 128.70 226.41 124.42 C 231.45 119.73 235.62 114.17 239.27 108.35 C 241.81 104.29 243.06 99.26 241.35 94.63 C 238.13 90.49 232.65 91.21 228.00 91.31 C 222.39 91.58 217.09 93.76 211.98 95.92 C 199.13 100.76 187.04 107.39 175.12 114.16 C 166.13 119.99 156.43 124.65 147.76 130.99 C 137.75 137.01 128.82 144.61 119.32 151.36 C 114.90 155.28 110.23 158.91 105.84 162.87 C 100.25 168.62 94.45 174.15 88.90 179.95 C 81.45 186.86 76.46 195.92 72.53 205.18 C 71.30 208.77 71.11 214.21 74.98 216.23 C 79.93 217.52 84.78 215.55 89.69 215.16 C 89.88 215.91 90.26 217.42 90.46 218.17 C 83.80 220.52 76.11 221.90 69.67 218.17 C 66.50 210.13 68.50 201.40 67.19 193.09 C 62.94 184.48 58.68 175.85 54.62 167.13 C 48.90 156.15 42.88 145.13 39.65 133.10 C 38.44 129.67 37.21 126.23 36.67 122.62 C 35.80 115.42 34.08 108.25 34.84 100.95 C 35.63 95.40 35.43 89.72 37.09 84.31 C 37.61 75.79 41.54 68.05 44.47 60.18 C 49.72 48.65 58.16 38.87 67.86 30.85 C 75.06 25.88 82.48 20.87 91.07 18.67 C 99.52 15.90 108.33 14.09 117.25 14.21 Z" />
<path fill="#f4722b" opacity="1.00" d=" M 133.13 42.32 C 136.96 39.56 141.44 37.25 146.29 37.42 C 150.33 40.84 153.22 45.35 157.04 48.99 C 161.41 47.63 165.44 44.89 170.07 44.63 C 174.83 46.35 178.66 51.21 179.70 56.10 C 175.89 58.47 171.47 59.80 168.00 62.68 C 171.05 65.60 173.78 68.83 176.61 71.96 C 176.52 73.36 176.44 74.76 176.36 76.16 C 172.55 77.90 168.71 79.62 164.81 81.16 C 162.87 81.99 161.05 80.51 159.46 79.59 C 156.04 77.57 154.29 73.85 151.71 70.99 C 146.97 72.32 142.85 75.35 137.95 76.16 C 132.67 75.99 130.83 70.25 127.23 67.36 C 129.26 61.78 136.54 61.24 140.04 57.04 C 138.09 52.97 134.60 49.89 132.51 45.91 C 132.37 44.75 131.98 43.10 133.13 42.32 Z" />
<path fill="#f5e5c1" opacity="1.00" d=" M 312.88 95.52 C 313.35 95.53 314.30 95.56 314.77 95.57 C 310.31 112.34 304.71 128.82 300.17 145.58 C 294.58 143.26 289.69 138.83 283.23 139.21 C 284.69 135.32 287.83 132.42 289.99 128.94 C 297.53 117.74 305.70 106.95 312.88 95.52 Z" />
<path fill="#f5e5c1" opacity="1.00" d=" M 325.13 149.20 C 331.58 146.58 338.32 144.66 344.47 141.34 C 337.25 148.83 329.75 156.05 322.61 163.62 C 321.48 164.84 320.24 165.92 318.92 166.92 C 316.93 162.28 315.65 156.90 311.25 153.86 C 315.71 151.80 320.61 151.06 325.13 149.20 Z" />
<path fill="#f5e5c1" opacity="1.00" d=" M 190.53 145.61 C 203.14 139.94 219.42 142.84 228.51 153.52 C 229.95 154.86 231.79 158.03 233.99 156.14 C 238.49 151.21 244.67 148.45 250.56 145.59 C 255.75 143.27 261.50 143.56 267.01 142.72 C 281.19 142.75 296.53 146.73 306.09 157.92 C 311.70 164.52 314.17 172.96 316.27 181.17 C 316.82 190.55 316.83 200.23 313.81 209.23 C 313.64 210.37 312.61 212.13 313.95 212.94 C 324.12 214.88 333.93 218.43 344.15 220.17 C 343.86 220.61 343.30 221.49 343.01 221.93 C 326.38 228.12 309.99 234.95 293.45 241.40 C 291.86 242.01 290.38 240.78 288.89 240.43 C 282.33 238.39 275.75 236.40 269.16 234.47 C 265.31 233.34 261.56 231.77 257.55 231.32 C 256.75 230.35 255.10 229.68 255.38 228.20 C 258.87 223.57 263.35 219.62 266.25 214.59 C 263.53 213.98 260.78 213.45 258.06 212.83 C 254.04 212.51 250.06 211.82 246.07 211.31 C 251.01 200.05 256.02 188.78 260.64 177.37 C 249.85 186.01 239.07 194.67 228.19 203.20 C 226.13 204.72 224.49 207.00 221.88 207.58 C 219.08 197.40 217.16 186.95 213.86 176.94 C 211.93 187.24 209.62 197.46 207.31 207.67 C 195.48 204.56 183.68 201.30 171.88 198.08 C 172.66 200.19 173.81 202.14 175.03 204.02 C 178.73 210.04 181.87 216.40 186.00 222.14 C 176.31 227.45 167.39 234.00 158.04 239.86 C 152.27 243.84 146.01 247.11 140.57 251.56 C 123.36 252.62 106.21 254.99 88.95 254.85 C 80.58 255.61 72.18 255.91 63.81 256.64 C 73.92 254.31 83.98 251.79 94.09 249.42 C 99.53 247.51 105.14 245.94 110.91 245.47 C 120.82 243.42 130.61 240.86 140.47 238.60 C 133.35 237.95 126.36 236.16 119.41 234.55 C 119.29 228.72 118.95 222.88 119.39 217.07 C 121.27 208.30 123.09 199.04 128.87 191.87 C 132.15 187.89 135.28 183.40 140.08 181.15 C 143.18 179.56 146.70 179.19 150.00 178.16 C 154.71 176.56 159.57 178.50 164.34 178.72 C 164.46 176.80 164.61 174.88 164.76 172.97 C 166.25 168.18 168.25 163.42 171.60 159.62 C 177.11 154.02 182.82 148.04 190.53 145.61 Z" />
<path fill="#f5e5c1" opacity="1.00" d=" M 89.14 191.01 C 91.27 188.89 93.11 185.96 96.16 185.15 C 99.63 197.09 104.87 208.42 109.28 220.02 C 109.75 222.36 109.25 224.75 109.00 227.09 C 108.31 231.72 108.65 236.42 108.11 241.05 C 107.88 241.36 107.42 241.96 107.19 242.26 C 103.92 243.28 100.52 243.77 97.21 244.66 C 98.10 237.43 98.28 230.12 99.25 222.91 C 95.88 212.28 92.37 201.69 89.14 191.01 Z" />
<path fill="#f5e5c1" opacity="1.00" d=" M 265.96 257.66 C 280.41 253.25 294.82 248.73 309.21 244.18 C 313.88 251.62 314.65 261.62 310.79 269.56 C 306.18 277.29 298.34 283.24 289.37 284.78 C 289.27 291.32 290.04 298.07 287.82 304.37 C 286.33 308.53 285.54 313.13 282.45 316.48 C 279.30 320.00 276.33 323.98 271.86 325.91 C 269.16 327.63 266.08 328.52 263.16 329.76 C 257.76 332.72 251.53 333.39 245.89 335.75 C 242.17 343.54 237.49 350.84 233.59 358.55 C 233.24 358.66 232.52 358.87 232.17 358.98 C 228.55 354.15 225.42 348.98 221.89 344.09 C 210.31 360.30 198.95 376.70 187.54 393.02 C 187.47 390.83 188.49 388.88 189.25 386.89 C 200.92 352.24 212.43 317.52 224.08 282.85 C 224.46 281.56 224.71 280.24 224.97 278.93 C 225.26 278.78 225.82 278.48 226.11 278.33 C 228.64 283.02 230.32 288.16 233.31 292.59 C 233.61 281.77 233.19 270.94 233.50 260.12 C 244.00 266.41 254.48 272.74 264.98 279.03 C 262.28 273.37 257.49 268.97 254.44 263.50 C 254.37 262.64 254.37 261.78 254.43 260.92 C 258.39 260.29 262.13 258.80 265.96 257.66 Z" />
<path fill="#f5e5c1" opacity="1.00" d=" M 37.79 311.23 C 90.61 289.02 143.18 266.19 196.03 244.08 C 193.69 252.73 190.92 261.26 188.48 269.88 C 186.58 275.07 185.93 280.74 183.16 285.59 C 190.64 279.78 199.04 275.28 206.90 270.02 C 208.09 269.15 209.44 268.54 210.88 268.23 C 204.88 278.07 200.68 288.89 194.81 298.81 C 175.40 332.92 156.27 367.20 136.67 401.20 C 137.33 399.50 138.00 397.81 138.40 396.03 C 143.26 373.91 147.70 351.71 152.53 329.58 C 144.59 330.27 137.21 326.78 130.70 322.62 C 127.69 322.88 125.35 325.35 122.76 326.75 C 116.42 331.01 109.56 334.53 103.67 339.43 C 103.41 339.44 102.88 339.47 102.62 339.48 C 109.05 330.63 115.75 321.96 121.97 312.97 C 121.36 311.64 119.90 311.06 118.83 310.19 C 114.79 307.57 111.77 303.77 108.82 300.04 C 107.92 298.75 106.13 299.39 104.86 299.48 C 82.75 303.81 60.58 307.80 38.52 312.34 L 35.16 312.56 L 37.79 311.23 Z" />
<path fill="#f5e5c1" opacity="1.00" d=" M 319.91 251.19 C 324.98 251.64 330.04 251.81 335.12 251.43 C 351.79 252.97 368.51 254.11 385.16 255.90 C 377.47 259.25 369.50 261.90 361.72 265.03 C 379.39 271.96 397.25 278.40 414.91 285.32 C 395.65 286.82 376.33 287.17 357.04 288.35 C 361.58 292.88 366.06 297.47 370.76 301.84 C 361.80 298.32 353.51 293.29 344.80 289.19 C 337.45 285.39 329.89 281.98 322.63 278.01 C 327.79 276.31 332.86 274.35 338.05 272.76 C 332.69 265.06 325.78 258.51 319.91 251.19 Z" />
<path fill="#f5e5c1" opacity="1.00" d=" M 94.63 257.55 C 98.82 256.45 103.17 256.74 107.45 256.53 C 107.35 259.24 107.78 262.12 106.47 264.62 C 102.47 264.09 98.46 263.54 94.42 263.49 C 94.49 261.50 94.57 259.53 94.63 257.55 Z" />
<path fill="#f5e5c1" opacity="1.00" d=" M 296.51 290.91 C 301.47 289.39 305.31 285.51 307.96 281.18 C 328.96 304.33 349.81 327.65 370.85 350.78 C 368.04 349.95 365.68 348.19 363.19 346.73 C 355.58 342.46 347.96 338.15 340.76 333.18 C 339.43 332.29 338.02 331.34 336.34 331.39 C 338.92 337.15 340.85 343.18 343.81 348.77 C 343.31 348.63 342.30 348.34 341.80 348.20 C 325.12 338.40 308.38 328.68 291.69 318.90 C 291.71 318.45 291.74 317.54 291.76 317.09 C 295.62 308.91 295.76 299.74 296.51 290.91 Z" />
<path fill="#f5e5c1" opacity="1.00" d=" M 88.18 313.30 C 90.41 311.95 92.37 310.00 95.01 309.49 C 94.69 309.78 94.06 310.36 93.75 310.65 C 83.67 325.17 73.17 339.42 62.87 353.80 C 66.75 353.78 70.55 352.88 74.36 352.26 C 85.71 350.33 97.04 348.31 108.38 346.35 C 108.44 352.11 108.60 357.87 108.69 363.63 C 112.08 363.01 115.38 361.95 118.76 361.28 C 113.91 375.07 109.10 388.87 104.15 402.62 C 103.04 405.52 102.68 408.77 100.76 411.30 C 99.28 403.25 98.58 395.07 97.32 386.99 C 93.99 390.79 90.65 394.58 87.47 398.51 C 86.64 399.62 85.52 400.43 84.29 401.03 C 86.93 390.41 88.57 379.57 90.73 368.85 C 87.84 370.46 85.52 372.85 83.05 375.00 C 75.03 381.84 67.07 388.75 59.15 395.69 C 63.59 386.26 67.84 376.71 72.81 367.54 C 65.82 365.59 58.25 367.23 51.10 365.83 C 36.84 365.62 22.64 363.94 8.37 364.32 C 8.46 363.95 8.64 363.22 8.72 362.86 C 35.37 346.59 61.70 329.82 88.18 313.30 Z" />
</svg>
