<?xml version="1.0" encoding="UTF-8" ?>
<!DOCTYPE svg PUBLIC "-//W3C//DTD SVG 1.1//EN" "http://www.w3.org/Graphics/SVG/1.1/DTD/svg11.dtd">
<svg width="422pt" height="422pt" viewBox="0 0 422 422" version="1.1" xmlns="http://www.w3.org/2000/svg">
<path fill="#3e3e3e" opacity="1.00" d=" M 0.00 0.00 L 422.00 0.00 L 422.00 422.00 L 0.00 422.00 L 0.00 0.00 Z" />
<path fill="#f4722b" opacity="1.00" d=" M 158.31 14.88 C 159.78 15.22 161.54 15.11 162.55 16.43 C 165.24 19.09 168.44 21.25 170.69 24.34 C 173.22 27.65 175.25 31.30 177.20 34.97 C 180.52 41.61 180.67 49.17 182.67 56.21 C 187.17 48.59 191.49 40.61 197.87 34.38 C 196.56 41.88 196.66 49.64 198.88 56.98 C 200.44 61.83 201.00 66.99 200.60 72.07 C 198.20 85.08 189.21 96.24 177.94 102.83 C 171.46 106.27 164.14 107.61 157.51 110.70 C 141.16 117.37 126.99 128.20 113.94 139.91 C 92.36 162.41 79.56 192.93 78.18 224.05 C 74.75 215.87 72.29 207.32 70.21 198.71 C 69.07 193.86 67.31 189.06 67.36 184.01 C 67.71 174.84 66.26 165.41 69.24 156.51 C 70.12 149.02 73.38 142.15 76.06 135.18 C 79.42 126.97 84.82 119.75 87.93 111.43 C 88.71 111.56 90.28 111.82 91.06 111.96 C 91.41 114.64 91.23 117.36 91.56 120.04 C 92.43 126.72 95.32 132.88 98.12 138.93 C 98.21 134.80 98.92 130.73 100.47 126.89 C 102.17 120.26 105.10 113.84 109.78 108.77 C 115.63 101.88 122.93 96.54 130.12 91.16 C 139.17 85.09 146.54 76.93 153.98 69.06 C 161.12 61.77 164.99 51.91 166.61 41.97 C 166.90 37.45 164.99 33.17 164.04 28.82 C 162.78 25.06 161.61 21.00 158.52 18.29 C 158.44 17.15 158.38 16.02 158.31 14.88 Z" />
<path fill="#f4722b" opacity="1.00" d=" M 334.82 41.15 C 336.18 41.05 337.53 40.94 338.89 40.82 C 338.31 43.83 337.19 46.91 337.93 50.01 C 339.45 58.02 344.62 64.57 348.49 71.56 C 354.04 80.42 358.76 89.81 362.48 99.59 C 369.68 116.12 368.37 134.91 364.66 152.14 C 362.89 162.68 360.30 173.41 354.53 182.53 C 350.57 187.43 351.55 194.14 351.55 200.00 C 351.39 201.79 352.21 203.39 353.03 204.92 C 355.15 200.20 356.71 195.11 356.34 189.87 C 357.86 189.85 360.04 189.56 360.47 191.53 C 363.02 198.93 365.25 206.44 368.21 213.70 C 370.47 222.36 372.07 231.19 373.43 240.03 C 375.58 249.26 375.06 259.00 372.38 268.05 C 371.17 277.97 363.59 285.18 357.27 292.26 C 350.60 298.29 343.47 303.79 336.80 309.84 C 326.98 317.91 316.31 324.84 305.44 331.41 C 300.37 334.35 295.85 339.64 296.51 345.86 C 296.05 345.79 295.14 345.66 294.69 345.60 C 292.63 341.32 288.64 336.12 291.18 331.34 C 304.24 320.17 315.60 306.89 323.59 291.61 C 325.78 287.16 328.57 283.00 330.44 278.40 C 332.77 269.35 335.81 260.46 337.22 251.20 C 340.86 228.54 337.70 205.22 330.49 183.57 C 321.61 159.93 305.60 139.14 285.28 124.19 C 287.33 119.24 290.10 114.53 291.20 109.23 C 292.81 102.25 294.35 95.11 293.71 87.89 C 293.69 82.30 290.67 77.14 286.73 73.35 C 283.94 70.60 279.76 70.49 276.60 68.36 C 281.50 66.07 286.81 68.23 291.08 70.86 C 294.74 73.20 298.78 75.06 301.99 78.03 C 311.01 89.02 313.94 103.39 316.59 116.99 C 322.10 111.47 328.40 106.36 331.92 99.24 C 337.42 87.80 340.27 73.91 335.25 61.79 C 332.98 55.15 333.18 47.90 334.82 41.15 Z" />
<path fill="#f4722b" opacity="1.00" d=" M 207.10 56.61 C 209.81 55.41 212.95 54.72 215.65 56.38 C 220.20 59.08 222.63 64.36 223.55 69.41 C 224.79 76.21 226.72 83.43 224.29 90.19 C 222.69 93.53 220.68 96.80 217.94 99.33 C 213.96 99.76 209.94 99.30 205.94 99.43 C 204.31 99.60 202.83 98.91 201.41 98.22 C 201.39 96.14 201.16 94.02 201.56 91.96 C 205.05 86.12 211.52 82.42 213.95 75.88 C 214.82 73.35 215.42 70.66 215.22 67.98 C 214.45 63.16 211.10 59.19 207.10 56.61 Z" />
<path fill="#f4722b" opacity="1.00" d=" M 48.09 66.79 C 52.22 67.85 51.98 73.47 55.38 75.67 C 62.86 81.08 72.28 83.53 79.20 89.79 C 82.64 93.16 81.37 98.43 79.38 102.20 C 77.79 105.85 74.11 107.81 71.91 111.02 C 69.40 108.41 66.99 105.64 63.59 104.15 C 57.42 99.86 51.21 93.85 50.34 85.99 C 50.30 79.53 50.04 73.00 48.09 66.79 Z" />
<path fill="#f4722b" opacity="1.00" d=" M 22.24 98.45 C 26.51 97.16 28.66 101.36 30.92 104.10 C 36.65 111.12 43.83 117.33 47.15 126.00 C 49.25 132.05 51.55 138.58 49.84 145.03 C 48.88 150.31 44.74 154.54 44.52 159.99 C 44.28 162.19 45.38 164.18 46.15 166.16 C 44.04 166.37 41.73 166.50 40.07 164.92 C 34.28 161.27 31.07 155.12 27.47 149.55 C 22.68 142.40 21.78 133.29 22.72 124.93 C 25.01 116.35 26.44 106.68 22.24 98.45 Z" />
<path fill="#f5e5c1" opacity="1.00" d=" M 191.67 109.90 C 225.24 105.44 260.48 115.68 286.23 137.75 C 308.10 156.24 323.01 182.70 327.45 210.99 C 330.38 230.19 329.10 250.14 322.90 268.60 C 315.99 289.97 302.88 309.26 285.67 323.67 C 266.69 339.61 242.71 349.57 217.99 351.55 C 207.67 352.10 197.24 352.09 187.03 350.33 C 161.67 346.10 137.73 333.57 119.95 314.98 C 100.91 295.44 88.85 269.19 86.47 242.00 C 84.40 221.56 87.80 200.60 96.00 181.76 C 106.17 158.19 124.13 138.13 146.33 125.27 C 160.24 117.24 175.74 112.00 191.67 109.90 Z" />
<path fill="#3e3e3e" opacity="1.00" d=" M 194.65 117.87 C 212.93 116.05 231.72 118.12 248.83 125.01 C 272.96 134.27 293.50 152.29 306.17 174.78 C 315.39 191.26 320.60 210.09 320.63 229.00 C 321.14 252.77 313.73 276.68 299.88 296.00 C 288.37 312.47 272.24 325.61 253.93 333.85 C 229.62 344.76 201.43 346.75 175.85 339.28 C 156.00 333.62 137.84 322.28 123.90 307.08 C 107.81 289.61 97.56 266.96 94.86 243.38 C 93.59 229.49 94.16 215.30 97.84 201.79 C 103.30 180.56 115.17 161.04 131.46 146.38 C 148.85 130.56 171.30 120.54 194.65 117.87 Z" />
<path fill="#f4722b" opacity="1.00" d=" M 157.02 144.08 C 179.67 149.79 202.90 152.73 226.07 155.40 C 243.54 157.34 261.08 158.57 278.63 159.35 C 275.47 172.95 272.50 186.59 269.32 200.18 C 242.08 194.57 214.88 188.82 187.65 183.21 C 184.39 194.75 181.12 206.28 177.86 217.82 C 190.44 215.33 203.43 215.07 216.11 216.92 C 230.49 218.96 245.09 222.60 257.27 230.84 C 259.13 231.52 256.94 232.91 256.04 233.06 C 241.34 238.87 226.70 244.87 211.98 250.67 C 201.09 246.87 189.48 245.78 178.00 245.76 C 160.94 246.13 143.91 248.11 127.23 251.70 C 137.18 215.83 147.09 179.95 157.02 144.08 Z" />
<path fill="#f4722b" opacity="1.00" d=" M 44.24 196.87 C 44.79 197.04 45.87 197.37 46.41 197.53 C 48.08 205.19 50.93 212.90 56.00 218.98 C 62.68 226.09 70.31 232.30 78.28 237.90 C 80.20 270.21 94.44 301.75 117.96 324.07 C 119.54 325.77 121.54 327.13 122.76 329.12 C 122.07 334.19 121.39 339.31 119.57 344.13 C 117.79 351.96 115.64 360.52 119.22 368.19 C 117.90 367.41 116.76 366.38 115.98 365.06 C 108.94 354.52 106.16 341.66 98.51 331.48 C 94.82 326.92 91.08 322.30 86.46 318.64 C 80.36 314.00 73.97 309.75 67.97 304.99 C 63.46 300.47 58.61 296.17 55.17 290.73 C 51.37 284.85 48.75 278.34 45.63 272.10 C 42.83 265.69 41.61 258.73 39.92 251.98 C 38.86 240.62 38.72 229.14 39.91 217.78 C 41.78 210.90 43.20 203.93 44.24 196.87 Z" />
<path fill="#f5e5c1" opacity="1.00" d=" M 305.48 219.26 C 307.24 218.49 309.14 218.12 311.02 217.77 C 312.11 220.14 313.17 222.53 314.12 224.96 C 282.69 239.82 251.19 254.56 219.92 269.73 C 220.20 278.39 212.63 286.16 204.04 286.40 C 199.75 286.75 195.79 284.82 192.24 282.66 C 176.05 290.45 159.73 297.98 143.58 305.85 C 140.62 300.67 138.73 294.95 135.52 289.91 C 152.56 283.11 169.47 275.94 186.36 268.79 C 187.04 263.47 189.66 258.16 194.44 255.42 C 199.80 251.95 207.13 252.05 212.36 255.72 C 213.58 256.69 215.10 257.20 216.55 256.33 C 246.18 243.97 275.83 231.61 305.48 219.26 Z" />
<path fill="#f4722b" opacity="1.00" d=" M 227.99 272.19 C 242.99 265.05 258.00 257.91 273.03 250.82 C 277.08 262.90 275.82 276.35 271.04 288.03 C 265.34 301.75 253.46 312.18 240.01 318.05 C 221.56 326.17 200.66 327.26 180.96 323.97 C 167.66 322.17 154.72 318.54 142.02 314.33 C 142.03 313.90 142.06 313.05 142.07 312.62 C 159.21 305.44 175.96 297.33 192.98 289.85 C 197.01 291.96 201.34 293.91 206.01 293.64 C 215.43 293.74 224.43 286.45 225.86 277.07 C 226.44 275.43 225.92 272.84 227.99 272.19 Z" />
<path fill="#f4722b" opacity="1.00" d=" M 142.95 270.88 C 146.02 273.04 149.27 274.92 152.21 277.26 C 146.85 279.39 141.46 281.46 136.12 283.64 C 138.43 279.41 140.64 275.12 142.95 270.88 Z" />
<path fill="#f4722b" opacity="1.00" d=" M 130.77 293.80 C 134.38 299.62 136.77 306.10 140.46 311.88 C 139.94 312.37 139.42 312.86 138.88 313.35 C 134.46 310.10 129.04 308.57 124.63 305.27 C 126.73 301.48 128.71 297.62 130.77 293.80 Z" />
<path fill="#f5e5c1" opacity="1.00" d=" M 153.09 344.71 C 168.14 353.55 185.73 357.01 203.01 357.56 C 208.98 358.60 214.96 357.31 220.95 357.31 C 236.24 356.07 251.67 352.64 264.97 344.71 C 265.00 357.20 265.01 369.70 264.99 382.19 C 250.45 390.55 233.65 393.95 217.05 394.75 C 195.28 395.54 172.23 393.44 153.18 381.99 C 152.97 369.56 153.13 357.13 153.09 344.71 Z" />
<path fill="#f5e5c1" opacity="1.00" d=" M 172.01 397.22 C 187.61 401.54 203.96 402.61 220.07 401.59 C 228.10 400.92 236.18 399.94 243.94 397.69 C 244.03 402.79 243.99 407.89 244.00 413.00 C 220.00 413.00 196.00 413.00 172.00 413.00 C 172.00 407.74 171.99 402.48 172.01 397.22 Z" />
</svg>
