<?xml version="1.0" encoding="UTF-8" standalone="no"?>
<svg
   xmlns:dc="http://purl.org/dc/elements/1.1/"
   xmlns:cc="http://creativecommons.org/ns#"
   xmlns:rdf="http://www.w3.org/1999/02/22-rdf-syntax-ns#"
   xmlns:svg="http://www.w3.org/2000/svg"
   xmlns="http://www.w3.org/2000/svg"
   xmlns:sodipodi="http://sodipodi.sourceforge.net/DTD/sodipodi-0.dtd"
   xmlns:inkscape="http://www.inkscape.org/namespaces/inkscape"
   width="1280"
   height="1280"
   viewBox="0 0 1024 1024"
   version="1.1"
   id="svg3270"
   inkscape:version="0.47 r22583"
   sodipodi:docname="assist_capturer.svg">
  <metadata
     id="metadata3306">
    <rdf:RDF>
      <cc:Work
         rdf:about="">
        <dc:format>image/svg+xml</dc:format>
        <dc:type
           rdf:resource="http://purl.org/dc/dcmitype/StillImage" />
      </cc:Work>
    </rdf:RDF>
  </metadata>
  <defs
     id="defs3304">
    <inkscape:perspective
       sodipodi:type="inkscape:persp3d"
       inkscape:vp_x="0 : 263.75 : 1"
       inkscape:vp_y="0 : 1000 : 0"
       inkscape:vp_z="527.5 : 263.75 : 1"
       inkscape:persp3d-origin="263.75 : 175.83333 : 1"
       id="perspective3308" />
  </defs>
  <sodipodi:namedview
     pagecolor="#ffffff"
     bordercolor="#666666"
     borderopacity="1"
     objecttolerance="10"
     gridtolerance="10"
     guidetolerance="10"
     inkscape:pageopacity="0"
     inkscape:pageshadow="2"
     inkscape:window-width="1280"
     inkscape:window-height="738"
     id="namedview3302"
     showgrid="false"
     inkscape:zoom="0.44739336"
     inkscape:cx="263.75"
     inkscape:cy="263.75"
     inkscape:window-x="-8"
     inkscape:window-y="-8"
     inkscape:window-maximized="1"
     inkscape:current-layer="svg3270" />
  <path
     d="m 0,0 1024,0 0,1024 L 0,1024 0,0 z"
     id="path3272"
     style="fill:#3e3e3e" />
  <path
     d="m 370.72682,30.7928 c 5.67811,-1.67432 11.72019,-0.94635 17.54389,-1.11621 88.20474,0.16986 176.40948,-0.0485 264.61422,0.0971 6.60019,-1.11621 12.08417,4.87735 12.03564,11.21062 0.31545,44.45421 0.0728,88.90843 0.12133,133.33838 -19.70351,15.62692 -31.88474,37.75697 -45.57043,58.30977 -15.74825,-10.74958 -32.34578,-20.14029 -49.25877,-28.9001 -28.73024,-13.73422 -59.78995,-21.28076 -90.21877,-30.13763 -16.52474,-4.90161 -32.87962,-10.28853 -49.33156,-15.38426 -18.90275,-4.99868 -33.99583,-18.27185 -48.28815,-30.93839 -7.57081,-6.30901 -13.24891,-14.7291 -17.01005,-23.7801 -1.01915,-19.94616 -0.0971,-39.98938 -0.41251,-59.98407 -0.50957,-4.97441 1.62578,-9.85176 5.77516,-12.71507 z"
     id="path3274"
     style="fill:#f4722b" />
  <path
     d="m 326.56379,48.06976 c 4.68322,3.78541 5.33839,10.26427 7.98332,15.40853 4.34351,8.9782 7.61934,18.41744 11.84152,27.44417 9.70616,17.71375 21.42635,34.43261 35.50028,48.99185 19.50938,18.80569 45.83735,27.0074 70.70938,36.00986 15.04455,5.48398 31.15678,7.20683 46.24986,12.56948 26.49782,9.17232 53.28683,17.73801 78.61991,29.87071 10.24,5.6781 20.4072,11.55033 30.6472,17.2527 1.9655,8.68702 -3.61554,16.28209 -7.0127,23.7801 -9.22085,15.86957 -21.42635,30.0163 -35.62161,41.66369 -7.42522,6.62446 -15.48133,12.8364 -24.72645,16.64607 -6.33327,1.84417 -13.03052,0.48531 -19.29099,-0.94635 -37.8055,-9.58484 -75.87792,-18.0292 -113.99887,-26.32796 -12.59374,-1.8927 -20.21308,-13.07906 -28.09933,-21.86313 -7.0127,-6.84284 -12.37536,-15.14161 -16.88872,-23.7801 -8.49289,-17.1799 -20.01896,-33.00094 -25.45441,-51.58824 -7.98332,-19.99469 -15.26294,-40.59602 -17.44682,-62.1437 -0.41252,-13.66142 -0.75223,-27.37137 1.23753,-40.91147 0.84929,-14.19526 5.79943,-27.80815 5.7509,-42.07621 z"
     id="path3276"
     style="fill:#f5e5c1" />
  <path
     d="m 752.03336,142.46218 c 21.23223,-7.0855 43.75053,-4.58616 65.73498,-4.90161 19.04834,2.32948 37.92683,6.74578 56.15014,12.73934 15.26294,8.29876 27.83242,20.57706 41.37252,31.30236 7.25535,5.45972 10.99222,15.86958 20.69838,17.66522 9.90029,0.5581 20.38294,-1.60152 29.50673,3.44569 -11.74445,13.3945 -28.70597,20.16455 -41.88208,31.81194 -13.22465,16.13649 -25.84266,32.90388 -36.78635,50.71469 -22.3727,37.19886 -28.87583,80.80379 -39.67394,122.1763 -4.53763,29.33688 -12.30256,58.23697 -24.28966,85.43849 -21.1109,54.45156 -50.93308,105.26331 -86.36057,151.61023 -17.49536,24.9691 -40.74161,44.93953 -62.16796,66.34162 -25.69707,22.49402 -53.28683,42.82843 -82.16266,61.07601 -11.64739,6.26048 -23.78009,11.5746 -35.69441,17.3255 -25.18748,12.1327 -52.99564,17.8836 -80.75526,19.9219 -30.98692,-0.55811 -59.25611,-16.20929 -83.93403,-33.65612 -17.68947,-13.07905 -31.73914,-30.38028 -43.58066,-48.77346 -19.7763,-26.69194 -37.41725,-54.88834 -54.25744,-83.52151 -15.9909,-33.8745 -38.50919,-64.37612 -64.6673,-91.04379 -9.36644,-10.33707 -24.3382,-12.9092 -37.6599,-11.93858 -24.67792,5.65384 -44.62408,22.85801 -68.74389,29.89497 C 108.2237,537.5272 91.57763,505.83659 78.231659,472.66578 67.312227,438.18464 60.954692,402.36891 57.897251,366.35905 c 0.800758,-34.5054 -2.717725,-69.25346 1.698578,-103.61327 8.250237,-1.52872 14.656304,4.51337 21.37782,8.15318 18.514503,11.45327 37.732701,21.83886 55.907491,33.85023 20.57706,17.37403 40.30483,35.81574 61.44,52.55887 10.94369,7.40094 22.39696,14.99602 35.62161,17.44682 7.74066,1.55299 15.31147,4.02806 23.14919,5.09574 9.53631,1.35886 19.55792,-0.80076 28.60891,3.27583 17.03432,22.858 32.03033,47.39033 51.36986,68.4527 15.48133,14.63203 30.0163,31.13251 49.3073,40.86294 0.50957,-2.91185 1.04341,-5.84797 1.57725,-8.73555 -16.13649,-8.44436 -28.00227,-22.59109 -40.11071,-35.7672 -10.77384,-10.3856 -18.99981,-22.95507 -28.53611,-34.40834 -17.56816,-21.30503 -34.74806,-43.67773 -44.62408,-69.71451 -16.98578,-31.22957 -30.33175,-64.35185 -40.98427,-98.25061 -6.35753,-17.98067 -6.79431,-37.39299 -7.25535,-56.27147 0.94635,-16.71886 -0.21839,-33.70465 3.44569,-50.18086 5.89649,11.98711 8.85687,25.35735 16.42767,36.51944 14.02541,26.1581 37.53858,45.03658 58.09138,65.7835 14.21952,15.60266 33.55905,24.87204 50.52057,37.02901 12.88493,9.39071 29.21554,10.8709 43.43507,17.34976 19.29099,9.29365 41.39678,7.98332 61.53706,14.38938 20.4072,6.89138 42.00341,9.46351 62.16796,17.15564 24.99337,6.98844 51.22427,15.21441 69.95716,34.14143 11.98711,14.75336 21.76606,31.93327 25.13896,50.86028 1.2618,13.44303 4.82881,26.59488 5.36265,40.13498 1.43166,-0.0243 4.27071,-0.0728 5.70237,-0.0971 -0.26692,-32.78256 -4.82882,-68.69536 -28.65744,-93.32474 -15.45706,-15.40853 -35.30616,-26.06105 -56.15014,-32.34579 27.4927,-15.52985 50.73895,-38.70331 67.33649,-65.56511 10.1672,-14.2438 20.79545,-28.1964 29.36114,-43.50787 27.03166,-36.85915 65.7835,-67.70048 111.91203,-75.17422 z"
     id="path3278"
     style="fill:#f5e5c1" />
  <path
     d="m 834.87545,186.2127 c 10.24,-2.57213 19.94616,10.57972 14.14673,19.58218 -3.46995,7.23109 -14.12246,9.22085 -19.75204,3.46995 -7.49801,-6.47886 -4.19791,-20.67412 5.60531,-23.05213 z"
     id="path3280"
     style="fill:#3e3e3e" />
  <path
     d="m 33.607583,373.63867 c -1.043412,-7.78919 6.551659,-11.21061 12.642275,-13.07905 2.790521,18.92702 5.43545,37.87829 7.764929,56.85384 4.076587,19.89763 9.414976,39.55261 15.699715,58.81934 15.918105,35.88853 32.636968,71.43734 48.433748,107.35014 3.34862,0.0243 6.84284,0.0243 9.82748,-1.67431 17.27697,-8.56569 34.50541,-17.15564 51.80664,-25.62427 13.22464,-6.64872 30.67147,-7.0127 42.46445,2.79052 6.89138,6.11488 12.982,13.15185 18.27185,20.72266 17.68948,27.20151 35.25763,54.47582 53.0927,81.58028 -81.7744,0.21839 -163.54881,0 -245.323218,0.0971 -5.945024,0.46104 -13.24891,-2.28095 -14.340853,-8.85687 -0.800759,-6.40607 -0.388247,-12.88493 -0.436778,-19.31526 0.121327,-86.55469 -0.0728,-173.10939 0.09706,-259.66408 z"
     id="path3282"
     style="fill:#f4722b" />
  <path
     d="m 220.96076,361.72436 c 17.13137,-0.72796 34.26275,-0.21839 51.39412,-0.36398 0.72796,3.97953 1.45593,7.93479 2.18389,11.93858 -18.56304,0.33971 -36.59223,-4.34351 -53.57801,-11.5746 z"
     id="path3284"
     style="fill:#f4722b" />
  <path
     d="m 867.00284,362.52512 c 4.19792,-2.01403 9.1238,-0.94635 13.66143,-1.23754 33.21933,0.19413 66.46293,0.0485 99.68227,0.0485 5.07147,-0.0243 11.18635,0.60664 14.26806,5.2656 4.87734,7.08549 3.39715,16.03943 3.61554,24.14407 -0.0971,84.12815 -0.0728,168.2563 0,252.40872 0.24266,6.98844 -2.93611,15.06882 -9.90028,17.66522 -5.8237,1.14047 -11.81725,0.58237 -17.68948,0.67943 -78.32872,-0.16986 -156.65744,0.0971 -234.98616,-0.12133 24.48379,-31.49649 48.40948,-63.67242 67.04531,-99.05138 19.09687,-34.67525 35.40322,-71.09762 46.0072,-109.29137 6.47886,-30.06483 11.72019,-60.46938 18.29611,-90.50995 z"
     id="path3286"
     style="fill:#f4722b" />
  <path
     d="m 498.19299,476.2328 c 17.01004,-4.5619 36.05838,-1.43166 50.35071,9.02673 18.32038,12.73933 28.34199,36.34957 24.45952,58.38255 -4.12512,27.88095 -30.16189,50.83602 -58.55241,50.03527 -32.10313,1.52872 -62.04664,-27.6383 -60.08114,-59.98408 -1.21327,-26.40076 18.61156,-50.93308 43.82332,-57.46047 z"
     id="path3288"
     style="fill:#3e3e3e" />
  <path
     d="m 815.36607,686.73517 c 6.64872,5.99355 12.18123,13.37023 19.7035,18.34464 24.70218,11.08929 53.48095,5.38692 77.96474,17.30123 5.77517,2.54787 7.81346,9.39071 7.54654,15.23868 0.97062,10.62824 -8.10464,18.46597 -16.23355,23.58597 -17.22844,7.76493 -39.33422,4.56189 -52.94711,-8.88114 -20.35867,-15.72398 -32.44284,-40.45043 -36.03412,-65.58938 z"
     id="path3290"
     style="fill:#f4722b" />
  <path
     d="m 183.25232,702.38635 c 5.43545,-4.24645 7.40095,-12.37536 15.11735,-13.44303 -0.87356,13.15185 -7.6436,24.70218 -14.29232,35.71867 -6.77005,12.95773 -18.15053,22.97934 -30.40455,30.67147 -13.70996,8.61422 -31.59356,9.94881 -46.66237,4.22218 -8.784079,-4.70749 -17.980667,-13.49156 -16.451947,-24.411 -0.169857,-9.41497 9.463507,-16.79165 18.441707,-16.52473 17.1799,0 34.5782,-0.12133 51.46692,-3.80967 8.71128,-1.65005 16.0637,-6.93991 22.78521,-12.42389 z"
     id="path3292"
     style="fill:#f4722b" />
  <path
     d="m 589.47943,785.54389 c 26.49782,-16.30635 53.40815,-32.58844 75.68379,-54.52436 -0.29118,83.13327 0.0728,166.2908 -0.16986,249.44834 0.92209,8.17744 -6.8671,14.0254 -14.51071,13.3945 -89.90331,0.14559 -179.80663,0.0485 -269.70995,0.0485 -5.99355,0.24265 -12.64227,-2.01403 -15.16588,-7.88626 -0.75222,-3.46995 -0.65516,-7.03696 -0.70369,-10.50691 0.24265,-70.85498 -0.16986,-141.68569 0.19412,-212.5164 9.22085,9.5363 16.54901,21.06237 27.80815,28.46331 27.34711,21.11091 62.48342,33.89877 97.28,29.09422 16.50048,-2.83905 33.72891,-4.14938 48.96759,-11.57459 16.96151,-7.42522 33.85023,-15.02029 50.32644,-23.44038 z"
     id="path3294"
     style="fill:#f4722b" />
  <path
     d="m 287.73915,818.5691 c 1.23753,-0.0243 3.7126,-0.0485 4.95014,-0.0485 0.99488,12.8364 0.72796,25.81839 -2.45081,38.3636 -3.97952,24.58085 -15.45706,50.18085 -38.12094,62.75033 -8.61422,6.01782 -20.45574,5.26559 -29.48247,0.55811 -6.89137,-4.46484 -9.51204,-12.76361 -12.56948,-19.97043 1.94123,-7.23109 3.931,-15.14161 10.50692,-19.65498 12.05991,-8.95393 27.29858,-12.32682 39.40702,-21.37782 14.43791,-8.71128 25.81838,-23.61023 27.75962,-40.62028 z"
     id="path3296"
     style="fill:#f4722b" />
  <path
     d="m 719.17801,820.29194 5.45972,0.87356 c 3.03317,9.73042 3.51848,20.50426 9.5363,29.09422 5.33839,9.85175 16.79166,12.88492 25.98824,17.85933 12.59375,6.93991 28.07508,9.19659 38.04816,20.28588 9.24512,11.23488 3.10597,30.0891 -10.72531,34.21422 -10.3128,2.35374 -22.00872,1.60151 -30.50161,-5.31413 -9.56057,-8.44436 -18.85422,-17.8108 -23.92569,-29.72511 -9.70616,-20.94105 -13.63716,-44.30863 -13.87981,-67.28797 z"
     id="path3298"
     style="fill:#f4722b" />
  <path
     d="m 489.26332,866.73592 4.70749,-0.21838 c 0.82502,6.28473 1.69857,12.59374 1.60151,18.95128 -0.50957,18.46597 7.06123,35.79146 10.33706,53.67507 0.80076,11.64739 -0.80075,26.27943 -11.84151,32.87962 -5.02294,4.05232 -11.30768,0.6309 -16.54901,-0.99488 -2.08682,-5.58105 -4.17365,-11.33195 -3.8582,-17.37403 1.43166,-29.62806 16.98579,-56.97517 15.60266,-86.91868 z"
     id="path3300"
     style="fill:#3e3e3e" />
</svg>
