<?xml version="1.0" encoding="UTF-8" ?>
<!DOCTYPE svg PUBLIC "-//W3C//DTD SVG 1.1//EN" "http://www.w3.org/Graphics/SVG/1.1/DTD/svg11.dtd">
<svg width="422pt" height="422pt" viewBox="0 0 422 422" version="1.1" xmlns="http://www.w3.org/2000/svg">
<path fill="#3e3e3e" opacity="1.00" d=" M 0.00 0.00 L 422.00 0.00 L 422.00 422.00 L 0.00 422.00 L 0.00 0.00 Z" />
<path fill="#f4722b" opacity="1.00" d=" M 141.06 19.11 C 144.28 16.96 148.32 17.70 151.96 17.59 C 193.96 17.62 235.97 17.59 277.97 17.60 C 282.72 17.36 287.17 21.16 287.80 25.84 C 288.19 29.22 287.97 32.62 288.00 36.01 C 288.00 68.34 288.00 100.67 288.00 133.00 C 290.71 133.00 293.41 133.00 296.12 133.01 C 292.26 145.23 287.82 157.32 285.30 169.92 C 282.53 183.73 279.73 197.53 276.94 211.33 C 275.92 210.79 274.90 210.26 273.88 209.73 C 274.36 191.13 276.28 172.58 276.00 153.97 C 276.01 125.98 275.98 98.00 276.02 70.01 C 276.02 66.69 275.58 63.40 275.00 60.14 C 271.78 57.31 269.49 53.35 265.46 51.54 C 260.61 49.46 254.84 49.62 250.19 52.18 C 245.70 53.80 243.28 58.63 242.70 63.11 C 238.18 105.80 232.97 148.42 229.89 191.23 C 228.19 189.73 225.16 188.77 225.34 186.05 C 223.89 166.69 222.50 147.32 220.96 127.96 C 217.74 101.03 214.15 74.14 211.39 47.16 C 211.05 45.73 211.31 43.97 210.22 42.83 C 205.08 37.63 197.51 33.86 190.08 35.68 C 184.85 36.38 180.33 39.23 176.12 42.22 C 172.92 44.25 171.15 48.25 171.66 51.99 C 174.12 84.94 174.77 117.99 175.97 151.01 C 177.22 163.86 179.76 176.57 180.95 189.44 C 166.51 148.68 152.04 107.94 137.58 67.19 C 136.63 64.56 136.45 61.75 136.50 58.98 C 136.58 48.67 136.48 38.36 136.54 28.06 C 136.40 24.55 138.05 20.99 141.06 19.11 Z" />
<path fill="#f5e5c1" opacity="1.00" d=" M 186.17 40.39 C 192.97 36.86 201.93 39.32 206.26 45.46 C 209.73 72.93 212.97 100.43 216.26 127.93 C 218.26 147.59 219.42 167.32 221.29 187.01 C 221.02 193.23 229.46 197.89 234.45 194.23 C 234.33 188.13 235.44 182.11 235.49 176.02 C 236.43 158.88 239.69 141.97 240.93 124.85 C 241.65 120.93 241.23 116.89 242.16 113.01 C 242.54 109.00 242.32 104.94 243.04 100.96 C 243.91 96.41 243.09 91.70 244.28 87.20 C 244.54 84.15 244.30 81.03 245.14 78.05 C 245.48 72.63 246.41 67.25 248.13 62.09 C 249.07 58.95 251.98 56.79 254.92 55.67 C 259.05 55.09 263.51 55.88 267.07 58.09 C 269.37 60.88 271.95 64.14 271.66 67.98 C 271.50 78.32 271.43 88.66 271.27 99.00 C 270.34 108.63 270.73 118.32 270.49 127.98 C 270.50 137.86 269.67 147.81 271.32 157.61 C 272.28 165.76 270.72 173.88 270.39 182.01 C 269.47 192.32 268.66 202.75 269.67 213.08 C 272.12 214.85 274.69 216.43 277.33 217.89 C 279.18 213.51 281.04 209.10 282.19 204.48 C 285.04 190.78 287.34 176.96 290.66 163.37 C 295.50 147.48 301.78 132.06 306.14 116.03 C 307.03 112.01 307.90 107.97 308.96 104.00 C 311.69 100.83 316.41 99.25 320.40 100.79 C 325.49 103.99 329.21 109.77 328.74 115.95 C 328.07 125.70 326.33 135.36 325.29 145.08 C 321.73 153.56 320.78 162.77 319.17 171.74 C 316.93 178.68 315.62 185.87 314.09 192.99 C 311.31 206.33 308.63 219.70 305.93 233.06 C 304.34 241.98 305.92 251.06 305.59 260.04 C 305.40 265.54 303.65 270.79 302.62 276.14 C 301.66 283.21 299.51 290.02 296.95 296.65 C 292.06 314.39 285.94 331.75 280.64 349.37 C 278.84 356.05 277.52 363.34 272.76 368.67 C 269.43 371.86 265.48 374.65 261.05 376.03 C 248.18 378.53 235.06 379.33 221.99 379.86 C 211.20 378.80 200.28 379.49 189.57 377.64 C 184.85 376.74 179.94 377.17 175.34 375.67 C 169.87 373.84 163.93 373.22 158.99 370.02 C 153.62 367.37 148.43 364.02 144.88 359.07 C 136.78 347.85 131.02 335.15 123.24 323.72 C 117.59 316.25 112.60 308.31 107.40 300.53 C 104.36 296.04 101.09 291.59 96.78 288.23 C 86.77 279.97 77.51 270.83 67.40 262.70 C 58.74 257.73 50.91 251.01 41.18 248.18 C 34.00 245.56 26.76 243.08 19.61 240.39 C 19.23 239.57 18.84 238.76 18.45 237.96 C 20.96 234.68 23.60 231.24 27.59 229.72 C 33.83 226.25 41.10 225.95 48.06 225.70 C 58.74 226.30 69.15 229.67 78.53 234.73 C 83.27 237.82 87.70 241.53 93.10 243.45 C 102.71 246.48 112.45 249.04 122.16 251.69 C 125.10 252.28 128.14 254.74 131.16 253.30 C 133.02 250.79 134.12 247.79 135.97 245.26 C 138.39 241.50 141.56 237.70 141.38 232.97 C 141.47 222.96 141.63 212.93 140.31 202.99 C 135.54 189.22 131.13 175.27 128.49 160.92 C 125.71 146.85 122.11 132.97 119.13 118.95 C 117.96 114.32 117.01 109.64 115.89 105.00 C 114.26 95.63 111.21 86.50 110.30 77.02 C 109.67 73.47 111.63 70.42 113.72 67.78 C 116.29 63.71 121.40 62.17 125.94 61.79 C 130.48 61.69 133.01 66.05 134.25 69.82 C 148.52 111.89 163.16 153.85 177.45 195.91 C 180.65 197.15 184.10 196.81 187.45 196.52 C 187.60 194.34 187.73 192.15 187.49 189.97 C 185.55 177.31 183.79 164.62 181.72 151.98 C 180.71 143.00 180.57 133.97 180.21 124.95 C 179.11 115.00 179.88 104.96 178.86 95.01 C 178.33 88.02 178.71 80.99 177.86 74.03 C 177.13 67.05 178.01 60.00 176.91 53.06 C 175.65 47.01 181.48 42.80 186.17 40.39 Z" />
<path fill="#f4722b" opacity="1.00" d=" M 19.56 143.06 C 19.43 138.57 22.72 134.29 27.10 133.34 C 30.34 132.76 33.66 133.03 36.93 132.99 C 63.96 133.01 90.98 132.99 118.01 133.01 C 121.18 147.93 123.92 162.95 127.35 177.82 C 129.37 187.33 134.41 195.90 136.31 205.43 C 137.02 212.60 136.93 219.83 137.38 227.02 C 137.38 230.56 137.92 234.55 135.66 237.57 C 132.83 241.42 130.74 245.88 127.11 249.09 C 117.25 246.08 107.29 243.36 97.41 240.40 C 92.26 238.30 87.32 235.50 83.15 231.79 C 79.79 228.89 75.50 227.51 71.63 225.49 C 65.85 222.49 59.27 222.10 52.98 220.99 C 48.03 220.04 42.98 220.62 37.98 220.60 C 31.46 220.68 25.63 223.95 19.51 225.78 C 19.58 198.21 19.47 170.63 19.56 143.06 Z" />
<path fill="#f4722b" opacity="1.00" d=" M 332.54 133.10 C 352.68 132.89 372.84 133.03 392.98 133.02 C 397.67 132.77 402.29 136.12 403.20 140.78 C 403.78 144.16 403.47 147.61 403.53 151.03 C 403.53 191.36 403.51 231.70 403.55 272.04 C 403.47 275.89 404.04 280.24 401.49 283.50 C 399.39 286.51 395.59 287.67 392.06 287.58 C 362.75 287.67 333.43 287.49 304.11 287.67 C 305.91 279.39 310.91 271.72 310.02 263.01 C 309.79 256.37 310.52 249.67 309.41 243.09 C 308.76 239.69 310.12 236.40 310.73 233.11 C 317.97 199.76 325.40 166.46 332.54 133.10 Z" />
<path fill="#f4722b" opacity="1.00" d=" M 19.53 246.69 C 28.43 249.32 37.34 251.91 46.15 254.80 C 48.75 255.62 51.14 256.98 53.22 258.74 C 64.66 268.23 75.91 277.94 87.16 287.64 C 68.09 287.50 49.01 287.72 29.94 287.54 C 24.66 287.74 19.60 283.40 19.59 278.00 C 19.42 267.56 19.58 257.12 19.53 246.69 Z" />
<path fill="#3e3e3e" opacity="1.00" d=" M 137.95 257.19 C 142.10 255.45 146.79 255.68 151.06 256.88 C 157.55 258.52 164.22 260.29 169.76 264.23 C 174.21 267.35 178.08 271.23 182.11 274.86 C 192.41 285.41 198.98 299.06 203.07 313.10 C 203.63 315.35 203.81 317.68 204.02 320.00 C 202.05 320.37 199.30 321.25 198.16 318.91 C 195.32 311.95 193.22 304.69 190.10 297.85 C 186.12 290.98 182.10 284.07 176.98 277.98 C 171.12 272.11 164.88 266.34 157.30 262.76 C 151.13 260.06 144.59 258.26 137.95 257.19 Z" />
<path fill="#f4722b" opacity="1.00" d=" M 287.65 340.73 C 288.44 355.48 287.78 370.27 288.01 385.04 C 287.88 389.30 288.76 394.20 285.79 397.75 C 283.54 400.79 279.58 401.70 275.99 401.60 C 233.30 401.59 190.61 401.62 147.92 401.58 C 142.64 402.01 137.09 398.31 136.66 392.79 C 136.20 381.55 136.91 370.28 136.31 359.05 C 139.06 363.07 142.35 366.75 145.89 370.10 C 156.46 377.09 168.20 383.07 181.02 384.20 C 189.35 384.73 197.67 385.75 206.03 385.61 C 216.77 385.62 227.54 386.57 238.25 385.28 C 249.67 384.12 262.04 384.39 272.15 378.16 C 275.30 374.96 279.30 371.94 280.17 367.26 C 282.58 358.39 285.59 349.69 287.65 340.73 Z" />
</svg>
