<?xml version="1.0" encoding="UTF-8" standalone="no"?>
<svg
   xmlns:dc="http://purl.org/dc/elements/1.1/"
   xmlns:cc="http://creativecommons.org/ns#"
   xmlns:rdf="http://www.w3.org/1999/02/22-rdf-syntax-ns#"
   xmlns:svg="http://www.w3.org/2000/svg"
   xmlns="http://www.w3.org/2000/svg"
   xmlns:sodipodi="http://sodipodi.sourceforge.net/DTD/sodipodi-0.dtd"
   xmlns:inkscape="http://www.inkscape.org/namespaces/inkscape"
   width="1280"
   height="1280"
   viewBox="0 0 1024 1024"
   version="1.1"
   id="svg3388"
   inkscape:version="0.47 r22583"
   sodipodi:docname="assist_demoman.svg">
  <metadata
     id="metadata3462">
    <rdf:RDF>
      <cc:Work
         rdf:about="">
        <dc:format>image/svg+xml</dc:format>
        <dc:type
           rdf:resource="http://purl.org/dc/dcmitype/StillImage" />
      </cc:Work>
    </rdf:RDF>
  </metadata>
  <defs
     id="defs3460">
    <inkscape:perspective
       sodipodi:type="inkscape:persp3d"
       inkscape:vp_x="0 : 263.75 : 1"
       inkscape:vp_y="0 : 1000 : 0"
       inkscape:vp_z="527.5 : 263.75 : 1"
       inkscape:persp3d-origin="263.75 : 175.83333 : 1"
       id="perspective3464" />
  </defs>
  <sodipodi:namedview
     pagecolor="#ffffff"
     bordercolor="#666666"
     borderopacity="1"
     objecttolerance="10"
     gridtolerance="10"
     guidetolerance="10"
     inkscape:pageopacity="0"
     inkscape:pageshadow="2"
     inkscape:window-width="1280"
     inkscape:window-height="738"
     id="namedview3458"
     showgrid="false"
     inkscape:zoom="0.44739336"
     inkscape:cx="263.75"
     inkscape:cy="263.75"
     inkscape:window-x="-8"
     inkscape:window-y="-8"
     inkscape:window-maximized="1"
     inkscape:current-layer="svg3388" />
  <path
     d="m 0,0 1024,0 0,1024 L 0,1024 0,0 z"
     id="path3390"
     style="fill:#3e3e3e" />
  <path
     d="m 173.98294,26.52209 c 2.37801,-1.26181 4.78028,-2.49934 7.15829,-3.76114 49.25877,98.76019 98.34768,197.61744 147.55792,296.40189 10.70104,22.59109 22.22711,44.72114 32.49137,67.50635 -8.00758,6.55166 -18.10199,10.09441 -28.43905,9.99735 C 272.20929,276.94104 210.08986,157.99204 151.75583,37.1746 c 3.59128,-1.74711 7.20682,-3.49422 10.7981,-5.24133 49.04038,101.211 97.95943,202.47052 146.95128,303.70578 8.85688,17.51962 16.6946,35.76721 27.58977,52.12209 5.26559,0.43677 9.92455,-2.35375 14.5835,-4.31924 C 292.27678,264.56569 233.33611,145.44682 173.98294,26.52209 z"
     id="path3392"
     style="fill:#f5e5c1" />
  <path
     d="m 689.3073,116.571 c 6.52739,3.13023 11.86578,8.05611 17.66521,12.30255 -33.77744,59.83849 -68.01592,119.41005 -101.59924,179.36986 -3.83393,-2.18388 -7.6436,-4.39204 -11.40474,-6.67298 32.34578,-61.36721 63.42976,-123.38958 95.33877,-184.99943 z"
     id="path3394"
     style="fill:#f5e5c1" />
  <path
     d="m 527.06882,211.20607 c 4.07658,0.36398 8.17744,0.70369 12.25402,1.06767 -2.54786,29.55526 -4.73175,59.15906 -7.42521,88.69005 -4.00379,-0.43678 -8.03185,-0.87355 -12.03564,-1.28606 2.42654,-29.48247 4.97441,-58.96493 7.20683,-88.47166 z"
     id="path3396"
     style="fill:#f5e5c1" />
  <path
     d="m 696.65972,351.43583 c 52.34047,-44.91526 102.61838,-92.18427 154.03677,-138.14294 4.97441,5.21706 9.6091,10.74957 13.95261,16.52474 -53.28683,43.77479 -107.01043,87.04 -159.83621,131.37289 -2.71772,-3.25156 -5.45971,-6.50313 -8.15317,-9.75469 z"
     id="path3398"
     style="fill:#f5e5c1" />
  <path
     d="m 354.88152,348.74237 c 9.14805,-1.11621 18.92701,-2.35374 27.4927,1.98976 14.99602,6.5274 21.69327,22.88228 27.44417,37.05327 -3.76114,1.21327 -7.59507,2.13536 -11.5018,2.76626 -6.50313,-13.05479 -13.51583,-28.92436 -29.38541,-32.24872 -4.29497,-0.24266 -8.58995,-0.48531 -12.86066,-0.77649 -0.41251,-2.93612 -0.82502,-5.84797 -1.189,-8.78408 z"
     id="path3400"
     style="fill:#f5e5c1" />
  <path
     d="m 287.909,400.57327 c 0.75223,-10.70104 5.33839,-21.7418 14.94749,-27.29858 1.52872,2.5964 3.03318,5.1928 4.5619,7.81346 -5.14427,8.54142 -7.52228,18.90275 -5.09574,28.73024 2.79053,10.02161 9.87602,17.90787 14.8747,26.81327 -3.59128,2.4508 -7.18256,4.90161 -10.77384,7.35242 -9.36645,-12.59375 -21.06237,-26.59489 -18.51451,-43.41081 z"
     id="path3402"
     style="fill:#f5e5c1" />
  <path
     d="m 362.67071,375.84682 c 4.34351,-0.41251 8.51716,-1.69857 12.69081,-2.88758 4.3435,7.76493 8.75981,15.50559 13.05478,23.31905 -4.02805,1.62579 -8.05611,3.25157 -12.08417,4.87735 -4.63469,-8.39583 -9.22085,-16.81592 -13.66142,-25.30882 z"
     id="path3404"
     style="fill:#f5e5c1" />
  <path
     d="m 381.4036,407.68303 c 77.52796,-36.51943 174.08,-27.25004 243.18787,23.46465 50.5691,36.30104 86.14218,92.81516 96.38218,154.27943 11.81725,64.57024 -4.87735,132.95014 -43.28948,185.94578 -4.27071,-0.6309 -8.32303,-2.11109 -12.15697,-4.05232 20.48,-23.36758 32.66124,-52.99564 41.17839,-82.59943 7.23109,-27.0074 6.72152,-55.131 5.60531,-82.84209 -5.53251,-53.74787 -31.10825,-105.16625 -70.49099,-142.17099 -34.0201,-32.6127 -78.49858,-54.11185 -125.13669,-60.76057 -56.53839,-8.46863 -116.13422,4.78028 -163.37895,37.07753 -55.34939,37.1018 -93.17915,99.29403 -99.80361,165.65991 -0.89782,13.73422 -3.44568,27.4927 -0.67943,41.20265 1.79564,43.87185 18.95128,85.87526 43.67773,121.73953 -3.44569,1.31033 -6.89138,2.5964 -10.33706,3.88246 C 240.61573,704.98275 228.41024,619.20455 255.15071,545.68038 276.43147,485.211 323.04531,434.20512 381.4036,407.68303 z"
     id="path3406"
     style="fill:#f5e5c1" />
  <path
     d="m 315.52303,401.68948 c 2.52361,-1.84417 5.02294,-3.71261 7.52228,-5.58104 5.38692,7.59507 10.67678,15.26293 15.65118,23.14919 -2.93611,2.76626 -5.84796,5.53251 -8.78407,8.29877 -4.92588,-8.56569 -9.75469,-17.15564 -14.38939,-25.86692 z"
     id="path3408"
     style="fill:#f5e5c1" />
  <path
     d="m 750.89289,440.17441 c 31.56929,-11.23488 61.05175,-27.54123 91.67469,-41.0328 3.44569,7.10976 5.84797,14.6563 7.86199,22.29991 -31.15677,10.04587 -62.77459,18.85421 -93.37327,30.52587 -4.82881,-1.09194 -4.22218,-8.05611 -6.16341,-11.79298 z"
     id="path3410"
     style="fill:#f5e5c1" />
  <path
     d="m 499.84303,463.42066 c 13.56436,-3.7854 27.17725,-8.10464 41.27545,-9.29365 6.98844,-0.84928 14.51071,2.11109 17.73801,8.63849 9.6091,16.59753 19.24247,33.36493 25.81839,51.44265 17.98067,-1.94123 35.76721,-5.53251 53.31109,-9.94881 3.66408,-0.80076 7.47375,-1.74711 11.25915,-1.04342 8.54142,5.67811 12.86066,15.4328 17.22843,24.3382 5.79944,11.42901 10.62825,23.34332 14.04967,35.69441 2.5964,10.8709 8.85687,20.89251 8.15318,32.41858 -20.79545,4.87734 -41.10559,11.25915 -61.10029,18.73289 -0.24265,3.83393 -0.75222,7.78919 0.89782,11.45327 4.22218,12.1327 8.80834,24.2654 11.11356,36.95621 1.77137,14.26806 2.5236,28.65744 5.48398,42.7799 -31.08398,14.38939 -65.00702,22.42124 -98.95431,26.74048 -5.2656,0.94635 -10.50692,-0.24266 -15.52986,-1.77138 -1.86844,-24.28966 -7.37668,-48.65213 -18.29612,-70.56379 -2.42654,-1.189 -4.82881,-2.37801 -7.23109,-3.56701 -16.42767,4.9744 -33.02521,9.43924 -48.91905,15.9909 -9.58483,4.24644 -20.23734,2.76625 -30.21042,1.09194 -4.24645,-10.89516 -10.8709,-20.74692 -14.41365,-31.93327 -5.07147,-15.55412 -10.62825,-30.98692 -17.85934,-45.69175 -2.20815,-4.17365 -3.39716,-8.73555 -4.39204,-13.32171 26.06105,-14.70483 55.90749,-20.16455 83.8127,-30.30749 -3.59128,-15.50559 -10.43412,-29.91924 -17.05857,-44.30862 -3.73688,-7.6436 -9.02673,-14.51071 -11.28342,-22.80948 18.5873,-6.72152 36.08266,-16.18502 55.10673,-21.71754 z"
     id="path3412"
     style="fill:#f4722b" />
  <path
     d="m 783.65118,502.14825 c 10.77384,-5.79943 23.222,-2.11109 34.14143,1.21327 44.47848,8.75981 89.00549,17.22843 133.50824,25.86692 8.92967,2.03829 20.5528,1.31033 24.21688,11.74445 -3.39716,27.54123 -7.0855,55.0582 -10.65252,82.59943 -0.43677,5.31412 -4.95014,8.88114 -8.61421,12.18123 -10.36133,8.39583 -21.49915,15.82105 -31.4237,24.77498 -49.42863,-7.49801 -98.90578,-14.85043 -148.35867,-22.34843 -9.73043,-1.79565 -20.5528,-0.53384 -28.70598,-7.1583 0.0485,-33.82597 0.1456,-67.65194 -0.0485,-101.47791 12.25403,-8.78408 23.73157,-18.56304 35.93706,-27.39564 z"
     id="path3414"
     style="fill:#f5e5c1" />
  <path
     d="m 756.37687,533.20796 c 7.76493,-5.12 15.94237,-9.6091 24.07128,-14.17099 1.48019,22.88227 3.61555,45.74028 5.16853,68.62256 0.75223,3.76113 -0.53384,9.17232 4.05232,10.77383 5.16854,2.11109 10.79811,2.5964 16.25782,3.68835 39.52835,7.10976 79.03242,14.41364 118.58503,21.5962 7.54654,1.31034 15.16588,2.52361 22.51829,4.85309 -7.74066,8.10464 -15.77251,15.89383 -24.31393,23.12492 -55.30085,-8.88113 -110.69877,-17.20417 -166.04815,-25.86692 -0.43678,-30.86559 0.12132,-61.75545 -0.29119,-92.62104 z"
     id="path3416"
     style="fill:#3e3e3e" />
  <path
     d="m 81.119242,585.74256 c 3.63981,-1.43166 7.595071,-1.62578 11.45327,-2.08682 8.735548,24.41099 16.257818,49.28303 25.818388,73.37857 -1.04341,12.93346 -2.11109,25.89119 -2.32948,38.89744 -16.233553,5.94503 -32.054595,13.05479 -48.166823,19.26673 -18.490237,3.97953 -37.029005,7.7892 -55.713365,10.82237 0.0728,-37.75696 -0.412512,-75.5382 0.26692,-113.29516 23.076398,-8.51716 45.740284,-18.10199 68.67109,-26.98313 z"
     id="path3418"
     style="fill:#f5e5c1" />
  <path
     d="m 17.810806,709.1564 c 29.021421,-15.79678 60.081137,-27.78389 88.471654,-44.72114 0.92209,8.88114 1.28607,17.81081 1.45593,26.74048 -18.635831,7.0127 -36.325309,17.03431 -56.174409,20.4072 -11.623128,2.4508 -23.246256,5.0472 -34.869384,7.49801 0.02427,-3.34863 0.412512,-6.67299 1.116209,-9.92455 z"
     id="path3420"
     style="fill:#3e3e3e" />
  <path
     d="m 969.88815,713.03886 c 13.20038,-3.93099 26.66768,-7.03696 39.57685,-11.89004 -0.1213,35.25763 0.097,70.49099 -0.097,105.74862 -50.25369,14.43792 -100.11909,30.21043 -150.20288,45.25498 -2.79052,-2.32948 -6.81858,-4.00379 -7.40095,-8.05612 -7.30389,-24.92057 -15.14161,-49.67128 -22.39697,-74.59185 -1.96549,-5.33838 1.72285,-11.13781 5.94503,-14.09819 10.77384,-4.58617 21.54768,-9.22086 32.37004,-13.70996 34.23849,-8.85687 68.11299,-19.1454 102.20588,-28.65744 z"
     id="path3422"
     style="fill:#f5e5c1" />
  <path
     d="m 146.15052,704.13346 c 3.931,-1.18901 8.05612,-0.80076 12.05991,-0.29119 8.66275,25.23602 18.46597,50.10806 26.91033,75.36835 -5.79943,10.55545 -9.17232,22.20284 -13.3945,33.43772 -53.1655,17.13138 -106.37953,34.16569 -159.593559,51.2 0.04853,-4.22218 0.0728,-8.44436 0.121327,-12.64227 4.294977,0.21838 8.662749,-0.0243 12.739337,-1.55299 46.97782,-15.23867 94.295355,-29.40967 141.127585,-45.03659 1.35886,-7.08549 5.62957,-14.24379 3.76114,-21.52341 -3.83394,0.0728 -7.54654,1.01915 -11.23489,1.9655 -48.77346,12.7636 -97.765304,24.72644 -146.538764,37.46578 0.04853,-27.41991 0,-54.83981 0.02427,-82.25972 44.672607,-12.0599 89.320954,-24.16834 134.017824,-36.13118 z"
     id="path3424"
     style="fill:#f5e5c1" />
  <path
     d="m 404.57706,741.67204 c 3.1545,-1.84417 5.99356,0.50957 8.78408,1.84417 11.06502,27.27431 21.1109,54.96114 32.10313,82.28398 -5.92076,5.8237 -14.38939,7.27962 -21.8146,10.36133 -37.56285,14.51071 -75.58673,27.83241 -113.19811,42.27033 -16.35488,8.12891 -34.91791,8.85687 -52.55886,12.32682 -9.14806,-25.5272 -18.34464,-51.03014 -27.4927,-76.55734 8.42009,-5.8237 14.7291,-14.07394 22.90654,-20.14029 50.39924,-17.49535 100.84701,-34.96644 151.27052,-52.389 z"
     id="path3426"
     style="fill:#f5e5c1" />
  <path
     d="m 571.45024,755.21213 c 5.09573,-2.25668 10.33706,-4.14938 15.65118,-5.84796 51.44266,20.45574 102.59413,41.6637 153.98825,62.26502 4.85308,1.65005 8.66275,5.12 12.39962,8.51716 -20.60133,37.99962 -45.59469,73.47564 -67.40929,110.79583 -4.07659,0 -8.61422,1.67431 -12.1327,-1.09194 -44.8182,-28.00228 -89.51507,-56.22294 -134.35754,-84.15242 2.54787,-14.51071 1.11621,-30.0163 7.76493,-43.53213 6.93991,-16.20929 15.65119,-31.52076 24.09555,-46.95356 z"
     id="path3428"
     style="fill:#f5e5c1" />
  <path
     d="m 835.31223,763.17118 c 10.72531,-5.07146 21.93592,-9.09952 32.95241,-13.49156 7.74067,28.36626 16.23356,56.56265 23.44038,85.0745 -11.30767,2.81479 -21.98445,9.65763 -33.89876,9.00247 -7.66787,-25.79413 -16.59754,-51.22427 -24.07128,-77.06692 0.38824,-0.87356 1.189,-2.64493 1.57725,-3.51849 z"
     id="path3430"
     style="fill:#3e3e3e" />
  <path
     d="m 732.69384,760.50199 c 2.11109,-3.46995 4.22218,-6.91564 6.35753,-10.33706 21.47489,13.75848 42.94977,27.51697 64.40038,41.29971 -2.25668,3.3729 -4.4891,6.74579 -6.74578,10.14294 -21.23223,-13.85554 -42.61005,-27.51696 -64.01213,-41.10559 z"
     id="path3432"
     style="fill:#f5e5c1" />
  <path
     d="m 240.32455,816.23962 c 6.11488,-2.93611 11.69592,-12.0599 19.02408,-8.00758 10.84663,22.25137 20.28587,45.23071 30.62293,67.749 -8.32303,2.35375 -16.64606,4.70749 -25.04189,6.79432 -8.46863,-22.08152 -16.6218,-44.2601 -24.60512,-66.53574 z"
     id="path3434"
     style="fill:#3e3e3e" />
  <path
     d="m 547.08777,822.74275 c 11.0165,4.31924 21.32929,10.14294 31.93327,15.36 38.72759,19.58218 77.62503,38.84891 116.30408,58.60095 0.24265,1.2618 0.75223,3.76113 0.99488,5.02294 -5.79943,7.61933 -10.60398,16.01516 -16.79166,23.31905 -1.91697,2.71772 -5.02294,0.21839 -7.10976,-0.75223 -43.5564,-27.29858 -86.79735,-55.131 -130.42654,-82.33251 0.97061,-6.57593 2.91185,-12.95773 5.09573,-19.2182 z"
     id="path3436"
     style="fill:#3e3e3e" />
  <path
     d="m 134.50313,833.78351 c 11.18635,-3.51849 23.0764,-1.43166 34.60246,-1.98977 0.94635,1.23754 2.83905,3.68835 3.78541,4.92588 -0.0485,17.34976 -0.0971,34.69953 0.0243,52.04929 -0.87355,0.92209 -2.64493,2.81479 -3.54275,3.73687 -52.389,-0.0485 -104.778008,0 -157.142747,-0.0243 0.04853,-5.09574 0.09706,-10.19147 0.242654,-15.26294 40.790142,-14.19526 81.361896,-28.97289 122.030713,-43.43507 z"
     id="path3438"
     style="fill:#f5e5c1" />
  <path
     d="m 403.12114,856.20474 c 5.43545,-2.15962 10.77384,-4.75602 16.50047,-6.04209 6.69725,0.41252 13.10332,2.5964 19.67924,3.78541 19.9219,4.10085 40.37763,4.58616 60.61498,3.54275 9.87602,-0.46105 19.60644,-3.27583 29.55526,-2.20816 3.34863,2.08683 6.64872,4.27071 9.82749,6.64872 -44.67261,12.2055 -92.32986,7.76493 -136.17744,-5.72663 z"
     id="path3440"
     style="fill:#f5e5c1" />
  <path
     d="m 827.86275,866.20209 c -0.33972,-3.83394 1.94123,-7.01271 3.59128,-10.26427 59.32891,0.33972 118.65782,0.0485 177.98677,0.14559 0,30.06484 0,60.10541 0,90.17024 -59.0135,-0.80076 -118.07549,-0.33972 -177.06469,-0.21839 -3.27583,-0.77649 -5.53251,-3.34862 -4.68322,-6.81858 0.80076,-24.3382 -0.0971,-48.6764 0.16986,-73.01459 z"
     id="path3442"
     style="fill:#f5e5c1" />
  <path
     d="m 12.35109,900.29498 c 20.188815,0.53384 40.401896,0.65516 60.590711,0.12132 4.149384,-0.94635 8.468626,2.69346 7.643602,7.06124 0.218388,20.45573 -0.09706,40.91146 0.121327,61.39146 -0.873555,0.92209 -2.644929,2.79053 -3.518484,3.71261 -20.965308,-0.0243 -41.90635,-0.0485 -62.847393,0 -1.237535,-4.61043 -2.256682,-9.31791 -2.086825,-14.0982 0.09706,-19.38805 -0.02426,-38.80038 0.09706,-58.18843 z"
     id="path3444"
     style="fill:#f5e5c1" />
  <path
     d="m 89.15109,912.42768 c -0.752227,-5.28986 0.655166,-13.44304 7.716398,-12.61801 63.187112,-0.29119 126.374222,0.33971 189.537062,-0.33972 3.00891,-0.36398 7.49801,2.13536 6.96417,5.58105 -0.65517,21.54767 0.0243,43.09535 -0.58237,64.64303 -8.44436,2.25668 -17.22844,1.2618 -25.84265,1.40739 -54.98541,0.0243 -109.97081,-0.0728 -164.95621,0.0485 -3.664078,-0.0243 -7.255357,-0.60663 -10.846637,-1.189 -3.90673,-18.90275 -1.043412,-38.38787 -1.989763,-57.53327 z"
     id="path3446"
     style="fill:#f5e5c1" />
  <path
     d="m 529.15564,908.8364 c 3.51848,-2.08683 7.03697,-4.14939 10.55545,-6.18768 18.17479,30.33175 36.37384,60.66351 54.59716,90.971 -3.51849,2.03829 -7.06124,4.07658 -10.57972,6.11488 -18.12626,-30.33176 -36.30104,-60.63924 -54.57289,-90.8982 z"
     id="path3448"
     style="fill:#f5e5c1" />
  <path
     d="m 713.91242,956.20246 c 66.94824,0.65517 133.92076,0.36399 200.84474,0.16986 2.42654,1.28607 4.92587,3.78541 4.63469,6.79432 -0.50958,17.71374 -0.12133,35.47601 -0.46104,53.21406 -64.44891,0.8493 -128.94636,0.024 -193.39526,0.4125 -3.8582,-0.1699 -7.862,0.2912 -11.52607,-1.0192 -2.11109,-4.2221 -0.29119,-9.051 -0.29119,-13.4915 0.67944,-15.33577 -0.0485,-30.72004 0.19413,-46.08004 z"
     id="path3450"
     style="fill:#f5e5c1" />
  <path
     d="m 929.85024,959.18711 c 26.40076,-2.5964 53.06843,-0.53384 79.59056,-1.18901 0,19.58218 0,39.1401 0,58.7223 -24.33824,-0.073 -48.67644,0.1456 -72.99037,-0.073 -3.71261,0.4125 -8.56569,-2.7905 -7.52228,-6.9157 1.77138,-16.79162 0.80076,-33.7046 0.92209,-50.54479 z"
     id="path3452"
     style="fill:#f5e5c1" />
  <path
     d="m 15.093081,983.23412 c 0.970616,-0.84929 2.863317,-2.57213 3.809668,-3.44568 55.082464,0.0971 110.140661,0 165.198861,0.0485 2.83905,3.20303 7.13403,5.72663 7.88626,10.28853 0.75222,8.8326 0.12132,17.71373 0.26692,26.59493 -59.23185,0 -118.439435,0.024 -177.671283,-0.024 0.436777,-11.1621 0.703697,-22.29995 0.509574,-33.46204 z"
     id="path3454"
     style="fill:#f5e5c1" />
  <path
     d="m 207.17801,980.92891 c 53.0927,-0.29118 106.1854,-0.0485 159.2781,-0.16986 5.36266,0.0243 13.05479,0.84929 14.77763,6.98844 0.80076,9.6091 0.0971,19.29101 0.29119,28.97291 -59.59583,0 -119.19166,0.024 -178.78749,-0.024 0.55811,-9.9488 0.77649,-19.94618 -0.12133,-29.89499 1.52872,-1.9655 3.03318,-3.931 4.5619,-5.87223 z"
     id="path3456"
     style="fill:#f5e5c1" />
</svg>
