<?xml version="1.0" encoding="UTF-8" standalone="no"?>
<svg
   xmlns:dc="http://purl.org/dc/elements/1.1/"
   xmlns:cc="http://creativecommons.org/ns#"
   xmlns:rdf="http://www.w3.org/1999/02/22-rdf-syntax-ns#"
   xmlns:svg="http://www.w3.org/2000/svg"
   xmlns="http://www.w3.org/2000/svg"
   xmlns:sodipodi="http://sodipodi.sourceforge.net/DTD/sodipodi-0.dtd"
   xmlns:inkscape="http://www.inkscape.org/namespaces/inkscape"
   width="1280"
   height="1280"
   viewBox="0 0 1024 1024"
   version="1.1"
   id="svg3388"
   inkscape:version="0.47 r22583"
   sodipodi:docname="assist_demoman.svg">
  <metadata
     id="metadata3462">
    <rdf:RDF>
      <cc:Work
         rdf:about="">
        <dc:format>image/svg+xml</dc:format>
        <dc:type
           rdf:resource="http://purl.org/dc/dcmitype/StillImage" />
      </cc:Work>
    </rdf:RDF>
  </metadata>
  <defs
     id="defs3460" />
  <sodipodi:namedview
     pagecolor="#ffffff"
     bordercolor="#666666"
     borderopacity="1"
     objecttolerance="10"
     gridtolerance="10"
     guidetolerance="10"
     inkscape:pageopacity="0"
     inkscape:pageshadow="2"
     inkscape:window-width="1280"
     inkscape:window-height="738"
     id="namedview3458"
     showgrid="false"
     inkscape:zoom="0.44739336"
     inkscape:cx="263.75"
     inkscape:cy="259.35203"
     inkscape:window-x="-8"
     inkscape:window-y="-8"
     inkscape:window-maximized="1"
     inkscape:current-layer="svg3388" />
  <path
     d="m 0,0 1024,0 0,1024 L 0,1024 0,0 z"
     id="path3390"
     style="fill:#3e3e3e" />
  <path
     d="m 173.98294,26.52209 c 2.37801,-1.26181 4.78028,-2.49934 7.15829,-3.76114 49.25877,98.76019 98.34768,197.61744 147.55792,296.40189 10.70104,22.59109 22.22711,44.72114 32.49137,67.50635 -8.00758,6.55166 -18.10199,10.09441 -28.43905,9.99735 C 272.20929,276.94104 210.08986,157.99204 151.75583,37.1746 c 3.59128,-1.74711 7.20682,-3.49422 10.7981,-5.24133 49.04038,101.211 97.95943,202.47052 146.95128,303.70578 8.85688,17.51962 16.6946,35.76721 27.58977,52.12209 5.26559,0.43677 9.92455,-2.35375 14.5835,-4.31924 C 292.27678,264.56569 233.33611,145.44682 173.98294,26.52209 z"
     id="path3392"
     style="fill:#f5e5c1" />
  <path
     d="m 689.3073,116.571 c 6.52739,3.13023 11.86578,8.05611 17.66521,12.30255 -33.77744,59.83849 -68.01592,119.41005 -101.59924,179.36986 -3.83393,-2.18388 -7.6436,-4.39204 -11.40474,-6.67298 32.34578,-61.36721 63.42976,-123.38958 95.33877,-184.99943 z"
     id="path3394"
     style="fill:#f5e5c1" />
  <path
     d="m 527.06882,211.20607 c 4.07658,0.36398 8.17744,0.70369 12.25402,1.06767 -2.54786,29.55526 -4.73175,59.15906 -7.42521,88.69005 -4.00379,-0.43678 -8.03185,-0.87355 -12.03564,-1.28606 2.42654,-29.48247 4.97441,-58.96493 7.20683,-88.47166 z"
     id="path3396"
     style="fill:#f5e5c1" />
  <path
     d="m 696.65972,351.43583 c 52.34047,-44.91526 102.61838,-92.18427 154.03677,-138.14294 4.97441,5.21706 9.6091,10.74957 13.95261,16.52474 -53.28683,43.77479 -107.01043,87.04 -159.83621,131.37289 -2.71772,-3.25156 -5.45971,-6.50313 -8.15317,-9.75469 z"
     id="path3398"
     style="fill:#f5e5c1" />
  <path
     d="m 354.88152,348.74237 c 9.14805,-1.11621 18.92701,-2.35374 27.4927,1.98976 14.99602,6.5274 21.69327,22.88228 27.44417,37.05327 -3.76114,1.21327 -7.59507,2.13536 -11.5018,2.76626 -6.50313,-13.05479 -13.51583,-28.92436 -29.38541,-32.24872 -4.29497,-0.24266 -8.58995,-0.48531 -12.86066,-0.77649 -0.41251,-2.93612 -0.82502,-5.84797 -1.189,-8.78408 z"
     id="path3400"
     style="fill:#f5e5c1" />
  <path
     d="m 287.909,400.57327 c 0.75223,-10.70104 5.33839,-21.7418 14.94749,-27.29858 1.52872,2.5964 3.03318,5.1928 4.5619,7.81346 -5.14427,8.54142 -7.52228,18.90275 -5.09574,28.73024 2.79053,10.02161 9.87602,17.90787 14.8747,26.81327 -3.59128,2.4508 -7.18256,4.90161 -10.77384,7.35242 -9.36645,-12.59375 -21.06237,-26.59489 -18.51451,-43.41081 z"
     id="path3402"
     style="fill:#f5e5c1" />
  <path
     d="m 362.67071,375.84682 c 4.34351,-0.41251 8.51716,-1.69857 12.69081,-2.88758 4.3435,7.76493 8.75981,15.50559 13.05478,23.31905 -4.02805,1.62579 -8.05611,3.25157 -12.08417,4.87735 -4.63469,-8.39583 -9.22085,-16.81592 -13.66142,-25.30882 z"
     id="path3404"
     style="fill:#f5e5c1" />
  <path
     d="m 381.4036,407.68303 c 77.52796,-36.51943 174.08,-27.25004 243.18787,23.46465 50.5691,36.30104 86.14218,92.81516 96.38218,154.27943 11.81725,64.57024 -4.87735,132.95014 -43.28948,185.94578 -4.27071,-0.6309 -8.32303,-2.11109 -12.15697,-4.05232 20.48,-23.36758 32.66124,-52.99564 41.17839,-82.59943 7.23109,-27.0074 6.72152,-55.131 5.60531,-82.84209 -5.53251,-53.74787 -31.10825,-105.16625 -70.49099,-142.17099 -34.0201,-32.6127 -78.49858,-54.11185 -125.13669,-60.76057 -56.53839,-8.46863 -116.13422,4.78028 -163.37895,37.07753 -55.34939,37.1018 -93.17915,99.29403 -99.80361,165.65991 -0.89782,13.73422 -3.44568,27.4927 -0.67943,41.20265 1.79564,43.87185 18.95128,85.87526 43.67773,121.73953 -3.44569,1.31033 -6.89138,2.5964 -10.33706,3.88246 C 240.61573,704.98275 228.41024,619.20455 255.15071,545.68038 276.43147,485.211 323.04531,434.20512 381.4036,407.68303 z"
     id="path3406"
     style="fill:#f5e5c1" />
  <path
     d="m 315.52303,401.68948 c 2.52361,-1.84417 5.02294,-3.71261 7.52228,-5.58104 5.38692,7.59507 10.67678,15.26293 15.65118,23.14919 -2.93611,2.76626 -5.84796,5.53251 -8.78407,8.29877 -4.92588,-8.56569 -9.75469,-17.15564 -14.38939,-25.86692 z"
     id="path3408"
     style="fill:#f5e5c1" />
  <path
     d="m 750.89289,440.17441 c 31.56929,-11.23488 61.05175,-27.54123 91.67469,-41.0328 3.44569,7.10976 5.84797,14.6563 7.86199,22.29991 -31.15677,10.04587 -62.77459,18.85421 -93.37327,30.52587 -4.82881,-1.09194 -4.22218,-8.05611 -6.16341,-11.79298 z"
     id="path3410"
     style="fill:#f5e5c1" />
  <path
     d="m 499.84303,463.42066 c 13.56436,-3.7854 27.17725,-8.10464 41.27545,-9.29365 6.98844,-0.84928 14.51071,2.11109 17.73801,8.63849 9.6091,16.59753 19.24247,33.36493 25.81839,51.44265 17.98067,-1.94123 35.76721,-5.53251 53.31109,-9.94881 3.66408,-0.80076 7.47375,-1.74711 11.25915,-1.04342 8.54142,5.67811 12.86066,15.4328 17.22843,24.3382 5.79944,11.42901 10.62825,23.34332 14.04967,35.69441 2.5964,10.8709 8.85687,20.89251 8.15318,32.41858 -20.79545,4.87734 -41.10559,11.25915 -61.10029,18.73289 -0.24265,3.83393 -0.75222,7.78919 0.89782,11.45327 4.22218,12.1327 8.80834,24.2654 11.11356,36.95621 1.77137,14.26806 2.5236,28.65744 5.48398,42.7799 -31.08398,14.38939 -65.00702,22.42124 -98.95431,26.74048 -5.2656,0.94635 -10.50692,-0.24266 -15.52986,-1.77138 -1.86844,-24.28966 -7.37668,-48.65213 -18.29612,-70.56379 -2.42654,-1.189 -4.82881,-2.37801 -7.23109,-3.56701 -16.42767,4.9744 -33.02521,9.43924 -48.91905,15.9909 -9.58483,4.24644 -20.23734,2.76625 -30.21042,1.09194 -4.24645,-10.89516 -10.8709,-20.74692 -14.41365,-31.93327 -5.07147,-15.55412 -10.62825,-30.98692 -17.85934,-45.69175 -2.20815,-4.17365 -3.39716,-8.73555 -4.39204,-13.32171 26.06105,-14.70483 55.90749,-20.16455 83.8127,-30.30749 -3.59128,-15.50559 -10.43412,-29.91924 -17.05857,-44.30862 -3.73688,-7.6436 -9.02673,-14.51071 -11.28342,-22.80948 18.5873,-6.72152 36.08266,-16.18502 55.10673,-21.71754 z"
     id="path3412"
     style="fill:#f4722b" />
  <path
     style="fill:#f5e5c1"
     d="M 995.375 623.875 C 989.94727 623.90735 984.61274 624.96902 979.5625 627.6875 C 964.30564 638.72825 949.97379 650.9574 934.65625 661.9375 C 934.89887 704.21996 934.77937 746.49879 934.71875 788.78125 C 944.91022 797.06182 958.43071 795.47419 970.59375 797.71875 C 1032.4099 807.09125 1094.2455 816.28374 1156.0312 825.65625 C 1168.4369 814.46384 1182.3608 805.18229 1195.3125 794.6875 C 1199.8926 790.56239 1205.5478 786.1114 1206.0938 779.46875 C 1210.5525 745.04221 1215.1598 710.64529 1219.4062 676.21875 C 1214.8262 663.1761 1200.2871 664.07911 1189.125 661.53125 C 1133.4966 650.73314 1077.8481 640.13726 1022.25 629.1875 C 1013.7192 626.59034 1004.4212 623.82109 995.375 623.875 z M 975.5625 648.78125 C 977.41274 677.38409 980.09002 705.95965 982.03125 734.5625 C 982.97154 739.26391 981.36105 746.02936 987.09375 748.03125 C 993.55443 750.67011 1000.5816 751.29131 1007.4062 752.65625 C 1056.8167 761.54345 1106.1842 770.67805 1155.625 779.65625 C 1165.0582 781.29417 1174.5907 782.8069 1183.7812 785.71875 C 1174.1054 795.84955 1164.083 805.58614 1153.4062 814.625 C 1084.2802 803.52359 1015.0305 793.10969 945.84375 782.28125 C 945.29778 743.69926 945.98439 705.08199 945.46875 666.5 C 955.17491 660.1 965.40136 654.48361 975.5625 648.78125 z "
     transform="scale(0.8,0.8)"
     id="path3414" />
  <path
     style="fill:#f5e5c1"
     d="M 115.71875 729.5625 C 110.896 730.1388 105.95601 730.39792 101.40625 732.1875 C 72.742742 743.28892 44.407998 755.2598 15.5625 765.90625 C 14.71321 813.10245 15.30975 860.33505 15.21875 907.53125 C 38.5742 903.73979 61.762204 898.97441 84.875 894 C 105.01528 886.23507 124.77056 877.33754 145.0625 869.90625 C 145.33549 853.64844 146.69574 837.44808 148 821.28125 C 136.04929 791.16182 126.63818 760.07624 115.71875 729.5625 z M 132.84375 830.53125 C 133.99636 841.63267 134.47517 852.80666 134.6875 863.96875 C 111.39271 872.73462 89.280125 885.25264 64.46875 889.46875 C 49.93984 892.53225 35.40391 895.78024 20.875 898.84375 C 20.905338 894.65796 21.370379 890.50195 22.25 886.4375 C 58.526776 866.69153 97.355604 851.70281 132.84375 830.53125 z "
     transform="scale(0.8,0.8)"
     id="path3418" />
  <path
     style="fill:#f5e5c1"
     d="M 1261.8438 876.4375 C 1245.7073 882.50385 1228.8755 886.39876 1212.375 891.3125 C 1169.7589 903.20255 1127.3919 916.05391 1084.5938 927.125 C 1071.0658 932.73637 1057.5923 938.51729 1044.125 944.25 C 1038.8473 947.95048 1034.2619 955.20203 1036.7188 961.875 C 1045.7879 993.02571 1055.5889 1023.9743 1064.7188 1055.125 C 1065.4467 1060.1904 1070.4806 1062.2757 1073.9688 1065.1875 C 1136.5735 1046.3818 1198.9016 1026.6724 1261.7188 1008.625 C 1261.9613 964.55296 1261.6921 920.50954 1261.8438 876.4375 z M 1085.3438 937.09375 C 1095.0196 972.55158 1105.6165 1007.7977 1114.625 1043.4375 C 1100.4904 1046.956 1087.1429 1055.5064 1072.25 1054.6875 C 1062.6652 1022.4448 1051.4984 990.67831 1042.1562 958.375 C 1042.6415 957.28305 1043.6397 955.0607 1044.125 953.96875 C 1057.5316 947.62942 1071.5731 942.5838 1085.3438 937.09375 z "
     transform="scale(0.8,0.8)"
     id="path3422" />
  <path
     d="m 146.15052,704.13346 c 3.931,-1.18901 8.05612,-0.80076 12.05991,-0.29119 8.66275,25.23602 18.46597,50.10806 26.91033,75.36835 -5.79943,10.55545 -9.17232,22.20284 -13.3945,33.43772 -53.1655,17.13138 -106.37953,34.16569 -159.593559,51.2 0.04853,-4.22218 0.0728,-8.44436 0.121327,-12.64227 4.294977,0.21838 8.662749,-0.0243 12.739337,-1.55299 46.97782,-15.23867 94.295355,-29.40967 141.127585,-45.03659 1.35886,-7.08549 5.62957,-14.24379 3.76114,-21.52341 -3.83394,0.0728 -7.54654,1.01915 -11.23489,1.9655 -48.77346,12.7636 -97.765304,24.72644 -146.538764,37.46578 0.04853,-27.41991 0,-54.83981 0.02427,-82.25972 44.672607,-12.0599 89.320954,-24.16834 134.017824,-36.13118 z"
     id="path3424"
     style="fill:#f5e5c1" />
  <path
     style="fill:#f5e5c1"
     d="M 508.625 926.25 C 507.68329 926.27228 506.70453 926.51745 505.71875 927.09375 C 442.68936 948.87195 379.62405 970.69331 316.625 992.5625 C 306.4032 1000.1454 298.52511 1010.4704 288 1017.75 C 299.43508 1049.659 310.93993 1081.5285 322.375 1113.4375 C 344.42619 1109.1001 367.6189 1108.1924 388.0625 1098.0312 C 435.07673 1079.9839 482.60894 1063.3259 529.5625 1045.1875 C 538.84401 1041.3354 549.4428 1039.5296 556.84375 1032.25 C 543.10346 998.09645 530.51878 963.49914 516.6875 929.40625 C 514.07139 928.15506 511.45012 926.18317 508.625 926.25 z M 319.25 1009.0312 C 320.83278 1008.9825 322.46996 1009.3315 324.1875 1010.2812 C 337.74579 1038.0955 349.54743 1066.8209 362.46875 1094.9688 C 352.06496 1097.9109 341.65104 1100.8602 331.15625 1103.4688 C 320.57046 1075.8669 310.3854 1048.1571 300.40625 1020.3125 C 306.61667 1017.3305 312.3913 1009.2425 319.25 1009.0312 z "
     transform="scale(0.8,0.8)"
     id="path3426" />
  <path
     style="fill:#f5e5c1"
     d="M 733.875 936.71875 C 727.23235 938.84198 720.68216 941.17915 714.3125 944 C 703.75705 963.291 692.86239 982.45714 684.1875 1002.7188 C 675.8766 1019.6135 677.68484 1038.9866 674.5 1057.125 C 730.55309 1092.0368 786.41475 1127.3096 842.4375 1162.3125 C 846.8356 1165.7703 852.49801 1163.6875 857.59375 1163.6875 C 884.862 1117.0373 916.12334 1072.687 941.875 1025.1875 C 937.20391 1020.941 932.44135 1016.5938 926.375 1014.5312 C 862.13235 988.7796 798.17833 962.28843 733.875 936.71875 z M 683.875 1028.4375 C 697.64562 1033.8365 710.52627 1041.1037 723.78125 1047.625 C 772.19074 1072.1027 820.80744 1096.185 869.15625 1120.875 C 869.45956 1122.4523 870.10294 1125.579 870.40625 1127.1562 C 863.15696 1136.6804 857.14085 1147.1826 849.40625 1156.3125 C 847.01004 1159.7097 843.13978 1156.5883 840.53125 1155.375 C 786.08575 1121.2518 732.03649 1086.4394 677.5 1052.4375 C 678.71326 1044.2176 681.14515 1036.2631 683.875 1028.4375 z "
     transform="scale(0.8,0.8)"
     id="path3428" />
  <path
     d="m 732.69384,760.50199 c 2.11109,-3.46995 4.22218,-6.91564 6.35753,-10.33706 21.47489,13.75848 42.94977,27.51697 64.40038,41.29971 -2.25668,3.3729 -4.4891,6.74579 -6.74578,10.14294 -21.23223,-13.85554 -42.61005,-27.51696 -64.01213,-41.10559 z"
     id="path3432"
     style="fill:#f5e5c1" />
  <path
     d="m 134.50313,833.78351 c 11.18635,-3.51849 23.0764,-1.43166 34.60246,-1.98977 0.94635,1.23754 2.83905,3.68835 3.78541,4.92588 -0.0485,17.34976 -0.0971,34.69953 0.0243,52.04929 -0.87355,0.92209 -2.64493,2.81479 -3.54275,3.73687 -52.389,-0.0485 -104.778008,0 -157.142747,-0.0243 0.04853,-5.09574 0.09706,-10.19147 0.242654,-15.26294 40.790142,-14.19526 81.361896,-28.97289 122.030713,-43.43507 z"
     id="path3438"
     style="fill:#f5e5c1" />
  <path
     d="m 403.12114,856.20474 c 5.43545,-2.15962 10.77384,-4.75602 16.50047,-6.04209 6.69725,0.41252 13.10332,2.5964 19.67924,3.78541 19.9219,4.10085 40.37763,4.58616 60.61498,3.54275 9.87602,-0.46105 19.60644,-3.27583 29.55526,-2.20816 3.34863,2.08683 6.64872,4.27071 9.82749,6.64872 -44.67261,12.2055 -92.32986,7.76493 -136.17744,-5.72663 z"
     id="path3440"
     style="fill:#f5e5c1" />
  <path
     d="m 827.86275,866.20209 c -0.33972,-3.83394 1.94123,-7.01271 3.59128,-10.26427 59.32891,0.33972 118.65782,0.0485 177.98677,0.14559 0,30.06484 0,60.10541 0,90.17024 -59.0135,-0.80076 -118.07549,-0.33972 -177.06469,-0.21839 -3.27583,-0.77649 -5.53251,-3.34862 -4.68322,-6.81858 0.80076,-24.3382 -0.0971,-48.6764 0.16986,-73.01459 z"
     id="path3442"
     style="fill:#f5e5c1" />
  <path
     d="m 12.35109,900.29498 c 20.188815,0.53384 40.401896,0.65516 60.590711,0.12132 4.149384,-0.94635 8.468626,2.69346 7.643602,7.06124 0.218388,20.45573 -0.09706,40.91146 0.121327,61.39146 -0.873555,0.92209 -2.644929,2.79053 -3.518484,3.71261 -20.965308,-0.0243 -41.90635,-0.0485 -62.847393,0 -1.237535,-4.61043 -2.256682,-9.31791 -2.086825,-14.0982 0.09706,-19.38805 -0.02426,-38.80038 0.09706,-58.18843 z"
     id="path3444"
     style="fill:#f5e5c1" />
  <path
     d="m 89.15109,912.42768 c -0.752227,-5.28986 0.655166,-13.44304 7.716398,-12.61801 63.187112,-0.29119 126.374222,0.33971 189.537062,-0.33972 3.00891,-0.36398 7.49801,2.13536 6.96417,5.58105 -0.65517,21.54767 0.0243,43.09535 -0.58237,64.64303 -8.44436,2.25668 -17.22844,1.2618 -25.84265,1.40739 -54.98541,0.0243 -109.97081,-0.0728 -164.95621,0.0485 -3.664078,-0.0243 -7.255357,-0.60663 -10.846637,-1.189 -3.90673,-18.90275 -1.043412,-38.38787 -1.989763,-57.53327 z"
     id="path3446"
     style="fill:#f5e5c1" />
  <path
     d="m 529.15564,908.8364 c 3.51848,-2.08683 7.03697,-4.14939 10.55545,-6.18768 18.17479,30.33175 36.37384,60.66351 54.59716,90.971 -3.51849,2.03829 -7.06124,4.07658 -10.57972,6.11488 -18.12626,-30.33176 -36.30104,-60.63924 -54.57289,-90.8982 z"
     id="path3448"
     style="fill:#f5e5c1" />
  <path
     d="m 713.91242,956.20246 c 66.94824,0.65517 133.92076,0.36399 200.84474,0.16986 2.42654,1.28607 4.92587,3.78541 4.63469,6.79432 -0.50958,17.71374 -0.12133,35.47601 -0.46104,53.21406 -64.44891,0.8493 -128.94636,0.024 -193.39526,0.4125 -3.8582,-0.1699 -7.862,0.2912 -11.52607,-1.0192 -2.11109,-4.2221 -0.29119,-9.051 -0.29119,-13.4915 0.67944,-15.33577 -0.0485,-30.72004 0.19413,-46.08004 z"
     id="path3450"
     style="fill:#f5e5c1" />
  <path
     d="m 929.85024,959.18711 c 26.40076,-2.5964 53.06843,-0.53384 79.59056,-1.18901 0,19.58218 0,39.1401 0,58.7223 -24.33824,-0.073 -48.67644,0.1456 -72.99037,-0.073 -3.71261,0.4125 -8.56569,-2.7905 -7.52228,-6.9157 1.77138,-16.79162 0.80076,-33.7046 0.92209,-50.54479 z"
     id="path3452"
     style="fill:#f5e5c1" />
  <path
     d="m 15.093081,983.23412 c 0.970616,-0.84929 2.863317,-2.57213 3.809668,-3.44568 55.082464,0.0971 110.140661,0 165.198861,0.0485 2.83905,3.20303 7.13403,5.72663 7.88626,10.28853 0.75222,8.8326 0.12132,17.71373 0.26692,26.59493 -59.23185,0 -118.439435,0.024 -177.671283,-0.024 0.436777,-11.1621 0.703697,-22.29995 0.509574,-33.46204 z"
     id="path3454"
     style="fill:#f5e5c1" />
  <path
     d="m 207.17801,980.92891 c 53.0927,-0.29118 106.1854,-0.0485 159.2781,-0.16986 5.36266,0.0243 13.05479,0.84929 14.77763,6.98844 0.80076,9.6091 0.0971,19.29101 0.29119,28.97291 -59.59583,0 -119.19166,0.024 -178.78749,-0.024 0.55811,-9.9488 0.77649,-19.94618 -0.12133,-29.89499 1.52872,-1.9655 3.03318,-3.931 4.5619,-5.87223 z"
     id="path3456"
     style="fill:#f5e5c1" />
</svg>
