<?xml version="1.0" encoding="UTF-8" ?>
<!DOCTYPE svg PUBLIC "-//W3C//DTD SVG 1.1//EN" "http://www.w3.org/Graphics/SVG/1.1/DTD/svg11.dtd">
<svg width="422pt" height="422pt" viewBox="0 0 422 422" version="1.1" xmlns="http://www.w3.org/2000/svg">
<path fill="#3e3e3e" opacity="1.00" d=" M 0.00 0.00 L 422.00 0.00 L 422.00 422.00 L 0.00 422.00 L 0.00 0.00 Z" />
<path fill="#f4722b" opacity="1.00" d=" M 270.43 27.68 C 275.98 26.27 280.76 30.71 286.24 30.88 C 287.75 32.62 290.22 34.29 289.61 36.95 C 289.06 40.36 287.74 43.61 287.21 47.03 C 291.00 48.39 296.75 47.73 298.51 52.17 C 299.06 55.90 297.37 59.48 296.41 63.01 C 295.31 66.37 294.28 70.99 289.99 71.38 C 286.77 70.66 283.76 69.27 280.67 68.17 C 278.45 72.70 278.71 79.55 273.10 81.46 C 266.58 79.86 258.61 79.30 254.42 73.29 C 255.65 69.34 256.86 65.39 257.88 61.38 C 253.62 59.96 246.88 60.58 245.63 55.03 C 245.19 51.79 246.71 48.69 247.47 45.60 C 248.54 42.30 249.33 38.09 253.01 36.71 C 257.01 36.62 260.68 38.68 264.38 39.96 C 266.22 35.90 265.96 29.90 270.43 27.68 Z" />
<path fill="#f4722b" opacity="1.00" d=" M 192.96 40.86 C 195.46 38.78 199.01 39.74 201.99 39.37 C 205.42 39.49 209.95 38.35 212.14 41.85 C 213.86 45.20 213.24 49.12 213.47 52.75 C 217.80 52.78 222.81 51.24 226.35 54.57 C 227.01 60.01 228.13 65.64 227.00 71.07 C 224.60 75.71 218.69 74.08 214.49 74.52 C 214.46 78.18 215.01 81.90 214.34 85.52 C 212.68 89.50 207.59 89.22 204.01 89.48 C 200.23 89.41 194.70 90.51 192.87 86.16 C 192.24 82.62 192.35 78.98 191.77 75.43 C 188.04 75.53 184.24 76.12 180.55 75.41 C 178.46 73.53 177.84 70.62 177.71 67.93 C 177.54 63.32 176.60 58.10 179.98 54.33 C 183.81 54.41 187.63 54.09 191.42 53.51 C 191.33 49.38 188.91 43.81 192.96 40.86 Z" />
<path fill="#f4722b" opacity="1.00" d=" M 135.90 64.79 C 138.24 63.67 141.16 61.39 143.65 63.39 C 146.24 65.51 147.42 68.79 149.03 71.62 C 152.48 70.22 156.67 65.43 160.26 68.76 C 162.94 72.18 165.10 76.10 166.55 80.20 C 167.68 84.79 162.52 86.88 159.13 88.20 C 159.58 92.02 163.04 95.14 162.37 99.06 C 159.83 103.53 154.46 105.35 150.00 107.34 C 144.66 109.04 143.28 102.30 140.65 99.23 C 137.19 99.65 134.50 102.66 130.95 102.64 C 128.10 101.72 126.80 98.78 125.33 96.43 C 123.72 93.47 121.43 90.22 122.59 86.68 C 125.06 84.41 128.23 83.16 131.12 81.52 C 129.63 78.03 126.20 74.53 127.58 70.51 C 129.59 67.72 133.08 66.56 135.90 64.79 Z" />
<path fill="#f5e5c1" opacity="1.00" d=" M 375.65 87.58 C 382.78 77.30 399.25 75.59 408.22 84.39 C 401.71 82.91 393.98 81.99 388.29 86.28 C 385.43 88.36 382.68 90.69 380.56 93.54 C 378.27 96.58 377.81 100.46 377.27 104.11 C 379.30 106.21 381.37 108.27 383.52 110.25 C 381.56 110.64 379.61 111.07 377.66 111.48 C 372.71 107.60 367.51 103.12 360.94 102.67 C 353.84 101.74 346.83 105.02 341.84 109.91 C 336.52 115.60 335.20 123.99 336.83 131.40 C 337.63 134.30 338.78 137.09 339.61 139.98 C 335.11 135.82 330.58 130.53 330.33 124.09 C 329.22 115.48 334.48 107.10 341.65 102.68 C 347.00 98.93 353.57 97.36 360.03 97.19 C 364.19 97.24 368.07 98.91 372.02 100.02 C 372.59 95.74 373.13 91.23 375.65 87.58 Z" />
<path fill="#f5e5c1" opacity="1.00" d=" M 96.80 86.02 C 100.84 86.02 103.83 88.87 106.88 91.10 C 112.45 95.41 115.53 101.94 119.00 107.89 C 122.93 114.62 125.44 122.61 124.05 130.43 C 120.91 135.82 116.11 140.22 113.49 145.90 C 116.90 159.51 120.51 173.11 124.60 186.54 C 117.05 185.50 109.40 185.56 101.89 184.19 C 97.25 168.12 92.02 152.18 87.85 135.99 C 90.44 119.29 93.93 102.69 96.80 86.02 Z" />
<path fill="#f5e5c1" opacity="1.00" d=" M 365.62 147.30 C 368.96 139.50 374.74 132.43 383.00 129.65 C 389.58 128.35 397.96 129.38 401.57 135.81 C 396.21 136.60 392.38 131.35 387.04 131.82 C 381.68 132.52 377.49 136.45 374.84 140.94 C 370.85 145.88 372.34 152.65 372.82 158.46 C 372.19 158.45 370.92 158.44 370.28 158.43 C 367.01 155.21 362.83 152.29 358.05 152.45 C 351.85 152.42 346.76 156.50 342.32 160.35 C 337.79 164.09 336.39 170.29 331.71 173.91 C 332.46 166.01 336.54 158.73 342.55 153.63 C 349.08 148.77 357.46 145.98 365.62 147.30 Z" />
<path fill="#f5e5c1" opacity="1.00" d=" M 269.62 139.85 C 273.36 138.67 277.21 137.86 281.09 137.31 C 283.06 139.33 284.88 141.50 286.53 143.79 C 286.37 146.95 286.27 150.11 286.29 153.28 C 285.43 153.39 283.71 153.63 282.85 153.74 C 282.44 153.05 281.63 151.67 281.22 150.97 C 278.83 151.33 276.59 152.32 274.20 152.60 C 272.30 151.92 270.53 150.95 268.70 150.12 C 268.54 149.12 268.38 148.11 268.23 147.11 C 268.55 146.64 269.19 145.70 269.51 145.23 C 269.53 143.44 269.56 141.64 269.62 139.85 Z" />
<path fill="#3e3e3e" opacity="1.00" d=" M 270.71 142.79 C 272.60 139.33 276.96 139.63 280.33 139.46 C 283.42 142.01 285.22 145.70 284.27 149.76 C 282.94 148.04 281.73 146.23 280.52 144.43 C 280.01 144.38 278.98 144.27 278.46 144.21 C 278.41 144.96 278.31 146.46 278.26 147.20 C 276.29 144.86 273.59 143.59 270.71 142.79 Z" />
<path fill="#f5e5c1" opacity="1.00" d=" M 314.14 146.21 C 319.58 141.98 326.93 140.52 333.63 141.88 C 337.76 142.80 340.84 145.85 343.19 149.19 C 337.21 146.66 330.56 144.04 324.04 146.21 C 318.56 147.39 315.16 152.82 314.28 158.02 C 313.47 163.64 316.14 168.79 317.73 174.00 C 315.78 173.14 314.09 171.82 312.64 170.28 C 308.31 167.02 306.42 161.20 307.83 156.00 C 309.22 152.37 310.95 148.61 314.14 146.21 Z" />
<path fill="#f5e5c1" opacity="1.00" d=" M 162.81 156.89 C 170.01 152.39 178.80 152.54 186.99 152.30 C 191.47 152.39 196.59 152.74 200.20 155.64 C 203.25 161.19 204.08 167.70 204.64 173.92 C 197.82 172.70 190.96 171.57 184.01 171.60 C 175.98 171.29 168.06 172.90 160.25 174.56 C 159.96 168.53 162.06 162.80 162.81 156.89 Z" />
<path fill="#f5e5c1" opacity="1.00" d=" M 270.31 157.82 C 271.62 156.61 272.91 155.38 274.21 154.16 C 275.14 155.19 276.08 156.24 277.00 157.30 C 278.08 157.75 279.16 158.21 280.24 158.66 C 281.14 157.67 282.03 156.67 282.92 155.66 C 284.11 155.42 285.30 155.18 286.50 154.94 C 285.78 161.10 287.26 167.09 287.71 173.18 C 283.98 174.06 280.15 174.62 276.46 173.22 C 276.58 171.39 276.69 169.56 276.80 167.74 C 274.72 167.19 272.64 166.65 270.56 166.11 C 270.45 163.35 270.37 160.58 270.31 157.82 Z" />
<path fill="#f5e5c1" opacity="1.00" d=" M 377.74 166.80 C 382.92 160.20 391.85 157.26 400.01 158.70 C 402.88 159.52 406.29 160.35 407.76 163.26 C 409.68 166.26 409.96 169.90 409.37 173.35 C 406.55 169.43 403.59 164.81 398.53 163.70 C 393.17 162.96 387.00 162.91 382.63 166.62 C 377.95 171.18 375.29 177.51 374.23 183.88 C 373.78 183.81 372.87 183.67 372.41 183.60 C 371.82 177.54 373.46 171.26 377.74 166.80 Z" />
<path fill="#3e3e3e" opacity="1.00" d=" M 272.15 161.31 C 272.83 161.31 274.19 161.31 274.87 161.31 C 274.82 161.85 274.73 162.92 274.68 163.46 C 274.16 163.43 273.11 163.37 272.59 163.34 C 272.48 162.83 272.26 161.82 272.15 161.31 Z" />
<path fill="#f5e5c1" opacity="1.00" d=" M 221.35 182.56 C 222.54 175.01 229.01 168.01 237.01 168.22 C 244.74 167.40 251.89 171.59 257.22 176.82 C 264.75 183.79 267.95 194.77 266.21 204.78 C 264.75 210.77 260.38 216.85 253.97 217.90 C 252.81 216.79 251.96 215.41 251.06 214.09 C 253.63 212.82 256.01 211.21 258.08 209.22 C 254.42 206.58 250.71 204.01 247.09 201.32 C 247.94 200.34 248.80 199.36 249.66 198.39 C 253.06 201.07 256.57 203.62 260.25 205.90 C 261.35 199.46 260.78 192.80 258.03 186.84 C 254.87 188.94 252.26 191.76 249.11 193.88 C 248.01 193.33 246.93 192.73 245.89 192.08 C 249.05 189.10 252.45 186.38 255.59 183.38 C 249.83 177.71 241.44 172.09 233.12 175.72 C 236.40 181.02 239.70 186.32 243.12 191.54 C 242.26 191.81 240.53 192.37 239.66 192.65 C 235.68 188.26 233.73 182.41 229.64 178.12 C 225.72 182.19 224.93 187.94 225.43 193.34 C 229.40 193.44 233.39 193.37 237.34 193.79 C 238.21 195.35 236.25 196.38 235.58 197.58 C 232.32 197.58 228.52 196.33 225.73 198.62 C 225.02 198.58 223.61 198.52 222.91 198.49 C 221.63 193.31 219.85 187.90 221.35 182.56 Z" />
<path fill="#f5e5c1" opacity="1.00" d=" M 292.72 169.91 C 296.08 169.07 299.55 167.92 303.05 168.71 C 308.92 169.77 312.23 175.43 317.76 177.30 C 315.76 178.55 313.59 179.55 311.19 179.61 C 308.34 177.08 305.52 174.34 302.02 172.74 C 298.90 172.36 295.56 173.25 292.78 171.36 C 292.76 171.00 292.73 170.28 292.72 169.91 Z" />
<path fill="#f5e5c1" opacity="1.00" d=" M 265.13 171.08 C 267.38 170.03 270.12 170.72 272.56 170.46 C 272.79 173.62 273.29 176.76 273.57 179.92 C 278.25 183.79 283.88 186.27 289.15 189.22 C 290.75 190.47 292.42 189.03 293.69 188.09 C 289.52 185.66 285.29 183.28 281.35 180.49 C 281.27 180.20 281.12 179.64 281.04 179.35 C 283.98 177.26 287.20 175.62 290.12 173.49 C 295.61 176.77 302.12 178.43 306.74 183.02 C 300.15 186.77 293.05 189.58 286.54 193.48 L 286.09 192.87 C 285.78 189.93 283.18 187.76 280.33 189.28 C 280.34 190.59 280.33 191.91 280.37 193.23 C 281.52 193.51 282.67 193.84 283.81 194.21 C 283.85 194.46 283.94 194.98 283.99 195.23 C 280.36 197.46 276.51 202.19 271.88 199.72 C 272.23 192.19 267.44 186.02 264.29 179.59 C 262.57 176.91 264.00 173.69 265.13 171.08 Z" />
<path fill="#f5e5c1" opacity="1.00" d=" M 275.17 175.33 C 277.03 175.53 278.84 176.01 280.50 176.90 C 278.91 177.19 277.18 179.14 275.59 177.79 C 275.49 177.17 275.28 175.95 275.17 175.33 Z" />
<path fill="#f5e5c1" opacity="1.00" d=" M 171.50 178.66 C 178.73 175.63 187.28 173.94 194.63 177.56 C 193.31 191.70 192.96 205.91 191.68 220.06 C 191.51 223.42 187.44 224.11 185.06 225.46 C 180.69 225.71 174.87 224.72 173.49 219.84 C 172.43 206.14 172.34 192.38 171.50 178.66 Z" />
<path fill="#f5e5c1" opacity="1.00" d=" M 329.07 182.21 C 334.11 181.77 338.89 183.66 343.70 184.86 C 354.10 187.70 364.68 189.94 374.98 193.16 C 381.44 195.02 385.72 201.47 386.01 208.03 C 382.18 206.35 378.28 204.29 373.97 204.50 C 362.74 204.85 351.43 207.28 341.52 212.72 C 329.38 218.88 318.01 226.66 308.49 236.43 C 302.89 241.28 298.21 247.12 294.81 253.71 C 281.94 249.66 269.12 245.47 256.22 241.48 C 253.24 240.55 250.16 239.82 247.38 238.34 C 248.17 233.62 251.66 230.06 254.31 226.29 C 262.86 215.08 274.61 207.10 285.97 199.04 C 290.88 195.86 296.27 193.53 301.39 190.73 C 310.27 186.95 319.21 182.47 329.07 182.21 Z" />
<path fill="#f5e5c1" opacity="1.00" d=" M 96.66 189.78 C 101.43 188.60 106.26 189.80 111.02 190.38 C 129.77 192.49 148.46 195.14 167.25 196.90 C 168.41 205.96 168.31 215.26 170.65 224.12 C 175.95 226.84 181.93 229.51 188.00 228.01 C 190.05 227.18 191.78 225.69 193.17 224.00 C 194.85 222.08 194.45 219.35 194.85 217.00 C 195.66 211.50 195.71 205.94 195.73 200.39 C 202.87 200.31 209.92 201.53 217.04 201.83 C 222.84 202.83 229.06 201.87 234.52 204.45 C 242.40 208.85 246.95 216.85 251.95 224.00 C 245.26 228.95 240.64 236.37 238.30 244.28 C 241.46 244.38 244.63 244.41 247.80 244.47 C 247.74 246.37 247.70 248.28 247.64 250.19 C 239.10 249.15 230.56 250.64 222.02 249.72 C 206.02 249.74 190.02 249.43 174.02 249.34 C 161.21 249.27 148.43 248.46 135.62 248.65 C 135.73 243.74 135.11 238.87 134.23 234.05 C 132.31 224.74 128.01 216.18 122.96 208.22 C 119.82 203.98 115.82 200.41 111.41 197.54 C 106.75 194.45 101.19 193.07 96.66 189.78 Z" />
<path fill="#f5e5c1" opacity="1.00" d=" M 69.96 191.87 C 77.36 190.75 84.89 191.55 92.10 193.46 C 101.68 195.44 110.97 200.02 117.40 207.53 C 122.46 213.80 125.54 221.33 129.48 228.29 C 128.76 229.01 128.03 229.73 127.31 230.45 C 118.20 229.99 109.05 230.67 99.96 229.79 C 78.15 229.66 56.34 229.46 34.53 229.34 C 34.24 219.16 38.53 208.95 46.19 202.22 C 53.14 196.89 61.51 193.87 69.96 191.87 Z" />
<path fill="#3e3e3e" opacity="1.00" d=" M 273.16 195.67 C 274.43 194.17 276.12 192.54 278.18 193.76 C 278.91 195.19 278.66 196.83 278.72 198.37 C 277.83 198.34 276.04 198.29 275.15 198.26 C 274.65 197.61 273.66 196.32 273.16 195.67 Z" />
<path fill="#f5e5c1" opacity="1.00" d=" M 237.47 199.44 C 239.06 197.62 240.61 195.77 242.15 193.91 C 243.54 194.40 245.51 194.36 245.86 196.17 C 245.80 199.14 242.87 200.85 241.23 203.00 C 239.97 201.81 238.72 200.62 237.47 199.44 Z" />
<path fill="#f5e5c1" opacity="1.00" d=" M 394.38 226.98 C 395.99 227.00 397.61 227.03 399.23 227.06 C 404.57 239.98 405.80 254.10 406.42 267.93 C 406.67 275.68 405.64 283.36 404.65 291.03 C 403.49 310.37 397.43 329.24 388.16 346.19 C 381.39 361.90 368.26 373.72 354.53 383.39 C 348.20 387.14 341.37 390.66 334.04 391.77 C 312.93 387.32 291.92 382.32 270.94 377.26 C 265.38 376.27 262.15 371.21 259.02 367.02 C 255.42 362.28 252.84 356.79 248.65 352.52 C 240.02 353.93 231.28 354.55 222.59 355.44 C 221.24 364.27 219.78 373.26 215.35 381.17 C 211.83 389.46 205.31 396.00 198.09 401.17 C 191.57 405.20 183.66 408.05 175.95 406.25 C 171.38 405.04 166.90 403.48 162.53 401.67 C 155.33 398.64 147.79 396.52 140.53 393.65 C 134.37 391.44 132.09 384.53 130.08 378.92 C 128.88 376.13 129.38 371.36 125.58 370.64 C 114.39 369.01 103.01 369.17 91.81 367.61 C 87.28 376.06 80.89 384.52 71.46 387.68 C 64.94 390.06 57.85 389.60 51.04 389.37 C 40.64 387.60 30.03 383.07 23.87 374.10 C 18.87 366.35 15.91 357.23 15.63 347.99 C 16.17 336.27 20.27 324.71 27.50 315.44 C 29.59 312.99 31.83 310.10 35.35 309.97 C 35.43 311.86 35.49 313.75 35.54 315.64 C 28.57 323.05 23.65 332.68 23.40 342.99 C 23.42 348.30 22.95 353.85 25.07 358.87 C 27.55 364.41 30.28 370.04 34.61 374.39 C 40.19 379.08 46.66 383.03 53.92 384.39 C 61.11 384.93 68.77 383.97 74.89 379.88 C 80.98 375.57 85.51 369.22 87.81 362.13 C 101.93 362.48 115.95 364.44 130.06 364.80 C 131.01 364.98 132.49 364.86 132.84 366.03 C 134.72 375.68 137.67 386.99 147.16 391.85 C 154.58 395.08 162.46 397.11 170.05 399.91 C 177.26 402.63 185.69 402.46 192.45 398.56 C 202.23 392.82 210.34 383.67 213.51 372.64 C 216.64 365.09 216.54 356.74 216.30 348.72 C 226.58 348.44 236.77 346.79 247.04 346.21 C 249.12 346.27 251.90 345.68 253.13 347.88 C 258.28 355.24 263.60 362.72 270.81 368.22 C 272.45 369.46 274.52 369.77 276.45 370.31 C 294.34 374.63 312.28 378.74 330.25 382.72 C 340.80 385.38 350.54 378.67 358.58 372.68 C 365.95 367.82 371.96 361.27 377.40 354.38 C 380.71 349.86 383.07 344.76 386.03 340.02 C 391.16 331.66 393.83 322.14 396.54 312.79 C 399.14 304.10 400.85 295.09 400.75 285.99 C 402.34 272.70 401.24 259.30 400.17 246.02 C 398.84 239.52 397.36 232.96 394.38 226.98 Z" />
<path fill="#f5e5c1" opacity="1.00" d=" M 52.32 233.44 C 55.63 232.70 59.02 232.55 62.39 232.55 C 62.53 235.41 62.65 238.27 62.73 241.13 L 63.29 241.86 C 63.37 255.95 65.23 269.94 65.61 284.02 C 66.63 292.14 66.30 300.34 67.36 308.46 C 67.37 316.19 68.43 323.86 68.65 331.59 C 65.22 331.28 61.82 330.80 58.39 330.55 C 56.33 306.72 55.43 282.82 53.55 258.98 C 53.46 250.45 52.17 241.99 52.32 233.44 Z" />
<path fill="#f5e5c1" opacity="1.00" d=" M 36.68 232.35 C 40.02 232.31 43.36 232.38 46.70 232.54 C 48.02 260.06 50.49 287.51 51.89 315.02 C 52.63 320.15 52.69 325.34 52.63 330.52 C 50.30 330.19 47.99 329.83 45.67 329.49 C 43.42 301.66 40.77 273.86 38.41 246.03 C 37.83 241.47 37.46 236.88 36.68 232.35 Z" />
<path fill="#f5e5c1" opacity="1.00" d=" M 67.43 233.26 C 72.14 233.18 76.84 233.36 81.55 233.38 C 81.78 244.92 81.24 256.51 82.14 268.02 C 82.45 289.56 82.65 311.11 82.71 332.65 C 79.40 332.48 76.10 332.08 72.85 331.42 C 72.64 313.56 70.95 295.78 70.16 277.96 C 69.14 263.07 68.47 248.15 67.43 233.26 Z" />
<path fill="#f5e5c1" opacity="1.00" d=" M 342.58 233.84 C 346.83 232.25 351.53 230.94 356.05 232.14 C 365.55 234.10 372.42 242.25 376.01 250.86 C 384.10 269.31 383.88 290.45 379.23 309.78 C 376.49 323.66 371.02 337.15 362.35 348.41 C 356.46 355.90 348.64 362.70 338.97 364.36 C 330.11 365.81 321.43 360.67 316.42 353.62 C 309.51 343.79 306.75 331.72 305.68 319.93 C 304.38 300.10 308.27 279.92 316.77 261.97 C 322.63 250.61 330.62 239.30 342.58 233.84 Z" />
<path fill="#f5e5c1" opacity="1.00" d=" M 85.58 233.48 C 89.25 233.55 92.93 233.58 96.60 233.53 C 96.51 242.70 97.58 251.82 97.38 261.00 C 97.62 272.33 97.33 283.69 98.26 295.00 C 98.45 307.82 98.61 320.64 98.72 333.46 C 95.00 333.48 91.25 333.50 87.59 332.79 C 87.28 320.20 87.72 307.58 86.76 295.01 C 86.52 281.33 86.44 267.65 86.23 253.98 C 85.57 247.16 85.67 240.31 85.58 233.48 Z" />
<path fill="#f5e5c1" opacity="1.00" d=" M 100.63 234.10 C 104.83 233.29 109.08 233.89 113.26 234.49 C 113.44 259.69 113.92 284.88 114.92 310.05 C 115.69 318.29 115.36 326.58 115.74 334.84 C 111.65 334.66 107.55 334.41 103.45 334.30 C 102.66 317.87 102.49 301.43 102.28 284.98 C 100.77 268.06 102.29 251.00 100.63 234.10 Z" />
<path fill="#f5e5c1" opacity="1.00" d=" M 117.38 234.34 C 121.30 234.41 125.23 234.41 129.15 234.55 C 129.53 259.70 129.20 284.87 130.26 310.00 C 130.32 318.57 130.36 327.14 130.53 335.70 C 126.99 335.64 123.41 335.89 119.93 335.21 C 119.32 323.17 119.54 311.09 119.24 299.03 C 118.35 287.68 118.75 276.27 118.27 264.90 C 117.32 254.74 117.76 244.52 117.38 234.34 Z" />
<path fill="#f5e5c1" opacity="1.00" d=" M 136.43 252.34 C 153.10 251.18 169.88 251.99 186.59 251.73 C 186.86 269.01 186.81 286.31 186.62 303.60 C 180.68 302.54 174.65 300.81 168.59 302.02 C 162.24 302.57 155.51 304.18 150.90 308.89 C 146.47 313.05 143.57 318.59 141.88 324.38 C 140.15 324.42 138.42 324.46 136.69 324.51 C 136.48 300.45 136.78 276.39 136.43 252.34 Z" />
<path fill="#f5e5c1" opacity="1.00" d=" M 192.26 252.41 C 213.65 252.67 235.04 252.38 256.43 252.58 C 252.95 260.86 248.82 268.95 247.20 277.88 C 245.32 289.80 244.83 301.95 245.52 314.00 C 246.25 321.11 247.32 328.20 247.64 335.36 C 237.46 336.44 227.19 336.90 217.09 338.65 C 216.33 337.80 215.57 336.96 214.80 336.13 C 212.74 323.32 205.49 310.56 193.36 304.93 C 192.18 287.46 192.83 269.91 192.26 252.41 Z" />
<path fill="#3e3e3e" opacity="1.00" d=" M 348.35 266.48 C 352.82 264.45 357.95 266.49 361.07 269.95 C 365.81 275.09 367.42 282.21 368.25 288.95 C 369.03 297.84 367.35 306.84 364.46 315.24 C 361.57 322.78 356.55 330.61 348.41 333.08 C 342.90 334.64 337.54 330.60 334.88 326.05 C 329.45 317.44 329.81 306.83 330.48 297.07 C 331.50 289.63 333.78 282.20 337.86 275.85 C 340.55 272.00 343.84 268.18 348.35 266.48 Z" />
<path fill="#f5e5c1" opacity="1.00" d=" M 350.60 274.10 C 354.45 272.72 358.37 275.44 360.54 278.46 C 365.10 284.86 365.10 293.12 364.59 300.63 C 363.76 307.84 361.61 315.21 356.82 320.82 C 354.04 324.10 349.64 326.63 345.23 325.30 C 341.72 323.93 339.35 320.63 337.94 317.26 C 333.84 306.33 335.30 293.78 340.63 283.54 C 342.88 279.53 346.03 275.48 350.60 274.10 Z" />
<path fill="#f5e5c1" opacity="1.00" d=" M 182.58 313.74 C 187.09 313.19 192.08 313.20 195.97 315.90 C 204.87 321.62 208.94 332.35 210.31 342.43 C 211.78 357.08 208.85 372.75 199.68 384.58 C 195.44 390.04 189.13 394.67 181.97 394.74 C 174.99 395.25 168.74 390.53 165.08 384.93 C 159.84 376.72 157.74 366.75 158.26 357.08 C 158.02 347.37 160.50 337.65 165.11 329.13 C 168.93 322.26 174.79 315.90 182.58 313.74 Z" />
<path fill="#f5e5c1" opacity="1.00" d=" M 44.23 333.45 C 73.42 335.49 102.59 337.59 131.79 339.55 C 131.68 344.37 132.11 349.24 131.30 354.02 C 130.69 357.33 127.24 359.63 123.97 359.20 C 99.78 356.76 75.55 354.70 51.35 352.38 C 49.64 350.69 47.50 349.20 46.76 346.81 C 45.47 342.46 44.73 337.96 44.23 333.45 Z" />
<path fill="#3e3e3e" opacity="1.00" d=" M 185.38 334.57 C 188.26 333.98 191.80 333.66 194.16 335.80 C 198.90 339.67 200.70 346.09 200.52 352.01 C 200.66 359.41 197.93 367.28 192.01 372.00 C 189.52 374.07 186.00 374.18 183.00 373.45 C 180.24 372.28 178.28 369.78 176.96 367.17 C 173.77 360.55 174.01 352.73 176.27 345.85 C 177.86 341.24 180.74 336.58 185.38 334.57 Z" />
<path fill="#f5e5c1" opacity="1.00" d=" M 187.73 337.88 C 191.34 336.99 194.72 339.79 196.35 342.79 C 199.20 348.49 199.01 355.36 196.85 361.25 C 195.47 365.00 192.80 368.57 188.91 369.91 C 186.02 371.08 182.79 369.23 181.02 366.95 C 177.70 362.10 176.73 355.77 178.36 350.13 C 179.46 345.00 182.29 339.39 187.73 337.88 Z" />
<path fill="#f5e5c1" opacity="1.00" d=" M 38.66 341.42 C 40.92 345.01 42.33 349.02 44.22 352.80 C 45.20 355.29 48.25 355.24 50.44 355.86 C 61.27 357.20 72.14 358.22 82.95 359.72 C 81.47 367.57 75.72 374.46 68.55 377.84 C 62.28 380.97 54.43 379.27 49.41 374.58 C 40.20 366.45 37.33 353.22 38.66 341.42 Z" />
</svg>
