<?xml version="1.0" encoding="UTF-8" ?>
<!DOCTYPE svg PUBLIC "-//W3C//DTD SVG 1.1//EN" "http://www.w3.org/Graphics/SVG/1.1/DTD/svg11.dtd">
<svg width="422pt" height="422pt" viewBox="0 0 422 422" version="1.1" xmlns="http://www.w3.org/2000/svg">
<path fill="#3e3e3e" opacity="1.00" d=" M 0.00 0.00 L 422.00 0.00 L 422.00 422.00 L 0.00 422.00 L 0.00 0.00 Z" />
<path fill="#f4722b" opacity="1.00" d=" M 152.78 12.69 C 155.12 12.00 157.61 12.30 160.01 12.23 C 196.36 12.30 232.71 12.21 269.06 12.27 C 271.78 11.81 274.04 14.28 274.02 16.89 C 274.15 35.21 274.05 53.53 274.07 71.84 C 265.95 78.28 260.93 87.40 255.29 95.87 C 248.80 91.44 241.96 87.57 234.99 83.96 C 223.15 78.30 210.35 75.19 197.81 71.54 C 191.00 69.52 184.26 67.30 177.48 65.20 C 169.69 63.14 163.47 57.67 157.58 52.45 C 154.46 49.85 152.12 46.38 150.57 42.65 C 150.15 34.43 150.53 26.17 150.40 17.93 C 150.19 15.88 151.07 13.87 152.78 12.69 Z" />
<path fill="#f5e5c1" opacity="1.00" d=" M 134.58 19.81 C 136.51 21.37 136.78 24.04 137.87 26.16 C 139.66 29.86 141.01 33.75 142.75 37.47 C 146.75 44.77 151.58 51.66 157.38 57.66 C 165.42 65.41 176.27 68.79 186.52 72.50 C 192.72 74.76 199.36 75.47 205.58 77.68 C 216.50 81.46 227.54 84.99 237.98 89.99 C 242.20 92.33 246.39 94.75 250.61 97.10 C 251.42 100.68 249.12 103.81 247.72 106.90 C 243.92 113.44 238.89 119.27 233.04 124.07 C 229.98 126.80 226.66 129.36 222.85 130.93 C 220.24 131.69 217.48 131.13 214.90 130.54 C 199.32 126.59 183.63 123.11 167.92 119.69 C 162.73 118.91 159.59 114.30 156.34 110.68 C 153.45 107.86 151.24 104.44 149.38 100.88 C 145.88 93.80 141.13 87.28 138.89 79.62 C 135.60 71.38 132.60 62.89 131.70 54.01 C 131.53 48.38 131.39 42.73 132.21 37.15 C 132.56 31.30 134.60 25.69 134.58 19.81 Z" />
<path fill="#f5e5c1" opacity="1.00" d=" M 309.92 58.71 C 318.67 55.79 327.95 56.82 337.01 56.69 C 344.86 57.65 352.64 59.47 360.15 61.94 C 366.44 65.36 371.62 70.42 377.20 74.84 C 380.19 77.09 381.73 81.38 385.73 82.12 C 389.81 82.35 394.13 81.46 397.89 83.54 C 393.05 89.06 386.06 91.85 380.63 96.65 C 375.18 103.30 369.98 110.21 365.47 117.55 C 356.25 132.88 353.57 150.85 349.12 167.90 C 347.25 179.99 344.05 191.90 339.11 203.11 C 330.41 225.55 318.12 246.49 303.52 265.59 C 296.31 275.88 286.73 284.11 277.90 292.93 C 267.31 302.20 255.94 310.58 244.04 318.10 C 239.24 320.68 234.24 322.87 229.33 325.24 C 218.95 330.24 207.49 332.61 196.05 333.45 C 183.28 333.22 171.63 326.77 161.46 319.58 C 154.17 314.19 148.38 307.06 143.50 299.48 C 135.35 288.48 128.08 276.86 121.14 265.06 C 114.55 251.10 105.27 238.53 94.49 227.54 C 90.63 223.28 84.46 222.22 78.97 222.62 C 68.80 224.95 60.58 232.04 50.64 234.94 C 44.60 221.52 37.74 208.46 32.24 194.79 C 27.74 180.58 25.12 165.82 23.86 150.98 C 24.19 136.76 22.74 122.44 24.56 108.28 C 27.96 107.65 30.60 110.14 33.37 111.64 C 41.00 116.36 48.92 120.64 56.41 125.59 C 64.89 132.75 73.02 140.35 81.73 147.25 C 86.24 150.30 90.96 153.43 96.41 154.44 C 99.60 155.08 102.72 156.10 105.95 156.54 C 109.88 157.10 114.01 156.21 117.74 157.89 C 124.76 167.31 130.94 177.42 138.91 186.10 C 145.29 192.13 151.28 198.93 159.23 202.94 C 159.44 201.74 159.66 200.53 159.88 199.34 C 153.23 195.86 148.34 190.03 143.35 184.60 C 138.91 180.32 135.52 175.14 131.59 170.42 C 124.35 161.64 117.27 152.42 113.20 141.69 C 106.20 128.82 100.70 115.17 96.31 101.20 C 93.69 93.79 93.51 85.79 93.32 78.01 C 93.71 71.12 93.23 64.12 94.74 57.33 C 97.17 62.27 98.39 67.78 101.51 72.38 C 107.29 83.16 116.98 90.94 125.45 99.49 C 131.31 105.92 139.28 109.74 146.27 114.75 C 151.58 118.62 158.31 119.23 164.17 121.90 C 172.12 125.73 181.23 125.19 189.53 127.83 C 197.94 130.67 206.84 131.73 215.15 134.90 C 225.45 137.78 236.26 141.17 243.98 148.97 C 248.92 155.05 252.95 162.13 254.34 169.93 C 254.86 175.47 256.33 180.89 256.55 186.47 C 257.14 186.46 258.31 186.44 258.90 186.43 C 258.79 172.92 256.91 158.12 247.09 147.97 C 240.72 141.62 232.54 137.23 223.95 134.64 C 235.28 128.24 244.86 118.69 251.70 107.62 C 255.89 101.75 260.27 96.00 263.80 89.69 C 274.94 74.50 290.91 61.79 309.92 58.71 Z" />
<path fill="#3e3e3e" opacity="1.00" d=" M 344.06 76.74 C 348.28 75.68 352.28 81.10 349.89 84.81 C 348.46 87.79 344.07 88.61 341.75 86.24 C 338.66 83.57 340.02 77.72 344.06 76.74 Z" />
<path fill="#f4722b" opacity="1.00" d=" M 13.85 153.98 C 13.42 150.77 16.55 149.36 19.06 148.59 C 20.21 156.39 21.30 164.20 22.26 172.02 C 23.94 180.22 26.14 188.32 28.73 196.26 C 35.29 211.05 42.18 225.70 48.69 240.50 C 50.07 240.51 51.51 240.51 52.74 239.81 C 59.86 236.28 66.96 232.74 74.09 229.25 C 79.54 226.51 86.73 226.36 91.59 230.40 C 94.43 232.92 96.94 235.82 99.12 238.94 C 106.41 250.15 113.65 261.39 121.00 272.56 C 87.30 272.65 53.60 272.56 19.90 272.60 C 17.45 272.79 14.44 271.66 13.99 268.95 C 13.66 266.31 13.83 263.64 13.81 260.99 C 13.86 225.32 13.78 189.65 13.85 153.98 Z" />
<path fill="#f4722b" opacity="1.00" d=" M 91.06 149.07 C 98.12 148.77 105.18 148.98 112.24 148.92 C 112.54 150.56 112.84 152.19 113.14 153.84 C 105.49 153.98 98.06 152.05 91.06 149.07 Z" />
<path fill="#f4722b" opacity="1.00" d=" M 357.30 149.40 C 359.03 148.57 361.06 149.01 362.93 148.89 C 376.62 148.97 390.32 148.91 404.01 148.91 C 406.10 148.90 408.62 149.16 409.89 151.08 C 411.90 154.00 411.29 157.69 411.38 161.03 C 411.34 195.70 411.35 230.37 411.38 265.05 C 411.48 267.93 410.17 271.26 407.30 272.33 C 404.90 272.80 402.43 272.57 400.01 272.61 C 367.73 272.54 335.45 272.65 303.17 272.56 C 313.26 259.58 323.12 246.32 330.80 231.74 C 338.67 217.45 345.39 202.44 349.76 186.70 C 352.43 174.31 354.59 161.78 357.30 149.40 Z" />
<path fill="#3e3e3e" opacity="1.00" d=" M 205.31 196.26 C 212.32 194.38 220.17 195.67 226.06 199.98 C 233.61 205.23 237.74 214.96 236.14 224.04 C 234.44 235.53 223.71 244.99 212.01 244.66 C 198.78 245.29 186.44 233.27 187.25 219.94 C 186.75 209.06 194.92 198.95 205.31 196.26 Z" />
<path fill="#f4722b" opacity="1.00" d=" M 336.02 283.01 C 338.76 285.48 341.04 288.52 344.14 290.57 C 354.32 295.14 366.18 292.79 376.27 297.70 C 378.65 298.75 379.49 301.57 379.38 303.98 C 379.78 308.36 376.04 311.59 372.69 313.70 C 365.59 316.90 356.48 315.58 350.87 310.04 C 342.48 303.56 337.50 293.37 336.02 283.01 Z" />
<path fill="#f4722b" opacity="1.00" d=" M 75.52 289.46 C 77.76 287.71 78.57 284.36 81.75 283.92 C 81.39 289.34 78.60 294.10 75.86 298.64 C 73.07 303.98 68.38 308.11 63.33 311.28 C 57.68 314.83 50.31 315.38 44.10 313.02 C 40.48 311.08 36.69 307.46 37.32 302.96 C 37.25 299.08 41.22 296.04 44.92 296.15 C 52.00 296.15 59.17 296.10 66.13 294.58 C 69.72 293.90 72.75 291.72 75.52 289.46 Z" />
<path fill="#f4722b" opacity="1.00" d=" M 242.93 323.73 C 253.85 317.01 264.94 310.30 274.12 301.26 C 274.00 335.52 274.15 369.79 274.05 404.06 C 274.43 407.43 271.22 409.84 268.07 409.58 C 231.02 409.64 193.97 409.60 156.92 409.60 C 154.45 409.70 151.71 408.77 150.67 406.35 C 150.36 404.92 150.40 403.45 150.38 402.02 C 150.48 372.82 150.31 343.63 150.46 314.44 C 154.26 318.37 157.28 323.12 161.92 326.17 C 173.19 334.87 187.67 340.14 202.01 338.16 C 208.81 336.99 215.91 336.45 222.19 333.39 C 229.18 330.33 236.14 327.20 242.93 323.73 Z" />
<path fill="#f4722b" opacity="1.00" d=" M 118.58 337.34 C 119.09 337.33 120.11 337.32 120.62 337.32 C 121.03 342.61 120.92 347.96 119.61 353.13 C 117.97 363.26 113.24 373.81 103.90 378.99 C 100.35 381.47 95.47 381.16 91.75 379.22 C 88.91 377.38 87.83 373.96 86.57 370.99 C 87.37 368.01 88.19 364.75 90.90 362.89 C 95.87 359.20 102.15 357.81 107.14 354.08 C 113.09 350.49 117.78 344.35 118.58 337.34 Z" />
<path fill="#f4722b" opacity="1.00" d=" M 296.38 338.05 L 298.63 338.41 C 299.88 342.42 300.08 346.86 302.56 350.40 C 304.76 354.46 309.48 355.71 313.27 357.76 C 318.46 360.62 324.84 361.55 328.95 366.12 C 332.76 370.75 330.23 378.52 324.53 380.22 C 320.28 381.19 315.46 380.88 311.96 378.03 C 308.02 374.55 304.19 370.69 302.10 365.78 C 298.10 357.15 296.48 347.52 296.38 338.05 Z" />
<path fill="#3e3e3e" opacity="1.00" d=" M 201.63 357.19 L 203.57 357.10 C 203.91 359.69 204.27 362.29 204.23 364.91 C 204.02 372.52 207.14 379.66 208.49 387.03 C 208.82 391.83 208.16 397.86 203.61 400.58 C 201.54 402.25 198.95 400.84 196.79 400.17 C 195.93 397.87 195.07 395.50 195.20 393.01 C 195.79 380.80 202.20 369.53 201.63 357.19 Z" />
</svg>
