<?xml version="1.0" encoding="UTF-8" ?>
<!DOCTYPE svg PUBLIC "-//W3C//DTD SVG 1.1//EN" "http://www.w3.org/Graphics/SVG/1.1/DTD/svg11.dtd">
<svg width="422pt" height="422pt" viewBox="0 0 422 422" version="1.1" xmlns="http://www.w3.org/2000/svg">
<path fill="#3e3e3e" opacity="1.00" d=" M 0.00 0.00 L 422.00 0.00 L 422.00 422.00 L 0.00 422.00 L 0.00 0.00 Z" />
<path fill="#f5e5c1" opacity="1.00" d=" M 313.96 43.01 C 316.96 41.84 319.78 40.06 323.00 39.56 C 329.84 40.12 334.15 47.43 333.30 53.84 C 332.26 56.73 330.01 59.18 327.18 60.38 C 291.97 75.12 256.80 89.95 221.58 104.67 C 217.85 106.19 214.16 108.40 209.98 108.18 C 198.34 107.82 186.70 107.46 175.06 107.06 C 173.32 106.93 171.65 107.38 170.00 107.84 C 168.64 114.63 167.42 121.45 165.78 128.18 C 156.68 132.00 147.47 135.56 138.56 139.80 C 135.21 133.47 132.64 126.72 130.13 120.01 C 150.49 111.98 170.53 103.14 190.76 94.79 C 231.86 77.63 272.84 60.16 313.96 43.01 Z" />
<path fill="#f5e5c1" opacity="1.00" d=" M 334.32 42.54 C 339.95 39.13 346.84 40.68 353.05 40.87 C 362.20 42.44 371.70 44.90 378.97 51.00 C 386.48 57.18 392.42 65.52 394.47 75.16 C 400.86 93.40 397.19 115.46 383.23 129.27 C 380.15 132.58 375.89 134.63 373.22 138.34 C 369.04 140.44 364.75 142.33 360.56 144.42 C 361.90 133.97 363.17 123.50 364.50 113.05 C 322.37 111.63 280.22 110.40 238.09 109.05 C 232.94 108.92 227.79 108.79 222.66 108.31 C 226.15 107.75 229.40 106.35 232.59 104.89 C 263.39 91.98 294.19 79.07 324.98 66.14 C 330.69 63.61 336.22 59.23 337.62 52.84 C 338.46 49.02 336.11 45.66 334.32 42.54 Z" />
<path fill="#3e3e3e" opacity="1.00" d=" M 320.10 56.18 C 317.10 54.17 318.33 48.57 321.97 48.24 C 324.50 47.52 327.76 49.21 327.75 52.03 C 328.23 54.34 326.39 55.93 325.08 57.52 C 323.37 57.31 321.36 57.62 320.10 56.18 Z" />
<path fill="#3e3e3e" opacity="1.00" d=" M 209.48 95.51 C 213.78 93.74 217.60 99.24 214.92 102.77 C 213.05 105.64 208.32 104.80 207.21 101.68 C 205.75 99.47 207.45 96.57 209.48 95.51 Z" />
<path fill="#f4722b" opacity="1.00" d=" M 174.65 110.59 C 233.79 112.71 292.93 115.12 352.07 117.22 C 354.90 117.64 357.65 118.51 360.47 119.00 C 357.90 137.60 355.12 156.16 352.56 174.76 C 308.69 168.86 264.71 163.78 220.79 158.27 C 217.95 172.79 215.35 187.36 212.57 201.90 C 216.85 200.77 221.24 200.23 225.59 199.47 C 229.58 198.74 232.16 195.21 235.88 193.85 C 242.60 191.06 249.18 187.92 255.59 184.46 C 257.20 183.56 258.95 182.97 260.75 182.56 C 260.02 185.52 259.18 188.46 258.39 191.41 C 255.62 192.88 252.70 194.03 249.67 194.83 C 238.88 197.81 228.77 202.73 218.12 206.12 C 212.68 207.83 207.57 210.72 201.93 211.65 C 192.61 211.28 183.29 210.50 173.97 210.01 C 175.57 211.97 177.91 213.75 177.79 216.56 C 178.77 217.31 179.76 218.06 180.75 218.80 C 174.67 218.27 168.60 217.63 162.53 217.02 C 165.36 219.44 168.26 221.78 171.15 224.14 C 163.80 227.07 156.45 229.98 149.10 232.91 C 157.45 192.11 166.24 151.39 174.65 110.59 Z" />
<path fill="#f5e5c1" opacity="1.00" d=" M 117.52 124.62 C 119.90 123.36 122.37 122.28 124.87 121.28 C 134.04 143.46 143.01 165.72 152.18 187.91 C 152.83 189.43 153.28 191.11 152.84 192.77 C 149.92 207.36 146.92 221.94 144.00 236.54 C 145.01 237.52 146.01 238.51 147.02 239.49 C 154.36 236.10 161.68 232.67 169.02 229.28 C 169.68 230.83 170.33 232.39 170.98 233.95 C 162.89 237.73 154.78 241.48 146.68 245.26 C 130.97 207.73 115.24 170.20 99.57 132.65 C 105.29 129.41 111.67 127.60 117.52 124.62 Z" />
<path fill="#f5e5c1" opacity="1.00" d=" M 387.85 140.96 C 393.94 137.80 399.56 133.69 406.00 131.26 C 408.01 131.22 411.41 131.60 411.58 134.18 C 412.12 137.64 409.93 141.32 406.77 142.75 C 400.62 146.04 393.51 143.54 387.14 142.33 C 387.32 141.99 387.67 141.30 387.85 140.96 Z" />
<path fill="#f5e5c1" opacity="1.00" d=" M 140.38 143.41 C 148.43 139.77 156.84 136.98 164.85 133.24 C 161.73 149.23 158.37 165.18 155.22 181.18 C 150.58 170.08 145.92 159.00 141.22 147.93 C 140.69 146.49 139.87 144.98 140.38 143.41 Z" />
<path fill="#f5e5c1" opacity="1.00" d=" M 76.61 140.83 C 83.15 139.45 88.90 135.83 95.32 134.09 C 106.48 160.45 117.68 186.78 128.85 213.13 C 126.84 214.21 124.84 215.30 122.83 216.38 C 115.94 210.17 108.81 204.20 101.74 198.19 C 99.68 196.28 96.58 197.46 94.53 198.77 C 91.91 200.66 89.13 202.59 87.33 205.33 C 82.84 214.19 83.50 224.35 83.22 233.99 C 82.14 245.96 82.77 258.02 81.70 270.00 C 81.34 274.08 82.26 278.42 80.38 282.23 C 78.70 286.45 77.77 291.16 74.61 294.61 C 70.19 299.43 65.00 303.59 59.03 306.32 C 49.99 308.58 40.14 308.10 31.43 304.73 C 25.53 301.19 20.13 296.47 16.72 290.41 C 14.03 283.79 12.00 276.95 11.53 269.79 C 21.01 247.04 30.35 224.23 39.79 201.46 C 41.52 194.39 41.62 186.12 36.96 180.07 C 31.69 173.84 24.88 169.19 19.31 163.26 C 21.66 160.02 23.93 154.88 28.78 155.56 C 34.33 157.19 39.24 160.42 44.71 162.25 C 51.77 163.69 59.74 163.17 65.60 158.57 C 71.50 154.31 72.93 146.71 76.61 140.83 Z" />
<path fill="#f5e5c1" opacity="1.00" d=" M 216.00 197.00 C 218.52 185.50 220.97 173.99 223.53 162.51 C 248.16 165.95 272.78 169.40 297.42 172.81 C 300.27 173.31 303.57 173.07 305.73 175.37 C 301.54 175.01 297.14 173.50 293.30 176.06 C 293.70 177.38 294.10 178.70 294.51 180.03 C 290.65 179.82 286.62 179.25 282.97 180.89 C 283.48 182.43 283.97 183.97 284.47 185.51 C 281.64 185.31 278.81 185.03 276.03 184.43 C 270.89 186.73 265.83 189.22 260.73 191.61 C 261.53 187.53 262.28 183.44 263.02 179.35 C 261.20 178.95 259.24 178.27 257.57 179.51 C 247.06 184.99 236.54 190.46 226.04 195.97 C 222.99 197.71 219.34 196.82 216.00 197.00 Z" />
<path fill="#3e3e3e" opacity="1.00" d=" M 73.12 164.80 C 78.52 163.41 84.61 164.40 89.01 167.92 C 93.64 171.35 95.81 177.79 94.17 183.31 C 92.80 188.01 89.08 191.43 85.70 194.74 C 79.99 199.26 72.85 203.63 65.25 202.08 C 53.79 201.00 47.72 185.88 53.68 176.49 C 57.41 169.19 66.09 167.39 73.12 164.80 Z" />
<path fill="#f5e5c1" opacity="1.00" d=" M 379.21 165.23 C 386.76 166.65 394.40 167.50 402.07 167.82 C 406.48 169.16 411.66 170.50 414.45 174.45 C 416.10 178.92 410.24 180.29 407.11 181.26 C 399.21 182.41 393.11 175.99 386.88 172.19 C 384.29 169.98 379.96 168.96 379.21 165.23 Z" />
<path fill="#f5e5c1" opacity="1.00" d=" M 364.41 185.07 C 368.47 188.23 373.14 190.57 376.98 194.01 C 379.25 197.06 376.70 201.63 372.96 201.46 C 366.84 198.83 363.63 191.47 364.41 185.07 Z" />
<path fill="#f4722b" opacity="1.00" d=" M 287.61 194.28 C 289.93 193.44 292.40 193.21 294.85 193.14 C 293.95 195.07 293.03 197.27 290.86 198.07 C 287.58 198.78 283.87 197.94 280.92 199.84 C 277.44 202.21 273.85 204.62 271.47 208.17 C 292.24 209.76 313.07 213.55 332.36 221.64 C 347.89 228.13 362.41 238.01 372.32 251.80 C 384.06 268.15 388.72 289.02 386.80 308.91 C 385.21 326.12 377.02 342.58 364.19 354.17 C 345.99 370.87 321.24 378.43 297.08 380.74 C 268.74 383.58 240.43 378.04 213.16 370.76 C 200.16 367.46 187.48 362.98 175.05 357.97 C 158.85 350.17 142.93 341.78 126.74 333.94 C 126.45 331.32 127.50 328.90 128.57 326.59 C 135.68 310.28 142.47 293.82 149.63 277.53 C 149.97 275.84 151.99 275.78 153.07 276.81 C 160.49 282.08 167.66 287.69 175.26 292.70 C 197.66 308.78 224.55 318.18 251.94 320.67 C 264.92 321.50 278.80 320.20 289.90 312.84 C 297.54 307.90 302.97 299.24 302.85 290.01 C 303.25 282.85 300.16 275.84 295.27 270.72 C 288.99 264.02 280.39 260.14 271.81 257.31 C 249.13 250.42 225.02 250.42 201.59 252.39 C 201.73 249.73 201.88 247.09 202.05 244.44 C 208.26 242.50 214.45 240.51 220.61 238.42 C 214.86 235.81 208.74 234.21 202.83 232.04 C 210.36 231.23 217.93 230.80 225.46 229.95 C 223.24 228.75 221.01 227.59 218.77 226.45 C 223.58 222.06 227.65 216.24 234.11 214.23 C 251.95 207.59 269.48 200.11 287.61 194.28 Z" />
<path fill="#f5e5c1" opacity="1.00" d=" M 203.81 214.01 C 210.41 211.85 216.89 209.35 223.51 207.26 C 222.44 209.89 221.01 212.35 219.38 214.67 C 217.12 214.11 214.86 213.56 212.60 213.03 C 210.98 216.04 209.31 219.03 207.63 222.01 C 206.87 220.67 206.11 219.33 205.36 218.00 C 202.36 220.33 199.36 222.65 196.37 224.99 C 195.68 223.88 194.99 222.77 194.31 221.67 C 187.45 224.77 180.61 227.90 173.75 231.00 C 174.04 228.09 174.32 224.95 171.77 222.95 C 175.97 222.26 180.16 221.47 184.35 220.69 C 183.51 218.02 182.38 215.45 181.12 212.95 C 186.75 213.44 192.38 213.87 198.01 214.37 C 199.95 214.51 201.96 214.75 203.81 214.01 Z" />
<path fill="#3e3e3e" opacity="1.00" d=" M 46.41 219.97 C 48.10 215.62 51.79 212.31 56.11 210.67 C 61.44 209.23 66.48 212.30 70.28 215.73 C 73.73 220.70 75.63 226.95 75.27 233.02 C 74.11 246.31 75.06 259.79 72.44 272.94 C 71.36 277.04 69.74 280.98 67.94 284.82 C 63.48 294.26 52.31 300.19 41.99 297.91 C 35.88 296.43 29.65 292.90 27.15 286.84 C 26.19 283.97 25.58 280.97 25.28 277.96 C 24.72 273.53 26.97 269.43 28.71 265.52 C 30.90 262.64 34.10 260.74 36.77 258.34 C 37.01 252.84 35.05 246.97 37.78 241.83 C 39.70 236.56 46.56 235.43 48.40 230.09 C 47.61 226.75 46.30 223.43 46.41 219.97 Z" />
<path fill="#f5e5c1" opacity="1.00" d=" M 161.27 250.23 C 163.33 243.05 172.62 241.40 179.01 242.76 C 175.76 245.98 172.11 248.95 167.90 250.79 C 165.72 251.77 163.42 250.71 161.27 250.23 Z" />
<path fill="#f5e5c1" opacity="1.00" d=" M 173.45 268.71 C 171.85 260.01 178.13 252.74 184.42 247.69 C 184.75 253.15 184.12 258.61 184.45 264.08 C 184.77 267.15 182.54 270.04 179.88 271.33 C 177.35 272.21 175.34 270.00 173.45 268.71 Z" />
</svg>
