<?xml version="1.0" encoding="UTF-8" ?>
<!DOCTYPE svg PUBLIC "-//W3C//DTD SVG 1.1//EN" "http://www.w3.org/Graphics/SVG/1.1/DTD/svg11.dtd">
<svg width="422pt" height="422pt" viewBox="0 0 422 422" version="1.1" xmlns="http://www.w3.org/2000/svg">
<path fill="#3e3e3e" opacity="1.00" d=" M 0.00 0.00 L 422.00 0.00 L 422.00 422.00 L 0.00 422.00 L 0.00 0.00 Z" />
<path fill="#f5e5c1" opacity="1.00" d=" M 326.44 53.55 C 333.38 50.67 340.98 52.19 348.17 53.04 C 358.90 54.67 367.80 61.38 376.11 67.90 C 380.71 71.01 383.47 75.95 386.67 80.33 C 394.49 92.97 394.12 108.72 391.44 122.83 C 388.27 133.46 383.94 144.15 376.43 152.49 C 371.09 157.39 364.47 160.57 358.60 164.77 C 358.52 166.74 358.42 168.70 358.34 170.67 C 355.42 170.57 352.50 170.44 349.59 170.29 C 346.98 171.99 347.32 175.07 347.33 177.78 C 344.45 177.75 341.57 177.71 338.70 177.68 C 334.18 180.56 329.80 183.66 325.23 186.47 C 325.33 188.05 325.44 189.64 325.55 191.23 C 321.35 191.77 316.70 191.65 313.14 194.29 C 307.41 198.22 301.54 201.94 295.66 205.64 C 293.83 206.46 293.82 208.63 293.29 210.30 C 293.45 207.88 293.25 205.46 292.91 203.07 C 292.07 196.55 293.08 189.84 291.44 183.44 C 290.02 180.74 287.11 179.40 284.66 177.83 C 283.67 165.84 286.54 154.02 286.43 142.05 C 286.40 138.03 286.58 134.01 286.44 129.99 C 286.64 128.48 285.33 127.57 284.49 126.55 C 280.37 122.23 277.82 116.75 274.48 111.86 C 288.42 102.33 302.56 93.09 316.55 83.64 C 320.08 81.30 323.04 77.51 322.90 73.09 C 322.43 67.78 317.96 63.92 316.71 58.97 C 319.67 56.72 323.08 55.13 326.44 53.55 Z" />
<path fill="#f5e5c1" opacity="1.00" d=" M 55.48 62.36 C 62.66 58.24 70.57 54.77 78.99 54.64 C 88.22 54.41 98.28 53.88 106.43 59.02 C 104.50 62.44 101.65 65.37 100.28 69.08 C 99.31 75.38 102.56 81.75 107.86 85.16 C 120.63 93.48 133.52 101.60 146.33 109.86 C 142.76 114.42 139.17 118.96 135.68 123.59 C 134.18 125.76 132.36 128.12 132.70 130.93 C 133.31 138.30 133.17 145.76 134.48 153.07 C 135.55 157.03 131.86 160.01 129.04 162.10 C 117.61 169.58 106.11 176.97 94.68 184.45 C 91.19 182.25 87.78 179.92 84.32 177.68 C 81.44 177.71 78.55 177.75 75.67 177.78 C 75.69 175.06 76.01 172.00 73.41 170.29 C 70.50 170.44 67.58 170.57 64.67 170.67 C 64.57 168.70 64.48 166.73 64.39 164.77 C 58.62 160.86 52.63 157.29 46.90 153.30 C 40.97 144.11 36.41 134.13 32.77 123.82 C 30.09 113.30 30.27 102.12 32.84 91.60 C 36.24 79.37 45.10 69.32 55.48 62.36 Z" />
<path fill="#f5e5c1" opacity="1.00" d=" M 115.76 58.77 C 119.83 57.34 123.26 60.59 126.45 62.59 C 142.16 72.81 157.97 82.86 173.73 92.99 C 171.86 95.69 170.01 98.38 168.15 101.08 C 162.28 102.99 155.94 102.52 150.20 104.83 C 148.10 104.05 146.29 102.66 144.40 101.49 C 133.75 94.51 123.00 87.69 112.28 80.82 C 108.74 78.74 105.81 75.17 105.54 70.95 C 106.83 65.64 110.03 60.08 115.76 58.77 Z" />
<path fill="#f5e5c1" opacity="1.00" d=" M 295.99 62.96 C 299.55 60.71 303.52 56.93 308.05 59.05 C 313.37 60.56 316.17 65.92 317.45 70.91 C 317.23 75.42 313.91 79.04 310.17 81.19 C 297.08 89.37 284.31 98.04 271.13 106.08 C 269.71 103.35 267.53 101.15 264.42 100.56 C 258.56 99.32 253.46 96.15 248.10 93.66 C 264.14 83.56 280.05 73.24 295.99 62.96 Z" />
<path fill="#3e3e3e" opacity="1.00" d=" M 111.19 70.71 C 113.01 68.58 115.39 67.19 118.26 67.14 C 119.87 68.79 122.21 70.40 121.70 73.05 C 121.57 76.77 117.33 77.93 114.25 77.66 C 112.64 75.64 111.53 73.29 111.19 70.71 Z" />
<path fill="#3e3e3e" opacity="1.00" d=" M 301.30 73.04 C 300.79 70.51 302.95 68.92 304.53 67.38 C 305.50 67.42 307.43 67.48 308.39 67.52 C 309.53 68.61 310.66 69.72 311.78 70.83 C 311.44 73.35 310.33 75.63 308.81 77.64 C 305.71 77.95 301.43 76.79 301.30 73.04 Z" />
<path fill="#f5e5c1" opacity="1.00" d=" M 166.98 107.01 C 170.11 103.88 174.73 102.62 179.06 102.72 C 182.46 103.68 185.21 106.05 188.23 107.81 C 193.50 111.28 199.59 113.58 205.92 113.99 C 213.03 114.41 220.23 113.68 227.28 114.90 C 232.68 116.79 238.19 119.78 241.14 124.91 C 244.01 129.62 246.02 134.78 248.23 139.82 C 248.78 139.82 249.87 139.82 250.42 139.82 C 250.30 132.58 249.38 125.38 248.52 118.20 C 255.50 121.23 263.35 125.65 265.24 133.65 C 267.83 141.24 269.85 149.06 270.33 157.10 C 271.58 166.13 268.35 175.03 268.86 184.05 C 269.19 190.39 274.39 194.60 277.79 199.42 C 283.09 207.46 283.23 217.83 280.87 226.88 C 278.40 233.53 274.52 240.86 267.22 243.04 C 261.57 244.53 255.43 245.73 251.06 249.94 C 247.65 253.34 244.14 257.16 243.17 262.03 C 242.19 266.55 242.69 271.26 241.69 275.77 C 241.25 277.41 239.62 276.70 238.42 276.59 C 233.62 275.74 228.80 274.99 224.00 274.13 C 213.44 271.75 202.54 273.34 191.93 274.52 C 187.22 275.39 182.58 276.59 177.96 277.84 C 176.95 276.89 175.95 275.94 174.95 274.99 C 173.84 270.74 172.38 266.48 172.75 262.02 C 172.60 259.65 173.35 256.54 171.13 254.90 C 163.26 249.42 155.28 244.08 147.60 238.33 C 141.04 232.43 135.85 224.07 136.45 214.93 C 136.56 207.01 142.54 201.12 144.98 193.95 C 147.26 188.58 146.51 182.65 146.86 176.98 C 147.29 165.24 149.69 153.69 150.06 141.94 C 150.63 136.41 151.14 130.67 153.79 125.67 C 157.36 118.93 161.35 112.26 166.98 107.01 Z" />
<path fill="#f5e5c1" opacity="1.00" d=" M 112.35 181.32 C 119.53 176.24 127.13 171.79 134.50 167.00 C 135.13 173.28 134.03 179.57 132.67 185.68 C 131.30 188.01 128.91 189.45 126.77 190.98 L 126.33 191.24 C 126.39 195.45 126.75 199.65 127.20 203.84 C 124.12 201.63 123.15 197.86 121.23 194.80 C 118.39 190.23 115.39 185.76 112.35 181.32 Z" />
<path fill="#3e3e3e" opacity="1.00" d=" M 227.58 175.63 C 237.63 173.40 248.49 176.05 256.63 182.27 C 260.25 185.08 263.11 189.23 263.06 193.98 C 262.67 198.62 261.29 203.12 259.78 207.51 C 258.57 211.24 257.99 215.31 255.58 218.53 C 251.25 224.85 243.15 228.30 235.60 226.91 C 226.16 225.47 219.18 216.48 218.54 207.21 C 213.75 202.67 206.02 202.42 200.41 205.49 C 197.88 206.71 198.25 209.77 197.81 212.08 C 197.01 219.79 190.88 226.37 183.51 228.41 C 175.93 230.70 167.20 227.90 162.31 221.70 C 158.69 217.84 158.34 212.44 157.28 207.56 C 154.10 201.97 152.04 195.52 152.94 189.04 C 154.46 183.03 160.54 179.59 166.19 178.22 C 172.33 176.80 178.50 174.41 184.91 175.45 C 189.35 176.17 194.89 177.31 196.67 182.06 C 199.56 188.16 196.57 194.70 195.84 200.91 C 203.53 198.11 212.66 196.30 220.04 200.93 C 220.18 200.23 220.45 198.82 220.59 198.11 C 216.66 193.97 215.75 187.81 216.53 182.36 C 218.74 178.36 223.38 176.65 227.58 175.63 Z" />
<path fill="#f5e5c1" opacity="1.00" d=" M 84.76 197.91 C 92.30 193.19 99.92 188.57 107.12 183.34 C 113.37 192.64 119.26 202.16 125.34 211.57 C 129.30 217.57 130.87 224.73 132.47 231.64 C 128.18 229.83 122.58 230.83 120.25 235.16 C 116.91 240.78 121.38 248.91 128.02 248.60 C 131.80 248.94 134.54 245.91 136.46 243.07 C 136.91 245.06 137.38 247.05 137.86 249.03 C 131.88 252.50 126.41 256.80 120.26 259.98 C 108.13 240.04 94.97 220.74 82.66 200.92 C 81.96 199.37 83.81 198.65 84.76 197.91 Z" />
<path fill="#f5e5c1" opacity="1.00" d=" M 233.30 193.36 C 240.85 190.72 249.81 195.19 252.10 202.87 C 255.28 211.60 248.35 222.13 238.99 222.30 C 231.29 223.13 223.92 216.78 223.27 209.14 C 222.37 202.38 226.81 195.42 233.30 193.36 Z" />
<path fill="#f5e5c1" opacity="1.00" d=" M 331.11 193.38 C 334.32 195.62 337.69 197.63 340.91 199.87 C 328.63 219.98 315.24 239.42 302.99 259.55 C 302.61 259.58 301.84 259.63 301.45 259.66 C 296.28 256.01 290.92 252.64 285.55 249.28 C 286.06 247.65 286.61 246.03 287.12 244.40 C 289.30 246.45 291.72 248.96 295.01 248.60 C 301.62 248.89 306.06 240.81 302.77 235.20 C 301.15 231.88 297.35 230.91 294.00 230.51 C 293.02 230.92 291.08 231.73 290.10 232.14 C 290.93 227.55 291.82 222.93 293.49 218.56 C 294.81 214.77 298.57 212.88 301.65 210.72 C 307.29 207.07 312.71 203.07 318.41 199.52 C 322.62 197.93 327.26 198.06 331.67 197.36 C 331.48 196.03 331.29 194.70 331.11 193.38 Z" />
<path fill="#f5e5c1" opacity="1.00" d=" M 174.33 195.34 C 182.31 192.53 191.73 197.79 193.44 206.08 C 195.71 214.59 188.86 224.11 179.99 224.30 C 171.91 225.18 164.27 218.14 164.20 210.10 C 163.78 203.64 168.19 197.30 174.33 195.34 Z" />
<path fill="#f5e5c1" opacity="1.00" d=" M 58.80 213.68 C 65.12 210.49 70.66 205.96 77.13 203.05 C 91.32 225.15 105.43 247.31 119.80 269.30 C 119.69 269.71 119.48 270.53 119.37 270.94 C 117.61 271.88 115.95 273.02 114.07 273.72 C 107.74 271.97 101.83 267.25 94.96 268.69 C 90.44 269.55 87.37 273.34 84.76 276.83 C 82.49 279.70 81.76 283.41 81.59 286.99 C 80.80 296.16 83.06 305.18 84.20 314.23 C 86.03 328.91 88.36 343.52 90.29 358.19 C 90.65 360.80 89.84 363.37 89.49 365.94 C 88.80 370.29 88.20 374.91 85.57 378.59 C 81.35 384.71 76.46 390.79 69.69 394.19 C 61.44 397.54 52.29 398.16 43.50 397.18 C 38.71 396.06 34.51 393.28 30.40 390.69 C 23.92 386.55 20.36 379.44 17.09 372.75 C 15.55 368.42 13.43 363.77 14.86 359.12 C 19.92 336.78 24.72 314.38 29.76 292.04 C 32.09 283.92 32.58 274.57 28.00 267.12 C 24.70 261.03 18.09 258.15 12.59 254.48 C 9.48 252.31 5.64 250.95 3.17 248.02 C 4.10 244.08 6.05 239.92 9.60 237.75 C 17.58 237.88 24.94 242.51 33.03 241.76 C 41.57 241.71 50.37 237.11 54.27 229.34 C 56.33 224.30 57.39 218.92 58.80 213.68 Z" />
<path fill="#f5e5c1" opacity="1.00" d=" M 303.20 269.29 C 317.56 247.35 331.62 225.22 345.80 203.17 C 351.89 206.70 358.21 210.01 363.81 214.29 C 366.66 219.57 366.45 226.11 369.77 231.23 C 374.00 237.55 381.47 241.45 389.03 241.71 C 397.05 242.43 404.56 238.93 412.29 237.41 C 417.05 239.01 419.13 243.69 420.72 248.05 C 413.91 252.52 406.74 256.44 400.12 261.20 C 392.53 267.08 390.23 277.69 392.06 286.76 C 397.26 309.81 402.28 332.91 407.40 355.98 C 409.23 363.02 407.51 370.64 403.87 376.82 C 401.08 382.13 397.76 387.45 392.56 390.72 C 388.57 393.22 384.53 395.92 379.91 397.09 C 370.68 398.46 361.24 397.17 352.48 394.10 C 345.70 389.45 340.00 383.30 336.02 376.11 C 333.83 371.05 333.42 365.46 332.89 360.04 C 333.60 347.92 336.08 336.00 337.51 323.96 C 338.66 314.30 340.40 304.71 341.46 295.05 C 341.52 288.92 342.14 282.00 338.23 276.81 C 335.63 273.34 332.56 269.56 328.07 268.69 C 321.17 267.21 315.25 272.01 308.91 273.72 C 307.04 273.02 305.38 271.88 303.64 270.94 C 303.53 270.53 303.31 269.70 303.20 269.29 Z" />
<path fill="#3e3e3e" opacity="1.00" d=" M 206.41 208.25 C 209.15 207.72 210.82 210.79 212.61 212.39 C 215.56 216.39 220.67 218.68 222.31 223.61 C 225.19 229.75 219.48 237.92 212.58 236.87 C 212.98 234.16 213.33 231.43 213.50 228.69 C 211.99 228.66 210.50 228.73 209.00 228.88 C 206.69 230.72 206.44 234.18 204.06 235.99 C 200.19 235.77 196.64 233.65 194.28 230.65 C 192.48 226.96 194.99 223.16 197.34 220.40 C 200.65 216.56 203.45 212.34 206.41 208.25 Z" />
<path fill="#3e3e3e" opacity="1.00" d=" M 64.52 237.72 C 70.70 236.62 77.72 238.32 82.05 243.04 C 84.40 246.15 86.66 249.92 86.21 253.97 C 85.47 261.82 80.25 268.42 74.62 273.56 C 69.92 278.04 63.63 281.28 56.98 280.59 C 51.31 280.90 46.51 276.87 43.54 272.41 C 37.79 264.36 40.04 251.72 48.41 246.35 C 53.53 243.06 58.61 239.43 64.52 237.72 Z" />
<path fill="#3e3e3e" opacity="1.00" d=" M 350.57 237.81 C 359.12 235.60 366.59 241.28 373.40 245.54 C 379.18 248.79 382.80 255.39 382.61 262.00 C 382.86 268.41 379.10 274.43 374.02 278.08 C 369.77 281.37 363.93 280.93 358.98 279.97 C 349.99 276.89 343.08 269.36 338.71 261.12 C 336.75 256.79 335.73 251.43 338.33 247.13 C 340.44 242.09 345.33 238.84 350.57 237.81 Z" />
<path fill="#f5e5c1" opacity="1.00" d=" M 148.72 252.22 C 150.68 249.05 155.07 250.64 156.22 253.69 C 158.99 260.10 158.60 267.28 160.17 274.00 C 161.57 279.08 160.28 284.66 162.65 289.50 C 165.25 292.71 168.89 294.88 172.45 296.88 C 173.14 292.48 171.44 286.69 175.52 283.58 C 186.21 278.32 198.33 277.32 210.07 276.91 C 217.42 276.46 224.61 278.50 231.63 280.41 C 235.04 281.67 238.63 282.34 242.28 282.26 C 244.90 285.02 246.37 288.77 249.67 290.89 C 251.17 289.32 252.83 287.86 254.05 286.04 C 258.55 277.03 260.05 266.80 264.76 257.89 C 265.46 256.05 267.58 255.91 269.15 255.22 C 270.90 265.05 270.12 275.10 270.31 285.03 C 270.06 290.34 271.29 295.95 268.98 300.96 C 266.69 307.13 261.23 311.21 257.31 316.28 C 248.50 325.72 240.06 335.69 229.82 343.62 C 214.89 345.74 199.88 343.40 184.92 342.91 C 179.18 342.63 175.16 337.80 172.58 333.14 C 168.67 327.16 165.33 320.83 162.63 314.22 C 160.42 308.79 155.96 304.75 153.27 299.60 C 151.00 295.43 151.72 290.52 150.74 286.01 C 150.09 274.75 148.84 263.52 148.72 252.22 Z" />
<path fill="#3e3e3e" opacity="1.00" d=" M 48.81 292.74 C 54.14 288.48 61.62 290.97 66.71 294.32 C 71.26 299.06 74.40 305.35 75.04 311.92 C 76.70 325.24 79.37 338.48 79.64 351.94 C 79.83 358.35 78.36 364.68 76.43 370.75 C 71.82 383.56 55.96 391.16 43.25 385.66 C 34.74 383.17 30.76 374.08 29.48 366.05 C 30.05 361.18 30.37 355.71 33.86 351.92 C 35.44 350.00 37.08 348.14 38.75 346.29 C 38.28 341.78 36.88 337.45 35.68 333.10 C 36.45 330.42 36.67 327.53 38.07 325.07 C 40.41 321.89 43.19 319.07 45.76 316.08 C 45.36 311.72 43.36 307.78 41.50 303.90 C 42.96 299.65 44.87 295.25 48.81 292.74 Z" />
<path fill="#3e3e3e" opacity="1.00" d=" M 358.72 292.85 C 362.78 291.07 367.52 289.34 371.84 291.34 C 376.99 293.63 379.92 298.72 381.50 303.90 C 379.63 307.78 377.65 311.73 377.24 316.09 C 379.53 318.70 381.89 321.26 384.10 323.95 C 386.30 326.48 386.40 330.02 387.31 333.11 C 386.12 337.46 384.72 341.78 384.25 346.29 C 386.70 349.14 389.44 351.81 391.32 355.09 C 392.65 358.92 393.48 363.01 393.48 367.07 C 391.83 373.29 389.61 380.17 383.82 383.76 C 379.05 386.42 373.48 388.04 367.99 387.30 C 357.73 386.23 348.43 378.47 345.83 368.44 C 344.49 363.41 343.26 358.27 343.36 353.03 C 343.44 340.24 345.89 327.64 347.55 315.00 C 348.14 310.83 348.46 306.46 350.57 302.71 C 352.60 299.00 354.59 294.63 358.72 292.85 Z" />
</svg>
