<?xml version="1.0" encoding="UTF-8" standalone="no"?>
<svg
   xmlns:dc="http://purl.org/dc/elements/1.1/"
   xmlns:cc="http://creativecommons.org/ns#"
   xmlns:rdf="http://www.w3.org/1999/02/22-rdf-syntax-ns#"
   xmlns:svg="http://www.w3.org/2000/svg"
   xmlns="http://www.w3.org/2000/svg"
   xmlns:sodipodi="http://sodipodi.sourceforge.net/DTD/sodipodi-0.dtd"
   xmlns:inkscape="http://www.inkscape.org/namespaces/inkscape"
   width="1280"
   height="1280"
   viewBox="0 0 1024 1024"
   version="1.1"
   id="svg2"
   inkscape:version="0.47 r22583"
   sodipodi:docname="bonesaw_nomisses.svg">
  <metadata
     id="metadata46">
    <rdf:RDF>
      <cc:Work
         rdf:about="">
        <dc:format>image/svg+xml</dc:format>
        <dc:type
           rdf:resource="http://purl.org/dc/dcmitype/StillImage" />
      </cc:Work>
    </rdf:RDF>
  </metadata>
  <defs
     id="defs44" />
  <sodipodi:namedview
     pagecolor="#ffffff"
     bordercolor="#666666"
     borderopacity="1"
     objecttolerance="10"
     gridtolerance="10"
     guidetolerance="10"
     inkscape:pageopacity="0"
     inkscape:pageshadow="2"
     inkscape:window-width="1280"
     inkscape:window-height="738"
     id="namedview42"
     showgrid="false"
     inkscape:zoom="0.44739336"
     inkscape:cx="263.75"
     inkscape:cy="688.1279"
     inkscape:window-x="-8"
     inkscape:window-y="-8"
     inkscape:window-maximized="1"
     inkscape:current-layer="svg2" />
  <path
     d="m 0,0 1024,0 0,1024 L 0,1024 0,0 z"
     id="path4"
     style="fill:#3e3e3e" />
  <path
     style="fill:#f5e5c1"
     d="M 979.71875 120 C 969.95193 121.51659 961.38078 126.91994 952.28125 130.46875 C 827.55708 182.4877 703.25726 235.45071 578.59375 287.5 C 517.23261 312.82701 456.4742 339.6436 394.71875 364 C 402.33201 384.3526 410.12011 404.83125 420.28125 424.03125 C 447.30685 411.17059 475.24185 400.36799 502.84375 388.78125 C 507.81815 368.36799 511.49987 347.68901 515.625 327.09375 C 520.62974 325.6985 525.72228 324.32444 531 324.71875 C 566.30616 325.93203 601.60009 327.03305 636.90625 328.125 C 649.58492 328.7923 660.78 322.07917 672.09375 317.46875 C 778.92219 272.82041 885.60815 227.86526 992.40625 183.15625 C 1000.9901 179.51644 1007.8142 172.07837 1010.9688 163.3125 C 1013.547 143.86985 1000.4657 121.69859 979.71875 120 z M 979.5625 145.84375 C 986.59567 145.47882 994.15153 150.32814 994.125 157.8125 C 995.58092 164.81914 990.0047 169.646 986.03125 174.46875 C 980.84451 173.83177 974.72805 174.77402 970.90625 170.40625 C 961.80671 164.30957 965.55299 147.31345 976.59375 146.3125 C 977.55299 146.03951 978.55776 145.89588 979.5625 145.84375 z M 640.1875 288.65625 C 651.03169 288.39915 658.9878 302.35003 651.875 311.71875 C 646.20296 320.42396 631.86682 317.86975 628.5 308.40625 C 624.07156 301.70292 629.21765 292.90268 635.375 289.6875 C 637.00533 289.01641 638.63833 288.69298 640.1875 288.65625 z "
     transform="scale(0.8,0.8)"
     id="path6" />
  <path
     d="m 811.24095,103.22502 c 13.66142,-8.2745 30.38028,-4.51336 45.4491,-4.05232 22.20284,3.80967 45.25497,9.77896 62.89592,24.58085 18.22332,14.99602 32.63697,35.23337 37.61138,58.62522 15.50559,44.26009 6.60019,97.78957 -27.27432,131.30009 -7.47374,8.03185 -17.8108,13.00626 -24.28967,22.00872 -10.14293,5.09574 -20.55279,9.6819 -30.72,14.75337 3.25157,-25.35735 6.33328,-50.76322 9.56057,-76.12057 -102.23014,-3.44569 -204.50881,-6.43033 -306.73895,-9.70616 -12.49669,-0.31545 -24.99337,-0.6309 -37.44152,-1.79564 8.46863,-1.35886 16.35488,-4.75602 24.09554,-8.29877 74.73745,-31.32663 149.47489,-62.65327 224.18806,-94.02844 13.85555,-6.13914 27.27431,-16.76739 30.67147,-32.27298 2.03829,-9.26939 -3.66408,-17.42256 -8.00758,-24.99337 z"
     id="path8"
     style="fill:#f5e5c1" />
  <path
     d="m 423.79526,268.35109 c 143.50559,5.14427 287.01119,10.99223 430.51678,16.08796 6.86711,1.01915 13.54009,3.13024 20.38294,4.31924 -6.23621,45.13365 -12.98199,90.17024 -19.19394,135.30389 -106.45232,-14.31659 -213.17156,-26.64341 -319.74521,-40.01365 -6.89138,35.23337 -13.20038,70.58806 -19.94616,105.86995 10.38559,-2.74199 21.0381,-4.05232 31.59355,-5.89649 9.6819,-1.77137 15.94237,-10.33706 24.9691,-13.63716 16.30635,-6.77004 32.27299,-14.38938 47.82711,-22.78521 3.90673,-2.18389 8.15318,-3.61554 12.52095,-4.61043 -1.77138,7.18256 -3.80967,14.31659 -5.72664,21.47489 -6.72151,3.56701 -13.80701,6.35753 -21.15943,8.29876 -26.18237,7.23109 -50.71469,19.16967 -76.55734,27.39564 -13.20038,4.14939 -25.6,11.16209 -39.28569,13.41877 -22.61536,-0.89782 -45.23071,-2.79052 -67.84607,-3.97953 3.88247,4.75602 9.56057,9.07527 9.26939,15.89384 2.37801,1.81991 4.78028,3.63981 7.18256,5.43545 -14.75337,-1.28606 -29.48247,-2.83905 -44.21157,-4.31924 6.86711,5.87223 13.90408,11.55033 20.91678,17.27697 -17.83507,7.10976 -35.67014,14.17099 -53.50521,21.28076 20.26161,-99.00285 41.5909,-197.81157 61.9981,-296.81441 z"
     id="path14"
     style="fill:#f4722b" />
  <path
     d="m 285.16701,302.39545 c 5.77517,-3.05744 11.76872,-5.6781 17.83508,-8.10464 22.25137,53.82066 44.01744,107.83545 66.26881,161.68037 1.57725,3.68835 2.66919,7.76493 1.60152,11.79299 -7.0855,35.40322 -14.36512,70.78218 -21.45062,106.20967 2.45081,2.37801 4.87735,4.78028 7.32815,7.15829 17.81081,-8.22597 35.57308,-16.549 53.38389,-24.77497 1.60152,3.76113 3.17877,7.54654 4.75602,11.33194 -19.63071,9.17232 -39.30995,18.27185 -58.96493,27.44417 -38.12095,-91.06806 -76.29043,-182.13611 -114.31431,-273.2527 13.87981,-7.86199 29.36113,-12.25403 43.55639,-19.48512 z"
     id="path16"
     style="fill:#f5e5c1" />
  <path
     d="m 941.13365,342.04512 c 14.77763,-7.66787 28.41479,-17.64095 44.04171,-23.53744 4.87734,-0.0971 13.12758,0.82502 13.54009,7.0855 1.31035,8.39582 -4.00379,17.32549 -11.67166,20.79545 -14.92322,7.98331 -32.17592,1.91696 -47.63298,-1.01915 0.43677,-0.82503 1.28606,-2.49934 1.72284,-3.32436 z"
     id="path18"
     style="fill:#f5e5c1" />
  <path
     d="m 340.63773,347.99014 c 19.53364,-8.8326 39.94085,-15.60265 59.37744,-24.67791 -7.57081,38.80038 -15.72399,77.50369 -23.36759,116.32834 -11.25914,-26.9346 -22.56682,-53.82066 -33.97156,-80.68247 -1.28607,-3.49421 -3.27583,-7.15829 -2.03829,-10.96796 z"
     id="path20"
     style="fill:#f5e5c1" />
  <path
     style="fill:#f5e5c1"
     d="M 289.125 406.71875 C 269.65201 411.99647 252.21196 422.97046 232.375 427.15625 C 221.21291 444.99133 216.86449 468.04742 198.96875 480.96875 C 181.19435 494.92136 157.03921 496.49277 135.625 492.125 C 119.03353 486.57429 104.11537 476.78782 87.28125 471.84375 C 72.57035 469.78119 65.690462 485.36001 58.5625 495.1875 C 75.457286 513.17422 96.108916 527.29081 112.09375 546.1875 C 126.22835 564.53821 125.93489 589.61795 120.6875 611.0625 C 92.054325 680.1279 63.723253 749.30776 34.96875 818.3125 C 36.394343 840.03004 42.559507 860.79539 50.71875 880.875 C 61.061877 899.25605 77.448015 913.57506 95.34375 924.3125 C 121.76271 934.5343 151.6426 935.97997 179.0625 929.125 C 197.17056 920.84443 212.90586 908.21366 226.3125 893.59375 C 235.89734 883.1293 238.71676 868.8625 243.8125 856.0625 C 249.51486 844.50611 246.72056 831.3441 247.8125 818.96875 C 251.058 782.6313 249.13043 746.02586 252.40625 709.71875 C 253.25554 680.47894 251.25605 649.68642 264.875 622.8125 C 270.33472 614.5016 278.77184 608.63895 286.71875 602.90625 C 292.93676 598.93279 302.34541 595.36289 308.59375 601.15625 C 330.0383 619.38564 351.66392 637.47647 372.5625 656.3125 C 378.65919 653.03666 384.71581 649.74458 390.8125 646.46875 C 356.93192 566.54458 322.97524 486.67325 289.125 406.71875 z M 235.53125 498.03125 C 236.19473 498.02155 236.86788 498.01796 237.53125 498.03125 C 249.20653 498.26511 260.79339 502.00347 269.96875 509.34375 C 284.01235 519.74755 290.5994 539.25687 285.625 556 C 281.46955 570.25593 270.18964 580.6477 259.9375 590.6875 C 242.61808 604.39746 220.95839 617.63892 197.90625 612.9375 C 163.14606 609.66167 144.73478 563.79403 162.8125 535.3125 C 174.12625 513.17033 200.45802 507.73092 221.78125 499.875 C 226.25992 498.72215 230.88688 498.09912 235.53125 498.03125 z M 177.6875 637.90625 C 191.03697 637.56857 203.43113 645.56554 213.15625 654.34375 C 223.62071 669.41863 229.40444 688.36987 228.3125 706.78125 C 224.79401 747.09215 227.66566 787.98875 219.71875 827.875 C 216.44291 840.31102 211.52221 852.25886 206.0625 863.90625 C 192.53454 892.53942 158.67736 910.54064 127.375 903.625 C 108.84229 899.1359 89.926687 888.4123 82.34375 870.03125 C 79.431901 861.32605 77.597452 852.2236 76.6875 843.09375 C 74.988922 829.65678 81.816024 817.23471 87.09375 805.375 C 93.736404 796.63945 103.43267 790.87336 111.53125 783.59375 C 112.25921 766.91127 106.31318 749.09051 114.59375 733.5 C 120.41745 717.51516 141.23146 714.10341 146.8125 697.90625 C 144.41629 687.77545 140.44761 677.71354 140.78125 667.21875 C 145.90732 654.02444 157.08417 643.97441 170.1875 639 C 172.71357 638.31754 175.21538 637.96878 177.6875 637.90625 z "
     transform="scale(0.8,0.8)"
     id="path22" />
  <path
     d="m 524.1327,478.02844 c 6.11488,-27.90522 12.05991,-55.8347 18.27185,-83.69138 59.76569,8.3473 119.50711,16.71886 179.29706,24.99337 6.91564,1.21327 14.92322,0.6309 20.16455,6.21194 -10.1672,-0.87355 -20.84398,-4.53763 -30.16189,1.67431 0.97061,3.20304 1.94123,6.40607 2.93611,9.63337 -9.36645,-0.50958 -19.1454,-1.8927 -28.00228,2.08682 1.23754,3.73687 2.42654,7.47375 3.63981,11.21062 -6.8671,-0.48531 -13.73421,-1.16474 -20.48,-2.62067 -12.47241,5.58105 -24.75071,11.62313 -37.12606,17.42256 1.94123,-9.90028 3.76114,-19.82483 5.55678,-29.74938 -4.41631,-0.97062 -9.17233,-2.62066 -13.22465,0.38825 -25.50294,13.29744 -51.03014,26.57061 -76.50881,39.94085 -7.40095,4.22218 -16.25782,2.06256 -24.36247,2.49934 z"
     id="path24"
     style="fill:#f5e5c1" />
  <path
     d="m 920.16834,400.93725 c 18.32038,3.44569 36.85915,5.50825 55.47071,6.28474 10.70104,3.25156 23.27052,6.50313 30.04055,16.08796 4.0038,10.84664 -10.21571,14.171 -17.81078,16.52474 -19.16967,2.79052 -33.97157,-12.78787 -49.08891,-22.00872 -6.28474,-5.36265 -16.79166,-7.83772 -18.61157,-16.88872 z"
     id="path28"
     style="fill:#f5e5c1" />
  <path
     d="m 884.25555,449.07981 c 9.85175,7.66787 21.18369,13.34597 30.50161,21.69327 5.50824,7.40095 -0.67943,18.49024 -9.7547,18.07773 -14.85042,-6.38181 -22.63962,-24.24114 -20.74691,-39.771 z"
     id="path30"
     style="fill:#f5e5c1" />
  <path
     d="m 697.89725,471.42825 c 5.62957,-2.0383 11.62313,-2.5964 17.56815,-2.76626 -2.18388,4.68322 -4.4163,10.02161 -9.68189,11.96284 -7.95906,1.72285 -16.96152,-0.31545 -24.11981,4.29498 -8.44436,5.7509 -17.15564,11.59886 -22.93081,20.21308 50.39924,3.8582 100.94408,13.05479 147.75204,32.6855 37.68417,15.74825 72.91753,39.72246 96.96455,73.18445 28.48758,39.67394 39.79526,90.31583 35.1363,138.57972 -3.8582,41.76076 -23.73156,81.70161 -54.86407,109.82521 -44.16304,40.52323 -104.21991,58.86787 -162.84512,64.47318 -68.76815,6.89137 -137.46351,-6.55166 -203.63526,-24.21687 -31.54503,-8.00759 -62.31356,-18.87849 -92.47545,-31.03545 -39.30996,-18.92702 -77.94048,-39.28569 -117.22616,-58.30977 -0.7037,-6.35753 1.84417,-12.22976 4.44056,-17.83507 17.25271,-39.57687 33.72891,-79.51772 51.10294,-119.04607 0.82503,-4.10085 5.72664,-4.24644 8.3473,-1.7471 18.00493,12.78786 35.40322,26.40075 53.84493,38.55772 54.3545,39.01877 119.60417,61.82825 186.06711,67.87033 31.49649,2.01403 65.17687,-1.14047 92.11147,-18.99981 18.53877,-11.98711 31.71488,-33.00095 31.4237,-55.39791 0.97061,-17.37403 -6.5274,-34.38408 -18.39318,-46.80796 -15.23867,-16.25782 -36.10692,-25.6728 -56.92664,-32.53991 -55.03393,-16.71886 -113.53782,-16.71886 -170.39165,-11.93858 0.33971,-6.45459 0.70369,-12.86066 1.1162,-19.29099 15.06882,-4.70749 30.0891,-9.53631 45.03659,-14.60777 -13.9526,-6.33328 -28.80303,-10.21574 -43.14388,-15.48133 18.27184,-1.9655 36.64075,-3.00891 54.9126,-5.07147 -5.38692,-2.91185 -10.7981,-5.72664 -16.23355,-8.49289 11.67166,-10.65251 21.54768,-24.77498 37.22313,-29.65233 43.28947,-16.11222 85.82673,-34.26274 129.8199,-48.40947 z"
     id="path32"
     style="fill:#f4722b" />
  <path
     d="m 494.55318,519.30389 c 16.01516,-5.24133 31.73914,-11.30768 47.80284,-16.37915 -2.5964,6.3818 -6.06635,12.35109 -10.02161,17.98066 -5.48398,-1.35886 -10.96796,-2.69346 -16.45195,-3.97952 -3.93099,7.30388 -7.98331,14.55924 -12.0599,21.79033 -1.84417,-3.25156 -3.68834,-6.50313 -5.50825,-9.73043 -7.27962,5.65384 -14.55924,11.28341 -21.81459,16.96152 -1.67432,-2.69346 -3.34863,-5.38692 -4.99868,-8.05612 -16.64606,7.52228 -33.2436,15.11735 -49.88967,22.63963 0.7037,-7.06124 1.38313,-14.68057 -4.80455,-19.53365 10.19147,-1.67432 20.35868,-3.59128 30.52588,-5.48398 -2.03829,-6.47887 -4.78028,-12.71508 -7.83772,-18.78143 13.66142,1.18901 27.32284,2.23242 40.98426,3.44569 4.70749,0.33972 9.58484,0.92209 14.07394,-0.87355 z"
     id="path34"
     style="fill:#f5e5c1" />
  <path
     d="m 391.32815,607.19318 c 4.99867,-17.42256 27.54123,-21.42635 43.04683,-18.12626 -7.88626,7.81346 -16.74313,15.02028 -26.95887,19.48512 -5.28985,2.37801 -10.8709,-0.19413 -16.08796,-1.35886 z"
     id="path38"
     style="fill:#f5e5c1" />
  <path
     d="m 420.88341,652.03564 c -3.88246,-21.1109 11.35621,-38.75185 26.61915,-51.00588 0.80076,13.24891 -0.72796,26.49782 0.0728,39.771 0.77649,7.44948 -4.6347,14.46218 -11.08929,17.59242 -6.13915,2.13535 -11.0165,-3.2273 -15.60266,-6.35754 z"
     id="path40"
     style="fill:#f5e5c1" />
</svg>
