<?xml version="1.0" encoding="UTF-8" ?>
<!DOCTYPE svg PUBLIC "-//W3C//DTD SVG 1.1//EN" "http://www.w3.org/Graphics/SVG/1.1/DTD/svg11.dtd">
<svg width="422pt" height="422pt" viewBox="0 0 422 422" version="1.1" xmlns="http://www.w3.org/2000/svg">
<path fill="#3e3e3e" opacity="1.00" d=" M 0.00 0.00 L 422.00 0.00 L 422.00 422.00 L 0.00 422.00 L 0.00 0.00 Z" />
<path fill="#f4722b" opacity="1.00" d=" M 54.51 27.66 C 59.36 23.52 69.17 27.28 67.82 34.25 C 69.83 37.96 66.64 41.21 66.37 44.73 C 70.89 50.79 79.10 52.47 84.70 57.34 C 86.59 60.33 87.40 63.86 88.98 67.02 C 93.62 76.66 99.54 85.69 103.52 95.66 C 105.94 100.05 108.10 104.64 109.26 109.54 C 110.50 118.46 111.67 127.60 110.31 136.58 C 106.35 137.59 102.01 138.43 98.61 135.53 C 102.12 134.98 105.54 133.97 108.78 132.50 C 108.59 129.81 108.56 127.04 107.60 124.49 C 104.74 123.68 101.74 123.67 98.80 123.46 C 98.95 122.59 99.26 120.84 99.41 119.97 C 94.76 117.31 93.67 111.89 91.70 107.35 C 89.39 101.61 86.43 96.10 85.04 90.03 C 84.23 85.94 81.79 82.47 79.27 79.25 C 77.39 84.38 81.58 89.19 79.73 94.29 C 81.52 94.63 83.31 94.96 85.10 95.29 C 85.94 101.50 86.93 107.75 86.84 114.04 C 86.86 115.48 85.21 116.12 84.47 117.17 C 87.41 133.79 90.86 150.32 93.92 166.92 C 94.63 171.28 97.47 174.83 98.86 178.94 C 94.56 184.04 88.01 186.50 81.88 188.63 C 82.63 186.09 83.40 183.58 84.20 181.06 C 81.76 180.85 79.32 180.62 76.89 180.38 C 75.92 184.66 74.71 188.91 74.25 193.28 C 74.17 196.50 74.84 199.73 74.18 202.93 C 75.36 205.07 76.61 207.17 77.86 209.27 C 78.44 209.41 79.59 209.69 80.17 209.83 C 80.54 211.20 80.90 212.56 81.27 213.94 C 75.26 214.40 69.25 213.86 63.46 212.16 C 63.94 208.79 64.64 205.42 64.38 202.00 C 63.92 198.18 66.08 194.76 66.40 191.03 C 66.73 187.14 66.14 183.24 65.15 179.48 C 63.49 179.28 61.82 179.08 60.16 178.88 C 59.64 170.94 59.54 162.98 59.26 155.03 C 58.56 162.75 57.75 170.47 57.57 178.22 C 53.10 179.73 53.33 185.14 53.30 188.99 C 52.96 193.50 55.92 197.46 55.52 201.96 C 55.37 205.51 55.80 209.05 56.02 212.59 C 50.23 214.03 44.27 214.21 38.34 214.01 C 38.64 212.81 38.95 211.62 39.26 210.42 C 42.89 208.18 45.75 204.14 44.76 199.70 C 45.97 193.00 43.70 186.49 42.12 180.05 C 40.03 180.50 37.94 180.91 35.84 181.30 C 36.67 183.82 37.47 186.35 38.22 188.90 C 31.56 187.58 25.92 183.70 20.57 179.74 C 22.47 174.87 25.31 170.32 26.00 165.05 C 28.92 148.28 32.44 131.62 35.78 114.93 C 36.52 110.75 38.25 106.86 39.85 102.96 C 39.28 100.06 39.25 97.10 39.55 94.16 C 38.28 89.63 42.37 85.46 40.14 81.00 C 35.41 86.55 34.48 93.91 31.46 100.32 C 29.19 105.71 27.23 111.26 24.60 116.50 C 23.75 118.41 21.86 119.46 20.25 120.66 C 19.78 125.31 20.50 129.93 20.66 134.56 C 20.43 134.83 19.99 135.35 19.76 135.62 C 18.81 135.03 16.90 133.87 15.95 133.29 C 16.53 134.85 17.70 137.96 18.28 139.52 C 13.00 138.51 9.37 134.07 8.06 129.06 C 8.01 123.68 9.79 118.38 8.75 112.98 C 11.19 105.71 14.75 98.86 17.80 91.83 C 22.00 83.24 27.34 75.25 31.25 66.51 C 32.62 63.49 33.43 60.18 35.37 57.46 C 40.43 52.14 49.30 51.49 53.16 44.95 C 52.96 41.29 50.53 37.87 51.73 34.12 C 51.97 31.74 52.27 29.05 54.51 27.66 Z" />
<path fill="#f5e5c1" opacity="1.00" d=" M 295.39 53.44 C 298.07 53.11 300.75 52.73 303.43 52.33 C 303.83 53.24 304.24 54.15 304.65 55.05 C 306.14 57.13 307.34 59.39 308.45 61.69 C 307.93 62.05 306.91 62.76 306.40 63.12 C 306.62 65.56 306.39 68.00 305.51 70.31 C 306.35 71.95 307.14 73.61 307.93 75.28 C 309.00 73.01 310.03 70.72 311.01 68.41 C 313.21 69.61 315.42 70.81 317.63 71.99 C 317.03 74.86 314.68 78.39 318.16 80.30 C 318.08 85.78 322.22 89.95 324.17 94.80 C 325.19 97.90 327.88 99.69 330.63 101.13 C 330.35 102.29 330.08 103.46 329.82 104.63 C 332.13 107.79 332.50 111.77 333.90 115.34 C 336.60 111.64 338.52 107.43 340.00 103.11 C 342.77 99.93 344.90 96.26 346.57 92.40 C 347.82 89.84 348.67 86.80 351.31 85.30 C 355.11 82.76 358.87 80.15 362.72 77.69 C 362.34 76.02 361.86 74.39 361.48 72.73 C 362.74 72.55 364.04 72.39 365.33 72.24 C 363.05 67.32 366.77 60.39 372.56 61.12 C 373.95 62.74 375.59 64.22 376.59 66.14 C 377.41 69.63 375.27 73.50 377.00 76.77 C 381.59 80.49 387.40 82.84 391.23 87.47 C 393.82 92.32 395.95 97.43 398.96 102.05 C 401.11 105.17 402.37 108.77 403.87 112.23 C 404.23 112.59 404.95 113.31 405.31 113.67 C 406.74 119.04 408.57 124.33 409.32 129.86 C 409.78 134.86 412.77 139.04 414.16 143.77 C 412.47 146.52 410.80 149.30 409.00 151.98 C 407.49 154.24 404.76 155.13 402.56 156.51 C 402.14 155.36 401.73 154.22 401.33 153.07 C 402.60 151.91 403.88 150.74 405.15 149.58 C 404.28 149.46 402.53 149.24 401.65 149.12 C 402.81 147.42 404.19 145.87 405.82 144.60 C 405.77 144.03 405.66 142.87 405.61 142.30 C 404.76 142.43 403.92 142.56 403.08 142.70 C 401.72 145.39 401.21 149.82 397.38 149.78 C 396.59 145.03 397.57 140.34 399.45 135.96 C 397.31 131.31 395.01 126.73 392.84 122.10 C 390.52 117.27 391.48 111.44 388.40 106.91 C 388.15 109.55 387.75 112.31 388.66 114.88 C 390.25 119.01 389.28 123.52 389.67 127.83 C 391.87 137.78 392.95 147.96 394.31 158.05 C 395.11 161.91 392.21 165.20 392.19 168.95 C 392.88 171.36 394.15 173.55 395.17 175.82 C 393.99 177.19 392.83 178.58 391.69 179.99 C 391.73 181.93 391.27 183.78 389.99 185.28 C 389.40 188.92 388.66 192.53 388.07 196.16 C 387.08 196.74 386.09 197.31 385.10 197.88 C 385.39 201.41 385.86 204.92 386.51 208.40 C 387.69 208.87 388.88 209.35 390.07 209.83 C 390.37 211.47 390.68 213.11 390.99 214.76 C 387.59 214.78 384.18 214.77 380.80 214.45 C 380.68 213.89 380.45 212.77 380.34 212.21 C 379.86 211.78 378.91 210.92 378.43 210.49 C 377.73 206.04 379.93 201.66 379.66 197.18 C 379.10 196.17 378.24 195.37 377.51 194.50 C 377.37 191.32 377.28 188.15 377.20 184.97 C 375.68 183.81 374.16 182.66 372.66 181.48 C 373.58 177.00 374.86 172.50 374.71 167.89 C 373.93 163.35 372.20 159.04 370.97 154.60 C 368.98 159.48 366.65 164.58 367.20 169.99 C 367.52 174.09 368.23 178.14 368.74 182.23 C 367.34 183.41 365.95 184.60 364.56 185.79 C 364.43 188.63 364.30 191.47 364.23 194.31 C 363.54 195.19 362.85 196.08 362.17 196.96 C 362.56 201.01 363.60 204.97 363.80 209.04 C 364.21 210.63 362.61 211.34 361.67 212.22 C 361.56 212.79 361.34 213.91 361.23 214.47 C 357.77 214.78 354.30 214.77 350.83 214.74 C 351.33 213.00 351.83 211.28 352.35 209.55 C 353.39 209.20 354.43 208.84 355.48 208.49 C 356.08 205.13 356.58 201.75 356.97 198.36 C 356.46 198.04 355.44 197.40 354.93 197.07 C 352.84 192.41 353.05 186.67 349.62 182.71 C 349.69 182.02 349.84 180.64 349.92 179.95 C 348.74 178.56 347.55 177.18 346.36 175.81 C 347.42 173.27 348.97 170.88 349.57 168.17 C 349.00 165.72 347.66 163.51 347.31 161.01 C 347.00 156.26 348.32 151.63 348.61 146.92 C 348.07 146.39 346.98 145.33 346.44 144.80 C 346.91 140.56 348.23 136.39 347.93 132.10 C 347.56 129.23 348.75 126.50 349.55 123.81 C 350.05 123.46 351.04 122.75 351.53 122.40 C 351.30 121.61 350.84 120.02 350.60 119.23 C 351.75 114.82 352.35 110.28 353.45 105.85 C 349.75 109.67 348.95 115.05 348.03 120.06 C 347.36 124.60 344.18 128.19 342.66 132.44 C 341.44 138.18 342.40 144.00 342.41 149.79 C 339.16 151.15 338.11 154.62 336.83 157.58 C 334.37 156.11 331.25 155.22 329.76 152.58 C 328.31 150.02 326.70 147.54 325.47 144.87 C 326.72 139.42 330.05 134.59 330.51 128.92 C 330.98 126.34 329.16 124.18 327.75 122.25 C 325.59 119.61 325.11 116.13 324.10 112.98 C 323.56 113.33 322.48 114.04 321.94 114.39 C 322.24 111.48 320.09 109.58 318.21 107.77 C 318.50 112.86 319.74 117.86 319.83 122.97 C 318.94 125.41 316.72 127.09 315.20 129.14 C 316.66 129.56 318.12 129.97 319.59 130.40 C 319.69 132.81 319.94 135.24 320.70 137.55 C 320.43 139.00 320.21 140.46 319.80 141.88 C 318.83 142.52 317.77 142.99 316.75 143.52 C 317.03 151.70 317.41 159.87 317.65 168.04 C 317.89 170.45 316.48 172.58 316.33 174.94 C 316.24 182.74 318.19 190.36 319.23 198.05 C 319.54 200.92 317.21 204.01 319.27 206.64 C 320.92 210.47 324.60 212.50 327.88 214.73 C 324.34 215.00 320.78 214.99 317.24 214.89 C 315.23 212.92 312.98 211.17 310.26 210.32 C 310.59 206.51 308.36 203.44 306.93 200.13 C 306.72 192.03 308.00 183.88 307.14 175.79 C 306.28 172.53 307.78 169.24 307.15 165.96 C 305.82 156.87 305.39 147.32 300.59 139.22 C 299.58 139.36 298.58 139.50 297.58 139.65 C 294.75 146.10 293.56 153.05 292.90 160.02 C 292.63 164.38 291.01 168.89 292.65 173.16 C 290.28 181.96 293.04 191.12 292.17 200.07 C 290.84 203.40 289.39 206.70 288.95 210.30 C 286.23 211.19 283.94 212.92 281.91 214.89 C 278.25 214.99 274.52 215.23 270.95 214.26 C 273.17 212.38 275.93 211.16 277.99 209.10 C 279.49 206.69 281.10 204.01 280.88 201.06 C 280.34 192.32 282.69 183.74 282.71 175.01 C 282.71 172.62 281.54 170.41 281.56 168.02 C 281.63 159.84 282.13 151.67 282.35 143.49 C 281.11 143.24 279.88 142.99 278.65 142.74 C 278.39 140.68 278.07 138.63 277.63 136.61 C 277.89 134.69 278.14 132.77 278.38 130.86 C 280.01 130.56 281.64 130.26 283.27 129.96 C 282.43 127.21 280.24 125.33 278.16 123.51 C 278.81 118.29 279.76 113.10 280.18 107.84 C 277.65 109.64 276.04 112.19 276.53 115.39 C 273.43 114.57 273.71 118.65 272.33 120.38 C 269.93 123.71 266.52 126.48 265.81 130.77 C 267.87 136.27 269.49 142.25 268.13 148.13 C 265.24 149.79 262.83 152.13 260.83 154.77 C 260.20 151.53 258.23 148.89 255.33 147.33 C 255.74 141.91 256.66 136.52 256.61 131.07 C 255.30 126.09 250.39 123.08 249.23 118.07 C 248.88 116.38 247.80 115.02 246.80 113.66 C 246.68 112.90 246.43 111.36 246.30 110.59 C 245.21 111.78 244.13 112.98 243.03 114.16 C 243.21 114.84 243.57 116.19 243.75 116.86 C 242.66 119.38 241.36 121.80 239.86 124.10 C 241.43 124.40 243.01 124.70 244.59 125.01 C 244.59 128.24 244.47 131.46 244.39 134.69 C 242.92 134.68 241.45 134.67 239.98 134.67 C 240.49 140.80 242.42 146.72 242.65 152.89 C 243.12 157.32 242.28 161.93 243.76 166.23 C 245.04 170.12 246.54 173.92 247.88 177.79 C 246.21 179.10 244.56 180.43 242.92 181.78 C 242.42 186.04 241.62 190.26 241.16 194.53 C 241.62 194.83 242.54 195.42 243.00 195.72 C 241.78 199.26 241.24 202.99 242.78 206.54 C 244.01 206.84 245.31 207.00 246.45 207.61 C 246.96 209.46 246.88 211.39 246.98 213.29 C 243.87 213.38 240.77 213.40 237.67 213.28 C 236.06 212.75 234.40 212.32 232.76 211.91 C 232.98 206.57 234.53 201.41 234.54 196.06 C 234.81 195.54 235.34 194.51 235.61 193.99 C 235.37 189.99 234.21 186.14 233.63 182.20 C 232.58 181.16 231.52 180.12 230.46 179.09 C 231.03 175.31 231.53 171.52 232.18 167.75 C 231.77 167.38 230.95 166.63 230.54 166.25 C 230.16 160.81 229.83 155.30 228.08 150.09 C 225.46 150.09 222.84 150.10 220.23 150.13 C 217.69 155.86 219.52 162.66 216.34 168.06 C 216.75 171.73 217.33 175.38 217.87 179.04 C 216.80 180.13 215.73 181.22 214.66 182.32 C 214.09 186.24 213.07 190.09 212.61 194.03 C 213.02 194.42 213.86 195.19 214.28 195.57 C 214.04 201.12 215.36 206.55 215.55 212.07 C 210.85 213.46 205.96 213.52 201.11 213.17 C 201.32 211.39 201.38 209.57 201.87 207.83 C 202.69 206.81 204.23 207.01 205.36 206.52 C 205.86 205.23 206.38 203.95 206.90 202.67 C 206.48 200.47 206.03 198.28 205.52 196.11 C 205.89 195.58 206.62 194.52 206.99 193.99 C 206.89 189.82 205.86 185.74 205.31 181.62 C 203.69 180.35 202.06 179.08 200.43 177.83 C 202.23 171.58 205.71 165.65 205.51 158.98 C 205.88 153.62 206.75 148.32 207.33 142.99 C 205.33 142.56 203.33 142.10 201.35 141.59 C 201.80 138.02 203.65 134.23 202.04 130.71 C 202.55 129.22 203.09 127.74 203.64 126.27 C 205.15 125.97 206.66 125.67 208.18 125.37 C 206.95 122.01 203.86 119.11 204.40 115.31 C 204.77 113.49 204.16 111.76 203.34 110.17 C 202.55 112.40 201.70 114.63 200.23 116.51 C 199.69 118.40 199.39 120.46 198.08 122.01 C 195.18 125.68 192.44 129.60 190.83 134.02 C 190.35 135.49 191.61 136.76 192.02 138.09 C 193.52 141.30 193.47 144.93 193.57 148.39 C 192.75 148.24 191.11 147.93 190.28 147.78 C 189.65 148.58 189.01 149.39 188.38 150.20 C 188.50 151.76 188.58 153.33 188.63 154.91 C 185.78 152.63 183.41 149.82 181.70 146.61 C 181.14 146.57 180.04 146.50 179.49 146.46 C 179.23 142.29 178.74 138.09 179.31 133.92 C 175.72 128.95 171.27 124.11 170.38 117.79 C 169.99 113.74 167.14 110.67 164.80 107.58 C 163.96 110.00 163.21 112.46 162.52 114.93 C 162.89 116.38 164.13 117.87 163.35 119.39 C 161.41 124.74 161.96 130.76 163.93 136.02 C 165.61 140.83 166.62 145.83 167.50 150.83 C 166.26 151.43 165.02 152.04 163.78 152.65 C 163.92 159.11 162.54 165.47 162.30 171.89 C 164.30 175.72 165.65 179.81 165.96 184.15 C 164.57 185.29 163.17 186.42 161.77 187.55 C 161.15 189.96 160.42 192.34 159.83 194.77 C 158.87 198.07 159.79 201.52 159.28 204.89 C 161.38 207.61 164.06 209.82 166.16 212.55 C 160.83 213.00 155.47 212.73 150.29 211.34 C 151.22 207.01 150.72 202.45 152.24 198.25 C 153.66 193.45 152.96 188.04 149.66 184.17 C 150.25 180.79 151.41 177.44 151.34 173.99 C 150.25 168.55 148.94 163.15 147.60 157.76 C 145.88 157.78 144.16 157.79 142.45 157.80 C 141.18 163.21 139.73 168.58 138.63 174.03 C 138.57 177.37 139.78 180.60 140.34 183.88 C 137.30 187.72 135.80 193.04 137.48 197.78 C 139.29 202.10 138.42 206.86 139.64 211.33 C 134.51 212.73 129.18 212.98 123.90 212.60 C 125.82 208.85 131.72 206.87 130.40 201.92 C 131.29 196.92 129.33 192.14 127.97 187.43 C 126.79 186.46 125.55 185.54 124.49 184.42 C 123.66 179.72 126.24 175.53 127.77 171.31 C 127.22 165.14 126.13 159.01 126.21 152.78 C 124.84 152.03 123.47 151.29 122.10 150.56 C 122.78 144.09 124.70 137.85 126.83 131.73 C 128.00 128.60 127.70 125.20 127.94 121.93 C 127.56 121.51 126.80 120.68 126.43 120.26 C 128.69 116.09 126.37 111.87 125.00 107.87 C 122.65 110.59 119.73 113.20 119.03 116.90 C 117.86 121.86 115.68 126.56 112.65 130.66 C 111.14 132.58 110.83 135.06 110.22 137.35 L 110.31 136.58 C 111.67 127.60 110.50 118.46 109.26 109.54 C 113.64 103.91 117.60 97.96 120.37 91.36 C 124.67 87.61 128.84 82.83 134.70 81.65 C 134.65 81.10 134.57 80.00 134.53 79.44 C 137.97 77.04 135.80 72.46 136.37 69.02 C 137.20 65.65 139.47 62.25 143.05 61.42 C 146.70 60.44 150.05 63.14 151.96 65.99 C 153.30 68.77 153.90 71.88 154.40 74.91 C 153.85 75.24 152.76 75.91 152.21 76.24 C 154.44 77.19 156.63 78.23 158.81 79.29 C 157.93 80.16 157.05 81.03 156.18 81.90 C 161.64 83.32 165.75 87.37 169.34 91.48 C 171.81 96.56 174.26 101.72 177.94 106.06 C 182.09 111.11 184.18 117.33 186.17 123.45 C 187.28 119.42 188.66 115.43 191.25 112.09 C 191.00 111.37 190.50 109.94 190.26 109.22 C 195.73 104.12 196.45 96.08 200.94 90.30 C 200.52 88.03 200.11 85.77 199.74 83.50 C 203.78 81.18 207.77 78.53 212.54 78.08 C 212.77 75.23 215.10 73.55 216.83 71.57 C 217.62 68.75 217.32 65.48 219.09 63.02 C 221.71 60.66 226.23 60.76 228.85 63.07 C 230.66 65.48 230.50 68.72 231.57 71.42 C 232.70 72.72 233.99 73.86 235.22 75.06 C 235.22 75.86 235.22 77.47 235.23 78.27 C 238.60 78.81 242.88 78.31 245.12 81.45 C 246.16 81.99 247.21 82.51 248.27 83.03 C 248.00 85.03 247.62 87.02 247.58 89.04 C 248.65 91.66 250.12 94.11 251.24 96.71 C 253.29 101.04 254.66 105.90 258.29 109.25 C 258.07 109.99 257.64 111.45 257.42 112.19 C 259.50 114.96 260.95 118.11 261.91 121.43 C 263.52 117.95 264.96 114.39 266.49 110.88 C 265.97 109.94 265.45 109.00 264.93 108.06 C 266.53 106.67 268.12 105.27 269.73 103.88 C 269.34 102.44 268.94 101.01 268.53 99.58 C 274.01 96.61 276.66 90.86 279.76 85.78 C 281.00 83.93 280.78 81.63 280.95 79.53 C 284.39 77.62 287.89 75.75 291.74 74.83 C 291.86 74.18 292.10 72.86 292.22 72.21 C 292.62 71.83 293.40 71.07 293.80 70.69 C 292.90 68.55 292.31 66.32 292.16 64.00 C 290.36 63.30 288.57 62.57 286.80 61.83 C 289.11 60.78 291.55 59.97 293.75 58.68 C 294.51 57.01 294.88 55.20 295.39 53.44 Z" />
<path fill="#f5e5c1" opacity="1.00" d=" M 98.80 123.46 C 101.74 123.67 104.74 123.68 107.60 124.49 C 108.56 127.04 108.59 129.81 108.78 132.50 C 105.54 133.97 102.12 134.98 98.61 135.53 C 98.42 131.64 97.10 127.21 99.41 123.71 L 98.80 123.46 Z" />
<path fill="#3e3e3e" opacity="1.00" d=" M 14.36 128.47 C 15.69 127.52 17.17 129.81 16.00 130.78 C 14.69 131.69 13.18 129.43 14.36 128.47 Z" />
<path fill="#f4722b" opacity="1.00" d=" M 52.33 236.41 C 51.03 232.06 55.00 228.73 58.92 228.06 C 61.80 228.04 64.88 228.95 66.71 231.31 C 68.81 233.16 66.25 236.48 68.66 238.34 C 68.33 240.66 67.44 242.84 66.03 244.71 C 66.31 246.29 66.60 248.00 68.06 248.96 C 72.84 252.66 78.45 255.09 83.43 258.51 C 85.45 259.71 85.93 262.16 86.82 264.16 C 90.80 275.09 97.94 284.48 102.36 295.21 C 104.14 299.69 106.99 303.67 108.37 308.32 C 109.53 317.47 111.35 327.00 108.83 336.07 C 108.76 336.16 108.62 336.34 108.56 336.43 C 106.57 338.68 103.89 340.20 100.91 340.64 L 102.30 338.93 C 104.73 337.31 109.48 336.65 108.88 332.86 C 107.43 329.70 103.67 327.83 100.22 328.39 C 99.39 325.83 99.06 322.95 97.15 320.91 C 93.83 317.07 92.59 312.04 90.67 307.46 C 88.85 302.28 86.18 297.40 84.99 292.02 C 84.19 287.99 81.76 284.58 79.24 281.44 C 78.18 285.34 79.24 289.23 80.65 292.88 C 80.34 293.72 79.72 295.38 79.41 296.21 C 81.32 296.68 83.27 297.02 85.09 297.78 C 86.30 304.29 86.76 310.93 87.02 317.54 C 86.37 317.89 85.08 318.57 84.43 318.91 C 87.76 335.90 91.00 352.91 94.22 369.93 C 95.23 373.98 97.57 377.52 99.47 381.19 C 94.54 386.03 88.31 389.19 81.76 391.19 C 82.42 388.53 83.21 385.90 84.04 383.29 C 81.72 383.12 79.41 382.95 77.09 382.78 C 76.11 386.62 75.11 390.48 74.53 394.41 C 73.95 397.92 75.26 401.48 74.28 404.96 C 75.41 407.02 76.62 409.04 77.91 411.01 C 80.05 411.88 81.13 413.74 81.62 415.92 C 75.53 416.26 69.44 415.96 63.43 414.89 C 64.06 410.09 63.91 405.23 64.42 400.45 C 66.67 394.51 66.86 387.91 65.00 381.83 C 63.16 381.59 61.33 381.36 59.50 381.12 C 59.36 375.32 59.78 369.50 59.00 363.73 C 58.08 369.42 57.86 375.18 57.82 380.93 C 57.12 381.08 55.71 381.36 55.00 381.50 C 53.70 384.84 53.05 388.40 53.32 391.98 C 53.23 396.13 55.86 399.80 55.52 403.98 C 55.37 407.62 55.79 411.25 56.08 414.88 C 50.16 416.23 44.07 416.08 38.05 415.99 C 38.46 414.81 38.88 413.63 39.30 412.46 C 42.02 410.64 43.73 407.84 45.24 405.02 C 44.09 402.06 45.11 399.02 45.16 396.00 C 44.60 391.31 43.21 386.76 42.07 382.19 C 40.05 382.65 38.01 383.06 35.98 383.49 C 36.71 386.05 37.43 388.61 38.01 391.22 C 31.67 389.37 25.53 386.43 20.67 381.89 C 21.78 377.30 25.05 373.52 25.71 368.77 C 28.78 351.12 32.47 333.58 35.95 316.01 C 36.70 312.22 38.37 308.72 39.82 305.17 C 39.09 302.09 38.89 298.86 39.88 295.81 C 39.60 294.93 39.33 294.06 39.05 293.18 C 40.36 289.79 41.92 286.02 39.85 282.58 C 35.33 288.37 34.19 295.70 31.31 302.28 C 29.14 308.35 26.91 314.40 24.32 320.31 C 22.86 321.23 21.40 322.17 19.94 323.10 C 20.11 323.50 20.46 324.29 20.63 324.68 C 19.62 328.12 20.46 331.59 21.09 335.00 C 21.55 336.47 19.95 337.40 19.37 338.59 C 18.23 337.50 17.10 336.41 15.98 335.32 C 17.10 337.52 17.95 339.86 18.17 342.34 C 12.98 340.73 9.25 336.28 8.05 331.06 C 7.87 327.13 8.85 323.27 9.69 319.46 C 9.23 317.84 8.78 316.21 8.34 314.59 C 11.46 309.66 12.78 303.89 15.76 298.88 C 20.55 286.56 29.03 276.09 33.57 263.66 C 34.26 262.06 34.83 260.32 36.11 259.09 C 41.55 254.38 49.24 252.85 53.88 247.13 C 53.22 243.60 50.51 239.96 52.33 236.41 Z" />
<path fill="#f5e5c1" opacity="1.00" d=" M 211.77 248.06 C 213.32 243.71 216.25 239.57 220.99 238.46 C 223.01 239.50 225.56 240.07 226.76 242.19 C 230.00 246.62 229.25 252.44 231.77 257.21 C 234.09 258.17 236.54 258.90 239.09 258.51 C 242.78 260.88 246.45 263.27 250.17 265.59 C 249.57 270.53 255.97 271.32 257.60 275.36 C 258.96 278.42 263.35 281.69 260.43 285.11 C 262.68 289.92 264.85 294.76 266.46 299.83 C 268.85 305.31 272.76 310.16 273.60 316.25 C 272.76 309.99 273.95 303.07 278.24 298.24 C 282.12 295.35 286.71 293.60 290.78 290.99 C 289.49 289.56 288.13 288.20 286.75 286.85 C 286.70 286.09 286.58 284.56 286.53 283.79 C 287.09 283.50 288.22 282.93 288.79 282.64 C 288.74 281.07 288.69 279.51 288.63 277.95 C 290.60 275.14 293.43 272.82 297.10 273.44 C 298.54 274.67 299.99 275.89 301.48 277.10 C 301.39 278.92 301.32 280.74 301.27 282.57 C 301.84 282.89 302.98 283.53 303.55 283.86 C 303.13 285.21 302.72 286.58 302.29 287.94 C 301.24 288.97 300.19 290.02 299.23 291.15 C 304.42 292.61 308.77 295.77 313.04 298.95 C 317.37 305.53 316.13 313.72 317.98 321.04 C 318.52 324.12 319.70 327.02 320.92 329.88 C 322.29 324.46 325.57 319.52 325.78 313.85 C 327.15 311.30 328.56 308.76 330.39 306.51 C 334.24 301.92 335.93 296.08 338.47 290.77 C 342.73 287.72 347.33 285.26 352.15 283.23 C 355.33 279.01 352.42 273.92 352.49 269.24 C 351.70 268.88 350.91 268.52 350.13 268.17 C 351.55 265.92 352.69 263.47 354.53 261.53 C 356.40 259.59 359.09 258.85 361.61 258.19 C 363.19 259.64 364.95 260.92 366.33 262.58 C 368.00 264.74 368.24 267.57 368.62 270.18 C 368.96 270.52 369.63 271.20 369.97 271.54 C 369.19 271.55 367.62 271.57 366.84 271.58 C 366.38 274.42 365.87 277.25 365.46 280.10 C 367.00 281.99 368.31 284.30 370.72 285.20 C 374.83 287.08 379.54 289.56 380.87 294.24 C 382.66 298.99 384.70 303.92 388.52 307.44 C 390.41 309.23 391.40 311.71 392.71 313.92 C 392.53 314.42 392.18 315.41 392.01 315.91 C 392.97 318.07 393.92 320.24 394.86 322.41 C 396.49 322.33 398.10 322.24 399.74 322.17 C 400.39 326.43 400.40 330.79 401.47 334.99 C 402.13 337.89 403.87 340.38 404.81 343.19 C 404.39 346.26 402.70 348.98 401.52 351.82 C 400.49 354.44 397.82 355.71 395.58 357.12 C 394.78 354.32 395.90 351.86 397.68 349.76 C 396.94 349.74 395.46 349.71 394.72 349.70 C 395.80 347.66 397.70 345.90 397.89 343.49 C 396.92 343.39 395.96 343.31 395.00 343.26 C 394.50 345.68 393.86 348.06 393.22 350.44 C 392.33 350.47 391.44 350.50 390.56 350.53 C 389.58 347.04 389.77 343.49 390.60 340.00 C 389.07 336.25 386.72 332.91 384.79 329.38 C 385.29 328.80 386.28 327.65 386.78 327.08 C 385.57 325.29 384.40 323.49 383.26 321.67 C 382.82 321.43 381.96 320.97 381.52 320.74 C 380.89 319.16 380.25 317.59 379.61 316.02 C 379.82 313.69 378.79 311.72 377.04 310.25 C 374.98 315.54 375.91 321.05 377.60 326.28 C 377.05 326.68 375.96 327.47 375.42 327.87 C 375.75 330.10 375.87 332.39 376.55 334.55 C 377.91 335.97 379.58 337.04 381.15 338.21 C 383.77 345.35 380.69 352.80 380.21 360.07 C 378.93 360.20 377.65 360.33 376.37 360.47 C 376.70 361.76 377.03 363.06 377.37 364.36 C 376.68 365.09 376.00 365.81 375.32 366.54 C 376.02 370.49 376.45 374.49 377.66 378.33 C 377.03 378.32 375.75 378.30 375.11 378.30 C 377.22 385.43 376.40 392.85 376.34 400.16 C 375.58 400.30 374.07 400.60 373.32 400.74 C 373.68 402.97 374.13 405.18 374.65 407.38 C 375.96 407.39 377.27 407.39 378.59 407.41 C 379.43 409.94 380.18 412.51 380.84 415.11 C 377.56 415.08 374.26 415.34 371.00 414.95 C 368.91 413.94 367.49 411.91 365.54 410.66 C 366.07 407.34 366.44 404.00 366.58 400.64 C 365.41 400.16 364.25 399.68 363.09 399.21 C 364.04 395.20 363.87 391.09 363.38 387.04 C 362.88 383.83 364.51 380.90 365.60 378.00 C 364.53 375.01 363.94 371.88 363.52 368.74 C 363.00 368.32 361.95 367.47 361.43 367.05 C 360.91 363.84 360.69 360.48 359.05 357.60 C 357.21 360.41 357.09 363.84 356.51 367.05 C 355.99 367.52 354.95 368.44 354.43 368.90 C 354.47 371.99 353.28 374.84 352.48 377.76 C 353.07 380.25 354.44 382.51 354.79 385.07 C 354.89 387.56 354.30 390.01 353.83 392.45 C 354.36 394.42 354.85 396.41 355.45 398.37 C 354.36 398.90 353.28 399.43 352.20 399.95 C 352.31 403.54 352.54 407.14 353.38 410.65 C 351.33 411.91 349.72 413.70 348.06 415.41 C 344.40 415.76 340.70 415.50 337.03 415.52 C 337.69 412.79 338.40 410.09 339.24 407.42 C 340.67 407.42 342.10 407.42 343.53 407.43 C 344.37 405.21 344.62 402.85 344.82 400.50 C 343.80 400.07 342.79 399.64 341.78 399.21 C 341.89 392.40 341.01 385.54 342.79 378.85 C 343.04 378.56 343.53 377.99 343.78 377.70 C 342.93 377.66 341.22 377.58 340.37 377.54 C 340.79 376.33 341.25 375.13 341.72 373.94 C 342.04 371.25 342.45 368.59 342.83 365.92 C 342.44 365.49 341.65 364.62 341.26 364.19 C 341.49 361.75 341.59 359.31 341.58 356.87 C 338.78 359.40 336.14 362.15 332.99 364.28 C 332.05 362.30 329.81 360.48 330.76 358.07 C 332.31 351.59 335.93 345.88 338.99 340.03 C 340.16 337.72 340.19 335.07 340.44 332.56 C 338.97 332.54 337.50 332.53 336.03 332.51 C 336.34 330.81 336.89 329.17 337.51 327.57 C 338.90 328.00 340.30 328.48 341.69 328.94 C 341.23 327.92 340.75 326.91 340.23 325.93 C 341.24 321.37 341.86 316.71 340.99 312.07 C 340.49 312.26 339.47 312.65 338.96 312.84 C 338.97 316.61 337.11 319.89 334.67 322.64 C 331.62 327.36 327.88 331.73 325.57 336.88 C 326.57 341.28 327.89 345.68 327.44 350.25 C 324.02 349.88 324.15 346.21 323.26 343.70 C 323.50 345.90 323.75 348.11 323.95 350.33 C 323.27 350.40 321.90 350.56 321.21 350.64 C 322.34 352.40 322.81 354.42 322.73 356.52 C 320.43 354.66 318.58 352.35 316.71 350.09 C 315.38 346.55 314.61 342.82 315.96 339.17 C 314.18 335.04 314.25 330.51 313.40 326.18 C 312.10 321.84 310.76 317.42 308.19 313.64 C 306.28 318.41 306.98 323.66 308.85 328.33 C 308.53 329.18 308.22 330.03 307.91 330.89 C 309.36 336.83 309.80 342.95 310.72 348.98 C 310.04 357.40 313.11 365.99 310.61 374.24 C 311.25 375.45 311.89 376.66 312.54 377.88 C 312.20 379.64 311.84 381.41 311.90 383.22 C 311.51 383.53 310.71 384.15 310.32 384.47 C 310.23 391.02 309.27 397.56 310.39 404.09 C 312.05 406.61 314.33 408.58 317.36 409.19 C 317.12 410.74 316.87 412.28 316.63 413.83 C 314.02 413.81 311.41 413.82 308.81 413.84 C 308.38 413.28 307.51 412.15 307.08 411.58 C 306.35 411.59 304.90 411.59 304.17 411.59 C 304.18 409.10 304.10 406.62 303.80 404.16 C 305.35 397.36 303.47 390.53 302.00 383.91 C 301.02 383.27 300.05 382.64 299.07 382.02 C 301.30 373.54 299.06 364.50 296.05 356.46 C 294.79 357.37 293.08 358.13 293.05 359.96 C 292.19 364.25 291.06 368.58 291.37 373.00 C 290.02 375.97 290.87 379.15 291.64 382.15 C 290.69 382.73 289.74 383.32 288.80 383.90 C 287.67 388.52 286.23 393.15 286.38 397.96 C 286.47 402.55 286.62 407.15 286.61 411.75 C 285.89 411.72 284.45 411.66 283.73 411.63 C 283.14 412.38 282.55 413.14 281.97 413.90 C 279.20 413.93 276.44 413.92 273.67 413.89 C 273.61 412.22 273.56 410.55 273.52 408.89 C 274.73 408.68 275.95 408.47 277.17 408.27 C 278.25 406.75 279.48 405.30 280.27 403.59 C 281.08 397.36 280.46 391.05 280.51 384.79 C 280.02 384.43 279.06 383.73 278.58 383.38 C 280.30 380.61 278.17 377.85 277.35 375.19 C 279.47 371.81 278.21 367.78 278.62 364.06 C 279.05 358.47 279.63 352.89 279.63 347.28 C 279.06 346.62 278.49 345.97 277.92 345.33 C 276.93 347.21 275.92 349.08 274.91 350.95 C 275.73 351.92 276.54 352.90 277.36 353.88 C 277.29 354.58 277.16 355.97 277.09 356.66 C 275.22 358.41 273.45 360.27 271.85 362.27 C 270.83 361.00 269.82 359.73 268.82 358.46 C 267.68 359.17 266.55 359.89 265.42 360.61 C 264.52 357.11 263.64 353.61 262.52 350.17 C 261.18 350.22 259.84 350.27 258.51 350.33 C 258.06 345.14 258.07 339.51 261.03 334.99 C 262.36 333.21 261.45 330.97 260.68 329.17 C 257.72 322.47 255.58 315.30 255.17 307.95 C 254.29 303.59 251.60 299.89 249.59 296.01 C 245.65 304.17 247.59 313.68 246.12 322.39 C 241.81 332.01 243.99 342.88 243.62 353.08 C 243.51 356.36 242.41 359.58 242.64 362.88 C 244.19 368.62 246.89 374.09 247.39 380.08 C 246.75 381.47 245.89 382.76 245.27 384.16 C 245.81 385.91 246.74 387.51 247.51 389.17 C 245.45 389.92 243.39 390.68 241.33 391.44 C 239.61 396.51 240.12 402.02 243.26 406.43 C 244.75 406.79 246.26 407.12 247.71 407.64 C 248.95 409.48 249.64 411.63 250.59 413.62 C 245.52 413.70 240.39 414.18 235.36 413.47 C 233.58 411.58 232.26 409.16 229.43 408.62 C 229.97 403.33 231.92 398.28 232.31 392.98 C 232.75 390.42 229.61 389.73 228.13 388.35 C 228.70 384.51 230.43 380.81 230.03 376.87 C 229.80 373.79 230.88 370.60 229.67 367.64 C 227.89 362.28 225.78 357.03 223.48 351.88 C 222.07 351.83 220.66 351.77 219.26 351.70 C 216.91 357.48 214.26 363.18 212.66 369.22 C 212.69 375.59 212.46 382.04 214.81 388.11 C 213.34 389.10 211.88 390.09 210.41 391.08 C 210.49 397.05 212.54 402.73 213.36 408.60 C 210.63 409.26 209.16 411.50 207.46 413.49 C 202.43 414.18 197.30 413.63 192.23 413.73 C 193.11 411.69 193.97 409.64 194.83 407.60 C 196.98 407.08 199.78 407.04 200.49 404.45 C 203.19 400.68 202.64 395.96 201.51 391.74 C 199.43 390.89 197.34 390.07 195.27 389.19 C 196.11 387.44 196.97 385.71 197.84 383.98 C 197.02 382.42 195.08 381.07 195.54 379.13 C 196.72 373.34 198.99 367.83 200.27 362.07 C 200.10 358.16 199.19 354.34 198.64 350.48 C 196.83 350.60 195.02 350.72 193.22 350.82 C 191.95 347.39 191.05 343.84 190.43 340.24 C 190.11 339.93 189.46 339.32 189.13 339.01 C 189.26 336.38 188.73 333.48 190.08 331.09 C 192.34 329.69 195.19 329.61 197.72 328.92 C 197.59 326.66 197.38 324.40 197.10 322.16 C 193.45 317.62 193.83 311.31 192.14 305.96 C 192.72 305.44 193.88 304.39 194.46 303.87 C 193.88 301.83 194.62 298.90 192.72 297.55 C 190.52 301.41 187.98 305.36 187.81 309.94 C 187.33 318.29 183.50 325.84 181.14 333.71 C 185.02 338.48 185.09 345.14 185.28 351.01 C 182.61 351.99 180.11 353.35 177.74 354.92 C 178.06 356.59 178.31 358.28 178.51 359.98 C 174.76 359.76 172.32 356.56 170.01 354.00 C 167.07 349.26 163.29 344.02 165.22 338.17 C 162.91 335.44 160.24 332.80 160.10 328.98 C 157.21 319.85 158.05 309.55 152.56 301.32 C 151.54 310.34 154.90 318.98 155.33 327.92 C 155.54 331.96 155.94 336.01 155.70 340.06 C 155.91 341.56 154.58 342.41 153.71 343.37 C 153.82 350.57 154.09 357.78 153.69 364.99 C 153.30 369.41 155.20 373.57 155.53 377.93 C 156.32 385.05 158.18 392.01 158.59 399.18 C 157.61 399.32 155.65 399.60 154.66 399.74 C 156.71 404.26 159.43 408.95 164.13 411.10 C 164.44 411.74 165.06 413.00 165.37 413.63 C 162.15 413.23 158.64 413.01 155.92 411.05 C 154.01 409.19 152.12 407.25 150.65 405.02 C 150.48 403.22 150.68 401.42 150.76 399.63 C 150.12 399.58 148.84 399.49 148.20 399.44 C 147.10 390.65 147.81 381.79 147.74 372.98 C 146.94 366.92 145.34 360.89 142.48 355.46 C 140.70 351.94 139.93 348.03 138.27 344.46 C 135.83 343.97 135.77 346.56 135.11 348.19 C 132.48 356.75 127.32 364.80 127.55 374.04 C 127.59 382.50 127.20 390.95 127.22 399.42 C 125.82 399.51 124.43 399.61 123.03 399.71 C 123.20 401.69 123.54 403.67 123.50 405.66 C 121.97 407.44 120.20 409.00 118.57 410.67 C 115.83 413.36 111.71 413.56 108.11 413.78 C 109.89 410.96 113.13 409.64 115.10 407.02 C 116.83 404.86 118.11 402.38 119.05 399.79 C 118.30 399.69 116.79 399.50 116.04 399.40 C 116.93 389.46 119.08 379.70 121.22 369.97 C 121.28 360.92 120.35 351.86 120.93 342.80 C 120.33 342.62 119.13 342.25 118.53 342.07 C 117.41 328.62 122.21 315.56 122.08 302.18 C 117.31 310.97 116.12 321.06 114.16 330.72 C 112.14 332.26 110.67 334.36 108.83 336.07 C 111.35 327.00 109.53 317.47 108.37 308.32 C 109.31 305.71 110.51 303.21 111.77 300.74 C 114.74 295.00 116.25 288.65 117.66 282.39 C 122.81 280.28 128.93 279.66 132.83 275.29 C 132.69 274.46 132.42 272.82 132.28 272.00 C 129.57 269.35 130.28 265.46 130.89 262.13 C 132.29 260.10 134.44 258.50 136.88 258.02 C 139.38 258.75 142.19 260.31 142.79 263.07 C 143.34 266.09 144.62 269.72 142.21 272.28 C 142.48 273.71 142.08 275.55 143.45 276.52 C 147.10 279.40 151.80 280.33 156.06 281.98 C 158.22 291.02 161.55 299.78 165.49 308.18 C 166.95 312.11 167.98 316.18 169.14 320.21 C 169.36 318.79 169.58 317.37 169.80 315.95 C 173.15 312.44 173.25 307.36 175.06 303.09 C 177.05 296.88 179.02 290.64 182.33 284.98 C 181.72 284.08 181.10 283.19 180.48 282.30 C 183.03 278.86 184.70 274.74 187.84 271.77 C 193.72 266.86 199.73 262.01 206.61 258.54 C 208.16 257.51 210.46 256.95 210.86 254.86 C 211.61 252.67 211.44 250.32 211.77 248.06 Z" />
<path fill="#3e3e3e" opacity="1.00" d=" M 276.64 326.44 C 277.91 322.00 279.21 317.45 281.96 313.66 C 282.46 315.76 283.11 317.84 283.31 320.01 C 283.35 323.21 280.95 325.59 279.28 328.07 C 279.89 328.56 281.10 329.55 281.71 330.04 C 281.08 335.39 282.26 341.06 279.95 346.10 C 277.39 339.95 275.00 333.17 276.64 326.44 Z" />
<path fill="#f5e5c1" opacity="1.00" d=" M 96.35 329.75 C 97.63 329.28 98.90 328.75 100.22 328.39 C 103.67 327.83 107.43 329.70 108.88 332.86 C 109.48 336.65 104.73 337.31 102.30 338.93 C 100.69 338.78 99.09 338.53 97.50 338.29 C 97.07 335.45 96.62 332.61 96.35 329.75 Z" />
<path fill="#3e3e3e" opacity="1.00" d=" M 14.42 331.04 C 15.81 330.62 16.30 331.12 15.90 332.54 C 14.51 332.94 14.02 332.44 14.42 331.04 Z" />
<path fill="#f5e5c1" opacity="1.00" d=" M 108.56 336.43 C 108.62 336.34 108.76 336.16 108.83 336.07 C 108.76 336.16 108.62 336.34 108.56 336.43 Z" />
<path fill="#3e3e3e" opacity="1.00" d=" M 338.81 344.90 C 339.54 343.19 340.79 341.81 342.26 340.70 C 342.11 344.44 341.65 348.17 341.50 351.91 C 339.22 354.67 336.79 357.32 333.91 359.46 C 334.84 354.40 336.60 349.52 338.81 344.90 Z" />
</svg>
