<?xml version="1.0" encoding="UTF-8" ?>
<!DOCTYPE svg PUBLIC "-//W3C//DTD SVG 1.1//EN" "http://www.w3.org/Graphics/SVG/1.1/DTD/svg11.dtd">
<svg width="422pt" height="422pt" viewBox="0 0 422 422" version="1.1" xmlns="http://www.w3.org/2000/svg">
<path fill="#3e3e3e" opacity="1.00" d=" M 0.00 0.00 L 422.00 0.00 L 422.00 422.00 L 0.00 422.00 L 0.00 0.00 Z" />
<path fill="#f5e5c1" opacity="1.00" d=" M 194.76 16.83 C 200.38 12.70 207.67 8.97 214.77 11.36 C 219.64 12.48 223.46 16.11 226.33 20.03 C 227.03 21.93 226.66 24.01 226.61 25.99 C 223.66 58.63 221.32 91.32 218.20 123.96 C 215.62 144.77 212.56 165.53 209.97 186.35 C 216.64 188.21 223.42 189.61 230.05 191.59 C 227.11 197.72 224.33 203.93 221.23 209.99 C 215.78 206.06 210.34 202.12 204.96 198.11 C 200.80 198.51 196.86 200.04 192.80 200.97 C 166.53 207.64 140.39 214.84 114.07 221.31 C 115.05 215.49 117.24 209.96 118.18 204.14 C 118.82 195.45 118.63 186.69 117.73 178.02 C 117.30 159.66 115.75 141.37 115.30 123.02 C 113.68 108.72 114.95 94.28 113.75 79.96 C 113.56 64.30 113.67 48.64 113.44 32.98 C 112.97 29.35 115.38 26.20 117.97 23.97 C 121.09 22.06 124.86 21.66 128.38 20.93 C 131.71 20.50 135.75 19.94 138.34 22.61 C 142.12 26.81 142.96 32.64 144.17 37.95 C 144.71 42.28 145.57 46.55 146.34 50.84 C 147.13 70.63 149.47 90.31 152.13 109.93 C 154.66 133.47 158.56 156.86 160.79 180.42 C 162.65 181.80 164.46 183.31 166.56 184.33 C 168.46 185.32 170.43 184.07 172.27 183.58 C 171.52 168.68 177.00 154.49 178.63 139.83 C 179.80 130.84 180.30 121.78 181.70 112.82 C 182.86 104.89 183.16 96.84 184.98 89.01 C 187.55 68.41 189.81 47.77 192.35 27.16 C 192.83 23.73 192.32 19.59 194.76 16.83 Z" />
<path fill="#f4722b" opacity="1.00" d=" M 232.46 40.56 C 243.66 40.66 254.86 40.41 266.05 40.64 C 271.75 40.86 275.68 46.56 275.38 51.98 C 275.43 87.76 275.32 123.55 275.43 159.33 C 311.30 159.27 347.17 159.32 383.04 159.30 C 388.56 158.90 394.32 163.24 394.41 168.97 C 394.47 205.32 394.37 241.68 394.46 278.03 C 394.93 283.67 389.84 289.47 384.02 288.85 C 355.67 288.81 327.31 288.83 298.96 288.84 C 295.49 288.87 292.06 288.30 288.68 287.59 C 295.17 278.16 301.94 268.94 308.50 259.57 C 310.69 256.22 314.81 253.52 314.47 249.07 C 314.54 241.24 314.62 233.42 314.57 225.60 C 310.52 221.28 308.04 214.82 301.85 213.10 C 292.27 210.58 283.20 215.51 274.37 218.46 C 276.87 210.62 280.58 203.11 282.13 195.00 C 282.84 192.70 280.82 191.06 279.50 189.49 C 276.19 186.15 273.20 182.50 269.92 179.13 C 268.35 177.45 266.30 176.31 264.05 175.83 C 257.45 174.17 250.61 173.17 243.80 173.41 C 239.56 176.58 237.24 181.66 233.03 184.87 C 227.52 184.02 222.42 181.57 217.06 180.10 C 219.93 157.04 223.24 134.05 226.41 111.03 C 228.57 87.56 230.27 64.03 232.46 40.56 Z" />
<path fill="#f4722b" opacity="1.00" d=" M 150.64 41.45 C 153.41 40.98 156.20 40.43 159.03 40.51 C 167.56 40.60 176.10 40.58 184.63 40.54 C 182.33 63.01 180.37 85.52 178.06 108.00 C 175.29 126.20 172.24 144.36 169.34 162.54 C 168.33 168.30 167.72 174.15 166.25 179.83 C 165.43 178.30 164.63 176.71 164.54 174.94 C 159.90 130.45 155.43 85.93 150.64 41.45 Z" />
<path fill="#f4722b" opacity="1.00" d=" M 29.02 162.99 C 31.41 160.07 35.36 159.12 38.99 159.27 C 62.44 159.39 85.90 159.18 109.35 159.38 C 109.88 173.93 111.06 188.44 111.66 202.98 C 112.38 211.95 109.16 220.89 104.12 228.21 C 99.14 235.95 94.55 243.94 89.42 251.59 C 87.71 253.53 88.85 256.13 89.53 258.25 C 93.32 268.42 96.87 278.66 100.59 288.85 C 79.07 288.79 57.56 288.87 36.04 288.82 C 30.44 289.02 26.29 283.27 26.67 277.99 C 26.56 242.98 26.70 207.97 26.60 172.96 C 26.67 169.55 26.60 165.70 29.02 162.99 Z" />
<path fill="#f5e5c1" opacity="1.00" d=" M 246.54 178.45 C 251.79 178.07 257.51 178.20 262.26 180.76 C 266.71 184.73 271.00 189.07 274.05 194.25 C 274.41 194.66 275.13 195.46 275.49 195.86 C 272.38 205.12 268.28 213.99 264.58 223.02 C 263.03 227.75 259.85 231.64 257.06 235.67 C 247.10 228.38 237.00 221.28 226.95 214.11 C 230.76 204.39 234.82 194.57 241.12 186.16 C 242.96 183.62 244.47 180.82 246.54 178.45 Z" />
<path fill="#f5e5c1" opacity="1.00" d=" M 191.94 207.87 C 196.26 206.68 200.87 205.62 205.33 206.74 C 207.81 207.76 209.89 209.51 212.07 211.04 C 218.39 215.68 224.91 220.06 230.98 225.03 C 237.54 230.57 244.50 235.61 251.58 240.45 C 255.92 243.02 257.34 248.20 259.83 252.28 C 261.70 254.82 260.00 258.14 257.90 259.91 C 252.86 262.86 246.91 264.88 241.01 263.91 C 234.35 262.74 227.64 260.92 222.05 256.98 C 215.22 253.09 208.70 248.47 203.84 242.21 C 194.28 246.88 185.08 252.31 175.05 255.96 C 178.04 261.37 180.81 266.90 182.88 272.74 C 186.57 281.74 189.98 290.89 192.17 300.39 C 193.26 306.30 192.53 312.33 192.32 318.29 L 192.08 318.97 C 190.22 329.69 181.20 337.28 171.63 341.30 C 174.61 341.06 177.75 340.91 180.40 339.35 C 185.35 336.52 190.53 333.27 193.20 328.02 C 195.67 323.64 196.98 318.68 196.77 313.64 C 203.49 313.26 210.23 313.47 216.96 313.34 C 227.16 298.49 238.17 284.20 248.47 269.42 C 249.07 269.49 250.27 269.64 250.87 269.71 C 248.51 280.63 242.89 290.47 239.29 300.96 C 240.54 303.65 241.82 306.86 244.75 308.10 C 250.44 310.74 255.96 313.86 262.08 315.45 C 265.86 314.10 270.48 313.47 272.82 309.81 C 277.50 303.29 282.12 296.73 286.73 290.17 C 287.98 290.51 289.23 290.88 290.48 291.26 C 282.61 314.99 276.13 339.17 268.01 362.82 C 263.39 371.71 257.31 380.11 249.27 386.22 C 240.88 391.61 231.40 394.98 222.46 399.31 C 219.34 401.07 215.81 399.85 212.57 399.21 C 200.03 396.43 187.43 393.94 174.89 391.19 C 170.45 390.20 166.22 388.27 162.76 385.29 C 154.19 378.19 145.49 371.23 136.82 364.25 C 134.04 362.28 133.30 358.80 132.18 355.80 C 123.63 331.94 115.41 307.97 106.83 284.12 C 103.08 275.67 101.18 266.59 98.26 257.85 C 97.81 255.81 96.51 253.56 97.68 251.54 C 101.24 244.43 105.77 237.83 110.50 231.46 C 112.57 228.20 116.77 228.24 120.06 227.07 C 143.71 219.56 167.97 214.21 191.94 207.87 Z" />
<path fill="#f5e5c1" opacity="1.00" d=" M 290.26 217.31 C 293.01 216.18 295.83 217.61 298.43 218.50 C 301.13 219.65 304.08 220.62 306.22 222.72 C 307.95 225.47 308.52 228.82 308.46 232.03 C 308.29 238.00 308.37 243.98 307.62 249.92 C 294.87 267.46 282.76 285.47 269.99 303.00 C 267.73 305.73 264.46 307.72 260.94 308.25 C 256.25 308.26 251.85 306.31 247.73 304.23 C 247.39 301.84 246.18 299.29 247.51 297.00 C 250.86 289.12 254.40 281.32 257.77 273.45 C 259.30 269.62 262.05 266.47 263.95 262.84 C 268.90 253.31 273.70 243.70 278.71 234.20 C 275.52 235.74 271.96 236.85 269.39 239.39 C 267.31 241.92 266.17 245.06 264.68 247.95 C 263.57 246.07 262.49 244.18 261.40 242.30 C 265.23 236.40 269.25 230.64 272.97 224.67 C 278.76 222.29 284.31 219.30 290.26 217.31 Z" />
<path fill="#f5e5c1" opacity="1.00" d=" M 183.62 260.05 C 189.71 256.77 195.80 253.51 201.77 250.02 C 197.73 256.95 193.17 263.54 189.09 270.45 C 188.77 270.55 188.12 270.77 187.80 270.88 C 186.42 267.26 185.09 263.62 183.62 260.05 Z" />
<path fill="#f5e5c1" opacity="1.00" d=" M 208.11 253.14 C 218.61 259.45 229.70 265.66 241.97 267.50 C 233.35 279.40 225.08 291.55 216.31 303.34 C 215.12 304.86 213.82 306.34 212.21 307.42 C 205.44 306.48 199.01 301.73 196.68 295.20 C 194.47 289.73 192.70 283.56 194.78 277.77 C 196.99 268.45 204.00 261.53 208.11 253.14 Z" />
<path fill="#f4722b" opacity="1.00" d=" M 269.12 373.02 C 270.29 370.54 273.06 370.43 275.44 370.23 C 275.60 377.80 275.26 385.37 275.43 392.95 C 275.44 396.98 275.63 401.54 272.86 404.82 C 270.57 407.82 266.61 408.63 263.03 408.62 C 227.66 408.60 192.29 408.63 156.92 408.59 C 151.67 408.91 146.13 405.42 145.42 399.96 C 144.90 392.53 145.28 385.06 145.31 377.62 C 150.51 381.38 155.04 385.98 160.26 389.70 C 165.40 392.90 170.92 395.74 176.89 396.98 C 191.95 399.97 206.92 403.44 221.99 406.37 C 230.99 401.92 240.28 398.00 249.02 393.04 C 257.43 388.40 264.23 381.22 269.12 373.02 Z" />
</svg>
