<?xml version="1.0" encoding="UTF-8" ?>
<!DOCTYPE svg PUBLIC "-//W3C//DTD SVG 1.1//EN" "http://www.w3.org/Graphics/SVG/1.1/DTD/svg11.dtd">
<svg width="422pt" height="422pt" viewBox="0 0 422 422" version="1.1" xmlns="http://www.w3.org/2000/svg">
<path fill="#3e3e3e" opacity="1.00" d=" M 0.00 0.00 L 422.00 0.00 L 422.00 422.00 L 0.00 422.00 L 0.00 0.00 M 157.21 26.22 C 154.32 28.11 152.92 31.55 153.06 34.93 C 153.01 69.31 153.06 103.69 153.04 138.07 C 118.32 138.11 83.60 138.00 48.88 138.12 C 43.21 137.89 39.60 143.88 39.73 149.01 C 39.70 190.18 39.74 231.35 39.71 272.53 C 45.12 271.58 50.51 270.55 55.91 269.50 C 58.74 269.04 61.77 268.25 64.56 269.35 C 67.49 270.34 69.77 272.49 72.01 274.53 C 83.36 271.18 94.61 267.53 105.99 264.26 C 114.35 262.24 120.69 256.07 127.86 251.70 C 131.18 251.80 134.51 252.39 137.83 252.03 C 140.16 251.05 142.13 249.44 144.20 248.02 C 147.76 235.60 151.20 223.14 154.71 210.69 C 155.46 207.21 158.24 204.83 160.78 202.58 C 160.80 201.88 160.84 200.49 160.86 199.79 C 162.68 198.58 164.49 197.38 166.30 196.16 C 166.31 195.46 166.35 194.06 166.37 193.36 C 168.25 192.08 170.14 190.79 172.01 189.50 C 173.55 189.89 175.09 190.30 176.63 190.70 C 177.83 189.38 179.02 188.07 180.21 186.75 C 182.32 186.36 184.43 185.97 186.54 185.58 C 187.56 184.18 188.60 182.79 189.66 181.41 C 195.33 181.73 201.11 181.15 206.70 182.24 C 210.78 184.23 214.31 187.15 218.08 189.64 C 222.82 180.18 226.64 170.23 231.94 161.07 C 234.51 158.48 232.47 154.41 234.66 151.68 C 237.95 147.09 241.53 142.72 244.80 138.11 C 244.20 136.17 243.60 134.23 243.02 132.29 C 239.46 131.71 234.76 133.58 231.99 130.91 C 231.46 125.95 231.88 120.95 231.76 115.97 C 231.50 110.17 233.67 103.80 229.78 98.75 C 230.51 96.50 231.28 94.26 232.05 92.03 C 227.83 90.68 224.71 86.56 225.48 82.02 C 225.59 77.35 231.08 75.89 232.57 71.89 C 233.95 68.42 234.80 64.76 236.11 61.26 C 237.32 56.96 242.27 55.82 245.54 53.49 C 244.88 52.82 244.22 52.15 243.57 51.48 C 249.71 49.04 255.71 46.16 262.04 44.26 C 267.85 44.32 273.87 45.97 278.61 49.45 C 281.86 51.79 285.59 53.89 287.47 57.60 C 289.31 61.17 291.69 64.79 291.66 68.96 C 291.74 75.12 291.60 81.28 291.63 87.44 C 296.21 88.68 299.39 84.72 302.65 82.25 C 302.77 66.49 302.69 50.72 302.71 34.95 C 303.15 30.25 299.70 26.22 295.57 24.49 C 291.44 23.58 287.15 24.11 282.95 24.01 C 244.96 24.01 206.97 24.07 168.98 23.98 C 165.01 24.10 160.42 23.28 157.21 26.22 M 254.92 61.81 C 254.34 63.95 253.74 66.08 253.19 68.23 C 250.91 66.41 248.65 64.39 245.82 63.48 C 243.20 62.93 240.49 63.22 237.84 63.27 C 236.43 66.80 234.89 70.31 234.19 74.07 C 233.29 75.20 232.39 76.34 231.49 77.47 C 233.12 77.47 234.75 77.47 236.39 77.47 C 238.30 79.36 240.07 81.39 241.85 83.41 C 243.47 77.73 249.94 77.15 254.56 75.09 C 255.84 77.45 256.94 79.91 257.89 82.42 C 257.03 82.90 255.31 83.85 254.45 84.33 C 258.72 85.11 263.10 84.81 267.40 84.39 C 265.83 81.34 263.58 78.66 262.24 75.49 C 262.17 72.47 263.63 69.37 262.34 66.42 C 260.80 63.74 257.95 62.13 254.92 61.81 M 250.40 79.66 C 251.92 80.68 253.50 81.62 255.17 82.39 C 254.94 81.69 254.47 80.29 254.24 79.59 C 252.95 79.53 251.68 79.56 250.40 79.66 M 233.93 80.52 C 232.89 81.90 235.44 83.08 236.36 82.02 C 237.41 80.62 234.87 79.48 233.93 80.52 M 272.68 88.66 C 271.75 91.14 268.84 90.45 266.77 90.89 C 266.66 90.06 266.45 88.40 266.34 87.57 C 262.33 86.36 258.17 86.99 254.12 87.57 C 252.77 90.58 249.85 91.86 246.84 92.60 C 243.44 90.89 242.55 85.68 238.16 86.14 C 237.24 90.11 235.53 93.81 234.06 97.58 C 237.40 99.77 241.00 97.38 244.23 96.23 C 245.16 97.27 246.14 98.29 246.97 99.42 C 242.83 100.90 238.52 101.81 234.30 103.01 C 234.21 104.77 234.13 106.53 234.07 108.29 C 240.80 108.90 247.59 108.99 254.30 109.85 C 247.72 110.29 241.13 110.68 234.58 111.41 C 234.04 117.12 234.56 122.87 235.41 128.52 C 241.59 130.33 248.01 128.63 253.48 125.56 C 259.74 121.94 266.34 118.68 271.79 113.84 C 274.12 111.18 274.56 107.48 275.73 104.24 C 282.95 101.69 289.49 94.10 288.08 86.05 C 287.42 83.81 285.72 80.89 283.02 81.19 C 278.60 81.76 274.72 84.73 272.68 88.66 M 314.95 95.03 C 314.37 97.33 313.74 99.62 313.17 101.93 C 308.93 97.41 302.65 95.16 296.54 96.72 C 294.10 101.55 293.88 107.52 289.99 111.52 C 291.64 111.68 293.34 111.60 294.94 112.10 C 297.26 113.36 298.50 115.85 300.36 117.64 C 302.32 118.11 302.16 114.98 303.07 113.86 C 306.95 112.24 310.77 110.47 314.79 109.24 C 316.08 111.81 317.20 114.46 318.10 117.19 C 316.85 117.89 315.61 118.61 314.38 119.35 C 319.02 120.00 323.73 119.78 328.38 119.25 C 326.70 115.69 323.97 112.71 322.54 109.04 C 322.83 107.00 323.80 105.06 323.66 102.97 C 323.67 98.48 319.20 95.08 314.95 95.03 M 274.70 112.68 C 273.10 115.96 269.91 117.98 267.08 120.08 C 260.63 124.51 254.09 128.93 246.87 132.03 C 247.42 133.62 248.00 135.22 248.59 136.80 C 248.98 136.74 249.74 136.61 250.12 136.54 C 257.78 129.70 267.24 125.47 275.65 119.71 C 278.65 117.80 281.91 116.35 284.93 114.47 C 282.85 111.20 280.80 107.85 279.96 104.00 C 276.70 105.80 276.35 109.72 274.70 112.68 M 311.01 113.52 C 311.64 114.69 312.29 115.86 312.95 117.03 C 313.97 116.35 314.97 115.65 315.99 114.96 C 314.33 114.45 312.68 113.97 311.01 113.52 M 292.36 115.07 C 291.31 117.03 295.52 118.27 295.66 116.02 C 295.44 114.60 293.31 114.03 292.36 115.07 M 333.15 125.47 C 331.38 125.76 329.61 126.07 327.85 126.38 C 327.63 125.11 327.42 123.84 327.20 122.57 C 322.81 121.22 318.27 122.17 313.82 122.57 C 313.23 123.80 312.64 125.03 312.05 126.25 C 309.35 126.79 305.91 128.67 303.69 126.08 C 301.86 123.81 300.63 120.51 297.07 121.09 C 296.33 124.90 294.37 128.28 293.26 131.95 C 292.73 133.56 294.28 134.96 295.89 134.55 C 298.34 134.08 300.57 132.89 303.00 132.32 C 304.47 133.07 305.75 134.15 307.11 135.10 C 302.43 136.81 297.52 137.73 292.85 139.45 C 292.76 141.23 292.68 143.02 292.61 144.80 C 299.82 145.32 307.10 145.20 314.25 146.36 C 307.31 147.07 300.36 147.81 293.38 147.86 C 293.07 153.90 293.10 160.04 293.92 166.03 C 299.94 169.14 307.10 166.63 312.77 163.78 C 319.55 160.03 326.51 156.45 332.51 151.49 C 335.93 148.92 335.56 144.09 337.61 140.73 C 342.36 138.80 346.08 135.07 348.94 130.90 C 351.86 125.94 351.08 119.44 346.94 115.42 C 340.83 115.97 335.54 119.85 333.15 125.47 M 253.96 135.74 C 247.39 139.51 243.25 146.04 238.76 151.90 C 236.53 154.36 237.50 157.76 237.59 160.74 C 233.15 164.37 231.71 170.30 229.48 175.36 C 226.44 182.02 224.09 188.96 221.56 195.82 C 219.18 202.62 219.75 209.93 218.32 216.92 C 217.21 222.60 216.70 228.43 214.86 233.95 C 213.12 238.86 211.42 243.81 210.40 248.93 C 210.85 247.88 211.30 246.83 211.74 245.79 C 217.99 244.41 221.34 238.49 226.11 234.80 C 227.79 234.71 229.48 234.61 231.17 234.52 C 232.46 232.84 233.70 231.10 235.24 229.63 C 237.14 229.07 239.15 229.23 241.10 229.11 C 241.90 227.68 242.71 226.24 243.52 224.81 C 242.32 222.98 240.03 221.45 240.13 219.05 C 240.62 212.32 238.65 205.60 239.90 198.89 C 241.14 191.94 241.56 184.85 243.39 178.02 C 244.83 171.96 244.99 165.47 247.96 159.86 C 251.62 160.39 255.18 161.49 258.87 161.85 C 253.04 172.30 248.12 183.85 248.25 196.03 C 248.04 200.02 250.76 203.22 251.87 206.86 C 250.74 209.02 249.27 210.98 248.12 213.14 C 249.67 213.43 251.22 213.71 252.78 213.98 C 252.55 214.14 252.10 214.47 251.87 214.64 C 250.16 218.42 248.18 222.08 246.20 225.73 C 252.14 225.89 258.10 225.54 264.03 225.87 C 268.41 227.07 272.07 229.97 276.11 231.97 C 281.02 221.27 285.93 210.57 290.89 199.90 C 292.54 196.76 291.34 192.63 294.00 189.98 C 297.04 186.22 299.73 182.20 302.86 178.50 C 299.24 174.99 295.51 171.59 291.92 168.05 C 290.13 166.58 290.35 164.12 290.32 162.06 C 290.40 156.82 290.37 151.57 289.64 146.37 C 285.79 146.26 281.83 146.07 278.15 147.42 C 272.80 149.22 267.28 151.04 262.84 154.66 C 259.62 154.02 256.47 153.07 253.35 152.06 C 257.89 146.25 263.91 141.86 270.02 137.85 C 275.72 134.18 282.19 131.64 288.98 131.11 C 285.87 127.15 284.80 122.16 285.26 117.21 C 274.12 122.14 264.21 129.26 253.96 135.74 M 346.92 138.14 C 348.35 141.22 349.81 144.31 351.25 147.39 C 352.41 147.43 353.58 147.46 354.75 147.49 C 356.85 151.31 358.95 155.13 360.97 159.00 C 364.20 166.06 371.02 170.44 377.00 174.96 C 378.11 173.94 379.25 172.74 379.12 171.11 C 379.51 163.32 379.00 155.51 378.73 147.72 C 381.04 147.59 383.36 147.48 385.69 147.39 C 385.70 144.29 385.71 141.18 385.72 138.08 C 372.79 138.10 359.85 138.00 346.92 138.14 M 339.01 143.16 C 337.23 147.07 336.15 151.69 332.45 154.31 C 324.23 160.58 315.49 166.20 306.15 170.64 C 307.20 172.31 307.71 177.31 310.45 174.58 C 319.10 167.51 329.26 162.75 338.42 156.44 C 341.20 154.72 344.22 153.43 347.14 151.96 C 345.28 148.22 342.97 144.67 342.04 140.53 C 340.89 141.22 339.41 141.71 339.01 143.16 M 389.33 140.73 C 389.60 144.09 389.67 147.46 389.69 150.84 C 387.25 150.85 384.82 150.86 382.39 150.85 C 382.28 153.11 382.22 155.37 382.18 157.63 C 393.12 157.54 404.06 157.65 415.00 157.62 C 415.00 155.47 414.99 153.33 415.00 151.19 C 413.91 151.19 412.83 151.18 411.75 151.18 C 411.74 147.91 411.71 144.65 411.52 141.39 C 404.13 140.95 396.71 141.43 389.33 140.73 M 327.00 166.07 C 320.44 170.49 313.24 174.09 307.37 179.45 C 303.21 184.40 299.03 189.37 295.69 194.93 C 296.08 197.28 296.41 199.64 296.67 202.01 C 296.00 202.19 294.65 202.54 293.97 202.71 C 290.32 210.32 287.07 218.10 283.93 225.94 C 281.62 233.16 277.92 240.00 277.28 247.66 C 276.23 258.57 274.98 269.56 271.93 280.12 C 268.54 288.12 267.44 296.75 265.48 305.14 C 264.42 310.46 264.54 315.91 263.59 321.25 C 266.15 319.91 268.71 318.59 271.28 317.27 C 274.74 315.59 277.09 312.42 279.89 309.89 C 284.24 305.74 289.51 302.45 295.44 301.16 C 297.30 296.61 296.72 291.67 296.72 286.89 C 297.09 280.77 300.04 275.24 302.66 269.84 C 301.37 268.28 299.91 266.84 298.96 265.03 C 299.76 257.34 297.52 249.64 298.94 241.96 C 300.24 234.65 300.67 227.17 302.61 219.98 C 304.19 213.47 304.39 206.52 307.46 200.46 C 311.45 200.59 315.26 202.14 319.24 202.55 C 312.78 213.68 307.99 226.10 307.63 239.10 C 307.80 243.42 310.26 247.15 312.13 250.92 C 310.87 252.47 309.62 254.04 308.35 255.59 C 308.35 256.07 308.35 257.02 308.35 257.49 C 309.59 257.91 310.85 258.33 312.11 258.74 C 309.16 264.54 306.29 270.38 302.99 275.99 C 301.76 278.17 300.32 280.42 300.48 283.03 C 300.44 289.73 300.48 296.42 300.49 303.11 C 298.54 303.52 296.59 303.95 294.66 304.42 C 291.42 307.88 286.33 308.58 283.07 312.06 C 277.72 317.16 271.47 321.17 264.66 324.05 C 262.62 329.21 262.66 335.07 264.42 340.31 C 266.17 345.59 267.61 351.28 271.53 355.44 C 275.51 359.31 280.50 361.88 284.79 365.36 C 294.28 365.63 303.65 363.87 313.10 363.35 C 315.71 363.14 318.50 362.46 320.19 360.29 C 325.72 353.78 330.98 347.04 336.43 340.46 C 345.09 330.12 353.09 319.19 362.24 309.27 C 370.45 281.51 378.22 253.63 386.37 225.85 C 384.76 218.56 380.39 212.49 377.10 205.92 C 373.14 199.38 367.72 193.78 361.20 189.78 C 355.30 185.29 347.16 184.65 340.26 186.92 C 334.52 188.86 328.46 190.58 323.77 194.60 C 320.24 194.12 316.84 193.03 313.45 191.96 C 317.48 186.49 322.99 182.41 328.46 178.50 C 336.17 173.20 345.23 168.84 354.82 169.43 C 362.03 170.65 366.12 177.23 371.47 181.47 C 376.79 185.39 380.88 190.65 384.99 195.76 C 386.50 195.52 388.02 195.26 389.53 194.96 C 389.29 193.03 389.40 191.04 388.82 189.17 C 385.09 185.78 380.45 183.56 376.45 180.51 C 372.49 177.90 369.51 174.15 365.80 171.25 C 363.22 169.16 360.37 167.15 358.92 164.05 C 356.99 160.26 355.23 156.32 352.30 153.17 C 343.16 155.85 334.80 160.68 327.00 166.07 M 382.65 161.39 C 382.71 162.29 382.78 163.19 382.85 164.10 C 389.73 164.30 396.60 164.56 403.48 164.41 C 405.14 163.15 406.79 161.90 408.47 160.67 C 399.85 160.73 391.26 161.01 382.65 161.39 M 404.55 168.62 C 402.27 172.30 400.34 176.52 400.63 180.96 C 401.22 194.11 402.51 207.22 402.92 220.38 C 406.90 221.06 410.90 221.71 414.95 221.73 C 415.04 201.50 415.02 181.28 414.96 161.06 C 411.05 162.86 406.91 164.83 404.55 168.62 M 383.24 167.69 C 383.20 168.17 383.12 169.13 383.08 169.61 C 388.91 169.95 394.73 170.52 400.58 170.29 C 400.97 169.42 401.36 168.54 401.76 167.66 C 395.59 167.72 389.41 167.70 383.24 167.69 M 382.19 173.41 L 382.29 174.96 C 384.74 174.98 387.20 175.02 389.66 175.05 C 389.60 176.84 389.54 178.62 389.49 180.40 C 392.36 180.48 395.25 180.36 398.03 179.59 C 398.28 177.58 398.58 175.57 398.93 173.58 C 393.34 173.59 387.76 173.69 382.19 173.41 M 192.46 186.30 C 189.70 189.34 185.76 190.26 181.83 190.66 C 180.69 192.16 179.54 193.65 178.38 195.14 C 176.15 195.49 173.09 194.49 171.75 196.90 C 170.13 199.28 167.96 201.15 165.16 201.99 C 165.21 206.23 165.60 210.47 166.48 214.63 C 172.19 216.06 178.09 216.69 183.94 215.80 C 184.59 217.05 185.23 218.30 185.88 219.55 C 189.88 219.56 193.99 219.86 197.88 218.71 C 199.82 218.08 202.12 216.98 202.18 214.63 C 203.07 206.69 204.08 198.74 205.93 190.94 C 209.80 193.08 213.55 195.43 217.54 197.34 C 217.63 196.55 217.82 194.96 217.91 194.17 C 214.10 191.86 210.83 188.69 206.83 186.72 C 202.07 186.12 197.24 186.35 192.46 186.30 M 208.81 200.86 C 208.17 202.55 207.53 204.25 206.88 205.93 C 205.98 210.59 205.16 215.50 202.48 219.52 C 197.90 223.24 191.58 222.59 186.07 223.38 C 178.04 223.85 170.20 225.73 162.23 226.66 C 164.66 219.87 163.30 212.68 163.33 205.65 C 158.61 207.76 157.76 213.32 156.54 217.76 C 153.67 227.59 150.50 237.34 147.35 247.09 C 151.26 245.22 155.08 243.11 158.62 240.62 C 160.62 238.42 161.49 235.45 162.84 232.85 C 169.36 231.74 175.90 230.83 182.42 229.77 C 187.36 229.06 192.34 229.71 197.30 229.68 C 194.23 237.23 190.39 244.44 187.04 251.86 C 185.82 254.86 183.19 256.86 181.33 259.41 C 180.15 261.38 179.65 263.70 179.44 265.97 C 178.64 270.65 183.77 273.76 187.88 273.78 C 186.81 271.48 185.64 269.23 184.39 267.02 C 184.75 263.54 185.36 259.51 188.39 257.29 C 191.20 255.73 194.34 257.63 197.19 258.10 C 199.88 250.13 203.31 242.45 206.61 234.72 C 209.49 226.92 212.60 219.21 215.75 211.52 C 216.20 209.95 217.44 208.13 216.31 206.57 C 214.49 203.94 212.15 201.34 208.81 200.86 M 400.14 224.41 C 400.55 225.23 400.97 226.05 401.40 226.87 C 401.15 231.49 401.50 236.11 401.40 240.74 C 405.75 242.36 410.31 243.46 414.97 243.63 C 415.02 237.65 414.99 231.67 415.00 225.69 C 410.04 225.26 405.13 224.31 400.14 224.41 M 240.00 232.72 C 236.45 232.50 234.74 235.66 232.97 238.14 C 231.00 238.15 229.03 238.16 227.06 238.15 C 225.48 240.23 223.93 242.33 222.36 244.41 C 221.06 244.59 219.77 244.78 218.48 244.97 C 218.49 249.21 218.63 253.51 219.72 257.63 C 219.88 258.58 220.42 259.16 221.36 259.36 C 226.99 261.28 233.02 260.61 238.85 260.53 C 239.50 261.83 240.16 263.14 240.83 264.44 C 246.73 264.64 253.04 264.74 258.16 261.34 C 258.97 252.05 260.14 242.75 262.54 233.72 C 266.67 235.95 270.64 238.49 274.71 240.83 C 274.71 239.51 276.08 237.65 274.50 236.76 C 270.86 233.95 266.96 231.52 263.28 228.77 C 258.18 228.74 253.08 228.54 247.98 228.57 C 245.73 230.66 243.27 232.79 240.00 232.72 M 158.94 243.97 C 152.69 247.41 146.44 250.88 140.63 255.02 C 145.91 256.86 151.42 257.83 156.91 258.74 C 159.73 266.76 161.84 275.01 164.42 283.11 C 163.88 286.72 161.62 289.43 159.40 292.14 C 161.10 292.70 162.86 293.34 164.67 293.20 C 167.03 292.82 168.76 291.02 170.50 289.53 C 173.25 286.97 176.22 284.67 179.23 282.43 C 175.37 281.98 170.66 281.15 168.89 277.16 C 165.48 270.17 162.73 261.63 166.09 254.11 C 167.68 250.21 171.49 248.01 174.78 245.72 C 178.96 242.64 184.35 244.34 189.12 243.87 C 189.13 243.19 189.14 241.84 189.15 241.16 C 181.40 241.11 173.65 241.28 165.91 241.59 C 163.40 241.67 161.09 242.77 158.94 243.97 M 264.97 244.70 C 262.82 251.08 262.48 258.14 258.98 264.01 C 256.18 266.88 251.80 267.39 248.02 267.95 C 240.29 268.57 232.54 269.20 224.91 270.60 C 221.83 271.16 218.75 271.94 215.60 271.87 C 215.92 268.51 217.71 265.35 217.11 261.91 C 216.67 257.77 216.68 253.60 216.48 249.45 C 213.59 250.92 211.81 253.72 210.87 256.76 C 207.45 269.27 203.50 281.65 199.49 293.99 C 203.86 292.04 207.84 289.35 212.04 287.06 C 213.34 284.33 214.65 281.60 215.93 278.87 C 222.65 277.56 229.44 276.65 236.20 275.59 C 241.84 274.65 247.56 275.44 253.25 275.41 C 249.37 283.49 245.61 291.62 241.81 299.73 C 240.59 302.69 237.99 304.65 236.05 307.09 C 233.81 310.50 234.10 314.80 234.42 318.69 C 236.96 320.61 239.51 323.00 242.98 322.64 C 241.89 320.29 240.68 318.00 239.37 315.76 C 239.38 311.72 240.40 307.26 243.77 304.70 C 246.88 303.68 249.82 305.29 252.83 305.83 C 256.06 297.75 259.08 289.58 262.72 281.67 C 266.54 271.69 270.51 261.77 274.55 251.88 C 272.00 248.81 269.69 244.14 264.97 244.70 M 401.48 245.04 C 401.53 249.45 401.85 254.00 403.59 258.11 C 405.69 262.66 410.78 264.16 414.95 266.16 C 415.04 259.55 414.98 252.94 415.00 246.33 C 410.47 246.19 405.98 245.55 401.48 245.04 M 170.22 254.33 C 167.64 260.81 167.34 268.77 171.03 274.88 C 173.97 277.53 177.96 280.66 181.99 278.26 C 179.26 275.09 176.34 271.87 175.10 267.78 C 173.60 263.61 174.60 258.74 177.46 255.40 C 179.45 253.75 182.22 253.58 184.62 252.80 C 184.51 250.86 186.37 248.09 184.24 246.84 C 178.47 244.84 172.62 249.33 170.22 254.33 M 117.50 262.70 C 116.41 263.36 116.37 264.77 115.91 265.84 C 121.41 269.31 127.38 273.28 129.50 279.79 C 132.20 286.99 133.42 295.96 128.86 302.68 C 128.66 296.69 128.49 290.68 127.40 284.77 C 124.32 281.35 122.61 276.93 119.43 273.60 C 116.72 271.03 113.77 268.73 110.98 266.25 C 108.28 267.04 105.59 267.87 102.95 268.85 C 108.73 274.22 113.85 280.37 117.51 287.39 C 118.49 289.24 118.47 291.37 118.65 293.41 C 117.35 293.55 116.05 293.69 114.75 293.83 C 113.32 289.46 111.97 284.82 108.59 281.51 C 105.39 278.36 102.78 274.58 99.21 271.83 C 95.49 268.85 91.07 272.63 87.25 273.64 C 91.86 278.82 96.55 284.06 99.91 290.18 C 102.70 295.26 103.73 301.11 103.68 306.86 C 102.93 307.27 101.45 308.08 100.70 308.49 C 101.22 295.82 92.80 285.49 84.81 276.63 C 83.57 276.31 82.34 275.98 81.10 275.66 C 78.67 276.49 76.21 277.26 73.75 278.02 C 75.68 283.17 80.66 285.98 83.68 290.34 C 89.00 298.65 91.40 308.49 91.70 318.28 C 93.19 318.30 94.68 318.32 96.17 318.34 C 96.75 317.23 97.33 316.12 97.92 315.02 C 99.18 314.58 100.43 314.14 101.69 313.69 C 101.24 315.27 100.81 316.86 100.41 318.47 C 105.90 319.83 110.80 316.41 114.74 313.03 C 114.82 311.71 114.76 310.40 114.73 309.09 C 119.94 306.79 125.70 305.68 130.48 302.46 C 133.47 304.12 136.54 305.96 140.01 306.32 C 145.35 305.41 150.46 303.43 155.71 302.08 C 155.75 299.10 155.77 296.13 155.79 293.15 C 157.13 291.21 159.02 289.45 159.52 287.08 C 159.12 279.27 156.06 271.96 154.43 264.38 C 152.51 262.82 150.70 260.89 148.21 260.29 C 141.78 258.66 135.54 256.31 128.93 255.42 C 125.20 257.98 121.20 260.12 117.50 262.70 M 191.98 259.67 C 187.52 260.50 187.47 267.01 190.41 269.56 C 192.06 271.59 195.77 271.19 196.80 268.73 C 199.08 265.29 196.86 258.52 191.98 259.67 M 192.72 275.72 C 185.37 281.72 178.01 287.70 170.66 293.70 C 167.46 296.81 162.68 295.47 158.69 295.75 C 158.69 298.80 158.67 301.86 158.62 304.91 C 153.01 306.52 147.47 308.34 141.93 310.15 C 138.23 308.87 134.51 307.64 130.81 306.36 C 126.72 309.15 122.91 312.32 119.01 315.34 C 119.72 318.27 120.65 321.13 121.67 323.97 C 130.40 320.91 139.20 318.04 147.86 314.78 C 152.56 313.11 156.88 309.93 162.07 310.08 C 167.47 306.63 172.66 302.87 177.96 299.28 C 181.11 299.69 184.32 301.06 187.52 300.47 C 191.12 298.62 194.50 296.25 197.58 293.64 C 200.30 285.69 201.53 277.29 203.79 269.20 C 199.79 270.80 196.04 272.98 192.72 275.72 M 411.39 269.36 C 411.56 275.19 411.51 281.42 414.73 286.55 C 415.19 281.22 414.95 275.88 415.00 270.54 C 414.10 270.24 412.29 269.65 411.39 269.36 M 36.26 276.85 C 33.19 277.95 29.70 279.01 27.64 281.72 C 27.16 284.08 27.38 286.50 27.24 288.90 C 29.21 283.34 34.96 279.44 40.89 280.49 C 47.65 282.37 53.33 286.97 57.67 292.37 C 65.93 301.71 70.67 314.36 69.62 326.88 C 75.53 323.04 82.63 322.47 89.38 321.27 C 88.81 304.52 80.58 288.78 69.15 276.84 C 66.15 273.51 61.49 271.83 57.07 272.78 C 50.14 274.16 43.18 275.43 36.26 276.85 M 215.89 288.85 C 207.92 292.35 200.61 297.17 193.13 301.60 C 193.17 301.95 193.25 302.65 193.29 303.00 C 198.54 304.69 204.05 305.21 209.37 306.57 C 212.69 313.75 214.18 321.63 216.64 329.13 C 218.51 333.52 216.76 339.01 212.48 341.25 C 212.78 341.76 213.38 342.77 213.68 343.28 C 216.43 343.27 219.65 344.00 221.80 341.77 C 225.78 338.27 229.70 334.68 234.13 331.74 C 229.48 331.93 224.22 330.43 222.28 325.75 C 219.02 318.56 216.12 309.96 219.30 302.23 C 220.98 297.55 225.49 294.90 229.37 292.23 C 233.67 289.15 239.10 291.51 243.88 290.42 C 244.09 289.70 244.53 288.25 244.74 287.53 C 235.13 287.88 225.40 287.29 215.89 288.85 M 9.77 290.38 C 10.23 293.57 10.57 296.77 10.90 299.97 C 8.94 300.19 6.98 300.40 5.02 300.62 C 4.99 305.64 5.00 310.66 5.01 315.69 C 7.72 315.50 10.43 315.33 13.14 315.21 C 13.41 318.77 13.81 322.33 14.37 325.87 C 18.72 325.60 23.04 324.98 27.33 324.23 C 26.86 320.43 26.79 316.60 27.27 312.81 C 30.82 312.55 34.36 312.15 37.86 311.54 C 37.50 306.76 37.14 301.98 36.55 297.22 C 32.64 297.59 28.74 298.02 24.83 298.44 C 24.58 295.06 24.20 291.70 23.57 288.38 C 18.95 288.92 14.34 289.53 9.77 290.38 M 32.68 294.57 C 36.28 294.64 40.01 293.06 43.52 294.38 C 45.83 295.17 47.86 296.66 49.41 298.54 C 55.14 305.58 57.58 314.88 56.74 323.87 C 58.89 324.29 61.06 324.53 63.25 324.60 C 64.06 316.86 62.02 309.11 59.16 301.98 C 56.21 294.74 49.04 288.63 40.89 289.31 C 37.37 289.35 35.00 292.34 32.68 294.57 M 231.32 294.29 C 228.22 296.14 225.28 298.68 223.91 302.10 C 221.23 309.10 220.87 317.44 224.97 323.97 C 227.73 326.60 231.25 328.93 235.24 328.67 C 235.39 328.10 235.69 326.97 235.83 326.40 C 232.79 323.16 229.99 319.47 228.97 315.06 C 227.65 310.82 229.18 306.15 231.91 302.82 C 234.04 301.03 237.05 300.92 239.61 300.08 C 239.70 297.91 239.76 295.75 239.78 293.59 C 236.98 293.53 233.87 292.75 231.32 294.29 M 171.33 308.22 C 169.25 309.65 166.58 310.63 165.44 313.06 C 167.28 316.10 170.93 317.27 173.44 319.65 C 178.55 323.36 180.83 329.60 182.16 335.53 C 182.98 341.30 183.59 347.70 180.17 352.81 C 184.12 355.00 188.21 358.14 193.00 357.47 C 198.26 356.22 203.42 354.56 208.60 352.98 C 208.55 349.72 208.56 346.46 208.61 343.20 C 210.03 341.27 212.22 339.56 212.48 337.05 C 212.15 328.68 208.75 320.89 207.11 312.77 C 204.93 310.93 202.90 308.62 199.97 308.05 C 193.22 306.68 186.92 303.36 179.92 303.24 C 176.79 304.35 174.22 306.61 171.33 308.22 M 245.27 308.48 C 241.30 312.00 244.49 320.58 250.09 319.59 C 254.45 317.50 253.65 312.23 252.23 308.50 C 249.97 307.88 247.37 306.84 245.27 308.48 M 40.22 323.94 C 36.78 323.56 33.36 323.02 29.93 322.50 C 29.24 326.76 28.48 331.02 28.10 335.33 C 31.32 335.88 34.53 336.43 37.76 336.90 C 37.25 340.40 36.63 343.90 36.16 347.42 C 38.47 347.85 40.79 348.27 43.11 348.69 C 43.20 344.74 43.34 340.79 43.55 336.84 C 49.64 336.36 55.80 336.77 61.84 335.81 C 62.76 333.41 63.08 330.83 63.64 328.33 C 60.21 327.28 56.67 326.67 53.14 326.09 C 53.65 322.93 54.23 319.78 54.77 316.62 C 50.50 315.68 46.20 314.93 41.88 314.33 C 41.35 317.53 40.77 320.73 40.22 323.94 M 151.96 317.23 C 154.81 320.95 158.64 323.84 161.24 327.78 C 164.49 332.55 168.67 337.31 168.69 343.42 C 167.34 343.84 165.98 344.26 164.62 344.68 C 162.93 339.64 161.26 334.36 157.36 330.53 C 153.36 326.54 150.13 321.57 144.94 319.00 C 141.56 320.15 138.16 321.21 134.88 322.63 C 139.53 327.52 143.83 332.80 147.41 338.54 C 151.12 344.34 152.55 351.30 152.60 358.11 C 151.57 358.73 150.54 359.36 149.51 359.99 C 149.20 356.35 148.83 352.69 147.80 349.18 C 144.71 340.01 138.27 332.62 131.99 325.47 C 128.04 324.65 124.19 326.01 120.46 327.13 C 122.08 332.48 127.03 335.46 130.38 339.59 C 136.63 348.63 139.30 359.67 139.63 370.54 C 142.28 370.68 145.26 370.81 146.06 367.65 C 147.47 366.82 148.90 366.04 150.32 365.25 C 149.90 366.97 149.52 368.69 149.17 370.42 C 151.05 370.84 153.10 372.02 154.99 371.01 C 158.43 369.37 161.59 367.15 164.55 364.77 C 164.59 363.38 164.58 361.99 164.51 360.61 C 169.78 358.61 175.11 356.80 180.33 354.67 C 178.98 348.13 179.22 341.37 178.21 334.76 C 174.43 330.74 172.68 325.18 168.44 321.56 C 165.79 319.21 163.04 316.97 160.33 314.70 C 157.53 315.51 154.72 316.31 151.96 317.23 M 246.33 326.31 C 238.98 332.31 231.58 338.23 224.27 344.28 C 220.86 347.52 215.86 346.18 211.64 346.45 C 211.64 349.73 211.61 353.02 211.52 356.30 C 205.56 357.74 199.86 360.10 193.90 361.51 C 189.53 361.22 185.65 358.24 181.26 358.32 C 176.78 360.58 173.31 364.35 169.14 367.10 C 169.99 372.16 171.48 377.37 174.77 381.41 C 176.36 382.43 178.41 382.43 180.22 382.88 C 185.20 389.29 188.23 397.11 193.98 402.94 C 196.90 405.25 200.15 407.62 203.91 408.16 C 210.21 407.84 216.39 406.38 222.56 405.16 C 225.63 402.37 228.91 399.80 231.97 396.99 C 234.87 394.43 237.83 391.49 241.84 390.92 C 251.60 389.14 261.35 387.26 271.11 385.48 C 276.18 384.59 280.74 382.10 285.66 380.70 C 289.66 379.39 293.83 378.51 297.63 376.66 C 300.98 375.05 302.86 371.69 304.32 368.45 C 302.91 368.45 301.51 368.47 300.10 368.50 C 298.49 370.35 296.76 372.63 293.98 372.36 C 279.78 373.02 268.19 361.63 262.34 349.66 C 258.46 343.51 257.22 336.13 257.38 328.96 C 257.32 324.98 259.96 321.77 261.76 318.44 C 255.58 318.25 250.93 322.85 246.33 326.31 M 83.00 325.41 C 77.50 326.38 71.63 328.74 68.87 333.93 C 66.21 337.64 65.90 342.34 66.47 346.73 C 67.10 346.39 68.37 345.70 69.00 345.35 C 69.44 342.07 69.91 338.69 71.98 335.97 C 74.35 331.72 79.34 329.63 84.03 329.67 C 92.03 331.57 98.69 336.99 103.65 343.37 C 110.39 351.05 114.60 360.87 115.81 370.99 C 116.72 379.01 117.03 388.05 111.81 394.79 C 108.92 398.12 104.13 397.75 100.23 398.83 C 99.91 399.43 99.29 400.65 98.98 401.26 C 106.15 402.14 113.46 400.20 119.63 396.55 C 124.58 393.68 129.76 391.19 134.44 387.89 C 138.87 375.15 136.89 360.80 131.09 348.83 C 126.77 340.01 121.32 331.62 114.22 324.79 C 110.96 321.77 106.29 320.87 102.02 321.73 C 95.67 322.91 89.35 324.25 83.00 325.41 M 75.76 346.59 C 77.33 346.67 78.91 346.74 80.48 346.78 C 83.89 342.04 90.33 345.12 93.49 348.54 C 100.17 356.02 102.99 366.47 102.36 376.37 C 104.61 376.46 106.86 376.55 109.11 376.64 C 109.96 369.33 107.81 362.11 105.66 355.21 C 102.75 346.84 95.32 339.16 85.96 339.29 C 81.28 339.11 77.96 342.93 75.76 346.59 M 46.31 341.92 C 46.63 345.65 47.23 349.35 47.70 353.07 C 43.97 353.52 40.27 354.13 36.59 354.82 C 37.33 359.39 38.06 363.96 38.86 368.53 C 42.60 367.95 46.36 367.42 50.14 367.14 C 50.57 370.74 51.16 374.32 51.78 377.90 C 56.42 377.26 61.06 376.55 65.64 375.60 C 64.98 371.97 64.43 368.32 64.04 364.65 C 67.57 364.07 71.10 363.49 74.59 362.72 C 73.86 358.20 73.14 353.68 72.31 349.18 C 68.76 349.64 65.22 350.21 61.68 350.72 C 61.14 347.23 60.58 343.73 60.11 340.23 C 55.48 340.49 50.90 341.32 46.31 341.92 M 381.60 349.51 C 365.91 357.12 350.34 364.98 334.60 372.46 C 322.66 375.65 309.83 375.44 298.40 380.54 C 292.31 383.32 286.01 385.57 279.78 387.98 C 274.98 389.86 269.77 389.88 264.74 390.67 C 259.09 397.88 256.03 406.62 253.14 415.20 C 301.89 415.26 350.64 415.18 399.39 415.24 C 399.76 414.62 400.48 413.40 400.84 412.78 C 397.94 404.67 394.34 396.84 391.18 388.84 C 390.01 385.66 388.13 382.56 388.32 379.06 C 388.43 368.69 389.57 358.35 389.72 347.98 C 386.94 348.02 384.10 348.19 381.60 349.51 M 86.11 366.34 C 85.53 369.84 84.92 373.33 84.30 376.82 C 80.73 376.19 77.16 375.54 73.57 375.04 C 72.51 379.62 71.61 384.26 71.28 388.96 C 74.80 389.44 78.30 390.02 81.79 390.66 C 81.04 394.43 80.37 398.22 80.23 402.06 C 84.79 402.57 89.30 403.45 93.77 404.49 C 94.99 400.84 95.35 397.00 95.91 393.22 C 99.58 393.97 103.29 394.56 107.04 394.74 C 107.52 390.13 108.38 385.58 109.46 381.08 C 105.82 379.87 101.97 379.81 98.19 379.55 C 98.72 375.92 99.37 372.31 99.87 368.69 C 95.31 367.75 90.73 366.89 86.11 366.34 M 17.45 381.90 C 18.63 385.09 19.92 388.24 21.20 391.40 C 17.81 392.81 14.42 394.22 11.04 395.65 C 12.92 400.36 15.31 404.84 17.27 409.52 C 20.63 408.25 23.94 406.88 27.22 405.44 C 28.67 408.88 30.14 412.31 31.79 415.67 C 36.18 413.88 40.56 412.05 44.90 410.15 C 43.70 406.60 42.31 403.13 40.94 399.65 C 44.24 398.26 47.53 396.83 50.74 395.23 C 48.99 390.60 47.12 386.00 45.01 381.51 C 41.60 382.88 38.21 384.30 34.81 385.70 C 33.50 382.49 32.11 379.31 30.47 376.26 C 26.09 378.05 21.73 379.88 17.45 381.90 Z" />
<path fill="#f4722b" opacity="1.00" d=" M 157.21 26.22 C 160.42 23.28 165.01 24.10 168.98 23.98 C 206.97 24.07 244.96 24.01 282.95 24.01 C 287.15 24.11 291.44 23.58 295.57 24.49 C 299.70 26.22 303.15 30.25 302.71 34.95 C 302.69 50.72 302.77 66.49 302.65 82.25 C 299.39 84.72 296.21 88.68 291.63 87.44 C 291.60 81.28 291.74 75.12 291.66 68.96 C 291.69 64.79 289.31 61.17 287.47 57.60 C 285.59 53.89 281.86 51.79 278.61 49.45 C 273.87 45.97 267.85 44.32 262.04 44.26 C 255.71 46.16 249.71 49.04 243.57 51.48 C 244.22 52.15 244.88 52.82 245.54 53.49 C 242.27 55.82 237.32 56.96 236.11 61.26 C 234.80 64.76 233.95 68.42 232.57 71.89 C 231.08 75.89 225.59 77.35 225.48 82.02 C 224.71 86.56 227.83 90.68 232.05 92.03 C 231.28 94.26 230.51 96.50 229.78 98.75 C 233.67 103.80 231.50 110.17 231.76 115.97 C 231.88 120.95 231.46 125.95 231.99 130.91 C 234.76 133.58 239.46 131.71 243.02 132.29 C 243.60 134.23 244.20 136.17 244.80 138.11 C 241.53 142.72 237.95 147.09 234.66 151.68 C 232.47 154.41 234.51 158.48 231.94 161.07 C 226.64 170.23 222.82 180.18 218.08 189.64 C 214.31 187.15 210.78 184.23 206.70 182.24 C 201.11 181.15 195.33 181.73 189.66 181.41 C 188.60 182.79 187.56 184.18 186.54 185.58 C 184.43 185.97 182.32 186.36 180.21 186.75 C 179.02 188.07 177.83 189.38 176.63 190.70 C 175.09 190.30 173.55 189.89 172.01 189.50 C 170.14 190.79 168.25 192.08 166.37 193.36 C 166.35 194.06 166.31 195.46 166.30 196.16 C 164.49 197.38 162.68 198.58 160.86 199.79 C 160.84 200.49 160.80 201.88 160.78 202.58 C 158.24 204.83 155.46 207.21 154.71 210.69 C 151.20 223.14 147.76 235.60 144.20 248.02 C 142.13 249.44 140.16 251.05 137.83 252.03 C 134.51 252.39 131.18 251.80 127.86 251.70 C 120.69 256.07 114.35 262.24 105.99 264.26 C 94.61 267.53 83.36 271.18 72.01 274.53 C 69.77 272.49 67.49 270.34 64.56 269.35 C 61.77 268.25 58.74 269.04 55.91 269.50 C 50.51 270.55 45.12 271.58 39.71 272.53 C 39.74 231.35 39.70 190.18 39.73 149.01 C 39.60 143.88 43.21 137.89 48.88 138.12 C 83.60 138.00 118.32 138.11 153.04 138.07 C 153.06 103.69 153.01 69.31 153.06 34.93 C 152.92 31.55 154.32 28.11 157.21 26.22 Z" />
<path fill="#f5e5c1" opacity="1.00" d=" M 254.92 61.81 C 257.95 62.13 260.80 63.74 262.34 66.42 C 263.63 69.37 262.17 72.47 262.24 75.49 C 263.58 78.66 265.83 81.34 267.40 84.39 C 263.10 84.81 258.72 85.11 254.45 84.33 C 255.31 83.85 257.03 82.90 257.89 82.42 C 256.94 79.91 255.84 77.45 254.56 75.09 C 249.94 77.15 243.47 77.73 241.85 83.41 C 240.07 81.39 238.30 79.36 236.39 77.47 C 234.75 77.47 233.12 77.47 231.49 77.47 C 232.39 76.34 233.29 75.20 234.19 74.07 C 234.89 70.31 236.43 66.80 237.84 63.27 C 240.49 63.22 243.20 62.93 245.82 63.48 C 248.65 64.39 250.91 66.41 253.19 68.23 C 253.74 66.08 254.34 63.95 254.92 61.81 Z" />
<path fill="#f5e5c1" opacity="1.00" d=" M 250.40 79.66 C 251.68 79.56 252.95 79.53 254.24 79.59 C 254.47 80.29 254.94 81.69 255.17 82.39 C 253.50 81.62 251.92 80.68 250.40 79.66 Z" />
<path fill="#f5e5c1" opacity="1.00" d=" M 233.93 80.52 C 234.87 79.48 237.41 80.62 236.36 82.02 C 235.44 83.08 232.89 81.90 233.93 80.52 Z" />
<path fill="#f5e5c1" opacity="1.00" d=" M 272.68 88.66 C 274.72 84.73 278.60 81.76 283.02 81.19 C 285.72 80.89 287.42 83.81 288.08 86.05 C 289.49 94.10 282.95 101.69 275.73 104.24 C 274.56 107.48 274.12 111.18 271.79 113.84 C 266.34 118.68 259.74 121.94 253.48 125.56 C 248.01 128.63 241.59 130.33 235.41 128.52 C 234.56 122.87 234.04 117.12 234.58 111.41 C 241.13 110.68 247.72 110.29 254.30 109.85 C 247.59 108.99 240.80 108.90 234.07 108.29 C 234.13 106.53 234.21 104.77 234.30 103.01 C 238.52 101.81 242.83 100.90 246.97 99.42 C 246.14 98.29 245.16 97.27 244.23 96.23 C 241.00 97.38 237.40 99.77 234.06 97.58 C 235.53 93.81 237.24 90.11 238.16 86.14 C 242.55 85.68 243.44 90.89 246.84 92.60 C 249.85 91.86 252.77 90.58 254.12 87.57 C 258.17 86.99 262.33 86.36 266.34 87.57 C 266.45 88.40 266.66 90.06 266.77 90.89 C 268.84 90.45 271.75 91.14 272.68 88.66 M 276.78 86.61 C 278.59 86.35 280.39 85.99 282.19 85.64 C 282.77 88.11 283.31 90.58 283.66 93.09 C 281.89 95.03 280.10 96.96 278.48 99.03 C 281.85 97.13 284.92 94.04 285.50 90.08 C 285.51 87.61 285.20 84.51 283.05 82.94 C 280.71 83.68 278.69 85.11 276.78 86.61 M 277.07 90.38 C 276.79 93.00 276.25 95.58 275.56 98.12 C 277.29 96.50 278.99 94.86 280.65 93.16 C 280.12 92.26 279.60 91.37 279.09 90.47 C 278.41 90.44 277.74 90.41 277.07 90.38 M 235.88 116.01 C 236.64 117.83 239.08 116.23 240.53 116.56 C 240.57 116.00 240.64 114.88 240.68 114.32 C 239.14 114.86 236.12 113.77 235.88 116.01 Z" />
<path fill="#3e3e3e" opacity="1.00" d=" M 276.78 86.61 C 278.69 85.11 280.71 83.68 283.05 82.94 C 285.20 84.51 285.51 87.61 285.50 90.08 C 284.92 94.04 281.85 97.13 278.48 99.03 C 280.10 96.96 281.89 95.03 283.66 93.09 C 283.31 90.58 282.77 88.11 282.19 85.64 C 280.39 85.99 278.59 86.35 276.78 86.61 Z" />
<path fill="#3e3e3e" opacity="1.00" d=" M 277.07 90.38 C 277.74 90.41 278.41 90.44 279.09 90.47 C 279.60 91.37 280.12 92.26 280.65 93.16 C 278.99 94.86 277.29 96.50 275.56 98.12 C 276.25 95.58 276.79 93.00 277.07 90.38 Z" />
<path fill="#f5e5c1" opacity="1.00" d=" M 314.95 95.03 C 319.20 95.08 323.67 98.48 323.66 102.97 C 323.80 105.06 322.83 107.00 322.54 109.04 C 323.97 112.71 326.70 115.69 328.38 119.25 C 323.73 119.78 319.02 120.00 314.38 119.35 C 315.61 118.61 316.85 117.89 318.10 117.19 C 317.20 114.46 316.08 111.81 314.79 109.24 C 310.77 110.47 306.95 112.24 303.07 113.86 C 302.16 114.98 302.32 118.11 300.36 117.64 C 298.50 115.85 297.26 113.36 294.94 112.10 C 293.34 111.60 291.64 111.68 289.99 111.52 C 293.88 107.52 294.10 101.55 296.54 96.72 C 302.65 95.16 308.93 97.41 313.17 101.93 C 313.74 99.62 314.37 97.33 314.95 95.03 Z" />
<path fill="#f5e5c1" opacity="1.00" d=" M 274.70 112.68 C 276.35 109.72 276.70 105.80 279.96 104.00 C 280.80 107.85 282.85 111.20 284.93 114.47 C 281.91 116.35 278.65 117.80 275.65 119.71 C 267.24 125.47 257.78 129.70 250.12 136.54 C 249.74 136.61 248.98 136.74 248.59 136.80 C 248.00 135.22 247.42 133.62 246.87 132.03 C 254.09 128.93 260.63 124.51 267.08 120.08 C 269.91 117.98 273.10 115.96 274.70 112.68 Z" />
<path fill="#3e3e3e" opacity="1.00" d=" M 235.88 116.01 C 236.12 113.77 239.14 114.86 240.68 114.32 C 240.64 114.88 240.57 116.00 240.53 116.56 C 239.08 116.23 236.64 117.83 235.88 116.01 Z" />
<path fill="#f5e5c1" opacity="1.00" d=" M 311.01 113.52 C 312.68 113.97 314.33 114.45 315.99 114.96 C 314.97 115.65 313.97 116.35 312.95 117.03 C 312.29 115.86 311.64 114.69 311.01 113.52 Z" />
<path fill="#f5e5c1" opacity="1.00" d=" M 292.36 115.07 C 293.31 114.03 295.44 114.60 295.66 116.02 C 295.52 118.27 291.31 117.03 292.36 115.07 Z" />
<path fill="#f5e5c1" opacity="1.00" d=" M 333.15 125.47 C 335.54 119.85 340.83 115.97 346.94 115.42 C 351.08 119.44 351.86 125.94 348.94 130.90 C 346.08 135.07 342.36 138.80 337.61 140.73 C 335.56 144.09 335.93 148.92 332.51 151.49 C 326.51 156.45 319.55 160.03 312.77 163.78 C 307.10 166.63 299.94 169.14 293.92 166.03 C 293.10 160.04 293.07 153.90 293.38 147.86 C 300.36 147.81 307.31 147.07 314.25 146.36 C 307.10 145.20 299.82 145.32 292.61 144.80 C 292.68 143.02 292.76 141.23 292.85 139.45 C 297.52 137.73 302.43 136.81 307.11 135.10 C 305.75 134.15 304.47 133.07 303.00 132.32 C 300.57 132.89 298.34 134.08 295.89 134.55 C 294.28 134.96 292.73 133.56 293.26 131.95 C 294.37 128.28 296.33 124.90 297.07 121.09 C 300.63 120.51 301.86 123.81 303.69 126.08 C 305.91 128.67 309.35 126.79 312.05 126.25 C 312.64 125.03 313.23 123.80 313.82 122.57 C 318.27 122.17 322.81 121.22 327.20 122.57 C 327.42 123.84 327.63 125.11 327.85 126.38 C 329.61 126.07 331.38 125.76 333.15 125.47 M 338.52 121.61 C 340.44 121.31 342.33 120.90 344.24 120.51 C 345.04 123.30 345.71 126.14 345.63 129.07 C 343.76 131.01 341.94 133.00 340.32 135.15 C 343.44 133.19 346.35 130.54 347.53 126.94 C 348.36 123.53 347.17 120.10 345.53 117.14 C 343.10 118.47 340.70 119.88 338.52 121.61 M 339.00 124.96 C 338.83 128.03 338.11 131.02 337.20 133.96 C 339.18 132.06 341.09 130.10 342.85 128.01 C 341.59 126.97 340.30 125.94 339.00 124.96 M 294.64 151.71 C 294.52 152.37 294.27 153.69 294.15 154.35 C 296.02 154.08 297.88 153.75 299.75 153.44 C 299.73 152.96 299.67 152.02 299.65 151.54 C 297.97 151.58 296.30 151.64 294.64 151.71 Z" />
<path fill="#f5e5c1" opacity="1.00" d=" M 253.96 135.74 C 264.21 129.26 274.12 122.14 285.26 117.21 C 284.80 122.16 285.87 127.15 288.98 131.11 C 282.19 131.64 275.72 134.18 270.02 137.85 C 263.91 141.86 257.89 146.25 253.35 152.06 C 256.47 153.07 259.62 154.02 262.84 154.66 C 267.28 151.04 272.80 149.22 278.15 147.42 C 281.83 146.07 285.79 146.26 289.64 146.37 C 290.37 151.57 290.40 156.82 290.32 162.06 C 290.35 164.12 290.13 166.58 291.92 168.05 C 295.51 171.59 299.24 174.99 302.86 178.50 C 299.73 182.20 297.04 186.22 294.00 189.98 C 291.34 192.63 292.54 196.76 290.89 199.90 C 285.93 210.57 281.02 221.27 276.11 231.97 C 272.07 229.97 268.41 227.07 264.03 225.87 C 258.10 225.54 252.14 225.89 246.20 225.73 C 248.18 222.08 250.16 218.42 251.87 214.64 C 252.10 214.47 252.55 214.14 252.78 213.98 C 251.22 213.71 249.67 213.43 248.12 213.14 C 249.27 210.98 250.74 209.02 251.87 206.86 C 250.76 203.22 248.04 200.02 248.25 196.03 C 248.12 183.85 253.04 172.30 258.87 161.85 C 255.18 161.49 251.62 160.39 247.96 159.86 C 244.99 165.47 244.83 171.96 243.39 178.02 C 241.56 184.85 241.14 191.94 239.90 198.89 C 238.65 205.60 240.62 212.32 240.13 219.05 C 240.03 221.45 242.32 222.98 243.52 224.81 C 242.71 226.24 241.90 227.68 241.10 229.11 C 239.15 229.23 237.14 229.07 235.24 229.63 C 233.70 231.10 232.46 232.84 231.17 234.52 C 229.48 234.61 227.79 234.71 226.11 234.80 C 221.34 238.49 217.99 244.41 211.74 245.79 C 211.30 246.83 210.85 247.88 210.40 248.93 C 211.42 243.81 213.12 238.86 214.86 233.95 C 216.70 228.43 217.21 222.60 218.32 216.92 C 219.75 209.93 219.18 202.62 221.56 195.82 C 224.09 188.96 226.44 182.02 229.48 175.36 C 231.71 170.30 233.15 164.37 237.59 160.74 C 237.50 157.76 236.53 154.36 238.76 151.90 C 243.25 146.04 247.39 139.51 253.96 135.74 M 237.38 168.42 C 234.69 170.47 235.30 173.99 235.54 176.91 C 237.22 176.70 239.28 176.97 240.49 175.51 C 242.11 173.44 241.53 170.60 241.83 168.17 C 240.37 167.99 238.48 166.85 237.38 168.42 M 269.28 174.26 C 260.00 175.93 253.27 185.70 255.09 194.96 C 256.41 203.38 264.39 210.34 273.02 209.81 C 282.16 210.20 290.62 202.08 290.73 192.96 C 291.15 187.16 288.41 181.58 284.78 177.23 C 280.53 173.73 274.53 173.05 269.28 174.26 M 224.35 207.35 C 224.35 210.34 222.92 213.72 224.56 216.48 C 225.41 218.24 227.68 217.33 229.23 217.63 C 230.09 213.50 230.57 209.22 229.17 205.15 C 227.53 205.83 225.92 206.55 224.35 207.35 Z" />
<path fill="#3e3e3e" opacity="1.00" d=" M 338.52 121.61 C 340.70 119.88 343.10 118.47 345.53 117.14 C 347.17 120.10 348.36 123.53 347.53 126.94 C 346.35 130.54 343.44 133.19 340.32 135.15 C 341.94 133.00 343.76 131.01 345.63 129.07 C 345.71 126.14 345.04 123.30 344.24 120.51 C 342.33 120.90 340.44 121.31 338.52 121.61 Z" />
<path fill="#3e3e3e" opacity="1.00" d=" M 339.00 124.96 C 340.30 125.94 341.59 126.97 342.85 128.01 C 341.09 130.10 339.18 132.06 337.20 133.96 C 338.11 131.02 338.83 128.03 339.00 124.96 Z" />
<path fill="#f4722b" opacity="1.00" d=" M 346.92 138.14 C 359.85 138.00 372.79 138.10 385.72 138.08 C 385.71 141.18 385.70 144.29 385.69 147.39 C 383.36 147.48 381.04 147.59 378.73 147.72 C 379.00 155.51 379.51 163.32 379.12 171.11 C 379.25 172.74 378.11 173.94 377.00 174.96 C 371.02 170.44 364.20 166.06 360.97 159.00 C 358.95 155.13 356.85 151.31 354.75 147.49 C 353.58 147.46 352.41 147.43 351.25 147.39 C 349.81 144.31 348.35 141.22 346.92 138.14 Z" />
<path fill="#f5e5c1" opacity="1.00" d=" M 339.01 143.16 C 339.41 141.71 340.89 141.22 342.04 140.53 C 342.97 144.67 345.28 148.22 347.14 151.96 C 344.22 153.43 341.20 154.72 338.42 156.44 C 329.26 162.75 319.10 167.51 310.45 174.58 C 307.71 177.31 307.20 172.31 306.15 170.64 C 315.49 166.20 324.23 160.58 332.45 154.31 C 336.15 151.69 337.23 147.07 339.01 143.16 Z" />
<path fill="#f5e5c1" opacity="1.00" d=" M 389.33 140.73 C 396.71 141.43 404.13 140.95 411.52 141.39 C 411.71 144.65 411.74 147.91 411.75 151.18 C 412.83 151.18 413.91 151.19 415.00 151.19 C 414.99 153.33 415.00 155.47 415.00 157.62 C 404.06 157.65 393.12 157.54 382.18 157.63 C 382.22 155.37 382.28 153.11 382.39 150.85 C 384.82 150.86 387.25 150.85 389.69 150.84 C 389.67 147.46 389.60 144.09 389.33 140.73 Z" />
<path fill="#3e3e3e" opacity="1.00" d=" M 294.64 151.71 C 296.30 151.64 297.97 151.58 299.65 151.54 C 299.67 152.02 299.73 152.96 299.75 153.44 C 297.88 153.75 296.02 154.08 294.15 154.35 C 294.27 153.69 294.52 152.37 294.64 151.71 Z" />
<path fill="#f5e5c1" opacity="1.00" d=" M 327.00 166.07 C 334.80 160.68 343.16 155.85 352.30 153.17 C 355.23 156.32 356.99 160.26 358.92 164.05 C 360.37 167.15 363.22 169.16 365.80 171.25 C 369.51 174.15 372.49 177.90 376.45 180.51 C 380.45 183.56 385.09 185.78 388.82 189.17 C 389.40 191.04 389.29 193.03 389.53 194.96 C 388.02 195.26 386.50 195.52 384.99 195.76 C 380.88 190.65 376.79 185.39 371.47 181.47 C 366.12 177.23 362.03 170.65 354.82 169.43 C 345.23 168.84 336.17 173.20 328.46 178.50 C 322.99 182.41 317.48 186.49 313.45 191.96 C 316.84 193.03 320.24 194.12 323.77 194.60 C 328.46 190.58 334.52 188.86 340.26 186.92 C 347.16 184.65 355.30 185.29 361.20 189.78 C 367.72 193.78 373.14 199.38 377.10 205.92 C 380.39 212.49 384.76 218.56 386.37 225.85 C 378.22 253.63 370.45 281.51 362.24 309.27 C 353.09 319.19 345.09 330.12 336.43 340.46 C 330.98 347.04 325.72 353.78 320.19 360.29 C 318.50 362.46 315.71 363.14 313.10 363.35 C 303.65 363.87 294.28 365.63 284.79 365.36 C 280.50 361.88 275.51 359.31 271.53 355.44 C 267.61 351.28 266.17 345.59 264.42 340.31 C 262.66 335.07 262.62 329.21 264.66 324.05 C 271.47 321.17 277.72 317.16 283.07 312.06 C 286.33 308.58 291.42 307.88 294.66 304.42 C 296.59 303.95 298.54 303.52 300.49 303.11 C 300.48 296.42 300.44 289.73 300.48 283.03 C 300.32 280.42 301.76 278.17 302.99 275.99 C 306.29 270.38 309.16 264.54 312.11 258.74 C 310.85 258.33 309.59 257.91 308.35 257.49 C 308.35 257.02 308.35 256.07 308.35 255.59 C 309.62 254.04 310.87 252.47 312.13 250.92 C 310.26 247.15 307.80 243.42 307.63 239.10 C 307.99 226.10 312.78 213.68 319.24 202.55 C 315.26 202.14 311.45 200.59 307.46 200.46 C 304.39 206.52 304.19 213.47 302.61 219.98 C 300.67 227.17 300.24 234.65 298.94 241.96 C 297.52 249.64 299.76 257.34 298.96 265.03 C 299.91 266.84 301.37 268.28 302.66 269.84 C 300.04 275.24 297.09 280.77 296.72 286.89 C 296.72 291.67 297.30 296.61 295.44 301.16 C 289.51 302.45 284.24 305.74 279.89 309.89 C 277.09 312.42 274.74 315.59 271.28 317.27 C 268.71 318.59 266.15 319.91 263.59 321.25 C 264.54 315.91 264.42 310.46 265.48 305.14 C 267.44 296.75 268.54 288.12 271.93 280.12 C 274.98 269.56 276.23 258.57 277.28 247.66 C 277.92 240.00 281.62 233.16 283.93 225.94 C 287.07 218.10 290.32 210.32 293.97 202.71 C 294.65 202.54 296.00 202.19 296.67 202.01 C 296.41 199.64 296.08 197.28 295.69 194.93 C 299.03 189.37 303.21 184.40 307.37 179.45 C 313.24 174.09 320.44 170.49 327.00 166.07 M 293.70 213.96 C 293.76 215.68 294.32 217.34 294.71 219.00 C 296.28 218.60 298.01 218.43 299.30 217.35 C 301.14 215.28 300.63 212.32 300.99 209.80 C 299.91 209.23 298.84 208.66 297.77 208.09 C 296.10 209.78 294.02 211.46 293.70 213.96 M 329.24 216.10 C 321.02 218.28 314.50 226.37 315.12 235.03 C 314.56 246.30 326.02 255.85 336.98 253.92 C 345.44 252.82 352.68 245.47 353.47 236.95 C 354.24 230.35 351.17 223.89 347.06 218.91 C 342.10 215.04 335.17 214.71 329.24 216.10 M 281.69 252.19 C 281.73 254.97 281.65 257.74 281.51 260.52 C 283.07 262.03 285.10 262.54 287.22 262.62 C 288.44 258.17 288.93 253.42 287.23 249.02 C 285.13 249.61 283.25 250.69 281.69 252.19 M 276.57 287.32 C 276.13 290.81 275.88 294.74 278.23 297.68 C 280.07 297.77 281.91 297.57 283.75 297.47 C 284.66 293.61 286.51 288.83 283.29 285.51 C 280.90 285.38 278.74 286.49 276.57 287.32 Z" />
<path fill="#f5e5c1" opacity="1.00" d=" M 382.65 161.39 C 391.26 161.01 399.85 160.73 408.47 160.67 C 406.79 161.90 405.14 163.15 403.48 164.41 C 396.60 164.56 389.73 164.30 382.85 164.10 C 382.78 163.19 382.71 162.29 382.65 161.39 Z" />
<path fill="#f5e5c1" opacity="1.00" d=" M 404.55 168.62 C 406.91 164.83 411.05 162.86 414.96 161.06 C 415.02 181.28 415.04 201.50 414.95 221.73 C 410.90 221.71 406.90 221.06 402.92 220.38 C 402.51 207.22 401.22 194.11 400.63 180.96 C 400.34 176.52 402.27 172.30 404.55 168.62 Z" />
<path fill="#f5e5c1" opacity="1.00" d=" M 383.24 167.69 C 389.41 167.70 395.59 167.72 401.76 167.66 C 401.36 168.54 400.97 169.42 400.58 170.29 C 394.73 170.52 388.91 169.95 383.08 169.61 C 383.12 169.13 383.20 168.17 383.24 167.69 Z" />
<path fill="#3e3e3e" opacity="1.00" d=" M 237.38 168.42 C 238.48 166.85 240.37 167.99 241.83 168.17 C 241.53 170.60 242.11 173.44 240.49 175.51 C 239.28 176.97 237.22 176.70 235.54 176.91 C 235.30 173.99 234.69 170.47 237.38 168.42 Z" />
<path fill="#f4722b" opacity="1.00" d=" M 269.28 174.26 C 274.53 173.05 280.53 173.73 284.78 177.23 C 288.41 181.58 291.15 187.16 290.73 192.96 C 290.62 202.08 282.16 210.20 273.02 209.81 C 264.39 210.34 256.41 203.38 255.09 194.96 C 253.27 185.70 260.00 175.93 269.28 174.26 M 266.38 177.54 C 259.32 180.49 255.41 189.47 258.64 196.55 C 261.36 203.85 270.34 207.72 277.51 204.69 C 285.24 201.92 288.98 192.08 285.38 184.79 C 282.37 177.74 273.31 174.44 266.38 177.54 Z" />
<path fill="#f5e5c1" opacity="1.00" d=" M 382.19 173.41 C 387.76 173.69 393.34 173.59 398.93 173.58 C 398.58 175.57 398.28 177.58 398.03 179.59 C 395.25 180.36 392.36 180.48 389.49 180.40 C 389.54 178.62 389.60 176.84 389.66 175.05 C 387.20 175.02 384.74 174.98 382.29 174.96 L 382.19 173.41 Z" />
<path fill="#3e3e3e" opacity="1.00" d=" M 266.38 177.54 C 273.31 174.44 282.37 177.74 285.38 184.79 C 288.98 192.08 285.24 201.92 277.51 204.69 C 270.34 207.72 261.36 203.85 258.64 196.55 C 255.41 189.47 259.32 180.49 266.38 177.54 M 270.03 178.01 C 269.56 179.87 269.06 181.73 268.56 183.59 C 266.69 183.13 264.83 182.67 262.96 182.25 C 262.35 184.89 261.37 187.51 261.42 190.26 C 262.94 191.03 264.55 191.58 266.14 192.18 C 265.47 194.88 264.72 197.57 263.99 200.27 C 266.61 201.03 269.25 201.74 271.89 202.42 C 272.65 199.77 273.47 197.15 274.35 194.54 C 276.50 195.08 278.65 195.72 280.88 195.91 C 282.46 193.31 283.19 190.32 284.08 187.44 C 281.82 186.96 279.55 186.49 277.28 186.03 C 277.78 183.93 278.31 181.83 278.79 179.73 C 275.88 179.10 272.96 178.52 270.03 178.01 Z" />
<path fill="#f4722b" opacity="1.00" d=" M 270.03 178.01 C 272.96 178.52 275.88 179.10 278.79 179.73 C 278.31 181.83 277.78 183.93 277.28 186.03 C 279.55 186.49 281.82 186.96 284.08 187.44 C 283.19 190.32 282.46 193.31 280.88 195.91 C 278.65 195.72 276.50 195.08 274.35 194.54 C 273.47 197.15 272.65 199.77 271.89 202.42 C 269.25 201.74 266.61 201.03 263.99 200.27 C 264.72 197.57 265.47 194.88 266.14 192.18 C 264.55 191.58 262.94 191.03 261.42 190.26 C 261.37 187.51 262.35 184.89 262.96 182.25 C 264.83 182.67 266.69 183.13 268.56 183.59 C 269.06 181.73 269.56 179.87 270.03 178.01 Z" />
<path fill="#f4722b" opacity="1.00" d=" M 192.46 186.30 C 197.24 186.35 202.07 186.12 206.83 186.72 C 210.83 188.69 214.10 191.86 217.91 194.17 C 217.82 194.96 217.63 196.55 217.54 197.34 C 213.55 195.43 209.80 193.08 205.93 190.94 C 204.08 198.74 203.07 206.69 202.18 214.63 C 202.12 216.98 199.82 218.08 197.88 218.71 C 193.99 219.86 189.88 219.56 185.88 219.55 C 185.23 218.30 184.59 217.05 183.94 215.80 C 178.09 216.69 172.19 216.06 166.48 214.63 C 165.60 210.47 165.21 206.23 165.16 201.99 C 167.96 201.15 170.13 199.28 171.75 196.90 C 173.09 194.49 176.15 195.49 178.38 195.14 C 179.54 193.65 180.69 192.16 181.83 190.66 C 185.76 190.26 189.70 189.34 192.46 186.30 Z" />
<path fill="#f5e5c1" opacity="1.00" d=" M 208.81 200.86 C 212.15 201.34 214.49 203.94 216.31 206.57 C 217.44 208.13 216.20 209.95 215.75 211.52 C 212.60 219.21 209.49 226.92 206.61 234.72 C 203.31 242.45 199.88 250.13 197.19 258.10 C 194.34 257.63 191.20 255.73 188.39 257.29 C 185.36 259.51 184.75 263.54 184.39 267.02 C 185.64 269.23 186.81 271.48 187.88 273.78 C 183.77 273.76 178.64 270.65 179.44 265.97 C 179.65 263.70 180.15 261.38 181.33 259.41 C 183.19 256.86 185.82 254.86 187.04 251.86 C 190.39 244.44 194.23 237.23 197.30 229.68 C 192.34 229.71 187.36 229.06 182.42 229.77 C 175.90 230.83 169.36 231.74 162.84 232.85 C 161.49 235.45 160.62 238.42 158.62 240.62 C 155.08 243.11 151.26 245.22 147.35 247.09 C 150.50 237.34 153.67 227.59 156.54 217.76 C 157.76 213.32 158.61 207.76 163.33 205.65 C 163.30 212.68 164.66 219.87 162.23 226.66 C 170.20 225.73 178.04 223.85 186.07 223.38 C 191.58 222.59 197.90 223.24 202.48 219.52 C 205.16 215.50 205.98 210.59 206.88 205.93 C 207.53 204.25 208.17 202.55 208.81 200.86 Z" />
<path fill="#3e3e3e" opacity="1.00" d=" M 224.35 207.35 C 225.92 206.55 227.53 205.83 229.17 205.15 C 230.57 209.22 230.09 213.50 229.23 217.63 C 227.68 217.33 225.41 218.24 224.56 216.48 C 222.92 213.72 224.35 210.34 224.35 207.35 Z" />
<path fill="#3e3e3e" opacity="1.00" d=" M 293.70 213.96 C 294.02 211.46 296.10 209.78 297.77 208.09 C 298.84 208.66 299.91 209.23 300.99 209.80 C 300.63 212.32 301.14 215.28 299.30 217.35 C 298.01 218.43 296.28 218.60 294.71 219.00 C 294.32 217.34 293.76 215.68 293.70 213.96 Z" />
<path fill="#f4722b" opacity="1.00" d=" M 329.24 216.10 C 335.17 214.71 342.10 215.04 347.06 218.91 C 351.17 223.89 354.24 230.35 353.47 236.95 C 352.68 245.47 345.44 252.82 336.98 253.92 C 326.02 255.85 314.56 246.30 315.12 235.03 C 314.50 226.37 321.02 218.28 329.24 216.10 M 329.37 218.62 C 320.57 220.75 315.10 231.59 319.07 239.85 C 322.37 248.34 333.57 252.44 341.36 247.41 C 349.49 242.97 351.82 231.22 345.88 224.07 C 342.15 219.04 335.33 217.16 329.37 218.62 Z" />
<path fill="#3e3e3e" opacity="1.00" d=" M 329.37 218.62 C 335.33 217.16 342.15 219.04 345.88 224.07 C 351.82 231.22 349.49 242.97 341.36 247.41 C 333.57 252.44 322.37 248.34 319.07 239.85 C 315.10 231.59 320.57 220.75 329.37 218.62 M 331.30 219.76 C 330.82 221.74 330.35 223.73 329.88 225.71 C 327.85 225.24 325.82 224.76 323.80 224.30 C 323.00 227.21 322.23 230.13 321.54 233.07 C 323.45 233.68 325.36 234.28 327.29 234.88 C 326.45 237.85 325.58 240.80 324.75 243.77 C 327.53 244.58 330.32 245.35 333.12 246.12 C 334.01 243.22 334.94 240.34 335.89 237.47 C 338.30 238.13 340.72 238.79 343.14 239.43 C 344.36 236.29 345.38 233.08 346.15 229.80 C 343.75 229.33 341.37 228.83 338.99 228.31 C 339.59 226.13 340.21 223.96 340.79 221.78 C 337.65 221.00 334.47 220.38 331.30 219.76 Z" />
<path fill="#f4722b" opacity="1.00" d=" M 331.30 219.76 C 334.47 220.38 337.65 221.00 340.79 221.78 C 340.21 223.96 339.59 226.13 338.99 228.31 C 341.37 228.83 343.75 229.33 346.15 229.80 C 345.38 233.08 344.36 236.29 343.14 239.43 C 340.72 238.79 338.30 238.13 335.89 237.47 C 334.94 240.34 334.01 243.22 333.12 246.12 C 330.32 245.35 327.53 244.58 324.75 243.77 C 325.58 240.80 326.45 237.85 327.29 234.88 C 325.36 234.28 323.45 233.68 321.54 233.07 C 322.23 230.13 323.00 227.21 323.80 224.30 C 325.82 224.76 327.85 225.24 329.88 225.71 C 330.35 223.73 330.82 221.74 331.30 219.76 Z" />
<path fill="#f5e5c1" opacity="1.00" d=" M 400.14 224.41 C 405.13 224.31 410.04 225.26 415.00 225.69 C 414.99 231.67 415.02 237.65 414.97 243.63 C 410.31 243.46 405.75 242.36 401.40 240.74 C 401.50 236.11 401.15 231.49 401.40 226.87 C 400.97 226.05 400.55 225.23 400.14 224.41 Z" />
<path fill="#f4722b" opacity="1.00" d=" M 240.00 232.72 C 243.27 232.79 245.73 230.66 247.98 228.57 C 253.08 228.54 258.18 228.74 263.28 228.77 C 266.96 231.52 270.86 233.95 274.50 236.76 C 276.08 237.65 274.71 239.51 274.71 240.83 C 270.64 238.49 266.67 235.95 262.54 233.72 C 260.14 242.75 258.97 252.05 258.16 261.34 C 253.04 264.74 246.73 264.64 240.83 264.44 C 240.16 263.14 239.50 261.83 238.85 260.53 C 233.02 260.61 226.99 261.28 221.36 259.36 C 220.42 259.16 219.88 258.58 219.72 257.63 C 218.63 253.51 218.49 249.21 218.48 244.97 C 219.77 244.78 221.06 244.59 222.36 244.41 C 223.93 242.33 225.48 240.23 227.06 238.15 C 229.03 238.16 231.00 238.15 232.97 238.14 C 234.74 235.66 236.45 232.50 240.00 232.72 Z" />
<path fill="#f5e5c1" opacity="1.00" d=" M 158.94 243.97 C 161.09 242.77 163.40 241.67 165.91 241.59 C 173.65 241.28 181.40 241.11 189.15 241.16 C 189.14 241.84 189.13 243.19 189.12 243.87 C 184.35 244.34 178.96 242.64 174.78 245.72 C 171.49 248.01 167.68 250.21 166.09 254.11 C 162.73 261.63 165.48 270.17 168.89 277.16 C 170.66 281.15 175.37 281.98 179.23 282.43 C 176.22 284.67 173.25 286.97 170.50 289.53 C 168.76 291.02 167.03 292.82 164.67 293.20 C 162.86 293.34 161.10 292.70 159.40 292.14 C 161.62 289.43 163.88 286.72 164.42 283.11 C 161.84 275.01 159.73 266.76 156.91 258.74 C 151.42 257.83 145.91 256.86 140.63 255.02 C 146.44 250.88 152.69 247.41 158.94 243.97 Z" />
<path fill="#f5e5c1" opacity="1.00" d=" M 264.97 244.70 C 269.69 244.14 272.00 248.81 274.55 251.88 C 270.51 261.77 266.54 271.69 262.72 281.67 C 259.08 289.58 256.06 297.75 252.83 305.83 C 249.82 305.29 246.88 303.68 243.77 304.70 C 240.40 307.26 239.38 311.72 239.37 315.76 C 240.68 318.00 241.89 320.29 242.98 322.64 C 239.51 323.00 236.96 320.61 234.42 318.69 C 234.10 314.80 233.81 310.50 236.05 307.09 C 237.99 304.65 240.59 302.69 241.81 299.73 C 245.61 291.62 249.37 283.49 253.25 275.41 C 247.56 275.44 241.84 274.65 236.20 275.59 C 229.44 276.65 222.65 277.56 215.93 278.87 C 214.65 281.60 213.34 284.33 212.04 287.06 C 207.84 289.35 203.86 292.04 199.49 293.99 C 203.50 281.65 207.45 269.27 210.87 256.76 C 211.81 253.72 213.59 250.92 216.48 249.45 C 216.68 253.60 216.67 257.77 217.11 261.91 C 217.71 265.35 215.92 268.51 215.60 271.87 C 218.75 271.94 221.83 271.16 224.91 270.60 C 232.54 269.20 240.29 268.57 248.02 267.95 C 251.80 267.39 256.18 266.88 258.98 264.01 C 262.48 258.14 262.82 251.08 264.97 244.70 Z" />
<path fill="#f5e5c1" opacity="1.00" d=" M 401.48 245.04 C 405.98 245.55 410.47 246.19 415.00 246.33 C 414.98 252.94 415.04 259.55 414.95 266.16 C 410.78 264.16 405.69 262.66 403.59 258.11 C 401.85 254.00 401.53 249.45 401.48 245.04 Z" />
<path fill="#f5e5c1" opacity="1.00" d=" M 170.22 254.33 C 172.62 249.33 178.47 244.84 184.24 246.84 C 186.37 248.09 184.51 250.86 184.62 252.80 C 182.22 253.58 179.45 253.75 177.46 255.40 C 174.60 258.74 173.60 263.61 175.10 267.78 C 176.34 271.87 179.26 275.09 181.99 278.26 C 177.96 280.66 173.97 277.53 171.03 274.88 C 167.34 268.77 167.64 260.81 170.22 254.33 Z" />
<path fill="#3e3e3e" opacity="1.00" d=" M 281.69 252.19 C 283.25 250.69 285.13 249.61 287.23 249.02 C 288.93 253.42 288.44 258.17 287.22 262.62 C 285.10 262.54 283.07 262.03 281.51 260.52 C 281.65 257.74 281.73 254.97 281.69 252.19 Z" />
<path fill="#f5e5c1" opacity="1.00" d=" M 117.50 262.70 C 121.20 260.12 125.20 257.98 128.93 255.42 C 135.54 256.31 141.78 258.66 148.21 260.29 C 150.70 260.89 152.51 262.82 154.43 264.38 C 156.06 271.96 159.12 279.27 159.52 287.08 C 159.02 289.45 157.13 291.21 155.79 293.15 C 155.77 296.13 155.75 299.10 155.71 302.08 C 150.46 303.43 145.35 305.41 140.01 306.32 C 136.54 305.96 133.47 304.12 130.48 302.46 C 125.70 305.68 119.94 306.79 114.73 309.09 C 114.76 310.40 114.82 311.71 114.74 313.03 C 110.80 316.41 105.90 319.83 100.41 318.47 C 100.81 316.86 101.24 315.27 101.69 313.69 C 100.43 314.14 99.18 314.58 97.92 315.02 C 97.33 316.12 96.75 317.23 96.17 318.34 C 94.68 318.32 93.19 318.30 91.70 318.28 C 91.40 308.49 89.00 298.65 83.68 290.34 C 80.66 285.98 75.68 283.17 73.75 278.02 C 76.21 277.26 78.67 276.49 81.10 275.66 C 82.34 275.98 83.57 276.31 84.81 276.63 C 92.80 285.49 101.22 295.82 100.70 308.49 C 101.45 308.08 102.93 307.27 103.68 306.86 C 103.73 301.11 102.70 295.26 99.91 290.18 C 96.55 284.06 91.86 278.82 87.25 273.64 C 91.07 272.63 95.49 268.85 99.21 271.83 C 102.78 274.58 105.39 278.36 108.59 281.51 C 111.97 284.82 113.32 289.46 114.75 293.83 C 116.05 293.69 117.35 293.55 118.65 293.41 C 118.47 291.37 118.49 289.24 117.51 287.39 C 113.85 280.37 108.73 274.22 102.95 268.85 C 105.59 267.87 108.28 267.04 110.98 266.25 C 113.77 268.73 116.72 271.03 119.43 273.60 C 122.61 276.93 124.32 281.35 127.40 284.77 C 128.49 290.68 128.66 296.69 128.86 302.68 C 133.42 295.96 132.20 286.99 129.50 279.79 C 127.38 273.28 121.41 269.31 115.91 265.84 C 116.37 264.77 116.41 263.36 117.50 262.70 M 126.32 265.42 C 129.22 267.91 132.08 270.47 135.17 272.72 C 137.73 271.48 139.55 269.19 141.58 267.28 C 139.10 265.01 136.75 262.58 134.62 259.98 C 131.79 261.70 129.05 263.55 126.32 265.42 M 136.54 280.65 C 137.00 282.44 137.41 284.24 137.78 286.05 C 140.51 285.53 143.22 284.91 145.93 284.28 C 145.48 282.28 144.97 280.30 144.44 278.33 C 141.82 279.13 139.17 279.87 136.54 280.65 M 139.41 295.38 C 137.99 297.28 137.15 299.54 136.14 301.68 C 140.40 301.65 144.47 300.35 148.54 299.25 C 148.29 297.36 148.03 295.48 147.73 293.60 C 144.97 294.27 142.12 294.52 139.41 295.38 Z" />
<path fill="#3e3e3e" opacity="1.00" d=" M 126.32 265.42 C 129.05 263.55 131.79 261.70 134.62 259.98 C 136.75 262.58 139.10 265.01 141.58 267.28 C 139.55 269.19 137.73 271.48 135.17 272.72 C 132.08 270.47 129.22 267.91 126.32 265.42 Z" />
<path fill="#f5e5c1" opacity="1.00" d=" M 191.98 259.67 C 196.86 258.52 199.08 265.29 196.80 268.73 C 195.77 271.19 192.06 271.59 190.41 269.56 C 187.47 267.01 187.52 260.50 191.98 259.67 Z" />
<path fill="#f4722b" opacity="1.00" d=" M 192.72 275.72 C 196.04 272.98 199.79 270.80 203.79 269.20 C 201.53 277.29 200.30 285.69 197.58 293.64 C 194.50 296.25 191.12 298.62 187.52 300.47 C 184.32 301.06 181.11 299.69 177.96 299.28 C 172.66 302.87 167.47 306.63 162.07 310.08 C 156.88 309.93 152.56 313.11 147.86 314.78 C 139.20 318.04 130.40 320.91 121.67 323.97 C 120.65 321.13 119.72 318.27 119.01 315.34 C 122.91 312.32 126.72 309.15 130.81 306.36 C 134.51 307.64 138.23 308.87 141.93 310.15 C 147.47 308.34 153.01 306.52 158.62 304.91 C 158.67 301.86 158.69 298.80 158.69 295.75 C 162.68 295.47 167.46 296.81 170.66 293.70 C 178.01 287.70 185.37 281.72 192.72 275.72 Z" />
<path fill="#f5e5c1" opacity="1.00" d=" M 411.39 269.36 C 412.29 269.65 414.10 270.24 415.00 270.54 C 414.95 275.88 415.19 281.22 414.73 286.55 C 411.51 281.42 411.56 275.19 411.39 269.36 Z" />
<path fill="#f5e5c1" opacity="1.00" d=" M 36.26 276.85 C 43.18 275.43 50.14 274.16 57.07 272.78 C 61.49 271.83 66.15 273.51 69.15 276.84 C 80.58 288.78 88.81 304.52 89.38 321.27 C 82.63 322.47 75.53 323.04 69.62 326.88 C 70.67 314.36 65.93 301.71 57.67 292.37 C 53.33 286.97 47.65 282.37 40.89 280.49 C 34.96 279.44 29.21 283.34 27.24 288.90 C 27.38 286.50 27.16 284.08 27.64 281.72 C 29.70 279.01 33.19 277.95 36.26 276.85 Z" />
<path fill="#3e3e3e" opacity="1.00" d=" M 136.54 280.65 C 139.17 279.87 141.82 279.13 144.44 278.33 C 144.97 280.30 145.48 282.28 145.93 284.28 C 143.22 284.91 140.51 285.53 137.78 286.05 C 137.41 284.24 137.00 282.44 136.54 280.65 Z" />
<path fill="#3e3e3e" opacity="1.00" d=" M 276.57 287.32 C 278.74 286.49 280.90 285.38 283.29 285.51 C 286.51 288.83 284.66 293.61 283.75 297.47 C 281.91 297.57 280.07 297.77 278.23 297.68 C 275.88 294.74 276.13 290.81 276.57 287.32 Z" />
<path fill="#f5e5c1" opacity="1.00" d=" M 215.89 288.85 C 225.40 287.29 235.13 287.88 244.74 287.53 C 244.53 288.25 244.09 289.70 243.88 290.42 C 239.10 291.51 233.67 289.15 229.37 292.23 C 225.49 294.90 220.98 297.55 219.30 302.23 C 216.12 309.96 219.02 318.56 222.28 325.75 C 224.22 330.43 229.48 331.93 234.13 331.74 C 229.70 334.68 225.78 338.27 221.80 341.77 C 219.65 344.00 216.43 343.27 213.68 343.28 C 213.38 342.77 212.78 341.76 212.48 341.25 C 216.76 339.01 218.51 333.52 216.64 329.13 C 214.18 321.63 212.69 313.75 209.37 306.57 C 204.05 305.21 198.54 304.69 193.29 303.00 C 193.25 302.65 193.17 301.95 193.13 301.60 C 200.61 297.17 207.92 292.35 215.89 288.85 Z" />
<path fill="#f4722b" opacity="1.00" d=" M 9.77 290.38 C 14.34 289.53 18.95 288.92 23.57 288.38 C 24.20 291.70 24.58 295.06 24.83 298.44 C 28.74 298.02 32.64 297.59 36.55 297.22 C 37.14 301.98 37.50 306.76 37.86 311.54 C 34.36 312.15 30.82 312.55 27.27 312.81 C 26.79 316.60 26.86 320.43 27.33 324.23 C 23.04 324.98 18.72 325.60 14.37 325.87 C 13.81 322.33 13.41 318.77 13.14 315.21 C 10.43 315.33 7.72 315.50 5.01 315.69 C 5.00 310.66 4.99 305.64 5.02 300.62 C 6.98 300.40 8.94 300.19 10.90 299.97 C 10.57 296.77 10.23 293.57 9.77 290.38 Z" />
<path fill="#f5e5c1" opacity="1.00" d=" M 32.68 294.57 C 35.00 292.34 37.37 289.35 40.89 289.31 C 49.04 288.63 56.21 294.74 59.16 301.98 C 62.02 309.11 64.06 316.86 63.25 324.60 C 61.06 324.53 58.89 324.29 56.74 323.87 C 57.58 314.88 55.14 305.58 49.41 298.54 C 47.86 296.66 45.83 295.17 43.52 294.38 C 40.01 293.06 36.28 294.64 32.68 294.57 Z" />
<path fill="#f5e5c1" opacity="1.00" d=" M 231.32 294.29 C 233.87 292.75 236.98 293.53 239.78 293.59 C 239.76 295.75 239.70 297.91 239.61 300.08 C 237.05 300.92 234.04 301.03 231.91 302.82 C 229.18 306.15 227.65 310.82 228.97 315.06 C 229.99 319.47 232.79 323.16 235.83 326.40 C 235.69 326.97 235.39 328.10 235.24 328.67 C 231.25 328.93 227.73 326.60 224.97 323.97 C 220.87 317.44 221.23 309.10 223.91 302.10 C 225.28 298.68 228.22 296.14 231.32 294.29 Z" />
<path fill="#3e3e3e" opacity="1.00" d=" M 139.41 295.38 C 142.12 294.52 144.97 294.27 147.73 293.60 C 148.03 295.48 148.29 297.36 148.54 299.25 C 144.47 300.35 140.40 301.65 136.14 301.68 C 137.15 299.54 137.99 297.28 139.41 295.38 Z" />
<path fill="#f5e5c1" opacity="1.00" d=" M 171.33 308.22 C 174.22 306.61 176.79 304.35 179.92 303.24 C 186.92 303.36 193.22 306.68 199.97 308.05 C 202.90 308.62 204.93 310.93 207.11 312.77 C 208.75 320.89 212.15 328.68 212.48 337.05 C 212.22 339.56 210.03 341.27 208.61 343.20 C 208.56 346.46 208.55 349.72 208.60 352.98 C 203.42 354.56 198.26 356.22 193.00 357.47 C 188.21 358.14 184.12 355.00 180.17 352.81 C 183.59 347.70 182.98 341.30 182.16 335.53 C 180.83 329.60 178.55 323.36 173.44 319.65 C 170.93 317.27 167.28 316.10 165.44 313.06 C 166.58 310.63 169.25 309.65 171.33 308.22 M 176.82 313.88 C 180.19 316.45 183.36 319.27 186.71 321.86 C 188.87 319.84 191.04 317.83 193.21 315.81 C 190.61 313.24 188.02 310.64 185.70 307.80 C 182.70 309.76 179.74 311.80 176.82 313.88 M 188.13 329.89 C 188.40 331.90 188.65 333.91 188.88 335.93 C 191.87 335.30 194.84 334.59 197.84 334.03 C 197.45 331.88 196.93 329.75 196.41 327.64 C 193.67 328.46 190.90 329.20 188.13 329.89 M 190.67 345.63 C 189.64 347.92 188.30 350.14 188.06 352.69 C 192.32 352.73 196.35 351.08 200.47 350.20 C 200.41 348.17 200.34 346.15 200.28 344.13 C 197.08 344.64 193.88 345.21 190.67 345.63 Z" />
<path fill="#3e3e3e" opacity="1.00" d=" M 176.82 313.88 C 179.74 311.80 182.70 309.76 185.70 307.80 C 188.02 310.64 190.61 313.24 193.21 315.81 C 191.04 317.83 188.87 319.84 186.71 321.86 C 183.36 319.27 180.19 316.45 176.82 313.88 Z" />
<path fill="#f5e5c1" opacity="1.00" d=" M 245.27 308.48 C 247.37 306.84 249.97 307.88 252.23 308.50 C 253.65 312.23 254.45 317.50 250.09 319.59 C 244.49 320.58 241.30 312.00 245.27 308.48 Z" />
<path fill="#f4722b" opacity="1.00" d=" M 40.22 323.94 C 40.77 320.73 41.35 317.53 41.88 314.33 C 46.20 314.93 50.50 315.68 54.77 316.62 C 54.23 319.78 53.65 322.93 53.14 326.09 C 56.67 326.67 60.21 327.28 63.64 328.33 C 63.08 330.83 62.76 333.41 61.84 335.81 C 55.80 336.77 49.64 336.36 43.55 336.84 C 43.34 340.79 43.20 344.74 43.11 348.69 C 40.79 348.27 38.47 347.85 36.16 347.42 C 36.63 343.90 37.25 340.40 37.76 336.90 C 34.53 336.43 31.32 335.88 28.10 335.33 C 28.48 331.02 29.24 326.76 29.93 322.50 C 33.36 323.02 36.78 323.56 40.22 323.94 Z" />
<path fill="#f5e5c1" opacity="1.00" d=" M 151.96 317.23 C 154.72 316.31 157.53 315.51 160.33 314.70 C 163.04 316.97 165.79 319.21 168.44 321.56 C 172.68 325.18 174.43 330.74 178.21 334.76 C 179.22 341.37 178.98 348.13 180.33 354.67 C 175.11 356.80 169.78 358.61 164.51 360.61 C 164.58 361.99 164.59 363.38 164.55 364.77 C 161.59 367.15 158.43 369.37 154.99 371.01 C 153.10 372.02 151.05 370.84 149.17 370.42 C 149.52 368.69 149.90 366.97 150.32 365.25 C 148.90 366.04 147.47 366.82 146.06 367.65 C 145.26 370.81 142.28 370.68 139.63 370.54 C 139.30 359.67 136.63 348.63 130.38 339.59 C 127.03 335.46 122.08 332.48 120.46 327.13 C 124.19 326.01 128.04 324.65 131.99 325.47 C 138.27 332.62 144.71 340.01 147.80 349.18 C 148.83 352.69 149.20 356.35 149.51 359.99 C 150.54 359.36 151.57 358.73 152.60 358.11 C 152.55 351.30 151.12 344.34 147.41 338.54 C 143.83 332.80 139.53 327.52 134.88 322.63 C 138.16 321.21 141.56 320.15 144.94 319.00 C 150.13 321.57 153.36 326.54 157.36 330.53 C 161.26 334.36 162.93 339.64 164.62 344.68 C 165.98 344.26 167.34 343.84 168.69 343.42 C 168.67 337.31 164.49 332.55 161.24 327.78 C 158.64 323.84 154.81 320.95 151.96 317.23 Z" />
<path fill="#f4722b" opacity="1.00" d=" M 246.33 326.31 C 250.93 322.85 255.58 318.25 261.76 318.44 C 259.96 321.77 257.32 324.98 257.38 328.96 C 257.22 336.13 258.46 343.51 262.34 349.66 C 268.19 361.63 279.78 373.02 293.98 372.36 C 296.76 372.63 298.49 370.35 300.10 368.50 C 301.51 368.47 302.91 368.45 304.32 368.45 C 302.86 371.69 300.98 375.05 297.63 376.66 C 293.83 378.51 289.66 379.39 285.66 380.70 C 280.74 382.10 276.18 384.59 271.11 385.48 C 261.35 387.26 251.60 389.14 241.84 390.92 C 237.83 391.49 234.87 394.43 231.97 396.99 C 228.91 399.80 225.63 402.37 222.56 405.16 C 216.39 406.38 210.21 407.84 203.91 408.16 C 200.15 407.62 196.90 405.25 193.98 402.94 C 188.23 397.11 185.20 389.29 180.22 382.88 C 178.41 382.43 176.36 382.43 174.77 381.41 C 171.48 377.37 169.99 372.16 169.14 367.10 C 173.31 364.35 176.78 360.58 181.26 358.32 C 185.65 358.24 189.53 361.22 193.90 361.51 C 199.86 360.10 205.56 357.74 211.52 356.30 C 211.61 353.02 211.64 349.73 211.64 346.45 C 215.86 346.18 220.86 347.52 224.27 344.28 C 231.58 338.23 238.98 332.31 246.33 326.31 Z" />
<path fill="#f5e5c1" opacity="1.00" d=" M 83.00 325.41 C 89.35 324.25 95.67 322.91 102.02 321.73 C 106.29 320.87 110.96 321.77 114.22 324.79 C 121.32 331.62 126.77 340.01 131.09 348.83 C 136.89 360.80 138.87 375.15 134.44 387.89 C 129.76 391.19 124.58 393.68 119.63 396.55 C 113.46 400.20 106.15 402.14 98.98 401.26 C 99.29 400.65 99.91 399.43 100.23 398.83 C 104.13 397.75 108.92 398.12 111.81 394.79 C 117.03 388.05 116.72 379.01 115.81 370.99 C 114.60 360.87 110.39 351.05 103.65 343.37 C 98.69 336.99 92.03 331.57 84.03 329.67 C 79.34 329.63 74.35 331.72 71.98 335.97 C 69.91 338.69 69.44 342.07 69.00 345.35 C 68.37 345.70 67.10 346.39 66.47 346.73 C 65.90 342.34 66.21 337.64 68.87 333.93 C 71.63 328.74 77.50 326.38 83.00 325.41 Z" />
<path fill="#3e3e3e" opacity="1.00" d=" M 188.13 329.89 C 190.90 329.20 193.67 328.46 196.41 327.64 C 196.93 329.75 197.45 331.88 197.84 334.03 C 194.84 334.59 191.87 335.30 188.88 335.93 C 188.65 333.91 188.40 331.90 188.13 329.89 Z" />
<path fill="#f5e5c1" opacity="1.00" d=" M 75.76 346.59 C 77.96 342.93 81.28 339.11 85.96 339.29 C 95.32 339.16 102.75 346.84 105.66 355.21 C 107.81 362.11 109.96 369.33 109.11 376.64 C 106.86 376.55 104.61 376.46 102.36 376.37 C 102.99 366.47 100.17 356.02 93.49 348.54 C 90.33 345.12 83.89 342.04 80.48 346.78 C 78.91 346.74 77.33 346.67 75.76 346.59 Z" />
<path fill="#f4722b" opacity="1.00" d=" M 46.31 341.92 C 50.90 341.32 55.48 340.49 60.11 340.23 C 60.58 343.73 61.14 347.23 61.68 350.72 C 65.22 350.21 68.76 349.64 72.31 349.18 C 73.14 353.68 73.86 358.20 74.59 362.72 C 71.10 363.49 67.57 364.07 64.04 364.65 C 64.43 368.32 64.98 371.97 65.64 375.60 C 61.06 376.55 56.42 377.26 51.78 377.90 C 51.16 374.32 50.57 370.74 50.14 367.14 C 46.36 367.42 42.60 367.95 38.86 368.53 C 38.06 363.96 37.33 359.39 36.59 354.82 C 40.27 354.13 43.97 353.52 47.70 353.07 C 47.23 349.35 46.63 345.65 46.31 341.92 Z" />
<path fill="#3e3e3e" opacity="1.00" d=" M 190.67 345.63 C 193.88 345.21 197.08 344.64 200.28 344.13 C 200.34 346.15 200.41 348.17 200.47 350.20 C 196.35 351.08 192.32 352.73 188.06 352.69 C 188.30 350.14 189.64 347.92 190.67 345.63 Z" />
<path fill="#f5e5c1" opacity="1.00" d=" M 381.60 349.51 C 384.10 348.19 386.94 348.02 389.72 347.98 C 389.57 358.35 388.43 368.69 388.32 379.06 C 388.13 382.56 390.01 385.66 391.18 388.84 C 394.34 396.84 397.94 404.67 400.84 412.78 C 400.48 413.40 399.76 414.62 399.39 415.24 C 350.64 415.18 301.89 415.26 253.14 415.20 C 256.03 406.62 259.09 397.88 264.74 390.67 C 269.77 389.88 274.98 389.86 279.78 387.98 C 286.01 385.57 292.31 383.32 298.40 380.54 C 309.83 375.44 322.66 375.65 334.60 372.46 C 350.34 364.98 365.91 357.12 381.60 349.51 Z" />
<path fill="#f4722b" opacity="1.00" d=" M 86.11 366.34 C 90.73 366.89 95.31 367.75 99.87 368.69 C 99.37 372.31 98.72 375.92 98.19 379.55 C 101.97 379.81 105.82 379.87 109.46 381.08 C 108.38 385.58 107.52 390.13 107.04 394.74 C 103.29 394.56 99.58 393.97 95.91 393.22 C 95.35 397.00 94.99 400.84 93.77 404.49 C 89.30 403.45 84.79 402.57 80.23 402.06 C 80.37 398.22 81.04 394.43 81.79 390.66 C 78.30 390.02 74.80 389.44 71.28 388.96 C 71.61 384.26 72.51 379.62 73.57 375.04 C 77.16 375.54 80.73 376.19 84.30 376.82 C 84.92 373.33 85.53 369.84 86.11 366.34 Z" />
<path fill="#f4722b" opacity="1.00" d=" M 17.45 381.90 C 21.73 379.88 26.09 378.05 30.47 376.26 C 32.11 379.31 33.50 382.49 34.81 385.70 C 38.21 384.30 41.60 382.88 45.01 381.51 C 47.12 386.00 48.99 390.60 50.74 395.23 C 47.53 396.83 44.24 398.26 40.94 399.65 C 42.31 403.13 43.70 406.60 44.90 410.15 C 40.56 412.05 36.18 413.88 31.79 415.67 C 30.14 412.31 28.67 408.88 27.22 405.44 C 23.94 406.88 20.63 408.25 17.27 409.52 C 15.31 404.84 12.92 400.36 11.04 395.65 C 14.42 394.22 17.81 392.81 21.20 391.40 C 19.92 388.24 18.63 385.09 17.45 381.90 Z" />
</svg>
