<?xml version="1.0" encoding="UTF-8" ?>
<!DOCTYPE svg PUBLIC "-//W3C//DTD SVG 1.1//EN" "http://www.w3.org/Graphics/SVG/1.1/DTD/svg11.dtd">
<svg width="422pt" height="422pt" viewBox="0 0 422 422" version="1.1" xmlns="http://www.w3.org/2000/svg">
<path fill="#3e3e3e" opacity="1.00" d=" M 0.00 0.00 L 422.00 0.00 L 422.00 422.00 L 0.00 422.00 L 0.00 0.00 Z" />
<path fill="#f5e5c1" opacity="1.00" d=" M 178.99 49.42 C 192.66 45.65 206.93 45.18 221.03 45.56 C 245.52 45.77 269.89 53.93 289.44 68.71 C 307.57 82.39 321.76 101.37 329.09 122.92 C 329.93 125.85 329.52 128.95 329.60 131.95 C 329.58 225.42 329.56 318.88 329.60 412.34 C 252.31 412.37 175.01 412.20 97.73 412.44 C 98.00 398.31 97.25 384.15 98.22 370.05 C 98.20 290.70 98.22 211.35 98.21 132.00 C 98.25 129.97 98.13 127.91 98.52 125.91 C 109.86 88.85 141.47 58.99 178.99 49.42 Z" />
<path fill="#3e3e3e" opacity="1.00" d=" M 134.18 115.82 C 140.45 115.84 146.71 115.83 152.97 115.81 C 162.73 115.57 170.68 126.69 167.49 135.86 C 167.02 140.77 162.32 143.20 158.92 146.01 C 163.81 152.48 168.88 158.82 173.74 165.31 C 173.72 165.64 173.69 166.31 173.68 166.65 C 169.62 167.02 165.53 166.71 161.46 166.73 C 157.64 161.12 153.77 155.54 149.89 149.97 C 148.65 147.81 145.94 147.18 143.64 147.73 C 143.43 154.07 143.57 160.42 143.55 166.76 C 140.40 166.78 137.26 166.78 134.12 166.76 C 134.20 149.78 134.06 132.80 134.18 115.82 Z" />
<path fill="#3e3e3e" opacity="1.00" d=" M 205.62 116.33 C 209.80 115.46 214.08 115.92 218.31 115.84 C 218.38 132.80 218.28 149.75 218.36 166.71 C 214.12 166.81 209.88 166.86 205.65 166.63 C 205.70 149.86 205.76 133.10 205.62 116.33 Z" />
<path fill="#3e3e3e" opacity="1.00" d=" M 256.67 116.36 C 261.39 115.34 266.25 116.02 271.03 115.83 C 275.87 115.83 281.38 115.20 285.33 118.62 C 292.72 125.56 290.30 139.73 280.84 143.58 C 276.75 145.62 272.12 145.49 267.67 145.44 C 265.46 151.90 267.22 158.97 266.70 165.68 C 263.37 165.69 260.04 165.69 256.72 165.53 C 256.73 149.14 256.82 132.75 256.67 116.36 Z" />
<path fill="#f5e5c1" opacity="1.00" d=" M 266.75 123.55 C 271.10 123.89 277.28 121.50 279.97 126.13 C 281.75 128.88 281.69 132.90 279.11 135.15 C 275.90 138.48 270.87 137.12 266.76 137.37 C 266.83 132.76 266.85 128.15 266.75 123.55 Z" />
<path fill="#f5e5c1" opacity="1.00" d=" M 143.54 124.39 C 147.08 124.39 150.64 124.11 154.15 124.57 C 158.18 126.84 159.20 133.51 155.44 136.47 C 152.24 139.48 147.46 137.99 143.53 138.34 C 143.61 133.69 143.60 129.04 143.54 124.39 Z" />
<path fill="#3e3e3e" opacity="1.00" d=" M 229.31 163.03 C 228.82 160.01 231.74 158.40 234.13 157.56 C 236.63 158.34 239.56 159.99 239.47 162.99 C 239.61 166.02 236.74 167.76 234.17 168.44 C 231.72 167.68 228.82 166.07 229.31 163.03 Z" />
<path fill="#3e3e3e" opacity="1.00" d=" M 281.70 158.50 C 283.20 158.49 284.70 158.49 286.21 158.48 C 289.21 160.77 289.31 165.16 286.35 167.54 C 284.76 167.53 283.18 167.53 281.61 167.52 C 280.89 166.78 280.18 166.05 279.46 165.33 C 279.43 163.79 279.43 162.25 279.47 160.71 C 280.22 159.98 280.96 159.24 281.70 158.50 Z" />
<path fill="#3e3e3e" opacity="1.00" d=" M 183.33 161.44 C 185.02 159.59 187.71 157.59 190.17 159.39 C 192.80 160.41 192.65 163.30 192.57 165.63 C 191.26 166.91 189.69 167.85 188.02 168.57 C 186.40 167.80 184.36 167.31 183.58 165.50 C 183.33 164.16 183.39 162.79 183.33 161.44 Z" />
<path fill="#3e3e3e" opacity="1.00" d=" M 162.31 223.05 C 166.94 200.55 189.20 183.76 211.98 184.24 C 227.91 184.06 243.81 191.89 253.14 204.84 C 257.10 211.06 260.99 217.58 262.36 224.93 C 265.46 238.90 262.15 254.10 253.73 265.64 C 247.29 274.53 238.01 281.19 227.60 284.63 C 227.50 287.10 227.52 289.59 227.18 292.04 C 226.20 293.51 224.80 294.63 223.72 296.02 C 226.58 297.57 230.55 297.56 232.30 300.68 C 234.11 303.23 235.71 305.93 237.32 308.62 C 239.62 308.53 241.91 308.49 244.21 308.48 C 245.06 307.21 245.93 305.96 246.81 304.71 C 253.89 304.82 260.97 304.70 268.05 304.78 C 268.84 307.93 272.46 307.78 275.02 308.25 C 277.16 308.31 278.71 309.95 280.41 311.03 C 280.43 335.75 280.51 360.47 280.37 385.19 C 278.31 387.83 275.80 391.56 271.97 391.15 C 230.61 391.09 189.26 391.17 147.90 391.11 C 144.83 391.15 143.54 387.74 141.64 385.88 C 141.58 360.77 141.74 335.66 141.55 310.55 C 144.62 308.09 148.85 309.60 152.44 309.23 C 152.83 307.46 151.87 304.86 153.85 303.88 C 158.63 303.66 163.42 303.88 168.21 303.82 C 168.58 305.56 167.26 308.61 169.72 309.14 C 174.48 309.35 179.26 309.11 184.03 309.22 C 186.28 305.51 188.85 302.02 191.30 298.44 C 193.65 297.84 195.95 297.03 198.11 295.91 C 197.36 294.78 196.41 293.80 195.40 292.91 C 195.53 290.16 195.59 287.41 195.55 284.66 C 191.56 282.55 187.25 281.06 183.55 278.44 C 172.31 271.08 164.29 259.18 161.76 245.98 C 160.13 238.41 160.90 230.58 162.31 223.05 Z" />
<path fill="#f5e5c1" opacity="1.00" d=" M 208.43 226.66 C 212.02 225.68 216.24 226.39 218.61 229.47 C 223.76 234.72 219.51 245.21 211.96 244.77 C 206.60 245.54 201.49 240.30 202.27 234.97 C 202.10 231.19 205.07 227.94 208.43 226.66 Z" />
<path fill="#f5e5c1" opacity="1.00" d=" M 198.93 311.06 C 199.03 308.54 198.34 305.46 200.59 303.66 C 207.46 303.84 214.34 303.71 221.21 303.73 C 221.68 304.08 222.61 304.77 223.08 305.12 C 222.98 308.98 223.49 312.90 222.55 316.70 C 216.37 316.76 210.20 316.69 204.02 316.75 C 202.74 316.58 201.06 317.12 200.12 315.96 C 198.65 314.76 199.10 312.71 198.93 311.06 Z" />
<path fill="#f5e5c1" opacity="1.00" d=" M 206.12 336.13 C 212.48 333.79 220.37 335.98 223.66 342.16 C 228.24 349.48 224.03 360.20 215.74 362.52 C 207.84 365.53 198.44 359.29 197.60 351.00 C 196.63 344.83 200.44 338.53 206.12 336.13 Z" />
<path fill="#f5e5c1" opacity="1.00" d=" M 347.51 379.53 C 354.80 373.41 364.15 370.05 373.62 369.62 C 373.64 370.02 373.66 370.83 373.68 371.23 C 368.57 372.21 363.80 374.46 359.73 377.70 C 353.10 383.16 346.24 389.80 345.45 398.88 C 352.68 386.71 367.25 379.88 381.19 380.77 C 379.97 382.61 377.72 383.02 375.88 383.92 C 370.35 386.28 365.85 390.38 361.58 394.49 C 357.25 399.56 354.72 405.90 353.02 412.28 C 346.83 412.37 340.65 412.32 334.48 412.32 C 334.66 407.18 334.18 402.02 334.74 396.91 C 338.05 390.49 342.31 384.56 347.51 379.53 Z" />
<path fill="#f5e5c1" opacity="1.00" d=" M 56.93 371.77 C 62.60 369.52 68.48 372.83 74.02 374.02 C 81.21 376.86 87.64 381.68 92.43 387.76 C 92.37 396.01 92.40 404.27 92.42 412.52 C 90.52 412.51 88.63 412.50 86.73 412.48 C 86.19 402.91 83.01 393.46 77.00 385.93 C 71.48 379.74 64.29 375.42 56.93 371.77 Z" />
<path fill="#f5e5c1" opacity="1.00" d=" M 33.47 378.41 C 41.86 377.51 50.81 378.13 57.96 383.08 C 61.72 385.97 65.70 388.60 69.06 391.96 C 74.51 397.49 78.10 404.64 79.71 412.20 C 74.43 412.26 69.13 412.45 63.85 412.11 C 63.64 411.85 63.21 411.33 62.99 411.07 C 61.06 399.62 54.46 388.72 44.38 382.71 C 40.97 380.78 37.49 378.63 33.47 378.41 Z" />
</svg>
