<?xml version="1.0" encoding="UTF-8" standalone="no"?>
<svg
   xmlns:dc="http://purl.org/dc/elements/1.1/"
   xmlns:cc="http://creativecommons.org/ns#"
   xmlns:rdf="http://www.w3.org/1999/02/22-rdf-syntax-ns#"
   xmlns:svg="http://www.w3.org/2000/svg"
   xmlns="http://www.w3.org/2000/svg"
   xmlns:sodipodi="http://sodipodi.sourceforge.net/DTD/sodipodi-0.dtd"
   xmlns:inkscape="http://www.inkscape.org/namespaces/inkscape"
   width="1280"
   height="1280"
   viewBox="0 0 1024 1024"
   version="1.1"
   id="svg2"
   inkscape:version="0.47 r22583"
   sodipodi:docname="heal_achiever.svg">
  <metadata
     id="metadata28">
    <rdf:RDF>
      <cc:Work
         rdf:about="">
        <dc:format>image/svg+xml</dc:format>
        <dc:type
           rdf:resource="http://purl.org/dc/dcmitype/StillImage" />
      </cc:Work>
    </rdf:RDF>
  </metadata>
  <defs
     id="defs26" />
  <sodipodi:namedview
     pagecolor="#ffffff"
     bordercolor="#666666"
     borderopacity="1"
     objecttolerance="10"
     gridtolerance="10"
     guidetolerance="10"
     inkscape:pageopacity="0"
     inkscape:pageshadow="2"
     inkscape:window-width="1280"
     inkscape:window-height="738"
     id="namedview24"
     showgrid="false"
     inkscape:zoom="0.44739336"
     inkscape:cx="942.61136"
     inkscape:cy="766.88266"
     inkscape:window-x="-8"
     inkscape:window-y="-8"
     inkscape:window-maximized="1"
     inkscape:current-layer="svg2" />
  <path
     d="m 0,0 1024,0 0,1024 L 0,1024 0,0 z"
     id="path4"
     style="fill:#3e3e3e" />
  <path
     style="fill:#f5e5c1"
     d="M 186.34375 203.4375 C 182.18829 235.49816 181.51665 267.84742 177.9375 299.96875 C 173.38774 366.91094 166.32915 433.71591 162.75 500.71875 C 170.24195 504.47989 178.81324 506.52098 185.03125 512.375 C 231.59049 555.96174 278.09425 599.60352 324.5625 643.28125 C 340.36535 658.81111 357.88196 672.721 371.53125 690.34375 C 375.89903 695.98545 381.23531 702.01356 380.75 709.6875 C 380.62867 718.0894 382.40642 728.01819 376.21875 734.8125 C 370.30406 740.4542 361.64636 740.1838 354.09375 741.09375 C 357.52124 727.71745 357.24291 712.54443 347.71875 701.625 C 338.01259 687.18709 315.4066 685.3912 303.03125 697.28125 C 291.56585 710.74855 292.12763 729.99034 296.34375 746.1875 C 300.01389 761.80835 312.72846 773.59262 326.46875 780.78125 C 347.70097 791.85235 373.46263 788.73739 394.9375 780.0625 C 409.83039 770.93264 420.38315 755.49038 424.78125 738.65625 C 432.87982 743.41834 435.76824 752.7599 440.5 760.3125 C 463.27914 800.68406 495.50551 834.56063 527.6875 867.53125 C 541.27612 882.06015 558.61536 892.19816 573.78125 904.9375 C 611.39262 905.1802 649.04487 904.79227 686.65625 905.15625 C 722.99369 880.37521 754.68298 849.55791 784.46875 817.40625 C 801.93985 792.29156 818.16133 766.29855 833.8125 740.03125 C 838.54426 742.8521 838.6764 749.32156 841.40625 753.75 C 853.17498 776.25616 879.3697 787.875 903.96875 787.875 C 920.86354 786.57074 937.55939 779.70621 949.84375 767.9375 C 963.97835 752.5593 971.82189 729.94452 964.90625 709.53125 C 961.05411 699.03646 951.62441 690.85204 940.25 690.09375 C 928.32962 687.69754 918.22355 696.41336 911.15625 704.90625 C 902.36004 715.40104 899.20201 730.40865 905.875 742.875 C 895.98685 740.72144 887.31821 735.62613 880.28125 728.4375 C 881.31254 716.42613 876.75708 701.8045 886.28125 692.25 C 900.11253 676.68981 915.0069 662.14929 930.71875 648.5 C 978.88558 603.7 1027.551 559.45625 1075.6875 514.65625 C 1082.6941 508.19557 1091.4575 504.24831 1099.3438 499.03125 C 1091.1845 401.15068 1083.8293 303.19308 1076.125 205.3125 C 1063.325 203.82625 1052.6363 211.49985 1041.6562 216.65625 C 1013.1141 230.91217 984.50268 245.04005 955.6875 258.75 C 953.53395 273.70356 958.6333 288.3277 957.875 303.28125 C 957.20775 323.99784 959.58095 344.93599 957.09375 365.53125 C 947.93356 384.03362 930.74946 396.42696 917.3125 411.5625 C 914.55231 411.38051 911.79235 411.21325 909.0625 411.03125 C 911.85303 383.24736 910.78769 355.34455 911 327.5 C 910.81801 309.84692 911.98354 292.09334 909.375 274.53125 C 723.01671 274.37959 536.70205 274.04869 350.34375 274.625 C 350.40441 320.24395 349.78397 365.84888 350.90625 411.4375 C 349.17734 411.46787 345.76109 411.50088 344.0625 411.53125 C 330.2009 396.85068 314.26131 383.49133 304.3125 365.65625 C 301.58264 352.12829 303.51656 338.11529 303.03125 324.375 C 302.54594 304.08305 304.07529 283.85996 306.5625 263.75 C 292.60989 253.37655 276.43977 246.66751 261.03125 238.78125 C 235.5829 228.16514 212.45939 212.47636 186.34375 203.4375 z M 236.5 254.4375 C 250.4526 260.80718 265.28744 268.80569 273.75 282 C 272.17275 300.22939 270.53034 318.49304 270.5 336.84375 C 270.56063 350.6447 265.64684 366.09706 273.59375 378.59375 C 297.7985 410.47243 326.29896 439.14061 349.59375 471.65625 C 361.3928 524.73682 371.65396 578.42496 387.0625 630.65625 C 374.2625 622.04202 363.64555 610.72824 351.9375 600.71875 C 314.38679 568.35477 276.66375 536.2482 239.75 503.15625 C 234.71494 497.87853 227.6186 493.05076 226.375 485.4375 C 226.52666 432.69057 231.03214 380.09159 232.09375 327.375 C 234.30797 303.13994 235.92369 278.7939 236.5 254.4375 z M 1023.6562 254.4375 C 1025.2942 275.85172 1026.6415 297.27328 1028.2188 318.6875 C 1031.1306 344.8638 1028.8731 371.32277 1031.9062 397.46875 C 1034.3025 423.67539 1032.2453 450.0737 1035.1875 476.25 C 1037.1894 485.71351 1031.8182 494.17355 1024.7812 499.90625 C 985.28931 535.36408 945.59582 570.54956 905.40625 605.21875 C 895.06313 613.8633 885.91762 624.19468 873.90625 630.625 C 888.31383 582.0032 901.13948 532.79281 908.84375 482.59375 C 909.42005 474.28285 913.50995 466.9101 919 460.84375 C 938.62464 438.00394 957.47094 414.52915 977.15625 391.75 C 983.85956 383.71209 992.29689 375.40566 991.78125 364.03125 C 991.93291 336.64169 989.91641 309.29858 988.1875 282 C 995.43679 268.44171 1010.9169 261.95978 1023.6562 254.4375 z "
     transform="scale(0.8,0.8)"
     id="path6" />
  <path
     d="m 437.40815,322.4872 c 0.29119,-11.91431 11.79299,-21.7418 23.46465,-21.49914 29.99203,-0.26692 60.00834,-0.0485 90.00038,-0.0971 12.59374,-1.04342 25.55146,9.02673 25.84265,22.00872 0.46104,18.68436 -0.0485,37.39298 0.14559,56.10161 21.15943,0.36398 42.39166,-0.7037 63.52683,0.41251 8.68701,3.73687 14.31658,13.90407 13.61289,23.34332 -0.14559,29.9435 0.0971,59.88701 -0.0971,89.83052 0.4853,11.86578 -10.33707,18.92701 -18.34465,25.67279 -19.55791,0.84929 -39.14009,0.21839 -58.69801,0.41252 -0.21839,17.93213 0.36398,35.88853 -0.19412,53.82066 -0.33972,12.88493 -13.22465,22.9308 -25.72133,21.96019 -29.21554,0 -58.43109,-0.0243 -87.64663,0 -12.52095,1.06768 -25.52721,-8.88114 -25.91545,-21.8146 -0.60664,-17.98066 0.0243,-35.98559 -0.21839,-53.96625 -19.60645,-0.1456 -39.23716,0.33971 -58.8436,-0.36399 -7.88626,-6.74578 -18.6601,-13.85554 -18.05346,-25.62426 -0.16986,-29.99204 0.0485,-59.98408 -0.0971,-89.97611 -0.94635,-11.50181 7.93479,-25.89119 20.86825,-23.80436 18.70863,0.0971 37.41725,0.12132 56.12588,0.0971 0.24265,-18.85422 -0.41251,-37.68417 0.24265,-56.51413 z"
     id="path12"
     style="fill:#f4722b" />
  <path
     d="m 457.86389,735.33877 c 30.23469,-0.16986 60.49365,-0.48531 90.70407,0.0971 13.95261,3.8582 20.86825,18.22332 24.92057,31.03545 8.05611,21.69327 3.27583,47.39033 -12.18123,64.64303 -3.25157,3.56702 -8.3473,4.58616 -12.98199,4.46484 -31.93327,0.0728 -63.86654,-0.24266 -95.79981,0.12132 -8.17744,-7.83772 -15.26294,-17.1799 -19.09687,-27.90521 -5.48399,-25.79412 1.57725,-57.04796 24.43526,-72.45649 z"
     id="path14"
     style="fill:#f5e5c1" />
  <path
     d="m 474.36436,844.50882 c 20.04322,0.0485 40.11071,0.0485 60.1782,0 0.19412,4.82881 0.43678,9.68189 0.82502,14.51071 -20.52853,-0.0485 -41.03279,-0.0243 -61.56132,-0.0243 0.24265,-4.82881 0.41251,-9.65763 0.5581,-14.48644 z"
     id="path16"
     style="fill:#f5e5c1" />
  <path
     d="m 400.88872,891.17118 c 9.58483,-7.15829 16.08796,-19.84909 28.43905,-22.32417 49.47716,-0.31545 99.00285,-0.0971 148.48,-0.12132 10.16721,-0.19413 16.16076,9.34218 22.85801,15.45706 l 2.5236,0.36398 c 2.15962,2.20815 4.34351,4.44057 6.5274,6.69725 -69.59318,0.0728 -139.21062,0.21839 -208.82806,-0.0728 z"
     id="path18"
     style="fill:#f5e5c1" />
  <path
     d="m 305.57422,926.76853 c 10.36133,-8.9054 21.76606,-16.549 31.39943,-26.3037 111.71791,0 223.46009,0 335.17801,0 9.29365,10.11868 21.59621,16.67034 31.37516,26.25517 -132.65895,0.38825 -265.29364,0.29118 -397.9526,0.0485 z"
     id="path20"
     style="fill:#f5e5c1" />
  <path
     d="m 300.38142,936.64455 c 136.17744,-0.0243 272.35488,0.0728 408.55659,-0.0485 1.14047,4.87734 2.03829,9.82749 2.88758,14.80189 -3.97952,2.45081 -8.12891,5.33839 -13.07905,4.87735 -132.95014,0 -265.92455,0.0728 -398.89896,-0.0243 0.0728,-6.55166 0.31545,-13.07906 0.53384,-19.60645 z"
     id="path22"
     style="fill:#f5e5c1" />
</svg>
