<?xml version="1.0" encoding="UTF-8" ?>
<!DOCTYPE svg PUBLIC "-//W3C//DTD SVG 1.1//EN" "http://www.w3.org/Graphics/SVG/1.1/DTD/svg11.dtd">
<svg width="422pt" height="422pt" viewBox="0 0 422 422" version="1.1" xmlns="http://www.w3.org/2000/svg">
<path fill="#3f3f3f" opacity="1.00" d=" M 0.00 0.00 L 422.00 0.00 L 422.00 422.00 L 0.00 422.00 L 0.00 0.00 Z" />
<path fill="#f4722b" opacity="1.00" d=" M 14.00 13.00 C 48.83 13.16 83.68 12.67 118.50 13.25 C 122.78 23.64 126.99 34.10 131.88 44.22 C 133.20 39.26 133.60 34.10 134.99 29.16 C 144.06 25.12 152.65 19.90 161.89 16.03 C 167.35 12.49 174.23 12.28 180.39 13.51 C 190.15 20.18 202.33 23.54 210.03 32.96 C 212.99 36.40 216.30 39.53 219.92 42.28 C 218.93 32.50 216.74 22.84 214.49 13.29 C 243.73 12.63 273.00 13.16 302.25 13.02 C 302.42 88.30 302.30 163.58 302.31 238.85 C 314.93 246.71 327.49 254.66 340.16 262.44 C 357.53 179.15 374.78 95.84 391.93 12.51 C 397.92 13.37 403.97 12.88 410.00 13.00 C 410.01 74.33 409.98 135.67 410.01 197.00 C 409.91 200.33 410.39 203.86 408.91 206.98 C 395.93 238.00 382.83 268.98 370.17 300.14 C 378.17 308.64 385.66 318.08 396.11 323.71 C 400.24 316.17 405.15 309.12 409.79 301.89 C 410.22 315.25 409.93 328.61 409.96 341.97 C 389.19 324.06 368.26 306.33 347.44 288.48 C 344.72 286.93 346.50 283.68 346.40 281.23 C 341.80 278.02 337.75 274.05 332.92 271.16 C 320.69 264.32 309.73 255.50 298.02 247.85 C 292.71 250.72 286.34 251.30 282.13 256.07 C 280.99 254.79 279.85 253.53 278.74 252.24 C 277.46 245.25 274.79 237.30 267.67 234.33 C 261.25 231.13 255.70 224.22 248.03 224.98 C 248.02 211.81 247.48 198.41 250.65 185.52 C 261.56 175.13 267.80 159.99 268.56 144.98 C 269.13 138.50 269.44 131.27 265.11 125.92 C 261.05 122.29 255.76 120.47 251.01 117.93 C 250.91 115.17 250.11 112.54 249.32 109.92 C 247.42 100.81 252.31 92.01 252.00 83.07 C 245.45 73.96 241.14 61.59 229.91 57.12 C 223.90 54.50 216.79 54.65 211.39 50.61 C 207.82 47.82 204.19 45.11 200.57 42.39 C 196.08 39.07 195.02 32.72 190.02 29.92 C 183.32 26.16 175.94 23.86 169.00 20.59 C 159.84 24.52 151.42 30.03 142.72 34.79 C 139.51 53.84 126.77 69.97 122.72 88.95 C 121.53 92.68 117.49 94.45 115.91 97.97 C 112.71 103.51 113.38 110.18 115.41 115.99 C 114.89 121.97 114.33 127.97 114.21 134.00 C 114.36 138.20 110.49 141.69 111.96 145.95 C 115.72 159.31 116.83 173.20 119.30 186.80 C 119.76 190.39 122.42 192.86 126.00 193.17 C 127.54 206.36 129.45 219.52 130.90 232.73 C 137.92 238.17 134.98 248.00 135.78 255.70 C 125.31 258.22 122.37 270.56 113.06 275.03 C 98.45 285.91 81.18 292.38 65.63 301.70 C 62.55 307.63 62.97 314.72 61.21 321.09 C 57.90 332.17 56.17 343.82 50.84 354.21 C 49.81 355.97 49.75 358.02 49.57 359.99 C 56.49 360.43 50.61 366.73 49.64 370.36 C 46.90 383.44 42.72 396.14 39.12 409.00 C 30.76 409.18 22.41 408.60 14.06 408.62 C 13.93 385.62 14.03 362.61 14.01 339.60 C 21.00 342.59 27.89 345.83 34.94 348.70 C 40.36 330.52 46.20 312.46 51.47 294.24 C 38.89 285.51 26.52 276.48 13.89 267.81 C 14.16 235.46 13.89 203.10 14.03 170.75 C 44.71 201.43 75.16 232.35 105.87 263.01 C 114.43 259.74 123.44 256.89 130.72 251.12 C 130.31 246.58 129.85 241.98 128.27 237.66 C 123.26 225.71 121.42 212.69 120.18 199.86 C 108.47 191.85 110.60 175.02 104.72 163.41 C 74.83 117.99 44.57 72.80 14.65 27.41 C 13.33 22.76 14.26 17.78 14.00 13.00 Z" />
<path fill="#f5e5c1" opacity="1.00" d=" M 142.48 48.52 C 153.93 42.62 167.31 41.12 179.98 39.71 C 191.21 39.05 193.91 52.68 196.71 60.76 C 198.22 56.73 197.33 52.24 197.35 48.04 C 203.70 52.40 211.41 55.71 215.45 62.62 C 217.58 68.01 214.65 74.25 217.27 79.54 C 220.75 87.70 223.74 96.07 227.25 104.22 C 219.98 100.65 213.17 95.15 204.62 95.67 C 204.48 94.95 204.20 93.51 204.06 92.78 C 204.66 92.63 205.86 92.32 206.46 92.16 C 205.95 91.12 205.45 90.07 204.99 89.01 C 201.65 86.60 197.43 86.04 193.97 83.86 C 199.07 82.05 203.69 84.80 208.25 86.72 C 210.84 89.86 211.02 95.14 215.50 96.41 C 215.14 92.47 212.66 89.21 211.48 85.51 C 206.98 82.57 201.93 80.64 197.08 78.36 C 192.39 78.93 187.74 79.98 182.97 79.77 C 178.85 80.01 173.16 79.75 171.16 84.12 C 172.24 85.17 173.61 85.88 174.84 86.76 C 171.81 89.27 170.23 92.86 168.17 96.07 C 161.83 95.62 155.40 95.88 149.23 97.59 C 148.27 94.25 144.78 91.42 147.11 87.82 C 143.23 83.56 137.70 86.12 133.02 87.25 C 130.47 86.03 127.67 87.15 125.43 88.52 C 131.17 75.22 135.03 61.02 142.48 48.52 Z" />
<path fill="#f5e5c1" opacity="1.00" d=" M 177.71 93.25 C 183.22 86.21 197.29 84.93 200.43 94.86 C 200.39 96.00 200.35 97.14 200.31 98.27 C 200.67 98.69 201.37 99.52 201.72 99.94 C 203.47 110.36 193.25 119.90 182.98 116.94 C 171.41 114.31 168.70 98.58 175.71 90.14 C 171.24 95.72 174.65 103.38 180.79 105.83 C 179.62 103.70 178.05 101.83 176.39 100.07 C 176.85 97.80 177.36 95.54 177.71 93.25 Z" />
<path fill="#f5e5c1" opacity="1.00" d=" M 124.61 93.64 C 127.29 93.14 130.23 93.46 132.62 91.90 C 132.78 92.97 131.52 93.25 130.82 93.67 C 127.87 95.81 124.12 98.27 124.34 102.43 C 129.16 99.79 132.50 93.30 139.01 93.42 C 141.94 94.93 143.81 97.79 145.85 100.27 C 139.38 99.50 128.24 100.62 127.65 108.42 C 133.89 106.52 139.99 104.00 146.52 103.22 C 144.79 105.06 143.08 106.91 141.30 108.69 C 141.52 113.13 144.52 106.65 145.95 105.63 C 146.31 105.53 147.04 105.32 147.40 105.21 C 147.16 109.11 146.81 113.29 144.52 116.60 C 139.44 125.21 125.18 124.24 120.15 116.00 C 119.68 108.42 121.11 100.42 124.61 93.64 Z" />
<path fill="#3f3f3f" opacity="1.00" d=" M 179.17 97.85 C 184.46 92.63 192.87 92.35 199.52 94.81 C 199.64 95.79 199.88 97.75 200.00 98.73 C 193.51 98.38 186.96 98.48 180.51 99.38 C 180.18 99.00 179.51 98.23 179.17 97.85 Z" />
<path fill="#f4722b" opacity="1.00" d=" M 117.31 105.36 C 117.20 102.60 118.25 100.05 119.72 97.78 C 119.15 100.37 118.55 102.99 117.31 105.36 Z" />
<path fill="#f5e5c1" opacity="1.00" d=" M 150.62 100.93 C 156.05 98.73 161.91 99.11 167.62 99.53 C 167.41 108.80 173.42 118.34 182.94 120.01 C 194.96 122.97 207.38 111.73 205.73 99.49 C 213.43 98.84 219.36 104.45 225.93 107.43 C 230.86 109.11 230.92 115.10 233.21 119.06 C 236.77 124.96 236.49 131.98 237.29 138.57 C 238.33 140.93 241.02 141.13 242.68 139.36 C 243.22 133.51 242.42 125.82 247.77 122.00 C 253.30 121.12 258.47 124.86 262.32 128.45 C 265.01 135.59 265.08 143.56 263.71 151.02 C 263.07 161.88 258.57 173.03 249.65 179.66 C 245.43 187.01 247.09 195.92 245.85 203.99 C 245.45 212.31 244.41 220.66 245.01 228.99 C 241.56 233.71 238.64 239.47 233.16 242.10 C 207.61 261.74 181.79 281.80 153.11 296.86 C 147.55 295.33 143.90 290.43 140.72 285.97 C 139.06 276.39 139.41 266.62 139.60 256.94 C 143.51 259.47 147.03 263.37 151.93 263.79 C 176.76 260.92 197.95 246.59 218.55 233.58 C 224.41 228.51 231.42 224.65 235.97 218.22 C 227.17 221.26 220.49 228.11 212.24 232.20 C 196.33 242.29 177.02 248.45 158.09 245.27 C 145.29 244.29 135.36 232.40 134.57 219.95 C 133.47 207.61 130.38 195.28 130.87 182.90 C 130.82 181.26 130.77 179.63 130.74 178.00 C 132.98 166.74 135.91 155.42 141.04 145.12 C 142.06 145.83 143.07 146.54 144.09 147.26 C 146.52 147.01 148.91 146.49 151.16 145.53 C 153.25 145.80 155.35 145.97 157.45 145.93 C 156.78 145.59 155.43 144.89 154.76 144.54 C 154.24 139.10 147.09 139.22 144.98 143.59 C 141.87 141.89 145.35 135.87 145.53 132.54 C 136.03 135.52 137.84 147.85 132.37 154.51 C 130.23 153.46 127.99 152.58 125.61 152.26 C 124.70 151.47 123.79 150.67 122.88 149.88 C 120.82 140.46 119.17 130.93 119.84 121.24 C 125.21 126.56 133.96 128.53 140.74 124.79 C 149.16 120.48 153.20 109.91 150.62 100.93 Z" />
<path fill="#3f3f3f" opacity="1.00" d=" M 181.59 128.95 C 183.36 129.01 185.34 128.92 186.64 130.38 C 193.70 136.88 198.51 145.53 206.11 151.50 C 212.39 149.96 218.07 144.97 224.76 145.46 C 220.51 155.50 217.07 165.97 216.45 176.97 C 215.47 176.67 214.51 176.35 213.55 176.00 C 213.03 167.58 208.58 160.03 203.51 153.53 C 199.18 149.61 196.61 143.50 190.89 141.33 C 187.69 141.97 184.69 143.65 181.32 143.25 C 181.40 142.78 181.58 141.85 181.66 141.39 C 178.58 143.89 172.34 145.33 170.42 140.99 C 172.38 135.65 180.80 134.98 183.05 140.61 C 189.52 138.72 183.86 132.08 181.59 128.95 Z" />
<path fill="#3f3f3f" opacity="1.00" d=" M 250.61 131.55 C 253.20 128.25 258.93 130.11 259.98 133.93 C 260.99 137.68 260.05 141.61 260.47 145.44 C 259.16 149.29 255.25 151.07 252.52 153.77 C 252.60 156.32 252.68 158.89 253.31 161.38 C 252.42 162.43 251.53 163.48 250.62 164.51 C 248.68 153.64 249.65 142.47 250.61 131.55 Z" />
<path fill="#f5e5c1" opacity="1.00" d=" M 115.16 147.03 C 114.47 144.38 116.30 142.28 117.49 140.14 C 117.83 142.84 118.43 145.51 118.82 148.21 C 120.28 152.99 120.36 158.10 122.12 162.82 C 122.35 163.87 122.57 164.94 122.80 166.00 C 124.09 173.31 124.62 180.71 125.36 188.08 C 124.17 187.54 122.99 186.98 121.82 186.40 C 119.85 173.24 118.26 159.99 115.16 147.03 Z" />
<path fill="#3f3f3f" opacity="1.00" d=" M 155.02 175.96 C 163.45 174.21 172.76 171.95 180.96 175.69 C 187.95 178.40 195.21 180.60 201.78 184.24 C 195.59 185.51 190.45 180.24 184.51 179.27 C 173.17 177.11 161.05 176.80 150.03 180.69 C 146.14 181.76 144.60 185.94 141.23 187.75 C 144.18 182.44 148.56 176.78 155.02 175.96 Z" />
<path fill="#f5e5c1" opacity="1.00" d=" M 249.36 232.47 C 256.18 230.22 261.31 236.10 265.72 240.30 C 268.92 243.06 270.62 247.08 271.62 251.11 C 263.24 273.34 251.97 294.61 246.95 318.00 C 244.51 325.78 242.16 333.65 239.08 341.19 C 215.14 343.22 191.07 343.95 167.13 346.09 C 176.01 328.97 181.58 309.44 195.70 295.66 C 212.79 273.96 232.66 254.55 249.36 232.47 Z" />
<path fill="#f5e5c1" opacity="1.00" d=" M 206.30 264.13 C 213.31 259.83 219.25 253.30 227.47 251.32 C 228.01 256.82 222.92 260.09 219.70 263.71 C 206.63 278.62 194.96 294.71 181.36 309.15 C 174.64 319.06 166.28 328.00 161.19 338.92 C 164.82 326.20 157.70 313.62 153.47 301.86 C 156.77 297.74 161.45 295.26 166.19 293.19 C 179.77 283.81 193.26 274.28 206.30 264.13 Z" />
<path fill="#f5e5c1" opacity="1.00" d=" M 274.20 255.35 C 275.90 256.45 278.09 258.66 278.89 260.93 C 275.06 265.83 269.37 270.37 269.27 277.10 C 268.02 291.33 263.99 305.10 262.18 319.26 C 260.69 319.25 259.19 319.24 257.71 319.25 C 256.28 326.18 257.36 333.50 255.34 340.24 C 251.97 340.60 248.58 340.68 245.20 340.92 C 247.61 325.91 253.13 311.57 256.68 296.80 C 262.56 283.02 267.44 268.67 274.20 255.35 Z" />
<path fill="#f5e5c1" opacity="1.00" d=" M 130.87 262.90 C 132.27 262.62 133.67 262.32 135.07 262.04 C 132.54 265.59 132.10 269.91 130.89 273.95 C 124.18 290.49 115.66 307.62 117.53 325.98 C 117.49 332.24 120.01 338.07 121.37 344.09 C 112.27 343.42 103.16 342.97 94.06 342.30 C 95.46 337.15 97.40 332.14 98.51 326.92 C 98.03 323.40 95.93 320.31 94.72 316.99 C 98.64 309.65 103.52 302.84 107.39 295.45 C 115.50 284.82 124.00 274.39 130.87 262.90 Z" />
<path fill="#f5e5c1" opacity="1.00" d=" M 127.82 286.80 C 131.70 280.37 131.52 272.33 135.80 266.20 C 136.24 273.57 136.08 280.97 136.31 288.35 C 136.70 288.47 137.49 288.71 137.88 288.83 C 140.50 293.94 146.29 296.12 149.47 300.72 C 144.27 315.49 134.78 327.97 126.78 341.24 C 125.38 337.55 124.25 333.78 123.04 330.03 C 119.08 315.59 124.24 300.74 127.82 286.80 Z" />
<path fill="#f5e5c1" opacity="1.00" d=" M 324.69 298.68 C 327.12 295.47 331.39 295.14 335.03 294.39 C 350.90 304.67 363.52 319.14 378.87 330.13 C 390.32 336.29 399.98 345.10 410.00 353.26 C 409.99 371.78 410.01 390.29 409.99 408.81 C 370.03 408.78 330.07 408.83 290.11 408.79 C 288.27 402.04 289.44 394.86 289.62 387.96 C 290.54 376.50 290.06 365.00 290.12 353.53 C 292.17 353.58 294.23 353.57 296.29 353.57 C 296.93 352.37 297.59 351.19 298.36 350.08 C 298.59 342.64 299.18 335.18 300.04 327.82 C 306.67 316.95 316.24 308.16 324.69 298.68 Z" />
<path fill="#f5e5c1" opacity="1.00" d=" M 66.75 307.71 C 70.49 306.45 74.13 304.90 77.82 303.47 C 73.82 313.32 70.64 323.63 64.40 332.39 C 61.29 339.92 58.81 347.72 55.64 355.23 C 53.04 355.96 54.94 352.29 55.27 351.25 C 60.64 337.22 63.95 322.40 66.75 307.71 Z" />
<path fill="#f5e5c1" opacity="1.00" d=" M 127.81 344.55 C 130.71 340.07 133.44 335.49 136.46 331.09 C 136.45 332.44 136.47 333.79 136.51 335.15 C 142.02 336.51 141.78 341.01 139.08 345.07 C 135.32 345.08 131.56 344.85 127.81 344.55 Z" />
<path fill="#f5e5c1" opacity="1.00" d=" M 160.58 351.85 C 192.27 349.63 223.98 347.60 255.68 345.45 C 256.06 347.36 256.31 349.29 256.51 351.24 C 257.78 351.61 259.04 352.02 260.30 352.47 C 260.47 371.26 258.80 390.04 259.80 408.83 C 241.55 408.66 223.29 409.05 205.04 408.60 C 211.22 408.09 212.99 401.69 215.47 397.11 C 218.45 392.16 217.95 385.21 213.93 380.95 C 208.47 372.85 196.05 373.08 188.98 378.87 C 183.90 383.88 180.04 390.81 180.81 398.16 C 182.20 402.73 185.54 406.88 189.97 408.78 C 145.77 408.69 101.57 409.06 57.38 408.60 C 60.55 399.72 63.52 390.75 66.97 381.99 C 72.73 376.98 79.34 372.93 85.40 368.25 C 87.12 361.12 89.63 354.19 92.17 347.32 C 114.98 348.73 137.81 350.04 160.58 351.85 Z" />
</svg>
