<?xml version="1.0" encoding="UTF-8" ?>
<!DOCTYPE svg PUBLIC "-//W3C//DTD SVG 1.1//EN" "http://www.w3.org/Graphics/SVG/1.1/DTD/svg11.dtd">
<svg width="422pt" height="422pt" viewBox="0 0 422 422" version="1.1" xmlns="http://www.w3.org/2000/svg">
<path fill="#3f3f3f" opacity="1.00" d=" M 0.00 0.00 L 422.00 0.00 L 422.00 422.00 L 0.00 422.00 L 0.00 0.00 Z" />
<path fill="#f4722b" opacity="1.00" d=" M 11.99 12.01 C 49.64 12.10 87.31 11.79 124.96 12.16 C 139.67 48.94 154.93 85.49 169.78 122.21 C 171.10 125.69 173.35 129.16 172.56 133.05 C 171.83 137.33 171.29 141.64 171.39 145.99 C 171.31 175.97 171.38 205.95 171.35 235.93 C 171.38 243.67 171.05 251.48 172.67 259.10 C 163.82 245.70 154.87 232.37 145.98 218.99 C 144.41 216.94 144.56 214.29 144.38 211.85 C 148.93 207.40 150.60 198.92 144.81 194.75 C 144.07 190.22 144.80 184.37 140.63 181.33 C 139.45 180.30 137.74 180.57 136.32 180.23 C 136.27 173.47 136.73 166.67 135.56 159.98 C 135.44 134.35 135.48 108.71 135.38 83.07 C 135.28 79.34 135.73 75.56 134.81 71.90 C 135.86 66.53 135.99 60.58 133.25 55.66 C 130.12 50.48 120.52 51.89 119.63 58.13 C 119.41 62.44 119.52 66.81 118.30 71.00 C 117.62 75.15 114.92 78.72 114.65 82.94 C 114.60 112.58 114.77 142.23 114.61 171.87 C 110.92 166.40 107.34 160.84 103.59 155.41 C 102.54 153.76 101.15 152.09 101.30 150.01 C 101.23 133.14 101.40 116.27 101.22 99.40 C 104.58 99.43 108.60 99.84 111.11 97.12 C 113.82 94.07 113.77 89.30 112.14 85.74 C 110.28 82.61 107.11 80.39 103.65 79.34 C 104.77 74.45 101.70 69.21 96.40 69.12 C 96.35 66.97 96.32 64.82 96.29 62.68 C 101.20 62.64 106.19 63.21 111.05 62.30 C 116.56 59.26 114.56 52.09 114.44 46.96 C 111.01 43.23 106.33 39.97 101.03 40.36 C 88.67 40.41 76.31 40.29 63.96 40.42 C 60.58 40.30 57.75 42.45 54.94 44.02 C 51.35 46.52 52.56 51.38 52.44 55.09 C 52.22 58.66 55.47 61.69 58.89 62.00 C 63.17 62.66 67.51 62.27 71.82 62.29 C 71.75 64.26 71.61 66.22 71.36 68.17 C 68.95 68.47 66.18 68.57 64.50 70.60 C 62.10 73.05 62.61 76.74 62.51 79.86 C 60.03 80.52 57.85 81.89 55.96 83.61 C 41.53 62.42 27.53 40.95 13.23 19.68 C 11.44 17.51 12.09 14.59 11.99 12.01 Z" />
<path fill="#f4722b" opacity="1.00" d=" M 219.58 12.00 C 248.81 12.09 278.03 11.81 307.25 12.14 C 306.82 20.60 308.05 29.22 306.58 37.57 C 286.67 32.93 265.68 35.72 246.48 42.18 C 239.74 44.44 233.48 47.82 227.19 51.09 C 224.49 38.09 222.24 25.00 219.58 12.00 Z" />
<path fill="#f4722b" opacity="1.00" d=" M 382.61 84.03 C 387.57 60.00 392.53 35.97 397.65 11.98 C 401.10 12.00 404.55 12.00 408.00 12.00 C 408.01 80.01 407.98 148.01 408.01 216.01 C 408.11 218.25 407.40 220.40 406.49 222.41 C 404.19 227.60 402.20 232.93 399.69 238.02 C 399.78 217.36 399.71 196.70 399.73 176.04 C 399.59 163.68 400.06 151.29 399.37 138.94 C 397.23 121.79 392.36 104.68 382.98 90.03 C 381.72 88.24 382.27 86.01 382.61 84.03 Z" />
<path fill="#f5e5c1" opacity="1.00" d=" M 271.57 45.06 C 293.09 42.33 315.57 45.93 334.71 56.31 C 356.99 67.92 374.72 87.87 383.80 111.27 C 388.40 123.31 390.93 136.16 390.96 149.05 C 390.99 174.04 390.96 199.02 390.97 224.00 C 390.87 237.31 391.69 250.81 388.65 263.89 C 383.71 287.81 369.93 309.68 350.75 324.75 C 322.44 347.33 282.17 353.78 248.39 340.55 C 209.19 326.35 180.51 286.82 180.24 244.98 C 180.18 214.32 180.24 183.67 180.21 153.02 C 178.91 124.66 190.14 96.15 210.03 75.96 C 226.31 59.16 248.34 47.99 271.57 45.06 Z" />
<path fill="#f5e5c1" opacity="1.00" d=" M 59.59 49.83 C 61.58 48.75 63.54 47.22 65.93 47.43 C 77.65 47.41 89.37 47.43 101.09 47.42 C 103.59 47.24 105.75 48.74 107.55 50.29 C 107.72 52.04 107.60 53.80 107.56 55.55 C 94.71 55.42 81.87 55.39 69.02 55.30 C 65.83 55.20 62.56 55.69 59.47 54.68 C 59.52 53.06 59.56 51.44 59.59 49.83 Z" />
<path fill="#f5e5c1" opacity="1.00" d=" M 79.24 59.55 C 82.38 59.60 85.52 59.61 88.66 59.57 C 88.68 64.12 88.69 68.66 88.62 73.20 C 91.19 74.60 93.85 75.85 96.66 76.73 C 95.99 79.97 95.47 83.24 95.32 86.54 C 97.94 86.52 100.56 86.52 103.18 86.51 C 104.86 88.09 106.98 89.72 106.43 92.35 C 90.73 92.46 75.03 92.42 59.33 92.38 C 58.79 89.08 62.26 87.52 64.82 86.61 C 66.78 86.41 68.76 86.52 70.73 86.55 C 70.57 83.00 70.09 79.47 69.50 75.97 C 73.18 75.19 76.71 73.16 79.16 70.33 C 79.39 66.75 79.10 63.14 79.24 59.55 Z" />
<path fill="#f5e5c1" opacity="1.00" d=" M 121.88 82.89 C 124.63 76.12 126.64 69.04 127.04 61.69 C 128.56 74.06 126.90 86.62 128.14 99.00 C 128.47 127.55 128.35 156.11 128.76 184.66 C 126.60 184.68 124.45 184.68 122.29 184.65 C 122.25 162.78 122.26 140.92 122.29 119.05 C 121.54 107.02 121.62 94.93 121.88 82.89 Z" />
<path fill="#f5e5c1" opacity="1.00" d=" M 70.26 96.57 C 78.06 96.40 85.86 96.44 93.66 96.52 C 95.15 103.96 93.46 111.52 93.79 119.03 C 93.52 126.70 94.66 134.38 93.82 142.03 C 94.31 146.03 94.20 150.04 93.97 154.05 C 94.63 161.87 93.75 169.71 94.30 177.54 C 86.28 177.87 78.26 177.54 70.24 177.72 C 70.26 150.67 70.22 123.62 70.26 96.57 Z" />
<path fill="#3f3f3f" opacity="1.00" d=" M 79.41 98.72 C 81.73 98.74 84.07 98.75 86.40 98.76 C 86.43 118.03 86.36 137.30 86.44 156.57 C 84.07 156.59 81.70 156.60 79.34 156.61 C 79.39 137.31 79.26 118.02 79.41 98.72 Z" />
<path fill="#3f3f3f" opacity="1.00" d=" M 251.01 109.98 C 263.35 100.32 280.34 97.26 295.40 101.32 C 313.63 105.99 328.52 121.64 332.23 140.10 C 333.91 146.88 332.99 153.91 333.23 160.81 C 341.14 160.88 349.08 160.50 356.97 161.24 C 362.55 162.63 366.16 168.40 366.12 173.98 C 366.13 188.66 366.13 203.35 366.12 218.03 C 366.37 223.56 362.15 228.31 357.36 230.49 C 354.02 232.10 350.45 230.25 347.00 230.31 C 342.41 230.28 337.82 230.35 333.24 230.30 C 333.16 234.90 333.32 239.50 333.18 244.10 C 331.89 258.93 323.71 272.97 311.44 281.41 C 302.40 287.91 291.13 291.21 280.01 290.61 C 258.81 290.37 239.28 274.91 233.19 254.77 C 230.53 246.88 230.73 238.50 230.81 230.30 C 224.54 230.29 218.28 230.38 212.02 230.30 C 208.52 230.29 205.05 228.85 202.51 226.46 C 200.17 223.92 199.77 220.29 199.75 216.99 C 199.75 202.99 199.77 188.98 199.74 174.98 C 199.80 171.81 199.80 168.36 201.69 165.65 C 204.12 162.53 208.09 160.73 212.04 160.81 C 218.30 160.75 224.56 160.82 230.82 160.81 C 230.86 156.19 230.76 151.58 230.83 146.96 C 231.80 132.49 239.38 118.65 251.01 109.98 Z" />
<path fill="#f4722b" opacity="1.00" d=" M 255.09 124.89 C 254.92 122.79 256.86 121.00 258.92 121.14 C 273.27 120.98 287.62 121.12 301.96 121.07 C 304.29 120.97 306.59 121.40 308.77 122.17 C 309.31 137.61 308.98 153.09 308.97 168.54 C 324.00 168.66 339.04 168.49 354.07 168.62 C 355.91 168.44 357.87 170.03 357.67 171.96 C 357.73 187.31 357.66 202.68 357.69 218.04 C 357.87 220.11 356.49 222.82 354.12 222.62 C 339.08 222.61 324.04 222.59 309.00 222.63 C 309.21 236.07 308.64 249.51 308.90 262.95 C 308.73 265.16 309.27 268.69 306.57 269.53 C 290.62 269.16 274.62 269.27 258.66 269.43 C 256.98 268.02 254.67 266.60 255.11 264.04 C 255.07 250.24 254.82 236.44 255.02 222.64 C 241.00 222.59 226.98 222.61 212.96 222.57 C 211.07 222.69 209.34 221.94 207.65 221.21 C 207.46 204.19 207.43 187.16 207.67 170.14 C 208.23 169.76 209.35 168.99 209.91 168.61 C 224.94 168.57 239.97 168.60 255.00 168.59 C 255.10 154.03 254.96 139.46 255.09 124.89 Z" />
<path fill="#f4722b" opacity="1.00" d=" M 12.03 162.42 C 31.12 181.53 50.25 200.60 69.37 219.68 C 70.27 220.63 71.28 221.72 71.18 223.14 C 72.11 242.76 71.53 262.42 71.76 282.06 C 71.89 289.40 71.43 296.77 72.19 304.09 C 70.99 303.54 69.79 302.99 68.67 302.27 C 49.83 289.50 30.85 276.95 11.98 264.22 C 12.05 230.29 11.95 196.35 12.03 162.42 Z" />
<path fill="#f5e5c1" opacity="1.00" d=" M 66.20 190.58 C 66.23 186.98 68.67 184.26 70.81 181.64 C 78.27 181.81 85.74 181.51 93.19 181.77 C 95.07 182.55 96.01 184.82 97.69 186.02 C 97.69 187.77 97.63 189.53 97.53 191.28 C 90.35 191.13 83.17 191.41 75.99 191.10 C 72.72 190.98 69.36 191.79 66.20 190.58 Z" />
<path fill="#f5e5c1" opacity="1.00" d=" M 113.68 187.66 C 121.29 187.60 128.90 187.76 136.51 187.57 C 137.33 190.83 137.55 194.19 137.86 197.53 C 129.60 197.46 121.34 197.56 113.08 197.48 C 113.42 194.21 113.58 190.94 113.68 187.66 Z" />
<path fill="#f5e5c1" opacity="1.00" d=" M 69.22 194.53 C 77.69 194.58 86.15 194.52 94.62 194.57 C 93.90 197.82 93.52 201.11 93.50 204.43 C 85.85 204.39 78.21 204.40 70.56 204.43 C 70.42 201.09 69.81 197.81 69.22 194.53 Z" />
<path fill="#f5e5c1" opacity="1.00" d=" M 109.48 201.28 C 119.92 201.25 130.37 201.27 140.81 201.26 C 141.27 204.84 138.82 207.53 136.95 210.27 C 129.20 210.53 121.44 210.25 113.69 210.43 C 112.46 208.80 111.12 207.26 109.51 205.99 C 109.48 204.42 109.48 202.84 109.48 201.28 Z" />
<path fill="#f5e5c1" opacity="1.00" d=" M 78.42 207.44 C 80.74 207.36 83.05 207.38 85.36 207.56 C 85.31 240.70 85.30 273.83 85.50 306.97 C 85.77 310.19 83.91 312.97 82.94 315.92 C 81.45 320.56 80.65 325.38 79.96 330.20 C 79.29 325.49 79.56 320.73 79.59 316.00 C 79.34 294.03 79.29 272.05 79.17 250.09 C 78.29 235.91 78.85 221.65 78.42 207.44 Z" />
<path fill="#f5e5c1" opacity="1.00" d=" M 113.38 214.35 C 121.38 214.45 129.37 214.32 137.37 214.43 C 137.30 241.43 137.33 268.43 137.35 295.43 C 129.37 295.70 121.37 295.68 113.39 295.48 C 113.39 268.43 113.39 241.39 113.38 214.35 Z" />
<path fill="#3f3f3f" opacity="1.00" d=" M 120.75 235.55 C 123.26 235.46 125.77 235.45 128.28 235.55 C 128.33 254.57 128.05 273.60 128.42 292.62 C 126.22 293.55 123.79 293.34 121.45 293.46 C 120.39 290.76 120.83 287.84 120.78 285.02 C 120.88 279.33 120.57 273.63 120.97 267.94 C 120.53 257.16 120.94 246.35 120.75 235.55 Z" />
<path fill="#f4722b" opacity="1.00" d=" M 92.55 242.86 C 97.15 247.56 102.08 251.95 106.36 256.96 C 106.35 268.84 106.25 280.73 106.42 292.62 C 102.32 292.53 96.76 292.36 94.83 296.84 C 94.07 299.77 93.91 303.08 94.95 305.97 C 96.92 309.02 99.87 311.92 103.59 312.55 C 103.63 315.07 103.29 317.91 105.04 320.00 C 106.50 322.14 109.24 322.55 111.41 323.66 C 111.34 325.74 111.18 327.84 110.57 329.85 C 103.51 325.82 96.72 321.22 90.23 316.33 C 91.55 314.11 92.81 311.72 92.58 309.05 C 92.58 286.99 92.51 264.92 92.55 242.86 Z" />
<path fill="#f5e5c1" opacity="1.00" d=" M 102.17 303.71 C 100.89 302.71 101.42 301.01 101.30 299.64 C 116.79 299.67 132.28 299.64 147.77 299.65 C 148.42 302.77 145.51 304.62 142.91 305.40 C 140.74 305.69 138.55 305.53 136.37 305.53 C 136.85 309.04 137.49 312.54 137.64 316.09 C 134.19 316.97 130.98 318.86 128.47 321.36 C 128.19 325.06 128.48 328.77 128.39 332.48 C 125.10 332.47 121.81 332.46 118.52 332.46 C 118.55 327.90 118.52 323.34 118.59 318.78 C 116.15 317.49 113.61 316.41 111.02 315.46 C 111.40 312.14 111.65 308.82 111.82 305.49 C 108.59 305.31 104.55 306.61 102.17 303.71 Z" />
<path fill="#f4722b" opacity="1.00" d=" M 144.63 312.64 C 148.48 311.01 152.21 308.72 154.30 304.96 C 155.20 305.63 156.10 306.29 156.92 307.06 C 190.59 340.72 224.30 374.33 257.98 407.97 C 248.67 408.05 239.35 407.95 230.04 408.03 C 228.57 407.94 226.95 408.20 225.65 407.35 C 197.80 388.88 170.19 370.02 142.28 351.64 C 146.56 351.78 150.79 349.70 153.78 346.73 C 155.42 343.51 154.75 339.57 154.67 336.05 C 154.76 333.56 152.78 331.49 150.60 330.64 C 145.67 329.21 140.48 329.79 135.43 329.75 C 135.45 328.01 135.47 326.27 135.48 324.54 C 138.08 323.59 141.30 323.52 143.08 321.11 C 145.38 318.92 144.44 315.45 144.63 312.64 Z" />
<path fill="#f4722b" opacity="1.00" d=" M 345.51 407.89 C 366.43 377.06 387.22 346.14 407.99 315.21 C 407.99 330.19 408.02 345.17 407.99 360.16 C 408.17 361.48 406.98 362.32 406.24 363.22 C 391.37 378.06 376.66 393.07 361.84 407.96 C 356.39 408.01 350.95 408.08 345.51 407.89 Z" />
<path fill="#f4722b" opacity="1.00" d=" M 327.93 347.98 C 341.18 342.81 353.22 334.77 363.68 325.18 C 352.25 352.81 340.76 380.42 329.24 408.01 C 324.64 407.99 320.04 407.99 315.44 408.00 C 319.54 387.98 323.81 368.00 327.93 347.98 Z" />
<path fill="#f5e5c1" opacity="1.00" d=" M 99.62 336.55 C 112.09 336.60 124.55 336.69 137.02 336.76 C 140.56 336.80 144.13 336.54 147.64 337.18 C 147.63 338.89 147.64 340.60 147.66 342.32 C 145.89 343.28 144.16 344.70 142.02 344.60 C 130.00 344.67 117.97 344.62 105.95 344.63 C 103.50 344.78 101.58 343.04 99.57 341.96 C 99.58 340.15 99.60 338.35 99.62 336.55 Z" />
<path fill="#f4722b" opacity="1.00" d=" M 12.19 338.32 C 44.11 352.06 76.32 365.15 108.34 378.66 C 114.23 381.21 120.35 383.28 126.04 386.27 C 126.60 386.36 127.71 386.56 128.27 386.65 C 133.86 389.58 139.80 391.99 145.79 393.96 C 146.23 394.33 147.09 395.08 147.53 395.46 C 148.18 395.50 149.50 395.57 150.15 395.61 C 150.65 396.03 151.63 396.85 152.13 397.27 C 152.70 397.37 153.83 397.56 154.40 397.66 C 160.13 400.29 165.95 403.01 171.98 404.92 C 172.37 405.27 173.15 405.97 173.54 406.33 C 175.24 406.57 176.94 406.83 178.64 407.14 C 177.13 407.56 175.59 408.00 174.00 408.00 C 135.33 408.00 96.65 408.00 57.98 408.00 C 50.94 407.73 43.71 408.72 36.82 406.85 C 28.59 405.61 20.58 403.09 12.27 402.35 C 11.66 388.92 12.16 375.45 12.00 362.00 C 12.09 354.11 11.80 346.21 12.19 338.32 Z" />
<path fill="#f4722b" opacity="1.00" d=" M 226.82 339.76 C 237.75 346.86 250.28 351.07 262.98 353.70 C 264.50 353.81 265.10 355.34 265.64 356.54 C 272.63 373.69 279.59 390.86 286.67 407.98 C 281.76 408.02 276.86 407.98 271.96 408.03 C 257.71 387.19 243.99 365.98 229.86 345.06 C 228.70 343.38 227.70 341.59 226.82 339.76 Z" />
<path fill="#f4722b" opacity="1.00" d=" M 286.17 356.44 C 293.19 355.57 300.26 355.39 307.25 354.28 C 307.22 372.14 307.22 390.00 307.25 407.86 C 303.54 408.04 299.82 408.04 296.10 407.97 C 292.68 390.82 289.49 373.62 286.17 356.44 Z" />
<path fill="#f4722b" opacity="1.00" d=" M 391.32 407.96 C 396.83 404.24 402.37 400.56 407.96 396.96 C 408.01 400.64 408.01 404.32 408.00 408.00 C 402.44 407.99 396.88 408.04 391.32 407.96 Z" />
</svg>
