<?xml version="1.0" encoding="UTF-8" ?>
<!DOCTYPE svg PUBLIC "-//W3C//DTD SVG 1.1//EN" "http://www.w3.org/Graphics/SVG/1.1/DTD/svg11.dtd">
<svg width="422pt" height="422pt" viewBox="0 0 422 422" version="1.1" xmlns="http://www.w3.org/2000/svg">
<path fill="#3e3e3e" opacity="1.00" d=" M 0.00 0.00 L 422.00 0.00 L 422.00 422.00 L 0.00 422.00 L 0.00 0.00 Z" />
<path fill="#f5e5c1" opacity="1.00" d=" M 119.02 20.95 C 148.53 15.18 180.03 20.78 205.83 36.20 C 230.40 50.71 249.62 73.97 259.24 100.83 C 269.27 128.30 269.09 159.31 258.76 186.67 C 253.93 199.84 246.59 211.96 237.83 222.86 C 238.72 226.84 238.76 230.95 239.75 234.92 C 242.77 247.04 245.86 259.15 248.81 271.29 C 246.44 271.41 243.94 271.52 241.87 270.15 C 230.03 263.34 218.18 256.53 206.35 249.70 C 183.29 263.54 155.69 269.72 128.94 266.71 C 98.51 263.55 69.50 248.58 49.29 225.61 C 30.79 204.87 19.57 177.74 18.17 149.97 C 16.33 119.93 26.09 89.41 44.83 65.88 C 63.13 42.67 89.96 26.38 119.02 20.95 Z" />
<path fill="#f4722b" opacity="1.00" d=" M 101.41 44.27 C 101.97 42.28 104.30 42.33 105.95 42.27 C 129.97 42.27 153.99 42.32 178.01 42.25 C 179.74 42.39 182.04 42.02 183.09 43.78 C 183.74 45.06 183.57 46.56 183.67 47.95 C 183.61 65.41 183.66 82.87 183.64 100.33 C 201.42 100.34 219.21 100.31 237.00 100.32 C 239.24 100.01 241.89 101.29 241.61 103.89 C 241.75 128.60 241.61 153.32 241.68 178.04 C 242.00 180.35 240.83 183.16 238.07 182.80 C 219.92 182.95 201.77 182.80 183.63 182.85 C 183.57 200.92 183.69 219.00 183.58 237.08 C 183.86 239.17 182.23 241.11 180.04 240.83 C 155.70 240.99 131.35 240.79 107.00 240.92 C 105.19 240.73 102.72 241.27 101.59 239.44 C 101.07 238.02 101.15 236.48 101.09 235.00 C 101.18 217.62 101.12 200.24 101.13 182.86 C 83.07 182.80 65.01 182.93 46.96 182.82 C 44.70 183.13 42.79 181.38 43.13 179.08 C 43.01 155.07 43.18 131.05 43.05 107.04 C 43.13 105.26 42.94 103.38 43.61 101.69 C 44.83 99.99 47.15 100.47 48.95 100.29 C 66.35 100.36 83.74 100.33 101.14 100.32 C 101.13 84.55 101.17 68.78 101.12 53.01 C 101.15 50.10 100.90 47.15 101.41 44.27 Z" />
<path fill="#f5e5c1" opacity="1.00" d=" M 391.37 91.31 C 397.90 85.60 403.75 79.17 410.11 73.29 C 409.89 82.82 410.53 92.40 409.81 101.90 C 406.88 105.99 402.28 108.35 398.36 111.35 C 393.49 115.08 388.07 117.98 383.12 121.58 C 388.66 123.97 394.39 125.89 400.00 128.11 C 403.51 129.66 407.29 131.15 409.82 134.18 C 410.40 137.88 410.04 141.65 410.10 145.39 C 399.56 139.59 388.42 134.90 376.98 131.19 C 364.92 128.19 352.25 126.89 339.94 129.05 C 332.36 130.00 324.18 133.21 320.49 140.37 C 315.87 149.37 316.68 160.25 319.62 169.66 C 321.79 177.02 329.08 181.93 330.03 189.76 C 327.51 190.90 325.70 188.44 323.93 187.07 C 315.89 179.67 308.40 170.88 305.74 160.02 C 303.56 150.74 303.41 140.71 306.79 131.70 C 308.28 127.86 311.40 125.05 314.34 122.31 C 318.65 118.23 324.59 116.60 330.23 115.30 C 337.07 113.70 344.12 114.50 351.06 114.24 C 356.74 113.73 362.07 111.47 367.22 109.18 C 376.41 104.90 383.46 97.43 391.37 91.31 Z" />
<path fill="#f5e5c1" opacity="1.00" d=" M 354.06 184.76 C 359.70 183.61 365.24 181.56 371.06 181.64 C 374.54 183.36 377.31 186.28 380.63 188.33 C 384.42 190.71 386.88 194.59 388.30 198.75 C 386.86 204.41 386.58 210.27 385.23 215.95 C 383.83 221.87 383.46 227.97 382.91 234.01 C 382.83 236.17 382.69 238.81 384.46 240.39 C 388.62 244.29 394.00 246.87 397.40 251.55 C 400.18 255.32 402.70 259.38 404.01 263.92 C 406.14 271.10 408.58 278.38 408.35 285.98 C 408.57 291.13 407.54 296.45 409.22 301.44 C 410.27 305.57 409.27 309.80 408.93 313.95 C 409.92 325.70 407.41 337.49 403.70 348.59 C 398.20 359.71 385.52 363.84 375.34 369.46 C 367.42 372.96 360.84 380.25 351.59 379.95 C 350.15 380.36 348.70 380.92 347.18 380.71 C 347.21 378.18 348.44 375.87 350.23 374.14 C 354.76 369.64 359.31 364.99 362.39 359.34 C 365.69 353.91 368.40 348.16 371.69 342.73 C 373.92 339.06 375.43 335.02 376.50 330.88 C 373.58 332.84 371.34 335.56 369.51 338.53 C 360.26 351.35 350.56 364.15 337.98 373.92 C 330.11 379.08 322.31 384.36 314.29 389.27 C 303.15 395.00 292.47 402.44 279.97 404.81 C 271.85 398.75 263.83 392.41 256.88 385.03 C 250.72 376.89 242.86 369.93 233.66 365.42 C 230.50 363.55 224.67 365.60 225.64 369.94 C 227.19 382.91 232.59 395.15 233.70 408.20 C 226.46 403.87 226.38 394.63 224.65 387.34 C 221.80 377.09 219.55 366.39 213.85 357.26 C 210.23 350.18 204.07 344.23 202.90 336.06 C 200.87 323.67 204.81 308.82 216.35 302.33 C 222.43 298.53 230.07 299.98 236.26 302.73 C 242.42 305.87 248.54 310.10 251.56 316.55 C 255.89 324.46 256.52 333.68 260.19 341.83 C 261.58 345.40 261.73 349.59 264.48 352.50 C 266.51 354.75 268.88 357.06 271.96 357.68 C 277.56 358.90 283.32 359.19 289.03 359.35 C 290.88 359.28 292.91 359.64 294.56 358.60 C 299.53 355.73 304.07 352.00 307.25 347.17 C 312.01 341.06 314.54 333.69 317.77 326.76 C 319.60 322.59 321.84 318.60 323.26 314.28 C 324.62 309.73 324.79 304.96 325.49 300.29 C 325.33 300.26 325.03 300.20 324.87 300.17 C 323.39 304.52 321.06 308.52 319.70 312.91 C 317.73 319.04 314.11 324.42 310.93 329.96 C 307.21 335.76 303.19 341.51 297.99 346.09 C 293.10 349.26 285.29 349.56 281.63 344.36 C 276.07 334.70 272.63 323.90 266.21 314.71 C 262.59 309.75 259.39 304.40 254.84 300.20 C 250.58 296.35 246.31 292.03 240.56 290.58 C 235.16 288.46 229.25 289.37 223.70 288.06 C 225.37 282.02 232.38 279.82 237.98 280.97 C 246.04 282.61 254.41 284.63 260.99 289.84 C 265.91 293.53 268.35 299.34 271.72 304.29 C 275.41 310.82 280.15 316.66 283.82 323.20 C 285.92 326.42 287.93 330.59 291.94 331.60 C 297.10 330.90 300.77 326.55 303.40 322.40 C 306.29 317.82 309.12 313.16 311.04 308.07 C 312.80 303.62 315.93 299.17 314.64 294.14 C 312.68 287.27 307.39 282.19 303.54 276.39 C 300.33 271.41 296.19 267.12 292.12 262.86 C 285.20 257.28 275.85 254.04 266.98 255.87 C 263.14 256.45 260.93 260.04 258.97 263.02 C 256.88 266.09 256.40 269.85 256.27 273.47 L 254.14 273.19 C 255.66 266.87 254.94 258.94 260.51 254.48 C 264.38 251.34 267.53 247.30 272.04 245.01 C 277.05 242.45 282.04 238.64 288.00 239.31 C 293.25 239.15 297.20 243.01 301.19 245.84 C 304.06 248.18 308.12 247.70 311.12 249.79 C 315.83 252.76 321.47 253.56 326.54 255.72 C 335.73 260.08 344.10 267.70 346.51 277.92 C 347.78 284.86 350.22 291.78 349.52 298.93 C 349.09 305.79 347.22 312.43 345.64 319.08 C 344.14 324.44 342.89 330.05 339.73 334.73 C 330.14 348.85 316.56 359.51 303.16 369.75 C 302.94 370.63 302.50 372.39 302.28 373.27 C 308.75 369.14 315.24 365.01 321.54 360.62 C 329.39 354.08 337.06 347.25 345.66 341.69 C 348.17 340.00 349.10 336.94 350.47 334.40 C 353.04 329.47 353.20 323.83 354.12 318.47 C 355.88 309.41 355.92 300.14 357.87 291.11 C 358.59 281.38 360.41 271.74 360.50 261.97 C 360.88 255.34 362.48 248.59 361.04 242.01 C 357.50 234.38 351.63 227.29 343.45 224.46 C 338.69 222.44 333.45 222.16 328.35 222.62 C 336.43 224.33 345.32 226.38 350.84 233.03 C 353.94 236.91 352.40 242.29 350.17 246.18 C 347.26 250.65 342.72 254.86 337.08 254.88 C 331.33 255.11 324.41 253.33 321.93 247.54 C 325.93 246.92 330.82 249.38 334.05 246.06 C 335.89 245.00 334.71 242.64 333.67 241.41 C 330.35 237.93 325.81 235.52 321.01 234.92 C 317.37 234.44 313.43 233.73 310.04 235.62 C 311.33 237.41 312.69 239.16 314.03 240.92 C 312.05 241.27 309.94 241.55 308.09 240.55 C 303.20 238.35 297.99 235.44 295.89 230.20 C 293.52 223.50 293.49 215.04 298.69 209.64 C 304.99 201.85 314.11 196.95 323.42 193.68 C 333.49 190.26 343.64 186.95 354.06 184.76 Z" />
<path fill="#f5e5c1" opacity="1.00" d=" M 269.25 259.41 C 275.81 258.84 281.59 262.68 286.70 266.29 C 295.37 272.66 300.32 282.56 304.61 292.14 C 306.02 294.96 305.92 298.15 305.52 301.20 C 300.78 294.69 295.75 288.39 290.85 282.00 C 286.25 276.51 280.53 272.03 274.20 268.71 C 272.03 267.60 269.53 267.09 267.11 267.31 C 264.12 267.59 262.24 270.23 260.11 272.00 C 259.98 266.37 265.02 262.30 269.25 259.41 Z" />
<path fill="#f5e5c1" opacity="1.00" d=" M 249.89 282.16 C 254.05 278.39 259.97 280.62 264.34 282.78 C 269.27 284.97 272.15 289.77 274.84 294.18 C 279.72 302.88 283.51 312.16 289.12 320.45 C 288.00 321.29 286.88 322.13 285.77 322.98 C 281.46 316.59 277.27 310.12 273.55 303.37 C 271.21 299.20 269.15 294.72 265.62 291.40 C 261.12 287.20 255.49 284.54 249.89 282.16 Z" />
<path fill="#f5e5c1" opacity="1.00" d=" M 44.24 304.21 C 55.03 289.77 72.90 280.90 90.95 281.19 C 104.41 281.09 117.72 286.35 127.75 295.28 C 152.03 315.84 153.65 357.58 130.84 379.81 C 114.01 395.99 87.54 400.37 66.09 391.52 C 59.81 393.89 53.49 396.20 47.20 398.58 C 47.55 391.98 47.99 385.38 48.42 378.79 C 38.58 368.03 32.26 353.73 32.36 339.02 C 32.41 326.54 36.89 314.24 44.24 304.21 Z" />
<path fill="#f4722b" opacity="1.00" d=" M 71.69 296.62 C 83.59 296.44 95.49 296.44 107.39 296.61 C 107.59 304.99 107.45 313.37 107.48 321.75 C 115.82 321.72 124.15 321.71 132.49 321.75 C 132.73 333.61 133.00 345.52 132.40 357.35 C 124.12 357.99 115.79 357.43 107.49 357.60 C 107.40 365.99 107.67 374.39 107.30 382.78 C 95.90 382.75 84.50 382.97 73.11 382.72 C 71.12 382.87 71.81 380.17 71.57 378.98 C 71.55 371.85 71.63 364.72 71.59 357.60 C 63.28 357.42 54.94 358.03 46.65 357.32 C 46.09 345.50 46.35 333.60 46.57 321.76 C 54.92 321.70 63.27 321.73 71.61 321.74 C 71.63 313.37 71.52 304.99 71.69 296.62 Z" />
</svg>
