<?xml version="1.0" encoding="UTF-8" ?>
<!DOCTYPE svg PUBLIC "-//W3C//DTD SVG 1.1//EN" "http://www.w3.org/Graphics/SVG/1.1/DTD/svg11.dtd">
<svg width="422pt" height="422pt" viewBox="0 0 422 422" version="1.1" xmlns="http://www.w3.org/2000/svg">
<path fill="#3e3e3e" opacity="1.00" d=" M 0.00 0.00 L 422.00 0.00 L 422.00 422.00 L 0.00 422.00 L 0.00 0.00 Z" />
<path fill="#f5e5c1" opacity="1.00" d=" M 191.91 20.63 C 206.49 18.45 221.32 19.11 235.97 20.06 C 244.35 20.37 252.67 21.49 260.99 22.46 C 273.76 23.37 286.43 25.39 298.87 28.40 C 311.79 30.77 324.54 35.14 335.41 42.66 C 339.73 45.60 344.38 48.15 348.06 51.94 C 354.94 58.28 362.49 64.72 365.73 73.79 C 367.39 78.62 367.39 83.75 367.22 88.80 C 273.82 88.80 180.42 88.80 87.02 88.80 C 77.40 88.86 67.77 89.02 58.15 88.74 C 57.59 87.81 57.02 86.89 56.42 85.99 C 57.95 84.53 57.26 82.09 57.73 80.20 C 58.13 74.67 62.61 70.93 65.76 66.81 C 70.38 61.06 76.17 56.41 82.25 52.30 C 96.86 40.98 114.55 34.46 132.40 30.34 C 145.73 26.87 159.27 24.27 172.95 22.73 C 179.16 21.21 185.60 21.38 191.91 20.63 Z" />
<path fill="#3e3e3e" opacity="1.00" d=" M 260.23 31.92 C 264.64 29.15 271.90 29.95 273.95 35.26 C 269.09 37.46 264.15 34.71 260.23 31.92 Z" />
<path fill="#3e3e3e" opacity="1.00" d=" M 158.87 38.25 C 161.55 33.96 166.84 32.58 171.62 32.69 C 170.20 38.06 163.69 40.22 158.87 38.25 Z" />
<path fill="#3e3e3e" opacity="1.00" d=" M 214.77 43.22 C 213.00 39.98 214.91 35.99 218.02 34.40 C 219.16 34.74 220.27 35.15 221.35 35.65 C 221.56 38.43 221.47 41.36 219.40 43.48 C 218.54 45.44 215.40 45.27 214.77 43.22 Z" />
<path fill="#f5e5c1" opacity="1.00" d=" M 75.08 99.16 C 80.99 97.61 87.25 95.86 93.35 97.41 C 100.05 98.86 106.07 102.73 112.98 103.24 C 120.38 103.09 126.91 99.15 133.97 97.53 C 143.23 95.54 151.31 101.52 160.07 103.21 C 165.14 102.98 170.12 101.76 175.02 100.54 C 178.46 99.77 181.36 97.11 185.06 97.45 C 194.28 96.86 202.24 102.25 210.97 104.18 C 215.75 104.65 220.03 101.95 224.49 100.69 C 231.31 97.88 239.60 95.61 246.50 99.35 C 252.09 101.54 258.10 102.57 264.06 103.22 C 273.11 101.93 281.33 95.43 290.85 97.53 C 297.94 99.20 304.57 103.17 312.02 103.23 C 318.90 102.63 324.91 98.78 331.60 97.36 C 335.51 96.31 339.62 96.90 343.53 97.62 C 354.90 100.37 366.25 103.53 377.93 104.66 C 382.78 105.25 387.83 104.08 392.51 105.79 C 386.94 109.38 381.28 112.98 375.01 115.21 C 372.02 116.32 368.97 114.96 366.20 113.89 C 358.59 110.92 350.67 108.90 342.84 106.63 C 338.38 106.21 333.77 106.54 329.44 107.72 C 324.15 109.89 318.92 113.06 312.97 112.60 C 304.66 112.05 297.17 107.87 289.06 106.37 C 280.62 105.95 274.05 112.87 265.73 113.28 C 254.45 113.81 244.16 106.83 232.87 107.73 C 227.08 109.59 221.27 111.38 215.50 113.30 C 210.55 114.82 205.94 111.88 201.28 110.71 C 196.86 109.68 192.70 107.02 188.01 107.63 C 178.51 108.56 169.65 113.18 160.04 113.36 C 151.37 113.37 144.66 106.16 136.02 106.35 C 127.53 107.75 119.73 112.37 111.02 112.61 C 105.26 112.84 100.25 109.66 95.07 107.66 C 90.84 106.49 86.34 106.24 81.98 106.63 C 73.98 108.90 65.91 111.01 58.15 114.06 C 55.55 115.07 52.68 116.25 49.89 115.25 C 43.58 113.02 37.85 109.46 32.30 105.78 C 34.45 104.95 36.75 104.74 39.04 104.84 C 51.30 105.24 63.24 101.93 75.08 99.16 Z" />
<path fill="#f5e5c1" opacity="1.00" d=" M 62.24 119.80 C 157.17 119.80 252.10 119.81 347.02 119.80 C 352.42 119.84 357.83 119.62 363.22 120.09 C 363.24 123.32 363.23 126.56 363.23 129.80 C 262.90 129.80 162.57 129.80 62.24 129.80 C 62.23 126.47 62.23 123.13 62.24 119.80 Z" />
<path fill="#f4722b" opacity="1.00" d=" M 57.36 138.69 C 58.74 136.66 60.53 134.75 62.95 134.01 C 65.95 133.59 69.00 133.84 72.03 133.80 C 167.36 133.81 262.68 133.80 358.01 133.80 C 361.11 133.48 363.33 136.01 364.94 138.30 C 361.67 139.06 358.32 138.81 355.00 138.80 C 306.00 138.79 257.01 138.82 208.01 138.79 C 192.65 138.38 177.30 142.35 163.91 149.83 C 155.77 154.48 147.63 159.25 138.91 162.75 C 135.96 163.96 131.75 164.17 129.73 161.24 C 125.40 155.01 120.23 149.26 113.82 145.11 C 110.76 143.20 107.92 140.92 104.75 139.17 C 101.90 138.48 98.93 138.87 96.02 138.79 C 83.14 138.75 70.25 138.93 57.36 138.69 Z" />
<path fill="#f5e5c1" opacity="1.00" d=" M 46.06 151.82 C 46.15 146.99 49.80 141.98 54.92 141.88 C 70.64 141.79 86.37 141.86 102.10 141.85 C 103.53 143.01 104.96 144.17 106.40 145.34 C 91.27 145.39 76.14 145.35 61.01 145.35 C 57.25 145.22 53.35 147.17 51.63 150.60 C 49.71 154.10 50.37 158.22 50.24 162.03 C 50.16 165.22 50.62 168.66 52.80 171.15 C 55.24 174.10 59.28 174.94 62.93 174.85 C 161.63 174.83 260.33 174.83 359.03 174.85 C 363.69 174.88 369.14 175.32 372.71 171.70 C 376.80 167.50 375.71 161.19 375.74 155.88 C 375.83 150.52 371.48 145.46 366.00 145.39 C 306.84 145.25 247.67 145.51 188.52 145.26 C 192.36 144.20 195.95 141.81 200.04 141.82 C 257.02 141.87 314.01 141.82 370.99 141.85 C 375.87 141.68 380.25 146.20 380.21 151.02 C 380.35 156.65 380.30 162.29 380.24 167.92 C 380.35 171.38 378.47 174.84 375.40 176.48 C 371.94 178.45 367.83 177.96 364.03 178.01 C 261.64 177.97 159.26 178.03 56.88 177.98 C 51.80 178.04 46.69 174.28 46.22 169.03 C 45.77 163.31 46.01 157.55 46.06 151.82 Z" />
<path fill="#f5e5c1" opacity="1.00" d=" M 60.77 181.20 C 162.10 181.20 263.43 181.20 364.76 181.20 C 364.76 184.53 364.76 187.86 364.76 191.20 C 263.43 191.20 162.10 191.20 60.77 191.20 C 60.76 187.86 60.76 184.53 60.77 181.20 Z" />
<path fill="#f4722b" opacity="1.00" d=" M 56.68 195.76 C 58.87 193.54 62.21 194.32 64.99 194.17 C 162.35 194.23 259.72 194.19 357.08 194.19 C 359.00 193.99 360.63 195.10 362.22 196.01 C 362.23 196.79 362.23 198.37 362.24 199.15 C 310.15 198.78 258.06 199.13 205.97 198.98 C 202.93 198.76 200.35 200.57 197.70 201.74 C 181.94 208.24 166.66 215.86 151.30 223.27 C 147.52 225.21 143.73 227.30 139.47 227.96 C 123.48 218.08 107.25 208.54 90.98 199.16 C 79.33 198.73 67.64 199.20 55.97 198.94 C 56.13 197.86 56.36 196.80 56.68 195.76 Z" />
<path fill="#f5e5c1" opacity="1.00" d=" M 46.00 211.98 C 45.72 206.79 49.33 200.99 54.92 200.88 C 64.63 200.78 74.35 200.86 84.06 200.84 C 87.17 200.67 89.45 203.15 92.05 204.46 C 81.69 204.25 71.33 204.41 60.97 204.35 C 57.22 204.24 53.34 206.18 51.63 209.60 C 49.72 213.08 50.36 217.18 50.24 220.98 C 50.15 224.20 50.61 227.66 52.81 230.17 C 55.27 233.12 59.34 233.94 63.01 233.85 C 161.68 233.83 260.36 233.83 359.04 233.85 C 363.70 233.88 369.15 234.32 372.72 230.69 C 376.97 226.22 375.70 219.53 375.66 213.95 C 375.42 208.51 370.44 204.00 365.00 204.35 C 310.66 204.46 256.33 204.18 202.00 204.49 C 205.28 203.20 208.21 200.45 211.96 200.82 C 264.98 200.88 318.00 200.81 371.02 200.85 C 375.21 200.70 379.00 204.07 379.99 208.03 C 380.58 212.67 380.15 217.36 380.29 222.03 C 380.17 225.58 380.80 229.57 378.55 232.62 C 376.51 235.70 372.65 237.02 369.08 237.00 C 265.40 237.02 161.71 236.98 58.02 237.02 C 52.94 237.38 47.32 234.23 46.39 228.93 C 45.58 223.33 46.15 217.62 46.00 211.98 Z" />
<path fill="#f5e5c1" opacity="1.00" d=" M 59.18 240.72 C 96.78 240.32 134.37 241.12 171.97 240.64 C 236.72 240.67 301.47 240.59 366.22 240.68 C 366.24 244.09 366.24 247.51 366.21 250.93 C 263.88 251.01 161.55 250.94 59.22 250.92 C 59.17 247.52 59.17 244.12 59.18 240.72 Z" />
<path fill="#f4722b" opacity="1.00" d=" M 54.13 260.35 C 55.53 257.93 57.22 255.31 60.13 254.61 C 64.71 253.67 69.42 254.29 74.05 254.20 C 167.71 254.18 261.37 254.24 355.03 254.16 C 358.84 253.61 363.40 255.10 364.61 259.14 C 354.72 259.31 344.83 259.09 334.95 259.23 C 328.36 259.81 323.32 264.58 318.00 268.01 C 308.74 274.00 300.32 281.21 290.93 286.99 C 287.67 289.25 283.41 288.63 280.10 286.84 C 272.41 281.95 265.43 276.01 257.60 271.31 C 251.39 267.29 245.33 262.52 237.97 260.83 C 234.05 259.90 230.06 259.14 226.02 259.18 C 174.34 259.24 122.66 259.15 70.98 259.22 C 65.27 258.96 59.62 263.09 54.13 260.35 Z" />
<path fill="#f5e5c1" opacity="1.00" d=" M 46.53 266.60 C 48.14 263.57 51.53 261.59 54.97 261.84 C 110.98 261.83 166.99 261.85 222.99 261.84 C 225.72 261.86 228.46 261.66 231.18 261.98 C 233.70 262.92 236.02 264.29 238.48 265.37 C 178.95 265.34 119.41 265.37 59.88 265.35 C 55.59 265.20 51.30 267.92 49.97 272.07 C 48.73 276.53 49.27 281.30 49.46 285.88 C 50.03 291.46 55.57 295.15 60.94 294.82 C 161.63 294.85 262.33 294.85 363.02 294.83 C 367.34 294.94 372.08 292.90 373.74 288.66 C 375.44 284.30 374.74 279.46 374.66 274.91 C 374.37 269.89 370.10 265.47 365.00 265.39 C 353.30 265.35 341.60 265.29 329.89 265.45 C 332.48 263.99 334.82 261.45 338.04 261.82 C 348.72 261.87 359.41 261.80 370.09 261.85 C 374.93 261.73 379.25 266.24 379.21 271.03 C 379.35 276.67 379.31 282.33 379.24 287.98 C 379.36 291.70 377.12 295.35 373.70 296.84 C 370.04 298.53 365.90 297.90 362.01 298.01 C 260.34 298.00 158.67 297.98 57.01 298.02 C 52.65 298.25 47.87 296.14 46.05 292.00 C 44.38 287.87 45.17 283.31 44.99 278.97 C 45.10 274.84 44.39 270.36 46.53 266.60 Z" />
<path fill="#f5e5c1" opacity="1.00" d=" M 60.24 302.20 C 162.08 302.20 263.92 302.20 365.76 302.20 C 365.76 305.53 365.76 308.86 365.77 312.19 C 263.92 312.21 162.08 312.20 60.24 312.20 C 60.23 308.86 60.23 305.53 60.24 302.20 Z" />
<path fill="#f4722b" opacity="1.00" d=" M 61.22 316.25 C 64.07 315.44 67.09 315.88 70.02 315.79 C 158.02 315.75 246.01 315.83 334.01 315.80 C 344.57 316.06 355.19 315.25 365.71 316.26 C 365.73 317.77 365.76 319.28 365.78 320.79 C 324.19 320.82 282.60 320.78 241.01 320.81 C 231.23 321.34 222.00 325.15 213.29 329.38 C 202.91 334.27 192.84 339.85 183.37 346.32 C 180.09 348.38 175.61 350.56 172.01 347.95 C 166.96 344.03 162.24 339.67 156.99 336.00 C 149.08 331.48 141.54 326.00 132.67 323.45 C 127.86 322.16 123.00 320.76 117.98 320.78 C 98.33 320.80 78.67 320.84 59.02 320.76 C 59.36 319.12 59.05 316.67 61.22 316.25 Z" />
<path fill="#f5e5c1" opacity="1.00" d=" M 50.52 326.57 C 53.16 325.22 56.21 325.65 59.06 325.58 C 81.37 325.62 103.69 325.60 126.00 325.59 C 130.34 325.38 134.10 327.83 137.91 329.53 C 111.60 329.71 85.28 329.52 58.97 329.62 C 53.99 329.60 49.61 334.07 49.59 339.03 C 49.50 343.02 49.26 347.06 49.86 351.02 C 50.95 356.01 56.14 358.93 61.02 358.59 C 161.38 358.62 261.74 358.58 362.10 358.61 C 365.70 358.70 369.70 357.99 372.08 355.02 C 375.60 350.87 374.35 345.03 374.50 340.04 C 374.81 334.74 370.42 329.55 364.98 329.62 C 318.10 329.46 271.20 329.84 224.32 329.43 C 227.19 327.48 230.37 325.46 233.99 325.59 C 278.99 325.61 323.98 325.61 368.98 325.58 C 372.97 325.30 376.96 327.64 378.56 331.33 C 380.16 335.36 379.33 339.81 379.53 344.04 C 379.35 348.16 380.17 352.54 378.45 356.43 C 376.76 359.95 372.90 362.13 369.04 361.98 C 266.02 362.03 163.00 361.96 59.98 362.02 C 56.54 361.93 52.68 362.50 49.71 360.34 C 46.78 358.68 45.01 355.40 45.05 352.05 C 44.93 346.69 44.99 341.33 45.02 335.97 C 44.88 332.12 47.02 328.26 50.52 326.57 Z" />
<path fill="#f5e5c1" opacity="1.00" d=" M 61.24 367.01 C 148.51 366.92 235.78 367.00 323.05 366.97 C 337.92 366.92 352.78 367.13 367.65 366.76 C 369.09 372.09 367.41 377.59 366.31 382.84 C 364.28 388.38 361.79 394.61 356.17 397.38 C 353.45 399.09 350.12 399.13 347.02 399.20 C 258.33 399.20 169.63 399.21 80.94 399.20 C 75.44 398.99 71.47 394.57 68.44 390.44 C 64.20 383.40 61.14 375.33 61.24 367.01 Z" />
</svg>
