<?xml version="1.0" encoding="UTF-8" ?>
<!DOCTYPE svg PUBLIC "-//W3C//DTD SVG 1.1//EN" "http://www.w3.org/Graphics/SVG/1.1/DTD/svg11.dtd">
<svg width="422pt" height="422pt" viewBox="0 0 422 422" version="1.1" xmlns="http://www.w3.org/2000/svg">
<path fill="#3e3e3e" opacity="1.00" d=" M 0.00 0.00 L 422.00 0.00 L 422.00 422.00 L 0.00 422.00 L 0.00 0.00 Z" />
<path fill="#f5e5c1" opacity="1.00" d=" M 58.13 102.16 C 69.76 96.02 82.74 91.81 96.00 91.99 C 109.70 93.42 124.28 97.73 133.45 108.65 C 141.13 118.14 147.55 128.55 154.72 138.43 C 155.97 140.41 158.70 140.09 160.68 140.81 C 163.06 141.13 164.65 143.07 166.04 144.83 C 172.95 153.94 179.89 163.31 183.79 174.16 C 185.93 180.89 183.82 187.92 183.66 194.76 C 186.10 204.85 192.14 213.47 196.12 222.95 C 202.15 233.71 206.23 245.87 215.23 254.68 C 198.15 275.09 181.08 295.50 164.17 316.05 C 174.51 318.82 184.92 321.42 195.01 325.03 C 202.35 327.65 209.97 329.27 217.65 330.52 C 209.92 335.52 202.07 340.96 192.99 343.11 C 185.33 344.44 176.93 343.05 170.68 338.23 C 158.85 329.60 147.37 320.33 137.47 309.51 C 133.44 305.39 128.16 302.89 123.61 299.47 C 115.18 289.93 106.04 281.03 97.43 271.64 C 94.24 268.16 91.24 264.38 87.20 261.83 C 82.49 258.93 76.33 260.37 71.64 257.46 C 64.91 251.45 58.96 244.56 53.96 237.05 C 51.57 233.40 48.56 230.08 46.95 225.98 C 45.93 221.27 48.46 216.73 48.41 212.07 C 45.68 206.75 42.21 201.84 39.41 196.56 C 34.84 188.44 29.17 180.84 26.04 171.99 C 21.82 157.34 23.72 141.19 30.56 127.63 C 37.61 117.12 47.79 109.23 58.13 102.16 Z" />
<path fill="#3e3e3e" opacity="1.00" d=" M 76.42 98.46 C 87.58 94.90 100.02 94.84 111.04 98.96 C 118.94 101.53 125.41 107.06 131.38 112.64 C 136.46 118.40 139.94 125.35 144.38 131.59 C 147.52 135.84 149.43 141.05 153.56 144.50 C 156.88 144.24 161.06 143.58 163.29 146.74 C 169.45 154.96 174.32 164.11 178.49 173.48 C 182.57 182.60 176.02 193.16 181.17 201.96 C 187.90 215.25 194.84 228.45 201.18 241.94 C 203.56 246.50 206.09 251.00 208.50 255.56 C 192.93 274.68 177.36 293.80 162.22 313.27 C 161.44 314.43 160.30 315.54 160.34 317.05 C 170.44 322.59 182.00 324.44 192.80 328.15 C 197.36 329.81 202.38 330.17 206.54 332.83 C 202.17 335.05 198.02 338.11 193.07 338.89 C 187.58 339.67 181.73 339.73 176.61 337.33 C 166.58 332.18 158.58 324.11 150.18 316.77 C 144.93 312.05 140.33 306.60 134.79 302.20 C 131.43 299.39 126.81 298.43 123.83 295.13 C 112.15 281.56 100.14 268.14 86.47 256.54 C 83.93 253.99 80.10 255.09 76.91 254.49 C 72.98 254.25 70.55 250.66 67.92 248.18 C 61.13 241.38 55.42 233.47 51.14 224.88 C 50.28 220.07 52.51 215.40 53.40 210.73 C 48.95 206.27 45.68 200.84 42.87 195.23 C 37.43 185.93 31.02 176.78 28.84 166.04 C 28.39 160.34 26.96 154.61 27.90 148.89 C 29.50 137.65 34.62 126.78 42.95 118.96 C 52.10 109.37 64.08 102.99 76.42 98.46 Z" />
<path fill="#f4722b" opacity="1.00" d=" M 357.51 106.01 C 357.80 103.36 360.08 101.04 362.82 101.05 C 367.91 101.16 372.90 102.37 377.96 102.87 C 380.95 103.34 384.77 103.39 386.46 106.39 C 387.75 108.05 387.07 110.20 386.95 112.10 C 386.11 117.92 385.27 123.74 384.42 129.56 C 392.03 130.69 399.65 131.78 407.29 132.77 C 409.91 139.38 406.78 146.33 406.45 153.08 C 406.49 156.96 403.64 159.76 400.82 161.99 C 393.95 161.36 387.15 160.23 380.32 159.26 C 379.30 165.53 378.72 171.88 377.60 178.14 C 377.17 181.15 373.96 183.18 371.03 182.59 C 365.02 181.90 359.00 181.06 353.03 180.05 C 350.05 179.85 347.65 177.07 348.09 174.08 C 348.55 167.71 349.92 161.44 350.58 155.09 C 343.74 154.17 336.90 153.27 330.08 152.18 C 328.80 150.20 327.52 148.11 326.90 145.82 C 327.02 140.80 328.29 135.88 328.70 130.88 C 328.92 127.79 330.20 124.95 331.73 122.30 C 339.44 123.24 347.12 124.40 354.82 125.45 C 355.72 118.97 356.46 112.47 357.51 106.01 Z" />
<path fill="#f5e5c1" opacity="1.00" d=" M 138.36 149.36 C 144.30 147.04 148.98 152.76 152.02 157.04 C 157.27 166.00 160.21 176.57 159.34 186.98 C 159.04 191.01 155.52 193.53 152.31 195.36 C 145.02 198.95 136.91 200.19 129.13 202.26 C 125.65 203.22 121.93 203.84 119.00 206.09 C 112.61 210.36 108.97 217.34 103.78 222.81 C 100.45 226.35 97.54 231.63 92.05 231.69 C 85.63 231.50 79.11 229.20 74.46 224.66 C 68.92 220.26 64.12 214.70 61.68 207.98 C 60.97 203.99 61.66 199.54 64.25 196.32 C 68.43 191.71 74.37 189.34 80.12 187.35 C 90.12 183.35 100.45 179.70 109.13 173.14 C 115.94 169.19 121.47 163.59 127.27 158.37 C 130.81 155.22 133.74 151.02 138.36 149.36 Z" />
<path fill="#3e3e3e" opacity="1.00" d=" M 129.04 163.00 C 131.22 163.00 133.39 163.00 135.57 163.01 C 135.44 166.16 135.22 169.30 135.03 172.45 C 139.03 172.79 143.02 173.16 147.02 173.48 C 146.68 176.15 146.34 178.81 146.00 181.47 C 142.19 181.19 138.39 180.88 134.58 180.66 C 134.37 184.11 134.19 187.56 134.00 191.02 C 131.83 191.02 129.67 191.02 127.51 191.01 C 127.40 187.33 127.46 183.66 127.80 180.00 C 123.85 179.65 119.90 179.34 115.96 178.99 C 116.15 176.57 116.22 174.12 116.77 171.74 C 120.49 170.36 124.53 171.73 128.37 171.80 C 128.65 168.87 128.86 165.93 129.04 163.00 Z" />
<path fill="#f4722b" opacity="1.00" d=" M 263.14 193.31 C 266.78 191.94 270.31 190.19 274.12 189.36 C 275.57 188.98 276.85 190.09 277.39 191.35 C 278.97 194.61 280.03 198.09 281.26 201.50 C 285.33 200.01 289.28 198.03 293.57 197.26 C 295.76 201.19 296.99 205.57 298.42 209.81 C 297.91 210.78 297.40 211.77 296.90 212.76 C 293.57 213.99 290.26 215.24 286.92 216.42 C 288.30 220.18 290.14 223.83 290.86 227.80 C 288.50 230.83 284.26 231.32 280.91 232.79 C 279.30 233.14 276.60 234.66 275.69 232.51 C 274.01 229.21 272.96 225.63 271.75 222.14 C 268.41 223.45 265.06 224.69 261.77 226.08 C 260.50 225.47 259.19 224.95 257.97 224.24 C 255.82 220.48 254.79 216.21 253.67 212.05 C 257.72 210.29 261.85 208.72 266.00 207.21 C 264.64 203.49 263.24 199.79 261.83 196.10 C 262.26 195.16 262.70 194.23 263.14 193.31 Z" />
<path fill="#3e3e3e" opacity="1.00" d=" M 89.01 192.00 C 91.45 192.40 93.88 192.87 96.30 193.38 C 95.54 196.61 94.91 199.86 94.28 203.12 C 98.43 204.17 102.60 205.25 106.49 207.08 C 105.82 208.88 105.15 210.69 104.48 212.50 C 100.66 211.45 96.83 210.44 92.92 209.81 C 92.00 213.36 91.25 216.94 90.48 220.52 C 87.97 219.87 85.48 219.17 82.98 218.51 C 83.66 215.08 85.01 211.69 84.85 208.16 C 82.09 206.64 79.00 205.92 76.02 205.00 C 76.67 202.84 77.33 200.68 77.99 198.52 C 80.98 199.37 83.95 200.25 86.93 201.11 C 87.63 198.07 88.32 195.03 89.01 192.00 Z" />
<path fill="#f4722b" opacity="1.00" d=" M 334.57 197.06 C 334.92 194.50 337.34 192.36 339.96 192.55 C 345.35 192.84 350.68 193.82 356.05 194.37 C 359.31 194.52 363.53 196.01 363.49 199.94 C 363.09 206.71 361.84 213.40 361.10 220.14 C 368.52 221.06 375.93 222.06 383.36 222.85 C 384.23 225.14 384.90 227.56 384.51 230.03 C 383.85 234.97 383.46 239.96 382.57 244.87 C 382.17 247.93 379.30 249.64 377.32 251.68 C 370.72 250.81 364.12 250.02 357.51 249.20 C 356.67 255.22 356.22 261.31 355.22 267.31 C 354.91 270.26 352.04 272.55 349.08 272.11 C 343.70 271.64 338.35 270.84 332.99 270.19 C 330.01 270.12 326.43 268.47 326.31 265.09 C 326.47 258.55 327.87 252.11 328.49 245.60 C 321.91 244.78 315.33 243.92 308.73 243.17 C 307.42 240.90 305.17 238.87 305.32 236.04 C 305.42 231.00 306.41 226.03 306.89 221.02 C 307.32 218.58 307.56 215.44 310.08 214.19 C 317.47 214.16 324.74 215.94 332.10 216.54 C 332.99 210.05 333.52 203.52 334.57 197.06 Z" />
<path fill="#f5e5c1" opacity="1.00" d=" M 155.27 245.17 C 163.73 240.35 173.70 238.87 183.32 239.18 C 170.52 243.48 157.04 246.89 146.00 255.03 C 143.90 256.65 142.42 258.86 141.01 261.06 C 141.85 261.42 143.52 262.14 144.36 262.50 C 144.02 262.92 143.34 263.76 142.99 264.18 C 140.47 264.19 137.71 264.99 135.36 263.71 C 133.67 261.49 136.18 259.23 137.52 257.56 C 142.63 252.42 148.88 248.51 155.27 245.17 Z" />
<path fill="#f4722b" opacity="1.00" d=" M 239.58 250.55 C 242.10 249.99 245.51 247.92 247.64 250.33 C 249.69 254.24 250.53 258.64 252.05 262.77 C 256.54 261.30 261.03 259.79 265.56 258.44 C 267.61 263.17 269.65 268.00 270.40 273.13 C 270.16 274.29 269.76 275.74 268.54 276.24 C 265.02 277.81 261.25 278.71 257.62 279.97 C 258.83 283.98 260.59 287.86 261.20 292.03 C 260.98 294.71 257.94 295.16 255.95 296.02 C 252.71 297.01 249.53 298.49 246.10 298.60 C 244.58 298.54 243.88 297.01 243.38 295.80 C 242.07 292.51 241.15 289.08 240.02 285.72 C 236.18 286.89 232.35 288.13 228.57 289.50 C 227.06 288.39 224.89 287.81 224.23 285.87 C 222.91 282.67 221.81 279.37 221.08 276.00 C 220.77 274.70 220.70 272.86 222.36 272.57 C 226.23 270.86 230.37 269.89 234.38 268.58 C 233.31 264.06 230.81 259.75 230.81 255.08 C 232.38 252.00 236.65 251.84 239.58 250.55 Z" />
<path fill="#f4722b" opacity="1.00" d=" M 303.27 275.19 C 306.06 273.10 309.32 275.89 312.03 276.83 C 314.68 278.47 319.36 279.19 319.42 283.01 C 318.09 287.35 315.72 291.26 313.90 295.40 C 318.46 297.45 322.98 299.59 327.44 301.87 C 324.82 307.42 323.66 314.50 318.06 317.92 C 314.06 315.99 310.02 314.13 306.00 312.24 C 303.99 316.15 302.60 320.42 300.05 324.03 C 297.28 325.71 294.28 323.26 291.67 322.34 C 289.02 320.79 285.16 320.13 283.95 316.97 C 284.51 312.40 287.46 308.52 289.19 304.31 C 285.25 302.45 281.32 300.57 277.36 298.78 C 277.13 296.92 276.19 294.97 276.97 293.14 C 278.60 288.84 280.48 284.51 283.65 281.10 C 288.11 283.26 292.60 285.35 297.11 287.39 C 299.22 283.36 300.58 278.88 303.27 275.19 Z" />
<path fill="#f5e5c1" opacity="1.00" d=" M 195.88 290.91 C 198.64 287.46 203.35 287.05 207.25 288.61 C 207.39 290.69 209.36 293.37 207.09 294.92 C 205.20 296.87 202.32 296.77 199.88 297.47 C 196.70 297.98 194.66 300.73 192.44 302.77 C 192.53 298.66 192.35 293.77 195.88 290.91 Z" />
<path fill="#f4722b" opacity="1.00" d=" M 364.15 294.10 C 364.97 292.05 365.63 289.52 367.86 288.56 C 370.89 287.78 373.84 289.31 376.68 290.19 C 380.58 291.73 384.70 292.73 388.45 294.62 C 390.38 295.51 391.05 297.86 390.61 299.81 C 389.29 305.72 386.23 311.10 385.10 317.06 C 390.95 320.77 398.36 321.07 404.23 324.77 C 405.41 329.07 402.75 333.11 401.62 337.14 C 400.06 341.69 398.76 348.02 392.93 348.60 C 387.01 347.44 381.57 344.56 375.73 343.02 C 373.73 348.30 372.19 353.76 370.02 358.98 C 369.15 361.70 365.82 363.02 363.27 361.83 C 358.21 360.12 353.15 358.40 348.15 356.52 C 345.86 355.78 343.91 353.52 344.52 350.99 C 345.99 345.17 348.40 339.63 350.38 333.97 C 344.50 332.06 338.71 329.85 332.81 328.02 C 331.75 325.19 330.51 322.12 331.66 319.10 C 333.26 314.29 334.75 309.41 336.80 304.77 C 337.48 302.93 339.47 301.62 341.41 302.43 C 347.41 304.18 353.22 306.52 359.12 308.55 C 360.87 303.76 362.50 298.92 364.15 294.10 Z" />
<path fill="#f5e5c1" opacity="1.00" d=" M 209.03 306.51 C 213.69 304.09 219.14 303.63 224.23 304.77 C 228.57 305.81 231.89 309.29 234.02 313.06 C 235.16 315.60 235.25 319.08 233.11 321.14 C 231.25 323.06 228.16 323.06 225.78 322.26 C 221.22 319.99 220.10 314.66 218.24 310.40 C 216.31 307.24 212.23 307.22 209.03 306.51 Z" />
<path fill="#f5e5c1" opacity="1.00" d=" M 117.94 306.95 C 120.40 305.68 123.21 306.25 125.85 306.32 C 126.49 313.92 127.16 321.51 127.58 329.13 C 128.18 334.47 128.03 339.98 129.92 345.09 C 135.02 360.07 139.63 375.21 144.66 390.21 C 146.56 395.68 149.56 400.67 152.00 405.90 C 134.73 406.57 117.43 406.01 100.14 406.21 C 103.56 401.37 107.22 396.71 110.46 391.76 C 106.13 390.36 100.83 390.72 97.20 387.90 C 96.47 363.92 96.83 339.88 96.06 315.89 C 103.38 312.96 110.69 310.04 117.94 306.95 Z" />
<path fill="#f5e5c1" opacity="1.00" d=" M 130.18 307.09 C 141.47 318.03 152.11 329.74 164.59 339.37 C 169.12 342.30 174.47 343.58 179.36 345.76 C 175.26 353.63 171.20 361.51 167.12 369.39 C 162.63 366.43 158.18 363.41 153.86 360.20 C 146.07 354.20 140.58 345.89 135.17 337.82 C 133.60 335.53 132.37 332.98 131.94 330.22 C 130.61 322.58 130.95 314.79 130.18 307.09 Z" />
<path fill="#f5e5c1" opacity="1.00" d=" M 44.64 336.79 C 60.26 330.45 75.92 324.21 91.52 317.80 C 91.69 340.86 91.84 363.91 91.96 386.96 C 91.97 388.21 92.10 389.45 92.35 390.68 C 95.55 392.10 99.03 392.76 102.40 393.70 C 99.59 397.84 96.83 402.01 94.06 406.18 C 71.02 406.23 47.99 406.19 24.95 406.20 C 29.88 384.85 34.45 363.41 39.46 342.08 C 39.82 339.28 42.20 337.70 44.64 336.79 Z" />
<path fill="#f5e5c1" opacity="1.00" d=" M 245.66 328.03 C 249.89 328.24 253.86 329.74 257.92 330.79 C 263.55 332.28 269.19 333.74 274.81 335.26 C 275.53 353.56 276.22 371.86 277.00 390.15 C 273.66 393.86 270.14 397.43 266.21 400.52 C 268.21 402.13 270.17 403.79 272.06 405.53 C 259.26 405.92 246.44 405.30 233.64 405.81 C 235.96 397.23 239.51 388.88 240.14 379.93 C 241.99 362.63 243.92 345.34 245.66 328.03 Z" />
<path fill="#f5e5c1" opacity="1.00" d=" M 210.89 338.81 C 216.76 336.27 221.62 331.58 228.00 330.24 C 230.87 330.04 233.66 330.95 236.45 331.53 C 232.48 338.41 228.06 345.04 223.30 351.39 C 218.56 356.74 214.29 362.75 208.07 366.52 C 204.05 359.63 200.06 352.73 196.07 345.83 C 201.01 343.50 205.89 341.02 210.89 338.81 Z" />
<path fill="#f5e5c1" opacity="1.00" d=" M 228.79 350.81 C 233.19 344.96 236.06 338.17 240.02 332.04 C 242.37 334.15 241.11 337.34 240.98 340.02 C 239.15 354.37 238.10 368.84 235.54 383.09 C 233.71 390.73 232.08 398.41 229.95 405.98 C 223.67 406.02 217.38 405.99 211.10 406.00 C 207.88 396.12 204.84 386.19 201.52 376.35 C 203.70 373.20 207.82 372.89 210.59 370.49 C 214.54 367.16 219.17 364.44 222.13 360.10 C 224.35 357.00 226.54 353.88 228.79 350.81 Z" />
<path fill="#f5e5c1" opacity="1.00" d=" M 280.06 336.63 C 291.48 339.67 302.92 342.67 314.35 345.68 C 316.48 346.15 318.58 347.32 319.41 349.46 C 326.77 368.36 334.44 387.15 341.93 406.00 C 323.28 406.01 304.62 405.97 285.97 406.02 C 280.76 406.43 277.21 401.83 273.07 399.43 C 275.88 396.60 279.30 394.27 281.49 390.89 C 281.82 384.93 280.98 378.96 281.01 373.00 C 281.00 360.87 280.52 348.75 280.06 336.63 Z" />
<path fill="#f5e5c1" opacity="1.00" d=" M 135.96 347.57 C 141.14 353.21 145.44 359.74 151.64 364.37 C 155.95 367.73 159.91 371.54 164.36 374.71 C 167.54 376.14 171.19 374.95 174.54 374.87 C 172.49 385.25 170.42 395.62 168.40 406.00 C 165.70 406.00 163.00 405.99 160.30 405.93 C 156.20 400.34 151.55 395.00 148.47 388.76 C 144.35 375.02 140.07 361.32 135.96 347.57 Z" />
<path fill="#f5e5c1" opacity="1.00" d=" M 173.87 368.15 C 177.18 361.45 180.53 354.78 183.84 348.08 C 186.30 348.15 188.77 348.22 191.24 348.36 C 194.56 354.32 197.84 360.31 201.18 366.27 C 199.17 368.61 197.21 371.00 195.20 373.35 C 192.14 373.40 189.07 373.72 186.01 373.47 C 181.75 372.24 177.93 369.89 173.87 368.15 Z" />
<path fill="#f5e5c1" opacity="1.00" d=" M 180.00 376.30 C 185.11 377.14 190.30 377.26 195.40 376.24 C 197.91 386.27 201.24 396.06 204.30 405.93 C 194.34 406.08 184.38 405.96 174.41 406.00 C 176.28 396.10 178.56 386.27 180.00 376.30 Z" />
</svg>
