<?xml version="1.0" encoding="UTF-8" standalone="no"?>
<svg
   xmlns:dc="http://purl.org/dc/elements/1.1/"
   xmlns:cc="http://creativecommons.org/ns#"
   xmlns:rdf="http://www.w3.org/1999/02/22-rdf-syntax-ns#"
   xmlns:svg="http://www.w3.org/2000/svg"
   xmlns="http://www.w3.org/2000/svg"
   xmlns:sodipodi="http://sodipodi.sourceforge.net/DTD/sodipodi-0.dtd"
   xmlns:inkscape="http://www.inkscape.org/namespaces/inkscape"
   width="1280"
   height="1280"
   viewBox="0 0 1024 1024"
   version="1.1"
   id="svg2"
   inkscape:version="0.47 r22583"
   sodipodi:docname="kill_while_charged.svg">
  <metadata
     id="metadata32">
    <rdf:RDF>
      <cc:Work
         rdf:about="">
        <dc:format>image/svg+xml</dc:format>
        <dc:type
           rdf:resource="http://purl.org/dc/dcmitype/StillImage" />
      </cc:Work>
    </rdf:RDF>
  </metadata>
  <defs
     id="defs30" />
  <sodipodi:namedview
     pagecolor="#ffffff"
     bordercolor="#666666"
     borderopacity="1"
     objecttolerance="10"
     gridtolerance="10"
     guidetolerance="10"
     inkscape:pageopacity="0"
     inkscape:pageshadow="2"
     inkscape:window-width="1280"
     inkscape:window-height="738"
     id="namedview28"
     showgrid="false"
     inkscape:zoom="0.44739336"
     inkscape:cx="263.75"
     inkscape:cy="635.62474"
     inkscape:window-x="-8"
     inkscape:window-y="-8"
     inkscape:window-maximized="1"
     inkscape:current-layer="svg2" />
  <path
     d="m 0,0 1024,0 0,1024 L 0,1024 0,0 z"
     id="path4"
     style="fill:#3e3e3e" />
  <path
     d="m 19.412322,16.98578 c 9.075261,0.80076 20.067488,-2.86332 27.516967,3.95526 52.267678,45.64323 105.020661,90.72834 157.433931,136.20171 80.26996,68.67109 158.96266,139.23488 241.70768,204.96986 6.67299,5.26559 13.03052,10.91943 19.26673,16.71886 0.16986,4.73175 0.36398,9.46351 0.58237,14.19526 -5.99355,-2.88758 -12.03564,-5.72664 -18.00493,-8.66275 C 304.99185,308.04929 162.43261,231.1037 19.436588,154.9346 c -0.0728,-45.98294 0,-91.96588 -0.02427,-137.94882 z"
     id="path6"
     style="fill:#f4722b" />
  <path
     d="m 155.92948,17.15564 c 41.15412,-0.33972 82.28398,-0.14559 123.4381,-0.12133 54.18465,96.91602 108.44209,193.80778 162.55394,290.74806 3.83393,7.25536 8.32303,14.14673 13.49156,20.50427 0.7037,8.49289 1.38313,16.98578 1.94123,25.50293 C 390.35754,280.58085 322.82692,207.88171 256.97062,133.65384 222.99905,95.04758 189.77972,55.81043 155.92948,17.15564 z"
     id="path8"
     style="fill:#f4722b" />
  <path
     d="m 369.92607,16.98578 c 38.80038,0 77.60075,0 116.40113,0 -0.94635,88.95697 -2.23241,177.91394 -3.1545,266.8709 -0.26692,6.96417 0.58237,14.12247 -1.2618,20.91678 -6.33327,7.20682 -14.48645,12.47242 -21.83886,18.53877 C 429.91014,221.22768 399.96664,119.0946 369.92607,16.98578 z"
     id="path10"
     style="fill:#f4722b" />
  <path
     d="m 550.55773,16.98578 c 35.6944,0 71.38881,-0.0243 107.08322,0.0243 -39.09157,92.7181 -78.23166,185.41194 -117.32322,278.13004 -4.24645,10.33707 -8.73555,20.57707 -13.6129,30.64721 -6.60019,-9.65763 -16.6218,-15.77251 -26.789,-21.08664 16.71886,-95.92113 33.77744,-191.79374 50.6419,-287.71488 z"
     id="path12"
     style="fill:#f4722b" />
  <path
     d="m 752.95545,17.15564 c 46.12853,-0.36398 92.28133,-0.12133 138.40986,-0.12133 -60.76057,59.23185 -121.81232,118.17251 -182.66995,177.3073 -58.11564,56.80531 -119.60418,109.94654 -179.58825,164.73782 0.82502,-7.37668 1.65005,-14.77763 2.08682,-22.17858 C 605.25194,230.4 679.26142,123.87488 752.95545,17.15564 z"
     id="path14"
     style="fill:#f4722b" />
  <path
     d="m 940.86673,21.13517 c 2.83905,-2.45081 6.18768,-4.4891 10.11867,-4.10086 17.05858,-0.29118 34.11716,0.0971 51.1757,-0.0485 -0.1456,40.37763 0.267,80.75526 -0.2184,121.10863 -146.22327,77.62502 -291.86422,156.43905 -437.96621,234.35526 -14.0982,7.78919 -28.43905,15.11734 -42.7799,22.46976 -0.0485,-4.80455 -0.0971,-9.58483 -0.16986,-14.36512 10.91943,-11.25914 23.92569,-20.11602 35.81573,-30.25895 C 623.86351,296.37766 688.09403,239.15984 753.41649,183.22809 815.82711,129.11624 878.55318,75.36837 940.86673,21.1352 z"
     id="path16"
     style="fill:#f4722b" />
  <path
     style="fill:#f5e5c1"
     d="M 611.4375 394.90625 C 598.25274 395.2429 589.72588 408.47838 580.1875 416.3125 C 581.82541 422.86416 583.38782 429.41801 584.84375 436 C 582.72052 437.00095 578.46697 438.99906 576.34375 440 C 578.77029 449.79716 579.71579 460.67257 586.84375 468.4375 C 593.78973 475.56546 589.83177 486.39312 590.46875 495.25 C 562.89719 507.20071 534.12115 517.02714 508.1875 532.375 C 489.41214 549.99775 472.73581 569.7127 454.71875 588.09375 C 440.79647 603.1383 425.50127 616.96644 413.15625 633.40625 C 437.27 670.65364 462.58843 707.06422 488.21875 743.25 C 493.95146 753.25947 506.96763 753.63119 514.15625 762.09375 C 497.56479 849.17621 480.75599 936.23186 464.4375 1023.375 C 460.25171 1042.0593 459.62163 1062.1613 449.1875 1078.8438 C 445.51736 1087.6703 437.19115 1096.0172 438.34375 1105.875 C 459.81864 1124.2864 485.9827 1135.9565 512.25 1145.875 C 511.0974 1134.2579 507.32915 1123.197 503.75 1112.1562 C 514.82109 1109.4567 526.05758 1107.342 537.25 1105.2188 C 541.76942 1128.0586 547.50359 1150.6675 550.71875 1173.75 C 552.08369 1181.0296 549.46877 1188.0908 548.4375 1195.2188 C 548.64983 1201.2244 551.24725 1206.9336 551.15625 1213 C 546.45483 1223.0095 539.46798 1231.7957 534.28125 1241.5625 C 529.97414 1243.2004 525.65086 1244.8612 521.34375 1246.4688 C 520.91911 1250.8366 520.48806 1255.1948 520.09375 1259.5625 C 519.03214 1260.4725 516.93661 1262.2454 515.875 1263.125 C 533.71007 1265.1572 551.73019 1264.5763 569.65625 1264 C 576.81455 1258.3886 585.92255 1257.2417 594.71875 1256.9688 C 600.23914 1246.9895 594.82542 1235.7825 593.1875 1225.5 C 591.18561 1216.3398 595.24266 1207.3174 595 1198.1875 C 592.45214 1186.8131 586.78222 1176.4011 584.75 1164.875 C 582.56611 1144.0068 583.57883 1122.6219 591.34375 1102.9062 C 595.92385 1101.9963 600.51366 1101.0019 605.09375 1100.0312 C 605.24541 1085.1384 605.03305 1070.2063 606.125 1055.3438 C 609.34016 1032.9892 607.2287 1010.1128 612.71875 988.03125 C 618.7851 1025.127 617.09563 1062.8831 617.15625 1100.3125 C 624.70886 1101.5258 632.32423 1102.3024 639.9375 1103 C 643.03134 1110.128 646.5487 1117.3325 647.125 1125.2188 C 648.42926 1145.8747 650.02416 1167.5169 640.5 1186.6562 C 632.64408 1200.0932 642.0617 1214.8314 637.90625 1228.875 C 635.51004 1237.9139 634.79779 1247.2516 635.34375 1256.5938 C 644.32195 1257.7464 656.89325 1253.8085 661.625 1264 C 679.30841 1264.7886 697.03534 1264.6066 714.71875 1264 C 713.11116 1257.873 711.38424 1251.786 709.625 1245.75 C 706.4705 1245.2344 703.34384 1244.7666 700.25 1244.2812 C 694.12299 1234.9694 687.71248 1225.7981 682.34375 1216.0312 C 679.31057 1211.2085 680.61661 1204.536 684.46875 1200.5625 C 683.22515 1191.554 679.80785 1182.5343 681.71875 1173.3438 C 685.90452 1151.5049 690.47874 1129.7782 694.9375 1108 C 706.85789 1108.5156 718.69819 1109.7885 730.40625 1112.0938 C 728.37401 1117.4928 726.21881 1122.8831 724.15625 1128.3125 C 723.42829 1133.7116 722.72887 1139.1028 722.03125 1144.5625 C 736.13551 1139.3151 750.09336 1133.6675 763.5 1126.8125 C 775.0564 1120.8675 784.62379 1111.8881 794.90625 1104.0625 C 792.69204 1096.6009 789.83833 1089.3816 786.5625 1082.375 C 780.86013 1071.9409 774.72156 1061.4213 772.75 1049.5312 C 768.35189 1025.0535 762.91004 1000.8196 758.90625 976.28125 L 757.78125 973.90625 C 744.04096 902.5963 733.48921 830.62984 724.875 758.53125 C 731.69964 755.46775 740.23149 754.3954 744.78125 747.84375 C 764.13291 722.24375 780.48111 694.60278 798.4375 668.0625 C 804.8375 657.50705 812.5458 647.69884 818.1875 636.71875 C 812.39414 626.98225 803.39911 619.74565 795.9375 611.34375 C 772.85503 587.86698 750.74423 563.47127 727.84375 539.8125 C 705.58024 515.75943 670.408 515.72274 641.5625 504.5 C 641.53217 496.03744 640.72883 487.49564 642.09375 479.09375 C 647.34115 467.32503 655.08087 456.40848 655.6875 443.0625 C 654.41357 441.84923 651.89985 439.43203 650.65625 438.21875 C 651.05056 431.60642 651.35385 425.01856 651.6875 418.40625 C 641.34438 408.76075 630.24674 397.28131 615.6875 395.21875 C 614.21736 394.95714 612.80144 394.87142 611.4375 394.90625 z M 508.0625 609.15625 C 517.0407 620.07568 525.98687 631.02174 534.84375 642.0625 C 533.63048 656.59141 532.91553 671.21557 530.125 685.5625 C 511.62264 673.30846 501.84141 652.25781 487.3125 636 C 494.07649 626.9308 500.93454 617.95245 508.0625 609.15625 z M 722.875 616.78125 C 730.67026 623.75755 738.17719 631.08249 745.0625 638.96875 C 731.01889 654.6806 717.31107 670.68246 702.8125 686 C 699.44568 671.8654 698.0524 657.437 697.71875 642.96875 C 706.12065 634.2332 714.53376 625.51679 722.875 616.78125 z "
     transform="scale(0.8,0.8)"
     id="path18" />
  <path
     d="m 41.372512,356.67716 c 3.761137,-5.48398 10.337061,-7.54654 16.718862,-7.23109 86.627486,-0.0971 173.279246,0.0485 259.906726,-0.0728 5.36266,-0.16986 10.50692,1.50446 15.31147,3.76114 33.07375,14.94749 66.48721,29.11848 99.53669,44.09023 -11.23489,4.87735 -22.66389,9.22086 -33.89877,14.02541 -8.78408,3.56701 -14.26806,11.67166 -20.67413,18.17478 -22.2271,23.51318 -44.28436,47.14768 -66.65706,70.491 0.26692,6.52739 -0.46104,13.73422 4.07659,19.12114 25.16322,35.86426 48.99185,72.67488 74.76171,108.10237 -12.73934,69.25346 -25.86692,138.43412 -38.46067,207.73611 -2.4508,19.43659 -15.8453,34.74806 -24.36246,51.78237 1.55298,6.13915 3.17877,12.27829 4.78028,18.41744 19.97043,10.74957 39.96512,21.45062 59.91128,32.27299 9.07526,5.24132 19.94616,2.74199 29.89498,3.1545 0,8.42009 0,16.86445 0,25.30881 -8.25024,9.34218 -14.7291,20.33441 -23.99848,28.70598 -12.2055,1.04341 -24.4838,0.0243 -36.71356,0.41251 -9.75469,-0.21839 -20.84398,1.45592 -29.02142,-5.16853 -7.03697,-4.6347 -9.94882,-13.27318 -9.73043,-21.37782 -0.0728,-93.88285 0,-187.78996 -0.0243,-281.6728 -88.20474,-0.0243 -176.38522,0.0485 -264.565689,-0.0243 -13.345972,1.57725 -23.464645,-12.01137 -22.979337,-24.31393 -0.04853,-91.38351 0.0728,-182.79129 -0.04853,-274.1748 0.169858,-10.65251 -1.819905,-23.02786 6.236209,-31.52075 z"
     id="path20"
     style="fill:#f4722b" />
  <path
     d="m 558.7837,399.38427 c 33.99583,-16.45195 67.72474,-33.48626 101.57497,-50.22939 101.81763,0.65517 203.65953,0.0485 305.50142,0.29119 13.22465,-1.52872 23.46465,11.86578 22.95508,24.1926 0,96.26086 0,192.54598 0,288.80683 0.4853,12.37535 -9.7547,25.81839 -23.0764,24.24114 -101.08967,0.0485 -202.2036,0 -303.29327,0.0242 -0.0243,93.88284 0.0243,187.76569 -0.0243,281.64853 1.14048,12.83641 -8.88114,25.16322 -21.76606,26.20664 -14.43792,0.89782 -28.92436,0.0485 -43.36228,0.29118 -10.26426,-10.9437 -20.67412,-21.76607 -30.98692,-32.66123 -7.03697,-6.06635 -3.90673,-16.0637 -4.53763,-24.11981 10.74957,-0.53384 22.83375,2.5964 32.24872,-4.17365 17.05858,-10.55545 34.31128,-20.79545 51.44266,-31.25384 1.14047,-8.95393 3.22729,-17.85934 3.32436,-26.91033 -4.12512,-12.88493 -13.00626,-23.6345 -17.37403,-36.42237 -2.35375,-7.95905 -3.13024,-16.23356 -4.46484,-24.38673 -10.70104,-66.60853 -21.35355,-133.21706 -32.07886,-199.80132 3.88247,-1.84417 8.15318,-3.56702 10.40986,-7.49801 19.80057,-29.531 39.47981,-59.15906 59.4745,-88.59299 3.61555,-4.78028 4.36777,-10.7981 5.36265,-16.50047 -30.04056,-30.84133 -59.78995,-61.97385 -89.61213,-93.03356 -5.53251,-6.28474 -14.07393,-7.91052 -21.71753,-10.11867 z"
     id="path22"
     style="fill:#f4722b" />
</svg>
