<?xml version="1.0" encoding="UTF-8" ?>
<!DOCTYPE svg PUBLIC "-//W3C//DTD SVG 1.1//EN" "http://www.w3.org/Graphics/SVG/1.1/DTD/svg11.dtd">
<svg width="422pt" height="422pt" viewBox="0 0 422 422" version="1.1" xmlns="http://www.w3.org/2000/svg">
<path fill="#f5e5c1" opacity="1.00" d=" M 0.00 0.00 L 0.06 0.00 C 0.05 0.02 0.02 0.05 0.00 0.06 L 0.00 0.00 Z" />
<path fill="#3e3e3e" opacity="1.00" d=" M 0.06 0.00 L 422.00 0.00 L 422.00 422.00 L 0.00 422.00 L 0.00 0.06 C 0.02 0.05 0.05 0.02 0.06 0.00 Z" />
<path fill="#f4722b" opacity="1.00" d=" M 191.34 36.32 C 191.98 34.30 193.41 31.64 195.94 32.03 C 202.29 31.99 208.66 31.91 215.02 32.06 C 217.34 31.95 218.73 34.35 219.49 36.23 C 219.93 41.07 219.52 45.95 219.64 50.81 C 224.66 51.31 229.70 51.34 234.73 51.56 C 236.47 51.64 237.52 53.57 237.65 55.14 C 238.45 60.74 238.23 66.43 238.10 72.06 C 237.92 74.63 237.64 78.42 234.48 78.98 C 229.55 79.50 224.58 79.00 219.63 79.19 C 219.56 84.08 219.85 88.98 219.57 93.86 C 219.43 95.71 217.79 97.59 215.85 97.52 C 208.96 97.86 202.06 97.86 195.18 97.55 C 193.11 97.73 191.34 95.86 191.22 93.87 C 190.49 89.00 190.95 84.07 190.87 79.17 C 185.36 79.07 179.82 79.54 174.35 78.65 C 173.57 76.85 172.55 75.04 172.67 73.01 C 172.67 67.67 172.65 62.33 172.69 56.99 C 172.62 54.95 173.53 52.55 175.46 51.64 C 180.60 51.25 185.77 51.43 190.89 50.82 C 190.94 45.99 190.45 41.10 191.34 36.32 Z" />
<path fill="#f5e5c1" opacity="1.00" d=" M 159.90 102.94 C 162.37 99.26 166.76 97.58 171.05 97.40 C 178.02 97.41 185.87 98.76 190.32 104.72 C 194.60 109.48 194.28 116.41 192.93 122.25 C 190.41 128.95 185.55 134.64 179.69 138.71 C 173.67 144.04 166.25 147.30 159.50 151.54 C 146.36 159.33 131.83 165.89 121.89 177.90 C 116.36 183.83 114.56 192.22 113.72 200.04 C 114.31 207.50 119.44 213.76 125.24 218.12 C 125.38 221.46 125.37 224.81 125.33 228.15 C 119.50 226.26 113.75 224.12 107.99 222.01 C 102.02 220.18 97.93 214.65 95.99 208.95 C 95.05 204.68 95.61 200.26 95.71 195.94 C 97.75 189.01 100.66 182.13 105.88 176.98 C 113.99 167.05 124.83 159.59 136.51 154.49 C 146.83 149.57 156.94 144.19 167.21 139.20 C 174.08 134.49 181.64 128.70 183.08 119.94 C 183.17 115.08 182.95 109.48 179.05 105.97 C 174.59 100.89 163.93 104.86 165.55 112.13 C 165.71 116.13 170.27 116.09 173.20 115.48 C 174.48 114.66 174.34 113.17 174.39 111.86 C 172.83 111.75 171.28 111.64 169.73 111.51 C 170.87 107.87 176.63 107.27 178.62 110.41 C 179.90 112.03 179.57 114.18 179.58 116.11 C 177.52 118.43 175.09 120.40 172.12 121.40 C 167.66 121.60 162.54 121.11 159.41 117.52 C 156.38 113.28 156.31 106.90 159.90 102.94 Z" />
<path fill="#f5e5c1" opacity="1.00" d=" M 230.62 98.11 C 236.97 96.61 245.08 97.11 249.08 103.03 C 253.97 108.32 252.03 118.90 244.53 120.60 C 239.08 122.75 232.80 120.83 229.37 116.15 C 229.07 113.41 229.45 110.34 231.99 108.73 C 234.62 108.13 238.01 108.35 239.21 111.25 C 237.48 111.68 235.76 112.13 234.05 112.60 C 234.52 113.60 234.95 114.64 235.68 115.49 C 237.83 115.90 240.02 115.55 242.18 115.38 C 243.16 112.93 244.19 110.00 242.62 107.55 C 240.91 104.24 236.68 103.38 233.31 103.89 C 228.40 105.54 225.90 111.03 225.82 115.91 C 224.92 123.21 229.56 129.71 234.96 134.09 C 237.85 136.53 240.80 139.02 244.29 140.57 C 253.83 144.99 263.03 150.10 272.55 154.57 C 283.76 159.39 294.11 166.54 302.03 175.88 C 309.41 183.17 314.17 193.49 313.48 203.98 C 313.81 210.88 309.31 217.03 303.99 220.97 C 297.59 224.33 290.53 226.32 283.38 227.30 C 283.40 224.39 283.12 221.46 283.54 218.57 C 288.16 214.38 293.02 209.81 294.55 203.51 C 295.67 196.08 293.53 188.48 290.16 181.91 C 279.23 166.09 260.82 158.65 244.99 148.93 C 236.95 144.65 229.34 139.52 222.77 133.18 C 219.47 129.03 215.79 124.55 215.41 119.03 C 215.14 115.22 214.70 111.07 216.67 107.62 C 219.32 102.36 224.77 98.70 230.62 98.11 Z" />
<path fill="#f5e5c1" opacity="1.00" d=" M 200.27 124.20 C 200.75 117.38 200.47 110.54 200.45 103.71 C 203.21 103.72 205.98 103.72 208.74 103.71 C 208.36 110.55 208.21 117.41 208.71 124.24 C 210.36 124.69 212.00 125.16 213.64 125.65 C 214.49 136.58 222.79 144.71 228.58 153.37 C 238.04 168.21 238.98 189.48 227.35 203.42 C 223.49 208.66 217.36 211.43 211.66 214.21 C 208.65 215.36 205.40 217.59 202.09 216.19 C 196.48 214.03 190.97 211.45 186.07 207.94 C 177.61 200.97 172.83 189.92 173.25 178.98 C 172.64 169.19 176.17 159.60 181.55 151.57 C 186.27 145.37 191.12 139.11 194.06 131.83 C 194.89 129.94 194.72 127.84 194.84 125.84 C 196.64 125.27 198.45 124.72 200.27 124.20 Z" />
<path fill="#f5e5c1" opacity="1.00" d=" M 122.02 150.87 C 134.05 148.02 145.75 143.84 157.22 139.25 C 152.42 142.70 147.32 145.69 141.77 147.78 C 129.53 154.03 116.09 158.42 105.50 167.50 C 96.83 174.23 88.57 182.36 84.84 192.94 C 82.75 200.09 80.42 207.47 81.79 215.00 C 83.10 220.68 84.14 226.60 87.59 231.47 C 90.34 235.36 92.98 239.66 92.58 244.66 C 84.73 244.05 76.88 240.12 72.55 233.40 C 66.95 225.46 62.77 215.99 63.61 206.07 C 63.91 199.64 66.29 193.59 69.04 187.85 C 72.40 179.95 78.47 173.53 85.02 168.16 C 96.43 160.69 108.77 154.36 122.02 150.87 Z" />
<path fill="#f5e5c1" opacity="1.00" d=" M 251.12 138.78 C 262.63 143.94 274.72 147.87 286.97 150.88 C 287.99 151.19 289.01 151.50 290.04 151.81 C 295.50 153.52 300.99 155.28 306.03 158.03 C 313.30 161.85 320.99 165.27 327.12 170.85 C 331.40 175.30 336.07 179.59 338.69 185.30 C 341.46 191.18 344.46 197.18 345.03 203.76 C 346.80 214.86 342.09 225.80 335.58 234.55 C 331.09 240.53 323.78 243.99 316.43 244.69 C 315.54 236.90 322.45 231.84 324.61 224.97 C 326.34 219.16 327.81 213.10 327.47 206.99 C 325.85 197.45 323.26 187.69 316.83 180.17 C 309.05 171.11 299.43 163.58 288.88 158.00 C 279.35 153.54 269.83 149.06 260.27 144.67 C 256.99 143.08 254.19 140.72 251.12 138.78 Z" />
<path fill="#3e3e3e" opacity="1.00" d=" M 202.19 152.84 C 203.43 151.69 205.44 152.73 206.08 154.08 C 209.04 158.76 209.54 164.49 210.33 169.85 C 210.78 178.57 211.05 187.44 209.09 196.02 C 208.35 199.32 207.47 202.83 205.02 205.30 C 203.85 205.96 202.19 205.86 201.48 204.59 C 197.98 199.87 197.66 193.70 196.80 188.08 C 196.03 178.58 196.22 168.86 198.68 159.59 C 199.44 157.19 200.20 154.54 202.19 152.84 Z" />
<path fill="#f5e5c1" opacity="1.00" d=" M 162.56 220.53 C 165.66 216.71 169.88 213.22 175.07 213.29 C 185.82 212.01 194.64 219.61 204.69 221.68 C 211.68 219.82 218.01 216.10 224.91 213.99 C 228.70 213.09 232.69 213.02 236.53 213.60 C 240.67 214.41 243.72 217.52 246.45 220.51 C 246.73 223.95 247.35 227.58 246.10 230.91 C 242.79 235.57 236.63 237.16 231.17 236.71 C 227.95 236.53 223.80 235.62 222.67 232.14 C 221.55 229.63 223.08 226.79 225.21 225.39 C 226.98 224.24 229.17 224.59 231.18 224.49 C 230.26 225.73 229.34 226.98 228.43 228.23 C 230.93 230.08 233.65 228.92 235.80 227.17 C 235.49 224.95 235.23 222.24 232.96 221.10 C 227.98 217.82 221.65 221.40 218.81 225.86 C 214.72 231.04 213.72 239.52 218.33 244.63 C 226.86 248.16 235.98 250.29 244.77 253.18 C 255.17 255.40 265.69 257.13 276.16 259.03 C 283.39 261.25 290.99 261.72 298.23 263.92 C 305.92 266.11 313.84 267.64 321.30 270.59 C 318.06 288.57 315.07 306.60 311.97 324.61 C 311.21 328.86 310.39 333.11 310.06 337.42 C 309.50 337.51 308.37 337.70 307.81 337.79 C 301.17 343.23 292.68 345.32 284.62 347.70 C 256.05 355.01 226.37 356.69 197.00 356.46 C 192.33 356.40 187.65 356.39 183.01 355.83 C 164.53 355.27 146.12 352.90 128.05 349.01 C 118.75 346.73 109.10 344.32 101.31 338.47 C 96.95 315.86 92.69 293.24 88.28 270.65 C 95.10 267.40 102.68 266.31 109.87 264.13 C 117.37 261.80 125.27 261.30 132.79 259.03 C 142.87 257.22 152.98 255.48 163.03 253.45 C 171.35 251.11 179.57 248.43 187.82 245.87 C 193.42 244.62 194.00 237.63 193.40 232.96 C 191.91 227.11 187.72 221.19 181.52 219.84 C 177.61 219.23 172.66 222.13 173.38 226.57 C 174.31 229.05 177.38 229.35 179.69 229.44 C 179.88 227.53 178.95 225.91 177.89 224.42 C 180.42 224.52 183.53 224.29 185.14 226.68 C 187.77 229.17 186.65 233.88 183.49 235.34 C 179.58 237.24 174.99 236.93 170.83 236.20 C 167.23 235.04 162.99 232.99 162.16 228.89 C 161.14 226.15 161.99 223.26 162.56 220.53 Z" />
<path fill="#f5e5c1" opacity="1.00" d=" M 256.98 220.98 C 260.94 219.49 265.37 218.81 269.54 219.77 C 276.18 222.04 280.01 228.34 283.77 233.82 C 289.96 230.59 297.09 228.79 304.08 229.28 C 307.28 229.31 309.87 231.33 312.46 232.93 C 312.89 236.73 313.12 241.14 310.13 244.03 C 307.01 247.57 301.83 246.86 297.67 246.16 C 297.85 245.62 298.21 244.53 298.38 243.99 C 300.70 243.66 302.24 241.95 303.60 240.21 C 303.00 239.72 301.79 238.76 301.19 238.27 C 294.35 238.26 287.76 242.44 285.44 248.97 C 285.75 251.50 286.34 253.99 286.84 256.50 C 279.07 255.59 271.33 254.26 263.73 252.41 C 265.74 248.30 269.27 245.19 271.30 241.09 C 272.32 237.92 271.87 233.97 269.57 231.45 C 266.07 229.39 260.78 228.79 258.33 232.77 C 258.66 233.39 259.34 234.63 259.68 235.25 C 260.28 235.55 261.47 236.15 262.07 236.45 C 263.23 235.71 264.39 234.98 265.56 234.27 C 265.44 235.75 266.12 237.69 264.55 238.63 C 260.63 241.95 254.52 240.10 251.32 236.69 C 248.33 231.14 251.11 223.38 256.98 220.98 Z" />
<path fill="#f5e5c1" opacity="1.00" d=" M 125.19 233.79 C 128.81 228.36 132.65 222.36 139.01 219.87 C 143.73 218.69 148.91 219.49 153.28 221.58 C 156.97 224.05 159.42 228.51 158.68 233.03 C 158.94 237.33 154.52 239.45 150.97 240.25 C 148.19 241.04 145.69 239.34 143.31 238.19 C 143.40 236.84 143.51 235.50 143.65 234.17 C 144.72 234.94 145.79 235.72 146.86 236.51 C 147.47 236.18 148.71 235.54 149.33 235.22 C 149.61 234.65 150.17 233.52 150.45 232.95 C 150.10 232.42 149.40 231.37 149.05 230.84 C 148.06 230.44 147.08 230.04 146.10 229.64 C 144.05 230.05 141.93 230.25 139.96 230.98 C 137.70 232.60 137.51 235.67 136.54 238.08 C 138.19 243.60 142.22 247.86 145.78 252.23 C 138.00 254.21 130.08 255.58 122.11 256.50 C 122.60 253.48 124.23 250.29 122.66 247.33 C 120.28 241.50 113.80 238.51 107.82 238.25 C 107.19 238.73 105.94 239.69 105.32 240.17 C 106.97 242.83 109.83 244.04 112.64 245.11 C 108.06 247.58 101.05 247.72 97.92 242.93 C 95.73 240.06 96.24 236.29 96.47 232.95 C 99.06 231.33 101.66 229.31 104.87 229.28 C 111.85 228.83 119.00 230.59 125.19 233.79 Z" />
<path fill="#f5e5c1" opacity="1.00" d=" M 77.82 249.85 C 84.69 245.47 93.31 249.23 98.77 254.17 C 100.63 256.11 104.28 257.78 103.32 260.96 C 100.98 262.22 98.40 262.99 95.81 263.54 C 92.39 264.52 90.41 260.67 87.69 259.35 C 83.73 257.23 78.28 255.23 74.34 258.47 C 74.35 259.17 74.37 260.58 74.37 261.29 C 73.31 261.48 72.25 261.68 71.19 261.86 C 70.93 256.93 73.20 251.97 77.82 249.85 Z" />
<path fill="#f5e5c1" opacity="1.00" d=" M 305.45 258.61 C 310.28 253.87 315.75 248.46 322.94 248.19 C 327.98 247.50 333.05 250.14 336.03 254.13 C 337.74 256.54 337.51 259.61 337.53 262.41 C 336.81 262.09 335.39 261.47 334.68 261.16 C 334.66 260.51 334.63 259.20 334.62 258.55 C 331.14 255.38 326.30 257.07 322.50 258.62 C 319.66 259.88 317.75 262.67 314.86 263.76 C 311.64 263.53 308.63 262.20 305.62 261.13 C 305.56 260.29 305.50 259.45 305.45 258.61 Z" />
<path fill="#3e3e3e" opacity="1.00" d=" M 162.14 267.04 C 164.30 265.71 168.47 265.52 169.82 268.23 C 171.34 270.58 170.52 273.91 168.27 275.50 C 166.11 275.71 163.09 276.51 161.63 274.41 C 159.80 272.36 160.05 268.82 162.14 267.04 Z" />
<path fill="#3e3e3e" opacity="1.00" d=" M 238.41 267.45 C 241.24 264.90 246.41 267.14 246.56 270.92 C 247.11 273.98 244.11 277.06 241.04 276.57 C 236.57 276.51 234.62 269.91 238.41 267.45 Z" />
<path fill="#3e3e3e" opacity="1.00" d=" M 197.88 287.95 C 200.21 283.98 201.60 279.38 204.81 275.98 C 210.17 286.33 215.67 296.60 221.09 306.91 C 222.82 309.23 221.03 311.82 220.04 314.03 C 214.73 324.53 209.64 335.14 204.70 345.82 C 198.11 333.87 192.78 321.25 186.56 309.09 C 190.60 302.19 193.97 294.92 197.88 287.95 Z" />
<path fill="#3e3e3e" opacity="1.00" d=" M 108.40 277.45 C 111.26 274.87 116.47 277.17 116.57 280.98 C 117.08 284.02 114.10 287.04 111.05 286.57 C 106.57 286.52 104.63 279.92 108.40 277.45 Z" />
<path fill="#3e3e3e" opacity="1.00" d=" M 296.10 278.07 C 297.70 276.63 300.29 277.29 302.27 277.50 C 303.97 278.78 304.95 280.90 304.48 283.04 C 304.01 287.78 296.31 288.29 294.74 284.06 C 294.10 281.99 294.38 279.54 296.10 278.07 Z" />
<path fill="#3e3e3e" opacity="1.00" d=" M 129.32 340.57 C 126.16 336.97 132.06 331.19 135.60 334.39 C 137.86 335.52 137.60 338.13 137.58 340.26 C 136.79 341.03 136.01 341.80 135.24 342.58 C 133.09 342.66 130.52 342.77 129.32 340.57 Z" />
<path fill="#3e3e3e" opacity="1.00" d=" M 268.37 334.37 C 272.00 331.14 277.83 337.00 274.66 340.63 C 273.55 342.96 270.89 342.57 268.77 342.61 C 267.99 341.84 267.21 341.08 266.43 340.33 C 266.44 338.19 266.07 335.51 268.37 334.37 Z" />
<path fill="#f5e5c1" opacity="1.00" d=" M 312.80 339.84 C 314.03 338.89 315.39 338.66 316.86 339.15 C 323.95 340.49 331.28 340.98 338.00 343.83 C 345.73 347.05 354.57 349.20 360.13 355.97 C 363.01 359.06 361.54 364.04 358.66 366.62 C 350.14 374.80 338.41 377.84 327.55 381.55 C 322.25 382.80 317.05 384.45 311.76 385.70 C 294.57 388.84 277.39 392.27 259.99 394.07 C 252.02 394.88 244.01 395.35 236.08 396.47 C 228.67 396.19 221.32 397.16 213.94 397.67 C 199.00 399.20 183.97 399.02 168.97 399.68 C 151.66 400.57 134.31 399.48 116.97 400.02 C 101.99 400.31 87.04 401.53 72.04 401.12 C 62.42 401.77 52.73 401.51 43.17 400.28 C 37.82 399.03 31.77 398.41 27.85 394.10 C 25.50 392.07 25.90 388.04 28.17 386.12 C 31.02 383.61 34.87 382.88 38.26 381.40 C 42.53 379.56 46.94 378.01 51.51 377.11 C 51.61 376.80 51.81 376.19 51.91 375.89 C 48.84 374.77 46.39 372.64 44.33 370.17 C 45.02 364.96 50.02 361.88 54.59 360.35 C 66.54 356.42 78.88 353.47 91.46 352.58 C 91.92 353.00 92.84 353.84 93.29 354.26 C 82.83 356.96 71.87 358.27 62.08 363.14 C 58.89 364.89 56.11 367.74 55.26 371.38 C 57.15 372.87 59.04 374.36 60.84 375.96 C 54.71 381.96 44.45 381.13 38.70 387.75 C 37.40 388.84 37.39 390.51 37.48 392.06 C 44.27 395.07 51.69 395.79 59.03 395.95 C 73.67 396.73 88.34 396.31 102.99 396.41 C 122.31 396.33 141.62 396.59 160.94 396.37 C 166.55 396.39 172.20 396.73 177.78 395.86 C 187.49 394.96 197.31 396.26 206.98 394.71 C 215.36 394.55 223.67 393.42 232.04 393.21 C 246.44 391.17 261.04 390.85 275.35 388.20 C 286.52 386.32 297.95 385.42 308.75 381.81 C 319.30 378.49 330.30 376.29 340.22 371.22 C 344.83 368.95 350.04 367.52 353.63 363.63 C 355.59 361.88 355.33 359.05 355.58 356.68 C 351.82 352.29 346.43 349.86 341.16 347.79 C 335.37 345.78 329.44 344.09 323.36 343.25 C 319.80 342.31 315.83 342.13 312.80 339.84 Z" />
<path fill="#f5e5c1" opacity="1.00" d=" M 286.98 356.85 C 294.71 354.41 303.22 352.41 308.93 346.21 C 308.74 350.20 308.36 354.21 307.23 358.05 C 304.48 361.17 300.34 362.58 296.65 364.27 C 280.15 370.65 262.46 373.09 244.97 375.01 C 223.70 377.21 202.28 376.70 180.93 376.37 C 165.20 375.40 149.46 373.91 134.01 370.73 C 123.95 368.54 113.79 366.05 104.67 361.12 C 103.65 356.80 103.43 352.29 101.85 348.10 C 106.54 352.94 113.41 354.53 119.59 356.61 C 147.03 364.02 175.64 366.23 203.99 365.89 C 209.89 365.63 215.80 366.79 221.68 365.86 C 243.64 364.96 265.72 362.72 286.98 356.85 Z" />
<path fill="#f5e5c1" opacity="1.00" d=" M 322.96 357.82 C 323.82 356.15 323.68 354.13 324.64 352.51 C 327.60 352.26 331.15 354.65 330.91 357.85 C 327.75 362.08 322.01 363.53 316.91 363.46 C 319.05 361.73 321.32 360.06 322.96 357.82 Z" />
<path fill="#f5e5c1" opacity="1.00" d=" M 82.46 369.96 C 81.81 365.15 86.49 361.82 91.00 362.50 C 90.55 363.72 90.06 364.94 89.55 366.14 C 90.46 367.89 91.30 369.98 93.34 370.69 C 105.07 375.82 117.91 377.59 130.55 378.80 C 126.68 380.47 122.41 380.50 118.31 379.80 C 105.95 378.88 92.91 377.18 82.46 369.96 Z" />
<path fill="#f5e5c1" opacity="1.00" d=" M 353.00 383.01 C 360.53 379.51 368.95 381.99 376.65 383.52 C 379.92 384.70 385.20 385.58 384.78 390.08 C 377.01 393.38 368.53 395.10 360.08 394.64 C 351.82 394.22 343.14 395.71 335.33 392.29 C 335.34 391.84 335.37 390.93 335.39 390.48 C 340.27 386.00 347.13 385.51 353.00 383.01 Z" />
<path fill="#3e3e3e" opacity="1.00" d=" M 344.77 387.94 C 349.66 386.63 354.35 384.62 359.32 383.61 C 364.61 382.59 369.91 384.37 374.67 386.54 C 374.69 387.05 374.72 388.06 374.74 388.57 C 367.57 391.92 359.55 389.85 352.04 391.35 C 349.14 391.98 346.32 390.92 343.59 390.08 C 343.88 389.55 344.47 388.48 344.77 387.94 Z" />
</svg>
