<?xml version="1.0" encoding="UTF-8" ?>
<!DOCTYPE svg PUBLIC "-//W3C//DTD SVG 1.1//EN" "http://www.w3.org/Graphics/SVG/1.1/DTD/svg11.dtd">
<svg width="422pt" height="422pt" viewBox="0 0 422 422" version="1.1" xmlns="http://www.w3.org/2000/svg">
<path fill="#3e3e3e" opacity="1.00" d=" M 0.00 0.00 L 422.00 0.00 L 422.00 422.00 L 0.00 422.00 L 0.00 0.00 Z" />
<path fill="#f4722b" opacity="1.00" d=" M 242.94 15.92 C 243.08 13.36 245.31 11.19 247.92 11.39 C 254.27 11.18 260.64 11.04 267.00 10.97 C 269.72 10.87 271.42 13.65 271.49 16.11 C 271.83 22.12 271.68 28.15 271.86 34.16 C 277.60 34.14 283.33 33.58 289.06 33.80 C 291.46 33.77 294.19 35.35 294.21 38.00 C 294.48 44.68 294.52 51.38 294.40 58.06 C 294.57 60.47 292.11 62.22 289.91 62.36 C 284.14 62.70 278.35 62.50 272.57 62.66 C 272.57 68.10 273.06 73.55 272.69 78.98 C 272.52 81.31 270.30 83.04 268.02 82.97 C 261.66 83.28 255.28 83.33 248.91 83.28 C 246.47 83.50 244.53 81.23 244.41 78.94 C 244.00 73.70 244.25 68.43 244.07 63.18 C 238.36 63.17 232.64 63.77 226.94 63.26 C 224.78 63.07 222.59 61.36 222.69 59.03 C 222.44 52.71 222.55 46.37 222.34 40.04 C 221.96 37.37 224.19 35.04 226.77 34.84 C 232.28 34.35 237.82 34.69 243.34 34.49 C 243.36 28.29 242.55 22.10 242.94 15.92 Z" />
<path fill="#f4722b" opacity="1.00" d=" M 327.91 31.11 C 334.94 30.60 342.00 30.43 349.04 30.03 C 351.92 29.67 354.35 32.31 354.52 35.05 C 355.03 41.97 355.37 48.90 355.70 55.83 C 362.15 55.46 368.62 55.08 375.09 54.95 C 377.93 54.71 380.96 56.76 380.99 59.79 C 381.49 67.20 381.81 74.64 382.00 82.07 C 382.15 85.13 379.00 87.06 376.25 87.12 C 369.99 87.49 363.71 87.69 357.45 87.97 C 357.53 93.66 358.34 99.31 358.31 105.00 C 358.46 107.59 356.74 110.49 353.99 110.75 C 347.04 111.73 339.98 111.42 333.00 112.07 C 330.07 112.66 326.74 110.85 326.38 107.73 C 325.56 101.72 325.59 95.63 325.25 89.58 C 318.82 89.62 312.41 90.44 305.99 90.24 C 303.25 90.18 300.91 87.75 301.01 84.99 C 300.69 77.94 300.29 70.88 300.14 63.82 C 299.82 61.01 302.12 58.49 304.92 58.39 C 311.09 57.69 317.32 57.74 323.52 57.32 C 323.22 50.22 322.34 43.14 322.55 36.04 C 322.60 33.23 325.15 31.00 327.91 31.11 Z" />
<path fill="#f5e5c1" opacity="1.00" d=" M 137.24 56.25 C 163.61 43.16 192.99 36.76 222.33 35.90 C 221.06 40.71 221.73 45.72 221.61 50.64 C 187.85 51.95 153.80 61.37 126.01 81.00 C 108.99 93.12 94.10 109.63 87.94 129.95 C 82.80 146.51 85.09 165.13 94.11 179.95 C 105.14 198.38 123.92 210.81 143.65 218.35 C 175.81 230.50 211.58 231.14 244.88 223.52 C 273.31 216.81 300.98 203.59 321.20 182.10 C 331.66 170.91 339.86 157.12 342.56 141.90 C 344.35 132.17 343.61 122.05 340.75 112.60 C 345.22 112.33 349.70 112.01 354.16 111.61 C 355.95 111.63 357.08 110.04 358.46 109.15 C 364.03 126.90 363.23 146.64 355.52 163.64 C 344.61 188.94 323.13 208.24 299.42 221.47 C 265.37 240.26 225.63 247.83 186.98 245.03 C 156.57 242.55 125.92 233.27 101.65 214.28 C 85.87 201.98 73.29 184.81 69.02 165.04 C 64.53 145.38 68.97 124.42 79.22 107.27 C 92.58 84.68 113.97 67.81 137.24 56.25 Z" />
<path fill="#f5e5c1" opacity="1.00" d=" M 295.42 48.72 C 301.34 51.17 307.14 53.91 312.66 57.16 C 308.85 57.81 304.25 56.47 301.04 59.18 C 298.60 61.11 299.45 64.51 299.27 67.20 C 296.60 65.79 293.88 64.46 291.09 63.30 C 292.74 62.35 294.86 61.43 295.19 59.30 C 295.70 55.80 295.33 52.24 295.42 48.72 Z" />
<path fill="#f5e5c1" opacity="1.00" d=" M 177.65 63.67 C 179.38 63.45 182.13 62.76 182.61 65.20 C 184.51 73.87 183.91 82.88 183.27 91.67 C 199.05 87.28 215.35 84.61 231.74 84.30 C 232.24 77.62 232.49 70.91 231.79 64.23 C 233.59 64.17 235.39 64.12 237.20 64.07 C 237.88 70.79 237.69 77.56 237.09 84.27 C 250.10 84.42 263.10 86.15 275.66 89.56 C 270.42 90.02 265.14 89.79 259.91 90.30 C 252.17 91.60 244.43 89.30 236.64 89.69 C 234.69 106.19 231.18 122.44 227.40 138.60 C 230.57 138.56 233.78 138.22 236.94 138.72 C 243.02 140.25 249.33 139.30 255.53 139.57 C 255.52 141.31 255.52 143.06 255.52 144.81 C 245.77 143.95 235.97 143.44 226.18 143.97 C 223.25 156.31 220.77 168.75 218.50 181.23 C 232.61 179.46 247.11 179.68 261.01 182.87 C 262.50 174.43 264.64 166.12 266.68 157.80 C 268.50 157.81 270.33 157.81 272.16 157.83 C 270.16 166.63 267.89 175.37 266.17 184.24 C 276.51 187.42 286.36 192.58 294.18 200.14 C 292.89 201.30 291.57 202.42 290.21 203.49 C 282.90 197.26 274.44 192.49 265.27 189.59 C 264.11 196.28 263.26 203.03 263.23 209.82 C 265.35 210.63 268.84 210.13 269.44 212.92 C 268.73 215.63 265.39 216.02 263.08 215.45 C 247.11 212.50 230.60 211.28 214.53 214.20 C 214.71 217.59 215.17 220.95 215.58 224.31 C 213.86 224.53 212.15 224.72 210.43 224.87 C 209.73 221.73 209.39 218.53 209.26 215.32 C 202.04 217.14 195.26 220.23 188.71 223.73 C 186.28 225.30 183.28 224.65 181.80 222.15 C 189.97 216.04 199.59 212.17 209.44 209.71 C 209.83 202.29 210.85 194.93 211.96 187.59 C 201.88 189.42 191.99 192.24 182.46 196.00 C 182.48 194.03 182.51 192.07 182.55 190.11 C 192.37 186.49 202.50 183.62 212.86 182.02 C 215.00 169.94 217.39 157.91 220.15 145.96 C 222.00 145.60 223.84 145.15 225.63 144.56 C 226.40 138.41 226.87 131.87 224.82 125.91 C 227.33 113.92 229.70 101.88 231.19 89.71 C 214.81 90.18 198.49 92.78 182.79 97.50 C 180.84 114.77 177.80 131.95 173.03 148.68 C 179.00 145.85 185.59 145.85 192.04 146.17 C 192.00 146.81 191.90 148.11 191.85 148.75 C 184.40 150.85 176.56 152.32 169.81 156.27 C 168.71 156.42 167.61 156.61 166.53 156.85 C 155.08 162.09 144.04 168.37 134.27 176.36 C 133.02 187.13 133.88 197.98 133.53 208.78 C 131.80 208.08 128.39 208.32 128.53 205.67 C 127.95 197.58 128.23 189.46 128.50 181.36 C 123.52 186.06 118.91 191.12 114.63 196.46 C 113.20 195.41 111.79 194.33 110.41 193.23 C 115.71 186.00 122.27 179.84 128.72 173.67 C 131.04 155.95 132.39 138.04 132.64 120.15 C 122.50 126.89 112.95 134.65 105.04 143.94 C 105.48 159.03 106.39 174.15 105.81 189.24 C 102.40 188.64 100.42 185.27 100.60 181.97 C 100.46 171.53 100.35 161.09 100.03 150.66 C 98.15 153.48 96.45 156.47 94.01 158.87 C 92.50 157.68 90.94 156.03 91.81 153.93 C 93.59 149.57 96.71 145.93 99.48 142.17 C 99.18 136.75 98.60 131.35 97.85 125.98 C 97.68 124.35 97.41 122.61 98.15 121.08 C 98.66 119.40 100.80 119.93 102.08 119.50 C 103.37 125.08 104.04 130.76 104.46 136.46 C 112.75 127.65 122.38 120.18 132.64 113.79 C 132.55 107.02 132.43 100.19 131.06 93.53 C 130.71 91.50 130.07 89.45 130.33 87.37 C 131.25 86.56 132.22 85.80 133.22 85.09 C 134.21 86.30 135.32 87.51 135.65 89.09 C 137.48 96.09 137.79 103.38 137.97 110.58 C 150.53 103.39 163.90 97.66 177.71 93.32 C 179.03 83.45 178.24 73.54 177.65 63.67 Z" />
<path fill="#f5e5c1" opacity="1.00" d=" M 285.55 92.89 C 287.99 85.59 289.53 78.04 291.78 70.69 C 293.35 71.60 294.90 72.53 296.42 73.53 C 294.72 80.69 292.81 87.79 290.62 94.82 C 302.58 99.89 313.74 106.87 323.33 115.63 C 324.04 113.34 324.72 111.04 325.35 108.73 C 326.56 110.47 328.05 111.99 329.75 113.25 C 329.07 115.41 328.38 117.57 327.68 119.72 C 330.52 122.82 333.62 125.74 335.91 129.29 C 337.29 131.11 336.04 134.74 333.42 133.53 C 330.25 131.67 328.43 128.12 325.82 125.57 C 322.47 136.01 319.18 146.46 315.98 156.95 C 320.02 159.63 324.24 162.30 327.27 166.15 C 327.98 168.06 325.97 169.33 325.06 170.71 C 321.49 167.95 318.20 164.83 314.44 162.32 C 311.79 171.47 309.19 180.68 307.81 190.13 C 307.96 193.03 304.41 192.66 302.55 193.38 C 302.54 181.78 306.63 170.69 309.63 159.62 C 301.54 155.39 292.90 152.29 284.08 149.99 C 283.96 148.09 283.86 146.19 283.77 144.29 C 293.20 146.67 302.45 149.89 311.13 154.29 C 314.54 143.32 317.81 132.31 321.57 121.46 C 312.23 112.30 300.98 105.23 289.02 100.01 C 287.92 103.61 286.77 107.21 285.60 110.79 C 284.66 110.71 283.72 110.63 282.79 110.56 C 282.69 106.53 282.63 102.46 283.64 98.53 C 282.95 96.08 282.29 93.62 281.43 91.23 C 282.79 91.79 284.17 92.34 285.55 92.89 Z" />
<path fill="#f4722b" opacity="1.00" d=" M 255.63 94.98 C 255.58 92.66 257.75 90.84 259.99 90.92 C 265.98 90.54 272.00 90.53 277.99 90.61 C 280.36 90.47 281.74 92.91 281.72 95.01 C 282.03 100.56 281.98 106.13 282.23 111.68 C 287.82 111.76 293.41 111.26 298.99 111.64 C 301.21 111.73 302.98 113.79 302.76 116.00 C 302.85 121.70 302.98 127.40 303.04 133.10 C 303.37 135.52 301.31 137.58 298.97 137.69 C 293.59 138.08 288.19 137.80 282.80 138.15 C 282.68 143.09 283.39 148.03 282.98 152.96 C 282.73 154.88 281.12 156.72 279.08 156.66 C 273.04 156.86 266.98 157.08 260.94 157.07 C 258.71 157.20 257.01 155.15 256.87 153.06 C 256.42 148.21 256.73 143.33 256.51 138.47 C 251.65 138.46 246.80 138.73 241.95 138.66 C 239.88 138.84 238.33 137.35 236.78 136.24 C 236.87 129.82 236.53 123.39 236.62 116.97 C 236.31 114.75 238.16 112.72 240.32 112.54 C 245.47 112.08 250.64 112.39 255.80 112.17 C 255.84 106.44 255.38 100.71 255.63 94.98 Z" />
<path fill="#3e3e3e" opacity="1.00" d=" M 138.12 116.79 C 150.41 109.46 163.56 103.63 177.16 99.17 C 175.14 116.03 172.08 132.83 167.26 149.12 C 167.00 151.45 164.52 151.95 162.78 152.82 C 152.83 157.07 143.48 162.63 134.78 169.04 C 136.68 151.69 138.03 134.25 138.12 116.79 Z" />
<path fill="#f4722b" opacity="1.00" d=" M 192.94 113.04 C 195.89 111.28 199.70 112.12 203.01 111.78 C 205.41 112.05 209.23 110.83 210.24 113.84 C 210.95 118.04 210.53 122.34 210.69 126.58 C 215.20 127.01 220.32 125.31 224.42 127.54 C 226.01 132.58 224.98 138.06 225.36 143.28 C 221.08 145.76 215.93 144.50 211.24 144.84 C 211.28 148.19 211.54 151.54 211.32 154.89 C 211.27 156.15 210.40 157.70 209.00 157.72 C 204.66 158.07 200.28 158.24 195.93 158.10 C 194.65 158.20 193.49 157.11 193.29 155.90 C 192.63 152.39 192.84 148.81 192.76 145.27 C 188.46 144.85 182.84 147.13 179.47 143.71 C 179.12 138.64 178.70 133.39 179.53 128.38 C 183.11 125.68 188.25 127.31 192.46 126.86 C 192.70 122.29 191.44 117.42 192.94 113.04 Z" />
<path fill="#f5e5c1" opacity="1.00" d=" M 44.52 153.22 C 49.02 152.50 53.49 151.57 58.03 151.15 C 59.58 151.10 61.92 150.89 62.09 153.00 C 62.66 157.91 62.28 163.04 64.38 167.67 C 65.31 170.46 68.04 174.44 64.28 176.31 C 59.00 178.39 53.12 178.24 47.63 179.54 C 45.04 176.11 42.63 172.34 42.03 167.99 C 41.13 162.92 42.89 157.94 44.52 153.22 Z" />
<path fill="#f5e5c1" opacity="1.00" d=" M 30.04 155.45 C 33.07 154.98 36.11 154.52 39.14 154.04 C 35.76 162.66 36.50 172.83 42.17 180.32 C 38.99 180.82 35.82 181.35 32.64 181.86 C 30.04 178.41 27.70 174.54 27.26 170.16 C 26.56 165.07 28.27 160.13 30.04 155.45 Z" />
<path fill="#f5e5c1" opacity="1.00" d=" M 5.00 159.45 C 11.51 158.31 18.06 157.37 24.58 156.29 C 22.89 161.28 21.61 166.65 22.67 171.92 C 23.27 175.85 25.20 179.37 27.22 182.73 C 19.81 183.87 12.40 185.00 5.01 186.22 C 4.98 177.30 5.01 168.38 5.00 159.45 Z" />
<path fill="#f4722b" opacity="1.00" d=" M 174.98 157.08 C 177.05 157.28 180.28 156.32 180.96 159.05 C 181.57 162.72 181.21 166.49 181.37 170.20 C 185.37 170.64 190.22 168.84 193.69 171.24 C 194.45 175.74 194.48 180.39 194.04 184.93 C 190.55 187.51 185.72 185.91 181.66 186.39 C 181.71 189.59 182.03 192.81 181.67 196.00 C 180.97 198.88 177.17 197.78 174.98 198.27 C 172.07 198.01 168.26 199.37 166.07 196.87 C 165.19 193.58 165.63 190.11 165.52 186.75 L 164.64 186.76 C 164.19 186.77 163.30 186.79 162.85 186.80 C 159.83 186.44 155.83 187.96 153.56 185.39 C 153.00 181.30 153.14 177.13 153.26 173.01 C 153.11 171.57 154.69 170.67 155.96 170.71 C 159.04 170.43 162.14 170.53 165.23 170.47 C 165.20 166.41 164.37 162.24 165.41 158.26 C 168.29 156.65 171.81 157.37 174.98 157.08 Z" />
<path fill="#f5e5c1" opacity="1.00" d=" M 356.78 167.00 C 356.68 164.56 358.12 162.61 360.02 161.27 C 362.92 164.57 361.18 169.06 361.14 172.97 C 358.25 205.91 345.57 237.33 327.84 265.02 C 321.12 275.74 313.52 285.87 306.19 296.17 C 299.02 305.92 296.01 317.85 292.37 329.20 C 289.89 336.25 289.90 343.93 286.83 350.80 C 280.00 367.65 271.52 383.99 260.45 398.46 C 256.90 402.69 253.15 408.28 247.00 408.32 C 238.60 407.97 230.47 405.36 222.62 402.50 C 205.60 396.01 189.48 387.41 173.68 378.39 C 154.32 367.10 135.26 355.18 117.44 341.55 C 103.73 330.41 92.45 316.26 84.72 300.37 C 77.58 285.33 71.78 269.47 69.47 252.92 C 67.10 236.73 67.02 220.26 68.25 203.96 C 68.56 200.06 68.45 196.08 69.37 192.25 C 69.48 189.43 74.10 190.64 73.73 193.04 C 73.60 200.07 72.66 207.06 72.38 214.09 C 77.75 220.49 83.42 226.63 89.38 232.48 C 88.47 226.32 87.77 220.09 88.28 213.87 C 89.71 214.39 92.29 214.07 92.58 216.05 C 93.18 223.29 93.53 230.62 95.26 237.69 C 109.95 251.61 127.33 262.68 145.88 270.77 C 145.32 263.18 145.13 255.53 145.97 247.97 C 146.21 246.93 146.24 244.49 147.98 245.14 C 148.73 245.25 150.22 245.47 150.97 245.58 C 150.28 254.58 149.45 263.80 151.27 272.71 C 167.40 279.33 184.93 282.42 202.33 282.93 C 199.19 273.43 195.64 263.74 195.58 253.63 C 197.31 253.98 200.35 253.42 200.15 256.09 C 201.68 265.22 204.21 274.15 207.37 282.85 C 222.30 283.02 236.96 279.40 251.10 274.94 C 249.62 267.52 247.30 260.31 245.72 252.93 C 245.26 250.69 248.55 251.36 249.86 250.89 C 252.13 258.30 253.91 265.85 255.74 273.38 C 267.49 268.98 278.93 263.72 289.77 257.37 C 288.63 251.09 286.81 244.98 285.28 238.79 C 286.61 238.23 287.95 237.69 289.30 237.16 C 291.62 242.79 292.86 248.79 294.08 254.73 C 306.60 247.12 318.13 237.96 328.78 227.92 C 328.29 221.93 327.13 216.00 326.86 209.99 C 326.95 207.86 330.21 206.57 330.96 209.04 C 332.46 213.74 332.43 218.77 333.06 223.63 C 338.65 217.96 343.89 211.96 348.87 205.75 C 350.11 204.27 351.01 202.53 351.46 200.65 C 354.34 189.64 356.07 178.35 356.78 167.00 Z" />
<path fill="#3e3e3e" opacity="1.00" d=" M 217.57 186.67 C 231.65 184.85 246.06 184.95 259.93 188.16 C 258.84 195.06 258.08 202.00 257.71 208.98 C 243.54 207.03 229.06 206.35 214.89 208.65 C 215.48 201.29 216.47 193.97 217.57 186.67 Z" />
<path fill="#f5e5c1" opacity="1.00" d=" M 162.85 186.80 C 163.30 186.79 164.19 186.77 164.64 186.76 C 164.90 190.38 164.12 194.24 165.48 197.68 C 168.10 200.01 172.08 198.75 175.24 199.13 C 173.24 200.12 171.23 201.11 169.23 202.11 C 169.49 208.39 171.15 214.60 170.73 220.89 C 169.02 222.47 165.83 221.20 165.61 218.91 C 164.84 214.30 164.52 209.64 164.13 204.99 C 158.95 208.04 154.23 211.76 149.50 215.44 C 147.48 217.00 145.73 214.38 144.45 213.14 C 150.03 207.47 156.76 203.11 163.57 199.06 C 163.27 194.97 163.08 190.88 162.85 186.80 Z" />
<path fill="#3e3e3e" opacity="1.00" d=" M 333.70 229.84 C 338.25 225.35 342.51 220.59 346.84 215.89 C 343.37 225.49 339.29 234.88 334.54 243.93 C 334.28 239.23 334.09 234.53 333.70 229.84 Z" />
<path fill="#3e3e3e" opacity="1.00" d=" M 72.29 221.38 C 78.08 227.99 84.14 234.37 90.65 240.27 C 93.77 256.80 97.85 273.18 103.49 289.04 C 93.77 281.67 84.83 273.22 77.30 263.60 C 75.74 261.76 75.39 259.31 74.97 257.02 C 72.99 245.26 72.09 233.31 72.29 221.38 Z" />
<path fill="#3e3e3e" opacity="1.00" d=" M 295.02 259.86 C 307.23 252.38 318.76 243.78 329.24 234.01 C 329.21 242.09 331.51 251.33 326.35 258.37 C 322.88 263.83 319.47 269.35 315.65 274.58 C 310.08 281.55 302.59 286.62 295.13 291.35 C 296.63 280.90 296.53 270.31 295.02 259.86 Z" />
<path fill="#3e3e3e" opacity="1.00" d=" M 109.30 290.65 C 103.57 276.04 99.84 260.75 96.47 245.45 C 111.50 258.22 128.39 268.85 146.68 276.29 C 148.93 289.78 153.65 302.77 159.97 314.88 C 143.13 310.66 126.76 304.17 112.10 294.82 C 110.54 293.95 109.99 292.17 109.30 290.65 Z" />
<path fill="#3e3e3e" opacity="1.00" d=" M 256.81 278.02 C 268.48 273.86 279.77 268.66 290.50 262.46 C 292.05 273.11 291.57 283.92 289.76 294.50 C 280.94 299.26 271.86 303.53 262.57 307.28 C 260.95 297.47 259.03 287.71 256.81 278.02 Z" />
<path fill="#3e3e3e" opacity="1.00" d=" M 79.05 273.18 C 86.19 280.98 93.98 288.23 102.68 294.26 C 104.82 295.77 107.25 297.19 108.28 299.74 C 114.31 312.25 123.63 322.78 133.33 332.57 C 121.68 327.91 110.31 322.30 100.20 314.82 C 98.23 313.43 96.53 311.67 95.32 309.57 C 88.30 298.24 83.12 285.85 79.05 273.18 Z" />
<path fill="#3e3e3e" opacity="1.00" d=" M 166.10 316.21 C 159.61 304.32 154.49 291.61 151.90 278.28 C 168.64 284.29 186.35 287.64 204.15 287.76 C 208.59 298.70 213.82 309.31 219.71 319.55 C 201.81 321.13 183.67 320.01 166.10 316.21 Z" />
<path fill="#3e3e3e" opacity="1.00" d=" M 209.29 287.73 C 223.95 287.36 238.39 284.13 252.27 279.54 C 254.37 289.34 256.48 299.14 257.96 309.06 C 247.14 313.11 236.05 316.48 224.73 318.80 C 219.05 308.71 213.74 298.42 209.29 287.73 Z" />
<path fill="#3e3e3e" opacity="1.00" d=" M 303.39 291.81 C 298.90 297.72 295.55 304.37 293.15 311.38 C 293.33 306.68 293.87 302.02 294.41 297.36 C 297.42 295.53 300.40 293.66 303.39 291.81 Z" />
<path fill="#3e3e3e" opacity="1.00" d=" M 263.30 312.09 C 272.20 308.63 280.90 304.66 289.33 300.15 C 288.48 307.81 287.78 315.49 287.07 323.16 C 280.90 329.05 273.45 333.37 265.87 337.17 C 265.40 328.77 264.51 320.41 263.30 312.09 Z" />
<path fill="#3e3e3e" opacity="1.00" d=" M 114.90 302.26 C 129.85 310.69 146.09 316.59 162.75 320.56 C 168.30 328.79 173.43 337.39 179.75 345.11 C 170.09 343.48 160.50 341.43 151.10 338.68 C 148.27 337.78 145.10 337.31 142.90 335.13 C 132.38 325.28 122.39 314.64 114.90 302.26 Z" />
<path fill="#3e3e3e" opacity="1.00" d=" M 226.85 323.15 C 237.71 321.11 248.29 317.75 258.62 313.88 C 260.10 322.28 260.57 330.81 261.26 339.31 C 253.15 342.91 244.66 345.69 235.94 347.37 C 233.28 339.16 230.28 331.06 226.85 323.15 Z" />
<path fill="#3e3e3e" opacity="1.00" d=" M 169.31 321.75 C 186.62 324.95 204.39 326.19 221.91 324.10 C 225.49 331.77 228.41 339.74 230.98 347.81 C 216.23 348.70 201.43 347.77 186.77 346.15 C 180.34 338.47 174.63 330.22 169.31 321.75 Z" />
<path fill="#3e3e3e" opacity="1.00" d=" M 107.55 325.47 C 117.63 331.26 128.24 336.13 139.25 339.86 C 141.33 340.50 143.14 341.75 144.72 343.22 C 156.02 353.41 168.18 362.60 180.53 371.47 C 175.63 370.17 170.74 368.76 165.97 367.02 C 157.87 364.11 150.99 358.81 143.77 354.29 C 131.00 345.63 117.72 337.27 107.55 325.47 Z" />
<path fill="#3e3e3e" opacity="1.00" d=" M 266.37 342.43 C 273.24 338.75 280.19 335.12 286.34 330.26 C 285.47 337.37 284.85 344.86 281.15 351.17 C 276.88 357.05 270.52 360.92 264.34 364.51 C 265.87 357.24 265.49 349.68 266.37 342.43 Z" />
<path fill="#3e3e3e" opacity="1.00" d=" M 153.18 344.24 C 163.34 347.05 173.70 349.09 184.13 350.63 C 191.27 359.31 198.94 367.55 206.81 375.59 C 200.22 374.74 192.76 375.36 187.55 370.46 C 175.72 362.24 164.13 353.63 153.18 344.24 Z" />
<path fill="#3e3e3e" opacity="1.00" d=" M 237.30 351.96 C 245.57 350.45 253.57 347.78 261.30 344.52 C 261.28 352.05 260.34 359.54 259.09 366.96 C 253.76 369.23 248.24 371.03 242.66 372.56 C 241.05 365.65 239.25 358.78 237.30 351.96 Z" />
<path fill="#3e3e3e" opacity="1.00" d=" M 191.07 351.49 C 204.82 352.84 218.66 353.16 232.46 352.59 C 234.50 359.52 236.31 366.51 237.99 373.54 C 230.11 375.41 222.00 375.82 213.93 375.86 C 205.97 368.07 198.38 359.90 191.07 351.49 Z" />
<path fill="#3e3e3e" opacity="1.00" d=" M 263.34 370.32 C 267.97 368.09 272.37 365.42 276.59 362.49 C 269.69 375.96 262.44 389.52 252.17 400.78 C 257.31 391.20 261.27 381.01 263.34 370.32 Z" />
<path fill="#3e3e3e" opacity="1.00" d=" M 243.68 377.17 C 248.51 375.95 253.27 374.43 257.92 372.65 C 255.87 381.83 252.21 390.55 247.73 398.80 C 246.51 391.56 245.23 384.34 243.68 377.17 Z" />
<path fill="#3e3e3e" opacity="1.00" d=" M 179.63 376.19 C 184.57 377.42 190.09 377.43 194.27 380.68 C 202.37 386.14 210.83 391.02 219.27 395.93 C 205.54 390.48 192.46 383.48 179.63 376.19 Z" />
<path fill="#3e3e3e" opacity="1.00" d=" M 218.77 380.62 C 225.56 380.43 232.33 379.68 238.98 378.29 C 240.80 386.46 242.25 394.69 243.47 402.97 C 235.08 395.69 226.88 388.20 218.77 380.62 Z" />
<path fill="#3e3e3e" opacity="1.00" d=" M 202.18 380.11 C 205.37 380.22 208.56 380.40 211.75 380.53 C 216.56 385.19 221.61 389.61 226.36 394.34 C 218.13 389.88 210.09 385.09 202.18 380.11 Z" />
</svg>
