<?xml version="1.0" encoding="UTF-8" ?>
<!DOCTYPE svg PUBLIC "-//W3C//DTD SVG 1.1//EN" "http://www.w3.org/Graphics/SVG/1.1/DTD/svg11.dtd">
<svg width="422pt" height="422pt" viewBox="0 0 422 422" version="1.1" xmlns="http://www.w3.org/2000/svg">
<path fill="#3e3e3e" opacity="1.00" d=" M 0.00 0.00 L 422.00 0.00 L 422.00 422.00 L 0.00 422.00 L 0.00 0.00 Z" />
<path fill="#f4722b" opacity="1.00" d=" M 126.05 27.89 C 125.86 22.19 131.42 17.61 136.92 18.00 C 180.29 18.00 223.67 18.00 267.04 18.00 C 272.58 17.59 278.15 22.21 277.96 27.93 C 278.05 63.62 277.97 99.31 278.00 135.00 C 289.99 135.00 301.98 135.00 313.96 134.99 C 317.33 138.31 320.66 141.66 324.00 145.02 C 324.28 152.31 325.52 159.61 325.22 166.90 C 321.99 180.36 318.54 193.78 315.17 207.22 C 313.85 210.92 316.14 214.49 317.00 218.03 C 303.28 233.52 289.58 249.04 275.89 264.55 C 259.22 259.07 242.66 253.28 226.03 247.72 C 225.94 225.48 226.07 203.25 225.96 181.02 C 226.02 179.31 225.80 177.44 226.89 175.99 C 232.93 166.66 238.88 157.28 244.96 147.98 C 245.60 146.79 246.78 145.55 246.16 144.08 C 243.64 133.21 241.02 122.37 238.50 111.50 C 236.34 111.17 234.17 110.85 232.01 110.53 C 233.03 105.30 234.31 100.12 235.28 94.89 C 235.67 93.45 234.68 92.16 234.19 90.90 C 228.94 80.78 223.73 70.64 218.50 60.51 C 210.01 58.52 201.53 56.49 193.03 54.54 C 193.46 48.85 194.03 43.17 194.49 37.49 C 191.53 37.31 188.57 37.12 185.61 37.06 C 180.63 41.80 174.22 44.69 168.67 48.69 C 166.81 49.76 165.13 51.43 163.00 51.86 C 156.01 51.63 149.08 50.33 142.09 50.16 C 136.57 52.41 131.40 55.47 126.00 58.00 C 126.04 47.97 125.91 37.93 126.05 27.89 Z" />
<path fill="#f5e5c1" opacity="1.00" d=" M 164.59 55.87 C 172.08 50.71 179.82 45.91 187.19 40.57 C 188.29 41.22 190.01 41.45 190.34 42.94 C 190.20 48.16 189.82 53.39 189.97 58.62 C 198.38 60.93 206.88 63.06 215.18 65.70 C 220.40 75.27 225.18 85.09 230.31 94.72 C 229.01 101.59 228.03 108.52 226.90 115.42 C 228.76 115.75 230.66 115.92 232.46 116.54 C 235.38 125.60 237.81 134.85 240.24 144.07 C 234.08 154.68 228.20 165.44 222.10 176.09 C 220.93 177.83 220.67 179.94 220.74 181.99 C 220.81 204.70 220.73 227.40 220.78 250.11 C 220.33 252.02 222.75 251.90 223.87 252.47 C 238.58 256.88 253.26 261.38 267.95 265.85 C 267.48 267.45 267.01 269.05 266.54 270.66 C 249.54 265.55 232.61 260.24 215.57 255.25 C 215.98 229.26 215.72 203.25 215.70 177.25 C 221.57 166.91 227.37 156.54 233.22 146.20 C 234.88 143.69 234.08 140.59 233.45 137.89 C 231.90 132.23 230.19 126.61 228.75 120.93 C 226.36 120.16 223.25 120.71 221.45 118.84 C 222.12 110.94 224.27 103.19 224.81 95.29 C 220.96 87.23 216.64 79.39 212.60 71.41 C 211.87 69.29 209.37 69.24 207.58 68.59 C 199.95 66.68 192.50 64.09 184.78 62.60 C 184.85 57.79 184.99 52.99 185.13 48.18 C 179.55 51.89 173.97 55.61 168.41 59.35 C 167.09 60.17 165.69 61.24 164.02 60.89 C 157.93 60.40 151.86 59.58 145.77 59.10 C 144.46 58.88 143.29 59.61 142.15 60.14 C 130.69 66.15 119.17 72.06 107.68 78.03 C 108.02 82.07 108.62 86.08 109.00 90.11 C 109.46 91.67 108.22 92.90 107.65 94.21 C 106.07 93.85 104.49 93.50 102.91 93.16 C 104.67 104.18 106.42 115.20 108.21 126.22 C 105.04 127.52 101.69 128.27 98.34 128.95 C 95.79 137.41 98.25 146.10 99.44 154.56 C 102.82 161.38 106.74 167.98 110.85 174.41 C 110.66 199.60 110.81 224.80 110.77 250.00 C 110.69 252.79 111.07 255.65 110.47 258.41 C 107.80 259.56 104.86 259.90 102.05 260.59 C 75.51 266.63 48.97 272.65 22.43 278.70 C 21.98 276.74 21.53 274.78 21.08 272.83 C 49.32 266.50 77.48 259.86 105.70 253.49 C 105.88 229.00 105.68 204.51 105.79 180.02 C 105.73 178.31 105.96 176.48 105.07 174.95 C 101.76 168.83 98.09 162.90 94.67 156.85 C 93.70 151.63 93.26 146.32 92.37 141.08 C 91.14 135.59 93.34 130.20 93.94 124.78 C 96.82 124.14 99.69 123.51 102.58 122.90 C 100.92 111.95 99.00 101.05 97.42 90.09 C 98.28 89.29 99.01 88.39 99.61 87.38 C 100.64 87.60 102.69 88.06 103.72 88.29 C 103.24 83.91 102.77 79.52 102.22 75.15 C 116.05 68.08 129.87 61.00 143.57 53.69 C 150.55 54.64 157.58 55.20 164.59 55.87 Z" />
<path fill="#f5e5c1" opacity="1.00" d=" M 365.56 55.51 C 368.01 53.88 370.45 52.22 372.89 50.56 C 373.62 50.98 374.36 51.41 375.10 51.84 C 381.90 65.29 389.02 78.59 395.98 91.97 C 396.90 93.49 396.61 95.32 396.61 97.01 C 395.54 111.57 394.32 126.13 393.59 140.71 C 394.88 140.28 396.17 139.84 397.46 139.40 C 397.97 124.24 399.33 109.13 399.81 93.96 C 400.19 90.65 397.85 88.03 396.60 85.19 C 397.35 83.21 397.52 81.10 397.64 79.01 C 398.19 71.20 400.21 63.48 399.64 55.61 C 403.15 54.35 406.88 54.09 410.58 54.40 C 412.90 73.19 413.49 92.22 415.45 111.08 C 411.84 131.59 409.18 152.35 405.73 172.92 C 404.82 180.62 403.19 188.23 402.59 195.96 C 395.18 209.52 387.97 223.20 380.63 236.80 C 378.00 241.54 376.94 246.91 375.47 252.08 C 368.59 277.62 361.59 303.13 354.80 328.69 C 352.94 328.73 351.06 328.81 349.26 329.32 C 325.50 335.85 301.61 341.97 277.91 348.72 C 269.93 350.80 262.03 353.23 253.97 354.99 C 252.38 353.38 250.82 351.74 249.28 350.08 C 255.60 343.64 261.73 337.01 268.01 330.53 C 265.01 325.52 262.02 320.51 259.00 315.52 C 251.37 316.77 243.75 318.01 236.15 319.36 C 265.70 286.86 294.23 253.45 322.84 220.12 C 322.13 214.74 318.90 209.35 321.25 203.98 C 323.85 191.65 326.26 179.27 328.52 166.87 C 328.78 166.50 329.31 165.77 329.58 165.40 C 329.74 158.44 328.85 151.53 328.23 144.62 C 325.88 140.23 321.43 137.40 319.09 132.98 C 314.59 124.63 309.79 116.45 305.44 108.02 C 306.34 106.64 307.22 105.26 308.14 103.90 C 309.54 103.49 310.91 102.99 312.25 102.43 C 323.55 113.55 334.80 124.73 345.93 136.01 C 349.90 141.93 351.44 149.13 354.90 155.34 C 355.28 154.73 356.03 153.51 356.41 152.90 C 350.86 138.99 346.86 124.48 341.46 110.55 C 336.04 105.01 331.99 98.34 328.97 91.23 C 327.78 88.26 326.01 85.28 326.31 81.96 C 327.56 77.84 330.31 74.23 334.10 72.15 C 343.64 83.52 353.31 94.76 362.84 106.12 C 364.21 107.77 364.64 109.93 365.29 111.91 C 369.00 124.18 373.41 136.24 376.90 148.58 C 377.73 148.50 378.57 148.42 379.41 148.35 C 380.53 145.29 378.29 142.56 377.33 139.78 C 376.00 136.17 374.07 132.74 373.19 128.99 C 374.11 119.59 376.26 110.33 377.54 100.97 C 378.19 97.93 376.56 95.17 375.48 92.45 C 372.56 85.45 369.72 78.43 366.85 71.42 C 366.16 66.16 365.39 60.84 365.56 55.51 Z" />
<path fill="#f4722b" opacity="1.00" d=" M 9.02 145.97 C 8.83 140.06 13.95 134.64 19.97 135.02 C 42.23 134.98 64.50 135.00 86.76 135.01 C 87.59 142.67 88.05 150.38 89.06 158.02 C 92.14 164.75 97.48 170.37 100.45 177.12 C 100.64 200.57 100.47 224.04 100.53 247.49 C 70.02 255.13 39.51 262.75 9.00 270.38 C 9.01 228.91 8.97 187.44 9.02 145.97 Z" />
<path fill="#f5e5c1" opacity="1.00" d=" M 129.39 136.54 C 138.15 134.22 147.86 140.99 148.48 150.05 C 149.57 158.77 141.76 167.18 133.00 166.81 C 124.94 167.14 117.48 160.01 117.47 151.94 C 117.05 144.82 122.50 138.06 129.39 136.54 Z" />
<path fill="#f5e5c1" opacity="1.00" d=" M 189.44 136.65 C 198.47 134.30 208.39 141.61 208.64 150.95 C 209.56 159.64 201.77 168.00 193.04 167.67 C 184.66 168.03 176.97 160.35 177.33 151.97 C 177.07 144.84 182.58 138.22 189.44 136.65 Z" />
<path fill="#f5e5c1" opacity="1.00" d=" M 153.08 149.79 C 158.31 146.03 166.47 145.15 171.61 149.47 C 171.89 150.95 171.66 152.48 171.65 153.98 C 168.83 152.93 166.07 151.35 162.98 151.36 C 159.92 151.19 157.09 152.52 154.37 153.71 C 153.94 152.40 153.51 151.09 153.08 149.79 Z" />
<path fill="#f4722b" opacity="1.00" d=" M 381.83 242.98 C 386.27 234.96 390.52 226.83 394.97 218.82 C 395.02 237.91 395.01 257.01 394.98 276.10 C 395.00 280.86 391.76 285.79 386.87 286.63 C 381.78 287.42 376.60 286.83 371.47 287.00 C 374.28 273.99 377.15 261.00 379.94 247.99 C 380.29 246.23 380.94 244.55 381.83 242.98 Z" />
<path fill="#f5e5c1" opacity="1.00" d=" M 235.52 288.56 C 238.79 286.09 242.74 288.97 245.66 290.69 C 242.80 297.02 239.90 303.34 236.94 309.62 C 233.33 313.96 229.34 318.06 224.82 321.48 C 214.48 318.28 204.23 314.78 194.03 311.17 C 198.64 310.32 203.46 310.41 207.91 308.82 C 218.36 303.99 227.33 296.54 235.52 288.56 Z" />
<path fill="#f5e5c1" opacity="1.00" d=" M 151.20 341.20 C 161.01 330.87 170.95 320.59 182.08 311.65 C 195.41 315.87 208.59 320.60 221.94 324.77 C 232.80 325.92 243.57 322.80 254.43 323.21 C 255.91 325.31 257.31 327.47 258.52 329.74 C 252.91 336.74 247.52 343.92 242.00 351.00 C 245.52 354.42 249.50 357.38 252.73 361.09 C 252.76 364.88 249.96 367.87 248.75 371.31 C 247.79 377.03 249.29 383.12 247.12 388.63 C 237.91 395.31 228.34 401.51 218.99 408.01 C 217.13 409.60 214.59 409.02 212.47 408.41 C 206.30 406.57 200.15 404.65 193.97 402.86 C 191.84 401.95 189.68 403.04 187.67 403.74 C 183.21 405.61 179.08 408.20 175.13 410.97 C 131.41 410.94 87.69 411.20 43.97 410.79 C 39.21 411.01 34.44 411.07 29.68 410.97 C 65.34 390.88 100.99 370.76 136.67 350.68 C 141.55 347.59 147.29 345.62 151.20 341.20 Z" />
<path fill="#f5e5c1" opacity="1.00" d=" M 340.40 337.14 C 342.71 336.38 345.01 335.60 347.33 334.87 C 344.19 358.01 340.35 381.06 337.25 404.21 C 335.23 404.36 333.20 404.51 331.18 404.67 C 333.37 387.00 336.40 369.44 338.84 351.80 C 339.83 346.97 340.12 342.05 340.40 337.14 Z" />
</svg>
