<?xml version="1.0" encoding="UTF-8" standalone="no"?>
<svg
   xmlns:dc="http://purl.org/dc/elements/1.1/"
   xmlns:cc="http://creativecommons.org/ns#"
   xmlns:rdf="http://www.w3.org/1999/02/22-rdf-syntax-ns#"
   xmlns:svg="http://www.w3.org/2000/svg"
   xmlns="http://www.w3.org/2000/svg"
   xmlns:sodipodi="http://sodipodi.sourceforge.net/DTD/sodipodi-0.dtd"
   xmlns:inkscape="http://www.inkscape.org/namespaces/inkscape"
   width="422pt"
   height="422pt"
   viewBox="0 0 422 422"
   version="1.1"
   id="svg2"
   inkscape:version="0.47 r22583"
   sodipodi:docname="simul_charge.svg">
  <metadata
     id="metadata36">
    <rdf:RDF>
      <cc:Work
         rdf:about="">
        <dc:format>image/svg+xml</dc:format>
        <dc:type
           rdf:resource="http://purl.org/dc/dcmitype/StillImage" />
      </cc:Work>
    </rdf:RDF>
  </metadata>
  <defs
     id="defs34" />
  <sodipodi:namedview
     pagecolor="#ffffff"
     bordercolor="#666666"
     borderopacity="1"
     objecttolerance="10"
     gridtolerance="10"
     guidetolerance="10"
     inkscape:pageopacity="0"
     inkscape:pageshadow="2"
     inkscape:window-width="1280"
     inkscape:window-height="738"
     id="namedview32"
     showgrid="false"
     inkscape:zoom="0.69044441"
     inkscape:cx="550.30674"
     inkscape:cy="500.68486"
     inkscape:window-x="-8"
     inkscape:window-y="-8"
     inkscape:window-maximized="1"
     inkscape:current-layer="svg2" />
  <path
     d="m 0,-602 1024,0 0,1024 L 0,422 0,-602 z"
     id="path4"
     style="fill:#3e3e3e" />
  <path
     d="m 345.02976,-555.11924 c 8.68702,-1.4074 17.51962,-0.67943 26.27943,-0.80076 97.83811,0.0243 195.67621,0.0485 293.51432,0 7.15829,-0.0728 14.87469,1.23754 20.14028,6.52739 6.50313,5.58105 8.15318,14.51071 7.91052,22.66389 -0.0485,85.19583 -0.0485,170.36739 0,255.56322 8.39583,0 16.7674,-0.0243 25.16323,-0.0971 -18.27185,37.22313 -37.1746,74.15507 -55.42218,111.3782 -4.97441,8.37156 -7.862,17.66521 -10.55545,26.9346 -7.7892,-9.82749 -9.1238,-22.61536 -14.89896,-33.43773 -15.57839,-31.32663 -32.20019,-62.14369 -46.92929,-93.90711 -2.57213,-5.26559 -4.4891,-11.18635 -8.88114,-15.2872 -19.92189,-14.97175 -44.28436,-23.61024 -62.48341,-40.93574 1.14047,-10.77383 5.6781,-20.67412 9.22085,-30.79279 -1.2618,-1.21327 -3.7854,-3.68834 -5.0472,-4.92588 0.48531,-4.75602 1.21327,-9.5363 1.06768,-14.31659 -4.58617,-9.6091 -15.82105,-12.35109 -24.58086,-16.76739 -1.55298,0 -4.65895,-0.0485 -6.18767,-0.0485 -6.4546,4.90161 -14.41365,8.39583 -19.04835,15.26294 -1.35886,4.75602 0.21839,9.77896 0.41252,14.60777 -6.79432,8.54142 -1.55299,18.95128 3.7854,26.64341 -0.0243,6.47887 -0.0971,13.87981 -6.21194,17.81081 -16.84019,12.98199 -37.39299,20.18881 -54.59716,32.66123 -3.25156,2.57213 -5.02294,6.43033 -6.89138,10.02161 -15.8453,33.97157 -33.65611,66.94825 -49.81687,100.77422 -5.6781,9.90028 -9.36644,20.69839 -13.3945,31.32664 -5.21706,-9.97309 -7.59507,-21.11091 -12.78787,-31.08399 -17.59241,-35.25763 -36.17971,-69.98142 -52.55886,-105.82142 14.68057,-0.0243 29.3854,-0.0485 44.06597,0.0485 0.38825,-86.84587 -0.0971,-173.66748 0.24266,-260.4891 -0.29119,-10.94369 7.78919,-21.30502 18.49023,-23.51317 z"
     id="path6"
     style="fill:#f4722b" />
  <path
     d="m 168.66882,-366.69839 c 5.72663,-7.20682 14.04966,-11.33194 20.91677,-17.2527 6.57593,0.46104 12.56948,3.34863 18.87849,4.90161 4.80455,3.66408 9.63336,7.49801 13.05478,12.52095 -0.0971,4.56189 -0.89782,9.05099 -1.38313,13.56436 8.9782,6.86711 1.11621,17.93213 -2.93611,25.38161 -0.0971,3.73687 -0.19412,7.47374 -0.33971,11.21062 4.24644,4.51336 8.80834,8.85687 14.34085,11.76872 13.4673,7.5708 26.49782,15.89384 39.84379,23.65877 4.22218,2.54786 9.051,5.02293 11.18635,9.77895 16.37915,35.84 34.96645,70.56379 52.55886,105.82142 5.1928,9.97308 7.57081,21.1109 12.78787,31.08399 4.02806,-10.62825 7.7164,-21.42636 13.3945,-31.32664 16.16076,-33.82597 33.97157,-66.80265 49.81687,-100.77422 1.86844,-3.59128 3.63982,-7.44948 6.89138,-10.02161 17.20417,-12.47242 37.75697,-19.67924 54.59716,-32.66123 6.11488,-3.931 6.18767,-11.33194 6.21194,-17.81081 -5.33839,-7.69213 -10.57972,-18.10199 -3.7854,-26.64341 -0.19413,-4.82881 -1.77138,-9.85175 -0.41252,-14.60777 4.6347,-6.86711 12.59375,-10.36133 19.04835,-15.26294 1.52872,0 4.63469,0.0485 6.18767,0.0485 8.75981,4.4163 19.99469,7.15829 24.58086,16.76739 0.14559,4.78029 -0.58237,9.56057 -1.06768,14.31659 1.2618,1.23754 3.7854,3.71261 5.0472,4.92588 -3.54275,10.11867 -8.08038,20.01896 -9.22085,30.79279 18.19905,17.3255 42.56152,25.96399 62.48341,40.93574 4.39204,4.10085 6.30901,10.02161 8.88114,15.2872 14.7291,31.76342 31.3509,62.58048 46.92929,93.90711 5.77516,10.82237 7.10976,23.61024 14.89896,33.43773 2.69345,-9.26939 5.58104,-18.56304 10.55545,-26.9346 18.24758,-37.22313 37.15033,-74.15507 55.42218,-111.3782 8.61421,-8.22597 20.18881,-12.61801 30.25895,-18.85422 11.0165,-6.67298 24.11981,-11.11355 32.1274,-21.76606 1.98976,-3.90673 0.94635,-8.61422 1.38312,-12.86067 -5.45971,-6.04208 -7.06123,-14.04967 -7.78919,-21.88739 1.2618,-0.72796 3.76114,-2.23242 5.02294,-2.98465 -0.92209,-4.78028 -2.37801,-9.51203 -2.32948,-14.41364 3.71261,-8.75981 14.0254,-10.77384 19.99469,-17.49536 11.69593,1.98976 23.1492,7.15829 31.15678,16.13649 -0.46104,4.99868 -1.01915,9.97308 -1.57725,14.94749 8.3473,6.93991 1.31033,18.00493 -3.03318,25.23602 -0.12132,3.68834 -0.21839,7.37668 -0.31545,11.04076 3.88247,4.4163 7.98332,8.80834 13.29744,11.55033 14.41365,8.03185 28.34199,16.93725 42.58578,25.26028 2.83906,1.84418 6.01782,3.46996 8.15318,6.21195 13.73422,28.26919 27.41991,56.61118 42.05194,84.4436 6.30901,13.34597 14.31659,26.01251 18.27185,40.35336 2.49934,8.95394 9.63337,15.62692 12.42389,24.45953 3.7854,11.38047 7.83772,22.85801 14.80189,32.758295 1.06768,0.6309 3.2273,1.868436 4.29498,2.475071 -1.23754,0.09706 -3.71261,0.291184 -4.95014,0.388246 0.77649,13.103318 -1.72285,26.594882 2.20815,39.358483 1.84417,6.163413 1.98976,12.642275 1.50445,19.024076 l -2.93611,2.256683 c -4.12512,5.775166 -6.81858,12.472417 -11.13782,18.1262557 -4.95014,5.6781042 -12.10844,8.6384834 -18.87848,11.5503317 1.8927,-7.352417 4.92587,-14.3165874 8.42009,-21.0138384 -2.74199,-0.121327 -5.48398,-0.218389 -8.2017,-0.315451 -0.84929,3.081706 -1.69858,6.139147 -2.57214,9.2208534 -1.8927,-1.1162085 -5.62957,-3.3486254 -7.52227,-4.4648344 1.09194,-8.080379 2.98464,-16.063696 3.68834,-24.192606 0.0485,-7.886256 -1.43166,-15.772512 -0.36398,-23.658768 -6.26048,-3.90673 -13.56436,-7.619337 -15.94237,-15.214408 -11.16209,-26.861799 -21.59621,-54.063319 -31.86048,-81.264829 -2.83905,-15.52986 -10.91943,-29.38541 -20.57706,-41.61517 -2.15962,3.90673 -4.02805,8.08038 -4.61042,12.56948 -0.82503,11.06502 9.51203,20.96531 5.26559,32.0546 -0.58237,1.86843 -1.69858,5.55677 -2.28095,7.42521 6.11488,1.38313 12.25403,2.49933 18.44171,3.56701 3.42142,14.87469 4.02805,30.18616 6.01782,45.30351 0.67943,7.158294 1.86843,14.365118 1.09194,21.571943 -2.74199,2.135355 -5.7509,3.882464 -8.63848,5.7509 10.33706,54.645688 21.18369,109.170048 31.54502,163.79147 1.55299,18.150517 12.56948,32.976677 18.95128,49.501417 -8.51716,6.55166 -16.30635,14.36512 -26.2309,18.80569 -10.28853,4.85308 -20.64986,9.58484 -31.4237,13.22465 2.01403,-8.54143 5.38692,-16.64607 7.81346,-25.01763 -7.81346,-2.88759 -16.69459,-1.94124 -24.77497,-4.19792 -5.41119,14.82616 -7.40095,30.59867 -10.74958,45.93441 -2.06256,7.35242 2.30522,14.21952 2.5964,21.42635 -0.94635,3.27583 -2.20815,6.4546 -3.42142,9.65763 5.02294,7.98332 9.82749,16.16076 15.04455,24.04701 1.65005,0.16986 4.92588,0.50958 6.57592,0.65517 1.50446,4.75602 2.98465,9.48777 4.46484,14.24379 -13.10332,-0.0728 -26.2309,0.19412 -39.33422,-0.19412 -4.73175,-5.02294 -11.81725,-4.41631 -18.00493,-5.70237 -4.5619,-0.38825 -2.37801,-5.84796 -2.71772,-8.78408 0.41251,-5.82369 2.83905,-11.25914 3.80966,-16.98578 -0.19412,-5.62957 -2.08682,-11.06502 -2.13535,-16.6946 3.05744,-12.10843 9.34218,-23.7073 8.46862,-36.51943 -0.72796,-11.67166 -0.4853,-24.04701 -6.98843,-34.31128 -5.38692,-0.26692 -10.74958,-0.58237 -16.08796,-1.11621 -0.1456,-15.9909 0.41251,-31.9818 -0.6309,-47.948432 -0.60664,-11.429005 -1.11621,-22.882275 -2.54787,-34.238483 -1.60152,11.331943 -1.94123,22.809478 -2.69346,34.238483 -1.04341,15.918102 -2.62067,31.811942 -2.54787,47.802842 -3.10597,0.43678 -6.23621,0.84929 -9.34218,1.31033 -6.89137,14.55924 -6.11488,30.7928 -5.16853,46.46825 1.57725,8.22597 5.60531,15.82104 7.0855,24.09554 0.31545,5.75091 -1.28607,11.40474 -2.25668,17.05858 2.03829,8.29877 6.52739,17.9564 2.23241,26.10958 -9.94881,1.28606 -19.26673,6.13914 -29.43393,5.50824 -9.56057,-0.0243 -19.12114,0 -28.68171,-0.50957 1.50446,-4.4163 2.93612,-8.85687 4.51337,-13.22465 12.30256,-2.40227 14.43791,-16.93725 21.7418,-25.26028 -1.31033,-3.83393 -3.73687,-7.47374 -3.90673,-11.5746 1.28606,-5.89649 4.61043,-11.62312 3.25156,-17.83507 -3.10597,-16.35488 -6.47886,-32.63696 -11.23488,-48.6036 -7.93479,1.40739 -15.82104,3.08171 -23.7073,4.73175 2.5236,8.29877 5.65384,16.40342 7.83773,24.79925 -11.91432,-2.54787 -23.27052,-7.76493 -33.97157,-13.5401 -7.44948,-4.61043 -15.2144,-8.9054 -21.71753,-14.82616 -3.2273,-2.13536 -0.58237,-6.18768 0.26692,-8.85687 5.84796,-12.47242 13.75848,-24.28967 15.69971,-38.218012 10.99223,-60.202464 23.34332,-120.162275 34.74806,-180.291943 2.08682,-12.520948 9.6091,-23.221995 12.47242,-35.451755 -0.82503,-13.87981 0.87355,-27.88095 -0.99488,-41.68796 1.79564,-6.50313 4.17364,-12.8364 5.65383,-19.41232 1.69858,-6.67299 -2.32947,-12.86067 -4.51336,-18.90275 -9.17232,13.41877 -18.19905,27.4199 -21.08664,43.72625 -10.60398,28.60891 -21.57194,57.120763 -33.19507,85.365691 -3.68834,3.057441 -7.32815,6.163413 -10.96796,9.269384 1.01915,5.847962 2.13536,11.768721 4.44057,17.276967 0.31545,2.863318 0.6309,5.726635 0.94635,8.589953 -7.93479,6.211943 -5.16853,16.30635 -7.47374,24.7507106 -3.83394,0.5823697 -7.69214,0.7279621 -11.52607,0.9706162 1.35886,4.5861611 2.69346,9.2451184 2.93611,14.0739336 C 650.24,4.0527014 641.189,0.14597156 636.48152,-7.958673 c -3.931,-6.770047 -9.02673,-13.418768 -10.21574,-21.305024 0.24266,-11.841516 3.51849,-23.367583 4.24645,-35.184834 -5.21706,-4.319242 -10.48266,-9.002464 -12.64228,-15.651185 -7.06123,-17.859336 -14.60777,-35.548814 -21.06237,-53.650804 -3.76113,-10.48266 -9.02673,-20.45574 -11.40474,-31.39943 -2.81478,-13.70996 -11.55033,-25.0419 -19.1454,-36.42237 -1.8927,5.41118 -3.66408,10.8709 -5.43545,16.33061 2.81479,7.37669 6.30901,14.65631 7.42521,22.54256 -0.33971,4.75602 -2.15962,9.24512 -3.49421,13.78275 6.11488,1.45593 12.27829,2.5964 18.46597,3.66408 3.39715,14.92322 4.02805,30.25896 6.01782,45.400566 0.67943,7.134029 1.8199,14.340854 1.04341,21.523413 -2.71773,2.038294 -5.70237,3.736872 -8.58995,5.532512 9.56057,50.93308 19.58218,101.744834 29.43393,152.605118 2.30521,12.448152 3.83393,25.357351 9.70616,36.762081 3.95526,7.91053 7.91052,15.79678 11.42901,23.92569 -16.18503,15.57839 -36.83489,24.84777 -57.77593,32.22446 2.42654,-8.71128 5.1928,-17.3255 8.03185,-25.89119 -8.39583,-0.89782 -16.79166,-1.91697 -25.13896,-3.27583 -4.53763,14.00114 -7.23109,28.48759 -10.07014,42.90123 -2.62066,11.50181 4.58616,23.19773 -0.97061,34.31128 4.65895,8.00759 9.56056,15.84531 14.5835,23.65877 1.67431,0.21839 5.07147,0.67943 6.77005,0.92209 1.45592,4.68322 2.91185,9.34218 4.36777,14.04967 -12.93346,-0.0243 -25.89118,0.38824 -38.80038,-0.50958 -6.26047,-3.30009 -13.34597,-4.19791 -20.04322,-6.13914 -3.13024,-5.53252 0.16986,-12.22977 0.87355,-18.102 3.2273,-10.31279 -2.40227,-21.23222 1.91697,-31.3509 8.08038,-19.94616 8.68702,-43.43507 -0.60663,-63.06578 -5.48398,-0.33971 -10.9437,-0.72796 -16.42768,-1.16474 0.46104,-27.46843 -0.12133,-54.9854 -3.03318,-82.308244 -3.10597,26.983128 -3.56701,54.257444 -5.84796,81.313364 -2.91185,1.23754 -5.99355,2.06256 -9.00246,3.03318 -8.12891,19.63071 -7.47375,42.48872 0.0971,62.19222 3.8582,9.58484 -0.94635,19.8491 1.40739,29.65233 1.50446,6.96417 2.15962,14.0982 1.67431,21.23222 -10.19146,1.57726 -20.11601,5.02294 -30.50161,5.28986 -9.48777,0.26692 -18.95128,-0.12133 -28.43905,-0.12133 1.3346,-4.29497 2.6692,-8.56568 4.05232,-12.83639 11.6474,-4.17365 15.38427,-16.88872 21.93593,-26.13384 -1.43166,-3.68834 -2.86332,-7.32815 -4.24645,-10.99223 2.18389,-6.28474 4.75602,-12.8364 3.34863,-19.63071 -2.81479,-15.94237 -6.50313,-31.71488 -10.96796,-47.26901 -7.88626,1.50446 -15.77252,3.10598 -23.63451,4.70749 2.76626,8.49289 5.48398,17.03432 7.61934,25.72133 -18.78142,-6.43033 -37.1746,-14.60777 -52.89858,-26.91033 -1.9655,-1.86844 -5.84796,-4.31924 -3.7854,-7.49801 4.95014,-13.34597 14.21952,-24.94484 16.549,-39.285689 11.45327,-61.585592 23.82863,-123.001327 35.67015,-184.514123 2.23241,-14.437915 13.90407,-26.522088 12.0599,-41.590898 -1.11621,-11.28341 1.21327,-22.68815 -0.97062,-33.89877 1.98977,-7.98332 5.72664,-15.62692 6.13915,-23.90142 -0.82502,-5.04721 -3.03317,-9.73043 -4.87734,-14.43792 -6.11489,9.14806 -12.52095,18.29612 -16.7674,28.51185 -2.88758,8.08038 -4.27071,16.6218 -7.59507,24.55659 -9.6091,22.88227 -17.42256,46.468246 -27.25005,69.253459 -2.54786,6.575924 -8.44436,10.798104 -12.18123,16.57327 2.08683,10.288531 4.44057,20.577062 4.00379,31.181043 -1.31033,0.461043 -3.90673,1.383128 -5.21706,1.844171 -0.53384,5.16853 -0.67943,10.409857 -1.84417,15.505592 -3.05744,1.8927014 -6.35753,3.3243602 -9.6091,4.8530805 0.0485,4.0523223 0.0971,8.0803792 0.12133,12.1569669 C 351.96967,3.7372512 348.96076,2.16 345.97611,0.58274882 c -1.48019,0.0727962 -4.4163,0.19412322 -5.89649,0.26691943 C 333.81915,-8.8322275 326.4182,-18.150142 323.2637,-29.433555 c -1.38313,-11.380473 3.88246,-22.396966 2.93611,-33.77744 -4.51336,-5.969289 -10.33706,-11.13782 -12.78787,-18.441706 -10.0944,-25.794119 -20.81971,-51.394119 -30.16189,-77.455169 -2.45081,-15.82104 -11.35621,-29.36113 -20.77119,-41.90635 -1.35886,5.36266 -2.71772,10.72531 -4.07659,16.11223 2.13536,5.77517 4.44057,11.5018 5.92076,17.51962 1.81991,6.06635 -0.92208,12.1327 -1.40739,18.19905 5.6781,1.69858 11.76872,1.9655 17.17991,4.51337 2.40227,3.90673 2.30521,8.68701 2.98464,13.10331 1.38313,18.15053 3.97953,36.203986 5.02294,54.378773 -3.2273,1.310331 -6.47886,2.620663 -9.70616,3.930995 11.33194,55.543507 21.57194,111.353934 32.58843,166.970237 1.4074,14.826165 9.41498,27.492705 16.01517,40.426165 0.21839,2.59639 0.26692,5.24132 0.14559,7.86199 -15.23867,15.62692 -35.96133,24.31393 -56.41706,30.81706 2.25668,-8.68702 4.87735,-17.2527 8.32303,-25.52721 -8.32303,-0.58237 -16.64606,-1.35886 -24.77497,-3.1545 -5.07147,14.65631 -6.96417,30.0891 -10.19147,45.20645 -2.28095,7.25535 2.47507,14.0254 2.62066,21.20796 -0.77649,3.46995 -2.28095,6.69725 -3.46995,10.02161 4.80455,7.7892 9.6091,15.60266 14.53497,23.34332 1.74711,0.33971 5.2656,0.99488 7.01271,1.3346 1.55298,4.68322 3.0817,9.36644 4.56189,14.07393 -13.73422,0.16986 -27.44417,0.0728 -41.17839,0.0728 -0.92208,-0.94636 -2.76625,-2.86332 -3.7126,-3.80967 -4.87735,-0.1456 -9.7547,-0.24266 -14.63204,-0.31545 -4.44057,-12.64228 4.80455,-24.89631 0.65516,-37.41725 -2.47507,-7.49801 2.11109,-14.46218 4.12512,-21.45062 5.09574,-13.27318 2.93612,-27.75962 2.15962,-41.5909 -0.16985,-5.24133 -3.1545,-9.73043 -5.31412,-14.34085 -5.43545,-0.24266 -10.84663,-0.53384 -16.25782,-1.01915 -0.19412,-15.31147 0.26692,-30.62294 -0.41251,-45.910143 -0.50957,-11.987109 -1.14048,-23.974218 -1.77138,-35.961327 -1.40739,11.987109 -2.03829,24.047014 -2.74199,36.10692 -1.189,15.19014 -2.42654,30.38028 -2.32947,45.64322 -3.34863,0.41251 -6.67299,0.80076 -10.02162,1.18901 -5.89649,14.5835 -5.6781,30.45308 -4.63469,45.88587 1.57725,8.4201 5.41119,16.23356 7.30389,24.58086 0.26692,6.06635 -2.23242,11.93858 -1.79564,17.98066 1.91696,8.54142 4.90161,17.37403 2.01403,26.10957 -9.48778,0.53384 -18.44171,4.44057 -27.97801,4.39204 -10.43413,0.0728 -20.86825,-0.0971 -31.30237,-0.12133 1.45592,-4.63469 2.83905,-9.26938 4.31924,-13.87981 12.30256,-2.13535 14.53498,-16.549 21.54768,-24.8963 -1.23754,-3.32436 -2.69346,-6.55166 -3.63981,-9.97308 0.24265,-6.4546 4.27071,-12.39962 3.13023,-18.95128 -2.62066,-16.57327 -6.79431,-32.80682 -11.13782,-49.01611 -7.52227,1.91696 -15.06881,3.66407 -22.73668,4.9744 2.81479,8.20171 5.62957,16.42768 7.69213,24.87204 C 98.735924,167.45592 78.304455,156.09972 61.415735,141.34635 68.04019,125.52531 79.008152,111.20872 80.561137,93.616303 91.383507,35.549194 103.0309,-22.348057 114.19299,-80.34237 c 2.18388,-13.709952 8.66274,-26.08531 13.9526,-38.75185 -3.44568,-13.80701 1.38313,-28.00227 -2.08682,-41.68796 2.15962,-7.7164 5.82369,-15.16588 6.33327,-23.24626 -0.60664,-5.09573 -2.86332,-9.80322 -4.61043,-14.55924 -5.79943,9.14806 -12.03564,18.17479 -16.11223,28.2692 -2.71772,8.05611 -4.29497,16.52474 -7.6436,24.38673 -10.239998,24.09554 -18.101989,49.113172 -28.948624,72.941797 -2.74199,6.648721 -9.65763,9.851754 -15.117346,13.855545 0.09706,7.473744 -0.485308,14.923223 -0.339715,22.396967 0.242654,8.638484 3.591279,17.082844 2.499336,25.769858 -6.745782,6.8913745 -11.162085,-2.280948 -12.812132,-8.056114 -1.16474,1.892702 -2.329479,3.809669 -3.494218,5.726635 3.63981,5.7751663 6.478862,12.0356402 7.983317,18.7328914 C 50.083791,4.0527014 46.371185,2.6210427 42.779905,0.99526066 29.894976,-3.9791469 25.430142,-18.00455 19.485118,-29.14237 19.873365,-43.070711 21.135166,-57.411564 25.6,-70.684739 c -2.378009,-4.877346 -3.833934,-10.118673 -5.168531,-15.36 5.799431,-11.550332 12.739337,-22.760951 15.723981,-35.451751 0.776493,-5.07147 4.17365,-8.92967 6.842844,-13.05479 5.70237,-8.61422 7.134028,-19.16967 12.569479,-27.95374 17.835071,-36.27678 36.446635,-72.18958 53.917727,-108.66048 5.02294,-8.92967 15.96663,-11.76872 24.02275,-17.30123 13.68568,-8.80834 30.79279,-13.66142 40.71734,-27.29858 2.5236,-11.74445 -6.96417,-21.01384 -7.98332,-32.34578 1.89271,-1.48019 3.80967,-2.93611 5.72664,-4.39204 -1.09194,-4.75602 -2.20815,-9.48777 -3.30009,-14.19526 z"
     id="path8"
     style="fill:#f5e5c1" />
  <path
     d="m 42.415924,-242.67791 c -0.946351,-11.98711 5.920758,-25.30882 18.296114,-27.97801 16.233554,-1.28607 32.539905,-0.16986 48.773462,-0.50958 -17.471092,36.4709 -36.082656,72.3837 -53.917727,108.66048 -5.435451,8.78407 -6.867109,19.33952 -12.569479,27.95374 -1.237536,-36.00986 -0.169858,-72.09251 -0.58237,-108.12663 z"
     id="path10"
     style="fill:#f4722b" />
  <path
     d="m 886.97327,-271.14123 c 22.27564,0.0728 44.55128,-0.29119 66.82692,0.12132 7.35242,-0.14559 13.75848,4.82882 17.68948,10.70105 4.07659,5.84796 3.00891,13.34597 3.34862,20.06749 -0.31545,50.37497 0.31545,100.74995 -0.31545,151.124925 -6.96417,-9.900285 -11.01649,-21.377825 -14.80189,-32.758295 -2.79052,-8.83261 -9.92455,-15.50559 -12.42389,-24.45953 -3.95526,-14.34085 -11.96284,-27.00739 -18.27185,-40.35336 -14.63203,-27.83242 -28.31772,-56.17441 -42.05194,-84.4436 z"
     id="path12"
     style="fill:#f4722b" />
  <path
     d="m 262.47886,-201.01422 c 9.41498,12.54522 18.32038,26.08531 20.77119,41.90635 9.34218,26.06105 20.06749,51.66105 30.16189,77.455169 2.45081,7.303886 8.27451,12.472417 12.78787,18.441706 0.94635,11.380474 -4.31924,22.396967 -2.93611,33.77744 3.1545,11.283413 10.55545,20.6013275 16.81592,30.28322325 1.48019,-0.0727962 4.4163,-0.19412323 5.89649,-0.26691943 2.98465,1.57725118 5.99356,3.15450238 9.00247,4.73175358 -0.0243,-4.0765877 -0.0728,-8.1046446 -0.12133,-12.1569669 3.25157,-1.5287203 6.55166,-2.9603791 9.6091,-4.8530805 1.16474,-5.095735 1.31033,-10.337062 1.84417,-15.505592 1.31033,-0.461043 3.90673,-1.383128 5.21706,-1.844171 0.43678,-10.603981 -1.91696,-20.892512 -4.00379,-31.181043 3.73687,-5.775166 9.63337,-9.997346 12.18123,-16.57327 9.82749,-22.785213 17.64095,-46.371189 27.25005,-69.253459 3.32436,-7.93479 4.70749,-16.47621 7.59507,-24.55659 4.24645,-10.21573 10.65251,-19.36379 16.7674,-28.51185 1.84417,4.70749 4.05232,9.39071 4.87734,14.43792 -0.41251,8.2745 -4.14938,15.9181 -6.13915,23.90142 2.18389,11.21062 -0.14559,22.61536 0.97062,33.89877 1.84417,15.06881 -9.82749,27.152983 -12.0599,41.590898 -11.84152,61.512796 -24.21688,122.928531 -35.67015,184.514123 -2.32948,14.340849 -11.59886,25.939719 -16.549,39.285689 -2.06256,3.17877 1.8199,5.62957 3.7854,7.49801 15.72398,12.30256 34.11716,20.48 52.89858,26.91033 -2.13536,-8.68701 -4.85308,-17.22844 -7.61934,-25.72133 7.86199,-1.60151 15.74825,-3.20303 23.63451,-4.70749 4.46483,15.55413 8.15317,31.32664 10.96796,47.26901 1.40739,6.79431 -1.16474,13.34597 -3.34863,19.63071 1.38313,3.66408 2.81479,7.30389 4.24645,10.99223 -6.55166,9.24512 -10.28853,21.96019 -21.93593,26.13384 -1.38312,4.27071 -2.71772,8.54142 -4.05232,12.83639 9.48777,0 18.95128,0.38825 28.43905,0.12133 10.3856,-0.26692 20.31015,-3.7126 30.50161,-5.28986 0.48531,-7.13402 -0.16985,-14.26805 -1.67431,-21.23222 -2.35374,-9.80323 2.45081,-20.06749 -1.40739,-29.65233 -7.57081,-19.7035 -8.22597,-42.56151 -0.0971,-62.19222 3.00891,-0.97062 6.09061,-1.79564 9.00246,-3.03318 2.28095,-27.05592 2.74199,-54.330236 5.84796,-81.313364 2.91185,27.322844 3.49422,54.839814 3.03318,82.308244 5.48398,0.43678 10.9437,0.82503 16.42768,1.16474 9.29365,19.63071 8.68701,43.11962 0.60663,63.06578 -4.31924,10.11868 1.31033,21.03811 -1.91697,31.3509 -0.70369,5.87223 -4.00379,12.56948 -0.87355,18.102 6.69725,1.94123 13.78275,2.83905 20.04322,6.13914 12.9092,0.89782 25.86692,0.48531 38.80038,0.50958 -1.45592,-4.70749 -2.91185,-9.36645 -4.36777,-14.04967 -1.69858,-0.24266 -5.09574,-0.7037 -6.77005,-0.92209 -5.02294,-7.81346 -9.92455,-15.65118 -14.5835,-23.65877 5.55677,-11.11355 -1.65005,-22.80947 0.97061,-34.31128 2.83905,-14.41364 5.53251,-28.90009 10.07014,-42.90123 8.3473,1.35886 16.74313,2.37801 25.13896,3.27583 -2.83905,8.56569 -5.60531,17.17991 -8.03185,25.89119 20.94104,-7.37669 41.5909,-16.64607 57.77593,-32.22446 -3.51849,-8.12891 -7.47375,-16.01516 -11.42901,-23.92569 -5.87223,-11.40473 -7.40095,-24.313929 -9.70616,-36.762081 -9.85175,-50.860284 -19.87336,-101.672038 -29.43393,-152.605118 2.88758,-1.79564 5.87222,-3.494218 8.58995,-5.532512 0.77649,-7.182559 -0.36398,-14.389384 -1.04341,-21.523413 -1.98977,-15.141606 -2.62067,-30.477346 -6.01782,-45.400566 -6.18768,-1.06768 -12.35109,-2.20815 -18.46597,-3.66408 1.33459,-4.53763 3.1545,-9.02673 3.49421,-13.78275 -1.1162,-7.88625 -4.61042,-15.16587 -7.42521,-22.54256 1.77137,-5.45971 3.54275,-10.91943 5.43545,-16.33061 7.59507,11.38047 16.33062,22.71241 19.1454,36.42237 2.37801,10.94369 7.64361,20.91677 11.40474,31.39943 6.4546,18.10199 14.00114,35.791468 21.06237,53.650804 2.15962,6.648721 7.42522,11.331943 12.64228,15.651185 -0.72796,11.817251 -4.00379,23.343318 -4.24645,35.184834 1.18901,7.886256 6.28474,14.534977 10.21574,21.305024 4.70748,8.10464456 13.75848,12.0113744 22.13004,15.2629384 -0.24265,-4.8288152 -1.57725,-9.4877725 -2.93611,-14.0739336 3.83393,-0.2426541 7.69213,-0.3882465 11.52607,-0.9706162 2.30521,-8.4443606 -0.46105,-18.5387676 7.47374,-24.7507106 -0.31545,-2.863318 -0.6309,-5.726635 -0.94635,-8.589953 -2.30521,-5.508246 -3.42142,-11.429005 -4.44057,-17.276967 3.63981,-3.105971 7.27962,-6.211943 10.96796,-9.269384 11.62313,-28.244928 22.59109,-56.756781 33.19507,-85.365691 2.88759,-16.30635 11.91432,-30.30748 21.08664,-43.72625 2.18389,6.04208 6.21194,12.22976 4.51336,18.90275 -1.48019,6.57592 -3.85819,12.90919 -5.65383,19.41232 1.86843,13.80701 0.16985,27.80815 0.99488,41.68796 -2.86332,12.22976 -10.3856,22.930807 -12.47242,35.451755 -11.40474,60.129668 -23.75583,120.089479 -34.74806,180.291943 -1.94123,13.928342 -9.85175,25.745592 -15.69971,38.218012 -0.84929,2.66919 -3.49422,6.72151 -0.26692,8.85687 6.50313,5.92076 14.26805,10.21573 21.71753,14.82616 -0.19412,62.72607 -0.0243,125.4764 -0.0728,188.22673 0.14559,7.47374 -1.55299,15.48133 -7.1583,20.84398 -5.92075,6.33327 -15.04455,7.47375 -23.27052,7.37668 -101.86616,-0.0485 -203.75659,-0.0485 -305.62275,0 -8.2745,0.0971 -17.44682,-1.04341 -23.39184,-7.44947 -5.62958,-5.28986 -7.13403,-13.27318 -7.01271,-20.67413 0.0728,-63.9636 0.0485,-127.9272 0.0243,-191.86654 0.0971,-5.14426 0.48531,-10.26426 0.72796,-15.38426 0.12133,-2.62067 0.0728,-5.2656 -0.14559,-7.86199 -0.94635,-13.58863 -0.46104,-27.20152 -0.72796,-40.790146 -5.09574,0.121327 -10.19147,0.218389 -15.28721,0.363981 -11.01649,-55.616303 -21.25649,-111.42673 -32.58843,-166.970237 3.2273,-1.310332 6.47886,-2.620664 9.70616,-3.930995 -1.04341,-18.174787 -3.63981,-36.228243 -5.02294,-54.378773 -0.67943,-4.4163 -0.58237,-9.19658 -2.98464,-13.10331 -5.41119,-2.54787 -11.50181,-2.81479 -17.17991,-4.51337 0.48531,-6.06635 3.2273,-12.1327 1.40739,-18.19905 -1.48019,-6.01782 -3.7854,-11.74445 -5.92076,-17.51962 1.35887,-5.38692 2.71773,-10.74957 4.07659,-16.11223 z"
     id="path14"
     style="fill:#f4722b" />
  <path
     d="m 127.78161,-198.58768 c 1.74711,4.75602 4.00379,9.46351 4.61043,14.55924 -0.50958,8.08038 -4.17365,15.52986 -6.33327,23.24626 3.46995,13.68569 -1.35886,27.88095 2.08682,41.68796 -5.28986,12.66654 -11.76872,25.041898 -13.9526,38.75185 C 103.0309,-22.348057 91.383507,35.549194 80.561137,93.616303 73.427109,93.470711 66.220284,94.053081 59.183318,92.767014 48.77346,89.418389 42.246066,78.523223 42.48872,67.82218 c 0,-22.27564 -0.31545,-44.575545 0.291185,-66.82691934 3.59128,1.62578204 7.303886,3.05744074 11.016493,4.44056874 -1.504455,-6.6972512 -4.343507,-12.9577251 -7.983317,-18.7328914 1.164739,-1.916966 2.329478,-3.833933 3.494218,-5.726635 1.650047,5.775166 6.06635,14.9474885 12.812132,8.056114 1.091943,-8.687014 -2.256682,-17.131374 -2.499336,-25.769858 -0.145593,-7.473744 0.436777,-14.923223 0.339715,-22.396967 5.459716,-4.003791 12.375356,-7.206824 15.117346,-13.855545 10.846635,-23.828625 18.708626,-48.846257 28.948624,-72.941797 3.34863,-7.86199 4.92588,-16.33062 7.6436,-24.38673 4.07659,-10.09441 10.3128,-19.12114 16.11223,-28.2692 z"
     id="path16"
     style="fill:#f4722b" />
  <path
     d="m 865.08588,-185.89687 c 0.58237,-4.4891 2.4508,-8.66275 4.61042,-12.56948 9.65763,12.22976 17.73801,26.08531 20.57706,41.61517 10.26427,27.20151 20.69839,54.40303 31.86048,81.264829 2.37801,7.595071 9.68189,11.307678 15.94237,15.214408 -1.06768,7.886256 0.41251,15.772512 0.36398,23.658768 -0.7037,8.12891 -2.5964,16.112227 -3.68834,24.192606 1.8927,1.116209 5.62957,3.3486259 7.52227,4.4648344 0.87356,-3.0817064 1.72285,-6.1391474 2.57214,-9.2208534 2.71772,0.09706 5.45971,0.194124 8.2017,0.315451 -3.49422,6.697251 -6.52739,13.6614214 -8.42009,21.0138384 6.77004,-2.9118483 13.92834,-5.8722275 18.87848,-11.5503317 4.31924,-5.6538387 7.0127,-12.3510897 11.13782,-18.1262557 0.21839,31.9332699 0.21839,63.890805 0.0485,95.824076 0.75223,10.215734 -6.74578,19.800568 -16.30635,22.688151 -13.87981,1.504455 -27.90521,0.218389 -41.85782,0.679432 -10.36133,-54.621422 -21.20796,-109.145782 -31.54502,-163.79147 2.88758,-1.868436 5.89649,-3.615545 8.63848,-5.7509 0.77649,-7.206825 -0.41251,-14.413649 -1.09194,-21.571943 -1.98977,-15.11735 -2.5964,-30.42882 -6.01782,-45.30351 -6.18768,-1.06768 -12.32683,-2.18388 -18.44171,-3.56701 0.58237,-1.86844 1.69858,-5.55678 2.28095,-7.42521 4.24644,-11.08929 -6.09062,-20.98958 -5.26559,-32.0546 z"
     id="path18"
     style="fill:#f4722b" />
  <path
     d="m 952.29573,-36.810237 c 2.76626,1.116209 5.53252,2.232417 8.3473,3.348626 -0.99488,3.421421 -1.98976,6.818578 -2.98464,10.24 -3.44569,0.533838 -6.86711,1.091943 -10.28853,1.625782 1.74711,-5.022939 3.34862,-10.118673 4.92587,-15.214408 z"
     id="path20"
     style="fill:#f4722b" />
  <path
     d="m 37.926825,-30.064455 c 1.625782,-1.965498 3.275829,-3.930995 4.925876,-5.872227 -0.145592,4.416303 -0.242654,8.881137 -0.266919,13.321706 -1.552986,-2.499337 -3.105972,-4.998673 -4.658957,-7.449479 z"
     id="path22"
     style="fill:#3e3e3e" />
  <path
     d="m 42.852701,-35.936682 c 4.222181,4.003791 4.707489,9.803222 5.483981,15.214407 -1.431658,-0.461043 -4.319241,-1.431659 -5.7509,-1.892701 0.02426,-4.440569 0.121327,-8.905403 0.266919,-13.321706 z"
     id="path24"
     style="fill:#f4722b" />
  <path
     d="m 190.26502,93.6891 c 0.7037,-12.059906 1.3346,-24.119811 2.74199,-36.10692 0.6309,11.987109 1.26181,23.974218 1.77138,35.961327 l -4.51337,0.145593 z"
     id="path26"
     style="fill:#f4722b" />
  <path
     d="m 796.51185,93.592038 c 0.75223,-11.429005 1.09194,-22.90654 2.69346,-34.238483 1.43166,11.356208 1.94123,22.809478 2.54787,34.238483 -1.31034,0 -3.931,0 -5.24133,0 z"
     id="path28"
     style="fill:#f4722b" />
</svg>
