<?xml version="1.0" encoding="UTF-8" ?>
<!DOCTYPE svg PUBLIC "-//W3C//DTD SVG 1.1//EN" "http://www.w3.org/Graphics/SVG/1.1/DTD/svg11.dtd">
<svg width="422pt" height="422pt" viewBox="0 0 422 422" version="1.1" xmlns="http://www.w3.org/2000/svg">
<path fill="#3e3e3e" opacity="1.00" d=" M 0.00 0.00 L 422.00 0.00 L 422.00 422.00 L 0.00 422.00 L 0.00 0.00 Z" />
<path fill="#f5e5c1" opacity="1.00" d=" M 233.85 85.54 C 245.19 83.85 258.25 83.61 267.51 91.48 C 272.00 96.03 274.58 102.57 274.44 108.97 C 274.83 118.54 271.21 127.61 269.91 136.98 C 269.29 141.69 267.80 146.21 266.14 150.64 C 264.03 149.99 261.88 149.50 259.70 149.15 C 259.36 151.41 258.74 153.62 257.86 155.73 C 249.56 177.84 241.65 200.10 233.29 222.19 C 235.31 224.23 238.03 225.18 240.75 225.87 C 239.80 229.24 238.15 234.58 233.98 234.38 C 229.74 231.49 226.30 227.60 222.04 224.74 C 231.64 198.62 241.36 172.52 251.41 146.57 C 254.69 136.95 258.89 127.33 258.84 116.98 C 258.75 112.50 259.58 107.34 256.35 103.70 C 253.51 99.29 247.55 99.25 242.88 99.40 C 233.68 100.54 224.66 102.89 215.85 105.73 C 215.53 105.70 214.87 105.65 214.55 105.62 C 213.27 100.82 211.49 95.94 207.62 92.59 C 215.85 88.67 224.79 86.41 233.85 85.54 Z" />
<path fill="#f5e5c1" opacity="1.00" d=" M 169.06 105.76 C 179.14 100.12 189.39 94.78 199.23 88.73 C 205.74 90.37 208.95 96.83 210.98 102.65 C 211.76 105.44 211.76 108.38 212.01 111.25 C 200.02 115.79 187.86 119.89 175.88 124.46 C 173.73 118.16 172.47 111.58 169.06 105.76 Z" />
<path fill="#f4722b" opacity="1.00" d=" M 138.31 104.55 C 139.76 100.20 143.07 95.91 147.97 95.51 C 151.62 96.08 154.29 98.92 155.86 102.09 C 162.15 112.17 162.67 124.49 162.59 136.03 C 162.78 139.01 161.19 141.62 160.21 144.32 C 157.18 146.33 152.95 146.23 150.10 143.93 C 146.46 141.23 143.03 137.98 141.00 133.87 C 136.95 124.75 135.40 114.22 138.31 104.55 Z" />
<path fill="#f4722b" opacity="1.00" d=" M 161.29 109.70 C 163.15 108.77 165.95 107.15 167.46 109.48 C 170.78 113.89 173.04 119.36 172.77 124.96 C 171.44 127.26 168.17 127.35 165.78 127.54 C 164.84 121.48 163.71 115.37 161.29 109.70 Z" />
<path fill="#f4722b" opacity="1.00" d=" M 90.74 114.05 C 92.92 114.28 95.34 114.38 97.00 116.04 C 104.29 122.88 109.11 132.05 111.70 141.63 C 114.22 148.69 114.42 156.80 111.11 163.64 C 106.24 163.75 102.00 161.06 98.43 158.03 C 101.74 150.89 100.84 142.17 95.85 136.03 C 93.74 132.52 89.66 131.37 86.32 129.42 C 87.38 124.18 89.00 119.09 90.74 114.05 Z" />
<path fill="#3e3e3e" opacity="1.00" d=" M 142.67 114.35 C 147.74 113.44 149.71 119.16 150.46 123.13 C 150.60 125.52 151.52 128.87 149.07 130.39 C 147.46 131.16 146.42 129.37 145.39 128.51 C 142.21 124.69 140.80 119.06 142.67 114.35 Z" />
<path fill="#f4722b" opacity="1.00" d=" M 80.13 135.57 C 83.22 134.12 86.72 132.34 90.20 133.57 C 94.55 136.20 96.46 141.29 97.80 145.95 C 98.61 148.39 97.88 150.90 97.42 153.31 C 95.08 155.15 92.69 157.19 89.62 157.58 C 89.98 150.88 88.64 143.35 83.22 138.83 C 82.21 137.74 80.45 137.15 80.13 135.57 Z" />
<path fill="#f5e5c1" opacity="1.00" d=" M 47.05 142.66 C 56.57 142.14 65.52 138.23 74.99 137.50 C 79.10 138.45 83.63 140.52 85.30 144.70 C 86.95 148.67 88.26 153.11 87.33 157.42 C 86.33 159.10 84.33 159.66 82.66 160.43 C 76.85 162.64 71.45 166.27 65.10 166.74 C 57.84 167.43 50.03 170.09 43.04 166.88 C 43.13 166.43 43.32 165.54 43.41 165.09 C 45.89 164.75 45.94 161.98 45.83 160.01 C 45.53 156.38 44.32 152.75 42.07 149.87 C 40.20 147.52 37.28 146.47 34.81 144.92 C 38.64 143.11 42.97 143.45 47.05 142.66 Z" />
<path fill="#f5e5c1" opacity="1.00" d=" M 6.10 163.02 C 13.80 155.88 23.93 152.24 33.94 149.69 C 36.30 148.83 38.01 151.01 39.57 152.38 C 42.21 154.92 42.41 158.85 42.46 162.28 C 37.45 164.76 31.48 164.58 26.79 167.83 C 22.85 170.70 18.53 173.47 16.00 177.77 C 12.13 183.60 10.55 191.16 12.69 197.93 C 13.35 205.66 17.69 212.46 23.15 217.75 C 34.71 229.23 47.10 239.83 59.04 250.90 C 71.18 262.16 85.24 272.23 101.57 276.17 C 103.68 276.77 106.21 276.41 107.94 277.99 C 110.98 280.49 112.11 284.42 113.18 288.05 C 113.70 290.59 114.22 294.00 111.64 295.63 C 106.62 296.45 101.59 295.31 96.65 294.51 C 98.35 291.05 99.07 286.88 97.70 283.20 C 97.07 281.09 94.73 280.66 92.96 279.96 C 82.39 276.44 72.46 271.11 63.60 264.39 C 53.46 255.49 43.56 246.33 33.61 237.23 C 30.77 238.40 28.44 240.43 25.76 241.90 C 20.48 236.25 14.65 231.06 10.26 224.64 C 8.54 221.93 5.54 219.53 5.99 215.99 C 6.08 198.34 5.86 180.67 6.10 163.02 Z" />
<path fill="#f4722b" opacity="1.00" d=" M 256.56 165.36 C 258.22 160.96 259.62 156.46 261.59 152.19 C 262.34 152.62 263.85 153.48 264.60 153.91 C 256.51 176.99 248.77 200.18 240.88 223.33 C 239.38 222.48 237.88 221.64 236.37 220.80 C 242.92 202.26 249.84 183.85 256.56 165.36 Z" />
<path fill="#f4722b" opacity="1.00" d=" M 330.55 188.37 C 348.32 182.90 368.20 183.82 385.13 191.69 C 395.86 196.73 405.57 205.20 409.71 216.57 C 413.94 227.54 410.90 240.49 403.13 249.13 C 401.66 247.60 400.34 245.95 399.22 244.15 C 400.50 243.26 403.19 243.18 402.70 241.01 C 402.69 234.17 402.89 227.31 402.49 220.48 C 393.25 213.45 384.36 205.96 375.29 198.72 C 371.50 195.44 366.25 193.92 361.38 195.53 C 348.83 199.06 336.45 203.17 323.97 206.95 C 320.18 208.13 316.33 209.16 312.67 210.72 C 312.71 217.16 312.50 223.59 312.44 230.03 C 323.63 240.31 335.01 250.36 346.03 260.82 C 350.81 260.16 355.25 258.09 360.00 257.29 C 361.66 256.76 362.88 258.14 364.04 259.06 C 367.12 261.79 370.57 264.12 373.29 267.24 C 355.21 271.75 335.30 270.16 318.80 261.20 C 309.11 255.95 300.59 247.66 297.10 237.00 C 293.99 227.98 295.70 217.77 300.75 209.78 C 307.37 199.06 318.74 192.10 330.55 188.37 Z" />
<path fill="#f4722b" opacity="1.00" d=" M 359.96 199.16 C 363.51 197.87 367.93 197.24 371.03 199.94 C 379.91 207.06 388.75 214.26 397.66 221.35 C 399.14 222.44 400.53 223.99 400.33 225.98 C 400.44 231.10 400.27 236.22 400.38 241.34 C 399.37 241.43 398.35 241.51 397.34 241.60 C 397.31 236.46 397.35 231.33 397.33 226.19 C 381.65 231.37 365.91 236.37 350.26 241.63 C 350.27 246.87 350.27 252.10 350.27 257.34 C 349.27 257.38 348.28 257.42 347.29 257.47 C 347.20 251.96 347.31 246.45 347.20 240.95 C 337.77 233.25 328.85 224.89 319.07 217.65 C 318.70 221.82 318.87 226.00 318.83 230.17 C 318.15 230.20 316.78 230.25 316.10 230.28 C 315.69 224.53 315.66 218.73 316.01 212.99 C 330.57 208.12 345.36 203.93 359.96 199.16 Z" />
<path fill="#f5e5c1" opacity="1.00" d=" M 153.91 224.77 C 165.32 220.59 176.13 214.65 188.05 211.97 C 191.85 211.13 196.87 210.98 199.24 214.68 C 202.38 220.24 206.43 225.26 209.14 231.06 C 213.55 229.97 217.55 227.52 222.14 227.14 C 226.83 231.63 231.69 235.97 235.88 240.96 C 230.40 249.68 225.18 258.57 219.96 267.45 C 222.35 271.98 224.55 276.60 226.91 281.15 C 226.62 287.45 226.81 293.77 226.78 300.08 C 226.10 300.21 225.43 300.34 224.77 300.48 C 225.51 295.89 224.48 291.26 224.94 286.65 C 222.26 285.34 219.77 287.40 217.37 288.37 C 206.95 293.48 195.93 297.20 185.44 302.16 C 185.41 308.46 185.27 314.77 185.41 321.08 C 184.16 321.00 182.94 320.71 181.75 320.35 C 181.72 314.45 181.70 308.56 181.82 302.66 C 176.13 297.44 169.94 292.76 164.02 287.80 C 157.66 287.58 151.35 288.58 145.00 288.76 C 137.59 288.83 130.22 289.64 122.82 289.89 C 122.86 294.92 123.08 299.94 123.30 304.97 C 122.46 304.94 120.79 304.89 119.95 304.87 C 118.34 299.33 119.20 293.47 118.12 287.88 C 114.98 282.29 111.38 276.96 107.58 271.81 C 112.28 269.35 117.74 269.15 122.60 267.11 C 119.27 261.92 115.79 256.82 112.11 251.87 C 110.83 250.50 111.24 248.53 111.12 246.84 C 124.69 238.22 139.35 231.52 153.91 224.77 Z" />
<path fill="#3e3e3e" opacity="1.00" d=" M 185.45 216.70 C 188.27 214.94 192.07 213.81 195.06 215.84 C 197.66 216.92 196.60 220.11 196.40 222.26 C 192.76 223.66 187.94 224.00 185.55 220.31 C 185.53 219.40 185.48 217.60 185.45 216.70 Z" />
<path fill="#f4722b" opacity="1.00" d=" M 168.06 236.16 C 169.82 235.37 171.84 234.71 173.77 235.33 C 177.33 237.69 179.53 241.58 183.00 244.06 C 187.60 244.66 191.55 241.09 196.02 240.48 C 198.98 241.33 200.46 244.44 202.58 246.45 C 204.12 248.49 207.70 250.69 205.44 253.49 C 202.03 255.96 197.60 256.40 194.18 258.89 C 196.63 262.33 200.33 264.65 202.75 268.08 C 202.74 270.12 201.75 272.15 199.70 272.81 C 194.23 275.19 189.34 280.09 183.04 279.67 C 178.74 276.98 176.48 271.73 171.99 269.44 C 167.05 270.82 162.51 273.45 157.82 275.52 C 152.58 274.15 149.98 268.89 146.52 265.20 C 146.79 264.53 147.33 263.20 147.60 262.53 C 152.04 260.12 156.72 258.12 160.83 255.17 C 158.56 250.75 153.55 247.75 153.09 242.51 C 158.06 240.35 163.12 238.40 168.06 236.16 Z" />
<path fill="#f5e5c1" opacity="1.00" d=" M 377.23 239.80 C 379.44 236.46 383.87 234.26 387.56 236.78 C 392.90 240.67 396.15 246.63 400.54 251.47 C 406.62 260.70 413.84 269.46 417.80 279.87 C 418.26 293.92 417.88 308.01 418.00 322.07 C 418.34 325.63 415.98 328.47 414.38 331.40 C 405.96 347.26 392.06 359.08 378.87 370.86 C 371.58 377.04 363.92 382.80 355.72 387.72 C 345.08 393.01 332.95 395.10 321.14 394.27 C 316.86 393.31 312.47 393.66 308.14 393.23 C 295.83 390.29 283.54 386.64 272.36 380.59 C 267.66 378.00 262.53 376.15 258.25 372.84 C 249.20 367.41 240.43 361.47 232.53 354.45 C 225.61 347.70 217.99 341.68 211.45 334.53 C 204.19 327.71 198.64 319.17 190.33 313.48 C 190.61 310.08 191.00 306.17 193.94 303.95 C 196.18 302.55 199.07 300.97 201.70 302.35 C 204.88 303.98 207.07 306.97 209.85 309.15 C 213.84 312.41 216.79 317.06 221.72 319.05 C 221.74 318.41 221.80 317.15 221.82 316.51 C 216.24 311.40 211.28 305.65 206.10 300.14 C 208.35 297.93 210.31 294.08 214.03 294.77 C 218.71 295.13 219.89 300.42 222.48 303.46 C 227.82 310.41 233.25 317.32 238.99 323.94 C 247.56 333.08 256.62 341.80 266.34 349.71 C 275.31 355.63 284.70 360.93 294.14 366.07 C 301.01 369.71 308.60 371.68 316.15 373.32 C 322.42 373.87 328.82 373.97 335.01 372.63 C 341.57 371.75 347.39 368.41 353.15 365.37 C 361.67 360.09 370.14 354.24 376.09 346.02 C 378.91 341.93 382.25 338.16 384.41 333.65 C 389.25 323.86 393.32 313.03 392.14 301.94 C 391.15 296.18 391.15 289.98 387.95 284.87 C 385.25 278.72 381.83 272.80 377.10 267.98 C 373.32 263.40 369.22 259.04 364.43 255.51 C 362.17 253.34 359.14 250.37 360.82 246.96 C 361.90 243.83 364.93 242.23 367.97 241.54 C 371.30 243.22 374.43 245.34 377.06 248.01 C 383.82 254.90 390.62 261.87 396.15 269.81 C 398.89 275.86 402.02 281.74 404.27 288.00 C 405.72 292.21 405.25 296.67 405.84 301.01 C 407.81 307.99 404.45 315.05 405.58 322.13 C 406.57 319.81 407.37 317.42 408.20 315.04 C 411.63 301.69 409.15 287.28 402.93 275.13 C 396.76 262.95 387.93 252.28 377.37 243.63 C 377.32 242.35 377.28 241.07 377.23 239.80 Z" />
<path fill="#f4722b" opacity="1.00" d=" M 28.25 245.90 C 29.81 243.48 31.44 240.72 34.48 240.04 C 41.62 248.36 50.16 255.29 58.36 262.53 C 62.39 266.64 67.23 269.79 71.94 273.05 C 78.89 277.78 87.08 279.99 94.69 283.37 C 94.69 285.86 94.59 288.34 94.42 290.82 C 89.06 291.60 84.68 287.95 79.99 286.05 C 59.69 277.06 44.77 260.12 28.25 245.90 Z" />
<path fill="#f4722b" opacity="1.00" d=" M 405.31 251.96 C 407.33 248.02 409.49 244.15 411.17 240.04 C 412.24 245.85 410.98 251.68 409.29 257.23 C 407.27 256.14 406.03 254.07 405.31 251.96 Z" />
<path fill="#f4722b" opacity="1.00" d=" M 295.68 241.83 C 297.70 242.29 297.89 244.59 298.77 246.10 C 304.05 257.46 314.88 265.29 326.31 269.74 C 341.89 275.76 359.47 276.30 375.47 271.58 C 376.50 271.21 378.11 271.10 378.55 272.41 C 380.22 275.47 381.58 278.71 382.71 282.01 C 364.16 289.50 342.67 289.73 324.23 281.76 C 315.20 277.89 306.97 271.78 301.45 263.57 C 297.22 257.20 295.14 249.46 295.68 241.83 Z" />
<path fill="#3e3e3e" opacity="1.00" d=" M 118.23 246.96 C 119.96 245.70 121.56 243.78 123.89 243.78 C 126.96 243.34 130.76 245.85 130.50 249.18 C 128.91 253.11 122.83 254.18 119.95 251.07 C 118.82 250.00 118.70 248.36 118.23 246.96 Z" />
</svg>
