<?xml version="1.0" encoding="UTF-8" ?>
<!DOCTYPE svg PUBLIC "-//W3C//DTD SVG 1.1//EN" "http://www.w3.org/Graphics/SVG/1.1/DTD/svg11.dtd">
<svg width="422pt" height="422pt" viewBox="0 0 422 422" version="1.1" xmlns="http://www.w3.org/2000/svg">
<path fill="#3e3e3e" opacity="1.00" d=" M 0.00 0.00 L 422.00 0.00 L 422.00 422.00 L 0.00 422.00 L 0.00 0.00 Z" />
<path fill="#f5e5c1" opacity="1.00" d=" M 337.84 58.10 C 340.48 55.89 343.12 53.68 345.91 51.65 C 348.63 52.87 351.57 53.40 354.51 53.80 C 369.97 71.21 385.30 88.74 400.61 106.29 C 400.45 109.06 400.61 111.84 401.44 114.51 C 399.09 117.01 396.54 119.32 394.00 121.63 C 375.22 100.51 356.44 79.38 337.84 58.10 Z" />
<path fill="#f5e5c1" opacity="1.00" d=" M 64.28 58.23 C 66.99 54.65 71.98 54.85 75.75 52.97 C 77.85 54.65 80.11 56.16 81.99 58.11 C 83.06 59.81 81.97 61.53 80.75 62.74 C 63.03 82.37 45.68 102.33 27.93 121.92 C 25.39 119.77 22.92 117.55 20.56 115.20 C 21.61 112.78 21.99 110.16 21.80 107.53 C 35.73 90.91 50.19 74.73 64.28 58.23 Z" />
<path fill="#f5e5c1" opacity="1.00" d=" M 337.69 102.75 C 343.74 97.52 349.10 91.48 355.57 86.76 C 359.27 90.95 363.24 94.92 366.75 99.28 C 366.76 99.64 366.77 100.36 366.77 100.72 C 362.28 105.14 357.39 109.15 352.55 113.18 C 353.29 119.69 355.14 126.01 355.98 132.50 C 351.14 135.00 346.56 137.97 341.89 140.77 C 344.63 143.64 347.44 146.46 350.29 149.23 C 350.30 153.06 350.25 156.89 350.01 160.72 C 348.89 161.81 347.77 162.90 346.65 164.00 C 328.58 143.26 310.53 122.50 292.64 101.60 C 294.03 100.41 295.31 99.07 296.88 98.11 C 299.59 98.17 302.37 98.32 304.98 99.15 C 308.09 102.01 310.36 105.66 313.16 108.82 C 316.90 104.86 320.18 100.50 323.60 96.26 C 328.76 97.16 332.90 100.81 337.69 102.75 Z" />
<path fill="#f5e5c1" opacity="1.00" d=" M 65.56 88.03 C 68.24 88.83 70.03 91.07 72.06 92.85 C 75.96 96.41 79.89 99.94 83.79 103.51 C 88.20 101.39 92.55 99.16 96.98 97.08 C 100.70 101.27 104.11 105.75 108.00 109.79 C 110.96 106.54 113.58 103.00 116.39 99.62 C 119.16 99.53 121.94 99.16 124.71 99.38 C 126.75 100.14 127.81 102.19 128.67 104.06 C 110.95 124.08 93.33 144.19 75.64 164.25 C 74.28 163.31 72.93 162.35 71.59 161.38 C 72.02 157.62 71.62 153.60 73.12 150.05 C 75.19 147.42 77.85 145.33 80.10 142.87 C 75.77 138.91 70.05 136.89 65.70 132.98 C 66.56 126.51 68.18 120.16 69.25 113.71 C 64.38 109.32 58.41 106.17 54.11 101.18 C 57.98 96.84 61.75 92.42 65.56 88.03 Z" />
<path fill="#f5e5c1" opacity="1.00" d=" M 160.09 104.12 C 174.23 98.44 189.27 95.78 204.08 92.57 C 211.44 93.13 218.62 95.30 225.93 96.41 C 231.77 97.37 237.65 98.37 243.17 100.63 C 251.73 104.02 260.36 107.34 268.58 111.54 C 270.33 112.58 272.65 113.55 273.24 115.70 C 274.29 121.41 274.41 127.23 275.15 132.98 C 275.69 138.70 274.96 144.51 276.14 150.18 C 276.55 157.11 276.72 164.09 276.40 171.03 C 270.08 165.96 263.43 161.02 255.62 158.51 C 246.55 155.60 237.38 152.97 228.05 151.02 C 218.01 149.34 207.86 151.05 197.90 152.40 C 184.24 155.22 170.25 158.75 158.51 166.59 C 151.40 172.30 144.26 177.98 137.60 184.23 C 135.88 174.93 134.96 165.51 134.34 156.09 C 134.22 153.59 134.30 151.06 134.83 148.61 C 137.13 139.02 140.22 129.64 142.54 120.05 C 143.63 117.01 144.24 113.74 145.85 110.92 C 149.66 107.11 155.29 106.18 160.09 104.12 Z" />
<path fill="#f5e5c1" opacity="1.00" d=" M 286.64 134.15 C 291.80 129.88 296.78 125.41 301.69 120.85 C 311.09 131.53 320.34 142.35 329.56 153.20 C 322.86 159.28 316.03 165.20 309.29 171.22 C 306.26 173.89 303.83 177.48 299.84 178.81 C 298.60 172.80 297.32 166.81 295.89 160.84 C 296.93 159.28 298.04 157.73 299.50 156.52 C 304.48 152.20 309.37 147.79 314.32 143.43 C 312.00 140.80 309.73 138.13 307.46 135.47 C 302.82 139.70 298.37 144.22 293.08 147.63 C 291.07 143.08 288.91 138.58 286.64 134.15 Z" />
<path fill="#f5e5c1" opacity="1.00" d=" M 117.58 124.57 C 118.50 123.44 119.79 122.72 121.05 122.04 C 125.57 126.39 130.15 130.67 134.68 135.01 C 133.10 140.24 131.64 145.51 130.03 150.73 C 124.64 146.06 119.41 141.22 113.99 136.59 C 111.64 139.45 109.35 142.36 106.94 145.16 C 114.38 151.72 122.01 158.06 129.52 164.55 C 131.28 165.74 131.31 167.98 131.60 169.87 C 132.34 176.93 133.20 183.97 134.02 191.02 C 119.76 179.14 105.65 167.07 91.42 155.15 C 92.25 153.79 93.10 152.43 94.15 151.22 C 101.97 142.35 109.80 133.48 117.58 124.57 Z" />
<path fill="#f5e5c1" opacity="1.00" d=" M 284.88 154.91 C 281.40 147.56 281.12 139.26 281.29 131.28 C 283.65 139.18 289.31 145.79 290.66 154.03 C 293.23 167.05 296.57 179.90 298.95 192.95 C 299.19 200.98 299.30 209.02 299.22 217.05 C 299.04 221.10 300.81 224.96 300.17 229.03 C 298.71 232.48 299.18 236.38 298.15 239.97 C 296.90 247.90 293.44 255.20 290.38 262.55 C 289.62 264.21 288.73 266.07 286.98 266.86 C 283.32 267.66 278.45 267.63 276.68 263.61 C 275.27 259.63 275.02 254.76 277.04 250.94 C 282.50 242.37 281.56 231.54 279.88 221.99 C 279.67 218.08 279.10 214.21 278.42 210.37 C 281.36 210.32 284.30 210.51 287.24 210.36 C 289.18 204.75 287.00 198.56 289.61 193.17 C 290.59 193.58 292.55 194.40 293.53 194.82 C 293.14 189.14 292.49 183.46 291.06 177.94 C 289.07 170.24 288.31 162.18 284.88 154.91 Z" />
<path fill="#f5e5c1" opacity="1.00" d=" M 175.87 162.18 C 190.67 158.25 205.55 153.19 221.04 153.65 C 232.84 156.24 244.42 159.70 256.03 163.01 C 261.18 164.84 266.92 167.24 269.50 172.39 C 274.11 179.65 278.98 186.74 283.44 194.08 C 284.76 197.36 284.15 201.01 283.59 204.40 C 282.94 204.48 281.63 204.65 280.98 204.74 C 279.47 203.69 277.89 202.69 276.70 201.28 C 271.85 195.50 267.07 189.63 261.51 184.53 C 255.42 179.40 247.54 177.15 239.87 175.66 C 231.74 173.53 223.31 173.29 214.97 173.00 C 205.24 172.90 195.66 174.76 186.04 175.95 C 180.94 176.64 175.98 178.04 170.94 179.06 C 162.14 181.82 154.38 187.36 148.31 194.25 C 145.07 196.94 143.13 201.03 139.39 203.09 C 138.23 197.42 142.97 192.84 142.46 187.20 C 152.24 177.34 161.95 165.99 175.87 162.18 Z" />
<path fill="#f5e5c1" opacity="1.00" d=" M 177.75 189.77 C 192.94 185.08 209.06 182.49 224.92 184.68 C 235.41 184.66 245.59 188.89 253.56 195.56 C 257.51 200.20 263.96 204.14 263.85 210.96 C 263.88 217.22 265.81 223.39 269.51 228.45 C 275.09 233.88 274.66 243.83 269.46 249.36 C 267.39 250.90 264.74 251.34 262.47 252.51 C 257.80 254.92 252.25 255.03 247.77 257.85 C 245.30 260.92 244.86 265.06 243.41 268.64 C 240.56 270.71 237.79 273.53 234.00 273.44 C 232.90 274.72 231.87 276.05 230.92 277.44 C 227.73 277.90 224.13 277.33 221.44 279.46 C 217.28 282.75 211.21 283.13 206.56 280.68 C 203.90 279.23 200.72 279.52 198.33 281.35 C 194.36 284.22 191.25 278.90 187.96 277.29 C 185.76 275.59 183.71 277.85 182.03 279.09 C 176.61 274.21 176.98 266.16 174.03 259.93 C 166.99 252.83 155.75 251.37 149.41 243.38 C 145.91 237.52 148.57 230.50 150.53 224.58 C 153.16 218.04 153.54 210.91 153.53 203.95 C 153.16 201.45 156.02 200.77 157.60 199.60 C 164.19 196.09 170.42 191.64 177.75 189.77 Z" />
<path fill="#3e3e3e" opacity="1.00" d=" M 166.94 206.00 C 173.24 201.58 181.35 199.83 188.92 201.17 C 191.97 202.03 195.79 202.54 197.51 205.59 C 199.15 209.06 200.58 213.56 198.01 216.96 C 193.95 222.48 189.38 227.97 183.18 231.16 C 179.10 234.07 173.17 234.98 168.79 232.21 C 164.86 229.10 162.92 223.93 163.31 218.98 C 162.80 214.32 164.54 209.91 166.94 206.00 Z" />
<path fill="#3e3e3e" opacity="1.00" d=" M 219.79 203.75 C 228.67 202.02 238.58 199.33 247.05 203.94 C 251.28 205.98 253.13 210.67 253.55 215.08 C 254.05 220.40 254.60 226.52 250.98 230.94 C 248.48 234.29 243.99 235.77 239.95 234.84 C 231.25 233.18 222.23 229.40 217.12 221.82 C 214.81 218.63 215.69 214.48 216.36 210.90 C 216.77 208.21 218.13 205.84 219.79 203.75 Z" />
<path fill="#f5e5c1" opacity="1.00" d=" M 304.57 204.88 C 304.90 204.46 305.56 203.63 305.89 203.22 C 308.56 205.76 312.86 207.02 313.69 211.07 C 314.07 215.70 313.74 220.35 313.84 224.98 C 313.72 231.31 314.42 237.77 312.59 243.93 C 311.06 249.05 308.93 254.22 305.03 258.01 C 303.16 259.84 301.42 261.81 299.88 263.93 C 297.93 263.81 295.78 264.01 294.35 262.41 C 296.73 258.27 297.99 253.63 300.37 249.50 C 302.95 244.76 303.61 239.28 303.51 233.96 C 305.64 224.41 304.06 214.57 304.57 204.88 Z" />
<path fill="#3e3e3e" opacity="1.00" d=" M 199.39 241.45 C 202.39 237.80 205.13 233.96 207.90 230.15 C 212.66 234.14 216.69 238.92 221.66 242.70 C 221.48 246.12 220.80 249.73 218.42 252.36 C 216.91 254.05 214.52 254.17 212.43 254.47 C 213.09 252.25 213.49 249.96 213.61 247.64 C 212.01 247.58 210.40 247.54 208.80 247.52 C 207.78 249.50 206.81 251.51 205.87 253.54 C 202.24 253.42 198.51 251.55 196.94 248.15 C 196.09 245.62 198.00 243.36 199.39 241.45 Z" />
<path fill="#f5e5c1" opacity="1.00" d=" M 320.55 254.79 C 319.71 252.78 321.31 250.97 322.01 249.19 C 324.99 255.35 324.74 262.36 324.79 269.03 C 325.59 279.21 319.70 288.19 314.40 296.34 C 311.19 301.90 307.65 307.49 302.48 311.46 C 296.06 316.28 288.15 318.30 281.16 322.06 C 275.16 325.10 268.49 326.26 262.00 327.71 C 261.33 329.30 260.66 330.88 260.00 332.48 C 254.48 332.13 248.93 332.07 243.44 331.33 C 243.44 326.94 245.34 322.91 247.21 319.06 C 248.06 317.35 249.94 315.73 251.97 316.35 C 255.48 317.07 259.03 317.62 262.62 317.70 C 262.61 319.42 262.56 321.14 262.52 322.87 C 266.46 322.88 270.24 321.77 274.00 320.75 C 279.97 319.25 285.10 315.64 290.90 313.69 C 297.48 311.36 304.09 307.97 308.24 302.16 C 310.84 299.04 312.30 295.18 314.76 291.97 C 320.33 284.60 323.85 275.11 322.10 265.81 C 321.34 262.16 321.72 258.36 320.55 254.79 Z" />
<path fill="#f5e5c1" opacity="1.00" d=" M 148.61 257.03 C 153.93 260.95 160.22 264.57 162.96 270.90 C 164.69 276.46 164.73 282.37 164.71 288.14 C 173.46 292.40 176.72 303.33 186.09 306.57 C 197.84 311.18 210.78 309.10 223.07 310.25 C 229.01 311.00 235.17 309.92 240.59 307.43 C 245.74 303.09 248.55 296.73 252.03 291.10 C 254.66 287.16 252.78 282.35 252.65 278.03 C 254.09 275.24 254.51 271.94 256.62 269.51 C 259.81 265.37 264.59 262.89 269.54 261.51 C 269.56 268.06 270.02 274.91 267.56 281.13 C 266.55 285.63 263.37 289.10 260.93 292.87 C 252.42 306.06 243.72 319.12 235.03 332.20 C 232.03 336.22 230.94 342.00 225.82 344.07 C 216.76 345.55 207.50 344.60 198.48 343.31 C 191.55 340.30 188.30 332.94 183.47 327.60 C 179.38 323.25 176.28 318.12 172.35 313.64 C 165.24 304.77 157.60 296.33 150.54 287.42 C 146.89 282.86 145.81 276.72 146.54 271.03 C 146.83 266.29 148.82 261.82 148.61 257.03 Z" />
<path fill="#f5e5c1" opacity="1.00" d=" M 272.78 275.13 C 283.22 284.12 293.74 293.02 304.17 302.01 C 300.66 304.95 297.02 308.01 292.43 309.02 C 284.45 302.19 276.40 295.44 268.52 288.50 C 270.41 284.21 271.86 279.73 272.78 275.13 Z" />
<path fill="#f5e5c1" opacity="1.00" d=" M 232.05 277.82 C 234.28 277.79 237.91 276.04 238.89 279.03 C 240.51 282.04 240.13 285.51 239.42 288.72 C 237.45 288.86 235.70 288.11 234.21 286.87 C 233.27 283.91 232.45 280.91 232.05 277.82 Z" />
<path fill="#f5e5c1" opacity="1.00" d=" M 37.54 370.60 C 72.54 339.95 107.49 309.24 142.45 278.54 C 142.70 283.38 145.49 287.32 148.25 291.08 C 114.19 320.75 79.75 349.99 45.58 379.54 C 34.66 388.53 24.41 398.34 13.18 406.96 C 13.73 404.28 15.69 402.32 17.38 400.31 C 23.76 393.20 30.18 385.85 34.14 377.06 C 35.20 374.87 35.52 372.18 37.54 370.60 Z" />
<path fill="#f5e5c1" opacity="1.00" d=" M 179.17 290.93 C 180.09 287.31 181.04 282.40 185.03 281.06 C 185.56 281.56 186.63 282.55 187.16 283.05 C 187.19 283.61 187.24 284.72 187.27 285.27 C 189.25 285.27 191.24 285.31 193.23 285.39 C 195.49 287.79 195.99 290.94 195.90 294.13 C 193.69 295.73 191.48 297.33 189.03 298.57 C 187.51 296.76 186.42 294.66 186.12 292.29 C 185.08 293.01 184.04 293.74 183.01 294.48 C 181.12 294.26 178.60 293.36 179.17 290.93 Z" />
<path fill="#f5e5c1" opacity="1.00" d=" M 222.30 284.04 C 223.41 281.85 226.60 280.95 228.55 282.60 C 229.97 284.40 230.98 286.51 232.59 288.18 C 233.00 289.90 233.36 291.64 233.72 293.39 C 231.76 295.03 229.60 296.92 226.82 296.42 C 223.83 293.15 221.68 288.59 222.30 284.04 Z" />
<path fill="#f5e5c1" opacity="1.00" d=" M 196.59 289.92 C 198.15 287.55 199.61 285.07 201.75 283.15 C 205.98 284.43 207.12 289.03 207.73 292.87 C 208.65 295.56 208.42 298.60 206.93 301.05 C 203.88 303.00 199.35 302.85 196.81 300.15 C 196.08 296.79 196.35 293.31 196.59 289.92 Z" />
<path fill="#f5e5c1" opacity="1.00" d=" M 211.79 285.96 C 212.91 285.46 214.02 284.94 215.12 284.41 C 219.21 287.01 221.82 291.51 222.61 296.24 C 221.41 297.69 220.47 299.66 218.51 300.20 C 216.00 300.89 213.38 300.64 210.84 300.38 C 207.93 295.92 210.20 290.50 211.79 285.96 Z" />
<path fill="#f5e5c1" opacity="1.00" d=" M 301.66 317.02 C 305.23 314.46 308.64 311.66 311.63 308.43 C 317.67 313.35 323.41 318.63 329.41 323.60 C 347.67 340.37 366.76 356.24 385.28 372.73 C 388.26 376.72 389.17 381.90 392.14 385.94 C 396.80 392.43 401.78 398.70 406.72 404.99 C 404.45 403.75 402.19 402.45 400.20 400.78 C 367.47 372.73 334.46 344.99 301.66 317.02 Z" />
</svg>
