<?xml version="1.0" encoding="UTF-8" ?>
<!DOCTYPE svg PUBLIC "-//W3C//DTD SVG 1.1//EN" "http://www.w3.org/Graphics/SVG/1.1/DTD/svg11.dtd">
<svg width="422pt" height="422pt" viewBox="0 0 422 422" version="1.1" xmlns="http://www.w3.org/2000/svg">
<path fill="#3e3e3e" opacity="1.00" d=" M 0.00 0.00 L 422.00 0.00 L 422.00 422.00 L 0.00 422.00 L 0.00 0.00 Z" />
<path fill="#f5e5c1" opacity="1.00" d=" M 210.10 23.16 C 219.00 21.71 228.04 22.54 237.01 22.25 C 242.81 21.80 248.03 24.67 253.43 26.28 C 258.82 28.31 264.67 29.29 269.60 32.40 C 275.23 35.78 280.90 39.09 286.62 42.31 C 287.87 43.08 289.35 43.75 289.91 45.22 C 297.48 61.13 305.57 76.80 313.49 92.54 C 316.14 97.98 325.13 99.16 324.62 106.17 C 321.09 106.51 317.56 106.91 314.07 107.56 C 311.92 112.84 308.36 119.66 301.73 119.42 C 301.64 118.96 301.46 118.06 301.37 117.61 C 305.54 114.13 308.58 109.22 308.63 103.65 C 311.29 103.04 313.97 102.61 316.69 102.41 C 313.58 100.16 310.07 98.11 308.03 94.75 C 300.35 79.41 293.78 63.51 285.62 48.42 C 281.16 44.71 275.57 42.55 270.67 39.45 C 263.94 35.18 256.07 33.52 248.60 31.03 C 244.82 29.92 241.10 28.11 237.07 28.31 C 230.42 28.53 223.74 28.19 217.12 28.89 C 210.32 30.02 203.38 30.63 196.77 32.65 C 190.18 34.99 183.77 37.82 177.22 40.28 C 177.34 42.87 177.51 45.45 177.67 48.04 C 171.39 53.03 165.09 58.00 158.57 62.66 C 156.66 66.13 156.14 70.20 154.84 73.92 C 151.75 84.49 148.58 95.04 145.49 105.61 C 147.28 104.78 149.04 103.84 150.93 103.24 C 154.83 103.17 158.59 105.11 162.51 104.53 C 165.06 103.19 167.13 101.13 169.27 99.25 C 170.66 94.65 172.07 90.06 172.79 85.30 C 167.98 85.07 163.18 85.74 158.67 87.46 C 158.54 86.89 158.42 86.32 158.30 85.75 C 164.76 82.47 172.09 83.39 179.06 83.23 C 184.21 83.69 188.89 86.22 193.84 87.57 C 192.52 85.80 191.43 83.61 189.21 82.84 C 185.05 81.22 180.78 79.65 176.32 79.15 C 176.45 77.91 176.59 76.67 176.73 75.43 C 171.63 74.88 166.57 75.60 161.61 76.71 C 161.61 76.19 161.60 75.15 161.59 74.64 C 165.63 73.51 169.84 72.61 174.06 73.05 C 179.40 73.59 184.75 73.02 190.08 72.65 C 190.85 72.92 192.37 73.47 193.14 73.74 C 193.66 72.72 194.19 71.70 194.72 70.68 C 190.14 70.66 185.59 70.01 181.10 69.13 C 184.09 64.56 189.03 61.88 193.50 58.96 C 193.43 57.29 193.44 55.61 193.17 53.96 C 192.23 51.79 190.28 50.31 188.71 48.60 C 191.02 47.77 193.96 46.93 196.02 48.77 C 201.63 53.93 202.48 62.57 200.10 69.50 C 201.31 69.46 202.53 69.42 203.75 69.36 C 206.27 65.48 209.29 61.81 210.70 57.32 C 211.76 54.26 211.24 50.98 211.39 47.81 C 213.84 47.16 216.33 46.58 218.89 46.66 C 222.95 48.24 227.76 48.03 231.36 50.69 C 234.67 54.13 236.31 58.78 238.24 63.06 C 231.15 68.03 224.09 73.06 216.92 77.93 C 215.61 79.05 213.44 79.91 213.55 81.94 C 213.33 87.02 212.07 91.95 211.41 96.96 C 210.65 101.33 213.15 105.22 214.37 109.24 C 215.35 112.48 216.98 115.45 218.91 118.22 C 215.60 118.69 212.40 119.63 209.11 120.20 C 205.40 120.61 201.64 120.45 197.95 121.06 C 197.56 120.91 196.79 120.62 196.41 120.48 C 196.48 120.05 196.62 119.19 196.69 118.76 C 197.50 118.58 199.13 118.23 199.94 118.06 C 196.33 110.83 187.42 109.29 181.93 104.03 C 184.66 102.19 187.46 100.42 190.03 98.36 C 196.63 98.39 201.46 103.46 207.15 106.04 C 206.52 104.40 205.39 103.04 204.11 101.87 C 200.45 98.40 196.92 94.81 193.18 91.43 C 187.09 94.13 180.96 96.75 175.14 100.02 C 168.00 102.85 162.96 108.92 157.88 114.42 C 155.67 113.27 153.50 111.87 151.00 111.43 C 148.92 112.03 146.99 113.06 145.02 113.93 C 142.40 110.24 139.01 105.98 133.99 106.18 C 130.01 105.68 126.32 108.14 124.26 111.39 C 120.82 116.22 121.02 122.48 121.38 128.12 C 121.74 132.71 124.17 137.43 128.39 139.55 C 131.58 140.25 134.88 139.66 138.12 139.69 C 136.21 141.92 133.68 143.39 130.97 144.43 C 126.64 143.29 122.22 141.03 120.22 136.80 C 116.94 131.46 117.35 124.99 117.68 119.00 C 119.28 112.83 121.52 105.70 128.03 103.13 C 131.90 100.87 136.39 101.36 140.33 103.12 C 144.34 88.65 148.35 74.19 152.45 59.75 C 159.16 55.02 165.78 50.16 172.26 45.12 C 172.46 41.78 172.33 38.39 172.93 35.09 C 178.94 32.65 185.14 30.71 191.22 28.43 C 197.42 26.36 203.44 23.34 210.10 23.16 Z" />
<path fill="#f5e5c1" opacity="1.00" d=" M 247.03 124.00 C 250.49 116.89 256.92 110.75 265.00 109.65 C 267.04 109.24 268.84 110.50 270.46 111.55 C 276.09 115.28 278.72 122.41 278.27 128.97 C 277.05 138.49 272.52 147.81 264.90 153.82 C 259.82 158.33 253.59 163.44 246.29 161.39 C 245.82 160.82 244.88 159.66 244.41 159.09 C 244.39 155.03 244.54 150.97 245.15 146.96 C 245.74 142.68 242.69 139.06 242.23 134.97 C 243.17 131.08 245.33 127.60 247.03 124.00 Z" />
<path fill="#f5e5c1" opacity="1.00" d=" M 128.74 114.57 C 131.10 110.77 136.90 110.96 139.41 114.52 C 142.96 119.28 143.35 126.34 140.61 131.58 C 139.16 134.57 135.75 135.27 132.78 135.74 C 125.16 131.90 124.92 121.21 128.74 114.57 Z" />
<path fill="#f5e5c1" opacity="1.00" d=" M 166.54 112.75 C 169.24 112.06 172.66 112.06 174.53 114.49 C 176.89 117.44 178.61 121.15 178.44 125.00 C 178.46 130.00 177.04 135.96 172.06 138.25 C 169.25 138.92 165.51 139.02 163.60 136.45 C 161.31 133.08 158.82 129.19 159.62 124.91 C 160.24 120.21 162.08 115.07 166.54 112.75 Z" />
<path fill="#f5e5c1" opacity="1.00" d=" M 179.95 113.65 C 181.65 113.08 183.38 112.57 185.14 112.18 C 185.51 114.26 184.82 116.84 186.43 118.53 C 187.78 120.50 190.30 120.63 192.38 121.30 C 190.11 121.50 187.72 122.14 185.49 121.43 C 182.75 119.62 181.03 116.69 179.95 113.65 Z" />
<path fill="#f5e5c1" opacity="1.00" d=" M 187.33 116.07 C 187.87 114.51 188.51 112.78 190.53 113.41 C 191.20 114.61 191.42 115.99 191.74 117.31 C 191.06 117.45 189.70 117.72 189.02 117.86 C 188.60 117.42 187.76 116.52 187.33 116.07 Z" />
<path fill="#3e3e3e" opacity="1.00" d=" M 258.39 117.48 C 261.52 116.92 265.26 116.92 267.71 119.30 C 271.31 122.41 271.85 127.61 271.57 132.08 C 271.45 136.47 269.67 140.61 267.29 144.23 C 265.03 147.80 262.57 151.96 258.24 153.17 C 255.81 154.00 253.22 153.67 250.73 153.40 C 250.47 151.58 250.19 149.76 249.84 147.95 C 249.78 147.29 249.73 146.64 249.68 145.99 C 251.30 144.76 252.91 143.53 254.52 142.28 C 254.06 141.11 253.61 139.93 253.18 138.76 C 252.47 137.73 251.77 136.69 251.08 135.66 C 253.05 135.97 255.93 134.67 257.15 136.87 C 258.82 138.94 258.62 141.74 258.95 144.23 C 259.47 144.35 260.53 144.60 261.06 144.72 C 264.73 139.63 267.83 133.30 265.93 126.89 C 265.05 124.63 263.95 121.43 261.13 121.18 C 259.28 122.31 257.94 124.11 256.14 125.32 C 254.67 125.42 253.19 125.45 251.72 125.39 C 251.64 124.93 251.47 124.01 251.38 123.55 C 253.54 121.38 255.49 118.72 258.39 117.48 Z" />
<path fill="#f5e5c1" opacity="1.00" d=" M 218.01 122.86 C 219.31 122.37 220.75 122.52 222.12 122.36 C 221.35 123.58 220.56 124.77 219.77 125.97 C 219.25 129.81 217.74 134.03 219.69 137.70 C 221.24 139.71 223.08 136.43 223.11 134.84 C 223.24 130.36 225.65 124.22 230.97 124.36 C 233.92 128.92 236.42 133.74 238.23 138.87 C 239.13 142.21 240.39 145.52 240.47 149.01 C 240.77 159.82 241.72 171.04 237.64 181.32 C 235.59 186.35 232.02 190.65 227.80 194.01 C 225.23 195.97 221.89 196.10 218.84 196.69 C 221.49 198.90 225.17 202.51 228.74 199.86 C 234.36 194.61 240.01 188.68 242.25 181.12 C 244.24 176.13 244.68 170.74 245.56 165.49 C 247.65 165.88 249.76 166.23 251.88 166.42 C 257.55 164.12 264.64 160.50 270.29 164.78 C 273.73 168.04 271.47 172.97 271.61 177.02 C 271.63 187.45 270.53 197.82 270.30 208.24 C 275.54 214.09 280.88 219.85 286.38 225.46 C 288.58 225.61 290.78 225.77 292.98 226.03 C 298.21 225.37 301.80 229.46 305.62 232.27 C 312.69 237.82 319.64 243.56 326.96 248.78 C 326.32 249.97 325.66 251.15 325.02 252.33 C 320.28 252.26 315.68 253.67 310.93 253.56 C 308.13 253.35 305.84 255.13 303.55 256.45 C 295.79 261.20 287.80 265.55 279.85 269.97 C 276.93 271.41 275.22 274.72 271.91 275.42 C 267.30 276.64 262.60 277.56 258.05 278.97 C 254.92 282.53 253.12 287.33 249.07 290.04 C 244.04 292.28 238.37 291.41 233.03 291.50 C 227.67 291.27 222.18 292.27 216.92 290.86 C 211.76 290.61 206.59 290.77 201.44 290.30 C 201.37 290.82 201.22 291.86 201.15 292.38 C 210.61 294.48 220.32 295.62 230.01 295.39 C 233.10 295.40 236.28 294.54 239.29 295.62 C 232.08 302.02 223.71 307.02 216.98 313.96 C 213.49 317.23 210.44 320.90 207.27 324.46 C 205.52 326.80 202.31 325.57 199.94 325.18 C 185.99 321.60 171.91 318.60 157.95 315.06 C 163.04 308.75 168.01 302.30 173.74 296.55 C 177.13 296.24 180.58 296.06 183.86 295.07 C 186.96 293.66 186.55 290.00 186.87 287.20 C 190.52 283.10 194.64 279.45 198.32 275.40 C 202.57 269.65 205.17 262.88 208.38 256.54 C 209.20 249.49 207.09 242.46 207.44 235.39 C 209.19 233.57 211.44 232.34 213.57 230.99 C 213.51 230.45 213.41 229.35 213.36 228.81 C 210.53 230.45 207.81 232.27 205.06 234.04 C 203.09 235.33 203.34 238.17 201.80 239.80 C 196.82 243.07 190.63 242.63 184.95 242.23 C 180.85 241.50 178.16 245.11 175.89 247.90 C 174.04 250.56 174.57 254.06 176.24 256.66 C 178.10 259.56 178.13 263.25 176.86 266.39 C 174.61 266.50 172.15 266.08 170.13 267.33 C 147.08 280.09 124.49 293.70 101.36 306.33 C 132.25 313.41 163.34 319.61 194.24 326.67 C 199.11 327.46 201.36 332.33 205.17 334.88 C 205.30 341.28 205.09 347.68 205.24 354.08 C 205.12 356.99 208.27 358.34 209.72 360.48 C 209.58 365.05 204.49 368.16 205.22 372.98 C 205.79 378.70 203.98 384.99 206.74 390.29 C 204.27 396.32 206.39 402.82 206.69 409.04 C 205.13 409.37 203.55 410.06 201.92 409.74 C 194.16 408.55 186.79 405.70 179.21 403.73 C 167.77 400.64 156.51 396.86 144.96 394.22 C 126.55 388.45 108.01 382.91 89.22 378.45 C 89.17 355.25 89.40 332.04 89.10 308.84 C 93.29 304.85 98.64 302.50 103.53 299.53 C 125.52 286.70 147.72 274.20 169.60 261.19 C 169.12 260.13 169.06 258.74 168.01 258.04 C 164.22 259.18 160.74 261.17 156.90 262.17 C 154.50 263.15 152.32 261.19 150.00 260.83 C 145.02 260.32 140.01 260.98 135.03 261.10 C 131.35 257.79 128.23 253.88 124.75 250.36 C 121.20 246.85 118.41 242.41 113.87 240.06 C 113.49 234.06 112.92 228.08 112.20 222.12 C 111.76 219.41 107.30 217.99 108.78 215.00 C 111.47 209.53 114.47 204.12 118.77 199.74 C 121.06 197.62 120.83 194.31 121.76 191.57 C 122.97 188.17 125.71 185.63 127.33 182.45 C 128.54 178.95 128.01 175.15 128.85 171.59 C 130.00 168.87 132.77 167.07 133.29 164.05 C 134.08 159.95 136.79 156.50 140.07 154.06 C 141.48 153.05 143.34 153.60 144.95 153.50 C 143.63 155.93 141.95 158.15 140.79 160.66 C 139.98 163.19 140.03 165.90 139.36 168.46 C 138.29 170.02 136.54 171.14 135.97 173.01 C 135.43 176.49 136.36 180.31 134.57 183.53 C 132.91 186.55 130.95 189.39 129.42 192.47 C 126.05 199.03 120.91 204.82 119.38 212.20 C 119.38 217.47 120.60 222.65 121.09 227.89 C 121.71 231.85 121.46 236.41 124.52 239.46 C 129.87 245.11 135.50 250.51 141.60 255.35 C 145.27 255.37 148.98 255.07 152.63 255.56 C 154.81 256.31 156.68 257.71 158.68 258.83 C 158.67 255.39 158.19 251.99 157.23 248.69 C 153.44 242.56 153.55 234.81 156.25 228.29 C 157.77 224.81 161.13 222.35 161.95 218.55 C 155.21 217.81 150.51 224.21 148.12 229.70 C 146.93 228.39 145.68 227.13 144.40 225.91 C 144.34 222.11 143.69 217.96 145.64 214.49 C 147.24 211.52 149.66 209.05 152.33 207.03 C 155.66 204.63 159.83 204.20 163.74 203.39 C 163.73 202.95 163.73 202.09 163.73 201.66 C 162.18 201.41 160.63 201.15 159.08 200.89 C 155.65 201.42 151.96 201.18 148.83 202.92 C 146.16 204.39 143.81 206.39 141.12 207.84 C 140.50 205.57 139.56 203.36 139.29 201.01 C 140.97 194.46 145.68 188.83 151.84 186.03 C 157.52 183.37 163.41 179.47 165.24 173.10 C 165.69 169.51 162.78 166.78 160.66 164.28 C 158.33 161.60 154.48 160.84 152.47 157.85 C 156.88 155.79 162.02 155.64 166.64 157.01 C 171.24 159.15 175.01 162.64 179.01 165.68 C 181.82 164.69 184.67 162.77 187.78 163.60 C 191.66 164.81 194.33 168.11 196.11 171.61 C 196.50 171.57 197.28 171.50 197.67 171.46 C 196.13 167.43 193.53 163.62 193.27 159.22 C 194.26 157.38 196.34 154.84 198.69 155.83 C 199.67 156.87 200.51 158.04 201.38 159.18 C 201.43 160.25 201.48 161.31 201.53 162.38 C 202.58 162.40 204.68 162.44 205.73 162.46 C 204.76 157.36 201.07 152.84 202.51 147.43 C 204.72 147.25 206.94 147.20 209.16 147.29 C 210.02 148.37 210.88 149.45 211.78 150.50 C 212.36 146.74 208.22 145.18 207.28 142.04 C 206.55 137.94 209.77 134.93 211.79 131.80 C 213.97 128.90 215.39 125.42 218.01 122.86 Z" />
<path fill="#f5e5c1" opacity="1.00" d=" M 143.99 137.17 C 147.04 132.68 149.70 127.90 153.21 123.74 C 154.56 127.56 155.17 131.61 156.61 135.40 C 158.06 139.03 162.24 140.30 164.29 143.47 C 165.26 144.98 165.53 146.78 165.95 148.50 C 161.73 149.60 157.93 147.85 154.39 145.77 C 152.56 144.63 150.95 146.14 149.60 147.23 C 149.60 148.72 149.58 150.22 149.53 151.72 C 145.44 151.13 142.25 148.50 139.19 145.95 C 139.61 142.48 142.21 140.00 143.99 137.17 Z" />
<path fill="#f5e5c1" opacity="1.00" d=" M 299.05 127.24 C 301.20 127.26 303.35 127.30 305.50 127.37 C 309.53 131.16 309.13 137.07 308.22 142.05 C 306.08 147.39 301.37 151.01 297.74 155.28 C 297.76 158.24 298.08 161.55 296.05 164.00 C 293.60 166.89 290.87 169.55 288.06 172.09 C 285.11 174.71 281.05 175.12 277.29 175.44 C 278.34 171.73 279.14 167.50 276.95 164.03 C 274.66 160.96 270.87 159.38 267.16 158.87 C 269.86 156.00 272.50 153.07 275.01 150.03 C 275.52 150.24 276.54 150.65 277.06 150.85 C 277.63 152.50 278.22 154.14 278.84 155.78 C 282.12 154.68 282.32 150.90 282.53 147.96 C 282.83 144.91 281.54 142.07 281.17 139.10 C 282.93 136.57 285.09 134.13 287.86 132.68 C 292.26 131.98 295.84 136.51 295.99 140.65 C 296.72 140.62 297.46 140.60 298.20 140.57 C 298.98 138.64 299.88 136.75 300.39 134.73 C 301.03 132.13 299.81 129.65 299.05 127.24 Z" />
<path fill="#f5e5c1" opacity="1.00" d=" M 185.46 128.80 C 194.12 128.63 202.69 126.98 211.38 127.29 C 205.50 134.85 199.60 142.44 194.71 150.67 C 191.50 154.78 187.77 159.88 181.96 159.73 C 178.48 160.52 176.25 157.56 174.25 155.28 C 175.74 153.43 176.96 151.30 178.80 149.77 C 180.29 149.54 181.78 149.40 183.28 149.34 C 180.54 148.12 178.29 146.13 176.20 144.02 C 175.66 140.70 179.20 139.27 180.83 136.93 C 183.01 134.60 183.64 131.31 185.46 128.80 Z" />
<path fill="#f5e5c1" opacity="1.00" d=" M 139.01 171.91 C 141.88 168.91 146.19 169.34 149.98 169.17 C 153.52 169.29 157.59 168.50 160.44 171.13 C 160.54 172.59 160.65 174.05 160.77 175.51 C 155.67 177.27 150.25 175.36 145.01 175.45 C 142.38 175.68 140.50 173.81 139.01 171.91 Z" />
<path fill="#3e3e3e" opacity="1.00" d=" M 180.04 179.37 C 183.95 177.97 188.53 178.45 191.69 181.26 C 197.43 185.96 198.13 195.06 194.00 201.00 C 192.76 202.41 190.75 202.22 189.07 202.41 C 190.57 197.44 191.29 191.97 188.77 187.17 C 187.30 183.25 183.41 181.37 180.04 179.37 Z" />
<path fill="#3e3e3e" opacity="1.00" d=" M 259.05 181.60 C 259.52 181.48 260.46 181.24 260.93 181.12 C 261.41 181.55 262.37 182.42 262.86 182.85 C 261.73 187.24 259.53 191.22 257.44 195.20 C 254.03 203.00 251.13 211.01 248.58 219.13 C 243.44 232.27 236.02 244.38 227.85 255.83 C 225.74 258.82 223.93 262.01 222.17 265.21 C 222.60 265.39 223.46 265.75 223.89 265.93 C 223.46 266.29 222.58 267.00 222.14 267.36 C 219.15 267.69 215.95 267.72 213.22 269.09 C 211.34 270.97 209.95 273.29 208.01 275.12 C 209.13 270.59 211.95 266.80 214.10 262.75 C 216.45 262.59 218.77 262.20 220.97 261.33 C 225.07 252.63 230.73 244.81 235.21 236.32 C 236.49 231.63 239.42 227.65 241.18 223.15 C 244.63 214.58 248.03 205.99 251.65 197.49 C 254.23 192.25 257.07 187.12 259.05 181.60 Z" />
<path fill="#3e3e3e" opacity="1.00" d=" M 160.95 189.11 C 164.33 183.58 172.13 185.13 176.83 188.01 C 181.30 190.75 183.58 198.64 179.19 202.32 C 175.87 203.58 176.36 200.16 176.17 198.01 C 175.35 195.78 174.93 192.92 172.55 191.78 C 168.88 190.21 164.84 189.86 160.95 189.11 Z" />
<path fill="#f5e5c1" opacity="1.00" d=" M 313.53 255.72 C 317.54 255.01 321.65 255.79 325.70 255.71 C 327.93 258.20 330.09 260.76 332.23 263.33 C 332.93 278.31 335.37 293.16 336.78 308.09 C 337.63 313.74 337.56 319.54 339.21 325.06 C 339.71 332.37 338.39 339.64 338.58 346.96 C 338.39 351.96 339.25 357.30 336.85 361.93 C 334.41 367.04 332.43 372.41 329.38 377.20 C 329.30 378.59 329.24 380.00 329.18 381.40 C 292.47 390.03 255.68 398.29 218.96 406.88 C 217.54 407.15 216.29 407.87 215.13 408.71 C 213.47 408.78 211.80 408.82 210.14 408.87 C 210.03 403.24 210.32 397.60 210.03 391.98 C 209.05 384.65 208.83 377.25 208.66 369.87 C 211.27 368.57 213.91 367.32 216.56 366.11 C 216.56 364.35 216.56 362.60 216.55 360.85 C 214.42 358.13 212.17 355.50 209.49 353.31 C 209.42 345.22 209.04 337.12 209.31 329.04 C 213.05 324.25 217.49 320.02 221.53 315.47 C 226.75 309.61 233.48 305.45 239.49 300.48 C 243.09 297.89 246.45 293.80 251.40 294.54 C 256.23 291.51 256.95 285.55 259.10 280.75 C 263.53 279.26 268.12 277.82 272.84 278.65 C 271.76 284.18 270.05 289.56 268.51 294.98 C 273.99 297.26 279.02 300.45 283.83 303.90 C 280.81 314.27 276.89 324.36 273.35 334.56 C 277.60 337.05 282.35 338.97 287.28 339.40 C 284.46 337.00 281.27 335.13 278.17 333.13 C 281.79 323.61 285.07 313.95 287.71 304.12 C 284.88 298.59 278.50 295.70 273.21 292.75 C 274.63 287.38 276.65 282.20 278.59 277.01 C 289.88 269.36 301.16 261.54 313.53 255.72 Z" />
<path fill="#3e3e3e" opacity="1.00" d=" M 95.22 312.03 C 94.96 309.98 97.41 309.09 99.04 309.81 C 110.17 312.99 121.71 314.35 133.01 316.75 C 142.35 319.09 152.69 318.46 161.04 323.91 C 166.90 327.96 172.34 333.00 175.39 339.56 C 178.48 344.11 179.86 349.49 180.07 354.94 C 181.71 365.48 177.71 377.39 168.45 383.26 C 160.20 387.71 150.38 390.46 141.10 387.75 C 125.84 383.21 110.56 378.74 95.28 374.26 C 96.06 353.53 94.98 332.77 95.22 312.03 Z" />
<path fill="#f5e5c1" opacity="1.00" d=" M 132.24 323.05 C 139.34 321.38 147.21 321.75 153.74 325.25 C 168.57 332.58 177.97 350.76 173.01 366.95 C 169.88 378.08 158.51 386.19 146.93 385.14 C 127.00 383.51 111.31 362.62 115.12 343.04 C 116.76 333.98 123.37 325.84 132.24 323.05 Z" />
<path fill="#3e3e3e" opacity="1.00" d=" M 132.48 327.77 C 139.45 325.13 147.49 326.38 153.87 330.04 C 162.16 335.01 168.50 343.40 170.42 352.94 C 171.14 359.39 171.12 366.58 167.12 372.06 C 162.95 378.80 154.86 382.36 147.09 382.10 C 130.34 381.26 117.10 364.34 118.42 347.98 C 118.56 339.27 124.25 330.81 132.48 327.77 Z" />
<path fill="#f4722b" opacity="1.00" d=" M 135.49 330.45 C 140.65 329.92 145.88 330.73 150.77 332.39 C 152.28 332.85 153.26 334.43 153.29 335.97 C 153.52 339.76 153.32 343.56 153.47 347.35 C 157.84 348.53 162.94 348.38 166.49 351.58 C 166.26 356.62 166.37 361.66 166.39 366.71 C 162.07 366.79 157.84 365.75 153.59 365.16 C 153.22 368.88 153.41 372.63 152.96 376.35 C 152.63 377.80 151.93 379.96 150.04 379.63 C 144.99 379.58 139.86 378.28 135.64 375.44 C 136.30 370.57 136.52 365.63 135.67 360.77 C 131.60 359.76 126.72 359.50 123.60 356.50 C 123.20 351.69 122.86 346.66 123.84 341.91 C 127.63 340.68 131.63 342.34 135.46 342.58 C 135.52 338.54 135.50 334.49 135.49 330.45 Z" />
<path fill="#f5e5c1" opacity="1.00" d=" M 362.91 357.89 C 365.45 353.34 371.59 353.83 375.85 355.19 C 380.28 356.67 379.25 362.36 380.20 365.97 C 380.25 372.03 381.27 378.29 379.18 384.15 C 373.21 386.10 367.33 388.92 361.00 389.41 C 355.65 388.62 351.10 385.34 346.18 383.28 C 351.13 374.42 357.78 366.65 362.91 357.89 Z" />
<path fill="#f5e5c1" opacity="1.00" d=" M 332.69 383.37 C 336.78 382.78 340.55 384.51 343.28 387.49 C 343.65 389.19 344.10 390.87 344.57 392.55 C 340.35 393.87 335.93 394.33 331.54 394.55 C 330.77 393.28 328.83 392.20 329.62 390.51 C 330.37 388.02 331.51 385.68 332.69 383.37 Z" />
</svg>
