<?xml version="1.0" encoding="UTF-8" standalone="no"?>
<svg
   xmlns:dc="http://purl.org/dc/elements/1.1/"
   xmlns:cc="http://creativecommons.org/ns#"
   xmlns:rdf="http://www.w3.org/1999/02/22-rdf-syntax-ns#"
   xmlns:svg="http://www.w3.org/2000/svg"
   xmlns="http://www.w3.org/2000/svg"
   xmlns:sodipodi="http://sodipodi.sourceforge.net/DTD/sodipodi-0.dtd"
   xmlns:inkscape="http://www.inkscape.org/namespaces/inkscape"
   width="1280"
   height="1280"
   viewBox="0 0 1024 1024"
   version="1.1"
   id="svg2"
   inkscape:version="0.47 r22583"
   sodipodi:docname="top_scoreboard.svg">
  <metadata
     id="metadata54">
    <rdf:RDF>
      <cc:Work
         rdf:about="">
        <dc:format>image/svg+xml</dc:format>
        <dc:type
           rdf:resource="http://purl.org/dc/dcmitype/StillImage" />
      </cc:Work>
    </rdf:RDF>
  </metadata>
  <defs
     id="defs52" />
  <sodipodi:namedview
     pagecolor="#ffffff"
     bordercolor="#666666"
     borderopacity="1"
     objecttolerance="10"
     gridtolerance="10"
     guidetolerance="10"
     inkscape:pageopacity="0"
     inkscape:pageshadow="2"
     inkscape:window-width="1280"
     inkscape:window-height="738"
     id="namedview50"
     showgrid="false"
     inkscape:zoom="0.44739336"
     inkscape:cx="263.75"
     inkscape:cy="889.39005"
     inkscape:window-x="-8"
     inkscape:window-y="-8"
     inkscape:window-maximized="1"
     inkscape:current-layer="svg2" />
  <path
     d="m 0,0 1024,0 0,1024 L 0,1024 0,0 z"
     id="path4"
     style="fill:#3e3e3e" />
  <path
     d="m 509.81611,56.19867 c 21.59621,-3.51848 43.53214,-1.50445 65.2982,-2.20815 14.07394,-1.09194 26.74048,5.87223 39.84379,9.77896 13.07906,4.92588 27.27432,7.30388 39.23716,14.85043 13.66142,8.2017 27.41991,16.23355 41.29972,24.04701 3.03317,1.86844 6.62445,3.49422 7.98331,7.06123 18.36891,38.60626 37.99962,76.63014 57.21782,114.82389 6.43034,13.20038 28.24493,16.06369 27.0074,33.07374 -8.56569,0.82503 -17.13138,1.79564 -25.6,3.37289 -5.21706,12.81214 -13.85555,29.36114 -29.94351,28.77877 -0.21839,-1.11621 -0.65517,-3.30009 -0.87355,-4.39204 10.11867,-8.44436 17.49535,-20.35867 17.61668,-33.8745 6.4546,-1.48019 12.95772,-2.5236 19.55791,-3.00891 -7.54654,-5.45972 -16.06369,-10.43412 -21.01384,-18.5873 C 728.81137,192.69156 712.869,154.10957 693.06844,117.49308 682.24607,108.49062 668.68171,103.24929 656.79166,95.72701 640.46104,85.36569 621.36417,81.33763 603.23791,75.29555 c -9.17232,-2.69346 -18.19905,-7.0855 -27.978,-6.60019 -16.1365,0.53383 -32.34579,-0.29119 -48.40948,1.40739 -16.50048,2.74199 -33.34067,4.22218 -49.3801,9.12379 -15.9909,5.6781 -31.54502,12.54521 -47.43886,18.5145 0.29118,6.28474 0.7037,12.54522 1.09194,18.82996 -15.23867,12.10843 -30.52587,24.16834 -46.34692,35.47601 -4.63469,8.4201 -5.89649,18.29612 -9.05099,27.32285 -7.49801,25.64853 -15.19014,51.24853 -22.68815,76.89706 4.3435,-2.01403 8.61421,-4.29498 13.20038,-5.7509 9.4635,-0.16986 18.58729,4.53763 28.09933,3.13024 6.18768,-3.25157 11.21062,-8.25024 16.40341,-12.81214 3.37289,-11.16208 6.79432,-22.2999 8.54143,-33.85023 -11.67166,-0.55811 -23.31906,1.06767 -34.26275,5.24132 -0.31545,-1.38312 -0.60664,-2.76625 -0.89782,-4.14938 15.67545,-7.95905 33.46199,-5.72664 50.37497,-6.11488 12.49669,1.11621 23.85289,7.25535 35.86427,10.53118 -3.20303,-4.29497 -5.84796,-9.6091 -11.23488,-11.47753 -10.09441,-3.931 -20.45574,-7.74067 -31.27811,-8.95394 0.31545,-3.00891 0.65517,-6.01782 0.99488,-9.02673 -12.37535,-1.33459 -24.65364,0.41252 -36.68928,3.10598 0,-1.26181 -0.0243,-3.78541 -0.0485,-5.02294 9.80323,-2.74199 20.01896,-4.92588 30.25896,-3.8582 12.95773,1.31033 25.93972,-0.0728 38.87318,-0.97062 1.86843,0.65517 5.55677,1.98976 7.42521,2.64493 1.2618,-2.47507 2.54787,-4.95014 3.83393,-7.42521 -11.11355,-0.0485 -22.15431,-1.62578 -33.04947,-3.76114 7.25535,-11.08929 19.24246,-17.59242 30.0891,-24.67791 -0.16986,-4.05233 -0.1456,-8.12891 -0.80076,-12.13271 -2.28095,-5.26559 -7.0127,-8.85687 -10.82237,-13.00625 5.60531,-2.01403 12.73933,-4.05232 17.73801,0.41251 13.61289,12.52095 15.67545,33.48626 9.90028,50.30218 2.93611,-0.0971 5.89649,-0.19412 8.85687,-0.33972 6.11488,-9.41497 13.44304,-18.32038 16.86446,-29.21554 2.57213,-7.42521 1.31033,-15.38427 1.67431,-23.0764 5.94502,-1.57725 11.98711,-2.98464 18.19905,-2.79052 9.85176,3.83393 21.52342,3.32436 30.25896,9.77896 8.03185,8.3473 12.01137,19.63071 16.6946,30.0163 -17.20417,12.05991 -34.33555,24.2654 -51.73384,36.08265 -3.17877,2.71773 -8.44436,4.80455 -8.17744,9.73043 -0.53384,12.32683 -3.59128,24.28967 -5.1928,36.44664 -1.84417,10.60398 4.22218,20.04322 7.18256,29.79791 2.37801,7.86199 6.33327,15.06882 11.01649,21.79033 -8.03184,1.14048 -15.79677,3.42142 -23.78009,4.80455 -9.00247,0.99488 -18.12626,0.60664 -27.08019,2.08683 -0.94635,-0.36398 -2.81479,-1.06768 -3.73687,-1.4074 0.16986,-1.04341 0.50957,-3.13023 0.67943,-4.17365 1.9655,-0.43677 5.92076,-1.28606 7.88625,-1.69857 -8.75981,-17.54389 -30.38028,-21.28076 -43.70199,-34.04436 6.62446,-4.46484 13.41877,-8.75981 19.65498,-13.75849 16.01517,0.0728 27.73536,12.37536 41.54237,18.63583 -1.52872,-3.97952 -4.27071,-7.27962 -7.37668,-10.11867 -8.88114,-8.4201 -17.44683,-17.13138 -26.52209,-25.33308 -14.77763,6.55166 -29.65232,12.90919 -43.77478,20.84398 -17.3255,6.86711 -29.55527,21.59621 -41.88209,34.94218 -5.36265,-2.79052 -10.62825,-6.18768 -16.6946,-7.25536 -5.0472,1.45593 -9.73042,3.95526 -14.51071,6.06635 -6.35753,-8.95393 -14.58351,-19.29099 -26.76474,-18.80568 -9.65763,-1.21327 -18.61156,4.75602 -23.61023,12.64227 -8.3473,11.72019 -7.86199,26.91033 -6.98844,40.59602 0.87355,11.13782 6.77005,22.59109 17.01005,27.73536 7.74066,1.69857 15.74824,0.26692 23.61023,0.33971 -4.63469,5.41119 -10.77383,8.9782 -17.34976,11.5018 -10.50692,-2.76625 -21.23223,-8.25023 -26.08531,-18.5145 -7.95905,-12.95772 -6.96417,-28.65744 -6.16341,-43.19242 3.88247,-14.97175 9.31792,-32.27298 25.11469,-38.50919 9.39071,-5.48398 20.28588,-4.29498 29.84645,-0.0243 9.73042,-35.11203 19.46085,-70.19981 29.40967,-105.23905 16.28208,-11.47753 32.34578,-23.27052 48.06976,-35.50028 0.48531,-8.10465 0.16986,-16.33062 1.62578,-24.3382 14.58351,-5.92076 29.62806,-10.62825 44.38142,-16.16076 15.04455,-5.02294 29.65233,-12.35109 45.81308,-12.78787 z"
     id="path6"
     style="fill:#f5e5c1" />
  <path
     style="fill:#f5e5c1"
     d="M 806.0625 332.34375 C 805.31143 332.35204 804.55471 332.4383 803.78125 332.59375 C 779.27319 335.93025 759.77604 354.55911 749.28125 376.125 C 744.12485 387.04443 737.56994 397.57595 734.71875 409.375 C 736.11401 421.78069 745.38332 432.76801 743.59375 445.75 C 741.74351 457.91304 741.28313 470.24781 741.34375 482.5625 C 742.76934 484.29141 745.60565 487.80234 747.03125 489.53125 C 769.17342 495.74925 788.09148 480.24211 803.5 466.5625 C 826.6128 448.33311 840.33079 420.06333 844.03125 391.1875 C 845.39619 371.28987 837.42052 349.65749 820.34375 338.34375 C 816.04422 335.55702 811.31996 332.28569 806.0625 332.34375 z M 793 355.40625 C 799.93512 355.33897 806.891 356.88071 812 361.84375 C 822.91943 371.27692 824.56804 387.06671 823.71875 400.625 C 823.35476 413.94064 817.96896 426.48865 810.75 437.46875 C 803.89503 448.29717 796.4149 460.9236 783.28125 464.59375 C 775.91064 467.11128 768.0526 466.10021 760.5 465.28125 C 759.71138 459.76088 758.87411 454.24004 757.8125 448.75 C 757.63051 446.7481 757.46416 444.78406 757.3125 442.8125 C 762.22624 439.08169 767.11659 435.35398 772 431.5625 C 770.60474 428.01369 769.24176 424.42381 767.9375 420.875 C 765.78395 417.75083 763.6554 414.59293 761.5625 411.46875 C 767.53786 412.40904 776.26827 408.48326 779.96875 415.15625 C 785.03416 421.43492 784.43655 429.91614 785.4375 437.46875 C 787.01475 437.83272 790.23616 438.60478 791.84375 438.96875 C 802.9755 423.52989 812.38803 404.31765 806.625 384.875 C 803.9558 378.02003 800.61606 368.3208 792.0625 367.5625 C 786.45113 370.98999 782.36596 376.45485 776.90625 380.125 C 772.44748 380.42831 767.95876 380.52574 763.5 380.34375 C 763.25735 378.94849 762.74174 376.14526 762.46875 374.75 C 769.0204 368.16801 774.9538 360.10489 783.75 356.34375 C 786.71683 355.81295 789.84767 355.43683 793 355.40625 z "
     transform="scale(0.8,0.8)"
     id="path8" />
  <path
     d="m 312.3928,278.00872 c 5.72663,-9.22085 19.80056,-8.75981 25.89118,-0.12133 8.61422,11.55034 9.56057,28.68171 2.91185,41.39678 -3.51848,7.25536 -11.79299,8.95393 -18.99981,10.09441 -18.49024,-9.31792 -19.07261,-35.25763 -9.80322,-51.36986 z"
     id="path10"
     style="fill:#f5e5c1" />
  <path
     d="m 404.11602,273.59242 c 6.55166,-1.67432 14.85043,-1.67432 19.38806,4.22218 5.72663,7.15829 9.90028,16.16076 9.48777,25.50294 0.0485,12.1327 -3.39716,26.59488 -15.48133,32.15165 -6.81858,1.62579 -15.89384,1.86844 -20.52853,-4.36777 -5.55678,-8.17744 -11.59886,-17.61668 -9.65763,-28.00227 1.50446,-11.40474 5.96929,-23.87716 16.79166,-29.50673 z"
     id="path12"
     style="fill:#f5e5c1" />
  <path
     d="m 436.65592,275.7763 c 4.12512,-1.38312 8.32304,-2.62066 12.59375,-3.56701 0.89782,5.0472 -0.77649,11.30768 3.13024,15.40853 3.27582,4.78028 9.39071,5.09573 14.43791,6.72152 -5.50825,0.4853 -11.30768,2.03829 -16.71886,0.31545 -6.64872,-4.39204 -10.82237,-11.5018 -13.44304,-18.87849 z"
     id="path14"
     style="fill:#f5e5c1" />
  <path
     d="m 454.56379,281.64853 c 1.31033,-3.7854 2.86332,-7.98332 7.76493,-6.4546 1.62578,2.91185 2.15962,6.26048 2.93611,9.46351 -1.65004,0.33972 -4.95014,0.99488 -6.60019,1.3346 -1.01914,-1.06768 -3.05744,-3.25157 -4.10085,-4.34351 z"
     id="path16"
     style="fill:#f5e5c1" />
  <path
     style="fill:#f5e5c1"
     d="M 673.71875 371.125 C 669.5633 371.61031 665.19313 371.16999 661.25 372.65625 C 653.30308 380.42117 649.01856 390.98504 642.40625 399.78125 C 636.27924 409.27509 626.50454 418.40774 628.71875 430.84375 C 631.56994 440.36792 644.13424 445.09526 642.375 456.5 C 639.64515 453.31518 637.01477 450.02582 634.40625 446.75 C 627.6726 446.47701 620.95332 446.64154 614.25 447.1875 C 609.88222 463.59699 621.05782 477.31206 624 492.78125 C 620.81518 492.72059 614.46609 492.59187 611.28125 492.53125 C 611.1296 489.28575 610.96416 486.058 610.8125 482.8125 C 608.17364 479.35469 605.62876 475.81075 602.65625 472.65625 C 595.52829 469.65341 589.2216 477.35646 586.21875 482.9375 C 587.00738 496.28347 594.89141 507.8388 599.5625 520.0625 C 598.37956 520.18382 596.02669 520.40988 594.84375 520.53125 C 589.44469 509.91514 581.33123 499.88889 569.5625 496.21875 C 560.12932 493.70121 551.49196 499.52841 542.96875 502.53125 C 530.83605 493.3104 519.39011 482.741 505.4375 476.25 C 491.42424 472.09455 475.84505 472.53291 462.46875 478.78125 C 468.56543 487.85045 480.2452 490.15234 487.3125 498.28125 C 493.74284 505.86419 502.55243 514.14215 501.1875 525.03125 C 495.63679 544.35258 477.79094 556.18175 460.5625 564.25 C 441.87814 572.74289 427.59572 589.8202 422.5 609.6875 C 423.31895 616.81546 426.15069 623.52095 428.03125 630.40625 C 436.1905 626.00815 443.33893 619.95878 451.4375 615.5 C 460.93134 610.22228 472.12746 610.95132 482.53125 609.34375 C 487.23267 610.13238 491.92357 610.89796 496.625 611.65625 C 496.625 612.96053 496.62588 615.57165 496.65625 616.90625 C 484.79653 619.36313 472.13172 620.68914 462.03125 627.96875 C 453.93267 634.09577 446.60307 641.58521 441.75 650.59375 C 435.8353 661.11886 437.818 673.69268 438 685.21875 C 441.88246 688.91921 445.67176 692.7453 449.28125 696.71875 C 456.53054 680.06663 470.77515 660.6617 491.21875 662.90625 C 488.73155 674.43231 478.54792 681.88205 473.9375 692.4375 C 465.74793 712.2138 465.41051 735.71914 476.90625 754.3125 C 479.8181 764.32199 481.28213 774.62838 481.3125 785.0625 C 475.24615 781.66535 469.58107 777.43114 462.96875 775.15625 C 451.89766 773.67 440.63176 774.59188 429.5 774.53125 C 410.99764 759.85069 393.91499 743.44994 377.6875 726.3125 C 368.40598 717.06131 369.16182 703.23011 367.28125 691.21875 C 365.795 675.3249 362.09375 659.60984 362.09375 643.625 C 366.73451 621.24016 382.3407 603.67888 392.5625 583.78125 C 397.20326 574.43906 403.15242 565.84769 408.1875 556.6875 C 413.61687 546.92067 410.76834 535.3367 412.40625 524.78125 C 414.13516 519.10921 419.47326 515.7005 422.71875 510.96875 C 424.75099 503.20381 424.57437 494.98644 427.03125 487.3125 C 430.54972 479.69924 435.65246 472.96438 439.65625 465.59375 C 434.77284 465.89707 429.12052 464.21774 424.84375 467.28125 C 414.89494 474.68219 406.67746 485.15774 404.28125 497.59375 C 402.704 506.75395 394.30065 512.21851 390.8125 520.46875 C 388.26462 531.26685 389.8889 542.79014 386.21875 553.40625 C 381.30501 563.05175 372.98264 570.74971 369.3125 581.0625 C 366.49164 589.3734 367.19597 599.41341 360.25 605.84375 C 347.20735 619.12905 338.09675 635.53354 329.9375 652.125 C 325.4484 661.1942 338.9779 665.49884 340.3125 673.71875 C 342.49639 691.79648 344.2224 709.9572 345.375 728.15625 C 359.14562 735.28421 367.60723 748.72855 378.375 759.375 C 388.93045 770.05178 398.40042 781.92894 409.5625 791.96875 C 424.66773 791.60476 439.86354 789.60934 454.96875 791.15625 C 462.00572 792.2482 468.62663 798.19126 475.90625 795.21875 C 487.55365 792.18558 498.09803 786.14532 509.59375 782.6875 C 512.77859 784.81072 512.98158 789.03482 514.4375 792.25 C 448.07163 831.71161 380.73077 869.61561 314.03125 908.53125 C 299.19901 917.53979 282.959 924.67889 270.25 936.78125 C 271.15995 1007.1509 270.47335 1077.5368 270.625 1147.9062 C 327.61837 1161.4343 383.84674 1178.2486 439.6875 1195.75 C 474.72068 1203.7576 508.86298 1215.221 543.5625 1224.5938 C 566.55398 1230.5689 588.93131 1239.203 612.46875 1242.8125 C 617.41282 1243.7831 622.20575 1241.6884 626.9375 1240.6875 C 626.02755 1221.8211 619.6018 1202.1026 627.09375 1183.8125 C 618.72219 1167.7367 624.19766 1148.6623 622.46875 1131.3125 C 620.25453 1116.6926 635.70035 1107.2681 636.125 1093.4062 C 631.7269 1086.9153 622.16726 1082.8266 622.53125 1074 C 622.07627 1054.5877 622.70681 1035.1623 622.3125 1015.75 C 610.7561 1008.0154 603.92782 993.23996 589.15625 990.84375 C 495.43114 969.42954 401.13229 950.63112 307.4375 929.15625 C 377.59485 890.84724 446.11656 849.54708 516.03125 810.84375 C 522.15826 807.05229 529.61286 808.33365 536.4375 808 C 540.28964 798.47583 540.2042 787.29621 534.5625 778.5 C 529.4971 770.61374 527.88863 760.00574 533.5 751.9375 C 540.38531 743.47494 548.56398 732.50454 561 734.71875 C 578.22843 735.93203 596.98854 737.26224 612.09375 727.34375 C 616.76484 722.39968 615.9934 713.7878 621.96875 709.875 C 630.30999 704.50627 638.57236 699.00566 647.15625 694.03125 C 647.3079 695.66916 647.59926 698.98709 647.78125 700.625 C 641.32059 704.71979 634.49555 708.44836 629.1875 713.96875 C 628.12589 735.4133 634.54971 756.74113 632.0625 778.125 C 622.32601 797.35534 614.42225 817.903 601.53125 835.34375 C 590.36916 847.62811 577.88359 858.68898 566.8125 871.125 C 565.84189 879.61789 567.09034 890.72323 557.6875 895 C 547.73868 898.00285 537.25121 898.55971 526.96875 899.5 C 509.58865 916.94076 494.53261 936.48566 479.09375 955.625 C 521.43688 966.36244 564.12471 975.45374 606.4375 986.3125 C 613.62613 987.49544 623.37945 991.25387 628.6875 984.15625 C 638.30268 973.35815 647.53922 962.19973 658.125 952.28125 C 678.53828 931.23101 703.94331 916.06858 725.8125 896.65625 C 716.68265 893.38042 707.02876 895.99913 697.65625 895.96875 C 668.26479 896.66639 638.81884 893.21341 610.125 886.84375 C 610.33732 885.2665 610.78769 882.10851 611 880.53125 C 626.62086 881.95685 642.31756 881.46045 657.96875 882.21875 C 673.92325 886.49553 690.55469 883.45863 706.8125 884.15625 C 723.00966 883.88326 740.21187 886.54431 755.46875 879.75 C 767.75311 871.5301 773.22491 856.95436 782.71875 846.15625 C 796.5197 841.87947 810.76706 839.10673 824.75 835.40625 C 834.78981 833.28304 839.98688 823.24278 848.84375 818.875 C 872.95749 805.46836 897.18131 792.25132 920.71875 777.84375 C 927.66473 773.83995 934.60086 768.45679 943.09375 769.09375 C 957.50134 769.4274 971.4665 765.16268 985.84375 765.375 C 987.78499 761.79585 989.77752 758.20322 991.71875 754.59375 C 969.51591 738.76057 948.44455 721.36538 927 704.53125 C 915.41327 696.00803 904.51976 683.59185 888.65625 685.59375 C 881.98326 684.80512 875.32924 684.32997 868.65625 683.875 C 851.97379 666.85889 835.76884 649.36908 819.875 631.625 C 820.57263 600.01931 823.90438 568.57353 823.84375 536.9375 C 823.4191 524.65314 830.27787 509.70065 819.84375 499.8125 C 802.70631 486.83051 781.1981 497.80495 764 504.78125 C 757.56966 504.20495 751.15184 503.15169 744.8125 501.96875 C 742.14331 517.89292 740.81727 534.23945 734.78125 549.375 C 727.98694 572.3058 710.85895 590.29458 693.8125 606.21875 C 682.98407 614.25666 671.81916 603.29706 663.78125 596.59375 C 673.03242 594.80417 683.17349 594.41377 690.96875 588.46875 C 703.76875 578.27729 714.5945 565.22563 720.8125 549.96875 C 733.18786 518.78771 730.28495 484.75738 729.375 451.96875 C 729.13235 441.38296 725.32361 431.34955 722.59375 421.21875 C 717.1037 405.65856 709.51036 391.05003 700.5625 377.21875 C 684.42601 376.7941 677.11306 395.41137 676.71875 409 C 676.62776 413.82275 671.04516 423.75293 666.34375 417.65625 C 660.42905 406.52449 665.0165 393.74114 666.59375 382.09375 C 668.98996 378.45394 671.3832 374.82547 673.71875 371.125 z M 558.21875 541.75 C 558.80546 541.7329 559.38317 541.73958 559.96875 541.75 C 567.77651 541.88892 575.44698 544.45423 581.4375 549.78125 C 598.84793 564.03717 600.96451 591.63919 588.4375 609.65625 C 584.67636 613.93303 578.56449 613.3612 573.46875 613.9375 C 578.01851 598.86261 580.2061 582.27799 572.5625 567.71875 C 568.10374 555.8287 556.31555 550.12885 546.09375 544.0625 C 549.98523 542.66913 554.11176 541.86971 558.21875 541.75 z M 791.4375 549.375 C 792.89342 550.67926 795.82624 553.32074 797.3125 554.625 C 793.88501 567.94064 787.21434 579.99046 780.875 592.0625 C 770.53187 615.72127 761.7346 640.02688 754 664.65625 C 738.40949 704.51217 715.8748 741.23889 691.09375 775.96875 C 684.69375 785.03795 679.2134 794.73134 673.875 804.4375 L 679.09375 806.625 C 677.78949 807.71694 675.11585 809.84556 673.78125 810.9375 C 664.71205 811.93845 654.99931 812.03206 646.71875 816.1875 C 641.01638 821.88988 636.82186 828.94929 630.9375 834.5 C 634.33466 820.75973 642.88492 809.25311 649.40625 796.96875 C 656.53421 796.48344 663.57701 795.29511 670.25 792.65625 C 682.68601 766.26762 699.84888 742.56416 713.4375 716.8125 C 717.31996 702.58691 726.19285 690.49305 731.53125 676.84375 C 741.9957 650.84944 752.33241 624.81324 763.3125 599.03125 C 771.1381 583.13741 779.74431 567.55562 785.75 550.8125 L 791.4375 549.375 z M 509.09375 562.375 C 518.55478 562.12374 528.77029 565.64049 536.34375 570.28125 C 549.90204 578.59215 556.81565 602.52541 543.5 613.6875 C 533.42986 617.5093 534.92005 607.11507 534.34375 600.59375 C 531.85655 593.82977 530.59395 585.14531 523.375 581.6875 C 512.24324 576.92541 499.98655 575.86864 488.1875 573.59375 C 492.99318 565.7312 500.74578 562.5967 509.09375 562.375 z M 296.40625 938.96875 C 297.78587 938.92562 299.17023 939.17278 300.40625 939.71875 C 334.16549 949.36424 369.16262 953.47037 403.4375 960.75 C 431.76736 967.84762 463.14174 965.93795 488.46875 982.46875 C 506.24315 994.75311 522.74881 1010.0399 532 1029.9375 C 541.37251 1043.7385 545.55054 1060.0627 546.1875 1076.5938 C 551.16191 1108.5632 539.0247 1144.6953 510.9375 1162.5 C 485.9138 1175.9976 456.11662 1184.3449 427.96875 1176.125 C 381.6825 1162.3544 335.34691 1148.7761 289 1135.1875 C 291.36588 1072.3098 288.08454 1009.3456 288.8125 946.4375 C 288.22103 941.774 292.26739 939.09813 296.40625 938.96875 z "
     transform="scale(0.8,0.8)"
     id="path20" />
  <path
     d="m 349.39754,332.84853 c 7.40094,-10.89517 13.85554,-22.49403 22.3727,-32.58844 3.27583,9.26939 4.75602,19.09688 8.25023,28.29346 3.51849,8.80835 13.66143,11.89005 18.63583,19.58218 2.35375,3.66408 3.00891,8.03185 4.02806,12.2055 -10.24,2.6692 -19.46085,-1.57725 -28.05081,-6.62445 -4.44056,-2.76626 -8.34729,0.89782 -11.62312,3.54275 0,3.61554 -0.0485,7.25535 -0.16986,10.89516 -9.92455,-1.43166 -17.66521,-7.81346 -25.09043,-14.00114 1.01915,-8.42009 7.32815,-14.43791 11.6474,-21.30502 z"
     id="path22"
     style="fill:#f5e5c1" />
  <path
     d="m 725.65687,308.75299 c 5.21706,0.0485 10.43413,0.14559 15.65119,0.31545 9.77895,9.19658 8.80834,23.53744 6.60019,35.62161 -5.1928,12.95772 -16.6218,21.7418 -25.43015,32.10313 0.0485,7.18255 0.82503,15.2144 -4.10085,21.15943 -5.94502,7.0127 -12.56948,13.4673 -19.38806,19.63071 -7.15829,6.35753 -17.01004,7.35241 -26.13383,8.12891 2.54786,-9.00247 4.48909,-19.26673 -0.82503,-27.68683 -5.55678,-7.44948 -14.75336,-11.28341 -23.75583,-12.52095 6.55166,-6.96417 12.95773,-14.07393 19.04834,-21.45061 1.23754,0.50957 3.71261,1.50445 4.97441,1.98976 1.38313,4.00379 2.81479,7.98332 4.31924,11.96285 7.95906,-2.6692 8.44436,-11.84152 8.95394,-18.97555 0.72796,-7.40095 -2.40228,-14.29232 -3.3001,-21.49915 4.27071,-6.13914 9.51204,-12.0599 16.23356,-15.57839 10.67677,-1.69857 19.36379,9.29365 19.72777,19.33953 1.77137,-0.0728 3.56701,-0.12133 5.36265,-0.19412 1.8927,-4.68322 4.07659,-9.26939 5.31413,-14.171 1.55298,-6.309 -1.4074,-12.32682 -3.25157,-18.17478 z"
     id="path24"
     style="fill:#f5e5c1" />
  <path
     d="m 450.02616,312.53839 c 21.01384,-0.41251 41.80929,-4.4163 62.89593,-3.66408 -14.26806,18.34465 -28.58465,36.76209 -40.45043,56.73251 -7.7892,9.97309 -16.84019,22.34844 -30.93839,21.98446 -8.44436,1.91697 -13.85554,-5.26559 -18.70863,-10.7981 3.61555,-4.4891 6.57593,-9.65763 11.04076,-13.37024 3.61555,-0.55811 7.23109,-0.89782 10.8709,-1.04341 -6.64872,-2.96038 -12.10843,-7.7892 -17.1799,-12.9092 -1.31033,-8.05611 7.27962,-11.52606 11.23488,-17.20417 5.28986,-5.65384 6.81858,-13.63716 11.23488,-19.72777 z"
     id="path26"
     style="fill:#f5e5c1" />
  <path
     d="m 337.31336,417.14654 c 6.96418,-7.27962 17.42256,-6.23621 26.61915,-6.64872 8.58995,0.29118 18.46597,-1.62578 25.38161,4.75602 0.24266,3.54275 0.50958,7.0855 0.80076,10.62825 -12.37535,4.27071 -25.5272,-0.36399 -38.24227,-0.1456 -6.3818,0.55811 -10.9437,-3.97952 -14.55925,-8.58995 z"
     id="path28"
     style="fill:#f5e5c1" />
  <path
     d="m 760.79318,620.51488 c 9.73042,-1.72284 19.7035,0.16986 29.53099,-0.0243 5.41119,6.04209 10.65251,12.25403 15.84531,18.49024 1.69858,36.34957 7.61934,72.3837 11.04076,108.61195 2.06256,13.70995 1.8927,27.78388 5.89649,41.17838 1.21327,17.73801 -1.98976,35.37896 -1.52872,53.14124 -0.46104,12.1327 1.62578,25.09042 -4.19792,36.32531 -5.92075,12.39962 -10.7253,25.43014 -18.12625,37.05327 -0.19412,3.37289 -0.33972,6.79431 -0.48531,10.19146 -89.07829,20.94105 -178.35071,40.98427 -267.45327,61.82825 -3.44569,0.65517 -6.47886,2.40228 -9.29365,4.44057 -4.02806,0.16986 -8.08038,0.26692 -12.10843,0.38825 -0.26692,-13.66143 0.43677,-27.34711 -0.26692,-40.98427 -2.37801,-17.78654 -2.91185,-35.74294 -3.32436,-53.65081 6.33327,-3.1545 12.73933,-6.18767 19.16966,-9.12379 0,-4.27071 0,-8.51715 -0.0243,-12.7636 -5.16853,-6.60019 -10.62825,-12.98199 -17.13138,-18.29611 -0.16985,-19.63071 -1.09194,-39.28569 -0.43677,-58.89213 9.07526,-11.62313 19.8491,-21.8874 29.65232,-32.92816 12.66654,-14.21952 28.99716,-24.31393 43.58066,-36.37384 8.73555,-6.28473 16.88872,-16.20928 28.9001,-14.41364 11.72019,-7.35242 13.4673,-21.81461 18.68436,-33.462 10.74957,-3.61554 21.88739,-7.10976 33.34066,-5.09573 -2.62066,13.41876 -6.77005,26.47355 -10.50692,39.6254 13.29744,5.53251 25.50294,13.27318 37.1746,21.64474 -7.32815,25.16323 -16.84019,49.64702 -25.43014,74.39773 10.31279,6.04208 21.83886,10.70104 33.8017,11.74445 -6.84284,-5.82369 -14.5835,-10.36132 -22.10578,-15.21441 8.78408,-23.10066 16.74313,-46.54104 23.1492,-70.39393 -6.86711,-13.41877 -22.34844,-20.43147 -35.18484,-27.58976 3.44569,-13.03053 8.3473,-25.60001 13.05479,-38.19375 27.39564,-18.56303 54.76701,-37.53858 84.78332,-51.66104 z"
     id="path36"
     style="fill:#f5e5c1" />
  <path
     style="fill:#f5e5c1"
     d="M 425.96875 976.96875 C 417.57355 976.95364 409.16958 977.97547 401.09375 979.875 C 374.18948 988.33756 354.1619 1013.0194 349.1875 1040.5 C 337.6311 1099.8896 385.20507 1163.2434 445.65625 1168.1875 C 480.78043 1171.3723 515.28741 1146.7905 524.78125 1113.0312 C 539.8258 1063.9241 511.2945 1008.7644 466.3125 986.53125 C 453.93336 979.89618 439.96075 976.99393 425.96875 976.96875 z M 426.5625 989.90625 C 440.56931 990.03777 454.62397 994.12411 466.71875 1001.0625 C 491.86377 1016.1374 511.08255 1041.5948 516.90625 1070.5312 C 519.09012 1090.0952 519.03895 1111.9095 506.90625 1128.5312 C 494.25791 1148.9749 469.72403 1159.7574 446.15625 1158.9688 C 395.35056 1156.4209 355.18371 1105.0915 359.1875 1055.4688 C 359.61215 1029.0498 376.88071 1003.4084 401.84375 994.1875 C 409.77171 991.18465 418.15841 989.82734 426.5625 989.90625 z "
     transform="scale(0.8,0.8)"
     id="path40" />
  <path
     d="m 328.77194,801.85024 c 12.52095,-1.28607 25.21176,0.67943 37.07754,4.70749 3.66407,1.1162 6.04208,4.95014 6.11488,8.68701 0.5581,9.19659 0.0728,18.41744 0.43678,27.61403 10.60398,2.86332 22.97933,2.49933 31.59355,10.26426 -0.5581,12.22977 -0.29118,24.45953 -0.24265,36.71356 -10.48266,0.19412 -20.74692,-2.32948 -31.05972,-3.76114 -0.89782,9.02673 -0.43677,18.12626 -1.52872,27.15299 -0.80076,3.51848 -2.49933,8.75981 -7.0855,7.95905 -12.25402,-0.12133 -24.70218,-3.27583 -34.94218,-10.16721 1.60152,-11.81725 2.13536,-23.80436 0.0728,-35.59734 -9.87602,-2.45081 -21.71754,-3.08171 -29.28834,-10.36133 -0.97062,-11.67166 -1.79564,-23.87716 0.58237,-35.40322 9.19659,-2.98465 18.90275,1.04341 28.1964,1.62578 0.14559,-9.80322 0.0971,-19.63071 0.0728,-29.43393 z"
     id="path44"
     style="fill:#f4722b" />
  <path
     d="m 880.61573,868.4345 c 6.16342,-11.04076 21.06237,-9.85175 31.39944,-6.55166 10.74957,3.59128 8.25023,17.3983 10.55545,26.15811 0.12132,14.70483 2.59639,29.89497 -2.47507,44.1145 -14.48645,4.73175 -28.75451,11.5746 -44.11451,12.7636 -12.98199,-1.91696 -24.02275,-9.87602 -35.96132,-14.87469 12.01137,-21.49915 28.14786,-40.35336 40.59601,-61.60986 z"
     id="path46"
     style="fill:#f5e5c1" />
  <path
     d="m 807.28569,930.26275 c 9.92455,-1.43166 19.0726,2.76625 25.69706,9.99734 0.89782,4.12512 1.98976,8.20171 3.13024,12.2783 -10.24,3.20303 -20.96531,4.31924 -31.61782,4.85308 -1.86844,-3.08171 -6.57593,-5.70237 -4.65896,-9.80322 1.8199,-6.04209 4.58616,-11.72019 7.44948,-17.3255 z"
     id="path48"
     style="fill:#f5e5c1" />
</svg>
