<?xml version="1.0" encoding="UTF-8" standalone="no"?>
<svg
   xmlns:dc="http://purl.org/dc/elements/1.1/"
   xmlns:cc="http://creativecommons.org/ns#"
   xmlns:rdf="http://www.w3.org/1999/02/22-rdf-syntax-ns#"
   xmlns:svg="http://www.w3.org/2000/svg"
   xmlns="http://www.w3.org/2000/svg"
   xmlns:sodipodi="http://sodipodi.sourceforge.net/DTD/sodipodi-0.dtd"
   xmlns:inkscape="http://www.inkscape.org/namespaces/inkscape"
   width="1280"
   height="1280"
   viewBox="0 0 1024 1024"
   version="1.1"
   id="svg2"
   inkscape:version="0.48.1 "
   sodipodi:docname="achieve_progress3.svg">
  <metadata
     id="metadata234">
    <rdf:RDF>
      <cc:Work
         rdf:about="">
        <dc:format>image/svg+xml</dc:format>
        <dc:type
           rdf:resource="http://purl.org/dc/dcmitype/StillImage" />
        <dc:title />
      </cc:Work>
    </rdf:RDF>
  </metadata>
  <defs
     id="defs232" />
  <sodipodi:namedview
     pagecolor="#ffffff"
     bordercolor="#666666"
     borderopacity="1"
     objecttolerance="10"
     gridtolerance="10"
     guidetolerance="10"
     inkscape:pageopacity="0"
     inkscape:pageshadow="2"
     inkscape:window-width="1920"
     inkscape:window-height="1018"
     id="namedview230"
     showgrid="false"
     fit-margin-top="0"
     fit-margin-left="0"
     fit-margin-right="0"
     fit-margin-bottom="0"
     inkscape:zoom="0.6609375"
     inkscape:cx="640"
     inkscape:cy="640"
     inkscape:window-x="-8"
     inkscape:window-y="-8"
     inkscape:window-maximized="1"
     inkscape:current-layer="layer1"
     inkscape:snap-page="true" />
  <g
     inkscape:groupmode="layer"
     id="layer2"
     inkscape:label="background">
    <rect
       style="fill:#3e3e3e;fill-opacity:1;fill-rule:nonzero;stroke:none"
       id="rect3129"
       width="1280"
       height="1280"
       x="0"
       y="0"
       transform="scale(0.8,0.8)" />
  </g>
  <g
     inkscape:groupmode="layer"
     id="layer1"
     inkscape:label="foreground">
    <path
       style="fill:#f4e4c0"
       d="M 645.15625 565.3125 C 642.30625 565.5625 639.48125 565.79375 636.65625 566.09375 C 633.08125 569.54375 629.45 572.9625 625.75 576.3125 C 620.85 572.6375 613.0125 571.94375 612.0625 579.46875 C 612.08083 579.51173 612.107 579.55083 612.125 579.59375 C 607.50381 579.03983 598.43637 577.70394 597.25 575.71875 C 595.075 575.84375 590.73125 576.0625 588.53125 576.1875 C 587.88125 577.1875 586.51875 579.19375 585.84375 580.21875 C 589.54375 583.46875 593.19375 586.76875 596.84375 590.09375 C 594.51875 592.16875 592.2 594.24375 589.875 596.34375 C 596.125 599.04375 602.2375 602.0875 608.4375 604.9375 C 608.6875 605.9875 609.15625 608.075 609.40625 609.125 C 606.10625 612.375 602.93125 615.6875 599.90625 619.1875 C 606.25625 619.1875 612.61875 618.9125 618.96875 618.6875 C 618.96875 617.49524 618.93782 615.08286 618.9375 613.875 C 623.66723 614.69727 632.05669 615.81777 632.3125 616.28125 C 634.7625 616.03125 639.70625 615.5375 642.15625 615.3125 C 639.10625 612.8625 636.04375 610.4625 632.96875 608.0625 C 642.71875 604.3625 651.50625 598.525 659.28125 591.625 C 659.23125 590.5 659.18125 588.21875 659.15625 587.09375 C 654.25625 585.04375 649.41875 582.8875 644.59375 580.6875 C 643.79375 579.3375 642.2125 576.6625 641.4375 575.3125 C 642.7125 571.9875 643.95625 568.6625 645.15625 565.3125 z "
       transform="scale(0.8,0.8)"
       id="path98" />
    <path
       style="fill:#f4e4c0"
       d="M 443.34375 471.1875 C 443.59375 473.0125 444.0625 476.6375 444.3125 478.4375 L 442.40625 479.4375 C 440.10625 480.6625 437.8 481.9375 435.5 483.1875 C 441.925 498.3625 448.53125 513.76875 449.40625 530.46875 C 450.63125 530.56875 453.09375 530.8125 454.34375 530.9375 C 454.34375 534.8625 454.20625 538.8 454.03125 542.75 C 453.98125 543.875 453.8625 546.09375 453.8125 547.21875 C 451.2875 549.31875 448.65625 551.375 446.40625 553.75 C 446.08125 565 450.7125 576.46875 460.4375 582.71875 C 461.6625 588.36875 462.8375 594.05625 463.8125 599.78125 C 460.5125 605.25625 460.625 611.7 460.5 617.875 C 460.99435 624.28955 461.60854 630.64299 464 633.4375 C 466.36113 637.10902 468.68183 640.82503 471 644.5625 C 466 658.7375 459.7 673.4375 461.5 688.8125 C 465.15 695.6625 471.4875 700.70625 475.6875 707.28125 C 475.84314 708.76763 475.2509 710.26113 476.4375 713.21875 C 479.17332 721.61963 476.8985 730.16877 473.78125 738.125 C 473.74675 738.1476 473.68955 738.19755 473.65625 738.21875 L 472.59375 757.375 C 474.2607 758.52486 479.67528 768.10863 483.375 773.28125 C 483.78003 785.82692 485.39695 798.71787 481.65625 810.9375 C 478.5981 818.64056 484.7335 823.46125 488.28125 833.25 C 488.60625 839.675 488.9125 846.10625 489.1875 852.53125 C 490.4875 853.28125 493.1125 854.78125 494.4375 855.53125 C 493.6125 856.43125 491.9875 858.2875 491.1875 859.1875 C 490.9625 868.6375 491.5125 878.05 491.3125 887.5 C 478.2625 880.9 466.2625 872.5125 453.5625 865.3125 C 453.4625 866.6125 453.2875 869.225 453.1875 870.5 C 462.6375 876.35 472.26875 881.85625 481.84375 887.53125 C 486.66875 890.58125 492.775 894.1125 493.125 900.5625 C 494.11914 911.54658 493.59538 922.5914 493.8125 933.625 C 493.63758 936.2884 493.2337 952.88662 493.59375 958.4375 C 492.79375 992.1375 494.14375 1025.8625 494.34375 1059.5625 C 497.84375 1107.9125 495.6 1156.525 495.875 1205 C 495.925 1215.35 493.2875 1225.4688 493.1875 1235.8438 C 492.0375 1238.5186 490.91875 1241.2375 489.84375 1243.9375 C 493.54375 1243.8125 497.24375 1243.7125 500.96875 1243.5625 C 502.41875 1236.7625 499.9125 1225.4375 508.4375 1222.8125 C 507.6375 1212.5125 512.61875 1202.9 511.34375 1192.625 C 511.86875 1172.65 510.9375 1152.5684 513.6875 1132.7188 C 512.0125 1130.4434 510.625 1128.025 509.5 1125.5 C 507.925 1105.35 511.3 1084.6875 506 1064.9375 C 505.95 1054.0625 505.45 1043.2375 504.25 1032.4375 C 507.67322 1012.4229 504.18504 992.28337 504.28125 972.21875 C 504.2813 972.20829 504.2812 972.19796 504.28125 972.1875 C 504.47314 964.91952 503.90889 943.41394 503.6875 938.8125 C 504.15423 927.35611 503.66495 915.89489 503.6875 904.4375 C 510.0125 909.7625 516.03125 915.4375 522.53125 920.5625 L 512.3125 927.3125 C 518.4375 930.2625 524.45 933.4375 530.125 937.1875 C 533.725 939.2625 537.9125 942.6375 542.1875 940.0625 C 544.2125 937.6125 545.9125 934.90625 547.6875 932.28125 C 555.4375 929.03125 563.15 925.66875 570.875 922.34375 C 572.2 942.46875 569.24375 962.5875 566.09375 982.4375 C 567.24375 984.4625 568.4125 986.4875 569.5625 988.5625 C 574.0625 988.5625 578.5625 988.58105 583.0625 988.53125 C 588.3875 973.63125 584.34375 957.61875 587.34375 942.34375 C 589.09375 933.86875 589.00625 925.23125 588.65625 916.65625 C 607.40625 912.70625 626.0375 907.9125 645.1875 906.4375 C 647.8375 906.1625 650.3875 905.45 652.8125 904.25 C 658.7125 903.775 665.0625 904.9 670.5625 902.125 C 656.7625 896.425 641.7625 899.6375 627.4375 900.6875 C 614.2625 901.0125 601.88125 906.2875 588.78125 907.3125 C 588.85625 903.8375 588.8875 900.39375 588.9375 896.96875 C 594.8875 886.96875 606.23125 883.075 615.28125 876.625 C 606.48125 874.525 599.6375 880.8875 593.0625 885.5625 C 593.3875 874.3125 593.5625 862.9875 597.0625 852.1875 C 599.3125 845.7625 598.5125 838.9125 597.6875 832.3125 C 597.6875 816.3125 606.3625 783.85 605.6875 767.875 C 606.55782 760.04042 607.9375 750.375 608.6875 745.1875 C 612.7125 719.3875 616.9375 693.6125 619.9375 667.6875 C 622.2125 655.7625 621.64375 643.0625 626.96875 631.9375 C 626.44375 630.7625 625.36875 628.4625 624.84375 627.3125 C 624.26875 626.1125 623.1375 623.66875 622.5625 622.46875 C 611.6375 616.26875 607.33125 629.1625 606.90625 637.6875 C 606.73125 648.9375 600.1875 658.81875 601.0625 670.21875 C 601.0875 677.49375 599.5125 684.65625 596.9375 691.40625 C 590.41277 734.21065 582.25508 767.87997 578.0625 812.1875 C 579.7125 812.6375 583.0375 813.5875 584.6875 814.0625 C 583.3625 826.7375 584.3375 839.65625 581.4375 852.15625 C 578.6875 866.00625 576.525 879.99375 575.75 894.09375 C 570.25 900.24375 563.975 905.625 557 910 C 562.125 900.15 571.09375 892.84375 575.34375 882.46875 C 563.79375 884.04375 558.40625 895.7875 550.03125 902.5625 C 546.53125 899.4625 543.0625 896.3875 539.5625 893.3125 C 538.5875 889.7625 537.56875 886.25 536.59375 882.75 C 534.34375 883.075 532.09375 883.43125 529.84375 883.78125 C 526.74375 894.15625 524.76875 904.8375 526.21875 915.6875 C 518.99375 908.3875 511.575 901.30625 503.75 894.65625 C 503.525 876.20625 499.8625 857.96875 500.6875 839.46875 C 499.2546 832.05324 494.10732 823.53501 493.3125 814.03125 C 494.17879 802.67026 500.01599 792.71905 507.5625 784.4375 C 504.8625 783.1625 502.20625 781.84375 499.53125 780.59375 C 499.17253 778.48627 498.82332 776.41102 498.46875 774.34375 C 498.53185 772.21308 494.3167 765.81621 493.6875 762.25 C 492.4125 759.35 491.1625 756.4375 489.9375 753.5625 C 489.62067 749.00367 490.67102 740.3799 490.0625 735.8125 C 493.86118 729.1904 494.48254 721.63025 493.5 714.1875 C 494.17552 710.47851 492.04576 694.27129 489.65625 690.46875 C 486.18125 685.41875 483.45 679.85625 482.375 673.78125 C 479.2 664.00625 486.59375 654.8625 484.21875 644.9375 C 484.26405 639.20547 483.83137 628.83355 476.84375 628.78125 C 476.12089 628.77625 475.30703 628.86175 474.4375 629.09375 C 474.4285 629.08975 474.41545 629.09775 474.40625 629.09375 C 469.9477 627.28733 471.96549 614.03715 472.96875 613.71875 C 475.79375 605.24375 477.51875 596.325 476.09375 587.375 C 475.79375 576.15 460.4125 569.7625 464.9375 557.6875 C 470.8125 537.4625 462.96875 517.16875 460.71875 497.09375 C 462.84375 490.06875 471.79375 487.2125 471.96875 479.6875 C 468.84375 478.7875 465.7625 477.81875 462.6875 476.84375 C 459.8625 476.54375 457.01875 476.2375 454.21875 475.9375 C 452.26875 474.4375 450.33125 472.9375 448.40625 471.4375 C 447.15625 471.3875 444.61875 471.2625 443.34375 471.1875 z "
       transform="scale(0.8,0.8)"
       id="path112" />
    <path
       d="M 0,0 0.04,0 C 0.04,0.04 0.02,0.14 0,0.2 L 0,0 z"
       id="path4"
       inkscape:connector-curvature="0"
       style="fill:#f3722b" />
    <path
       style="fill:#f3722b"
       d="M 182.40625 53.8125 C 178.9421 53.855804 175.25469 56.203125 171.9375 57.0625 C 172.6625 58.4125 174.0875 61.11875 174.8125 62.46875 C 185.5125 65.81875 192.59375 74.8125 200.34375 82.3125 C 218.79375 101.5125 235.2 122.6375 250.125 144.6875 C 280.4 188.4875 307.9125 234.09375 335.3125 279.71875 C 344.0625 294.09375 350.84375 309.4875 357.71875 324.8125 C 363.81875 334.6875 364.9875 346.44375 369.5625 356.96875 C 353.7125 338.74375 337.1125 321.15625 321.6875 302.53125 C 321.5875 301.05625 321.40625 298.13125 321.28125 296.65625 C 313.30625 286.95625 302.075 280.4375 295.125 269.8125 C 276.4 246.4875 258.0875 222.08125 233.9375 204.03125 C 228.4125 205.95625 223.03125 208.16875 217.78125 210.71875 C 229.85625 222.54375 244.25625 231.8625 254.90625 245.1875 C 289.95625 286.8625 323.14375 330.1125 354.96875 374.3125 C 328.14375 351.3625 303.3125 326.19375 276.0625 303.71875 C 266.7375 295.19375 255.98125 288.28125 247.40625 278.90625 C 245.38125 278.90625 241.3375 278.9 239.3125 278.875 C 239.0375 280.175 238.49375 282.7625 238.21875 284.0625 C 197.99375 251.9125 157.6125 219.89375 117.3125 187.84375 C 113.8125 188.89375 110.35 189.99375 106.875 191.09375 C 81.6 176.91875 55.93125 163.3625 31.53125 147.6875 C 29.45625 150.5625 23.7 155.3125 29.5 157.5625 C 54.7 174.2375 80.74375 189.64375 105.96875 206.34375 C 136.84375 228.79375 168.14375 250.78125 198.71875 273.65625 C 230.11875 299.65625 263.71875 323.19375 292.71875 351.96875 C 308.54375 366.21875 323.85 381.0125 339.625 395.3125 C 346.5 400.9375 346.65 410.375 347.125 418.5 C 337.3 412.125 327.15 406.25 317.125 400.25 C 292.625 384.525 265.1375 374.5375 239.4375 361.0625 C 228.7125 357.0375 219.25 348.73125 207.375 348.53125 C 200.275 348.13125 193.29375 346.06875 186.96875 342.84375 C 181.81875 336.36875 181.0125 327.3125 181.9375 319.3125 C 177.4125 317.3375 172.8 315.55625 168.125 314.03125 C 168.575 322.70625 171.775 330.8375 174.625 338.9375 C 166.95 338.9125 159.25 338.9625 151.625 340.0625 C 158 346.5875 167.625 346.8375 175.875 349.3125 C 181.975 367.8625 183.2625 387.4875 186.1875 406.6875 C 189.7625 428.4875 192.29375 450.4125 195.96875 472.1875 C 197.16875 479.5125 197.21875 486.975 197.09375 494.375 C 185.56875 497.575 173.9125 500.29375 162.4375 503.71875 C 154.0125 482.94375 145.0375 462.40625 135.6875 442.03125 C 132.8875 436.05625 128.375 431.1625 125 425.5625 C 106.225 391.6875 86.2125 358.16875 60.9375 328.71875 C 53.1875 327.19375 45.21875 329.01875 37.96875 331.84375 C 52.04375 345.46875 59.10625 364.05625 69.90625 380.03125 C 84.95625 402.48125 98.6625 425.85 110.5625 450.125 C 113.4375 456.85 117.15 463.93125 125.25 464.90625 C 131.45 480.48125 137.2 496.225 143.75 511.625 C 153.125 524.85 158.3 540.3375 165 554.9375 C 165.7 557.9875 169.3375 563.0875 164.8125 564.8125 C 147.6125 572.7125 129.85 579.43125 113.125 588.40625 C 107.925 590.85625 99.96875 595.49375 95.71875 589.09375 C 84.96875 575.74375 73.44375 563.0375 62.71875 549.6875 C 56.76875 547.6375 50.7125 545.3625 44.3125 546.1875 C 60.9125 562.9875 75.31875 581.6625 89.59375 600.4375 C 78.76875 608.0875 70.6125 618.91875 58.9375 625.46875 C 66.0875 629.64375 72.9625 625.73125 78.5625 621.03125 C 83.6125 616.08125 92.3875 617.21875 95.6875 610.34375 C 110.9875 630.11875 127.3125 649.9375 137.0625 673.1875 C 139.6125 674.5125 142.16875 675.88125 144.71875 677.28125 C 147.44375 679.98125 150.70625 682.00625 154.40625 683.15625 C 139.78125 656.28125 126.34375 628.53125 107.09375 604.53125 C 119.74375 596.83125 133.4125 590.96875 146.5625 584.21875 C 154.9625 580.36875 163.225 574.65 172.875 575.5 C 178.125 596.25 185.1625 616.5125 190.6875 637.1875 C 191.0375 639.8125 192.68125 643.0875 190.65625 645.4375 C 184.90625 651.6375 178.0375 656.68125 171.9375 662.53125 C 174.9375 666.10625 177.6375 670.0125 181.3125 672.9375 C 188.8125 677.1125 193.6375 668.05625 198.6875 664.15625 C 202.4625 676.00625 207.4375 687.5375 209.8125 699.8125 C 211.4125 708.1125 213.21875 716.4125 216.34375 724.3125 C 203.76875 716.7875 184.3125 710.85625 174.3125 725.40625 C 176.3625 727.20625 178.41875 729.01875 180.46875 730.84375 C 185.89375 728.91875 191.4 724.45 197.375 727 C 206.575 729.575 213.15 737.36875 222.25 740.21875 C 227.6 742.11875 232.9375 744.10625 238.1875 746.28125 C 234.3875 741.23125 229.96875 736.54375 227.09375 730.84375 C 226.61875 720.69375 227.925 710.36875 225.5 700.34375 C 221.825 684.19375 220.66875 667.6125 216.59375 651.5625 C 218.56875 646.3375 222.6 642.6625 227.75 640.6875 C 228 644.6375 228.2625 648.5875 228.5625 652.5625 C 232.6125 655.5875 236.11875 659.69375 235.84375 665.09375 C 237.16875 689.49375 238.6625 713.91875 242.4375 738.09375 C 244.5125 738.24375 248.70625 738.5 250.78125 738.625 C 249.00625 741.1 247.2375 743.5875 245.4375 746.0625 C 249.0375 751.3875 255.6375 749.41875 260.6875 747.71875 C 263.3875 745.41875 266.0125 743.01875 268.5625 740.59375 C 282.4875 715.79375 296.925 691.275 311.75 667 C 317.7 656.45 327.9875 649.34375 334.1875 638.96875 C 352.0125 610.89375 375.9625 587.575 397.4375 562.375 C 411.4125 546 425.49375 529.5 442.59375 516.25 C 438.86875 514.425 435.09375 510.18125 430.71875 512.90625 C 418.06875 518.75625 409.6125 530.45625 399.5625 539.65625 C 378.0625 559.88125 359.78125 583.06875 340.78125 605.59375 C 332.80625 615.11875 322.75 622.89375 316.375 633.71875 C 304.65 653.44375 292.0375 672.6125 278.9375 691.4375 C 273.9625 698.5375 270.26875 706.5625 264.34375 712.9375 C 264.44375 681.0375 270.34375 649.45625 272.46875 617.65625 C 273.89375 609.38125 272.525 598.44375 281 593.59375 C 297.225 582.34375 315.1875 573.9625 332.8125 565.1875 C 356.1375 553.4375 379.54375 541.8625 402.84375 530.0625 C 403.29375 528.8625 404.2375 526.48125 404.6875 525.28125 C 407.8875 522.48125 413.2125 520.975 414.5625 516.75 C 415.9875 510.6 406.8625 511.0875 403.0625 512.3125 C 386.3625 518.1125 371.01875 527.26875 355.21875 535.09375 C 329.56875 549.16875 302.78125 561.2125 278.15625 577.0625 C 278.13125 562.5125 279.50625 548.05 281.03125 533.625 C 318.50625 520.825 357.875 514.55 397.125 510 C 405.95 508.85 416.0375 511.1 423.3125 504.625 C 403.3375 502.05 382.9875 502.50625 362.9375 503.90625 C 335.8125 508.05625 309.09375 514.6125 282.71875 522.1875 C 283.16875 513.0375 282.5625 503.6625 284.8125 494.6875 C 300.3375 489.7625 316.6875 493.59375 332.5625 492.96875 C 361.8625 490.59375 391.3125 491.64375 420.6875 490.96875 C 420.8375 489.04375 421.09375 485.2375 421.21875 483.3125 C 425.99375 483.2625 430.75 483.2125 435.5 483.1875 C 437.8 481.9375 440.10625 480.6625 442.40625 479.4375 C 420.75625 478.3125 399.2625 472.1875 377.4375 475.0625 C 346.7875 475.1125 316.15625 474.99375 285.53125 476.71875 C 285.65625 456.66875 289.10625 436.81875 288.28125 416.71875 C 284.10625 415.54375 279.76875 415.18125 275.46875 415.53125 C 275.84375 423.58125 276.3875 431.64375 276.6875 439.71875 C 275.5625 450.44375 276.025 461.25625 275.5 472.03125 C 275.8 476.88125 271.1375 480.4375 266.6875 480.9375 C 249.5875 483.3625 232.24375 484.73125 215.59375 489.53125 C 214.71875 479.53125 215.10625 469.05 210.15625 460 C 205.73125 451.575 206.9125 441.81875 204.6875 432.84375 C 198.2625 407.04375 191.95 380.98125 190 354.40625 C 210.275 357.90625 229.8125 365.1 247.8125 375 C 278.4875 391.35 308.61875 408.61875 338.59375 426.21875 C 357.84375 439.69375 378.61875 450.84375 397.34375 465.09375 C 403.09375 469.29375 408.8125 474.7625 416.5625 473.8125 C 416.1125 469.0375 415.7125 464.275 415.4375 459.5 C 421.4125 457.55 428.5 454.24375 429.125 447.09375 C 428.9 439.81875 425.81875 433.0375 423.34375 426.3125 C 414.71875 405.9875 407.2 385.1375 397.375 365.3125 C 385.775 343.4875 380.5875 318.825 368.1875 297.375 C 371.2125 298.675 374.2625 300.0125 377.3125 301.3125 C 382.1875 300.4375 388.1125 295.4125 392.6875 299.3125 C 399.1125 307.0125 402.80625 316.55 406.78125 325.625 C 418.53125 356.65 429.7875 388.1625 434.1875 421.1875 C 435.3875 421.2875 437.79375 421.45625 438.96875 421.53125 C 439.44375 417.88125 439.98125 414.2125 440.53125 410.5625 C 441.60625 409.9375 443.8 408.6875 444.875 408.0625 C 440.5 380.2625 428.98125 354.31875 422.90625 326.96875 C 426.08125 326.44375 429.26875 325.8875 432.46875 325.3125 C 428.61875 324.8875 424.7875 324.50625 420.9375 324.15625 C 417.9375 312.90625 412.2875 302.59375 408.9375 291.46875 C 400.5625 289.76875 391.9375 286.74375 383.3125 288.59375 C 377.7375 290.34375 372.44375 292.84375 366.96875 294.84375 C 332.89375 232.71875 291.58125 174.8875 249.40625 118.0625 C 236.53125 99.6875 222.61875 81.84375 206.21875 66.46875 C 199.94375 62.54375 192.8375 60.13125 186.9375 55.53125 C 185.51562 54.242188 183.98087 53.792816 182.40625 53.8125 z M 272.1875 493.40625 C 271.6375 504.43125 272.375 515.6625 269.5 526.4375 C 254.7 531.8625 239.38125 535.575 224.15625 539.625 C 221.65625 526.975 219.95625 514.2 217.15625 501.625 C 235.10625 497.125 253.6125 493.63125 272.1875 493.40625 z M 199.09375 504.34375 C 199.24092 504.32665 199.39085 504.33535 199.53125 504.34375 C 201.96478 504.48935 203.39375 508.14062 203.3125 510.375 C 204.2625 522.25 207.88125 533.8875 208.15625 545.8125 C 200.30625 550.4875 191.5625 554.8 182.1875 554.5 C 177.9875 539.425 170.09375 525.6625 165.71875 510.6875 C 175.06875 504.2375 187.3625 508.6 197.6875 504.875 C 198.18672 504.57617 198.65223 504.39505 199.09375 504.34375 z M 269.1875 537.53125 C 268.8125 549.85625 266.2875 561.91875 265.5625 574.21875 C 264.8125 579.56875 264.725 586.4375 259 589.0625 C 250.825 593.7125 243.45625 600.075 234.28125 602.75 C 231.95625 585.175 227.49375 567.85 226.46875 550.125 C 240.96875 546.825 254.4875 540.15625 269.1875 537.53125 z M 208.6875 557.125 C 214.8375 575.875 216.71875 595.70625 221.09375 614.90625 C 222.76875 620.35625 215.825 622.64375 212.625 625.59375 C 210.275 613.26875 206.56875 601.28125 203.34375 589.15625 C 200.41875 588.15625 197.4875 587.11875 194.5625 586.09375 C 192.5875 579.36875 190.19375 572.8 187.46875 566.375 C 194.81875 563.975 202.0125 561.05 208.6875 557.125 z M 260.28125 607.5625 C 258.78125 631.6875 254.90625 655.68125 255.03125 679.90625 C 254.20625 684.78125 254.26875 690.7375 250.09375 694.1875 C 251.09375 672.9375 242.3375 653.1 240.4375 632.25 C 239.3875 626.9 244.9875 624.0875 247.6875 620.3125 C 249.1375 613.8625 254.83125 610.3875 260.28125 607.5625 z M 242.21875 694.6875 C 251.74375 703.8375 244.35 718.3625 250.375 729.0625 C 249.375 729.0125 247.4125 728.925 246.4375 728.875 C 245.2625 722.675 243.20625 716.2 245.65625 710 C 244.25625 704.95 243.04375 699.8625 242.21875 694.6875 z "
       transform="scale(0.8,0.8)"
       id="path8" />
    <path
       style="fill:#f3722b"
       d="M 857.65625 53.28125 C 851.08125 57.50625 844.9625 62.8875 837.1875 64.8125 C 816.8125 86.0625 797.3375 108.15625 777.9375 130.28125 C 772.2125 120.95625 760.925 120.35625 751.125 120.53125 C 756 128.08125 761.825 134.975 766.375 142.75 C 761.575 153.175 750.50625 157.65 741.90625 164.25 C 712.20625 188.725 686.975 217.98125 658.375 243.65625 C 654.05 248.05625 647.7 243.76875 642.75 243.34375 C 643 247.16875 644.1875 250.76875 646.3125 253.96875 C 630.1125 269.41875 613.975 285.01875 599.625 302.21875 C 592.85 309.51875 585.725 316.4875 578.375 323.1875 C 556.025 343.9125 537.7625 368.5 518.0625 391.625 C 515.0125 386.375 509.1875 381.8125 508.6875 375.5625 C 515.7125 361.7125 524.95 349.09375 534.125 336.59375 C 549.875 314.14375 565.3125 291.45 582.5625 270.125 C 612.5625 232.9 640.9875 193.6125 678.3125 163.1875 C 687.3125 156.5625 695.35625 148.8375 704.03125 141.8125 C 706.20625 139.5125 710.21875 138.325 710.71875 134.875 C 706.91875 132.7 702.0375 133.36875 698.6875 136.09375 C 684.0125 146.21875 670.24375 157.60625 656.46875 168.90625 C 649.19375 174.93125 643.3625 182.49375 635.6875 188.09375 C 623.2375 197.31875 614.39375 210.2625 603.71875 221.3125 C 584.96875 242.5625 565.8875 263.59375 548.4375 285.96875 C 557.3125 265.81875 563.9875 244.55 575.4375 225.625 C 584.6125 199.65 598.9125 175.84375 611.8125 151.59375 C 623.3375 129.14375 639.2875 109.39375 654.4375 89.34375 C 661.1125 80.29375 669.79375 72.90625 676.21875 63.65625 C 676.19375 62.40625 676.1875 59.875 676.1875 58.625 C 671.6625 62.7 667.4125 67.1 663.3125 71.625 C 659.4375 72.325 655.5625 73.0375 651.6875 73.6875 C 633.7625 97.9375 617.8 123.49375 600.75 148.34375 C 590.35 166.36875 580.30625 184.6 570.15625 202.75 C 556.13125 231.2 538.6625 258.2875 530.6875 289.3125 C 522.0625 315.2375 509.6 339.66875 497 363.84375 C 492.85 357.89375 485 352.65625 484.75 345.15625 C 500.775 290.90625 516.7625 236.3875 539.6875 184.5625 C 549.4875 164.2375 560.8125 144.65 571.4375 124.75 C 566.8875 122.65 562.2 115.7625 556.875 119.0625 C 546.35 133.4625 540.41875 150.625 530.21875 165.25 C 525.31875 172.2 521.1875 179.66875 517.5625 187.34375 C 504.7125 215.41875 493.175 244.29375 486.375 274.46875 C 482.025 293.56875 475.34375 312.18125 472.71875 331.65625 C 470.66875 330.73125 468.30625 330.15 466.90625 328.25 C 443.15625 301.175 416.79375 276.49375 388.71875 253.96875 C 385.11875 249.66875 379.2625 252.2 374.5625 252 C 377.0375 254.775 379.63125 257.4875 382.65625 259.6875 C 412.95625 282.4875 439.4125 309.9125 464.6875 338.0625 C 470.5375 343.2875 466.91875 351.1875 466.09375 357.6875 C 460.19375 387.6375 457.6375 418.18125 459.1875 448.65625 C 462.0375 452.65625 470.39375 452.4875 471.96875 447.3125 C 481.79375 428.4625 487.90625 407.6125 500.15625 390.0625 C 505.53125 384.2375 511.91875 394.55 511.59375 399.5 C 502.74375 413.05 490.2625 423.725 480.4375 436.5 C 482.2375 442.05 481.7375 447.8 480.3125 453.375 C 486.8375 453.425 495.6875 457.1375 499.9375 450.1875 C 508.4375 439.4625 518.9 430.5375 529.75 422.3125 C 532.35 425.9375 534.93125 429.59375 537.53125 433.21875 C 525.18125 443.76875 508.69375 448.4625 496.96875 459.5625 C 493.69375 462.3125 490.36875 465 487.09375 467.75 C 500.44375 474.425 511.93125 463.675 522.90625 457.625 C 549.90625 444.725 576.73125 430.80625 605.78125 422.90625 C 598.08125 455.13125 599.28125 488.55 603.90625 521.125 C 593.20625 521.05 582.04375 520.3 572.21875 525.375 C 563.11875 516.125 554.6125 506.1875 543.9375 498.6875 C 526.9375 485.0625 507.38125 470.45625 484.28125 472.78125 C 487.63125 476.40625 491.11875 479.90625 494.71875 483.28125 C 503.06875 484.13125 511.18125 487.0125 518.03125 491.9375 C 549.83125 513.9875 577.025 542.74375 597.25 575.71875 C 604.75 588.26875 612.4625 600.74375 618.9375 613.84375 C 620.1125 616.71875 621.3375 619.59375 622.5625 622.46875 C 623.1375 623.66875 624.26875 626.1125 624.84375 627.3125 C 627.96875 631.7375 631.45625 635.85 634.78125 640.125 C 631.85625 641.875 626.4875 642.4625 627.6875 647.0625 C 631.5875 653.6875 636.625 659.61875 640.625 666.21875 C 645.25 664.04375 649.775 661.64375 654.125 658.96875 C 650.1 652.41875 646.4 645.6875 643 638.8125 C 650.625 644.7125 656.33125 653.0375 664.53125 658.0625 C 673.58125 656.1625 682.45625 653.5 691.40625 651.125 C 680.80625 641.725 670.825 631.59375 659.875 622.59375 C 657.125 623.81875 655.1375 626.16875 652.6875 627.84375 C 645.9375 623.86875 635.7125 624.48125 632.3125 616.28125 C 625.5375 604.00625 617.5625 592.36875 612.0625 579.46875 C 610.6125 575.56875 609.975 571.2875 607.375 567.9375 C 597.275 554.2625 586.1125 541.43125 575.0625 528.53125 C 589.6625 528.40625 604.275 527.9125 618.875 528.3125 C 619.025 532.8625 619.2 537.45625 619.375 542.03125 C 620.5 542.98125 622.75 544.9 623.875 545.875 L 631.4375 546.25 C 632.9625 540.475 631.925 534.5875 631 528.8125 C 637.975 528.6375 644.96875 528.55625 651.96875 528.65625 C 650.26875 542.40625 642.58125 554.03125 632.53125 563.15625 C 637.43125 564.65625 640.99375 561.2875 644.59375 558.5625 C 650.31875 559.9625 654.5875 556.7125 658.3125 552.8125 C 659.7125 545.3125 662.19375 538.125 664.84375 531 C 677.09375 531.875 688.6875 536.6875 700.8125 538.8125 C 687.9375 549.2625 673.86875 558.48125 662.59375 570.78125 C 666.71875 572.25625 670.9875 573.35625 675.3125 574.15625 C 676.6875 571.65625 678.06875 569.1625 679.46875 566.6875 C 695.19375 564.4625 703.8125 549.4125 717.6875 543.4375 C 738.1625 547.2875 758 554.49375 777 563.09375 C 808.375 574.29375 836.225 592.9375 864 610.9375 C 883.175 622.1625 900.68125 635.9625 917.65625 650.1875 C 921.20625 653.7625 926.31875 652.825 930.84375 652.625 C 908.89375 627.75 879.2125 611.4375 852.3125 592.5625 C 823.4875 571.5375 789.18125 560.45625 757.53125 544.65625 C 747.53125 542.05625 736.9625 541.0875 727.8125 535.8125 C 746.1125 526.4125 760.86875 510.00625 781.46875 505.40625 L 784.46875 502.40625 C 779.86875 499.60625 775.2875 496.8375 770.6875 494.0625 C 752.2375 505.2375 733.60625 516.0375 716.03125 528.5625 C 709.50625 533.8125 701.525 528.10625 694.875 526.03125 C 708.05 511.40625 722.23125 497.6625 737.78125 485.5625 C 741.55625 482.8375 744.71875 479.35 745.96875 474.75 C 736.26875 474.625 730.38125 483.03125 723.53125 488.53125 C 710.30625 499.63125 698.96875 512.68125 686.59375 524.65625 C 680.14375 524.48125 673.7125 523.59375 667.9375 520.59375 C 676.1125 497.96875 686.93125 476.39375 697.53125 454.84375 C 698.68125 452.51875 699.53125 450.08125 700.03125 447.53125 C 698.53125 444.00625 694.5625 442.2875 691.9375 439.6875 C 676.2625 464.3625 670.5625 493.7625 656.0625 518.9375 C 647.8875 520.4625 639.31875 518.28125 630.96875 518.65625 C 630.96875 505.80625 632.9875 493.11875 635.6875 480.59375 C 639.0125 455.51875 646.125 431.0625 655 407.4375 C 656.65 403.7875 658.8625 397.14375 664.0625 398.71875 C 680.2125 407.76875 695.4375 418.6875 707.6875 432.6875 C 714.8375 432.9625 719.8875 438.3875 725.3125 442.3125 C 733.3875 448.2875 741.65625 454.05625 749.15625 460.78125 C 758.03125 469.05625 770.29375 472.425 778.84375 481.125 C 789.61875 492.425 802.81875 500.925 815.59375 509.75 L 816.59375 515.15625 C 835.76875 533.73125 856.1 551.2375 873.375 571.6875 C 897.575 599.9875 921.73125 628.375 947.78125 655 C 955.10625 655.625 961.8 659.58125 969.25 659.15625 C 970.65 651.15625 964.63125 644.26875 962.65625 636.84375 C 955.58125 605.31875 937.925 577.625 928.5 546.875 C 924.625 531.1 915.73125 517.3375 909.90625 502.3125 C 902.30625 490.7625 900.88125 475.4625 889.65625 466.4375 C 898.88125 463.6375 908.25 460.85625 918 460.78125 C 924.25 484.43125 931.86875 507.725 938.59375 531.25 C 943.96875 548.425 948.075 566.05625 954.875 582.78125 C 951.575 562.03125 949.4625 541.075 948.1875 520.125 C 945.1875 509.125 940.725 498.5875 937.375 487.6875 C 934.275 477.4375 928.3125 467.79375 928.1875 456.84375 C 933.9125 455.94375 939.64375 455 945.34375 454 C 950.99375 470.55 952.11875 488.075 954.71875 505.25 C 956.69375 517.725 958.4375 530.2375 959.8125 542.8125 C 961.0125 557.1375 964.15 571.1875 965 585.5625 C 966.725 604.2125 976.19375 620.65 979.96875 638.75 C 980.76875 638 982.3875 636.46875 983.1875 635.71875 C 986.5375 612.41875 975.8125 590.3625 976.6875 567.1875 C 974.5625 549.8375 971.65 532.5625 970.75 515.0625 C 965.525 494.6375 962.1 473.8625 958.125 453.1875 C 967.45 447.6125 979.65 450.2125 989.375 444.8125 C 989.45 485.2875 988.8375 525.76875 989.8125 566.21875 C 992.2875 583.66875 991.0375 601.25625 991.1875 618.78125 C 994.2875 622.30625 997.3572 625.86875 1000.4062 629.46875 C 1004.0063 603.99375 1000.375 578.38125 1003.5 552.90625 C 1003.1 531.05625 1005.6313 509.2625 1005.1562 487.4375 C 1003.0563 465.7125 1006.4375 444.075 1007.3125 422.375 C 1009.6875 406.7 1006.1125 390.95625 1007.9375 375.28125 C 1010.7375 338.78125 1009.8625 302.13125 1013.3125 265.65625 C 1014.0375 265.58125 1015.4312 265.41875 1016.1562 265.34375 C 1017.4814 270.54375 1018.7563 275.76875 1020.1562 280.96875 C 1029.3562 308.09375 1028.85 337.1125 1034.75 364.9375 C 1033.9 374.7625 1036.625 384.41875 1036.75 394.21875 C 1039.05 393.84375 1041.3375 393.4375 1043.6875 393.0625 C 1042.9625 388.0125 1042.2 382.9875 1041.5 377.9375 C 1039.15 353.0625 1034.5684 328.45625 1030.8438 303.78125 C 1028.2419 285.45625 1020.9875 268.275 1016.6875 250.375 C 1012.3125 227.225 1020.2938 204.2 1019.0938 181 C 1016.5938 181.05 1014.125 181.10625 1011.625 181.15625 C 1010.675 192.05625 1009.6625 202.975 1007.6875 213.75 C 996.1875 200.75 1000.9625 181.9625 995.5625 166.5625 C 993.0875 166.3625 990.60625 166.1375 988.15625 165.9375 C 988.85625 187.2875 999.5375 206.43125 1003.8125 227.03125 C 1006.3625 246.40625 1000.7437 265.5125 1000.2188 284.8125 C 997.0928 326.9125 992.95625 368.98125 991.28125 411.15625 C 990.75625 411.23125 989.7125 411.43125 989.1875 411.53125 C 989.3375 421.63125 989.30625 431.75 989.53125 441.875 C 979.33125 441.225 968.375 444.2875 958.625 441.5625 C 950.45 430.6625 951.74375 415.8125 947.34375 403.3125 C 944.36875 380.5875 939.3125 358.20625 935.9375 335.53125 C 929.1875 299.68125 914.48125 265.93125 908.40625 229.90625 C 901.40625 226.25625 896.8875 219.71875 891.8125 213.96875 C 890.7875 217.76875 891.06875 221.6625 892.84375 225.1875 C 904.36875 253.5875 906.08125 284.6875 916.03125 313.5625 C 915.03125 312.7625 913.03125 311.20625 912.03125 310.40625 C 904.08125 295.20625 898.9375 277.34375 885.4375 265.96875 C 884.2875 269.29375 883.1875 272.64375 882.0625 275.96875 C 895.4125 296.14375 904.44375 318.8625 910.59375 342.1875 C 899.86875 341.9125 889.1125 342.96875 878.4375 341.71875 C 863.4625 311.64375 850.1625 280.66875 836.1875 250.09375 C 849.8625 234.16875 865.21875 219.8375 880.09375 205.0625 C 892.81875 193.6875 906.5375 183.4375 919.8125 172.6875 C 917.5625 169.5875 914.60625 163.10625 910.03125 167.40625 C 880.83125 186.90625 858.20625 214.29375 832.40625 237.71875 C 827.40625 234.76875 826.54375 228.36875 823.96875 223.59375 C 819.64375 212.34375 812.675 202.08125 810 190.28125 C 817.875 181.40625 828.075 174.9875 836.375 166.5625 C 838.925 164.6625 838.625 161.4625 838.75 158.6875 C 826.575 165.1625 816.14375 174.2375 805.21875 182.5625 C 799.09375 168.2625 793.0875 153.85625 784.1875 141.03125 C 807.4125 116.90625 831.2625 93.2625 857.5625 72.4375 C 860.2875 69.7375 864.78125 67.1875 863.90625 62.6875 C 864.63125 58.1875 860.30625 56.00625 857.65625 53.28125 z M 772.8125 152.65625 C 781.6875 164.05625 791.3125 175.45 796.1875 189.25 C 771.4875 211.9 749.61875 237.35 727.84375 262.75 C 719.74375 272.175 712.98125 282.70625 704.03125 291.40625 C 697.83125 285.30625 691.775 279.0625 685.875 272.6875 C 688.325 267.9125 690.76875 263.0875 693.84375 258.6875 C 709.29375 236.9125 724.8625 215.19375 742.3125 194.96875 C 752.0375 180.51875 761.5625 165.98125 772.8125 152.65625 z M 800.5625 199.46875 C 808.1625 213.21875 813.45625 228.11875 820.40625 242.21875 C 824.93125 249.39375 817.79375 255.825 813.84375 261.25 C 798.81875 260.725 785.0625 267.50625 770.6875 270.78125 C 767.4875 267.50625 764.30625 264.23125 761.15625 260.90625 C 757.78125 261.38125 753.075 259.75 751.5 263.875 C 754.625 267.775 758.15 271.3375 761.625 274.9375 C 747.35 277.1125 733.6875 281.85 720.5625 287.75 C 745.3125 256.725 768.3125 223.44375 800.5625 199.46875 z M 685.34375 234.96875 C 681.81875 243.49375 676.5625 251.11875 671.8125 258.96875 C 669.4625 257.46875 667.1 255.9625 664.75 254.4375 C 670.275 246.6875 677.49375 240.34375 685.34375 234.96875 z M 827.5625 259 C 840.4625 286.575 853.9875 313.9375 865.3125 342.1875 C 850.7375 342.5625 835.9625 344.3375 821.5625 341.1875 C 810.9125 327.7875 806.3625 310.40625 793.5625 298.65625 C 803.6375 284.43125 815.8375 271.875 827.5625 259 z M 655.8125 261.125 C 658.6125 263.85 661.3875 266.59375 664.1875 269.34375 C 656.0875 286.96875 649.9375 305.4875 640.3125 322.4375 C 630.7125 328.5125 620.51875 333.425 609.84375 337.25 C 581.61875 356.125 556.4125 379.1375 527.8125 397.5625 C 534.6375 391.0375 541.3375 384.3875 546.8125 376.6875 C 565.7625 354.0375 587.89375 334.3625 607.59375 312.4375 C 621.46875 298.7875 634.3625 284.1375 648.8125 271.0625 C 651.8375 268.2625 653.7625 264.625 655.8125 261.125 z M 807.09375 268.0625 C 800.91875 275.7875 794.26875 283.1125 787.59375 290.4375 C 784.44375 286.4875 781.3125 282.575 778.1875 278.625 C 787.4625 274.175 797.34375 271.2625 807.09375 268.0625 z M 677.5625 283.125 C 682.6625 287.875 687.7625 292.8375 690.6875 299.3125 C 681.5625 303.4625 672.6 307.9 663.5 312.125 C 667.575 302.175 672.6875 292.7 677.5625 283.125 z M 767.59375 283.15625 C 773.39375 286.28125 776.65625 292.71875 780.90625 297.59375 C 771.15625 312.16875 761.4125 326.7625 750.4375 340.4375 C 741.8875 325.4875 725.66875 317.16875 717.09375 302.34375 C 733.99375 296.16875 750.09375 287.60625 767.59375 283.15625 z M 787.40625 307.5625 C 794.93125 318.3375 801.975 329.5125 809.125 340.5625 C 801.1 342.2875 792.91875 343.03125 784.71875 343.03125 C 774.91875 342.93125 765.7 346.4875 756.25 348.5625 C 766.5 336.0125 773.55 321.1625 784 308.8125 C 784.85 308.4875 786.55625 307.8875 787.40625 307.5625 z M 704.8125 314.28125 C 709.2125 321.58125 713.04375 329.36875 718.96875 335.59375 C 721.56875 333.74375 724.1875 331.91875 726.8125 330.09375 C 733.2125 336.39375 739.83125 342.4625 746.28125 348.6875 C 738.23125 354.5875 727.9625 355.2375 718.6875 358.0625 C 707.3375 360.7125 696.7375 366.78125 684.8125 366.53125 C 679.3875 366.15625 675.05625 369.6375 670.65625 372.1875 C 681.28125 352.4875 691.6875 332.48125 704.8125 314.28125 z M 684.5625 320.5625 C 674.6375 339.0625 667.2875 358.8375 657.3125 377.3125 C 652.7375 385.9625 643.91875 376.8125 637.84375 374.8125 C 642.26875 361.7375 646.86875 348.5125 653.59375 336.4375 C 662.94375 329.5375 674.2625 325.8375 684.5625 320.5625 z M 913.8125 347.8125 C 917.0125 355.4625 919.875 363.2625 922.625 371.0625 C 914.15 374.0125 905.65 376.95 897 379.25 C 889.225 371.925 887.19375 359.98125 882.21875 350.65625 C 892.81875 350.73125 903.4375 349.9875 913.8125 347.8125 z M 866.09375 349.46875 C 876.61875 357.59375 878.5375 372.3125 884.9375 383.4375 C 873.9125 387.7625 863.1625 392.7625 852.0625 396.9375 C 846.8375 380.6625 835.4875 367.6625 828.5625 352.1875 C 841.0875 351.6375 853.84375 352.64375 866.09375 349.46875 z M 621.5625 353.9375 C 616.0375 364.2875 613.8625 375.85 612.3125 387.375 C 611.0625 391.275 611.575 397.48125 606.75 398.90625 C 584.6 405.75625 565.7875 419.8375 544.9375 429.5625 C 542.3375 425.3625 539.7125 421.18125 537.0625 417.03125 C 563.6875 394.00625 593.5125 375.0875 621.5625 353.9375 z M 817.1875 355.46875 C 824.0375 361.36875 827.325 370.2875 832.5 377.5625 C 848.525 401.2875 863.78125 425.5625 875.90625 451.5625 C 883.40625 464.6375 886.875 479.35 891.25 493.625 C 906 524.225 920.71875 554.9375 933.71875 586.3125 C 934.14375 595.7375 939 604.225 939.25 613.625 C 934.675 609.375 930.24375 604.9625 926.71875 599.8125 C 925.74375 600.7125 923.81875 602.5375 922.84375 603.4375 C 905.59375 583.6625 889.0125 563.23125 869.0625 546.03125 C 852.2375 528.50625 832.9 513.8375 814.625 497.9375 C 800.825 483.8875 783.79375 473.65625 768.96875 460.78125 C 762.59375 455.35625 754.5625 452.3375 748.0625 447.0625 C 729.9875 432.9375 709.98125 421.7125 690.53125 409.6875 C 686.98125 407.8625 685.5625 404.0375 683.6875 400.8125 C 681.4625 399.3625 679.25625 397.9625 677.03125 396.5625 C 677.70625 395.5375 679.0125 393.43125 679.6875 392.40625 C 695.5875 386.58125 711.99375 382.25 727.84375 376.25 C 722.31875 384.95 717.275 393.95 712.125 402.875 C 714.975 405.275 717.8125 407.6625 720.6875 410.0625 C 730.4625 398.5125 734.2625 383.0125 744.4375 371.8125 C 750.1875 369.4875 759.1625 364.45 763.4375 371.625 C 777.5875 389.15 792.63125 405.9625 805.53125 424.4375 C 825.53125 444.6125 844.0125 466.4875 859.9375 490.0625 C 864.3625 495.7625 865.03125 503.1375 868.15625 509.4375 C 886.60625 538.7125 904.45 568.39375 922 598.21875 C 924.925 596.81875 926.86875 592.9875 924.84375 589.9375 C 923.09375 582.6875 917.8875 576.95 915.6875 569.875 C 912.1125 557.8 903.05625 548.65625 897.15625 537.78125 C 890.38125 524.95625 880.125 514.425 873.5 501.5 C 868.55 491.55 860.6875 483.2875 856.6875 472.8125 C 854.3375 466.6125 848.9375 462.51875 844.5625 457.84375 C 834.2875 447.01875 826.5375 434.16875 817.6875 422.21875 C 800.1625 404.84375 787.15625 383.7125 771.90625 364.4375 C 786.58125 359.9125 801.9625 357.34375 817.1875 355.46875 z M 480.15625 358.0625 C 483.95625 361.6375 487.96875 365.0125 490.96875 369.3125 C 492.69375 373.3625 489.9125 377.26875 488.3125 380.84375 C 482.1375 391.99375 477.05625 403.73125 470.65625 414.78125 C 471.23125 404.75625 472.3125 394.70625 475.0625 385.03125 C 476.9125 383.05625 479.40625 381.8875 481.65625 380.4375 C 480.90625 379.1875 479.36875 376.69375 478.59375 375.46875 C 479.06875 369.64375 479.55625 363.8625 480.15625 358.0625 z M 924.6875 376.0625 C 927.2875 386.8375 933.25 396.4125 935.75 407.1875 C 938.45 417.6875 941.03125 428.1875 943.78125 438.6875 C 936.03125 439.5125 928.2125 439.8125 920.4375 439.6875 C 914.2625 421.7375 906.59375 404.3375 898.46875 387.1875 C 906.96875 382.9375 915.6875 379.1375 924.6875 376.0625 z M 636.25 382.59375 C 637.13672 382.54023 638.05625 382.83125 638.8125 383.6875 C 641.9625 386.8875 636.475 391.70625 633.5 388.65625 C 631.11875 386.25625 633.58984 382.7543 636.25 382.59375 z M 886.625 392.875 C 888.5145 392.82637 890.14062 393.7 891.03125 396.4375 C 898.10625 412.0375 905.29375 427.60625 912.21875 443.28125 C 901.79375 445.98125 891.31875 448.59375 880.59375 449.84375 C 873.41875 435.66875 865.975 421.6375 858.375 407.6875 C 862.425 401.7375 870.8375 400.4875 876.8125 396.6875 C 879.5625 395.625 883.47583 392.95605 886.625 392.875 z M 647.15625 404.34375 C 638.35625 411.09375 637.9375 422.7375 634.6875 432.4375 C 628.6875 452.3625 623.85 472.5875 620.375 493.0625 L 617.125 497.53125 C 614.575 485.15625 616.6375 472.675 618.4375 460.375 C 619.1625 445.525 623.09375 431.14375 626.34375 416.71875 C 628.01875 407.21875 640.18125 407.76875 647.15625 404.34375 z "
       transform="scale(0.8,0.8)"
       id="path10" />
    <path
       d="m 917.48,70.56 c 3.68,1.06 7.4,2.1 11.12,3.12 -8.24,29.14 -13.06,59.08 -21.2,88.24 -7.06,31.46 -15.9,62.46 -24.2,93.6 -3.4,14.6 -7.34,29.06 -11.96,43.32 11.22,-16.56 20.44,-34.36 30.26,-51.76 2.36,-0.66 4.72,-1.32 7.12,-1.96 3.06,-6.44 7.66,-12.34 9.14,-19.42 0.84,-3.02 -1.86,-5.2 -3.16,-7.56 17.74,-26.46 34.96,-53.28 52.6,-79.82 2.74,1.14 5.5,2.28 8.28,3.38 -0.06,2.78 0.56,5.82 -1.34,8.18 -15.06,23.04 -30.32,46 -45.18,69.2 -6.08,8.2 -12.08,16.66 -15.56,26.34 -1.7,14.46 -12.74,25.2 -17.52,38.6 7.7,-7.68 16.48,-14.22 24.08,-22.02 3.36,-3.4 7.16,-6.32 11.14,-8.94 14.54,-9.42 28.3,-19.98 43.16,-28.92 10.38,-6.32 21.38,-15.2 34.36,-12.82 -7.16,4.7 -15.1,8.12 -22.2,12.9 -24.62,17.9 -49.9,35.1 -72.08,56.04 -9.86,8.16 -20.3,16.12 -26.76,27.46 -7.58,12.9 -17.7,24.22 -23.9,37.94 -8.44,17.4 -17.3,34.58 -25.92,51.9 -7.2,16.78 -12.74,34.3 -16.34,52.2 -0.82,4.28 -2.32,8.38 -3.9,12.42 0.3,1.5 0.92,4.5 1.22,6.02 -2.38,0.3 -5.26,2.28 -6.98,-0.42 0.68,-9.96 2.82,-19.72 4.5,-29.52 2.04,-19.8 7.3,-39.2 14.4,-57.74 0.5,-2.24 2.58,-5.02 0.48,-7.08 -4.78,-7.26 -11.04,-13.36 -17.46,-19.16 -1.98,-1.56 -2.92,-3.88 -3.7,-6.18 10.26,4.62 17.18,14.06 24.22,22.44 3.6,-8.42 8.42,-16.24 12.32,-24.48 1.08,-21.82 0.26,-43.72 1.44,-65.54 2,-14.14 1.24,-28.44 -0.42,-42.56 -0.3,-30 -3.52,-59.86 -3.26,-89.86 -2.28,-20.04 -2,-40.24 -4.26,-60.26 -0.28,-3.06 0.14,-6.12 0.38,-9.16 4.02,-0.52 8.1,-0.74 12.18,-0.48 1.9,34.46 2.72,68.98 4.96,103.44 2.28,17.02 0.42,34.28 2.62,51.3 1.64,14.38 -0.16,29 2.44,43.26 15.72,-57.82 30.5,-115.88 45.94,-173.76 3.04,-10.6 4.84,-21.6 8.94,-31.88 z"
       id="path12"
       inkscape:connector-curvature="0"
       style="fill:#f3722b" />
    <path
       d="m 749.94,111.26 c 3.84,0.24 9.22,-0.92 11.32,3.34 3.44,7.12 4.24,15.12 6.06,22.72 2.14,10.88 6.72,21.22 7.68,32.34 1.9,18.8 7.6,37.26 6.62,56.32 -1.1,-0.3 -3.3,-0.86 -4.4,-1.16 -2.68,-13.1 -3.04,-26.7 -6.84,-39.54 -7.04,-14.7 -9.28,-31.02 -14.9,-46.24 -3.42,-8.88 -5.8,-18.18 -5.54,-27.78 z"
       id="path14"
       inkscape:connector-curvature="0"
       style="fill:#f3722b" />
    <path
       d="m 726.98,151.7 c 2.38,-0.7 4.76,-1.42 7.16,-2.12 7.56,9.56 12.06,21.22 16.08,32.62 -2.06,7.7 1.7,15.2 0.28,22.88 -2.24,-3.26 -4.14,-6.76 -5.48,-10.48 -4.54,-12.04 -10.28,-23.58 -16.16,-35 -1.4,-2.42 -1.72,-5.18 -1.88,-7.9 z"
       id="path18"
       inkscape:connector-curvature="0"
       style="fill:#f3722b" />
    <path
       d="m 963.62,307.6 c 8.38,-9.46 17.48,-18.84 29.06,-24.28 1.04,0.04 3.1,0.12 4.12,0.16 -11.86,9.8 -26.24,17.92 -33.48,32.1 7.52,-4.2 13.4,-10.84 21.3,-14.4 8.4,-3.82 16.7,-7.88 25.2,-11.5 1.38,0.74 4.16,2.24 5.54,2.98 -15.94,7.34 -29.78,18.32 -43.8,28.74 -30.64,18.56 -53.34,46.82 -77.68,72.5 -15.54,15.56 -27.72,34.06 -39.2,52.68 -9.84,12.52 -16.04,27.28 -23.38,41.28 31.28,-24.94 64.84,-46.82 98.86,-67.8 2.14,-1.64 4.8,-1.64 7.34,-1.08 -2.98,2.4 -6.26,4.62 -8.08,8.1 10.64,-2.58 20.08,-12.28 31.56,-9.48 -8.72,5.34 -18.14,9.38 -27.12,14.26 -14.12,6.48 -26.58,15.86 -39.84,23.84 -1.78,2.8 -3.58,5.74 -6.6,7.36 -16.78,10.18 -32.28,22.44 -46.44,36 -7.66,8.46 -18.08,13.66 -25.76,22.12 -2,2.9 -5.54,2.02 -8.52,2.14 -0.54,-16.34 7.5,-31.34 15.44,-45.1 5.22,-10.02 12.22,-18.96 17.32,-29.04 5.56,-10.56 12.86,-20.06 19.04,-30.24 2.02,-3.4 4.74,-6.28 7.56,-9.02 -0.58,-1.72 -1.14,-3.46 -1.7,-5.18 4.06,-2.8 7.74,-6.14 10.88,-9.96 25.96,-36.7 59.14,-67.3 88.5,-101.12 2.34,-2.38 4.88,-6.24 8.78,-4.5 -15.52,18.78 -32.6,36.18 -49.18,53.98 -12.22,14.2 -25.9,27.14 -36.38,42.76 2.66,-1.56 5.06,-3.52 7.2,-5.76 13.58,-13.74 26.08,-28.46 39.8,-42.06 10.22,-9.84 18.98,-21.12 29.66,-30.48 z"
       id="path44"
       inkscape:connector-curvature="0"
       style="fill:#f3722b" />
    <path
       d="m 661.46,328.18 c 3.14,-1.38 6.32,-2.72 9.52,-3.98 1.48,2 2.98,4 4.48,6 -2.64,1.74 -5.28,3.48 -7.9,5.24 -2.08,-2.4 -4.12,-4.8 -6.1,-7.26 z"
       id="path60"
       inkscape:connector-curvature="0"
       style="fill:#f3722b" />
    <path
       d="m 895.44,331.36 c 1.06,-2.54 3.84,-2.36 6.14,-2.72 -5.66,10.08 -12.6,19.44 -17.22,30.1 -0.62,2.46 -3.02,2.4 -5,2.14 3.56,-10.72 10.08,-20.06 16.08,-29.52 z"
       id="path62"
       inkscape:connector-curvature="0"
       style="fill:#f3722b" />
    <path
       d="m 619.66,359.94 c 1.38,-7.82 10.12,-11.78 17.12,-13.54 0.3,1.28 0.88,3.84 1.18,5.12 -5.34,4.3 -10.84,9.54 -18.3,8.42 z"
       id="path64"
       inkscape:connector-curvature="0"
       style="fill:#f3722b" />
    <path
       d="m 440,361.68 c 2,-0.9 4.02,-1.74 6.08,-2.52 2.36,1.06 3.28,3.76 4.8,5.7 8.16,12.3 15.98,24.88 22.7,38.06 -1.96,0.02 -5.88,0.06 -7.84,0.08 -7.96,-14.14 -16.18,-28.18 -25.74,-41.32 z"
       id="path66"
       inkscape:connector-curvature="0"
       style="fill:#f3722b" />
    <path
       d="m 698.92,376.86 c -2.6,-3.68 -10.56,-8.52 -6.88,-13.22 3.9,3.34 6.26,8.16 6.88,13.22 z"
       id="path68"
       inkscape:connector-curvature="0"
       style="fill:#f3722b" />
    <path
       d="m 648.52,379.58 c 4.08,-1.2 8.14,-3.5 12.54,-3.06 2.58,2.46 4.74,5.32 7.02,8.06 -2.68,1.76 -5.42,3.46 -8.18,5.1 -3.84,-3.34 -7.64,-6.68 -11.38,-10.1 z"
       id="path72"
       inkscape:connector-curvature="0"
       style="fill:#f3722b" />
    <path
       d="m 848.54,405.28 c 3.16,-8.74 5.62,-17.74 9.86,-26.06 0.3,7.48 0.22,14.98 -0.06,22.46 l 3.52,0.04 c -3.7,3.18 -8.6,3.78 -13.32,3.56 z"
       id="path74"
       inkscape:connector-curvature="0"
       style="fill:#f3722b" />
    <path
       style="fill:#f3722b"
       d="m 490.6875,487.5625 c -0.075,3.075 -0.1375,6.175 -0.1875,9.25 18.4,6.125 28.1875,24.54375 38.4375,39.59375 11.175,13.5 18.8,29.38125 28.25,44.03125 5.925,8.6 8.83125,18.9 15.15625,27.25 6.925,8.975 8.775,21.68125 19,27.90625 -2.875,2.4 -6,4.65625 -8,7.90625 -13.775,21.9 -30.10625,42.1375 -42.65625,64.8125 -3.7,6.575 -4.40625,14.15625 -6.03125,21.40625 -14.75,2.7 -29.79375,3.675 -44.59375,6.125 -5.425,0.825 -10.8625,1.64375 -16.3125,2.34375 -4.475,0.525 -8.98125,0.95 -13.40625,1.75 l -1.65625,0.3125 c -12.05,2.85 -24.4125,2.7125 -36.6875,3.3125 -1.05,0.2 -3.2,0.575 -4.25,0.75 -10.6,2.275 -21.5375,1.90625 -32.0625,4.53125 -17.85,4.175 -35.5875,8.8125 -53.3125,13.4375 -6.325,1.525 -6.675,9.35625 -9.5,14.15625 22.975,-2.275 46.0875,1.75 69.0625,-0.375 20.125,-3.775 40.71875,-1.175 60.96875,-3.625 10.15,-1.275 20.34375,-0.1 30.46875,0.75 5,0.275 9.96875,0.3625 14.96875,0.4375 16.25,-0.25 32.79375,0.0187 48.46875,4.84375 -1.675,18.375 -13.75,34.8625 -11,53.8125 3.875,-1.9 11.3625,-1.01875 11.5625,-6.96875 2.175,-15.6 6.6375,-30.70625 10.1875,-46.03125 8.175,0.275 16.375,0.83125 24.5,2.03125 6.525,0.95 13.025,2.15 19.5,3.5 29.65,4.45 59.575,7.925 88.875,14.375 7.3,27.025 13.8,54.275 19.125,81.75 5.975,-7.375 15.425,-12.275 19.5,-20.875 -6.475,-10.275 -7.5625,-22.41875 -11.1875,-33.71875 -6.625,-8.4 -9.40625,-18.66875 -11.53125,-28.96875 6.775,0.975 13.65625,2.05 20.53125,1.125 -6.725,-3.8 -13.6125,-7.2375 -20.5625,-10.5625 -7.05,-2.675 -5.7375,-11.875 -8.0625,-17.75 -4.275,1.175 -8.5,2.625 -12.625,4.25 0.175,1.925 0.54375,5.76875 0.71875,7.71875 C 676.11875,781.53125 666.025,779.825 656,777.875 c 7.475,-5.125 15.15,-10.2625 23.875,-12.9375 13.625,-3.625 24.7375,-13.09375 38.3125,-16.84375 21.75,-5.45 41.9375,-15.825 63.5625,-21.625 14,-1.525 27.275,-6.30625 41,-9.03125 24.725,-0.45 47.5875,-12.20625 72.1875,-13.65625 11.15,-0.725 22.9,0.79375 33.125,-4.78125 -8.225,-10.425 -21.85625,-4.7125 -32.90625,-4.9375 -13.725,-0.5 -26.625,4.69375 -40,6.71875 -19.55,3.45 -39.05,7.55625 -57.75,14.28125 -16.5,4.675 -32.575,11.10625 -49.625,13.53125 -21.75,6.55 -41.86875,17.9625 -64.09375,23.0625 -13.2,8.05 -26.7375,15.8 -40.8125,22.25 -12.525,0.3 -24.8125,-2.79375 -37.1875,-4.09375 -7.225,-0.65 -14.45625,-0.98125 -21.65625,-1.78125 7.05,-4.55 14.69375,-8.05 22.46875,-11.125 5.95,-2.475 11.43125,-5.96875 17.53125,-8.09375 9.15,-2.325 19.075,-0.6375 27.875,-4.5625 6.625,-2.2 12.9375,-6.1875 20.0625,-6.3125 1.025,2.275 1.975,4.5875 2.875,6.9375 4.35,-1.475 8.8125,-2.78125 12.9375,-4.90625 0.425,-2.975 0.38125,-5.99375 0.78125,-8.96875 5,-3.7 11.4,-4.86875 17.125,-7.21875 1.7,2.525 3.39375,5.08125 5.09375,7.65625 5,-1.25 9.95,-2.70625 14.875,-4.28125 -1,-3.15 -2.04375,-6.28125 -3.09375,-9.40625 2.525,2.225 5.0625,4.4875 7.8125,6.4375 6.1,-0.225 11.5,-3.475 17,-5.75 -0.95,-1.625 -2.8625,-4.875 -3.8125,-6.5 33.725,-10.15 68.3875,-16.175 103.1875,-21.25 12.325,-2.9 25.0875,-1.475 37.5625,-3.25 20.5,-2.5 41.1875,-1.7 61.8125,-1.875 2.5,-10.95 -8.7875,-15.6 -16.1875,-20.5 -12.9,-7.975 -25.2875,-16.8 -38.9375,-23.5 -32.525,-17.225 -65.8875,-33.74375 -101.6875,-42.96875 -27.725,-5.8 -55.66875,-10.5875 -83.84375,-13.6875 -7.65,-0.875 -15.50625,-3.9625 -23.03125,-0.6875 5.375,6.75 15.26875,3.475 22.59375,6.125 22.35,5.725 45.75,7.93125 67,17.40625 32.575,12.375 64.90625,25.36875 97.40625,37.96875 10.15,3.75 18.14375,11.36875 25.59375,18.96875 -11.025,-1.075 -21.50625,-4.90625 -32.28125,-7.15625 -29.05,-5.1 -58.475,-6.56875 -87.875,-7.96875 -20.2,0.925 -40.375,2.55 -60.5,4.5 -31.4,6.675 -63.4375,12.83125 -92.0625,28.03125 3.75,3.9 9.23125,6.3875 14.65625,4.5625 35.125,-11 71.49375,-17.45625 107.84375,-22.78125 23.3,0.5 46.675,-0.0438 70,0.78125 16.6,3.05 33.975,2.125 50.125,7.375 -40.65,9.075 -82.71875,12.275 -122.34375,25.75 -15.65,3.675 -31.85,6.025 -46.375,13.375 -6.95,3.725 -14.8375,4.375 -22.4375,5.75 -7.275,2.125 -13.64375,6.4625 -20.96875,8.4375 -15.675,4.325 -29.15,13.79375 -44.125,19.84375 -8.175,4.025 -16.48125,8.125 -23.28125,14.25 -4.8,8.25 -14.05,3.50625 -21.125,1.65625 7.075,-18.45 13.65625,-37.10625 22.03125,-55.03125 2.475,-5.575 6.65,-10.10625 10.625,-14.65625 2.575,-6.75 4.15,-13.9125 4.125,-21.1875 -3.075,0.4 -6.175,0.81875 -9.25,1.21875 -11.425,23.575 -22.38125,47.425 -31.53125,72 -8.85,0.55 -17.01875,-2.6 -23.96875,-7.875 3.375,-2.275 7.025,-4.29375 9.875,-7.21875 13.7,-28.375 32.03125,-54.20625 51.28125,-79.03125 1.45,-0.25 4.29375,-0.75 5.71875,-1 3.95,-3.925 -1.7375,-9.3 -2.8125,-13.5 -5.05,-14.4 -14.075,-26.98125 -18.375,-41.65625 -13.65,-32.975 -34.6125,-62.79375 -60.1875,-87.59375 -8.775,-8.25 -18.675,-16.625 -31.125,-18 z m 54.40625,258.5625 c 4.83125,0.0312 9.65625,0.38125 14.46875,0.59375 -1.925,4.85 -3.875,9.7125 -5.875,14.5625 -8.775,-0.05 -17.525,0.425 -26.25,1.375 -11.25,1.175 -22.5,-1.20625 -33.75,-0.40625 -7.4,1.35 -14.96875,-0.65 -21.09375,-4.875 -4.05,1.275 -8.475,2.1625 -12.625,0.8125 -3.5875,-2.20938 2.55356,-2.99404 5.03125,-2.96875 0.35396,0.004 0.64688,0.0281 0.8125,0.0625 1.85,0.45 4.90003,1.11028 6.72503,1.56028 5.025,-3.225 11.64997,-3.15403 17.39997,-3.27903 13.5,-2.6 27.35,-2.8375 40.75,-6.0625 4.7375,-1.1125 9.575,-1.40625 14.40625,-1.375 z"
       id="path78"
       transform="scale(0.8,0.8)"
       inkscape:connector-curvature="0"
       sodipodi:nodetypes="cccccccccccccccccccccccccccccccccccccccccccccccccccccccccccccccccccccccccccccccccccccccccccccccccccccccccccsccccccsccccs" />
    <path
       d="m 861.86,401.72 c 4,-3.1 8.3,-6 13.38,-6.94 -3.14,3.82 -6.82,7.16 -10.88,9.96 -6.62,2.76 -8.92,12.14 -16.42,12.5 -6.06,-2.92 -10.5,-8.66 -12.04,-15.18 3.42,0.36 7,0.7 9.64,3.18 0.76,0.02 2.26,0.04 3,0.04 4.72,0.22 9.62,-0.38 13.32,-3.56 z"
       id="path80"
       inkscape:connector-curvature="0"
       style="fill:#f4e4c0" />
    <path
       d="m 382,415.84 c 0.88,-0.92 2.66,-2.74 3.54,-3.64 12.28,1.14 18.46,12.86 24.88,21.78 4.78,5.48 1.64,12.94 2.48,19.44 -3.08,-0.14 -6.18,-0.28 -9.26,-0.42 -3.88,-14 -10.76,-27.34 -21.64,-37.16 z"
       id="path86"
       inkscape:connector-curvature="0"
       style="fill:#f3722b" />
    <path
       d="m 355.38,424.82 c 1.04,-0.12 3.1,-0.34 4.14,-0.44 0.98,0.08 2.96,0.26 3.96,0.36 0,3.14 -0.12,6.3 -0.26,9.46 -5.56,2.42 -10.52,6.06 -13.96,11.14 -21.02,27.24 -42.44,54.44 -59.28,84.54 18.12,-9.88 36.18,-20.1 55.58,-27.36 0.1,-7.16 0.1,-14.32 0.02,-21.48 0.98,-0.18 2.94,-0.52 3.94,-0.68 0.56,6.78 1.16,13.56 1.88,20.34 5.42,-1.94 10.8,-4.04 16.18,-6.12 0.22,-0.06 0.62,-0.22 0.82,-0.28 3.3,-1.16 6.64,-2.26 9.98,-3.32 18.92,-6.46 38.12,-12.54 58.16,-14.36 1.26,2.74 2.52,5.46 3.8,8.2 -20.16,6.34 -41.48,9.36 -60.78,18.46 -2.9,0.98 -5.78,1.98 -8.68,2.96 -6.66,2.12 -13.2,4.56 -19.7,7.1 -1.22,7.54 -1.34,15.18 -1.6,22.8 -0.74,-0.02 -2.24,-0.06 -2.98,-0.06 -0.34,-6.82 0.26,-13.74 -1.42,-20.42 -11.5,4.42 -21.18,13.24 -33.44,15.48 -0.8,0.42 -2.42,1.22 -3.22,1.64 l -0.04,1.64 c -4.62,1.32 -9.04,3.26 -13.34,5.38 l -1.72,-0.1 c -0.48,0.62 -1.42,1.88 -1.9,2.5 -6.58,2.92 -12.52,7.14 -17.7,12.1 5.78,-4.18 11.66,-8.28 17.7,-12.1 l 0.96,0.62 c 0.66,-0.76 2,-2.26 2.66,-3.02 4.36,-1.98 8.78,-3.9 13.34,-5.38 0.82,-0.82 2.46,-2.46 3.26,-3.28 4.62,-1 9.36,-0.6 13.92,0.5 -10.06,7.16 -22.74,9.8 -31.98,18.18 -10.28,8.28 -25.52,13.66 -27.66,28.48 -1,0.56 -3,1.66 -4,2.22 -2.1,-0.7 -4.18,-1.38 -6.28,-2.06 -8.32,6.84 -16.38,13.98 -25.04,20.4 1,-3.74 2.06,-7.46 3.44,-11.06 10.52,-12 24.34,-20.52 34.46,-32.9 -5.8,2.18 -11.94,4.34 -18.06,1.98 8.48,-7.78 20.88,-11.08 26.88,-21.46 9.38,-14.64 17.6,-30.06 28.06,-44.02 8.48,-11.48 16.84,-23.06 25.38,-34.5 8.02,-10.82 17.42,-20.6 24.52,-32.08 z"
       id="path88"
       inkscape:connector-curvature="0"
       style="fill:#f3722b" />
    <path
       d="m 977.84,456.86 c 10.46,-1.22 20.3,-5.32 30.52,-7.7 0.04,0.78 0.08,2.36 0.12,3.16 -25.76,9.92 -52.72,16.86 -77.58,29.06 -5.14,1.92 -10.44,3.48 -15.22,6.24 14.52,-7.12 32.98,-7.44 46.26,2.56 5.26,4.74 11.94,8.02 15.76,14.2 3.18,5.92 10.8,5.56 16.32,7.86 -3.06,1.06 -6.08,2.14 -9.12,3.18 4.12,6.68 6.78,14.28 3.8,22 -3.62,-0.34 -5.54,-2.92 -6.14,-6.28 -1.6,-0.98 -3.2,-1.96 -4.78,-2.9 -2.34,-4.44 -4.8,-8.8 -7.36,-13.1 -26.22,-0.36 -52.54,3.16 -77.94,9.62 -15.14,4.8 -30.56,8.76 -45.36,14.52 -10.78,3.98 -20.66,10.38 -32.12,12.4 -0.22,-2.2 -0.44,-4.4 -0.64,-6.6 6.68,-3.68 13.36,-7.46 20.44,-10.34 23.98,-9.38 47.62,-20.22 72.96,-25.44 8.38,-2.02 16.96,-0.08 25.4,-0.72 10.96,-2.64 22.24,-0.94 33.38,-1.84 -6.3,-6.7 -13.6,-13.98 -23.04,-15.46 -30.36,1.66 -59.7,11.76 -86.9,25.04 -13.66,5.76 -26,14.12 -38.36,22.22 -5.3,3.7 -12.06,3.84 -18.26,4.38 3.18,-4.92 7.7,-8.66 12.4,-12.04 -0.38,-3.68 -0.3,-7.66 3.84,-9.16 29.68,-17.6 58.1,-37.78 90.22,-50.86 15.2,-5.02 29.9,-12.02 45.84,-14.48 3.06,-0.64 7.26,1.84 6.98,5 -10.56,4.44 -21.7,7.38 -32.2,11.96 -9,4 -19.72,4.9 -27.02,12.1 20.78,-11.44 44.2,-16.18 66.08,-24.78 -1.66,-0.28 -4.98,-0.84 -6.62,-1.12 5.02,-5.12 12.12,-3.08 18.34,-2.68 z"
       id="path96"
       inkscape:connector-curvature="0"
       style="fill:#f3722b" />
    <path
       d="m 538.2,489.86 c 4.28,-2.2 10.18,-4.16 14.22,-0.42 9.12,7.24 16.1,16.94 21.56,27.14 -1.66,0.66 -5,2 -6.66,2.68 -7.08,-4.54 -10.7,-12.46 -16.74,-18.06 -4.1,-3.8 -8.48,-7.32 -12.38,-11.34 z"
       id="path104"
       inkscape:connector-curvature="0"
       style="fill:#f3722b" />
    <path
       d="m 451.66,501.32 c 4.34,-3.3 10.08,-1.42 14.64,0.26 -26.16,15.94 -47.36,38.34 -67.86,60.78 -2.02,2.24 -2.76,5.22 -3.76,7.98 -4.52,0.22 -9.06,0.36 -13.58,0.1 -2.94,-1.12 -3.1,-2.66 -0.54,-4.62 3,-3.5 6.14,-6.9 9.06,-10.46 18.82,-20.02 40.16,-37.5 62.04,-54.04 z"
       id="path108"
       inkscape:connector-curvature="0"
       style="fill:#f3722b" />
    <path
       d="m 609.14,501.68 c 13.46,-1.4 27.1,0.28 40.22,3.42 4.68,0.86 8.1,4.42 11.62,7.32 -11.14,-0.48 -22.04,-3.16 -33.12,-4.38 -6.36,-1.4 -14.48,-0.34 -18.72,-6.36 z"
       id="path110"
       inkscape:connector-curvature="0"
       style="fill:#f3722b" />
    <path
       d="m 13.82,519.72 c 6.04,-0.34 12.18,-1.5 18.2,-0.4 4.78,2.32 9.52,4.78 14.72,6.08 4.12,4.58 8.78,8.66 14.16,11.7 20.92,14.28 42.56,27.64 62.52,43.3 15.5,14.04 32.22,27.02 45.52,43.28 -11.56,-0.5 -23.72,1.98 -34.88,-1.38 -23.16,-13.68 -49.7,-19.04 -75.08,-27 -14.12,-3.96 -28.64,-6.9 -43.38,-6.52 -0.7,-1.36 -2.1,-4.08 -2.78,-5.44 2.82,-0.98 5.72,-1.96 8.72,-1.1 9.76,1.52 19.5,3.26 29.04,5.84 4.34,0.92 8.26,4.06 12.88,3.28 -1.68,-1.08 -3.26,-2.56 -5.28,-2.86 -10.34,-0.84 -20.26,-4.06 -30.42,-5.94 -4.3,-0.44 0.54,-4.2 1.7,-5.4 20.08,6.4 41.48,8.26 61,16.48 8.8,3.4 17.54,6.92 25.94,11.22 8.22,-2.14 14.8,3.28 21.36,7.22 -2.82,-3.1 -5.7,-6.16 -8.98,-8.76 C 105.88,585.96 82.74,568.88 58.74,553.06 45.38,539.84 26.72,533.5 13.82,519.72 z"
       id="path114"
       inkscape:connector-curvature="0"
       style="fill:#f3722b" />
    <path
       d="m 770.2,532.94 c 6.04,0.1 10.54,4.3 15.44,7.22 1.4,-1.96 2.82,-3.92 4.24,-5.86 3.96,1.4 7.02,4.26 9.88,7.22 -1.16,4.82 -3.12,9.38 -5.44,13.72 -7.44,0.28 -16.06,-2.58 -20.28,-8.88 2.48,-0.54 4.98,-1 7.5,-1.4 -4.2,-3.56 -9.18,-6.7 -11.34,-12.02 z"
       id="path120"
       inkscape:connector-curvature="0"
       style="fill:#f4e4c0" />
    <path
       d="m 890.08,538.24 c 13.1,-0.76 26.36,-3.48 39.4,-0.42 12.38,1.04 24.64,3.68 35.96,8.94 3.1,1.08 5.04,3.76 7.12,6.16 -10.48,1.64 -18.66,-7.18 -28.8,-8.68 9.74,3.6 19.5,7.7 27.36,14.7 7.9,6.72 20.4,11.94 19.04,24.46 -5.3,-1.14 -8.4,-5.76 -12.16,-9.18 -10.2,-9.42 -22.64,-16.06 -35.64,-20.72 -21.3,-9.68 -45.22,-10.44 -68.16,-9.16 -12.9,3 -26.32,1.74 -39.1,5.24 l -0.64,-3.22 c 18.22,-4.54 36.86,-7.38 55.62,-8.12 z"
       id="path122"
       inkscape:connector-curvature="0"
       style="fill:#f3722b" />
    <path
       d="m 582.76,541.66 c 2.78,-0.28 5.58,-0.54 8.38,-0.8 1.5,1.72 3.02,3.44 4.54,5.2 -1.84,1.9 -3.68,3.82 -5.52,5.74 -2.48,-3.38 -4.94,-6.76 -7.4,-10.14 z"
       id="path126"
       inkscape:connector-curvature="0"
       style="fill:#f3722b" />
    <path
       d="m 548.02,551.18 c 8.68,-4.46 18.76,-4.88 28.14,-7.1 -0.02,4 2.16,7.24 4.68,10.16 -8.94,2.1 -17.56,5.38 -26.66,6.84 -2,-3.34 -4.08,-6.62 -6.16,-9.9 z"
       id="path130"
       inkscape:connector-curvature="0"
       style="fill:#f3722b" />
    <path
       d="m 338.84,547.98 c 1.36,0.36 4.06,1.06 5.42,1.42 1.54,8.22 2.44,16.56 2.86,24.92 3.3,0.74 6.44,3 9.9,2.66 4.18,-2.44 8.16,-5.34 12.8,-6.84 -0.06,6.64 -7,9.22 -11.24,13.1 0.24,0.72 0.74,2.18 0.98,2.92 3.68,1.32 7.32,2.72 10.96,4.2 l -2.24,1.6 -1.32,0.24 c -5.96,0.42 -11.74,-1.16 -17.44,-2.6 -3.7,2.3 -7.62,4.36 -11.92,5.26 -0.84,0.16 -2.56,0.46 -3.4,0.6 -0.26,-3.82 3.38,-4.38 6.18,-5.44 -9.48,-0.18 -18.8,-1.9 -28.14,-3.18 -6.74,-1.16 -14.12,-1.94 -18.94,-7.4 14.68,-1.74 31.22,9.46 44.52,-0.7 -7.34,-8.52 -15.72,-16.14 -21.98,-25.54 2.6,-0.04 5.96,-1.54 7.92,0.92 6.1,6.64 11.72,13.74 17.76,20.48 0.2,-8.96 -1.04,-17.84 -2.68,-26.62 z"
       id="path132"
       inkscape:connector-curvature="0"
       style="fill:#f4e4c0" />
    <path
       d="m 841.42,552.94 c 12.66,0.56 24.78,4.98 36.5,9.48 8.44,3.74 17.48,7.06 24.02,13.84 2.16,1.86 1.94,4.7 -0.44,6.28 -8.86,-2.32 -16.44,-7.78 -25.02,-10.88 -9,-3.3 -18.22,-6.06 -27.58,-8.1 -6.38,-1.32 -13.76,0.88 -19.06,-3.86 3.2,-0.86 6.42,-1.62 9.66,-2.36 0.48,-1.1 1.44,-3.3 1.92,-4.4 z"
       id="path134"
       inkscape:connector-curvature="0"
       style="fill:#f3722b" />
    <path
       d="m 351.02,554.94 c 1.06,-0.04 3.22,-0.1 4.3,-0.14 0.68,4.88 -0.08,9.76 -0.84,14.58 -0.96,0 -2.9,0.02 -3.86,0.04 -0.02,-4.84 0.14,-9.66 0.4,-14.48 z"
       id="path136"
       inkscape:connector-curvature="0"
       style="fill:#f4e4c0" />
    <path
       d="m 523.82,555.74 c 3.68,-0.58 7.38,-1.14 11.06,-1.66 1.8,3.58 3.58,7.16 5.38,10.74 -3.58,1.72 -7.46,3.46 -11.54,2.54 -2.48,-3.46 -3.54,-7.66 -4.9,-11.62 z"
       id="path140"
       inkscape:connector-curvature="0"
       style="fill:#f3722b" />
    <path
       d="m 749.02,564.62 c 4.68,-1.06 8.98,1.24 13.34,2.56 6.22,0.96 12.52,-0.36 18.54,-2 2.68,5.88 -3.66,9.06 -6.62,13.14 -8.56,11.02 -15.46,23.22 -22.94,35.02 -12.14,19.2 -21.46,39.96 -31.84,60.14 -15.6,30.94 -30.92,61.98 -46.26,93.04 -0.94,-6.02 -1.42,-12.34 1.62,-17.86 6.92,-14.76 10.56,-30.9 18.88,-45 14.74,-28.46 28.58,-57.42 44.2,-85.42 -15,14.28 -28.26,30.28 -42.68,45.14 -15.34,21.66 -27.66,45.34 -42.58,67.32 -3.72,5.28 -5.28,11.7 -8.76,17.12 -11.54,15.68 -18.1,34.66 -30.48,49.7 -1.42,0.12 -4.26,0.36 -5.68,0.48 2.94,-24.86 20.16,-44.1 29.52,-66.5 2.7,-5.76 7.12,-10.44 10.5,-15.76 10.32,-16.98 20.36,-34.16 30.76,-51.12 14.74,-20.4 29.98,-40.48 44.96,-60.72 -11.54,6.98 -24.9,11.16 -34.8,20.6 -19.82,17.58 -39.92,34.86 -59.62,52.58 -6.42,7.68 -15.3,12.6 -22.16,19.82 -16.96,16.34 -37.7,29.64 -49.54,50.58 -15.28,21.3 -31.02,42.26 -46.04,63.74 -1.12,-0.72 -3.38,-2.2 -4.5,-2.94 11.56,-19.1 22,-38.9 33.72,-57.88 12.34,-15.58 24.52,-31.38 38.36,-45.62 16.1,-14.48 30.72,-30.5 46.92,-44.86 11.32,-11.42 22.46,-23.22 35.84,-32.3 16.82,-12.8 34.26,-24.78 50.7,-38.02 -15.94,3.48 -32.04,7.18 -46.94,14 -5.42,1.86 -11.34,2.54 -16.14,5.92 -16.58,10.54 -31.72,23.12 -47.72,34.5 -1.08,-0.36 -3.26,-1.06 -4.34,-1.42 6.92,-7.76 16.46,-12.5 23.2,-20.4 3.9,-3.44 9.02,-5.32 12.36,-9.46 4.18,-4.78 10.04,-7.5 15.56,-10.4 14,-7.98 28.96,-14.12 43.96,-19.96 19.04,-5.46 36.92,-15.04 56.7,-17.76 z"
       id="path144"
       inkscape:connector-curvature="0"
       style="fill:#f3722b" />
    <path
       d="m 811.64,565.58 c 4.82,-0.42 9.88,-1.92 14.7,-0.56 13.36,5.98 26.56,12.4 39.14,19.9 18.32,13.34 34.92,29.88 44.98,50.44 1.22,5.78 -0.02,11.96 2.1,17.68 -8.8,1.92 -9.92,-8.06 -14.5,-13.04 -21.84,-26.24 -46.22,-51.56 -77.12,-67.02 -3.74,-1.6 -6.94,-4.12 -9.3,-7.4 z"
       id="path146"
       inkscape:connector-curvature="0"
       style="fill:#f3722b" />
    <path
       d="m 214.86,592.48 c 8.66,-7.2 16.74,-15.04 25.36,-22.24 -1.92,5.88 -3.92,11.74 -6.08,17.56 -1.38,3.6 -2.44,7.32 -3.44,11.06 l -0.88,3.24 c 12.78,-2.88 25.32,-6.76 38.04,-9.82 -14.52,10.36 -29.54,20.02 -44.2,30.16 5.78,3.06 12.34,3.7 18.68,4.78 -13.7,10.42 -28.8,18.86 -42.7,29.02 -2.72,-5.78 -5.36,-11.6 -8.12,-17.34 -8.02,-2.28 -16.16,-4.04 -24.22,-6.1 -1.68,-1.22 -3.36,-2.4 -5.06,-3.56 6.8,1.72 14.66,2.82 21.2,-0.12 -0.84,-5.48 -5.82,-9.12 -8.22,-13.94 -3.64,-7.44 -8.02,-14.8 -9.16,-23.14 11.24,4 21.88,9.56 32.56,14.82 3.34,-2.86 6.6,-5.82 9.94,-8.68 2.16,-1.84 4.26,-3.76 6.3,-5.7 z"
       id="path148"
       inkscape:connector-curvature="0"
       style="fill:#f4e4c0" />
    <path
       d="m 800.16,575.64 c 0.98,-0.68 2.98,-2.06 3.96,-2.74 10.46,4.56 16.6,14.82 25.04,22.06 9.7,8.02 12.78,20.68 18.82,31.24 6.18,13.22 14.2,25.74 17.9,40 7.14,22.28 12.26,45.14 18.48,67.68 1.62,6.76 4.06,13.42 4.56,20.4 -0.2,5.66 -6.02,7 -10.42,8.2 -3.96,-15.92 -5.1,-32.52 -10.76,-47.98 -5.72,-16.92 -12.14,-33.58 -17.62,-50.58 -2.42,-8.02 -8.2,-14.32 -13.1,-20.9 3.04,24.92 11.4,48.92 16.76,73.4 2.38,18.4 2.9,37 3.64,55.52 2.18,17.42 1.96,35 2.2,52.52 -4.86,5.02 -9.78,10.9 -17.32,11.3 0.16,-6.58 0.46,-13.14 0.7,-19.7 -1.32,-0.42 -3.98,-1.24 -5.32,-1.64 1.56,-1.5 3.12,-3 4.7,-4.48 -0.46,-21.96 1.42,-44.1 -2.12,-65.92 -2.94,-16.34 -4.98,-32.9 -9.72,-48.86 -8.84,-33.58 -17.46,-67.4 -31.54,-99.24 2.18,-1.78 4.64,-3.28 6.42,-5.48 0.44,-5.54 -2.64,-10.24 -5.26,-14.8 z"
       id="path152"
       inkscape:connector-curvature="0"
       style="fill:#f3722b" />
    <path
       d="m 773.92,587.84 c 3.04,-4.26 7.9,-2.06 11.54,-0.08 -0.5,1.06 -1.46,3.18 -1.96,4.24 -0.24,1.08 -0.7,3.24 -0.94,4.32 -2.78,6.28 -5.72,12.76 -5.66,19.78 -0.08,4.46 -0.38,8.98 -2.6,12.98 -3.38,5.92 -0.46,12.74 -1.06,19.14 0.34,6.9 -5.58,11.64 -8.08,17.56 2,9.62 2.94,20.04 -0.96,29.34 -3.58,7.76 -0.36,16.4 -1.64,24.5 -2.54,8.7 -8.2,16 -11.56,24.32 -0.44,7.44 1.74,14.74 1.7,22.2 -1.3,7.76 -4.62,14.86 -7.66,22.02 -1.48,12.66 2.36,26.12 -3.58,38.08 -1.3,9.1 -2.58,18.18 -3.86,27.28 -0.58,2.18 -1.16,4.36 -1.74,6.56 -0.58,3.34 -1.18,6.7 -2.08,9.98 -1.88,13.3 -4.92,26.46 -5.24,39.92 -2.48,17.96 -4.66,35.96 -6.48,54 -1.16,6.28 -3.42,12.28 -5.68,18.24 -0.52,1.22 -1.56,3.66 -2.08,4.88 -2.08,0.04 -4.16,0.1 -6.22,0.16 1.44,-1.76 2.88,-3.5 4.32,-5.22 7.02,-15.16 6.04,-32 8.46,-48.1 2.24,-7.18 1.4,-14.86 3.62,-22 0.06,-10.66 1.26,-21.24 3.46,-31.66 2.4,-13.48 6.72,-26.66 7.2,-40.42 0.26,-2.5 0.74,-4.92 1.48,-7.32 0.12,-2.06 0.24,-4.14 0.34,-6.18 -2.92,-2 -1.84,-5.42 -1.84,-8.26 0.78,-8.06 0.26,-16.12 0.14,-24.18 -0.22,-8.82 7.76,-15.24 7.92,-23.98 1.22,-9.22 -0.88,-18.46 -0.36,-27.7 2.02,-5.94 7.42,-10.46 8.24,-16.88 0.72,-6.36 0.14,-12.8 -0.52,-19.12 -4.32,-6.24 1.98,-12.02 3.42,-18 2.78,-7.76 0.82,-15.98 0.96,-23.96 2.44,-5.28 6.4,-9.66 10,-14.16 0.5,-6.78 -1,-13.4 -1.98,-20.04 2.8,-3.5 5.46,-7.46 5.62,-12.1 -0.4,-3.92 -3.24,-8.12 -0.64,-11.8 3.3,-5.64 4.26,-12.14 6,-18.34 z"
       id="path154"
       inkscape:connector-curvature="0"
       style="fill:#f4e4c0" />
    <path
       d="m 600,599.6 c 3.44,-1.56 6.9,-3.06 10.4,-4.54 2.94,4.58 6.2,9.02 8.36,14.06 2.32,3.86 -2.88,7.18 -6.32,6.64 -4.68,-4.96 -8.32,-10.78 -12.44,-16.16 z"
       id="path158"
       inkscape:connector-curvature="0"
       style="fill:#f3722b" />
    <path
       d="m 583.48,606.06 c 4.26,-2.24 10.56,-5.66 14.16,-0.64 -3.2,6.26 0.32,12.16 3.3,17.62 2.74,4.52 -2.86,7.22 -5.34,10.02 -3.12,-9.42 -8.42,-17.88 -12.12,-27 z"
       id="path164"
       inkscape:connector-curvature="0"
       style="fill:#f3722b" />
    <path
       d="m 14.32,604.6 c 19.24,-1.08 38.7,-0.74 57.82,2.08 8.04,0.62 15.94,2.32 23.48,5.24 7.88,2.98 16.4,3.36 24.4,5.84 12.56,5.6 24.9,11.78 38,16.02 6.42,2.6 13.74,3.54 19.04,8.34 -14.12,2.46 -27.92,6.5 -42,9.14 -19.76,6.9 -39.72,13.28 -59.36,20.54 -12,4.64 -22.84,11.66 -34.14,17.7 -9.98,5.02 -16.52,14.94 -27.08,19.02 0.02,-5.72 0.1,-11.42 0.18,-17.12 12.18,-7 24.72,-13.42 37.6,-19.06 12.3,-5.92 24.36,-12.38 37.08,-17.32 11.08,-4.7 23.34,-4.92 34.68,-8.8 -8.68,-1.08 -17.3,1.34 -25.9,2.2 -19.94,3.84 -39.94,7.48 -59.66,12.4 -7.96,2.66 -16.1,4.76 -24.44,5.9 0.44,-1.66 1.32,-4.96 1.74,-6.62 20.28,-7.36 41.58,-11.42 61.98,-18.44 9.96,-2.52 20.1,-4.38 30.24,-6.02 11.94,-0.84 23.94,-0.16 35.9,-0.62 -17.32,-4.94 -34,-12.7 -52.12,-14.36 -26.02,-4.22 -52.28,-6.78 -78.38,-10.24 0.24,-1.46 0.7,-4.38 0.94,-5.82 z"
       id="path166"
       inkscape:connector-curvature="0"
       style="fill:#f3722b" />
    <path
       d="m 235.06,644.04 c 7.64,-4.42 14.62,-10.36 22.96,-13.4 17.9,-1.06 35.92,-0.36 53.82,0.62 25.08,2.82 49.68,9.24 73.48,17.5 3.1,1 6.2,2 9.28,3.02 9.62,2.88 18.08,8.44 27.36,12.16 8.92,3.4 16.58,9.22 24.62,14.24 -4.14,2.04 -8.3,6.6 -13.3,4.64 -10.88,-3.82 -22.56,-5.52 -32.72,-11.24 -3.3,-1.7 -6.58,-3.42 -9.94,-4.98 -15.9,-7.88 -33.64,-10.56 -49.96,-17.32 -14.46,-5.12 -29.96,-5.58 -45,-7.64 -5.7,-0.84 -11.46,-0.48 -17.12,0.28 4.42,0.46 8.88,0.7 13.32,0.84 10.52,-0.6 19.24,6.74 29.6,7.46 13.08,0.78 24.52,7.48 36.58,11.8 12.44,4.28 21.6,14.3 33.32,20 1.04,0.6 3.12,1.8 4.18,2.4 -0.66,0.72 -1.96,2.2 -2.6,2.92 -5.3,-0.06 -10.8,-0.18 -15.58,-2.72 -11.36,-5.58 -23.22,-10.02 -34.62,-15.52 -8,-3.86 -16.38,-6.94 -25.02,-9 -16.7,-4.02 -33.4,-8.96 -50.68,-9.62 10.72,8.22 15.4,21.06 22.04,32.32 16.3,6.06 30,17.08 45.38,24.94 20.8,12.36 41.5,25.06 60.58,39.98 2.6,2.1 5.18,4.18 7.78,6.3 11.52,10.44 24.34,19.34 35.58,30.1 -1.18,0.8 -3.52,2.36 -4.68,3.14 -8.06,-11.46 -20.28,-18.62 -30.6,-27.74 -2.88,-2.34 -5.82,-4.64 -8.66,-7.02 -9.74,-9.2 -21.32,-16.06 -32.64,-23.06 10.36,10.62 22.82,18.98 33,29.82 2.34,3.74 5.04,7.24 8.04,10.48 7.62,8.28 13.36,18.06 20.84,26.46 4.42,5.04 8.72,10.22 12.32,15.9 -1.3,-0.28 -3.88,-0.82 -5.18,-1.1 -9.6,-10.68 -17.58,-22.76 -27.42,-33.24 -2.62,-3.84 -5.44,-7.54 -8.54,-11 -10.02,-13.84 -23.78,-24.12 -37.16,-34.48 -7.22,-5.42 -13.66,-11.86 -21.44,-16.52 -23.34,-14.08 -46.06,-30.12 -72.52,-37.88 -2.88,-0.8 -5.9,-1.56 -7.78,-4.16 6.14,-2.48 12.38,0.32 18.4,1.6 -4.6,-9.6 -13.64,-15.62 -21.94,-21.72 -5.38,-3.9 -11.32,-6.92 -17.38,-9.56 z"
       id="path178"
       inkscape:connector-curvature="0"
       style="fill:#f3722b" />
    <path
       d="m 630.6,633.12 c 1.18,0.02 3.52,0.08 4.7,0.12 1.1,4.66 -3.5,11.16 -8,6.58 0.98,-2.3 2.14,-4.5 3.3,-6.7 z"
       id="path180"
       inkscape:connector-curvature="0"
       style="fill:#f3722b" />
    <path
       d="m 607.26,652.6 c 1.9,-0.14 3.82,-0.28 5.76,-0.4 0.42,1.34 1.28,4.04 1.7,5.38 -2.18,1.84 -4.34,3.7 -6.5,5.56 -0.72,-1.4 -2.14,-4.18 -2.86,-5.58 0.48,-1.24 1.42,-3.72 1.9,-4.96 z"
       id="path186"
       inkscape:connector-curvature="0"
       style="fill:#f3722b" />
    <path
       d="m 160.38,658.36 c 6.24,-4.52 14.3,-4.18 21.58,-3.18 -10.62,8.2 -23.14,14.52 -31.02,25.78 -2.88,4.42 -7.26,7.44 -11.52,10.42 -7.8,5.42 -13.42,13.24 -20.42,19.58 -14.68,13.72 -25.58,30.72 -37.62,46.64 -4.92,6.32 -8.08,13.76 -12.98,20.08 -1.04,-0.74 -3.14,-2.24 -4.2,-3 14.7,-25.62 32.8,-49.36 53.48,-70.44 -5.8,-1.64 -11.42,2.22 -15.76,5.72 -10.42,8.78 -21.64,16.78 -30.74,27.02 -11.38,12.74 -22.52,25.74 -32.66,39.52 -4.46,5.88 -7.86,13.14 -14.6,16.84 -3.12,-0.88 -6.08,-2.22 -9.12,-3.32 -1.18,-6.96 4.36,-12 7.86,-17.3 10.42,-14.1 19.44,-29.48 32.3,-41.58 10.14,0.12 16.6,-8.38 23.84,-14.14 9.58,-9.32 21.76,-15.38 30.92,-25.18 16.32,-11.96 33.6,-22.58 50.66,-33.46 z"
       id="path188"
       inkscape:connector-curvature="0"
       style="fill:#f3722b" />
    <path
       d="m 214.54,657.44 c 3.62,-5.58 9.92,-0.36 13.62,2.38 11.68,10.88 19.88,24.92 26.6,39.28 10.32,18.78 17.34,39.04 25.62,58.74 2.84,8.06 6.58,15.86 8.32,24.28 1.62,9.82 6.78,18.8 6.98,28.9 -2.58,1.22 -5.16,2.52 -7.4,4.3 -1.78,0.14 -3.56,0.28 -5.32,0.44 -2.32,-18.3 -9.38,-35.5 -13.74,-53.32 -7.04,-18.12 -13,-36.74 -21.68,-54.16 -10.16,-17.46 -18.72,-36.24 -33,-50.84 z"
       id="path190"
       inkscape:connector-curvature="0"
       style="fill:#f3722b" />
    <path
       d="m 136.4,710.38 c 13.18,-15.3 25.88,-30.98 39.12,-46.2 3.82,0.28 7.62,0.6 11.44,0.96 -0.28,18.02 -10.46,33.48 -15.6,50.28 -6.18,15.9 -10,32.56 -15.7,48.62 -2.04,9.86 -3.66,19.82 -6.3,29.56 -6.42,26.56 -10.64,53.6 -15.4,80.5 -2.34,24.18 -6.34,48.12 -9.84,72.14 -0.92,12.3 -3.84,24.3 -5.72,36.48 -2.98,-1.9 -6.88,-2.84 -9.06,-5.72 -1.82,-25.36 -3.68,-50.78 -3.18,-76.26 2.34,-0.54 4.68,-1.06 7,-1.56 5.46,-23.1 9.7,-46.44 14.06,-69.74 1.28,-7.36 3.48,-14.62 3.28,-22.16 -9.54,29.46 -22.42,57.86 -29.9,87.98 -2.32,-0.1 -4.62,-0.16 -6.94,-0.22 -3.3,6.86 -7.52,13.3 -9.9,20.58 -8.46,26.6 -14.72,53.88 -23.5,80.36 -2.68,-3.48 -8.64,-6.3 -7.3,-11.48 5.94,-28.52 12.72,-56.88 18.82,-85.36 2.44,-12.38 7.64,-23.94 11.78,-35.8 9.58,-25.14 18,-50.72 28.14,-75.64 -3.96,-5.42 -8.06,-10.7 -12.24,-15.94 8.86,-15.86 18,-31.54 26.84,-47.4 2.8,-5.06 6.34,-9.62 10.1,-13.98 z"
       id="path192"
       inkscape:connector-curvature="0"
       style="fill:#f3722b" />
    <path
       d="m 198.8,670.86 c 6,1.48 11.96,3.12 17.94,4.66 13,29.76 24.68,60.08 34.82,90.94 7.04,21.72 16.46,42.78 20.56,65.36 3.02,13.6 5.86,27.26 9.4,40.76 5.94,24 7.76,48.7 11.34,73.1 0.68,5.18 0.96,10.4 1.14,15.62 -2.82,-0.64 -6.5,-0.26 -7.7,-3.56 -3.16,-5.68 -5.32,-11.88 -7.62,-17.94 -5.12,-14.9 -1.82,-32.5 -11.46,-45.7 -0.12,-21.58 -6.94,-42.32 -11.72,-63.2 -9.02,-38.44 -19.52,-76.86 -36.4,-112.66 0.42,11.26 0.32,22.56 0.24,33.86 -0.14,16.1 3.64,31.9 4.06,47.98 0.56,10 3.24,19.88 2.52,29.94 -1.48,16.68 3.88,33.2 1.68,49.86 -2.32,22.48 -1.86,45.16 -4.86,67.58 -3.74,-3.46 -8.76,-6.02 -11.32,-10.5 -4.1,-16.58 -2.72,-33.88 -3.52,-50.78 -2.04,-17.34 -1.2,-34.82 -1.78,-52.22 -1.54,-29.34 1.5,-58.68 0.36,-88.02 -1.9,-13.8 0.64,-27.7 -1.22,-41.5 -1.24,-11.36 -5.5,-22.16 -6.46,-33.58 z"
       id="path194"
       inkscape:connector-curvature="0"
       style="fill:#f3722b" />
    <path
       d="m 913.44,680.26 c 2.8,-4.72 8.9,-3.48 11.44,0.78 5.8,10.5 6.96,22.8 6.84,34.6 -4.22,1.34 -11.08,1.9 -11.92,-3.86 -0.42,-10.84 -4.56,-20.96 -6.36,-31.52 z"
       id="path196"
       inkscape:connector-curvature="0"
       style="fill:#f3722b" />
    <path
       d="m 624.18,700.18 c -0.24,-3.86 3.66,-5.08 6.5,-6.28 2.2,5.62 4.84,11.08 6.5,16.9 1.36,4.12 -2.14,7.5 -3.94,10.84 -1.06,-0.14 -3.2,-0.4 -4.26,-0.52 -1.74,-6.94 -4.5,-13.74 -4.8,-20.94 z"
       id="path198"
       inkscape:connector-curvature="0"
       style="fill:#f3722b" />
    <path
       d="m 573.76,747.54 c 5.66,-8.38 13.58,-14.88 20.48,-22.2 1.04,3.98 2.18,7.96 3.32,11.92 -1.76,-0.2 -5.32,-0.62 -7.08,-0.82 -0.06,6.9 -0.04,13.82 0.22,20.74 -2,1.36 -3.98,2.7 -5.98,4.06 -0.08,6.64 -0.02,13.3 0.2,19.94 -2.46,0 -4.92,0 -7.36,0.02 -2.56,-11.02 -6.14,-22.24 -3.8,-33.66 z"
       id="path200"
       inkscape:connector-curvature="0"
       style="fill:#f3722b" />
    <path
       d="m 646.88,766.56 c -1.74,-6.94 3.36,-12.82 5.34,-19.08 0.32,5.14 1.32,10.22 3.24,15.02 3.94,10.16 5.14,21.06 8.12,31.5 1.1,3.8 1.48,7.76 1.64,11.72 -4.2,-0.56 -8.24,-1.8 -12.16,-3.32 1.48,-12.38 -3.82,-23.96 -6.18,-35.84 z"
       id="path204"
       inkscape:connector-curvature="0"
       style="fill:#f3722b" />
    <path
       d="m 451.12,804.86 c 4.42,-2.38 9.42,-1.96 14.26,-1.7 -0.04,4.9 -0.26,9.78 -0.54,14.7 -4.88,-2.4 -9.56,-5.16 -13.82,-8.5 0.02,-1.14 0.08,-3.38 0.1,-4.5 z"
       id="path210"
       inkscape:connector-curvature="0"
       style="fill:#f4e4c0" />
    <path
       d="m 891.06,803 c 1.9,0.56 6.98,-0.72 5.52,2.98 0.42,6.28 -12.48,0.64 -5.52,-2.98 z"
       id="path212"
       inkscape:connector-curvature="0"
       style="fill:#f3722b" />
    <path
       d="m 448.92,821.58 c 4.86,1.8 8.9,5.06 12.72,8.48 -0.84,0.28 -2.52,0.86 -3.36,1.16 -2.74,2.54 -6.04,4.02 -9.8,4.2 0.02,-4.62 0.18,-9.24 0.44,-13.84 z"
       id="path214"
       inkscape:connector-curvature="0"
       style="fill:#f4e4c0" />
    <path
       d="m 590.74,834.5 c 2.22,-0.02 4.44,0.04 6.68,0.22 -0.08,12.64 -5.64,24.18 -11.54,35.04 -8.1,-11 -1.26,-25.04 4.86,-35.26 z"
       id="path216"
       inkscape:connector-curvature="0"
       style="fill:#f3722b" />
    <path
       d="m 446.68,856.02 c 4.58,-4.34 9.62,-8.16 14.48,-12.18 0.26,9.5 -1,19.1 1.66,28.38 -1.6,6.04 -2.4,12.2 -1.96,18.46 -4.2,-0.74 -11.78,2.7 -13,-3.18 0.04,-8.54 -6.1,-18.12 0.78,-25.48 -0.98,-1.92 -1.64,-3.92 -1.96,-6 z"
       id="path218"
       inkscape:connector-curvature="0"
       style="fill:#f4e4c0" />
    <path
       d="m 311,879.06 c 4.12,-4.46 10.98,-1.76 12.88,3.48 6.78,12.8 8.28,28.04 7.52,42.34 -2.44,0.64 -4.9,1.22 -7.36,1.7 -2.1,-2.26 -2.5,-5.44 -2.76,-8.36 -0.94,-13.5 -3.32,-27.34 -10.28,-39.16 z"
       id="path220"
       inkscape:connector-curvature="0"
       style="fill:#f3722b" />
    <path
       d="m 828.06,914.04 c 1.26,-5.58 0.58,-11.84 3.92,-16.78 0.88,0.1 2.64,0.26 3.5,0.34 2.74,18.94 -7.84,36.14 -9.24,54.62 -1.32,0.68 -3.94,2.02 -5.26,2.7 -3.86,-14.28 5.08,-27.14 7.08,-40.88 z"
       id="path222"
       inkscape:connector-curvature="0"
       style="fill:#f3722b" />
    <path
       d="m 855.16,943.92 c -0.36,-8.22 5.24,-15.28 6.72,-23.24 2.26,1.42 3.96,3.76 2.68,6.52 -1.94,6.12 -4.4,12.44 -9.4,16.72 z"
       id="path224"
       inkscape:connector-curvature="0"
       style="fill:#f3722b" />
    <path
       d="m 197.02,942.6 c -2.16,-1.78 -0.74,-6.58 2.4,-5.32 2.32,1.36 2.86,3.22 1.64,5.54 -1.02,-0.06 -3.02,-0.16 -4.04,-0.22 z"
       id="path226"
       inkscape:connector-curvature="0"
       style="fill:#f3722b" />
    <path
       d="m 246.32,944.78 c 3.44,-1.04 6.96,-1.12 10.3,0.32 -0.02,7.14 2.34,13.92 6.04,19.96 -1.7,1.94 -3.48,4.12 -6.4,3.4 -5.26,-6.9 -8.36,-15.22 -9.94,-23.68 z"
       id="path228"
       inkscape:connector-curvature="0"
       style="fill:#f3722b" />
  </g>
</svg>
