<?xml version="1.0" encoding="UTF-8" standalone="no"?>
<svg
   xmlns:dc="http://purl.org/dc/elements/1.1/"
   xmlns:cc="http://creativecommons.org/ns#"
   xmlns:rdf="http://www.w3.org/1999/02/22-rdf-syntax-ns#"
   xmlns:svg="http://www.w3.org/2000/svg"
   xmlns="http://www.w3.org/2000/svg"
   xmlns:sodipodi="http://sodipodi.sourceforge.net/DTD/sodipodi-0.dtd"
   xmlns:inkscape="http://www.inkscape.org/namespaces/inkscape"
   width="1280"
   height="1280"
   viewBox="0 0 1024 1024"
   version="1.1"
   id="svg2"
   inkscape:version="0.48.1 "
   sodipodi:docname="bounce_then_shotgun.svg">
  <metadata
     id="metadata50">
    <rdf:RDF>
      <cc:Work
         rdf:about="">
        <dc:format>image/svg+xml</dc:format>
        <dc:type
           rdf:resource="http://purl.org/dc/dcmitype/StillImage" />
      </cc:Work>
    </rdf:RDF>
  </metadata>
  <defs
     id="defs48" />
  <sodipodi:namedview
     pagecolor="#ffffff"
     bordercolor="#666666"
     borderopacity="1"
     objecttolerance="10"
     gridtolerance="10"
     guidetolerance="10"
     inkscape:pageopacity="0"
     inkscape:pageshadow="2"
     inkscape:window-width="1920"
     inkscape:window-height="1018"
     id="namedview46"
     showgrid="false"
     inkscape:snap-page="true"
     fit-margin-top="0"
     fit-margin-left="0"
     fit-margin-right="0"
     fit-margin-bottom="0"
     inkscape:zoom="0.6609375"
     inkscape:cx="716.40662"
     inkscape:cy="640"
     inkscape:window-x="-8"
     inkscape:window-y="-8"
     inkscape:window-maximized="1"
     inkscape:current-layer="layer1" />
  <g
     inkscape:groupmode="layer"
     id="layer1"
     inkscape:label="background">
    <rect
       style="fill:#3e3e3e;fill-opacity:1;fill-rule:nonzero;stroke:none"
       id="rect3043"
       width="1024"
       height="1024"
       x="0"
       y="0" />
  </g>
  <g
     inkscape:groupmode="layer"
     id="layer2"
     inkscape:label="foreground">
    <path
       d="M 1020.5,0 3.6,1024 1024,1024 1024,0 z M 552,539.1 c 9.32,5.48 19.2,9.94 29,14.5 0.18,2.9 0.42,5.83 0.6,8.75 26.34,10.42 52.76,20.7 79.3,30.6 7.24,3.76 12.06,10.73 18.3,15.85 15,12.94 28.51,27.48 43.55,40.4 5.7,5.22 9.95,11.77 14.65,17.85 9.66,12.76 19.4,25.49 29.1,38.25 5.44,7.16 10.44,15 18.1,20.1 3.08,-0.22 6.5,-4.28 9.2,-1.4 11.82,11.6 24,22.83 36.2,34.05 3.18,1.98 2.67,5.81 3.05,9.05 37.2,32.06 73.49,65.26 110.35,97.7 2.92,2.2 6.12,-1.02 8.9,-1.9 5.74,4.84 11.49,9.64 17.55,14.1 2.62,-0.86 5.25,-1.84 7.95,-2.5 3.24,1.66 5.01,5.3 7.65,7.8 0.18,3.04 -0.72,5.95 -2.3,8.55 -4.68,7.92 -7.49,17.23 -14.65,23.45 -13.96,12.8 -25.7,28.09 -41.6,38.65 -2.54,3.14 -6.53,2.69 -10.05,1.95 -0.06,-3.94 -0.11,-7.88 -0.05,-11.8 -4.72,-7.04 -12.81,-11.39 -16.75,-18.85 0.74,-0.98 2.16,-2.95 2.9,-3.95 0,-0.62 0.03,-1.88 0.05,-2.5 -37.42,-31.44 -73.88,-64 -110.9,-95.9 -2.78,-2.14 -6.58,-0.98 -9.8,-1.4 -13.92,-10.74 -27.31,-22.2 -41.55,-32.5 0.16,-3.42 0.31,-6.83 0.45,-10.25 -2.12,-0.7 -4.14,-1.57 -6.1,-2.55 -25.08,-15.14 -50.59,-29.59 -75.65,-44.75 -19.78,-16.86 -39.71,-33.61 -59.45,-50.55 -2.84,-2.62 -5.98,-5.04 -8.1,-8.3 -13.7,-25.58 -27.74,-50.97 -41.8,-76.35 -2.52,0.5 -4.83,2.17 -7.45,1.95 -5.44,-8.58 -9.76,-17.85 -15.2,-26.45 -1.82,-2.56 1.03,-4.81 2.45,-6.65 7.52,-8.18 14.88,-16.56 22.1,-25 z"
       id="path6"
       style="fill:#f5e5c1"
       inkscape:connector-curvature="0"
       sodipodi:nodetypes="ccccccccccccccccccccccccccccccccccccccccccc" />
    <path
       d="m 624.32,69.14 c 7,-12.92 13.18,-26.26 20.14,-39.2 2.1,27.08 4.16,54.18 5.4,81.3 46.3,-22.36 92.2,-45.6 138.56,-67.88 -32.04,44.52 -65.12,88.32 -97.82,132.38 47.2,-5.82 94.52,-10.6 141.7,-16.56 -36.38,26.64 -72.12,54.14 -108,81.4 12.98,3.22 26.14,5.8 39.08,9.22 -6.5,4.48 -13,8.92 -19.44,13.48 3.6,1.42 7.2,2.86 10.84,4.24 25.22,9.92 50.54,19.54 75.74,29.5 -22.14,0.42 -44.28,-0.44 -66.42,-0.56 -12.64,-0.02 -25.3,-1.84 -37.92,-0.36 -20.66,-1.6 -41.42,-0.7 -62.12,-1.56 -12.04,-0.64 -24.48,1.18 -36.14,-2.64 -14.6,-4.64 -29.06,-9.8 -43.72,-14.3 18.48,-13.02 38.06,-24.4 56.68,-37.2 -22.78,1.72 -45.56,3.88 -68.3,6.22 8.24,-14.18 16.2,-28.54 25,-42.38 -15.22,2.64 -30.16,6.5 -45.3,9.48 20.28,-60.16 39.56,-120.68 59.66,-180.9 4.16,12.08 8.32,24.18 12.38,36.32 z"
       id="path8"
       inkscape:connector-curvature="0"
       style="fill:#f5722c" />
    <path
       style="fill:#f5e5c1"
       d="m 534.95,236.55 c -1.71973,0.0229 -3.40501,0.45 -4.95,1.35 -99.82,50.06 -198.96,101.52 -298.3,152.5 -10.16,-5.98 -22.01,-1.38 -31.35,3.9 -16.66,9.46 -33.96,17.87 -50.3,27.85 -16.7,17.94 -32.85,36.51 -49.15,54.85 -11.66,16.1 -25.67,30.2 -38.45,45.4 -8.88,12.2 -16.67,26.16 -17.75,41.5 0.16,4.06 -1.06,9.53 3,12.15 5.96,4.06 12.42,7.35 18.3,11.55 3.46,1.94 7.24,5.34 11.5,3.7 9.1,-5.98 11.2,-17.29 15,-26.75 7.98,-16.94 22.96,-29.3 39.1,-38.1 -10.44,-7.54 -20.58,-15.57 -31.3,-22.75 -14.08,13.44 -29.41,26.23 -38.85,43.65 -4.96,7.2 -7.06,16.69 -14.2,22.15 3.1,-10.1 9.26,-18.82 14.3,-28 9.5,-16.26 23.96,-28.56 37.7,-41.1 -0.3,-4.5 -1.42,-9.14 -0.4,-13.6 1.58,-3.52 4.39,-6.2 6.95,-9 -2.18,5.26 -4.16,10.67 -4.1,16.45 10.92,-10.64 21.64,-21.57 31.9,-32.85 4.4,-8.64 2.02,-20.3 10.3,-27.1 -1.2,7.44 -3.28,14.68 -4.6,22.1 16.78,-10.26 33.59,-20.48 50.35,-30.8 4.14,-2.42 7.95,-5.76 12.85,-6.5 -0.76,2.6 -1.76,5.28 -4.4,6.5 -16.22,9.94 -32.43,19.9 -48.55,30 -6.82,4.34 -14.31,8.04 -19.55,14.4 -8.66,9.72 -17.83,18.98 -26.15,29 11.86,9.16 23.67,18.36 35.45,27.6 3.06,2.18 6.42,5.7 10.4,3.2 42.32,-16.72 85.1,-32.38 127.5,-48.9 1.96,-6.02 2.66,-12.51 5.6,-18.15 9.84,-5.94 20.79,-9.87 30.85,-15.45 -0.58,-3.7 -4.67,-5.3 -6.85,-8 -6.18,-5.28 -9.2,-12.9 -12.2,-20.2 -0.64,-0.22 -1.91,-0.63 -2.55,-0.85 -13.68,5.7 -26.36,13.45 -39.6,20.05 -2.9,13.4 8.33,24.12 19.65,28.7 1.66,-0.52 3.31,-1.07 4.95,-1.65 -1.34,3.94 -2.41,7.96 -3.45,12 -20.5,-17.12 -40.19,-35.27 -60.55,-52.55 -2.76,-2.54 -5.95,-5.14 -6.75,-9 -4.36,-12.06 8.59,-26.98 21.25,-22.6 -4.3,4.7 -12.27,7.43 -12.75,14.65 -1.5,9.54 7.11,16.34 14.25,20.9 6.26,4.62 14.88,6.09 22,2.55 13.66,-6.18 27.27,-12.66 40.25,-20.1 3.32,-6.86 5.24,-15.46 13,-18.8 48.02,-23.9 95.92,-48.13 143.8,-72.35 4.8,-2.44 9.9,-4.25 15,-5.95 2.98,6.84 9.34,11.11 16.5,12.65 26,-12.36 52.46,-23.77 78.6,-35.85 4.02,-1.74 8.02,-4.31 8.6,-9.05 3.16,-7.42 0.45,-15.45 -1.95,-22.65 -4.64,-9 -13.11,-15.23 -21.65,-20.25 -2.4375,-1.4375 -5.38379,-2.43808 -8.25,-2.4 z m 1.55,6.05 c 3.7387,-0.29067 7.4525,2.34501 10.55,4.2 9.08,6.94 17.16,17.89 15,29.95 -1,4.1 -3.82,10.62 -9.2,8.3 -11.94,-4.14 -20.15,-15.44 -23.65,-27.2 -1.88,-5.54 1.56,-11.43 5.7,-14.95 0.53501,-0.1725 1.0659,-0.25848 1.6,-0.3 z M 204,426.95 c 2.46,1.78 6.9,2.75 5.7,6.75 -3.56,5.36 -11.69,4.11 -13.55,-2.05 2.6,-1.6 5.23,-3.16 7.85,-4.7 z m -7.45,19.6 c 4.57682,-0.30325 9.43875,1.69875 13.55,3.5 7.7,3.32 7.07,16.92 -1.25,18.8 -19.76,7.82 -39.04,16.85 -59,24.15 -4.82,-2.78 -12.53,-5.92 -10.95,-12.9 0.1,-5.04 5.1,-6.91 8.8,-8.95 14.4,-7.28 28.76,-14.7 42.9,-22.5 1.85626,-1.31875 3.86963,-1.96216 5.95,-2.1 z m 58.5,26.5 c 1.65656,0.0119 3.25,0.46499 4.35,1.5 3.2,1.48 1.57,5.55 1.75,8.25 -4.14,1.52 -9.6,3.02 -12.7,-1.2 -4.09499,-4.60499 1.63032,-8.58563 6.6,-8.55 z m -138,21.7 c 1.14875,-0.0172 2.32,0.16499 3.4,0.5 0.18,0.98 0.57,2.97 0.75,3.95 -3.22,1.66 -6.76,2 -10.3,1.6 -0.48,-4.2 2.70375,-5.99843 6.15,-6.05 z"
       id="path10"
       inkscape:connector-curvature="0" />
    <path
       d="m 534.96,307.4 c 5.82,-3.44 11.1,3.26 13.94,7.66 2.08,4.82 4.84,13.42 -2.2,15.34 -11.84,4.9 -23.66,9.88 -35.62,14.42 -7.42,3.2 -14.26,-2.1 -20.06,-6.08 -2.6,-1.58 -4.32,-4.1 -5.78,-6.72 16.82,-7.7 33.32,-16.06 49.72,-24.62 z"
       id="path14"
       inkscape:connector-curvature="0"
       style="fill:#f5e5c1" />
    <path
       d="m 455.48,323.94 c 3.68,3.12 6.84,7.18 11.56,8.76 3.9,1.14 8.02,0.7 12.04,0.74 2.66,9.28 11.18,14.74 19.04,19.34 6.36,1.46 12.94,-0.26 19.36,-0.46 -3.96,9.48 -14.54,15.44 -24.66,12.44 -18.8,-5.44 -31.04,-23.22 -37.34,-40.82 z"
       id="path16"
       inkscape:connector-curvature="0"
       style="fill:#f5e5c1" />
    <path
       d="m 310.08,398.2 c 44.7,-22.36 89.1,-45.34 133.92,-67.42 0.7,3.22 1.48,6.44 2.24,9.66 -44.64,21.68 -90.12,41.62 -134.88,63.04 -4.2,3.76 -6.96,8.96 -11.32,12.66 -0.42,-3.36 -2.54,-7.2 -0.28,-10.28 2.22,-3.88 6.6,-5.6 10.32,-7.66 z"
       id="path18"
       inkscape:connector-curvature="0"
       style="fill:#f5e5c1" />
    <path
       style="fill:#f5e5c1"
       d="m 444.65,348.95 c -2.0597,0.0999 -4.07499,0.61875 -5.95,1.65 -41.9,19.76 -84.01,38.99 -125.85,58.85 -3.26,3.34 -4.35,8.41 -6.15,12.65 -1.86,3.72 1.6,6.86 4,9.2 6.58,6.1 13.02,12.44 20.4,17.6 8.66,5.12 19.23,3.54 28.85,4 15.98,1.32 30.19,-7.36 45.25,-11.2 18.7,-5 36.43,-13.1 52.85,-23.3 20.6,-10.82 39.21,-25.84 52.05,-45.4 l -0.45,-2.65 c -7.64,2.1 -15.72,4.62 -23.4,1 -11.64,-2.7 -19.81,-11.73 -28.15,-19.55 -4.11125,-1.47125 -8.91867,-3.06968 -13.45,-2.85 z m -17.25,29.2 c 2.54,6.04 3.82,12.86 8.4,17.8 5.52,6.18 10.44,13.09 17.8,17.25 -2.04,1.36 -4.08,2.72 -6.1,4.1 -11.9,-8.92 -23.25,-20.58 -26.15,-35.7 -0.3,-3.38 4.11,-2.29 6.05,-3.45 z m -15.05,6 c 3.76,8.62 6.16,18 11.8,25.7 3.34,4.64 7.91,8.12 11.75,12.3 -0.92,2.46 -3.64,2.95 -5.7,4.05 -11.54,-8.04 -20.87,-20.04 -23.05,-34.2 -1.56,-4.2 0.88,-7.45 5.2,-7.85 z m -19,8.8 c 0.22858,-0.016 0.45718,-0.0197 0.7,0 0.6475,0.0525 1.35,0.25 2.1,0.55 2.26,6.58 2.7,13.82 6.4,19.9 3.5,7.52 9.68,13.15 15.6,18.75 -2.18,1.08 -4.34,2.18 -6.5,3.3 -13.06,-8.94 -20.85,-23.94 -22.05,-39.6 0.8925,-1.81125 2.15002,-2.78821 3.75,-2.9 z m -15.9,7.3 c 2.76,7.72 5.46,15.58 9.8,22.6 3.64,5.84 9.6,9.8 12.9,15.9 l -6.4,2.05 c -12.1,-9.12 -19.89,-22.85 -22.65,-37.65 2.12,-0.98 4.21,-1.94 6.35,-2.9 z m -14.8,6.4 c 2.24,8.24 4.61,16.54 8.85,24 3.32,5.16 8.36,8.84 12.7,13.1 -3.7,0.5 -8.4,3.15 -11.3,-0.55 -9.86,-8.54 -14.18,-21.27 -16.3,-33.75 2,-0.94 4.03,-1.86 6.05,-2.8 z m -16.1,7.5 c 4.34,13.26 10.83,26.09 21.85,35.05 -10.92,2.66 -17.53,-7.58 -22.05,-15.7 -2.66,-5.32 -5.79,-11.13 -5.15,-17.25 1.34,-0.52 4.01,-1.56 5.35,-2.1 z"
       id="path20"
       inkscape:connector-curvature="0" />
    <path
       d="m 188.78,462.66 c 3,-1.36 5.94,-3.22 9.34,-3.4 3.7,0.24 5.46,3.82 4.72,7.18 -16.86,8.02 -34.48,14.46 -51.24,22.72 -2.08,-1.84 -6.6,-2.76 -4.96,-6.38 13.88,-7.02 28.26,-13.06 42.14,-20.12 z"
       id="path38"
       inkscape:connector-curvature="0"
       style="fill:#f5e5c1" />
  </g>
</svg>
