<?xml version="1.0" encoding="UTF-8" standalone="no"?>
<svg
   xmlns:dc="http://purl.org/dc/elements/1.1/"
   xmlns:cc="http://creativecommons.org/ns#"
   xmlns:rdf="http://www.w3.org/1999/02/22-rdf-syntax-ns#"
   xmlns:svg="http://www.w3.org/2000/svg"
   xmlns="http://www.w3.org/2000/svg"
   xmlns:sodipodi="http://sodipodi.sourceforge.net/DTD/sodipodi-0.dtd"
   xmlns:inkscape="http://www.inkscape.org/namespaces/inkscape"
   width="1280"
   height="1280"
   viewBox="0 0 1024 1024"
   version="1.1"
   id="svg2"
   inkscape:version="0.48.1 "
   sodipodi:docname="buff_teammates.svg">
  <metadata
     id="metadata68">
    <rdf:RDF>
      <cc:Work
         rdf:about="">
        <dc:format>image/svg+xml</dc:format>
        <dc:type
           rdf:resource="http://purl.org/dc/dcmitype/StillImage" />
      </cc:Work>
    </rdf:RDF>
  </metadata>
  <defs
     id="defs66" />
  <sodipodi:namedview
     pagecolor="#ffffff"
     bordercolor="#666666"
     borderopacity="1"
     objecttolerance="10"
     gridtolerance="10"
     guidetolerance="10"
     inkscape:pageopacity="0"
     inkscape:pageshadow="2"
     inkscape:window-width="1920"
     inkscape:window-height="1018"
     id="namedview64"
     showgrid="false"
     inkscape:snap-page="true"
     fit-margin-top="0"
     fit-margin-left="0"
     fit-margin-right="0"
     fit-margin-bottom="0"
     inkscape:zoom="0.6609375"
     inkscape:cx="640"
     inkscape:cy="640"
     inkscape:window-x="-8"
     inkscape:window-y="-8"
     inkscape:window-maximized="1"
     inkscape:current-layer="svg2" />
  <rect
     style="fill:#3e3e3e;fill-opacity:1;fill-rule:nonzero;stroke:none"
     id="rect3046"
     width="1024"
     height="1024"
     x="0"
     y="0" />
  <path
     d="m 24.84,0 111.78,0 c 20.06,39.44 41.98,77.88 62.22,117.22 10.44,19.72 21.84,38.98 31.52,59.1 -19.36,3.18 -38.96,4.58 -58.4,7.22 -7.54,0.76 -15.2,2.62 -22.76,1.26 -5.96,-6.28 -9.82,-14.16 -14.86,-21.14 C 98.1,108.92 61.1,54.72 24.84,0 z"
     id="path6"
     inkscape:connector-curvature="0"
     style="fill:#6c4b38" />
  <path
     d="m 208.78,0 72.88,0 c 20.66,54.34 41.56,108.62 61.86,163.08 -18.92,3.52 -38.1,5.4 -57.28,6.82 C 262.22,119 239.72,67.4 215.7,16.5 213.28,11.06 211.24,5.44 208.78,0 z"
     id="path8"
     inkscape:connector-curvature="0"
     style="fill:#6c4b38" />
  <path
     d="m 391.46,0 69.94,0 c 3.82,35.34 8.48,70.6 12.34,105.94 1.52,10.98 2.92,22.02 2.66,33.14 -18.88,2.96 -37.52,7.22 -56.36,10.46 -3.58,-13.74 -5.66,-27.78 -8.4,-41.68 C 405.1,71.88 398.22,35.94 391.46,0 z"
     id="path10"
     inkscape:connector-curvature="0"
     style="fill:#6c4b38" />
  <path
     d="m 604.68,0 84.92,0 c -9.86,34.56 -19.32,69.24 -29.92,103.58 -23.9,4.78 -47.76,9.96 -71.94,13.14 C 592.42,77.7 599.48,38.98 604.68,0 z"
     id="path12"
     inkscape:connector-curvature="0"
     style="fill:#6c4b38" />
  <path
     d="m 738.6,0 105.64,0 c -11.9,23.12 -23.28,46.54 -34.36,70.1 -3.38,8.74 -14.14,7.78 -21.74,9.56 C 759.6,83.74 731.58,90.9 703.04,95 714.16,63.08 726.3,31.48 738.6,0 z"
     id="path14"
     inkscape:connector-curvature="0"
     style="fill:#6c4b38" />
  <path
     d="m 887.1,0 112.06,0 c -10.4,14.74 -19.04,30.84 -30.66,44.68 -9.08,-2.9 -18.02,-8.26 -27.96,-6.04 -17.32,1.84 -26.34,20.84 -43.68,22.42 -15.08,2.04 -29.94,5.6 -45.12,6.88 C 863.16,45.1 876.08,23.04 887.1,0 z"
     id="path16"
     inkscape:connector-curvature="0"
     style="fill:#6c4b38" />
  <path
     d="m 929.24,81.52 c 5.5,-4.22 11.08,-8.32 16.78,-12.28 2.66,5.54 5.32,11.08 7.94,16.64 -4.32,8.12 -7.98,18.22 -18.4,19.8 -1.56,-8.2 -3.66,-16.26 -6.32,-24.16 z"
     id="path18"
     inkscape:connector-curvature="0"
     style="fill:#f5722c" />
  <path
     d="m 914.3,82.3 c -2.68,2.82 -5.08,6.09 -6.5,9.75 1.12,5.26 3.7,10.07 6.1,14.85 3.04,0.18 5.51,2.03 5.95,5.15 1.94,6.48 2.05,13.3 1.75,20 -25.8,3.6 -51.43,8.14 -77.25,11.7 0.02,5.7 0.07,11.4 0.15,17.1 -3.52,-4.8 -6.52,-9.92 -9.2,-15.2 -2.96,1 -5.95,1.97 -8.75,3.35 0.18,8.38 1.58,16.7 1.4,25.1 -0.96,-0.08 -2.87,-0.27 -3.85,-0.35 -2.5,-8.64 -5.17,-17.25 -8.15,-25.75 -170.52,26.8 -341.37,51.62 -511.95,77.9 -4,0.66 -7.82,2.01 -11.6,3.45 -5.44,-0.38 -10.89,-0.31 -16.25,0.65 -48.02,7.34 -96.06,14.58 -144.1,21.7 -2.34,-12.1 -6.66,-23.7 -9.4,-35.7 -2.94,-0.64 -5.91,-1.29 -8.85,-1.95 -1.58,2.9 -3.18,5.77 -4.8,8.65 1.2,5.8 2.7,11.59 5.5,16.85 0.92,2.36 2.76,3.47 5.5,3.35 0.78,3.58 1.53,7.2 2.25,10.8 -2.74,0.08 -5.51,0.15 -8.25,0.25 6.74,37.38 14.05,74.66 21.05,112 6.88,28.82 7.29,58.58 10.75,87.9 5.8,63.72 13.29,127.29 17.75,191.15 0.44,2.46 -0.21,4.64 -1.95,6.5 5.8,59.52 12.3,118.97 18.4,178.45 6.58,0.42 13.32,2.01 19.8,0.15 10.78,-2.8 21.88,-4.28 32.7,-6.9 7.18,-9 15.4,-17.08 22.2,-26.4 3.32,-4.6 7.46,-8.54 12,-11.9 0.3,6.04 0.3,12.09 0.3,18.15 3.98,5.86 7.5,12 11.1,18.1 8,-2.5 16.05,-4.87 24.05,-7.35 13.66,-5.32 24.81,8.48 37.85,9.9 22.02,-8.24 43.29,-18.66 63.85,-30.1 5.68,-2.78 11.28,-7.36 18,-6.4 15.94,1.36 31.87,3.52 47.85,4 14.66,-10.22 28.15,-22.13 42.85,-32.35 1.6,-6.68 3.15,-13.35 4.95,-19.95 4.18,4.32 9.17,9.08 9.95,15.3 -1.86,5.22 -4.72,10 -7.1,15 7.98,-0.16 15.95,-0.78 23.85,-1.9 9.76,-1.64 18.5,-6.95 28.3,-8.45 8.64,0.68 17,3.82 25.7,4 8.98,-1.86 17.15,-6.49 26.25,-7.85 10.62,-0.48 21.15,3.17 31.75,1.15 11.8,-1.84 23.62,-3.51 35.5,-4.65 -0.74,-5.92 -1.92,-11.82 -2.1,-17.8 1.64,-4.9 4.62,-9.16 7,-13.7 8.86,2.02 11.42,11.35 15.4,18.25 3.88,-4.16 7.72,-8.39 11.6,-12.55 8.26,-0.44 16.41,-1.63 24.65,-2.35 9.68,-12.08 21.07,-22.77 34.05,-31.25 6.36,-4.36 14.09,-5.84 20.95,-9.2 2.82,4.96 5.1,10.21 7.1,15.55 -3.94,2.72 -7.9,5.4 -11.9,8 0.24,3.16 0.47,6.37 0.75,9.55 12.9,-3.58 25.26,-9.82 39,-9.3 16.44,-2.82 32.27,7.04 48.65,2.9 4.16,-17.26 4.02,-35.07 5.5,-52.65 6.4,5.22 12.73,10.6 18.45,16.6 3.22,4.4 5.07,9.63 7.55,14.45 3.36,8.24 11.78,12.44 18.5,17.6 5.84,-3.52 5.53,-13.52 12.65,-16.4 2.06,5.24 4.07,10.51 6.15,15.75 4.36,-0.52 8.75,-1.06 13.15,-1.6 1.8,-5.78 3.75,-11.51 5.95,-17.15 -1.04,-5.7 -1.84,-11.4 -2.8,-17.1 -2.7,0.24 -5.37,0.5 -8.05,0.8 -2.46,-2.78 -5.14,-5.44 -7.1,-8.6 -0.94,-3.4 1.18,-6.64 2.1,-9.8 3.78,-0.08 7.58,-0.28 11.4,-0.1 4.94,4.2 6.97,10.7 9.95,16.3 1.62,-3.06 3.33,-6.1 5.05,-9.1 5.38,-8.6 9.35,-17.96 14.05,-26.9 -2.46,-5.74 -3.88,-12.19 -7.6,-17.25 -7.92,-5.84 -17.44,-9.32 -24.7,-16.1 8.08,-2.04 16.17,-4.01 24.25,-6.05 -1.22,-14.1 -2.04,-28.23 -3.1,-42.35 -0.52,-10.28 -6.48,-19.96 -4,-30.4 2.08,-12.74 0.26,-25.77 -3,-38.15 -5.44,-1.6 -10.84,-3.33 -16.2,-5.15 -5.72,-6 -12.63,-10.6 -19.95,-14.4 -0.3,-0.78 -0.9,-2.32 -1.2,-3.1 12.5,-2.64 24.98,0.45 37.5,1.05 1.06,-19.88 -9.01,-38.05 -8.25,-57.85 0.24,-8.02 2.02,-16.03 0.8,-24.05 -1.76,-15.92 -2.32,-32 -5,-47.8 -2.08,-11.54 -8,-21.72 -13.3,-32 5.34,-5.98 10.24,-12.26 15.6,-18.2 -6.68,-14.14 -10.99,-29.26 -15.15,-44.3 -1.26,-8.14 0.35,-16.48 -1.35,-24.6 -5.04,-27.16 -9.58,-54.39 -14.6,-81.55 -2.68,0.06 -5.32,0.08 -8,0.1 -4.88,-15.02 -1.82,-31.87 -9.9,-45.95 -2.66,-0.46 -5.24,-1.04 -7.9,-1.3 z m -169.5,113 c -8.36,33.96 -17.25,67.73 -25.75,101.65 22.36,-0.76 44.67,-2.1 67.05,-2.8 18.3,0.52 36.57,2.06 54.85,2.8 -10.22,11.78 -21.25,22.79 -31.15,34.85 -10.58,14.62 -20.9,29.5 -31.4,44.2 38.52,-0.02 77.03,0.03 115.55,-0.05 7.36,0 15.69,1.33 20.75,7.25 4.76,5.74 5.41,13.64 5.35,20.8 -0.12,20 -0.05,40 -0.05,60 0.02,7.84 -1.59,16.81 -8.35,21.75 -7.84,6.08 -18.44,4.59 -27.7,4.75 -30.08,0.16 -60.16,-0.4 -90.2,0.3 20.64,0.8 41.55,4.46 60.25,13.5 18.04,8.98 31.55,26.22 35.35,46.1 6.02,19.66 2.62,41.02 -5.6,59.5 -11.98,25.28 -35.7,43.36 -61.8,52.3 -14.96,5.04 -30.5,8.43 -46.2,10.25 -7.38,1.04 -15.44,-0.28 -21.5,-4.8 -5.72,-4.82 -6.79,-12.63 -8.15,-19.55 -1.86,-11.36 -4.14,-22.66 -6,-34 -1.6,-10 4.2,-21.9 15,-23.4 14.22,-2.48 29.96,-2.43 41.7,-12.15 -19.28,-4.06 -39.08,-2.46 -58.6,-1.7 -10.88,0.42 -22.38,2.15 -32.7,-2.35 -5.22,-2.3 -7.82,-7.61 -10.2,-12.45 -7.04,-1.32 -14.07,-2.41 -21.15,-3.45 -0.88,28.48 -2.46,56.94 -3.5,85.4 -0.44,6.66 -0.62,14.11 -5.2,19.45 -5.16,6.04 -13.7,7.74 -21.3,7.4 -18.04,-1 -36.09,-1.93 -54.15,-2.85 -7.66,-0.3 -16.25,-2.51 -20.55,-9.45 C 563.87,650.35 566,639.96 566.1,630.7 553,643.38 540.06,656.26 527,669 520.02,635.98 513.02,602.97 506,569.95 437.12,610.29 368.2,650.64 299.2,690.8 333.48,631.16 368.24,571.82 402.4,512.1 362.06,504.02 321.65,496.25 281.35,487.95 316.47,468.45 351.8,449.34 387,430 365.66,386.66 344.41,343.28 322.95,300 c 44.36,2.98 88.69,6.1 133.05,9 -0.96,-31.98 -2.04,-63.97 -3,-95.95 54.6,31.98 109.3,63.84 163.8,96 42.84,-37.74 85.24,-75.93 128,-113.75 z"
     id="path20"
     style="fill:#f5e5c1"
     inkscape:connector-curvature="0" />
  <path
     d="m 817.92,106.4 c 27.82,-4.72 55.62,-9.62 83.44,-14.32 2.58,7.5 5.46,14.88 8.08,22.36 -144.76,26.2 -289.46,52.66 -434.26,78.6 -60.88,10.42 -122.06,19 -183.1,28.52 -51.02,6.8 -102.08,13.3 -153.16,19.66 -1.48,-7.16 -2.8,-14.34 -4.08,-21.52 71.66,-8.12 143.34,-16.34 214.96,-24.78 86.9,-16.24 173.66,-33.28 260.52,-49.7 69.2,-13 138.16,-27.18 207.6,-38.82 z"
     id="path22"
     inkscape:connector-curvature="0"
     style="fill:#f5722c" />
  <path
     d="m 0,107.48 c 12.58,14.9 25.58,29.46 37.66,44.78 -12.7,5.06 -26.76,7.72 -37.66,16.46 l 0,-61.24 z"
     id="path24"
     inkscape:connector-curvature="0"
     style="fill:#6c4b38" />
  <path
     d="m 962.9,179.02 c 20.66,-23.64 40.88,-47.64 61.1,-71.64 l 0,214.26 c -14.66,11.8 -29.76,23.2 -45.8,33.06 -1.9,-12.68 -1.96,-25.84 -6.86,-37.86 -2.28,-5.82 -5.56,-11.22 -7.4,-17.22 2.94,-7.32 10.16,-12.06 12.62,-19.6 -4.78,-18.02 -14.6,-34.96 -14.9,-54.06 0.02,-11.5 -2.36,-22.76 -4.16,-34.06 -1.54,-5.16 2.46,-9.22 5.4,-12.88 z"
     id="path26"
     inkscape:connector-curvature="0"
     style="fill:#6c4b38" />
  <path
     d="m 31.74,187.92 c 7.84,-2.22 15.36,-6.52 23.52,-7.08 8.56,3.5 16.82,8.12 24.28,13.6 7.36,8.76 14.32,18.42 17.56,29.54 1.94,-0.1 3.88,-0.22 5.82,-0.32 1.84,7.3 4.28,14.44 6.94,21.5 -4.62,0.5 -9.22,1.02 -13.84,1.52 -0.34,11.86 -0.62,24 3.54,35.3 2.5,5.38 1.48,11.08 -1.12,16.18 3.92,13.62 8.38,27.06 12.46,40.64 -1.24,0.58 -3.74,1.76 -4.98,2.34 0.4,11.9 7.28,21.6 14.94,30.1 -2.24,4.1 -5.84,7.88 -6.44,12.64 0.94,10.06 6.04,19.04 8.86,28.6 2.7,7.76 -4.14,15.48 -1.26,23.28 2.4,8.16 6,15.9 8.74,23.94 -1.48,4.74 -5.18,9.66 -3.22,14.78 3.58,10.24 8.32,20.02 12.38,30.08 -1.62,2.98 -3.24,5.96 -4.86,8.96 2.96,14.16 6,28.3 8.88,42.46 4.76,23.9 11.08,47.6 12.34,72.04 1.48,11.18 -0.74,22.38 0.12,33.58 5.12,48.24 10.1,96.52 15.12,144.8 0.78,9.72 1.72,19.48 4.42,28.88 8.8,1.26 17.7,1.88 26.6,1.32 14.72,62.46 29.52,124.92 44.2,187.4 l -60.92,0 C 152.4,855.14 120.38,686 86.7,517.18 c -1.68,0.18 -5.02,0.56 -6.7,0.74 0,-11.32 0.02,-22.62 -0.04,-33.94 -2.64,-0.28 -5.28,-0.56 -7.92,-0.82 -0.84,-14.48 -0.74,-29.02 -2.2,-43.44 0.22,-5.08 -5.58,-6.4 -8.74,-9.1 -0.9,-12.42 -1.44,-24.86 -2.04,-37.3 -1.52,-0.08 -4.56,-0.24 -6.1,-0.32 -1.3,-12.64 -2.62,-25.28 -3.94,-37.92 -2.04,-0.78 -4.06,-1.54 -6.08,-2.28 -2.26,-16.62 -4.64,-33.22 -6.94,-49.84 -2.64,-0.28 -5.26,-0.58 -7.9,-0.86 -0.58,-8.44 -0.08,-17 -1.56,-25.36 C 22.68,268.3 13.5,263.1 11.18,253.78 8.88,244.88 6.3,235.52 8.66,226.36 c 1.78,-7.8 2.68,-15.8 4.78,-23.52 3.22,-7.62 10.52,-12.7 18.3,-14.92 z"
     id="path28"
     inkscape:connector-curvature="0"
     style="fill:#f5722c" />
  <path
     d="m 639.1,305.34 c 28.42,-25.08 56.36,-50.68 85.08,-75.42 -5.46,20.66 -10.94,41.3 -15.94,62.08 -1.44,5.2 -0.24,12.06 4.96,14.74 5.82,2.68 12.44,1.94 18.66,1.78 27.68,-1.04 55.42,-3.88 83.08,-0.82 -6.92,8.2 -14.68,15.76 -20.42,24.9 -9.58,14.58 -21.22,27.84 -29.4,43.32 -14.4,0.2 -28.8,-0.06 -43.2,0.06 -7.84,0.28 -16.88,1.3 -22.28,7.7 -4.9,5.52 -5.12,13.42 -5.22,20.42 0.2,48.44 -0.12,96.88 0.18,145.34 -6.62,-0.68 -13.18,-1.72 -19.72,-2.84 1.82,-46.92 4.06,-93.82 5.96,-140.74 0.4,-9.66 -4.6,-21.04 -14.94,-23.1 -15.02,-3.14 -30.54,-2.42 -45.76,-4 -10.92,-0.52 -23.86,-3.48 -32.8,4.7 -19.04,17.56 -36.74,36.52 -55.52,54.38 -8.46,7.56 -8.5,21.46 -1.62,30.08 8.86,11.06 18.3,21.64 27.1,32.76 3.28,4.58 8.22,7.42 13.28,9.62 -1.52,34.14 -2.02,68.4 -4.18,102.48 -9.74,11.74 -21.54,21.72 -32.28,32.6 -5.86,-25.64 -10.84,-51.46 -16.54,-77.12 -1.66,-8.76 -13.52,-12.06 -20.34,-6.92 -55.26,32.42 -110.78,64.42 -165.86,97.14 26.66,-45.16 52.54,-90.78 79,-136.06 3.32,-5.12 4.86,-12.26 0.66,-17.38 -3.4,-4.72 -9.7,-5 -14.88,-6.26 -27.12,-5.12 -54.14,-10.84 -81.26,-15.92 24.38,-12.82 48.32,-26.4 72.56,-39.46 3.98,-2.34 9.28,-4.32 10.1,-9.5 1.94,-5.06 -0.38,-10.18 -2.58,-14.7 -17.4,-35.38 -34.64,-70.84 -52.5,-105.98 36.52,2.66 73.04,5.06 109.56,7.48 8.62,1.52 16.28,-6.18 15.7,-14.64 -0.32,-23.94 -1.32,-47.9 -2.2,-71.84 46.84,27.36 93.7,54.7 140.44,82.24 4.6,2.62 10.24,5.38 15.54,2.98 7,-3.08 11.9,-9.22 17.58,-14.1 z"
     id="path32"
     inkscape:connector-curvature="0"
     style="fill:#f5722c" />
  <path
     d="m 714.5,396 c 61.84,0 123.66,0.02 185.5,0 -0.02,24.84 0.02,49.7 -0.02,74.56 -42.16,-0.14 -84.34,-0.06 -126.5,-0.04 0.02,12.94 0.02,25.9 0.04,38.86 21.56,0.68 43.68,1.34 64.04,9.32 11.64,4.36 22.56,12.26 28.18,23.64 9.18,18.8 9.12,41.98 -0.7,60.56 -8.56,16.88 -23.96,29.44 -41,37.18 -17.88,8.12 -37.46,11.58 -56.94,13.18 -2.68,-14.48 -5.12,-29 -7.8,-43.48 16.2,-1.56 33.4,-3.8 46.96,-13.54 8.38,-5.8 13.4,-17.52 8.34,-27.08 -5.16,-8.38 -15.66,-10.82 -24.74,-12.16 -25.08,-2.84 -50.24,0.68 -75.36,0.52 0.02,-53.84 0.02,-107.68 0,-161.52 z"
     id="path34"
     inkscape:connector-curvature="0"
     style="fill:#f5e5c1" />
  <path
     d="m 544.1,453.58 c 19.5,-18.34 37.9,-37.82 57.42,-56.14 19.84,1.68 39.74,2.52 59.6,4.16 -3.62,83.16 -7.4,166.32 -10.7,249.5 -21.68,-1.02 -43.36,-2.38 -65.04,-3.24 2.4,-57.9 4.3,-115.82 6.62,-173.72 -5.44,5.76 -10.84,11.56 -16.46,17.14 -10.42,-12.62 -21.06,-25.04 -31.44,-37.7 z"
     id="path36"
     inkscape:connector-curvature="0"
     style="fill:#f5e5c1" />
  <path
     d="m 0,452.12 c 12.6,6.2 26.38,10.08 38.3,17.52 2.38,8.68 2.32,17.96 6.08,26.28 5.5,11.68 2.1,25.62 8.76,36.88 3.88,6.66 8,13.42 9.12,21.22 C 67.3,581.98 73.6,609.7 78.1,637.76 52.02,636.5 26.04,633.68 0,632.04 L 0,452.12 z"
     id="path38"
     inkscape:connector-curvature="0"
     style="fill:#6c4b38" />
  <path
     d="m 976.8,472.62 c 15.78,-6.8 31.68,-13.36 47.2,-20.72 l 0,180.32 c -5.84,0.3 -11.72,1.14 -17.54,0.36 -3.7,-6.38 -4.76,-14 -8.86,-20.16 -3.74,-4.6 -8.92,-7.68 -13.66,-11.08 4.76,-2.72 12.86,-3.88 12.86,-10.78 0.22,-12.22 -1.68,-24.34 -2.12,-36.54 -0.26,-11.52 -5.5,-22.46 -4.38,-34.06 1.2,-12.62 1.2,-25.64 -2.8,-37.8 -1.56,-4.88 -6.92,-6.72 -10.7,-9.54 z"
     id="path40"
     inkscape:connector-curvature="0"
     style="fill:#6c4b38" />
  <path
     d="m 896.82,683.96 c 4.24,0 8.5,0 12.78,0 4.74,12.2 14.3,22.32 26.5,27.18 5.24,1.1 7.82,-4.82 10.96,-7.84 4.18,5.08 10.04,9.08 16.96,7.1 11.7,-0.08 12.84,-13.82 16.36,-22.12 14.54,0.4 29.06,1.64 43.62,2.18 l 0,104.06 C 933.46,772.54 842.94,750.46 752.5,728 c 6.1,-7.7 12.54,-15.2 20.3,-21.24 8.22,-6.44 16.74,-13.48 27.32,-15.4 0.62,0.72 1.88,2.16 2.52,2.88 -3.04,4.22 -7.68,7.28 -9.86,12.06 -0.66,5.26 -0.34,13.34 5.88,15.04 6.32,0.48 12.14,-2.82 18.04,-4.58 15.36,-5.58 32.26,-5.36 48.02,-1.66 8.72,2.06 17.72,1.52 26.54,0.4 2.64,-10.36 4.52,-20.9 5.56,-31.54 z"
     id="path42"
     inkscape:connector-curvature="0"
     style="fill:#6c4b38" />
  <path
     d="m 0,690.46 c 29.22,-1.24 58.38,-3.62 87.6,-4.5 6.16,27.62 10.86,55.52 16.14,83.3 C 69.16,777.68 34.64,786.32 0,794.5 L 0,690.46 z"
     id="path44"
     inkscape:connector-curvature="0"
     style="fill:#6c4b38" />
  <path
     d="m 696.34,735.62 c 13.9,7.98 29.78,11.1 44.26,17.74 94.3,38.8 189.08,76.4 283.4,115.14 l 0,100.86 C 943.4,921.5 862.54,874.06 782,826.12 c -36.74,-22 -74,-43.14 -110.38,-65.76 8.02,-1.48 16.06,-2.64 24.16,-3.6 1.24,-6.98 1.54,-14.1 0.56,-21.14 z"
     id="path46"
     inkscape:connector-curvature="0"
     style="fill:#6c4b38" />
  <path
     d="m 603.74,768.12 c 10.18,-4.14 21.06,-8.76 32.3,-6.74 10,0.72 16.94,8.54 24.3,14.36 43.12,35.52 86.94,70.22 130.12,105.68 58.16,47.74 117.34,94.24 174.96,142.58 l -157,0 C 766.26,972.58 725.32,920.12 683.48,868.44 657.12,834.82 629.68,802.04 603.74,768.12 z"
     id="path48"
     inkscape:connector-curvature="0"
     style="fill:#6c4b38" />
  <path
     d="m 557.9,769.72 c 8.46,-3.84 18.02,-6.4 27.06,-2.7 5.86,1.04 7.92,7.06 10.28,11.7 11.74,24.76 24.2,49.14 36.1,73.82 28.66,56.98 56.2,114.52 84.92,171.46 L 594,1024 c -5.5,-31.84 -8.6,-64.06 -13.8,-95.98 -7.4,-52.76 -14.82,-105.54 -22.3,-158.3 z"
     id="path50"
     inkscape:connector-curvature="0"
     style="fill:#6c4b38" />
  <path
     d="m 481.96,789.66 c 10.92,-7.88 21.12,-16.72 32.14,-24.46 1.02,2.9 2.04,5.82 3.06,8.74 13,2.3 26.1,-0.16 38.78,-3 -2.3,84.36 -4.96,168.72 -7.64,253.06 l -83.78,0 c 1.86,-49.32 3.46,-98.66 5.5,-147.96 3.42,-24.56 1.86,-49.4 2.82,-74.08 -0.48,-5.92 5.16,-9.1 9.12,-12.3 z"
     id="path52"
     inkscape:connector-curvature="0"
     style="fill:#6c4b38" />
  <path
     d="m 421,794.06 c 13.68,0.1 27.26,1.78 40.88,2.82 -4.22,36.06 -10.02,71.94 -14.84,107.94 -5.96,39.68 -10.68,79.56 -17,119.18 l -122.3,0 c 30.02,-59.58 58.9,-119.76 88.84,-179.42 7.7,-17.06 17.24,-33.22 24.42,-50.52 z"
     id="path54"
     inkscape:connector-curvature="0"
     style="fill:#6c4b38" />
  <path
     d="m 234.1,830.14 c 8.76,-9.98 17.66,-19.86 26.26,-29.98 1.6,4 3.22,8.02 4.84,12.04 -10.34,6.04 -20.06,13.16 -31.1,17.94 z"
     id="path56"
     inkscape:connector-curvature="0"
     style="fill:#6c4b38" />
  <path
     d="m 351.56,825.66 c 11.18,-4.54 21.9,-10.16 33.32,-14.04 -3.56,6.04 -7.98,11.5 -12.54,16.82 -35.42,44.62 -71.04,89.12 -106.88,133.42 -4.26,-8.74 -5.52,-18.48 -7.84,-27.8 -4.42,-20.2 -9.8,-40.18 -14.24,-60.36 22.16,-18.92 45.18,-36.86 67.86,-55.16 7.98,3.54 15.78,7.5 24.06,10.28 5.62,2.24 11.16,-1.16 16.26,-3.16 z"
     id="path58"
     inkscape:connector-curvature="0"
     style="fill:#6c4b38" />
  <path
     d="m 0,868.5 c 37.92,-15.56 75.86,-31.16 114.04,-46.1 4.62,17.9 6.92,36.28 11.02,54.32 1.1,5.42 2.54,10.9 2.16,16.48 -2.68,2.7 -6,4.66 -9.24,6.6 C 78.5,922.7 39.32,946.1 0,969.24 L 0,868.5 z"
     id="path60"
     inkscape:connector-curvature="0"
     style="fill:#6c4b38" />
  <path
     d="m 103.14,987.24 c 12.26,-10.02 24.04,-20.72 37.44,-29.22 4.98,21.88 8.34,44.1 13.3,65.98 l -96.52,0 C 72.92,1012.14 88,999.64 103.14,987.24 z"
     id="path62"
     inkscape:connector-curvature="0"
     style="fill:#6c4b38" />
</svg>
