<?xml version="1.0" encoding="UTF-8" standalone="no"?>
<svg
   xmlns:dc="http://purl.org/dc/elements/1.1/"
   xmlns:cc="http://creativecommons.org/ns#"
   xmlns:rdf="http://www.w3.org/1999/02/22-rdf-syntax-ns#"
   xmlns:svg="http://www.w3.org/2000/svg"
   xmlns="http://www.w3.org/2000/svg"
   xmlns:sodipodi="http://sodipodi.sourceforge.net/DTD/sodipodi-0.dtd"
   xmlns:inkscape="http://www.inkscape.org/namespaces/inkscape"
   width="1280"
   height="1280"
   viewBox="0 0 1024 1024"
   version="1.1"
   id="svg2"
   inkscape:version="0.48.1 "
   sodipodi:docname="defend_medic.svg">
  <metadata
     id="metadata36">
    <rdf:RDF>
      <cc:Work
         rdf:about="">
        <dc:format>image/svg+xml</dc:format>
        <dc:type
           rdf:resource="http://purl.org/dc/dcmitype/StillImage" />
      </cc:Work>
    </rdf:RDF>
  </metadata>
  <defs
     id="defs34" />
  <sodipodi:namedview
     pagecolor="#ffffff"
     bordercolor="#666666"
     borderopacity="1"
     objecttolerance="10"
     gridtolerance="10"
     guidetolerance="10"
     inkscape:pageopacity="0"
     inkscape:pageshadow="2"
     inkscape:window-width="1920"
     inkscape:window-height="1018"
     id="namedview32"
     showgrid="false"
     inkscape:snap-page="true"
     fit-margin-top="0"
     fit-margin-left="0"
     fit-margin-right="0"
     fit-margin-bottom="0"
     inkscape:zoom="0.6609375"
     inkscape:cx="640"
     inkscape:cy="640"
     inkscape:window-x="-8"
     inkscape:window-y="-8"
     inkscape:window-maximized="1"
     inkscape:current-layer="svg2" />
  <rect
     style="fill:#3e3e3e;fill-opacity:1;fill-rule:nonzero;stroke:none"
     id="rect3014"
     width="1024"
     height="1024"
     x="0"
     y="0" />
  <path
     d="m 524.04,0 33.86,0 c 2.48,0.94 4.96,1.92 7.42,2.92 -1.22,9.06 -2.18,18.18 -2.3,27.32 10.18,2.58 20.26,5.52 30.18,9 -1.54,8.76 -0.5,18.72 -6.68,25.94 -8.6,-1.66 -17.38,-2.32 -25.94,-4.3 -2.14,11.42 -0.76,23.2 -3.5,34.56 -17.3,-4.22 -34.76,-8.1 -52.38,-10.56 -0.26,-10.76 2.34,-21.3 4.28,-31.8 -9.88,-3.04 -20.38,-3.04 -30.52,-4.74 0.18,-11.16 2.3,-22.16 3.02,-33.28 12.86,2.4 25.68,5.32 38.74,6.44 1.38,-7.14 2.72,-14.3 3.82,-21.5 z"
     id="path6"
     inkscape:connector-curvature="0"
     style="fill:#f5722c" />
  <path
     d="m 728.54,29.04 c 4.34,-0.02 8.7,-0.08 13.06,-0.28 2.68,4.4 4.32,9.28 5.78,14.18 3.92,-0.12 7.88,-0.26 11.84,-0.38 4.26,5.64 8.18,11.62 10.54,18.34 -5.64,0.7 -11.14,2.2 -16.82,2.52 1.86,7.04 2.96,14.24 4.6,21.32 -6.38,0.88 -12.68,3.08 -19.2,2.4 -1.88,-5.12 -1,-11 -1.68,-16.44 -7.08,0.9 -14.02,3.14 -21.24,2.56 -0.42,-9.62 -3.96,-18.68 -4.98,-28.18 6.32,-0.16 12.62,-0.28 18.94,-0.36 -0.08,-5.24 -0.34,-10.48 -0.84,-15.68 z"
     id="path8"
     inkscape:connector-curvature="0"
     style="fill:#f5722c" />
  <path
     d="m 204.1,64.4 c 7.3,-0.9 14.6,0.16 21.88,0.66 -1.76,5.42 -4.02,10.68 -7.12,15.48 6.22,3.06 12.4,6.38 19.16,8.1 -1.16,5.82 -4.12,11.04 -5.86,16.68 -6.74,1.74 -11.18,-5.32 -17.74,-5.22 -2.44,5.48 -5.04,10.92 -6.48,16.74 -10.02,-0.96 -18.04,-8.3 -27.96,-10.08 1.76,-6.48 6.18,-11.7 9.72,-17.28 -4.16,-3.04 -8.7,-5.46 -13.38,-7.56 2.44,-3.8 4.92,-7.58 7.36,-11.4 4.8,0.52 9.46,1.94 14.18,2.88 3.48,-1.46 4.28,-6.04 6.24,-9 z"
     id="path10"
     inkscape:connector-curvature="0"
     style="fill:#f5722c" />
  <path
     d="m 746.56,390.18 c 29.78,-108.26 59.58,-216.54 88.8,-324.94 1.68,48.22 1.18,96.52 1.88,144.76 0.58,31.96 -0.16,63.92 1.04,95.86 C 878.12,248.58 918,191.32 958,134.14 c -3.94,115.94 -8.14,231.88 -11.88,347.84 20.46,-22.76 41.28,-45.18 61.76,-67.92 -7.08,64.62 -14.54,129.2 -21.92,193.78 C 950.54,566.66 915.3,525.3 880,484 c -18.02,20.58 -35.54,41.64 -53.86,61.94 -5.96,1.76 -12.2,2.18 -18.22,3.7 -15.3,-15.62 -29.96,-31.88 -45.42,-47.36 -6.66,14.62 -12.8,29.52 -19.94,43.9 -14.8,-14.76 -30.06,-29.08 -44.66,-44.06 3.38,15.46 9.84,30.06 14.14,45.28 -21.66,3.06 -43.52,4.82 -65.12,8.26 8.76,15.74 17.06,31.78 26.54,47.1 -22.88,18.42 -47.92,34.18 -70.76,52.64 21.68,8.14 42.96,17.3 64.36,26.1 -19.2,7.64 -37.88,16.46 -56.96,24.36 -4.44,2.12 -9.4,1.5 -14.1,1.02 30.22,13.9 59.98,28.8 89.98,43.18 -28.72,23.26 -57.3,46.68 -86,69.94 39.88,7.48 79.88,14.32 119.68,22.2 -29.2,17.98 -58.44,35.84 -87.64,53.8 22.18,9.22 44.46,18.2 66.6,27.54 -5.2,1.86 -10.74,2.16 -16.14,3 -98.08,14.2 -196.16,28.34 -294.24,42.56 -6.54,1 -13.1,1.98 -19.7,2.54 52.5,-29.76 104.9,-59.72 157.36,-89.58 -98.08,-12.34 -196.34,-23.4 -294.34,-36.22 108.82,-24.9 217.9,-48.74 326.74,-73.58 -43.3,-17.02 -86.86,-33.4 -130.22,-50.24 23,-4.36 45.88,-9.52 69.02,-13.22 -63.48,-0.92 -127,1.44 -190.44,0.58 76.84,-32.4 153.34,-65.6 230.1,-98.2 -33,-3.62 -66.1,-6.36 -99.18,-9.1 14.2,-9.74 29.52,-17.76 43.48,-27.84 -19.3,-4.04 -38.4,-9.04 -57.48,-14 34.78,-10.48 69.62,-20.74 104.3,-31.48 -43.7,-52.96 -86.8,-106.42 -130.02,-159.78 66.94,29.7 134.22,58.64 201.14,88.38 -21.12,-59.8 -42.22,-119.62 -63.22,-179.48 3.66,3.84 7.28,7.78 11.32,11.24 42.08,35.2 84.12,70.44 126.08,105.76 0.12,-18.02 0.08,-36.02 0.02,-54.02 7.7,7.4 15.8,14.38 23.54,21.74 4.58,-31.62 9.42,-63.2 13.9,-94.82 1.52,-9.48 2.38,-19.08 5.16,-28.3 1.2,12.46 4.62,24.52 7.02,36.78 7.76,38 16.28,75.86 23.74,113.92 z"
     id="path12"
     inkscape:connector-curvature="0"
     style="fill:#c7bba1" />
  <path
     d="m 332.64,100.52 c 2.28,-0.06 4.36,1.04 6.4,1.92 12.64,5.9 25.32,11.68 38.08,17.36 -1.26,11.1 -4.68,21.9 -4.9,33.14 11.46,5.04 23.64,8.58 34.54,14.82 -2.56,9.9 -4.74,19.9 -6.7,29.94 -12,-1.12 -23.3,-5.74 -35.18,-7.58 -2.28,12.94 -5.64,25.78 -6.34,38.92 -5.58,0.48 -10.72,-1.94 -15.94,-3.52 -16.06,-5 -32.1,-10 -48.2,-14.84 2.76,-12.5 6.14,-24.86 9.34,-37.24 -12.14,-3.3 -24.44,-6.02 -36.62,-9.12 3.32,-12.92 5.94,-26.04 8.42,-39.16 14.98,4.48 30.02,8.84 45.22,12.5 4.02,-12.36 8.2,-24.72 11.88,-37.14 z"
     id="path14"
     inkscape:connector-curvature="0"
     style="fill:#f5722c" />
  <path
     d="m 81.36,217.58 c 10.12,-4.12 17.04,-13.74 26.62,-19.1 6,6.4 14.44,11.1 17.22,19.94 -5.26,7.22 -14.42,11.96 -17.12,20.74 7.9,6.2 15.78,12.48 23.42,19 -0.06,0.76 -0.16,2.24 -0.2,2.98 -12.46,12.16 -25.14,24.1 -37.48,36.38 C 85.66,290.5 78.46,282.44 69.96,275.82 63.18,283.14 56,290.1 49.7,297.86 40.52,291.52 32.56,283.48 24.14,276.12 c 9.42,-9 18.62,-18.24 27.42,-27.8 -7.78,-7.8 -15.12,-16.04 -22.92,-23.86 11.28,-7.68 21.94,-16.24 33.26,-23.86 6.2,5.98 13.32,10.94 19.46,16.98 z"
     id="path16"
     inkscape:connector-curvature="0"
     style="fill:#f5722c" />
  <path
     d="m 315.5,273.65 c -13.14,15.16 -26.34,30.23 -39.4,45.45 -18.56,-9.2 -36.96,-18.91 -56,-26.95 -25.54,21.02 -50.4,42.92 -75.7,64.2 -2.62,1.98 -5.04,4.22 -6.7,7.1 14.02,6.84 27.67,14.41 41.65,21.35 0.02,0.62 0.11,1.83 0.15,2.45 -13,15.4 -25.24,31.48 -38,47.1 37.36,32.5 75.14,64.49 112.6,96.85 l 2.6,0 c 15.42,-19.82 31.9,-38.82 47,-58.9 12.98,10.24 25.6,20.87 38.5,31.25 23.28,-30.04 46.87,-59.86 70.25,-89.8 -14.58,-11.7 -30.31,-21.87 -45.05,-33.35 8.18,-13.16 15.79,-26.72 24.25,-39.7 1.22,-0.02 3.63,-0.03 4.85,-0.05 -4.38,-2.5 -8.04,-6.02 -11.9,-9.2 -23.08,-19.24 -45.92,-38.7 -69.1,-57.8 z m 2.5,20.4 c 21.12,15.52 41.72,31.77 63.1,46.95 -11.92,14.68 -23.24,29.87 -34.8,44.85 14.5,9.5 29.12,18.77 43.7,28.15 -16.72,21.3 -33.32,42.68 -50,64 -14.36,-9.38 -28.73,-18.75 -43.15,-28.05 -14.5,18.5 -28.56,37.33 -42.8,56.05 -31.38,-23.26 -62.66,-46.65 -94,-69.95 7.28,-5.36 12.45,-14.48 21.35,-17 9.5,-8.56 18.85,-17.29 28.35,-25.85 -13.94,-9.04 -27.87,-18.08 -41.75,-27.2 17.96,-19.98 36.03,-39.96 53.95,-60 16.28,10.34 32.43,20.88 48.65,31.3 15.9,-14.3 31.58,-28.85 47.4,-43.25 z"
     id="path18"
     style="fill:#f5e5c1"
     inkscape:connector-curvature="0" />
  <path
     d="m 273.96,349.96 c 14.82,-15.24 29.36,-30.76 44.2,-45.98 15.82,14.18 31.9,28.04 47.84,42.06 -10.36,13.46 -20.78,26.86 -31.08,40.34 12.6,11.04 26.14,20.96 39.08,31.6 -10.62,12.74 -21.36,25.4 -32.12,38.02 -14.12,-7.88 -28.4,-15.44 -42.56,-23.28 -15.44,19.5 -29.88,39.74 -45.28,59.26 -23.16,-18.46 -46.04,-37.26 -69.32,-55.58 5.3,-3.92 8.68,-9.72 13.16,-14.44 9.92,-10.14 18.92,-21.14 27.96,-32.08 -14.58,-7.94 -29.18,-15.82 -43.76,-23.78 12.4,-16.18 25.34,-31.96 37.88,-48.02 18.02,10.58 36.04,21.2 54,31.88 z"
     id="path22"
     inkscape:connector-curvature="0"
     style="fill:#f5722c" />
  <path
     d="m 12.42,463.18 c 4,-5.82 8.04,-11.64 11.72,-17.68 5.18,3.16 10.26,6.46 15.18,10.04 -0.06,0.82 -0.16,2.44 -0.2,3.26 -3.64,3.52 -7.3,7.22 -9.12,12.06 5.26,3.42 10.42,6.96 15.8,10.2 -3.6,9.12 -11.3,15.86 -14.82,25.08 -6.3,-2.76 -10.64,-8.32 -16.06,-12.36 -3.18,3.74 -6.3,7.52 -9.38,11.34 C 3.68,503.42 1.8,501.74 0,499.98 l 0,-46.04 c 4.08,3.14 8.34,6.08 12.42,9.24 z"
     id="path24"
     inkscape:connector-curvature="0"
     style="fill:#f5722c" />
  <path
     d="m 823.3,568.8 c 36.5,-3.36 74.84,2.28 106.66,21.3 26.14,15.58 44.6,42.52 51.48,72 6.64,26.16 5.82,54.78 -5.92,79.4 -15.88,33.58 -46.64,57.92 -79.84,73.16 19.08,7.76 36.22,21.48 45.54,40.12 11.46,22.24 9.34,49.44 -0.92,71.72 -10.7,21.78 -30.18,38.58 -52.5,47.74 -50.7,21.54 -114.22,7.8 -150.9,-33.46 10.3,-19.2 19.2,-39.08 29.16,-58.46 17.78,13.18 37.76,24.52 59.94,27.78 13.96,2.18 29.34,-0.56 40.14,-10.1 5.52,-4.9 9.72,-12.58 7.62,-20.1 -2.14,-12.8 -12.04,-23.04 -23.9,-27.66 -22.26,-9.16 -46.86,-7.66 -70.42,-7.72 -0.88,-21 -0.26,-42.02 -0.38,-63.02 26.78,0.4 54.54,-3.14 78.4,-16.04 13.9,-7.34 26.02,-20.92 26.04,-37.38 -0.66,-13.88 -7.82,-28.78 -21.18,-34.38 -13.78,-5.7 -29.28,-3.06 -43.04,1.32 -25.38,8.44 -47.8,23.82 -67.96,41.1 -17.68,-33.34 -36.08,-66.26 -53.7,-99.62 35.32,-32.3 77.38,-60.68 125.68,-67.7 z"
     id="path26"
     inkscape:connector-curvature="0"
     style="fill:#f5722c" />
  <path
     d="m 108.36,593.3 c 7.42,-4.32 13.06,-12.22 22.22,-12.88 5.2,7 10.62,13.88 15.3,21.26 9.56,-6.18 17.42,-14.62 26.42,-21.58 9.42,13.8 18.4,27.92 27.62,41.86 1.2,1.6 2.7,4.78 0.18,5.98 -7.4,4.94 -14.22,10.72 -21.86,15.3 1.06,10.72 13.24,16.42 15.6,26.78 -7.06,7.44 -16.32,12.8 -23.98,19.76 -9.04,-9.48 -14.5,-21.92 -23.54,-31.48 -8.3,6.26 -17.28,11.6 -26.14,17 -0.54,-0.12 -1.64,-0.36 -2.18,-0.48 -4.56,-11.92 -11.62,-22.72 -15.8,-34.74 5.7,-6.56 13.1,-11.48 19.72,-17.08 -2.92,-10.62 -10.9,-19.02 -13.56,-29.7 z"
     id="path28"
     inkscape:connector-curvature="0"
     style="fill:#f5722c" />
  <path
     d="m 70.54,848.96 c 4.56,-0.04 9.12,-0.04 13.68,-0.04 2.02,4.54 3.76,9.22 5.28,13.96 3.9,-0.04 7.86,-0.72 11.7,0.14 4.9,4.98 7.76,11.56 10.84,17.74 -5.66,0.78 -11.18,2.4 -16.9,2.66 1.56,7.08 2.7,14.24 4.46,21.28 -6.34,1 -12.66,3.06 -19.16,2.58 -2.04,-5.14 -1.04,-11.1 -1.66,-16.56 -7.14,0.86 -14.14,3.3 -21.42,2.36 -0.42,-9.54 -3.64,-18.58 -5.06,-27.96 6.4,-0.18 12.8,-0.4 19.2,-0.62 -0.22,-5.18 -0.54,-10.38 -0.96,-15.54 z"
     id="path30"
     inkscape:connector-curvature="0"
     style="fill:#f5722c" />
</svg>
