<?xml version="1.0" encoding="UTF-8" standalone="no"?>
<svg
   xmlns:dc="http://purl.org/dc/elements/1.1/"
   xmlns:cc="http://creativecommons.org/ns#"
   xmlns:rdf="http://www.w3.org/1999/02/22-rdf-syntax-ns#"
   xmlns:svg="http://www.w3.org/2000/svg"
   xmlns="http://www.w3.org/2000/svg"
   xmlns:sodipodi="http://sodipodi.sourceforge.net/DTD/sodipodi-0.dtd"
   xmlns:inkscape="http://www.inkscape.org/namespaces/inkscape"
   width="1280"
   height="1280"
   viewBox="0 0 1024 1024"
   version="1.1"
   id="svg2"
   inkscape:version="0.48.1 "
   sodipodi:docname="kill_defenseless.svg">
  <metadata
     id="metadata100">
    <rdf:RDF>
      <cc:Work
         rdf:about="">
        <dc:format>image/svg+xml</dc:format>
        <dc:type
           rdf:resource="http://purl.org/dc/dcmitype/StillImage" />
      </cc:Work>
    </rdf:RDF>
  </metadata>
  <defs
     id="defs98" />
  <sodipodi:namedview
     pagecolor="#ffffff"
     bordercolor="#666666"
     borderopacity="1"
     objecttolerance="10"
     gridtolerance="10"
     guidetolerance="10"
     inkscape:pageopacity="0"
     inkscape:pageshadow="2"
     inkscape:window-width="1920"
     inkscape:window-height="1018"
     id="namedview96"
     showgrid="false"
     inkscape:snap-page="true"
     fit-margin-top="0"
     fit-margin-left="0"
     fit-margin-right="0"
     fit-margin-bottom="0"
     inkscape:zoom="0.6609375"
     inkscape:cx="466.00473"
     inkscape:cy="640"
     inkscape:window-x="-8"
     inkscape:window-y="-8"
     inkscape:window-maximized="1"
     inkscape:current-layer="layer1" />
  <g
     inkscape:groupmode="layer"
     id="layer1"
     inkscape:label="background"
     style="display:inline">
    <rect
       style="fill:#3e3e3e;fill-opacity:1;fill-rule:nonzero;stroke:none"
       id="rect3106"
       width="1024"
       height="1024"
       x="0"
       y="2.2737368e-013" />
  </g>
  <g
     inkscape:groupmode="layer"
     id="layer2"
     inkscape:label="foreground">
    <path
       d="m 434.66,0 50.88,0 c 5.96,11.36 11.22,23.1 15.54,35.18 5.32,14.76 13.52,28.3 18.64,43.14 2.88,8.3 6.5,16.32 10.32,24.22 6.18,-14.76 14.28,-28.64 20.02,-43.6 4.3,7.54 8.36,15.24 11.6,23.3 4.52,11.18 11.52,21.12 15.94,32.32 C 607.84,76.22 638.72,38.36 668.94,0 l 72.82,0 c 0.32,30.72 0.06,61.46 -1,92.14 0.86,12.6 -1.24,25.2 0.3,37.78 9.78,-7.36 20.7,-13.02 30.34,-20.6 9.86,-7.7 21.2,-13.2 30.92,-21.1 10,-8.26 21.8,-13.98 31.94,-22.04 9.82,-7.76 21.18,-13.26 30.92,-21.1 8.96,-7.24 19.48,-12.18 28.5,-19.36 C 905.5,16.26 918.88,9.06 930.98,0 l 12.2,0 c -28.42,94.8 -57.14,189.52 -85.82,284.24 14.88,0.22 29.66,-2.16 44.54,-1.36 18.08,0.9 36.1,-1.8 54.18,-1.06 22.02,0.82 43.94,-2.4 66,-1.16 -14.36,13.44 -27.18,28.42 -41.18,42.2 -4.82,4.72 -9.2,9.84 -13.66,14.9 18.78,3.5 37.9,3.86 56.76,6.72 l 0,4.5 c -70.6,22 -139.6,48.94 -210.42,70.26 -12.82,3.62 -25,10.76 -38.7,10.16 36.38,-13.72 72.68,-27.7 109.1,-41.36 14.24,-5.24 29.04,-9 42.92,-15.26 -20.42,-6.54 -41.24,-11.8 -61.36,-19.24 21.88,-11.12 42.34,-24.78 64.58,-35.2 -8.56,-1.32 -17.24,-2.1 -25.9,-1.84 -19.44,1.02 -38.76,-2.58 -58.18,-1.2 -17.64,-1.42 -35.32,-1.74 -53,-1.5 35,-79.08 70.92,-157.78 105.68,-236.98 -9.74,6.02 -17.54,14.54 -26.94,21.02 -8.98,6.2 -16.4,14.36 -25.42,20.52 -9.06,6.16 -16.68,14.14 -25.68,20.4 -8.56,6.06 -15.78,13.78 -24.46,19.7 -7.4,5.08 -13.74,11.46 -20.94,16.8 -12.14,8.4 -22.38,19.18 -34.66,27.4 -11.3,10.14 -24.06,18.48 -35.26,28.72 -7.24,6.08 -15.32,11.08 -22.14,17.66 5.52,-79.96 12.22,-159.84 18.1,-239.76 -3.4,7.02 -6.98,14.02 -11.84,20.18 -39.06,55.78 -78.08,111.58 -117.18,167.32 -6.98,-21.5 -11.66,-43.68 -18.14,-65.32 -7.22,11.04 -13.2,22.92 -21.6,33.16 -6.02,-13.22 -12.38,-26.3 -17.34,-39.96 -7.62,-18.78 -17.52,-36.6 -24.1,-55.84 -7.16,-15.96 -14.6,-31.8 -20.96,-48.12 -26.8,92.86 -51.78,186.28 -78.32,279.24 -56.52,-46.04 -113.2,-91.9 -169.76,-137.88 9.02,63.64 18.6,127.2 27.54,190.86 -15.38,-7.66 -31,-14.88 -46.4,-22.48 -13.14,-90.8 -26.24,-181.6 -39.16,-272.42 67.96,42.64 135.88,85.32 203.84,127.92 C 390.38,124.04 412.42,61.98 434.66,0 z"
       id="path6"
       inkscape:connector-curvature="0"
       style="fill:#9a9180" />
    <path
       d="m 689.48,29.46 c 4.86,-6.16 8.44,-13.16 11.84,-20.18 -5.88,79.92 -12.58,159.8 -18.1,239.76 6.82,-6.58 14.9,-11.58 22.14,-17.66 11.2,-10.24 23.96,-18.58 35.26,-28.72 12.28,-8.22 22.52,-19 34.66,-27.4 7.2,-5.34 13.54,-11.72 20.94,-16.8 8.68,-5.92 15.9,-13.64 24.46,-19.7 9,-6.26 16.62,-14.24 25.68,-20.4 9.02,-6.16 16.44,-14.32 25.42,-20.52 9.4,-6.48 17.2,-15 26.94,-21.02 -34.76,79.2 -70.68,157.9 -105.68,236.98 17.68,-0.24 35.36,0.08 53,1.5 19.42,-1.38 38.74,2.22 58.18,1.2 8.66,-0.26 17.34,0.52 25.9,1.84 -22.24,10.42 -42.7,24.08 -64.58,35.2 20.12,7.44 40.94,12.7 61.36,19.24 -13.88,6.26 -28.68,10.02 -42.92,15.26 -36.42,13.66 -72.72,27.64 -109.1,41.36 -45.92,0.2 -91.86,0.02 -137.78,0.1 0.98,-7.7 2.52,-15.32 4.44,-22.82 -9.1,7.72 -20.4,12.04 -29.9,19.16 -13.22,9.52 -27.82,16.8 -41.2,26.08 2.24,-13.88 1.96,-27.96 3.16,-41.96 0.98,-24.96 3.1,-49.86 4,-74.82 -19.28,33.3 -38.98,66.4 -59.02,99.26 -9.12,-25.66 -21.16,-50.3 -28.86,-76.44 -12.46,15.12 -22.32,32.2 -33.76,48.08 -34.62,-17.4 -69.3,-34.68 -103.94,-52 -2.02,28.66 -4.02,57.34 -6.02,86 -22.44,-11.02 -44.9,-21.98 -67.34,-32.94 -1.44,-13.92 -2.2,-27.88 -3.46,-41.78 -8.6,-4 -17.1,-8.16 -25.58,-12.4 -8.94,-63.66 -18.52,-127.22 -27.54,-190.86 56.56,45.98 113.24,91.84 169.76,137.88 26.54,-92.96 51.52,-186.38 78.32,-279.24 6.36,16.32 13.8,32.16 20.96,48.12 6.58,19.24 16.48,37.06 24.1,55.84 4.96,13.66 11.32,26.74 17.34,39.96 8.4,-10.24 14.38,-22.12 21.6,-33.16 6.48,21.64 11.16,43.82 18.14,65.32 39.1,-55.74 78.12,-111.54 117.18,-167.32 z"
       id="path14"
       inkscape:connector-curvature="0"
       style="fill:#f5e5c1" />
    <path
       d="m 52.46,388.14 c 1.58,-5.18 5.28,-9 9.48,-12.18 12,0.5 22.7,6.32 33.76,10.38 6.1,2.5 12.6,4.26 18.36,7.56 7.02,7.94 11.98,17.5 16.92,26.84 -2.88,3.16 -5.66,6.58 -9.4,8.78 -4.26,0.86 -8.76,-0.08 -12.9,1.22 -4.94,2.94 -9.68,6.28 -14.08,10.02 -6.28,7.2 -12.44,16.02 -22.58,17.76 0.72,0.8 2.16,2.4 2.88,3.2 -9.58,5.72 -17.96,14.38 -29.48,15.94 C 42.7,471.76 41.3,464.48 35.56,460.6 26,453.54 14.98,447.92 8.1,437.86 c -0.26,-6.78 5.16,-10.08 11.1,-11.28 -0.04,-0.82 -0.1,-2.42 -0.14,-3.22 -4.18,-3.48 -6.02,-8.54 -6.76,-13.78 3.6,-2.48 7.2,-5 10.74,-7.56 -0.22,-4.24 -0.3,-8.48 -0.16,-12.72 3.84,-1.68 7.52,-3.66 10.96,-6.06 6.54,0.16 12.56,2.74 18.62,4.9 z"
       id="path16"
       inkscape:connector-curvature="0"
       style="fill:#f5722c" />
    <path
       d="m 181.76,388.32 c 2.72,-2.22 5.02,-4.9 7.44,-7.44 11.92,8.74 20.68,20.74 30.46,31.66 5.4,5.24 2.68,13.36 2.78,20 -8.58,0.62 -16.06,-4.2 -24.3,-5.58 -7.14,1.18 -10.7,8.12 -15.54,12.68 -7.22,-6.78 -15.66,-12.28 -22.24,-19.72 -4.9,-8.58 6.22,-15.36 2.58,-24.04 2.48,-4.1 5.3,-7.98 8.54,-11.5 3.36,1.2 6.5,4.96 10.28,3.94 z"
       id="path18"
       inkscape:connector-curvature="0"
       style="fill:#f5722c" />
    <path
       d="m 143.46,427.76 c 3.16,-2.16 5.98,-6.66 10.38,-4.9 11.5,2.44 16.52,15.24 27.8,18.46 -2.32,2.36 -4.62,4.74 -6.9,7.12 1.74,3.48 3.46,7 5.12,10.54 -6.54,2.02 -12.62,6.38 -19.56,6.72 -3.52,-2.66 -4.56,-7.46 -6.76,-11.14 -3.88,-8.7 -10.18,-16.88 -10.08,-26.8 z"
       id="path20"
       inkscape:connector-curvature="0"
       style="fill:#f5722c" />
    <path
       style="fill:#f4722b"
       d="m 438.65,446.35 c -5.48,1.74 -10.79,4.29 -16.55,5.05 -3.82,-0.2 -6.3,-4.15 -10.2,-4.05 -4.74,2.18 -9.3,4.77 -14.2,6.65 -0.98,-0.96 -3,-2.84 -4,-3.8 -6.44,2.62 -12.03,6.74 -17.45,11 l -5.9,-0.7 c -7.74,4.44 -16.9,8.83 -18.3,18.75 3.68,-1.46 7.52,-2.44 11.5,-2.4 -3.42,6.8 -2.3,14.7 -4.8,21.8 -3.12,8.92 -6.06,18.29 -12.4,25.55 6.58,-13.68 13.55,-27.94 13.15,-43.5 -4.66,0.3 -9.34,0.5 -14,0.7 -1.28,13.68 -2.19,27.84 -8.35,40.4 -3.52,9.02 -10.33,16.32 -13.25,25.6 8.42,-3.9 15.42,-10.91 24.9,-12.25 5.68,-0.94 11.38,-3.11 17.2,-2.55 29.62,6.4 58.7,14.98 87.9,23 5.46,1.42 9.76,5.24 14.2,8.5 23.7,17.54 47.44,35.04 71.2,52.5 0.62,5.72 1.93,11.45 1.55,17.25 -1.78,4.9 -2.99,10.51 -6.55,14.45 -8.58,5.52 -17.77,10.14 -26.75,15 6.9,-8.32 14.22,-16.32 22.2,-23.6 6.26,-4.48 1.58,-12.68 0.9,-18.7 -4.84,-7.94 -11.91,-14.54 -19.65,-19.7 -14.16,-9.84 -28.2,-19.82 -41.9,-30.3 -6.82,-5.42 -15.47,-7.44 -23.35,-10.8 -12.58,-4.42 -24.59,-10.7 -37.75,-13.3 -17.36,-3.32 -34.5,-7.92 -52.1,-9.9 -14.68,4.86 -25.72,17.37 -41.2,20.15 -10.92,2.32 -21.28,6.65 -32.2,8.85 8.68,3.02 15.36,9.62 22,15.7 5.22,7.04 8.56,15.3 13.1,22.8 9.9,16.6 12.46,36.67 9.3,55.55 8.24,-5.02 16.38,-10.27 25.4,-13.85 7.76,-2.96 13.14,-9.65 20.3,-13.65 10.86,-6.42 21.56,-15.74 34.8,-15.7 12.86,3.32 25.59,-3.02 38.45,-1.3 -2.14,2.86 -4.67,5.52 -8.25,6.4 -15.38,5.08 -31.5,8.08 -47.7,8.6 -6.76,0.06 -12,5.05 -18.1,7.35 -1.42,3.34 -2.89,6.66 -4.35,10 2.92,1.3 5.62,3.09 6.8,6.25 1.04,0.5 3.11,1.5 4.15,2 0.18,1.1 0.52,3.33 0.7,4.45 1.28,0.7 3.82,2.1 5.1,2.8 2.32,-0.2 4.68,-0.37 7,-0.55 0.1,2.2 0.2,4.41 0.3,6.65 1.84,-0.14 5.51,-0.38 7.35,-0.5 0.76,3.28 1.35,6.62 1.75,10 2,0.68 4.03,1.35 6.05,2.05 0.1,3.54 0.2,7.09 0.3,10.65 2.3,-2.3 4.95,-3.29 7.95,-2.95 2.4,4.68 2.82,10.66 -0.4,15.1 -3.38,-1.16 -5.45,-3.85 -6.15,-7.25 -1.5,0.1 -4.53,0.3 -6.05,0.4 7.1,13.02 8.94,27.76 12.6,41.9 2.56,0.24 5.14,0.49 7.7,0.75 0.28,3.6 0.45,7.18 0.75,10.8 4.76,-0.16 9.51,-0.05 14.25,0.45 -0.62,2.12 -0.14,4.99 -2.4,6.25 -8.26,5.48 -17.9,8.29 -26.5,13.15 1.38,20.3 -7.16,39.3 -14.3,57.8 -5.06,9.72 -5.15,21.06 -4.55,31.7 6.46,6.9 13.35,14.2 22.25,17.8 8.54,0.96 17.17,0.78 25.75,1.2 8.6,0.06 18.65,0.98 25.25,-5.7 8.26,-18.74 1.94,-39.45 4.6,-59.05 -13.4,0.32 -26.57,2.89 -39.95,3.75 6.08,-3.66 12,-7.52 17.8,-11.6 -8.12,-3.64 -16.56,-6.44 -24.7,-10 10.24,-0.18 19.27,5.19 28.75,8.25 10,4.18 20.62,6.51 30.7,10.45 -1.92,-7.72 -4.22,-15.3 -6.5,-22.9 -3.1,-8.38 0.29,-17.18 0.75,-25.7 27.64,-5.78 55.79,-8.15 83.85,-10.85 -2.84,5.54 -5.5,11.19 -8.7,16.55 -1.04,2.62 -4.26,2.28 -6.5,2.9 -22,2.98 -43.9,6.5 -65.9,9.4 2.26,9.88 5.03,19.65 7.65,29.45 22.56,-2.88 45.17,-5.7 67.75,-8.4 -0.54,2.46 -1.08,4.92 -1.6,7.4 -19.82,4.26 -39.56,9.03 -59.4,13.25 2.52,9.82 6.3,19.22 9.6,28.8 1.16,0.46 3.44,1.36 4.6,1.8 l 8.7,-1.8 c 6.98,6.04 8.41,15.72 13.65,23 6.64,9.22 15.21,16.88 23.85,24.2 4.68,3.72 9.47,8.32 15.85,8.5 10.66,0.52 21.37,0.4 32.05,0.6 9.08,0.24 17.25,-4.34 26.05,-5.8 7.86,1.6 15.36,4.78 23.3,6.2 1.98,-9.86 3.5,-19.78 6.1,-29.5 0.76,-9.82 1.33,-20 -0.25,-29.7 -5.9,-9.68 -10.5,-20.9 -19.5,-28.2 -17.4,5.06 -33.79,16.52 -52.65,14.4 -2.14,4.44 -4.75,8.7 -6.05,13.5 -0.4,9.8 1.03,19.63 0.45,29.45 -1.84,-6.58 -2.97,-13.35 -4.65,-19.95 -3.54,8.42 -2.59,17.9 -3.95,26.8 -0.22,-10.82 0.22,-21.66 1.4,-32.4 2.7,-8.64 8.61,-15.97 10.95,-24.75 5.12,-21.94 7.22,-44.55 5.7,-67.05 0.34,-12.8 -1.47,-27.29 6.75,-38.15 4.52,-6.66 9.25,-13.21 13.65,-19.95 -0.94,-8.1 -3.96,-15.86 -4.6,-24 -0.54,-4.76 4.96,-6.32 8,-8.6 -3.74,-6.02 -7.6,-11.96 -11.9,-17.6 2.52,-4.52 7.96,-8.1 8.7,-13.2 -4.2,-4.52 -9.97,-7.5 -13.45,-12.7 -0.22,-3.78 1.96,-7.01 3.6,-10.25 -3.88,-5 -8.47,-9.36 -13.25,-13.5 1.2,-3.46 2.49,-6.93 3.75,-10.35 -4.22,-4.12 -8.61,-8 -13.15,-11.7 0.68,-4.12 1.5,-8.24 2.3,-12.3 -4.48,-2.74 -8.8,-5.68 -12.7,-9.2 1,-3.58 1.91,-7.18 2.75,-10.8 -5,-2.44 -10.81,-4.36 -14.05,-9.2 -1.06,-3.74 0.06,-7.67 0.2,-11.45 -3.18,-1.18 -6.4,-2.3 -9.6,-3.4 -8.62,-1.22 -5.28,-11.89 -7,-17.95 -5.6,-0.38 -10.91,-2.13 -15.65,-5.15 -0.2,-3.7 -0.49,-7.37 -0.75,-11.05 -5.98,-0.74 -11.83,-2.28 -17.35,-4.7 -1.46,-4 -2.87,-8.03 -4.25,-12.05 -4.54,0.24 -9.09,0.37 -13.65,0.25 -1.2,-2.84 -2.21,-5.79 -3.75,-8.45 -5.58,-0.42 -11.36,0.77 -16.7,-1.35 -0.5,-3.72 -1.05,-7.4 -1.65,-11.1 -5.84,1.24 -11.63,3.02 -17.65,3.2 -1.74,-4.62 -4.05,-8.99 -6.85,-13.05 z m -16.55,8.9 c 1.4,0.62 4.23,1.88 5.65,2.5 -2.1,5.94 -13.71,11.61 -17.05,4.25 2.34,-4.2 7.26,-5.21 11.4,-6.75 z m -20,1.5 c 1.41062,-0.0747 2.82499,0.26499 4.1,1.15 3.46,2.42 -1.33,5.23 -3.05,6.85 -2.88,0.88 -5.99,0.65 -8.95,0.85 -0.46501,-4.62 3.66813,-8.62594 7.9,-8.85 z m -17.75,3.7 c 3.76824,-0.31466 3.35,4.74374 0.8,6.6 -2.72,3.1 -6.69,4.2 -10.65,4.5 -1.16,-5.58 2.84,-11.91 9,-10.95 0.28875,-0.0713 0.59878,-0.12902 0.85,-0.15 z m 48.8,2.75 c 4.14,0 8.27,0.31 12.35,1.05 -0.24,2.08 -0.46,4.15 -0.7,6.25 -4.16,0.28 -8.34,0.54 -12.5,0.8 0.28,-2.7 0.57,-5.4 0.85,-8.1 z m -69.8,3.15 c 1.62325,0.05 2.9625,1.2125 3.95,3.45 -1.86,3.94 -6.24,8.64 -10.9,5.6 -0.62,-3.22 0.98,-6.27 3.7,-7.95 1.2,-0.7575 2.27605,-1.13 3.25,-1.1 z m 89.85,3.4 c 3.40059,-0.16778 6.77501,0.9125 9.7,3.15 -0.08,1.02 -0.19,3.05 -0.25,4.05 -5.16,0.58 -10.39,0.63 -15.55,0.15 0,-1.9 0.03,-3.82 0.05,-5.7 1.9725,-1.02 4.00965,-1.54933 6.05,-1.65 z m 18.75,9.95 c 4.19336,-0.0123 7.9875,1.7125 6.8,6.75 -4.42,1.82 -9.28,0.82 -13.9,0.7 0.04,-1.98 0.08,-3.94 0.1,-5.9 1.8375,-0.9 4.48398,-1.54262 7,-1.55 z m 14.6,9.9 c 4.74826,-0.21829 9.36875,1.47374 8.75,7.4 -4.72,0.5 -9.5,0.39 -14.2,-0.05 -0.22,-2.02 -0.38,-4.03 -0.6,-6.05 1.74374,-0.68125 3.8917,-1.20078 6.05,-1.3 z m 12.85,13.35 c 2.83874,-0.0196 6.26125,1.2325 8.5,1.75 4.14,0.58 3.24,5.16 3.7,8.2 -5.7,2.62 -17.76,2.06 -16.9,-6.6 0.63,-2.5375 2.4921,-3.33475 4.7,-3.35 z m 11.15,15.65 c 5,-0.1 9.86,0.9 14.3,3.2 0,3.24 1.41,7.47 -2.75,8.75 -6.46,0.58 -13.13,-5.13 -11.55,-11.95 z m 18,16.7 c 5.11898,0.0811 11.59493,3.72032 10.3,8.9 -4.66,5.56 -19.87,-0.43 -14.45,-7.85 0.8325,-0.57 1.94437,-0.90162 3.15,-1 0.32653,-0.0266 0.65874,-0.0554 1,-0.05 z m 8.4,17.4 c 3.08,0.12 6.15,0.29 9.25,0.45 0.84,1.28 2.51,3.85 3.35,5.15 -3.24,4.62 -8.24,1.36 -12.4,0.2 -0.06,-1.92 -0.12,-3.88 -0.2,-5.8 z m 17.5,15.85 c 3.26,2.78 5.3,6.37 5.1,10.75 -5.48,0.86 -10.17,-2.47 -12.65,-7.15 -1.24,-4.96 4.93,-2.72 7.55,-3.6 z m 2.35,16.4 c 1.82,0.18 3.64,0.32 5.5,0.5 1.4,3.36 3.68,7.01 0.1,9.95 -1.42,-0.76 -4.28,-2.26 -5.7,-3 0,-2.5 0.06,-4.97 0.1,-7.45 z m 6.6,20.4 c 2.4,0 4.83,0.01 7.25,0.05 0.06,2.44 0.09,4.94 0.15,7.4 l -4.3,-0.35 c -1.02,-1 -2,-1.97 -3,-2.95 -0.02,-1.04 -0.08,-3.13 -0.1,-4.15 z m 5.4,18.9 c 1.56,0.8 4.69,2.43 6.25,3.25 0.18,2.64 0.37,5.24 0.55,7.9 -2.18,-0.26 -4.36,-0.51 -6.5,-0.75 -0.14,-3.48 -0.26,-6.94 -0.3,-10.4 z m -7.95,16.35 c 2.16,0.02 4.37,0.06 6.55,0.1 2.4,3.56 4.26,7.43 5.8,11.45 -1.5,2.3 -2.35,5.22 -4.75,6.8 -2.48,-0.44 -4.9,-1.18 -7.2,-2.2 -1.88,-5.26 -2.96,-10.89 -0.4,-16.15 z m -5.4,16.3 c 6.75835,-0.58352 8.8875,8.5125 7.65,14.1 -2.64,0.1 -5.31,0.18 -7.95,0.3 -2.1,-4.28 -7.1,-10.71 -1.1,-14.15 0.4925,-0.12875 0.94944,-0.2111 1.4,-0.25 z M 543,670.6 c 2.36114,-0.15274 4.65,0.1 5.85,2.5 0.96,3.8 0.14,7.74 -0.1,11.6 -2.72,0.32 -5.45,0.63 -8.15,0.95 -1.48,-4.8 -1.74,-9.79 -1.7,-14.75 1.2525,0.03 2.68333,-0.20835 4.1,-0.3 z m -24.6,5.9 c 2.78,0.06 5.57,0.17 8.35,0.25 3.66,4.62 5.34,10.2 4.7,16.1 -4.22,0.82 -9.7,4.39 -13.5,1.25 -2.14,-5.64 -0.75,-11.9 0.45,-17.6 z m -11.9,8.2 c 2.6525,0.02 5.08,1.27 6.25,4.4 5.86,6.22 -2.55,16.94 -9.85,13.9 -3.76,-4.24 -3.63,-10.2 -4.05,-15.5 2.12,-1.63 4.9975,-2.82 7.65,-2.8 z m -18.85,4 c 0.25146,-0.0118 0.49643,-0.0163 0.75,0 1.2171,0.0785 2.46,0.48499 3.45,1.1 3.84,4.54 4.92,10.62 5,16.4 -3.06,0.84 -6.11,1.72 -9.15,2.6 -1.08,-0.62 -3.22,-1.91 -4.3,-2.55 -1.72,-4.82 -3.36,-10.45 -0.1,-15.05 0.91875,-1.64064 2.58978,-2.41736 4.35,-2.5 z m -63.3,3.9 c 0.61794,-0.0188 1.22938,-0.0122 1.85,0 0.8275,0.0163 1.67,0.08 2.5,0.15 1.38,4.86 2.67,9.95 0.55,14.85 -2.64,-0.2 -5.31,-0.37 -7.95,-0.55 -1.6,-4.48 -2.48,-9.14 -2.5,-13.9 1.84501,-0.2925 3.69621,-0.49357 5.55,-0.55 z m 43.95,1.7 c 6.08,4.18 8.53,11.28 6.65,18.4 -3.58,-0.06 -7.66,1.39 -10.9,-0.55 -4.88,-5.4 -3.15,-15.63 4.25,-17.85 z m -16.8,2.35 c 0.83126,-0.0794 1.73374,0.003 2.75,0.2 2.22,3.94 4.47,7.88 6.75,11.8 -2.58,4.12 -6.52,9.19 -12,6.25 -5.11125,-4.78501 -5.53554,-17.48264 2.5,-18.25 z m -13.85,0.4 c 1.53,0.005 3.07,0.05 4.6,0.15 0.88,5.08 2.62,9.99 3.1,15.15 -2.42,3.08 -7.45,3.39 -10.25,0.65 -2.52,-4.9 -1.95,-10.55 -2.05,-15.85 1.53,-0.08 3.07,-0.10501 4.6,-0.1 z"
       id="path22"
       inkscape:connector-curvature="0" />
    <path
       d="m 636.06,451.46 c 106.64,0.06 213.26,0.08 319.9,0 0.12,49.52 0.02,99.02 0.04,148.54 -72.84,0.04 -145.66,-0.08 -218.5,0.06 0.02,26.3 0.02,52.6 0,78.9 39.98,0.42 81.68,3.08 117.88,21.74 18.2,9.58 33.88,24.88 41.76,44.08 10.54,25.66 13.72,54.1 10.02,81.54 -5.5,39.26 -27.46,75.8 -59.34,99.32 -34.82,25.9 -78.38,37.8 -121.24,40.4 -4.28,-28.8 -8.78,-57.58 -13.16,-86.36 26.32,-1.94 53.44,-7.56 75.68,-22.5 13.04,-8.8 22.68,-23.32 23.18,-39.36 0.82,-10.74 -2.52,-22.2 -10.74,-29.5 -11.2,-10.3 -26.78,-13.54 -41.4,-15.38 -41.34,-4.1 -82.76,1.64 -124.14,2.14 0.04,-107.86 -0.08,-215.74 0.06,-323.62 z"
       id="path24"
       inkscape:connector-curvature="0"
       style="fill:#f5e5c1" />
    <path
       d="m 307.9,463.8 c -14.48,2.68 -28.36,9.09 -39.5,18.75 -3.84,6.54 -4.94,14.25 -7.1,21.45 4.54,8.4 3.66,17.99 2.9,27.15 2.22,0.64 4.48,1.31 6.7,1.95 1.56,3.94 2,8.13 2.1,12.35 4.02,-0.08 8.08,-0.11 12.1,0.05 -0.96,5.02 -4.64,8.32 -8.3,11.5 -1.18,3.16 3.1,4.16 4.7,6.1 10.88,-3.82 21.92,-7.19 32.9,-10.65 9.66,-11.08 17.19,-24.21 22.35,-37.95 -0.26,-10.44 1.94,-20.59 2.8,-30.95 -4.9,-2.72 -8.28,-7.17 -11.7,-11.45 -4.58,-6.02 -12.67,-8.56 -19.95,-8.3 z m 11.3,22.2 c 2.92,3.94 5.64,8.04 8.2,12.2 -1.54,3.48 -3.17,6.89 -4.95,10.25 -0.6,-6.42 -0.59,-13.01 -4.75,-18.35 -3.08,0.4 -6.14,0.84 -9.2,1.3 2.92,-2.96 6.6,-4.76 10.7,-5.4 z m -48.3,25.65 c 4.42594,-0.0891 9.02,3.05 12.2,5.9 -3.14,3.46 -6.42,6.77 -10,9.75 0.64,-1.9 1.88,-5.67 2.5,-7.55 -2.86,-2.1 -10.26,-1.9 -9,-6.8 1.38499,-0.87499 2.82469,-1.27032 4.3,-1.3 z m 28.8,16.05 c -2.56,4.78 -3.03,10.97 -7.25,14.65 0.68,-5.6 3.65,-10.43 7.25,-14.65 z"
       id="path32"
       style="fill:#f4722b"
       inkscape:connector-curvature="0" />
    <path
       d="m 132.78,480.84 c 2.36,-2.28 4.3,1.34 5.78,2.76 5.26,5.36 4.26,13.4 5.2,20.28 -6.34,8.5 -14.82,14.84 -24.38,19.32 -4.08,-7.7 -7.94,-15.52 -11.72,-23.38 8.16,-6.6 16.56,-12.94 25.12,-18.98 z"
       id="path40"
       inkscape:connector-curvature="0"
       style="fill:#f5722c" />
    <path
       d="m 189.86,528.8 c 11.3,-12.74 24.3,-25.52 41.84,-28.4 8.46,6.34 18.4,10.36 26.7,16.94 0.16,6.44 0.6,12.88 0.86,19.3 2.96,1.54 6.24,2.08 9.54,2.24 -0.16,3.02 -0.32,6.04 -0.48,9.08 0.66,0.7 1.96,2.14 2.62,2.84 -1,5.8 1.54,11.24 2.86,16.76 -16.22,7.34 -32.46,15.06 -46.4,26.34 -6.76,-8.78 -11.2,-19.02 -16.88,-28.48 -7.28,-11.98 -13.9,-24.34 -20.66,-36.62 z"
       id="path48"
       inkscape:connector-curvature="0"
       style="fill:#f5722c" />
    <path
       d="m 101.62,557.9 c 14.66,-13.54 29.24,-27.2 44.3,-40.32 14.7,10.84 23.82,27.14 37.08,39.46 8.36,7.7 14.54,17.36 20.64,26.86 4.08,6.54 9.06,12.48 12.44,19.46 8.98,-2.36 16.18,-8.64 24.18,-13.08 11.62,-8.28 25.34,-12.62 37.88,-19.2 6.46,2.94 13.66,4.86 19.2,9.4 5.42,7.36 11.08,14.66 15.5,22.68 4.66,12.6 8.78,25.52 11.08,38.78 0.98,5.48 0.28,11.2 -1.44,16.48 -8.76,5.88 -18.56,9.98 -28.32,13.92 -12.36,5.74 -24.88,11.1 -37.3,16.7 -8.18,3.74 -17.38,3.56 -26.1,5.08 -9.14,1.16 -18.9,3.08 -27.68,-0.74 -12.1,-4.8 -23.94,-10.24 -36.2,-14.68 -11.98,-4.14 -19.92,-14.5 -27.64,-23.96 -17.5,-20.6 -28.1,-45.7 -40.28,-69.54 -4.54,-8.84 -7.32,-18.48 -12.1,-27.2 4.92,0.04 9.84,0 14.76,-0.1 z"
       id="path54"
       inkscape:connector-curvature="0"
       style="fill:#f5722c" />
    <path
       d="m 705.42,815.18 c 3.64,-1.4 7.3,-2.7 11,-3.98 6.94,7.88 12.66,16.78 20.32,24.02 5.08,4.7 5.46,11.9 6.38,18.3 -8.9,1.96 -17.96,3.06 -27,4.02 -6.68,0.9 -14.3,1.94 -18.88,7.48 -4.36,5.1 -5,12.1 -5.96,18.46 -10.18,0.66 -20.34,1.76 -30.38,3.54 0.56,-15.76 0.86,-31.68 -2.92,-47.08 10.86,-1.1 21.94,-1.74 32.3,-5.46 2.22,-8.62 11.48,-11.68 15.14,-19.3 z"
       id="path92"
       inkscape:connector-curvature="0"
       style="fill:#f5722c" />
    <path
       d="m 353.32,880.72 c 9.42,-4.08 19.66,0.82 27.12,6.72 6.46,4.68 11.1,11.68 18.2,15.5 3.9,0.78 7.88,-0.04 11.78,-0.36 0.88,-6.76 1.8,-13.5 2.58,-20.24 13.72,1.7 27.38,3.88 41.02,6.1 -2.4,11.36 -7.26,22.1 -8.98,33.6 0.04,12.52 1.94,25.18 -0.74,37.62 -4.84,4.34 -9.12,9.34 -14.26,13.38 -5.2,0.94 -9.4,-3.42 -14.06,-5 -6,-3.26 -14.32,-3.56 -17.78,-10.26 -3.18,-3.44 -2.18,-8.3 -3.68,-12.3 -12.78,-3.14 -24.82,-8.78 -35.78,-15.96 -8.06,-7.96 -14.1,-17.76 -19.66,-27.56 2.14,-4.92 4.34,-9.8 6.56,-14.68 1.12,-0.22 3.4,-0.68 4.54,-0.9 1.06,-1.9 2.1,-3.78 3.14,-5.66 z"
       id="path94"
       inkscape:connector-curvature="0"
       style="fill:#f5722c" />
  </g>
</svg>
