<?xml version="1.0" encoding="UTF-8" standalone="no"?>
<svg
   xmlns:dc="http://purl.org/dc/elements/1.1/"
   xmlns:cc="http://creativecommons.org/ns#"
   xmlns:rdf="http://www.w3.org/1999/02/22-rdf-syntax-ns#"
   xmlns:svg="http://www.w3.org/2000/svg"
   xmlns="http://www.w3.org/2000/svg"
   xmlns:sodipodi="http://sodipodi.sourceforge.net/DTD/sodipodi-0.dtd"
   xmlns:inkscape="http://www.inkscape.org/namespaces/inkscape"
   width="1280"
   height="1280"
   viewBox="0 0 1024 1024"
   version="1.1"
   id="svg2"
   inkscape:version="0.48.1 "
   sodipodi:docname="kill_five_stunned.svg">
  <metadata
     id="metadata38">
    <rdf:RDF>
      <cc:Work
         rdf:about="">
        <dc:format>image/svg+xml</dc:format>
        <dc:type
           rdf:resource="http://purl.org/dc/dcmitype/StillImage" />
      </cc:Work>
    </rdf:RDF>
  </metadata>
  <defs
     id="defs36" />
  <sodipodi:namedview
     pagecolor="#ffffff"
     bordercolor="#666666"
     borderopacity="1"
     objecttolerance="10"
     gridtolerance="10"
     guidetolerance="10"
     inkscape:pageopacity="0"
     inkscape:pageshadow="2"
     inkscape:window-width="1920"
     inkscape:window-height="1018"
     id="namedview34"
     showgrid="false"
     inkscape:snap-page="true"
     fit-margin-top="0"
     fit-margin-left="0"
     fit-margin-right="0"
     fit-margin-bottom="0"
     inkscape:zoom="0.6609375"
     inkscape:cx="640"
     inkscape:cy="640"
     inkscape:window-x="-8"
     inkscape:window-y="-8"
     inkscape:window-maximized="1"
     inkscape:current-layer="svg2" />
  <rect
     style="fill:#3e3e3e;fill-opacity:1;fill-rule:nonzero;stroke:none"
     id="rect3015"
     width="1024"
     height="1024"
     x="0"
     y="0" />
  <path
     d="m 183.74,57.7 c 23.2,-4.36 46.58,-7.92 70.18,-9 31.94,-2.98 64.08,-1.46 96.12,-1.58 26.02,1.7 52.12,2.7 78.08,5.64 23.72,2.34 47.32,5.88 71.02,8.42 43.4,6.38 86.2,16.1 129.2,24.52 21.62,5.42 43.14,11.26 64.66,17.04 15.54,2.94 30.42,8.32 45.48,12.96 11.36,2.66 17.1,13.78 24.56,21.66 -1.76,4.86 -3.4,9.76 -4.96,14.68 -23.26,-7.24 -46.82,-13.4 -70.14,-20.46 -16.62,-4.26 -33,-9.5 -50,-12.08 -32.5,-8.12 -65.16,-15.82 -98.3,-20.72 C 480.88,88.56 421.6,80.92 361.98,78.54 334,78.5 306,78.54 278.02,78.52 c -47.44,2.24 -95.42,8.4 -139.76,26.3 -8.84,3.98 -17.28,8.82 -25.06,14.62 -1.46,-6.2 -3.42,-13.72 -9.9,-16.46 -8,-4.12 -19.06,-1.22 -23.4,6.82 -5.54,10.12 -11.98,19.76 -19.48,28.56 6.36,-24.86 25.62,-44.22 47.7,-56.12 24.1,-11.1 49.06,-21.38 75.62,-24.54 z"
     id="path6"
     inkscape:connector-curvature="0"
     style="fill:#f5722b" />
  <path
     d="m 792.94,99.02 c 6,-14.04 10.4,-28.7 15.32,-43.14 4.88,15.54 8.96,31.32 13.46,46.98 32.14,6.36 64.78,9.98 96.9,16.38 -24.78,14.56 -48.9,30.24 -73.66,44.82 4.18,21.56 11.5,42.44 15.14,64.1 -13.76,-16.06 -28.32,-31.4 -42.52,-47.08 -22.28,13.56 -44.34,27.52 -66.84,40.72 9.96,-27.9 19.42,-55.96 29.24,-83.9 2.8,-4.64 -1.86,-8.32 -4.4,-11.72 -10.72,-11.54 -20.94,-23.54 -31.74,-34.98 16.44,2 32.82,4.7 49.1,7.82 z"
     id="path8"
     inkscape:connector-curvature="0"
     style="fill:#f5722b" />
  <path
     d="m 94.68,117.42 c 3.36,4.2 2.46,10.02 3.34,15.04 1.8,14.62 2.76,29.34 5.48,43.82 14.82,3.14 29.96,5 44.54,9.22 -14.62,3.28 -28.58,8.88 -43.14,12.34 3.12,17.96 4.84,36.14 6.66,54.28 C 95.78,237.16 80.52,221.66 64.48,206.98 51.7,210.22 39.34,214.82 26.6,218.1 33.46,208.62 39.94,198.86 47.04,189.54 39.6,181.76 31.36,174.78 23.9,167.02 c 10.98,1.84 22.06,3.26 32.92,5.8 12.8,-18.32 26.68,-36.02 37.86,-55.4 z"
     id="path10"
     inkscape:connector-curvature="0"
     style="fill:#f5722b" />
  <path
     d="m 863.32,172.1 c 4.12,-1.96 7.98,-5.12 12.6,-5.64 9.4,2.22 17.9,7.1 26.68,11 42.3,19.5 83.58,41.74 121.4,69 l 0,32.92 c -16,-8.76 -29.58,-21.22 -45.66,-29.86 -34.6,-21.68 -71.46,-39.5 -108.98,-55.52 -2.24,-7.24 -4.2,-14.56 -6.04,-21.9 z"
     id="path12"
     inkscape:connector-curvature="0"
     style="fill:#f5722b" />
  <path
     d="m 374.12,189.64 c 22.94,-2.84 46.14,-0.98 69.2,-1.78 -0.3,10.52 -0.72,21.02 -1.28,31.54 -44.2,-0.4 -88.38,1.7 -132.22,7.26 -19.8,3.08 -39.92,4.36 -59.34,9.58 -20.76,4.04 -40.5,11.74 -60.26,19.06 -9.8,-7.26 -22.12,-12.22 -29.82,-21.68 13.88,-7.94 28.86,-13.68 43.84,-19.24 55.38,-14.84 112.56,-23.52 169.88,-24.74 z"
     id="path14"
     inkscape:connector-curvature="0"
     style="fill:#f5722b" />
  <path
     d="m 462,197.5 c 95.92,-0.08 191.84,0.18 287.76,-0.12 -2.28,7.66 -5.14,15.12 -7.76,22.68 3.34,3.98 6.68,7.96 10.02,11.92 9.5,-1.34 19.02,-2.52 28.46,-4.22 0.92,2.62 1.8,5.3 1.58,8.14 -0.12,36.7 0,73.4 -0.08,110.1 -72.82,0.04 -145.64,-0.04 -218.48,0.04 0,15.88 0.04,31.76 -0.02,47.66 C 529.7,383.46 495.84,373.48 462.06,363.26 461.92,308 462.02,252.76 462,197.5 z"
     id="path16"
     inkscape:connector-curvature="0"
     style="fill:#f5e5c1" />
  <path
     d="m 124.28,217.5 c 35.72,33.54 78.56,58.06 121.76,80.56 30.88,15.24 62.58,28.72 94.58,41.46 23.04,7.34 45.14,17.42 68.46,23.96 26.84,8.08 53.32,17.6 80.78,23.48 30.56,8.02 61.02,16.92 92.34,21.58 31.02,7.02 62.36,12.6 93.82,17.2 37.32,4 74.48,9.64 112,11.24 11.52,0.8 23.1,0.94 34.62,1.68 2.2,4.82 4.74,10.2 9.94,12.4 9.64,3.26 19.66,5.4 29.04,9.4 1.82,3.24 1.82,7.1 2.56,10.66 -11.38,-0.02 -22.82,0.6 -34.08,-1.4 -64.98,-1.32 -129.78,-8.76 -193.78,-20.14 -16.34,-3.18 -32.94,-4.76 -49.16,-8.6 -35.8,-8.3 -71.78,-15.94 -107.28,-25.52 -16.94,-5.22 -33.92,-10.34 -51.08,-14.74 -21.14,-6.48 -41.76,-14.5 -62.9,-20.92 -55.88,-20.54 -110.94,-43.72 -162.98,-72.74 -26.16,-15.28 -52.28,-31.04 -75.36,-50.76 0.24,-13.02 -1.76,-25.9 -3.28,-38.8 z"
     id="path18"
     inkscape:connector-curvature="0"
     style="fill:#f5722b" />
  <path
     d="m 822.72,242.04 c 26.7,8.2 53.5,16.5 79.02,28.06 33.04,14 65.96,30.98 90.78,57.52 8.98,8.98 14.24,20.76 19.68,32.04 1,8.12 0.88,16.42 0.12,24.58 -5.52,11.66 -11.9,24.16 -23.22,31.14 -10.66,3.24 -22.02,3.52 -32.82,6.34 6.14,-10.44 14.46,-21.1 13.68,-33.86 7.04,-6.9 14.06,-16.14 11.34,-26.66 -4.12,-12.14 -13.82,-21.4 -24.08,-28.62 -19.32,-15.32 -42.08,-25.3 -64.34,-35.48 -23.12,-8.92 -46.32,-17.82 -70.16,-24.66 -0.08,-10.14 -0.04,-20.28 0,-30.4 z"
     id="path20"
     inkscape:connector-curvature="0"
     style="fill:#f5722b" />
  <path
     d="m 122.66,277.9 c -0.22,-3.6 1.36,-6.86 2.94,-9.96 9.02,6.82 18.08,13.6 27.62,19.7 -2.08,13.1 6.86,24.84 16.4,32.76 20.36,17.98 45.36,29.28 69.72,40.64 17.98,6.54 35.52,14.26 53.78,20.04 16.92,4.88 33.88,9.6 50.76,14.6 39.74,10.96 80.5,17.34 120.86,25.48 39.78,11.64 80.46,19.8 120.78,29.36 15.92,3.94 32.32,5.4 48.42,8.5 25.26,4.54 50.68,8.16 76.08,11.62 -15.28,1.36 -30.66,0.2 -45.98,0.54 -17.28,-1.66 -34.62,-2.82 -51.96,-3.32 -67.18,-3.76 -133.82,-13.92 -200,-25.78 -32.84,-7.22 -65.56,-14.96 -97.96,-23.9 -31.02,-10.48 -62.7,-19.52 -92.18,-34 -18.9,-7.4 -36.08,-18.36 -53.16,-29.18 -17.54,-13 -34.7,-28.24 -43.3,-48.82 -4.04,-8.88 -3.04,-18.82 -2.82,-28.28 z"
     id="path22"
     inkscape:connector-curvature="0"
     style="fill:#f5722b" />
  <path
     d="m 866.1,391.92 c 7.78,7.92 15.84,15.58 23.74,23.42 21.14,-8.54 43.24,-14.76 63.84,-24.64 -8.08,18.32 -19.74,34.88 -27.38,53.4 8.24,12.4 21.48,20.98 30.16,33.2 -14,-4.88 -28.1,-9.64 -42.44,-13.44 -6.62,16.96 -17.64,31.7 -24.86,48.36 -4.54,-21.42 -8.26,-43.02 -12.76,-64.46 -12.1,-4.6 -24.54,-8.18 -36.84,-12.12 9.88,-5.56 21.1,-7.96 31.5,-12.3 0.1,-10.58 -4.28,-20.82 -4.96,-31.42 z"
     id="path24"
     inkscape:connector-curvature="0"
     style="fill:#f5722b" />
  <path
     d="m 1000.32,422.78 c 7.92,-2.48 15.76,-5.16 23.68,-7.64 l 0,34.16 c -18.44,6.28 -37.66,9.98 -56.72,13.82 -6.84,-7.22 -14.58,-13.64 -20.8,-21.4 0.32,-4.24 2.72,-9.3 7.48,-9.72 15.34,-3.66 31.28,-4.44 46.36,-9.22 z"
     id="path26"
     inkscape:connector-curvature="0"
     style="fill:#f5722b" />
  <path
     d="m 461.98,464.8 c 61.28,6.12 122.48,13.76 184.04,16.44 23.92,-0.52 47.86,-0.46 71.76,-1.32 14.24,26.14 18.78,56.88 16.08,86.32 -3.92,41.54 -26.56,80.68 -60.06,105.42 -34.8,25.96 -78.36,37.68 -121.18,40.46 -4.34,-28.8 -8.76,-57.6 -13.24,-86.38 27.26,-2.16 55.52,-7.92 78.04,-24.28 14.2,-10.2 22.8,-27.84 20.68,-45.38 -0.72,-9.7 -5.98,-18.78 -13.8,-24.48 -11.02,-8.22 -24.96,-11 -38.3,-12.7 -41.32,-4 -82.7,1.66 -124.06,2.18 0.12,-18.76 0.04,-37.52 0.04,-56.28 z"
     id="path28"
     inkscape:connector-curvature="0"
     style="fill:#f5e5c1" />
  <path
     d="m 425.44,488.98 c 18.74,92.64 38.92,185 58.16,277.54 2.38,13.12 7.22,26.12 5.72,39.66 -1.98,25.3 -4.86,50.54 -6.88,75.84 -26.3,-25.36 -52.24,-51.08 -78.68,-76.3 11.06,34.98 23.04,69.64 34.22,104.56 -25.42,-7.16 -50.58,-15.4 -75.7,-23.54 11.18,22.06 21.3,44.66 31.8,67.06 C 292.84,944.68 191.66,934.94 90.4,926.1 107.6,914.82 125.44,904.52 142.62,893.22 119.7,887.24 96.64,881.78 73.66,876.08 115.32,862.82 157.38,850.66 199.24,838.06 146.84,774.04 94.98,709.56 42.52,645.58 c 39.28,16.3 77.94,34.04 117,50.86 41.88,18.42 83.84,36.64 125.68,55.14 -25.8,-72.06 -50.94,-144.36 -76.46,-216.52 4,4.16 7.8,8.5 12.18,12.26 51.28,42.94 102.48,85.96 153.76,128.92 0.18,-21.68 -0.06,-43.36 0.12,-65.04 9.22,8.86 18.84,17.28 28.1,26.1 7.16,-46.76 13.8,-93.62 20.76,-140.42 0.52,-2.66 1.1,-5.28 1.78,-7.9 z"
     id="path30"
     inkscape:connector-curvature="0"
     style="fill:#c7bba1" />
  <path
     d="m 602.82,798.9 c 73.8,-79.48 147.26,-159.26 221.1,-238.68 -19.28,59.9 -38.58,119.8 -57.88,179.7 77.38,-25.78 154.62,-52.02 231.98,-77.86 -54.16,65.2 -107.88,130.76 -162.14,195.9 48.76,-3.74 97.46,-8.26 146.22,-11.72 -38.24,26.9 -76.02,54.44 -113.98,81.76 44.32,14.66 88.7,29.16 133.06,43.72 -108.36,-0.74 -216.76,-2.42 -325.14,-3.82 22.66,-27.92 45.32,-55.82 67.86,-83.84 -36,11.96 -71.96,23.98 -107.96,35.96 3.48,-21.96 6.64,-43.96 10.1,-65.92 -18.42,-9.34 -36.92,-18.54 -55.42,-27.76 4.88,-8.78 5.74,-19.6 12.2,-27.44 z"
     id="path32"
     inkscape:connector-curvature="0"
     style="fill:#c7bba1" />
</svg>
