<?xml version="1.0" encoding="UTF-8" standalone="no"?>
<svg
   xmlns:dc="http://purl.org/dc/elements/1.1/"
   xmlns:cc="http://creativecommons.org/ns#"
   xmlns:rdf="http://www.w3.org/1999/02/22-rdf-syntax-ns#"
   xmlns:svg="http://www.w3.org/2000/svg"
   xmlns="http://www.w3.org/2000/svg"
   xmlns:sodipodi="http://sodipodi.sourceforge.net/DTD/sodipodi-0.dtd"
   xmlns:inkscape="http://www.inkscape.org/namespaces/inkscape"
   width="1280"
   height="1280"
   viewBox="0 0 1024 1024"
   version="1.1"
   id="svg2"
   inkscape:version="0.48.1 "
   sodipodi:docname="kill_spy_killer.svg">
  <metadata
     id="metadata46">
    <rdf:RDF>
      <cc:Work
         rdf:about="">
        <dc:format>image/svg+xml</dc:format>
        <dc:type
           rdf:resource="http://purl.org/dc/dcmitype/StillImage" />
      </cc:Work>
    </rdf:RDF>
  </metadata>
  <defs
     id="defs44" />
  <sodipodi:namedview
     pagecolor="#ffffff"
     bordercolor="#666666"
     borderopacity="1"
     objecttolerance="10"
     gridtolerance="10"
     guidetolerance="10"
     inkscape:pageopacity="0"
     inkscape:pageshadow="2"
     inkscape:window-width="1920"
     inkscape:window-height="1018"
     id="namedview42"
     showgrid="false"
     inkscape:snap-page="true"
     fit-margin-top="0"
     fit-margin-left="0"
     fit-margin-right="0"
     fit-margin-bottom="0"
     inkscape:zoom="0.6609375"
     inkscape:cx="466.00473"
     inkscape:cy="640"
     inkscape:window-x="-8"
     inkscape:window-y="-8"
     inkscape:window-maximized="1"
     inkscape:current-layer="layer1" />
  <g
     inkscape:groupmode="layer"
     id="layer1"
     inkscape:label="background">
    <rect
       style="fill:#3e3e3e;fill-opacity:1;fill-rule:nonzero;stroke:none"
       id="rect3025"
       width="1024"
       height="1024"
       x="0"
       y="0" />
  </g>
  <g
     inkscape:groupmode="layer"
     id="layer2"
     inkscape:label="foreground">
    <path
       d="m 430.12,0 91.38,0 c 33.88,21.76 67.48,43.98 101.3,65.84 7,-21.92 13.8,-43.9 20.82,-65.82 L 641.88,0 732.3,0 c 22.68,41.76 44.66,83.9 67.18,125.74 C 874.3,112.38 949.24,99.52 1024,85.82 l 0,107.92 c -17.82,20.36 -35.9,40.52 -53.86,60.76 17.86,15.08 36.26,29.52 53.86,44.9 l 0,151.08 c -58.82,-1.46 -117.62,-2.82 -176.44,-4.38 35.78,-27.08 71.76,-53.88 107.64,-80.82 -54.92,-0.9 -109.84,-2.04 -164.76,-2.94 24.9,-57.88 49.92,-115.72 74.78,-173.6 -52.9,21.8 -105.72,43.86 -158.58,65.78 C 667.72,213.6 628.8,172.7 589.88,131.78 c -8.04,49.88 -15.96,99.78 -24.04,149.66 -21.92,-9 -43.9,-17.92 -65.84,-26.94 6.98,60.86 14,121.74 21.02,182.6 -61.86,8.12 -123.72,15.94 -185.56,24.08 43.76,51.94 87.78,103.66 131.52,155.62 -56.84,12.06 -113.72,23.92 -170.56,35.98 64.92,41.84 129.7,83.88 194.64,125.68 -49.84,29.04 -99.82,57.84 -149.66,86.86 42.84,20 85.76,39.88 128.62,59.86 -130.34,25.52 -260.68,51 -391.02,76.48 66.56,-78.32 132.94,-156.78 199.42,-235.14 -71.82,-22.98 -143.68,-45.9 -215.5,-68.88 49.86,-21 99.76,-41.9 149.62,-62.86 -58.8,-36.92 -117.64,-73.8 -176.48,-110.66 68.74,-20.28 137.64,-40 206.46,-60.06 -46.88,-64.8 -93.78,-129.6 -140.6,-194.44 72.8,-0.04 145.62,-0.02 218.42,-0.02 C 264.52,206.58 208.56,143.66 152.6,80.76 c 94.82,29 189.66,57.98 284.52,86.9 C 434.26,111.8 431.3,55.92 428.48,0.06 L 430.12,0 z"
       id="path6"
       inkscape:connector-curvature="0"
       style="fill:#f5e5c1" />
    <path
       d="m 630.16,266.18 c 9.62,-7.12 22.72,-10.64 34.32,-6.6 10.92,3.04 18.74,12.76 22.56,23.04 2.82,18.06 -4.06,36.8 3.04,54.38 l 0.36,1.64 c -4.76,8.4 -9.46,16.94 -15.6,24.44 -4.7,5.8 -12.22,7.88 -18.92,10.42 -1.98,-4.28 -3.9,-8.6 -6.08,-12.76 l -2.3,1.4 c -5.6,5.66 -13.34,7.88 -21.18,7.52 0.16,-0.98 0.46,-2.94 0.6,-3.9 8.54,-2.6 17,-6.22 22.72,-13.36 -2.44,-5.12 -4.94,-10.2 -7.52,-15.24 -9.02,0.98 -18.26,1.32 -26.76,4.74 -3.32,-6.6 -1.94,-13.82 1.68,-19.96 6.1,2.72 11.94,6.6 18.68,7.52 4.82,-2.06 9.34,-4.98 13.18,-8.54 0.92,-3.22 -0.14,-6.66 -0.22,-9.94 -11.6,-2.46 -23.34,-0.36 -35,0.06 -2.16,-3.26 -4.6,-6.94 -3.18,-11.04 3.06,-12.78 9.3,-25.38 19.62,-33.82 z"
       id="path14"
       inkscape:connector-curvature="0"
       style="fill:#f5722c" />
    <path
       style="fill:#f4722b"
       d="m 692,322.45 c 0.36,0.96 1.09,2.89 1.45,3.85 4.36,4.7 8.17,10.76 6.65,17.5 -2.22,6.52 -6.9,11.8 -10.6,17.5 -5.84,8.84 -11.77,17.62 -18.15,26.1 -6.7,8.64 -8.88,19.57 -13.1,29.45 -0.8,13.08 0.41,26.58 4.35,39.2 3.98,18.14 7.66,38.13 21.7,51.55 5.7,5.46 9.83,12.25 12.95,19.45 -0.06,-15.52 0.45,-31.38 -3.75,-46.5 -1.76,-5.72 -4.02,-11.28 -5.1,-17.2 16.4,22.44 11.96,52.07 10.4,78.05 -14.26,1.42 -28.57,1.53 -42.85,2.75 -20.62,1.36 -41.56,-3.18 -62,0.7 0.26,1.12 0.76,3.33 1,4.45 3.66,10.54 7.85,21 9.55,32.1 1.28,6.24 0.4,12.65 0.8,18.95 1.64,5.42 7.93,2.64 11.85,2.2 18.62,-4.2 37.77,-4.43 56.65,-6.75 24.78,-2.46 49.95,-5.08 74.65,-0.3 3.16,-33.1 5.67,-66.31 6.35,-99.55 0.46,-20.12 -3.5,-40.2 -1,-60.3 3.28,29.94 5.13,60.35 1.65,90.35 -0.4,24.48 -5.45,48.68 -4.35,73.2 -19.56,-2.04 -39.34,-5.94 -59,-2.8 -9.6,0.66 -19.14,1.73 -28.7,2.85 -2.72,3.48 -5.33,7.04 -7.65,10.8 -8.9,14.7 -20.38,27.59 -29.8,41.95 -15.88,20.94 -29.23,43.81 -39.85,67.85 -1.52,1.98 -4.73,3.23 -4.75,6.05 -0.54,14.04 2.39,28.04 1.05,42.1 -0.96,8.68 -1.62,17.34 -1.5,26.1 0.16,22.14 -3,44.16 -6.4,66 -1.68,10.22 -4.85,20.17 -5.45,30.55 12.7,1.26 25.67,-0.79 38.15,2.55 5.8,1.48 11.62,2.97 17.4,4.65 1.16,-2.56 2.72,-5.01 3.1,-7.85 2.2,-17.28 -0.65,-34.6 -0.85,-51.9 -0.1,-16.68 -0.53,-33.37 -0.05,-50.05 0.26,-16.64 -4.83,-32.6 -9.95,-48.2 7.58,-12.92 17.21,-24.61 28.05,-34.95 22.54,-23.64 49.37,-42.55 76.45,-60.55 -1.18,-4.84 -2.23,-9.71 -2.75,-14.65 -9.12,-9.24 -19.11,-18.48 -22.85,-31.4 6.64,0.06 8.11,7.8 12.15,11.7 21.48,23.6 49.46,40.82 79.8,50.5 21.06,10.36 44.07,-0.63 63.55,-9.45 6.52,-4.48 15.6,-10.38 15.4,-19 -12.14,-14.7 -27.56,-26.7 -37.9,-42.9 -5.08,-7.86 -11.07,-15.3 -14.05,-24.3 -3.4,-10.18 -7.27,-20.24 -9.75,-30.7 -5.16,-25.36 -4.85,-52.6 -17.65,-75.8 -5.7,-9.82 -7.45,-21.26 -12.65,-31.3 -10.54,-17.8 -15.67,-38.66 -28.95,-54.8 -5.48,-6.68 -9.55,-14.36 -15.05,-21 -6.2,-7.78 -14.6,-13.29 -21.7,-20.15 -4.6,-4.62 -10.73,-7.13 -16.95,-8.65 z m 37.5,75.95 c 9.06,2.9 14.36,11.14 19.4,18.6 0.08,1.44 0.27,4.28 0.35,5.7 -3.28,-10.54 -12.77,-16.48 -19.75,-24.3 z m -7.3,1.6 c -14.88,5.38 -27.01,16.38 -34.25,30.4 4.18,-15.36 17.81,-29.4 34.25,-30.4 z"
       id="path16"
       inkscape:connector-curvature="0" />
    <path
       d="m 690.08,337 c -0.16,-4.02 -3.26,-10.88 3.36,-10.7 4.36,4.7 8.2,10.78 6.68,17.52 -2.22,6.52 -6.9,11.76 -10.6,17.46 -5.84,8.84 -11.8,17.62 -18.18,26.1 -6.7,8.64 -8.86,19.58 -13.08,29.46 -3.44,-12.12 -0.5,-24.46 3.48,-36.02 -2.78,-0.04 -5.54,-0.08 -8.28,-0.08 -2.76,9.04 -3.8,18.5 -6.54,27.54 -1.44,-13.6 2.18,-27.1 0.9,-40.68 -0.06,-1.36 -0.22,-4.1 -0.28,-5.46 l 2.3,-1.4 c 2.18,4.16 4.1,8.48 6.08,12.76 6.7,-2.54 14.22,-4.62 18.92,-10.42 6.14,-7.5 10.84,-16.04 15.6,-24.44 L 690.08,337 z"
       id="path18"
       inkscape:connector-curvature="0"
       style="fill:#f5e5c1" />
    <path
       d="m 604.98,361.16 c 6.32,-2.76 12.46,-6.58 19.52,-7.06 0.08,1.02 0.26,3.08 0.34,4.1 -10.42,5.92 -21.52,11.62 -33.46,13.58 2.14,-5.92 8.54,-7.92 13.6,-10.62 z"
       id="path20"
       inkscape:connector-curvature="0"
       style="fill:#f5e5c1" />
    <path
       d="m 639.2,368.52 c 2.88,-0.34 5.74,-0.64 8.62,-0.92 1.28,13.58 -2.34,27.08 -0.9,40.68 1.72,29.2 12.3,56.76 22.74,83.74 -2.2,7.2 -11.8,16.96 -19.24,9.9 -9.04,-7.98 -17.58,-16.94 -28.34,-22.64 -2.88,-1.26 -7.78,-3.32 -4.08,-6.94 8.84,-11 21.64,-17.68 31.68,-27.42 -5.18,-25.16 -13,-50.42 -10.48,-76.4 z"
       id="path22"
       inkscape:connector-curvature="0"
       style="fill:#f5722c" />
    <path
       d="m 494.82,475.12 c 12.58,0.28 24.86,3.42 37.34,4.74 15.38,3.94 31.2,7.14 45.76,13.52 -2.6,3.26 -3.4,9.52 -8.44,9.72 -15.16,1.68 -29.98,-3.66 -45.16,-2.66 -9.9,-3.3 -17.12,-11.62 -24.32,-18.82 -1.74,-0.78 -3.48,-1.58 -5.2,-2.36 0,-1.02 0.02,-3.1 0.02,-4.14 z"
       id="path28"
       inkscape:connector-curvature="0"
       style="fill:#f5e5c1" />
    <path
       d="m 622.08,479.28 c 10.76,5.7 19.3,14.66 28.34,22.64 0.2,1.5 0.62,4.46 0.84,5.94 -9.28,-2.4 -16.48,-8.92 -23.2,-15.34 -3.32,-3.44 -6.58,-6.94 -9.7,-10.56 l 3.72,-2.68 z"
       id="path30"
       inkscape:connector-curvature="0"
       style="fill:#f5e5c1" />
    <path
       d="m 599.04,493.48 c 6,-4.4 12,-8.78 18.44,-12.54 l 0.88,1.02 c 3.12,3.62 6.38,7.12 9.7,10.56 -1.02,1.84 -2.12,3.64 -3.3,5.38 5.46,6.32 14.58,9.64 17.12,18.14 -5.24,4.74 -9.62,10.4 -15.16,14.8 -4.56,1.48 -9.34,-1.28 -13.08,-3.76 -3.94,-0.5 -8.54,-0.14 -11.14,-3.74 -3.08,-2.46 -0.66,-6.5 0.44,-9.3 -5.6,1.54 -11.58,4.82 -17.4,2.36 -2.62,-7.12 6.8,-8.68 11.22,-11.66 0.74,-3.76 1.5,-7.52 2.28,-11.26 z"
       id="path32"
       inkscape:connector-curvature="0"
       style="fill:#f5722c" />
    <path
       d="m 586.62,544.1 c 3.3,0.8 6.74,1.82 8.32,5.2 3.66,10.54 7.84,21.02 9.54,32.12 1.04,6.96 0.54,14.1 -1.82,20.76 -2.38,-1.56 -3.68,-3.7 -3.86,-6.48 -1.9,-14.54 -6.06,-28.58 -11.5,-42.16 -1.02,-3.04 -0.6,-6.3 -0.68,-9.44 z"
       id="path34"
       inkscape:connector-curvature="0"
       style="fill:#f5e5c1" />
    <path
       d="m 524.14,565.18 c -0.68,-7.44 6.82,-10.76 11.98,-14.3 17,-6.5 34.02,3.16 51.18,2.66 5.44,13.58 9.6,27.62 11.5,42.16 -6.92,4 -15.04,3.76 -22.66,5.22 -11.2,1.8 -22,5.52 -33.24,7.04 0.02,-2.26 0.06,-4.52 0.08,-6.76 6.98,-2.36 14.04,-4.54 20.74,-7.68 -13.46,-0.7 -25.98,6.08 -39.48,5.76 1.8,-4.34 4.46,-8.18 7.46,-11.76 9.14,-2.48 18.6,-4.38 27.06,-8.8 -13.94,-1.38 -27,4.62 -40.5,6.72 -5.28,1.16 -3.9,-6.34 -0.4,-7.56 11.02,-7.18 24.12,-10 36.4,-14.2 -9.94,-3.28 -20.14,0.34 -30.12,1.5 z"
       id="path36"
       inkscape:connector-curvature="0"
       style="fill:#f5722c" />
    <path
       d="m 721.74,632.38 c 8.14,6.52 15.02,14.54 23.86,20.2 14.58,10.66 31,18.3 47,26.5 7.12,3.46 14.72,6.9 22.86,6.08 0.08,13 2.12,25.88 2.08,38.9 9.22,-4.42 18.02,-9.76 27.7,-13.2 9.62,-3.44 19.22,-7.06 28.44,-11.52 10.1,-4.86 21.34,-6.54 32.48,-6.56 4.78,-5.36 10.22,-14.74 18.76,-11.7 6.16,5.98 6.88,14.96 6.54,23.06 -0.38,4.98 2.76,9.14 4.76,13.44 4.66,9.68 9.98,19.5 10.86,30.4 0.78,7.48 0.56,15.02 -0.04,22.52 -5.64,-3.14 -6.3,-10.4 -10.48,-14.88 -6.06,-6.76 -11.5,-14 -17.36,-20.92 -2.86,-0.18 -5.5,1.18 -8.16,2.04 -11.24,4.34 -23.3,5.46 -35.06,7.66 -17.04,3.72 -33.32,10.28 -48.82,18.18 -6.56,3.34 -14.92,6.82 -21.64,1.9 -7.92,-5.94 -17.46,-10.88 -22.1,-20.08 -7.12,-10.92 -15.38,-21.08 -22.18,-32.26 -12.82,-22.14 -24.96,-44.68 -35.98,-67.76 -1.74,-3.8 -2.58,-7.98 -3.52,-12 z"
       id="path38"
       inkscape:connector-curvature="0"
       style="fill:#f5722c" />
    <path
       d="m 566.88,895.42 c 10.48,-1.6 21.18,-0.54 31.74,-0.3 7.12,0.76 15.4,-0.2 21.02,5.14 -1.74,9.34 -2.8,18.78 -3.32,28.28 -1,0.54 -3.02,1.64 -4.02,2.18 -8.16,-2.2 -19.16,-1.46 -22.66,-11 -11.46,-5.86 -23.56,2.3 -35.36,0.18 -10.06,-3.48 -20.82,-3.62 -31,-6.5 -8.4,-2.22 -16.62,-5.08 -24.66,-8.4 0.06,-0.94 0.18,-2.84 0.22,-3.78 22.78,4.4 45.92,-0.18 68.04,-5.8 z"
       id="path40"
       inkscape:connector-curvature="0"
       style="fill:#f5722c" />
  </g>
</svg>
