<?xml version="1.0" encoding="UTF-8" standalone="no"?>
<svg
   xmlns:dc="http://purl.org/dc/elements/1.1/"
   xmlns:cc="http://creativecommons.org/ns#"
   xmlns:rdf="http://www.w3.org/1999/02/22-rdf-syntax-ns#"
   xmlns:svg="http://www.w3.org/2000/svg"
   xmlns="http://www.w3.org/2000/svg"
   xmlns:sodipodi="http://sodipodi.sourceforge.net/DTD/sodipodi-0.dtd"
   xmlns:inkscape="http://www.inkscape.org/namespaces/inkscape"
   width="1280"
   height="1280"
   viewBox="0 0 1024 1024"
   version="1.1"
   id="svg2"
   inkscape:version="0.48.1 "
   sodipodi:docname="kill_with_equalizer_while_hurt.svg"
   style="display:inline">
  <metadata
     id="metadata22">
    <rdf:RDF>
      <cc:Work
         rdf:about="">
        <dc:format>image/svg+xml</dc:format>
        <dc:type
           rdf:resource="http://purl.org/dc/dcmitype/StillImage" />
      </cc:Work>
    </rdf:RDF>
  </metadata>
  <defs
     id="defs20" />
  <sodipodi:namedview
     pagecolor="#ffffff"
     bordercolor="#666666"
     borderopacity="1"
     objecttolerance="10"
     gridtolerance="10"
     guidetolerance="10"
     inkscape:pageopacity="0"
     inkscape:pageshadow="2"
     inkscape:window-width="1920"
     inkscape:window-height="1018"
     id="namedview18"
     showgrid="false"
     fit-margin-top="0"
     fit-margin-left="0"
     fit-margin-right="0"
     fit-margin-bottom="0"
     inkscape:zoom="0.6609375"
     inkscape:cx="466.00473"
     inkscape:cy="640"
     inkscape:window-x="-8"
     inkscape:window-y="-8"
     inkscape:window-maximized="1"
     inkscape:current-layer="layer2"
     inkscape:snap-page="true" />
  <g
     inkscape:groupmode="layer"
     id="layer1"
     inkscape:label="background"
     style="display:inline">
    <rect
       style="fill:#3e3e3e;fill-opacity:1;fill-rule:nonzero;stroke:none"
       id="rect2990"
       width="1280"
       height="1280"
       x="0"
       y="0"
       transform="scale(0.8,0.8)" />
  </g>
  <g
     inkscape:groupmode="layer"
     id="layer2"
     inkscape:label="foreground">
    <path
       d="m 482.16,47.06 c 26.32,-4 54.02,-6.88 79.86,1.04 -0.38,2.64 -0.74,5.28 -1.1,7.92 30.98,2.84 62.16,2.88 93.12,5.86 17.38,1.74 34.98,1.78 52.06,5.7 12.26,2.84 24.88,4.28 36.94,7.92 10.32,5.06 21.8,10.5 25.9,22.14 -14.24,-2.18 -28.66,-2.44 -43.04,-2.48 -52.32,0.98 -104.8,1.34 -156.82,7.76 -4.76,9.06 -11.72,17.62 -11.64,28.4 -2.8,2.28 -5.6,4.56 -8.4,6.82 0.06,25.36 0,50.72 0.04,76.06 2.38,0.56 4.76,1.12 7.16,1.7 -1.24,5.1 -2.74,10.22 -5.84,14.56 -1.32,16.28 -0.82,32.66 -1.3,48.98 -18.56,-0.84 -37.16,-0.56 -55.72,0.22 -0.06,-16.74 -0.22,-33.48 -0.36,-50.22 -1.22,-0.56 -3.66,-1.68 -4.88,-2.24 -0.4,-2.98 -0.78,-5.98 -1.16,-8.98 1.64,-1.44 3.3,-2.88 4.98,-4.32 0.42,-25.28 0.68,-50.58 1.06,-75.86 C 490,136.02 487,134 484,131.98 c -0.66,-5.6 0.34,-11.9 -3.06,-16.78 -4.48,-6.72 -9.44,-13.94 -17.5,-16.58 -13.42,-7.06 -28.84,-5.68 -43.46,-6.44 -14.52,-0.22 -29.12,-2.14 -43.58,0.22 -21.38,3.24 -42.9,5.42 -64.38,7.8 -8.08,1.16 -16.46,-0.74 -23.6,-4.6 -4.24,-3.76 -6.98,-8.86 -10.22,-13.42 3.74,-1.12 7.48,-2.22 11.22,-3.34 -5.52,-1.3 -11.04,-2.58 -16.56,-3.88 -0.92,-2.66 -1.84,-5.3 -2.78,-7.94 25.96,-3.94 51.88,-8.22 77.9,-11.82 27.32,-1.42 54.72,-1.4 82.04,-2.96 9.46,-1.32 16.88,6.28 25.88,7.22 9.82,-0.9 19.32,-3.8 29.04,-5.32 -0.94,-2.36 -1.86,-4.72 -2.78,-7.08 z"
       id="path6"
       inkscape:connector-curvature="0"
       style="display:inline;fill:#f5722c" />
    <path
       d="m 664.48,112.98 c 2.2,-0.38 3.86,1.54 5.62,2.56 18.74,14.14 37.88,27.76 56.66,41.82 17,14.84 32.94,30.84 49.48,46.18 6.86,6.5 15.9,11.7 18.98,21.16 2.46,5.26 3.36,11.96 8.72,15.24 7.22,5.16 14.74,9.86 22.3,14.5 0.78,-1.68 2.32,-5.02 3.1,-6.7 9.12,7.88 19.54,14.24 27.88,23.04 9.94,10.84 22.12,20.38 27.1,34.78 -2,1.36 -4,2.74 -5.96,4.12 10.74,13.14 22.34,25.54 33.6,38.24 16.14,17.28 31.08,35.62 46.52,53.5 12.14,14.26 21.36,30.66 32.08,45.94 6.16,11.52 9.98,25.44 5.98,38.3 -0.6,-0.34 -1.78,-1.04 -2.36,-1.38 -12.32,-16.28 -27.16,-30.52 -42.06,-44.4 -20.52,-20.2 -40.9,-40.58 -62.94,-59.12 -12.94,-10.7 -24.8,-22.72 -38.78,-32.1 -7.54,2.16 -15.06,4.4 -22.56,6.72 -1.28,1.7 -2.56,3.42 -3.82,5.14 -4.1,-0.4 -8.2,-0.82 -12.28,-1.24 -15.18,15.04 -29.62,30.88 -45.62,45.04 -9.48,-16.76 -19.78,-33.1 -31.6,-48.32 11.44,-11.04 23.16,-21.8 34.38,-33.08 4.42,-3.64 1.58,-9.74 1.58,-14.54 2.8,-3.16 5.64,-6.3 8.5,-9.4 1.56,-9.24 4.42,-19.24 0.14,-28.16 -4.78,-14.98 -17.2,-25.2 -27.26,-36.58 -10.12,-9.9 -18.84,-21.36 -30.38,-29.76 -17.64,-12.94 -34.62,-26.74 -51.62,-40.5 -6.1,-4.8 -9.3,-12.02 -13,-18.62 0.72,-5.7 1.66,-11.38 2.54,-17.06 3.86,1.96 7.72,3.94 11.56,5.94 -3.44,-4.74 -6.7,-9.6 -10.12,-14.34 1.14,-2.34 2.36,-4.64 3.64,-6.92 z"
       id="path8"
       inkscape:connector-curvature="0"
       style="display:inline;fill:#f5722c" />
    <path
       d="m 340.08,150.28 c 12.96,-9.72 30.38,-15.62 46.32,-10.58 -11.08,8.3 -20.78,18.26 -30.9,27.68 -25.8,27.54 -53.24,53.58 -77.46,82.6 -9.62,11.84 -21.12,22.38 -28.92,35.6 1.12,7.8 4.14,15.16 6.38,22.68 1.68,1.24 3.36,2.5 5.06,3.74 -0.44,4.06 -0.9,8.1 -1.32,12.16 17.72,17.6 35.72,34.96 52.86,53.14 1.3,-0.2 3.88,-0.6 5.16,-0.8 -10.12,18.52 -18.54,37.94 -27.12,57.22 -1.72,-1.44 -3.44,-2.88 -5.18,-4.28 -4.5,0 -8.76,-1.28 -12.62,-3.54 0.02,-2.6 0.06,-5.22 0.08,-7.82 -15.42,-15.42 -30.48,-31.22 -45.48,-47.06 -2.28,-2.24 -4.4,-4.78 -7.26,-6.28 -3.84,-0.28 -7.66,0.38 -11.44,0.76 -3.08,-2.78 -6.14,-5.58 -9.18,-8.4 -6.7,-1.18 -13.44,-2.74 -20.28,-2.48 -12.3,2.42 -23.36,9.14 -32.08,18.04 -16.3,15.68 -34.38,29.9 -47.32,48.66 -10.64,14.58 -22.36,28.32 -33.5,42.52 -5.12,6.76 -12.26,12.06 -20.36,14.66 -5.82,0.58 -11.56,-1.12 -17.26,-1.96 1.98,-3.94 3.96,-7.88 6,-11.8 -4.52,3.58 -9.26,6.84 -14,10.1 -2.72,-1.04 -5.46,-2.08 -8.2,-3.1 7.5,-12.14 16.62,-23.14 24.88,-34.74 9.44,-12.56 17.88,-25.96 28.84,-37.3 16.4,-17.56 33.4,-34.56 49.18,-52.7 6.52,-8.64 20.36,-6.38 25.78,-16.06 4.76,-6.92 9.24,-14.02 13.64,-21.16 -1.66,-0.8 -4.96,-2.42 -6.62,-3.22 7.86,-9.1 14.24,-19.46 23,-27.78 10.8,-10.04 20.6,-21.92 34.78,-27.28 1.2,2.08 2.4,4.18 3.62,6.26 19.44,-15.28 37.06,-32.72 55.66,-49.02 12.98,-10.96 25.96,-21.96 38.78,-33.1 11.42,-9.5 24.38,-16.84 36.48,-25.36 z"
       id="path10"
       inkscape:connector-curvature="0"
       style="display:inline;fill:#f5722c" />
    <path
       d="m 506.32,299.08 c 20.4,-2.52 41.44,-6.06 61.68,-0.6 22.24,5.78 45.14,9.14 66.8,17.08 11.1,4.06 22.88,6.44 33.34,12.16 9.34,5.02 17.04,12.42 25.44,18.78 7.4,5.4 11.86,13.54 17.26,20.72 8.3,11.18 15.94,22.82 23.76,34.34 6.78,9.56 7.72,21.64 10.4,32.72 1.38,13.84 0.44,27.84 2.32,41.7 0.4,29.26 2.08,58.82 9.84,87.2 7.76,27.98 12.92,56.8 23.84,83.8 7.02,8.34 16.08,14.62 23.92,22.1 5.3,4.78 6.16,12.22 6.9,18.9 -9.1,-4.12 -18.02,-8.66 -27.22,-12.62 -16.5,-8.22 -35.18,-9.82 -52.96,-13.8 -30.88,-6.26 -62.46,-4.42 -93.74,-5.06 -34.04,-0.06 -67.88,-5.08 -101.94,-3.92 -50.14,-1.1 -100.08,3.66 -150.04,6.98 -32.18,3.46 -63.98,9.74 -95.94,14.74 -9,0.48 -17.44,4.04 -25.16,8.48 -9.98,5.76 -20.1,11.28 -30.32,16.62 2.66,-15.54 17.9,-22.6 27.44,-33.38 6.12,-7.04 15.12,-11.78 19.4,-20.22 6.16,-26.08 11.34,-52.6 12.76,-79.4 3.62,-34.78 4.52,-69.82 9.86,-104.4 2.12,-12.72 4.36,-25.62 10.8,-36.98 7.16,-22.02 19.64,-42.08 34.72,-59.56 13.96,-15.98 32.84,-26.22 50.62,-37.26 18.18,-11.14 39.16,-16.02 59.6,-21.14 15.26,-4.14 31.1,-5.24 46.62,-7.98 z"
       id="path12"
       inkscape:connector-curvature="0"
       style="display:inline;fill:#f5e5c1" />
    <path
       d="m 344.58,683.78 c 49.22,-5.3 98.6,-10.26 148.16,-10.34 -2.28,8.8 -6.32,18.34 -1.38,27.04 4.58,-4.32 8.46,-9.88 14.64,-12.08 8.26,-3.3 15.34,-9.18 24.02,-11.52 13.76,3.16 26.12,11.06 34.14,22.78 1.68,-1.8 3.38,-3.58 5.1,-5.36 -0.9,-7.48 -4.38,-14.18 -7.78,-20.76 16.86,0.06 33.64,1.6 50.42,3.06 25.86,1.3 51.7,3.1 77.34,6.88 -9.74,3.76 -19.92,6.3 -29.54,10.24 -13.74,10.9 -20.74,27.66 -26.4,43.76 -2.3,7.96 -1.36,16.36 -1.74,24.54 -4.68,1.56 -9.6,4.86 -14.64,2.88 -3.92,-2.1 -4.18,-7.04 -5.24,-10.84 -2.18,4.88 -3.88,10.12 -7.18,14.4 -5.08,4.72 -14.74,2.38 -17.18,-4.08 -3.44,-8.06 -4.6,-16.84 -5.28,-25.5 -3.22,9.22 -6.32,18.9 -12.5,26.62 -3.68,4.08 -11.1,7.84 -15.4,2.54 -4.32,-7.14 -11.66,-12.46 -13.56,-20.92 -0.8,7.22 1,16.7 -5.64,21.62 -3.9,1.08 -7.92,-0.36 -11.76,-1.02 -4.82,-1.24 -10.74,-1.18 -13.92,-5.7 -0.84,-8.92 -1.84,-17.82 -3.48,-26.64 0.04,6 0.14,12.14 -2.36,17.76 -2.48,6 -1.68,15.02 -9.14,17.52 -8.64,1.96 -11.84,-7.6 -15.48,-13.28 -3.74,-4.76 -5.3,-10.58 -6.04,-16.48 0.4,6.54 2.94,14.36 -1.98,19.82 -3.6,3.02 -8.5,4.34 -13.16,3.98 -7.72,-5.54 -13.52,-14.12 -15.82,-23.36 -0.84,7.64 -1.26,17.24 -8.68,21.64 -3.2,0.66 -6.48,0.3 -9.72,0.32 -3.76,-6.12 -5.22,-13.18 -6.74,-20.08 -2.54,-11.76 -9.88,-21.54 -16.36,-31.38 -5.36,-9.48 -15.98,-13.98 -25.48,-18.14 -10.68,-1.34 -20.3,-6.14 -30.24,-9.92 z"
       id="path14"
       inkscape:connector-curvature="0"
       style="display:inline;fill:#f5e5c1" />
    <path
       d="m 326.28,705.9 c 4.8,0.84 9.54,2.12 13.92,4.36 3.92,1.52 8.86,2.46 10.54,6.92 9.84,20.96 12.46,44.38 20.72,65.9 4.24,7.6 14.18,9.16 19.36,15.96 6.32,8.52 9.88,18.66 12.94,28.74 3.38,11.1 7.88,21.84 13,32.26 0.98,-12 0.5,-24.08 1.42,-36.08 0.98,-13.64 0.08,-27.56 3.26,-40.96 2.72,-6.38 10.1,-8.72 16.56,-8.16 0.78,1.16 2.32,3.48 3.1,4.64 -2.2,12.74 -1.24,25.68 0.62,38.38 3.9,-7.56 8.22,-15.18 9.16,-23.8 0.5,-5.66 2.66,-10.92 6.16,-15.36 5.14,-0.1 12.24,-0.1 13.64,6.22 1.64,10.42 3.16,20.9 4.04,31.42 0.32,-12.58 3.5,-25.28 9.66,-36.24 5.8,-2.38 15.8,-5.02 18.28,3.08 2.4,11.46 1.26,23.42 3.1,35.02 3.14,-7.2 7.9,-14.02 8.36,-22.1 0.74,-5.06 -0.46,-11.8 4.86,-14.74 5.04,-2.12 11,-2.28 16.02,-0.02 5.72,3.4 4.7,10.9 4.36,16.56 -0.94,7.86 -1.48,15.76 -0.86,23.68 3.28,-12.72 10.66,-24.04 12.62,-37.14 1.28,-7.44 10.62,-10.44 16.42,-6 5.58,2.88 4.94,9.84 5.56,15.12 1.58,3.18 2.94,6.48 3.92,9.92 1,-7.38 3.98,-14.32 7.6,-20.76 2.88,-6.04 13.34,-5.32 15.56,0.98 3.42,8.54 8.34,16.48 10.64,25.46 1.7,-7.64 3.52,-15.38 2.74,-23.24 -0.56,-3.84 0.32,-7.58 1.64,-11.14 7,-0.54 15.18,1.88 17.82,9.08 0.32,22.08 -5.26,44.36 -1.36,66.38 0.86,0.44 2.58,1.32 3.42,1.76 2.12,-11.42 6.32,-22.38 13.12,-31.86 3.38,-4.04 3.72,-9.44 5.82,-14.06 6.5,-7.1 15,-11.86 22.92,-17.16 2.64,-1.8 5.24,-3.98 6.16,-7.16 7,-19.24 10,-39.7 17.58,-58.74 0.92,-2.24 1.86,-4.76 4.24,-5.84 7.34,-4.2 15.3,-7.2 23.2,-10.18 -2.24,13.92 -3.9,28.16 -9.06,41.38 -15.08,42.6 -31.44,85.02 -40.38,129.46 -2.2,7.4 -3.24,17.98 -11.48,21.1 -19.9,3.7 -36.92,15.58 -53.32,26.8 -11.2,6.9 -22.74,13.28 -33.96,20.2 -7.32,4.3 -14.96,9.88 -23.98,8.5 -25.48,-2.22 -51,-4.68 -76.34,-8.24 -8.68,-0.88 -15.64,-6.54 -22.98,-10.68 -23.76,-12.8 -44.6,-32.58 -72.04,-37.24 -6.92,-6.26 -8.1,-16.12 -10.2,-24.7 -9.58,-46.28 -27.5,-90.16 -42.68,-134.76 -2.14,-10.88 -5.2,-21.76 -5.42,-32.92 z"
       id="path16"
       inkscape:connector-curvature="0"
       style="display:inline;fill:#f5e5c1" />
  </g>
</svg>
