<?xml version="1.0" encoding="UTF-8" standalone="no"?>
<svg
   xmlns:dc="http://purl.org/dc/elements/1.1/"
   xmlns:cc="http://creativecommons.org/ns#"
   xmlns:rdf="http://www.w3.org/1999/02/22-rdf-syntax-ns#"
   xmlns:svg="http://www.w3.org/2000/svg"
   xmlns="http://www.w3.org/2000/svg"
   xmlns:sodipodi="http://sodipodi.sourceforge.net/DTD/sodipodi-0.dtd"
   xmlns:inkscape="http://www.inkscape.org/namespaces/inkscape"
   width="1280"
   height="1280"
   viewBox="0 0 1024 1024"
   version="1.1"
   id="svg2"
   inkscape:version="0.48.1 "
   sodipodi:docname="kill_airborne_with_direct_hit.svg">
  <metadata
     id="metadata16">
    <rdf:RDF>
      <cc:Work
         rdf:about="">
        <dc:format>image/svg+xml</dc:format>
        <dc:type
           rdf:resource="http://purl.org/dc/dcmitype/StillImage" />
      </cc:Work>
    </rdf:RDF>
  </metadata>
  <defs
     id="defs14" />
  <sodipodi:namedview
     pagecolor="#ffffff"
     bordercolor="#666666"
     borderopacity="1"
     objecttolerance="10"
     gridtolerance="10"
     guidetolerance="10"
     inkscape:pageopacity="0"
     inkscape:pageshadow="2"
     inkscape:window-width="1920"
     inkscape:window-height="1018"
     id="namedview12"
     showgrid="false"
     inkscape:snap-page="true"
     fit-margin-top="0"
     fit-margin-left="0"
     fit-margin-right="0"
     fit-margin-bottom="0"
     inkscape:zoom="0.6609375"
     inkscape:cx="466.00473"
     inkscape:cy="640"
     inkscape:window-x="-8"
     inkscape:window-y="-8"
     inkscape:window-maximized="1"
     inkscape:current-layer="layer1" />
  <g
     inkscape:groupmode="layer"
     id="layer1"
     inkscape:label="background">
    <rect
       style="fill:#3e3e3e;fill-opacity:1;fill-rule:nonzero;stroke:none"
       id="rect2993"
       width="1024"
       height="1024"
       x="0"
       y="0" />
  </g>
  <g
     inkscape:groupmode="layer"
     id="layer2"
     inkscape:label="foreground">
    <path
       d="m 301.02,0 161.1,0 c -12.56,127.34 -25.26,254.68 -37.92,382.02 -1.56,8.42 3.12,16.06 5.44,23.86 3.8,9.8 6.08,20.22 10.84,29.6 7.96,11.52 16.44,22.7 24.54,34.14 -2.12,22.02 -4.22,44.06 -6.08,66.12 -21.28,6.9 -42.68,13.4 -64.08,19.9 20.52,-1.56 40.94,-4.26 61.4,-6.22 6.98,-0.62 13.58,2.22 20.1,4.26 0.38,13.26 0.94,26.54 1.36,39.8 -36.32,0.16 -72.66,0.68 -108.98,0.44 -4.94,-7.76 -9.94,-15.48 -14.94,-23.2 -8.66,7.06 -17.1,14.38 -25.84,21.36 -51.32,0.6 -102.64,0.84 -153.96,1.42 -4.6,-0.1 -9.18,-0.76 -13.7,-1.6 -32.9,-5.86 -65.96,-10.76 -98.78,-17.04 0.3,-11.38 0.12,-22.76 0.16,-34.14 11.98,1.5 24.16,-0.28 36,2.42 24.8,4.66 49.68,8.86 74.48,13.54 13.82,2.76 27.94,0.28 41.92,0.92 34.66,-1.1 69.42,-0.12 104.04,-2.28 -10.76,-1.1 -21.4,-3.34 -32.24,-3.62 -34.92,-1.04 -69.86,-2.38 -104.78,-3.4 -9.2,-0.14 -18.1,-2.64 -27.06,-4.46 -22.84,-4.78 -45.68,-9.46 -68.52,-14.26 2.14,-24.3 3.96,-48.64 6.08,-72.94 13.5,5.84 27.1,11.42 40.64,17.18 6.34,2.66 12.64,5.92 19.62,6.48 36.62,3.56 73.1,8.54 109.74,11.72 16.78,-14.68 33.52,-29.4 50.42,-43.92 2.36,-2.18 5.38,-4.42 5,-8.04 1.7,-22.72 4.18,-45.38 5.28,-68.12 C 315.22,247.96 308.2,123.98 301.02,0 z"
       id="path6"
       inkscape:connector-curvature="0"
       style="fill:#f5e5c1" />
    <path
       d="m 571.9,0 161.06,0 c -7.14,124.02 -14.2,248.04 -21.28,372.06 1.6,23.96 3.06,48.18 6.2,71.88 16.14,15.3 33.56,29.26 50.06,44.2 2.32,1.72 4.6,4.84 7.94,3.82 35.7,-3.78 71.34,-8.1 107.06,-11.74 4.22,-0.48 8.28,-1.86 12.18,-3.54 15.72,-6.74 31.52,-13.34 47.28,-20 2.3,26.62 4.3,53.28 6.68,79.92 -7.44,3.4 -15.14,6.24 -23.2,7.72 -21.3,4.32 -42.36,9.94 -63.76,13.72 -27.62,1.8 -55.2,4.6 -82.9,4.82 24.26,1.46 48.54,-0.46 72.8,-0.52 16.52,0.3 32.34,-5.1 48.44,-7.96 23.96,-4.5 47.58,-11.08 71.86,-13.76 0.02,11.44 -0.08,22.9 0.1,34.36 -32.8,6.04 -65.76,11.12 -98.62,16.9 -15.08,3.18 -30.56,0.74 -45.82,1.34 -40.66,-0.78 -81.38,-0.04 -122,-1.58 -9.16,-6.22 -17.1,-14.12 -25.84,-20.96 -4.92,7.76 -9.96,15.44 -14.86,23.2 -36.34,0.32 -72.7,-0.24 -109.04,-0.42 0.46,-13.26 1.02,-26.54 1.42,-39.8 19.28,-7.98 40.44,-5.6 60.72,-7.68 -14.24,-1.62 -28.54,-2.66 -42.8,-4.18 -2.02,-24.08 -4.26,-48.14 -6.6,-72.2 8.16,-11.4 16.62,-22.6 24.52,-34.18 4.62,-8.86 6.76,-18.78 10.34,-28.06 2.36,-8.34 7.52,-16.4 5.94,-25.36 C 597.16,254.66 584.42,127.34 571.9,0 z"
       id="path8"
       inkscape:connector-curvature="0"
       style="fill:#f5e5c1" />
    <path
       d="m 435.7,622.2 c 57.44,-1.06 114.9,-1.38 172.34,-2.18 11.96,16.68 23.98,33.32 36,49.98 20.66,-13.94 41.2,-28.06 61.96,-41.84 35.28,26.48 70.56,53 105.64,79.74 2.26,-27.22 2.7,-54.56 4.42,-81.82 26.52,-1.5 53.06,-2.62 79.6,-4.06 35.72,30.94 70.76,62.72 106.28,93.9 -43.32,-3.06 -86.62,-6.9 -129.96,-9.74 13.4,63.26 26.74,126.52 39.98,189.8 -60.68,-61.94 -121.26,-123.96 -181.9,-185.92 -12.8,50.6 -25.3,101.3 -38.08,151.92 C 639.32,810.66 586.66,759.32 534.02,708 495.96,781.86 458.24,855.9 420.06,929.7 369.72,862.7 320.02,795.22 270,727.96 c -42.02,45.88 -83.66,92.12 -125.98,137.72 0.64,-59.24 1.34,-118.48 1.98,-177.74 -41.26,11.4 -82.54,22.8 -123.88,33.9 21.52,-30.26 42.9,-60.64 64.44,-90.88 1.54,-2.26 2.92,-4.62 4.28,-6.98 35.72,0.92 71.46,1.14 107.16,2.2 6.76,15.24 13.34,30.56 19.98,45.86 22.08,-15.98 44,-32.16 66.18,-47.98 17.74,19.52 36,38.56 53.84,57.98 12.6,-17.36 25.36,-34.62 38.02,-51.96 11.82,18.42 23.9,36.68 35.32,55.36 1.52,-2.44 2.9,-4.96 3.82,-7.68 6.66,-18.58 14.14,-36.88 20.54,-55.56 z"
       id="path10"
       inkscape:connector-curvature="0"
       style="fill:#f5722c" />
  </g>
</svg>
