<?xml version="1.0" encoding="UTF-8" standalone="no"?>
<svg
   xmlns:dc="http://purl.org/dc/elements/1.1/"
   xmlns:cc="http://creativecommons.org/ns#"
   xmlns:rdf="http://www.w3.org/1999/02/22-rdf-syntax-ns#"
   xmlns:svg="http://www.w3.org/2000/svg"
   xmlns="http://www.w3.org/2000/svg"
   xmlns:sodipodi="http://sodipodi.sourceforge.net/DTD/sodipodi-0.dtd"
   xmlns:inkscape="http://www.inkscape.org/namespaces/inkscape"
   width="1280"
   height="1280"
   viewBox="0 0 1024 1024"
   version="1.1"
   id="svg2"
   inkscape:version="0.48.1 "
   sodipodi:docname="kill_pyro.svg">
  <metadata
     id="metadata48">
    <rdf:RDF>
      <cc:Work
         rdf:about="">
        <dc:format>image/svg+xml</dc:format>
        <dc:type
           rdf:resource="http://purl.org/dc/dcmitype/StillImage" />
      </cc:Work>
    </rdf:RDF>
  </metadata>
  <defs
     id="defs46" />
  <sodipodi:namedview
     pagecolor="#ffffff"
     bordercolor="#666666"
     borderopacity="1"
     objecttolerance="10"
     gridtolerance="10"
     guidetolerance="10"
     inkscape:pageopacity="0"
     inkscape:pageshadow="2"
     inkscape:window-width="1920"
     inkscape:window-height="1018"
     id="namedview44"
     showgrid="false"
     inkscape:object-paths="true"
     inkscape:snap-page="true"
     fit-margin-top="0"
     fit-margin-left="0"
     fit-margin-right="0"
     fit-margin-bottom="0"
     inkscape:zoom="0.6609375"
     inkscape:cx="466.00473"
     inkscape:cy="640"
     inkscape:window-x="-8"
     inkscape:window-y="-8"
     inkscape:window-maximized="1"
     inkscape:current-layer="layer1" />
  <g
     inkscape:groupmode="layer"
     id="layer1"
     inkscape:label="background"
     style="display:inline">
    <rect
       style="fill:#3e3e3e;fill-opacity:1;fill-rule:nonzero;stroke:none"
       id="rect3029"
       width="1024"
       height="1024"
       x="0"
       y="0" />
  </g>
  <g
     inkscape:groupmode="layer"
     id="layer2"
     inkscape:label="foreground">
    <path
       d="m 911.54,50.2 c 6.96,-1.22 13.84,-2.94 20.6,-5 4.74,6.62 8.94,13.6 13.72,20.2 -6.32,5.54 -10.78,15.86 -20.44,15.24 -10.96,13.94 -21.52,28.2 -32.32,42.26 -7.06,5.2 -15.08,8.9 -22.52,13.5 -12.48,6.58 -24.14,14.86 -37.7,19.14 -13.48,5.4 -27.58,9.38 -40.36,16.38 0,1.42 0.02,4.24 0.02,5.66 -9.84,5.46 -19.56,11.2 -29.1,17.2 -1.26,-0.06 -3.76,-0.18 -5.02,-0.24 -26.18,16.72 -52.82,32.72 -79.08,49.3 0.06,1.28 0.16,3.86 0.22,5.14 -3.76,2.4 -7.48,4.86 -11.24,7.26 0.3,1.44 0.9,4.28 1.2,5.7 -2.68,1.06 -5.34,2.1 -8,3.18 -6.08,-5.48 -12.38,-11.04 -16.16,-18.44 -5.7,-10.86 -13.34,-20.94 -16.32,-33.02 2.72,-3.38 7.06,-1.04 10.68,-1.36 4.34,-1.74 8.24,-4.36 12.3,-6.7 0.8,0.96 2.38,2.88 3.18,3.84 26.28,-16.96 52.86,-33.52 78.86,-50.9 0.98,-2.26 1.6,-4.94 3.92,-6.26 8.18,-5.78 16.64,-11.18 24.48,-17.46 1.28,0.58 3.84,1.72 5.12,2.3 14.46,-13.3 28.66,-26.9 43.36,-39.92 10.14,-7.26 20.96,-13.56 31.32,-20.5 6.4,-3.92 12.34,-9 19.82,-10.7 16.44,-3.74 32.9,-7.46 49.48,-10.6 0,-1.3 -0.02,-3.9 -0.02,-5.2 z"
       id="path6"
       inkscape:connector-curvature="0"
       style="fill:#f5e5c1" />
    <path
       d="m 613,229.3 c -11.1,5.02 -20.69,12.69 -30.95,19.15 -78.9,51.16 -157.55,102.75 -236.55,153.75 46.98,10.58 94.03,20.89 141.05,31.25 8.28,1.84 16.31,4.59 24.55,6.65 38.14,8.62 76.07,18.29 114.15,27.25 l -3,1.25 c 13.64,-0.02 26.59,4.75 39.75,7.75 120.74,28.88 241.28,58.39 362,87.35 l 0,-56 c -24.62,-3.34 -48.88,-8.73 -73.4,-12.65 -137.28,-24.08 -274.5,-48.49 -411.8,-72.55 -1.50458,-0.39165 -3.08011,-0.74662 -4.65,-1.1 l -1.35,-0.3 c -1.13442,-0.2615 -2.27936,-0.54272 -3.4,-0.85 l -24.6,-6 -0.05,-0.05 c -5.93274,-1.0836 -11.78869,-2.75365 -17.65,-4.05 -28.36,-6.46 -56.87,-12.23 -85.05,-19.35 62.64,-46.78 124.69,-94.42 187.15,-141.5 8.1,-6.44 17.3,-11.76 23.8,-20 z m -0.15,6.25 c -61.24,52.32 -122.73,104.34 -183.75,156.9 23.84901,5.26334 48.01341,9.25134 71.7,15.2 l 35.6,6.6 C 698.90774,440.64992 861.53261,466.27826 1024,493 l 0,-22.9 c -15.74,-3.82 -32.1,-4.3 -48,-7.3 -29.8,-5.08 -60.03,-7.96 -89.45,-15 C 762.71,428 638.68,409.13 514.4,392.15 c -16.84,-4.46 -33.51,-9.58 -50.05,-15.1 51.18,-44.46 102.29,-89.03 153.15,-133.85 -1.56,-2.54 -3.13,-5.11 -4.65,-7.65 z"
       id="path8"
       style="fill:#f4722b"
       inkscape:connector-curvature="0" />
    <path
       d="m 523.84,347.84 c 32.38,-32.96 64.38,-66.26 97.18,-98.8 2.56,5 5.2,9.94 7.98,14.82 -32.82,30.76 -65.8,61.36 -98.12,92.62 52.94,6.8 106.2,10.94 159.28,16.6 C 801.42,384.6 912.8,395 1024,407.04 l 0,60.76 c -40.3,-7.16 -80.42,-15.72 -121,-21.34 -40.44,-5.92 -80.56,-14 -120.92,-20.6 -90.16,-15.8 -180.32,-31.72 -270.48,-47.5 -4.42,-0.96 -8.66,-2.58 -12.88,-4.16 7.66,-9.44 16.7,-17.62 25.12,-26.36 z"
       id="path10"
       inkscape:connector-curvature="0"
       style="fill:#f4722b" />
    <path
       d="m 564.08,333.96 c 22.44,-22.2 45.64,-43.64 68.06,-65.88 1.74,1.56 3.46,3.1 5.2,4.66 -26.88,23.4 -53.94,46.6 -80.66,70.18 27.88,1.46 55.68,-1.88 83.54,-2.4 17.88,-1.96 35.9,-0.94 53.8,-2.68 14.62,-1.28 29.34,-0.48 43.96,-1.86 14.66,-1.4 29.44,-0.62 44.1,-2 14.56,-1.3 29.2,-0.58 43.74,-1.92 13.44,-1.34 26.98,-0.68 40.44,-1.84 19.08,-1.98 38.36,-0.48 57.44,-2.7 33.44,-1.28 66.86,-2.94 100.3,-4.64 l 0,23.88 c -60.68,0.1 -121.34,0.3 -182.02,0.6 -24.66,0.06 -49.34,-0.36 -73.98,1.1 -39.32,0.24 -78.66,-0.04 -117.98,0.32 -13.64,0.22 -27.32,-0.38 -40.9,1.1 14.22,1.86 28.58,0.66 42.86,1.58 27.92,2.04 55.94,1.02 83.88,2.26 26.04,1.9 52.16,0.64 78.24,2.02 23.24,1.68 46.58,0.8 69.84,1.78 31.96,2.38 64.06,0.5 96,3 14.68,0.4 29.38,0.4 44.06,0.78 l 0,26.22 c -127.74,-7.28 -255.34,-17.18 -382.9,-27.44 -14.4,-1.24 -28.98,-2.64 -42.74,-7.36 -16.26,-6.38 -33.98,-1.38 -50.84,-4.3 5.28,-5.1 11.26,-9.38 16.56,-14.46 z"
       id="path12"
       inkscape:connector-curvature="0"
       style="fill:#f4722b" />
    <path
       d="m 56.22,531.98 c 6.42,-1.76 13.22,-0.42 19.78,-0.28 5.26,1 10.62,1.1 15.96,1.32 1.06,2.08 2.3,4.04 3.74,5.88 14.18,1.72 28.16,-2.08 42.3,-2.32 11.2,-1.96 22.62,-1.16 33.82,-2.84 7.38,-0.76 15.06,-2.16 22.26,0.48 1.94,0.4 3.9,0.82 5.86,1.22 5,2.42 10.36,3.88 15.74,5.2 12.72,4.74 25.78,8.48 38.6,12.94 6.04,1.86 12.06,3.84 18.06,5.84 26.06,12.36 51.68,25.74 77.32,38.94 3.6,0.94 7.14,2.08 10.8,2.8 1.92,-1.56 3.76,-3.2 5.54,-4.92 11.9,1.02 22.64,6.62 34.1,9.46 2.02,0.56 4.06,1.14 6.12,1.72 2.44,1 4.92,1.98 7.4,2.96 5.72,-0.6 8.94,3.76 12.54,7.3 8.92,3.78 18.84,4.68 27.74,8.6 11.62,2.32 22.88,6.16 34.24,9.5 11.98,3.32 23.98,6.7 35.96,10.12 2,0.58 4.02,1.14 6.06,1.68 4.6,1.4 9.18,2.9 13.72,4.48 8.16,1.66 16.24,3.84 24.06,6.76 4.6,0.64 10.64,1.64 12.34,-4.14 8.6,1.92 17.16,4.38 26.04,4.6 0.28,-1.66 0.84,-4.98 1.12,-6.62 3.48,1.22 6.98,2.44 10.54,3.44 2.66,1.72 3.86,4.66 3.52,7.8 -0.04,8.1 0.2,16.28 -1.04,24.28 -3.38,12.92 -8.54,25.26 -12.42,38.02 -3.06,11.32 -8.24,22.16 -15.52,31.38 -1.24,-0.74 -3.68,-2.26 -4.9,-3.02 -2.56,-3.86 -4.22,-9.02 -8.82,-10.94 -6.64,-2.58 -13.52,-4.42 -20.24,-6.78 0.32,-2.6 0.64,-5.2 0.96,-7.78 -5.86,-1.86 -11.76,-3.56 -17.54,-5.62 -2.04,-0.3 -4.06,-0.6 -6.1,-0.88 -5.1,-2.06 -10.44,-3.46 -15.88,-4.38 -4.62,-1.62 -9.34,-3.04 -14.16,-3.9 -4.66,-1.36 -9.32,-2.74 -14.04,-3.88 -3.26,-0.96 -6.52,-1.86 -9.76,-2.88 -2.08,-0.38 -4.14,-0.74 -6.2,-1.08 -5.16,-1.62 -10.36,-3.16 -15.52,-4.74 -14.98,-3.44 -29.76,-7.58 -44.52,-11.84 -3.04,-0.94 -6.24,-1 -9.4,-1.16 -4.74,4.32 -11.04,1.72 -16.46,0.62 -7.92,-2.04 -15.84,-4.06 -23.84,-5.76 -7.02,-1.1 -13.92,-2.82 -20.74,-4.76 -0.1,-2.52 -0.22,-5.02 -0.32,-7.54 -5.02,-0.26 -10.06,-0.54 -14.98,-1.6 -7.3,-0.62 -14.64,-0.74 -21.92,-1.32 -7.3,-2.02 -15.02,-0.64 -22.28,-2.64 -13.54,-0.66 -27.02,-2 -40.5,-3.3 -17.88,-4.7 -35.76,-9.46 -53.64,-14.16 -7.24,-1.9 -14.46,-3.84 -21.52,-6.36 -18.36,-2.02 -30.86,-17.08 -46.06,-25.86 -2.54,-2.12 -5.12,-4.14 -7.76,-6.08 -12.14,-7.62 -23.24,-16.76 -34.66,-25.38 -1.92,1.82 -3.84,3.68 -5.74,5.58 -10.4,-4.9 -18.5,-13.66 -29.24,-18.12 0.72,-13.8 7,-26.54 9.48,-40.04 z"
       id="path20"
       inkscape:connector-curvature="0"
       style="fill:#f5e5c1" />
    <path
       d="m 413.36,584.28 c 35.04,3.52 69.8,9.38 104.74,13.72 168.64,22.9 337.24,45.9 505.9,68.68 l 0,25.94 C 841.4,662.7 658.68,633.58 476.06,603.86 c -12.48,-2.06 -25.56,-2.9 -36.82,-9.24 -8.14,-4.58 -16.8,-8.12 -25.88,-10.34 z"
       id="path22"
       inkscape:connector-curvature="0"
       style="fill:#995834" />
    <path
       d="m 522.84,620.22 c 11.82,0.54 23.32,3.52 35,5.28 13.46,2.68 27.34,3.56 40.46,7.8 -4.14,-0.5 -8.24,-1.26 -12.3,-2.16 -8.06,-2.14 -16.26,1.88 -24.38,-0.14 -13.14,-2.74 -25.64,-7.92 -38.78,-10.78 z"
       id="path24"
       inkscape:connector-curvature="0"
       style="fill:#995834" />
    <path
       d="m 636.64,638.76 c 129.08,22.14 258.28,43.78 387.36,65.96 l 0,36.18 C 898.28,714.84 772.4,689.56 646.64,663.68 c -2.28,-8.7 -5.58,-17.1 -10,-24.92 z"
       id="path26"
       inkscape:connector-curvature="0"
       style="fill:#995834" />
    <path
       d="m 645.86,669.22 c 126.06,25.4 252.16,50.74 378.14,76.5 l 0,26.96 c -126.34,-30.9 -252.8,-61.4 -379.18,-92.2 0.32,-3.76 0.68,-7.52 1.04,-11.26 z"
       id="path28"
       inkscape:connector-curvature="0"
       style="fill:#f4722b" />
    <path
       d="m 645.98,686.26 c 125.98,35.12 252.14,69.64 378.02,105.1 l 0,28.02 C 896.72,778.88 769.26,738.9 641.82,698.9 c 1.4,-4.22 2.78,-8.42 4.16,-12.64 z"
       id="path30"
       inkscape:connector-curvature="0"
       style="fill:#f4722b" />
    <path
       d="m 275.02,690.24 c 13.52,-0.38 27.02,1 40.42,2.58 6.64,0.7 12.6,3.84 18.3,7.1 7.32,4.32 16.1,3.84 24.04,6.26 10.32,3.02 19.94,7.9 29.66,12.42 212.12,98.9 424.54,197.2 636.56,296.28 l 0,9.12 -49.78,0 C 910.82,992.9 846.8,963.1 783.12,932.58 613.8,851.7 444.24,771.3 275.02,690.24 z"
       id="path32"
       inkscape:connector-curvature="0"
       style="fill:#995834" />
    <path
       d="m 383.48,713.8 c 11.62,0.92 23.66,-2.22 34.88,1.94 18.22,5.9 37.52,8.66 54.84,17.16 183.64,83.94 367.2,168 550.8,251.98 l 0,21.86 c -19.6,-9.5 -39.62,-18.1 -59.36,-27.3 C 815.82,911.58 667.04,843.66 518.22,775.76 473.4,754.92 428,735.28 383.48,713.8 z"
       id="path34"
       inkscape:connector-curvature="0"
       style="fill:#995834" />
    <path
       d="m 634.42,719.16 c 1.08,-1.64 2.16,-3.28 3.26,-4.9 10.28,5.08 20.62,10.08 30.82,15.36 -11.56,-2.82 -22.76,-6.86 -34.08,-10.46 z"
       id="path36"
       inkscape:connector-curvature="0"
       style="fill:#f4722b" />
    <path
       d="m 673.44,731.98 c 32.9,9.52 65.36,20.52 98.08,30.62 84.16,26.7 168.44,53.02 252.48,80.02 l 0,44.76 C 968.68,866.26 913.44,844.92 857.82,824.6 c 55.36,27.96 111,55.34 166.18,83.62 l 0,2.14 C 968.64,888.06 912.92,866.6 857.42,844.62 779.36,814.02 701.44,783.06 623.28,752.7 c 2.14,-5 4.62,-9.86 7.24,-14.64 38.92,14.98 78,29.48 116.94,44.4 33.84,12.4 67.2,26.12 101.26,37.84 -58.2,-29.86 -116.96,-58.66 -175.28,-88.32 z"
       id="path38"
       inkscape:connector-curvature="0"
       style="fill:#f4722b" />
    <path
       d="m 604.84,776.66 c 5.88,-5.14 10.98,-11.1 15.04,-17.76 134.74,54.54 269.58,108.88 404.12,163.9 l 0,45.14 C 884.42,903.88 744.56,840.44 604.84,776.66 z"
       id="path40"
       inkscape:connector-curvature="0"
       style="fill:#f4722b" />
  </g>
</svg>
