<?xml version="1.0" encoding="UTF-8" standalone="no"?>
<svg
   xmlns:dc="http://purl.org/dc/elements/1.1/"
   xmlns:cc="http://creativecommons.org/ns#"
   xmlns:rdf="http://www.w3.org/1999/02/22-rdf-syntax-ns#"
   xmlns:svg="http://www.w3.org/2000/svg"
   xmlns="http://www.w3.org/2000/svg"
   xmlns:sodipodi="http://sodipodi.sourceforge.net/DTD/sodipodi-0.dtd"
   xmlns:inkscape="http://www.inkscape.org/namespaces/inkscape"
   width="1280"
   height="1280"
   viewBox="0 0 1024 1024"
   version="1.1"
   id="svg2"
   inkscape:version="0.48.1 "
   sodipodi:docname="rj_equalizer_kill.svg">
  <metadata
     id="metadata58">
    <rdf:RDF>
      <cc:Work
         rdf:about="">
        <dc:format>image/svg+xml</dc:format>
        <dc:type
           rdf:resource="http://purl.org/dc/dcmitype/StillImage" />
      </cc:Work>
    </rdf:RDF>
  </metadata>
  <defs
     id="defs56" />
  <sodipodi:namedview
     pagecolor="#ffffff"
     bordercolor="#666666"
     borderopacity="1"
     objecttolerance="10"
     gridtolerance="10"
     guidetolerance="10"
     inkscape:pageopacity="0"
     inkscape:pageshadow="2"
     inkscape:window-width="1920"
     inkscape:window-height="1018"
     id="namedview54"
     showgrid="false"
     fit-margin-top="0"
     fit-margin-left="0"
     fit-margin-right="0"
     fit-margin-bottom="0"
     inkscape:zoom="0.48125"
     inkscape:cx="284.92302"
     inkscape:cy="723.15666"
     inkscape:window-x="-8"
     inkscape:window-y="-8"
     inkscape:window-maximized="1"
     inkscape:current-layer="layer1"
     inkscape:snap-page="true" />
  <g
     inkscape:groupmode="layer"
     id="layer1"
     inkscape:label="background">
    <rect
       style="fill:#3e3e3e;fill-opacity:1;fill-rule:nonzero;stroke:none"
       id="rect2988"
       width="1280"
       height="1280"
       x="0"
       y="0"
       transform="scale(0.8,0.8)" />
  </g>
  <g
     inkscape:groupmode="layer"
     id="layer2"
     inkscape:label="foreground">
    <path
       d="m 610.32,35.98 c 4.38,-6.46 7.72,-13.5 11.12,-20.5 -0.18,21.8 -0.8,43.64 -2.06,65.42 -0.74,25.66 -0.54,51.34 -1.76,77 -0.06,26.76 -2.32,53.46 -2.56,80.2 50.12,-23.88 100.9,-46.42 151.14,-70.08 -6.8,12.78 -16.38,23.8 -24.34,35.84 -12.46,18.12 -25.64,35.7 -37.88,53.96 36.6,23.54 74.5,45.12 110.82,69.08 -27.74,5.56 -55.48,11.22 -83.24,16.56 -5.38,-1.02 -8.7,-6.88 -12.88,-10.18 -26.14,2.48 -52.32,4.68 -78.5,6.92 -7.9,0.54 -15.78,2.28 -23.72,1.8 -8.64,-16.48 -13.12,-34.72 -21.16,-51.48 -4.14,-10.46 -6.82,-21.54 -12.48,-31.38 -19.06,15.52 -38.94,30.04 -58.46,44.98 -16.24,-17.74 -31.82,-36.1 -48.2,-53.72 -3.02,9.1 -7.48,17.58 -12.08,25.94 -7.24,16.6 -16.12,32.36 -23.4,48.92 -31.44,4.08 -63.04,6.94 -94.48,10.98 -8.04,0.88 -16.38,2.42 -24.3,0 -23.72,-7.1 -47.54,-13.8 -71.3,-20.78 31.72,-17.22 62.88,-35.5 94.24,-53.38 -1.66,-5.72 -3.06,-11.52 -4.28,-17.34 -3.32,-15.2 -9.48,-29.62 -12.46,-44.9 -3,-15.6 -9.34,-30.34 -12.5,-45.92 -3.04,-16.24 -9.84,-31.48 -12.98,-47.7 -2.72,-13.98 -7.88,-27.32 -11.58,-41.06 2.46,1.42 4.94,2.82 7.3,4.4 41.6,30.34 83.38,60.42 125.04,90.7 5.24,3.66 10.36,7.5 15.22,11.66 2.8,-33.3 1.56,-66.78 3.04,-100.16 27.44,39.04 53.88,78.84 81.4,117.8 29.7,-50.82 58.16,-102.42 87.28,-153.58 z"
       id="path6"
       inkscape:connector-curvature="0"
       style="fill:#f5722c" />
    <path
       style="fill:#f5e5c1"
       d="m 166.05,332.7 c -4.64,1.5 -9.02,3.63 -13.6,5.35 6.12,25.18 14.96,49.59 21.9,74.55 4.3,8.82 12.03,15.38 17.95,23.1 4.88,6.4 12.57,11.76 12.95,20.5 -12.76,-10.32 -22.79,-23.52 -34.55,-34.9 -15.64,-2.56 -30.82,-8.06 -46.7,-8.9 -3.88,4.34 -14.64,7.08 -10.6,14.6 13.3,23.8 26.58,47.59 39.8,71.45 2.26,4.26 5.52,7.89 9.4,10.75 10.62,8.16 21.6,15.94 31.6,24.9 10.16,-4.16 18.32,-11.74 27.8,-17.1 -2.76,9 -10.4,15.16 -15.5,22.8 -0.42,12.18 0.55,24.37 -0.45,36.55 -0.4,-1.58 -1.15,-4.72 -1.55,-6.3 -4.78,-11.16 -5.15,-23.59 -9.35,-34.95 -15.06,-7.96 -29.07,-17.71 -43.45,-26.75 -2.76,-2.06 -6.3,-1.57 -9.5,-1.65 -13.16,0.26 -26.36,0.45 -39.5,0.45 -4.56,4.7 -8.89,9.64 -12.25,15.3 9.78,9.26 18.86,19.24 27.8,29.3 9.98,10.7 20.56,20.86 30,32.1 6.18,7.62 15.97,10.44 24.05,15.5 -4.12,-1.12 -8.22,-2.15 -12.4,-2.95 -9.34,-1.64 -18.38,-5.18 -27.9,-5.6 -13.62,4.34 -26.33,11.35 -40.15,15.25 -2.32,5.8 -4.57,11.66 -5.45,17.9 26.36,11.88 51.64,26.22 77.9,38.3 8.44,2.06 17.27,0.97 25.85,0.25 -4.82,0.68 -9.65,1.78 -13.85,4.4 -9.58,0.36 -19.05,2.12 -28.65,2.2 -9.76,8.56 -20.36,16.04 -30.6,24 -6.7,4.82 -3.35,14.2 -4.05,21.2 8.44,0.48 16.78,2.13 25,4.05 18.96,3.12 37.75,7.11 56.65,10.55 8.76,1.48 17.32,-1.5 26,-2 -7.38,3.24 -15.36,5.04 -22.4,9 -8.94,11 -16.93,22.86 -25.75,34 0.84,5.26 1.97,10.49 2.85,15.75 18,0.76 35.78,-2.14 53.7,-3 9.96,-0.78 20.75,-3.83 30.35,-0.25 -17.08,4.86 -33.72,11.26 -50.4,17.4 -6.02,6.5 -10.65,14.27 -16.25,21.15 -4.08,4.5 -1.47,10.93 -1.45,16.25 21.2,-0.06 42.14,-3.85 63.3,-4.45 -6.5,8.5 -15.36,14.69 -22.9,22.15 -3.48,11.52 -6,23.36 -8.7,35.1 -1.64,6.18 4.41,10.58 6.95,15.6 3.46,-0.66 6.76,-1.91 9.8,-3.65 13.06,-7.18 26.29,-13.99 39.45,-20.95 6.72,-3.54 13.04,-8.26 20.8,-9.3 -3.08,6.86 -8.19,12.77 -10.35,20.05 1.56,9.56 1.05,19.25 2.05,28.85 2.34,4.08 6.72,6.39 10.3,9.25 6.6,-6.68 13.29,-13.25 19.55,-20.25 5.22,-6 11.89,-10.64 16.35,-17.3 -2.88,5.24 -6.13,10.27 -8.55,15.75 -1.44,10.8 1.79,21.53 1.85,32.35 3.48,2.14 6.35,6.74 10.65,6.7 11.3,-10 20.08,-22.83 32.2,-31.95 -0.98,4.62 -3.36,8.74 -5.3,13 -0.96,8.58 0.29,17.23 0.35,25.85 -0.86,7.04 5.97,13.54 12.85,13.4 11.06,-13.78 24.89,-25.1 35.95,-38.9 -1.58,2.22 -3.24,4.42 -4.9,6.6 0.04,9.18 -0.14,18.41 1,27.55 0.5,4.5 4.48,7.17 7.4,10.15 0.76,0.02 2.24,0 3,0 7.14,-9.06 16.01,-16.53 23.65,-25.15 0.66,-0.26 1.99,-0.79 2.65,-1.05 0.16,5.22 0.02,10.45 0.7,15.65 1.34,4.54 6.14,6.87 10.5,7.65 8.44,-11.06 19.44,-19.77 28.3,-30.45 0.64,-0.22 1.91,-0.71 2.55,-0.95 0.94,5.4 2.97,12.02 9.05,13.4 11.16,1.78 23.2,2.01 33.9,-2.05 3.44,-3.76 4.43,-9.67 9.65,-11.75 9.34,11.9 21.25,21.4 31.05,32.9 2.84,-2.22 5.69,-4.42 8.55,-6.6 0.24,-6.18 0.93,-12.33 2.35,-18.35 8.36,9.66 17.51,18.63 26.55,27.65 2.9,-2.6 5.81,-5.21 8.75,-7.75 0.5,-8.88 0,-17.88 2,-26.6 -1.58,-2.38 -3.17,-4.71 -4.75,-7.05 13.68,10.06 23.54,24.2 36.3,35.3 4.46,-0.22 7.48,-4 10.9,-6.4 0.12,-4.46 0.25,-8.96 0.35,-13.4 l 1.15,-1.55 c 0.2,-6.1 0.46,-12.2 0.4,-18.3 -3.68,-4.9 -6.46,-10.37 -8.9,-15.95 11.66,11.5 23.66,22.82 34.2,35.4 6.36,-1.18 12.67,-6.42 12.35,-13.4 0.24,-11.92 2.62,-24.24 -2.3,-35.6 10.22,10 20.01,20.44 29.85,30.8 4.46,-0.78 7.79,-4.6 10.45,-8 0.98,-10.48 2.32,-20.96 2.5,-31.5 -3.74,-5.8 -7.36,-11.73 -9.7,-18.25 8.98,2.38 16.57,7.9 24.85,11.9 12.94,7.18 26.28,13.71 39.2,20.95 1.84,1.1 4.09,0.45 6.15,0.65 2.1,-3.76 4.57,-7.3 7.35,-10.6 -2.64,-12.82 -6.76,-25.31 -8.7,-38.25 -7.94,-8.08 -16.75,-15.22 -24.85,-23.1 8.92,-0.9 17.64,1.41 26.5,1.85 12.84,0.02 25.44,3.38 38.3,2 0.02,-5.2 2.37,-11.33 -1.75,-15.55 -5.6,-7.14 -10.85,-14.5 -16.35,-21.7 -15.26,-4.7 -29.85,-11.36 -45.35,-15.3 1.28,-1.24 2.53,-2.5 3.85,-3.7 24.64,2.94 49.43,4.44 74.15,6.7 1.32,-6.26 4.06,-12.96 2,-19.3 -8.06,-11.06 -16.58,-21.79 -24.4,-33.05 -3.72,-1.06 -7.47,-1.94 -11.25,-2.7 -0.02,-0.7 -0.05,-2.1 -0.05,-2.8 -3.72,-0.38 -7.42,-0.88 -10.8,-2.5 -1.36,-0.08 -4.09,-0.22 -5.45,-0.3 1.3,-1.22 2.57,-2.43 3.85,-3.65 -0.04,0.62 -0.14,1.83 -0.2,2.45 4.38,0.94 8.8,1.65 13.2,2.55 8.18,2.44 16.67,0.8 24.75,-1.2 23.78,-4.26 47.49,-8.96 71.25,-13.3 -0.1,-5.92 -0.34,-11.88 -0.6,-17.8 -11.42,-8.76 -22.99,-17.33 -34.05,-26.55 -15.22,-1.36 -30.5,-1.88 -45.7,-3.4 12.44,-1.32 25.83,-0.59 37.05,-6.95 23.58,-12.22 47.65,-23.43 70.95,-36.15 -2.28,-5.58 -4.41,-11.21 -6.75,-16.75 -7.02,-2.06 -13.82,-4.86 -20.6,-7.6 -5.52,-2.18 -11.04,-4.36 -16.2,-7.3 -14.26,0.02 -28.04,4.94 -41.8,8.2 1.82,-1.32 3.63,-2.6 5.45,-3.9 5.7,-2.56 11.62,-5.26 15.7,-10.2 19.3,-20.68 38.78,-41.16 57.9,-62 0.78,-6.76 -7.7,-10.46 -10.8,-15.9 -12.72,-0.12 -25.43,-0.22 -38.15,-0.5 -3.74,0.12 -7.9,-0.66 -11.1,1.8 -14.56,8.94 -28.54,18.9 -43.6,27 -3.8,13.48 -6.06,27.36 -10.1,40.8 -0.84,-12 -0.17,-24.08 -0.45,-36.1 -6.34,-7.74 -12.18,-15.87 -18.2,-23.85 10.04,4.14 17.72,12.22 27.5,16.8 1.04,-0.02 3.16,-0.03 4.2,-0.05 9.56,-8.84 20.1,-16.44 30.5,-24.3 3.98,-2.86 7.01,-6.83 9.25,-11.15 10.34,-18.92 21.12,-37.61 31.4,-56.55 3.54,-6.4 7.78,-12.42 10.1,-19.4 -4.5,-3 -8.75,-6.39 -13.45,-9.05 -10.28,-0.36 -20.02,3.7 -30.1,5.2 -5.08,1.34 -10.27,2.5 -15.45,3.4 -10.82,11.04 -21.97,21.76 -32.05,33.5 -1.3,-0.02 -2.59,-0.03 -3.85,-0.05 7.74,-14.98 21.34,-25.8 30.8,-39.6 8.24,-25.12 15.05,-50.81 23.65,-75.85 -6.26,-2.72 -13.22,-9.33 -20.1,-4.55 -9.86,5.18 -20.53,8.81 -30.15,14.35 -19.22,29.02 -36.42,59.41 -55.5,88.55 -12.76,17.68 -26.75,34.46 -40.45,51.4 0.74,-12.92 2.1,-25.88 4.6,-38.6 -0.94,0.2 -2.84,0.57 -3.8,0.75 -4.88,10.86 -10.94,21.16 -16.3,31.8 -14.48,26.84 -27.84,54.35 -43.3,80.65 -3.98,25.14 -7.18,50.48 -10.8,75.7 -5.94,41.36 -8.24,83.09 -10.8,124.75 -37.1,20.6 -73.35,42.71 -109.95,64.15 -2.68,1.24 -5.72,3.82 -8.8,2.3 -0.92,-20.14 1.05,-40.26 0.95,-60.4 0.52,-62.72 2.6,-125.38 2.8,-188.1 1.26,-19.28 1.16,-38.63 1.3,-57.95 -0.62,-7.36 4.34,-13.42 6.1,-20.3 -2.14,-0.74 -4.31,-1.51 -6.45,-2.25 0.02,-23.42 -0.17,-46.8 0.15,-70.2 2.5,-1.84 4.97,-3.71 7.45,-5.55 -0.78,-8.8 4.81,-15.97 8.95,-23.15 2.16,-5.12 8.63,-3.2 12.95,-4.4 29.94,-2.42 59.94,-4.49 90,-4.75 27.28,0.04 54.77,-2.57 81.85,1.65 -4.1,-11.26 -15.5,-16.7 -25.7,-21.2 -21.94,-4.32 -43.72,-10.01 -66.2,-10.75 -32.92,-3.38 -66.04,-3.71 -99,-6.55 0.34,-1.74 1.06,-5.21 1.4,-6.95 -13.46,-5.12 -28.01,-4.29 -42.15,-4.65 -10.7,0.38 -21.31,2.1 -31.85,4 1.12,1.86 2.21,3.72 3.35,5.6 -9.22,2.12 -18.51,3.78 -27.75,5.8 -5.92,-2.44 -11.61,-5.56 -17.85,-7.1 -8.72,-0.6 -17.37,0.64 -26.05,1.1 -17.66,0.56 -35.39,0.44 -53.05,1.3 -24.38,3.48 -48.63,7.42 -72.95,11.2 1.12,2.48 2.24,4.95 3.4,7.45 5,0.94 9.96,2.05 14.9,3.25 -3.44,1.08 -6.91,2.09 -10.35,3.15 4.1,5.34 6.9,12.92 14.2,14.5 6.38,2.56 13.33,2.45 20.05,1.65 16.56,-1.96 33.2,-3.45 49.7,-5.95 21.18,-3.88 42.74,-0.54 64.1,-0.3 10.18,-0.2 19.94,3.72 28.6,8.8 4.12,4.3 7.8,9.16 10.5,14.5 0.82,3.88 0.96,7.85 1.7,11.75 1.9,2.82 5.36,4.25 8,6.35 -0.14,23.22 -0.57,46.43 -1.05,69.65 -1.58,1.26 -3.19,2.52 -4.75,3.8 0.44,2.7 0.94,5.43 1.4,8.15 1.1,0.46 3.25,1.37 4.35,1.85 0.46,46.16 1.04,92.37 1,138.55 1.34,56.24 1.06,112.49 1.8,168.75 -3.06,1.3 -3.92,4.31 -4.7,7.25 C 475.59,820.07 459.54,811.36 443.9,802 422.28,789.44 400.98,776.32 379,764.4 c -2.4,-22.04 -3.14,-44.24 -5.3,-66.3 -2.56,-42.98 -10.63,-85.33 -15.65,-128.05 -0.42,-8.42 -6.62,-14.51 -10.2,-21.65 -17.02,-32.58 -34.31,-65.06 -51.25,-97.7 -0.84,0 -2.56,0.05 -3.4,0.05 2.7,12.28 3.83,24.89 4.35,37.45 -14.22,-17.12 -28.45,-34.26 -41.35,-52.4 -17.64,-27.9 -34.74,-56.18 -52.2,-84.2 -2.62,-4.34 -8,-5.36 -12.2,-7.6 -8.66,-3.56 -16.85,-8.4 -25.75,-11.3 z M 779.15,489 c 5.46,7.24 9.3,15.52 13.9,23.3 -11.58,10.76 -23.64,21.2 -36.1,31 7.3,-8.68 14.76,-17.28 21.9,-26.1 1.56,-9.2 -0.78,-18.86 0.3,-28.2 z m -523.05,1.15 1.25,0.3 c 0.54,8.72 -0.26,17.48 -0.4,26.2 8.3,8.4 15.31,17.91 23.25,26.65 -11.86,-9.38 -23.52,-19.02 -34.7,-29.2 -1.9,-1.66 -0.34,-4.2 0.6,-5.9 3.66,-5.86 6.52,-12.09 10,-18.05 z m 550.8,98.4 c -2.38,5.74 -2.32,13.25 -7.1,17.45 -11.74,4.56 -23.47,9.43 -35.55,13.05 6.98,-6.3 15.33,-10.74 23.45,-15.4 7.16,-4 13.06,-9.74 19.2,-15.1 z m -576.55,1 c 12,10.74 26.08,18.45 39.9,26.55 0.3,0.78 0.88,2.37 1.2,3.15 -11.94,-4.38 -23.58,-9.59 -35.8,-13.15 -2.16,-5.38 -4.04,-10.87 -5.3,-16.55 z m -22.25,53.25 3.15,1.75 c 11.72,5.84 21.45,15.93 34.75,18.25 14.24,3.14 28.36,6.59 42.6,9.75 -17.86,1.72 -35.64,-1.62 -53.4,-3 -1.12,-0.04 -3.36,-0.11 -4.5,-0.15 l 1,-2.25 c -7.64,-8.34 -17.18,-14.95 -23.6,-24.35 z m 619.75,0.05 c -0.34,0.86 -1.01,2.59 -1.35,3.45 -6.96,6.46 -13.73,13.1 -20.45,19.8 -3.92,4.7 -10.55,4.01 -16.05,4.65 -11.82,0.04 -23.46,3.66 -35.3,1.7 14.62,-6.96 31.49,-6.67 46.35,-12.95 9.2,-5.08 17.84,-11.15 26.8,-16.65 z M 271.4,687.8 c 9.88,11.76 23.41,19.28 34.75,29.4 -12.9,-2.34 -24.1,-10 -36.8,-13.2 0.48,-5.42 1.27,-10.82 2.05,-16.2 z m 492.9,0.4 c 0.6,0.78 1.8,2.32 2.4,3.1 0.1,4.26 0.26,8.52 0.3,12.8 -11.74,3.72 -22.87,8.98 -34.25,13.6 0.08,-0.9 0.22,-2.75 0.3,-3.65 11.18,-7.54 23.21,-14.75 31.25,-25.85 z m 47.8,28.6 c -10.5,6.88 -21.38,13.14 -31.9,20 -2.8,-0.3 -5.64,-0.64 -8.4,-1 -8.1,-0.14 -16.23,-0.18 -24.25,-1.4 9.5,-4.2 19.96,-2.82 29.9,-4.7 12.22,-2.44 21.99,-12.18 34.65,-12.9 z m -587.8,0.05 c 9.72,0.38 17.9,6.31 26.6,9.95 12.08,6.14 26.31,2.42 38.75,7.5 -9.82,1.56 -19.79,1.13 -29.65,2.15 -2.92,0.58 -5.43,-1.29 -7.85,-2.55 -9.36,-5.56 -18.43,-11.59 -27.85,-17.05 z m 491.5,41.45 c 7.44,0.56 14.94,0.31 22.3,1.65 l 2.5,2.45 c -13.52,4.34 -27.11,8.59 -40.65,12.95 4.6,-6.28 10.47,-11.47 15.85,-17.05 z m -401.2,0.25 c 2.13032,-0.0228 4.25,0.095 6.35,0.4 5.92,5.06 11.15,10.83 16.55,16.45 -14.18,-4 -27.98,-9.22 -42.2,-13.1 0.02,-0.7 0,-2.07 0,-2.75 6.40499,0.21 12.90906,-0.93157 19.3,-1 z m 468.95,18.55 c -2.32,3 -5.77,4.72 -9.25,6 -9.8,3.86 -18.72,9.5 -28.3,13.8 -8.06,1.18 -16.22,-0.92 -24.2,-1.9 0.4,-0.86 1.17,-2.56 1.55,-3.4 20.42,-3.32 39.72,-11.98 60.2,-14.5 z m -529.95,0.15 c 9.21584,-0.41522 17.7,4.1125 26.55,6.1 12.68,3.86 26,5.75 38.2,11.05 -8.72,1.32 -17.44,3.12 -26.3,2.8 -13.86,-5.72 -26.46,-14.14 -40.3,-19.8 0.62125,-0.0737 1.23562,-0.12232 1.85,-0.15 z m 466.65,48.55 c 1.98,8.9 3.91,17.82 5.45,26.8 -10,2.94 -19.35,8.67 -29.95,9.15 -3.58,-6.28 -7.81,-12.19 -12.65,-17.55 -0.04,-0.98 -0.11,-2.95 -0.15,-3.95 6.38,3.54 12.85,6.95 19.05,10.85 6.42,-8.18 12.05,-16.96 18.25,-25.3 z m -404.65,2.05 c 1.72,0.88 3.88,1.29 4.9,3.15 4.7,6.52 8.67,13.6 14.05,19.6 7.22,-2.88 13.34,-8.1 21,-9.9 -5.28,6.96 -9.6,14.83 -15.7,21.05 -10.18,-1 -19.36,-6.25 -29,-9.35 2.02,-8.08 3.93,-16.25 4.75,-24.55 z m 80.6,2.85 c 0.66,5.28 7.32,11.77 2.9,16.25 -8.6,-0.52 -17.07,-2.59 -25.75,-2.35 -0.24,-0.8 -0.76,-2.35 -1,-3.15 8.24,-2.9 15.95,-7.09 23.85,-10.75 z m 243.3,1.5 c 9.48,0.32 16.84,7.22 25.8,9.5 -0.26,0.7 -0.82,2.02 -1.1,2.7 -9.38,0.32 -18.58,1.87 -27.9,2.85 0.58,-5.12 1.84,-10.09 3.2,-15.05 z m 21.65,33.6 c -1,9.98 -4.08,19.55 -6,29.35 -8.74,1.86 -17.54,3.42 -26.1,6 -2.02,-5.66 -3.79,-11.43 -4.85,-17.35 7.3,1.46 14.45,3.66 21.65,5.6 4.78,-8.06 9.24,-16.38 15.3,-23.6 z M 375,866.6 c 0.74,0.32 2.21,0.9 2.95,1.2 4.44,7 8.27,14.4 13.05,21.2 7.32,-0.46 14,-4.26 21.3,-5.1 -1.08,5.74 -2.46,11.42 -3.9,17.1 -8.98,-2.2 -18.08,-3.72 -27,-6.1 -1.88,-9.48 -3.56,-19.04 -6.4,-28.3 z m 223.9,26.9 c 0.22,2.2 0.53,4.38 0.75,6.6 -6.28,2.42 -7.85,10.02 -11.35,15.1 l -3.2,0.15 c -2.38,-3.68 -4.63,-7.43 -6.55,-11.35 5.5,-1.44 10.95,-3.16 16.35,-5 1.32,-1.84 2.7,-3.66 4,-5.5 z m -161.5,1.25 c 6.06,4 12.25,7.88 19.65,8.9 -0.02,0.78 -0.06,2.32 -0.1,3.1 -1.82,2.92 -3.57,5.91 -5.25,8.95 -5.76,-1.46 -6.92,-8.2 -10.3,-12.3 -2.86,-1.22 -7.54,-6.49 -4,-8.65 z"
       id="path8"
       inkscape:connector-curvature="0" />
  </g>
</svg>
