<?xml version="1.0" encoding="UTF-8" standalone="no"?>
<svg
   xmlns:dc="http://purl.org/dc/elements/1.1/"
   xmlns:cc="http://creativecommons.org/ns#"
   xmlns:rdf="http://www.w3.org/1999/02/22-rdf-syntax-ns#"
   xmlns:svg="http://www.w3.org/2000/svg"
   xmlns="http://www.w3.org/2000/svg"
   xmlns:sodipodi="http://sodipodi.sourceforge.net/DTD/sodipodi-0.dtd"
   xmlns:inkscape="http://www.inkscape.org/namespaces/inkscape"
   width="1280"
   height="1280"
   viewBox="0 0 1024 1024"
   version="1.1"
   id="svg2"
   inkscape:version="0.48.1 "
   sodipodi:docname="shoot_mult_crits.svg">
  <metadata
     id="metadata54">
    <rdf:RDF>
      <cc:Work
         rdf:about="">
        <dc:format>image/svg+xml</dc:format>
        <dc:type
           rdf:resource="http://purl.org/dc/dcmitype/StillImage" />
      </cc:Work>
    </rdf:RDF>
  </metadata>
  <defs
     id="defs52" />
  <sodipodi:namedview
     pagecolor="#ffffff"
     bordercolor="#666666"
     borderopacity="1"
     objecttolerance="10"
     gridtolerance="10"
     guidetolerance="10"
     inkscape:pageopacity="0"
     inkscape:pageshadow="2"
     inkscape:window-width="1920"
     inkscape:window-height="1018"
     id="namedview50"
     showgrid="false"
     inkscape:snap-page="true"
     fit-margin-top="0"
     fit-margin-left="0"
     fit-margin-right="0"
     fit-margin-bottom="0"
     inkscape:zoom="0.6609375"
     inkscape:cx="466.00473"
     inkscape:cy="640"
     inkscape:window-x="-8"
     inkscape:window-y="-8"
     inkscape:window-maximized="1"
     inkscape:current-layer="layer1" />
  <g
     inkscape:groupmode="layer"
     id="layer1"
     inkscape:label="background">
    <rect
       style="fill:#3e3e3e;fill-opacity:1;fill-rule:nonzero;stroke:none"
       id="rect3031"
       width="1024"
       height="1024"
       x="0"
       y="0" />
  </g>
  <g
     inkscape:groupmode="layer"
     id="layer2"
     inkscape:label="foreground">
    <path
       d="m 926.86,0 8.16,0 C 926.2,15.84 924.78,34.2 920.9,51.58 903.44,139.18 885.72,226.74 868.44,314.4 920.28,302.76 972.22,291.5 1024,279.58 l 0,45.86 C 952.02,339.82 879.96,353.78 807.98,368.1 829.2,274.82 850.74,181.62 871.86,88.32 802.36,154.7 733.34,221.58 663.9,288.04 c -3.96,-1.38 -7.92,-2.74 -11.88,-4.08 -0.1,-34.6 0.06,-69.2 -0.06,-103.78 -10.28,10 -20.2,20.34 -30.6,30.2 -6.9,-28.7 -12.62,-57.72 -21.72,-85.84 -5.24,12.88 -10.84,25.6 -16.3,38.38 -5.4,-12.66 -11.08,-25.18 -16.44,-37.86 -3.02,-5.84 -0.1,-12.18 1.58,-17.94 9.62,-28.54 17.48,-57.64 27.72,-85.94 12.44,40.2 24.64,80.46 36.64,120.8 22.9,-30.78 45.6,-61.68 68.4,-92.54 5.96,-8.16 11.8,-16.42 18.38,-24.1 C 706.66,90.22 693.16,155 680.08,219.88 762.48,146.76 844.3,72.94 926.86,0 z"
       id="path6"
       inkscape:connector-curvature="0"
       style="fill:#9a9180" />
    <path
       d="m 361.34,14.14 c 3.84,-0.54 8.52,-2.38 11.64,0.88 16.82,15.82 33.76,31.54 50.88,47.04 5.02,4.5 7,11.58 12.74,15.38 34.94,25 69.58,50.44 104.52,75.48 3.84,2.68 7.52,5.78 9.88,9.92 10.34,17.08 20.56,34.22 31.04,51.22 2.14,3.72 4.62,7.5 5.18,11.86 2,18.38 -0.46,37.18 -6.86,54.5 -7.84,14.2 -18,27.14 -29.16,38.84 -10.26,7.92 -19.52,18.04 -32.4,21.6 -10.88,3.4 -21.16,9.72 -32.88,9.44 -12.62,-0.26 -25.74,2.48 -37.88,-2.1 -6.48,-2.64 -14.64,-3.06 -19.1,-9.06 -10.52,-12.96 -20.82,-26.1 -31.28,-39.08 -4.1,-5.16 -9.1,-9.96 -10.9,-16.48 -12.68,-42.78 -24.84,-85.7 -37.62,-128.44 11.58,-4.12 23.92,-6.78 34.34,-13.58 7.78,-5.12 15.94,-9.74 23.14,-15.7 -15.06,5.72 -28.92,14.56 -44.64,18.64 -10.32,0.66 -20.56,-2.04 -29.9,-6.3 -6.06,-18.12 -12.1,-36.22 -18.1,-54.34 -3,-9.62 -12.08,-17.32 -10.94,-28.06 1.04,-8.66 7.5,-15.16 12.76,-21.62 -5.04,9.18 -11.8,20.1 -7.06,30.74 3.52,8.36 13.56,7.52 21.08,8.18 10.98,1.14 20.14,-5.74 29.86,-9.56 9.76,-3.54 17.2,-13.24 17.26,-23.76 0.78,-7.64 -1.22,-15.18 -3.04,-22.52 -4.2,-0.96 -8.4,-2 -12.56,-3.12 z"
       id="path10"
       inkscape:connector-curvature="0"
       style="fill:#f5722c" />
    <path
       d="m 264.14,112.28 c 24.34,21.5 48.48,43.26 72.74,64.86 3.34,2.66 4.14,7.02 5.24,10.92 4.48,18.68 9.3,37.28 13.82,55.94 -9.26,-1.26 -18.5,-2.64 -27.74,-4 15.44,38.7 32.02,76.94 47.46,115.64 -30.72,-11.36 -60.98,-23.92 -91.6,-35.52 3.86,14.56 8.08,29.04 11.66,43.7 -19.94,-9.22 -39.86,-18.48 -59.74,-27.84 -6.74,-19.96 -13.22,-40 -20,-59.94 34.72,3.86 69.38,8.08 104.08,11.92 -18.78,-58.5 -37.34,-117.1 -55.92,-175.68 z"
       id="path12"
       inkscape:connector-curvature="0"
       style="fill:#9a9180" />
    <path
       d="m 672,332.04 c 51.98,-56.04 104,-112 156,-168.02 -18.66,85.34 -37.32,170.66 -56,256 52.02,-12.24 104.04,-24.5 156.08,-36.72 32.04,-7.36 63.82,-15.72 95.92,-22.72 l 0,12.24 c -58.26,50.84 -117.44,100.64 -175.94,151.22 36.66,21.3 73.36,42.52 110.02,63.82 10.8,6.52 22.14,12.14 32.38,19.56 10.82,7.46 22.64,13.32 33.54,20.66 l 0,17.06 c -61.58,5.46 -122.7,14.82 -183.98,22.9 31.96,66.64 64,133.26 95.92,199.92 C 851.94,824 767.98,779.98 684,736.02 c 0,57.34 0.02,114.66 0,172 -52,-49.34 -104.02,-98.66 -156,-148 -45.3,33.34 -90.64,66.64 -135.96,99.96 11.98,-49.32 23.9,-98.66 36.02,-147.94 -45.36,3.9 -90.7,8.06 -136.06,11.92 5.58,-3.58 11.7,-6.98 15.24,-12.84 16.2,-25.06 32.48,-50.06 48.72,-75.08 14.66,5.3 29.34,10.54 43.96,15.98 -15.94,12.06 -31.98,24 -47.96,36.04 34.68,-5.42 69.38,-10.7 104.08,-16.06 -2.76,30.68 -5.32,61.36 -8.06,92.04 29.34,-16.04 58.7,-32.06 88.08,-48.04 39.9,41.38 79.96,82.64 119.92,124 -1.26,-54.66 -2.68,-109.32 -3.96,-163.98 70.64,35.94 141.2,72.04 211.88,107.88 C 840,741.24 815.94,698.68 792.04,656.04 847.9,649.22 903.82,642.94 959.64,635.88 903.8,606.5 847.88,577.3 792,548 c 50.64,-45.34 101.34,-90.62 151.94,-136 -69.28,14.74 -138.62,29.28 -207.9,44.04 14.58,-68 29.26,-135.96 43.98,-203.94 -30.8,37.2 -61.3,74.62 -92,111.9 -5.36,-10.66 -10.64,-21.32 -16.02,-31.96 z"
       id="path14"
       inkscape:connector-curvature="0"
       style="fill:#f5e5c1" />
    <path
       d="m 598.58,241.4 c 8.56,14.18 17,28.42 25.82,42.44 2.14,3.34 3.74,7 4.44,10.92 4.3,24.36 7.86,48.88 13.04,73.08 0.24,9.78 10,16.24 9.12,26.28 -0.42,12.24 -0.74,25.98 -9.24,35.72 -7.74,9.54 -16.6,18.98 -28.28,23.52 -14.98,5.42 -31.62,6.54 -46.96,2.04 -5.3,-2.38 -10.12,-5.74 -14.84,-9.08 -4.28,-3.06 -5.88,-8.64 -10.4,-11.42 -24.08,-15.4 -48.32,-30.6 -72.14,-46.36 -9.14,-9.2 -16.32,-20.2 -24.8,-30 8.58,1.56 17.18,3.28 25.9,4.04 17,0.56 33.7,-3.22 49.98,-7.7 3.56,-1.02 6.82,-2.78 9.88,-4.8 15.52,-10.06 31.2,-20.3 43.84,-33.96 5.68,-6.42 13.86,-11.36 16.1,-20.12 5.44,-17.68 6.3,-36.36 8.54,-54.6 z"
       id="path16"
       inkscape:connector-curvature="0"
       style="fill:#f5722c" />
    <path
       d="m 61.48,331.74 c 3.96,-2.12 8.44,-0.46 12.52,0.36 16.6,3.96 33.4,7.14 50.02,11.1 8.56,1.62 12.8,11.88 22.12,11.44 38.26,3.56 76.5,7.26 114.76,10.86 4.54,0.36 8.64,2.5 12.32,5.06 17.58,11.82 35.44,23.18 53.2,34.72 7.58,4.72 10.74,13.54 15.36,20.76 4.42,8.58 10,16.78 12.88,26.04 -0.34,16.22 -4.28,32.06 -7.08,47.96 -1.76,11.56 -9.28,20.9 -14.94,30.76 -9.48,16.42 -26.62,25.62 -41.52,36.34 -15.56,10.84 -35.08,12.24 -53.42,12.46 -11.96,-3.28 -23.28,-8.58 -35,-12.62 -8.14,-3.44 -17.76,-4.88 -23.72,-11.98 -28.64,-30.58 -58.24,-60.26 -86.82,-90.88 6.46,-2.58 13.3,-4.8 18.68,-9.4 10.32,-8.9 21.7,-16.8 29.78,-27.98 4,-4.16 2.9,-10.32 3.46,-15.56 -5.8,13 -14.3,24.7 -24.28,34.78 -14.04,9.36 -31.3,12.44 -47.94,12.16 C 62.06,447.3 51.62,437.1 41.62,426.46 35.82,420.18 27,416.5 23.68,408.16 c -2.18,-5.02 -0.54,-10.58 0.46,-15.68 1.88,6.38 1.98,13.54 5.9,19.16 2.28,3.44 6.72,3.96 10.2,5.54 11.98,-8.12 26.44,-13.88 34.38,-26.62 8.38,-9.48 5.42,-23.08 5.72,-34.62 0.62,-7.32 -4.18,-13.1 -8.04,-18.74 -5.26,0.14 -10.7,-0.1 -15.7,1.82 -6.06,2.14 -10.3,7.2 -14.98,11.34 2.06,-9.72 11.36,-15.14 19.86,-18.62 z"
       id="path18"
       inkscape:connector-curvature="0"
       style="fill:#f5722c" />
    <path
       d="m 642.02,361.82 c 3.96,1.86 8.3,3.78 10.28,8 10.96,18.34 21.66,36.86 32.84,55.1 4.9,6.48 0.7,15.62 5.9,21.96 16.58,24.42 31.5,50 48.76,73.92 0.32,2.24 0.54,4.48 0.66,6.74 7.82,11.8 8.04,26.96 2.96,39.84 -5.84,12.94 -17.66,21.74 -29.52,28.82 -13.24,6.3 -28.08,2.1 -41.5,-1.18 -6.8,-5.5 -12.76,-12.12 -18.38,-18.82 -6.88,-11.54 -15.88,-21.56 -24.08,-32.16 -9.18,-11.52 -18.1,-23.28 -27.36,-34.74 -6.04,-7.54 -16.52,-9.72 -22.1,-17.74 -9.86,-13.18 -20.32,-25.9 -29.98,-39.22 8.78,6.3 18.56,11.54 29.32,13.3 14.7,0.98 29.92,-0.2 43.36,-6.7 11.28,-7.06 20.82,-16.56 27.52,-28.08 7.84,-8.98 8.42,-21.36 9.58,-32.64 -0.2,-14.52 -12.8,-23.92 -18.26,-36.4 z"
       id="path20"
       inkscape:connector-curvature="0"
       style="fill:#f5722c" />
    <path
       d="m 350.68,421.1 c 13.54,9.28 27.9,17.4 41.06,27.22 8.62,9.5 15.48,20.44 23.68,30.28 6.66,7.52 9,18.72 18.24,23.82 4.18,2.94 9.66,5.06 11.4,10.32 2.78,6.96 6.48,13.72 7.92,21.12 -0.4,10.34 -1.08,20.76 -2.66,30.98 -3.7,7.8 -8.78,14.94 -13.84,21.94 -7.3,7.74 -16.88,12.98 -26.44,17.44 -7.56,4.1 -16.06,0.4 -24,-0.14 -9.5,-0.66 -18.66,-3.46 -28.1,-4.28 -22,-0.58 -43.98,-1.12 -65.98,-1.6 -8.88,-0.02 -16.78,-4.58 -25.1,-7.04 29.64,-4.22 54.3,-23.02 74.4,-44.06 6.66,-9.46 12.58,-19.66 15.44,-30.96 4.58,-15.28 9.48,-30.52 12.5,-46.22 0.94,-3.7 -1.02,-7.16 -2.34,-10.48 -5.58,-12.7 -11.06,-25.46 -16.18,-38.34 z"
       id="path24"
       inkscape:connector-curvature="0"
       style="fill:#f5722c" />
    <path
       d="m 980.72,462.76 c 15.16,-10.44 29.14,-22.44 43.28,-34.18 l 0,38.1 c -14.16,16.1 -30.98,29.9 -43.22,47.66 14.24,11.48 29.08,22.2 43.22,33.82 l 0,46.8 c -37.14,-25.36 -74.72,-50.08 -112.22,-74.9 22.98,-19.1 45.88,-38.32 68.94,-57.3 z"
       id="path26"
       inkscape:connector-curvature="0"
       style="fill:#9a9180" />
    <path
       d="m 447.48,501.22 c 12.72,8.48 25.9,16.26 38.82,24.44 6.18,3.36 5.56,12.72 12.72,14.98 21.54,9.56 41.74,21.68 60.8,35.48 9.98,5.08 12.6,16.8 16.78,26.22 1.26,8.52 0.48,17.32 -0.18,25.88 -3.56,7.86 -9.16,14.78 -14.64,21.38 -7.4,4.66 -15.38,8.94 -23.78,11.34 C 495.68,662 460.88,633.1 420.3,626.34 405.9,622 392.46,615 378.08,610.54 c 10.4,0.44 21.64,4.42 31.4,-0.88 5.98,-2.78 12.02,-5.38 17.96,-8.22 7.1,-3.2 11.2,-10.18 16.28,-15.7 4.32,-5.48 9.82,-10.1 13.28,-16.22 1.98,-11.64 3.54,-23.52 3.74,-35.32 -3.4,-11.32 -6.7,-23 -13.26,-32.98 z"
       id="path30"
       inkscape:connector-curvature="0"
       style="fill:#f5722c" />
    <path
       d="m 739.66,516.36 c 9.66,0.24 14.94,8.62 21.3,14.5 7.82,7.18 10,18.06 14.62,27.24 3.54,6.28 1.08,13.44 -0.02,20.02 -1.36,6.5 -1.74,13.26 -4,19.56 -3.08,5.32 -7.66,9.54 -11.5,14.28 -5.72,6.38 -10.46,14.7 -19.4,16.88 -10.42,2.98 -20.26,10.04 -31.52,8.46 -9.7,-1.06 -19.4,-2.26 -29.1,-3.3 -6.94,-8.28 -15.42,-15.38 -21.12,-24.62 -4,-8.68 -9.94,-17.38 -8.32,-27.4 3.4,7.62 6.62,15.42 11.64,22.16 7.08,9.66 12.94,21.54 24.62,26.36 15.08,3.96 31.7,2.74 45.86,-3.76 8.66,-5.84 20.4,-8.66 25.42,-18.64 7.68,-13.3 17.44,-27.62 14.74,-43.8 -2.3,-8.54 -4.92,-17.1 -8.46,-25.22 -7,-8.8 -16.64,-15 -24.76,-22.72 z"
       id="path32"
       inkscape:connector-curvature="0"
       style="fill:#f5722c" />
    <path
       d="m 741.34,526.26 c 0.82,-1.08 1.68,-2.14 2.56,-3.18 4.88,11.9 15.24,20.78 19.6,33.04 -0.82,13.3 -0.78,27.62 -8.22,39.26 -3.52,7.52 -10.98,11.76 -17.22,16.74 -7.26,6.1 -16.98,7.6 -26,9.32 -8.72,-0.02 -17.44,-1.64 -25.9,-3.64 -10.72,-5.5 -18.6,-15.18 -24.64,-25.38 11.82,11.12 28.82,14.36 44.56,13.22 9.38,-2.6 18.1,-7.72 24.84,-14.78 6.26,-6.5 14.08,-12.24 17.28,-21 3.08,-14.54 4.1,-31.96 -6.86,-43.6 z"
       id="path34"
       inkscape:connector-curvature="0"
       style="fill:#f5722c" />
    <path
       d="m 547.68,562 c 6.72,-0.98 13.54,-2.08 20.36,-1.54 9.72,4.36 18.5,10.62 27.98,15.5 4.82,12.08 11.28,23.54 15.46,35.86 0.26,10.04 -0.42,20.22 -1.96,30.14 -2.72,7.36 -7.14,13.94 -10.7,20.88 -3.1,7.12 -11.2,9.02 -17.38,12.48 -7.6,3.34 -14.64,9.1 -23.36,8.7 -9.56,0.12 -19.52,0.86 -28.5,-3.08 11.5,-0.46 22.96,1.32 34.44,0.7 5.9,-2.04 10.8,-6.1 16.18,-9.16 5.56,-3.64 12.54,-6.36 15.16,-13.02 3.74,-8.24 9.54,-16 9.94,-25.32 0.46,-8.64 2.08,-17.28 1.48,-25.92 -3.54,-9.66 -7.92,-19.02 -12.5,-28.22 -6.28,-6.16 -15.18,-8.94 -22.5,-13.78 -7.1,-5.04 -16.04,-2.76 -24.1,-4.22 z"
       id="path36"
       inkscape:connector-curvature="0"
       style="fill:#f5722c" />
    <path
       d="m 556.7,567.68 c 5.1,0.44 9.64,2.76 13.48,6.02 6.54,5.42 15,9.5 18.28,17.88 2.96,6.8 7.36,13.1 9.1,20.38 -0.32,8.24 -0.84,16.66 -3.14,24.6 -3.58,6.8 -7.1,13.84 -12.06,19.74 -7.84,5.24 -15.92,10.36 -24.38,14.54 -9.94,0.78 -19.9,-0.46 -29.86,-0.54 -8.92,0.02 -16.84,-4.5 -24.74,-8 6.98,0.78 13.74,2.82 20.7,3.9 12.52,0.8 24.24,-4.4 35.72,-8.64 5.38,-1.5 7.68,-6.96 10.74,-11.06 3.36,-5.5 8.02,-10.4 10.02,-16.6 0.78,-9.24 1.48,-18.58 1,-27.86 -2.7,-8.06 -6.26,-15.94 -10.36,-23.38 -4.3,-4.32 -9.84,-7.1 -14.5,-10.98 z"
       id="path38"
       inkscape:connector-curvature="0"
       style="fill:#f5722c" />
    <path
       d="m 32.3,671.9 c 38.48,-30.78 77.14,-61.3 115.74,-91.92 14.58,9.34 29.22,18.58 43.72,28.02 -20.94,13.52 -42.34,26.36 -63.32,39.84 32.12,1.7 64.5,-0.08 96.42,4.76 23.26,3.06 46.6,5.58 69.84,8.94 -51.24,41.02 -103.08,81.26 -154.26,122.34 80.7,-7.74 161.36,-15.88 242.04,-23.7 -18.3,66.28 -35.2,132.94 -52.56,199.46 67.58,-49.04 135.12,-98.14 202.24,-147.82 67.36,65.82 135.2,131.18 203.02,196.52 -1.14,-44.12 -3.36,-88.2 -4.9,-132.3 -0.04,-26.72 -2.68,-53.34 -2.22,-80.06 70.66,41.98 141.48,83.7 212.2,125.6 10.7,6.6 22.04,12.18 32.12,19.76 16.86,12.36 34.66,23.42 51.62,35.62 l 0,47.04 -12.56,0 C 932.12,977.12 853.16,929.6 773.86,882.7 c 2.14,47.1 3.78,94.2 6.02,141.3 l -128.4,0 c -26.26,-25.58 -51.96,-51.72 -78.06,-77.48 -18.34,-17.36 -35.68,-35.72 -53.7,-53.42 -36.6,43.3 -72.08,87.54 -108.58,130.9 l -186.82,0 C 261.76,946.94 298.48,869.52 335.66,792.32 225.34,801.58 115,810.88 4.66,819.86 64.66,774.52 125.82,730.7 185.88,685.4 134.68,680.88 83.48,676.64 32.3,671.9 z"
       id="path40"
       inkscape:connector-curvature="0"
       style="fill:#9a9180" />
    <path
       d="m 888.08,692.28 c 45.2,-8.7 91.06,-14 135.92,-24.42 l 0,39.02 c -22.3,11.66 -45.16,22.2 -67.34,34.12 23.2,32.16 44.38,65.72 67.34,98.08 l 0,128.68 c -12.98,-25.7 -25.6,-51.56 -38.68,-77.2 -15.48,-31.76 -32.2,-62.92 -46.34,-95.3 -17.06,-34.28 -33.84,-68.7 -50.9,-102.98 z"
       id="path42"
       inkscape:connector-curvature="0"
       style="fill:#9a9180" />
  </g>
</svg>
