<?xml version="1.0" encoding="UTF-8" standalone="no"?>
<svg
   xmlns:dc="http://purl.org/dc/elements/1.1/"
   xmlns:cc="http://creativecommons.org/ns#"
   xmlns:rdf="http://www.w3.org/1999/02/22-rdf-syntax-ns#"
   xmlns:svg="http://www.w3.org/2000/svg"
   xmlns="http://www.w3.org/2000/svg"
   xmlns:sodipodi="http://sodipodi.sourceforge.net/DTD/sodipodi-0.dtd"
   xmlns:inkscape="http://www.inkscape.org/namespaces/inkscape"
   width="1280"
   height="1280"
   viewBox="0 0 1024 1024"
   version="1.1"
   id="svg2"
   inkscape:version="0.48.1 "
   sodipodi:docname="assist_medic.svg">
  <metadata
     id="metadata34">
    <rdf:RDF>
      <cc:Work
         rdf:about="">
        <dc:format>image/svg+xml</dc:format>
        <dc:type
           rdf:resource="http://purl.org/dc/dcmitype/StillImage" />
      </cc:Work>
    </rdf:RDF>
  </metadata>
  <defs
     id="defs32" />
  <sodipodi:namedview
     pagecolor="#ffffff"
     bordercolor="#666666"
     borderopacity="1"
     objecttolerance="10"
     gridtolerance="10"
     guidetolerance="10"
     inkscape:pageopacity="0"
     inkscape:pageshadow="2"
     inkscape:window-width="1920"
     inkscape:window-height="1018"
     id="namedview30"
     showgrid="false"
     inkscape:zoom="0.5"
     inkscape:cx="499.16014"
     inkscape:cy="377.52423"
     inkscape:window-x="-8"
     inkscape:window-y="-8"
     inkscape:window-maximized="1"
     inkscape:current-layer="svg2"
     fit-margin-top="0"
     fit-margin-left="0"
     fit-margin-right="0"
     fit-margin-bottom="0" />
  <path
     d="M 0.0796888,0 1024,0 1024,1024 0,1024 0,0.15876 C 0.0199222,0.11906 0.0597666,0.03969 0.0796888,0 z"
     id="path6"
     style="fill:#3e3e3e"
     inkscape:connector-curvature="0" />
  <path
     d="m 377.24,57.04 c 15.16,-6.52 30.5,-12.68 45.74,-19 -0.94,12.3 -2,24.6 -2.96,36.9 15.02,-0.84 30.02,-1.98 45.02,-2.9 -10.34,8.58 -20.64,17.24 -30.94,25.9 6.64,0.42 13.3,0.76 19.96,1 -7.96,9.06 -16.08,17.98 -24,27.08 15.62,6.38 31.3,12.6 46.9,19.02 -14.36,9.34 -28.68,18.76 -43.12,27.98 9.06,0.64 18.12,1.32 27.18,1.98 -6.66,6.32 -13.34,12.64 -19.98,19.02 24.62,12.7 49.32,25.28 73.94,38 -1.66,3.34 -3.3,6.66 -4.96,10 8.32,4 16.64,8 24.98,11.98 -4.98,14.02 -10.02,28.02 -14.98,42.04 12.34,14.24 24.48,28.66 36.98,42.78 -4.28,6.12 -8.64,12.2 -12.98,18.26 7.68,4.92 15.32,9.92 22.96,14.94 -4.32,4.66 -8.64,9.32 -12.96,14 7.98,7.74 16.14,15.3 24.02,23.18 -12.22,18.14 -24,36.54 -36.04,54.8 4.32,8.68 8.68,17.32 13,26 -6.34,2.34 -12.66,4.68 -18.96,7.04 5.98,2 11.98,3.96 17.98,5.94 -5,2.34 -10,4.7 -15,7.06 10.24,21.1 20.92,41.98 30.9,63.2 -10.08,4.34 -19.9,9.2 -29.88,13.7 3.2,10.38 6.66,20.66 9.9,31.02 -8.3,1.74 -16.64,3.4 -24.96,5.06 -2.96,9.66 -5.98,19.32 -8.98,28.98 -5.64,-3 -11.3,-5.98 -16.96,-8.92 1.56,10.3 3.22,20.6 4.92,30.9 0.18,3 1.68,6.5 -0.52,9.16 -4.9,7.44 -10.4,14.48 -15.42,21.84 10.56,12.78 21.46,25.28 31.92,38.16 -7.32,8.16 -14.52,16.42 -21.78,24.64 -1.46,-5.76 -3,-11.5 -5.36,-16.96 -9.8,-21.46 -16.78,-45.46 -12.74,-69.18 1.72,-10.78 0.64,-22.82 7.54,-32.02 6.82,-8.62 11.42,-18.94 19.72,-26.36 7.04,-6.4 11.96,-14.68 18.82,-21.24 7.02,-6.7 11.66,-15.36 16.28,-23.76 2.74,-4.4 0.34,-9.46 -0.64,-14 -3.78,-13.22 -4.4,-27.04 -7,-40.5 -2.42,-11.36 -0.86,-23.26 -4.58,-34.36 -3.74,-10.06 2.44,-19.76 6.06,-28.84 7.1,-18.38 13.24,-37.22 22.94,-54.44 -5.82,-11.48 -11.22,-23.16 -15.9,-35.16 -5.06,-13.82 -14.94,-25.3 -19.08,-39.5 -4.24,-13.96 -14.2,-26.26 -13.84,-41.44 -0.88,-10.76 2.48,-21.72 -0.02,-32.32 -4.58,-7.98 -14.32,-10.94 -20.28,-17.72 -5.32,-6.06 -10.6,-12.22 -17.34,-16.76 -5.64,-3.78 -8.2,-10.3 -12.74,-15.06 -10.12,-7.58 -24.64,-3.3 -34.3,-11.76 -3,-3.5 -6.58,-7.56 -6.54,-12.4 3.16,-10.14 11.74,-17.88 14.02,-28.36 1.52,-12.14 -10.98,-20.98 -8.16,-33.08 1.2,-5.66 7.66,-9.88 6.04,-16.12 -2.12,-7.48 -8,-12.96 -12.7,-18.86 -6.68,-7.62 -11.02,-16.88 -17.26,-24.82 -11,0.3 -21.92,2.08 -32.94,1.96 -7.2,0.02 -14.42,-0.12 -21.56,0.92 -16.68,2.76 -34.04,1.38 -50.26,6.74 -5.06,3.78 -7,10.44 -9.88,15.86 -3.3,5.76 -0.64,12.88 -3.5,18.66 -7.48,5.74 -15.46,10.86 -22.52,17.16 3.4,7.58 6.6,15.5 6.48,23.96 -0.2,6.84 2.84,13.02 6.04,18.84 5,0.66 11.4,0.9 13.66,6.34 6.08,13.4 9.72,28.28 8.1,43.04 -4.68,9.06 -16,13.08 -19.06,23.24 -2.04,6.12 -5.56,11.48 -8.6,17.1 0.28,9.16 0.62,18.32 -0.1,27.48 -1.12,15.48 4.66,30.4 3.58,45.88 -0.7,20.72 1,41.46 -0.06,62.14 -4.36,22.02 -16.56,41.46 -23.02,62.82 -6.66,12.02 -7.96,25.8 -8.8,39.26 -0.46,8.3 -1.6,18.9 -10.44,22.5 -10.94,1.74 -21.28,-4.4 -32.24,-3.66 -14,0.58 -27.94,1.62 -41.96,1.74 -24.32,1.64 -49.16,-2.78 -73.04,3.76 -10.5,3.24 -22.12,4.66 -31.1,11.42 -5.06,3.56 -4.3,10.42 -4.9,15.82 -1.36,18.88 -5.3,39.32 4.82,56.6 16.76,6.12 34.04,11.38 52,11.76 14.74,3.36 29.4,-1.84 44.22,-0.8 19.18,0.72 38.46,-0.84 57.2,-5.08 5.56,-1.28 11.22,-0.14 16.8,0.24 6.3,0.34 12.58,-3.16 18.82,-1 9.56,5 13.1,15.8 16.72,25.2 2.02,4.56 0.64,9.56 -0.12,14.24 -3,14.16 -4.64,28.56 -7.38,42.76 -0.74,5.12 -2.16,10.36 -1.2,15.54 5.02,6.32 11.24,11.84 14.5,19.42 4.88,10.9 14.38,20.6 13.88,33.24 -1.62,13.76 -8.66,26.5 -10.82,39.98 6.22,7.6 11.1,16.52 19.2,22.38 5.7,4.64 10.38,12.14 8.54,19.76 -2.62,13.54 0.22,28.04 -5.38,40.98 -7.06,10.18 -16.96,18.18 -27.32,24.84 -5.42,3.86 -10.14,8.66 -16.04,11.8 -7.1,3.84 -12.28,10.16 -17.68,15.98 -2.22,-1.38 -4.44,-2.72 -6.68,-4.04 1.66,-8.22 3.3,-16.46 5.02,-24.66 9.98,-0.14 19.94,-0.48 29.9,-1 -4.68,-6.6 -9.34,-13.22 -13.96,-19.86 11.32,1.98 22.64,3.98 33.96,6 -6.62,-10.04 -13.32,-20 -19.96,-30 8.96,-6.36 17.98,-12.66 26.96,-18.98 C 269.7,830 258.3,819.08 247.08,808 c 3.64,-3.68 7.28,-7.34 10.92,-11.02 -4.68,-2.98 -9.34,-5.98 -13.98,-8.96 7.26,-7.68 14.64,-15.22 21.82,-22.96 -6.68,0.62 -13.38,1.26 -20.06,1.74 4.5,-8.32 10.14,-15.94 15.18,-23.94 C 250.9,734 240.98,725 231.04,716 c 3.26,-7.62 6.54,-15.24 9.98,-22.78 -4.9,-7.14 -9.98,-14.16 -15.02,-21.2 4.68,-3.7 9.4,-7.38 14.12,-11.02 -4.04,-0.34 -8.06,-0.68 -12.08,-1.02 5.54,-10.58 11.26,-21.06 16.74,-31.68 -7.34,5.44 -14.5,11.12 -21.76,16.66 0.3,-8.64 0.66,-17.28 0.96,-25.92 -13.34,8.28 -26.64,16.66 -39.98,24.96 -4.02,-9.66 -7.98,-19.34 -12.02,-28.98 -2.98,6.66 -5.96,13.3 -8.96,19.96 C 156.98,629 151,622.96 144.9,617.02 c -10.94,8.38 -21.92,16.7 -32.92,24.98 -10.94,-6.66 -21.92,-13.22 -32.8,-19.96 -11.02,1.54 -22,3.34 -33,4.9 3.5,-3.52 6.98,-7.06 10.44,-10.62 -8.24,0.98 -16.44,2.32 -24.62,3.72 1.32,-9.08 2.72,-18.16 3.94,-27.26 -4.74,-6.18 -9.32,-12.48 -13.92,-18.76 3.16,-0.02 6.32,-0.04 9.48,-0.04 -2.2,-18.32 -4.28,-36.62 -6.54,-54.92 9.58,-1.38 19.16,-2.78 28.78,-3.86 2.9,-7 5.64,-14.08 8.26,-21.18 10.38,5.62 20.66,11.48 31.14,16.92 1.92,-4.32 3.88,-8.6 5.82,-12.9 3,2.66 6.04,5.28 9.04,7.96 17.72,-5.3 35.4,-10.76 53.14,-15.98 10.58,6.4 21.2,12.72 31.88,18.92 2.02,-3.66 4.04,-7.28 6.06,-10.94 9.58,4.02 19.16,8.02 28.78,11.92 -7.58,-8.66 -15.26,-17.22 -22.8,-25.9 8.3,-2.02 16.6,-4 24.9,-6.04 -4.26,-10 -8.64,-19.94 -12.92,-29.94 9.92,-4.74 19.96,-9.28 29.88,-14.04 -4.94,-4.02 -9.92,-8 -14.9,-11.98 10.28,-7.38 20.64,-14.6 30.9,-22 -4.58,-3.36 -9.22,-6.66 -13.82,-9.98 4.64,-1.66 9.24,-3.42 13.88,-5.08 C 256.34,369.96 249.64,355 243,340 c 6,-10.66 12.02,-21.3 17.98,-31.98 -2.98,-2.66 -5.96,-5.34 -8.92,-8 2.96,-2 5.92,-4.02 8.88,-6.02 -5.94,-4.64 -11.9,-9.28 -17.82,-13.96 4.96,-1 9.9,-2.06 14.86,-3.02 -4.96,-10.34 -9.98,-20.66 -14.98,-30.98 6.02,1.32 12.02,2.64 18.04,3.96 -3.38,-7.32 -6.7,-14.64 -10.02,-21.98 12.64,-5.02 25.3,-9.98 37.94,-14.98 -7.96,-0.72 -15.94,-1.36 -23.92,-2.04 7.14,-5.26 14.4,-10.38 21.44,-15.76 -8.82,1.78 -17.6,3.82 -26.4,5.74 4.56,-9.02 9.28,-17.96 13.9,-26.94 -10.6,-1.4 -21.22,-2.62 -31.8,-4.08 4.88,-5.36 9.84,-10.66 14.8,-15.94 -6.62,-2.66 -13.26,-5.3 -19.84,-8.06 5.04,-3.84 11.08,-6.68 15.34,-11.36 -5.62,-10.8 -12.46,-20.92 -18.42,-31.54 9.98,1.6 19.96,3.28 29.94,4.96 -1,-3.98 -1.98,-7.96 -2.96,-11.94 3.64,1.96 7.3,3.92 10.94,5.9 1.04,-14.3 2.02,-28.62 3.02,-42.92 7.28,2.24 14.54,4.54 21.76,7 10.3,-7.82 20.12,-16.2 30.42,-24.02 8.52,7.1 17.22,13.96 25.78,21 4.34,-6.32 8.68,-12.66 13.02,-18.98 3.7,4.38 7.44,8.7 11.26,12.98 z"
     id="path8"
     inkscape:connector-curvature="0"
     style="fill:#f4722b" />
  <path
     d="m 881.26,85.02 c 8.12,-5.88 17.66,0.5 23.84,6.12 5.72,5.76 2.38,14.5 5.04,21.48 -0.18,5.8 -3.72,10.4 -5.98,15.48 -0.86,2.82 2.22,4.34 3.7,6.16 4.76,3.84 3.22,11.9 9.1,14.76 3.46,3.2 8.16,2.12 12.38,1.88 -1.48,-5.66 -2.52,-11.44 -2.38,-17.3 2.08,-3 3.3,-6.36 3.86,-9.96 5.42,-0.68 10.92,-0.7 16.38,-0.18 0.1,1.78 0.28,5.3 0.36,7.06 3.64,0.32 7.3,0.6 10.96,0.86 0.02,1.38 0.08,4.14 0.1,5.54 0.86,0.6 2.58,1.82 3.44,2.42 -0.5,1.16 -1.54,3.46 -2.06,4.62 9.04,-1.08 21.72,-2.44 26.96,6.78 1,11.78 -0.6,23.62 0.04,35.42 0.68,10.52 0.14,21.08 -0.96,31.56 -1.56,3.76 -5.84,4.62 -9.12,6.18 1.32,2.58 2.4,5.28 3.12,8.1 3.22,1.2 7.64,1.16 9.38,4.7 3.22,5.4 0.84,13.02 -4.44,16.18 -6.38,0.64 -12.92,-0.62 -19.34,0.14 -0.96,8.22 -0.38,19.66 -8.58,24.32 -5.8,2.5 -8.5,-4.12 -11.1,-7.88 -0.76,4.5 -2.14,8.84 -4.64,12.68 0.62,6.1 1.54,12.16 2.46,18.24 -2.48,2.18 -4.94,4.38 -7.42,6.58 -3.52,-0.28 -7.02,-0.56 -10.52,-0.82 1.42,14.76 3.3,29.68 8.7,43.6 5.76,14.74 9.66,30.08 14.7,45.06 15.38,40.88 37.14,79.88 44.02,123.46 0.38,3.76 -1.38,7.26 -2.32,10.82 -9.26,0.12 -18.5,0.08 -27.72,-0.62 -6.48,-17.3 -11.54,-35.1 -17.8,-52.48 -2.3,0.04 -4.6,0.16 -6.88,0.34 -9.82,21.86 -9.46,46.24 -13.06,69.52 -1.66,8.52 2.74,16.76 1.36,25.26 -1.04,8.1 -0.32,17.02 4.82,23.72 0.56,5.84 -0.88,12.28 -6.7,14.96 -0.92,2.94 -1.76,5.88 -2.56,8.86 -6.52,3.46 -12.74,8.7 -20.46,8.84 -3.72,0.22 -7.18,-1.36 -10.7,-2.26 -0.3,-5.12 -1.84,-10.56 0.48,-15.42 4.96,-12.04 13.58,-24.28 10.5,-37.92 -2.28,-8.58 1.24,-17.24 0.44,-25.9 -1.26,-15.56 -1,-31.36 -5.66,-46.4 -6.2,-4.42 -12.38,-8.9 -18.62,-13.26 0.84,10.58 -0.38,21.62 3.24,31.78 4.76,10.62 6.34,22.22 11.24,32.78 -10.76,3.22 -22.58,6.92 -33.64,3.04 -6.76,3.36 -13.04,8.98 -21.06,8.42 -9.72,-0.04 -19.68,1.32 -29.06,-1.82 1.46,-3.48 1.74,-8.26 5.62,-10.04 5.84,-2.16 12.66,-0.66 18.22,-3.6 8.66,-7.46 16.16,-16.2 23.58,-24.88 0.12,-8 -0.32,-16.1 -3.22,-23.64 -3.44,-9.16 -5.12,-19.14 -10.22,-27.6 -8.56,-4.14 -17.64,-7.12 -26.12,-11.4 1.48,-15.74 -0.16,-32.06 5.28,-47.18 7.36,-24 15.3,-47.96 19.54,-72.78 1.64,-8.12 -0.66,-16.3 -1.24,-24.4 -3.38,1.58 -6.74,3.14 -10.12,4.7 1.46,3.62 2.9,7.24 4.4,10.86 -4.48,3.52 -9.72,5.74 -15.12,7.32 -0.64,-3.54 -1.12,-7.1 -1.74,-10.62 -8.44,-1.9 -11.56,-10.72 -17.84,-15.66 -6.62,-4.46 -3.76,-13.48 -8.06,-19.46 2.1,-2.3 4.24,-4.56 6.38,-6.84 -9.34,0.6 -17.08,-10.42 -26.48,-5.42 -11.14,7.96 -29.1,10.44 -38.86,-0.98 -10.8,-11.72 -8.58,-32.26 4.58,-41.3 11.36,-8.34 27.56,-3.36 36.96,5.72 0.72,-0.2 2.2,-0.62 2.94,-0.82 1.04,0.62 3.14,1.86 4.2,2.48 3.8,-0.26 7.64,-0.48 11.46,-0.72 -0.44,-7.08 1.94,-13.84 8.1,-17.78 -0.44,-1.52 -1.34,-4.56 -1.78,-6.08 8.22,-11.3 21.14,-17.92 34.88,-19.58 0.86,0.82 2.58,2.5 3.44,3.32 5.48,-3.64 12.74,-6.22 15.32,-12.84 4.3,-15.72 11.8,-30.48 20.94,-43.94 -1.12,-0.24 -3.36,-0.74 -4.48,-0.98 -2.92,-11.34 2.62,-23.9 -4.3,-34.14 5.56,-8.96 5.32,-22.04 15.9,-27.22 z"
     id="path10"
     inkscape:connector-curvature="0"
     style="fill:#f4722b" />
  <path
     d="m 338.44,92.28 c 14.24,-6.08 30.88,-7.3 45.54,-2.1 3.4,2.86 7.68,5.64 8.74,10.26 2.88,10.34 6.92,20.5 6.8,31.42 10.42,6.4 10.6,20.42 7.12,30.8 -3,5.96 -9.6,8.78 -15.58,10.8 -0.76,9 -0.72,18.16 2.64,26.7 3.18,1.76 6.36,3.56 9.52,5.38 -0.7,1.36 -2.12,4.1 -2.82,5.48 4.42,-0.06 8.8,0.78 13.16,1.46 15.58,4.58 31.68,7.8 46.42,14.86 1.32,2.7 2.16,5.8 4.4,7.94 8.54,7.86 16.7,16.26 26.72,22.26 0.86,10.26 -1.18,20.28 -2.9,30.3 2.24,10.38 7.7,19.78 10.02,30.16 5.86,27.34 16.24,53.42 23.82,80.26 2.14,26.68 -2.8,53.32 -3.76,79.96 0.56,4.08 3.78,7.6 2.62,11.96 -2.92,22.6 4.4,45.02 1.68,67.62 -4.24,5.6 -4.1,13.04 -7.64,18.98 -3.84,7.24 -10.14,12.64 -15.74,18.48 -7.88,7.48 -15.8,15.92 -26.58,19 -1.5,-2.32 -2.88,-4.78 -2.98,-7.62 -6.8,-5.96 0.58,-13.32 4.02,-18.84 7.94,-12.28 10.64,-28.44 4.42,-42 -2.88,2.84 -4.96,6.34 -6.16,10.2 -1.98,6.48 -7.3,11 -11.56,15.98 -2.26,-0.98 -4.3,-2.34 -6.52,-3.34 1.56,-4.4 3.08,-8.82 4.64,-13.22 -0.3,-1.16 -0.9,-3.48 -1.2,-4.64 5.58,-9.64 0.58,-21.58 6.58,-31 6.28,-10.62 14.3,-20.1 21.56,-30.06 -0.42,-2.6 -0.82,-5.22 -1.18,-7.82 0.54,-1 1.62,-3 2.16,-4 -1.9,-17.68 -4.62,-35.24 -7.22,-52.82 -2.62,-19.14 4.5,-39.54 -4.78,-57.52 -5.06,8.62 -9.84,17.42 -14.88,26.04 -4.9,8.28 -13.76,13 -19.72,20.36 0.2,1.16 0.6,3.46 0.8,4.62 -3.66,3.36 -7.34,6.66 -11.06,9.94 0.44,6.9 0.86,13.82 0.84,20.74 1.04,0.62 3.12,1.86 4.16,2.5 2.1,57.54 9.32,114.76 17.84,171.66 2.22,21.38 2.42,42.9 4.18,64.3 0.16,3.78 1.78,7.24 3.22,10.66 5.32,11.9 10.34,23.9 15.6,35.82 -0.88,2.58 -1.7,5.16 -2.52,7.78 5.2,14.4 11.2,28.48 18.26,42.06 -6.34,8.7 -13.82,16.62 -19.58,25.7 0.64,9.42 3.04,18.92 0.82,28.36 -5.96,33.56 -11.3,68.6 -2.66,102.2 2.12,7.5 0.42,15.18 -3.42,21.82 -2.28,0.48 -4.56,0.98 -6.82,1.5 -3.6,7.04 -5.96,16.72 -14.38,19.38 -11.78,0.82 -24.88,1.2 -35.24,-5.34 -2.4,-4.98 0.36,-10.38 3.62,-14.2 8.34,-9.78 17.64,-19.06 23.26,-30.78 7.5,-13.62 6.54,-29.74 6.22,-44.76 -1.06,-13.64 -2.32,-27.42 -6.2,-40.6 -3.04,-11.1 -4.54,-22.54 -5.38,-34 -10.54,-4.3 -21.18,-8.8 -29.22,-17.18 2.6,-13.92 4.82,-27.88 6.16,-41.96 -5.22,-11.52 -12,-22.32 -16.34,-34.2 -6.06,-21.94 -11.86,-43.94 -17.82,-65.88 -2.36,-8.64 -5.72,-17 -10.02,-24.84 -1.6,18.3 -4.08,36.56 -5.22,54.9 2.16,12.66 5.06,25.18 7.82,37.74 -1.32,2.6 -2.64,5.18 -3.96,7.8 6.38,16.64 12.06,33.6 20.68,49.28 -7.12,3.64 -14.12,7.52 -21.24,11.12 1.18,16.08 -0.38,32.16 -4.3,47.78 -5.8,18.56 -3.24,38.36 -2.5,57.4 6.72,8.7 9.88,19.94 9.22,30.9 -0.48,3.92 -1.34,8.92 -5.48,10.62 -9.22,3.92 -19.48,2.2 -29.2,3.2 -12.64,1.3 -22.9,11.96 -36.06,10.54 -13.44,-1.22 -27.62,-2.3 -39.18,-10.04 -0.4,-11.76 13.3,-10.98 21,-14.7 17.52,-8.18 36.2,-15.88 49.42,-30.58 4.8,-32.92 -6.72,-65.18 -6.4,-98 -6.56,-2.72 -13.12,-5.44 -19.64,-8.22 0.62,-16.28 0.98,-32.6 0.5,-48.88 -2.62,-11.26 -9.18,-21.3 -11.82,-32.58 -1,-22.48 -2.04,-44.96 -3.02,-67.44 -0.78,-12.62 0.98,-25.2 2.08,-37.74 -5.3,-0.76 -8.34,-5.08 -11.52,-8.88 -1.08,0.02 -3.22,0.1 -4.3,0.14 -6.64,-6.6 -11.18,-14.8 -16.04,-22.7 -2.84,-4.02 -2.22,-9.18 -2.82,-13.8 -17.18,2.66 -33.68,8.44 -50.54,12.5 -15.98,5.26 -32.98,4.14 -49.5,4.92 -7.96,1.64 -15.82,3.98 -24.02,4.18 -14.84,0.7 -29.78,4.4 -44.62,1.86 -9.76,-4.62 -15.8,-17.54 -10.9,-27.64 2.88,-7.88 11.04,-13.38 19.44,-13.18 25.98,-0.74 51.94,-1.9 77.92,-2.88 27.08,-2.2 53.64,5.62 80.6,6.4 1.52,-13.36 8.76,-25.12 13.06,-37.7 5.06,-10.72 3.58,-23.48 10.54,-33.4 8.48,-25.42 13.94,-51.78 22.94,-77.04 1.3,-4.26 1.24,-8.74 1.26,-13.14 -0.32,-23.26 0.94,-46.68 -2.46,-69.78 -3.18,-9.6 -8.1,-18.54 -11.86,-27.92 1.78,-4.12 2.96,-8.78 6.16,-12.08 3.56,-3.08 7.8,-5.5 10.52,-9.44 12.58,-17.46 29.58,-31.24 47.56,-42.76 3.22,-4.72 -0.58,-10.56 -1.4,-15.54 -5.94,1.12 -11.9,2.2 -17.92,2.8 -2.66,-12.74 -3.96,-25.76 -7.64,-38.26 -1.72,-5.9 -1.42,-12.1 -1.96,-18.14 4.58,-0.48 9.02,-1.58 13.44,-2.84 -4.3,-1.46 -8.98,-2.86 -13.48,-1.32 -0.6,-0.92 -1.82,-2.72 -2.42,-3.64 -7.08,0.36 -14.16,0.58 -21.24,0.5 -0.16,-4.92 -0.72,-9.86 -0.48,-14.78 2.52,-3.44 6.48,-5.48 9.82,-8.02 3.6,-0.14 7.22,-0.32 10.84,-0.52 -0.92,-6.38 -2.16,-12.68 -3.32,-19.02 8.24,-4.14 17.44,-5.58 25.96,-8.96 z"
     id="path12"
     inkscape:connector-curvature="0"
     style="fill:#f5e5c1" />
  <path
     d="m 354.92,132.54 c 6.42,-1.58 10.3,6.02 11.74,11.18 -7.86,1.18 -15.76,2.08 -23.7,2.16 3.58,-4.74 6.56,-10.42 11.96,-13.34 z"
     id="path14"
     inkscape:connector-curvature="0"
     style="fill:#f4722b" />
  <path
     d="m 609.7,143.32 c 8.54,-1.36 17.06,-2.88 25.48,-4.92 1.4,6.44 1.56,13.04 1.12,19.6 5.6,-1 11.12,-2.3 16.6,-3.84 0.34,9.1 0.5,18.22 0.46,27.34 -5.56,1.08 -11.16,1.92 -16.76,2.64 0.34,6.12 0.48,12.28 0.22,18.42 -8.62,0.54 -17.32,0.4 -25.8,-1.52 -0.12,-5.34 -0.36,-10.68 -0.52,-16.02 -7,-0.16 -13.98,0.46 -20.8,2 -2.8,-8.98 -3.52,-18.4 -2.82,-27.76 7.54,-0.36 15.1,-0.42 22.64,-0.34 0.14,-5.2 0.22,-10.4 0.18,-15.6 z"
     id="path16"
     inkscape:connector-curvature="0"
     style="fill:#f4722b" />
  <path
     d="m 319.28,146.72 c 4.5,-1.54 9.18,-0.14 13.48,1.32 -4.42,1.26 -8.86,2.36 -13.44,2.84 0,-1.04 -0.02,-3.12 -0.04,-4.16 z"
     id="path18"
     inkscape:connector-curvature="0"
     style="fill:#f4722b" />
  <path
     d="m 729.12,149.52 c 4.3,0.46 8.56,1.16 12.86,1.74 0.16,3.34 0.28,6.7 0.48,10.08 2.8,-0.24 5.6,-0.52 8.4,-0.86 2.42,3.62 2.42,7.9 1.94,12.04 -3.32,0.86 -6.64,1.72 -9.94,2.6 -0.26,4.8 0.12,10.78 -4.9,13.38 -7.12,1.76 -9.08,-6.74 -8.94,-12.04 -2.66,0.02 -5.32,0.06 -7.98,0.1 0.06,-4.34 0.12,-8.68 0.2,-13.02 2.62,-0.16 5.26,-0.3 7.92,-0.46 -0.06,-4.52 0,-9.04 -0.04,-13.56 z"
     id="path20"
     inkscape:connector-curvature="0"
     style="fill:#f4722b" />
  <path
     d="m 506.86,174.74 c 0.08,-3.52 -0.02,-7.04 0.08,-10.54 4.02,0.08 8.04,0.28 12.04,0.52 0.08,1.68 0.2,5.04 0.26,6.72 3.2,-0.28 6.38,-0.56 9.58,-0.84 0.06,4.5 0.12,9.02 0.18,13.52 -2.76,0.26 -5.52,0.52 -8.28,0.8 0.3,4.08 0.62,8.18 0.96,12.26 -4.2,0.1 -8.38,0.2 -12.56,0.3 -0.2,-3.4 -0.38,-6.82 -0.54,-10.22 -5.12,0.46 -10.22,1.26 -15.34,1.68 -1.18,-4.32 -1.84,-8.76 -2,-13.24 5.2,-0.22 10.4,-0.68 15.62,-0.96 z"
     id="path22"
     inkscape:connector-curvature="0"
     style="fill:#f4722b" />
  <path
     d="m 672.94,210.86 c 4.04,-0.12 8.08,-0.24 12.12,-0.36 0,1.7 0,5.08 0.02,6.78 4.78,-0.36 9.64,-0.36 14.12,1.6 -0.04,2.7 -0.04,5.4 0.1,8.1 -4.58,2.1 -9.38,3.66 -14.36,4.36 0.48,4.6 0.94,9.2 1.52,13.78 -4.42,-0.7 -8.84,-1.4 -13.24,-2.24 -0.12,-3.42 -0.24,-6.84 -0.34,-10.24 -3.02,-0.06 -6.02,-0.08 -9.02,-0.12 -1.2,-4.32 -2.06,-8.72 -3.3,-13.02 4.1,-0.12 8.22,-0.24 12.32,-0.34 0.02,-2.78 0.04,-5.54 0.06,-8.3 z"
     id="path24"
     inkscape:connector-curvature="0"
     style="fill:#f4722b" />
  <path
     d="m 578.74,275.86 c -0.1,-4.82 -0.1,-9.62 0.14,-14.42 8,0.22 16,0.04 23.98,-0.48 0.8,4.02 1.6,8.02 2.42,12.04 3.76,-0.02 7.54,0 11.32,0.02 2.52,7.68 2.82,15.78 2.7,23.8 -3.52,0.94 -7.02,1.98 -10.5,3.08 0.3,4.94 0.32,9.88 0.56,14.82 -7.88,2.16 -16.06,2.62 -24.18,2.6 -1.2,-4.7 -2.22,-9.44 -2.72,-14.26 -3.06,-0.12 -6.14,-0.2 -9.18,-0.26 -0.14,-8.12 0.26,-16.36 -2.04,-24.22 2.64,-0.4 5.16,-1.44 7.5,-2.72 z"
     id="path26"
     inkscape:connector-curvature="0"
     style="fill:#f4722b" />
  <path
     d="m 498.18,768.16 c 10.96,2.1 21.84,4.5 32.74,6.9 -4.54,5.34 -9.22,10.56 -13.96,15.72 5.28,3.48 10.58,6.94 16.02,10.2 -11.64,6.74 -23.34,13.34 -35,20.06 7.02,6.3 14.02,12.62 21,18.96 -7.94,9.16 -16.26,17.96 -23.98,27.3 4.46,6.32 8.74,12.74 12.98,19.2 -7.46,11.76 -14.92,23.52 -22.5,35.2 -2.86,-9 -2.2,-18.5 -2.2,-27.78 -0.08,-13.12 1.82,-26.26 5.66,-38.82 2.06,-7.52 4.26,-15.78 1.02,-23.28 -5.6,-15.16 7.36,-28.56 17.92,-37.64 -3.32,-8.66 -7.18,-17.1 -9.7,-26.02 z"
     id="path28"
     inkscape:connector-curvature="0"
     style="fill:#f4722b" />
</svg>
