<?xml version="1.0" encoding="UTF-8" ?>
<!DOCTYPE svg PUBLIC "-//W3C//DTD SVG 1.1//EN" "http://www.w3.org/Graphics/SVG/1.1/DTD/svg11.dtd">
<svg width="516pt" height="514pt" viewBox="0 0 516 514" version="1.1" xmlns="http://www.w3.org/2000/svg">
<path fill="#3e3e3e" opacity="1.00" d=" M 0.00 0.00 L 516.00 0.00 L 516.00 514.00 L 0.00 514.00 L 0.00 0.00 Z" />
<path fill="#f4722b" opacity="1.00" d=" M 369.47 40.17 C 371.24 41.19 373.01 42.22 374.79 43.24 C 374.01 50.81 372.30 58.31 372.37 65.96 C 372.25 77.66 372.10 89.41 373.50 101.05 C 373.65 110.06 374.96 118.98 375.75 127.95 C 377.46 141.20 378.32 154.65 382.15 167.52 C 383.90 177.77 387.33 187.61 390.50 197.49 C 392.57 203.42 394.30 209.47 396.83 215.23 C 402.24 226.22 406.54 237.70 411.97 248.68 C 410.32 249.79 408.68 250.90 407.02 251.98 C 403.64 244.64 399.88 237.46 397.04 229.88 C 394.42 223.21 390.59 217.07 388.47 210.19 C 383.93 196.18 378.72 182.32 376.07 167.79 C 372.44 154.10 370.92 139.99 369.45 125.95 C 369.17 113.26 366.71 100.73 366.60 88.03 C 366.46 78.41 366.04 68.76 366.69 59.15 C 367.48 52.80 368.19 46.44 369.47 40.17 Z" />
<path fill="#f5e5c1" opacity="1.00" d=" M 144.36 40.36 C 150.45 42.89 156.28 46.10 162.77 47.63 C 172.70 49.48 180.94 55.75 190.18 59.46 C 200.46 63.56 210.89 67.37 220.82 72.30 C 229.37 76.40 238.99 79.25 245.66 86.35 C 248.47 88.94 251.27 91.77 252.57 95.46 C 254.34 100.52 256.49 105.44 258.83 110.26 C 261.97 117.94 264.41 125.91 266.14 134.03 C 267.67 140.64 269.72 147.13 271.13 153.77 C 279.39 151.19 283.51 142.86 290.71 138.67 C 295.76 135.41 300.16 130.92 306.07 129.18 C 314.44 126.37 323.43 127.48 331.99 128.73 C 338.87 129.65 345.03 133.67 352.07 133.73 C 357.33 134.31 362.67 134.82 367.76 136.29 C 369.97 136.85 369.42 139.36 369.46 141.07 C 363.70 142.70 358.64 145.88 353.20 148.25 C 350.24 149.26 350.08 152.78 349.18 155.29 C 347.02 164.27 344.54 173.27 340.27 181.51 C 333.86 193.31 326.72 204.69 320.30 216.50 C 314.80 226.26 306.73 234.17 300.24 243.24 C 297.93 246.22 295.27 248.89 292.88 251.81 C 288.68 256.88 282.79 260.06 277.14 263.24 C 267.24 268.82 256.64 273.69 245.26 275.14 C 239.04 275.86 232.75 276.90 226.49 275.96 C 219.06 275.34 212.10 272.52 204.98 270.53 C 200.14 268.97 195.15 267.74 190.57 265.46 C 181.38 260.81 171.56 256.31 165.19 247.85 C 159.56 239.93 153.64 231.92 150.83 222.48 C 147.22 226.00 143.64 229.55 140.28 233.31 C 136.32 237.72 131.79 241.68 128.65 246.77 C 124.90 252.86 120.97 258.90 116.21 264.26 C 114.77 265.89 112.49 267.09 110.32 266.12 C 100.14 262.01 91.04 255.75 81.79 249.93 C 78.66 247.82 73.51 248.90 71.87 244.86 C 70.64 242.08 72.86 239.45 74.93 237.85 C 79.75 234.15 85.34 231.64 90.46 228.39 C 96.41 224.61 102.18 220.51 108.49 217.33 C 119.33 212.40 130.50 208.22 141.29 203.19 C 141.41 202.62 141.66 201.47 141.78 200.90 C 147.05 198.47 152.17 195.65 157.74 193.95 C 162.45 192.59 166.18 189.17 170.82 187.62 C 175.37 186.10 179.33 183.37 183.45 181.00 C 183.56 179.15 184.21 176.91 182.70 175.41 C 179.55 171.88 175.45 169.21 173.03 165.03 C 176.49 162.46 180.97 160.52 182.42 156.11 C 179.12 148.01 170.88 143.50 166.69 135.94 C 168.07 130.94 174.93 127.45 173.36 121.51 C 165.56 114.57 153.60 115.33 145.93 108.10 C 149.79 104.22 154.74 100.32 154.94 94.36 C 152.42 89.15 151.08 83.48 149.05 78.07 C 145.47 65.83 145.85 52.93 144.36 40.36 Z" />
<path fill="#f4722b" opacity="1.00" d=" M 405.08 53.71 C 411.67 51.16 418.12 48.24 424.84 46.05 C 421.70 53.74 419.62 61.95 415.11 69.02 C 412.48 73.31 408.54 76.59 404.41 79.36 C 400.50 82.12 395.46 81.60 391.05 82.95 C 387.76 83.97 384.34 83.29 381.07 82.62 C 381.41 78.06 382.88 73.66 384.76 69.51 C 389.18 61.84 396.96 56.79 405.08 53.71 Z" />
<path fill="#f4722b" opacity="1.00" d=" M 314.07 81.59 C 317.33 81.06 320.69 80.49 323.95 81.35 C 332.62 83.47 341.73 86.23 348.07 92.87 C 352.94 97.91 358.49 102.96 360.42 109.96 C 360.75 113.64 356.13 115.52 353.02 115.66 C 345.06 115.65 335.62 115.53 329.95 109.01 C 322.26 101.42 318.92 90.97 314.07 81.59 Z" />
<path fill="#f4722b" opacity="1.00" d=" M 394.63 147.80 C 402.38 133.61 415.68 122.03 431.69 118.47 C 431.07 129.03 428.68 139.54 424.36 149.21 C 422.23 154.05 417.69 156.97 413.23 159.40 C 408.25 162.95 402.97 166.33 396.95 167.81 C 393.22 166.93 391.35 162.64 391.33 159.09 C 390.99 155.04 392.77 151.27 394.63 147.80 Z" />
<path fill="#3e3e3e" opacity="1.00" d=" M 303.28 139.77 C 305.33 136.79 308.92 136.91 312.09 137.54 C 313.45 139.99 313.53 142.71 312.25 145.21 C 310.35 145.69 308.22 147.12 306.36 145.77 C 303.89 144.85 303.53 142.04 303.28 139.77 Z" />
<path fill="#f4722b" opacity="1.00" d=" M 350.20 191.27 C 356.07 191.68 362.52 191.83 367.35 195.65 C 372.00 199.18 377.19 202.71 379.76 208.14 C 380.53 211.44 376.57 212.45 374.08 212.63 C 367.56 213.55 360.97 211.15 355.88 207.17 C 351.89 202.95 350.14 197.00 350.20 191.27 Z" />
<path fill="#f5e5c1" opacity="1.00" d=" M 226.98 307.07 C 231.58 306.17 236.25 304.55 240.97 305.76 C 272.01 308.55 303.05 311.45 334.09 314.19 C 351.84 316.27 369.74 316.50 387.52 318.33 C 397.85 319.70 408.34 319.69 418.62 321.55 C 420.80 321.93 422.13 323.87 423.74 325.20 C 425.99 327.34 429.33 328.29 430.83 331.20 C 434.70 337.10 434.63 344.45 434.35 351.23 C 445.03 353.75 455.52 356.97 466.11 359.79 C 475.19 362.67 484.90 362.39 494.05 364.98 C 495.19 365.36 496.87 365.49 496.81 367.10 C 496.22 369.95 495.59 373.50 492.90 375.12 C 484.26 375.85 475.65 374.04 467.01 373.95 C 457.51 373.61 448.01 373.26 438.53 372.66 C 438.86 375.78 439.47 378.91 439.35 382.07 C 438.09 384.50 435.23 385.16 432.88 386.05 C 432.83 393.72 432.77 401.39 432.76 409.06 C 432.92 416.03 430.57 423.47 425.09 428.06 C 421.99 431.69 416.87 431.46 412.62 432.46 C 406.13 434.11 399.72 436.04 393.29 437.88 C 395.06 434.95 396.14 430.97 399.82 429.86 C 406.17 427.71 412.98 426.96 419.15 424.20 C 421.53 422.90 423.28 420.63 423.85 417.97 C 424.45 414.73 427.25 412.32 427.42 408.98 C 428.04 401.01 428.85 393.03 428.80 385.03 C 432.93 383.05 433.48 378.06 433.09 374.02 C 431.91 372.86 430.19 372.78 428.71 372.35 C 428.71 362.23 428.67 352.10 428.67 341.99 C 428.92 340.54 427.72 339.67 426.67 339.01 C 425.64 334.99 423.36 331.40 419.84 329.12 C 415.68 329.81 411.50 329.23 407.35 328.87 C 404.64 328.51 402.21 330.04 399.65 330.63 C 388.15 333.28 376.63 335.92 365.13 338.56 C 347.52 341.32 330.29 346.05 312.90 349.90 C 292.73 352.91 273.11 358.87 253.09 362.73 C 245.60 363.10 238.54 366.74 230.96 365.91 C 218.67 364.84 206.43 363.06 194.07 363.05 C 148.36 359.31 102.71 354.57 56.98 351.11 C 55.61 350.85 54.28 350.45 52.95 350.07 C 51.46 351.32 49.85 352.51 48.83 354.22 C 47.75 359.05 47.66 364.07 48.05 369.00 C 48.52 378.23 48.15 387.48 48.56 396.71 C 52.15 398.01 56.24 397.48 60.02 398.11 C 79.40 401.07 98.75 404.23 118.12 407.22 C 129.09 409.36 140.32 409.64 151.28 411.78 C 162.18 413.48 173.07 415.20 183.96 416.92 C 191.04 417.52 197.89 419.76 205.03 419.84 C 213.43 420.86 221.81 422.14 230.17 423.52 C 237.63 423.98 245.25 424.17 252.62 422.63 C 257.40 421.12 262.30 420.07 267.11 418.65 C 267.22 420.18 267.33 421.72 267.45 423.27 C 263.14 424.66 258.93 426.32 254.57 427.52 C 239.11 430.68 223.38 427.75 208.08 425.13 C 205.04 424.38 202.06 425.58 199.18 426.39 C 193.03 428.17 186.89 430.00 180.72 431.68 C 166.55 434.40 152.95 439.42 138.98 442.94 C 135.34 443.40 131.69 442.64 128.05 442.66 C 118.35 442.59 108.65 442.71 98.95 442.71 C 96.80 442.71 94.53 442.44 92.77 441.12 C 91.90 432.12 88.32 423.67 86.09 414.96 C 85.63 412.37 83.69 409.50 85.52 407.05 C 73.12 405.59 60.86 403.17 48.50 401.45 C 48.68 414.63 49.04 427.81 49.26 440.99 C 50.38 447.09 55.80 452.15 62.01 452.75 C 68.35 453.56 74.58 455.18 80.95 455.70 C 86.74 455.95 92.37 457.35 98.08 458.19 C 112.24 460.68 126.41 463.07 140.57 465.55 C 146.65 466.98 152.95 466.71 159.05 468.03 C 178.35 471.37 197.65 474.72 216.96 478.02 C 222.00 478.53 227.02 479.17 231.99 480.15 C 239.48 479.70 247.11 478.88 254.18 476.19 C 262.98 473.29 271.75 470.30 280.57 467.50 C 291.36 465.12 301.63 460.95 312.17 457.71 L 312.69 458.24 C 314.64 458.87 316.63 459.59 318.13 461.05 C 313.60 462.67 309.03 464.21 304.44 465.63 C 290.94 468.74 278.15 474.23 264.85 478.04 C 257.66 479.66 250.61 481.97 243.88 485.00 C 241.75 486.04 239.33 485.90 237.02 485.93 C 231.37 485.83 225.64 486.52 220.07 485.24 C 205.56 482.87 191.18 479.52 176.52 478.18 C 164.27 476.01 152.02 473.84 139.77 471.65 C 133.35 470.82 127.28 468.41 120.85 467.64 C 104.42 466.25 88.32 462.43 72.03 459.97 C 66.11 458.76 60.10 458.02 54.18 456.79 C 50.46 456.11 47.51 453.57 44.71 451.21 C 43.57 450.45 43.15 449.17 42.91 447.90 C 39.91 435.04 41.59 421.72 41.19 408.65 C 39.92 408.13 38.65 407.62 37.38 407.13 C 37.19 403.92 37.64 400.72 38.45 397.62 C 39.03 397.36 40.20 396.85 40.79 396.59 C 40.73 385.71 40.72 374.82 40.58 363.95 C 40.27 360.22 40.48 356.38 41.88 352.88 C 45.54 347.83 50.68 343.33 56.98 342.19 C 62.81 340.58 68.90 340.33 74.77 338.88 C 81.99 337.54 88.92 334.97 96.16 333.69 C 106.96 332.67 117.28 328.81 128.10 327.93 C 143.46 324.81 158.75 321.29 174.08 318.00 C 178.04 316.91 182.18 316.84 186.20 316.08 C 199.78 313.01 213.39 310.12 226.98 307.07 Z" />
<path fill="#f5e5c1" opacity="1.00" d=" M 406.58 354.57 C 411.94 352.77 417.59 352.19 423.21 351.76 C 423.11 362.78 423.83 373.84 423.09 384.83 C 419.47 386.86 415.38 387.94 411.49 389.35 C 409.48 390.20 407.49 389.24 405.66 388.44 C 405.62 383.95 405.54 379.45 405.90 374.97 C 406.49 368.18 406.01 361.36 406.58 354.57 Z" />
<path fill="#f5e5c1" opacity="1.00" d=" M 375.97 361.88 C 379.36 361.32 382.63 360.19 386.03 359.70 C 389.15 359.24 391.77 361.35 394.20 362.97 C 394.28 366.35 394.69 369.71 394.61 373.09 C 393.23 376.73 389.60 379.67 390.06 383.92 C 390.58 396.28 391.53 408.63 392.33 420.97 C 392.49 424.73 393.47 428.89 391.15 432.23 C 389.61 434.56 388.14 437.24 385.71 438.74 C 379.30 441.11 372.66 442.82 365.98 444.20 C 354.67 447.52 343.42 451.05 332.14 454.45 C 328.82 455.43 325.32 455.11 321.91 455.15 C 320.07 452.68 317.92 450.39 316.48 447.65 C 316.22 445.42 316.47 443.18 316.59 440.95 C 317.46 428.38 317.60 415.76 318.55 403.19 C 318.82 401.28 319.33 399.40 319.72 397.51 C 317.00 396.95 314.22 396.60 311.69 395.38 C 311.58 390.39 310.64 385.32 311.46 380.38 C 314.75 377.91 319.02 377.32 322.78 375.79 C 328.93 373.25 336.16 373.05 342.33 375.60 C 342.88 379.73 344.60 383.69 344.67 387.88 C 342.30 391.03 337.98 393.44 338.47 397.99 C 338.76 409.32 338.00 420.75 339.50 432.01 C 346.67 430.95 353.08 427.20 359.93 425.01 C 363.62 423.30 368.59 422.79 370.77 418.96 C 371.69 414.72 371.07 410.31 371.26 406.01 C 371.13 398.68 371.64 391.33 371.11 384.03 C 369.48 382.29 367.28 381.25 365.29 380.00 C 364.97 374.92 364.65 369.84 364.71 364.75 C 368.01 362.42 372.18 362.68 375.97 361.88 Z" />
<path fill="#f5e5c1" opacity="1.00" d=" M 395.43 382.04 C 397.11 381.41 398.81 380.80 400.50 380.20 C 400.45 381.96 400.40 383.73 400.36 385.50 C 398.79 385.84 397.22 386.16 395.66 386.51 C 395.58 385.01 395.50 383.52 395.43 382.04 Z" />
<path fill="#f5e5c1" opacity="1.00" d=" M 282.48 387.68 C 285.87 386.84 289.35 387.92 292.69 388.52 C 294.52 389.02 294.10 391.48 294.27 392.95 C 294.29 403.65 295.50 414.34 295.29 425.03 C 293.07 427.05 289.91 427.33 287.23 428.44 C 283.50 429.94 279.45 431.24 275.40 430.44 C 274.19 430.27 273.81 428.87 273.69 427.86 C 272.47 417.29 271.81 406.67 270.79 396.09 C 270.79 394.59 270.19 392.72 271.61 391.64 C 274.96 389.70 278.78 388.72 282.48 387.68 Z" />
<path fill="#f5e5c1" opacity="1.00" d=" M 343.71 397.27 C 351.23 394.98 358.69 392.47 366.21 390.15 C 366.15 392.01 366.10 393.88 366.05 395.75 C 358.50 397.28 351.19 399.68 343.85 401.98 C 343.79 400.40 343.75 398.83 343.71 397.27 Z" />
<path fill="#f5e5c1" opacity="1.00" d=" M 300.45 408.03 C 304.70 406.60 308.92 405.07 313.23 403.82 C 313.03 405.53 312.84 407.25 312.67 408.98 C 308.53 410.00 304.54 411.51 300.51 412.84 C 300.49 411.23 300.47 409.63 300.45 408.03 Z" />
</svg>
