<?xml version="1.0" encoding="UTF-8" ?>
<!DOCTYPE svg PUBLIC "-//W3C//DTD SVG 1.1//EN" "http://www.w3.org/Graphics/SVG/1.1/DTD/svg11.dtd">
<svg width="519pt" height="516pt" viewBox="0 0 519 516" version="1.1" xmlns="http://www.w3.org/2000/svg">
<path fill="#f5e5c1" opacity="1.00" d=" M 0.00 0.00 L 0.11 0.00 C 0.09 0.04 0.03 0.11 0.00 0.14 L 0.00 0.00 Z" />
<path fill="#3e3e3e" opacity="1.00" d=" M 0.11 0.00 L 519.00 0.00 L 519.00 516.00 L 0.00 516.00 L 0.00 0.14 C 0.03 0.11 0.09 0.04 0.11 0.00 Z" />
<path fill="#f4722b" opacity="1.00" d=" M 6.01 6.00 C 175.00 6.00 343.99 6.01 512.98 6.00 C 513.02 41.31 512.98 76.62 513.00 111.93 C 453.39 94.74 391.87 84.61 330.04 79.89 C 314.71 78.75 299.34 78.19 284.00 77.11 C 264.34 76.88 244.67 77.03 225.00 77.03 C 185.58 78.50 146.15 81.37 107.08 87.09 C 73.02 91.86 39.28 98.76 6.00 107.42 C 6.01 73.61 5.99 39.81 6.01 6.00 Z" />
<path fill="#f5e5c1" opacity="1.00" d=" M 235.56 101.27 C 237.79 101.68 239.79 100.47 241.95 100.40 C 249.56 101.72 257.33 100.37 265.01 100.97 C 268.34 101.45 271.54 99.92 274.85 100.28 C 280.34 103.48 287.24 103.07 292.89 106.11 C 294.67 107.00 297.46 108.62 296.32 111.04 C 294.29 113.78 290.75 114.70 287.65 115.67 C 276.06 118.67 263.97 119.06 252.05 118.71 C 244.18 118.38 236.26 117.56 228.66 115.43 C 225.81 114.49 222.55 113.56 220.79 110.92 C 220.03 109.52 221.12 108.18 222.20 107.39 C 225.83 104.62 230.52 104.18 234.68 102.58 C 234.90 102.25 235.34 101.60 235.56 101.27 Z" />
<path fill="#3e3e3e" opacity="1.00" d=" M 239.15 102.20 C 242.12 100.18 245.66 101.56 248.94 101.56 C 257.28 101.57 265.69 101.99 273.94 100.95 C 279.25 103.82 286.79 102.91 290.90 108.10 C 287.42 111.52 282.34 111.73 277.84 112.71 C 272.63 113.88 267.25 113.17 262.01 114.03 C 256.66 114.85 251.35 113.38 246.01 113.50 C 240.82 113.49 235.72 112.37 230.68 111.23 C 228.46 110.78 226.53 109.56 224.91 108.01 C 227.27 104.74 231.48 104.25 234.97 102.87 C 236.26 102.20 237.72 102.11 239.15 102.20 Z" />
<path fill="#f5e5c1" opacity="1.00" d=" M 227.74 107.24 C 232.10 103.59 237.97 103.87 243.10 102.48 C 253.58 102.67 264.08 102.62 274.56 102.46 C 274.91 102.71 275.63 103.21 275.99 103.47 C 280.55 103.12 285.13 105.01 288.61 107.90 C 287.13 109.11 285.52 110.20 283.66 110.71 C 283.98 110.00 284.61 108.59 284.93 107.89 C 281.99 105.11 277.99 104.72 274.36 103.52 C 263.49 103.39 252.61 103.19 241.75 103.52 C 238.24 104.90 233.47 104.67 231.15 108.06 C 231.31 108.74 231.63 110.11 231.79 110.79 C 230.53 109.77 227.31 109.45 227.74 107.24 Z" />
<path fill="#f5e5c1" opacity="1.00" d=" M 232.98 107.98 C 238.17 104.33 244.80 104.24 250.89 103.77 C 261.45 105.12 273.37 101.63 282.77 108.10 C 279.02 112.59 272.35 112.25 267.00 112.85 C 258.70 114.27 250.33 113.06 242.05 112.23 C 238.86 111.41 234.77 111.19 232.98 107.98 Z" />
<path fill="#3e3e3e" opacity="1.00" d=" M 248.34 107.03 C 250.48 103.72 254.64 104.41 258.02 104.39 C 261.26 104.51 265.12 103.62 267.61 106.30 C 267.62 107.75 265.89 107.57 264.90 107.92 C 259.42 108.70 253.65 108.80 248.34 107.03 Z" />
<path fill="#f4722b" opacity="1.00" d=" M 250.83 106.69 C 253.22 103.60 257.67 105.07 261.07 104.78 C 262.33 105.00 265.70 104.39 264.85 106.71 C 260.24 107.73 255.45 107.38 250.83 106.69 Z" />
<path fill="#f5e5c1" opacity="1.00" d=" M 237.51 145.62 C 258.27 143.89 279.38 144.37 299.85 148.45 C 306.16 150.08 313.16 151.38 318.04 156.03 C 320.25 158.02 319.13 161.39 316.89 162.84 C 311.99 166.36 305.98 167.83 300.19 169.18 C 281.74 173.07 262.74 173.43 243.97 172.57 C 231.72 171.68 219.30 170.44 207.66 166.30 C 204.36 164.90 200.42 163.51 198.81 160.02 C 197.86 156.92 201.02 154.72 203.33 153.40 C 213.90 148.06 225.93 146.98 237.51 145.62 Z" />
<path fill="#3e3e3e" opacity="1.00" d=" M 238.51 146.51 C 244.29 145.36 250.18 146.04 256.03 145.87 C 262.60 146.03 269.22 145.52 275.76 146.40 C 285.91 147.44 296.41 147.99 305.94 151.97 C 307.70 152.76 310.71 154.61 309.05 156.85 C 305.59 160.23 300.48 161.01 295.96 162.10 C 283.14 164.39 270.03 165.56 257.03 164.92 C 255.06 165.10 253.08 165.33 251.09 165.25 C 238.74 164.57 226.21 164.05 214.22 160.73 C 211.30 159.69 207.71 158.85 206.16 155.87 C 206.29 153.50 208.80 152.50 210.64 151.63 C 219.48 148.05 229.14 147.52 238.51 146.51 Z" />
<path fill="#f5e5c1" opacity="1.00" d=" M 213.40 152.30 C 223.78 148.15 235.13 148.46 246.01 146.90 C 253.67 146.62 261.34 146.71 268.99 146.83 C 280.25 148.23 291.94 148.08 302.61 152.43 C 304.07 153.15 306.77 154.49 305.58 156.47 C 302.91 159.34 298.76 160.03 295.09 160.82 C 297.05 159.59 300.31 158.87 300.43 156.11 C 299.66 153.77 297.01 152.94 294.97 152.05 C 285.75 148.63 275.77 148.57 266.10 147.57 C 259.38 147.58 252.64 147.28 245.93 147.78 C 236.60 148.95 226.81 148.98 218.18 153.16 C 216.70 153.98 214.42 155.57 215.56 157.49 C 216.91 159.22 219.04 160.03 220.87 161.13 C 217.10 159.82 212.35 159.46 209.87 155.95 C 209.73 154.00 211.93 153.03 213.40 152.30 Z" />
<path fill="#f5e5c1" opacity="1.00" d=" M 226.86 151.71 C 240.33 148.38 254.33 148.27 268.12 148.76 C 276.47 149.51 285.00 150.09 292.93 153.04 C 294.63 153.58 295.89 154.89 297.14 156.11 C 295.72 159.26 292.16 160.18 289.14 161.08 C 276.06 164.46 262.43 164.19 249.03 164.07 C 240.80 163.54 232.46 162.97 224.55 160.49 C 222.25 159.87 220.28 158.50 218.54 156.92 C 219.80 153.46 223.72 152.62 226.86 151.71 Z" />
<path fill="#3e3e3e" opacity="1.00" d=" M 242.88 153.95 C 246.60 148.91 253.37 149.19 258.98 149.17 C 264.23 149.15 270.48 149.19 273.80 154.00 C 268.93 156.47 263.30 156.30 257.98 156.44 C 252.90 156.26 247.49 156.42 242.88 153.95 Z" />
<path fill="#f4722b" opacity="1.00" d=" M 246.21 152.96 C 247.87 150.32 251.31 150.61 254.02 150.24 C 259.13 150.11 264.52 149.69 269.38 151.53 C 271.64 152.39 269.11 153.87 267.90 153.91 C 260.78 155.31 253.10 155.48 246.21 152.96 Z" />
<path fill="#f5e5c1" opacity="1.00" d=" M 231.51 203.87 C 256.38 202.06 281.45 202.67 306.18 205.95 C 317.86 207.76 329.68 209.82 340.56 214.61 C 344.42 216.46 348.79 218.62 350.45 222.86 C 351.54 227.20 347.55 230.35 344.28 232.29 C 335.01 237.43 324.47 239.60 314.16 241.54 C 289.36 245.83 264.07 246.48 238.97 245.38 C 222.94 244.46 206.88 242.77 191.27 238.90 C 184.55 237.11 177.73 235.07 171.90 231.19 C 169.38 229.45 166.67 226.69 167.32 223.34 C 168.40 219.44 172.18 217.23 175.53 215.46 C 193.02 207.41 212.55 205.57 231.51 203.87 Z" />
<path fill="#3e3e3e" opacity="1.00" d=" M 229.49 205.56 C 250.28 204.28 271.19 204.26 291.94 206.10 C 304.36 207.55 317.04 208.64 328.80 213.18 C 331.37 214.37 334.43 215.60 335.67 218.36 C 336.40 221.53 332.85 223.42 330.51 224.64 C 319.95 229.23 308.36 230.61 297.03 232.00 C 276.44 234.06 255.69 234.97 235.04 233.41 C 219.16 232.32 203.04 231.16 187.82 226.18 C 184.35 224.70 179.38 223.37 178.71 219.03 C 180.08 215.00 184.69 213.67 188.28 212.27 C 201.60 208.03 215.62 206.67 229.49 205.56 Z" />
<path fill="#f5e5c1" opacity="1.00" d=" M 218.99 208.09 C 246.35 205.14 274.05 205.37 301.36 208.76 C 309.94 210.23 318.83 211.34 326.70 215.28 C 328.87 216.31 331.74 218.97 329.39 221.30 C 324.91 225.21 318.76 226.47 313.10 227.68 C 316.27 225.89 320.97 224.91 321.92 220.89 C 321.70 217.14 317.45 215.69 314.55 214.35 C 299.05 208.63 282.27 208.19 265.95 207.20 C 255.01 206.32 244.07 207.56 233.14 208.09 C 221.08 209.32 208.66 210.36 197.48 215.42 C 195.15 216.63 191.61 218.76 192.78 221.89 C 194.72 225.24 198.73 226.38 202.08 227.79 C 197.13 226.93 192.21 225.56 187.73 223.25 C 186.18 222.27 184.10 220.94 184.31 218.84 C 185.32 216.38 187.88 215.19 190.16 214.18 C 199.34 210.45 209.29 209.57 218.99 208.09 Z" />
<path fill="#f5e5c1" opacity="1.00" d=" M 255.53 208.61 C 270.27 208.60 285.10 209.44 299.59 212.31 C 304.67 213.53 310.03 214.58 314.41 217.59 C 316.01 218.62 317.32 221.03 315.57 222.58 C 312.76 225.54 308.58 226.58 304.80 227.77 C 290.20 231.59 275.01 232.33 259.98 232.50 C 242.77 232.50 225.29 232.04 208.58 227.47 C 204.88 226.19 200.42 225.14 198.22 221.61 C 197.53 217.81 202.29 216.25 205.05 215.02 C 221.28 209.67 238.59 209.06 255.53 208.61 Z" />
<path fill="#3e3e3e" opacity="1.00" d=" M 245.48 210.43 C 254.32 209.08 263.46 208.97 272.25 210.75 C 276.01 211.39 279.03 213.98 281.34 216.87 C 277.36 219.49 272.47 219.80 267.88 220.29 C 259.00 220.93 250.00 220.91 241.22 219.38 C 238.87 219.02 236.64 218.16 234.68 216.83 C 237.25 213.35 241.17 210.98 245.48 210.43 Z" />
<path fill="#f4722b" opacity="1.00" d=" M 247.51 211.59 C 256.79 210.85 266.69 210.01 275.53 213.48 C 277.72 215.33 274.16 216.51 272.68 216.82 C 263.02 218.91 252.80 218.90 243.16 216.71 C 241.99 216.22 239.59 215.91 239.92 214.20 C 241.93 212.30 244.92 212.12 247.51 211.59 Z" />
<path fill="#f5e5c1" opacity="1.00" d=" M 248.38 277.32 C 282.84 276.74 317.50 278.41 351.42 284.82 C 364.44 287.41 377.51 290.58 389.51 296.41 C 394.57 299.05 400.10 302.30 402.21 307.92 C 403.60 312.66 400.39 317.06 396.79 319.77 C 389.69 325.11 381.16 328.09 372.76 330.71 C 349.77 337.43 325.84 340.23 302.02 342.13 C 274.39 344.01 246.63 344.00 219.01 342.07 C 196.56 340.28 174.07 337.58 152.30 331.66 C 143.05 328.95 133.67 325.91 125.73 320.31 C 122.06 317.63 118.31 313.39 119.46 308.50 C 120.98 303.26 125.89 299.98 130.40 297.42 C 141.36 291.62 153.48 288.47 165.52 285.80 C 192.76 280.16 220.60 277.91 248.38 277.32 Z" />
<path fill="#3e3e3e" opacity="1.00" d=" M 220.40 280.90 C 261.27 278.73 302.48 279.48 342.93 286.13 C 353.40 288.19 364.13 290.28 373.62 295.36 C 376.64 297.12 380.77 300.17 379.28 304.20 C 377.47 307.75 373.69 309.67 370.23 311.28 C 361.20 315.19 351.50 317.18 341.87 318.99 C 320.12 322.82 298.03 324.04 276.01 325.13 C 261.37 325.60 246.71 325.58 232.09 324.68 C 209.31 323.47 186.43 321.84 164.13 316.81 C 157.02 315.11 149.85 313.19 143.37 309.72 C 140.92 308.30 138.27 306.57 137.33 303.75 C 136.47 300.62 139.01 297.99 141.40 296.42 C 147.32 292.58 154.22 290.67 160.97 288.87 C 180.45 284.18 200.46 282.27 220.40 280.90 Z" />
<path fill="#f5e5c1" opacity="1.00" d=" M 198.09 285.26 C 240.90 280.60 284.26 281.01 327.01 286.18 C 339.16 288.36 351.59 290.06 363.02 294.99 C 366.02 296.44 369.50 298.04 370.85 301.32 C 371.71 305.38 367.34 307.73 364.34 309.32 C 357.66 312.28 350.57 314.65 343.30 315.52 C 348.35 313.67 354.02 311.85 357.34 307.33 C 359.46 304.49 357.39 300.91 354.89 299.16 C 348.53 294.54 340.71 292.74 333.29 290.57 C 307.59 285.09 281.20 283.59 254.97 283.86 C 234.85 283.81 214.68 285.07 194.82 288.37 C 187.04 289.43 179.42 291.47 171.98 293.98 C 167.43 295.69 162.51 297.52 159.42 301.48 C 158.00 303.20 157.97 305.88 159.40 307.61 C 162.71 311.96 168.24 313.48 173.00 315.68 C 165.08 314.02 157.02 312.04 149.96 307.97 C 147.75 306.51 144.72 304.05 145.96 301.07 C 147.77 297.48 151.78 295.86 155.25 294.32 C 168.93 288.87 183.67 287.47 198.09 285.26 Z" />
<path fill="#f5e5c1" opacity="1.00" d=" M 243.30 286.20 C 267.01 285.32 290.84 286.38 314.31 289.94 C 324.60 291.74 335.17 293.57 344.51 298.48 C 347.16 299.93 350.67 302.71 349.30 306.14 C 347.41 309.71 343.38 311.31 339.88 312.85 C 329.47 316.87 318.37 318.69 307.36 320.20 C 287.15 322.96 266.70 323.02 246.35 322.76 C 227.47 322.50 208.55 320.94 190.08 316.89 C 183.98 315.42 177.80 313.81 172.26 310.77 C 169.96 309.43 167.41 307.72 166.82 304.93 C 166.77 302.29 169.07 300.42 171.06 299.07 C 176.96 295.43 183.81 293.79 190.47 292.16 C 207.82 288.37 225.59 286.89 243.30 286.20 Z" />
<path fill="#3e3e3e" opacity="1.00" d=" M 235.75 289.82 C 242.34 287.95 249.22 287.52 256.03 287.27 C 265.20 287.10 274.52 287.40 283.43 289.79 C 288.29 290.94 291.79 294.74 295.25 298.08 C 292.41 301.84 287.24 302.04 283.00 303.01 C 267.17 305.17 251.00 305.22 235.18 302.87 C 231.20 301.96 226.40 301.71 223.71 298.21 C 226.90 294.44 230.92 291.15 235.75 289.82 Z" />
<path fill="#f4722b" opacity="1.00" d=" M 231.06 294.56 C 235.39 291.41 240.83 290.80 245.99 290.17 C 256.54 289.02 267.25 289.18 277.74 290.76 C 281.50 291.45 285.64 292.12 288.37 295.08 C 287.18 296.44 285.80 297.68 283.99 298.09 C 276.23 300.44 268.04 300.87 259.99 300.89 C 252.12 300.91 244.16 300.54 236.52 298.48 C 234.34 297.83 231.73 297.01 231.06 294.56 Z" />
<path fill="#f5e5c1" opacity="1.00" d=" M 250.38 382.45 C 285.00 381.92 319.63 383.05 354.10 386.27 C 386.18 389.27 418.25 393.86 449.38 402.44 C 462.07 406.07 474.72 410.26 486.30 416.68 C 492.27 420.08 498.26 424.06 502.07 429.92 C 505.36 434.68 505.47 441.44 502.27 446.27 C 498.32 452.31 492.21 456.50 486.01 459.97 C 473.41 466.88 459.61 471.20 445.83 475.01 C 402.46 486.41 357.61 490.61 312.98 493.19 C 303.65 493.46 294.33 493.78 285.00 493.86 C 264.00 494.77 242.99 493.74 221.99 493.29 C 195.09 492.00 168.22 489.74 141.52 486.05 C 116.00 482.26 90.49 477.43 66.07 468.91 C 55.38 465.02 44.64 460.52 35.73 453.30 C 31.23 449.51 26.83 444.32 27.14 438.07 C 26.95 433.82 29.19 429.93 31.96 426.88 C 38.36 419.83 47.06 415.47 55.64 411.66 C 76.96 402.65 99.71 397.66 122.40 393.49 C 138.69 390.48 155.18 388.78 171.61 386.65 C 189.39 385.40 207.14 383.50 224.99 383.24 C 233.44 382.53 241.92 382.60 250.38 382.45 Z" />
<path fill="#3e3e3e" opacity="1.00" d=" M 161.07 391.50 C 192.63 388.47 224.33 386.65 256.04 386.86 C 289.23 386.53 322.42 387.72 355.46 390.94 C 384.88 394.53 414.78 397.34 442.95 407.19 C 449.84 409.71 456.88 412.61 462.32 417.68 C 464.46 419.57 465.65 422.19 466.13 424.97 C 464.84 432.74 456.93 436.53 450.57 439.66 C 431.31 447.90 410.47 451.51 389.89 454.80 C 353.16 460.27 316.02 462.26 278.96 463.56 C 258.99 463.78 239.00 463.71 219.06 462.60 C 179.59 460.44 139.92 457.65 101.29 448.80 C 88.89 445.72 76.23 442.48 65.24 435.73 C 61.54 433.24 57.30 429.87 57.22 425.01 C 57.18 420.09 61.48 416.71 65.18 414.19 C 74.90 408.15 86.07 405.03 97.04 402.14 C 118.03 396.67 139.62 394.33 161.07 391.50 Z" />
<path fill="#f5e5c1" opacity="1.00" d=" M 193.75 392.81 C 237.78 389.79 281.99 389.74 326.02 392.59 C 341.69 393.52 357.26 395.55 372.90 396.71 C 392.81 400.28 413.02 403.08 432.15 409.92 C 438.05 412.26 444.21 414.68 448.81 419.21 C 451.24 421.53 452.54 425.45 450.50 428.43 C 447.10 433.65 441.05 436.15 435.59 438.62 C 425.19 442.72 414.24 445.65 403.31 447.68 C 404.11 446.28 406.56 446.86 407.92 446.03 C 414.90 443.08 422.49 440.36 427.52 434.40 C 429.95 431.70 430.54 427.47 428.69 424.30 C 426.48 420.55 422.74 418.05 419.02 415.97 C 411.45 411.83 403.19 409.16 394.89 406.95 C 385.63 403.52 375.69 402.88 366.10 400.81 C 332.04 395.43 297.50 393.22 263.04 393.55 C 226.23 393.16 189.29 395.29 152.98 401.49 C 143.08 402.52 133.55 405.45 123.98 408.00 C 115.52 410.61 106.91 413.43 99.59 418.56 C 96.23 421.06 92.70 424.48 92.87 429.01 C 93.32 433.36 96.87 436.43 100.17 438.85 C 105.94 442.76 112.56 445.14 119.05 447.53 C 111.83 446.27 104.74 444.34 97.73 442.23 C 90.54 439.94 83.24 437.46 77.06 433.04 C 74.24 430.88 71.07 427.88 71.58 423.98 C 72.54 420.03 76.03 417.45 79.27 415.36 C 87.51 410.47 96.82 407.81 106.00 405.32 C 117.35 402.76 128.72 399.71 140.36 399.14 C 157.93 395.44 175.89 394.34 193.75 392.81 Z" />
<path fill="#f5e5c1" opacity="1.00" d=" M 236.46 397.50 C 259.34 396.98 282.25 396.95 305.10 398.46 C 330.42 400.14 355.80 402.78 380.51 408.71 C 389.07 410.88 397.64 413.39 405.48 417.51 C 409.23 419.56 413.18 422.04 414.98 426.09 C 416.37 429.10 414.67 432.42 412.48 434.54 C 408.40 438.52 403.05 440.84 397.83 442.94 C 382.69 448.62 366.68 451.50 350.75 453.92 C 329.98 456.86 309.04 458.85 288.06 458.88 C 275.39 459.87 262.68 459.23 249.99 459.41 C 242.96 459.70 235.99 458.59 228.97 458.88 C 201.41 458.01 173.83 455.19 146.85 449.36 C 136.59 446.93 126.22 444.26 116.86 439.27 C 113.19 437.14 109.20 434.60 107.60 430.48 C 106.22 425.83 110.18 422.08 113.64 419.70 C 122.60 413.87 133.09 411.08 143.33 408.44 C 173.85 401.34 205.22 398.84 236.46 397.50 Z" />
<path fill="#3e3e3e" opacity="1.00" d=" M 230.20 402.04 C 245.95 398.98 262.11 398.88 278.09 399.64 C 287.93 400.40 297.89 401.45 307.26 404.72 C 311.96 406.23 315.28 410.02 319.05 412.99 C 320.51 414.25 322.20 415.40 323.11 417.16 C 323.00 420.18 319.76 421.37 317.42 422.38 C 305.39 426.58 292.53 427.11 279.96 428.21 C 259.09 428.92 238.02 428.74 217.47 424.68 C 212.46 423.38 206.51 422.61 203.34 418.02 C 209.44 409.12 219.63 403.58 230.20 402.04 Z" />
<path fill="#f4722b" opacity="1.00" d=" M 254.41 403.27 C 271.13 402.89 288.22 402.91 304.41 407.65 C 307.12 408.72 310.84 409.71 311.51 413.00 C 310.46 415.42 307.77 416.44 305.50 417.39 C 292.16 421.90 277.93 421.84 264.02 422.34 C 250.32 421.94 236.37 421.80 223.14 417.76 C 220.63 416.84 217.80 415.93 216.22 413.62 C 215.43 410.64 219.01 409.32 221.15 408.34 C 231.78 404.52 243.22 403.77 254.41 403.27 Z" />
</svg>
