<?xml version="1.0" encoding="UTF-8" ?>
<!DOCTYPE svg PUBLIC "-//W3C//DTD SVG 1.1//EN" "http://www.w3.org/Graphics/SVG/1.1/DTD/svg11.dtd">
<svg width="516pt" height="514pt" viewBox="0 0 516 514" version="1.1" xmlns="http://www.w3.org/2000/svg">
<path fill="#3e3e3e" opacity="1.00" d=" M 0.00 0.00 L 516.00 0.00 L 516.00 514.00 L 0.00 514.00 L 0.00 0.00 Z" />
<path fill="#f5e5c1" opacity="1.00" d=" M 274.04 42.98 C 277.09 42.72 280.18 41.83 283.22 42.65 C 298.05 45.78 312.84 49.13 327.65 52.37 C 331.62 53.49 335.75 53.68 339.80 54.33 C 355.87 57.79 371.90 61.40 387.98 64.78 C 397.16 65.62 406.05 68.19 415.07 69.95 C 426.67 70.96 437.52 75.67 449.05 77.17 C 457.19 78.29 466.20 79.45 471.93 86.05 C 475.84 89.18 476.82 94.38 476.49 99.13 C 476.20 110.59 476.34 122.07 476.19 133.53 C 476.79 133.81 477.98 134.37 478.58 134.65 C 479.36 137.77 479.77 140.98 479.65 144.20 C 478.41 144.61 477.16 145.01 475.93 145.41 C 475.26 158.58 477.17 171.99 474.08 184.94 C 473.65 188.31 470.09 189.70 467.77 191.65 C 465.25 191.57 462.53 191.08 460.23 192.40 C 452.17 196.79 442.78 196.94 433.99 198.87 C 422.00 200.61 410.18 203.59 398.07 204.39 C 392.61 204.98 387.32 206.44 382.03 207.80 C 368.17 210.26 354.32 212.74 340.46 215.18 C 325.82 216.52 311.46 219.86 296.97 222.24 C 291.41 223.49 285.71 222.86 280.08 222.93 C 277.74 222.90 275.29 223.05 273.13 222.00 C 266.37 218.97 259.30 216.65 252.07 215.02 C 238.79 211.20 226.00 205.73 212.51 202.62 C 207.99 201.25 203.53 199.67 199.06 198.14 C 199.35 197.68 199.93 196.77 200.23 196.31 C 200.79 196.31 201.92 196.30 202.49 196.30 C 203.65 195.04 205.23 194.61 206.81 195.37 C 216.43 198.28 225.77 202.15 235.62 204.28 C 244.72 207.06 253.71 210.22 262.76 213.18 C 269.83 215.85 277.45 216.72 284.95 217.14 C 289.93 216.23 294.94 215.49 299.99 215.02 C 320.97 211.50 341.91 207.71 362.89 204.24 C 373.36 203.58 383.59 201.12 393.93 199.51 C 409.45 197.10 424.81 193.55 440.47 192.22 C 445.67 191.21 450.90 190.41 456.12 189.53 C 460.63 188.81 464.62 185.59 466.54 181.48 C 468.74 177.71 467.51 173.15 467.83 169.02 C 468.30 158.84 468.24 148.64 468.49 138.45 C 456.16 140.17 443.93 142.58 431.57 144.04 C 433.24 146.89 431.17 150.00 430.65 152.89 C 428.46 161.29 425.07 169.45 424.20 178.13 C 422.70 179.24 420.82 179.63 419.00 179.68 C 406.31 179.89 393.60 179.18 380.93 180.09 C 376.42 180.22 372.25 178.17 367.94 177.14 C 357.67 174.37 347.60 170.78 337.11 168.87 C 328.69 166.80 320.50 163.84 312.04 161.93 C 304.25 162.55 296.55 164.31 288.79 165.33 C 280.24 165.99 271.55 166.26 263.09 164.67 C 258.48 163.52 254.07 161.71 249.55 160.27 C 249.66 158.78 249.77 157.29 249.89 155.81 C 253.40 156.70 256.94 157.46 260.42 158.47 C 268.66 161.34 277.56 160.97 286.14 160.59 C 294.74 159.29 303.33 157.84 311.98 156.85 C 316.97 156.72 321.86 155.74 326.74 154.77 C 343.53 152.49 360.22 149.43 377.00 147.08 C 392.85 145.65 408.46 142.56 424.19 140.27 C 438.95 138.06 453.63 135.10 468.54 134.04 C 468.63 125.37 468.64 116.70 468.85 108.04 C 469.24 102.42 469.47 96.70 468.15 91.19 C 467.12 89.53 465.54 88.33 464.09 87.08 C 458.88 88.84 453.33 88.61 447.93 89.03 C 409.63 92.19 371.38 95.93 333.08 99.20 C 327.76 99.90 322.40 100.12 317.05 100.23 C 305.98 100.43 295.04 102.40 284.01 103.00 C 279.66 103.15 275.46 101.86 271.27 100.87 C 267.56 99.98 263.70 99.91 259.99 99.03 C 245.08 95.54 230.15 92.17 215.23 88.70 C 194.10 85.67 173.69 78.81 152.55 75.69 C 138.70 72.45 124.71 69.61 111.01 65.85 C 106.38 65.95 101.76 66.94 97.13 66.13 C 93.65 68.41 91.42 71.97 90.31 75.94 C 89.42 76.78 88.06 77.49 88.34 78.95 C 88.30 89.07 88.31 99.18 88.28 109.30 C 86.77 109.74 85.18 110.07 83.84 110.94 C 83.61 115.04 84.00 120.01 88.20 122.03 C 88.14 129.74 88.92 137.41 89.49 145.08 C 89.41 148.81 92.38 151.52 93.16 155.02 C 93.77 157.63 95.45 159.89 97.81 161.17 C 103.99 163.96 110.83 164.70 117.20 166.87 C 120.86 168.00 121.94 171.96 123.72 174.88 C 117.85 173.17 111.98 171.50 106.09 169.87 C 102.30 168.80 98.23 168.82 94.60 167.21 C 87.84 162.92 84.16 154.89 84.25 147.01 C 84.23 139.03 84.18 131.06 84.12 123.08 C 81.79 122.13 78.91 121.51 77.66 119.08 C 77.52 115.92 78.13 112.79 78.47 109.65 C 67.64 110.36 56.79 110.71 45.95 111.08 C 39.64 111.61 33.32 112.26 26.98 112.34 C 21.98 113.23 19.86 106.66 20.57 102.83 C 28.70 99.79 37.55 99.87 45.96 98.07 C 58.23 94.96 70.33 91.15 82.64 88.23 C 82.30 80.79 82.37 72.44 87.46 66.45 C 90.02 64.34 93.01 62.79 95.29 60.33 C 97.26 58.19 100.36 58.23 103.02 57.85 C 111.81 56.62 120.70 56.52 129.49 55.33 C 147.62 53.48 165.87 53.23 183.96 51.08 C 214.00 48.49 244.01 45.57 274.04 42.98 Z" />
<path fill="#f5e5c1" opacity="1.00" d=" M 93.79 88.76 C 99.41 89.19 105.06 89.78 110.43 91.57 C 110.67 102.86 111.39 114.14 111.36 125.43 C 109.51 126.23 107.50 127.20 105.48 126.34 C 101.60 124.95 97.52 123.86 93.92 121.82 C 93.15 110.83 93.90 99.78 93.79 88.76 Z" />
<path fill="#f5e5c1" opacity="1.00" d=" M 122.81 99.95 C 125.24 98.37 127.84 96.25 130.95 96.70 C 134.33 97.19 137.58 98.31 140.95 98.86 C 144.76 99.64 148.92 99.48 152.29 101.71 C 152.34 106.81 152.05 111.90 151.71 116.98 C 149.73 118.25 147.55 119.29 145.90 121.01 C 145.33 130.32 145.92 139.68 145.74 149.01 C 145.86 152.25 145.05 156.62 148.53 158.45 C 153.08 160.89 158.12 162.22 162.88 164.21 C 167.72 165.89 172.33 168.42 177.48 169.06 C 179.01 157.81 178.24 146.39 178.53 135.07 C 178.93 130.54 174.90 127.78 172.11 124.93 C 172.78 120.76 173.91 116.69 174.69 112.54 C 180.89 110.10 188.05 110.24 194.20 112.78 C 197.95 114.31 202.25 114.90 205.53 117.39 C 206.27 120.88 205.64 124.52 205.60 128.06 C 205.30 129.72 205.88 132.08 204.04 132.99 C 201.92 133.92 199.53 133.92 197.30 134.48 C 198.99 140.51 198.68 146.80 199.26 152.97 C 199.40 163.28 200.35 173.57 200.59 183.88 C 199.78 187.11 196.93 189.42 195.11 192.15 C 191.70 192.12 188.20 192.43 184.89 191.46 C 173.57 188.05 162.29 184.50 150.95 181.18 C 144.07 179.68 137.12 178.11 130.62 175.37 C 127.16 171.86 123.57 167.31 124.39 162.04 C 125.27 150.02 125.95 137.99 126.76 125.96 C 126.87 123.33 127.15 120.66 126.67 118.04 C 125.74 115.14 123.46 112.92 122.40 110.10 C 122.31 106.71 122.71 103.34 122.81 99.95 Z" />
<path fill="#f5e5c1" opacity="1.00" d=" M 116.48 117.20 C 118.18 117.80 119.88 118.41 121.57 119.04 C 121.49 120.52 121.42 122.00 121.34 123.48 C 119.79 123.17 118.24 122.87 116.69 122.56 C 116.62 120.77 116.54 118.98 116.48 117.20 Z" />
<path fill="#f5e5c1" opacity="1.00" d=" M 223.73 125.70 C 228.22 124.48 233.10 123.66 237.56 125.52 C 240.48 126.76 244.36 127.02 246.26 129.83 C 245.64 141.71 244.52 153.61 243.19 165.45 C 242.61 168.67 238.48 167.55 236.19 167.42 C 231.17 166.20 226.28 164.36 221.54 162.29 C 221.73 151.52 222.58 140.77 222.73 130.00 C 222.85 128.54 222.60 126.85 223.73 125.70 Z" />
<path fill="#f5e5c1" opacity="1.00" d=" M 150.77 127.15 C 158.29 129.46 165.76 131.97 173.29 134.27 C 173.25 135.84 173.20 137.41 173.16 138.98 C 165.83 136.70 158.56 134.27 151.02 132.80 C 150.92 130.91 150.84 129.03 150.77 127.15 Z" />
<path fill="#f5e5c1" opacity="1.00" d=" M 203.77 140.81 C 208.07 142.08 212.30 143.60 216.55 145.03 C 216.53 146.63 216.51 148.23 216.49 149.84 C 212.45 148.50 208.46 147.01 204.34 145.97 C 204.15 144.25 203.96 142.53 203.77 140.81 Z" />
<path fill="#f4722b" opacity="1.00" d=" M 130.32 190.38 C 142.04 188.00 151.58 197.26 162.49 199.66 C 172.25 201.23 181.15 205.75 190.54 208.61 C 194.15 209.43 197.68 210.57 201.09 212.01 C 205.61 213.89 210.52 214.43 215.16 215.90 C 221.50 218.50 228.04 220.61 234.58 222.61 C 240.84 223.35 246.30 226.76 252.43 228.01 C 259.15 231.12 266.04 233.99 273.23 235.83 C 279.77 236.77 286.43 236.42 293.01 236.25 C 301.25 235.28 309.23 232.82 317.50 231.95 C 326.57 229.74 335.89 229.12 345.05 227.38 C 354.23 226.53 362.82 222.74 372.00 221.91 C 377.07 221.61 381.93 219.95 387.01 219.73 C 391.46 219.56 395.63 217.77 400.06 217.38 C 403.80 216.80 407.81 217.14 411.23 215.25 C 416.30 212.70 421.52 210.41 426.97 208.83 C 430.32 207.79 433.77 208.87 437.01 209.79 C 429.68 218.33 422.61 227.19 417.34 237.19 C 414.47 242.21 412.32 247.59 409.65 252.72 C 404.88 261.15 402.99 270.75 399.96 279.85 C 397.51 287.34 399.24 295.26 399.19 302.94 C 399.02 308.44 401.28 313.57 401.84 318.98 C 402.58 325.45 405.77 331.45 405.75 338.05 C 406.05 345.56 409.01 352.60 410.12 359.97 C 409.83 364.43 409.22 368.92 408.12 373.26 C 406.38 376.53 403.82 379.31 402.15 382.64 C 397.60 383.02 391.98 383.24 388.96 379.12 C 386.40 374.77 384.37 370.06 382.91 365.23 C 379.46 348.80 379.54 331.95 376.95 315.41 C 376.42 311.29 376.69 307.09 375.65 303.05 C 374.05 295.10 369.93 287.95 368.35 280.00 C 367.47 277.38 367.46 273.93 364.98 272.22 C 359.32 268.75 355.98 261.63 348.91 260.54 C 341.07 259.90 332.69 257.64 325.22 261.25 C 319.89 263.93 315.19 267.82 311.03 272.05 C 307.11 277.79 303.68 284.01 301.83 290.76 C 300.53 295.31 297.88 299.37 296.92 304.03 C 295.89 308.42 294.70 312.80 292.82 316.92 C 289.48 323.74 289.69 331.53 288.14 338.83 C 287.05 343.76 287.59 348.84 286.80 353.81 C 285.01 364.71 289.32 375.30 290.31 386.04 C 290.28 395.41 295.07 403.80 297.25 412.72 C 298.01 416.63 297.41 420.65 298.01 424.58 C 298.86 430.70 301.31 436.72 300.21 442.99 C 299.34 448.38 299.19 453.99 297.24 459.15 C 294.04 466.44 288.68 473.12 281.43 476.67 C 275.61 479.04 269.20 479.63 262.97 479.54 C 258.87 479.47 256.26 475.70 255.05 472.20 C 252.05 465.43 252.38 457.92 251.26 450.75 C 250.33 444.88 250.52 438.90 250.72 432.98 C 251.01 426.43 254.08 420.52 256.75 414.69 C 259.42 406.35 259.70 397.56 260.98 388.96 C 261.77 382.38 260.61 375.70 261.88 369.17 C 262.94 363.84 262.58 358.38 262.61 352.98 C 262.58 345.63 262.67 338.27 262.60 330.92 C 262.51 323.15 259.57 315.72 259.62 307.94 C 259.62 304.26 259.57 300.51 258.32 297.00 C 256.80 292.46 256.54 287.61 254.90 283.11 C 251.11 274.04 246.54 265.23 240.67 257.31 C 237.38 252.60 232.13 249.89 228.24 245.74 C 222.27 240.91 216.42 234.17 208.04 234.45 C 203.55 234.62 198.40 233.72 194.59 236.68 C 188.08 242.08 185.51 251.25 187.09 259.41 C 188.37 266.15 188.87 273.11 188.00 279.93 C 186.02 286.83 177.63 290.34 171.11 287.90 C 167.95 285.71 165.26 282.75 163.35 279.42 C 160.82 273.62 160.74 267.19 160.31 260.99 C 158.92 253.77 158.95 246.32 156.88 239.22 C 155.05 231.46 153.87 223.37 149.71 216.41 C 145.67 209.57 142.26 202.13 136.39 196.60 C 134.34 194.56 132.32 192.47 130.32 190.38 Z" />
</svg>
