<?xml version="1.0" encoding="UTF-8" ?>
<!DOCTYPE svg PUBLIC "-//W3C//DTD SVG 1.1//EN" "http://www.w3.org/Graphics/SVG/1.1/DTD/svg11.dtd">
<svg width="512pt" height="512pt" viewBox="0 0 512 512" version="1.1" xmlns="http://www.w3.org/2000/svg">
<path fill="#3e3e3e" opacity="1.00" d=" M 0.00 0.00 L 512.00 0.00 L 512.00 512.00 L 0.00 512.00 L 0.00 0.00 Z" />
<path fill="#f5e5c1" opacity="1.00" d=" M 80.71 16.69 C 82.64 15.10 85.27 15.87 87.49 16.16 C 91.96 17.02 96.42 17.87 100.91 18.60 C 103.49 19.15 106.50 19.44 108.26 21.68 C 111.92 26.10 115.00 30.98 118.67 35.40 C 119.66 36.86 121.55 36.99 123.12 37.40 C 224.25 57.68 325.32 78.30 426.46 98.46 C 428.36 98.95 430.11 100.12 430.86 102.01 C 438.70 118.84 446.08 135.93 454.54 152.44 C 464.44 157.97 476.00 160.11 485.57 166.34 C 488.19 168.08 491.43 169.05 493.59 171.38 C 493.58 174.82 491.46 178.11 489.86 181.12 C 487.30 182.40 484.58 180.79 482.20 179.85 C 478.44 178.16 474.71 176.42 470.97 174.71 C 469.33 175.54 467.69 176.38 466.06 177.21 C 470.17 186.29 474.60 195.23 478.82 204.26 C 479.43 205.74 480.36 207.60 479.29 209.11 C 477.95 210.55 476.21 211.52 474.55 212.53 C 464.86 218.15 455.26 223.91 445.56 229.50 C 444.20 230.40 442.41 231.11 442.05 232.90 C 439.54 241.26 437.27 249.70 434.86 258.09 C 433.72 261.52 435.65 264.87 436.45 268.17 C 445.72 299.78 454.89 331.42 463.95 363.09 C 467.04 380.94 469.29 398.94 472.07 416.85 C 472.64 421.22 473.61 425.56 473.80 429.99 C 474.00 432.11 472.06 433.47 470.82 434.89 C 464.12 441.18 457.60 447.65 450.97 454.01 C 448.89 456.14 445.85 456.63 443.01 456.65 C 391.01 459.01 339.02 461.41 287.02 463.68 C 283.21 464.01 277.68 462.61 277.44 458.00 C 276.14 444.02 274.83 430.01 273.77 416.01 C 276.33 407.53 281.62 400.09 284.75 391.81 C 285.17 387.50 284.36 383.18 284.03 378.89 C 281.76 354.52 279.41 330.16 277.23 305.79 C 270.85 301.14 264.33 296.67 257.91 292.08 C 255.13 289.75 251.33 290.58 248.01 290.39 C 239.97 290.17 231.80 290.91 223.91 288.99 C 217.39 287.47 210.71 286.63 204.30 284.71 C 197.19 281.97 190.42 278.46 183.41 275.49 C 179.95 273.87 175.96 272.59 173.71 269.27 C 170.17 264.44 166.88 259.44 163.36 254.59 C 161.46 251.87 159.17 249.21 158.58 245.84 C 153.63 219.86 148.59 193.89 143.67 167.90 C 143.05 164.15 140.87 160.51 137.85 158.26 C 127.32 155.01 116.05 154.07 106.07 149.10 C 98.80 145.56 90.79 143.41 84.03 138.93 C 77.47 132.87 70.34 127.39 64.22 120.87 C 60.58 116.16 56.57 111.77 52.45 107.48 C 51.15 105.93 49.28 104.32 49.62 102.07 C 50.20 96.30 50.90 90.52 51.85 84.80 C 55.90 67.50 60.20 50.26 64.22 32.95 C 64.57 31.53 64.87 30.05 65.66 28.78 C 67.40 27.11 70.03 27.18 72.08 26.11 C 75.32 23.32 77.51 19.53 80.71 16.69 Z" />
<path fill="#3e3e3e" opacity="1.00" d=" M 77.62 29.94 C 79.56 26.30 82.21 22.75 85.72 20.49 C 91.39 21.17 96.96 22.50 102.58 23.51 C 105.79 27.51 108.18 32.46 112.89 34.95 C 111.84 36.97 110.75 38.97 109.57 40.92 C 99.31 38.59 89.01 36.47 78.77 34.08 C 78.35 32.71 77.87 31.35 77.62 29.94 Z" />
<path fill="#3e3e3e" opacity="1.00" d=" M 71.73 51.77 C 72.76 49.98 74.55 47.81 76.88 48.63 C 117.90 56.70 158.83 65.23 199.90 73.09 C 202.57 71.11 205.24 69.09 207.46 66.59 C 209.82 66.55 212.18 66.77 214.49 67.28 C 239.70 72.43 264.97 77.32 290.18 82.50 C 292.23 85.74 294.27 88.98 295.99 92.41 C 335.69 100.51 375.45 108.34 415.17 116.33 C 418.96 117.20 422.87 117.59 426.58 118.78 C 429.09 120.59 430.89 123.29 432.40 125.95 C 431.90 127.61 431.04 129.13 430.28 130.68 C 423.57 129.92 417.07 128.00 410.42 126.89 C 413.11 145.23 415.50 163.61 418.30 181.93 C 430.57 184.13 442.75 186.81 455.01 189.08 C 456.61 189.52 458.86 189.46 459.55 191.34 C 461.99 195.96 464.00 200.80 466.26 205.52 C 455.78 211.61 445.39 217.86 434.90 223.93 C 432.70 225.23 430.16 226.67 429.57 229.39 C 427.01 238.29 424.58 247.23 421.96 256.12 C 420.35 260.44 422.77 264.73 423.78 268.89 C 433.03 300.61 442.32 332.33 451.31 364.12 C 454.68 385.63 457.86 407.19 460.83 428.76 C 453.76 435.09 447.43 442.25 440.17 448.33 C 390.11 451.00 339.99 452.82 289.92 455.34 C 289.15 443.19 287.85 431.09 286.81 418.97 C 286.53 416.94 287.62 415.13 288.40 413.37 C 290.95 408.23 293.47 403.07 296.01 397.93 C 297.14 395.54 298.51 393.00 297.98 390.25 C 295.35 362.22 292.72 334.19 290.13 306.16 C 290.02 303.76 288.34 301.94 286.44 300.66 C 279.58 295.81 272.68 291.02 265.84 286.14 C 263.21 284.24 260.25 282.50 256.93 282.36 C 245.59 281.82 234.06 283.12 222.92 280.42 C 216.97 278.95 210.67 278.57 205.11 275.81 C 199.20 273.01 193.16 270.50 187.27 267.67 C 185.05 266.69 183.89 264.45 182.51 262.60 C 179.43 257.99 176.12 253.54 172.99 248.97 C 171.17 246.38 170.98 243.13 170.34 240.13 C 165.73 215.75 160.96 191.40 156.37 167.01 C 155.76 162.34 152.45 158.77 149.80 155.11 C 148.26 152.91 145.81 151.60 143.25 150.96 C 134.92 148.80 126.45 147.19 118.18 144.80 C 111.10 142.09 104.22 138.87 97.22 135.98 C 93.07 134.41 90.15 130.97 86.92 128.11 C 81.18 122.81 74.90 117.72 71.17 110.70 C 69.24 107.14 66.91 103.79 65.35 100.05 C 66.13 93.56 66.98 87.03 68.59 80.68 C 81.05 82.65 93.50 84.67 105.95 86.69 C 110.32 87.34 113.85 90.24 117.70 92.20 C 122.24 95.04 127.46 96.92 131.53 100.43 C 137.18 109.13 142.05 118.38 148.23 126.74 C 149.30 128.16 151.07 128.69 152.72 129.12 C 214.31 141.29 275.90 153.51 337.46 165.84 C 335.19 151.90 333.10 137.93 330.87 123.98 C 330.14 119.26 329.24 114.55 329.02 109.77 C 319.32 107.79 309.63 105.81 299.95 103.77 C 297.91 108.70 295.79 113.61 293.46 118.41 C 292.19 121.26 288.82 121.97 286.37 123.47 C 281.81 125.60 277.11 129.16 271.81 127.86 C 248.82 122.97 225.83 118.02 202.83 113.16 C 199.69 107.10 196.26 101.16 193.45 94.93 C 193.35 90.77 194.35 86.66 194.79 82.54 C 153.88 74.03 112.89 65.97 71.97 57.52 C 71.90 55.62 71.11 53.63 71.73 51.77 Z" />
<path fill="#f5e5c1" opacity="1.00" d=" M 334.57 111.00 C 337.63 111.54 340.68 112.18 343.73 112.79 C 344.71 117.10 345.13 121.51 345.42 125.91 C 346.50 139.93 348.01 153.92 348.89 167.96 C 347.07 167.65 345.26 167.36 343.45 167.08 C 340.33 148.41 337.62 129.68 334.57 111.00 Z" />
<path fill="#f5e5c1" opacity="1.00" d=" M 349.94 114.23 C 351.52 114.45 353.09 114.68 354.67 114.92 C 356.62 133.48 359.16 151.96 361.00 170.53 C 358.88 170.05 356.76 169.57 354.64 169.13 C 353.12 150.82 351.48 132.53 349.94 114.23 Z" />
<path fill="#f5e5c1" opacity="1.00" d=" M 360.37 116.26 C 362.26 116.67 364.16 117.10 366.05 117.55 C 367.82 135.90 369.50 154.26 371.44 172.60 C 369.77 172.25 368.12 171.90 366.47 171.56 C 366.50 168.38 366.23 165.21 365.78 162.06 C 363.93 146.80 362.22 131.52 360.37 116.26 Z" />
<path fill="#f5e5c1" opacity="1.00" d=" M 371.60 118.61 C 373.84 119.11 376.08 119.56 378.33 119.98 C 376.91 124.26 378.27 128.66 378.76 132.96 C 380.73 147.00 382.64 161.05 384.58 175.10 C 382.01 174.59 379.45 174.10 376.90 173.53 C 375.34 155.20 373.51 136.90 371.60 118.61 Z" />
<path fill="#f5e5c1" opacity="1.00" d=" M 382.97 121.08 C 385.48 121.52 387.97 122.06 390.47 122.61 C 392.89 140.87 394.21 159.26 396.39 177.54 C 394.41 177.13 392.44 176.69 390.46 176.28 C 387.94 157.89 385.21 139.51 382.97 121.08 Z" />
<path fill="#f5e5c1" opacity="1.00" d=" M 396.41 123.92 C 399.45 124.47 402.46 125.13 405.49 125.76 C 405.26 128.48 405.26 131.23 405.69 133.93 C 408.01 149.52 410.05 165.15 412.39 180.74 C 408.89 179.97 405.38 179.25 401.88 178.48 C 400.30 160.27 398.18 142.11 396.41 123.92 Z" />
<path fill="#3e3e3e" opacity="1.00" d=" M 458.40 161.13 C 467.98 165.05 477.70 168.64 487.30 172.55 C 486.67 173.93 486.09 175.32 485.55 176.74 C 481.02 174.75 476.63 172.39 471.95 170.77 C 469.07 169.77 466.45 171.79 463.91 172.83 C 462.09 168.92 460.26 165.02 458.40 161.13 Z" />
<path fill="#f5e5c1" opacity="1.00" d=" M 301.54 171.59 C 302.72 171.11 304.04 171.60 305.26 171.73 C 340.76 178.89 376.33 185.75 411.78 193.19 C 417.16 193.98 418.76 199.69 421.32 203.63 C 422.76 206.54 425.49 209.47 424.37 212.96 C 420.48 228.59 416.53 244.21 412.70 259.85 C 422.22 299.53 431.15 339.35 440.83 378.98 C 443.72 393.73 446.87 408.43 449.82 423.17 C 446.76 426.98 443.91 430.98 440.57 434.55 C 438.63 436.70 435.55 436.73 432.90 437.06 C 396.25 439.13 359.62 441.42 322.98 443.56 C 316.65 443.73 310.35 444.71 304.01 444.48 C 300.96 444.22 297.28 442.57 297.02 439.09 C 296.54 435.55 295.85 431.87 296.48 428.32 C 299.98 421.44 304.68 415.23 308.31 408.41 C 300.18 341.58 292.63 274.68 284.69 207.83 C 284.14 201.80 283.03 195.83 282.71 189.78 C 285.64 185.77 289.73 182.76 293.21 179.23 C 296.02 176.72 298.50 173.82 301.54 171.59 Z" />
<path fill="#f5e5c1" opacity="1.00" d=" M 200.42 185.47 C 205.26 183.01 209.58 179.24 215.09 178.39 C 224.63 176.68 234.65 177.16 243.87 180.23 C 247.16 181.70 251.04 182.92 253.07 186.12 C 253.88 191.74 252.47 197.42 252.53 203.07 C 252.07 208.00 253.14 213.65 249.80 217.81 C 246.40 222.44 243.29 227.27 239.79 231.83 C 236.58 235.34 232.29 237.61 228.57 240.53 C 224.59 243.18 220.99 246.86 216.12 247.80 C 214.52 248.19 212.90 248.49 211.29 248.81 C 211.87 250.78 212.49 252.74 213.06 254.71 C 220.16 252.14 227.56 250.16 234.04 246.16 C 238.53 243.34 244.14 241.85 247.33 237.34 C 251.02 232.69 254.55 227.90 258.39 223.36 C 261.44 219.42 268.27 219.95 271.04 223.91 C 273.68 230.59 273.99 238.14 270.98 244.77 C 269.06 249.32 267.15 254.12 263.50 257.59 C 260.81 260.21 258.15 262.86 255.41 265.42 C 252.16 268.48 247.76 269.71 243.82 271.61 C 239.76 273.31 235.69 275.85 231.11 275.35 C 225.71 274.65 220.43 273.24 215.08 272.26 C 210.37 271.36 205.24 270.81 201.42 267.60 C 196.85 263.90 191.76 260.48 188.89 255.18 C 184.35 247.43 179.76 239.20 179.23 230.03 C 178.79 223.63 177.86 216.85 180.53 210.79 C 182.47 206.13 183.43 200.81 187.17 197.15 C 191.31 192.97 195.00 188.09 200.42 185.47 Z" />
<path fill="#3e3e3e" opacity="1.00" d=" M 213.32 188.17 C 217.18 187.11 220.97 185.64 224.96 185.18 C 230.16 185.49 235.36 186.36 240.36 187.84 C 240.01 194.92 239.51 201.99 239.24 209.07 C 239.35 212.83 236.40 215.51 234.53 218.44 C 231.49 222.41 229.21 227.16 224.95 230.01 C 221.07 232.72 217.26 235.54 213.42 238.31 C 209.24 241.49 203.46 240.45 199.03 243.05 C 196.23 244.97 198.41 248.45 198.78 251.04 C 196.56 243.68 191.22 237.07 191.79 229.07 C 191.93 223.76 191.01 218.19 193.29 213.19 C 195.64 208.00 196.27 201.69 200.81 197.79 C 204.73 194.32 208.01 189.55 213.32 188.17 Z" />
<path fill="#f5e5c1" opacity="1.00" d=" M 51.65 227.90 C 70.73 227.90 89.81 227.90 108.89 227.90 C 108.88 240.36 108.92 252.83 108.92 265.30 C 89.85 265.30 70.78 265.29 51.71 265.30 C 51.46 252.84 50.85 240.35 51.65 227.90 Z" />
<path fill="#f5e5c1" opacity="1.00" d=" M 114.29 227.91 C 118.02 227.90 121.74 227.90 125.47 227.89 C 125.49 230.03 125.50 232.17 125.53 234.31 C 123.24 234.38 120.91 234.19 118.65 234.64 C 116.50 235.66 116.43 238.16 116.22 240.21 C 119.32 240.29 122.41 240.32 125.51 240.32 C 125.49 248.65 125.51 256.98 125.50 265.31 C 121.76 265.30 118.01 265.30 114.26 265.30 C 114.30 252.83 114.24 240.37 114.29 227.91 Z" />
<path fill="#f5e5c1" opacity="1.00" d=" M 24.01 237.97 C 29.63 231.61 38.29 229.30 46.43 228.45 C 46.46 240.73 46.42 253.02 46.45 265.30 C 42.18 265.13 37.67 265.98 33.63 264.23 C 28.38 262.03 23.36 258.36 21.04 253.00 C 18.94 247.95 20.29 241.90 24.01 237.97 Z" />
<path fill="#3e3e3e" opacity="1.00" d=" M 56.12 233.22 C 71.85 233.22 87.57 233.23 103.30 233.21 C 103.29 235.19 103.28 237.16 103.27 239.14 C 87.58 239.14 71.88 239.14 56.19 239.14 C 56.16 237.16 56.14 235.19 56.12 233.22 Z" />
<path fill="#3e3e3e" opacity="1.00" d=" M 31.20 233.40 C 34.13 233.21 37.07 233.18 40.00 233.42 C 38.56 237.10 35.96 240.60 32.06 241.83 C 29.77 242.10 27.42 242.00 25.19 241.39 C 27.08 238.64 29.42 236.23 31.20 233.40 Z" />
<path fill="#3e3e3e" opacity="1.00" d=" M 241.61 253.48 C 247.18 250.10 253.63 247.94 258.18 243.10 C 255.99 248.27 252.82 252.89 248.44 256.45 C 244.90 260.67 239.91 263.00 234.91 265.02 C 228.77 268.69 221.84 264.54 215.41 264.01 C 224.00 260.14 233.47 258.36 241.61 253.48 Z" />
<path fill="#f5e5c1" opacity="1.00" d=" M 51.62 273.67 C 70.72 273.67 89.83 273.66 108.94 273.67 C 108.82 286.08 108.95 298.50 108.91 310.92 C 89.84 310.91 70.78 310.89 51.71 310.93 C 51.43 298.51 50.90 286.07 51.62 273.67 Z" />
<path fill="#f5e5c1" opacity="1.00" d=" M 114.26 273.67 C 118.01 273.67 121.76 273.67 125.51 273.66 C 125.51 275.80 125.50 277.94 125.49 280.09 C 122.72 280.54 118.72 279.01 117.03 281.99 C 116.50 283.14 116.33 284.42 116.00 285.65 C 119.17 285.94 122.34 286.08 125.52 286.18 C 125.48 294.43 125.51 302.68 125.50 310.94 C 121.76 310.90 118.02 310.91 114.27 310.93 C 114.27 298.51 114.29 286.09 114.26 273.67 Z" />
<path fill="#f5e5c1" opacity="1.00" d=" M 23.84 283.92 C 29.43 277.42 38.19 275.00 46.42 274.19 C 46.45 286.44 46.44 298.69 46.43 310.94 C 41.81 310.70 36.86 311.73 32.58 309.49 C 27.78 307.28 23.29 303.76 21.10 298.84 C 18.98 293.88 20.17 287.84 23.84 283.92 Z" />
<path fill="#3e3e3e" opacity="1.00" d=" M 31.42 279.37 C 33.94 278.33 36.84 278.87 39.50 278.96 C 39.38 282.94 35.79 285.73 32.57 287.48 C 30.10 287.98 27.56 287.61 25.07 287.47 C 27.01 284.64 29.06 281.86 31.42 279.37 Z" />
<path fill="#3e3e3e" opacity="1.00" d=" M 56.18 278.82 C 71.87 278.83 87.57 278.82 103.27 278.82 C 103.29 280.79 103.30 282.75 103.31 284.72 C 87.58 284.75 71.85 284.72 56.12 284.74 C 56.14 282.76 56.16 280.79 56.18 278.82 Z" />
<path fill="#3e3e3e" opacity="1.00" d=" M 358.52 303.82 C 361.97 303.20 365.49 301.89 369.02 302.85 C 374.51 304.19 380.14 305.08 385.52 306.82 C 389.59 309.52 392.92 313.19 396.58 316.41 C 398.90 318.16 399.01 321.22 399.69 323.80 C 400.53 328.23 401.82 332.58 402.44 337.05 C 401.18 341.16 398.29 344.55 396.39 348.37 C 394.68 351.03 394.30 354.69 391.29 356.31 C 387.51 358.63 384.27 362.00 380.15 363.65 C 373.80 363.82 367.42 363.85 361.08 363.57 C 357.08 362.08 353.92 358.94 350.28 356.78 C 344.91 353.76 342.25 348.00 338.87 343.15 C 336.43 340.21 337.88 336.34 338.16 332.96 C 338.99 328.14 338.52 322.70 341.69 318.62 C 344.70 314.66 347.78 310.73 350.91 306.86 C 352.64 304.44 355.92 304.59 358.52 303.82 Z" />
<path fill="#f5e5c1" opacity="1.00" d=" M 51.61 323.10 C 70.72 323.08 89.82 323.10 108.92 323.09 C 108.84 335.50 108.93 347.92 108.92 360.33 C 89.85 360.34 70.78 360.33 51.70 360.34 C 51.44 347.93 50.89 335.50 51.61 323.10 Z" />
<path fill="#f5e5c1" opacity="1.00" d=" M 114.27 323.07 C 118.01 323.09 121.76 323.09 125.50 323.06 C 125.50 325.15 125.51 327.24 125.52 329.34 C 123.22 329.41 120.89 329.22 118.63 329.69 C 116.51 330.70 116.44 333.21 116.18 335.22 C 119.29 335.32 122.40 335.35 125.51 335.35 C 125.49 343.68 125.51 352.01 125.51 360.35 C 121.75 360.33 118.00 360.33 114.25 360.33 C 114.30 347.91 114.26 335.49 114.27 323.07 Z" />
<path fill="#f5e5c1" opacity="1.00" d=" M 24.48 332.50 C 30.14 326.51 38.50 324.34 46.43 323.49 C 46.46 335.77 46.42 348.05 46.45 360.33 C 41.96 360.18 37.17 361.07 32.98 358.99 C 27.74 356.66 22.74 352.81 20.75 347.25 C 18.97 342.11 20.67 336.27 24.48 332.50 Z" />
<path fill="#3e3e3e" opacity="1.00" d=" M 56.12 328.24 C 71.84 328.24 87.56 328.27 103.28 328.23 C 103.28 330.20 103.28 332.18 103.30 334.17 C 87.59 334.17 71.88 334.17 56.18 334.17 C 56.16 332.19 56.14 330.22 56.12 328.24 Z" />
<path fill="#3e3e3e" opacity="1.00" d=" M 31.21 328.83 C 33.87 327.57 37.08 328.48 39.94 328.45 C 39.05 330.28 38.09 332.09 37.14 333.89 C 35.42 334.94 33.82 336.21 31.95 336.99 C 29.65 337.45 27.32 336.85 25.04 336.55 C 27.05 333.94 29.04 331.30 31.21 328.83 Z" />
<path fill="#f5e5c1" opacity="1.00" d=" M 51.61 369.14 C 70.72 369.11 89.82 369.14 108.93 369.13 C 108.84 381.54 108.92 393.96 108.93 406.38 C 89.85 406.39 70.78 406.37 51.70 406.39 C 51.44 393.98 50.89 381.54 51.61 369.14 Z" />
<path fill="#f5e5c1" opacity="1.00" d=" M 114.27 369.11 C 118.00 369.13 121.74 369.13 125.47 369.08 C 125.50 371.18 125.51 373.29 125.53 375.40 C 123.26 375.46 120.96 375.29 118.72 375.72 C 116.54 376.67 116.45 379.23 116.15 381.26 C 119.27 381.36 122.40 381.40 125.52 381.41 C 125.49 389.74 125.51 398.07 125.51 406.40 C 121.75 406.38 118.00 406.38 114.25 406.38 C 114.30 393.96 114.27 381.54 114.27 369.11 Z" />
<path fill="#f5e5c1" opacity="1.00" d=" M 23.61 379.53 C 29.19 372.85 38.10 370.42 46.43 369.54 C 46.46 381.82 46.42 394.10 46.45 406.38 C 42.19 406.20 37.68 407.08 33.64 405.32 C 28.58 403.20 23.72 399.77 21.32 394.69 C 18.94 389.76 20.02 383.60 23.61 379.53 Z" />
<path fill="#3e3e3e" opacity="1.00" d=" M 56.13 374.29 C 71.86 374.31 87.59 374.26 103.32 374.31 C 103.31 376.27 103.29 378.24 103.27 380.21 C 87.57 380.21 71.87 380.21 56.17 380.21 C 56.15 378.23 56.14 376.26 56.13 374.29 Z" />
<path fill="#3e3e3e" opacity="1.00" d=" M 31.21 374.47 C 34.11 374.30 37.02 374.25 39.93 374.46 C 39.05 376.30 38.12 378.12 37.16 379.93 C 35.45 380.97 33.87 382.24 32.01 383.00 C 29.73 383.33 27.42 383.13 25.14 383.09 C 26.88 380.02 29.27 377.41 31.21 374.47 Z" />
<path fill="#f5e5c1" opacity="1.00" d=" M 51.59 416.49 C 70.71 416.45 89.82 416.48 108.94 416.47 C 108.82 428.89 108.94 441.32 108.93 453.74 C 89.85 453.74 70.78 453.72 51.70 453.75 C 51.42 441.34 50.93 428.90 51.59 416.49 Z" />
<path fill="#f5e5c1" opacity="1.00" d=" M 114.25 416.46 C 118.01 416.47 121.76 416.47 125.52 416.45 C 125.51 418.55 125.51 420.65 125.51 422.76 C 123.34 422.79 121.14 422.67 118.99 423.02 C 116.72 423.88 116.44 426.50 116.05 428.55 C 119.20 428.74 122.35 428.77 125.50 428.79 C 125.51 437.11 125.50 445.44 125.51 453.76 C 121.76 453.73 118.01 453.73 114.26 453.75 C 114.28 441.32 114.29 428.89 114.25 416.46 Z" />
<path fill="#f5e5c1" opacity="1.00" d=" M 23.31 427.33 C 28.84 420.39 37.91 417.73 46.42 417.02 C 46.47 429.27 46.41 441.51 46.45 453.75 C 41.87 453.55 36.94 454.54 32.69 452.33 C 28.11 450.23 23.81 446.99 21.48 442.42 C 19.01 437.62 19.81 431.43 23.31 427.33 Z" />
<path fill="#3e3e3e" opacity="1.00" d=" M 31.39 421.75 C 34.25 421.67 37.11 421.64 39.98 421.79 C 38.68 425.63 35.94 428.99 32.07 430.41 C 29.74 430.64 27.39 430.46 25.05 430.29 C 27.03 427.34 29.39 424.68 31.39 421.75 Z" />
<path fill="#3e3e3e" opacity="1.00" d=" M 56.14 421.66 C 71.86 421.66 87.57 421.66 103.29 421.66 C 103.29 423.62 103.29 425.58 103.30 427.55 C 87.58 427.56 71.86 427.55 56.13 427.55 C 56.14 425.59 56.14 423.62 56.14 421.66 Z" />
<path fill="#f5e5c1" opacity="1.00" d=" M 51.61 462.23 C 70.72 462.22 89.83 462.23 108.94 462.23 C 108.82 474.64 108.95 487.06 108.92 499.48 C 89.84 499.46 70.77 499.47 51.70 499.47 C 51.44 487.07 50.89 474.63 51.61 462.23 Z" />
<path fill="#f5e5c1" opacity="1.00" d=" M 114.26 462.22 C 118.01 462.23 121.75 462.23 125.49 462.20 C 125.50 464.30 125.51 466.41 125.53 468.53 C 123.26 468.59 120.96 468.40 118.73 468.85 C 116.58 469.81 116.46 472.34 116.11 474.34 C 119.24 474.49 122.38 474.53 125.51 474.55 C 125.50 482.86 125.50 491.17 125.51 499.49 C 121.76 499.47 118.00 499.47 114.25 499.47 C 114.30 487.05 114.27 474.63 114.26 462.22 Z" />
<path fill="#f5e5c1" opacity="1.00" d=" M 23.65 472.60 C 29.24 465.96 38.12 463.55 46.43 462.65 C 46.46 474.92 46.41 487.20 46.45 499.47 C 42.69 499.34 38.83 499.92 35.14 498.99 C 29.45 497.00 23.92 493.33 21.28 487.73 C 18.94 482.79 20.06 476.65 23.65 472.60 Z" />
<path fill="#3e3e3e" opacity="1.00" d=" M 56.13 467.39 C 71.86 467.41 87.59 467.36 103.32 467.42 C 103.30 469.37 103.29 471.33 103.27 473.30 C 87.56 473.29 71.86 473.29 56.15 473.30 C 56.14 471.32 56.14 469.35 56.13 467.39 Z" />
<path fill="#3e3e3e" opacity="1.00" d=" M 31.33 467.89 C 34.06 466.84 37.15 467.58 40.01 467.62 C 38.61 471.37 35.95 474.69 32.12 476.12 C 29.79 476.42 27.45 476.22 25.12 476.14 C 26.92 473.21 29.02 470.44 31.33 467.89 Z" />
</svg>
