<?xml version="1.0" encoding="UTF-8" ?>
<!DOCTYPE svg PUBLIC "-//W3C//DTD SVG 1.1//EN" "http://www.w3.org/Graphics/SVG/1.1/DTD/svg11.dtd">
<svg width="514pt" height="516pt" viewBox="0 0 514 516" version="1.1" xmlns="http://www.w3.org/2000/svg">
<path fill="#3e3e3e" opacity="1.00" d=" M 0.00 0.00 L 514.00 0.00 L 514.00 516.00 L 0.00 516.00 L 0.00 0.00 Z" />
<path fill="#f5e5c1" opacity="1.00" d=" M 155.48 84.52 C 153.61 82.78 154.75 80.19 155.56 78.25 C 157.87 78.25 160.18 78.31 162.48 78.45 C 162.71 81.11 162.65 83.78 162.42 86.45 C 159.95 86.71 156.97 86.98 155.48 84.52 Z" />
<path fill="#f5e5c1" opacity="1.00" d=" M 136.79 93.33 C 141.27 94.91 145.69 96.68 149.95 98.79 C 151.71 104.08 153.88 109.26 154.57 114.86 C 147.62 113.44 140.72 111.20 134.97 106.98 C 131.72 102.73 135.35 97.58 136.79 93.33 Z" />
<path fill="#f5e5c1" opacity="1.00" d=" M 267.58 123.78 C 268.79 121.74 271.91 121.93 273.45 123.48 C 276.79 126.51 280.51 129.13 283.59 132.42 C 285.42 134.24 284.57 136.94 284.37 139.19 C 280.99 140.24 277.52 141.36 273.95 141.32 C 270.47 139.54 269.11 135.49 268.31 131.92 C 267.77 129.27 266.81 126.48 267.58 123.78 Z" />
<path fill="#f3722c" opacity="1.00" d=" M 145.43 133.11 C 148.84 133.83 152.58 134.21 155.42 136.44 C 157.07 138.20 158.15 140.39 159.46 142.41 C 175.61 167.99 191.96 193.45 208.07 219.06 C 197.44 203.71 186.13 188.84 175.21 173.69 C 164.70 160.60 155.95 146.19 145.43 133.11 Z" />
<path fill="#f3722c" opacity="1.00" d=" M 178.72 157.36 C 177.26 155.45 180.33 154.07 181.14 152.53 C 187.74 164.42 192.80 177.11 198.95 189.24 C 192.21 178.61 185.34 168.06 178.72 157.36 Z" />
<path fill="#f3722c" opacity="1.00" d=" M 263.34 159.88 C 266.76 161.80 270.20 163.69 273.55 165.74 C 270.39 183.81 267.20 201.90 264.72 220.08 C 264.84 200.00 263.37 179.96 263.34 159.88 Z" />
<path fill="#f5e5c1" opacity="1.00" d=" M 373.84 184.42 C 378.07 183.93 382.27 186.29 384.31 189.98 C 385.41 193.83 381.28 195.71 378.54 197.10 C 378.37 198.18 378.20 199.26 378.05 200.34 C 375.43 201.08 372.33 200.79 371.14 197.96 C 369.55 193.45 371.24 188.27 373.84 184.42 Z" />
<path fill="#f5e5c1" opacity="1.00" d=" M 39.64 190.96 C 40.65 190.67 41.67 190.45 42.71 190.29 C 55.15 193.27 67.12 197.89 79.49 201.14 C 87.31 203.39 95.18 205.51 102.89 208.13 C 113.53 211.73 124.58 214.00 135.18 217.72 C 146.21 221.54 157.68 223.90 168.75 227.59 C 172.64 228.83 175.12 232.28 177.97 234.98 C 181.04 238.24 184.51 241.13 187.51 244.46 C 188.40 249.62 188.05 254.90 188.56 260.10 C 188.77 262.21 190.39 263.79 191.75 265.29 C 198.95 272.42 206.14 279.58 213.32 286.75 C 215.95 289.23 214.70 293.22 214.37 296.36 C 212.76 298.64 209.58 297.23 207.32 297.10 C 198.94 295.01 190.38 293.82 181.97 291.83 C 174.58 290.99 167.53 288.47 160.13 287.74 C 152.23 285.02 143.76 284.80 135.55 285.95 C 126.98 286.60 118.39 287.13 109.83 287.95 C 108.47 287.97 106.40 289.01 106.00 287.03 C 105.56 279.00 105.59 270.96 105.22 262.93 C 104.97 262.46 104.47 261.52 104.22 261.05 C 100.93 261.41 97.64 261.59 94.34 261.80 C 94.50 270.97 95.31 280.11 95.35 289.28 C 92.82 289.36 90.29 289.36 87.76 289.30 C 87.87 280.58 85.90 272.03 85.73 263.33 C 82.64 263.33 79.57 263.77 76.58 264.54 C 77.62 273.05 77.51 281.67 77.62 290.23 C 75.00 290.48 72.37 290.67 69.74 290.76 C 69.35 282.02 68.93 273.28 68.37 264.55 C 64.03 264.96 59.69 265.42 55.33 265.54 C 55.87 274.41 57.38 283.20 57.44 292.09 C 52.17 292.44 46.78 292.01 41.62 293.40 C 36.53 288.09 31.14 282.97 26.64 277.16 C 29.25 262.88 30.97 248.44 32.92 234.06 C 35.56 219.75 36.60 205.19 39.64 190.96 Z" />
<path fill="#f3722c" opacity="1.00" d=" M 241.45 190.59 C 243.86 192.63 246.06 194.91 248.11 197.33 C 246.59 197.74 244.82 199.06 243.37 197.76 C 240.62 196.39 241.30 193.06 241.45 190.59 Z" />
<path fill="#f3722c" opacity="1.00" d=" M 276.62 196.33 C 277.57 197.56 278.54 198.78 279.51 199.99 C 277.79 205.66 277.23 211.61 275.37 217.24 C 273.00 226.08 270.26 234.88 269.35 244.02 C 271.17 228.04 274.11 212.21 276.62 196.33 Z" />
<path fill="#f3722c" opacity="1.00" d=" M 342.26 212.28 C 345.92 209.45 349.11 205.91 353.37 203.95 C 353.81 208.30 353.59 212.67 353.29 217.02 C 351.31 218.15 349.34 219.28 347.37 220.43 C 347.39 219.73 347.42 218.34 347.44 217.64 C 345.77 220.21 343.58 222.43 340.78 223.73 C 329.15 229.83 317.66 236.19 305.91 242.03 C 318.29 232.45 330.11 222.15 342.26 212.28 Z" />
<path fill="#f5e5c1" opacity="1.00" d=" M 202.24 265.29 C 203.22 264.99 204.21 264.70 205.20 264.43 C 210.38 267.03 216.36 266.86 221.85 268.46 C 226.48 269.84 231.20 270.91 235.96 271.74 C 237.24 277.12 240.46 282.17 240.76 287.68 C 233.08 296.19 224.63 303.99 216.86 312.42 C 207.26 311.62 197.96 308.50 188.32 308.08 C 188.65 304.91 189.47 301.05 192.40 299.33 C 199.72 300.33 206.92 302.18 214.20 303.49 C 215.58 303.24 216.89 302.75 218.22 302.33 C 220.23 296.74 222.30 291.17 224.51 285.66 C 217.44 278.51 209.66 272.08 202.24 265.29 Z" />
<path fill="#f5e5c1" opacity="1.00" d=" M 467.01 269.71 C 475.34 269.51 483.63 268.31 491.98 268.34 C 493.76 269.38 494.85 271.24 496.19 272.76 C 491.72 295.82 488.40 319.09 484.02 342.17 C 482.96 346.15 483.60 350.78 481.33 354.31 C 476.78 358.32 471.98 362.10 466.99 365.55 C 464.45 364.54 461.84 363.69 459.20 363.01 C 454.57 361.51 449.83 360.36 445.25 358.72 C 448.45 350.56 452.15 342.60 455.25 334.40 C 452.04 333.37 448.82 332.35 445.60 331.37 C 441.68 339.38 438.60 347.78 434.97 355.93 C 432.44 355.14 429.94 354.26 427.46 353.33 C 431.26 345.73 433.97 337.67 437.01 329.75 C 434.17 328.81 431.36 327.68 428.38 327.33 C 425.18 335.16 422.25 343.10 419.29 351.02 C 416.95 350.43 414.64 349.76 412.30 349.17 C 412.32 347.71 412.39 346.22 412.90 344.83 C 415.09 338.19 416.94 331.44 418.99 324.76 C 415.87 323.82 412.75 322.91 409.62 322.04 C 407.14 329.92 404.46 337.73 402.01 345.62 C 387.98 341.59 374.01 337.33 360.02 333.17 C 358.09 332.53 356.07 332.23 354.04 332.11 C 347.35 332.13 340.67 332.62 333.99 332.53 C 325.33 332.79 316.69 333.64 308.03 333.50 C 303.58 333.48 299.14 334.21 294.70 333.65 C 294.85 331.37 294.93 329.07 295.43 326.84 C 305.54 322.44 315.53 317.78 325.62 313.32 C 328.21 312.11 331.02 311.28 333.38 309.62 C 335.81 304.35 336.39 298.42 338.97 293.21 C 340.89 289.53 344.56 287.31 347.44 284.46 C 350.75 281.57 353.61 277.42 358.33 276.91 C 368.16 276.72 377.95 275.67 387.76 275.13 C 414.18 273.34 440.61 271.72 467.01 269.71 Z" />
<path fill="#f5e5c1" opacity="1.00" d=" M 276.81 306.74 C 283.52 306.45 290.24 307.53 296.93 306.75 C 302.04 306.28 307.19 307.18 312.29 306.42 C 312.43 309.00 312.57 311.58 312.62 314.16 C 305.53 316.36 299.12 320.34 291.88 322.09 C 290.66 322.43 289.67 323.26 288.61 323.91 C 288.77 328.99 288.12 334.14 288.94 339.18 C 289.94 340.49 291.82 339.96 293.25 339.99 C 298.23 339.34 303.25 339.62 308.25 339.70 C 308.14 342.98 307.89 346.25 307.50 349.51 C 298.66 348.94 289.87 350.64 281.03 350.48 C 276.41 350.55 271.84 351.48 267.21 351.12 C 273.17 341.01 279.46 331.11 285.52 321.06 C 282.63 316.27 279.28 311.76 276.81 306.74 Z" />
<path fill="#f5e5c1" opacity="1.00" d=" M 162.81 307.03 C 176.01 309.19 189.12 311.81 202.30 314.02 C 205.91 315.00 209.64 315.49 213.38 315.70 C 212.16 317.05 211.02 318.51 209.58 319.63 C 205.60 320.21 201.84 318.32 197.95 317.92 C 192.56 317.45 187.41 315.61 182.00 315.26 C 175.46 313.57 168.67 313.22 162.18 311.29 C 162.39 309.86 162.60 308.45 162.81 307.03 Z" />
<path fill="#f5e5c1" opacity="1.00" d=" M 141.17 312.29 C 144.87 311.71 148.61 311.37 152.37 311.49 C 155.65 316.22 159.43 320.57 162.69 325.31 C 162.87 331.16 159.63 336.55 158.52 342.24 C 154.01 345.95 149.10 349.12 144.23 352.32 C 132.88 350.10 121.34 349.16 109.98 347.01 C 97.28 345.42 84.66 343.17 71.99 341.50 C 73.66 336.26 74.98 330.91 76.75 325.71 C 78.89 322.58 82.00 320.26 84.97 317.97 C 86.95 316.28 89.69 316.62 92.10 316.36 C 108.46 315.07 124.80 313.48 141.17 312.29 Z" />
<path fill="#f5e5c1" opacity="1.00" d=" M 163.46 315.35 C 177.68 318.10 191.89 320.87 206.20 323.15 C 202.86 326.56 199.67 330.13 196.14 333.36 C 211.47 340.00 226.89 346.46 242.34 352.82 C 235.29 358.68 228.46 364.82 221.19 370.41 C 210.79 367.45 199.85 364.26 189.02 366.71 C 185.63 368.13 183.56 371.35 181.15 373.95 C 170.62 372.53 160.07 371.29 149.51 370.16 C 149.95 368.20 150.02 366.03 151.34 364.41 C 154.54 360.26 157.67 356.05 160.93 351.95 C 163.03 349.35 163.36 345.89 164.24 342.79 C 165.63 336.79 167.35 330.88 168.76 324.90 C 167.30 321.56 165.03 318.64 163.46 315.35 Z" />
<path fill="#f5e5c1" opacity="1.00" d=" M 68.37 349.00 C 71.91 348.19 75.52 346.31 79.22 347.17 C 87.75 348.84 96.41 349.71 105.00 350.96 C 108.70 352.16 111.57 354.97 114.17 357.73 C 103.83 355.87 93.53 353.76 83.17 351.95 C 78.30 350.63 73.17 350.63 68.37 349.00 Z" />
<path fill="#f5e5c1" opacity="1.00" d=" M 60.26 363.24 C 61.07 359.17 62.20 355.17 63.76 351.33 C 71.29 353.20 79.04 353.99 86.54 356.07 C 91.81 356.63 96.92 357.98 102.05 359.28 C 108.09 359.90 113.89 361.66 119.79 362.98 C 119.36 367.67 119.31 372.39 118.73 377.07 C 110.32 375.05 101.95 372.88 93.44 371.29 C 82.44 368.39 71.51 365.08 60.26 363.24 Z" />
<path fill="#f5e5c1" opacity="1.00" d=" M 279.92 354.70 C 299.85 353.72 319.77 352.90 339.70 352.02 C 339.66 353.15 339.60 355.43 339.57 356.56 C 331.74 357.48 323.87 357.29 316.01 357.72 C 306.97 358.54 297.90 358.34 288.84 358.88 C 279.76 359.88 270.58 359.22 261.50 360.35 C 262.57 358.62 263.66 356.90 264.83 355.23 C 269.87 355.57 274.86 354.28 279.92 354.70 Z" />
<path fill="#f5e5c1" opacity="1.00" d=" M 351.34 358.24 C 369.91 367.26 388.86 375.50 407.54 384.29 C 411.26 385.87 414.73 387.95 418.15 390.10 C 419.41 394.08 422.34 398.00 421.26 402.34 C 420.47 406.75 419.44 411.12 419.25 415.61 C 417.53 415.62 415.79 415.62 414.11 415.24 C 391.19 410.19 368.18 405.62 345.25 400.62 C 339.49 399.98 337.38 393.64 333.55 390.13 C 334.20 384.68 334.65 379.15 335.87 373.81 C 340.27 367.94 346.30 363.54 351.34 358.24 Z" />
<path fill="#f5e5c1" opacity="1.00" d=" M 262.93 363.76 C 288.59 362.92 314.21 361.32 339.87 360.54 C 338.06 367.05 331.18 370.58 329.03 376.88 C 328.71 383.19 327.12 389.44 327.28 395.75 C 330.81 404.33 334.65 412.81 338.09 421.44 C 326.80 420.40 315.44 420.45 304.14 419.68 C 301.24 416.03 298.92 411.38 294.38 409.54 C 291.32 408.19 288.16 407.11 284.96 406.15 C 290.35 399.02 295.80 391.93 301.12 384.73 C 284.69 382.08 268.34 378.92 251.91 376.29 C 254.11 372.38 256.34 368.46 258.88 364.76 C 259.75 363.44 261.61 364.01 262.93 363.76 Z" />
<path fill="#f5e5c1" opacity="1.00" d=" M 147.75 375.22 C 151.52 375.21 155.26 375.62 159.01 375.98 C 165.91 376.88 172.83 377.71 179.75 378.46 C 178.77 382.83 177.81 387.23 176.32 391.47 C 166.50 388.82 156.46 387.20 146.42 385.68 C 146.73 382.18 147.19 378.69 147.75 375.22 Z" />
<path fill="#f5e5c1" opacity="1.00" d=" M 391.48 414.41 C 396.48 415.65 401.55 416.54 406.57 417.72 C 406.65 419.24 406.73 420.77 406.80 422.30 C 402.11 422.13 397.42 422.19 392.75 421.87 C 392.15 419.42 391.67 416.93 391.48 414.41 Z" />
<path fill="#f5e5c1" opacity="1.00" d=" M 305.32 425.61 C 316.14 426.44 326.99 426.70 337.83 426.87 C 337.61 431.39 338.50 435.85 338.70 440.36 C 327.37 439.19 315.93 439.91 304.62 438.72 C 304.91 434.35 304.86 429.97 305.32 425.61 Z" />
<path fill="#f5e5c1" opacity="1.00" d=" M 374.32 430.49 C 375.98 428.89 377.64 427.28 379.27 425.64 C 392.54 425.77 405.80 426.67 419.08 426.41 C 421.47 425.96 423.13 427.75 424.64 429.30 C 407.85 429.58 391.10 430.31 374.32 430.49 Z" />
<path fill="#f5e5c1" opacity="1.00" d=" M 371.13 435.33 C 389.52 434.62 407.90 433.69 426.31 433.41 C 427.06 436.82 427.80 440.23 428.43 443.66 C 409.19 443.97 389.98 442.31 370.74 442.82 C 370.79 440.31 370.91 437.82 371.13 435.33 Z" />
</svg>
