<?xml version="1.0" encoding="UTF-8" standalone="no"?>
<svg
   xmlns:dc="http://purl.org/dc/elements/1.1/"
   xmlns:cc="http://creativecommons.org/ns#"
   xmlns:rdf="http://www.w3.org/1999/02/22-rdf-syntax-ns#"
   xmlns:svg="http://www.w3.org/2000/svg"
   xmlns="http://www.w3.org/2000/svg"
   xmlns:sodipodi="http://sodipodi.sourceforge.net/DTD/sodipodi-0.dtd"
   xmlns:inkscape="http://www.inkscape.org/namespaces/inkscape"
   width="1280"
   height="1280"
   viewBox="0 0 1024 1024"
   version="1.1"
   id="svg2"
   inkscape:version="0.48.1 "
   sodipodi:docname="destroy_sentry_with_pistol.svg">
  <metadata
     id="metadata100">
    <rdf:RDF>
      <cc:Work
         rdf:about="">
        <dc:format>image/svg+xml</dc:format>
        <dc:type
           rdf:resource="http://purl.org/dc/dcmitype/StillImage" />
      </cc:Work>
    </rdf:RDF>
  </metadata>
  <defs
     id="defs98" />
  <sodipodi:namedview
     pagecolor="#ffffff"
     bordercolor="#666666"
     borderopacity="1"
     objecttolerance="10"
     gridtolerance="10"
     guidetolerance="10"
     inkscape:pageopacity="0"
     inkscape:pageshadow="2"
     inkscape:window-width="1920"
     inkscape:window-height="1018"
     id="namedview96"
     showgrid="false"
     fit-margin-top="0"
     fit-margin-left="0"
     fit-margin-right="0"
     fit-margin-bottom="0"
     inkscape:zoom="0.6609375"
     inkscape:cx="640"
     inkscape:cy="640"
     inkscape:window-x="-8"
     inkscape:window-y="-8"
     inkscape:window-maximized="1"
     inkscape:current-layer="svg2" />
  <path
     d="m 0,0 1024,0 0,1024 L 0,1024 0,0 z"
     id="path4"
     style="fill:#3e3e3e"
     inkscape:connector-curvature="0" />
  <path
     style="fill:#f5e5c1"
     d="m 168,31.45 c -2.3525,-0.06 -4.67,0.36 -6.6,1.95 -6.4,5.68 -10.77,13.22 -17.25,18.8 -4.1,2.14 -9.37,2.01 -12.85,5.35 -1.58,2.54 -2.15,5.51 -2.85,8.35 -8.04,34.62 -16.65,69.1 -24.75,103.7 -1.9,11.44 -3.29,23.01 -4.45,34.55 -0.68,4.5 3.05,7.7 5.65,10.8 8.24,8.58 16.27,17.38 23.55,26.8 12.24,13.04 26.48,23.98 39.6,36.1 13.52,8.96 29.56,13.27 44.1,20.35 19.96,9.94 42.49,11.8 63.55,18.3 6.04,4.5 10.41,11.8 11.65,19.3 9.84,51.98 19.9,103.94 29.8,155.9 1.18,6.74 5.75,12.06 9.55,17.5 7.04,9.7 13.62,19.69 20.7,29.35 4.5,6.64 12.48,9.21 19.4,12.45 14.02,5.94 27.58,12.92 41.8,18.4 12.82,3.84 26.16,5.56 39.2,8.6 15.78,3.84 32.12,2.36 48.2,2.8 6.64,0.38 14.24,-1.31 19.8,3.35 12.84,9.18 25.89,18.15 38.65,27.45 4.36,48.74 9.06,97.46 13.6,146.2 0.66,8.58 2.29,17.18 1.45,25.8 -6.26,16.56 -16.83,31.44 -21.95,48.4 2.12,28 4.75,56.04 7.35,84 0.48,9.22 11.53,12.01 19.15,11.35 104,-4.54 207.95,-9.33 311.95,-14.05 5.68,-0.04 11.79,-1.04 15.95,-5.3 13.26,-12.72 26.3,-25.62 39.7,-38.2 2.48,-2.84 6.35,-5.56 5.95,-9.8 -0.38,-8.86 -2.31,-17.56 -3.45,-26.3 -5.56,-35.82 -10.07,-71.8 -16.25,-107.5 -18.12,-63.34 -36.46,-126.63 -55,-189.85 -1.6,-6.6 -5.48,-13.29 -3.2,-20.15 4.82,-16.78 9.38,-33.68 14.4,-50.4 0.72,-3.58 4.28,-5 7,-6.8 19.4,-11.18 38.62,-22.71 58,-33.95 3.32,-2.02 6.82,-3.97 9.5,-6.85 2.14,-3.02 0.27,-6.74 -0.95,-9.7 -8.44,-18.06 -17.33,-35.94 -25.55,-54.1 3.26,-1.66 6.57,-3.34 9.85,-5 7.48,3.42 14.93,6.92 22.45,10.3 4.76,1.88 10.18,5.11 15.3,2.55 3.2,-6.02 7.48,-12.62 7.5,-19.5 -4.32,-4.66 -10.81,-6.57 -16.05,-10.05 C 952.01,320.24 928.9,315.96 909.1,304.9 892.18,271.88 877.38,237.66 861.7,204 c -1.5,-3.78 -5,-6.12 -8.8,-7.1 C 650.62,156.58 448.51,115.36 246.25,74.8 c -3.14,-0.82 -6.92,-1.08 -8.9,-4 -7.34,-8.84 -13.53,-18.61 -20.85,-27.45 -3.52,-4.48 -9.54,-5.05 -14.7,-6.15 -8.98,-1.46 -17.86,-3.18 -26.8,-4.9 -2.22,-0.29 -4.6475,-0.79 -7,-0.85 z m 3.45,9.55 c 11.34,1.36 22.46,3.98 33.7,6 6.42,8 11.23,17.92 20.65,22.9 -2.1,4.04 -4.29,8.05 -6.65,11.95 -20.52,-4.66 -41.12,-8.92 -61.6,-13.7 -0.84,-2.74 -1.8,-5.43 -2.3,-8.25 3.88,-7.28 9.18,-14.38 16.2,-18.9 z m -20.2,55.9 c 0.79491,-0.0685 1.62625,0.0425 2.5,0.35 82.04,16.14 163.91,33.23 246.05,48.95 5.34,-3.96 10.66,-8 15.1,-13 4.72,-0.08 9.48,0.33 14.1,1.35 50.42,10.3 100.93,20.09 151.35,30.45 4.1,6.48 8.21,12.94 11.65,19.8 79.4,16.2 158.91,31.87 238.35,47.85 7.58,1.74 15.38,2.52 22.8,4.9 5.02,3.62 8.63,9.03 11.65,14.35 -1,3.32 -2.73,6.35 -4.25,9.45 -13.42,-1.52 -26.4,-5.33 -39.7,-7.55 5.38,36.68 10.15,73.41 15.75,110.05 24.54,4.4 48.88,9.76 73.4,14.3 3.2,0.88 7.72,0.79 9.1,4.55 4.88,9.24 8.88,18.91 13.4,28.35 -20.96,12.18 -41.72,24.66 -62.7,36.8 -4.4,2.6 -9.47,5.51 -10.65,10.95 -5.12,17.8 -10.01,35.67 -15.25,53.45 -3.22,8.64 1.63,17.23 3.65,25.55 18.5,63.44 37.07,126.87 55.05,190.45 6.74,43.02 13.11,86.11 19.05,129.25 -14.14,12.66 -26.78,26.99 -41.3,39.15 -100.12,5.34 -200.36,9.01 -300.5,14.05 -1.54,-24.3 -4.17,-48.51 -6.25,-72.75 -0.56,-4.06 1.64,-7.68 3.2,-11.2 5.1,-10.28 10.12,-20.62 15.2,-30.9 2.26,-4.78 5.01,-9.85 3.95,-15.35 -5.26,-56.06 -10.52,-112.14 -15.7,-168.2 -0.22,-4.8 -3.55,-8.44 -7.35,-11 -13.72,-9.7 -27.52,-19.24 -41.2,-29 -5.26,-3.8 -11.21,-7.32 -17.85,-7.6 -22.68,-1.08 -45.72,1.55 -68,-3.85 -11.9,-2.94 -24.53,-3.73 -35.65,-9.25 -11.82,-5.6 -23.87,-10.59 -35.65,-16.25 -4.44,-1.96 -6.79,-6.45 -9.55,-10.15 -6.16,-9.22 -12.74,-18.11 -19,-27.25 -3.64,-5.18 -4.02,-11.7 -5.3,-17.7 -9.22,-48.76 -18.77,-97.47 -27.95,-146.25 -1.22,-9.34 -7.85,-16.48 -13.15,-23.8 -3.08,-4.4 -7.98,-7.02 -13.1,-8.3 -16.66,-4.32 -33.61,-7.52 -50.15,-12.3 -14.16,-5.42 -27.9,-11.87 -41.9,-17.65 -8.3,-3.14 -14.14,-10.03 -20.6,-15.75 -11.48,-10.6 -24.04,-20.76 -31.5,-34.8 -3.86,-7.12 -8.53,-13.82 -11.65,-21.3 1.56,-12.98 3.28,-26.05 6.5,-38.75 24.92,3.94 49.8,8.01 74.7,12.05 8.74,1.3 15.8,7.08 23.5,11 9.08,5.68 19.51,9.43 27.65,16.45 11.3,17.4 21.04,35.93 33.4,52.65 2.14,2.84 5.7,3.89 9,4.75 123.18,24.34 246.33,48.79 369.45,73.45 -4.54,-27.88 -8.69,-55.85 -13.15,-83.75 -1.46,-9.44 -3.26,-18.84 -3.7,-28.4 -19.4,-3.96 -38.79,-7.92 -58.15,-12 -4.08,9.86 -8.34,19.65 -13,29.25 -2.54,5.7 -9.25,7.15 -14.15,10.15 -9.12,4.26 -18.55,11.35 -29.15,8.75 -45.98,-9.78 -91.95,-19.68 -137.95,-29.4 -6.28,-12.12 -13.13,-23.99 -18.75,-36.45 -0.2,-8.32 1.82,-16.51 2.7,-24.75 -81.82,-17.02 -163.81,-33.15 -245.65,-50.05 -0.14,-3.8 -1.74,-7.78 -0.5,-11.5 1.67375,-2.90875 4.35538,-6.35299 7.8,-6.65 z M 916.8,322.25 c 19.16,7.84 38.6,15.03 57.8,22.85 -1.26,2.76 -2.42,5.56 -3.5,8.4 -9.06,-3.98 -17.84,-8.71 -27.2,-11.95 -5.76,-2 -11.02,2.02 -16.1,4.1 -3.64,-7.82 -7.28,-15.62 -11,-23.4 z"
     id="path6"
     inkscape:connector-curvature="0" />
  <path
     d="m 669.14,222 c 6.12,1.08 12.22,2.36 18.32,3.58 1.96,8.62 2.8,17.44 3.38,26.24 2.16,28.04 5.18,56.02 6.94,84.1 -3.64,-0.62 -7.26,-1.2 -10.88,-1.76 -6.24,-37.34 -11.66,-74.8 -17.76,-112.16 z"
     id="path12"
     inkscape:connector-curvature="0"
     style="fill:#f5e5c1" />
  <path
     d="m 699.88,228.46 c 3.16,0.44 6.3,0.9 9.46,1.38 3.9,37.12 8.98,74.08 12.66,111.22 -4.24,-0.96 -8.48,-1.92 -12.72,-2.8 -3.04,-36.62 -6.32,-73.2 -9.4,-109.8 z"
     id="path14"
     inkscape:connector-curvature="0"
     style="fill:#f5e5c1" />
  <path
     d="m 720.74,232.52 c 3.78,0.82 7.58,1.68 11.36,2.58 3.54,36.7 6.9,73.42 10.78,110.1 -3.34,-0.7 -6.64,-1.4 -9.94,-2.08 0.06,-6.36 -0.48,-12.7 -1.38,-19 -3.7,-30.52 -7.12,-61.08 -10.82,-91.6 z"
     id="path16"
     inkscape:connector-curvature="0"
     style="fill:#f5e5c1" />
  <path
     d="m 743.2,237.22 c 4.48,1 8.96,1.9 13.46,2.74 -2.84,8.56 -0.12,17.36 0.86,25.96 3.94,28.08 7.76,56.18 11.64,84.28 -5.14,-1.02 -10.26,-2 -15.36,-3.14 -3.12,-36.66 -6.78,-73.26 -10.6,-109.84 z"
     id="path18"
     inkscape:connector-curvature="0"
     style="fill:#f5e5c1" />
  <path
     d="m 765.94,242.16 c 5.02,0.88 10,1.96 15,3.06 4.84,36.52 7.48,73.3 11.84,109.86 -3.96,-0.82 -7.9,-1.7 -11.86,-2.52 -5.04,-36.78 -10.5,-73.54 -14.98,-110.4 z"
     id="path20"
     inkscape:connector-curvature="0"
     style="fill:#f5e5c1" />
  <path
     d="m 792.82,247.84 c 6.08,1.1 12.1,2.42 18.16,3.68 -0.46,5.44 -0.46,10.94 0.4,16.34 4.64,31.18 8.72,62.44 13.4,93.62 -7,-1.54 -14.02,-2.98 -21.02,-4.52 -3.16,-36.42 -7.4,-72.74 -10.94,-109.12 z"
     id="path22"
     inkscape:connector-curvature="0"
     style="fill:#f5e5c1" />
  <path
     d="m 604.9,342.8 c -0.6175,0.0391 -1.21,0.16 -1.8,0.4 -6.08,4.46 -11.08,10.23 -16.7,15.25 -6.96,7.06 -15.14,13.08 -21,21.1 0.64,12.1 2.9,24.04 4,36.1 15.88,133.7 30.94,267.49 47.2,401.15 -7.26,13.64 -16.65,26.09 -23.65,39.85 -1.26,7.1 0.14,14.47 1.1,21.55 0.52,6.96 7.85,10.23 13.95,10.75 12.68,0.46 25.29,-1.51 37.95,-1.85 73.28,-4.28 146.55,-8.86 219.85,-13 5.3,-0.66 11.47,-0.7 15.35,-5 6.68,-7.14 12.38,-15.13 18.5,-22.75 -5.9,-29.48 -12.22,-58.9 -18,-88.4 -19.36,-79.26 -37.21,-158.89 -56.25,-238.25 7.66,-31.28 15.57,-62.54 23.35,-93.8 2.24,-6.98 -3.22,-12.83 -6.1,-18.65 -5.12,-7.88 -8.34,-19.27 -19.1,-20.85 -70.9,-14.88 -142.05,-28.63 -213.05,-42.95 -1.83,-0.19499 -3.7475,-0.76718 -5.6,-0.65 z M 732.75,605 c 1.76062,0.005 3.53501,0.22 5.3,0.7 10.98,2.68 22.24,4.47 33,7.95 8.14,5.4 14.78,12.71 22.1,19.15 4.64,3.5 4.89,9.64 6.25,14.8 1.68,8.86 4.26,17.56 5.5,26.5 -2.52,8.22 -8.3,15.01 -12.1,22.65 -3.42,5.32 -4.18,12.61 -10.2,15.85 -7.56,4.64 -14.06,11.4 -22.3,14.7 -12.7,0.34 -25.47,0.41 -38.15,-0.15 -8,-2.98 -14.32,-9.28 -21.6,-13.6 -10.74,-6.04 -16.04,-17.55 -22.8,-27.25 -4.88,-5.88 -2.01,-13.64 -1.45,-20.4 1.66,-9.64 0.76,-20.49 7.1,-28.65 6.02,-7.92 12.14,-15.81 18.4,-23.55 3.46,-4.84 10.05,-4.51 15.25,-6.05 5.17501,-0.93 10.41813,-2.66501 15.7,-2.65 z"
     id="path26"
     style="fill:#f5e5c1"
     inkscape:connector-curvature="0" />
  <path
     d="m 451.9,354.8 c -7.29,0.008 -14.54499,0.7175 -21.7,2 -11.02,1.7 -19.67,9.23 -29.35,14.15 -10.84,5.24 -18.22,14.99 -26.5,23.35 -7.48,7.32 -9.42,17.98 -13.3,27.3 -5.34,12.12 -3.48,25.65 -2.6,38.45 1.06,18.34 10.27,34.8 19.35,50.3 5.74,10.6 15.91,17.45 25.05,24.85 7.64,6.42 17.88,7.5 27.3,9.3 10.7,1.96 21.25,4.8 32.05,6.2 9.16,1 17.33,-4.1 25.45,-7.5 7.88,-3.8 16.65,-6.23 23.15,-12.35 5.48,-5.12 10.82,-10.41 16.2,-15.65 7.3,-6.94 11.11,-16.55 14.95,-25.65 6.02,-13.26 5.43,-28.39 0.15,-41.75 -5.54,-7.92 -19.2,-8.98 -25.3,-1.1 -7.68,9.08 -14.77,18.7 -22.15,28 -6.38,9.02 -17.57,11.96 -26.55,17.6 -12.96,8 -27.8,11.96 -42,17.1 -1.14,-3.94 -2.34,-7.86 -3.5,-11.8 3.22,-0.64 6.45,-1.22 9.65,-2 9.74,-1.88 16.94,-9.25 24.9,-14.55 7.44,-5.84 16.03,-10.38 22.45,-17.4 7,-9.12 13.2,-18.79 20,-28.05 6.68,-8.32 4.53,-19.59 5.45,-29.45 -0.12,-11.3 2.72,-22.66 1.1,-33.9 -4.06,-6.4 -11.82,-8.86 -18.4,-11.8 -11.52501,-3.8375 -23.7,-5.66406 -35.85,-5.65 z m -2,15.55 c 10.4,0.62 20.8,2.39 30.8,5.35 -0.7,14.16 -1.66,28.29 -2.2,42.45 0.22,7.52 -5.71,12.89 -9.45,18.75 -6.08,7.94 -10.63,17.4 -19.15,23.1 -7.76,5.42 -15.37,11.06 -23.05,16.6 -8.36,6.36 -19.94,4.3 -28.8,9.5 -5.6,3.84 -1.24,10.82 -0.5,16 -4.44,-14.72 -15.09,-27.95 -13.95,-43.95 0.28,-10.62 -1.56,-21.75 3,-31.75 4.7,-10.38 5.92,-23 15,-30.8 7.84,-6.94 14.43,-16.49 25.05,-19.25 7.72,-2.12 15.27,-5.08 23.25,-6 z m 66.45,115.85 c -4.38,10.34 -10.69,19.58 -19.45,26.7 -7.08,8.44 -17.1,13.11 -27.1,17.15 -12.28,7.34 -26.14,-0.99 -39,-2.05 17.18,-7.74 36.12,-11.29 52.4,-21.05 11.14,-6.76 24.05,-11.07 33.15,-20.75 z"
     id="path28"
     style="fill:#f5e5c1"
     inkscape:connector-curvature="0" />
  <path
     d="m 103.3,455.8 c -1.6,24.9 -0.4,49.88 0.1,74.8 38.14,-0.02 76.31,0 114.45,0 0,-24.94 -0.07,-49.88 -0.05,-74.8 l -114.5,0 z m 103.3,10.6 c -0.02,3.96 -0.03,7.94 -0.05,11.9 l -94.15,0 c -0.06,-3.96 -0.11,-7.91 -0.15,-11.85 31.46,0 62.89,-0.01 94.35,-0.05 z"
     id="path32"
     style="fill:#f5e5c1"
     inkscape:connector-curvature="0" />
  <path
     d="m 228.58,455.82 c 7.46,-0.02 14.9,-0.02 22.36,-0.04 0.04,4.28 0.06,8.56 0.12,12.84 -4.58,0.14 -9.24,-0.24 -13.76,0.66 -4.3,2.04 -4.44,7.04 -4.86,11.14 6.2,0.16 12.38,0.22 18.58,0.22 -0.04,16.66 0,33.32 -0.02,49.98 -7.48,-0.02 -14.98,-0.02 -22.48,-0.02 0.08,-24.94 -0.04,-49.86 0.06,-74.78 z"
     id="path34"
     inkscape:connector-curvature="0"
     style="fill:#f5e5c1" />
  <path
     d="m 92.85,456.9 c -16.28,1.7 -33.61,6.33 -44.85,19.05 -7.44,7.86 -10.1,19.95 -5.9,30.05 4.64,10.72 14.65,18.05 25.15,22.45 8.08,3.5 17.11,1.81 25.65,2.15 -0.06,-24.56 0.01,-49.14 -0.05,-73.7 z m -21.65,9.6 c 2.935,-0.002 5.87,0.11 8.8,0.35 -2.88,7.36 -8.1,14.34 -15.9,16.8 -4.58,0.54 -9.24,0.37 -13.7,-0.85 3.78,-5.5 8.44,-10.34 12,-16 2.93,-0.19 5.865,-0.2975 8.8,-0.3 z"
     id="path36"
     style="fill:#f5e5c1"
     inkscape:connector-curvature="0" />
  <path
     d="m 103.25,547.35 c -1.44,24.8 -0.41,49.66 0.15,74.5 38.14,-0.08 76.26,-0.02 114.4,0 0.08,-24.84 -0.14,-49.68 0.1,-74.5 -38.22,-0.02 -76.45,0 -114.65,0 z m 9.1,10.3 c 31.38,0.02 62.8,0 94.2,0 0.04,3.94 0.03,7.86 0.05,11.8 -31.46,0.06 -62.89,0.01 -94.35,0.05 0.04,-3.96 0.06,-7.91 0.1,-11.85 z"
     id="path44"
     style="fill:#f5e5c1"
     inkscape:connector-curvature="0" />
  <path
     d="m 228.52,547.34 c 7.5,0 15,0 22.5,-0.02 0,4.28 -0.02,8.56 -0.04,12.86 -5.54,0.9 -13.54,-2.16 -16.92,3.8 -1.06,2.3 -1.4,4.86 -2.06,7.32 6.34,0.58 12.68,0.86 19.04,1.06 -0.08,16.5 -0.02,33 -0.04,49.52 -7.48,-0.08 -14.96,-0.06 -22.46,-0.02 0,-24.84 0.04,-49.68 -0.02,-74.52 z"
     id="path46"
     inkscape:connector-curvature="0"
     style="fill:#f5e5c1" />
  <path
     d="m 92.85,548.4 c -16.46,1.62 -33.97,6.45 -45.15,19.45 -7.34,7.84 -9.74,19.93 -5.5,29.85 4.38,9.84 13.35,16.88 22.95,21.3 8.56,4.48 18.46,2.42 27.7,2.9 0.02,-24.5 0.06,-49 0,-73.5 z m -24.1,9.1 c 3.397266,-0.17558 6.925,0.2875 10.25,0.4 -0.24,7.96 -7.41,13.55 -13.85,17.05 -4.94,1 -10.02,0.28 -15,0 3.88,-5.66 7.98,-11.22 12.7,-16.2 1.89,-0.78 3.86164,-1.14466 5.9,-1.25 z"
     id="path48"
     style="fill:#f5e5c1"
     inkscape:connector-curvature="0" />
  <path
     d="m 103.2,646.2 c -1.44,24.8 -0.32,49.68 0.2,74.5 38.16,-0.02 76.31,-0.03 114.45,-0.05 0.02,-24.82 -0.16,-49.63 0,-74.45 -38.2,0.02 -76.43,-0.04 -114.65,0 z m 103.35,10.25 c 0,3.94 0.01,7.92 0.05,11.9 l -94.25,0 c -0.04,-3.96 -0.06,-7.89 -0.1,-11.85 31.44,0 62.86,0.03 94.3,-0.05 z"
     id="path56"
     style="fill:#f5e5c1"
     inkscape:connector-curvature="0" />
  <path
     d="m 228.54,646.14 c 7.48,0.04 14.98,0.04 22.46,-0.02 0,4.18 0.02,8.36 0.04,12.56 -4.6,0.14 -9.26,-0.24 -13.78,0.7 -4.24,2.02 -4.38,7.04 -4.9,11.06 6.22,0.2 12.44,0.26 18.66,0.26 -0.04,16.66 0,33.32 0,50 -7.52,-0.04 -15.02,-0.04 -22.52,-0.04 0.1,-24.84 0.02,-49.68 0.04,-74.52 z"
     id="path58"
     inkscape:connector-curvature="0"
     style="fill:#f5e5c1" />
  <path
     d="m 92.85,647 c -15.86,1.7 -32.58,6.02 -43.9,18 -7.62,7.54 -11.01,19.22 -7.45,29.5 3.98,11.12 13.97,18.84 24.45,23.5 8.38,4.16 17.97,2.35 26.95,2.65 -0.06,-24.56 0.01,-49.09 -0.05,-73.65 z m -24.1,9.35 c 3.682422,-0.0873 7.575,0.5875 11.15,0.55 -1.78,3.66 -3.7,7.3 -5.6,10.9 -3.44,2.1 -6.66,4.64 -10.4,6.2 -4.6,0.92 -9.24,-0.3 -13.8,-0.9 4.02,-5.22 7.96,-10.51 12.3,-15.45 1.995,-0.94499 4.140547,-1.24762 6.35,-1.3 z"
     id="path60"
     style="fill:#f5e5c1"
     inkscape:connector-curvature="0" />
  <path
     d="m 217.85,738.25 c -38.22,0.02 -76.43,-0.01 -114.65,0.05 -1.44,24.8 -0.32,49.68 0.2,74.5 38.16,-0.04 76.29,-0.03 114.45,-0.05 -0.02,-24.84 -0.18,-49.68 0,-74.5 z m -105.6,10.35 c 31.46,0.04 62.94,-0.1 94.4,0 -0.02,3.92 -0.06,7.86 -0.1,11.8 l -94.2,0 c -0.04,-3.96 -0.08,-7.86 -0.1,-11.8 z"
     id="path66"
     style="fill:#f5e5c1"
     inkscape:connector-curvature="0" />
  <path
     d="m 228.54,738.22 c 7.46,0.04 14.94,0.04 22.4,-0.06 0.06,4.2 0.08,8.42 0.12,12.64 -4.54,0.12 -9.14,-0.22 -13.62,0.64 -4.36,1.9 -4.54,7.02 -5.14,11.08 6.24,0.2 12.5,0.28 18.74,0.3 -0.06,16.66 -0.02,33.32 -0.02,49.98 -7.52,-0.04 -15.02,-0.04 -22.52,-0.04 0.1,-24.84 0.04,-49.68 0.04,-74.54 z"
     id="path68"
     inkscape:connector-curvature="0"
     style="fill:#f5e5c1" />
  <path
     d="m 92.85,739.1 c -16.66,1.76 -34.49,6.59 -45.65,19.95 -7.18,8.14 -9.31,20.49 -4.55,30.35 4.8,10.16 14.53,17.01 24.65,21.25 8.08,3.52 17.08,1.74 25.6,2.1 -0.06,-24.56 0.01,-49.09 -0.05,-73.65 z m -21.7,9.55 c 2.907501,-0.015 5.79,0.04 8.7,0.25 -1.76,3.68 -3.63,7.33 -5.55,10.95 -3.42,2.08 -6.58,4.63 -10.3,6.15 -4.56,0.66 -9.14,0.28 -13.7,0.2 3.48,-6.14 8.22,-11.37 12.1,-17.25 2.9,-0.17 5.842499,-0.28501 8.75,-0.3 z"
     id="path70"
     style="fill:#f5e5c1"
     inkscape:connector-curvature="0" />
  <path
     d="m 160.55,832.95 c -19.115,-0.002 -38.23,0.01 -57.35,0.05 -1.32,24.82 -0.36,49.68 0.2,74.5 38.16,-0.06 76.29,0 114.45,0 0.02,-24.84 -0.19,-49.71 0.05,-74.55 -19.12,0.01 -38.23499,0.002 -57.35,0 z m -48.25,10.35 94.3,0 c 0,3.92 -0.02,7.86 0,11.8 -31.44,0.02 -62.89,0 -94.35,0 0.02,-3.92 0.05,-7.88 0.05,-11.8 z"
     id="path76"
     style="fill:#f5e5c1"
     inkscape:connector-curvature="0" />
  <path
     d="m 228.5,832.92 c 7.52,0.02 15.02,0.02 22.54,-0.02 -0.02,4.2 -0.02,8.4 -0.02,12.62 -4.34,0.06 -8.74,-0.18 -13.04,0.52 -4.54,1.72 -5.1,6.96 -5.88,11.06 6.3,0.38 12.6,0.44 18.9,0.48 0.02,16.64 0,33.3 0.02,49.94 -7.5,-0.06 -15,-0.06 -22.5,-0.02 0.04,-24.86 0.06,-49.72 -0.02,-74.58 z"
     id="path78"
     inkscape:connector-curvature="0"
     style="fill:#f5e5c1" />
  <path
     d="m 92.85,834.05 c -17.02,1.42 -35.19,6.72 -46.25,20.6 -7,8.2 -8.59,20.6 -3.65,30.2 4.66,9.14 13.29,15.6 22.45,19.8 8.5,4.42 18.34,2.45 27.5,2.85 -0.08,-24.48 0.05,-48.95 -0.05,-73.45 z m -21.5,9.3 c 2.862499,0.002 5.73,0.1 8.6,0.25 -2.6,7.68 -8.06,14.36 -15.8,17.2 -4.66,0.46 -9.37,0.14 -14.05,-0.2 3.96,-5.9 8.7,-11.24 12.7,-17.1 2.86,-0.08 5.687501,-0.1525 8.55,-0.15 z"
     id="path80"
     style="fill:#f5e5c1"
     inkscape:connector-curvature="0" />
  <path
     d="m 103.2,924.45 c -1.44,24.8 -0.32,49.7 0.2,74.5 38.14,0 76.29,-0.04 114.45,0 0.06,-24.84 -0.19,-49.68 0.05,-74.5 -38.22,0 -76.48,-0.02 -114.7,0 z m 9.05,10.35 c 31.46,0.04 62.94,-0.07 94.4,0.05 -0.04,3.9 -0.06,7.81 -0.1,11.75 -31.42,-0.02 -62.83,-0.02 -94.25,0 -0.02,-3.96 -0.03,-7.88 -0.05,-11.8 z"
     id="path86"
     style="fill:#f5e5c1"
     inkscape:connector-curvature="0" />
  <path
     d="m 228.52,924.44 c 7.5,0.02 14.98,0.02 22.46,-0.04 0.02,4.2 0.04,8.42 0.08,12.66 -4.54,0.12 -9.14,-0.26 -13.6,0.64 -4.3,1.92 -4.54,6.98 -5.24,10.98 6.26,0.3 12.54,0.38 18.8,0.42 -0.02,16.62 -0.02,33.24 0,49.88 -7.5,-0.04 -15.02,-0.04 -22.52,-0.04 0.1,-24.84 0.04,-49.68 0.02,-74.5 z"
     id="path88"
     inkscape:connector-curvature="0"
     style="fill:#f5e5c1" />
  <path
     d="m 92.85,925.3 c -16.62,1.8 -34.37,6.62 -45.55,19.9 -7.18,8.1 -9.43,20.37 -4.75,30.25 5.28,11.2 16.37,18.57 27.75,22.55 7.38,1.86 15.08,0.69 22.6,0.95 -0.08,-24.54 0.01,-49.11 -0.05,-73.65 z m -23.8,9.35 c 3.64629,-0.0721 7.375,0.55 10.95,0.6 -2.8,7.5 -8.09,14.14 -15.75,17 -4.66,0.6 -9.34,0.21 -14,0.05 3.6,-5.86 7.78,-11.4 12.4,-16.5 2.047501,-0.7875 4.212227,-1.10675 6.4,-1.15 z"
     id="path90"
     style="fill:#f5e5c1"
     inkscape:connector-curvature="0" />
</svg>
