<?xml version="1.0" encoding="UTF-8" ?>
<!DOCTYPE svg PUBLIC "-//W3C//DTD SVG 1.1//EN" "http://www.w3.org/Graphics/SVG/1.1/DTD/svg11.dtd">
<svg width="512pt" height="512pt" viewBox="0 0 512 512" version="1.1" xmlns="http://www.w3.org/2000/svg">
<path fill="#3e3e3e" opacity="1.00" d=" M 0.00 0.00 L 512.00 0.00 L 512.00 512.00 L 0.00 512.00 L 0.00 0.00 Z" />
<path fill="#f5e5c1" opacity="1.00" d=" M 303.01 4.92 C 313.64 8.78 321.97 18.09 324.81 29.01 C 327.95 40.62 325.77 52.92 321.86 64.06 C 318.56 73.65 313.43 83.04 305.24 89.30 C 297.98 95.86 290.62 103.46 288.73 113.44 C 286.64 124.33 288.42 135.43 288.98 146.37 C 279.33 131.87 275.04 113.71 277.85 96.46 C 279.29 87.82 282.49 79.53 286.97 72.02 C 292.74 62.08 301.39 54.22 307.29 44.37 C 311.44 37.71 315.58 29.79 313.26 21.74 C 312.08 15.02 307.44 9.79 303.01 4.92 Z" />
<path fill="#f5e5c1" opacity="1.00" d=" M 270.88 170.04 C 272.62 164.43 271.23 158.35 272.92 152.75 C 273.46 152.66 274.54 152.49 275.09 152.41 C 278.35 155.94 280.31 160.44 282.96 164.42 C 286.31 160.22 289.57 155.95 292.97 151.78 C 295.20 158.66 297.51 165.52 299.80 172.37 C 306.12 168.71 312.53 165.21 318.86 161.55 C 316.46 185.51 313.89 209.45 311.39 233.41 C 300.77 235.78 289.82 235.79 279.01 235.28 C 270.20 234.22 262.02 230.09 254.65 225.35 C 256.35 208.00 257.93 190.63 259.64 173.28 C 262.26 175.59 264.90 177.88 267.67 180.03 C 268.70 176.68 269.88 173.39 270.88 170.04 Z" />
<path fill="#3e3e3e" opacity="1.00" d=" M 272.87 189.90 C 278.50 181.33 283.90 172.60 289.76 164.18 C 291.11 168.90 292.25 173.68 293.77 178.35 C 294.43 180.57 296.93 181.40 299.02 181.45 C 304.10 182.29 306.75 177.05 310.22 174.37 C 308.32 190.79 306.53 207.22 304.99 223.67 C 297.00 224.60 288.95 224.65 280.94 225.36 C 275.52 226.23 271.00 222.57 266.11 220.94 C 265.60 210.52 266.01 200.07 265.67 189.63 C 267.77 190.89 271.08 192.55 272.87 189.90 Z" />
<path fill="#f5e5c1" opacity="1.00" d=" M 218.09 221.13 C 227.68 215.97 238.71 214.79 249.32 213.28 C 250.16 214.40 251.98 215.29 251.60 216.96 C 251.29 221.07 250.40 225.11 249.71 229.17 C 253.89 232.87 259.41 234.23 264.42 236.39 C 268.20 237.73 271.82 240.13 276.00 239.68 C 289.19 239.01 302.56 240.31 315.59 237.63 C 316.28 232.24 316.98 226.85 317.78 221.47 C 317.90 219.57 319.70 218.59 320.97 217.46 C 331.20 220.01 341.76 222.46 350.74 228.23 C 354.37 230.62 358.10 234.29 357.54 239.04 C 356.65 247.79 355.27 256.48 354.19 265.21 C 339.84 268.33 325.82 273.46 311.07 274.32 C 310.17 272.18 309.25 270.05 308.33 267.92 C 320.42 267.19 332.43 265.29 344.16 262.22 C 344.66 257.72 345.35 253.24 345.89 248.75 C 333.47 253.30 320.15 254.41 307.05 255.07 C 289.03 255.58 270.94 254.36 253.19 251.17 C 242.44 249.20 231.74 246.47 221.83 241.77 C 221.86 246.00 221.87 250.23 221.78 254.46 C 234.73 260.24 248.67 263.50 262.61 265.88 C 262.97 267.90 263.32 269.93 263.67 271.96 C 254.28 270.07 244.63 269.08 235.62 265.67 C 227.63 262.80 219.59 260.07 211.64 257.10 C 211.39 248.05 211.85 238.99 211.31 229.94 C 211.19 225.84 214.86 222.97 218.09 221.13 Z" />
<path fill="#f5e5c1" opacity="1.00" d=" M 268.30 262.48 C 276.04 260.52 284.13 261.98 292.03 261.50 C 294.98 261.80 299.57 260.48 300.99 263.99 C 313.28 292.33 325.56 320.68 337.79 349.06 C 339.03 351.89 340.49 354.67 341.14 357.73 C 346.79 383.20 352.55 408.64 358.23 434.10 C 359.16 436.22 357.67 437.88 356.18 439.19 C 360.88 442.61 364.12 448.12 364.23 454.00 C 363.58 459.34 359.41 463.24 355.38 466.38 C 353.57 467.91 351.02 467.73 348.84 468.32 C 342.37 469.92 335.97 466.29 331.62 461.71 C 330.91 458.05 330.63 454.31 331.61 450.67 C 329.05 450.31 326.21 449.61 325.12 446.97 C 312.95 424.78 300.80 402.58 288.61 380.40 C 287.50 378.27 286.02 376.28 285.45 373.92 C 279.74 336.78 274.08 299.62 268.30 262.48 Z" />
<path fill="#3e3e3e" opacity="1.00" d=" M 278.13 268.60 C 280.91 266.48 284.58 267.61 287.80 267.39 C 297.95 297.92 307.61 328.60 317.61 359.17 C 324.99 381.22 332.42 403.25 339.80 425.30 C 341.06 429.15 342.51 432.92 343.97 436.70 C 340.47 438.49 336.95 440.25 333.42 441.97 C 322.38 421.88 311.38 401.79 300.36 381.70 C 298.10 376.91 294.37 372.65 293.75 367.23 C 288.66 334.34 282.99 301.53 278.13 268.60 Z" />
<path fill="#f5e5c1" opacity="1.00" d=" M 217.14 271.18 C 219.71 270.54 220.97 266.47 223.89 267.81 C 231.27 270.35 238.62 273.01 245.99 275.61 C 245.36 277.26 245.06 279.32 243.39 280.28 C 241.11 281.54 238.55 282.13 236.10 282.96 C 192.35 297.20 148.59 311.44 104.85 325.72 C 101.26 326.66 97.81 328.87 94.01 328.53 C 90.56 326.95 87.54 324.49 83.95 323.16 C 80.24 321.76 76.92 319.05 73.01 318.44 C 60.63 326.14 48.55 334.36 36.29 342.27 C 34.97 343.25 33.34 343.45 31.79 343.76 C 31.64 345.53 31.50 347.31 31.35 349.10 C 33.92 352.66 38.23 353.51 42.22 354.50 C 51.38 348.98 60.42 343.25 69.51 337.61 C 71.78 336.42 74.04 334.05 76.81 334.96 C 89.29 338.17 101.76 341.48 114.23 344.75 C 115.63 345.21 117.10 345.12 118.52 344.79 C 168.35 333.04 218.25 321.45 268.06 309.66 C 270.57 311.32 271.17 314.34 271.54 317.12 C 266.16 318.40 260.80 319.77 255.40 320.98 C 254.50 335.91 253.91 350.87 253.30 365.82 C 260.89 368.81 269.23 369.16 277.26 368.21 C 277.46 369.93 277.68 371.64 277.90 373.36 C 268.07 374.37 257.43 374.19 248.62 369.23 C 247.93 367.59 248.15 365.77 248.14 364.05 C 248.63 350.14 249.46 336.24 249.96 322.33 C 207.07 332.64 164.18 342.96 121.30 353.29 C 118.09 353.95 114.74 355.46 111.46 354.32 C 99.65 350.37 87.97 345.97 76.10 342.23 C 65.23 348.07 55.05 355.24 44.26 361.28 C 38.47 362.91 31.15 361.72 27.43 356.56 C 24.18 352.11 24.15 346.23 24.91 341.00 C 25.36 338.29 25.81 335.06 28.53 333.67 C 41.33 325.44 54.19 317.29 66.98 309.04 C 68.55 308.13 70.39 306.56 72.29 307.69 C 78.50 310.76 84.43 314.40 90.64 317.48 C 92.04 318.31 93.58 317.44 94.98 317.09 C 113.63 310.75 132.65 305.42 150.86 297.83 C 172.94 288.91 195.04 280.04 217.14 271.18 Z" />
<path fill="#f5e5c1" opacity="1.00" d=" M 358.42 269.40 C 359.58 268.88 360.54 269.94 361.49 270.44 C 371.78 277.50 382.14 284.47 392.47 291.47 C 395.67 293.55 398.04 296.56 400.59 299.35 C 410.70 310.26 420.66 321.30 430.80 332.18 C 431.88 333.41 433.06 334.61 433.81 336.10 C 434.16 337.96 432.44 339.16 431.37 340.39 C 428.09 343.56 424.84 346.77 421.43 349.80 C 425.79 349.44 430.69 349.77 433.93 353.10 C 436.13 355.65 437.88 358.71 438.55 362.04 C 438.36 364.50 437.13 366.72 436.23 368.98 C 431.09 372.87 424.08 373.56 418.08 371.48 C 414.77 370.58 414.16 366.65 412.96 363.94 C 411.79 361.82 412.82 359.60 413.57 357.56 C 410.80 358.51 407.52 358.90 405.13 356.84 C 393.17 347.20 381.36 337.38 369.45 327.68 C 364.23 323.21 358.61 319.18 353.63 314.45 C 344.21 302.31 335.20 289.83 325.84 277.63 C 329.12 276.74 332.43 275.94 335.77 275.28 C 343.31 285.69 351.18 295.85 358.82 306.19 C 360.65 308.65 362.42 311.21 364.83 313.16 C 379.68 325.32 394.55 337.44 409.35 349.66 C 413.85 345.35 418.23 340.93 422.77 336.67 C 410.74 323.55 398.83 310.31 386.61 297.38 C 374.43 288.51 361.67 280.42 349.29 271.81 C 352.36 271.13 355.39 270.26 358.42 269.40 Z" />
<path fill="#3e3e3e" opacity="1.00" d=" M 430.43 356.41 C 433.28 358.21 435.78 361.37 434.27 364.91 C 431.47 370.63 422.39 371.15 418.15 366.82 C 415.73 364.19 416.78 360.37 418.70 357.80 C 418.79 361.50 422.03 365.22 425.96 364.13 C 429.44 363.32 430.58 359.58 430.43 356.41 Z" />
<path fill="#f5e5c1" opacity="1.00" d=" M 404.77 364.73 C 405.93 364.04 407.09 363.37 408.25 362.69 C 409.79 366.61 410.77 371.15 413.91 374.14 C 421.96 378.08 432.62 377.76 439.39 371.43 C 441.13 368.76 441.86 365.60 442.81 362.59 C 449.23 364.52 456.08 366.55 460.80 371.62 C 459.31 378.41 458.70 385.37 457.11 392.12 C 454.94 394.15 451.84 394.72 449.08 395.54 C 433.73 399.50 417.52 395.55 403.54 388.83 C 403.68 380.78 404.60 372.77 404.77 364.73 Z" />
<path fill="#3e3e3e" opacity="1.00" d=" M 412.28 380.76 C 423.82 385.51 436.58 386.87 448.95 385.54 C 448.29 386.81 448.27 388.95 446.48 389.17 C 435.00 392.38 422.78 389.53 412.16 384.74 C 412.21 383.41 412.25 382.08 412.28 380.76 Z" />
<path fill="#f5e5c1" opacity="1.00" d=" M 136.59 397.58 C 137.96 396.47 140.33 395.60 141.63 397.30 C 147.07 404.66 151.19 412.96 156.73 420.25 C 163.81 426.86 171.30 433.04 178.46 439.57 C 180.72 441.30 179.84 445.21 176.88 445.44 C 161.27 449.00 145.61 452.29 129.99 455.82 C 128.22 456.03 125.92 457.13 124.63 455.32 C 123.42 453.31 123.06 450.93 122.38 448.73 C 114.87 458.11 106.98 467.18 99.36 476.48 C 98.39 477.38 97.59 478.92 96.09 478.86 C 94.09 479.25 92.95 477.34 91.80 476.10 C 84.98 467.56 78.22 458.98 71.40 450.44 C 69.63 448.11 66.89 446.90 64.39 445.52 C 57.93 442.00 51.50 438.42 45.03 434.90 C 43.31 434.12 42.23 432.57 41.28 431.01 C 43.80 427.57 48.23 426.84 51.87 425.12 C 63.98 420.33 75.88 415.00 88.09 410.47 C 93.97 413.21 99.27 417.04 105.12 419.81 C 106.22 419.48 107.14 418.76 108.07 418.13 C 117.53 411.22 127.09 404.44 136.59 397.58 Z" />
<path fill="#3e3e3e" opacity="1.00" d=" M 110.94 423.25 C 120.27 416.72 129.41 409.91 138.72 403.36 C 142.43 409.27 146.18 415.15 149.90 421.05 C 152.23 424.97 156.06 427.56 159.38 430.57 C 163.18 434.05 167.18 437.30 170.90 440.87 C 156.75 443.61 142.77 447.17 128.62 449.91 C 128.92 444.62 129.24 439.19 128.16 433.98 C 123.21 429.37 116.50 427.07 110.94 423.25 Z" />
<path fill="#3e3e3e" opacity="1.00" d=" M 84.98 417.93 C 86.34 417.43 87.92 416.64 89.24 417.70 C 100.39 424.06 111.49 430.50 122.65 436.84 C 122.69 437.79 122.73 438.75 122.78 439.72 C 113.32 449.93 104.78 460.96 95.78 471.56 C 89.07 463.14 82.34 454.75 75.66 446.31 C 74.21 444.38 72.21 443.00 70.09 441.90 C 63.85 438.56 57.73 435.00 51.44 431.75 C 62.59 427.07 73.80 422.53 84.98 417.93 Z" />
<path fill="#f5e5c1" opacity="1.00" d=" M 261.55 431.53 C 265.64 429.58 267.13 434.63 268.59 437.35 C 270.49 441.78 274.55 446.33 272.28 451.42 C 265.89 461.24 259.06 470.76 252.69 480.60 C 251.46 482.24 250.26 484.57 247.92 484.63 C 219.93 485.35 191.91 485.47 163.91 485.77 C 161.27 486.26 158.47 483.92 159.48 481.16 C 160.42 477.90 160.02 473.17 163.30 471.34 C 180.28 470.49 197.10 467.94 213.95 465.86 C 217.53 465.28 221.30 466.35 224.74 464.92 C 233.13 461.93 241.58 459.12 250.00 456.25 C 251.13 455.74 252.69 455.57 253.04 454.15 C 256.17 446.73 257.78 438.64 261.55 431.53 Z" />
<path fill="#3e3e3e" opacity="1.00" d=" M 258.20 457.42 C 260.19 452.02 262.00 446.55 263.92 441.13 C 265.05 443.42 266.16 445.73 267.31 448.02 C 260.67 458.35 253.62 468.42 246.86 478.68 C 224.94 479.60 202.97 479.00 181.05 480.28 C 175.81 480.05 170.22 481.84 165.27 479.52 C 165.86 477.60 166.25 474.85 168.84 474.91 C 184.22 474.03 199.67 473.78 214.97 471.75 C 227.55 471.32 239.12 465.88 250.95 462.17 C 253.61 461.12 257.30 460.62 258.20 457.42 Z" />
<path fill="#3e3e3e" opacity="1.00" d=" M 354.85 446.92 C 356.45 449.64 358.07 452.75 357.06 456.01 C 355.89 461.88 348.70 465.42 343.35 462.63 C 339.60 460.98 337.90 456.94 337.49 453.09 C 339.01 454.81 340.53 456.80 342.91 457.31 C 347.34 458.17 352.27 456.00 354.45 452.00 C 354.78 450.32 354.75 448.61 354.85 446.92 Z" />
<path fill="#f5e5c1" opacity="1.00" d=" M 306.96 464.06 C 311.77 458.24 319.63 457.11 326.58 455.70 C 327.10 458.39 327.24 461.19 328.12 463.81 C 332.35 468.98 338.51 472.03 345.03 473.09 C 348.51 472.65 351.93 471.80 355.39 471.16 C 360.70 468.03 365.21 463.43 367.75 457.74 C 372.67 459.30 377.91 460.65 381.91 464.09 C 383.56 465.51 384.78 467.74 384.06 469.95 C 382.45 479.06 380.80 488.16 379.20 497.27 C 363.92 504.36 346.41 503.30 330.15 500.93 C 323.09 499.80 316.08 498.30 309.20 496.34 C 308.24 485.60 307.56 474.83 306.96 464.06 Z" />
<path fill="#f5e5c1" opacity="1.00" d=" M 437.40 465.74 C 443.69 465.20 447.42 459.14 453.12 457.17 C 454.70 456.80 456.25 457.45 457.54 458.34 C 464.96 463.31 472.38 468.29 479.85 473.20 C 481.39 474.18 482.57 475.58 483.76 476.96 C 482.86 478.02 482.40 479.73 480.90 480.12 C 477.49 480.60 474.04 480.41 470.61 480.60 C 469.43 481.78 468.19 484.20 466.19 482.99 C 456.66 478.95 446.97 475.32 437.32 471.59 C 434.39 471.05 434.21 465.89 437.40 465.74 Z" />
<path fill="#3e3e3e" opacity="1.00" d=" M 446.16 468.76 C 448.76 466.84 451.40 464.99 454.06 463.16 C 459.81 466.94 465.47 470.84 471.26 474.53 C 467.29 474.58 463.09 475.40 459.31 473.78 C 454.95 472.05 450.61 470.25 446.16 468.76 Z" />
<path fill="#3e3e3e" opacity="1.00" d=" M 316.34 475.48 C 328.66 479.93 341.95 480.95 354.96 480.54 C 361.13 480.42 367.25 479.44 373.25 478.02 C 372.47 482.87 372.28 487.80 371.33 492.63 C 365.41 495.60 358.53 495.88 352.03 496.24 C 340.16 496.10 328.34 494.32 316.87 491.32 C 316.79 486.03 316.51 480.75 316.34 475.48 Z" />
</svg>
