<?xml version="1.0" encoding="UTF-8" standalone="no"?>
<svg
   xmlns:dc="http://purl.org/dc/elements/1.1/"
   xmlns:cc="http://creativecommons.org/ns#"
   xmlns:rdf="http://www.w3.org/1999/02/22-rdf-syntax-ns#"
   xmlns:svg="http://www.w3.org/2000/svg"
   xmlns="http://www.w3.org/2000/svg"
   xmlns:sodipodi="http://sodipodi.sourceforge.net/DTD/sodipodi-0.dtd"
   xmlns:inkscape="http://www.inkscape.org/namespaces/inkscape"
   width="512pt"
   height="512pt"
   viewBox="0 0 512 512"
   version="1.1"
   id="svg2"
   inkscape:version="0.48.1 "
   sodipodi:docname="doublejump_kill.svg">
  <metadata
     id="metadata30">
    <rdf:RDF>
      <cc:Work
         rdf:about="">
        <dc:format>image/svg+xml</dc:format>
        <dc:type
           rdf:resource="http://purl.org/dc/dcmitype/StillImage" />
      </cc:Work>
    </rdf:RDF>
  </metadata>
  <defs
     id="defs28" />
  <sodipodi:namedview
     pagecolor="#ffffff"
     bordercolor="#666666"
     borderopacity="1"
     objecttolerance="10"
     gridtolerance="10"
     guidetolerance="10"
     inkscape:pageopacity="0"
     inkscape:pageshadow="2"
     inkscape:window-width="1920"
     inkscape:window-height="1018"
     id="namedview26"
     showgrid="false"
     inkscape:snap-page="true"
     inkscape:zoom="0.68059028"
     inkscape:cx="120.42083"
     inkscape:cy="394.55888"
     inkscape:window-x="-8"
     inkscape:window-y="-8"
     inkscape:window-maximized="1"
     inkscape:current-layer="svg2" />
  <rect
     style="fill:#3e3e3e;fill-opacity:1;stroke:none"
     id="rect3007"
     width="640"
     height="640"
     x="0"
     y="0"
     transform="scale(0.8,0.8)" />
  <path
     fill="#f4722b"
     opacity="1.00"
     d=" M 400.16 22.93 C 414.45 36.59 428.15 50.88 442.26 64.74 C 456.73 79.30 471.31 93.76 485.78 108.32 C 485.34 109.41 484.04 109.52 483.10 109.95 C 449.85 121.54 416.92 134.03 383.63 145.50 C 389.56 104.72 394.51 63.77 400.16 22.93 Z"
     id="path6" />
  <path
     fill="#f4722b"
     opacity="1.00"
     d=" M 255.89 74.72 C 284.84 61.82 316.31 54.41 347.99 53.32 C 357.87 53.22 367.76 53.36 377.64 53.66 C 376.53 68.06 374.04 82.34 372.38 96.68 C 361.34 95.03 350.17 93.99 338.99 94.31 C 322.03 94.05 305.24 97.59 289.13 102.67 C 265.72 110.50 244.26 123.57 225.68 139.74 C 210.74 152.81 197.39 167.62 185.59 183.57 C 166.80 209.40 151.19 237.66 140.10 267.63 C 158.21 259.00 178.19 255.00 197.98 252.47 C 205.22 251.24 212.58 251.75 219.83 250.72 C 267.77 249.69 315.61 261.84 358.20 283.67 C 365.65 287.97 373.47 291.59 380.80 296.11 C 397.44 306.28 413.54 317.41 428.53 329.89 C 423.05 342.24 417.79 354.69 412.35 367.06 C 411.05 369.74 410.47 373.25 407.46 374.60 C 396.45 380.88 385.47 387.20 374.50 393.55 C 371.32 410.13 368.85 426.84 365.51 443.39 C 362.28 444.17 359.03 444.92 355.76 445.54 C 340.96 414.35 323.58 384.15 301.45 357.53 C 281.76 334.40 258.55 313.44 230.77 300.57 C 200.79 285.99 165.95 281.87 133.33 288.50 C 133.69 281.33 134.40 273.94 132.21 266.97 C 128.48 252.72 117.55 240.59 103.69 235.54 C 102.14 234.83 98.85 234.60 100.49 232.14 C 118.76 197.47 141.23 164.82 168.56 136.64 C 193.61 110.98 223.02 89.28 255.89 74.72 Z"
     id="path8" />
  <path
     fill="#f5e5c1"
     opacity="1.00"
     d=" M 56.99 176.91 C 58.04 182.93 56.04 188.95 56.40 195.02 C 55.18 210.20 54.79 225.43 53.49 240.61 C 59.71 230.06 65.03 219.00 70.93 208.26 C 70.05 219.99 69.00 231.71 67.88 243.41 C 62.79 244.82 56.86 243.38 52.37 246.50 C 48.98 245.03 45.45 243.90 41.86 243.04 C 41.77 242.78 41.57 242.26 41.48 242.01 C 43.25 241.18 43.32 239.13 43.77 237.48 C 47.59 219.56 51.72 201.71 55.53 183.79 C 55.70 183.36 56.04 182.49 56.21 182.06 C 56.49 180.35 56.73 178.62 56.99 176.91 Z"
     id="path10" />
  <path
     fill="#f5e5c1"
     opacity="1.00"
     d=" M 0.00 220.75 C 5.84 231.86 11.99 242.80 17.77 253.93 C 25.04 248.69 34.80 246.72 43.27 250.10 C 46.98 251.19 49.72 254.09 53.06 255.83 C 55.43 255.07 57.37 253.44 59.58 252.34 C 70.41 246.81 83.59 246.30 94.76 251.19 C 106.05 255.96 114.95 265.98 118.31 277.78 C 121.43 288.83 120.01 301.07 114.23 311.03 C 123.82 320.85 127.30 336.16 122.51 349.08 C 120.08 356.42 114.76 362.33 108.72 366.96 C 118.66 381.14 128.54 395.40 138.10 409.84 C 122.32 400.72 106.60 391.49 90.84 382.32 C 87.74 380.68 86.16 377.43 84.34 374.61 C 76.59 362.13 68.19 350.04 60.83 337.33 C 74.30 330.48 87.73 323.54 101.26 316.80 C 90.82 316.47 80.42 317.80 69.97 317.65 C 75.54 302.38 81.08 287.10 86.72 271.86 C 67.41 283.75 48.41 296.14 29.26 308.31 C 28.98 294.36 28.46 280.42 28.11 266.48 C 21.15 277.10 14.46 287.93 7.03 298.24 C 6.13 296.40 5.05 294.60 4.76 292.55 C 3.18 277.87 1.93 263.14 0.00 248.49 L 0.00 220.75 Z"
     id="path12" />
  <path
     fill="#f5e5c1"
     opacity="1.00"
     d=" M 412.18 264.02 C 427.76 283.14 443.03 302.52 458.63 321.63 C 453.73 325.12 449.01 328.84 444.02 332.19 C 433.52 309.42 422.49 286.88 412.18 264.02 Z"
     id="path14" />
  <path
     fill="#f5e5c1"
     opacity="1.00"
     d=" M 494.02 268.88 C 499.47 286.73 503.87 304.92 508.94 322.90 C 498.34 321.49 487.71 320.21 477.14 318.57 C 483.00 302.09 488.49 285.47 494.02 268.88 Z"
     id="path16" />
  <path
     fill="#f5e5c1"
     opacity="1.00"
     d=" M 127.28 320.66 C 129.55 319.20 132.37 319.86 134.92 319.74 C 147.30 319.95 159.70 319.36 172.06 320.04 C 158.94 325.05 145.77 330.03 132.84 335.53 C 130.80 330.64 129.42 325.51 127.28 320.66 Z"
     id="path18" />
  <path
     fill="#f5e5c1"
     opacity="1.00"
     d=" M 470.60 328.99 C 485.27 326.85 500.73 331.27 512.00 340.92 L 512.00 395.71 C 503.50 385.65 494.82 375.74 486.31 365.69 C 482.74 361.71 479.58 357.36 475.57 353.80 C 477.40 379.40 479.46 404.98 481.55 430.56 C 463.68 427.42 446.11 422.74 428.36 418.99 C 437.24 435.98 445.86 453.11 454.70 470.12 C 455.51 471.72 456.17 473.39 456.87 475.06 C 447.84 475.83 438.95 477.68 429.97 478.89 C 416.97 481.03 403.88 482.66 390.92 485.02 C 400.55 493.92 409.93 503.09 419.55 512.00 L 320.45 512.00 C 319.40 500.09 325.79 488.01 336.23 482.21 C 345.12 477.07 356.70 476.87 365.80 481.63 C 365.37 475.44 364.81 468.99 367.21 463.11 C 369.67 455.89 375.19 450.23 381.53 446.22 C 378.17 430.64 381.21 413.64 390.37 400.52 C 398.21 389.27 410.77 381.84 424.13 379.24 C 426.45 372.37 427.36 365.03 430.66 358.49 C 437.92 342.81 453.44 331.27 470.60 328.99 Z"
     id="path20" />
  <path
     fill="#f5e5c1"
     opacity="1.00"
     d=" M 251.31 420.56 C 275.69 435.92 299.75 451.79 324.02 467.33 C 323.07 457.79 322.13 448.22 321.88 438.64 C 331.61 448.63 341.14 458.81 351.03 468.64 C 339.95 466.70 327.96 469.89 319.85 477.80 C 310.92 486.01 307.03 499.35 310.53 511.01 C 286.45 504.08 262.66 496.12 238.56 489.24 C 262.14 488.65 285.74 489.33 309.32 488.90 C 289.85 466.24 270.55 443.42 251.31 420.56 Z"
     id="path24" />
</svg>
