<?xml version="1.0" encoding="UTF-8" ?>
<!DOCTYPE svg PUBLIC "-//W3C//DTD SVG 1.1//EN" "http://www.w3.org/Graphics/SVG/1.1/DTD/svg11.dtd">
<svg width="516pt" height="516pt" viewBox="0 0 516 516" version="1.1" xmlns="http://www.w3.org/2000/svg">
<path fill="#3e3e3e" opacity="1.00" d=" M 0.00 0.00 L 516.00 0.00 L 516.00 516.00 L 0.00 516.00 L 0.00 0.00 Z" />
<path fill="#f5e5c1" opacity="1.00" d=" M 316.12 32.98 C 318.37 30.37 321.70 29.72 324.95 29.32 C 330.39 31.75 332.78 37.37 335.92 42.01 C 338.08 45.38 339.66 49.06 341.51 52.59 C 343.38 55.37 346.26 57.43 347.51 60.64 C 350.62 68.05 353.60 75.52 356.97 82.82 C 357.86 82.59 358.76 82.36 359.67 82.13 C 361.57 83.30 363.68 83.97 365.93 83.93 C 366.73 84.75 367.54 85.58 368.35 86.41 C 371.03 86.82 371.95 89.32 369.93 91.26 C 371.15 94.15 373.10 96.73 374.09 99.70 C 373.88 100.19 373.46 101.18 373.25 101.67 C 373.76 103.38 374.81 105.10 374.44 106.95 C 373.74 108.62 372.59 110.04 371.55 111.50 C 369.55 112.13 367.48 112.60 365.60 113.55 C 363.72 117.10 363.74 121.32 361.91 124.91 C 361.00 128.00 358.20 129.79 356.34 132.24 C 354.88 134.83 354.48 137.82 353.99 140.71 C 359.82 139.56 364.58 133.33 370.85 135.18 C 375.03 137.95 379.94 139.24 384.23 141.81 C 384.48 141.20 384.99 139.98 385.24 139.37 C 388.30 137.93 391.24 135.94 393.05 133.01 C 393.81 128.16 391.98 123.28 390.10 118.87 C 386.34 112.99 390.93 106.34 393.36 100.86 C 395.21 100.42 397.07 100.07 398.95 99.78 C 403.96 96.00 409.58 100.14 414.78 101.20 C 419.35 102.06 423.63 103.94 427.83 105.88 C 427.32 108.02 426.72 110.14 426.04 112.24 C 429.51 113.14 433.05 113.80 436.39 115.17 C 436.19 119.43 433.89 123.09 431.01 126.08 C 428.41 125.89 425.81 125.75 423.22 125.56 C 424.21 127.31 425.76 128.82 426.20 130.85 C 424.92 131.61 423.57 132.24 422.25 132.91 C 422.48 134.29 422.72 135.68 422.99 137.06 C 421.93 139.80 420.89 142.56 419.82 145.31 C 419.00 145.36 418.18 145.43 417.38 145.50 C 414.71 144.65 411.96 144.09 409.25 143.41 C 407.35 144.89 405.40 146.31 403.52 147.82 C 407.38 151.30 409.75 155.97 412.86 160.07 C 415.17 162.55 414.06 166.15 414.11 169.17 C 415.97 170.86 418.33 172.09 419.76 174.20 C 420.51 177.73 420.94 181.32 421.68 184.85 C 420.49 187.74 419.75 190.81 419.87 193.96 C 420.07 201.29 420.97 208.58 421.06 215.92 C 424.20 220.37 428.92 223.36 432.42 227.51 C 436.24 232.10 440.55 236.30 445.38 239.84 C 446.51 240.17 447.65 240.60 448.24 241.73 C 450.51 244.90 452.64 248.24 455.71 250.73 C 460.06 251.72 463.82 254.34 468.18 255.39 C 470.23 255.55 472.27 255.79 474.30 256.19 C 471.59 259.61 466.93 259.25 463.03 259.35 C 464.40 261.10 465.70 263.02 467.69 264.12 C 472.88 267.08 477.03 271.50 480.91 275.97 C 480.48 276.97 480.06 277.98 479.65 278.99 C 474.01 276.73 469.44 272.48 463.65 270.54 C 466.40 276.48 468.92 282.54 471.71 288.47 C 470.80 289.03 469.90 289.61 468.99 290.18 C 465.00 284.75 461.52 278.96 457.37 273.63 C 458.22 279.08 460.13 284.28 461.78 289.53 C 460.61 290.21 458.91 292.14 458.06 290.06 C 455.22 285.36 453.61 280.03 451.25 275.09 C 450.70 278.20 450.44 281.35 450.29 284.51 C 450.42 285.54 450.55 286.58 450.68 287.61 C 450.42 288.20 449.90 289.37 449.64 289.95 C 449.04 289.93 447.83 289.90 447.22 289.88 C 445.98 285.27 445.41 280.51 445.42 275.74 C 445.67 271.37 442.12 268.11 440.83 264.16 C 439.33 259.87 437.03 255.95 434.04 252.53 C 434.01 251.97 433.94 250.85 433.91 250.28 C 427.89 244.01 420.12 239.94 413.55 234.34 C 410.64 231.96 407.19 229.67 406.07 225.87 C 403.69 218.49 404.94 210.59 403.54 203.05 C 400.76 209.49 396.97 215.47 394.64 222.09 C 394.83 226.49 396.48 230.92 395.27 235.30 C 393.88 237.54 391.67 239.07 390.02 241.07 C 391.20 245.49 395.20 248.04 398.99 250.04 C 410.71 260.26 421.95 271.10 432.07 282.93 C 434.38 285.97 438.06 288.15 438.98 292.08 C 440.28 297.10 442.22 301.92 443.77 306.87 C 444.19 307.04 445.04 307.38 445.46 307.56 C 445.64 308.17 446.02 309.39 446.20 310.00 C 446.03 315.48 447.18 320.81 448.27 326.14 C 446.63 328.12 444.07 328.93 441.85 330.06 C 441.51 330.43 440.83 331.17 440.49 331.54 C 439.82 331.59 438.46 331.68 437.78 331.73 C 435.57 340.66 436.64 349.90 435.85 358.98 C 435.55 363.46 435.40 367.98 435.97 372.45 C 436.35 374.03 436.52 375.99 438.07 376.90 C 441.77 379.80 446.40 381.01 450.70 382.72 C 455.49 384.18 460.49 384.28 465.40 383.38 C 467.68 385.06 468.22 387.77 466.19 389.93 C 462.61 391.10 459.55 393.43 455.96 394.59 C 450.19 396.70 443.84 394.20 438.06 396.29 C 433.32 397.95 428.33 398.88 423.30 398.44 C 420.02 392.65 421.37 385.71 423.76 379.87 C 423.49 372.12 423.37 364.21 421.06 356.73 C 418.87 349.73 418.16 342.35 418.07 335.05 C 417.89 334.38 417.54 333.06 417.37 332.39 C 414.98 330.24 411.96 328.63 410.11 325.98 C 411.03 322.62 413.39 319.55 413.36 316.01 C 411.90 311.23 409.66 306.46 405.74 303.20 C 401.82 299.81 398.47 295.84 394.58 292.42 C 389.99 288.16 384.74 284.70 379.54 281.25 C 374.81 278.44 369.60 272.91 363.69 275.72 C 358.16 277.58 352.52 279.82 348.89 284.65 C 345.83 284.69 342.84 285.59 340.53 287.65 C 336.61 291.14 332.80 294.79 329.45 298.84 C 328.37 299.90 327.32 300.98 326.29 302.08 C 320.22 308.10 315.67 315.70 308.50 320.55 C 305.38 322.90 302.41 325.51 298.86 327.21 C 293.32 326.42 288.01 324.52 282.94 322.19 C 277.38 323.63 272.23 326.15 267.13 328.72 C 262.44 326.81 257.82 324.30 255.08 319.86 C 245.93 321.56 236.64 322.89 227.79 325.88 C 221.92 327.51 219.41 333.64 216.48 338.37 C 213.55 344.41 211.56 351.01 207.33 356.33 C 205.35 359.00 200.64 358.92 199.18 355.75 C 197.39 352.26 197.72 348.14 197.16 344.36 C 198.94 337.27 203.98 331.90 207.60 325.77 C 209.13 320.36 209.31 313.74 213.90 309.86 C 218.60 307.71 224.29 309.65 227.31 313.73 C 237.27 311.13 244.85 303.42 254.84 300.89 C 255.74 298.75 256.60 296.59 257.42 294.43 C 259.29 293.13 261.18 291.85 262.99 290.47 C 268.29 291.31 273.49 293.02 278.90 293.03 C 280.83 292.50 282.26 290.98 283.84 289.86 C 286.15 291.68 288.35 293.64 290.50 295.65 C 291.72 292.10 293.32 288.69 295.53 285.64 C 302.66 275.08 310.17 264.80 317.26 254.21 C 321.62 246.57 325.71 238.77 330.35 231.29 C 331.76 229.39 333.11 227.44 334.37 225.44 C 332.08 223.13 328.54 221.27 328.37 217.62 C 328.00 214.57 327.63 211.43 328.19 208.38 C 329.82 205.98 332.26 204.33 334.31 202.33 C 341.56 194.88 350.66 189.56 357.85 182.03 C 357.62 176.00 356.92 170.01 357.13 163.97 C 357.49 161.18 355.36 159.12 353.94 156.99 C 347.84 158.95 341.75 162.28 335.14 160.67 C 334.01 158.23 332.10 155.97 332.09 153.16 C 331.97 150.90 332.06 148.64 332.11 146.39 C 334.41 144.22 336.44 141.76 337.95 138.98 C 341.13 133.50 346.08 128.96 347.68 122.66 C 350.08 112.40 348.21 101.72 345.74 91.66 C 346.80 89.31 348.44 87.32 350.43 85.68 C 345.51 80.57 340.46 75.59 335.65 70.38 C 330.90 65.29 327.99 58.88 323.71 53.45 C 321.00 49.88 319.17 45.69 316.07 42.41 C 315.13 39.31 314.76 36.02 316.12 32.98 Z" />
<path fill="#f4722b" opacity="1.00" d=" M 274.17 81.31 C 277.96 79.11 281.47 75.67 286.10 75.52 C 290.05 75.60 291.95 79.57 293.50 82.60 C 296.90 89.21 295.43 96.86 295.37 103.98 C 294.79 111.45 295.17 119.02 293.66 126.40 C 291.57 136.79 290.22 147.39 286.46 157.37 C 287.46 149.60 289.33 141.91 289.36 134.04 C 289.44 121.32 290.86 108.66 290.32 95.93 C 290.76 90.78 288.84 85.89 286.15 81.60 C 281.28 82.87 276.26 83.84 271.82 86.33 C 278.25 87.66 281.23 93.91 283.48 99.41 C 285.50 105.01 285.62 111.09 285.22 116.97 C 284.64 124.30 284.37 131.65 284.27 139.00 C 284.22 149.40 281.88 159.59 279.83 169.72 C 278.74 175.29 278.37 181.03 276.31 186.36 C 274.67 190.56 274.60 195.24 272.41 199.24 C 273.66 189.45 276.25 179.81 276.41 169.89 C 276.42 153.59 278.33 137.33 277.69 121.02 C 277.43 115.39 278.44 109.57 276.61 104.12 C 275.59 100.92 273.79 98.06 272.12 95.18 C 268.20 96.32 264.19 97.06 260.27 98.18 C 253.51 100.22 247.93 104.69 241.87 108.11 C 244.30 100.92 251.67 97.49 257.60 93.65 C 263.62 90.20 268.15 84.76 274.17 81.31 Z" />
<path fill="#f5e5c1" opacity="1.00" d=" M 225.60 105.05 C 227.31 102.01 228.82 97.45 233.00 97.38 C 236.00 96.94 238.31 99.61 239.34 102.11 C 240.21 106.27 239.61 110.55 239.14 114.72 C 238.07 112.13 236.15 109.44 232.99 109.64 C 228.30 109.80 225.87 114.59 225.28 118.69 C 223.11 118.18 220.52 117.70 219.58 115.37 C 217.22 111.02 221.11 105.82 225.60 105.05 Z" />
<path fill="#f5e5c1" opacity="1.00" d=" M 238.86 116.32 C 240.08 116.34 241.30 116.37 242.52 116.40 C 242.98 118.01 243.39 119.63 243.73 121.26 C 242.93 122.09 242.13 122.91 241.34 123.75 C 239.45 123.46 237.62 122.94 235.86 122.23 C 236.80 120.23 237.85 118.28 238.86 116.32 Z" />
<path fill="#f5e5c1" opacity="1.00" d=" M 148.50 157.76 C 152.67 156.42 157.38 158.99 159.28 162.77 C 160.90 167.09 159.20 171.70 156.60 175.23 C 161.12 178.09 164.31 182.76 165.44 187.98 C 166.35 191.80 162.86 195.76 159.00 195.65 C 155.59 196.05 152.76 193.89 150.09 192.14 C 151.73 190.05 154.03 187.90 153.58 184.96 C 153.23 180.74 152.77 175.76 148.99 173.11 C 146.02 171.20 142.52 170.22 139.08 169.61 C 135.00 169.08 131.49 172.35 130.01 175.88 C 127.62 182.78 131.41 191.40 138.80 193.15 C 138.21 195.50 137.34 198.09 134.92 199.13 C 130.83 200.86 126.21 197.76 124.95 193.80 C 123.95 191.29 124.85 188.65 125.45 186.17 C 119.53 183.99 114.43 178.60 114.44 172.01 C 114.27 166.55 118.23 161.02 123.86 160.41 C 130.91 159.91 138.97 160.41 144.40 165.54 C 145.15 162.73 145.50 159.13 148.50 157.76 Z" />
<path fill="#f5e5c1" opacity="1.00" d=" M 255.83 185.08 C 255.47 181.57 252.27 177.56 254.88 174.39 C 256.07 177.56 257.05 180.81 257.82 184.11 L 258.22 184.89 C 259.03 187.96 260.13 191.12 259.28 194.33 C 257.72 191.72 256.79 188.82 256.18 185.86 L 255.83 185.08 Z" />
<path fill="#f4722b" opacity="1.00" d=" M 173.46 175.18 C 182.37 176.20 191.42 177.26 199.87 180.47 C 209.81 183.80 219.54 187.93 228.38 193.61 C 234.22 197.36 240.24 200.92 245.44 205.55 C 250.99 210.58 255.96 216.21 260.65 222.05 C 252.30 214.65 243.26 208.03 233.57 202.49 C 222.05 196.32 210.37 190.30 197.85 186.39 C 190.65 183.56 182.85 182.89 175.51 180.57 C 174.65 178.85 174.10 176.99 173.46 175.18 Z" />
<path fill="#f5e5c1" opacity="1.00" d=" M 302.70 186.53 C 303.22 186.45 304.25 186.30 304.77 186.22 C 304.70 186.68 304.55 187.60 304.47 188.06 C 299.94 191.66 295.56 195.44 291.06 199.08 C 289.78 200.25 288.10 200.70 286.46 201.12 C 286.52 200.62 286.63 199.61 286.68 199.10 C 292.59 195.71 297.46 190.84 302.70 186.53 Z" />
<path fill="#f4722b" opacity="1.00" d=" M 174.73 192.15 C 201.90 196.87 228.39 207.48 249.95 224.90 C 233.58 214.94 216.07 206.73 197.63 201.41 C 189.54 199.40 181.35 197.41 172.96 197.31 C 173.54 195.58 174.13 193.86 174.73 192.15 Z" />
<path fill="#f4722b" opacity="1.00" d=" M 83.52 241.56 C 90.97 226.52 102.39 213.95 114.06 202.10 C 104.46 215.06 96.73 229.29 89.98 243.91 C 83.49 259.96 77.05 276.12 73.04 293.00 C 72.02 298.08 70.67 303.09 69.70 308.18 C 68.33 317.20 67.65 326.30 66.50 335.34 C 63.81 336.38 61.12 337.42 58.43 338.47 C 58.70 327.44 58.87 316.34 60.73 305.44 C 62.99 296.23 64.61 286.85 67.78 277.89 C 71.46 265.16 77.60 253.35 83.52 241.56 Z" />
<path fill="#f5e5c1" opacity="1.00" d=" M 260.42 205.72 C 265.35 201.65 271.37 205.00 275.76 208.13 C 273.85 209.20 271.68 209.67 269.79 210.75 C 266.84 213.58 267.45 218.06 269.47 221.24 C 263.39 218.76 258.98 212.41 260.42 205.72 Z" />
<path fill="#f5e5c1" opacity="1.00" d=" M 276.08 208.64 C 277.44 207.89 278.80 207.13 280.17 206.38 C 281.63 207.13 283.15 207.84 284.43 208.91 C 285.16 211.46 284.97 214.26 284.07 216.74 C 282.92 218.57 281.09 219.78 279.49 221.17 C 280.95 217.21 280.47 212.05 276.11 210.19 C 276.10 209.80 276.09 209.03 276.08 208.64 Z" />
<path fill="#f4722b" opacity="1.00" d=" M 92.49 280.17 C 98.09 257.80 108.15 236.83 119.77 217.01 C 111.35 236.50 103.15 256.21 98.30 276.93 C 92.96 296.33 90.34 316.53 91.35 336.64 C 88.75 335.68 86.13 334.76 83.48 333.95 C 84.93 315.81 87.25 297.65 92.49 280.17 Z" />
<path fill="#f4722b" opacity="1.00" d=" M 205.15 286.96 C 220.60 280.00 236.07 272.86 252.45 268.33 C 251.14 271.96 250.18 275.70 249.49 279.49 C 227.06 286.97 205.63 297.06 184.40 307.37 C 169.76 314.81 155.10 322.30 141.35 331.32 C 131.84 337.34 121.87 342.82 113.58 350.55 C 109.41 354.43 105.54 358.66 101.11 362.26 C 107.46 353.38 115.49 345.81 124.08 339.12 C 136.08 329.68 147.52 319.41 160.82 311.78 C 175.53 303.39 189.71 294.01 205.15 286.96 Z" />
<path fill="#f5e5c1" opacity="1.00" d=" M 36.18 331.12 C 40.39 332.92 42.62 337.16 45.58 340.40 C 48.84 344.51 52.58 348.24 55.50 352.61 C 54.85 352.60 53.55 352.59 52.90 352.58 C 48.37 346.98 43.68 341.52 39.05 336.02 C 37.81 334.57 36.93 332.85 36.18 331.12 Z" />
<path fill="#f4722b" opacity="1.00" d=" M 143.82 354.78 C 157.54 346.35 171.96 339.09 186.79 332.81 C 186.47 333.87 185.51 334.49 184.81 335.29 C 183.39 337.99 182.64 340.96 181.52 343.79 C 180.50 344.78 179.07 345.18 177.81 345.74 C 163.29 351.05 149.78 358.67 136.32 366.18 C 125.71 371.46 115.54 377.65 106.25 385.01 C 115.93 371.87 130.17 363.25 143.82 354.78 Z" />
<path fill="#f5e5c1" opacity="1.00" d=" M 61.75 363.54 C 64.95 356.32 71.57 351.13 78.93 348.64 C 83.78 347.10 89.03 350.02 90.68 354.71 C 93.00 360.27 90.21 366.20 87.07 370.80 C 84.28 368.39 80.97 365.79 77.01 366.49 C 72.88 367.24 68.75 368.38 64.89 370.04 C 57.93 374.00 56.66 382.76 56.17 390.01 C 55.51 397.23 62.46 402.56 69.01 403.37 C 75.87 403.85 83.23 401.08 87.42 395.47 C 89.22 393.10 89.89 390.15 90.71 387.35 C 94.78 387.16 99.38 389.02 100.81 393.11 C 103.39 399.84 97.71 407.28 91.04 408.48 C 88.26 409.07 85.46 408.39 82.81 407.60 C 81.00 414.54 76.87 421.24 70.26 424.47 C 63.79 427.95 55.29 427.20 49.63 422.48 C 46.18 419.30 44.43 414.66 43.86 410.09 C 43.15 400.83 43.64 390.92 48.95 382.96 C 44.62 382.82 39.14 382.76 36.83 378.35 C 34.03 370.74 39.39 360.49 47.98 360.26 C 52.92 359.44 57.27 362.07 61.75 363.54 Z" />
<path fill="#f5e5c1" opacity="1.00" d=" M 33.04 392.16 C 34.43 390.95 36.17 390.40 38.01 390.35 C 36.35 392.90 33.72 394.47 31.34 396.25 C 26.89 399.49 22.59 402.93 18.16 406.20 C 16.87 407.25 15.25 407.65 13.66 408.01 C 14.90 406.11 16.53 404.53 18.38 403.24 C 23.33 399.63 28.18 395.90 33.04 392.16 Z" />
<path fill="#f5e5c1" opacity="1.00" d=" M 88.30 420.64 C 89.26 420.54 90.22 420.45 91.18 420.37 C 95.82 430.99 101.46 441.15 105.83 451.89 C 102.91 451.97 102.43 448.67 101.24 446.71 C 96.89 438.04 93.34 428.95 88.30 420.64 Z" />
</svg>
