<?xml version="1.0" encoding="UTF-8" ?>
<!DOCTYPE svg PUBLIC "-//W3C//DTD SVG 1.1//EN" "http://www.w3.org/Graphics/SVG/1.1/DTD/svg11.dtd">
<svg width="514pt" height="516pt" viewBox="0 0 514 516" version="1.1" xmlns="http://www.w3.org/2000/svg">
<path fill="#3e3e3e" opacity="1.00" d=" M 0.00 0.00 L 514.00 0.00 L 514.00 516.00 L 0.00 516.00 L 0.00 0.00 Z" />
<path fill="#f5e5c1" opacity="1.00" d=" M 232.53 50.87 C 259.00 49.94 285.55 50.55 311.92 53.14 C 333.73 55.63 355.77 58.73 376.40 66.56 C 383.42 69.52 391.31 72.78 395.14 79.81 C 397.39 84.82 393.92 89.96 389.91 92.80 C 381.14 99.12 370.59 102.28 360.29 105.13 C 326.55 113.55 291.63 115.69 256.98 116.14 C 224.62 115.89 192.09 114.01 160.37 107.26 C 147.96 104.46 135.38 101.19 124.36 94.62 C 120.29 91.97 115.78 88.26 115.70 82.98 C 116.29 77.27 121.42 73.57 126.00 70.91 C 137.11 64.82 149.53 61.64 161.82 58.91 C 185.09 54.08 208.81 51.90 232.53 50.87 Z" />
<path fill="#3e3e3e" opacity="1.00" d=" M 234.28 53.34 C 258.16 53.00 282.10 52.95 305.90 55.32 C 324.50 57.42 343.45 59.08 361.15 65.59 C 365.36 67.39 370.20 69.19 372.65 73.32 C 374.36 76.11 372.01 79.21 369.78 80.83 C 364.22 84.79 357.55 86.71 351.05 88.51 C 328.49 94.26 305.15 95.94 281.99 97.32 C 270.00 97.83 258.02 98.37 246.02 98.18 C 219.83 97.25 193.53 96.03 167.71 91.25 C 158.75 89.43 149.69 87.47 141.37 83.56 C 138.36 82.07 135.15 80.22 133.68 77.05 C 132.44 73.31 135.97 70.47 138.78 68.76 C 146.15 64.53 154.55 62.57 162.76 60.68 C 186.30 55.94 210.31 54.05 234.28 53.34 Z" />
<path fill="#f5e5c1" opacity="1.00" d=" M 190.93 58.83 C 220.47 55.18 250.33 54.64 280.05 55.84 C 301.12 57.03 322.31 58.55 342.88 63.55 C 349.04 65.13 355.31 66.84 360.77 70.19 C 362.88 71.56 365.42 73.81 364.55 76.62 C 362.94 80.29 358.85 81.88 355.43 83.43 C 349.40 85.65 343.23 87.88 336.79 88.44 C 341.65 86.93 346.68 85.03 350.35 81.38 C 352.97 78.92 352.10 74.56 349.27 72.64 C 342.81 67.62 334.60 65.80 326.89 63.58 C 302.32 58.45 277.12 56.84 252.06 57.10 C 231.25 56.90 210.39 58.24 189.84 61.60 C 182.61 62.55 175.57 64.59 168.63 66.80 C 163.89 68.57 158.72 70.36 155.47 74.47 C 153.89 76.34 154.10 79.34 155.84 81.05 C 159.42 85.10 164.76 86.88 169.74 88.51 C 168.18 88.77 166.61 88.87 165.05 89.02 L 166.99 88.19 C 160.99 86.83 155.02 85.14 149.37 82.67 C 146.61 81.34 143.63 79.73 142.19 76.89 C 140.91 74.27 143.49 71.91 145.41 70.50 C 152.20 66.13 160.26 64.39 168.03 62.56 C 175.55 60.63 183.34 60.36 190.93 58.83 Z" />
<path fill="#f5e5c1" opacity="1.00" d=" M 238.27 59.38 C 256.55 58.74 274.87 59.26 293.08 61.05 C 306.54 62.57 320.15 64.36 332.96 68.98 C 336.78 70.58 341.28 72.17 343.27 76.11 C 344.43 78.90 341.88 81.39 339.73 82.77 C 333.11 86.87 325.39 88.62 317.88 90.31 C 292.97 95.45 267.42 95.94 242.08 95.58 C 220.64 95.11 198.97 93.57 178.24 87.74 C 172.96 85.95 166.95 84.28 163.45 79.63 C 161.72 77.42 163.57 74.74 165.37 73.30 C 169.92 69.68 175.67 68.11 181.16 66.51 C 199.80 61.72 219.09 60.20 238.27 59.38 Z" />
<path fill="#3e3e3e" opacity="1.00" d=" M 239.15 61.31 C 251.66 60.00 264.52 59.85 276.86 62.58 C 282.20 63.53 286.09 67.55 289.86 71.11 C 287.53 74.23 283.48 74.78 279.94 75.58 C 267.77 77.75 255.33 77.88 243.01 77.26 C 236.04 76.61 228.88 76.24 222.27 73.78 C 221.15 73.11 219.17 72.61 219.38 70.95 C 223.95 64.70 231.69 62.00 239.15 61.31 Z" />
<path fill="#f4722b" opacity="1.00" d=" M 238.46 63.63 C 249.40 62.17 260.55 62.21 271.49 63.74 C 274.63 64.28 277.86 64.81 280.73 66.28 C 281.54 66.83 282.90 67.42 282.51 68.64 C 281.46 70.29 279.45 70.89 277.70 71.46 C 271.30 73.23 264.63 73.78 258.02 73.85 C 248.89 73.96 239.58 73.87 230.75 71.24 C 228.83 70.78 227.31 69.50 226.03 68.05 C 229.43 64.97 234.11 64.32 238.46 63.63 Z" />
<path fill="#f5e5c1" opacity="1.00" d=" M 121.47 103.86 C 123.96 105.46 126.69 106.97 128.59 109.26 C 128.38 114.57 129.24 119.79 130.43 124.94 C 131.14 133.04 134.48 140.60 138.44 147.60 C 143.12 156.52 149.77 164.16 155.94 172.06 C 163.04 179.99 171.15 187.01 179.84 193.14 C 187.85 197.49 195.41 202.71 202.42 208.54 C 207.10 214.20 213.38 218.21 218.38 223.55 C 221.78 227.81 225.25 231.99 228.81 236.11 C 232.70 241.75 236.36 247.59 239.19 253.84 C 240.02 255.75 240.92 257.83 240.42 259.96 C 239.36 267.99 234.64 274.82 230.51 281.56 C 227.62 286.49 223.32 290.35 219.93 294.91 C 215.76 300.41 210.12 304.49 205.04 309.06 C 199.55 315.71 191.95 320.03 184.98 324.90 C 177.43 328.63 171.01 334.18 164.74 339.71 C 156.74 346.48 150.92 355.29 144.41 363.40 C 141.28 367.16 139.39 371.70 136.93 375.88 C 133.79 381.51 130.64 387.43 130.07 393.98 C 129.79 396.26 129.38 398.53 128.83 400.77 C 127.69 405.41 128.57 410.20 128.47 414.91 C 126.36 416.18 124.30 417.52 122.26 418.89 C 122.53 412.90 123.35 406.95 123.60 400.95 C 124.41 393.81 124.44 386.51 126.47 379.56 C 127.89 374.75 130.92 370.68 133.24 366.30 C 136.66 359.39 142.05 353.75 146.65 347.62 C 154.31 337.32 164.31 329.07 174.63 321.57 C 182.18 317.40 189.53 312.71 196.05 307.03 C 201.93 300.19 210.06 295.60 215.20 288.07 C 221.29 281.34 226.71 273.92 230.34 265.57 C 231.15 261.47 232.61 256.78 229.92 253.06 C 225.41 243.70 218.34 236.09 211.79 228.17 C 207.31 223.63 201.82 220.16 197.73 215.23 C 193.20 210.67 187.57 207.42 182.35 203.74 C 173.14 199.08 165.28 192.25 157.78 185.26 C 152.58 180.72 148.58 175.04 144.25 169.72 C 141.47 165.82 138.11 162.33 135.72 158.17 C 132.08 151.17 127.47 144.63 124.96 137.08 C 123.13 132.63 123.20 127.74 122.08 123.11 C 120.48 116.80 121.42 110.27 121.47 103.86 Z" />
<path fill="#f5e5c1" opacity="1.00" d=" M 380.43 109.90 C 383.14 108.95 385.74 107.70 388.28 106.35 C 387.97 111.93 389.16 117.63 387.62 123.11 C 386.31 127.64 386.46 132.45 385.00 136.94 C 382.32 145.83 376.92 153.49 372.57 161.58 C 367.02 168.97 361.41 176.35 355.31 183.30 C 346.63 191.78 337.47 200.06 326.60 205.63 C 321.59 209.22 316.17 212.34 311.78 216.72 C 306.30 223.26 298.44 227.42 293.64 234.59 C 287.58 241.38 281.99 248.72 278.38 257.13 C 278.14 261.26 278.09 265.82 280.50 269.41 C 283.78 274.42 286.71 279.71 290.82 284.11 C 294.37 287.93 297.05 292.55 301.18 295.82 C 305.11 299.25 309.30 302.43 312.67 306.45 C 317.31 310.86 322.86 314.17 328.09 317.82 C 333.08 320.30 337.71 323.40 341.91 327.07 C 354.61 336.34 364.13 349.04 373.44 361.53 C 375.04 364.00 376.24 366.70 377.76 369.23 C 384.47 379.44 386.41 391.97 386.83 403.95 C 387.50 408.62 387.33 413.34 387.20 418.03 C 384.96 417.66 382.80 416.96 380.71 416.09 C 380.45 411.67 381.95 407.26 380.93 402.88 C 379.19 396.45 379.58 389.52 376.33 383.52 C 372.26 375.54 368.43 367.27 362.60 360.39 C 357.49 353.88 352.68 347.04 346.49 341.49 C 341.89 336.71 336.42 332.90 331.22 328.82 C 323.03 324.25 315.15 319.05 307.98 313.00 C 301.79 305.85 293.34 300.96 287.95 293.06 C 281.91 286.46 276.76 279.10 272.71 271.11 C 270.51 266.67 267.89 261.57 269.84 256.56 C 272.66 249.56 276.74 243.12 281.14 237.02 C 286.17 231.75 289.95 225.32 295.69 220.73 C 299.43 217.47 303.36 214.40 306.56 210.56 C 311.65 205.91 317.56 202.27 323.22 198.35 C 332.61 193.51 340.66 186.49 348.15 179.13 C 354.03 173.26 358.74 166.36 363.93 159.91 C 367.37 155.78 369.43 150.77 372.15 146.19 C 375.27 140.54 378.27 134.50 378.61 127.94 C 378.83 124.91 379.92 122.03 380.30 119.02 C 380.53 115.99 380.20 112.94 380.43 109.90 Z" />
<path fill="#f5e5c1" opacity="1.00" d=" M 233.03 139.97 C 240.29 137.78 247.41 135.00 254.92 133.74 C 267.06 134.93 277.54 141.56 288.87 145.44 C 298.85 151.16 309.23 156.45 317.90 164.12 C 321.12 166.52 324.45 168.84 327.04 171.97 C 324.17 172.61 321.42 173.65 318.56 174.27 C 311.87 174.96 305.46 177.13 298.89 178.47 C 286.06 181.01 273.15 183.76 260.00 183.71 C 248.42 185.95 236.59 183.29 224.97 185.02 C 230.38 188.39 236.99 187.33 243.02 188.15 C 252.67 188.60 262.37 188.61 272.03 188.32 C 282.69 186.96 293.39 185.74 303.99 183.90 C 312.32 182.71 320.70 182.09 328.96 180.38 C 322.05 184.86 315.22 189.61 309.29 195.35 C 306.42 197.98 302.71 199.35 299.61 201.65 C 295.83 204.18 292.59 207.43 288.69 209.78 C 277.54 217.35 270.06 228.86 263.02 240.07 C 260.40 244.08 258.94 248.67 256.75 252.89 C 255.73 255.03 252.77 255.21 250.88 254.25 C 248.78 251.29 248.95 247.29 246.71 244.37 C 243.05 238.93 239.92 233.14 236.42 227.61 C 231.55 222.34 228.65 215.53 223.43 210.55 C 213.09 201.78 203.42 191.74 190.77 186.26 C 185.08 184.09 180.34 180.16 175.79 176.22 C 174.78 175.47 174.40 174.29 174.01 173.15 C 177.98 170.78 181.59 167.87 185.42 165.28 C 194.44 159.95 203.33 154.40 212.73 149.72 C 219.08 145.59 226.45 143.63 233.03 139.97 Z" />
<path fill="#f4722b" opacity="1.00" d=" M 460.55 197.49 C 467.29 192.70 474.33 188.37 481.48 184.22 C 482.11 188.85 482.57 193.50 482.47 198.18 C 471.87 204.54 462.00 212.00 451.59 218.66 C 443.58 223.60 435.49 228.42 427.61 233.57 C 424.66 235.47 421.84 238.50 417.96 237.75 C 415.59 238.00 413.70 236.20 412.86 234.14 C 410.79 226.33 410.26 218.22 410.39 210.16 C 405.36 212.92 400.14 215.31 395.13 218.09 C 384.23 224.36 373.65 231.29 362.08 236.30 C 355.00 239.40 348.14 242.96 341.03 245.99 C 346.29 243.15 350.83 239.25 355.75 235.90 C 374.16 222.64 392.64 209.49 411.14 196.36 C 412.82 195.14 414.86 193.93 417.01 194.76 C 420.25 196.17 422.44 199.50 422.47 203.03 C 422.64 209.07 423.28 215.09 423.40 221.13 C 436.02 213.63 448.54 205.94 460.55 197.49 Z" />
<path fill="#f4722b" opacity="1.00" d=" M 103.57 240.65 C 106.88 238.44 110.33 235.67 114.58 236.15 C 117.18 240.65 119.54 245.46 123.62 248.84 C 119.53 256.80 115.11 264.66 112.33 273.20 C 109.91 280.20 107.39 287.31 107.08 294.78 C 119.59 287.38 132.89 281.42 145.59 274.34 C 155.01 269.80 163.23 262.58 173.52 260.01 C 149.22 275.43 125.20 291.30 101.00 306.88 C 99.08 307.92 97.34 309.97 95.01 309.81 C 93.15 309.75 93.65 307.20 93.38 305.96 C 93.07 286.64 100.25 268.23 108.10 250.91 C 94.07 256.56 81.90 265.76 68.52 272.68 C 50.42 282.99 32.24 293.22 13.44 302.19 C 43.40 281.56 73.57 261.23 103.57 240.65 Z" />
<path fill="#f5e5c1" opacity="1.00" d=" M 247.64 276.98 C 247.46 272.78 252.26 269.25 256.18 271.04 C 261.13 272.64 261.00 280.96 256.04 282.51 C 254.32 282.77 252.58 282.57 250.85 282.52 C 249.54 280.85 247.51 279.33 247.64 276.98 Z" />
<path fill="#f5e5c1" opacity="1.00" d=" M 250.98 329.09 C 247.11 326.45 248.22 320.83 251.71 318.39 C 255.27 317.74 260.14 318.65 260.57 322.96 C 261.97 328.16 255.11 332.81 250.98 329.09 Z" />
<path fill="#f5e5c1" opacity="1.00" d=" M 198.51 326.33 C 203.24 324.10 207.40 320.69 212.48 319.22 C 213.82 321.71 215.09 324.28 215.78 327.05 C 209.51 328.99 203.37 331.43 197.84 335.01 C 186.94 340.91 177.17 348.78 168.60 357.69 C 163.91 363.37 159.81 369.51 154.71 374.86 C 154.36 375.58 154.00 376.29 153.64 377.01 C 153.69 375.21 153.90 373.39 154.70 371.76 C 156.58 367.63 157.84 363.16 160.54 359.45 C 166.97 350.45 174.03 341.57 183.24 335.27 C 188.22 332.12 193.17 328.86 198.51 326.33 Z" />
<path fill="#f5e5c1" opacity="1.00" d=" M 252.43 380.57 C 254.40 380.31 256.88 379.92 258.44 381.46 C 261.84 383.87 261.30 389.78 257.63 391.68 C 253.77 394.30 248.06 390.55 248.51 386.05 C 248.52 383.69 250.22 381.35 252.43 380.57 Z" />
<path fill="#f5e5c1" opacity="1.00" d=" M 230.48 405.87 C 262.51 404.77 294.67 405.79 326.44 410.16 C 343.21 412.74 360.09 415.77 375.89 422.16 C 381.83 424.72 388.06 427.61 392.02 432.93 C 394.51 436.04 394.36 440.81 391.85 443.86 C 387.62 449.29 381.05 452.12 374.89 454.77 C 357.64 461.47 339.26 464.55 321.00 467.04 C 280.18 472.06 238.81 472.32 197.90 468.34 C 180.47 466.50 163.06 463.89 146.13 459.26 C 137.46 456.72 128.74 453.81 121.14 448.81 C 117.55 446.26 113.75 442.76 113.70 438.02 C 114.12 433.10 118.18 429.59 122.06 427.08 C 130.36 421.94 139.79 419.02 149.14 416.44 C 175.71 409.65 203.16 407.13 230.48 405.87 Z" />
<path fill="#3e3e3e" opacity="1.00" d=" M 232.25 408.34 C 256.14 408.00 280.09 407.95 303.90 410.32 C 322.50 412.42 341.45 414.08 359.15 420.59 C 363.36 422.39 368.19 424.19 370.64 428.31 C 372.36 431.09 370.03 434.19 367.80 435.82 C 362.84 439.40 356.91 441.25 351.11 442.95 C 333.78 447.70 315.85 449.63 298.00 451.17 C 280.00 452.41 261.96 453.38 243.91 453.18 C 217.50 452.23 190.96 451.01 164.93 446.10 C 155.32 444.07 145.47 442.03 136.81 437.19 C 134.00 435.49 130.50 432.66 131.65 428.93 C 133.77 424.60 138.59 422.64 142.78 420.85 C 158.41 414.91 175.16 413.10 191.63 410.92 C 205.14 409.69 218.68 408.62 232.25 408.34 Z" />
<path fill="#f5e5c1" opacity="1.00" d=" M 222.92 410.92 C 254.93 409.44 287.08 410.36 318.89 414.34 C 331.76 416.62 345.07 418.32 356.95 424.13 C 359.82 425.61 364.02 428.47 362.30 432.25 C 359.84 436.13 355.17 437.69 351.11 439.32 C 345.80 441.07 340.44 443.04 334.82 443.42 C 339.71 441.94 344.76 439.99 348.42 436.31 C 350.96 433.84 350.07 429.57 347.31 427.66 C 340.84 422.62 332.61 420.81 324.89 418.57 C 300.32 413.46 275.13 411.84 250.06 412.10 C 226.95 411.88 203.78 413.55 181.05 417.78 C 172.89 419.87 164.44 421.71 157.16 426.12 C 154.30 427.88 150.98 431.37 153.01 434.92 C 156.44 439.79 162.47 441.86 167.92 443.57 C 161.55 442.80 155.41 440.76 149.41 438.54 C 145.94 437.07 142.04 435.38 140.19 431.88 C 138.97 429.53 141.14 427.29 142.85 425.92 C 147.34 422.64 152.78 421.05 158.06 419.51 C 165.56 417.54 173.17 415.77 180.93 415.17 C 194.78 412.58 208.88 411.77 222.92 410.92 Z" />
<path fill="#f5e5c1" opacity="1.00" d=" M 236.27 414.39 C 261.22 413.62 286.34 414.52 310.98 418.82 C 319.25 420.39 327.61 422.16 335.24 425.84 C 337.83 427.22 340.79 428.93 341.55 432.01 C 341.78 435.11 338.89 437.12 336.53 438.52 C 329.84 442.18 322.31 443.92 314.92 445.52 C 290.31 450.46 265.10 450.94 240.10 450.58 C 218.66 450.11 197.00 448.57 176.28 442.75 C 171.00 440.96 164.97 439.30 161.47 434.66 C 159.71 432.46 161.54 429.77 163.34 428.32 C 167.89 424.69 173.65 423.12 179.14 421.52 C 197.79 416.72 217.09 415.20 236.27 414.39 Z" />
<path fill="#3e3e3e" opacity="1.00" d=" M 229.10 417.92 C 236.54 415.83 244.34 415.55 252.03 415.42 C 260.13 415.53 268.38 415.73 276.23 417.96 C 280.98 419.15 284.37 422.92 287.86 426.10 C 285.53 429.25 281.44 429.79 277.88 430.59 C 265.73 432.75 253.30 432.88 241.01 432.26 C 234.28 431.66 227.42 431.22 220.97 429.06 C 219.31 428.59 218.02 427.42 217.03 426.06 C 220.36 422.49 224.27 419.16 229.10 417.92 Z" />
<path fill="#f4722b" opacity="1.00" d=" M 236.45 418.63 C 247.94 417.12 259.67 417.16 271.12 419.01 C 274.33 419.74 278.01 420.15 280.42 422.62 C 281.07 424.27 278.87 425.17 277.70 425.75 C 271.09 428.13 263.97 428.65 257.00 428.83 C 247.55 428.98 237.91 428.96 228.77 426.25 C 226.84 425.78 225.31 424.49 224.03 423.04 C 227.43 419.97 232.10 419.31 236.45 418.63 Z" />
</svg>
