<?xml version="1.0" encoding="UTF-8" ?>
<!DOCTYPE svg PUBLIC "-//W3C//DTD SVG 1.1//EN" "http://www.w3.org/Graphics/SVG/1.1/DTD/svg11.dtd">
<svg width="516pt" height="516pt" viewBox="0 0 516 516" version="1.1" xmlns="http://www.w3.org/2000/svg">
<path fill="#3e3e3e" opacity="1.00" d=" M 0.00 0.00 L 516.00 0.00 L 516.00 516.00 L 0.00 516.00 L 0.00 0.00 Z" />
<path fill="#f4722b" opacity="1.00" d=" M 477.11 43.04 C 479.37 36.72 480.23 29.90 483.63 24.01 C 481.55 29.84 481.76 36.28 483.45 42.18 C 484.34 45.73 485.58 49.88 483.34 53.20 C 481.97 56.22 478.25 55.10 475.67 55.86 C 472.12 56.82 468.55 57.63 464.92 58.20 C 458.38 59.27 452.50 62.51 446.20 64.41 C 442.15 65.43 439.56 69.04 437.52 72.41 C 432.93 81.59 426.23 89.82 423.86 100.00 C 422.47 106.04 417.77 111.05 417.60 117.35 C 411.24 125.29 407.20 134.66 402.65 143.66 C 399.93 148.15 393.82 146.34 389.89 144.68 C 388.27 143.65 387.22 145.82 386.71 146.98 C 385.79 149.66 387.42 152.08 388.98 154.10 C 391.50 157.28 392.75 161.43 396.07 163.95 C 402.77 169.06 410.42 172.75 417.19 177.75 C 418.95 179.16 421.48 181.39 420.18 183.88 C 416.70 190.97 413.47 198.22 411.41 205.87 C 410.93 208.11 408.57 208.92 406.86 210.05 C 405.86 208.15 403.88 206.33 404.68 203.99 C 405.64 199.33 408.18 194.95 407.72 190.04 C 408.11 184.57 404.63 180.07 403.00 175.11 C 394.01 168.90 391.37 157.48 384.73 149.29 C 380.74 144.69 379.06 138.55 374.72 134.22 C 371.88 130.36 367.55 126.62 368.29 121.34 C 370.30 120.59 372.74 119.85 374.59 121.43 C 378.73 124.58 382.20 128.51 386.35 131.67 C 388.98 133.53 389.27 137.65 392.64 138.58 C 397.18 140.51 402.38 137.82 405.00 133.99 C 409.12 128.04 410.29 120.74 412.34 113.94 C 413.85 108.95 413.31 103.48 415.65 98.72 C 418.48 92.73 421.28 86.69 425.02 81.19 C 429.58 74.60 432.66 67.07 437.75 60.83 C 438.89 59.72 440.58 59.67 442.06 59.39 C 450.37 58.41 458.31 55.60 466.24 53.06 C 470.63 50.88 475.99 48.34 477.11 43.04 Z" />
<path fill="#f4722b" opacity="1.00" d=" M 22.77 24.95 C 23.54 29.96 23.36 35.17 25.26 39.96 C 26.93 44.23 28.68 48.66 31.92 52.00 C 34.06 54.30 37.36 55.16 39.24 57.74 C 41.46 60.48 43.90 63.06 46.57 65.38 C 50.10 67.95 54.43 69.35 57.53 72.53 C 60.40 75.40 63.47 78.08 66.71 80.53 C 66.32 82.07 66.99 84.51 64.89 84.91 C 62.97 85.64 60.57 85.46 59.08 87.07 C 56.56 89.85 54.45 93.25 54.10 97.06 C 54.02 99.68 51.58 101.26 50.91 103.66 C 50.04 106.45 49.40 109.31 48.55 112.12 C 50.10 114.29 51.21 116.73 51.92 119.30 C 55.82 120.73 59.92 121.55 64.09 121.38 C 69.28 121.29 73.61 124.54 78.48 125.79 C 79.54 128.21 79.36 130.89 79.78 133.44 C 80.45 135.44 81.29 137.38 81.95 139.38 C 87.25 138.49 92.64 137.83 98.02 138.13 C 100.11 138.08 101.80 139.38 103.49 140.40 C 104.34 145.29 104.74 150.31 106.54 154.97 C 98.64 149.38 88.50 151.58 79.51 151.67 C 74.04 154.54 66.87 155.65 63.74 161.60 C 62.46 163.25 61.55 166.01 59.03 165.92 C 55.05 166.42 54.58 161.13 51.54 159.74 C 47.86 158.64 43.58 159.05 40.44 156.52 C 37.03 153.77 36.15 149.24 34.36 145.46 C 33.02 142.71 32.81 139.51 33.82 136.62 C 35.77 130.79 38.46 125.25 40.57 119.48 C 42.81 113.50 46.33 108.06 48.45 102.04 C 48.02 99.26 46.31 96.89 45.63 94.17 C 44.67 90.17 44.59 85.95 43.02 82.10 C 41.03 77.27 40.04 72.04 37.58 67.40 C 35.60 64.40 32.58 62.25 30.66 59.19 C 27.10 53.62 23.09 48.00 22.05 41.32 C 21.38 35.87 21.89 30.35 22.77 24.95 Z" />
<path fill="#f4722b" opacity="1.00" d=" M 180.77 59.85 C 194.16 51.51 206.12 41.10 219.27 32.41 C 220.53 31.85 222.12 31.81 223.32 32.57 C 229.29 36.27 234.48 41.43 241.25 43.71 C 244.72 44.92 248.31 45.79 251.94 46.41 C 247.24 46.54 242.68 48.03 237.96 47.89 C 231.87 48.29 225.72 46.30 219.71 47.91 C 213.11 49.71 206.01 49.80 199.82 52.95 C 189.54 58.26 180.57 65.62 170.80 71.71 C 167.26 74.81 162.16 76.27 159.68 80.45 C 159.26 83.98 159.76 87.59 158.93 91.08 C 158.08 95.93 154.95 99.89 152.46 104.00 C 152.97 105.18 153.47 106.36 153.98 107.54 C 155.37 103.77 156.62 99.91 158.79 96.51 C 158.34 108.40 155.40 120.47 158.61 132.25 C 156.80 143.06 157.79 154.09 157.55 165.00 C 157.32 169.15 158.55 173.14 160.44 176.78 C 162.19 179.84 161.51 183.39 161.27 186.71 C 158.05 185.05 155.03 183.03 152.44 180.48 C 149.90 177.93 146.05 177.69 143.25 175.52 C 138.80 178.85 133.51 180.81 129.17 184.30 C 125.08 187.62 120.36 190.05 115.81 192.68 C 114.49 193.52 113.65 191.89 113.77 190.79 C 113.59 186.47 110.84 182.88 110.12 178.68 C 108.70 171.54 108.48 164.23 107.31 157.05 C 108.51 160.25 110.03 163.32 111.87 166.20 C 114.63 169.55 112.39 174.53 115.65 177.65 C 122.61 171.28 131.57 167.79 140.17 164.24 C 142.51 163.18 145.03 162.61 147.58 162.32 C 148.25 149.03 148.30 135.65 146.68 122.42 C 143.39 119.67 140.28 116.68 136.72 114.27 C 134.60 113.19 135.30 110.60 135.23 108.69 C 138.88 106.61 143.75 105.99 146.12 102.18 C 149.64 96.78 153.79 91.10 153.28 84.29 C 149.43 81.65 152.31 77.32 153.64 74.14 C 157.97 74.61 162.33 73.94 166.32 72.17 C 170.62 70.26 175.40 69.12 179.17 66.18 C 181.23 64.76 180.46 61.99 180.77 59.85 Z" />
<path fill="#f5e5c1" opacity="1.00" d=" M 251.87 61.54 C 257.80 59.86 263.93 61.36 269.94 61.43 C 276.71 61.98 283.82 61.07 290.21 63.88 C 305.86 70.09 321.47 76.39 337.11 82.61 C 342.36 84.27 343.28 90.22 345.05 94.66 C 352.34 115.43 360.48 135.95 365.91 157.32 C 367.83 168.57 369.61 179.84 371.45 191.10 C 371.97 193.85 372.60 196.66 373.92 199.14 C 375.69 201.24 378.64 201.69 380.77 203.34 C 384.80 206.40 388.94 209.64 391.57 214.06 C 392.48 218.96 391.01 224.09 392.14 228.94 C 396.28 232.95 402.40 234.36 406.34 238.59 C 406.95 246.67 407.03 254.89 405.88 262.93 C 407.29 273.62 408.89 284.31 409.52 295.09 C 409.91 300.83 411.62 306.40 411.68 312.17 C 407.56 314.29 403.16 315.80 399.11 318.06 C 388.80 324.37 376.94 327.88 367.13 335.04 C 367.48 338.41 368.91 341.55 369.26 344.92 C 369.58 348.43 368.66 351.88 368.04 355.30 L 367.66 355.41 C 367.46 355.47 367.07 355.59 366.88 355.65 C 366.32 356.87 365.81 358.14 365.16 359.32 C 362.32 361.89 358.92 364.48 354.91 364.50 C 350.18 364.70 345.47 363.39 341.28 361.25 C 339.36 360.21 337.49 359.04 335.73 357.74 C 330.34 353.66 326.50 346.88 327.77 339.97 C 329.54 333.37 335.56 329.18 341.20 325.99 C 345.12 323.61 350.14 322.66 354.45 324.57 C 355.85 324.91 357.26 326.06 358.75 325.57 C 366.64 322.35 374.49 319.01 382.22 315.40 C 390.03 312.87 397.16 308.70 404.38 305.02 C 405.26 302.47 404.85 299.72 404.68 297.09 C 403.84 289.39 402.87 281.71 402.02 274.02 C 401.85 271.65 400.95 269.45 399.80 267.41 C 395.92 267.19 391.99 266.98 388.13 267.58 C 387.01 267.74 386.20 268.67 385.56 269.53 C 382.91 273.43 381.90 278.33 378.70 281.87 C 375.55 284.07 371.86 285.69 367.96 285.70 C 364.39 285.72 362.54 289.76 359.01 290.07 C 354.02 290.75 349.04 291.89 343.97 291.67 C 342.11 291.54 340.35 292.18 338.58 292.64 C 335.39 298.35 331.65 304.16 331.38 310.88 C 328.30 319.41 323.61 327.25 319.20 335.14 C 313.17 343.91 307.95 353.22 304.14 363.17 C 302.85 363.60 301.57 364.02 300.29 364.45 C 299.95 369.32 299.10 374.28 296.59 378.55 C 290.01 386.87 279.53 391.96 268.90 391.72 C 264.68 391.89 260.59 393.45 256.34 393.07 C 250.49 392.54 244.48 391.64 239.29 388.70 C 237.55 387.71 236.83 385.72 235.96 384.04 C 233.51 378.47 229.90 373.55 226.74 368.38 C 225.32 365.69 222.16 364.88 220.00 362.98 C 217.02 358.86 215.01 354.13 211.95 350.06 C 205.60 341.33 200.18 331.95 193.55 323.44 C 192.27 321.51 189.91 321.03 188.08 319.83 C 187.09 318.58 186.81 316.93 186.43 315.42 C 183.75 302.51 186.52 289.23 184.62 276.25 C 183.48 277.32 182.32 278.39 181.13 279.42 C 177.32 277.42 172.87 279.44 169.03 277.54 C 165.84 276.05 161.02 276.08 159.68 272.18 C 157.48 262.99 154.41 253.65 155.66 244.08 C 156.17 240.42 156.38 236.74 156.40 233.06 C 156.45 227.26 158.24 221.70 159.59 216.12 C 160.27 213.43 162.90 210.82 165.86 211.66 C 170.19 212.47 174.72 212.04 178.87 213.74 C 178.84 211.66 178.83 209.59 178.82 207.52 C 175.48 207.06 172.81 204.56 172.69 201.10 C 171.18 185.11 171.06 169.02 169.83 153.00 C 169.69 146.98 168.92 140.94 169.60 134.93 C 171.46 118.65 173.18 102.35 175.04 86.08 C 175.32 83.02 177.78 80.55 180.70 79.84 C 204.41 73.70 228.16 67.67 251.87 61.54 Z" />
<path fill="#3e3e3e" opacity="1.00" d=" M 255.06 70.76 C 262.71 69.94 270.38 71.55 278.06 71.43 C 284.97 71.02 290.90 74.99 297.21 77.09 C 308.55 81.71 319.97 86.13 331.31 90.77 C 333.97 91.42 334.66 94.25 335.46 96.49 C 341.39 114.01 348.40 131.16 353.49 148.95 C 358.05 162.03 358.65 176.00 361.50 189.47 C 354.54 185.71 346.20 187.02 339.03 184.05 C 336.47 181.43 336.36 177.41 335.59 174.01 C 334.61 161.80 334.41 149.53 333.57 137.30 C 333.16 131.87 333.62 126.35 332.47 120.99 C 330.57 113.22 329.90 105.09 326.37 97.80 C 314.92 92.82 303.15 88.43 290.86 86.01 C 283.08 83.81 274.93 83.95 267.08 82.18 C 262.09 81.44 257.09 82.77 252.23 83.78 C 231.69 88.38 211.07 92.66 190.56 97.39 C 188.63 113.60 186.71 129.81 184.74 146.01 C 184.09 155.30 185.04 164.63 184.61 173.92 C 184.53 177.90 177.78 177.67 177.59 173.82 C 177.27 164.86 177.17 155.87 177.36 146.91 C 179.14 129.90 181.41 112.93 183.22 95.92 C 183.43 93.49 183.98 91.12 184.61 88.78 C 208.11 82.85 231.56 76.70 255.06 70.76 Z" />
<path fill="#f4722b" opacity="1.00" d=" M 494.00 113.06 C 496.98 110.97 500.08 107.83 504.06 108.62 C 505.63 109.05 505.98 110.93 506.88 112.06 C 504.83 113.87 502.40 115.98 499.45 115.60 C 497.46 115.61 495.08 114.82 493.48 116.45 C 487.67 121.65 482.36 127.44 476.23 132.30 C 473.33 134.68 471.09 137.98 467.54 139.48 C 463.61 140.47 459.77 138.64 456.85 136.11 C 450.50 132.11 445.28 126.07 437.75 124.21 C 433.58 123.28 429.57 121.83 425.72 119.98 C 424.16 118.95 422.48 120.03 420.93 120.41 C 420.31 120.13 419.06 119.56 418.44 119.27 C 418.43 117.62 417.68 115.55 419.19 114.31 C 422.26 110.99 427.77 112.48 430.72 115.26 C 434.51 118.75 439.11 121.06 443.81 123.04 C 448.97 125.06 450.72 131.29 455.89 133.27 C 458.67 134.53 462.32 135.15 464.77 132.87 C 468.59 129.01 471.35 124.15 475.46 120.57 C 476.38 120.48 477.31 120.44 478.25 120.43 C 478.69 121.43 479.15 122.44 479.61 123.45 C 484.33 119.87 489.42 116.82 494.00 113.06 Z" />
<path fill="#3e3e3e" opacity="1.00" d=" M 46.03 122.41 C 50.47 127.47 57.82 127.34 64.00 127.65 C 66.45 127.97 69.91 128.33 70.85 131.06 C 72.10 134.96 73.68 138.85 73.72 143.01 C 69.12 145.90 65.55 150.10 60.90 152.90 C 59.22 153.80 59.03 155.85 58.39 157.46 C 55.55 152.23 49.06 153.60 44.45 151.56 C 41.86 148.31 40.54 144.00 39.51 140.02 C 41.13 133.96 44.20 128.41 46.03 122.41 Z" />
<path fill="#3e3e3e" opacity="1.00" d=" M 261.91 127.21 C 266.88 126.94 271.89 126.26 276.87 126.81 C 281.27 128.26 285.07 131.05 289.26 132.98 C 294.75 135.47 299.52 139.19 304.44 142.60 C 314.81 149.43 319.88 161.24 326.89 171.02 C 329.29 174.11 330.85 177.70 332.63 181.15 C 333.71 183.50 336.93 184.07 337.77 186.53 C 337.41 186.90 336.69 187.65 336.33 188.02 C 337.61 190.82 338.80 193.65 339.91 196.52 C 346.70 196.01 355.31 194.92 360.13 200.90 C 362.28 202.87 364.88 204.36 366.56 206.82 C 366.97 213.55 366.66 220.28 365.78 226.96 C 365.99 237.70 363.51 248.28 363.72 259.01 C 363.27 264.08 361.59 268.94 360.53 273.90 C 359.43 276.82 358.05 280.90 354.35 281.04 C 349.13 281.86 343.83 281.96 338.56 281.65 C 338.38 277.59 341.04 274.08 340.69 270.03 C 340.19 252.91 344.29 235.22 338.70 218.56 C 337.99 215.47 337.78 212.29 337.59 209.14 C 331.59 212.16 325.10 209.27 319.13 207.76 C 308.37 209.48 297.41 209.83 286.63 211.42 C 294.96 212.59 303.38 211.86 311.76 212.31 C 315.20 212.39 318.06 214.48 320.27 216.93 C 314.26 220.94 307.01 222.21 300.64 225.47 C 298.82 226.26 297.12 227.44 295.13 227.74 C 288.46 225.08 283.54 217.92 275.84 218.13 C 274.14 215.11 272.58 212.02 271.10 208.89 C 267.82 207.85 264.54 206.42 261.02 206.69 C 258.28 206.90 255.56 206.42 253.12 205.16 C 251.77 209.73 250.66 214.38 249.28 218.94 C 247.58 219.76 246.21 221.04 245.60 222.86 C 245.75 220.42 243.59 217.90 241.01 218.69 C 234.28 219.74 227.60 221.18 220.95 222.71 C 216.19 223.86 211.31 222.80 206.50 222.76 C 206.44 221.74 206.39 220.73 206.34 219.71 C 214.48 217.31 222.41 213.42 231.05 213.47 C 232.58 213.34 233.78 212.26 235.09 211.56 C 225.59 210.68 216.06 210.50 206.53 210.15 C 200.80 209.93 195.29 211.82 189.69 212.72 C 189.02 213.15 188.35 213.58 187.68 214.01 C 186.83 208.22 187.23 201.84 184.19 196.64 C 183.59 196.52 182.37 196.29 181.76 196.17 C 181.81 193.51 180.94 190.34 183.28 188.38 C 186.79 185.08 187.11 179.90 190.37 176.41 C 195.71 170.02 200.55 163.21 206.10 156.99 C 209.03 154.03 211.24 150.15 215.14 148.32 C 218.06 146.94 219.15 143.59 221.58 141.63 C 225.52 138.42 229.84 135.50 234.66 133.78 C 243.78 131.72 252.51 127.98 261.91 127.21 Z" />
<path fill="#f4722b" opacity="1.00" d=" M 224.46 192.61 C 227.73 191.64 231.36 193.03 234.18 194.73 C 237.53 198.01 239.77 202.24 241.71 206.47 C 232.24 206.79 222.80 205.71 213.35 205.31 C 211.62 203.74 213.24 200.96 214.44 199.48 C 217.79 197.21 221.14 194.92 224.46 192.61 Z" />
<path fill="#f4722b" opacity="1.00" d=" M 290.73 203.57 C 294.61 198.13 301.10 194.99 307.75 195.00 C 309.00 198.20 313.06 199.95 312.84 203.64 C 305.47 203.84 298.09 203.98 290.73 203.57 Z" />
<path fill="#3e3e3e" opacity="1.00" d=" M 376.32 207.91 C 378.09 209.30 380.82 210.26 380.94 212.88 C 381.71 218.77 380.13 224.65 379.26 230.44 C 378.90 230.48 378.18 230.57 377.82 230.61 C 378.71 227.88 376.83 225.57 376.26 223.04 C 376.14 218.00 376.32 212.95 376.32 207.91 Z" />
<path fill="#3e3e3e" opacity="1.00" d=" M 164.58 225.97 C 167.15 229.29 169.25 233.07 172.66 235.65 C 173.88 242.05 173.05 248.59 173.43 255.05 C 173.51 257.50 175.09 259.55 175.51 261.92 C 175.98 264.90 175.67 267.92 175.46 270.91 C 172.44 270.96 169.56 270.09 166.73 269.16 C 164.06 260.77 161.72 251.87 163.12 243.01 C 163.91 237.35 163.25 231.56 164.58 225.97 Z" />
<path fill="#3e3e3e" opacity="1.00" d=" M 189.56 228.27 C 194.24 230.06 197.50 234.24 202.35 235.63 C 209.49 243.26 215.61 251.80 222.17 259.93 C 223.41 261.44 225.78 261.67 226.54 263.62 C 227.39 265.37 228.56 266.93 230.35 267.81 C 230.17 270.40 232.05 271.98 234.09 273.14 C 232.61 274.05 231.12 274.95 229.63 275.84 C 229.87 281.60 229.71 287.37 229.12 293.11 C 227.95 303.68 228.35 314.34 228.27 324.96 C 228.17 329.66 229.39 334.42 228.39 339.09 C 227.65 341.79 225.03 343.37 222.37 343.71 C 222.92 345.77 223.42 347.84 223.84 349.93 C 216.72 340.47 209.23 331.21 203.17 321.00 C 200.06 314.58 194.76 309.23 193.23 302.10 C 192.83 297.06 192.47 292.03 191.64 287.05 C 191.48 279.10 188.68 271.40 189.58 263.41 C 189.08 263.17 188.07 262.69 187.56 262.45 C 188.08 251.05 189.15 239.68 189.56 228.27 Z" />
<path fill="#3e3e3e" opacity="1.00" d=" M 310.90 258.09 C 319.69 250.79 326.41 241.49 333.72 232.80 C 333.82 239.54 333.89 246.30 333.30 253.02 C 332.35 263.35 332.69 273.83 330.88 284.06 C 327.52 291.91 323.52 299.56 318.69 306.62 C 311.97 315.18 306.16 324.36 300.10 333.37 C 300.24 330.71 300.44 328.02 301.46 325.54 C 302.82 322.50 301.68 319.20 301.77 316.03 C 301.76 309.67 302.81 303.27 301.76 296.95 C 301.42 294.80 299.90 293.11 299.33 291.05 C 299.08 287.60 300.76 284.41 301.05 281.02 C 301.43 276.09 302.48 271.26 303.52 266.44 C 307.76 266.16 308.39 260.70 310.90 258.09 Z" />
<path fill="#f4722b" opacity="1.00" d=" M 476.91 242.70 C 483.06 241.31 487.38 236.32 493.09 233.97 C 489.25 237.54 485.06 240.70 481.17 244.22 C 477.23 248.11 472.19 250.54 467.49 253.32 C 461.31 253.94 455.03 254.24 448.85 253.40 C 446.95 253.10 445.07 253.67 443.39 254.53 C 435.78 258.62 428.84 263.78 421.81 268.77 C 421.44 266.42 421.16 263.85 422.82 261.90 C 426.05 257.68 427.08 251.74 431.66 248.64 C 436.08 247.85 440.56 247.11 445.06 247.07 C 449.79 246.83 454.21 249.29 458.96 248.70 C 465.47 248.53 470.71 244.10 476.91 242.70 Z" />
<path fill="#f4722b" opacity="1.00" d=" M 129.58 242.42 C 130.47 239.70 132.48 237.09 135.54 236.94 C 137.99 240.94 140.52 244.90 143.03 248.86 C 142.34 248.20 141.64 247.55 140.94 246.90 C 138.88 246.48 137.13 245.38 135.78 243.78 C 135.09 246.86 134.13 249.87 133.13 252.86 C 136.43 253.58 141.70 251.71 143.19 255.79 C 147.60 266.96 156.38 276.02 159.47 287.78 C 160.51 292.28 161.77 296.74 163.69 300.95 C 159.39 299.62 154.91 299.09 150.46 298.55 C 151.45 295.31 151.72 291.93 151.49 288.57 C 146.89 284.37 145.63 277.98 141.89 273.16 C 139.23 269.58 137.09 265.37 133.27 262.84 C 130.65 260.91 127.31 262.29 124.42 262.70 C 111.39 266.01 103.77 279.25 90.97 282.90 C 88.23 280.33 85.64 277.57 82.31 275.74 C 73.96 270.63 68.98 261.31 60.04 257.10 C 65.98 259.56 72.28 261.08 78.09 263.89 C 83.65 267.00 90.35 266.89 95.91 270.04 C 96.61 270.79 97.26 271.57 97.89 272.38 C 106.41 265.70 114.77 257.17 126.12 256.04 C 126.95 251.42 128.15 246.88 129.58 242.42 Z" />
<path fill="#3e3e3e" opacity="1.00" d=" M 282.29 244.11 C 286.43 247.68 290.53 251.34 294.94 254.60 C 290.42 254.10 287.52 257.96 284.09 260.15 C 279.61 263.09 274.89 265.64 270.10 268.03 C 265.43 270.70 259.95 268.79 254.95 268.55 C 251.30 268.68 248.68 265.66 245.47 264.40 C 239.76 261.82 234.42 257.96 228.04 257.25 C 229.87 254.06 231.91 251.00 234.11 248.05 C 234.55 249.58 234.62 251.73 236.41 252.32 C 239.48 253.12 242.67 254.34 245.87 253.54 C 250.51 252.59 255.25 252.37 259.97 252.27 C 264.14 253.15 267.78 255.91 272.12 256.28 C 276.58 254.45 277.68 248.36 282.52 246.98 C 282.46 246.26 282.34 244.83 282.29 244.11 Z" />
<path fill="#3e3e3e" opacity="1.00" d=" M 373.63 260.38 C 375.35 260.32 377.08 260.29 378.82 260.26 C 378.60 266.32 376.19 273.07 370.24 275.65 C 371.15 270.51 372.63 265.50 373.63 260.38 Z" />
<path fill="#3e3e3e" opacity="1.00" d=" M 246.42 275.47 C 247.97 275.43 249.52 275.37 251.08 275.38 C 259.39 278.19 268.94 274.73 276.97 279.24 C 277.58 279.32 278.80 279.48 279.41 279.57 C 282.41 282.20 286.83 281.97 289.66 284.93 C 289.51 287.34 288.68 289.95 289.85 292.25 C 291.94 296.59 291.08 301.63 292.95 306.07 C 294.20 315.63 293.98 325.40 292.38 334.92 C 291.32 339.18 287.48 341.66 284.66 344.71 C 281.59 348.04 277.47 350.14 274.45 353.50 C 271.29 357.48 265.61 356.90 261.12 356.49 C 254.38 354.74 247.53 353.49 240.67 352.32 C 238.75 346.16 236.10 340.18 235.44 333.71 C 234.35 333.21 233.27 332.72 232.18 332.23 C 232.07 324.47 232.72 316.73 233.17 308.99 C 233.46 303.91 232.83 298.75 233.78 293.73 C 235.36 290.15 238.84 287.72 239.97 283.89 C 240.89 280.29 243.89 277.95 246.42 275.47 Z" />
<path fill="#f5e5c1" opacity="1.00" d=" M 246.77 289.85 C 249.67 285.48 255.51 286.28 260.04 285.75 C 265.64 286.15 272.28 286.33 276.29 290.87 C 277.78 293.74 276.34 297.52 273.04 298.16 C 269.61 298.42 266.47 296.50 263.07 296.39 C 258.33 296.14 253.58 296.41 248.85 296.54 C 247.09 294.78 245.60 292.37 246.77 289.85 Z" />
<path fill="#f4722b" opacity="1.00" d=" M 359.28 299.47 C 369.82 296.54 380.03 292.23 389.49 286.72 C 389.61 289.35 389.69 291.99 389.73 294.63 C 386.51 297.46 383.66 300.68 380.35 303.40 C 376.08 307.02 369.71 306.49 365.89 310.82 C 363.30 310.65 360.70 310.04 358.13 310.72 C 356.74 312.89 354.28 313.78 352.36 315.34 C 351.05 316.76 350.18 318.52 349.17 320.15 C 349.63 314.29 351.83 308.78 353.09 303.07 C 353.53 300.15 357.06 300.20 359.28 299.47 Z" />
<path fill="#f4722b" opacity="1.00" d=" M 26.08 311.72 C 24.86 308.28 22.13 305.63 21.03 302.14 C 26.92 306.58 30.25 313.45 36.09 317.91 C 41.02 322.01 44.57 327.58 49.82 331.32 C 53.69 333.88 58.08 331.42 61.99 330.31 C 65.92 329.25 69.53 327.36 73.03 325.33 C 82.04 327.26 85.16 337.71 93.76 340.27 C 99.95 342.91 106.93 342.95 112.95 346.04 C 116.88 347.88 120.47 350.34 124.02 352.81 C 130.60 350.36 135.58 345.14 141.14 341.05 C 147.24 334.63 154.11 327.72 155.61 318.61 C 160.19 316.86 165.11 315.82 170.03 316.27 C 172.64 316.50 176.03 316.06 177.51 318.82 C 177.51 320.16 177.47 321.50 177.39 322.84 C 180.88 327.29 178.47 333.27 180.97 338.12 C 184.58 346.02 191.29 351.93 195.75 359.33 C 197.85 363.13 201.73 365.71 203.09 369.93 C 204.01 373.42 208.25 374.27 209.61 377.47 C 211.06 380.16 209.40 383.18 209.76 386.03 C 210.31 388.25 211.93 389.98 213.31 391.73 C 218.56 397.99 224.31 404.23 231.90 407.63 C 223.92 406.14 215.80 405.51 207.69 405.96 C 206.41 397.51 211.43 388.31 206.38 380.55 C 202.75 374.67 194.94 374.42 190.41 369.60 C 186.69 365.96 182.30 362.60 177.03 361.75 C 171.56 361.05 166.05 360.69 160.56 360.24 C 158.68 360.12 157.03 358.81 156.54 356.98 C 157.57 352.58 160.60 348.82 164.29 346.30 C 168.46 343.48 171.59 339.06 172.30 334.03 C 170.75 330.46 168.52 327.24 166.94 323.68 C 164.61 327.17 162.54 330.83 160.42 334.45 C 157.83 338.76 153.43 341.47 150.23 345.26 C 148.52 347.18 148.93 350.19 147.07 352.02 C 142.55 356.84 138.29 361.91 133.71 366.68 C 128.55 372.85 122.24 377.90 117.01 384.00 C 115.48 385.45 114.22 387.75 111.88 387.82 C 106.54 388.32 101.29 386.59 95.97 386.92 C 91.50 387.83 88.66 391.70 85.35 394.48 C 83.51 396.16 81.01 397.42 80.19 399.95 C 78.55 404.02 76.64 408.05 75.75 412.37 C 75.17 414.98 75.95 418.00 74.34 420.30 C 71.98 422.51 68.78 423.45 65.79 424.46 C 57.87 426.76 50.16 429.69 42.42 432.54 C 40.71 433.09 38.71 433.89 36.99 432.95 C 35.83 431.50 35.64 428.48 37.64 427.65 C 39.66 426.56 41.88 425.93 44.04 425.17 C 44.74 423.38 45.22 421.24 47.19 420.44 C 55.67 415.45 62.51 408.31 69.27 401.30 C 71.94 397.68 70.81 392.75 72.74 388.85 C 74.63 386.25 77.77 385.08 80.41 383.42 C 84.46 381.19 88.14 377.85 92.89 377.25 C 96.02 376.59 99.54 377.13 102.31 375.27 C 105.74 373.15 108.42 370.04 110.78 366.82 C 112.77 362.96 113.80 358.68 115.72 354.78 C 107.19 348.55 95.96 349.32 86.96 344.11 C 81.21 341.02 78.36 334.40 72.36 331.68 C 69.57 336.76 63.03 334.99 58.74 337.89 C 54.95 339.13 51.97 343.96 47.64 342.32 C 43.26 338.95 39.66 334.30 37.73 329.09 C 34.74 322.72 28.72 318.32 26.08 311.72 Z" />
<path fill="#f4722b" opacity="1.00" d=" M 389.37 338.97 C 388.77 335.90 392.89 335.58 394.83 334.44 C 397.24 338.24 401.72 339.93 406.05 340.14 C 417.96 339.71 429.72 342.58 440.97 346.25 C 443.91 347.16 447.08 347.53 449.79 349.08 C 451.78 350.04 452.34 353.16 450.52 354.55 C 448.81 356.31 446.41 354.80 444.45 354.41 C 441.05 353.30 437.41 353.67 433.93 353.04 C 430.11 352.34 427.09 349.04 423.02 349.46 C 415.72 349.84 408.39 349.68 401.10 350.05 C 398.43 349.96 394.85 351.83 392.93 349.20 C 391.31 345.98 389.92 342.54 389.37 338.97 Z" />
<path fill="#3e3e3e" opacity="1.00" d=" M 283.35 361.36 C 286.18 359.45 288.26 356.67 290.49 354.13 C 289.98 358.19 289.69 362.29 288.90 366.31 C 284.04 368.02 279.14 369.62 274.10 370.69 C 268.10 372.04 262.23 374.57 256.02 374.59 C 250.09 373.15 244.33 370.93 238.81 368.35 C 234.72 366.58 233.04 362.10 232.20 358.05 C 232.68 358.72 233.17 359.39 233.68 360.06 C 234.98 360.80 235.90 361.96 236.74 363.18 C 240.66 361.53 244.04 364.87 247.91 365.00 C 252.26 365.26 256.56 367.19 260.92 366.10 C 263.77 365.52 266.73 366.00 269.56 365.35 C 272.51 364.33 275.17 362.63 278.10 361.54 C 279.84 361.33 281.63 361.80 283.35 361.36 Z" />
<path fill="#f4722b" opacity="1.00" d=" M 366.88 355.65 C 367.07 355.59 367.46 355.47 367.66 355.41 C 368.79 360.49 375.09 360.97 379.33 361.75 C 381.53 367.15 382.60 372.87 383.60 378.59 C 384.36 382.20 385.94 386.82 390.13 387.49 C 394.35 388.24 397.71 391.54 402.08 391.69 C 407.09 392.02 412.42 391.63 416.70 388.73 C 423.35 384.11 429.10 378.32 435.83 373.77 C 439.30 370.44 445.00 370.25 448.82 373.11 C 455.58 377.99 462.10 383.19 468.80 388.15 C 471.09 389.99 473.96 390.72 476.78 391.31 C 476.66 392.48 476.53 393.66 476.41 394.85 C 472.92 394.49 469.60 393.25 466.63 391.41 C 461.34 388.43 458.56 382.67 453.71 379.14 C 450.38 376.74 446.58 373.93 442.24 374.41 C 439.33 375.49 436.91 377.60 434.20 379.09 C 431.65 380.35 430.75 383.36 430.88 386.01 C 431.26 388.11 432.49 389.92 433.13 391.95 C 434.34 398.42 433.81 405.27 436.48 411.42 C 439.34 411.88 442.66 411.95 444.73 414.29 C 447.76 417.68 447.83 422.50 448.67 426.74 C 448.74 428.45 450.34 429.39 451.41 430.51 C 455.35 433.87 458.37 438.31 463.04 440.76 C 456.28 438.34 448.28 437.38 443.49 431.44 C 441.76 427.47 442.21 422.85 440.39 418.85 C 439.30 418.55 438.24 418.20 437.21 417.80 C 434.22 413.11 432.94 407.65 431.80 402.28 C 430.92 397.57 426.20 394.45 426.57 389.41 C 424.57 391.38 421.79 391.58 419.19 392.09 C 416.87 393.57 415.96 396.95 412.91 397.27 C 406.51 398.12 399.46 398.88 393.55 395.70 C 389.93 394.01 386.68 391.64 383.64 389.08 C 382.26 393.50 381.14 397.99 379.56 402.34 C 378.80 399.03 378.72 395.35 376.23 392.77 C 377.16 384.74 381.05 376.80 379.23 368.65 C 376.41 363.56 370.55 360.84 365.16 359.32 C 365.81 358.14 366.32 356.87 366.88 355.65 Z" />
<path fill="#f4722b" opacity="1.00" d=" M 335.73 357.74 C 337.49 359.04 339.36 360.21 341.28 361.25 C 335.22 366.17 328.88 370.80 323.50 376.50 C 320.10 380.14 315.02 382.83 313.75 387.98 C 314.11 391.51 316.63 394.39 317.23 397.88 C 318.52 405.46 320.16 413.01 320.80 420.69 C 318.76 424.82 315.22 427.98 312.68 431.80 C 309.46 435.80 307.76 440.70 305.31 445.16 C 303.92 448.46 300.01 449.56 298.63 452.89 C 300.81 458.69 302.38 464.77 302.65 470.98 C 302.93 477.76 304.58 484.35 305.81 490.99 C 303.43 486.27 300.86 481.44 300.61 476.05 C 300.27 469.08 297.42 462.58 294.80 456.22 C 294.14 454.28 291.97 452.45 293.07 450.30 C 293.85 447.93 295.09 445.62 297.22 444.21 C 300.17 442.26 301.24 438.75 302.79 435.76 C 304.95 430.85 308.80 426.87 310.60 421.78 C 312.65 416.03 316.10 410.03 314.23 403.75 C 311.81 400.54 308.51 398.04 306.43 394.58 C 304.85 390.10 309.74 387.95 312.13 385.15 C 313.84 383.68 313.49 381.23 314.17 379.27 C 314.98 377.64 317.10 377.80 318.60 377.31 C 324.23 370.72 329.67 363.94 335.73 357.74 Z" />
<path fill="#f4722b" opacity="1.00" d=" M 378.13 402.20 C 381.54 407.71 379.06 415.47 383.20 420.83 C 385.54 423.49 388.71 425.28 390.99 428.02 C 393.14 430.59 396.01 432.36 398.73 434.25 C 401.77 436.34 403.55 439.66 405.77 442.51 C 409.76 441.41 413.81 440.02 418.02 440.55 C 420.44 440.90 423.56 440.53 425.20 442.76 C 430.57 449.25 435.22 456.44 438.55 464.20 C 440.87 470.96 445.98 476.17 450.43 481.57 C 452.13 483.92 455.57 484.27 458.01 482.92 C 462.93 480.20 467.99 477.10 470.92 472.12 C 467.91 477.48 465.56 483.20 462.51 488.53 C 459.11 489.76 455.99 492.67 452.14 491.86 C 450.71 491.89 450.25 490.34 449.63 489.37 C 447.79 485.62 446.08 481.79 443.71 478.34 C 437.91 469.85 433.92 460.29 428.30 451.71 C 424.71 448.71 419.47 449.73 415.51 447.42 C 412.72 445.70 409.63 444.78 406.37 444.55 C 403.18 442.99 400.86 440.03 397.64 438.45 C 392.41 435.86 386.78 434.13 381.08 432.95 C 379.53 432.41 377.00 432.01 377.18 429.89 C 376.88 420.66 376.93 411.37 378.13 402.20 Z" />
<path fill="#f4722b" opacity="1.00" d=" M 464.98 441.93 C 469.32 444.46 474.87 446.84 476.15 452.23 C 471.91 449.36 469.18 444.85 464.98 441.93 Z" />
</svg>
