<?xml version="1.0" encoding="UTF-8" ?>
<!DOCTYPE svg PUBLIC "-//W3C//DTD SVG 1.1//EN" "http://www.w3.org/Graphics/SVG/1.1/DTD/svg11.dtd">
<svg width="512pt" height="512pt" viewBox="0 0 512 512" version="1.1" xmlns="http://www.w3.org/2000/svg">
<path fill="#3e3e3e" opacity="1.00" d=" M 0.00 0.00 L 512.00 0.00 L 512.00 255.82 C 509.07 254.91 505.84 254.62 503.36 252.66 C 493.32 245.42 483.17 238.32 473.09 231.13 C 473.96 229.07 474.86 227.03 475.78 224.99 C 475.63 224.49 475.33 223.48 475.18 222.98 C 476.08 212.69 475.32 202.34 475.62 192.03 C 475.45 189.30 476.21 186.13 474.27 183.86 C 471.49 180.22 468.71 176.58 465.84 173.01 C 464.53 171.18 462.26 170.62 460.14 170.46 C 443.33 168.96 426.48 167.78 409.68 166.12 C 407.00 171.55 402.82 176.41 397.58 179.44 C 384.80 183.25 371.65 185.82 359.06 190.27 C 315.52 203.20 272.22 216.95 228.85 230.43 C 223.86 231.69 219.34 234.89 214.02 234.62 C 208.08 234.63 202.10 235.25 196.20 234.29 C 165.48 228.98 134.72 223.87 104.00 218.58 C 100.63 222.37 97.27 226.16 93.96 230.00 C 90.99 233.32 90.65 237.97 89.18 242.01 C 68.61 248.49 48.29 255.74 27.82 262.54 C 23.39 264.17 18.51 265.00 14.75 268.06 C 16.55 269.41 18.55 270.82 20.95 270.35 C 30.61 269.50 40.24 268.25 49.92 267.59 C 45.94 269.54 40.24 269.69 38.17 274.17 C 50.13 273.10 62.03 271.51 73.98 270.34 C 79.25 269.86 84.35 268.03 89.70 268.30 C 90.66 272.94 86.61 276.46 87.11 280.99 C 87.27 282.87 86.97 285.07 88.31 286.60 C 89.46 288.31 91.33 289.78 91.25 292.04 C 91.97 301.55 93.00 311.04 93.71 320.55 C 93.87 326.60 97.29 332.38 101.90 336.12 C 133.23 338.47 164.64 340.02 196.00 342.11 C 255.34 345.69 314.67 349.42 374.01 353.03 C 386.69 353.37 399.34 354.43 411.99 355.32 C 419.42 355.13 427.17 357.20 434.32 354.34 C 436.97 353.27 440.47 352.84 441.82 349.97 C 445.45 342.93 448.53 335.62 451.13 328.14 C 456.21 314.47 461.29 300.80 466.40 287.14 C 467.59 283.93 468.20 280.55 468.82 277.19 C 483.18 275.48 497.60 274.26 512.00 272.95 L 512.00 512.00 L 0.00 512.00 L 0.00 0.00 Z" />
<path fill="#f5e5c1" opacity="1.00" d=" M 80.09 77.40 C 123.43 68.75 166.71 59.82 210.00 50.98 C 213.28 50.20 216.61 51.08 219.90 51.31 C 276.27 56.28 332.66 61.22 389.03 66.19 C 391.83 66.53 395.04 66.58 397.12 68.79 C 400.10 71.91 404.45 73.64 406.52 77.59 C 410.01 83.25 409.58 90.24 409.41 96.62 C 418.95 98.93 428.41 101.58 437.93 104.00 C 447.80 106.82 458.01 108.11 468.05 110.19 C 469.40 110.46 470.62 111.10 471.87 111.68 C 470.75 114.63 470.29 118.08 468.03 120.43 C 466.37 120.89 464.64 120.81 462.96 120.76 C 446.49 119.61 430.03 118.42 413.55 117.41 C 413.90 120.62 414.51 123.82 414.40 127.06 C 412.88 129.09 410.39 129.92 408.19 130.93 C 408.19 139.94 407.75 148.93 407.71 157.93 C 406.70 163.05 405.30 168.63 400.95 171.98 C 398.20 175.35 393.66 175.62 389.77 176.76 C 382.79 178.68 375.73 180.31 368.81 182.44 C 370.11 180.19 370.96 177.67 372.58 175.63 C 376.34 172.95 381.17 172.99 385.45 171.68 C 389.38 170.43 393.98 170.13 396.99 166.97 C 398.67 165.48 398.65 163.03 399.46 161.08 C 400.07 158.83 402.27 157.27 402.43 154.87 C 403.19 146.54 403.94 138.19 403.86 129.82 C 407.86 128.05 408.21 123.60 408.46 119.79 C 408.10 119.27 407.38 118.23 407.02 117.71 C 405.94 117.56 404.86 117.41 403.79 117.26 C 403.79 106.71 403.85 96.15 403.70 85.59 C 403.20 85.29 402.19 84.68 401.68 84.37 C 401.09 80.13 398.37 76.55 394.65 74.54 C 390.12 75.72 385.50 74.45 380.93 74.39 C 378.71 74.76 376.63 75.68 374.44 76.16 C 323.28 87.13 272.12 98.10 220.95 109.07 C 217.01 109.90 213.04 111.04 208.97 110.82 C 155.64 105.84 102.25 101.53 48.90 96.74 C 42.93 96.17 36.82 96.25 31.07 94.35 C 27.40 95.71 25.57 100.15 25.67 103.97 C 25.53 116.19 25.94 128.41 26.21 140.63 C 70.80 147.47 115.42 154.13 160.03 160.86 C 167.39 161.52 174.56 163.67 181.98 163.76 C 195.77 166.38 209.87 169.44 224.00 167.82 C 230.72 167.42 236.91 164.49 243.30 162.64 C 243.38 164.37 243.48 166.11 243.57 167.85 C 237.43 169.55 231.48 172.27 225.03 172.50 C 212.96 174.01 200.86 171.93 188.95 170.04 C 185.58 169.51 182.07 168.71 178.72 169.76 C 158.57 175.27 138.37 180.59 118.22 186.11 C 114.56 187.13 110.77 186.27 107.05 186.30 C 96.35 186.16 85.65 186.34 74.96 186.23 C 72.98 186.34 71.22 185.39 69.70 184.23 C 70.22 180.19 68.56 176.41 67.51 172.61 C 65.90 167.03 64.28 161.45 62.66 155.88 C 62.10 154.26 62.20 152.55 62.54 150.90 C 50.42 149.24 38.34 147.32 26.25 145.48 C 26.51 157.66 26.69 169.85 26.73 182.03 C 26.56 188.18 30.95 194.12 36.88 195.70 C 92.18 204.91 147.53 213.89 202.82 223.16 C 208.77 225.08 215.05 223.82 221.05 222.79 C 243.10 216.09 265.07 209.11 287.12 202.40 C 288.32 201.83 289.34 202.87 290.32 203.40 C 291.82 203.50 293.08 204.08 294.09 205.16 C 271.27 212.53 248.30 219.46 225.44 226.74 C 222.32 227.70 219.45 229.78 216.05 229.62 C 209.22 229.46 202.29 230.33 195.56 228.79 C 168.12 224.13 140.69 219.44 113.25 214.82 C 109.74 214.26 106.41 212.95 102.89 212.44 C 79.87 208.70 56.88 204.78 33.85 201.07 C 30.49 200.82 27.76 198.76 25.15 196.82 C 23.49 195.41 20.99 194.33 20.68 191.92 C 17.54 178.83 19.18 165.33 18.66 152.02 C 17.23 151.51 14.75 151.25 15.09 149.13 C 15.42 145.88 15.06 141.54 18.57 139.89 C 18.58 130.25 18.41 120.62 18.41 110.99 C 18.42 106.28 17.61 101.23 19.89 96.87 C 23.28 91.69 28.79 87.61 35.01 86.71 C 42.92 84.99 50.87 83.42 58.78 81.68 C 65.78 79.79 72.86 78.07 80.09 77.40 Z" />
<path fill="#f5e5c1" opacity="1.00" d=" M 381.81 99.79 C 387.21 98.28 392.81 97.35 398.42 97.36 C 398.26 107.60 398.79 117.84 398.41 128.07 C 398.53 130.85 395.21 131.32 393.26 132.19 C 389.62 133.21 385.78 135.68 381.94 134.08 C 380.09 131.84 381.00 128.63 380.88 125.97 C 381.72 117.26 381.22 108.50 381.81 99.79 Z" />
<path fill="#f5e5c1" opacity="1.00" d=" M 358.45 105.11 C 362.22 103.85 367.35 104.67 369.36 108.42 C 369.81 111.69 369.77 115.00 370.25 118.27 C 368.70 120.85 366.72 123.20 365.63 126.03 C 365.00 131.00 365.87 136.00 366.15 140.97 C 366.69 151.37 367.41 161.75 368.11 172.14 C 367.37 176.48 364.76 180.51 361.28 183.14 C 343.45 188.47 325.46 193.31 307.60 198.53 C 304.48 199.54 301.19 199.33 297.98 199.30 C 295.79 196.06 291.47 193.39 292.29 188.97 C 293.11 175.27 293.50 161.55 294.42 147.86 C 294.61 145.91 295.72 143.97 295.10 142.01 C 292.94 140.26 289.13 141.83 287.67 139.11 C 287.20 134.80 286.98 130.43 287.18 126.09 C 287.24 124.07 289.72 123.89 291.14 123.20 C 296.12 121.73 300.97 119.79 306.03 118.64 C 310.13 118.52 314.47 118.89 318.17 120.85 C 318.76 124.93 320.25 128.83 320.53 132.96 C 317.92 135.43 314.01 137.81 314.26 141.91 C 314.27 152.27 314.26 162.64 314.71 172.99 C 314.47 174.54 315.45 175.58 316.57 176.46 C 325.08 173.17 333.77 170.35 342.31 167.14 C 344.84 166.32 346.78 163.84 346.64 161.13 C 346.76 151.07 346.73 141.01 346.77 130.95 C 347.45 127.25 343.11 126.44 340.76 124.88 C 340.49 119.84 340.38 114.80 340.40 109.76 C 345.98 106.88 352.47 106.76 358.45 105.11 Z" />
<path fill="#f5e5c1" opacity="1.00" d=" M 370.75 126.81 C 372.42 126.26 374.11 125.70 375.80 125.15 C 375.72 126.92 375.65 128.70 375.58 130.47 C 374.03 130.89 372.49 131.30 370.94 131.70 C 370.88 130.07 370.81 128.44 370.75 126.81 Z" />
<path fill="#f5e5c1" opacity="1.00" d=" M 247.97 136.01 C 254.63 132.98 262.32 130.82 269.47 133.57 C 270.62 135.14 270.15 137.20 270.33 139.01 C 270.41 149.03 271.46 159.03 271.38 169.04 C 269.81 171.68 265.95 171.36 263.37 172.60 C 259.34 174.39 254.91 175.04 250.53 174.45 C 248.33 163.44 248.23 152.11 247.05 140.95 C 246.92 139.27 246.41 137.21 247.97 136.01 Z" />
<path fill="#f5e5c1" opacity="1.00" d=" M 319.44 141.65 C 326.83 139.44 334.22 137.22 341.61 135.02 C 341.57 136.75 341.53 138.48 341.49 140.21 C 334.18 142.32 326.93 144.60 319.62 146.71 C 319.55 145.02 319.49 143.33 319.44 141.65 Z" />
<path fill="#f5e5c1" opacity="1.00" d=" M 276.54 152.12 C 280.69 150.95 284.79 149.62 288.88 148.29 C 288.83 150.03 288.77 151.77 288.72 153.52 C 284.65 154.87 280.55 156.11 276.49 157.48 C 276.50 155.69 276.51 153.91 276.54 152.12 Z" />
<path fill="#f5e5c1" opacity="1.00" d=" M 397.58 179.44 C 402.82 176.41 407.00 171.55 409.68 166.12 C 426.48 167.78 443.33 168.96 460.14 170.46 C 462.26 170.62 464.53 171.18 465.84 173.01 C 468.71 176.58 471.49 180.22 474.27 183.86 C 476.21 186.13 475.45 189.30 475.62 192.03 C 475.32 202.34 476.08 212.69 475.18 222.98 C 475.33 223.48 475.63 224.49 475.78 224.99 C 474.86 227.03 473.96 229.07 473.09 231.13 C 483.17 238.32 493.32 245.42 503.36 252.66 C 505.84 254.62 509.07 254.91 512.00 255.82 L 512.00 272.95 C 497.60 274.26 483.18 275.48 468.82 277.19 C 468.20 280.55 467.59 283.93 466.40 287.14 C 461.29 300.80 456.21 314.47 451.13 328.14 C 448.53 335.62 445.45 342.93 441.82 349.97 C 440.47 352.84 436.97 353.27 434.32 354.34 C 427.17 357.20 419.42 355.13 411.99 355.32 C 399.34 354.43 386.69 353.37 374.01 353.03 C 314.67 349.42 255.34 345.69 196.00 342.11 C 164.64 340.02 133.23 338.47 101.90 336.12 C 97.29 332.38 93.87 326.60 93.71 320.55 C 93.00 311.04 91.97 301.55 91.25 292.04 C 91.33 289.78 89.46 288.31 88.31 286.60 C 86.97 285.07 87.27 282.87 87.11 280.99 C 86.61 276.46 90.66 272.94 89.70 268.30 C 84.35 268.03 79.25 269.86 73.98 270.34 C 62.03 271.51 50.13 273.10 38.17 274.17 C 40.24 269.69 45.94 269.54 49.92 267.59 C 40.24 268.25 30.61 269.50 20.95 270.35 C 18.55 270.82 16.55 269.41 14.75 268.06 C 18.51 265.00 23.39 264.17 27.82 262.54 C 48.29 255.74 68.61 248.49 89.18 242.01 C 90.65 237.97 90.99 233.32 93.96 230.00 C 97.27 226.16 100.63 222.37 104.00 218.58 C 134.72 223.87 165.48 228.98 196.20 234.29 C 202.10 235.25 208.08 234.63 214.02 234.62 C 219.34 234.89 223.86 231.69 228.85 230.43 C 272.22 216.95 315.52 203.20 359.06 190.27 C 371.65 185.82 384.80 183.25 397.58 179.44 Z" />
<path fill="#3e3e3e" opacity="1.00" d=" M 459.83 175.63 C 462.67 179.34 465.58 183.01 468.37 186.76 C 468.28 196.84 468.41 206.92 468.32 217.00 C 467.89 221.72 465.86 226.09 464.45 230.57 C 456.79 252.26 449.61 274.11 441.45 295.61 C 440.60 298.23 438.60 300.76 435.89 301.51 C 428.77 302.06 421.58 302.53 414.46 301.79 C 310.93 295.24 207.39 288.60 103.86 282.07 C 100.94 281.37 98.39 279.33 96.39 277.16 C 97.18 266.08 95.99 254.97 96.36 243.88 C 96.75 240.57 98.03 237.46 98.79 234.23 C 108.05 235.45 117.45 235.22 126.75 235.95 C 220.86 240.71 314.96 245.51 409.06 250.31 C 415.15 250.49 421.97 251.97 427.36 248.29 C 430.49 246.17 434.34 244.58 436.15 241.05 C 438.02 237.84 439.95 234.61 440.99 231.02 C 444.54 219.33 448.14 207.65 451.75 195.98 C 454.28 189.14 458.05 182.75 459.83 175.63 Z" />
<path fill="#3e3e3e" opacity="1.00" d=" M 455.36 278.37 C 457.40 278.29 459.46 278.22 461.52 278.15 C 460.31 284.48 457.67 290.38 455.51 296.41 C 451.24 307.83 447.02 319.25 442.76 330.67 C 440.58 336.88 437.91 342.95 434.70 348.68 C 427.10 353.12 418.30 350.31 410.08 350.40 C 396.41 349.20 382.62 349.33 369.06 347.26 C 365.02 347.36 360.95 347.67 356.93 347.08 C 275.64 342.27 194.34 337.16 113.04 332.32 C 110.28 331.98 106.70 332.82 104.76 330.28 C 101.96 327.44 101.68 323.23 100.78 319.55 C 99.62 309.71 98.73 299.83 97.67 289.97 C 97.76 287.14 95.14 285.49 94.03 283.13 C 96.55 284.49 98.84 286.71 101.90 286.63 C 193.58 292.56 285.28 298.26 376.96 304.20 C 396.67 305.05 416.34 307.64 436.09 306.42 C 440.86 306.78 444.53 303.02 447.23 299.59 C 450.15 292.61 452.59 285.42 455.36 278.37 Z" />
<path fill="#f5e5c1" opacity="1.00" d=" M 31.47 321.38 C 49.94 312.14 68.46 302.88 86.85 293.44 C 88.04 303.59 88.88 313.80 89.70 323.99 C 89.85 330.85 94.46 336.52 98.97 341.27 C 188.38 346.86 277.81 352.24 367.22 357.84 C 352.13 366.34 336.63 374.15 321.37 382.37 C 316.44 384.77 311.77 388.39 306.06 388.54 C 300.38 388.82 294.64 390.26 288.98 389.10 C 202.72 370.41 116.49 351.61 30.22 332.99 C 29.71 334.64 28.76 336.25 28.91 338.03 C 29.68 349.06 29.32 360.14 30.22 371.17 C 33.33 372.01 36.44 372.89 39.56 373.69 C 39.85 375.89 40.17 378.09 40.48 380.30 C 37.24 379.09 33.98 377.95 30.67 376.92 C 31.87 387.95 32.54 399.03 33.47 410.08 C 33.18 413.93 36.98 416.22 39.65 418.25 C 54.01 422.39 68.51 426.06 82.91 430.04 C 86.31 431.08 88.10 434.53 90.42 436.97 C 72.89 432.63 55.54 427.56 38.06 423.01 C 33.19 421.96 29.75 417.91 26.72 414.27 C 25.20 400.55 24.76 386.72 22.93 373.03 C 22.57 361.69 22.51 350.33 21.74 339.00 C 21.23 335.26 23.40 332.00 24.75 328.70 C 26.05 325.54 29.02 323.58 31.47 321.38 Z" />
<path fill="#f5e5c1" opacity="1.00" d=" M 45.03 354.97 C 47.10 352.72 50.36 353.86 52.89 354.43 C 57.38 355.72 61.97 356.70 66.30 358.50 C 66.32 369.95 66.80 381.41 66.71 392.87 C 59.57 392.85 52.67 390.60 45.71 389.21 C 44.77 380.14 43.69 371.08 42.73 362.01 C 42.42 359.46 43.71 357.05 45.03 354.97 Z" />
<path fill="#f5e5c1" opacity="1.00" d=" M 405.62 360.28 C 407.97 360.37 410.32 360.45 412.67 360.52 C 413.11 365.60 413.44 370.68 413.40 375.78 C 420.38 379.17 427.53 382.20 434.59 385.43 C 438.14 387.13 442.03 388.31 445.04 390.96 C 443.26 392.31 441.39 393.65 439.14 394.10 C 406.01 402.80 373.02 412.04 339.83 420.50 C 353.85 419.01 367.76 416.63 381.74 414.83 C 393.72 413.34 405.62 411.23 417.34 408.31 C 426.00 416.42 434.73 424.48 442.95 433.03 C 441.70 434.54 440.06 435.85 437.97 435.53 C 414.95 434.59 391.94 433.70 368.93 432.66 C 367.77 432.47 366.92 433.41 366.05 433.98 C 344.79 450.44 323.45 466.80 302.17 483.22 C 299.57 485.31 296.13 485.54 292.98 486.16 C 287.47 487.35 281.93 485.72 276.52 484.72 C 248.66 477.53 220.88 470.06 193.02 462.92 C 194.65 461.64 196.30 460.40 197.96 459.17 C 223.31 465.69 248.60 472.42 273.93 479.04 C 281.33 480.79 289.66 483.63 296.92 479.95 C 317.58 464.18 338.08 448.17 358.76 432.43 C 345.86 431.42 332.91 431.49 320.00 430.60 C 313.41 429.47 309.41 436.28 303.41 437.55 C 297.67 438.74 291.86 440.06 285.95 439.73 C 278.44 439.96 271.35 437.15 264.09 435.65 C 264.28 434.09 264.47 432.53 264.67 430.98 C 274.29 432.80 283.97 436.54 293.89 434.52 C 298.52 433.98 303.07 432.69 306.84 429.86 C 319.96 419.48 333.93 410.20 347.45 400.34 C 362.02 389.96 376.54 379.49 391.16 369.16 C 396.32 366.27 401.41 371.07 406.22 372.63 C 405.63 368.54 405.74 364.40 405.62 360.28 Z" />
<path fill="#f5e5c1" opacity="1.00" d=" M 92.14 371.03 C 94.34 367.81 97.54 363.67 102.01 364.90 C 108.81 366.12 115.70 366.94 122.41 368.56 C 125.05 369.11 124.67 371.97 124.73 374.03 C 124.64 377.63 125.27 381.22 125.10 384.82 C 124.75 387.10 122.17 387.65 120.50 388.71 C 120.51 390.91 120.52 393.11 120.51 395.33 C 122.76 395.14 125.05 395.03 127.25 395.64 C 139.28 398.68 151.31 401.67 163.35 404.68 C 164.04 407.30 166.01 409.13 168.01 410.82 C 152.17 407.02 136.43 402.80 120.56 399.11 C 120.62 406.14 120.67 413.16 120.66 420.19 C 122.79 422.24 124.81 424.69 127.85 425.37 C 141.99 429.73 156.00 434.52 170.21 438.64 C 171.54 435.31 171.57 431.70 172.05 428.20 C 172.86 421.10 173.64 413.99 174.30 406.88 C 172.21 406.24 169.32 405.75 168.93 403.12 C 168.39 398.52 168.99 393.90 169.41 389.32 C 172.06 387.73 174.55 385.82 177.44 384.68 C 181.91 383.43 186.34 385.64 190.79 386.10 C 193.85 386.89 197.75 386.50 199.98 389.10 C 201.17 393.34 201.69 397.77 202.53 402.10 C 203.36 405.00 200.12 406.60 198.81 408.78 C 196.88 410.68 197.34 413.51 197.42 415.95 C 198.50 428.21 199.19 440.50 200.26 452.77 C 194.46 456.58 189.06 461.01 183.14 464.62 C 156.81 458.54 130.66 451.60 104.33 445.51 C 104.12 444.98 103.71 443.93 103.50 443.40 C 99.57 439.69 96.35 435.32 92.61 431.42 C 91.43 429.83 89.29 428.33 89.71 426.11 C 91.13 414.43 92.29 402.72 93.84 391.06 C 94.00 389.68 93.96 388.32 93.72 386.98 C 92.61 385.02 90.05 383.58 90.44 381.06 C 90.88 377.71 91.16 374.27 92.14 371.03 Z" />
<path fill="#f5e5c1" opacity="1.00" d=" M 70.37 382.65 C 71.87 381.62 73.70 380.87 75.52 381.56 C 78.53 382.52 81.67 383.12 84.59 384.33 C 86.34 386.87 87.75 389.78 87.83 392.93 C 82.46 391.81 77.20 390.25 71.82 389.18 C 70.89 387.12 70.56 384.88 70.37 382.65 Z" />
<path fill="#f5e5c1" opacity="1.00" d=" M 229.45 419.17 C 232.61 412.68 235.42 405.91 239.80 400.11 C 246.15 405.08 255.27 404.33 261.56 409.31 C 262.06 414.21 261.29 419.15 261.16 424.06 C 260.73 428.64 260.80 433.31 259.65 437.80 C 259.41 439.53 257.33 439.51 256.00 439.67 C 249.95 439.68 243.96 438.57 237.90 438.60 C 235.08 438.65 231.19 437.50 231.19 434.07 C 230.65 429.10 229.60 424.16 229.45 419.17 Z" />
<path fill="#f5e5c1" opacity="1.00" d=" M 201.53 415.16 C 207.56 416.47 213.56 417.94 219.54 419.47 C 219.19 421.05 218.85 422.62 218.52 424.21 C 213.14 422.85 207.76 421.49 202.32 420.38 C 202.01 418.65 201.72 416.90 201.53 415.16 Z" />
</svg>
