<?xml version="1.0" encoding="UTF-8" ?>
<!DOCTYPE svg PUBLIC "-//W3C//DTD SVG 1.1//EN" "http://www.w3.org/Graphics/SVG/1.1/DTD/svg11.dtd">
<svg width="512pt" height="512pt" viewBox="0 0 512 512" version="1.1" xmlns="http://www.w3.org/2000/svg">
<path fill="#3e3e3e" opacity="1.00" d=" M 0.00 0.00 L 512.00 0.00 L 512.00 123.24 C 493.11 109.58 472.47 98.48 451.33 88.73 C 446.88 86.77 442.59 84.31 437.85 83.15 C 435.62 83.70 433.68 85.02 431.65 86.05 C 432.82 89.60 433.04 93.68 435.04 96.84 C 444.10 101.64 453.90 105.01 462.84 110.10 C 474.11 115.52 484.83 121.95 495.41 128.59 C 500.95 132.28 506.16 136.48 512.00 139.73 L 512.00 207.53 C 505.69 209.49 499.52 211.98 492.99 213.14 C 487.66 214.09 482.27 214.80 476.98 215.99 C 474.56 216.16 473.56 218.79 473.23 220.85 C 476.35 224.72 480.21 227.93 483.63 231.55 C 493.16 229.63 502.79 227.84 512.00 224.63 L 512.00 377.96 C 494.16 369.35 476.10 361.17 458.19 352.69 C 452.55 350.19 447.12 347.22 441.32 345.13 C 443.58 349.82 444.86 355.59 449.85 358.23 C 463.31 367.38 476.58 376.83 490.07 385.94 C 487.88 385.69 485.69 385.39 483.52 385.10 C 485.62 388.78 484.41 393.03 484.49 397.01 C 485.45 397.93 486.42 398.86 487.39 399.79 C 488.40 399.70 489.41 399.62 490.43 399.55 C 492.17 397.68 493.91 395.80 495.60 393.88 C 498.31 394.83 501.85 395.92 502.73 398.99 C 500.55 401.97 497.65 404.33 495.33 407.19 C 490.92 412.22 487.89 418.41 482.76 422.81 C 479.14 426.26 473.73 428.17 472.29 433.44 C 477.22 432.08 482.02 430.17 487.07 429.33 C 493.26 432.18 499.27 435.47 505.83 437.48 C 506.46 439.90 506.12 442.54 507.06 444.88 C 508.47 446.46 510.35 447.51 512.00 448.83 L 512.00 512.00 L 297.01 512.00 C 307.19 507.88 317.95 505.39 328.14 501.32 C 339.17 495.72 349.97 489.65 360.96 483.96 C 365.89 481.47 369.84 477.55 374.11 474.13 C 384.57 465.58 394.91 456.87 405.49 448.48 C 408.08 446.50 409.33 443.42 410.81 440.64 C 422.68 418.15 434.69 395.74 446.53 373.23 C 442.41 365.01 438.92 356.48 434.93 348.20 C 432.19 342.67 430.21 336.56 425.89 331.99 C 423.15 328.88 418.76 328.55 415.01 327.47 C 408.92 326.16 402.94 324.41 396.93 322.85 C 393.57 322.25 392.44 325.46 392.09 328.15 C 398.64 329.78 405.18 331.50 411.74 333.11 C 414.00 333.73 416.47 334.18 418.23 335.86 C 419.56 343.49 419.30 351.28 419.64 359.00 C 419.65 362.19 420.11 365.63 418.55 368.58 C 405.14 393.54 391.74 418.52 378.39 443.52 C 377.39 445.41 375.83 446.92 374.16 448.22 C 353.33 464.65 332.93 481.60 311.91 497.78 C 307.59 501.40 301.91 502.28 296.67 503.83 C 286.96 506.33 277.47 509.73 267.61 511.58 C 267.64 511.69 267.69 511.90 267.71 512.00 L 267.32 512.00 C 261.96 510.49 256.99 507.84 252.63 504.40 C 245.13 499.56 237.44 495.04 229.89 490.29 C 227.43 491.88 224.99 493.48 222.53 495.07 C 230.88 501.52 239.52 507.81 249.26 512.00 L 161.30 512.00 C 162.77 510.08 164.29 508.16 165.39 506.00 C 163.93 501.82 159.92 499.43 155.92 498.13 C 152.32 502.72 149.03 507.56 145.25 512.00 L 0.00 512.00 L 0.00 0.00 Z" />
<path fill="#f4722b" opacity="1.00" d=" M 116.06 25.20 C 135.97 23.00 156.02 23.39 176.02 23.58 C 180.35 23.72 184.64 24.43 188.98 24.38 C 209.50 25.29 229.84 28.32 250.23 30.68 C 268.29 33.39 286.18 37.12 304.05 40.87 C 318.93 43.38 333.31 48.13 347.95 51.68 C 354.98 53.07 361.73 55.56 368.58 57.63 C 374.58 58.83 377.70 64.53 381.54 68.69 C 380.64 71.12 379.78 73.57 378.96 76.03 C 362.47 71.02 345.88 66.33 329.25 61.82 C 313.44 58.77 297.96 54.26 282.10 51.45 C 253.90 46.61 225.61 41.99 197.03 40.21 C 177.74 38.51 158.36 39.51 139.03 39.26 C 123.23 40.13 107.34 41.48 91.92 45.25 C 79.64 48.45 66.90 51.74 56.72 59.70 C 55.94 57.21 55.33 54.46 53.35 52.59 C 49.40 49.12 42.38 50.24 39.92 54.96 C 37.13 59.97 33.97 64.80 30.22 69.15 C 33.32 56.94 42.71 47.40 53.47 41.42 C 64.04 36.47 74.93 31.93 86.44 29.68 C 96.32 28.26 106.09 26.01 116.06 25.20 Z" />
<path fill="#f4722b" opacity="1.00" d=" M 396.48 49.51 C 399.72 42.78 400.89 35.16 404.50 28.63 C 406.66 36.31 408.60 44.06 411.09 51.64 C 427.12 54.45 443.31 56.46 459.27 59.65 C 446.88 66.92 434.83 74.74 422.46 82.04 C 424.65 92.75 428.08 103.17 430.13 113.91 C 422.99 106.16 415.91 98.35 408.85 90.53 C 397.61 97.24 386.65 104.41 375.31 110.94 C 380.60 96.31 385.53 81.55 390.72 66.89 C 384.97 59.38 378.14 52.78 372.04 45.55 C 380.21 46.69 388.39 47.89 396.48 49.51 Z" />
<path fill="#f4722b" opacity="1.00" d=" M 47.55 58.54 C 49.16 62.46 48.89 66.80 49.50 70.93 C 50.38 76.68 50.46 82.53 51.85 88.20 C 59.02 89.44 66.13 90.98 73.30 92.22 C 71.59 93.56 69.42 93.90 67.40 94.53 C 62.43 95.98 57.55 97.74 52.50 98.91 C 53.95 107.92 54.88 117.00 55.77 126.07 C 47.92 118.53 40.18 110.88 32.25 103.42 C 26.02 105.22 19.85 107.22 13.62 109.02 C 16.60 104.06 20.11 99.45 23.49 94.76 C 19.81 90.91 15.73 87.47 12.12 83.56 C 17.52 84.49 22.98 85.11 28.30 86.43 C 34.97 77.32 41.67 68.18 47.55 58.54 Z" />
<path fill="#f4722b" opacity="1.00" d=" M 431.65 86.05 C 433.68 85.02 435.62 83.70 437.85 83.15 C 442.59 84.31 446.88 86.77 451.33 88.73 C 472.47 98.48 493.11 109.58 512.00 123.24 L 512.00 139.73 C 506.16 136.48 500.95 132.28 495.41 128.59 C 484.83 121.95 474.11 115.52 462.84 110.10 C 453.90 105.01 444.10 101.64 435.04 96.84 C 433.04 93.68 432.82 89.60 431.65 86.05 Z" />
<path fill="#f5e5c1" opacity="1.00" d=" M 266.03 90.64 C 273.04 89.40 279.93 87.22 287.01 86.64 C 309.69 89.83 332.38 93.04 355.04 96.40 C 360.14 97.75 365.66 98.26 370.25 101.04 C 368.88 105.38 365.62 110.15 368.26 114.68 C 371.22 120.08 378.71 119.32 383.15 116.26 C 387.68 121.23 393.07 125.52 396.94 131.04 C 403.02 145.89 409.94 160.45 414.27 175.95 C 414.94 178.28 414.71 180.73 414.47 183.10 C 413.12 192.57 411.57 202.01 410.35 211.50 C 405.49 212.59 400.48 212.47 395.59 213.31 C 397.18 203.56 398.61 193.78 400.17 184.02 C 398.82 177.38 395.98 171.11 394.23 164.55 C 390.40 154.24 385.80 144.22 381.77 133.98 C 380.51 130.07 377.07 127.57 374.41 124.66 C 370.85 121.18 367.60 117.38 363.87 114.10 C 359.41 111.61 354.41 110.25 349.73 108.21 C 342.02 104.53 333.39 103.89 325.19 101.86 C 315.42 100.27 305.87 97.30 295.98 96.51 C 289.61 97.04 283.32 98.29 276.98 99.13 C 269.18 100.13 261.81 103.02 254.28 105.16 C 252.53 105.54 251.12 106.62 249.98 107.95 C 240.48 118.63 231.01 129.33 221.44 139.94 C 223.01 140.95 224.57 142.07 225.43 143.80 C 228.98 149.87 232.91 155.74 236.31 161.89 C 236.78 170.18 237.84 178.44 237.79 186.76 C 234.24 185.93 230.73 184.95 227.28 183.79 C 227.67 172.59 227.18 160.63 221.25 150.76 C 218.95 146.86 214.52 145.06 210.28 144.20 C 215.58 155.28 215.99 167.84 215.20 179.88 C 213.85 179.51 212.50 179.14 211.16 178.77 C 211.38 170.85 211.34 162.77 208.90 155.15 C 207.19 147.08 204.28 138.59 197.86 133.05 C 192.52 131.31 186.47 129.59 180.95 131.64 C 177.43 132.79 173.43 133.07 170.54 135.61 C 167.25 138.30 163.98 140.99 160.67 143.66 C 156.54 146.98 154.35 151.98 150.78 155.80 C 149.21 156.72 147.59 154.74 146.07 154.33 C 153.48 144.15 162.39 134.68 173.75 128.94 C 179.45 126.12 185.84 125.40 192.07 124.76 C 197.86 126.47 202.68 130.37 208.18 132.73 C 209.80 133.53 210.89 131.91 211.91 130.97 C 221.38 121.10 230.87 111.24 240.50 101.53 C 243.40 98.53 247.37 96.99 250.86 94.80 C 255.38 91.88 260.96 91.93 266.03 90.64 Z" />
<path fill="#f4722b" opacity="1.00" d=" M 163.01 96.28 C 173.65 95.07 184.34 95.08 194.98 94.05 C 209.32 93.85 223.67 93.99 238.01 94.13 C 233.24 99.30 228.71 104.75 223.61 109.58 C 215.77 109.96 207.89 109.64 200.04 109.77 C 182.62 110.66 165.17 111.61 147.91 114.33 C 129.73 116.04 112.00 120.91 95.07 127.65 C 89.97 124.09 84.40 121.17 79.78 116.95 C 87.18 112.95 94.94 109.65 102.90 106.93 C 122.63 101.91 142.69 97.87 163.01 96.28 Z" />
<path fill="#f4722b" opacity="1.00" d=" M 62.06 108.72 C 74.96 120.63 89.56 130.62 104.88 139.16 C 134.99 156.58 167.57 169.16 200.36 180.50 C 215.14 184.75 229.59 190.18 244.65 193.42 C 256.37 196.53 268.06 199.74 279.92 202.29 C 301.96 206.30 323.84 211.55 346.17 213.80 C 362.10 215.65 378.02 217.78 394.06 218.50 C 399.82 218.97 405.62 218.77 411.38 219.39 C 412.49 222.08 414.16 224.93 417.13 225.82 C 421.74 227.14 426.31 228.62 430.89 230.06 C 431.40 231.86 431.91 233.66 432.42 235.46 C 427.76 235.55 423.07 235.86 418.42 235.31 C 412.18 234.26 405.81 235.16 399.55 234.22 C 365.00 232.93 330.82 227.09 296.81 221.19 C 277.33 216.74 257.77 212.58 238.49 207.31 C 226.60 203.41 214.33 200.74 202.56 196.46 C 195.72 194.34 189.09 191.58 182.19 189.67 C 172.49 186.17 163.03 182.03 153.35 178.49 C 136.38 171.29 119.67 163.45 103.43 154.71 C 89.73 146.62 75.87 138.55 63.77 128.13 C 63.85 121.63 62.96 115.15 62.06 108.72 Z" />
<path fill="#f4722b" opacity="1.00" d=" M 400.23 117.92 C 412.93 120.85 425.17 125.50 437.54 129.55 C 458.54 137.99 480.42 146.93 496.22 163.75 C 500.30 167.66 502.57 172.90 505.21 177.79 C 506.57 179.96 506.34 182.60 506.44 185.06 C 506.39 188.60 506.80 192.47 504.56 195.49 C 501.40 201.16 497.42 208.39 490.11 208.74 C 486.10 209.29 482.12 209.99 478.16 210.82 C 481.58 205.51 485.01 199.89 485.42 193.42 C 487.39 191.00 489.96 188.84 490.58 185.60 C 492.18 179.55 487.55 174.31 483.64 170.31 C 465.85 155.02 443.33 147.00 421.50 139.39 C 417.53 137.81 413.27 137.13 409.36 135.46 C 405.88 129.87 403.51 123.64 400.23 117.92 Z" />
<path fill="#f4722b" opacity="1.00" d=" M 62.52 134.00 C 67.33 137.12 71.77 140.78 76.63 143.85 C 75.56 150.70 80.40 156.69 85.43 160.71 C 90.52 165.03 96.07 168.81 101.99 171.89 C 110.13 175.96 118.15 180.38 126.85 183.17 C 142.12 189.95 158.43 193.77 174.40 198.50 C 182.59 200.43 190.70 202.83 199.05 204.07 C 207.06 205.39 214.91 207.53 222.93 208.75 C 233.74 210.32 244.03 214.17 254.67 216.53 C 273.77 220.50 292.56 226.08 311.94 228.63 C 322.58 230.58 333.27 232.21 343.96 233.82 C 347.47 234.26 351.01 234.60 354.42 235.59 C 344.29 235.44 334.10 236.18 324.03 234.81 C 289.76 233.59 255.60 229.75 221.84 223.70 C 203.62 221.18 185.82 216.39 167.97 212.03 C 155.34 209.01 143.16 204.44 130.85 200.34 C 121.59 197.26 112.85 192.87 103.90 189.01 C 93.38 183.29 82.68 177.46 74.12 168.93 C 67.11 162.21 60.47 153.26 61.19 143.04 C 61.12 139.97 61.32 136.86 62.52 134.00 Z" />
<path fill="#f5e5c1" opacity="1.00" d=" M 164.60 145.66 C 169.96 141.86 174.99 136.56 181.95 136.15 C 185.82 136.40 190.48 136.57 193.05 139.95 C 197.95 145.07 200.95 151.62 203.92 157.96 C 205.41 164.21 206.83 170.59 206.63 177.05 C 195.84 174.73 185.88 169.68 175.38 166.37 C 171.72 165.20 168.15 163.74 164.65 162.14 C 169.53 158.07 173.74 152.96 179.78 150.56 C 183.48 148.18 187.67 147.04 192.03 146.79 C 189.83 142.11 183.43 138.94 178.67 141.76 C 170.64 145.97 164.20 152.59 159.00 159.93 C 157.64 159.35 156.28 158.78 154.99 158.05 C 157.90 153.72 160.99 149.43 164.60 145.66 Z" />
<path fill="#f5e5c1" opacity="1.00" d=" M 283.17 145.04 C 292.20 141.10 302.12 139.35 311.96 139.54 C 318.88 139.09 325.53 141.31 332.23 142.70 C 336.06 143.66 340.23 144.02 343.50 146.45 C 348.21 149.75 352.93 153.04 357.68 156.29 C 363.30 159.94 367.08 165.64 371.59 170.47 C 373.83 173.12 376.87 175.45 377.62 179.02 C 379.26 185.47 381.74 191.68 383.28 198.16 C 383.75 203.04 384.49 207.90 384.71 212.81 C 382.30 212.67 379.89 212.57 377.48 212.49 C 377.27 195.80 372.21 178.62 360.92 166.03 C 349.02 152.03 330.18 145.10 312.06 145.61 C 285.11 146.52 260.10 164.77 249.97 189.59 C 247.47 189.12 245.00 188.54 242.53 187.94 C 249.55 168.96 264.48 152.93 283.17 145.04 Z" />
<path fill="#f5e5c1" opacity="1.00" d=" M 298.90 153.54 C 311.12 151.46 324.00 154.03 334.68 160.27 C 352.47 170.75 365.23 190.16 365.89 211.02 C 360.21 210.81 354.63 209.64 348.97 209.22 C 325.38 206.97 302.28 201.46 279.02 197.16 C 270.65 195.39 262.41 193.11 254.11 191.07 C 254.73 187.56 256.64 184.51 258.37 181.47 C 266.98 166.90 282.08 156.09 298.90 153.54 Z" />
<path fill="#f5e5c1" opacity="1.00" d=" M 132.40 180.24 C 133.15 178.66 133.90 177.09 134.65 175.52 C 136.06 176.14 137.48 176.77 138.89 177.40 C 138.44 178.95 137.96 180.49 137.48 182.04 C 135.77 181.48 134.08 180.86 132.40 180.24 Z" />
<path fill="#f5e5c1" opacity="1.00" d=" M 142.66 179.33 C 143.95 179.80 145.23 180.28 146.52 180.75 C 146.06 182.08 145.59 183.40 145.15 184.73 C 143.81 184.37 142.47 183.99 141.14 183.61 C 141.63 182.18 142.16 180.76 142.66 179.33 Z" />
<path fill="#f5e5c1" opacity="1.00" d=" M 151.12 186.72 C 151.69 185.61 152.26 184.50 152.83 183.39 C 164.90 187.92 176.60 193.65 189.22 196.58 C 183.34 196.27 177.70 194.36 172.05 192.86 C 165.10 190.71 158.06 188.90 151.12 186.72 Z" />
<path fill="#f4722b" opacity="1.00" d=" M 433.03 195.94 C 436.93 199.89 440.97 203.71 444.88 207.65 C 455.50 203.63 466.29 200.09 476.72 195.60 C 472.91 203.91 467.99 211.67 463.99 219.90 C 463.68 220.91 462.56 222.33 463.72 223.22 C 468.58 228.52 473.89 233.39 478.68 238.74 C 471.51 236.33 464.32 233.96 457.05 231.88 C 453.48 240.08 448.91 247.82 444.37 255.51 C 442.34 244.96 440.36 234.41 438.21 223.89 C 432.17 221.58 425.95 219.79 419.79 217.82 C 424.83 215.08 430.46 213.64 435.82 211.65 C 435.06 206.38 433.67 201.23 433.03 195.94 Z" />
<path fill="#f5e5c1" opacity="1.00" d=" M 125.62 203.98 C 127.38 204.39 129.10 204.91 130.82 205.48 C 128.46 214.79 128.39 224.48 129.06 233.99 C 131.36 242.01 132.63 251.07 138.83 257.20 C 144.51 262.35 153.00 260.59 159.89 259.64 C 164.89 259.70 168.34 255.73 172.19 253.15 C 177.02 249.39 181.02 244.71 185.41 240.46 C 189.54 235.36 192.43 229.39 196.01 223.91 C 197.87 224.21 199.72 224.53 201.57 224.88 C 194.18 238.67 184.80 252.01 171.54 260.71 C 167.40 263.38 162.82 265.50 157.90 266.15 C 161.88 267.92 165.89 269.67 170.02 271.10 C 172.34 272.00 174.82 271.11 176.99 270.23 C 186.19 266.44 193.76 259.58 200.05 252.01 C 206.32 244.63 211.12 236.17 215.49 227.57 C 218.98 228.18 222.50 228.69 225.97 229.43 C 224.18 234.34 223.37 239.80 220.00 243.97 C 215.57 249.94 211.21 255.95 206.87 261.99 C 203.29 267.46 197.08 270.18 192.16 274.21 C 187.53 278.09 181.50 279.37 175.85 281.01 C 171.99 295.64 168.47 310.36 164.70 325.02 C 163.54 329.37 162.94 333.98 160.56 337.91 C 156.80 344.61 153.42 351.53 149.44 358.11 C 154.16 352.71 159.30 347.71 163.95 342.24 C 173.56 342.41 182.99 344.49 192.51 345.62 C 197.27 346.10 201.54 348.33 205.93 350.03 C 211.67 352.31 217.39 354.62 223.08 357.02 C 227.11 358.67 229.80 362.29 233.31 364.74 C 240.94 370.36 247.00 377.71 253.56 384.47 C 254.89 385.86 255.95 387.49 256.70 389.27 C 259.91 396.86 263.26 404.40 266.24 412.09 C 267.57 416.63 267.25 421.42 267.97 426.07 C 269.35 436.67 268.99 447.35 268.27 457.99 C 258.32 466.10 247.89 473.60 237.91 481.66 C 248.13 487.09 256.80 494.79 265.99 501.72 C 272.78 498.15 279.41 494.12 286.87 492.09 C 290.95 490.58 295.65 490.08 298.84 486.85 C 302.61 483.27 306.73 480.07 310.42 476.42 C 323.65 460.65 336.81 444.83 350.02 429.06 C 352.50 426.11 355.17 423.26 356.86 419.77 C 367.29 399.23 377.64 378.65 388.05 358.11 C 390.24 353.58 383.57 349.80 385.57 345.16 C 386.76 341.73 388.25 338.41 389.38 334.97 C 394.89 337.66 399.74 341.62 404.73 345.17 C 403.82 350.88 401.48 356.31 399.59 361.77 C 388.85 380.58 377.56 399.09 366.97 417.99 C 364.43 422.37 362.50 427.20 358.88 430.84 C 344.81 447.49 330.90 464.27 316.91 480.98 C 313.15 485.23 308.47 488.50 304.43 492.46 C 300.54 496.43 294.66 496.78 289.75 498.83 C 283.02 500.67 277.25 504.72 270.98 507.61 C 269.69 508.42 268.47 507.09 267.44 506.48 C 261.55 502.04 255.89 497.28 249.94 492.91 C 243.64 488.81 236.82 485.48 230.98 480.72 C 219.23 485.94 208.39 493.10 196.70 498.46 C 193.81 498.94 190.88 498.07 187.98 498.01 C 182.56 497.36 176.90 497.61 171.82 495.35 C 163.16 491.88 154.30 488.87 145.73 485.20 C 139.09 480.33 132.62 475.03 127.51 468.52 C 123.37 463.47 118.72 458.80 114.88 453.51 C 113.00 447.42 111.34 441.24 109.95 435.01 C 109.48 429.06 109.90 423.07 109.77 417.11 C 105.77 416.73 100.68 419.01 97.73 415.28 C 94.30 411.34 90.46 407.63 88.02 402.95 C 85.15 397.79 82.31 392.63 79.50 387.44 C 75.03 378.50 73.05 368.64 70.07 359.16 C 68.61 351.52 68.68 343.68 68.53 335.93 C 67.76 326.46 70.82 317.31 72.07 308.02 C 72.63 302.79 75.21 298.13 76.79 293.19 C 78.61 287.56 81.10 282.17 82.65 276.46 C 85.32 275.55 88.12 275.09 90.93 274.84 C 111.33 273.46 131.68 271.58 152.08 270.33 C 145.14 265.98 135.76 264.10 131.88 256.10 C 128.00 250.36 126.78 243.51 125.11 236.93 C 122.95 226.05 123.77 214.84 125.62 203.98 Z" />
<path fill="#f5e5c1" opacity="1.00" d=" M 133.85 206.47 C 135.12 206.90 136.39 207.35 137.65 207.79 C 135.03 219.33 135.96 231.59 139.26 242.90 C 140.65 245.91 142.92 248.50 145.26 250.82 C 148.27 251.92 151.61 251.54 154.76 251.93 C 151.09 248.20 149.90 242.80 148.42 237.95 C 145.71 229.04 145.92 219.64 145.66 210.43 C 160.47 215.66 175.86 218.90 191.09 222.60 C 187.90 228.38 184.91 234.45 180.02 239.02 C 175.04 243.73 170.81 249.42 164.64 252.69 C 158.46 256.86 150.62 255.74 143.75 254.34 C 140.24 249.56 136.10 244.85 135.10 238.79 C 132.78 232.08 133.33 224.94 132.54 217.99 C 132.03 214.08 132.95 210.24 133.85 206.47 Z" />
<path fill="#f4722b" opacity="1.00" d=" M 492.99 213.14 C 499.52 211.98 505.69 209.49 512.00 207.53 L 512.00 224.63 C 502.79 227.84 493.16 229.63 483.63 231.55 C 480.21 227.93 476.35 224.72 473.23 220.85 C 473.56 218.79 474.56 216.16 476.98 215.99 C 482.27 214.80 487.66 214.09 492.99 213.14 Z" />
<path fill="#f5e5c1" opacity="1.00" d=" M 239.05 231.48 C 241.43 231.79 243.80 232.22 246.16 232.74 C 245.76 237.39 248.68 241.15 250.66 245.08 C 253.63 250.46 256.14 256.16 260.11 260.91 C 263.44 264.92 265.79 269.98 270.49 272.64 C 276.10 276.14 281.05 280.96 287.59 282.73 C 300.36 287.89 314.82 286.97 327.72 282.78 C 347.71 276.16 364.09 260.12 371.80 240.60 C 375.15 240.49 378.47 239.99 381.79 239.55 C 381.99 244.74 378.34 248.67 376.10 253.00 C 373.55 257.15 371.50 261.62 368.61 265.53 C 364.51 269.79 360.09 273.73 355.90 277.89 C 352.08 281.88 346.63 283.48 341.84 285.96 C 337.03 288.01 332.42 291.24 326.98 291.18 C 322.61 291.18 318.31 292.04 313.97 292.31 C 297.93 293.01 281.73 287.82 269.08 277.94 C 257.38 269.08 248.01 257.05 242.62 243.37 C 240.88 239.60 239.58 235.62 239.05 231.48 Z" />
<path fill="#f5e5c1" opacity="1.00" d=" M 252.93 233.43 C 273.03 236.35 293.28 238.37 313.56 239.17 C 319.07 239.69 324.62 239.48 330.09 240.42 C 340.09 240.63 350.09 240.42 360.09 240.55 C 353.23 255.66 339.78 267.69 323.84 272.45 C 309.10 276.98 292.49 274.74 279.44 266.54 C 267.43 258.74 257.35 247.20 252.93 233.43 Z" />
<path fill="#f5e5c1" opacity="1.00" d=" M 391.68 239.17 C 396.43 238.46 401.18 239.39 405.91 239.75 C 404.07 255.55 401.42 271.26 399.16 287.01 C 398.72 291.10 396.81 294.78 395.41 298.59 C 388.07 317.64 380.70 336.69 373.37 355.75 C 372.82 355.64 371.74 355.41 371.20 355.30 C 374.17 340.34 377.64 325.48 380.81 310.56 C 381.94 304.99 384.14 299.67 385.04 294.05 C 387.09 275.74 389.13 257.42 391.68 239.17 Z" />
<path fill="#3e3e3e" opacity="1.00" d=" M 104.75 280.56 C 123.46 278.46 142.31 277.70 161.05 275.85 C 162.10 276.04 163.12 276.31 164.14 276.66 C 159.86 295.05 156.70 313.70 152.93 332.20 C 152.22 336.58 148.21 339.27 146.18 343.03 C 134.03 362.57 121.90 382.14 109.91 401.78 C 106.39 394.54 105.13 386.52 102.74 378.89 C 99.65 368.50 98.21 357.74 97.25 346.97 C 96.00 339.03 96.42 330.98 96.17 322.97 C 96.04 318.96 96.01 314.91 96.98 310.99 C 99.27 300.78 100.89 290.34 104.75 280.56 Z" />
<path fill="#f5e5c1" opacity="1.00" d=" M 225.61 315.02 C 228.75 303.08 232.14 291.19 235.56 279.32 C 244.04 281.60 252.59 283.59 261.07 285.86 C 263.38 286.56 265.80 286.67 268.21 286.70 C 265.05 294.35 263.50 302.55 261.08 310.46 C 260.01 314.22 258.82 317.95 258.09 321.79 C 247.07 320.73 236.53 316.80 225.61 315.02 Z" />
<path fill="#3e3e3e" opacity="1.00" d=" M 91.72 281.49 C 92.79 281.39 93.86 281.29 94.93 281.20 C 92.95 291.49 90.90 301.78 88.71 312.04 C 86.93 318.88 87.81 326.01 87.40 332.99 C 86.85 341.70 88.73 350.29 90.07 358.84 C 93.15 369.79 95.53 380.92 98.82 391.81 C 100.55 397.58 101.95 403.56 105.06 408.79 C 104.23 409.06 102.56 409.59 101.73 409.85 C 99.30 406.70 97.17 403.33 94.88 400.07 C 91.10 394.96 88.77 388.99 85.73 383.45 C 81.22 375.74 80.19 366.69 77.35 358.34 C 75.98 354.71 76.52 350.78 76.31 347.00 C 75.82 339.31 74.76 331.43 76.67 323.84 C 78.33 316.69 79.00 309.19 82.27 302.52 C 85.51 295.55 88.54 288.49 91.72 281.49 Z" />
<path fill="#f5e5c1" opacity="1.00" d=" M 118.38 315.87 C 129.22 314.54 140.05 313.06 150.85 311.44 C 150.51 318.12 148.87 324.65 147.58 331.20 C 138.20 331.62 128.85 332.76 119.49 333.62 C 119.51 327.68 118.30 321.82 118.38 315.87 Z" />
<path fill="#f5e5c1" opacity="1.00" d=" M 108.47 317.48 C 110.16 317.10 111.84 316.72 113.53 316.35 C 113.53 322.06 114.51 327.72 114.55 333.43 C 113.25 333.87 111.95 334.32 110.64 334.75 C 110.39 328.94 109.17 323.24 108.47 317.48 Z" />
<path fill="#f5e5c1" opacity="1.00" d=" M 103.30 332.07 C 103.76 327.30 101.93 322.37 103.50 317.77 C 103.81 323.16 104.90 328.53 104.70 333.94 C 103.87 336.56 103.20 333.15 103.30 332.07 Z" />
<path fill="#f5e5c1" opacity="1.00" d=" M 223.50 322.14 C 223.88 320.84 224.27 319.55 224.66 318.27 C 235.32 321.20 246.11 323.63 256.75 326.63 C 256.41 327.36 255.71 328.81 255.37 329.53 C 244.83 326.71 233.94 325.32 223.50 322.14 Z" />
<path fill="#f5e5c1" opacity="1.00" d=" M 392.09 328.15 C 392.44 325.46 393.57 322.25 396.93 322.85 C 402.94 324.41 408.92 326.16 415.01 327.47 C 418.76 328.55 423.15 328.88 425.89 331.99 C 430.21 336.56 432.19 342.67 434.93 348.20 C 438.92 356.48 442.41 365.01 446.53 373.23 C 434.69 395.74 422.68 418.15 410.81 440.64 C 409.33 443.42 408.08 446.50 405.49 448.48 C 394.91 456.87 384.57 465.58 374.11 474.13 C 369.84 477.55 365.89 481.47 360.96 483.96 C 349.97 489.65 339.17 495.72 328.14 501.32 C 317.95 505.39 307.19 507.88 297.01 512.00 L 267.71 512.00 C 267.69 511.90 267.64 511.69 267.61 511.58 C 277.47 509.73 286.96 506.33 296.67 503.83 C 301.91 502.28 307.59 501.40 311.91 497.78 C 332.93 481.60 353.33 464.65 374.16 448.22 C 375.83 446.92 377.39 445.41 378.39 443.52 C 391.74 418.52 405.14 393.54 418.55 368.58 C 420.11 365.63 419.65 362.19 419.64 359.00 C 419.30 351.28 419.56 343.49 418.23 335.86 C 416.47 334.18 414.00 333.73 411.74 333.11 C 405.18 331.50 398.64 329.78 392.09 328.15 Z" />
<path fill="#f5e5c1" opacity="1.00" d=" M 219.71 335.17 C 224.49 335.94 229.14 337.36 233.85 338.49 C 239.88 340.06 246.06 341.16 251.85 343.52 C 251.29 345.47 250.72 347.42 250.22 349.38 C 248.87 350.06 247.43 350.64 245.96 349.91 C 236.76 346.99 227.48 344.34 218.38 341.13 C 218.80 339.14 219.26 337.16 219.71 335.17 Z" />
<path fill="#f5e5c1" opacity="1.00" d=" M 297.49 341.71 C 302.65 339.04 308.06 342.07 312.86 344.02 C 317.51 345.59 321.11 349.29 323.69 353.34 C 328.35 362.14 328.48 373.12 324.43 382.18 C 321.03 389.39 313.65 393.21 307.15 397.16 C 303.05 398.27 298.09 398.25 294.66 395.37 C 289.21 391.05 286.76 384.05 285.54 377.42 C 284.84 369.00 284.56 360.10 288.17 352.24 C 290.01 347.87 293.05 343.69 297.49 341.71 Z" />
<path fill="#f5e5c1" opacity="1.00" d=" M 441.32 345.13 C 447.12 347.22 452.55 350.19 458.19 352.69 C 476.10 361.17 494.16 369.35 512.00 377.96 L 512.00 448.83 C 510.35 447.51 508.47 446.46 507.06 444.88 C 506.12 442.54 506.46 439.90 505.83 437.48 C 499.27 435.47 493.26 432.18 487.07 429.33 C 482.02 430.17 477.22 432.08 472.29 433.44 C 473.73 428.17 479.14 426.26 482.76 422.81 C 487.89 418.41 490.92 412.22 495.33 407.19 C 497.65 404.33 500.55 401.97 502.73 398.99 C 501.85 395.92 498.31 394.83 495.60 393.88 C 493.91 395.80 492.17 397.68 490.43 399.55 C 489.41 399.62 488.40 399.70 487.39 399.79 C 486.42 398.86 485.45 397.93 484.49 397.01 C 484.41 393.03 485.62 388.78 483.52 385.10 C 485.69 385.39 487.88 385.69 490.07 385.94 C 476.58 376.83 463.31 367.38 449.85 358.23 C 444.86 355.59 443.58 349.82 441.32 345.13 Z" />
<path fill="#3e3e3e" opacity="1.00" d=" M 295.25 357.39 C 296.63 353.85 298.97 348.30 303.72 349.55 C 303.41 352.12 301.29 354.01 300.53 356.44 C 296.67 366.82 297.81 379.47 305.14 388.09 C 302.80 389.89 299.66 389.54 298.14 386.90 C 292.46 378.33 292.33 366.98 295.25 357.39 Z" />
<path fill="#3e3e3e" opacity="1.00" d=" M 143.91 380.59 C 151.60 370.58 159.83 360.98 167.81 351.19 C 176.07 351.94 184.36 352.49 192.59 353.53 C 197.28 354.87 201.73 356.94 206.36 358.49 C 210.80 360.36 215.78 361.28 219.48 364.57 C 226.48 370.25 233.93 375.39 240.72 381.31 C 244.45 387.41 247.24 394.06 250.65 400.35 C 254.37 406.69 255.46 414.08 257.22 421.10 C 257.68 431.27 258.63 441.45 258.55 451.64 C 254.50 455.01 249.38 457.10 244.92 460.00 C 241.86 461.67 239.04 463.89 235.65 464.88 C 235.66 459.26 235.82 453.64 236.08 448.04 C 235.45 440.67 234.03 433.29 231.49 426.35 C 228.47 421.06 225.59 415.68 222.42 410.48 C 215.85 402.69 207.69 396.33 199.03 391.01 C 192.77 388.07 186.35 385.32 179.73 383.28 C 174.07 382.83 168.66 380.89 162.99 380.54 C 156.62 380.37 150.14 378.36 143.91 380.59 Z" />
<path fill="#3e3e3e" opacity="1.00" d=" M 312.39 354.66 C 315.99 352.81 319.28 356.35 320.51 359.42 C 323.03 365.78 322.95 373.45 319.46 379.44 C 318.02 382.16 313.97 383.95 311.45 381.60 C 307.36 378.43 306.64 372.84 306.67 368.01 C 306.66 363.08 307.91 357.45 312.39 354.66 Z" />
<path fill="#f5e5c1" opacity="1.00" d=" M 203.40 387.45 C 208.92 385.97 210.81 379.62 215.07 376.32 C 217.94 375.72 220.69 377.59 223.28 378.63 C 225.50 379.91 228.38 380.68 229.77 382.99 C 227.01 386.76 223.77 390.15 220.86 393.81 C 219.27 396.14 216.18 394.78 214.09 394.00 C 210.29 392.29 206.02 390.88 203.40 387.45 Z" />
<path fill="#3e3e3e" opacity="1.00" d=" M 146.58 388.28 C 151.42 386.03 156.84 387.74 161.92 387.87 C 167.25 388.78 172.85 388.03 177.97 390.03 C 184.30 392.47 190.74 394.63 197.06 397.10 C 198.90 397.69 200.20 399.18 201.54 400.49 C 206.43 405.60 211.92 410.21 215.72 416.25 C 218.92 421.35 223.84 425.71 224.74 431.94 C 225.54 435.95 226.76 439.90 227.10 443.99 C 226.64 449.63 226.41 455.30 225.73 460.93 C 225.59 464.40 224.71 467.90 225.43 471.36 C 215.13 477.45 204.74 483.39 194.46 489.53 C 191.70 491.52 188.13 490.50 184.99 490.53 C 179.58 489.95 173.82 490.57 168.82 488.00 C 162.95 485.35 156.49 483.72 151.43 479.56 C 146.27 475.43 140.00 472.40 136.28 466.74 C 133.56 462.86 130.40 459.29 127.86 455.29 C 125.30 448.96 123.45 442.35 121.44 435.83 C 120.79 431.26 121.33 426.61 121.32 422.02 C 121.28 416.97 123.40 412.29 124.82 407.55 C 126.33 401.83 131.75 398.65 135.51 394.50 C 138.42 391.23 142.73 390.02 146.58 388.28 Z" />
<path fill="#f5e5c1" opacity="1.00" d=" M 151.12 403.39 C 153.58 402.44 156.17 402.40 158.68 403.19 C 160.11 415.42 160.99 427.72 162.36 439.96 C 163.40 452.48 165.14 464.94 165.75 477.50 C 163.38 477.76 160.99 477.74 158.62 477.41 C 158.50 474.90 158.37 472.38 158.26 469.88 L 157.70 469.11 C 155.81 447.18 153.45 425.29 151.12 403.39 Z" />
<path fill="#f5e5c1" opacity="1.00" d=" M 137.09 406.85 C 138.39 406.48 139.70 406.11 141.00 405.74 C 142.37 406.12 143.73 406.49 145.10 406.87 C 145.31 410.57 145.39 414.31 146.15 417.96 C 147.94 433.79 150.73 449.52 151.84 465.42 C 149.49 465.74 147.12 465.71 144.79 465.28 C 141.89 445.86 140.07 426.27 137.09 406.85 Z" />
<path fill="#f5e5c1" opacity="1.00" d=" M 165.05 406.85 C 167.78 405.77 170.68 405.63 173.46 406.66 C 173.53 409.12 173.64 411.59 173.73 414.06 L 174.30 414.85 C 175.76 435.30 178.35 455.66 179.81 476.12 C 177.40 476.71 174.92 476.72 172.53 476.04 C 170.64 456.35 168.81 436.68 167.16 416.98 C 166.27 413.62 167.16 409.81 165.05 406.85 Z" />
<path fill="#f5e5c1" opacity="1.00" d=" M 179.08 413.88 C 181.55 413.15 184.09 413.13 186.53 413.98 C 187.83 427.32 188.92 440.67 190.34 453.99 C 190.67 461.11 191.95 468.16 191.73 475.32 C 189.32 475.72 186.89 475.57 184.64 474.60 C 183.14 454.34 180.73 434.14 179.08 413.88 Z" />
<path fill="#f5e5c1" opacity="1.00" d=" M 125.58 418.85 C 128.33 417.84 131.24 417.78 134.01 418.76 C 133.05 422.26 134.49 425.74 134.85 429.22 C 136.30 436.96 136.80 444.87 138.47 452.57 C 135.96 453.80 133.23 453.86 130.70 452.66 C 130.13 446.72 128.91 440.87 128.14 434.96 C 127.27 429.59 127.06 424.10 125.58 418.85 Z" />
<path fill="#f5e5c1" opacity="1.00" d=" M 193.55 430.48 C 195.43 426.97 199.60 426.63 203.04 427.83 C 203.74 442.00 205.35 456.09 205.91 470.27 C 203.54 470.54 198.23 471.95 198.56 468.08 C 197.50 455.94 196.75 443.77 195.39 431.67 C 194.93 431.37 194.01 430.78 193.55 430.48 Z" />
<path fill="#f5e5c1" opacity="1.00" d=" M 222.53 495.07 C 224.99 493.48 227.43 491.88 229.89 490.29 C 237.44 495.04 245.13 499.56 252.63 504.40 C 256.99 507.84 261.96 510.49 267.32 512.00 L 249.26 512.00 C 239.52 507.81 230.88 501.52 222.53 495.07 Z" />
<path fill="#f5e5c1" opacity="1.00" d=" M 145.25 512.00 C 149.03 507.56 152.32 502.72 155.92 498.13 C 159.92 499.43 163.93 501.82 165.39 506.00 C 164.29 508.16 162.77 510.08 161.30 512.00 L 145.25 512.00 Z" />
</svg>
