<?xml version="1.0" encoding="UTF-8" ?>
<!DOCTYPE svg PUBLIC "-//W3C//DTD SVG 1.1//EN" "http://www.w3.org/Graphics/SVG/1.1/DTD/svg11.dtd">
<svg width="512pt" height="512pt" viewBox="0 0 512 512" version="1.1" xmlns="http://www.w3.org/2000/svg">
<path fill="#3e3e3e" opacity="1.00" d=" M 0.00 0.00 L 62.78 0.00 C 62.00 1.19 61.25 2.53 61.90 3.98 C 63.61 10.36 65.65 16.66 67.50 23.00 C 65.79 24.56 64.09 26.13 62.38 27.70 C 63.81 46.28 64.86 64.89 66.22 83.47 C 73.47 83.25 80.82 83.88 87.93 82.17 C 94.45 80.68 101.25 80.16 107.42 77.40 C 111.59 75.63 116.02 74.33 119.78 71.72 C 125.47 67.85 131.24 64.08 136.53 59.66 C 134.77 55.02 131.83 50.99 129.28 46.79 C 122.41 35.66 115.49 24.57 108.65 13.42 C 107.72 12.11 106.96 10.52 105.53 9.68 C 103.40 9.06 101.14 9.17 98.94 9.03 C 97.31 6.02 95.83 2.94 94.09 0.00 L 512.00 0.00 L 512.00 111.79 C 509.96 113.39 507.78 114.80 505.59 116.18 C 503.74 114.17 501.74 110.41 498.45 111.62 C 496.00 114.10 494.32 117.48 491.03 119.03 C 485.72 121.48 479.76 121.72 474.05 122.50 C 471.16 122.73 471.07 126.30 470.16 128.37 C 469.26 128.06 467.47 127.43 466.58 127.12 C 464.54 132.06 462.87 137.33 459.41 141.51 C 456.62 143.44 453.59 139.98 450.96 138.95 C 450.52 141.91 450.63 145.23 448.50 147.60 C 444.71 153.03 439.12 156.89 432.81 158.81 C 432.22 162.47 432.17 166.29 430.95 169.81 C 428.64 172.00 425.78 173.55 422.88 174.82 C 392.14 186.41 361.34 197.87 330.60 209.49 C 327.30 210.65 324.35 212.56 321.52 214.58 C 242.80 268.25 163.95 321.72 84.96 374.99 C 82.96 376.49 80.17 377.54 79.42 380.16 C 77.63 385.54 75.72 391.30 77.11 397.01 C 81.13 418.23 89.28 439.10 103.17 455.84 C 108.23 461.78 113.95 467.22 120.44 471.57 C 125.32 474.62 131.37 475.53 137.02 474.95 C 141.63 474.60 144.99 471.14 148.55 468.61 C 229.33 408.03 310.09 347.42 390.88 286.86 C 392.18 285.85 393.40 284.73 394.49 283.49 C 409.08 265.30 423.29 246.82 437.25 228.15 C 442.83 221.02 447.89 213.46 453.75 206.58 C 458.82 205.51 464.08 206.17 469.22 205.62 C 474.64 196.98 484.25 192.56 492.36 186.94 C 493.21 183.22 496.97 181.95 499.87 180.21 C 498.59 177.28 497.54 174.25 496.97 171.10 C 501.97 169.04 506.98 167.00 512.00 165.00 L 512.00 512.00 L 0.00 512.00 L 0.00 0.00 Z" />
<path fill="#f5e5c1" opacity="1.00" d=" M 62.78 0.00 L 80.38 0.00 C 75.39 0.66 71.10 3.51 68.51 7.81 C 71.32 14.37 73.39 21.22 76.23 27.76 C 76.95 30.22 79.98 29.78 81.86 29.16 C 86.67 27.56 91.66 25.80 95.48 22.34 C 96.22 21.62 97.42 20.48 96.60 19.37 C 93.23 12.93 89.76 6.53 86.55 0.00 L 94.09 0.00 C 95.83 2.94 97.31 6.02 98.94 9.03 C 101.14 9.17 103.40 9.06 105.53 9.68 C 106.96 10.52 107.72 12.11 108.65 13.42 C 115.49 24.57 122.41 35.66 129.28 46.79 C 131.83 50.99 134.77 55.02 136.53 59.66 C 131.24 64.08 125.47 67.85 119.78 71.72 C 116.02 74.33 111.59 75.63 107.42 77.40 C 101.25 80.16 94.45 80.68 87.93 82.17 C 80.82 83.88 73.47 83.25 66.22 83.47 C 64.86 64.89 63.81 46.28 62.38 27.70 C 64.09 26.13 65.79 24.56 67.50 23.00 C 65.65 16.66 63.61 10.36 61.90 3.98 C 61.25 2.53 62.00 1.19 62.78 0.00 Z" />
<path fill="#3e3e3e" opacity="1.00" d=" M 80.38 0.00 L 86.55 0.00 C 89.76 6.53 93.23 12.93 96.60 19.37 C 97.42 20.48 96.22 21.62 95.48 22.34 C 91.66 25.80 86.67 27.56 81.86 29.16 C 79.98 29.78 76.95 30.22 76.23 27.76 C 73.39 21.22 71.32 14.37 68.51 7.81 C 71.10 3.51 75.39 0.66 80.38 0.00 Z" />
<path fill="#3e3e3e" opacity="1.00" d=" M 70.28 36.93 C 84.06 36.39 96.90 30.06 107.75 21.89 C 113.57 33.88 120.01 45.57 126.44 57.24 C 122.73 61.32 119.12 65.67 114.02 68.09 C 109.62 71.41 104.27 72.73 99.04 74.09 C 90.27 77.07 80.89 76.81 71.78 77.79 C 71.40 64.16 70.54 50.56 70.28 36.93 Z" />
<path fill="#f5e5c1" opacity="1.00" d=" M 93.26 36.86 C 96.68 34.08 99.86 28.24 104.94 29.84 C 108.34 35.79 110.43 42.43 113.30 48.66 C 114.70 52.26 116.98 55.67 116.79 59.69 C 113.56 60.58 109.58 61.29 106.60 59.41 C 101.88 52.08 97.67 44.40 93.26 36.86 Z" />
<path fill="#f5e5c1" opacity="1.00" d=" M 135.79 44.52 C 149.54 44.19 163.27 44.87 176.98 45.91 C 180.77 46.38 184.35 47.78 187.99 48.86 C 193.49 50.64 199.25 51.85 204.25 54.87 C 209.17 57.83 214.92 59.73 218.85 64.09 C 222.00 68.35 223.49 73.58 224.24 78.77 C 230.45 112.51 236.56 146.28 243.09 179.97 C 243.69 182.97 244.31 186.10 243.40 189.11 C 240.89 199.23 238.87 209.61 234.39 219.10 C 231.40 226.17 228.22 233.17 225.33 240.29 C 224.62 241.50 225.76 242.60 226.33 243.58 C 230.33 249.29 234.32 255.02 238.26 260.78 C 235.62 262.55 233.00 264.34 230.33 266.07 C 226.34 261.24 223.91 253.68 217.04 252.41 C 213.94 253.27 213.39 256.71 212.12 259.19 C 208.86 265.86 205.27 272.36 201.99 279.02 C 201.16 280.78 200.13 282.44 198.89 283.96 C 198.24 280.49 200.04 277.33 200.76 274.04 C 202.62 267.33 203.64 260.27 207.07 254.12 C 209.94 247.70 213.81 241.70 215.69 234.88 C 219.23 224.85 222.97 214.88 226.55 204.86 C 227.93 200.86 230.15 197.17 231.02 193.00 C 231.73 189.33 233.45 185.66 232.52 181.87 C 226.34 148.58 220.24 115.27 214.11 81.97 C 213.33 78.01 213.03 73.76 210.58 70.40 C 208.35 66.60 204.28 64.65 200.79 62.25 C 196.70 59.36 191.74 58.31 187.12 56.59 C 181.29 54.67 175.60 52.16 169.47 51.28 C 163.99 50.44 158.58 48.91 152.99 49.04 C 148.19 49.09 143.39 48.92 138.59 48.70 C 137.66 47.30 136.72 45.91 135.79 44.52 Z" />
<path fill="#f5e5c1" opacity="1.00" d=" M 155.11 70.98 C 159.16 66.81 163.80 63.24 168.15 59.38 C 173.35 63.00 178.36 66.90 183.34 70.82 C 179.60 73.51 176.52 77.10 172.61 79.53 C 168.20 80.38 164.60 76.66 160.67 75.24 C 158.81 73.93 155.39 73.64 155.11 70.98 Z" />
<path fill="#f5e5c1" opacity="1.00" d=" M 38.73 88.70 C 45.13 81.63 52.48 75.52 59.41 68.98 C 59.61 72.33 59.80 75.69 59.99 79.05 C 55.31 85.24 49.34 90.30 44.08 95.99 C 38.66 100.76 36.31 107.77 32.98 113.96 C 31.52 117.21 29.03 120.31 29.39 124.06 C 29.34 127.75 31.31 131.02 32.47 134.42 C 59.47 204.85 86.56 275.24 113.42 345.71 C 110.70 347.52 108.02 349.39 105.22 351.07 C 77.37 278.47 49.33 205.93 21.40 133.36 C 19.85 129.10 17.27 124.47 19.22 119.90 C 21.58 113.69 25.02 107.95 27.81 101.93 C 30.04 96.50 34.96 92.99 38.73 88.70 Z" />
<path fill="#f5e5c1" opacity="1.00" d=" M 146.96 74.87 C 147.73 74.54 149.28 73.89 150.06 73.56 C 155.19 76.10 160.33 78.85 164.90 82.31 C 165.13 82.82 165.58 83.84 165.81 84.34 C 163.36 85.16 160.73 85.06 158.76 83.21 C 155.03 80.18 149.55 79.09 146.96 74.87 Z" />
<path fill="#f5e5c1" opacity="1.00" d=" M 201.78 75.85 C 203.67 74.50 205.94 74.72 207.91 75.74 C 207.10 77.95 204.83 78.83 202.98 79.95 C 191.52 86.35 179.93 92.59 167.92 97.87 C 163.05 98.73 159.29 102.15 154.70 103.78 C 122.08 117.25 87.43 126.93 51.99 128.14 C 46.68 128.47 41.38 127.96 36.08 127.69 C 36.00 126.50 35.93 125.31 35.86 124.12 C 54.98 125.63 74.20 123.29 92.92 119.40 C 131.35 111.20 167.83 95.43 201.78 75.85 Z" />
<path fill="#f5e5c1" opacity="1.00" d=" M 178.50 99.44 C 181.83 99.28 186.09 96.55 188.93 99.00 C 199.34 132.99 209.07 167.21 219.23 201.29 C 217.27 206.24 215.11 211.11 213.02 216.01 C 201.36 177.20 190.17 138.24 178.50 99.44 Z" />
<path fill="#f5e5c1" opacity="1.00" d=" M 170.30 101.76 C 171.64 101.34 172.99 100.92 174.33 100.49 C 186.57 140.97 198.20 181.64 210.35 222.15 C 209.58 224.08 208.78 226.00 207.97 227.92 C 195.35 185.89 182.96 143.78 170.30 101.76 Z" />
<path fill="#f5e5c1" opacity="1.00" d=" M 498.45 111.62 C 501.74 110.41 503.74 114.17 505.59 116.18 C 507.78 114.80 509.96 113.39 512.00 111.79 L 512.00 117.61 C 510.79 118.64 509.55 119.61 508.31 120.60 C 509.66 123.23 510.98 125.88 512.00 128.65 L 512.00 165.00 C 506.98 167.00 501.97 169.04 496.97 171.10 C 497.54 174.25 498.59 177.28 499.87 180.21 C 496.97 181.95 493.21 183.22 492.36 186.94 C 484.25 192.56 474.64 196.98 469.22 205.62 C 464.08 206.17 458.82 205.51 453.75 206.58 C 447.89 213.46 442.83 221.02 437.25 228.15 C 423.29 246.82 409.08 265.30 394.49 283.49 C 393.40 284.73 392.18 285.85 390.88 286.86 C 310.09 347.42 229.33 408.03 148.55 468.61 C 144.99 471.14 141.63 474.60 137.02 474.95 C 131.37 475.53 125.32 474.62 120.44 471.57 C 113.95 467.22 108.23 461.78 103.17 455.84 C 89.28 439.10 81.13 418.23 77.11 397.01 C 75.72 391.30 77.63 385.54 79.42 380.16 C 80.17 377.54 82.96 376.49 84.96 374.99 C 163.95 321.72 242.80 268.25 321.52 214.58 C 324.35 212.56 327.30 210.65 330.60 209.49 C 361.34 197.87 392.14 186.41 422.88 174.82 C 425.78 173.55 428.64 172.00 430.95 169.81 C 432.17 166.29 432.22 162.47 432.81 158.81 C 439.12 156.89 444.71 153.03 448.50 147.60 C 450.63 145.23 450.52 141.91 450.96 138.95 C 453.59 139.98 456.62 143.44 459.41 141.51 C 462.87 137.33 464.54 132.06 466.58 127.12 C 467.47 127.43 469.26 128.06 470.16 128.37 C 471.07 126.30 471.16 122.73 474.05 122.50 C 479.76 121.72 485.72 121.48 491.03 119.03 C 494.32 117.48 496.00 114.10 498.45 111.62 Z" />
<path fill="#3e3e3e" opacity="1.00" d=" M 508.31 120.60 C 509.55 119.61 510.79 118.64 512.00 117.61 L 512.00 128.65 C 510.98 125.88 509.66 123.23 508.31 120.60 Z" />
<path fill="#3e3e3e" opacity="1.00" d=" M 495.56 123.40 C 497.13 122.72 498.45 121.61 499.86 120.64 C 501.70 122.87 503.88 124.89 505.27 127.46 C 507.28 133.15 509.16 138.99 509.33 145.08 C 509.47 150.89 509.18 156.70 509.32 162.51 C 505.47 164.34 501.46 165.79 497.57 167.52 C 494.90 162.43 493.54 156.67 490.13 151.97 C 485.71 145.45 481.40 138.73 475.49 133.43 C 473.59 131.86 475.49 129.29 475.52 127.28 C 482.18 125.93 489.01 125.32 495.56 123.40 Z" />
<path fill="#3e3e3e" opacity="1.00" d=" M 468.98 136.55 C 470.77 136.32 472.82 136.29 473.94 138.00 C 478.79 144.27 484.81 149.91 487.50 157.57 C 490.35 164.83 495.48 171.78 494.86 179.92 C 494.28 181.50 492.13 180.52 490.91 180.44 C 488.48 175.56 485.45 171.02 482.73 166.31 C 479.47 160.98 476.66 155.29 472.38 150.69 C 469.64 148.03 466.37 145.98 463.06 144.11 C 465.90 142.37 467.77 139.59 468.98 136.55 Z" />
<path fill="#f5e5c1" opacity="1.00" d=" M 51.90 168.96 C 63.91 156.85 79.97 148.90 96.84 146.47 C 116.44 143.43 137.11 148.28 153.40 159.56 C 165.94 168.20 175.80 180.72 181.08 195.02 C 186.73 209.97 187.33 226.78 182.78 242.10 C 177.96 258.65 167.32 273.40 153.21 283.29 C 138.37 293.82 119.87 298.88 101.74 297.74 C 101.35 296.87 100.56 295.14 100.17 294.27 C 111.10 294.67 122.22 293.70 132.48 289.69 C 147.68 284.07 160.85 273.22 169.34 259.42 C 178.24 245.11 182.08 227.62 179.58 210.91 C 177.39 195.54 170.11 180.91 159.03 170.00 C 145.91 156.99 127.60 149.18 109.07 149.27 C 88.21 148.85 67.50 158.25 53.76 173.89 C 53.13 172.25 52.52 170.61 51.90 168.96 Z" />
<path fill="#3e3e3e" opacity="1.00" d=" M 451.68 152.76 C 454.37 151.50 456.81 148.93 459.96 149.18 C 472.10 157.64 480.17 170.72 485.67 184.19 C 481.74 188.41 476.76 191.50 472.46 195.32 C 470.44 196.73 468.49 199.39 465.71 198.48 C 464.04 196.38 464.79 193.40 464.14 190.94 C 463.39 184.52 459.51 179.22 456.20 173.89 C 454.00 170.47 450.96 167.66 447.71 165.26 C 444.91 163.49 441.70 162.51 438.85 160.84 C 442.51 157.28 447.45 155.51 451.68 152.76 Z" />
<path fill="#f4722b" opacity="1.00" d=" M 273.60 155.17 C 284.83 157.16 296.06 159.18 307.30 161.16 C 295.40 178.17 283.40 195.11 271.41 212.05 C 272.04 193.08 272.93 174.13 273.60 155.17 Z" />
<path fill="#f4722b" opacity="1.00" d=" M 93.23 172.22 C 98.07 170.86 102.44 168.31 107.06 166.42 C 110.53 178.24 113.95 190.08 117.44 201.90 C 132.76 196.96 147.83 191.24 162.43 184.46 C 165.20 193.96 167.86 203.50 170.47 213.05 C 155.61 218.89 140.51 224.14 125.21 228.73 C 129.13 241.59 132.67 254.56 136.64 267.41 C 133.09 268.42 129.92 270.40 126.39 271.44 C 119.53 273.44 112.60 275.19 105.61 276.68 C 100.69 263.32 95.85 249.93 91.05 236.53 C 86.02 237.30 81.03 238.27 76.00 238.99 C 72.71 230.48 69.44 221.98 66.10 213.49 C 70.74 212.79 75.33 211.86 79.94 211.01 C 76.87 199.95 73.34 189.03 70.38 177.94 C 78.12 176.56 85.67 174.32 93.23 172.22 Z" />
<path fill="#3e3e3e" opacity="1.00" d=" M 429.74 178.73 C 434.66 176.28 438.67 172.37 443.14 169.22 C 450.02 174.96 454.99 182.86 457.54 191.42 C 452.65 194.89 448.48 199.23 445.34 204.35 C 429.49 224.87 413.95 245.64 398.28 266.30 C 394.82 270.48 392.15 275.41 387.96 278.93 C 305.31 341.60 222.66 404.29 140.02 466.97 C 136.95 469.37 133.66 472.92 129.32 471.47 C 123.42 469.39 118.79 464.90 114.21 460.81 C 97.35 444.35 87.76 421.79 83.04 399.02 C 81.80 394.06 81.91 388.70 83.87 383.95 C 85.27 380.97 88.47 379.67 90.99 377.85 C 171.00 323.88 250.99 269.88 331.00 215.90 C 332.40 214.99 333.91 214.26 335.48 213.66 C 366.90 202.04 398.33 190.40 429.74 178.73 Z" />
<path fill="#f5e5c1" opacity="1.00" d=" M 297.85 242.15 C 301.19 239.92 304.54 237.69 307.88 235.46 C 312.57 235.98 317.44 236.83 321.34 239.67 C 325.87 242.75 327.79 248.64 327.06 253.92 C 326.02 262.11 321.87 269.47 317.26 276.16 C 309.19 287.60 299.04 297.40 288.24 306.23 C 272.81 318.75 255.79 329.32 237.69 337.50 C 224.45 343.33 210.52 348.17 196.01 349.30 C 188.90 349.70 181.11 349.21 175.20 344.80 C 170.01 340.85 168.82 333.43 170.68 327.48 C 173.80 324.75 177.55 322.83 180.87 320.35 C 180.25 324.29 179.91 328.91 182.90 332.04 C 187.42 336.98 194.78 336.94 200.97 336.58 C 213.23 335.40 224.95 331.06 236.10 326.01 C 255.15 317.18 272.90 305.51 288.46 291.40 C 296.75 283.62 304.73 275.14 309.90 264.91 C 312.23 260.10 314.05 254.23 311.83 249.07 C 309.29 243.88 303.08 242.55 297.85 242.15 Z" />
<path fill="#f4722b" opacity="1.00" d=" M 32.20 321.62 C 46.21 334.54 60.19 347.50 74.09 360.53 C 57.14 356.09 40.22 351.53 23.26 347.11 C 26.17 338.59 29.27 330.14 32.20 321.62 Z" />
<path fill="#f4722b" opacity="1.00" d=" M 370.73 335.23 C 391.03 332.31 411.46 330.23 431.80 327.57 C 429.36 338.77 426.74 349.93 424.41 361.16 C 406.36 352.86 388.59 343.93 370.73 335.23 Z" />
<path fill="#f5e5c1" opacity="1.00" d=" M 320.88 349.36 C 323.13 347.53 325.45 345.78 327.82 344.10 C 334.20 350.03 343.44 355.22 343.76 365.03 C 342.49 371.34 340.16 377.42 338.34 383.60 C 334.20 393.26 329.62 402.73 325.21 412.27 C 321.92 419.78 315.58 425.26 310.16 431.21 C 303.62 436.99 296.76 442.43 289.95 447.90 C 281.74 453.37 273.86 459.43 264.99 463.84 C 259.17 466.79 253.65 470.39 247.48 472.58 C 238.27 476.04 229.10 479.61 219.90 483.08 C 215.78 484.97 212.22 481.18 209.45 478.64 C 201.23 469.72 194.15 459.82 186.14 450.72 C 188.58 448.85 191.03 447.00 193.45 445.11 C 202.78 454.94 212.44 464.50 221.24 474.80 C 223.42 475.97 225.81 474.69 227.87 473.90 C 235.55 470.52 243.62 468.04 251.00 464.03 C 257.14 460.81 263.48 457.94 269.51 454.54 C 276.27 449.65 282.73 444.36 289.38 439.33 C 293.22 436.20 297.53 433.58 300.73 429.74 C 305.22 424.57 309.90 419.57 314.33 414.35 C 324.52 398.50 331.70 380.88 336.86 362.79 C 331.78 358.03 326.13 353.92 320.88 349.36 Z" />
<path fill="#f5e5c1" opacity="1.00" d=" M 304.38 361.70 C 307.80 359.14 311.14 356.48 314.65 354.06 C 318.78 358.82 323.48 363.07 327.48 367.95 C 326.80 372.37 324.90 376.49 323.89 380.83 C 317.30 374.54 310.94 368.01 304.38 361.70 Z" />
<path fill="#f5e5c1" opacity="1.00" d=" M 296.09 367.92 C 297.72 366.68 299.36 365.45 301.00 364.22 C 308.21 371.39 315.50 378.48 322.66 385.70 C 322.04 388.40 318.84 390.74 316.42 388.48 C 309.49 381.78 302.92 374.72 296.09 367.92 Z" />
<path fill="#f4722b" opacity="1.00" d=" M 12.73 396.55 C 28.15 397.66 43.60 398.39 59.01 399.66 C 43.57 404.33 28.16 409.09 12.73 413.79 C 12.73 408.04 12.73 402.29 12.73 396.55 Z" />
<path fill="#f5e5c1" opacity="1.00" d=" M 330.66 411.70 C 337.92 421.64 344.22 432.26 351.30 442.33 C 339.29 463.19 318.25 478.11 295.07 484.01 C 291.98 485.33 290.57 481.95 288.48 480.51 C 281.86 475.69 275.16 470.99 268.60 466.10 C 270.56 465.14 272.39 463.71 274.56 463.28 C 281.83 468.08 288.90 473.21 296.11 478.11 C 304.37 474.52 312.86 471.33 320.50 466.47 C 325.77 464.05 329.47 459.51 333.69 455.70 C 337.65 452.21 340.13 447.47 343.02 443.13 C 337.74 435.10 332.87 426.80 327.47 418.86 C 328.42 416.42 329.49 414.03 330.66 411.70 Z" />
<path fill="#f5e5c1" opacity="1.00" d=" M 319.34 427.48 C 321.81 426.22 326.21 425.23 327.32 428.69 C 330.08 434.45 333.07 440.11 335.60 445.98 C 334.80 448.96 330.31 452.56 327.64 449.45 C 323.56 444.44 319.43 439.46 315.63 434.24 C 316.86 432.00 317.65 429.43 319.34 427.48 Z" />
</svg>
