<?xml version="1.0" encoding="UTF-8" ?>
<!DOCTYPE svg PUBLIC "-//W3C//DTD SVG 1.1//EN" "http://www.w3.org/Graphics/SVG/1.1/DTD/svg11.dtd">
<svg width="512pt" height="512pt" viewBox="0 0 512 512" version="1.1" xmlns="http://www.w3.org/2000/svg">
<path fill="#3e3e3e" opacity="1.00" d=" M 0.00 0.00 L 512.00 0.00 L 512.00 115.72 C 502.68 105.90 492.31 96.37 479.44 91.57 C 474.52 89.84 469.19 88.89 464.00 89.69 C 460.19 90.87 458.27 95.28 458.71 99.02 C 459.24 101.25 460.93 102.93 462.21 104.76 C 466.71 110.62 469.66 117.49 471.68 124.56 C 459.66 113.99 447.12 103.87 433.23 95.84 C 425.15 91.29 416.42 87.20 407.02 86.69 C 403.29 86.71 399.24 86.95 396.05 89.07 C 392.22 92.18 393.20 98.35 396.44 101.53 C 402.14 107.48 406.07 114.82 409.38 122.30 C 393.19 112.97 376.36 104.16 358.00 100.05 C 348.73 98.11 338.72 97.32 329.70 100.73 C 324.31 103.20 325.34 111.28 330.07 113.90 C 337.35 118.08 344.01 123.35 349.37 129.83 C 333.00 124.20 316.35 118.71 299.02 117.09 C 290.81 116.35 282.02 116.57 274.60 120.55 C 271.27 122.52 267.83 125.17 266.59 128.99 C 266.12 132.91 268.04 137.73 272.12 138.95 C 280.40 141.94 288.01 146.72 294.28 152.91 C 276.63 150.83 258.77 149.18 241.02 150.90 C 231.54 151.97 221.59 153.97 213.99 160.12 C 211.02 162.79 209.18 167.76 211.71 171.31 C 213.42 174.11 217.06 173.90 219.68 175.32 C 222.49 176.82 225.58 177.64 228.63 178.49 C 234.14 180.05 238.82 183.46 243.61 186.46 C 226.85 187.14 209.84 188.52 193.91 194.13 C 184.68 197.46 175.51 202.70 170.34 211.34 C 167.97 214.91 170.23 219.49 173.39 221.70 C 175.56 223.33 178.44 222.59 180.95 222.71 C 188.27 222.40 195.48 224.06 202.41 226.27 C 183.34 231.42 163.79 236.35 146.74 246.69 C 139.18 251.35 131.69 257.89 129.85 266.98 C 129.80 272.04 135.30 275.27 139.90 274.57 C 148.21 273.55 156.62 274.22 164.77 276.00 C 148.83 283.24 133.07 291.38 119.58 302.68 C 111.88 309.34 104.64 317.26 101.47 327.14 C 100.33 330.23 101.58 333.92 104.51 335.49 C 107.49 337.20 111.18 336.52 114.10 335.02 C 121.06 331.75 128.65 330.00 136.30 329.31 C 121.67 339.74 106.99 350.58 95.50 364.53 C 89.94 371.46 84.73 379.77 85.36 389.02 C 85.67 391.96 86.09 395.44 88.74 397.25 C 91.68 399.03 95.77 400.06 98.75 397.79 C 106.12 392.60 114.62 389.20 123.45 387.46 C 111.56 400.42 100.06 413.94 91.20 429.20 C 86.47 437.67 82.16 447.03 82.67 456.96 C 83.00 460.84 85.74 465.27 89.98 465.53 C 93.23 465.66 97.04 466.13 99.68 463.78 C 106.27 458.01 112.89 451.95 121.01 448.40 C 114.59 459.19 108.33 470.15 103.76 481.88 C 99.97 491.46 97.09 501.61 97.24 512.00 L 0.00 512.00 L 0.00 0.00 Z" />
<path fill="#f4722b" opacity="1.00" d=" M 167.60 25.17 C 180.23 24.26 192.84 23.27 205.47 22.34 C 201.32 48.60 197.26 74.86 193.15 101.11 C 192.64 100.06 192.12 99.00 191.76 97.88 C 183.82 73.61 175.50 49.46 167.60 25.17 Z" />
<path fill="#f4722b" opacity="1.00" d=" M 50.95 83.17 C 57.68 74.74 64.08 66.06 70.94 57.74 C 94.55 87.30 118.36 116.71 141.94 146.29 C 111.54 125.36 81.24 104.27 50.95 83.17 Z" />
<path fill="#f5e5c1" opacity="1.00" d=" M 396.05 89.07 C 399.24 86.95 403.29 86.71 407.02 86.69 C 416.42 87.20 425.15 91.29 433.23 95.84 C 447.12 103.87 459.66 113.99 471.68 124.56 C 469.66 117.49 466.71 110.62 462.21 104.76 C 460.93 102.93 459.24 101.25 458.71 99.02 C 458.27 95.28 460.19 90.87 464.00 89.69 C 469.19 88.89 474.52 89.84 479.44 91.57 C 492.31 96.37 502.68 105.90 512.00 115.72 L 512.00 136.75 C 502.67 125.17 492.43 113.77 479.32 106.39 C 484.44 116.41 487.19 127.76 486.31 139.03 C 486.40 144.60 479.02 148.83 474.40 145.59 C 456.08 128.90 437.38 111.44 414.16 101.85 C 420.25 111.85 424.80 122.79 427.54 134.18 C 427.98 136.93 428.43 140.22 426.45 142.50 C 424.50 145.06 420.57 145.70 417.82 144.13 C 397.63 130.65 376.15 117.76 352.09 112.80 C 360.33 120.72 367.51 130.14 371.05 141.13 C 372.36 144.53 370.34 148.59 366.96 149.78 C 363.88 151.16 360.85 149.10 358.03 148.04 C 344.04 142.24 329.68 137.20 314.94 133.66 C 305.98 131.57 296.77 129.88 287.53 130.70 C 295.54 135.69 303.29 141.40 309.03 149.00 C 311.89 152.91 315.38 156.92 315.82 161.96 C 316.27 166.12 312.03 169.93 307.93 168.97 C 293.39 166.46 278.72 164.58 263.96 164.01 C 259.64 163.92 255.05 163.09 250.96 164.95 C 248.06 166.14 245.22 167.47 242.35 168.72 C 253.10 173.04 263.71 178.66 271.52 187.41 C 274.61 190.70 274.45 196.91 270.52 199.50 C 268.68 200.95 266.22 200.52 264.06 200.51 C 247.62 199.79 231.05 200.11 214.80 202.88 C 207.10 204.28 199.35 206.11 192.36 209.76 C 203.51 211.35 214.36 215.76 223.03 223.04 C 227.46 226.20 226.57 234.30 221.49 236.33 C 197.23 241.68 172.06 246.82 150.77 260.29 C 162.22 260.96 173.48 263.62 184.18 267.71 C 186.61 268.72 189.24 269.96 190.56 272.37 C 192.40 275.55 190.99 280.14 187.61 281.62 C 164.90 290.39 141.85 300.43 123.86 317.27 C 135.04 315.06 146.86 314.67 157.84 318.10 C 161.26 318.97 163.54 322.64 162.74 326.10 C 162.44 328.27 160.75 329.85 158.98 330.95 C 145.75 339.10 132.97 348.06 121.12 358.14 C 113.54 364.77 106.15 371.86 100.92 380.56 C 112.57 375.03 125.67 372.08 138.57 373.62 C 141.41 374.09 144.50 375.39 145.66 378.24 C 146.98 380.83 146.11 384.04 144.04 385.96 C 130.58 399.30 117.88 413.51 107.23 429.21 C 104.69 432.57 104.61 436.93 104.04 440.93 C 114.23 436.49 123.67 429.84 134.93 428.34 C 141.30 426.67 147.98 434.77 143.16 440.20 C 135.35 451.01 128.25 462.35 122.23 474.26 C 117.04 484.59 112.58 495.47 111.01 506.99 C 118.70 498.55 128.24 491.50 139.30 488.23 C 144.59 486.38 151.18 492.42 149.00 497.87 C 147.23 502.58 145.36 507.26 143.64 512.00 L 129.16 512.00 C 129.72 510.48 130.23 508.96 130.74 507.43 C 128.88 508.95 127.06 510.52 125.17 512.00 L 97.24 512.00 C 97.09 501.61 99.97 491.46 103.76 481.88 C 108.33 470.15 114.59 459.19 121.01 448.40 C 112.89 451.95 106.27 458.01 99.68 463.78 C 97.04 466.13 93.23 465.66 89.98 465.53 C 85.74 465.27 83.00 460.84 82.67 456.96 C 82.16 447.03 86.47 437.67 91.20 429.20 C 100.06 413.94 111.56 400.42 123.45 387.46 C 114.62 389.20 106.12 392.60 98.75 397.79 C 95.77 400.06 91.68 399.03 88.74 397.25 C 86.09 395.44 85.67 391.96 85.36 389.02 C 84.73 379.77 89.94 371.46 95.50 364.53 C 106.99 350.58 121.67 339.74 136.30 329.31 C 128.65 330.00 121.06 331.75 114.10 335.02 C 111.18 336.52 107.49 337.20 104.51 335.49 C 101.58 333.92 100.33 330.23 101.47 327.14 C 104.64 317.26 111.88 309.34 119.58 302.68 C 133.07 291.38 148.83 283.24 164.77 276.00 C 156.62 274.22 148.21 273.55 139.90 274.57 C 135.30 275.27 129.80 272.04 129.85 266.98 C 131.69 257.89 139.18 251.35 146.74 246.69 C 163.79 236.35 183.34 231.42 202.41 226.27 C 195.48 224.06 188.27 222.40 180.95 222.71 C 178.44 222.59 175.56 223.33 173.39 221.70 C 170.23 219.49 167.97 214.91 170.34 211.34 C 175.51 202.70 184.68 197.46 193.91 194.13 C 209.84 188.52 226.85 187.14 243.61 186.46 C 238.82 183.46 234.14 180.05 228.63 178.49 C 225.58 177.64 222.49 176.82 219.68 175.32 C 217.06 173.90 213.42 174.11 211.71 171.31 C 209.18 167.76 211.02 162.79 213.99 160.12 C 221.59 153.97 231.54 151.97 241.02 150.90 C 258.77 149.18 276.63 150.83 294.28 152.91 C 288.01 146.72 280.40 141.94 272.12 138.95 C 268.04 137.73 266.12 132.91 266.59 128.99 C 267.83 125.17 271.27 122.52 274.60 120.55 C 282.02 116.57 290.81 116.35 299.02 117.09 C 316.35 118.71 333.00 124.20 349.37 129.83 C 344.01 123.35 337.35 118.08 330.07 113.90 C 325.34 111.28 324.31 103.20 329.70 100.73 C 338.72 97.32 348.73 98.11 358.00 100.05 C 376.36 104.16 393.19 112.97 409.38 122.30 C 406.07 114.82 402.14 107.48 396.44 101.53 C 393.20 98.35 392.22 92.18 396.05 89.07 Z" />
<path fill="#3e3e3e" opacity="1.00" d=" M 414.16 101.85 C 437.38 111.44 456.08 128.90 474.40 145.59 C 479.02 148.83 486.40 144.60 486.31 139.03 C 487.19 127.76 484.44 116.41 479.32 106.39 C 492.43 113.77 502.67 125.17 512.00 136.75 L 512.00 266.68 C 470.23 243.69 419.59 237.71 373.52 249.87 C 341.08 258.30 311.01 275.62 287.41 299.43 C 262.11 324.65 244.24 357.23 236.58 392.13 C 227.80 432.05 232.03 474.90 249.33 512.00 L 143.64 512.00 C 145.36 507.26 147.23 502.58 149.00 497.87 C 151.18 492.42 144.59 486.38 139.30 488.23 C 128.24 491.50 118.70 498.55 111.01 506.99 C 112.58 495.47 117.04 484.59 122.23 474.26 C 128.25 462.35 135.35 451.01 143.16 440.20 C 147.98 434.77 141.30 426.67 134.93 428.34 C 123.67 429.84 114.23 436.49 104.04 440.93 C 104.61 436.93 104.69 432.57 107.23 429.21 C 117.88 413.51 130.58 399.30 144.04 385.96 C 146.11 384.04 146.98 380.83 145.66 378.24 C 144.50 375.39 141.41 374.09 138.57 373.62 C 125.67 372.08 112.57 375.03 100.92 380.56 C 106.15 371.86 113.54 364.77 121.12 358.14 C 132.97 348.06 145.75 339.10 158.98 330.95 C 160.75 329.85 162.44 328.27 162.74 326.10 C 163.54 322.64 161.26 318.97 157.84 318.10 C 146.86 314.67 135.04 315.06 123.86 317.27 C 141.85 300.43 164.90 290.39 187.61 281.62 C 190.99 280.14 192.40 275.55 190.56 272.37 C 189.24 269.96 186.61 268.72 184.18 267.71 C 173.48 263.62 162.22 260.96 150.77 260.29 C 172.06 246.82 197.23 241.68 221.49 236.33 C 226.57 234.30 227.46 226.20 223.03 223.04 C 214.36 215.76 203.51 211.35 192.36 209.76 C 199.35 206.11 207.10 204.28 214.80 202.88 C 231.05 200.11 247.62 199.79 264.06 200.51 C 266.22 200.52 268.68 200.95 270.52 199.50 C 274.45 196.91 274.61 190.70 271.52 187.41 C 263.71 178.66 253.10 173.04 242.35 168.72 C 245.22 167.47 248.06 166.14 250.96 164.95 C 255.05 163.09 259.64 163.92 263.96 164.01 C 278.72 164.58 293.39 166.46 307.93 168.97 C 312.03 169.93 316.27 166.12 315.82 161.96 C 315.38 156.92 311.89 152.91 309.03 149.00 C 303.29 141.40 295.54 135.69 287.53 130.70 C 296.77 129.88 305.98 131.57 314.94 133.66 C 329.68 137.20 344.04 142.24 358.03 148.04 C 360.85 149.10 363.88 151.16 366.96 149.78 C 370.34 148.59 372.36 144.53 371.05 141.13 C 367.51 130.14 360.33 120.72 352.09 112.80 C 376.15 117.76 397.63 130.65 417.82 144.13 C 420.57 145.70 424.50 145.06 426.45 142.50 C 428.43 140.22 427.98 136.93 427.54 134.18 C 424.80 122.79 420.25 111.85 414.16 101.85 Z" />
<path fill="#f4722b" opacity="1.00" d=" M 37.61 165.14 C 70.10 175.91 102.52 186.90 135.08 197.46 C 103.38 200.14 71.64 202.43 39.92 204.73 C 39.29 191.53 38.40 178.33 37.61 165.14 Z" />
<path fill="#f5e5c1" opacity="1.00" d=" M 373.52 249.87 C 419.59 237.71 470.23 243.69 512.00 266.68 L 512.00 276.17 C 468.79 250.89 414.88 245.21 367.21 260.29 C 333.75 270.74 303.58 291.27 281.39 318.39 C 261.26 342.87 247.73 372.73 242.73 404.04 C 236.80 440.50 242.19 478.80 258.45 512.00 L 249.33 512.00 C 232.03 474.90 227.80 432.05 236.58 392.13 C 244.24 357.23 262.11 324.65 287.41 299.43 C 311.01 275.62 341.08 258.30 373.52 249.87 Z" />
<path fill="#3e3e3e" opacity="1.00" d=" M 367.21 260.29 C 414.88 245.21 468.79 250.89 512.00 276.17 L 512.00 343.44 C 485.24 315.82 445.06 302.30 406.99 307.13 C 379.72 310.34 353.68 322.84 334.02 342.00 C 312.78 362.47 299.01 390.57 296.13 419.95 C 292.61 452.54 302.24 486.57 323.03 512.00 L 258.45 512.00 C 242.19 478.80 236.80 440.50 242.73 404.04 C 247.73 372.73 261.26 342.87 281.39 318.39 C 303.58 291.27 333.75 270.74 367.21 260.29 Z" />
<path fill="#f5e5c1" opacity="1.00" d=" M 406.99 307.13 C 445.06 302.30 485.24 315.82 512.00 343.44 L 512.00 377.85 C 502.03 361.89 487.85 348.53 471.13 339.86 C 453.39 330.51 432.91 326.49 412.96 328.34 C 389.52 330.32 366.88 340.57 349.92 356.86 C 331.91 373.78 320.28 397.28 317.72 421.85 C 313.94 455.22 327.24 490.17 352.86 512.00 L 323.03 512.00 C 302.24 486.57 292.61 452.54 296.13 419.95 C 299.01 390.57 312.78 362.47 334.02 342.00 C 353.68 322.84 379.72 310.34 406.99 307.13 Z" />
<path fill="#3e3e3e" opacity="1.00" d=" M 349.92 356.86 C 366.88 340.57 389.52 330.32 412.96 328.34 C 432.91 326.49 453.39 330.51 471.13 339.86 C 487.85 348.53 502.03 361.89 512.00 377.85 L 512.00 512.00 L 352.86 512.00 C 327.24 490.17 313.94 455.22 317.72 421.85 C 320.28 397.28 331.91 373.78 349.92 356.86 Z" />
<path fill="#f5e5c1" opacity="1.00" d=" M 414.55 380.72 C 426.86 378.97 439.81 381.97 449.99 389.15 C 462.39 397.64 470.66 411.91 471.80 426.91 C 473.10 440.48 468.74 454.52 459.87 464.90 C 450.63 475.97 436.42 482.80 421.96 482.75 C 406.95 483.08 392.14 475.90 382.72 464.28 C 375.36 455.24 371.06 443.66 371.16 431.97 C 370.77 416.43 378.10 400.95 390.26 391.29 C 397.21 385.67 405.70 381.98 414.55 380.72 Z" />
<path fill="#3e3e3e" opacity="1.00" d=" M 413.53 394.82 C 423.18 392.63 433.71 394.54 441.86 400.19 C 451.13 406.38 457.23 416.93 458.20 428.02 C 459.72 442.67 451.80 457.88 438.71 464.74 C 430.06 469.51 419.38 470.42 410.05 467.19 C 400.69 464.10 392.82 456.99 388.57 448.13 C 383.47 437.76 383.51 425.04 388.66 414.70 C 393.45 404.82 402.79 397.24 413.53 394.82 Z" />
<path fill="#3e3e3e" opacity="1.00" d=" M 125.17 512.00 C 127.06 510.52 128.88 508.95 130.74 507.43 C 130.23 508.96 129.72 510.48 129.16 512.00 L 125.17 512.00 Z" />
</svg>
