<?xml version="1.0" encoding="UTF-8" standalone="no"?>
<svg
   xmlns:dc="http://purl.org/dc/elements/1.1/"
   xmlns:cc="http://creativecommons.org/ns#"
   xmlns:rdf="http://www.w3.org/1999/02/22-rdf-syntax-ns#"
   xmlns:svg="http://www.w3.org/2000/svg"
   xmlns="http://www.w3.org/2000/svg"
   xmlns:sodipodi="http://sodipodi.sourceforge.net/DTD/sodipodi-0.dtd"
   xmlns:inkscape="http://www.inkscape.org/namespaces/inkscape"
   width="1280"
   height="1280"
   viewBox="0 0 1024 1024"
   version="1.1"
   id="svg2"
   inkscape:version="0.48.1 "
   sodipodi:docname="lifetime_kills.svg">
  <metadata
     id="metadata36">
    <rdf:RDF>
      <cc:Work
         rdf:about="">
        <dc:format>image/svg+xml</dc:format>
        <dc:type
           rdf:resource="http://purl.org/dc/dcmitype/StillImage" />
      </cc:Work>
    </rdf:RDF>
  </metadata>
  <defs
     id="defs34" />
  <sodipodi:namedview
     pagecolor="#ffffff"
     bordercolor="#666666"
     borderopacity="1"
     objecttolerance="10"
     gridtolerance="10"
     guidetolerance="10"
     inkscape:pageopacity="0"
     inkscape:pageshadow="2"
     inkscape:window-width="1920"
     inkscape:window-height="1018"
     id="namedview32"
     showgrid="false"
     fit-margin-top="0"
     fit-margin-left="0"
     fit-margin-right="0"
     fit-margin-bottom="0"
     inkscape:zoom="0.6609375"
     inkscape:cx="640"
     inkscape:cy="640"
     inkscape:window-x="-8"
     inkscape:window-y="-8"
     inkscape:window-maximized="1"
     inkscape:current-layer="svg2" />
  <path
     d="m 0,0 1024,0 0,1024 L 0,1024 0,0 z"
     id="path4"
     inkscape:connector-curvature="0"
     style="fill:#3e3e3e" />
  <path
     d="m 316.26,29.5 c 9.68,23.24 20.8,45.84 31.5,68.62 1.48,3.28 3.26,8.42 -0.72,10.72 -5.04,4.48 -13.86,1.92 -14.54,-5.16 -5.8,-24.62 -11.58,-49.3 -16.24,-74.18 z"
     id="path6"
     inkscape:connector-curvature="0"
     style="fill:#f4722b" />
  <path
     d="m 480.88,63.96 c -1.02,-15.78 14.5,-27.88 29.14,-28.88 8.92,-0.64 18.02,5.02 20.82,13.62 2.62,8.32 2.8,17.64 -0.48,25.82 -2.18,4.98 -6.84,8.18 -10.86,11.58 -0.18,1.72 -0.5,5.16 -0.66,6.9 2.2,1.86 4.18,4.2 6.98,5.26 14.98,4 30.66,5.6 45.36,10.56 5.68,5.68 10.54,12.26 17.5,16.56 -0.06,8.98 -0.76,17.92 -1.34,26.88 -22.6,10.02 -45.58,19.16 -68.06,29.42 0.02,105.44 0.02,210.86 0,316.3 -0.68,18.84 2.62,37.56 1.8,56.4 -2.34,3.86 -6.12,7.74 -11.06,7.22 -6.5,1.12 -10.6,-5.74 -10.5,-11.42 0.02,-122.08 0.04,-244.18 0.02,-366.28 0.18,-2.62 -0.32,-6.32 2.8,-7.44 13.02,-6.68 26.74,-11.94 39.8,-18.56 1.94,-1.46 5.3,-2.92 4.68,-5.9 0.64,-3.8 -3.74,-5.62 -6.58,-6.76 -13.48,-4.46 -27.3,-7.86 -40.68,-12.6 -0.04,-15.8 0.04,-31.6 -0.04,-47.4 -8.88,-3.86 -18.16,-10.72 -18.64,-21.28 z"
     id="path8"
     inkscape:connector-curvature="0"
     style="fill:#f5e5c1" />
  <path
     d="m 741.82,41.76 c 2.66,-3.28 6.7,-4.68 10.64,-5.82 -12.22,23.34 -28.16,44.56 -41.5,67.26 -2.56,3.02 -4.14,9 -9.06,8.14 -5.36,-0.44 -8.66,-6.52 -8.44,-11.42 1.56,-5.82 6.7,-9.54 10.5,-13.88 13.06,-14.38 24.78,-29.92 37.86,-44.28 z"
     id="path10"
     inkscape:connector-curvature="0"
     style="fill:#f4722b" />
  <path
     d="m 809.7,183.64 c 41.94,-44.6 84.9,-88.28 126.34,-133.34 -34.62,44.04 -68.5,88.64 -102.94,132.8 -6.6,8.32 -12.36,17.42 -20.46,24.4 -2.4,-1.14 -4.8,-2.28 -7.18,-3.38 -4.1,-7.12 -1.38,-15.14 4.24,-20.48 z"
     id="path12"
     inkscape:connector-curvature="0"
     style="fill:#f4722b" />
  <path
     d="m 115.96,58.06 c 38.7,48.96 77.32,98.04 116.6,146.56 -1.68,5.22 -6.88,9.64 -12.64,7.76 -8.04,-3.14 -11.62,-11.76 -16.2,-18.44 C 174.54,148.6 145.2,103.36 115.96,58.06 z"
     id="path14"
     inkscape:connector-curvature="0"
     style="fill:#f4722b" />
  <path
     d="m 377.2,88.2 c -1.82,-19.78 22.16,-35.18 39.88,-27.78 12.16,6.14 13.76,22.2 10.74,34.06 -1.5,9.38 -13.48,12.14 -13.44,22.1 6,6.58 15.26,6.94 23.24,9.44 20.18,5.9 40.26,12.1 60.4,18.2 9.12,3.02 18.66,4.92 27.3,9.28 -26.72,11.92 -53.18,24.44 -79.8,36.6 -10.1,4.92 -20.98,8.48 -30.12,15.18 0.16,6.62 0.16,13.24 0.16,19.88 -6.34,-2.06 -12.72,-4.02 -19.06,-6.06 0.14,-36.6 -0.12,-73.2 0.12,-109.78 C 388.14,104.7 378.5,98.74 377.2,88.2 z"
     id="path16"
     inkscape:connector-curvature="0"
     style="fill:#f5e5c1" />
  <path
     d="m 579.7,95.38 c 0.24,-15.78 15.52,-27.28 30.4,-27.9 6.6,0.32 13.72,2.96 17.3,8.86 5.1,8.12 4.7,18.4 3.08,27.48 -1.3,6.52 -6.66,10.9 -11.96,14.28 0.52,4.14 1.46,8.22 2.82,12.16 21.54,5.32 43.22,10.06 64.84,15.08 -3.7,6.64 -7.66,13.36 -9.28,20.88 -1.02,7.46 -0.12,15.02 0.56,22.48 -19.6,8.26 -39.18,16.6 -58.7,25.08 -0.2,119.44 -0.02,238.88 -0.08,358.32 28.74,5.52 56.6,14.48 84.02,24.6 0.02,-91.58 0,-183.14 0.02,-274.7 -0.48,-40.7 0.86,-81.38 0.26,-122.08 -6.6,-3.78 -13.94,-8.16 -16.16,-15.98 -2.7,-13 5.7,-25.74 16.24,-32.6 11.3,-5.5 26.5,0.42 31.22,12.06 0.86,8.52 2.16,17.66 -1.4,25.76 -2.28,5.46 -8.02,8.08 -11.42,12.68 -1.08,4.2 1.96,7.54 3.86,10.9 42.28,9.44 84.56,18.92 126.68,29.06 -7.48,2.64 -15.08,4.92 -22.34,8.1 -35.7,15.26 -71.42,30.42 -107.1,45.74 -0.26,103.52 -0.04,207.02 -0.1,310.54 18.52,9.84 37.14,20.44 52.26,35.08 1.26,13.32 0.08,26.78 0.54,40.16 -35.26,0.02 -70.5,0.18 -105.76,-0.08 -20.68,-25.58 -52.56,-38.34 -83.58,-46.28 -0.22,-22.62 -0.42,-45.22 -0.68,-67.84 4.56,0.62 9.12,1.18 13.7,1.72 0.16,-144.32 -0.38,-288.66 0.36,-432.98 -0.06,-5.62 0.5,-11.3 -0.52,-16.86 -7.86,-6.46 -17.58,-12.68 -19.08,-23.72 z"
     id="path18"
     inkscape:connector-curvature="0"
     style="fill:#f5e5c1" />
  <path
     d="m 275.4,176.1 c -2.82,-16.44 13.28,-30.16 28.6,-31.14 8.04,-0.62 16.5,3.56 19.92,11.06 3.82,8.4 4.18,18.46 1.1,27.16 -1.88,5.6 -6.92,9.12 -11.26,12.74 -0.3,1.76 -0.88,5.28 -1.16,7.04 2.16,1.86 4.08,4.2 6.8,5.32 35.18,9.58 70,20.52 104.8,31.4 -27.16,12.16 -54.1,24.82 -81.16,37.22 -10,4.64 -20.4,8.56 -29.64,14.64 0.16,20.86 -0.02,41.7 0.08,62.56 -6.32,-1.74 -12.62,-3.6 -18.9,-5.5 -0.18,-50.98 -0.08,-101.94 -0.04,-152.9 -8.38,-4.06 -17.38,-9.64 -19.14,-19.6 z"
     id="path20"
     inkscape:connector-curvature="0"
     style="fill:#f5e5c1" />
  <path
     d="m 396.92,264.82 c 5.88,-3.58 12.36,-6 18.6,-8.86 -0.02,106.08 0.04,212.16 -0.02,318.26 17.38,-2.24 34.58,-5.74 52,-7.82 -1.68,22.86 -2.78,45.76 -4.06,68.66 -31.94,7.86 -64.22,21.02 -86.36,46.32 -39.36,0.14 -78.7,0.12 -118.06,0 0.08,-10.46 0,-20.9 0.12,-31.36 10.82,-10.82 23.7,-19.1 35.56,-28.64 -0.5,-68.7 -0.08,-137.42 -0.18,-206.12 6.32,-2.94 12.64,-5.92 18.92,-8.98 0.02,68.34 0.08,136.7 -0.02,205.06 26.32,-14.02 54.66,-23.64 83.18,-32.04 -0.2,-102.44 0.08,-204.86 -0.12,-307.3 -0.06,-2.42 0.1,-4.8 0.44,-7.18 z"
     id="path22"
     inkscape:connector-curvature="0"
     style="fill:#f5e5c1" />
  <path
     d="m 943.8,267.68 c 4.28,-3.86 9,-7.18 13.96,-10.12 -24.98,28.92 -51.16,56.74 -76.36,85.46 -4.64,-2.78 -8.16,-7.64 -6.1,-13.28 3.94,-6.72 10.56,-11.18 16.24,-16.28 17.38,-15.3 34.94,-30.42 52.26,-45.78 z"
     id="path24"
     inkscape:connector-curvature="0"
     style="fill:#f4722b" />
  <path
     d="m 221.52,284.38 c 9.18,-3.5 21.38,-1.78 26.92,7.06 7.98,13.76 5.56,34.52 -9.52,42.44 0.44,3.58 -0.9,8.3 3,10.34 6.82,3.8 14.92,4.4 22.24,6.94 28.68,8.7 57.52,16.98 85.98,26.42 -25.2,10.5 -49.64,22.72 -74.58,33.84 -12.08,6.08 -25.1,10.4 -36.46,17.88 0.52,84.28 -0.1,168.58 0.32,252.86 -0.72,22.44 1.28,45.02 -1.82,67.34 3.1,10.56 -3.24,23.52 5.14,32.24 4.18,-0.68 8.9,-2.48 9.62,-7.28 0.92,-7.98 0.56,-16.02 0.8,-24.04 39.12,-0.08 78.24,-0.2 117.34,0.06 18.66,28.68 51.74,43.2 83.56,52.1 -2.08,34.42 -3.82,68.86 -6,103.28 -24.24,-2.08 -48.02,-7.88 -71.36,-14.54 -45.72,-13.86 -90.84,-34.78 -124.5,-69.5 -8.66,-8.82 -15.4,-19.2 -22.62,-29.16 0.06,15.1 1.84,30.14 1.62,45.24 0.44,4.9 -0.84,10.54 2.44,14.7 4.22,5.78 7.6,12.06 11.28,18.18 16.84,22.68 38.98,41.18 63.82,54.56 11.26,6.28 22.86,11.88 34.58,17.18 84.2,31.08 176.44,38.8 264.94,24.78 22.26,-3.68 44.4,-8.56 65.84,-15.62 11.46,-4.86 23.64,-7.8 34.96,-13.02 31.2,-13.62 61.04,-32.32 82.76,-58.94 4.96,-6.48 9.52,-13.24 14.84,-19.42 -0.38,-23.7 0.46,-47.42 1.96,-71.06 -19,30.96 -47.9,54.58 -79.48,71.9 -43.68,23.58 -92.1,37.38 -141.06,44.62 -0.44,-34.38 -0.46,-68.78 -1,-103.16 32.42,-9.14 66.24,-23.46 86.02,-52.14 35.32,-0.26 70.64,-0.04 105.96,-0.1 0.14,10.24 -1.04,20.52 0.08,30.74 1.16,5.54 7.52,3.98 11.68,4.34 3.7,-8.7 2.28,-18.24 2.66,-27.4 -0.04,-6.74 1.4,-13.4 0.84,-20.12 -1.94,-18.9 0,-37.92 -1.12,-56.86 -0.68,-10.36 0.06,-20.72 0.32,-31.06 0,-61.96 0,-123.92 0,-185.9 0.34,-22.66 -0.9,-45.38 1,-67.98 0.28,-16.18 0.12,-32.38 0.18,-48.54 -7.4,-4.7 -16.12,-9.96 -17.4,-19.5 -0.98,-17.74 16.42,-36.08 34.8,-30.54 19.32,8.5 19.64,40.5 0.96,50 -0.1,1.78 -0.3,5.34 -0.4,7.12 2.38,2.14 4.32,5.28 7.7,5.92 40.82,8.96 81.52,18.5 122.28,27.84 -29.58,11.12 -58.32,24.34 -87.48,36.48 -13.92,6.3 -28.3,11.5 -41.96,18.38 0.14,98.9 0.02,197.82 0.08,296.72 3.06,23.84 2.16,47.98 2.4,71.96 -0.18,16.5 0.3,33.06 -1.1,49.52 -2.16,2.18 -4.24,4.48 -5.56,7.3 -13.02,26.9 -36.68,46.98 -61.74,62.38 -41.9,26.44 -90.54,39.96 -139.1,47.68 C 526.32,991.7 441.22,987.66 361.78,963.4 317.3,949.2 272.86,928.12 242,891.98 c -7.54,-8.9 -13.5,-19.06 -17.86,-29.88 -2.24,-6.06 -6.72,-11.46 -6.82,-18.16 -0.68,-17.34 -0.72,-34.7 -1.36,-52.02 1.3,-15.94 -1.38,-32.36 3.64,-47.82 -0.06,-86.68 -0.04,-173.38 0,-260.08 -0.04,-41.98 -0.08,-83.96 0,-125.94 0.02,-8.58 0.1,-17.18 -0.34,-25.76 -8.94,-3.18 -17.36,-10.26 -18.34,-20.24 -1.4,-12.82 9.2,-23.74 20.6,-27.7 z"
     id="path26"
     inkscape:connector-curvature="0"
     style="fill:#f5e5c1" />
  <path
     d="m 90,316.1 c 15.82,4.8 30.72,12.14 46.14,18.08 19.78,8.48 40.16,15.62 59.56,25.02 -1.76,2.68 -3.54,5.36 -5.3,8.06 -4.56,0 -9.48,0.68 -13.58,-1.8 C 155.72,353.8 134.34,342.62 113.22,331 105.28,326.36 95.46,324.12 90,316.1 z"
     id="path28"
     inkscape:connector-curvature="0"
     style="fill:#f4722b" />
  <path
     d="m 501.22,649.96 c 33.86,-3.34 69.68,0.42 99.88,17.08 13.72,7.78 27.5,20.06 28.8,36.8 1.48,14.86 -8.7,27.6 -19.94,36 -19.12,13.86 -42.66,20.14 -65.82,22.86 -31.98,3.14 -65.44,-0.24 -94.6,-14.44 -14.44,-7.32 -29.02,-18.4 -33.14,-34.86 -3.4,-13.88 4.06,-27.84 14.5,-36.62 19.42,-16.82 45.3,-23.78 70.32,-26.82 z"
     id="path30"
     inkscape:connector-curvature="0"
     style="fill:#f4722b" />
</svg>
