<?xml version="1.0" encoding="UTF-8" ?>
<!DOCTYPE svg PUBLIC "-//W3C//DTD SVG 1.1//EN" "http://www.w3.org/Graphics/SVG/1.1/DTD/svg11.dtd">
<svg width="516pt" height="514pt" viewBox="0 0 516 514" version="1.1" xmlns="http://www.w3.org/2000/svg">
<path fill="#3e3e3e" opacity="1.00" d=" M 0.00 0.00 L 516.00 0.00 L 516.00 514.00 L 0.00 514.00 L 0.00 0.00 Z" />
<path fill="#8a4018" opacity="1.00" d=" M 297.56 51.58 C 299.84 49.74 302.60 46.89 305.81 48.30 C 310.19 50.31 314.32 52.86 318.87 54.52 C 315.84 58.00 312.53 61.51 311.23 66.05 C 309.62 71.39 308.89 77.13 305.78 81.90 C 303.43 85.50 301.16 89.18 298.37 92.46 C 296.05 95.07 292.23 94.87 289.07 94.59 C 283.35 93.99 277.64 93.36 271.91 92.88 C 274.20 89.46 276.66 86.14 278.55 82.48 C 281.44 77.10 281.18 70.60 284.36 65.34 C 287.63 59.80 292.88 55.87 297.56 51.58 Z" />
<path fill="#f0702b" opacity="1.00" d=" M 326.62 56.61 C 330.35 53.62 333.48 49.65 337.94 47.73 C 338.47 47.74 339.53 47.76 340.06 47.77 C 344.81 49.81 349.21 52.64 354.07 54.47 C 350.99 57.91 347.57 61.37 346.29 65.94 C 344.62 71.53 343.87 77.55 340.46 82.47 C 337.85 86.11 335.70 90.23 332.41 93.32 C 327.84 95.30 322.93 96.74 317.98 97.30 C 313.72 96.22 309.44 95.12 305.01 95.11 C 309.64 88.66 314.91 82.17 316.13 74.06 C 317.21 67.10 321.26 61.04 326.62 56.61 Z" />
<path fill="#f5e5c1" opacity="1.00" d=" M 367.99 51.00 C 369.97 49.35 372.23 47.11 375.07 47.74 C 376.53 48.23 377.85 49.03 379.20 49.77 C 389.11 55.61 401.20 57.29 410.03 65.01 C 412.79 67.58 410.80 71.41 408.79 73.74 C 406.43 76.42 405.20 79.79 404.46 83.23 C 409.16 87.63 415.43 90.31 419.07 95.78 C 414.65 98.00 410.26 100.29 405.93 102.68 C 402.32 100.80 399.14 97.80 395.03 97.09 C 391.64 96.19 391.93 100.81 391.66 102.97 C 391.12 106.11 393.83 109.37 392.32 112.29 C 390.44 113.56 387.98 112.97 385.85 113.21 C 382.14 118.40 377.97 124.08 371.96 126.61 C 365.01 124.80 359.40 117.18 351.48 119.52 C 351.53 120.89 351.58 122.27 351.64 123.64 C 354.18 125.30 356.30 127.46 358.41 129.61 C 367.51 137.51 376.73 145.44 384.19 154.97 C 386.20 157.11 382.79 159.41 383.35 161.79 C 383.42 165.23 386.74 166.99 388.07 169.84 C 389.21 172.28 390.72 174.52 392.53 176.52 C 395.47 179.74 397.58 183.57 399.91 187.23 C 400.90 189.07 403.04 189.64 404.78 190.53 C 409.18 187.53 413.66 184.59 418.52 182.40 C 426.31 178.96 433.44 174.23 440.45 169.43 C 443.16 167.58 446.10 164.62 445.45 161.04 C 444.26 155.74 443.08 150.39 442.66 144.98 C 444.43 140.63 446.52 136.40 448.74 132.27 C 450.51 132.43 453.06 132.14 453.59 134.39 C 453.85 137.91 452.50 141.61 454.61 144.83 C 456.32 143.48 458.27 142.39 459.73 140.76 C 461.85 137.04 462.60 132.63 465.15 129.14 C 465.85 127.61 467.67 128.10 469.01 128.10 C 472.03 128.46 474.83 129.75 477.73 130.61 C 477.79 130.97 477.90 131.70 477.96 132.06 C 478.41 131.80 479.31 131.28 479.76 131.02 C 482.53 134.53 485.57 139.09 483.77 143.71 C 481.14 147.42 478.15 150.89 476.05 154.96 C 471.09 164.33 462.00 170.41 455.98 178.99 C 450.82 186.20 443.14 190.85 436.82 196.89 C 433.85 199.76 430.15 201.65 426.64 203.74 C 421.69 207.02 417.84 211.68 412.84 214.90 C 409.13 217.44 405.50 222.14 400.49 220.89 L 399.17 219.23 C 399.11 219.75 399.00 220.78 398.94 221.29 C 394.50 217.74 390.36 213.81 385.84 210.35 C 379.12 206.46 375.79 199.01 369.89 194.17 C 365.88 191.06 363.09 186.79 360.34 182.61 C 358.44 181.95 356.37 181.61 354.68 180.48 C 351.93 178.43 350.88 175.04 349.31 172.15 C 344.94 171.90 341.89 175.30 338.53 177.50 C 333.90 180.59 329.23 183.62 324.62 186.74 C 322.32 188.34 321.52 191.16 320.39 193.57 C 317.14 200.28 314.60 207.32 311.07 213.89 C 309.08 219.95 305.06 225.39 304.68 231.93 C 304.10 238.39 302.88 245.97 307.50 251.31 C 325.27 266.04 343.66 279.99 361.46 294.70 C 366.95 299.19 374.09 303.21 375.20 310.93 C 374.97 315.73 374.46 320.82 371.94 325.04 C 369.67 328.90 369.62 333.60 367.46 337.51 C 365.16 341.72 363.90 346.41 361.56 350.61 C 358.56 355.49 361.44 361.51 359.85 366.69 C 357.44 369.71 353.89 371.49 350.67 373.49 C 345.92 376.16 340.92 371.22 336.01 372.80 C 328.21 389.34 318.18 404.74 310.26 421.24 C 308.78 424.47 305.41 427.05 305.87 430.94 C 306.06 434.91 306.53 439.51 309.79 442.26 C 312.59 444.59 315.77 446.41 318.87 448.32 C 321.52 450.22 324.95 449.93 327.92 451.02 C 331.23 452.21 334.72 453.73 336.66 456.85 C 335.72 458.13 334.79 459.42 333.84 460.70 C 321.35 458.83 308.22 462.39 296.14 457.90 C 292.23 454.76 289.44 450.44 286.37 446.51 C 282.56 440.51 277.04 435.86 273.13 429.94 C 277.37 424.06 282.00 418.12 288.44 414.53 C 291.05 413.18 293.05 410.76 293.80 407.92 C 295.03 402.30 297.65 397.12 298.67 391.45 C 301.12 383.85 304.17 376.39 305.39 368.48 C 305.85 366.67 306.96 364.74 305.95 362.91 C 304.06 358.40 301.38 354.02 301.11 349.02 C 300.96 347.70 302.35 346.98 303.09 346.12 C 306.72 342.73 311.18 340.23 314.34 336.36 C 317.23 332.03 319.19 327.19 321.67 322.63 C 315.57 317.43 307.23 316.03 299.83 313.46 C 292.76 310.51 285.93 306.98 278.66 304.51 C 274.55 302.95 270.12 304.11 265.90 304.47 C 261.73 304.73 258.07 307.81 256.48 311.58 C 253.91 316.67 253.44 322.53 250.64 327.54 C 247.20 336.79 243.99 346.14 240.35 355.33 C 238.98 358.62 238.54 362.43 236.16 365.21 C 233.13 367.66 229.51 369.23 226.08 371.03 C 219.23 375.22 213.04 380.66 205.41 383.44 C 200.89 384.74 196.14 385.09 191.71 386.73 C 187.58 387.86 184.98 391.51 181.83 394.15 C 181.46 393.88 180.73 393.36 180.36 393.09 C 177.90 394.25 175.23 394.74 172.53 394.39 C 172.27 394.47 171.74 394.62 171.48 394.70 C 169.07 392.74 166.26 391.21 164.34 388.72 C 163.23 387.57 162.19 385.49 160.24 386.28 C 155.17 387.78 150.74 390.79 146.01 393.06 C 142.01 395.25 137.33 396.64 134.27 400.21 C 130.74 405.01 128.58 410.63 126.68 416.24 C 124.84 423.44 128.43 430.39 130.45 437.14 C 131.25 441.34 136.37 443.25 135.64 447.97 C 134.19 450.59 132.68 453.20 131.11 455.77 C 131.16 454.96 131.26 453.36 131.31 452.56 C 130.01 452.18 128.70 451.80 127.41 451.40 C 127.17 451.57 126.67 451.91 126.43 452.08 C 123.29 449.79 119.47 448.19 117.21 444.89 C 113.13 438.98 110.45 432.29 107.00 426.03 C 104.26 419.82 100.78 413.96 98.13 407.72 C 94.19 402.66 91.67 396.69 88.91 390.96 C 91.21 388.11 95.08 386.81 98.19 384.90 C 104.56 381.05 113.01 384.78 119.02 380.12 C 130.78 372.40 142.69 364.91 154.61 357.44 C 160.42 354.65 160.57 347.33 164.16 342.62 C 174.41 342.00 184.48 339.70 194.76 339.56 C 195.49 338.43 196.24 337.30 196.84 336.09 C 201.35 324.01 207.62 312.70 212.63 300.83 C 216.04 292.74 221.31 285.17 222.10 276.21 C 223.20 266.43 224.76 256.72 226.04 246.97 C 226.97 241.19 227.15 235.27 228.89 229.64 C 225.80 232.11 222.30 235.35 217.99 234.42 C 213.12 229.44 208.61 224.03 204.75 218.22 C 201.74 213.94 200.48 208.77 197.98 204.23 C 197.24 202.60 195.87 201.04 196.27 199.13 C 196.71 193.35 199.30 188.12 201.74 182.98 C 210.29 177.76 219.91 174.74 229.14 170.97 C 234.13 169.03 239.10 166.84 244.48 166.23 C 249.66 156.96 255.79 148.27 261.94 139.62 C 262.77 138.06 263.07 136.28 263.59 134.61 C 259.42 133.63 255.18 134.52 250.98 134.59 C 242.00 134.76 232.59 134.64 224.13 138.00 C 219.33 142.37 216.71 148.59 212.49 153.46 C 209.75 156.43 205.92 158.19 203.46 161.45 C 201.90 163.51 200.46 165.75 198.21 167.15 C 191.04 171.89 183.93 176.79 177.54 182.58 C 174.68 184.85 175.62 188.82 175.01 191.97 C 172.79 198.07 168.39 203.15 166.44 209.38 C 165.54 211.67 165.16 214.12 164.35 216.44 C 163.63 217.49 160.55 217.75 160.73 215.95 C 160.50 212.02 164.85 208.96 164.37 204.93 C 162.69 201.71 158.03 202.55 156.55 205.54 C 152.23 209.56 148.21 213.97 143.34 217.37 C 141.48 218.81 139.03 218.68 136.81 218.72 C 134.99 216.61 133.10 214.56 131.15 212.58 C 131.64 208.38 128.89 203.08 132.73 199.92 C 138.22 196.15 143.67 192.04 147.30 186.34 C 151.49 179.95 160.27 178.77 163.99 172.03 C 167.37 167.04 171.46 162.54 174.44 157.29 C 183.12 143.36 192.61 129.79 204.43 118.33 C 207.90 115.17 213.01 116.11 217.12 114.34 C 221.86 112.49 227.00 112.29 231.89 111.04 C 238.46 109.33 245.26 108.70 252.02 108.43 C 254.89 108.24 257.67 107.29 260.26 106.10 C 263.49 104.47 265.18 100.94 268.24 99.12 C 276.52 99.39 284.73 101.01 293.01 101.50 C 299.82 101.52 306.98 100.57 313.42 103.36 C 318.20 106.40 323.28 102.83 328.15 102.02 C 331.89 100.89 336.38 100.34 338.72 96.81 C 342.11 92.12 345.69 87.51 348.37 82.37 C 351.46 76.78 350.93 69.87 354.48 64.48 C 357.87 58.98 363.36 55.35 367.99 51.00 Z" />
<path fill="#8a4018" opacity="1.00" d=" M 198.24 99.15 C 204.86 99.57 211.58 100.01 218.03 101.70 C 209.47 102.46 200.84 102.93 192.48 105.08 C 194.31 103.03 195.92 100.69 198.24 99.15 Z" />
<path fill="#f0702b" opacity="1.00" d=" M 226.18 105.80 C 228.57 103.65 230.51 101.00 233.11 99.08 C 240.18 99.41 247.32 100.07 254.25 101.62 C 244.89 102.90 235.13 102.32 226.18 105.80 Z" />
<path fill="#f0702b" opacity="1.00" d=" M 198.01 110.84 C 202.96 109.56 208.07 109.04 213.15 108.67 C 209.11 109.64 204.50 109.40 201.16 112.23 C 196.94 115.67 193.69 120.09 190.01 124.06 C 177.31 137.81 169.11 154.90 157.39 169.40 C 154.25 172.84 149.92 174.83 145.97 177.19 C 141.72 183.09 137.07 188.98 130.81 192.86 C 127.37 195.03 124.39 198.33 124.25 202.60 C 120.39 206.96 116.05 210.88 111.71 214.75 C 109.15 216.95 105.99 219.55 102.36 218.60 C 99.89 217.07 98.14 214.67 96.10 212.65 C 96.09 209.15 95.36 205.58 96.08 202.12 C 97.38 199.49 100.30 198.33 102.44 196.50 C 106.53 193.57 109.84 189.79 112.76 185.74 C 116.24 181.02 122.06 179.16 126.36 175.42 C 136.74 162.52 144.88 148.01 154.80 134.76 C 159.36 129.36 163.86 123.87 168.87 118.87 C 172.25 115.36 177.51 116.15 181.75 114.51 C 187.00 112.57 192.62 112.21 198.01 110.84 Z" />
<path fill="#8a4018" opacity="1.00" d=" M 140.95 116.02 C 150.35 113.64 159.81 111.58 169.34 109.69 C 155.13 121.58 144.31 136.87 134.37 152.36 C 131.05 157.91 127.25 163.16 123.31 168.29 C 120.43 172.20 115.71 173.95 112.13 177.08 C 107.25 181.21 104.03 187.01 98.78 190.75 C 95.64 193.19 91.71 195.19 90.18 199.11 C 88.99 202.08 87.52 205.01 84.92 207.00 C 80.35 210.78 76.59 215.79 71.09 218.28 C 66.71 220.09 63.93 215.08 61.12 212.64 C 61.18 208.98 60.52 205.20 61.47 201.62 C 63.88 198.58 67.63 197.00 70.39 194.30 C 75.05 190.64 77.42 184.80 82.41 181.51 C 86.12 178.89 90.73 177.23 93.28 173.26 C 97.44 167.09 102.32 161.43 106.07 154.99 C 112.43 145.49 118.50 135.72 126.33 127.35 C 130.57 122.93 134.10 116.38 140.95 116.02 Z" />
<path fill="#8a4018" opacity="1.00" d=" M 396.10 127.74 C 399.74 128.19 403.30 129.15 406.70 130.54 C 405.00 134.71 402.44 138.56 401.41 142.97 C 400.99 147.59 402.32 152.20 401.66 156.84 C 401.97 157.17 402.60 157.83 402.92 158.15 C 400.78 162.07 398.20 165.78 394.67 168.57 C 394.50 168.09 394.16 167.13 393.99 166.65 C 392.90 165.46 391.77 164.29 390.89 162.93 C 390.17 159.08 392.56 154.58 389.82 151.23 C 385.67 146.14 381.21 141.27 376.33 136.86 C 377.44 134.45 379.79 130.78 382.77 133.20 C 384.48 136.86 382.10 141.33 384.56 144.94 C 386.84 143.23 389.71 141.80 390.71 138.94 C 392.26 135.09 393.88 131.26 396.10 127.74 Z" />
<path fill="#f0702b" opacity="1.00" d=" M 431.09 128.10 C 434.77 127.51 438.28 129.19 441.74 130.19 C 440.23 134.04 438.23 137.67 436.74 141.52 C 435.52 147.32 437.52 153.13 437.82 158.92 C 433.84 166.48 426.51 171.37 418.84 174.66 C 413.98 176.70 409.41 179.32 404.93 182.09 C 403.62 180.22 402.29 178.36 400.97 176.50 C 401.43 176.33 402.35 175.97 402.81 175.79 C 401.49 175.23 400.17 174.72 398.83 174.24 C 403.50 171.21 409.84 168.25 410.49 162.01 C 409.62 156.36 408.01 150.77 407.86 145.02 C 409.29 141.18 411.07 137.46 412.95 133.83 C 414.00 131.14 418.96 132.09 418.64 135.14 C 418.52 138.40 417.87 141.79 419.63 144.78 C 421.65 143.12 424.33 141.91 425.40 139.38 C 427.24 135.61 428.04 131.16 431.09 128.10 Z" />
<path fill="#f0702b" opacity="1.00" d=" M 227.90 143.83 C 235.98 141.38 244.45 140.64 252.85 140.76 C 248.35 147.05 243.81 153.34 240.07 160.12 C 230.70 162.43 221.93 166.58 212.94 170.00 C 206.87 172.49 200.20 174.72 195.87 179.91 C 191.90 186.17 189.76 193.62 189.72 201.04 C 189.61 203.52 190.99 205.65 192.04 207.78 C 194.41 212.23 195.75 217.19 198.63 221.36 C 203.25 228.34 208.89 234.59 214.66 240.63 C 216.58 240.65 218.50 240.66 220.43 240.67 C 219.37 246.74 218.71 252.87 217.69 258.94 C 216.27 267.74 216.48 277.06 212.35 285.19 C 207.86 294.15 204.07 303.42 199.75 312.45 C 196.60 319.46 192.91 326.25 190.56 333.60 C 180.94 333.50 171.53 335.84 161.94 336.41 C 165.91 324.53 172.31 313.67 177.12 302.14 C 180.57 293.51 186.36 285.59 187.18 276.09 C 188.35 265.37 190.13 254.73 191.51 244.04 C 192.19 238.95 192.17 233.57 194.87 229.02 C 191.78 231.16 188.82 234.01 184.93 234.46 C 182.84 234.88 181.65 232.81 180.38 231.58 C 177.54 228.07 174.31 224.84 171.85 221.05 C 170.06 218.41 171.63 215.22 172.50 212.55 C 174.41 206.86 178.08 202.03 180.54 196.60 C 181.93 193.74 180.95 190.26 182.37 187.47 C 187.67 181.91 194.48 178.14 200.75 173.80 C 206.39 169.82 210.55 164.20 215.69 159.66 C 220.82 155.27 223.78 149.07 227.90 143.83 Z" />
<path fill="#3e3e3e" opacity="1.00" d=" M 397.21 161.41 C 398.55 160.24 400.00 162.62 398.66 163.52 C 397.32 164.68 395.86 162.30 397.21 161.41 Z" />
<path fill="#f0702b" opacity="1.00" d=" M 330.98 190.75 C 335.79 187.25 341.01 184.34 345.70 180.66 C 348.51 183.81 351.48 186.92 355.44 188.61 C 358.56 191.11 360.31 194.98 363.50 197.47 C 369.22 202.25 373.56 208.35 378.65 213.73 C 374.25 216.67 370.26 222.06 364.32 220.63 C 364.12 220.71 363.70 220.86 363.49 220.94 C 361.25 219.71 358.87 218.69 356.87 217.08 C 354.32 215.01 352.95 211.78 350.20 209.93 C 348.02 208.41 345.89 206.76 344.30 204.60 C 340.34 199.55 336.10 194.66 330.98 190.75 Z" />
<path fill="#8a4018" opacity="1.00" d=" M 319.34 212.99 C 321.82 207.35 324.02 201.58 326.96 196.16 C 333.50 201.00 337.84 207.98 343.50 213.70 C 339.08 217.29 334.53 221.86 328.29 220.99 C 325.21 218.44 322.17 215.82 319.34 212.99 Z" />
<path fill="#8a4018" opacity="1.00" d=" M 140.70 225.72 C 145.72 224.53 149.74 221.27 153.48 217.90 C 155.02 219.60 156.45 221.46 158.34 222.81 C 160.47 223.54 162.78 223.38 164.95 223.93 C 169.76 228.84 173.49 234.76 178.63 239.37 C 180.35 241.12 182.99 240.74 185.21 241.14 C 183.78 251.78 182.13 262.39 180.89 273.05 C 179.94 282.45 174.41 290.38 170.91 298.93 C 166.03 310.61 159.73 321.67 155.49 333.61 C 145.97 333.65 136.63 335.74 127.14 336.24 C 131.25 324.26 137.65 313.25 142.54 301.59 C 145.95 293.14 151.61 285.39 152.38 276.08 C 153.26 267.69 154.57 259.35 155.77 251.00 C 156.92 243.68 156.98 236.13 159.55 229.09 C 156.14 231.30 152.58 235.10 148.13 233.96 C 145.16 231.71 143.13 228.50 140.70 225.72 Z" />
<path fill="#f0702b" opacity="1.00" d=" M 264.66 311.74 C 268.33 310.90 272.26 309.52 275.98 310.88 C 283.78 313.42 290.89 317.66 298.65 320.28 C 303.46 321.59 308.19 323.18 312.81 325.05 C 311.05 328.16 309.74 331.67 307.06 334.14 C 303.12 337.80 298.35 340.68 295.20 345.12 C 293.77 351.88 296.10 358.69 299.17 364.66 C 298.68 367.39 298.37 370.16 297.62 372.84 C 294.69 381.81 292.28 391.11 287.08 399.11 C 283.76 404.15 281.97 410.26 277.38 414.39 C 273.63 417.99 270.64 422.28 267.14 426.11 C 267.13 428.66 267.15 431.22 267.18 433.77 C 275.09 442.05 281.20 451.79 288.91 460.23 C 280.40 459.83 271.63 461.34 263.35 458.80 C 258.50 457.41 255.85 452.76 252.93 449.05 C 250.10 444.93 246.10 441.77 243.49 437.50 C 241.84 434.80 239.91 432.31 237.85 429.92 C 241.68 425.41 244.97 420.29 249.93 416.90 C 253.31 414.48 257.69 412.43 258.71 407.98 C 260.10 402.39 262.44 397.08 263.65 391.44 C 266.57 382.43 270.02 373.46 271.32 364.05 C 269.74 358.78 265.82 353.90 266.28 348.21 C 270.07 343.36 276.15 340.86 279.76 335.84 C 282.45 331.59 284.40 326.94 286.77 322.52 C 280.17 317.44 271.76 315.56 263.91 313.27 C 264.10 312.89 264.47 312.12 264.66 311.74 Z" />
<path fill="#8a4018" opacity="1.00" d=" M 247.03 357.00 C 251.45 344.45 256.21 332.02 260.59 319.45 C 266.43 320.97 272.21 322.72 277.75 325.15 C 275.87 328.66 274.24 332.50 271.04 335.04 C 267.18 338.15 263.39 341.35 259.95 344.92 C 259.98 349.17 259.58 353.60 261.19 357.64 C 262.16 360.63 264.13 363.48 263.75 366.75 C 263.18 372.50 260.87 377.86 259.23 383.34 C 257.38 389.35 254.51 394.96 251.27 400.33 C 248.48 404.84 246.66 410.04 242.79 413.80 C 238.91 417.70 235.70 422.19 232.02 426.28 C 232.03 428.71 232.05 431.14 232.09 433.57 C 239.74 441.95 246.10 451.39 253.48 459.99 C 247.31 459.93 241.14 460.24 234.98 459.91 C 231.36 459.59 227.33 459.09 224.67 456.35 C 221.21 452.77 218.19 448.79 215.24 444.79 C 211.55 439.52 206.88 435.05 202.99 429.93 C 205.88 426.51 208.42 422.77 211.70 419.71 C 214.48 417.10 217.93 415.36 220.82 412.90 C 223.29 410.86 223.88 407.59 224.77 404.70 C 227.84 395.41 230.33 385.93 233.61 376.71 C 234.86 372.75 239.53 371.91 241.90 368.85 C 244.59 365.41 245.38 360.97 247.03 357.00 Z" />
<path fill="#8a4018" opacity="1.00" d=" M 109.24 341.28 C 113.59 340.33 118.03 339.86 122.48 339.90 C 120.85 343.19 119.56 346.65 117.74 349.85 C 116.29 351.74 114.05 352.80 112.10 354.08 C 103.18 359.42 94.55 365.23 85.74 370.74 C 82.39 372.78 79.31 375.68 75.28 376.21 C 70.82 376.96 66.14 376.35 61.83 377.88 C 56.73 380.15 51.98 383.21 47.91 387.04 C 47.97 390.36 47.40 393.95 49.07 397.00 C 51.47 401.74 53.66 406.62 56.85 410.90 C 54.21 419.84 57.80 428.69 59.82 437.33 C 60.51 439.96 62.83 441.61 64.66 443.42 C 65.02 444.93 65.38 446.44 65.73 447.96 C 64.08 450.43 62.69 453.06 61.16 455.60 C 61.28 454.47 61.39 453.35 61.51 452.23 C 58.35 451.85 55.04 451.50 52.33 449.66 C 47.69 446.96 45.22 442.00 42.54 437.58 C 38.15 429.78 33.87 421.89 30.49 413.59 C 26.77 405.78 22.54 398.23 18.74 390.46 C 22.40 388.50 25.88 386.19 29.66 384.48 C 34.37 382.34 39.70 383.56 44.63 382.47 C 47.52 381.69 49.89 379.76 52.37 378.17 C 63.28 371.07 74.31 364.15 85.35 357.24 C 90.68 354.38 90.53 347.40 94.28 343.22 C 99.09 341.56 104.31 342.34 109.24 341.28 Z" />
<path fill="#f0702b" opacity="1.00" d=" M 145.89 340.84 C 149.77 340.04 153.72 339.76 157.66 339.75 C 154.85 343.93 154.45 350.04 149.58 352.51 C 139.45 358.68 129.51 365.16 119.51 371.53 C 116.47 373.42 113.59 376.05 109.86 376.33 C 104.59 376.92 98.84 376.25 94.14 379.18 C 90.27 381.56 85.68 383.40 83.10 387.31 C 82.46 390.47 82.38 394.04 84.05 396.92 C 86.62 401.65 88.50 406.81 92.11 410.90 C 88.75 419.61 93.37 428.25 94.41 436.88 C 95.08 439.76 97.86 441.39 99.87 443.31 C 100.16 444.88 100.46 446.44 100.85 447.99 C 99.18 450.53 97.64 453.16 96.09 455.78 C 96.17 454.96 96.35 453.33 96.44 452.51 C 95.13 452.17 93.82 451.82 92.51 451.48 C 92.22 451.61 91.63 451.88 91.33 452.02 C 88.05 449.95 84.10 448.47 82.05 444.97 C 78.77 439.74 76.46 433.99 73.32 428.69 C 68.66 420.85 65.24 412.34 60.48 404.56 C 57.98 400.05 56.38 395.10 53.52 390.79 C 57.40 388.27 61.26 385.60 65.58 383.88 C 69.91 382.61 74.48 383.01 78.90 382.43 C 82.07 381.99 84.52 379.74 87.14 378.11 C 98.10 371.06 109.08 364.06 120.15 357.17 C 125.60 354.34 125.41 347.21 129.19 342.96 C 134.63 341.46 140.39 342.01 145.89 340.84 Z" />
</svg>
