<?xml version="1.0" encoding="UTF-8" ?>
<!DOCTYPE svg PUBLIC "-//W3C//DTD SVG 1.1//EN" "http://www.w3.org/Graphics/SVG/1.1/DTD/svg11.dtd">
<svg width="516pt" height="516pt" viewBox="0 0 516 516" version="1.1" xmlns="http://www.w3.org/2000/svg">
<path fill="#3e3e3e" opacity="1.00" d=" M 0.00 0.00 L 516.00 0.00 L 516.00 516.00 L 0.00 516.00 L 0.00 0.00 Z" />
<path fill="#f5e5c1" opacity="1.00" d=" M 210.20 37.07 C 213.83 31.92 217.16 26.10 223.09 23.29 C 223.74 23.38 225.04 23.56 225.68 23.65 C 226.63 24.09 227.57 24.53 228.53 24.96 C 232.49 26.92 236.46 28.89 240.46 30.78 C 259.69 39.81 278.18 50.30 296.59 60.87 C 318.27 73.99 340.77 85.83 361.50 100.44 C 366.52 104.85 373.37 108.82 374.39 116.03 C 374.43 119.95 373.08 123.74 372.41 127.58 C 370.69 134.69 369.51 141.91 367.77 149.02 C 366.89 152.90 364.60 156.22 362.79 159.70 C 357.19 170.48 351.44 181.18 345.84 191.95 C 341.93 199.68 336.52 206.48 331.90 213.77 C 328.98 218.46 324.85 222.19 321.29 226.36 C 316.78 231.27 312.76 236.79 307.20 240.59 C 301.32 243.41 295.67 246.66 289.74 249.37 C 289.36 247.99 288.56 246.59 288.99 245.12 C 290.20 237.79 292.67 230.54 292.03 223.02 C 291.52 215.10 292.33 207.18 292.11 199.27 C 291.01 188.85 290.24 178.37 288.23 168.07 C 293.36 163.83 298.49 159.58 303.41 155.08 C 304.35 164.10 304.80 173.16 305.84 182.17 C 306.94 190.43 305.87 198.74 305.85 207.03 C 305.79 215.88 303.34 224.65 304.37 233.52 C 308.90 234.44 311.37 229.90 314.30 227.34 C 321.55 218.84 329.66 210.82 334.84 200.80 C 343.13 186.31 350.91 171.53 358.98 156.92 C 362.31 151.84 362.89 145.67 364.53 139.95 C 366.17 132.31 368.59 124.79 369.45 117.01 C 368.25 111.29 363.92 106.74 359.23 103.52 C 342.99 92.92 326.30 83.04 309.82 72.82 C 295.94 64.01 281.23 56.63 266.97 48.47 C 254.09 41.47 241.49 33.89 228.32 27.46 C 226.83 28.01 225.29 28.43 223.88 29.17 C 222.67 31.15 224.59 32.95 225.70 34.42 C 231.84 41.25 238.75 47.35 244.64 54.42 C 252.58 62.78 260.05 71.57 267.70 80.20 C 262.84 85.06 258.03 89.97 252.98 94.63 C 247.55 85.85 241.85 77.25 236.40 68.49 C 234.17 64.83 230.81 62.08 228.26 58.67 C 222.44 51.31 216.39 44.13 210.20 37.07 Z" />
<path fill="#f5e5c1" opacity="1.00" d=" M 236.72 38.04 C 244.49 42.42 252.80 45.72 260.62 50.00 C 276.06 58.73 291.62 67.26 307.06 76.01 C 320.45 84.28 333.85 92.51 347.14 100.93 C 353.70 105.47 362.73 109.10 364.16 117.97 C 361.86 129.03 359.05 140.05 356.07 150.95 C 347.25 168.29 337.41 185.09 328.16 202.19 C 326.63 205.17 324.59 207.84 322.40 210.35 C 318.30 214.92 314.62 219.83 310.63 224.50 C 311.00 220.98 311.57 217.50 312.02 214.00 C 312.80 208.67 311.66 203.34 311.74 198.00 C 312.33 184.52 309.79 171.18 309.30 157.74 C 317.07 152.84 324.96 148.02 331.81 141.84 C 334.73 139.08 336.61 135.15 336.83 131.14 C 335.18 124.84 332.44 118.75 328.52 113.53 C 321.97 105.93 314.08 99.52 305.57 94.24 C 295.68 89.56 286.17 83.93 275.74 80.51 C 272.27 79.51 270.60 76.05 268.39 73.52 C 263.86 68.41 259.41 63.22 254.72 58.26 C 248.94 51.32 241.98 45.42 236.72 38.04 Z" />
<path fill="#f4722b" opacity="1.00" d=" M 183.84 40.11 C 189.57 40.64 195.28 41.41 201.04 41.60 C 203.78 41.82 207.10 41.57 208.94 44.05 C 215.86 51.86 222.08 60.25 228.94 68.10 C 230.49 69.87 231.88 71.79 233.13 73.79 C 237.80 81.40 242.89 88.75 247.62 96.33 C 249.56 99.61 253.06 101.37 256.32 103.08 C 267.90 107.73 279.82 111.63 290.94 117.35 C 296.98 120.25 301.93 124.85 307.37 128.68 C 311.42 132.05 315.55 137.03 314.49 142.67 C 313.13 147.49 307.62 148.51 303.93 150.94 C 297.98 154.90 292.60 159.63 286.81 163.81 C 284.97 165.40 281.74 166.90 282.83 169.89 C 284.64 179.55 285.61 189.34 286.41 199.12 C 286.63 207.42 286.13 215.73 286.40 224.03 C 286.63 230.29 285.10 236.42 283.63 242.45 C 283.02 245.18 282.62 248.24 283.97 250.83 C 285.04 253.21 287.75 253.95 289.86 255.10 C 282.11 263.15 273.77 270.61 265.93 278.56 C 262.81 277.92 259.74 277.11 256.67 276.27 C 261.98 265.36 262.40 252.95 262.52 241.05 C 262.25 233.16 260.83 225.37 259.66 217.58 C 258.38 208.90 255.10 200.63 254.10 191.90 C 253.75 190.55 254.82 189.48 255.59 188.54 C 262.42 181.40 270.00 175.02 276.90 167.94 C 280.30 163.72 282.85 158.74 284.68 153.66 C 285.10 148.25 282.28 143.11 279.15 138.89 C 272.87 131.46 265.55 124.80 257.13 119.87 C 252.37 117.45 247.42 115.38 242.56 113.17 C 236.54 110.44 229.98 109.35 223.76 107.23 C 220.77 106.37 219.79 103.06 218.26 100.71 C 210.78 88.11 205.66 73.55 194.27 63.75 C 188.96 58.22 181.98 54.86 175.91 50.29 C 178.56 46.90 181.10 43.42 183.84 40.11 Z" />
<path fill="#3e3e3e" opacity="1.00" d=" M 184.70 43.38 C 185.10 43.40 185.90 43.45 186.30 43.47 C 195.27 51.59 204.44 59.55 212.69 68.42 C 219.21 77.15 224.29 86.84 229.66 96.28 C 231.05 99.13 234.18 100.17 236.83 101.45 C 247.20 106.35 258.28 110.30 267.03 117.97 C 275.49 124.25 284.94 130.50 289.44 140.42 C 291.52 144.65 289.91 149.11 287.84 152.95 C 286.66 148.49 285.58 143.88 282.97 139.99 C 280.15 134.98 275.63 131.30 271.49 127.44 C 259.95 117.27 245.38 111.71 231.13 106.53 C 228.07 105.19 224.03 104.82 222.49 101.41 C 216.96 92.04 213.06 81.81 207.49 72.47 C 200.96 62.56 190.24 56.90 181.37 49.43 C 181.38 49.00 181.41 48.15 181.43 47.73 C 182.53 46.29 183.62 44.84 184.70 43.38 Z" />
<path fill="#f5e5c1" opacity="1.00" d=" M 182.45 60.13 C 183.69 60.66 184.92 61.20 186.15 61.75 C 185.21 62.52 184.27 63.29 183.34 64.06 C 191.63 72.72 199.31 81.95 206.51 91.54 C 210.68 98.41 214.28 105.63 219.00 112.16 C 216.62 117.63 212.41 122.10 209.54 127.32 C 204.60 120.36 202.05 111.99 196.90 105.15 C 192.93 99.78 189.60 93.87 184.80 89.16 C 179.42 83.83 174.36 78.17 168.93 72.89 C 173.40 68.60 177.98 64.42 182.45 60.13 Z" />
<path fill="#f5e5c1" opacity="1.00" d=" M 257.12 97.20 C 261.65 92.52 266.14 87.79 270.82 83.26 C 281.40 85.69 290.75 91.41 300.41 96.13 C 300.89 96.26 301.85 96.53 302.34 96.67 C 307.69 102.03 314.84 105.38 319.42 111.55 C 324.06 117.06 329.70 122.52 330.63 130.04 C 330.71 132.58 329.48 134.91 327.74 136.68 C 325.22 139.71 322.28 142.35 319.25 144.86 C 322.07 137.90 317.93 130.75 312.87 126.10 C 308.44 122.19 303.55 118.84 298.79 115.35 C 293.69 111.79 287.76 109.75 282.23 106.99 C 281.25 106.59 280.27 106.19 279.30 105.79 C 276.79 104.84 274.31 103.85 271.81 102.89 C 266.95 100.90 261.96 99.24 257.12 97.20 Z" />
<path fill="#f5e5c1" opacity="1.00" d=" M 213.32 131.06 C 216.34 124.93 220.48 119.42 223.74 113.41 C 231.29 116.36 238.91 119.14 246.57 121.82 C 255.38 126.77 264.55 131.19 272.37 137.70 C 277.17 140.54 279.41 145.85 280.85 150.98 C 280.25 159.06 274.82 165.85 268.73 170.78 C 263.51 175.91 257.73 180.40 252.17 185.15 C 249.92 188.11 249.01 192.07 249.21 195.75 C 250.71 206.50 253.04 217.14 254.07 227.95 C 254.34 236.34 255.44 244.69 254.86 253.09 C 254.51 255.13 256.33 256.31 257.79 257.26 C 257.55 258.76 257.41 260.28 257.01 261.76 C 255.74 263.69 253.40 264.47 251.47 265.56 C 246.31 267.93 241.31 270.63 236.10 272.85 C 234.41 267.73 235.57 262.26 235.62 256.99 C 235.68 251.65 237.07 246.39 236.54 241.05 C 235.33 226.41 234.46 211.74 233.25 197.10 C 240.27 191.53 246.88 185.45 253.93 179.94 C 260.17 176.04 265.99 171.33 270.53 165.51 C 272.88 162.49 274.02 157.70 271.31 154.55 C 268.61 151.24 265.34 148.22 261.31 146.64 C 256.03 144.45 250.91 141.88 245.48 140.08 C 244.10 139.70 242.72 139.36 241.36 138.98 C 234.05 137.40 226.81 135.56 219.74 133.13 C 217.59 132.46 215.42 131.86 213.32 131.06 Z" />
<path fill="#f5e5c1" opacity="1.00" d=" M 168.98 152.92 C 172.10 148.52 178.21 148.52 182.77 150.36 C 186.88 151.82 185.16 157.20 185.75 160.52 C 179.07 162.18 173.12 157.66 168.98 152.92 Z" />
<path fill="#f5e5c1" opacity="1.00" d=" M 224.65 156.44 C 227.32 155.70 231.36 153.85 233.16 156.95 C 234.21 158.19 234.81 159.78 234.67 161.42 C 231.13 163.43 227.00 161.32 223.26 161.11 C 223.72 159.55 224.19 157.99 224.65 156.44 Z" />
<path fill="#f5e5c1" opacity="1.00" d=" M 195.26 174.96 C 197.25 172.53 200.68 173.62 203.31 174.14 C 205.33 174.73 208.78 175.11 208.38 178.00 C 207.36 178.93 206.22 179.73 205.10 180.54 C 203.42 180.47 201.73 180.40 200.05 180.35 C 198.38 178.62 196.66 176.92 195.26 174.96 Z" />
<path fill="#f5e5c1" opacity="1.00" d=" M 141.76 179.20 C 142.26 178.79 143.25 177.98 143.74 177.57 C 146.64 177.40 149.52 177.89 151.85 179.73 C 150.68 181.37 149.53 183.88 147.05 183.32 C 144.31 183.68 142.64 181.46 141.76 179.20 Z" />
<path fill="#3e3e3e" opacity="1.00" d=" M 257.34 190.10 C 258.68 188.07 260.64 186.56 262.35 184.86 C 266.44 201.30 269.59 217.93 272.62 234.59 C 274.59 242.99 272.35 251.54 272.25 260.02 C 272.38 265.72 269.32 270.61 267.03 275.60 C 265.03 275.60 263.02 275.58 261.02 275.55 C 261.67 271.51 263.42 267.78 264.34 263.82 C 265.33 257.93 266.47 252.00 266.21 245.99 C 266.20 237.55 263.96 229.35 263.20 220.98 C 262.28 210.51 258.74 200.48 257.34 190.10 Z" />
<path fill="#f5e5c1" opacity="1.00" d=" M 365.14 206.03 C 369.83 201.13 374.35 195.96 379.70 191.76 C 392.16 192.29 404.62 190.87 417.06 191.79 C 420.22 192.08 422.94 193.88 425.40 195.75 C 432.20 201.23 439.02 206.70 445.84 212.17 C 447.62 213.69 449.44 215.26 450.63 217.31 C 455.08 225.19 459.55 233.07 464.16 240.85 C 465.09 242.92 467.62 242.60 469.45 243.16 C 469.72 248.47 469.00 253.89 470.43 259.09 C 473.11 259.81 474.99 256.93 477.08 255.69 C 477.70 255.86 478.94 256.19 479.57 256.36 C 480.80 257.66 482.05 258.93 483.32 260.20 C 482.21 262.23 480.98 264.20 479.97 266.28 C 481.31 264.95 482.58 263.53 483.84 262.11 C 485.51 262.38 487.19 262.55 488.86 262.92 C 490.29 265.42 491.16 268.46 494.03 269.77 C 495.77 274.67 494.89 281.26 489.94 283.94 C 486.05 286.23 481.43 285.09 477.75 282.98 C 476.25 283.70 474.75 284.43 473.25 285.15 C 473.45 287.69 473.70 290.25 473.65 292.81 C 472.27 296.82 470.20 300.56 468.49 304.44 C 466.75 308.25 464.38 312.73 459.89 313.62 C 454.98 314.63 450.35 316.62 445.49 317.81 C 445.72 318.75 446.17 320.65 446.40 321.60 C 440.71 324.50 434.31 325.37 428.36 327.57 C 425.14 329.07 421.82 327.08 418.70 326.32 C 417.49 327.63 416.28 328.93 415.07 330.23 C 415.52 331.12 415.97 332.01 416.43 332.91 C 413.61 339.41 412.68 346.53 409.86 353.01 C 409.07 355.79 406.00 354.28 403.94 354.35 C 401.60 359.92 396.03 365.63 398.95 372.00 C 401.18 375.72 399.53 380.46 402.02 384.06 C 404.65 388.51 406.14 393.85 405.38 399.02 C 406.31 400.45 408.32 401.67 407.72 403.62 C 405.99 405.31 403.89 406.54 401.86 407.83 C 400.62 414.99 400.15 422.27 401.31 429.48 C 400.16 430.28 399.02 431.06 397.87 431.85 C 397.64 436.71 397.51 441.81 395.21 446.24 C 390.80 446.80 386.31 446.85 381.88 446.70 C 379.45 446.85 378.90 443.90 377.62 442.39 C 380.65 435.33 385.58 429.22 387.84 421.83 C 388.70 418.26 388.53 414.54 388.69 410.90 C 386.42 410.35 384.07 410.03 381.93 409.11 C 380.56 407.40 381.67 405.12 381.73 403.17 C 382.80 397.83 381.74 392.43 381.28 387.08 C 381.21 384.28 379.40 382.05 378.28 379.61 C 376.08 375.12 375.76 370.02 373.99 365.39 C 373.37 368.34 374.20 371.25 374.56 374.16 C 373.90 375.21 373.06 376.11 372.30 377.08 C 373.13 383.30 372.70 389.61 372.45 395.86 C 372.11 399.53 367.46 399.75 364.84 401.17 C 363.86 405.77 365.49 410.35 365.15 414.97 C 364.35 416.06 362.92 416.35 361.82 417.05 C 358.01 419.02 356.01 423.09 352.62 425.56 C 349.32 427.37 345.73 428.56 342.23 429.92 C 341.18 428.28 340.16 426.62 339.18 424.94 C 339.58 424.53 340.37 423.70 340.77 423.29 C 341.35 421.47 341.10 419.03 342.90 417.86 C 344.67 416.59 346.75 415.90 348.76 415.12 C 350.18 413.14 351.90 411.33 352.97 409.13 C 353.80 406.18 353.80 403.08 354.20 400.06 C 350.65 397.91 346.96 395.57 344.60 392.10 C 344.94 386.83 349.16 382.94 350.41 377.97 C 350.21 376.30 349.75 374.68 349.57 373.02 C 350.50 369.63 353.51 367.26 354.44 363.86 C 355.26 359.80 355.25 355.56 356.67 351.62 C 359.73 342.75 363.23 334.04 366.33 325.18 C 366.92 323.45 368.21 322.12 369.37 320.77 C 370.15 318.73 371.04 316.74 372.02 314.79 C 371.12 313.93 370.22 313.07 369.33 312.21 C 372.62 306.24 374.55 299.67 377.52 293.55 C 379.38 290.47 381.68 287.69 383.75 284.76 C 386.98 280.07 391.54 276.59 395.76 272.85 C 393.17 272.77 390.47 273.00 388.03 271.97 C 383.09 269.83 378.03 268.03 372.98 266.19 C 369.08 268.34 366.94 272.86 362.87 274.84 C 360.71 274.05 358.64 272.69 357.25 270.84 C 357.85 268.38 359.61 266.39 360.75 264.17 C 358.74 264.77 356.74 265.39 354.74 266.00 C 353.33 269.74 352.62 273.69 351.33 277.46 C 350.18 277.57 349.02 277.60 347.86 277.55 C 346.67 279.49 345.59 281.53 344.07 283.24 C 342.37 284.41 340.60 283.09 339.21 282.12 C 339.05 276.73 338.36 271.34 338.70 265.96 C 341.58 261.59 345.23 257.68 349.07 254.13 C 354.42 250.97 360.23 248.60 365.70 245.62 C 374.01 247.41 382.57 247.42 390.97 248.52 C 396.08 248.72 398.65 255.14 403.95 254.45 C 407.29 254.37 410.64 254.34 413.99 254.15 C 417.51 253.98 420.52 251.94 423.92 251.24 C 427.37 250.45 430.93 250.82 434.44 250.83 C 434.66 246.29 433.71 241.75 432.50 237.41 C 428.74 232.88 423.46 229.69 420.37 224.57 C 417.95 220.96 416.23 216.27 411.91 214.51 C 407.61 214.29 403.29 214.57 399.00 214.89 C 394.06 216.03 390.00 219.48 385.15 220.91 C 383.65 220.67 382.99 219.23 382.58 217.94 C 382.09 215.49 384.71 214.20 386.04 212.60 C 382.31 214.20 379.00 216.76 374.96 217.61 C 374.49 216.23 374.02 214.85 373.57 213.47 C 371.97 213.13 370.19 213.20 368.80 212.25 C 368.34 211.17 367.94 210.06 367.62 208.93 C 366.78 207.97 365.95 207.01 365.14 206.03 Z" />
<path fill="#f5e5c1" opacity="1.00" d=" M 211.17 204.95 C 210.41 202.64 213.01 202.91 214.46 202.44 C 215.05 202.96 216.24 203.98 216.83 204.49 C 215.01 204.95 212.95 206.14 211.17 204.95 Z" />
<path fill="#f5e5c1" opacity="1.00" d=" M 478.38 219.78 C 480.03 217.83 482.04 216.23 484.38 215.18 C 484.20 216.10 483.82 217.95 483.63 218.87 C 481.98 219.59 480.12 219.54 478.38 219.78 Z" />
<path fill="#f5e5c1" opacity="1.00" d=" M 111.21 226.41 C 124.60 223.53 138.45 221.72 152.10 223.88 C 163.32 225.54 174.50 228.19 184.74 233.21 C 192.64 236.99 200.54 241.15 207.08 247.08 C 183.01 230.83 152.59 224.41 123.98 229.30 C 85.62 235.12 51.17 261.15 34.61 296.18 C 34.92 294.62 35.29 293.07 35.81 291.58 C 45.77 268.16 63.64 248.00 86.28 236.19 C 94.16 231.93 102.56 228.74 111.21 226.41 Z" />
<path fill="#f5e5c1" opacity="1.00" d=" M 491.39 238.93 C 490.18 236.97 490.83 234.79 493.47 234.77 C 492.84 236.19 492.14 237.58 491.39 238.93 Z" />
<path fill="#f5e5c1" opacity="1.00" d=" M 123.51 246.42 C 134.41 240.87 146.94 238.29 159.14 239.55 C 169.83 241.02 180.41 244.59 189.06 251.16 C 181.75 247.29 174.04 243.93 165.83 242.59 C 156.27 241.75 146.37 241.24 137.15 244.39 C 117.65 249.54 101.50 264.23 93.02 282.36 C 97.87 266.96 109.28 253.91 123.51 246.42 Z" />
<path fill="#f5e5c1" opacity="1.00" d=" M 485.45 243.06 C 488.44 241.54 485.55 246.42 485.45 243.06 Z" />
<path fill="#f5e5c1" opacity="1.00" d=" M 32.02 299.53 C 34.46 299.40 37.03 298.72 39.38 299.71 C 43.65 301.52 47.76 303.77 51.51 306.53 C 60.81 312.97 70.13 319.38 79.29 326.00 C 79.60 324.75 79.99 321.71 81.99 322.73 C 87.08 323.69 89.23 329.06 93.58 331.29 C 101.37 332.15 109.26 332.18 117.09 332.66 C 122.04 332.74 126.75 334.91 130.70 337.77 C 138.80 338.34 147.00 339.05 155.04 337.47 C 155.70 336.44 156.36 335.41 157.03 334.39 C 155.69 330.04 153.81 325.91 152.13 321.71 C 152.08 318.80 152.41 315.59 153.95 313.07 C 157.28 310.59 161.93 310.56 164.90 307.40 C 165.15 308.02 165.64 309.24 165.89 309.86 C 169.84 311.41 174.08 312.12 178.04 313.68 C 177.80 315.47 176.57 317.37 177.34 319.15 C 179.72 319.71 182.17 319.93 184.60 320.31 C 183.00 321.94 181.43 323.60 179.95 325.35 C 178.51 325.40 177.06 325.45 175.62 325.52 C 176.63 327.70 177.76 329.82 178.86 331.96 C 178.23 332.28 176.98 332.93 176.36 333.25 C 178.49 336.16 176.75 339.07 175.22 341.70 C 171.95 341.05 168.71 340.27 165.44 339.62 C 170.19 344.66 172.39 351.39 175.53 357.43 C 179.14 367.13 182.61 376.96 184.61 387.14 C 185.23 389.45 184.67 391.78 183.21 393.66 C 183.73 395.66 183.81 397.96 185.33 399.53 C 190.43 405.48 197.22 410.11 200.66 417.36 C 204.03 424.27 208.13 430.80 211.27 437.82 C 206.67 442.38 201.92 446.79 197.36 451.39 C 195.50 453.16 193.16 455.72 190.60 453.39 C 185.53 457.80 179.56 461.26 175.49 466.73 C 176.64 468.97 176.55 472.75 179.70 473.16 C 185.16 474.26 190.48 475.94 195.91 477.20 C 197.72 477.38 198.29 479.29 199.21 480.56 C 194.95 482.20 190.36 482.53 185.86 483.05 C 182.37 483.59 179.28 481.51 175.97 480.85 C 171.92 480.49 167.88 482.17 163.86 481.27 C 162.43 477.97 162.74 474.29 162.47 470.79 C 164.31 469.93 166.54 469.36 167.32 467.25 C 171.23 459.87 175.42 452.65 179.32 445.27 C 178.26 444.47 175.78 444.07 177.21 442.34 C 181.29 439.54 185.78 437.35 190.20 435.13 C 189.76 434.56 188.89 433.43 188.45 432.86 C 189.06 432.43 190.28 431.56 190.89 431.12 C 187.46 427.44 184.45 423.27 180.18 420.49 C 175.52 425.37 170.68 430.07 166.09 435.01 C 162.06 439.59 160.63 445.92 156.37 450.30 C 149.63 455.61 142.72 460.70 135.98 466.01 C 134.13 467.38 132.33 468.93 130.11 469.66 C 129.08 468.54 128.16 467.34 127.21 466.16 C 120.07 470.49 112.92 474.82 105.85 479.27 C 102.98 484.05 97.05 485.49 93.05 489.12 C 89.40 492.41 84.45 493.77 79.62 492.88 C 79.09 489.76 77.08 485.64 80.39 483.38 C 87.68 479.45 96.15 477.87 103.04 473.19 C 108.80 466.90 115.27 461.24 120.84 454.78 C 120.40 452.46 118.78 450.45 118.71 448.07 C 125.41 443.83 132.56 440.35 139.44 436.42 C 141.78 434.96 145.11 434.18 146.10 431.32 C 149.78 421.88 153.64 412.50 157.24 403.04 C 156.96 399.53 156.00 396.11 155.40 392.66 C 154.73 392.52 153.40 392.26 152.73 392.13 C 153.90 387.41 155.14 382.71 156.43 378.03 C 153.89 371.79 151.71 365.41 149.10 359.20 C 146.82 363.09 144.79 367.11 143.12 371.30 C 139.64 375.56 135.96 379.67 132.66 384.09 C 132.88 385.65 133.00 387.23 133.39 388.77 C 134.65 390.89 137.04 392.37 137.20 395.06 C 137.76 398.66 139.60 401.81 141.08 405.07 C 139.95 407.99 137.51 404.90 136.07 403.83 C 134.54 402.58 134.78 399.13 132.32 399.47 C 130.88 405.64 130.00 411.93 128.66 418.13 C 126.34 417.59 124.04 416.98 121.74 416.36 C 121.15 411.13 119.77 406.04 118.81 400.87 C 119.41 397.81 121.09 395.09 122.20 392.19 C 125.96 384.25 128.65 375.74 133.40 368.31 C 139.46 363.42 142.38 356.02 146.35 349.53 C 140.38 348.69 134.69 346.63 128.81 345.35 C 118.99 344.13 110.02 338.71 100.00 338.80 C 94.30 339.50 88.56 339.54 82.85 340.11 C 82.30 339.88 81.20 339.42 80.65 339.19 C 80.37 336.76 80.10 334.33 79.79 331.91 C 68.33 327.57 57.10 322.69 45.65 318.35 C 40.25 315.89 34.54 313.76 29.88 309.99 C 27.82 306.58 30.02 302.45 32.02 299.53 Z" />
</svg>
