<?xml version="1.0" encoding="UTF-8" ?>
<!DOCTYPE svg PUBLIC "-//W3C//DTD SVG 1.1//EN" "http://www.w3.org/Graphics/SVG/1.1/DTD/svg11.dtd">
<svg width="512pt" height="512pt" viewBox="0 0 512 512" version="1.1" xmlns="http://www.w3.org/2000/svg">
<path fill="#3e3e3e" opacity="1.00" d=" M 0.00 0.00 L 512.00 0.00 L 512.00 512.00 L 0.00 512.00 L 0.00 0.00 Z" />
<path fill="#f5e5c1" opacity="1.00" d=" M 165.39 19.27 C 171.56 14.66 179.59 13.68 187.07 14.17 C 232.06 16.23 277.04 18.41 322.02 20.51 C 328.03 20.80 334.33 20.47 339.94 23.06 C 343.03 24.31 345.70 26.34 348.16 28.57 C 324.37 34.71 302.65 46.94 283.09 61.57 C 254.72 60.70 226.39 58.44 198.00 58.06 C 191.67 57.68 184.87 59.68 180.77 64.75 C 177.77 68.57 176.25 73.49 176.50 78.34 C 176.84 84.89 176.38 91.47 176.77 98.03 C 177.55 105.72 176.73 113.46 177.39 121.15 C 177.57 129.10 177.32 137.05 177.85 144.99 C 177.51 155.27 178.67 165.51 178.34 175.80 C 148.54 175.36 118.77 174.28 88.97 173.72 C 83.49 173.15 77.94 177.49 77.55 183.06 C 74.80 220.09 71.84 257.11 69.17 294.15 C 55.40 304.41 43.61 317.50 35.93 332.93 C 31.29 330.86 27.38 327.14 25.54 322.34 C 23.29 316.87 23.44 310.80 24.11 305.03 C 27.58 259.67 30.99 214.31 34.48 168.95 C 34.69 162.10 41.28 156.58 48.02 157.09 C 84.95 157.88 121.88 159.00 158.81 159.80 C 158.13 119.85 157.28 79.90 156.49 39.95 C 156.14 32.22 159.04 23.99 165.39 19.27 Z" />
<path fill="#f3722b" opacity="1.00" d=" M 341.55 41.38 C 364.40 33.41 389.76 31.83 413.06 38.89 C 437.98 46.41 460.31 62.21 476.23 82.73 C 454.93 65.04 430.58 49.37 402.84 44.61 C 382.20 40.91 360.53 45.04 342.37 55.40 C 318.43 68.98 300.15 90.46 285.19 113.19 C 265.13 144.01 250.53 178.03 238.34 212.63 C 228.66 240.57 220.64 269.09 214.44 298.01 C 193.05 279.72 165.48 269.02 137.49 267.01 C 156.26 232.65 176.44 199.01 199.16 167.10 C 218.11 140.54 238.82 115.10 262.50 92.59 C 285.48 71.05 311.49 51.69 341.55 41.38 Z" />
<path fill="#f5e5c1" opacity="1.00" d=" M 334.95 72.79 C 341.29 67.79 348.37 63.82 355.67 60.39 C 354.62 95.17 353.35 129.93 352.30 164.70 C 389.25 165.71 426.21 166.51 463.16 167.57 C 470.55 167.99 477.68 172.35 481.03 179.01 C 483.78 184.20 484.11 190.23 483.86 195.98 C 482.46 238.01 480.90 280.03 479.44 322.05 C 478.99 329.35 476.72 337.11 471.00 342.04 C 466.92 345.61 461.30 346.80 456.01 346.50 C 419.49 345.37 382.96 344.31 346.44 343.20 C 345.07 383.82 343.78 424.46 342.43 465.08 C 342.16 469.27 339.13 472.84 335.42 474.58 C 328.17 478.24 319.79 477.36 311.97 476.87 C 270.86 475.34 229.76 473.52 188.65 472.03 C 204.62 461.67 217.92 447.26 226.64 430.31 C 254.45 431.25 282.25 432.70 310.07 433.50 C 315.35 433.74 321.18 432.95 325.14 429.10 C 328.66 425.70 327.58 420.37 327.77 415.97 C 328.59 393.63 329.32 371.28 330.00 348.93 C 330.39 341.01 330.70 333.06 330.67 325.13 C 360.80 325.43 390.88 327.14 421.01 327.44 C 426.85 327.95 432.78 324.73 435.43 319.48 C 438.65 313.91 438.83 307.30 438.82 301.05 C 439.96 272.69 440.82 244.32 441.96 215.97 C 442.66 211.33 442.45 206.63 442.48 201.96 C 442.71 193.74 437.62 185.16 429.45 182.84 C 421.90 181.33 414.16 182.13 406.52 181.63 C 382.84 181.22 359.17 180.59 335.49 179.81 C 336.49 153.19 337.23 126.56 338.22 99.94 C 338.26 90.86 339.98 80.97 334.95 72.79 Z" />
<path fill="#f3722b" opacity="1.00" d=" M 129.06 281.83 C 147.28 281.67 165.60 286.40 181.23 295.83 C 201.64 307.93 217.27 327.78 224.35 350.41 C 230.75 370.92 230.36 393.57 222.92 413.75 C 215.39 434.42 200.63 452.34 181.83 463.76 C 150.61 483.27 108.29 482.68 77.58 462.39 C 58.30 450.15 43.86 430.78 37.12 409.01 C 31.77 391.81 31.20 373.17 35.78 355.73 C 42.21 329.82 59.95 307.08 83.30 294.21 C 97.24 286.37 113.10 282.28 129.06 281.83 Z" />
<path fill="#3e3e3e" opacity="1.00" d=" M 72.57 322.58 C 90.19 304.07 116.69 294.32 142.09 297.81 C 150.07 307.59 154.80 320.30 154.50 332.99 C 154.25 344.65 149.46 355.63 143.41 365.39 C 135.96 376.97 126.17 386.81 115.89 395.88 C 100.18 409.30 82.87 420.73 64.92 430.90 C 56.46 419.09 50.85 405.13 49.41 390.63 C 46.38 366.00 55.37 340.39 72.57 322.58 Z" />
<path fill="#3e3e3e" opacity="1.00" d=" M 155.84 300.84 C 174.77 306.53 191.25 319.67 201.30 336.67 C 209.73 350.49 213.71 366.81 213.31 382.95 C 213.38 384.61 212.99 386.52 211.26 387.20 C 173.35 407.18 138.36 432.41 106.11 460.56 C 92.97 455.94 80.31 448.87 71.21 438.13 C 96.49 423.81 120.86 407.08 140.55 385.52 C 153.47 370.99 164.26 353.00 164.51 333.03 C 164.93 321.66 160.82 310.85 155.84 300.84 Z" />
<path fill="#3e3e3e" opacity="1.00" d=" M 117.94 463.22 C 146.65 438.44 177.77 416.44 210.90 397.95 C 209.53 407.90 204.98 417.15 199.75 425.63 C 182.87 452.66 149.50 468.22 117.94 463.22 Z" />
</svg>
