<?xml version="1.0" encoding="UTF-8" standalone="no"?>
<svg
   xmlns:dc="http://purl.org/dc/elements/1.1/"
   xmlns:cc="http://creativecommons.org/ns#"
   xmlns:rdf="http://www.w3.org/1999/02/22-rdf-syntax-ns#"
   xmlns:svg="http://www.w3.org/2000/svg"
   xmlns="http://www.w3.org/2000/svg"
   xmlns:sodipodi="http://sodipodi.sourceforge.net/DTD/sodipodi-0.dtd"
   xmlns:inkscape="http://www.inkscape.org/namespaces/inkscape"
   width="1280"
   height="1280"
   viewBox="0 0 1024 1024"
   version="1.1"
   id="svg2"
   inkscape:version="0.48.1 "
   sodipodi:docname="stun_into_train.svg">
  <metadata
     id="metadata26">
    <rdf:RDF>
      <cc:Work
         rdf:about="">
        <dc:format>image/svg+xml</dc:format>
        <dc:type
           rdf:resource="http://purl.org/dc/dcmitype/StillImage" />
      </cc:Work>
    </rdf:RDF>
  </metadata>
  <defs
     id="defs24" />
  <sodipodi:namedview
     pagecolor="#ffffff"
     bordercolor="#666666"
     borderopacity="1"
     objecttolerance="10"
     gridtolerance="10"
     guidetolerance="10"
     inkscape:pageopacity="0"
     inkscape:pageshadow="2"
     inkscape:window-width="1920"
     inkscape:window-height="1018"
     id="namedview22"
     showgrid="false"
     inkscape:snap-page="true"
     fit-margin-top="0"
     fit-margin-left="0"
     fit-margin-right="0"
     fit-margin-bottom="0"
     inkscape:zoom="0.6609375"
     inkscape:cx="640"
     inkscape:cy="640"
     inkscape:window-x="-8"
     inkscape:window-y="-8"
     inkscape:window-maximized="1"
     inkscape:current-layer="svg2" />
  <rect
     style="fill:#3e3e3e;fill-opacity:1;stroke:none"
     id="rect3007"
     width="1024"
     height="1024"
     x="0"
     y="0" />
  <path
     d="m 579.25,35.5 c -7.27032,-0.0459 -14.63501,1.245 -20.8,5.1 -4.02,8.3 -3.02,18.25 -4.7,27.25 -28.14,-4.54 -55.82,-11.77 -83.9,-16.65 -4.98,-0.9 -5.77,5.42 -6.35,8.9 -2.6,18.02 -6.17,35.86 -8.45,53.9 2.02,11 4.43,22.02 3.85,33.3 27.98,1.2 55.97,2.04 83.95,3.3 -4.4,31.32 -8.35,62.72 -12.45,94.1 -67.36,5.84 -134.88,10.11 -202.4,13.45 -109.24,4.7 -218.78,7.64 -328,1.3 L 0,289 c 46,-0.56 91.98,-2.25 138,-2.65 32.68,-1.6 65.37,-1.01 98.05,-2.35 36.02,-1.18 72.1,-0.78 108.1,-2.5 40.58,-0.24 81.14,-1.65 121.7,-2.45 26.06,-0.84 52.08,1.11 78.1,2.15 13.9,2.46 27.39,7.05 41.15,10.25 9.34,1.7 15.57,9.25 22.65,14.85 13.96,11.36 27.37,23.38 41.25,34.8 2.54,2.16 5.15,4.3 7.15,7 2.64,4.78 -2.98,11.04 -8,8.7 -22.36,-7.36 -43.67,-18.29 -66.85,-23.05 -3.24,21.44 -6.46,42.91 -9.7,64.35 -0.6,2.74 -1.22,8.3 -5.3,7.2 -11.24,-6.34 -21.3,-14.65 -32.5,-21.05 -3.2,-2.52 -7.48,0.05 -8.6,3.45 -3.96,9.34 -6.82,19.08 -10.9,28.4 -7.42,-3.02 -11.58,-10.08 -16.7,-15.8 -6.42,-8.16 -14.35,-14.94 -20.75,-23.1 -5.58,-7.76 -12.1,-14.76 -18.3,-22 -72.82,-4.76 -145.66,-9.32 -218.5,-14.1 -14.02,-0.26 -27.96,-2.68 -42,-2 C 132.03,343.88 66,347.92 0,352.9 l 0,8.05 c 52.02,-2.06 104.03,-3.83 156.05,-5.85 20.52,0 41.03,-2.7 61.55,-1.6 80.38,8.7 160.84,16.53 241.2,25.55 19.46,22.6 39.26,44.93 58.7,67.55 2.32,2.84 5.44,4.81 8.5,6.75 3.24,-2.14 6.44,-4.9 5.6,-9.2 -0.8,-14.76 1.2,-29.37 2.3,-44.05 11.44,9.92 22.22,20.54 33.4,30.7 3.62,4.28 12.12,3.66 13.1,-2.6 4.04,-25.36 7.64,-50.85 10.8,-76.35 21.32,8.42 41.62,19.28 62.6,28.5 13.22,5.62 25.59,13.13 39.35,17.45 -1.02,-3.78 -2.01,-7.59 -4.05,-10.95 -20.08,-34.68 -39.51,-69.75 -59.55,-104.45 -2.74,-4.58 -4.78,-9.67 -8.4,-13.65 -16.46,-14.16 -37.05,-24.04 -58.85,-25.7 5,-30.28 10.75,-60.45 15.65,-90.75 18.46,0.22 36.89,1.04 55.35,1.5 -2.86,13.6 -7.47,26.79 -9.95,40.45 0.68,0.38 1.99,1.15 2.65,1.55 19.5,-8.08 38.34,-17.9 57.6,-26.6 8.58,-4.2 17.48,-7.77 25.7,-12.65 -13.8,-36.74 -28.5,-73.17 -42.5,-109.85 -1.24,-3.04 -2.68,-7.34 -6.7,-7.3 -3.74,1.24 -3.97,5.39 -4.55,8.65 -1.92,13.28 -4.02,26.52 -5.9,39.8 -19.4,-3.12 -38.5,-7.91 -57.8,-11.55 0.82,-12.32 4.9,-24.23 5.2,-36.55 -2.36,-3.6 -6.9,-3.16 -10.6,-3.8 -2.36,-0.27 -4.77656,-0.43469 -7.2,-0.45 z m -0.05,8.95 c 2.89301,0.0468 5.7925,0.2975 8.65,0.5 -1.22,9.76 -3.22,19.37 -4.9,29.05 -6.9,-0.88 -13.66,-2.56 -20.5,-3.7 0.24,-7.88 1.63,-15.6 2.65,-23.4 4.47501,-2.05 9.27832,-2.52793 14.1,-2.45 z m 83.95,15.45 c 10.44,29.86 22.62,59.12 34.1,88.6 -1.96,2.84 -3.67,6.15 -7.05,7.55 -18.92,10.26 -37.58,21.06 -56.6,31.1 -2.24,-3.86 -0.09,-8.06 1.05,-11.9 2.88,-9.2 6.23,-18.27 8.55,-27.65 -57.6,-1.84 -115.15,-4.91 -172.75,-6.65 -1.04,-6.32 -0.65,-12.74 -0.85,-19.1 -0.26,-5.76 -6.66,-9.79 -5.3,-15.85 0.6,-6.68 2.02,-13.26 2.9,-19.9 7.64,0.5 15.13,2.35 22.75,2.95 -6.98,-3.96 -14.2,-7.4 -21.3,-11.1 0.56,-5.98 1.61,-11.9 3.55,-17.6 8.9,0.34 17.42,2.96 26.1,4.6 48.7,10.38 97.45,20.52 146.15,30.8 4.06,0.5 10.9,4.72 12.4,-1.4 2.98,-11.3 3.28,-23.15 6.3,-34.45 z m -111.75,91 c 6,0.22 12,0.42 18,0.6 -6,36.18 -13.09,72.21 -18.15,108.55 -0.84,4.78 -6.93,7.02 -11.25,6.2 -6.48,-1.98 -2.59,-9.71 -2.15,-14.25 4.9,-33.64 9.11,-67.38 13.55,-101.1 z"
     id="path6"
     style="fill:#f5e5c1"
     inkscape:connector-curvature="0" />
  <path
     d="m 756.28,207.8 c -0.24,-3.18 1.94,-5.64 3.46,-8.2 39.92,-0.96 79.9,-0.46 119.84,-0.28 -0.44,179.22 0.12,358.44 -0.28,537.66 30.88,0.66 61.82,-0.2 92.7,0.42 0.44,0.64 1.3,1.9 1.74,2.54 C 921.28,809.5 868.14,878.6 815.54,948.08 762.26,878 709.72,807.36 656.5,737.24 c 33.14,-0.02 66.26,-0.14 99.4,0.08 0.78,-176.5 0.02,-353.02 0.38,-529.52 z"
     id="path14"
     inkscape:connector-curvature="0"
     style="fill:#f4722b" />
  <path
     d="m 605.35,368.1 c -13,57.28 -25.5,114.68 -38.3,172 -1.82,8.28 -3.09,16.72 -6.35,24.6 -40.16,13.5 -80.53,26.53 -120.75,39.85 -3.2,1.38 -6.61,0.74 -9.85,-0.1 -64.44,-16.48 -129.06,-32.41 -193.5,-48.95 -2.54,-0.56 -5.12,-0.46 -7.7,-0.5 0.2,2.64 -1.46,6.87 1.9,8.15 59.94,26.76 119.87,53.53 179.85,80.25 19.04,7.72 38.23,15.07 57.45,22.35 -15.06,40.08 -30.67,79.96 -45.55,120.1 -9.14,38.78 -17.33,77.79 -26.15,116.65 -1.88,9.42 -2.7,19.06 -5.8,28.2 -2.58,7.78 -3.2,16.72 -9,23 -9.82,10.92 -20,21.56 -28.6,33.5 -9.62,13.74 -24.05,23.1 -33.75,36.8 l 27.15,0 c 19.22,-21.32 38.57,-42.54 57.85,-63.8 2.74,-3.08 5.84,-6.18 6.6,-10.4 10.52,-51.96 20.66,-104.06 31.3,-156 13.92,-38.38 29.19,-76.29 43.45,-114.55 1.18,-3.66 3.4,-6.84 6.3,-9.3 32.22,-28.52 64.5,-56.99 96.6,-85.65 5.14,-3.9 5.39,-10.69 6.75,-16.45 11.82,-56.64 23.71,-113.25 35.65,-169.85 0.8,-6.02 5.62,-15.87 -2.6,-18.55 -7.8,-3.44 -15.39,-7.39 -22.95,-11.35 z m -324.3,208.55 c 9.28,0.48 18.05,3.9 27.05,5.9 42.68,10.56 85.14,21.83 127.9,31.95 37.8,-11.16 74.88,-24.88 112.6,-36.3 -24.6,27.48 -50.36,53.97 -75,81.45 -17.24,-8.74 -35.88,-14.33 -53.7,-21.75 -46.48,-19.92 -92.19,-41.77 -138.85,-61.25 z"
     id="path18"
     style="fill:#f5e5c1"
     inkscape:connector-curvature="0" />
</svg>
