<?xml version="1.0" encoding="UTF-8" ?>
<!DOCTYPE svg PUBLIC "-//W3C//DTD SVG 1.1//EN" "http://www.w3.org/Graphics/SVG/1.1/DTD/svg11.dtd">
<svg width="512pt" height="512pt" viewBox="0 0 512 512" version="1.1" xmlns="http://www.w3.org/2000/svg">
<path fill="#3e3e3e" opacity="1.00" d=" M 0.00 0.00 L 144.51 0.00 C 152.16 14.24 159.43 28.70 166.98 43.00 C 171.55 52.17 176.75 61.03 180.62 70.53 C 184.62 79.06 187.56 88.02 191.32 96.65 C 194.55 103.64 195.31 111.41 196.73 118.90 C 196.92 125.33 198.88 131.58 198.56 138.03 C 198.51 143.69 198.76 149.49 197.04 154.96 C 194.27 162.25 192.07 169.76 188.88 176.89 C 180.08 193.05 169.35 208.03 159.53 223.57 C 155.64 230.12 154.18 237.82 150.23 244.34 C 147.55 238.60 153.25 233.63 152.75 228.06 C 145.14 229.14 139.63 236.73 138.55 244.03 C 137.70 248.96 141.64 253.05 145.56 255.35 C 150.75 257.84 156.11 260.62 162.04 260.54 C 168.67 261.17 174.88 258.44 181.23 257.08 C 187.66 255.22 195.53 253.22 198.27 246.33 C 200.78 241.97 200.07 236.77 199.14 232.07 C 192.79 234.91 191.29 243.22 185.68 246.95 C 183.39 240.89 189.21 236.61 192.02 232.02 C 202.72 218.46 210.99 203.20 218.84 187.89 C 223.90 179.73 226.02 170.25 229.55 161.42 C 232.56 154.30 232.62 146.46 234.08 138.97 C 235.31 132.77 233.21 126.62 232.75 120.46 C 232.20 113.41 229.72 106.76 227.85 100.00 C 226.16 94.24 224.96 88.27 222.22 82.88 C 216.10 70.28 210.10 57.63 204.23 44.91 C 196.03 30.19 189.45 14.60 181.01 0.00 L 512.00 0.00 L 512.00 512.00 L 0.00 512.00 L 0.00 291.38 C 5.36 292.11 10.53 293.85 15.91 294.40 C 32.94 295.75 49.98 297.11 67.01 298.46 C 72.54 298.75 78.03 299.66 83.58 299.51 C 83.46 296.65 82.74 293.88 81.82 291.19 C 62.65 288.98 43.34 288.20 24.14 286.26 C 16.05 284.65 7.96 282.91 0.00 280.72 L 0.00 269.39 C 5.59 271.00 11.20 272.92 17.07 273.16 C 27.41 273.92 37.68 275.54 48.01 276.43 C 57.74 276.56 67.44 277.72 77.17 277.38 C 76.78 274.17 76.84 268.30 72.07 268.96 C 58.28 269.42 44.70 266.66 31.00 265.59 C 28.07 265.47 25.10 265.52 22.25 264.71 C 14.86 262.62 7.36 260.93 0.00 258.71 L 0.00 0.00 Z" />
<path fill="#f5e5c1" opacity="1.00" d=" M 144.51 0.00 L 152.15 0.00 C 161.50 17.33 170.76 34.72 180.24 51.97 C 185.62 62.87 191.23 73.66 196.35 84.68 C 200.16 92.37 201.60 100.90 204.11 109.04 C 206.09 119.59 208.41 130.20 208.48 140.99 C 207.28 158.20 199.91 174.13 192.21 189.28 C 180.58 207.35 168.74 225.28 157.07 243.32 C 158.95 245.35 160.85 248.07 163.93 248.11 C 167.19 248.22 170.56 247.78 173.53 246.39 C 175.03 245.22 175.83 243.41 176.82 241.85 C 186.70 224.76 196.67 207.73 206.69 190.74 C 209.75 185.65 212.45 180.36 214.75 174.89 C 217.69 166.94 222.46 159.55 223.20 150.91 C 224.13 139.66 224.83 128.21 222.89 117.02 C 220.38 107.09 217.23 97.31 213.19 87.90 C 209.02 77.71 205.60 67.18 200.47 57.41 C 193.02 42.57 185.63 27.70 178.18 12.86 C 176.04 8.61 173.20 4.67 172.02 0.00 L 181.01 0.00 C 189.45 14.60 196.03 30.19 204.23 44.91 C 210.10 57.63 216.10 70.28 222.22 82.88 C 224.96 88.27 226.16 94.24 227.85 100.00 C 229.72 106.76 232.20 113.41 232.75 120.46 C 233.21 126.62 235.31 132.77 234.08 138.97 C 232.62 146.46 232.56 154.30 229.55 161.42 C 226.02 170.25 223.90 179.73 218.84 187.89 C 210.99 203.20 202.72 218.46 192.02 232.02 C 189.21 236.61 183.39 240.89 185.68 246.95 C 191.29 243.22 192.79 234.91 199.14 232.07 C 200.07 236.77 200.78 241.97 198.27 246.33 C 195.53 253.22 187.66 255.22 181.23 257.08 C 174.88 258.44 168.67 261.17 162.04 260.54 C 156.11 260.62 150.75 257.84 145.56 255.35 C 141.64 253.05 137.70 248.96 138.55 244.03 C 139.63 236.73 145.14 229.14 152.75 228.06 C 153.25 233.63 147.55 238.60 150.23 244.34 C 154.18 237.82 155.64 230.12 159.53 223.57 C 169.35 208.03 180.08 193.05 188.88 176.89 C 192.07 169.76 194.27 162.25 197.04 154.96 C 198.76 149.49 198.51 143.69 198.56 138.03 C 198.88 131.58 196.92 125.33 196.73 118.90 C 195.31 111.41 194.55 103.64 191.32 96.65 C 187.56 88.02 184.62 79.06 180.62 70.53 C 176.75 61.03 171.55 52.17 166.98 43.00 C 159.43 28.70 152.16 14.24 144.51 0.00 Z" />
<path fill="#3e3e3e" opacity="1.00" d=" M 152.15 0.00 L 172.02 0.00 C 173.20 4.67 176.04 8.61 178.18 12.86 C 185.63 27.70 193.02 42.57 200.47 57.41 C 205.60 67.18 209.02 77.71 213.19 87.90 C 217.23 97.31 220.38 107.09 222.89 117.02 C 224.83 128.21 224.13 139.66 223.20 150.91 C 222.46 159.55 217.69 166.94 214.75 174.89 C 212.45 180.36 209.75 185.65 206.69 190.74 C 196.67 207.73 186.70 224.76 176.82 241.85 C 175.83 243.41 175.03 245.22 173.53 246.39 C 170.56 247.78 167.19 248.22 163.93 248.11 C 160.85 248.07 158.95 245.35 157.07 243.32 C 168.74 225.28 180.58 207.35 192.21 189.28 C 199.91 174.13 207.28 158.20 208.48 140.99 C 208.41 130.20 206.09 119.59 204.11 109.04 C 201.60 100.90 200.16 92.37 196.35 84.68 C 191.23 73.66 185.62 62.87 180.24 51.97 C 170.76 34.72 161.50 17.33 152.15 0.00 Z" />
<path fill="#f5e5c1" opacity="1.00" d=" M 220.41 197.00 C 220.27 194.58 222.09 191.37 224.94 192.17 C 290.02 197.30 355.10 202.68 420.19 207.75 C 425.34 208.99 430.21 211.17 435.25 212.79 C 439.75 214.12 443.37 217.22 447.40 219.49 C 453.58 222.65 458.45 227.70 463.62 232.20 C 466.75 237.22 469.61 242.46 472.20 247.79 C 472.86 253.84 473.89 259.92 473.50 266.03 C 472.86 272.76 472.94 279.75 469.66 285.87 C 466.01 296.55 460.04 306.30 453.34 315.27 C 443.74 320.93 433.54 325.51 423.75 330.84 C 419.55 333.30 414.52 332.83 409.86 333.37 C 404.90 333.58 399.94 334.46 394.97 333.96 C 316.25 327.12 237.58 319.78 158.92 312.44 C 154.59 312.02 150.21 311.83 145.95 310.98 C 141.82 309.76 137.90 307.93 133.98 306.18 C 130.17 304.50 127.45 301.28 124.57 298.41 C 119.37 293.52 116.94 286.62 113.31 280.64 C 110.34 273.89 107.98 266.86 105.76 259.84 C 106.18 252.91 106.93 245.99 107.62 239.07 C 109.25 229.98 116.91 224.20 122.89 217.88 C 127.84 213.48 133.15 209.47 138.46 205.51 C 148.42 200.36 158.96 196.22 169.96 193.90 C 172.42 195.08 169.82 197.46 168.87 198.85 C 162.49 201.34 155.52 202.25 149.41 205.52 C 142.36 207.75 137.03 212.96 131.31 217.36 C 127.55 220.23 124.83 224.18 121.38 227.38 C 117.92 230.47 116.72 235.13 114.55 239.08 C 115.24 241.57 112.61 243.46 113.57 245.86 C 116.22 256.79 118.77 267.76 121.77 278.61 C 132.53 286.22 144.95 291.63 157.94 293.99 C 228.35 300.04 298.74 306.38 369.16 312.31 C 384.71 313.23 400.25 315.30 415.85 314.34 C 421.74 312.85 427.68 311.43 433.42 309.47 C 440.56 305.91 448.12 302.56 453.81 296.80 C 457.36 291.24 462.59 286.53 464.22 279.93 C 464.81 272.99 466.20 266.02 465.14 259.05 C 464.46 255.67 465.12 251.88 463.07 248.89 C 460.80 245.12 459.08 241.01 456.55 237.40 C 449.19 229.79 440.31 223.82 430.86 219.15 C 425.22 217.35 419.79 214.76 413.99 213.57 C 351.67 208.47 289.32 203.51 226.99 198.56 C 224.84 198.26 221.90 198.90 220.41 197.00 Z" />
<path fill="#f5e5c1" opacity="1.00" d=" M 101.35 245.08 C 103.80 244.55 102.77 247.75 102.65 249.14 C 101.94 253.57 96.96 255.39 95.50 259.47 C 93.94 263.33 91.75 266.95 90.48 270.93 C 90.77 274.16 92.81 276.87 94.28 279.67 C 119.98 326.66 145.63 373.68 171.31 420.67 C 172.85 423.40 174.08 426.33 175.93 428.87 C 180.52 431.76 185.08 434.76 189.88 437.30 C 199.73 441.23 209.82 444.52 219.77 448.15 C 225.83 449.23 232.02 449.49 238.13 450.27 C 242.41 450.50 246.68 451.59 250.97 451.00 C 262.26 449.69 273.60 448.84 284.87 447.35 C 292.20 445.42 299.29 442.66 306.54 440.43 C 310.09 439.14 314.02 438.52 317.04 436.08 C 323.81 430.83 330.82 425.88 337.44 420.44 C 341.76 415.05 345.71 409.36 349.96 403.90 C 351.99 401.74 351.56 398.60 352.06 395.91 C 352.70 389.25 354.03 382.66 354.47 375.99 C 353.11 371.27 350.29 367.13 348.57 362.54 C 342.98 353.28 335.12 345.66 328.52 337.17 L 328.60 335.53 C 331.55 335.63 335.42 334.76 337.54 337.40 C 347.71 349.92 358.02 362.33 368.22 374.82 C 369.39 376.26 370.47 377.94 370.44 379.88 C 370.53 384.76 372.00 389.78 370.40 394.56 C 368.89 399.38 367.29 404.19 366.03 409.09 C 362.99 414.13 361.42 420.02 357.39 424.44 C 354.00 429.52 349.65 433.86 345.03 437.81 C 338.44 442.26 332.06 447.03 325.30 451.22 C 316.61 455.32 307.83 459.28 299.00 463.06 C 290.08 465.70 280.95 467.60 271.97 470.00 C 263.49 472.42 254.61 470.92 245.96 471.94 C 236.54 472.71 227.22 471.01 217.95 469.62 C 209.94 469.09 202.58 465.70 194.92 463.64 C 190.11 462.63 186.65 458.93 182.68 456.33 C 177.29 452.94 174.78 446.87 171.06 441.97 C 164.47 431.55 156.64 421.86 151.33 410.68 C 128.83 365.41 106.71 319.95 84.33 274.63 C 81.49 268.94 86.66 263.53 88.43 258.33 C 92.16 253.47 96.42 248.77 101.35 245.08 Z" />
<path fill="#f5e5c1" opacity="1.00" d=" M 0.00 258.71 C 7.36 260.93 14.86 262.62 22.25 264.71 C 25.10 265.52 28.07 265.47 31.00 265.59 C 44.70 266.66 58.28 269.42 72.07 268.96 C 76.84 268.30 76.78 274.17 77.17 277.38 C 67.44 277.72 57.74 276.56 48.01 276.43 C 37.68 275.54 27.41 273.92 17.07 273.16 C 11.20 272.92 5.59 271.00 0.00 269.39 L 0.00 258.71 Z" />
<path fill="#f5e5c1" opacity="1.00" d=" M 0.00 280.72 C 7.96 282.91 16.05 284.65 24.14 286.26 C 43.34 288.20 62.65 288.98 81.82 291.19 C 82.74 293.88 83.46 296.65 83.58 299.51 C 78.03 299.66 72.54 298.75 67.01 298.46 C 49.98 297.11 32.94 295.75 15.91 294.40 C 10.53 293.85 5.36 292.11 0.00 291.38 L 0.00 280.72 Z" />
</svg>
