<?xml version="1.0" encoding="UTF-8" ?>
<!DOCTYPE svg PUBLIC "-//W3C//DTD SVG 1.1//EN" "http://www.w3.org/Graphics/SVG/1.1/DTD/svg11.dtd">
<svg width="512pt" height="512pt" viewBox="0 0 512 512" version="1.1" xmlns="http://www.w3.org/2000/svg">
<path fill="#3e3e3e" opacity="1.00" d=" M 0.00 0.00 L 172.50 0.00 C 172.63 5.39 171.22 10.66 171.29 16.06 C 170.45 21.48 170.71 27.16 168.57 32.31 C 149.39 79.29 130.46 126.36 111.22 173.31 C 108.12 173.35 104.64 172.96 102.06 175.08 C 96.79 179.43 91.92 184.26 86.68 188.65 C 84.49 190.46 82.61 192.63 81.16 195.07 C 76.05 203.58 70.91 212.08 65.67 220.51 C 64.19 222.80 63.14 225.34 62.63 228.02 C 59.23 244.20 55.82 260.37 52.36 276.54 C 50.98 282.68 53.06 288.87 53.39 295.02 C 53.39 299.25 56.03 302.73 57.72 306.42 C 60.43 311.72 62.94 317.12 65.73 322.37 C 68.92 327.63 73.83 331.51 77.63 336.29 C 82.40 341.20 86.48 347.04 92.64 350.33 C 99.54 354.25 106.21 358.59 112.12 363.91 C 119.03 368.63 123.52 375.83 129.05 381.95 C 141.91 395.73 149.22 413.35 157.94 429.79 C 162.73 437.83 164.85 447.15 169.71 455.16 C 171.69 458.17 174.42 460.57 176.97 463.08 C 180.78 466.67 184.79 470.48 190.01 471.81 C 203.77 475.83 217.38 480.33 231.18 484.22 C 250.93 487.85 270.91 490.17 290.74 493.25 C 293.08 494.08 295.42 495.06 297.97 494.87 C 327.99 495.16 358.01 494.92 388.04 495.00 C 390.37 494.74 393.49 495.43 394.95 493.06 C 408.10 490.17 421.16 486.84 434.31 483.89 C 437.11 483.12 440.32 482.60 442.34 480.29 C 442.75 476.55 442.35 472.77 442.47 469.02 C 442.58 463.65 441.00 458.44 440.61 453.11 C 440.30 450.00 440.29 446.45 438.00 444.04 C 432.87 438.50 427.92 432.81 422.61 427.45 C 419.12 423.70 413.97 422.46 409.49 420.34 C 399.15 415.73 388.61 411.53 378.38 406.69 C 361.68 396.37 345.12 385.80 328.55 375.28 C 322.43 369.89 316.21 364.47 310.83 358.32 C 293.87 333.24 277.06 308.04 260.17 282.91 C 253.27 272.12 245.10 262.06 239.86 250.30 C 237.53 244.89 233.51 240.01 233.24 233.91 C 230.92 232.67 228.58 231.47 226.25 230.27 C 228.93 221.62 230.67 212.68 233.87 204.20 C 237.93 195.23 241.75 186.13 246.18 177.33 C 265.82 144.29 285.44 111.22 305.14 78.22 C 324.20 52.03 344.19 26.51 362.81 0.00 L 512.00 0.00 L 512.00 512.00 L 0.00 512.00 L 0.00 0.00 Z" />
<path fill="#f5e5c1" opacity="1.00" d=" M 172.50 0.00 L 185.57 0.00 C 183.97 13.29 182.98 26.66 182.10 40.01 C 180.98 46.32 182.04 52.84 180.24 59.07 C 177.77 53.11 177.72 46.53 175.32 40.58 C 174.50 40.62 173.69 40.65 172.89 40.69 C 171.72 44.41 170.49 48.10 168.97 51.69 C 150.88 97.95 130.00 143.05 109.95 188.48 C 103.60 200.98 104.36 215.44 104.60 229.06 C 104.55 231.65 105.89 233.95 106.99 236.21 C 109.15 240.43 111.16 244.73 112.94 249.13 C 121.18 253.46 129.63 257.71 138.69 260.02 C 146.39 261.23 154.23 260.66 161.99 260.69 C 166.12 260.40 170.48 260.83 174.42 259.31 C 178.13 254.43 179.62 248.24 183.12 243.23 C 189.70 236.50 197.56 230.74 206.61 227.83 C 208.72 227.37 210.94 227.56 213.04 227.02 C 217.12 218.36 217.67 208.38 222.02 199.78 C 226.10 191.22 229.45 182.30 234.02 173.98 C 253.02 142.04 271.99 110.07 291.01 78.14 C 293.92 73.13 297.65 68.68 301.05 64.01 C 313.55 47.22 326.17 30.51 338.60 13.66 C 342.05 9.18 344.80 4.16 348.65 0.00 L 362.81 0.00 C 344.19 26.51 324.20 52.03 305.14 78.22 C 285.44 111.22 265.82 144.29 246.18 177.33 C 241.75 186.13 237.93 195.23 233.87 204.20 C 230.67 212.68 228.93 221.62 226.25 230.27 C 228.58 231.47 230.92 232.67 233.24 233.91 C 233.51 240.01 237.53 244.89 239.86 250.30 C 245.10 262.06 253.27 272.12 260.17 282.91 C 277.06 308.04 293.87 333.24 310.83 358.32 C 316.21 364.47 322.43 369.89 328.55 375.28 C 345.12 385.80 361.68 396.37 378.38 406.69 C 388.61 411.53 399.15 415.73 409.49 420.34 C 413.97 422.46 419.12 423.70 422.61 427.45 C 427.92 432.81 432.87 438.50 438.00 444.04 C 440.29 446.45 440.30 450.00 440.61 453.11 C 441.00 458.44 442.58 463.65 442.47 469.02 C 442.35 472.77 442.75 476.55 442.34 480.29 C 440.32 482.60 437.11 483.12 434.31 483.89 C 421.16 486.84 408.10 490.17 394.95 493.06 C 393.49 495.43 390.37 494.74 388.04 495.00 C 358.01 494.92 327.99 495.16 297.97 494.87 C 295.42 495.06 293.08 494.08 290.74 493.25 C 270.91 490.17 250.93 487.85 231.18 484.22 C 217.38 480.33 203.77 475.83 190.01 471.81 C 184.79 470.48 180.78 466.67 176.97 463.08 C 174.42 460.57 171.69 458.17 169.71 455.16 C 164.85 447.15 162.73 437.83 157.94 429.79 C 149.22 413.35 141.91 395.73 129.05 381.95 C 123.52 375.83 119.03 368.63 112.12 363.91 C 106.21 358.59 99.54 354.25 92.64 350.33 C 86.48 347.04 82.40 341.20 77.63 336.29 C 73.83 331.51 68.92 327.63 65.73 322.37 C 62.94 317.12 60.43 311.72 57.72 306.42 C 56.03 302.73 53.39 299.25 53.39 295.02 C 53.06 288.87 50.98 282.68 52.36 276.54 C 55.82 260.37 59.23 244.20 62.63 228.02 C 63.14 225.34 64.19 222.80 65.67 220.51 C 70.91 212.08 76.05 203.58 81.16 195.07 C 82.61 192.63 84.49 190.46 86.68 188.65 C 91.92 184.26 96.79 179.43 102.06 175.08 C 104.64 172.96 108.12 173.35 111.22 173.31 C 130.46 126.36 149.39 79.29 168.57 32.31 C 170.71 27.16 170.45 21.48 171.29 16.06 C 171.22 10.66 172.63 5.39 172.50 0.00 Z" />
<path fill="#3e3e3e" opacity="1.00" d=" M 185.57 0.00 L 348.65 0.00 C 344.80 4.16 342.05 9.18 338.60 13.66 C 326.17 30.51 313.55 47.22 301.05 64.01 C 297.65 68.68 293.92 73.13 291.01 78.14 C 271.99 110.07 253.02 142.04 234.02 173.98 C 229.45 182.30 226.10 191.22 222.02 199.78 C 217.67 208.38 217.12 218.36 213.04 227.02 C 210.94 227.56 208.72 227.37 206.61 227.83 C 197.56 230.74 189.70 236.50 183.12 243.23 C 179.62 248.24 178.13 254.43 174.42 259.31 C 170.48 260.83 166.12 260.40 161.99 260.69 C 154.23 260.66 146.39 261.23 138.69 260.02 C 129.63 257.71 121.18 253.46 112.94 249.13 C 111.16 244.73 109.15 240.43 106.99 236.21 C 105.89 233.95 104.55 231.65 104.60 229.06 C 104.36 215.44 103.60 200.98 109.95 188.48 C 130.00 143.05 150.88 97.95 168.97 51.69 C 170.49 48.10 171.72 44.41 172.89 40.69 C 173.69 40.65 174.50 40.62 175.32 40.58 C 177.72 46.53 177.77 53.11 180.24 59.07 C 182.04 52.84 180.98 46.32 182.10 40.01 C 182.98 26.66 183.97 13.29 185.57 0.00 Z" />
<path fill="#f5e5c1" opacity="1.00" d=" M 140.81 175.87 C 143.21 173.41 148.61 173.33 149.87 177.01 C 146.78 179.89 143.22 182.18 140.03 184.93 C 135.77 188.77 130.39 191.52 127.37 196.60 C 122.27 203.72 123.47 213.15 126.04 221.01 C 127.59 226.04 129.05 231.13 130.86 236.08 C 131.28 237.41 131.57 238.77 131.80 240.15 C 127.42 236.94 122.22 234.13 119.79 229.02 C 117.48 224.62 114.35 220.27 114.42 215.07 C 114.33 210.03 112.58 204.68 114.72 199.86 C 116.82 196.69 119.18 193.61 122.20 191.26 C 128.44 186.17 134.62 181.01 140.81 175.87 Z" />
<path fill="#3e3e3e" opacity="1.00" d=" M 82.51 216.23 C 85.89 210.87 88.87 205.24 92.54 200.07 C 91.71 207.36 93.11 214.78 91.59 222.01 C 92.74 225.67 94.39 229.22 94.83 233.08 C 96.00 236.51 96.83 240.05 97.68 243.58 C 102.84 249.39 108.90 254.28 114.58 259.56 C 116.67 261.43 119.37 262.38 122.03 263.09 C 128.38 264.60 134.63 266.47 140.97 268.02 C 147.20 269.25 153.71 268.81 159.95 267.85 C 167.32 267.37 174.72 267.86 182.10 267.40 C 184.97 266.14 187.74 264.18 189.10 261.27 C 190.83 257.28 192.39 253.18 194.67 249.46 C 197.20 246.31 200.72 244.18 203.83 241.67 C 204.38 241.56 205.46 241.34 206.00 241.23 C 208.94 240.11 212.12 240.01 215.13 239.15 C 217.00 238.72 219.77 238.06 220.86 240.20 C 224.81 247.68 228.22 255.46 232.39 262.83 C 254.11 295.35 275.98 327.76 297.72 360.27 C 300.32 363.95 303.89 366.78 307.02 370.00 C 310.78 373.50 314.15 377.51 318.53 380.30 C 334.06 390.20 349.69 399.95 365.22 409.85 C 368.08 411.69 371.12 413.25 374.25 414.59 C 385.50 419.39 396.67 424.35 407.92 429.13 C 411.67 430.85 413.88 434.48 416.65 437.35 C 419.71 440.91 423.33 443.97 426.22 447.67 C 427.36 452.39 427.86 457.28 427.85 462.15 C 425.70 464.61 423.57 467.09 421.21 469.35 C 414.65 469.44 408.48 471.98 402.01 472.81 C 391.36 474.45 380.93 478.25 370.04 477.71 C 362.33 477.70 354.61 477.77 346.90 477.75 L 346.11 478.27 C 334.74 478.35 323.37 478.46 312.01 478.82 C 301.26 480.28 290.74 476.94 280.11 476.01 C 264.58 472.98 248.46 472.71 233.42 467.42 C 220.31 463.41 207.21 459.35 194.04 455.52 C 185.81 451.66 182.46 442.65 179.31 434.76 C 174.24 424.95 167.87 415.83 163.30 405.75 C 158.93 395.96 152.50 387.29 146.16 378.71 C 142.18 373.71 138.97 367.88 133.75 364.03 C 122.89 357.24 111.79 350.84 100.83 344.20 C 95.71 340.70 92.36 335.31 87.98 331.00 C 83.91 326.45 79.14 322.25 76.67 316.53 C 73.99 310.88 71.03 305.36 68.30 299.73 C 67.25 297.59 66.61 295.26 66.43 292.89 C 65.72 286.70 64.54 280.32 66.22 274.19 C 69.31 259.83 72.37 245.47 75.41 231.09 C 75.93 225.43 79.84 221.01 82.51 216.23 Z" />
<path fill="#f5e5c1" opacity="1.00" d=" M 197.67 251.12 C 198.29 251.20 199.52 251.36 200.14 251.44 C 213.29 274.10 226.36 296.83 239.46 319.52 C 240.77 321.72 242.26 323.88 242.77 326.45 C 240.20 326.63 237.61 326.89 235.04 326.56 C 233.43 326.15 232.74 324.37 231.85 323.14 C 222.05 306.57 212.21 290.03 202.34 273.50 C 200.61 270.53 199.09 267.31 196.30 265.17 C 196.01 260.42 197.21 255.81 197.67 251.12 Z" />
<path fill="#f5e5c1" opacity="1.00" d=" M 199.45 320.63 C 204.08 318.00 209.26 313.66 214.82 316.22 C 218.18 319.78 220.03 324.47 222.77 328.49 C 223.86 329.82 223.58 331.55 223.61 333.16 C 213.52 338.62 203.02 343.30 192.95 348.79 C 183.24 355.47 173.78 362.52 164.15 369.31 C 160.74 371.67 159.58 375.86 157.14 379.02 C 153.00 373.13 149.35 366.92 145.31 360.95 C 153.95 352.31 163.53 344.75 173.18 337.29 C 181.11 330.52 190.65 326.10 199.45 320.63 Z" />
<path fill="#f5e5c1" opacity="1.00" d=" M 220.23 351.23 C 223.36 349.64 226.18 346.76 229.97 347.21 C 231.73 347.47 234.39 346.63 235.29 348.68 C 237.46 352.71 240.40 356.23 242.94 360.02 C 244.05 361.22 243.51 363.26 241.96 363.80 C 231.50 369.87 220.53 375.02 210.08 381.10 C 202.46 386.77 195.03 392.70 187.53 398.52 C 183.84 402.07 180.76 406.27 178.02 410.58 C 177.35 410.53 176.68 410.47 176.02 410.40 C 173.14 403.59 170.19 396.81 166.96 390.16 C 166.47 389.16 165.94 387.79 166.83 386.84 C 170.25 382.61 173.53 378.03 178.43 375.40 C 185.45 371.25 191.50 365.58 198.92 362.12 C 206.03 358.49 213.18 354.96 220.23 351.23 Z" />
<path fill="#f5e5c1" opacity="1.00" d=" M 388.97 443.17 C 392.27 441.69 395.58 439.92 399.24 439.55 C 399.42 441.05 399.58 442.55 399.75 444.06 C 400.82 448.52 402.51 452.87 402.69 457.50 C 393.29 462.32 382.49 463.77 372.02 463.70 C 367.88 463.75 363.31 464.76 359.65 462.27 C 359.09 460.26 358.54 458.24 358.12 456.21 C 357.27 453.87 356.65 451.44 356.54 448.95 C 357.02 448.59 358.00 447.87 358.49 447.51 C 367.99 447.77 377.48 446.07 386.64 443.69 C 387.22 443.56 388.38 443.30 388.97 443.17 Z" />
</svg>
