<?xml version="1.0" encoding="UTF-8" ?>
<!DOCTYPE svg PUBLIC "-//W3C//DTD SVG 1.1//EN" "http://www.w3.org/Graphics/SVG/1.1/DTD/svg11.dtd">
<svg width="514pt" height="516pt" viewBox="0 0 514 516" version="1.1" xmlns="http://www.w3.org/2000/svg">
<path fill="#3e3e3e" opacity="1.00" d=" M 0.00 0.00 L 514.00 0.00 L 514.00 516.00 L 0.00 516.00 L 0.00 0.00 Z" />
<path fill="#f4722b" opacity="1.00" d=" M 230.70 52.80 C 241.33 48.89 252.74 47.65 264.00 47.39 C 268.74 47.27 273.60 46.92 278.19 48.38 C 283.24 50.01 288.28 51.72 293.23 53.64 C 298.71 55.74 303.28 59.50 308.14 62.70 C 313.90 66.53 319.28 71.02 323.69 76.37 C 327.70 80.88 328.02 87.26 328.55 92.97 C 329.41 104.19 325.20 115.01 319.68 124.55 C 314.86 131.41 307.66 136.03 301.49 141.56 C 296.43 146.24 293.95 153.76 295.91 160.46 C 296.94 164.01 297.68 167.64 297.90 171.34 C 292.21 173.59 286.54 176.03 280.47 177.03 C 279.55 173.53 278.73 170.01 278.13 166.45 C 276.37 165.83 274.56 165.39 272.72 165.16 C 272.47 169.94 272.38 174.73 271.87 179.49 C 265.34 180.82 258.72 182.27 252.04 182.19 C 247.85 178.81 250.27 172.71 248.85 168.15 C 247.36 168.26 245.87 168.30 244.41 168.58 C 241.87 173.03 240.99 178.21 238.80 182.84 C 232.11 182.70 225.40 181.70 219.20 179.09 C 219.89 173.68 222.00 168.55 222.41 163.09 C 222.91 157.80 224.31 152.40 223.05 147.13 C 221.91 144.77 218.90 144.77 216.76 143.84 C 210.06 141.33 202.80 138.61 198.50 132.53 C 194.88 127.38 189.37 123.25 188.08 116.77 C 186.60 110.51 183.99 104.45 183.58 97.98 C 183.05 91.37 187.02 85.63 190.20 80.19 C 192.79 75.56 197.17 72.47 201.07 69.04 C 209.39 61.24 220.06 56.54 230.70 52.80 Z" />
<path fill="#3e3e3e" opacity="1.00" d=" M 281.41 83.70 C 290.06 81.78 300.51 81.13 307.65 87.37 C 314.70 93.56 314.29 105.42 307.97 112.01 C 301.04 120.84 285.04 120.88 279.22 110.84 C 276.31 105.71 270.95 101.41 271.20 95.00 C 270.13 88.84 276.60 85.47 281.41 83.70 Z" />
<path fill="#3e3e3e" opacity="1.00" d=" M 208.33 94.34 C 213.55 89.31 220.71 86.16 228.01 86.24 C 231.71 86.23 235.73 85.94 239.02 87.96 C 242.08 89.88 244.72 93.15 244.66 96.92 C 245.02 104.68 240.77 111.53 237.24 118.10 C 234.76 122.81 230.21 125.76 226.04 128.80 C 217.18 128.21 210.15 121.62 205.68 114.45 C 201.68 108.23 202.92 99.32 208.33 94.34 Z" />
<path fill="#3e3e3e" opacity="1.00" d=" M 263.58 131.73 C 264.44 128.66 267.57 127.13 270.48 128.69 C 275.00 131.31 279.41 134.99 281.43 139.94 C 281.42 144.43 277.67 147.80 274.89 150.95 C 273.20 153.38 268.62 153.76 267.51 150.63 C 265.28 144.57 265.15 137.97 263.58 131.73 Z" />
<path fill="#3e3e3e" opacity="1.00" d=" M 243.27 142.98 C 244.06 138.13 246.29 133.48 249.85 130.04 C 251.72 130.76 255.01 130.57 255.42 133.11 C 256.70 139.61 256.73 146.39 255.39 152.88 C 251.13 152.58 248.31 149.25 245.31 146.64 C 244.31 145.64 242.76 144.64 243.27 142.98 Z" />
<path fill="#f4722b" opacity="1.00" d=" M 174.83 173.79 C 177.15 171.39 180.73 169.93 184.05 170.85 C 189.40 171.89 191.15 177.82 194.69 181.24 C 202.79 189.48 210.18 198.57 219.54 205.45 C 229.25 212.13 239.63 217.76 249.95 223.43 C 246.02 225.84 242.01 228.13 238.07 230.52 C 229.97 226.02 221.89 221.49 213.55 217.45 C 205.82 213.71 198.15 209.80 190.96 205.10 C 185.17 200.92 177.36 205.49 171.35 201.70 C 167.03 199.47 165.33 193.64 167.46 189.34 C 168.54 186.52 171.26 184.96 173.63 183.34 C 173.57 180.17 172.55 176.43 174.83 173.79 Z" />
<path fill="#f4722b" opacity="1.00" d=" M 321.92 180.88 C 325.23 177.66 330.49 176.37 334.82 178.10 C 338.62 180.59 339.54 185.43 340.53 189.55 C 343.94 191.29 347.34 193.56 348.88 197.24 C 351.14 201.31 350.98 207.10 347.13 210.16 C 343.25 213.56 337.69 212.96 332.96 212.34 C 328.70 211.84 324.35 209.25 320.10 211.09 C 299.93 218.84 279.94 227.27 261.31 238.29 C 252.74 242.47 244.90 247.90 236.70 252.72 C 225.47 259.43 215.10 267.54 203.41 273.49 C 201.23 274.76 198.61 275.78 197.43 278.18 C 195.19 282.19 193.46 286.91 189.38 289.46 C 185.35 291.96 179.66 290.80 176.85 287.01 C 174.65 284.65 174.67 281.29 174.42 278.29 C 171.63 277.01 168.35 275.82 166.88 272.89 C 165.23 268.38 167.51 262.91 171.83 260.86 C 176.09 259.67 180.61 259.89 184.87 258.70 C 194.80 256.04 205.07 254.50 214.60 250.51 C 229.90 243.80 243.57 234.02 258.27 226.16 C 268.24 220.47 278.30 214.93 288.54 209.73 C 296.02 205.87 303.83 202.54 310.77 197.71 C 315.84 193.08 316.85 185.54 321.92 180.88 Z" />
<path fill="#f4722b" opacity="1.00" d=" M 262.22 244.79 C 266.16 242.56 269.87 239.88 274.06 238.13 C 287.04 244.58 298.18 254.28 311.13 260.85 C 318.07 263.22 325.73 259.91 332.66 262.53 C 336.67 264.04 340.00 267.66 340.63 271.97 C 340.51 276.56 336.66 279.74 333.59 282.66 C 333.71 286.34 333.63 290.28 331.35 293.38 C 328.85 297.56 323.31 300.98 318.53 298.55 C 313.38 296.28 311.03 290.68 309.43 285.66 C 308.24 282.35 308.04 278.29 304.98 276.04 C 291.23 264.97 277.30 254.02 262.22 244.79 Z" />
<path fill="#f5e5c1" opacity="1.00" d=" M 248.92 268.63 C 248.41 264.63 247.04 260.60 248.20 256.58 C 253.37 256.57 258.53 256.42 263.70 256.55 C 264.68 258.09 265.71 259.60 266.78 261.08 C 266.72 263.67 267.24 267.05 264.41 268.42 C 259.28 268.99 254.07 268.99 248.92 268.63 Z" />
<path fill="#f5e5c1" opacity="1.00" d=" M 222.66 270.18 C 228.54 266.13 234.28 261.80 240.67 258.60 C 240.34 262.42 238.67 265.91 237.36 269.47 C 232.46 269.54 227.54 269.63 222.66 270.18 Z" />
<path fill="#f5e5c1" opacity="1.00" d=" M 342.08 260.17 C 349.17 260.87 356.33 261.17 363.34 262.47 C 361.02 264.34 358.64 266.14 356.26 267.92 C 356.66 269.86 357.14 271.78 357.64 273.70 C 354.33 273.65 351.04 273.47 347.75 273.28 C 347.55 268.31 344.98 264.04 342.08 260.17 Z" />
<path fill="#f5e5c1" opacity="1.00" d=" M 275.98 262.29 C 278.78 264.36 281.65 266.35 284.37 268.55 C 281.06 268.60 277.76 268.61 274.45 268.63 C 275.10 266.55 275.60 264.43 275.98 262.29 Z" />
<path fill="#f5e5c1" opacity="1.00" d=" M 141.24 267.98 C 147.35 266.66 153.55 265.76 159.69 264.55 C 159.38 268.78 159.44 273.08 160.73 277.16 C 156.89 277.50 153.10 278.74 149.22 278.49 C 146.13 275.43 141.31 272.84 141.24 267.98 Z" />
<path fill="#f5e5c1" opacity="1.00" d=" M 367.95 270.76 C 375.22 269.27 382.45 266.63 389.97 267.36 C 394.03 267.84 398.17 267.20 402.19 268.11 C 411.62 270.13 421.24 272.00 429.98 276.24 C 420.46 276.17 410.59 275.94 401.64 279.67 C 401.46 280.74 401.34 281.83 401.28 282.93 C 399.85 284.67 399.35 287.94 396.99 288.41 C 393.57 287.28 389.66 286.63 387.38 283.54 C 385.42 283.20 383.47 282.88 381.52 282.57 C 381.28 281.94 380.79 280.68 380.54 280.05 C 374.87 278.40 369.07 277.04 363.88 274.11 C 364.99 272.73 365.99 270.98 367.95 270.76 Z" />
<path fill="#f5e5c1" opacity="1.00" d=" M 115.97 278.74 C 119.77 277.90 123.20 275.71 127.10 275.24 C 131.89 275.21 136.37 277.28 140.55 279.41 C 140.59 279.84 140.67 280.72 140.71 281.15 C 135.33 282.09 130.06 283.55 124.69 284.54 C 125.64 284.50 127.54 284.43 128.49 284.40 C 128.43 285.35 128.30 287.26 128.24 288.22 C 128.85 288.29 130.08 288.44 130.69 288.52 C 130.66 289.44 130.62 290.37 130.59 291.30 C 125.77 293.04 121.26 295.59 116.31 296.94 C 114.96 295.39 113.93 293.22 111.87 292.50 C 108.05 290.88 103.95 292.70 99.98 292.15 C 94.47 291.55 88.91 291.83 83.38 291.52 C 86.10 287.46 91.26 286.77 94.91 283.90 C 98.27 281.39 102.17 279.64 106.21 278.61 C 109.46 278.30 112.72 279.07 115.97 278.74 Z" />
<path fill="#f5e5c1" opacity="1.00" d=" M 405.46 289.00 C 412.28 287.10 418.73 283.39 425.99 283.51 C 429.32 283.62 432.67 283.48 436.00 283.67 C 439.20 284.52 442.42 285.22 445.72 285.58 C 448.02 287.62 447.51 290.94 447.81 293.69 C 443.54 293.63 439.26 293.43 435.01 293.98 C 429.02 294.74 422.96 293.92 416.96 294.55 C 416.34 295.77 415.72 296.99 415.11 298.22 C 412.38 299.20 409.11 300.43 406.55 298.36 C 403.26 296.30 404.27 291.98 405.46 289.00 Z" />
<path fill="#f5e5c1" opacity="1.00" d=" M 75.15 297.51 C 83.12 297.32 91.04 298.47 99.01 298.30 C 106.13 298.15 112.30 302.25 118.98 304.08 C 115.31 305.16 110.68 305.96 109.10 309.99 C 106.39 314.64 107.00 320.10 107.49 325.22 C 100.80 322.95 94.32 320.05 88.14 316.62 C 81.25 312.71 75.59 305.62 75.15 297.51 Z" />
<path fill="#f5e5c1" opacity="1.00" d=" M 428.84 300.73 C 435.45 300.14 442.12 300.20 448.75 300.45 C 446.98 303.70 445.59 307.14 445.01 310.81 C 438.05 307.85 430.70 305.78 423.15 305.10 C 424.98 303.57 426.71 301.85 428.84 300.73 Z" />
<path fill="#f5e5c1" opacity="1.00" d=" M 401.99 308.06 C 406.17 307.36 409.86 302.74 414.18 305.64 C 414.59 307.16 415.03 308.68 415.48 310.19 C 423.90 311.20 432.39 312.62 440.37 315.62 C 437.17 319.88 432.24 322.21 427.61 324.55 C 419.42 328.44 411.07 332.33 402.05 333.80 C 400.79 328.92 397.45 325.11 394.16 321.47 C 391.01 322.44 387.71 324.65 384.35 323.47 C 381.44 321.34 381.07 316.91 382.72 313.87 C 389.12 311.86 395.38 309.38 401.99 308.06 Z" />
<path fill="#f5e5c1" opacity="1.00" d=" M 131.66 307.60 C 141.35 310.28 151.33 311.75 160.98 314.53 C 158.17 316.02 154.49 316.84 152.88 319.89 C 151.77 321.61 153.25 323.57 153.51 325.32 C 152.72 325.29 151.16 325.24 150.37 325.21 C 149.14 329.26 149.10 333.51 149.36 337.70 C 137.92 334.11 126.37 330.90 114.71 328.09 C 113.38 322.87 111.74 316.04 115.94 311.72 C 120.27 309.99 125.08 310.14 129.63 309.33 C 130.30 308.75 130.98 308.17 131.66 307.60 Z" />
<path fill="#f5e5c1" opacity="1.00" d=" M 66.60 311.04 C 67.30 307.07 73.44 308.24 73.54 311.94 C 73.51 323.29 72.88 334.66 73.50 346.00 C 73.36 349.23 73.26 352.83 71.27 355.52 C 69.74 355.67 68.20 355.74 66.66 355.75 C 65.23 352.63 65.83 349.27 66.16 346.01 C 64.99 334.37 66.14 322.68 66.60 311.04 Z" />
<path fill="#f5e5c1" opacity="1.00" d=" M 354.08 318.45 C 358.02 318.39 361.99 316.68 365.88 317.87 C 369.36 318.98 373.87 319.15 375.27 323.21 C 381.70 326.35 390.01 327.19 394.35 333.48 C 395.60 338.36 393.69 343.91 389.20 346.47 C 388.23 346.12 387.25 345.79 386.28 345.46 C 383.22 347.90 379.34 348.65 375.70 349.78 C 371.85 351.05 367.54 350.76 364.09 353.16 C 362.99 353.32 361.89 353.49 360.80 353.66 C 360.91 357.76 360.75 362.47 357.16 365.19 C 353.67 368.70 348.38 367.42 344.19 366.14 C 340.11 365.03 337.03 361.85 333.01 360.61 C 330.66 359.70 327.73 359.12 326.52 356.63 C 324.53 352.12 324.92 347.01 323.24 342.42 C 321.54 339.52 318.31 338.17 315.33 336.99 C 315.23 334.98 315.51 332.99 316.31 331.14 C 316.17 329.53 314.85 327.56 316.08 326.16 C 317.95 323.18 321.83 325.19 324.64 324.35 C 334.31 321.77 344.03 318.96 354.08 318.45 Z" />
<path fill="#f5e5c1" opacity="1.00" d=" M 76.55 323.50 C 78.14 322.00 79.49 319.52 81.95 319.54 C 84.61 319.13 86.94 320.56 89.12 321.85 C 96.62 326.24 105.61 327.30 112.90 332.10 C 116.35 334.59 115.42 339.32 115.53 343.00 C 115.25 348.29 115.93 353.65 115.13 358.90 C 113.28 364.66 106.10 365.34 100.97 365.57 C 96.45 366.13 92.40 363.64 89.39 360.51 C 86.21 360.60 82.39 360.44 80.63 357.31 C 77.62 351.88 78.61 345.33 77.24 339.44 C 75.85 334.21 76.49 328.83 76.55 323.50 Z" />
<path fill="#f5e5c1" opacity="1.00" d=" M 156.82 326.23 C 157.97 324.56 158.75 321.88 161.09 321.62 C 167.70 321.10 174.39 322.32 180.96 321.16 C 190.27 318.65 199.60 322.66 208.96 322.78 C 206.51 324.78 203.03 326.54 202.80 330.11 C 202.48 335.70 200.96 341.09 200.03 346.59 C 193.27 346.51 186.67 344.99 180.02 343.99 C 172.17 342.79 164.32 341.49 156.66 339.36 C 155.16 335.45 154.99 331.22 156.47 327.28 C 158.06 327.26 159.65 327.24 161.25 327.21 C 159.78 326.86 158.29 326.53 156.82 326.23 Z" />
<path fill="#f5e5c1" opacity="1.00" d=" M 431.67 327.59 C 435.17 326.38 438.47 324.66 441.98 323.53 C 445.55 322.51 449.31 325.01 450.11 328.54 C 452.56 337.64 452.27 347.60 449.25 356.53 C 444.82 366.43 432.60 373.43 421.94 369.50 C 418.45 368.36 416.38 365.13 414.54 362.18 C 414.13 357.62 414.13 353.00 415.17 348.51 C 416.24 343.56 415.76 337.96 418.81 333.65 C 421.95 329.67 427.39 329.59 431.67 327.59 Z" />
<path fill="#f5e5c1" opacity="1.00" d=" M 209.77 330.77 C 211.48 328.61 214.33 327.60 217.03 327.77 C 224.40 327.84 231.73 327.08 239.07 326.48 C 243.65 328.80 247.40 332.34 251.66 335.14 C 253.26 339.50 251.78 344.03 251.04 348.39 C 250.39 348.47 249.09 348.62 248.44 348.70 C 248.32 352.51 248.99 356.25 249.48 360.01 C 248.74 364.11 247.19 368.03 245.34 371.75 C 244.03 371.65 242.72 371.63 241.44 371.40 C 239.36 369.88 238.25 367.41 236.27 365.79 C 233.22 364.58 229.79 364.70 226.82 363.29 C 224.21 361.55 222.89 358.44 220.19 356.81 C 216.67 354.69 212.37 354.35 208.85 352.22 C 206.33 350.39 206.24 346.78 206.96 344.03 C 208.06 339.64 208.59 335.13 209.77 330.77 Z" />
<path fill="#f5e5c1" opacity="1.00" d=" M 266.84 334.10 C 270.99 333.34 274.79 331.31 278.94 330.55 C 283.40 330.78 287.92 331.28 292.18 332.72 C 297.73 334.56 303.64 333.38 309.34 333.27 C 312.41 340.24 314.09 347.68 315.48 355.13 C 316.59 355.99 317.71 356.83 318.75 357.79 C 318.33 360.85 316.65 363.51 315.19 366.17 C 314.13 366.58 313.08 366.99 312.03 367.42 C 308.70 366.18 305.42 364.75 301.97 363.89 C 298.94 363.15 295.65 363.64 292.81 362.19 C 290.27 360.99 287.82 359.53 285.79 357.57 C 280.27 356.55 274.52 357.14 269.11 355.51 C 264.25 354.48 262.94 347.86 257.45 348.41 C 258.83 344.23 258.85 339.81 258.55 335.48 C 261.30 334.94 264.08 334.57 266.84 334.10 Z" />
<path fill="#f5e5c1" opacity="1.00" d=" M 122.58 337.23 C 127.30 336.65 130.51 340.77 134.90 341.54 C 137.62 342.36 141.44 342.21 142.77 345.26 C 144.51 347.62 142.68 350.53 140.42 351.67 C 134.92 354.39 128.68 353.32 122.95 352.09 C 120.25 350.85 120.68 347.45 120.63 345.01 C 120.42 342.25 121.35 339.65 122.58 337.23 Z" />
<path fill="#f5e5c1" opacity="1.00" d=" M 145.34 354.24 C 145.26 351.21 146.57 348.55 148.59 346.38 C 156.13 345.93 163.41 348.48 170.94 348.39 C 179.21 348.43 187.60 348.47 195.65 350.63 C 199.05 351.60 199.66 355.83 199.64 358.84 C 198.83 362.57 194.44 363.11 191.48 364.38 C 188.35 365.13 187.20 368.35 185.09 370.39 C 183.71 370.65 182.41 370.48 181.18 369.88 C 175.64 367.04 170.56 363.31 164.81 360.88 C 159.96 359.93 154.96 359.65 150.19 358.29 C 148.12 357.61 146.82 355.70 145.34 354.24 Z" />
<path fill="#f5e5c1" opacity="1.00" d=" M 367.98 361.40 C 378.92 358.58 389.35 354.14 400.04 350.57 C 404.90 348.89 411.10 352.63 410.74 358.03 C 410.46 367.47 411.30 377.73 405.93 386.04 C 400.28 393.26 391.28 396.45 383.19 400.08 C 379.30 402.09 374.51 402.78 371.86 406.61 C 367.87 407.38 363.54 406.42 360.93 403.13 C 356.61 398.94 356.98 392.43 358.04 387.00 C 359.38 380.68 361.00 374.41 361.49 367.95 C 361.63 364.44 364.73 362.00 367.98 361.40 Z" />
<path fill="#f5e5c1" opacity="1.00" d=" M 115.02 372.09 C 119.91 366.76 125.18 361.17 132.16 358.72 C 136.34 357.29 140.16 359.79 144.11 360.57 C 152.33 360.60 161.22 360.85 168.19 365.80 C 173.60 369.31 176.57 375.24 178.96 381.01 C 180.31 384.32 179.77 388.54 177.04 391.01 C 173.62 394.34 169.91 397.60 165.37 399.27 C 155.90 402.31 145.78 401.23 135.99 401.81 C 131.18 401.72 125.61 402.85 121.61 399.49 C 118.42 396.86 117.98 392.47 117.29 388.68 C 116.65 388.64 115.35 388.57 114.70 388.53 C 112.93 386.33 110.29 384.19 110.45 381.09 C 110.31 377.52 112.96 374.71 115.02 372.09 Z" />
<path fill="#f5e5c1" opacity="1.00" d=" M 67.75 369.00 C 68.69 366.83 70.41 364.35 73.02 364.28 C 77.19 363.92 80.96 366.13 85.03 366.64 C 90.57 367.46 95.68 370.56 99.24 374.83 C 101.69 377.73 100.39 381.90 97.83 384.25 C 95.46 384.81 92.62 384.82 91.01 386.93 C 88.46 389.79 85.56 392.32 82.89 395.07 C 81.97 403.07 85.05 411.09 83.47 419.10 C 82.73 421.57 80.02 422.49 78.01 423.68 C 74.33 422.63 70.96 419.96 70.67 415.89 C 70.25 407.89 69.49 399.91 68.70 391.94 C 68.38 387.58 69.86 383.29 69.41 378.93 C 68.91 375.62 66.72 372.43 67.75 369.00 Z" />
<path fill="#f5e5c1" opacity="1.00" d=" M 256.55 366.66 C 260.70 365.52 264.83 367.49 268.99 367.56 C 278.93 367.92 288.99 367.01 298.83 368.89 C 303.36 369.88 307.29 373.44 308.18 378.08 C 309.40 384.76 307.58 391.47 306.47 398.04 C 305.67 403.08 302.62 407.66 298.21 410.27 C 288.21 416.03 276.23 417.50 264.90 416.18 C 260.85 415.39 256.93 414.11 252.90 413.26 C 248.80 408.56 246.41 402.18 247.73 395.94 C 249.02 389.62 250.60 383.35 251.63 376.98 C 252.41 373.28 252.86 368.70 256.55 366.66 Z" />
<path fill="#f5e5c1" opacity="1.00" d=" M 322.97 365.58 C 328.42 364.69 333.79 366.45 339.02 367.75 C 344.49 369.09 349.94 372.22 352.41 377.49 C 355.22 383.78 352.98 391.48 348.15 396.16 C 344.46 400.28 339.06 402.04 333.99 403.78 C 330.36 404.89 328.66 410.30 324.24 409.15 C 318.85 406.97 315.63 401.24 313.81 395.98 C 312.47 388.32 313.05 380.25 315.67 372.91 C 316.86 369.58 319.49 366.54 322.97 365.58 Z" />
<path fill="#f5e5c1" opacity="1.00" d=" M 194.00 370.76 C 202.88 369.23 211.97 367.76 220.97 369.16 C 227.24 369.84 234.49 370.92 238.42 376.47 C 241.59 380.68 240.39 386.22 240.40 391.10 C 240.62 395.74 238.20 399.83 236.85 404.12 C 235.59 408.01 233.79 411.97 230.37 414.42 C 226.03 417.54 220.34 417.92 215.23 416.94 C 208.13 415.84 201.45 413.03 195.06 409.84 C 192.66 409.55 189.68 410.27 187.90 408.18 C 183.14 403.89 182.91 396.89 183.82 390.98 C 184.92 385.09 184.77 378.57 188.51 373.55 C 189.71 371.68 191.95 371.11 194.00 370.76 Z" />
<path fill="#f5e5c1" opacity="1.00" d=" M 439.55 370.94 C 443.34 369.74 448.01 369.91 450.55 373.41 C 456.69 379.20 456.17 388.23 455.62 395.94 C 454.94 401.57 452.97 407.87 447.63 410.74 C 440.79 414.49 432.74 416.62 424.95 415.34 C 417.10 413.34 412.70 404.62 413.30 396.96 C 412.93 392.43 415.44 388.58 417.36 384.71 C 418.60 382.29 418.87 378.83 421.80 377.81 C 427.74 375.57 433.53 372.94 439.55 370.94 Z" />
<path fill="#f5e5c1" opacity="1.00" d=" M 42.89 374.36 C 43.44 374.38 44.53 374.42 45.07 374.44 C 48.22 380.15 51.86 385.61 54.61 391.54 C 56.74 396.64 58.28 401.96 60.07 407.20 C 60.90 403.85 61.62 400.48 61.78 397.03 C 62.42 397.19 63.71 397.50 64.36 397.66 C 64.54 402.93 65.06 408.25 64.28 413.50 C 62.97 413.73 61.73 413.48 60.56 412.74 C 60.26 412.90 59.66 413.22 59.35 413.38 C 51.46 409.45 42.50 411.21 34.06 410.25 C 24.70 410.30 15.35 409.95 6.00 409.79 C 6.00 409.15 6.00 407.86 6.00 407.22 C 18.33 406.88 30.67 407.06 43.00 406.69 C 42.24 402.58 41.05 398.58 40.19 394.50 C 40.67 394.47 41.64 394.41 42.13 394.38 C 44.66 397.67 47.69 400.61 49.66 404.31 C 50.30 405.31 51.21 407.11 52.64 406.73 C 52.42 405.06 51.01 403.88 49.76 402.91 C 48.89 397.66 48.36 392.32 46.86 387.20 C 45.47 382.94 43.68 378.80 42.89 374.36 Z" />
<path fill="#f5e5c1" opacity="1.00" d=" M 464.60 376.14 C 465.51 376.25 466.43 376.36 467.36 376.48 C 467.74 383.36 466.61 390.17 466.19 397.02 C 468.54 393.28 471.71 390.19 475.03 387.32 C 476.14 388.26 477.25 389.21 478.38 390.15 C 478.40 391.40 478.43 392.65 478.47 393.91 C 477.23 395.51 476.03 397.13 474.85 398.77 C 484.28 399.17 493.77 398.40 503.14 399.78 C 502.24 401.80 500.06 401.86 498.24 402.09 C 489.42 402.80 480.55 401.95 471.75 402.82 C 469.41 402.39 467.09 402.79 464.87 403.54 C 463.01 402.73 461.14 401.94 459.28 401.16 C 460.24 395.93 460.78 390.55 462.95 385.65 C 464.30 382.66 464.47 379.37 464.60 376.14 Z" />
<path fill="#f5e5c1" opacity="1.00" d=" M 92.65 391.70 C 96.36 388.90 102.21 389.17 105.51 392.55 C 111.92 398.29 119.46 402.52 126.28 407.74 C 129.83 410.57 135.79 410.49 137.62 415.26 C 139.37 418.73 136.27 421.95 133.82 424.05 C 133.15 427.52 133.17 431.78 130.02 434.10 C 127.51 436.33 123.49 436.08 120.90 434.10 C 117.33 431.43 112.61 432.35 108.53 431.22 C 105.60 429.99 104.06 426.99 102.12 424.67 C 96.09 418.37 92.35 410.00 90.88 401.45 C 90.42 398.17 89.90 394.17 92.65 391.70 Z" />
<path fill="#f5e5c1" opacity="1.00" d=" M 394.04 403.34 C 395.25 402.00 396.48 400.67 397.73 399.36 C 400.52 399.43 403.91 398.66 406.06 400.99 C 411.13 405.77 411.59 413.17 415.00 418.95 C 416.48 421.38 417.45 424.99 415.06 427.20 C 409.94 432.75 401.72 431.20 394.99 432.53 C 391.59 434.99 388.61 438.28 384.48 439.50 C 377.45 441.38 370.12 441.20 362.96 442.18 C 356.65 442.40 350.31 442.76 344.01 442.35 C 338.81 441.99 334.61 438.38 331.54 434.44 C 328.76 430.86 328.74 425.58 330.83 421.67 C 333.41 417.31 338.25 414.79 343.00 413.52 C 352.31 412.30 361.79 418.35 370.87 414.26 C 376.32 407.27 385.35 403.63 394.04 403.34 Z" />
<path fill="#f5e5c1" opacity="1.00" d=" M 144.33 416.48 C 145.77 411.78 151.10 411.04 155.10 409.65 C 164.88 414.90 176.44 411.83 186.64 415.50 C 190.92 416.96 195.94 418.25 198.29 422.53 C 199.15 426.65 198.07 430.88 198.26 435.05 C 198.12 439.43 199.20 443.93 198.06 448.24 C 197.10 451.34 193.90 452.51 191.13 453.49 C 180.15 452.74 169.75 448.99 158.94 447.26 C 154.05 446.51 149.37 443.34 147.98 438.42 C 145.83 431.39 142.17 423.92 144.33 416.48 Z" />
<path fill="#f5e5c1" opacity="1.00" d=" M 304.84 416.63 C 308.76 415.19 313.06 414.78 317.17 415.57 C 321.22 417.33 322.28 422.07 322.51 426.05 C 322.73 430.99 323.16 436.02 322.35 440.93 C 320.76 446.20 315.53 449.73 310.17 450.21 C 301.51 451.17 292.79 451.95 284.07 451.82 C 280.97 451.99 277.77 449.95 277.22 446.78 C 276.06 440.41 273.61 434.21 274.35 427.63 C 276.61 425.78 279.11 424.10 282.07 423.69 C 289.94 422.31 297.33 419.24 304.84 416.63 Z" />
<path fill="#f5e5c1" opacity="1.00" d=" M 227.07 421.68 C 234.21 422.22 240.90 418.95 248.01 419.12 C 251.67 419.25 255.96 418.41 258.96 421.04 C 261.50 423.30 264.87 424.43 267.20 426.91 C 267.86 431.68 268.27 436.56 270.33 441.02 C 270.97 445.92 270.53 452.31 265.04 454.20 C 258.45 454.89 251.77 454.01 245.16 454.71 C 236.81 455.83 228.37 455.29 219.97 455.54 C 216.68 455.80 213.57 453.87 211.73 451.25 C 209.98 448.80 210.72 445.63 210.08 442.86 C 209.19 440.46 207.54 438.43 206.63 436.03 C 205.87 432.08 205.73 427.02 209.52 424.53 C 214.45 420.43 221.16 421.44 227.07 421.68 Z" />
</svg>
