<?xml version="1.0" encoding="UTF-8" standalone="no"?>
<svg
   xmlns:dc="http://purl.org/dc/elements/1.1/"
   xmlns:cc="http://creativecommons.org/ns#"
   xmlns:rdf="http://www.w3.org/1999/02/22-rdf-syntax-ns#"
   xmlns:svg="http://www.w3.org/2000/svg"
   xmlns="http://www.w3.org/2000/svg"
   xmlns:sodipodi="http://sodipodi.sourceforge.net/DTD/sodipodi-0.dtd"
   xmlns:inkscape="http://www.inkscape.org/namespaces/inkscape"
   width="1280"
   height="1280"
   viewBox="0 0 1024 1024"
   version="1.1"
   id="svg2"
   inkscape:version="0.48.1 "
   sodipodi:docname="ambassador_grind.svg">
  <metadata
     id="metadata48">
    <rdf:RDF>
      <cc:Work
         rdf:about="">
        <dc:format>image/svg+xml</dc:format>
        <dc:type
           rdf:resource="http://purl.org/dc/dcmitype/StillImage" />
      </cc:Work>
    </rdf:RDF>
  </metadata>
  <defs
     id="defs46" />
  <sodipodi:namedview
     pagecolor="#ffffff"
     bordercolor="#666666"
     borderopacity="1"
     objecttolerance="10"
     gridtolerance="10"
     guidetolerance="10"
     inkscape:pageopacity="0"
     inkscape:pageshadow="2"
     inkscape:window-width="1920"
     inkscape:window-height="1018"
     id="namedview44"
     showgrid="false"
     fit-margin-top="0"
     fit-margin-left="0"
     fit-margin-right="0"
     fit-margin-bottom="0"
     inkscape:zoom="0.6609375"
     inkscape:cx="640"
     inkscape:cy="640"
     inkscape:window-x="-8"
     inkscape:window-y="-8"
     inkscape:window-maximized="1"
     inkscape:current-layer="layer1"
     inkscape:snap-page="true" />
  <g
     inkscape:groupmode="layer"
     id="layer1"
     inkscape:label="background">
    <rect
       style="fill:#3e3e3e;fill-opacity:1;fill-rule:nonzero;stroke:none"
       id="rect3036"
       width="1280"
       height="1280"
       x="0"
       y="0"
       transform="scale(0.8,0.8)" />
  </g>
  <g
     inkscape:groupmode="layer"
     id="layer2"
     inkscape:label="foreground">
    <path
       d="M 0,0 0.04,0 C 0.02,0.04 0,0.14 0,0.18 L 0,0 z"
       id="path4"
       inkscape:connector-curvature="0"
       style="fill:#b65622" />
    <path
       style="fill:#f3722b"
       d="M 93.8125 120.625 C 92.895459 120.61313 91.975 120.67812 91.03125 120.84375 C 85.88125 129.99375 81.625 139.79375 77.125 149.34375 C 74.175 148.51875 71.20625 147.8 68.28125 147 C 65.33125 154.175 60.0375 160.7 58.6875 168.375 C 48.6125 185.65 47.2125 206.2 37.5625 223.625 C 32.5125 244.1 32.625 265.3875 28.125 285.9375 C 23.3 298.4375 27.03125 312.25 22.28125 324.75 C 18.58125 334.45 21.44375 344.9375 19.71875 354.9375 C 15.11875 377.5875 18.79375 400.7 22.21875 423.25 C 24.49375 446.1 32.0875 467.91875 39.6875 489.46875 C 43.8125 501.34375 51.56875 511.375 57.84375 522.125 C 71.06875 540.775 82.3625 560.73125 95.5625 579.40625 C 108.7625 595.95625 121.83125 612.73125 137.28125 627.28125 C 146.50625 636.58125 153.5125 647.8125 163.1875 656.6875 C 179.5125 672.1375 193.39375 690.08125 210.84375 704.28125 C 217.86875 710.38125 223.04375 718.43125 230.71875 723.78125 C 241.59375 731.30625 250.85625 740.8625 260.28125 750.0625 C 272.85625 761.3125 287.6875 769.5875 302.4375 777.5625 C 312.7375 785.1625 323.9625 791.50625 335.6875 796.53125 C 346.0125 798.30625 356.6125 796.8875 366.9375 795.8125 C 375.8875 793.7625 384.1125 789.43125 392.9375 786.90625 C 393.3875 766.28125 393.01875 745.65625 393.09375 725.03125 C 393.14375 713.40625 392.0375 700.93125 397.6875 690.28125 C 403.6375 680.10625 416.475 678.1875 427.25 678.0625 C 509.8 678.1875 592.35625 678.05625 674.90625 678.15625 C 680.88125 678.08125 687.01875 677.725 692.59375 675.25 C 713.59375 665.075 736.025 658.2125 757.5 649.1875 C 769.575 648.6375 780.53125 643.61875 791.40625 638.84375 C 797.95625 632.19375 807.9625 632.3125 816.1875 628.9375 C 830.7375 622.8125 845.9125 618.425 860.4375 612.25 C 873.7875 610.675 886.98125 607.2625 899.03125 601.1875 C 908.10625 596.0125 918.7375 594.6625 927.9375 589.6875 C 937.7875 589.9875 946.5625 583.86875 956.5625 584.96875 C 958.1375 588.44375 959.75625 591.9625 961.40625 595.4375 C 964.63125 600.5625 969.53125 604.35625 972.90625 609.40625 C 976.08125 613.65625 979.4125 619.1375 985.3125 619.5625 C 994.5125 620.1625 1003.6812 618.2875 1012.9062 618.5625 C 1027.9562 638.6375 1044.0125 657.95 1059.4375 677.75 C 1066.4875 689.3 1081.6812 683.1375 1092.6562 684.4375 C 1103.0312 697.4625 1116.6375 707.5625 1126.5625 720.9375 C 1140.8875 743.9375 1156.4438 766.19375 1169.9688 789.71875 C 1177.8188 804.21875 1181.1375 822.36875 1195.1875 832.59375 C 1203.4125 838.89375 1214.8375 837.73125 1224.0625 834.40625 C 1233.2625 830.88125 1244.2188 831.125 1251.8438 824.125 C 1253.2688 817.875 1252.7812 811.4125 1253.0312 805.0625 C 1253.0062 792.4625 1254.9625 779.3125 1250.0625 767.3125 C 1245.1375 754.6375 1238.0438 742.9625 1231.5938 731.0625 C 1225.2188 722.4625 1222.7375 711.8 1216.8125 703 C 1205.9375 685.35 1196.4375 666.9 1185.8125 649.125 C 1164.2875 621.65 1139.4813 596.925 1117.9062 569.5 C 1113.0563 560.525 1104.1125 555.00625 1098.3125 546.78125 C 1090.7375 536.30625 1080.6438 528.05625 1071.7188 518.78125 C 1075.5688 509.63125 1077.3625 499.8 1077.1875 489.875 C 1076.9125 486 1078.275 481.15 1074.625 478.375 C 1074.85 471.225 1070.4375 465.25 1068.8125 458.5 C 1064.4875 453.675 1060.2062 448.8375 1056.2812 443.6875 C 1043.3563 429.7125 1025.1875 421.25 1006.1875 420.375 C 999.8875 413.625 989.9625 417.50625 982.0625 415.40625 C 975.5625 412.08125 979.25 402.6375 974.875 397.4375 C 969.85 391.0125 970.44375 381.54375 964.09375 376.21875 C 960.94375 381.09375 956.5 386.35 950.125 386.25 C 936.65 385.8 923.4875 381.4 909.9375 381.5 C 889.2375 383.025 869.7625 374.5 849.9375 370 C 818.1625 362.225 786.8375 352.79375 754.9375 345.71875 C 714.3625 336.49375 674.3625 324.86875 634.4375 313.34375 C 624.7875 310.89375 614.85625 309.8375 605.28125 307.0625 C 592.13125 303.3375 578.0125 301.2125 566.8125 292.8125 C 559.8875 287.3875 550.43125 288.64375 542.78125 284.84375 C 534.10625 280.81875 525.46875 276.66875 516.34375 273.71875 C 479.39375 263.39375 446.0625 243.2 409.1875 232.625 C 369.6625 216.35 332.0125 195.5875 292.0625 180.3125 C 277.1125 176.9375 263.34375 170.03125 248.46875 166.40625 C 238.04375 162.88125 226.975 161.9375 216.625 158.1875 C 196.225 150.5375 174.8625 145.775 154.4375 138.125 C 140.4125 133.975 126.81875 128.29375 112.34375 125.84375 C 106.06562 124.6625 100.23179 120.70806 93.8125 120.625 z M 964.03125 378.4375 C 964.03527 379.90319 964.13495 381.35258 964.3125 382.78125 C 964.13495 381.35234 964.03527 379.90328 964.03125 378.4375 z M 964.625 384.90625 C 964.88145 386.3166 965.22651 387.71968 965.625 389.09375 C 965.22651 387.71931 964.88145 386.31689 964.625 384.90625 z M 967 393.15625 C 967.51953 394.49453 968.09917 395.82202 968.71875 397.125 C 968.09917 395.82166 967.51953 394.49492 967 393.15625 z M 969.6875 399.0625 C 970.34923 400.34801 971.05096 401.62406 971.78125 402.875 C 972.87668 404.75141 974.02813 406.575 975.21875 408.375 C 974.02813 406.575 972.87668 404.75177 971.78125 402.875 C 971.05096 401.62382 970.34923 400.34835 969.6875 399.0625 z M 946.84375 419.59375 C 946.53695 420.35861 946.27982 421.12759 946.0625 421.90625 C 945.84518 422.68491 945.67139 423.45944 945.53125 424.25 C 945.67085 423.45917 945.84559 422.68511 946.0625 421.90625 C 946.27684 421.13659 946.54196 420.34988 946.84375 419.59375 z M 936.5625 464.75 C 937.417 464.85038 938.24823 464.8922 939.0625 464.875 C 938.24823 464.8922 937.417 464.85038 936.5625 464.75 z M 950.3125 477.34375 C 952.17813 479.26562 953.96289 481.26543 955.65625 483.34375 C 953.96289 481.26543 952.17812 479.26562 950.3125 477.34375 z M 962.1875 483.59375 C 963.15547 484.15391 964.08423 484.74878 965 485.375 C 964.08533 484.74805 963.1543 484.15469 962.1875 483.59375 z M 970.03125 489.6875 C 970.77554 490.52114 971.46875 491.43125 972.09375 492.40625 C 971.46875 491.43125 970.77502 490.52148 970.03125 489.6875 z M 965.8125 498.5 C 968.39648 502.60515 971.17188 506.60273 973.84375 510.65625 C 971.16719 506.60391 968.39854 502.60464 965.8125 498.5 z M 959.28125 516.1875 C 960.94392 516.39185 962.5858 516.66815 964.21875 517.03125 C 962.58544 516.66672 960.94447 516.39404 959.28125 516.1875 z M 965.84375 517.4375 C 966.3962 517.58352 966.92141 517.73537 967.46875 517.90625 C 966.93362 517.73962 966.3838 517.58057 965.84375 517.4375 z M 971.59375 519.84375 C 973.19731 520.78121 974.76225 521.779 976.3125 522.8125 C 974.76007 521.77686 973.20185 520.78325 971.59375 519.84375 z M 1043 533.625 C 1043.1 534.81445 1043.3187 535.99492 1043.5625 537.1875 C 1043.3187 535.99492 1043.1 534.81445 1043 533.625 z M 993.0625 539.15625 C 994.85 541.89375 996.54062 544.70312 998.125 547.5625 C 999.70938 550.42188 1001.1875 553.3375 1002.5625 556.3125 C 1001.1875 553.3375 999.70938 550.42344 998.125 547.5625 C 996.54062 544.70156 994.85 541.89375 993.0625 539.15625 z "
       id="path8"
       transform="scale(0.8,0.8)" />
    <path
       d="m 54.62,117.6 c 2.34,0.64 4.72,1.22 7.08,1.88 -2.6,6.32 -3.06,13.18 -4.7,19.74 -1.76,4.52 -5.36,8 -8.32,11.76 -0.6,0.02 -1.82,0.06 -2.42,0.06 1.34,-5.36 1.58,-10.88 0.68,-16.34 1.08,-6.14 5.32,-11.36 7.68,-17.1 z"
       id="path10"
       inkscape:connector-curvature="0"
       style="fill:#7e3b16" />
    <path
       d="m 81.64,179.16 c 8.86,-2.72 15.8,4.42 22.94,8.34 2.72,4.62 5.76,9.02 8.94,13.32 -8.16,4.28 -17.4,3.46 -26.22,4.38 -17.76,14.92 -30.9,36.04 -34.8,59.12 -2.12,11.12 -2.62,22.48 -2.3,33.8 0.48,14.58 -1.24,29.4 2.34,43.72 2.38,9.76 5.68,19.28 9.06,28.74 5.3,14.2 19.1,22.14 27.88,33.84 3.42,5.78 10.7,6.46 16.74,6.78 5.14,-0.64 9.82,-8.74 14.9,-3.6 -1.62,2.34 -3.4,4.56 -5.28,6.68 -8.78,4.54 -17.18,9.8 -26.16,13.98 C 78.12,424.38 66.9,419.56 55.6,414.96 50.54,404.98 41.1,398.06 36.08,388 27.16,369.76 21.7,350.08 17.76,330.24 c -1,-22.56 0.22,-45.18 0.74,-67.7 5.16,-14.36 6.02,-30.4 14.34,-43.56 C 38.2,211 42,201.8 49.16,195.14 57.9,186.6 68.82,178.5 81.64,179.16 z"
       id="path12"
       inkscape:connector-curvature="0"
       style="fill:#7e3b16" />
    <path
       d="m 113.52,200.82 1.04,-0.4 c 6.32,8.62 11.72,17.98 16.02,27.78 -9.26,-6.58 -15.16,-20.78 -28.26,-19.42 -12.16,1.54 -26.14,5.8 -31.6,17.92 -6.96,14.54 -15.74,28.88 -17.22,45.3 -2.46,18.3 -2.44,36.96 -0.92,55.3 4.14,14.82 5.44,30.92 14.12,44.04 3.62,6.16 6.66,12.98 12.52,17.42 8.44,7.04 17.68,16.62 29.78,14.46 10.72,-0.3 17.36,-9.36 24.56,-15.96 -0.5,8.44 -6.62,14.8 -10.64,21.8 -1.38,2.88 -4.04,4.5 -7.08,5.22 1.88,-2.12 3.66,-4.34 5.28,-6.68 -5.08,-5.14 -9.76,2.96 -14.9,3.6 -6.04,-0.32 -13.32,-1 -16.74,-6.78 C 80.7,392.72 66.9,384.78 61.6,370.58 58.22,361.12 54.92,351.6 52.54,341.84 48.96,327.52 50.68,312.7 50.2,298.12 c -0.32,-11.32 0.18,-22.68 2.3,-33.8 3.9,-23.08 17.04,-44.2 34.8,-59.12 8.82,-0.92 18.06,-0.1 26.22,-4.38 z"
       id="path14"
       inkscape:connector-curvature="0"
       style="fill:#b65622" />
    <path
       d="m 102.32,208.78 c 13.1,-1.36 19,12.84 28.26,19.42 7.24,9.38 8.66,21.62 12.6,32.52 2.12,12.34 4.52,24.72 5.3,37.26 0.32,20.48 1.14,41.22 -3.36,61.36 -2.82,9.7 -3.58,20.7 -11.56,27.92 -7.2,6.6 -13.84,15.66 -24.56,15.96 -12.1,2.16 -21.34,-7.42 -29.78,-14.46 -5.86,-4.44 -8.9,-11.26 -12.52,-17.42 -8.68,-13.12 -9.98,-29.22 -14.12,-44.04 -1.52,-18.34 -1.54,-37 0.92,-55.3 1.48,-16.42 10.26,-30.76 17.22,-45.3 5.46,-12.12 19.44,-16.38 31.6,-17.92 z"
       id="path16"
       inkscape:connector-curvature="0"
       style="fill:#7e3b16" />
    <path
       d="m 771.28,300.98 c 5.08,4.26 4.6,11.84 8.62,16.98 3.5,4.16 0.56,11.7 5.76,14.36 6.32,1.68 14.24,-1.42 19.28,3.98 -1.72,0 -5.12,0 -6.82,0 8.58,7.46 12.68,18.22 17.92,28 5.94,9.62 11.92,19.36 15.82,30.04 1.62,6.94 -2.44,13.88 -1.14,20.88 2.18,0.9 4.44,1.6 6.68,2.34 -0.3,0.64 -0.94,1.92 -1.26,2.56 -2.58,3.3 -1.84,7.28 -0.98,11.06 4.56,-2.42 9.08,-4.94 13.54,-7.56 -0.3,1.48 -0.92,4.44 -1.24,5.92 -0.44,2.16 -0.9,4.32 -1.32,6.48 1.66,2.3 3.44,4.54 5.14,6.84 -11.38,3.14 -23.34,6.14 -33.06,13.04 1.56,5.26 4.52,9.96 7.18,14.74 -3.18,1.7 -6.36,3.4 -9.48,5.18 -1.9,3.22 -3.92,6.36 -6.2,9.32 0.08,-3.48 -0.42,-7.08 0.62,-10.46 2.54,-2.96 5.76,-5.22 8.76,-7.7 -7.18,-0.5 -14.38,-0.3 -21.54,-0.88 1.16,-2.3 2.48,-4.52 3.4,-6.92 -0.5,-4.04 -2.74,-7.62 -4.2,-11.34 1.32,-0.7 3.96,-2.1 5.3,-2.8 -2.2,-4.76 -4.74,-9.34 -7.6,-13.72 -2.9,-0.48 -5.76,-0.98 -8.62,-1.48 4.22,-2.76 8.88,-4.74 13.7,-6.26 -7.54,-9.7 -14.7,-19.68 -21.86,-29.66 -4,-6.24 -11.34,-8.54 -17.44,-12.04 3.98,4.1 7.5,8.66 10.4,13.6 5.2,8.94 11.92,17 16.12,26.52 -3.88,-2.38 -7.48,-5.2 -11.52,-7.26 -6.78,-2.46 -14.14,-2.18 -21.22,-2.48 -5,-10.46 -7.9,-21.7 -12.3,-32.4 0.1,-3.06 0.28,-6.1 0.52,-9.14 4.8,0.2 11.76,3.64 14.5,-2.18 5.38,-9.92 -0.22,-21.8 2.98,-32.28 2.92,-4.24 8.08,-6 12.68,-7.82 2.58,-0.58 5.18,-1.16 7.78,-1.74 -5.08,-7.68 -9.48,-16.22 -8.9,-25.72 z"
       id="path18"
       inkscape:connector-curvature="0"
       style="fill:#7e3b16" />
    <path
       d="m 747.14,323.44 c 8.7,-0.08 16.98,2.72 25.26,5 -4.6,1.82 -9.76,3.58 -12.68,7.82 -3.2,10.48 2.4,22.36 -2.98,32.28 -2.74,5.82 -9.7,2.38 -14.5,2.18 -0.24,3.04 -0.42,6.08 -0.52,9.14 -1.18,-3.52 -4.44,-7.9 -1.1,-11.24 4.46,-3.12 10.88,-1.72 15.32,-4.92 2.72,-9.98 -3.02,-21.26 2.92,-30.74 -5.04,-1.62 -9.7,-4.36 -11.72,-9.52 z"
       id="path20"
       inkscape:connector-curvature="0"
       style="fill:#b65622" />
    <path
       d="m 859.7,382.7 c 2.92,2.22 1.84,6.1 2.06,9.2 0.14,7.94 -1.3,15.8 -4.38,23.12 -0.94,3.18 -2.6,6.88 -0.22,9.9 5.66,9.3 12.02,18.66 13.82,29.64 0.62,5.82 -0.2,11.66 -0.8,17.46 -4.3,-5.94 -8.58,-12.42 -8.62,-20.06 -0.14,-9.3 -4.18,-17.74 -8.56,-25.72 -1.84,1.1 -3.7,2.18 -5.54,3.3 0.32,-1.48 0.94,-4.44 1.24,-5.92 -4.46,2.62 -8.98,5.14 -13.54,7.56 -0.86,-3.78 -1.6,-7.76 0.98,-11.06 0.44,1 1.32,2.96 1.76,3.96 6.3,-3.44 13.84,-6 17.84,-12.38 4.74,-8.86 3.64,-19.3 3.96,-29 z"
       id="path24"
       inkscape:connector-curvature="0"
       style="fill:#b65622" />
    <path
       d="m 781.62,455.72 c 4.28,-3.96 9.88,-5.68 15.14,-7.88 1.46,3.72 3.7,7.3 4.2,11.34 -0.92,2.4 -2.24,4.62 -3.4,6.92 -1.84,-0.6 -3.66,-1.2 -5.48,-1.82 -3.5,5.12 -6.6,12.54 -14.16,11.06 -1.66,-1.8 -3.34,-3.56 -5.04,-5.3 4.66,-0.72 9.5,-1.24 13.84,-3.3 2.46,-4.08 3.1,-8.9 4.3,-13.44 -3.14,0.76 -6.3,1.5 -9.4,2.42 z"
       id="path28"
       inkscape:connector-curvature="0"
       style="fill:#b65622" />
    <path
       d="m 781.62,455.72 c 3.1,-0.92 6.26,-1.66 9.4,-2.42 -1.2,4.54 -1.84,9.36 -4.3,13.44 -4.34,2.06 -9.18,2.58 -13.84,3.3 -0.78,0.12 -2.32,0.32 -3.08,0.44 -0.18,1.46 -0.52,4.4 -0.68,5.86 -1.32,-2.78 -2.6,-5.58 -3.86,-8.36 -8,-0.88 -15.02,4 -22.9,3.76 12.74,-6.26 28.46,-5.8 39.26,-16.02 z"
       id="path30"
       inkscape:connector-curvature="0"
       style="fill:#7e3b16" />
    <path
       d="m 835.46,467.36 c 3.04,-4.56 7.56,-7.9 12.68,-9.76 6.8,1.6 11.44,7.44 15.9,12.42 6.12,8.38 12.46,16.7 17.32,25.9 4.12,9.9 11.98,17.98 14.62,28.52 1.52,4.48 -3.38,7.22 -5.58,10.44 -4.62,-3.02 -10.18,-4.94 -13.96,-9.04 -12.32,-20.38 -26.28,-39.8 -40.98,-58.48 z"
       id="path32"
       inkscape:connector-curvature="0"
       style="fill:#7e3b16" />
    <path
       d="m 848.34,471.38 c 6.36,1.06 8.34,7.9 11.82,12.42 4.22,7.32 11.42,13.52 11.84,22.48 -6.36,-12.7 -17.14,-22.32 -23.66,-34.9 z"
       id="path34"
       inkscape:connector-curvature="0"
       style="fill:#b65622" />
    <path
       d="m 881.36,495.92 c 7.18,2 8.4,10.48 13.74,14.8 8.34,6.54 16.54,13.5 26.28,17.96 5.74,1.84 3.86,9.92 0.24,13.02 -9.28,7.48 -21.66,8.7 -31.98,14.26 -6.38,2.38 -10.12,-6.52 -7.34,-11.38 2.3,-3.54 5.34,-6.52 8.1,-9.7 2.2,-3.22 7.1,-5.96 5.58,-10.44 -2.64,-10.54 -10.5,-18.62 -14.62,-28.52 z"
       id="path36"
       inkscape:connector-curvature="0"
       style="fill:#b65622" />
    <path
       d="m 334.5,562.5 c 80.22,0.14 160.44,-0.26 240.64,0.2 -0.34,32.1 -0.04,64.2 -0.16,96.28 -54.66,0.02 -109.32,0 -163.98,0.02 -0.06,16.96 0.06,33.94 -0.06,50.9 28.02,0.28 56.76,1.7 83.22,11.84 14.78,5.76 28.98,15.44 36.24,29.98 10.32,20.68 12.06,45.54 4.66,67.46 -7.3,21.62 -23.06,39.76 -42.36,51.68 -26.7,17.02 -58.52,23.16 -89.62,25.96 -4.1,-18.74 -6.84,-37.74 -10.32,-56.58 19.08,-1.38 38.6,-4.6 55.56,-13.94 9.68,-5.24 18.18,-14.58 18.7,-26.08 0.98,-8.8 -3.86,-17.5 -11.6,-21.62 -15,-8.34 -32.82,-7.88 -49.46,-8.6 -23.86,0.3 -47.66,2 -71.5,2.5 0.12,-70 0,-140 0.04,-210 z"
       id="path38"
       inkscape:connector-curvature="0"
       style="fill:#f5e5c1" />
    <path
       style="fill:#f5e5c1"
       d="M 923.75 701.1875 C 913.58594 701.27734 903.44375 702.25625 893.4375 704.125 C 855.5875 711.275 820.4625 730.9875 793.9375 758.8125 C 737.9375 815.6375 719.9375 904.8125 745.0625 979.9375 C 759.9625 1026.0875 791.4625 1066.9562 833.1875 1091.9062 C 871.3625 1115.0812 918.3625 1123.0062 962.0625 1113.9062 C 999.7875 1106.2563 1034.2375 1085.6625 1060.3125 1057.5625 C 1115.9875 999.2125 1131.4562 908.5625 1103.7812 833.5625 C 1087.4313 787.4625 1054.2938 747.2875 1011.4688 723.4375 C 984.7875 708.56875 954.24219 700.91797 923.75 701.1875 z M 924.1875 827.5 C 943.08051 827.17262 962.02813 833.73438 976.9375 845.3125 C 1015.4625 875.0375 1025.6375 931.0125 1010.5625 975.5625 C 999.5625 1005.9875 974.15 1031.7188 942.375 1039.7188 C 923.5 1044.8937 903.2125 1040.2188 886.4375 1030.8438 C 858.6875 1015.1437 840.3875 985.25625 836.4375 953.90625 C 833.2625 928.18125 836.2125 901.13125 848.1875 877.90625 C 860.3875 853.18125 883.7875 833.74375 911.1875 828.84375 C 915.49063 828.00937 919.82758 827.57555 924.1875 827.5 z "
       id="path40"
       transform="scale(0.8,0.8)" />
  </g>
</svg>
