<?xml version="1.0" encoding="UTF-8" standalone="no"?>
<svg
   xmlns:dc="http://purl.org/dc/elements/1.1/"
   xmlns:cc="http://creativecommons.org/ns#"
   xmlns:rdf="http://www.w3.org/1999/02/22-rdf-syntax-ns#"
   xmlns:svg="http://www.w3.org/2000/svg"
   xmlns="http://www.w3.org/2000/svg"
   xmlns:sodipodi="http://sodipodi.sourceforge.net/DTD/sodipodi-0.dtd"
   xmlns:inkscape="http://www.inkscape.org/namespaces/inkscape"
   width="1280"
   height="1280"
   viewBox="0 0 1024 1024"
   version="1.1"
   id="svg2"
   inkscape:version="0.48.1 "
   sodipodi:docname="backstab_medic_charged.svg">
  <metadata
     id="metadata130">
    <rdf:RDF>
      <cc:Work
         rdf:about="">
        <dc:format>image/svg+xml</dc:format>
        <dc:type
           rdf:resource="http://purl.org/dc/dcmitype/StillImage" />
      </cc:Work>
    </rdf:RDF>
  </metadata>
  <defs
     id="defs128" />
  <sodipodi:namedview
     pagecolor="#ffffff"
     bordercolor="#666666"
     borderopacity="1"
     objecttolerance="10"
     gridtolerance="10"
     guidetolerance="10"
     inkscape:pageopacity="0"
     inkscape:pageshadow="2"
     inkscape:window-width="1920"
     inkscape:window-height="1018"
     id="namedview126"
     showgrid="false"
     inkscape:snap-page="true"
     inkscape:object-nodes="false"
     inkscape:object-paths="true"
     inkscape:zoom="0.6609375"
     inkscape:cx="640"
     inkscape:cy="640"
     inkscape:window-x="-8"
     inkscape:window-y="-8"
     inkscape:window-maximized="1"
     inkscape:current-layer="svg2"
     fit-margin-top="0"
     fit-margin-left="0"
     fit-margin-right="0"
     fit-margin-bottom="0" />
  <g
     inkscape:groupmode="layer"
     id="layer1"
     inkscape:label="background"
     style="display:inline">
    <rect
       style="fill:#3e3e3e;fill-opacity:1;fill-rule:nonzero;stroke:none"
       id="rect3126"
       width="1024"
       height="1024"
       x="3.5527137e-014"
       y="0" />
  </g>
  <g
     inkscape:groupmode="layer"
     id="layer2"
     inkscape:label="foreground">
    <path
       d="m 489.76,0 21.16,0 c -2.14,9.16 -3.1,19.08 0.36,28.06 3.1,8.4 10.5,14.04 17.24,19.44 8.86,7.16 20.12,10.16 29.36,16.74 10.54,7.48 23.44,10.32 35.96,12.5 -10.26,6.62 -15.04,18.32 -24.08,26.06 2.38,-5.08 5.48,-9.76 8.7,-14.34 C 558.46,85.64 539.62,74.5 528.72,57.34 522.4,47.16 514.7,37.82 509.6,26.9 505.1,16.54 497.08,8.38 489.76,0 z"
       id="path6"
       inkscape:connector-curvature="0"
       style="fill:#f4722b" />
    <path
       d="m 280.6,370.15 c -3.42,0.98 -6.8,1.98 -10.2,3 0.6,1.78 1.18,3.57 1.8,5.35 l 11.2,27.7 c 0.7,1.7 1.38,3.38 2.1,5.1 11.74,-0.24 23.55,0.71 35.25,-0.65 -2.84,-8.2 -5.7,-16.35 -8.5,-24.55 47.3,-14.82 94.69,-29.34 142.05,-44 l 27.9,-8.45 c 9.54,-3.02 19.09,-6.09 28.65,-9.05 0.46,0.78 1.36,2.32 1.8,3.1 16.62,23.6 33.49,47.04 50.05,70.7 2.44,-5.4 4.69,-10.88 6.85,-16.4 -5.12,-6.16 -10.25,-12.35 -15.45,-18.45 0.86,-1.96 1.74,-3.89 2.6,-5.85 -0.66,-5.18 3.69,-8.46 6.55,-12.1 -9.82,-13.16 -19.74,-26.23 -29.5,-39.45 -1.76,-2.18 -3.3,-4.69 -5.7,-6.25 -6.54,0.58 -12.82,2.7 -19.1,4.5 l -40.45,11.9 c -46.46,12.74 -92.55,26.9 -139.05,39.5 z"
       id="path34"
       style="fill:#f5e5c1"
       inkscape:connector-curvature="0"
       sodipodi:nodetypes="cccccccccccccccccccccc" />
    <path
       style="fill:#f5e5c1"
       d="M 864.875 445.375 C 856.5 446.675 848.375 449.6625 840.875 453.5625 C 835.9 464.8375 834.2375 477.275 830.6875 489 C 838.9375 486.8 847.225 484.6625 855.5 482.4375 C 858.225 486.1875 860.95 489.9125 863.625 493.6875 L 886.4375 525 C 908.1375 557.725 931.7125 589.2 954.0625 621.5 L 983 662.375 C 999.075 685 1015 707.65 1031.125 730.25 C 969.375 750.325 907.8 770.9375 845.875 790.4375 C 860.675 814.0625 876.2 837.225 891.75 860.375 L 911.625 891.125 C 923.4 908.525 934.525 926.35 946.5 943.625 C 934.6 948.9 922.625 953.925 910.375 958.375 L 861.375 978.875 C 782.8 1010.625 704.5625 1043.1875 625.9375 1074.8125 C 601.58606 1027.3381 576.74768 980.0911 552.375 932.625 C 548.97348 926.0005 545.56768 919.38484 542.1875 912.75 C 534.77764 914.611 527.51418 916.96103 520.3125 919.5 C 516.96902 920.67876 513.63374 921.88052 510.3125 923.125 L 458.3125 942 C 458.0624 942.085 457.81113 942.16007 457.5625 942.25 C 455.10056 943.15272 452.6489 944.09517 450.1875 945 L 444.9375 946.875 C 414.6532 958.0227 384.40417 969.28384 354 980.0625 C 341.7 935.9125 329.275 891.8 317.125 847.625 L 307.625 818.125 C 298.025 772.25 281.875 727.9125 271.625 682.1875 C 274.2 680.2125 277.1 678.675 280.125 677.5 C 333.05 658.85 386.0375 640.3625 438.8125 621.3125 C 433.4625 607.1375 428.775 592.6875 423.625 578.4375 C 409.425 579.5375 395.15 578.9 381.125 576.375 C 384.35 584 387.3875 591.7125 390.0625 599.5625 C 334.9125 620.2875 279.725 640.975 224.75 662.125 C 240.875 712.575 255.3625 763.55 271.0625 814.125 L 288.1875 871.875 L 288.1875 871.90625 C 305.75933 928.67185 322.66537 985.73453 339.8125 1042.625 C 372.3125 1030.025 404.5875 1016.825 437.0625 1004.125 C 445.3433 1000.6222 453.73776 997.32837 462.125 994.0625 C 462.54306 993.89972 462.95686 993.7251 463.375 993.5625 C 477.66924 988.00404 491.95134 982.49868 506 976.375 L 527.1875 967.875 L 538.5 991.375 L 540.0625 994.625 C 546.13054 1007.2564 552.2228 1019.8801 558.3125 1032.5 C 574.09143 1065.1992 589.89088 1097.8837 605.5 1130.6875 C 625.175 1124.6125 643.8 1115.725 663 1108.375 C 723.875 1084.1 784.7125 1059.675 845.5625 1035.25 L 913.75 1008.375 C 952.875 991.575 992.8375 976.8 1032.0625 960.25 C 1030.2125 955.75 1027.425 951.775 1024.625 947.875 C 1010.3 928.575 996.6875 908.825 982.4375 889.5 L 960.75 858.875 C 952.55 847.65 944.5125 836.3625 936.4375 825.0625 C 983.5375 797.5625 1030.4625 769.775 1077.6875 742.5 C 1057.8875 714.925 1037.95 687.3875 1018.875 659.3125 L 974.875 597.75 C 973.175 595.025 971.3875 592.375 969.5625 589.75 C 944.0125 555.35 919.95 519.85 894.875 485.125 L 877.125 460.0625 C 873.525 454.9375 870.45 448.375 864.875 445.375 z "
       id="path48"
       transform="scale(0.8,0.8)" />
    <path
       style="fill:#f4722b"
       d="m 337.5,16.4 c -2.36,2.92 -6.58,5.26 -6.4,9.5 -0.46,6.14 5.31,10.27 6.25,16.05 1.38,9.36 1.52,18.86 3,28.2 -2.7,4.02 -7.27,8.29 -4.75,13.55 4.64,13.16 6.1,27.38 12.3,40 2.92,6.86 7.58,12.88 9.9,20 -4.88,10.74 -14.09,19.22 -17.25,30.8 -3.78,19.14 -17.39,34.45 -22.05,53.25 22.48,-11.2 46.45,-20.59 71.65,-22.95 15.94,-1.84 31.78,-4.6 47.8,-5.6 11.32,-0.04 22.65,-0.37 33.95,-0.05 8.12,0.2 15.44,6.62 16.2,14.8 2.32,8.42 -3.77,15.85 -3.95,24.15 -2.86,20.36 3.14,40.35 5.3,60.45 -8.26,4.14 -15.87,9.91 -20.95,17.75 -5.22,8.32 -9.94,16.96 -14.2,25.8 -2.58,5.78 -4.39,11.85 -6.05,17.95 -39.36,12.34 -78.67,24.85 -118.05,37.15 0.98,2.38 2,4.7 3,7.1 -4.12,2.16 -8.23,4.41 -12.45,6.35 -11.7,1.36 -23.51,0.41 -35.25,0.65 -2.54,0 -5.06,0.05 -7.6,0.05 1.82,-1.72 3.66,-3.43 5.5,-5.15 16.36,-15.8 33.75,-31.04 46.05,-50.4 0.88,-1.58 1.73,-3.18 2.55,-4.8 -18.1,0.88 -32.83,-10.7 -47.45,-19.6 -22.06,-15.46 -42.86,-33.28 -58.9,-55.1 -4.46,-5.3 -7.44,-12.64 -14.6,-14.8 -1.9,5.78 -3.57,11.65 -4.65,17.65 -5.48,6.94 -12.04,13.07 -16.7,20.65 -6.4,10.22 -13.1,20.26 -19.8,30.3 -12.36,19.14 -18.1,41.42 -25.8,62.6 -12.12,0.02 -11.51,-14.27 -10.65,-22.85 -5.68,-1.02 -11.14,-5.48 -10.3,-11.8 1.62,-14.96 5.87,-29.49 9.05,-44.15 5.8,-26.56 19.81,-50.15 31.35,-74.45 3.24,-6.04 1.18,-13.11 2.7,-19.55 2.86,-13.14 7.83,-25.73 13.85,-37.75 6.94,-16.12 14.03,-32.37 17.95,-49.55 -1.08,0.7 -3.27,2.1 -4.35,2.8 1.7,-16.82 -3.92,-35.03 -17.7,-45.55 -9.68,-7.48 -24.35,-5.39 -32.45,-15.25 -4.14,-4.62 -2.75,-11.23 -0.75,-16.45 9.8,2.94 19.9,5.16 29.1,9.8 9.82,4.92 19.47,10.23 29.65,14.35 3.34,1.56 7.08,0.72 10.6,0.5 -6.56,-10.74 -14.98,-20.25 -24.3,-28.65 2.08,4.08 4.28,8.09 6.4,12.15 -16.64,-8.02 -33.35,-18.59 -52.55,-18.15 -6.26,-0.04 -9.21,6.79 -11.15,11.75 4.4,8.04 9.16,15.89 13.7,23.85 5.12,9.72 17.44,10.24 25.3,16.7 5.7,4.9 12.11,9.23 16.35,15.55 4.54,7.66 6.28,17.16 4.5,25.9 -4.3,6.66 -9.42,12.93 -11.5,20.75 -7.3,22.48 -12.79,45.68 -23.05,67.1 -5.22,10.56 -7.95,22.17 -13.45,32.55 -5.78,5.02 -14.72,7.73 -16.3,16.25 2.72,0.72 5.46,1.41 8.2,2.15 -4.1,8.72 -7.32,18.03 -13.1,25.85 -3.02,-11.32 -2,-23.13 -1.1,-34.65 0.32,-4.92 2.73,-9.28 5.05,-13.5 -5.26,8.76 -14.58,13.5 -22.1,20 -10.74,-24.42 -28.12,-46.42 -52.1,-58.9 -1.64,18.52 2.82,36.64 4.2,55 1.14,-15.14 -1.69,-30.4 1.35,-45.4 20.66,15.7 31.11,40.84 39.85,64.5 6.9,17.46 3.99,36.42 2.95,54.6 -0.46,3.7 -2.62,6.84 -4.1,10.2 11.42,15.84 24.69,30.3 35.35,46.7 9.36,14.94 18.48,30.18 25,46.6 2.76,-1.12 1.96,-5.44 3.1,-7.8 3.1,-18.7 11.14,-35.93 16.6,-53.95 3.76,-12.06 8.34,-23.85 13.8,-35.25 4.64,-10.02 11.76,-18.58 17.7,-27.8 3.82,-5.54 6.98,-11.55 11.4,-16.65 4.16,-4.28 9.1,-7.68 13.7,-11.5 11.08,11.42 22.2,23.52 36.8,30.5 11.22,5.38 21.57,12.44 30.95,20.6 -5.46,7.54 -12.66,13.54 -19,20.3 -2.74,2.84 -5.54,5.63 -8.4,8.35 -11.64,11.98 -25.44,21.52 -39.7,30.1 -9.68,5.68 -23.04,6.24 -28.9,17.1 10.16,-0.18 20.22,-2.01 30.4,-2.15 18.8,-0.52 37.33,3.49 56.05,4.55 13.68,2.16 27.65,2.59 41.05,6.25 8.16,1.9 16.8,-0.41 24.8,2.45 5.7,1.8 10.96,6.81 10.9,13.15 0.04,4.18 -3.62,6.97 -5.8,10.15 7.84,16.1 15.89,32.11 23.65,48.25 -34,11.74 -68.33,22.54 -102.45,34 -5.22,1.8 -10.55,3.27 -15.95,4.45 6.04,1.14 13.1,2.13 16.2,8.25 -10.26,-0.06 -20.82,1.97 -30.8,-1.15 -3.02,-0.96 -6.09,0.73 -9.05,1.15 4.72,15.28 9.52,30.58 13.4,46.1 25.38,-6.6 51.31,-11.52 75.75,-21.3 6.42,-2.72 13.25,-4.15 20.15,-5.05 6.42,-0.64 11.56,-6.16 18.2,-5.6 4.86,0.78 9.01,3.7 13.75,4.9 4.08,0.04 8.17,-0.74 11.95,-2.3 1.56,-3.78 2.02,-8.09 4.5,-11.45 2.28,-3.14 4.86,-6.23 5.2,-10.25 -5.36,-2.3 -12.53,-4.11 -14.65,-10.25 -1.66,-4.98 3.03,-8.55 7.15,-9.95 5.82,-2.34 12.03,2.94 17.75,0 6.26,-2.98 13.54,-4.48 20.2,-1.7 9.02,3.86 14.76,12.56 18.9,21.1 l 8.7,0.35 c 0.14,-17.34 16.79,-29.37 32.55,-32.25 5.88,-2 11.16,1.67 15.9,4.65 14.46,-34.72 28.59,-69.59 42.95,-104.35 -15.84,-24.24 -32.69,-47.75 -48.45,-72.05 5.4,-4.34 7.45,-11.23 6.15,-17.95 -0.44,-0.78 -1.34,-2.32 -1.8,-3.1 -2.24,5.52 -3.65,11.97 -8.55,15.85 -8.18,6.66 -18.87,8.73 -28.95,10.75 2.7,-5.96 5.55,-11.89 8.85,-17.55 2.46,-3.98 4.89,-8.1 8.45,-11.2 4.3,-2.18 9.49,-1.85 13.85,-3.95 4.44,-3.2 4.23,-9.22 4.45,-14.1 0.1,-5.48 -0.13,-10.94 -0.15,-16.4 0.48,4.04 0.91,8.06 1.45,12.1 1.52,0.82 3.01,1.65 4.55,2.45 0.16,-33.1 -4.34,-65.97 -10.4,-98.45 -0.58,-3.52 -2.06,-7.49 -5.8,-8.65 -6.8,-1.26 -13.79,-1.57 -20.55,-3.05 -23.14,-4.44 -46.84,-4.98 -69.9,-9.7 -7.54,-1.12 -14.13,-6.34 -21.95,-5.6 -8.1,0.28 -16.23,0.34 -24.35,0.4 2.32,-4.98 4.59,-9.97 6.65,-15.05 1.68,0.36 3.32,0.72 5,1.1 22.66,-6.76 45.9,2.03 68.7,3.55 3.94,-10.9 16.46,-11.44 25.7,-15.3 7.86,-2.4 15.26,-8.24 23.9,-6.5 12.38,1.96 24.13,6.45 36.35,9.05 4.74,0.82 8.85,3.55 13.45,4.75 4.24,-1.1 8.1,-3.35 12.5,-3.85 7.5,0.1 14.96,2.12 21.4,6 2.42,-15.42 -7.59,-28.4 -8.95,-43.3 -0.22,12.66 5.12,24.35 7.7,36.55 -7.06,-2.16 -14.4,-3.42 -21.8,-3.1 0.18,-1.52 0.54,-4.55 0.7,-6.05 -2.68,-2.84 -5.33,-6.25 -9.35,-7.15 -11.18,-2.76 -22.59,0.72 -33.75,1.9 -15.92,2.58 -32.16,-0.26 -48.1,1.9 -8.02,1.08 -11.4,8.75 -15.1,14.85 -8.14,6.62 -18.76,2.05 -27.9,0.65 -11.1,-2.64 -23.09,-3.59 -33.15,-9.25 -3.02,-7.06 -4.8,-14.69 -8.6,-21.45 -3.7,-6.2 -1.92,-14.04 -6,-20.1 -11.64,-19.42 -13.62,-42.78 -14.7,-64.9 9.78,-1.56 18.51,-6.59 25.25,-13.75 -4.68,-3.68 -9.22,-7.5 -13.6,-11.5 -4.6,3.6 -9.68,8.46 -16.1,7 -4.32,-3.48 -8.69,-7.09 -14.55,-7.15 z m 78.65,374.5 c 0.50339,-0.01 1.05501,0.075 1.65,0.3 4.3,5.32 9.5,9.78 14.7,14.2 3.68,3 2.99,7.89 2.65,12.05 -10.08,-1.96 -15.83,-10.98 -21.65,-18.5 -2.0825,-2.69499 -0.87379,-7.98109 2.65,-8.05 z m -37.4,5.95 c 0.37192,-0.018 0.7675,0 1.15,0.05 6,1.08 11.26,4.35 16.8,6.75 1.34,4.88 2.05,9.94 0.55,14.9 -1.36,0.62 -4.04,1.88 -5.4,2.5 -7.04,-2.54 -13.76,-6.35 -18.9,-11.85 -3.95626,-4.51875 0.22122,-12.07966 5.8,-12.35 z m 10.45,35.1 c -0.08,2.6 -0.17,5.2 -0.25,7.8 2.42,3.08 4.77,6.22 7.05,9.4 -7.56,-0.58 -15.16,-1.12 -22.6,-2.6 -3.62,-0.86 -4.43,-4.81 -5.55,-7.75 7.96,0.9 15.85,-0.67 21.35,-6.85 z m 27.3,14.75 c 6.22344,-0.11432 12.15875,6.83125 9.9,13.25 -1.6,6.06 -9.72,7.28 -14.3,4 -5.18,-3.5 -5.43,-12.71 0.15,-15.95 1.3725,-0.87 2.81382,-1.27362 4.25,-1.3 z m -61.9,81.45 c 3.92392,-0.27558 7.8,1.73626 7.35,6.45 -4.9,2.3 -9.92,4.63 -15.4,5.05 0.12,-2.3 0.37,-4.57 0.75,-6.85 1.14626,-2.8 4.24806,-4.43566 7.3,-4.65 z m 18.4,2.5 c 2.0425,-0.0875 4.42,0.4 6.1,0.2 0.02,2.82 0.02,5.61 0,8.45 -4.06,0.14 -11.65,1.25 -10.15,-5.35 0.29,-2.53 2.0075,-3.2125 4.05,-3.3 z m 3.8,16.2 c 4.59504,-0.0588 9.1975,0.19 13.75,0.7 -2.88,4.28 -7.57,6.58 -12.65,6.9 -11.56,1.06 -23.26,3.18 -34.8,0.8 2.48,-3.68 6.97,-4.45 10.95,-5.55 7.42501,-1.85 15.0916,-2.75195 22.75,-2.85 z"
       id="path8"
       inkscape:connector-curvature="0" />
    <path
       style="fill:#f4722b"
       d="m 940.7,16.4 c -12.44,7.06 -25.15,14.1 -39.05,17.8 -6.1,1.92 -11.29,-3.82 -17.35,-3.4 -2.9,0.88 -5.42,2.62 -8,4.1 0.98,-5.24 1.82,-10.52 2.6,-15.8 -9.06,6.4 -22.95,10.46 -25.05,22.9 -5.26,21.9 -9.62,44.05 -14,66.15 -2.64,10.38 5.39,19.13 12.45,25.55 18.04,17.02 40.13,28.87 58.05,46.05 5.22,6.38 14.54,0.23 20.2,5.55 2.38,1.8 4.53,3.9 6.75,5.9 -0.16,3.8 -3.29,8.5 0.05,11.7 4.6,4.72 11.11,7.69 14.15,13.85 4.46,8.7 4.53,18.74 6.05,28.2 1.04,6.5 4.05,12.51 4.95,19.05 -2.5,9.3 -9.46,16.75 -11.7,26.15 -0.7,6.7 1.78,13.18 2.9,19.7 -19.54,-4.86 -38.7,-13.25 -59.3,-11.25 -3.22,-7.3 -8.5,-14.08 -16.7,-15.8 -20.32,-4.82 -44.24,-1.34 -59.4,14 -1.16,0.32 -3.44,0.95 -4.6,1.25 -0.34,-4.9 -0.68,-9.85 -1.1,-14.75 1.44,-0.2 4.31,-0.58 5.75,-0.8 -0.56,-2 0.42,-6.19 -2.6,-6.25 -12.44,-3.34 -22.11,7.59 -34.25,7.35 -0.92,-9.94 -0.9,-20.11 2.4,-29.65 -3.42,10.66 -13.8,17.15 -16.3,28.25 4.68,3.14 9.4,6.3 14.1,9.4 5,-2.78 10,-5.55 15.1,-8.15 -0.54,5.54 -1.26,11.05 -2.1,16.55 -8.86,6.06 -17.94,11.76 -26.4,18.4 -7.66,6.72 -18.84,6.58 -26.6,13.2 -11.08,8.98 -22.89,17.06 -33.85,26.2 -3,2.72 -7.09,5.59 -6.15,10.25 -0.24,9.96 -7.66,17.76 -10.8,26.9 -2.32,8.36 -1.72,17.07 -1.7,25.65 -5.02,-6.62 -9.75,-13.43 -14.45,-20.25 -14.3,4.78 -28.94,8.5 -43.3,13.1 -14.06,45.6 -27.75,91.31 -42.05,136.85 2.5,3.14 5.01,6.3 7.45,9.5 0.96,-0.08 2.89,-0.27 3.85,-0.35 2.92,-4.3 5.72,-10.13 11.6,-10.65 7.16,-1.58 14.63,3.02 17.05,9.8 2.2,7.02 2.94,14.39 4.1,21.65 10.52,6.8 13.42,20.04 22.8,27.9 2.86,0.54 5.61,-1.14 8.35,-1.8 40.34,-14.74 81.03,-28.51 121.45,-43.05 -4.52,-7.28 -10.23,-13.86 -13.95,-21.6 1.44,-6.7 8.76,-9.26 14.3,-11.8 9.3,-2.2 19.2,-5.17 28.7,-2.45 16.28,-3.5 33.59,2.46 49.15,-4.6 15.3,1.16 31.22,9.99 46.3,3.65 10.62,-5.18 5.24,-18.71 10.8,-27.05 11.04,-18.36 26.5,-33.38 40.3,-49.6 -5.02,-10.6 -10.74,-20.89 -15,-31.85 1.48,-4.78 5.5,-10.14 2.5,-15.1 -2.68,-3.16 -6.79,-4.56 -10.25,-6.6 -1.9,-11.32 -0.17,-22.72 2.65,-33.7 13.86,5.56 28.42,11.59 43.7,9.75 0.78,-20.24 -2.07,-40.41 -3.85,-60.55 -2.5,-0.24 -5.02,-0.46 -7.5,-0.7 -0.82,-6.64 -1.28,-13.32 -1.5,-20 2.86,-0.34 5.7,-0.66 8.6,-1 0.36,-7.7 1.54,-15.36 3.9,-22.7 -5.28,-7.6 -11.56,-15.56 -11.5,-25.3 -0.12,-10.46 1.36,-21.69 -4.4,-31.05 -4.54,-7.38 -6.09,-16.11 -10.35,-23.55 -4.88,-4.9 -10.55,0.75 -15.75,1.95 -10.28,-9.88 -20.28,-20.14 -29.2,-31.3 -7.44,-9.58 -19.62,-13.11 -28.9,-20.45 -3.64,1.14 -7.21,2.82 -11.05,3 -7.1,-0.9 -11.98,-7.88 -12.4,-14.7 -1.62,-16.66 1.37,-33.45 -1.35,-50.05 -0.98,-5 -0.8,-10.85 3.7,-14.15 15.4,-12.18 33.07,-21.06 50.95,-29 6.46,-2.8 13.61,-3.42 20.15,-6 2.6,-3.04 4.12,-6.86 5.9,-10.4 z m -72.8,266.9 c 14.38,1.76 25.66,12.66 31.7,25.3 3.9,5.78 3.88,13.58 8.8,18.7 5.1,-1.5 10.43,-1.87 15.75,-1.75 6.92,0.66 12.93,-4.35 19.95,-2.85 5.9,1.04 13.4,-1.9 17.8,3.4 3.76,3.84 8.71,5.97 13.25,8.65 4.12,6.92 4.76,15.22 4.2,23.1 -9.82,-1.8 -19.64,-3.98 -28.7,-8.3 -6.8,-3.38 -15.32,-4.99 -22.4,-1.75 -5.8,7.24 -5.85,17.48 -4.05,26.2 1.98,8.96 -0.82,18.05 0.6,27.05 2.34,9.22 -6.87,17.41 -2.55,26.65 6.08,13.5 11.79,27.22 18.95,40.2 -6.74,6.44 -12.86,13.49 -19,20.45 -1.84,1.56 -3.41,4.29 -6.15,4.05 -11.5,0.2 -24.17,-7.58 -34.25,1.2 -15.94,-3.92 -31.26,-10.52 -47.8,-11.8 -17.62,-2.98 -35.57,-1.45 -53.15,-4.45 -1.74,-1.86 -3.52,-3.67 -5.2,-5.55 1.46,2.1 2.89,4.22 4.25,6.4 -7.1,4.84 -11.53,12.3 -16.65,19 -3.68,4.94 -6.77,10.34 -11.15,14.7 -3.18,-2.02 -4.84,-5.66 -7,-8.6 -9.42,-14.64 -20.09,-28.48 -29.05,-43.4 -4.52,-12.7 -8.26,-26.26 -6.9,-39.9 1.7,-10.8 0.69,-22.24 6.75,-31.9 7.88,-11.26 16.71,-21.92 26.25,-31.8 11.24,-9.6 22.02,-19.9 34.5,-27.9 13.84,-9.5 28.47,-17.82 41.85,-28 15.08,-8.88 31.4,-17.44 49.4,-17.1 z m 69,72.35 c 3.56,3.86 1.62,8.32 -2.4,10.8 0.62,-3.66 1.42,-7.24 2.4,-10.8 z M 710.7,505.6 c 8.00626,-0.0469 16.01,5.02 19.1,12.55 3.88,8.32 -0.05,17.64 -4.75,24.7 -7.66,8.82 -23.19,7.36 -29.55,-2.3 -8.6,-10.12 -5.47,-28.06 7.35,-33.1 2.48,-1.24 5.18125,-1.83437 7.85,-1.85 z m -42.85,63.1 c 5.70656,0.23813 11.26499,5.16501 9.6,11.45 -1.18,10.56 -19.25,9.75 -20.85,-0.25 -0.76,-4.2 2.33,-7.81 5.75,-9.75 1.68,-1.08501 3.59781,-1.52938 5.5,-1.45 z"
       id="path10"
       inkscape:connector-curvature="0" />
    <path
       d="m 705.85,20.9 c -3.84,0.24656 -7.35499,3.47 -10.7,5.3 l -0.2,0.6 c -4.28,12.84 -9.12,25.54 -14.9,37.8 -5.52,13.48 -8.63,27.81 -13.45,41.55 -6.26,17.38 -11.69,35.04 -18.25,52.3 -13.92,45.42 -27.81,90.85 -41.45,136.35 -0.94,0.56 -2.81,1.64 -3.75,2.2 -0.32,7.6 -1.1,15.25 -3.7,22.45 -5.28,14.74 -10.57,29.49 -14.85,44.55 6.04,2.06 12.04,4.32 17.9,6.9 5.04,-2.3 9.5,-5.74 11,-11.3 37.06,-94.82 73.78,-189.81 110.8,-284.65 3.6,-9.24 7.22,-18.49 10.8,-27.75 1.72,-4.44 3.48,-8.86 5.2,-13.3 -10.06,-4.28 -20.26,-8.34 -30.5,-12.1 -1.35501,-0.745 -2.67,-0.98219 -3.95,-0.9 z m 4.35,11.4 c 7.64638,-0.25188 15.77,5.29625 14.6,13.6 0.2,9.92 -12.16,19.22 -20.9,12.3 -9.16,-5.62 -9.18,-20.54 1.2,-24.8 1.59,-0.71625 3.33546,-1.04188 5.1,-1.1 z M 595.05,352.75 c 2.66,0.2 5.34,0.41 8,0.65 -0.12,3.88 -1.53,7.45 -4.25,10.25 -2.02,-1.74 -4,-3.49 -6,-5.25 0.58,-1.4 1.67,-4.23 2.25,-5.65 z"
       id="path12"
       style="fill:#f4722b"
       inkscape:connector-curvature="0" />
    <path
       d="m 679.76,31.94 c 5.06,-1.7 10.08,-3.58 15.2,-5.14 -4.28,12.84 -9.12,25.54 -14.9,37.8 -2.84,-4.62 -6.18,-9.2 -7.16,-14.66 1.6,-6.24 4.36,-12.08 6.86,-18 z"
       id="path14"
       inkscape:connector-curvature="0"
       style="fill:#f5e5c1" />
    <path
       d="m 700.12,48.44 c -0.16,-7.72 8.16,-15.88 15.64,-11.66 -4.76,4.38 -9.22,9.72 -15.64,11.66 z"
       id="path18"
       inkscape:connector-curvature="0"
       style="fill:#f5e5c1" />
    <path
       style="fill:#f4722b"
       d="m 744.3,35.75 c -1.62,4.56 -3.21,9.1 -4.95,13.6 -3.72,9.34 -7.42,18.72 -11,28.1 -36.14,92.88 -72.09,185.82 -108.25,278.7 -1.78,5.26 -5.06,10.37 -4.9,16.05 3.84,7.74 13.8,8.13 20.9,11.15 6.28,-15.56 14.34,-30.37 21.4,-45.55 8.32,-19.2 16.94,-38.21 24.9,-57.55 11.46,-23.7 22.59,-47.56 33.55,-71.5 10.32,2.38 20.07,-2.55 30.15,-3.65 12.74,3.62 24.94,11.36 32.4,22.5 4.6,6.62 5.1,14.92 7.1,22.5 -1.2,-7.78 -1.97,-15.65 -2.95,-23.45 -12.76,-11.96 -27.87,-21.38 -40.35,-33.7 -6.8,0.56 -13.49,2.13 -20.25,3.05 17.48,-37.24 35.94,-74.05 51.5,-112.15 3.2,-8 7.62,-15.55 9.7,-23.95 -1.28,-4.1 -3.4,-7.88 -5.3,-11.7 C 766.71,44.08 755.8,39.09 744.3,35.75 z m 11.8,14.5 c 3.86,2.04 8.82,3.14 10.8,7.5 0.44,6.36 -2.86,16.1 -10.8,15.2 -8.48,0.28 -12.64,-10.52 -8.2,-16.9 2.44,-2.3 5.42,-3.94 8.2,-5.8 z M 625.2,364.9 c 2.46,0.1 4.94,0.18 7.4,0.5 0.4,2.54 0.5,5.09 0.7,7.65 -2.84,0.14 -5.63,0.23 -8.45,0.35 0.08,-2.86 0.21,-5.66 0.35,-8.5 z"
       id="path20"
       inkscape:connector-curvature="0" />
    <path
       d="m 703.54,54.38 c 6.38,-4.32 12.58,-9.02 19.62,-12.24 -0.9,6.02 -3.28,11.68 -8.32,15.34 -3.92,-0.42 -7.8,-1.26 -11.3,-3.1 z"
       id="path22"
       inkscape:connector-curvature="0"
       style="fill:#f5e5c1" />
    <path
       d="m 724.32,74.96 c 3.6,-9.24 7.2,-18.48 10.78,-27.74 1.06,0.54 3.18,1.6 4.24,2.14 -3.72,9.34 -7.4,18.7 -10.98,28.08 -1,-0.62 -3.04,-1.86 -4.04,-2.48 z"
       id="path24"
       inkscape:connector-curvature="0"
       style="fill:#f5e5c1" />
    <path
       d="m 752.66,57.04 c 1.66,-1.08 3.38,-2.04 5.1,-3.04 4.46,2.92 7.14,7.4 5.96,12.88 -3.54,-3.44 -6.76,-7.3 -11.06,-9.84 z"
       id="path28"
       inkscape:connector-curvature="0"
       style="fill:#f5e5c1" />
    <path
       d="m 749.4,59.64 c 4.16,2.28 6.44,6.6 8.9,10.46 -3.14,-0.88 -6.18,-1.98 -9.18,-3.24 0.08,-2.4 0.18,-4.82 0.28,-7.22 z"
       id="path30"
       inkscape:connector-curvature="0"
       style="fill:#f5e5c1" />
    <path
       d="m 832.34,326.48 c 3.3,-5.42 10.52,-3.6 15.82,-4.1 18.36,0.72 37.04,-1.5 55.16,2.38 0.84,2.7 1.68,5.4 2.56,8.1 -5.74,1.28 -11.78,3.44 -17.64,1.6 -5.18,-1.46 -10.72,-3.38 -15.98,-1.06 -8.64,3.22 -17.96,2 -26.94,2.28 1.4,2.08 2.82,4.16 4.26,6.24 -0.26,4.88 -0.72,10.06 2.02,14.4 7.98,14.96 14.1,31.54 13.86,48.72 -3.84,-4.92 -2.88,-11.68 -5.02,-17.3 -4.94,-14.94 -9,-30.32 -15.92,-44.5 -2.88,-6.4 -9.84,-10.34 -12.18,-16.76 z"
       id="path38"
       inkscape:connector-curvature="0"
       style="fill:#f4722b" />
    <path
       d="m 572.9,350.8 c 3.62,-0.5 7.26,-1 10.9,-1.48 -1.32,5.9 -3.34,11.6 -5.58,17.2 7.14,2.94 14.16,6.32 21.62,8.46 3.62,0.1 6.84,-1.92 10.3,-2.7 2.5,1.4 2.42,4.46 3.26,6.86 7.96,5.34 17.3,8.14 26.46,10.7 2,-5.84 4.12,-11.64 6.2,-17.44 2.34,1.76 4.66,3.56 7,5.36 -1.76,4.96 -3.38,9.94 -4.84,15 -6.86,1.28 -13.72,2.46 -20.68,2.84 -8.58,31 -18.3,61.62 -27.72,92.36 -8.66,24.44 -16.72,49.06 -24.1,73.9 -20.3,-6.5 -39.7,-15.72 -59.76,-23.02 15.24,-41 34,-80.56 50.04,-121.24 6.22,-13 12.04,-26.2 17.34,-39.6 -4.7,-4.9 -9.66,-9.54 -14.98,-13.76 1.46,-4.5 2.96,-8.98 4.54,-13.44 z"
       id="path44"
       inkscape:connector-curvature="0"
       style="fill:#f5e5c1" />
    <path
       d="m 569.52,578.7 c 5.12,-5.2 5.68,-14.5 14.04,-16.06 0.18,8.84 9.4,11.5 16.5,12.86 -0.66,5.16 -2.16,10.12 -4.22,14.88 -1.98,-3.54 -2.04,-10.44 -7.72,-9.48 -5.7,-0.74 -6.52,5.86 -5.2,9.92 2.3,1.28 4.74,2.36 7.12,3.5 -9.5,2.3 -15.82,-7.82 -25.18,-7.5 0.88,-1.56 1.74,-3.12 2.58,-4.68 -3.54,-2.14 -6.44,-5.14 -9.8,-7.52 3.32,-1.96 6.62,-3.94 9.9,-5.94 -0.42,2.96 -2.22,6.06 -1.08,9.04 0.78,0.26 2.3,0.74 3.06,0.98 z"
       id="path82"
       inkscape:connector-curvature="0"
       style="fill:#f4722b" />
    <path
       d="m 918.45,566.8 c -3.15677,0.0616 -6.27499,1.00626 -8.75,2.95 -8.28,6.36 -13.77,15.51 -21.25,22.75 -14.34,14.38 -28.03,29.46 -40.75,45.3 -5.58,7.02 -8.54,16.35 -16.6,21.15 -13.52,8.54 -27.64,16.45 -39.4,27.45 -7.72,0.16 -15.4,0.16 -23.1,0.7 -18.3,2.06 -36.84,3.16 -55.2,1.2 -7.52,-1.04 -15.12,-1.44 -22.7,-1.1 l -2.15,-3.3 c -2.86,0.36 -5.71,0.62 -8.55,0.7 -2.06,-1.86 -3.83,-4.04 -5.65,-6.1 1.98,-2.76 4,-5.51 6,-8.25 -7.56,-11.98 -15.09,-24 -22.65,-36 -3.14,-6.08 -10.92,-6.09 -15.7,-10.25 -7.98,-6.06 -10.77,-16.08 -15.65,-24.4 -3.26,-1.12 -6.51,-2.21 -9.75,-3.35 2.1,6.22 4.34,13.3 1.2,19.6 -2.36,5.82 -8.39,8.52 -13.55,11.3 -1.14,20.92 -5.44,41.44 -9.6,61.9 -1.18,7.2 -3.22,15.03 0.2,21.95 3.22,7.04 7.04,13.88 8.8,21.5 5.58,19.94 2.08,40.86 5.6,61.1 9.3,-3.86 18.02,-9.2 27.7,-12.1 17.34,-2.66 34.77,1.64 52.15,1.6 6.74,-0.22 13.45,0.36 20.15,1.2 -0.38,7.98 -0.27,15.98 0.85,23.9 0.64,2.18 1.34,4.32 2,6.5 -3.66,2.6 -8.25,4.64 -10.25,8.9 -2.56,5.26 -4.33,11.16 -9.15,14.9 -15.92,13.44 -30.13,28.92 -46.95,41.3 -6.44,4.7 -10.7,11.67 -12.3,19.45 -2.16,3.3 -6.87,6.88 -3.95,11.2 3.5,4.46 9.73,2.78 14.45,1.7 16.3,-4.7 33.23,-7.69 50.25,-6.75 0.64,1.04 1.96,3.13 2.6,4.15 7.06,-4.56 15.29,-4.39 23.15,-2.25 -2.96,-6.92 -8.67,-12.72 -16.25,-14.2 -12.8,-1.8 -25.77,-2.52 -38.65,-1.3 15.98,-14.74 31.97,-29.46 48.05,-44.1 9.3,11.8 -1.71,26.95 2.95,39.95 3.2,6.12 7.78,11.44 11.1,17.5 5.48,10.28 16.13,15.98 23.55,24.6 -0.54,2.52 -1.18,5.07 -1.9,7.55 3.66,3.2 7.91,6.11 13.05,5.65 9.24,-0.32 18.12,2.2 26.1,6.8 -2.22,0.44 -4.42,0.89 -6.6,1.35 -9.04,11.4 -25.52,2.28 -36.7,9.4 -6.86,4.72 -12.69,10.79 -19.05,16.15 5.44,0.06 10.94,0.13 16.4,0.05 11.64,-8.68 27.04,-0.37 39.6,-6.65 12.08,-6.1 22.69,-14.72 34.45,-21.4 6.16,1.38 11.51,5.45 17.85,6.05 22.52,-2.72 44.84,-6.68 67.2,-10.5 -1.76,-1.46 -3.46,-2.91 -5.2,-4.35 4.92,-7.04 10.62,-15.67 6.8,-24.55 -4.2,-4.98 -11.51,-7.37 -13.55,-14.05 -2.4,-6.56 -4.33,-13.25 -6.55,-19.85 -5.36,-15.96 -4.42,-33.03 -7.2,-49.45 -0.32,-4.62 -2.44,-11.01 2.8,-13.65 7.54,-4.38 14.43,-9.93 17.75,-18.25 6.64,15.16 13.97,30 21.55,44.7 2.6,6.7 10.68,2.47 16.1,3.25 -4.14,9.18 -9.53,18.08 -9.65,28.5 -3.58,3.46 -9.05,6.21 -9.75,11.65 -1.22,6.08 2.63,11.32 4.95,16.6 2.22,4.1 1.5,8.9 2.6,13.3 3.66,4.2 7.7,8.11 10.7,12.85 4.92,-0.66 10.45,-3.45 15.15,-0.55 5.56,3.76 7.98,10.73 13.6,14.45 3.14,0.8 6.46,0.8 9.7,1.1 -8.38,-8.54 -17.25,-16.96 -28.15,-22.2 -3.44,-13.02 -13.33,-22.76 -18.25,-35 2.36,-4.64 7.62,-6.28 11.9,-8.6 2.52,-7.66 4.05,-15.98 8.75,-22.7 3.32,-1.4 6.95,-1.98 10.45,-2.8 0.6,-2.86 1.18,-5.68 1.8,-8.5 4.34,1 8.77,1.86 12.75,4 3.36,1.54 7.01,4.56 10.85,2.3 -0.6,-5.7 -5.75,-9.82 -9.75,-13.5 -7.7,1.76 -15.33,4.42 -23.35,3.6 -7.9,-0.72 -17.92,-0.06 -23.3,-7 -6.62,-12.38 -12.08,-25.36 -18.4,-37.9 -3.12,-5.26 -7.17,-12.23 -14.15,-11.95 -5.66,0.98 -5.3,7.62 -7.1,11.8 -1.28,6.62 -8.42,8.73 -13.1,12.45 -4.34,2.7 -6.19,7.67 -8.55,11.95 -8.12,0.66 -17.9,0.83 -23.1,8.25 7.2,5.42 16.97,1.37 25.25,1.55 2.48,15.12 2.56,30.51 5.5,45.55 2.3,9.46 5.06,18.84 7.8,28.2 1.9,6.7 7.2,11.5 10.9,17.2 -2.1,5.2 -6.57,8.89 -10.35,12.85 -3.32,2.94 -6.43,7.17 -11.35,7.05 -10.86,0.86 -21.59,-1.58 -32.25,-3.2 -11.06,-1.88 -22.8,-2.46 -32.6,-8.5 -6.94,-4.82 -15.47,-2.06 -23.25,-3.1 -5.72,-0.94 -12.64,0.1 -17,-4.5 -5.52,-5.2 -10.8,-10.65 -16,-16.15 -5.92,-6.18 -7.61,-14.88 -11.45,-22.3 -6.5,-12.34 -7.82,-26.47 -8.8,-40.15 11.02,-9.72 5.24,-25.38 4.4,-37.9 -0.6,-4.08 -1.27,-8.17 -1.85,-12.25 3.84,-4.18 9.33,-8.19 9.35,-14.45 -0.16,-6.26 -5.28,-10.4 -10.2,-13.3 -8.06,-1.6 -16.56,-1.47 -24.3,-4.45 -4.66,-1.82 -9.17,-3.91 -13.75,-5.85 11.62,-5.16 23.25,-10.35 34.65,-15.95 -6.32,-9.66 -12.41,-19.47 -18.55,-29.25 7.6,1.02 15.25,1.74 22.95,1.7 18.9,0.76 37.77,-1.08 56.65,-1.3 6.84,0.28 14.64,3.49 20.8,-0.95 8.28,-5.5 15.22,-13.17 24.7,-16.75 5.22,-2.1 11.36,-2.66 15.4,-7 9.02,-8.64 21.58,-11.53 33.3,-14.55 11.8,-2.3 23.87,-4.87 35.95,-3.65 7.56,1.18 7.1,10.78 11.9,15.3 6.46,6.46 11.72,13.91 15.9,22.05 5.14,10.7 17.28,17.55 17.6,30.45 4.46,-2.9 8.95,-5.78 13.45,-8.6 -3.82,-5.64 -9.05,-10.94 -10.15,-17.9 -0.74,-4.74 2.83,-8.29 5.55,-11.65 10.32,-11.1 17.44,-25.23 30.4,-33.75 6.62,5.3 14.97,6.8 23.25,6.2 l 0,-14.95 c -3.98,0.38 -7.97,0.73 -11.95,1.05 -4.16,-2.62 -8.71,-6.39 -13.95,-4.35 -8.98,3.32 -16.03,10.59 -21.35,18.35 -4.84,7.12 -11.44,12.76 -16.5,19.7 -4.18,-0.04 -8.37,-0.1 -12.55,-0.1 -10.82,-9.86 -21.85,-22.57 -37.55,-23.35 -15.32,-0.24 -30.61,1.51 -45.75,3.75 1.9,-5.88 3.55,-12.08 7.45,-17 10.94,-14 22.41,-27.55 35.35,-39.75 1.8,13.2 5.48,27.53 16.3,36.35 4.94,4.28 11.61,4.92 17.85,5.6 4.62,-16.76 12.33,-32.5 21.65,-47.1 7.76,-11.28 17.46,-21.03 26.6,-31.15 -13.12,1.56 -23.1,10.79 -32.3,19.45 -7.42,6.98 -12.23,16.04 -17.85,24.4 -5.44,-13.8 -6.51,-28.72 -6.45,-43.4 -0.53626,-7.4525 -7.60512,-11.63541 -14.55,-11.5 z m -292.2,50.5 c 5.21542,-0.32315 9.57,5.5975 10.35,10.7 3.26,7.88 -7.9,14.18 -14.1,9.7 -6.94,-3.94 -7.26,-15.34 0,-19.1 1.25626,-0.82125 2.54645,-1.22542 3.75,-1.3 z"
       id="path84"
       style="fill:#f4722b"
       inkscape:connector-curvature="0" />
    <path
       d="m 436.8,570.32 c 1.56,-1.74 6.36,-0.38 3.66,2.1 -2.36,3.38 -9.22,0.46 -3.66,-2.1 z"
       id="path86"
       inkscape:connector-curvature="0"
       style="fill:#f4722b" />
    <path
       style="fill:#f4722b"
       d="m 353.15,576.1 c -19.3,5.7 -37.57,14.58 -57.25,19.1 -12.84,2.94 -25.5,6.66 -38.1,10.5 3.62,13.78 7.83,27.39 11.85,41.05 -4.66,-1.84 -9.58,-5.13 -14.8,-3.55 -5.04,1.54 -6.65,7.1 -8.75,11.3 -9.48,-2.66 -19.37,-5.42 -29.25,-3.2 -0.58,0.42 -1.72,1.23 -2.3,1.65 -4.28,-2.68 -8.91,-4.62 -13.75,-6 2.08,9.6 5.32,19.64 2.1,29.4 -3.02,9.7 -5.62,20.28 -12.7,27.9 -6.94,4.86 -15.38,6.94 -23.1,10.3 -6.44,3.28 -13.79,-0.94 -16.75,-6.9 -6.8,-12.66 -14.81,-24.75 -20.15,-38.15 -5.72,-2 -11.33,-4.24 -16.85,-6.8 4.48,5.78 11.55,11.13 10.85,19.25 -2.08,16.48 -14.41,29.99 -28.75,37.45 -16.9,10.12 -36.39,14.56 -55.55,18.1 -3.6,-3.38 -6.74,-7.8 -11.7,-9.2 -9.34,-2.4 -19.24,-0.87 -28.2,2.35 l 0,32.1 c 5.7,-3.24 11.62,-6.4 18.1,-7.7 5.22,-1.18 9.86,2.05 14.4,4.05 -7.42,8.54 -16.86,17.16 -16.5,29.5 4.92,-9.94 9.56,-20.2 17.1,-28.5 7.52,6.2 15,12.52 21.2,20.1 -6.9,0.44 -14.56,-0.52 -20.5,3.8 -10.24,6.82 -20.62,13.96 -28.3,23.7 -4.5,4.76 -1.17,11.41 -0.75,17.05 1.56,13.2 2.99,26.45 5.35,39.55 0.76,-15.98 1.25,-32.3 6.65,-47.5 2.78,-8.02 1.34,-17.9 8.2,-24.1 11.68,-11.2 29.63,-13.43 44.95,-10.05 2.26,3.46 3.93,7.85 8.05,9.55 16.04,7.14 32.77,13.3 50.35,15.1 2.84,2.24 5.63,4.49 8.45,6.75 0.14,2.58 0.26,5.15 0.4,7.75 7.14,-1.58 14.58,-2.68 21.2,-6 4.54,-3.98 6.88,-10.05 12.1,-13.35 2.2,-2.12 6.29,-3.15 6.65,-6.65 0.36,-9.08 -5.99,-16.72 -6.45,-25.7 -0.44,-4.92 1.33,-9.6 2.75,-14.2 11.06,-15.44 30.46,-20.25 44.5,-32.05 3.74,-8.88 5.42,-18.77 11,-26.95 l 1.65,0.6 c 4.54,-0.12 10.46,1.1 13.5,-3.3 4.76,-5.16 1.62,-12.28 0.5,-18.2 3.04,0.72 6.07,1.5 9.15,2.1 13.7,1.16 27.67,2.22 41.25,-0.6 2.92,-8.46 3.94,-17.38 6.5,-25.9 6.68,-10.04 19.33,-14.38 30.75,-16.3 10.26,-1 18.36,-8.06 27.8,-11.5 6.1,-2.92 13.85,-3.89 17.65,-10.15 4.76,-7.42 13.06,-14 22.4,-11.9 5.98,2.1 10.48,6.93 16,9.95 4.28,1.94 5.97,6.57 9.35,9.55 -1.7,-4.9 -5.75,-8.67 -7.05,-13.75 -1.54,-5.98 0.15,-12.14 1.05,-18.1 -7.94,0.2 -15.16,-3 -20.6,-8.7 -3.74,0.76 -7.48,1.6 -11.2,2.4 -0.14,6.98 -0.69,15.09 -7.05,19.45 -8.44,6.46 -22.41,3.57 -27.15,-6.15 -3.96,-6.2 -1.33,-13.68 -0.25,-20.3 z m -0.75,35.5 -1.75,5.05 c -5.96,2.44 -13.55,2.67 -17.55,8.35 -7.8,10.62 -20.65,15.38 -32.45,20 -6.18,2.68 -13.73,1.65 -18.35,-3.45 -4.42,-3.8 -3.42,-10.04 -3.8,-15.2 8.58,-0.72 17.17,-1.81 25.55,-3.95 16.04,-4.08 33.39,-2.78 48.35,-10.8 z M 122.25,714.2 c 0.58363,0.006 1.185,0.015 1.8,0.1 8.06,-0.24 11.38,8.4 17,12.6 8.64,6.48 16.97,13.33 25.95,19.35 -3.44,8.96 -9.29,17.83 -7.55,27.85 0.9,8.4 6.11,15.66 7.05,24 -1.9,5.72 -6.3,10.15 -10.1,14.65 -3.58,0.16 -7.12,0.37 -10.7,0.55 -0.96,1.14 -2.92,3.36 -3.9,4.5 -8.2,-7.96 -16.63,-15.73 -26.45,-21.75 -0.3,-3.68 0.97,-8.39 -2.65,-10.85 -7.94,-6.42 -19.09,-4.53 -28.25,-7.95 -2.52,-3.36 -4.23,-7.21 -6.25,-10.85 3.22,-0.92 6.46,-1.8 9.7,-2.7 -4.94,-8.54 -9.66,-19.89 -3,-28.85 3.52,-6.12 10.92,-5.98 16.9,-7.5 6.3375,-4.93125 11.69551,-13.2472 20.45,-13.15 z"
       id="path90"
       inkscape:connector-curvature="0" />
    <path
       d="m 496.54,587.22 c 5.78,-1.84 11.58,-3.72 17.52,-5.02 -5.02,3.28 -10.22,6.32 -15.44,9.28 -0.7,-1.44 -1.4,-2.86 -2.08,-4.26 z"
       id="path92"
       inkscape:connector-curvature="0"
       style="fill:#f4722b" />
    <path
       d="m 516.4,590.44 c 1.52,-0.52 3.04,-1.02 4.56,-1.5 3.34,3.56 6.72,7.1 9.76,10.94 -4.64,-3.34 -9.3,-6.68 -14.32,-9.44 z"
       id="path94"
       inkscape:connector-curvature="0"
       style="fill:#f4722b" />
    <path
       d="m 539.24,603.3 c 2.16,-4.06 6.54,-5.76 10.46,-7.64 -1.88,10.02 -6.48,19.9 -4.82,30.3 2.38,13.34 15.54,23.54 29.02,22.82 6.76,-0.02 12.7,-3.54 18.4,-6.76 -5.92,29.1 -9.68,58.58 -15.64,87.68 -3.52,16.88 -0.54,34.2 -3.4,51.16 -1.78,10.14 -2,20.5 -3.96,30.6 -1.88,1.66 -4.6,1.88 -6.82,2.84 0.82,-9.66 3.3,-19.06 4.34,-28.66 l -1.08,-1.4 c -0.54,0.16 -1.6,0.46 -2.12,0.6 -4.14,10.3 -2.66,22.16 -6.84,32.22 -12.7,7.22 -26.66,12.1 -39.7,18.74 C 499.06,798 481.52,760 463.56,722.18 c -2.08,-4.54 -4.72,-8.94 -5.5,-13.94 1.54,-4.42 4.52,-8.12 7.1,-11.96 -0.16,-1.28 -0.44,-3.82 -0.6,-5.08 9.94,-6.16 16.76,-15.76 24.36,-24.36 1.96,-2.7 5.58,-2.78 8.44,-3.9 -3.64,15.24 -4.4,30.88 -4.48,46.48 0.9,-0.18 2.74,-0.56 3.66,-0.74 4.12,-15.28 2.94,-31.96 9.8,-46.38 6.38,-3.46 14.28,-4.74 19.04,-10.68 4.7,-5.9 10.96,-11.74 10.4,-19.96 -1.78,-1.24 -3.56,-2.48 -5.34,-3.72 4.38,-7.74 3.1,-17.54 8.8,-24.64 z"
       id="path96"
       inkscape:connector-curvature="0"
       style="fill:#f4722b" />
    <path
       d="m 477.98,632.7 c 6.76,-0.38 10.56,-6.82 15.64,-10.42 3.98,3.2 7.42,7 11.02,10.6 -6.3,3.28 -13.1,5.4 -19.42,8.6 -6.56,3.38 -9.24,10.72 -11.68,17.24 1.64,0.54 4.88,1.64 6.52,2.18 -6.64,8.44 -13.1,17.08 -18.06,26.62 -9.74,-0.16 -13.02,9.68 -18.58,15.7 -4.54,5.64 -11.92,7.36 -18.32,9.98 -12.34,4.82 -25,8.86 -37.08,14.3 5.46,5.62 12.88,8.7 20.24,10.98 9.98,4.68 25.58,0.26 30.34,12.86 3.86,14.36 -3.84,28.28 -7.8,41.76 -1.64,3.66 -3.56,7.18 -5.44,10.74 -0.24,6.08 0.54,12.92 -3.74,17.9 -7.56,9.04 -15.48,18.72 -26.76,23.14 -7.66,3.46 -15.98,5.02 -24.26,6.3 6.9,12.74 13.3,25.86 16.42,40.1 13.2,1.04 26.48,1.26 39.68,2.22 2.12,5.04 -1.04,10.2 -2.6,14.94 -3.78,8.48 -5.46,18.54 -13.18,24.6 -6.94,-1.3 -14.08,-0.82 -20.32,2.74 4.76,0.34 9.54,0.64 14.32,0.92 -3.42,2.3 -6.4,6.06 -10.8,6.2 -8.28,0.48 -16.56,0.96 -24.68,2.68 -3.56,0.3 -8.04,2.42 -10.38,-1.48 -0.42,-5.8 5.16,-8.98 9.32,-11.74 13.94,-7.9 30.26,-11.36 46.22,-9.96 2.84,-6.86 2.88,-14.3 1.72,-21.52 -14.44,1 -28.88,1.96 -43.34,2.3 -7,4.9 -15.74,7.82 -21.08,14.78 -6.16,8.8 -2.48,20 -0.88,29.64 -8.2,1 -16.04,4 -22.86,8.64 -10.54,7.08 -21.58,13.32 -32.52,19.74 7.34,-17.2 25.3,-25.18 41.76,-31.22 6.9,-1.88 8.88,-10.44 6.22,-16.4 -2.26,-6.44 -5.7,-14.92 -13.7,-15.14 -8.58,-0.52 -17.26,0.24 -25.66,1.84 -6.96,2.68 -12.38,9.08 -20.22,9.5 -21.2,1.72 -42.16,-5.1 -63.26,-3.58 0.3,8.76 4.08,18.08 0.92,26.58 -2.5,5.84 -9.18,3.42 -13.72,2.04 -16.42,1.52 -31.46,8.52 -47.02,13.42 -10.08,3.22 -18.92,9.22 -28.7,13.18 17.46,-12.54 36.14,-23.36 55.92,-31.78 6.76,-2.04 13.96,-0.64 20.86,-1.8 3.06,-6.82 3.76,-15.06 -0.14,-21.7 -3.62,-6.8 -4.64,-14.48 -4.66,-22.08 8.36,4.6 15.4,11.14 23.44,16.2 1.72,-1.44 3.48,-2.8 5.32,-4.06 19.94,-1.48 40.18,6.14 59.86,0.5 12,-2.78 24,-5.58 35.82,-9.1 8.76,-2.78 19.64,0.24 26.56,-7.14 5.9,-4.94 6.62,-13.02 4.36,-19.96 -5.9,-2.6 -12.4,-5.28 -15.66,-11.24 -5.14,-8.42 -7.34,-18.16 -10.5,-27.4 -2.94,-7.5 0.98,-15.14 2.74,-22.4 0.58,-3.58 3.82,-7.22 7.72,-6.26 11.24,2.3 22.52,5.12 34.1,4.92 8.44,0.62 14.46,-6.26 21.38,-9.92 2.58,-8.96 7.12,-17.14 12.2,-24.88 2.28,-3.52 4.38,-7.14 6.52,-10.72 -13.74,-4.46 -28.46,-7.28 -40.36,-15.96 -6.28,-3.86 -11.8,-8.78 -18,-12.72 -19.44,5.82 -37.96,14.6 -57.2,21.18 -2.8,-9.3 -5.5,-18.64 -8.04,-28.02 20.84,-19.82 42.86,-38.36 65.64,-55.9 6.18,-4.5 13.72,-7.1 18.92,-12.94 5.54,-6 12.36,-10.58 19.36,-14.72 10.86,-6.46 19.84,-15.44 29.68,-23.24 14.96,9.18 33,8.64 49.88,7.64 z"
       id="path102"
       inkscape:connector-curvature="0"
       style="fill:#f4722b" />
    <path
       d="m 342.02,658.26 c 10.58,-8.6 23.08,-14.58 35.94,-18.88 -0.1,9.96 -4.7,19.86 -12.66,25.92 -19.78,15.5 -39.66,30.86 -58.44,47.58 -4.58,4.52 -9.18,9.08 -14.48,12.8 -2.54,-10.8 -6.36,-21.22 -9.16,-31.94 -2.74,-7.78 6.88,-11.28 12.02,-14.64 2.76,0.34 5.48,0.3 8.2,-0.12 2.34,-2.28 4,-5.16 5.84,-7.84 11.58,-2.12 23.34,-5.56 32.74,-12.88 z"
       id="path104"
       inkscape:connector-curvature="0"
       style="fill:#f4722b" />
    <path
       d="m 591,711.68 c 7.74,14.22 7.8,30.68 9.68,46.36 0.8,12.6 3.08,25.14 2.7,37.8 -7.54,4.42 -15.78,7.44 -23.64,11.22 0.62,-15.1 4.2,-29.9 4.42,-45.04 0.52,-16.96 2.74,-33.88 6.84,-50.34 z"
       id="path116"
       inkscape:connector-curvature="0"
       style="fill:#f4722b" />
    <path
       d="m 820.4,812.44 c 4.4,-4.7 12.8,-8.3 17.98,-2.8 4.4,5.7 0.64,12.98 0.26,19.32 l -3.22,0.5 c -1.36,-4.54 2.52,-12.64 -3.38,-14.48 -14,7.6 -15.98,26.72 -30.88,33.3 1,-14.1 9.94,-25.9 19.24,-35.84 z"
       id="path120"
       inkscape:connector-curvature="0"
       style="fill:#f4722b" />
    <path
       d="m 744.38,976.88 c 12.78,-1.74 25.72,0.1 37.84,4.34 -12.78,0.66 -25.32,-2.28 -37.84,-4.34 z"
       id="path122"
       inkscape:connector-curvature="0"
       style="fill:#f4722b" />
    <path
       d="m 288.56,996.18 c 5.04,7.34 11.02,14.16 19.14,18.2 -4.32,0.82 -9.52,2.8 -13.16,-0.7 -5.12,-4.3 -5.54,-11.34 -5.98,-17.5 z"
       id="path124"
       inkscape:connector-curvature="0"
       style="fill:#f4722b" />
  </g>
</svg>
