<?xml version="1.0" encoding="UTF-8" standalone="no"?>
<svg
   xmlns:dc="http://purl.org/dc/elements/1.1/"
   xmlns:cc="http://creativecommons.org/ns#"
   xmlns:rdf="http://www.w3.org/1999/02/22-rdf-syntax-ns#"
   xmlns:svg="http://www.w3.org/2000/svg"
   xmlns="http://www.w3.org/2000/svg"
   xmlns:sodipodi="http://sodipodi.sourceforge.net/DTD/sodipodi-0.dtd"
   xmlns:inkscape="http://www.inkscape.org/namespaces/inkscape"
   width="1280"
   height="1280"
   viewBox="0 0 1024 1024"
   version="1.1"
   id="svg2"
   inkscape:version="0.48.1 "
   sodipodi:docname="backstab_medic_pair.svg">
  <metadata
     id="metadata114">
    <rdf:RDF>
      <cc:Work
         rdf:about="">
        <dc:format>image/svg+xml</dc:format>
        <dc:type
           rdf:resource="http://purl.org/dc/dcmitype/StillImage" />
      </cc:Work>
    </rdf:RDF>
  </metadata>
  <defs
     id="defs112" />
  <sodipodi:namedview
     pagecolor="#ffffff"
     bordercolor="#666666"
     borderopacity="1"
     objecttolerance="10"
     gridtolerance="10"
     guidetolerance="10"
     inkscape:pageopacity="0"
     inkscape:pageshadow="2"
     inkscape:window-width="1920"
     inkscape:window-height="1018"
     id="namedview110"
     showgrid="false"
     fit-margin-top="0"
     fit-margin-left="0"
     fit-margin-right="0"
     fit-margin-bottom="0"
     inkscape:zoom="0.6609375"
     inkscape:cx="466.00473"
     inkscape:cy="640"
     inkscape:window-x="-8"
     inkscape:window-y="-8"
     inkscape:window-maximized="1"
     inkscape:current-layer="layer2"
     inkscape:snap-page="true" />
  <g
     inkscape:groupmode="layer"
     id="layer1"
     inkscape:label="background">
    <rect
       style="fill:#3e3e3e;fill-opacity:1;fill-rule:nonzero;stroke:none"
       id="rect3068"
       width="1280"
       height="1280"
       x="0"
       y="0"
       transform="scale(0.8,0.8)" />
  </g>
  <g
     inkscape:groupmode="layer"
     id="layer2"
     inkscape:label="foreground">
    <path
       style="fill:#f4722b"
       d="m 421.25,57.85 c -5.74,0.84 -11.44,1.95 -17,3.65 l 1.35,-0.3 2.65,-0.6 c -6.66,11.6 -13.51,23.12 -21.15,34.1 -1.08,1.6 -2.06,3.26 -3,4.9 -37.76,71.66 -75.5,143.28 -112.6,215.3 -8.24,15.36 -16.51,30.77 -23.95,46.55 5.64,3.26 11.21,6.63 16.75,10.05 8.68,-6.04 13.55,-15.55 18.85,-24.35 47.96,-78.64 96.07,-157.22 144.15,-235.8 4.88,-7.92 9.69,-15.89 14.55,-23.85 2.46,-4.04 5.01,-8.05 7.55,-12.05 -9.22,-6.14 -18.87,-11.56 -28.15,-17.6 z m -0.65,11.2 c 8.79499,0.17526 16.95374,9.845 13.2,18.75 -3.18,9.6 -17.28,11.49 -23.3,3.65 -5.84,-6.16 -3.91,-17.51 4.05,-20.85 1.9575,-1.09875 4.02038,-1.59044 6.05,-1.55 z m -163.7,283.9 c 3.04,0.52 7.61,-0.73 9.05,2.95 l 0,6.15 c -2.64,-1 -7.82,0.95 -8.3,-2.95 -0.36,-2.04 -0.61,-4.09 -0.75,-6.15 z"
       id="path6"
       inkscape:connector-curvature="0" />
    <path
       d="m 606.75,57.85 c -9.28,6 -18.89,11.53 -28.15,17.55 2.5,4.04 5.07,8.07 7.55,12.15 4.84,7.94 9.67,15.86 14.55,23.8 47.84,78.18 95.71,156.37 143.45,234.65 5.6,9.1 10.46,19.18 19.5,25.5 5.54,-3.4 11.11,-6.76 16.75,-10 -17.5,-36.22 -37.47,-71.22 -55.25,-107.3 -16.52,-31.34 -32.63,-62.87 -49.45,-94.05 -11.78,-21.7 -22.29,-44.08 -34.75,-65.4 -7.66,-10.98 -14.54,-22.5 -21.2,-34.1 l 2.7,0.55 1.45,0.3 c -5.6,-1.72 -11.37,-2.79 -17.15,-3.65 z m 0.65,11.3 c 6.86157,0.11063 13.65499,5.5 13.55,12.85 0.58,10.54 -12.35,18.31 -21.25,12.45 -8.98,-4.96 -7.85,-19.15 1.05,-23.55 2.04,-1.27 4.36282,-1.78688 6.65,-1.75 z M 764.3,351.6 c 2.62,1.52 6.88,2.21 7,6.05 -1.16,2.6 -3.49,4.41 -5.25,6.55 -0.9,-1.18 -2.65,-3.57 -3.55,-4.75 -2.6,-2.44 1.72,-5.21 1.8,-7.85 z"
       id="path8"
       style="fill:#f4722b"
       inkscape:connector-curvature="0" />
    <path
       d="m 392.9,64.76 c 4.06,-1.72 8.44,-2.54 12.7,-3.56 l 2.64,-0.58 c -6.66,11.6 -13.52,23.12 -21.16,34.1 -1.28,-4.94 -2.52,-9.88 -3.62,-14.86 3.12,-5.06 5.82,-10.38 9.44,-15.1 z"
       id="path10"
       inkscape:connector-curvature="0"
       style="fill:#f5e5c1" />
    <path
       d="m 619.76,60.64 2.7,0.58 c 4.22,1 8.54,1.8 12.56,3.48 3.66,4.72 6.38,10.06 9.5,15.14 -1.08,4.98 -2.32,9.94 -3.58,14.9 -7.66,-10.98 -14.52,-22.5 -21.18,-34.1 z"
       id="path12"
       inkscape:connector-curvature="0"
       style="fill:#f5e5c1" />
    <path
       d="m 416.96,73.28 c 3.74,-1.78 7.46,0.44 11.02,1.46 -6.08,3.42 -12.36,6.52 -18.82,9.2 1.8,-4 3.16,-9.08 7.8,-10.66 z"
       id="path18"
       inkscape:connector-curvature="0"
       style="fill:#f5e5c1" />
    <path
       d="m 600.02,74.76 c 3.5,-1.02 7.14,-3.22 10.86,-1.54 4.74,1.52 6.14,6.64 7.9,10.7 -6.44,-2.68 -12.68,-5.78 -18.76,-9.16 z"
       id="path20"
       inkscape:connector-curvature="0"
       style="fill:#f5e5c1" />
    <path
       style="fill:#f4722b"
       d="m 453.6,77.75 c -2.46,4.04 -4.94,8.06 -7.4,12.1 -5.06,8.28 -10.13,16.58 -15.15,24.9 -52.44,85.7 -104.86,171.41 -157.1,257.25 0.9,2.4 1.83,4.78 2.75,7.2 5.02,2.94 9.8,6.34 15.2,8.6 32.66,-44.78 64.23,-90.42 96.05,-135.8 32.66,-47.38 67.42,-93.38 97.6,-142.4 1.56,-4.3 -0.89,-8.94 -1.55,-13.3 -10.18,-6.1 -20.3,-12.33 -30.4,-18.55 z m 7,17.1 c 6.19032,0.31125 12.15499,6.35 10.4,12.95 -1.38,7.76 -12.5,10.46 -17.6,4.7 -4.56,-4.24 -4.16,-12.54 1.2,-15.9 1.84,-1.36 3.93656,-1.85375 6,-1.75 z M 288.35,368.9 c 0.62581,0.0173 1.27875,0.24374 1.95,0.75 4.74,1.58 2.46,9.67 -2.4,8.85 -2.08,-1.38 -4.12,-2.72 -6.2,-4.1 1.67374,-1.73875 3.93816,-5.57502 6.65,-5.5 z"
       id="path22"
       inkscape:connector-curvature="0" />
    <path
       d="m 574.4,77.75 c -10.12,6.22 -20.22,12.43 -30.4,18.55 -0.9,3.86 -2,7.72 -2.2,11.7 3.32,7.62 8.81,14.04 13.15,21.1 26.7,42.04 56.9,81.7 85,122.8 31.54,45.66 64.09,90.56 95.65,136.2 5.3,-2.8 10.52,-5.76 15.7,-8.8 0.9,-2.42 1.83,-4.85 2.75,-7.25 -52.2,-85.88 -104.68,-171.56 -157.1,-257.3 -5.04,-8.32 -10.09,-16.62 -15.15,-24.9 -2.48,-4.04 -4.94,-8.08 -7.4,-12.1 z m -7.05,17.1 c 5.04469,-0.005 10.1,3.73 10.4,9.1 1.16,8.24 -8.94,14.85 -16,10.25 -7.12,-3.56 -6.17,-14.72 0.75,-18 1.50501,-0.915 3.16843,-1.34844 4.85,-1.35 z m 171.8,274.1 c 2.61563,-0.26437 5.22501,2.83 6.8,4.9 -2.06,2 -4.12,4 -6.2,6 -2.36,-2.12 -7.16,-6.51 -3.2,-9.35 0.83501,-0.99 1.72813,-1.46187 2.6,-1.55 z"
       id="path24"
       style="fill:#f4722b"
       inkscape:connector-curvature="0" />
    <path
       d="m 414.8,88.8 c 5.54,-3.22 11.44,-5.74 17.2,-8.48 -0.24,6.02 -3.34,12.76 -10.22,12.98 -2.74,-0.42 -9.62,-0.14 -6.98,-4.5 z"
       id="path26"
       inkscape:connector-curvature="0"
       style="fill:#f5e5c1" />
    <path
       d="m 596,80.3 c 5.8,2.76 11.7,5.34 17.28,8.54 2.28,4.34 -4.2,3.98 -6.86,4.48 C 599.46,93.2 596.2,86.4 596,80.3 z"
       id="path28"
       inkscape:connector-curvature="0"
       style="fill:#f5e5c1" />
    <path
       d="m 441.86,87.52 c 1.08,0.58 3.26,1.74 4.34,2.32 -5.06,8.28 -10.12,16.58 -15.14,24.9 -0.94,-0.86 -2.82,-2.54 -3.76,-3.4 4.88,-7.92 9.7,-15.86 14.56,-23.82 z"
       id="path30"
       inkscape:connector-curvature="0"
       style="fill:#f5e5c1" />
    <path
       d="m 581.8,89.84 c 1.08,-0.58 3.26,-1.74 4.34,-2.3 4.84,7.94 9.68,15.88 14.56,23.82 -0.94,0.84 -2.82,2.52 -3.76,3.38 -5.04,-8.32 -10.08,-16.62 -15.14,-24.9 z"
       id="path32"
       inkscape:connector-curvature="0"
       style="fill:#f5e5c1" />
    <path
       d="m 460.08,97.32 c 2.62,2.1 6.92,3.22 7.5,7.04 -0.1,2.6 -0.86,5.1 -1.52,7.58 -2.38,-4.7 -4.4,-9.58 -5.98,-14.62 z"
       id="path38"
       inkscape:connector-curvature="0"
       style="fill:#f5e5c1" />
    <path
       d="m 561.5,101.76 c 1.98,-1.68 4.22,-3.06 6.42,-4.46 -1.6,5.04 -3.6,9.94 -5.96,14.64 -0.7,-3.28 -2.7,-7.08 -0.46,-10.18 z"
       id="path40"
       inkscape:connector-curvature="0"
       style="fill:#f5e5c1" />
    <path
       d="m 454.14,99.1 c 2.86,4.48 4.98,9.36 6.86,14.32 -1.72,-0.72 -5.18,-2.14 -6.9,-2.84 -0.32,-3.82 -0.44,-7.66 0.04,-11.48 z"
       id="path42"
       inkscape:connector-curvature="0"
       style="fill:#f5e5c1" />
    <path
       d="m 567,113.42 c 1.88,-4.94 3.98,-9.84 6.82,-14.32 0.46,3.78 0.4,7.6 0.14,11.42 -1.74,0.72 -5.22,2.18 -6.96,2.9 z"
       id="path44"
       inkscape:connector-curvature="0"
       style="fill:#f5e5c1" />
    <path
       d="m 788.44,200.14 c 7.3,-0.24 14.6,0.28 21.86,1.06 -2.3,5.26 -4.72,10.48 -7.28,15.62 6.56,3.1 13.18,6.08 19.94,8.78 -2.64,5.3 -4.78,10.84 -7.9,15.86 -5.78,0.98 -10.74,-5.82 -16.3,-4.8 -3.38,5.32 -5.44,11.32 -8.2,16.96 -8.84,-4.1 -17.68,-8.16 -26.96,-11.12 3.08,-5.96 6.42,-11.8 10.1,-17.42 -4.36,-2.46 -8.76,-4.9 -13.18,-7.26 2.38,-3.82 4.78,-7.64 7.2,-11.44 5.04,0.98 10.02,2.52 15.2,2.74 2.12,-2.8 3.76,-5.94 5.52,-8.98 z"
       id="path46"
       inkscape:connector-curvature="0"
       style="fill:#f4722b" />
    <path
       d="m 916.78,235.72 c 14.9,6.56 29.6,13.58 44.5,20.18 -1.92,10.82 -3.86,21.62 -6.04,32.4 11.8,5.22 24.02,9.46 35.6,15.2 -2.52,10.08 -4.84,20.2 -6.8,30.4 -12.22,-1.58 -23.78,-6.28 -36.06,-7.4 -1.46,13.1 -3.62,26.14 -6.52,39 -21.36,-5.12 -42.06,-12.8 -63.18,-18.88 2.96,-12.46 6.32,-24.84 9.34,-37.3 -11.88,-2.96 -23.8,-5.84 -35.66,-8.88 1.64,-13 5.14,-25.64 7.54,-38.5 15.3,3.06 30.08,8.12 45.18,11.88 4.14,-12.66 8.48,-25.28 12.1,-38.1 z"
       id="path48"
       inkscape:connector-curvature="0"
       style="fill:#f4722b" />
    <path
       d="m 612.76,360.4 c 11.14,-7.68 21.84,-16.02 32.94,-23.76 6.76,5.9 13.76,11.52 20.56,17.38 7.28,-5.4 14.36,-11.04 21.54,-16.56 5.3,7.62 10.62,15.22 15.86,22.88 -4.08,4.38 -8.92,8.24 -11.72,13.62 7.38,8.2 17.18,13.76 24.48,22.1 -12.9,12.5 -25.86,24.98 -38.8,37.46 -7.96,-6.98 -14.84,-15.2 -23.5,-21.32 -7.54,6.12 -12.84,14.5 -20.24,20.76 -2.98,0.68 -4.7,-2.68 -6.92,-4.04 -6.2,-5.64 -12.52,-11.12 -18.78,-16.68 9.22,-9.1 18.4,-18.26 27.32,-27.66 -7.66,-7.98 -15.12,-16.14 -22.74,-24.18 z"
       id="path50"
       inkscape:connector-curvature="0"
       style="fill:#f4722b" />
    <path
       d="m 237.45,346.75 c -1.72,4.04 -3.46,8.11 -5.2,12.15 3.96,5.2 7.89,10.4 11.85,15.6 -6.2,9.62 -12.15,19.38 -18.95,28.6 -9.08,12.56 -16.09,26.56 -25.35,39 -6.98,5.84 -16.13,8.37 -23.95,12.95 -13,-15.18 -26.17,-30.23 -39.25,-45.35 -27.16,21.74 -53.01,45.12 -80.45,66.5 1.04,0.26 3.11,0.81 4.15,1.05 9.06,12.38 15.99,26.25 24.35,39.15 -14.92,11.26 -30.31,21.89 -45.25,33.15 23.42,30 47.08,59.85 70.4,89.95 12.9,-10.36 25.54,-20.94 38.5,-31.2 5.4,6.48 10.26,13.38 14.8,20.5 10.74,13.96 22.2,27.39 32.8,41.45 11.5,-8.52 21.76,-18.49 32.8,-27.55 27.22,-23.52 54.76,-46.66 81.8,-70.4 -6.28,-8.02 -13.27,-15.54 -18.65,-24.2 -5.86,-9.44 -14.14,-17.06 -20.1,-26.4 14,-8.2 28.77,-14.98 43.05,-22.7 -18.84,-17.26 -38.94,-33.11 -58,-50.15 8.88,-16.54 17.16,-33.36 25.5,-50.2 6.66,0.42 13.35,0.65 20.05,0.95 2.5,-4.54 4.99,-9.07 7.45,-13.65 -1.74,-2.04 -3.46,-4.08 -5.2,-6.1 -3.08,5.4 -6.3,10.75 -9.7,15.95 -9.36,-6.56 -23.12,-10.07 -25.5,-22.95 -2.98,0.62 -5.86,1.57 -8.9,1.85 -7.06,-3.62 -13.56,-8.25 -20.3,-12.45 3.04,-4.94 6.11,-9.86 9.15,-14.8 -3.96,-0.26 -7.94,-0.52 -11.9,-0.7 z M 134,430 c 15.38,14.08 30.77,28.2 46.15,42.3 -9.36,14.88 -19.46,29.23 -28.9,44.05 16.28,13.84 32.49,27.79 48.95,41.45 16.82,-31.24 32.5,-63.05 49,-94.45 11.54,12.92 23.26,25.73 34.8,38.65 -13.92,9.04 -27.77,18.19 -41.75,27.15 16.32,15.28 33.09,29.97 49.75,44.85 -31.32,23.32 -62.68,46.68 -94,70 -6.14,-8.04 -12.82,-15.72 -17.6,-24.7 -7.8,-11.56 -16.99,-22.13 -25.25,-33.35 C 140.73,595.27 126.4,604.68 112,614 95.34,592.66 78.66,571.32 62,550 76.6,540.6 91.19,531.27 105.75,521.85 94.13,506.91 82.86,491.76 71,477 c 21.26,-15.3 41.96,-31.4 63,-47 z"
       id="path52"
       style="fill:#f5e5c1"
       inkscape:connector-curvature="0" />
    <path
       d="m 778.82,347.26 c 3.92,-0.18 7.86,-0.28 11.8,-0.42 1.68,4.04 3.4,8.08 5.12,12.12 -4.04,5.22 -8.02,10.48 -11.82,15.88 7.38,11.06 14.44,22.34 22.28,33.1 22.82,36.6 47.14,72.26 70.52,108.5 -15,12.48 -29.68,25.32 -44.64,37.8 -1.08,0.88 -3.26,2.62 -4.34,3.5 -11.56,-21.24 -22.22,-42.96 -33.46,-64.36 -15.98,-31.7 -33.2,-62.74 -48.6,-94.74 -6.66,0.42 -13.34,0.68 -20,1 -2.5,-4.52 -5.02,-9.04 -7.44,-13.58 1.6,-2.1 3.22,-4.18 4.84,-6.28 3.3,5.36 6.58,10.74 10.04,16 6.3,-3.96 12.92,-7.42 19.06,-11.68 3.86,-2.62 4.68,-7.6 6.54,-11.56 2.7,0.9 5.4,1.82 8.1,2.76 7.04,-4.22 14.04,-8.52 20.92,-12.98 -3,-5 -6.02,-10 -8.92,-15.06 z"
       id="path54"
       inkscape:connector-curvature="0"
       style="fill:#f5e5c1" />
    <path
       d="m 469.94,371.94 c 11.32,-15.6 31,-24.62 50.2,-23.04 25.14,1.76 47.6,21.9 51.5,46.88 4.66,23.46 -7.76,48.02 -28.12,59.94 -0.04,-6.06 -0.44,-12.12 0.24,-18.14 3.2,-5.36 7.92,-9.76 10.22,-15.66 6.66,-15.5 2.84,-34.92 -9.68,-46.34 -13.64,-13.58 -37.04,-15.12 -52.56,-3.88 -12.18,8.46 -19.12,23.7 -17.3,38.46 0.76,11.16 7.26,20.88 15.22,28.36 0.02,6.04 0.02,12.08 -0.1,18.14 -11.12,-6.78 -21.06,-16.14 -26.04,-28.4 -8.02,-18.16 -5.54,-40.44 6.42,-56.32 z"
       id="path56"
       inkscape:connector-curvature="0"
       style="fill:#f5e5c1" />
    <path
       d="m 491.9,391.18 c 16.18,-0.1 32.38,0 48.58,-0.04 0,1.88 0,5.64 0,7.54 -16.2,-0.04 -32.38,0.02 -48.58,-0.04 0,-1.86 0,-5.6 0,-7.46 z"
       id="path66"
       inkscape:connector-curvature="0"
       style="fill:#f5e5c1" />
    <path
       d="m 492.16,402.5 c 16.1,-0.02 32.2,0.04 48.3,-0.02 0,9.04 0,18.1 0,27.16 -16.1,-0.06 -32.2,0 -48.3,-0.02 0.02,-9.04 0.02,-18.08 0,-27.12 z"
       id="path68"
       inkscape:connector-curvature="0"
       style="fill:#f5e5c1" />
    <path
       d="m 860.1,455.04 c 13.14,-15.14 26.2,-30.36 39.46,-45.4 26.92,21.96 52.9,45.1 80.22,66.54 -5.08,-0.1 -6.96,4.86 -9.26,8.44 -6.34,10.64 -12.72,21.26 -19.2,31.82 14.96,11.22 30.34,21.86 45.24,33.14 -23.42,30 -47.04,59.86 -70.34,89.94 -12.9,-10.36 -25.58,-21 -38.56,-31.26 -15.12,20.18 -31.58,39.32 -47.14,59.16 -3.68,-0.12 -5.92,-3.5 -8.64,-5.5 -35.28,-30.74 -71.16,-60.8 -106.4,-91.62 13,-16.14 26,-32.3 38.86,-48.5 -14.02,-8.28 -28.88,-15.02 -43.18,-22.8 15.02,-13.8 31,-26.54 46.32,-40.02 2.78,5.5 5.56,11 8.38,16.48 -7.92,8.88 -15.92,17.68 -23.84,26.56 13.92,9.04 27.76,18.16 41.74,27.12 -11.32,9.58 -21,21.24 -33.92,28.76 -5.7,4.2 -10.54,9.42 -15.8,14.14 31.3,23.32 62.62,46.64 93.94,69.96 14.32,-18.68 28.34,-37.56 42.88,-56.06 14.4,9.32 28.74,18.74 43.14,28.06 16.66,-21.34 33.34,-42.66 50,-64 -14.6,-9.38 -29.2,-18.72 -43.76,-28.14 11.6,-14.94 22.92,-30.12 34.78,-44.88 -21.26,-15.3 -41.98,-31.36 -63.02,-46.96 -15.32,14.04 -30.68,28.06 -45.98,42.1 -6.08,-9.4 -12.34,-18.68 -18.16,-28.22 7.4,3.7 14.88,7.3 22.24,11.14 z"
       id="path70"
       inkscape:connector-curvature="0"
       style="fill:#f5e5c1" />
    <path
       d="m 499.54,436.56 c 11.12,0 22.24,0 33.34,0 -0.02,12.06 -0.02,24.12 0.02,36.2 -11.12,-0.7 -22.24,-0.7 -33.36,-0.12 0.02,-12.02 0.02,-24.06 0,-36.08 z"
       id="path74"
       inkscape:connector-curvature="0"
       style="fill:#f5e5c1" />
    <path
       d="m 862.22,481.62 c 13.26,-13.86 26.5,-27.74 39.78,-41.6 16,14 32.02,27.98 48,42 -10.4,13.54 -20.82,27.06 -31.22,40.58 13.06,10.48 26.16,20.94 39.22,31.4 -10.66,12.68 -21.32,25.34 -32,38 -14.22,-7.74 -28.44,-15.48 -42.64,-23.26 -15.54,19.44 -29.84,39.82 -45.38,59.24 -22.94,-18.4 -45.78,-36.94 -68.74,-55.3 11.5,-13.7 23.96,-26.54 35.32,-40.34 5.18,10.52 10.26,21.08 15.38,31.64 4.04,-3.24 8.14,-6.42 12.14,-9.74 14.96,-12.48 29.64,-25.32 44.64,-37.8 1.74,-1.48 3.5,-2.94 5.28,-4.42 -6.58,-10.14 -13.2,-20.26 -19.78,-30.4 z"
       id="path76"
       inkscape:connector-curvature="0"
       style="fill:#f4722b" />
    <path
       d="m 379.66,529.68 c 37.12,-31.54 85.66,-49.32 134.4,-49.08 44,-0.3 87.9,14.02 123.38,40.02 45.04,32.7 75.88,84.18 83.2,139.38 5.84,33.78 0.54,68.68 -10.64,100.8 -8.04,-10.48 -17.1,-20.16 -27.68,-28.12 9.24,-36.56 6.72,-76.08 -7.9,-110.92 -14.74,-35.62 -41.9,-65.88 -75.64,-84.52 -32.2,-18.08 -70.32,-25.24 -106.9,-20.42 -38.46,4.8 -75.04,23.12 -101.98,50.98 -40.18,40.42 -57.32,101.46 -45.4,157.06 -10.76,5.86 -21.22,12.28 -31.14,19.46 -6,-24.9 -10.44,-50.96 -6.34,-76.52 5.12,-53.14 31.74,-103.8 72.64,-138.12 z"
       id="path78"
       inkscape:connector-curvature="0"
       style="fill:#f5e5c1" />
    <path
       d="m 766.02,502.02 c 4.7,-5.98 9.42,-11.96 14.18,-17.92 5.96,11.8 12,23.54 17.86,35.4 -10.68,-5.82 -21.36,-11.64 -32.04,-17.48 z"
       id="path80"
       inkscape:connector-curvature="0"
       style="fill:#f4722b" />
    <path
       d="m 508.16,526.28 c 4.14,0 8.28,0 12.42,0.02 -0.02,8.46 0,16.9 -0.06,25.36 -4.14,-0.02 -8.26,-0.02 -12.38,-0.02 0.04,-8.46 0.02,-16.9 0.02,-25.36 z"
       id="path82"
       inkscape:connector-curvature="0"
       style="fill:#f5e5c1" />
    <path
       d="m 536.08,530.72 c 4.32,0.7 8.66,1.46 13,2.2 -3.06,24.96 -5.52,50 -8.5,74.98 -0.46,5.34 -3.92,9.64 -6.78,13.94 -10.2,14.52 -19.6,29.6 -29.98,43.98 10.34,-45.12 21.74,-90.02 32.26,-135.1 z"
       id="path84"
       inkscape:connector-curvature="0"
       style="fill:#f4722b" />
    <path
       d="m 499.6,683.16 c 29.94,-45.4 60.1,-90.66 90.16,-135.98 3.68,2.2 7.38,4.36 11.08,6.54 -24.34,48.6 -48.38,97.34 -72.62,146 -9.5,-5.58 -19.06,-11.08 -28.62,-16.56 z"
       id="path86"
       inkscape:connector-curvature="0"
       style="fill:#f5e5c1" />
    <path
       d="m 394.7,578.16 c 2.98,-2.92 5.94,-5.86 8.92,-8.8 6.22,6.38 12.58,12.66 18.94,18.88 -2.94,3 -5.86,6 -8.76,9.02 -6.34,-6.38 -12.7,-12.76 -19.1,-19.1 z"
       id="path88"
       inkscape:connector-curvature="0"
       style="fill:#f5e5c1" />
    <path
       d="m 625.32,569.46 c 2.98,2.92 5.96,5.84 8.94,8.76 -5.72,5.62 -11.4,11.28 -17,17.02 -3,-2.96 -6.02,-5.9 -9.04,-8.8 5.8,-5.56 11.48,-11.24 17.1,-16.98 z"
       id="path90"
       inkscape:connector-curvature="0"
       style="fill:#f5e5c1" />
    <path
       d="m 474.48,656.64 c 6.68,-8.84 16.62,-14.36 26.88,-17.98 -0.86,5.16 -1.78,10.32 -2.72,15.48 -8.38,4.88 -15.9,11.9 -18.96,21.36 -6.34,16.68 1.9,37 17.84,44.84 14.9,8.06 34.9,3.78 45.32,-9.54 8.56,-10.24 10.08,-24.72 5.68,-37.08 2.66,-4.7 5.36,-9.36 8.12,-14 9.18,14.4 11.34,33.24 4.18,48.92 -10.36,25.14 -42.86,38.02 -67.34,25.72 -9.66,-5.8 -19.6,-12.7 -24.5,-23.24 -9,-17.2 -6.7,-39.42 5.5,-54.48 z"
       id="path92"
       inkscape:connector-curvature="0"
       style="fill:#f5e5c1" />
    <path
       d="m 352.7,682.7 c 8.6,0.06 17.22,0.04 25.82,0.06 -0.04,4.12 -0.06,8.26 -0.04,12.4 -8.6,0.04 -17.18,0.04 -25.76,0.06 0,-4.18 0,-8.34 -0.02,-12.52 z"
       id="path94"
       inkscape:connector-curvature="0"
       style="fill:#f5e5c1" />
    <path
       d="m 654.32,682.72 c 8.08,0.02 16.18,0.04 24.26,0 0,4.16 0,8.34 0.02,12.5 -8.08,-0.04 -16.16,-0.04 -24.24,0 0,-4.18 0,-8.34 -0.04,-12.5 z"
       id="path96"
       inkscape:connector-curvature="0"
       style="fill:#f5e5c1" />
    <path
       d="m 403.28,726.68 c 23.84,-0.22 48.66,3.78 68.98,16.96 16.38,10.72 27.34,28.98 29.24,48.46 2.74,18.68 -5.84,37.48 -19.36,50.08 -10.94,10.96 -24.9,18.04 -38.78,24.5 11.02,4.72 21.86,11.22 28.36,21.64 9.3,14.08 6.82,33.4 -2.74,46.68 -9.44,12.78 -23.96,21.08 -39.16,25.06 -31.92,8.56 -68.32,1.24 -93,-21.2 6.56,-11.2 13.02,-22.42 19.56,-33.62 15.74,9.46 33.76,18.36 52.66,15.62 7.9,-1.56 18.22,-5.62 18.96,-14.9 -0.8,-9.3 -9.2,-15.72 -17.54,-18.24 -14.7,-4.44 -30.24,-4 -45.42,-4.26 -0.04,-11.96 0.14,-23.9 -0.5,-35.84 17.68,0.04 35.88,-1.6 52.16,-9.04 6.76,-3.2 13.42,-8.04 16.28,-15.2 3,-8.18 -1.08,-17.62 -7.86,-22.6 -7.2,-5.1 -16.6,-4.84 -24.96,-3.76 -19.7,3.46 -37.54,13.44 -53.52,25.1 -11.94,-18.8 -23.9,-37.6 -35.84,-56.42 26.6,-20.68 58.08,-37.9 92.48,-39.02 z"
       id="path98"
       inkscape:connector-curvature="0"
       style="fill:#f4722b" />
    <path
       d="m 614.25,726.15 c -5.07141,0.045 -10.13626,0.5025 -15.15,1.35 -28.84,4.7 -54.74,22.54 -71,46.6 -21.7,31.54 -27.36,73.15 -15.8,109.55 9.12,29.26 29.94,55.06 57.5,68.8 24.36,12.4 53.93,14.1 79.65,4.9 20.04,-7.02 37.26,-20.79 50.1,-37.55 18.84,-24.8 27.06,-57.04 23.8,-87.9 -3.32,-33.34 -20.31,-65.62 -47.55,-85.5 -17.56626,-13.27626 -39.5739,-20.44506 -61.55,-20.25 z M 615,798.2 c 14.54541,-0.003 28.89875,7.3425 37.95,18.75 19.28,24.24 19.17,62.77 -2.05,85.85 -9.86,10.74 -24.23,18.47 -39.15,17.15 -16.5,-1.46 -31.13,-12.48 -39.25,-26.6 -12.72,-22.42 -11.31,-52.3 3.15,-73.6 6.86,-10.08 17.45,-17.61 29.35,-20.35 3.31875,-0.82499 6.64338,-1.19923 10,-1.2 z"
       id="path100"
       style="fill:#f4722b"
       inkscape:connector-curvature="0" />
    <path
       d="m 355.82,824.22 c 9.24,-7.56 20.2,-12.32 31.02,-17.1 8.58,8.66 17.7,16.76 27.56,23.92 -14.92,4.72 -30.58,6.76 -46.2,6.64 -4.32,-4.3 -8.46,-8.8 -12.38,-13.46 z"
       id="path104"
       inkscape:connector-curvature="0"
       style="fill:#f5e5c1" />
    <path
       d="m 571.68,852.84 c 24.04,-8.48 45.94,-22.38 64.42,-39.88 8.82,7.92 16.04,17.58 20.2,28.76 -22.66,20.9 -49.92,36.72 -79.32,46.04 -4.28,-11.12 -5.96,-23.06 -5.3,-34.92 z"
       id="path106"
       inkscape:connector-curvature="0"
       style="fill:#f5e5c1" />
    <path
       d="m 463.82,865.5 c 2.76,-2.66 5.56,-5.28 8.28,-7.96 6.82,1.26 13.66,2.5 20.48,3.74 1.32,12.32 4.68,24.28 9.04,35.86 -5.26,-0.62 -10.48,-1.26 -15.7,-2.02 -3.06,-12.44 -11.5,-22.72 -22.1,-29.62 z"
       id="path108"
       inkscape:connector-curvature="0"
       style="fill:#f5e5c1" />
  </g>
</svg>
