<?xml version="1.0" encoding="UTF-8" standalone="no"?>
<svg
   xmlns:dc="http://purl.org/dc/elements/1.1/"
   xmlns:cc="http://creativecommons.org/ns#"
   xmlns:rdf="http://www.w3.org/1999/02/22-rdf-syntax-ns#"
   xmlns:svg="http://www.w3.org/2000/svg"
   xmlns="http://www.w3.org/2000/svg"
   xmlns:sodipodi="http://sodipodi.sourceforge.net/DTD/sodipodi-0.dtd"
   xmlns:inkscape="http://www.inkscape.org/namespaces/inkscape"
   width="1280"
   height="1280"
   viewBox="0 0 1024 1024"
   version="1.1"
   id="svg2"
   inkscape:version="0.48.1 "
   sodipodi:docname="backstab_disguised_spy.svg">
  <metadata
     id="metadata66">
    <rdf:RDF>
      <cc:Work
         rdf:about="">
        <dc:format>image/svg+xml</dc:format>
        <dc:type
           rdf:resource="http://purl.org/dc/dcmitype/StillImage" />
      </cc:Work>
    </rdf:RDF>
  </metadata>
  <defs
     id="defs64" />
  <sodipodi:namedview
     pagecolor="#ffffff"
     bordercolor="#666666"
     borderopacity="1"
     objecttolerance="10"
     gridtolerance="10"
     guidetolerance="10"
     inkscape:pageopacity="0"
     inkscape:pageshadow="2"
     inkscape:window-width="1920"
     inkscape:window-height="1018"
     id="namedview62"
     showgrid="false"
     inkscape:snap-page="true"
     inkscape:object-paths="false"
     inkscape:object-nodes="true"
     fit-margin-top="0"
     fit-margin-left="0"
     fit-margin-right="0"
     fit-margin-bottom="0"
     inkscape:zoom="0.6609375"
     inkscape:cx="466.00473"
     inkscape:cy="640"
     inkscape:window-x="-8"
     inkscape:window-y="-8"
     inkscape:window-maximized="1"
     inkscape:current-layer="layer1" />
  <g
     inkscape:groupmode="layer"
     id="layer1"
     inkscape:label="background">
    <rect
       style="fill:#3e3e3e;fill-opacity:1;fill-rule:nonzero;stroke:none"
       id="rect3063"
       width="1024"
       height="1024"
       x="0"
       y="0" />
  </g>
  <g
     inkscape:groupmode="layer"
     id="layer2"
     inkscape:label="foreground">
    <path
       d="m 864.1,72.85 c -3.89437,0.16406 -7.44,3.4 -10.8,5.35 l -0.2,0.5 c -4.6,12.7 -8.96,25.59 -15.1,37.65 -5.74,14.72 -9.12,30.26 -14.5,45.1 -6.96,21.58 -15.66,42.61 -21.7,64.45 -14.64,45.88 -27.94,92.18 -42.2,138.2 -5.1,17.5 -12.43,34.32 -16.95,52 6,1.94 11.91,4.2 17.65,6.8 5.26,-2.1 9.83,-5.66 11.25,-11.4 37.18,-94.98 73.89,-190.15 111.05,-285.15 3.4,-9.06 7.03,-17.99 10.45,-27.05 1.74,-4.44 3.47,-8.94 5.15,-13.4 -9.86,-4.44 -20.04,-8.06 -30.1,-12 -1.38,-0.795 -2.70187,-1.10469 -4,-1.05 z m 4.8,11.55 c 3.42773,-0.13047 6.8375,0.6625 9.4,3.2 10.54,7.4 1.68,26.26 -10.5,24.9 -8.32,-1.28 -14.79,-10.44 -12.35,-18.7 1.34,-3.56 4.15,-6.46 7.45,-8.3 1.9125,-0.5775 3.94336,-1.02172 6,-1.1 z M 752.95,404.8 c 2.6,0.16 5.25,0.33 7.85,0.55 -0.28,2.78 -0.62,5.54 -1,8.3 -3.46,0.3 -6.77,-0.28 -9.15,-3 l 2.3,-5.85 z"
       id="path6"
       style="fill:#f4722b"
       inkscape:connector-curvature="0" />
    <path
       d="m 837.8,83.92 c 5.12,-1.68 10.12,-3.72 15.32,-5.2 -4.6,12.7 -8.96,25.58 -15.1,37.64 -2.94,-4.46 -6.1,-8.98 -7.16,-14.32 1.64,-6.26 4.38,-12.18 6.94,-18.12 z"
       id="path8"
       inkscape:connector-curvature="0"
       style="fill:#f5e5c1" />
    <path
       d="m 859.18,101.12 c -3.42,-7.82 8.76,-17.92 14.48,-11.16 -5.82,2.38 -8.86,8.92 -14.48,11.16 z"
       id="path12"
       inkscape:connector-curvature="0"
       style="fill:#f5e5c1" />
    <path
       style="fill:#f4722b"
       d="m 902.25,87.85 c -1.56,4.48 -3.11,8.98 -4.85,13.4 -3.52,8.98 -7.28,17.89 -10.3,27.05 -37.84,95.44 -74.33,191.44 -111.85,287 -0.94,2.86 -2.55,5.68 -2.15,8.8 3.88,7.82 13.84,8.17 21,11.25 5.92,-14.66 13.3,-28.65 20.2,-42.85 14.6,-32.72 27.94,-65.98 44.2,-97.9 16.42,-37.7 35.38,-74.27 52.2,-111.75 10.86,-21.18 18.96,-43.64 28.8,-65.3 4,-6.02 -1.09,-11.86 -3.55,-17.3 -11.26,-4.08 -22.1,-9.4 -33.7,-12.4 z m 11.8,14.55 c 4.06,1.74 9.07,2.96 10.95,7.5 0.14,5.5 -1.83,11.76 -6.75,14.8 -4.98,1.28 -9.47,-1.1 -13.15,-4.2 -0.2,-3.84 -1.65,-7.96 0.15,-11.6 2.08,-3.12 5.8,-4.48 8.8,-6.5 z m -123,314.7 c 0,2.68 -0.03,5.35 -0.05,8.05 -2.8,0.04 -5.59,0.05 -8.35,0.05 0.14,-2.68 0.38,-5.34 0.6,-8 2.58,-0.08 5.2,-0.1 7.8,-0.1 z"
       id="path14"
       inkscape:connector-curvature="0" />
    <path
       d="m 861.76,106.08 c 6.56,-3.66 12.1,-9.32 19.36,-11.64 -1.02,5.94 -3.14,11.88 -8.68,15.02 -3.72,-0.58 -7.74,-0.72 -10.68,-3.38 z"
       id="path16"
       inkscape:connector-curvature="0"
       style="fill:#f5e5c1" />
    <path
       d="m 882.58,126.36 c 3.4,-9.06 7.06,-18.02 10.48,-27.08 1.08,0.48 3.24,1.48 4.32,1.96 -3.52,8.98 -7.26,17.88 -10.28,27.04 l -1.38,0.12 c -0.78,-0.5 -2.36,-1.52 -3.14,-2.04 z"
       id="path18"
       inkscape:connector-curvature="0"
       style="fill:#f5e5c1" />
    <path
       d="m 912.34,106.8 c 3.84,-0.3 7.84,1.58 9.32,5.32 1.44,1.7 0.62,6.9 -2.36,5.42 -2.68,-3.34 -4.84,-7.06 -6.96,-10.74 z"
       id="path22"
       inkscape:connector-curvature="0"
       style="fill:#f5e5c1" />
    <path
       d="m 907.26,112.12 c 4.88,0.76 6.2,6.4 8.84,9.86 -3.22,-0.46 -6.2,-1.74 -8.94,-3.46 0.02,-2.14 0.06,-4.26 0.1,-6.4 z"
       id="path24"
       inkscape:connector-curvature="0"
       style="fill:#f5e5c1" />
    <path
       d="m 339.98,208 c 7.12,-0.68 14.38,-2.82 21.5,-0.86 0.22,2.82 -2.8,4.2 -4.38,6.08 -9.5,8.34 -18.02,18.06 -29.26,24.16 -8.52,4.66 -16.04,10.84 -22.86,17.72 -9.54,7.8 -19.3,15.38 -29.82,21.84 -10.46,9.9 -23.02,17.04 -34.4,25.74 -7.04,5.6 -15.64,8.42 -23.66,12.24 -11.04,5.02 -21.04,12.3 -32.86,15.56 -13.54,3.88 -25.86,11.44 -39.88,13.76 -1.94,-9.64 4.72,-17.4 8.36,-25.66 7.86,-16.8 17.86,-32.42 26.9,-48.56 2.42,-4.84 7.2,-7.64 11.36,-10.78 11.9,-8.84 23.72,-17.78 35.56,-26.7 3.28,-2.62 7.4,-3.68 11.4,-4.64 17.48,-4.32 34.86,-9.08 52.34,-13.38 16.48,-2.76 33.14,-4.24 49.7,-6.52 z"
       id="path26"
       inkscape:connector-curvature="0"
       style="fill:#f4722b" />
    <path
       style="fill:#f5e5c1"
       d="m 385.7,205 c -7.78,5.62 -13.23,13.94 -20.15,20.6 -40.48,41.6 -85.5,79.63 -136.8,107.25 -39.24,20.76 -83.91,35.31 -128.75,29.25 -7.1,-0.72 -13.95,-3.7 -21.15,-3.3 -0.82,2.94 1.16,5.36 2.6,7.7 63.76,98.28 130.21,195.12 204.75,285.6 26.8,29.36 71.05,44.7 109.45,30.9 37.14,-13.04 63.96,-44.24 85,-76.2 6.2,-8.36 9.37,-18.44 11.05,-28.6 2.16,-11.4 -0.48,-22.9 -1.3,-34.3 C 482.96,496.1 473.34,448.65 461.5,401.75 444.16,334.07 422.24,267.1 389.9,205 l -4.2,0 z m -69.4,125.5 c -14.84,6.52 -27.56,19.12 -30.6,35.5 -5.54,27.98 5.6,55.55 18.1,80.05 -15.2,-20.46 -29.81,-43.8 -30.65,-70 -0.8,-23.76 20.89,-42.59 43.15,-45.55 z m 27.95,16.3 c 9.35878,-0.0779 18.8375,2.0375 27.75,4.65 19.78,6.16 38.14,16.06 56,26.4 4.2,2.52 9.73,4.1 11.45,9.2 -37.28,-0.72 -75.8,-1.22 -111.3,11.8 -9.5,3.1 -16.87,9.97 -24.35,16.25 -4.04,-11.34 -1.98,-23.73 0.3,-35.25 2.58,-12.94 10.88,-25.48 23.6,-30.2 5.38499,-1.98 10.93472,-2.80325 16.55,-2.85 z M 201,389 c 0.61781,-0.0211 1.23082,-0.009 1.85,0 10.89768,0.16264 21.8725,4.9425 31.25,10.25 -13.46,-3.32 -28.07,-6.18 -41.25,-0.1 -15,5.38 -24.41,18.6 -34.05,30.4 6.2,-14.58 13.4,-31.61 29.4,-37.55 4.18358,-1.92499 8.47538,-2.85218 12.8,-3 z m 8.95,22.05 c 0.67218,-7.8e-4 1.35875,0.0737 2.05,0.15 16.82,2 30.08,13.94 42.1,24.9 -2.68,3.4 -7.24,3.46 -11,4.8 -23.12,6.6 -41.38,25.43 -50.4,47.35 -2.1,4.4 -2.89,9.53 -6.25,13.25 -3.1,-7.42 -5.37,-15.35 -5.15,-23.45 0.14,-16.7 1,-33.9 7.2,-49.6 3.4875,-8.94374 11.36741,-17.38813 21.45,-17.4 z M 328,450 c 7.22,2.28 14.1,8.16 14.5,16.2 -1.08,8.78 -10.55,11.24 -16.35,16 -4.12,9.68 -8.65,20.9 -19.25,25 -9.24,3.92 -19.12,-0.74 -26.8,-5.9 -4.46,1.28 -9.54,3.24 -14,0.8 -6.34,-4.52 -9.53,-12.83 -7.95,-20.45 4.56,7.64 10.87,13.82 19.25,17.2 -0.72,-2.42 -1.49,-4.76 -2.35,-7.1 4.04,3.8 9.21,6.53 14.95,5.25 9.6,-2.26 19.18,-5.84 27.2,-11.7 4.34,-3.08 5.08,-8.59 6.3,-13.35 0.98,2.1 1.91,4.21 2.85,6.35 2.36,-5.34 5.16,-10.53 6.5,-16.25 1.18,-4.72 -2.99,-8.17 -4.85,-12.05 z m 42,13.4 c 38.82,11.32 68.54,41.67 90.3,74.55 6.3,10.3 13.72,20.18 17.4,31.8 -23.7,-35.34 -55.25,-64.76 -88.35,-91.2 -6.24,-5.34 -13.67,-9.19 -19.35,-15.15 z m -112.4,52.75 c 6.6,39.2 15.3,78.21 28.6,115.75 0.74,2.08 0.9,4.3 1.1,6.5 -22.84,-36.1 -32.34,-79.83 -29.7,-122.25 z m 108.7,26.9 c 1.23643,-0.003 2.47125,-0.0125 3.7,0.05 36.7,1.34 70.26,18.31 102.1,35.15 -2.7,0.4 -5.45,0.4 -8.15,0.4 -31.38,-1.06 -63.11,1.53 -93.45,9.95 -14.72,4.5 -29.94,9.77 -41.4,20.45 -7.66,7.04 -15.18,14.37 -21,23.05 -1.98,2.76 -3.31,6.23 -6.45,7.95 0.14,-25.24 0.99,-52.59 16.15,-73.95 10.81875,-15.6 29.95347,-23.00883 48.5,-23.05 z"
       id="path28"
       inkscape:connector-curvature="0" />
    <path
       d="m 415.9,224.15 c 14.82,45.46 30.2,90.7 45.2,136.1 10.62,29.54 16.33,60.53 24.25,90.85 4.94,21.66 11.68,42.95 14.5,65.05 1.6,10.72 3.3,21.4 5,32.1 2.82,15.24 -0.12,30.72 -2.6,45.8 -1.08,8.66 -7.33,15.12 -12.05,22 -2.73886,3.9724 -5.7243,7.74899 -8.8,11.45 l -74.05,62.05 c -6.9627,2.07818 -14.45326,2.76078 -21.45,4.6 -10.64,1.88 -21.05,5.45 -31.85,6.15 -10.98,-2.24 -21.4,-6.62 -32.2,-9.6 3.96,7.14 8.02,14.22 12.1,21.3 -48.62,35.4 -97.33,70.67 -145.95,106.05 0.56,32.66 1.54,65.29 1.9,97.95 -1.64,36.02 -3.94,72 -5.8,108 l 145.05,0 68.05,0 161.35,0 59.2,0 406.25,0 0,-418.35 c -18.18,-2.68 -36.6,-2.97 -54.9,-4.35 -75.8,-4.76 -151.6,-9.39 -227.4,-14.25 -14.46,-0.82 -28.89,-1.72 -43.35,-2.7 -8.14,-0.6 -16.03,1.86 -23.85,3.7 -12.46,2.92 -24.94,5.91 -37.4,8.85 -3.7,1 -7.52,0.57 -11.1,-0.65 -25.96,-8.24 -51.98,-16.17 -78,-24.25 -3.94,3.34 -7.83,6.7 -11.85,9.9 l -0.25,-0.05 c -0.32,-21.94 -1.31,-43.86 -1.75,-65.8 -0.28,-4.44 1.84,-8.39 3.7,-12.25 5.32,-10.74 10.37,-21.61 15.65,-32.35 3.28,-5.94 2.49,-12.9 2.55,-19.4 -0.22,-10.68 0.06,-21.37 0,-32.05 0.22,-8.84 -4.22,-16.73 -7,-24.85 -2.5,-6.28 -4.07,-12.97 -7.45,-18.85 -3.88,-4.76 -9.05,-8.3 -13.65,-12.3 -6.64,-0.02 -13.31,0 -19.95,0 -2.9,-6.92 -5.86,-13.88 -9.6,-20.4 -12.14,-21.2 -24.1,-42.43 -36.2,-63.65 -4.62,-7.94 -8.47,-16.55 -15.05,-23.15 -10.5,-10.8 -20.81,-21.79 -31.25,-32.65 z"
       id="path30"
       style="fill:#f4722b"
       inkscape:connector-curvature="0" />
    <path
       d="m 730.88,402.78 c 3.66,-0.48 7.3,-0.96 10.98,-1.44 -1.46,5.84 -3.4,11.56 -5.66,17.14 7.18,2.96 14.2,6.48 21.76,8.46 3.58,-0.04 6.84,-1.82 10.3,-2.6 2.24,1.56 2.32,4.48 3.22,6.82 8,5.26 17.22,8.3 26.44,10.64 1.94,-5.86 4.08,-11.66 6.14,-17.48 2.38,1.84 4.72,3.76 7,5.72 -1.78,4.88 -3.42,9.8 -4.94,14.78 -6.84,1.14 -13.7,2.2 -20.6,2.84 -13.22,46.88 -27.68,93.42 -43.8,139.4 -14.46,-0.82 -28.92,-1.74 -43.38,-2.72 -8.14,-0.6 -16,1.88 -23.82,3.72 4.66,-10.52 8.92,-21.2 13.24,-31.86 10.8,-27.66 23.88,-54.36 34.36,-82.14 6.46,-14.68 13.52,-29.1 19.22,-44.1 -4.74,-4.88 -9.72,-9.5 -14.98,-13.78 1.46,-4.48 2.98,-8.94 4.52,-13.4 z"
       id="path38"
       inkscape:connector-curvature="0"
       style="fill:#f5e5c1" />
    <path
       d="m 180.54,532.08 c 5.32,8.02 8.96,17.04 14.8,24.72 17,20.88 29.72,44.8 46.28,66 -3.32,-1.28 -6.92,-2.18 -9.62,-4.58 -16.74,-14.68 -32.88,-30.08 -47.32,-47.04 -4.02,-3.96 -3.32,-10.06 -4.3,-15.16 -0.5,-7.96 -4.18,-16.44 0.16,-23.94 z"
       id="path52"
       inkscape:connector-curvature="0"
       style="fill:#f4722b" />
    <path
       d="m 535.9,581.85 c 0.26,5.36 -0.76,11.31 2.4,16.05 7.2,12.08 14.56,24.03 21.7,36.15 -4.92,15.6 -7.33,32.19 -15.15,46.75 -18,36.8 -35.65,73.77 -53.65,110.55 -7.88,13.16 -17.88,24.89 -26.5,37.55 -6.28,9.48 -14.66,17.16 -22.7,25.1 -8.34,-2.52 -16.9,-4.51 -25.2,-7.25 -2.9,-0.64 -4.4,-3.33 -6,-5.55 -24.1,-37.54 -48.67,-74.81 -72.75,-112.35 2.26,25.76 3.69,51.63 6.45,77.35 4.56,25.8 8.92,51.63 14,77.35 12.78,46.84 25.56,93.71 38.7,140.45 l 16.95,0 24.15,0 81.1,0 27.7,0 11.45,0 c -1.16,-27.36 -0.24,-54.72 -0.6,-82.1 -0.44,-15.3 1.82,-30.5 3.2,-45.7 4.94,-51.48 10.57,-102.89 14.55,-154.45 3.74,-47.9 8.94,-95.66 10.3,-143.7 -16.6,-5.42 -33.29,-10.59 -49.85,-16.15 l -0.25,-0.05 z"
       id="path58"
       style="fill:#f5e5c1"
       inkscape:connector-curvature="0" />
    <path
       d="m 400,855.94 c 12.06,0.66 24.12,0.96 36.16,1.56 6.7,0.5 13.5,0.62 20.06,-1.16 9.42,7.64 20.76,14.04 25.62,25.8 19.86,30.48 41.98,59.44 62.12,89.74 -20.8,-27.14 -41.2,-54.6 -61.94,-81.78 -2.08,10 -3.98,20.02 -6.12,30.02 -0.84,4.6 -2.68,9.66 0.04,14 14.56,29.92 28.74,60.04 43.44,89.88 l -81.1,0 c -3.72,-27.92 -6.24,-56.06 -10.68,-83.84 -8.36,-15.14 -18.5,-29.32 -27.58,-44.06 -1.88,21.36 -4.38,42.7 -4.98,64.16 -2,-29.38 -0.58,-58.86 -1.1,-88.28 -0.76,-6.12 3.06,-11.14 6.06,-16.04 z"
       id="path60"
       inkscape:connector-curvature="0"
       style="fill:#3e3e3e" />
  </g>
</svg>
