<?xml version="1.0" encoding="UTF-8" standalone="no"?>
<svg
   xmlns:dc="http://purl.org/dc/elements/1.1/"
   xmlns:cc="http://creativecommons.org/ns#"
   xmlns:rdf="http://www.w3.org/1999/02/22-rdf-syntax-ns#"
   xmlns:svg="http://www.w3.org/2000/svg"
   xmlns="http://www.w3.org/2000/svg"
   xmlns:sodipodi="http://sodipodi.sourceforge.net/DTD/sodipodi-0.dtd"
   xmlns:inkscape="http://www.inkscape.org/namespaces/inkscape"
   width="1280"
   height="1280"
   viewBox="0 0 1024 1024"
   version="1.1"
   id="svg2"
   inkscape:version="0.48.1 "
   sodipodi:docname="backstab_snipers.svg">
  <metadata
     id="metadata92">
    <rdf:RDF>
      <cc:Work
         rdf:about="">
        <dc:format>image/svg+xml</dc:format>
        <dc:type
           rdf:resource="http://purl.org/dc/dcmitype/StillImage" />
      </cc:Work>
    </rdf:RDF>
  </metadata>
  <defs
     id="defs90" />
  <sodipodi:namedview
     pagecolor="#ffffff"
     bordercolor="#666666"
     borderopacity="1"
     objecttolerance="10"
     gridtolerance="10"
     guidetolerance="10"
     inkscape:pageopacity="0"
     inkscape:pageshadow="2"
     inkscape:window-width="1920"
     inkscape:window-height="1018"
     id="namedview88"
     showgrid="false"
     fit-margin-top="0"
     fit-margin-left="0"
     fit-margin-right="0"
     fit-margin-bottom="0"
     inkscape:zoom="0.6609375"
     inkscape:cx="466.00473"
     inkscape:cy="640"
     inkscape:window-x="-8"
     inkscape:window-y="-8"
     inkscape:window-maximized="1"
     inkscape:current-layer="layer1"
     inkscape:snap-page="true" />
  <g
     inkscape:groupmode="layer"
     id="layer1"
     inkscape:label="background">
    <rect
       style="fill:#3e3e3e;fill-opacity:1;fill-rule:nonzero;stroke:none"
       id="rect3042"
       width="1280"
       height="1280"
       x="0"
       y="0"
       transform="scale(0.8,0.8)" />
  </g>
  <g
     inkscape:groupmode="layer"
     id="layer2"
     inkscape:label="foreground">
    <path
       style="fill:#f4722b"
       d="m 456.3,64 c -3.98,3.9 -7.95,7.79 -11.85,11.75 l 0.05,1.1 c 0.22,18.3 0.91,36.69 -0.65,54.95 1.4,40.1 5.11,80.12 7.35,120.2 0.24,19.48 2.44,38.84 3.4,58.3 3.92,65.36 9.28,130.67 12.7,196.05 2.18,13.3 0.74,26.9 3.6,40.1 7.86,-0.26 15.8,0.64 23.6,-0.6 3.7,-2.06 5.88,-6.01 8.6,-9.15 0.88,-30.88 -0.14,-61.82 0.4,-92.7 -0.1,-106.96 0.02,-213.89 0.2,-320.85 0.02,-13.14 0,-26.26 0,-39.4 0,-6.58 -0.02,-13.17 0,-19.75 -15.8,-0.04 -31.6,0 -47.4,0 z m 17.85,10.85 c 10.56093,0.0831 20.49,10.28125 18.6,21.25 -1.38,13.34 -18.89,20.76 -29.45,12.5 -11.98,-8 -8.84,-28.54 5,-32.7 1.92813,-0.73437 3.89427,-1.0654 5.85,-1.05 z M 484.3,524.7 c 1.09843,-0.0153 2.25501,0.41 3.45,1.4 4.16,2.6 1.96,7.4 1.3,11.2 -3.08,-0.1 -6.19,-0.13 -9.25,-0.15 -0.78,-1.4 -2.32,-4.2 -3.1,-5.6 1.56,-2.98499 4.30469,-6.80406 7.6,-6.85 z"
       id="path6"
       inkscape:connector-curvature="0" />
    <path
       style="fill:#f4722b"
       d="m 510.25,64 c 0.02,6.58 0.05,13.14 0.05,19.7 -0.02,13.16 -0.02,26.31 0,39.45 -0.04,136.98 0,273.94 0,410.9 -0.78,5.12 3.2,9.34 7.6,11.2 8.26,0.88 16.55,0.2 24.85,0.1 0,-25.16 3.94,-50.11 4.4,-75.25 3.54,-45.28 5.56,-90.71 8.7,-136.05 1.6,-41.44 5.38,-82.77 7.6,-124.15 1.98,-12.54 0.75,-25.31 2.55,-37.85 1.6,-11.22 0.35,-22.65 2.05,-33.85 1.62,-11.48 0.39,-23.12 1.95,-34.6 1.14,-8.6 1.55,-17.24 2.05,-25.9 C 567.17,73.24 562.4,68.67 557.7,64.05 541.9,63.97 526.07,63.98 510.25,64 z m 27.55,13.1 c 7.39312,0.32531 14.63499,6.89 13.9,14.75 0.2,10.86 -13.91,17.98 -22.45,11.1 -8.44,-5.54 -7.6,-19.36 1.4,-23.9 2.21499,-1.455 4.68563,-2.05844 7.15,-1.95 z M 526.75,525 c 0.39555,-0.0292 0.8,-0.0363 1.25,0 6.86,-0.4 5.61,7.62 5.15,12.1 -3.42,0.1 -6.83,0.18 -10.25,0.3 -2.0625,-4.48125 -2.08334,-11.96171 3.85,-12.4 z"
       id="path8"
       inkscape:connector-curvature="0" />
    <path
       d="m 429.94,98.02 c -1.52,-9.96 8.78,-14.94 14.54,-21.16 0.22,18.3 0.94,36.66 -0.62,54.92 -4.54,-4.56 -9.58,-8.8 -13.14,-14.22 -1.42,-6.38 -0.62,-13.04 -0.78,-19.54 z"
       id="path12"
       inkscape:connector-curvature="0"
       style="fill:#f5e5c1" />
    <path
       d="m 462.28,86.28 c 2.76,-5.18 8.96,-6.22 14.08,-7.72 -3.54,8.5 -8.76,16.14 -13.76,23.82 -1.92,-5.12 -3.42,-11.12 -0.32,-16.1 z"
       id="path14"
       inkscape:connector-curvature="0"
       style="fill:#f5e5c1" />
    <path
       d="m 531.68,82.96 c 3.8,-0.16 7.6,-0.24 11.4,-0.28 2.4,3.72 4.24,7.76 5.1,12.12 -6.02,-3.18 -11.46,-7.3 -16.5,-11.84 z"
       id="path18"
       inkscape:connector-curvature="0"
       style="fill:#f5e5c1" />
    <path
       d="m 484.72,83.34 c 3.18,5.16 6.18,11.9 1.92,17.42 -2.94,6.5 -10.44,7.3 -16.7,6.64 4.9,-8.04 9.94,-15.98 14.78,-24.06 z"
       id="path20"
       inkscape:connector-curvature="0"
       style="fill:#f5e5c1" />
    <path
       d="m 503.7,83.74 c 1.66,0 4.96,0 6.6,-0.02 -0.02,13.16 0,26.3 0.02,39.44 -1.66,0 -4.98,0 -6.64,0 0.02,-13.14 0.02,-26.28 0.02,-39.42 z"
       id="path22"
       inkscape:connector-curvature="0"
       style="fill:#f5e5c1" />
    <path
       d="m 526.98,89.14 c 6.06,3.1 11.74,7.06 16.12,12.32 -3.36,-0.14 -6.78,0.08 -10.08,-0.66 -4.4,-2.2 -4.86,-7.48 -6.04,-11.66 z"
       id="path24"
       inkscape:connector-curvature="0"
       style="fill:#f5e5c1" />
    <path
       d="m 885.5,212.96 c 6.84,0.12 13.68,0.04 20.54,0.3 -12,13.66 -25.02,26.48 -38.6,38.58 -0.32,-7.36 -0.1,-14.76 1.18,-22.02 5.82,-5.42 11.42,-11.08 16.88,-16.86 z"
       id="path26"
       inkscape:connector-curvature="0"
       style="fill:#f5e5c1" />
    <path
       style="fill:#f4722b"
       d="m 915.55,212.75 c -3.0825,0.002 -6.17,0.08 -9.25,0.2 l -0.25,0.3 c -12,13.66 -25.02,26.5 -38.6,38.6 -31.06,32.92 -59.39,68.36 -90.45,101.3 -24.3,28.22 -49.07,56.05 -73.65,84.05 -27.98,32.68 -56.32,65.01 -85,97.05 -7.32,9.88 -16.84,17.98 -23.8,28.1 3.06,7.62 11.02,12.97 17.1,18.45 10.12,1.74 17.59,-6.51 24.15,-12.85 93.22,-93.46 186.73,-186.67 280.15,-279.95 9.42,-9.42 18.81,-18.9 28.25,-28.3 4.46,-4.5 8.91,-8.98 13.45,-13.4 -10.64,-11.44 -22.19,-21.96 -32.85,-33.4 -3.09,-0.07 -6.1675,-0.1525 -9.25,-0.15 z m -0.9,14.45 c 10.15602,-0.51214 20.05,8.33501 20.05,18.8 0.26,11.36 -11.6,21.68 -22.8,18.3 -9.1,-1.82 -15.53,-11.32 -14.55,-20.4 1.02,-7.16 6.33,-13.26 12.95,-15.9 1.43501,-0.4775 2.89914,-0.72683 4.35,-0.8 z m -305.6,329.15 c 2.7,0.26 5.45,0.41 8.15,0.95 4.16,3.1 2.94,12.16 -3.1,11.9 -3.5,0.58 -6.01,-2.02 -7.25,-5 0.66,-2.64 1.38,-5.25 2.2,-7.85 z"
       id="path28"
       inkscape:connector-curvature="0" />
    <path
       style="fill:#f4722b"
       d="m 96.6,219.6 c -5.107501,0.1625 -9.86,1.46 -13.2,5.8 -8.56,8.76 -17.14,17.49 -26,25.95 4.3,5.28 9,10.21 14,14.85 9.32,9.24 18.41,18.68 27.85,27.8 96.32,96.6 192.96,192.89 289.3,289.45 4.16,5.38 13.14,6.11 17.6,0.75 4.56,-4.6 9.63,-8.81 13.35,-14.15 -2.36,-5.14 -6.89,-8.79 -10.55,-12.95 C 396.87,543.8 385.6,529.73 373.4,516.55 363.1,505.41 354.04,493.24 343.3,482.5 323.7,458.96 302.41,436.85 282.85,413.25 246.57,374.51 212.9,333.36 177.1,294.2 156,269.1 133.47,245.3 111.85,220.7 c -4.67,-0.27 -10.1425,-1.2625 -15.25,-1.1 z m -0.6,17 c 4.68,2.64 11.42,4.18 13,10.1 1.14,5.54 1.02,12.48 -4.1,16.1 -8.58,7.34 -24.26,0.9 -23.7,-10.9 0.02,-8.4 7.7,-13.08 14.8,-15.3 z M 400.05,562 c 2.64,2.68 5.23,5.36 7.85,8.1 -2.62,2.64 -5.25,5.27 -7.95,7.85 -2.72,-2.64 -5.43,-5.3 -8.05,-8 2.74,-2.62 5.47,-5.27 8.15,-7.95 z"
       id="path30"
       inkscape:connector-curvature="0" />
    <path
       d="m 901.58,243.6 c 2.4,-10.94 19.36,-15.96 25.26,-5.46 -8.44,1.8 -16.6,4.92 -25.26,5.46 z"
       id="path34"
       inkscape:connector-curvature="0"
       style="fill:#f5e5c1" />
    <path
       d="m 91.6,242.64 c 4.94,-0.18 10.02,0.64 13.34,4.68 -6.32,1.74 -12.88,2.54 -19.44,2.26 2.02,-2.32 4.06,-4.62 6.1,-6.94 z"
       id="path38"
       inkscape:connector-curvature="0"
       style="fill:#f5e5c1" />
    <path
       d="m 904.86,251.7 c 8.82,-0.4 16.96,-4.12 25.66,-5.16 -1.16,5.22 -3.44,10.92 -8.96,12.84 -5.72,3.28 -11.56,-0.6 -16.82,-2.84 0.02,-1.6 0.08,-3.22 0.12,-4.84 z"
       id="path40"
       inkscape:connector-curvature="0"
       style="fill:#f5e5c1" />
    <path
       style="fill:#f4722b"
       d="m 962.25,250.8 c -4.72,4.78 -9.41,9.59 -14.15,14.35 -9.2,9.14 -18.42,18.24 -27.5,27.5 -98.14,97.98 -196.18,196.05 -294.2,294.15 0.58,3.98 -0.79,9.01 2.55,12.05 4.84,5.24 10.14,10.03 15.1,15.15 31.34,-27.26 62.78,-54.45 93.7,-82.15 10.72,-7.82 19.35,-18.02 29.85,-26.1 8.6,-6.74 15.77,-15.08 24.45,-21.7 10.24,-7.64 18.53,-17.49 28.65,-25.25 18.32,-17.14 37.4,-33.43 56.5,-49.65 28.44,-25.62 57.37,-50.66 85.95,-76.1 10.24,-11.2 23.25,-19.44 33.45,-30.6 0.78,-7.54 1.59,-16.76 -4.75,-22.3 -9.84,-9.8 -19.6,-19.71 -29.6,-29.35 z m 0.05,24.15 c 5.58115,0.15474 11.06,3.81 13.15,9.2 4.56,9.5 -5,21.85 -15.5,19.15 -12.54,-1.08 -15.8,-20.22 -5,-26.2 2.25626,-1.55626 4.8131,-2.22034 7.35,-2.15 z M 646.95,585.9 c 2.18,4.06 5.97,8.86 1.55,12.9 -3.2,0.56 -6.48,0.5 -9.7,0.6 0.14,-3.24 -0.77,-6.74 0.45,-9.8 2.46,-1.42 5.06,-2.64 7.7,-3.7 z"
       id="path42"
       inkscape:connector-curvature="0" />
    <path
       d="m 88.04,256.88 c 6.14,-1.08 12.3,-2.06 18.56,-2.24 -2.46,2.66 -4.36,6.86 -8.48,7.04 -2.86,0 -5.68,-0.44 -8.5,-0.78 -0.4,-1.02 -1.18,-3.02 -1.58,-4.02 z"
       id="path44"
       inkscape:connector-curvature="0"
       style="fill:#f5e5c1" />
    <path
       style="fill:#f4722b"
       d="m 52.55,256.6 c -11.22,10.82 -22.05,22.08 -33.25,32.9 -1.16,6.56 -4,14.56 1.8,19.9 12.72,11.96 25.38,24.09 36.9,37.25 33.12,31.38 68.89,59.89 102.05,91.25 38.1,32.58 75.08,66.38 113.4,98.7 21.4,19.26 43.49,37.78 64.65,57.3 10.66,7.82 19.38,17.99 30.2,25.55 6.78,-1.4 10.72,-8.9 15.8,-13.3 6.28,-5.38 1.97,-14.55 -2.55,-19.65 C 363.59,566.46 343.18,548.82 324.9,529.1 247.86,452.22 170.98,375.22 94.1,298.2 84.76,288.78 75.27,279.47 65.95,270.05 61.47,265.57 57.01,261.1 52.55,256.6 z M 52,279.55 c 10.42247,-0.14258 20.70625,9.63 19,20.55 -0.9,13.7 -19.27,22.37 -29.85,12.95 -11.04,-7.54 -8.87,-26.98 3.75,-31.7 2.27625,-1.2 4.694814,-1.7671 7.1,-1.8 z m 316.05,315.1 c 1.57461,-0.13515 3.27499,0.2625 4.75,0.6 3.12,2.28 2,6.58 2.7,9.9 -4.28,2.2 -8.86,2 -13.1,-0.2 0.82,-3.16 -0.36,-7.49 3,-9.35 0.79499,-0.5775 1.70523,-0.86891 2.65,-0.95 z"
       id="path46"
       inkscape:connector-curvature="0" />
    <path
       d="m 915.94,287.98 c 9.42,-9.42 18.8,-18.86 28.24,-28.26 1.3,1.8 2.6,3.6 3.9,5.42 -9.2,9.14 -18.42,18.26 -27.5,27.52 -1.56,-1.56 -3.1,-3.12 -4.64,-4.68 z"
       id="path48"
       inkscape:connector-curvature="0"
       style="fill:#f5e5c1" />
    <path
       d="m 71.4,266.2 c 9.32,9.24 18.42,18.68 27.86,27.8 -1.74,1.38 -3.46,2.78 -5.18,4.18 -9.34,-9.42 -18.8,-18.7 -28.12,-28.12 1.8,-1.3 3.62,-2.58 5.44,-3.86 z"
       id="path50"
       inkscape:connector-curvature="0"
       style="fill:#f5e5c1" />
    <path
       d="m 964.64,279.08 c 2.36,2.78 6.7,4.72 6.82,8.82 0.8,4.26 -2.04,7.76 -3.86,11.3 -2.32,-6.46 -3.52,-13.26 -2.96,-20.12 z"
       id="path56"
       inkscape:connector-curvature="0"
       style="fill:#f5e5c1" />
    <path
       d="m 952.3,289.94 c -0.3,-3.78 2.6,-6.64 4.38,-9.66 1.72,6.62 2.8,13.42 2.62,20.28 -2.98,-3 -7.54,-5.74 -7,-10.62 z"
       id="path58"
       inkscape:connector-curvature="0"
       style="fill:#f5e5c1" />
    <path
       d="m 52.64,284 c 10.28,-0.24 17.86,12.04 12.4,20.92 -0.94,3.38 -3.98,4.6 -7.18,4.96 -0.5,-8.86 -3.4,-17.26 -5.22,-25.88 z"
       id="path60"
       inkscape:connector-curvature="0"
       style="fill:#f5e5c1" />
    <path
       d="m 49.62,312.68 c -11,-2.88 -15.54,-19.26 -5.08,-25.62 0.26,1.7 0.78,5.14 1.04,6.84 2.34,6.02 3.82,12.32 4.04,18.78 z"
       id="path62"
       inkscape:connector-curvature="0"
       style="fill:#f5e5c1" />
    <path
       d="m 19.34,307.72 1.78,1.68 c 12.72,11.96 25.34,24.1 36.86,37.26 -6.7,0.08 -13.48,0.56 -20.12,-0.58 -7.08,-4.9 -12.48,-11.78 -18.76,-17.58 0.14,-6.94 0.08,-13.86 0.24,-20.78 z"
       id="path64"
       inkscape:connector-curvature="0"
       style="fill:#f5e5c1" />
    <path
       d="m 551.06,526.52 c 3.26,1.22 6.52,2.44 9.8,3.6 0.46,7.36 0.62,14.74 0.68,22.12 -7.7,4.16 -15.3,8.54 -22.98,12.74 1.08,21.06 4.32,41.96 4.72,63.06 2.2,15.22 1.16,30.7 3.22,45.94 2.22,34.66 4.94,69.28 7.22,103.92 2.46,26.44 1.62,53.02 1.36,79.52 -2.96,17.52 -2.86,36.14 -11.56,52.12 -3.94,10.48 -11.5,18.84 -18.38,27.44 -7.78,9.18 -15.52,18.46 -24.74,26.26 -10.88,-39.14 -21.46,-78.4 -33.16,-117.3 -0.24,-9.32 0.68,-18.6 1.26,-27.88 0.32,-16.66 0.42,-33.34 0.96,-49.98 2.06,-21.98 1.14,-44.08 2.06,-66.1 2.38,-27.98 1.3,-56.1 2.12,-84.14 2.08,-17.88 1.78,-35.92 1.88,-53.92 -7.98,-3.18 -15.96,-6.46 -23.98,-9.56 -0.74,-6.16 -1.72,-12.3 -2.6,-18.44 4.66,-2.44 9.3,-4.9 13.94,-7.4 0.06,8.04 0.02,16.1 0.12,24.14 10.78,0.2 21.58,0.16 32.36,0.26 3.5,-2.98 6.5,-6.78 10.72,-8.74 5.06,3.1 9.22,8.76 15.7,8.66 9.74,0.14 19.48,-0.18 29.22,-0.16 0.1,-8.72 0.06,-17.44 0.06,-26.16 z"
       id="path70"
       inkscape:connector-curvature="0"
       style="fill:#f5e5c1" />
    <path
       d="m 585.56,540.72 c 4.88,1.78 9.8,3.5 14.74,5.14 -5.16,5.14 -10.32,10.3 -15.58,15.32 0.04,0.8 0.12,2.38 0.18,3.16 6.54,6.42 12.62,13.3 19.4,19.5 4.32,4.16 10.66,2.4 16.06,2.94 0.48,5.78 -0.16,12.28 4.04,16.92 6.02,6.6 12.42,12.88 19.06,18.84 1.92,1.98 4.62,0.42 6.1,-1.24 5.18,-4.9 9.86,-10.28 14.88,-15.3 0.96,3.8 3.88,7.68 2.72,11.7 -3.6,5.12 -8.38,9.24 -12.48,13.96 -8.92,-1.04 -17.26,-4.56 -25.92,-6.58 -14.72,14.6 -26.48,31.92 -40.9,46.84 -9.7,12.18 -21.12,22.88 -30.7,35.18 -2.24,-31.88 -5.06,-63.7 -6.78,-95.58 12.1,-8.94 21.52,-20.8 33.34,-30.04 -1.44,-9.04 -6.04,-17.1 -9.44,-25.5 3.66,-5.16 7.52,-10.16 11.28,-15.26 z"
       id="path72"
       inkscape:connector-curvature="0"
       style="fill:#f5e5c1" />
    <path
       d="m 412.34,549.74 c 3.74,-1.04 7.38,-3.3 11.38,-2.94 5.36,3.98 9.82,9.02 14.92,13.32 -0.82,2.8 -1.6,5.62 -2.36,8.44 -1.58,5.58 -3.3,11.12 -5.42,16.52 11.16,11.08 23.62,20.74 35.7,30.8 0.14,13.42 -1.82,26.74 -1.84,40.16 -0.48,6.46 0.44,13.12 -1.14,19.46 -4.72,6.9 -11.56,12.06 -17.3,18.08 -10.92,-11.6 -22.56,-22.54 -32.74,-34.84 -8.06,-10.02 -18.16,-18.18 -25.98,-28.4 -8.92,1.9 -17,6.26 -25.42,9.58 -5.2,-3.64 -10.22,-7.5 -15.22,-11.36 1.68,-4.56 3.3,-9.16 4.86,-13.76 0.52,0.12 1.6,0.36 2.14,0.5 4.52,5.12 9.36,9.94 14.08,14.88 9.62,-6.28 16.92,-15.38 24.94,-23.46 -0.14,-4.28 -0.14,-8.56 -0.14,-12.82 5.78,-0.7 12.4,0.16 17.1,-4 7.5,-6.8 14.28,-14.36 21.32,-21.62 -6.46,-6.02 -12.6,-12.36 -18.88,-18.54 z"
       id="path74"
       inkscape:connector-curvature="0"
       style="fill:#f5e5c1" />
    <path
       d="m 398.92,754.96 c 20.84,-20.9 43.28,-40.12 64.12,-61 -1.48,39.32 -3.62,78.6 -4.96,117.92 -0.36,2.78 0.28,6.1 -1.68,8.44 -11.52,12.7 -24.06,24.58 -38.26,34.26 -8.88,6.7 -17.64,14 -28.56,17.1 -2.5,0.98 -5.02,1.98 -7.5,3.04 -20.46,4.08 -41.48,5.52 -62.28,4.7 19.28,-34.1 38.3,-68.32 57.46,-102.48 4.96,-9.3 14.6,-14.5 21.66,-21.98 z"
       id="path84"
       inkscape:connector-curvature="0"
       style="fill:#f5e5c1" />
    <path
       d="m 558.76,730.16 c -1.68,-9.56 7.92,-15.3 12.88,-22.1 17.92,15.48 36.46,30.34 52.8,47.54 11.74,11.56 24.04,22.78 33.46,36.44 6.6,9.84 15.46,18.48 19.2,30 9.74,22.8 6.96,48.04 9.8,72.08 -8.1,-3.14 -15.54,-7.66 -23.04,-11.96 -27.4,-15.38 -54.9,-30.64 -82.24,-46.14 -8.56,-5.84 -17.44,-14.76 -16.76,-25.96 -2.04,-26.62 -4,-53.26 -6.1,-79.9 z"
       id="path86"
       inkscape:connector-curvature="0"
       style="fill:#f5e5c1" />
  </g>
</svg>
