<?xml version="1.0" encoding="UTF-8" standalone="no"?>
<svg
   xmlns:dc="http://purl.org/dc/elements/1.1/"
   xmlns:cc="http://creativecommons.org/ns#"
   xmlns:rdf="http://www.w3.org/1999/02/22-rdf-syntax-ns#"
   xmlns:svg="http://www.w3.org/2000/svg"
   xmlns="http://www.w3.org/2000/svg"
   xmlns:sodipodi="http://sodipodi.sourceforge.net/DTD/sodipodi-0.dtd"
   xmlns:inkscape="http://www.inkscape.org/namespaces/inkscape"
   width="1280"
   height="1280"
   viewBox="0 0 1024 1024"
   version="1.1"
   id="svg2"
   inkscape:version="0.48.1 "
   sodipodi:docname="backstab_capping_enemies.svg">
  <metadata
     id="metadata68">
    <rdf:RDF>
      <cc:Work
         rdf:about="">
        <dc:format>image/svg+xml</dc:format>
        <dc:type
           rdf:resource="http://purl.org/dc/dcmitype/StillImage" />
      </cc:Work>
    </rdf:RDF>
  </metadata>
  <defs
     id="defs66" />
  <sodipodi:namedview
     pagecolor="#ffffff"
     bordercolor="#666666"
     borderopacity="1"
     objecttolerance="10"
     gridtolerance="10"
     guidetolerance="10"
     inkscape:pageopacity="0"
     inkscape:pageshadow="2"
     inkscape:window-width="1920"
     inkscape:window-height="1018"
     id="namedview64"
     showgrid="false"
     fit-margin-top="0"
     fit-margin-left="0"
     fit-margin-right="0"
     fit-margin-bottom="0"
     inkscape:zoom="0.6609375"
     inkscape:cx="640"
     inkscape:cy="640"
     inkscape:window-x="-8"
     inkscape:window-y="-8"
     inkscape:window-maximized="1"
     inkscape:current-layer="layer2"
     inkscape:snap-page="true" />
  <g
     inkscape:groupmode="layer"
     id="layer1"
     inkscape:label="background">
    <rect
       style="fill:#3e3e3e;fill-opacity:1;fill-rule:nonzero;stroke:none"
       id="rect3032"
       width="1280"
       height="1280"
       x="0"
       y="0"
       transform="scale(0.8,0.8)" />
  </g>
  <g
     inkscape:groupmode="layer"
     id="layer2"
     inkscape:label="foreground">
    <path
       d="M 0,0 0.06,0 C 0.04,0.06 0.02,0.16 0,0.22 L 0,0 z"
       id="path4"
       inkscape:connector-curvature="0"
       style="fill:#f5e5c1" />
    <path
       d="m 382.48,18.5 c 7.3,-4.1 15.74,-5.02 23.62,-7.52 -7.8,3.34 -16.16,5.32 -23.66,9.4 -7.8,3.78 -13.64,10.38 -19.12,16.9 -3.18,7.08 -1.6,14.28 -0.02,21.52 5.2,7.64 10.82,16.02 19.86,19.36 2.72,0.64 4.32,2.8 4.3,5.58 -2.78,-4.06 -7.58,-5.52 -11.52,-8.06 -3.94,-3.16 -7.2,-7.04 -10.74,-10.62 l -0.28,-1.92 c -1.22,-1.46 -2.42,-2.94 -3.6,-4.4 -1.12,-7.2 -2.24,-14.4 -0.12,-21.54 5.5,-7.8 12.44,-14.8 21.28,-18.7 z"
       id="path8"
       inkscape:connector-curvature="0"
       style="fill:#f5e5c1" />
    <path
       d="m 389.18,31.36 c 8.8,-5.88 19.4,-6.96 29.1,-10.54 2.38,-0.46 4.78,-0.52 7.2,-0.16 -1.6,4.66 -7.12,2.06 -10.56,1.82 l 0,2.3 c -12.62,3.16 -24.16,9.76 -34.54,17.48 -3.26,2.36 -5.72,5.78 -6.82,9.64 -0.88,8.24 6,14.12 11.4,19.2 7.16,5.88 15.32,10.68 23.88,14.24 19.14,4.84 39.44,3.6 58.24,-2.18 22.62,-5.64 44.16,-14.72 66.5,-21.24 4.12,-1.38 8.5,-1.44 12.82,-1.34 -6.94,4.34 -15.6,4.96 -22.82,8.96 -29.94,9.64 -59.8,21.46 -91.5,23.52 -17.52,0.92 -36.14,-4.26 -48.88,-16.7 -6.36,-5.82 -14.32,-12.76 -13.02,-22.34 -1.9,-11.98 10.78,-17.34 19,-22.66 z"
       id="path10"
       inkscape:connector-curvature="0"
       style="fill:#f5e5c1" />
    <path
       style="fill:#f3722c"
       d="m 602.85,19.7 c -6.41157,0.2025 -12.75501,2.815 -18.95,4.3 -7.46,1.4 -12.56,7.36 -18,12.1 -6.8,10.68 -12.9,23.06 -11.3,36.1 1.2,11.98 7.64,24.25 1.9,35.95 1.84,11.48 13.38,18.29 19.5,27.55 5.46,10.04 13,18.82 18.2,29 -1.08,-0.76 -3.25,-2.32 -4.35,-3.1 -3.04,3.7 -6.93,6.86 -8.95,11.3 -3.44,0.02 -6.8,0.81 -9.8,2.45 -13.58,6.84 -27.52,13.13 -40.3,21.45 -3.94,2.36 -5.48,6.92 -5.8,11.3 -1.94,14.28 -12.2,25.25 -16.8,38.55 -1.32,2.94 0.2,5.94 0.9,8.8 11.16,-0.98 22.54,0.0699 33.5,-2.65 7.96,-1.6 8.8,-11.26 14.7,-15.6 0.18,-11.7 10.28,-19.55 13.4,-30.15 8.36,-7.38 9.72,-19.25 16.2,-27.95 1.14,-2.46 4.1,-2.13 6.3,-2.65 1.16,6.68 2.1,13.46 0.7,20.2 -2.4,1.3 -4.62,3.09 -5.3,5.85 -4.88,12.24 -17.8,19.2 -22,31.9 -1.14,5.24 -9.16,5.74 -8.6,11.7 -0.7,4.1 1.51,8.08 5.75,8.9 6.8,0.68 13.25,-2.32 19.75,-3.9 -0.22,-1.36 -0.63,-4.09 -0.85,-5.45 4.1,-2.58 8.38,-4.84 13,-6.3 2.34,-1.06 5.75,-1.29 6.45,-4.25 -4.72,-0.54 -9.49,-0.86 -14.15,-1.9 -2.66,-5.46 4.77,-6.02 8.35,-6.4 5.08,-8.58 12.29,-15.59 19.95,-21.85 -4.28,4.48 -8.12,9.39 -10.3,15.25 -0.92,3.66 -5.09,4.35 -7.95,5.85 l 1,3.1 c 9.98,2.2 19.76,-1.68 29.6,-2.3 4.74,-14.12 18.8,-21.07 30.6,-28.45 l 0.2,-3.1 c 0.82,0.62 5.4,1.11 3.3,2.55 -6.26,2.98 -10.75,8.39 -16.15,12.55 -4.66,3.64 -9.23,7.43 -12.95,12.05 15.66,-5.56 32.03,-9.16 47.05,-16.4 l 2.85,3.25 c -3.14,0.46 -6.4,0.8 -9.2,2.4 l -1.55,-1.9 c -8.06,5.42 -17.58,7.81 -26.2,12.05 -17.38,7.84 -32.43,20.49 -50.95,25.75 -1.82,0.98 -6.68,1.52 -4.9,4.6 3.48,1.44 7.34,0.79 11,1.05 l -1.15,2.05 c -11.14,2.8 -22.88,0.78 -34,3.8 5.8,1.46 11.75,2.9 16.95,6 -8.02,0.22 -16.33,0.73 -23.95,-2.35 -8.06,-3.26 -16.81,-4.19 -25.45,-4.05 4.1,6.4 9.53,12.21 16.85,14.85 3.52,2.08 8.97,2.65 10.05,7.35 -7.88,-2.34 -15.1,-6.34 -22.7,-9.4 -14.84,-5.58 -27.35,-15.8 -42.15,-21.5 -14.74,-8.14 -28.95,-17.27 -44.65,-23.55 -0.8,-1.78 -1.57,-3.57 -2.35,-5.35 -9.98,-5.78 -20.89,-10.16 -29.55,-18 -2.2,1.42 -4.48,2.82 -6.5,4.5 -6.04,-1.2 -10.92,-4.82 -15.5,-8.7 -1.38,-0.86 -2.74,-1.69 -4.1,-2.55 -1,-7.62 -1.48,-15.55 -4.9,-22.55 -6.36,-12.86 -10.49,-26.62 -16.35,-39.7 -4.9,-0.44 -8.98,-4.78 -14,-3.8 -13.72,6.28 -19.78,20.65 -28,32.25 -11.32,4.28 -25.39,10.56 -27.35,24.1 7,6.16 19.12,-7.98 24.5,1.9 7,10.06 15.56,19.33 19.4,31.25 -0.36,3.84 -1.15,7.74 -0.45,11.6 3.86,3.88 8.66,6.68 12.6,10.5 l 0.95,-1.1 c 6.92,4.92 16.79,6.34 20.95,14.4 -0.06,3.12 -0.1,6.23 -0.1,9.35 26.72,14.12 55.2,24.54 81.8,38.9 22.42,13.5 44.73,27.22 66.45,41.8 4.6,4.3 10.18,8.51 16.9,6.25 26.22,-8.32 52.69,-15.84 78.95,-24.2 5.64,-1.84 10.38,-5.52 15,-9.1 -8.4,0.08 -17.11,1.42 -25.25,-1.4 -2.66,-0.44 -2.44,-3.5 -1.9,-5.4 5.08,-0.7 10.1,-1.84 15,-3.4 15.52,-4.82 31.38,-8.57 47.1,-12.75 9.08,-2.28 17.58,-6.37 26.8,-8.15 5.42,-1.02 10.44,-4.42 12.1,-9.9 16.78,-31.36 25.76,-66.33 31.5,-101.25 1.88,-6.64 -5.58,-10.03 -10.3,-12.65 -25.78,-10.98 -51.67,-23.37 -79.95,-25.95 -0.36683,-4.26224 -0.85339,-8.51828 -1.35,-12.75 0.62862,-10.99596 2.70344,-30.18739 1.45,-41.15 -2.1,-0.46 -4.12,-1.14 -6,-2.1 -3.24,-9.24 -0.58,-19.84 -5.8,-28.5 -4.98,-8.86 -8.7,-18.84 -16.6,-25.6 -4.58,-4.62 -11.37,-5.29 -17.35,-6.85 -2.16,-0.605 -4.31282,-0.7675 -6.45,-0.7 z m 23.05,37.6 c 12.38918,-0.006 21.92,18.005 13.8,28.4 -4.24,2.92 -9.75,2.9 -14.65,3.9 -4.2,-7.88 -12.93,-12.42 -21.65,-12.9 -2.88,6.42 -4.15,13.43 -6.95,19.85 -4.22,4.08 -10.63,5.16 -16.25,6.1 -7.56,1.3 -14.05,-5.4 -14.85,-12.5 -0.72,-6.28 -0.56,-13.59 3.9,-18.55 16.86,-5.1 34.26,-8.28 51.2,-13.1 1.8425,-0.81 3.68011,-1.19914 5.45,-1.2 z m 16.9,41.55 c 0.0243,1.7705 0.0144,3.9705 0,6.4 -0.008,2.31721 -0.0128,4.63279 -0.0499,6.95 -0.0461,2.82554 -0.0802,5.67446 -0.14992,8.5 -0.0387,1.93395 -0.11328,4.13553 -0.14992,5.7 0.0512,-0.0158 0.0989,-0.034 0.14992,-0.05 -0.0598,0.35946 -0.0989,0.72779 -0.14992,1.1 -0.044,0.32026 -0.0613,0.62128 -0.1,0.95 -0.0112,0.0986 -0.0387,0.20067 -0.0499,0.3 -0.0835,0.74259 -0.18443,1.52347 -0.25,2.3 -0.0773,0.91448 -0.13136,1.85372 -0.2,2.8 -0.0341,0.47126 -0.0648,0.92391 -0.1,1.4 -0.0789,1.06593 -0.14832,2.12642 -0.25,3.2 -0.0477,0.50361 -0.0934,0.99842 -0.14992,1.5 -0.0302,0.26738 -0.0667,0.53371 -0.1,0.8 -0.005,0.0327 0.005,0.0673 0,0.1 -0.0912,0.72119 -0.23072,1.44205 -0.35,2.15 -0.0538,0.31865 -0.0894,0.63507 -0.14992,0.95 -0.0413,0.21563 -0.10512,0.43637 -0.14992,0.65 -0.0856,0.40723 -0.20058,0.80117 -0.3,1.2 -0.12688,0.50972 -0.24779,1.00669 -0.4,1.5 -0.16658,0.53991 -0.34914,1.08352 -0.55,1.6 -0.0517,0.13253 -0.0958,0.26918 -0.14992,0.4 -0.22195,0.53701 -0.43398,1.0447 -0.7,1.55 -0.0613,0.11693 -0.13616,0.23491 -0.2,0.35 -0.28232,0.50703 -0.61557,1.03191 -0.95,1.5 -0.049,0.0682 -0.0998,0.13266 -0.14992,0.2 -0.36942,0.49801 -0.76283,0.95404 -1.2,1.4 -0.0496,0.0505 -0.0995,0.10024 -0.14992,0.15 -0.20267,0.20011 -0.38216,0.41175 -0.6,0.6 -0.1072,0.0925 -0.23909,0.16042 -0.35,0.25 -0.17259,0.1396 -0.36802,0.26782 -0.55,0.4 -0.0376,0.0273 -0.0619,0.073 -0.1,0.1 -0.26251,0.18642 -0.51758,0.37944 -0.8,0.55 -0.032,0.0193 -0.0677,0.0309 -0.1,0.05 -0.29378,0.17411 -0.58408,0.34368 -0.9,0.5 -0.0331,0.0164 -0.0667,0.0337 -0.1,0.05 -0.67253,0.32629 -1.42203,0.60934 -2.2,0.85 -1.72,0.4 -3.61187,0.8375 -5.55,1.2 -1.4536,0.27188 -2.93261,0.50549 -4.4,0.6 -1.46646,0.0973 -2.91302,0.0642 -4.3,-0.15 -0.81838,-0.12637 -1.58506,-0.32791 -2.35,-0.6 -0.0971,-0.0343 -0.20384,-0.0631 -0.3,-0.1 -0.0144,-0.006 -0.0357,0.006 -0.0499,0 -0.1863,-0.0724 -0.36782,-0.16751 -0.55,-0.25 -0.23891,-0.10934 -0.4688,-0.22232 -0.7,-0.35 -0.78757,-0.43494 -1.56858,-0.97833 -2.25,-1.65 -0.34922,-0.34421 -0.68374,-0.73625 -1,-1.15 -2.30902,-2.83107 -4.28333,-5.8423 -6.2,-8.95 -1.90501,-3.095 -3.72,-6.25 -5.6,-9.35 -0.58267,-0.95 -1.12125,-1.9058 -1.65,-2.9 -0.5223,-0.97961 -1.00078,-1.95156 -1.5,-2.95 -1.4912,-2.98799 -2.98811,-6.00671 -4.8,-8.75 -0.008,-0.0114 0.008,-0.0387 0,-0.05 -0.29629,-0.44742 -0.63285,-0.86892 -0.95,-1.3 -0.008,-0.0107 0.008,-0.0394 0,-0.05 -0.31792,-0.4309 -0.65766,-0.83827 -1,-1.25 -0.008,-0.009 0.008,-0.0405 0,-0.05 -0.70298,-0.84281 -1.47206,-1.60555 -2.3,-2.35 -0.82794,-0.74336 -1.7175,-1.4275 -2.7,-2.05 1.20501,-0.12501 2.4352,-0.20312 3.65,-0.25 3.64442,-0.14062 7.29187,-0.0275 10.95,-0.05 4.8775,-0.03 9.73,-0.36 14.4,-2 2.3325,-0.765 4.76968,-1.40715 7.15,-2.15 1.58688,-0.49523 3.14187,-1.04352 4.65,-1.7 2.26043,-0.98824 4.39,-2.2175 6.25,-3.95 1.87378,-1.80437 4.04038,-3.17288 6.35,-4.2 0.0195,-0.009 0.0304,-0.0414 0.0499,-0.05 1.15178,-0.50861 2.32949,-0.90124 3.55,-1.25 0.61688,-0.17516 1.27,-0.36137 1.9,-0.5 0.63082,-0.13891 1.26,-0.245 1.9,-0.35 z m 51.6,71.85 c 1.06046,0.0238 2.1275,0.0938 3.2,0.2 8.28,-0.04 15.86,4.23 21.4,10.15 -12.94,-7.52 -29.07,-8.97 -43.15,-3.95 -10.82,4.84 -21.53,10.23 -30.75,17.75 -10.8,8.42 -23.66,15.95 -29,29.25 -0.34,0.42 -1.06,1.28 -1.4,1.7 0.4,-3.6 0.31,-7.59 2.55,-10.65 9.18,-11.52 21.86,-19.41 33.5,-28.15 13.2,-8.1 27.74298,-16.65837 43.65,-16.3 z"
       id="path12"
       inkscape:connector-curvature="0"
       sodipodi:nodetypes="sccccccccccccccccccccccccccccccccccccccccccccccccccccccccccccccccccccccccccccccccccccccccccccccssccccccccsccscccccccccccccccccccccccccccccccccccscscccccscccccccccccccsscscccccccsccccccccs" />
    <path
       d="m 643.96,45.08 c 12.72,-6.56 28.24,-3.3 42.16,-4.18 22.4,-2.6 45.18,4.6 63.3,17.7 3.9,6.22 6.38,15.34 0.5,21.22 -15.52,18.28 -39.8,24.9 -61.58,32.56 -12,2.12 -23.78,5.36 -34.94,10.38 -3.56,1.3 -7.16,2.44 -10.78,3.58 -6.88,2.16 -14.06,3.08 -21.18,4.14 5.9,-5.24 14.2,-6.36 21.16,-9.8 3.98,-1.36 8.08,-2.48 11.98,-4.1 17.34,-8 37.22,-9.9 53.46,-20.54 7.82,-4.62 14.42,-11.08 19.74,-18.4 6.44,-8.46 1.64,-21.8 -7.36,-26.3 -24.74,-7.7 -50.92,-6.22 -76.46,-6.26 z"
       id="path14"
       inkscape:connector-curvature="0"
       style="fill:#f5e5c1" />
    <path
       d="m 378.14,125.78 c 6.72,0.44 11.36,5.82 17.3,8.28 3.6,1.98 9.14,3.06 8.84,8.28 -2.32,-0.72 -4.64,-1.48 -6.94,-2.24 0.16,3.08 0.68,6.2 0.26,9.28 -2.6,3.64 -5.8,6.78 -8.74,10.12 -4.2,-5.38 -5.04,-12.36 -7.68,-18.5 -2.08,-4.8 -3.18,-9.96 -3.04,-15.22 z"
       id="path20"
       inkscape:connector-curvature="0"
       style="fill:#f3722c" />
    <path
       d="m 624.52,170.28 c 12.12,-6.1 25.56,-11 33.74,-22.52 -10.08,16.4 -25.74,27.92 -38.44,42.06 -9.78,9.38 -18.16,20.28 -29,28.46 1.14,-7.2 2.5,-14.36 3.08,-21.62 1.4,-6.74 0.44,-13.54 -0.72,-20.22 -2.2,0.52 -5.16,0.18 -6.3,2.64 -6.48,8.7 -7.82,20.58 -16.18,27.96 0.54,-12.08 6.82,-22.76 10.18,-34.14 2.02,-4.44 5.92,-7.6 8.96,-11.3 1.1,0.78 3.26,2.34 4.34,3.1 1.54,2.46 3.04,4.92 4.56,7.38 8.58,1.04 17.64,1.78 25.78,-1.8 z"
       id="path24"
       style="fill:#f5e5c1;stroke:none"
       inkscape:connector-curvature="0" />
    <path
       d="m 307.9,192.58 c 4.94,-1 9.98,-2.52 15.1,-1.94 4.56,2.16 7.24,6.64 9.72,10.82 4.14,7.18 8.16,14.46 11.22,22.16 -8.4,2.08 -12.3,-7.16 -17.86,-11.54 -5.7,-6.78 -16.12,-10.28 -18.18,-19.5 z"
       id="path30"
       inkscape:connector-curvature="0"
       style="fill:#f3722c" />
    <path
       d="m 387.16,205.18 c 2.82,-3 6.1,-6.02 10.44,-6.26 4.58,3.88 9.46,7.5 15.5,8.7 -12.62,14.48 -20.82,32.18 -32.24,47.58 -4.16,-8.06 -14.06,-9.48 -20.98,-14.4 9.42,-11.62 17.16,-24.56 27.28,-35.62 z"
       id="path32"
       inkscape:connector-curvature="0"
       style="fill:#f5e5c1" />
    <path
       d="m 262.12,246.14 c 13.3,-15.94 29.58,-29 43.5,-44.36 3.8,3.98 7.84,7.74 12.16,11.18 -5.34,6.86 -10.9,13.66 -18.14,18.62 -21.92,20.14 -46.62,38.12 -63.24,63.3 -2.72,3.32 -5.22,6.8 -7.22,10.6 -0.62,11.2 -6.74,21.54 -6.42,32.98 -6.52,5.86 -13.88,10.72 -19.94,17.08 0.1,-14.1 1.76,-28.16 4.6,-41.98 0.66,-4.04 3.54,-7.1 6,-10.18 16.14,-19.18 31.56,-38.94 48.7,-57.24 z"
       id="path34"
       inkscape:connector-curvature="0"
       style="fill:#f5e5c1" />
    <path
       d="m 304.62,228.8 c 5.64,-4.4 8.86,-11 14.02,-15.9 5.02,4.86 9.98,9.82 15.2,14.5 -1.14,-0.1 -3.44,-0.32 -4.58,-0.42 -10.34,9.9 -18.96,21.46 -28.12,32.44 -11.56,14.4 -24.14,28.06 -34.3,43.52 -5.16,7.84 -10.78,16.06 -19.42,20.36 -8.18,4.12 -15.62,9.44 -23.14,14.58 0.32,-11.28 4.2,-21.94 6.86,-32.8 l 1.7,-0.16 c 0.06,-4.82 4.3,-7.84 6.74,-11.56 10.86,-16.06 25.86,-28.66 39.52,-42.24 9.4,-6.44 16.3,-15.68 25.52,-22.32 z"
       id="path36"
       inkscape:connector-curvature="0"
       style="fill:#f5e5c1" />
    <path
       d="m 663.46,313.3 c 12.94,-6.02 25.16,-13.44 38.16,-19.32 -24.22,25.04 -51.3,47.24 -74,73.78 -11.92,12.08 -22.54,25.96 -28.06,42.2 5.98,7.6 2.46,17.12 2.16,25.84 -0.54,7.02 0.28,14.14 -0.8,21.12 -26.66,20.2 -46.04,48.12 -64.02,75.92 -4.86,8.9 -10.2,17.58 -14.3,26.88 1.84,-18.56 0.1,-37.2 0.9,-55.78 -1.48,-20.7 -1.84,-41.52 -1.78,-62.2 -7.36,0.14 -14.68,-0.48 -21.96,-1.4 -10.26,-1.38 -20.6,-0.1 -30.9,-0.7 -4.84,-23.84 -10.18,-47.66 -14.28,-71.6 6.08,-17.78 12.94,-35.46 16.94,-53.86 22.6,11.66 43.44,26.22 64.62,40.14 0.44,1.08 1.34,3.22 1.78,4.28 9.04,-2.04 17.84,-4.96 26.54,-8.14 31,-8.86 62.1,-17.88 92.04,-29.92 2.04,-2.66 3.62,-6 6.96,-7.24 z"
       id="path38"
       inkscape:connector-curvature="0"
       style="fill:#f3722c" />
    <path
       d="m 619.18,315.16 c 18.66,-6.52 37.94,-11.86 57.46,-15.08 -9.16,5.34 -18.76,10.04 -28.7,13.72 -9.42,2 -19.2,1.7 -28.76,1.36 z"
       id="path40"
       inkscape:connector-curvature="0"
       style="fill:#f3722c" />
    <path
       d="m 702.85,448.2 c -5.9593,-0.0115 -11.92125,0.26626 -17.85,0.9 -31.86,3.36 -62.42,16.44 -87.4,36.4 -29.9,23.46 -52.02,56.27 -63.7,92.35 -14.54,43.92 -13.96,92.77 1.9,136.25 16.96,47.5 53.23,88.34 99.65,108.6 31.34,13.92 66.94,17.36 100.5,10.8 59.8,-11.98 109.73,-58.09 131.35,-114.45 18.18,-45.92 18.96,-98.41 2.5,-144.95 -15.62,-45.88 -48.99,-85.9 -92.35,-107.9 -22.9775,-11.8625 -48.7764,-17.95018 -74.6,-18 z m 0.65,117.55 c 16.68,0.25968 33.28501,6.12 46.5,16.35 20.84,15.66 33.36,40.64 36.8,66.2 2.96,22.56 0.98,46.52 -9.8,66.9 -12.24,24.9 -35.75,44.61 -63.25,49.95 -19.78,3.64 -40.2,-3.02 -56.2,-14.6 -22.46,-16.34 -36.54,-43.03 -38.9,-70.55 -2.82,-27.8 2.73,-57.22 19.35,-80.1 11.64,-16.32 29.24,-28.36 48.9,-32.5 5.46499,-1.20501 11.04,-1.73656 16.6,-1.65 z"
       id="path42"
       style="fill:#f4722b"
       inkscape:connector-curvature="0" />
    <path
       d="m 228.46,450.06 c 93.84,-0.14 187.68,-0.04 281.54,-0.04 0.02,37.48 0,74.96 0,112.46 -64,0.06 -128,0 -191.98,0.02 -0.04,20 -0.02,40 0,60 31.88,-0.28 64.48,1.6 94.72,12.52 17.74,6.3 34.72,17.46 44.1,34.2 13.16,25.22 15.34,56.04 5.42,82.76 -9.48,26.08 -29.66,47.24 -53.52,60.88 -30.36,17.3 -65.4,24.72 -100,26.8 -3.96,-21.82 -7.86,-43.68 -11.66,-65.54 19.44,-1.28 39.06,-4.44 57.04,-12.24 10.84,-4.76 21.6,-11.84 26.72,-22.94 5.02,-10.54 4.18,-24.66 -5.02,-32.68 -12.46,-10.56 -29.66,-12.24 -45.3,-13.4 -33.88,-1.46 -67.72,1.28 -101.56,2.5 -0.82,-7.08 -0.4,-14.2 -0.46,-21.28 -0.04,-74.68 0.06,-149.34 -0.04,-224.02 z"
       id="path44"
       inkscape:connector-curvature="0"
       style="fill:#f3722c" />
    <path
       d="m 475.48,767.18 c 20.84,-0.78 41.7,-0.4 62.56,-0.38 2.66,0.18 5.58,-0.34 8.1,0.88 1.9,2.46 3.36,5.24 4.96,7.94 -27.7,0.16 -55.42,0.18 -83.1,-0.02 2.48,-2.82 4.96,-5.62 7.48,-8.42 z"
       id="path48"
       inkscape:connector-curvature="0"
       style="fill:#f5e5c1" />
    <path
       d="m 106.96,819 c 56.78,-20.32 116.48,-31.14 176.14,-38.7 0.66,2.24 1.36,4.52 2.04,6.78 -49.28,6.48 -99.06,13.08 -146.14,29.76 -14.16,5.48 -29.08,11.28 -39.54,22.76 -5.02,5.24 -6.78,13.66 -3.06,20.12 5.42,9.32 15.22,14.82 24.52,19.62 21.44,10.3 44.6,16.32 67.7,21.64 76.66,16.8 155.22,22.32 233.42,26.34 37.92,2.26 75.96,2.06 113.96,1.88 77.86,-2.74 155.94,-6.86 233.02,-19.02 37.1,-6.2 74.5,-13.24 109.42,-27.68 12.14,-5.56 25.48,-11.9 32.12,-24.12 4.2,-10.24 -3.1,-20.14 -11.32,-25.58 -20.18,-14.04 -44.4,-20.48 -67.86,-26.64 3.46,-2.6 6.88,-5.24 10.2,-8 25.16,4.38 49.72,12 73.82,20.44 22.3,8.64 45.3,18.22 62.52,35.38 9.28,8.86 14.34,22.82 9.4,35.18 -6.64,14.62 -20.46,24.24 -33.96,32.02 -31.18,17.24 -65.8,26.98 -100.18,35.52 -72.54,17.26 -146.92,25.08 -221.16,30.14 -92.24,5.26 -184.84,4.76 -276.94,-2.66 C 284.08,978.12 212.94,969 144.12,949.94 116.56,941.94 88.9,932.82 64.28,917.78 53.06,910.68 41.84,902.06 36.3,889.62 31.72,878.58 34.84,865.5 42.9,856.92 59.74,838 83.9,828.06 106.96,819 z"
       id="path50"
       inkscape:connector-curvature="0"
       style="fill:#f5e5c1" />
    <path
       d="m 454.36,789.02 c 6.04,-8.42 16.8,-4.98 25.6,-5.68 25.24,-1.26 50.5,0.4 75.76,0.22 1.7,1.94 3.42,3.88 5.16,5.8 -35.5,-0.64 -71.02,0 -106.52,-0.34 z"
       id="path52"
       inkscape:connector-curvature="0"
       style="fill:#f5e5c1" />
    <path
       d="m 248.9,800.9 c 12.78,0.22 25.24,-3.3 37.7,-5.6 0.56,3.32 0.94,6.66 1.14,10.04 -10.18,-0.5 -19.92,3.1 -29.9,4.56 -26,7.28 -53.22,12.9 -76.34,27.6 -7.58,5.2 -16.02,12.4 -15.76,22.48 1.18,10.16 10.16,16.84 18.1,22.02 10.84,6.18 22.4,11.3 34.42,14.66 -11.98,-1.1 -23.48,-4.9 -35.08,-7.88 -15.72,-4.64 -31.58,-9.66 -45.62,-18.3 -5.96,-4.06 -12.4,-8.94 -14.28,-16.28 -1.4,-7.76 4.92,-13.98 10.54,-18.26 14.1,-10.14 30.96,-15.34 47.4,-20.34 22.22,-6.34 44.96,-10.7 67.68,-14.7 z"
       id="path54"
       inkscape:connector-curvature="0"
       style="fill:#f5e5c1" />
    <path
       d="m 434.2,807.48 c 4.28,-2.84 7.64,-6.88 12,-9.56 9.82,-2.1 19.96,-0.9 29.92,-1.2 29.96,-0.84 59.98,-0.36 89.92,0.96 2.72,2.62 5.4,5.3 8.04,8.02 -46.2,-7.04 -94,-7.9 -139.88,1.78 z"
       id="path56"
       inkscape:connector-curvature="0"
       style="fill:#f5e5c1" />
    <path
       d="m 465.4,809.92 c 14.12,-1.46 28.34,-1.62 42.54,-1.72 26.64,0.14 53.7,1.22 79.48,8.58 5.98,2.04 13.62,4.52 15.72,11.16 -2.26,4.88 -7.56,7.08 -12.26,8.9 -11.82,4.02 -24.22,5.96 -36.58,7.56 -37.54,3.78 -75.74,3.74 -112.96,-3.04 -9.7,-2.28 -20.48,-3.94 -28.14,-10.84 -3.26,-4.36 1.7,-8.48 5.4,-10.14 14.58,-6.96 30.98,-8.4 46.8,-10.46 z"
       id="path58"
       inkscape:connector-curvature="0"
       style="fill:#f3722c" />
    <path
       d="m 257.22,821.3 c 11.22,-2.78 22.4,-6.04 33.92,-7.12 1.8,13.12 4.14,26.14 6.24,39.22 30,-4 60.8,-6.04 89.3,-17 3.58,10.1 15.82,11.48 24.74,14.18 41.56,8.8 84.36,9.24 126.66,7.92 21.58,-1.72 43.34,-2.96 64.46,-8.06 6.96,-1.78 14.16,-3.58 20.14,-7.76 3.18,-1.48 2.74,-5.02 3.14,-7.92 0.34,0.42 1.06,1.26 1.42,1.68 14.46,2.98 28.06,9.06 42.64,11.56 10.26,3.98 21.24,3.74 32.06,3.92 16.3,1.94 32.62,-1.38 48.4,-5.18 11.78,-2.72 22.22,-9.16 33.72,-12.62 9.82,3.54 19.78,9.42 25.24,18.62 4.58,7.72 -1.16,16.36 -7.34,21.08 -13.38,10.36 -29.78,15.66 -45.72,20.62 -43.84,12.44 -89.24,18.04 -134.48,22.36 -50.52,3.92 -101.18,4.28 -151.84,4.04 -27.32,-1.58 -54.74,-1.2 -82.02,-3.74 -37.76,-3.26 -75.48,-7.92 -112.54,-16.02 -21.12,-4.92 -42.46,-10.32 -61.7,-20.58 -7.36,-4.26 -15.38,-9.38 -18.5,-17.66 -2.56,-8.74 4.54,-16 11,-20.66 15.32,-10.52 33.38,-15.9 51.06,-20.88 z"
       id="path60"
       inkscape:connector-curvature="0"
       style="fill:#f5e5c1" />
    <path
       d="m 817.72,815.34 c 2.06,-1.36 4.62,-0.38 6.82,0.1 15.24,4.46 30.52,9.6 44.14,17.92 6.08,3.92 12.62,8.96 14.2,16.44 1.28,8.98 -6.6,15.52 -13.28,20.02 -18.48,11.52 -39.8,17.18 -60.66,22.7 -7.64,1.88 -15.3,4.3 -23.28,4.08 8.62,-1.12 16.38,-5.2 24.28,-8.52 10,-4.64 20.28,-10.2 26.72,-19.48 4.48,-6.4 3.58,-15.64 -1.6,-21.4 -9.04,-10.78 -22.5,-16.3 -35.12,-21.7 5.98,-3.28 11.8,-6.86 17.78,-10.16 z"
       id="path62"
       inkscape:connector-curvature="0"
       style="fill:#f5e5c1" />
  </g>
</svg>
