<?xml version="1.0" encoding="UTF-8" standalone="no"?>
<svg
   xmlns:dc="http://purl.org/dc/elements/1.1/"
   xmlns:cc="http://creativecommons.org/ns#"
   xmlns:rdf="http://www.w3.org/1999/02/22-rdf-syntax-ns#"
   xmlns:svg="http://www.w3.org/2000/svg"
   xmlns="http://www.w3.org/2000/svg"
   xmlns:sodipodi="http://sodipodi.sourceforge.net/DTD/sodipodi-0.dtd"
   xmlns:inkscape="http://www.inkscape.org/namespaces/inkscape"
   width="1280"
   height="1280"
   viewBox="0 0 1024 1024"
   version="1.1"
   id="svg2"
   inkscape:version="0.48.1 "
   sodipodi:docname="break_shield_kill_sniper.svg">
  <metadata
     id="metadata30">
    <rdf:RDF>
      <cc:Work
         rdf:about="">
        <dc:format>image/svg+xml</dc:format>
        <dc:type
           rdf:resource="http://purl.org/dc/dcmitype/StillImage" />
      </cc:Work>
    </rdf:RDF>
  </metadata>
  <defs
     id="defs28" />
  <sodipodi:namedview
     pagecolor="#ffffff"
     bordercolor="#666666"
     borderopacity="1"
     objecttolerance="10"
     gridtolerance="10"
     guidetolerance="10"
     inkscape:pageopacity="0"
     inkscape:pageshadow="2"
     inkscape:window-width="1920"
     inkscape:window-height="1018"
     id="namedview26"
     showgrid="false"
     inkscape:snap-page="true"
     fit-margin-top="0"
     fit-margin-left="0"
     fit-margin-right="0"
     fit-margin-bottom="0"
     inkscape:zoom="0.6609375"
     inkscape:cx="640"
     inkscape:cy="640"
     inkscape:window-x="-8"
     inkscape:window-y="-8"
     inkscape:window-maximized="1"
     inkscape:current-layer="svg2" />
  <rect
     style="fill:#3e3e3e;fill-opacity:1;fill-rule:nonzero;stroke:none"
     id="rect3007"
     width="1024"
     height="1024"
     x="0"
     y="0" />
  <path
     d="m 470.04,10.02 c 1.98,1.34 3.96,2.68 5.94,4.02 -4.84,9.78 -9.8,19.48 -14.56,29.28 -4.3,9.32 -11.62,16.72 -18.3,24.36 8.74,-19.32 17.9,-38.46 26.92,-57.66 z"
     id="path6"
     inkscape:connector-curvature="0"
     style="fill:#f4722b" />
  <path
     d="M 496.42,65.92 C 523.52,52.46 550.8,39.3 578,26.04 580.68,30 583.34,34 585.98,38 c -14.9,7.68 -30.14,14.72 -44.86,22.78 -2.82,1.62 -6.14,1.7 -9.3,2.04 -11.82,0.9 -23.6,2.18 -35.4,3.1 z"
     id="path8"
     inkscape:connector-curvature="0"
     style="fill:#f4722b" />
  <path
     d="m 296.52,38.58 c 2.64,-0.58 5.3,0.18 7.88,0.76 30.38,7.44 60.88,14.4 91.2,22.02 -12.18,1.82 -24.56,2.14 -36.66,4.52 14.1,11.04 27.92,22.46 41.9,33.66 C 361.18,93.78 321.7,86.88 282.04,81.26 282,88.84 282,96.42 282,104 c -8.68,5.38 -17.72,10.12 -26.22,15.76 -5,4.6 -7.6,11.14 -11.4,16.68 -3.56,6.36 -8.5,12.06 -10.8,19.04 -14.36,72.04 -28.44,144.14 -42.92,216.16 -11.32,-1.96 -22.64,-4.1 -34.06,-5.3 -5.4,17.92 -10.86,35.82 -16.36,53.7 -2.04,6.2 -2.92,12.94 -6.74,18.42 -8.46,-48 -15.96,-96.2 -23.62,-144.32 0.92,-31.34 3.34,-62.66 4.94,-93.98 5.7,-20.94 12.64,-41.54 18.92,-62.32 2.18,-8.78 8.78,-15.24 13.68,-22.52 5.68,-7.6 10.56,-15.94 17.62,-22.38 8.88,-8.42 17.68,-16.9 26.4,-25.44 4.68,-5.06 11.92,-5.74 18.02,-8.2 16.16,-4.94 31.6,-12.5 48.46,-14.86 12.88,-1.86 25.76,-3.76 38.6,-5.86 z"
     id="path10"
     inkscape:connector-curvature="0"
     style="fill:#f4722b" />
  <path
     d="m 857.96,48.4 c 7.12,16.26 13.32,33.64 12.44,51.66 -12,6.6 -23.86,13.48 -35.7,20.36 -5.94,3.28 -11.96,6.76 -18.68,8.14 -13.34,0.38 -26.66,-0.86 -39.94,-2.04 -18.9,-0.72 -36,-9.86 -54.66,-12.08 15.26,-8.26 33.38,-8.84 49.08,-16.22 5.62,-10.9 5.08,-24 11.74,-34.44 11.64,-1.16 23.54,-0.38 35.08,-2.82 5.16,-1.08 10.4,-1.68 15.66,-2.1 0.4,10.44 7.54,18.88 7.98,29.2 0.68,6.08 2.22,12.02 3.76,17.92 2.6,-1.16 5.18,-2.32 7.8,-3.48 3.04,-9.9 5.32,-20.08 6.08,-30.42 -0.12,-7.9 -2.22,-15.76 -0.64,-23.68 z"
     id="path12"
     inkscape:connector-curvature="0"
     style="fill:#f4722b" />
  <path
     d="m 466.36,130.42 c 14.58,-3.36 29.12,-6.96 43.68,-10.42 0.6,1.98 1.22,3.94 1.84,5.92 -1.04,2.34 -2.1,4.7 -3.14,7.04 -9.64,1.44 -19.14,3.86 -28.84,4.76 -7,-0.74 -13.84,-2.54 -20.7,-4.04 1.92,-1.94 4.6,-2.66 7.16,-3.26 z"
     id="path14"
     inkscape:connector-curvature="0"
     style="fill:#f4722b" />
  <path
     d="m 808.84,137.18 c 12.16,-4.68 23.54,4.44 32.92,11.12 10.1,15.16 11.48,34.46 9.36,52.12 5.04,1.38 13.38,-1.22 15.3,5.28 -0.66,6.02 -3.76,11.36 -5.82,16.96 12.94,4.44 26.7,7.14 38.54,14.3 5.96,3.72 13.12,5.46 18.12,10.6 -2.64,7.46 -11.38,17.66 -3.4,24.52 7.52,7.14 11.66,16.82 16.42,25.84 4.98,10.54 10.3,21.06 13.24,32.4 2.98,9.26 3.64,19.02 5.86,28.46 -14.48,-0.32 -28.98,0.64 -43.44,-0.66 -19.88,-1.56 -39.86,0.76 -59.74,-1.16 -8.66,-0.42 -17.62,-0.8 -26,1.82 -15.92,12.5 -28.14,28.94 -42.34,43.26 -11.58,11.66 -23.1,23.4 -33.9,35.82 -3.56,3.4 -6.84,9.64 -12.66,7.3 1.46,-31.22 -5.14,-62.04 -7.1,-93.08 -0.56,-8.18 -4.82,-16.78 -0.88,-24.66 1.74,-5.56 6.12,-11.46 3.06,-17.36 -1.64,-5.82 -6.72,-10.94 -5.68,-17.3 3.54,-5.06 8.26,-9.16 12.66,-13.46 13.06,-12.34 24.02,-26.94 38.9,-37.22 -2.66,-6.7 -7.8,-11.8 -11.7,-17.7 4.32,-5.18 9,-10.56 16.04,-11.78 1.24,-2.52 4.02,-5.04 2.8,-8.12 -2.92,-10.66 -8.5,-21.16 -6.74,-32.56 1.44,-8.7 3.62,-18.66 11.66,-23.68 7.56,-4.84 16.08,-8.04 24.52,-11.06 z"
     id="path16"
     inkscape:connector-curvature="0"
     style="fill:#f4722b" />
  <path
     d="m 462.16,185.42 c 44.86,55.28 89.18,111 133.6,166.64 12.24,14.32 21.06,31.08 31.54,46.64 10.28,16.4 20.82,32.62 31.12,49.02 6.98,11.16 14.92,21.84 20.08,34.06 14.38,32.88 29.26,65.54 43.62,98.42 7.74,18.72 15.14,37.56 23.08,56.18 -13,16.86 -30.88,28.54 -48.36,40.18 -15.9,11.78 -34.04,20.24 -49.02,33.3 -18.88,13.06 -38.82,24.64 -59.62,34.42 -25.38,13.46 -53.16,21.2 -80.38,29.98 -23.72,7.92 -48.6,11.32 -72.86,17.18 -15.94,4.22 -32.48,4.92 -48.82,6.48 -13.86,-15.56 -27.46,-31.36 -41.38,-46.88 -2.2,-2.44 -4.3,-4.98 -5.94,-7.82 -32.84,-58.34 -65.24,-116.96 -98.26,-175.2 4.18,-20.02 9.14,-39.88 13.44,-59.9 14.2,1.54 28.44,3.08 42.52,5.5 -7.14,-80.12 -13.78,-160.22 -21.26,-240.3 6.06,-4.76 13.38,-7.74 19,-13.04 15.48,-17.88 29.74,-36.82 45.5,-54.44 29.54,19.98 59.16,39.86 88.98,59.4 11.6,3.98 23.58,7.06 35.48,10.14 10.84,-0.46 21.68,-1.84 32.5,-2.94 C 485.06,243.48 473,214.68 462.16,185.42 z"
     id="path18"
     inkscape:connector-curvature="0"
     style="fill:#f4722b" />
  <path
     d="m 790.2,428.28 c 14.48,-15.78 25.98,-34.3 41.88,-48.78 13.84,0.64 27.76,1.92 41.7,1.46 18.7,1.44 37.46,1.3 56.14,3.16 29.1,0.78 58.22,-0.1 87.34,0.46 -0.1,1.02 -0.28,3.08 -0.36,4.1 -23.62,10.76 -48.36,18.76 -71.92,29.62 7.56,14.76 18.6,27.3 27.16,41.42 8.14,16.58 18.8,32.14 23.54,50.18 2.08,8.18 4.54,16.34 8.48,23.84 6.42,12 7.98,25.7 10.86,38.8 4.02,16.18 1.84,32.96 2.44,49.42 -0.38,12 1.82,24.66 -3.14,36.02 -4.94,11.72 -7.56,24.24 -12.66,35.9 -7.78,19.02 -19.42,36.04 -30.26,53.38 -8.82,14.8 -19.2,28.6 -30.08,41.92 -20.82,23.26 -44.34,43.9 -67,65.32 -23.9,20.54 -48.96,39.92 -76.5,55.38 -18.3,10.22 -36.26,21.04 -54.22,31.88 -19.26,11.52 -40.22,19.66 -60.42,29.32 -26.8,10.26 -53.66,20.5 -81.22,28.58 -18.24,4.64 -36.14,10.42 -54.1,15.96 -10.04,2.76 -20.36,4.42 -30.04,8.38 L 0,1024 0,747.16 c 24.42,13.78 50.78,23.6 76.76,33.92 34.34,11.08 69.08,21.78 105,26.24 31.92,4.42 63.8,10.26 96.14,10.14 26.7,2.42 53.46,0.46 80.16,-0.64 9.26,-1.9 18.6,1.38 27.84,-0.66 14.62,-2.38 29.06,-5.68 43.6,-8.6 19.6,-4.12 39.54,-7.12 58.58,-13.58 11.96,-4.16 24.28,-7.16 36.34,-10.98 31.48,-9.82 61.52,-23.58 91.36,-37.44 14.46,-8.26 30.16,-14.28 43.7,-24.12 18.7,-12.94 40.64,-20.98 57.44,-36.62 15.02,-12.16 29.82,-24.68 42.96,-38.92 6.1,-7.24 11.22,-15.32 18.08,-21.92 9.76,-9.5 17.58,-20.98 22.28,-33.8 6,-16.3 13.54,-32.46 14.72,-50.04 -0.42,-12.36 -3.08,-24.58 -6.34,-36.46 -2.94,-10.98 -9.56,-20.36 -16.18,-29.38 -19.68,9.36 -40.22,16.88 -59.46,27.14 -4.6,2.18 -8.82,6.02 -14.22,5.7 -1.52,-3.56 1.86,-6.16 3.72,-8.74 21.76,-24.14 45.22,-46.68 67.72,-70.12 z"
     id="path20"
     inkscape:connector-curvature="0"
     style="fill:#f5e5c1" />
  <path
     d="m 65.7,493.38 c 21.08,-6.84 42.04,-14.1 63.14,-20.9 -22.04,14.9 -44.62,29 -66.88,43.54 -8.74,-1.78 -17.72,-2.56 -26.1,-5.76 9.72,-5.96 18.7,-13.66 29.84,-16.88 z"
     id="path22"
     inkscape:connector-curvature="0"
     style="fill:#f4722b" />
  <path
     d="m 82.06,591.9 c 22.06,-35.24 43.82,-70.68 66.04,-105.82 3.54,9.14 -0.48,18.54 -1.7,27.72 -3.28,16.3 -5.3,32.88 -9.42,49 -5.46,13.8 -6.52,28.68 -9,43.16 -7.98,0.76 -15.96,1.36 -23.96,2.08 -6.44,-6.54 -11.46,-16.3 -21.96,-16.14 z"
     id="path24"
     inkscape:connector-curvature="0"
     style="fill:#f4722b" />
</svg>
