<?xml version="1.0" encoding="UTF-8" standalone="no"?>
<svg
   xmlns:dc="http://purl.org/dc/elements/1.1/"
   xmlns:cc="http://creativecommons.org/ns#"
   xmlns:rdf="http://www.w3.org/1999/02/22-rdf-syntax-ns#"
   xmlns:svg="http://www.w3.org/2000/svg"
   xmlns="http://www.w3.org/2000/svg"
   xmlns:sodipodi="http://sodipodi.sourceforge.net/DTD/sodipodi-0.dtd"
   xmlns:inkscape="http://www.inkscape.org/namespaces/inkscape"
   width="1280"
   height="1280"
   viewBox="0 0 1024 1024"
   version="1.1"
   id="svg2"
   inkscape:version="0.48.1 "
   sodipodi:docname="camp_position.svg">
  <metadata
     id="metadata20">
    <rdf:RDF>
      <cc:Work
         rdf:about="">
        <dc:format>image/svg+xml</dc:format>
        <dc:type
           rdf:resource="http://purl.org/dc/dcmitype/StillImage" />
      </cc:Work>
    </rdf:RDF>
  </metadata>
  <defs
     id="defs18" />
  <sodipodi:namedview
     pagecolor="#ffffff"
     bordercolor="#666666"
     borderopacity="1"
     objecttolerance="10"
     gridtolerance="10"
     guidetolerance="10"
     inkscape:pageopacity="0"
     inkscape:pageshadow="2"
     inkscape:window-width="1920"
     inkscape:window-height="1018"
     id="namedview16"
     showgrid="false"
     inkscape:snap-page="true"
     fit-margin-top="0"
     fit-margin-left="0"
     fit-margin-right="0"
     fit-margin-bottom="0"
     inkscape:zoom="0.6609375"
     inkscape:cx="466.00473"
     inkscape:cy="640"
     inkscape:window-x="-8"
     inkscape:window-y="-8"
     inkscape:window-maximized="1"
     inkscape:current-layer="layer2" />
  <g
     inkscape:groupmode="layer"
     id="layer2"
     inkscape:label="background">
    <rect
       style="fill:#3e3e3e;fill-opacity:1;fill-rule:nonzero;stroke:none"
       id="rect2997"
       width="1024"
       height="1024"
       x="0"
       y="0" />
  </g>
  <g
     inkscape:groupmode="layer"
     id="layer1"
     inkscape:label="foreground">
    <path
       d="m 327.32,87.38 c 16.28,-8.6 33.88,-16.08 52.56,-16.62 20.9,-1.28 42.46,0.8 61.8,9.24 12.34,3.96 25.14,6.86 36.56,13.22 15.6,8.04 32.14,15.18 44.72,27.78 2.76,3 5.44,6.68 5.36,10.96 -3.1,23.84 -4.14,48.06 -2.22,72.08 0.78,24.68 2.48,49.32 3.64,74 2.4,21.3 1.28,42.76 1.52,64.14 0.18,10.08 -2.1,20.42 0.3,30.34 18.66,10.2 40.32,19.86 50.12,40.04 3.1,5.02 0.78,11.76 -4.64,13.94 -21.06,4.2 -42.08,-1.84 -62.22,-7.5 -11.44,-3.54 -23.82,-3.78 -34.54,-9.52 -14.6,-4.3 -29.06,-9.6 -41.94,-17.86 -11.96,-7.94 -26.9,-9.26 -38.96,-17.04 -11.84,-7.68 -24.66,-13.7 -36.42,-21.52 -5.7,-3.38 -12.44,-4.4 -18.22,-7.64 -12.5,-7.26 -25.72,-13.28 -39.06,-18.78 -10.04,-0.42 -19.96,2.62 -29.4,5.78 -9.22,2.9 -13.18,12.54 -17.24,20.42 -6,11.42 -4.76,25.18 -1.04,37.12 4.64,14.46 15.98,25.22 26.1,36.02 6.64,7.24 15.94,10.92 24.26,15.8 12.52,7.66 27.24,10.7 41.64,12.52 9.9,2.02 18.12,-5.8 27.9,-5.5 10.3,-0.4 24.08,-0.96 30.06,9.3 4.04,9.88 -0.14,20.98 3.16,31.04 9.78,-0.78 20.02,-1.68 28.38,-7.4 11.72,-5.9 18.78,-17.3 26.06,-27.68 -4.06,21.3 -19.8,38.74 -37.88,49.82 -8.1,4.24 -16.96,7.66 -23.42,14.34 -4.5,5.62 -5.08,13.22 -8.72,19.3 -3,3.62 -6.8,6.48 -9.88,10.04 -8.18,10.94 -29.18,10.24 -34.5,-3.28 -4.14,-8.7 -12.12,-14.4 -19.84,-19.68 -6.06,-4.38 -14.06,-5.1 -19.66,-10.26 -9.96,-8.76 -20.7,-16.58 -30.64,-25.38 -6.9,-6.48 -16.84,-1.94 -23.56,2.4 -6.88,8.64 -11.56,18.8 -16.9,28.44 35.42,31.16 75,56.94 113.26,84.38 39.82,28.1 79.52,56.34 119.38,84.36 7.26,4.88 11.6,12.7 17.02,19.34 51.3,66.18 102.04,132.82 153.66,198.74 6.08,-4.76 11.24,-10.5 16.34,-16.24 16.64,-17.46 33.84,-34.38 51.6,-50.66 12.86,-14.44 27.04,-27.74 38.34,-43.5 6.32,-8.96 14.12,-16.78 20.22,-25.9 3.42,-4.48 5.98,-9.8 10.38,-13.4 12.48,-3.8 25.64,-4.76 38.5,-6.56 1.02,-10.2 -6.6,-17.68 -8.76,-27.04 -9.52,0.54 -19.84,-2.22 -25.52,-10.42 -5.52,-6.44 -4.16,-15.28 -3.6,-23.02 -4.44,-7.08 -8.04,-15.42 -5.92,-23.92 3.2,-13.56 12.94,-24.26 21.76,-34.56 -1.58,-1.78 -3.16,-3.56 -4.72,-5.32 5.4,-14.62 13.94,-27.78 19.72,-42.22 7.82,-17.5 13.76,-36.08 24.76,-51.96 -1.9,-8.6 -3.34,-17.32 -3.9,-26.12 2.18,11.9 2.94,25.92 13.42,33.88 7.18,6.16 17.1,5.18 25.88,4.9 6.84,-6.76 14.62,-12.42 22.54,-17.84 -2.1,-31.2 -7.64,-62 -12.06,-92.92 6.82,30.2 11.3,60.84 16.2,91.4 9.94,-0.3 20.68,2.68 26.62,11.26 10.68,14.04 6.58,32.94 13.3,48.48 8.34,19.06 17.84,37.94 21.74,58.54 2.7,11.28 1.96,23.1 5.1,34.3 2.62,11.7 8.24,24.08 3.56,36.02 -2.64,7.48 -9.3,12.32 -16.06,15.84 -0.84,8.44 -2.72,16.72 -4.52,25 4.88,2.5 12.26,4.6 12.28,11.3 1.1,5.8 -4.66,8.56 -8.68,11.1 3.02,14.34 7.38,28.44 8.36,43.14 3.68,38.58 5.92,78.54 -5.64,116.06 -3.12,9.6 -2.9,19.78 -2.4,29.72 -11.6,8.56 -20.68,19.84 -31.2,29.58 -9.56,8.88 -18.38,18.5 -26.82,28.46 L 0,1024 0,435.3 c 22.88,-14.98 46.44,-28.9 68.92,-44.48 25.9,-15.1 50.96,-31.6 76.46,-47.36 3.24,-2.18 6.9,-3.58 10.66,-4.58 0.98,2.62 1.98,5.24 2.96,7.88 -0.26,-18.64 4.6,-36.86 11.78,-53.92 1.82,-3.96 3.96,-7.9 7.14,-10.98 11.5,-8.76 26.38,-10.44 40.42,-9.3 0.02,-1.68 0.04,-5.04 0.06,-6.72 -8.28,-0.84 -16.58,-2.48 -24.22,-5.84 -7.06,-10.62 -8.58,-23.8 -11.36,-36 -1.76,-5.56 3.24,-11.9 9.08,-10.88 10.14,2.8 19.88,7.32 30.42,8.58 4.42,0.76 5.9,-4.5 8.12,-7.24 7.04,-13.24 17.84,-24.08 24.24,-37.68 3.04,-6.2 6.44,-12.2 10.34,-17.88 7.5,-10.64 11.76,-23.34 20.72,-33 12.7,-13.94 24.52,-29.56 41.58,-38.52 z"
       id="path6"
       inkscape:connector-curvature="0"
       style="fill:#f3722b" />
    <path
       d="m 829.14,191.8 c 4.54,15.06 11.32,29.32 17.3,43.84 3.94,10.36 3.94,21.64 6.32,32.36 6.16,31.18 10.72,62.64 16.44,93.9 4.72,23.94 9.06,47.94 13.66,71.9 4.42,30.92 9.96,61.72 12.06,92.92 -7.92,5.42 -15.7,11.08 -22.54,17.84 -8.78,0.28 -18.7,1.26 -25.88,-4.9 -10.48,-7.96 -11.24,-21.98 -13.42,-33.88 -8.2,-57.78 -13.56,-115.92 -22.28,-173.64 -0.92,-6.76 -2.88,-13.52 -2.2,-20.38 2,-6.24 5.8,-11.76 7.64,-18.08 6.9,-24.06 9.82,-49 12.58,-73.8 0.72,-9.34 0.2,-18.72 0.32,-28.08 z"
       id="path8"
       inkscape:connector-curvature="0"
       style="fill:#f5e5c1" />
    <path
       d="m 307.28,367.74 c 5.46,5.88 13.56,7.38 20.66,10.4 20.42,7.7 40.64,15.98 61.22,23.24 -21.08,-0.06 -42.08,-2.34 -63.14,-3.4 -6.28,-10.06 -12.74,-20 -18.74,-30.24 z"
       id="path10"
       inkscape:connector-curvature="0"
       style="fill:#f5e5c1" />
    <path
       d="m 438.1,426.52 c 10,3.4 20.7,3.16 30.88,5.74 -4.86,3.44 -9.9,6.62 -14.98,9.74 -5.28,-5.16 -10.3,-10.62 -15.9,-15.48 z"
       id="path12"
       inkscape:connector-curvature="0"
       style="fill:#f5e5c1" />
    <path
       d="m 393.46,581.2 c 6.78,-1.16 13.62,-1.86 20.5,-1.72 26.08,0.3 52.34,-0.7 78.24,3.08 6.52,0.74 13.26,5.38 12.82,12.62 -12.98,0.8 -26,-0.1 -38.86,-1.8 -24.22,-1.64 -48.42,-3.28 -72.6,-5.12 -0.04,-1.76 -0.08,-5.3 -0.1,-7.06 z"
       id="path14"
       inkscape:connector-curvature="0"
       style="fill:#f5e5c1" />
  </g>
</svg>
