<?xml version="1.0" encoding="UTF-8" standalone="no"?>
<svg
   xmlns:dc="http://purl.org/dc/elements/1.1/"
   xmlns:cc="http://creativecommons.org/ns#"
   xmlns:rdf="http://www.w3.org/1999/02/22-rdf-syntax-ns#"
   xmlns:svg="http://www.w3.org/2000/svg"
   xmlns="http://www.w3.org/2000/svg"
   xmlns:sodipodi="http://sodipodi.sourceforge.net/DTD/sodipodi-0.dtd"
   xmlns:inkscape="http://www.inkscape.org/namespaces/inkscape"
   width="1280"
   height="1280"
   viewBox="0 0 1024 1024"
   version="1.1"
   id="svg2"
   inkscape:version="0.48.1 "
   sodipodi:docname="dominate_sniper.svg">
  <metadata
     id="metadata142">
    <rdf:RDF>
      <cc:Work
         rdf:about="">
        <dc:format>image/svg+xml</dc:format>
        <dc:type
           rdf:resource="http://purl.org/dc/dcmitype/StillImage" />
      </cc:Work>
    </rdf:RDF>
  </metadata>
  <defs
     id="defs140" />
  <sodipodi:namedview
     pagecolor="#ffffff"
     bordercolor="#666666"
     borderopacity="1"
     objecttolerance="10"
     gridtolerance="10"
     guidetolerance="10"
     inkscape:pageopacity="0"
     inkscape:pageshadow="2"
     inkscape:window-width="1920"
     inkscape:window-height="1018"
     id="namedview138"
     showgrid="false"
     inkscape:snap-page="true"
     fit-margin-top="0"
     fit-margin-left="0"
     fit-margin-right="0"
     fit-margin-bottom="0"
     inkscape:zoom="0.6609375"
     inkscape:cx="466.00473"
     inkscape:cy="640"
     inkscape:window-x="-8"
     inkscape:window-y="-8"
     inkscape:window-maximized="1"
     inkscape:current-layer="layer1" />
  <g
     inkscape:groupmode="layer"
     id="layer1"
     inkscape:label="background"
     style="display:inline">
    <rect
       style="fill:#3e3e3e;fill-opacity:1;fill-rule:nonzero;stroke:none"
       id="rect3144"
       width="1024"
       height="1024"
       x="0"
       y="0" />
  </g>
  <g
     inkscape:groupmode="layer"
     id="layer2"
     inkscape:label="foreground">
    <path
       d="m 279,46 c -8.63882,0.0891 -17.25938,0.5875 -25.85,1.55 C 203.53,53.09 155.62,73.2 117.1,105 70.18,143.12 37.56,198.35 26.5,257.75 16.94,307.97 22.67,361.02 42.85,408 c 20.38,48.04 55.59,89.66 99.75,117.5 44.74,28.52 98.38,42.82 151.4,40.2 58.9,-2.46 116.55,-26 160.55,-65.2 45.94,-40.44 76.61,-97.76 84.95,-158.4 6.62,-46.98 0.07,-95.76 -18.85,-139.3 C 498.89,152.12 460.5,108.81 412.7,81.25 372.41938,57.65875 325.64958,45.51877 279,46 z m 1.6,61.85 c 10.5175,-0.0125 21.03,0.46 31.5,1.25 49.98,7.56 96.83,34.98 127.55,75.2 20.44,26.58 34.19,58.42 39.25,91.6 6.58,28.52 2.14,58.2 -5.7,86 -13.16,44.58 -42.05,84.45 -81.05,109.95 -23.98,15.9 -51.44,26.67 -79.9,31.05 -27.94,6.48 -56.98,2.19 -84.3,-5.15 C 177.75,483.53 133.59,449.14 108.35,403.4 93.79,376.66 83.54,346.69 84,315.95 c 0.04,-14.58 -0.5,-29.27 1.6,-43.75 8.36,-47.64 34.36,-92.2 72.5,-122.1 26.26,-20.92 57.97,-35.01 91.05,-40.65 10.44,-1.1 20.9325,-1.5875 31.45,-1.6 z"
       id="path6"
       style="fill:#f5e5c1"
       inkscape:connector-curvature="0" />
    <path
       style="fill:#f4722b"
       d="m 808.4,46.75 c -5.15813,-0.1575 -10.37501,3.1 -15.1,4.9 -4.4,14.64 -11.48,28.37 -18.4,41.95 -11.8,27.58 -21.28,56.12 -32.1,84.1 -15.56,39.8 -30.31,79.94 -45.15,120 -5.56,14.7 -10.59,29.57 -16.45,44.15 -10.26,29.52 -22.72,58.21 -32.3,87.95 6.42,2.46 12.38,6.17 19.1,7.75 6.36,0.3 10.61,-5.63 13.05,-10.75 11.6,-24.52 21.91,-49.61 33.65,-74.05 6.26,-14.24 12.65,-28.43 19.15,-42.55 29.86,-67.24 60.5,-134.16 90.6,-201.3 4.82,-10.64 9.65,-21.24 14.45,-31.9 1.96,-4.68 4.14,-9.26 6.4,-13.8 -10.22,-5.78 -21.17,-9.98 -31.75,-15 -1.68501,-0.99 -3.43062,-1.3975 -5.15,-1.45 z m 2,12.4 c 9.48746,-0.81512 19.1175,8.6825 17,18.5 -0.74,13.16 -19.33,18.36 -27.45,8.4 -7.94,-7.82 -4.11,-22.59 6.45,-25.85 1.31499,-0.565 2.64466,-0.93356 4,-1.05 z M 663.75,416.3 c 3.56,1.48 8.44,4.82 5.7,9.3 -1.76,4.92 -9.86,3.3 -10.3,-1.5 -1.18,-3.5 2.94,-5.42 4.6,-7.8 z"
       id="path8"
       inkscape:connector-curvature="0" />
    <path
       d="m 777.38,57.68 c 5.4,-1.78 10.72,-3.76 15.94,-6.04 -4.4,14.64 -11.5,28.4 -18.42,41.98 -2.7,-4.96 -5.32,-10.12 -6.04,-15.8 1.98,-7.04 5.64,-13.44 8.52,-20.14 z"
       id="path10"
       inkscape:connector-curvature="0"
       style="fill:#f5e5c1" />
    <path
       d="m 800.84,77.48 c -5.58,-8.32 11.18,-20.18 17.06,-11.18 -6.42,2.6 -11,8.06 -17.06,11.18 z"
       id="path14"
       inkscape:connector-curvature="0"
       style="fill:#f5e5c1" />
    <path
       style="fill:#f4722b"
       d="m 850.3,65.1 c -2.38,5.44 -4.88,10.81 -7.3,16.25 -4.82,10.86 -9.78,21.65 -14.5,32.55 -29.7,65.82 -59.39,131.62 -88.95,197.5 -6.64,14.4 -13.03,28.92 -19.55,43.4 -11.92,26.48 -23.81,53.02 -35.75,79.5 -2.5,3.9 0.03,8.02 1.15,11.9 6.64,2.46 12.8,6.94 20,7.5 15.72,-27.68 30.14,-56.16 45.2,-84.2 7.58,-14 14.63,-28.29 22.45,-42.15 31.26,-61.2 64.1,-121.63 95.9,-182.55 7.88,-13.64 13.81,-28.28 21.95,-41.8 4.86,-6.94 -0.12,-15.72 -4.6,-21.4 -11.52,-6.42 -23.92,-11.24 -36,-16.5 z m 12,18.5 c 2.14344,-0.0337 4.27501,0.52 6.1,1.8 6.52,3.46 8.05,12.88 3.45,18.5 -2.46,3 -6.46,3.72 -9.8,5.2 -5.82,-1.84 -12.61,-5.95 -11.75,-13.05 -1.02,-6.93 5.56968,-12.34875 12,-12.45 z M 698.6,432.7 c 3.99563,-0.0394 8.2,5.07 4.9,8.85 -3.84,5.98 -14.53,-1.23 -8.55,-6.85 0.99,-1.39 2.31813,-1.98688 3.65,-2 z"
       id="path16"
       inkscape:connector-curvature="0" />
    <path
       d="m 804.52,83.36 c 7.18,-2.64 11.78,-9.7 19.36,-11.44 -0.24,4.32 0.38,9.58 -3.74,12.36 -3.68,4.42 -9.8,2.76 -14.76,2.58 -0.22,-0.88 -0.64,-2.62 -0.86,-3.5 z"
       id="path18"
       inkscape:connector-curvature="0"
       style="fill:#f5e5c1" />
    <path
       d="m 824.44,108.92 c 4.82,-10.64 9.64,-21.28 14.44,-31.94 1.04,1.1 3.1,3.28 4.14,4.38 -4.82,10.86 -9.78,21.64 -14.5,32.54 l 0.88,-2.2 c -1.24,-0.68 -3.72,-2.08 -4.96,-2.78 z"
       id="path20"
       inkscape:connector-curvature="0"
       style="fill:#f5e5c1" />
    <path
       d="m 861.54,87.12 c 7.32,0.98 10.96,8.4 7.88,14.98 -3.78,-4.3 -7.04,-9.2 -7.88,-14.98 z"
       id="path24"
       inkscape:connector-curvature="0"
       style="fill:#f5e5c1" />
    <path
       d="m 863.4,105.06 c -6.64,1.24 -14.02,-9.02 -7.28,-13.12 2.86,4.12 5.12,8.62 7.28,13.12 z"
       id="path26"
       inkscape:connector-curvature="0"
       style="fill:#f5e5c1" />
    <path
       d="m 281.45,142.05 c -8.09594,0.0119 -16.19,0.605 -24.2,1.75 -49.5,7.42 -94.76,38.71 -118.7,82.75 -20.48,36.48 -25.81,80.9 -15.15,121.3 9.04,34.26 29.44,65.53 57.5,87.25 28.56,22.44 64.74,35.14 101.1,34.8 36.36,0.34 72.56,-12.36 101.1,-34.8 28.06,-21.74 48.46,-53 57.5,-87.3 9.84,-37.48 6.12,-78.48 -11,-113.3 -16.08,-33.48 -43.96,-61.06 -77.6,-76.8 -21.94499,-10.545 -46.26219,-15.68563 -70.55,-15.65 z m 0.85,60 c 4.63019,0.041 9.3025,0.2325 13.9,0.45 35.64,4.02 67.83,28.49 82.15,61.25 8.06,18.86 12.12,40.15 7.7,60.45 -4.96,28.28 -21.71,54.47 -45.95,70.05 -23.38,15.12 -53.04,21.73 -80.3,14.75 -46.04,-9.48 -83.12,-53.49 -81.7,-100.95 -1.64,-28.1 10.46,-55.92 30,-75.8 14.04,-13.92 31.97,-23.84 51.25,-28.3 7.55,-1.5625 15.23301,-1.96835 22.95,-1.9 z"
       id="path32"
       style="fill:#f5e5c1"
       inkscape:connector-curvature="0" />
    <path
       d="m 272.24,232.46 c 22.34,-2.6 45.56,5.84 60.98,22.22 21.86,21.82 27.06,58.02 12.54,85.22 -10.34,20.16 -30.34,35.08 -52.7,38.98 -17.26,2.88 -35.68,-0.06 -50.74,-9.2 -18.58,-11.04 -32.22,-30.5 -35.34,-51.98 -2.86,-18.28 1.1,-37.72 11.64,-53 12.06,-17.88 32.04,-30.28 53.62,-32.24 z"
       id="path36"
       inkscape:connector-curvature="0"
       style="fill:#f4722b" />
    <path
       style="fill:#f5e5c1"
       d="m 605,286.75 c -14.1595,0.14822 -28.3,1.19374 -42.35,3.2 0.9,15.16 0.04,30.32 -1.5,45.4 11.54,-1.38 23.09,-2.9 34.75,-2.6 -0.42,20.98 -0.04,41.95 -0.2,62.95 -10.2,0.46 -20.8,-1.44 -30.7,1.6 -8.16,3.3 -8.2,15.97 -0.1,19.35 9.94,3.06 20.56,1.17 30.8,1.65 -0.04,26.44 0.1,52.86 0,79.3 -47.14,4.24 -90.62,34.5 -111,77.2 4.48,1 9.94,1.48 12.7,5.7 0.68,3.96 -1.88,7.48 -3.1,11.1 0.6,-0.38 1.72,-1.12 2.3,-1.5 0.87,-2.25501 1.86032,-4.48032 2.9,-6.65 1.03688,-2.17157 2.1375,-4.29374 3.3,-6.4 2.32499,-4.2125 4.87,-8.29 7.45,-12.35 -2.94,-3.16 -7.05,-6.06 -7.45,-10.7 -0.96,-6.72 4.7,-12.19 10.1,-15.15 9.96,-4.2 20.62,-7.87 31.6,-6.15 15.66,-9.14 33.1,-15.34 51.2,-17.1 0.04,10.34 0.11,20.66 -0.15,31 -2.5675,0.3775 -5.09507,0.88875 -7.6,1.5 -3.75738,0.91688 -7.46198,2.09586 -11.05,3.5 -2.39202,0.9361 -4.69595,1.96453 -7,3.1 -0.0135,0.007 -0.0365,-0.007 -0.05,0 -2.2904,1.1301 -4.55664,2.38643 -6.75,3.7 -3.30888,1.98165 -6.49046,4.13938 -9.55,6.5 -1.01984,0.7871 -2.0604,1.62426 -3.05,2.45 -1.96901,1.64381 -3.85837,3.36323 -5.7,5.15 -0.9253,0.89773 -1.85875,1.81875 -2.75,2.75 4.98,0.08 9.94,0.49 14.9,1.15 9.68,-8.24 21.22,-14.17 33.6,-17.15 -0.3725,1.03 -0.74781,2.03242 -1.15,3.05 -2.81262,7.14051 -6.30334,13.9735 -9.6,20.9 -7.04,15.38 -15.78,30 -21.9,45.8 22.64,10.04 44.6,21.66 67.5,31.1 3.02,-9.38 6.68,-18.56 10.3,-27.7 8.68,2.44 16.12,8.1 20.7,15.9 2.76,-0.02 5.54,0 8.3,0 -0.14,-7.78 2.04,-15.4 6.3,-21.9 -1.39152,-0.15686 -2.75611,-0.30208 -4.15,-0.4 -1.37621,-0.0977 -2.72266,-0.1475 -4.1,-0.2 -8.27531,-0.31219 -16.55499,0.075 -24.85,-0.15 4.85443,-12.72043 9.29093,-25.62078 14.15,-38.35 0.006,-0.0144 -0.005,-0.0356 0,-0.05 1.62187,-4.24781 3.3,-8.45 5.05,-12.65 0.80258,0.70778 1.57144,1.41466 2.35,2.15 2.30147,2.17373 4.48744,4.44861 6.55,6.85 0.0151,0.0176 0.0349,0.0324 0.05,0.05 0.67424,0.78626 1.35446,1.5908 2,2.4 1.31963,1.65326 2.56021,3.35541 3.75,5.1 0.5952,0.87322 1.18968,1.75501 1.75,2.65 1.12,1.78813 2.1793,3.6291 3.15,5.5 1.45693,2.80899 2.71576,5.72174 3.8,8.7 0.72245,1.98437 1.35928,3.99712 1.9,6.05 0.27043,1.02666 0.5275,2.0575 0.75,3.1 4.18,-1.44 8.5,-2.35 12.9,-2.75 -0.63501,-2.54 -1.35586,-5.07035 -2.2,-7.55 -0.83947,-2.46485 -1.80965,-4.91355 -2.85,-7.3 -0.006,-0.0138 0.006,-0.0362 0,-0.05 -1.04174,-2.38645 -2.21339,-4.71053 -3.45,-7 -0.007,-0.0126 0.007,-0.0374 0,-0.05 -2.4831,-4.59202 -5.36941,-8.96022 -8.6,-13.05 -0.008,-0.01 0.008,-0.0399 0,-0.05 -2.42317,-3.06475 -5.08094,-5.94088 -7.9,-8.65 -1.88549,-1.81117 -3.84498,-3.57157 -5.9,-5.2 -1.02758,-0.81414 -2.08125,-1.58501 -3.15,-2.35 1.11222,-7.66538 4.10346,-14.77189 6.9,-21.95 0.45923,-1.1809 0.96264,-2.36342 1.4,-3.55 0.005,-0.0147 -0.005,-0.0353 0,-0.05 0.4423,-1.20117 0.85,-2.3875 1.25,-3.6 1.97875,1.2 3.90955,2.47587 5.8,3.8 1.89067,1.32442 3.75091,2.70859 5.55,4.15 4.49667,3.60214 8.71496,7.54899 12.6,11.8 1.55402,1.7004 3.04992,3.4587 4.5,5.25 3.62518,4.47826 6.9125,9.23437 9.85,14.2 1.17594,1.9875 2.29019,3.99746 3.35,6.05 2.11778,4.10262 4.01754,8.33144 5.65,12.65 0.81704,2.16035 1.55962,4.34688 2.25,6.55 0.34485,1.10109 0.68744,2.18957 1,3.3 0.0843,0.29885 0.16806,0.60051 0.25,0.9 0.78238,2.8595 1.4368,5.7416 2,8.65 0.0357,0.18483 0.0652,0.36501 0.1,0.55 0.003,0.0161 -0.003,0.0339 0,0.05 0.20962,1.11707 0.42346,2.27744 0.6,3.4 0.35843,2.27758 0.63048,4.55562 0.85,6.85 0.10971,1.14712 0.22563,2.3 0.3,3.45 -1.54,0.06 -4.63,0.11 -6.15,0.15 4.8,7.8 8.38,17.2 5.6,26.4 -2.18,9.34 -4.36,18.79 -8.1,27.65 -1.38,3.38501 -2.90382,6.66563 -4.6,9.9 -0.007,0.0132 0.007,0.0368 0,0.05 -0.30144,0.57427 -0.63899,1.1309 -0.95,1.7 -1.10302,2.01837 -2.28002,4.00027 -3.5,5.95 -0.3653,0.58379 -0.72453,1.17269 -1.1,1.75 -0.008,0.0119 0.008,0.0381 0,0.05 -1.98453,3.04907 -4.14421,5.99514 -6.4,8.85 -0.008,0.0104 0.008,0.0396 0,0.05 -3.38989,4.28731 -7.05794,8.31387 -11,12.1 -2.64077,2.53899 -5.38778,4.96448 -8.25,7.25 -1.42702,1.13906 -2.87203,2.22813 -4.35,3.3 -4.4325,3.21563 -9.10618,6.13968 -13.95,8.7 -1.61475,0.85344 -3.24499,1.67499 -4.9,2.45 -0.68,7.6 -1.78,15.13 -2.1,22.75 8.05632,-2.93501 15.80112,-6.65974 23.15,-11.05 1.83813,-1.10125 3.66317,-2.26618 5.45,-3.45 1.78859,-1.18266 3.56563,-2.38813 5.3,-3.65 3.46594,-2.52563 6.81499,-5.23 10.05,-8.05 0.8056,-0.70366 1.61285,-1.42712 2.4,-2.15 0.79613,-0.7315 1.62294,-1.49939 2.4,-2.25 0.77701,-0.75064 1.54229,-1.48077 2.3,-2.25 2.26464,-2.29874 4.46123,-4.69496 6.55,-7.15 0.008,-0.01 -0.008,-0.0401 0,-0.05 1.39738,-1.64333 2.73344,-3.29203 4.05,-5 1.31634,-1.70821 2.61616,-3.43141 3.85,-5.2 2.46821,-3.53666 4.77149,-7.19755 6.9,-10.95 2.1279,-3.75306 4.07491,-7.61538 5.85,-11.55 2.66355,-5.90101 4.91718,-11.98672 6.75,-18.2 2.44282,-8.28531 4.12501,-16.8 5,-25.4 17.74,-0.04 35.51,-0.02 53.25,0 0.09,6.91499 -0.0697,13.82938 -0.05,20.75 5e-5,0.0166 -5e-5,0.0334 0,0.05 0.007,2.29027 0.0355,4.61158 0.1,6.9 0.045,1.18 0.10374,2.37125 0.25,3.6 0.002,0.0165 -0.002,0.0335 0,0.05 0.29458,2.44117 0.89614,4.90571 2.2,6.9 0.32813,0.50187 0.7261,0.95984 1.15,1.4 0.20398,0.20995 0.42165,0.4064 0.65,0.6 0.23816,0.2019 0.48374,0.4175 0.75,0.6 0.3675,0.31374 0.75454,0.60843 1.15,0.85 0.39539,0.24171 0.78298,0.42718 1.2,0.6 0.0135,0.006 0.0364,-0.006 0.05,0 0.0971,0.0396 0.20197,0.064 0.3,0.1 0.73067,0.26837 1.48502,0.47312 2.25,0.55 0.86742,0.0862 1.78291,0.0377 2.65,-0.1 0.44109,-0.0716 0.91851,-0.17515 1.35,-0.3 0.84955,-0.24683 1.67355,-0.61485 2.45,-1.05 0.39352,-0.22203 0.78485,-0.43406 1.15,-0.7 0.36546,-0.26653 0.71918,-0.59275 1.05,-0.9 0.98179,-0.91187 1.83264,-1.98432 2.4,-3.2 0.006,-0.0141 -0.006,-0.0359 0,-0.05 0.047,-0.10194 0.10653,-0.19626 0.15,-0.3 0.2989,-0.72134 0.4901,-1.50054 0.6,-2.3 1.68,-11.26 0.4,-22.71 0.8,-34.05 27.6,-0.14 55.2,0.22 82.8,-0.2 -0.18,4.93374 -0.50776,9.8377 -0.95,14.75 -0.66291,7.36835 -1.61403,14.71054 -2.85,22 -0.82464,4.85981 -1.77773,9.73875 -2.85,14.55 -0.53571,2.40552 -1.10352,4.75867 -1.7,7.15 -1.1939,4.7829 -2.51722,9.58195 -3.95,14.3 -0.71586,2.3589 -1.42555,4.65936 -2.2,7 -0.005,0.0151 0.005,0.0349 0,0.05 -7.7433,23.3903 -18.45294,45.87717 -31.65,66.7 -2.64109,4.16722 -5.35787,8.26811 -8.2,12.3 -1.42106,2.01594 -2.87976,3.96992 -4.35,5.95 -0.008,0.0108 0.008,0.0392 0,0.05 -7.34461,9.8888 -15.33307,19.30741 -23.85,28.2 -0.008,0.009 0.008,0.0412 0,0.05 -0.84042,0.87728 -1.69866,1.73333 -2.55,2.6 -0.87626,0.89203 -1.76226,1.76938 -2.65,2.65 -3.49202,3.464 -7.08392,6.86923 -10.75,10.15 -4.80374,4.36125 -9.71674,8.52587 -14.8,12.55 -0.0183,0.0145 -0.0317,0.0355 -0.05,0.05 -3.37125,2.6675 -6.81515,5.2843 -10.3,7.8 -3.50304,2.52896 -7.08978,4.97749 -10.7,7.35 -3.61107,2.37294 -7.23904,4.63632 -10.95,6.85 -0.0196,0.0117 -0.0304,0.0383 -0.05,0.05 -0.76139,0.45395 -1.53459,0.90282 -2.3,1.35 -1.75469,1.02565 -3.5248,2.01022 -5.3,3 -3.1075,1.73261 -6.23288,3.42858 -9.4,5.05 -15.38696,7.87742 -31.4443,14.40634 -47.95,19.55 -4.12643,1.28592 -8.27238,2.49219 -12.45,3.6 -4.17762,1.10781 -8.37867,2.1232 -12.6,3.05 -4.22133,0.9268 -8.44246,1.75712 -12.7,2.5 -4.47451,0.78075 -8.99397,1.47568 -13.5,2.05 -4.06904,0.51862 -8.11202,0.9523 -12.2,1.3 -4.3075,0.36637 -8.62875,0.62626 -12.95,0.8 -0.22,-18.4 -0.07,-36.77 -0.15,-55.15 2.23,-0.08 4.49094,-0.0516 6.75,0 2.26187,0.0506 4.54,0.11 6.8,0.1 2.25626,-0.009 4.47843,-0.0891 6.7,-0.35 1.12667,-0.13234 2.23842,-0.31562 3.35,-0.55 1.08021,-0.22778 2.18792,-0.50254 3.25,-0.85 1.01,-0.42 1.89254,-0.97742 2.65,-1.65 1.13619,-1.00886 1.98224,-2.2763 2.55,-3.65 1.14104,-2.76077 1.15646,-5.99971 0,-8.75 -0.19077,-0.4575 -0.4461,-0.87437 -0.7,-1.3 -0.7665,-1.28704 -1.80382,-2.37131 -3.15,-3.2 -0.4432,-0.27563 -0.89374,-0.5425 -1.4,-0.75 -0.5375,-0.17875 -1.0576,-0.35411 -1.6,-0.5 -1.62722,-0.43768 -3.28758,-0.70336 -4.95,-0.9 -2.21656,-0.26219 -4.44875,-0.34626 -6.7,-0.35 -3.37688,-0.006 -6.78472,0.17082 -10.15,0.2 -1.12149,0.01 -2.2375,-0.015 -3.35,-0.05 -0.04,-11.12 -0.055,-22.23501 -0.05,-33.35 0.008,-11.11501 0.03,-22.23 0,-33.35 -6.66,6.22 -14.56,10.71 -22.5,15.05 -0.06,17.22 -0.01,34.43 -0.05,51.65 -10,0.42 -20.34,-1.37 -30.1,1.35 -8.64,2.82 -9.09,16.02 -0.75,19.5 9.92,3.14 20.59,1.17 30.85,1.65 0.1,18.34 -0.2,36.69 0.2,55.05 -30.46,-0.1 -60.68,-6.33 -89.5,-15.95 -11.32,12.42 -21.01,26.18 -31.25,39.5 73.88,30.52 158.25,34.84 234.75,11.6 75.58,-22.56 143.17,-71.74 187.05,-137.4 45.9,-66.26 66.43,-149.1 58.75,-229.2 -3.32,-37 -13.06,-73.34 -27.8,-107.4 -17.06,-39.08 -41.85,-74.49 -71.35,-105.15 -24.8,-24.36 -52.96,-45.31 -83.5,-61.95 -7.82,13.86 -14.87,28.15 -22.45,42.15 41.54,23.12 77.82,55.8 104.1,95.5 30.96125,45.66688 48.59163,100.25378 50.7,155.35 0.068,1.7773 0.16437,3.57187 0.2,5.35 -27.78,0.06 -55.54,-0.04 -83.3,0 -0.12499,-2.56499 -0.11594,-5.15062 -0.05,-7.75 0.19781,-7.79813 0.72,-15.64501 -1.65,-23.1 -3.4,-7.96 -15.78,-8.03 -19.2,-0.05 -2.8,8.6975 -1.6041,17.99266 -1.6,27.05 5.9e-4,1.2939 -0.0375,2.5675 -0.1,3.85 -17.66,0 -35.29,0.05 -52.95,-0.05 -2.92,-44.82 -28.9,-87.33 -67.9,-109.75 5.62,-15.72 10.77,-31.6 16.75,-47.2 7.66,-0.62 15.3,-1.6 23,-2.1 2.22,-5.68 4.54,-11.32 7,-16.9 -2.32,-2.38 -4.69,-4.75 -7.05,-7.05 -2.56,6.74 -5.47,13.34 -8.45,19.9 -4.14,-1.48 -8.26,-2.9575 -12.35,-4.6 -1.0225,-0.41062 -2.03766,-0.81653 -3.05,-1.25 -3.03702,-1.30043 -6.05501,-2.7025 -8.95,-4.3 -4.42,-2.46 -5.73,-7.75 -8.45,-11.65 -2.54,0.23 -5.0825,1.25 -7.65,1.85 -0.96282,0.22499 -1.94541,0.40114 -2.9,0.45 -1.59099,0.0814 -3.15626,-0.18125 -4.7,-1.05 -7.1,-3.22 -14.05,-6.79 -21.25,-9.75 1.96,-5.36 3.64,-11.22 8.1,-15.1 0.3025,-0.3475 0.6123,-0.66242 0.95,-1 2.36387,-2.36304 5.35,-4.6275 5.35,-8.25 0.78,-5.44 -3.76,-10.59 -9,-11.45 -9.24,-1.52 -18.63,-0.5 -27.95,-0.7 -0.04,-21.02 0.15,-42.05 -0.05,-63.05 21.28,0.48 42.38,4.03 63,9.15 5.86,-14.58 10.89,-29.45 16.45,-44.15 -30.29125,-7.31501 -61.4991,-11.27608 -92.65,-10.95 z m 13.3,131.55 c 5.22,0 10.46,-0.04 15.7,0 -0.86,3.48 -1.8,6.92 -3,10.3 4.38,6.32 11.2,10.76 14.9,17.5 -6.1,16.2 -15.07,31.16 -22.65,46.7 -0.98,2.26 -2.6,4.14 -4.5,5.7 -1.12,-26.7 -0.17,-53.48 -0.45,-80.2 z"
       id="path38"
       inkscape:connector-curvature="0" />
    <path
       d="m 733.84,310.2 c 1.44,0.3 4.3,0.92 5.72,1.22 -6.64,14.4 -13.02,28.92 -19.54,43.4 -1.34,-0.52 -4,-1.56 -5.32,-2.06 6.26,-14.24 12.64,-28.44 19.14,-42.56 z"
       id="path40"
       inkscape:connector-curvature="0"
       style="fill:#f5e5c1" />
    <path
       d="m 576.5,526.7 c 5.4,-4.5 15.72,-0.14 15.28,7.22 0.92,6.88 -8.3,7.92 -12.68,4.96 -4.7,-1.72 -6.56,-8.92 -2.6,-12.18 z"
       id="path52"
       inkscape:connector-curvature="0"
       style="fill:#f4722b" />
    <path
       d="m 512.92,538.84 c 9.96,-4.2 20.6,-7.86 31.58,-6.14 3.1,4.1 7.36,7.98 7.9,13.4 -1.06,7.98 -6.92,14.42 -13.18,19 -8.92,6.14 -19.32,-1.1 -28.98,-0.42 -2.94,-3.16 -7.04,-6.06 -7.44,-10.7 -0.96,-6.72 4.72,-12.18 10.12,-15.14 z"
       id="path54"
       inkscape:connector-curvature="0"
       style="fill:#f4722b" />
    <path
       style="fill:#f4722b"
       d="m 484.7,574.8 c -6.16,0.68 -12.57,0.98 -18.35,3.4 -9.12,4.84 -14.85,16.56 -10.85,26.5 2.7,7.34 10.48,10.32 16.1,15 -9.14,1.58 -18.35,2.52 -27.45,4.2 -3.94,-5.34 -8,-10.84 -13.8,-14.3 -5.22,-3.48 -11.66,-3.73 -17.7,-4.15 -10.6,0.34 -17.48,8.94 -23,16.9 -0.42,0.84 -1.23,2.51 -1.65,3.35 -3.94,6.78 -4.72,15.13 -1.8,22.45 1.1,2.4 2.31,4.77 3.45,7.15 4.08,3.94 9.36,6.04 14.5,8.2 4.84,1.62 5.81,7.24 7.85,11.3 -7.44,1.06 -14.88,2.02 -22.2,3.7 -7.44,2.4 -14.8,5.51 -21.2,10.05 -5.42,3.56 -2.89,11.17 -6.15,15.95 -6.78,1.58 -13.94,1.14 -20.6,3.3 -8.04,2.36 -15.24,6.69 -22.5,10.75 -9.5,4.68 -19.39,8.69 -28.15,14.75 -4.48,3.08 -9.06,6.06 -14,8.4 -9.36,4.28 -17.95,10.38 -28.05,12.9 -9.3,2.38 -18.31,5.66 -27.25,9.1 -10.14,4.02 -21.16,5.76 -30.6,11.5 -13.12,7.64 -28,11.6 -41.1,19.3 -13.98,6.18 -26.78,14.69 -41,20.35 C 73.18,830.01 36.24,842.79 0,857.45 l 0,5.3 c 41.5,-15.86 84.86,-26.9 125.2,-45.8 15.1,-8.4 30.72,-15.87 46.4,-23.15 13.38,-4.28 25.05,-12.58 38.55,-16.5 15.08,-4.14 29.44,-10.44 44.6,-14.3 9.14,-2.6 17.11,-7.96 25.65,-11.9 5.44,-2.6 10.45,-5.91 15.35,-9.35 7.44,-5.3 15.97,-8.79 23.95,-13.15 10.26,-5.16 20.33,-12.19 32.25,-12.25 6.7,-0.58 13.22,1.67 19.9,1.55 0.3075,-0.5175 0.58282,-1.04949 0.85,-1.6 0.80157,-1.6507 1.49,-3.4 2.3,-5.05 0.26354,-0.53744 0.54651,-1.09374 0.85,-1.6 0.007,-0.0116 -0.007,-0.0385 0,-0.05 0.31219,-0.5177 0.67499,-0.98171 1.05,-1.45 0.19528,-0.24362 0.38342,-0.47314 0.6,-0.7 0.40725,-0.42659 0.85266,-0.84443 1.35,-1.2 0.25395,-0.18163 0.51875,-0.34 0.8,-0.5 1.55501,-1.04499 3.10906,-2.11094 4.7,-3.15 1.26851,-0.82822 2.54062,-1.64267 3.85,-2.4 0.3289,-0.19075 0.66789,-0.366 1,-0.55 0.0195,-0.0108 0.0305,-0.0393 0.05,-0.05 1.65875,-0.91626 3.34157,-1.72344 5.1,-2.4 0.85968,-0.33077 1.76082,-0.59733 2.65,-0.85 0.9296,-0.26416 1.834,-0.48645 2.8,-0.65 3.19,-0.47 6.45219,-0.88 9.7,-1.35 2.96426,-0.42896 5.93667,-0.9639 8.85,-1.6 0.43035,-0.0943 0.87195,-0.1487 1.3,-0.25 1.4367,-0.33885 2.84662,-0.71672 4.25,-1.15 1.55067,-0.47875 3.05485,-1.02501 4.55,-1.65 2.99032,-1.25 5.87499,-2.82 8.55,-4.85 2.01,-2.09 4.2275,-2.15501 6.45,-1.45 2.2225,0.70501 4.46,2.19 6.5,3.1 4.97,-0.61 9.9575,-1.12 14.95,-1.6 4.9925,-0.48 9.97,-0.94 14.95,-1.55 9.96,-0.46 7.12,-13.66 7.1,-20.4 1.92,0.38 3.86,0.71 5.8,1.05 2.34,-0.76 4.02,-0.12 5,1.8 -0.7,2.68 -2.36,3.38 -4.9,2.2 -2.3,7.5 -8.2,14.52 -6.2,22.8 1.4,8 8.56,12.77 15.1,16.45 -2.7,1.2 -5.44,2.37 -8.1,3.65 -0.8025,0.34 -1.57328,0.75829 -2.3,1.2 -0.72618,0.44282 -1.43157,0.93 -2.1,1.45 -4.00195,3.10669 -7.13565,7.38666 -11.4,10.05 -1.20374,0.3975 -2.24806,0.46632 -3.15,0.3 -0.90251,-0.16632 -1.67622,-0.57754 -2.35,-1.15 -0.23402,-0.19909 -0.43774,-0.41464 -0.65,-0.65 -0.0866,-0.095 -0.16662,-0.19976 -0.25,-0.3 -0.35147,-0.42254 -0.64686,-0.90466 -0.95,-1.4 -0.13486,-0.22194 -0.2725,-0.41846 -0.4,-0.65 -0.3104,-0.55992 -0.6197,-1.16256 -0.9,-1.75 -0.01,-0.0203 -0.0404,-0.0297 -0.05,-0.05 -0.15131,-0.318 -0.25291,-0.63389 -0.4,-0.95 -0.13259,-0.28538 -0.26829,-0.57166 -0.4,-0.85 -0.27886,-0.58976 -0.56,-1.12501 -0.85,-1.65 -0.15675,-0.38594 -0.35379,-0.79194 -0.55,-1.15 -0.0111,-0.0199 -0.0388,-0.0302 -0.05,-0.05 -0.62008,-1.11562 -1.4148,-2.07264 -2.35,-2.9 -0.3157,-0.27813 -0.65666,-0.55616 -1,-0.8 -1.0167,-0.72024 -2.16053,-1.29682 -3.35,-1.7 -0.0149,-0.005 -0.0351,0.005 -0.05,0 -1.19026,-0.39891 -2.44251,-0.64064 -3.7,-0.7 -0.0163,-7.4e-4 -0.0336,6.9e-4 -0.05,0 -2.1232,-0.0926 -4.2375,0.2875 -6.15,1.25 -6.75,2.5375 -11.42187,9.32637 -12.25,16.4 -0.24843,2.1221 -0.13563,4.28526 0.35,6.35 0.48563,2.06474 1.3375,4.0575 2.65,5.85 0.27125,0.2675 0.54992,0.50875 0.85,0.75 0.3089,0.24989 0.61686,0.47275 0.95,0.7 1.29024,0.88016 2.74038,1.60109 4.15,2.35 1.0572,0.56168 2.11667,1.1491 3.05,1.8 0.63312,0.44154 1.18712,0.91346 1.7,1.45 0.99928,1.04536 1.74315,2.29986 2,3.95 0.003,0.0163 -0.003,0.0337 0,0.05 0.0603,0.40258 0.0976,0.84973 0.1,1.3 4.56,1.42 9.1,2.74 13.7,4 2.72,-1.1 5.45,-2.3 8.35,-2.9 5.1,2.79374 8.51773,8.32963 14.2,10.15 0.0147,0.005 0.0353,-0.005 0.05,0 0.36472,0.11534 0.76568,0.21714 1.15,0.3 2.67374,0.68626 5.37528,1.01586 8.05,1.05 2.67586,0.0341 5.33531,-0.2172 7.95,-0.75 1.74195,-0.3552 3.45875,-0.82437 5.15,-1.4 1.6925,-0.57563 3.32688,-1.27918 4.95,-2.05 0.81098,-0.38541 1.60984,-0.77053 2.4,-1.2 0.7907,-0.42947 1.5825,-0.87962 2.35,-1.35 1.53406,-0.94078 3.02242,-1.9645 4.45,-3.05 1.42758,-1.0855 2.7975,-2.24499 4.1,-3.45 3.96,-5.66 7.65,-13.66 16.05,-11.7 4.02,-2.18 8.02,-4.39 12,-6.65 1.56,4.48 3.21,8.93 4.95,13.35 l -1.3,0.75 c -6.2,4.78 -11.03,13.59 -20.25,10.85 -4.04,0 -11.46,-0.99 -11.8,4.75 -0.06,0.2975 -0.0897,0.58069 -0.1,0.85 -0.0102,0.26938 0.0149,0.50638 0.05,0.75 0.13968,0.9739 0.62032,1.74485 1.3,2.4 0.55936,0.53917 1.25549,0.98334 2,1.4 0.16016,0.0896 0.28586,0.21366 0.45,0.3 0.0131,0.007 0.0369,-0.007 0.05,0 1.37987,0.72278 2.88549,1.37726 4,2.15 -0.56374,1.09499 -1.19059,2.10798 -1.85,3.1 -0.008,0.0116 0.008,0.0384 0,0.05 -1.3132,1.97021 -2.82882,3.76083 -4.45,5.4 -1.6307,1.64918 -3.40179,3.13363 -5.25,4.55 -1.84821,1.41637 -3.77867,2.76426 -5.75,4.05 -4.92832,3.21282 -10.08437,6.18555 -14.75,9.7 -1.86626,1.40626 -3.64094,2.91672 -5.3,4.55 -0.82026,0.80874 -1.64786,1.6168 -2.4,2.5 -0.008,0.009 0.008,0.0407 0,0.05 -0.75082,0.88354 -1.47875,1.82958 -2.15,2.8 2.52,0.2775 5.05989,0.35976 7.55,0.15 1.66008,-0.13984 3.30867,-0.40766 4.9,-0.85 0.7805,-0.21696 1.544,-0.49795 2.3,-0.8 0.25179,-0.10152 0.5013,-0.2384 0.75,-0.35 1.28429,-0.57226 2.51451,-1.23514 3.7,-2.1 -0.2,1.38 -0.6,4.12 -0.8,5.5 0.7025,-0.14 1.40149,-0.34109 2.05,-0.55 0.64851,-0.20891 1.25016,-0.42886 1.85,-0.7 3.61179,-1.63136 6.37523,-4.31715 8.9,-7.35 0.83042,-0.9975 1.6544,-2.0053 2.45,-3.05 0.008,-0.0105 -0.008,-0.0395 0,-0.05 0.80344,-1.05539 1.58938,-2.10032 2.4,-3.15 0.81885,-1.05925 1.63051,-2.10125 2.5,-3.1 0.42194,-0.48573 0.8585,-0.93814 1.3,-1.4 0.008,-0.008 -0.008,-0.0416 0,-0.05 0.45054,-0.47032 0.92374,-0.91125 1.4,-1.35 5.64,-5.44 10.76,-11.36 16.3,-16.9 0.58374,0.4825 1.18979,0.9041 1.8,1.3 1.22043,0.79181 2.48989,1.41187 3.8,1.9 1.31011,0.48813 2.67176,0.85858 4.05,1.1 1.37824,0.24142 2.7752,0.34835 4.2,0.4 6.41162,0.23243 13.19626,-1.16125 19.35,-1.6 -4.02,-2.96 2.83,-4.88 1.75,-0.3 0.0325,0.64499 0.12434,1.28171 0.25,1.95 0.56179,3.00726 1.84158,6.21077 1.75,9.15 -0.0371,1.29246 -0.35955,2.54357 -1.1,3.7 -0.008,0.0124 0.008,0.0376 0,0.05 -0.18477,0.28069 -0.41034,0.58022 -0.65,0.85 -1.24499,1.75 -2.52094,3.46344 -3.8,5.2 -1.92282,2.59922 -3.83758,5.2252 -5.65,7.9 -0.60238,0.89395 -1.22672,1.78797 -1.8,2.7 -0.58246,0.92248 -1.10667,1.85322 -1.65,2.8 -0.53582,0.93488 -1.06,1.8375 -1.55,2.8 -1.03,1.8 -1.1025,3.77 -0.9,5.75 0.15187,1.48501 0.45206,2.98187 0.65,4.45 0.066,0.48938 0.12,0.97 0.15,1.45 -1.2,0.9425 -2.32371,1.95626 -3.4,3 -0.52947,0.51386 -1.04653,1.06496 -1.55,1.6 -2.55725,2.71835 -4.79843,5.6625 -6.9,8.75 -3.3625,4.94 -6.38,10.19 -9.75,15.1 -4.65501,5.49 -9.42219,10.8625 -14.25,16.2 -4.83062,5.33563 -9.72,10.6075 -14.6,15.9 -4.88459,5.30402 -9.7415,10.62835 -14.55,16 -2.40157,2.68032 -4.79133,5.33179 -7.15,8.05 -2.36621,2.72803 -4.69202,5.47038 -7,8.25 -10.74,12.54 -19.77,26.42 -29.85,39.5 -13.42,19.42 -30.02,36.69 -41.3,57.55 8.02,0.14 12.69,-7.15 17.85,-12.15 11.32,-13.48 22.61,-27.01 33.25,-41.05 10.24,-13.32 19.93,-27.08 31.25,-39.5 4.07214,-5.01034 8.4209,-9.81667 12.75,-14.6 0.008,-0.009 -0.008,-0.0408 0,-0.05 2.16045,-2.38709 4.36208,-4.7441 6.5,-7.15 0.008,-0.009 -0.008,-0.0407 0,-0.05 2.14594,-2.41531 4.28501,-4.81499 6.35,-7.3 11.05,-11.52499 21.32382,-23.74902 31.95,-35.65 6.3757,-7.14059 12.88,-14.1675 19.75,-20.85 1.01566,-1.11598 1.95846,-2.29438 2.8,-3.55 0.4956,-0.75072 0.94704,-1.53661 1.35,-2.35 0.68501,-1.09501 1.00374,-2.22718 1.05,-3.35 0.0236,-0.56046 -0.0179,-1.0855 -0.1,-1.65 -0.24578,-1.68198 -0.90022,-3.41194 -1.45,-5.1 -0.005,-0.0153 0.005,-0.0347 0,-0.05 -0.17938,-0.55229 -0.3561,-1.10046 -0.5,-1.65 -0.004,-0.0159 0.004,-0.0341 0,-0.05 -0.1464,-0.56472 -0.2775,-1.09 -0.35,-1.65 0.53501,-0.90501 1.1475,-1.74469 1.85,-2.5 0.7025,-0.75531 1.49,-1.44875 2.3,-2.1 1.62,-1.3025 3.41,-2.44 5.1,-3.6 7.94,-4.34 15.84,-8.83 22.5,-15.05 3.76,-6.04 7.04,-12.4 11.5,-18 2.22,-5.54 3.51,-11.41 5.15,-17.15 0.28,5.62 0.47,11.26 0.55,16.9 0.3,10.44 0.13,20.93 -1.75,31.25 -0.52,3.16 -1.31,8.34 2.85,9.3 8.62,1.96 13.88,-7.06 16.8,-13.7 5.02,-10.34 4.02,-21.94 3.1,-33 0.32,-7.62 1.42,-15.15 2.1,-22.75 -1.72,-3.44 -3.32,-7.69 -7.2,-9.15 -6.14,-2.1 -12.73,-2.87 -18.55,-5.85 1.3,-2.28 2.62,-4.6 3.9,-6.9 0.4,-4.64 -1.17,-8.98 -2.85,-13.2 -4.38,0.52 -8.73,1.3 -12.75,3.2 4.1,2.72 -2.39,5.42 -1.65,0.6 -0.22,-1.08 -0.66,-3.22 -0.9,-4.3 -6.6,-5.62 -14.21,-10.36 -22.85,-11.9 -3.18,-0.12 -6.37,-0.12 -9.55,-0.1 1.5,-4.12 3.01,-8.28 4.45,-12.4 1.74,0.3 3.46,0.67 5.2,1.05 7.54,1.82 14.87,4.45 22.45,6.15 7.76,2.64 12.24,-5.32 17.5,-9.4 6.48,-6.3 15.3,-8.88 22.8,-13.6 1.16,-6.02 -0.25,-12.12 -2.15,-17.8 -4.58,-7.8 -12.02,-13.46 -20.7,-15.9 -3.62,9.14 -7.28,18.32 -10.3,27.7 -22.9,-9.44 -44.86,-21.06 -67.5,-31.1 6.12,-15.8 14.86,-30.42 21.9,-45.8 -7.38,-3 -14.99,-5.44 -22.85,-6.8 -4.96,-0.66 -9.92,-1.07 -14.9,-1.15 -16.22,0.4 -32.25,5.29 -45.45,14.85 -0.58,0.38 -1.7,1.12 -2.3,1.5 1.22,-3.62 3.78,-7.14 3.1,-11.1 -2.76,-4.22 -8.22,-4.7 -12.7,-5.7 z m 22.65,81.15 c 1.76,2.18 1.92,5.01 2.5,7.65 -0.88,0.04 -2.64,0.11 -3.5,0.15 0.28,-2.62 0.62,-5.2 1,-7.8 z M 525,695.2 c 3.1,0.34 3.49,7.98 -0.85,7.1 -3.14,-1.16 -0.49,-5.42 0.85,-7.1 z"
       id="path60"
       inkscape:connector-curvature="0" />
    <path
       d="m 307.4,587.05 c -14.4,2.66 -29.21,1.07 -43.55,2.45 -4.02,27.74 -4.02,56.16 -0.8,84 8.96,3.7 15.81,12.59 15.85,22.45 -0.06,5.9 -4.41,11.31 -10.35,12.05 2.02,11.46 5.47,22.52 8.65,33.7 4.94,-2.34 9.52,-5.32 14,-8.4 8.76,-6.06 18.65,-10.07 28.15,-14.75 -0.9,-0.14 -2.73,-0.44 -3.65,-0.6 -5.08,-23 -10.67,-46.15 -10.75,-69.85 20.32501,0.27 40.63344,0.24563 60.95,0.15 6.77219,-0.0319 13.53,-0.05 20.3,-0.1 -2.92,-7.32 -2.14,-15.67 1.8,-22.45 -27.86,0 -55.76,0.06 -83.6,0 0.22,-12.94 1.44,-25.83 3,-38.65 z"
       id="path64"
       style="fill:#f5e5c1"
       inkscape:connector-curvature="0" />
    <path
       d="m 390.86,596.22 c 1.88,-6.66 10.88,-9.94 16.34,-5.42 4.82,3.26 4.52,9.56 5.44,14.66 -10.6,0.34 -17.48,8.94 -23,16.9 0.52,-8.7 -0.92,-17.58 1.22,-26.14 z"
       id="path66"
       inkscape:connector-curvature="0"
       style="fill:#f5e5c1" />
    <path
       d="m 696.06,614.38 c 9.3,-0.02 17.72,4.72 23.98,11.38 4.8,7.8 8.38,17.2 5.6,26.4 -10.32,3.24 -20.5,7.02 -31.18,8.96 -4.96,0.84 -9.92,1.7 -14.9,2.36 -3.08,0.24 -6.14,0.18 -9.18,-0.22 -3.3,-4.32 -4.52,-9.78 -5.68,-14.98 -0.14,-7.78 2.06,-15.4 6.32,-21.9 3.62,-3.58 7.74,-6.62 12.12,-9.22 4.18,-1.44 8.52,-2.38 12.92,-2.78 z"
       id="path68"
       inkscape:connector-curvature="0"
       style="fill:#f4722b" />
    <path
       d="m 160.54,642.7 c 5.96,-5.52 15.78,4.18 10.36,10.24 -3.46,4.98 -8.84,0.44 -12.5,-1.68 0.48,-2.86 -0.72,-6.66 2.14,-8.56 z"
       id="path70"
       inkscape:connector-curvature="0"
       style="fill:#f4722b" />
    <path
       d="m 199.7,642.9 c 11.02,-1.62 23.72,-2.86 33.18,4.26 10.2,6.74 15.48,19.66 14,31.66 4.4,-4.1 10.36,-5.14 16.16,-5.32 8.96,3.7 15.84,12.6 15.88,22.46 -0.06,5.9 -4.44,11.28 -10.38,12.02 -6.44,-1.1 -13.56,0.2 -19.52,-2.8 -3.82,-3.68 -5.54,-9.04 -8.78,-13.22 3.34,5.56 7.38,11.34 6.58,18.22 -1.56,6.38 -8.92,8.68 -14.74,7.28 -5.52,-0.7 -7.82,-6.38 -10.54,-10.44 -7.92,0.9 -13.46,8.92 -21.56,8.12 -8.32,-2.46 -16.22,-6.64 -22.88,-12.22 -1.6,3.28 -3.08,7.58 -7.4,7.78 -3.52,0.28 -11.38,2.92 -11.18,-2.82 -0.42,-7.5 9.06,-7.98 14.3,-9.78 -1.1,-3.32 -2.1,-6.68 -3.52,-9.88 -4.22,-0.8 -8.38,1.26 -12.44,2.2 -2.16,3.02 -3.9,8.26 -8.66,7.02 -4.44,-2.52 -8.72,-7.48 -6.86,-12.92 1.86,-8.6 -0.06,-18.24 5.54,-25.72 2.74,-5.96 11.16,-8.4 16.4,-4.3 5.36,3.9 -2.88,6.2 -5.48,8.88 3.78,-0.28 8.5,1.26 11.34,-2.1 8.6,-8.26 18.22,-16.9 30.56,-18.38 z"
       id="path72"
       inkscape:connector-curvature="0"
       style="fill:#f4722b" />
    <path
       d="m 128.82,657.06 c 4.84,-1.48 13.12,0.56 12.28,6.98 -2.58,3.84 -4.94,8.36 -9.12,10.68 -9.54,0.46 -12.26,-14.62 -3.16,-17.66 z"
       id="path82"
       inkscape:connector-curvature="0"
       style="fill:#f4722b" />
    <path
       d="m 389.66,655.28 c 4.08,3.94 9.34,6.06 14.48,8.22 4.84,1.62 5.84,7.26 7.88,11.32 -7.44,1.06 -14.92,1.98 -22.24,3.66 -0.12,-7.74 0.1,-15.48 -0.12,-23.2 z"
       id="path84"
       inkscape:connector-curvature="0"
       style="fill:#f5e5c1" />
    <path
       d="m 486.96,662.94 c 1.92,0.38 3.84,0.74 5.78,1.08 0.04,1 0.1,3 0.12,4 -2.3,7.5 -8.22,14.5 -6.22,22.78 1.4,8 8.56,12.76 15.1,16.44 -2.7,1.2 -5.42,2.4 -8.08,3.68 -5.56,-8.68 -10.42,-17.82 -13.8,-27.58 9.96,-0.46 7.12,-13.66 7.1,-20.4 z"
       id="path88"
       inkscape:connector-curvature="0"
       style="fill:#f5e5c1" />
    <path
       d="m 679.56,663.48 c 4.98,-0.66 9.94,-1.52 14.9,-2.36 -8.16,27.54 -30.48,50.06 -57.76,58.9 0.4,-4.64 -1.18,-9 -2.86,-13.22 20.86,-6.32 37.5,-23.42 45.72,-43.32 z"
       id="path90"
       inkscape:connector-curvature="0"
       style="fill:#f5e5c1" />
    <path
       d="m 107.88,667.94 c 4.4,-1.68 9.68,-5.32 14.26,-2.24 -0.42,4.56 -5.3,5.86 -8.66,7.84 -16.52,8.64 -35.02,12.06 -52.62,17.78 -12.66,4.2 -25.78,6.74 -38.72,9.98 -7.4,2.16 -14.46,5.52 -22.14,6.74 l 0,-5.82 C 21.94,693.2 45.34,689 67.72,681.42 81.1,676.9 95.3,674.62 107.88,667.94 z"
       id="path92"
       inkscape:connector-curvature="0"
       style="fill:#f4722b" />
    <path
       d="m 595.8,682.94 c 7.54,1.82 14.88,4.46 22.46,6.16 -0.04,5.72 -0.16,11.46 0.28,17.2 -6.6,-5.62 -14.2,-10.38 -22.84,-11.92 0.02,-3.82 0.04,-7.64 0.1,-11.44 z"
       id="path100"
       inkscape:connector-curvature="0"
       style="fill:#f5e5c1" />
    <path
       d="m 152.66,698.62 c 2.38,-0.06 4.74,-0.1 7.1,-0.12 0.3,4.4 -2.58,7.58 -7.1,7.1 0,-2.34 0,-4.66 0,-6.98 z"
       id="path104"
       inkscape:connector-curvature="0"
       style="fill:#f4722b" />
    <path
       d="m 619.46,710.62 1.62,-0.64 c 4.1,2.72 -2.36,5.46 -1.62,0.64 z"
       id="path106"
       inkscape:connector-curvature="0"
       style="fill:#f5e5c1" />
    <path
       d="m 98.94,726.8 c 4.6,-6.36 13.7,-6.46 20.8,-5.88 10.94,2.78 18.5,12.62 22.7,22.62 1.64,-1.16 3.28,-2.32 4.92,-3.48 -4.82,4.16 -6.58,10.36 -9.6,15.72 -4.04,6.38 -12,7.56 -18.76,9.08 -4.5,5.72 -11.46,9.04 -18.8,7.94 -10.54,-1.76 -19.56,4.72 -28.7,8.78 C 48.52,791.76 22.66,793.16 0,804.2 l 0,-7.26 c 7.66,-3.76 15.62,-7.08 23.98,-8.84 19.58,-3.48 38.34,-10.42 57.92,-13.94 3.6,-0.8 7.32,-1.48 10.54,-3.36 3.3,-3.34 3.58,-8.32 4.82,-12.6 -2.24,-3.78 -5.8,-7.46 -5.54,-12.14 2.28,-6.46 4.42,-13 7.22,-19.26 z"
       id="path108"
       inkscape:connector-curvature="0"
       style="fill:#f4722b" />
    <path
       d="m 138.44,731.82 c 0.66,-6.22 8.56,-5.14 12.58,-2.98 0,1.08 -0.02,3.26 -0.02,4.34 -4.16,1.34 -9.68,3.2 -12.56,-1.36 z"
       id="path110"
       inkscape:connector-curvature="0"
       style="fill:#f4722b" />
    <path
       d="m 295.76,741.74 c 7.44,-5.3 15.94,-8.8 23.92,-13.16 15.94,48.54 44.94,92.36 82.32,127.04 -8.02,0.1 -16.06,0.62 -24.04,-0.12 -5.74,-1.46 -9.82,-7.24 -16.06,-7.26 -8.88,-1.24 -16.24,5 -21.24,11.6 l 0.52,-1.94 c -26.36,-31.64 -47.12,-67.94 -60.8,-106.82 5.44,-2.6 10.48,-5.9 15.38,-9.34 z"
       id="path112"
       inkscape:connector-curvature="0"
       style="fill:#f5e5c1" />
    <path
       d="m 530.66,748.76 c 3.96,-5.66 7.64,-13.68 16.04,-11.72 5.16,2.58 10.26,5.34 15.66,7.46 -6.2,4.78 -11.06,13.58 -20.28,10.84 -3.98,-1.9 -7.72,-4.26 -11.42,-6.58 z"
       id="path116"
       inkscape:connector-curvature="0"
       style="fill:#f5e5c1" />
    <path
       d="m 595.04,753.24 c 4.38,-2.78 9.34,-4.46 13.98,-6.76 -1.16,4.18 -0.86,8.46 0.1,12.66 -4.52,-2.22 -9.48,-2.94 -14.48,-2.4 0.1,-0.88 0.3,-2.62 0.4,-3.5 z"
       id="path118"
       inkscape:connector-curvature="0"
       style="fill:#f5e5c1" />
    <path
       d="m 634.88,753.9 c 0.28,5.62 0.48,11.26 0.56,16.9 -1.42,0.06 -4.26,0.18 -5.7,0.24 2.22,-5.54 3.5,-11.4 5.14,-17.14 z"
       id="path122"
       inkscape:connector-curvature="0"
       style="fill:#f5e5c1" />
    <path
       d="m 428.18,762.2 c 4.12,-7 12.94,-5.12 19.66,-4.6 4.92,0.66 11.62,-0.04 13.08,6.06 -3.6,4.74 -2.34,11.26 -5.04,16.16 -5.98,4.78 -12.64,12 -21.12,9.24 -10.18,-3.94 -11.36,-18.4 -6.58,-26.86 z"
       id="path124"
       inkscape:connector-curvature="0"
       style="fill:#f4722b" />
    <path
       d="m 586.88,771.7 c -4.02,-2.96 2.86,-4.9 1.78,-0.32 l -1.78,0.32 z"
       id="path126"
       inkscape:connector-curvature="0"
       style="fill:#f5e5c1" />
    <path
       d="m 325.18,793.32 c 5.44,-4.8 12.78,-0.94 18.48,1.26 0,3.22 -0.7,7.34 -4.44,8.18 -5.18,0.7 -11.1,2.68 -15.9,-0.3 -0.96,-3.1 -1.14,-7.06 1.86,-9.14 z"
       id="path128"
       inkscape:connector-curvature="0"
       style="fill:#f4722b" />
    <path
       d="m 368.86,806.68 c 6.54,-6.3 12.58,5.56 9.3,11.22 -6.38,4.2 -13.56,-5.82 -9.3,-11.22 z"
       id="path132"
       inkscape:connector-curvature="0"
       style="fill:#f4722b" />
    <path
       d="m 402,855.62 c 10.58,-1.34 17.52,-11.3 28.02,-12.78 6.8,-1.26 13.5,6.48 10.24,12.92 -3.98,8.3 -12.18,13.46 -20.06,17.6 -10.32,5.92 -22.52,4.82 -33.92,6.1 -2.74,5.34 -5.96,10.6 -10.88,14.22 -3.44,2.56 -5.94,6.08 -8.1,9.74 -3.86,6.58 -9.9,11.52 -16.16,15.7 -8.86,5.68 -19.94,5.78 -29.02,10.94 -26.22,14.84 -46.34,37.82 -71.16,54.58 -16.9,13.64 -34.52,26.32 -51.86,39.36 l -20.84,0 c 16.18,-15.36 35.24,-27.14 52.36,-41.34 10.36,-8.5 21.6,-15.8 32.08,-24.14 16.88,-14.58 33.9,-29.5 53.6,-40.2 8.3,-4.92 18.08,-5.86 26.96,-9.24 5.32,-2.14 8.18,-7.36 10.46,-12.28 -6.32,1.76 -13.78,6.28 -19.8,1.24 -6.54,-3.96 -5.6,-12.24 -5.44,-18.76 -3.64,-0.26 -7.28,-0.54 -10.9,-0.88 4.32,-2.44 9.08,-3.86 13.78,-5.36 6.14,-1.28 6.84,-8.5 9.3,-13.2 5,-6.6 12.36,-12.84 21.24,-11.6 6.24,0.02 10.32,5.8 16.06,7.26 7.98,0.74 16.02,0.22 24.04,0.12 z"
       id="path134"
       inkscape:connector-curvature="0"
       style="fill:#f4722b" />
    <path
       d="m 386.28,879.46 c 11.4,-1.28 23.6,-0.18 33.92,-6.1 2.94,-0.96 5.3,1.16 7.52,2.68 20.58,15.48 43.42,27.92 67.5,36.98 -10.74,12.54 -19.78,26.42 -29.86,39.5 -32.84,-14.74 -63.14,-34.9 -89.96,-58.84 4.92,-3.62 8.14,-8.88 10.88,-14.22 z"
       id="path136"
       inkscape:connector-curvature="0"
       style="fill:#f5e5c1" />
  </g>
</svg>
