<?xml version="1.0" encoding="UTF-8" standalone="no"?>
<svg
   xmlns:dc="http://purl.org/dc/elements/1.1/"
   xmlns:cc="http://creativecommons.org/ns#"
   xmlns:rdf="http://www.w3.org/1999/02/22-rdf-syntax-ns#"
   xmlns:svg="http://www.w3.org/2000/svg"
   xmlns="http://www.w3.org/2000/svg"
   xmlns:sodipodi="http://sodipodi.sourceforge.net/DTD/sodipodi-0.dtd"
   xmlns:inkscape="http://www.inkscape.org/namespaces/inkscape"
   width="1280"
   height="1280"
   viewBox="0 0 1024 1024"
   version="1.1"
   id="svg2"
   inkscape:version="0.48.1 "
   sodipodi:docname="feign_death_kill.svg">
  <metadata
     id="metadata124">
    <rdf:RDF>
      <cc:Work
         rdf:about="">
        <dc:format>image/svg+xml</dc:format>
        <dc:type
           rdf:resource="http://purl.org/dc/dcmitype/StillImage" />
      </cc:Work>
    </rdf:RDF>
  </metadata>
  <defs
     id="defs122" />
  <sodipodi:namedview
     pagecolor="#ffffff"
     bordercolor="#666666"
     borderopacity="1"
     objecttolerance="10"
     gridtolerance="10"
     guidetolerance="10"
     inkscape:pageopacity="0"
     inkscape:pageshadow="2"
     inkscape:window-width="1920"
     inkscape:window-height="1018"
     id="namedview120"
     showgrid="false"
     inkscape:snap-page="true"
     fit-margin-top="0"
     fit-margin-left="0"
     fit-margin-right="0"
     fit-margin-bottom="0"
     inkscape:zoom="0.6609375"
     inkscape:cx="640"
     inkscape:cy="640"
     inkscape:window-x="-8"
     inkscape:window-y="-8"
     inkscape:window-maximized="1"
     inkscape:current-layer="svg2" />
  <rect
     style="fill:#3e3e3e;fill-opacity:1;fill-rule:nonzero;stroke:none"
     id="rect3124"
     width="1024"
     height="1024"
     x="0"
     y="0" />
  <path
     d="m 436.78,45.18 c 8.36,-2.22 16.46,-6.26 25.26,-5.98 80,3.2 159.98,6.74 239.98,9.68 -56.64,1.84 -113.32,2.94 -169.98,4.58 -9.98,0.4 -20.2,-0.38 -29.9,2.48 -28.7,7.42 -57.48,14.48 -86.18,21.88 -6.46,1.84 -13.22,1.4 -19.86,1.4 -24.26,-0.24 -48.58,1.32 -72.8,0.12 38,-10.74 75.62,-22.88 113.48,-34.16 z"
     id="path6"
     inkscape:connector-curvature="0"
     style="fill:#f5e5c1" />
  <path
     style="fill:#f5e5c1"
     d="m 797.8,55.9 c -43.26,1.4 -86.57,2.64 -129.85,4 -42.04,2.12 -84.03,4.8 -126.05,7.1 -7.36,0.48 -14.83,0.4 -22.05,2.1 -34.6,8.96 -69.2,17.96 -103.8,26.9 -4.32,20.58 -9.12,41.05 -12.9,61.75 4.48,6.78 7.11,14.5 10.15,22 4.8,-9.88 11.53,-18.67 15.95,-28.75 3.24,-7.28 6.85,-14.88 13.75,-19.4 0.76,12.58 1.63,25.22 4.55,37.5 2.78,6.6 5.59,13.32 5.95,20.6 2.08,-8.84 3.84,-17.9 8.1,-26 1.28,-2.54 1.71,-5.41 2.35,-8.15 1.84,-0.76 3.69,-1.49 5.55,-2.25 1.92,-7.96 2.98,-16.19 6,-23.85 4.32,-8.82 15.48,-11.94 24.5,-9.6 20.4,4.34 41.12,7.38 61.1,13.4 17.32,5.18 34.94,11.16 49.5,22.2 17.38,14.12 26.78,36.51 27.3,58.65 -0.5,8.08 -2.58,15.97 -4.7,23.75 -6.38,22.7 -27.58,39.75 -50.7,42.95 5.12,7.84 9.65,16.01 14.45,24.05 4.06,6.8 7.38,15.26 4.2,23.1 -3.12,9.68 -13.77,12.9 -21.75,17.5 -9.8,4.8 -20.06,12.68 -31.6,9.6 -7.28,-1.5 -11.49,-8.18 -14.45,-14.4 -4.06,-8.58 -8.92,-16.71 -12.6,-25.45 -0.94,5.36 -1.49,10.88 -3.75,15.9 -4.26,8.2 -14.4,12.45 -23.3,10.25 -15.14,-3.34 -30.53,-5.68 -45.55,-9.5 -10.12,-2.58 -16.31,-13.99 -13.85,-23.95 6.36,-27.7 12.57,-55.44 18.95,-83.1 1.7,-6.98 -0.04,-14.11 -1,-21.05 -1.5,-1.84 -3.57,-3.33 -4.35,-5.65 -3.06,-17.36 -6.65,-34.64 -8.95,-52.1 -5.5,17.1 -17.04,31.2 -24.5,47.4 -2.3,-0.08 -4.57,-0.12 -6.85,-0.2 -0.52,-7.52 -3.56,-14.56 -7.8,-20.7 -15.02,69.16 -29.53,138.48 -44.35,207.7 10.24,-0.32 20.49,1.72 30.65,-0.5 17.96,-3.64 36.44,0.55 54.4,-2.95 10.54,-1.94 20.98,1.31 31.5,1.55 9.58,0.04 18.5,4.85 28.2,3.85 14.3,-1.16 28.02,3.81 41,9.25 16.88,7.56 34.47,13.59 51.05,21.85 20.12,9.26 39.26,20.63 57.5,33.15 9.78,6.06 15.39,16.5 24.45,23.4 4.7,5.88 12.58,8.14 16.5,14.7 -13.54,-1.46 -27.15,-1.85 -40.75,-1.65 -20.72,0.68 -41.54,-1.05 -62.2,1.15 -20.7,1.58 -41.35,4.23 -61.55,9.15 -14.04,5.32 -28.42,-1.16 -41.9,-5.1 -25.42,-10.24 -53.21,-10.55 -79.95,-14.85 -8.66,-1.48 -17.49,-0.98 -26.15,-2.5 -7.46,-1.3 -14.86,1.13 -22.3,1.45 -5.16,-0.5 -8.32,4.08 -12.1,6.7 2.08,13.08 0.26,27.56 -9.4,37.4 -0.32,4.8 -0.7,9.62 -1.4,14.4 4.76,3.82 10.41,6.04 15.85,8.7 7.76,4.3 8.58,14.07 13.3,20.75 3.88,3.56 9.33,4.96 12.95,8.9 5.94,6.3 14.64,8.96 20.3,15.6 6.14,5.86 7.84,14.97 6.2,23.05 -6.46,35.48 -13.45,70.83 -19.65,106.35 -0.52,15.78 6.53,30.58 9.85,45.8 5.14,-5.64 9.55,-11.92 14.25,-17.9 -3.8,8.82 -9.43,16.82 -12.35,26 0.18,4.1 1.56,8.03 2.7,11.95 6.52,-14 12.3,-28.35 19.5,-42.05 -4.74,20.08 -7.6,40.55 -12.7,60.55 -2.96,9.24 0.46,18.64 3.2,27.5 4.52,-23.88 8.69,-47.92 16.05,-71.1 0.54,0.14 1.66,0.41 2.2,0.55 l -2.9,2.35 c 0.52,7.56 4.55,14.23 7.65,20.95 4.28,8.2 7.67,16.78 11.25,25.3 3.3,-14.14 6.99,-28.98 16.25,-40.5 0.18,21.54 -2.24,43.04 -4.1,64.5 -0.6,5.74 -0.75,13.98 4.05,17.7 9,-13.5 16.47,-27.93 25.45,-41.45 2.04,-2.94 3.61,-6.29 3.35,-9.95 0.08,-14.2 0.37,-28.44 2.65,-42.5 2.48,13.88 0.67,28.07 3.25,41.95 0.6,26.3 0.39,52.65 0.45,78.95 1.36,0.1 4.04,0.3 5.4,0.4 8.44,-33.54 16.23,-67.21 23.85,-100.95 -0.98,12.3 -1.21,24.64 -2.75,36.9 -3.16,22.2 -1.68,44.72 -5.3,66.9 12.24,-25.26 28.96,-48.01 42.5,-72.55 1.04,-2.24 2.82,-4.53 2.2,-7.15 -1.24,-9.46 -2.83,-18.95 -4.95,-28.25 -4.38,-15.74 -7.27,-31.98 -14.85,-46.6 2.1,2.08 4.12,4.34 5.5,7 9.92,17.56 19.78,35.22 26.8,54.2 8.96,-11.78 17.34,-24.1 27.6,-34.8 -9.1,13.58 -17.74,27.47 -24.8,42.25 5.04,11.82 7.83,24.37 11.05,36.75 5.06,-7.62 10.7,-14.82 16.2,-22.1 6.28,-7.36 2.37,-17.67 3.95,-26.35 2.04,4.96 3.06,10.26 3.7,15.6 5.78,-7.28 10.91,-15.13 17.35,-21.85 -4.22,13.58 -14.37,25.34 -14.75,40 2.18,19.42 5.27,38.72 6.95,58.2 -0.2,6.64 -3.5,12.76 -5.2,19.1 3.98,-0.1 8.91,2.6 12.15,-0.7 3.04,-2.84 6.05,-6.15 6.95,-10.35 3.16,-13.3 3.91,-27.23 8.95,-40.05 4.6,-11.56 4.86,-24.39 10.3,-35.65 5.3,-11.68 8.2,-24.29 14,-35.75 7.44,-15.86 16.52,-30.94 27.5,-44.6 8.22,-10.24 14.28,-22.07 23.1,-31.85 -2.46,8.42 -7,15.94 -11.8,23.2 -6.18,11.18 -11.56,22.8 -18.1,33.8 -14.9,25.4 -26.14,52.75 -35.4,80.65 -3.62,10.92 -7.87,21.75 -9.25,33.25 6.84,-3.58 13.69,-7.12 20.95,-9.8 4.28,-19.48 10.72,-38.33 16.9,-57.25 -0.32,10.02 -2.46,19.83 -2.7,29.85 -3.14,24.36 -0.61,48.99 -3.85,73.35 3.42,0.52 6.86,1.04 10.3,1.6 9.08,-11.6 15.59,-24.92 23.95,-37 -1.36,-13.94 -2.82,-27.95 -4.1,-41.95 -0.94,-10.06 1.47,-20.03 1.55,-30.05 0.18,-10.12 -0.13,-20.2 0.65,-30.3 -1.04,-3.34 -1.88,-6.78 -2.5,-10.2 1.8,1.28 4.97,1.77 5.15,4.55 4.52,27.5 12.57,54.33 17.55,81.75 4.06,-5.22 8.24,-10.42 13.4,-14.6 -2.56,8.54 -7.6,16.06 -10.1,24.6 -0.36,7.16 2.04,14.15 2.8,21.25 8.82,-9.38 19.6,-16.58 29.3,-25 -1.62,-12.72 -1.2,-25.56 -2.5,-38.3 -0.88,-9.36 -1.72,-18.82 -0.8,-28.2 3.52,20.82 8.84,41.29 11.6,62.25 4.54,17.98 4.38,36.73 8.1,54.85 7.26,-19.96 13.97,-40.13 22.65,-59.55 4.18,-8.46 8.1,-17.33 14.7,-24.25 -1.2,7.64 -4.11,14.87 -6.55,22.15 -6.58,22.26 -9.25,45.34 -13.95,68 1.4,-0.44 4.22,-1.36 5.6,-1.8 1.98,4.3 2.37,9.1 3.35,13.7 2.78,-4.92 5.37,-9.99 8.45,-14.75 1.8,5.9 3.47,11.86 5.55,17.7 3.7,-1.82 7.4,-3.69 11.1,-5.55 -1.44,-19.68 -1.99,-39.5 -0.75,-59.2 2.44,14.84 6.95,29.17 12.15,43.25 8.8,-21.12 16.52,-42.7 22.8,-64.7 1.12,-3.72 2.52,-7.34 4.3,-10.8 -3.54,23.68 -3.76,47.61 -5.5,71.45 4,-10.96 10.9,-20.76 13.5,-32.2 17.84,-118.98 34.72,-238.12 52.7,-357.1 6.18,-31 12,-62.1 17.1,-93.3 5.24,-28.3 7.66,-57 10.7,-85.6 1.5,-27.76 6.62,-55.1 10.4,-82.6 -6.68,-4.36 -13.29,-8.78 -19.65,-13.6 -0.4,12.64 0.72,25.35 -0.7,37.95 -2.46,7.24 -8.11,12.84 -11.05,19.9 -2.32,3.94 -3.21,9.88 -8.55,10.7 -0.14,-1.64 -0.44,-4.94 -0.6,-6.6 -3.42,-3.34 -6.89,-6.65 -10.35,-9.95 -8.94,6 -13.42,15.99 -19.4,24.55 -7.48,11.58 -12.6,25.47 -24.4,33.55 -22.74,17.98 -54.21,17.66 -81.15,11.3 -2.08,8.24 -4.92,16.33 -6.1,24.75 0.94,4.92 3.02,9.53 4.9,14.15 7.72,3.96 18.47,5.05 22.85,13.45 0.18,9.24 -5.02,17.65 -6.4,26.75 10.24,-0.52 18.1,6.69 23,14.95 5.86,-0.06 11.75,0.08 17.65,0.3 -0.02,6.3 -0.24,12.62 0.4,18.9 5.84,-3.94 7.98,-11.31 14.1,-14.95 -5.78,7.9 -11.53,15.85 -15.65,24.75 -5.36,-6.02 -6.64,-14.2 -6.6,-22 -1.88,0.32 -3.74,0.68 -5.6,1 -1.4,4.44 -2.98,8.76 -4.9,13 0.04,3.64 0.28,7.43 -1.3,10.85 -3.2,7.74 -2.69,16.4 -2.55,24.6 2.66,6.72 7.84,12.42 8.6,19.9 -4.38,-6.42 -9.95,-11.82 -14.95,-17.7 -0.38,-6.92 3.34,-13.16 4.7,-19.8 3.34,-11.96 1.22,-24.44 -0.3,-36.5 -5.08,-3.74 -9.9,-9.44 -16.9,-8.4 -3.7,-0.64 -8.93,1.32 -10.85,-3 -0.2,-9.74 2.99,-19.12 4.75,-28.6 -7.12,-3 -14.82,-5.29 -20.4,-10.95 -1.58,6.44 -5.27,12.59 -11.65,15.15 -9.66,4.58 -20,-0.35 -29.8,-1.75 -11.34,-2.68 -23.26,-3.58 -34.1,-8 -7.9,-3.42 -10.22,-12.48 -10.5,-20.3 -2.6,9.76 -13.12,15.95 -22.9,13.45 -14.48,-3.56 -28.51,-8.7 -42.85,-12.8 -7.76,-2.08 -16.19,-6.26 -18.75,-14.5 -2.84,-6.42 -0.4,-13.2 1.4,-19.5 16.52,-54.8 32.88,-109.67 49.4,-164.45 2.52,-11.32 15.67,-17.67 26.35,-14.05 14.72,4.24 29.24,9.16 43.9,13.6 5.3,1.34 9.8,4.57 13,8.95 11.3,-5.52 23.35,-0.07 34.85,1.75 31.02,6 62.99,12.62 89.95,30 21.04,13.76 31.48,39.5 30.8,64.1 4.22,-7.06 8.67,-14.01 13.65,-20.55 1.48,-0.06 4.42,-0.22 5.9,-0.3 3.04,7.46 8.11,13.74 14.15,19 2.84,-4.54 6.9,-9 6.9,-14.7 -0.22,-16.68 -0.4,-33.37 -0.1,-50.05 9.76,4 19.09,8.99 29.25,12.05 0.58,-3.94 1.17,-7.91 1.75,-11.85 C 953.2,196.04 938.76,175.79 923.8,155.95 901.02,130.21 877.83,104.84 854.95,79.2 850.87,74.36 844.26,73.34 838.7,71 824.96,66.26 811.68,60.18 797.8,55.9 z m -366,641.7 c -2.62,12.4 -8.64,23.67 -13.8,35.15 0.36,-4.12 1.32,-8.13 3.1,-11.85 3.54,-7.78 4.38,-17.02 10.7,-23.3 z m 5.35,16.95 c -5.16,11.56 -8.68,23.76 -12.8,35.7 1.14,-12.38 5.83,-24.23 10.55,-35.65 0.56,-0.02 1.69,-0.03 2.25,-0.05 z"
     id="path8"
     inkscape:connector-curvature="0" />
  <path
     d="m 296.34,132.38 c 4.28,-13.08 7.3,-26.6 13.2,-39.08 6.7,0 13.38,0 20.06,0.02 -5.08,17.28 -2.92,35.28 -3.14,53.04 -6.68,0.8 -13.56,-0.18 -20.12,1.1 2.32,24.9 2.2,50.08 6.92,74.72 0.64,4.02 0.34,8.1 0.1,12.14 -8.8,9.02 -14.16,20.8 -20.68,31.48 -0.38,-8.82 1.26,-18 -2.1,-26.42 -1.04,-0.24 -3.08,-0.68 -4.12,-0.92 -12.68,14.48 -25.48,28.8 -38.02,43.38 16.02,-49.8 31.98,-99.62 47.9,-149.46 z"
     id="path10"
     inkscape:connector-curvature="0"
     style="fill:#f5e5c1" />
  <path
     d="m 331.84,115.98 c 1.02,-7.74 3.8,-15.12 5.54,-22.7 20.28,0.16 40.54,0.02 60.82,0.12 -17.86,95.02 -35.62,190.06 -53.7,285.04 -3.7,-0.1 -7.4,-0.22 -11.1,-0.28 -3.76,-8.74 -9.8,-16.46 -17.8,-21.7 -12.46,-8.18 -26.44,-13.62 -39.8,-20.1 -4.32,-2.1 -8.88,-3.86 -13.72,-4.2 -9.5,-0.72 -18.5,-4.1 -27.32,-7.46 2.1,-5.92 3.22,-12.26 6.36,-17.76 5,-6.86 10.88,-13.04 16.92,-18.98 8.64,-8.48 15.64,-18.42 23.24,-27.8 0.1,8.22 -0.1,16.52 1.94,24.54 4.18,-3.52 5.7,-8.92 8.22,-13.56 7.24,-13.64 15.8,-26.54 24.54,-39.26 2.18,-3.52 5.2,-7.3 4.2,-11.74 -1.52,-11.3 -3.54,-22.58 -3.52,-34.04 -0.88,-11.08 -2.62,-22.14 -2,-33.3 5.32,-1.24 10.76,-0.52 16.1,0.2 1.72,-12.28 0.34,-24.7 1.08,-37.02 z"
     id="path12"
     inkscape:connector-curvature="0"
     style="fill:#f5e5c1" />
  <path
     d="m 492.8,138.45 c -13.22,58.18 -26.28,116.41 -39.7,174.55 15.4,3.48 30.94,6.27 46.4,9.45 5,-20.86 9.31,-41.93 14.95,-62.65 13.04,25.6 26.05,51.19 39.15,76.75 9.88,-5.28 19.91,-10.33 29.75,-15.65 -11.32,-19.24 -22.69,-38.47 -33.75,-57.85 17.7,1.52 37.46,0.49 51.6,-11.65 11.38,-8.76 15.8,-23.5 16.7,-37.3 0.28,-19 -9.94,-38.16 -26.5,-47.7 -30.42,-16.56 -65.18,-21.07 -98.6,-27.95 z m 38.55,50.25 c 12.4,2.86 26.24,4.9 35.6,14.4 7.86,7.6 7.59,20.7 1.55,29.3 -4.3,5.64 -11.74,7.96 -18.6,8 -10.4,-0.2 -20.34,-3.56 -30.1,-6.8 3.94,-14.94 7.69,-29.94 11.55,-44.9 z"
     id="path14"
     style="fill:#f5e5c1"
     inkscape:connector-curvature="0" />
  <path
     d="m 676.88,182.24 c 15.9,5.14 31.94,9.82 47.78,15.18 -17.52,57.64 -34.62,115.4 -52.14,173.02 -15.82,-4.9 -31.6,-10 -47.48,-14.66 16.88,-57.96 34.62,-115.68 51.84,-173.54 z"
     id="path16"
     inkscape:connector-curvature="0"
     style="fill:#f5e5c1" />
  <path
     d="m 750.75,203.5 c -13,58.56 -26.33,117.06 -39.85,175.5 15.54,3.36 31.15,6.32 46.75,9.4 5.52,-22.2 11.37,-44.32 16.95,-66.5 15.54,4.12 31.46,7.34 47.6,7.5 12.7,-0.02 25.89,-2.86 35.85,-11.2 10.9,-8.04 14.64,-21.82 17.4,-34.4 3.98,-20 -6.92,-41.04 -24.2,-51.2 -30.74,-17.56 -66.3,-22.4 -100.5,-29.1 z m 39.05,48.45 c 12.22,2.58 25.34,4.97 35.1,13.35 8.22,6.98 8.76,20.02 3.1,28.7 -4.34,6.42 -12.56,8.66 -19.9,8.5 -9.84,-0.42 -19.33,-3.24 -28.65,-6.2 3.42,-14.8 6.93,-29.55 10.35,-44.35 z"
     id="path20"
     style="fill:#f5e5c1"
     inkscape:connector-curvature="0" />
  <path
     d="m 545.28,212.22 c 2.82,2.06 7.2,3.06 8.14,6.86 -2.52,2.58 -6.72,0.64 -9.88,1 0.58,-2.62 1.16,-5.24 1.74,-7.86 z"
     id="path22"
     inkscape:connector-curvature="0"
     style="fill:#f5e5c1" />
  <path
     d="m 804.76,275.76 c 1.98,2.18 8.98,3.26 6.3,6.9 -2.9,-0.04 -5.76,-0.6 -8.6,-1.02 0.76,-1.98 1.52,-3.94 2.3,-5.88 z"
     id="path26"
     inkscape:connector-curvature="0"
     style="fill:#f5e5c1" />
  <path
     d="m 198.8,332.6 c -2.78475,-0.0647 -5.64,0.26125 -8.55,1.15 -3.62,6.74 -12.38,13.38 -7.8,21.8 3.56,-0.36 4.21,-5.35 7.55,-6.35 5.1,-2.02 13.51,-3.35 15.95,3.15 -8.22,-0.04 -16.93,0.75 -23.75,5.85 -1.74,6.1 1.92,12.98 2.3,19.4 2.82,12.7 0.94,27.76 9.9,38.2 8.22,1.72 17.4,3.12 25.5,0.4 8.88,-14.76 1.64,-32.35 2.3,-48.35 0.62,-9.24 -8.08,-15.3 -9.1,-24.1 3.1,3.9 5.81,8.09 8.55,12.25 1.72,-1.42 3.55,-2.74 5.45,-3.9 -0.72,3.92 -2.16,7.81 -2.2,11.85 3.4,17.04 4.09,34.51 4.35,51.85 5.1,-1.18 10.28,-2.16 15.5,-2.6 4.3,4.22 8.36,9.17 14.4,10.85 5.14,-18.06 -2.64,-37.95 6,-55.25 1.02,-2.82 4.85,-1.83 7.05,-2.75 -2.5,6.54 -6.38,12.43 -8.7,19.05 7.24,-0.38 17.89,-2.78 20.95,6.2 -7.16,-2.22 -14.45,-3.96 -21.85,-5 0.32,6.54 0.42,13.11 0.8,19.65 0.26,7.64 3.06,15.56 -0.7,22.8 5.82,3.28 12.52,5.12 18.9,2.2 2.78,-3.68 6,-7.04 9.6,-9.9 0.7,-9 -0.08,-18.08 1.5,-27 0.46,2.8 0.9,5.63 1.4,8.45 2.86,-6.14 5.46,-12.4 8.2,-18.6 0.82,3.9 -0.08,7.73 -1.6,11.35 4.98,0.54 9.95,1.22 14.95,1.8 -1.02,-7.2 -7.13,-11.87 -11.15,-17.45 -4.28,-4.84 -7.69,-11.53 -14.45,-13.15 C 270.67,360.37 251.5,353.66 233,345.2 221.88499,340.8125 210.86728,332.8805 198.8,332.6 z m 38.85,34.15 c 6.29262,0.0211 12.46,1.9325 16.45,7.2 -3.9,1.36 -7.58,0.57 -10.3,-2.65 -2.88,-0.38 -5.72,-0.7 -8.6,-1 -0.06,-0.86 -0.21,-2.59 -0.25,-3.45 0.8975,-0.07 1.80106,-0.10301 2.7,-0.1 z"
     id="path28"
     style="fill:#f4722b"
     inkscape:connector-curvature="0" />
  <path
     d="m 157.16,343.6 c 4.3,-0.36 9.52,-1.3 12.78,2.34 8.84,9.08 8.72,22.44 10.76,34.16 1.58,12.68 5.82,25.2 4.6,38.12 -3.52,8.48 -11.62,16.22 -21.52,14.62 -2.66,-2.52 -3.58,-6.2 -5.24,-9.34 -3.2,-7.46 -9.2,-13.52 -11.02,-21.6 -1.86,-7.58 -5.72,-14.42 -8.52,-21.66 -2.18,-7.9 -3.32,-16.08 -4.2,-24.22 -0.82,-3.8 3.22,-5.62 5.6,-7.6 4.76,-3.78 11.02,-3.98 16.76,-4.82 z"
     id="path30"
     inkscape:connector-curvature="0"
     style="fill:#f4722b" />
  <path
     d="m 135.48,380.18 c 1.86,5.56 3.72,11.14 5.96,16.58 -3.54,0.06 -7.06,0.14 -10.58,0.22 0.86,-5.76 2.36,-11.42 4.62,-16.8 z"
     id="path34"
     inkscape:connector-curvature="0"
     style="fill:#f4722b" />
  <path
     d="m 299.76,401.2 c 7.24,-1.52 14.64,-1.94 22.02,-2.04 4.2,2 8.9,2.04 13.46,2.06 -1.46,6.72 -2.42,13.6 -4.54,20.18 -2.46,2.02 -5.96,0.14 -8.8,0.26 -8.08,-1.02 -16.22,-0.72 -24.34,-0.82 -0.76,0.6 -2.3,1.84 -3.08,2.44 2.12,-7.26 3.94,-14.62 5.28,-22.08 z"
     id="path36"
     inkscape:connector-curvature="0"
     style="fill:#f4722b" />
  <path
     d="m 106.68,404.76 c 11.26,-1.24 22.68,-4.22 33.96,-1.64 2.82,6.62 6.16,13 9.02,19.6 -14.24,0.28 -28.5,0.12 -42.64,-1.66 0,-5.44 -0.12,-10.86 -0.34,-16.3 z"
     id="path38"
     inkscape:connector-curvature="0"
     style="fill:#f4722b" />
  <path
     d="m 400.04,403.26 c 10.02,-0.54 19.94,-2.52 30,-2.32 24.68,-0.04 49.36,-0.96 74.02,0.54 23.32,1.76 43.2,15.58 62.26,27.9 12.46,10.6 25.88,20.16 37.52,31.68 -12.94,-1.14 -25.88,-2.1 -38.88,-1.8 -7.14,-7.6 -15.96,-13.3 -24.8,-18.68 -10.1,-5.94 -20.58,-11.76 -32.1,-14.34 -15.84,-2.78 -31.88,-4.1 -47.96,-3.66 -39.92,-3.44 -80.04,-2 -120.06,-1.02 1.16,-4.12 -0.6,-11.34 5.24,-12.2 18.08,-3.3 36.48,-4.2 54.76,-6.1 z"
     id="path40"
     inkscape:connector-curvature="0"
     style="fill:#f5e5c1" />
  <path
     d="m 216.08,424.64 c 7.54,-0.86 14.62,-3.76 21.98,-5.36 7.66,-0.16 12.96,7.82 13.1,14.86 1.16,6.8 -4,12.22 -8.62,16.44 -7.14,5.5 -17.22,8.96 -25.92,5.18 -5.08,-1.82 -9.02,-5.6 -12.78,-9.32 2.82,6.24 7.52,11.2 13.94,13.76 -8.66,4.76 -16.44,10.94 -25.3,15.34 5.8,-2.7 11.9,-4.86 18.38,-5.18 -3.36,4.52 -7.42,8.44 -11.88,11.86 0.28,6.5 1.04,12.96 2.22,19.38 6.02,-6.42 3.96,-15.88 7,-23.52 3.3,-3.92 7.58,-7.06 9.66,-11.9 1.14,1.62 2.3,3.24 3.46,4.88 7.6,0 15.58,-1.44 22.96,0.84 14.62,7.98 23.6,22.88 30.9,37.3 3.86,6.6 1.56,14.38 1.9,21.56 3.78,-9.52 3.74,-20.38 3.58,-30.52 -2.86,-12.9 -15.6,-19.6 -23.88,-28.78 22.16,-1.5 44.18,2.38 66.36,1.58 -0.34,8.06 1.7,17.44 -4.12,24.08 -4.96,6.52 -7.94,14.32 -13.26,20.62 -4.22,5.08 -8.66,10.1 -11.54,16.12 6.96,-3.64 11.76,-10.04 17.72,-14.96 1.14,7.02 2.06,14.14 2.4,21.26 -0.68,3.1 -4.08,4.12 -6.48,5.54 -17.66,8.38 -35.1,17.24 -52.38,26.32 -11.68,2.76 -23.88,2.96 -35.86,3.24 -11.48,-14.2 -22.06,-29.06 -33.74,-43.12 -10.16,-15.54 -23.94,-28.1 -36.14,-41.94 -6.68,-7.86 -10.98,-17.34 -13.6,-27.24 9.06,-0.8 19.18,-0.48 26.7,-6.44 7.72,-7.54 14.82,-15.7 22.04,-23.72 3.8,-3.84 7.68,-8.64 13.42,-9.28 5.96,-0.16 11.82,1.78 17.78,1.12 z"
     id="path42"
     inkscape:connector-curvature="0"
     style="fill:#f4722b" />
  <path
     d="m 339.52,425.08 c 14.68,-2 29.44,-4.48 44.3,-3.74 12.08,0.32 24.16,-0.06 36.24,0.24 19.9,1.86 39.9,2.04 59.88,1.7 13.62,1.88 28,1.46 40.64,7.68 15.6,7.44 30.98,16.02 43.6,27.98 -19.08,1.06 -37.52,6.3 -55.86,11.28 -20.96,-5.9 -42.6,-9.2 -64.3,-11.12 -25.34,-2.26 -50.5,-7.48 -76.04,-6.7 -11.54,1 -23.14,0.64 -34.64,1.8 2.1,-9.7 4.92,-19.24 6.18,-29.12 z"
     id="path44"
     inkscape:connector-curvature="0"
     style="fill:#f5e5c1" />
  <path
     d="m 261.08,436.6 c 10.2,7.72 21.86,-1.7 30.26,-7.74 12.2,3.98 25.5,2.88 38.2,3.8 -1.86,9.96 -2.58,20.16 -4.96,30 -5.58,3.86 -12.54,0.9 -18.66,0.5 -21.3,-3.4 -42.92,-1.76 -64.36,-2.84 -0.48,-0.64 -1.42,-1.9 -1.9,-2.52 6.98,-5.74 16,-8.54 22.22,-15.34 -0.2,-1.46 -0.6,-4.38 -0.8,-5.86 z"
     id="path46"
     inkscape:connector-curvature="0"
     style="fill:#f4722b" />
  <path
     d="m 106.6,433 c 15.76,-0.4 31.6,-0.6 47.38,-0.12 4.76,0.08 11.12,3.76 11.28,8.78 -3.56,4.78 -7.78,9.18 -12.54,12.78 -6.64,2.12 -13.74,2.12 -20.66,2.12 -9.82,-0.26 -19.78,0.84 -29.44,-1.42 1.72,-7.24 0.92,-15.46 3.98,-22.14 z"
     id="path48"
     inkscape:connector-curvature="0"
     style="fill:#f4722b" />
  <path
     d="m 164.96,542.92 c 5.9,10.28 12.94,20.2 15.98,31.86 5.04,11.2 -0.14,23.56 -4.46,34.14 -5.7,13.78 -12.38,27.12 -19.26,40.36 -5.08,7.92 -11.48,14.9 -16.36,22.98 -15.14,2.38 -17.26,19.66 -19.24,31.96 -2.6,8.74 2.24,17.44 0.76,26.2 -4.02,5.06 -4.1,-2.46 -5.68,-4.6 -1.26,15.74 -5.34,31.12 -8.16,46.64 -2.04,-9.56 -4.66,-18.98 -6.62,-28.52 1.74,-13.62 5.08,-27.12 10.02,-39.94 5.68,-18.68 10.98,-37.48 16.58,-56.18 3.56,-15.46 12.08,-29.06 16.88,-44.1 6.58,-20.24 12.9,-40.58 19.56,-60.8 z"
     id="path50"
     inkscape:connector-curvature="0"
     style="fill:#f5e5c1" />
  <path
     d="m 318.58,548.78 c 6.88,2.56 13.34,6.12 20.22,8.76 -0.18,15.74 6.08,30.32 9.32,45.48 -14.16,0.16 -28.5,0.6 -42.44,-2.24 -7.88,-1.56 -15.9,-2.36 -23.82,-3.64 -14.76,-2.26 -28.72,-7.92 -43.3,-10.92 0.14,-0.82 0.42,-2.46 0.56,-3.3 15.02,0.46 30.42,1.24 44.9,-3.46 14.38,-2.64 28,-8.16 40.88,-14.92 1.82,-1.42 3.52,-2.96 5.1,-4.62 -4.12,-3.4 -9.46,-5.82 -11.42,-11.14 z"
     id="path52"
     inkscape:connector-curvature="0"
     style="fill:#f5e5c1" />
  <path
     d="m 275.78,565.56 c 11.56,-4.8 22.96,-10 34.4,-15.1 3.18,3.32 7.28,6.1 9.24,10.42 -11.6,6.12 -24.72,8.38 -37.5,10.74 -6.82,1.36 -13.8,1.7 -20.74,1.22 3.86,-4.14 9.62,-5.14 14.6,-7.28 z"
     id="path54"
     inkscape:connector-curvature="0"
     style="fill:#f4722b" />
  <path
     d="m 350.22,578.58 c 8.98,6.76 17.82,13.72 27.36,19.68 2.16,1.76 5.36,2.92 6.3,5.78 -0.14,4.8 -1.36,9.48 -2.22,14.2 -17.6,93.54 -34.7,187.18 -52.44,280.7 -2.98,14.3 -8.28,27.98 -11.28,42.28 -13.96,-0.88 -27.84,-3.1 -41.82,-3.72 -23.54,-0.2 -46.92,-3.04 -70.3,-5.34 -29.14,-3.66 -58.62,-3.04 -87.72,-7.08 9.16,-24.78 11.26,-51.34 18.58,-76.6 7.12,-25.66 10.12,-52.2 15.78,-78.18 3,-13.18 4.82,-26.64 4.16,-40.18 -0.86,-10.78 2.16,-21.36 6.34,-31.18 6.28,-12.48 11.7,-25.34 16.8,-38.34 18.68,2.06 36.1,9.5 54.26,13.78 4.32,0.9 8.56,2.22 12.52,4.2 0.04,-0.38 0.14,-1.14 0.2,-1.52 -20.56,-9.6 -42.22,-16.76 -64.06,-22.76 8.44,-22.26 18.68,-43.96 23.22,-67.48 34.04,12.72 70.2,17.84 106.1,22.02 10.64,0.46 21.28,0.42 31.92,-0.06 4.64,-0.38 9.8,-0.22 13.72,-3.2 -1.02,-9.34 -5.7,-17.8 -7.42,-27 z"
     id="path56"
     inkscape:connector-curvature="0"
     style="fill:#f4722b" />
  <path
     style="fill:#f5e5c1"
     d="m 21.7,601.15 c -2.62,5.44 -4.52,11.17 -6.8,16.75 -1.02,-3.22 -2.03,-6.43 -3.05,-9.65 2.84,15.42 -4.09,30.06 -7.75,44.7 C 4.26,643.47 1.32,634.46 0,625.2 l 0,103.6 c 23.32,8.16 47.93,10.73 72.35,13.15 2.64,-10.82 7.55,-21.07 9.05,-32.15 -0.24,-15.34 -2.4,-30.59 -2,-45.95 0.68,-12.9 -2.73,-25.47 -5.85,-37.85 -0.1,-3.54 -0.18,-7.08 -0.3,-10.6 -2.68,12.94 -3.97,26.29 -9.55,38.45 -5.16,10.86 -7.48,22.66 -10.2,34.3 -0.58,-23.66 2.18,-47.25 5.4,-70.65 -2.14,5.28 -3.91,10.7 -4.55,16.4 -1.2,10.44 -5.67,20.15 -7.55,30.45 -2.1,11.34 -4.42,22.61 -7.4,33.75 -0.12,-11.26 -1.46,-22.73 1.6,-33.75 3.04,-16.96 8.76,-33.67 8.3,-51.05 -2.86,15.16 -5.26,30.52 -12,44.6 0.6,-14.2 0.45,-28.52 -2.45,-42.5 -3.36,7.26 -4.52,15.19 -5.5,23.05 -6.56,7.5 -9.26,17.2 -12.2,26.5 0.26,-12.38 -2.48,-24.97 0.7,-37.15 2.26,-8.7 3.65,-17.63 3.85,-26.65 z m 51.25,28.85 0.75,0.2 c 2.22,22.16 2.58,45.08 -5.2,66.3 -2,-8.26 -0.46,-16.79 -1.4,-25.15 -1.38,8.94 -0.12,17.97 0.2,26.95 -0.7,8.64 -3.6,16.86 -5.8,25.2 -1.32,-0.04 -4.01,-0.11 -5.35,-0.15 0.44,-21.4 5.66,-42.29 10.3,-63.05 1.94,-10.16 3.98,-20.26 6.5,-30.3 z m -61.7,25.5 c -0.32,8.1 -0.55,16.18 -0.25,24.3 0.5,9.64 -2.61,19 -5.45,28.1 -0.06,-8.66 -1.16,-17.39 0.5,-25.95 1.68,-8.84 3.66,-17.59 5.2,-26.45 z m 16.5,9.2 c 0.68,8.96 1.25,18.1 -0.25,27 -2.14,8.34 -5.23,16.4 -7.25,24.8 -2.08,-17.56 2.68,-35.08 7.5,-51.8 z m 47.5,20.75 c 1.38,13.42 2.39,27.17 -0.65,40.45 -2.44,-0.48 -4.86,-0.91 -7.3,-1.35 2.42,-13.08 5.89,-25.96 7.95,-39.1 z M 8.2,713.35 c 2.892695,-0.38938 -1.1225,6.46 -1.7,0.65 0.725,-0.41 1.2867578,-0.59437 1.7,-0.65 z"
     id="path58"
     inkscape:connector-curvature="0" />
  <path
     d="m 89.28,647.94 c 0.86,-10.18 -1.14,-20.34 -0.32,-30.52 1.66,6.04 2.1,12.3 2.3,18.54 0.4,12.72 2.04,25.38 1.88,38.12 -0.46,8.36 -4.04,16.1 -6.16,24.1 0.56,-8.06 0.16,-16.14 -0.08,-24.2 -0.34,-8.76 2.32,-17.28 2.38,-26.04 z"
     id="path60"
     inkscape:connector-curvature="0"
     style="fill:#f5e5c1" />
  <path
     d="m 366.58,794.04 c 4.52,-19.32 6.94,-39.06 11.54,-58.36 0.64,12.2 2.66,24.26 4.16,36.36 -4.9,7.58 -10.34,14.76 -15.7,22 z"
     id="path76"
     inkscape:connector-curvature="0"
     style="fill:#f5e5c1" />
  <path
     style="fill:#f5e5c1"
     d="m 943.9,750.8 c 2.14,16.98 2.17,34.34 -0.85,51.2 -1,6.52 -4.55,12.2 -7.25,18.1 -0.34,-10.02 0,-20.07 -0.9,-30.05 -0.78,-11.56 -4.2,-22.73 -4.4,-34.35 -2.68,12.74 2.38,25.47 0,38.25 -1.66,9.72 -3.92,19.36 -6,29 -0.6,-5.94 -0.94,-11.9 -1.8,-17.8 -0.36,8.92 1.5,18.06 -1.1,26.8 -1.88,6.94 -3.62,13.92 -5,21 l -5.75,-1.45 c 0.26,-16.48 -2.99,-33.02 -0.15,-49.4 1.34,-7.4 2.02,-14.9 2,-22.4 -4.74,13.62 -4.96,28.16 -6.9,42.3 -1.92,14.54 -3.79,29.12 -4.25,43.8 9.38,1.36 18.79,2.56 28.25,3.2 12.8,0.8 25.4,3.61 38.2,4.35 18.76,1.32 37.3,4.31 56,6.15 l 0,-11.7 c -1.28,0.16 -3.82,0.52 -5.1,0.7 -0.2493,-5.53363 0.2946,-11.04726 1.35,-16.45 0,-0.0159 0,-0.0341 0,-0.05 0.4215,-2.15155 0.9373,-4.28107 1.5,-6.4 0,-0.0154 0,-0.0346 0,-0.05 0.2839,-1.06707 0.5875,-2.0925 0.9,-3.15 0.34,0.44 1.01,1.31 1.35,1.75 l 0,-2.5 -0.1,-3.4 c -0.54,0.29 -1.0991,0.58618 -1.65,0.85 -1.6425,0.78317 -3.3299,1.4512 -5.05,2.05 -2.3125,0.80499 -4.68,1.48 -7.05,2.1 1.84,-4.44 3.72,-8.85 5.6,-13.25 -1.42,1.34 -4.26,4.01 -5.7,5.35 0.3768,-3.42602 0.7856,-6.88686 1.35,-10.35 0.2797,-1.7236 0.5771,-3.40003 0.95,-5.1 0.5602,-2.54994 1.2417,-5.06498 2.1,-7.5 0.5722,-1.62334 1.2062,-3.20517 1.95,-4.75 1.8596,-3.86208 4.325,-7.46875 7.6,-10.6 l 0,-5.85 c -3.46,6.5 -7.21,12.87 -11.05,19.15 -0.24,-11.74 3.62,-23.05 3.7,-34.75 -1.2,3.68 -2.26,7.36 -3.3,11.1 -4.44,0.04 -6.88,4.31 -9.6,7.15 -0.12,-4.88 -0.25,-9.69 -0.55,-14.55 -4.78,10.94 -2.95,23.97 -10.25,33.85 -6.34,9.08 -11.49,19.07 -19.05,27.25 -1.2,2.96 -2.41,5.89 -3.65,8.85 0.54,-7.34 1.63,-14.62 2.75,-21.9 1.06,-0.5 2.12,-0.97 3.2,-1.45 0.64,-1.88 1.32,-3.74 2,-5.6 -1.42,1.86 -4.25,5.54 -5.65,7.4 -1.62,-17.56 3.24,-34.8 2.3,-52.3 0.88,-6.1 4.85,-11.23 6.75,-17.05 -5.68,5.92 -10.78,12.35 -16.5,18.25 0.02,-2.22 0.08,-6.6 0.1,-8.8 -1.82,12.04 -9.4,21.7 -16.2,31.4 -0.5,-16 -2.4,-31.9 -2.6,-47.9 -0.84,-0.2 -1.68,-0.34 -2.5,-0.5 z m 27.8,25.25 c -1.88,9.44 -2.63,19.18 -5.75,28.3 -1.26,0.46 -3.76,1.34 -5,1.8 0.58,-5.44 0.09,-11.4 3.15,-16.2 2.72,-4.54 5.54,-9.02 7.6,-13.9 z m 40.6,11.85 c -0.14,8.96 -4.18,17.3 -5,26.2 -0.66,6.64 -6.7,10.6 -10.5,15.5 2.26,-11.36 4.31,-22.82 8.65,-33.6 2.32,-2.66 4.53,-5.44 6.85,-8.1 z m -54.4,11.5 c -2.02,8.48 -2.52,17.94 -8.2,25 -1.96,-9.42 2.22,-18.02 8.2,-25 z m 0.35,9.2 c 6.64,0.32 -3.1,5.94 0,0 z m 35.2,11 c -1.64,8.84 -2.31,18.42 -7.65,26 -1.92,3.38 -6.34,3.02 -9.5,4.2 3.34,-11.28 11.73,-19.94 17.15,-30.2 z m -50.2,3.55 c 0.5,6.96 -0.31,14.59 -6.05,19.35 -1.3,-7.16 1.57,-13.91 6.05,-19.35 z m 15.95,0.6 c 2.78,9.64 -0.01,19.63 0.25,29.45 -1.76,0.36 -5.24,1.09 -7,1.45 -2.18,-10.84 0.19,-21.98 6.75,-30.9 z m 48,0.15 c -0.8,6.88 -2.44,13.6 -4.2,20.3 l 4.15,-0.05 c -1.72,2.32 -3.4,4.66 -5.1,7 0.16,-1.7 0.49,-5.05 0.65,-6.75 -1.86,0.34 -5.59,1.06 -7.45,1.4 -0.94,6.14 -2.06,12.28 -3.2,18.4 -1.42,-0.24 -4.26,-0.76 -5.7,-1 0.88,-4.44 0.94,-9.42 4.1,-13 6.84,-7.94 9.99,-18.28 16.75,-26.3 z m -74.4,16.2 c -0.46,5.38 0.84,15.24 -7.3,14.8 1.64,-5.28 4.26,-10.2 7.3,-14.8 z m 73.85,11.45 c -0.52,4.8 -1.04,9.63 -1.5,14.45 -2.34,-0.28 -4.71,-0.56 -7.05,-0.8 2.66,-4.68 5.51,-9.23 8.55,-13.65 z m -66.6,1.3 c 6.7,0.18 -3.12,5.88 0,0 z"
     id="path78"
     inkscape:connector-curvature="0" />
  <path
     d="m 421.44,768.36 c 4,15.52 4.66,31.68 7.98,47.34 1.08,7.06 3.92,14.42 1.44,21.52 -2.76,8.42 -4.96,17 -6.76,25.7 -3.06,-0.34 -6.12,-0.66 -9.18,-0.98 1.06,-31.24 1.8,-62.6 6.52,-93.58 z"
     id="path80"
     inkscape:connector-curvature="0"
     style="fill:#f5e5c1" />
  <path
     d="m 376.72,796.7 c 2.6,-4.14 3.7,-9.72 7.82,-12.62 1.2,5.78 2.62,11.66 2.38,17.6 -2.12,7.92 -5.96,15.22 -9.6,22.52 -2.1,-4.24 -4.72,-8.2 -6.76,-12.46 0.04,-5.5 4.1,-10.1 6.16,-15.04 z"
     id="path84"
     inkscape:connector-curvature="0"
     style="fill:#f5e5c1" />
  <path
     d="m 475.14,848.16 c 2.24,-12.42 6.38,-24.48 9.98,-36.56 -2.2,19.82 -0.46,39.82 -1.64,59.7 -2.5,-7.8 -6.84,-15.1 -8.34,-23.14 z"
     id="path94"
     inkscape:connector-curvature="0"
     style="fill:#f5e5c1" />
  <path
     d="m 560.66,812.46 c 1.94,13.78 3.06,27.64 5.06,41.4 -1.3,2.12 -2.58,4.22 -3.86,6.34 -8,0.58 -16.02,0.96 -24.02,0.98 6.4,-16.8 15.02,-32.56 22.82,-48.72 z"
     id="path96"
     inkscape:connector-curvature="0"
     style="fill:#f5e5c1" />
  <path
     d="m 592.8,858.86 c 3.9,-9.9 6.72,-20.2 10.9,-29.98 0.54,17.44 0.4,34.9 0.08,52.36 -5.36,-1.7 -10.38,-4.62 -13.78,-9.18 -0.74,-4.6 1.3,-8.98 2.8,-13.2 z"
     id="path106"
     inkscape:connector-curvature="0"
     style="fill:#f5e5c1" />
  <path
     d="m 735.98,889.98 c 6.68,-16.16 11.28,-33.96 24.26,-46.52 1.9,21.68 5.28,43.18 7.2,64.86 -3.62,-7.86 -10.3,-13.68 -14.32,-21.3 -2.32,-4.96 -3.9,-10.3 -7.08,-14.8 -4.78,9.82 -6.08,20.78 -9.82,30.94 -0.42,-4.34 -1.96,-8.94 -0.24,-13.18 z"
     id="path112"
     inkscape:connector-curvature="0"
     style="fill:#f5e5c1" />
  <path
     d="m 966.46,852.5 c 1.04,0.96 1.04,0.96 0,0 z"
     id="path116"
     inkscape:connector-curvature="0"
     style="fill:#f4722b" />
</svg>
