<?xml version="1.0" encoding="UTF-8" standalone="no"?>
<svg
   xmlns:dc="http://purl.org/dc/elements/1.1/"
   xmlns:cc="http://creativecommons.org/ns#"
   xmlns:rdf="http://www.w3.org/1999/02/22-rdf-syntax-ns#"
   xmlns:svg="http://www.w3.org/2000/svg"
   xmlns="http://www.w3.org/2000/svg"
   xmlns:sodipodi="http://sodipodi.sourceforge.net/DTD/sodipodi-0.dtd"
   xmlns:inkscape="http://www.inkscape.org/namespaces/inkscape"
   width="1280"
   height="1280"
   viewBox="0 0 1024 1024"
   version="1.1"
   id="svg2"
   inkscape:version="0.48.1 "
   sodipodi:docname="freezecam_flick.svg">
  <metadata
     id="metadata56">
    <rdf:RDF>
      <cc:Work
         rdf:about="">
        <dc:format>image/svg+xml</dc:format>
        <dc:type
           rdf:resource="http://purl.org/dc/dcmitype/StillImage" />
      </cc:Work>
    </rdf:RDF>
  </metadata>
  <defs
     id="defs54" />
  <sodipodi:namedview
     pagecolor="#ffffff"
     bordercolor="#666666"
     borderopacity="1"
     objecttolerance="10"
     gridtolerance="10"
     guidetolerance="10"
     inkscape:pageopacity="0"
     inkscape:pageshadow="2"
     inkscape:window-width="1920"
     inkscape:window-height="1018"
     id="namedview52"
     showgrid="false"
     inkscape:snap-page="true"
     fit-margin-top="0"
     fit-margin-left="0"
     fit-margin-right="0"
     fit-margin-bottom="0"
     inkscape:zoom="0.6609375"
     inkscape:cx="466.00473"
     inkscape:cy="640"
     inkscape:window-x="-8"
     inkscape:window-y="-8"
     inkscape:window-maximized="1"
     inkscape:current-layer="layer1" />
  <g
     inkscape:groupmode="layer"
     id="layer1"
     inkscape:label="background"
     style="display:inline">
    <rect
       style="fill:#3e3e3e;fill-opacity:1;fill-rule:nonzero;stroke:none"
       id="rect3051"
       width="1024"
       height="1024"
       x="0"
       y="0" />
  </g>
  <g
     inkscape:groupmode="layer"
     id="layer2"
     inkscape:label="foreground">
    <path
       d="M 0,0 0.04,0 C 0.04,0.04 0.02,0.14 0,0.2 L 0,0 z"
       id="path4"
       inkscape:connector-curvature="0"
       style="fill:#f5e5c1" />
    <path
       d="M 511,0 C 362.68,33.6 214.21,66.65 65.85,100.05 c -16.88,3.46 -33.47,8.23 -50.55,10.65 3,28.4 5.72,56.87 8.9,85.25 6.94,46.84 13.84,93.7 21,140.5 10.64,53.44 20.46,107.05 31.8,160.35 9.38,38.06 18.45,76.21 27.95,114.25 11.74,39.52 23.93,78.93 35.75,118.45 4.34,15 10.5,29.37 15.8,44.05 11.06,29 21.46,58.26 32.9,87.1 24.96,50.32 50.18,100.49 75.3,150.75 0.76,3.38 3.7,3.33 6.2,1.75 C 502.96,912.89 735.08,812.9 967.1,712.6 953.08,686.18 938.31,660.13 924.85,633.45 908.99,589.73 893.74,545.8 878.1,502 870.22,478.52 860.29,455.67 854.75,431.45 837.53,363.97 819.82,296.61 802.9,229.05 789.1,170.95 775.23,112.85 761.45,54.75 758.51,36.65 758.07,18.24 756.15,0 L 732.3,0 711.55,0 669.25,0 585.35,0 511,0 z"
       id="path8"
       style="fill:#f5e5c1"
       inkscape:connector-curvature="0" />
    <path
       style="fill:#3e3e3e"
       d="m 669.25,0 c -55.02,13.36 -110.3,25.5 -165.4,38.4 0.08,6.14 1.39,12.11 2.75,18.05 0.58,2.28 -1.49,4.02 -2.85,5.5 -29.92,26.74 -63.31,49.57 -90.45,79.35 -24.52,29.36 -57.86,52.14 -73.8,88 15.9,-3.36 31.18,-8.79 46.8,-13.15 34.3,-8.28 68.66,-16.97 103.6,-21.85 6.22,1.94 -1.04,5.24 -4.1,5.4 -45.7,10.88 -91.03,23.15 -136.75,33.95 -4.34,1.06 -8.81,1.67 -13.25,2.15 1.68,-10.56 7.64,-19.72 13.4,-28.5 14.78,-22.74 36.56,-39.51 54.5,-59.55 18.06,-21.3 39.43,-39.45 61.15,-56.85 10.86,-10.78 24.43,-18.32 35.25,-29.1 2.82,-6.82 -0.58,-14.9 -1.2,-22.1 -141.3,32.06 -282.43,64.9 -423.65,97.3 -6.14,0.72 -6.74,8.14 -5.5,12.9 10,62.14 19.24,124.43 29.4,186.55 27.3,114.74 54.95,229.38 82.35,344.1 1.82,7.76 3.22,15.79 7.1,22.85 7.08,13.02 13.94,26.17 21.1,39.15 158.38,-55.18 316.82,-110.05 475.2,-165.25 -17.46,-14.02 -35.28,-27.57 -53.8,-40.15 -9.48,-6.94 -19.15,-13.71 -29.65,-19.05 13.32,-15.24 27.35,-29.83 41.35,-44.45 -6.56,10.34 -14.07,20.03 -21.75,29.55 -2.28,2.54 1.73,4.83 3.45,6.25 20.64,14.5 40.79,29.78 60.05,46.1 7.28,6.38 16.21,10.28 25.35,13.2 42.76,-15.02 85.65,-29.83 128.45,-44.75 -8.38,-22.36 -16.93,-44.66 -25.35,-67 -3.1,-8.32 -6.76,-16.47 -8.7,-25.15 -9.74,-44.8 -19.32,-89.64 -29.2,-134.4 -13.16,22.12 -29.49,42.11 -45.05,62.55 -14.28,17.28 -24.74,37.52 -40.4,53.7 -7.72,8.28 -14.9,16.99 -22.3,25.55 -5.06,5.7 -8.52,12.86 -14.6,17.6 -10.12,7.16 -24.08,7.89 -35.4,3.25 -13.4,-7.76 -21.77,-21.59 -28.15,-35.25 -7.12,-18.02 -18.19,-34.13 -30.55,-48.95 20,-6 40.09,-13.49 61.25,-13.45 8.7,-0.1 17.47,-1.8 26.15,-0.7 8.16,3.46 15.83,8.21 22.65,13.85 2.56,9.66 2.29,21.87 -6.55,28.35 -12.52,10.84 -30.41,6.63 -44.55,13.15 12.44,-1.7 25.02,-3.24 37.1,-6.8 13.56,-3.86 20.6,-19.76 17.9,-32.9 -1.34,-6.58 -7.82,-9.88 -12.7,-13.6 -9.6,-7.58 -22.5,-4.31 -33.7,-6.25 -15.26,-2.42 -31.1,-1.56 -45.9,3 -5.14,1.42 -11.56,4.01 -15.8,-0.75 -1.54,-7.38 -1.64,-15.11 -1.5,-22.65 5.94,-3.36 12.48,-5.84 17.7,-10.4 8.38,-6.48 13.82,-15.71 20.5,-23.75 7.5,3.22 14.32,7.77 20,13.65 9.2,8.22 18.16,16.65 26.9,25.35 -5.74,-8.7 -12.12,-16.91 -19.1,-24.65 -9.6,-10.66 -16.23,-23.76 -26.75,-33.6 -2.86,-2.68 -7.81,-6.29 -10.95,-1.95 -0.34,6.52 3.53,13.38 -0.05,19.5 -1.24,2.88 -4.58,3.59 -7.1,4.85 -11.56,4.3 -23.45,8.79 -35.95,8.95 -12.66,-1.06 -25.28,-4.82 -35.8,-12.1 1.02,-23.72 2.04,-47.64 8.1,-70.7 6.48,-18.46 4.99,-38.54 0.65,-57.3 -4.76,-1.14 -9.41,-2.6 -14.05,-4.2 -5.84,-15.7 -3.32,-32.7 -1.6,-48.9 0.72,-4.04 0.99,-8.93 4.95,-11.25 16.64,-12.04 34.81,-21.79 53.35,-30.55 17.04,-9.32 35.38,-15.87 53.4,-22.95 15,-5.88 30.16,-11.33 45.6,-15.95 6.24,-2.78 11.68,2.96 15.8,6.9 0.06,9.04 -7.97,15.29 -11.55,23.05 -4.32,6.14 -5.55,14.71 -12.05,19.05 9.62,1.2 18.48,5.38 27.9,7.4 6.28,1.3 12,4.21 17.3,7.75 10.4,-3.68 20.88,-7.23 31.3,-10.85 C 724.48,63.06 718.67,31.4 711.55,0 l -42.3,0 z m 63.85,104.8 c -22.24,7.2 -44.46,14.52 -66.6,22 -14,4.58 -27.6,11.18 -42.5,12.3 -2.5,-1.36 -4.82,-3.19 -7.7,-3.65 -13.4,-2.5 -27.5,-3.73 -40.7,0.45 -19.04,6.08 -37.51,17.64 -46.85,35.9 2.32,11.04 3.46,23.58 11.3,32.3 1.88,8.88 9.2,14.61 14.4,21.55 5.46,7.14 12.77,12.53 19.95,17.85 7.92,5 18.32,8.51 27.4,4.45 13.68,-5.38 24.09,-17.99 27.45,-32.25 4.1,-18.56 5.7,-37.89 1.9,-56.65 l -3.25,-2.15 c 1,0.48 2.97,1.42 3.95,1.9 3.06,-4.88 7.99,-7.84 13.35,-9.6 25.38,-9.5 50.7,-19.54 77,-26.2 4.08,10.6 6.84,21.74 8.2,33 1.1,19.58 -8.64,37.2 -15.7,54.8 -6.06,12.8 -11.75,26.08 -20.55,37.3 -7.1,5.98 -15.23,11.21 -19.75,19.65 -4.52,6.32 -2.76,14.5 -1.3,21.5 4.2,6.4 7.73,13.51 8.45,21.25 -1.18,6.28 -4.95,11.7 -7.25,17.6 3.32,-7.22 10.1,-14.14 7.8,-22.7 -1.98,-6.4 -3.1,-13.27 -6.6,-19.05 -4.38,-5.28 -4.6,-13.72 -0.1,-19 8.48,-11.24 20.09,-20.79 34.05,-24.05 16.96,-4.5 34.23,-8.17 51.75,-9.85 -8.16,-38.54 -16.68,-77.07 -24.7,-115.65 -0.96,-4.38 -2.18,-8.7 -3.4,-13 z m -147.9,41.7 c 0.66802,-0.0204 1.33166,-0.0184 2,0 8.91114,0.24551 17.7,3.975 23.45,10.95 7.26,8.86 10.46,20.6 10.7,31.9 -6.16,7.14 -12.43,14.3 -19.05,21 -10.86,5.46 -22.06,-4.94 -33.4,-3.4 -0.24,3.78 0.62,7.46 2.2,10.9 -4.72,-1.64 -9.62,-2.56 -14.6,-2.9 -8.5,-10.62 -18.37,-23.6 -15.45,-38 7.22,-11.76 17.73,-21.86 30.65,-27.1 4.18032,-2.10656 8.82386,-3.20717 13.5,-3.35 z m -79.1,37.75 c 1.78,10.18 4.94,20.3 4.8,30.7 -5.3,-6.42 -6.85,-14.88 -7.85,-22.9 -0.48,-2.96 1.97,-5.3 3.05,-7.8 z m 126.85,40.95 c 1.88,11.72 14.56,16.75 23.6,22.35 0.1,-0.2 0.33,-0.57 0.45,-0.75 -7.76,-7.5 -15.03,-15.58 -24.05,-21.6 z M 348.6,298.45 c 1.7525,-0.05 3.5,0 5.25,0.3 39.14,6 78.23,12.43 117.35,18.65 0.5,16.88 -0.63,33.72 -0.95,50.6 -1.5,25.48 -0.71,51.02 -2.15,76.5 l -1.85,0.35 c -8.12,-8.1 -13.14,-18.87 -22,-26.35 -1.92,6.64 -8.07,10.5 -12.15,15.7 -8.96,11.24 -16.8,23.3 -24.2,35.6 -21,-6.08 -41.71,-13.63 -62.05,-21.75 -26.16,-8.24 -52.05,-17.26 -78.05,-26 -2.26,-0.8 -4.54,-1.75 -6,-3.75 4.82,-4.68 9.67,-9.42 13.05,-15.3 7.68,-12.66 18.73,-22.69 29.05,-33.15 8.08,-7.96 15.76,-16.44 25.1,-23 11.82,-8.28 22.64,-17.95 35,-25.45 -8.04,-6.4 -16.09,-13.11 -20.65,-22.55 1.74,-0.18 3.4975,-0.35 5.25,-0.4 z m 237,101.6 c 9,7.82 21.28,9.17 31,15.75 -9.34,-7.2 -21.42,-8.95 -31,-15.75 z m -366.35,25.9 c 7.07106,0.1571 13.64141,4.52813 20.45,6.3 75.2,23.34 150.11,47.59 225.35,70.75 9.62,1.84 19.73,7.36 22.55,17.4 4.58,11.28 6.41,25.3 -1.65,35.5 -6.48,7 -14.23,13.43 -23.35,16.65 -5.56,2.34 -10.72,-1.75 -15.9,-3.25 -21.02,-6.88 -42.14,-13.42 -63.2,-20.2 -6.26,-1.22 -12.43,-2.6 -18.05,-5.7 -49.74,-15.8 -99.49,-31.66 -149.25,-47.4 -8.62,-2.76 -19.9,-2.59 -24.3,-12.05 -0.2,-2.84 -0.31,-5.73 -1.55,-8.35 -1.32,-5.18 -2.82,-10.78 -0.8,-16 5.14,-12.96 11.42,-27.07 25,-33.05 1.12,-0.30501 2.21136,-0.48422 3.3,-0.55 0.47627,-0.0288 0.92859,-0.0605 1.4,-0.05 z m 2.4,9.2 c -4.5,2.42 -9.38,4.15 -13.6,7.05 -3.12,3.16 -4.79,7.39 -6.85,11.25 4.74,-2.04 9.49,-4.05 14.25,-6.05 2.78,5.28 5.59,10.59 8.45,15.85 4.7,-1.7 9.39,-3.47 14.05,-5.25 2.44,3.96 4.53,8.2 7.65,11.7 5.58,-1.34 10.97,-3.3 16.45,-5 4.18,5.5 8.37,11.02 12.45,16.6 4.66,-2.06 9.32,-4.3 14.1,-6.1 5.96,3.84 9.71,10.64 14.95,15.5 5.64,-2.48 11.29,-4.96 16.95,-7.4 4.14,5.48 8.18,11.04 12.1,16.7 7.14,-2.42 14.26,-4.86 21.4,-7.3 2.66,5.8 5.37,11.6 8.05,17.4 3.94,-1.76 9.14,-2.39 10.9,-6.95 3.1,-6.9 9.2,-11.41 14.9,-16.05 -55.44,-17.24 -110.62,-35.21 -166.2,-51.95 z m 177.7,55.55 c -0.02,0.56 -0.03,1.64 -0.05,2.2 -5.56,1.06 -11.46,2.59 -15.4,6.95 -8.36,9.58 -12.16,23.08 -9.8,35.6 1.74,3.52 6.05,4.11 9.35,5.45 18.1,5.32 35.79,11.98 54.05,16.7 -4.42,-11.26 -2.72,-24.49 3.8,-34.55 1.98,-1.9 3.1,1.36 4.6,2.3 2.34,-2.36 4.39,-5.02 6.45,-7.6 -6.28,10.12 -13.79,21.96 -10.35,34.4 1.98,8.94 12,11.95 20,12.25 12.56,-3.28 23.49,-14.81 22.95,-28.35 0.66,-10.36 -7.58,-18.32 -15.6,-23.4 -23.34,-7.28 -46.68,-14.57 -70,-21.95 z"
       id="path10"
       inkscape:connector-curvature="0" />
    <path
       d="m 777.54,0 246.46,0 0,793.16 c -157.38,41.78 -315,82.72 -472.44,124.36 -4.88,1.26 -9.94,1.66 -14.94,2.06 9.3,-5.4 19.38,-9.24 29.16,-13.72 139.72,-62.48 279.56,-124.68 419.2,-187.3 -15.86,-29.96 -31.74,-59.9 -47.7,-89.8 -4.08,-7.66 -6.82,-15.92 -9.76,-24.04 -12.76,-34.58 -25.48,-69.18 -38.24,-103.78 -7.46,-21.96 -17.72,-43.1 -21.8,-66.08 C 846.96,341.24 826.26,247.66 805.78,154.04 796.12,102.74 787.26,51.28 777.54,0 z"
       id="path12"
       inkscape:connector-curvature="0"
       style="fill:#f4722b" />
    <path
       d="M 0,66.54 C 82.98,58.66 165.88,49.84 248.9,42.52 165.92,61.26 83.04,80.46 0,98.9 L 0,66.54 z"
       id="path14"
       inkscape:connector-curvature="0"
       style="fill:#f4722b" />
    <path
       d="m 0,198.34 0.92,-2.24 c 4.46,38.7 9.64,77.36 15.3,115.9 19.22,102.7 38.42,205.38 57.58,308.08 2.04,10.16 5.48,19.94 8.44,29.84 17.84,58.74 35.78,117.44 53.56,176.2 2.16,7.2 5.8,13.8 9.4,20.38 24.12,45.26 47.9,90.72 72.08,135.94 10.12,14.64 22.46,27.62 33.48,41.56 L 0,1024 0,198.34 z"
       id="path22"
       inkscape:connector-curvature="0"
       style="fill:#f4722b" />
    <path
       d="m 168.26,444.12 c 5.34,-12.28 17.2,-20.42 29.66,-24.34 5.42,-0.44 10.86,0.04 16.28,0.16 0.1,1.66 0.28,4.96 0.36,6.62 -13.58,5.98 -19.88,20.08 -25.02,33.04 -2.02,5.22 -0.52,10.82 0.8,16 0.1,3.02 0.16,6.06 0.2,9.1 -7.36,-0.56 -17.38,-0.66 -20.58,-8.82 -3.94,-9.84 -7.88,-22.02 -1.7,-31.76 z"
       id="path30"
       inkscape:connector-curvature="0"
       style="fill:#f4722b" />
    <path
       d="m 833.15,597.35 c -6.09789,-0.0994 -12.19374,0.6 -18.1,2 -9.2,2.2 -17.8,6.59 -25.2,12.45 -19.86,15.64 -28.59,43.58 -21.45,67.8 5.86,20.9 23.21,38.09 44.25,43.55 25.56,7.12 54.87,-2.75 71.05,-23.75 11.84,-15 16.14,-35.66 11,-54.1 -4.76,-19.62 -19.82,-36.26 -38.6,-43.5 -7.29,-2.89125 -15.10986,-4.32216 -22.95,-4.45 z m -1.8,32.95 c 15.09458,-0.68989 30.7225,8.08501 35.15,23.1 7.86,20.74 -9.21,44.51 -30.65,46.45 -17.78,2.72 -36.43,-10.23 -39.45,-28.05 -4.24,-18.68 9.87,-37.92 28.55,-40.6 2.1,-0.4925 4.24363,-0.80144 6.4,-0.9 z"
       id="path38"
       style="fill:#3e3e3e"
       inkscape:connector-curvature="0" />
    <path
       d="m 736.44,645.66 c 6.84,3.86 13.56,7.9 20.22,12.08 -8.18,14.6 -16.4,29.18 -24.56,43.8 16.94,12.16 33.84,24.42 50.74,36.64 -6.62,8.38 -13.52,16.56 -19.82,25.2 -14.82,-9.88 -28.44,-21.44 -42.94,-31.74 -8.94,15.2 -17.8,30.46 -26.56,45.76 -8.38,-5.54 -16.8,-10.98 -25.04,-16.7 9.66,-15.68 19.12,-31.52 28.78,-47.22 -14.76,-10.7 -29.54,-21.4 -44.36,-32 6.32,-8.98 12.86,-17.8 19.32,-26.66 13.84,10.62 27.68,21.28 41.6,31.78 7.54,-13.64 15.2,-27.22 22.62,-40.94 z"
       id="path42"
       inkscape:connector-curvature="0"
       style="fill:#3e3e3e" />
    <path
       d="m 590.25,648.9 c -5.13469,0.14062 -10.24,0.84 -15.2,2.1 -10.18,2.54 -19.63,7.67 -27.45,14.65 -17.94,15.92 -25.43,42.33 -18.75,65.35 6.28,22.68 26.19,40.88 49.45,44.8 31.28,6.28 66.1,-12.74 75.9,-43.5 8.48,-24.56 -0.63,-53.46 -20.95,-69.4 -12.01499,-9.81 -27.59594,-14.42187 -43,-14 z m 2.85,32.9 c 14.76586,-0.0746 29.66,8.44501 33.95,23.2 8.1,21.56 -10.71,46.07 -33.05,46.55 -18.84,1.76 -37.72,-14.23 -37.6,-33.45 -1.42,-16.22 11.02,-31.41 26.6,-34.85 3.25875,-0.96374 6.6925,-1.43278 10.1,-1.45 z"
       id="path44"
       style="fill:#3e3e3e"
       inkscape:connector-curvature="0" />
    <path
       d="m 476.58,731.02 c 7.8,-0.34 15.6,-0.5 23.42,-0.56 1.26,16.7 1.46,33.46 2.66,50.16 20.78,1.1 41.52,2.92 62.3,3.74 -0.9,10.54 -2.36,21.02 -3.34,31.54 -17.8,0.24 -35.44,-2.58 -53.18,-3.34 0.62,17.5 0.9,35.04 2.12,52.54 -10.06,0.1 -20.1,-0.3 -30.14,-0.32 -0.58,-18.6 -0.56,-37.24 -1.06,-55.88 -18.24,-0.54 -36.48,-1.88 -54.64,-3.52 0.74,-10.84 1.82,-21.64 2.2,-32.48 17.5,1.06 34.9,3.5 52.4,4.58 -1.02,-15.48 -1.86,-30.98 -2.74,-46.46 z"
       id="path48"
       inkscape:connector-curvature="0"
       style="fill:#3e3e3e" />
    <path
       d="m 537.74,933.38 c 67.18,-15.72 134.2,-32.22 201.48,-47.44 -25.18,20.68 -51.6,39.8 -77.26,59.86 -33.82,26.12 -67.98,51.82 -101.6,78.2 l -223.5,0 c 55.86,-27.18 111.7,-54.38 167.54,-81.6 10.58,-4.68 22.22,-6.02 33.34,-9.02 z"
       id="path50"
       inkscape:connector-curvature="0"
       style="fill:#f4722b" />
  </g>
</svg>
