<?xml version="1.0" encoding="UTF-8" standalone="no"?>
<svg
   xmlns:dc="http://purl.org/dc/elements/1.1/"
   xmlns:cc="http://creativecommons.org/ns#"
   xmlns:rdf="http://www.w3.org/1999/02/22-rdf-syntax-ns#"
   xmlns:svg="http://www.w3.org/2000/svg"
   xmlns="http://www.w3.org/2000/svg"
   xmlns:sodipodi="http://sodipodi.sourceforge.net/DTD/sodipodi-0.dtd"
   xmlns:inkscape="http://www.inkscape.org/namespaces/inkscape"
   width="512pt"
   height="512pt"
   viewBox="0 0 512 512"
   version="1.1"
   id="svg2"
   inkscape:version="0.48.1 "
   sodipodi:docname="kill_spy_with_knife.svg">
  <metadata
     id="metadata72">
    <rdf:RDF>
      <cc:Work
         rdf:about="">
        <dc:format>image/svg+xml</dc:format>
        <dc:type
           rdf:resource="http://purl.org/dc/dcmitype/StillImage" />
      </cc:Work>
    </rdf:RDF>
  </metadata>
  <defs
     id="defs70" />
  <sodipodi:namedview
     pagecolor="#ffffff"
     bordercolor="#666666"
     borderopacity="1"
     objecttolerance="10"
     gridtolerance="10"
     guidetolerance="10"
     inkscape:pageopacity="0"
     inkscape:pageshadow="2"
     inkscape:window-width="1920"
     inkscape:window-height="1018"
     id="namedview68"
     showgrid="false"
     inkscape:snap-page="true"
     inkscape:zoom="1.321875"
     inkscape:cx="233.00236"
     inkscape:cy="320"
     inkscape:window-x="-8"
     inkscape:window-y="-8"
     inkscape:window-maximized="1"
     inkscape:current-layer="layer1" />
  <g
     inkscape:groupmode="layer"
     id="layer1"
     inkscape:label="background">
    <rect
       style="fill:#3e3e3e;fill-opacity:1;fill-rule:nonzero;stroke:none"
       id="rect3055"
       width="640"
       height="640"
       x="0"
       y="0"
       transform="scale(0.8,0.8)" />
  </g>
  <g
     inkscape:groupmode="layer"
     id="layer2"
     inkscape:label="foreground">
    <path
       style="fill:#f4722b"
       d="M 169.21875 50.6875 C 164.91875 52.2 160.1125 50.6375 155.9375 52.0625 C 147.3625 59.525 138.225 66.41875 130.3125 74.59375 C 133.3625 77.89375 136.4125 81.175 139.375 84.5625 C 145.8125 92.6 152.65625 100.2875 159.34375 108.125 C 222.90625 182.4625 286.43125 256.85625 349.90625 331.28125 C 354.03125 336.30625 358.38125 341.15625 362.96875 345.78125 C 365.70625 348.83125 370.45 348.6 374.125 347.9375 C 377.9875 344.575 381.775 341.13125 385.75 337.90625 C 387.3375 334.13125 383.53125 331.1375 381.65625 328.3125 C 374.01875 319.2125 368.075 308.84375 360.25 299.90625 C 346.9125 281.63125 332.89375 263.8375 319.90625 245.3125 C 314.16875 238.7625 310.0375 231.01875 304.3125 224.46875 C 298.575 217.95625 294.50625 210.18125 288.78125 203.65625 C 283.01875 197.23125 279.01875 189.5 273.34375 183 C 267.73125 176.7 263.8125 169.1 258.25 162.75 C 251.85 155.375 246.40625 147.275 240.53125 139.5 C 226.23125 120.975 212.8625 101.71875 198.1875 83.53125 C 188.05 73.85625 179.8 62.45 170.4375 52.0625 C 170.125 51.725 169.53125 51.025 169.21875 50.6875 z M 161.3125 62.15625 C 172.0375 61.68125 180.03125 74.81875 173.71875 83.84375 C 168.83125 93.18125 153.95625 92.675 149.40625 83.3125 C 144.05625 74.6125 151.3625 62.46875 161.3125 62.15625 z M 371.90625 329.53125 C 372.08792 329.51968 372.27188 329.54375 372.46875 329.5625 C 374.84375 330.2875 377.5875 332.0625 377.125 334.9375 C 377.4125 338.8125 372.8625 340.59375 369.75 339.09375 C 368.5875 337.81875 367.60625 336.375 366.59375 335 C 368.09375 333.125 369.18127 329.70474 371.90625 329.53125 z "
       id="path6"
       transform="scale(0.8,0.8)" />
    <path
       fill="#f5e5c1"
       opacity="1.00"
       d=" M 136.36 41.64 C 140.72 41.65 145.00 42.60 149.37 42.59 C 152.75 46.63 156.29 50.55 159.52 54.72 C 159.46 58.77 158.63 62.76 158.56 66.82 C 150.45 59.08 143.85 49.95 136.36 41.64 Z"
       id="path8" />
    <path
       fill="#f5e5c1"
       opacity="1.00"
       d=" M 123.25 56.02 C 123.80 53.78 126.28 53.55 127.94 52.50 C 132.63 52.16 137.74 55.52 137.89 60.50 C 137.42 60.46 136.49 60.36 136.03 60.32 C 135.01 59.91 133.99 59.50 132.98 59.07 C 131.99 58.73 131.00 58.40 130.00 58.08 C 127.77 57.33 125.53 56.60 123.25 56.02 Z"
       id="path12" />
    <path
       style="fill:#f4722b"
       d="M 126.28125 77.34375 C 119.65625 82.85625 113.16875 88.54375 106.59375 94.09375 C 104.16875 96.16875 101.4625 98.0125 99.5625 100.625 C 97.8375 104.925 98.3125 109.73125 97 114.15625 C 103.625 122.08125 111.6375 128.71875 118.1875 136.71875 C 125.2125 145.10625 133.9625 151.85 140.6875 160.5 C 147.625 167.7375 155.11875 174.41875 161.65625 182.03125 C 166.85625 187.24375 172.5 192.05 177 197.9375 C 189.825 211.35 203.4875 224.0125 215.9375 237.8125 C 221.225 244.1625 227.6625 249.40625 233 255.71875 C 237.95 261.60625 244.2875 266.1375 249.0625 272.1875 C 255.375 280 263.425 286.15625 269.875 293.84375 C 274.65 299.46875 280.5625 303.9625 285.375 309.5625 C 293.3875 319.45 303.575 327.34375 311.6875 337.15625 C 323.3375 348.35625 334.5375 360.01875 345.5 371.90625 C 350.4625 368.43125 354.58125 363.94375 359.53125 360.46875 C 359.74375 357.44375 360.23125 354.3875 359.71875 351.375 C 357.96875 347.925 355.01875 345.30625 352.59375 342.34375 C 286.95625 265.43125 221.3 188.5 155.6875 111.5625 C 149.0375 103.8375 142.51875 96.025 135.78125 88.375 C 132.69375 84.625 129.68125 80.81875 126.28125 77.34375 z M 124.1875 95.59375 C 125.54707 95.605078 126.89062 95.875 128.1875 96.5 C 132.275 98.0625 134.23125 102.26875 135.46875 106.15625 C 134.38125 111.41875 130.99375 117.50625 124.78125 117.15625 C 116.93125 118.30625 110.25 108.71875 114.3125 101.84375 C 116.09375 98.05625 120.10879 95.559766 124.1875 95.59375 z M 347.3125 350.65625 C 349.1125 352.15625 352.2875 353.41875 351.9375 356.28125 C 352.4125 359.73125 348.4625 360.71875 346.1875 362.15625 C 344.35 360.11875 341.1375 358.19375 342.125 354.96875 C 343.025 352.71875 345.4 351.83125 347.3125 350.65625 z "
       id="path14"
       transform="scale(0.8,0.8)" />
    <path
       fill="#f5e5c1"
       opacity="1.00"
       d=" M 120.17 61.15 C 121.79 61.41 123.40 61.70 125.00 62.01 C 128.67 63.39 132.61 64.04 136.11 65.87 C 135.28 69.82 130.37 70.13 127.14 69.55 C 123.05 68.87 121.27 64.64 120.17 61.15 Z"
       id="path16" />
    <path
       fill="#f5e5c1"
       opacity="1.00"
       d=" M 111.51 67.64 C 116.66 74.07 122.12 80.24 127.47 86.51 C 126.50 87.43 125.53 88.34 124.56 89.26 C 119.24 83.08 114.02 76.83 108.63 70.71 C 110.07 70.15 110.92 69.02 111.51 67.64 Z"
       id="path18" />
    <path
       fill="#f5e5c1"
       opacity="1.00"
       d=" M 93.68 83.20 C 94.90 81.90 96.07 80.57 97.22 79.21 L 98.29 80.16 C 98.43 83.46 97.03 86.62 96.43 89.83 C 95.97 89.77 95.06 89.64 94.61 89.58 C 93.70 87.56 93.44 85.38 93.68 83.20 Z"
       id="path22" />
    <path
       fill="#f5e5c1"
       opacity="1.00"
       d=" M 102.58 81.13 C 103.03 81.21 103.94 81.39 104.39 81.47 C 105.68 83.98 105.50 86.73 104.54 89.31 C 103.16 90.01 101.76 90.70 100.35 91.34 C 100.84 87.89 101.67 84.49 102.58 81.13 Z"
       id="path24" />
    <path
       fill="#f5e5c1"
       opacity="1.00"
       d=" M 431.83 123.38 C 435.74 122.40 439.62 123.90 443.30 125.08 C 449.22 126.74 454.58 129.95 459.60 133.40 C 466.27 139.81 473.06 146.10 479.44 152.80 C 465.85 189.54 452.72 226.46 439.22 263.24 C 438.05 266.24 437.50 269.73 434.89 271.89 C 431.46 263.18 427.84 254.53 424.89 245.64 C 418.65 252.22 413.76 259.93 407.85 266.80 C 407.08 256.73 405.67 246.73 404.76 236.68 C 408.74 225.98 411.59 214.91 415.20 204.09 C 416.63 198.99 418.44 194.01 419.81 188.90 L 420.19 188.17 C 425.00 172.11 430.13 156.15 435.07 140.13 C 436.01 136.94 437.72 133.94 437.78 130.54 C 438.10 130.12 438.74 129.29 439.06 128.88 C 436.83 126.81 434.36 125.05 431.83 123.38 Z"
       id="path26" />
    <path
       fill="#f5e5c1"
       opacity="1.00"
       d=" M 410.06 144.68 C 411.76 137.44 414.82 130.60 416.90 123.47 C 419.96 123.54 423.02 123.66 426.08 123.68 C 429.89 124.18 432.98 126.47 435.87 128.83 C 430.99 147.76 424.47 166.22 418.81 184.93 C 417.02 191.01 414.97 197.02 413.18 203.11 C 410.20 212.38 407.43 221.71 404.39 230.95 C 403.67 232.91 403.49 235.00 403.33 237.07 C 399.99 240.49 396.92 244.17 393.49 247.51 C 389.65 251.27 386.49 255.76 381.99 258.81 C 381.49 258.37 380.50 257.49 380.00 257.05 C 387.51 234.21 394.65 211.25 402.16 188.41 C 404.48 181.66 404.85 174.47 406.23 167.50 C 407.57 159.90 408.79 152.29 410.06 144.68 Z"
       id="path28" />
    <path
       fill="#f5e5c1"
       opacity="1.00"
       d=" M 363.27 199.19 C 366.77 199.60 370.27 200.09 373.76 200.59 C 368.80 216.24 364.20 232.01 358.92 247.56 C 359.77 231.40 361.98 215.32 363.27 199.19 Z"
       id="path30" />
    <path
       d="M 78.21875 267.25 C 76.765625 267.28887 75.3125 267.50625 73.875 267.9375 C 67.775 269.4625 61.4 269.7875 55.4375 271.8125 C 51.0375 274.3 47.1375 277.6 42.875 280.3125 C 38.8875 282.45 37.69375 287.0375 35.71875 290.75 C 33.34375 296.1625 29.3375 301.2875 29.6875 307.5 C 29.7375 314.525 28.2125 321.74375 30.4375 328.59375 C 33.15 338.09375 34.9875 347.85 38 357.25 C 43.7875 369.425 50.81875 381.0125 56.59375 393.1875 C 59.46875 401.65 61.325 410.4375 63.875 419 C 65.1875 422.2875 67.00625 426.0875 70.78125 427 C 75.94375 428.6 80.99375 430.5125 85.84375 432.9375 C 95.10625 436.3125 102.9125 444.275 105.4375 453.875 C 106.1875 460.1125 106.775 466.9625 103.875 472.75 C 98.8875 479.1375 96.4625 487 93.5625 494.4375 C 96.45 494.8625 97.675 492.4 98.9375 490.3125 C 111.8625 491.2875 124.7125 493.35 137.625 494.5 C 149.4625 496 161.4 496.7625 173.125 499.0625 C 183.25 500.075 193.475 500.25 203.5 502.1875 C 209.3875 503.3875 215.4625 502.84375 221.375 503.96875 C 239.7125 506.39375 258.08125 508.7875 276.40625 511.375 C 279.26875 511.9 282 510.675 284.6875 509.875 C 291.625 507.6875 298.44375 505.1625 305.46875 503.25 C 296.53125 502.325 287.66875 500.91875 278.71875 500.15625 C 248.68125 496.19375 218.50625 493.2625 188.46875 489.375 C 188.03125 490.0625 187.15625 491.4375 186.71875 492.125 C 184.96875 492.9625 185.05 490.06875 184.1875 489.21875 C 178.2 488.16875 172.0875 488.125 166.125 486.875 C 157.0875 485.0625 147.8 485.7875 138.6875 484.6875 C 130.225 484.475 121.925 482.43125 113.4375 482.65625 C 113.2625 482.06875 112.89375 480.88125 112.71875 480.28125 C 114.44375 469.83125 113.725 459.18125 115.1875 448.71875 C 115.8125 440.91875 117.14375 433.19375 116.96875 425.34375 C 129.71875 425.18125 142.26875 427.84375 154.96875 428.28125 C 165.98125 429.25625 177.01875 429.6875 188.03125 430.625 C 188.08125 429.775 188.2 428.06875 188.25 427.21875 C 188.8 427.50625 189.8875 428.0875 190.4375 428.375 C 191.225 433.5 189.85 438.5625 189.4375 443.625 C 189.325 457.8875 187.525 472.06875 187.6875 486.34375 C 194.8375 487.01875 201.96875 488.025 209.03125 489.4375 C 210.70625 470.425 211.8375 451.3125 213.9375 432.375 C 214.0875 430.8625 214.23125 429.325 214.34375 427.8125 L 216.25 428.25 C 214.975 421.0125 211.95625 413.85625 206.28125 408.96875 C 200.04375 408.16875 193.74375 408.28125 187.46875 407.84375 C 182.00625 407.50625 176.81875 404.275 173.90625 399.6875 C 170.38125 391.5125 168.98125 382.5625 165.34375 374.4375 C 161.99375 368.15 154.48125 366.5875 148.46875 363.9375 C 143.33125 361.2875 137.75 364.13125 132.4375 364.59375 C 128.0375 368.66875 124.1 373.425 118.9375 376.5625 C 112.05 378.5875 106.18125 373.98125 101.09375 370.03125 C 100.44375 367.13125 99.55 364.25625 99.3125 361.28125 C 97.9875 354.30625 106.08125 350.65 106.78125 344.0625 C 99.21875 341.3625 95.86875 333.4375 94.21875 326.1875 C 94.55625 321.55 95.925 316.975 97.6875 312.6875 C 102.5875 304.175 108.2375 296.0875 113 287.5 C 113.0625 284.125 110.3625 281.3 109.1875 278.1875 C 103.2 275.2875 97.3625 272.0125 91.1875 269.5 C 86.96875 268.49688 82.578125 267.1334 78.21875 267.25 z M 144.09375 369.03125 C 144.96565 368.99885 145.8625 369.02969 146.75 369.125 C 152.3625 369.3125 156.35 373.7625 160.1875 377.3125 C 163.8 380.4375 163.90625 385.50625 165.21875 389.78125 C 166.14375 394.01875 167.91875 398.175 167.90625 402.5625 C 167.94375 405.1 165.56875 406.46875 164.03125 408.09375 C 158.90625 407.28125 153.775 406.5875 148.625 405.875 C 143.0875 405.1875 137.0625 407.00625 131.875 404.28125 C 128.275 402.73125 125.5375 399.85625 123.0625 396.90625 C 123.325 389.98125 124.48125 382.91875 128.21875 376.96875 C 132.34219 372.48438 137.99045 369.25803 144.09375 369.03125 z "
       id="path32"
       style="fill:#f5e5c1"
       transform="scale(0.8,0.8)" />
    <path
       fill="#f5e5c1"
       opacity="1.00"
       d=" M 307.09 257.79 C 310.10 257.30 313.09 256.62 316.13 256.32 C 317.75 259.57 320.77 262.33 321.60 265.84 C 319.49 270.64 316.78 275.16 314.59 279.93 C 320.97 286.42 326.51 293.68 333.06 300.00 C 339.95 306.47 345.53 314.12 351.97 321.01 C 363.04 333.65 374.78 345.68 385.77 358.40 C 395.63 369.10 405.54 379.76 415.14 390.69 C 419.97 396.51 425.92 401.44 430.12 407.75 C 440.38 430.03 450.82 452.24 460.83 474.62 C 450.46 473.58 440.13 472.18 429.91 470.15 C 423.36 468.69 417.45 465.30 411.55 462.26 C 404.69 456.54 397.83 450.75 391.48 444.46 C 383.04 434.29 373.89 424.67 366.28 413.84 C 346.19 386.85 326.42 359.62 306.15 332.77 C 299.12 323.97 293.21 314.33 286.23 305.49 C 280.49 304.89 274.91 308.15 269.06 307.61 C 267.15 304.43 264.87 301.48 262.27 298.83 C 262.51 296.46 263.38 294.21 264.69 292.23 C 268.42 295.46 271.34 299.71 274.56 303.49 C 274.92 303.47 275.64 303.43 276.00 303.41 C 281.16 298.67 287.18 294.81 291.58 289.29 C 291.62 287.81 291.64 286.32 291.64 284.84 C 292.12 282.18 294.42 281.33 296.88 281.78 C 298.38 282.43 300.30 282.96 301.57 281.55 C 306.38 277.94 310.67 273.70 315.37 269.95 C 315.40 269.61 315.46 268.93 315.49 268.59 C 312.72 264.98 308.93 262.01 307.09 257.79 Z"
       id="path34" />
    <path
       fill="#f5e5c1"
       opacity="1.00"
       d=" M 450.22 299.43 C 460.10 295.84 470.06 292.48 479.97 288.97 C 480.17 294.48 480.99 299.93 481.57 305.41 C 471.12 303.41 460.67 301.42 450.22 299.43 Z"
       id="path40" />
    <path
       fill="#f5e5c1"
       opacity="1.00"
       d=" M 219.57 294.96 C 226.07 302.88 232.52 310.84 238.95 318.82 C 229.99 314.35 221.04 309.89 212.10 305.39 C 214.60 301.92 217.09 298.45 219.57 294.96 Z"
       id="path44" />
    <path
       fill="#f4722b"
       opacity="1.00"
       d=" M 345.02 296.53 C 359.33 297.89 373.61 299.76 387.96 300.67 C 382.96 304.24 377.97 307.86 373.42 311.98 C 387.01 319.19 401.21 325.21 414.89 332.23 C 414.92 333.59 413.39 333.93 412.55 334.67 C 407.24 338.27 402.06 342.07 396.90 345.88 C 408.09 354.45 419.12 363.29 430.88 371.07 C 437.60 376.04 444.14 381.27 450.96 386.11 C 452.16 386.98 453.19 388.07 454.18 389.17 C 446.86 390.25 439.69 392.29 432.31 392.94 C 427.14 388.63 423.44 382.95 418.39 378.56 C 416.62 375.74 414.61 373.09 411.86 371.16 C 406.19 365.48 401.45 358.91 395.64 353.37 C 392.00 349.97 389.24 345.78 385.70 342.29 C 381.45 336.91 376.39 332.25 372.11 326.89 C 364.37 319.94 358.34 311.39 351.14 303.96 C 349.29 301.33 347.26 298.83 345.02 296.53 Z"
       id="path46" />
    <path
       fill="#f5e5c1"
       opacity="1.00"
       d=" M 102.69 317.06 C 100.78 308.36 107.77 300.04 116.08 298.41 C 117.51 298.25 118.74 298.74 119.76 299.89 C 115.29 302.25 110.72 305.67 109.37 310.79 C 109.04 315.53 112.41 319.14 115.09 322.62 C 110.52 322.43 105.42 321.00 102.69 317.06 Z"
       id="path48" />
    <path
       fill="#f5e5c1"
       opacity="1.00"
       d=" M 414.17 314.37 C 426.15 315.88 438.13 317.38 450.11 318.88 C 449.69 324.17 448.28 329.25 445.25 333.66 C 434.94 327.14 424.54 320.78 414.17 314.37 Z"
       id="path50" />
    <path
       fill="#f4722b"
       opacity="1.00"
       d=" M 276.60 337.91 C 277.35 331.72 281.72 326.99 284.79 321.84 C 288.07 324.87 289.74 329.07 292.36 332.60 C 299.07 340.65 304.52 349.66 311.51 357.49 C 314.69 360.83 316.18 365.34 319.34 368.69 C 324.14 374.00 327.32 380.56 332.33 385.70 C 335.48 388.99 337.18 393.34 340.25 396.70 C 345.57 402.87 348.92 410.47 354.71 416.25 C 363.58 429.76 374.99 441.29 385.42 453.55 C 387.54 456.11 390.14 458.18 392.75 460.20 C 397.47 463.77 400.79 469.07 406.27 471.65 C 411.23 473.96 416.18 476.29 421.06 478.77 C 425.29 481.08 430.25 480.83 434.77 482.19 C 436.54 492.13 438.13 502.10 440.10 512.00 L 440.07 512.00 C 412.78 487.41 385.64 462.65 358.41 438.01 C 353.35 455.79 348.89 473.73 343.94 491.54 C 339.91 481.95 333.59 473.64 328.03 464.92 C 316.42 447.19 304.84 429.45 293.28 411.69 C 287.73 415.97 283.10 421.25 278.04 426.05 C 270.44 433.67 262.68 441.12 255.20 448.85 C 258.76 433.60 261.24 418.12 264.47 402.79 C 268.52 381.17 273.20 359.65 276.60 337.91 Z"
       id="path52" />
    <path
       fill="#f5e5c1"
       opacity="1.00"
       d=" M 94.29 371.12 C 94.48 361.56 95.29 352.00 96.48 342.52 C 110.82 345.25 125.49 344.81 139.94 346.45 C 139.73 347.77 139.53 349.10 139.32 350.43 C 142.43 351.40 145.67 351.88 148.93 351.91 C 148.84 355.35 148.63 358.78 148.35 362.22 C 144.48 362.20 139.60 361.45 136.92 364.98 C 135.49 366.88 136.71 369.37 138.32 370.72 C 140.72 373.22 144.48 372.55 147.59 372.78 C 147.31 375.70 146.92 378.62 146.56 381.54 C 143.27 381.48 139.95 381.25 136.70 381.80 C 134.72 386.24 141.40 385.59 142.70 388.12 C 140.75 387.28 138.61 387.20 136.54 386.89 C 122.14 385.57 107.83 383.20 93.37 382.48 C 93.47 378.94 93.61 375.41 93.73 371.88 L 94.29 371.12 Z"
       id="path54" />
    <path
       fill="#f5e5c1"
       opacity="1.00"
       d=" M 172.61 362.44 C 172.66 356.41 173.82 350.44 173.70 344.40 C 195.18 346.53 216.63 349.05 238.15 350.80 C 244.33 357.56 249.99 364.76 256.09 371.59 C 228.61 368.71 201.11 365.94 173.61 363.25 C 173.36 363.05 172.86 362.64 172.61 362.44 Z"
       id="path56" />
    <path
       fill="#f5e5c1"
       opacity="1.00"
       d=" M 70.85 350.99 C 75.79 353.91 80.04 358.49 81.43 364.18 C 82.14 368.60 81.78 373.14 80.96 377.52 C 78.82 375.40 77.18 372.86 75.37 370.47 C 74.57 369.19 72.74 369.01 71.46 369.59 C 66.36 371.66 61.41 374.40 55.97 375.40 C 53.49 374.69 51.12 373.67 48.65 372.94 C 48.46 371.82 48.27 370.70 48.09 369.59 C 51.23 369.30 54.36 368.86 57.41 368.06 C 61.96 366.48 64.95 362.46 67.96 358.93 C 69.92 356.75 70.10 353.68 70.85 350.99 Z"
       id="path58" />
    <path
       fill="#f5e5c1"
       opacity="1.00"
       d=" M 172.43 365.32 C 194.95 367.39 217.47 369.70 239.95 372.16 C 243.29 372.45 246.67 372.48 249.96 373.15 C 253.09 373.47 256.42 373.25 259.24 374.88 C 249.89 377.13 240.39 378.72 231.01 380.85 C 240.32 386.15 249.29 392.05 258.79 397.01 C 258.64 397.28 258.36 397.80 258.21 398.06 C 254.47 399.00 250.89 401.10 246.91 400.55 C 241.94 400.16 236.97 399.63 232.05 398.85 C 226.38 398.31 220.70 397.70 215.07 396.85 C 200.00 395.17 184.93 393.45 169.91 391.42 C 170.68 382.71 171.29 373.98 172.43 365.32 Z"
       id="path60" />
    <path
       fill="#f5e5c1"
       opacity="1.00"
       d=" M 454.87 393.91 C 468.81 399.70 482.63 405.78 496.53 411.69 C 494.66 415.95 492.70 420.17 490.97 424.48 C 488.19 421.41 484.84 418.97 481.70 416.31 C 472.77 408.83 463.79 401.40 454.87 393.91 Z"
       id="path62" />
    <path
       fill="#f5e5c1"
       opacity="1.00"
       d=" M 206.15 450.62 C 217.57 449.19 228.89 446.94 240.37 446.09 C 230.55 452.27 220.53 458.11 210.57 464.06 C 209.10 459.58 207.59 455.11 206.15 450.62 Z"
       id="path64" />
    <path
       fill="#f5e5c1"
       opacity="1.00"
       d=" M 274.96 495.48 C 282.03 485.06 288.92 474.52 295.97 464.09 C 296.50 476.56 296.95 489.04 297.43 501.52 C 289.94 499.52 282.43 497.57 274.96 495.48 Z"
       id="path66" />
  </g>
</svg>
