<?xml version="1.0" encoding="UTF-8" standalone="no"?>
<svg
   xmlns:dc="http://purl.org/dc/elements/1.1/"
   xmlns:cc="http://creativecommons.org/ns#"
   xmlns:rdf="http://www.w3.org/1999/02/22-rdf-syntax-ns#"
   xmlns:svg="http://www.w3.org/2000/svg"
   xmlns="http://www.w3.org/2000/svg"
   xmlns:sodipodi="http://sodipodi.sourceforge.net/DTD/sodipodi-0.dtd"
   xmlns:inkscape="http://www.inkscape.org/namespaces/inkscape"
   width="1280"
   height="1280"
   viewBox="0 0 1024 1024"
   version="1.1"
   id="svg2"
   inkscape:version="0.48.1 "
   sodipodi:docname="kill_working_engy.svg">
  <metadata
     id="metadata98">
    <rdf:RDF>
      <cc:Work
         rdf:about="">
        <dc:format>image/svg+xml</dc:format>
        <dc:type
           rdf:resource="http://purl.org/dc/dcmitype/StillImage" />
      </cc:Work>
    </rdf:RDF>
  </metadata>
  <defs
     id="defs96" />
  <sodipodi:namedview
     pagecolor="#ffffff"
     bordercolor="#666666"
     borderopacity="1"
     objecttolerance="10"
     gridtolerance="10"
     guidetolerance="10"
     inkscape:pageopacity="0"
     inkscape:pageshadow="2"
     inkscape:window-width="1920"
     inkscape:window-height="1018"
     id="namedview94"
     showgrid="false"
     inkscape:snap-page="true"
     fit-margin-top="0"
     fit-margin-left="0"
     fit-margin-right="0"
     fit-margin-bottom="0"
     inkscape:zoom="0.6609375"
     inkscape:cx="640"
     inkscape:cy="640"
     inkscape:window-x="-8"
     inkscape:window-y="-8"
     inkscape:window-maximized="1"
     inkscape:current-layer="layer1" />
  <g
     inkscape:groupmode="layer"
     id="layer1"
     inkscape:label="background">
    <rect
       style="fill:#3e3e3e;fill-opacity:1;fill-rule:nonzero;stroke:none"
       id="rect3077"
       width="1024"
       height="1024"
       x="0"
       y="0" />
  </g>
  <g
     inkscape:groupmode="layer"
     id="layer2"
     inkscape:label="foreground">
    <path
       d="M 153.24,90.7 C 188.82,79.86 224.38,68.94 259.9,58 c 17.4,19.82 34.54,39.88 51.9,59.72 -93.12,26.08 -186.3,51.98 -279.4,78.12 -1.6,-9.46 7.14,-15.02 13.22,-20.42 28.8,-25.1 57.42,-50.38 86.04,-75.68 5.96,-5.4 14.2,-6.62 21.58,-9.04 z"
       id="path6"
       inkscape:connector-curvature="0"
       style="fill:#f4722b" />
    <path
       d="m 33.78,197.52 c 92.9,-24.92 185.76,-50 278.66,-74.92 2.36,19.48 1.44,39.1 1.48,58.64 -33.76,8.7 -67.52,17.46 -101.22,26.44 -7.18,-12.9 -11.42,-27.16 -18.36,-40.16 3.06,12.14 7.62,23.82 11.4,35.74 -53.58,15.2 -107.08,30.68 -160.68,45.82 -6.46,-16.5 -7.46,-34.4 -11.28,-51.56 z"
       id="path8"
       inkscape:connector-curvature="0"
       style="fill:#f4722b" />
    <path
       d="m 203.36,215.02 c 36.7,-10.3 73.78,-19.2 110.68,-28.84 5.84,16.44 11.92,32.8 17.46,49.36 -42.18,11.48 -84.22,23.44 -126.34,35.14 -8.3,2.1 -16.54,5.94 -25.3,4.68 -39.66,-4.52 -79.38,-8.72 -119.04,-13.36 -0.96,-3.34 -1.94,-6.68 -2.92,-10 48.5,-12.3 96.86,-25.12 145.46,-36.98 z"
       id="path10"
       inkscape:connector-curvature="0"
       style="fill:#f4722b" />
    <path
       d="m 768.06,244.56 c 35.86,-4.04 71.84,-7.72 107.96,-7.86 3.9,-0.52 6.04,3.1 8.24,5.62 -7.66,4.42 -16.26,7.2 -23.26,12.7 -3.6,2.2 -2.04,6.94 -2.62,10.42 8.7,0.86 17.22,-1.1 25.36,-4 15.08,3.3 30.8,4.54 46.08,1.72 11.28,-1.14 22.56,-5.92 33.92,-2.8 6.16,1.38 12.48,0.52 18.72,0.54 0.88,3.02 1.76,6.06 2.64,9.1 10.46,-4.08 21.74,-9.5 33.14,-5.7 -4,4.72 -8.3,9.34 -13.7,12.44 -16.54,9.7 -34.44,16.8 -51.06,26.34 -13.42,7.34 -26.64,15.14 -40.66,21.34 -11.62,4.16 -23.02,9.46 -32.58,17.4 -14.68,10.32 -31.26,17.44 -47.12,25.72 -18,2.8 -35.52,8.08 -52.52,14.58 -10.46,-5.18 -22.42,-8.62 -30.32,-17.7 7.56,-6.94 15.3,-14.72 26.08,-15.88 5.9,-8.3 16.76,-8.34 25.72,-10.78 10.6,-2.76 21.88,-2.96 31.9,-7.72 7.52,-3.4 15.3,-6.3 23.5,-7.54 3.22,1 8.6,2.6 10.1,-1.8 -3.36,-0.56 -6.74,-0.78 -10.06,-1.18 -1.2,-6.12 1.58,-11.34 6.18,-15.18 -9.18,-1.54 -18.44,-0.64 -27.64,-1.08 -6.32,-0.08 -9.96,-8.3 -6.12,-13.1 4.52,-4.58 9.54,-8.64 13.9,-13.42 -13.38,1.22 -26.6,3.98 -40,4.88 -4.86,0.52 -9.12,-2.24 -13.36,-4.12 -5.7,0.8 -11.44,1.06 -17.18,1.12 0.08,-0.64 0.2,-1.9 0.28,-2.54 5.7,-1.44 12.1,-1.74 16.92,-5.48 17.28,-16.28 41.96,-20.12 64.56,-23.26 -14.76,-4.26 -30.04,-0.74 -44.94,0.62 -13.64,3.32 -27.34,6.48 -41.32,7.96 -0.26,-3.78 -0.5,-7.58 -0.74,-11.36 z"
       id="path12"
       inkscape:connector-curvature="0"
       style="fill:#f4722b" />
    <path
       d="m 189.92,278.42 c 47.84,-13.46 95.66,-26.98 143.56,-40.14 0.4,19.8 -2.52,39.48 -3.16,59.26 5.22,-0.54 10.44,-1.06 15.66,-1.6 3.12,8.74 6.26,17.48 9.34,26.24 -43.14,11.44 -86.3,22.88 -129.46,34.24 -7.2,1.86 -13.54,5.86 -19.86,9.6 -0.58,5.22 -1.18,10.46 -1.78,15.68 -1.04,-0.42 -3.14,-1.24 -4.2,-1.66 -2.24,-12.7 -3.26,-25.6 -6.04,-38.18 -3.3,-7.42 -9.98,-12.74 -15.24,-18.78 -2.6,-3.44 -7.08,-3.56 -10.98,-4.12 C 136.5,315.44 105.28,311.7 74.04,308 70.18,294.8 66.48,281.54 62.62,268.32 c 34.38,3.22 68.74,6.6 103.12,9.96 8,0.64 16.28,2.54 24.18,0.14 z"
       id="path14"
       inkscape:connector-curvature="0"
       style="fill:#f4722b" />
    <path
       d="m 753.06,247.58 c 4.34,-1.24 8.78,-2.16 13.3,-2.7 -2.16,2.36 -4.12,4.9 -6.56,7 -2.3,-1.36 -4.56,-2.8 -6.74,-4.3 z"
       id="path16"
       inkscape:connector-curvature="0"
       style="fill:#f4722b" />
    <path
       d="m 718.12,253.6 c 10.68,-1.66 21.12,-5.5 32.08,-4.46 -17.06,7.1 -35.68,8.16 -53.32,13.08 -12.16,2.96 -24.34,6.36 -36.9,6.94 -22.52,1.56 -43.84,9.96 -66.22,12.22 -18.7,1.58 -37.14,8 -56.04,4.62 17.42,-2.78 34.68,-6.52 52.2,-8.66 16.56,-1.2 32.58,-5.86 48.9,-8.54 13.68,-2.42 27.64,-2.88 41.2,-5.88 12.82,-2.66 25.14,-7.32 38.1,-9.32 z"
       id="path18"
       inkscape:connector-curvature="0"
       style="fill:#f4722b" />
    <path
       d="m 469.48,267.24 c 10.72,-5.84 22.82,-7.82 34.64,-10.22 8.94,-1.4 17.82,1.02 26.62,2.42 0.38,0.9 1.16,2.74 1.56,3.66 -14.98,0.24 -29.2,5.24 -43.86,7.56 -22.58,4.18 -45.26,9.1 -68.34,8.52 -11.44,-0.5 -22.86,1.56 -34.26,0.62 -0.32,-1.08 -0.96,-3.26 -1.28,-4.34 10.64,-5.72 22.4,-0.46 33.56,-0.44 24.36,0.7 49.58,0.34 72.76,-7.92 8.36,-4.92 18.5,-3.04 27.04,-7.36 -6.28,-1.54 -12.7,-0.7 -18.72,1.44 -9.9,2.04 -19.72,4.54 -29.72,6.06 z"
       id="path20"
       inkscape:connector-curvature="0"
       style="fill:#f4722b" />
    <path
       d="m 957.1,301.92 c 21.96,-11.64 44.7,-21.76 66.9,-32.96 l 0,182.2 c -2.22,-33.14 -13.94,-64.66 -26.08,-95.28 -8.06,-21.32 -21.12,-41.7 -40.82,-53.96 z"
       id="path22"
       inkscape:connector-curvature="0"
       style="fill:#f5e5c1" />
    <path
       d="m 912.82,324.42 c 14.02,-6.2 27.24,-14 40.66,-21.34 l 1.78,1.06 c 14.22,11.54 26.56,25.68 34.02,42.54 7.88,17.98 15.04,36.32 20.44,55.22 2.38,7.3 4.64,14.68 6.04,22.24 l 0.76,1.56 c 3.26,20.6 4.84,41.42 4.72,62.28 2.62,22.82 1.52,45.84 1.52,68.76 -21.36,1.6 -42.74,2.5 -64.1,4.1 3.22,-14.08 1.88,-28.6 3.94,-42.82 -0.42,-11.96 -1.54,-23.96 -2.88,-35.86 -2.18,-44.42 -20.88,-87.02 -48.94,-121.14 -7.24,-7.78 -15.7,-14.4 -24.68,-20.06 8.62,-5.94 17.32,-11.84 26.72,-16.54 z"
       id="path24"
       inkscape:connector-curvature="0"
       style="fill:#f5e5c1" />
    <path
       d="m 356.15,326.2 c -36.32,9.52 -72.6,19.09 -108.9,28.65 -12.9,3.74 -27.48,4.86 -37.3,15.1 0.04,4.7 0.05,9.4 0.05,14.1 6,8.14 14.04,15.4 16.2,25.7 6.46,24.12 13.18,48.17 19.8,72.25 -2.68,3.34 -5.32,6.69 -8,10.05 2.02,13.32 4.04,26.63 6,39.95 7.04,7.02 15.55,12.29 25.45,14.05 -1.86,-7.62 -3.79,-15.26 -5.55,-22.9 16.74,-6.22 33.39,-12.75 50.05,-19.15 -2.44,-11.28 -5.25,-22.48 -8.65,-33.5 -1.66,0.48 -3.29,1 -4.95,1.5 -3.44,-2.02 -6.89,-4.05 -10.35,-6.05 -9.44,-25.2 -18.93,-50.35 -28.35,-75.55 2.68,-4.58 5.36,-9.16 8.1,-13.7 11.08,28.72 20.34,58.12 30.7,87.1 2.5,0.74 5.03,1.48 7.55,2.2 4.66,12.68 8.95,25.48 14.05,38 -18.68,6.68 -37.32,13.34 -56,20 4.28,14.4 8.79,28.74 12.95,43.2 2.42,9.58 11.06,15.46 17,22.8 16.18,-4 33.24,-5.6 48,-13.9 14.8,46.06 28.7,92.4 43.4,138.5 9.26,32.12 19.21,64.05 29.85,95.75 3.28,10.6 6.27,21.32 10.75,31.5 4,9.22 4.74,20.43 12.6,27.55 6.18,5.68 12.14,12.35 20.3,15.15 15.48,2.84 31.53,0.92 46.65,-3.1 9.5,-2.76 16.02,-10.81 21.8,-18.35 5.82,-7.32 10.97,-15.77 11.55,-25.35 0.42,-11.34 0.97,-23.02 -2.85,-33.9 -5.96,-24.98 -21.7,-46.39 -26.9,-71.55 -2.6,-5.64 -7.19,-10.15 -9.55,-15.95 -35.84,-81.58 -71.8,-163.12 -107.6,-244.7 13.36,-2.94 26.73,-5.85 39.95,-9.35 3.68,-0.48 4.89,-4.24 6.85,-6.8 2.5,-1 5.03,-2 7.55,-3 -19.22,3.56 -37.89,9.48 -57.05,13.3 C 375.72,429.8 359.7,393.96 344,358 l 14,-4 c -0.62,-9.26 -1.21,-18.54 -1.85,-27.8 z M 248.9,378.8 c 4.78768,-0.14294 9.5875,1.1175 13.7,4.25 -10.18,-3.88 -21.65,-3.81 -30.95,2.35 4.90501,-3.91501 11.0944,-6.41622 17.25,-6.6 z"
       id="path26"
       style="fill:#f4722b"
       inkscape:connector-curvature="0" />
    <path
       d="m 880.25,341.8 c -14.68,10.32 -31.29,17.47 -47.15,25.75 -12.14,7.1 -24.61,13.65 -37.45,19.35 -5.28,0.36 -10.17,-3.08 -15.05,-4.8 -10.46,-5.18 -22.4,-8.62 -30.3,-17.7 l -0.8,-0.75 c -10.14,-4.28 -19.64,-13.35 -31.4,-10.55 -28.2,3.98 -56.43,9.74 -85.05,7.4 -1.16,0.74 -2.31,1.46 -3.45,2.2 -3.7,-0.7 -7.65,-2.16 -11.25,-0.3 -14.02,5.32 -27.64,11.74 -41.8,16.7 -4.56,1.58 -6.63,6.29 -9.25,9.95 4.64,6.08 8.04,14.6 16.3,16.4 13.14,3.84 26.69,6.16 40.35,6.9 6.88,1.04 10.36,-6.58 12.3,-11.9 1.88,-10.64 2.81,-22.54 -2.95,-32.2 0.94,-1.26 1.87,-2.53 2.85,-3.75 6.24,9.22 7.63,20.47 6.65,31.35 12.96,-0.72 26.01,-0.93 38.75,1.95 3.54,1 8.12,0.85 10.5,4.15 8.8,11.24 16.77,23.16 26.35,33.8 7.52,8.28 13.42,18.79 23.9,23.75 19.42,7.56 41.21,10.33 58.45,22.75 -14.32,1.32 -28.68,2.17 -42.9,4.45 -15.32,2.58 -30.98,1.68 -46.3,4.3 -8.5,-11.22 -17.31,-22.42 -23.75,-35 -5.48,-10.32 -11.04,-22.02 -21.7,-27.8 -7.96,2.36 -15.44,6.9 -24,6.9 -35,0.84 -70.76,-0.36 -104.6,10.1 10.96,9.72 14.73,24.73 15.15,38.85 0.26,9.26 -4.19,18.49 -12.35,23.15 19,1.4 37.97,2.64 57.05,2.5 -20.32,6 -41.25,9.71 -62.05,13.55 17.3,12.38 22.47,34.72 21.25,54.9 21.22,-3.2 42.69,-3.36 64.05,-5.1 -24.08,8.62 -49.43,14.05 -72.65,24.85 4.32,5.04 9.79,9.21 12.85,15.25 4.3,8.64 6.72,18.07 8.4,27.55 12.14,-3.16 24.48,-5.56 36.9,-7.3 13.14,-1.88 25.21,-7.64 37.85,-11.3 -11.64,10.28 -23.79,19.95 -35.25,30.45 10.66,0.1 21.35,2.8 30.55,8.2 8.68,5.24 13.53,14.59 17.05,23.75 13.08,-7.2 25.98,-15.03 36.6,-25.65 13.52,-10.76 28.08,-20.36 43.5,-28.2 11.42,-5.98 21.94,-13.76 34,-18.5 19.74,-7.58 40.4,-12.78 59.3,-22.5 10.26,-5.56 21.26,-9.64 31.9,-14.4 6.52,-2.72 13.1,-5.69 20.2,-6.45 24.4,-1.16 48.44,-5.74 72.7,-8.2 4.84,-30.1 3.21,-60.82 -0.05,-91 -0.88,-4.54 -1.46,-9.12 -2,-13.7 -0.96,-3.26 -1.83,-6.56 -2.75,-9.8 -6.88,-29.28 -21.82,-56.02 -39.9,-79.8 -8.54,-9.5 -17.79,-19.04 -29.55,-24.5 z M 755.4,541.1 c -2.64,13.44 -3.01,27.14 -3.65,40.8 -0.3,7.86 1.94,15.5 4,23 -4.42,-1.12 -9.69,-2.28 -10.55,-7.6 -2.06,-8.52 -7.28,-18.09 -2.1,-26.45 4.42,-9.78 8.34,-19.79 12.3,-29.75 z"
       id="path28"
       style="fill:#f5e5c1"
       inkscape:connector-curvature="0" />
    <path
       d="m 89.06,401.64 c 4.54,-0.16 9.1,-0.34 13.66,-0.38 -4.1,2.56 -8.64,4.22 -13.46,4.6 -0.04,-1.04 -0.16,-3.16 -0.2,-4.22 z"
       id="path34"
       inkscape:connector-curvature="0"
       style="fill:#f4722b" />
    <path
       d="m 553.1,431.62 c 15.14,-1.8 30.04,-5.24 45.3,-6 -14.42,6.14 -29.98,8.66 -45.12,12.4 -0.04,-1.6 -0.14,-4.8 -0.18,-6.4 z"
       id="path36"
       inkscape:connector-curvature="0"
       style="fill:#f4722b" />
    <path
       d="m 498.34,451.38 c 9.96,-0.36 19.68,-3.58 29.7,-2.86 11.66,7.62 16.92,21.92 17.28,35.36 -0.06,8.6 -6.12,15.32 -9.4,22.84 -15.5,-0.9 -30.98,0.48 -46.08,4.02 -9.5,2.38 -21.1,3.52 -28.82,-3.76 -5.46,-6.92 -5.66,-16.52 -4.08,-24.82 4.46,-18.18 23.56,-29.7 41.4,-30.78 z"
       id="path38"
       inkscape:connector-curvature="0"
       style="fill:#f5e5c1" />
    <path
       d="m 521.74,527.8 c 2.72,-0.14 5.9,-1.8 8.38,0.08 14.26,12.56 20.68,32.64 17.36,51.26 -18.52,2.5 -36.8,6.68 -55.5,7.68 -13.96,0.88 -28.12,-5.74 -36.1,-17.28 -3.9,-5.92 -1.72,-13.28 -1.44,-19.82 11.98,-4.1 23.7,-8.98 35.78,-12.78 10.44,-3.24 20.54,-7.94 31.52,-9.14 z"
       id="path40"
       inkscape:connector-curvature="0"
       style="fill:#f5e5c1" />
    <path
       d="m 20.86,559.42 c 6.44,-1.96 12.92,0.74 19,2.64 -0.46,1.82 -0.94,3.66 -1.4,5.48 -14.08,2.64 -28.9,6.68 -38.46,18.14 l 0,-19.04 c 7.08,-2.06 13.8,-5.16 20.86,-7.22 z"
       id="path44"
       inkscape:connector-curvature="0"
       style="fill:#f4722b" />
    <path
       d="m 63.72,568.76 c 2.08,-3.26 4.32,-6.4 6.68,-9.46 0.34,3.06 0.64,6.14 0.86,9.22 -2.52,0.08 -5.02,0.16 -7.54,0.24 z"
       id="path46"
       inkscape:connector-curvature="0"
       style="fill:#f4722b" />
    <path
       d="m 906.04,583.92 c 38.1,-5.36 76.56,-7.66 114.98,-8.72 -0.1,3.98 -0.22,7.96 -0.28,11.94 -8.58,1.58 -17.42,2.48 -25.5,5.98 -8.92,3.9 -18.96,6.86 -25.14,14.9 -6.6,8.04 -15.38,14.92 -25.96,16.26 -8.64,1.7 -17.12,-1.44 -24.64,-5.4 -5.68,2.28 -11.34,5.08 -17.54,5.4 -5.42,0.22 -9.92,-3.18 -14.46,-5.62 -6.88,-4.02 -15.4,-3.78 -22.2,-7.98 -4.9,-3.08 -9.18,-7.04 -13.72,-10.58 4.68,-6.68 12.66,-9.42 20.08,-11.88 11.16,-3.3 22.96,-2.64 34.38,-4.3 z"
       id="path48"
       inkscape:connector-curvature="0"
       style="fill:#f4722b" />
    <path
       d="m 486.92,613 c 16.4,-7.18 34.3,-9.06 51.72,-12.38 5.28,5.08 11.14,9.84 14.82,16.3 3.88,7.88 5.96,16.48 7.38,25.1 -7.9,1.84 -15.68,4.18 -23.62,5.8 -8.42,1.78 -16.82,-0.96 -25.2,-1.72 -6.18,-1.02 -12.88,-0.52 -18.52,-3.66 -4.3,-3.9 -6.84,-9.4 -9.12,-14.62 -2.5,-5 1.16,-10.04 2.54,-14.82 z"
       id="path50"
       inkscape:connector-curvature="0"
       style="fill:#f5e5c1" />
    <path
       d="m 785.26,619.98 c 19.66,-7.34 40.02,-12.56 59.84,-19.44 -0.1,6.96 -1.14,14.98 -7.7,18.9 -9.98,6.24 -22.52,4.02 -33.54,7 -7.08,2 -13.66,-1.72 -18.6,-6.46 z"
       id="path52"
       inkscape:connector-curvature="0"
       style="fill:#f4722b" />
    <path
       d="m 971.9,641.94 c 14.44,-11.56 33.68,-17.34 52.1,-14.78 l 0,51.58 c -15.16,6.76 -34.3,14.84 -49.92,5.3 -14.66,-8.8 -15.06,-31.58 -2.18,-42.1 z"
       id="path54"
       inkscape:connector-curvature="0"
       style="fill:#f4722b" />
    <path
       d="m 732.84,648.6 c 9.32,-5.42 18.5,-11.1 27.72,-16.68 -1.46,4.68 -2.98,9.36 -4.56,14.02 15.34,-5.9 32.12,-9.38 48.5,-6.32 7.2,1.4 13.5,8.88 11.84,16.38 -2.28,8.12 -9.06,14.66 -17.02,17.22 -6.92,2.2 -14.12,3.32 -21.14,5.08 -7.9,1.74 -16.08,4.1 -24.14,2.2 -4.96,-1.1 -8.44,-5.02 -12.1,-8.22 -6.48,10.42 -14.78,20.52 -26.54,25.12 -7.36,3.22 -15.58,2 -23.24,0.8 4.26,-5.12 10.28,-8.78 13.72,-14.52 3.12,-6.22 -5.52,-7.76 -9.5,-9.52 12.22,-8.4 23.64,-18.02 36.46,-25.56 z"
       id="path56"
       inkscape:connector-curvature="0"
       style="fill:#f4722b" />
    <path
       d="m 936.78,637.38 c 12.46,-4.28 27.2,7.48 23.6,20.76 -4,15.02 -27.14,17.22 -34.7,4.06 -6.26,-9.32 0.82,-22.4 11.1,-24.82 z"
       id="path58"
       inkscape:connector-curvature="0"
       style="fill:#f4722b" />
    <path
       d="m 586.86,669.08 c 10.64,-7.58 24.8,-9.8 37.06,-4.98 11.98,3.04 23.4,11.8 24.68,24.88 -16.94,12.64 -37.64,20.12 -58.66,21.86 -9.26,-0.42 -21.2,-0.9 -26.6,-9.76 -0.44,-5.46 -0.14,-11.04 -1.94,-16.32 5.94,-8.68 17.36,-9.78 25.46,-15.68 z"
       id="path60"
       inkscape:connector-curvature="0"
       style="fill:#f5e5c1" />
    <path
       d="m 346.16,674.02 c 2.78,-4.48 6.08,-8.62 9.82,-12.32 2.34,6.86 4.52,13.78 6.14,20.84 -3.22,-0.18 -6.58,0.3 -9.68,-0.76 -2.72,-2 -4.28,-5.14 -6.28,-7.76 z"
       id="path62"
       inkscape:connector-curvature="0"
       style="fill:#f4722b" />
    <path
       d="m 898.44,664.2 c 6.16,-2.8 19.24,-1.68 16.38,7.86 -6.04,9.94 -20.26,13.1 -30.96,10.34 -1.62,-3.42 -2.64,-8.72 1.12,-11.12 4,-3.16 8.64,-5.48 13.46,-7.08 z"
       id="path64"
       inkscape:connector-curvature="0"
       style="fill:#f4722b" />
    <path
       d="m 293.32,675.52 c 7.82,-3.22 16.32,-5.04 24.78,-5.3 6.24,-0.6 11.06,3.84 15.7,7.28 -3.44,4.64 -6.34,10.36 -12.06,12.52 -8.38,3.46 -17.2,5.76 -25.98,7.92 -5.2,1.86 -11.58,-1.2 -12.68,-6.78 -1.64,-6.98 4.38,-13 10.24,-15.64 z"
       id="path66"
       inkscape:connector-curvature="0"
       style="fill:#f4722b" />
    <path
       d="m 857.38,693.58 c 7.6,-3.94 16.48,-2.08 24.58,-4.24 -18.72,7.94 -36.6,17.98 -55.98,24.4 9.18,-8.52 20.26,-14.62 31.4,-20.16 z"
       id="path68"
       inkscape:connector-curvature="0"
       style="fill:#f4722b" />
    <path
       d="m 234.72,700.96 c 3.26,-0.7 6.52,-1.4 9.78,-2.04 0.1,2.06 0.2,4.14 0.3,6.22 -3.22,0.08 -6.44,0.12 -9.66,0.16 -0.1,-1.1 -0.32,-3.26 -0.42,-4.34 z"
       id="path70"
       inkscape:connector-curvature="0"
       style="fill:#f4722b" />
    <path
       d="m 666.82,701.06 c 3.36,-1.1 7.58,-0.8 10.1,1.96 6.94,7 -2.02,21.22 -11.36,17.7 -6.96,-4.28 -6.98,-16.82 1.26,-19.66 z"
       id="path72"
       inkscape:connector-curvature="0"
       style="fill:#f4722b" />
    <path
       d="m 363.42,751.74 c 3.02,-7.4 9.24,-12.7 15.1,-17.86 7.48,22.24 14.32,44.7 21.18,67.14 -9.9,-1.42 -20.52,-3.42 -27.92,-10.74 -10.62,-9.4 -14,-25.58 -8.36,-38.54 z"
       id="path74"
       inkscape:connector-curvature="0"
       style="fill:#f4722b" />
    <path
       d="m 631.58,737.46 c 5.3,-3.42 12.3,-1.24 17.5,1.4 2.14,4.8 -2.3,10.06 -7.1,10.4 -3.68,0.32 -7.36,0.08 -11.02,-0.04 -0.3,-3.9 -3.84,-9.14 0.62,-11.76 z"
       id="path76"
       inkscape:connector-curvature="0"
       style="fill:#f4722b" />
    <path
       d="m 128.78,741.16 c 10.16,-3.04 22.52,-3.84 31.62,2.54 9.2,6.1 10.08,21.16 1.6,28.24 -6.52,6.1 -16,5.4 -24.12,7.4 -7.12,1.26 -14.56,4.8 -21.72,1.8 -7.1,-2.12 -12.8,-9.64 -10.88,-17.2 2.78,-11.26 13.16,-18.84 23.5,-22.78 z"
       id="path78"
       inkscape:connector-curvature="0"
       style="fill:#f4722b" />
    <path
       d="m 28.54,754.5 c 5.28,-3.04 11.78,-0.44 16.6,2.34 3.8,11.12 -14.54,17.72 -20,8.32 -1.3,-3.8 -0.86,-9 3.4,-10.66 z"
       id="path80"
       inkscape:connector-curvature="0"
       style="fill:#f4722b" />
    <path
       d="m 306.88,765.34 c 13.74,-2.88 28.86,-4.58 41.88,1.96 8.36,3.66 16.36,10.92 16.5,20.7 -0.08,10.14 -6.34,19.12 -13.7,25.6 -10.98,9.38 -24.38,15.4 -37.74,20.56 -11,4.3 -24.6,3.88 -33.78,-4.2 -14.76,-12.02 -14.92,-36.44 -2.14,-49.96 7.42,-8.36 18.28,-12.5 28.98,-14.66 z"
       id="path82"
       inkscape:connector-curvature="0"
       style="fill:#f4722b" />
    <path
       d="m 984.8,780.98 c 12.5,-4.84 26.1,-3.42 39.2,-3.26 l 0,64.24 c -9.5,5.46 -19.62,9.78 -29.68,14.12 -11.4,5.04 -25.56,4.92 -35.94,-2.48 -14.06,-9.38 -19.1,-29.38 -11.62,-44.46 6.58,-15.58 22.98,-23.08 38.04,-28.16 z"
       id="path84"
       inkscape:connector-curvature="0"
       style="fill:#f4722b" />
    <path
       d="m 612.24,797.42 c 0.54,-6.7 4.24,-13.86 11.48,-15 5.98,-2.62 12,-0.44 17.04,3.08 -8.34,6.4 -18.42,9.54 -28.52,11.92 z"
       id="path86"
       inkscape:connector-curvature="0"
       style="fill:#f4722b" />
    <path
       d="m 103.82,809.22 c 9.24,-3.24 19.8,-2.04 28.28,2.72 2.22,1.62 1.38,4.36 0.7,6.56 -6.68,4.26 -14.96,5.18 -22.72,4.68 -4.16,-0.18 -6.5,-4.16 -9.36,-6.58 1.04,-2.46 2.06,-4.94 3.1,-7.38 z"
       id="path88"
       inkscape:connector-curvature="0"
       style="fill:#f4722b" />
    <path
       d="m 143.46,849.66 c 10.48,-3.8 21.06,-8.28 32.5,-7.48 9.38,0 19.54,2.7 25.84,10.04 6.32,7.54 4.64,20.3 -3.8,25.6 -12.7,7.96 -27.36,12.34 -41.94,15.38 -6.72,1.46 -13.08,4.44 -19.98,5.04 -6.8,-0.14 -12.52,-4.4 -18.24,-7.56 -15.78,2.36 -31.58,4.8 -47.1,8.56 3.56,2.4 7.38,4.52 10.46,7.58 1.9,7.52 -3.04,14.88 -8.48,19.64 -11.78,9.68 -25.5,16.64 -39.32,22.92 -10.5,4.8 -22.06,6.26 -33.4,7.54 l 0,-55.94 c 3.5,-1.42 7.14,-2.48 10.52,-4.16 3.46,-6.1 4.88,-13.36 9.6,-18.72 6.58,-7.76 16.58,-10.96 25.66,-14.7 19.76,-8.7 41.46,-10.76 62.54,-14.2 11.72,-2.16 23.48,1.56 35.14,0.46 z"
       id="path90"
       inkscape:connector-curvature="0"
       style="fill:#f4722b" />
    <path
       d="m 902.8,851.46 c 12.3,-2.74 26.42,1.24 33.84,11.82 6.66,9.02 6.88,22.54 0.04,31.54 -13.78,17.34 -46.94,15.08 -55.16,-6.68 -6.56,-15.52 5.46,-33.62 21.28,-36.68 z"
       id="path92"
       inkscape:connector-curvature="0"
       style="fill:#f4722b" />
  </g>
</svg>
