<?xml version="1.0" encoding="UTF-8" standalone="no"?>
<svg
   xmlns:dc="http://purl.org/dc/elements/1.1/"
   xmlns:cc="http://creativecommons.org/ns#"
   xmlns:rdf="http://www.w3.org/1999/02/22-rdf-syntax-ns#"
   xmlns:svg="http://www.w3.org/2000/svg"
   xmlns="http://www.w3.org/2000/svg"
   xmlns:sodipodi="http://sodipodi.sourceforge.net/DTD/sodipodi-0.dtd"
   xmlns:inkscape="http://www.inkscape.org/namespaces/inkscape"
   width="1280"
   height="1280"
   viewBox="0 0 1024 1024"
   version="1.1"
   id="svg2"
   inkscape:version="0.48.1 "
   sodipodi:docname="kill_cp_defenders.svg">
  <metadata
     id="metadata48">
    <rdf:RDF>
      <cc:Work
         rdf:about="">
        <dc:format>image/svg+xml</dc:format>
        <dc:type
           rdf:resource="http://purl.org/dc/dcmitype/StillImage" />
      </cc:Work>
    </rdf:RDF>
  </metadata>
  <defs
     id="defs46" />
  <sodipodi:namedview
     pagecolor="#ffffff"
     bordercolor="#666666"
     borderopacity="1"
     objecttolerance="10"
     gridtolerance="10"
     guidetolerance="10"
     inkscape:pageopacity="0"
     inkscape:pageshadow="2"
     inkscape:window-width="1920"
     inkscape:window-height="1018"
     id="namedview44"
     showgrid="false"
     fit-margin-top="0"
     fit-margin-left="0"
     fit-margin-right="0"
     fit-margin-bottom="0"
     inkscape:zoom="0.6609375"
     inkscape:cx="466.00473"
     inkscape:cy="640"
     inkscape:window-x="-8"
     inkscape:window-y="-8"
     inkscape:window-maximized="1"
     inkscape:current-layer="layer1"
     inkscape:snap-page="true" />
  <g
     inkscape:groupmode="layer"
     id="layer1"
     inkscape:label="background">
    <rect
       style="fill:#3e3e3e;fill-opacity:1;fill-rule:nonzero;stroke:none"
       id="rect3020"
       width="1280"
       height="1280"
       x="0"
       y="0"
       transform="scale(0.8,0.8)" />
  </g>
  <g
     inkscape:groupmode="layer"
     id="layer2"
     inkscape:label="foreground">
    <path
       style="fill:#f5e5c1"
       d="m 591.9,37.35 c -0.6271,0.0198 -1.2625,0.0775 -1.9,0.15 -14.72,0.92 -29.44,1.34 -44.2,1.8 -8.26,-0.02 -16.35,4.34 -21.45,10.7 -15.08,21.66 -27.2,45.19 -40.5,67.95 -4.32,5.92 -2.15,13.43 -1.95,20.15 -0.08,9.82 7.56,17.01 10,26.05 0.6,5 -0.07,10.1 0.75,15.1 16.42,5.4 33.42,9.04 50,14 -1.08,21.6 -2.92,43.19 -4.5,64.75 -0.58,14.94 8.89,27.33 18.55,37.65 13.26,6.86 27.21,12.25 40.45,19.15 7.1,4.76 12.94,11.18 19.6,16.5 4.74,4.4 11.19,8.01 12.35,14.95 2.66,10.6 6.76,20.87 8.6,31.65 0.26,16.02 -0.36,32.06 -0.2,48.1 0.24,6.46 -3.36,12.1 -5.5,18 -4.54,14.2 -19.55,21.18 -25.75,34.4 -3.22,6.68 -7.27,12.95 -10.05,19.85 0.18,6.08 2.23,11.89 3.65,17.75 -2.78,2.1 -5.64,4.17 -8.2,6.55 1.38,5.66 6.05,10.06 9.35,14.8 -0.04,6.86 -0.1,13.69 -0.1,20.55 2.98,0.92 5.95,1.82 8.95,2.7 1.46,3.22 2.92,6.43 4.4,9.65 -5.88,4.8 -11.77,9.63 -17.85,14.15 -3.8,2.96 -8.97,1.46 -13.35,2.6 -2.54,4.78 -3.79,10.08 -5.45,15.2 10.54,2.9 21.56,5.68 32.5,3.5 6.54,-0.44 9.96,-6.73 14.3,-10.75 3.6,-0.24 7.25,-0.56 10.85,-1 0.18,-9.28 -0.68,-18.61 0.4,-27.85 3.8,-4.94 7.16,-10.11 7.7,-16.55 4.56,-2.82 9.11,-5.72 13.45,-8.9 -0.88,-4.22 -1.72,-8.43 -2.5,-12.65 7.74,-7.36 13.73,-17.58 24.55,-20.7 11.18,-4.14 21.97,-9.5 33.35,-13 8.78,0.44 17.35,2.73 26.05,3.95 6.8,0.82 11.49,6.37 16.95,9.95 -1.3,12.1 -3.23,24.14 -4.15,36.3 4.08,0.24 8.15,0.42 12.25,0.5 3.4,13.36 8.14,26.32 12.1,39.5 1.74,0.84 3.49,1.69 5.25,2.55 0.86,3.58 2.55,7.17 2.15,10.95 -1.24,11.56 -3.12,23.02 -4.3,34.6 6.38,0.76 12.82,0.19 19.2,0.95 6.48,2.8 12.05,7.42 18.75,9.8 12.94,4.48 27.55,4.47 40.35,-0.55 -2.34,-6.34 -3.76,-13.07 -7,-19.05 -6.74,-3.44 -15.9,-0.05 -21.4,-6.05 -9.24,-9.02 -20.5,-16.66 -25.3,-29.2 2.18,-2.16 4.32,-4.31 6.5,-6.45 -0.4,-8.7 -1.34,-17.4 -1.7,-26.1 0.18,-10.6 6.61,-21.51 0.65,-31.65 3.38,-5.12 6.64,-10.29 9.6,-15.65 -4.62,-4.6 -9.15,-9.28 -13.55,-14.1 0.62,-9.36 0.96,-18.72 1.1,-28.1 -12.12,-11.28 -24.59,-22.16 -36.55,-33.6 -6.16,-8.84 -14.01,-17.62 -15.15,-28.8 -1.26,-6.82 -2.27,-13.67 -3.75,-20.45 -1.14,-6.08 -5.77,-10.58 -9.15,-15.5 0.18,-12.56 -0.24,-25.14 0.1,-37.7 3.46,-10.9 5.02,-23.33 13.9,-31.45 14.9,-16.4 28.48,-34.04 44.7,-49.2 8.5,-6.82 10.37,-19.22 7.65,-29.3 -3.62,-16.82 -6.91,-33.72 -10.35,-50.6 -1.04,-5.28 -4.35,-9.67 -6.95,-14.25 12.66,-2.48 25.05,-6.09 37.65,-8.85 21.36,-3.8 40.17,-15.23 60.05,-23.35 4.24,7.1 13.15,6.1 19.95,3.9 13.44,-4.3 26.98,-8.37 40.5,-12.45 2.66,-1.22 6.79,-1.34 7.45,-4.9 3.62,-11.46 0.73,-23.92 -6.25,-33.5 -2.78,-7.42 -12.49,-5.82 -18.15,-2.9 -14.6,7.38 -29.15,14.79 -43.75,22.15 -5.16,1.44 -2.32,7.3 -2.4,11 -12.9,4.1 -25.74,8.43 -38.7,12.25 -2.68,-1.98 -4.69,-5.66 -8.45,-5.5 -9.26,-0.3 -17.97,3.47 -26.85,5.45 -20,4.76 -39.72,10.57 -59.8,15.05 1.94,-7.02 6.4,-12.58 13.4,-15 1.38,-3.16 1.1,-7.89 4.5,-9.65 14.96,-2.6 30.54,-1.06 45.4,-3.9 5.04,-8.12 0.49,-17.45 -2.65,-25.35 -2.1,-4.06 -4.96,-9.3 -10,-9.8 -17.06,5.6 -33.64,15.05 -52,14.85 -2.1,-2.66 -3.13,-6.86 -6.65,-8 -6.78,-1.96 -14.18,-2.92 -21,-0.7 -17.46,5.06 -35.43,8.16 -52.85,13.3 -5.66,4.48 -5.89,13.17 -6.05,19.95 -1.66,0.44 -4.99,1.31 -6.65,1.75 -1.88,-7.58 -1.23,-15.57 -3.35,-23.05 -5.72,-11.56 -13.85,-21.76 -22.35,-31.4 -4.08,-3.98 -7.64,-8.89 -13.1,-11.05 -8.45626,-3.45 -16.74344,-8.84634 -26.15,-8.55 z m 6.45,8.6 c 5.78,2.28 11.05,5.83 15.85,9.75 10.24,10.9 19.02,23.22 25.9,36.5 1.46,6.76 0.62,13.82 1.1,20.7 -2.6,0.9 -5.19,1.78 -7.75,2.7 0.46,9.82 1.19,19.66 1.35,29.5 -21.26,5.36 -41.76,-5.67 -62.9,-6.35 -2.68,0.26 -7.75,-0.79 -7.75,3.35 -2.3,10.4 -4.09,20.9 -5.85,31.4 -17.46,-2.26 -34.38,-7.66 -51.9,-9.5 -3.14,-6.76 -7.01,-13.16 -9.75,-20.1 -1.6,-6.64 -1.14,-13.54 -1.8,-20.3 8.56,-14.88 16.66,-30.08 25.8,-44.6 7.36,-9.52 12.39,-20.96 21.65,-28.9 2.98,-3.18 7.75,-2.07 11.65,-2.55 14.82,-0.18 29.6,-1.58 44.4,-1.6 z m 151.4,119.6 c 1.94,4.64 4.94,9.07 5.1,14.25 0.32,16.56 0.69,33.17 0.95,49.75 -9.76,11.08 -18.43,23.08 -28.45,33.9 -6.64,2.66 -14.33,1.63 -20.65,5.25 -4.78,2.72 -9.12,6.14 -13.6,9.3 -2.2,-7.28 -2.86,-14.94 -0.6,-22.3 1.78,-4.8 -0.56,-9.38 -1.6,-14 1.18,-2.7 3.16,-4.98 4.8,-7.4 -4.72,-4 -8.54,-11.18 -15.7,-10.3 -6.1,0.1 -12.17,-0.88 -18.25,-0.5 -4.14,1.72 -7.18,5.19 -10.5,8.05 0.88,2.02 1.79,4.04 2.65,6.1 -2.14,3.22 -4.84,6.23 -6.1,9.95 -0.26,5.42 0.43,10.85 0.85,16.25 7.9,3.54 10.28,13.52 9.8,21.4 -7.98,0.4 -16.06,1.96 -24,0.6 -5.48,-2.4 -10.52,-5.64 -15.7,-8.6 -7.1,-4.1 -11.88,-11.03 -18.4,-15.85 -4.96,-1.3 -10.83,0.17 -14.25,-4.65 2.42,-16.18 3.14,-32.59 5.8,-48.75 3.46,-2.78 6.97,-5.52 10.45,-8.3 8.56,1.86 16.75,5.37 25.45,6.55 9.02,0.4 18.17,0.61 27.05,-1.25 2.06,-5.84 2.5,-12.45 5.8,-17.75 29.58,-7.58 59.44,-14.38 89.1,-21.7 z"
       id="path6"
       inkscape:connector-curvature="0" />
    <g
       id="g3000">
      <path
         inkscape:connector-curvature="0"
         style="fill:#f5e5c1"
         id="path10"
         d="m 63.4,60.7 c -5.42,4.9 -9.27,11.39 -15.35,15.55 -9.86,6.32 -14.11,17.84 -20.75,27 -4.32,7.8 -11.03,14.28 -14.15,22.7 3.4,8.16 7.86,16.22 14.8,21.9 7.76,6.8 18.03,9.62 25.95,16.2 7.26,6.08 17.78,9.29 21.9,18.35 2.12,1.48 4.23,2.94 6.35,4.4 3.38,-2.06 6.68,-4.22 9.9,-6.5 8.4,7.08 17.39,13.49 26.25,19.95 -0.6,2.7 -2.96,5.71 -1.3,8.45 2.06,2.06 4.52,3.71 7.2,4.85 2.6,-0.6 4.82,-2.19 7.2,-3.35 2.66,1.98 5.32,3.94 8,5.9 l -2.1,7.8 c 2.86,2.14 5.75,4.29 8.65,6.35 2.3,-1.26 4.49,-2.84 7.05,-3.6 12,8.56 23.26,18.12 35.5,26.4 -0.92,3.44 -1.3,7.14 -3.4,10.1 -6.06,9.24 -12.29,18.35 -18.25,27.65 -4.54,6.32 -2.05,14.43 -1.65,21.55 12.12,7.46 24.56,14.37 36.6,21.95 4.6,2.82 4.55,8.94 4.85,13.7 0.34,15.42 1.26,30.8 2.1,46.2 1,14.72 -0.03,29.59 2.75,44.15 7,4.6 14.44,8.54 21.2,13.5 -4.78,16.9 -9.81,33.73 -15.45,50.35 -2.4,19.72 -2.28,39.71 -4.9,59.45 1.08,7.48 3.25,14.85 0.95,22.45 6.36,1.52 12.77,2.98 19.25,4 2.8,11.04 4.63,23.34 -0.75,33.9 -6.02,7.34 -14.04,12.66 -21.7,18.1 -4.46,3.54 -10.56,1.6 -15.7,3.2 -5.9,1.66 -12.09,2.73 -17.65,5.35 -5.3,4.6 -2.87,12.07 -3.65,18.15 4.36,2.12 8.8,4.07 13.3,5.95 19.3,-2.36 40.32,-1.55 57,-13.25 11.98,7.3 27.34,3.08 39.8,-1.2 -0.44,-3.1 -0.83,-6.17 -1.25,-9.25 -3.38,-2.68 -2.77,-7.09 -3.55,-10.85 -1.12,-3.34 -3.08,-6.26 -4.8,-9.3 0.3,-7.02 -0.96,-13.95 -2,-20.85 -0.64,-9.6 0.04,-19.2 -0.4,-28.8 4.8,-3.34 12.11,-4.62 14.05,-10.8 -3.14,-16.44 -12.54,-31.72 -11.7,-48.8 -1.34,-1.38 -2.72,-2.71 -4.1,-4.05 -0.64,-3.74 -1.13,-7.52 -1.55,-11.3 8.26,-7.9 15.95,-16.38 24.85,-23.6 6.62,-5.36 11.23,-14.83 20.85,-14.75 7.16,6.22 14.4,12.42 22.3,17.7 -0.14,4.16 -0.44,8.37 -0.1,12.55 6.98,6.38 17.41,9.25 21.65,18.45 4.94,5.9 -0.63,13 0.35,19.5 1.72,4.64 4.22,8.95 6.3,13.45 -1.48,9.02 -2.86,18.06 -3.4,27.2 6.04,6.52 8.83,17.76 18.85,19.1 1.98,8.04 4.35,16.36 1.55,24.5 0.22,14.06 -9.71,27.16 -6.45,41.2 4.68,2.48 10.02,3.01 15.1,4.25 2.06,2.76 0.62,6.29 1,9.45 4.66,3.02 9.72,5.5 15.1,7 12.2,-0.84 24.44,-2.07 36.7,-1.95 0.62,-2.7 1.2,-5.42 1.8,-8.1 -4.2,-5.8 -5.41,-13.07 -9.65,-18.85 -3.38,-0.86 -6.76,-1.84 -10.1,-2.8 -3.94,-10.82 -9.76,-21.06 -11.4,-32.6 -2.22,-9.36 -0.1,-18.86 0.2,-28.3 5.28,-2.28 10.48,-4.73 15.6,-7.35 -1.5,-7.74 -4.94,-14.83 -7.4,-22.25 4.98,-12.54 -6.03,-23.68 -5.75,-36.2 14.88,-19.18 30.77,-37.61 44.75,-57.45 9.22,-15.42 15.74,-33.27 14.9,-51.45 5.98,-3.5 10.86,-8.62 14.5,-14.5 -1.78,-8.22 -2.78,-16.53 -4,-24.85 -0.96,-2.8 0.78,-5.13 2.1,-7.45 -2.38,-2.32 -4.8,-4.65 -7.2,-6.95 6.16,-4.12 9.83,-10.64 14.35,-16.3 -0.08,-1.22 -0.19,-3.63 -0.25,-4.85 7.16,-16 14.59,-32.45 16.95,-49.95 2.28,-4.38 2.38,-9.65 -0.1,-13.95 -0.38,-7 -1.52,-14.28 -6.2,-19.8 -14.36,-19.1 -28.35,-38.75 -46.05,-54.95 1,-1.98 1.98,-3.94 3,-5.9 -5.7,-9.54 -15.82,-14.95 -23.6,-22.55 -4.86,-4.98 -11.16,-7.93 -17.5,-10.55 -6.42,-2.56 -10.9,-7.95 -15.9,-12.45 -0.06,-2.08 -0.11,-4.17 -0.15,-6.25 -22.4,-3.6 -45.03,-6.04 -67.75,-6.3 -3.52,-5.6 -8.17,-10.77 -9.45,-17.45 -0.94,-6.66 -6.81,-10.8 -9.95,-16.4 -6.36,-10.56 -20.28,-11.56 -31.3,-10.8 -12.82,3.28 -17.08,16.86 -19,28.4 0.82,0.82 2.48,2.4 3.3,3.2 0.18,3.08 -0.21,6.29 0.75,9.25 3.24,7.66 2.82,16.07 4,24.15 -1.88,1.72 -3.96,3.21 -6,4.75 0.88,3.24 1.83,6.51 2.75,9.75 -14.74,7.5 -29.83,14.45 -44.15,22.75 -2.7,1.08 -1.78,4.43 -2.5,6.65 -1.88,0.84 -3.77,1.66 -5.65,2.5 -9.86,-8.62 -20.24,-16.62 -30.6,-24.6 0.4,-2.7 0.72,-5.41 0.9,-8.15 -2.02,-2.48 -4.42,-4.58 -6.7,-6.8 -2.76,1.2 -5.53,2.43 -8.25,3.65 -2.6,-2.04 -5.19,-4.12 -7.75,-6.2 0.78,-2.66 1.58,-5.34 2.3,-8 -2.76,-2.12 -5.5,-4.27 -8.2,-6.45 -2.12,1.38 -4.25,2.8 -6.35,4.2 -9.02,-6.24 -17.53,-13.2 -25.95,-20.2 0.76,-2.58 1.55,-5.13 2.15,-7.75 1.98,-4.04 -2.48,-6.53 -4.5,-9.35 -2.62,-0.54 -5.75,-0.11 -7.75,-2.25 C 101.02,93.74 82.34,77.08 63.4,60.7 z m 370.55,186.2 c 7.06,8.26 14.17,16.53 22.05,24.05 -2.86,8.14 -5.97,16.2 -9.45,24.1 -6.6,-3.64 -13.17,-0.55 -19.05,2.75 -3.32,-14.28 -6.17,-28.8 -11.25,-42.6 4.46,-0.52 8.89,-1.14 13.35,-1.8 1.44,-2.18 2.89,-4.34 4.35,-6.5 z" />
    </g>
    <path
       d="m 439.44,579.58 c 40.88,-0.88 81.8,-1.2 122.68,-0.4 -0.9,2.8 -1.8,5.62 -2.72,8.46 -43.88,0.76 -87.8,-1.18 -131.64,1.32 3.3,-3.68 5.9,-9.8 11.68,-9.38 z"
       id="path16"
       inkscape:connector-curvature="0"
       style="fill:#f5e5c1" />
    <path
       d="m 647.94,582.94 c 20.6,2.38 41.36,2.98 61.9,5.78 14.94,1.54 29.78,4 44.8,4.66 2.72,3.32 6.26,6.6 5.72,11.36 -37.12,-5.02 -74.3,-10.32 -111.72,-12.14 -0.28,-3.22 -0.52,-6.44 -0.7,-9.66 z"
       id="path18"
       inkscape:connector-curvature="0"
       style="fill:#f5e5c1" />
    <path
       d="m 286.88,592.38 c 17.58,-3.28 35.44,-5.5 53.32,-5.98 0.7,0.58 2.12,1.78 2.82,2.38 3.9,0.74 7.7,1.92 11.36,3.46 -22.74,2.58 -45.64,3.66 -68.3,6.88 0.2,-1.68 0.6,-5.06 0.8,-6.74 z"
       id="path20"
       inkscape:connector-curvature="0"
       style="fill:#f5e5c1" />
    <path
       d="m 479.9,595.34 c 25.84,-1.3 51.66,0.56 77.5,0.1 -0.44,1.36 -1.3,4.06 -1.72,5.42 -46.66,0.94 -93.4,-1.14 -140,2.14 2.12,-2.08 3.8,-4.74 6.4,-6.3 19.26,-0.84 38.52,-1.66 57.82,-1.36 z"
       id="path22"
       inkscape:connector-curvature="0"
       style="fill:#f5e5c1" />
    <path
       d="m 287.24,607.36 c 24.08,-2.6 48.18,-5.72 72.38,-6.78 0.58,2.04 0.96,4.14 1.38,6.26 -24.46,2.76 -48.96,5.42 -73.18,9.82 -0.2,-3.1 -0.4,-6.2 -0.58,-9.3 z"
       id="path24"
       inkscape:connector-curvature="0"
       style="fill:#f5e5c1" />
    <path
       d="m 651.24,600.7 c 19.74,1.24 39.38,3.7 59.06,5.56 16.38,0.64 32.4,4.3 48.5,7.06 -0.5,3.54 -1.02,7.08 -1.52,10.62 -34.5,-6.76 -69.2,-12.8 -104.24,-15.98 -0.58,-2.44 -1.18,-4.86 -1.8,-7.26 z"
       id="path26"
       inkscape:connector-curvature="0"
       style="fill:#f5e5c1" />
    <path
       d="m 83.18,640.98 c 32.44,-15.18 67.3,-24.18 102.06,-32.3 -4.02,3.7 -7.38,8.7 -12.96,10.06 -19.02,5.04 -38.14,10.6 -55.58,19.9 -7.52,4.14 -15.06,9.08 -19.76,16.44 -3.7,5.64 -3.26,13.52 0.84,18.84 5.68,7.92 14.36,12.9 22.84,17.26 19.26,9.36 40,15.08 60.72,20.12 39.76,9.38 80.3,15 120.88,19.4 26.36,2.5 52.74,5.22 79.2,6 -12.86,12.74 -26.02,25.22 -38.7,38.14 -5.6,5.4 -4.38,13.68 -2.04,20.3 -72.34,-7.32 -145.04,-16.8 -214.64,-38.66 -24.9,-8.08 -49.92,-17.52 -71.18,-33.16 -10.44,-8.02 -21.2,-19.2 -20.6,-33.34 -0.3,-8.84 4.56,-16.86 10.44,-23.06 10.62,-11.5 24.54,-19.2 38.48,-25.94 z"
       id="path28"
       inkscape:connector-curvature="0"
       style="fill:#f5e5c1" />
    <path
       d="m 417.72,610.78 c 46.4,-2.9 92.94,-2.96 139.38,-1.56 0.64,0.98 1.92,2.92 2.56,3.88 23.54,2.26 47.06,4.8 70.64,6.62 4.6,-4.96 11.54,-4.82 17.74,-3.96 34.96,4.22 70.06,9.06 104,18.66 10.94,4.86 23.06,6.36 33.7,11.96 9.3,4.64 19.64,9.9 24.22,19.8 2.96,6.5 -1.12,13.46 -5.92,17.82 -9.2,8.3 -20.9,13.04 -32.34,17.38 -24.04,8.58 -49.14,13.68 -74.24,17.96 -4.08,-5.64 -10.6,-8.26 -17.46,-7.84 -62.02,-0.02 -124.04,0 -186.06,0 -5.88,-0.46 -11.16,2.18 -15.18,6.3 -15.42,-2.36 -31.1,-2.4 -46.64,-3.72 -8.04,-0.26 -16.24,-2.1 -24.18,-0.1 -9.08,1.94 -13.14,13 -21.82,14.96 -43.04,-3.84 -86.16,-9.22 -128.08,-20.08 -17.68,-5.02 -36,-10.02 -51.16,-20.84 8.24,-2.7 16.68,-4.74 25.26,-5.98 19.96,-1.9 39.3,-8.1 59.38,-9.12 1.48,-8.14 5.4,-16.6 2.42,-24.84 -1.98,-7.34 -3.28,-14.82 -4.44,-22.3 23.36,-3.86 46.74,-8.26 70.4,-9.76 -3.46,21.86 -8.2,43.46 -11.7,65.3 23.16,-1.78 46.6,5.36 65.06,19.42 18.62,-7.68 37.76,-14.08 56.34,-21.88 -3.02,-3.22 -6,-6.44 -8.98,-9.68 40.88,3.5 82.22,2.32 122.9,-3.08 13.36,-2.46 27.62,-4.04 39.3,-11.54 4.24,-2.28 3.62,-8.66 -0.38,-10.88 -9.38,-7.34 -17.5,-17.06 -29.22,-20.72 -16.42,-5.54 -33.76,-7.62 -50.92,-9.26 -39.92,-2.62 -80.48,-1.66 -119.44,8.18 -1.68,-3.72 -3.4,-7.42 -5.14,-11.1 z"
       id="path30"
       inkscape:connector-curvature="0"
       style="fill:#f5e5c1" />
    <path
       d="m 851,623.18 c -4.66,-4.48 -9.74,-9.72 -12.28,-15.7 4.98,3.86 11.7,3.72 17.54,5.52 32.58,8.16 65.26,17.62 94.98,33.6 12.84,7.2 25.88,15.66 33.68,28.52 6.44,10.26 5.5,24.42 -2.04,33.88 -12.16,16.04 -30.66,25.46 -48.56,33.7 -31.74,13.78 -65.38,22.66 -99.1,30.1 -45.16,9.64 -90.94,16.3 -136.9,20.42 0.36,-20.64 0.2,-41.3 0.08,-61.96 49.22,-5.2 98.5,-11.92 146.3,-25.08 18.88,-5.62 38.22,-11.6 54.46,-23.14 6,-4.64 12.78,-10.7 12.48,-19 0.54,-7.4 -4.96,-13.18 -10.22,-17.56 -14.7,-11.72 -33.02,-17.06 -50.42,-23.3 z"
       id="path32"
       inkscape:connector-curvature="0"
       style="fill:#f5e5c1" />
    <path
       d="m 426.02,629.26 c 26.54,-8.1 54.58,-8.54 82.08,-9.52 26.72,1.06 53.9,1.52 79.76,9.18 5.4,1.9 11.66,3.8 14.8,9.04 1.58,2.96 -1.86,5.22 -3.74,6.9 -9.52,6 -21.02,7.54 -31.86,9.72 -36.06,5.56 -72.86,5.58 -109.08,1.52 -4.68,-0.78 -10.26,-0.66 -13.46,-4.76 -6.44,-7.12 -13.5,-13.82 -18.5,-22.08 z"
       id="path34"
       inkscape:connector-curvature="0"
       style="fill:#f3722b" />
    <path
       d="m 128.56,652.58 c 8.68,-8.9 20.52,-13.44 31.68,-18.36 -4.84,7.24 -10.32,14.34 -13.24,22.62 -0.88,9.04 -0.1,18.16 -0.36,27.22 10.74,2.28 23.62,-1.22 32.5,6.64 11.66,8.44 25.36,13.58 38.94,18.04 -7.1,-0.98 -14.16,-2.32 -21.08,-4.24 -19.5,-5.2 -39.28,-10.54 -56.96,-20.52 -6.52,-4 -13.38,-8.78 -16.28,-16.14 -2.22,-5.54 0.98,-11.36 4.8,-15.26 z"
       id="path36"
       inkscape:connector-curvature="0"
       style="fill:#f5e5c1" />
    <path
       d="m 868.8,649.54 c -1.66,-2.46 -3.26,-4.86 -4.9,-7.28 7.1,4.64 15.32,9.24 18.54,17.62 2.7,8.36 -4.02,15.66 -10.28,20.18 -15.12,10.44 -32.92,15.98 -50.4,21.04 -11.78,3.04 -23.5,6.92 -35.72,7.74 13.48,-3.48 26.46,-9.2 38.26,-16.56 7.46,-5.14 16.02,-12.42 15.2,-22.44 -0.74,-9.94 -9.64,-16.56 -17.46,-21.4 15.58,0.62 31.16,0.96 46.76,1.1 z"
       id="path38"
       inkscape:connector-curvature="0"
       style="fill:#f5e5c1" />
    <path
       d="m 490.02,725.52 c 64.82,-0.02 129.64,-0.04 194.46,0 0.02,26 0.06,51.98 -0.02,77.98 -44.14,0 -88.3,0 -132.44,0 -0.02,13.66 -0.04,27.32 0,40.96 27.46,0.16 56.92,1.48 80.88,16.5 15.22,9.46 21.74,27.68 22.92,44.82 1.6,22.7 -8.94,45.28 -26.06,60 -23.24,20.12 -54.56,27.42 -84.52,29.52 -3.08,-15.12 -5.48,-30.36 -8.24,-45.54 16,-1.38 32.52,-3.88 46.52,-12.22 8.06,-4.86 14.62,-13.62 13.52,-23.46 -0.2,-7.66 -6.4,-13.36 -13.06,-16.02 -11.36,-4.6 -23.84,-4.62 -35.9,-5.04 -19.36,0.2 -38.7,1.62 -58.06,2.06 -0.02,-56.52 -0.04,-113.04 0,-169.56 z"
       id="path40"
       inkscape:connector-curvature="0"
       style="fill:#f3722b" />
    <path
       d="m 379.82,757.92 c 10.52,-10.42 20.74,-21.16 31.76,-31.06 20.82,1 41.58,2.88 62.4,3.78 -3,87.52 -7.26,175 -11.1,262.48 -22.66,-0.76 -45.3,-2.48 -67.96,-3.24 2.14,-60.7 4.7,-121.4 6.66,-182.12 -5.9,5.64 -11.6,11.5 -17.16,17.5 -10.88,-13.18 -21.86,-26.3 -32.8,-39.42 8.94,-9.76 18.98,-18.42 28.2,-27.92 z"
       id="path42"
       inkscape:connector-curvature="0"
       style="fill:#f3722b" />
  </g>
</svg>
