<?xml version="1.0" encoding="UTF-8" standalone="no"?>
<svg
   xmlns:dc="http://purl.org/dc/elements/1.1/"
   xmlns:cc="http://creativecommons.org/ns#"
   xmlns:rdf="http://www.w3.org/1999/02/22-rdf-syntax-ns#"
   xmlns:svg="http://www.w3.org/2000/svg"
   xmlns="http://www.w3.org/2000/svg"
   xmlns:sodipodi="http://sodipodi.sourceforge.net/DTD/sodipodi-0.dtd"
   xmlns:inkscape="http://www.inkscape.org/namespaces/inkscape"
   width="1280"
   height="1280"
   viewBox="0 0 1024 1024"
   version="1.1"
   id="svg2"
   inkscape:version="0.48.1 "
   sodipodi:docname="knife_kill_while_jarated.svg">
  <metadata
     id="metadata110">
    <rdf:RDF>
      <cc:Work
         rdf:about="">
        <dc:format>image/svg+xml</dc:format>
        <dc:type
           rdf:resource="http://purl.org/dc/dcmitype/StillImage" />
      </cc:Work>
    </rdf:RDF>
  </metadata>
  <defs
     id="defs108" />
  <sodipodi:namedview
     pagecolor="#ffffff"
     bordercolor="#666666"
     borderopacity="1"
     objecttolerance="10"
     gridtolerance="10"
     guidetolerance="10"
     inkscape:pageopacity="0"
     inkscape:pageshadow="2"
     inkscape:window-width="1920"
     inkscape:window-height="1018"
     id="namedview106"
     showgrid="false"
     inkscape:snap-page="true"
     inkscape:zoom="0.6609375"
     inkscape:cx="292.21892"
     inkscape:cy="640"
     inkscape:window-x="-8"
     inkscape:window-y="-8"
     inkscape:window-maximized="1"
     inkscape:current-layer="layer1"
     fit-margin-top="0"
     fit-margin-left="0"
     fit-margin-right="0"
     fit-margin-bottom="0" />
  <g
     inkscape:groupmode="layer"
     id="layer1"
     inkscape:label="background"
     style="display:inline">
    <rect
       style="fill:#3e3e3e;fill-opacity:1;fill-rule:nonzero;stroke:none"
       id="rect3087"
       width="1024"
       height="1024"
       x="0"
       y="0" />
  </g>
  <g
     inkscape:groupmode="layer"
     id="layer2"
     inkscape:label="foreground">
    <path
       d="M 72.1,0 92.7,0 C 82.32,20.04 71.8,40 63.02,60.82 51.6,83.68 42.76,107.66 33.96,131.62 c -1.46,3.82 -2.1,8.34 -5.46,11.06 -4.44,2 -10.46,0.16 -11.8,-4.82 -1.48,-9.1 3.6,-17.5 6.08,-25.98 C 29.32,89.86 38.96,68.96 48.62,48.18 55.34,31.6 63.74,15.8 72.1,0 z"
       id="path6"
       inkscape:connector-curvature="0"
       style="fill:#f5e5c1" />
    <path
       d="M 255.08,0 267.1,0 C 260.76,9.74 255.92,20.36 250.36,30.54 236,58 220.5,84.82 206.32,112.38 c -9.24,18.32 -20.38,35.6 -30.08,53.68 -9.88,20.2 -19.58,40.48 -29.52,60.66 -6.06,12.08 -11.12,24.68 -18.4,36.1 -4.76,7.4 -7.82,15.68 -11.74,23.52 -4.76,0.94 -9.08,3.1 -13.42,5.12 8.56,-20.26 19.04,-39.62 29.32,-59.04 11.66,-23.7 23.04,-47.54 34.78,-71.2 7.72,-14.68 16.7,-28.66 24.6,-43.26 C 212.44,78.38 234.5,39.58 255.08,0 z"
       id="path8"
       inkscape:connector-curvature="0"
       style="fill:#f5e5c1" />
    <path
       d="m 336.4,0 5.46,0 c -2.62,16.88 -11.82,31.44 -19.5,46.34 -23.86,39.28 -45.82,79.66 -68.66,119.52 -14.54,22.46 -26.42,46.5 -40.76,69.08 -11.6,18.3 -20.5,38.1 -30.24,57.42 -3.46,4 -8.1,9.1 -14.02,6.56 -4.76,-1.48 0.96,-6.5 1.62,-9.46 4.66,-7.88 6.7,-16.88 8.44,-25.78 1.48,-7.82 3.3,-17.24 -2.64,-23.76 -5.54,-7.22 -15.24,-9.36 -23.8,-7.26 6.92,-4.46 15.42,-7.58 23.56,-4.32 10.12,2.92 14.84,13.6 15.22,23.38 5.26,-11.78 12.52,-22.5 18.78,-33.76 11.4,-20.52 22.4,-41.26 34.96,-61.12 17.48,-31.66 35.74,-62.9 53.7,-94.3 C 311.58,41.96 324.42,21.22 336.4,0 z"
       id="path10"
       inkscape:connector-curvature="0"
       style="fill:#f5e5c1" />
    <path
       d="m 476.84,0 7.56,0 c -20.64,34.56 -40.98,69.36 -58.96,105.4 -6.48,14.52 -14.48,28.28 -21.58,42.5 -8.26,16.42 -15.5,33.36 -24.52,49.38 -2.18,4.08 -5.18,7.58 -8.54,10.72 0.56,-4.72 1.92,-9.3 3.98,-13.58 8.26,-17.8 15.58,-36.02 24.26,-53.6 5.38,-11.08 11.68,-21.7 16.76,-32.94 7.64,-17.14 17.38,-33.2 26.16,-49.74 C 452.82,38.3 465.56,19.58 476.84,0 z"
       id="path14"
       inkscape:connector-curvature="0"
       style="fill:#f5e5c1" />
    <path
       d="m 650,0 11.9,0 c -22.58,40.9 -42.88,83 -62.94,125.2 -11.66,24.52 -19.9,50.64 -33.94,74.02 -1.18,0.04 -3.54,0.12 -4.72,0.16 0.24,-3.9 0.32,-7.9 1.94,-11.52 6.36,-15.52 12.76,-31.02 18.8,-46.66 9.9,-24.78 22.66,-48.24 33.52,-72.58 11.58,-23 23.18,-46 35.44,-68.62 z"
       id="path16"
       inkscape:connector-curvature="0"
       style="fill:#f5e5c1" />
    <path
       d="m 754.26,0 1.52,0 c -12,34.94 -25.58,69.34 -38.06,104.14 -7.48,22.7 -18.2,44.14 -27.7,66.04 -18.56,41.46 -35.38,83.7 -55.3,124.56 -11.88,26.06 -22.42,52.72 -35.36,78.3 -6.04,2.24 -13.46,3.9 -15.62,10.9 0.48,-1.12 1.44,-3.38 1.92,-4.5 17.42,-34.18 30.26,-70.44 46.9,-105 16.4,-35.52 30.9,-71.86 46.94,-107.54 C 696.34,128.64 713.4,90.48 730.34,52.28 738.28,34.84 746.82,17.66 754.26,0 z"
       id="path18"
       inkscape:connector-curvature="0"
       style="fill:#f5e5c1" />
    <path
       d="m 927.64,0 5.42,0 c -18.68,40.12 -37.68,80.1 -54.14,121.2 -11.54,27.28 -23.84,54.24 -36.54,80.98 -20.32,46.1 -43.18,91.04 -62.22,137.7 -0.4,0.18 -1.22,0.58 -1.62,0.76 -6.2,0.4 -11.76,2.9 -14.24,8.84 -0.44,0.22 -1.32,0.62 -1.76,0.84 6.2,-7.14 9.34,-16.2 13.4,-24.6 14.36,-33.84 30.3,-66.98 45.16,-100.58 11.6,-28.12 24.7,-55.58 36.54,-83.6 11,-25.6 24.98,-49.72 37.44,-74.6 11.26,-22.32 22.86,-44.46 34.74,-66.46 L 927.64,0 z"
       id="path22"
       inkscape:connector-curvature="0"
       style="fill:#f5e5c1" />
    <path
       d="M 943.46,93.22 C 953.8,79.78 963.34,65.7 974.02,52.5 c 5.6,22.48 10.64,45.1 16.18,67.6 0.84,3.76 2.02,7.66 1.14,11.54 -6.88,36.04 -13.7,72.1 -20.52,108.14 -0.98,5.84 -4.48,10.7 -7.22,15.78 -10.76,19.42 -21.66,38.76 -32.28,58.26 -2.24,-1.58 -4.7,-2.42 -7.42,-2.54 -15.96,-1.7 -31.92,-3.44 -47.86,-5.3 16.36,-47.44 33,-94.8 49.3,-142.24 4.28,-16.56 7.4,-33.4 11.24,-50.06 1.76,-6.96 1.88,-14.8 6.88,-20.46 z"
       id="path26"
       inkscape:connector-curvature="0"
       style="fill:#f5e5c1" />
    <path
       d="m 492.6,112.82 c 11.66,-18.88 22.56,-38.26 35.12,-56.56 -13.56,23.76 -26.2,48.06 -39.4,72.04 -18.54,37.14 -38.2,73.7 -57.3,110.54 -10.8,22.46 -21.5,44.98 -32.72,67.22 -20.2,42.86 -37.94,86.82 -58.12,129.68 -5.68,11.96 -10.3,24.4 -15.98,36.36 -6.72,1.94 -13.4,4.12 -20.28,5.54 5.5,-16.34 12.96,-31.92 19.76,-47.76 30.98,-66.12 56.32,-135.14 94.3,-197.78 12.58,-20.7 24.34,-41.92 37.76,-62.1 12.12,-19.18 25.4,-37.6 36.86,-57.18 z"
       id="path28"
       inkscape:connector-curvature="0"
       style="fill:#f5e5c1" />
    <path
       d="m 776.08,144.2 c 11.46,-26.76 22.98,-53.48 35.62,-79.7 -18.26,44.62 -32.36,90.78 -49.24,135.92 -8.52,20.9 -15.72,42.3 -24.12,63.22 5.64,-5.78 11.88,-11.26 19.48,-14.28 5.52,-2.08 12.48,-1.84 16.6,2.86 -8.34,1 -16.66,3.52 -23.08,9.14 -9.76,8.5 -19.76,17.94 -23.64,30.68 -4.08,12.72 -6.58,26.14 -13.18,37.9 -4.6,2.18 -9.36,4.08 -14.24,5.56 8.8,-27.52 20.04,-54.2 30,-81.32 14.98,-36.78 29.14,-73.92 45.8,-109.98 z"
       id="path30"
       inkscape:connector-curvature="0"
       style="fill:#f5e5c1" />
    <path
       d="m 307.04,161.24 c 10.36,-15.54 19.84,-31.68 30.62,-46.94 -22.2,36.32 -37.98,76.04 -57.9,113.58 -20.04,37.14 -38.96,74.88 -58.8,112.12 -2.8,-2 -5.56,-4.08 -8.32,-6.14 23.14,-43.3 44.8,-87.4 69,-130.12 9.38,-13.62 15.98,-28.9 25.4,-42.5 z"
       id="path32"
       inkscape:connector-curvature="0"
       style="fill:#f5e5c1" />
    <path
       d="m 639.2,186.46 c 4.84,-9.26 6.96,-19.7 12.42,-28.66 -9.68,29.32 -21.48,57.86 -33.66,86.22 -7.58,19.38 -15.78,38.52 -24.84,57.28 -6.5,13.24 -10.96,27.36 -17.06,40.78 -7.74,16.38 -15.82,32.58 -23.36,49.04 -4.7,1.76 -9.38,3.6 -14.04,5.42 7.72,-17.32 16.5,-34.16 24.76,-51.24 8.06,-15.68 13.54,-32.5 21.52,-48.2 9.12,-18.02 17.62,-36.34 25.84,-54.8 9.22,-18.74 18.84,-37.28 28.42,-55.84 z"
       id="path34"
       inkscape:connector-curvature="0"
       style="fill:#f5e5c1" />
    <path
       d="m 524.32,211.92 c 6.58,-11.54 11.22,-24.02 17.24,-35.82 -5,13.82 -12.12,26.76 -17.6,40.38 -10.86,32.2 -26.12,62.6 -39.78,93.62 -7.2,14.56 -12.16,30.04 -18.8,44.84 -5.36,14.32 -13.16,27.52 -19.26,41.52 7,-4.68 12.74,-11.18 20.6,-14.52 -5.12,6.48 -12.2,10.98 -17.48,17.3 -9.66,11.72 -21.94,23.44 -22.18,39.78 -1.42,3.58 -2.76,7.54 -5.76,10.1 -4.1,2.2 -8.48,3.8 -12.72,5.74 0.58,-3.02 1.12,-6.06 1.84,-9.04 5.64,-15.66 12.8,-33.48 5.56,-49.8 -3.96,-10.1 -17.48,-13.48 -26.12,-7.22 5.02,-4.66 10.82,-9.9 18.28,-8.56 12.42,1.54 19.06,14.48 20.8,25.68 3.5,-9.72 8.54,-18.74 13,-28.02 17.8,-36.12 32.1,-73.84 49.94,-109.92 9.44,-19.48 22.4,-36.92 32.44,-56.06 z"
       id="path36"
       inkscape:connector-curvature="0"
       style="fill:#f5e5c1" />
    <path
       d="m 116.02,287.54 c 8.56,-2.12 17.24,-6.66 26.24,-4.24 9.32,2.12 18.64,4.38 28.04,6.16 -0.66,2.96 -6.38,7.98 -1.62,9.46 5.92,2.54 10.56,-2.56 14.02,-6.56 9.22,0.96 14.88,8.7 21.24,14.46 -9,3.42 -17.44,8.18 -25.08,14.06 -12.8,9.96 -26.62,18.62 -39.08,29.02 -5.92,7.68 -8.98,18.6 -5.68,28 3.6,8.22 13.88,10.24 21.94,10.38 13,-1.66 26.08,-7.18 34.68,-17.4 4.7,-6.16 5.4,-14.36 9.6,-20.78 2.32,-2.76 5.3,-4.84 8.04,-7.16 5.78,1.46 11.42,3.68 15.54,8.18 1.48,-1.18 2.96,-2.34 4.46,-3.5 4.48,9.2 6.92,19.2 9.38,29.08 -10.68,4.42 -20.46,10.66 -30.18,16.84 -4.14,3 -8.96,6.06 -10.78,11.1 -4.32,17.6 13.3,36.92 31.32,33.42 12.4,-2.32 23.14,-9.48 33.34,-16.52 3.8,-2.24 5.3,-6.52 7.14,-10.26 2.58,0.92 5.2,1.8 7.8,2.74 0.42,2.56 0.98,5.14 1.14,7.76 -10.56,8.28 -22.54,14.6 -33.54,22.3 0,6.64 0.02,13.28 0.02,19.92 5.08,2.5 10.06,6.02 15.96,5.98 10.72,0.26 21.48,-0.12 32.2,0 1.42,2.66 2.84,5.32 4.26,7.98 -15.02,3.56 -29.68,8.38 -44.58,12.4 -30.08,8.3 -59.32,19.3 -88.96,29 -4.76,1.6 -9.6,3.82 -14.76,3.22 -15.38,-1.58 -30.96,-1.84 -46.32,0 -3.32,0.26 -5.8,2.64 -8.38,4.44 14.98,1.06 30,0.06 45,0.38 -5.2,3.06 -10.7,5.62 -16.7,6.46 -0.32,0.92 -0.94,2.76 -1.24,3.68 -2.18,1.8 -4.38,3.62 -6.56,5.44 9.1,-1.58 16.68,-7.2 25.26,-10.26 8.86,-3.34 18.32,-4.8 27.14,-8.28 20.12,-7.9 41.08,-13.28 61.52,-20.22 23.8,-8.34 47.96,-15.48 72.44,-21.44 -4.7,20.14 -15.84,38.02 -22.28,57.58 -7.64,23.02 -14.46,46.3 -22.1,69.3 -11.2,30.5 -20.12,62.02 -23.2,94.46 -0.6,3.66 1.5,6.86 2.84,10.08 3.02,-2.52 6.56,-4.78 8.12,-8.58 6.76,-14.32 8.44,-30.28 13.08,-45.3 10.94,-35 23.52,-69.44 34.36,-104.46 5.58,-19.52 15.02,-37.6 22.48,-56.4 3.74,-8.36 6.18,-17.3 10.58,-25.34 12.6,-4.96 26.38,-6.34 39.22,-10.74 15.78,-5.58 31.18,-12.2 47.04,-17.56 -0.72,2.98 -1.26,6.02 -1.84,9.04 4.24,-1.94 8.62,-3.54 12.72,-5.74 3,-2.56 4.34,-6.52 5.76,-10.1 37.32,-13.86 74.46,-28.16 111.6,-42.48 4.66,-1.82 9.34,-3.66 14.04,-5.42 11.08,-3.68 21.66,-8.72 32.96,-11.68 -0.48,1.12 -1.44,3.38 -1.92,4.5 -12.52,30.96 -25.46,61.78 -39.64,92.02 -13.62,23.28 -24.36,48.04 -35.8,72.42 -4.66,9.06 -10.26,17.74 -12.86,27.7 -0.1,0.28 -0.3,0.84 -0.38,1.12 -9.74,1.82 -19.4,4.16 -29.26,5.32 -3.18,0.52 -6.3,1.3 -9.4,2.12 -25.32,5.72 -50.82,10.7 -76.38,15.2 -20.22,4.76 -40.92,8.14 -60.14,16.3 -10.64,4.58 -21.52,8.64 -32.16,13.22 13.42,-1.68 25.72,-7.62 38.64,-11.22 15.22,-5 31.1,-7.48 46.88,-10.02 6.96,36.3 14.38,72.5 21.3,108.82 0.76,3.6 1.54,7.5 4.5,10.02 34.68,33.38 69.32,66.8 103.98,100.18 5.22,3.6 0.42,9.62 -0.76,14.18 25.3,13.52 50.28,27.62 75.66,41 l -0.12,0.24 c -20.42,37.08 -38.82,75.24 -56.44,113.72 -1.28,2.74 -2.36,5.54 -3.46,8.38 -7.94,0.6 -15.9,1 -23.86,1.38 -4.64,5.84 -8.9,11.94 -13.28,17.96 l -72.3,0 c 9.26,-19.84 19.5,-39.82 23.56,-61.46 -1.54,-0.08 -4.58,-0.22 -6.12,-0.28 -8.36,20.74 -16.32,41.64 -26.18,61.74 l -107.14,0 c 17.88,-43.54 33.64,-87.92 52.24,-131.18 9.5,-23.94 19.14,-47.86 28.16,-72 2.84,-7.94 7.46,-15.9 6.68,-24.58 -0.92,-4.92 -7.78,-3.56 -9.5,0.14 -18.04,38 -33,77.38 -50.28,115.72 -12.62,29.68 -23.96,59.88 -36.38,89.64 -1.48,3.3 -2.88,6.64 -4.16,10.06 -47.9,-59.88 -95.14,-120.3 -142.76,-180.4 -4.44,-5.66 -9.52,-11 -12.4,-17.7 -6.08,-14.16 -11.64,-28.54 -18.02,-42.56 -0.58,-1.54 -1.16,-3.06 -1.76,-4.58 -4.82,-11.98 -9.96,-23.84 -14.94,-35.76 9.8,-20.2 20.2,-40.12 28.66,-60.92 5.66,-14.04 15.06,-26.72 17.58,-41.9 0.4,-6.02 -7.68,-6.82 -11.2,-3.56 -3.28,2.98 -5.08,7.18 -7.2,11 -4.38,8.62 -10.12,16.52 -13.96,25.44 -6.82,16.12 -15.32,31.48 -23.18,47.1 -7.92,-17.62 -14.92,-35.64 -22.66,-53.34 -5.4,-11.36 -4.84,-24.22 -6.66,-36.38 -1.32,-6.44 0.7,-12.72 3.3,-18.54 9.82,-22.8 16.96,-46.78 28.88,-68.64 3.16,-6.02 5.58,-12.66 10.6,-17.42 4,-4.04 9,-7.1 12.52,-11.62 3.34,-6.2 4.06,-13.64 8.42,-19.34 5.4,-7.22 10.84,-14.58 17.88,-20.32 4.24,-3.86 11.48,-7.58 8.06,-14.38 -19.46,2.82 -37.86,-8 -50.14,-22.32 -3.9,-5.8 -4.58,-13.08 -2.62,-19.7 -4.86,-7.38 -10.16,-14.48 -15.28,-21.7 0.2,-0.44 0.6,-1.32 0.78,-1.76 14.36,-31.6 28.58,-63.28 42.78,-94.96 z"
       id="path38"
       inkscape:connector-curvature="0"
       style="fill:#f4722b" />
    <path
       d="m 80.32,300.26 c 7.02,-3.64 14.64,-5.98 22.1,-8.56 -10.9,27.74 -24.44,54.34 -35.92,81.84 -2.92,-6.36 -6.2,-12.62 -8.12,-19.38 0.2,-8.44 0.28,-17.22 2.54,-25.36 6.36,-9.56 12.3,-19.52 19.4,-28.54 z"
       id="path40"
       inkscape:connector-curvature="0"
       style="fill:#f4722b" />
    <path
       d="m 859.92,311.7 c 4.58,-1.56 9.48,-1.52 14.26,-0.96 23.92,2.56 47.88,4.8 71.82,7.3 7.38,17.26 14.6,34.58 21.98,51.84 -6.54,6.84 -13.34,13.42 -19.96,20.16 0.64,9.3 1.3,18.58 1.96,27.88 -3.98,2.06 -7.96,4.12 -11.94,6.16 -0.76,11.3 -1.28,22.6 -2.04,33.88 -5.34,2.7 -10.66,5.4 -15.98,8.1 -0.7,7.98 -1.36,15.96 -2.06,23.94 -18.1,3.04 -36.22,5.74 -54.3,8.88 -3.44,0.5 -7.06,1.14 -10.46,0.08 -13.06,-3.82 -25.36,-10.38 -39,-12.08 -16.74,-2.22 -33.46,-4.56 -50.18,-6.86 -0.7,7.3 -1.38,14.62 -2.04,21.94 -9.32,1.42 -18.68,2.68 -27.98,4.14 -1.98,7.96 -3.98,15.94 -6.02,23.9 -69.32,14.1 -138.68,27.98 -207.98,42.12 -4.54,0.92 -9.1,1.6 -13.68,2.2 l 1.2,-2.3 c 7.3,-14.08 12.04,-29.26 19.22,-43.38 6.56,-13.32 12.44,-26.98 20,-39.78 9.28,-15.68 15.3,-32.94 23.16,-49.32 9.52,-20.58 17.18,-41.98 27.48,-62.18 2.3,-5.58 9.04,-6.18 13.9,-8.44 29.74,-10.9 59.06,-23.08 89,-33.42 4.88,-1.48 9.64,-3.38 14.24,-5.56 3.1,-1.42 6.22,-2.7 9.38,-3.98 2.04,4.68 4.1,9.34 6.2,14 9.98,-3.26 19.92,-6.68 29.92,-9.9 0.6,6.78 1.22,13.56 2.52,20.26 0.44,-0.22 1.32,-0.62 1.76,-0.84 -11.66,23.68 -22.64,47.68 -32.5,72.14 -2.74,10.24 -7.9,20.4 -7.02,31.22 l 3.22,1.04 c 4.92,-6.42 6.74,-14.58 9.72,-22 3.98,-12.8 10.32,-24.66 15.26,-37.1 7.6,-18.48 18.12,-35.6 25.56,-54.14 0.4,-0.18 1.22,-0.58 1.62,-0.76 10.26,-3.9 19.22,-10.68 29.86,-13.66 16.64,-4.78 33.3,-9.58 49.9,-14.52 z"
       id="path42"
       inkscape:connector-curvature="0"
       style="fill:#f4722b" />
    <path
       d="m 206.58,326.96 c 5.34,-3.34 6.88,6.38 3,8.54 -1.86,2.26 -4.92,1.94 -7.5,2.4 0.88,-3.76 1.16,-8.42 4.5,-10.94 z"
       id="path44"
       inkscape:connector-curvature="0"
       style="fill:#f4722b" />
    <path
       d="m 178.46,350.68 c 0.8,-0.4 2.4,-1.2 3.2,-1.6 0.64,1.32 1.28,2.64 1.92,3.96 -7.64,5.66 -16.08,10.1 -23.84,15.6 -3.14,-6.1 2.16,-11.98 3.54,-17.8 5.06,-0.2 10.12,-0.28 15.18,-0.16 z"
       id="path48"
       inkscape:connector-curvature="0"
       style="fill:#f4722b" />
    <path
       d="m 280.22,360.24 c 2.1,-2.08 5.1,-1.56 7.76,-1.66 -6.64,7.88 -14.96,14 -22.82,20.58 -6.68,5.58 -11.96,12.74 -19.18,17.68 l -2.48,-0.58 -0.88,-2.46 c 11.26,-12.52 23.84,-23.84 37.6,-33.56 z"
       id="path50"
       inkscape:connector-curvature="0"
       style="fill:#f5e5c1" />
    <path
       d="m 65,376.5 c 3.24,0.42 4.44,5.36 6.88,7.44 l 1.36,-1.44 c -0.18,0.44 -0.58,1.32 -0.78,1.76 -6.98,15.84 -13.16,32 -20.14,47.82 -6.82,15.36 -9.2,32.28 -16.14,47.56 -1.16,-0.14 -3.48,-0.42 -4.64,-0.56 -0.16,-10.38 3.48,-20.24 5.8,-30.22 C 41,433.26 48,418.78 53.6,403.84 57.32,394.7 60.54,385.32 65,376.5 z"
       id="path52"
       inkscape:connector-curvature="0"
       style="fill:#f5e5c1" />
    <path
       d="m 942.66,510.6 c 16.96,-26.14 33.72,-52.44 51.08,-78.32 -15.26,25.42 -28.62,51.9 -42.9,77.88 -9.54,16.98 -17.64,34.68 -26.72,51.9 -11.72,21.54 -24.4,42.54 -35.52,64.42 -18.86,36.12 -40.38,70.76 -59.5,106.74 -15.18,29.74 -29.38,60.18 -48.24,87.84 -2.28,3.9 -6.62,3.66 -10.22,1.88 0.3,-2.32 0.08,-4.8 1.28,-6.9 9.3,-17.44 19.22,-34.6 27.52,-52.56 6.38,-12.44 11.3,-25.58 18.08,-37.8 18.72,-35.06 39.08,-69.2 58.78,-103.7 10.66,-18.46 22.82,-36.02 33.16,-54.68 11.2,-18.82 21.02,-38.46 33.2,-56.7 z"
       id="path54"
       inkscape:connector-curvature="0"
       style="fill:#f5e5c1" />
    <path
       d="m 1004.52,558.98 c 5.74,-11.78 13.44,-22.44 19.48,-34.06 l 0,15.4 c -16.86,33.12 -31.88,67.2 -45.2,101.9 -8.26,19.14 -13.9,39.3 -22.48,58.3 -4.1,7.22 -7.68,14.72 -11.78,21.9 -2.36,4.4 -8.78,2.7 -9.12,-2.14 0.52,-8.74 4.92,-16.48 8.32,-24.34 8.24,-20.74 13.18,-42.8 23.44,-62.72 8.06,-16.08 14.7,-32.86 23.86,-48.38 4.94,-8.38 9.2,-17.14 13.48,-25.86 z"
       id="path56"
       inkscape:connector-curvature="0"
       style="fill:#f5e5c1" />
    <path
       d="m 44.3,556.18 c 8.2,-7.94 17.1,-15.18 26,-22.32 -7.12,15.28 -13.22,31.02 -19.34,46.74 -0.72,2.16 -1.88,4.1 -3.66,5.58 -0.9,-10.02 -2.56,-19.96 -3,-30 z"
       id="path58"
       inkscape:connector-curvature="0"
       style="fill:#f4722b" />
    <path
       d="m 494.54,579.7 c 4.9,-1.38 10.58,-2.6 12.98,-7.68 l -1.2,2.3 c -6.06,10.4 -9.28,22.18 -15.6,32.44 -5.64,8.82 -8.34,19.34 -15.44,27.2 0.86,-20.56 13.72,-37.64 19.78,-56.76 0.08,-0.28 0.28,-0.84 0.38,-1.12 l -0.9,3.62 z"
       id="path60"
       inkscape:connector-curvature="0"
       style="fill:#f5e5c1" />
    <path
       d="m 456.4,584.64 c 3.1,-0.82 6.22,-1.6 9.4,-2.12 -10.98,21.22 -20.7,43.06 -30.98,64.62 -1.02,2.2 -2.8,3.9 -4.5,5.58 0.62,-8.56 5.82,-15.66 9.1,-23.34 7.42,-14.18 12.68,-29.36 16.98,-44.74 z"
       id="path62"
       inkscape:connector-curvature="0"
       style="fill:#f5e5c1" />
    <path
       d="m 604.54,646.12 c 8.2,-17.12 17.64,-33.62 27.16,-50.02 -2.32,7.18 -6.78,13.36 -10.08,20.08 -5.58,11.14 -10.72,22.5 -16.06,33.74 -0.8,1.76 -1.98,3.24 -3.52,4.42 0.5,-2.84 1.14,-5.66 2.5,-8.22 z"
       id="path64"
       inkscape:connector-curvature="0"
       style="fill:#f5e5c1" />
    <path
       d="m 124.5,624.42 c 3.52,-3.26 11.6,-2.46 11.2,3.56 -2.52,15.18 -11.92,27.86 -17.58,41.9 -8.46,20.8 -18.86,40.72 -28.66,60.92 C 76.02,757.72 62.7,784.74 50.28,812.14 33.6,853.68 16.02,894.88 0,936.66 l 0,-50.22 c 7,-18.92 15.14,-37.4 22.54,-56.16 16.28,-42.08 37.64,-81.92 57.62,-122.32 7.86,-15.62 16.36,-30.98 23.18,-47.1 3.84,-8.92 9.58,-16.82 13.96,-25.44 2.12,-3.82 3.92,-8.02 7.2,-11 z"
       id="path66"
       inkscape:connector-curvature="0"
       style="fill:#f5e5c1" />
    <path
       d="m 544.18,658.84 c 0.42,4.42 -3.52,8.32 -5.14,12.34 -9.42,11.68 -13.02,26.6 -20.34,39.5 -3.12,5.32 -5.38,11.06 -7.94,16.66 -1.06,0 -3.18,-0.02 -4.26,-0.02 1.24,-5.34 2.94,-10.58 5.7,-15.32 7.42,-13.12 12.4,-28.22 24.14,-38.3 l -2.96,-3.14 c 0.96,-0.16 2.9,-0.48 3.86,-0.64 1.32,-3.62 2.96,-7.22 6.02,-9.7 l 0.92,-1.38 z"
       id="path68"
       inkscape:connector-curvature="0"
       style="fill:#f5e5c1" />
    <path
       d="m 596.96,661.28 c 0.66,-0.3 1.96,-0.92 2.6,-1.22 -1.56,7.96 -6.3,14.72 -9.48,22.06 -4.78,9.44 -8.3,19.46 -12.92,28.96 -0.86,0.34 -2.56,1 -3.42,1.32 1.8,-8.76 6.32,-16.6 9.82,-24.72 4.38,-8.84 7.84,-18.26 13.4,-26.4 z"
       id="path70"
       inkscape:connector-curvature="0"
       style="fill:#f5e5c1" />
    <path
       d="m 680.64,704.7 c 3.96,-7.36 7.68,-15.02 13.42,-21.24 -1.52,8.34 -6.2,15.54 -9.78,23.06 -9.4,18.62 -17.2,38.06 -27.84,56.04 -22.7,41.94 -44.74,84.22 -66.5,126.66 -2.68,5.96 -5.86,11.7 -9.38,17.24 3.08,-5.82 6.08,-11.66 9.3,-17.36 -4,-2.26 -8,-4.46 -12.06,-6.54 l 0.12,-0.24 c 22.38,-41.2 45.5,-82 70.74,-121.52 11.66,-18.12 22.14,-36.94 31.98,-56.1 z"
       id="path72"
       inkscape:connector-curvature="0"
       style="fill:#f5e5c1" />
    <path
       d="m 566.58,726.68 c 1.3,-2.68 2,-6.16 5.32,-7.04 -0.48,3.32 -1.34,6.6 -2.88,9.58 -7.6,15.48 -12.82,32 -20.3,47.52 -6.88,12.84 -12.76,26.2 -19.02,39.36 -2.64,3.06 -6.62,-1.04 -4.92,-4.04 3.82,-13.84 12.62,-25.58 18.64,-38.48 7.26,-15.86 16.36,-30.82 23.16,-46.9 z"
       id="path74"
       inkscape:connector-curvature="0"
       style="fill:#f5e5c1" />
    <path
       d="m 104.4,766.56 c 0.6,1.52 1.18,3.04 1.76,4.58 1.24,6.22 3.64,13 0.16,18.96 -1.7,2.68 -2.08,7.52 -5.92,7.8 -2.12,-2.32 -3.94,-4.9 -5.82,-7.4 3.48,-7.88 6.82,-15.86 9.82,-23.94 z"
       id="path78"
       inkscape:connector-curvature="0"
       style="fill:#f5e5c1" />
    <path
       d="m 997.52,839.52 c 8.06,-17.08 18.58,-32.86 26.48,-50 l 0,33.96 c -16.06,34.44 -32.68,68.66 -46.3,104.14 -9.6,23.22 -20.24,46.04 -28.12,69.94 -3.16,7.98 -5.46,16.58 -10.5,23.64 -3.88,5.22 -13.68,1.64 -11.88,-5.1 9.38,-41.4 28.64,-79.48 43.62,-118.96 8.16,-19.54 17.64,-38.5 26.7,-57.62 z"
       id="path80"
       inkscape:connector-curvature="0"
       style="fill:#f5e5c1" />
    <path
       d="m 883.4,815.66 c 3.92,-3.84 4.84,-9.82 9.36,-13.24 -1.58,7.5 -6.1,13.78 -9.76,20.36 -14.14,32.88 -31.34,64.32 -47.76,96.12 -6.92,13.6 -12.4,27.86 -18.22,41.96 -2.64,4.58 -4.96,11.74 -11.5,11.14 0.92,-8.06 5.04,-15.2 7.52,-22.8 11.24,-32.1 29.04,-61.24 45,-91.12 7.1,-12.52 14.72,-24.84 23.74,-36.1 -3.28,-2.76 0.3,-4.44 1.62,-6.32 z"
       id="path84"
       inkscape:connector-curvature="0"
       style="fill:#f5e5c1" />
    <path
       d="m 84.26,815.9 c 2.52,1.94 6.64,2.88 7.58,6.22 -2.14,9.56 -6.44,18.48 -9.12,27.88 -3.1,-1 -6.14,-2.22 -9.12,-3.52 3.1,-10.34 6.4,-20.66 10.66,-30.58 z"
       id="path86"
       inkscape:connector-curvature="0"
       style="fill:#f5e5c1" />
    <path
       d="m 68.66,864.02 c 2.38,1.46 4.76,2.94 7.16,4.42 -1.72,11.58 -5.86,22.6 -8.86,33.88 -6.72,22.1 -10.48,44.96 -16.34,67.3 -2.76,-1.54 -4.56,-4.18 -4.32,-7.44 0.04,-12.68 2.94,-25.12 6.12,-37.34 3.5,-20.76 11.02,-40.48 16.24,-60.82 z"
       id="path88"
       inkscape:connector-curvature="0"
       style="fill:#f5e5c1" />
    <path
       d="m 580.56,906.46 c 3.52,-5.54 6.7,-11.28 9.38,-17.24 8.5,4.84 18.4,8.12 24.68,16.04 20.8,24.98 42.42,49.26 63,74.4 -7.16,14.5 -13.32,29.46 -19.64,44.34 l -72.72,0 c -17.74,-7.2 -35.24,-15.2 -53.56,-20.86 8.1,-13.16 12.98,-27.9 20.28,-41.48 9.56,-18.38 18.24,-37.24 28.58,-55.2 z"
       id="path92"
       inkscape:connector-curvature="0"
       style="fill:#f4722b" />
    <path
       d="m 181.48,911.9 c 1.76,-4.8 2.42,-11.3 8.46,-12.48 -7.68,24.06 -17.04,47.56 -28.16,70.24 -7.28,18.54 -17.1,35.94 -24.66,54.34 l -2.74,0 c 0.58,-0.3 1.74,-0.92 2.32,-1.24 4.04,-7.88 5.92,-16.58 8.66,-24.94 11.18,-29 26.76,-56.2 36.12,-85.92 z"
       id="path94"
       inkscape:connector-curvature="0"
       style="fill:#f5e5c1" />
    <path
       d="m 684.46,987.68 c 10.66,11.8 21,23.9 30.94,36.32 l -46.94,0 c 5.34,-12.1 10.44,-24.32 16,-36.32 z"
       id="path98"
       inkscape:connector-curvature="0"
       style="fill:#f4722b" />
    <path
       d="m 517.9,1004.66 c 1.1,-2.84 2.18,-5.64 3.46,-8.38 -0.98,2.96 -1.96,5.9 -2.94,8.88 4.36,-0.38 8.74,-0.76 13.1,-1.14 -3.36,6.6 -6.34,13.4 -9.74,19.98 l -12.2,0 c 2.98,-6.36 5.7,-12.84 8.32,-19.34 z"
       id="path100"
       inkscape:connector-curvature="0"
       style="fill:#f5e5c1" />
    <path
       d="m 279.34,1011.8 c 1.28,-3.42 2.68,-6.76 4.16,-10.06 -1.76,4.54 -3.3,9.16 -4.8,13.8 2.64,2.84 5.24,5.72 8.02,8.46 l -12.04,0 c 1.74,-4 3.14,-8.14 4.66,-12.2 z"
       id="path102"
       inkscape:connector-curvature="0"
       style="fill:#f5e5c1" />
  </g>
</svg>
