<?xml version="1.0" encoding="UTF-8" standalone="no"?>
<svg
   xmlns:dc="http://purl.org/dc/elements/1.1/"
   xmlns:cc="http://creativecommons.org/ns#"
   xmlns:rdf="http://www.w3.org/1999/02/22-rdf-syntax-ns#"
   xmlns:svg="http://www.w3.org/2000/svg"
   xmlns="http://www.w3.org/2000/svg"
   xmlns:sodipodi="http://sodipodi.sourceforge.net/DTD/sodipodi-0.dtd"
   xmlns:inkscape="http://www.inkscape.org/namespaces/inkscape"
   width="1280"
   height="1280"
   viewBox="0 0 1024 1024"
   version="1.1"
   id="svg2"
   inkscape:version="0.48.1 "
   sodipodi:docname="revenge_with_backstab.svg">
  <metadata
     id="metadata106">
    <rdf:RDF>
      <cc:Work
         rdf:about="">
        <dc:format>image/svg+xml</dc:format>
        <dc:type
           rdf:resource="http://purl.org/dc/dcmitype/StillImage" />
      </cc:Work>
    </rdf:RDF>
  </metadata>
  <defs
     id="defs104" />
  <sodipodi:namedview
     pagecolor="#ffffff"
     bordercolor="#666666"
     borderopacity="1"
     objecttolerance="10"
     gridtolerance="10"
     guidetolerance="10"
     inkscape:pageopacity="0"
     inkscape:pageshadow="2"
     inkscape:window-width="1920"
     inkscape:window-height="1018"
     id="namedview102"
     showgrid="false"
     inkscape:snap-page="true"
     fit-margin-top="0"
     fit-margin-left="0"
     fit-margin-right="0"
     fit-margin-bottom="0"
     inkscape:zoom="0.6609375"
     inkscape:cx="640"
     inkscape:cy="640"
     inkscape:window-x="-8"
     inkscape:window-y="-8"
     inkscape:window-maximized="1"
     inkscape:current-layer="svg2" />
  <rect
     style="fill:#3e3e3e;fill-opacity:1;fill-rule:nonzero;stroke:none"
     id="rect3097"
     width="1024"
     height="1024"
     x="2.8421709e-014"
     y="2.2737368e-013" />
  <path
     d="m 255.36,0 18.46,0 c -15.46,43.02 -28.96,86.74 -43.84,129.96 -17.62,-10.8 -35.02,-22 -52.74,-32.66 3.26,21.78 7.24,43.44 10.68,65.18 -53.3,-9.24 -106.1,-21.3 -159.3,-31.08 28.1,43.84 57.7,86.72 86.08,130.38 -18.34,5.6 -36.98,10.14 -55.48,15.16 18.44,12.12 37.8,22.78 56.12,35.06 C 77.46,345.5 38.04,377.26 0,410.56 l 0,-20.8 c 27.18,-22.68 53.84,-45.98 81.22,-68.4 3.84,-3.28 7.3,-6.96 10.72,-10.66 C 71.18,297.86 50.16,285.44 29.56,272.34 50.04,266.7 70.6,261.4 91.1,255.74 61.36,209.64 30.72,164.08 0,118.62 l 0,-8.2 c 11.2,3.36 22.78,5.04 34.2,7.42 46.18,8.76 92.06,19.06 138.34,27.22 -3.6,-23.68 -7.64,-47.28 -11.58,-70.9 0.5,-0.28 1.46,-0.84 1.96,-1.12 18.6,12.32 37.46,24.36 56.8,35.5 C 231.18,72.22 244.02,36.36 255.36,0 z"
     id="path6"
     inkscape:connector-curvature="0"
     style="fill:#635f58" />
  <path
     d="m 273.82,0 11.16,0 c 19.96,39.18 38.94,78.86 59.32,117.82 13.08,-14.5 25.9,-29.28 39.6,-43.22 3.76,22.64 6.32,45.46 10.26,68.08 52.42,-19.74 104.48,-40.44 156.72,-60.64 -9.54,20.58 -19.4,41.02 -29.04,61.54 -2.6,5.48 -5.26,10.94 -7.92,16.38 -18.4,1.44 -36.04,7.04 -53.96,11.06 -10,-5.52 -20.24,-11.92 -32.12,-11.72 -29.6,-0.86 -57.74,11.24 -83.06,25.5 -10.1,5.06 -13.98,16.52 -22.16,23.64 -8.96,5.66 -19.98,7.22 -28.6,13.56 -8.94,6.5 -17.98,14.54 -20.92,25.64 -1.14,3.6 -2.06,7.26 -3.04,10.9 -7.76,-2.18 -15.98,-4.66 -24.02,-2.3 -9.52,2.8 -18.3,7.78 -26.6,13.12 -6.28,3.92 -9.88,10.6 -13.72,16.68 -9.32,1 -18.7,1.3 -28,2.58 -7.82,0.94 -13.58,6.96 -19.86,11.14 -11.48,7.72 -20.22,18.54 -29.68,28.46 -9.14,9.34 -12.66,22.3 -18.18,33.82 -4.36,8.8 -1.8,18.72 -1.06,28 -11.1,8.84 -22.18,17.72 -33.4,26.44 -0.32,2.86 -0.66,5.72 -0.98,8.58 -7.02,-1.16 -14.02,-2.38 -21,-3.64 C 35.7,418.38 17.82,415.5 0,412.22 l 0,-1.66 C 38.04,377.26 77.46,345.5 115.34,312 97.02,299.72 77.66,289.06 59.22,276.94 77.72,271.92 96.36,267.38 114.7,261.78 86.32,218.12 56.72,175.24 28.62,131.4 c 53.2,9.78 106,21.84 159.3,31.08 -3.44,-21.74 -7.42,-43.4 -10.68,-65.18 17.72,10.66 35.12,21.86 52.74,32.66 C 244.86,86.74 258.36,43.02 273.82,0 z"
     id="path8"
     inkscape:connector-curvature="0"
     style="fill:#9f9683" />
  <path
     d="m 284.98,0 13.66,0 c 15.82,31.74 31.48,63.6 47.7,95.16 15.42,-15.36 29,-32.46 44.4,-47.84 4.4,25.14 7.1,50.54 11.42,75.68 58.12,-22.02 115.8,-45.3 174.02,-67.12 -11.4,24.64 -23.32,49.06 -34.4,73.84 -1.92,3.72 -3.5,7.84 -6.64,10.7 -4.28,1.68 -8.84,2.28 -13.3,3.16 9.64,-20.52 19.5,-40.96 29.04,-61.54 -52.24,20.2 -104.3,40.9 -156.72,60.64 -3.94,-22.62 -6.5,-45.44 -10.26,-68.08 -13.7,13.94 -26.52,28.72 -39.6,43.22 C 323.92,78.86 304.94,39.18 284.98,0 z"
     id="path10"
     inkscape:connector-curvature="0"
     style="fill:#635f58" />
  <path
     d="m 399.78,181.54 c 13.04,-3.06 27.02,-4.86 40.14,-1.62 13.72,5.1 14.1,21.1 19.8,32.44 10.16,30.18 22.46,59.68 30.96,90.4 1.98,5.64 -0.5,11.6 -5.38,14.8 -12.24,9.08 -24.04,19 -37.74,25.88 -16.22,-14.6 -34.82,-29.46 -57.64,-30.42 -15.46,-0.02 -31.08,1.12 -46,5.42 -8.72,1.96 -16.98,5.58 -25.74,7.3 -4.82,-3.1 -7.12,-9.04 -10.18,-13.76 -8.02,-16.6 -17.04,-33.36 -19.26,-51.9 0.52,-18.04 17.14,-30.5 33.22,-34.84 8.82,-2.44 15.96,4.26 23.76,6.92 21.92,7.48 45.8,5.78 68.04,0.66 -2.4,-2.22 -4.08,-6.24 -7.9,-5.9 -15.9,-1.02 -31.86,0.62 -47.76,-0.34 -5.18,-0.8 -11.54,-1.24 -14.78,-6 -3.26,-9.68 6.42,-16.82 12.36,-22.88 13.44,-8.1 28.62,-13.48 44.1,-16.16 z"
     id="path16"
     inkscape:connector-curvature="0"
     style="fill:#f5e5c1" />
  <path
     d="m 459.46,192.02 c 15.3,-4.24 30.12,-10.48 45.68,-13.7 12.68,33.78 23.96,68.12 36.18,102.1 -15.18,5.16 -30.42,10.1 -45.6,15.24 -12.18,-34.52 -24.28,-69.06 -36.26,-103.64 z"
     id="path18"
     inkscape:connector-curvature="0"
     style="fill:#f5e5c1" />
  <path
     style="fill:#f4722b"
     d="m 901.6,200.85 c -2.78,1.12 -5.65,2.1 -8.25,3.6 -6.2,8.74 -11.39,18.15 -17.65,26.85 -4.78,7.02 -8.42,14.72 -12.4,22.2 -11.5,21.06 -24.4,41.3 -35.3,62.7 -23.04,42.5 -44.52,85.85 -68.8,127.65 4.22,2.56 8.34,5.37 12.9,7.35 5.88,0.5 8.98,-4.98 11.7,-9.2 41.24,-65.5 82.52,-131.03 123.9,-196.45 4.48,-7.06 8.83,-14.19 13.35,-21.25 1.64,-2.62 3.29,-5.23 4.95,-7.85 -8.16,-5.18 -16.4,-10.18 -24.4,-15.6 z m -0.65,10.1 c 6.69944,-0.2065 14.1175,5.4525 11.55,12.7 -1.36,8.76 -15.66,11.81 -19.6,3.55 -3.42,-4.98 -1.83,-12.36 3.65,-15.1 1.33501,-0.72374 2.85397,-1.10235 4.4,-1.15 z M 766.9,436.85 c 2.34,0.34 4.74,0.68 7,1.5 0.8,3.18 -1.32,5.46 -3.6,7.3 -3.2,-1.96 -3.08,-5.6 -3.4,-8.8 z"
     id="path20"
     inkscape:connector-curvature="0" />
  <path
     d="m 880.38,206.84 c 4.2,-1.36 8.6,-1.88 12.98,-2.38 -6.2,8.74 -11.4,18.14 -17.66,26.84 -1.36,-4.18 -2.6,-8.4 -3.5,-12.7 2.68,-3.94 4.82,-8.34 8.18,-11.76 z"
     id="path22"
     inkscape:connector-curvature="0"
     style="fill:#f5e5c1" />
  <path
     d="m 893.38,223.02 c 0.44,-7.36 7.68,-11.38 14.22,-8.1 -4.68,2.8 -9.38,5.56 -14.22,8.1 z"
     id="path26"
     inkscape:connector-curvature="0"
     style="fill:#f5e5c1" />
  <path
     style="fill:#f4722b"
     d="m 929.2,218.25 c -2.46,3.7 -4.98,7.37 -7.3,11.15 -3.56,6.18 -7.38,12.23 -11.2,18.25 -43.5,68.88 -86.94,137.79 -130.3,206.75 3.7,5.38 9.28,8.8 15,11.7 11.24,-16.38 23.96,-31.66 34.8,-48.3 17.1,-25.92 36.25,-50.39 54.05,-75.85 20.4,-27.52 41.29,-54.73 60.15,-83.35 3.54,-5.5 8.04,-10.54 10.4,-16.7 -0.68,-3.58 -1.33,-7.82 -4.55,-10 -6.84,-4.82 -14.21,-8.83 -21.05,-13.65 z m 5.1,13.95 c 2.0168,-0.11133 4.0125,0.4375 5.5,2 6.68,4.74 -0.99,17.16 -8.05,14.2 -6.92,-1.3 -7.78,-13.19 -1,-15.35 1.1025,-0.4725 2.33992,-0.7832 3.55,-0.85 z M 793.45,450.85 c 0.36339,0.009 0.72,0.0875 1.05,0.15 0.56,2.22 1.05,4.47 1.45,6.75 -2.02,-1.12 -7.84,1.07 -7.2,-2.65 -0.8575,-3.01 2.15621,-4.3159 4.7,-4.25 z"
     id="path28"
     inkscape:connector-curvature="0" />
  <path
     d="m 894.82,226.9 c 5.5,-2.5 11.12,-4.8 16.88,-6.76 -2.12,3.34 -2.9,9.28 -7.82,9.66 -3.36,0.6 -6.24,-1.5 -9.06,-2.9 z"
     id="path30"
     inkscape:connector-curvature="0"
     style="fill:#f5e5c1" />
  <path
     d="m 907.7,245.56 c 4.48,-7.06 8.84,-14.2 13.36,-21.26 0.2,1.28 0.62,3.82 0.82,5.1 -3.56,6.18 -7.38,12.22 -11.2,18.24 -0.74,-0.52 -2.24,-1.56 -2.98,-2.08 z"
     id="path32"
     inkscape:connector-curvature="0"
     style="fill:#f5e5c1" />
  <path
     d="m 933.48,233.58 c 2.46,1.98 5.1,3.86 6.92,6.52 -0.86,1.8 -1.78,3.56 -2.78,5.28 -1.6,-3.86 -3.04,-7.78 -4.14,-11.8 z"
     id="path36"
     inkscape:connector-curvature="0"
     style="fill:#f5e5c1" />
  <path
     d="m 934.38,247.34 c -3.76,-1.1 -9.28,-7.24 -4.04,-9.54 1.6,3.06 2.8,6.32 4.04,9.54 z"
     id="path38"
     inkscape:connector-curvature="0"
     style="fill:#f5e5c1" />
  <path
     d="m 236.52,278.52 c 8.68,-5.32 19.86,-5.66 29.34,-2.54 8.04,4.22 13.82,11.64 20.08,18.02 8.8,11.48 18.48,22.56 24.52,35.84 -14.3,6.5 -27.36,15.38 -39.48,25.3 -8.98,7.58 -16.48,16.68 -24.66,25.08 -21.88,27.62 -27.22,64.8 -23.22,98.98 -5.54,0.12 -11.16,-1 -14.88,-5.42 -23.18,-22.88 -44.08,-47.94 -66.08,-71.9 -5.22,-8.16 -15.48,-13.46 -16.44,-23.84 -1.84,-10.02 4.78,-18.86 9.44,-27.12 10.42,-13.38 20.98,-27 34.84,-37.02 8.02,-7.74 19.1,-11.52 30.16,-11.36 6.02,0.02 9.9,7.14 7.62,12.48 -5.54,17.84 -18.06,32.4 -24.84,49.72 -1.26,2.84 -0.76,7.12 2.92,7.66 14.08,-16.12 25.74,-35.16 30,-56.36 1.44,-6.32 0.52,-12.84 1.54,-19.18 2.78,-8.98 11.5,-13.96 19.14,-18.34 z"
     id="path40"
     inkscape:connector-curvature="0"
     style="fill:#f5e5c1" />
  <path
     d="m 547.02,303.96 c 6.72,-1.64 13.6,-4.38 20.62,-3.26 6.12,1.9 11.42,5.64 17.02,8.66 32.04,16.92 64.34,33.42 95.96,51.1 -57.16,14.84 -114.34,29.7 -171.66,44 4.04,7.42 8.82,14.42 12.94,21.8 -6.44,-1.64 -9.66,-7.76 -13.54,-12.54 -5.18,-6.8 -11.34,-12.76 -17.62,-18.52 27,-5.7 53.5,-13.48 80.28,-20.14 24.3,-6.52 48.88,-12.06 73,-19.24 -31.98,-17.9 -64.9,-34.12 -97,-51.86 z"
     id="path42"
     inkscape:connector-curvature="0"
     style="fill:#635f58" />
  <path
     d="m 510.1,307.98 c 9.34,-1.94 18.52,-4.56 27.92,-6.18 3.18,-0.88 6.22,0.82 9,2.16 32.1,17.74 65.02,33.96 97,51.86 -24.12,7.18 -48.7,12.72 -73,19.24 -26.78,6.66 -53.28,14.44 -80.28,20.14 -9.76,-13.86 -19.92,-27.42 -31.6,-39.74 13.52,-9.88 26.42,-20.56 39.56,-30.94 5.46,-4.2 8.22,-10.66 11.4,-16.54 z"
     id="path44"
     inkscape:connector-curvature="0"
     style="fill:#9f9683" />
  <path
     d="m 387.25,329.5 c -3.0625,0.1275 -6.21,0.85 -9.2,1.2 -12.1,2.08 -24.57,2.42 -36.35,6.2 3.22,6.04 5.01,12.72 4.95,19.6 -8.5,10.88 -16.48,22.23 -25.8,32.45 -4.8,5.18 -6.92,12.25 -7.6,19.15 2.76,6.94 7.93,12.54 11.75,18.9 6.4,11 19.77,14.7 27.75,24.2 0.52,5.82 -1.95,11.82 0.35,17.5 4.02,12.52 3.48,25.92 7.7,38.4 3.44,10.06 6.29,20.43 6.45,31.15 -2.98,3.04 -5.9,6.13 -8.7,9.35 -14.48,-1.26 -27.81,-8.22 -42.45,-8.3 -13.22,-0.94 -27.6,2.84 -35.3,14.4 -0.4,6.28 -1.04,12.56 -1.8,18.8 6.66,4.08 14.55,3.82 22.05,3.4 -0.5,-1.6 -1.5,-4.8 -2,-6.4 l -0.15,-0.55 c -4.5,1.44 -9.02,2.81 -13.5,4.25 0.52,-0.86 1.58,-2.54 2.1,-3.4 7.94,-3.78 15.84,-8.41 24.8,-9.25 17.2,-2.12 34.98,-1.62 51.7,3.3 -1.46,0.8 -4.31,2.45 -5.75,3.25 -2.46,-0.56 -4.91,-1.14 -7.35,-1.7 -9.52,8.46 -21.43,13.46 -31.75,20.8 -5.6,4.02 -10.74,8.68 -16.1,13 3.72,7.52 6.18,15.75 11.4,22.45 8.74,10.04 10.32,23.89 16.9,35.15 2.34,3.52 6.39,1.18 9.35,-0.1 4.68,-8.62 6.41,-18.49 11.05,-27.15 14.02,-28.7 28.35,-57.35 45.15,-84.55 9.6,-15.12 22.13,-27.97 34.45,-40.85 -0.18,-1.56 -0.52,-4.69 -0.7,-6.25 -4.9,-13.8 -10.17,-27.78 -18.65,-39.8 -14.42,-17.12 -28.2,-35.53 -47.4,-47.65 7.94,-7.42 14.18,-16.41 22.5,-23.45 10.16,-8.82 21.44,-17.62 35,-20.1 -21.48,9 -39.98,24.41 -53.8,43.05 17.02,12.52 30.3,29.2 43.5,45.5 1.36,-0.24 4.09,-0.76 5.45,-1 0.12,1.22 0.41,3.68 0.55,4.9 7.86,-15.8 18.73,-29.8 27.15,-45.3 -6.14,-15.06 -14.69,-28.92 -24.15,-42.1 12.84,11.02 19.51,27.04 26.55,42 -3.58,6.86 -7.18,13.86 -8.7,21.5 -5.38,9.6 -12.33,18.53 -15.85,29.05 4.02,12.24 10,23.98 11,37.1 8.72,-8.66 18.41,-16.2 27.55,-24.4 8.64,-7.46 19.01,-12.46 28.55,-18.6 8.08,-5.22 16.89,-9.07 25.65,-12.95 C 505.11,431.23 494.56,416.7 481.5,404.5 464.06,387.28 447,369.66 429.4,352.6 c -10.44,-7.94 -22.41,-13.64 -33.45,-20.7 -2.64,-2.02 -5.6375,-2.5275 -8.7,-2.4 z m 30.45,52.85 c 2.62168,0.0147 5.12499,0.8875 6.4,3.45 4.5,7.74 12.61,15.36 10.55,25.1 -0.86,3.06 -4.2,3.79 -6.6,5.25 -1.62,4.62 -3.37,9.21 -5.25,13.75 -9.36,0.74 -14.22,-7.65 -19.3,-13.95 -2.38,-0.68 -4.41,-2.08 -6.35,-3.6 -0.2,-5.04 -1.15,-10.26 0.25,-15.2 2.94,-6.54 8.24,-12.89 15.7,-14.05 1.4025,-0.45 3.02699,-0.75878 4.6,-0.75 z"
     id="path46"
     style="fill:#f4722b"
     inkscape:connector-curvature="0" />
  <path
     d="m 338.95,338.4 c -11.64,5.22 -23.79,9.28 -34.95,15.5 -10.32,6.06 -21.68,11.08 -29.2,20.8 -7.86,10.02 -19.91,17.41 -23.65,30.15 -4.46,12.54 -8.17,25.3 -12.15,38 -5.84,13.94 1.62,28.45 5,42.05 1.42,0.26 4.26,0.76 5.7,1 1.44,6.14 4.12,12.58 1.5,18.8 -4.76,11.82 -2.44,24.71 0.1,36.75 2.26,4.78 7.77,6.31 12.35,7.95 4.04,-2.54 8.13,-4.98 12.25,-7.4 1.42,2.54 2.88,5.04 4.3,7.6 5.2,-4.12 10.24,-9.29 17.1,-10.35 13.7,-1.54 27.67,-1.09 41.15,1.95 2.62,0.82 5.23,1.64 7.85,2.5 2.4,1.02 4.79,2.14 7.35,2.7 4.5,-2.78 8.55,-6.23 12.95,-9.15 -0.5,-9.5 -2.39,-18.87 -5.85,-27.75 -5.1,-13.34 -4.41,-27.93 -8.35,-41.55 -1.62,-5.22 -0.28,-10.65 -0.1,-15.95 -8.02,-9.5 -21.02,-13.63 -27.7,-24.45 -3.82,-6 -8.6,-11.51 -11.3,-18.15 -1.1,-7.52 2.39,-15.18 7.15,-20.9 7.74,-8.98 15.07,-18.38 22.15,-27.9 5.8,-6.92 -0.43,-15.58 -3.65,-22.2 z M 263.6,452.9 c 9.56906,0.008 19.10499,2.50501 28.3,5.1 -7.54,11.62 -16.13,22.77 -21.45,35.65 -1.74,5.04 -3.57,11.16 -0.35,16 5.72,4.8 13.37,8.28 14.95,16.4 -1.76,2.92 -3.47,5.87 -5.15,8.85 -4.94,1.98 -9.79,4.39 -13.55,8.25 0.28,-2.22 0.54,-4.4 0.8,-6.6 3.92,-4.06 8.81,-7.25 14.75,-5.55 0.42,-2.94 2.47,-6.08 0.95,-9 -3.2,-5.84 -9.7,-8.52 -15.4,-11.2 -0.76,-1.48 -1.3,-3.03 -1.6,-4.65 1.8,-5.92 3.62,-11.86 5.4,-17.8 -4.76,-3.26 -6.85,-8.49 -7.55,-14.05 -6.14,-4.14 -14.71,-0.4 -21.75,-2.3 2.94,-6.54 4.17,-15.74 12.05,-18.2 3.19,-0.64499 6.41032,-0.9025 9.6,-0.9 z"
     id="path48"
     style="fill:#f4722b"
     inkscape:connector-curvature="0" />
  <path
     d="m 404.62,390.82 c 4.58,-2.54 9.78,-4.04 15,-4.38 5.68,5.34 9.62,12.3 12.96,19.3 1.34,1.96 -0.34,3.92 -1.02,5.76 -0.86,0.7 -2.56,2.1 -3.42,2.78 -1.68,3.86 -3.3,7.74 -4.88,11.64 -0.8,-7.8 0.5,-18.8 -8.52,-22.32 -5.74,-2.28 -9.5,3.26 -13.18,6.54 -0.68,-0.06 -2.06,-0.22 -2.74,-0.28 -1.46,-6.76 -0.18,-14.8 5.8,-19.04 z"
     id="path52"
     inkscape:connector-curvature="0"
     style="fill:#f4722b" />
  <path
     d="m 92.6,428.42 c 11.46,-11.18 22.92,-22.34 34.5,-33.38 24.54,27.06 49.28,53.96 73.9,80.98 -11.66,11 -23.32,21.98 -35,32.98 -24.46,-26.86 -49.08,-53.58 -73.4,-80.58 z"
     id="path54"
     inkscape:connector-curvature="0"
     style="fill:#f5e5c1" />
  <path
     d="m 0,412.22 c 17.82,3.28 35.7,6.16 53.56,9.2 -4.42,3.9 -7.62,8.86 -9.58,14.4 C 29.16,434.9 14.52,432 0,428.96 l 0,-16.74 z"
     id="path56"
     inkscape:connector-curvature="0"
     style="fill:#635f58" />
  <path
     d="m 752.62,432.74 c 2.98,-0.28 6,-0.12 9,-0.06 -2.48,4 -5.02,7.98 -7.6,11.92 5.14,3.58 10.36,7.02 15.6,10.48 2.92,-0.42 5.84,-0.86 8.78,-1.28 0.12,1.54 0.34,4.62 0.46,6.18 5.78,4.38 11.94,8.26 18.2,11.92 2.54,-4.14 5.06,-8.32 7.58,-12.5 1.5,1.54 3,3.08 4.5,4.62 -1.9,3.66 -3.8,7.32 -5.68,11 -5.54,-0.12 -11.06,-0.24 -16.6,-0.4 -12.26,24.7 -25.22,49.06 -38.68,73.14 -3.4,5.94 -6.74,11.94 -10.2,17.86 l -0.54,0.92 c -4.18,7.12 -7.74,14.58 -11.7,21.82 -0.64,1.12 -1.94,3.36 -2.58,4.48 -14.38,-8.16 -27.54,-18.3 -41.8,-26.66 1.9,-2.98 3.8,-5.98 5.76,-8.92 7.36,-10.84 14.3,-21.96 21.62,-32.84 16.12,-23.24 31.56,-46.92 47.66,-70.18 -3.1,-4.34 -6.26,-8.66 -9.52,-12.9 1.82,-2.92 3.52,-5.96 5.74,-8.6 z"
     id="path58"
     inkscape:connector-curvature="0"
     style="fill:#f5e5c1" />
  <path
     d="m 475.44,473.62 c 17.18,-13.5 37.54,-22.6 58.88,-27.06 7.78,-0.84 15.82,0.8 22.96,3.94 9.42,9.7 13.38,23.54 22.88,33.2 11.44,7.88 24,14 35.82,21.3 8.68,-4 17.36,-8 26.04,-12 12.56,8.08 23.24,18.54 33.86,28.96 6.46,-1.98 12.94,-3.98 19.44,-5.92 4.46,2.82 8.94,5.6 13.42,8.38 -7.32,10.88 -14.26,22 -21.62,32.84 C 677.26,554.3 667,552.6 657.64,548.18 646.02,542.7 633.8,538.3 623.12,531 c 14.74,13.5 31.96,23.84 48.8,34.44 -10.98,-5.66 -23.56,-7.12 -34.44,-13.02 -6.26,-3.44 -13.12,-5.52 -20.16,-6.6 15.06,10.26 31.02,19.1 46.94,27.94 12.8,7.2 27.02,12.06 38.52,21.44 11.24,9.5 20.94,20.78 28.78,33.22 8.72,13.86 19.44,26.36 27.38,40.7 15.26,26.9 32.26,52.88 45.14,81.04 -9.78,-27.54 -23.62,-53.4 -37.12,-79.26 -6.52,-10.16 -9.42,-22.04 -15.72,-32.28 -7.4,-12.24 -12.94,-25.52 -20.96,-37.4 5.8,-0.12 11.62,-0.36 17.4,-1.1 -6.68,-4.98 -13.98,-9.2 -21.94,-11.76 3.96,-7.24 7.52,-14.7 11.7,-21.82 15.06,15.26 26.26,33.74 35.44,53 5.76,12.14 7.56,25.82 14.18,37.58 7.42,13.56 12.08,28.36 17.4,42.8 8.12,22.02 11.2,45.56 20.12,67.3 11.68,35.68 21.96,71.84 29.9,108.56 6.54,26.16 13.46,52.24 19.1,78.62 2.88,14.3 7.96,28.36 7.64,43.12 -0.24,8.9 1.26,17.7 2.48,26.48 l -13.98,0 c -2.84,-30.58 -11.02,-60.26 -17.56,-90.16 -6.52,-28.34 -16.9,-55.5 -26.72,-82.8 -6.5,-18.82 -15.82,-36.42 -23.46,-54.78 -12.16,-24.62 -24.22,-49.48 -40.12,-71.98 -35.12,-50.64 -78.72,-94.62 -123.52,-136.68 -12.46,-11.12 -26.16,-22.34 -43.02,-25.48 -15.54,-3.18 -31.42,-6.02 -47.34,-4.56 -13.06,1.1 -26.32,0.2 -39.24,2.8 -19.14,3.6 -38.84,4.18 -57.54,10 -11.08,2.94 -21.12,8.58 -31.34,13.58 8.98,-9.16 18.32,-17.96 28.06,-26.34 11.04,-9.58 19.94,-22.04 33.46,-28.42 16.04,-7.54 32.26,-14.72 48.44,-21.96 5.46,-2.5 11.18,-4.42 17.12,-5.42 -0.32,-1.58 -0.72,-3.12 -1.36,-4.58 -6.12,6.52 -15.08,8.26 -22.96,11.72 -14.88,5.76 -28.94,13.38 -43.88,19 -12.12,4.44 -19.3,15.92 -28.8,24 -22.64,19.94 -44.5,40.76 -65.82,62.12 -10.48,10.26 -20.88,20.74 -29.5,32.68 -6.22,9.48 -11.28,19.68 -17.8,28.98 -0.86,-4.48 -1.28,-9.26 1.72,-13.08 7.14,-10.36 10.58,-22.54 16.08,-33.72 10,-19.86 19.84,-39.82 30.64,-59.28 8.98,-16.98 19.28,-33.64 33.74,-46.54 17.24,-18.2 35.34,-35.76 56.44,-49.48 z"
     id="path62"
     inkscape:connector-curvature="0"
     style="fill:#f4722b" />
  <path
     d="m 266.56,472.1 c 4.4,-2 8.98,-3.58 13.68,-4.68 0.34,1.16 1.02,3.5 1.36,4.68 -5.08,0.48 -10.14,1.12 -15.22,1.52 0.04,-0.38 0.14,-1.14 0.18,-1.52 z"
     id="path68"
     inkscape:connector-curvature="0"
     style="fill:#f4722b" />
  <path
     d="m 269.62,484.06 c -4.2,-6.44 3.1,-11.2 9,-9.24 -2.72,3.34 -5.56,6.6 -9,9.24 z"
     id="path70"
     inkscape:connector-curvature="0"
     style="fill:#f5e5c1" />
  <path
     d="m 188.62,516.24 c 5.6,-8 11.34,-15.9 17.12,-23.76 11.04,6.24 23.86,0.64 35.78,1.74 -4.82,17.56 -4.2,35.92 -2.68,53.9 0.72,7.84 5.44,14.46 9.68,20.8 -18.54,22.4 -36.54,45.32 -56.1,66.84 -0.64,-39.26 -1.64,-78.52 -3.66,-117.72 l -0.14,-1.8 z"
     id="path72"
     inkscape:connector-curvature="0"
     style="fill:#9f9683" />
  <path
     d="m 188.76,518.04 c 2.02,39.2 3.02,78.46 3.66,117.72 19.56,-21.52 37.56,-44.44 56.1,-66.84 3.34,0.66 6.68,1.34 10.02,2.04 -1.24,4.18 -2.94,8.26 -5.96,11.48 -25.42,29.7 -49.4,60.62 -75.32,89.86 -0.6,-18.08 -0.16,-36.2 -0.88,-54.28 -2.8,-25.82 -0.86,-51.84 -2.62,-77.68 3.32,-8.34 10.22,-14.76 15,-22.3 z"
     id="path74"
     inkscape:connector-curvature="0"
     style="fill:#635f58" />
  <path
     style="fill:#f4722b"
     d="m 748.2,547.75 c -3.4,5.94 -6.74,11.93 -10.2,17.85 14.56,10.64 22.76,27.49 31.4,42.85 10.78,19 16.23,40.29 25.55,59.95 7.42,17.36 14.22,35.02 19,53.3 4.12,13.94 6.88,28.3 12.4,41.8 10.06,29 17.82,58.77 25.6,88.45 3.02,13.36 5.81,26.77 10.25,39.75 6.04,28.84 13.58,57.35 19.8,86.15 3.02,13.14 -2.21,27.79 6.25,39.55 2.5,-3.24 5.17,-6.69 4.15,-11.05 -1,-7.06 0.37,-13.99 2.25,-20.75 -3.94,-5.94 -9.23,-10.77 -13.85,-16.15 5.88,-9.16 10.34,-19.91 19.4,-26.45 5.44,0.3 6.62,8.06 9.7,11.9 6.14,-13.46 12.38,-26.87 18.7,-40.25 2.56,-5.18 3.72,-10.94 3.8,-16.7 0.64,-25.4 1.51,-50.82 2.45,-76.2 0.44,-5.8 -1.3,-11.4 -3.9,-16.5 -9.98,-20.2 -19.65,-40.53 -29.35,-60.85 -4.7,-10.1 -12.25,-18.41 -18.95,-27.15 -19.9,-25.66 -39.86,-51.27 -59.7,-76.95 -1.2,5.58 -2.45,11.17 -3.75,16.75 -8.8,-2.76 -16.16,-8.42 -23,-14.4 2.26,-8.86 4.82,-17.62 7.7,-26.3 -4.98,-6.34 -9.98,-12.61 -15.2,-18.75 -6.9,-0.98 -16.64,1.68 -21,-5.3 -2.94,-7.66 -1.54,-16.1 -3.2,-24 -3.76,-8 -10.38,-14.17 -16.3,-20.55 z m 77.5,125 c 1.23904,-0.0847 2.4775,0.5125 3.3,2 3.48,6.68 6.12,13.79 9.7,20.45 3.34,5.14 1.33,11.29 0.85,16.95 -8.22,-5.24 -17.51,-8.17 -26.35,-12.05 1.94,-8.38 5.34,-16.33 8.8,-24.15 0.52875,-1.87875 2.10694,-3.09115 3.7,-3.2 z m 22.25,58.75 c 6.56,5.7 9.46,14.18 12.4,22.1 2.18,5.86 2.31,12.8 -1.75,17.9 -2.34,1.16 -4.19,-0.9 -5.95,-2.1 -5.32,-4.1 -10.08,-8.86 -14.7,-13.7 2.26,-8.46 4.52,-17.14 10,-24.2 z m 20.15,59.85 c 6.06,6.02 6.48,14.92 10.3,22.2 1.72,4.72 5.14,9.53 4,14.75 -2.9,5.84 -7.22,11.03 -12.5,14.85 -6.16,-6.62 -16.46,-10.39 -19.6,-19.15 4.5,-11.48 12.28,-21.57 17.8,-32.65 z m 14.4,74.55 c 3.44,12.02 10.93,22.35 14.55,34.25 1.48,4.64 -2.71,5.02 -6.05,5.7 -1.02,3.2 -2,6.41 -2.9,9.65 -4.38,0.64 -8.29,-1.1 -11.05,-4.5 -5.36,-6.04 -14.63,-11.39 -12.95,-20.75 1.86,-7.8 6.9,-14.4 11.1,-21.1 1.3,-2.86 4.72,-2.51 7.3,-3.25 z"
     id="path78"
     inkscape:connector-curvature="0" />
  <path
     d="m 299.04,569.5 c 7.3,-2.68 14.86,-4.54 22.58,-5.4 -7.3,3.82 -11.42,12.52 -19.88,14.04 l -0.7,-2.26 c -0.5,-1.6 -1.5,-4.78 -2,-6.38 z"
     id="path80"
     inkscape:connector-curvature="0"
     style="fill:#f5e5c1" />
  <path
     d="m 326.3,574.9 c 7.2,-5.24 15.36,-9.96 24.6,-9.48 -9.52,8.46 -21.44,13.46 -31.76,20.8 -2.62,-2.42 -3.1,-4.92 0.6,-6.48 2.12,-1.72 4.34,-3.3 6.56,-4.84 z"
     id="path82"
     inkscape:connector-curvature="0"
     style="fill:#f5e5c1" />
  <path
     d="m 311.76,576.58 c 4.3,-3.46 9.48,-3.62 14.54,-1.68 -2.22,1.54 -4.44,3.12 -6.56,4.84 l -0.36,-3.06 c -1.9,-0.02 -5.72,-0.08 -7.62,-0.1 z"
     id="path84"
     inkscape:connector-curvature="0"
     style="fill:#f4722b" />
  <path
     style="fill:#f4722b"
     d="m 552.3,594.9 c -0.76118,-0.012 -1.53374,0.025 -2.3,0.05 -20.96,0.52 -42,2.57 -62.3,8.15 -20.36,4.34 -41.82,8.63 -58.5,21.95 -17.32,13.96 -35.81,26.69 -50.95,43.15 -15.7,15.02 -27.37,33.34 -38.55,51.8 -4.82,7.68 -11.32,14.24 -15.2,22.5 -22.54,46.72 -45.39,93.32 -68.05,140 -15.16,30.16 -27.86,61.48 -41.6,92.3 -7.18,16.02 -11.02,33.38 -18.6,49.2 l 635.2,0 c -5.24,-30.42 -10.92,-60.86 -19.3,-90.6 -11.78,-32.7 -21.95,-66.06 -36.05,-97.9 -7.86,-17.12 -13.17,-35.74 -24.85,-50.8 -13.58,-17.74 -27.5,-35.22 -40.8,-53.2 -7.62,-9.98 -12.57,-21.71 -20.65,-31.35 -15.62,-18.88 -30.67,-38.57 -49.55,-54.35 -8.94,-7.8 -18.38,-14.94 -27.8,-22.1 -9.1,-6.84 -16.28,-16.56 -27.3,-20.5 -10.59374,-3.9 -21.43227,-8.11997 -32.85,-8.3 z m -122,110 c 3.78672,-0.0843 7.60875,0.015 11.4,0.3 4.4,0.86 8.17,3.46 12.05,5.6 1.06,0.06 3.22,0.19 4.3,0.25 14.78,13.16 23.86,31.93 26,51.55 2.52,24.24 1.51,49.91 -9.45,72.15 -8.1,17.16 -14.97,35.6 -28.35,49.5 -13.68,12.88 -24.01,29.88 -41.45,38.3 -10.22,4.6 -19.08,11.76 -29.4,16.1 -18.18,6.66 -37.89,12.69 -57.35,8.45 -16.84,-2.96 -31.72,-13.75 -41.1,-27.85 -7.72,-12.54 -6.71,-27.93 -5.05,-41.95 6.76,-29.04 22.74,-54.61 37.1,-80.35 16.54,-23.16 33.2,-46.37 52.6,-67.25 5.96,-6.1 12.64,-11.78 20.7,-14.9 15.3075,-5.83374 31.59086,-9.53482 48,-9.9 z m -5.15,1.55 c -12.91219,0.32344 -25.79499,3.52499 -37.9,7.8 -23.22,8.82 -37.06,30.57 -52,49.05 -13.08,15.7 -23.41,33.4 -32.75,51.5 -7.16,15.36 -16.62,29.63 -22.1,45.75 -7.6,18.9 -8.78,41.47 1.2,59.75 4.98,10.76 15,18.8 26.3,22.1 12.62,2.44 25.51,3.44 38.35,2.8 3.9,-1.16 7.91,-1.92 11.95,-2.5 2.08,-0.68 4.15,-1.39 6.25,-2.05 8.3,-3.32 16.26,-7.39 23.8,-12.15 11.38,-7.14 23.38,-13.69 32.9,-23.35 13.76,-13.78 28.25,-27.49 37.55,-44.85 5.8,-12.5 10.49,-25.5 16.05,-38.1 7.98,-23.58 7.44,-49.22 2.8,-73.4 -4.66,-19.78 -20.88,-34.85 -39.5,-41.65 -4.29,-0.6 -8.59594,-0.80781 -12.9,-0.7 z m -33.4,59.7 c 1.81547,-0.1029 3.6225,0.1175 5.4,0.8 2.62,2.62 2.83,7.5 -0.25,9.9 -7.12,6.34 -16.64,8.91 -24.2,14.65 10.82,-3.1 20.64,-10.92 32.5,-8.7 -0.06,3.84 1.42,8.14 -0.5,11.7 -9.34,5.6 -19.89,8.85 -29.55,13.85 0.02,1.88 0.08,5.59 0.1,7.45 8.14,-3.12 15.68,-7.45 23.4,-11.45 3.74,-1.94 9.37,-3.02 12.25,0.9 1.34,3.68 1.43,9 -2.55,11.1 -8.32,5.6 -17.66,9.36 -26.6,13.8 -3.32,1.1 -4.93,3.95 -5.35,7.35 10.32,-3.66 20.12,-11.47 31.7,-9.05 3.14,0.36 4.08,5.03 1.5,6.95 -7.64,8 -18.76,10.94 -27.8,16.9 -3.22,2.02 -2.05,6.7 -3.25,9.8 8.52,-3.12 16.46,-7.67 25.1,-10.45 3.94,-1.74 7.86,0.5 11.6,1.6 -0.24,4.1 0.71,9.53 -4.05,11.45 -19.4,9.62 -40.18,16.61 -58.6,28.15 -4.78,2.78 -10.19,6.16 -15.95,4.5 -4.56,-0.82 -5.31,-6.87 -3.55,-10.35 5.24,-4.82 12.03,-7.52 18.05,-11.2 -0.34,-1.76 -1.06,-5.26 -1.4,-7 -9.32,4.02 -18.45,10.59 -29.15,8.55 0.12,-2.76 0.04,-5.55 0.5,-8.25 7,-6.02 15.66,-9.71 23.8,-13.95 -0.12,-1.64 -0.33,-4.91 -0.45,-6.55 -8.12,3.38 -15.07,10.5 -24.15,11 -5.72,0.6 -7.46,-7.63 -3.3,-10.65 6.96,-6.78 15.76,-11.29 24.2,-15.95 0,-1.32 0.03,-3.96 0.05,-5.3 -7.9,3.6 -14.65,10.51 -23.35,11.85 -6.72,0.9 -7.3,-8.99 -3.1,-12.35 9.26,-9.3 22.68,-13.14 31.1,-23.5 -8.64,4.14 -16.98,10.58 -27.1,9.6 0.26,-3.96 -1.08,-8.96 3,-11.4 18.68,-13.96 40.67,-22.39 61.25,-33.05 2.6625,-1.4625 5.67422,-2.52851 8.7,-2.7 z"
     id="path86"
     inkscape:connector-curvature="0" />
</svg>
