<?xml version="1.0" encoding="UTF-8" standalone="no"?>
<svg
   xmlns:dc="http://purl.org/dc/elements/1.1/"
   xmlns:cc="http://creativecommons.org/ns#"
   xmlns:rdf="http://www.w3.org/1999/02/22-rdf-syntax-ns#"
   xmlns:svg="http://www.w3.org/2000/svg"
   xmlns="http://www.w3.org/2000/svg"
   xmlns:sodipodi="http://sodipodi.sourceforge.net/DTD/sodipodi-0.dtd"
   xmlns:inkscape="http://www.inkscape.org/namespaces/inkscape"
   width="1280"
   height="1280"
   viewBox="0 0 1024 1024"
   version="1.1"
   id="svg2"
   inkscape:version="0.48.1 "
   sodipodi:docname="sap_building_backstab_engy.svg">
  <metadata
     id="metadata52">
    <rdf:RDF>
      <cc:Work
         rdf:about="">
        <dc:format>image/svg+xml</dc:format>
        <dc:type
           rdf:resource="http://purl.org/dc/dcmitype/StillImage" />
      </cc:Work>
    </rdf:RDF>
  </metadata>
  <defs
     id="defs50" />
  <sodipodi:namedview
     pagecolor="#ffffff"
     bordercolor="#666666"
     borderopacity="1"
     objecttolerance="10"
     gridtolerance="10"
     guidetolerance="10"
     inkscape:pageopacity="0"
     inkscape:pageshadow="2"
     inkscape:window-width="1920"
     inkscape:window-height="1018"
     id="namedview48"
     showgrid="false"
     inkscape:snap-page="true"
     fit-margin-top="0"
     fit-margin-left="0"
     fit-margin-right="0"
     fit-margin-bottom="0"
     inkscape:zoom="0.6609375"
     inkscape:cx="640"
     inkscape:cy="640"
     inkscape:window-x="-8"
     inkscape:window-y="-8"
     inkscape:window-maximized="1"
     inkscape:current-layer="svg2" />
  <rect
     style="fill:#3e3e3e;fill-opacity:1;fill-rule:nonzero;stroke:none"
     id="rect3030"
     width="1024"
     height="1024"
     x="0"
     y="0" />
  <path
     d="m 268.48,0 132.28,0 c -0.48,24.68 -2.8,49.26 -4.4,73.88 -4.84,70.2 -9.98,140.36 -14.78,210.56 -1.22,9.86 0.88,21.18 -5.9,29.42 -5.92,9.22 -14.48,16.1 -22.72,23.12 -33.92,33.34 -65.88,70.02 -86.1,113.5 -7.94,19.48 -11.7,40.52 -12.32,61.52 -0.82,13.76 -3.24,27.58 -1.66,41.38 3.1,15.54 1.56,31.64 5.5,47.06 3.52,-5.32 7.1,-10.62 10.22,-16.2 8.98,-17.72 20.84,-34.08 35.06,-47.96 1.34,120.62 3.92,241.2 6.6,361.78 0.2,11.12 0.88,22.28 0.16,33.4 -3.88,-11.44 -5.2,-23.5 -7.6,-35.28 C 257.84,658.14 212.98,420.1 167.98,182.06 c 5.18,5.48 10.44,10.94 16.54,15.42 29.2,22.14 58.32,44.36 87.48,66.54 C 270.82,176.02 269.66,88 268.48,0 z"
     id="path6"
     inkscape:connector-curvature="0"
     style="fill:#f5e5c1" />
  <path
     d="m 475.02,0 312.44,0 c -27.42,114.48 -54.06,229.18 -81.28,343.72 -15.26,-2.96 -30.12,-7.7 -44.52,-13.52 -7.86,-3.34 -15.6,-8.18 -19.8,-15.9 -10.28,-15.52 -14.54,-34 -17.76,-52.08 -3.58,-20.4 -0.62,-42.04 -9.1,-61.44 3.5,-4.46 7.4,-8.64 10.36,-13.5 4.46,-7.54 3.52,-17.88 -2.42,-24.34 -7.94,-8.66 -16.36,-17.04 -26.3,-23.42 -9.84,-6.08 -18.62,-14.7 -30.38,-16.86 -9.9,-2.72 -19.44,2.28 -28.42,5.78 -5.54,-10.8 -12.1,-24.22 -25.5,-26.22 -16.12,-2.86 -27.34,11.5 -39.38,19.52 0.5,-40.58 2.2,-81.16 2.06,-121.74 z"
     id="path8"
     inkscape:connector-curvature="0"
     style="fill:#f5e5c1" />
  <path
     d="m 480.22,146.06 c 6.66,-8.72 15.94,-17.54 27.72,-17.18 5.62,3.3 8.66,9.58 12.94,14.36 6.92,7.9 8.86,18.6 14.6,27.24 5.04,7.68 5.84,17.1 9.68,25.32 1.38,3.5 4.08,8.44 -0.12,11.14 -6.04,6.46 -15.36,4.26 -23.1,3.66 C 510,198.82 501,184.58 490.14,171.88 c -5.84,-7.1 -12.38,-16.34 -9.92,-25.82 z"
     id="path10"
     inkscape:connector-curvature="0"
     style="fill:#f4722b" />
  <path
     d="m 541.2,167.42 c 5.48,-10.52 16.04,-16.48 24.22,-24.58 4.1,4.2 8.24,8.36 12.5,12.38 -9.98,10.02 -17.88,22 -28.64,31.28 -2.08,-6.62 -4.94,-12.92 -8.08,-19.08 z"
     id="path12"
     inkscape:connector-curvature="0"
     style="fill:#f4722b" />
  <path
     d="m 528.02,147.82 c 5.54,1.96 10.92,4.44 15.72,7.9 -2.62,2.52 -5.26,5.02 -7.94,7.46 -2.02,-5.4 -4.68,-10.52 -7.78,-15.36 z"
     id="path14"
     inkscape:connector-curvature="0"
     style="fill:#f4722b" />
  <path
     d="m 457.55,156.65 c -6.3,3.24 -11.56,8.31 -13.4,15.35 -7.58,20.46 -12.9,41.82 -22.5,61.5 -3.2,8.18 -7.92,15.78 -10.2,24.3 1.08,11.54 2.67,23.17 5.85,34.35 3.54,-4.16 7.06,-8.34 10.6,-12.5 -2.66,-1.2 -5.34,-2.37 -8,-3.55 -0.54,-0.8 -1.61,-2.4 -2.15,-3.2 6.14,1.46 11.87,4.22 17.55,6.9 -0.06,-1.38 -0.21,-4.17 -0.25,-5.55 5.38,5.22 10.93,10.27 16.55,15.25 5.7,-0.28 11.49,0.1 17.15,-0.9 5.48,-3.26 7.49,-9.57 9.05,-15.35 -1.46,-0.24 -4.36,-0.68 -5.8,-0.9 -8.12,-9.4 -16.06,-19.1 -25.9,-26.8 -3.92,6.46 -7.82,12.94 -11.7,19.4 -1.58,-8.78 4.33,-15.27 10.95,-19.95 -6,-2.34 -12.24,-3.92 -18.6,-4.8 0.18,-1.88 0.4,-3.77 0.6,-5.65 12.52,1.76 22.22,10.6 30.7,19.3 5.92,5.6 11.72,12.67 20.4,13.65 0.2,-5.52 -0.25,-11.14 0.75,-16.6 1.84,-4.86 8.89,-5.8 10.55,-10.4 -9.82,-11.6 -22.12,-21.11 -30.7,-33.75 -3.54,-5.24 -9.3,-8.25 -14.1,-12.15 2.66,0.32 5.29,0.64 7.95,1 -1.72,-4.72 -3.37,-9.43 -4.45,-14.35 6.36,5.44 4.54,15.65 11.2,20.95 12.18,10.4 19.93,27.01 36.35,31.65 9.98,-1.46 13.56,-12.76 19.1,-19.8 -2.62,-6.64 -5.9,-13.08 -10.7,-18.4 -8,-9.16 -15.46,-18.78 -22.6,-28.6 -9.84,0.82 -16.16,8.51 -24.1,13.25 1.94,-7.92 8.84,-15.73 17.8,-13.65 1.2,-0.86 2.4,-1.69 3.6,-2.55 -2.26,-1.82 -4.58,-3.54 -7,-5.1 -4.86,-0.7 -9.69,-1.57 -14.55,-2.35 z m -4.2,54.6 c -3.04,5.48 -5.61,11.24 -6.85,17.4 -1.1,0.12 -3.3,0.35 -4.4,0.45 1.14,-7.32 4.39,-14.31 11.25,-17.85 z"
     id="path16"
     style="fill:#f4722b"
     inkscape:connector-curvature="0" />
  <path
     d="m 586.44,161.42 c 6.48,4.22 12.94,8.44 19.2,13 -10.18,13 -21.48,25.3 -33.76,36.38 -7.02,0.22 -14.02,0.38 -21.04,0.4 0.52,-5.48 0.28,-11.62 4.54,-15.78 9.96,-11.68 21.02,-22.38 31.06,-34 z"
     id="path18"
     inkscape:connector-curvature="0"
     style="fill:#f4722b" />
  <path
     d="m 0,196.96 c 6.78,23.12 14,46.12 20.82,69.24 17.04,-14.72 34.1,-29.46 51.18,-44.16 15.36,116.62 30.62,233.26 46.02,349.88 22.72,-27.22 45.24,-54.6 67.96,-81.84 37.72,177.96 75.42,355.94 113,533.92 l -4.78,0 C 234.44,920.94 175.54,817.36 116.04,714.16 c -1.48,38.48 -2.56,76.98 -4.1,115.46 C 81.5,754.08 51.42,678.4 21.12,602.8 14.7,587.6 10.14,571.36 0,558.06 l 0,-361.1 z"
     id="path20"
     inkscape:connector-curvature="0"
     style="fill:#f5e5c1" />
  <path
     d="m 567.26,219 c 8.96,-1.58 14.96,-9.12 21.1,-15.12 15.28,21.12 10.74,48.18 15.12,72.4 3.3,14.52 4.66,29.38 7.68,43.96 1.2,7.1 2.86,14.28 2.32,21.52 -1.2,3.6 -4.76,5.8 -7.24,8.52 -6.94,6 -12.58,14.2 -21.72,17.02 -19.88,6.3 -38.84,15.1 -58.66,21.62 -5.2,-5.64 -10.1,-11.52 -14.98,-17.42 7.78,-0.36 15.64,-0.76 23.06,-3.32 -16.9,-1.9 -33.86,-3.58 -50.36,-7.86 -5.24,-2.92 -9.44,-7.3 -14.06,-11.06 14.44,-17.34 28.62,-34.94 44.1,-51.38 0.1,12.9 -3.42,28.22 5.56,39.02 7.52,6.58 15.08,14 24.86,16.96 -5.72,-4.5 -13.06,-8.02 -15.38,-15.5 -5.8,-14.96 -10.34,-31.36 -7.1,-47.44 3.34,-8.32 11.02,-13.82 16.36,-20.8 -0.86,-0.86 -2.62,-2.6 -3.48,-3.46 5.74,0.56 11.58,0.24 17.3,1.18 7.02,3.28 12.58,9.9 20.82,10.14 -3.8,-5.08 -7.84,-9.98 -12.28,-14.48 -5.76,0.74 -11.54,1.18 -17.34,1.02 4.34,-4.94 10.76,-6.5 16.48,-9.16 -0.66,-0.64 -1.98,-1.92 -2.64,-2.56 -1.12,1.06 -3.38,3.18 -4.5,4.26 -7.24,0.86 -14.26,2.98 -20.96,5.84 1.74,-6.42 1.82,-13.14 0.54,-19.64 -1.32,7.9 -2,16.68 -7.58,22.94 -6.92,5.22 -15.58,9.3 -24.46,8.04 -10.56,-0.26 -18.5,-12.88 -14.08,-22.42 5.9,-7.02 15.6,-9.38 21.7,-16.26 5.7,-5.62 9.42,-14.82 18.36,-15.8 13.78,-1.16 27.68,0.72 41.46,-0.76 z"
     id="path22"
     inkscape:connector-curvature="0"
     style="fill:#f4722b" />
  <path
     d="m 480,287.86 c 3.46,-1.98 3.3,-6.36 4.48,-9.72 0.7,1.28 2.12,3.84 2.84,5.12 10.06,-1.08 19.52,-4.82 29.32,-7.1 -1.88,2.94 -3.56,6.04 -5.86,8.68 -10.98,12.34 -22.18,24.54 -32.32,37.62 -5.74,7.24 -9.76,16.24 -18.04,21.08 -7.9,-6.56 -16.66,-11.96 -25.2,-17.62 7.84,-10.1 17.7,-18.84 23.28,-30.54 7.34,-1.82 15.16,-3.1 21.5,-7.52 z"
     id="path26"
     inkscape:connector-curvature="0"
     style="fill:#f4722b" />
  <path
     d="m 417.82,296.86 c 4.18,-5.2 8.82,-10 13.88,-14.38 5.98,3.64 12.12,7.04 18.34,10.28 -8.34,8.4 -16.04,17.42 -22.9,27.06 -6.48,-3.54 -12.86,-7.26 -19.08,-11.22 2.44,-2.8 4.9,-5.58 7.34,-8.36 -2.02,-2.72 -3.84,-5.56 -5.8,-8.3 2.74,1.62 5.48,3.26 8.22,4.92 z"
     id="path28"
     inkscape:connector-curvature="0"
     style="fill:#f4722b" />
  <path
     d="m 397.62,329.64 c 3.96,-3.24 7.54,-7.4 12.52,-9.12 3.98,0.56 6.98,3.8 10.44,5.62 -9.74,9.72 -20.04,18.9 -28.88,29.48 -7.26,8.76 -16.2,15.94 -23.54,24.64 -16.44,18.92 -31.84,38.68 -47.86,57.94 -8.06,9.28 -14.06,20.18 -17.4,32.02 -4.34,15.58 -7.76,31.6 -8.68,47.8 -6.46,9.78 -16.56,16.96 -21.6,27.88 -2.48,-23.38 -1.46,-47.18 3.88,-70.1 2.82,-12.48 5.94,-25.34 12.98,-36.2 17.22,-23.22 37.92,-43.48 57.64,-64.52 16.8,-15.16 33.26,-30.74 50.5,-45.44 z"
     id="path30"
     inkscape:connector-curvature="0"
     style="fill:#f5e5c1" />
  <path
     d="m 387.76,361.66 c 9.52,-13.12 22.66,-22.7 34.42,-33.6 8.66,5.22 17.3,10.48 26.4,14.9 -11.18,12.02 -23.46,23.02 -33.84,35.8 -16.32,18.66 -29.2,39.94 -44.72,59.26 -9.44,12.72 -18.24,26 -25.44,40.14 -2.16,5.14 -7.24,7.82 -11.72,10.64 -12.38,7.7 -24.94,15.58 -34.88,26.44 -1.06,-1.28 -2.1,-2.58 -3.12,-3.88 3.82,-20.18 6.48,-41.24 16.26,-59.6 11.9,-17.98 27.68,-32.9 40.98,-49.8 11.14,-14.08 23.34,-27.28 35.66,-40.3 z"
     id="path32"
     inkscape:connector-curvature="0"
     style="fill:#f5e5c1" />
  <path
     d="m 632.2,339.58 c 8.18,3.66 15.74,8.56 23.94,12.14 13.84,5.34 27.56,11.02 41.6,15.82 -9.9,21.1 -20.4,42.1 -26.98,64.54 11.84,-20.16 20.66,-41.92 32.9,-61.84 10.7,3.12 20.9,7.7 31.62,10.76 17.8,4.48 33.04,15.14 49.68,22.44 11.54,5.66 23.7,9.84 35.7,14.38 -0.02,1.5 -0.08,4.5 -0.1,6 2.32,3.42 4.84,6.82 6.2,10.78 9.06,28.02 18.54,55.9 26.08,84.38 2.22,1.6 4.46,3.22 6.68,4.84 -2.1,-10.42 -2.7,-21.18 -5.98,-31.36 -4.44,-13.48 -6.56,-27.58 -9.2,-41.48 3.54,-0.4 8.5,-1.58 9.88,2.98 8,16.14 13.34,33.46 19.5,50.38 4.18,11.36 12.48,20.62 20.92,29.08 2.42,3.16 9.32,0.82 8.02,-3.34 -3.66,-15.6 -9.92,-30.42 -15.82,-45.26 5.62,0.96 11.4,3.08 17.16,1.82 3.54,-1.16 5.08,-6.16 2.46,-8.88 -8.02,-8.48 -18.58,-13.76 -28.2,-20.08 -4.8,-3.1 -6.86,-8.7 -9.56,-13.44 12.1,4.8 24.24,11.18 37.52,11.36 6.54,0.9 10.2,-8.9 4.66,-12.28 -5.4,-2.14 -11.4,-2.38 -16.54,-5.18 -15.18,-9.44 -26,-25.6 -43.5,-31.26 -9.64,-3.26 -20.14,-0.86 -28.46,4.64 0.1,-2.7 0.24,-5.38 0.44,-8.06 12.72,-4.26 25.8,-7.58 38.2,-12.76 6.88,-2.78 10.1,-10.36 16.78,-13.4 4.8,0.66 8.88,3.56 12.9,6.1 15.34,9.68 26.66,24.2 37.88,38.18 11.48,14.1 21.36,29.38 31.18,44.66 6.42,10.74 13.92,21.3 16.38,33.82 2.1,10.62 3.66,21.34 5,32.06 1.46,9.04 -5.16,16.24 -9.08,23.68 -8.18,15.76 -20.84,28.48 -33.3,40.86 -26.94,28.5 -59.4,51.14 -92.86,71.28 -7.72,5.64 -16.74,-0.4 -23.96,-3.94 -34.58,-19.96 -74.08,-31.1 -105.64,-56.22 -10.06,-7.96 -22.08,-12.68 -33.08,-19.06 -9.22,-5.28 -18.3,-10.84 -27.34,-16.42 -7.08,-4.26 -11.74,-11.86 -19.8,-14.6 -15.78,-6.4 -29.42,-16.72 -43.28,-26.36 -16.5,-10 -32.26,-21.08 -48.36,-31.68 -7.38,-5.22 -14.88,-10.62 -20.46,-17.8 1.14,-13.98 3.52,-27.92 5.04,-41.88 4.78,7.98 9.26,16.14 13.84,24.24 2.46,-1.24 5.08,-2.3 7.24,-4.12 15.28,-13.42 28.7,-28.94 39.64,-46.1 16.68,-23.24 31.72,-47.84 42.46,-74.42 z"
     id="path34"
     inkscape:connector-curvature="0"
     style="fill:#f4722b" />
  <path
     d="m 586.78,382.76 c 9.12,-8.1 17.16,-17.34 25.06,-26.62 -8.42,20.38 -18.4,40.28 -31.44,58.12 -9.2,14.94 -20.26,28.64 -32.6,41.1 -7.94,-13.58 -16.04,-27.14 -26.96,-38.56 2.72,-6.42 4.76,-13.1 7.02,-19.68 2.82,4.54 1,9.86 0.68,14.8 1.38,0.06 4.16,0.16 5.56,0.22 19.28,-6.22 36.9,-16.76 52.68,-29.38 z"
     id="path36"
     inkscape:connector-curvature="0"
     style="fill:#f5e5c1" />
  <path
     d="m 535.18,391.56 c 17.12,-6.62 33.12,-15.94 50.52,-21.76 -5.18,6.16 -11.08,11.7 -17.54,16.48 -10.18,7.56 -20.52,15.34 -32.72,19.32 -0.1,-4.68 -0.16,-9.36 -0.26,-14.04 z"
     id="path38"
     inkscape:connector-curvature="0"
     style="fill:#f4722b" />
  <path
     d="m 467.64,377.32 c 12.12,7.48 29.66,6.14 37.72,19.52 -0.82,6.52 -3.52,12.68 -3.82,19.28 -0.2,7.68 4.42,14.38 5.4,21.84 -0.38,12.08 -2.9,23.94 -4.74,35.86 -1.34,8.28 2.9,16 8.1,22.06 10.32,11.72 22.5,21.76 35.8,29.9 12.5,7.24 23.98,16.08 36.3,23.62 C 572.18,636.94 562.16,724.48 552,812 507.34,780.68 462.68,749.34 418.02,718.04 399.24,820 381.1,922.1 362.02,1024 l -19.38,0 c -0.02,-21.32 -1.3,-42.68 0.16,-63.98 6.44,-124 12.78,-247.98 19.22,-371.98 33.32,22.68 66.64,45.32 99.96,68 1.9,-92.92 3.88,-185.82 5.66,-278.72 z"
     id="path40"
     inkscape:connector-curvature="0"
     style="fill:#f5e5c1" />
  <path
     d="m 860,457.86 c 3.76,1.82 6.7,4.8 8.66,8.5 -4.4,-1.02 -6.84,-4.72 -8.66,-8.5 z"
     id="path42"
     inkscape:connector-curvature="0"
     style="fill:#f4722b" />
  <path
     d="m 869.8,477.06 c 9.02,5.72 9.6,17.72 13.54,26.78 -4.56,-8.9 -10,-17.38 -13.54,-26.78 z"
     id="path44"
     inkscape:connector-curvature="0"
     style="fill:#f4722b" />
  <rect
     y="0"
     x="0"
     height="1024"
     width="1024"
     id="rect3032"
     style="fill:#3e3e3e;fill-opacity:1;fill-rule:nonzero;stroke:none" />
  <path
     style="fill:#f5e5c1"
     inkscape:connector-curvature="0"
     id="path3034"
     d="m 268.48,0 132.28,0 c -0.48,24.68 -2.8,49.26 -4.4,73.88 -4.84,70.2 -9.98,140.36 -14.78,210.56 -1.22,9.86 0.88,21.18 -5.9,29.42 -5.92,9.22 -14.48,16.1 -22.72,23.12 -33.92,33.34 -65.88,70.02 -86.1,113.5 -7.94,19.48 -11.7,40.52 -12.32,61.52 -0.82,13.76 -3.24,27.58 -1.66,41.38 3.1,15.54 1.56,31.64 5.5,47.06 3.52,-5.32 7.1,-10.62 10.22,-16.2 8.98,-17.72 20.84,-34.08 35.06,-47.96 1.34,120.62 3.92,241.2 6.6,361.78 0.2,11.12 0.88,22.28 0.16,33.4 -3.88,-11.44 -5.2,-23.5 -7.6,-35.28 C 257.84,658.14 212.98,420.1 167.98,182.06 c 5.18,5.48 10.44,10.94 16.54,15.42 29.2,22.14 58.32,44.36 87.48,66.54 C 270.82,176.02 269.66,88 268.48,0 z" />
  <path
     style="fill:#f5e5c1"
     inkscape:connector-curvature="0"
     id="path3036"
     d="m 475.02,0 312.44,0 c -27.42,114.48 -54.06,229.18 -81.28,343.72 -15.26,-2.96 -30.12,-7.7 -44.52,-13.52 -7.86,-3.34 -15.6,-8.18 -19.8,-15.9 -10.28,-15.52 -14.54,-34 -17.76,-52.08 -3.58,-20.4 -0.62,-42.04 -9.1,-61.44 3.5,-4.46 7.4,-8.64 10.36,-13.5 4.46,-7.54 3.52,-17.88 -2.42,-24.34 -7.94,-8.66 -16.36,-17.04 -26.3,-23.42 -9.84,-6.08 -18.62,-14.7 -30.38,-16.86 -9.9,-2.72 -19.44,2.28 -28.42,5.78 -5.54,-10.8 -12.1,-24.22 -25.5,-26.22 -16.12,-2.86 -27.34,11.5 -39.38,19.52 0.5,-40.58 2.2,-81.16 2.06,-121.74 z" />
  <path
     style="fill:#f4722b"
     inkscape:connector-curvature="0"
     id="path3038"
     d="m 480.22,146.06 c 6.66,-8.72 15.94,-17.54 27.72,-17.18 5.62,3.3 8.66,9.58 12.94,14.36 6.92,7.9 8.86,18.6 14.6,27.24 5.04,7.68 5.84,17.1 9.68,25.32 1.38,3.5 4.08,8.44 -0.12,11.14 -6.04,6.46 -15.36,4.26 -23.1,3.66 C 510,198.82 501,184.58 490.14,171.88 c -5.84,-7.1 -12.38,-16.34 -9.92,-25.82 z" />
  <path
     style="fill:#f4722b"
     inkscape:connector-curvature="0"
     id="path3040"
     d="m 541.2,167.42 c 5.48,-10.52 16.04,-16.48 24.22,-24.58 4.1,4.2 8.24,8.36 12.5,12.38 -9.98,10.02 -17.88,22 -28.64,31.28 -2.08,-6.62 -4.94,-12.92 -8.08,-19.08 z" />
  <path
     style="fill:#f4722b"
     inkscape:connector-curvature="0"
     id="path3042"
     d="m 528.02,147.82 c 5.54,1.96 10.92,4.44 15.72,7.9 -2.62,2.52 -5.26,5.02 -7.94,7.46 -2.02,-5.4 -4.68,-10.52 -7.78,-15.36 z" />
  <path
     inkscape:connector-curvature="0"
     style="fill:#f4722b"
     id="path3044"
     d="m 457.55,156.65 c -6.3,3.24 -11.56,8.31 -13.4,15.35 -7.58,20.46 -12.9,41.82 -22.5,61.5 -3.2,8.18 -7.92,15.78 -10.2,24.3 1.08,11.54 2.67,23.17 5.85,34.35 3.54,-4.16 7.06,-8.34 10.6,-12.5 -2.66,-1.2 -5.34,-2.37 -8,-3.55 -0.54,-0.8 -1.61,-2.4 -2.15,-3.2 6.14,1.46 11.87,4.22 17.55,6.9 -0.06,-1.38 -0.21,-4.17 -0.25,-5.55 5.38,5.22 10.93,10.27 16.55,15.25 5.7,-0.28 11.49,0.1 17.15,-0.9 5.48,-3.26 7.49,-9.57 9.05,-15.35 -1.46,-0.24 -4.36,-0.68 -5.8,-0.9 -8.12,-9.4 -16.06,-19.1 -25.9,-26.8 -3.92,6.46 -7.82,12.94 -11.7,19.4 -1.58,-8.78 4.33,-15.27 10.95,-19.95 -6,-2.34 -12.24,-3.92 -18.6,-4.8 0.18,-1.88 0.4,-3.77 0.6,-5.65 12.52,1.76 22.22,10.6 30.7,19.3 5.92,5.6 11.72,12.67 20.4,13.65 0.2,-5.52 -0.25,-11.14 0.75,-16.6 1.84,-4.86 8.89,-5.8 10.55,-10.4 -9.82,-11.6 -22.12,-21.11 -30.7,-33.75 -3.54,-5.24 -9.3,-8.25 -14.1,-12.15 2.66,0.32 5.29,0.64 7.95,1 -1.72,-4.72 -3.37,-9.43 -4.45,-14.35 6.36,5.44 4.54,15.65 11.2,20.95 12.18,10.4 19.93,27.01 36.35,31.65 9.98,-1.46 13.56,-12.76 19.1,-19.8 -2.62,-6.64 -5.9,-13.08 -10.7,-18.4 -8,-9.16 -15.46,-18.78 -22.6,-28.6 -9.84,0.82 -16.16,8.51 -24.1,13.25 1.94,-7.92 8.84,-15.73 17.8,-13.65 1.2,-0.86 2.4,-1.69 3.6,-2.55 -2.26,-1.82 -4.58,-3.54 -7,-5.1 -4.86,-0.7 -9.69,-1.57 -14.55,-2.35 z m -4.2,54.6 c -3.04,5.48 -5.61,11.24 -6.85,17.4 -1.1,0.12 -3.3,0.35 -4.4,0.45 1.14,-7.32 4.39,-14.31 11.25,-17.85 z" />
  <path
     style="fill:#f4722b"
     inkscape:connector-curvature="0"
     id="path3046"
     d="m 586.44,161.42 c 6.48,4.22 12.94,8.44 19.2,13 -10.18,13 -21.48,25.3 -33.76,36.38 -7.02,0.22 -14.02,0.38 -21.04,0.4 0.52,-5.48 0.28,-11.62 4.54,-15.78 9.96,-11.68 21.02,-22.38 31.06,-34 z" />
  <path
     style="fill:#f5e5c1"
     inkscape:connector-curvature="0"
     id="path3048"
     d="m 0,196.96 c 6.78,23.12 14,46.12 20.82,69.24 17.04,-14.72 34.1,-29.46 51.18,-44.16 15.36,116.62 30.62,233.26 46.02,349.88 22.72,-27.22 45.24,-54.6 67.96,-81.84 37.72,177.96 75.42,355.94 113,533.92 l -4.78,0 C 234.44,920.94 175.54,817.36 116.04,714.16 c -1.48,38.48 -2.56,76.98 -4.1,115.46 C 81.5,754.08 51.42,678.4 21.12,602.8 14.7,587.6 10.14,571.36 0,558.06 l 0,-361.1 z" />
  <path
     style="fill:#f4722b"
     inkscape:connector-curvature="0"
     id="path3050"
     d="m 567.26,219 c 8.96,-1.58 14.96,-9.12 21.1,-15.12 15.28,21.12 10.74,48.18 15.12,72.4 3.3,14.52 4.66,29.38 7.68,43.96 1.2,7.1 2.86,14.28 2.32,21.52 -1.2,3.6 -4.76,5.8 -7.24,8.52 -6.94,6 -12.58,14.2 -21.72,17.02 -19.88,6.3 -38.84,15.1 -58.66,21.62 -5.2,-5.64 -10.1,-11.52 -14.98,-17.42 7.78,-0.36 15.64,-0.76 23.06,-3.32 -16.9,-1.9 -33.86,-3.58 -50.36,-7.86 -5.24,-2.92 -9.44,-7.3 -14.06,-11.06 14.44,-17.34 28.62,-34.94 44.1,-51.38 0.1,12.9 -3.42,28.22 5.56,39.02 7.52,6.58 15.08,14 24.86,16.96 -5.72,-4.5 -13.06,-8.02 -15.38,-15.5 -5.8,-14.96 -10.34,-31.36 -7.1,-47.44 3.34,-8.32 11.02,-13.82 16.36,-20.8 -0.86,-0.86 -2.62,-2.6 -3.48,-3.46 5.74,0.56 11.58,0.24 17.3,1.18 7.02,3.28 12.58,9.9 20.82,10.14 -3.8,-5.08 -7.84,-9.98 -12.28,-14.48 -5.76,0.74 -11.54,1.18 -17.34,1.02 4.34,-4.94 10.76,-6.5 16.48,-9.16 -0.66,-0.64 -1.98,-1.92 -2.64,-2.56 -1.12,1.06 -3.38,3.18 -4.5,4.26 -7.24,0.86 -14.26,2.98 -20.96,5.84 1.74,-6.42 1.82,-13.14 0.54,-19.64 -1.32,7.9 -2,16.68 -7.58,22.94 -6.92,5.22 -15.58,9.3 -24.46,8.04 -10.56,-0.26 -18.5,-12.88 -14.08,-22.42 5.9,-7.02 15.6,-9.38 21.7,-16.26 5.7,-5.62 9.42,-14.82 18.36,-15.8 13.78,-1.16 27.68,0.72 41.46,-0.76 z" />
  <path
     style="fill:#f4722b"
     inkscape:connector-curvature="0"
     id="path3052"
     d="m 480,287.86 c 3.46,-1.98 3.3,-6.36 4.48,-9.72 0.7,1.28 2.12,3.84 2.84,5.12 10.06,-1.08 19.52,-4.82 29.32,-7.1 -1.88,2.94 -3.56,6.04 -5.86,8.68 -10.98,12.34 -22.18,24.54 -32.32,37.62 -5.74,7.24 -9.76,16.24 -18.04,21.08 -7.9,-6.56 -16.66,-11.96 -25.2,-17.62 7.84,-10.1 17.7,-18.84 23.28,-30.54 7.34,-1.82 15.16,-3.1 21.5,-7.52 z" />
  <path
     style="fill:#f4722b"
     inkscape:connector-curvature="0"
     id="path3054"
     d="m 417.82,296.86 c 4.18,-5.2 8.82,-10 13.88,-14.38 5.98,3.64 12.12,7.04 18.34,10.28 -8.34,8.4 -16.04,17.42 -22.9,27.06 -6.48,-3.54 -12.86,-7.26 -19.08,-11.22 2.44,-2.8 4.9,-5.58 7.34,-8.36 -2.02,-2.72 -3.84,-5.56 -5.8,-8.3 2.74,1.62 5.48,3.26 8.22,4.92 z" />
  <path
     style="fill:#f5e5c1"
     inkscape:connector-curvature="0"
     id="path3056"
     d="m 397.62,329.64 c 3.96,-3.24 7.54,-7.4 12.52,-9.12 3.98,0.56 6.98,3.8 10.44,5.62 -9.74,9.72 -20.04,18.9 -28.88,29.48 -7.26,8.76 -16.2,15.94 -23.54,24.64 -16.44,18.92 -31.84,38.68 -47.86,57.94 -8.06,9.28 -14.06,20.18 -17.4,32.02 -4.34,15.58 -7.76,31.6 -8.68,47.8 -6.46,9.78 -16.56,16.96 -21.6,27.88 -2.48,-23.38 -1.46,-47.18 3.88,-70.1 2.82,-12.48 5.94,-25.34 12.98,-36.2 17.22,-23.22 37.92,-43.48 57.64,-64.52 16.8,-15.16 33.26,-30.74 50.5,-45.44 z" />
  <path
     style="fill:#f5e5c1"
     inkscape:connector-curvature="0"
     id="path3058"
     d="m 387.76,361.66 c 9.52,-13.12 22.66,-22.7 34.42,-33.6 8.66,5.22 17.3,10.48 26.4,14.9 -11.18,12.02 -23.46,23.02 -33.84,35.8 -16.32,18.66 -29.2,39.94 -44.72,59.26 -9.44,12.72 -18.24,26 -25.44,40.14 -2.16,5.14 -7.24,7.82 -11.72,10.64 -12.38,7.7 -24.94,15.58 -34.88,26.44 -1.06,-1.28 -2.1,-2.58 -3.12,-3.88 3.82,-20.18 6.48,-41.24 16.26,-59.6 11.9,-17.98 27.68,-32.9 40.98,-49.8 11.14,-14.08 23.34,-27.28 35.66,-40.3 z" />
  <path
     style="fill:#f4722b"
     inkscape:connector-curvature="0"
     id="path3060"
     d="m 632.2,339.58 c 8.18,3.66 15.74,8.56 23.94,12.14 13.84,5.34 27.56,11.02 41.6,15.82 -9.9,21.1 -20.4,42.1 -26.98,64.54 11.84,-20.16 20.66,-41.92 32.9,-61.84 10.7,3.12 20.9,7.7 31.62,10.76 17.8,4.48 33.04,15.14 49.68,22.44 11.54,5.66 23.7,9.84 35.7,14.38 -0.02,1.5 -0.08,4.5 -0.1,6 2.32,3.42 4.84,6.82 6.2,10.78 9.06,28.02 18.54,55.9 26.08,84.38 2.22,1.6 4.46,3.22 6.68,4.84 -2.1,-10.42 -2.7,-21.18 -5.98,-31.36 -4.44,-13.48 -6.56,-27.58 -9.2,-41.48 3.54,-0.4 8.5,-1.58 9.88,2.98 8,16.14 13.34,33.46 19.5,50.38 4.18,11.36 12.48,20.62 20.92,29.08 2.42,3.16 9.32,0.82 8.02,-3.34 -3.66,-15.6 -9.92,-30.42 -15.82,-45.26 5.62,0.96 11.4,3.08 17.16,1.82 3.54,-1.16 5.08,-6.16 2.46,-8.88 -8.02,-8.48 -18.58,-13.76 -28.2,-20.08 -4.8,-3.1 -6.86,-8.7 -9.56,-13.44 12.1,4.8 24.24,11.18 37.52,11.36 6.54,0.9 10.2,-8.9 4.66,-12.28 -5.4,-2.14 -11.4,-2.38 -16.54,-5.18 -15.18,-9.44 -26,-25.6 -43.5,-31.26 -9.64,-3.26 -20.14,-0.86 -28.46,4.64 0.1,-2.7 0.24,-5.38 0.44,-8.06 12.72,-4.26 25.8,-7.58 38.2,-12.76 6.88,-2.78 10.1,-10.36 16.78,-13.4 4.8,0.66 8.88,3.56 12.9,6.1 15.34,9.68 26.66,24.2 37.88,38.18 11.48,14.1 21.36,29.38 31.18,44.66 6.42,10.74 13.92,21.3 16.38,33.82 2.1,10.62 3.66,21.34 5,32.06 1.46,9.04 -5.16,16.24 -9.08,23.68 -8.18,15.76 -20.84,28.48 -33.3,40.86 -26.94,28.5 -59.4,51.14 -92.86,71.28 -7.72,5.64 -16.74,-0.4 -23.96,-3.94 -34.58,-19.96 -74.08,-31.1 -105.64,-56.22 -10.06,-7.96 -22.08,-12.68 -33.08,-19.06 -9.22,-5.28 -18.3,-10.84 -27.34,-16.42 -7.08,-4.26 -11.74,-11.86 -19.8,-14.6 -15.78,-6.4 -29.42,-16.72 -43.28,-26.36 -16.5,-10 -32.26,-21.08 -48.36,-31.68 -7.38,-5.22 -14.88,-10.62 -20.46,-17.8 1.14,-13.98 3.52,-27.92 5.04,-41.88 4.78,7.98 9.26,16.14 13.84,24.24 2.46,-1.24 5.08,-2.3 7.24,-4.12 15.28,-13.42 28.7,-28.94 39.64,-46.1 16.68,-23.24 31.72,-47.84 42.46,-74.42 z" />
  <path
     style="fill:#f5e5c1"
     inkscape:connector-curvature="0"
     id="path3062"
     d="m 586.78,382.76 c 9.12,-8.1 17.16,-17.34 25.06,-26.62 -8.42,20.38 -18.4,40.28 -31.44,58.12 -9.2,14.94 -20.26,28.64 -32.6,41.1 -7.94,-13.58 -16.04,-27.14 -26.96,-38.56 2.72,-6.42 4.76,-13.1 7.02,-19.68 2.82,4.54 1,9.86 0.68,14.8 1.38,0.06 4.16,0.16 5.56,0.22 19.28,-6.22 36.9,-16.76 52.68,-29.38 z" />
  <path
     style="fill:#f4722b"
     inkscape:connector-curvature="0"
     id="path3064"
     d="m 535.18,391.56 c 17.12,-6.62 33.12,-15.94 50.52,-21.76 -5.18,6.16 -11.08,11.7 -17.54,16.48 -10.18,7.56 -20.52,15.34 -32.72,19.32 -0.1,-4.68 -0.16,-9.36 -0.26,-14.04 z" />
  <path
     style="fill:#f5e5c1"
     inkscape:connector-curvature="0"
     id="path3066"
     d="m 467.64,377.32 c 12.12,7.48 29.66,6.14 37.72,19.52 -0.82,6.52 -3.52,12.68 -3.82,19.28 -0.2,7.68 4.42,14.38 5.4,21.84 -0.38,12.08 -2.9,23.94 -4.74,35.86 -1.34,8.28 2.9,16 8.1,22.06 10.32,11.72 22.5,21.76 35.8,29.9 12.5,7.24 23.98,16.08 36.3,23.62 C 572.18,636.94 562.16,724.48 552,812 507.34,780.68 462.68,749.34 418.02,718.04 399.24,820 381.1,922.1 362.02,1024 l -19.38,0 c -0.02,-21.32 -1.3,-42.68 0.16,-63.98 6.44,-124 12.78,-247.98 19.22,-371.98 33.32,22.68 66.64,45.32 99.96,68 1.9,-92.92 3.88,-185.82 5.66,-278.72 z" />
  <path
     style="fill:#f4722b"
     inkscape:connector-curvature="0"
     id="path3068"
     d="m 860,457.86 c 3.76,1.82 6.7,4.8 8.66,8.5 -4.4,-1.02 -6.84,-4.72 -8.66,-8.5 z" />
  <path
     style="fill:#f4722b"
     inkscape:connector-curvature="0"
     id="path3070"
     d="m 869.8,477.06 c 9.02,5.72 9.6,17.72 13.54,26.78 -4.56,-8.9 -10,-17.38 -13.54,-26.78 z" />
</svg>
