<?xml version="1.0" encoding="UTF-8" standalone="no"?>
<svg
   xmlns:dc="http://purl.org/dc/elements/1.1/"
   xmlns:cc="http://creativecommons.org/ns#"
   xmlns:rdf="http://www.w3.org/1999/02/22-rdf-syntax-ns#"
   xmlns:svg="http://www.w3.org/2000/svg"
   xmlns="http://www.w3.org/2000/svg"
   xmlns:sodipodi="http://sodipodi.sourceforge.net/DTD/sodipodi-0.dtd"
   xmlns:inkscape="http://www.inkscape.org/namespaces/inkscape"
   width="1280"
   height="1280"
   viewBox="0 0 1024 1024"
   version="1.1"
   id="svg2"
   inkscape:version="0.48.1 "
   sodipodi:docname="sapper_grind.svg">
  <metadata
     id="metadata58">
    <rdf:RDF>
      <cc:Work
         rdf:about="">
        <dc:format>image/svg+xml</dc:format>
        <dc:type
           rdf:resource="http://purl.org/dc/dcmitype/StillImage" />
      </cc:Work>
    </rdf:RDF>
  </metadata>
  <defs
     id="defs56" />
  <sodipodi:namedview
     pagecolor="#ffffff"
     bordercolor="#666666"
     borderopacity="1"
     objecttolerance="10"
     gridtolerance="10"
     guidetolerance="10"
     inkscape:pageopacity="0"
     inkscape:pageshadow="2"
     inkscape:window-width="1920"
     inkscape:window-height="1018"
     id="namedview54"
     showgrid="false"
     fit-margin-top="0"
     fit-margin-left="0"
     fit-margin-right="0"
     fit-margin-bottom="0"
     inkscape:zoom="0.6609375"
     inkscape:cx="640"
     inkscape:cy="640"
     inkscape:window-x="-8"
     inkscape:window-y="-8"
     inkscape:window-maximized="1"
     inkscape:current-layer="svg2" />
  <path
     d="m 0,0 1024,0 0,1024 L 0,1024 0,0 z"
     id="path4"
     style="fill:#3e3e3e"
     inkscape:connector-curvature="0" />
  <path
     d="m 105.7,23.66 c 26.22,5.96 52.44,11.98 78.62,18.16 -9.34,54.26 -18.54,108.54 -28.22,162.74 -7.3,-7.12 -14.48,-14.36 -21.64,-21.6 1.02,28.7 2.84,57.4 3.08,86.14 C 125,217.7 112,166.42 97.64,115.5 c 12.26,11.42 23.82,23.56 35.72,35.36 C 124.28,108.42 114.68,66.1 105.7,23.66 z"
     id="path6"
     inkscape:connector-curvature="0"
     style="fill:#f4722b" />
  <path
     d="m 903.92,135.4 c 8.22,-33.08 15.96,-66.26 24.12,-99.36 21.98,15.34 43.98,30.64 65.96,45.98 -17.66,44.28 -35.48,88.48 -53.04,132.8 -1.28,1.28 -1.02,5.68 -3.52,4.84 -4.54,-10.84 -7.72,-22.2 -11.8,-33.2 -11.94,28.4 -24.7,56.44 -36.9,84.72 -5.56,12.24 -10.38,24.84 -16.62,36.76 -2.58,-13.42 -6.7,-26.54 -8.16,-40.16 -6.08,16.96 -9.82,34.66 -13.8,52.2 -0.44,0.36 -1.36,1.08 -1.82,1.44 0.5,-25.84 2.5,-51.58 3.26,-77.38 1.68,-13.24 0.6,-26.62 2.42,-39.84 6.22,11.96 11.92,24.18 18.2,36.1 0.4,-15.5 1.18,-30.98 2.92,-46.4 0.22,-21.36 3.98,-42.5 4.08,-63.86 0.36,-9.88 1.78,-19.66 2.66,-29.5 7.26,11.68 14.62,23.28 22.04,34.86 z"
     id="path8"
     inkscape:connector-curvature="0"
     style="fill:#f4722b" />
  <path
     d="m 44.14,108.3 c 13.26,37.1 26.38,74.26 39.82,111.3 2.92,-14.9 5.04,-29.96 8.12,-44.84 16.02,51.92 31.8,103.94 47.42,155.98 C 123.46,300 107.94,269 92.06,238.18 c 1.22,13.9 2.66,27.78 3.88,41.68 C 81,255.56 66.28,231.12 51.34,206.84 48.36,201.56 43.4,196.72 43.96,190.2 c 0.12,-27.3 -0.12,-54.6 0.18,-81.9 z"
     id="path10"
     inkscape:connector-curvature="0"
     style="fill:#f4722b" />
  <path
     d="m 931.82,291.32 c 16.3,-35.66 31.6,-71.78 47.24,-107.72 -0.54,24.16 -3.52,48.2 -4.36,72.36 -0.54,5.74 -0.04,12.18 -3.6,17.1 -18.46,25.56 -36.54,51.4 -54.7,77.18 1.52,-13.58 4.04,-27.02 6.48,-40.46 -18.18,28.22 -34.54,57.6 -52.24,86.14 3,-13 9.12,-24.96 13.5,-37.52 13.96,-37.56 29.06,-74.7 42.24,-112.54 3.5,14.88 3.6,30.3 5.44,45.46 z"
     id="path12"
     inkscape:connector-curvature="0"
     style="fill:#f4722b" />
  <path
     d="m 670.14,197.14 c 20.56,-0.14 41.4,-4.82 61.74,-0.06 9.72,1.88 18.76,6.08 27.8,10 -60.4,4.44 -120.92,7.28 -181.34,11.12 -129.78,7.66 -259.56,15.38 -389.34,23.02 8.36,-7.44 17.72,-14.32 28.7,-17.22 17.78,-4.12 36.1,-4.2 54.24,-5.2 132.74,-7.46 265.48,-14.56 398.2,-21.66 z"
     id="path14"
     inkscape:connector-curvature="0"
     style="fill:#f4722b" />
  <path
     d="m 764.22,212.48 c 16.02,0.56 31.88,-2.32 47.86,-2.62 4.96,-0.22 9.18,2.78 13.48,4.78 1.76,8.4 3.3,16.86 4.24,25.4 6.28,51.28 12.66,102.56 19.24,153.8 1.1,9.48 4.62,18.4 6.96,27.58 -23.76,-61.64 -46.6,-123.66 -70.02,-185.44 -202.66,12.1 -405.32,23.94 -607.98,36.08 -4.38,62.42 -7.58,124.92 -12.7,187.28 -2.3,-4.08 -4.28,-8.46 -3.98,-13.24 -0.56,-55.4 -2.88,-110.74 -3.16,-166.14 0.48,-10.82 -2.48,-22.54 3.04,-32.48 10.92,0.92 21.84,0.06 32.72,-1.02 178.02,-10.82 356.04,-21.6 534.06,-32.38 12.08,-0.56 24.14,-2.04 36.24,-1.6 z"
     id="path16"
     inkscape:connector-curvature="0"
     style="fill:#f4722b" />
  <path
     d="m 38.02,226.1 c 27.38,46.6 54.64,93.26 81.96,139.9 -7.96,0 -15.94,0 -23.92,0.02 13.42,12.4 27.24,24.36 40.5,36.94 -27,-15.34 -53.66,-31.3 -80.48,-46.94 C 66.72,355.98 77.36,356 88,356 67.98,330.66 47.98,305.34 28,279.98 31.36,262.02 34.62,244.06 38.02,226.1 z"
     id="path18"
     inkscape:connector-curvature="0"
     style="fill:#f4722b" />
  <path
     style="fill:#f4722b"
     d="m 782,244 c -199.32,10.78 -398.68,21.23 -598,32.05 -5.1,58.7 -10,117.42 -15.2,176.1 -0.7,7.32 1.25,14.53 0.85,21.85 -2.54,51.36 -5.22,102.72 -7.5,154.1 -0.5,6 0.78,11.94 2.4,17.7 8.78,0.6 17.57,1.16 26.35,1.8 -1.08,23.52 -2.14,47.06 -3,70.6 2.3,1.98 4.58,3.95 6.9,5.95 8.1,-18.48 19.08,-35.77 33.5,-49.95 24.26,-23.6 57.48,-39.14 91.7,-38.3 27.34,-0.32 54.21,10 75.85,26.4 26.58,19.62 44.67,49.08 53.65,80.6 13.6,-54.3 61.93,-99.66 118.45,-104.7 28.26,-2.54 57.05,5.29 80.55,21.05 28.58,19.02 49.7,48.54 59.1,81.5 12.9,-46.9 50.92,-86.81 98.4,-99.05 30.64,-8.38 63.84,-2.98 91.6,11.9 5.44,-7.28 11.55,-13.99 16.75,-21.45 2,-2.54 0.28,-5.84 -0.2,-8.6 -16.06,-54.66 -31.47,-109.5 -47.35,-164.2 -0.94,-0.42 -2.81,-1.28 -3.75,-1.7 C 836.11,386.39 809.04,315.22 782,244 z m -525.9,40.85 c 0.92,13.32 0.41,26.66 1.05,40 17.64,-1.06 35.35,-1.33 52.95,-2.85 18.06,-5.66 35.52,-13.35 53.7,-18.65 0.08,5.36 0.08,10.74 0.1,16.1 13.8,-0.74 27.64,-1.05 41.4,-2.25 4.44,42.36 7.66,84.8 11.6,127.2 -71.4,3.78 -142.72,9.34 -214.1,13.7 -0.64,-43.46 -1.34,-86.94 -1.9,-130.4 4.18,-0.2 8.35,-0.37 12.55,-0.55 -3.3,-9.66 -7.21,-19.12 -10.75,-28.7 17.74,-4.74 35.58,-9.14 53.4,-13.6 z m 498.65,29.3 c 14.27196,-0.54982 26.7375,9.03124 37.05,17.9 8.8,30.92 15.24,62.55 23.1,93.75 13.84,55.62 26.71,111.5 40.65,167.1 -6.6,4.38 -12.23,10.68 -19.75,13.4 -115.32,10.02 -230.58,20.96 -345.9,30.9 -6.98,0.3 -14.13,-1.36 -20.15,-4.9 -7.4,-5.88 -13.45,-13.23 -20.25,-19.75 -6.52,-80.78 -13.4,-161.58 -20,-242.3 0.34,-15.12 13.22,-24.29 21.8,-35.05 100.2,-6.82 200.4,-14.14 300.6,-20.8 0.9675,-0.13 1.89852,-0.21334 2.85,-0.25 z M 295.05,469.2 c 3.5175,-0.0724 6.99,0.25 10.35,1.4 16.26,6.54 30.17,17.49 44.15,27.85 16.96,13.82 27.21,35.79 26.35,57.75 -0.36,18.14 -8.45,35.68 -21.05,48.6 -14.44,14.28 -34.43,22.8 -54.75,23.1 -25.44,0.86 -51.37,-10.98 -66.25,-31.8 -16.42,-21.86 -18.35,-53.22 -4.65,-76.9 5.52,-12.96 11.91,-25.9 22.75,-35.3 8.74,-8.46 20.98,-11.54 32.6,-13.6 3.43,-0.54 6.9825,-1.0275 10.5,-1.1 z"
     id="path20"
     inkscape:connector-curvature="0" />
  <path
     d="m 209.72,301.5 c 13.4,-3.46 26.96,-6.34 40.34,-9.86 3.82,21.22 3.3,42.9 6.52,64.18 7,1.88 14.52,4.3 18.96,10.44 5.78,7.14 5.82,18.18 0.1,25.38 -11.86,15.42 -40.44,13.36 -48.2,-5.12 -3.8,-8.86 0.48,-18.2 6.6,-24.72 -7.3,-20.42 -16.82,-39.94 -24.32,-60.3 z"
     id="path24"
     inkscape:connector-curvature="0"
     style="fill:#f5e5c1" />
  <path
     d="m 321.86,326.4 c 11.32,-4.38 22.54,-9.04 34.04,-13.02 2.72,12.32 2.66,25.04 5.22,37.4 6.96,3.02 14.44,6.54 18.24,13.52 4.42,7.5 2.9,17.72 -3.28,23.8 -12.68,12.94 -35.94,13.22 -49.18,0.98 -6.08,-5.38 -8.54,-14.46 -5.54,-22.1 2.02,-5.64 7.04,-9.28 11.42,-13.04 -3.92,-9.08 -7.7,-18.2 -10.92,-27.54 z"
     id="path26"
     inkscape:connector-curvature="0"
     style="fill:#f5e5c1" />
  <path
     style="fill:#f5e5c1"
     d="m 639.9,354.4 c -2.07,-0.004 -4.15,0.13 -6.2,0.45 -23.12,3.5 -46.24,6.88 -69.4,10.2 -3.6,0.56 -7.18,1.35 -10.6,2.65 -21.26,8.22 -42.3,17 -63.7,24.9 6.16,47.12 12,94.26 18,141.4 4.66,3.36 9.32,6.66 14,10 26.08,-5 51.82,-11.84 78.3,-14.6 18.6,-2.08 37.1,-5.74 55.9,-5.9 13.94,-0.34 27.89,-1.29 41.85,-1.35 22.04,1.14 43.98,4.65 66.1,3.85 0.74,-4.7 2.22,-9.58 0.8,-14.3 C 752.57,463.82 740.34,415.9 728,368 c -27.3,-4.4 -54.62,-8.62 -81.9,-13.1 -2.05,-0.36 -4.13,-0.495 -6.2,-0.5 z m 87.3,74.25 c 3.5,13.28 6.73,26.63 10.05,39.95 -2.44,-3.54 -4.86,-7.08 -7.3,-10.6 -16.42,1.18 -32.85,2.18 -49.25,3.3 -2.02,3.56 -4.05,7.14 -6.05,10.7 -2.84,-12.66 -5.77,-25.29 -8.65,-37.95 20.4,-1.86 40.82,-3.48 61.2,-5.4 z m -86.1,6 c 1.08,14.98 5.6,29.91 4.5,44.95 -3.1,-7.5 -4.75,-15.45 -6.95,-23.25 -9.64,0.92 -19.31,1.74 -28.95,2.6 1.36,7.86 2.8,15.71 3.8,23.65 -1.22,-0.34 -3.68,-0.96 -4.9,-1.3 -2.46,-7.08 -3.76,-14.48 -5.7,-21.7 l -23.8,2.15 c 0.84,7.76 1.64,15.49 2.5,23.25 -2.42,0.24 -4.83,0.54 -7.25,0.8 -1,-7.78 -1.94,-15.6 -2.8,-23.4 -8.18,0.72 -16.34,1.47 -24.5,2.25 1.04,7.9 2.06,15.75 3.1,23.65 -1.88,0.22 -5.64,0.68 -7.5,0.9 -1.02,-7.98 -2.02,-15.92 -3,-23.9 -8.68,0.78 -17.37,1.51 -26.05,2.35 1.08,8.1 2.2,16.2 3.3,24.3 -1.72,0.18 -5.18,0.57 -6.9,0.75 -1.78,-14.88 -3.52,-29.82 -5.3,-44.7 1.54,-0.16 4.61,-0.44 6.15,-0.6 0.72,5.36 1.45,10.74 2.15,16.1 8.68,-0.82 17.32,-1.76 26,-2.6 -0.66,-5.36 -1.32,-10.69 -2,-16.05 1.84,-0.16 5.56,-0.49 7.4,-0.65 0.66,5.3 1.35,10.65 2.05,15.95 8.14,-0.82 16.29,-1.64 24.45,-2.4 -0.6,-5.34 -1.23,-10.68 -1.85,-16 1.96,-0.2 5.89,-0.57 7.85,-0.75 0.54,5.3 1.12,10.6 1.7,15.9 7.7,-0.74 15.38,-1.53 23.1,-2.25 -1.34,-5.24 -2.68,-10.51 -4,-15.75 2.82,-0.26 5.66,-0.49 8.5,-0.75 0.88,5.24 1.74,10.46 2.6,15.7 9.5,-0.92 19,-1.86 28.5,-2.8 -1.42,-5.18 -2.82,-10.37 -4.2,-15.55 2.66,-0.28 5.32,-0.59 8,-0.85 z"
     id="path30"
     inkscape:connector-curvature="0" />
  <path
     d="m 281.02,477.64 c 17.5,-4.54 34.68,4.36 47.52,15.6 9.38,9.68 14.26,23.48 13.3,36.9 -0.9,17.14 -11.52,33.3 -26.7,41.24 -20.6,11.56 -48.48,7.56 -64.92,-9.44 -10.4,-10.96 -16.18,-26.7 -13.56,-41.78 4.96,-21.06 22.3,-39.7 44.36,-42.52 z"
     id="path38"
     inkscape:connector-curvature="0"
     style="fill:#f5e5c1" />
  <path
     d="m 319.6,665.8 c -6.20688,0.0312 -12.42,0.52 -18.55,1.5 -25.6,4.42 -49.29,17.86 -67.05,36.7 -39.78,41.48 -48.81,108.05 -23.65,159.35 16.6,34.8 49.32,62.31 87.5,69.75 21.26,3.78 43.68,2.5 63.9,-5.4 32.68,-12.52 58.85,-39.76 71.95,-72 14.3,-34.62 14.18,-74.84 0,-109.5 -11.5,-28.56 -32.99,-53.18 -60.35,-67.5 -16.5,-8.76 -35.12938,-12.99374 -53.75,-12.9 z m 0.2,82 c 12.7978,-0.0488 25.57,4.595 35.35,12.95 20.92,17.44 27.73,47.29 22.55,73.25 -4.98,24.58 -24.49,46.57 -49.55,51.45 -21.62,3.82 -43.27,-8.87 -54.75,-26.75 -11.88,-17.74 -13.72,-40.42 -9.5,-60.9 4.7,-22.08 20.66,-42.75 43.2,-48.35 4.165,-1.085 8.43406,-1.63374 12.7,-1.65 z"
     id="path40"
     style="fill:#f5e5c1"
     inkscape:connector-curvature="0" />
  <path
     d="m 577.45,665.8 c -6.22812,0.0388 -12.455,0.555 -18.6,1.55 -26.44,4.54 -50.74,18.82 -68.7,38.6 -39,42.4 -46.82,109.33 -20.4,160.25 17.52,34.74 51.42,61.61 90.2,67.65 19.56,2.74 39.92,1.35 58.5,-5.65 32.76,-12.12 59.16,-39.01 72.6,-71.05 14.9,-34.94 14.98,-75.83 0.6,-110.95 -11.46,-28.54 -32.95,-53.16 -60.25,-67.5 -16.575,-8.805 -35.26564,-13.01626 -53.95,-12.9 z m 1.95,82.05 c 8.02246,0.1588 15.975,2.075 23.1,5.85 18.28,9.26 30.2,28.3 33.5,48.2 2.7,17.06 1.4,35.45 -7.2,50.75 -9.24,17.42 -26.6,31.14 -46.5,33.3 -27.88,2.28 -52.65,-20.23 -59.65,-46.15 -7.02,-27.14 -1.58,-59.57 20.3,-78.65 6.4,-5.46 14.01,-9.56 22.15,-11.7 4.6725,-1.1475 9.48652,-1.69528 14.3,-1.6 z"
     id="path42"
     style="fill:#f5e5c1"
     inkscape:connector-curvature="0" />
  <path
     d="m 833.7,665.85 c -6.25374,0.1308 -12.495,0.72 -18.65,1.8 -28.08,5.42 -53.73,21.57 -71.65,43.75 -35.96,43.72 -41.26,109.47 -13.6,158.75 17.98,32.8 50.81,57.82 88.05,63.7 20.58,2.92 42.06,1.15 61.4,-6.75 29.6,-11.88 53.79,-35.83 67.35,-64.55 17.48,-36.52 18.06,-80.54 2.4,-117.8 -11.76,-28.4 -33.54,-52.7 -61,-66.7 -16.725,-8.655 -35.53876,-12.59282 -54.3,-12.2 z m 0.6,82 c 11.42852,-0.34454 22.92374,2.92 32.3,9.55 16.22,10.9 25.83,29.76 27.95,48.9 1.38,14.24 0.66,29.24 -5.8,42.3 -8.68,19.34 -27.14,35.05 -48.6,37.35 -27.86,2.22 -52.5,-20.25 -59.5,-46.15 -7.14,-27.18 -1.54,-59.71 20.4,-78.75 7.22,-6.22 16.04,-10.56 25.4,-12.4 2.6025,-0.465 5.21266,-0.7205 7.85,-0.8 z"
     id="path44"
     style="fill:#f5e5c1"
     inkscape:connector-curvature="0" />
  <path
     d="m 57.56,727.72 c 20.08,-19.54 39.62,-39.62 59.96,-58.88 20.96,1.08 41.88,2.74 62.82,3.98 -3.82,87.44 -7.4,174.88 -11.44,262.3 -22.68,-0.78 -45.34,-2.44 -68.02,-3.28 2.24,-60.7 4.72,-121.4 6.7,-182.1 -5.86,5.66 -11.62,11.48 -17.08,17.54 -10.98,-13.18 -22,-26.34 -32.94,-39.56 z"
     id="path46"
     inkscape:connector-curvature="0"
     style="fill:#f5e5c1" />
</svg>
