<?xml version="1.0" encoding="UTF-8" standalone="no"?>
<svg
   xmlns:dc="http://purl.org/dc/elements/1.1/"
   xmlns:cc="http://creativecommons.org/ns#"
   xmlns:rdf="http://www.w3.org/1999/02/22-rdf-syntax-ns#"
   xmlns:svg="http://www.w3.org/2000/svg"
   xmlns="http://www.w3.org/2000/svg"
   xmlns:sodipodi="http://sodipodi.sourceforge.net/DTD/sodipodi-0.dtd"
   xmlns:inkscape="http://www.inkscape.org/namespaces/inkscape"
   width="1280"
   height="1280"
   viewBox="0 0 1024 1024"
   version="1.1"
   id="svg2"
   inkscape:version="0.48.1 "
   sodipodi:docname="survive_burning.svg">
  <metadata
     id="metadata74">
    <rdf:RDF>
      <cc:Work
         rdf:about="">
        <dc:format>image/svg+xml</dc:format>
        <dc:type
           rdf:resource="http://purl.org/dc/dcmitype/StillImage" />
      </cc:Work>
    </rdf:RDF>
  </metadata>
  <defs
     id="defs72" />
  <sodipodi:namedview
     pagecolor="#ffffff"
     bordercolor="#666666"
     borderopacity="1"
     objecttolerance="10"
     gridtolerance="10"
     guidetolerance="10"
     inkscape:pageopacity="0"
     inkscape:pageshadow="2"
     inkscape:window-width="1920"
     inkscape:window-height="1018"
     id="namedview70"
     showgrid="false"
     inkscape:snap-page="true"
     fit-margin-top="0"
     fit-margin-left="0"
     fit-margin-right="0"
     fit-margin-bottom="0"
     inkscape:zoom="0.6609375"
     inkscape:cx="640"
     inkscape:cy="640"
     inkscape:window-x="-8"
     inkscape:window-y="-8"
     inkscape:window-maximized="1"
     inkscape:current-layer="layer2" />
  <g
     inkscape:groupmode="layer"
     id="layer1"
     inkscape:label="background"
     style="display:inline">
    <rect
       style="fill:#3e3e3e;fill-opacity:1;fill-rule:nonzero;stroke:none"
       id="rect3067"
       width="1024"
       height="1024"
       x="0"
       y="2.2737368e-013" />
  </g>
  <g
     inkscape:groupmode="layer"
     id="layer2"
     inkscape:label="foreground"
     style="display:inline">
    <path
       style="fill:#6c4b39;fill-opacity:1"
       d="m 311.85,0 c 2.6,19.44 3.42,42.74 20.2,55.9 22.44,17.28 43.49,36.83 60.15,59.85 13.12,18.7 23.93,40.68 22.85,64.1 -0.68,24.44 -15.77,46.26 -34.75,60.6 -10.98,8.4 -27.01,11.93 -39.45,4.65 -13.2,-7.7 -21.16,-21.74 -26.3,-35.7 -10.54,-30.08 -9.8,-63.8 1.4,-93.6 -23.8,24.08 -45.93,53.55 -48.65,88.45 -2.44,30.76 13.06,59.44 31.9,82.6 20.56,26.62 47.56,48.6 62.5,79.3 13.48,26.7 19.62,59.15 8.1,87.65 -9.98,25.78 -33.4,43.68 -58.4,53.7 -8.78,3.34 -18.68,5.74 -27.9,2.8 -8.12,-2.76 -13.25,-10.7 -14.95,-18.8 -2.4,-11.74 -1.48,-24.1 1.7,-35.6 2.82,-10.64 10.05,-19.26 14.25,-29.3 9.64,-22.4 14.2,-47.44 10.3,-71.7 -3.36,-19.44 -15.16,-37.23 -32.1,-47.45 -17.4,-10.68 -36.06,-23.29 -43,-43.55 -3.9,-10.08 -1.31,-20.87 1.85,-30.75 -10.34,4.38 -20.34,11.55 -23.6,22.85 -6.42,20.68 2.05,41.66 8.95,61 4.54,14.12 8.13,30.56 0.55,44.3 -6.66,11.56 -20.7,15.88 -33.3,16.3 -12.12,1.08 -23.39,-5.87 -31.25,-14.55 -11.6,-13.24 -13.14,-32.44 -8.8,-48.9 6.7,-26.58 22.24,-49.89 38.9,-71.25 9.78,-12.44 16.17,-27.16 21.65,-41.9 9.5,-26.16 12.19,-55.29 4.35,-82.25 -9.16,-33.04 -31.8,-60.48 -57,-82.9 11.16,20.92 22.42,43.68 20,68.1 -2.8,25.66 -19.07,46.77 -31.75,68.35 -26.56,42.4 -44.99,90.16 -51.25,139.9 -2.3,22.94 -1.75,46.66 5.65,68.7 10.78,34.3 37.05,61.74 44.55,97.3 5.8,27.64 2.51,57.56 -10.15,82.9 C 108.41,582.44 86.78,600.04 62,599.3 35.14,599 12.84,579.26 0,557.1 l 0,33.95 0,153.85 0,279.1 35.4,0 c 12.84,-32.7 21.49,-70.66 6.55,-104.2 35.1,7.34 71.49,7.24 106.75,1 32.84,-5.64 65.1,-15.74 94.4,-31.7 19.46,-10.94 37.98,-24.45 51.6,-42.35 2.3,-3.22 4.66,-6.61 5.5,-10.55 -2.2,-7.88 -6.97,-14.7 -10.15,-22.2 -10.66,-24.76 -16.89,-51.21 -19.85,-77.95 -1.94,-17.8 -0.74,-35.83 2.7,-53.35 5.08,-28.86 14.22,-57.27 29.2,-82.55 30.84,-52.76 83.03,-92.59 142.35,-107.65 -16.22,-20.02 -25.67,-46.75 -19.85,-72.45 3.78,-21.98 17.1,-41.79 35.9,-53.75 18.96,-11.84 42.94,-16.98 64.7,-10.6 32.06,6.54 56.97,34.63 62.25,66.55 4.24,25.4 -4.88,51.41 -21.2,70.85 23.6,6.62 46.59,16.1 66.85,30 7.96,5.56 15.95,11.04 23.55,17.1 22.16,18.98 39.78,42.48 54.7,67.4 22.42,46.44 34.35,99.93 23.75,151.15 -3.44,19.6 -9.45,38.69 -17.35,56.95 -4.4,8.62 -0.15,17.82 1.95,26.4 3.18,11.66 3.02,24.38 8.9,35.2 16.02,29.3 43.22,52.16 74.7,63.2 29.82,10.6 63.58,9.88 92.7,-2.6 19.6,-7.9 36.13,-21.44 51.45,-35.7 -1.14,28.86 1.35,59.22 15.45,85 8.96,14.98 22.08,27.12 36.5,36.8 l 24.6,0 0,-502 0,-192.9 0,-15.6 0,-97.8 0,-20.1 c -25.88,-7.96 -55.41,-14.2 -73.15,-36.5 -12.7,-16.34 -4.46,-37.3 -2.5,-55.6 -16.84,17.76 -34.38,37.61 -38.6,62.55 -3.54,21.2 8.56,40.91 22.7,55.55 14.12,15.32 32.45,26.11 45.95,42.05 11.86,13.86 21.35,30.32 24.35,48.5 3.4,18.44 -1.68,38.39 -14.1,52.55 -16.28,19.12 -40.85,28.44 -64.85,33.3 -13.16,2.58 -27.87,3.13 -39.75,-4.05 -9.98,-6.2 -13.92,-18.61 -13.3,-29.85 1.02,-23.3 12.97,-44.94 29.45,-61 -15.54,2.88 -28.45,12.85 -39.65,23.45 -13.7,13.5 -25.06,31.57 -24.5,51.45 -0.02,14.22 6.93,27.34 15.75,38.1 15.78,19.26 30.83,40.03 38.05,64.15 4.24,13.8 3.73,30.18 -6.05,41.6 -11.78,13.94 -30.76,18.3 -48,21 -17.94,2.98 -38.09,1.72 -52.75,-10.1 -15.18,-12.24 -21.35,-32.11 -23.25,-50.85 -3.6,-37.54 4.14,-74.97 13.5,-111.15 9.76,-36.38 22.54,-71.89 36.8,-106.75 14.88,-34.94 27.4,-71.7 28.5,-110 1.22,-31.12 -6.58,-63.54 -26.4,-88.1 -20.1,-24.82 -50.26,-42.84 -82.6,-44.3 19.52,21.14 35.87,48.46 33.35,78.3 -1.32,23.64 -17.73,44.12 -38.45,54.4 -14.36,7.08 -32.47,13.44 -47.55,4.8 -14.34,-8.68 -17.8,-27.62 -14.7,-43 2.66,-16.48 14.17,-29.86 28.25,-38.1 -18.6,5.1 -37.46,11.62 -52.3,24.4 -13.36,10.68 -22.64,26.47 -24.5,43.55 -3.28,27 6.91,53.47 19.65,76.75 13.1,24.3 33.16,44.18 45,69.2 5.46,11.22 6.22,24.04 4.2,36.2 -1.62,9.66 -3.05,20.65 -11.05,27.35 -12.92,10.86 -31.52,13.31 -47.5,8.95 -12.94,-3.38 -24.46,-13.36 -27.7,-26.6 -3.68,-13.86 1.2,-27.83 1.5,-41.75 0.6,-20.24 -3.49,-40.28 -8.75,-59.7 C 579.35,201.89 564.46,168.9 545.6,138.5 528.48,111.16 507.66,85.59 481.3,66.65 469.52,58.15 456.1,52.18 442.3,47.8 413.68,38.38 385.24,24.3 366.4,0 l -19.6,0 -14.75,0 -20.2,0 z M 0,304.75 l 0,33.9 0,115.8 0,33.45 C 14.86,467.06 32.42,447.36 40.7,422.7 46.56,406.46 44.98,388.4 39.5,372.3 31.1,347.32 15.98,325.39 0,304.75 z"
       id="path18"
       inkscape:connector-curvature="0" />
    <path
       style="fill:#975735;fill-opacity:1"
       d="m 311.85,0 c 2.6,19.44 3.42,42.74 20.2,55.9 22.44,17.28 43.49,36.83 60.15,59.85 13.12,18.7 23.93,40.68 22.85,64.1 -0.68,24.44 -15.77,46.26 -34.75,60.6 -10.98,8.4 -27.01,11.93 -39.45,4.65 -13.2,-7.7 -21.16,-21.74 -26.3,-35.7 -10.54,-30.08 -9.8,-63.8 1.4,-93.6 -23.8,24.08 -45.93,53.55 -48.65,88.45 -2.44,30.76 13.06,59.44 31.9,82.6 20.56,26.62 47.56,48.6 62.5,79.3 13.48,26.7 19.62,59.15 8.1,87.65 -9.98,25.78 -33.4,43.68 -58.4,53.7 -8.78,3.34 -18.68,5.74 -27.9,2.8 -8.12,-2.76 -13.25,-10.7 -14.95,-18.8 -2.4,-11.74 -1.48,-24.1 1.7,-35.6 2.82,-10.64 10.05,-19.26 14.25,-29.3 9.64,-22.4 14.2,-47.44 10.3,-71.7 -3.36,-19.44 -15.16,-37.23 -32.1,-47.45 -17.4,-10.68 -36.06,-23.29 -43,-43.55 -3.9,-10.08 -1.31,-20.87 1.85,-30.75 -10.34,4.38 -20.34,11.55 -23.6,22.85 -6.42,20.68 2.05,41.66 8.95,61 4.54,14.12 8.13,30.56 0.55,44.3 -6.66,11.56 -20.7,15.88 -33.3,16.3 -12.12,1.08 -23.39,-5.87 -31.25,-14.55 -11.6,-13.24 -13.14,-32.44 -8.8,-48.9 6.7,-26.58 22.24,-49.89 38.9,-71.25 9.78,-12.44 16.17,-27.16 21.65,-41.9 9.5,-26.16 12.19,-55.29 4.35,-82.25 -9.16,-33.04 -31.8,-60.48 -57,-82.9 11.16,20.92 22.42,43.68 20,68.1 -2.8,25.66 -19.07,46.77 -31.75,68.35 -26.56,42.4 -44.99,90.16 -51.25,139.9 -2.3,22.94 -1.75,46.66 5.65,68.7 10.78,34.3 37.05,61.74 44.55,97.3 5.8,27.64 2.51,57.56 -10.15,82.9 C 108.41,582.44 86.78,600.04 62,599.3 35.14,599 12.84,579.26 0,557.1 l 0,33.95 0,153.85 c 29.38,18.38 62.81,32.53 98.05,31.85 24.3,-0.76 50.69,-4.35 69.55,-21.15 24.68,-21.28 34.26,-54.42 38.5,-85.6 5.6,-43.98 1.86,-88.61 -5.5,-132.15 10.9,12.28 21.82,24.72 35.2,34.4 19.22,14.9 42.3,24.3 66.3,27.9 30.84,-52.76 83.03,-92.59 142.35,-107.65 -16.22,-20.02 -25.67,-46.75 -19.85,-72.45 3.78,-21.98 17.1,-41.79 35.9,-53.75 -6.04,-10.34 -12.61,-20.4 -20.05,-29.8 14.64,0.96 29.75,1.07 43.75,-3.95 14.04,-4.28 24.96,-14.71 33.5,-26.25 -2.74,16.84 -0.52,34.26 7.5,49.4 32.06,6.54 56.97,34.63 62.25,66.55 14.56,7.66 29.97,14.52 46.55,16 9.36,0.94 18.74,-0.75 27.9,-2.45 -7.3,12.32 -12.69,25.92 -13.95,40.3 -2.8,21.74 1.78,43.54 8.7,64.1 22.16,18.98 39.78,42.48 54.7,67.4 17.14,11.18 34.82,21.65 53.8,29.45 34.86,15.3 74.87,22.43 112.15,12.15 32.32,-8.26 60.22,-29.4 80.2,-55.7 17.2,-22.98 29.98,-50.26 31.2,-79.3 11.76,2.56 23.68,4.5 35.3,7.8 l 0,-192.9 0,-15.6 0,-97.8 0,-20.1 c -25.88,-7.96 -55.41,-14.2 -73.15,-36.5 -12.7,-16.34 -4.46,-37.3 -2.5,-55.6 -16.84,17.76 -34.38,37.61 -38.6,62.55 -3.54,21.2 8.56,40.91 22.7,55.55 14.12,15.32 32.45,26.11 45.95,42.05 11.86,13.86 21.35,30.32 24.35,48.5 3.4,18.44 -1.68,38.39 -14.1,52.55 -16.28,19.12 -40.85,28.44 -64.85,33.3 -13.16,2.58 -27.87,3.13 -39.75,-4.05 -9.98,-6.2 -13.92,-18.61 -13.3,-29.85 1.02,-23.3 12.97,-44.94 29.45,-61 -15.54,2.88 -28.45,12.85 -39.65,23.45 -13.7,13.5 -25.06,31.57 -24.5,51.45 -0.02,14.22 6.93,27.34 15.75,38.1 15.78,19.26 30.83,40.03 38.05,64.15 4.24,13.8 3.73,30.18 -6.05,41.6 -11.78,13.94 -30.76,18.3 -48,21 -17.94,2.98 -38.09,1.72 -52.75,-10.1 -15.18,-12.24 -21.35,-32.11 -23.25,-50.85 -3.6,-37.54 4.14,-74.97 13.5,-111.15 9.76,-36.38 22.54,-71.89 36.8,-106.75 14.88,-34.94 27.4,-71.7 28.5,-110 1.22,-31.12 -6.58,-63.54 -26.4,-88.1 -20.1,-24.82 -50.26,-42.84 -82.6,-44.3 19.52,21.14 35.87,48.46 33.35,78.3 -1.32,23.64 -17.73,44.12 -38.45,54.4 -14.36,7.08 -32.47,13.44 -47.55,4.8 -14.34,-8.68 -17.8,-27.62 -14.7,-43 2.66,-16.48 14.17,-29.86 28.25,-38.1 -18.6,5.1 -37.46,11.62 -52.3,24.4 -13.36,10.68 -22.64,26.47 -24.5,43.55 -3.28,27 6.91,53.47 19.65,76.75 13.1,24.3 33.16,44.18 45,69.2 5.46,11.22 6.22,24.04 4.2,36.2 -1.62,9.66 -3.05,20.65 -11.05,27.35 -12.92,10.86 -31.52,13.31 -47.5,8.95 -12.94,-3.38 -24.46,-13.36 -27.7,-26.6 -3.68,-13.86 1.2,-27.83 1.5,-41.75 0.6,-20.24 -3.49,-40.28 -8.75,-59.7 C 579.35,201.89 564.46,168.9 545.6,138.5 528.48,111.16 507.66,85.59 481.3,66.65 469.52,58.15 456.1,52.18 442.3,47.8 413.68,38.38 385.24,24.3 366.4,0 l -19.6,0 -14.75,0 -20.2,0 z M 0,304.75 l 0,33.9 0,115.8 0,33.45 C 14.86,467.06 32.42,447.36 40.7,422.7 46.56,406.46 44.98,388.4 39.5,372.3 31.1,347.32 15.98,325.39 0,304.75 z"
       id="path8"
       inkscape:connector-curvature="0" />
    <path
       d="m 311.85,0 c 2.6,19.44 3.42,42.74 20.2,55.9 22.44,17.28 43.49,36.83 60.15,59.85 13.12,18.7 23.93,40.68 22.85,64.1 -0.68,24.44 -15.77,46.26 -34.75,60.6 -10.98,8.4 -27.01,11.93 -39.45,4.65 -13.2,-7.7 -21.16,-21.74 -26.3,-35.7 -10.54,-30.08 -9.8,-63.8 1.4,-93.6 -23.8,24.08 -45.93,53.55 -48.65,88.45 -2.44,30.76 13.06,59.44 31.9,82.6 20.56,26.62 47.56,48.6 62.5,79.3 13.48,26.7 19.62,59.15 8.1,87.65 -9.98,25.78 -33.4,43.68 -58.4,53.7 -8.78,3.34 -18.68,5.74 -27.9,2.8 -8.12,-2.76 -13.25,-10.7 -14.95,-18.8 -2.4,-11.74 -1.48,-24.1 1.7,-35.6 2.82,-10.64 10.05,-19.26 14.25,-29.3 9.64,-22.4 14.2,-47.44 10.3,-71.7 -3.36,-19.44 -15.16,-37.23 -32.1,-47.45 -17.4,-10.68 -36.06,-23.29 -43,-43.55 -3.9,-10.08 -1.31,-20.87 1.85,-30.75 -10.34,4.38 -20.34,11.55 -23.6,22.85 -6.42,20.68 2.05,41.66 8.95,61 4.54,14.12 8.13,30.56 0.55,44.3 -6.66,11.56 -20.7,15.88 -33.3,16.3 -12.12,1.08 -23.39,-5.87 -31.25,-14.55 -11.6,-13.24 -13.14,-32.44 -8.8,-48.9 6.7,-26.58 22.24,-49.89 38.9,-71.25 9.78,-12.44 16.17,-27.16 21.65,-41.9 9.5,-26.16 12.19,-55.29 4.35,-82.25 -9.16,-33.04 -31.8,-60.48 -57,-82.9 11.16,20.92 22.42,43.68 20,68.1 -2.8,25.66 -19.07,46.77 -31.75,68.35 -26.56,42.4 -44.99,90.16 -51.25,139.9 -2.3,22.94 -1.75,46.66 5.65,68.7 10.78,34.3 37.05,61.74 44.55,97.3 5.8,27.64 2.51,57.56 -10.15,82.9 C 108.41,582.44 86.78,600.04 62,599.3 35.14,599 12.84,579.26 0,557.1 l 0,33.95 c 16.04,15.84 37.08,27.21 59.9,28.35 22.92,0.7 45.68,-9.44 61.1,-26.3 19.44,-20.8 27.84,-49.24 30.6,-77 2.84,-30.8 -6.01,-61.86 -21.25,-88.5 -13.28,-23.88 -29.31,-47.8 -31.65,-75.8 -4.3,-48.82 10.98,-97.14 32.5,-140.4 15.04,-30.8 38.21,-57.58 48.15,-90.8 7.3,28.16 4.52,58.59 -8,84.85 -7.06,18.78 -21.51,33.04 -31.95,49.8 -8.36,12.88 -15.8,26.47 -20.8,41.05 -6.24,17.98 -9.58,37.9 -3.5,56.4 7.54,29.16 39.22,50.51 69.1,43.95 18.82,-2.54 37.86,-13.7 43.9,-32.6 7.76,-19.46 1.93,-40.41 -4.05,-59.45 14.9,14.28 37.4,20.7 46.7,40.4 8.7,18.82 5.83,40.94 0.45,60.3 -3.52,12.7 -11.22,23.56 -16.7,35.4 -8.64,22.24 -11.25,48.69 0.45,70.35 8.3,14.96 26.31,22.48 42.95,20.3 22.6,-3.14 43.17,-14.68 60.75,-28.8 25.76,-21.36 39.34,-55.52 37.1,-88.7 -2.28,-24.24 -10.04,-48.07 -22.8,-68.85 -19.44,-32.38 -50.16,-55.95 -70.4,-87.75 -7.28,-12.04 -13.84,-25.11 -15,-39.35 -0.84,-8.38 0.39,-16.82 1.55,-25.1 4.02,13.6 6.91,27.77 14.15,40.15 7.9,14.82 20.23,28.08 36.55,33.4 16.76,6.1 35.76,1.49 50.2,-8.25 27.24,-18.7 46.26,-50.66 45.3,-84.2 -1.34,-21.08 -8.7,-41.6 -19.9,-59.4 C 397.56,85.88 373.06,62.08 346.4,41.7 333.6,32.04 334.13,14.36 332.05,0 l -20.2,0 z m 34.95,0 c 2.28,7.42 5.02,14.96 10.6,20.6 15.86,17.2 36.42,29.44 57.8,38.5 15,6.48 31.28,9.94 45.5,18.2 14.42,8.34 26.62,19.96 38,32 26.64,29.38 45.98,64.73 60.7,101.35 12.6,32.5 22.48,67.84 16.3,102.9 -3.6,21.14 2.74,45.09 20.1,58.65 19.08,14.74 45.88,18.06 68.4,9.9 14.66,-4.76 28.5,-15.25 33.2,-30.45 3.66,-12.16 6.42,-24.81 6.3,-37.55 -0.48,-23.66 -13.33,-44.51 -26.95,-62.95 -14.82,-19.92 -29.4,-40.47 -37.8,-64.05 -7.18,-18.94 -8.58,-41.14 1.6,-59.3 2.04,14.72 5.43,30.38 16.55,41.1 12.9,12.96 33.17,17.35 50.65,12.65 25.76,-5.88 50.12,-20.98 63.8,-44 6.72,-11.3 10.2,-24.3 11.6,-37.3 1.48,-13.52 -2.52,-26.72 -5.3,-39.8 20.96,15.72 35.53,39.65 39.15,65.65 5.28,38.38 -3.7,77.16 -18.2,112.6 -17.02,41.02 -32.93,82.6 -44.25,125.6 -8.74,34.58 -17.01,69.86 -15.85,105.8 1.38,25.12 6.59,51.98 24.05,71.2 17.9,19.84 46.92,25.72 72.5,21.8 19.92,-3.24 40.93,-7.54 56.75,-21 17.22,-14.34 24.06,-38.95 18.6,-60.45 -5.22,-25.64 -19.97,-47.83 -35.25,-68.55 13.1,4.32 26.81,8.34 40.75,6.3 32.26,-4.76 65.96,-15.81 87.7,-41.45 12.16,-13.42 17.8,-31.21 20.2,-48.85 l 0,-15.6 c -4.4,-19.84 -11.46,-39.35 -24.3,-55.35 -18.04,-26.44 -49.96,-39.86 -65.9,-68 -4.74,-7.62 -4.32,-16.88 -4.3,-25.5 6.36,8.12 12.76,16.49 21.4,22.35 21.54,15.62 47.74,22.2 73.1,28.7 l 0,-20.1 c -25.88,-7.96 -55.41,-14.2 -73.15,-36.5 -12.7,-16.34 -4.46,-37.3 -2.5,-55.6 -16.84,17.76 -34.38,37.61 -38.6,62.55 -3.54,21.2 8.56,40.91 22.7,55.55 14.12,15.32 32.45,26.11 45.95,42.05 11.86,13.86 21.35,30.32 24.35,48.5 3.4,18.44 -1.68,38.39 -14.1,52.55 -16.28,19.12 -40.85,28.44 -64.85,33.3 -13.16,2.58 -27.87,3.13 -39.75,-4.05 -9.98,-6.2 -13.92,-18.61 -13.3,-29.85 1.02,-23.3 12.97,-44.94 29.45,-61 -15.54,2.88 -28.45,12.85 -39.65,23.45 -13.7,13.5 -25.06,31.57 -24.5,51.45 -0.02,14.22 6.93,27.34 15.75,38.1 15.78,19.26 30.83,40.03 38.05,64.15 4.24,13.8 3.73,30.18 -6.05,41.6 -11.78,13.94 -30.76,18.3 -48,21 -17.94,2.98 -38.09,1.72 -52.75,-10.1 -15.18,-12.24 -21.35,-32.11 -23.25,-50.85 -3.6,-37.54 4.14,-74.97 13.5,-111.15 9.76,-36.38 22.54,-71.89 36.8,-106.75 14.88,-34.94 27.4,-71.7 28.5,-110 1.22,-31.12 -6.58,-63.54 -26.4,-88.1 -20.1,-24.82 -50.26,-42.84 -82.6,-44.3 19.52,21.14 35.87,48.46 33.35,78.3 -1.32,23.64 -17.73,44.12 -38.45,54.4 -14.36,7.08 -32.47,13.44 -47.55,4.8 -14.34,-8.68 -17.8,-27.62 -14.7,-43 2.66,-16.48 14.17,-29.86 28.25,-38.1 -18.6,5.1 -37.46,11.62 -52.3,24.4 -13.36,10.68 -22.64,26.47 -24.5,43.55 -3.28,27 6.91,53.47 19.65,76.75 13.1,24.3 33.16,44.18 45,69.2 5.46,11.22 6.22,24.04 4.2,36.2 -1.62,9.66 -3.05,20.65 -11.05,27.35 -12.92,10.86 -31.52,13.31 -47.5,8.95 -12.94,-3.38 -24.46,-13.36 -27.7,-26.6 -3.68,-13.86 1.2,-27.83 1.5,-41.75 0.6,-20.24 -3.49,-40.28 -8.75,-59.7 C 579.35,201.89 564.46,168.9 545.6,138.5 528.48,111.16 507.66,85.59 481.3,66.65 469.52,58.15 456.1,52.18 442.3,47.8 413.68,38.38 385.24,24.3 366.4,0 l -19.6,0 z"
       id="path6"
       style="fill:#f4722b"
       inkscape:connector-curvature="0" />
    <path
       d="m 448.86,435.98 c -0.68,-26.22 19.3,-50.92 45.02,-55.92 28.02,-6.78 58.84,11.84 66.34,39.56 7.9,24.94 -4.34,53.18 -26.7,66.1 -0.08,-6.16 -0.08,-12.32 -0.12,-18.48 6,-6.64 11.52,-14.22 13,-23.28 3.5,-16.16 -3.78,-33.82 -17.6,-42.84 -14.62,-10.02 -35.78,-9.06 -49.36,2.36 -11.44,9.1 -17.18,24.46 -14.74,38.86 1.3,10.34 7.58,19.14 14.96,26.16 0.02,6.04 0.02,12.06 -0.08,18.1 -18.14,-10.06 -31,-29.56 -30.72,-50.62 z"
       id="path24"
       inkscape:connector-curvature="0"
       style="fill:#f5e5c1" />
    <path
       d="m 482.12,421.16 c 16.12,-0.04 32.24,0 48.36,-0.02 0,1.88 0,5.64 0,7.54 -16.12,-0.02 -32.24,0 -48.36,-0.02 0,-1.88 0,-5.62 0,-7.5 z"
       id="path26"
       inkscape:connector-curvature="0"
       style="fill:#f5e5c1" />
    <path
       d="m 482.14,432.5 c 16.12,-0.02 32.22,0.02 48.32,-0.02 0,9.04 0,18.1 0,27.16 -16.1,-0.06 -32.2,0 -48.3,-0.02 0.04,-9.04 0.04,-18.08 -0.02,-27.12 z"
       id="path30"
       inkscape:connector-curvature="0"
       style="fill:#f5e5c1" />
    <path
       d="m 489.54,466.56 c 11.12,0 22.24,0 33.36,0 -0.04,12.06 -0.04,24.12 0,36.2 -11.1,-0.7 -22.24,-0.72 -33.36,-0.12 0.02,-12.02 0.02,-24.04 0,-36.08 z"
       id="path32"
       inkscape:connector-curvature="0"
       style="fill:#f5e5c1" />
    <path
       d="m 369.74,559.62 c 37.08,-31.48 85.52,-49.22 134.16,-49.02 44.06,-0.32 88.02,13.98 123.54,40.02 44.48,32.32 75.14,82.94 82.92,137.38 6.32,35.58 0.94,72.6 -11.74,106.22 -0.38,-0.2 -1.16,-0.56 -1.56,-0.74 -7.34,-9.82 -16.08,-18.48 -26.06,-25.56 9.42,-33.9 9.14,-70.56 -2.04,-103.98 -13.02,-39.88 -41.32,-74.42 -77.66,-95.28 -32.74,-19.1 -71.88,-26.78 -109.44,-21.84 -39.44,4.9 -76.84,24.1 -104.02,53.1 C 337.42,642 321.66,705.18 336,761.58 c -10.66,5.6 -21.1,11.64 -31,18.5 -7.26,-26.62 -12.18,-54.72 -7.98,-82.28 5.1,-53.16 31.78,-103.86 72.72,-138.18 z"
       id="path34"
       inkscape:connector-curvature="0"
       style="fill:#f5e5c1" />
    <path
       d="m 498.16,556.26 c 4.14,0.02 8.28,0.02 12.44,0.06 -0.04,8.42 -0.06,16.84 -0.02,25.28 -4.16,0 -8.3,0.04 -12.44,0.08 0.04,-8.46 0.02,-16.94 0.02,-25.42 z"
       id="path40"
       inkscape:connector-curvature="0"
       style="fill:#f5e5c1" />
    <path
       d="m 526.08,560.7 c 4.34,0.72 8.68,1.48 13.02,2.26 -3.1,24.98 -5.56,50.04 -8.52,75.02 -0.52,5.32 -3.94,9.6 -6.8,13.88 -10.18,14.52 -19.58,29.56 -29.92,43.94 10.28,-45.14 21.72,-90.02 32.22,-135.1 z"
       id="path42"
       inkscape:connector-curvature="0"
       style="fill:#f4722b" />
    <path
       d="m 489.6,713.16 c 29.96,-45.4 60.08,-90.66 90.16,-135.98 3.68,2.18 7.38,4.36 11.06,6.54 -24.32,48.6 -48.36,97.34 -72.6,146 -9.5,-5.58 -19.06,-11.08 -28.62,-16.56 z"
       id="path44"
       inkscape:connector-curvature="0"
       style="fill:#f5e5c1" />
    <path
       d="m 384.7,608.16 c 2.98,-2.92 5.96,-5.86 8.94,-8.78 6.22,6.38 12.54,12.64 18.92,18.86 -2.94,3 -5.86,6 -8.76,9.02 -6.34,-6.38 -12.7,-12.76 -19.1,-19.1 z"
       id="path46"
       inkscape:connector-curvature="0"
       style="fill:#f5e5c1" />
    <path
       d="m 598.22,616.44 c 6,-5.24 10.82,-11.96 17.5,-16.34 3.06,2.46 5.76,5.34 8.58,8.08 -5.74,5.64 -11.42,11.32 -17.04,17.06 -3,-2.94 -6.02,-5.88 -9.04,-8.8 z"
       id="path48"
       inkscape:connector-curvature="0"
       style="fill:#f5e5c1" />
    <path
       d="m 454.18,709.88 c 2.88,-19.66 18.44,-35.6 37.18,-41.22 -0.86,5.16 -1.78,10.32 -2.7,15.46 -7.96,4.72 -15.28,11.2 -18.48,20.12 -6.98,16.42 0.5,37.02 16.14,45.46 14.98,8.84 35.8,4.84 46.48,-8.86 8.6,-10.22 10.12,-24.72 5.72,-37.1 2.66,-4.7 5.36,-9.38 8.12,-14.02 9.22,14.42 11.34,33.28 4.14,49 -9.34,22.14 -35.68,35.16 -58.92,28.72 -24.94,-5.72 -42.48,-32.38 -37.68,-57.56 z"
       id="path50"
       inkscape:connector-curvature="0"
       style="fill:#f5e5c1" />
    <path
       d="m 342.7,712.7 c 8.6,0.06 17.22,0.04 25.82,0.06 -0.04,4.14 -0.06,8.28 -0.06,12.44 -8.58,0 -17.16,0 -25.74,0.02 0,-4.18 0,-8.36 -0.02,-12.52 z"
       id="path52"
       inkscape:connector-curvature="0"
       style="fill:#f5e5c1" />
    <path
       d="m 644.34,712.72 c 8.08,0.04 16.16,0.04 24.24,0 0,4.16 0,8.34 0.02,12.5 -8.08,-0.04 -16.16,-0.04 -24.24,0 0,-4.18 0,-8.34 -0.02,-12.5 z"
       id="path54"
       inkscape:connector-curvature="0"
       style="fill:#f5e5c1" />
    <path
       d="m 391.86,756.74 c 23.86,-0.48 48.68,3.36 69.24,16.14 16.96,10.62 28.42,29.22 30.38,49.12 2.62,17.68 -4.88,35.62 -17.26,48.1 -11.3,11.92 -25.92,19.94 -40.88,26.38 10.84,5 21.78,11.3 28.3,21.7 9.38,14.08 6.94,33.46 -2.64,46.8 -9.86,13.36 -25.22,21.8 -41.16,25.6 -31.44,7.74 -66.84,0.24 -91.02,-21.7 6.54,-11.22 13.02,-22.44 19.58,-33.64 15.74,9.46 33.76,18.36 52.68,15.6 7.9,-1.56 18.16,-5.6 18.94,-14.86 -0.84,-9.3 -9.22,-15.78 -17.6,-18.28 -14.66,-4.4 -30.16,-4.04 -45.3,-4.2 -0.16,-11.96 0.06,-23.92 -0.58,-35.88 17.52,0.04 35.52,-1.58 51.68,-8.82 6.96,-3.22 13.84,-8.1 16.78,-15.44 2.98,-8.18 -1.12,-17.6 -7.86,-22.58 -7.22,-5.1 -16.64,-4.84 -25.02,-3.74 -19.7,3.46 -37.5,13.44 -53.5,25.08 -11.92,-18.82 -23.9,-37.6 -35.8,-56.42 26.24,-20.38 57.16,-37.4 91.04,-38.96 z"
       id="path56"
       inkscape:connector-curvature="0"
       style="fill:#f4722b" />
    <path
       d="m 604.35,756.15 c -5.05674,0.0404 -10.1475,0.46374 -15.15,1.3 -31.78,5.1 -59.76,26.19 -75.7,53.85 -18.3,31.28 -22.1,70.55 -10.4,104.85 9.92,29.64 32.05,55.43 60.75,68.25 20.08,9.2 43.19,10.94 64.65,6.2 27.36,-6.32 51.03,-24.65 66.15,-48.05 17.1,-26.54 22.98,-59.69 17.3,-90.65 -5.44,-29.68 -21.69,-57.69 -46.25,-75.55 -17.5175,-13.21125 -39.4375,-20.37507 -61.35,-20.2 z m 0.8,72.05 c 14.51867,0.0396 28.78125,7.3925 37.8,18.8 19.32,24.28 19.21,62.96 -2.15,86 -10.28,11.14 -25.54,18.92 -41,16.7 -16.74,-2.3 -31.14,-14.18 -38.7,-29 -11.48,-22.98 -9.32,-52.77 6.3,-73.35 6.82,-8.92 16.72,-15.48 27.7,-18 3.31499,-0.81 6.69954,-1.15914 10.05,-1.15 z"
       id="path58"
       style="fill:#f4722b"
       inkscape:connector-curvature="0" />
    <path
       d="m 392.42,836.2 c 6,-3 0.18,6.68 0,0 z"
       id="path62"
       inkscape:connector-curvature="0"
       style="fill:#f5e5c1" />
    <path
       d="m 347.52,856.4 c 10.04,-6.76 20.8,-12.38 32.1,-16.7 7.04,7.38 14.92,13.86 22.96,20.1 -12.24,5.12 -25.5,7.34 -38.72,7.72 -7.72,1.44 -11.62,-6.62 -16.34,-11.12 z"
       id="path64"
       inkscape:connector-curvature="0"
       style="fill:#f5e5c1" />
    <path
       d="m 564.08,882.04 c 22.78,-8.52 43.52,-21.8 61.3,-38.32 9.58,7.18 16.26,17.36 20,28.66 -21.56,20.06 -47.6,35.08 -75.5,44.42 -5.36,-10.78 -6.56,-22.88 -5.8,-34.76 z"
       id="path66"
       inkscape:connector-curvature="0"
       style="fill:#f5e5c1" />
    <path
       d="m 454.82,897.02 c 4.5,-2.62 8.9,-5.4 13.26,-8.2 6.38,1.02 12.76,2.02 19.16,2.82 2.08,12.1 4.88,24.12 9.36,35.6 -6.86,-0.44 -13.7,-1.02 -20.52,-1.86 -4.16,-11.32 -11.28,-21.48 -21.26,-28.36 z"
       id="path68"
       inkscape:connector-curvature="0"
       style="fill:#f5e5c1" />
  </g>
</svg>
