<?xml version="1.0" encoding="UTF-8" standalone="no"?>
<svg
   xmlns:dc="http://purl.org/dc/elements/1.1/"
   xmlns:cc="http://creativecommons.org/ns#"
   xmlns:rdf="http://www.w3.org/1999/02/22-rdf-syntax-ns#"
   xmlns:svg="http://www.w3.org/2000/svg"
   xmlns="http://www.w3.org/2000/svg"
   xmlns:sodipodi="http://sodipodi.sourceforge.net/DTD/sodipodi-0.dtd"
   xmlns:inkscape="http://www.inkscape.org/namespaces/inkscape"
   width="1280"
   height="960"
   viewBox="0 0 1024 768"
   version="1.1"
   id="svg3180"
   inkscape:version="0.47 r22583"
   sodipodi:docname="assist_heavy_long.svg">
  <metadata
     id="metadata3268">
    <rdf:RDF>
      <cc:Work
         rdf:about="">
        <dc:format>image/svg+xml</dc:format>
        <dc:type
           rdf:resource="http://purl.org/dc/dcmitype/StillImage" />
        <dc:title></dc:title>
      </cc:Work>
    </rdf:RDF>
  </metadata>
  <defs
     id="defs3266">
    <inkscape:perspective
       sodipodi:type="inkscape:persp3d"
       inkscape:vp_x="0 : 263.75 : 1"
       inkscape:vp_y="0 : 1000 : 0"
       inkscape:vp_z="527.5 : 263.75 : 1"
       inkscape:persp3d-origin="263.75 : 175.83333 : 1"
       id="perspective3270" />
  </defs>
  <sodipodi:namedview
     pagecolor="#ffffff"
     bordercolor="#666666"
     borderopacity="1"
     objecttolerance="10"
     gridtolerance="10"
     guidetolerance="10"
     inkscape:pageopacity="0"
     inkscape:pageshadow="2"
     inkscape:window-width="1280"
     inkscape:window-height="738"
     id="namedview3264"
     showgrid="false"
     inkscape:zoom="0.5"
     inkscape:cx="573.76299"
     inkscape:cy="484.51724"
     inkscape:window-x="-8"
     inkscape:window-y="-8"
     inkscape:window-maximized="1"
     inkscape:current-layer="svg3180"
     inkscape:snap-page="true" />
  <path
     d="m 0,0 1024,0 0,768 L 0,768 0,0 z"
     id="path3182"
     style="fill:#3e3e3e" />
  <path
     d="m 748.15695,50.374973 c 10.10046,-2.566066 18.79961,5.51432 28.77269,5.823693 2.74807,3.166641 7.24323,6.205881 6.13308,11.046827 -1.00095,6.205881 -3.40323,12.120574 -4.36778,18.344653 6.89745,2.475068 17.36186,1.273934 20.56496,9.354308 1.0009,6.788256 -2.0747,13.303506 -3.8218,19.727776 -2.00191,6.11487 -3.87642,14.52284 -11.68381,15.23261 -5.86011,-1.31033 -11.33801,-3.84 -16.96152,-5.8419 -4.0402,8.24416 -3.56703,20.71053 -13.77669,24.18654 -11.86578,-2.91185 -26.37043,-3.931 -33.99583,-14.86863 2.23848,-7.18862 4.44058,-14.37725 6.29688,-21.67508 -7.7528,-2.58425 -20.01896,-1.45592 -22.29384,-11.55638 -0.80076,-5.896496 1.96549,-11.538203 3.34863,-17.16171 1.9473,-6.005693 3.38503,-13.667494 10.08228,-16.17896 7.27962,-0.163787 13.95867,3.585213 20.69232,5.914693 3.34861,-7.388813 2.87544,-18.308253 11.01043,-22.34844 z"
     id="path3184"
     style="fill:#f4722b" />
  <path
     d="m 607.16888,74.361334 c 4.54976,-3.785414 11.01043,-2.038307 16.43374,-2.711667 6.24228,0.218386 14.48645,-1.856307 18.47205,4.51336 3.13023,6.096693 2.00189,13.23072 2.42046,19.836973 7.88019,0.05453 16.99793,-2.748067 23.44039,3.312227 1.20113,9.900283 3.23942,20.146343 1.18294,30.028443 -4.36778,8.44434 -15.12342,5.4779 -22.76702,6.27866 -0.0547,6.66085 0.94636,13.43091 -0.27298,20.01897 -3.02105,7.24322 -12.28437,6.73363 -18.79962,7.20682 -6.87924,-0.12733 -16.94332,1.87449 -20.27375,-6.04209 -1.14654,-6.44245 -0.94636,-13.06692 -2.00189,-19.52758 -6.78824,0.18199 -13.70389,1.25574 -20.41933,-0.0364 -3.80362,-3.42141 -4.93195,-8.71734 -5.16855,-13.61288 -0.30937,-8.38976 -2.02009,-17.88966 4.1312,-24.750717 6.97023,0.145599 13.92226,-0.436774 20.81971,-1.49232 -0.16379,-7.5162 -4.56796,-17.65308 2.80265,-23.0218 z"
     id="path3186"
     style="fill:#f4722b" />
  <path
     d="m 503.32509,117.91167 c 4.25858,-2.03831 9.57271,-6.18768 14.10427,-2.54788 4.71355,3.8582 6.86104,9.82749 9.79109,14.97782 6.27867,-2.54786 13.90407,-11.26521 20.43753,-5.20493 4.87734,6.22408 8.80834,13.3581 11.44721,20.81972 2.05649,8.35336 -7.33422,12.15696 -13.50369,14.55924 0.81895,6.95204 7.11582,12.63013 5.89648,19.76418 -4.62255,8.13496 -14.39545,11.44719 -22.51224,15.0688 -9.71827,3.09384 -12.22975,-9.17232 -17.0161,-14.75943 -6.29687,0.76437 -11.19242,6.24228 -17.65308,6.20588 -5.18673,-1.67431 -7.5526,-7.02483 -10.22787,-11.30162 -2.93005,-5.3869 -7.09763,-11.30161 -4.98654,-17.74407 4.49517,-4.13118 10.26426,-6.40606 15.5238,-9.39072 -2.71166,-6.35146 -8.95394,-12.72112 -6.44247,-20.03714 3.65802,-5.07754 10.00948,-7.18862 15.14161,-10.40985 z"
     id="path3188"
     style="fill:#f4722b" />
  <path
     d="m 939.6473,159.38731 c 12.976,-18.70865 42.9498,-21.82067 59.2744,-5.80551 -11.8476,-2.69346 -25.9155,-4.36778 -36.2707,3.43963 -5.2049,3.7854 -10.2096,8.02577 -14.0679,13.2125 -4.1676,5.53251 -5.0047,12.59375 -5.9875,19.2364 3.6944,3.82181 7.4616,7.5708 11.3744,11.17422 -3.567,0.70977 -7.1158,1.49232 -10.6646,2.23848 -9.0085,-7.06123 -18.4721,-15.21441 -30.4289,-16.03336 -12.9212,-1.69251 -25.6788,4.27677 -34.7601,13.17612 -9.6819,10.35525 -12.0842,25.62426 -9.1178,39.10975 1.456,5.27772 3.5489,10.35527 5.0594,15.61479 -8.1896,-7.57081 -16.4338,-17.1981 -16.8887,-28.91829 -2.0201,-15.66939 7.5525,-30.9202 20.6013,-38.96418 9.7365,-6.82464 21.6933,-9.68188 33.4498,-9.99127 7.5708,0.0911 14.6321,3.13024 21.8207,5.15033 1.0374,-7.78919 2.0201,-15.99697 6.6062,-22.63961 z"
     id="path3190"
     style="fill:#f5e5c1" />
  <path
     d="m 432.1668,156.54826 c 7.35242,0 12.79394,5.18673 18.34464,9.2451 10.13687,7.8438 15.74219,19.72777 22.05725,30.55621 7.15223,12.24797 11.72019,26.789 9.19053,41.02067 -5.7145,9.80928 -14.45006,17.81686 -19.21821,28.15393 6.20589,24.76891 12.77574,49.51962 20.21915,73.96095 -13.74028,-1.89271 -27.66256,-1.78351 -41.33004,-4.27678 -8.44438,-29.24588 -17.96246,-58.25517 -25.55148,-87.71943 4.71356,-30.39242 11.06503,-60.60284 16.28816,-90.94065 z"
     id="path3192"
     style="fill:#f5e5c1" />
  <path
     d="m 921.3938,268.07204 c 6.0784,-14.19526 16.5974,-27.06199 31.6299,-32.12133 11.9749,-2.36587 27.2257,-0.49138 33.7956,11.21063 -9.7547,1.43772 -16.7249,-8.11679 -26.4432,-7.26143 -9.7547,1.27393 -17.3801,8.42616 -22.2029,16.59753 -7.2614,8.99033 -4.5498,21.31109 -3.6762,31.88474 -1.1466,-0.0182 -3.4578,-0.0364 -4.6225,-0.0545 -5.9511,-5.8601 -13.5583,-11.17421 -22.2575,-10.88303 -11.2833,-0.0545 -20.5467,7.37061 -28.627,14.37725 -8.2443,6.80644 -10.7921,18.08986 -19.3092,24.67791 1.3648,-14.37725 8.7901,-27.62616 19.7277,-36.90768 11.884,-8.84473 27.1348,-13.92227 41.9853,-11.52 z"
     id="path3194"
     style="fill:#f5e5c1" />
  <path
     d="m 746.68281,254.51375 c 6.80646,-2.1475 13.81308,-3.62161 20.87432,-4.62256 3.58522,3.67621 6.89745,7.6254 9.90028,11.79298 -0.29118,5.7509 -0.47317,11.50181 -0.43677,17.2709 -1.56512,0.20019 -4.69536,0.63697 -6.26048,0.83716 -0.74616,-1.25574 -2.22028,-3.7672 -2.96644,-5.04114 -4.34958,0.65516 -8.42616,2.45687 -12.77574,2.96645 -3.45782,-1.23754 -6.67905,-3.00285 -10.00947,-4.51337 -0.29119,-1.8199 -0.58237,-3.65801 -0.85536,-5.47792 0.58237,-0.85535 1.7471,-2.56607 2.32947,-3.42141 0.0364,-3.25764 0.0911,-6.53346 0.20019,-9.79109 z"
     id="path3196"
     style="fill:#f5e5c1" />
  <path
     d="m 748.6665,259.86427 c 3.43964,-6.29687 11.37442,-5.75091 17.5075,-6.06029 5.62351,4.64076 8.89933,11.3562 7.17043,18.74502 -2.42047,-3.13024 -4.62257,-6.42426 -6.82464,-9.70009 -0.92815,-0.091 -2.80266,-0.29118 -3.749,-0.40038 -0.091,1.36492 -0.27299,4.09479 -0.36399,5.44152 -3.58521,-4.25858 -8.49896,-6.56987 -13.7403,-8.02578 z"
     id="path3198"
     style="fill:#3e3e3e" />
  <path
     d="m 827.705,266.08834 c 9.9003,-7.6982 23.2766,-10.35526 35.4699,-7.88018 7.5162,1.6743 13.1215,7.22501 17.3983,13.3035 -10.883,-4.60437 -22.9854,-9.37251 -34.8512,-5.42332 -9.973,2.14749 -16.1607,12.02958 -17.7622,21.49309 -1.4741,10.22786 3.385,19.60037 6.2787,29.08208 -3.5489,-1.56512 -6.6245,-3.9674 -9.2634,-6.77006 -7.8801,-5.93287 -11.3198,-16.52473 -8.7537,-25.98823 2.5297,-6.60626 5.6781,-13.44911 11.4836,-17.81688 z"
     id="path3200"
     style="fill:#f5e5c1" />
  <path
     d="m 552.29873,285.52493 c 13.10332,-8.18958 29.1003,-7.91659 44.00532,-8.35336 8.15317,0.16378 17.47108,0.80075 24.04093,6.07848 5.55072,10.10047 7.06125,21.94806 8.0804,33.26787 -12.41175,-2.22029 -24.89631,-4.27677 -37.54464,-4.22219 -14.61384,-0.56416 -29.0275,2.36588 -43.24095,5.38692 -0.52778,-10.97403 3.29403,-21.40207 4.65894,-32.15772 z"
     id="path3202"
     style="fill:#f5e5c1" />
  <path
     d="m 747.93855,287.21744 c 2.38407,-2.20209 4.73175,-4.44057 7.09764,-6.66085 1.6925,1.8745 3.40321,3.7854 5.07753,5.7145 1.9655,0.81896 3.931,1.65611 5.89649,2.47507 1.63792,-1.8017 3.25763,-3.62161 4.87735,-5.45972 2.16568,-0.43677 4.33137,-0.87354 6.51525,-1.31033 -1.31033,11.21063 1.38314,22.11185 2.20209,33.19508 -6.78825,1.6015 -13.75849,2.62065 -20.47393,0.0728 0.21839,-3.33042 0.41857,-6.66085 0.61876,-9.97308 -3.7854,-1.00094 -7.5708,-1.98369 -11.3562,-2.96643 -0.2002,-5.02295 -0.34578,-10.06408 -0.45498,-15.08703 z"
     id="path3204"
     style="fill:#f5e5c1" />
  <path
     d="m 943.451,303.56018 c 9.427,-12.01137 25.6789,-17.36188 40.5292,-14.74122 5.2232,1.49232 11.4291,3.00284 14.1044,8.29877 3.4941,5.45971 4.0038,12.08416 2.93,18.36285 -5.132,-7.13405 -10.5191,-15.54201 -19.7278,-17.5621 -9.7546,-1.34674 -20.9835,-1.43772 -28.9365,5.31412 -8.5171,8.29878 -13.3581,19.81878 -15.2872,31.41157 -0.819,-0.12747 -2.4751,-0.38218 -3.3122,-0.50957 -1.0738,-11.02862 1.9109,-22.45763 9.7001,-30.57442 z"
     id="path3206"
     style="fill:#f5e5c1" />
  <path
     d="m 751.28717,293.56891 c 1.23755,0 3.71262,0 4.95015,0 -0.091,0.98275 -0.25479,2.93005 -0.34577,3.91279 -0.94636,-0.0545 -2.85726,-0.16378 -3.80362,-0.21838 -0.20018,-0.92816 -0.60056,-2.76626 -0.80076,-3.69441 z"
     id="path3208"
     style="fill:#3e3e3e" />
  <path
     d="m 658.83599,332.24189 c 2.16569,-13.74028 13.94047,-26.47962 28.49971,-26.09743 14.06787,-1.49232 27.08019,6.13308 36.78029,15.65118 13.70389,12.68473 19.52758,32.6673 16.36096,50.88454 -2.65707,10.90125 -10.61005,21.96626 -22.27564,23.87717 -2.1111,-2.0201 -3.65802,-4.53156 -5.29593,-6.93384 4.67715,-2.31128 9.00853,-5.24133 12.77574,-8.86293 -6.66087,-4.80456 -13.41272,-9.48171 -20.00076,-14.37726 1.54692,-1.7835 3.11203,-3.56702 4.67715,-5.33232 6.18768,4.87734 12.57555,9.5181 19.27279,13.66748 2.0019,-11.72018 0.96455,-23.84075 -4.04018,-34.68739 -5.7509,3.82181 -10.50085,8.95394 -16.23356,12.81213 -2.00189,-1.00095 -3.9674,-2.09289 -5.8601,-3.27582 5.75091,-5.42332 11.93858,-10.37347 17.65308,-15.83319 -10.48264,-10.31886 -25.75165,-20.54671 -40.89326,-13.94046 5.96928,9.64549 11.97497,19.29099 18.19904,28.7909 -1.56511,0.49137 -4.71355,1.51051 -6.29686,2.02009 -7.24323,-7.98939 -10.79205,-18.63583 -18.23546,-26.44322 -7.13403,7.40701 -8.57175,17.87147 -7.66179,27.69896 7.22502,0.18198 14.48645,0.0546 21.67507,0.81894 1.58332,2.83906 -1.98371,4.71357 -3.20304,6.89745 -5.9329,0 -12.84852,-2.27488 -17.92607,1.8927 -1.29213,-0.0728 -3.8582,-0.18198 -5.13213,-0.23658 -2.32948,-9.42711 -5.5689,-19.27281 -2.83905,-28.9911 z"
     id="path3210"
     style="fill:#f5e5c1" />
  <path
     d="m 788.72262,309.22009 c 6.11489,-1.52871 12.42998,-3.62161 18.79958,-2.18388 10.6829,1.9291 16.7068,12.22977 26.7709,15.63298 -3.6399,2.27489 -7.589,4.09479 -11.9568,4.20398 -5.1868,-4.60436 -10.3189,-9.5909 -16.6886,-12.50274 -5.6781,-0.69158 -11.75654,0.92814 -16.81589,-2.51147 -0.0364,-0.65517 -0.091,-1.96551 -0.1092,-2.63887 z"
     id="path3212"
     style="fill:#f5e5c1" />
  <path
     d="m 738.51144,311.34938 c 4.09479,-1.9109 9.08133,-0.65517 13.52189,-1.12834 0.41857,5.75091 1.32853,11.4654 1.83811,17.21631 8.51716,7.04302 18.76323,11.5564 28.35412,16.92511 2.91185,2.27489 5.95109,-0.34578 8.26237,-2.05648 -7.589,-4.42238 -15.28719,-8.75375 -22.45763,-13.83129 -0.14558,-0.52777 -0.41858,-1.54692 -0.56416,-2.07469 5.35051,-3.8036 11.21061,-6.78826 16.52474,-10.66465 9.99127,5.9693 21.83882,8.99033 30.24682,17.34371 -11.9932,6.82464 -24.9145,11.93857 -36.76209,19.0362 l -0.81896,-1.11014 c -0.56417,-5.35052 -5.29591,-9.29972 -10.48265,-6.53346 0.0182,2.38407 0,4.78635 0.0728,7.18862 2.09288,0.50958 4.18578,1.11015 6.26047,1.78351 0.0728,0.45497 0.23659,1.40133 0.32759,1.8563 -6.60626,4.05839 -13.61291,12.66655 -22.03907,8.17138 0.63697,-13.70388 -8.08037,-24.93271 -13.81308,-36.63469 -3.13023,-4.87736 -0.52776,-10.73745 1.52874,-15.4874 z"
     id="path3214"
     style="fill:#f5e5c1" />
  <path
     d="m 756.78329,319.08398 c 3.38502,0.36398 6.67906,1.23754 9.70009,2.85726 -2.89365,0.52776 -6.04207,4.07658 -8.93572,1.6197 -0.18201,-1.12834 -0.56418,-3.34862 -0.76437,-4.47696 z"
     id="path3216"
     style="fill:#f5e5c1" />
  <path
     d="m 568.11372,325.14427 c 13.15792,-5.51432 28.71809,-8.58995 42.09441,-2.0019 -2.40228,25.73346 -3.03925,51.59431 -5.36873,77.34598 -0.30937,6.11487 -7.7164,7.37061 -12.04776,9.82748 -7.953,0.45498 -18.54484,-1.34673 -21.05632,-10.22787 -1.92909,-24.9327 -2.09288,-49.9746 -3.6216,-74.94369 z"
     id="path3218"
     style="fill:#f5e5c1" />
  <path
     d="m 854.8762,331.60493 c 9.1723,-0.80076 17.8715,2.63886 26.6252,4.82275 18.927,5.16853 38.1816,9.24512 56.9266,15.10522 11.7566,3.38502 19.5458,15.1234 20.0736,27.06198 -6.9702,-3.05744 -14.0678,-6.80645 -21.9116,-6.42426 -20.4376,0.63697 -41.0207,5.05933 -59.056,14.95962 -22.0937,11.21061 -42.786,25.36948 -60.1115,43.14994 -10.1914,8.82656 -18.7086,19.45481 -24.89627,31.44798 -23.42218,-7.37062 -46.75336,-14.99602 -70.23015,-22.25745 -5.42331,-1.69251 -11.02861,-3.02104 -16.08795,-5.7145 1.43772,-8.58996 7.78919,-15.06881 12.61194,-21.92987 15.56018,-20.40112 36.94407,-34.92397 57.6182,-49.59241 8.93573,-5.78729 18.74502,-10.02768 28.06293,-15.12341 16.1608,-6.87924 32.4307,-15.03241 50.375,-15.50559 z"
     id="path3220"
     style="fill:#f5e5c1" />
  <path
     d="m 431.91201,345.38161 c 8.68095,-2.14749 17.4711,0.0364 26.13384,1.09195 34.12322,3.84 68.13726,8.66274 102.33327,11.86577 2.11109,16.48835 1.92911,33.41347 6.18768,49.53783 9.6455,4.95013 20.52852,9.80928 31.57535,7.07943 3.73081,-1.51052 6.87925,-4.22217 9.40891,-7.29783 3.05745,-3.49421 2.32949,-8.46255 3.05745,-12.73934 1.47411,-10.00947 1.56512,-20.12814 1.60152,-30.22861 12.99411,-0.14559 25.82445,2.07468 38.78217,2.62066 10.55546,1.81991 21.87527,0.0728 31.81194,4.76814 14.34084,8.00759 22.62142,22.56683 31.72095,35.57915 -12.17517,9.00855 -20.58313,22.51224 -24.84171,36.90768 5.75091,0.18199 11.52,0.23659 17.2891,0.34579 -0.1092,3.45782 -0.18199,6.93384 -0.29117,10.40985 -15.542,-1.8927 -31.08399,0.81896 -46.62599,-0.85534 -29.11848,0.0364 -58.23696,-0.52778 -87.35544,-0.69158 -23.31298,-0.12733 -46.57137,-1.6015 -69.88436,-1.25574 0.20018,-8.93572 -0.92815,-17.79866 -2.52967,-26.57061 -3.49421,-16.94332 -11.31981,-32.52171 -20.51033,-47.00814 -5.71451,-7.7164 -12.99412,-14.21347 -21.01991,-19.43659 -8.48076,-5.6235 -18.59942,-8.13498 -26.8436,-14.12247 z"
     id="path3222"
     style="fill:#f5e5c1" />
  <path
     d="m 383.32055,349.18522 c 13.46729,-2.0383 27.17117,-0.58238 40.29269,2.89365 17.43469,3.6034 34.34161,11.93857 46.0436,25.60605 9.20872,11.41081 14.81404,25.11469 21.98447,37.78124 -1.31034,1.31033 -2.63887,2.62067 -3.9492,3.931 -16.57934,-0.83716 -33.23147,0.40038 -49.7744,-1.20114 -39.69215,-0.2366 -79.38429,-0.60057 -119.0764,-0.81896 -0.52778,-18.52663 7.27961,-37.10787 21.22009,-49.35582 12.64833,-9.70011 27.88095,-15.19623 43.25915,-18.83602 z"
     id="path3224"
     style="fill:#f5e5c1" />
  <path
     d="m 753.12528,356.10085 c 2.31128,-2.72985 5.38692,-5.6963 9.13593,-3.47601 1.32852,2.60245 0.87355,5.58709 0.98275,8.38976 -1.61972,-0.0545 -4.87735,-0.1456 -6.49706,-0.20018 -0.90995,-1.18295 -2.71167,-3.53063 -3.62162,-4.71357 z"
     id="path3226"
     style="fill:#3e3e3e" />
  <path
     d="m 688.17287,362.96189 c 2.89363,-3.31222 5.7145,-6.67905 8.51716,-10.06407 2.52966,0.89175 6.11487,0.81896 6.75183,4.11299 -0.1092,5.40511 -5.4415,8.51715 -8.42616,12.42995 -2.29308,-2.16569 -4.56795,-4.33138 -6.84283,-6.47887 z"
     id="path3228"
     style="fill:#f5e5c1" />
  <path
     d="m 973.7342,413.08208 c 2.93,0.0364 5.8783,0.0911 8.8266,0.1456 9.7183,23.51317 11.9566,49.21024 13.085,74.37952 0.4549,14.10427 -1.4195,28.08114 -3.2212,42.03981 -2.1111,35.19697 -13.1397,69.53857 -30.0102,100.38598 -12.3207,28.59071 -36.2161,50.10198 -61.2034,67.70046 -11.52,6.82466 -23.95,13.23072 -37.2899,15.25082 -38.4182,-8.09859 -76.65439,-17.19811 -114.83601,-26.40683 -10.11868,-1.80171 -15.99696,-11.01043 -21.69328,-18.63583 -6.55165,-8.62635 -11.247,-18.61763 -18.87241,-26.38862 -15.70577,2.56607 -31.61174,3.69441 -47.42674,5.31411 -2.45686,16.06977 -5.11393,32.43072 -13.1761,46.82616 -6.40607,15.08702 -18.27184,26.9892 -31.41156,36.39812 -11.86578,7.33422 -26.26124,12.52089 -40.2927,9.24516 -8.31698,-2.20214 -16.47015,-5.04119 -24.42314,-8.3352 -13.10331,-5.51433 -26.8254,-9.37253 -40.03791,-14.59566 -11.21061,-4.02198 -15.36,-16.59752 -19.01801,-26.8072 -2.18388,-5.07754 -1.27393,-13.75848 -8.18957,-15.06881 -20.36474,-2.96645 -41.07527,-2.67525 -61.4582,-5.51432 -8.24416,15.37821 -19.87336,30.7746 -37.03507,36.5255 -11.86577,4.33138 -24.7689,3.49422 -37.16247,3.07564 -18.92701,-3.22123 -38.2362,-11.4654 -49.44683,-27.78994 -9.09951,-14.10428 -14.48643,-30.70181 -14.99601,-47.51774 0.98275,-21.32929 8.44436,-42.36738 21.60227,-59.23791 3.80361,-4.45876 7.8802,-9.7183 14.28627,-9.95488 0.14559,3.43962 0.25479,6.87924 0.34577,10.31886 -12.68473,13.48551 -21.63866,31.01119 -22.09364,49.77441 0.0364,9.6637 -0.81896,19.76416 3.03924,28.90009 4.51336,10.08228 9.48171,20.32835 17.3619,28.24494 10.15506,8.53535 21.92985,15.72398 35.14237,18.19904 13.08512,0.98275 27.02558,-0.76436 38.16341,-8.20778 11.08321,-7.84378 19.32739,-19.40018 23.51317,-32.30331 25.69706,0.63697 51.21213,4.20398 76.89099,4.85916 1.7289,0.32757 4.42238,0.1092 5.05935,2.23848 3.42141,17.56208 8.79013,38.14521 26.06103,46.98995 13.5037,5.8783 27.84455,9.5727 41.65763,14.66844 13.12152,4.95013 28.46332,4.64076 40.76589,-2.45687 17.79866,-10.44627 32.5581,-27.0984 38.32719,-47.17195 5.69631,-13.74029 5.51431,-28.93649 5.07754,-43.53213 18.70862,-0.50958 37.25346,-3.51242 55.94389,-4.56797 3.7854,0.1092 8.84473,-0.96454 11.08321,3.03924 9.37252,13.39451 19.05442,27.0074 32.17594,37.01687 2.98464,2.25669 6.75185,2.82085 10.26426,3.80361 32.55811,7.86199 65.20723,15.3418 97.91093,22.58502 19.2,4.84095 36.9258,-7.37061 51.5579,-18.27185 13.4126,-8.84473 24.3503,-20.76511 34.2506,-33.30426 6.0239,-8.22597 10.3188,-17.50749 15.7058,-26.13384 9.3361,-15.21441 14.1952,-32.5399 19.1272,-49.55601 4.7318,-15.81499 7.8437,-32.21233 7.6618,-48.77347 2.8937,-24.18653 0.8917,-48.57326 -1.0555,-72.74161 -2.4205,-11.82938 -5.1139,-23.76796 -10.5373,-34.651 z"
     id="path3230"
     style="fill:#f5e5c1" />
  <path
     d="m 351.21741,424.83866 c 6.0239,-1.34673 12.19338,-1.6197 18.32646,-1.6197 0.25477,5.20493 0.47317,10.40985 0.61875,15.61479 l 1.01915,1.32852 c 0.1456,25.64247 3.53062,51.10295 4.22219,76.72721 1.85629,14.77762 1.25573,29.70085 3.18482,44.47848 0.0182,14.06787 1.9473,28.02655 2.34768,42.09441 -6.24226,-0.56417 -12.42994,-1.43772 -18.67222,-1.8927 -3.74901,-43.36833 -5.38692,-86.86409 -8.80835,-130.25061 -0.16378,-15.5238 -2.51146,-30.92019 -2.23848,-46.4804 z"
     id="path3232"
     style="fill:#f5e5c1" />
  <path
     d="m 322.75409,422.85499 c 6.07849,-0.0728 12.15697,0.0545 18.23545,0.34577 2.40227,50.08379 6.89745,100.04018 9.44531,150.10579 1.34674,9.3361 1.45594,18.78141 1.34674,28.20852 -4.24038,-0.60056 -8.44437,-1.25574 -12.66655,-1.87449 -4.09479,-50.64798 -8.91753,-101.24134 -13.21251,-151.8893 -1.05554,-8.29878 -1.7289,-16.65213 -3.14844,-24.89629 z"
     id="path3234"
     style="fill:#f5e5c1" />
  <path
     d="m 378.71619,424.51109 c 8.57174,-0.1456 17.12531,0.18199 25.69705,0.21839 0.41857,21.00171 -0.56417,42.09441 1.07375,63.04152 0.56417,39.20074 0.92814,78.41971 1.03734,117.62047 -6.02388,-0.30939 -12.02957,-1.03735 -17.94426,-2.23848 -0.38218,-32.50351 -3.45783,-64.86142 -4.89555,-97.29214 -1.85629,-27.09839 -3.07564,-54.25137 -4.96833,-81.34976 z"
     id="path3236"
     style="fill:#f5e5c1" />
  <path
     d="m 879.4631,425.56664 c 7.7346,-2.89365 16.2881,-5.27773 24.5141,-3.09384 17.2891,3.56702 29.7919,18.39924 36.3253,34.06863 14.7231,33.57723 14.3227,72.05004 5.8601,107.22881 -4.9865,25.26028 -14.9414,49.8108 -30.72,70.30293 -10.7192,13.6311 -24.9509,26.00644 -42.5494,29.0275 -16.1243,2.63885 -31.9211,-6.71545 -41.0388,-19.54579 -12.5756,-17.88966 -17.5985,-39.85592 -19.5458,-61.31261 -2.3659,-36.08871 4.7136,-72.81441 20.1828,-105.48169 10.6646,-20.67414 25.2056,-41.25726 46.9717,-51.19394 z"
     id="path3238"
     style="fill:#f5e5c1" />
  <path
     d="m 411.74747,424.91147 c 6.67903,0.12733 13.37629,0.182 20.05534,0.0911 -0.16378,16.68853 1.78351,33.28607 1.41954,49.99278 0.43677,20.61954 -0.091,41.29365 1.60152,61.87679 0.34577,23.33119 0.63696,46.66237 0.83714,69.99355 -6.77004,0.0364 -13.59469,0.0728 -20.25554,-1.21933 -0.56416,-22.91261 0.23658,-45.87982 -1.51053,-68.75602 -0.43677,-24.8963 -0.58237,-49.79262 -0.96454,-74.67072 -1.20113,-12.41174 -1.01915,-24.8781 -1.18293,-37.30806 z"
     id="path3240"
     style="fill:#f5e5c1" />
  <path
     d="m 439.13704,426.03982 c 7.6436,-1.47414 15.37819,-0.38219 22.9854,0.70975 0.32759,45.86162 1.20113,91.70503 3.02104,137.51204 1.40133,14.99602 0.80076,30.08304 1.49232,45.11545 -7.44341,-0.32758 -14.90501,-0.78255 -22.36664,-0.98274 -1.43772,-29.90106 -1.74711,-59.8203 -2.12928,-89.75773 -2.74807,-30.7928 0.0182,-61.84038 -3.00284,-92.59677 z"
     id="path3242"
     style="fill:#f5e5c1" />
  <path
     d="m 469.62045,426.47659 c 7.13403,0.12747 14.28626,0.12747 21.42029,0.38217 0.69156,45.77062 0.091,91.57764 2.02009,137.31186 0.1092,15.59658 0.18198,31.19317 0.49137,46.77156 -6.44247,-0.1092 -12.95772,0.34578 -19.29099,-0.89175 -1.11015,-21.91167 -0.70977,-43.89611 -1.25574,-65.84418 -1.61973,-20.65592 -0.89175,-41.42103 -1.76531,-62.11335 -1.72891,-18.49025 -0.92815,-37.08968 -1.61971,-55.61631 z"
     id="path3244"
     style="fill:#f5e5c1" />
  <path
     d="m 504.28964,459.23488 c 30.33783,-2.11109 60.87583,-0.63696 91.28644,-1.11014 0.49139,31.44795 0.40038,62.93232 0.0545,94.39848 -10.81022,-1.9291 -21.78426,-5.07754 -32.81288,-2.87545 -11.5564,1.00095 -23.80436,3.93099 -32.19413,12.50275 -8.06217,7.57082 -13.33991,17.65308 -16.41553,28.19033 -3.14844,0.0728 -6.29688,0.14559 -9.44532,0.23659 -0.38218,-43.78692 0.1638,-87.57384 -0.47317,-131.34256 z"
     id="path3246"
     style="fill:#f5e5c1" />
  <path
     d="m 605.89494,459.36227 c 38.92778,0.47318 77.85555,-0.0547 116.78333,0.30938 -6.33329,15.06883 -13.84949,29.79186 -16.79772,46.04361 -3.42143,21.69327 -4.31318,43.80513 -3.05744,65.73498 1.32853,12.93952 3.27582,25.84266 3.8582,38.87317 -18.52664,1.9655 -37.21707,2.80266 -55.59811,5.98749 -1.38313,-1.54692 -2.76625,-3.07564 -4.16759,-4.58616 -3.749,-23.313 -16.94331,-46.53498 -39.01877,-56.78104 -2.14748,-31.79375 -0.96454,-63.73308 -2.00188,-95.58143 z"
     id="path3248"
     style="fill:#f5e5c1" />
  <path
     d="m 889.964,484.96834 c 8.1349,-3.69441 17.471,0.0182 23.1492,6.31507 8.6263,9.35432 11.5563,22.31204 13.0669,34.5782 1.4195,16.17897 -1.6379,32.55811 -6.8975,47.84531 -5.2595,13.72208 -14.3954,27.97195 -29.2094,32.4671 -10.0277,2.83906 -19.7824,-4.51335 -24.6233,-12.79393 -9.8822,-15.66938 -9.227,-34.97857 -8.0077,-52.74085 1.8564,-13.54009 6.0057,-27.06199 13.431,-38.61839 4.8955,-7.00662 10.883,-13.95867 19.0908,-17.05251 z"
     id="path3250"
     style="fill:#3e3e3e" />
  <path
     d="m 894.0587,498.83602 c 7.0067,-2.51147 14.1407,2.43867 18.0899,7.93479 8.2987,11.64739 8.2987,26.67981 7.3706,40.3473 -1.5105,13.1215 -5.4234,26.53421 -14.1406,36.74388 -5.0594,5.96929 -13.067,10.57365 -21.0928,8.15317 -6.3878,-2.49327 -10.701,-8.49895 -13.2671,-14.63203 -7.4616,-19.89156 -4.8045,-42.73139 4.8955,-61.36721 4.0949,-7.29781 9.8276,-14.66842 18.1445,-17.1799 z"
     id="path3252"
     style="fill:#f5e5c1" />
  <path
     d="m 588.27827,570.97706 c 8.20777,-1.00095 17.2891,-0.98274 24.36853,3.93099 16.19716,10.40987 23.60417,29.93744 26.09744,48.28209 2.67525,26.6616 -2.65707,55.17953 -19.3456,76.70901 -7.7164,9.93668 -19.2,18.36284 -32.23051,18.49023 -12.70294,0.92816 -24.07734,-7.66179 -30.73821,-17.85327 -9.53629,-14.94142 -13.35811,-33.08587 -12.41175,-50.68437 -0.43677,-17.67126 4.07659,-35.36074 12.46635,-50.86634 6.95204,-12.50275 17.61669,-24.07735 31.79375,-28.00834 z"
     id="path3254"
     style="fill:#f5e5c1" />
  <path
     d="m 336.49439,606.8474 c 53.12302,3.7126 106.20966,7.5344 159.35089,11.10141 -0.20019,8.77195 0.58238,17.63489 -0.89175,26.33403 -1.11015,6.0239 -7.38881,10.20966 -13.3399,9.42711 -44.02351,-4.44057 -88.11981,-8.18958 -132.16152,-12.41175 -3.11204,-3.07564 -7.00664,-5.7873 -8.35338,-10.13686 -2.34767,-7.9166 -3.6944,-16.10618 -4.60434,-24.31394 z"
     id="path3256"
     style="fill:#f5e5c1" />
  <path
     d="m 593.374,608.88568 c 5.24132,-1.07373 11.6838,-1.65611 15.97877,2.23849 8.62635,7.04303 11.90217,18.72683 11.5746,29.50067 0.25478,13.4673 -4.71355,27.78994 -15.48739,36.3799 -4.53158,3.76719 -10.93763,3.9674 -16.39736,2.63886 -5.02293,-2.12928 -8.58996,-6.67905 -10.99222,-11.429 -5.8055,-12.04777 -5.36872,-26.27944 -1.25573,-38.80039 2.89364,-8.38975 8.13497,-16.87051 16.57933,-20.52853 z"
     id="path3258"
     style="fill:#3e3e3e" />
  <path
     d="m 597.65079,614.90957 c 6.56985,-1.61971 12.72111,3.47601 15.68757,8.93574 5.18673,10.37345 4.84095,22.87621 0.90995,33.59545 -2.51147,6.82464 -7.3706,13.3217 -14.45004,15.76037 -5.25954,2.1293 -11.13782,-1.23753 -14.35905,-5.38692 -6.04209,-8.82653 -7.80741,-20.34653 -4.84095,-30.6108 2.00189,-9.3361 7.15222,-19.54578 17.05252,-22.29384 z"
     id="path3260"
     style="fill:#f5e5c1" />
  <path
     d="m 326.35751,621.35204 c 4.11298,6.53345 6.67905,13.83128 10.11868,20.71052 1.7835,4.53156 7.33421,4.44057 11.3198,5.56891 19.70957,2.43867 39.49194,4.29497 59.16513,7.02483 -2.69346,14.28626 -13.15792,26.8254 -26.20664,32.97669 -11.41081,5.6963 -25.69707,2.60246 -34.83298,-5.9329 -16.76134,-14.79582 -21.98446,-38.87317 -19.56399,-60.34805 z"
     id="path3262"
     style="fill:#f5e5c1" />
</svg>
